<svg xmlns="http://www.w3.org/2000/svg" viewBox="0 -1000 1000 1000">
	<path fill="#000000" d="M617 -525C599 -543 573 -562 545 -580C567 -601 586 -622 603 -644L551 -661C537 -642 519 -624 501 -608C475 -622 449 -637 424 -648L387 -615C410 -604 435 -591 459 -576C429 -555 397 -536 364 -521C377 -511 398 -492 405 -482C438 -500 472 -521 505 -547C534 -526 560 -507 577 -489ZM614 -704C596 -718 572 -734 545 -751C566 -771 584 -791 600 -812L548 -826C535 -810 519 -793 501 -777C475 -791 450 -804 426 -814L390 -781C412 -771 437 -759 460 -745C432 -726 402 -708 371 -694C384 -685 405 -667 413 -658C444 -674 475 -695 506 -718C533 -701 559 -682 575 -667ZM149 -424H852V-300H925V-481H847C855 -570 864 -699 869 -798H638V-747H797L794 -693H643V-642H791L786 -588H637V-537H782C780 -517 778 -499 776 -481H228L224 -537H363V-588H221L217 -642H359V-693H214L210 -742C262 -752 321 -765 365 -781L331 -827C282 -812 196 -788 138 -778L158 -481H78V-300H149ZM945 -181H545V-199C624 -231 709 -275 771 -323L726 -360L711 -356H241V-300H632C584 -271 526 -243 473 -224V-181H56V-118H473V-5C473 9 469 12 452 13C437 13 381 13 319 11C329 30 341 55 345 74C424 74 474 75 506 64C537 53 545 36 545 -3V-118H945Z"/>
</svg>