<svg xmlns="http://www.w3.org/2000/svg" viewBox="0 -1000 1000 1000">
	<path fill="#000000" d="M443 -651H246V-745H443ZM513 -802H179V-594H513ZM244 -392H145V-499H244ZM307 -552H85V-340H307ZM199 -170C163 -109 109 -41 59 5C74 15 103 33 116 44C165 -6 223 -83 265 -150ZM423 -138C472 -86 526 -13 551 33L606 -2C581 -48 523 -118 475 -170ZM431 -499H539V-392H431ZM380 -340H602V-552H370V-343H310V-264H74V-200H310V74H380V-200H620V-264H380ZM903 -798L891 -794H646V76H713V-727H860C831 -651 791 -552 753 -472C849 -378 872 -295 872 -231C872 -193 865 -161 846 -148C835 -141 821 -138 807 -136C788 -135 763 -136 737 -138C748 -118 755 -88 756 -69C780 -67 811 -68 833 -70C857 -73 878 -80 895 -93C927 -115 940 -165 940 -225C940 -296 918 -382 823 -479C866 -567 914 -672 952 -765Z"/>
</svg>