<svg xmlns="http://www.w3.org/2000/svg" viewBox="0 -1000 1000 1000">
	<path fill="#000000" d="M480 -184V-122H191V-184ZM191 -10V-73H480V-10ZM124 77H191V43H480V74H550V-237H124ZM433 -347C451 -372 471 -410 492 -446L447 -465C436 -436 415 -392 398 -363ZM181 -448C199 -418 216 -378 221 -352L265 -369C259 -395 241 -433 222 -462ZM151 -476H306V-342H151ZM521 -342H364V-476H521ZM90 -291H585V-527H90ZM320 -846C264 -749 143 -646 26 -587C35 -570 49 -537 54 -518C104 -545 153 -577 199 -614V-582H487V-637H227C265 -669 300 -704 331 -742C425 -684 531 -610 585 -557L632 -613C575 -665 466 -738 371 -793C377 -802 383 -811 388 -819ZM900 -792L888 -789H644V77H712V-721H858C831 -643 792 -533 754 -448C844 -360 868 -284 869 -221C869 -186 862 -155 844 -143C833 -136 819 -132 805 -131C787 -131 761 -131 734 -133C746 -112 753 -81 754 -61C780 -60 810 -59 833 -62C856 -65 877 -72 894 -84C926 -106 940 -154 939 -213C939 -284 916 -364 826 -456C868 -548 915 -664 952 -759Z"/>
</svg>