<svg xmlns="http://www.w3.org/2000/svg" viewBox="0 -1000 1000 1000">
	<path fill="#000000" d="M636 -803H368V-750H636ZM343 -803H75V-750H343ZM410 -370H314V-435H410ZM560 -323V-246H467V-323ZM314 -246V-323H410V-246ZM150 -323H258V-246H149C150 -265 150 -281 150 -298ZM258 -435V-370H150V-435ZM436 -531V-662H563V-531H618V-710H383V-532L374 -551L326 -537V-710H88V-530H141V-662H271V-530H319C326 -517 332 -504 337 -490H87V-298C87 -199 81 -61 26 39C41 46 69 64 80 74C122 -3 140 -107 147 -199H192V-16C192 16 177 21 165 25C172 39 181 68 184 84C199 74 224 66 372 30C370 17 367 -6 367 -22L250 2V-88H372V-136H250V-199H408V-16C408 15 393 21 380 25C388 39 398 68 400 84C416 74 443 66 620 22C617 10 614 -14 614 -29L466 3V-88H603V-136H466V-199H619V-370H467V-435H642V-490H401C396 -503 390 -517 383 -531ZM167 -629C181 -601 196 -563 203 -541L243 -555C236 -577 220 -612 206 -640ZM541 -554C533 -577 516 -613 499 -641L461 -630C476 -601 493 -563 501 -539ZM909 -791L898 -788H684V77H747V-724H872C849 -647 814 -540 780 -456C859 -367 881 -293 881 -231C881 -196 875 -165 859 -152C849 -145 837 -142 823 -141C808 -140 784 -140 760 -143C771 -123 776 -96 777 -78C802 -76 828 -77 849 -79C870 -81 889 -88 905 -99C933 -119 945 -166 945 -223C945 -293 924 -371 844 -463C882 -554 923 -670 956 -762Z"/>
</svg>