<svg xmlns="http://www.w3.org/2000/svg" viewBox="0 -1000 1000 1000">
	<path fill="#000000" d="M209 -588V-503L177 -496L196 -447C240 -460 283 -473 330 -488L325 -532L261 -516V-588H321V-640H227V-705H312V-755H227V-827H173V-755H128C134 -772 138 -788 142 -805L93 -815C83 -767 65 -718 38 -682C50 -675 72 -662 80 -655C90 -669 99 -686 108 -705H173V-640H47V-588H118C112 -526 91 -484 36 -458C48 -450 65 -430 71 -419C137 -454 162 -508 169 -588ZM186 -182H505V-130H186ZM186 -279H505V-228H186ZM186 -375H505V-324H186ZM121 -78H573V-427H121ZM241 -73C198 -35 110 8 34 30C49 42 72 64 83 76C158 53 247 7 303 -38ZM392 -37C455 -4 525 39 566 69L627 33C582 1 505 -40 438 -74ZM563 -491C557 -491 553 -492 552 -495C549 -497 548 -505 548 -517V-590H637V-641H513V-705H613V-755H513V-827H458V-755H413C418 -771 422 -788 426 -804L377 -815C367 -766 350 -718 324 -680C336 -675 357 -662 367 -655C376 -669 385 -686 394 -705H458V-641H341V-590H402C395 -533 375 -496 323 -473C334 -465 350 -445 356 -433C422 -464 446 -515 454 -590H495V-523C495 -483 498 -471 509 -461C519 -451 535 -447 551 -447H585C595 -447 609 -448 616 -452C625 -455 634 -463 639 -472C643 -481 646 -507 647 -531C634 -534 619 -542 609 -550C609 -529 608 -513 606 -505C603 -499 600 -494 597 -493C594 -491 587 -491 582 -491ZM907 -788L896 -785H662V75H728V-719H868C841 -640 802 -533 765 -448C853 -357 877 -283 877 -220C877 -184 871 -153 853 -140C842 -133 827 -130 813 -130C793 -129 767 -129 737 -131C749 -112 756 -82 757 -64C784 -62 816 -62 840 -65C863 -67 884 -74 900 -85C932 -107 944 -154 944 -213C944 -283 921 -362 833 -456C875 -549 921 -665 956 -758Z"/>
</svg>