<svg xmlns="http://www.w3.org/2000/svg" viewBox="0 -1000 1000 1000">
	<path fill="#000000" d="M311 -615H252V-734H311ZM417 -353C415 -351 411 -351 402 -351H366C353 -351 352 -352 352 -365V-552H417ZM149 -56V-159H417V-56ZM211 -552V-473C211 -422 202 -360 149 -309V-552ZM410 -307H417V-215H149V-300C158 -293 171 -282 177 -275C239 -332 253 -411 253 -472V-552H310V-365C310 -317 321 -307 362 -307ZM72 -734H198V-615H90V73H149V4H417V59H478V-615H366V-734H490V-798H72ZM852 -32H594V-287H852ZM959 -549V-617H746V-836H675V-353H525V77H594V35H852V73H924V-353H746V-549Z"/>
</svg>