<svg xmlns="http://www.w3.org/2000/svg" viewBox="0 -1000 1000 1000">
	<path fill="#000000" d="M166 -158H350V-217H166ZM286 -602H228V-730H286ZM391 -369C389 -368 385 -368 376 -368H339C327 -368 326 -369 326 -382V-538H391ZM126 -58V-298C136 -291 147 -280 153 -273C215 -328 229 -403 229 -463V-538H284V-381C284 -334 296 -324 335 -324H384H391V-58ZM188 -538V-463C188 -414 179 -354 126 -306V-538ZM50 -730H175V-602H68V74H126V3H391V60H450V-602H340V-730H461V-794H50ZM896 -831C796 -804 623 -781 478 -768C486 -752 496 -726 499 -709C646 -720 824 -742 942 -770ZM880 -709C859 -640 830 -562 798 -508C815 -502 844 -489 857 -481C886 -535 919 -620 943 -693ZM765 -510C756 -557 735 -635 716 -695L657 -683C676 -623 696 -541 703 -495ZM633 -496C614 -540 576 -616 546 -671L488 -651C517 -594 555 -516 571 -470ZM954 -370H834V-472H765V-370H486V-302H765V-13C765 1 760 4 746 5C732 6 682 6 627 5C637 24 647 52 650 71C722 71 768 71 797 60C825 48 834 29 834 -12V-302H954ZM695 -93C671 -138 619 -212 577 -266L522 -239C564 -184 614 -106 638 -61Z"/>
</svg>