<svg xmlns="http://www.w3.org/2000/svg" viewBox="0 -1000 1000 1000">
	<path fill="#000000" d="M875 -778C860 -711 832 -613 810 -555L860 -538C883 -595 911 -686 934 -761ZM701 -563C688 -616 656 -704 626 -771L573 -758C602 -689 632 -597 644 -544ZM724 -51H786V-439H937V-501H786V-834H724V-501H565V-439H724ZM790 -379C832 -293 881 -179 903 -112L957 -143C934 -206 884 -317 841 -403ZM657 -404C634 -309 591 -203 548 -147C563 -138 583 -116 594 -103C640 -167 685 -283 708 -387ZM532 -667C520 -709 497 -774 479 -824L424 -812C440 -761 463 -694 475 -652ZM147 -219V-162H291V-219ZM318 -364H311H290C282 -364 280 -365 280 -376V-544H318ZM125 -59V-285C132 -279 140 -271 144 -266C193 -322 203 -401 203 -459V-544H240V-376C240 -331 251 -322 286 -322H313V-59ZM163 -544V-459C163 -412 157 -353 120 -304V-544ZM204 -730H240V-607H204ZM288 -730H385V-792H50V-730H155V-607H73V74H125V2H313V70H367V-607H288ZM539 -369L529 -367H488C511 -437 538 -523 561 -595H395V-534H483C459 -455 430 -368 406 -308H500C489 -232 469 -147 443 -88C422 -68 397 -30 372 17L422 81C437 22 461 -43 475 -43C495 -43 524 -13 559 13C613 52 672 69 754 69C808 69 902 66 945 63C946 44 955 10 963 -8C902 -1 812 3 756 3C678 3 624 -10 574 -45C544 -64 525 -84 505 -95C534 -168 557 -270 571 -358Z"/>
</svg>