<svg xmlns="http://www.w3.org/2000/svg" viewBox="0 -1000 1000 1000">
	<path fill="#000000" d="M160 -219V-162H342V-219ZM274 -607H228V-731H274ZM368 -368C366 -368 363 -368 360 -368H330C319 -368 318 -370 318 -382V-544H368ZM136 -59V-287C145 -280 156 -270 161 -264C216 -320 228 -399 228 -459V-544H274V-382C274 -333 286 -322 326 -322H368V-59ZM184 -544V-459C184 -411 177 -353 136 -304V-544ZM59 -731H174V-607H82V74H136V2H368V60H424V-607H327V-731H437V-792H59ZM584 -610C591 -637 599 -667 607 -697H822C817 -671 810 -641 804 -610ZM866 -382C841 -336 796 -271 759 -227L734 -246V-429H955V-493H843C863 -576 885 -675 899 -751L851 -760L839 -756H622C628 -780 633 -803 638 -826L573 -832C553 -744 524 -625 498 -552H791C786 -532 781 -511 777 -493H451V-429H666V-243C582 -177 495 -110 439 -69L479 -18C534 -63 600 -117 666 -174V-6C666 6 663 9 651 9C639 10 600 10 556 8C566 27 576 54 578 73C638 73 677 72 701 61C726 49 734 32 734 -6V-175C805 -119 879 -54 919 -10L959 -57C924 -94 862 -147 801 -196C839 -238 885 -297 922 -349ZM479 -353C519 -312 569 -258 593 -222L640 -262C615 -296 564 -349 523 -387Z"/>
</svg>