<svg xmlns="http://www.w3.org/2000/svg" viewBox="0 -1000 1000 1000">
	<path fill="#000000" d="M818 -703C805 -739 774 -794 749 -835L687 -811C711 -767 742 -709 755 -673ZM163 -158H331V-217H163ZM370 -369C368 -368 365 -368 357 -368H329C319 -368 317 -369 317 -381V-538H370ZM122 -58V-300C132 -294 147 -281 152 -273C207 -328 220 -405 220 -463V-538H276V-381C276 -334 287 -324 325 -324H365H370V-58ZM178 -538V-463C178 -414 170 -352 122 -304V-538ZM218 -730H276V-602H218ZM330 -730H452V-794H50V-730H165V-602H68V74H122V3H370V60H426V-602H330ZM493 79C524 26 551 -55 569 -113L512 -136C497 -80 467 0 434 48ZM716 -527H579V-610H716ZM716 -385H579V-468H716ZM716 -240H579V-327H716ZM954 -177V-240H784V-327H924V-385H784V-468H924V-527H784V-610H948V-671H588C608 -719 626 -770 640 -820L575 -836C544 -719 490 -603 427 -527C440 -512 460 -479 468 -464C486 -486 502 -510 519 -538V-151H579V-177ZM599 -114C609 -56 619 18 621 67L678 58C675 9 664 -64 653 -122ZM704 -118C726 -62 750 13 760 62L816 45C806 -2 780 -75 756 -132ZM815 -124C849 -60 889 25 907 79L966 56C947 3 907 -79 871 -143Z"/>
</svg>