<svg xmlns="http://www.w3.org/2000/svg" viewBox="0 -1000 1000 1000">
	<path fill="#000000" d="M795 -523V-374C795 -317 807 -297 860 -297H904C919 -297 933 -297 944 -300C942 -314 940 -336 939 -350C928 -348 913 -347 903 -347H863C853 -347 852 -352 852 -374V-523ZM941 -543C915 -582 859 -647 816 -693L763 -669C775 -654 789 -637 803 -621L584 -610C610 -636 637 -665 663 -696H939V-755H709C721 -772 732 -788 744 -805L673 -829C659 -804 642 -779 625 -755H458V-696H579C560 -673 544 -655 535 -647C515 -626 497 -611 480 -608C488 -591 500 -556 504 -542C526 -549 560 -553 844 -569C861 -548 875 -529 885 -513ZM719 -302V-522H658V-302ZM151 -162H320V-219H151ZM258 -600H213V-728H258ZM349 -336H347H311C302 -336 301 -342 301 -367V-539H349ZM121 -57V-292C131 -286 142 -277 147 -270C200 -328 213 -411 213 -470V-539H258V-368C258 -311 267 -294 312 -294H347H349V-57ZM170 -539V-470C170 -421 163 -359 121 -307V-539ZM52 -728H161V-600H68V74H121V2H349V58H404V-600H310V-728H419V-790H52ZM587 -525H529V-479C529 -431 519 -367 431 -324C445 -315 465 -293 474 -279C574 -333 587 -413 587 -477ZM541 -201H612V-8H541ZM734 -201V-8H661V-201ZM857 -201V-8H783V-201ZM919 -8V-262H481V-8H436V55H959V-8Z"/>
</svg>