<svg xmlns="http://www.w3.org/2000/svg" viewBox="0 -1000 1000 1000">
	<path fill="#000000" d="M271 -607H226V-731H271ZM365 -368C363 -368 360 -368 357 -368H327C316 -368 315 -370 315 -382V-544H365ZM134 -59V-162H365V-59ZM182 -544V-459C182 -411 175 -353 134 -304V-544ZM365 -322V-219H134V-287C143 -280 154 -270 159 -264C214 -320 226 -399 226 -459V-544H271V-382C271 -333 283 -322 323 -322ZM57 -731H172V-607H80V69H134V2H365V55H421V-607H324V-731H434V-792H57ZM732 -183H916V-240H816C831 -263 847 -290 861 -317L798 -337C788 -310 769 -269 754 -240H639C632 -265 613 -305 595 -332L541 -314C554 -292 567 -264 575 -240H485V-183H663V-114H455V-56H663V76H732V-56H947V-114H732ZM657 -741H738V-639H657ZM607 -639H530V-741H607ZM789 -741H871V-639H789ZM732 -400V-466H914V-522H732V-582H932V-798H471V-582H663V-522H490V-466H663V-400H444V-343H957V-400Z"/>
</svg>