<svg xmlns="http://www.w3.org/2000/svg" viewBox="0 -1000 1000 1000">
	<path fill="#000000" d="M405 -98L273 -70V-346H404V-411H273V-519H376V-584H135C173 -624 209 -671 241 -720C300 -677 362 -625 400 -583L433 -644C395 -684 334 -733 273 -774C281 -787 288 -802 294 -816L239 -841C192 -743 112 -652 36 -593C46 -576 62 -536 67 -519C83 -533 99 -548 115 -563V-519H211V-411H61V-346H211V-58C149 -44 93 -33 49 -24L66 42C159 21 289 -10 409 -39ZM81 -280C97 -222 113 -145 117 -95L168 -110C163 -160 147 -235 129 -293ZM342 -106C360 -153 379 -225 398 -287L343 -305C334 -251 314 -172 298 -123ZM946 -593V-664H708L739 -674C731 -714 709 -779 687 -829L624 -812C643 -765 662 -705 670 -664H441V-593H566C560 -345 543 -101 361 27C378 38 400 62 410 79C549 -24 602 -188 623 -372H830C819 -128 806 -33 786 -11C777 0 768 2 751 1C732 1 684 1 634 -4C645 16 653 45 655 67C704 70 754 71 780 68C809 65 828 58 846 35C876 -1 888 -108 901 -407C902 -417 902 -442 902 -442H629C633 -492 635 -542 637 -593Z"/>
</svg>