<svg xmlns="http://www.w3.org/2000/svg" viewBox="0 -1000 1000 1000">
	<path fill="#000000" d="M426 -101L279 -70V-344H418V-411H279V-517H383V-584H142C180 -624 216 -670 247 -719C306 -676 369 -624 407 -584L443 -646C404 -684 343 -734 281 -776C289 -789 296 -802 301 -815L243 -842C195 -743 116 -652 39 -594C49 -575 66 -534 72 -517C88 -530 103 -545 119 -560V-517H215V-411H65V-344H215V-56C153 -44 97 -33 53 -24L71 46C167 23 302 -8 430 -39ZM84 -280C100 -221 116 -145 121 -95L175 -110C170 -159 153 -236 136 -294ZM349 -105C367 -152 388 -225 406 -286L348 -305C339 -251 319 -171 303 -121ZM747 -25V-342H925V-413H747V-700H942V-772H456V-700H675V-25H570V-533H501V-25H414V48H957V-25Z"/>
</svg>