<svg xmlns="http://www.w3.org/2000/svg" viewBox="0 -1000 1000 1000">
	<path fill="#000000" d="M394 -98L266 -70V-346H395V-411H266V-519H365V-584H132C168 -624 203 -670 234 -719C292 -676 352 -624 389 -584L422 -645C384 -684 324 -733 266 -774C273 -788 280 -803 286 -816L231 -842C185 -744 109 -653 35 -594C44 -576 61 -536 65 -519C81 -533 96 -548 112 -563V-519H205V-411H60V-346H205V-57C145 -44 91 -32 49 -24L64 42C156 22 281 -9 398 -38ZM78 -280C94 -221 109 -145 113 -95L164 -110C159 -160 143 -235 125 -293ZM331 -106C348 -153 367 -225 385 -287L331 -305C322 -251 303 -171 287 -122ZM573 -502C555 -554 519 -621 482 -672L425 -642C468 -579 509 -495 520 -440L573 -469V-421C573 -400 573 -379 572 -359C512 -316 454 -274 413 -249L446 -187C483 -217 525 -249 566 -282C551 -161 504 -56 372 27C388 38 411 61 421 77C614 -46 639 -220 639 -420V-826H573ZM813 5C792 5 788 -1 788 -39V-296C838 -253 887 -203 913 -167L961 -219C929 -263 855 -328 794 -375L788 -369V-469L818 -448C858 -499 908 -577 949 -643L888 -684C866 -631 823 -558 788 -504V-826H720V-39C720 47 738 70 802 70H885C945 70 961 25 968 -102C948 -107 923 -120 906 -131C904 -24 901 5 881 5Z"/>
</svg>