<svg xmlns="http://www.w3.org/2000/svg" viewBox="0 -1000 1000 1000">
	<path fill="#000000" d="M71 -415C166 -442 290 -478 408 -513L401 -570C357 -558 313 -547 270 -536V-713H406V-774H72V-713H200V-517C145 -504 94 -491 54 -482ZM356 -327C408 -351 457 -378 500 -407C550 -375 604 -350 659 -327ZM700 -271V-311C773 -285 847 -265 924 -248C932 -268 950 -293 967 -308C817 -336 670 -373 548 -444C557 -451 564 -458 572 -464L522 -491C551 -515 573 -540 589 -566C630 -548 666 -530 692 -516L725 -573C696 -588 658 -606 615 -624C627 -658 631 -690 631 -720V-739H751V-537C751 -478 756 -461 770 -449C784 -436 806 -431 825 -431H873C889 -431 908 -434 920 -440C933 -448 943 -460 948 -478C954 -496 957 -546 959 -590C940 -596 915 -608 901 -620C900 -573 900 -538 898 -521C896 -507 891 -499 887 -496C883 -492 875 -491 867 -491H841C834 -491 828 -492 825 -495C820 -499 820 -512 820 -532V-801H453V-739H563V-723C563 -701 560 -676 552 -651C517 -665 483 -679 453 -691L422 -640C454 -627 489 -612 524 -596C504 -565 474 -536 428 -510C440 -501 462 -479 474 -463C365 -385 196 -323 37 -290C53 -274 70 -250 78 -232C156 -251 235 -276 310 -307V-271H462V-201H161V-143H462V-9H322L369 -26C355 -56 329 -104 304 -139L243 -121C265 -86 291 -40 303 -9H67V51H935V-9H700C719 -42 739 -82 758 -121L689 -138C675 -101 651 -48 629 -9H536V-143H837V-201H536V-271Z"/>
</svg>