<svg xmlns="http://www.w3.org/2000/svg" viewBox="0 -1000 1000 1000">
	<path fill="#000000" d="M933 -708C914 -741 873 -789 837 -823L791 -790C826 -755 866 -703 884 -670ZM240 -346H365V-411H240V-519H331V-584H127C159 -623 190 -669 217 -717C270 -671 324 -616 359 -574L402 -631C366 -674 307 -731 248 -777C255 -790 261 -804 266 -817L216 -842C175 -744 107 -653 40 -594C49 -576 64 -536 69 -519C80 -530 92 -543 104 -556V-519H183V-411H57V-346H183V-55C131 -43 84 -32 47 -24L61 44C145 22 263 -9 374 -38L370 -99C327 -88 282 -77 240 -68ZM66 -280C80 -221 94 -145 98 -95L146 -111C142 -160 127 -236 112 -294ZM300 -106C316 -153 333 -225 349 -286L299 -306C291 -252 273 -171 261 -123ZM415 -109C434 -162 451 -251 460 -311L417 -327C408 -268 388 -180 369 -127ZM555 -43C536 -44 533 -47 534 -71L537 -391L477 -392L474 -72C472 -1 486 20 546 21C558 21 606 22 617 22C670 22 686 -10 693 -139C676 -144 652 -156 639 -168C636 -59 632 -43 613 -43ZM619 -387C605 -427 571 -488 540 -533L492 -510C522 -465 556 -402 568 -363ZM619 -359C645 -303 670 -228 678 -183L728 -203C719 -249 693 -321 666 -377ZM952 -580V-645H780C778 -707 777 -770 777 -836H712C713 -771 714 -708 717 -645H408V-580H720C738 -218 787 74 880 74C937 74 956 24 965 -147C948 -155 926 -172 912 -188C910 -64 901 -1 887 -1C848 -1 799 -246 782 -580Z"/>
</svg>