<svg xmlns="http://www.w3.org/2000/svg" viewBox="0 -1000 1000 1000">
	<path fill="#000000" d="M280 -68V-338H409V-403H280V-517H380V-581H153C189 -618 222 -660 251 -705C308 -665 370 -619 403 -588L444 -648C409 -679 345 -724 287 -762C297 -781 306 -801 315 -819L248 -840C200 -734 120 -635 33 -571C46 -556 68 -524 77 -510C90 -520 102 -531 115 -543V-517H214V-403H68V-338H214V-55C150 -42 92 -32 45 -24L63 43C164 22 298 -7 426 -35L420 -96ZM66 -280C90 -220 117 -142 130 -91L183 -108C170 -157 141 -235 117 -294ZM358 -113C377 -159 398 -229 417 -289L362 -303C351 -251 329 -173 310 -126ZM621 -490C663 -459 708 -413 728 -380L772 -411C751 -444 705 -488 663 -518ZM767 -172C745 -206 699 -254 657 -287L613 -259C655 -224 700 -174 720 -140ZM550 -126C556 -179 562 -239 567 -304H817C813 -229 809 -170 804 -126ZM826 -536C824 -471 822 -414 820 -363H572C576 -422 580 -481 584 -536ZM955 -304V-363H887C889 -420 892 -486 894 -560V-595H522C537 -617 550 -642 563 -667H937V-729H593C605 -759 617 -790 627 -821L561 -837C528 -729 473 -624 406 -555C423 -546 452 -527 464 -516C483 -539 502 -564 521 -593C518 -524 513 -443 506 -363H437V-304H501C493 -215 484 -130 476 -67H797C792 -35 785 -16 778 -8C770 5 761 7 746 7C728 7 688 7 644 3C655 20 661 45 662 63C705 66 747 67 773 64C802 61 821 53 838 29C850 13 859 -15 866 -67H927V-126H872C877 -172 881 -231 884 -304Z"/>
</svg>