<svg xmlns="http://www.w3.org/2000/svg" viewBox="0 -1000 1000 1000">
	<path fill="#000000" d="M254 -347H390V-412H254V-521H359V-586H115C153 -627 191 -676 222 -727C278 -674 341 -610 375 -568L416 -620C380 -660 310 -728 254 -779C260 -792 267 -805 273 -817L212 -837C169 -744 95 -654 21 -596C32 -579 50 -544 56 -530C74 -546 93 -563 112 -583V-521H191V-412H52V-347H191V-53C134 -42 82 -32 40 -26L58 41C151 21 277 -6 396 -32L391 -92C345 -82 298 -74 254 -65ZM55 -282C71 -225 88 -147 95 -97L148 -112C141 -161 123 -236 106 -295ZM334 -109C354 -155 375 -229 395 -290L338 -306C328 -252 307 -173 289 -124ZM515 -226C489 -156 448 -79 410 -24C425 -16 455 1 467 12C505 -45 550 -133 581 -207ZM944 -270V-335H428V-270H639V76H706V-270ZM776 -200C817 -137 865 -50 888 1L951 -30C928 -80 877 -164 836 -226ZM544 -498C584 -538 618 -584 647 -637H698C725 -587 760 -539 801 -498ZM939 -637V-708H678C691 -742 702 -780 710 -819L647 -829C638 -785 625 -745 611 -708H429V-637H574C529 -564 467 -507 389 -466C403 -454 423 -426 431 -413C469 -436 505 -462 536 -491V-433H824V-476C852 -451 882 -430 913 -414C925 -433 947 -460 964 -473C888 -505 815 -568 769 -637Z"/>
</svg>