<svg xmlns="http://www.w3.org/2000/svg" viewBox="0 -1000 1000 1000">
	<path fill="#000000" d="M815 -585C801 -486 771 -401 716 -345C730 -336 754 -317 763 -306C788 -334 811 -370 829 -409C862 -370 895 -324 913 -294L957 -336C935 -372 890 -427 851 -468C861 -501 869 -537 875 -575ZM331 -106C348 -152 367 -225 385 -287L331 -305C322 -251 303 -172 288 -123ZM630 -365C613 -393 577 -438 546 -473C556 -505 564 -540 569 -575L510 -584C493 -475 457 -381 395 -321C409 -312 434 -293 444 -282C476 -317 503 -361 524 -412C548 -381 571 -347 585 -323ZM393 -98L264 -70V-346H394V-411H264V-519H364V-584H131C167 -624 202 -671 233 -721C290 -677 350 -625 387 -584L419 -643V-635H641V-359C590 -240 495 -119 396 -52ZM707 -635H944V-701H707V-838H641V-701H419V-646C381 -684 322 -733 264 -775C272 -788 279 -803 285 -817L230 -842C185 -744 109 -653 36 -594C45 -576 61 -536 66 -519C82 -533 96 -548 112 -563V-519H204V-411H61V-346H204V-57C145 -44 91 -32 49 -25L65 42C148 22 262 -5 371 -31C386 -19 406 5 416 21C498 -33 580 -128 641 -234V76H707V-241C769 -140 848 -44 924 13C934 -6 957 -31 973 -45C875 -107 766 -237 707 -359ZM78 -280C95 -222 110 -145 114 -95L164 -111C160 -160 144 -235 127 -294Z"/>
</svg>