<svg xmlns="http://www.w3.org/2000/svg" viewBox="0 -1000 1000 1000">
	<path fill="#000000" d="M760 -170H692V-597H635V-170H575V-102H947V-170H823V-435H945V-503H823V-722C870 -734 913 -747 949 -762L903 -818C832 -784 700 -756 588 -739C596 -723 605 -698 607 -683C656 -690 709 -698 760 -708ZM244 -346H367V-411H244V-519H344V-584H126C158 -624 190 -669 217 -717C269 -675 325 -627 360 -593L390 -653C355 -686 300 -731 247 -772C255 -787 262 -803 268 -817L214 -842C173 -745 104 -653 34 -594C44 -576 60 -536 65 -519C78 -532 92 -547 106 -561V-519H185V-411H58V-346H185V-50C130 -40 81 -31 42 -25L57 42C143 24 260 -1 371 -25L368 -84C327 -76 284 -68 244 -60ZM68 -280C82 -221 98 -144 103 -93L151 -108C144 -157 128 -234 113 -293ZM315 -108C330 -154 346 -228 362 -290L311 -307C304 -253 287 -173 274 -124ZM550 -500L539 -498H473C509 -584 554 -697 588 -789H383V-721H496C459 -622 414 -510 380 -436H421V-435H524C517 -341 504 -258 486 -187C462 -230 443 -284 427 -350L378 -330C400 -239 428 -168 462 -114C440 -55 411 -9 378 23C393 36 411 63 421 80C455 45 484 1 507 -55C592 35 699 55 818 55H943C946 36 956 4 966 -13C935 -12 846 -12 821 -12C713 -12 610 -30 531 -120C561 -218 580 -342 588 -492Z"/>
</svg>