<svg xmlns="http://www.w3.org/2000/svg" viewBox="0 -1000 1000 1000">
	<path fill="#000000" d="M842 -403C828 -403 826 -409 826 -430V-566H761V-431C761 -372 773 -349 833 -349H902C921 -349 941 -350 950 -353C949 -369 948 -390 947 -407C935 -404 913 -403 901 -403ZM472 -638C502 -661 532 -687 562 -714H718L684 -695C706 -681 729 -664 750 -647ZM895 -595C864 -630 806 -679 753 -714H942V-768H615C631 -785 647 -801 662 -818L595 -842C575 -816 554 -792 532 -768H309V-714H478C451 -690 430 -671 418 -663C392 -643 371 -629 352 -627C360 -613 371 -585 375 -573C401 -581 442 -584 804 -599C819 -585 831 -571 841 -559ZM642 -380V-559H576V-380ZM460 -563H397V-519C397 -477 384 -424 261 -394C276 -382 296 -359 305 -344C442 -385 460 -456 460 -517ZM130 -306C184 -371 243 -449 293 -519L251 -563C195 -488 128 -405 80 -355ZM295 -759C261 -781 197 -812 146 -830L112 -785C161 -765 226 -732 260 -708ZM243 -623C208 -645 143 -676 91 -692L56 -646C108 -629 173 -597 208 -573ZM326 -258C387 -282 445 -309 496 -340C554 -306 615 -280 680 -258ZM511 -420C408 -337 214 -273 36 -240C52 -225 68 -202 76 -186C151 -201 229 -223 302 -249V-211H464V-154H162V-105H464V2H372C361 -27 339 -68 315 -98L255 -82C273 -57 291 -25 302 2H83V51H918V2H696C713 -24 730 -53 747 -83L686 -98C674 -70 650 -28 630 2H536V-105H841V-154H536V-211H704V-250C776 -227 850 -209 924 -194C932 -213 950 -235 966 -249C816 -274 666 -306 545 -371C553 -378 561 -384 569 -391Z"/>
</svg>