<svg xmlns="http://www.w3.org/2000/svg" viewBox="0 -1000 1000 1000">
	<path fill="#000000" d="M887 -507C870 -491 842 -467 816 -448C784 -472 751 -497 722 -518L684 -485C762 -427 865 -344 916 -296L956 -335C930 -358 893 -389 852 -421C876 -436 904 -456 927 -474ZM374 -92L268 -68V-346H396V-411H268V-519H368V-584H133C170 -624 206 -671 238 -720C294 -677 353 -625 390 -584L423 -645C387 -684 327 -732 269 -773C277 -788 284 -802 291 -816L236 -842C190 -744 111 -653 35 -594C45 -576 61 -536 66 -519C82 -533 98 -548 114 -564V-519H209V-411H65V-346H209V-56C152 -43 98 -32 57 -25L73 42C157 22 271 -5 380 -32ZM84 -280C101 -221 118 -145 123 -95L172 -110C166 -159 149 -236 130 -294ZM332 -106C350 -152 369 -226 387 -287L334 -305C325 -251 306 -171 290 -122ZM583 -520V-397C583 -359 567 -347 554 -341C564 -327 574 -301 579 -285V-284C592 -294 615 -304 747 -339C745 -352 743 -374 744 -391L641 -366V-520H953V-572H522V-631H905V-683H522V-739H951V-799H458V-508C458 -352 450 -131 359 25C373 32 401 51 413 64C508 -101 522 -344 522 -508V-520ZM545 -128C581 -88 619 -33 635 3L688 -31C671 -67 632 -120 595 -157ZM957 -233H841V-324H773V-233H523V-175H773V4C773 14 770 17 760 18C750 18 715 18 677 17C686 35 695 59 698 77C753 77 788 77 811 67C835 56 841 39 841 5V-175H957Z"/>
</svg>