<svg xmlns="http://www.w3.org/2000/svg" viewBox="0 -1000 1000 1000">
	<path fill="#000000" d="M412 -804C445 -762 479 -704 493 -667L548 -693C532 -730 498 -786 463 -826ZM304 -123C318 -169 333 -242 347 -302L296 -312C289 -261 274 -182 260 -134ZM345 -79L236 -58V-360H355V-421H236V-528H330V-589H125C157 -636 186 -690 210 -748C251 -702 288 -651 309 -615L346 -643V-605H406C404 -399 397 -207 346 -68ZM806 -228H932V-287H806V-464H883C876 -424 867 -384 859 -354L910 -342C924 -386 939 -455 954 -516L913 -527L902 -524H639C657 -557 672 -597 687 -640H946V-701H705C717 -741 725 -784 733 -826L668 -837C657 -759 638 -683 612 -618V-666H351C324 -707 278 -761 233 -807C237 -816 240 -826 243 -836L180 -851C148 -742 92 -637 23 -568C37 -558 60 -530 69 -518C77 -526 84 -535 92 -545V-528H176V-421H52V-360H176V-46C126 -36 81 -27 43 -21L60 41C135 26 230 5 324 -16C314 4 302 23 289 39C306 48 326 68 337 82C421 -30 449 -207 459 -411H530C520 -132 510 -35 494 -12C487 -1 481 2 471 1C459 1 440 1 417 -1C425 15 431 41 432 59C455 61 480 60 495 59C515 56 529 49 542 31C566 -3 577 -112 588 -440C589 -448 589 -470 589 -470H461C463 -514 464 -559 465 -605H606C597 -584 586 -564 575 -547C588 -540 609 -527 623 -516V-464H748V-52C722 -82 701 -128 686 -198C691 -253 694 -310 695 -369H638C635 -210 623 -52 565 35C580 44 601 65 611 80C638 36 657 -19 669 -81C718 37 787 64 874 64H949C951 47 960 17 969 1C948 2 893 2 879 2C853 2 829 -1 806 -10ZM65 -294C83 -234 97 -156 99 -105L148 -117C146 -167 130 -245 111 -304Z"/>
</svg>