<svg xmlns="http://www.w3.org/2000/svg" viewBox="0 -1000 1000 1000">
	<path fill="#000000" d="M917 -762H749V-703H857V-612H750V-553H857V-451H748V-392H917ZM597 -451H487V-553H594V-611H487V-702C526 -718 573 -739 611 -764L567 -807C531 -784 469 -751 427 -733V-390H597ZM398 -109L264 -77V-347H395V-412H264V-521H366V-586H123C165 -628 205 -679 239 -732C289 -686 345 -630 375 -595L417 -647C385 -683 323 -739 271 -785C277 -796 283 -806 287 -817L228 -837C184 -747 111 -661 38 -605C48 -590 66 -554 72 -539C86 -551 99 -562 113 -576V-521H201V-412H55V-347H201V-62C142 -49 89 -36 48 -28L67 39C161 14 285 -20 405 -53ZM71 -282C88 -223 105 -144 112 -93L166 -108C159 -158 140 -234 124 -294ZM331 -108C349 -155 372 -229 391 -289L333 -306C324 -252 302 -173 284 -124ZM823 -256C788 -195 737 -144 677 -104C618 -146 570 -198 537 -256ZM873 -321L861 -318H700V-833H637V-318H416V-256H511L472 -242C508 -176 557 -117 616 -67C542 -28 459 -1 373 15C385 30 401 59 408 76C502 55 594 22 674 -25C746 22 829 58 921 78C931 59 951 31 967 16C882 0 804 -29 736 -66C816 -126 878 -202 917 -300Z"/>
</svg>