<svg xmlns="http://www.w3.org/2000/svg" viewBox="0 -1000 1000 1000">
	<path fill="#000000" d="M852 -504C852 -495 850 -493 841 -493H781C787 -478 793 -460 794 -445C837 -445 867 -445 885 -453C904 -462 909 -475 909 -503V-794H679V-739H852ZM802 -635C783 -658 746 -694 718 -719L676 -693C705 -665 741 -627 760 -604ZM827 -610C763 -583 704 -559 660 -543L689 -497C735 -518 786 -543 836 -567ZM586 -500C586 -492 584 -490 575 -489H513C519 -476 525 -459 526 -446C570 -446 600 -446 618 -453C638 -461 643 -473 643 -500V-794H422V-739H586ZM437 -484C484 -505 534 -530 585 -555L574 -598C512 -571 452 -545 408 -530ZM553 -636C535 -658 499 -693 470 -718L429 -692C458 -665 493 -628 511 -605ZM256 -62V-346H384V-411H256V-519H354V-584H116C155 -622 192 -667 225 -715C283 -678 345 -632 383 -597L419 -653C379 -687 319 -731 258 -767C271 -787 281 -808 291 -828L230 -849C186 -755 109 -665 33 -607C44 -590 62 -554 68 -541C78 -550 89 -559 100 -569V-519H191V-411H50V-346H191V-50C137 -40 87 -31 48 -25L66 42C156 23 278 -2 393 -27L389 -87ZM65 -280C82 -222 99 -145 105 -95L159 -109C152 -159 134 -234 116 -293ZM321 -108C339 -154 361 -227 380 -288L324 -305C314 -251 292 -172 276 -123ZM873 -177C793 -73 623 -10 420 18C432 33 447 57 454 73C669 38 846 -31 936 -151ZM784 -252C715 -191 579 -140 456 -115C470 -102 485 -83 494 -70C624 -100 761 -155 841 -226ZM704 -339C651 -291 549 -248 464 -224C477 -213 494 -195 504 -183C593 -212 696 -259 758 -315ZM689 -491C623 -425 500 -366 393 -332C408 -320 425 -299 434 -284C518 -313 607 -357 677 -410C763 -349 844 -314 918 -287C927 -306 947 -329 963 -342C886 -363 801 -392 720 -443C727 -451 735 -458 743 -466Z"/>
</svg>