<svg xmlns="http://www.w3.org/2000/svg" viewBox="0 -1000 1000 1000">
	<path fill="#000000" d="M733 -735H830V-538C830 -474 840 -450 894 -450H923C936 -450 949 -451 959 -455C957 -470 955 -494 954 -510C945 -507 931 -506 922 -506H898C889 -506 889 -512 889 -537V-798H675V-681C675 -618 668 -535 617 -472C630 -465 656 -446 667 -434C722 -504 733 -605 733 -679ZM538 -489C556 -463 577 -426 587 -401L627 -422C618 -444 597 -480 577 -505ZM632 -561C613 -590 583 -623 549 -658C579 -697 606 -738 629 -780L571 -800C553 -766 531 -732 506 -699C477 -727 447 -753 417 -776L379 -737C409 -713 441 -685 471 -655C436 -614 397 -577 358 -547C372 -537 396 -513 406 -502C442 -533 478 -570 513 -612C545 -578 572 -544 590 -517ZM326 -92L230 -68V-346H332V-411H230V-519H304V-584H116C147 -624 176 -670 202 -718C249 -674 298 -622 330 -584L357 -645C326 -682 277 -731 228 -774C234 -788 240 -803 246 -816L199 -842C163 -746 98 -655 37 -597C45 -579 59 -539 64 -522C78 -537 91 -552 105 -569V-519H178V-411H61V-346H178V-55C132 -44 89 -33 56 -27L70 40C142 21 238 -6 329 -32ZM75 -279C89 -220 102 -144 106 -94L150 -109C146 -158 132 -235 117 -293ZM282 -105C298 -151 314 -223 330 -285L282 -304C274 -251 258 -171 244 -122ZM396 -202C396 -146 385 -72 326 -15C338 -10 359 7 367 18C431 -46 447 -134 447 -201V-282H396ZM628 -329V-391H531V-517H471V-391H367V-329H471V76H531V-329ZM627 -79C617 -79 616 -85 616 -106V-286H565V-107C565 -60 572 -40 613 -40H644C656 -40 672 -40 680 -44C678 -56 677 -70 676 -82C667 -79 651 -79 643 -79ZM860 -343C843 -277 821 -218 791 -165C765 -218 743 -278 729 -343ZM891 -408L881 -405H650V-343H704L676 -336C694 -252 722 -174 757 -109C716 -51 668 -5 616 24C628 37 646 62 654 77C705 46 752 3 792 -52C828 -1 871 41 921 71C930 53 947 30 960 18C908 -10 864 -52 828 -104C875 -182 910 -279 930 -395Z"/>
</svg>