<svg xmlns="http://www.w3.org/2000/svg" viewBox="0 -1000 1000 1000">
	<path fill="#000000" d="M927 -793H858V-650H713V-835H645V-650H504V-793H438V-586H927ZM258 -76V-345H375V-411H258V-519H345V-584H121C160 -625 197 -672 230 -722C281 -681 333 -632 366 -597L410 -649C375 -685 318 -734 263 -776C270 -788 277 -801 282 -813L221 -835C178 -744 105 -658 33 -600C43 -584 62 -549 67 -533C81 -545 94 -557 108 -571V-519H192V-411H55V-345H192V-60C138 -47 86 -35 47 -27L67 44C156 20 275 -11 386 -41L379 -104ZM72 -280C90 -220 108 -144 113 -94L167 -107C161 -157 142 -234 122 -292ZM327 -307C317 -253 294 -173 278 -125L323 -109C341 -156 363 -230 383 -291ZM527 -119H668V-30H527ZM668 -321H527V-403H668ZM668 -179H527V-261H668ZM954 -30H736V-119H911V-179H736V-261H911V-321H736V-403H935V-465H758C748 -496 728 -539 707 -573L646 -558C660 -530 676 -494 686 -465H540C553 -496 565 -528 575 -560L513 -577C485 -479 434 -383 376 -318C388 -305 410 -277 418 -263C433 -281 447 -300 462 -321V78H527V35H954Z"/>
</svg>