<svg xmlns="http://www.w3.org/2000/svg" viewBox="0 -1000 1000 1000">
	<path fill="#000000" d="M464 -306C533 -351 603 -422 651 -496V-306ZM845 -165H719V-247H845ZM719 -23V-111H845V-23ZM528 -111H653V-23H528ZM653 -247V-165H528V-247ZM967 -349C926 -395 849 -464 776 -521H958V-584H842C865 -622 889 -668 911 -711L843 -735C827 -690 799 -628 776 -584H721V-746C796 -755 867 -767 923 -783L875 -836C773 -807 587 -788 431 -778C439 -763 448 -739 450 -722C514 -725 584 -730 651 -738V-584H415V-521H596C547 -451 468 -383 395 -348V-411H268V-519H360V-584H129C167 -623 205 -669 237 -718C291 -674 348 -620 382 -579L426 -628C388 -670 327 -724 269 -769C279 -786 287 -804 295 -820L235 -842C190 -748 115 -658 40 -601C50 -584 69 -548 74 -533C88 -544 100 -556 114 -569V-519H205V-411H61V-346H205V-55C146 -43 91 -32 48 -24L66 43C162 20 292 -10 415 -40L410 -100L268 -69V-346H391C407 -332 429 -308 440 -291C447 -295 455 -300 462 -304V76H528V36H845V70H914V-306H721V-492C797 -431 880 -355 923 -304ZM335 -107C354 -154 374 -227 393 -289L336 -305C327 -251 307 -171 290 -122ZM75 -280C91 -222 106 -145 110 -95L162 -108C158 -157 142 -233 124 -291ZM481 -697C504 -663 528 -617 536 -587L597 -611C588 -640 563 -684 539 -717Z"/>
</svg>