<svg xmlns="http://www.w3.org/2000/svg" viewBox="0 -1000 1000 1000">
	<path fill="#000000" d="M393 -99L264 -71V-346H386V-411H264V-519H357V-584H130C166 -624 201 -671 232 -720C286 -678 344 -627 379 -588L410 -645C438 -625 471 -600 494 -579C459 -530 418 -490 376 -465C392 -453 411 -429 421 -415C467 -444 508 -484 544 -534V-492H800V-542C834 -493 874 -452 920 -422C930 -440 953 -465 970 -476C925 -503 885 -541 851 -587C883 -607 921 -631 952 -658L907 -698C886 -679 852 -653 823 -631C811 -650 801 -669 791 -690C823 -713 860 -741 889 -770L844 -811C825 -791 796 -765 769 -742C759 -770 750 -798 742 -826L680 -814C705 -717 742 -627 792 -553H557C600 -618 634 -697 654 -787L611 -802L598 -800H429V-739H574C562 -703 547 -669 529 -636C506 -657 473 -679 445 -696L408 -653C373 -690 318 -736 263 -774C270 -788 276 -803 283 -817L228 -842C185 -744 108 -653 35 -594C43 -576 60 -536 64 -519C80 -533 95 -548 111 -564V-519H203V-411H60V-346H203V-57C145 -44 90 -32 48 -25L64 42C155 21 280 -10 397 -39ZM78 -280C94 -221 109 -145 113 -95L162 -110C157 -159 141 -235 124 -293ZM799 -246H541V-365H799ZM865 -424H477V-187H865ZM631 -32C624 -70 600 -129 571 -174L509 -157C535 -111 558 -50 565 -12ZM329 -107C346 -153 364 -226 382 -287L329 -305C320 -251 302 -171 286 -122ZM769 -178C753 -128 722 -57 694 -10H394V51H952V-10H764C788 -53 817 -110 841 -159Z"/>
</svg>