<svg xmlns="http://www.w3.org/2000/svg" viewBox="0 -1000 1000 1000">
	<path fill="#000000" d="M159 -679H844V-543H919V-748H550C539 -777 519 -815 501 -843L425 -821C438 -799 451 -773 462 -748H87V-543H159ZM788 -480C732 -428 646 -362 570 -313C549 -367 514 -420 468 -466C494 -483 517 -500 539 -519H787V-584H212V-519H440C345 -454 209 -404 83 -374C96 -360 117 -330 124 -315C220 -344 323 -383 412 -433C431 -414 447 -395 460 -374C373 -309 206 -238 81 -208C95 -193 111 -166 119 -150C238 -187 392 -257 490 -324C502 -301 510 -277 517 -254C418 -164 224 -71 64 -34C78 -17 95 10 103 29C246 -15 417 -98 531 -185C540 -104 522 -35 492 -13C473 5 454 8 428 8C407 8 374 6 338 3C349 23 357 52 357 73C389 74 420 75 443 75C487 75 513 67 545 40C599 -2 624 -125 590 -254C605 -262 622 -272 637 -282C691 -138 786 -22 913 35C923 16 945 -12 961 -26C836 -74 741 -187 695 -319C749 -355 804 -395 849 -432Z"/>
</svg>