<svg xmlns="http://www.w3.org/2000/svg" viewBox="0 -1000 1000 1000">
	<path fill="#000000" d="M873 -741C857 -716 827 -680 798 -650C837 -616 869 -582 888 -555L939 -574C921 -596 893 -625 863 -651C885 -675 907 -702 929 -728ZM934 -799H526V-747H934ZM726 -741C709 -716 680 -680 651 -649C689 -615 721 -581 737 -553L789 -571C774 -594 745 -623 715 -650C737 -674 761 -702 783 -729ZM652 -572C636 -595 610 -624 580 -650C602 -675 624 -702 646 -728L590 -741C573 -716 545 -680 515 -649C553 -615 583 -581 600 -554ZM314 -264C381 -289 443 -317 497 -350C560 -314 625 -287 694 -264ZM161 -536V-576H257V-536ZM161 -654H257V-616H161ZM424 -654V-616H320V-654ZM424 -536H320V-576H424ZM941 -375V-426H762V-497H923V-547H541V-497H696V-426H535V-416L511 -429C505 -424 499 -420 493 -416V-454H320V-494H481V-696H320V-737H500V-787H320V-833H257V-787H68V-737H257V-696H106V-494H257V-454H67V-403H257V-342H320V-403H474C366 -334 193 -280 34 -251C49 -237 65 -213 74 -197C150 -213 228 -234 302 -260V-218H463V-155H161V-106H463V2H370C357 -29 335 -69 311 -100L251 -83C269 -59 287 -26 299 2H82V51H918V2H698C715 -25 732 -55 748 -84L686 -100C673 -71 651 -29 631 2H536V-106H841V-155H536V-218H704V-261C777 -238 852 -220 928 -204C936 -223 953 -244 968 -258C822 -282 674 -313 553 -375Z"/>
</svg>