<svg xmlns="http://www.w3.org/2000/svg" viewBox="0 -1000 1000 1000">
	<path fill="#000000" d="M799 -716H950V-775H799V-836H731V-661H799ZM669 -494H532V-544H669ZM669 -400H532V-450H669ZM669 -303H532V-356H669ZM563 -664L505 -680C479 -600 430 -522 375 -471C388 -458 408 -429 416 -417C435 -434 452 -456 469 -478V-234H532V-254H950V-303H733V-356H902V-400H733V-450H902V-494H733V-544H928V-594H742C734 -619 722 -651 710 -677L646 -659C654 -640 661 -615 668 -594H538C548 -616 557 -639 565 -661H630V-836H563V-775H401V-716H563ZM411 -92C363 -83 315 -73 269 -64V-356H396V-421H269V-527H374V-591H134C171 -629 208 -672 239 -719C296 -679 358 -632 397 -599L431 -659C392 -690 332 -733 275 -773C284 -789 292 -805 300 -820L236 -844C190 -751 110 -663 33 -606C44 -588 63 -550 69 -533C81 -543 93 -553 105 -564V-527H204V-421H54V-356H204V-50C144 -38 89 -29 45 -21L62 47C160 26 291 -1 416 -29ZM74 -290C89 -231 106 -152 112 -100L165 -114C158 -165 141 -242 125 -302ZM345 -120C360 -166 377 -239 392 -299L336 -314C329 -260 312 -181 296 -133ZM802 -157C770 -123 728 -93 680 -69C633 -94 593 -124 563 -157ZM861 -215L849 -212H414V-157H525L494 -146C525 -105 566 -70 613 -39C539 -11 458 8 376 18C388 33 403 61 409 78C503 63 597 37 679 -1C754 35 838 62 927 77C935 60 954 33 969 18C892 8 815 -12 749 -37C814 -78 869 -129 905 -192Z"/>
</svg>