<svg xmlns="http://www.w3.org/2000/svg" viewBox="0 -1000 1000 1000">
	<path fill="#000000" d="M328 -126C342 -173 356 -245 370 -305L319 -317C312 -265 295 -186 283 -138ZM376 -98L257 -71V-360H372V-424H257V-529H357V-591H130C168 -630 203 -674 234 -721C287 -680 345 -630 381 -594L416 -644V-388C416 -292 412 -173 379 -67ZM479 -610H628V-544L502 -529L509 -476L628 -491V-488C628 -432 641 -408 703 -408H837C862 -408 892 -408 906 -413C903 -427 901 -443 900 -460C885 -456 852 -455 834 -455H715C694 -455 690 -463 690 -487V-507L838 -526L832 -570L690 -552V-610H877C869 -578 861 -545 853 -522L908 -509C923 -546 940 -606 952 -657L908 -668L897 -666H697V-721H910V-775H697V-837H629V-666H416V-654C379 -689 322 -735 268 -775C276 -790 285 -804 291 -820L233 -841C188 -748 111 -657 36 -599C45 -582 59 -542 62 -526C75 -537 88 -549 101 -561V-529H195V-424H53V-360H195V-56C137 -43 84 -32 42 -23L60 43C146 22 259 -5 367 -32C357 -6 345 18 332 41C346 48 374 65 385 77C466 -54 479 -248 479 -387ZM75 -295C88 -236 102 -157 107 -106L158 -118C153 -169 138 -246 124 -305ZM908 -295C868 -265 801 -221 746 -192C731 -219 712 -244 688 -265C714 -282 739 -300 759 -319H944V-371H494V-319H690C636 -280 555 -245 487 -224C494 -214 505 -195 511 -184C554 -197 600 -217 643 -240C654 -230 663 -220 671 -209C624 -171 543 -133 477 -114C487 -103 498 -84 504 -71C568 -96 643 -136 694 -176C701 -163 706 -150 710 -138C651 -82 542 -22 456 5C467 17 479 39 485 51C564 20 657 -35 722 -90C728 -43 719 -3 705 11C695 23 683 25 668 25C655 25 634 24 612 22C622 37 627 61 628 76C647 77 665 77 680 77C709 77 729 71 748 51C782 19 794 -68 763 -152C779 -159 795 -168 811 -177C833 -84 872 6 928 52C938 38 955 17 969 6C915 -32 875 -115 854 -199C885 -217 917 -238 945 -256Z"/>
</svg>