<svg xmlns="http://www.w3.org/2000/svg" viewBox="0 -1000 1000 1000">
	<path fill="#000000" d="M707 -710C696 -746 670 -801 648 -843L580 -824C601 -781 625 -724 636 -687ZM938 -677H396V-606H938ZM325 -799L313 -796H84V75H150V-728H286C265 -661 235 -575 207 -504C278 -424 296 -355 296 -301C296 -271 291 -243 275 -232C267 -226 257 -224 245 -223C228 -221 209 -222 186 -224C198 -205 205 -177 205 -158C227 -157 252 -157 272 -160C292 -162 310 -168 324 -179C352 -198 363 -242 363 -295C363 -356 346 -429 273 -512C307 -590 344 -689 373 -770ZM825 1C817 1 811 0 806 -4C800 -8 799 -23 799 -50V-496H492V-312C492 -201 472 -69 329 26C343 36 369 66 378 82C534 -22 564 -185 564 -310V-426H726V-54C726 17 732 34 748 48C763 61 788 66 808 66H863C882 66 904 63 918 54C932 44 941 31 947 6C953 -16 956 -80 956 -134C938 -139 915 -151 900 -164C899 -104 898 -59 896 -38C893 -19 890 -9 884 -5C878 0 870 1 860 1Z"/>
</svg>