<svg xmlns="http://www.w3.org/2000/svg" viewBox="0 -1000 1000 1000">
	<path fill="#000000" d="M354 -799L343 -796H79V75H148V-728H310C283 -660 246 -573 209 -502C301 -424 325 -356 325 -301C326 -269 318 -243 301 -232C290 -226 276 -222 261 -222C243 -221 217 -221 190 -223C201 -205 208 -177 208 -158C234 -156 264 -156 288 -159C311 -161 331 -168 347 -178C379 -199 393 -241 392 -294C392 -358 370 -430 279 -512C320 -589 366 -686 403 -769ZM830 -46H499V-302H830ZM957 -564V-634H683V-836H610V-372H428V77H499V24H830V73H903V-372H683V-564Z"/>
</svg>