<svg xmlns="http://www.w3.org/2000/svg" viewBox="0 -1000 1000 1000">
	<path fill="#000000" d="M506 -605H357V-540H505C501 -469 479 -387 383 -342C398 -329 419 -306 428 -290C540 -351 570 -451 575 -540H743V-321H814V-540H946V-605H814V-828H743V-605H576V-743C615 -757 651 -773 681 -790L622 -834C568 -799 464 -765 374 -742C381 -728 392 -707 395 -692C431 -700 469 -710 506 -721ZM320 -797L308 -794H84V76H150V-726H281C260 -658 231 -569 202 -496C274 -419 291 -352 291 -298C291 -269 286 -241 271 -230C263 -225 252 -222 239 -222C224 -220 204 -221 181 -223C193 -204 199 -176 200 -157C223 -156 247 -157 267 -159C287 -161 305 -167 319 -177C346 -196 358 -238 358 -291C358 -352 341 -424 269 -505C302 -584 338 -686 368 -768ZM682 -16V-162H904V-228H682V-350H610V-228H400V-162H610V-16H328V51H957V-16Z"/>
</svg>