<svg xmlns="http://www.w3.org/2000/svg" viewBox="0 -1000 1000 1000">
	<path fill="#000000" d="M941 -734C926 -762 892 -803 862 -831L816 -804C846 -773 878 -731 893 -703ZM309 -799L299 -796H81V74H142V-729H272C251 -663 222 -577 194 -506C265 -425 283 -356 283 -301C283 -269 277 -240 262 -229C255 -223 244 -220 232 -220C216 -218 196 -219 173 -221C184 -203 190 -178 191 -161C212 -160 237 -160 256 -162C275 -164 293 -170 307 -181C333 -199 344 -243 344 -295C344 -357 326 -429 255 -513C288 -593 324 -692 353 -773ZM643 -346C633 -277 616 -217 590 -166C571 -182 551 -196 532 -210C543 -250 554 -297 564 -346ZM694 -67C678 -88 655 -109 631 -132C663 -191 682 -263 694 -346H724V-403H701C703 -416 704 -428 705 -442L655 -450C654 -434 652 -419 651 -403H575C580 -435 586 -468 590 -498H721V-551H474V-498H539C535 -468 530 -435 524 -403H474V-346H514C502 -288 490 -233 477 -191C506 -171 536 -147 564 -124C531 -78 487 -41 427 -13C440 -2 455 16 461 30C522 -2 568 -41 602 -88C623 -68 641 -49 655 -31ZM889 -522C872 -426 849 -336 818 -255C806 -361 797 -489 794 -633H936V-697H793C792 -742 792 -789 792 -836H730C731 -789 731 -743 732 -697H385V-435C385 -297 379 -100 312 42C325 47 353 65 364 77C435 -72 447 -289 447 -435V-633H734C740 -450 751 -282 770 -155C730 -82 681 -19 621 31C633 41 656 60 665 71C712 30 752 -19 787 -74C809 18 840 74 883 74C935 74 951 34 962 -73C947 -79 929 -93 916 -107C914 -25 906 12 893 12C870 12 848 -49 831 -152C883 -255 919 -376 944 -514Z"/>
</svg>