<svg xmlns="http://www.w3.org/2000/svg" viewBox="0 -1000 1000 1000">
	<path fill="#000000" d="M407 -356H900V-767H674V-703H833V-600H671V-537H833V-420H473V-537H621V-600H473V-706C528 -721 590 -739 643 -763L596 -820C547 -796 464 -763 406 -746L407 -745ZM318 -800L307 -796H84V74H150V-729H280C259 -663 230 -575 202 -505C272 -425 290 -356 290 -302C290 -271 285 -244 270 -233C262 -227 251 -224 240 -224C224 -223 205 -223 182 -225C193 -206 200 -178 201 -159C222 -158 246 -158 266 -160C285 -163 303 -169 316 -179C343 -199 354 -242 354 -295C354 -357 337 -430 267 -512C299 -591 335 -689 364 -770ZM678 -34V-211H910V-277H394V-211H608V-34H339V31H950V-34Z"/>
</svg>