<svg xmlns="http://www.w3.org/2000/svg" viewBox="0 -1000 1000 1000">
	<path fill="#000000" d="M118 -270C101 -187 73 -103 34 -45C50 -36 76 -16 88 -7C127 -68 161 -163 181 -257ZM450 -323V-389H310V-494H412V-560H146C196 -609 244 -666 285 -727C342 -683 400 -631 435 -589L482 -644C444 -684 381 -737 321 -781C328 -793 333 -804 339 -816L281 -841C225 -732 130 -631 37 -566C47 -548 63 -510 69 -493C86 -506 103 -520 120 -535V-494H242V-389H55V-323H242V-13C242 -1 239 3 227 3C216 4 178 4 135 3C145 23 155 54 157 74C214 74 254 73 278 61C303 48 310 27 310 -12V-323ZM355 -253C381 -195 411 -118 422 -67L481 -93C468 -141 439 -216 411 -274ZM707 -801C735 -753 766 -687 777 -645L842 -671C830 -713 798 -776 769 -824ZM595 -181H743V-43H595ZM743 -446H595V-578H743ZM743 -246H595V-381H743ZM956 -43H810V-181H938V-246H810V-381H937V-446H810V-578H950V-646H600C622 -702 642 -762 658 -821L593 -838C557 -690 495 -547 416 -453C429 -438 451 -407 458 -392C483 -422 505 -457 527 -494V77H595V25H956Z"/>
</svg>