<svg xmlns="http://www.w3.org/2000/svg" viewBox="0 -1000 1000 1000">
	<path fill="#000000" d="M354 -245V-229C246 -191 134 -152 60 -130L83 -65C158 -93 251 -128 344 -165C322 -89 252 -24 52 18C65 31 84 61 92 78C385 12 426 -108 426 -244V-419H354ZM117 -351C176 -316 251 -264 288 -231L334 -278C295 -312 220 -361 162 -393ZM186 -408C258 -430 345 -460 431 -489L423 -538C327 -511 227 -482 161 -466ZM194 -596C259 -579 343 -551 388 -532L411 -578C365 -597 280 -622 218 -636ZM853 -643V-513H923V-697H536V-750H864V-806H139V-750H463V-697H80V-513H147V-643H463V-439H536V-643ZM847 -455C789 -481 680 -518 599 -537L575 -493C658 -471 767 -432 823 -405ZM781 -639C730 -620 643 -591 585 -578L611 -540C670 -552 755 -571 813 -596ZM684 -4C639 -4 631 -11 631 -43V-157C722 -129 824 -92 885 -64C880 -15 870 -4 841 -4ZM917 -120C849 -149 729 -191 631 -218V-233L633 -231C707 -259 804 -301 875 -344L816 -383C769 -354 695 -316 631 -287V-418H558V-43C558 36 583 57 677 57H847C924 57 945 27 953 -79C938 -82 919 -88 905 -96Z"/>
</svg>