<svg xmlns="http://www.w3.org/2000/svg" viewBox="0 -1000 1000 1000">
	<path fill="#000000" d="M142 -665H461V-480H533V-665H856V-552H921V-711H533V-754H861V-801H141V-754H461V-711H79V-552H142ZM609 -573C667 -582 748 -596 804 -617L774 -656C726 -641 642 -617 586 -607ZM183 -489C252 -497 332 -506 415 -517V-560C320 -553 230 -546 164 -542ZM199 -617C262 -605 344 -584 389 -566L408 -609C364 -626 281 -646 218 -655ZM551 -441H364C357 -459 346 -478 336 -493L269 -478C275 -467 282 -454 288 -441H74V-390H551ZM183 -316H449V-278H183ZM509 -238V-356H126V-238ZM347 -99C410 -119 476 -146 524 -179L486 -209L474 -206H106V-159H392C358 -143 318 -129 283 -119V-93C200 -88 125 -84 66 -82L72 -28L283 -41V11C283 21 280 24 267 25C257 26 215 26 170 24C178 39 187 57 190 73C252 73 292 74 316 65C341 57 347 44 347 12V-45C415 -50 484 -54 554 -59L555 -108C485 -104 415 -100 347 -96ZM839 -531C781 -546 675 -560 595 -563L581 -521C663 -515 770 -500 827 -484ZM874 -450L863 -447H602V78H670V-390H827C804 -347 774 -297 743 -251C822 -202 848 -159 849 -124C849 -102 842 -87 827 -80C818 -75 806 -74 794 -73C775 -72 749 -72 719 -75C731 -58 738 -33 739 -15C768 -13 798 -13 823 -16C840 -18 859 -23 874 -32C903 -48 918 -78 918 -119C917 -162 892 -208 817 -259C851 -311 890 -370 922 -422Z"/>
</svg>