<svg xmlns="http://www.w3.org/2000/svg" viewBox="0 -1000 1000 1000">
	<path fill="#000000" d="M152 -643H461V-441H534V-643H849V-503H923V-692H534V-747H882V-797H119V-747H461V-692H79V-503H152ZM613 -553C670 -562 751 -576 807 -597L778 -636C730 -621 646 -597 590 -588ZM204 -600C268 -589 351 -568 395 -550L412 -591C367 -609 284 -627 222 -636ZM193 -460C258 -471 333 -484 411 -498L410 -538C322 -526 237 -516 175 -509ZM374 -426H124V-245C124 -157 115 -44 47 40C61 47 88 67 99 79C174 -11 187 -146 187 -245V-267C220 -251 258 -228 279 -211L308 -250C287 -267 245 -289 211 -303L187 -275V-369H310V-187C262 -159 219 -133 186 -116L210 -63C243 -86 276 -109 310 -134V6C310 17 306 20 295 20C285 21 248 21 207 19C215 36 224 60 227 77C285 78 321 77 343 67C367 57 374 39 374 6ZM812 -458L823 -497C770 -515 669 -534 594 -541L580 -502C647 -493 732 -475 789 -460C705 -431 563 -405 445 -389V-237C445 -154 436 -46 373 36C388 44 413 65 424 79C495 -11 508 -142 508 -236V-346C629 -362 763 -388 855 -419ZM882 -243C862 -218 829 -184 800 -157C784 -193 771 -232 762 -272C807 -283 848 -296 883 -309L840 -356C778 -330 669 -302 576 -286V-49C576 -5 545 20 527 31C538 42 554 65 559 80C574 67 600 56 769 -1C766 -14 763 -40 763 -56L638 -18V-246C662 -249 685 -254 710 -259C742 -113 803 10 902 72C911 54 931 30 946 18C894 -9 853 -56 820 -115C852 -140 890 -172 922 -203Z"/>
</svg>