<svg xmlns="http://www.w3.org/2000/svg" viewBox="0 -1000 1000 1000">
	<path fill="#000000" d="M152 -643H461V-460H534V-643H849V-503H923V-692H534V-747H882V-797H119V-747H461V-692H79V-503H152ZM830 -496C775 -515 673 -535 596 -542L581 -502C659 -491 761 -470 817 -451ZM778 -636C730 -618 646 -588 590 -575L613 -541C670 -553 751 -572 808 -597ZM194 -451C260 -464 336 -478 414 -494L411 -537C323 -523 238 -511 175 -504ZM204 -597C266 -583 344 -559 386 -539L405 -580C363 -600 286 -622 225 -634ZM829 -170V-137H583V-170ZM829 -65H583V-103H829ZM583 5V-31H829V5ZM524 72H583V44H829V71H890V-209H524ZM594 -372H813C787 -344 748 -322 702 -304C655 -320 615 -341 586 -365ZM924 -372V-417H635C645 -429 655 -442 662 -454L604 -464C573 -419 519 -368 445 -331C459 -323 478 -307 488 -293C511 -307 533 -321 553 -337C576 -316 605 -299 637 -283C583 -269 524 -259 467 -253L468 -251L433 -262L423 -259H296L304 -269C358 -305 416 -355 457 -404L418 -432L405 -429H93V-380H359C335 -354 304 -327 275 -305C248 -322 216 -342 187 -357L157 -325C190 -307 230 -281 259 -259H57V-208H209C167 -142 101 -77 40 -44C54 -32 72 -11 81 3C142 -36 207 -103 250 -172V4C250 13 247 17 237 17C226 17 195 17 156 16C165 33 173 53 176 71C228 71 263 71 285 61C308 52 314 37 314 5V-208H398C385 -173 368 -137 354 -111L402 -92C425 -130 451 -190 472 -244C478 -232 483 -216 485 -206C560 -218 634 -234 699 -258C762 -235 835 -220 911 -211C917 -227 931 -247 943 -259C880 -264 819 -273 764 -286C808 -310 847 -337 872 -372Z"/>
</svg>