<svg xmlns="http://www.w3.org/2000/svg" viewBox="0 -1000 1000 1000">
	<path fill="#000000" d="M139 -418H233V-292H139ZM391 -292H291V-418H391ZM193 -680H331V-602H193ZM942 -380V-450H744V-596H952V-666H744V-836H671V-666H469V-596H671V-450H486V-380H648C610 -277 549 -176 478 -109V-151H296V-234H455V-476H296V-545H399V-680H477V-742H399V-827H331V-742H193V-827H128V-742H48V-680H128V-545H228V-476H77V-234H228V-151H43V-87H228V77H296V-87H453C444 -80 434 -73 425 -67C440 -53 463 -28 475 -11C551 -70 621 -170 671 -283V75H744V-303C791 -192 856 -85 920 -22C932 -40 957 -65 973 -79C897 -141 818 -262 770 -380Z"/>
</svg>