<svg xmlns="http://www.w3.org/2000/svg" viewBox="0 -1000 1000 1000">
	<path fill="#000000" d="M301 -605H181V-682H301ZM349 -298H270V-419H349ZM130 -419H215V-298H130ZM360 -835H301V-745H181V-835H123V-745H48V-682H123V-545H210V-479H72V-239H210V-160H44V-96H210V77H275V-96H429V-160H275V-239H409V-479H274V-545H360V-682H433V-745H360ZM534 -355C539 -403 543 -458 547 -511H731V-800H464V-732H661V-578H486C481 -485 470 -364 458 -288H664C652 -102 639 -28 621 -10C612 0 604 2 589 2C573 2 533 1 491 -3C501 15 508 42 510 61C551 64 592 64 615 62C642 60 660 53 677 34C704 3 719 -84 732 -323C734 -333 734 -355 734 -355ZM837 -821V65H906V-821Z"/>
</svg>