<svg xmlns="http://www.w3.org/2000/svg" viewBox="0 -1000 1000 1000">
	<path fill="#000000" d="M797 -712C779 -674 752 -642 719 -615C685 -644 658 -676 637 -712ZM645 -378V-333H350V-378ZM761 -205V-150H533V-205ZM247 -150V-205H460V-150ZM938 -712V-765H657C668 -784 677 -802 684 -822L622 -836C598 -773 554 -715 502 -675L474 -683L462 -680H368L365 -682C409 -709 458 -745 494 -782L455 -812L442 -809H95V-761H390C367 -741 339 -721 314 -705C278 -721 237 -738 203 -749L167 -718C198 -708 232 -695 265 -680H57V-633H220C171 -587 101 -543 39 -521C52 -510 69 -490 78 -477C150 -508 232 -570 283 -631V-524C283 -515 281 -511 269 -511C259 -511 223 -510 180 -512C187 -498 196 -481 200 -467C232 -467 259 -467 279 -468V-428H67V-378H279V-284H460V-252H176V-103H460V-58H58V-4H460V76H533V-4H946V-58H533V-103H835V-252H533V-284H718V-378H931V-428H718V-471H645V-428H350V-471H305C310 -472 313 -473 316 -474C339 -483 346 -495 346 -524V-633H435C424 -606 410 -581 398 -562L453 -547C473 -577 495 -622 515 -662C527 -653 541 -642 549 -634C564 -647 580 -661 595 -678C616 -643 641 -610 671 -582C620 -551 561 -530 496 -513C510 -501 532 -477 540 -464C604 -484 665 -509 717 -542C775 -499 844 -468 923 -448C932 -465 949 -489 963 -502C889 -517 822 -543 767 -579C809 -615 843 -659 865 -712Z"/>
</svg>