<svg xmlns="http://www.w3.org/2000/svg" viewBox="0 -1000 1000 1000">
	<path fill="#000000" d="M759 -152C633 -56 359 13 108 22C120 38 131 61 136 78C387 62 664 -11 802 -117ZM638 -229C546 -158 346 -102 169 -92C181 -78 195 -55 201 -40C378 -57 579 -119 681 -197ZM534 -304C471 -251 331 -207 210 -196C223 -184 237 -162 243 -147C367 -166 507 -217 576 -276ZM562 -385C623 -405 693 -430 764 -454L760 -495C677 -473 599 -451 541 -438L552 -410L503 -433C487 -418 470 -403 450 -390C455 -398 457 -410 457 -427V-644H150V-708H856V-604H934V-770H555C543 -795 528 -823 515 -845L435 -830C445 -812 456 -791 465 -770H75V-604H131V-589H205L174 -557C213 -537 262 -508 288 -490L320 -529C295 -547 248 -571 211 -589H392V-428C392 -418 389 -415 378 -415C368 -415 333 -415 294 -416C301 -399 307 -382 308 -366C358 -366 394 -365 418 -371C321 -318 188 -282 49 -262C62 -247 77 -225 84 -207C243 -234 396 -282 498 -354C635 -266 783 -234 921 -211C929 -232 946 -256 960 -271C822 -289 673 -315 541 -390C546 -394 551 -398 555 -403ZM366 -504C276 -473 188 -441 126 -422L149 -370C217 -397 294 -431 373 -465ZM850 -644H525V-589H600L569 -557C608 -538 656 -509 680 -491L713 -529C689 -547 643 -571 606 -589H785V-421C785 -411 782 -408 771 -408C761 -407 724 -407 685 -409C693 -394 702 -375 706 -359C761 -359 798 -359 820 -368C844 -377 850 -391 850 -421Z"/>
</svg>