<svg xmlns="http://www.w3.org/2000/svg" viewBox="0 -1000 1000 1000">
	<path fill="#000000" d="M831 -478H578V-574H831ZM831 -326H578V-422H831ZM831 -173H578V-270H831ZM511 -632V-114H900V-632H714C725 -660 735 -693 746 -724H941V-789H480V-724H668C661 -695 653 -661 643 -632ZM248 -672C234 -711 200 -777 174 -827L112 -805C138 -753 169 -685 183 -644ZM226 -390V-569H323V-390ZM476 -322V-390H392V-569H468V-637H369C395 -687 422 -751 448 -805L375 -833C359 -775 328 -692 302 -637H68V-569H157V-390H45V-322H156C152 -212 132 -83 51 15C67 23 93 46 104 60C195 -48 220 -199 225 -322H323V64H392V-322ZM612 -105C576 -61 501 -10 434 19C449 32 470 53 481 68C549 38 627 -16 674 -68ZM735 -59C790 -21 857 36 890 73L946 33C911 -5 842 -59 788 -96Z"/>
</svg>