<svg xmlns="http://www.w3.org/2000/svg" viewBox="0 -1000 1000 1000">
	<path fill="#000000" d="M856 -475H624V-572H856ZM856 -322H624V-420H856ZM856 -168H624V-267H856ZM559 -630V-111H923V-630H751C759 -659 767 -693 775 -725H953V-789H527V-725H701C697 -695 692 -660 686 -630ZM152 -487V-581H256V-487ZM152 -730H256V-638H152ZM423 -638H318V-730H423ZM423 -487H318V-581H423ZM502 -350H318V-427H484V-790H93V-427H256V-350H140V-390H76V-350H48V-284H76V77H140V-284H257V-152C220 -148 185 -145 156 -143L165 -84C230 -91 306 -100 385 -110C389 -92 392 -77 394 -63L431 -73C425 -118 405 -185 380 -237L345 -227C354 -208 362 -185 370 -163L317 -158V-284H440V-2C440 9 437 12 425 12C414 13 378 13 335 12C344 29 354 55 356 73C413 73 449 73 472 61C485 55 493 47 497 36C511 48 529 66 539 78C595 47 663 -5 706 -55L643 -89C613 -50 554 -3 500 27C501 19 502 10 502 -1ZM774 -54C824 -14 886 43 916 79L972 40C942 3 877 -51 828 -89Z"/>
</svg>