<svg xmlns="http://www.w3.org/2000/svg" viewBox="0 -1000 1000 1000">
	<path fill="#000000" d="M666 -277H863V-183H666ZM666 -426H863V-333H666ZM666 -573H863V-482H666ZM928 -125V-633H777C784 -661 792 -694 800 -726H954V-789H577V-726H727C724 -696 718 -662 712 -633H602V-132C588 -138 571 -150 559 -163C556 -83 548 -53 533 -53C512 -53 492 -91 475 -159C522 -274 550 -412 567 -570L510 -575C499 -462 481 -359 455 -268C440 -368 429 -499 425 -649H567V-710H523L551 -725C537 -752 508 -791 481 -819L433 -797C457 -771 481 -736 496 -710H424C423 -751 423 -793 423 -836H363C364 -793 364 -751 366 -710H88V-454C88 -323 83 -137 25 -3C37 4 64 23 74 35C123 -75 140 -223 146 -350H235V-27C235 -18 232 -16 225 -16C217 -15 192 -15 163 -16C171 0 177 21 178 36C219 36 246 36 265 26C282 16 286 1 286 -26V-350H377V-404H279V-495H357V-545H279V-632H228V-404H148C148 -421 148 -438 148 -454V-649H367C375 -454 390 -283 417 -165C389 -102 354 -47 310 -2C323 8 346 27 355 38C388 2 416 -40 441 -85C463 -27 491 6 526 6C575 6 594 -30 604 -125ZM386 -142C381 -179 364 -242 343 -289L304 -278C324 -230 341 -167 346 -128ZM176 -286C167 -221 153 -153 127 -105C138 -99 158 -88 166 -82C192 -131 210 -207 221 -277ZM682 -104C654 -58 597 -1 544 33C559 44 580 65 592 77C644 42 706 -18 744 -71ZM791 -73C837 -28 891 35 916 76L972 39C947 0 891 -62 845 -105Z"/>
</svg>