<svg xmlns="http://www.w3.org/2000/svg" viewBox="0 -1000 1000 1000">
	<path fill="#000000" d="M863 -482H666V-573H863ZM863 -333H666V-426H863ZM863 -183H666V-277H863ZM602 -633V-125H928V-633H777C784 -661 792 -694 800 -726H948V-789H577V-726H727C724 -696 718 -662 712 -633ZM555 -714C541 -742 509 -785 481 -816L433 -794C461 -762 491 -716 506 -687ZM304 -361V-175H229V-361ZM348 -123V-413H184V-66H229V-123ZM350 -543H180V-490H350ZM510 -531C496 -444 478 -361 453 -286C441 -376 433 -489 429 -618H567V-678H427C426 -729 426 -781 426 -836H366C367 -782 368 -729 369 -678H92V-426C92 -296 86 -113 28 19C40 26 66 46 76 57C139 -83 150 -288 150 -426V-618H371C378 -445 391 -293 413 -183C380 -110 338 -46 287 5C301 15 326 34 334 45C373 3 406 -45 435 -99C457 -33 486 5 524 5C573 5 590 -31 600 -123C586 -129 568 -140 556 -155C552 -81 544 -54 530 -54C508 -54 488 -98 471 -175C514 -276 545 -394 568 -523ZM682 -105C655 -59 600 0 549 34C564 46 584 65 596 78C646 41 706 -19 743 -74ZM791 -73C837 -28 891 35 916 76L972 39C947 0 891 -62 845 -105Z"/>
</svg>