<svg xmlns="http://www.w3.org/2000/svg" viewBox="0 -1000 1000 1000">
	<path fill="#000000" d="M850 -483H637V-578H850ZM850 -332H637V-428H850ZM850 -180H637V-277H850ZM573 -636V-123H917V-636H745C753 -663 762 -694 770 -724H947V-788H549V-724H699C694 -696 687 -663 680 -636ZM139 -167C119 -105 88 -44 50 0C64 7 90 23 102 33C138 -13 175 -85 198 -152ZM369 -148C400 -96 431 -25 445 20L497 -5C483 -50 451 -118 419 -170ZM61 -198H258V70H320V-198H514V-259H61ZM109 -382V-323H479V-382ZM323 -662H245V-731H323ZM443 -609V-484H374V-609ZM245 -609H323V-484H245ZM121 -609H194V-484H121ZM54 -731H194V-662H71V-432H496V-662H374V-731H518V-790H54ZM659 -109C623 -66 562 -10 519 30C531 44 550 65 560 80C605 37 668 -19 717 -66ZM769 -70C816 -23 877 39 908 77L958 34C927 -2 865 -63 818 -107Z"/>
</svg>