<svg xmlns="http://www.w3.org/2000/svg" viewBox="0 -1000 1000 1000">
	<path fill="#000000" d="M856 -472H600V-568H856ZM856 -321H600V-417H856ZM856 -168H600V-265H856ZM535 -626V-109H923V-626H736C745 -656 754 -691 764 -725H950V-789H508V-725H693C688 -693 681 -656 674 -626ZM267 -364V-309H487V-364H397V-444H475V-497H397V-561H342V-497H280V-444H342V-364ZM481 -631H304V-702H448V-758H304V-836H239V-758H90V-702H239V-631H56V-574H481ZM52 -285C112 -296 181 -309 252 -323L249 -375L185 -364V-445H250V-498H185V-561H130V-498H56V-445H130V-355C99 -349 69 -345 44 -341ZM371 -54V-203H487V-261H52V-203H155C144 -105 115 -21 32 26C46 37 66 61 74 76C171 17 205 -82 218 -203H309V-74C309 -32 286 -8 272 1C283 15 298 45 305 61L311 54C328 40 361 20 487 -49C483 -63 480 -89 478 -107ZM636 -94C591 -53 509 -3 446 26C457 41 473 66 481 81C545 50 628 -1 687 -48ZM763 -49C821 -14 894 43 931 79L972 26C934 -11 859 -63 802 -96Z"/>
</svg>