<svg xmlns="http://www.w3.org/2000/svg" viewBox="0 -1000 1000 1000">
	<path fill="#000000" d="M79 12C104 -45 117 -141 123 -212L81 -226C74 -155 59 -62 36 -7ZM143 -208C153 -149 157 -75 155 -26L195 -31C196 -80 191 -155 181 -212ZM148 -431H238V-335H148ZM238 -728V-637H148V-728ZM238 -490H148V-578H238ZM297 -335V-431H398V-490H297V-578H396V-637H297V-728H408V-792H89V-276H355C353 -211 351 -160 349 -120C338 -155 315 -206 291 -246L259 -234C281 -192 305 -138 315 -102L348 -114C343 -37 338 -3 329 9C324 18 317 20 305 20C293 20 267 20 237 16C246 32 252 57 253 75C283 76 314 76 331 74C354 72 368 65 381 48C401 21 408 -62 416 -306C417 -315 417 -335 417 -335ZM278 -63C273 -107 257 -175 237 -226L201 -218C220 -166 236 -98 240 -54ZM583 -452H643V-276H583ZM743 -276H684V-452H743ZM719 -169C729 -143 740 -112 749 -82L686 -73V-219H784V-510H689V-605H789V-664H540V-605H637V-510H543V-219H634V-66C579 -59 530 -52 490 -48L505 18C578 6 672 -9 765 -24C772 3 778 28 781 49L824 32C814 -28 787 -117 759 -186ZM451 -798V-427C451 -286 448 -93 400 43C415 49 440 66 452 77C502 -65 509 -278 509 -427V-733H816C815 -313 810 40 887 72C925 91 954 62 964 -82C954 -92 938 -114 928 -130C925 -58 918 6 913 4C871 -11 874 -375 878 -798Z"/>
</svg>