<svg xmlns="http://www.w3.org/2000/svg" viewBox="0 -1000 1000 1000">
	<path fill="#000000" d="M844 -531C914 -531 935 -553 943 -629C923 -633 895 -643 879 -653C875 -600 869 -590 836 -590H672C625 -590 618 -596 618 -620V-688H895V-747H618V-836H545V-620C545 -550 569 -531 665 -531ZM832 -152C800 -124 748 -86 702 -57C639 -78 573 -95 515 -109L484 -66C618 -33 789 27 876 72L909 22C870 4 820 -17 763 -37C804 -61 849 -89 886 -119ZM417 -425C449 -443 479 -460 505 -480C533 -461 565 -443 600 -425ZM699 -305V-254H296V-305ZM296 -159V-211H699V-159ZM517 -573L508 -564L506 -620L344 -599V-688H503V-747H344V-836H274V-590L179 -577V-766H113V-569L46 -561L53 -497C171 -513 342 -538 506 -562C409 -470 221 -393 44 -367C57 -349 70 -321 75 -303C125 -313 176 -327 225 -343V-57C225 -16 198 3 181 11C191 27 204 60 208 79C226 67 257 61 517 8C517 -6 519 -32 522 -48L296 -7V-111H770V-353H254C306 -371 356 -393 402 -417V-384H604V-423C698 -377 810 -336 907 -315C919 -332 942 -359 960 -372C819 -399 649 -458 555 -519C562 -526 569 -532 575 -538Z"/>
</svg>