<svg xmlns="http://www.w3.org/2000/svg" viewBox="0 -1000 1000 1000">
	<path fill="#000000" d="M919 -623C880 -650 827 -678 768 -707C819 -735 865 -767 902 -802L845 -827C808 -793 760 -763 705 -736C629 -770 547 -801 474 -823L437 -779C499 -759 568 -732 634 -704C563 -675 487 -653 414 -636C426 -623 446 -596 454 -583C535 -606 621 -635 702 -673C772 -639 835 -604 878 -572ZM171 -596H340V-650H173C199 -676 226 -706 249 -736C301 -701 361 -656 392 -626L432 -681C398 -710 337 -753 284 -787C292 -799 299 -811 305 -822L242 -844C197 -760 114 -681 35 -631C47 -616 64 -578 70 -564C104 -587 139 -616 171 -648ZM308 -479V-400H172V-479ZM172 -258V-344H308V-258ZM259 -158C272 -134 285 -109 298 -82L172 -34V-201H369V-536H102V-48C102 -12 77 2 60 8C71 24 82 57 86 75C104 61 132 47 323 -30C337 -1 349 26 357 48L413 19C393 -30 347 -116 311 -180ZM954 -469V-533H670C680 -558 689 -582 697 -607L635 -623C626 -592 615 -561 603 -533H415V-469H570C523 -388 461 -320 390 -273C400 -258 416 -222 421 -207C455 -231 489 -260 518 -291V-212C518 -136 511 -38 459 36C475 44 503 66 514 78C574 -4 584 -122 584 -211V-337H820V-170C730 -149 643 -127 580 -114L598 -56C663 -75 742 -99 820 -123V2C820 12 816 16 803 16C792 17 749 17 704 16C713 34 720 58 722 75C787 75 829 76 855 65C881 55 889 39 889 2V-390H596C612 -415 628 -442 642 -469ZM593 -247C655 -231 732 -202 773 -179L797 -224C756 -247 679 -273 617 -287Z"/>
</svg>