<svg xmlns="http://www.w3.org/2000/svg" viewBox="0 -1000 1000 1000">
	<path fill="#000000" d="M945 -752C920 -779 867 -817 825 -840L779 -804C823 -778 874 -739 897 -711ZM342 -478V-402H172V-478ZM172 -257V-347H342V-257ZM293 -157C303 -135 312 -112 321 -88L172 -32V-200H404V-535H106V-47C106 -10 81 6 63 13C74 29 85 58 90 76C108 61 138 47 341 -35C354 0 365 33 372 57L430 34C415 -18 378 -108 348 -175ZM256 -842C208 -755 124 -673 41 -622C52 -606 70 -570 75 -554C111 -578 148 -609 182 -642V-594H352V-645H185C212 -672 239 -703 263 -734C314 -700 373 -656 404 -627L441 -681C409 -709 349 -751 297 -783C305 -796 312 -808 319 -820ZM858 -484V-379H731V-484ZM731 -207V-316H858V-207ZM546 -207V-316H667V-207ZM546 -484H667V-379H546ZM953 -637V-701H735V-836H663V-701H446V-637H663V-549H479V74H546V-143H667V69H731V-143H858V-6C858 5 855 8 846 8C836 8 808 9 774 7C784 26 794 54 795 73C843 73 877 71 898 60C921 48 926 29 926 -5V-549H735V-637Z"/>
</svg>