<svg xmlns="http://www.w3.org/2000/svg" viewBox="0 -1000 1000 1000">
	<path fill="#000000" d="M941 -785H473V-719H941ZM839 -378H569V-550H839ZM910 -613H502V-315H910ZM658 -61C650 -121 626 -212 600 -280L539 -266C564 -195 587 -104 594 -44ZM460 -672C423 -702 354 -749 296 -786C303 -797 310 -809 316 -819L254 -842C207 -756 125 -678 43 -627C54 -611 73 -574 78 -558C144 -603 209 -665 261 -735C319 -695 386 -647 422 -615ZM186 -595H355V-646H186ZM352 -478V-403H181V-478ZM181 -258V-348H352V-258ZM796 -21C825 -90 856 -186 881 -266L809 -282C791 -204 758 -93 729 -21H443V-20C425 -64 394 -127 369 -176L313 -153C322 -134 331 -113 341 -92L181 -33V-201H420V-536H111V-51C111 -14 89 1 73 8C85 25 97 57 101 75C120 60 149 46 363 -41C374 -15 384 9 389 27L443 2V46H957V-21Z"/>
</svg>