<svg xmlns="http://www.w3.org/2000/svg" viewBox="0 -1000 1000 1000">
	<path fill="#000000" d="M857 -794C838 -749 801 -683 773 -643L823 -614C853 -651 888 -710 919 -761ZM597 -645C578 -680 538 -740 506 -784L455 -755C486 -710 524 -647 543 -610ZM950 -466C897 -513 795 -579 706 -625C722 -684 728 -754 731 -836H660C653 -621 630 -508 439 -451C453 -438 471 -414 478 -397C589 -433 650 -486 686 -564C769 -516 861 -454 908 -408ZM825 -170C858 -209 902 -272 937 -324L877 -361C854 -313 810 -243 777 -202ZM594 -216C575 -251 535 -311 502 -355L451 -325C482 -279 521 -218 539 -180ZM170 -589H342V-643H180C206 -671 232 -702 254 -733C306 -693 363 -644 395 -613L434 -664C401 -695 338 -744 286 -783C294 -796 301 -809 308 -822L245 -844C199 -754 117 -669 36 -616C47 -600 65 -563 70 -548C104 -571 138 -601 170 -633ZM326 -479V-400H168V-479ZM168 -258V-344H326V-258ZM418 12C402 -36 364 -121 333 -184L279 -167C291 -143 303 -117 313 -90L168 -34V-201H389V-536H103V-46C103 -9 77 8 59 15C71 30 82 59 86 75C104 60 134 46 336 -36C347 -9 356 16 361 35ZM659 -426C650 -194 627 -60 418 14C434 27 455 55 463 73C588 25 653 -44 689 -141C733 -40 805 35 911 70C921 52 942 23 956 10C827 -25 751 -127 716 -253C724 -305 728 -363 730 -426Z"/>
</svg>