<svg xmlns="http://www.w3.org/2000/svg" viewBox="0 -1000 1000 1000">
	<path fill="#000000" d="M659 -632H722V-704H928V-760H722V-835H659V-760H457V-704H659ZM425 -694C392 -719 332 -758 282 -788C289 -800 296 -811 302 -823L242 -843C196 -759 114 -681 35 -631C46 -617 63 -581 68 -567C132 -610 197 -671 248 -738C299 -705 359 -664 391 -638ZM170 -596H340V-650H170ZM320 -479V-400H166V-479ZM166 -258V-344H320V-258ZM422 18C401 -31 355 -118 318 -181L266 -160C279 -136 293 -110 306 -83L166 -30V-201H386V-536H101V-44C101 -8 79 6 65 12C76 27 86 59 90 75C108 62 136 47 331 -33C346 -3 358 24 367 46ZM593 -84C547 -37 471 8 403 38C417 50 443 77 453 90C522 54 606 -5 657 -62ZM545 -205H834V-138H545ZM593 -550H786V-485H593ZM834 -368H545V-433H834ZM834 -254H545V-319H834ZM907 -86V-485H851V-550H955V-606H851V-680H786V-606H593V-680H531V-606H432V-550H531V-485H475V-86H779L738 -51C800 -8 869 48 910 87L961 45C918 7 850 -45 787 -86Z"/>
</svg>