<svg xmlns="http://www.w3.org/2000/svg" viewBox="0 -1000 1000 1000">
	<path fill="#000000" d="M873 -753V-669H756V-753ZM891 -472C914 -472 938 -473 950 -477C948 -491 946 -517 944 -532C930 -529 905 -528 891 -528H779C761 -528 756 -536 756 -564V-618H930V-804H699V-566C699 -496 716 -472 781 -472ZM605 -754V-670H486V-754ZM486 -535V-618H662V-805H428V-574C428 -537 419 -524 408 -518C417 -505 430 -477 434 -461C450 -469 475 -476 648 -507C650 -520 656 -545 661 -560ZM168 -593H341V-646H178C202 -673 225 -702 246 -733C297 -696 355 -650 386 -620L423 -671C391 -702 330 -746 277 -782C285 -796 292 -809 298 -822L235 -844C193 -756 116 -673 41 -620C51 -604 70 -566 76 -552C107 -575 139 -604 168 -636ZM316 -479V-400H168V-479ZM168 -258V-344H316V-258ZM407 5C394 -42 361 -123 335 -184L280 -167C290 -142 300 -116 311 -88L168 -34V-201H378V-536H103V-46C103 -9 77 8 59 15C71 30 82 59 86 75C104 61 133 47 330 -33C339 -10 345 12 349 29ZM575 -108C537 -61 456 -4 387 28C402 41 424 62 435 75C502 40 585 -18 637 -72ZM729 -66C791 -25 868 36 905 75L955 30C915 -9 837 -67 775 -106ZM606 -304H753V-191H606ZM819 -191V-304H937V-366H819V-449H753V-366H606V-449H540V-366H428V-304H540V-191H408V-129H958V-191Z"/>
</svg>