<svg xmlns="http://www.w3.org/2000/svg" viewBox="0 -1000 1000 1000">
	<path fill="#000000" d="M951 -677V-737H568C580 -764 592 -793 601 -822L536 -837C506 -736 452 -641 387 -578C402 -569 430 -549 441 -538C477 -575 510 -623 539 -677ZM889 -554V-612H523V-554ZM172 -596H341V-650H179C204 -676 229 -706 251 -736C300 -704 355 -663 387 -636L422 -694C391 -720 335 -757 286 -787C293 -799 299 -811 305 -822L243 -844C198 -757 115 -676 35 -623C47 -608 64 -570 70 -556C104 -580 140 -610 172 -643ZM317 -478V-400H168V-478ZM168 -257V-344H317V-257ZM266 -164C276 -139 287 -111 296 -83L168 -33V-200H380V-535H103V-45C103 -9 78 6 60 12C71 28 82 58 86 75C103 61 131 48 315 -29C324 0 333 25 338 46L395 21C381 -29 348 -117 320 -183ZM516 -158C493 -100 446 -35 404 -4C416 6 435 25 445 39C489 0 536 -75 561 -140ZM786 -169V-225H635V-400H575V-225H417V-169H575V74H635V-169ZM447 -363C469 -322 492 -265 501 -230L550 -250C541 -284 517 -339 493 -380ZM723 -386C709 -348 682 -290 661 -255L703 -237C725 -270 752 -320 775 -365ZM650 -134C684 -82 723 -11 742 33L789 9C772 -32 730 -102 695 -152ZM422 -487V-427H807C807 -173 810 49 898 73C943 88 970 52 977 -70C964 -79 947 -98 934 -112C932 -44 925 8 919 6C873 -5 872 -236 875 -487Z"/>
</svg>