<svg xmlns="http://www.w3.org/2000/svg" viewBox="0 -1000 1000 1000">
	<path fill="#000000" d="M942 -712C925 -748 883 -795 843 -828L791 -801C830 -767 871 -717 888 -682ZM216 -688C204 -726 173 -783 141 -826L86 -805C116 -761 146 -701 157 -661ZM316 -364H148V-448H316ZM148 -70V-163H316V-70ZM148 -308H316V-219H148ZM328 -828C310 -778 279 -707 252 -658H47V-594H197C189 -566 178 -535 169 -508H85V52H148V-11H316V38H381V-508H232C242 -534 254 -565 265 -594H414V-658H321C346 -702 372 -759 397 -810ZM692 -197C587 -176 485 -155 415 -143L429 -74C505 -92 602 -112 698 -135ZM608 -306H507V-447H608ZM452 -507V-246H665V-507ZM871 -487C852 -411 826 -341 794 -277C784 -369 778 -481 774 -606H956V-673H773C772 -725 772 -779 772 -835H704C705 -779 705 -725 707 -673H441V-606H708C713 -440 722 -297 739 -185C679 -96 605 -26 524 25C540 36 561 55 572 67C638 25 701 -31 755 -98C782 11 820 73 880 75C913 76 946 38 966 -100C953 -107 926 -126 913 -140C908 -60 897 -11 881 -12C849 -14 825 -72 808 -170C862 -253 906 -349 937 -459Z"/>
</svg>