<svg xmlns="http://www.w3.org/2000/svg" viewBox="0 -1000 1000 1000">
	<path fill="#000000" d="M802 -425H551V-506H802ZM802 -293H551V-373H802ZM802 -158H551V-240H802ZM483 -562V-102H872V-562H675C683 -588 692 -618 702 -646H947V-708H786C811 -741 837 -783 861 -823L791 -837C774 -799 741 -746 714 -708H558L613 -729C602 -760 576 -806 551 -840L487 -820C511 -785 535 -740 546 -708H410V-646H627C623 -620 616 -588 609 -562ZM494 -14C408 -14 392 -27 392 -81V-631H234V-834H166V-631H44V-561H166V-475C166 -313 152 -106 34 36C51 45 76 67 89 80C217 -71 234 -291 234 -476V-561H320V-82C320 26 360 52 495 52H807C925 52 951 14 965 -114C944 -118 915 -129 897 -140C889 -36 876 -14 803 -14Z"/>
</svg>