<svg xmlns="http://www.w3.org/2000/svg" viewBox="0 -1000 1000 1000">
	<path fill="#000000" d="M761 -724C748 -756 721 -805 697 -841L635 -817C657 -779 683 -728 695 -696ZM950 -695H473V-626H950ZM771 -567C819 -501 881 -409 909 -357L968 -395C937 -447 874 -534 826 -600ZM591 -601C560 -528 511 -448 463 -394C481 -384 509 -362 522 -351C568 -408 623 -500 661 -579ZM88 18C106 -43 121 -141 128 -207L84 -222C77 -156 60 -58 42 -1ZM155 -208C165 -149 171 -74 169 -24L210 -30C211 -79 205 -154 194 -212ZM154 -430H258V-336H154ZM258 -734V-644H154V-734ZM258 -489H154V-584H258ZM320 -336V-430H422V-489H320V-584H422V-644H320V-734H448V-795H92V-275H387C384 -213 381 -163 377 -124C367 -158 344 -208 321 -245L287 -233C309 -192 334 -138 342 -102L376 -116C370 -43 361 -9 351 3C343 13 336 15 322 15C308 15 274 15 237 11C247 28 253 53 255 71C292 73 329 73 348 71C373 70 389 63 404 44C429 16 441 -68 453 -305C454 -315 455 -336 455 -336ZM300 -65C296 -108 280 -173 260 -224L222 -216C240 -165 257 -99 260 -56ZM788 -419C770 -347 744 -280 708 -221C671 -280 642 -346 621 -414L558 -398C584 -311 620 -231 666 -161C606 -86 529 -24 435 23C450 35 472 61 481 76C571 29 646 -30 707 -103C764 -28 833 33 913 72C924 53 945 27 961 13C879 -23 808 -84 749 -160C797 -230 832 -311 856 -403Z"/>
</svg>