<svg xmlns="http://www.w3.org/2000/svg" viewBox="0 -1000 1000 1000">
	<path fill="#000000" d="M945 -703H722L770 -731C757 -764 728 -809 695 -841L643 -811C671 -779 698 -735 710 -703H481V-634H945ZM88 18C106 -43 121 -141 128 -207L84 -222C77 -156 60 -58 42 0ZM156 -207C167 -148 172 -74 171 -24L212 -30C213 -79 206 -153 195 -212ZM257 -733V-644H154V-733ZM257 -489H154V-584H257ZM257 -337H154V-430H257ZM319 -337V-430H430V-489H319V-584H430V-644H319V-733H451V-796H91V-277H126V-276H393C390 -216 387 -167 384 -129C373 -163 350 -209 329 -245L294 -233C317 -192 341 -138 350 -102L383 -115C375 -41 367 -8 356 5C348 15 341 16 328 16C314 16 280 16 243 13C253 29 259 54 261 73C297 75 335 75 354 73C380 71 395 64 410 46C435 17 447 -68 459 -306C460 -316 461 -337 461 -337ZM304 -65C300 -107 284 -173 264 -224L227 -216C245 -165 261 -98 265 -55ZM960 -364V-433H804C836 -483 873 -549 903 -607L830 -626C808 -568 767 -487 732 -433H613L671 -458C656 -505 621 -573 583 -624L525 -601C560 -550 595 -480 607 -433H454V-364H676V-237H485V-169H676V76H749V-169H944V-237H749V-364Z"/>
</svg>