<svg xmlns="http://www.w3.org/2000/svg" viewBox="0 -1000 1000 1000">
	<path fill="#000000" d="M86 18C104 -43 117 -141 124 -207L83 -222C76 -156 60 -58 43 -1ZM150 -208C160 -149 165 -74 163 -24L203 -30C204 -79 198 -154 187 -212ZM148 -430H245V-336H148ZM245 -734V-644H148V-734ZM245 -489H148V-584H245ZM305 -336V-430H407V-489H305V-584H407V-644H305V-734H429V-795H89V-275H375C372 -213 369 -164 365 -126C356 -160 335 -208 314 -245L280 -233C303 -192 324 -138 333 -102L365 -115C357 -43 350 -9 340 3C333 13 325 15 313 15C300 15 268 15 233 11C242 28 249 53 250 71C284 73 319 73 338 71C361 70 377 63 391 44C414 16 425 -68 437 -305C438 -315 438 -336 438 -336ZM291 -65C286 -107 271 -173 252 -224L217 -216C234 -165 250 -99 253 -55ZM966 -345C945 -379 901 -435 864 -478C874 -509 883 -541 890 -573L832 -585C817 -506 788 -430 745 -377L743 -382V-632H941V-696H743V-836H677V-696H489V-632H677V-374V-373C659 -402 625 -445 596 -477C605 -509 612 -541 618 -574L560 -585C543 -482 510 -386 458 -323C471 -315 496 -298 506 -288C533 -323 556 -368 576 -418C599 -390 621 -360 633 -338L674 -368C621 -249 526 -124 435 -61C451 -49 473 -23 485 -6C553 -61 623 -152 677 -250V77H743V-264C796 -168 864 -71 918 -12C931 -31 955 -55 971 -68C902 -133 811 -251 755 -359C768 -351 782 -341 789 -335C808 -360 825 -388 840 -421C871 -381 903 -337 920 -307Z"/>
</svg>