<svg xmlns="http://www.w3.org/2000/svg" viewBox="0 -1000 1000 1000">
	<path fill="#000000" d="M87 18C105 -43 119 -141 126 -207L83 -222C76 -156 60 -58 42 0ZM146 -207C156 -148 162 -74 159 -24L200 -30C201 -79 196 -153 184 -212ZM152 -430H248V-336H152ZM248 -736V-644H152V-736ZM248 -489H152V-584H248ZM309 -336V-430H405V-489H309V-584H405V-644H309V-736H423V-796H90V-276H364C360 -216 357 -168 354 -130C343 -164 323 -209 302 -245L268 -233C289 -193 312 -139 320 -103L352 -116C345 -39 336 -4 326 9C318 18 311 20 297 20C283 20 251 19 215 16C224 32 230 55 231 73C267 75 302 75 322 73C346 72 362 65 377 47C401 18 413 -67 425 -307C426 -316 426 -336 426 -336ZM285 -66C280 -108 265 -174 245 -224L209 -216C226 -166 242 -99 246 -56ZM550 -567H668V-463H550ZM550 -729H668V-626H550ZM847 -626H729V-729H847ZM847 -463H729V-567H847ZM950 -249V-315H734V-401H914V-790H486V-401H664V-315H459V-249H625C576 -162 497 -78 418 -34C434 -22 457 5 468 22C541 -26 613 -108 664 -198V78H734V-200C784 -113 853 -27 918 22C930 4 952 -21 969 -33C897 -78 819 -164 769 -249Z"/>
</svg>