<svg xmlns="http://www.w3.org/2000/svg" viewBox="0 -1000 1000 1000">
	<path fill="#000000" d="M927 -797H709V-734H864V-549H708V-486H927ZM71 24C109 -31 117 -125 122 -214L78 -221C74 -138 64 -50 31 0ZM141 -211C151 -153 155 -79 153 -30L194 -35C195 -83 190 -158 179 -216ZM144 -437H225V-344H144ZM225 -738V-644H144V-738ZM225 -495H144V-586H225ZM284 -344V-437H386V-495H284V-586H386V-644H284V-738H404V-797H85V-285H349C347 -233 344 -190 342 -154C330 -184 312 -220 295 -249L261 -237C285 -196 308 -142 318 -106L339 -114C333 -37 325 -2 315 10C308 20 300 22 289 22C275 22 247 22 214 18C223 34 228 58 230 75C262 77 296 77 314 75C336 73 352 67 366 49C388 20 398 -66 409 -315C410 -324 410 -344 410 -344ZM279 -69C274 -112 258 -178 238 -229L202 -221C220 -170 236 -104 241 -60ZM618 -734V-561H506V-734ZM670 -131V-194H506V-321H663V-385H506V-497H679V-798H444V74H506V-131ZM902 -405L891 -402H685V-339H869C855 -273 834 -217 806 -167C780 -218 759 -275 744 -335L691 -322C709 -245 736 -172 770 -110C725 -49 670 -4 608 24C622 36 639 61 646 77C706 47 760 6 805 -50C840 2 883 45 931 76C941 59 960 35 976 24C925 -5 880 -49 843 -104C891 -179 925 -275 943 -394Z"/>
</svg>