<svg xmlns="http://www.w3.org/2000/svg" viewBox="0 -1000 1000 1000">
	<path fill="#000000" d="M856 -696V-619H775V-696ZM856 -484H775V-562H856ZM716 -619H575V-562H716V-484H599V-427H716V-354H597V-293H716V-215H574V-154H716V-34H775V-154H950V-215H775V-293H927V-354H775V-427H911V-562H958V-619H911V-753H775V-836H716V-753H599V-696H716ZM79 10C99 -48 114 -146 121 -212L81 -227C73 -161 56 -65 36 -7ZM135 -208C142 -150 148 -77 147 -28L187 -31C186 -81 180 -155 172 -212ZM146 -431H233V-337H146ZM233 -729V-637H146V-729ZM233 -490H146V-578H233ZM291 -337V-431H370V-490H291V-578H370V-637H291V-729H392V-792H87V-274H334C331 -214 328 -166 324 -128C312 -161 290 -208 270 -246L238 -234C260 -192 283 -137 294 -102L323 -114C315 -40 307 -6 296 7C289 17 282 18 270 18C259 18 232 18 202 15C211 31 217 55 218 73C248 75 278 75 295 73C317 71 332 64 347 47C370 19 382 -67 395 -307C396 -317 396 -337 396 -337ZM262 -64C255 -107 238 -174 222 -225L187 -218C202 -166 218 -98 225 -54ZM552 -475L541 -473H480C514 -559 555 -673 587 -764H409L408 -699H503C470 -600 427 -489 395 -414H527C520 -330 508 -256 492 -195C476 -230 461 -271 451 -320L400 -300C418 -226 441 -167 468 -120C442 -55 408 -6 366 28C379 39 395 62 402 77C445 41 479 -4 506 -64C589 39 699 63 823 63H944C947 45 956 16 965 0C935 1 850 1 827 1C713 1 608 -22 531 -126C560 -215 578 -327 586 -470Z"/>
</svg>