<svg xmlns="http://www.w3.org/2000/svg" viewBox="0 -1000 1000 1000">
	<path fill="#000000" d="M838 -623C813 -646 775 -674 735 -703C765 -736 790 -772 810 -811L757 -832C740 -799 717 -765 690 -734C655 -758 620 -780 588 -800L550 -764C583 -744 618 -720 652 -696C618 -664 580 -637 539 -615C550 -604 568 -588 576 -576C619 -600 660 -630 696 -663C737 -633 773 -604 798 -581ZM90 19C107 -41 119 -140 127 -206L79 -222C73 -156 57 -59 40 -1ZM144 -208C153 -149 158 -75 157 -25L199 -31C199 -80 193 -154 184 -212ZM144 -430H244V-336H144ZM244 -732V-644H144V-732ZM244 -489H144V-584H244ZM304 -336V-430H398V-489H304V-584H399V-644H304V-732H413V-795H84V-273H360C358 -216 356 -169 354 -132C342 -165 322 -209 302 -246L267 -233C287 -193 311 -138 321 -103L353 -116C348 -42 342 -9 333 2C327 10 319 12 304 12C289 12 251 12 209 8C219 24 225 48 226 66C267 69 308 69 331 67C356 65 372 58 387 40C408 13 415 -70 422 -307C423 -316 424 -336 424 -336ZM285 -66C279 -108 263 -173 246 -224L208 -217C223 -166 239 -99 245 -56ZM725 -499V-444C725 -382 739 -359 802 -359H899C921 -359 944 -360 956 -364C953 -379 951 -402 950 -419C937 -416 912 -414 898 -414H808C791 -414 789 -421 789 -443V-499H922V-811H858V-561H525V-811H463V-499H577C564 -432 527 -397 424 -377C435 -366 452 -342 459 -328C581 -357 624 -407 639 -499ZM802 -245C776 -190 740 -145 696 -108C655 -140 620 -179 592 -223C598 -230 604 -238 610 -245ZM847 -306L834 -303H651C667 -329 681 -354 693 -381L629 -390C615 -354 592 -317 562 -279C557 -291 552 -303 547 -315L491 -299C499 -276 508 -254 519 -233C495 -211 468 -189 437 -170C451 -160 472 -141 481 -126C506 -143 529 -162 549 -180C577 -138 608 -102 644 -70C581 -29 506 -2 428 15C440 29 455 54 462 71C548 49 628 18 697 -29C761 14 838 45 927 66C936 48 952 24 967 10C884 -6 811 -33 750 -70C812 -125 860 -196 890 -288Z"/>
</svg>