<svg xmlns="http://www.w3.org/2000/svg" viewBox="0 -1000 1000 1000">
	<path fill="#000000" d="M953 -612C933 -626 902 -644 871 -660C893 -681 919 -708 941 -734L893 -767C878 -743 850 -707 826 -680L815 -685C812 -718 810 -755 809 -790H441V-722H759C771 -562 795 -421 888 -404C924 -394 945 -421 955 -497C943 -506 930 -522 920 -538C916 -493 909 -467 901 -468C859 -474 836 -536 823 -621C862 -601 901 -578 924 -560ZM85 18C102 -42 115 -141 122 -208L81 -222C75 -156 59 -58 42 -1ZM149 -208C158 -149 163 -74 161 -24L200 -30C202 -79 196 -155 185 -213ZM243 -734V-644H146V-734ZM243 -489H146V-584H243ZM243 -337H146V-430H243ZM300 -337V-430H400V-489H300V-584H400V-644H300V-734H421V-796H87V-277H120V-276H369C366 -216 363 -168 359 -130C349 -163 330 -210 309 -245L276 -233C297 -192 320 -138 328 -102L358 -115C351 -41 343 -8 334 5C327 15 320 16 307 16C294 16 263 16 229 13C238 29 244 54 245 73C278 75 313 75 332 74C355 71 370 64 384 46C407 17 418 -68 429 -306C430 -316 431 -337 431 -337ZM287 -65C282 -107 268 -174 249 -224L214 -216C231 -165 245 -98 249 -55ZM562 -416V-582C589 -597 616 -613 638 -631V-416ZM956 -180C935 -197 902 -217 868 -234C892 -256 919 -283 944 -310L895 -343C877 -319 848 -282 823 -256L811 -261C808 -309 806 -362 806 -416H694V-681H638V-644L598 -690C558 -648 487 -606 422 -578C429 -563 439 -541 442 -526C463 -534 484 -544 506 -553V-416H428V-348H505C501 -225 483 -91 404 19C418 30 439 53 449 68C536 -57 557 -208 561 -348H638V72H694V-348H753C759 -129 780 54 897 73C937 83 957 51 967 -45C954 -54 941 -72 930 -87C925 -28 919 7 909 6C853 -1 827 -82 816 -199C859 -177 901 -151 926 -130Z"/>
</svg>