<svg xmlns="http://www.w3.org/2000/svg" viewBox="0 -1000 1000 1000">
	<path fill="#000000" d="M746 -574H159V-520H819V-634H893V-684H819V-797H164V-744H746V-684H103V-634H746ZM75 -245C180 -254 328 -264 471 -277V-333L303 -320V-414H452V-470H89V-414H233V-315C171 -311 114 -307 68 -304ZM590 -418H819V-320H590ZM951 -205H745V-268H892V-470H520V-268H673V-205H50V-141H257L214 -105C273 -70 341 -17 372 21L425 -27C394 -62 332 -109 276 -141H673V-6C673 7 668 11 651 12C634 13 574 13 508 11C518 31 530 57 533 77C620 77 672 77 704 66C736 55 745 36 745 -5V-141H951Z"/>
</svg>