<svg xmlns="http://www.w3.org/2000/svg" viewBox="0 -1000 1000 1000">
	<path fill="#000000" d="M78 -19C103 -70 117 -154 125 -219L81 -233C74 -170 57 -88 34 -39ZM145 -216C155 -158 160 -85 157 -36L198 -42C199 -90 194 -163 183 -221ZM150 -439H238V-353H150ZM238 -722V-638H150V-722ZM238 -497H150V-580H238ZM298 -353V-439H415V-497H298V-580H413V-638H298V-722H423V-783H89V-293H367C365 -224 362 -170 359 -129C347 -164 324 -215 300 -253L267 -241C290 -200 315 -147 324 -111L358 -123C352 -49 345 -15 337 -4C331 6 324 7 312 7C300 7 273 7 243 4C252 20 258 44 259 62C289 64 320 63 337 61C361 59 376 53 389 35C410 8 420 -77 429 -323C429 -333 430 -353 430 -353ZM283 -73C278 -116 262 -183 242 -233L206 -225C224 -174 241 -107 245 -64ZM854 -607V-507H538V-607ZM712 -377H537C538 -402 538 -425 538 -449H920V-665H538V-708C668 -719 816 -739 914 -763L877 -820C779 -794 611 -772 472 -759L473 -757V-455C473 -301 466 -103 404 44C422 51 449 67 461 78C511 -39 529 -185 535 -320H656V-145C600 -112 547 -83 507 -63L535 -14C572 -39 615 -65 656 -93V16C656 25 654 28 644 28C634 29 605 29 571 28C578 42 586 62 588 76C637 76 668 75 687 67C707 58 712 45 712 16ZM555 -266C576 -229 602 -181 616 -150L655 -174C642 -202 616 -249 593 -285ZM922 -377H736V-320H865V-156C811 -124 761 -95 724 -75L750 -27C787 -50 826 -77 865 -104V15C865 25 862 28 852 28C841 29 809 29 773 28C780 42 788 62 790 76C842 76 876 75 896 67C917 58 922 44 922 15ZM740 -274C762 -237 789 -186 802 -155L842 -178C830 -207 802 -256 780 -293Z"/>
</svg>