<svg xmlns="http://www.w3.org/2000/svg" viewBox="0 -1000 1000 1000">
	<path fill="#000000" d="M707 -465C754 -493 806 -524 856 -556L841 -602C778 -568 720 -537 678 -517ZM822 -624C806 -649 769 -688 741 -713L700 -685C729 -657 763 -617 780 -591ZM90 19C107 -41 119 -140 127 -207L79 -222C73 -157 57 -59 40 -1ZM144 -209C153 -150 158 -75 157 -25L199 -31C199 -80 193 -155 184 -212ZM144 -430H244V-336H144ZM244 -732V-644H144V-732ZM244 -489H144V-584H244ZM304 -336V-430H398V-489H304V-584H399V-644H304V-732H413V-795H84V-273H361C359 -215 357 -168 355 -131C342 -163 322 -209 302 -246L267 -233C287 -193 311 -138 321 -103L354 -116C349 -43 343 -9 333 2C327 10 319 12 304 12C289 12 251 12 209 8C219 24 225 48 226 66C267 69 308 69 331 67C356 65 372 58 387 40C408 13 415 -70 422 -307C423 -316 424 -336 424 -336ZM285 -65C279 -108 263 -173 246 -224L208 -216C223 -165 239 -99 245 -56ZM582 -585C522 -555 465 -528 424 -511L453 -459C498 -483 547 -511 595 -539ZM435 -680C463 -651 497 -610 513 -585L557 -619C540 -644 506 -682 477 -709ZM826 -187H546V-281H826ZM546 -35V-133H826V-35ZM650 -425C659 -434 661 -448 661 -469V-800H436V-739H602V-469C602 -460 599 -457 588 -457C578 -456 546 -456 510 -457C516 -441 522 -420 524 -404C570 -404 604 -404 626 -410C619 -388 608 -364 598 -342H481V74H546V24H826V68H894V-342H672C682 -364 693 -389 705 -416ZM927 -798H697V-737H868V-468C868 -459 866 -455 855 -455C844 -454 812 -454 776 -455C783 -439 790 -419 791 -402C842 -402 878 -403 899 -411C922 -421 927 -435 927 -467Z"/>
</svg>