<svg xmlns="http://www.w3.org/2000/svg" viewBox="0 -1000 1000 1000">
	<path fill="#000000" d="M407 -511C402 -489 397 -477 391 -472C384 -466 377 -466 364 -466C350 -465 312 -466 273 -470C280 -458 285 -440 286 -427C328 -424 368 -424 387 -425C411 -425 428 -429 442 -440C458 -452 467 -479 475 -529C477 -537 478 -553 478 -553H249C253 -563 256 -573 259 -584H507V-627H343C335 -642 324 -659 314 -673H474V-716H324V-751H503V-793H324V-838H255V-793H66V-751H255V-716H92V-673H305L252 -659C258 -650 265 -638 271 -627H51V-584H194C172 -509 117 -457 39 -424C53 -413 76 -390 84 -380C146 -410 197 -452 230 -511ZM113 75C159 42 197 -7 225 -51L164 -80C139 -40 98 10 52 39ZM293 -62C306 -22 317 30 320 63L384 50C381 18 368 -33 354 -71ZM457 -60C479 -26 500 20 508 50L567 32C559 2 537 -43 514 -75ZM249 -190H466V-146H249ZM466 -362V-317H249V-362ZM466 -232H249V-275H466ZM538 -146V-190H817V-232H538V-275H814V-317H538V-362H838V-409H178V-98H832C821 -27 810 4 798 17C791 23 782 24 768 24C755 24 723 23 686 20L740 -6C726 -30 698 -64 671 -89L620 -67C646 -41 673 -5 686 20L677 19C687 36 693 59 694 76C737 78 777 79 799 77C822 76 839 71 854 57C876 37 891 -10 905 -118C906 -128 907 -146 907 -146ZM807 -691C789 -644 758 -605 720 -572C683 -607 653 -647 630 -691ZM941 -691V-744H655C670 -769 683 -795 694 -822L632 -836C605 -763 553 -697 491 -653C506 -644 532 -624 542 -613C557 -625 572 -638 585 -653C608 -609 636 -571 671 -537C621 -508 562 -486 497 -471C508 -459 525 -432 531 -418C599 -438 662 -463 715 -498C772 -453 840 -419 917 -399C925 -416 943 -441 958 -455C886 -470 822 -499 767 -536C814 -577 851 -628 874 -691Z"/>
</svg>