<svg xmlns="http://www.w3.org/2000/svg" viewBox="0 -1000 1000 1000">
	<path fill="#000000" d="M860 -821C840 -783 801 -725 771 -690L817 -667C848 -698 887 -749 921 -794ZM603 -699C587 -730 551 -780 521 -818L469 -789C499 -751 533 -698 549 -666ZM657 -393H722V-599H951V-660H722V-837H657V-660H430V-599H657ZM756 -549C814 -514 887 -460 923 -426L963 -469C927 -504 852 -554 795 -587ZM576 -584C538 -536 469 -486 405 -461C419 -450 439 -427 449 -412C514 -444 587 -506 628 -563ZM86 18C103 -43 115 -142 123 -207L79 -222C73 -156 57 -59 40 -1ZM144 -208C151 -151 157 -75 157 -25L196 -31C196 -80 189 -155 181 -212ZM622 -278C612 -231 595 -188 575 -149C553 -174 522 -205 494 -232C502 -247 510 -262 516 -278ZM144 -430H240V-336H144ZM240 -732V-644H144V-732ZM240 -489H144V-584H240ZM654 -338L643 -336H539C547 -359 554 -381 560 -404L504 -415C482 -326 445 -242 392 -186C394 -221 395 -261 396 -308C397 -317 397 -336 397 -336H298V-430H390V-489H298V-584H391V-644H298V-732H406V-795H84V-273H339C337 -207 335 -156 332 -116C325 -150 312 -201 297 -241L267 -233C280 -192 294 -138 300 -103L332 -113C328 -40 322 -8 315 3C308 12 300 13 285 13C271 13 232 13 192 10C200 25 207 48 208 65C248 67 288 68 309 66C333 63 349 57 364 39C379 19 387 -38 392 -179C404 -165 417 -141 423 -130C439 -147 454 -165 467 -186C495 -157 525 -125 546 -100C508 -42 461 2 410 29C421 40 437 62 444 77C562 9 654 -125 689 -328ZM209 -216C219 -165 231 -100 235 -55L272 -63C268 -106 256 -171 245 -222ZM749 -132C758 -178 767 -232 774 -281H815V-132ZM872 -281H945V-335H872V-412H815V-335H695V-281H722C712 -211 698 -128 687 -72H815V77H872V-72H957V-132H872Z"/>
</svg>