<svg xmlns="http://www.w3.org/2000/svg" viewBox="0 -1000 1000 1000">
	<path fill="#000000" d="M793 -699H953V-757H793V-836H731V-651H793ZM586 -649H648V-836H586V-757H433V-699H586ZM80 11C100 -47 115 -145 123 -211L81 -226C73 -161 56 -64 36 -6ZM142 -208C150 -150 155 -76 155 -27L193 -31C192 -81 187 -155 179 -212ZM201 -218C216 -166 233 -99 239 -54L276 -64C269 -107 252 -174 236 -225ZM350 -116C339 -150 313 -204 292 -246L260 -234C281 -192 304 -137 316 -102ZM563 -83H707V-21H563ZM707 -241H563V-301H707ZM707 -132H563V-192H707ZM147 -431H235V-337H147ZM235 -729V-637H147V-729ZM235 -490H147V-578H235ZM516 -579H615V-488H516ZM761 -579H864V-488H761ZM956 -21H767V-83H912V-132H767V-192H912V-241H767V-301H936V-357H782C767 -381 742 -413 717 -436H920V-631H708V-436H712L668 -411C683 -395 698 -376 711 -357H585C597 -378 608 -400 618 -422L576 -436H668V-631H465V-436H559C527 -363 476 -292 420 -241L422 -307V-337H292V-431H403V-490H292V-578H401V-637H292V-729H416V-792H89V-274H362C357 -80 352 -9 339 7C333 17 327 18 315 18C302 18 273 18 240 15C249 31 256 55 257 73C288 75 322 75 340 73C363 71 378 64 391 46C407 23 414 -43 420 -219C432 -208 446 -193 453 -186C470 -201 486 -219 503 -239V77H563V35H956Z"/>
</svg>