<svg xmlns="http://www.w3.org/2000/svg" viewBox="0 -1000 1000 1000">
	<path fill="#000000" d="M410 -405H124V-218C124 -139 118 -36 65 41C81 48 107 68 117 80C177 -5 187 -127 187 -218V-352H345V-183C284 -152 225 -121 182 -103L210 -50C252 -74 298 -103 345 -131V6C345 16 342 19 331 19C322 20 290 20 253 19C262 35 271 59 274 77C327 77 360 76 382 65C404 55 410 39 410 6ZM335 -233C312 -256 267 -289 227 -314L193 -280C230 -255 276 -216 299 -192ZM178 -744H353V-680H239V-525H178ZM353 -525H285V-633H353ZM473 -382V-525H412V-801H121V-525H62V-382H119V-471H414V-382ZM534 -126C573 -89 617 -37 635 -2L686 -38C667 -73 622 -123 582 -158ZM861 -562V-504H748V-562ZM748 -401V-457H861V-401ZM572 -401V-457H685V-401ZM685 -562V-504H572V-562ZM953 -677V-735H883L911 -769C888 -791 841 -820 802 -837L767 -801C803 -784 842 -758 867 -735H748V-837H685V-735H473V-677H685V-616H511V-271H572V-355H685V-283H748V-355H861V-321C861 -314 859 -312 851 -311C846 -310 828 -310 806 -311C812 -303 818 -291 822 -279H774V-221H467V-162H774V3C774 13 771 16 760 16C749 17 713 17 673 16C681 33 691 57 693 75C749 75 785 74 808 64C832 54 838 37 838 4V-162H954V-221H838V-270C865 -270 885 -272 900 -277C919 -284 923 -294 923 -319V-616H748V-677Z"/>
</svg>