<svg xmlns="http://www.w3.org/2000/svg" viewBox="0 -1000 1000 1000">
	<path fill="#000000" d="M399 -414H122V-481H399ZM168 -741H356V-678H231V-535H168ZM280 -535V-630H356V-535ZM460 -405V-535H413V-802H113V-535H63V-399H115V-227C115 -145 108 -41 47 36C63 44 89 63 99 75C166 -9 178 -133 178 -226V-356H358V-177C289 -148 223 -122 175 -105L203 -45C251 -68 303 -95 358 -122V5C358 15 355 18 344 19C334 19 301 19 263 18C272 34 281 57 284 73C336 73 369 72 391 63C413 52 419 37 419 5V-405ZM189 -268C230 -245 280 -210 306 -187L340 -235C314 -256 264 -285 221 -308ZM563 -573H669V-470H563ZM563 -733H669V-631H563ZM840 -631H727V-733H840ZM840 -470H727V-573H840ZM947 -250V-315H732V-408H906V-794H500V-408H664V-315H454V-250H629C582 -155 503 -62 424 -16C439 -3 460 20 471 37C543 -14 615 -101 664 -197V76H732V-212C781 -116 853 -20 919 34C931 16 953 -8 970 -21C898 -68 820 -160 772 -250Z"/>
</svg>