<svg xmlns="http://www.w3.org/2000/svg" viewBox="0 -1000 1000 1000">
	<path fill="#000000" d="M557 -415V-518H674C669 -485 660 -450 644 -415ZM557 -677H680V-602C680 -594 680 -585 679 -575H557ZM848 -575H745C745 -584 745 -593 745 -601V-677H848ZM848 -415H714C727 -450 735 -485 740 -518H848ZM915 -354V-738H678C691 -765 704 -797 715 -827L636 -836C630 -808 619 -770 609 -738H492V-354H609C578 -311 533 -270 470 -233C487 -224 511 -204 522 -191C601 -239 652 -296 686 -354ZM392 -414H117V-224C117 -143 111 -38 60 40C75 47 102 68 112 80C170 -7 179 -132 179 -224V-360H331V-186C272 -154 215 -125 174 -107L204 -51C243 -75 287 -102 331 -129V-3C331 6 328 9 318 9C310 10 280 10 248 9C257 26 266 51 268 68C314 68 345 67 364 57C386 46 392 29 392 -2ZM326 -245C304 -268 260 -300 221 -324L185 -287C221 -263 266 -226 287 -202ZM160 -741H343V-677H224V-536H160ZM343 -536H274V-629H343ZM451 -400V-536H404V-802H102V-536H52V-400H108V-481H393V-400ZM948 -191H779V-323H710V-191H445V-125H710V76H779V-125H948Z"/>
</svg>