<svg xmlns="http://www.w3.org/2000/svg" viewBox="0 -1000 1000 1000">
	<path fill="#000000" d="M518 -696H881V-612H948V-753H741C732 -778 715 -817 696 -844L629 -827C641 -805 655 -777 665 -753H453V-612H518ZM565 -577C537 -545 495 -514 451 -488C465 -481 485 -466 495 -457C536 -483 585 -524 616 -563ZM571 -164H849V-109H571ZM849 -308H571V-362H849ZM849 -209H571V-263H849ZM152 -744H327V-680H215V-525H152ZM327 -525H260V-633H327ZM917 -62V-409H664C766 -445 859 -492 920 -554L859 -576C828 -546 783 -520 732 -498V-593H846V-644H553V-593H673V-475C598 -447 514 -428 433 -415V-525H390V-801H92V-525H50V-382H107V-471H375V-405H109V-219C109 -139 104 -35 53 43C67 49 92 69 103 80C160 -5 170 -128 170 -218V-351H318V-182C261 -154 206 -127 167 -110L196 -51C235 -74 276 -99 318 -125V0C318 10 314 14 303 14C293 14 259 14 220 13C229 30 238 55 241 71C296 71 331 71 353 61C376 50 383 33 383 1V-382H434V-407C444 -391 455 -366 458 -354C474 -357 489 -360 505 -364V-62H594C551 -28 480 6 418 26C429 41 445 63 453 77C526 53 610 12 663 -34L622 -62H783L749 -33C807 -1 871 44 906 78L962 40C926 9 865 -29 808 -62ZM178 -282C213 -258 256 -222 279 -199L313 -238C291 -260 248 -291 211 -315Z"/>
</svg>