<svg xmlns="http://www.w3.org/2000/svg" viewBox="0 -1000 1000 1000">
	<path fill="#000000" d="M173 -282C202 -256 237 -222 255 -199L292 -231C273 -252 238 -284 207 -309ZM155 -744H302V-680H206V-525H155ZM302 -525H249V-633H302ZM396 -382V-525H357V-801H102V-525H56V-382H105V-471H345V-405H107V-218C107 -139 101 -35 48 42C62 48 84 66 93 77C151 -8 162 -129 162 -218V-352H292V-172C240 -144 193 -118 157 -103L185 -51C221 -72 256 -96 292 -120V3C292 14 288 17 277 17C268 18 233 18 194 17C202 31 210 52 213 67C267 67 300 66 320 57C341 48 347 33 347 4V-382ZM481 -677H952V-733H731C718 -762 696 -803 674 -835L615 -815C629 -791 646 -759 659 -733H422V-440C422 -299 416 -106 348 35C363 41 388 57 399 67C471 -79 481 -292 481 -440ZM512 -309C512 -229 506 -129 469 -49C481 -43 496 -29 504 -20C546 -108 553 -217 553 -308V-398H512ZM693 -458V-514H632V-639H572V-514H501V-458H580V76H624V-458ZM726 -285C726 -248 725 -210 719 -172C711 -170 704 -170 698 -170H693C688 -170 688 -174 688 -198V-398H651V-199C651 -149 657 -134 692 -134H696H697H698C702 -134 707 -134 711 -135C705 -105 694 -76 678 -51C689 -45 703 -30 710 -21C759 -99 767 -195 767 -285V-397H726ZM934 -458V-514H848V-639H787V-514H708V-458H795V76H840V-458ZM916 -82C909 -82 909 -88 909 -112V-398H868V-113C868 -58 875 -42 915 -42H932C941 -42 952 -43 961 -45C959 -55 957 -74 956 -85C948 -83 938 -82 932 -82Z"/>
</svg>