<svg xmlns="http://www.w3.org/2000/svg" viewBox="0 -1000 1000 1000">
	<path fill="#000000" d="M882 -599C817 -537 683 -496 547 -476C562 -462 578 -440 585 -423C730 -451 869 -498 942 -575ZM854 -719C792 -669 678 -627 579 -604C594 -592 610 -571 620 -556C726 -585 841 -632 912 -694ZM821 -833C755 -787 640 -743 551 -718C568 -705 585 -687 596 -673C688 -702 803 -749 879 -804ZM189 -79C191 -97 192 -113 192 -129H443V-79ZM443 -221V-169H192V-221ZM508 -270H130V-142C130 -84 125 -13 82 43C96 50 120 75 129 88C159 51 175 6 183 -39H443V9C443 19 440 22 429 23C418 23 383 23 345 22C353 38 362 58 366 74C418 74 455 74 477 65C501 56 508 41 508 9ZM790 8C790 19 787 23 773 24C762 24 720 24 673 22C682 38 692 59 694 76C755 76 797 76 823 67C849 58 857 44 857 10V-288H790ZM674 -272H608V-21H674ZM395 -518L368 -503C377 -497 387 -488 397 -480L187 -471C209 -485 231 -500 252 -518ZM698 -363C715 -379 732 -397 748 -418L679 -437C665 -416 640 -386 619 -363H380L382 -364C368 -382 341 -410 318 -431L445 -437C458 -425 470 -413 478 -404L527 -434C504 -456 464 -491 428 -518H561V-566H212V-605H488V-645H212V-684H488V-724H212V-762H518V-810H144V-566H57V-518H173C149 -499 127 -486 119 -482C106 -475 93 -471 81 -469C88 -454 97 -426 100 -413C117 -419 141 -422 308 -431L256 -409C270 -396 285 -379 298 -363H51V-312H950V-363Z"/>
</svg>