<svg xmlns="http://www.w3.org/2000/svg" viewBox="0 -1000 1000 1000">
	<path fill="#000000" d="M882 -615C816 -553 679 -511 540 -491C554 -478 569 -456 576 -441C724 -468 865 -515 942 -592ZM850 -726C787 -676 668 -635 564 -612C578 -601 594 -581 603 -567C712 -595 833 -640 905 -702ZM826 -835C757 -790 637 -748 542 -725C557 -713 572 -695 582 -681C681 -708 801 -754 880 -808ZM336 -167C356 -182 377 -197 396 -214H623C642 -198 664 -182 686 -167ZM414 -546L380 -526C390 -518 399 -511 409 -501L189 -485C217 -502 243 -522 268 -546ZM942 -214V-264H447C461 -280 475 -295 486 -313H885V-361H741C756 -380 773 -400 787 -418L723 -439C706 -413 682 -386 658 -361H518C530 -383 541 -405 551 -429L486 -442L517 -460C500 -486 465 -520 432 -546H554V-589H212V-621H488V-659H212V-692H488V-730H212V-766H518V-812H144V-589H57V-546H183C156 -521 128 -502 118 -496C104 -487 91 -482 77 -480C84 -465 93 -436 97 -423C118 -431 151 -435 450 -459C458 -450 466 -440 471 -432L483 -440C473 -412 459 -386 443 -361H358C340 -385 305 -414 276 -436L224 -406C240 -393 258 -377 274 -361H122V-313H408C393 -295 378 -280 361 -264H61V-214H297C227 -166 142 -131 47 -105C61 -93 84 -66 93 -52C151 -71 205 -93 256 -120V-14C256 53 295 66 415 66H700C792 66 816 43 824 -52C806 -55 783 -62 767 -71C761 7 751 19 693 19H414C340 19 325 13 325 -15V-121H638C635 -89 630 -74 622 -67C616 -62 607 -61 585 -61C568 -61 502 -62 438 -67C446 -54 452 -36 453 -24C517 -20 578 -19 608 -20C638 -21 661 -24 676 -37C694 -50 702 -79 706 -142L707 -153C773 -112 850 -77 918 -55C928 -71 947 -95 961 -108C879 -129 784 -169 715 -214Z"/>
</svg>