<svg xmlns="http://www.w3.org/2000/svg" viewBox="0 -1000 1000 1000">
	<path fill="#000000" d="M889 -649C820 -598 680 -566 544 -552C556 -540 569 -520 577 -505C721 -526 866 -563 943 -627ZM859 -744C792 -702 664 -672 558 -655C571 -644 585 -626 594 -613C704 -634 833 -669 909 -720ZM836 -835C763 -798 634 -767 537 -751C550 -741 565 -723 574 -710C674 -731 803 -764 885 -809ZM290 -116H712V-85H290ZM712 -337V-302H290V-337ZM290 -191H712V-154H290ZM712 -229H290V-264H712ZM389 -571L374 -563C383 -557 392 -550 401 -543L189 -530C206 -543 224 -556 241 -571ZM952 -85H782V-375H506C510 -386 515 -397 520 -410H899V-459H537C541 -471 544 -484 548 -495L500 -501L510 -507C495 -527 468 -551 441 -571H540V-612H209L205 -614V-640H482V-676H205V-705H482V-741H205V-771H510V-812H138V-612H54V-571H163C145 -554 127 -542 120 -538C108 -530 97 -526 85 -524C92 -510 101 -486 104 -474C125 -482 160 -485 444 -504C452 -496 460 -487 465 -481L475 -487C473 -478 471 -468 468 -459H115V-410H453C449 -397 444 -386 440 -375H222V-85H53V-37H332C268 -10 157 19 74 34C83 46 95 67 99 79C196 61 315 29 397 -7L354 -37H617L596 -4C698 22 804 54 870 80L903 33C843 11 751 -15 660 -37H951Z"/>
</svg>