<svg xmlns="http://www.w3.org/2000/svg" viewBox="0 -1000 1000 1000">
	<path fill="#000000" d="M887 -634C819 -576 682 -536 549 -516C562 -505 575 -483 583 -469C726 -495 867 -541 943 -612ZM856 -737C793 -691 675 -654 574 -636C588 -623 603 -605 612 -592C718 -616 837 -658 908 -714ZM821 -834C754 -795 637 -761 546 -743C560 -732 575 -714 584 -702C679 -724 796 -763 872 -810ZM312 -173C332 -188 349 -204 367 -221H647C663 -204 681 -189 700 -173ZM313 4V-45H690V4ZM690 -85H313V-125H690ZM195 -519C217 -532 239 -546 261 -564H378L364 -557C373 -549 382 -541 389 -532ZM946 -221V-271H415C426 -284 436 -297 446 -311H855V-359H479C487 -372 495 -386 503 -400H894V-450H527C534 -467 541 -483 548 -500L481 -515L478 -507C466 -524 446 -545 428 -564H556V-605H215V-636H491V-672H215V-704H491V-740H215V-771H520V-809H148V-605H63V-564H180C154 -545 128 -531 119 -526C105 -519 91 -516 78 -515C85 -500 94 -472 97 -459C117 -467 148 -470 422 -493C429 -484 435 -475 438 -468L470 -485C465 -473 460 -462 454 -450H117V-400H428C420 -386 411 -372 402 -359H157V-311H365C353 -297 340 -284 327 -271H63V-221H270C207 -173 133 -134 52 -104C67 -91 90 -63 99 -50C150 -71 198 -96 242 -124V73H313V48H690V73H763V-129C813 -98 868 -72 921 -56C931 -72 950 -97 964 -109C882 -130 792 -172 729 -221Z"/>
</svg>