<svg xmlns="http://www.w3.org/2000/svg" viewBox="0 -1000 1000 1000">
	<path fill="#000000" d="M588 -433V-396H434V-433ZM806 -433V-396H656V-433ZM806 -321H656V-360H806ZM434 -360H588V-321H434ZM212 -360H367V-321H212ZM212 -433H367V-396H212ZM367 -500V-470H145V-283H875V-470H656V-499H588V-470H434V-500ZM896 -656C829 -605 692 -573 558 -557C571 -546 585 -527 593 -513C736 -535 878 -573 952 -636ZM863 -746C794 -704 664 -672 555 -655C569 -644 583 -627 592 -615C707 -636 839 -674 917 -725ZM828 -832C755 -795 628 -762 533 -743C547 -733 563 -717 572 -705C672 -727 797 -763 880 -808ZM181 -538C200 -550 219 -563 237 -578H410L396 -571C402 -565 410 -558 418 -551ZM535 -505C518 -525 487 -554 457 -578H551V-617H205V-647H499V-680H205V-710H499V-743H205V-773H523V-811H138V-617H52V-578H160C139 -560 117 -546 110 -542C97 -534 86 -531 74 -529C81 -517 90 -496 93 -487C116 -493 151 -497 455 -515C469 -503 479 -491 488 -481ZM799 -63C769 -46 727 -26 693 -11C646 -25 605 -42 574 -63ZM830 -63H935V-106H195C197 -118 199 -129 199 -140H872V-182H201V-212H926V-257H132V-179C132 -116 120 -28 51 39C66 46 96 64 107 75C149 36 172 -14 186 -63H290V-26C290 10 263 25 247 32C256 44 268 66 271 81C288 73 319 68 558 37C559 27 560 7 563 -7L357 17V-63H503C582 19 735 63 920 77C927 62 944 40 958 28C885 25 818 17 758 5C793 -9 830 -25 864 -43Z"/>
</svg>