<svg xmlns="http://www.w3.org/2000/svg" viewBox="0 -1000 1000 1000">
	<path fill="#000000" d="M890 -661C825 -606 688 -570 553 -553C567 -542 580 -522 589 -508C732 -531 873 -573 947 -641ZM852 -749C789 -706 674 -672 575 -652C589 -642 605 -624 614 -611C719 -635 835 -675 906 -727ZM816 -835C750 -797 633 -762 546 -744C561 -733 576 -716 586 -704C677 -727 793 -765 868 -810ZM383 -560L212 -550C230 -560 248 -572 265 -585H396L369 -569ZM469 -499C473 -493 476 -487 479 -481H65V-436H937V-481H559C551 -498 539 -517 528 -533L499 -525C482 -544 453 -567 426 -585H561V-624H228L226 -625L225 -624H211V-652H488V-686H211V-712H488V-746H211V-773H517V-812H144V-624H57V-585H177C157 -570 137 -559 129 -555C116 -548 103 -545 89 -543C97 -530 107 -505 110 -494C130 -501 165 -505 431 -522C442 -512 453 -502 460 -493ZM379 -179H623V-152L379 -151ZM379 -244H623V-216H379ZM808 -109C773 -89 723 -64 680 -45C636 -63 598 -84 569 -109ZM209 -380H398V-344H209ZM599 -381H798V-347H599ZM830 -109H941V-152H693V-179H861V-216H693V-244H906V-286H693V-314H862V-414H538V-314H623V-286L379 -285V-311H462V-413H148V-311H308V-285H98V-244H308V-216H141V-179H308V-151H60V-108H394C305 -80 183 -55 40 -38C51 -29 65 -10 72 3C143 -8 209 -20 269 -33C269 8 247 24 233 32C241 41 252 62 258 76V79H259C277 70 310 63 550 16C550 5 552 -17 554 -33L337 5V-49C398 -65 452 -83 499 -104C585 -12 740 43 918 64C926 49 943 26 956 14C879 8 805 -5 741 -25C784 -42 830 -64 868 -88Z"/>
</svg>