<svg xmlns="http://www.w3.org/2000/svg" viewBox="0 -1000 1000 1000">
	<path fill="#000000" d="M882 -623C812 -567 677 -529 546 -511C559 -498 574 -476 582 -463C721 -487 861 -532 939 -600ZM851 -731C789 -688 673 -652 576 -631C589 -619 605 -600 614 -587C718 -610 835 -654 905 -708ZM815 -835C749 -795 633 -759 546 -738C561 -727 577 -709 586 -696C677 -720 792 -761 867 -808ZM403 -566L380 -550C388 -546 395 -540 403 -534L197 -524C215 -536 234 -550 252 -566ZM809 -226H739L759 -254C707 -271 617 -291 539 -306C547 -311 555 -317 563 -323L532 -333H809ZM282 -226C349 -239 427 -257 489 -283C567 -266 660 -244 718 -226ZM186 -333H508C447 -296 328 -272 226 -259C238 -252 254 -236 263 -226H186ZM119 -374V-185H878V-374H791L817 -390C793 -403 761 -417 725 -428C757 -441 785 -452 823 -467L766 -492C734 -473 688 -450 638 -426C684 -408 724 -391 753 -374H547L567 -387C544 -400 511 -413 476 -424C507 -436 535 -447 571 -463L515 -487C485 -468 439 -445 391 -422C434 -405 471 -390 499 -374H311L328 -385C305 -398 273 -411 239 -423C270 -435 297 -446 332 -463L282 -483C327 -486 384 -489 456 -494C464 -486 471 -479 477 -473L520 -506C502 -523 471 -547 441 -566H561V-608H211V-639H488V-675H211V-705H488V-741H211V-773H518V-814H144V-608H57V-566H177C152 -547 126 -532 118 -527C105 -521 94 -518 81 -516C88 -504 96 -477 99 -464C115 -470 136 -474 273 -482C242 -464 200 -443 155 -421C195 -404 231 -389 257 -374ZM220 7V-34H403V-74H220V-103H402V-143H220V-172H155V-21C155 12 131 18 116 20C124 32 133 58 135 72C152 65 181 60 410 36C409 25 408 4 409 -9ZM524 6V-34H699V-74H524V-103H698V-143H524V-173H459V-22C459 11 436 18 420 20C428 32 437 57 439 72C457 64 487 60 719 34C717 23 716 3 716 -11ZM743 -173C748 -25 797 74 878 74C922 74 946 50 954 -40C937 -45 917 -55 902 -67C900 -16 895 12 879 12C845 13 810 -60 808 -173Z"/>
</svg>