<svg xmlns="http://www.w3.org/2000/svg" viewBox="0 -1000 1000 1000">
	<path fill="#000000" d="M850 -724H688C684 -681 678 -632 670 -596H856C852 -568 847 -556 840 -550C834 -544 827 -544 813 -544C799 -544 762 -544 723 -548C731 -536 735 -517 736 -504C776 -501 814 -501 833 -502C856 -503 871 -506 885 -517C900 -530 908 -559 916 -614C918 -621 919 -637 919 -637H734C736 -652 738 -667 740 -683H907V-808H674V-767H850ZM597 -814C589 -790 571 -754 558 -731L599 -715C614 -737 631 -766 648 -796ZM445 -737C436 -758 417 -789 398 -813L355 -794C373 -771 391 -738 398 -716ZM470 -500H530V-655H653V-704H530V-826H470V-704H339V-655H470ZM544 -614C562 -594 604 -541 620 -519L655 -557C643 -571 593 -623 578 -636ZM415 -640C399 -610 369 -575 337 -558C348 -548 364 -532 373 -520C407 -542 438 -588 454 -626ZM259 -724H103C100 -681 94 -632 87 -595H143V-596H267C262 -569 257 -556 250 -550C245 -544 238 -544 225 -544C213 -544 179 -544 143 -548C150 -535 155 -517 156 -504C191 -501 228 -501 245 -502C267 -502 282 -507 295 -517C310 -530 318 -558 326 -613C328 -621 329 -637 329 -637H149C151 -652 153 -667 154 -683H317V-808H90V-767H259ZM429 -91L436 -95C427 -114 408 -144 389 -168H616C603 -146 584 -114 567 -91ZM900 -217H110V76H187V-168H358L326 -152C338 -134 353 -111 365 -91H229V-47H463V72H536V-47H771V-91H633C648 -109 663 -129 678 -149L632 -168H823V4C823 16 819 21 804 21C789 23 740 23 680 21C689 38 700 58 704 76C780 76 831 77 861 68C891 57 900 42 900 4ZM739 -299H264V-354H739ZM191 -395V-258H815V-395ZM73 -482V-431H928V-482Z"/>
</svg>