<svg xmlns="http://www.w3.org/2000/svg" viewBox="0 -1000 1000 1000">
	<path fill="#000000" d="M839 -608C819 -633 788 -664 755 -696C783 -730 810 -765 830 -801L779 -824C763 -794 741 -762 716 -732C684 -759 653 -786 624 -809L583 -778C615 -753 649 -724 681 -693C648 -660 612 -629 574 -605C585 -595 602 -579 611 -569C649 -594 685 -625 719 -658C750 -626 778 -597 796 -574ZM464 -776H70V-714H464ZM174 -599H367V-499H174ZM429 -446V-652H114V-446ZM377 -129V-179H329C344 -215 361 -259 376 -300L329 -313C319 -274 300 -219 283 -179H164V-129H241V36H293V-129ZM177 -300C188 -267 201 -225 206 -196L248 -209C242 -236 228 -277 216 -310ZM751 -498V-442C751 -381 763 -358 823 -358H907C927 -358 947 -359 958 -363C956 -378 955 -400 954 -416C941 -413 918 -412 905 -412H829C814 -412 812 -418 812 -441V-498H921V-789H860V-554H562V-789H504V-498H610C599 -430 564 -396 463 -375V-387H78V77H134V-331H407V0C407 9 404 12 395 12C386 12 358 12 325 11C333 27 339 49 341 64C388 64 418 64 438 54C457 44 463 30 463 0V-371C475 -359 487 -340 493 -326C614 -356 656 -406 670 -498ZM828 -254C802 -199 765 -151 721 -111C681 -145 645 -183 617 -226C625 -235 633 -244 640 -254ZM871 -313L859 -310H679C694 -335 708 -360 719 -385L659 -394C643 -357 619 -315 587 -276C580 -287 574 -299 569 -311L516 -295C526 -274 536 -253 547 -233C529 -215 507 -197 484 -181C497 -174 516 -154 525 -141C543 -155 561 -170 578 -185C606 -145 640 -108 676 -75C615 -31 545 2 474 21C487 34 501 57 509 72C586 48 658 13 723 -35C783 10 851 45 926 68C934 53 951 29 965 16C893 -3 827 -34 769 -75C831 -132 880 -205 910 -295Z"/>
</svg>