<svg xmlns="http://www.w3.org/2000/svg" viewBox="0 -1000 1000 1000">
	<path fill="#000000" d="M931 -713C908 -746 856 -792 811 -822L763 -789C807 -757 858 -710 880 -677ZM949 -602V-667H693C699 -725 702 -781 705 -834H638C636 -783 633 -726 627 -667H500V-602H620C602 -472 566 -343 490 -261C507 -251 529 -232 540 -218C624 -313 664 -457 685 -602ZM930 -135C904 -178 860 -234 810 -292C845 -370 870 -457 889 -557L824 -566C811 -485 791 -412 764 -345C739 -373 715 -400 691 -424L644 -388C673 -357 705 -320 736 -284C691 -197 630 -126 551 -73C567 -64 592 -39 602 -27C674 -81 733 -149 779 -231C820 -179 857 -130 879 -93ZM402 -148C422 -192 441 -250 451 -308L402 -319C398 -254 376 -186 371 -169C365 -152 360 -140 350 -138C355 -127 363 -103 366 -93C375 -98 395 -102 477 -115C480 -101 482 -88 484 -77L524 -89C518 -124 503 -186 489 -234L450 -227C457 -205 464 -179 469 -155ZM131 -510H238V-404H131ZM131 -670H238V-564H131ZM408 -564H296V-670H408ZM408 -404H296V-510H408ZM459 3C358 3 341 -8 341 -49V-343H470V-731H273C285 -760 297 -796 309 -830L239 -840C232 -808 219 -765 207 -731H70V-343H152V-316C152 -221 138 -79 30 31C45 41 66 64 76 80C195 -41 214 -208 214 -314V-343H277V-49C277 42 315 63 462 63H818C929 63 953 37 965 -61C947 -64 919 -73 904 -83C896 -11 885 3 816 3Z"/>
</svg>