<svg xmlns="http://www.w3.org/2000/svg" viewBox="0 -1000 1000 1000">
	<path fill="#000000" d="M306 -692C292 -655 274 -615 258 -585H149C168 -620 183 -656 197 -692ZM375 -421H290V-522H375ZM375 -260H290V-362H375ZM147 -362H237V-260H147ZM147 -522H237V-421H147ZM90 -491V-197H435V-585H320C345 -628 368 -679 387 -725L346 -756L334 -752H218C226 -777 233 -803 240 -827L176 -836C154 -742 110 -619 37 -526C53 -518 75 -499 86 -486ZM94 76C116 20 135 -72 149 -132L99 -153C87 -93 65 -5 42 50ZM187 -139C193 -80 198 -4 197 47L249 39C248 -12 243 -86 236 -146ZM273 -143C289 -89 306 -19 312 27L360 13C355 -32 337 -101 320 -155ZM361 -155C383 -112 404 -54 413 -16L460 -37C451 -74 429 -130 405 -173ZM950 -599V-665H721L751 -675C742 -716 719 -781 696 -830L634 -812C654 -766 674 -706 683 -665H468V-599H602V-433C602 -290 583 -112 426 32C444 43 469 63 481 78C632 -60 666 -229 671 -382H840C832 -125 824 -31 806 -8C798 3 789 4 773 4C755 4 711 4 663 0C675 18 682 46 684 67C730 69 777 70 803 68C831 65 849 57 866 36C893 1 901 -105 910 -414V-447H672V-599Z"/>
</svg>