<svg xmlns="http://www.w3.org/2000/svg" viewBox="0 -1000 1000 1000">
	<path fill="#000000" d="M945 -752C920 -779 869 -816 826 -840L782 -804C825 -778 875 -739 899 -711ZM306 -688C294 -653 278 -614 264 -585H150C170 -619 187 -653 202 -688ZM372 -424H291V-524H372ZM372 -263H291V-366H372ZM160 -424V-524H236V-424ZM236 -366V-263H160V-366ZM101 -201H433V-585H328C351 -628 373 -678 390 -723L347 -751L334 -747H225C235 -775 243 -802 251 -828L182 -837C159 -747 111 -628 35 -538C52 -530 76 -510 87 -496C92 -502 96 -507 101 -513ZM82 77C131 26 147 -62 156 -146L102 -159C95 -80 77 1 34 47ZM190 -147C201 -88 205 -14 201 35L255 28C257 -21 252 -95 240 -154ZM277 -148C297 -94 314 -23 318 23L369 12C364 -34 346 -105 325 -158ZM368 -156C394 -105 420 -36 430 8L479 -10C470 -54 442 -122 415 -172ZM864 -484V-379H735V-484ZM735 -207V-317H864V-207ZM554 -207V-317H672V-207ZM554 -484H672V-379H554ZM954 -637V-701H739V-836H670V-701H455V-637H670V-549H489V73H554V-143H672V68H735V-143H864V-6C864 5 861 8 851 8C841 8 814 9 780 7C789 25 798 54 801 72C848 72 881 70 903 60C924 48 930 28 930 -5V-549H739V-637Z"/>
</svg>