<svg xmlns="http://www.w3.org/2000/svg" viewBox="0 -1000 1000 1000">
	<path fill="#000000" d="M299 -692C284 -655 265 -615 248 -585H146C166 -620 182 -656 196 -692ZM363 -422H283V-524H363ZM363 -261H283V-364H363ZM153 -422V-524H229V-422ZM229 -364V-261H153V-364ZM93 -501V-200H425V-585H313C338 -628 364 -680 384 -728L341 -755L328 -752H218C226 -777 234 -803 241 -827L176 -836C154 -742 108 -619 33 -526C48 -519 70 -500 82 -488ZM92 73C122 18 144 -72 159 -137L106 -155C93 -91 68 -3 37 50ZM193 -139C199 -80 204 -4 204 46L257 38C257 -12 251 -87 244 -145ZM283 -143C298 -93 314 -27 321 15L371 2C365 -41 347 -104 331 -154ZM374 -157C394 -118 415 -65 424 -31L474 -52C464 -86 442 -138 420 -176ZM575 -527H818V-333H575ZM824 -3C806 -3 803 -7 803 -30V-266H886V-570C892 -560 897 -550 901 -541L960 -583C926 -652 846 -755 776 -829L723 -793C776 -734 835 -657 873 -593H534C586 -659 631 -737 662 -809L592 -832C563 -751 501 -650 436 -587C446 -571 463 -540 470 -522C484 -535 497 -550 510 -564V-266H591C583 -117 560 -29 439 23C454 34 472 62 480 80C618 16 649 -92 659 -266H737V-30C737 42 751 64 814 64H885C938 64 955 32 961 -98C943 -103 915 -114 902 -127C900 -18 896 -3 877 -3Z"/>
</svg>