<svg xmlns="http://www.w3.org/2000/svg" viewBox="0 -1000 1000 1000">
	<path fill="#000000" d="M272 -689C260 -653 244 -615 229 -585H138C155 -619 170 -654 182 -689ZM331 -422H260V-528H331ZM331 -259H260V-367H331ZM144 -422V-528H212V-422ZM212 -367V-259H144V-367ZM89 -499V-201H388V-585H290C312 -628 335 -678 352 -724L311 -751L299 -747H202C210 -775 218 -802 224 -828L160 -837C139 -745 99 -622 34 -530C49 -522 72 -504 83 -490ZM82 77C125 26 137 -61 144 -144L93 -155C87 -76 74 4 35 50ZM172 -146C179 -87 180 -13 174 36L223 31C227 -18 226 -93 217 -151ZM247 -148C264 -94 277 -25 278 20L324 12C322 -33 308 -103 290 -156ZM327 -156C348 -103 369 -33 375 14L421 -1C414 -47 392 -116 370 -169ZM624 -569H520V-722H624ZM520 -290H624V-147C588 -140 553 -133 520 -127ZM624 -351H520V-509H624ZM943 -722V-786H395V-722H457V-115L410 -106L426 -44C484 -56 553 -72 624 -88V77H687V-722ZM845 2C837 2 831 0 826 -3C819 -9 818 -27 818 -56V-704H754V-66C754 14 760 30 775 44C790 56 813 62 830 62H883C902 62 921 59 934 50C948 41 958 27 963 4C967 -18 971 -79 971 -128C953 -133 931 -145 916 -158C916 -101 915 -56 913 -35C910 -17 906 -8 901 -4C896 1 886 2 877 2Z"/>
</svg>