<svg xmlns="http://www.w3.org/2000/svg" viewBox="0 -1000 1000 1000">
	<path fill="#000000" d="M306 -688C292 -653 275 -614 258 -585H153C171 -619 187 -653 201 -688ZM379 -424H294V-524H379ZM379 -263H294V-366H379ZM159 -424V-524H241V-424ZM241 -366V-263H159V-366ZM102 -505V-201H438V-585H324C348 -628 373 -678 391 -723L348 -751L336 -747H222C232 -774 239 -801 246 -827L180 -836C157 -743 112 -621 38 -529C54 -522 78 -502 89 -488ZM87 76C135 26 153 -60 162 -143L109 -156C101 -78 83 2 38 47ZM194 -143C205 -84 209 -9 205 39L259 32C261 -16 256 -91 243 -149ZM281 -148C300 -98 315 -32 318 11L369 0C365 -42 349 -108 329 -158ZM470 -50C461 -83 439 -136 418 -176L372 -160C392 -121 413 -67 421 -32ZM561 -331V-512H675C673 -448 669 -387 660 -331ZM747 -686C731 -648 709 -607 689 -575H562C583 -609 603 -647 621 -686ZM865 -331H725C733 -388 738 -448 741 -512H865ZM803 8C791 8 783 7 776 4C770 -1 769 -12 769 -32V-268H931V-575H763C791 -620 820 -675 839 -722L792 -752L781 -748H648C657 -772 665 -796 673 -820L606 -837C571 -719 511 -605 439 -529C456 -520 484 -497 496 -485L497 -486V-268H648C618 -140 555 -38 414 25C429 37 449 61 457 77C598 11 667 -93 703 -222V-39C703 19 710 36 726 48C742 60 769 65 790 65H853C872 65 897 62 912 57C928 49 940 37 946 17C953 0 956 -50 957 -97C938 -103 913 -115 899 -128C898 -78 898 -40 895 -24C892 -8 886 0 879 4C872 7 860 8 847 8Z"/>
</svg>