<svg xmlns="http://www.w3.org/2000/svg" viewBox="0 -1000 1000 1000">
	<path fill="#000000" d="M291 -692C277 -655 258 -615 242 -585H142C161 -620 177 -656 190 -692ZM353 -422H276V-525H353ZM353 -260H276V-364H353ZM149 -422V-525H223V-422ZM223 -364V-260H149V-364ZM92 -503V-200H412V-585H304C330 -628 354 -680 373 -728L332 -755L320 -752H211C220 -777 227 -803 234 -827L172 -836C149 -742 105 -619 32 -526C47 -519 69 -500 80 -488ZM91 71C119 17 140 -75 155 -140L103 -158C91 -94 67 -5 36 49ZM188 -141C195 -82 200 -5 200 47L250 40C251 -11 245 -87 236 -147ZM275 -147C292 -95 309 -28 315 17L363 4C357 -38 339 -106 320 -158ZM363 -160C386 -119 408 -62 417 -26L464 -44C455 -80 432 -135 407 -176ZM555 -172C531 -109 493 -39 457 10C473 18 499 36 511 46C547 -6 588 -86 618 -155ZM777 -144C823 -88 874 -11 896 38L951 7C929 -41 876 -116 829 -171ZM802 -650V-548H714V-650ZM734 -278V-369H940V-428H561V-650H651V-494H867V-650H953V-711H867V-828H802V-711H714V-829H651V-711H561V-816H497V-711H428V-650H497V-369H664V-278H451V-215H664V77H734V-215H956V-278Z"/>
</svg>