<svg xmlns="http://www.w3.org/2000/svg" viewBox="0 -1000 1000 1000">
	<path fill="#000000" d="M815 -719V-590H218V-719ZM888 -522V-787H145V-497C145 -338 136 -117 36 37C55 45 87 64 101 76C204 -86 218 -329 218 -497V-522ZM371 -24V-272H568V-338H371V-489H301V-50C301 -13 275 2 258 9C269 28 283 64 287 82C308 68 340 56 575 -22C572 -37 568 -67 567 -86ZM724 3C689 3 683 -3 683 -37V-274H891V-340H683V-489H611V-37C611 47 632 71 716 71H854C926 71 946 35 955 -94C934 -99 905 -111 889 -122C885 -18 880 3 848 3Z"/>
</svg>