<svg xmlns="http://www.w3.org/2000/svg" viewBox="0 -1000 1000 1000">
	<path fill="#000000" d="M123 80C167 51 211 6 246 -28L185 -62C152 -30 105 14 60 41ZM596 -321C571 -308 541 -296 513 -286H258C282 -297 304 -308 325 -321ZM775 -196H540V-245H775ZM775 -106H540V-157H775ZM239 -157H470V-106H239ZM470 -196H239V-245H470ZM343 -403C291 -357 196 -313 73 -282C87 -270 105 -247 113 -231C132 -237 150 -243 168 -250V-65H848V-286H638C668 -301 697 -317 720 -335L679 -368L664 -365H388C397 -372 406 -380 413 -388ZM334 -34C353 0 374 45 383 73L449 53C440 24 417 -19 397 -51ZM535 -33C562 -1 591 42 603 70L666 46C654 18 622 -25 596 -54ZM741 -29C783 3 834 48 859 77L915 38C888 9 836 -35 795 -63ZM181 -462V-559H345L323 -546C337 -532 352 -514 366 -496ZM401 -754V-698H181V-754ZM181 -608V-659H401V-608ZM579 -638C586 -671 592 -709 597 -744H698C695 -705 690 -669 682 -638ZM799 -450C777 -450 773 -453 773 -471V-550H719C724 -561 729 -572 733 -584H929V-638H747C754 -670 759 -706 762 -744H919V-797H505V-744H537C529 -689 518 -627 509 -584H665C633 -514 576 -466 469 -434L477 -439C457 -473 421 -520 382 -559H463V-802H115V-498C115 -459 88 -442 71 -436C80 -423 92 -399 96 -384C115 -395 146 -402 398 -453C410 -437 420 -421 427 -407L469 -434C483 -421 500 -397 507 -382C616 -418 679 -470 715 -541V-471C715 -414 730 -399 793 -399H884C931 -399 948 -420 954 -507C938 -510 914 -518 902 -527C900 -458 896 -450 876 -450Z"/>
</svg>