<svg xmlns="http://www.w3.org/2000/svg" viewBox="0 -1000 1000 1000">
	<path fill="#000000" d="M299 -688C287 -653 270 -614 254 -585H149C167 -618 183 -654 195 -688ZM361 -422H277V-526H361ZM361 -261H277V-365H361ZM148 -365H227V-261H148ZM148 -526H227V-422H148ZM96 -499V-201H414V-585H320C343 -627 367 -677 385 -723L342 -751L330 -747H217C226 -774 233 -802 240 -827L174 -836C152 -742 108 -619 35 -526C52 -518 74 -500 86 -485ZM92 70C121 17 143 -73 158 -137L107 -156C94 -92 69 -5 38 48ZM186 -146C193 -89 197 -14 197 36L248 28C248 -21 243 -95 235 -152ZM272 -147C288 -94 306 -22 312 24L362 12C354 -33 336 -103 319 -157ZM355 -155C378 -104 405 -36 418 7L467 -11C454 -53 425 -120 402 -171ZM835 -713C816 -673 789 -638 758 -608C724 -641 676 -682 631 -713ZM733 -203H949V-263H733V-353H928V-413H621C630 -429 638 -445 645 -461L636 -463C765 -517 869 -604 919 -750L878 -767L866 -765H682C700 -785 715 -804 729 -824L663 -836C621 -772 539 -700 424 -649C437 -640 457 -621 467 -607C513 -630 553 -654 589 -681C633 -648 682 -606 714 -572C638 -518 540 -485 436 -468C449 -454 463 -431 469 -414C502 -421 534 -429 565 -438C539 -387 505 -338 467 -302C482 -295 510 -281 522 -271C544 -293 566 -322 586 -353H666V-263H446V-203H666V-31H555V-181H490V32H846V76H910V-181H846V-31H733ZM633 -600L455 -578L461 -530L636 -554Z"/>
</svg>