<svg xmlns="http://www.w3.org/2000/svg" viewBox="0 -1000 1000 1000">
	<path fill="#000000" d="M296 -688C282 -653 265 -614 250 -585H149C167 -618 182 -654 195 -688ZM368 -422H286V-526H368ZM368 -261H286V-365H368ZM154 -422V-526H233V-422ZM233 -365V-261H154V-365ZM99 -502V-201H425V-585H316C339 -627 363 -677 381 -723L338 -751L326 -747H216C225 -774 232 -802 239 -827L174 -836C152 -742 108 -619 35 -526C52 -518 74 -500 86 -485ZM78 75C116 20 133 -68 145 -142L92 -156C83 -85 63 -2 29 48ZM176 -147C186 -88 190 -14 187 35L235 29C237 -20 232 -95 220 -153ZM258 -148C279 -94 295 -23 299 23L345 13C340 -33 322 -104 301 -158ZM346 -156C372 -105 399 -36 409 8L454 -9C444 -52 416 -120 388 -171ZM516 -523C551 -507 591 -483 613 -467L641 -501C618 -520 572 -543 536 -559L516 -538V-595H661V-338H724V-595H874V-535L851 -564C825 -546 777 -516 745 -501L770 -470C801 -481 842 -500 874 -522V-508H937V-649H724V-731H921V-791H470V-731H661V-649H455V-508H516ZM745 -427C791 -407 851 -376 882 -357L907 -396C877 -415 817 -443 772 -462ZM503 -361C549 -379 595 -400 646 -423L639 -461C579 -440 523 -420 480 -408ZM956 -161H893V-301H514V-242H827V-161H459V-103H827V-19H506V41H853V40H893V-103H956Z"/>
</svg>