<svg xmlns="http://www.w3.org/2000/svg" viewBox="0 -1000 1000 1000">
	<path fill="#000000" d="M250 -704H103V-660H460V-704H317V-749H488V-793H317V-838H250V-793H78V-749H250ZM598 -335C585 -321 569 -309 555 -298H269C288 -310 308 -322 326 -335ZM769 -205H540V-256H769ZM769 -111H540V-164H769ZM258 -164H471V-111H258ZM258 -256H471V-205H258ZM188 -69H842V-298H634C655 -316 677 -335 694 -355L657 -386L644 -382H385C394 -390 403 -398 411 -406L391 -410C405 -412 415 -416 425 -423C441 -437 450 -463 459 -514C460 -522 461 -537 461 -537H250C254 -547 257 -556 260 -567H496V-612H337C330 -627 319 -643 310 -657L249 -645C254 -636 260 -624 266 -612H56V-567H194C173 -493 123 -440 51 -407C64 -397 87 -373 96 -362C154 -393 201 -436 231 -494H393C388 -472 383 -460 376 -454C370 -449 363 -448 349 -448C336 -448 299 -449 260 -452C267 -440 272 -423 273 -411C291 -410 311 -409 326 -408C268 -356 169 -301 45 -261C59 -250 76 -227 84 -212C121 -226 156 -240 188 -255ZM112 76C172 52 221 14 257 -24L193 -56C161 -24 109 14 49 33ZM339 -38C351 -4 360 42 361 71L430 58C429 30 418 -15 404 -49ZM522 -33C549 -2 579 43 594 71L660 47C645 19 615 -21 586 -52ZM724 -23C779 2 849 47 884 79L946 38C910 8 841 -34 785 -58ZM797 -684C777 -633 746 -590 707 -556C668 -593 638 -637 615 -684ZM937 -684V-742H650C666 -767 678 -794 688 -821L624 -836C595 -756 538 -685 471 -638C486 -628 512 -606 522 -594C540 -608 558 -623 573 -641C597 -596 624 -556 658 -520C607 -488 545 -464 477 -447C488 -435 507 -405 513 -391C584 -412 649 -440 704 -476C764 -425 836 -386 917 -361C928 -379 947 -405 961 -419C883 -438 813 -471 755 -515C804 -560 843 -615 867 -684Z"/>
</svg>