<svg xmlns="http://www.w3.org/2000/svg" viewBox="0 -1000 1000 1000">
	<path fill="#000000" d="M568 -733V-654H492V-733ZM639 -513H492V-601H639ZM568 -376H492V-461H568ZM884 -728C873 -651 854 -585 830 -528C804 -588 785 -656 771 -728ZM437 -321H699V-350C712 -340 727 -321 735 -307C770 -334 801 -366 829 -405C853 -365 883 -331 915 -304C924 -320 943 -341 956 -351C920 -378 889 -416 862 -462C904 -543 933 -649 946 -780L911 -789L900 -787H708V-728H718C736 -632 761 -541 798 -464C770 -417 737 -381 699 -354V-376H620V-461H693V-654H620V-733H690V-787H437ZM285 -689C273 -655 258 -616 243 -588H145C161 -621 176 -655 187 -689ZM339 -424H267V-529H339ZM339 -262H267V-368H339ZM149 -424V-529H217V-424ZM217 -368V-262H149V-368ZM92 -498V-203H398V-588H306C328 -630 350 -680 367 -725L324 -753L313 -749H208C217 -777 224 -804 231 -830L165 -839C144 -746 103 -624 36 -531C53 -524 75 -504 87 -491ZM91 69C116 14 134 -77 146 -140L96 -157C85 -95 64 -6 38 48ZM175 -142C182 -83 183 -9 177 40L227 34C232 -14 231 -88 222 -147ZM254 -150C270 -96 282 -26 284 20L331 11C329 -34 316 -104 299 -158ZM335 -157C357 -110 379 -48 388 -7L435 -25C427 -64 403 -125 379 -171ZM724 -132H910V-193H724V-292H654V-193H474V-132H654V-7H417V54H956V-7H724Z"/>
</svg>