<svg xmlns="http://www.w3.org/2000/svg" viewBox="0 -1000 1000 1000">
	<path fill="#000000" d="M287 -692C272 -655 254 -614 237 -584H139C158 -619 175 -656 188 -692ZM349 -421H272V-524H349ZM349 -261H272V-364H349ZM145 -421V-524H221V-421ZM221 -364V-261H145V-364ZM89 -502V-200H406V-584H300C325 -627 350 -680 369 -728L328 -755L316 -752H209C218 -777 225 -803 232 -827L170 -836C147 -742 103 -619 30 -526C45 -519 67 -500 78 -488ZM90 70C116 16 136 -75 149 -138L100 -155C89 -92 65 -4 38 49ZM180 -139C186 -81 190 -4 189 47L239 41C239 -10 235 -85 228 -145ZM262 -143C278 -91 294 -25 299 19L346 8C341 -34 324 -101 307 -152ZM339 -155C356 -120 373 -72 378 -40L425 -58C418 -87 400 -134 382 -170ZM525 -592H868C858 -566 846 -541 836 -521L889 -505C910 -540 931 -593 950 -643L907 -655L896 -652H706V-714H901V-770H706V-834H639V-652H463V-459C463 -319 457 -115 401 36C415 43 442 63 454 74C515 -85 525 -310 525 -458ZM855 -352C881 -352 910 -353 924 -357C922 -371 919 -393 918 -410C902 -406 872 -405 853 -405H720C699 -405 695 -413 695 -438V-467L821 -479L818 -533L695 -522V-586H633V-517L546 -509L549 -454L633 -462V-440C633 -376 649 -352 717 -352ZM810 -9V-83H915V-281H868V-134H810V-323H757V-9H704V-322H652V-134H595V-281H548V-83H652V-9H499V50H955V-9Z"/>
</svg>