<svg xmlns="http://www.w3.org/2000/svg" viewBox="0 -1000 1000 1000">
	<path fill="#000000" d="M284 -692C271 -654 252 -612 235 -581H142C159 -617 174 -655 185 -692ZM337 -419H267V-519H337ZM337 -259H267V-360H337ZM139 -360H215V-259H139ZM139 -519H215V-419H139ZM86 -197H391V-581H298C323 -625 349 -679 368 -728L326 -755L314 -752H204C211 -778 218 -804 223 -828L159 -836C140 -743 103 -620 40 -526C54 -519 73 -504 86 -491ZM93 74C112 18 132 -73 145 -132L94 -152C83 -92 61 -4 40 51ZM174 -139C184 -75 190 6 186 59L237 52C239 -1 233 -82 221 -145ZM250 -147C270 -92 284 -20 288 27L337 17C332 -29 316 -102 296 -156ZM326 -159C348 -114 368 -53 376 -14L421 -30C414 -69 391 -127 367 -172ZM891 -256L878 -254H659V-198H854C840 -160 821 -125 799 -95C761 -127 722 -159 688 -186L646 -151C682 -122 722 -88 762 -54C721 -15 673 13 620 30C632 42 646 65 654 79C711 58 762 27 806 -15C843 19 876 50 900 74L943 32C918 8 882 -24 843 -58C881 -107 910 -169 926 -245ZM910 -712C890 -691 855 -663 826 -642C814 -659 804 -678 794 -697C821 -717 855 -741 884 -771L845 -810C827 -791 799 -764 773 -743C762 -773 752 -804 745 -837L689 -828C717 -698 769 -591 851 -520H682V-425C682 -387 675 -346 631 -313V-520H514C589 -580 647 -670 675 -791L640 -805L627 -803H450V-746H601C589 -715 575 -685 558 -660C535 -678 502 -701 477 -717L443 -678C468 -660 501 -635 524 -615C489 -575 448 -544 401 -523C411 -512 425 -484 430 -468C442 -473 453 -479 463 -486V-463H574V-366H454C447 -298 434 -211 423 -154H572C564 -46 557 -3 546 10C540 17 532 18 521 18C510 18 480 17 449 14C458 30 464 53 465 70C496 72 529 72 546 71C568 68 582 63 596 48C615 27 624 -31 633 -179C634 -188 635 -206 635 -206H488C493 -238 498 -274 503 -309H626L618 -304C629 -295 648 -272 655 -260C724 -302 739 -368 739 -424V-464H816V-366C816 -313 826 -293 875 -293H911C925 -293 940 -294 948 -297C947 -310 945 -329 944 -342C935 -340 919 -339 910 -339H881C871 -339 870 -344 870 -365V-504C889 -491 908 -478 930 -468C939 -485 958 -509 972 -522C927 -541 888 -569 855 -604C885 -623 917 -645 947 -672Z"/>
</svg>