<svg xmlns="http://www.w3.org/2000/svg" viewBox="0 -1000 1000 1000">
	<path fill="#000000" d="M860 -645H769V-747H860ZM721 -645H633V-747H721ZM585 -645H501V-747H585ZM919 -801H444V-591H919ZM951 -541H407V-480H951ZM276 -692C265 -656 250 -616 236 -586H141C157 -620 171 -657 182 -692ZM327 -422H260V-525H327ZM327 -261H260V-364H327ZM149 -422V-525H213V-422ZM213 -364V-261H149V-364ZM96 -499V-200H381V-586H290C310 -629 332 -681 348 -727L312 -755L301 -752H200C207 -777 214 -803 219 -827L164 -836C145 -742 107 -619 45 -526C58 -518 77 -499 87 -486ZM97 75C122 20 140 -71 153 -135L105 -156C94 -91 73 -4 49 50ZM179 -137C187 -79 190 -6 187 41L235 34C237 -14 233 -87 224 -144ZM252 -145C269 -92 283 -24 285 21L330 8C327 -36 312 -103 295 -156ZM326 -153C347 -111 367 -53 376 -16L418 -37C409 -73 386 -129 364 -171ZM527 -370H826V-276H527ZM897 -206C868 -182 822 -148 781 -123C760 -152 742 -185 727 -220H890V-425H466V-220H600C545 -172 466 -130 395 -108C409 -96 427 -73 436 -57C460 -67 487 -79 512 -94V-44C512 -4 493 11 481 18C489 31 502 57 505 73C521 63 546 54 721 5C720 -8 719 -34 721 -50L567 -11V-128C606 -154 641 -185 670 -217C717 -83 803 22 928 67C935 49 954 23 969 10C908 -8 857 -41 815 -85C856 -106 903 -135 943 -162Z"/>
</svg>