<svg xmlns="http://www.w3.org/2000/svg" viewBox="0 -1000 1000 1000">
	<path fill="#000000" d="M949 -336C944 -378 928 -440 914 -489L873 -477C878 -455 884 -432 890 -408L826 -400C871 -471 913 -563 945 -651L897 -673C890 -650 882 -625 873 -602L825 -597C848 -657 873 -734 886 -807L836 -826C827 -742 795 -649 786 -625C777 -602 769 -585 757 -582C764 -569 772 -544 775 -532C783 -537 800 -542 852 -550C829 -498 808 -455 798 -439C782 -412 770 -392 756 -389C762 -376 770 -350 773 -339C783 -345 804 -350 899 -367C902 -350 904 -335 906 -323ZM706 -566H627V-674H706ZM706 -406H627V-515H706ZM753 -727H673C683 -757 694 -793 704 -826L641 -838C638 -806 629 -762 620 -727H580V-353H753ZM451 -402C467 -428 483 -456 498 -487C505 -463 512 -436 518 -411ZM575 -335C569 -378 553 -445 537 -497L499 -488C525 -539 549 -595 568 -649L520 -672C514 -650 507 -626 498 -604L447 -597C473 -656 500 -732 515 -803L462 -824C452 -741 420 -651 410 -627C400 -605 391 -588 380 -586C386 -571 395 -544 398 -532C408 -538 425 -543 478 -552C456 -499 433 -455 425 -440C409 -412 397 -393 383 -390C389 -377 398 -350 400 -340C411 -346 432 -351 527 -369C530 -352 533 -336 535 -322ZM257 -692C242 -654 224 -612 207 -581H132C147 -617 159 -655 168 -692ZM313 -415H246V-519H313ZM313 -259H246V-364H313ZM134 -415V-519H202V-415ZM202 -364V-259H134V-364ZM86 -197H362V-581H267C292 -626 319 -680 337 -729L297 -755L286 -752H183C189 -778 195 -804 199 -828L139 -836C125 -744 95 -620 40 -526C55 -519 75 -502 86 -491ZM87 71C108 15 128 -75 141 -134L95 -152C84 -93 61 -4 38 51ZM162 -139C173 -75 178 5 174 57L222 51C224 -1 218 -82 206 -144ZM232 -146C250 -93 266 -25 269 21L314 10C310 -34 293 -102 274 -154ZM299 -158C319 -116 338 -61 347 -25L389 -40C381 -75 359 -129 338 -171ZM560 -182C521 -113 445 -43 372 -10C386 2 406 24 417 40C492 -1 571 -82 614 -163ZM939 -213V-276H702V-339H638V-276H406V-213H638V74H702V-213ZM732 -153C797 -94 876 -13 916 36L963 -3C923 -51 842 -130 777 -187Z"/>
</svg>