<svg xmlns="http://www.w3.org/2000/svg" viewBox="0 -1000 1000 1000">
	<path fill="#000000" d="M738 -713V-669H248V-713ZM248 -581V-626H738V-581ZM910 -398H248V-442H933V-492H248V-534H810V-759H474C485 -780 496 -803 507 -828L426 -837C420 -815 409 -785 398 -759H176V-349H834C824 -272 814 -238 802 -227C795 -220 789 -219 779 -219C769 -219 751 -219 726 -222C735 -205 741 -179 741 -162C769 -160 797 -161 812 -163C830 -164 844 -170 857 -183C878 -204 892 -254 907 -370ZM621 -319C648 -294 678 -259 691 -234L741 -263C727 -287 696 -322 668 -344ZM561 -246C551 -274 525 -313 502 -341L447 -320C471 -290 495 -250 504 -224ZM377 -239C371 -267 351 -308 330 -338L273 -321C292 -289 310 -247 316 -220ZM130 -341C117 -284 88 -230 41 -201L93 -163C146 -199 173 -261 187 -322ZM731 -7C696 -7 689 -10 689 -34V-217H245V-139C245 -79 212 -22 41 18C54 30 74 61 82 77C269 28 314 -53 314 -138V-158H619V-33C619 38 641 57 722 57H855C923 57 944 29 951 -84C932 -89 903 -100 887 -111C885 -19 879 -7 848 -7Z"/>
</svg>