<svg xmlns="http://www.w3.org/2000/svg" viewBox="0 -1000 1000 1000">
	<path fill="#000000" d="M434 -73C410 -108 375 -149 334 -192C378 -268 412 -357 434 -460L391 -478L378 -475H285V-620H463V-688H285V-836H218V-688H49V-620H218V-475H63V-409H353C336 -347 313 -291 285 -241C238 -287 187 -333 138 -372L87 -333C141 -289 198 -236 249 -182C191 -99 118 -35 37 8C52 18 78 45 87 61C165 16 237 -48 296 -132C330 -93 359 -57 380 -26ZM475 50C518 2 534 -81 544 -156L488 -171C480 -99 462 -24 423 20ZM576 -151C588 -99 596 -32 596 12L644 5C644 -39 635 -106 622 -158ZM665 -161C684 -118 703 -60 710 -23L755 -35C748 -72 727 -129 707 -172ZM849 -91C837 -120 811 -163 785 -195L747 -179C770 -147 796 -103 808 -73ZM817 -690V-624H563V-690ZM563 -508V-575H817V-508ZM958 -340V-395H563V-454H884V-744H701C712 -768 724 -795 735 -823L657 -837C652 -811 641 -775 630 -744H495V-224H870C861 -66 848 -4 832 14C825 21 817 23 803 23C788 23 752 22 712 18C720 34 726 58 727 74C769 77 808 77 829 75C854 73 870 68 885 52C910 24 922 -51 935 -252C936 -261 937 -280 937 -280H563V-340Z"/>
</svg>