<svg xmlns="http://www.w3.org/2000/svg" viewBox="0 -1000 1000 1000">
	<path fill="#000000" d="M238 -678C225 -715 193 -778 167 -825L107 -804C132 -755 162 -690 176 -651ZM226 -386V-566H318V-386ZM468 -317V-386H387V-566H463V-634H346C371 -683 400 -745 424 -798L354 -825C338 -769 305 -689 279 -634H65V-566H157V-386H46V-317H156C152 -206 132 -77 50 21C66 29 93 51 103 65C194 -44 220 -194 225 -317H318V70H387V-317ZM476 46C505 -8 529 -95 543 -157L490 -178C477 -116 451 -32 420 19ZM576 -150C585 -98 594 -32 596 12L643 5C641 -39 631 -105 621 -157ZM664 -160C682 -116 701 -59 708 -22L752 -35C744 -71 724 -127 706 -170ZM846 -90C834 -117 807 -160 783 -194L745 -179C767 -146 793 -100 805 -72ZM814 -690V-624H566V-690ZM566 -507V-575H814V-507ZM953 -340V-395H566V-453H880V-744H700C711 -769 722 -796 734 -823L658 -837C652 -811 642 -774 631 -744H500V-223H872C861 -65 850 -3 833 14C826 22 817 24 802 24C787 24 747 23 704 19C712 34 718 57 719 75C763 78 806 78 829 76C853 74 870 69 885 51C909 24 922 -51 935 -251C936 -260 937 -280 937 -280H566V-340Z"/>
</svg>