<svg xmlns="http://www.w3.org/2000/svg" viewBox="0 -1000 1000 1000">
	<path fill="#000000" d="M472 -694H256L312 -726C298 -758 270 -807 245 -843L189 -816C213 -777 241 -726 254 -694H53V-627H472ZM173 -601C144 -532 97 -456 52 -406C65 -394 89 -368 99 -355C144 -412 197 -500 230 -579ZM330 -423C319 -381 305 -340 288 -301C261 -334 234 -367 208 -395L162 -357C193 -321 226 -281 257 -240C203 -144 129 -62 38 -5C51 7 71 34 79 50C169 -9 243 -89 298 -183C331 -138 359 -94 378 -60L427 -105C405 -144 370 -194 332 -245C355 -294 375 -348 391 -404ZM322 -570C362 -511 410 -430 433 -382L484 -421C460 -468 409 -545 370 -602ZM487 49C522 -1 539 -83 548 -155L494 -170C486 -102 469 -25 436 20ZM589 -157C600 -104 607 -38 607 6L654 -1C654 -45 646 -112 633 -163ZM677 -166C695 -123 712 -66 718 -29L762 -41C755 -78 738 -134 718 -177ZM848 -90C839 -119 818 -165 797 -200L759 -185C778 -151 799 -103 806 -74ZM820 -690V-624H582V-690ZM582 -507V-575H820V-507ZM959 -340V-395H582V-453H886V-744H698C710 -769 725 -796 738 -823L663 -837C655 -811 642 -774 628 -744H515V-223H869C860 -64 850 -3 835 14C828 22 820 24 805 24C792 24 755 23 715 19C725 35 730 58 732 75C771 78 811 78 832 76C856 74 872 69 886 52C909 25 920 -50 932 -251C933 -260 933 -280 933 -280H582V-340Z"/>
</svg>