<svg xmlns="http://www.w3.org/2000/svg" viewBox="0 -1000 1000 1000">
	<path fill="#000000" d="M403 -819C324 -781 180 -751 57 -732C66 -717 76 -691 79 -674C205 -691 355 -720 451 -763ZM404 -535L391 -530H307C298 -568 279 -618 261 -658L196 -642C210 -607 225 -565 234 -530H60V-460H352C304 -367 232 -259 159 -184C121 -182 81 -119 36 -24L92 43C112 -36 142 -119 159 -119C182 -119 210 -79 241 -46C291 7 328 29 378 29C378 29 392 29 409 27C410 8 418 -30 425 -48C411 -44 380 -44 377 -44C325 -44 297 -68 261 -106C248 -121 234 -138 220 -152C310 -246 401 -382 455 -504ZM488 39C512 -13 535 -99 550 -157L494 -178C480 -119 454 -34 428 18ZM578 -151C589 -99 599 -31 599 12L650 4C648 -39 637 -106 625 -158ZM669 -160C687 -117 706 -60 712 -23L758 -35C751 -71 733 -128 712 -170ZM849 -82C839 -112 816 -159 792 -193L752 -179C774 -144 797 -96 806 -65ZM805 -690V-624H564V-690ZM564 -507V-575H805V-507ZM959 -340V-395H564V-453H873V-744H678C690 -769 704 -797 717 -825L638 -839C633 -812 620 -774 608 -744H495V-223H869C858 -66 846 -3 830 14C822 22 814 24 800 24C785 24 750 23 711 19C720 35 726 58 727 76C766 78 805 78 826 76C850 75 867 69 883 51C907 24 921 -50 934 -251C935 -260 936 -280 936 -280H564V-340Z"/>
</svg>