<svg xmlns="http://www.w3.org/2000/svg" viewBox="0 -1000 1000 1000">
	<path fill="#000000" d="M215 -590C236 -545 262 -485 274 -446L324 -469C312 -506 285 -564 262 -609ZM193 -653H356V-418C299 -411 244 -404 193 -399ZM471 -375L468 -433L421 -427V-713H281C295 -746 310 -787 323 -826L250 -840C243 -804 229 -752 218 -713H127V-391L53 -382L61 -318L127 -328C126 -208 118 -61 53 43C69 50 99 69 110 81C181 -32 193 -207 193 -337L356 -359V-16C356 -3 351 1 339 1C328 2 290 2 247 1C256 18 266 46 269 64C329 64 366 63 389 51C413 40 421 21 421 -15V-368ZM333 -154C319 -194 286 -257 259 -305L213 -285C238 -236 270 -172 284 -131ZM500 43C519 -11 532 -100 541 -160L490 -178C483 -118 466 -33 447 19ZM577 -151C589 -99 598 -31 598 12L646 5C645 -39 637 -105 623 -157ZM666 -160C686 -117 706 -59 712 -22L757 -35C749 -71 730 -128 708 -171ZM845 -79C837 -109 814 -157 791 -193L751 -179C773 -143 795 -95 804 -63ZM809 -690V-624H569V-690ZM569 -507V-575H809V-507ZM952 -340V-395H569V-453H877V-744H677C690 -769 704 -797 716 -825L638 -839C632 -812 620 -774 608 -744H500V-223H868C858 -70 848 -11 833 5C826 13 818 14 804 14C790 14 754 14 715 10C724 26 730 49 731 66C770 69 809 69 830 67C855 65 871 59 886 42C910 17 921 -56 933 -251C934 -260 934 -280 934 -280H569V-340Z"/>
</svg>