<svg xmlns="http://www.w3.org/2000/svg" viewBox="0 -1000 1000 1000">
	<path fill="#000000" d="M320 -610H155V-736H320ZM320 -424H155V-551H320ZM320 -235H155V-365H320ZM388 -798H88V-175H388ZM141 -153C121 -81 83 -11 36 36C53 45 83 66 95 78C142 25 185 -55 211 -137ZM270 -128C299 -84 331 -25 345 14L407 -17C392 -54 359 -111 328 -153ZM450 56C495 5 513 -82 523 -163L467 -179C459 -103 438 -22 397 25ZM562 -151C573 -99 582 -32 582 12L630 5C630 -39 621 -106 608 -158ZM653 -161C672 -118 691 -60 698 -23L742 -35C735 -72 716 -129 695 -172ZM838 -91C826 -120 800 -163 774 -195L736 -179C760 -147 785 -103 797 -73ZM795 -690V-625H536V-690ZM536 -508V-574H795V-508ZM954 -339V-397H536V-454H864V-744H676C688 -767 701 -795 714 -823L633 -837C628 -811 616 -774 604 -744H467V-224H864C854 -69 841 -9 824 9C817 16 809 18 792 18C776 18 734 17 690 14C700 30 706 56 708 73C754 77 799 77 822 75C848 73 866 67 881 49C908 21 919 -54 932 -252C934 -262 934 -281 934 -281H536V-339Z"/>
</svg>