<svg xmlns="http://www.w3.org/2000/svg" viewBox="0 -1000 1000 1000">
	<path fill="#000000" d="M724 -586V-483C724 -420 738 -397 802 -397H897C917 -397 940 -397 953 -401C951 -416 948 -440 947 -457C934 -453 910 -452 895 -452H806C789 -452 787 -459 787 -482V-590L863 -596C878 -576 891 -558 902 -543L957 -576C919 -628 845 -716 788 -779L735 -752C761 -720 792 -685 820 -650L573 -636C627 -687 683 -753 732 -820L660 -844C613 -765 541 -685 518 -666C498 -645 479 -630 462 -628C470 -610 481 -575 485 -561C499 -566 517 -570 596 -576C581 -495 544 -442 438 -410C451 -399 470 -374 477 -359C602 -402 645 -472 661 -581ZM87 47C107 -7 124 -93 134 -155L87 -171C78 -112 58 -25 37 27ZM162 -160C168 -108 173 -41 173 3L219 -4C219 -47 213 -114 206 -165ZM232 -170C244 -123 257 -65 262 -25L305 -36C300 -74 286 -132 274 -177ZM379 -82C371 -114 353 -163 336 -200L298 -188C313 -150 330 -101 337 -69ZM362 -692V-626H163V-692ZM163 -509V-576H362V-509ZM163 -281V-342H443V-397H163V-455H424V-746H270C282 -771 293 -799 304 -826L233 -839C227 -814 216 -776 205 -746H96V-224H389C382 -65 374 -5 361 10C354 19 346 20 332 20C318 21 284 20 245 16C255 32 261 55 263 73C301 75 339 75 360 73C384 71 400 66 415 48C436 23 445 -51 453 -252C454 -262 454 -281 454 -281ZM797 -264C772 -209 737 -162 696 -122C662 -152 635 -185 612 -218C623 -233 634 -248 643 -264ZM840 -327L828 -324H675C687 -348 697 -375 705 -401L642 -414C626 -366 604 -320 577 -280C568 -297 560 -316 554 -334L504 -303C512 -278 524 -252 537 -228C514 -202 490 -179 462 -160C477 -149 502 -126 511 -113C533 -130 553 -148 572 -169C594 -139 618 -109 647 -81C584 -34 510 0 434 20C448 34 464 60 472 77C553 52 631 15 698 -37C756 10 830 50 918 75C926 57 946 29 959 15C875 -5 806 -39 748 -80C808 -140 856 -215 885 -308Z"/>
</svg>