<svg xmlns="http://www.w3.org/2000/svg" viewBox="0 -1000 1000 1000">
	<path fill="#000000" d="M494 -708H333C324 -744 301 -795 276 -833L215 -811C232 -780 250 -741 261 -708H63V-642H494ZM137 -279C119 -200 92 -119 54 -64C69 -56 93 -38 105 -29C143 -87 176 -178 195 -265ZM177 -515H386V-390H177ZM455 -330V-575H110V-330H248V-28C248 -18 245 -16 233 -15C223 -14 189 -14 148 -15C156 4 165 31 167 51C223 51 259 50 282 39C306 28 312 8 312 -28V-330ZM352 -265C382 -205 414 -125 425 -72L479 -96C467 -148 434 -226 403 -287ZM529 38C548 -15 568 -100 581 -155L529 -178C518 -123 495 -39 474 13ZM608 -151C619 -99 627 -32 626 12L674 4C674 -39 665 -107 653 -158ZM689 -161C707 -118 726 -60 732 -23L775 -37C768 -73 750 -129 730 -172ZM859 -82C848 -112 824 -160 799 -194L762 -179C785 -143 809 -95 819 -64ZM823 -690V-624H599V-690ZM599 -507V-575H823V-507ZM957 -340V-395H599V-453H888V-744H706C717 -769 730 -797 742 -825L669 -839C663 -812 652 -774 640 -744H534V-223H873C863 -65 853 -3 838 14C831 22 823 24 810 24C797 24 763 23 727 19C735 35 742 59 742 76C779 79 815 79 835 77C858 76 874 69 889 52C912 25 924 -49 935 -251C936 -260 936 -280 936 -280H599V-340Z"/>
</svg>