<svg xmlns="http://www.w3.org/2000/svg" viewBox="0 -1000 1000 1000">
	<path fill="#000000" d="M397 -45H240V-200H397ZM164 -425C165 -459 166 -493 166 -522H289V-425ZM409 -704V-585H166V-704ZM353 -361H491V-425H353V-522H474V-767H101V-541C101 -393 95 -175 33 -16C45 -8 75 20 83 35C131 -79 152 -229 160 -361H289V-265H180V61H240V15H397V56H459V-265H353ZM538 38C553 -17 570 -102 581 -157L529 -178C520 -123 500 -40 483 11ZM607 -151C619 -101 627 -36 626 6L673 -1C673 -43 664 -108 651 -158ZM688 -161C705 -118 723 -63 729 -26L773 -39C765 -73 748 -129 728 -171ZM860 -85C850 -115 828 -160 805 -193L767 -179C788 -145 810 -99 818 -69ZM827 -690V-624H594V-690ZM594 -507V-575H827V-507ZM957 -340V-395H594V-453H894V-744H703C714 -769 727 -797 740 -825L664 -839C658 -812 646 -774 633 -744H527V-223H873C862 -66 850 -3 834 14C826 22 818 24 804 24C790 24 754 23 715 19C724 35 731 58 732 76C770 78 809 78 829 76C853 75 870 69 886 51C910 24 923 -50 937 -251C938 -260 938 -280 938 -280H594V-340Z"/>
</svg>