<svg xmlns="http://www.w3.org/2000/svg" viewBox="0 -1000 1000 1000">
	<path fill="#000000" d="M311 -644C342 -622 373 -597 402 -570C369 -520 327 -481 280 -454C293 -444 315 -421 325 -407C371 -436 413 -475 447 -528C475 -499 499 -472 515 -448L556 -497C538 -523 511 -553 479 -583C507 -639 529 -707 543 -786L506 -799L495 -798H316V-735H471C462 -694 449 -656 432 -624C405 -647 376 -668 348 -687ZM300 -500C285 -524 263 -550 236 -578C265 -636 287 -705 301 -785L265 -799L254 -798H69V-735H231C221 -694 208 -655 192 -622C166 -646 139 -668 114 -688L75 -648C103 -624 134 -597 162 -568C132 -520 93 -482 51 -455C65 -445 85 -423 95 -410C136 -437 174 -475 205 -523C227 -498 245 -475 258 -454ZM295 -47C280 -73 258 -104 231 -135C258 -197 279 -271 291 -358L255 -371L244 -369H62V-306H224C214 -261 202 -220 187 -183C162 -209 134 -235 107 -258L64 -219C96 -191 131 -158 161 -124C129 -66 89 -21 43 11C57 19 79 43 88 57C132 25 170 -19 202 -75C222 -48 238 -24 250 -2ZM535 -61C520 -86 498 -114 472 -143C499 -204 521 -275 535 -358L497 -371L487 -369H305V-306H465C455 -263 443 -225 428 -188C404 -212 379 -233 354 -252L310 -216C341 -191 372 -163 400 -133C364 -71 319 -23 267 10C280 19 302 43 311 58C361 23 405 -24 442 -86C461 -62 477 -39 488 -20ZM568 39C589 -13 606 -97 617 -157L568 -178C558 -118 538 -36 516 14ZM639 -150C650 -98 658 -31 657 12L702 6C702 -38 694 -106 681 -157ZM836 -690V-624H637V-690ZM637 -507V-575H836V-507ZM952 -340V-395H637V-453H897V-744H738C750 -769 761 -798 773 -826L704 -839C698 -812 687 -774 675 -744H575V-223H888C885 -169 881 -127 877 -94C866 -124 847 -164 827 -197L791 -181C812 -146 833 -98 842 -65L876 -81C869 -29 863 -4 854 6C847 15 839 17 826 16C813 16 780 16 745 13C753 29 759 52 760 70C795 72 830 72 850 70C872 68 887 62 901 45C923 19 935 -55 946 -251C947 -260 948 -280 948 -280H637V-340ZM800 -36C793 -72 774 -129 756 -171L716 -160C734 -117 752 -59 759 -22Z"/>
</svg>