<svg xmlns="http://www.w3.org/2000/svg" viewBox="0 -1000 1000 1000">
	<path fill="#000000" d="M147 -187C212 -235 250 -291 272 -349H291V-187ZM144 -410V-517H243C242 -482 238 -445 229 -410ZM144 -681H244V-575H144ZM405 -575H302V-681H405ZM405 -410H290C297 -445 300 -482 301 -517H405ZM479 -122V-187H359V-349H467V-742H282C293 -768 304 -799 315 -828L235 -837C230 -811 222 -773 213 -742H83V-349H207C184 -303 149 -259 93 -221C104 -213 118 -200 128 -187H43V-122H291V76H359V-122ZM492 50C533 0 549 -86 561 -160L505 -176C496 -105 477 -26 440 21ZM588 -151C598 -98 605 -31 604 12L652 6C652 -38 645 -105 633 -157ZM676 -160C694 -116 711 -59 717 -22L761 -34C755 -70 738 -127 718 -170ZM854 -90C843 -118 818 -161 794 -194L756 -179C779 -147 803 -101 813 -72ZM826 -690V-624H587V-690ZM587 -507V-575H826V-507ZM958 -340V-395H587V-453H893V-744H719C730 -769 742 -796 754 -823L675 -837C669 -811 659 -774 648 -744H521V-223H877C868 -62 858 -1 843 15C836 24 828 25 813 25C800 25 763 24 723 21C732 36 738 59 739 76C779 78 819 78 840 77C864 75 881 69 895 52C917 26 929 -49 940 -251C941 -261 941 -280 941 -280H587V-340Z"/>
</svg>