<svg xmlns="http://www.w3.org/2000/svg" viewBox="0 -1000 1000 1000">
	<path fill="#000000" d="M821 -699C807 -735 777 -792 752 -836L690 -811C714 -767 744 -707 757 -669ZM80 40C103 -7 116 -86 124 -150L78 -163C71 -104 56 -27 33 18ZM150 -155C162 -102 170 -36 169 8L215 1C215 -42 206 -110 193 -161ZM224 -163C243 -123 261 -70 268 -36L309 -48C302 -82 283 -135 263 -174ZM386 -87C377 -115 355 -159 333 -191L298 -178C319 -145 339 -101 348 -72ZM357 -694V-629H155V-694ZM155 -512V-578H357V-512ZM155 -457H422V-749H265C278 -773 289 -799 302 -825L227 -839C221 -814 208 -778 197 -749H90V-227H401C392 -72 383 -11 369 4C362 12 354 14 341 14C328 14 297 14 263 10C271 26 277 49 278 66C313 68 349 69 368 66C391 65 406 59 420 42C442 17 452 -58 462 -257C463 -267 463 -285 463 -285H155V-344H464V-401H155ZM589 -199H730V-64H589ZM730 -463H589V-591H730ZM730 -267H589V-395H730ZM958 -64H796V-199H922V-267H796V-395H922V-463H796V-591H939V-657H596C616 -709 634 -764 649 -818L584 -833C551 -703 496 -571 430 -485C444 -470 466 -439 475 -425C492 -447 507 -472 523 -499V76H589V5H958Z"/>
</svg>