<svg xmlns="http://www.w3.org/2000/svg" viewBox="0 -1000 1000 1000">
	<path fill="#000000" d="M373 -99V-319H468V-770H301V-707H406V-581H298V-520H406V-381H170V-521H262V-582H170V-720C215 -741 261 -768 299 -794L249 -844C217 -813 157 -776 106 -750V-319H175C168 -163 146 -49 36 17C51 28 68 51 76 67C200 -9 229 -141 238 -319H314V-107C314 -70 297 -55 283 -49C293 -32 305 -1 310 17L324 4C343 -10 384 -35 490 -95C484 -108 477 -134 473 -152ZM503 48C542 -2 556 -88 565 -164L513 -178C506 -106 490 -27 455 19ZM595 -151C606 -99 612 -31 611 12L659 6C660 -38 652 -106 641 -158ZM682 -161C701 -116 717 -60 722 -22L767 -34C760 -70 743 -127 724 -170ZM860 -90C850 -118 824 -162 800 -194L762 -179C785 -147 808 -102 819 -72ZM839 -695V-629H587V-695ZM587 -510V-579H839V-510ZM958 -341V-396H587V-455H905V-749H721C732 -772 743 -798 754 -823L675 -837C670 -812 661 -778 650 -749H521V-223H884C875 -62 864 -1 849 15C841 24 833 25 818 25C805 25 768 24 728 21C737 36 743 59 744 76C785 78 824 78 846 77C870 75 886 69 900 52C923 26 935 -49 947 -251C948 -261 948 -280 948 -280H587V-341Z"/>
</svg>