<svg xmlns="http://www.w3.org/2000/svg" viewBox="0 -1000 1000 1000">
	<path fill="#000000" d="M435 -828C348 -800 189 -781 58 -770C66 -754 74 -730 76 -713C211 -721 378 -741 482 -774ZM322 -591C314 -622 295 -676 279 -715L223 -697C239 -656 257 -602 264 -569ZM180 -588C170 -617 147 -667 125 -702L71 -680C92 -643 115 -593 124 -562ZM218 -215H371C357 -180 339 -148 318 -119C282 -145 245 -171 212 -192ZM412 -278L400 -275H230C234 -299 238 -323 241 -348H493V-411H248C251 -437 253 -464 255 -491H478V-553H404C428 -598 453 -656 476 -707L414 -729C398 -677 369 -603 344 -553H69V-491H192C190 -464 188 -437 185 -411H50V-348H178C158 -187 114 -58 25 30C41 39 69 60 79 71C131 14 168 -54 195 -135C223 -116 252 -94 281 -74C236 -28 184 7 127 32C142 43 164 68 172 83C229 55 283 16 330 -35C355 -13 378 6 394 23L437 -23C420 -41 395 -60 368 -82C402 -132 431 -190 450 -258ZM502 45C526 -9 549 -96 566 -155L513 -178C499 -119 473 -34 446 19ZM596 -150C607 -98 615 -31 615 12L662 5C661 -39 652 -106 640 -157ZM682 -160C699 -117 717 -59 724 -22L767 -35C760 -72 741 -129 722 -171ZM857 -92C845 -120 821 -163 796 -194L759 -179C782 -146 806 -101 817 -72ZM814 -690V-624H590V-690ZM590 -507V-575H814V-507ZM960 -340V-395H590V-453H879V-744H697C708 -769 721 -797 733 -825L659 -839C653 -812 641 -774 629 -744H524V-223H875C864 -66 854 -3 839 14C831 22 824 24 810 24C797 24 762 23 726 19C735 35 741 59 742 76C779 79 815 79 835 77C859 76 875 69 889 52C912 25 925 -50 937 -251C938 -260 939 -280 939 -280H590V-340Z"/>
</svg>