<svg xmlns="http://www.w3.org/2000/svg" viewBox="0 -1000 1000 1000">
	<path fill="#000000" d="M681 -841C625 -745 521 -663 417 -612C427 -597 445 -562 450 -546C538 -594 626 -665 692 -747C752 -676 845 -602 931 -558C936 -576 950 -605 961 -621C877 -657 781 -727 727 -794C733 -803 739 -812 744 -821ZM150 -388H338V-311H150ZM150 -521H338V-445H150ZM440 -100V-168H288V-251H406V-580H287V-664H433V-731H287V-837H216V-731H53V-664H216V-580H84V-251H217V-168H44V-100H217V76H288V-100ZM479 57C503 13 527 -55 544 -102L495 -123C479 -76 454 -8 428 33ZM584 -103C590 -58 594 -1 593 36L643 29C643 -8 638 -65 630 -109ZM673 -109C685 -71 697 -21 701 12L748 0C743 -31 731 -81 719 -119ZM811 -519V-466H558V-519ZM558 -370V-419H811V-370ZM558 -325H876V-564H706C713 -582 721 -602 730 -624L663 -637C659 -617 650 -588 641 -564H491V-155H502V-144H873C866 -36 858 6 847 18C840 26 834 27 822 27C811 27 784 27 753 24C760 38 766 58 767 73C799 75 831 76 847 74C868 73 882 67 895 53C913 33 923 -23 932 -170C933 -179 934 -196 934 -196H558V-238H952V-285H558ZM765 -120C779 -93 795 -56 801 -32L843 -49C836 -70 820 -108 805 -134Z"/>
</svg>