<svg xmlns="http://www.w3.org/2000/svg" viewBox="0 -1000 1000 1000">
	<path fill="#000000" d="M807 -750V-686H210V-750ZM879 -636V-799H138V-502C138 -343 131 -119 38 39C57 46 88 64 102 75C197 -90 210 -334 210 -502V-636ZM718 -117C690 -87 656 -62 613 -43C550 -55 483 -68 418 -78C430 -91 441 -103 453 -117ZM349 -310H531V-263H349ZM789 -310V-263H598V-310ZM371 -427V-469H531V-427ZM531 -549V-508H371V-549ZM773 -549V-508H598V-549ZM598 -427V-469H773V-427ZM934 -117V-167H820C824 -176 828 -185 831 -194L769 -207C764 -194 758 -180 751 -167H494C508 -186 521 -204 533 -222H856V-350H598V-388H841V-465H930V-513H841V-588H598V-635H531V-588H306V-513H231V-465H306V-388H531V-350H285V-222H462C449 -204 435 -186 421 -167H223V-117H379C357 -93 335 -70 315 -50C387 -39 458 -26 524 -13C446 7 350 18 231 23C240 38 250 59 254 78C411 67 533 47 626 9C720 31 802 54 862 77L918 37C859 16 782 -5 695 -25C736 -49 768 -80 793 -117Z"/>
</svg>