<svg xmlns="http://www.w3.org/2000/svg" viewBox="0 -1000 1000 1000">
	<path fill="#000000" d="M399 -683H158V-750H399ZM399 -564H158V-632H399ZM468 -803H91V-510H468ZM134 -386H430V-317H493V-445H328C320 -467 307 -491 294 -511L229 -497C238 -481 247 -463 254 -445H72V-310H134ZM337 -209C324 -167 305 -130 281 -99C250 -114 219 -130 189 -143C199 -163 210 -185 221 -209ZM509 -209V-268H419C422 -284 424 -300 426 -316L360 -324C358 -304 355 -286 351 -268H247C259 -296 271 -323 280 -349L214 -359C205 -331 192 -300 180 -268H49V-209H153C136 -176 120 -143 104 -118C148 -98 192 -77 234 -54C187 -19 125 8 40 24C53 38 67 62 73 80C170 57 241 24 294 -21C337 5 374 30 404 53L458 6C426 -17 385 -42 339 -68C370 -107 391 -154 406 -209ZM531 44C553 -11 574 -99 588 -156L537 -178C524 -120 500 -34 477 19ZM618 -150C629 -98 637 -31 637 12L683 6C682 -38 673 -105 661 -157ZM697 -160C716 -117 735 -59 742 -22L785 -35C778 -71 757 -128 737 -170ZM873 -90C862 -119 836 -161 812 -193L775 -179C798 -146 822 -102 834 -73ZM830 -690V-624H604V-690ZM604 -507V-575H830V-507ZM966 -340V-395H604V-453H894V-744H714C726 -769 739 -797 751 -825L679 -839C672 -812 661 -774 649 -744H541V-223H888C878 -65 865 -3 850 14C843 22 835 24 822 24C809 24 777 23 742 19C751 35 757 59 758 76C792 78 827 78 846 77C869 75 885 69 899 52C923 25 936 -50 949 -251C950 -260 951 -280 951 -280H604V-340Z"/>
</svg>