<svg xmlns="http://www.w3.org/2000/svg" viewBox="0 -1000 1000 1000">
	<path fill="#000000" d="M380 -145V-196H320C340 -233 363 -278 383 -318L336 -338C323 -296 294 -238 271 -196H222L261 -214C251 -246 225 -297 200 -335L160 -319C185 -280 210 -229 220 -196H152V-145H242V54H295V-145ZM471 -413H65V74H125V-355H412V-6C412 5 410 8 399 8C389 8 359 8 323 7C329 25 337 49 339 67C390 67 424 66 445 56C465 45 471 28 471 -5ZM376 -523H158V-617H376ZM439 -671H99V-469H439ZM49 -728H481V-793H49ZM539 44C562 -12 584 -100 599 -156L551 -178C538 -120 513 -34 488 19ZM625 -151C636 -99 644 -31 643 12L687 6C686 -38 678 -105 666 -156ZM698 -160C715 -117 733 -59 740 -22L781 -35C774 -71 755 -128 736 -170ZM859 -84C850 -113 827 -159 805 -193L769 -179C790 -144 812 -98 821 -66ZM835 -690V-624H613V-690ZM613 -507V-575H835V-507ZM955 -340V-395H613V-453H899V-744H713C724 -769 736 -797 748 -826L682 -839C676 -813 665 -775 653 -744H548V-223H876C867 -66 856 -3 841 14C834 22 826 24 813 24C800 24 766 23 729 19C738 35 745 59 746 76C782 79 818 79 838 77C860 76 876 69 891 52C914 25 926 -50 938 -251C939 -260 939 -280 939 -280H613V-340Z"/>
</svg>