<svg xmlns="http://www.w3.org/2000/svg" viewBox="0 -1000 1000 1000">
	<path fill="#000000" d="M208 -342C219 -364 229 -386 237 -408L181 -417C216 -441 237 -469 248 -498H377V-643H328V-542H260C262 -557 263 -573 263 -588V-673H211V-588C211 -573 210 -557 207 -542H148V-645H134C150 -665 165 -686 178 -707H432C424 -535 415 -472 401 -454C395 -445 387 -444 376 -444C363 -444 333 -444 300 -447C309 -432 315 -409 316 -392C349 -391 383 -390 402 -392C425 -394 440 -400 455 -417C476 -443 486 -519 495 -735C496 -745 496 -764 496 -764H210C221 -785 231 -806 239 -826L177 -836C152 -771 105 -691 36 -628C52 -621 74 -604 85 -591C91 -597 96 -603 102 -608V-498H188C168 -467 130 -438 60 -415C70 -405 84 -385 91 -373C124 -384 151 -397 172 -411C147 -344 102 -266 34 -204C49 -197 70 -179 82 -166C87 -171 92 -176 97 -181V-69H190C170 -34 130 -3 50 22C61 32 75 53 82 65C186 31 231 -16 249 -69H377V-223H328V-115H259C261 -128 261 -141 261 -154V-252H209V-156C209 -142 208 -129 206 -115H144V-225H135C150 -244 164 -264 176 -284H432C425 -96 416 -26 401 -8C394 2 386 3 374 3C360 3 326 3 289 0C298 15 305 39 306 56C343 59 379 59 400 57C425 55 441 49 455 30C477 3 487 -79 497 -313C497 -322 498 -342 498 -342ZM541 57C573 9 584 -75 591 -148L541 -160C536 -91 523 -13 494 32ZM620 -158C630 -106 637 -38 635 5L682 -1C682 -45 674 -113 664 -164ZM702 -168C720 -125 736 -69 742 -32L785 -43C779 -80 762 -134 742 -178ZM831 -690V-624H608V-690ZM608 -508V-575H831V-508ZM956 -340V-395H608V-454H896V-744H726C736 -768 748 -795 760 -823L684 -837C679 -811 668 -774 657 -744H543V-223H880C878 -175 875 -137 872 -105C861 -134 837 -172 816 -201L779 -186C801 -155 824 -111 835 -81L871 -98C864 -29 856 3 846 15C840 23 832 24 820 24C808 24 778 24 746 21C755 36 761 59 761 75C794 77 827 76 846 75C868 74 883 68 897 52C920 25 931 -48 942 -252C943 -262 943 -280 943 -280H608V-340Z"/>
</svg>