<svg xmlns="http://www.w3.org/2000/svg" viewBox="0 -1000 1000 1000">
	<path fill="#000000" d="M74 51C91 -2 106 -86 116 -144L77 -166C68 -109 50 -27 33 25ZM138 -161C146 -104 153 -29 155 15L195 4C193 -37 185 -110 176 -166ZM201 -171C214 -126 229 -66 235 -30L272 -49C265 -82 250 -141 237 -185ZM340 -105C330 -131 310 -175 293 -208L263 -188C279 -154 299 -109 308 -80ZM337 -690V-626H132V-690ZM132 -511V-577H337V-511ZM132 -285V-344H413V-400H132V-457H388V-744H218C227 -769 237 -796 246 -823L191 -837C186 -811 177 -774 168 -744H80V-227H350C342 -70 333 -5 323 11C317 21 312 22 300 22C289 22 262 21 231 17C238 34 243 59 244 77C276 79 307 79 324 78C341 76 355 70 367 51C384 23 394 -52 403 -254C404 -264 405 -285 405 -285ZM511 -708C650 -722 808 -746 912 -781L876 -828C781 -795 603 -768 458 -753H457V-431C457 -294 452 -111 386 17C399 26 423 50 431 64C501 -73 511 -283 511 -431ZM614 -504H898C894 -477 887 -449 881 -430L923 -419C935 -449 948 -503 954 -550L920 -559L912 -557H762V-617H943V-668H762V-723H708V-557H562V-385C562 -265 554 -96 488 27C499 35 522 58 530 72C601 -60 614 -253 614 -384ZM677 -229C672 -99 655 -23 574 21C585 32 600 56 605 71C698 16 719 -77 725 -229ZM772 -304C754 -304 751 -310 751 -336V-380L871 -394L868 -440L751 -427V-502H698V-421L625 -413L628 -365L698 -374V-336C698 -278 711 -257 768 -257H869C891 -257 912 -257 924 -261C922 -274 921 -294 919 -307C906 -304 882 -304 868 -304ZM866 4C859 4 854 3 850 0C847 -4 847 -13 847 -28V-230H795V-36C795 16 799 31 811 42C821 54 838 59 854 59H895C906 59 922 56 932 51C942 45 950 35 954 20C959 6 961 -34 962 -71C949 -76 931 -87 921 -98C920 -61 919 -32 918 -20C916 -9 912 -2 908 1C905 3 898 4 890 4Z"/>
</svg>