<svg xmlns="http://www.w3.org/2000/svg" viewBox="0 -1000 1000 1000">
	<path fill="#000000" d="M815 -737V-652H206V-737ZM206 -592H888V-797H133V-504C133 -344 125 -120 34 37C53 43 86 61 100 74C193 -91 206 -336 206 -504ZM362 -580C328 -531 274 -484 219 -451C232 -440 255 -416 264 -404C320 -442 382 -502 421 -561ZM580 -129H801C772 -97 733 -69 686 -47C641 -67 601 -91 567 -118ZM555 -308H816V-259H555ZM555 -394H816V-347H555ZM855 -178L844 -176H627C639 -190 650 -203 660 -218L657 -219H881V-434H521C532 -448 543 -462 553 -478H917V-529H583C591 -543 598 -556 604 -570L545 -589C518 -526 471 -466 422 -424L380 -439C337 -367 266 -299 195 -253C207 -239 225 -206 231 -194C251 -207 271 -224 291 -240V76H357V-307C383 -336 408 -369 428 -401C438 -387 448 -371 453 -363C467 -374 480 -387 493 -402V-219H589C571 -197 549 -176 525 -156C514 -169 503 -182 494 -196L440 -178C453 -158 467 -141 482 -124C454 -104 425 -87 394 -72C408 -62 431 -41 441 -31C469 -46 496 -63 524 -84C552 -59 583 -38 618 -19C557 2 490 16 424 25C434 38 449 61 454 77C534 64 614 44 685 14C751 42 825 62 904 75C911 58 927 34 941 21C875 12 811 -2 754 -21C814 -56 863 -102 896 -160Z"/>
</svg>