<svg xmlns="http://www.w3.org/2000/svg" viewBox="0 -1000 1000 1000">
	<path fill="#000000" d="M400 -681H202V-745H400ZM400 -568H202V-633H400ZM468 -796H136V-517H468ZM277 -25V-198H490V-252H171C172 -270 173 -286 173 -303H462V-354H173V-405H492V-462H110V-326C110 -222 100 -74 32 36C46 42 75 59 86 71C135 -7 157 -107 166 -198H219V-55C219 -12 193 8 177 18C187 30 199 57 204 72C216 62 238 51 366 -5C362 -17 358 -38 355 -54ZM461 -178C447 -162 427 -140 407 -122C393 -145 379 -169 366 -190L319 -171C357 -109 402 -24 423 25L472 1C462 -22 446 -50 430 -81C451 -98 475 -119 498 -141ZM542 43C565 -12 587 -99 602 -157L555 -178C540 -120 516 -34 490 19ZM633 -152C643 -99 651 -32 650 12L693 5C692 -39 684 -107 672 -159ZM710 -161C727 -118 745 -60 751 -23L790 -34C783 -72 765 -128 746 -171ZM868 -92C859 -120 836 -162 814 -194L781 -179C801 -147 822 -104 832 -75ZM834 -690V-624H615V-690ZM615 -507V-575H834V-507ZM954 -340V-395H615V-453H899V-744H714C725 -769 737 -797 749 -825L681 -839C675 -812 664 -774 652 -744H548V-223H880C871 -65 859 -3 844 14C837 22 829 24 816 24C804 24 771 23 735 19C744 35 750 58 752 75C787 77 822 78 842 76C865 74 881 68 895 51C918 24 931 -50 944 -251C944 -260 945 -280 945 -280H615V-340Z"/>
</svg>