<svg xmlns="http://www.w3.org/2000/svg" viewBox="0 -1000 1000 1000">
	<path fill="#000000" d="M307 -327C262 -288 211 -254 158 -227C161 -260 163 -295 165 -327ZM438 -744V-649H167V-744ZM435 -141H282V-199H435ZM282 -21V-94H435V-21ZM537 -327V-383H438C473 -427 505 -475 529 -527L474 -543C447 -483 410 -431 366 -383H344V-456H423V-509H344V-574H290V-509H202V-456H290V-383H166C167 -406 167 -429 167 -449V-592H503V-801H104V-450C104 -306 99 -108 41 31C56 38 83 55 94 67C128 -9 146 -106 156 -203C164 -191 173 -176 178 -168C195 -177 210 -186 226 -196V74H282V30H435V72H493V-251H304C333 -274 362 -300 389 -327ZM555 41C578 -13 596 -99 607 -158L558 -176C548 -118 527 -35 505 14ZM630 -152C642 -100 649 -32 649 11L694 5C694 -39 685 -106 672 -158ZM834 -690V-624H623V-690ZM623 -507V-575H834V-507ZM953 -340V-395H623V-453H895V-744H730C743 -770 756 -800 768 -828L698 -840C692 -814 680 -775 668 -744H561V-223H886C883 -172 879 -131 875 -99C864 -127 845 -164 826 -194L790 -180C811 -146 833 -99 842 -67L873 -81C866 -29 860 -3 851 7C844 15 836 17 823 16C811 16 779 16 744 13C753 29 759 51 760 69C794 71 828 70 847 69C870 67 885 61 899 45C922 20 933 -55 945 -251C946 -261 947 -280 947 -280H623V-340ZM796 -34C789 -70 771 -127 750 -169L712 -159C731 -116 748 -59 755 -22Z"/>
</svg>