<svg xmlns="http://www.w3.org/2000/svg" viewBox="0 -1000 1000 1000">
	<path fill="#000000" d="M716 -645V-529C716 -471 732 -456 796 -456H887C935 -456 952 -477 957 -557C941 -560 917 -569 905 -578C902 -516 898 -509 878 -509H804C780 -509 777 -511 777 -529V-645ZM939 -676V-731H861L900 -759C882 -781 847 -812 817 -833L772 -804C799 -784 831 -754 850 -731H723C727 -764 730 -800 732 -837H669C667 -800 664 -764 660 -731H522V-676H650C631 -593 594 -527 518 -486C532 -475 550 -453 557 -438C649 -489 693 -571 714 -676ZM516 -779H338C329 -800 316 -824 302 -842L241 -826C249 -812 258 -795 266 -779H68V-733H516ZM181 -655H412V-602H181ZM326 -444V-562H474V-695H121V-562H269V-444ZM172 -551C147 -520 109 -489 71 -463C85 -456 107 -440 117 -431C152 -457 197 -498 225 -534ZM125 69C168 39 209 -4 243 -41L187 -71C157 -37 112 9 66 36ZM312 -44C321 -10 329 33 330 61L394 51C393 22 384 -21 372 -53ZM467 -46C483 -15 499 25 505 51L564 35C558 9 541 -30 522 -58ZM617 -49C636 -23 656 15 664 41L719 23C710 -1 690 -37 669 -64ZM734 -385V-348H278V-385ZM278 -274V-311H734V-274ZM278 -233H807V-426H506C513 -438 521 -451 530 -466L458 -476L485 -496C467 -514 431 -540 402 -554L360 -526C387 -511 423 -483 441 -464L457 -475C451 -461 441 -444 431 -426H206V-72H815C807 -9 799 18 790 29C784 35 777 36 766 36C755 36 732 35 704 32C711 45 717 65 718 78C749 79 780 80 797 79C818 78 835 74 849 61C868 44 878 4 889 -91C890 -99 891 -115 891 -115H278V-152H946V-195H278Z"/>
</svg>