<svg xmlns="http://www.w3.org/2000/svg" viewBox="0 -1000 1000 1000">
	<path fill="#000000" d="M251 -741H325V-634H251ZM207 -634H137V-741H207ZM368 -741H444V-634H368ZM484 -50V-109H326V-180H507V-239H410C424 -264 437 -295 452 -325L395 -338H513V-398H324V-467H480V-523H324V-581H503V-794H80V-581H257V-523H89V-467H257V-398H48V-338H390C381 -311 365 -268 350 -239H209L235 -246C228 -270 211 -308 195 -335L139 -323C153 -297 166 -264 174 -239H57V-180H258V-109H78V-50H258V76H326V-50ZM530 44C550 -11 569 -98 582 -156L532 -178C521 -121 498 -34 477 19ZM605 -151C617 -99 624 -31 624 12L670 5C669 -39 660 -107 648 -158ZM688 -161C705 -118 723 -60 730 -23L771 -35C765 -73 745 -129 726 -171ZM859 -92C848 -121 823 -163 799 -195L763 -179C786 -147 809 -102 821 -73ZM826 -690V-624H605V-690ZM605 -507V-575H826V-507ZM954 -340V-395H605V-453H888V-744H702C714 -769 725 -797 737 -825L667 -839C661 -812 650 -774 638 -744H542V-223H878C867 -66 857 -3 842 14C835 22 827 24 814 24C801 24 767 23 732 19C740 35 747 59 748 76C783 79 819 79 838 77C861 76 876 69 891 52C913 25 926 -50 938 -251C939 -260 940 -280 940 -280H605V-340Z"/>
</svg>