<svg xmlns="http://www.w3.org/2000/svg" viewBox="0 -1000 1000 1000">
	<path fill="#000000" d="M852 -385C916 -385 936 -400 941 -462C924 -464 902 -469 887 -475C883 -431 876 -424 844 -424H664C617 -424 607 -429 607 -454V-456H880V-487H607V-514H868V-545H607V-573H872V-604H607V-631H889V-735H607V-762H927V-799H607V-836H539V-698H821V-669H539V-453C539 -395 569 -385 658 -385ZM360 -747C355 -732 346 -711 337 -694H226C220 -711 212 -731 201 -747ZM514 -694H397L422 -736L385 -747H485V-788H328C321 -804 310 -823 298 -838L234 -826C241 -815 249 -802 256 -788H83V-747H180L146 -737C154 -724 160 -709 165 -694H56V-654H514ZM130 81C164 54 194 13 218 -22L163 -51C142 -19 109 22 76 45ZM290 -29C305 3 319 43 324 69L383 51C379 25 364 -15 347 -44ZM449 -28C469 2 490 42 498 68L552 43C543 19 522 -20 500 -47ZM609 -32C629 -8 650 25 661 48L712 23C701 2 678 -30 658 -53ZM745 -325V-296H255V-325ZM255 -225V-259H745V-225ZM255 -187H815V-363H503C512 -376 521 -390 531 -406L459 -416C460 -419 460 -423 460 -427V-623H118V-538C118 -497 114 -449 71 -411C85 -403 110 -383 120 -370C170 -417 179 -483 179 -536V-584H394V-503C312 -488 233 -473 174 -463L192 -421C252 -435 321 -450 394 -467V-427C394 -419 391 -416 383 -416C374 -416 348 -416 320 -417C326 -405 333 -391 335 -378C383 -378 415 -378 434 -384L436 -385L427 -363H185V-54H827C817 -4 806 21 795 30C788 36 782 37 771 37C760 37 732 37 702 34C709 46 715 66 716 78C750 81 782 81 800 80C820 80 837 76 853 64C873 48 886 12 900 -67C902 -75 903 -92 903 -92H255V-120H941V-161H255ZM194 -536C246 -526 313 -508 350 -495L366 -531C328 -543 262 -560 212 -568Z"/>
</svg>