<svg xmlns="http://www.w3.org/2000/svg" viewBox="0 -1000 1000 1000">
	<path fill="#000000" d="M458 -537C458 -528 456 -526 447 -525C438 -525 413 -525 382 -526C389 -512 396 -494 399 -480C442 -480 472 -481 490 -489C510 -497 515 -510 515 -537V-800H302V-747H458ZM437 -680C413 -696 367 -720 332 -736L309 -698C345 -681 391 -654 416 -637ZM436 -642C384 -608 336 -578 300 -558L321 -506C364 -536 406 -565 450 -595ZM218 -537C218 -528 215 -526 207 -525C198 -525 172 -525 142 -526C149 -512 155 -494 158 -480C201 -480 231 -481 249 -489C269 -497 274 -510 274 -537V-800H61V-747H218ZM197 -680C173 -696 126 -720 91 -736L68 -698C104 -681 150 -654 175 -637ZM195 -642C143 -608 94 -578 59 -558L80 -506C123 -536 165 -565 209 -595ZM307 -278H183V-343H307ZM307 -161H183V-228H307ZM307 -41H183V-112H307ZM513 16V-41H371V-112H492V-161H371V-228H492V-278H371V-343H510V-397H390C379 -423 363 -457 348 -483L289 -465C300 -444 311 -420 320 -397H202C211 -419 221 -441 229 -463L170 -479C139 -394 89 -307 34 -248C46 -235 66 -205 73 -193C89 -209 103 -229 118 -250V58H183V16ZM558 45C586 -7 596 -92 603 -163L554 -174C549 -106 536 -26 512 21ZM634 -164C644 -111 651 -44 649 0L695 -7C695 -50 688 -118 677 -170ZM838 -690V-624H623V-690ZM623 -507V-575H838V-507ZM954 -340V-395H623V-453H901V-744H742C754 -768 767 -795 779 -823L706 -836C700 -811 688 -773 677 -744H558V-223H879C877 -184 875 -150 872 -122C860 -148 842 -179 824 -203L788 -189C810 -157 831 -115 842 -88L870 -101C863 -33 856 -2 846 10C839 19 832 20 818 19C806 19 775 19 740 16C748 30 754 53 755 68C790 70 824 71 844 69C866 67 881 62 895 45C917 20 929 -53 940 -252C941 -261 941 -280 941 -280H623V-340ZM796 -47C790 -82 773 -139 754 -182L714 -172C731 -129 748 -72 753 -35Z"/>
</svg>