<svg xmlns="http://www.w3.org/2000/svg" viewBox="0 -1000 1000 1000">
	<path fill="#000000" d="M349 -719V-678H187V-719ZM583 -678H416V-719H583ZM812 -633V-587H651V-633ZM416 -587V-633H583V-587ZM187 -633H349V-587H187ZM187 -542H266V-465C266 -428 252 -415 240 -409C249 -395 260 -370 265 -355C282 -363 311 -367 541 -392C541 -402 543 -423 546 -437L326 -417V-461H541V-504H326V-542H580V-441C580 -384 603 -372 688 -372H855C911 -372 930 -386 936 -440C919 -443 897 -449 883 -457C880 -422 874 -418 846 -418H693C651 -418 644 -421 644 -441V-461H887V-504H644V-542H880V-678H651V-719H934V-771H570C560 -794 544 -821 527 -843L462 -827C472 -810 484 -790 493 -771H121V-428C121 -287 114 -94 40 40C55 47 84 67 95 79C175 -63 187 -278 187 -429ZM814 -116C787 -97 749 -73 713 -54C674 -72 641 -92 614 -116ZM542 -116C620 -22 759 37 922 59C930 42 947 18 959 6C892 -1 826 -14 769 -34C803 -50 842 -71 874 -94L833 -116H934V-162H307C308 -177 309 -192 310 -206H854V-250H311V-290H909V-336H246V-243C246 -165 236 -58 172 24C187 31 215 54 226 65C267 12 288 -53 300 -116H384V-42C384 -5 370 7 359 14C368 27 380 55 384 70C401 61 427 55 614 24C614 11 615 -12 617 -28L446 -3V-116Z"/>
</svg>