<svg xmlns="http://www.w3.org/2000/svg" viewBox="0 -1000 1000 1000">
	<path fill="#000000" d="M359 -717V-673H190V-717ZM596 -673H426V-717H596ZM812 -632V-583H664V-632ZM426 -583V-632H596V-583ZM190 -632H359V-583H190ZM890 -464C887 -424 879 -418 852 -418H699C657 -418 650 -422 650 -442V-464ZM190 -542H273V-444C273 -413 248 -408 231 -405C239 -394 247 -369 249 -354C267 -361 297 -365 558 -387C559 -396 561 -416 563 -429L335 -413V-463H558V-503H335V-542H588V-442C588 -385 611 -373 694 -373H860C918 -373 937 -390 943 -458C926 -461 906 -467 892 -475V-504H650V-542H880V-673H664V-717H934V-766H579C570 -791 551 -821 533 -843L464 -822C476 -805 486 -786 496 -766H121V-486C121 -333 115 -117 40 37C56 44 86 66 97 78C177 -85 190 -325 190 -486ZM710 3C669 3 662 0 662 -21V-95H860V-321H561V-274H792V-231H570V-187H792V-142H304V-187H515V-231H304V-277C384 -282 467 -293 529 -307L487 -348C428 -334 325 -322 235 -316V-95H400C376 -33 317 -5 165 12C178 24 195 50 202 67C377 42 448 -2 474 -95H592V-21C592 43 616 59 704 59H861C927 59 947 37 954 -51C935 -55 909 -63 894 -72C890 -6 884 3 853 3Z"/>
</svg>