<svg xmlns="http://www.w3.org/2000/svg" viewBox="0 -1000 1000 1000">
	<path fill="#000000" d="M953 -580C925 -632 867 -721 822 -786L763 -763C782 -733 804 -700 825 -667L595 -655C647 -701 699 -760 744 -819L670 -842C630 -773 566 -703 546 -684C527 -666 511 -653 496 -650C504 -633 516 -598 518 -584C540 -592 574 -595 857 -612C871 -589 882 -568 891 -550ZM754 -35V-227H946V-290H754V-409H916V-471H754V-577H689V-471H604C612 -498 619 -527 625 -554L564 -566C548 -484 519 -398 479 -341C495 -335 522 -320 534 -311C552 -339 568 -372 582 -409H689V-290H479V-227H689V-35ZM368 -676C354 -623 331 -570 301 -531C313 -525 333 -511 342 -503C353 -519 364 -538 374 -557C402 -533 431 -502 448 -483L483 -520C465 -542 427 -576 394 -602C403 -623 410 -644 416 -665ZM127 -674C108 -612 74 -551 36 -509C46 -498 61 -475 67 -464C91 -490 112 -523 131 -559C151 -539 169 -516 180 -501L214 -538C202 -555 176 -581 153 -602C161 -622 168 -641 175 -661ZM467 -398C440 -418 338 -485 294 -511V-695H472V-754H294V-835H227V-754H52V-695H227V-512C181 -466 100 -416 35 -391C49 -380 67 -358 78 -343C137 -370 209 -423 260 -473C307 -441 396 -376 430 -346ZM344 -267C321 -204 287 -152 245 -108C214 -136 187 -170 164 -213C177 -231 189 -248 200 -267ZM385 -326L372 -323H231C241 -342 249 -360 257 -379L199 -395C183 -354 161 -314 136 -278C131 -293 126 -308 121 -324L72 -304C80 -277 89 -251 99 -228C79 -204 58 -184 38 -165C49 -153 66 -123 73 -110C92 -126 109 -146 127 -166C149 -126 172 -94 200 -66C152 -27 98 2 39 24C53 35 72 63 80 80C141 54 199 21 250 -24C345 43 470 62 627 62H935C939 43 952 12 962 -5C913 -3 667 -3 628 -3C495 -3 383 -17 297 -69C353 -131 399 -209 426 -305Z"/>
</svg>