<svg xmlns="http://www.w3.org/2000/svg" viewBox="0 -1000 1000 1000">
	<path fill="#000000" d="M312 -535C328 -575 346 -640 361 -692L321 -708C314 -662 297 -591 283 -548ZM136 -698C146 -650 158 -586 162 -544L197 -556C193 -596 180 -659 169 -708ZM125 -747H225V-505H125ZM372 -505H273V-747H372ZM452 -240H281V-317H428V-377H281V-450H427V-803H71V-450H218V-377H65V-317H218V-240H50V-176H452ZM90 70C113 20 136 -60 152 -114L105 -134C92 -82 64 0 39 50ZM187 -121C192 -64 196 8 193 56L244 52C245 5 242 -67 236 -123ZM278 -118C291 -64 304 5 307 49L356 42C352 -2 339 -70 326 -123ZM374 -116C393 -65 415 2 423 45L472 32C464 -11 441 -76 422 -127ZM558 -178V-274H661V-178ZM745 -630C768 -576 800 -523 839 -476H723V-551H661V-476H556C595 -521 628 -572 656 -630ZM723 -417H831V-328H723ZM558 -417H661V-328H558ZM723 -178V-274H831V-178ZM892 -119V-421C907 -407 922 -395 939 -384C945 -402 958 -433 970 -449C907 -488 849 -556 812 -630H938V-697H685C700 -738 713 -781 724 -827L661 -838C650 -788 635 -741 617 -697H455V-630H584C544 -555 490 -494 425 -448C436 -434 454 -402 459 -387C473 -396 485 -407 498 -418V-76H558V-119H661V-61C661 27 682 55 758 55H872C900 55 925 53 939 49C936 34 933 4 931 -12C917 -9 892 -8 874 -8H755C730 -8 723 -19 723 -58V-119Z"/>
</svg>