<svg xmlns="http://www.w3.org/2000/svg" viewBox="0 -1000 1000 1000">
	<path fill="#000000" d="M830 -696C807 -646 775 -602 736 -565C706 -592 663 -624 624 -650C638 -665 651 -680 664 -696ZM877 -760L863 -757H706C721 -780 732 -801 743 -824L673 -835C637 -758 567 -666 460 -600C476 -591 498 -570 510 -554C534 -571 558 -588 579 -607C616 -580 657 -549 685 -522C623 -474 550 -439 475 -419C488 -405 506 -381 515 -364C695 -421 857 -534 924 -740ZM88 72C114 22 133 -58 145 -117L97 -134C86 -78 64 1 38 49ZM184 -121C193 -67 197 4 194 50L242 44C244 -1 239 -72 230 -126ZM278 -128C296 -77 311 -10 315 33L363 23C358 -19 342 -85 323 -135ZM369 -139C392 -92 413 -29 421 13L468 -5C461 -45 438 -107 414 -154ZM329 -537C344 -577 362 -641 377 -692L336 -707C328 -661 312 -592 298 -550ZM148 -698C165 -647 179 -582 182 -539L219 -549C216 -591 201 -657 183 -707ZM868 -297C843 -234 806 -181 761 -137C728 -174 681 -216 637 -250C655 -265 670 -280 685 -297ZM131 -748H236V-505H131ZM388 -505H283V-748H388ZM913 -362L900 -359H736C755 -385 771 -412 785 -438L714 -451C673 -372 593 -279 473 -213V-238H291V-317H439V-377H291V-450H447V-803H74V-450H229V-377H67V-317H229V-238H45V-178H473V-208C488 -198 507 -178 515 -162C541 -177 564 -193 587 -208C630 -173 676 -129 708 -92C636 -39 549 -3 457 18C470 33 488 61 496 80C711 23 892 -99 960 -343Z"/>
</svg>