<svg xmlns="http://www.w3.org/2000/svg" viewBox="0 -1000 1000 1000">
	<path fill="#000000" d="M914 -652C888 -694 831 -759 786 -805L734 -779C753 -760 774 -736 794 -713L563 -703C606 -734 653 -775 693 -819L621 -838C583 -787 523 -738 506 -726C489 -713 474 -705 459 -702C467 -685 478 -652 481 -639C503 -646 537 -649 831 -665C843 -650 852 -636 859 -623ZM288 -542C301 -581 315 -642 328 -690L292 -703C286 -660 271 -594 261 -554ZM131 -695C145 -647 156 -585 157 -544L190 -553C189 -592 178 -654 161 -702ZM120 -747H205V-504H120ZM336 -504H246V-747H336ZM412 -249H255V-316H390V-376H255V-450H384V-802H74V-450H196V-376H68V-316H196V-249H47V-190H412ZM95 67C107 13 122 -72 130 -124L83 -144C75 -90 58 -5 44 47ZM167 -124C176 -68 182 4 183 51L229 46C228 -2 221 -73 210 -129ZM251 -135C269 -84 286 -17 290 28L335 17C329 -25 312 -92 293 -142ZM330 -151C357 -104 382 -42 392 -1L437 -17C427 -58 401 -118 372 -165ZM894 -205C801 -107 604 -13 429 20C441 35 455 61 460 78C639 35 839 -65 941 -171ZM708 -373C657 -319 551 -267 458 -249C468 -235 482 -211 487 -195C586 -223 696 -285 752 -346ZM798 -292C730 -219 585 -149 458 -123C470 -110 485 -85 491 -69C621 -103 768 -180 843 -261ZM959 -466C947 -502 917 -560 891 -601L844 -590C854 -572 865 -553 875 -534L779 -525C799 -553 819 -589 834 -625L779 -648C768 -601 742 -554 734 -542C726 -530 718 -522 708 -521C711 -515 714 -506 717 -498L669 -508L667 -506C655 -535 637 -573 619 -600L574 -589C585 -570 596 -549 605 -529L493 -513C519 -544 546 -581 567 -619L514 -643C494 -591 455 -540 444 -527C433 -514 422 -506 411 -504C418 -490 427 -462 429 -450C443 -458 468 -463 622 -489C624 -483 626 -477 628 -472L638 -475C587 -428 506 -383 400 -350C412 -339 430 -312 437 -296C543 -333 624 -380 685 -434C752 -375 850 -322 942 -292C947 -309 957 -337 968 -352C884 -374 790 -416 728 -466C741 -473 764 -477 895 -493C901 -478 907 -464 911 -452Z"/>
</svg>