<svg xmlns="http://www.w3.org/2000/svg" viewBox="0 -1000 1000 1000">
	<path fill="#000000" d="M536 -649V-605H793C775 -583 752 -563 726 -546C676 -566 625 -585 580 -600L554 -563C590 -549 630 -534 670 -518C621 -497 566 -483 509 -474C520 -462 533 -441 539 -426C609 -439 676 -460 733 -492C794 -466 850 -441 887 -420L914 -465C881 -482 834 -503 783 -524C822 -554 854 -591 874 -637L838 -651L827 -649H542C622 -680 644 -722 646 -764H779V-740C779 -688 790 -668 841 -668H888C903 -668 918 -668 929 -671C926 -686 925 -706 924 -721C914 -718 896 -716 886 -716H850C839 -716 838 -722 838 -740V-812H592V-771C592 -741 577 -715 501 -691C512 -684 531 -662 538 -649ZM95 -530C95 -462 117 -437 192 -437H416C453 -437 493 -437 509 -442C506 -454 504 -472 502 -489C483 -484 438 -483 412 -483H196C161 -483 152 -495 152 -528V-763H242C228 -729 205 -698 174 -670C186 -665 206 -654 215 -647C227 -658 237 -672 248 -686H304V-654C304 -649 304 -644 303 -638H175V-599H290C275 -573 241 -546 172 -527C182 -518 198 -502 205 -490C269 -512 306 -538 328 -567C372 -543 422 -514 450 -492L480 -527C452 -548 400 -577 355 -599H478V-638H355C356 -643 356 -648 356 -653V-686H458V-724H273C279 -735 284 -746 289 -757L265 -763H501V-810H66V-763H95ZM132 79C171 48 221 -3 258 -42L189 -63C154 -22 102 23 64 53ZM348 -41C356 -4 364 45 367 75L437 64C434 36 424 -12 413 -48ZM551 -41C568 -5 588 43 594 73L664 57C657 27 637 -21 618 -55ZM748 -40C792 -4 848 47 871 79L936 48C908 15 853 -35 808 -69ZM353 -284L392 -303C383 -322 361 -348 342 -367L300 -347C318 -330 337 -304 347 -284H235V-368H463V-284ZM773 -284H643C659 -302 678 -322 697 -347L656 -368H773ZM534 -284V-368H653C642 -349 622 -319 606 -300L634 -284ZM534 -119V-163H861V-205H534V-246H839V-406H172V-246H463V-205H148V-163H463V-119H59V-71H942V-119Z"/>
</svg>