<svg xmlns="http://www.w3.org/2000/svg" viewBox="0 -1000 1000 1000">
	<path fill="#000000" d="M920 -167C891 -217 846 -278 794 -341C838 -422 871 -519 893 -632H954V-699H719L766 -724C749 -754 717 -805 691 -841L633 -814C655 -778 684 -730 700 -699H505V-632H822C804 -543 780 -466 746 -398C700 -450 650 -502 602 -547L552 -511C605 -460 661 -399 712 -337C660 -255 590 -193 500 -147C516 -133 542 -104 552 -90C636 -139 704 -201 758 -281C802 -223 840 -168 866 -123ZM464 -786H285V-727H400V-643H288V-587H400V-499L145 -500V-587H245V-643H145V-732C188 -748 237 -768 276 -791L235 -836C196 -813 127 -780 81 -762V-441H464ZM304 -25V-125H390V-178H304V-258H382V-311H304V-393H245V-45C245 -24 236 -13 226 -7C223 -21 220 -41 220 -55L144 -28V-127H224V-180H144V-260H224V-313H144V-398H85V-42C85 -7 60 4 44 10C54 27 64 56 68 73C80 62 101 50 209 6C218 24 225 47 228 63C243 52 270 43 433 1C431 -11 430 -37 431 -54ZM396 -398C390 -83 441 79 829 76C922 76 948 49 958 -55C941 -59 918 -68 903 -80C897 -1 886 17 830 17C487 20 450 -116 458 -398Z"/>
</svg>