<svg xmlns="http://www.w3.org/2000/svg" viewBox="0 -1000 1000 1000">
	<path fill="#000000" d="M375 -687H166V-726H375ZM375 -604H166V-646H375ZM375 -522H166V-563H375ZM440 -768H290C299 -787 309 -807 318 -828L247 -839C242 -819 232 -792 224 -768H104V-480H440ZM410 -353H300V-396H410ZM410 -267H300V-312H410ZM129 -312H242V-267H129ZM129 -396H242V-353H129ZM470 -439H71V-225H470ZM493 -125V-183H47V-125H159C148 -51 121 -2 45 30C58 41 77 64 84 79C177 38 210 -29 223 -125H330V70H395V-125ZM745 -527H846V-432H745ZM745 -678H846V-588H745ZM745 -369H904V-527H957V-588H904V-740H745V-837H679V-740H529V-678H679V-588H490V-527H679V-432H525V-369H679V-219C600 -164 519 -109 466 -76L502 -23C555 -59 617 -104 679 -151V-1C679 11 675 15 663 15C653 16 619 16 581 15C590 33 598 59 601 75C657 76 692 74 714 63C736 52 745 36 745 -2V-152C808 -102 875 -49 913 -13L951 -61C920 -90 868 -130 815 -169C851 -204 892 -249 928 -290L878 -330C853 -292 808 -239 770 -202L745 -220ZM643 -244C619 -270 571 -310 531 -337L492 -301C531 -273 578 -231 602 -203Z"/>
</svg>