<svg xmlns="http://www.w3.org/2000/svg" viewBox="0 -1000 1000 1000">
	<path fill="#000000" d="M818 -700H591V-766H818ZM818 -584H591V-651H818ZM818 -467H591V-536H818ZM884 -817H527V-416H884ZM923 -262V-320H844L878 -352C859 -369 824 -392 796 -408L759 -376C786 -360 819 -338 838 -320H731C734 -345 736 -370 737 -398H675C674 -369 672 -344 669 -320H495V-262H658C639 -188 597 -140 506 -108C518 -97 536 -74 543 -59C651 -100 700 -164 721 -262ZM732 -219C777 -172 831 -105 856 -63L904 -97C879 -138 825 -200 778 -246ZM434 -786H272V-727H373V-643H276V-587H373V-499L143 -500V-587H236V-643H143V-731C186 -747 236 -767 276 -791L235 -836C196 -813 127 -780 81 -762V-441H434ZM295 -26V-125H373V-178H295V-258H365V-311H295V-391H239V-42C239 -21 230 -10 220 -4C218 -18 215 -37 215 -51L143 -26V-127H219V-180H143V-260H219V-313H143V-396H85V-39C85 -3 60 7 45 12C54 28 64 57 68 73C79 63 101 50 204 8C212 25 218 48 222 63C237 52 263 42 424 -5C421 -18 420 -42 421 -58ZM377 -397C371 -83 430 76 831 73C926 73 951 47 960 -51C944 -55 923 -63 910 -74C904 2 892 19 832 19C472 23 426 -114 433 -397Z"/>
</svg>