<svg xmlns="http://www.w3.org/2000/svg" viewBox="0 -1000 1000 1000">
	<path fill="#000000" d="M883 -351C902 -351 921 -351 932 -354C930 -366 928 -384 927 -397C915 -394 895 -394 882 -394H807C791 -394 789 -400 789 -423V-436L881 -446L877 -491L789 -482V-557H740V-478L661 -470L666 -422L740 -430V-424C740 -370 751 -351 802 -351ZM704 -327C702 -215 687 -165 608 -133C619 -122 632 -98 637 -83C730 -124 750 -193 752 -327ZM903 -95C913 -95 927 -97 935 -102C944 -109 951 -118 956 -132C960 -146 962 -187 964 -223C950 -228 933 -240 922 -251C922 -214 921 -185 919 -173C917 -161 915 -154 911 -151C908 -149 903 -148 897 -148H878C873 -148 869 -149 867 -152C865 -156 864 -164 864 -178V-327H814V-186C814 -137 817 -123 828 -111C837 -99 854 -95 868 -95ZM938 -650V-692H786V-727H733V-612H605V-418C605 -331 597 -220 531 -140C541 -132 559 -107 567 -95C640 -185 654 -317 654 -417V-562H903C897 -535 889 -506 879 -487L921 -474C937 -505 953 -559 960 -605L928 -615L919 -612H786V-650ZM464 -786H285V-727H400V-643H288V-587H400V-499H145V-587H245V-643H145V-732C188 -748 237 -768 276 -791L235 -836C196 -814 127 -780 81 -763V-441H464ZM304 -25V-125H390V-178H304V-258H382V-311H304V-393H245V-45C245 -24 236 -13 226 -7C223 -20 220 -41 220 -55L145 -28V-127H224V-180H145V-260H224V-313H145V-398H85V-42C85 -6 60 4 44 10C54 27 64 56 68 73C80 62 101 50 209 6C218 23 225 47 228 63C243 52 270 43 433 1C432 -11 431 -37 432 -53ZM565 -710C692 -723 836 -746 930 -777L895 -821C808 -791 646 -766 514 -752V-527C514 -434 508 -312 464 -221C457 -272 456 -331 458 -398H396C390 -83 441 79 829 76C922 76 948 49 958 -56C941 -59 918 -68 903 -80C897 -1 886 17 831 17C577 19 490 -55 466 -208C478 -198 494 -181 502 -170C556 -270 565 -418 565 -526Z"/>
</svg>