<svg xmlns="http://www.w3.org/2000/svg" viewBox="0 -1000 1000 1000">
	<path fill="#000000" d="M381 -689C401 -663 422 -627 430 -603L481 -627C473 -649 452 -683 432 -708H943V-762H550C542 -787 529 -817 515 -840L446 -825C456 -806 465 -783 471 -762H59V-708H426ZM558 -703C537 -674 497 -630 465 -602V-450H532V-597C558 -621 588 -652 614 -684ZM313 -369H686V-414H313ZM318 -608C313 -546 308 -521 302 -512C297 -506 291 -506 280 -506C271 -506 250 -506 223 -509C230 -495 235 -475 236 -461C263 -459 292 -459 306 -460C325 -461 339 -467 351 -479C366 -495 373 -536 379 -635C380 -644 380 -660 380 -660H72V-608H167C153 -546 119 -503 42 -478C54 -468 70 -447 77 -435C170 -470 209 -526 225 -608ZM239 -456H172V-307C172 -194 161 -63 62 42C79 51 103 73 116 87C225 -28 239 -176 239 -306ZM458 -284H531V4H458ZM588 -39H728V-78H588V-120H717V-159H588V-201H722V-240H588V-284H713V-328H290V-284H401V-240H279V-201H401V-159H283V-120H401V-78H273V-39H401V4H233V53H747V4H588ZM773 77H842V-456H773ZM853 -695C801 -675 708 -657 630 -646V-554C630 -519 612 -508 600 -502C609 -489 619 -465 622 -450C635 -458 657 -463 773 -486C771 -495 769 -514 769 -528L691 -516V-607C713 -610 736 -614 759 -618C786 -535 837 -469 919 -437C928 -452 946 -476 961 -487C886 -511 837 -562 812 -629C843 -635 872 -643 898 -652Z"/>
</svg>