<svg xmlns="http://www.w3.org/2000/svg" viewBox="0 -1000 1000 1000">
	<path fill="#000000" d="M825 -736C816 -646 807 -608 796 -596C789 -588 780 -587 767 -587C753 -587 719 -588 682 -592C690 -576 697 -554 698 -538C737 -535 775 -535 795 -537C819 -538 835 -543 850 -558C870 -579 882 -633 893 -765C894 -775 895 -793 895 -793H508V-736H623C611 -657 578 -598 492 -562C505 -553 522 -531 529 -517C630 -561 670 -634 685 -736ZM78 -541L244 -550V-509H311V-553C364 -556 418 -560 472 -563L473 -611L311 -604V-651H447V-698H311V-744H466V-792H311V-836H244V-792H79V-744H244V-698H100V-651H244V-602C179 -599 119 -596 71 -595ZM493 -50C471 -68 431 -93 397 -110C405 -122 412 -134 418 -146L369 -158C344 -107 297 -64 243 -33C255 -26 277 -12 286 -3C316 -22 346 -48 371 -77C405 -58 442 -33 463 -17ZM559 -209C580 -227 601 -246 619 -269C656 -251 698 -227 723 -209ZM797 -2H553C576 -22 600 -48 621 -76C661 -56 708 -28 732 -10L765 -45C737 -65 685 -94 644 -112C651 -124 657 -137 663 -148L613 -160C591 -110 553 -63 508 -29C520 -23 538 -10 548 -2H207V-161H797ZM948 -402H500V-448H838V-495H500V-533H431V-402H265V-506H197V-402H53V-349H616C590 -301 547 -256 498 -224C505 -220 514 -215 522 -209H297C324 -226 349 -247 370 -272C404 -254 441 -232 462 -215L492 -250C469 -267 430 -289 396 -306C403 -315 409 -327 413 -338L365 -349C341 -300 295 -259 241 -230C249 -225 262 -217 273 -209H207V-308H139V46H797V76H867V-308H797V-209H724L755 -244C729 -262 684 -287 645 -304C652 -314 659 -326 665 -337L621 -349H948Z"/>
</svg>