<svg xmlns="http://www.w3.org/2000/svg" viewBox="0 -1000 1000 1000">
	<path fill="#000000" d="M854 -357H618V-706H854ZM922 -772H553V-291H922ZM513 -615H318V-691H481V-748H318V-836H254V-615H175V-779H115V-615H44V-555H512ZM197 -533C190 -465 174 -407 135 -367C146 -360 161 -344 167 -336C185 -355 200 -380 212 -408C223 -391 235 -374 242 -361L274 -392C264 -407 245 -432 227 -454C233 -477 238 -502 241 -528ZM420 -371C407 -392 381 -426 356 -453C363 -477 368 -501 371 -527L328 -532C320 -465 300 -409 260 -370C270 -363 285 -346 291 -339C311 -358 328 -383 341 -411C360 -387 379 -359 390 -340ZM276 -103C265 -119 245 -145 226 -167C232 -191 237 -216 240 -242L196 -248C189 -179 173 -119 134 -79C144 -72 159 -56 166 -48C184 -68 199 -94 211 -122C224 -105 236 -86 244 -72ZM422 -81C409 -103 382 -138 357 -166C364 -190 369 -215 372 -242L329 -247C321 -178 301 -120 261 -81C270 -73 286 -58 292 -50C312 -69 328 -94 341 -122C361 -97 381 -68 392 -50ZM134 -40V-265H424V-40ZM424 -322H134V-521H78V17H424V54H482V-522H424ZM625 -229C596 -131 547 -32 488 33C505 42 534 62 547 73C604 2 659 -106 693 -214ZM779 -205C827 -116 879 5 899 76L962 48C941 -23 887 -139 838 -228Z"/>
</svg>