<svg xmlns="http://www.w3.org/2000/svg" viewBox="0 -1000 1000 1000">
	<path fill="#000000" d="M134 -40V-265H418V-89C403 -110 380 -141 357 -166C364 -190 369 -215 372 -242L329 -247C323 -192 309 -145 283 -107C271 -124 248 -149 226 -169C232 -193 237 -217 240 -242L196 -248C189 -179 173 -119 134 -79C144 -72 159 -56 166 -48C185 -69 200 -95 212 -125C228 -107 243 -88 253 -74L280 -102C274 -95 268 -88 261 -81C270 -73 286 -58 292 -50C312 -69 328 -94 341 -122C361 -97 381 -68 393 -50L418 -76V-40ZM418 -376C403 -397 379 -428 356 -453C363 -477 368 -501 371 -527L328 -533C320 -465 300 -409 260 -370C270 -363 285 -346 291 -339C311 -358 328 -383 341 -411C360 -387 379 -359 391 -340L418 -368V-322H134V-521H78V17H418V54H476V-521H418ZM197 -534C190 -465 174 -407 135 -367C146 -360 161 -343 167 -336C186 -356 201 -383 213 -412C228 -394 242 -377 251 -363L282 -395C270 -411 248 -434 227 -455C233 -478 238 -502 241 -528ZM318 -691H473V-748H318V-836H254V-615H175V-779H115V-615H44V-555H499V-615H318ZM851 -310V-205H629V-310ZM629 -35V-143H851V-35ZM564 76H629V29H851V76H919V-373H564ZM669 -647H790V-515H669ZM857 -515V-647H939V-710H857V-835H790V-710H669V-835H602V-710H529V-647H602V-515H511V-451H956V-515Z"/>
</svg>