<svg xmlns="http://www.w3.org/2000/svg" viewBox="0 -1000 1000 1000">
	<path fill="#000000" d="M894 -811H818V-704H536V-837H461V-704H191V-811H117V-642H894ZM232 -426H779V-356H232ZM232 -543H779V-474H232ZM858 -307V-593H157V-307ZM222 -14V-142H486V-203H222V-274H148V-46C148 -14 126 -6 111 -2C121 17 131 50 134 70C158 60 194 54 501 21C499 6 497 -21 498 -40ZM668 -2C620 -2 611 -7 611 -34V-140H881V-201H611V-273H537V-34C537 40 563 60 661 60H844C922 60 943 32 952 -73C932 -78 904 -88 886 -100C883 -16 876 -2 837 -2Z"/>
</svg>