<svg xmlns="http://www.w3.org/2000/svg" viewBox="0 -1000 1000 1000">
	<path fill="#000000" d="M848 -385H622V-455H848ZM848 -263H622V-336H848ZM848 -141H622V-214H848ZM945 -570V-626H526V-570H698C694 -549 689 -527 683 -507H558V-90H914V-507H747C754 -527 762 -548 769 -570ZM905 -814H829V-729H536V-837H463V-729H184V-814H111V-672H905ZM189 -79C155 -39 98 0 43 29C59 38 84 57 95 68C148 36 211 -14 251 -60ZM179 -133V-178H390V-133ZM390 -439V-391H179V-439ZM179 -265H390V-218H179ZM390 -305H179V-351H390ZM505 -79V-133H455V-494H290C296 -510 302 -527 308 -545H487V-599H327L343 -652L268 -661C265 -642 260 -622 255 -599H68V-545H241C236 -527 231 -510 225 -494H115V-133H50V-79H354L309 -52C351 -19 403 27 427 57L479 25C454 -5 402 -48 360 -79ZM641 -73C611 -36 547 10 490 36C506 46 529 66 540 79C596 52 663 3 704 -42ZM773 -37C820 -2 875 45 907 80L969 44C933 10 874 -36 822 -71Z"/>
</svg>