<svg xmlns="http://www.w3.org/2000/svg" viewBox="0 -1000 1000 1000">
	<path fill="#000000" d="M899 -819H823V-740H535V-837H463V-740H182V-819H109V-688H899ZM608 -618H816V-571H608ZM884 -532V-656H543V-532ZM201 -618H408V-571H201ZM475 -532V-656H137V-532ZM182 -441H938V-494H118V-297C118 -197 110 -65 38 32C52 41 79 65 88 79C168 -28 182 -184 182 -296ZM462 -213H315V-260H462ZM315 -85H462V-39C411 -37 361 -35 315 -33ZM462 -126H315V-173H462ZM590 -260V-306H422V-354H566V-399H225V-354H358V-306H194V-260H252V-31L176 -28L181 26C259 22 359 16 462 10V75H524V-260ZM680 -277H830C814 -215 789 -163 755 -119C721 -162 694 -211 675 -266ZM946 -277V-333H703C713 -360 722 -388 729 -416L668 -428C643 -331 599 -237 541 -175C557 -166 582 -145 593 -134C610 -154 626 -177 642 -203C661 -156 686 -113 715 -75C666 -30 605 4 530 29C544 41 566 66 574 79C645 51 706 16 756 -30C802 17 859 53 924 77C933 61 952 36 965 23C900 3 844 -30 798 -73C843 -128 877 -195 897 -277Z"/>
</svg>