<svg xmlns="http://www.w3.org/2000/svg" viewBox="0 -1000 1000 1000">
	<path fill="#000000" d="M314 -490H691V-392H314ZM857 -254H550V-336H765V-546H243V-336H475V-254H154V32H228V-186H475V77H550V-186H782V-46C782 -34 777 -31 762 -30C747 -29 694 -29 634 -31C644 -11 656 16 660 37C737 37 787 37 818 25C849 14 857 -6 857 -45ZM760 -829C741 -793 705 -740 677 -707L737 -682C766 -712 804 -758 837 -802ZM918 -682H544V-837H469V-682H260L322 -710C305 -743 270 -792 237 -827L171 -800C200 -764 234 -715 249 -682H89V-468H160V-617H845V-468H918Z"/>
</svg>