<svg xmlns="http://www.w3.org/2000/svg" viewBox="0 -1000 1000 1000">
	<path fill="#000000" d="M922 -757H707C698 -782 685 -814 671 -839L610 -822C619 -802 628 -779 636 -757H425V-698H922ZM954 -603H793C804 -625 818 -651 832 -678L766 -694C757 -668 739 -631 725 -603H562L608 -616C602 -636 588 -670 576 -694L518 -682C529 -657 541 -625 546 -603H390V-544H954ZM369 -648H246V-835H186V-648H65V-130H117V-583H186V77H246V-583H315V-207C315 -199 313 -198 307 -197C300 -197 283 -197 263 -198C272 -180 280 -152 282 -135C313 -135 334 -136 350 -148C366 -159 369 -179 369 -206ZM515 -321H826V-252H515ZM515 -436H826V-367H515ZM959 -137H708V-201H898V-487H446V-201H635V-137H382V-76H635V75H708V-76H959Z"/>
</svg>