<svg xmlns="http://www.w3.org/2000/svg" viewBox="0 -1000 1000 1000">
	<path fill="#000000" d="M942 -599C932 -647 899 -719 864 -775L806 -754C840 -698 871 -622 881 -575ZM691 -729H585C574 -759 555 -798 537 -827L475 -808C488 -785 502 -755 512 -729H379V-670H691ZM350 -648H237V-835H182V-648H76V-128H127V-581H182V77H237V-581H301V-210C301 -202 299 -201 294 -200C289 -200 275 -200 259 -201C267 -183 274 -155 276 -137C301 -137 320 -138 333 -150C347 -162 350 -181 350 -209ZM463 -121V-215H610V-121ZM610 -360V-269H463V-360ZM887 -396C868 -336 843 -279 813 -227C803 -294 795 -378 790 -471H957V-536H787C783 -628 781 -729 781 -836H712C714 -729 716 -629 720 -536H624C635 -569 647 -611 658 -650L599 -660C593 -625 581 -574 570 -536H496C492 -571 481 -621 468 -659L416 -651C427 -615 435 -571 440 -536H372V-471H724C731 -343 742 -232 759 -146C731 -108 701 -74 669 -44V-415H407V3H463V-67H610V-40H665C639 -16 612 5 585 24C598 35 618 54 627 66C681 29 731 -18 778 -73C804 9 839 55 888 57C920 58 953 23 972 -105C960 -113 933 -133 921 -148C916 -73 906 -28 891 -28C865 -30 845 -69 829 -139C876 -206 916 -284 946 -368Z"/>
</svg>