<svg xmlns="http://www.w3.org/2000/svg" viewBox="0 -1000 1000 1000">
	<path fill="#000000" d="M242 -281H767V-235H242ZM242 -371H767V-326H242ZM890 -142H536V-190H835V-416H525C535 -432 545 -451 556 -470L505 -482L506 -524L319 -509V-559H484V-602H319V-649H502V-693H319V-740H472V-783H319V-836H249V-783H103V-740H249V-693H67V-649H249V-602H88V-559H249V-504C178 -498 113 -493 61 -490L67 -439C176 -449 331 -463 483 -477C477 -459 467 -435 458 -416H176V-190H463V-142H130V60H201V-86H463V76H536V-86H818V-12C818 0 814 3 799 4C784 5 736 5 678 3C688 19 698 40 703 59C775 59 823 59 853 50C882 40 890 23 890 -12ZM700 -557C682 -591 641 -639 605 -673L555 -646C592 -611 631 -560 648 -526ZM837 -747V-835H769V-747H509V-690H769V-516C769 -505 765 -501 752 -501C739 -500 699 -500 652 -501C662 -485 672 -463 677 -446C739 -446 778 -446 804 -456C829 -466 837 -480 837 -515V-690H945V-747Z"/>
</svg>