<svg xmlns="http://www.w3.org/2000/svg" viewBox="0 -1000 1000 1000">
	<path fill="#000000" d="M795 -93C781 -127 742 -176 708 -211L663 -187C697 -150 734 -99 749 -65ZM953 -265H521V-211H953ZM767 -360H702V-457H767ZM812 -457H877V-360H812ZM657 -360H595V-457H657ZM699 -674V-614H538V-559H699V-504H546V-313H928V-504H763V-559H935V-614H763V-674ZM945 -702V-763H569C555 -789 534 -821 514 -845L451 -819C464 -802 477 -783 487 -763H109V-449C109 -305 103 -104 36 38C52 45 82 66 93 78C166 -72 177 -296 177 -450V-702ZM373 -239C326 -228 247 -218 181 -213C188 -199 195 -181 197 -169C220 -169 247 -171 272 -173V-118H201V-72H272V-9L178 1L185 52C248 46 322 36 398 26L397 -21L323 -13V-72H390V-118H323V-179C352 -183 379 -188 404 -192ZM423 -539H310V-594H423ZM310 -394H423V-334C384 -332 346 -329 310 -327ZM423 -437H310V-495H423ZM530 -594V-645H208V-594H254V-324L192 -321L198 -264C264 -269 342 -276 423 -283V79H481V-594ZM550 44C577 5 590 -59 597 -116L547 -130C541 -77 526 -17 502 19ZM703 20C680 20 677 18 677 0V-137H621V0C621 57 636 72 696 72H782C827 72 843 52 849 -26C832 -30 811 -38 799 -47C797 14 793 20 774 20ZM827 -124C864 -74 896 -6 906 39L959 18C949 -28 916 -94 877 -143Z"/>
</svg>