<svg xmlns="http://www.w3.org/2000/svg" viewBox="0 -1000 1000 1000">
	<path fill="#000000" d="M911 -687C898 -721 866 -772 835 -809L784 -786C813 -748 843 -695 856 -660ZM410 -569C387 -593 355 -621 317 -651C356 -696 390 -744 417 -796L355 -817C331 -772 302 -728 267 -689C222 -723 173 -755 130 -781L89 -740C132 -713 180 -679 225 -645C173 -595 115 -553 55 -521C70 -508 92 -481 102 -467C162 -504 222 -551 275 -605C312 -574 343 -546 365 -522ZM298 -490C325 -466 357 -431 372 -409L415 -441C400 -464 366 -496 339 -519ZM115 -197C115 -141 100 -72 30 -19C42 -13 64 7 73 18C149 -42 170 -128 170 -195V-274H115ZM412 -318V-382H280V-513H215V-382H63V-318H215V76H280V-318ZM603 -93V-386H677V-455H453V-386H539V-74C508 -65 478 -57 452 -50C451 -62 449 -80 448 -92C439 -89 427 -88 418 -88H392C385 -88 384 -94 384 -118V-275H328V-119C328 -55 339 -35 392 -35H419H425L444 23C521 -1 622 -32 716 -62L707 -123ZM956 -582V-652H765C763 -711 762 -772 761 -833H690C691 -771 693 -711 695 -652H440V-582H698C715 -204 759 63 875 67C910 68 948 28 967 -137C954 -143 922 -159 909 -174C903 -80 892 -25 876 -26C820 -29 783 -270 768 -582Z"/>
</svg>