<svg xmlns="http://www.w3.org/2000/svg" viewBox="0 -1000 1000 1000">
	<path fill="#000000" d="M316 -506V-438H957V-506H690V-636H910V-700H690V-836H621V-506H495V-753H426V-506ZM246 -836C202 -766 113 -680 36 -628C49 -614 67 -589 77 -574C161 -634 255 -726 314 -811ZM270 -634C211 -529 115 -425 24 -358C37 -342 59 -307 66 -292C104 -322 142 -359 179 -398V77H249V-480C281 -523 312 -567 336 -611ZM690 -229H913V-298H690V-409H619V-36C553 -65 501 -121 469 -226C477 -273 483 -323 488 -377L414 -382C401 -205 366 -63 269 25C286 36 316 62 327 76C380 23 417 -44 443 -124C512 22 621 59 773 59H940C943 40 954 6 964 -11C934 -11 800 -10 778 -11C747 -11 717 -13 690 -17Z"/>
</svg>