<svg xmlns="http://www.w3.org/2000/svg" viewBox="0 -1000 1000 1000">
	<path fill="#000000" d="M852 -585H753V-722H852ZM698 -585H600V-722H698ZM545 -585H451V-722H545ZM918 -786H388V-521H918ZM97 -368C126 -441 142 -554 145 -637L90 -644C85 -563 68 -454 41 -389ZM173 76H242V-837H173ZM249 -655C273 -592 299 -506 309 -455L363 -480C354 -528 326 -610 300 -674ZM589 -355H949V-422H702C692 -449 673 -486 655 -514L587 -497C601 -475 615 -447 624 -422H354V-355H517V-322C517 -226 493 -79 314 28C331 39 356 63 367 79C496 -1 553 -105 575 -198H799C789 -72 779 -21 764 -6C756 2 746 4 730 4C714 4 669 3 624 -2C635 18 644 46 645 68C692 70 738 71 763 69C790 67 808 60 824 42C850 15 861 -56 873 -233C874 -244 875 -264 875 -264H586C588 -283 589 -303 589 -320Z"/>
</svg>