<svg xmlns="http://www.w3.org/2000/svg" viewBox="0 -1000 1000 1000">
	<path fill="#000000" d="M897 -658C887 -578 865 -460 845 -390L894 -377C915 -447 937 -558 955 -646ZM713 -386C703 -451 677 -567 654 -656L605 -645C628 -556 652 -437 661 -369ZM91 -372C122 -442 137 -558 137 -645L83 -653C82 -567 67 -456 37 -394ZM163 76H232V-837H163ZM613 -298C599 -320 536 -411 511 -444V-476H608V-546H511V-734C553 -744 593 -756 627 -768L577 -823C517 -797 412 -772 320 -758C328 -742 338 -718 341 -703C374 -708 411 -714 446 -720V-546H338C330 -583 310 -640 293 -684L245 -668C264 -620 282 -555 288 -515L323 -530V-476H426C398 -353 341 -213 285 -137C297 -120 314 -94 322 -73C369 -138 414 -246 446 -354V76H511V-359C535 -316 564 -264 577 -236ZM803 -829H739V-587C739 -394 725 -159 579 28C593 38 616 63 625 79C707 -23 752 -139 775 -255C802 -113 843 2 915 70C925 52 947 26 962 13C864 -69 821 -263 801 -476C803 -513 803 -551 803 -587Z"/>
</svg>