<svg xmlns="http://www.w3.org/2000/svg" viewBox="0 -1000 1000 1000">
	<path fill="#000000" d="M222 43C237 -13 255 -100 267 -156L217 -174C206 -119 184 -32 167 22ZM400 13C367 13 361 9 361 -14V-181H299V-14C299 50 319 67 393 67H524C586 67 604 40 610 -78C593 -82 569 -91 556 -102C553 -1 547 13 517 13ZM516 -109C497 -145 458 -206 427 -251L378 -228C408 -182 445 -119 464 -81ZM580 -170C614 -109 655 -24 675 26L730 1C710 -48 667 -129 632 -190ZM504 -326H308V-445H504ZM839 -625C815 -560 783 -499 743 -445C735 -516 729 -593 726 -674H945V-736H851L891 -771C864 -791 812 -821 773 -841L730 -807C767 -786 814 -756 842 -736H724C723 -769 723 -803 723 -837H650C651 -803 651 -769 653 -736H130V-525C130 -366 122 -131 39 38C55 45 85 65 98 78C185 -99 199 -357 199 -525V-555H611V-609H199V-674H655C660 -567 669 -466 681 -371C645 -336 607 -304 565 -278V-500H245V-271H553L546 -267C562 -255 588 -229 599 -216C632 -238 663 -262 692 -289C728 -74 785 73 866 73C929 73 951 26 962 -127C944 -134 921 -150 906 -166C901 -51 891 1 875 1C832 1 785 -140 754 -352C818 -424 870 -512 906 -609Z"/>
</svg>