<svg xmlns="http://www.w3.org/2000/svg" viewBox="0 -1000 1000 1000">
	<path fill="#000000" d="M152 -545H436L407 -514C460 -491 523 -453 555 -426L594 -470C565 -494 513 -523 466 -545H845V-425H918V-605H737C766 -640 797 -684 824 -725L754 -751C732 -708 692 -646 662 -605H292L330 -622C320 -651 294 -694 266 -725C336 -728 409 -732 478 -738L421 -717C445 -683 467 -636 474 -605L538 -628C531 -660 508 -705 483 -738C626 -749 764 -764 867 -785L818 -837C657 -804 358 -784 114 -777C120 -762 127 -737 129 -720C171 -721 213 -723 256 -725L205 -704C228 -674 252 -634 263 -605H82V-432H152ZM686 -462C744 -416 810 -348 840 -304L893 -344C863 -390 795 -454 737 -498ZM169 -301C229 -339 262 -404 283 -466L225 -490C207 -433 171 -374 117 -342ZM332 -190H687C642 -145 580 -108 510 -79C435 -106 370 -138 314 -177ZM757 -250L743 -247H400C420 -266 439 -286 456 -306L439 -312H600C664 -312 684 -332 691 -412C672 -416 646 -424 632 -434C628 -375 622 -367 591 -367H445C403 -367 396 -371 396 -392V-487H326V-391C326 -344 338 -324 380 -316C349 -280 309 -247 264 -217C240 -239 217 -263 199 -288L139 -263C160 -234 183 -207 210 -182C165 -157 117 -134 70 -116C85 -105 112 -80 122 -67C168 -87 214 -112 259 -139C304 -104 357 -72 415 -46C306 -14 184 6 59 17C73 31 91 62 98 79C240 63 381 36 503 -9C621 33 758 61 905 75C914 54 932 24 947 6C821 -3 704 -21 599 -51C683 -93 754 -148 803 -218Z"/>
</svg>