<svg xmlns="http://www.w3.org/2000/svg" viewBox="0 -1000 1000 1000">
	<path fill="#000000" d="M767 -542C739 -569 686 -606 642 -632C654 -657 663 -684 669 -713L614 -719C595 -638 553 -574 488 -530C502 -522 524 -504 531 -494C566 -519 595 -551 619 -588C660 -560 706 -526 729 -502ZM796 -474H467V-733H796ZM867 -797H399V-410H867ZM91 -375C132 -438 146 -541 148 -634L88 -643C86 -557 72 -461 37 -407ZM174 75H246V-837H174ZM367 -530C356 -569 328 -631 303 -679L251 -656C276 -606 302 -541 313 -501ZM432 -262H526V-19H432ZM677 -262V-19H583V-262ZM829 -262V-19H734V-262ZM897 -19V-327H368V-19H300V48H957V-19Z"/>
</svg>