<svg xmlns="http://www.w3.org/2000/svg" viewBox="0 -1000 1000 1000">
	<path fill="#000000" d="M449 -751V-681H180V-751ZM169 -427H321V-216H384V-427H549V-478H172C178 -531 180 -582 180 -626V-629H517V-803H113V-626C113 -519 105 -368 39 -257C54 -250 83 -229 94 -216C136 -285 157 -371 169 -454ZM490 -528V-578H218V-528ZM442 -205C482 -167 526 -113 544 -78L598 -116C579 -151 534 -203 494 -240ZM730 -388C715 -435 674 -502 632 -551L577 -527C617 -476 656 -407 669 -361ZM424 -380C455 -345 488 -295 502 -262L552 -286C539 -318 504 -365 473 -400ZM230 -398C215 -353 191 -311 159 -278C172 -271 194 -256 202 -248C234 -283 265 -336 281 -386ZM116 28C150 -27 185 -111 208 -170L148 -196C127 -138 89 -55 52 -2ZM412 -7C349 -7 338 -12 338 -38V-189H268V-37C268 38 297 58 409 58H635C729 58 752 29 762 -96C742 -100 712 -111 696 -123C691 -21 683 -7 631 -7ZM769 -178C808 -118 849 -36 865 16L932 -13C915 -63 871 -142 831 -201ZM845 -671V-832H775V-671H547V-605H775V-290C775 -277 771 -274 757 -273C745 -273 702 -273 655 -274C665 -255 676 -227 680 -209C744 -208 785 -210 810 -221C837 -232 845 -251 845 -290V-605H949V-671Z"/>
</svg>