<svg xmlns="http://www.w3.org/2000/svg" viewBox="0 -1000 1000 1000">
	<path fill="#000000" d="M154 -711H846V-606H918V-765H543C537 -790 525 -822 512 -845L445 -825C453 -807 461 -786 467 -765H85V-606H154ZM768 -237H629V-321H768ZM565 -237H428V-321H565ZM364 -237H232V-321H364ZM841 -369H162V-188H841ZM416 -163C464 -124 517 -70 541 -32L602 -59C576 -98 522 -151 474 -187ZM906 -461H534V-508H809V-555H534V-605C629 -610 716 -618 786 -628L745 -671C690 -663 616 -656 534 -651V-696H461V-649C370 -644 277 -642 190 -641C195 -630 202 -610 203 -597C284 -597 373 -598 461 -602V-555H190V-508H461V-461H95V-410H906ZM111 51C148 8 184 -56 211 -104L152 -133C128 -86 89 -22 50 16ZM412 6C350 6 338 2 338 -23V-134H264V-23C264 45 296 59 409 59H644C733 59 756 34 764 -69C745 -72 718 -81 701 -92C697 -7 688 6 638 6ZM761 -130C806 -83 850 -17 866 28L930 4C913 -43 868 -107 821 -153Z"/>
</svg>