<svg xmlns="http://www.w3.org/2000/svg" viewBox="0 -1000 1000 1000">
	<path fill="#000000" d="M601 -791H543V-680H473V-836H418V-680H349V-791H292V-629H601ZM598 -547V-598H293V-547ZM195 -834C165 -780 104 -714 49 -671C63 -660 82 -639 93 -627C152 -674 217 -747 259 -812ZM115 36C149 -14 184 -89 209 -144L147 -173C124 -119 86 -44 49 4ZM208 -675C176 -597 109 -504 39 -446C51 -433 68 -408 76 -393C98 -412 119 -432 140 -456V-202H209V-544C234 -580 256 -618 273 -654ZM412 -5C348 -5 336 -10 336 -36V-170H263V-36C263 39 294 58 409 58H644C740 58 763 29 773 -94C752 -99 723 -109 706 -121C701 -20 692 -5 638 -5ZM606 -80C578 -122 519 -183 470 -226L416 -191C464 -145 522 -80 549 -39ZM764 -162C803 -106 847 -31 866 17L931 -14C910 -61 865 -134 825 -187ZM840 -646C827 -569 808 -501 781 -443C752 -504 732 -573 717 -646ZM946 -646V-710H737C746 -747 755 -785 762 -825L700 -835C680 -717 645 -603 590 -526C604 -515 625 -488 633 -476C651 -501 668 -529 682 -560C699 -495 720 -435 746 -382C711 -330 665 -287 607 -254L606 -295L475 -281V-345H599V-394H475V-461C519 -466 561 -473 594 -480L559 -524C495 -509 377 -500 283 -497C290 -483 297 -465 299 -452C334 -452 372 -453 410 -456V-394H284V-345H410V-275C358 -271 311 -266 272 -263L280 -210C368 -220 482 -233 595 -248L579 -239C592 -226 609 -199 614 -185C682 -222 737 -268 780 -323C816 -268 860 -222 914 -189C923 -207 943 -229 956 -240C899 -271 853 -318 816 -377C858 -451 885 -540 901 -646Z"/>
</svg>