<svg xmlns="http://www.w3.org/2000/svg" viewBox="0 -1000 1000 1000">
	<path fill="#000000" d="M786 -840C720 -794 603 -741 499 -704C507 -692 516 -674 520 -661C627 -698 750 -747 834 -798ZM579 -87C559 -121 516 -175 479 -215L427 -184C463 -143 504 -86 523 -52ZM357 -332C390 -302 428 -259 447 -231L488 -265C470 -291 430 -333 398 -362ZM580 -377C557 -334 521 -290 483 -258C497 -249 519 -228 527 -219C565 -254 608 -311 635 -360ZM112 34C159 -14 194 -89 221 -152L161 -175C138 -116 99 -42 51 3ZM135 -364C112 -320 73 -275 33 -242C47 -234 70 -218 80 -208C118 -244 163 -299 190 -348ZM164 -493H389V-440H164ZM389 -757V-705H164V-757ZM389 -619H164V-666H389ZM164 -580H389V-531H164ZM305 -196V-388H498V-440H452V-808H105V-440H54V-388H245V-196ZM428 -10C372 -10 363 -14 363 -40V-178H290V-39C290 34 319 53 422 53H620C709 53 732 22 741 -109C721 -114 692 -124 675 -135C670 -26 663 -10 614 -10ZM878 -434C892 -415 903 -398 911 -383L956 -411C934 -450 888 -505 847 -544L804 -520C816 -507 830 -492 843 -477L650 -463C732 -510 817 -570 897 -636L844 -669C819 -646 792 -623 765 -602L635 -593C680 -623 725 -659 768 -698L714 -725C666 -672 597 -623 576 -611C556 -598 540 -590 524 -588C532 -574 540 -545 543 -532C556 -538 577 -542 698 -553C655 -524 620 -501 602 -491C570 -472 543 -459 521 -457C528 -441 537 -410 540 -399C554 -404 574 -407 683 -417V-196H746V-423ZM779 -162C808 -103 841 -23 854 24L922 2C908 -46 874 -123 843 -181ZM788 -356C831 -317 880 -263 904 -228L949 -262C925 -298 874 -350 831 -387Z"/>
</svg>