<svg xmlns="http://www.w3.org/2000/svg" viewBox="0 -1000 1000 1000">
	<path fill="#000000" d="M928 -667C901 -709 842 -771 793 -813L739 -780C788 -735 846 -670 872 -628ZM163 -387H426V-302H163ZM163 -526H426V-442H163ZM536 -94V-161H328V-244H496V-584H328V-667H522V-731H328V-836H256V-731H59V-667H256V-584H95V-244H256V-161H43V-94H256V77H328V-94ZM869 -476C841 -398 800 -319 749 -247C734 -319 721 -404 711 -498L959 -527L951 -593L704 -563C697 -647 692 -738 689 -831H617C621 -734 626 -642 633 -555L511 -541L518 -475L639 -490C651 -368 668 -261 691 -174C625 -98 548 -35 466 6C487 19 511 42 523 59C591 22 657 -32 715 -95C753 12 805 75 875 78C917 79 954 33 976 -125C961 -131 931 -150 918 -165C909 -64 895 -10 874 -11C834 -14 799 -69 772 -162C838 -247 892 -345 929 -443Z"/>
</svg>