<svg xmlns="http://www.w3.org/2000/svg" viewBox="0 -1000 1000 1000">
	<path fill="#000000" d="M364 -585L351 -582H84V-515H323C272 -355 169 -231 52 -161C70 -150 97 -124 108 -108C241 -194 357 -350 410 -564ZM75 41H922V-31H75ZM852 -610C813 -550 752 -473 697 -416C661 -476 631 -542 609 -609C679 -657 748 -712 800 -766L750 -804L733 -800H175V-733H662C606 -682 530 -628 464 -593V-166C464 -151 459 -147 441 -146C424 -145 362 -145 295 -147C305 -126 316 -99 320 -78C407 -78 463 -78 496 -89C528 -101 539 -121 539 -166V-566L556 -576C622 -377 737 -201 886 -112C898 -132 921 -159 939 -173C859 -215 789 -282 731 -363C790 -419 859 -499 915 -566Z"/>
</svg>