<svg xmlns="http://www.w3.org/2000/svg" viewBox="0 -1000 1000 1000">
	<path fill="#000000" d="M874 -809C851 -751 806 -671 772 -620L832 -594C868 -643 910 -716 943 -782ZM560 -621C545 -672 502 -748 458 -804L398 -775C440 -718 481 -639 497 -588ZM354 -404L250 -371V-567H362V-636H250V-836H181V-636H55V-567H181V-350C127 -334 79 -319 40 -309L59 -237L181 -276V-17C181 -2 176 2 163 2C152 2 113 2 70 1C80 22 89 52 91 70C155 71 193 68 216 56C241 44 250 25 250 -16V-299C288 -311 326 -323 363 -336ZM909 -553H704V-837H632V-553H417V-278C417 -179 412 -54 360 37C377 45 406 68 417 81C477 -20 486 -168 486 -278V-487H839V-261C715 -232 586 -204 499 -186L524 -122C612 -143 727 -171 839 -200V-18C839 -3 834 1 819 2C803 3 752 3 695 0C705 21 716 51 719 71C793 71 842 70 872 58C901 46 909 25 909 -16ZM516 -371C606 -352 718 -314 775 -282L806 -336C746 -366 634 -402 546 -419Z"/>
</svg>