<svg xmlns="http://www.w3.org/2000/svg" viewBox="0 -1000 1000 1000">
	<path fill="#000000" d="M331 -401L239 -367V-574H342V-643H239V-838H170V-643H49V-574H170V-342C120 -324 75 -309 39 -298L56 -224L170 -267V-10C170 4 165 8 152 8C141 9 102 9 59 7C69 28 78 58 80 77C144 77 182 75 205 63C230 51 239 31 239 -10V-294L345 -334ZM847 -259C823 -293 714 -430 680 -469V-488H829V-545H680V-684H619V-545H465V-488H605C566 -390 501 -285 440 -233C453 -222 473 -203 485 -188C531 -235 581 -312 619 -394V-76H680V-397C723 -337 783 -248 805 -209ZM434 -39V-722H854V-39ZM369 -786V78H434V27H854V78H922V-786Z"/>
</svg>