<svg xmlns="http://www.w3.org/2000/svg" viewBox="0 -1000 1000 1000">
	<path fill="#000000" d="M866 -831C752 -798 538 -777 365 -766C372 -751 381 -726 383 -709C560 -719 777 -739 912 -776ZM696 -567C691 -603 672 -662 653 -706L593 -692C612 -648 628 -588 633 -550ZM519 -559C510 -595 484 -650 457 -690L400 -671C425 -629 450 -572 459 -537ZM426 -467H872V-370H942V-530H815C849 -577 886 -641 917 -696L848 -719C825 -662 782 -582 749 -532L755 -530H358V-369H426ZM348 -341L339 -409L236 -377V-567H343V-636H236V-836H167V-636H42V-567H167V-355C116 -340 69 -326 32 -315L51 -244L167 -282V-10C167 5 161 8 149 8C138 9 99 9 56 8C65 29 75 59 77 77C141 78 178 75 202 63C226 51 236 32 236 -10V-303ZM790 -288C755 -220 705 -165 645 -120C587 -166 543 -222 512 -288ZM838 -354L825 -351H408V-288H489L446 -275C480 -200 526 -135 585 -82C505 -37 413 -8 318 10C331 26 346 56 352 75C456 52 555 17 641 -37C717 17 808 55 915 78C925 58 944 30 960 14C861 -4 774 -35 701 -79C782 -144 844 -227 882 -335Z"/>
</svg>