<svg xmlns="http://www.w3.org/2000/svg" viewBox="0 -1000 1000 1000">
	<path fill="#000000" d="M598 -790C583 -734 554 -651 531 -601L580 -579C603 -627 631 -702 653 -766ZM281 -363L206 -334V-565H287V-634H206V-836H144V-634H46V-565H144V-310C102 -295 63 -281 31 -270L52 -202C80 -213 112 -225 144 -239V-4C144 8 139 12 128 12C119 12 87 12 50 11C59 29 67 57 70 73C122 74 156 71 176 61C198 49 206 32 206 -5V-263C235 -276 265 -288 294 -301ZM412 -600C401 -647 374 -727 350 -790L299 -775C323 -712 347 -629 357 -580ZM396 -431C388 -337 377 -232 359 -158C370 -155 388 -148 395 -144C411 -215 426 -326 434 -423ZM646 -403C657 -390 669 -372 674 -362C689 -388 702 -415 714 -445C728 -347 748 -254 774 -173C742 -88 699 -18 644 30C646 23 646 16 646 7ZM862 -594C850 -474 833 -362 805 -265C781 -353 763 -453 750 -558C754 -570 757 -581 760 -594ZM952 -594V-662H775C785 -715 794 -770 801 -825L739 -835C723 -688 696 -545 646 -443V-566H506V-835H440V-566H302V76H356V-503H440V-501H449V63H497V-501H506V-503H589V7C589 15 586 17 578 18C571 18 550 18 525 17C533 33 541 57 543 73C580 73 605 71 623 62C634 56 640 47 644 35C660 46 678 64 688 78C735 35 774 -23 805 -94C835 -25 870 34 914 78C925 60 945 37 961 26C909 -20 868 -90 835 -173C876 -293 901 -438 915 -594ZM579 -155C574 -219 558 -335 538 -427L504 -422C521 -331 537 -212 541 -144Z"/>
</svg>