<svg xmlns="http://www.w3.org/2000/svg" viewBox="0 -1000 1000 1000">
	<path fill="#000000" d="M901 -773C890 -741 864 -689 846 -658L885 -639C905 -668 928 -711 951 -752ZM959 -506C930 -542 867 -601 817 -641C831 -695 837 -759 840 -835H781C775 -668 758 -569 648 -511C661 -501 677 -481 685 -467C740 -497 776 -537 799 -587C844 -547 893 -496 919 -464ZM753 -664C742 -692 719 -740 700 -774L658 -759C677 -723 698 -674 709 -644ZM608 -774C596 -741 572 -691 554 -659L592 -643C612 -671 635 -715 658 -755ZM630 -535C606 -563 558 -607 519 -642C533 -696 539 -759 542 -835H482C477 -670 458 -567 350 -509C362 -498 380 -479 387 -465C442 -495 478 -536 501 -588C534 -555 570 -519 590 -493ZM446 -652C436 -681 413 -733 393 -771L349 -757C368 -716 390 -663 400 -631ZM334 -382L239 -351V-567H335V-636H239V-836H170V-636H46V-567H170V-330C120 -314 74 -300 37 -291L47 -217C85 -229 126 -241 170 -256V-20C170 -5 165 -1 152 -1C140 0 99 0 54 -1C63 19 73 48 76 68C141 68 180 66 204 54C229 42 239 22 239 -20V-279C274 -291 309 -302 344 -314ZM646 -267C651 -297 654 -330 656 -364H589C587 -330 584 -297 579 -267H379V-205H567C540 -98 481 -21 340 25C355 36 373 61 380 77C540 20 606 -73 635 -205H818C808 -68 795 -11 777 5C769 13 760 14 745 14C728 14 687 14 643 10C655 28 661 53 662 73C707 75 751 76 774 74C800 72 818 66 835 48C861 21 876 -52 891 -236C892 -246 893 -267 893 -267ZM372 -295H435V-393H864V-295H929V-454H372Z"/>
</svg>