<svg xmlns="http://www.w3.org/2000/svg" viewBox="0 -1000 1000 1000">
	<path fill="#000000" d="M947 -679C931 -714 892 -767 858 -805L809 -778C843 -738 880 -684 896 -648ZM273 -440L227 -417V-567H305V-636H227V-836H162V-636H45V-567H162V-385C113 -360 68 -340 34 -324L57 -254C89 -270 125 -288 162 -307V-6C162 7 157 11 144 11C134 12 96 12 54 11C63 31 72 59 75 77C135 77 172 75 195 64C218 52 227 33 227 -6V-340C249 -351 270 -362 292 -374ZM327 79C383 29 409 -55 426 -133L368 -152C353 -78 324 -1 273 43ZM493 -127C509 -63 519 19 516 68L577 57C579 8 568 -72 550 -135ZM572 -680C562 -627 549 -577 533 -531C505 -562 466 -598 429 -625C438 -644 445 -661 452 -680ZM966 -205C938 -294 868 -439 800 -551H945V-616H784C791 -687 795 -761 797 -837H730C728 -761 726 -687 718 -616H618C627 -651 634 -690 639 -729L601 -741L589 -739H472C482 -769 490 -800 496 -828L434 -836C413 -735 366 -605 281 -510C295 -502 314 -480 324 -467C356 -501 382 -539 404 -579C444 -546 484 -506 510 -473C457 -349 380 -258 293 -208C308 -196 326 -171 334 -155C456 -232 554 -370 608 -571V-551H710C689 -413 642 -296 537 -222C553 -211 574 -187 585 -172C686 -246 737 -356 764 -486C822 -381 876 -259 899 -179ZM450 -462C391 -439 337 -419 295 -405L315 -349C362 -370 408 -392 459 -416ZM639 -127C667 -65 692 17 699 67L760 48C752 -2 725 -81 696 -143ZM788 -136C835 -70 883 19 902 76L963 48C944 -9 893 -95 845 -160Z"/>
</svg>