<svg xmlns="http://www.w3.org/2000/svg" viewBox="0 -1000 1000 1000">
	<path fill="#000000" d="M487 -492H785V-448H487ZM785 -659V-617H487V-659ZM785 -533H487V-576H785ZM384 -208C433 -240 460 -295 475 -346L425 -365C420 -346 412 -326 401 -309V-397H565L551 -383C595 -366 648 -335 673 -311L709 -346C690 -363 660 -382 627 -397H875V-314C853 -335 829 -357 805 -374L760 -346C809 -308 861 -253 884 -215L931 -246C920 -265 902 -286 881 -308H943V-448H851V-700H649C656 -715 662 -731 669 -749H931V-805H349V-749H595C591 -732 585 -716 580 -700H422V-448H335V-307H400C385 -282 365 -259 341 -245ZM327 -336L318 -405L231 -377V-567H318V-636H231V-836H162V-636H56V-567H162V-357C117 -342 76 -330 41 -321L61 -250L162 -282V-7C162 5 158 8 146 8C137 9 104 9 68 8C78 28 87 59 89 77C143 77 178 75 200 63C222 51 231 32 231 -8V-304ZM747 -138C719 -108 679 -80 627 -57C586 -73 548 -94 515 -116C525 -123 534 -131 541 -138ZM799 -189L786 -186H590C602 -200 613 -213 623 -227H719C769 -227 787 -243 792 -304C776 -306 753 -313 741 -321C738 -279 733 -273 711 -273H602C572 -273 566 -276 566 -295V-359H505V-295C505 -253 516 -236 551 -230C532 -205 504 -178 470 -154C457 -165 445 -178 435 -192L379 -172C392 -155 407 -138 423 -122C395 -106 364 -90 329 -76C343 -66 363 -47 371 -32C407 -48 438 -65 468 -83C494 -64 523 -45 554 -28C482 -6 396 11 295 23C309 38 323 60 331 77C450 61 549 38 629 6C713 40 809 62 912 75C919 58 935 33 950 19C862 10 777 -6 702 -29C768 -66 816 -113 844 -166Z"/>
</svg>