<svg xmlns="http://www.w3.org/2000/svg" viewBox="0 -1000 1000 1000">
	<path fill="#000000" d="M282 -429L217 -403V-566H282V-634H217V-836H152V-634H47V-566H152V-376C107 -358 67 -343 33 -332L57 -263L152 -303V-4C152 8 147 12 136 12C127 12 93 12 57 11C66 30 74 59 77 76C131 77 165 74 187 63C209 51 217 33 217 -5V-329C243 -341 271 -353 297 -364ZM721 -185H802V-34H721ZM802 -572V-443H721V-572ZM802 -243H721V-383H802ZM560 -384H485V-478H560ZM353 -384V-478H426V-384ZM397 -699H525V-631H397ZM961 -34H859V-185H943V-243H859V-383H940V-443H859V-572H944V-637H718C738 -691 756 -750 770 -809C798 -758 826 -687 836 -642L893 -664C882 -710 852 -779 822 -831L771 -812L774 -825L715 -837C691 -722 652 -608 599 -528H485V-583H584V-699H641V-752H584V-836H525V-752H397V-836H340V-752H276V-699H340V-583H426V-528H302V-335H426V-280H298V-227H425C424 -205 422 -185 418 -165H273V-110H403C380 -53 335 -6 251 31C263 42 279 64 286 77C367 42 415 -4 444 -55C495 -20 550 25 579 57L617 9C586 -24 522 -73 466 -107L467 -110H629V-165H479C482 -185 483 -205 484 -227H615V-280H485V-335H612V-490C621 -482 629 -474 634 -468C643 -482 652 -497 661 -512V77H721V23H961Z"/>
</svg>