<svg xmlns="http://www.w3.org/2000/svg" viewBox="0 -1000 1000 1000">
	<path fill="#000000" d="M601 -583H804C784 -452 752 -342 704 -252C655 -345 620 -454 597 -573ZM947 -583V-653H624C642 -707 656 -764 668 -823L596 -837C563 -673 509 -515 431 -412V-766H81V-693H358V-482H93V-103C93 -68 77 -54 62 -47C74 -29 87 7 92 29C114 9 151 -8 440 -119C435 -136 430 -167 430 -189L167 -94V-409H429L424 -403C441 -391 469 -363 481 -349C506 -385 531 -425 553 -469C580 -362 614 -265 660 -182C601 -98 521 -35 416 13C430 29 453 63 460 81C562 31 642 -33 703 -113C759 -34 828 29 912 72C924 53 945 24 963 10C875 -30 804 -95 749 -178C813 -286 855 -419 882 -583Z"/>
</svg>