<svg xmlns="http://www.w3.org/2000/svg" viewBox="0 -1000 1000 1000">
	<path fill="#000000" d="M643 -582H818C799 -459 773 -354 731 -266C691 -359 662 -467 643 -582ZM286 -668H387C365 -634 342 -600 316 -569H286ZM957 -582V-652H665C681 -707 694 -765 705 -825L631 -837C602 -671 551 -512 475 -408L440 -434L426 -430H280C305 -453 328 -478 351 -503H525V-569H404C453 -637 495 -711 529 -793L460 -813C440 -763 416 -716 389 -671V-732H286V-837H217V-732H86V-668H217V-569H44V-503H255C192 -440 118 -386 37 -345C52 -331 79 -302 90 -288C132 -312 172 -340 211 -370H367C334 -338 291 -303 253 -281V-212C174 -203 102 -194 45 -187L54 -119C111 -126 179 -136 253 -146V-3C253 8 250 11 236 12C223 12 181 13 131 11C141 31 151 56 155 76C218 76 261 76 288 65C316 54 324 36 324 -2V-155C389 -165 455 -174 521 -183L520 -248C454 -239 388 -230 324 -222V-262C377 -298 434 -346 475 -394C494 -381 518 -359 529 -347C553 -382 577 -421 596 -465C619 -363 648 -269 687 -188C630 -102 553 -36 449 13C464 29 486 62 494 80C592 29 668 -35 727 -114C776 -34 837 30 913 75C924 54 947 27 965 12C885 -30 821 -99 772 -184C833 -291 870 -422 894 -582Z"/>
</svg>