<svg xmlns="http://www.w3.org/2000/svg" viewBox="0 -1000 1000 1000">
	<path fill="#000000" d="M129 -280C110 -195 77 -109 33 -51C49 -43 77 -26 90 -16C133 -78 172 -173 194 -267ZM815 -582C796 -456 768 -350 722 -260C680 -355 651 -464 630 -582ZM957 -582V-651H649C666 -706 680 -765 692 -823L619 -837C588 -678 536 -521 465 -419C472 -414 483 -406 493 -397H322V-501H452V-566H148C197 -613 246 -668 287 -726C363 -672 443 -607 492 -556L535 -614C484 -664 403 -728 322 -781C330 -792 337 -804 343 -816L284 -841C225 -733 124 -630 28 -566C39 -548 56 -510 61 -493C85 -511 107 -530 131 -551V-501H252V-397H61V-331H252V-4C252 8 247 12 234 12C222 13 179 13 133 12C142 31 153 58 156 77C222 77 262 76 287 65C313 53 322 35 322 -4V-331H502V-389C511 -381 520 -373 525 -367C545 -399 565 -435 583 -474C607 -366 637 -269 678 -185C622 -101 544 -36 441 13C455 28 477 62 485 79C583 29 659 -35 719 -113C769 -32 832 33 911 78C922 57 946 29 963 14C880 -28 815 -96 764 -181C826 -289 866 -420 891 -582ZM520 -85C506 -137 468 -222 430 -286L371 -264C407 -199 442 -111 455 -58Z"/>
</svg>