<svg xmlns="http://www.w3.org/2000/svg" viewBox="0 -1000 1000 1000">
	<path fill="#000000" d="M363 -806C399 -792 445 -766 468 -745L504 -785C480 -805 435 -829 398 -842ZM441 -591V-543H327V-591ZM327 -449V-498H441V-449ZM147 -449V-498H259V-449ZM259 -591V-543H147V-591ZM259 -641H85V-313H147V-404H259V-354H327V-404H441V-361C441 -354 439 -351 431 -351H378C384 -339 393 -322 397 -309C435 -308 462 -309 480 -316C498 -323 504 -333 504 -360V-641H327V-689H533V-745H327V-834H259V-745H51V-689H259ZM256 -165C259 -183 262 -200 265 -219H539V-276H332C323 -297 310 -325 299 -346L240 -328C247 -313 256 -294 264 -276H45V-219H196C182 -115 147 -24 44 27C60 39 79 62 88 78C170 35 215 -30 240 -107H402C396 -30 389 2 379 13C373 19 366 21 351 21C338 21 301 20 263 16C273 33 280 57 280 76C322 79 362 78 382 77C406 75 422 70 436 55C455 35 464 -15 472 -136C473 -146 474 -165 474 -165ZM688 -581H841C825 -455 801 -347 762 -254C726 -347 701 -454 684 -567ZM958 -581V-650H707C721 -707 733 -766 743 -826L675 -837C651 -670 608 -508 536 -406C551 -395 577 -367 587 -354C606 -384 624 -416 641 -452C661 -350 688 -257 723 -175C676 -93 612 -29 527 21C541 35 561 66 568 82C647 32 709 -30 758 -103C800 -27 854 36 920 80C931 61 952 35 969 21C898 -21 842 -88 798 -174C854 -284 889 -418 911 -581Z"/>
</svg>