<svg xmlns="http://www.w3.org/2000/svg" viewBox="0 -1000 1000 1000">
	<path fill="#000000" d="M175 -548H441V-607H198C234 -644 267 -686 295 -730C368 -679 447 -616 488 -572L530 -626C486 -670 402 -733 328 -782C333 -793 339 -804 344 -815L281 -837C230 -731 133 -624 38 -563C57 -548 77 -526 89 -510C118 -531 148 -555 175 -582ZM134 -432H220V-300H134ZM294 -72C274 -99 234 -141 198 -173C203 -197 208 -223 212 -248H273V-484H83V-248H149C133 -133 101 -35 39 29C53 39 77 61 87 72C130 24 161 -39 183 -114C211 -85 238 -54 252 -31ZM354 -432H439V-300H354ZM530 -68C507 -99 459 -144 415 -178C419 -201 423 -223 426 -248H492V-484H302V-248H363C349 -130 315 -33 245 28C260 38 283 61 292 71C342 23 377 -40 400 -118C434 -86 467 -52 486 -28ZM805 -606C791 -486 770 -382 737 -293C701 -387 674 -494 657 -606ZM940 -606V-672H673C688 -722 701 -775 711 -829L643 -842C617 -691 570 -546 499 -455C514 -444 541 -419 552 -407C573 -437 594 -471 613 -509C634 -401 663 -300 701 -212C646 -111 569 -33 458 21C472 35 496 64 504 78C605 22 679 -49 735 -139C783 -51 842 21 916 70C928 53 951 26 966 15C886 -34 822 -113 774 -211C824 -319 855 -449 873 -606Z"/>
</svg>