<svg xmlns="http://www.w3.org/2000/svg" viewBox="0 -1000 1000 1000">
	<path fill="#000000" d="M948 -640V-708H583C598 -745 612 -783 624 -823L557 -837C526 -725 471 -614 404 -544C420 -534 449 -514 462 -502C494 -540 524 -587 552 -640ZM163 -815C195 -771 234 -711 251 -674L318 -701C301 -737 261 -795 228 -838ZM406 -463H225C226 -508 227 -555 228 -604H430V-674H45V-604H157C154 -330 145 -104 38 26C57 37 81 61 92 77C181 -32 211 -196 222 -396H336C329 -135 322 -41 307 -20C300 -9 292 -7 279 -7C264 -7 231 -7 194 -10C204 8 212 36 213 57C250 58 288 58 310 56C335 53 352 45 368 24C392 -9 399 -114 406 -430ZM946 -226V-293H732C733 -308 733 -322 733 -336V-440H905V-507H619C632 -534 643 -563 653 -592L586 -607C558 -520 510 -433 451 -376C468 -367 497 -348 510 -337C536 -366 561 -401 585 -440H661V-337C661 -323 661 -309 660 -293H448V-226H650C630 -141 573 -47 417 25C432 38 456 62 466 77C639 -10 701 -123 723 -226ZM724 -166C786 -92 861 11 897 73L955 33C919 -27 841 -125 778 -199Z"/>
</svg>