<svg xmlns="http://www.w3.org/2000/svg" viewBox="0 -1000 1000 1000">
	<path fill="#000000" d="M222 -473C223 -515 224 -559 225 -604H445V-674H261L315 -694C299 -731 268 -788 240 -832L172 -809C198 -768 228 -711 243 -674H47V-604H155C152 -321 144 -102 31 27C49 37 74 60 85 77C180 -34 209 -198 219 -405H334C328 -129 321 -32 305 -10C297 1 289 4 276 3C261 3 226 3 189 0C198 19 205 47 206 67C246 69 284 70 308 67C333 64 350 56 365 35C390 0 396 -110 403 -439C404 -449 404 -473 404 -473ZM728 -228H917V-292H728V-467H858C844 -430 828 -393 814 -366L871 -345C897 -389 924 -458 948 -520L900 -536L890 -533H494C518 -564 538 -601 558 -640H955V-708H587C601 -745 614 -784 624 -824L551 -837C523 -725 473 -615 407 -546C425 -535 454 -510 466 -499C473 -506 480 -515 487 -523V-467H659V-50C616 -80 583 -132 560 -219C566 -268 570 -320 572 -372H506C500 -212 484 -59 401 25C417 35 439 58 448 74C494 27 523 -34 540 -107C599 26 690 57 810 57H944C947 38 955 6 966 -11C938 -10 835 -10 815 -10C784 -10 755 -12 728 -19Z"/>
</svg>