<svg xmlns="http://www.w3.org/2000/svg" viewBox="0 -1000 1000 1000">
	<path fill="#000000" d="M300 -701C284 -738 251 -798 225 -842L165 -816C191 -770 223 -708 236 -670ZM387 -466L349 -465V-466L208 -465C209 -508 210 -553 211 -599H413V-668H44L45 -599H142C139 -327 132 -103 35 27C53 39 75 64 86 82C169 -30 195 -196 205 -398H320C314 -137 307 -44 294 -22C287 -11 279 -9 267 -9C254 -9 224 -9 189 -13C200 7 207 36 209 58C243 60 277 60 298 57C321 54 337 46 352 25C374 -10 379 -116 387 -432ZM842 -514V-415H541V-514ZM904 -361V-568H479V-352C479 -238 469 -84 383 24C398 31 424 52 434 65C526 -51 541 -228 541 -352V-361ZM709 -8C670 -8 663 -13 663 -40V-175H907V-235H663V-329H602V-40C602 33 624 53 703 53H842C912 53 930 22 937 -101C921 -105 894 -115 881 -126C877 -24 871 -8 837 -8ZM564 -713C579 -747 594 -784 606 -821L541 -835C507 -721 444 -615 366 -546C382 -536 409 -516 421 -504C461 -543 498 -592 530 -648H939V-713Z"/>
</svg>