<svg xmlns="http://www.w3.org/2000/svg" viewBox="0 -1000 1000 1000">
	<path fill="#000000" d="M739 -275V-177H264V-275ZM264 -18V-119H739V-18ZM191 76H264V42H739V72H814V-335H191ZM435 -653H562V-458H435ZM632 -458V-653H896V-715H699C721 -744 743 -780 762 -814L689 -838C673 -801 644 -751 618 -715H329L372 -734C359 -765 331 -807 299 -838L236 -813C262 -785 287 -744 299 -715H111V-653H365V-458H55V-396H946V-458ZM156 -617C190 -572 222 -511 232 -469L298 -495C285 -537 253 -596 217 -640ZM750 -468C778 -507 813 -567 841 -622L775 -644C756 -597 720 -529 692 -488Z"/>
</svg>