<svg xmlns="http://www.w3.org/2000/svg" viewBox="0 -1000 1000 1000">
	<path fill="#000000" d="M292 -115C233 -68 134 -22 48 7C63 19 90 46 101 60C187 25 292 -32 360 -89ZM267 -291H734V-197H267ZM808 -142V-346H195V-142H463V3C463 14 460 18 446 19C432 19 384 19 333 17C341 35 351 58 354 77C425 77 471 77 499 67C528 58 537 42 537 5V-142ZM622 -69C713 -34 828 23 884 63L934 14C874 -26 759 -80 669 -112ZM243 -638H754V-574H243ZM243 -749H754V-687H243ZM543 -459C532 -480 517 -504 502 -523H827V-800H172V-523H490L434 -504C444 -491 455 -475 464 -459H59V-398H937V-459Z"/>
</svg>