<svg xmlns="http://www.w3.org/2000/svg" viewBox="0 -1000 1000 1000">
	<path fill="#000000" d="M867 -830C751 -804 539 -787 366 -781C374 -764 383 -739 384 -723C559 -727 775 -743 910 -774ZM679 -594C674 -627 661 -682 649 -726L589 -716C601 -672 612 -614 616 -580ZM269 -694V-476H144V-694ZM144 -182V-410H269V-182ZM335 -116V-760H78V-38H144V-116ZM411 -694C430 -654 450 -601 458 -568L519 -588C510 -620 488 -672 469 -710ZM795 -240C769 -181 733 -133 688 -94C632 -135 587 -184 555 -240ZM840 -300L826 -298H547C551 -320 556 -343 559 -365H949V-428H569C572 -455 575 -482 577 -507H928V-568H807C838 -611 871 -665 898 -713L828 -736C807 -686 769 -617 736 -568H381V-507H505C503 -482 500 -455 497 -428H351V-365H487C463 -220 409 -65 266 24C283 35 306 59 317 76C416 11 475 -83 514 -185C545 -135 585 -92 631 -55C572 -19 503 6 427 23C441 34 461 63 469 78C549 58 623 29 687 -15C754 29 833 60 921 79C931 60 950 31 966 16C884 1 808 -24 744 -60C804 -116 851 -188 881 -282Z"/>
</svg>