<svg xmlns="http://www.w3.org/2000/svg" viewBox="0 -1000 1000 1000">
	<path fill="#000000" d="M177 -330C178 -370 179 -409 179 -443V-498H330V-330ZM330 -731V-567H179V-731ZM399 -800H111V-443C111 -296 106 -98 37 42C55 49 85 66 98 78C144 -16 164 -141 173 -259H330V-13C330 1 325 5 311 6C299 7 257 7 211 6C221 25 231 58 233 77C300 77 340 76 365 63C391 50 399 28 399 -12ZM856 -391C833 -306 799 -231 756 -167C710 -233 674 -309 647 -391ZM894 -462L881 -460H557V-728H837V-606C837 -594 833 -590 817 -590C802 -589 750 -589 689 -590C699 -572 710 -547 713 -527C788 -527 838 -527 870 -537C900 -548 909 -567 909 -605V-797H487V77H557V-391H582C615 -288 659 -192 715 -111C669 -57 617 -14 562 16C577 29 596 54 606 71C661 39 712 -4 757 -57C805 -1 859 44 919 78C930 60 950 35 967 21C904 -10 848 -55 800 -110C863 -199 911 -311 937 -447Z"/>
</svg>