<svg xmlns="http://www.w3.org/2000/svg" viewBox="0 -1000 1000 1000">
	<path fill="#000000" d="M873 -709C858 -661 838 -620 812 -584C764 -620 695 -667 635 -703L640 -709ZM699 -477C664 -517 610 -575 563 -620C578 -635 592 -649 606 -665C666 -626 735 -578 779 -543C756 -517 728 -496 699 -477ZM913 -772L900 -769H679C690 -788 701 -805 709 -824L636 -836C601 -760 534 -669 437 -601C455 -593 478 -571 490 -556C503 -565 515 -575 526 -585C569 -541 617 -488 649 -449C603 -427 554 -412 501 -401C514 -386 529 -361 537 -344C745 -394 903 -503 957 -755ZM139 -488C139 -410 160 -382 240 -382H398C429 -382 460 -383 476 -388C473 -404 470 -433 468 -451C450 -448 417 -446 396 -446H239C213 -446 207 -456 207 -487V-667H497V-732H338C328 -764 310 -806 292 -838L227 -819C239 -793 252 -760 263 -732H49V-667H139ZM536 -102H885V-164H536V-255C662 -265 781 -278 873 -297L837 -357C669 -323 372 -304 126 -298C132 -281 140 -256 142 -237C243 -239 354 -243 462 -250V-164H120V-102H462V-10H60V53H941V-10H536Z"/>
</svg>