<svg xmlns="http://www.w3.org/2000/svg" viewBox="0 -1000 1000 1000">
	<path fill="#000000" d="M643 -330C668 -367 702 -424 729 -475L668 -496C653 -452 620 -387 595 -347ZM268 -478C301 -434 333 -373 344 -334L399 -354C387 -393 353 -452 320 -496ZM216 -520H461V-310H216ZM793 -520V-310H536V-520ZM865 -250V-580H536V-665H933V-733H536V-836H461V-733H69V-665H461V-580H147V-250H411C321 -148 175 -57 40 -12C57 3 79 31 91 50C224 -2 365 -98 461 -210V76H536V-214C629 -100 772 0 908 51C920 30 942 2 959 -14C822 -57 674 -148 587 -250Z"/>
</svg>