<svg xmlns="http://www.w3.org/2000/svg" viewBox="0 -1000 1000 1000">
	<path fill="#000000" d="M798 -594C748 -614 684 -636 613 -655C684 -687 746 -727 789 -776L745 -806L732 -803H186V-747H664C625 -721 577 -698 523 -679C440 -699 351 -717 263 -730L225 -686C293 -676 361 -662 425 -647C336 -624 241 -608 152 -600C162 -586 176 -561 182 -546C297 -560 420 -584 528 -622C615 -599 692 -572 751 -547ZM439 -333C414 -350 381 -367 345 -383C393 -420 434 -465 461 -519L420 -539L407 -537H83V-481H363C341 -455 314 -431 282 -411C235 -429 184 -448 135 -462L102 -418C142 -406 183 -391 221 -375C168 -348 110 -329 53 -316C64 -303 81 -279 88 -263C158 -281 227 -309 289 -345C330 -326 368 -305 396 -286ZM356 -155C288 -84 157 -20 41 9C57 23 79 51 90 70C209 34 343 -44 418 -130ZM941 -173V-236H537V-291C599 -305 659 -324 714 -349C781 -324 841 -295 885 -268L929 -316C890 -338 838 -362 779 -385C835 -419 881 -463 910 -518L867 -539L855 -537H508V-481H807C780 -454 747 -431 709 -411C660 -428 610 -444 560 -457L526 -413C562 -402 599 -391 634 -378C585 -361 533 -348 481 -339C489 -330 498 -320 506 -308H463V-236H59V-173H463V76H537V-173ZM595 -115C700 -61 830 20 895 75L948 24C880 -30 748 -108 645 -160Z"/>
</svg>