<svg xmlns="http://www.w3.org/2000/svg" viewBox="0 -1000 1000 1000">
	<path fill="#000000" d="M378 -357C361 -387 285 -504 260 -537V-575H388V-645H260V-836H192V-645H53V-575H185C155 -438 94 -280 31 -197C45 -179 63 -147 70 -126C115 -191 159 -297 192 -407V76H260V-447C287 -398 320 -337 333 -305ZM732 -692C716 -655 697 -615 679 -585H491C512 -619 531 -655 549 -692ZM942 -518V-585H752C779 -628 806 -680 826 -726L778 -759L765 -755H576C586 -779 595 -802 603 -826L536 -844C492 -709 417 -580 331 -496C345 -479 366 -444 373 -429C393 -449 411 -470 429 -494V-367C429 -250 420 -88 343 27C359 35 387 57 399 71C484 -53 499 -238 499 -367V-518ZM689 -11C645 -11 637 -18 637 -51V-374H823C823 -269 822 -231 815 -221C810 -213 802 -212 791 -212C779 -212 748 -212 712 -216C721 -199 728 -175 729 -156C767 -154 804 -154 823 -156C847 -158 861 -164 872 -180C887 -199 888 -258 888 -411V-438H569V-51C569 32 595 54 682 54H850C926 54 947 20 956 -104C936 -109 909 -120 893 -132C889 -30 882 -11 844 -11Z"/>
</svg>