<svg xmlns="http://www.w3.org/2000/svg" viewBox="0 -1000 1000 1000">
	<path fill="#000000" d="M336 -352C323 -379 255 -488 233 -520V-557H322V-625H233V-836H167V-625H56V-557H164C141 -421 90 -260 36 -173C48 -157 65 -130 74 -110C108 -167 141 -254 167 -347V76H233V-420C256 -375 283 -322 294 -292ZM565 -650V-551H416V-650ZM416 -379V-492H565V-379ZM498 -247C514 -212 530 -174 543 -137L416 -79V-320H628V-709H509L544 -731C529 -759 495 -802 465 -834L411 -805C436 -777 464 -738 481 -709H351V-104C351 -57 326 -28 311 -16C322 -5 340 20 347 34C364 18 390 4 563 -78C575 -45 584 -12 589 13L647 -13C634 -77 593 -184 553 -266ZM897 -774L887 -770H688V73H751V-707H864C848 -631 825 -542 799 -450C859 -347 884 -274 884 -211C885 -177 879 -137 864 -125C857 -120 846 -117 834 -116C819 -116 797 -116 773 -119C783 -100 790 -74 790 -56C815 -55 840 -55 860 -57C878 -59 897 -66 909 -76C935 -97 948 -151 948 -209C948 -276 919 -356 860 -458C892 -562 920 -661 943 -748Z"/>
</svg>