<svg xmlns="http://www.w3.org/2000/svg" viewBox="0 -1000 1000 1000">
	<path fill="#000000" d="M706 -729C700 -695 693 -661 686 -633H725V-632H865C855 -465 846 -402 830 -385C823 -376 815 -374 804 -375C793 -375 770 -375 742 -377C728 -392 707 -408 683 -426C720 -470 748 -525 765 -591L729 -604L717 -602H523C530 -647 532 -691 532 -729ZM356 -334C367 -324 378 -314 384 -305C457 -380 495 -465 513 -548H691C677 -515 659 -485 636 -459C606 -479 572 -499 543 -515L503 -477C534 -461 566 -440 597 -419C559 -386 513 -361 467 -346C479 -336 495 -313 501 -299C554 -319 603 -346 644 -385C669 -365 690 -347 706 -332L741 -369C748 -352 752 -331 754 -315C785 -312 815 -313 834 -315C856 -317 870 -324 885 -341C908 -368 920 -448 932 -661C933 -670 934 -690 934 -690H765C771 -722 778 -759 782 -792H375V-729H468C467 -628 455 -489 352 -371C327 -411 279 -483 256 -516V-551H366V-621H256V-837H188V-621H55V-551H180C153 -415 94 -259 34 -176C46 -159 64 -131 72 -112C115 -174 157 -276 188 -382V75H256V-427C283 -379 314 -322 326 -292ZM462 -218H549V-21H462ZM691 -218V-21H604V-218ZM836 -218V-21H746V-218ZM903 -21V-277H397V-21H326V44H958V-21Z"/>
</svg>