<svg xmlns="http://www.w3.org/2000/svg" viewBox="0 -1000 1000 1000">
	<path fill="#000000" d="M706 -695V-584C706 -517 721 -493 787 -493H872C893 -493 915 -493 928 -498C925 -514 922 -538 921 -556C908 -553 885 -552 870 -552H791C775 -552 773 -558 773 -584V-695H872V-607H938V-755H702C692 -783 678 -818 663 -845L591 -829C602 -807 613 -780 621 -755H383V-594H446V-695H556C544 -595 505 -543 371 -514C385 -501 402 -477 409 -460C560 -500 608 -570 621 -695ZM364 -371C349 -395 281 -491 252 -528V-559H353V-628H252V-836H184V-628H55V-559H178C148 -430 87 -282 26 -202C38 -187 56 -159 63 -139C108 -199 151 -296 184 -398V75H252V-443C279 -398 311 -345 324 -317ZM954 -356V-418H588C597 -435 606 -451 614 -469L544 -489C501 -388 426 -293 344 -232C361 -222 390 -200 403 -188C454 -232 507 -290 551 -356H578V74H649V-56H929V-117H649V-207H903V-267H649V-356Z"/>
</svg>