<svg xmlns="http://www.w3.org/2000/svg" viewBox="0 -1000 1000 1000">
	<path fill="#000000" d="M312 -387C299 -407 249 -481 227 -510V-575H305V-645H227V-837H166V-645H52V-575H155C132 -444 82 -291 32 -211C42 -192 58 -160 64 -138C102 -204 139 -309 166 -419V76H227V-429C247 -394 267 -354 277 -332ZM657 -216L515 -201V-237C563 -268 615 -309 653 -349L611 -384L596 -380H317V-321H537C509 -297 478 -272 449 -255V-193C385 -186 329 -180 283 -175L296 -111C341 -116 393 -123 449 -130V4C449 14 445 17 434 17C424 18 386 17 347 16C355 33 364 56 367 73C424 73 461 73 484 64C509 54 515 39 515 5V-139L658 -157ZM572 -487H400V-578H572ZM639 -632H335V-432H639ZM431 -818C442 -796 454 -771 463 -747H307V-683H662V-747H529C519 -772 503 -807 487 -834ZM907 -794L897 -791H691V73H751V-726H871C849 -652 821 -563 789 -473C863 -377 895 -312 895 -251C895 -217 888 -181 871 -169C863 -164 852 -161 839 -161C823 -160 800 -160 776 -163C787 -144 794 -120 795 -103C819 -101 843 -101 863 -103C882 -106 900 -112 913 -122C941 -143 955 -194 955 -250C955 -315 924 -386 851 -482C888 -583 923 -683 951 -768Z"/>
</svg>