<svg xmlns="http://www.w3.org/2000/svg" viewBox="0 -1000 1000 1000">
	<path fill="#000000" d="M469 -588H347V-527H655V-588H534V-675H678V-736H534V-836H469V-736H326V-675H469ZM582 -304H419V-419H582ZM647 -473H357V-249H647ZM473 -67C468 -107 448 -174 428 -225L370 -210C389 -158 406 -90 410 -49ZM338 -318C324 -345 262 -454 238 -491V-553H328V-621H238V-837H173V-621H55V-553H167C142 -417 89 -258 35 -174C47 -159 64 -132 71 -114C109 -177 145 -277 173 -381V75H238V-405C262 -356 289 -295 301 -263ZM583 -52C602 -98 623 -158 641 -213L573 -230C562 -177 537 -98 517 -49L533 -44C445 -31 364 -19 304 -11L322 55C423 38 563 16 696 -7L692 -69ZM798 -212C792 -273 766 -375 737 -454L681 -439C709 -359 732 -254 738 -191ZM957 -611H896V-834H827V-611H677V-543H827V-11C827 3 822 7 810 8C796 9 755 9 710 7C720 26 730 59 733 77C795 77 836 75 862 63C886 51 896 30 896 -11V-543H957Z"/>
</svg>