<svg xmlns="http://www.w3.org/2000/svg" viewBox="0 -1000 1000 1000">
	<path fill="#000000" d="M943 -413C933 -450 909 -514 887 -561L842 -548C850 -529 858 -508 866 -488L766 -474C817 -537 869 -616 912 -698L855 -719C845 -696 833 -672 820 -650L747 -642C778 -688 809 -747 834 -806L778 -823C758 -756 717 -683 706 -666C694 -647 683 -634 671 -633C678 -617 687 -590 690 -577C700 -582 717 -587 791 -597C765 -554 742 -521 731 -508C712 -484 697 -467 681 -464C688 -449 697 -418 701 -406C713 -413 737 -418 882 -441C888 -424 892 -408 895 -396ZM583 -396C575 -433 553 -496 532 -544L485 -531C493 -511 501 -490 508 -468L411 -455C464 -517 517 -596 561 -676L507 -697C497 -674 485 -652 473 -630L394 -622C430 -672 466 -738 494 -803L438 -821C413 -746 368 -669 354 -649C341 -628 329 -615 317 -612C323 -598 332 -569 334 -557C344 -562 363 -567 441 -578C413 -535 387 -500 377 -488C357 -463 340 -446 326 -443C333 -428 341 -399 343 -387C357 -395 380 -399 523 -421C527 -405 531 -391 534 -379ZM312 -358C299 -382 245 -475 223 -510V-575H302V-645H223V-837H158V-645H52V-575H152C128 -444 80 -291 32 -210C41 -192 58 -159 64 -138C99 -199 133 -297 158 -400V76H223V-419C244 -377 266 -330 276 -303ZM824 -252C803 -207 772 -164 735 -126C718 -164 705 -210 692 -263H933V-323H850L876 -350C853 -371 807 -402 772 -422L734 -387C763 -369 799 -344 823 -323H680C655 -460 641 -634 636 -829H572C578 -638 591 -465 615 -323H323V-263H399V-249C399 -165 374 -53 257 33C271 41 296 64 306 78C394 11 436 -75 453 -155C492 -122 531 -85 554 -61L600 -106C570 -137 510 -188 462 -225C463 -233 463 -241 463 -248V-263H626C642 -193 661 -131 684 -80C631 -38 567 -3 498 24C512 36 530 58 538 71C602 45 661 12 713 -26C754 36 806 72 871 76C911 79 942 42 961 -67C948 -74 923 -91 911 -105C903 -33 890 5 869 3C829 -1 794 -25 765 -69C816 -116 857 -169 888 -229Z"/>
</svg>