<svg xmlns="http://www.w3.org/2000/svg" viewBox="0 -1000 1000 1000">
	<path fill="#000000" d="M863 -525C863 -514 860 -512 849 -511C839 -511 806 -511 766 -512C774 -496 781 -476 784 -459C839 -459 874 -460 896 -469C919 -479 925 -493 925 -524V-812H654V-756H863ZM696 -509C745 -537 799 -569 852 -600L838 -644C773 -610 709 -576 664 -556ZM681 -700C721 -681 774 -653 802 -634L830 -674C803 -693 749 -719 710 -735ZM361 -373C345 -398 277 -494 251 -527V-575H338V-645H251V-836H182V-645H53V-575H176C147 -440 89 -281 30 -197C43 -180 60 -148 69 -126C110 -190 151 -292 182 -400V76H251V-440C277 -397 305 -347 317 -320ZM380 -508C431 -536 487 -569 542 -602L528 -646C460 -610 395 -575 348 -555ZM363 -700C405 -681 459 -654 488 -636L517 -677C489 -695 433 -720 392 -736ZM472 -92H661V-20H472ZM661 -264H472V-333H661ZM661 -144H472V-212H661ZM951 -20H730V-92H903V-144H730V-212H903V-264H730V-333H929V-391H730C719 -417 703 -451 688 -478L625 -460C637 -440 647 -414 657 -391H499C512 -413 524 -436 534 -457L497 -469C544 -469 576 -470 597 -478C620 -488 626 -503 626 -534V-811H347V-756H563V-534C563 -524 560 -522 549 -521C539 -520 504 -520 465 -521C471 -507 478 -489 483 -474L464 -480C432 -397 367 -295 300 -228C315 -217 337 -195 351 -183C370 -201 387 -223 405 -246V76H472V38H952Z"/>
</svg>