<svg xmlns="http://www.w3.org/2000/svg" viewBox="0 -1000 1000 1000">
	<path fill="#000000" d="M696 -717C682 -695 665 -671 649 -653H503C521 -674 537 -695 552 -717ZM844 -541H697V-605H844ZM844 -431H697V-495H844ZM495 -495H634V-431H495ZM634 -541H495V-605H634ZM371 -331C354 -357 283 -460 256 -496V-552H366V-600C381 -589 398 -572 407 -560C415 -566 422 -572 429 -578V-382H913V-653H726C750 -681 773 -713 791 -743L747 -774L734 -770H586C597 -788 606 -806 615 -824L546 -836C513 -766 452 -677 366 -609V-621H256V-837H188V-621H55V-552H181C153 -416 94 -260 34 -177C46 -160 64 -131 73 -112C115 -175 156 -277 188 -382V75H256V-414C284 -367 318 -308 331 -277ZM782 -271C772 -296 751 -337 729 -367L681 -346C701 -315 722 -274 731 -247ZM634 -263C630 -288 617 -330 603 -362L551 -347C564 -314 576 -272 580 -243ZM456 -374C435 -326 398 -273 351 -243L398 -202C449 -239 484 -297 508 -349ZM822 -185V-123H519V-185ZM519 -4V-70H822V-4ZM450 77H519V51H822V77H893V-240H450ZM812 -350C848 -310 890 -254 910 -219L965 -249C945 -283 901 -337 865 -375Z"/>
</svg>