<svg xmlns="http://www.w3.org/2000/svg" viewBox="0 -1000 1000 1000">
	<path fill="#000000" d="M236 -831C188 -678 108 -527 22 -428C34 -410 54 -369 61 -353C93 -391 126 -436 155 -485V77H224V-612C254 -677 282 -745 304 -812ZM845 -579C831 -449 809 -338 770 -244C731 -346 713 -458 701 -560C703 -566 705 -572 707 -579ZM527 -98H367V-321H527ZM957 -579V-644H724C740 -703 752 -764 762 -825L695 -836C672 -676 631 -519 564 -416C571 -410 582 -398 591 -386H484V-575H613V-643H484V-825H413V-643H275V-575H413V-386H301V32H367V-33H593V-384C600 -374 607 -365 611 -359C628 -386 644 -416 659 -449C673 -355 696 -258 734 -169C688 -88 625 -22 539 27C553 39 577 65 586 78C662 30 721 -29 768 -101C806 -31 856 31 922 77C931 58 954 32 968 18C896 -27 844 -92 805 -166C860 -277 891 -412 911 -579Z"/>
</svg>