<svg xmlns="http://www.w3.org/2000/svg" viewBox="0 -1000 1000 1000">
	<path fill="#000000" d="M835 -593C815 -524 785 -449 761 -402C779 -394 807 -379 823 -370C858 -439 902 -544 928 -641L873 -670L859 -666H497C512 -716 526 -768 536 -821L456 -836C426 -678 371 -522 295 -425C315 -416 352 -396 368 -383C408 -440 442 -512 473 -593ZM337 -680H75V-608H337ZM367 -270H53V-197H367ZM633 -551H555V-475C555 -332 533 -124 246 21C263 34 290 62 302 79C493 -21 575 -149 610 -271C667 -110 760 9 910 70C921 49 944 20 959 5C777 -58 678 -218 632 -429C633 -443 633 -458 633 -473Z"/>
</svg>