<svg xmlns="http://www.w3.org/2000/svg" viewBox="0 -1000 1000 1000">
	<path fill="#000000" d="M872 -610C859 -551 844 -486 827 -443L883 -426C908 -486 934 -584 952 -667L905 -682L894 -679H702C715 -727 726 -777 735 -829L666 -839C644 -696 603 -560 535 -471C553 -463 584 -445 596 -434C629 -482 658 -543 681 -610ZM247 -360H327V-276H247ZM247 -493H327V-418H247ZM247 -619H327V-549H247ZM460 -493V-418H386V-493ZM460 -276H386V-360H460ZM532 -66C515 -90 450 -173 412 -219H516V-360H576V-418H516V-549H386V-619H562V-679H415C446 -717 482 -765 513 -808L445 -836C421 -790 377 -723 342 -679H201L253 -708C233 -743 191 -794 153 -829L98 -800C134 -763 173 -714 192 -679H62V-619H189V-549H75V-493H189V-418H50V-360H189V-276H75V-219H167C132 -154 81 -86 35 -48C46 -30 61 0 66 20C108 -21 151 -87 185 -154V78H247V-219H327V77H390V-169C425 -119 471 -50 488 -18ZM779 -552H711V-483C711 -340 695 -132 508 27C523 39 546 63 556 80C663 -12 719 -120 748 -224C782 -101 832 -9 918 76C927 55 948 34 965 20C853 -85 804 -202 777 -397C778 -427 779 -456 779 -482Z"/>
</svg>