<svg xmlns="http://www.w3.org/2000/svg" viewBox="0 -1000 1000 1000">
	<path fill="#000000" d="M875 -610C863 -543 848 -472 833 -425L892 -408C916 -472 939 -576 955 -665L906 -680L894 -677H670C682 -724 692 -774 701 -825L630 -837C608 -689 566 -545 501 -453C518 -444 549 -426 563 -416C598 -468 627 -535 651 -610ZM282 -211V-108H159V-211ZM342 -53V-266H96V-10H159V-53ZM570 -329V-395H474V-723H548V-787H55V-723H407V-395H44V-329H413V1C413 12 410 16 397 16C384 17 342 17 297 16C306 32 314 55 318 72C381 72 422 71 447 61C472 52 480 38 480 2V-329ZM279 -512H162V-611H279ZM106 -664V-459H339V-664ZM764 -550H696V-482C696 -341 680 -131 491 28C506 41 530 65 541 81C651 -14 708 -125 736 -233C776 -104 834 -9 930 78C939 58 960 36 979 22C856 -81 798 -201 762 -401C763 -429 764 -456 764 -482Z"/>
</svg>