<svg xmlns="http://www.w3.org/2000/svg" viewBox="0 -1000 1000 1000">
	<path fill="#000000" d="M886 -609C873 -544 855 -473 838 -426L894 -407C920 -472 946 -576 965 -665L918 -681L906 -677H672C684 -725 693 -775 701 -827L633 -838C610 -687 571 -542 505 -450C522 -441 552 -421 565 -409C600 -463 630 -532 653 -609ZM412 -479H272V-604H412ZM471 -653H215V-429H471ZM224 -313H291V-160H224ZM182 -111H334V-362H182ZM477 -160H407V-311H477ZM522 -360H365V-111H522ZM759 -549H690V-482C690 -348 678 -155 538 0C535 -15 532 -35 531 -48C510 -44 469 -41 441 -41H217C164 -41 145 -62 145 -122V-721H529V-785H44V-721H78V-125C78 -14 116 23 221 23H438C468 23 499 22 519 20L518 21C534 33 557 58 568 76C659 -16 707 -124 732 -226C768 -103 820 -10 906 76C916 54 935 32 953 18C842 -86 789 -205 757 -402C759 -430 759 -456 759 -481Z"/>
</svg>