<svg xmlns="http://www.w3.org/2000/svg" viewBox="0 -1000 1000 1000">
	<path fill="#000000" d="M731 -696H824V-620H731ZM824 -484H731V-562H824ZM667 -484H537V-427H667V-354H520V-293H667V-215H495V-154H667V-34H731V-154H935V-215H731V-293H903V-354H731V-427H883V-562H953V-620H883V-753H731V-836H667V-753H537V-696H667V-620H491V-562H667ZM219 -834C180 -688 115 -545 38 -452C50 -433 70 -393 75 -376C101 -409 125 -445 148 -485V75H214V-616C241 -680 266 -748 285 -816ZM459 -474L452 -473H371C409 -559 454 -673 488 -764H286V-699H396C360 -600 315 -489 279 -413H430C419 -321 403 -242 379 -178C355 -217 334 -264 318 -321L264 -299C287 -223 317 -162 352 -114C320 -51 279 -3 229 30C242 39 267 62 277 77C323 44 363 -2 396 -62C497 39 632 63 784 63H935C937 45 948 16 958 0C921 1 815 1 788 1C648 1 518 -21 423 -121C461 -209 485 -323 498 -465Z"/>
</svg>