<svg xmlns="http://www.w3.org/2000/svg" viewBox="0 -1000 1000 1000">
	<path fill="#000000" d="M876 -773C843 -795 783 -822 736 -838L701 -794C749 -775 808 -745 839 -723ZM417 -687L423 -625L594 -640C611 -598 632 -559 654 -527C585 -493 504 -468 424 -450C438 -437 460 -410 468 -396C543 -417 622 -444 693 -480C744 -428 804 -396 867 -396C927 -396 950 -424 961 -524C943 -529 922 -539 908 -551C904 -484 896 -461 870 -461C831 -460 790 -479 753 -513C803 -545 848 -580 882 -621L819 -644C792 -611 756 -583 713 -557C694 -583 677 -612 663 -646L940 -669L935 -730L641 -706C629 -746 621 -790 618 -836H551C554 -788 563 -743 575 -700ZM686 -354C740 -336 809 -307 845 -286L882 -336C845 -357 776 -383 723 -399ZM347 -512C337 -442 322 -378 303 -321C265 -355 214 -394 168 -426C180 -453 191 -483 200 -512ZM380 -583L368 -580H220C233 -626 245 -674 253 -723H443V-791H60V-723H182C152 -566 105 -422 32 -325C48 -313 74 -285 84 -272C103 -299 122 -329 139 -362C189 -325 241 -281 276 -246C224 -124 152 -34 65 24C82 34 106 61 117 77C270 -33 383 -244 423 -568ZM813 -197C782 -158 739 -125 688 -95C665 -126 645 -161 629 -201L950 -226L945 -287L608 -263C598 -301 591 -341 588 -383H520C523 -339 530 -297 540 -258L386 -246L391 -183L558 -197C576 -147 600 -103 626 -64C547 -27 455 0 364 20C379 34 400 65 409 80C496 57 587 26 669 -14C724 44 792 78 865 78C929 78 953 47 964 -63C946 -67 925 -78 910 -91C905 -14 897 12 867 12C820 13 772 -9 729 -48C789 -84 840 -125 880 -173Z"/>
</svg>