<svg xmlns="http://www.w3.org/2000/svg" viewBox="0 -1000 1000 1000">
	<path fill="#000000" d="M552 -495H809V-439H552ZM552 -593H809V-539H552ZM485 -394H878V-638H494C505 -654 514 -670 523 -688H942V-746H550C561 -771 570 -797 577 -822L513 -836C486 -746 440 -661 381 -604C397 -594 423 -572 434 -562C452 -580 469 -601 485 -624ZM313 -522C302 -435 285 -357 263 -288C231 -323 188 -365 147 -398C162 -436 176 -478 188 -522ZM343 -589L332 -587H204C214 -632 223 -678 231 -725H406V-791H56V-725H163C141 -569 102 -423 39 -326C53 -315 78 -287 87 -274C99 -294 111 -316 122 -338C165 -299 209 -253 237 -217C191 -110 130 -30 56 24C71 34 94 57 104 72C248 -39 349 -251 384 -577ZM957 -287V-345H378V-287H494C455 -228 397 -177 336 -142C349 -131 372 -108 382 -98C415 -119 447 -145 478 -175H576C532 -118 467 -68 400 -34C414 -25 437 -4 446 7C521 -36 598 -101 647 -175H725C679 -89 606 -16 523 32C538 42 562 63 573 73C660 15 743 -71 793 -175H857C847 -54 835 -4 822 11C815 18 807 20 795 20C782 20 751 20 718 16C727 32 733 57 735 76C769 78 803 77 821 76C844 75 860 68 875 52C897 28 910 -37 923 -203C925 -212 926 -231 926 -231H527C540 -249 553 -267 565 -287Z"/>
</svg>