<svg xmlns="http://www.w3.org/2000/svg" viewBox="0 -1000 1000 1000">
	<path fill="#000000" d="M916 -725V-778H307C315 -790 323 -802 330 -813L256 -837C208 -752 127 -668 46 -615C65 -604 97 -582 111 -569C164 -609 221 -664 269 -725ZM850 -618V-670H256V-618ZM225 -353C231 -370 237 -388 244 -406H558L545 -353ZM623 -196C596 -172 550 -137 512 -112C485 -126 458 -140 434 -152V-209H709V-262H585C603 -322 620 -388 633 -446L586 -456L575 -452H259L271 -490L203 -498C187 -438 161 -360 140 -309H534C529 -293 525 -278 520 -262H58V-209H366V-121C258 -82 148 -43 74 -19L101 35C177 5 272 -31 366 -69V7C366 17 363 20 351 21C340 22 300 22 256 21C264 36 274 56 278 73C339 73 377 73 401 64C427 55 434 42 434 8V-95C523 -47 625 14 683 52L712 3C676 -21 620 -53 560 -86C598 -108 642 -137 677 -166ZM137 -166C172 -141 217 -106 241 -85L279 -128C255 -148 208 -181 174 -204ZM148 -562V-508H724C732 -188 754 55 885 55C942 55 958 7 964 -122C949 -130 930 -148 915 -164C913 -74 907 -15 889 -15C817 -15 799 -282 796 -562Z"/>
</svg>