<svg xmlns="http://www.w3.org/2000/svg" viewBox="0 -1000 1000 1000">
	<path fill="#000000" d="M276 -468C232 -500 147 -538 81 -560L42 -504C110 -479 193 -437 235 -405ZM141 63C200 -30 270 -153 322 -258L268 -307C211 -194 132 -63 79 13ZM99 -774C166 -747 247 -700 286 -663L329 -724C288 -760 206 -804 139 -829ZM565 -18C496 -18 483 -32 483 -89V-698H817V-417C817 -402 812 -398 793 -397C774 -396 712 -395 641 -398C652 -376 664 -346 667 -325C755 -325 813 -325 847 -336C882 -349 892 -373 892 -416V-769H408V-91C408 23 444 53 562 53H813C926 53 951 0 964 -156C942 -161 911 -174 892 -187C883 -51 873 -18 810 -18Z"/>
</svg>