<svg xmlns="http://www.w3.org/2000/svg" viewBox="0 -1000 1000 1000">
	<path fill="#000000" d="M322 -721C281 -756 198 -800 132 -826L90 -771C158 -743 238 -696 279 -659ZM259 -443C221 -477 143 -523 83 -552L38 -501C100 -469 177 -420 214 -385ZM134 61C191 -31 258 -155 308 -260L252 -307C197 -194 123 -64 71 13ZM525 -796H452V-688C452 -603 430 -501 300 -426C315 -415 341 -385 350 -369C493 -453 525 -582 525 -685ZM805 -283V-51H475V-283ZM403 79H475V18H805V75H879V-353H403ZM820 -481C803 -481 800 -491 800 -520V-796H727V-522C727 -448 742 -418 812 -418H897C917 -418 939 -419 952 -423C949 -441 947 -465 946 -485C932 -482 910 -481 895 -481Z"/>
</svg>