<svg xmlns="http://www.w3.org/2000/svg" viewBox="0 -1000 1000 1000">
	<path fill="#000000" d="M263 -458C222 -490 140 -530 79 -555L40 -500C102 -472 183 -428 223 -396ZM133 57C188 -34 251 -154 301 -257L243 -307C190 -195 117 -68 68 7ZM88 -766C148 -738 226 -692 265 -660L309 -720C269 -752 190 -794 129 -820ZM701 -404V-218H546V-404ZM763 -154V-467H486V-92H546V-154ZM796 -629H455V-566H796ZM923 -795H327V76H397V-727H851V-17C851 -1 845 4 830 4C814 4 763 5 706 3C716 22 727 57 730 77C808 77 855 76 885 62C913 50 923 27 923 -16Z"/>
</svg>