<svg xmlns="http://www.w3.org/2000/svg" viewBox="0 -1000 1000 1000">
	<path fill="#000000" d="M333 -704C290 -738 204 -791 141 -825L96 -774C162 -737 246 -681 288 -646ZM270 -452C229 -481 145 -525 86 -553L46 -498C107 -467 189 -420 229 -390ZM141 63C199 -29 269 -153 322 -258L268 -307C210 -194 133 -63 79 13ZM793 -227V-47H435V-227ZM365 70H435V19H793V69H866V-293H365ZM461 -673H778C739 -605 682 -547 616 -498C549 -545 495 -601 457 -665ZM835 -743L821 -740H497C510 -768 523 -797 534 -826L468 -844C430 -737 364 -633 291 -565C304 -552 328 -522 337 -508C365 -537 393 -570 419 -606C456 -552 503 -503 559 -460C478 -411 385 -373 290 -348C303 -334 323 -301 330 -282C432 -314 532 -358 621 -417C711 -362 815 -319 926 -292C931 -312 941 -342 952 -361C852 -380 759 -413 679 -459C764 -527 835 -611 881 -714Z"/>
</svg>