<svg xmlns="http://www.w3.org/2000/svg" viewBox="0 -1000 1000 1000">
	<path fill="#000000" d="M860 -809C836 -751 790 -671 754 -620L818 -593C854 -642 897 -715 931 -780ZM519 -621C503 -672 458 -748 414 -804L352 -775C394 -718 437 -639 452 -588ZM264 -451C222 -479 139 -523 80 -552L40 -498C100 -466 183 -418 223 -390ZM135 63C194 -29 263 -153 316 -258L262 -307C205 -194 126 -63 73 13ZM94 -772C154 -736 234 -685 274 -655L319 -714C277 -743 196 -790 137 -823ZM896 -553H676V-837H603V-553H378V-278C378 -179 373 -54 322 37C338 45 367 68 379 81C438 -20 448 -168 448 -278V-485H823V-267C690 -235 553 -205 461 -186L486 -122C580 -144 704 -174 823 -205V-18C823 -3 818 1 802 2C787 3 735 3 678 0C688 21 699 51 701 71C777 71 827 71 857 59C887 47 896 25 896 -17ZM478 -371C568 -352 679 -314 737 -282L766 -336C707 -366 596 -402 507 -419Z"/>
</svg>