<svg xmlns="http://www.w3.org/2000/svg" viewBox="0 -1000 1000 1000">
	<path fill="#000000" d="M941 -600C895 -662 801 -757 729 -825L671 -787C745 -715 836 -616 880 -556ZM501 -825C451 -737 373 -646 297 -586C315 -575 346 -553 358 -541C432 -606 515 -706 571 -802ZM322 -705C282 -739 201 -790 141 -824L96 -774C157 -738 238 -683 277 -647ZM260 -453C221 -481 143 -524 86 -552L45 -498C104 -468 180 -422 217 -392ZM143 61C188 -23 241 -132 280 -225L223 -270C179 -170 120 -56 78 13ZM384 -298C473 -362 549 -444 607 -539C675 -434 750 -360 840 -298ZM449 -31V-230H777V-31ZM592 -661C527 -512 401 -380 255 -307C273 -292 295 -266 305 -248C330 -262 353 -276 376 -292V78H449V37H777V71H851V-290C874 -275 898 -261 923 -246C932 -267 953 -292 972 -307C838 -375 730 -461 644 -605C649 -616 654 -626 659 -637Z"/>
</svg>