<svg xmlns="http://www.w3.org/2000/svg" viewBox="0 -1000 1000 1000">
	<path fill="#000000" d="M941 -172H799V-433H927V-502H799V-722C849 -734 895 -747 933 -762L880 -819C804 -786 668 -759 548 -743C557 -726 567 -700 570 -684C622 -690 677 -698 732 -708V-172H658V-600H597V-172H536V-104H941ZM268 -716C237 -746 176 -789 130 -817L85 -766C132 -735 193 -689 222 -658ZM236 -460C202 -487 134 -526 83 -552L42 -499C93 -470 161 -428 193 -400ZM223 -291C175 -186 111 -64 66 7L132 55C181 -32 236 -146 280 -245ZM489 -500L478 -498H397C433 -584 476 -698 509 -789H289V-721H414C379 -622 336 -511 301 -436H460C449 -341 431 -259 403 -192C386 -229 370 -274 358 -328L301 -308C320 -231 342 -170 370 -121C335 -57 289 -9 237 22C251 35 269 61 277 77C330 42 375 -3 411 -62C489 28 595 54 734 54H941C945 35 956 4 967 -14C929 -12 766 -12 738 -12C614 -12 515 -36 444 -124C488 -218 516 -339 529 -492Z"/>
</svg>