<svg xmlns="http://www.w3.org/2000/svg" viewBox="0 -1000 1000 1000">
	<path fill="#000000" d="M307 -727C270 -755 195 -797 141 -824L100 -770C155 -740 229 -695 264 -666ZM243 -466C206 -492 134 -531 81 -556L40 -501C94 -473 166 -430 202 -404ZM136 59C184 -34 240 -157 281 -262L224 -310C178 -197 114 -68 70 10ZM475 -196H663V-61H475ZM663 -461H475V-590H663ZM663 -263H475V-394H663ZM955 -61H735V-196H910V-263H735V-394H911V-461H735V-590H934V-659H706L767 -685C754 -725 722 -785 693 -830L627 -804C654 -760 683 -699 697 -659H494C517 -708 538 -759 556 -810L485 -831C437 -685 358 -539 272 -446C287 -433 317 -406 329 -392C354 -422 378 -457 403 -494V77H475V7H955Z"/>
</svg>