<svg xmlns="http://www.w3.org/2000/svg" viewBox="0 -1000 1000 1000">
	<path fill="#000000" d="M293 -704C259 -738 190 -786 135 -816L90 -769C145 -736 214 -685 245 -651ZM241 -452C207 -483 138 -529 84 -557L40 -508C94 -477 163 -430 195 -396ZM132 51C180 -42 236 -167 278 -272L220 -316C174 -203 111 -72 67 7ZM580 -440H653V-618C743 -549 844 -462 896 -405L944 -451C892 -505 796 -583 709 -649H917V-714H653V-837H580V-714H325V-649H526C467 -571 371 -502 278 -467C294 -454 316 -428 326 -411C422 -452 516 -528 580 -616ZM458 -227H770V-147H458ZM458 -354H770V-275H458ZM390 -90H841V-411H390ZM299 43H930V-19H299Z"/>
</svg>