<svg xmlns="http://www.w3.org/2000/svg" viewBox="0 -1000 1000 1000">
	<path fill="#000000" d="M899 -786H827V-613H663V-836H591V-613H435V-786H366V-547H899ZM244 -465C207 -492 134 -530 81 -555L41 -500C95 -472 166 -430 202 -403ZM137 59C185 -34 241 -156 282 -261L224 -309C178 -196 114 -67 70 10ZM100 -769C155 -739 229 -694 264 -665L307 -726C270 -754 195 -796 142 -823ZM950 -407V-473H314V-407H578C570 -376 559 -342 549 -314H352V76H420V-250H519V64H579V-250H678V64H739V-250H842V4C842 13 840 15 831 15C822 16 797 16 766 15C775 33 784 59 786 78C833 78 864 77 884 66C906 55 911 37 911 4V-314H622C635 -342 648 -375 662 -407Z"/>
</svg>