<svg xmlns="http://www.w3.org/2000/svg" viewBox="0 -1000 1000 1000">
	<path fill="#000000" d="M941 -725C913 -758 856 -802 808 -832L765 -794C814 -762 871 -715 898 -682ZM289 -708C254 -739 184 -788 133 -821L89 -771C141 -734 209 -682 245 -650ZM240 -459C202 -485 128 -526 76 -553L39 -497C93 -467 165 -424 201 -395ZM212 -304C168 -191 106 -59 62 18L125 57C171 -35 228 -160 268 -265ZM653 -113C638 -129 578 -185 550 -210C557 -251 559 -293 559 -332V-464H656V-522H406V-464H503V-333C503 -305 502 -277 499 -248C489 -286 469 -345 450 -391L410 -380C428 -331 448 -266 457 -226L498 -242C487 -163 456 -84 370 -19C383 -9 402 9 411 23C480 -29 517 -90 536 -153C565 -122 598 -83 612 -61ZM615 -232C634 -270 655 -331 674 -383L623 -401C613 -356 591 -289 574 -247ZM864 -522C846 -418 818 -324 780 -241C764 -341 750 -469 742 -610H947V-677H739C737 -727 735 -779 734 -831H666C668 -778 669 -727 672 -677H314V-410C314 -275 304 -91 215 40C231 48 260 67 272 79C366 -59 380 -265 380 -410V-610H675C686 -427 703 -267 730 -147C688 -81 637 -24 574 21C589 32 614 55 624 68C673 29 715 -16 753 -68C783 20 823 72 876 73C914 74 950 31 969 -131C957 -136 928 -153 915 -167C909 -69 896 -12 876 -13C847 -14 822 -63 801 -143C859 -246 900 -370 928 -511Z"/>
</svg>