<svg xmlns="http://www.w3.org/2000/svg" viewBox="0 -1000 1000 1000">
	<path fill="#000000" d="M910 -790H839V-637H677V-835H606V-637H433V-790H365V-571H910ZM232 -831C188 -678 116 -525 35 -425C47 -406 67 -367 75 -350C104 -388 133 -432 160 -480V77H231V-623C257 -685 281 -749 300 -811ZM439 -114H641V-33H439ZM641 -309H439V-386H641ZM641 -171H439V-252H641ZM955 -33H712V-114H915V-171H712V-252H915V-309H712V-386H938V-448H727C717 -480 693 -527 671 -562L606 -543C622 -514 640 -478 651 -448H451C464 -478 476 -511 486 -542L420 -560C386 -448 327 -341 256 -271C269 -254 291 -219 297 -204C323 -231 348 -264 371 -299V78H439V31H955Z"/>
</svg>