<svg xmlns="http://www.w3.org/2000/svg" viewBox="0 -1000 1000 1000">
	<path fill="#000000" d="M244 -711C216 -745 157 -791 108 -821L62 -774C111 -742 169 -693 196 -658ZM116 62C153 -28 197 -152 228 -254L171 -290C136 -179 87 -51 52 27ZM40 -507C91 -477 153 -429 181 -395L228 -449C199 -482 136 -527 84 -555ZM430 -806C415 -773 395 -739 372 -705C351 -739 324 -774 291 -808L241 -772C279 -732 309 -690 331 -647C296 -601 257 -558 217 -524C232 -513 254 -493 266 -480C298 -509 330 -543 360 -578C375 -533 384 -487 389 -438C352 -368 287 -288 233 -244C251 -231 272 -209 282 -193C319 -229 361 -280 396 -333V-298C396 -174 389 -43 366 -14C359 -5 351 -1 338 1C321 2 290 3 255 0C267 20 273 45 273 67C306 69 339 68 366 63C389 60 406 50 418 34C454 -17 462 -158 462 -297C462 -417 454 -530 407 -637C440 -682 469 -728 492 -774ZM931 -519C900 -567 840 -630 779 -683H949V-747H757C759 -767 760 -785 760 -803V-834H695V-805C695 -787 694 -768 691 -747H517V-683H674C650 -625 598 -565 489 -517C504 -506 526 -483 534 -468C645 -519 702 -584 731 -648C792 -593 853 -526 883 -477ZM708 -275V-143H593V-275ZM765 -88V-330H535V-36H593V-88ZM957 -462H493V-397H833V-2C833 11 829 14 816 14C803 15 758 16 708 14C717 32 726 58 730 76C795 76 839 76 866 65C893 54 901 37 901 -1V-397H957Z"/>
</svg>