<svg xmlns="http://www.w3.org/2000/svg" viewBox="0 -1000 1000 1000">
	<path fill="#000000" d="M244 -830C196 -676 116 -525 30 -425C42 -407 62 -368 69 -350C101 -389 134 -434 163 -483V73H234V-615C264 -678 290 -745 312 -811ZM721 -687C695 -665 662 -643 626 -623C577 -645 526 -667 480 -683L446 -643C484 -630 526 -612 567 -592C521 -570 473 -550 427 -535C440 -524 460 -501 469 -490C518 -509 573 -536 625 -564C676 -539 721 -512 753 -491L789 -535C762 -554 723 -576 680 -597C715 -619 748 -642 775 -666ZM401 -697H827V-482H401ZM675 -431V-384C675 -320 691 -297 758 -297H878C902 -297 927 -298 941 -302C939 -317 937 -342 935 -359C920 -355 892 -354 876 -354H761C743 -354 740 -361 740 -383V-431H895V-749H614C630 -770 648 -792 663 -816L586 -832C575 -809 557 -776 539 -749H336V-431H483C467 -365 421 -333 289 -315C302 -302 319 -276 324 -261C477 -287 531 -337 550 -431ZM759 -202C727 -158 684 -121 634 -90C580 -118 532 -149 493 -185C500 -191 506 -196 513 -202ZM811 -259L799 -255H565C584 -276 601 -295 615 -316L547 -328C524 -297 492 -262 452 -228C443 -239 435 -250 427 -262L373 -239C383 -224 395 -209 407 -194C383 -177 357 -161 328 -146C344 -137 365 -117 374 -102C401 -117 425 -133 448 -150C484 -115 526 -84 572 -57C489 -19 392 7 294 20C306 34 319 61 325 77C437 59 546 27 638 -23C724 18 822 47 926 65C934 47 952 20 966 8C870 -6 780 -29 701 -61C765 -106 819 -164 855 -237Z"/>
</svg>