<svg xmlns="http://www.w3.org/2000/svg" viewBox="0 -1000 1000 1000">
	<path fill="#000000" d="M840 -674C820 -617 786 -570 742 -532C690 -573 652 -621 629 -668L631 -674ZM956 -674V-734H662C675 -763 687 -795 697 -826L634 -841C605 -741 551 -650 484 -589C497 -577 521 -552 530 -539C552 -560 574 -586 594 -614C618 -573 651 -533 694 -496C639 -460 573 -434 499 -415C512 -403 531 -375 538 -362C615 -385 684 -416 743 -458C795 -421 857 -392 929 -371C937 -389 955 -414 968 -427C900 -443 841 -467 792 -497C843 -544 883 -603 907 -674ZM220 -686C198 -721 152 -779 117 -821L64 -788C99 -744 144 -683 164 -647ZM198 -421C173 -455 124 -508 88 -549L34 -516C71 -475 118 -417 142 -383ZM109 58C151 -32 200 -156 235 -259L181 -295C143 -184 88 -55 49 22ZM353 -840C319 -696 263 -552 195 -458C207 -444 226 -413 233 -399C252 -424 268 -453 285 -482V73H346V-614C373 -682 395 -754 413 -826ZM417 -112H474V-659H417ZM578 -186C555 -120 520 -48 482 3C497 11 525 28 536 37C572 -16 612 -98 638 -169ZM936 -232V-295H763V-394H696V-295H524V-232H696V72H763V-232ZM805 -163C841 -107 885 -30 904 16L960 -12C938 -58 894 -131 858 -187Z"/>
</svg>