<svg xmlns="http://www.w3.org/2000/svg" viewBox="0 -1000 1000 1000">
	<path fill="#000000" d="M819 -464H945V-520H819V-593H751V-520H389V-464H751V-343C751 -332 748 -329 736 -328C724 -328 686 -328 641 -329C650 -312 661 -287 664 -269C722 -269 761 -269 786 -280C812 -290 819 -306 819 -341ZM457 -422C502 -394 557 -346 582 -312L635 -350C608 -382 555 -427 506 -454ZM808 -746C784 -712 749 -686 710 -662C686 -687 649 -718 615 -746ZM857 -794L844 -792H656C670 -802 684 -813 695 -824L629 -838C580 -796 491 -756 374 -729C387 -719 406 -699 415 -684C468 -699 514 -715 556 -734C593 -705 635 -667 662 -638C583 -603 488 -584 390 -573C401 -560 415 -540 420 -523C627 -551 817 -614 898 -774ZM574 -679C508 -671 451 -664 403 -660L411 -617C462 -623 516 -630 575 -638ZM283 -481V-271H350V-837H283V-664H170V-808H108V-605H283V-541H50V-481H126C118 -402 97 -343 34 -307C49 -298 66 -275 73 -260C153 -306 180 -381 190 -481ZM349 -229L336 -226H87V-165H296C242 -84 145 -28 42 -3C55 12 73 38 81 55C218 15 342 -68 394 -211ZM827 -278C779 -239 698 -188 632 -152C590 -192 558 -239 535 -292V-321H462V-4C462 7 459 11 445 11C431 12 387 12 335 11C345 31 355 57 359 78C426 78 471 77 499 66C528 55 535 36 535 -3V-171C615 -55 740 22 913 51C922 32 942 2 958 -13C845 -28 752 -63 679 -114C745 -147 825 -193 888 -237Z"/>
</svg>