<svg xmlns="http://www.w3.org/2000/svg" viewBox="0 -1000 1000 1000">
	<path fill="#000000" d="M612 -344V-288H950V-344H808V-422H926V-476H808V-545H741V-476H633V-422H741V-344ZM946 -620H657V-693H894V-754H657V-837H584V-754H369V-693H584V-620H313V-560H946ZM594 -362L485 -349V-422H592V-476H485V-545H420V-476H314V-422H420V-342C373 -336 329 -331 293 -328L302 -271C384 -281 491 -294 595 -308ZM292 -724C258 -759 188 -801 132 -827L89 -774C146 -746 215 -700 248 -666ZM250 -466C214 -497 142 -536 83 -560L41 -506C101 -479 173 -437 208 -405ZM207 -296C165 -184 105 -55 63 21L130 64C176 -29 228 -150 267 -254ZM776 3C749 3 744 0 744 -23V-172H957V-234H296V-172H477C461 -70 413 -13 257 18C271 31 289 61 297 77C475 35 529 -40 550 -172H672V-23C672 45 690 65 767 65H874C935 65 954 38 962 -72C942 -78 914 -87 899 -98C896 -10 891 3 867 3Z"/>
</svg>