<svg xmlns="http://www.w3.org/2000/svg" viewBox="0 -1000 1000 1000">
	<path fill="#000000" d="M947 -423H307V-363H947ZM456 -262H799V-175H456ZM868 -124V-313H389V-124ZM837 -648H733V-720H837ZM837 -524H733V-598H837ZM417 -598H517V-524H417ZM417 -720H517V-648H417ZM674 -598V-524H575V-598ZM674 -720V-648H575V-720ZM900 -772H733V-836H674V-772H575V-836H517V-772H356V-472H900ZM310 -695C274 -731 199 -781 140 -813L94 -764C153 -729 227 -676 263 -640ZM266 -440C227 -472 149 -517 89 -547L45 -495C106 -463 183 -414 220 -381ZM132 54C184 -36 245 -155 291 -256L234 -302C184 -192 114 -68 66 7ZM754 -10C766 -36 779 -68 793 -98L726 -119C717 -88 700 -42 686 -10H563C555 -39 538 -81 518 -114L459 -97C473 -71 487 -37 495 -10H302V52H954V-10Z"/>
</svg>