<svg xmlns="http://www.w3.org/2000/svg" viewBox="0 -1000 1000 1000">
	<path fill="#000000" d="M863 -525C863 -514 860 -512 849 -511C839 -511 805 -511 765 -512C773 -496 781 -476 784 -459C839 -459 874 -460 896 -469C919 -479 925 -493 925 -524V-812H644V-756H863ZM821 -676C793 -693 739 -720 698 -736L669 -701C710 -682 763 -653 792 -634ZM834 -643C762 -609 691 -575 642 -554L675 -504C727 -532 789 -565 848 -596ZM362 -500C418 -531 482 -567 544 -602L528 -649C454 -612 379 -574 328 -551ZM349 -704C396 -685 456 -656 487 -637L517 -680C484 -697 424 -725 378 -741ZM310 -714C269 -743 186 -789 128 -822L86 -773C145 -737 226 -688 267 -658ZM273 -457C228 -485 143 -528 82 -556L41 -505C104 -474 187 -428 230 -400ZM131 65C182 -31 242 -161 286 -272L228 -313C180 -195 114 -57 66 25ZM464 -92H662V-20H464ZM662 -264H464V-333H662ZM662 -144H464V-212H662ZM954 -20H731V-92H907V-144H731V-212H907V-264H731V-333H932V-391H730C719 -417 704 -451 689 -478L626 -460C637 -440 648 -414 657 -391H488C501 -413 513 -437 524 -458L491 -469C539 -469 573 -470 593 -478C617 -488 622 -503 622 -534V-811H334V-756H560V-534C560 -524 557 -522 545 -521C535 -520 501 -520 461 -521C468 -507 476 -489 479 -473L455 -481C423 -398 357 -295 290 -229C306 -218 328 -196 341 -184C360 -203 378 -226 397 -249V76H464V38H955Z"/>
</svg>