<svg xmlns="http://www.w3.org/2000/svg" viewBox="0 -1000 1000 1000">
	<path fill="#000000" d="M315 -678C315 -620 336 -594 422 -594H760C812 -594 868 -595 891 -601C888 -613 886 -629 883 -648C858 -643 790 -641 750 -641H429C385 -641 378 -650 378 -677V-724H943V-777H642C632 -797 617 -822 603 -841L539 -821C547 -808 555 -792 563 -777H250V-724H315ZM373 -521H792V-455H373ZM306 -410H861V-566H306ZM247 -711C217 -739 156 -786 111 -820L65 -774C110 -738 170 -689 200 -658ZM227 -459C193 -487 129 -530 82 -558L38 -509C86 -477 151 -432 183 -403ZM171 -289C136 -179 88 -50 53 27L118 61C155 -29 198 -151 229 -254ZM317 -227C340 -216 366 -201 381 -190L403 -226V-133C369 -126 340 -121 312 -116C316 -149 317 -179 317 -206ZM403 -319V-229C387 -242 359 -256 336 -265L317 -239V-319ZM452 -370H270V-206C270 -130 263 -31 208 43C220 47 240 61 248 70C284 22 301 -40 310 -100L323 -68C351 -76 376 -83 403 -92V10C403 18 401 21 393 21H334C340 35 347 54 348 68C387 68 413 67 430 58C447 49 452 36 452 10ZM606 -257C604 -214 597 -165 578 -117C560 -133 541 -147 523 -161C531 -188 537 -220 545 -253ZM685 -262V-308L655 -307V-349H607V-305L555 -302C560 -330 565 -359 569 -384L520 -386C517 -360 512 -329 507 -300L460 -298L467 -249L497 -251C488 -210 479 -172 470 -142C498 -121 528 -96 555 -72C533 -36 503 -1 461 30C472 39 486 56 494 68C536 35 568 -1 591 -37C609 -20 625 -3 637 13L674 -23C658 -41 638 -62 616 -82C643 -143 652 -204 654 -260ZM889 21C884 21 881 20 880 17C877 13 877 -1 877 -23V-367H686V-313H725V-210C715 -224 705 -237 697 -249L665 -224C684 -197 704 -167 724 -137C720 -74 705 -3 658 52C669 57 689 71 697 80C734 37 752 -19 762 -74C772 -57 780 -42 787 -29L821 -59C809 -82 791 -112 770 -144C771 -157 771 -170 771 -183V-313H826V-31C826 28 828 42 839 52C849 63 862 67 877 67H904C915 67 927 64 934 58C942 52 949 43 953 27C956 12 959 -32 960 -70C947 -74 933 -82 922 -90C922 -51 921 -20 919 -5C917 7 914 14 912 17C910 20 906 21 901 21Z"/>
</svg>