<svg xmlns="http://www.w3.org/2000/svg" viewBox="0 -1000 1000 1000">
	<path fill="#000000" d="M862 -744C858 -671 853 -642 845 -633C839 -625 832 -624 819 -625C809 -625 779 -625 747 -628C757 -614 763 -589 764 -571C797 -570 830 -570 848 -571C870 -572 884 -578 897 -592C914 -612 920 -661 926 -777C927 -787 927 -804 927 -804H604V-744H699C686 -678 655 -624 581 -592C595 -582 613 -561 621 -546C709 -589 745 -657 760 -744ZM687 -242H860V-171H687ZM687 -364H860V-293H687ZM687 -484H860V-414H687ZM627 -115H921V-539H627ZM271 -735C236 -766 168 -807 115 -833L76 -778C130 -750 197 -705 230 -673ZM231 -462C198 -491 130 -533 77 -559L38 -506C91 -477 159 -432 191 -402ZM193 -292C154 -180 97 -50 58 27L126 65C168 -27 217 -149 253 -254ZM336 -500H409V-350H336ZM533 -350H459V-500H533ZM598 -140C579 -159 499 -224 466 -250V-290H589V-560H465V-649H598V-715H465V-836H402V-715H265V-649H402V-560H281V-290H387C347 -204 281 -110 222 -58C233 -39 250 -7 258 14C308 -37 361 -120 402 -204V77H466V-182C500 -146 541 -100 559 -77ZM683 -109C653 -61 593 2 536 38C552 48 577 66 590 77C643 40 707 -25 745 -81ZM792 -81C837 -32 887 35 910 79L965 43C943 0 891 -65 846 -112Z"/>
</svg>