<svg xmlns="http://www.w3.org/2000/svg" viewBox="0 -1000 1000 1000">
	<path fill="#000000" d="M861 -476H700V-567H861ZM861 -330H700V-423H861ZM861 -183H700V-277H861ZM642 -623V-127H921V-623H773C782 -653 792 -688 802 -721H942V-783H611V-721H737C732 -689 725 -652 718 -623ZM241 -684C217 -720 164 -772 122 -808L84 -766C127 -729 178 -674 201 -637ZM209 -429C179 -462 119 -507 71 -536L38 -490C86 -459 145 -411 174 -378ZM182 -299C145 -191 93 -66 58 7L113 49C151 -40 196 -157 230 -257ZM537 -391C522 -307 497 -233 461 -170V-456H593V-518H475V-637H577V-699H475V-838H416V-518H366V-742H310V-518H254V-456H404V-169H461C409 -79 334 -11 229 31C242 45 259 66 267 83C457 -3 551 -157 592 -378ZM314 -404C304 -334 283 -244 246 -187C259 -180 280 -165 290 -155C330 -218 356 -315 371 -392ZM700 -116C671 -67 613 -3 559 35C574 46 595 65 606 78C658 38 720 -29 759 -86ZM798 -86C840 -39 886 26 906 68L957 37C935 -5 888 -68 846 -113Z"/>
</svg>