<svg xmlns="http://www.w3.org/2000/svg" viewBox="0 -1000 1000 1000">
	<path fill="#000000" d="M226 -704C203 -737 151 -784 108 -816L67 -774C110 -742 161 -692 184 -658ZM190 -442C166 -471 117 -512 76 -540L38 -498C78 -468 127 -425 150 -395ZM165 -275C130 -171 83 -50 49 23L104 59C140 -26 183 -142 214 -239ZM274 -360C279 -409 283 -466 287 -521H392V-800H222V-734H339V-586H236C231 -493 221 -373 212 -296H336C327 -103 317 -27 303 -9C296 0 289 2 277 2C265 2 236 2 205 -1C214 19 219 49 220 71C252 73 283 73 301 71C322 68 338 61 351 41C373 9 383 -79 394 -327C395 -337 395 -360 395 -360ZM596 -259C590 -237 583 -215 575 -191C564 -206 552 -219 540 -231L511 -207C527 -189 543 -170 558 -148C544 -116 527 -85 509 -61C520 -54 532 -42 540 -34C557 -57 571 -81 584 -109C595 -92 603 -76 609 -63L640 -92C632 -110 619 -131 605 -153C616 -181 626 -212 634 -241ZM594 -494C588 -472 581 -450 573 -426C561 -440 549 -454 536 -465L509 -439C524 -422 541 -404 556 -384C543 -356 528 -328 512 -306C522 -300 536 -289 543 -280C558 -300 571 -324 583 -347C595 -331 604 -316 611 -302L639 -331C631 -348 619 -369 603 -389C615 -418 624 -447 632 -476ZM841 -337C833 -354 820 -374 805 -395C817 -422 827 -451 835 -478L797 -497C792 -476 785 -454 776 -432C765 -446 754 -459 742 -470L714 -445C728 -428 744 -410 759 -390C745 -361 728 -332 711 -309C722 -303 734 -291 742 -282C758 -303 772 -327 785 -353C797 -336 805 -321 811 -307ZM841 -97C833 -114 820 -133 805 -154C817 -183 828 -214 836 -243L797 -262C792 -240 784 -216 776 -192C765 -207 753 -221 741 -232L712 -207C727 -189 744 -170 759 -149C745 -118 729 -88 712 -64C722 -57 735 -45 743 -36C759 -58 772 -83 786 -110C796 -94 804 -79 809 -67ZM957 -614C921 -647 850 -691 792 -718L756 -679C807 -655 870 -612 908 -580H706V-738H940V-801H431V-738H643V-580H451C501 -608 558 -647 599 -683L554 -717C517 -686 452 -641 399 -612C412 -602 427 -585 437 -572L440 -574V75H498V-520H648V69H700V-520H863V-2C863 10 860 13 849 13C840 14 808 14 774 12C781 29 790 54 792 70C843 71 874 70 894 60C915 49 921 32 921 -1V-571Z"/>
</svg>