<svg xmlns="http://www.w3.org/2000/svg" viewBox="0 -1000 1000 1000">
	<path fill="#000000" d="M256 -833C205 -682 120 -533 30 -436C42 -419 63 -381 71 -363C100 -396 129 -434 156 -474V75H226V-590C264 -661 297 -737 324 -812ZM414 -162C381 -102 327 -42 271 -2C287 8 315 30 327 41C381 -4 442 -74 479 -143ZM744 -130C798 -78 859 -5 886 43L948 8C920 -40 856 -111 803 -162ZM777 -380H454V-459H777ZM777 -248H454V-329H777ZM669 -666C692 -612 723 -559 758 -512H477C516 -558 549 -609 576 -666ZM888 -648C868 -624 834 -589 804 -562C778 -594 757 -630 738 -666H948V-730H605C617 -759 627 -791 636 -823L567 -837C558 -800 545 -763 530 -730H297V-666H500C482 -634 463 -603 440 -575C415 -598 382 -624 354 -643L307 -601C337 -581 371 -550 397 -525C355 -482 306 -445 252 -416C267 -403 291 -375 301 -360C331 -379 360 -400 387 -422V-195H583V-2C583 9 579 12 564 13C551 14 505 14 451 12C461 32 471 57 475 78C543 78 589 78 619 67C648 56 656 39 656 -1V-195H847V-416C873 -393 901 -372 929 -355C941 -373 963 -399 979 -411C930 -437 882 -474 840 -520C873 -544 911 -577 945 -607Z"/>
</svg>