<svg xmlns="http://www.w3.org/2000/svg" viewBox="0 -1000 1000 1000">
	<path fill="#000000" d="M729 -710C713 -746 679 -799 648 -841L589 -812C617 -770 650 -713 664 -677ZM154 -392C144 -457 119 -574 94 -664L39 -651C63 -561 86 -442 95 -373ZM273 -834H202V-487C202 -303 186 -115 41 27C58 39 82 64 93 81C174 3 219 -89 243 -186C282 -136 330 -70 351 -35L403 -93C381 -121 295 -228 259 -265C270 -337 273 -411 273 -486ZM953 34C929 -39 865 -152 804 -238L745 -215C776 -171 805 -120 831 -71L530 -46C651 -168 777 -326 885 -493L818 -527C788 -476 755 -425 721 -377L530 -365C587 -434 642 -521 689 -607H951V-676H412V-653L357 -675C342 -613 309 -523 285 -468L331 -446C356 -494 386 -565 412 -629V-607H609C563 -515 502 -428 482 -403C459 -374 441 -354 423 -350C432 -332 443 -298 445 -284C465 -291 493 -296 673 -310C603 -217 539 -142 510 -114C465 -66 434 -35 408 -29C417 -10 430 25 434 39C460 27 501 22 860 -11C873 15 883 40 889 61Z"/>
</svg>