<svg xmlns="http://www.w3.org/2000/svg" viewBox="0 -1000 1000 1000">
	<path fill="#000000" d="M336 -676C325 -606 301 -504 280 -441L327 -422C350 -483 376 -579 399 -656ZM152 -401C143 -465 118 -577 94 -665L39 -653C62 -564 85 -449 93 -382ZM256 -825H188V-490C188 -309 173 -121 37 23C52 34 76 59 87 75C162 -4 204 -93 227 -187C266 -134 315 -63 336 -25L387 -79C366 -108 279 -224 242 -266C254 -340 256 -416 256 -490ZM691 -170H883V-226H691V-290H894V-347H691V-418H619V-347H423V-290H619V-226H436V-170H619V-101H388V-42H619V76H691V-42H932V-101H691ZM562 -678H779C751 -633 713 -593 668 -558C624 -593 587 -632 560 -675ZM832 -742L819 -739H601C616 -766 631 -795 643 -823L578 -840C537 -739 464 -647 382 -587C397 -575 419 -548 429 -535C460 -560 491 -590 520 -623C547 -586 579 -551 615 -519C534 -465 440 -427 349 -405C362 -391 377 -366 385 -349C482 -376 581 -418 667 -478C743 -424 831 -383 925 -359C935 -376 955 -404 970 -418C880 -438 794 -473 721 -519C787 -574 841 -641 877 -719Z"/>
</svg>