<svg xmlns="http://www.w3.org/2000/svg" viewBox="0 -1000 1000 1000">
	<path fill="#000000" d="M841 -507C874 -507 910 -508 926 -513C923 -528 920 -555 919 -573C901 -569 862 -567 838 -567H660C631 -567 624 -578 624 -609V-681H885V-740H624V-834H555V-611C555 -535 577 -507 658 -507ZM847 -154C917 -154 939 -177 947 -264C927 -268 899 -278 883 -289C880 -226 873 -217 840 -217H680C634 -217 626 -222 626 -248V-340H887V-399H626V-489H555V-248C555 -173 580 -154 673 -154ZM119 80C168 35 213 -37 240 -101L171 -119C144 -57 97 10 51 48ZM343 -93C354 -39 361 30 361 71L433 62C433 22 424 -47 411 -98ZM194 -448C246 -427 313 -395 348 -375L378 -417C342 -436 275 -465 224 -485ZM183 -516H391V-371C310 -344 233 -318 177 -301C182 -336 183 -369 183 -398ZM460 -573H115V-399C115 -331 111 -246 62 -182C78 -174 106 -151 117 -139C152 -185 169 -243 177 -301L203 -245C259 -268 325 -294 391 -322V-230C391 -218 387 -214 373 -214C360 -213 319 -213 268 -214C276 -197 286 -175 288 -157C354 -157 399 -158 425 -168C452 -177 460 -194 460 -230ZM329 -758C350 -737 371 -711 392 -687L176 -671C221 -712 267 -764 308 -817L239 -841C197 -775 131 -709 111 -692C92 -674 76 -663 60 -660C69 -643 79 -609 83 -595C104 -603 141 -608 433 -632C445 -615 455 -600 463 -587L523 -617C494 -662 434 -734 385 -784ZM549 -90C571 -38 593 29 602 71L674 54C665 14 640 -54 618 -103ZM753 -92C800 -40 854 32 876 78L948 50C924 3 869 -67 821 -118Z"/>
</svg>