<svg xmlns="http://www.w3.org/2000/svg" viewBox="0 -1000 1000 1000">
	<path fill="#000000" d="M306 -672C292 -608 265 -514 241 -456L287 -438C314 -492 343 -581 370 -650ZM134 -381C130 -449 113 -568 96 -662L41 -653C56 -560 71 -437 75 -366ZM240 -826H174V-486C174 -305 162 -118 41 30C55 41 80 63 91 79C158 -2 196 -93 215 -190C248 -142 285 -82 303 -50L353 -102C334 -127 259 -233 229 -271C238 -341 240 -413 240 -486ZM485 -153C457 -94 409 -35 358 5C375 14 401 34 413 45C463 0 517 -68 549 -135ZM754 -125C800 -73 853 -3 876 43L933 8C909 -36 854 -105 808 -155ZM776 -376H528V-446H776ZM776 -254H528V-325H776ZM676 -669C701 -608 734 -551 773 -500H538C576 -549 608 -606 635 -669ZM871 -647C854 -624 825 -594 800 -568C776 -600 755 -634 739 -669H928V-732H657C668 -762 676 -794 684 -827L617 -837C609 -800 601 -765 589 -732H388V-669H565C550 -636 533 -606 513 -577C494 -599 465 -624 439 -644L398 -603C425 -581 455 -553 476 -527C439 -485 397 -450 348 -421C363 -410 387 -383 396 -370C420 -386 442 -404 464 -422V-201H620V0C620 10 617 12 606 13C596 14 563 14 523 13C532 32 542 57 543 77C598 77 634 77 659 66C684 55 689 37 689 1V-201H843V-425C864 -408 884 -392 906 -379C917 -396 937 -420 952 -433C910 -455 870 -487 834 -525C863 -549 894 -578 922 -607Z"/>
</svg>