<svg xmlns="http://www.w3.org/2000/svg" viewBox="0 -1000 1000 1000">
	<path fill="#000000" d="M126 -382C123 -448 107 -567 90 -661L41 -653C56 -561 70 -439 73 -369ZM231 -829H166V-481C166 -301 153 -118 35 25C49 36 72 58 83 74C147 -3 185 -89 205 -180C236 -129 273 -62 290 -28L337 -76C320 -104 246 -223 219 -260C229 -332 231 -406 231 -481ZM278 -438C299 -490 325 -574 348 -640L292 -658C281 -598 256 -507 236 -453ZM549 -742V-658H433V-742ZM433 -522V-604H549V-522ZM610 -464V-800H368V77H433V-464ZM483 -70C516 -122 531 -208 539 -282L491 -294C485 -224 469 -144 438 -97ZM730 -321C702 -354 646 -399 598 -429L558 -396C606 -364 661 -318 687 -284ZM849 -100C839 -151 808 -235 775 -297L729 -280C761 -216 791 -131 800 -79ZM638 -75C620 -75 617 -78 617 -98V-328H563V-98C563 -39 576 -23 631 -23H697C744 -23 759 -49 764 -159C747 -163 726 -172 715 -181C713 -87 709 -75 691 -75ZM735 -522V-604H857V-522ZM857 -742V-658H735V-742ZM923 -800H674V-464H857V-1C857 12 852 17 840 17C828 18 789 18 747 16C757 33 766 61 770 78C830 78 867 77 890 66C914 55 923 37 923 -1Z"/>
</svg>