<svg xmlns="http://www.w3.org/2000/svg" viewBox="0 -1000 1000 1000">
	<path fill="#000000" d="M317 -737V-683H577V-623H351V-572H577V-507H286V-452H955V-507H649V-572H888V-623H649V-683H922V-737H767C786 -760 807 -786 826 -815L755 -838C740 -810 714 -766 693 -737H543C530 -765 501 -807 475 -836L416 -814C434 -791 454 -762 468 -737ZM765 -399C807 -371 857 -328 881 -300L927 -337C903 -366 851 -406 809 -432ZM256 -834C203 -685 116 -539 23 -445C35 -428 56 -391 63 -375C95 -409 125 -448 155 -490V75H226V-605C263 -672 296 -743 322 -814ZM851 -216C830 -182 802 -150 770 -120C759 -152 749 -189 742 -230H960V-285H734C728 -329 725 -377 724 -428H659C660 -378 664 -330 669 -285H507V-364C547 -371 585 -379 617 -388L574 -433C507 -412 385 -395 283 -385C290 -373 297 -352 300 -339C345 -342 393 -347 441 -354V-285H278V-230H441V-152C377 -143 319 -136 273 -131L281 -74L441 -96V3C441 14 437 16 426 17C415 18 377 18 336 16C345 33 354 57 357 73C414 73 452 73 475 64C500 54 507 38 507 4V-105L633 -123L632 -177L507 -160V-230H677C687 -172 700 -120 718 -76C670 -41 618 -10 565 13C578 24 600 50 609 62C654 39 700 11 744 -21C779 40 826 76 883 76C939 75 961 49 970 -44C954 -50 934 -61 919 -75C916 -9 909 12 887 13C853 13 821 -14 795 -63C840 -102 880 -147 911 -196Z"/>
</svg>