<svg xmlns="http://www.w3.org/2000/svg" viewBox="0 -1000 1000 1000">
	<path fill="#000000" d="M691 -714C676 -747 645 -799 619 -838L565 -817C589 -777 620 -724 633 -689ZM464 -667C453 -709 433 -774 417 -825L359 -811C374 -761 393 -694 403 -652ZM126 -382C123 -448 107 -567 90 -661L41 -653C56 -561 70 -439 73 -369ZM332 -103C316 -128 250 -232 221 -271C229 -339 231 -410 231 -481V-829H166V-481C166 -301 153 -119 35 25C49 36 72 58 83 74C150 -6 188 -96 207 -191C237 -144 270 -85 285 -55ZM963 -159C942 -224 895 -339 854 -430C889 -455 925 -483 956 -509L908 -549C871 -514 812 -466 761 -431C744 -471 721 -509 692 -540C719 -565 745 -593 766 -621H932V-682H824C851 -723 878 -774 902 -819L840 -837C823 -792 791 -729 763 -682H534V-621H695C643 -563 570 -511 498 -476C510 -465 530 -440 538 -428C575 -448 615 -475 652 -504C666 -489 677 -470 688 -450C647 -406 575 -358 515 -334L520 -358L488 -370L478 -367H428C451 -437 480 -524 501 -595H333C338 -610 344 -626 348 -641L292 -658C281 -599 256 -507 236 -453L278 -438C293 -472 308 -520 324 -568V-529H423C400 -451 372 -366 348 -308H448C433 -234 408 -151 378 -92C346 -74 309 -33 271 19L319 81C352 18 388 -42 412 -42C434 -42 463 -12 499 14C557 54 621 69 714 69C782 69 896 65 946 62C947 42 957 9 964 -10C893 -1 788 3 716 3C630 3 568 -8 514 -44C482 -66 460 -85 440 -96C472 -161 496 -247 514 -329C525 -316 537 -295 543 -282C599 -310 663 -357 709 -402C716 -380 723 -357 727 -334C677 -275 586 -210 513 -179C524 -165 538 -139 543 -123C608 -157 681 -211 736 -267C741 -197 730 -136 712 -117C699 -100 685 -99 666 -99C650 -99 625 -100 598 -102C608 -85 613 -60 614 -43C638 -42 662 -41 678 -41C713 -42 738 -50 760 -75C800 -118 813 -254 777 -380C789 -387 801 -394 813 -402C851 -312 893 -199 914 -134Z"/>
</svg>