<svg xmlns="http://www.w3.org/2000/svg" viewBox="0 -1000 1000 1000">
	<path fill="#000000" d="M664 -624C696 -599 729 -571 761 -541C714 -491 659 -452 602 -429C615 -416 633 -392 641 -378C701 -405 757 -445 806 -498C849 -457 885 -416 908 -384L957 -425C932 -460 891 -503 846 -545C888 -604 921 -674 942 -756L901 -770L890 -768H678V-707H862C847 -664 825 -624 799 -587C769 -614 738 -638 709 -660ZM799 -223C822 -249 850 -289 877 -327L817 -353C802 -323 772 -277 750 -247ZM594 -611C579 -576 557 -543 533 -514C509 -539 476 -569 445 -593L453 -611ZM633 -668L621 -665H571V-715H657V-771H571V-822H509V-665H473C477 -676 480 -687 483 -697L426 -710C410 -643 382 -579 344 -534C357 -526 381 -509 391 -500C401 -515 413 -532 423 -549C450 -526 478 -499 497 -477C453 -434 400 -401 348 -381C360 -370 377 -347 385 -333C509 -387 623 -492 672 -650ZM296 -655C286 -591 264 -498 247 -441L293 -424C313 -478 337 -565 358 -634ZM148 -408C140 -470 116 -580 92 -665L40 -652C62 -567 84 -455 93 -391ZM235 -825H171V-477C171 -297 158 -115 41 29C55 40 78 61 88 77C151 1 188 -85 208 -176C240 -126 277 -62 294 -29L341 -77C324 -105 252 -215 223 -253C233 -327 235 -401 235 -477ZM500 -140C459 -90 397 -36 343 1C358 12 385 36 395 48C450 6 517 -61 564 -118ZM730 -100C793 -57 867 6 903 47L948 -1C912 -42 836 -102 773 -143ZM678 -377H609V-220H489L541 -247C531 -275 502 -315 478 -345L424 -320C447 -290 474 -248 485 -220H348V-159H609V78H678V-159H950V-220H678Z"/>
</svg>