<svg xmlns="http://www.w3.org/2000/svg" viewBox="0 -1000 1000 1000">
	<path fill="#000000" d="M143 -392C136 -457 115 -573 94 -663L40 -654C60 -563 79 -445 85 -376ZM251 -828H184V-482C184 -301 169 -116 33 26C49 38 72 62 83 78C159 0 201 -90 223 -185C252 -141 284 -87 298 -57L348 -107C332 -132 267 -229 239 -266C249 -336 251 -409 251 -481ZM411 69C437 28 461 -36 477 -83L419 -108C405 -62 378 2 351 39ZM527 -84C541 -35 553 29 555 67L618 56C615 19 602 -44 586 -92ZM655 -80C684 -34 714 29 726 68L784 47C772 9 740 -52 711 -97ZM809 -83C841 -34 878 32 892 73L952 50C936 11 899 -54 866 -102ZM757 -403C773 -427 791 -462 810 -496L763 -516C754 -489 735 -447 720 -419ZM494 -497C512 -467 531 -426 539 -400L585 -420C576 -444 556 -483 538 -512ZM457 -530H626V-389H457ZM850 -389H683V-530H850ZM687 -179V-240H924V-292H687V-343H910V-575H687V-627H953V-683H687V-747C775 -754 858 -765 924 -778L879 -828C763 -804 554 -787 382 -779C388 -764 396 -742 398 -727C468 -730 544 -734 619 -741V-683H363V-650L321 -662C309 -602 285 -512 264 -458L310 -440C331 -488 355 -562 378 -627H619V-575H399V-343H619V-292H391V-240H619V-179H358V-120H954V-179Z"/>
</svg>