<svg xmlns="http://www.w3.org/2000/svg" viewBox="0 -1000 1000 1000">
	<path fill="#000000" d="M309 -674C298 -608 272 -510 253 -451L295 -434C318 -490 345 -583 367 -655ZM148 -395C141 -459 120 -574 98 -663L47 -653C68 -565 86 -447 93 -380ZM351 -75C333 -103 260 -211 228 -254C239 -329 241 -405 241 -482V-829H176V-481C176 -302 163 -118 41 25C55 36 78 58 89 74C154 -2 193 -87 213 -177C247 -126 286 -60 304 -26ZM450 -635H603V-579L481 -569L484 -517L603 -527C604 -477 619 -452 678 -452H809C835 -452 864 -453 878 -457C875 -473 874 -489 872 -507C856 -503 824 -502 806 -502H695C673 -502 671 -510 671 -533V-540L818 -552L815 -596L671 -585V-635H871C867 -605 862 -575 857 -553L913 -543C924 -579 935 -635 943 -684L898 -694L888 -691H663V-734H916V-783H663V-837H592V-691H385V-380C385 -253 378 -80 312 41C328 48 357 66 368 76C439 -51 450 -245 450 -380ZM560 -291H661V-244H560ZM560 -376H661V-331H560ZM821 -331H716V-376H821ZM821 -244H716V-291H821ZM500 -202H882V-417H500ZM534 -114H605V-4H534ZM725 -114V-4H653V-114ZM846 -114V-4H772V-114ZM904 -4V-163H477V-4H416V51H957V-4Z"/>
</svg>