<svg xmlns="http://www.w3.org/2000/svg" viewBox="0 -1000 1000 1000">
	<path fill="#000000" d="M401 -636H475V-543H401ZM599 -781V-747H401V-781ZM599 -674H401V-709H599ZM523 -543V-636H599V-543ZM120 -493H875V-370H934V-543H852V-812H670V-768H790V-725H677V-684H790V-640H676V-598H790V-543H648V-819H353V-543H215V-598H324V-640H215V-684H323V-725H215V-781C259 -784 308 -788 348 -800L313 -832C273 -825 202 -813 153 -809V-543H63V-370H120ZM700 -275V-368C745 -344 815 -302 840 -284L867 -320C845 -333 767 -373 724 -395H845V-439H700V-479H646V-439H505V-395H612C581 -361 538 -332 492 -316C503 -307 516 -292 523 -280C570 -298 615 -334 646 -372V-275ZM469 -439H331V-478H278V-439H155V-395H253C214 -358 156 -326 99 -309C108 -301 122 -285 130 -272C183 -290 237 -323 278 -361V-276H331V-362C362 -342 405 -314 420 -299L449 -335C433 -346 374 -378 343 -395H469ZM671 -132C654 -110 623 -80 597 -55C566 -64 537 -71 515 -77C529 -104 538 -136 543 -175H475C456 -40 383 2 97 20C107 34 121 60 125 76C319 60 426 30 484 -32C587 -5 790 57 864 81L891 27C854 15 751 -14 657 -39C680 -58 707 -81 729 -106ZM384 -65C365 -83 329 -112 301 -133L262 -96C291 -74 326 -43 345 -23ZM921 -207V-259H466C477 -273 487 -288 496 -302L434 -312C424 -293 410 -276 393 -259H77V-207H323C253 -166 156 -133 33 -112C44 -101 58 -79 64 -65C222 -96 337 -143 414 -207H596C669 -138 791 -95 928 -78C936 -94 952 -117 964 -129C849 -138 742 -164 673 -207Z"/>
</svg>