<svg xmlns="http://www.w3.org/2000/svg" viewBox="0 -1000 1000 1000">
	<path fill="#000000" d="M932 -694C866 -740 740 -801 643 -837L595 -795C694 -756 819 -691 881 -646ZM337 -837C271 -782 162 -729 65 -697C80 -684 106 -657 116 -643C211 -682 328 -745 402 -811ZM599 -444C562 -410 514 -379 461 -354C440 -376 408 -403 379 -424C391 -431 402 -437 414 -444ZM664 -501L652 -498H496C512 -511 528 -524 542 -539L482 -563C402 -483 250 -422 109 -389C122 -376 143 -348 151 -335C208 -352 267 -373 325 -399C354 -376 383 -350 404 -327C312 -290 209 -262 113 -248C126 -234 142 -208 149 -192C358 -230 599 -320 709 -473ZM801 -232C748 -168 671 -119 580 -81C557 -110 523 -144 492 -171C528 -190 563 -210 595 -232ZM850 -290H671C687 -305 702 -320 716 -336L656 -362C565 -257 393 -180 224 -137C238 -124 258 -96 266 -82C322 -100 380 -120 436 -146C466 -117 497 -85 518 -59C395 -16 253 6 113 17C124 34 137 61 142 81C455 49 775 -36 910 -263L863 -293ZM630 -752C596 -716 550 -685 498 -659C445 -684 400 -714 366 -748L309 -720C342 -686 382 -656 428 -628C314 -584 176 -557 41 -540C55 -525 75 -494 83 -478C226 -502 376 -536 500 -592C620 -539 766 -505 917 -489C926 -509 942 -536 957 -551C818 -562 683 -587 571 -627C620 -656 663 -687 696 -724Z"/>
</svg>