<svg xmlns="http://www.w3.org/2000/svg" viewBox="0 -1000 1000 1000">
	<path fill="#000000" d="M884 -507C812 -547 714 -593 607 -637C693 -684 769 -737 831 -795L759 -835C701 -775 618 -720 521 -671C407 -716 287 -756 178 -784L124 -729C223 -704 329 -669 431 -631C318 -583 194 -545 72 -520C84 -504 104 -474 112 -455C254 -487 396 -535 522 -595C644 -545 754 -492 832 -445ZM709 -474C659 -368 589 -280 500 -208C411 -282 340 -369 290 -467L223 -441C278 -334 351 -241 439 -163C327 -88 192 -34 40 4C55 21 77 55 86 73C242 29 381 -32 498 -114C614 -26 753 39 911 76C922 54 943 22 961 5C809 -26 674 -85 561 -163C652 -239 728 -332 785 -447Z"/>
</svg>