<svg xmlns="http://www.w3.org/2000/svg" viewBox="0 -1000 1000 1000">
	<path fill="#000000" d="M802 -675C787 -596 752 -533 694 -493C706 -483 729 -463 737 -452C769 -476 796 -507 816 -543C853 -511 892 -472 913 -447L951 -488C928 -516 880 -560 839 -592C848 -616 855 -641 860 -668ZM482 -675C465 -595 429 -529 370 -486C384 -476 405 -456 414 -446C446 -471 472 -503 494 -540C521 -514 548 -485 564 -464L600 -505C582 -527 548 -561 517 -588C526 -613 534 -639 540 -666ZM250 -533H156V-789H93V-466H250V-338H44V-273H107V-246C107 -169 98 -46 42 44C58 52 83 65 97 77C157 -22 169 -159 169 -246V-273H250V76H314V-832H250ZM721 -103H587V-177H721ZM770 -220H538V-60H770ZM837 -268V-9H479V-268ZM412 77H479V46H837V74H906V-321H412ZM686 -438V-688H931V-750H686V-836H618V-750H388V-688H618V-438H352V-375H958V-438Z"/>
</svg>