<svg xmlns="http://www.w3.org/2000/svg" viewBox="0 -1000 1000 1000">
	<path fill="#000000" d="M941 -690H652L719 -718C704 -753 673 -804 641 -841L577 -815C607 -777 637 -725 650 -690H381V-621H941ZM715 -561C781 -498 855 -409 887 -349L942 -395C908 -453 833 -539 767 -600ZM520 -595C485 -525 421 -441 356 -388C372 -376 396 -357 408 -343C475 -402 542 -486 586 -565ZM296 -817C277 -782 250 -744 220 -707C194 -744 161 -779 121 -813L69 -772C113 -734 147 -695 173 -654C131 -609 84 -570 42 -544C59 -527 79 -496 87 -475C127 -504 169 -544 208 -587C225 -549 235 -509 242 -468C198 -377 120 -281 48 -233C64 -217 82 -187 92 -168C148 -213 207 -282 253 -355C254 -338 254 -320 254 -304C254 -176 245 -63 221 -30C213 -19 203 -14 189 -12C166 -10 128 -9 79 -13C92 8 100 36 101 60C144 62 184 62 219 55C242 51 261 40 274 22C314 -34 325 -160 325 -302C325 -421 315 -536 258 -645C295 -690 329 -737 353 -781ZM759 -418C736 -334 699 -261 648 -196C597 -261 557 -335 529 -416L465 -399C498 -303 544 -216 601 -141C534 -73 449 -18 348 24C363 38 386 65 395 81C496 36 580 -19 647 -86C716 -15 797 42 893 79C904 57 927 27 944 13C848 -19 765 -73 697 -141C757 -215 801 -301 831 -401Z"/>
</svg>