<svg xmlns="http://www.w3.org/2000/svg" viewBox="0 -1000 1000 1000">
	<path fill="#000000" d="M856 -825C745 -792 542 -765 371 -751C378 -735 388 -710 390 -694C565 -707 773 -732 908 -771ZM811 -553C839 -591 871 -649 899 -702L831 -723C812 -679 778 -614 752 -574ZM687 -561C680 -597 661 -654 640 -696L582 -682C602 -638 621 -581 626 -544ZM517 -556C506 -591 480 -644 451 -683L397 -661C425 -621 450 -566 460 -530ZM296 -816C278 -780 252 -743 223 -707C197 -743 166 -778 128 -813L80 -772C122 -734 154 -695 179 -656C135 -610 89 -570 47 -543C62 -526 79 -495 88 -476C128 -506 171 -547 211 -592C229 -552 240 -510 247 -467C203 -375 125 -277 53 -228C68 -212 86 -184 93 -164C150 -211 211 -283 257 -359C258 -341 258 -322 258 -303C258 -175 249 -63 225 -30C218 -19 208 -14 194 -12C172 -10 135 -9 88 -13C100 8 109 36 109 60C150 62 189 62 223 55C245 51 262 40 275 22C313 -33 324 -159 324 -301C324 -422 314 -539 258 -648C292 -691 324 -737 347 -779ZM812 -219H672V-317H812ZM672 -464H812V-382H672ZM953 -382H879V-526H399V-464H602V-382H362V-317H602V-219H394V-157H602V-18C602 -4 597 0 582 1C567 1 514 2 456 0C466 20 477 48 480 68C555 68 603 67 633 56C663 44 672 25 672 -17V-157H879V-317H953Z"/>
</svg>