<svg xmlns="http://www.w3.org/2000/svg" viewBox="0 -1000 1000 1000">
	<path fill="#000000" d="M764 -707H955V-764H764V-836H694V-641H764ZM634 -490H475V-537H634ZM634 -395H475V-446H634ZM634 -299H475V-351H634ZM521 -643H588V-645C605 -628 623 -606 639 -586H484C496 -606 507 -625 516 -645L453 -665C420 -598 368 -530 313 -484C328 -473 353 -449 364 -438C379 -453 394 -468 410 -487V-223H475V-250H929V-299H701V-351H892V-395H701V-446H892V-490H701V-537H917V-586H719C702 -609 669 -645 640 -675L588 -647V-836H521V-762H355V-704H521ZM289 -816C271 -781 244 -743 215 -708C189 -743 158 -779 119 -813L69 -772C111 -734 144 -695 170 -656C127 -610 79 -569 36 -543C51 -526 69 -496 78 -476C119 -507 162 -547 203 -592C221 -552 232 -511 239 -468C195 -375 116 -277 42 -228C57 -213 76 -184 84 -165C141 -211 202 -282 249 -358C250 -340 250 -322 250 -304C250 -175 241 -63 217 -30C209 -19 200 -14 186 -12C163 -10 126 -9 78 -13C91 8 99 36 100 60C142 62 181 62 215 55C237 51 256 40 269 22C308 -34 318 -160 318 -302C318 -422 308 -539 252 -647C287 -691 320 -737 343 -780ZM791 -146C750 -112 697 -83 635 -59C572 -83 518 -112 479 -146ZM865 -206L852 -203H367V-146H433L403 -133C442 -94 493 -60 552 -32C475 -9 389 7 304 17C316 30 332 59 338 76C440 60 541 37 633 4C723 36 824 60 924 73C933 55 952 28 967 14C881 5 796 -10 719 -33C796 -70 863 -117 908 -176Z"/>
</svg>