<svg xmlns="http://www.w3.org/2000/svg" viewBox="0 -1000 1000 1000">
	<path fill="#000000" d="M377 -197C333 -183 289 -170 247 -158V-413H363V-482H247V-699H381V-769H50V-699H176V-482H57V-413H176V-137C127 -123 82 -112 46 -102L61 -30L386 -128ZM957 -338V-406H702V-582H908V-650H702V-836H631V-650H519C530 -690 539 -734 546 -779L477 -791C460 -669 428 -551 375 -473C393 -465 422 -447 436 -436C461 -476 482 -526 501 -582H631V-406H379V-338H596C534 -211 428 -87 322 -25C337 -12 361 14 372 31C468 -34 565 -147 631 -272V76H702V-276C761 -159 843 -46 923 20C936 1 960 -24 976 -37C886 -100 791 -219 735 -338Z"/>
</svg>