<svg xmlns="http://www.w3.org/2000/svg" viewBox="0 -1000 1000 1000">
	<path fill="#000000" d="M554 -327H777V-233H554ZM777 -628V-539H554V-628ZM554 -479H777V-387H554ZM957 -233H850V-628H941V-696H850V-836H777V-696H554V-836H483V-696H388V-628H483V-233H369V-165H957ZM350 -194L237 -159V-413H338V-482H237V-699H359V-769H49V-699H168V-482H57V-413H168V-139C119 -124 74 -111 38 -101L52 -30C139 -56 253 -92 359 -126ZM538 -147C496 -86 418 -16 343 29C359 42 381 63 392 78C469 30 549 -41 600 -112ZM722 -107C789 -53 867 23 901 75L961 32C924 -19 844 -94 778 -145Z"/>
</svg>