<svg xmlns="http://www.w3.org/2000/svg" viewBox="0 -1000 1000 1000">
	<path fill="#000000" d="M696 -14C653 -14 646 -20 646 -56V-435L770 -445C794 -413 814 -383 829 -359L895 -404C842 -482 733 -617 654 -714L594 -677C634 -626 681 -567 724 -509L251 -477C339 -571 428 -690 506 -816L425 -843C352 -705 239 -562 204 -526C171 -488 147 -463 124 -459C133 -437 146 -400 150 -384C173 -393 203 -398 342 -411C329 -184 288 -51 37 18C53 32 73 61 82 81C354 -1 403 -157 419 -417L571 -430V-57C571 33 596 58 688 58H841C932 58 953 10 962 -167C941 -173 910 -185 892 -199C887 -41 880 -14 836 -14Z"/>
</svg>