<svg xmlns="http://www.w3.org/2000/svg" viewBox="0 -1000 1000 1000">
	<path fill="#000000" d="M171 -472C164 -522 136 -602 104 -664L49 -642C79 -579 104 -497 111 -446ZM957 -688V-750H631C620 -778 603 -814 585 -840L515 -821C528 -799 539 -774 549 -750H182V-430C182 -405 182 -377 180 -349C124 -319 72 -291 34 -274L59 -208C96 -229 135 -253 175 -276C163 -172 133 -64 59 21C74 30 102 56 111 69C232 -68 250 -278 250 -430V-688ZM808 -478V-543H934V-601H808V-664H740V-601H616V-543H740V-478ZM473 -478V-543H592V-601H473V-664H405V-601H281V-543H405V-478ZM777 -135V-20H436V-135ZM368 78H436V39H777V78H848V-194H368ZM449 -316C508 -346 561 -383 605 -424C654 -386 717 -347 781 -316ZM604 -524C542 -433 410 -357 263 -310C277 -297 299 -272 308 -256C351 -271 392 -287 430 -306V-258H793V-310C835 -290 876 -273 914 -261C924 -278 945 -304 961 -317C855 -346 721 -407 646 -468C655 -479 662 -490 670 -501Z"/>
</svg>