<svg xmlns="http://www.w3.org/2000/svg" viewBox="0 -1000 1000 1000">
	<path fill="#000000" d="M536 -547C532 -481 526 -455 518 -446C514 -439 507 -438 495 -438C484 -438 457 -439 426 -442C434 -427 439 -404 440 -388C473 -386 505 -386 520 -387C542 -389 555 -395 567 -408C583 -425 591 -470 597 -577C598 -587 598 -603 598 -603H453C455 -622 457 -641 458 -661H399C398 -640 396 -622 394 -603H285V-547H384C367 -480 336 -428 271 -395C283 -385 301 -364 308 -352C387 -395 426 -461 444 -547ZM899 -325H635C638 -343 640 -362 642 -383H583C581 -362 579 -343 575 -325H303V78H371V-268H557C530 -214 482 -179 392 -156C404 -146 420 -125 425 -110C509 -134 562 -168 594 -216C654 -187 721 -146 759 -120L803 -158C760 -187 682 -231 617 -260L620 -268H831V0C831 10 828 13 817 13C809 13 783 13 752 12L790 -20C750 -46 681 -87 621 -118C628 -135 634 -152 638 -171H576C560 -98 513 -50 399 -22C411 -12 428 9 435 23C512 0 562 -31 595 -73C646 -46 702 -10 737 14C746 32 753 53 755 70C809 70 847 70 869 60C892 49 899 33 899 0ZM713 -565H845V-448H713ZM651 -393H909V-620H651ZM621 -749C610 -778 593 -813 580 -842L507 -825C517 -803 529 -774 538 -749H175V-505C156 -549 123 -614 95 -662L40 -638C70 -583 105 -509 121 -464L175 -490V-440C175 -409 175 -375 173 -341C120 -311 70 -285 34 -267L59 -201C94 -222 130 -245 167 -267C155 -159 127 -48 59 40C76 47 105 70 118 84C228 -60 244 -281 244 -440V-683H954V-749Z"/>
</svg>