<svg xmlns="http://www.w3.org/2000/svg" viewBox="0 -1000 1000 1000">
	<path fill="#000000" d="M171 -464C164 -513 137 -593 105 -654L49 -632C79 -570 105 -488 112 -437ZM357 -348H518V-259H357ZM300 -207H577V-399H300ZM756 -500H468V-577H756ZM822 -629H404V-448H822ZM843 -21H645V-192H574V-21H379V-155H310V41H843V76H913V-155H843ZM700 -348H871V-259H700ZM643 -207H932V-399H643ZM636 -740C623 -772 598 -813 574 -844L509 -822C526 -798 544 -767 557 -740H187V-422C187 -397 187 -372 185 -345C128 -314 74 -286 34 -267L60 -201C98 -223 139 -247 180 -273C168 -167 138 -56 62 30C76 39 104 64 113 78C236 -58 256 -269 256 -422V-676H957V-740Z"/>
</svg>