<svg xmlns="http://www.w3.org/2000/svg" viewBox="0 -1000 1000 1000">
	<path fill="#000000" d="M175 -493C159 -538 123 -612 93 -665L40 -640C69 -584 103 -509 119 -463ZM811 5C798 -32 763 -88 731 -129L687 -114C696 -103 704 -90 712 -77L634 -72V-145H852V7C852 16 849 20 839 20C829 20 805 20 773 19ZM417 -293V-345H570V-293ZM417 -437H570V-387H417ZM799 -387H634V-437H799ZM799 -293H634V-345H799ZM922 -199H634V-250H869V-480H350V-250H570V-199H359V-226H294V-199H273V-145H294V76H359V-145H570V-70C506 -66 447 -63 400 -61L406 -4C498 -10 619 -17 741 -27C750 -10 757 5 762 19H758C767 36 777 58 780 76C834 76 870 75 892 65C916 55 922 40 922 7ZM424 -651V-599H284V-545H424V-494H492V-545H593V-599H492V-651ZM791 -651H722V-599H621V-545H722V-494H791V-545H931V-599H791ZM620 -749C609 -778 594 -813 580 -842L507 -825C516 -803 528 -774 538 -749H176V-443C176 -414 176 -385 174 -355C123 -319 72 -285 37 -263L60 -195L169 -277C158 -168 131 -54 65 34C80 43 106 64 118 78C223 -65 239 -284 239 -443V-683H955V-749Z"/>
</svg>