<svg xmlns="http://www.w3.org/2000/svg" viewBox="0 -1000 1000 1000">
	<path fill="#000000" d="M149 -472C142 -521 118 -596 89 -655L39 -633C67 -573 90 -495 95 -446ZM952 -687V-749H619C610 -778 594 -815 580 -844L507 -828C516 -804 528 -775 538 -749H165V-432C165 -409 165 -383 164 -357C111 -324 61 -294 25 -274L50 -211C86 -234 122 -259 159 -284C148 -175 119 -60 44 29C58 38 83 62 92 77C212 -63 230 -279 230 -432V-687ZM883 -518C874 -553 853 -607 836 -649L781 -635C798 -592 817 -538 825 -501ZM715 -125H809V-21H715ZM809 -340H715V-440H809ZM809 -182H715V-283H809ZM541 -316H464V-382H541ZM336 -382H413V-316H336ZM382 -548H498V-502H382ZM958 -21H863V-125H937V-182H863V-283H937V-340H863V-440H950V-498H722C740 -545 755 -595 768 -645L710 -658C686 -553 647 -452 594 -380V-423H469V-459H558V-548H627V-595H558V-653H498V-595H382V-653H325V-595H254V-548H325V-459H408V-423H286V-274H408V-233H279V-185H408V-163C408 -155 408 -146 407 -137H253V-86H394C375 -41 332 4 234 33C247 45 265 65 273 78C357 48 406 8 434 -34C484 -1 537 38 568 64L609 23C573 -5 509 -50 457 -81L458 -86H610V-137H468C469 -146 469 -155 469 -162V-185H601V-233H469V-274H594V-341C604 -330 614 -317 618 -310C631 -327 645 -347 658 -366V79H715V37H958Z"/>
</svg>