<svg xmlns="http://www.w3.org/2000/svg" viewBox="0 -1000 1000 1000">
	<path fill="#000000" d="M297 -607V-502C297 -441 309 -419 368 -419H433C451 -419 470 -419 480 -423C479 -438 477 -460 475 -476C463 -473 444 -472 432 -472H373C360 -472 358 -479 358 -501V-612L414 -617C425 -600 434 -584 441 -572L497 -602C471 -649 415 -724 369 -779L316 -752C335 -728 357 -699 378 -671L170 -655C213 -700 256 -757 292 -816L221 -839C186 -769 129 -698 112 -680C95 -661 80 -648 66 -645C74 -628 84 -593 88 -579C100 -583 117 -587 175 -594C165 -518 134 -466 48 -436C62 -424 80 -401 87 -386C192 -429 228 -497 241 -601ZM370 -298C353 -255 330 -215 304 -177C272 -206 239 -234 206 -262C213 -273 220 -285 225 -298ZM410 -358L397 -355H252C263 -379 272 -404 280 -430L218 -446C203 -396 181 -347 156 -303C141 -315 127 -326 114 -336L72 -294C88 -280 106 -267 124 -252C104 -225 83 -200 61 -179C75 -169 99 -143 108 -130C130 -153 153 -180 173 -210C204 -183 235 -156 264 -128C204 -63 129 -13 52 17C66 29 82 54 90 70C171 36 247 -15 311 -84C341 -55 368 -28 387 -4L433 -54C412 -78 384 -105 352 -134C395 -193 430 -262 452 -341ZM844 -392C825 -306 793 -231 754 -170C712 -235 679 -312 658 -392ZM591 -476V-631H690V-456H591ZM879 -458L867 -456H755V-631H873C865 -591 856 -551 847 -522L905 -507C921 -553 938 -625 953 -688L905 -699L893 -697H755V-835H690V-697H524V-476C524 -323 512 -111 402 42C419 48 450 66 461 76C556 -56 583 -241 589 -392H598C624 -290 663 -194 714 -115C661 -51 598 -5 528 24C543 38 561 63 569 80C638 47 700 2 753 -58C797 -2 849 44 909 75C920 58 940 32 956 20C894 -9 840 -55 795 -112C854 -197 898 -307 922 -445Z"/>
</svg>