<svg xmlns="http://www.w3.org/2000/svg" viewBox="0 -1000 1000 1000">
	<path fill="#000000" d="M863 -776C847 -708 814 -609 789 -551L838 -534C866 -591 897 -683 922 -757ZM675 -555C659 -608 624 -701 591 -772L538 -757C570 -686 604 -591 618 -535ZM700 -47H764V-435H942V-499H764V-834H700V-499H524V-435H700ZM780 -379C825 -295 874 -185 894 -120L947 -153C927 -216 875 -323 830 -406ZM626 -403C601 -310 554 -210 505 -158C519 -147 539 -126 551 -112C602 -173 652 -283 678 -386ZM475 -650C462 -693 438 -760 421 -812L363 -799C380 -746 403 -678 415 -634ZM244 -713V-573H138V-713ZM138 -509H244V-367H138ZM138 -157V-304H244V-157ZM306 -92V-778H75V-5H138V-92ZM485 -361L476 -357H429C451 -426 476 -511 495 -582H336V-521H417C395 -442 369 -353 348 -292H442C428 -218 405 -136 378 -81C350 -60 322 -28 293 11L341 73C374 13 410 -46 433 -46C453 -46 481 -17 514 8C567 46 629 62 719 62C786 62 897 58 951 54C952 35 961 1 967 -17C896 -8 790 -4 719 -4C637 -4 577 -15 526 -51C490 -76 471 -99 447 -105C477 -175 501 -266 515 -348Z"/>
</svg>