<svg xmlns="http://www.w3.org/2000/svg" viewBox="0 -1000 1000 1000">
	<path fill="#000000" d="M955 -411C936 -485 889 -596 839 -681L777 -659C824 -575 870 -460 887 -387ZM709 -836H638V-222H709ZM497 -667C481 -558 456 -444 419 -368C436 -361 467 -347 482 -338C517 -417 547 -539 565 -654ZM325 -411V-116H197V-411ZM392 -49V-477H189C218 -551 241 -632 259 -715H417V-784H57V-715H189C157 -562 106 -422 28 -328C40 -309 57 -267 60 -249C86 -279 109 -314 131 -353V31H197V-49ZM839 -350C770 -158 618 -44 378 8C395 25 412 53 420 74C674 9 833 -118 909 -330Z"/>
</svg>