<svg xmlns="http://www.w3.org/2000/svg" viewBox="0 -1000 1000 1000">
	<path fill="#000000" d="M338 -141H200V-437H338ZM405 -76V-503H201C220 -571 234 -644 245 -719H430V-788H50V-719H174C148 -546 106 -385 31 -279C45 -265 69 -230 77 -216C98 -245 117 -278 134 -314V4H200V-76ZM538 -418H834V-318H538ZM538 -577H834V-477H538ZM538 -735H834V-637H538ZM812 -1C789 -1 786 -5 786 -29V-254H906V-799H470V-254H557C542 -109 500 -24 327 22C341 35 360 62 367 79C560 22 610 -81 626 -254H718V-28C718 44 733 64 801 64H887C944 64 963 33 968 -94C950 -99 920 -111 907 -122C904 -15 900 -1 878 -1Z"/>
</svg>