<svg xmlns="http://www.w3.org/2000/svg" viewBox="0 -1000 1000 1000">
	<path fill="#000000" d="M935 -723H726C719 -754 698 -802 678 -839L613 -823C627 -792 642 -753 651 -723H416V-655H935ZM298 -116H182V-411H298ZM51 -715H177C150 -564 104 -425 34 -330C45 -311 62 -269 67 -252C86 -276 103 -303 119 -331V31H182V-49H362V-477H184C210 -551 231 -632 246 -715H385V-784H51ZM657 -411C636 -439 593 -481 558 -511C570 -546 579 -582 587 -618L523 -631C499 -513 454 -406 388 -336C404 -327 432 -308 443 -298C478 -339 510 -392 535 -452C565 -424 595 -390 612 -368ZM955 -242H712V-321H705C733 -355 758 -398 780 -447C822 -407 866 -360 888 -328L933 -377C906 -413 852 -467 805 -508C818 -544 829 -580 837 -616L773 -629C748 -523 705 -422 645 -355C661 -348 687 -332 701 -321H640V-242H403V-173H640V76H712V-173H955Z"/>
</svg>