<svg xmlns="http://www.w3.org/2000/svg" viewBox="0 -1000 1000 1000">
	<path fill="#000000" d="M286 -116H182V-411H286ZM385 -715V-784H54V-715H176C149 -564 103 -422 33 -328C45 -308 62 -266 67 -249C86 -273 103 -300 119 -329V32H182V-49H350V-477H184C209 -552 230 -632 246 -715ZM535 -597C544 -625 552 -658 560 -690H769C764 -663 758 -630 751 -597ZM688 -397H950V-463H792C812 -554 836 -664 849 -745L798 -753L786 -749H575C582 -776 588 -804 594 -829L524 -837C505 -742 472 -616 447 -538H739C734 -512 728 -487 722 -463H378V-397H619V-218C523 -152 423 -85 358 -45L399 12C463 -33 542 -91 619 -149V-1C619 9 616 12 604 13C593 13 556 14 516 12C525 31 535 58 538 77C594 78 632 76 656 66C681 54 688 36 688 -1V-153C771 -97 859 -30 908 15L950 -37C908 -74 841 -124 772 -170C811 -212 858 -269 897 -321L837 -356C811 -309 763 -246 725 -201L688 -224ZM408 -326C448 -286 497 -230 520 -195L573 -233C550 -267 499 -320 459 -358Z"/>
</svg>