<svg xmlns="http://www.w3.org/2000/svg" viewBox="0 -1000 1000 1000">
	<path fill="#000000" d="M744 -494H342V-596H744ZM267 -437H820V-653H352C379 -678 404 -705 426 -733H894V-794H105V-733H338C264 -654 159 -585 54 -541C70 -528 94 -500 105 -485C159 -512 215 -545 267 -583ZM218 -28V-161H374V-28ZM443 -220H223C241 -250 256 -283 270 -316H474V-381H57V-316H200C159 -222 96 -139 26 -83C38 -70 61 -42 69 -28C98 -53 126 -83 152 -115V69H218V33H374V59H443ZM832 -158V-25H652V-158ZM951 -313V-379H505V-313H624C586 -217 524 -134 451 -78C465 -66 488 -39 498 -26C528 -51 558 -82 584 -115V71H652V36H832V73H901V-218H652C668 -248 682 -280 695 -313Z"/>
</svg>