<svg xmlns="http://www.w3.org/2000/svg" viewBox="0 -1000 1000 1000">
	<path fill="#000000" d="M839 -821C818 -783 780 -725 751 -689L796 -667C828 -698 865 -749 899 -794ZM578 -697C561 -730 525 -780 496 -817L444 -789C473 -750 508 -698 523 -665ZM632 -392H701V-600H947V-661H701V-837H632V-661H394V-600H632ZM734 -549C796 -514 874 -461 913 -426L952 -469C913 -504 835 -555 772 -588ZM543 -584C505 -535 429 -486 364 -461C377 -449 397 -427 407 -412C474 -443 553 -505 595 -563ZM289 -116H181V-411H289ZM374 -715V-784H54V-715H176C149 -563 103 -422 33 -328C45 -308 62 -266 67 -249C86 -273 103 -300 119 -329V31H181V-49H345V-477H184C210 -551 231 -632 246 -715ZM597 -278C584 -233 567 -191 546 -154C523 -180 493 -211 466 -236C473 -250 481 -263 488 -278ZM629 -338L618 -336H513C521 -357 529 -381 535 -403L479 -415C456 -324 412 -239 354 -182C367 -173 388 -152 396 -142C411 -157 424 -174 437 -192C465 -165 494 -133 516 -106C470 -44 414 2 351 28C364 41 378 64 386 78C519 14 626 -117 666 -327ZM732 -132C742 -178 753 -232 760 -281H813V-132ZM964 -132H873V-281H952V-335H873V-412H813V-335H679V-281H705C694 -211 678 -128 664 -72H813V77H873V-72H964Z"/>
</svg>