<svg xmlns="http://www.w3.org/2000/svg" viewBox="0 -1000 1000 1000">
	<path fill="#000000" d="M286 -650H359V-712H481V-775H359V-837H286V-775H63V-712H286ZM247 -387V-459H463V-387ZM247 -582H463V-510H247ZM754 -510H534V-582H754ZM754 -387H534V-459H754ZM895 -272H534V-333H827V-636H176V-333H463V-272H184V-308H112V-272H72V-210H112V76H184V-210H463V-101C381 -98 305 -95 247 -93L253 -28C366 -34 530 -42 691 -53C702 -31 710 -12 715 6L773 -15C759 -66 714 -139 670 -193L615 -175C630 -156 645 -134 659 -111L534 -106V-210H823V0C823 11 819 14 807 15C796 16 758 16 711 15C720 33 729 57 733 76C797 76 838 76 863 65C889 53 895 36 895 1ZM708 -775V-837H635V-775H518V-712H635V-649H708V-712H935V-775Z"/>
</svg>