<svg xmlns="http://www.w3.org/2000/svg" viewBox="0 -1000 1000 1000">
	<path fill="#000000" d="M954 -563C914 -637 824 -750 747 -833L694 -798C772 -714 860 -596 897 -523ZM386 -310C369 -336 291 -433 265 -461V-482H376V-552H265V-730C309 -742 351 -755 386 -771L339 -831C272 -798 155 -768 55 -749C64 -732 74 -708 77 -691C116 -697 156 -705 196 -714V-552H46V-482H178C145 -369 85 -240 29 -168C42 -150 61 -117 69 -97C115 -159 161 -261 196 -364V78H265V-379C293 -334 327 -279 340 -250ZM527 -500H789V-338H527ZM795 -1C774 -1 771 -5 771 -29V-272H862V-567H465C525 -632 582 -714 619 -799L549 -821C508 -727 439 -635 365 -576C382 -563 409 -536 421 -523C433 -534 445 -545 457 -558V-272H536C522 -139 484 -33 337 24C352 36 373 63 381 81C545 11 591 -112 608 -272H698V-29C698 45 714 67 784 67H868C925 67 945 35 952 -91C931 -96 902 -108 887 -119C884 -16 881 -1 860 -1Z"/>
</svg>