<svg xmlns="http://www.w3.org/2000/svg" viewBox="0 -1000 1000 1000">
	<path fill="#000000" d="M798 -672C783 -601 751 -541 696 -501C710 -491 733 -472 742 -461C767 -482 790 -507 808 -536C843 -508 880 -476 901 -455L939 -497C915 -521 871 -556 833 -584C844 -609 852 -636 858 -665ZM495 -673C475 -599 436 -534 379 -492C393 -482 415 -462 424 -452C452 -475 477 -504 498 -537C527 -513 556 -486 573 -467L614 -505C594 -528 556 -559 524 -583C536 -608 546 -635 553 -664ZM261 -483H371V-551H261V-727C303 -738 343 -751 377 -766L322 -817C259 -786 144 -759 45 -743C53 -727 63 -704 66 -688C106 -694 149 -702 191 -711V-551H48V-483H179C147 -370 88 -239 34 -168C46 -150 64 -121 72 -100C114 -161 157 -257 191 -355V76H261V-372C290 -332 325 -281 338 -255L380 -310C363 -332 290 -415 261 -446ZM725 -105H599V-179H725ZM775 -222H550V-62H775ZM848 -274V-10H482V-274ZM417 76H482V46H848V72H916V-326H417ZM691 -441V-692H937V-752H694V-836H624V-752H391V-692H627V-441H362V-381H959V-441Z"/>
</svg>