<svg xmlns="http://www.w3.org/2000/svg" viewBox="0 -1000 1000 1000">
	<path fill="#000000" d="M716 -588V-483C716 -416 731 -392 798 -392H893C913 -392 937 -393 949 -397C947 -413 945 -440 943 -457C930 -453 905 -452 891 -452H801C784 -452 782 -459 782 -482V-593L858 -599C875 -577 889 -559 900 -543L958 -579C921 -631 847 -719 790 -781L733 -752C757 -723 786 -690 812 -657L549 -641C605 -691 662 -754 712 -819L641 -844C590 -765 511 -685 488 -666C465 -645 447 -630 429 -628C438 -610 447 -575 451 -560C467 -566 487 -570 574 -577C558 -494 518 -441 398 -410C411 -398 431 -372 438 -356C578 -398 626 -470 643 -583ZM284 -687C272 -725 247 -783 223 -827L159 -811C181 -766 205 -706 216 -667ZM395 -650H57V-581H395ZM199 -178C194 -276 173 -420 147 -534L89 -523C113 -410 133 -263 137 -166ZM381 -179L296 -156C319 -260 344 -411 362 -529L293 -542C282 -421 258 -246 235 -141C166 -123 101 -107 52 -95L70 -23C161 -47 277 -80 390 -110ZM789 -264C760 -208 718 -161 669 -122C632 -152 600 -187 574 -223C586 -236 597 -249 608 -264ZM837 -327L824 -324H646C659 -349 671 -373 681 -400L613 -414C594 -366 568 -322 536 -284C527 -300 520 -317 514 -334L462 -301C470 -280 480 -258 493 -237C464 -209 432 -186 399 -166C415 -153 440 -128 451 -114C478 -132 505 -153 530 -177C554 -144 582 -112 615 -83C540 -37 453 -5 363 13C376 29 393 58 401 76C499 53 592 16 672 -38C739 10 821 49 919 73C928 54 948 25 961 11C869 -8 792 -40 728 -80C797 -138 852 -211 886 -305Z"/>
</svg>