<svg xmlns="http://www.w3.org/2000/svg" viewBox="0 -1000 1000 1000">
	<path fill="#000000" d="M497 -665V-734H237C249 -762 261 -792 269 -821L198 -842C166 -735 109 -631 43 -563C59 -548 84 -515 94 -500C133 -544 171 -601 205 -665ZM164 -335H840V-410H164ZM653 -602C695 -560 744 -500 765 -462L820 -504C799 -542 748 -599 706 -640ZM235 -599C273 -557 318 -500 339 -463L394 -508C373 -543 326 -598 288 -638ZM72 30H920V-46H72ZM637 -734C647 -763 655 -793 663 -823L588 -841C563 -726 515 -615 455 -543C472 -531 502 -504 514 -491C551 -538 584 -598 612 -665H937V-734Z"/>
</svg>