<svg xmlns="http://www.w3.org/2000/svg" viewBox="0 -1000 1000 1000">
	<path fill="#000000" d="M279 -706L250 -675C287 -649 335 -613 358 -589L391 -631C369 -651 326 -682 290 -706H497V-765H230C239 -784 247 -803 255 -823L190 -841C159 -760 107 -682 50 -629C65 -617 92 -591 102 -580C135 -613 168 -658 197 -706ZM736 -547C716 -515 677 -466 649 -436L697 -406C727 -433 764 -472 799 -511ZM745 -353V-275H534V-353ZM745 -144H534V-220H745ZM955 -764H652C660 -784 667 -804 673 -825L606 -840C586 -764 549 -691 500 -641C516 -632 544 -610 556 -599C582 -628 605 -664 626 -705H692L667 -667C698 -653 737 -634 766 -618C603 -589 337 -571 116 -565C122 -550 130 -526 131 -509C163 -510 196 -511 231 -513L188 -486C208 -462 234 -431 250 -406H170V-353H461V-275H49V-220H461V-144H165V-88H461V-6C461 10 455 15 436 16C418 17 352 17 283 15C292 33 303 57 307 75C395 75 454 75 489 66C523 55 534 37 534 -5V-88H821V-220H952V-275H821V-406H280L313 -429C298 -451 268 -486 243 -513C316 -516 389 -520 462 -526L422 -503C445 -473 477 -432 492 -406L548 -439C533 -462 504 -499 480 -527C619 -538 752 -552 850 -573L803 -625H802L817 -651C790 -668 741 -690 702 -705H955Z"/>
</svg>