<svg xmlns="http://www.w3.org/2000/svg" viewBox="0 -1000 1000 1000">
	<path fill="#000000" d="M400 -590C380 -619 336 -661 300 -690L255 -651C290 -621 332 -575 352 -546ZM489 -690V-754H231C243 -776 254 -798 263 -821L193 -840C159 -753 101 -668 36 -611C53 -600 80 -574 93 -561C128 -596 163 -641 195 -690ZM453 -218V-104H306V-218ZM515 -48V-275H245V-1H306V-48ZM833 -401C799 -318 754 -244 698 -177C669 -253 647 -350 634 -457H937V-517H795L818 -530C796 -552 754 -582 720 -603L674 -577C701 -560 733 -537 754 -517H628C626 -548 625 -578 624 -610H569C588 -633 605 -660 622 -688H764L732 -657C765 -631 804 -594 824 -570L864 -614C846 -635 811 -666 780 -688H948V-753H655C666 -776 676 -800 684 -824L611 -840C582 -749 529 -663 465 -607C483 -597 514 -575 528 -563C536 -572 544 -581 553 -590C554 -565 555 -541 557 -517H127V-302C127 -198 118 -60 40 40C57 47 88 65 101 78C183 -28 197 -186 197 -302V-337H535V-394H197V-457H563C578 -328 606 -211 647 -121C589 -64 524 -17 452 21C468 34 495 60 505 73C567 37 625 -7 678 -58C727 27 787 77 857 77C925 77 952 41 963 -92C945 -98 920 -112 903 -126C898 -29 888 7 862 7C815 8 768 -36 729 -111C798 -189 857 -281 900 -384Z"/>
</svg>