<svg xmlns="http://www.w3.org/2000/svg" viewBox="0 -1000 1000 1000">
	<path fill="#000000" d="M787 -704L727 -684C747 -655 768 -617 777 -591L844 -615C836 -640 813 -676 791 -704H955V-762H670C680 -782 689 -801 697 -822L626 -838C597 -756 543 -677 479 -626C497 -619 528 -601 543 -590C576 -621 609 -659 638 -704ZM493 -707V-765H228C238 -784 248 -803 256 -822L187 -840C155 -762 100 -685 39 -633C57 -624 87 -603 100 -593C131 -623 165 -663 193 -707ZM382 -619C372 -641 350 -677 331 -702L270 -679C289 -652 309 -617 317 -594ZM202 -240H359V-172H202ZM359 -472V-410H202V-472ZM202 -358H359V-292H202ZM496 -172H426V-472H494V-529H426V-604H359V-529H202V-604H136V-529H60V-472H136V-172H49V-115H496ZM168 -101C143 -52 97 2 55 34C69 44 91 61 102 73C147 39 196 -19 228 -74ZM316 -71C349 -40 386 5 403 34L459 4C441 -25 402 -68 369 -97ZM841 -287C822 -221 791 -166 754 -120C712 -168 678 -225 654 -287ZM694 -463V-343H584V-463ZM880 -345L867 -343H762V-463H873C866 -430 857 -396 848 -372L909 -363C926 -401 942 -462 953 -516L905 -525L892 -523H762V-606H694V-523H519V-294C519 -192 511 -58 446 39C461 47 490 68 501 80C571 -23 584 -175 584 -287H594C620 -207 660 -134 710 -74C662 -30 605 2 542 25C555 35 576 62 585 78C648 53 705 19 755 -27C802 18 858 53 922 78C932 59 952 33 967 20C903 -1 847 -33 800 -75C853 -140 894 -223 919 -328Z"/>
</svg>