<svg xmlns="http://www.w3.org/2000/svg" viewBox="0 -1000 1000 1000">
	<path fill="#000000" d="M282 -705L257 -680C291 -654 336 -619 360 -596L396 -639C376 -656 340 -683 309 -705H494V-765H230C242 -785 253 -805 262 -825L196 -843C163 -769 105 -695 44 -646C60 -636 85 -610 96 -597C129 -626 162 -664 192 -705ZM535 -573H327C319 -594 307 -617 294 -636L238 -624C247 -609 256 -591 263 -573H49V-520H535ZM405 -380C388 -396 363 -412 335 -429C357 -449 377 -468 393 -490L344 -502C330 -485 313 -468 295 -453C269 -466 244 -479 221 -489L186 -460C209 -450 233 -438 257 -424C228 -406 197 -388 166 -373C179 -367 199 -351 208 -344C237 -360 269 -378 298 -400C327 -381 352 -364 369 -348ZM634 -127H751V-24H634ZM751 -347H634V-446H751ZM751 -187H634V-288H751ZM957 -24H814V-127H928V-187H814V-288H927V-347H814V-446H944V-506H832C821 -537 801 -578 781 -610C786 -606 792 -602 797 -598L828 -644C805 -661 765 -685 729 -705H953V-764H642C651 -785 660 -805 666 -826L602 -843C579 -773 540 -704 494 -657C509 -647 537 -627 548 -616C570 -641 592 -671 611 -705H704L680 -674C711 -656 747 -633 776 -614L718 -603C735 -573 753 -536 764 -506H640C656 -542 670 -580 683 -618L620 -635C588 -535 538 -434 480 -365V-501H422V-333H160V-501H105V-284H258L246 -233H147V-262H90V-233H62V-182H90V76H147V-182H234C224 -143 214 -104 205 -73L172 -68L189 -19C243 -30 305 -42 368 -54C373 -44 376 -33 379 -24L422 -44C410 -79 380 -133 353 -172L313 -155C324 -138 336 -117 347 -98L260 -82C269 -111 277 -146 286 -182H448V10C448 19 446 22 435 22C424 23 394 23 354 22C363 38 371 59 374 76C423 76 458 76 479 66C501 56 506 40 506 11V-233H298L310 -284H480V-350C493 -335 509 -312 516 -302C535 -323 552 -347 569 -373V76H634V38H956Z"/>
</svg>