<svg xmlns="http://www.w3.org/2000/svg" viewBox="0 -1000 1000 1000">
	<path fill="#000000" d="M727 -732C720 -543 711 -471 696 -454C688 -444 680 -443 664 -443C650 -443 609 -443 566 -447C576 -430 584 -403 585 -385C629 -382 672 -382 696 -384C722 -387 740 -394 756 -413C776 -437 786 -503 794 -670C838 -605 881 -521 895 -467L959 -494C942 -553 895 -640 847 -706L795 -683L798 -764C798 -774 799 -796 799 -796H367V-732H529C522 -673 510 -622 489 -579C455 -616 399 -663 350 -697L311 -655C364 -617 424 -563 457 -523C422 -474 373 -438 309 -411C325 -399 351 -371 360 -358C502 -430 577 -543 601 -732ZM708 -235C743 -263 784 -304 822 -346L751 -372C727 -338 686 -291 654 -260ZM187 -341C225 -307 269 -260 289 -229L347 -266C326 -298 281 -343 242 -375ZM106 -337C171 -395 243 -465 305 -528L268 -581C198 -512 117 -438 60 -394ZM297 -764C265 -790 199 -822 148 -840L111 -790C162 -769 227 -735 259 -709ZM240 -641C205 -668 138 -703 85 -723L45 -672C99 -650 166 -613 198 -585ZM336 -141C271 -85 147 -33 46 -7C63 7 85 33 96 51C197 18 325 -46 394 -113ZM941 -157V-223H535V-378H461V-223H60V-157H461V75H535V-157ZM598 -107C701 -63 837 5 906 47L955 -6C883 -47 746 -111 645 -152Z"/>
</svg>