<svg xmlns="http://www.w3.org/2000/svg" viewBox="0 -1000 1000 1000">
	<path fill="#000000" d="M345 -770C331 -707 300 -613 277 -557L325 -540C351 -592 383 -679 409 -748ZM163 -560C153 -617 129 -703 107 -770L52 -757C73 -690 96 -603 106 -546ZM133 -375C115 -286 71 -175 30 -117C42 -98 59 -65 66 -44C118 -113 161 -250 182 -359ZM383 -433V-502H260V-835H193V-503H47V-433H193V77H260V-433ZM272 -346C292 -307 345 -188 362 -139L413 -194C399 -224 331 -348 313 -374ZM526 -139C528 -165 529 -190 529 -213H829V-139ZM829 -340V-266H529V-340ZM899 -399H461V-215C461 -136 454 -35 395 40C410 48 436 75 447 89C488 40 508 -23 519 -86H829V-1C829 10 826 14 813 14C801 15 760 15 715 13C724 31 733 56 736 75C799 75 840 75 865 64C892 53 899 35 899 -1ZM711 -515V-583H929V-637H711V-698H947V-755H711V-836H638V-755H413V-698H638V-637H438V-583H638V-515H402V-458H957V-515Z"/>
</svg>