<svg xmlns="http://www.w3.org/2000/svg" viewBox="0 -1000 1000 1000">
	<path fill="#000000" d="M84 -198C75 -118 59 -30 37 32C51 36 80 46 92 53C114 -9 133 -102 143 -188ZM187 -191C199 -124 210 -38 212 19L268 7C265 -50 253 -135 241 -202ZM286 -210C306 -155 329 -81 339 -32L392 -50C383 -97 358 -170 337 -227ZM279 -445C292 -416 305 -381 317 -347L154 -325C234 -417 312 -534 376 -648L314 -686C292 -641 266 -594 240 -552L136 -542C191 -618 246 -716 290 -811L223 -840C182 -731 113 -616 91 -587C72 -556 54 -536 38 -532C45 -513 56 -480 60 -465C74 -472 95 -476 200 -489C164 -434 133 -391 117 -374C87 -337 65 -313 43 -308C52 -289 63 -255 67 -241C86 -251 116 -258 335 -291C340 -275 343 -258 346 -245L400 -265C389 -316 359 -399 330 -462ZM592 -20C602 -110 613 -226 623 -348H777C773 -227 768 -111 762 -20ZM784 -715C784 -622 782 -519 779 -417H627C635 -519 642 -622 648 -715ZM952 -348V-417H851C854 -544 856 -674 856 -785H442V-715H575C570 -623 563 -520 555 -417H402V-348H550C540 -227 528 -111 517 -20H413V49H936V-20H837C842 -110 847 -226 850 -348Z"/>
</svg>