<svg xmlns="http://www.w3.org/2000/svg" viewBox="0 -1000 1000 1000">
	<path fill="#000000" d="M397 -251C387 -304 359 -391 332 -459L276 -444C287 -414 299 -379 308 -346L157 -325C239 -416 318 -533 384 -648L320 -686C299 -641 271 -594 245 -552L139 -543C194 -618 250 -716 294 -811L226 -840C186 -731 116 -616 95 -587C74 -557 57 -536 40 -532C47 -514 59 -480 63 -465C77 -472 98 -477 203 -489C167 -435 135 -393 119 -376C90 -340 67 -316 46 -311C54 -291 65 -256 69 -241C87 -251 117 -258 323 -290C329 -269 333 -249 336 -232ZM88 -198C78 -118 63 -29 40 32C55 37 86 47 98 54C120 -8 138 -102 149 -187ZM193 -190C204 -122 216 -32 218 26L276 15C273 -44 261 -132 248 -201ZM294 -208C315 -150 340 -73 349 -24L404 -43C395 -92 369 -167 346 -224ZM459 -76C594 -39 756 28 844 81L888 23C798 -26 635 -93 503 -129ZM567 -266C637 -236 723 -186 769 -150L814 -201C768 -236 682 -283 612 -312ZM577 -667H798C769 -609 729 -557 682 -509C638 -555 599 -605 570 -657ZM850 -736L837 -732H616C633 -763 647 -795 660 -825L588 -837C552 -746 485 -633 385 -549C400 -539 424 -518 436 -502C471 -533 502 -567 531 -602C560 -554 594 -508 633 -465C562 -405 481 -357 398 -324C413 -313 436 -283 445 -267C527 -302 608 -352 682 -416C751 -349 832 -295 915 -259C926 -278 947 -306 963 -319C881 -350 800 -400 731 -462C799 -531 857 -614 895 -709Z"/>
</svg>