<svg xmlns="http://www.w3.org/2000/svg" viewBox="0 -1000 1000 1000">
	<path fill="#000000" d="M943 -444C917 -492 864 -566 813 -628C849 -682 893 -749 923 -804L856 -821C832 -771 783 -691 739 -626C799 -554 854 -470 881 -414ZM759 -447C736 -494 687 -568 640 -630C676 -684 718 -752 746 -806L679 -824C656 -773 609 -694 567 -629C621 -557 673 -474 695 -417ZM580 -442C559 -491 513 -566 469 -630C503 -685 543 -755 571 -808L505 -826C481 -775 437 -694 396 -629C448 -555 495 -471 516 -414ZM88 -198C78 -116 63 -25 39 37C55 42 84 52 96 59C118 -4 137 -100 147 -188ZM187 -190C198 -120 209 -28 211 33L269 22C267 -39 255 -129 243 -200ZM283 -209C304 -149 327 -69 336 -18L391 -36C381 -87 357 -165 334 -225ZM287 -445C297 -415 307 -382 315 -349L159 -328C238 -419 315 -534 380 -648L318 -683C297 -640 273 -596 247 -555L139 -545C195 -620 251 -716 295 -809L229 -838C187 -729 117 -614 95 -585C75 -556 57 -535 39 -531C48 -512 59 -480 63 -465C77 -472 99 -476 205 -489C168 -434 136 -391 120 -373C89 -337 67 -311 46 -307C54 -289 66 -256 69 -241C88 -251 119 -258 330 -290C335 -267 339 -247 341 -230L401 -248C393 -301 368 -390 343 -459ZM644 -325V-207H504V-325ZM856 -207H709V-325H856ZM709 -25V-147H856V-25ZM504 -25V-147H644V-25ZM435 78H504V38H856V76H928V-388H435Z"/>
</svg>