<svg xmlns="http://www.w3.org/2000/svg" viewBox="0 -1000 1000 1000">
	<path fill="#000000" d="M790 -845C720 -790 594 -736 482 -699C491 -685 502 -661 506 -647C621 -683 754 -731 840 -791ZM125 -208C104 -140 72 -67 38 -16C54 -8 80 6 92 15C125 -39 162 -120 185 -193ZM156 -387H373V-316H156ZM373 -744V-672H156V-744ZM156 -501H373V-437H156ZM373 -552H156V-622H373ZM484 -255V-316H438V-800H94V-316H48V-255H237V72H301V-255ZM344 -192C371 -142 403 -76 417 -33L470 -59C456 -100 423 -165 394 -214ZM562 -233C543 -162 506 -71 462 -10C478 -2 502 12 514 21C560 -43 600 -138 626 -216ZM879 -292C887 -272 895 -255 900 -240L954 -268C935 -321 888 -406 845 -469L794 -445C814 -415 834 -380 852 -346L624 -332C723 -406 823 -499 915 -601L861 -637C839 -611 815 -584 791 -559L634 -550C684 -584 734 -627 781 -673L725 -701C668 -637 588 -577 562 -561C540 -546 521 -536 504 -533C510 -518 519 -488 522 -476C539 -481 565 -486 731 -499C668 -439 610 -390 586 -372C547 -342 518 -321 495 -318C502 -301 511 -269 514 -256C532 -262 556 -266 679 -276V13C679 22 677 25 667 25H600C606 39 615 59 618 75C664 75 696 75 717 66C738 58 744 45 744 15V-281ZM786 -219C824 -148 870 -52 892 4L951 -24C928 -77 880 -171 842 -242Z"/>
</svg>