<svg xmlns="http://www.w3.org/2000/svg" viewBox="0 -1000 1000 1000">
	<path fill="#000000" d="M850 -504C850 -495 848 -493 839 -493H779C786 -477 792 -458 793 -442C837 -442 867 -442 886 -451C906 -460 911 -474 911 -503V-794H664V-739H850ZM675 -693C703 -665 740 -627 758 -604L801 -635C781 -658 744 -694 716 -719ZM831 -613C766 -585 704 -559 659 -543L687 -497C735 -518 789 -545 842 -569ZM572 -500C572 -492 570 -490 561 -489H499C506 -476 511 -459 512 -444C556 -444 588 -444 606 -452C625 -460 631 -472 631 -500V-794H391V-739H572ZM398 -694C427 -666 463 -628 481 -605L524 -635C506 -658 468 -695 439 -720ZM553 -602C488 -573 425 -547 379 -530L409 -484C457 -507 511 -533 564 -559ZM378 -262C366 -310 335 -394 310 -459L258 -443C270 -413 283 -377 294 -344L154 -324C234 -418 311 -534 373 -651L316 -684C295 -640 270 -595 244 -554L136 -544C189 -619 241 -716 283 -811L220 -836C182 -728 114 -613 93 -583C74 -553 57 -532 40 -528C48 -511 58 -479 62 -466C76 -472 98 -476 204 -489C167 -432 134 -388 119 -371C89 -333 67 -308 47 -304C55 -286 65 -255 69 -241C86 -251 115 -259 311 -289C317 -272 321 -255 325 -241ZM84 -198C73 -120 56 -29 36 32C52 36 81 44 94 50C111 -11 131 -105 143 -185ZM182 -191C194 -124 205 -36 207 22L262 10C259 -48 246 -134 234 -202ZM280 -211C301 -150 326 -70 336 -17L387 -34C376 -85 351 -166 328 -226ZM850 -177C767 -72 593 -10 385 18C399 33 413 57 419 73C638 39 818 -29 912 -150ZM760 -252C688 -190 549 -140 421 -115C435 -102 451 -82 460 -69C592 -99 734 -154 816 -225ZM680 -339C624 -291 517 -247 429 -224C443 -212 460 -195 469 -183C561 -211 669 -259 734 -315ZM659 -491C594 -423 471 -364 365 -330C380 -318 397 -296 407 -282C490 -312 580 -356 651 -410C741 -348 829 -312 908 -287C918 -305 938 -329 952 -341C871 -363 780 -392 692 -443C700 -451 707 -458 714 -466Z"/>
</svg>