<svg xmlns="http://www.w3.org/2000/svg" viewBox="0 -1000 1000 1000">
	<path fill="#000000" d="M391 -247C383 -298 358 -389 334 -457L279 -444C290 -413 299 -379 308 -346L157 -325C238 -417 318 -535 385 -651L324 -687C302 -641 276 -595 249 -554L140 -544C197 -619 254 -715 299 -809L233 -837C190 -729 118 -614 96 -586C75 -556 57 -535 39 -531C48 -513 59 -480 63 -465C77 -472 98 -477 207 -489C170 -434 136 -391 121 -373C90 -337 67 -312 46 -307C54 -289 66 -256 69 -241C87 -251 118 -257 322 -288C327 -267 331 -246 333 -229ZM87 -198C78 -114 62 -23 38 41C54 46 84 56 96 63C117 -1 136 -99 147 -188ZM186 -192C198 -121 208 -25 210 37L267 26C264 -36 253 -128 240 -201ZM281 -211C300 -154 321 -80 329 -32L382 -49C373 -96 352 -169 331 -225ZM496 -133C462 -80 414 -23 370 20C386 28 412 46 424 57C466 12 519 -56 557 -114ZM488 -604H627V-523H488ZM488 -737H627V-657H488ZM835 -657H692V-737H835ZM835 -523H692V-604H835ZM858 -189C874 -164 890 -142 901 -124L952 -157C924 -200 867 -273 822 -327L773 -300C788 -282 804 -262 819 -242L553 -224C643 -272 732 -332 817 -399L763 -442C738 -420 712 -399 685 -378L548 -374C585 -400 623 -433 658 -467H903V-793H422V-467H568C532 -431 493 -400 479 -391C460 -378 444 -370 429 -368C437 -350 447 -319 451 -304C465 -310 487 -313 604 -319C552 -285 508 -259 486 -249C449 -227 418 -214 395 -211C402 -193 412 -159 415 -146C435 -153 463 -158 642 -171V-6C642 4 639 8 626 8C615 8 575 8 530 7C539 25 547 48 550 67C612 67 651 67 676 57C703 46 709 30 709 -5V-177ZM761 -108C804 -58 860 11 886 51L936 13C908 -26 852 -92 809 -140Z"/>
</svg>