<svg xmlns="http://www.w3.org/2000/svg" viewBox="0 -1000 1000 1000">
	<path fill="#000000" d="M926 -475H702V-541H883V-596H702V-661H915V-719H793C811 -748 831 -783 849 -815L778 -837C766 -803 744 -755 725 -719H584L614 -731C604 -759 579 -803 556 -835L498 -813C518 -785 538 -747 548 -719H413V-661H633V-596H445V-541H633V-475H405V-417H926ZM368 -261C357 -310 330 -392 302 -454L250 -439C262 -409 275 -375 285 -342L147 -324C224 -419 297 -541 357 -661L294 -695C274 -646 248 -595 222 -548L132 -540C184 -618 236 -716 276 -813L210 -839C174 -731 109 -616 89 -586C71 -556 54 -534 38 -530C46 -513 57 -480 60 -465C74 -471 94 -476 186 -487C155 -434 127 -393 113 -375C84 -337 64 -312 44 -307C52 -289 63 -256 67 -241C83 -251 112 -258 301 -287C306 -271 309 -255 312 -242ZM83 -198C74 -113 59 -21 34 43C51 47 80 57 92 64C114 1 132 -98 144 -188ZM181 -191C192 -122 203 -33 205 26L263 13C260 -46 249 -133 236 -202ZM278 -211C293 -162 311 -98 318 -55L372 -72C364 -114 345 -177 329 -226ZM823 -138V-19H521V-138ZM453 77H521V39H823V74H893V-196H453ZM803 -307C818 -333 834 -364 850 -394L783 -417C773 -386 756 -340 739 -307H561L593 -321C585 -347 563 -387 543 -415L485 -394C501 -368 519 -333 529 -307H379V-245H949V-307Z"/>
</svg>