<svg xmlns="http://www.w3.org/2000/svg" viewBox="0 -1000 1000 1000">
	<path fill="#000000" d="M316 -49C271 -16 190 11 120 31C135 42 157 63 168 75C238 51 323 11 374 -29ZM616 -20C687 4 779 44 828 71L874 32C824 6 732 -31 662 -54ZM249 -459H771V-416H249ZM249 -535H771V-495H249ZM249 -611H771V-572H249ZM946 -285V-336H420C431 -349 442 -361 452 -375H844V-652H770L826 -672C817 -689 798 -712 780 -730H947V-781H665C673 -796 681 -810 687 -825L617 -841C593 -785 549 -731 499 -694C516 -686 547 -668 562 -657C585 -677 609 -701 631 -730H748L708 -716C727 -697 746 -671 757 -652H318L374 -672C367 -688 353 -710 338 -727H503V-777H236C244 -793 252 -807 259 -823L191 -841C159 -769 106 -697 48 -649C65 -640 95 -621 107 -609C142 -640 176 -682 206 -727H314L267 -713C280 -695 296 -671 304 -652H178V-375H372C362 -362 349 -349 335 -336H57V-285H272C213 -244 136 -207 44 -178C57 -168 75 -144 84 -128C204 -171 298 -224 368 -285H458C409 -249 342 -219 321 -211C302 -204 285 -200 270 -199C275 -185 283 -159 286 -147C296 -150 313 -153 402 -156C355 -138 316 -124 296 -118C254 -104 219 -96 194 -94C199 -80 207 -52 209 -42C229 -49 260 -52 480 -66V8C480 17 477 21 465 22C454 22 419 22 373 21C381 37 392 56 396 74C455 74 493 74 517 65C543 56 549 43 549 10V-70L757 -82C775 -67 791 -52 803 -40L853 -70C818 -105 749 -158 691 -190L642 -165C663 -153 684 -138 706 -122L382 -104C474 -134 564 -171 651 -214L620 -255C579 -233 535 -212 493 -193L372 -190C417 -208 463 -228 507 -255L473 -285H636C707 -220 819 -162 919 -132C928 -149 947 -172 962 -184C878 -204 787 -241 720 -285Z"/>
</svg>