<svg xmlns="http://www.w3.org/2000/svg" viewBox="0 -1000 1000 1000">
	<path fill="#000000" d="M412 -544H478V-485H412ZM478 -757V-703H412V-757ZM562 -591H412V-656H562ZM626 -485H529V-544H611V-652C625 -642 641 -626 649 -618C671 -647 691 -682 710 -720H958V-771H731C737 -789 743 -806 748 -824L691 -838C674 -774 646 -711 611 -666V-703H529V-757H624V-806H357V-436H626ZM696 -547H738V-476H696ZM774 -547H819V-476H774ZM855 -547H901V-476H855ZM652 -436H947V-587H652ZM694 -678V-631H930V-678ZM362 -264C352 -313 327 -394 301 -456L250 -440C260 -412 271 -379 281 -348L146 -326C212 -409 277 -513 331 -617L274 -649C260 -616 243 -583 226 -551L126 -542C174 -618 220 -716 256 -811L194 -839C162 -731 103 -615 84 -587C68 -556 53 -535 37 -531C44 -513 55 -480 59 -466C71 -472 91 -476 190 -489C154 -429 122 -382 107 -364C82 -330 63 -308 45 -304C52 -286 62 -253 65 -239C82 -250 109 -257 296 -293C301 -275 304 -258 307 -244ZM92 -197C82 -117 65 -29 39 33C54 37 80 47 92 53C115 -8 134 -101 147 -187ZM183 -188C194 -121 205 -33 207 25L261 11C258 -47 246 -133 234 -200ZM380 -46C370 -94 347 -167 327 -224L278 -207C297 -150 319 -76 329 -27ZM479 -169H833V-122H479ZM479 -260H833V-213H479ZM479 -349H833V-304H479ZM792 16C765 16 760 13 760 -6V-76H900V-395H414V-76H519C497 -19 442 9 307 25C321 38 339 64 344 80C502 54 569 11 594 -76H692V-6C692 55 710 73 783 73H891C944 73 964 52 970 -29C951 -34 925 -42 912 -52C909 8 904 16 883 16Z"/>
</svg>