<svg xmlns="http://www.w3.org/2000/svg" viewBox="0 -1000 1000 1000">
	<path fill="#000000" d="M737 -135V-18H267V-135ZM194 76H267V42H737V73H812V-195H194ZM920 -477H535V-546H828V-602H535V-669H889V-726H692C712 -753 732 -788 751 -820L675 -838C661 -804 636 -759 615 -726H324L378 -748C367 -773 341 -811 315 -838L250 -815C272 -789 295 -753 307 -726H113V-669H460V-602H172V-546H460V-477H86V-419H920ZM743 -313C760 -340 778 -371 794 -402L721 -418C709 -389 685 -345 665 -313H290L332 -326C321 -353 297 -391 272 -419L206 -400C227 -376 247 -340 258 -313H56V-253H945V-313Z"/>
</svg>