<svg xmlns="http://www.w3.org/2000/svg" viewBox="0 -1000 1000 1000">
	<path fill="#000000" d="M388 -623H153V-695H388ZM388 -499H153V-572H388ZM454 -748H274C285 -773 297 -801 308 -830L233 -839C227 -814 217 -777 207 -748H90V-446H454ZM306 -236H240V-133H94V-74H240V76H306V-74H450V-133H306ZM496 -313V-372H267C274 -396 281 -420 287 -443H221C216 -421 209 -397 199 -372H60V-313H171C142 -263 101 -215 40 -185C55 -175 73 -154 82 -139C159 -181 209 -245 242 -313H302C345 -263 397 -197 424 -157L472 -196C450 -225 413 -271 377 -313ZM698 -790H489V-726H633V-349C575 -290 516 -235 476 -199L512 -145C550 -181 592 -222 633 -265V-22C633 -10 629 -6 618 -5C605 -5 565 -5 521 -7C531 12 540 44 543 62C601 63 642 61 666 49C691 37 698 16 698 -22ZM499 -613C525 -551 554 -467 566 -418L619 -437C607 -484 576 -565 549 -627ZM924 -790H722V-726H858V-369C802 -306 745 -247 709 -210L745 -155C780 -194 820 -236 858 -280V-20C858 -5 854 -2 842 -1C830 -1 788 0 744 -2C754 17 763 47 766 67C825 67 866 65 891 53C916 41 924 20 924 -20ZM723 -615C749 -554 778 -471 791 -422L844 -440C831 -485 800 -566 773 -627Z"/>
</svg>