<svg xmlns="http://www.w3.org/2000/svg" viewBox="0 -1000 1000 1000">
	<path fill="#000000" d="M272 -585H163V-727H272ZM163 -157V-317H272V-179ZM272 -380H163V-523H272ZM385 -727V-794H54V-727H100V-144L37 -133L50 -65C114 -78 192 -95 272 -113V77H336V-727ZM477 -685C535 -710 608 -748 664 -785L610 -831C561 -795 476 -745 415 -716H414V-233C414 -194 391 -179 375 -171C385 -159 398 -135 403 -120V-121C417 -132 439 -142 566 -184C543 -103 496 -25 403 29C417 41 436 64 445 78C631 -37 649 -230 649 -381V-669H588V-381C588 -340 587 -293 579 -246L477 -217ZM926 -743H693V77H754V-680H863V-184C863 -172 859 -169 849 -168C839 -167 807 -167 769 -168C777 -151 786 -122 789 -103C844 -103 877 -105 897 -117C919 -128 926 -148 926 -183Z"/>
</svg>