<svg xmlns="http://www.w3.org/2000/svg" viewBox="0 -1000 1000 1000">
	<path fill="#000000" d="M268 -701H110V-657H486V-701H341V-745H518V-788H341V-836H268V-788H81V-745H268ZM403 -482C398 -453 392 -438 384 -431C378 -426 371 -425 358 -425C344 -425 306 -426 267 -429C274 -417 279 -400 280 -389C324 -386 366 -385 386 -386C410 -386 427 -390 442 -402C460 -415 468 -442 475 -498C477 -505 478 -521 478 -521H264C267 -532 270 -542 272 -554H519V-600H347C338 -617 325 -639 315 -656L253 -642C261 -629 269 -615 276 -600H67V-554H204C191 -491 155 -451 59 -428C72 -416 90 -393 96 -377C176 -400 222 -433 248 -482ZM280 -48V-109H717V-48ZM717 -315V-261H280V-315ZM280 -213H717V-157H280ZM789 -315H920V-370H86V-315H209V-48H63V11H717V77H789V11H939V-48H789ZM639 -689H808C789 -633 759 -587 719 -551C681 -585 651 -626 629 -674ZM948 -689V-744H668C681 -770 692 -798 700 -826L639 -840C613 -756 566 -677 508 -626C522 -616 548 -597 559 -586C570 -598 582 -609 593 -623C614 -582 641 -547 672 -515C622 -483 561 -459 490 -443C503 -431 521 -403 528 -390C602 -411 666 -438 720 -475C774 -436 839 -406 915 -389C923 -406 940 -430 954 -443C882 -456 819 -480 768 -513C816 -559 853 -616 874 -689Z"/>
</svg>