<svg xmlns="http://www.w3.org/2000/svg" viewBox="0 -1000 1000 1000">
	<path fill="#000000" d="M827 -408C811 -433 786 -463 758 -495C787 -531 812 -567 831 -603L779 -611C766 -586 748 -557 726 -530C711 -545 696 -559 681 -573C704 -602 723 -631 737 -659L686 -668C677 -649 663 -627 647 -606C629 -622 611 -638 593 -652L552 -625C573 -608 594 -589 615 -568C590 -543 562 -517 529 -496C540 -489 556 -473 564 -462C596 -485 625 -509 649 -535C664 -520 678 -505 691 -491C657 -454 615 -417 566 -386C577 -379 592 -363 599 -352C647 -383 688 -418 724 -455C748 -426 769 -399 784 -375ZM845 -341H515V-680H845ZM911 -742H651C665 -767 680 -798 695 -828L620 -843C612 -814 597 -773 584 -742H452V-279H911ZM780 -110C760 -148 718 -214 684 -263L635 -240C669 -189 709 -120 729 -80ZM303 -586H176V-726H303ZM176 -157V-318H303V-176ZM176 -523H303V-380H176ZM428 -726V-794H52V-726H113V-147L40 -136L54 -67C125 -79 214 -94 303 -110V77H367V-726ZM442 25C468 -31 488 -122 501 -187L448 -206C437 -142 414 -54 387 0ZM627 -4C590 -4 584 -8 584 -31V-207H520V-30C520 35 541 52 620 52H763C828 52 846 25 854 -84C835 -88 810 -97 797 -108C794 -16 788 -4 757 -4ZM827 -190C855 -128 890 -46 906 7L962 -16C945 -68 910 -148 880 -211Z"/>
</svg>