<svg xmlns="http://www.w3.org/2000/svg" viewBox="0 -1000 1000 1000">
	<path fill="#000000" d="M179 -568C219 -529 268 -476 291 -443L338 -480V-387C277 -348 217 -310 174 -286C178 -344 179 -399 179 -448ZM338 -731V-482C314 -516 263 -568 220 -607L179 -575V-731ZM407 -800H111V-447C111 -303 105 -108 37 32C54 39 83 64 93 77C144 -25 165 -159 174 -282L208 -225C248 -255 293 -288 338 -323V-22C338 -8 332 -3 319 -2C306 -2 263 -1 216 -3C226 16 236 49 238 68C306 68 346 67 372 54C398 42 407 20 407 -21ZM931 -599H681C683 -675 684 -754 684 -834H610C610 -754 610 -675 607 -599H458V-526H605C592 -295 551 -96 408 25C428 37 454 62 467 81C620 -56 665 -273 678 -526H857C847 -170 835 -40 811 -11C801 2 792 5 775 4C754 4 705 4 652 -1C665 20 673 51 675 73C725 76 776 76 805 73C837 70 858 61 876 35C910 -9 919 -148 931 -561Z"/>
</svg>