<svg xmlns="http://www.w3.org/2000/svg" viewBox="0 -1000 1000 1000">
	<path fill="#000000" d="M162 -573V-732H318V-491C291 -525 245 -571 206 -606ZM386 -800H95V-443C95 -296 90 -98 27 43C44 49 73 66 87 77C152 -70 162 -290 162 -444V-570C204 -531 253 -476 278 -443L318 -475V-383C258 -345 199 -307 158 -285L193 -225C232 -253 275 -285 318 -318V-19C318 -6 313 -1 301 0C289 0 250 0 207 -1C216 18 225 50 228 69C292 69 329 67 353 55C377 42 386 20 386 -18ZM828 -260V-34H547V-260ZM478 77H547V33H828V75H899V-327H478ZM721 -664C758 -620 795 -567 827 -515L536 -496C602 -586 667 -701 722 -816L648 -837C597 -710 513 -575 486 -541C461 -504 440 -481 422 -477C430 -457 442 -422 445 -406C474 -418 516 -423 865 -451C880 -425 892 -402 901 -380L964 -414C929 -492 853 -607 780 -694Z"/>
</svg>