<svg xmlns="http://www.w3.org/2000/svg" viewBox="0 -1000 1000 1000">
	<path fill="#000000" d="M391 -519C384 -475 377 -454 369 -446C363 -440 356 -439 342 -439C330 -439 298 -439 264 -443C273 -428 278 -406 279 -391C316 -388 351 -388 370 -389C391 -390 406 -395 420 -407C437 -423 449 -459 459 -540C461 -549 463 -567 463 -567H277C280 -582 283 -597 285 -614H260C390 -635 463 -671 504 -729H757C749 -697 742 -680 732 -672C725 -667 717 -666 701 -666C685 -666 638 -667 592 -671C599 -657 606 -636 607 -621C655 -618 703 -618 726 -618C752 -619 770 -623 786 -635C807 -650 820 -682 830 -751C834 -760 835 -779 835 -779H531C538 -797 543 -816 546 -837H478C474 -815 467 -797 459 -779H162V-729H421C370 -686 284 -662 129 -649C138 -638 152 -616 156 -601C178 -603 199 -605 219 -608C217 -593 215 -580 212 -567H55V-519H195C171 -464 124 -424 39 -398C53 -387 70 -366 76 -351C182 -386 235 -442 263 -519ZM805 -356H196V-218C196 -141 189 -37 133 41C149 48 180 71 193 84C256 -3 268 -126 268 -217V-303H730V-151C562 -125 388 -101 277 -87L299 -23C418 -44 577 -71 730 -100V-2C730 12 726 16 709 17C694 18 635 18 576 15C585 33 597 57 600 76C680 76 732 76 764 66C795 56 805 38 805 -2ZM304 -222C415 -209 559 -179 637 -154L654 -205C577 -230 431 -257 322 -266ZM730 -567C734 -582 737 -597 739 -614H673C671 -597 667 -582 663 -567H499V-519H644C616 -469 567 -434 475 -412C487 -401 503 -379 509 -366C624 -397 684 -447 714 -519H855C849 -473 843 -453 834 -444C829 -438 822 -437 808 -437C795 -437 760 -438 722 -442C731 -427 737 -405 738 -389C777 -387 818 -387 837 -388C860 -389 877 -394 891 -406C907 -423 917 -459 925 -541C927 -550 928 -567 928 -567Z"/>
</svg>