<svg xmlns="http://www.w3.org/2000/svg" viewBox="0 -1000 1000 1000">
	<path fill="#000000" d="M166 -570C199 -534 239 -484 258 -453L295 -480V-366C245 -334 197 -305 161 -285C165 -343 166 -399 166 -447ZM295 -732V-498C273 -528 238 -570 206 -601L166 -575V-732ZM925 -707H533C547 -744 561 -782 572 -822L499 -837C470 -730 422 -626 357 -554V-800H103V-447C103 -303 98 -106 35 35C49 41 76 65 86 79C134 -23 153 -158 161 -280L189 -223C223 -249 259 -276 295 -304V-13C295 1 290 6 277 6C266 6 226 7 182 5C190 23 199 52 201 70C265 70 302 69 326 57C349 46 357 26 357 -12V-518C373 -507 388 -493 397 -484C402 -489 406 -494 411 -500V-73H788V-506H730V-133H469V-500H411C443 -539 475 -586 501 -639H857C857 -193 853 -35 832 -6C823 7 815 11 797 10C777 10 723 10 665 6C678 25 686 54 687 74C737 76 792 78 825 74C857 71 877 62 895 34C925 -11 925 -166 925 -669ZM715 -199C696 -247 665 -308 629 -373C656 -430 679 -490 699 -548L646 -563C632 -519 616 -474 597 -430C572 -473 545 -517 521 -556L476 -534C507 -484 540 -427 571 -371C540 -307 507 -247 472 -200C486 -193 509 -177 519 -168C546 -209 575 -259 602 -313C628 -261 652 -213 667 -174Z"/>
</svg>