<svg xmlns="http://www.w3.org/2000/svg" viewBox="0 -1000 1000 1000">
	<path fill="#000000" d="M166 -570C199 -534 239 -484 258 -453L295 -479V-366C245 -334 197 -305 161 -285C165 -343 166 -399 166 -447ZM295 -732V-497C273 -527 237 -568 205 -601L166 -575V-732ZM356 -800H103V-447C103 -303 98 -107 35 35C49 41 76 65 86 79C134 -23 153 -157 161 -280L187 -225C223 -251 259 -277 295 -306V-13C295 1 290 6 277 6C266 6 226 7 182 5C190 23 199 52 201 69C265 69 302 68 325 57C348 45 356 25 356 -12ZM880 -834C772 -796 591 -762 434 -741V-478C434 -326 427 -111 349 43C366 49 397 67 410 78C490 -82 502 -318 502 -478V-683C650 -702 814 -731 928 -768ZM907 -446C884 -415 847 -374 812 -341C802 -400 793 -462 786 -525C838 -537 888 -551 929 -566L875 -626C805 -597 680 -568 573 -552V-66C573 -20 540 10 520 22C533 35 551 59 556 74C572 58 599 43 765 -37C760 -52 754 -78 750 -97L636 -47V-497C666 -502 697 -507 728 -512C754 -267 801 -52 905 63C916 44 940 19 955 6C896 -54 855 -156 826 -277C866 -309 913 -352 957 -390Z"/>
</svg>