<svg xmlns="http://www.w3.org/2000/svg" viewBox="0 -1000 1000 1000">
	<path fill="#000000" d="M830 -336H194V-207C194 -134 184 -40 112 31C128 40 160 64 171 78C251 -2 267 -118 267 -206V-278H756V-136C581 -110 397 -84 277 -68L298 -10C423 -27 594 -55 756 -82V-7C756 8 751 12 734 13C720 14 661 14 602 11C611 29 622 51 627 69C706 69 758 69 789 59C820 49 830 33 830 -6ZM289 -196C412 -185 573 -157 658 -132L676 -189C590 -214 429 -238 308 -247ZM834 -555C794 -535 728 -506 673 -487C634 -507 599 -531 573 -558H934V-605H218C220 -622 221 -637 221 -652H839V-695H221V-742H912V-795H149V-670C149 -578 135 -454 42 -362C59 -355 88 -331 100 -316C169 -384 200 -474 213 -558H311V-464C311 -425 285 -409 267 -402C277 -390 289 -362 293 -346C310 -357 341 -364 573 -414C573 -427 575 -451 577 -468L382 -430V-558H498C581 -445 739 -375 923 -348C932 -366 949 -392 963 -406C878 -415 798 -434 729 -461C782 -479 844 -501 893 -530Z"/>
</svg>