<svg xmlns="http://www.w3.org/2000/svg" viewBox="0 -1000 1000 1000">
	<path fill="#000000" d="M941 -724H709C697 -758 675 -803 655 -838L588 -819C604 -791 620 -755 630 -724H375V-655H941ZM167 -565C194 -533 225 -491 241 -462L276 -487V-368C234 -338 195 -309 165 -290C167 -326 167 -360 167 -393ZM276 -732V-509C258 -537 228 -572 202 -600L167 -577V-732ZM340 -800H103V-393C103 -259 99 -87 42 35C57 42 82 65 92 79C140 -18 158 -150 164 -268L186 -224C217 -250 246 -276 276 -304V-11C276 2 272 6 259 6C249 6 213 7 172 5C181 24 189 53 192 72C251 72 286 70 309 59C332 46 340 27 340 -11ZM493 -641C468 -540 414 -413 344 -334C355 -320 371 -293 379 -277C400 -301 419 -326 438 -354V76H502V-471C526 -522 545 -574 561 -623ZM685 -413C716 -377 747 -328 760 -295L803 -327C790 -359 757 -407 725 -442ZM852 -471C829 -363 792 -270 745 -193C707 -255 675 -324 654 -396C666 -420 675 -446 685 -471ZM883 -535L872 -532H707C718 -563 726 -595 734 -624L669 -638C642 -518 588 -369 509 -274C523 -263 543 -243 553 -230C576 -258 599 -291 619 -326C642 -258 672 -195 707 -138C653 -66 589 -12 521 25C535 37 554 60 564 76C630 37 692 -16 745 -81C793 -17 849 37 913 73C922 54 944 30 961 16C894 -17 834 -70 784 -135C850 -235 900 -362 925 -520Z"/>
</svg>