<svg xmlns="http://www.w3.org/2000/svg" viewBox="0 -1000 1000 1000">
	<path fill="#000000" d="M328 -354H393V-569C421 -598 447 -629 467 -662L408 -681C364 -615 292 -552 220 -510C233 -499 254 -471 261 -459C283 -473 305 -489 328 -508ZM774 -32C730 -55 651 -90 587 -114C596 -130 604 -145 610 -163H548C524 -101 466 -55 352 -29C363 -19 380 3 387 16C466 -5 521 -36 558 -75C621 -50 693 -17 735 7ZM886 -320H607C611 -338 614 -357 616 -378H556C554 -357 550 -338 546 -320H262V69H330V-265H524C495 -216 443 -184 351 -164C362 -154 377 -135 383 -121C463 -140 517 -167 552 -206C622 -182 706 -146 752 -121L791 -160C741 -186 652 -222 579 -245C583 -252 586 -258 589 -265H818V-6C818 6 814 9 800 10C787 11 742 12 689 10C697 27 705 49 707 67C779 67 826 67 852 57C879 47 886 30 886 -6ZM654 -455C622 -477 564 -509 520 -532L480 -496C525 -472 582 -438 613 -415ZM815 -675H747V-606H461V-549H747V-424C747 -413 743 -410 732 -409C722 -409 682 -409 641 -410C649 -396 658 -378 662 -363C721 -363 759 -363 782 -371C807 -379 815 -390 815 -422V-549H936V-606H815ZM581 -760C568 -785 550 -816 534 -840L465 -826C476 -806 488 -782 500 -760H125V-458C125 -311 118 -106 40 39C56 47 88 69 100 82C184 -71 197 -302 197 -458V-696H945V-760Z"/>
</svg>