<svg xmlns="http://www.w3.org/2000/svg" viewBox="0 -1000 1000 1000">
	<path fill="#000000" d="M694 -593C677 -651 632 -743 589 -812L534 -794C577 -723 620 -629 636 -571ZM430 -813C409 -732 371 -651 324 -597C338 -589 364 -569 374 -558C422 -618 466 -708 492 -800ZM153 -549C178 -521 206 -486 220 -462L246 -483V-351C210 -324 176 -299 149 -282C152 -339 153 -394 153 -442ZM246 -732V-520C228 -544 204 -570 182 -592L153 -571V-732ZM308 -800H92V-442C92 -296 88 -96 35 45C51 51 77 67 89 76C126 -22 142 -151 149 -272L176 -219C199 -239 223 -261 246 -282V-6C246 6 242 9 231 9C222 10 189 10 153 9C162 27 171 57 173 75C225 75 259 73 280 62C301 50 308 30 308 -6ZM581 -249V-61H445V-249ZM386 65H445V4H581V60H642V-316H386ZM492 -636C459 -519 394 -409 315 -345C332 -334 351 -313 362 -299C424 -353 475 -429 514 -515C570 -441 628 -355 656 -298L706 -338C674 -400 602 -500 540 -578C545 -591 550 -604 554 -618ZM922 -780H710V76H768V-715H861V-163C861 -153 858 -150 849 -150C840 -149 815 -149 786 -150C794 -133 803 -106 805 -89C847 -89 877 -90 896 -101C917 -112 922 -131 922 -162Z"/>
</svg>