<svg xmlns="http://www.w3.org/2000/svg" viewBox="0 -1000 1000 1000">
	<path fill="#000000" d="M167 -572C201 -536 241 -485 261 -453L302 -482V-375C249 -341 199 -308 162 -287C166 -344 167 -399 167 -447ZM302 -732V-493C280 -523 242 -568 210 -601L167 -574V-732ZM366 -800H103V-447C103 -303 98 -107 35 34C49 41 76 65 86 79C133 -23 153 -154 161 -275L187 -224C224 -252 263 -283 302 -313V-13C302 1 297 6 285 6C273 6 233 7 189 5C198 23 207 53 209 72C273 72 310 70 334 59C358 47 366 27 366 -12ZM504 -266V-345H642V-266ZM504 -472H642V-395H504ZM844 -472V-395H713V-472ZM844 -266H713V-345H844ZM713 -6V-84H920V-144H713V-210H912V-528H713V-590H937V-651H713V-745C789 -755 862 -768 919 -784L869 -838C764 -807 569 -786 407 -775C413 -760 422 -735 424 -719C493 -723 569 -729 642 -737V-651H409V-590H642V-528H438V-210H642V-144H428V-84H642V-6H382V56H952V-6Z"/>
</svg>