<svg xmlns="http://www.w3.org/2000/svg" viewBox="0 -1000 1000 1000">
	<path fill="#000000" d="M846 -565V-510H704V-565ZM704 -410V-462H846V-410ZM493 -410V-462H635V-410ZM635 -565V-510H493V-565ZM635 -617H429V-272H493V-363H635V-292H704V-363H846V-333C846 -324 843 -321 832 -321C822 -320 792 -320 757 -321C764 -307 775 -288 778 -273C828 -273 862 -273 883 -281C906 -290 912 -301 912 -333V-617H704V-679H943V-738H879L909 -772C880 -791 826 -819 786 -838L748 -800C783 -782 827 -757 857 -738H704V-837H635V-738H393V-679H635ZM166 -570C199 -534 239 -484 258 -452L292 -478V-364C243 -333 197 -304 162 -286C165 -342 166 -395 166 -443ZM292 -734V-501C271 -531 236 -571 206 -601L166 -575V-734ZM356 -800H103V-444C103 -297 99 -97 35 42C51 48 78 64 91 75C135 -24 154 -156 161 -279L189 -223C222 -247 257 -274 292 -301V-19C292 -6 287 -1 275 0C264 0 226 0 182 -1C190 17 198 46 201 64C264 64 301 63 324 52C348 39 356 19 356 -18ZM654 -49C623 -77 561 -122 516 -154L473 -112C519 -78 580 -29 610 0ZM957 -215H828V-270H759V-215H384V-154H759V-4C759 7 756 10 742 11C730 11 687 11 640 10C649 29 659 55 662 74C727 74 768 74 794 63C821 52 828 33 828 -2V-154H957Z"/>
</svg>