<svg xmlns="http://www.w3.org/2000/svg" viewBox="0 -1000 1000 1000">
	<path fill="#000000" d="M697 -356C748 -301 882 -147 924 -86L973 -135C954 -155 906 -208 858 -260C889 -283 924 -312 955 -340L914 -387C891 -362 854 -326 821 -298C785 -337 753 -371 736 -387ZM834 -733V-638H660V-733ZM660 -479V-578H834V-479ZM660 -150V-417H899V-795H597V-164C597 -133 584 -127 572 -124C580 -108 589 -79 592 -63C607 -72 632 -82 802 -129C799 -143 798 -166 800 -183ZM505 -667C494 -709 475 -774 459 -825L401 -812C415 -762 436 -694 445 -652ZM158 -569C187 -537 222 -493 239 -464L274 -489V-357C229 -328 186 -302 153 -285C157 -342 158 -398 158 -447ZM274 -732V-512C254 -539 224 -574 197 -601L158 -576V-732ZM531 -370L520 -367H470C494 -437 521 -524 544 -595H369V-529H465C442 -451 413 -366 391 -308H490C474 -234 450 -151 421 -93C394 -78 364 -48 334 -9V-800H97V-447C97 -303 92 -106 32 35C46 42 72 64 80 78C126 -25 145 -157 153 -280L181 -223C211 -246 243 -270 274 -294V-7C274 6 269 11 257 11C245 11 206 12 161 10C170 28 178 56 181 73C244 73 280 72 304 61C314 55 322 47 327 37L361 81C394 18 430 -42 454 -42C475 -42 505 -12 540 14C598 54 662 69 753 69C819 69 929 65 978 62C978 43 988 9 995 -9C926 -1 824 3 754 3C669 3 609 -8 556 -44C524 -65 502 -86 481 -96C516 -169 544 -270 561 -358Z"/>
</svg>