<svg xmlns="http://www.w3.org/2000/svg" viewBox="0 -1000 1000 1000">
	<path fill="#000000" d="M166 -570C199 -534 239 -484 258 -452L295 -480V-366C245 -334 197 -305 161 -285C165 -343 166 -399 166 -446ZM295 -732V-498C273 -528 238 -569 206 -601L166 -575V-732ZM356 -800H103V-447C103 -303 98 -107 35 35C49 41 76 65 86 79C134 -23 153 -158 161 -280L189 -223C223 -249 259 -276 295 -304V-13C295 1 290 6 277 6C266 6 226 7 182 5C190 23 199 52 201 69C265 69 302 68 325 57C348 45 356 25 356 -12ZM823 -141V-21H511V-141ZM443 74H511V37H823V72H894V-198H443ZM932 -475H701V-541H890V-596H701V-661H922V-719H784C803 -748 822 -783 840 -815L769 -837C758 -803 735 -755 717 -719H572L610 -735C599 -763 575 -807 552 -839L494 -817C515 -788 534 -748 545 -719H408V-661H632V-596H440V-541H632V-475H400V-417H932ZM805 -307C820 -333 837 -364 852 -394L785 -417C776 -386 758 -340 741 -307H559L587 -319C578 -344 557 -384 536 -412L478 -392C495 -366 512 -333 522 -307H381V-248H952V-307Z"/>
</svg>