<svg xmlns="http://www.w3.org/2000/svg" viewBox="0 -1000 1000 1000">
	<path fill="#000000" d="M151 -563C179 -531 209 -488 225 -460L264 -487V-367C220 -334 179 -304 147 -283C150 -342 151 -398 151 -446ZM264 -732V-500C246 -528 217 -566 189 -595L151 -572V-732ZM323 -800H92V-446C92 -304 87 -107 35 36C48 43 72 67 82 82C122 -20 139 -151 146 -271L173 -221L264 -302V-7C264 5 259 9 248 9C237 10 203 10 164 9C173 26 181 55 183 72C239 72 273 71 295 59C316 48 323 29 323 -7ZM805 -430C770 -448 708 -475 656 -495C668 -508 678 -522 685 -535L631 -548C598 -491 524 -449 449 -421C463 -413 483 -395 492 -386C536 -404 581 -430 620 -461C674 -438 739 -408 775 -389ZM824 -377H430V-554H824ZM366 -604V-326H890V-604H873L916 -624C889 -652 841 -689 795 -721C831 -749 871 -781 907 -814L842 -835C811 -804 760 -758 711 -719C767 -679 819 -636 852 -604H671L724 -628C699 -654 656 -692 612 -722C646 -749 683 -781 715 -813L651 -834C623 -803 576 -759 530 -720C584 -680 634 -637 662 -604H493L534 -621C509 -649 467 -687 425 -720C458 -748 494 -781 525 -814L459 -834C434 -802 389 -757 345 -718C396 -678 440 -636 467 -604ZM444 -302H383V-23C383 9 367 15 353 19C361 35 371 63 374 79C388 69 413 60 565 16C562 3 558 -19 556 -36L444 -9V-88H567V-140H444V-199H567V-252H444ZM659 -11V-87H782V-139H659V-198H782V-250H659V-302H599V-23C599 9 583 15 570 19C578 34 588 62 590 79C606 68 631 58 804 5C801 -8 796 -30 794 -47ZM805 -300C806 -94 833 75 907 75C931 75 953 46 964 -38C953 -44 934 -56 923 -69C920 -18 912 7 905 7C881 7 863 -122 866 -300Z"/>
</svg>