<svg xmlns="http://www.w3.org/2000/svg" viewBox="0 -1000 1000 1000">
	<path fill="#000000" d="M895 -709V-768H277C291 -786 303 -804 314 -822L241 -836C207 -777 144 -707 60 -654C78 -646 101 -626 114 -611C157 -642 195 -675 228 -709ZM276 -523H380V-424H276ZM558 -523V-424H445V-523ZM733 -523V-424H624V-523ZM950 -424H805V-523H917V-585H805V-670H733V-585H624V-665H558V-585H445V-665H380V-585H276V-669H206V-585H108V-523H206V-424H55V-364H950ZM388 -230C368 -182 341 -142 308 -107C283 -137 241 -175 203 -205C211 -213 219 -221 227 -230ZM418 -284H269C283 -304 295 -326 306 -347L244 -363C204 -280 130 -208 46 -161C61 -151 84 -128 94 -116C118 -131 140 -148 163 -167C200 -134 241 -95 264 -65C209 -22 145 9 75 30C89 42 110 68 118 84C278 30 412 -77 472 -267L431 -286ZM566 -105C580 -142 593 -183 607 -223H704V-105ZM955 -105H774V-223H933V-283H774V-349H704V-283H489V-223H538C520 -162 496 -94 477 -45L544 -46H704V76H774V-46H955Z"/>
</svg>