<svg xmlns="http://www.w3.org/2000/svg" viewBox="0 -1000 1000 1000">
	<path fill="#000000" d="M360 -638H206V-706H360ZM416 -485V-405H317V-485ZM152 -405V-485H249V-405ZM429 -836H360V-762H206V-836H140V-762H50V-706H140V-587H249V-534H93V-356H249V-303H83V-248H248C246 -229 244 -211 240 -192H52V-138H224C197 -74 143 -15 36 31C51 41 75 67 83 82C174 41 229 -11 265 -68C315 -32 391 26 423 55L467 -2C439 -22 335 -93 289 -120C291 -126 294 -132 296 -138H505V-192H309C312 -211 314 -229 316 -248H480V-303H317V-356H478V-534H317V-587H429V-706H509V-762H429ZM616 -552H835V-436H616ZM835 -728V-615H616V-728ZM902 -339C872 -305 825 -262 783 -228C769 -272 757 -319 748 -368H905V-796H546V-64C546 -28 528 -16 514 -10C525 9 537 45 541 64C560 52 588 43 759 -2C756 -18 754 -48 755 -67L616 -35V-368H683C718 -163 785 -1 918 80C929 60 950 33 967 20C895 -18 843 -86 805 -171C852 -204 908 -249 953 -291Z"/>
</svg>