<svg xmlns="http://www.w3.org/2000/svg" viewBox="0 -1000 1000 1000">
	<path fill="#000000" d="M301 -569C241 -444 144 -321 40 -245C57 -233 88 -207 100 -193C140 -226 180 -265 218 -310V77H291V-406C322 -451 350 -499 373 -547ZM375 -837H302V-737H63V-666H302V-572H375V-666H480V-737H375ZM628 -567H701V-666H935V-737H701V-837H628V-737H517V-666H628ZM653 -7C603 -7 593 -15 593 -56V-320H933V-391H593V-558H520V-57C520 38 548 63 647 63H831C923 63 944 19 955 -130C933 -135 904 -147 887 -161C881 -32 873 -7 827 -7Z"/>
</svg>