<svg xmlns="http://www.w3.org/2000/svg" viewBox="0 -1000 1000 1000">
	<path fill="#000000" d="M268 -595H341V-681H468V-747H341V-836H268V-747H57V-681H268ZM756 -195V-40H260V-195ZM189 78H260V26H756V75H830V-263H189ZM586 -535C629 -503 675 -465 717 -425L270 -402C345 -452 421 -514 489 -579L423 -619C344 -533 232 -449 198 -427C166 -406 141 -392 119 -388C127 -369 139 -333 142 -317C179 -331 233 -333 777 -367C804 -339 827 -313 844 -290L904 -335C850 -405 734 -506 641 -574ZM738 -747V-836H665V-747H525V-681H665V-595H738V-681H937V-747Z"/>
</svg>