<svg xmlns="http://www.w3.org/2000/svg" viewBox="0 -1000 1000 1000">
	<path fill="#000000" d="M670 -655H743V-707H941V-770H743V-837H670V-770H520V-707H670ZM493 -557H731C707 -532 676 -510 640 -489C585 -509 529 -527 477 -543ZM916 -381C864 -406 787 -436 705 -466C756 -499 799 -540 829 -587L789 -610L777 -607H541C556 -625 570 -642 582 -660L515 -673C476 -613 401 -544 298 -495C310 -486 330 -465 340 -450C373 -468 402 -486 430 -507C476 -492 525 -475 575 -458C487 -420 382 -396 281 -383C293 -369 305 -347 311 -331C429 -350 548 -380 646 -431C741 -395 830 -359 889 -329ZM644 -21V-83H899V-131H644V-183H841V-228H644V-278H855V-324H644V-382H576V-324H369V-278H576V-228H388V-183H576V-131H334V-83H576V-21ZM251 -634H324V-707H478V-769H324V-837H251V-769H64V-707H251ZM241 -544C226 -574 197 -620 175 -656L114 -634C134 -596 165 -547 178 -517ZM265 -309L253 -305H172C207 -365 247 -439 279 -503H50V-442H178C143 -374 103 -300 70 -248H221C198 -189 164 -128 128 -86C99 -64 68 -25 36 20L85 83C115 20 149 -43 171 -43C193 -43 229 -9 270 16C344 60 431 70 562 70C680 70 871 64 945 60C946 39 958 5 967 -14C855 -3 694 6 564 6C446 6 355 0 286 -43C250 -65 227 -83 208 -94C248 -151 283 -223 306 -292Z"/>
</svg>