<svg xmlns="http://www.w3.org/2000/svg" viewBox="0 -1000 1000 1000">
	<path fill="#000000" d="M670 -640H743V-696H941V-759H743V-836H670V-759H520V-696H670ZM619 -355C699 -355 722 -381 731 -491C711 -494 682 -505 666 -517C661 -431 654 -420 612 -420H427C373 -420 363 -425 363 -449V-602H293V-449C293 -375 320 -355 423 -355ZM222 -328C257 -278 290 -211 303 -168L350 -186C337 -231 302 -295 268 -343ZM588 -521C566 -558 517 -616 478 -656L426 -628C466 -586 512 -526 533 -489ZM795 -180C779 -222 738 -288 702 -336L654 -317C690 -268 728 -200 745 -157ZM882 -445C857 -493 801 -565 750 -615L696 -586C747 -533 803 -460 826 -411ZM262 -641H335V-696H479V-759H335V-836H262V-759H64V-696H262ZM86 -1C109 -54 128 -143 140 -204L92 -221C83 -159 61 -71 37 -18ZM188 -594C168 -532 134 -456 90 -409L149 -384C193 -431 225 -509 245 -573ZM262 9C250 9 241 8 235 5C227 1 225 -9 225 -26V-256H166V-34C166 20 172 36 190 46C204 58 231 61 252 61H321C339 61 366 59 379 54C396 49 407 39 414 24C421 8 425 -33 425 -70C408 -75 387 -86 373 -97C372 -59 371 -28 368 -15C365 -3 358 3 351 6C344 8 329 9 316 9ZM367 -278C399 -228 430 -160 441 -115L490 -134C477 -179 447 -245 413 -295ZM523 6C545 -50 558 -144 566 -211L518 -226C511 -159 496 -68 473 -13ZM696 11C682 11 672 9 665 6C656 2 655 -8 655 -26V-256H593V-33C593 22 600 37 618 48C634 59 661 63 685 63H757C778 63 805 61 821 55C838 49 849 38 856 22C863 6 866 -39 868 -79C851 -85 829 -95 816 -106C816 -63 814 -31 811 -16C808 -3 800 4 792 7C786 10 768 11 754 11ZM835 -256C869 -194 904 -111 917 -56L968 -75C954 -129 919 -211 882 -273Z"/>
</svg>