<svg xmlns="http://www.w3.org/2000/svg" viewBox="0 -1000 1000 1000">
	<path fill="#000000" d="M666 -662H739V-711H941V-772H739V-837H666V-772H520V-711H666ZM264 -642H337V-711H479V-772H337V-837H264V-772H64V-711H264ZM88 -591C144 -562 213 -517 246 -484L292 -538C257 -571 187 -613 130 -640ZM247 -349C213 -380 142 -422 86 -449L44 -400C100 -371 170 -326 203 -294ZM127 71C170 1 217 -89 255 -167L203 -210C160 -125 106 -31 67 26ZM642 -251V-377C705 -339 773 -293 829 -251ZM638 -7V-82H793V-7ZM427 -82H573V-7H427ZM573 -130H427V-199H573ZM793 -130H638V-199H793ZM573 -251H422C480 -288 533 -333 573 -381ZM573 -445H450L491 -463C483 -488 461 -525 439 -552C483 -554 528 -558 573 -562ZM947 -445H778C799 -475 823 -513 844 -548L777 -568C763 -532 735 -481 713 -445H642V-569C730 -578 814 -591 880 -607L822 -654C709 -626 496 -607 317 -599C325 -585 333 -562 335 -546C368 -547 402 -549 437 -551L383 -530C402 -505 422 -471 432 -445H284V-387H501C434 -322 335 -266 245 -235C261 -223 281 -198 290 -182C313 -191 336 -202 360 -215V77H427V45H793V77H863V-225C877 -214 889 -203 900 -193L943 -243C897 -283 817 -339 738 -387H947Z"/>
</svg>