<svg xmlns="http://www.w3.org/2000/svg" viewBox="0 -1000 1000 1000">
	<path fill="#000000" d="M946 -266C939 -307 917 -369 892 -415L845 -399C854 -381 863 -360 870 -340L760 -328C819 -388 879 -466 930 -545L874 -571C861 -545 844 -517 826 -493L739 -486C773 -528 808 -582 834 -637L776 -657C752 -592 706 -525 693 -508C680 -491 667 -479 655 -477C662 -463 672 -433 675 -421C686 -426 705 -431 789 -440C761 -402 735 -372 724 -361C702 -336 684 -319 667 -316C674 -302 683 -272 686 -260C701 -268 725 -272 886 -293C890 -277 893 -261 895 -249ZM666 -651H739V-713H941V-777H739V-837H666V-777H520V-713H666ZM264 -651H337V-713H476V-777H337V-837H264V-777H64V-713H264ZM347 -260C340 -302 317 -364 291 -411L246 -397C256 -378 265 -357 274 -335L169 -324C227 -383 286 -460 336 -537L282 -562C269 -538 253 -512 236 -489L148 -483C182 -524 218 -578 246 -632L189 -654C163 -588 116 -521 102 -505C89 -488 77 -476 64 -473C71 -459 80 -430 82 -417C94 -422 114 -427 200 -437C171 -398 145 -368 133 -356C111 -332 93 -315 77 -313C83 -298 92 -268 95 -256C110 -263 134 -268 289 -288C293 -272 297 -256 299 -244ZM361 -135C292 -78 160 -28 45 -5C61 9 81 34 91 52C206 23 343 -39 418 -110ZM413 -415H584V-335H413ZM413 -545H584V-466H413ZM939 -158V-218H535V-281H650V-599H515C525 -621 535 -645 546 -670L474 -684C469 -661 458 -626 448 -599H349V-281H462V-218H61V-158H462V77H535V-158ZM592 -96C697 -55 834 7 905 47L946 -5C873 -44 735 -104 631 -141Z"/>
</svg>