<svg xmlns="http://www.w3.org/2000/svg" viewBox="0 -1000 1000 1000">
	<path fill="#000000" d="M178 -586H493V-494H178ZM178 -735H493V-645H178ZM232 -352C248 -378 263 -406 276 -432H566V-797H108V-432H202C165 -356 101 -274 32 -220C45 -210 67 -189 78 -176C117 -207 154 -246 188 -289H268C219 -194 141 -99 64 -50C81 -39 100 -20 112 -6C195 -68 281 -181 330 -289H398C359 -166 289 -42 207 21C225 31 245 48 258 63C342 -12 418 -154 456 -289H523C508 -101 491 -26 470 -6C463 4 453 5 437 5C423 5 384 5 342 1C352 18 359 44 360 63C402 65 444 66 467 64C492 62 509 56 526 36C556 5 573 -84 591 -321C592 -331 593 -352 593 -352ZM738 -725H668V-175H738ZM846 -822V-22C846 -5 840 0 823 1C807 1 753 2 693 0C703 21 713 53 717 73C799 74 847 72 878 59C906 46 918 25 918 -22V-822Z"/>
</svg>