<svg xmlns="http://www.w3.org/2000/svg" viewBox="0 -1000 1000 1000">
	<path fill="#000000" d="M456 -609V-559L246 -548L248 -506L456 -517C456 -457 474 -430 552 -430H794C837 -430 881 -431 899 -436C897 -450 895 -466 893 -487C872 -481 818 -480 788 -480H563C529 -480 523 -489 523 -516V-521L774 -534L772 -575L523 -562V-609H834C824 -585 813 -560 802 -542L863 -521C883 -554 906 -607 923 -653L873 -668L861 -665H514V-723H865V-778H514V-836H441V-665H126V-410C126 -278 119 -93 42 39C59 46 92 64 104 76C185 -62 199 -267 199 -410V-609ZM578 -118C581 -131 584 -143 586 -157H519C517 -143 514 -130 510 -118H225V-67H484C445 -16 366 10 211 24C223 37 237 61 242 77C431 55 518 14 559 -67H820C809 -16 797 9 785 19C777 25 769 26 752 26C736 27 693 26 649 21C658 37 665 59 666 74C712 78 756 78 779 77C804 76 822 72 838 58C862 40 878 -1 893 -89C896 -98 897 -118 897 -118ZM605 -216V-267H801V-216ZM344 -267H537V-216H344ZM537 -360V-308H344V-360ZM801 -308H605V-360H801ZM865 -319V-402H283V-319H218V-256H283V-173H865V-256H950V-319Z"/>
</svg>