<svg xmlns="http://www.w3.org/2000/svg" viewBox="0 -1000 1000 1000">
	<path fill="#000000" d="M801 -263V-41H546V-263ZM477 80H546V26H801V77H874V-330H477ZM538 -511C593 -568 639 -636 674 -710C713 -636 763 -566 816 -511ZM350 -366H269V-594H350ZM137 -594H215V-366H137ZM646 -835C606 -704 521 -579 409 -495V-656H275V-834H209V-656H79V-252H137V-305H209V-91C144 -82 84 -73 37 -67L50 4C140 -11 261 -32 380 -52C386 -31 391 -10 394 8L454 -12C441 -77 411 -175 382 -252L326 -235C338 -199 352 -156 364 -115L275 -101V-305H409V-471C423 -458 438 -442 446 -431C472 -450 498 -472 521 -494V-444H827V-500C851 -477 875 -457 900 -440C911 -459 935 -487 952 -501C856 -556 761 -672 706 -785C710 -795 714 -806 717 -816Z"/>
</svg>