<svg xmlns="http://www.w3.org/2000/svg" viewBox="0 -1000 1000 1000">
	<path fill="#000000" d="M953 -644C929 -686 879 -755 838 -804L783 -781C824 -729 873 -659 896 -615ZM129 -595H193V-347H129ZM310 -347H242V-595H310ZM407 -16C396 -73 370 -162 342 -231L291 -214C303 -182 316 -145 327 -109L249 -94V-284H367V-658H250V-831H186V-658H73V-232H129V-284H186V-82C134 -71 85 -63 46 -56L59 13C139 -5 241 -26 343 -48C347 -29 351 -13 353 3ZM563 -542V-714C607 -730 648 -746 683 -765C684 -687 685 -613 689 -542ZM877 -436C853 -362 821 -293 782 -230C771 -299 763 -382 758 -474H953V-542H754C750 -633 749 -731 750 -836H682L683 -773L629 -820C574 -783 468 -745 375 -720C384 -706 395 -682 399 -666C430 -674 463 -683 496 -693V-542H389V-474H496V-293C451 -282 409 -272 375 -265L391 -196L496 -224V-14C496 0 492 4 479 5C466 6 423 6 375 4C385 24 395 54 398 72C462 72 504 70 529 58C554 47 563 27 563 -14V-242L673 -271L666 -335C631 -326 597 -317 563 -308V-474H692C699 -351 711 -241 728 -153C682 -94 629 -42 571 -2C585 12 607 42 615 57C663 21 708 -22 749 -71C777 21 817 75 873 75C935 75 955 31 965 -107C950 -113 928 -127 914 -143C910 -35 900 7 882 7C848 7 820 -45 799 -136C858 -220 907 -315 943 -419Z"/>
</svg>