<svg xmlns="http://www.w3.org/2000/svg" viewBox="0 -1000 1000 1000">
	<path fill="#000000" d="M126 -595H190V-348H126ZM311 -348H242V-595H311ZM409 -10C397 -69 369 -161 338 -229L287 -213C300 -182 313 -147 325 -113L247 -96V-285H364V-658H246V-831H185V-658H70V-232H126V-285H185V-83C132 -72 83 -63 44 -56L57 12C137 -7 240 -29 342 -53C347 -30 352 -10 355 8ZM603 -455C597 -386 588 -324 576 -270C547 -296 511 -325 476 -351C489 -384 499 -419 509 -455ZM619 -519H524C530 -545 535 -570 539 -596L478 -606L477 -599V-672H884V-571H951V-737H730C721 -767 703 -808 685 -839L616 -820C629 -795 641 -764 650 -737H413V-569H472C453 -455 421 -349 372 -276C384 -264 404 -236 411 -223C426 -245 441 -269 452 -296C491 -266 530 -231 557 -203C523 -92 470 -17 399 32C414 40 436 64 445 79C573 -12 647 -194 669 -513L631 -521ZM797 12C785 12 777 11 770 7C761 3 759 -14 759 -41V-476H864V-237C864 -228 861 -225 850 -224C841 -224 809 -224 769 -225C777 -209 784 -187 787 -171C840 -171 873 -171 894 -181C916 -191 921 -207 921 -237V-539H699V-49C699 23 707 39 724 50C741 62 767 66 787 66H853C876 66 898 63 914 57C931 51 942 39 949 21C955 4 959 -46 960 -87C942 -93 919 -104 905 -116C904 -69 902 -34 900 -17C896 -3 889 4 882 8C876 11 861 12 848 12Z"/>
</svg>