<svg xmlns="http://www.w3.org/2000/svg" viewBox="0 -1000 1000 1000">
	<path fill="#000000" d="M763 -638H832V-693H953V-753H832V-836H763V-753H684V-693H763ZM514 -638H581V-693H658V-753H581V-836H514V-753H390V-693H514ZM129 -595H197V-348H129ZM310 -348H248V-595H310ZM407 0C395 -62 367 -156 341 -230L289 -216C300 -183 311 -147 322 -112L253 -97V-285H365V-658H253V-831H192V-658H74V-232H129V-285H192V-84C136 -73 85 -63 44 -55L54 11C133 -7 235 -29 337 -52C344 -26 349 -3 353 18ZM818 -316H748V-212H594V-316H525V-212H392V-148H524C519 -86 496 -13 394 30C410 43 429 66 438 81C560 23 589 -68 593 -148H748V76H818V-148H954V-212H818ZM949 -474V-536H845L863 -551C843 -570 803 -601 774 -623L731 -591C753 -575 778 -554 797 -536H666C674 -568 680 -603 684 -639H616C612 -603 606 -568 597 -536H396V-474H573C540 -407 482 -356 378 -323C393 -310 411 -286 419 -270C544 -314 610 -384 647 -474H697C738 -377 814 -305 922 -272C932 -290 952 -316 966 -330C874 -352 805 -404 763 -474Z"/>
</svg>