<svg xmlns="http://www.w3.org/2000/svg" viewBox="0 -1000 1000 1000">
	<path fill="#000000" d="M652 -623L654 -624V-623V-624C668 -629 691 -633 777 -643C743 -604 712 -572 698 -562C675 -539 656 -525 639 -523C645 -512 655 -490 657 -481C675 -488 704 -494 887 -517C893 -502 899 -487 902 -475L946 -494C937 -527 909 -581 884 -621L840 -607C849 -592 859 -575 868 -559L744 -544C803 -597 860 -663 909 -728L857 -751C844 -730 830 -710 815 -690L723 -682C756 -718 788 -762 813 -807L758 -826C734 -769 686 -707 672 -692C659 -677 647 -667 634 -664C639 -656 647 -639 651 -629ZM852 -465C871 -426 889 -373 894 -340L939 -355C934 -387 915 -438 895 -477ZM826 -338C825 -370 814 -422 800 -463L754 -456C768 -414 778 -361 779 -328ZM675 -462C669 -418 658 -373 638 -339C651 -333 673 -321 682 -314C702 -351 717 -403 726 -452ZM639 -746H546C538 -771 519 -810 499 -837L451 -821C466 -799 480 -771 489 -746H350V-699H639ZM378 -525H610V-566H378ZM610 -653H378V-612H610ZM427 -436H563V-376H427ZM377 -333H615V-479H377ZM81 -626H82C96 -631 116 -635 199 -643C166 -605 136 -575 123 -563C101 -543 82 -528 64 -526C72 -515 82 -494 84 -484C101 -491 130 -497 305 -519C312 -505 317 -491 320 -479L365 -498C355 -531 328 -584 302 -625L258 -611C268 -595 278 -577 287 -560L170 -547C228 -598 283 -661 329 -724L276 -747C264 -727 251 -709 237 -690L152 -684C185 -720 217 -763 243 -808L187 -827C163 -769 116 -709 102 -695C89 -679 78 -670 64 -668C69 -659 77 -642 81 -631ZM268 -470C285 -435 303 -389 308 -360L352 -374C346 -403 330 -448 310 -482ZM249 -338C248 -370 237 -423 222 -465L176 -458C190 -415 200 -362 201 -328ZM99 -466C93 -420 82 -373 63 -336C76 -331 97 -319 107 -313C126 -350 141 -406 150 -457ZM535 -97H775L729 -74C748 -59 767 -42 787 -23C703 -22 617 -21 535 -20ZM228 -151V-234H463V-151ZM776 -234V-151H535V-234ZM950 56C917 14 849 -51 790 -97H848V-288H535V-323H463V-288H160V-97H463V-20C320 -19 188 -18 86 -18L89 48C287 46 571 40 843 34C862 54 878 72 891 89Z"/>
</svg>