<svg xmlns="http://www.w3.org/2000/svg" viewBox="0 -1000 1000 1000">
	<path fill="#000000" d="M941 -787H611V-718H941ZM560 -698C527 -732 459 -778 406 -808L361 -758C415 -727 482 -678 514 -643ZM237 -836C195 -765 110 -680 35 -628C47 -614 66 -589 76 -574C157 -634 248 -727 304 -812ZM267 -641C210 -537 118 -431 30 -364C44 -348 65 -314 73 -299C105 -326 138 -358 170 -392V78H243V-480C276 -525 307 -571 332 -618ZM531 -444C495 -475 421 -515 364 -540L324 -487C381 -460 454 -416 490 -384ZM392 54C451 -41 523 -174 577 -285L525 -331C467 -212 387 -73 332 8ZM956 -513H589V-444H763V-15C763 -1 759 2 744 3C730 4 682 4 627 3C637 24 646 55 649 75C720 75 769 75 798 63C827 50 835 29 835 -14V-444H956Z"/>
</svg>