<svg xmlns="http://www.w3.org/2000/svg" viewBox="0 -1000 1000 1000">
	<path fill="#000000" d="M919 -613H536V-695H845V-755H536V-836H463V-755H155V-695H463V-613H78V-552H919ZM263 -432H739V-327H263ZM834 -265C791 -227 720 -177 662 -142C623 -179 591 -221 565 -268H813V-490H191V-268H403C308 -205 164 -152 38 -127C53 -113 72 -88 82 -69C145 -84 212 -106 275 -135V-39C275 -1 248 12 229 18C240 35 252 66 256 84C275 72 309 63 564 -2C561 -17 560 -47 561 -65L346 -12V-168C403 -197 454 -231 495 -266C575 -97 719 21 914 73C924 53 943 25 959 10C863 -11 779 -49 710 -101C768 -134 838 -179 892 -221Z"/>
</svg>