<svg xmlns="http://www.w3.org/2000/svg" viewBox="0 -1000 1000 1000">
	<path fill="#000000" d="M278 -699C262 -734 228 -791 199 -833L142 -805C170 -762 204 -702 218 -664ZM379 -246C368 -260 339 -299 309 -337C337 -361 371 -397 402 -429L357 -470C338 -443 306 -403 279 -373C268 -387 258 -400 250 -409V-413C294 -482 333 -558 360 -634L323 -663L312 -660H44V-592H277C222 -465 124 -335 33 -259C44 -246 61 -210 68 -192C105 -225 143 -266 180 -313V76H250V-325C283 -277 321 -219 339 -189ZM822 -381C793 -295 750 -221 695 -160C639 -222 596 -297 566 -381ZM637 -620V-447H493V-620ZM863 -450L849 -447H707V-620H861C850 -574 836 -526 824 -494L886 -479C907 -529 931 -609 950 -679L898 -693L886 -690H707V-836H637V-690H424V-430C424 -292 413 -109 309 22C323 31 352 55 362 70C462 -55 488 -237 492 -381H501C535 -276 583 -185 647 -111C583 -53 509 -11 431 16C446 30 464 58 472 76C553 44 629 -1 695 -61C757 -2 831 43 918 73C927 53 948 25 964 10C879 -15 806 -57 745 -111C818 -193 876 -299 907 -432Z"/>
</svg>