<svg xmlns="http://www.w3.org/2000/svg" viewBox="0 -1000 1000 1000">
	<path fill="#000000" d="M919 -657C891 -700 830 -762 780 -808L728 -770C779 -724 838 -657 864 -615ZM258 -52V-231C290 -260 319 -293 343 -326H573V-390H396C384 -417 360 -454 338 -484L275 -462C291 -441 307 -414 319 -390H80V-326H261C204 -261 123 -203 46 -164C60 -151 83 -123 93 -110C125 -128 158 -150 190 -174V-79C190 -37 171 -18 157 -8C167 4 184 30 189 45C206 32 233 22 405 -32C401 -46 399 -74 398 -91ZM495 -294C476 -269 447 -237 421 -211C392 -230 364 -250 338 -266L294 -225C372 -173 466 -98 510 -47L557 -95C536 -119 504 -146 467 -174C495 -199 526 -229 552 -258ZM837 -445C809 -370 771 -297 725 -229C708 -304 695 -396 686 -499H946V-565H683C678 -649 675 -740 676 -835H603C604 -742 606 -650 612 -565H358V-672H538V-736H358V-836H287V-736H105V-672H287V-565H59V-499H615C626 -367 644 -250 669 -157C610 -86 542 -26 467 20C486 33 508 57 520 75C584 32 644 -19 696 -77C734 14 784 67 851 67C921 67 945 22 958 -130C939 -137 914 -153 898 -168C893 -50 882 -5 857 -5C815 -5 778 -55 749 -141C814 -225 867 -321 906 -423Z"/>
</svg>