<svg xmlns="http://www.w3.org/2000/svg" viewBox="0 -1000 1000 1000">
	<path fill="#000000" d="M744 -618C735 -593 715 -555 701 -530L736 -514C752 -536 771 -567 788 -599ZM459 -349C472 -340 488 -321 498 -308C539 -334 584 -378 618 -423V-320H673V-404C713 -379 767 -341 788 -322L818 -369C794 -384 705 -437 673 -454V-466H814V-514H673V-619C715 -625 755 -632 786 -642L740 -677C688 -660 583 -649 496 -645C503 -633 511 -616 513 -605C546 -606 583 -608 618 -612V-514H555L587 -530C581 -551 564 -580 548 -603L509 -586C524 -563 539 -535 546 -514H484V-466H592C557 -421 505 -376 459 -351V-686H839V-328C839 -320 837 -318 829 -317C822 -317 802 -317 777 -318C785 -303 793 -282 796 -266C832 -266 861 -267 879 -276C897 -286 903 -299 903 -328V-743H631C642 -769 653 -799 665 -829L584 -840C578 -813 568 -774 557 -743H396V-270H459ZM269 -701C255 -735 224 -789 199 -830L140 -805C165 -764 195 -707 209 -670ZM371 -270C362 -282 336 -312 310 -342C334 -367 361 -397 387 -426L340 -472C325 -446 299 -411 276 -382C263 -396 252 -410 243 -419V-420C285 -489 322 -563 348 -637L310 -663L297 -660H49V-592H263C210 -469 117 -340 30 -265C41 -253 60 -219 67 -200C103 -235 141 -277 177 -324V76H243V-333C274 -291 310 -241 327 -212ZM675 -108C751 -51 851 30 900 77L949 31C897 -16 795 -93 721 -148ZM668 -225C672 -246 675 -268 677 -291H608C606 -267 603 -246 599 -225H346V-161H582C549 -74 479 -15 322 18C336 32 355 60 361 78C542 34 619 -44 653 -161H956V-225Z"/>
</svg>