<svg xmlns="http://www.w3.org/2000/svg" viewBox="0 -1000 1000 1000">
	<path fill="#000000" d="M773 -699H949V-760H773V-835H707V-637H773ZM551 -637H616V-835H551V-761H373V-700H551ZM276 -713C259 -746 224 -798 193 -838L141 -804C170 -764 204 -708 221 -673ZM787 -408L751 -379C785 -361 825 -339 852 -321H699C696 -348 693 -378 692 -408ZM615 -564H714V-461H615ZM561 -461H466V-564H561ZM768 -564H867V-461H768ZM835 -237C813 -195 784 -158 749 -124C733 -163 719 -210 709 -262H946V-321H874L904 -349C879 -365 833 -390 796 -408H932V-617H404V-430L358 -470C340 -441 310 -399 283 -368C272 -382 260 -394 251 -404C298 -476 340 -554 369 -633L330 -663L318 -660H59V-592H282C227 -468 129 -342 38 -269C50 -255 67 -218 74 -198C108 -228 144 -265 178 -307V76H247V-325C283 -278 325 -219 345 -188L387 -247C376 -262 346 -296 316 -332C344 -359 375 -395 404 -428V-408H628C630 -378 632 -349 636 -321H400V-210C400 -135 389 -36 316 39C331 46 361 67 373 79C434 15 458 -73 465 -149C510 -120 560 -82 589 -57L629 -102C596 -130 533 -173 485 -202L468 -186C468 -193 468 -201 468 -209V-262H645C658 -193 678 -132 701 -81C650 -41 593 -7 534 19C547 30 569 55 579 67C631 42 682 9 729 -28C770 37 820 75 873 75C927 76 948 46 958 -54C942 -59 922 -70 908 -83C904 -13 897 13 877 13C843 14 807 -16 777 -69C824 -113 865 -164 895 -220Z"/>
</svg>