<svg xmlns="http://www.w3.org/2000/svg" viewBox="0 -1000 1000 1000">
	<path fill="#000000" d="M281 -712C266 -747 234 -799 205 -840L150 -811C177 -770 208 -714 223 -678ZM417 -667H40V-606H417ZM374 -477V-536H81V-477ZM312 -211V-46H148V-211ZM375 -273H81V63H148V16H375ZM81 -347H375V-406H81ZM719 -6C683 -6 676 -14 676 -56V-363L954 -405L942 -472L676 -433V-695C757 -716 835 -740 896 -766L831 -822C738 -776 567 -734 417 -708C426 -692 437 -665 441 -647C493 -656 548 -667 603 -679V-423L402 -392L414 -323L603 -351V-57C603 39 626 65 710 65H851C931 65 951 16 959 -132C937 -137 909 -151 891 -165C886 -36 881 -6 846 -6Z"/>
</svg>