<svg xmlns="http://www.w3.org/2000/svg" viewBox="0 -1000 1000 1000">
	<path fill="#000000" d="M434 -285C381 -271 326 -256 274 -242V-648H419V-719H55V-648H201V-222C140 -207 85 -193 41 -183L60 -107C165 -136 308 -176 443 -216ZM667 -610C669 -678 670 -748 670 -820H596C596 -747 595 -677 593 -610H426V-538H590C575 -296 520 -94 308 19C326 32 351 59 361 78C589 -50 647 -273 663 -538H863C848 -184 832 -50 804 -18C793 -6 781 -3 762 -3C740 -3 683 -3 622 -9C635 12 644 43 645 64C701 68 760 69 792 66C827 62 847 54 869 27C907 -19 920 -162 936 -572C937 -582 937 -610 937 -610Z"/>
</svg>