<svg xmlns="http://www.w3.org/2000/svg" viewBox="0 -1000 1000 1000">
	<path fill="#000000" d="M291 -712C276 -747 243 -799 214 -840L157 -811C184 -770 216 -714 231 -678ZM317 -211V-46H150V-211ZM383 -273H85V63H150V16H383ZM85 -347H375V-406H85ZM375 -536H85V-477H375ZM44 -606H409V-667H44ZM830 -31H543V-226H830ZM955 -460V-531H723V-722C790 -736 854 -752 905 -771L857 -830C761 -793 589 -761 443 -743C451 -726 460 -700 462 -683C523 -690 589 -699 654 -709V-531H437V-460H654V-294H475V77H543V37H830V73H902V-294H723V-460Z"/>
</svg>