<svg xmlns="http://www.w3.org/2000/svg" viewBox="0 -1000 1000 1000">
	<path fill="#000000" d="M846 -733C838 -531 828 -453 812 -435C803 -425 795 -423 779 -423C763 -423 721 -424 675 -428C687 -409 694 -382 696 -362C740 -360 784 -360 809 -362C836 -364 855 -371 872 -391C896 -422 907 -512 918 -765C918 -775 919 -797 919 -797H432V-733H638C633 -684 626 -638 613 -595C575 -628 523 -671 481 -704L442 -662C489 -623 550 -570 587 -532C554 -465 500 -412 411 -374C426 -363 446 -338 454 -321C638 -404 688 -553 706 -733ZM598 -320C639 -274 684 -211 705 -172L754 -206C732 -244 686 -305 644 -349ZM274 -703C260 -739 234 -794 208 -835L145 -813C169 -770 196 -713 207 -677ZM395 -671H43V-609H395ZM371 -536H69V-477H371ZM69 -344H371V-404H69ZM302 -208V-41H132V-208ZM366 -269H69V66H132V20H366ZM422 -20C456 -75 478 -166 491 -238L438 -254C426 -186 402 -98 368 -44ZM623 -5C589 -5 582 -10 582 -34V-277H517V-34C517 35 537 55 616 55H746C815 55 833 23 840 -113C822 -117 795 -127 781 -138C778 -22 772 -5 739 -5ZM823 -276C858 -209 893 -120 907 -66L964 -88C950 -141 912 -228 876 -294Z"/>
</svg>