<svg xmlns="http://www.w3.org/2000/svg" viewBox="0 -1000 1000 1000">
	<path fill="#000000" d="M945 -741H722C714 -772 697 -814 674 -844L613 -819C627 -796 641 -767 650 -741H417V-679H945ZM551 -567H815V-466H551ZM887 -410V-623H481V-410ZM286 -712C272 -748 239 -800 211 -841L155 -812C182 -770 213 -714 228 -678ZM313 -211V-46H147V-211ZM377 -273H84V63H147V16H377ZM84 -347H370V-406H84ZM370 -536H84V-477H370ZM45 -606H400V-667H45ZM954 -179H726V-205C790 -236 855 -278 903 -322L860 -356L846 -352H458V-293H773C736 -267 692 -242 651 -225V-179H408V-116H651V-1C651 10 647 13 632 14C618 15 571 15 516 13C526 33 536 59 539 79C610 79 657 79 687 68C718 57 726 40 726 1V-116H954Z"/>
</svg>