<svg xmlns="http://www.w3.org/2000/svg" viewBox="0 -1000 1000 1000">
	<path fill="#000000" d="M264 -712C247 -747 216 -799 187 -840L129 -811C158 -770 189 -714 203 -678ZM347 -667H45V-606H347ZM321 -406H79V-347H321ZM266 -211V-46H136V-211ZM328 -273H74V63H136V16H328ZM746 -214V-348H839V-214ZM601 -214V-348H691V-214ZM457 -214V-348H546V-214ZM902 -411H395V81H457V-151H546V55H601V-151H691V55H746V-151H839V-1C839 7 837 10 829 10C822 10 800 10 774 9C782 28 790 54 792 72C831 72 859 72 878 60C897 49 902 31 902 -1ZM78 -536V-477H321V-536ZM499 -561C551 -607 601 -660 642 -715C680 -659 729 -605 783 -561ZM641 -840C576 -719 443 -592 320 -533C337 -516 355 -485 365 -464C402 -484 439 -511 475 -541V-496H816V-535C847 -512 879 -492 912 -477C924 -498 948 -529 965 -545C857 -586 744 -679 681 -771C687 -781 693 -791 699 -801Z"/>
</svg>