<svg xmlns="http://www.w3.org/2000/svg" viewBox="0 -1000 1000 1000">
	<path fill="#000000" d="M284 -704C275 -739 252 -794 232 -835L171 -816C188 -773 211 -716 220 -680ZM306 -210V-43H153V-210ZM372 -271H88V64H153V18H372ZM84 -349H374V-408H84ZM373 -543H83V-484H373ZM48 -608H406V-669H48ZM888 -401H474V-217C474 -137 467 -36 408 40C424 46 451 69 463 81C530 -3 541 -124 541 -216V-345H822V-172C719 -156 618 -139 548 -130L570 -67C643 -83 732 -102 822 -121V0C822 12 818 16 805 16C793 17 751 17 705 15C713 32 722 56 726 73C789 73 830 72 855 62C880 52 888 35 888 1ZM570 -263C637 -250 722 -227 767 -209L791 -257C745 -274 659 -295 595 -305ZM858 -656H711V-741H858ZM858 -516H711V-601H858ZM500 -601H650V-516H500ZM500 -741H650V-656H500ZM437 -799V-458H923V-799Z"/>
</svg>