<svg xmlns="http://www.w3.org/2000/svg" viewBox="0 -1000 1000 1000">
	<path fill="#000000" d="M948 -499H692V-568H901V-619H692V-684H927V-739H802C818 -762 838 -790 856 -818L790 -838C778 -810 754 -767 735 -739H581L586 -741C576 -768 548 -809 523 -837L470 -816C488 -793 507 -764 521 -739H398V-684H620V-619H431V-568H620V-499H362V-442H948ZM788 -385C828 -358 874 -316 896 -287L941 -324C919 -353 872 -392 831 -418ZM246 -701C238 -735 215 -790 193 -831L138 -812C159 -769 181 -712 188 -677ZM274 -209V-41H133V-209ZM331 -269H77V66H133V19H331ZM79 -344H333V-404H79ZM79 -477H333V-536H79ZM44 -606H356V-667H44ZM852 -194C836 -163 814 -133 788 -105C779 -137 771 -174 765 -217H950V-274H758C754 -317 751 -366 750 -419H686C688 -367 691 -318 695 -274H568V-354C604 -361 638 -369 667 -378L624 -425C567 -404 463 -386 376 -376C383 -363 390 -342 393 -329C428 -332 464 -337 501 -342V-274H361V-217H501V-141C447 -134 398 -127 357 -123L367 -63L501 -83V7C501 18 498 21 486 22C475 22 436 22 394 21C402 38 412 61 415 77C473 77 511 77 535 68C560 58 568 42 568 8V-93L676 -109L674 -164L568 -149V-217H702C711 -155 722 -102 737 -59C694 -24 645 4 596 26C609 37 627 55 634 66C677 47 720 22 759 -7C790 53 829 85 880 85C929 84 952 55 963 -35C948 -41 929 -49 916 -62C911 2 901 24 885 24C857 24 831 0 808 -48C847 -85 882 -125 907 -169Z"/>
</svg>