<svg xmlns="http://www.w3.org/2000/svg" viewBox="0 -1000 1000 1000">
	<path fill="#000000" d="M799 -716H950V-775H799V-836H731V-661H799ZM287 -712C272 -747 240 -800 211 -841L155 -811C182 -770 214 -714 227 -678ZM395 -667H44V-606H395ZM361 -536H85V-477H361ZM85 -347H361V-406H85ZM299 -211V-46H148V-211ZM364 -273H84V63H148V16H364ZM669 -494H532V-544H669ZM669 -400H532V-450H669ZM669 -303H532V-356H669ZM469 -234H532V-254H950V-303H733V-356H902V-400H733V-450H902V-494H733V-544H928V-594H742C734 -619 722 -651 710 -677L646 -659C654 -640 661 -615 668 -594H538C548 -616 557 -639 565 -661H630V-836H563V-775H401V-716H563V-664L505 -680C479 -600 430 -522 375 -471C388 -458 408 -429 416 -417C435 -434 452 -456 469 -478ZM802 -157C770 -123 728 -93 680 -69C634 -94 594 -124 563 -157ZM861 -215L849 -212H414V-157H526L495 -146C526 -105 566 -70 613 -39C540 -11 458 8 377 18C389 33 403 61 409 78C503 63 597 37 679 -1C754 35 838 62 927 77C935 60 953 33 969 18C892 8 815 -12 749 -37C814 -78 869 -129 905 -192Z"/>
</svg>