<svg xmlns="http://www.w3.org/2000/svg" viewBox="0 -1000 1000 1000">
	<path fill="#000000" d="M609 -701H460V-744H615V-788H460V-837H403V-659H550C549 -602 547 -581 542 -573C538 -568 533 -567 526 -567C517 -567 500 -567 479 -570C484 -558 489 -541 490 -529C512 -527 536 -527 549 -528C569 -528 582 -534 592 -545C604 -560 606 -593 609 -680ZM431 -642C423 -606 405 -565 384 -541L432 -524C453 -551 471 -598 479 -633ZM744 -73V-9H249V-73ZM179 75H249V34H744V75H817V-116H179ZM197 -157H798V-200H197ZM798 -282H197V-240H798ZM557 -367C546 -391 527 -418 507 -439L440 -426C455 -408 470 -387 481 -367H261C299 -396 332 -429 358 -463H648C675 -429 710 -396 748 -367ZM947 -463V-514H832C840 -594 847 -711 852 -802H640V-753H783L781 -707H643V-660H778L774 -612H643V-565H770L765 -514H226L222 -565H350V-612H219L216 -660H350V-707H214L211 -748C265 -757 322 -769 368 -781L329 -825C284 -810 209 -793 146 -781L162 -514H55V-463H280C219 -399 121 -344 29 -316C44 -303 64 -280 74 -263C121 -280 170 -304 215 -334V-322H782V-344C828 -314 878 -289 926 -272C935 -289 955 -314 971 -327C883 -352 788 -404 727 -463Z"/>
</svg>