<svg xmlns="http://www.w3.org/2000/svg" viewBox="0 -1000 1000 1000">
	<path fill="#000000" d="M263 -712C248 -747 215 -799 186 -840L128 -811C157 -770 189 -714 203 -678ZM351 -667H44V-606H351ZM337 -536H85V-477H337ZM85 -347H335V-406H85ZM275 -211V-46H150V-211ZM339 -273H85V63H150V16H339ZM555 -71C511 -34 421 9 345 32C360 43 381 64 392 78C468 53 559 8 615 -37ZM506 -124V-177H813V-124ZM506 -273H813V-222H506ZM506 -368H813V-318H506ZM881 -71V-422H671C735 -457 758 -514 767 -591H808V-511C808 -472 811 -459 822 -449C832 -440 848 -436 864 -436H901C911 -436 925 -438 934 -442C942 -445 949 -452 954 -461C958 -471 961 -497 962 -520C950 -524 937 -531 927 -539C926 -518 925 -502 923 -494C921 -487 918 -484 914 -483C911 -481 905 -480 898 -480H877C871 -480 866 -481 864 -484C861 -487 861 -493 861 -507V-591H946V-643H825V-704H924V-754H825V-832H770V-754H724C728 -771 732 -786 735 -803L686 -814C677 -765 666 -717 642 -680C654 -673 675 -660 685 -654C693 -668 701 -686 708 -704H770V-643H655V-591H714C707 -531 686 -489 633 -463C645 -453 661 -435 668 -422H528C539 -433 558 -445 648 -490C644 -500 639 -518 636 -531L582 -507V-592H634V-643H542V-704H622V-754H542V-834H487V-754H444C449 -772 454 -789 458 -807L408 -817C399 -769 384 -721 358 -684C371 -678 391 -663 401 -657C410 -670 419 -687 425 -704H487V-642H371V-592H431C425 -521 404 -472 343 -443C354 -435 371 -414 378 -401C451 -440 476 -503 484 -592H531V-535C531 -494 512 -474 501 -466C510 -455 522 -435 528 -422H440V-71H748L704 -36C775 1 852 45 897 77L958 38C910 5 828 -37 755 -71Z"/>
</svg>