<svg xmlns="http://www.w3.org/2000/svg" viewBox="0 -1000 1000 1000">
	<path fill="#000000" d="M166 -570C199 -534 239 -484 258 -452L295 -480V-366C245 -334 197 -304 161 -285C165 -343 166 -398 166 -446ZM295 -732V-498C273 -528 238 -569 206 -601L166 -575V-732ZM356 -800H103V-447C103 -303 98 -107 35 35C49 41 76 65 86 79C134 -23 153 -158 161 -280L189 -223C223 -249 259 -276 295 -304V-13C295 1 290 6 277 6C266 6 226 7 182 5C190 23 199 52 201 69C265 69 302 68 325 57C348 45 356 25 356 -12ZM891 -612C841 -559 760 -489 694 -440C675 -498 647 -553 612 -599C653 -632 690 -668 719 -708H933V-778H402V-708H635C569 -635 468 -575 367 -537C381 -523 403 -493 412 -479C463 -501 515 -530 563 -562C578 -542 591 -521 601 -498C552 -433 460 -360 385 -325C400 -310 417 -282 425 -264C493 -303 572 -370 628 -435C638 -405 645 -375 650 -346C592 -248 477 -142 377 -93C390 -77 408 -49 416 -32C501 -82 595 -167 662 -253C670 -140 652 -42 625 -14C608 6 594 11 571 11C554 11 523 10 495 6C506 26 510 53 510 74C537 75 568 76 586 75C627 74 653 64 680 34C731 -18 754 -202 711 -377C728 -389 746 -400 763 -414C790 -257 834 -104 902 -18C914 -39 939 -65 955 -79C888 -154 839 -304 815 -453C859 -489 904 -526 940 -560Z"/>
</svg>