<svg xmlns="http://www.w3.org/2000/svg" viewBox="0 -1000 1000 1000">
	<path fill="#000000" d="M356 -494L345 -491H276L317 -533C300 -551 279 -571 253 -591C306 -639 363 -704 403 -765L359 -796L346 -792H45V-729H298C272 -693 238 -656 205 -626C178 -644 148 -661 121 -675L77 -633C146 -597 225 -537 267 -491H34V-427H168V-18C168 -6 164 -3 151 -2C139 -2 97 -1 51 -3C62 17 74 48 77 68C136 68 177 67 202 54C229 42 236 21 236 -16V-427H326C314 -371 297 -311 280 -271L332 -250C361 -309 385 -401 400 -481ZM497 -579H638V-473H497ZM727 -717C714 -690 697 -660 679 -636H491C515 -662 534 -690 553 -717ZM849 -473H703V-579H849ZM886 -398C841 -362 769 -317 711 -285C692 -323 668 -360 634 -391C644 -399 653 -407 661 -416H916V-636H755C779 -670 804 -711 821 -748L774 -778L763 -775H587C597 -794 607 -811 615 -829L544 -841C510 -760 443 -660 344 -587C360 -578 383 -557 395 -543C409 -553 421 -564 433 -575V-416H580C523 -373 439 -330 370 -308C384 -296 404 -273 413 -258C469 -280 537 -317 592 -357C606 -344 618 -328 629 -312C564 -258 444 -200 353 -173C367 -160 382 -138 390 -122C474 -154 582 -212 654 -267C661 -251 667 -237 671 -221C599 -145 458 -64 343 -29C357 -15 373 7 380 23C483 -15 605 -88 685 -160C695 -86 682 -21 659 -1C645 14 629 16 609 16C592 16 566 15 537 12C548 30 554 55 555 73C579 74 604 75 622 75C660 74 682 68 707 44C752 4 769 -116 731 -233C746 -240 761 -248 776 -256C807 -147 858 -34 913 29C924 11 946 -11 962 -23C906 -77 853 -182 823 -284C859 -305 895 -329 925 -351Z"/>
</svg>