<svg xmlns="http://www.w3.org/2000/svg" viewBox="0 -1000 1000 1000">
	<path fill="#000000" d="M870 -813C771 -768 584 -735 424 -717C433 -701 443 -676 446 -659C609 -677 802 -708 924 -758ZM309 -605H150V-727H309ZM309 -424H150V-546H309ZM309 -242H150V-366H309ZM376 -789H85V-181H376ZM143 -149C117 -90 80 -24 45 23C60 31 87 48 100 58C134 9 176 -66 206 -130ZM859 -521L844 -517H705C696 -555 677 -610 658 -652L595 -636C609 -599 625 -553 634 -517H441V-450H798C726 -333 603 -191 493 -109C463 -94 432 -59 398 -13C378 -50 341 -106 307 -149L256 -121C287 -77 326 -16 343 23L393 -7L383 8L430 69C462 4 498 -56 522 -56C544 -56 571 -27 609 1C663 40 717 57 792 57C829 57 908 54 943 52C944 32 953 -1 959 -19C912 -13 837 -10 795 -10C723 -10 673 -25 627 -57C604 -72 588 -86 571 -98C697 -200 828 -354 907 -488Z"/>
</svg>