<svg xmlns="http://www.w3.org/2000/svg" viewBox="0 -1000 1000 1000">
	<path fill="#000000" d="M283 -605H146V-727H283ZM283 -424H146V-547H283ZM283 -242H146V-366H283ZM346 -789H85V-181H346ZM141 -149C116 -90 80 -24 45 23C60 31 86 48 98 58C132 9 173 -66 201 -130ZM237 -121C262 -85 294 -35 308 -4L361 -36C345 -65 314 -113 287 -149ZM448 -807C473 -766 504 -711 518 -678L583 -709C568 -742 536 -794 509 -833ZM576 -266V-351H676V-266ZM576 -489H676V-409H576ZM576 -620H676V-546H576ZM826 -489V-409H739V-489ZM826 -266H739V-351H826ZM888 -210V-351H956V-409H888V-546H739V-620H926V-678H753C783 -716 815 -762 845 -804L776 -834C755 -787 714 -722 681 -678H380V-620H514V-546H391V-489H514V-409H366V-351H514V-266H387V-210H490C451 -127 393 -45 336 -3C350 9 371 33 382 50C430 8 477 -61 514 -136V76H576V-210H676V75H739V-150C790 -71 855 4 913 47C924 30 945 8 959 -5C891 -47 814 -129 763 -210Z"/>
</svg>