<svg xmlns="http://www.w3.org/2000/svg" viewBox="0 -1000 1000 1000">
	<path fill="#000000" d="M290 -605H142V-727H290ZM290 -424H142V-546H290ZM290 -242H142V-366H290ZM352 -789H83V-180H352ZM136 -149C112 -90 78 -24 45 23C59 31 84 48 96 58C127 9 167 -66 193 -130ZM241 -121C270 -74 309 -9 326 31L376 -3C358 -41 321 -103 289 -150ZM800 -249V-162H518V-249ZM518 -26V-109H800V-26ZM454 73H518V32H800V69H866V-308H454ZM497 -600C521 -554 546 -492 557 -454L601 -472C589 -508 563 -568 539 -613ZM758 -455C780 -492 805 -547 827 -596L780 -612C767 -570 738 -508 717 -470ZM845 -420H684V-648H845ZM472 -648H632V-420H472ZM778 -706C802 -738 827 -778 851 -814L783 -839C766 -800 736 -744 710 -706H553L601 -727C589 -757 564 -803 537 -837L479 -816C501 -782 526 -737 537 -706H411V-362H908V-706Z"/>
</svg>