<svg xmlns="http://www.w3.org/2000/svg" viewBox="0 -1000 1000 1000">
	<path fill="#000000" d="M304 -275H409L404 -271C420 -262 447 -243 460 -232C468 -240 476 -248 484 -257V-162H593C572 -132 529 -104 443 -86C456 -77 471 -58 477 -45C591 -73 638 -116 656 -162H796V-299H742V-212H666V-221V-319H611V-222C611 -219 611 -215 611 -212H537V-299H519C532 -315 543 -332 555 -350H867C857 -197 848 -139 832 -122C825 -113 818 -112 804 -113C790 -113 757 -113 720 -116C728 -102 734 -80 735 -64C774 -62 812 -61 832 -63C856 -65 872 -70 886 -86C910 -112 921 -183 932 -376C933 -385 934 -404 934 -404H586C595 -421 603 -438 610 -455L583 -462C631 -485 654 -513 664 -543H798V-673H745V-590H671V-693H619V-590H546V-673H530C542 -689 553 -705 564 -722H864C855 -580 845 -524 830 -509C823 -501 816 -499 803 -499C789 -499 757 -500 720 -504C728 -490 734 -469 735 -454C773 -451 811 -451 830 -452C855 -454 870 -459 884 -475C906 -500 917 -568 928 -749C929 -759 930 -776 930 -776H595C603 -792 611 -809 618 -826L554 -842C524 -765 471 -689 412 -639C428 -629 455 -611 468 -601C477 -610 486 -619 495 -630V-543H607C588 -513 546 -486 452 -469C464 -459 476 -441 481 -429C500 -433 517 -438 532 -442C506 -387 470 -335 428 -293V-340H304V-467H440V-533H284V-650H415V-716H284V-837H217V-716H78V-650H217V-533H52V-467H237V-114C204 -149 180 -198 161 -263C163 -305 164 -345 163 -384L101 -388C104 -256 97 -88 28 31C43 38 66 59 77 74C114 13 135 -59 148 -133C222 15 344 50 562 50H931C936 28 949 -5 962 -23C902 -21 608 -21 562 -21C452 -21 368 -31 304 -63Z"/>
</svg>