<svg xmlns="http://www.w3.org/2000/svg" viewBox="0 -1000 1000 1000">
	<path fill="#000000" d="M278 -555H138V-729H278ZM664 -362V-431H555V-628H654V-695H470C479 -737 487 -781 493 -826L427 -837C413 -712 386 -587 340 -504V-794H79V-490H203V-91L139 -74V-395H82V-60L39 -50L54 18C142 -6 259 -40 371 -72L363 -134L263 -107V-287H356V-352H263V-490H340V-501C357 -492 384 -474 395 -464C419 -510 439 -566 456 -628H489V-431H367V-362H487C481 -232 449 -83 315 27C330 37 353 62 362 76C451 2 500 -92 526 -187C569 -135 613 -77 635 -36L680 -92C652 -139 597 -209 543 -265C549 -298 552 -331 553 -362ZM748 -95V-661H860V-95ZM685 -729V44H748V-28H860V29H926V-729Z"/>
</svg>