<svg xmlns="http://www.w3.org/2000/svg" viewBox="0 -1000 1000 1000">
	<path fill="#000000" d="M144 -728H304V-555H144ZM362 -141L265 -111V-287H371V-353H265V-490H370V-794H82V-490H205V-92L138 -72V-396H82V-56C66 -52 53 -48 39 -44L55 26C144 -4 262 -42 373 -79ZM791 -514V-420H644V-514ZM489 -514H582V-364H855V-514H951V-576H855V-653H791V-576H644V-653H582V-576H489V-682H952V-746H738C729 -776 714 -813 698 -841L631 -827C644 -803 656 -772 664 -746H421V-411C421 -273 412 -91 321 37C338 45 366 65 379 75C475 -59 489 -263 489 -411ZM823 -243C797 -193 762 -150 719 -114C677 -151 643 -195 617 -243ZM872 -307L858 -304H505V-243H549C578 -179 618 -123 669 -75C608 -34 536 -5 463 13C477 27 494 56 502 75C581 52 657 18 722 -29C781 16 850 49 926 72C934 54 954 28 969 16C896 -2 830 -32 773 -71C836 -127 886 -200 916 -289Z"/>
</svg>