<svg xmlns="http://www.w3.org/2000/svg" viewBox="0 -1000 1000 1000">
	<path fill="#000000" d="M644 -694H716V-741H935V-792H716V-836H644V-792H517V-741H644ZM533 -430H820V-340C820 -332 817 -329 808 -329C802 -328 787 -328 765 -329C742 -361 697 -403 655 -429L604 -410C617 -402 629 -392 642 -382L533 -379ZM249 -546V-580H463V-546ZM249 -648H463V-615H249ZM753 -615H533V-648H753ZM753 -546H533V-580H753ZM236 -325C354 -328 521 -333 685 -340C697 -328 705 -316 712 -306L748 -319C753 -308 760 -295 763 -284C813 -284 845 -284 865 -291C886 -300 892 -311 892 -341V-475H533V-508H826V-686H179V-508H463V-475H192V-495H122V-475H98V-430H122V-285H192V-430H463V-378C375 -376 295 -375 232 -374ZM280 -694H353V-741H480V-792H353V-836H280V-792H63V-741H280ZM242 -233H769V-180H242ZM535 -52H875V-98H535V-135H844V-278H170V-135H462V-1C384 -12 327 -33 288 -75C297 -88 303 -104 308 -120L236 -129C211 -51 133 -2 37 29C52 40 80 65 91 78C156 52 217 16 259 -34C342 46 468 62 668 62H936C939 46 949 22 958 8C912 9 700 10 669 9C621 9 575 8 535 6Z"/>
</svg>