<svg xmlns="http://www.w3.org/2000/svg" viewBox="0 -1000 1000 1000">
	<path fill="#000000" d="M952 -626H772V-703H927V-757H772V-836H702V-757H559V-703H702V-626H526V-572H952ZM702 -22H772V-145H955V-199H772V-271H925V-325H772V-392H954V-446H835C852 -477 871 -514 890 -550L830 -571C817 -536 795 -482 776 -446H629L679 -464C671 -492 652 -535 631 -568L577 -551C595 -518 614 -475 621 -446H531V-392H702V-325H557V-271H702V-199H524V-145H702ZM481 -667C470 -709 448 -776 431 -828L375 -811C389 -759 411 -690 422 -647ZM138 -731H268V-558H138ZM343 -142C312 -131 280 -119 250 -110V-283H344V-347H250V-495H330V-794H79V-495H190V-88L130 -68V-394H73V-49L40 -39L56 25C141 -6 251 -44 356 -84ZM491 -370L481 -367H445C465 -437 487 -523 505 -595H354V-534H430C412 -456 388 -370 369 -309H454C443 -237 426 -158 403 -98C376 -83 345 -40 313 17L362 79C379 20 405 -44 421 -44C442 -44 472 -14 508 13C566 52 629 68 721 68C787 68 899 64 947 61C948 42 958 9 965 -9C895 -1 793 3 723 3C637 3 577 -8 523 -44C495 -63 476 -80 458 -91C488 -167 510 -269 522 -358Z"/>
</svg>