<svg xmlns="http://www.w3.org/2000/svg" viewBox="0 -1000 1000 1000">
	<path fill="#000000" d="M736 -136C700 -211 622 -335 562 -429L503 -397C534 -348 570 -289 601 -233L261 -198C331 -290 401 -407 458 -525L377 -554C324 -424 236 -286 209 -251C183 -214 162 -188 141 -184C151 -163 165 -124 169 -107C198 -119 242 -125 636 -169C650 -142 663 -119 671 -98ZM316 -688C334 -729 353 -772 369 -814L293 -835C235 -675 144 -510 45 -406C65 -396 98 -372 113 -359C171 -428 229 -517 279 -615H842C828 -223 811 -58 771 -23C759 -11 745 -7 721 -8C691 -8 611 -8 524 -15C541 8 552 41 554 64C625 68 703 71 745 67C788 64 815 54 842 22C888 -32 903 -192 920 -647C921 -657 921 -688 921 -688Z"/>
</svg>