<svg xmlns="http://www.w3.org/2000/svg" viewBox="0 -1000 1000 1000">
	<path fill="#000000" d="M613 -724H773V-562C773 -494 786 -468 850 -468H911C928 -468 947 -469 959 -473C956 -489 955 -514 953 -531C941 -528 922 -527 910 -527H857C844 -527 842 -535 842 -561V-788H545V-677C545 -613 532 -538 450 -479C464 -470 489 -444 498 -430C592 -496 613 -596 613 -676ZM547 -267C521 -188 484 -100 446 -38C461 -28 487 -6 498 4C536 -61 580 -162 611 -249ZM170 -397H338V-323C279 -317 223 -312 170 -307ZM338 -673V-592H170V-673ZM338 -453H170V-535H338ZM938 -304V-370H731V-480H660V-370H463V-336L419 -356C414 -350 410 -344 405 -339V-732H253C267 -760 282 -794 296 -826L218 -837C211 -807 198 -765 187 -732H104V-301L42 -296L50 -235C130 -243 230 -254 332 -266C246 -188 137 -119 35 -74C46 -60 64 -25 70 -12C159 -57 255 -117 338 -188V-15C338 -1 333 3 320 3C308 4 265 4 219 3C229 20 239 49 242 67C306 67 346 66 371 55C396 43 405 24 405 -15V-248C426 -269 445 -289 463 -311V-304H660V76H731V-304ZM782 -239C824 -166 871 -66 890 -2L950 -29C929 -91 882 -188 838 -263Z"/>
</svg>