<svg xmlns="http://www.w3.org/2000/svg" viewBox="0 -1000 1000 1000">
	<path fill="#000000" d="M815 -84C901 -84 929 -108 940 -253C918 -257 893 -266 872 -278C869 -170 857 -157 819 -157H523C482 -157 457 -166 457 -188C457 -218 482 -262 825 -498C831 -502 835 -506 838 -512L787 -540L770 -538H410V-471H665C393 -272 382 -222 382 -178C382 -120 426 -84 526 -84ZM929 -644V-712H496C513 -746 527 -782 540 -818L470 -835C431 -720 365 -607 288 -535C306 -524 335 -503 348 -491C388 -532 426 -586 460 -644ZM233 -664C220 -706 197 -771 179 -822L112 -802C127 -751 151 -683 162 -641ZM260 -376L248 -373H180C217 -441 260 -524 295 -595H47V-528H189C152 -451 108 -367 71 -308H217C198 -234 168 -153 134 -95C104 -74 69 -34 36 14L89 83C118 20 152 -43 175 -43C198 -43 234 -9 274 15C348 59 434 70 565 70C682 70 868 64 943 59C944 37 957 1 965 -20C854 -8 693 1 567 1C449 1 360 -6 291 -49C252 -72 228 -92 208 -102C246 -176 278 -273 300 -362Z"/>
</svg>