<svg xmlns="http://www.w3.org/2000/svg" viewBox="0 -1000 1000 1000">
	<path fill="#000000" d="M954 -237C908 -301 813 -391 725 -457C785 -501 858 -564 914 -620L852 -659C812 -612 745 -548 688 -502C663 -551 630 -597 588 -635C615 -659 642 -685 664 -712H939V-776H310V-712H575C501 -637 393 -574 287 -533C303 -520 327 -492 338 -478C405 -508 477 -550 541 -598C558 -580 575 -562 589 -542C524 -477 412 -410 323 -377C337 -365 357 -342 367 -327C448 -362 550 -427 619 -493C633 -467 644 -441 652 -414C572 -316 426 -226 293 -185C307 -171 327 -148 337 -131C454 -173 581 -252 669 -343C682 -260 669 -188 638 -158C620 -137 600 -136 574 -136C553 -136 525 -138 495 -141C506 -121 512 -93 512 -74C542 -72 568 -71 589 -71C632 -72 661 -79 691 -109C738 -152 756 -255 734 -367C802 -307 866 -240 901 -190ZM220 -670C208 -713 185 -779 167 -831L102 -811C118 -759 141 -691 153 -648ZM254 -373L241 -370H172C199 -439 230 -523 255 -595H50V-528H161C134 -449 103 -364 75 -305H206C190 -233 164 -155 134 -97C104 -77 69 -36 34 14L86 81C114 18 148 -45 170 -45C193 -45 230 -11 270 13C344 57 431 68 562 68C681 68 870 62 945 57C947 35 958 0 967 -19C856 -9 694 1 565 1C447 1 356 -6 286 -49C249 -71 225 -90 206 -101C240 -174 269 -271 288 -359Z"/>
</svg>