<svg xmlns="http://www.w3.org/2000/svg" viewBox="0 -1000 1000 1000">
	<path fill="#000000" d="M635 -701H790V-627H635ZM790 -497H635V-572H790ZM563 -497H341V-441H563V-294C462 -243 358 -192 289 -161L322 -103C392 -138 479 -184 563 -231V-129C563 -117 560 -113 548 -113C537 -113 501 -112 465 -114C474 -96 484 -71 488 -53C543 -53 580 -54 602 -65C627 -75 635 -91 635 -129V-283C718 -217 812 -141 863 -93L908 -144C871 -177 812 -223 752 -269C797 -302 849 -346 891 -386L833 -421C803 -387 751 -338 708 -303C682 -322 658 -340 635 -357V-441H861V-572H948V-627H861V-758H635V-835H563V-758H345V-701H563V-627H281V-572H563ZM490 -307C465 -337 416 -386 379 -420L330 -387C368 -351 416 -300 440 -270ZM220 -670C207 -713 185 -779 167 -831L101 -811C118 -759 141 -690 152 -647ZM253 -373L241 -370H172C198 -439 230 -523 254 -595H49V-528H160C134 -449 102 -364 75 -305H205C190 -233 164 -154 134 -97C103 -77 69 -36 34 14L85 81C114 18 147 -45 170 -45C193 -45 230 -11 270 13C343 57 431 68 562 68C681 68 870 62 945 57C947 35 957 0 967 -20C855 -9 694 1 565 1C446 1 356 -6 286 -49C248 -71 225 -90 205 -101C240 -174 269 -271 288 -359Z"/>
</svg>