<svg xmlns="http://www.w3.org/2000/svg" viewBox="0 -1000 1000 1000">
	<path fill="#000000" d="M220 -670C208 -713 185 -779 168 -831L102 -812C119 -760 141 -691 153 -647ZM783 -205C752 -230 693 -268 644 -297C657 -317 668 -340 675 -361L615 -370C596 -307 541 -242 469 -206C480 -198 497 -180 506 -170C549 -191 587 -222 617 -259C664 -229 716 -194 744 -170ZM858 -382C847 -195 836 -123 817 -105C808 -96 799 -94 784 -94C770 -94 740 -95 704 -97C733 -97 759 -98 772 -102C770 -115 767 -139 765 -155C747 -151 707 -150 682 -150H475C445 -150 439 -159 439 -187V-350H433C443 -360 452 -371 461 -382ZM458 -617H799V-543H458ZM458 -739H799V-666H458ZM373 -188C373 -121 395 -97 477 -97H679C689 -81 695 -58 696 -41C743 -38 789 -38 814 -40C841 -42 858 -49 876 -67C902 -95 915 -179 928 -410C929 -418 929 -438 929 -438H502C514 -456 526 -474 537 -492H870V-790H389V-492H457C409 -416 341 -345 273 -297C279 -318 284 -338 288 -359L254 -373L241 -370H172C199 -439 230 -523 254 -595H50V-528H161C134 -449 103 -364 75 -305H205C190 -233 164 -154 134 -97C104 -77 69 -36 34 14L86 81C114 18 148 -45 170 -45C193 -45 230 -11 270 13C344 57 431 68 562 68C681 68 870 62 945 57C947 35 957 0 967 -20C855 -9 694 1 565 1C447 1 356 -6 286 -49C249 -71 225 -90 205 -101C232 -157 255 -227 273 -295C286 -281 306 -249 313 -237C333 -251 353 -269 373 -287Z"/>
</svg>