<svg xmlns="http://www.w3.org/2000/svg" viewBox="0 -1000 1000 1000">
	<path fill="#000000" d="M639 -642H442V-709C507 -713 574 -718 639 -725ZM825 -372H555V-442H825ZM825 -255H555V-328H825ZM825 -140H555V-211H825ZM442 -583H639V-494H489V-88H893V-494H710V-583H929V-642H710V-732C788 -741 860 -753 921 -767L860 -817C751 -791 549 -771 375 -761H374V-490C374 -373 368 -218 302 -108C318 -99 346 -74 356 -61C430 -181 442 -361 442 -489ZM220 -670C207 -713 185 -779 167 -831L102 -811C118 -759 141 -691 153 -648ZM253 -373L241 -370H172C199 -439 230 -523 254 -595H50V-528H161C134 -449 103 -364 75 -305H205C190 -233 164 -154 134 -97C104 -77 69 -36 34 14L86 81C114 18 148 -45 170 -45C193 -45 230 -11 270 13C344 57 431 68 563 68C681 68 870 62 945 57C947 35 957 0 967 -20C856 -9 694 1 565 1C447 1 356 -6 286 -49C249 -71 225 -90 205 -101C240 -174 269 -271 288 -359Z"/>
</svg>