<svg xmlns="http://www.w3.org/2000/svg" viewBox="0 -1000 1000 1000">
	<path fill="#000000" d="M399 -635H564V-584L451 -574L457 -523L564 -533C566 -486 581 -464 641 -464H806C836 -464 868 -465 883 -469C880 -484 879 -498 877 -516C862 -511 822 -511 802 -511H656C631 -511 628 -518 628 -542V-547L809 -564L805 -606L628 -591V-635H859C848 -619 837 -604 827 -592L882 -573C905 -598 930 -637 952 -673L906 -689L894 -686H640V-735H890V-783H640V-837H571V-686H333V-488C333 -379 326 -227 261 -116C277 -109 306 -88 317 -76C387 -196 399 -367 399 -488ZM936 -134C894 -169 814 -220 742 -260C796 -281 860 -311 911 -340L867 -377C829 -352 766 -316 714 -292C699 -317 678 -343 653 -365C663 -371 672 -378 682 -384H929V-431H430V-384H603C548 -357 478 -334 416 -317C426 -309 442 -288 448 -277C499 -293 555 -315 607 -341C619 -331 630 -320 639 -309C580 -275 488 -243 418 -226C428 -217 443 -201 451 -189C514 -207 600 -242 662 -277C670 -263 676 -249 681 -235C611 -185 492 -141 392 -121C403 -111 417 -93 424 -81C510 -103 615 -145 690 -192C694 -152 683 -120 665 -108C654 -98 640 -97 623 -97C606 -97 583 -97 556 -100C566 -86 573 -61 574 -46C596 -44 616 -44 634 -44C665 -45 683 -49 707 -69C738 -91 754 -143 745 -203C805 -167 868 -121 902 -91ZM210 -668C198 -711 176 -777 160 -829L99 -811C114 -759 136 -691 147 -648ZM230 -373L218 -370H165C190 -439 218 -523 240 -595H50V-528H156C132 -449 103 -364 78 -305H187C173 -232 150 -152 123 -94C95 -74 64 -32 32 18L82 82C106 20 135 -43 155 -43C177 -43 214 -10 256 15C331 59 420 70 553 70C675 70 870 63 945 58C946 38 959 3 966 -16C853 -4 690 5 555 5C436 5 343 -2 271 -44C232 -68 209 -87 188 -98C221 -171 248 -272 262 -361Z"/>
</svg>