<svg xmlns="http://www.w3.org/2000/svg" viewBox="0 -1000 1000 1000">
	<path fill="#000000" d="M178 -264C158 -175 118 -100 64 -51C73 -38 86 -6 90 8C128 -27 162 -74 186 -129C214 -86 240 -39 254 -7L298 -41C282 -79 244 -139 210 -187C217 -207 222 -229 227 -251ZM502 -382C417 -353 257 -332 122 -321C129 -308 137 -285 140 -270C195 -274 253 -279 311 -287V74H377V-295C445 -306 508 -320 559 -337ZM491 -291C475 -198 441 -119 392 -68C401 -54 415 -23 419 -8C450 -41 477 -83 498 -132C517 -86 542 -43 572 -16C581 -30 599 -50 614 -60C574 -90 543 -150 525 -207C532 -231 537 -254 542 -279ZM278 -679H158V-741H278ZM158 -451V-515H278V-466ZM278 -566H158V-628H278ZM583 -748L572 -746H381V-798H43V-741H98V-444C77 -442 59 -440 41 -438L50 -379C117 -389 196 -400 278 -413V-355H339V-741H377V-687H548C536 -647 520 -611 500 -577C471 -604 438 -629 409 -651L367 -613C399 -587 434 -558 467 -527C433 -484 394 -451 353 -429C367 -418 383 -394 391 -379C435 -405 475 -439 511 -484C541 -453 567 -423 584 -398L629 -442C610 -469 580 -502 546 -535C580 -591 607 -658 622 -737ZM908 -787L897 -783H646V75H714V-716H867C842 -639 804 -533 767 -448C854 -357 878 -284 878 -222C879 -187 872 -155 853 -143C842 -136 828 -133 813 -132C793 -131 765 -131 735 -135C748 -114 755 -85 756 -66C784 -64 816 -64 841 -67C863 -69 885 -76 901 -88C932 -109 946 -158 946 -215C946 -284 923 -362 836 -455C877 -549 923 -663 958 -754Z"/>
</svg>