<svg xmlns="http://www.w3.org/2000/svg" viewBox="0 -1000 1000 1000">
	<path fill="#000000" d="M735 -596V-494C735 -427 750 -404 815 -404H899C919 -404 940 -404 952 -409C949 -424 948 -450 946 -467C933 -463 911 -463 897 -463H817C803 -463 800 -469 800 -493V-601L873 -607C885 -590 897 -574 906 -561L962 -597C929 -640 865 -714 816 -767L764 -737C784 -715 807 -688 828 -662L588 -646C639 -694 691 -755 736 -819L666 -842C620 -767 549 -691 528 -672C508 -652 491 -639 474 -636C482 -618 493 -583 497 -568C511 -573 528 -577 597 -584C586 -502 556 -448 462 -418C475 -406 494 -382 501 -366C614 -409 651 -481 663 -590ZM166 -158H350V-217H166ZM391 -369C389 -368 385 -368 376 -368H339C327 -368 326 -369 326 -382V-538H391ZM126 -58V-298C136 -291 146 -280 152 -273C214 -328 228 -403 228 -463V-538H284V-381C284 -334 296 -324 335 -324H384H391V-58ZM187 -538V-463C187 -414 178 -354 126 -306V-538ZM227 -730H286V-602H227ZM340 -730H461V-794H50V-730H174V-602H68V74H126V3H391V60H450V-602H340ZM819 -264C793 -206 755 -156 709 -115C673 -146 644 -179 620 -213C632 -230 644 -246 656 -264ZM865 -327L852 -324H688C701 -349 711 -374 719 -401L654 -414C638 -363 614 -316 583 -274C573 -294 565 -314 558 -334L505 -302C515 -276 527 -248 542 -222C520 -199 496 -179 471 -161C485 -149 511 -125 520 -112C540 -128 559 -146 577 -164C600 -133 626 -102 656 -74C596 -32 526 -2 455 17C469 31 485 57 493 75C571 51 645 17 709 -30C768 14 837 50 921 75C930 56 950 27 964 13C885 -6 818 -37 763 -74C827 -134 879 -211 910 -308Z"/>
</svg>