<svg xmlns="http://www.w3.org/2000/svg" viewBox="0 -1000 1000 1000">
	<path fill="#000000" d="M775 -397C793 -423 815 -460 837 -496L794 -513C781 -485 758 -440 740 -412ZM556 -497C574 -467 594 -426 601 -401L642 -418C633 -443 613 -481 596 -510ZM529 -524H672V-385H529ZM867 -385H721V-524H867ZM955 -170H728V-231H911V-282H728V-335H923V-575H729V-632H954V-687H729V-755C801 -762 869 -772 925 -785L874 -833C778 -812 607 -794 461 -785C468 -771 476 -749 479 -735C539 -738 601 -742 664 -748V-687H447V-632H664V-575H475V-335H665V-282H489V-231H665V-170H445V-114H955ZM157 -162H332V-218H157ZM360 -369C358 -368 355 -368 349 -368H322C312 -368 311 -369 311 -382V-544H360ZM130 -59V-289C139 -282 151 -272 156 -265C211 -320 223 -399 223 -459V-544H268V-382C268 -333 280 -324 318 -324H357H360V-59ZM180 -544V-459C180 -410 173 -350 130 -302V-544ZM223 -731H268V-607H223ZM320 -731H437V-792H53V-731H171V-607H76V74H130V2H360V60H416V-607H320ZM480 77C514 37 538 -27 555 -78L504 -99C489 -51 461 13 429 50ZM595 -78C608 -31 618 28 621 66L674 54C672 19 659 -40 646 -86ZM703 -76C726 -29 749 31 758 69L811 50C802 13 777 -47 753 -92ZM817 -79C852 -31 893 33 910 74L963 43C945 4 903 -59 867 -104Z"/>
</svg>