<svg xmlns="http://www.w3.org/2000/svg" viewBox="0 -1000 1000 1000">
	<path fill="#000000" d="M422 -100L273 -69V-346H404V-411H273V-520H365V-584H133C170 -624 206 -671 238 -720C289 -678 343 -626 376 -586L418 -637C383 -677 325 -729 268 -772C277 -788 285 -804 292 -819L230 -841C186 -745 111 -653 35 -592C46 -575 65 -539 70 -524C85 -537 99 -551 114 -564V-520H208V-411H61V-346H208V-56C148 -43 92 -32 49 -24L67 41C166 19 300 -12 427 -42ZM79 -280C97 -221 114 -145 117 -95L170 -109C165 -157 148 -234 129 -292ZM340 -108C357 -154 376 -227 394 -289L338 -305C330 -251 311 -171 295 -122ZM548 -498H800V-340H548ZM808 10C799 10 792 8 786 5C780 2 779 -10 779 -29V-275H870V-564C880 -548 887 -533 894 -520L952 -557C914 -632 826 -746 749 -831L695 -798C757 -728 827 -636 870 -564H494C550 -632 598 -719 630 -809L561 -827C526 -724 465 -628 393 -565C409 -553 435 -526 446 -513C458 -524 469 -536 481 -549V-275H558C547 -133 515 -35 371 19C386 33 407 60 416 78C576 12 614 -106 627 -275H710V-36C710 23 717 39 733 51C748 63 774 68 795 68H854C872 68 896 66 910 59C925 53 936 41 942 23C949 5 952 -45 953 -89C934 -95 910 -107 896 -119C895 -72 894 -36 892 -19C889 -5 884 3 877 6C871 9 860 10 850 10Z"/>
</svg>