<svg xmlns="http://www.w3.org/2000/svg" viewBox="0 -1000 1000 1000">
	<path fill="#000000" d="M262 -70V-345H385V-411H262V-519H349V-584H125C166 -625 206 -673 240 -723C290 -682 345 -633 377 -597L422 -648C386 -685 330 -734 274 -776C282 -789 288 -800 294 -813L232 -835C187 -744 110 -657 33 -601C43 -584 62 -549 67 -533C82 -545 97 -558 112 -572V-519H197V-411H60V-345H197V-57C142 -45 91 -34 51 -27L71 44C163 22 285 -8 401 -38L394 -100ZM76 -280C94 -220 113 -144 117 -94L171 -107C165 -157 147 -234 126 -293ZM329 -109C348 -156 370 -230 388 -291L332 -307C323 -253 301 -173 285 -125ZM890 -339C863 -305 823 -262 787 -227C769 -272 755 -320 746 -371H949V-435H721V-523H903V-584H721V-663H927V-725H721V-835H648V-725H436V-663H648V-584H457V-523H648V-435H416V-371H607C550 -298 465 -237 378 -197C393 -184 417 -154 424 -140C464 -160 502 -186 539 -214V-68C539 -21 505 12 486 25C499 36 517 61 524 75C539 61 567 47 744 -40C741 -55 737 -84 736 -103L605 -45V-271C634 -300 662 -331 685 -364C721 -177 792 -27 914 50C924 32 946 6 962 -7C898 -42 849 -99 813 -171C853 -204 900 -249 939 -289Z"/>
</svg>