<svg xmlns="http://www.w3.org/2000/svg" viewBox="0 -1000 1000 1000">
	<path fill="#000000" d="M653 -560H451V-501H653V-415H409V-352H955V-415H723V-501H921V-560H723V-641H946V-702H797C818 -735 841 -776 861 -815L792 -837C778 -798 752 -741 731 -702H588L628 -720C619 -752 593 -801 566 -835L509 -813C530 -780 554 -735 565 -702H428V-641H653ZM389 -89L258 -64V-346H382V-411H258V-519H350V-584H120C160 -627 199 -678 232 -731C283 -682 341 -625 372 -589L414 -639C381 -676 316 -735 262 -783C268 -794 274 -804 278 -815L221 -836C177 -744 104 -656 32 -598C42 -581 57 -543 61 -528C77 -542 93 -556 109 -573V-519H193V-411H52V-346H193V-51C137 -40 84 -30 43 -24L61 44C153 23 276 -3 393 -29ZM58 -278C73 -220 88 -143 94 -93L147 -107C141 -157 124 -232 109 -290ZM338 -107C354 -154 371 -227 388 -288L331 -304C323 -251 307 -170 292 -121ZM948 -190V-253H712C716 -279 718 -307 720 -336H650C648 -307 646 -278 642 -253H417V-190H629C603 -88 542 -22 393 19C408 31 426 59 434 77C605 26 673 -60 701 -190ZM703 -123C781 -64 875 24 919 80L965 31C920 -23 824 -107 746 -166Z"/>
</svg>