<svg xmlns="http://www.w3.org/2000/svg" viewBox="0 -1000 1000 1000">
	<path fill="#000000" d="M878 -834C772 -805 581 -784 422 -774C430 -758 438 -733 441 -716C603 -724 800 -745 927 -778ZM722 -594C714 -627 693 -683 675 -723L616 -705C633 -663 651 -606 659 -571ZM566 -592C556 -623 532 -672 509 -708L451 -686C473 -648 496 -597 505 -566ZM400 -98L267 -69V-346H393V-411H267V-519H366V-584H136C172 -624 206 -670 236 -719C294 -677 353 -625 390 -586L424 -646C387 -684 328 -733 269 -774C276 -788 283 -803 290 -816L234 -842C188 -745 112 -653 39 -594C48 -576 65 -536 70 -519C87 -533 102 -550 119 -566V-519H206V-411H61V-346H206V-57C145 -44 90 -33 46 -25L62 42C155 21 283 -9 404 -38ZM76 -280C93 -221 108 -145 112 -95L163 -109C158 -158 142 -235 124 -293ZM337 -106C355 -152 374 -226 392 -287L338 -304C328 -250 310 -171 294 -122ZM807 -221C784 -177 756 -139 720 -105C682 -139 650 -178 626 -221ZM854 -283L841 -280H606C611 -302 616 -326 620 -350H951V-412H629C632 -438 635 -467 638 -495H931V-558H821C851 -603 882 -663 909 -714L843 -735C822 -683 786 -608 756 -558H448V-495H572C570 -467 567 -438 564 -412H425V-350H555C529 -185 475 -57 370 29C387 38 417 57 429 67C499 2 547 -80 580 -181C605 -138 635 -98 671 -64C617 -24 554 6 488 27C504 38 526 63 536 78C603 54 665 22 721 -21C779 22 847 55 922 76C933 57 953 31 968 16C895 -1 828 -29 772 -66C824 -119 867 -184 896 -262Z"/>
</svg>