<svg xmlns="http://www.w3.org/2000/svg" viewBox="0 -1000 1000 1000">
	<path fill="#000000" d="M711 -662H622V-729H711ZM865 -605V-486H768V-605ZM622 -605H711V-486H622ZM476 -605H565V-486H476ZM565 -662H413V-429H930V-662H768V-729H948V-790H390V-729H565ZM884 -317V-376H457V-317ZM363 -91L245 -66V-346H373V-411H245V-519H347V-584H111C150 -626 186 -676 218 -729C268 -680 324 -624 354 -588L394 -638C362 -675 299 -734 246 -782C252 -792 258 -804 263 -816L204 -835C165 -746 97 -659 29 -602C39 -586 56 -548 60 -533C74 -545 86 -558 100 -572V-519H184V-411H50V-346H184V-54C130 -42 82 -32 44 -26L62 41C148 21 261 -6 368 -31ZM63 -280C77 -221 93 -145 99 -95L149 -108C143 -158 126 -233 111 -291ZM311 -108C327 -155 343 -228 360 -289L307 -304C299 -251 282 -170 269 -121ZM496 -150C465 -90 413 -30 359 12C376 21 403 40 416 50C467 5 525 -64 561 -131ZM953 -187V-248H394V-187H633V76H701V-187ZM770 -123C820 -72 876 -2 902 45L959 10C932 -36 876 -103 824 -154Z"/>
</svg>