<svg xmlns="http://www.w3.org/2000/svg" viewBox="0 -1000 1000 1000">
	<path fill="#000000" d="M460 -685H945V-744H730C719 -772 703 -810 688 -839L625 -824C637 -800 649 -770 659 -744H399V-319C399 -234 396 -136 373 -50L370 -98L251 -70V-346H372V-411H251V-519H344V-584H123C158 -624 190 -671 220 -721C274 -677 329 -625 365 -584L396 -646C361 -684 305 -734 249 -775C256 -789 262 -803 268 -816L217 -842C175 -744 102 -653 33 -594C41 -576 57 -536 61 -519C77 -533 91 -549 107 -565V-519H193V-411H58V-346H193V-57C138 -44 87 -33 48 -25L63 42C146 21 260 -8 369 -36C360 -7 348 21 332 45C348 52 374 70 385 82C451 -26 460 -192 460 -320ZM75 -280C90 -221 104 -145 108 -95L157 -110C153 -159 137 -236 122 -294ZM314 -104C329 -150 348 -223 366 -285L312 -305C304 -251 285 -171 271 -122ZM652 -224V-285H725V-224ZM652 -405H725V-337H652ZM652 -518H725V-455H652ZM851 -405V-337H783V-405ZM851 -224H783V-285H851ZM907 -173V-285H955V-337H907V-455H783V-518H942V-573H803C821 -599 840 -629 858 -658L801 -676C786 -647 762 -605 740 -573H656C639 -603 615 -645 594 -677L542 -660C559 -634 577 -601 592 -573H480V-518H594V-455H501V-405H594V-337H470V-285H594V-224H501V-173H580C542 -111 482 -46 432 -11C446 -2 464 18 474 32C512 0 558 -51 594 -106V80H652V-173H725V80H783V-110C822 -53 874 1 921 33C931 17 949 -3 962 -15C905 -46 838 -111 798 -173Z"/>
</svg>