<svg xmlns="http://www.w3.org/2000/svg" viewBox="0 -1000 1000 1000">
	<path fill="#000000" d="M951 -708V-763H632C641 -783 649 -802 656 -823L594 -837C570 -761 527 -687 473 -637C489 -628 514 -609 526 -599C555 -628 581 -666 605 -708ZM896 -609V-660H589V-609ZM330 -276C390 -300 447 -326 497 -356C553 -323 612 -298 673 -276ZM597 -513H658V-433H597ZM704 -513H768V-433H704ZM814 -513H879V-433H814ZM154 -509H281V-440H154ZM281 -740V-678H154V-740ZM405 -559H154V-626H405ZM704 -226V-265C777 -242 853 -224 928 -208C936 -228 953 -251 967 -267C821 -291 671 -321 550 -385H936V-561H541V-421L510 -439C500 -431 490 -424 480 -416V-440H344V-509H469V-678H344V-740H480V-793H88V-387H431C321 -329 173 -285 34 -260C49 -245 64 -219 72 -201C149 -217 228 -239 302 -265V-226H464V-165H162V-113H464V2H372C362 -29 339 -74 315 -106L255 -89C273 -62 291 -27 303 2H82V51H918V2H695C711 -25 730 -56 748 -89L686 -105C673 -74 649 -30 628 2H536V-113H842V-165H536V-226Z"/>
</svg>