<svg xmlns="http://www.w3.org/2000/svg" viewBox="0 -1000 1000 1000">
	<path fill="#000000" d="M927 -719H710C700 -755 682 -803 664 -842L594 -829C609 -795 624 -753 632 -719H396V-653H927ZM576 -472C570 -518 548 -591 524 -643L459 -630C481 -575 501 -503 506 -457ZM324 -798L312 -795H81V77H149V-727H284C263 -660 233 -573 205 -502C276 -423 294 -355 294 -300C294 -270 289 -243 273 -232C265 -226 255 -224 242 -223C226 -222 207 -223 184 -224C196 -205 203 -176 204 -157C225 -155 251 -156 270 -158C291 -161 309 -167 323 -177C351 -197 363 -241 363 -295C363 -355 346 -428 273 -510C307 -589 344 -687 373 -768ZM813 -232V-40H503V-232ZM431 78H503V28H813V74H886V-298H431ZM797 -450C824 -501 852 -570 875 -627L799 -646C783 -588 752 -506 725 -450H370V-384H954V-450Z"/>
</svg>