<svg xmlns="http://www.w3.org/2000/svg" viewBox="0 -1000 1000 1000">
	<path fill="#000000" d="M612 -580H352V-517H511C497 -443 460 -393 357 -363C371 -351 389 -326 397 -311C516 -351 560 -418 578 -517H705V-449C705 -383 720 -358 786 -358H886C906 -358 930 -359 943 -363C941 -379 938 -405 937 -422C923 -419 898 -418 884 -418H791C774 -418 771 -425 771 -448V-517H953V-580H684V-679H894V-741H684V-837H612V-741H415V-679H612ZM317 -800L305 -796H81V74H147V-729H277C257 -662 227 -576 198 -504C270 -425 288 -356 288 -303C288 -271 282 -244 267 -233C259 -227 248 -224 236 -224C220 -222 201 -223 178 -225C190 -206 196 -178 197 -159C219 -158 244 -158 264 -160C284 -163 302 -169 316 -179C343 -199 355 -242 355 -296C355 -357 338 -430 265 -512C299 -592 335 -689 365 -770ZM769 -237C742 -189 699 -144 643 -106C594 -136 554 -171 523 -208C531 -217 539 -227 547 -237ZM819 -302L806 -299H589C603 -324 617 -350 628 -379L560 -394C542 -346 515 -303 482 -264C472 -278 463 -295 457 -311L406 -278C416 -258 426 -237 439 -217C411 -191 378 -167 345 -148C360 -135 386 -110 396 -96C425 -115 454 -138 480 -163C508 -130 542 -99 581 -69C506 -31 413 0 302 20C317 35 335 61 343 80C464 55 565 19 646 -28C723 16 816 51 927 72C936 53 953 25 968 10C867 -6 780 -33 709 -69C786 -127 839 -198 868 -279Z"/>
</svg>