<svg xmlns="http://www.w3.org/2000/svg" viewBox="0 -1000 1000 1000">
	<path fill="#000000" d="M838 -683C827 -721 797 -780 769 -824L705 -801C731 -755 760 -695 771 -656ZM493 -727H333L342 -730C331 -759 307 -802 286 -837L219 -816C234 -790 251 -755 263 -727H58V-660H493ZM262 -470C247 -492 218 -521 190 -546C199 -574 207 -603 214 -634L152 -645C132 -548 95 -458 39 -398C54 -389 79 -366 88 -355C121 -391 148 -438 170 -491C191 -468 211 -446 223 -428ZM147 -179C128 -118 97 -56 57 -12C73 -5 100 11 113 21C152 -26 188 -97 210 -166ZM356 -163C388 -110 424 -38 439 8L498 -17C482 -62 445 -131 412 -183ZM321 -375H287C314 -405 338 -442 357 -483C388 -447 419 -407 435 -379L481 -416C460 -449 418 -499 381 -537C391 -566 400 -597 408 -629L345 -640C326 -551 288 -467 233 -412C246 -403 266 -387 278 -375H251V-305H53V-239H251V73H321V-239H499V-305H321ZM612 -181H743V-43H612ZM743 -446H612V-579H743ZM743 -246H612V-382H743ZM953 -43H810V-181H938V-246H810V-382H937V-446H810V-579H948V-647H622C644 -702 664 -760 679 -818L611 -833C576 -699 518 -563 449 -475C465 -465 493 -441 505 -428C519 -447 531 -467 544 -488V75H612V25H953Z"/>
</svg>