<svg xmlns="http://www.w3.org/2000/svg" viewBox="0 -1000 1000 1000">
	<path fill="#000000" d="M837 -683C826 -721 796 -780 768 -824L705 -800C731 -755 760 -696 771 -657ZM612 -181H743V-43H612ZM743 -446H612V-579H743ZM743 -246H612V-382H743ZM402 -429H302V-518H402ZM139 -518H240V-429H139ZM205 -714H344V-662H205ZM953 -43H810V-181H938V-246H810V-382H937V-446H810V-579H948V-647H619C641 -703 662 -762 678 -820L611 -836C578 -714 527 -591 464 -502V-569H302V-613H413V-714H494V-771H413V-834H344V-771H205V-834H139V-771H51V-714H139V-613H240V-569H79V-379H238V-320H80V-264H238C238 -246 237 -224 233 -203H47V-145H218C195 -84 146 -21 43 25C58 38 80 60 90 75C181 30 235 -25 266 -82C326 -40 389 13 424 50L465 0C427 -38 352 -96 289 -137L291 -145H497V-203H303C306 -224 307 -245 307 -264H471V-320H307V-379H464V-465C478 -453 493 -440 501 -432C516 -451 530 -473 544 -496V75H612V25H953Z"/>
</svg>