<svg xmlns="http://www.w3.org/2000/svg" viewBox="0 -1000 1000 1000">
	<path fill="#000000" d="M147 -637H461V-418H534V-637H852V-513H922V-688H534V-743H863V-800H137V-743H461V-688H79V-513H147ZM829 -471C774 -491 671 -513 594 -523L575 -478C653 -466 756 -441 811 -421ZM777 -624C728 -610 645 -584 588 -575L614 -537C671 -545 752 -560 808 -581ZM193 -583C259 -571 345 -547 390 -528L410 -575C365 -593 280 -614 215 -624ZM189 -430C255 -443 330 -457 407 -474L405 -521C316 -507 231 -495 168 -487ZM557 -215V-142H273V-215ZM399 2C294 2 273 -7 273 -45V-92H627V-264H208C227 -283 243 -301 260 -320H787C779 -216 769 -174 758 -161C751 -154 744 -153 731 -153C718 -153 690 -153 658 -156C669 -138 675 -110 677 -88C712 -86 746 -86 764 -88C787 -90 803 -96 817 -113C839 -136 848 -197 859 -347C861 -356 862 -377 862 -377H304C316 -395 328 -411 338 -429L262 -442C223 -371 147 -285 44 -222C62 -212 86 -191 97 -175C137 -201 173 -231 204 -261V-45C204 42 249 61 404 61H783C910 61 938 32 951 -87C931 -90 903 -100 886 -110C877 -15 863 2 780 2Z"/>
</svg>