<svg xmlns="http://www.w3.org/2000/svg" viewBox="0 -1000 1000 1000">
	<path fill="#000000" d="M152 -648H460V-476H533V-648H849V-507H923V-697H533V-751H882V-801H119V-751H460V-697H79V-507H152ZM832 -499C778 -519 677 -540 600 -549L583 -508C662 -496 762 -473 817 -453ZM778 -645C731 -626 646 -597 589 -584L613 -550C671 -562 751 -582 807 -607ZM195 -470C260 -482 335 -496 414 -512L411 -550C324 -537 239 -524 176 -517ZM203 -608C265 -594 342 -569 384 -549L403 -588C361 -609 282 -631 223 -643ZM412 -383C390 -366 360 -351 328 -335C319 -353 306 -376 290 -396C333 -406 372 -418 404 -431L351 -470C284 -441 159 -414 50 -399C57 -386 66 -366 68 -353C123 -361 181 -371 237 -383C255 -361 270 -336 281 -313C209 -284 126 -256 50 -235C56 -223 65 -204 69 -192C135 -210 204 -231 270 -255C282 -245 292 -233 302 -221C238 -182 130 -141 48 -123C58 -112 70 -90 76 -77C157 -101 258 -144 327 -187C335 -172 342 -157 348 -143C275 -88 149 -32 48 -6C57 5 69 27 75 41C169 10 281 -42 360 -96C367 -48 355 -7 333 7C320 18 304 20 284 20C268 20 243 19 214 16C225 33 230 59 231 76C254 77 280 77 297 77C333 77 354 71 380 49C448 1 446 -164 325 -277C377 -299 425 -322 463 -347ZM108 -327C125 -309 140 -283 145 -264L192 -287C185 -305 170 -330 150 -347ZM533 -214V-277H658V-221H653V-214ZM533 -384H658V-323H533ZM848 -323H718V-384H848ZM848 -214H723V-221H718V-277H848ZM723 4V-62H907V-113H723V-166H912V-432H471V-166H653V-113H482V-62H653V4H434V58H951V4Z"/>
</svg>