<svg xmlns="http://www.w3.org/2000/svg" viewBox="0 -1000 1000 1000">
	<path fill="#000000" d="M152 -643H461V-478H534V-643H849V-528H923V-692H534V-747H882V-797H119V-747H461V-692H79V-528H152ZM412 -540C322 -527 238 -515 175 -507L193 -461C259 -472 335 -487 413 -502ZM172 -405H279V-329H172ZM117 -288H337V-446H117ZM204 -601C265 -587 343 -563 385 -542L403 -581C361 -601 283 -623 224 -636ZM552 -329H440V-405H552ZM609 -446H385V-287H609ZM828 -498C773 -517 674 -537 596 -546L581 -509C660 -497 760 -473 814 -454ZM777 -640C730 -621 645 -592 589 -578L613 -546C670 -558 751 -578 807 -603ZM829 -329H714V-405H829ZM886 -446H659V-287H886ZM531 -10V-199H885V-250H114V-199H460V-10H54V43H945V-10ZM280 -191C254 -130 195 -83 128 -53C141 -43 160 -22 168 -11C208 -32 246 -59 278 -92C321 -69 368 -38 394 -16L424 -57C398 -79 351 -108 308 -129C319 -145 329 -162 337 -179ZM682 -192C663 -129 614 -83 551 -54C562 -44 582 -22 590 -11C630 -32 665 -59 693 -93C744 -70 800 -37 832 -14L859 -58C829 -81 770 -112 719 -133C728 -149 735 -166 740 -183Z"/>
</svg>