<svg xmlns="http://www.w3.org/2000/svg" viewBox="0 -1000 1000 1000">
	<path fill="#000000" d="M438 -296H218V-246H438V-201V-189H237V-141H434C431 -123 427 -106 421 -87C331 -80 245 -75 181 -71L194 -18C254 -23 324 -29 398 -37C379 -5 351 27 310 52C327 60 356 74 369 84C484 7 504 -110 504 -201V-350H438ZM351 -674V-623H219V-572H351V-350H410V-572H541V-623H410V-674ZM301 -543H254V-500C254 -459 247 -404 201 -371C213 -364 233 -348 241 -338C293 -382 301 -443 301 -498ZM518 -423C509 -423 508 -428 508 -445V-541H461V-446C461 -405 469 -388 505 -388H524C535 -388 548 -389 555 -390C554 -402 554 -415 553 -426C544 -424 529 -423 523 -423ZM649 -544H603V-501C603 -460 595 -406 545 -375C558 -368 577 -354 585 -343C640 -386 649 -446 649 -498ZM700 -675V-623H570V-573H700V-352H759V-573H914V-623H759V-675ZM803 -544V-422C803 -380 810 -362 852 -362H896C910 -362 926 -362 933 -365C932 -377 931 -390 931 -402C922 -399 904 -398 894 -398H863C851 -398 850 -404 850 -421V-544ZM681 -138H901V-189H681V-245H922V-296H681V-351H612V76H681V-26H946V-79H681ZM581 -758C571 -783 557 -815 545 -840L473 -821C481 -801 491 -779 499 -758H108V-460C108 -316 102 -111 38 34C54 42 84 64 96 77C165 -77 176 -307 176 -460V-696H948V-758Z"/>
</svg>