<svg xmlns="http://www.w3.org/2000/svg" viewBox="0 -1000 1000 1000">
	<path fill="#000000" d="M133 -426H214V-297H133ZM358 -297H272V-426H358ZM183 -681H306V-605H183ZM277 -240H418V-483H277V-548H372V-681H445V-743H372V-835H306V-743H183V-835H119V-743H49V-681H119V-548H209V-483H74V-240H210V-168H44V-105H210V78H277V-105H451V-168H277ZM540 -252C524 -186 486 -104 453 -63C463 -46 476 -20 482 -2C527 -53 565 -154 585 -237ZM821 -282V-345H673V-570H609V-345H459V-282H609V48H673V-282ZM489 -511C510 -466 528 -407 533 -368L581 -384C575 -421 557 -480 535 -524ZM742 -536C731 -493 710 -426 693 -385L738 -368C756 -407 777 -466 796 -517ZM809 -66C800 -113 770 -191 741 -250L694 -235C722 -175 750 -95 759 -48ZM932 -693H570C587 -735 601 -778 612 -823L548 -837C518 -718 468 -604 402 -529C418 -519 444 -497 455 -486C487 -524 516 -572 542 -626H864C860 -190 853 -41 833 -10C825 4 817 7 803 6C787 6 752 6 712 3C723 22 729 51 731 71C769 74 807 74 833 70C860 67 878 58 895 32C922 -12 926 -164 932 -655Z"/>
</svg>