<svg xmlns="http://www.w3.org/2000/svg" viewBox="0 -1000 1000 1000">
	<path fill="#000000" d="M687 -425C687 -415 683 -413 672 -412C661 -411 622 -411 579 -413C587 -396 596 -375 599 -358C659 -358 697 -358 721 -367C746 -376 753 -391 753 -423V-561H866C846 -522 824 -482 805 -454L864 -435C894 -478 930 -546 962 -607L912 -623L900 -620H792C779 -629 764 -639 747 -650C804 -682 864 -727 907 -772L863 -804L848 -801H492V-743H785C758 -719 725 -696 694 -678C663 -695 632 -710 603 -721L561 -683C600 -666 645 -644 684 -620H462V-561H626C574 -500 499 -442 432 -413C446 -401 466 -379 475 -364C548 -405 634 -483 687 -560ZM126 -421H214V-299H126ZM349 -299H266V-421H349ZM171 -682H312V-605H171ZM433 -96V-160H272V-241H405V-479H271V-545H371V-682H442V-745H371V-835H312V-745H171V-835H115V-745H49V-682H115V-545H208V-479H70V-241H208V-160H44V-96H208V77H272V-96ZM572 -184C538 -108 471 -28 405 10C420 22 441 45 451 61C519 14 589 -78 625 -166ZM945 -211V-274H722V-340H653V-274H449V-211H653V76H722V-211ZM745 -153C804 -86 874 9 905 66L958 33C926 -24 854 -115 794 -182Z"/>
</svg>