<svg xmlns="http://www.w3.org/2000/svg" viewBox="0 -1000 1000 1000">
	<path fill="#000000" d="M843 -478H508V-574H843ZM843 -326H508V-424H843ZM843 -174H508V-272H843ZM438 -632V-116H916V-632H680C690 -660 700 -692 710 -723H951V-788H392V-723H625C620 -694 612 -661 605 -632ZM293 -819C234 -749 129 -672 42 -628C62 -615 84 -592 97 -575C187 -627 293 -708 363 -790ZM311 -541C253 -463 146 -383 55 -337C75 -322 96 -298 110 -280C205 -335 312 -423 379 -512ZM332 -263C272 -158 155 -60 39 -5C59 11 81 36 92 54C215 -11 332 -117 402 -236ZM550 -94C501 -51 399 -2 314 24C328 39 351 62 361 77C448 48 550 -3 614 -53ZM718 -50C785 -14 873 41 916 78L974 33C928 -5 840 -58 773 -91Z"/>
</svg>