<svg xmlns="http://www.w3.org/2000/svg" viewBox="0 -1000 1000 1000">
	<path fill="#000000" d="M861 -478H638V-573H861ZM861 -325H638V-422H861ZM861 -172H638V-269H861ZM577 -632V-113H924V-632H757C764 -660 771 -694 778 -725H943V-789H550V-725H705C703 -695 698 -661 693 -632ZM95 76C126 30 151 -43 167 -99L112 -122C98 -68 70 5 39 47ZM205 -102C215 -50 223 17 224 61L283 52C281 8 271 -58 260 -110ZM155 -620H444V-548H155ZM155 -740H444V-668H155ZM209 -273C216 -257 224 -239 229 -220L141 -212C191 -265 242 -333 286 -403L229 -426C220 -406 208 -388 196 -369L130 -364C154 -398 179 -441 198 -484L150 -498H386C370 -448 335 -398 325 -385C316 -372 306 -363 295 -361C303 -346 312 -317 315 -304C324 -310 342 -313 407 -320C381 -286 357 -258 346 -247C327 -227 311 -212 295 -209C302 -195 312 -165 314 -152V-151C328 -158 355 -163 511 -180C518 -163 523 -148 527 -134L575 -155C563 -193 537 -250 512 -295L467 -276C475 -261 482 -246 490 -229L390 -219C441 -272 492 -339 537 -406L478 -430C469 -411 457 -392 445 -374L377 -368C402 -401 427 -441 446 -481L393 -498H511V-790H91V-498H139C123 -446 90 -394 80 -382C70 -368 62 -359 51 -357C58 -342 66 -314 70 -301C80 -306 96 -310 161 -317C134 -281 110 -252 99 -242C80 -220 64 -206 48 -203C56 -188 65 -159 67 -146C81 -153 106 -157 244 -173C248 -160 250 -148 252 -138L298 -153C290 -190 272 -245 251 -287ZM308 -109C326 -62 345 -1 352 39L406 23C400 -16 379 -77 360 -123ZM420 -130C446 -89 474 -33 486 3L539 -19C526 -54 497 -108 470 -149ZM664 -88C630 -47 562 4 502 33C517 46 538 66 549 79C608 49 679 -3 723 -52ZM785 -51C830 -12 886 43 913 79L966 41C939 4 882 -48 837 -86Z"/>
</svg>