<svg xmlns="http://www.w3.org/2000/svg" viewBox="0 -1000 1000 1000">
	<path fill="#000000" d="M321 -479V-400H167V-479ZM167 -258V-344H321V-258ZM267 -160C280 -136 294 -111 307 -84L167 -30V-201H387V-536H101V-44C101 -8 80 6 65 12C76 27 87 59 91 75C109 62 136 47 332 -33C347 -3 359 24 367 46L423 18C402 -31 356 -118 319 -181ZM171 -650V-596H340V-650ZM242 -844C197 -760 114 -681 36 -631C47 -617 64 -581 69 -567C133 -609 197 -671 248 -739C300 -705 360 -664 391 -637L425 -694C393 -719 333 -758 283 -789C290 -800 297 -811 303 -823ZM836 -173V-33H560V-173ZM794 -509V-382H560V-509ZM560 -320H858V-570H494V75H560V31H836V70H902V-237H560ZM709 -721L738 -736C727 -764 706 -808 687 -842L624 -815C638 -787 655 -750 667 -721H430V-559H491V-660H878V-559H941V-721Z"/>
</svg>