<svg xmlns="http://www.w3.org/2000/svg" viewBox="0 -1000 1000 1000">
	<path fill="#000000" d="M88 15C109 -45 123 -143 131 -212L85 -226C77 -157 60 -62 40 -4ZM159 -209C168 -152 172 -79 169 -31L211 -36C213 -84 208 -157 198 -213ZM229 -220C245 -170 259 -105 262 -63L303 -72C299 -114 284 -178 266 -227ZM385 -128C376 -161 356 -212 333 -248L298 -236C319 -198 339 -147 347 -114ZM157 -436H265V-338H157ZM265 -733V-645H157V-733ZM265 -495H157V-585H265ZM329 -338V-436H446V-495H329V-585H446V-645H329V-733H467V-796H92V-277H407C398 -86 389 -14 374 4C366 14 358 15 344 15C330 15 296 15 257 11C267 29 274 55 275 74C314 76 351 77 373 74C398 72 414 65 429 46C453 17 463 -68 473 -307C474 -316 474 -338 474 -338ZM943 -495V-565H734C739 -653 739 -744 740 -834H667C667 -744 667 -653 663 -565H479V-495H658C643 -282 595 -91 456 25C475 36 500 60 512 76C630 -27 686 -177 714 -350C747 -161 805 -11 914 78C926 59 951 30 968 16C842 -77 785 -266 759 -495Z"/>
</svg>