<svg xmlns="http://www.w3.org/2000/svg" viewBox="0 -1000 1000 1000">
	<path fill="#000000" d="M942 -521C903 -556 850 -597 789 -637C834 -683 874 -734 905 -789L834 -812C806 -763 770 -717 729 -676C672 -712 612 -745 557 -771L510 -721C564 -695 621 -663 675 -628C616 -580 549 -540 479 -510C496 -496 522 -468 534 -454C605 -489 674 -534 737 -588C800 -545 855 -501 895 -463ZM105 18C124 -43 138 -141 146 -207L101 -222C94 -156 77 -58 59 -1ZM174 -208C185 -149 190 -74 188 -24L229 -30C230 -79 225 -154 213 -212ZM171 -430H277V-336H171ZM277 -734V-644H171V-734ZM277 -489H171V-584H277ZM339 -336V-430H454V-489H339V-584H454V-644H339V-734H475V-795H109V-275H415C412 -210 408 -159 404 -120C394 -154 371 -206 347 -245L311 -233C335 -192 358 -138 368 -102L404 -117C396 -43 387 -9 377 3C370 13 362 15 348 15C334 15 301 15 264 11C273 28 280 53 281 71C317 73 355 73 376 71C399 70 416 63 431 44C456 16 468 -68 480 -305C481 -315 482 -336 482 -336ZM323 -65C318 -108 303 -173 282 -224L245 -216C262 -165 279 -99 283 -56ZM819 -443C796 -356 764 -279 721 -212C676 -280 641 -357 616 -439L551 -422C582 -322 624 -231 677 -153C619 -85 547 -31 460 9C474 24 498 55 507 71C591 28 662 -27 721 -94C777 -27 843 28 919 65C931 45 953 18 970 4C891 -30 824 -84 767 -152C821 -229 863 -321 891 -429Z"/>
</svg>