<svg xmlns="http://www.w3.org/2000/svg" viewBox="0 -1000 1000 1000">
	<path fill="#000000" d="M840 -604H632V-727H840ZM913 -786H563V-545H913ZM434 -706C427 -636 420 -606 412 -596C405 -589 397 -588 385 -588C372 -588 340 -589 306 -592C315 -576 321 -552 323 -535C360 -533 397 -533 415 -534C438 -536 454 -541 467 -555C486 -575 496 -623 504 -737C506 -747 506 -765 506 -765H300C304 -788 307 -811 309 -836H239C237 -811 234 -788 229 -765H71V-706H214C189 -631 141 -574 43 -539C58 -527 75 -503 83 -488C202 -534 258 -608 286 -706ZM110 76C151 31 194 -32 227 -78L167 -111C138 -66 92 -1 48 39ZM293 -81C307 -36 320 23 322 61L389 49C385 11 371 -48 355 -92ZM457 -80C481 -41 506 13 516 49L577 28C566 -6 539 -58 514 -98ZM502 -444V-386H256V-444ZM502 -284H256V-340H502ZM502 -180H256V-238H502ZM574 -180V-238H814V-284H574V-340H812V-386H574V-444H852V-496H183V-127H231V-126H843C833 -37 822 2 809 14C802 22 794 23 779 23C766 23 730 22 690 18C700 35 706 59 707 77C750 80 791 80 812 78C836 77 852 71 866 56C889 34 902 -21 915 -152C917 -161 918 -180 918 -180ZM744 -18C730 -46 698 -84 668 -112L617 -89C645 -59 677 -19 690 9Z"/>
</svg>