<svg xmlns="http://www.w3.org/2000/svg" viewBox="0 -1000 1000 1000">
	<path fill="#000000" d="M368 -314V-371H536V-314ZM368 -470H536V-414H368ZM772 -414H599V-470H772ZM772 -314H599V-371H772ZM893 -220H599V-268H840V-516H302V-268H536V-220H320V-246H259V-220H227V-164H259V68H320V-164H536V-76C468 -73 407 -71 357 -69L362 -14C462 -20 593 -27 724 -35C735 -17 745 -1 751 14L797 -7C780 -48 737 -107 697 -150L652 -133C665 -117 680 -99 693 -82L599 -78V-164H824V5C824 16 821 19 809 19C797 20 760 20 715 19C722 36 731 58 734 77C797 77 837 76 861 67C887 56 893 40 893 6ZM378 -706V-651H233V-593H378V-544H445V-593H554V-651H445V-706ZM754 -706H687V-651H583V-593H687V-544H754V-593H911V-651H754ZM941 -789H130V-495C130 -338 122 -118 38 39C56 46 88 64 102 76C190 -88 203 -329 203 -495V-724H941Z"/>
</svg>