<svg xmlns="http://www.w3.org/2000/svg" viewBox="0 -1000 1000 1000">
	<path fill="#000000" d="M819 -833C757 -788 642 -746 552 -724C568 -711 586 -693 597 -679C690 -705 805 -751 878 -805ZM854 -706C789 -658 668 -618 565 -595C580 -583 597 -562 607 -548C716 -575 839 -622 912 -682ZM881 -578C814 -516 681 -474 547 -452C562 -439 577 -417 585 -401C729 -429 867 -479 942 -555ZM569 -377C538 -303 481 -231 420 -184C434 -174 460 -152 469 -140C533 -194 596 -276 632 -361ZM182 -450C204 -466 226 -487 245 -508H404L372 -492C382 -484 394 -474 406 -463ZM528 -413C507 -441 467 -480 430 -508H540V-555H211V-598H487V-639H211V-680H487V-722H211V-762H513V-810H143V-555H57V-508H177C155 -485 132 -465 122 -459C111 -450 101 -446 89 -444C95 -430 103 -405 106 -393C127 -401 161 -404 445 -424C459 -411 470 -397 478 -386ZM297 -244H438V-303H297V-384H230V-303H66V-244H219C174 -167 103 -86 41 -45C56 -33 76 -11 87 5C134 -33 187 -95 230 -162V74H297V-156C331 -122 370 -77 386 -56L428 -106C409 -125 330 -195 297 -221ZM728 -124C746 -99 766 -70 785 -41L565 -24C615 -79 666 -150 708 -219L645 -250C602 -163 532 -73 511 -49C490 -25 473 -10 457 -7C465 10 476 42 479 55C502 45 538 40 820 14C835 37 848 59 858 75L916 48C887 -1 829 -85 783 -147ZM645 -391V-332H738C780 -255 847 -183 913 -138C924 -155 946 -179 960 -192C891 -232 816 -309 780 -391Z"/>
</svg>