<svg xmlns="http://www.w3.org/2000/svg" viewBox="0 -1000 1000 1000">
	<path fill="#000000" d="M895 -626C827 -569 686 -533 548 -516C560 -503 575 -482 582 -467C729 -490 876 -533 952 -602ZM863 -733C795 -689 669 -654 561 -637C575 -625 591 -605 599 -591C712 -613 840 -654 917 -709ZM828 -834C758 -794 634 -758 541 -740C555 -728 571 -710 581 -697C677 -720 799 -759 880 -806ZM192 -521C210 -533 229 -546 246 -561H358C367 -553 377 -543 386 -534ZM474 -480C483 -469 491 -457 498 -445H87V-330H154V-402H845V-330H914V-445H559C549 -465 529 -492 513 -511L481 -500C469 -518 449 -542 428 -561H550V-603H211V-635H488V-671H211V-704H488V-740H211V-771H518V-812H144V-603H57V-561H167C146 -544 125 -532 118 -528C106 -521 94 -519 82 -517C89 -503 98 -475 101 -463C119 -470 151 -475 418 -495C427 -483 434 -472 439 -463ZM379 -19C307 6 182 23 79 34C92 44 111 67 119 77C219 62 347 35 428 3ZM584 13C699 33 812 58 880 77L927 41C852 22 732 -2 620 -21ZM748 -188H280V-216H748ZM748 -122H280V-153H748ZM748 -55H280V-88H748ZM531 -332H669C629 -319 582 -308 531 -297ZM819 -252H500C592 -270 676 -292 741 -318L718 -332H793V-371H208V-332H311C263 -316 196 -304 136 -295C147 -288 162 -270 169 -263C239 -276 328 -300 379 -327L365 -332H466V-285C340 -264 197 -250 72 -243C84 -233 100 -212 106 -201C139 -204 175 -208 211 -212V-20H819Z"/>
</svg>