<svg xmlns="http://www.w3.org/2000/svg" viewBox="0 -1000 1000 1000">
	<path fill="#000000" d="M86 77C135 27 152 -60 162 -143L108 -156C100 -78 82 2 37 47ZM193 -147C204 -88 208 -14 204 35L258 28C260 -21 255 -95 243 -154ZM279 -148C300 -94 317 -23 321 23L371 12C366 -34 349 -105 327 -158ZM368 -156C396 -102 424 -29 434 17L484 -1C473 -47 444 -119 415 -172ZM722 -482V-328H586V-482ZM372 -424H291V-524H372ZM372 -263H291V-366H372ZM160 -366H236V-263H160ZM236 -524V-424H160V-524ZM302 -688C288 -653 271 -614 254 -585H152C170 -619 185 -653 198 -688ZM651 7C596 7 586 -2 586 -43V-264H786V-546H540C559 -576 576 -607 591 -638H871C866 -348 860 -249 845 -226C837 -215 829 -212 817 -212C803 -212 771 -212 736 -216C746 -198 752 -171 753 -151C791 -149 826 -149 848 -152C873 -155 889 -163 904 -183C926 -216 932 -331 938 -671V-705H620C636 -746 650 -787 661 -825L588 -835C565 -738 514 -613 433 -518V-585H320C345 -627 370 -677 388 -722L345 -751L332 -747H219C228 -774 235 -801 242 -826L176 -836C153 -742 109 -620 36 -526C52 -519 76 -499 87 -484C92 -490 96 -496 101 -503V-201H433V-508C449 -497 470 -478 481 -466C495 -482 508 -499 520 -516V-43C520 48 549 69 646 69H847C935 69 957 32 965 -98C947 -103 919 -114 904 -126C898 -16 890 7 844 7Z"/>
</svg>