<svg xmlns="http://www.w3.org/2000/svg" viewBox="0 -1000 1000 1000">
	<path fill="#000000" d="M901 -658C892 -578 869 -460 850 -390L896 -378C917 -447 939 -559 956 -646ZM732 -381C723 -447 700 -564 677 -656L627 -645C648 -554 670 -434 678 -365ZM268 -692C256 -655 240 -614 225 -584H139C156 -619 170 -656 182 -692ZM307 -421H247V-523H307ZM307 -260H247V-363H307ZM140 -421V-523H200V-421ZM200 -363V-260H140V-363ZM92 -499V-200H357V-584H281C304 -628 328 -681 344 -730L306 -755L294 -752H201C208 -778 215 -804 220 -828L162 -836C142 -743 106 -620 41 -526C55 -518 74 -499 83 -487ZM89 70C114 15 133 -76 145 -138L100 -154C90 -92 67 -4 42 50ZM166 -138C173 -79 178 -4 178 47L224 40C224 -10 218 -84 209 -143ZM234 -142C249 -89 268 -19 275 26L319 15C312 -29 294 -98 275 -151ZM301 -156C323 -112 347 -55 358 -17L400 -34C388 -70 363 -126 341 -169ZM649 -296C635 -317 576 -404 549 -439V-476H627V-546H549V-736C582 -745 615 -755 642 -766L596 -823C545 -799 457 -774 382 -760C389 -743 399 -719 402 -705C429 -710 460 -715 489 -721V-546H387V-476H481C458 -369 410 -246 362 -180C373 -165 388 -140 394 -121C430 -170 463 -247 489 -328V76H549V-354C574 -311 601 -261 613 -234ZM822 -829H761V-587C761 -394 747 -160 600 28C614 38 634 61 644 76C726 -26 770 -140 794 -256C818 -114 857 2 924 70C934 52 955 28 970 16C877 -67 838 -264 820 -476C822 -514 822 -551 822 -587Z"/>
</svg>