<svg xmlns="http://www.w3.org/2000/svg" viewBox="0 -1000 1000 1000">
	<path fill="#000000" d="M291 -692C277 -655 258 -615 242 -585H142C161 -620 177 -656 190 -692ZM353 -422H276V-524H353ZM353 -261H276V-364H353ZM150 -422V-524H223V-422ZM223 -364V-261H150V-364ZM92 -503V-200H412V-585H304C330 -628 354 -680 373 -728L332 -755L320 -752H211C220 -777 227 -803 234 -827L172 -836C149 -742 105 -619 32 -526C47 -519 69 -500 80 -488ZM90 73C119 18 140 -72 155 -137L103 -155C91 -91 67 -3 36 50ZM188 -139C195 -80 199 -3 199 48L251 40C250 -11 245 -86 238 -146ZM277 -143C293 -89 310 -18 316 27L365 13C359 -32 341 -101 324 -155ZM366 -155C387 -111 410 -53 418 -15L466 -37C457 -74 434 -130 411 -173ZM832 -138V-18H562V-138ZM496 77H562V40H832V74H901V-196H496ZM944 -480H727V-543H909V-598H727V-660H938V-718H807C826 -745 847 -781 867 -817L798 -838C786 -805 762 -757 744 -726L766 -718H618L643 -729C634 -758 610 -802 585 -836L528 -813C547 -786 567 -747 578 -718H464V-660H660V-598H497V-543H660V-480H458V-422H944ZM829 -309C847 -337 866 -369 883 -401L819 -422C808 -390 785 -344 766 -309H636C626 -341 604 -385 583 -418L527 -400C543 -372 560 -339 571 -309H445V-248H958V-309Z"/>
</svg>