<svg xmlns="http://www.w3.org/2000/svg" viewBox="0 -1000 1000 1000">
	<path fill="#000000" d="M301 -716V-453H137C154 -532 172 -632 185 -716ZM458 -384V-453H369V-716H448V-785H65V-716H117C100 -606 75 -469 53 -384H250C196 -255 109 -116 29 -46C44 -33 67 -10 80 7C159 -72 244 -208 301 -345V-13C301 2 296 7 280 8C265 8 214 8 158 6C168 27 178 57 180 77C255 77 302 75 331 63C358 51 369 31 369 -14V-384ZM475 45C505 -9 527 -95 543 -158L488 -178C475 -116 449 -32 418 19ZM575 -151C584 -99 593 -32 595 12L643 5C641 -39 631 -106 621 -158ZM662 -161C679 -116 698 -60 706 -22L751 -35C742 -71 722 -127 704 -170ZM844 -90C832 -117 806 -161 781 -194L742 -179C765 -146 791 -101 803 -72ZM820 -690V-624H566V-690ZM566 -507V-575H820V-507ZM956 -340V-395H566V-453H887V-744H702C713 -769 724 -796 736 -823L658 -837C652 -811 642 -774 631 -744H498V-223H873C862 -67 851 -6 834 11C826 19 818 21 802 21C787 21 747 20 703 16C712 32 718 56 720 74C764 76 808 77 831 75C856 73 873 67 889 49C914 22 926 -52 939 -251C940 -260 941 -280 941 -280H566V-340Z"/>
</svg>