<svg xmlns="http://www.w3.org/2000/svg" viewBox="0 -1000 1000 1000">
	<path fill="#000000" d="M849 -519C920 -519 942 -542 948 -632C930 -637 905 -645 890 -654C886 -584 879 -573 841 -573H666C616 -573 608 -578 608 -603V-745H792V-690C792 -680 789 -677 778 -677C767 -675 731 -675 687 -677C695 -663 705 -646 709 -629C768 -629 805 -629 829 -638C853 -646 859 -659 859 -691V-798H540V-602C540 -534 567 -519 661 -519ZM150 77C185 43 209 -11 228 -57L172 -80C157 -38 128 15 95 45ZM300 -55C314 -17 327 33 329 66L393 52C389 20 376 -30 360 -67ZM455 -54C478 -20 502 24 511 53L571 36C560 6 535 -37 511 -69ZM607 -52C631 -27 659 7 672 32L725 5C712 -17 683 -50 657 -73ZM750 -444V-398H290V-444ZM290 -310V-357H750V-310ZM410 -726C385 -678 349 -638 306 -604C278 -630 239 -659 204 -685C220 -698 234 -711 247 -726ZM290 -266H822V-488H473C487 -509 502 -533 517 -558L441 -570C432 -547 416 -514 402 -488H233C350 -543 448 -631 495 -766L455 -782L442 -780H290C301 -796 311 -811 319 -828L253 -839C219 -774 151 -703 48 -654C62 -644 83 -623 92 -607C116 -620 139 -635 159 -650C193 -625 229 -595 255 -569C196 -534 128 -509 58 -494C71 -480 86 -456 93 -439C136 -450 178 -464 218 -481V-90H823C815 -19 806 11 797 22C791 28 783 29 771 29C759 29 730 29 697 26C704 40 710 61 711 76C749 79 785 79 802 78C824 76 841 71 854 58C873 40 884 -4 895 -109C896 -118 897 -135 897 -135H290V-178H947V-223H290Z"/>
</svg>