<svg xmlns="http://www.w3.org/2000/svg" viewBox="0 -1000 1000 1000">
	<path fill="#000000" d="M346 -719V-678H187V-719ZM577 -678H414V-719H577ZM819 -633V-587H645V-633ZM414 -633H577V-587H414ZM187 -633H346V-587H187ZM187 -542H272V-447C272 -415 246 -410 229 -408C235 -394 244 -369 246 -353C264 -361 295 -366 559 -390C558 -400 558 -420 559 -433L337 -414V-461H547V-504H337V-542H588V-441C588 -384 612 -372 696 -372H862C920 -372 940 -388 945 -449C928 -453 905 -459 892 -467C889 -423 882 -418 854 -418H702C660 -418 653 -421 653 -441V-461H874V-504H653V-542H887V-678H645V-719H934V-771H566C560 -793 550 -819 540 -840L468 -827C475 -810 482 -790 488 -771H121V-468C121 -330 113 -145 37 -13C52 -6 81 15 92 27C174 -114 187 -321 187 -468ZM292 -144H484V-115C416 -110 351 -106 292 -103ZM484 -292V-254H292V-292ZM484 -180H292V-218H484ZM563 -150C556 -145 549 -139 542 -134V-335H409C413 -342 417 -350 422 -359L361 -368C358 -359 353 -347 347 -335H234V-101L173 -98L179 -53C249 -57 336 -62 427 -69C347 -31 254 0 168 21C178 31 194 53 200 63C291 37 395 -3 484 -50V17C484 27 481 30 470 30C460 31 429 31 391 30C398 43 406 62 409 77C461 77 496 76 515 69C536 60 542 47 542 16V-83C565 -98 584 -112 603 -127ZM724 -63C707 -97 671 -155 644 -197L598 -174C626 -131 661 -72 677 -36ZM837 -357H777V-285H568V-227H777V5C777 18 773 22 759 22C747 23 699 23 649 22C656 38 666 60 669 77C736 77 778 77 804 68C829 58 837 44 837 6V-227H942V-285H837Z"/>
</svg>