<svg xmlns="http://www.w3.org/2000/svg" viewBox="0 -1000 1000 1000">
	<path fill="#000000" d="M688 -569C688 -540 687 -509 684 -479H515V-410H674C653 -304 600 -200 473 -113C489 -101 511 -81 523 -67C643 -149 703 -246 731 -349C793 -257 858 -151 891 -84L950 -119C911 -194 831 -314 765 -410H946V-479H753C755 -509 756 -539 756 -569V-630H910V-697H756V-836H688V-697H535V-630H688ZM408 -666C391 -613 363 -561 329 -524C340 -517 362 -505 371 -498C385 -512 397 -531 410 -551C438 -527 470 -498 487 -479L523 -518C503 -539 467 -569 432 -594C442 -613 450 -634 457 -654ZM130 -667C114 -602 81 -538 42 -496C53 -485 69 -459 74 -448C99 -475 123 -512 142 -553C163 -533 183 -511 195 -497L231 -535C217 -552 188 -577 163 -599C170 -617 176 -636 181 -655ZM497 -405C455 -431 378 -469 315 -498V-692H511V-753H315V-834H247V-753H53V-692H247V-499C193 -456 105 -418 26 -399C39 -388 58 -364 68 -347C139 -368 217 -407 274 -453C339 -422 420 -378 463 -350ZM384 -263C356 -201 316 -149 268 -105C234 -131 205 -164 179 -206C195 -224 210 -243 223 -263ZM429 -326L416 -324H261C271 -342 279 -359 286 -377L226 -392C208 -347 180 -305 149 -267C143 -280 138 -293 133 -308L83 -288C91 -265 99 -243 107 -223C86 -203 64 -186 41 -170C53 -156 69 -123 74 -110C96 -125 117 -143 137 -162C161 -122 186 -90 216 -63C162 -25 101 4 37 24C51 36 71 64 78 80C146 55 210 21 268 -23C366 40 491 57 644 57H931C936 35 950 1 962 -17C905 -15 689 -15 645 -15C519 -15 410 -26 323 -71C386 -132 437 -209 468 -305Z"/>
</svg>