<svg xmlns="http://www.w3.org/2000/svg" viewBox="0 -1000 1000 1000">
	<path fill="#000000" d="M871 -159H799V-577H871ZM561 -577H628V-159H561ZM752 -478H675V-577H752ZM675 -269H752V-159H675ZM752 -320H675V-426H752ZM503 -633V-63H561V-102H871V-66H931V-633H719C726 -662 734 -697 741 -730H945V-789H478V-730H671C667 -699 662 -663 657 -633ZM372 -676C357 -623 332 -568 302 -528C314 -522 333 -509 342 -502C355 -518 367 -538 377 -559C402 -537 427 -511 443 -494L477 -532C460 -551 427 -579 398 -604C407 -624 414 -645 420 -665ZM127 -674C109 -612 76 -551 39 -507C49 -498 64 -474 70 -463C92 -489 113 -521 132 -556C152 -536 170 -513 182 -498L216 -534C203 -552 177 -579 153 -602C161 -621 169 -642 175 -662ZM468 -410C440 -428 336 -492 296 -513V-697H461V-754H296V-835H232V-754H52V-697H232V-510C183 -465 101 -415 34 -392C48 -380 66 -358 76 -343C138 -371 214 -423 266 -474C314 -445 399 -385 432 -358ZM350 -267C326 -204 291 -151 247 -107C216 -134 190 -168 166 -211C180 -230 192 -248 204 -267ZM390 -326L378 -323H235C245 -342 253 -360 261 -379L203 -394C186 -353 163 -313 138 -276C132 -291 127 -307 122 -324L73 -304C81 -276 90 -250 100 -226C81 -203 61 -183 41 -165C52 -153 69 -123 76 -110C94 -126 111 -145 129 -164C150 -125 174 -92 202 -65C153 -25 98 4 39 26C51 36 70 63 78 79C140 54 198 20 250 -25C345 43 470 62 628 62H935C939 43 952 12 963 -5C913 -3 667 -3 629 -3C495 -3 384 -17 297 -69C355 -132 401 -210 429 -306Z"/>
</svg>