<svg xmlns="http://www.w3.org/2000/svg" viewBox="0 -1000 1000 1000">
	<path fill="#000000" d="M252 -747H747V-521H820V-798H182V-521H252ZM720 -695H277V-646H720ZM276 -543H718V-591H276ZM821 -346H650V-429H821ZM578 -346H410V-429H578ZM338 -346H176V-429H338ZM893 -480H106V-294H893ZM726 -181C671 -134 597 -97 512 -68C420 -97 340 -134 283 -181ZM804 -245L791 -242H98V-181H208L196 -175C251 -119 322 -74 408 -39C294 -12 169 4 47 11C58 29 71 58 76 78C224 66 377 43 512 -1C634 37 773 60 918 71C926 51 944 22 959 5C839 -2 722 -17 616 -40C714 -83 795 -140 850 -214Z"/>
</svg>