<svg xmlns="http://www.w3.org/2000/svg" viewBox="0 -1000 1000 1000">
	<path fill="#000000" d="M198 -538H268V-724C298 -753 326 -782 348 -813L280 -836C227 -763 131 -695 42 -653C58 -641 83 -612 95 -599C128 -617 164 -640 198 -666ZM139 78C182 46 226 -5 253 -50L184 -71C158 -24 114 22 72 48ZM348 -46C357 -8 365 41 367 71L438 63C435 35 425 -14 414 -50ZM552 -45C570 -9 588 38 594 68L666 55C658 26 639 -20 620 -55ZM746 -49C787 -13 837 39 859 73L925 43C901 9 850 -41 808 -74ZM631 -346C656 -369 685 -404 712 -437L659 -460C643 -432 612 -391 591 -365ZM286 -438C310 -410 337 -369 348 -343L394 -366C383 -392 355 -431 330 -459ZM238 -330V-473H460V-330ZM759 -330H532V-473H759ZM532 -190H862V-237H532V-285H832V-514C841 -513 850 -513 859 -513C920 -513 946 -535 957 -625C939 -630 917 -640 902 -652C898 -595 890 -577 861 -577C795 -575 707 -610 637 -669L946 -688L941 -745L782 -735L816 -774C783 -795 719 -824 672 -843L635 -807C682 -787 742 -756 777 -735L584 -723C557 -757 538 -795 530 -836H463C470 -793 487 -754 509 -718L322 -707L327 -649L552 -663C623 -584 725 -532 813 -517H169V-285H460V-237H135V-190H460V-138H59V-88H943V-138H532Z"/>
</svg>