<svg xmlns="http://www.w3.org/2000/svg" viewBox="0 -1000 1000 1000">
	<path fill="#000000" d="M514 -214C514 -120 547 -87 640 -87H863C903 -87 943 -88 960 -93C957 -106 953 -131 951 -148C930 -144 889 -142 862 -142H638C590 -142 574 -161 574 -212V-737H949V-797H484V-737H514ZM816 -372C803 -340 784 -312 760 -289C736 -299 713 -310 691 -319C699 -336 708 -353 715 -372ZM941 -372V-421H886C888 -431 890 -441 892 -450L841 -457C839 -445 836 -433 833 -421H736C742 -437 748 -451 753 -466L705 -472C700 -455 694 -439 687 -421H593V-372H666C654 -345 641 -318 628 -297C657 -286 688 -272 718 -257C685 -237 643 -220 592 -208C602 -198 613 -179 618 -165C680 -182 729 -204 768 -233C814 -209 856 -184 883 -163L914 -202C887 -221 849 -244 807 -265C836 -296 858 -331 872 -372ZM838 -607H688V-656H838ZM838 -518H688V-568H838ZM897 -696H631V-478H897ZM464 -786H285V-727H400V-643H288V-587H400V-499L145 -500V-587H245V-643H145V-732C188 -748 237 -768 276 -791L235 -836C196 -814 127 -780 81 -763V-441H464ZM304 -25V-125H390V-178H304V-258H382V-311H304V-393H245V-45C245 -24 236 -13 226 -7C223 -21 220 -41 220 -55L144 -28V-127H224V-180H144V-260H224V-313H144V-397H85V-42C85 -7 60 4 44 10C54 27 64 56 68 73C80 62 101 50 209 6C218 24 225 47 228 63C243 52 270 43 433 1C431 -11 430 -37 431 -54ZM396 -397C390 -83 441 79 829 76C922 76 948 49 958 -55C941 -59 918 -68 903 -80C897 -1 886 17 830 17C487 20 450 -116 458 -397Z"/>
</svg>