<svg xmlns="http://www.w3.org/2000/svg" viewBox="0 -1000 1000 1000">
	<path fill="#000000" d="M936 -753H554C547 -779 533 -816 516 -842L442 -826C453 -803 465 -777 472 -753H64V-693H936ZM570 -687C545 -645 499 -584 464 -547V-370H532V-543C563 -578 598 -622 627 -664ZM323 -272H681V-326H323ZM369 -665C396 -634 425 -590 438 -561L489 -587C475 -615 444 -656 418 -687ZM319 -576C315 -486 310 -451 300 -440C294 -434 287 -433 277 -433C266 -433 238 -433 207 -436C216 -420 221 -397 222 -380C254 -377 286 -378 302 -379C325 -382 338 -387 350 -401C368 -420 374 -473 380 -603C381 -613 381 -630 381 -630H76V-576H166C154 -499 121 -440 41 -406C54 -397 71 -375 78 -360C175 -405 214 -477 228 -576ZM255 -365H185V-255C185 -164 172 -53 60 29C76 41 101 66 111 83C238 -13 255 -143 255 -253ZM344 -125C320 -73 286 -21 246 19C262 26 288 42 300 52C337 12 378 -51 404 -107ZM705 -160V-215H292V-160H464V67H529V-160ZM578 -102C617 -57 663 6 684 46L735 12C715 -27 666 -86 625 -131ZM755 77H827V-364H755ZM851 -667C800 -644 710 -623 631 -609V-475C631 -440 614 -428 601 -423C610 -410 620 -386 624 -371C637 -379 662 -386 804 -412C802 -424 799 -446 799 -461L692 -445V-570C715 -573 737 -578 760 -583C788 -481 838 -398 917 -353C926 -370 945 -393 958 -403C886 -438 838 -509 813 -595C845 -603 874 -613 900 -623Z"/>
</svg>