<svg xmlns="http://www.w3.org/2000/svg" viewBox="0 -1000 1000 1000">
	<path fill="#000000" d="M471 -613H311V-691H438V-748H311V-836H250V-613H170V-779H112V-613H45V-554H471ZM261 -395C255 -387 249 -379 242 -372C252 -364 266 -348 271 -341C289 -361 303 -385 314 -412C330 -387 347 -361 356 -342L386 -372C373 -394 350 -428 327 -457C333 -480 337 -502 340 -527L300 -531C295 -479 284 -432 261 -395C251 -412 234 -437 218 -458C223 -481 227 -503 229 -528L190 -532C183 -466 169 -409 134 -370C143 -362 158 -347 163 -339C180 -358 194 -384 205 -411C213 -395 222 -381 228 -369ZM134 -30V-78C144 -70 157 -55 163 -49C180 -69 194 -95 204 -124C214 -108 224 -93 230 -81L258 -106C253 -99 248 -92 242 -85C252 -78 266 -61 272 -54C290 -74 304 -99 315 -128C331 -102 347 -77 357 -57L387 -88C374 -111 351 -146 328 -175C334 -197 337 -222 340 -247L299 -252C294 -197 283 -149 261 -110C250 -127 235 -150 218 -172C223 -196 227 -222 230 -248L190 -254C183 -184 170 -124 134 -82V-267H392V-30ZM392 -322H134V-522H78V25H392V63H446V-521H392ZM575 -469V-587H677V-469ZM846 -587V-469H737V-587ZM929 -327H737V-408H910V-648H737V-744C805 -753 868 -765 920 -780L867 -832C778 -805 618 -785 484 -774C490 -759 499 -735 502 -720C558 -724 619 -729 677 -736V-648H513V-408H677V-327H554V-366H493V-327H461V-265H493V77H554V-265H677V-136C640 -133 606 -131 576 -130L584 -71C652 -78 730 -85 813 -94C817 -78 820 -64 822 -50L858 -63C851 -107 830 -174 805 -225L771 -213C780 -192 790 -167 798 -143L737 -139V-265H866V10C866 21 863 24 851 25C840 25 799 25 754 24C762 39 770 61 773 77C836 77 875 77 898 67C922 57 929 43 929 10Z"/>
</svg>