<svg xmlns="http://www.w3.org/2000/svg" viewBox="0 -1000 1000 1000">
	<path fill="#000000" d="M458 -338H541V-135H458ZM458 -633H541V-391H458ZM234 -555V-633H393V-555ZM555 -742C541 -721 524 -699 508 -681H250C274 -701 296 -721 317 -742ZM782 -555H606V-633H782ZM826 -338V-135H659C681 -155 705 -179 726 -206C749 -187 768 -168 781 -153L813 -188C800 -205 778 -223 755 -242C772 -268 789 -295 802 -322L757 -334C746 -312 733 -290 718 -269C698 -284 676 -298 656 -310L626 -278C647 -265 670 -250 692 -233C669 -206 642 -180 616 -160C625 -154 637 -143 646 -135H606V-338ZM545 15C470 15 458 2 458 -49V-81H887V-391H606V-507H853V-681H582C605 -707 628 -736 645 -764L601 -793L591 -790H361C372 -802 381 -815 390 -826L318 -841C268 -771 175 -689 54 -628C70 -618 90 -596 101 -581C123 -593 144 -605 164 -618V-507H393V-391H321V-468H115V-426H264V-386H70V-344H264V-303H115V-261H321V-338H393V-135H321V-212H115V-171H264V-129H68V-87H264V-44H115V-2H321V-81H393V-50C393 47 427 71 545 71H829C926 71 946 43 957 -47C938 -51 912 -59 896 -69C890 -1 879 15 826 15Z"/>
</svg>