<svg xmlns="http://www.w3.org/2000/svg" viewBox="0 -1000 1000 1000">
	<path fill="#000000" d="M415 -695H843V-564H921V-765H340V-564H415ZM257 -833C206 -681 123 -533 33 -436C46 -419 68 -380 76 -363C106 -396 135 -436 163 -479V75H234V-599C269 -667 301 -739 326 -812ZM798 -15C777 -15 774 -21 774 -52V-569H472V-386C472 -250 454 -93 291 24C306 37 329 64 339 80C521 -51 542 -228 542 -386V-503H701V-52C701 30 719 55 787 55H869C933 55 951 10 957 -144C936 -149 907 -162 890 -175C888 -42 884 -15 862 -15Z"/>
</svg>