<svg xmlns="http://www.w3.org/2000/svg" viewBox="0 -1000 1000 1000">
	<path fill="#000000" d="M267 -833C210 -681 118 -532 20 -436C34 -420 54 -381 62 -364C97 -400 131 -441 163 -487V74H233V-596C273 -665 308 -738 336 -812ZM958 -616V-684H570C587 -730 602 -777 615 -826L544 -840C530 -786 513 -734 494 -684H295V-616H465C411 -499 340 -401 251 -329C267 -316 292 -285 302 -271C338 -302 371 -337 402 -375V-48H472V-379H616V75H688V-379H843V-140C843 -130 840 -127 828 -126C816 -125 779 -125 735 -127C744 -107 754 -80 756 -60C817 -60 857 -60 882 -72C908 -83 915 -104 915 -139V-447H688V-575H616V-447H453C487 -499 517 -555 543 -616Z"/>
</svg>