<svg xmlns="http://www.w3.org/2000/svg" viewBox="0 -1000 1000 1000">
	<path fill="#000000" d="M272 -836C216 -685 123 -536 25 -440C39 -423 60 -384 67 -366C101 -402 135 -442 166 -487V75H237V-597C277 -666 313 -741 342 -816ZM955 -323V-394H668C672 -436 673 -478 673 -518V-583H904V-653H673V-833H600V-653H467C480 -697 490 -744 499 -791L428 -803C407 -678 369 -553 312 -472C330 -464 361 -444 374 -433C400 -474 425 -526 445 -583H600V-519C600 -479 599 -437 595 -394H306V-323H583C555 -199 481 -73 283 19C301 33 324 60 333 76C513 -14 598 -131 638 -251C695 -100 786 16 919 78C930 58 952 30 970 15C828 -40 733 -166 683 -323Z"/>
</svg>