<svg xmlns="http://www.w3.org/2000/svg" viewBox="0 -1000 1000 1000">
	<path fill="#000000" d="M270 -837C215 -686 122 -537 24 -441C38 -424 59 -385 66 -367C99 -402 133 -442 164 -486V76H237V-600C276 -669 311 -743 340 -816ZM364 -64C508 -28 703 35 801 76L833 8C730 -33 535 -91 395 -123ZM463 -236C564 -206 702 -159 773 -129L803 -194C731 -222 592 -266 495 -293ZM776 -673C734 -607 676 -549 609 -498C557 -539 513 -586 480 -637C488 -649 496 -661 503 -673ZM832 -741L818 -737H539C554 -766 566 -795 578 -822L504 -835C467 -739 395 -616 291 -526C307 -515 330 -492 342 -475C379 -508 411 -546 441 -583C473 -538 510 -496 554 -457C463 -399 362 -353 265 -326C280 -310 298 -281 306 -261C408 -295 515 -345 611 -411C702 -346 807 -297 921 -267C932 -288 952 -317 969 -334C859 -357 756 -400 669 -455C756 -527 831 -614 879 -715Z"/>
</svg>