<svg xmlns="http://www.w3.org/2000/svg" viewBox="0 -1000 1000 1000">
	<path fill="#000000" d="M264 -231C218 -156 144 -77 71 -26C89 -16 118 8 132 21C202 -36 282 -123 335 -210ZM886 -285V-352H114V-285H464V75H540V-285ZM280 -521V-455H725V-521ZM652 -202C725 -134 813 -37 855 24L919 -14C875 -75 786 -168 712 -234ZM503 -845C400 -696 214 -564 31 -490C50 -472 71 -444 84 -424C237 -493 391 -604 503 -733C625 -596 759 -508 921 -432C933 -454 955 -482 973 -498C806 -569 663 -655 547 -788C553 -796 559 -804 565 -813Z"/>
</svg>