<svg xmlns="http://www.w3.org/2000/svg" viewBox="0 -1000 1000 1000">
	<path fill="#000000" d="M245 -835C199 -685 123 -536 37 -438C51 -421 73 -384 81 -367C106 -398 131 -434 156 -473V77H226V-599C260 -668 290 -742 314 -816ZM725 -282V-149H530V-282ZM788 -93V-338H470V-40H530V-93ZM667 -473V-575H852V-473ZM411 -575H599V-473H411ZM599 -727V-636H411V-727ZM852 -727V-636H667V-727ZM920 -790H342V-410C342 -269 333 -89 243 39C259 46 288 65 301 79C398 -56 411 -260 411 -410V-412H852V-21C852 -4 846 2 829 2C813 3 755 4 695 2C705 21 716 51 719 71C798 71 850 70 881 58C910 46 920 25 920 -21Z"/>
</svg>