<svg xmlns="http://www.w3.org/2000/svg" viewBox="0 -1000 1000 1000">
	<path fill="#000000" d="M257 -831C204 -686 120 -545 31 -452C44 -435 65 -396 72 -378C103 -412 135 -453 164 -496V77H236V-614C270 -677 301 -743 325 -809ZM717 -697C691 -655 656 -609 623 -576H417C451 -612 483 -653 512 -697ZM808 -437H447V-517H808ZM808 -301H447V-382H808ZM808 -163H447V-245H808ZM374 -104H885V-576H710C751 -623 792 -678 823 -730L775 -762L760 -758H546C557 -779 567 -799 576 -821L503 -837C455 -716 368 -608 265 -541C283 -530 313 -506 326 -495C343 -506 358 -520 374 -534ZM501 -96C456 -51 366 2 284 31C302 44 329 64 342 77C420 47 512 -11 570 -62ZM705 -59C773 -17 847 38 889 76L958 36C910 -2 831 -56 759 -98Z"/>
</svg>