<svg xmlns="http://www.w3.org/2000/svg" viewBox="0 -1000 1000 1000">
	<path fill="#000000" d="M221 -831C180 -683 110 -537 32 -441C45 -423 64 -383 70 -366C98 -402 125 -442 150 -486V78H218V-622C244 -684 268 -747 287 -811ZM852 -829C735 -797 522 -774 345 -761C349 -426 347 -154 237 23C252 33 282 57 293 69C402 -121 412 -372 413 -709C582 -720 776 -742 903 -775ZM528 -502H881C875 -473 868 -444 861 -423L913 -412C927 -448 940 -502 950 -549L908 -559L898 -557H697V-619H928V-670H697V-719H628V-557H464V-383C464 -262 453 -93 370 32C383 39 410 62 421 75C511 -58 528 -250 528 -383ZM606 -226C600 -96 580 -21 479 23C493 35 512 59 519 74C636 20 662 -74 669 -226ZM733 -307C713 -307 710 -316 710 -341V-380L843 -394L839 -440L710 -428V-499H648V-421L530 -411L536 -356L648 -368V-341C648 -282 661 -258 723 -258H842C866 -258 891 -259 904 -263C902 -278 900 -296 899 -312C885 -308 856 -307 839 -307ZM837 12C830 12 823 11 819 8C815 5 814 -5 814 -21V-228H751V-28C751 24 755 39 770 50C783 62 804 66 824 66H874C889 66 909 64 920 58C933 53 942 43 948 28C953 14 956 -26 958 -62C940 -67 920 -78 907 -89C906 -53 905 -24 902 -11C900 0 896 6 891 9C886 12 877 12 869 12Z"/>
</svg>