<svg xmlns="http://www.w3.org/2000/svg" viewBox="0 -1000 1000 1000">
	<path fill="#000000" d="M853 -547V-471H739V-547ZM853 -344H739V-420H853ZM562 -344V-420H676V-344ZM562 -547H676V-471H562ZM676 -601H503V-290H676V-214H469V-155H676V-38H739V-155H952V-214H739V-290H914V-601H739V-678H944V-737H739V-832H676V-737H476V-678H676ZM440 -673C424 -714 393 -780 370 -831L311 -811C333 -761 364 -692 379 -649ZM225 -831C179 -678 104 -525 22 -425C34 -406 53 -367 59 -350C90 -389 121 -434 149 -484V77H216V-617C244 -679 269 -746 289 -812ZM447 -373L436 -370H376C401 -439 431 -523 456 -595H261V-528H369C342 -449 311 -364 285 -305H399C380 -226 349 -139 314 -80C291 -59 267 -26 241 12L291 77C315 17 345 -43 364 -43C385 -43 417 -14 454 11C516 51 587 65 685 65C764 65 892 60 949 57C950 36 959 2 967 -17C887 -8 771 -2 686 -2C595 -2 527 -12 470 -49C434 -71 412 -91 391 -101C429 -175 460 -270 479 -359Z"/>
</svg>