<svg xmlns="http://www.w3.org/2000/svg" viewBox="0 -1000 1000 1000">
	<path fill="#000000" d="M239 -832C192 -682 118 -534 34 -436C48 -419 70 -380 78 -364C103 -395 128 -430 152 -468V75H221V-594C255 -664 284 -738 308 -813ZM378 -92C421 -53 474 0 500 33L552 -5C524 -36 469 -87 428 -124ZM401 -347H827V-290H401ZM519 -544V-533C519 -499 499 -464 419 -436C430 -429 450 -412 458 -401C546 -435 570 -485 570 -531V-544H649V-502C649 -465 654 -452 668 -443C679 -433 702 -430 722 -430H787C798 -430 815 -430 827 -431V-394H401V-544ZM570 -654H649V-592H570ZM827 -474C824 -473 817 -473 812 -473H781H729C720 -473 712 -473 708 -475C702 -478 701 -484 701 -495V-544H827ZM950 -184H782V-242H892V-592H707V-654H929V-709H747C773 -740 799 -778 823 -814L754 -836C736 -799 703 -746 674 -709H514L563 -733C548 -760 518 -802 493 -835L435 -812C458 -781 485 -738 500 -709H308V-654H512V-592H339V-242H712V-184H274V-127H712V-1C712 11 708 15 693 16C680 16 628 16 572 15C579 32 586 52 587 69C664 69 714 70 744 62C773 54 782 38 782 1V-127H950Z"/>
</svg>