<svg xmlns="http://www.w3.org/2000/svg" viewBox="0 -1000 1000 1000">
	<path fill="#000000" d="M242 -831C196 -683 118 -537 31 -441C45 -423 65 -383 72 -365C99 -397 126 -433 151 -472V75H222V-596C256 -665 286 -738 310 -812ZM627 -579V-461C627 -451 624 -448 612 -448C602 -447 564 -447 525 -448C534 -434 545 -415 549 -399C603 -399 637 -399 661 -408C684 -416 691 -428 691 -459V-579H827C807 -547 783 -515 762 -492L820 -470C856 -508 896 -567 928 -621L878 -638L865 -635H711L714 -639C708 -643 701 -647 694 -652C756 -684 819 -727 865 -770L819 -805L806 -801H394V-746H740C710 -724 672 -701 637 -684C598 -704 554 -724 516 -736L479 -698C523 -683 573 -659 614 -635H323V-579H540C476 -523 383 -472 301 -447C314 -435 330 -413 338 -397C435 -434 551 -509 614 -579ZM741 -250C720 -250 716 -252 716 -269V-327H833V-251C830 -250 826 -250 819 -250ZM394 -327H502C495 -256 473 -224 394 -205ZM690 -146V-57H540V-146ZM902 -391H326V77H394V-200C405 -188 417 -170 422 -157C444 -163 462 -170 478 -178V42H540V-7H751V-196H506C541 -225 555 -266 560 -327H657V-270C657 -216 671 -202 735 -202H829H833V-3C833 8 829 11 817 11C807 12 770 12 729 10C737 29 747 55 750 74C808 75 846 74 870 62C896 51 902 33 902 -3Z"/>
</svg>