<svg xmlns="http://www.w3.org/2000/svg" viewBox="0 -1000 1000 1000">
	<path fill="#000000" d="M723 -632H795V-695H934V-752H795V-831H723V-752H624V-695H723ZM310 -752V-694H444V-639H514V-694H604V-752H514V-831H444V-752ZM247 -830C198 -681 120 -536 34 -439C47 -420 67 -381 74 -363C102 -397 131 -435 157 -477V76H228V-602C261 -668 292 -739 315 -810ZM443 46C466 3 481 -66 490 -118L443 -136C435 -85 418 -17 395 23ZM529 -123C538 -78 546 -20 547 18L598 5C596 -31 587 -90 576 -134ZM628 -127C646 -89 662 -38 669 -5L717 -21C710 -54 692 -103 673 -142ZM802 -326C799 -296 796 -260 792 -229H452C472 -259 489 -292 505 -326ZM736 -489C733 -457 730 -418 726 -385H529C542 -418 553 -453 563 -489ZM861 -229C866 -277 870 -333 873 -384L823 -388L812 -385H794C800 -435 804 -493 807 -548L758 -552L746 -549H578C583 -573 588 -597 593 -623L524 -632C519 -604 515 -575 508 -549H431L448 -558C438 -579 417 -613 398 -638L348 -617C363 -596 378 -571 389 -549H304V-489H493C448 -331 373 -207 256 -126C269 -110 286 -77 293 -60C337 -93 376 -130 411 -172H881C873 -58 863 -12 850 2C843 9 834 11 819 11C804 11 763 10 719 6C729 24 736 49 737 68C783 70 827 70 850 69C875 66 892 61 907 44C929 20 940 -43 951 -200C953 -209 954 -229 954 -229ZM730 -137C754 -106 778 -63 790 -35L835 -58C824 -85 798 -126 772 -157Z"/>
</svg>