<svg xmlns="http://www.w3.org/2000/svg" viewBox="0 -1000 1000 1000">
	<path fill="#000000" d="M223 -831C182 -677 111 -527 29 -427C42 -410 61 -370 67 -353C96 -388 124 -430 149 -475V76H216V-608C244 -674 270 -744 289 -812ZM373 -617H549V-571L401 -559L405 -507L549 -519C549 -461 563 -435 630 -435H792C821 -435 854 -435 869 -440C867 -455 865 -471 863 -489C847 -485 808 -484 787 -484H645C620 -484 616 -493 616 -518V-530L808 -545L805 -589L616 -575V-617H872C866 -596 859 -575 854 -559L913 -540C929 -570 945 -618 957 -660L907 -675L894 -671H617V-723H904V-775H617V-836H550V-671H307V-445C307 -305 299 -106 223 39C238 46 267 65 279 78C360 -74 373 -296 373 -445ZM823 -304H689V-356H823ZM823 -207H689V-260H823ZM495 -260H631V-207H495ZM495 -356H631V-304H495ZM884 -401H436V-161H884ZM615 -138C647 -108 681 -66 696 -37L744 -60C729 -89 694 -131 661 -159ZM405 53C434 11 455 -57 466 -110L415 -128C404 -79 382 -14 356 24ZM609 7C571 7 565 3 565 -17V-128H507V-17C507 46 527 63 605 63H750C808 63 826 41 833 -48C816 -52 792 -61 779 -70C777 -1 771 7 743 7ZM797 -111C838 -69 882 -10 901 29L957 0C938 -38 892 -95 850 -136Z"/>
</svg>