<svg xmlns="http://www.w3.org/2000/svg" viewBox="0 -1000 1000 1000">
	<path fill="#000000" d="M149 -583H851V-434H925V-650H743C773 -693 809 -749 839 -798L762 -823C740 -772 697 -698 665 -650H536V-837H461V-650H279L337 -684C318 -724 276 -780 236 -822L174 -790C210 -748 250 -689 270 -650H77V-434H149ZM305 -436H692V-289H305ZM683 -1C640 -1 631 -7 631 -34V-222H769V-503H232V-222H359C333 -100 267 -28 50 9C64 25 84 56 91 76C332 26 408 -67 437 -222H558V-34C558 46 582 69 677 69H841C921 69 943 35 952 -96C932 -102 901 -113 884 -125C880 -18 873 -1 834 -1Z"/>
</svg>