<svg xmlns="http://www.w3.org/2000/svg" viewBox="0 -1000 1000 1000">
	<path fill="#000000" d="M632 -333V-153H374V-333ZM701 -90V-396H304V-33H374V-90ZM913 -779H92V75H164V-709H357C349 -574 321 -512 188 -475C202 -463 221 -437 227 -420C382 -466 418 -547 428 -709H557V-554C557 -484 572 -457 640 -457H742C765 -457 788 -458 801 -462C798 -478 796 -504 795 -522C780 -519 756 -517 740 -517H646C629 -517 625 -526 625 -553V-709H840V-17C840 0 834 6 817 7C800 7 742 8 680 6C691 26 703 59 706 78C792 79 841 78 872 64C902 52 913 30 913 -17Z"/>
</svg>