<svg xmlns="http://www.w3.org/2000/svg" viewBox="0 -1000 1000 1000">
	<path fill="#000000" d="M746 -726H685V-171H746ZM565 -200C474 -107 277 -19 105 11C118 27 131 52 137 69C313 30 511 -64 613 -165ZM371 -370C316 -319 200 -262 112 -239C125 -226 142 -204 150 -189C240 -221 356 -284 416 -339ZM464 -286C394 -217 245 -150 122 -124C134 -109 149 -85 155 -69C281 -104 432 -179 510 -254ZM636 -463C621 -498 587 -555 558 -596L516 -576C525 -561 536 -544 546 -527L439 -517C461 -545 482 -583 499 -619L444 -642C430 -594 403 -547 395 -536C387 -523 379 -515 370 -513C372 -505 376 -495 379 -485L328 -496C318 -527 296 -567 276 -596L233 -576C243 -560 253 -541 261 -524L146 -508C170 -538 193 -576 213 -613L170 -631C202 -637 276 -642 504 -655C516 -641 526 -628 534 -617L587 -649C556 -689 496 -754 451 -800L401 -772C419 -753 437 -732 457 -711L236 -700C275 -732 314 -772 349 -813L282 -833C245 -780 189 -730 173 -716C157 -702 142 -694 128 -691C136 -674 146 -640 149 -626C151 -627 153 -628 156 -629C136 -581 106 -534 97 -522C87 -509 77 -500 68 -498C74 -483 82 -453 85 -440C99 -448 123 -454 280 -480C282 -473 284 -467 286 -461L297 -467C244 -420 161 -376 54 -346C66 -334 82 -309 89 -293C198 -329 281 -375 343 -430C429 -383 536 -316 592 -274L629 -329C579 -365 487 -419 408 -461C428 -466 470 -473 569 -485C578 -469 586 -453 591 -441ZM849 -819V-12C849 6 842 11 824 12C807 12 750 13 683 11C693 30 703 59 707 77C792 78 843 76 873 65C901 53 913 33 913 -12V-819Z"/>
</svg>