<svg xmlns="http://www.w3.org/2000/svg" viewBox="0 -1000 1000 1000">
	<path fill="#000000" d="M274 -674V-239H148V-674ZM342 -746H79V-90H148V-167H342ZM942 -614V-684H556C574 -727 591 -773 605 -820L531 -837C496 -709 435 -585 359 -505C376 -494 407 -469 421 -456C458 -500 493 -553 523 -614ZM556 -12C510 -12 482 -23 482 -49C482 -83 508 -134 881 -439C886 -444 891 -448 893 -453L842 -481L825 -478H467V-409H731C420 -146 405 -89 405 -40C405 24 453 61 559 61H833C923 61 953 33 963 -136C941 -140 915 -149 895 -161C891 -31 879 -12 837 -12Z"/>
</svg>