<svg xmlns="http://www.w3.org/2000/svg" viewBox="0 -1000 1000 1000">
	<path fill="#000000" d="M613 -208C651 -174 692 -132 730 -92L233 -52C327 -142 423 -258 505 -379L435 -417C352 -280 230 -142 191 -107C156 -71 129 -47 106 -42C116 -22 127 16 131 32C168 17 222 13 781 -35C810 -1 836 31 854 59L918 18C866 -55 759 -165 671 -242ZM758 -424C728 -424 723 -428 723 -453V-715H450C457 -753 462 -794 466 -837H388C384 -794 379 -753 372 -715H108V-644H355C316 -528 237 -437 49 -387C65 -371 84 -342 92 -324C306 -387 394 -498 435 -644H648V-452C648 -373 670 -352 748 -352H864C931 -352 952 -384 960 -508C939 -513 908 -525 892 -538C889 -438 883 -424 857 -424Z"/>
</svg>