<svg xmlns="http://www.w3.org/2000/svg" viewBox="0 -1000 1000 1000">
	<path fill="#000000" d="M488 -696C467 -729 422 -780 383 -816L334 -781C372 -744 417 -691 437 -657ZM481 -432C456 -465 405 -513 363 -545L316 -508C358 -473 408 -422 432 -389ZM236 -680V-213H144V-680ZM302 -151V-741H79V-54H144V-151ZM394 -283C366 -177 323 -50 291 25L355 56C387 -31 424 -152 450 -253ZM845 -391C823 -308 789 -233 747 -170C707 -235 677 -309 657 -391ZM589 -461V-639H698V-453H589ZM881 -456L869 -453H766V-639H867C854 -602 840 -566 828 -539L880 -513C904 -558 930 -627 952 -689L906 -707L895 -703H766V-834H698V-703H521V-462C521 -315 512 -107 417 39C434 46 464 62 477 74C559 -59 583 -243 588 -391H595C619 -286 655 -191 704 -113C655 -55 598 -10 538 20C553 33 571 58 580 74C640 42 695 -2 744 -58C791 0 848 45 916 75C926 56 946 30 962 17C892 -10 835 -55 788 -112C849 -199 896 -308 923 -440Z"/>
</svg>