<svg xmlns="http://www.w3.org/2000/svg" viewBox="0 -1000 1000 1000">
	<path fill="#000000" d="M270 -673V-256H146V-673ZM339 -187V-742H77V-92H146V-187ZM781 3C756 3 751 -1 751 -27V-308H908V-765H676V-700H838V-570H681V-508H838V-373H483V-510H628V-572H483V-706C543 -728 607 -755 657 -785L601 -835C557 -802 481 -767 413 -742V-308H521C506 -151 466 -37 286 22C302 35 322 62 329 79C526 8 575 -123 592 -308H681V-28C681 46 698 68 772 68H873C933 68 952 35 959 -97C940 -102 911 -113 897 -124C894 -14 889 3 865 3Z"/>
</svg>