<svg xmlns="http://www.w3.org/2000/svg" viewBox="0 -1000 1000 1000">
	<path fill="#000000" d="M243 -673V-256H143V-673ZM307 -742H77V-92H143V-187H307ZM535 -109C488 -64 394 -9 321 25C335 39 357 62 367 77C441 41 536 -15 599 -66ZM698 -64C766 -23 851 37 893 77L942 25C899 -15 811 -71 744 -110ZM491 -242H798V-175H491ZM798 -564V-500H491V-564ZM798 -396H491V-455H798ZM491 -350H798V-288H491ZM866 -175V-616H638C644 -637 650 -659 656 -683H930V-745H670C677 -774 683 -803 689 -830L610 -835C607 -809 603 -777 597 -745H374V-683H586C582 -659 577 -637 572 -616H425V-175H336V-110H957V-175Z"/>
</svg>