<svg xmlns="http://www.w3.org/2000/svg" viewBox="0 -1000 1000 1000">
	<path fill="#000000" d="M244 -675V-259H139V-675ZM307 -742H77V-92H139V-192H307ZM836 -635C821 -655 787 -684 759 -702L728 -679C755 -659 787 -628 804 -608ZM632 -267C559 -248 491 -230 440 -218L458 -168C513 -184 575 -202 638 -222ZM583 -456V-351H503V-456ZM624 -307V-500H463V-278H503V-307ZM785 -499C774 -430 755 -366 731 -310C721 -377 713 -459 709 -551H845V-600H706C705 -633 704 -669 704 -704H654C655 -669 656 -634 657 -600H444V-551H660C666 -430 677 -323 695 -242C662 -187 620 -141 569 -106C581 -97 599 -79 606 -70C647 -102 683 -138 713 -180C734 -118 763 -82 802 -81C828 -80 851 -112 865 -215C855 -218 838 -231 828 -241C823 -175 813 -139 801 -139C779 -140 761 -174 746 -232C787 -306 815 -392 833 -493ZM418 -46V-731H868V-46ZM354 -792V74H418V16H868V69H934V-792Z"/>
</svg>