<svg xmlns="http://www.w3.org/2000/svg" viewBox="0 -1000 1000 1000">
	<path fill="#000000" d="M244 -673V-256H138V-673ZM309 -742H73V-92H138V-187H309ZM498 -344H781V-392H498ZM436 -542H548V-532C548 -499 528 -464 448 -436C460 -429 479 -411 487 -400C575 -434 599 -485 599 -531V-542H679V-501C679 -464 683 -451 696 -441C706 -432 728 -429 746 -429H801C810 -429 822 -429 832 -429V-288H436ZM599 -653H679V-590H599ZM832 -472H820H795H755C747 -472 739 -472 736 -474C732 -476 731 -483 731 -493V-542H832ZM956 -184H792V-240H900V-590H736V-653H947V-709H770C796 -740 822 -778 846 -814L777 -836C758 -799 726 -746 697 -709H544L591 -732C577 -761 547 -805 518 -837L461 -814C486 -783 514 -739 528 -709H348V-653H541V-590H371V-240H722V-184H330V-127H452L408 -98C453 -60 506 -8 531 28L587 -12C562 -45 512 -92 469 -127H722V-2C722 9 718 13 704 13C691 14 647 14 594 13C602 30 612 54 615 72C685 72 729 72 757 62C785 52 792 35 792 -1V-127H956Z"/>
</svg>