<svg xmlns="http://www.w3.org/2000/svg" viewBox="0 -1000 1000 1000">
	<path fill="#000000" d="M241 -665V-256H135V-665ZM303 -188V-732H76V-103H135V-188ZM555 -452H428V-555H555ZM428 -221H555V-118C511 -110 468 -103 428 -96ZM555 -279H428V-392H555ZM667 -555V-617H523V-729H645V-790H337V-729H455V-617H318V-555H367V-86C336 -81 308 -76 283 -73L297 -6C370 -22 462 -39 555 -58V77H619V-555ZM856 -576C846 -455 830 -347 801 -254C770 -353 753 -459 743 -553C745 -561 747 -568 749 -576ZM958 -576V-639H762C773 -700 783 -763 790 -828L726 -837C710 -667 678 -498 620 -388C634 -376 658 -351 667 -339C682 -367 695 -398 707 -431C720 -346 739 -255 770 -169C735 -90 687 -25 621 25C634 38 657 65 665 79C722 31 767 -25 803 -91C834 -26 873 32 924 78C934 61 957 34 970 21C912 -26 869 -90 836 -163C882 -276 906 -414 921 -576Z"/>
</svg>