<svg xmlns="http://www.w3.org/2000/svg" viewBox="0 -1000 1000 1000">
	<path fill="#000000" d="M863 -476H711V-567H863ZM863 -330H711V-423H863ZM863 -183H711V-277H863ZM652 -623V-127H923V-623H782C792 -653 803 -688 812 -721H947V-783H625V-721H748C742 -689 734 -652 728 -623ZM203 -723V-257H128V-723ZM260 -785H71V-97H128V-195H260ZM574 -391C558 -309 535 -236 501 -174V-454H624V-517H515V-636H611V-698H515V-837H456V-517H406V-741H350V-517H294V-454H444V-168H498C448 -78 374 -11 271 33C285 46 302 67 309 84C496 -3 588 -157 629 -377ZM354 -403C343 -332 321 -243 282 -185C295 -178 316 -164 326 -154C369 -216 396 -313 412 -391ZM709 -116C679 -67 622 -3 568 35C582 46 603 65 615 78C667 38 728 -29 768 -86ZM806 -86C847 -37 894 30 913 73L965 42C944 -1 896 -66 854 -112Z"/>
</svg>