<svg xmlns="http://www.w3.org/2000/svg" viewBox="0 -1000 1000 1000">
	<path fill="#000000" d="M579 -37L625 -80C603 -100 571 -124 535 -149C608 -200 697 -281 744 -352L694 -370L681 -367H244V-309H631C591 -264 535 -215 485 -182C450 -205 413 -227 379 -245L331 -205C415 -157 518 -86 572 -37H157V-727H842V-461C721 -507 593 -594 527 -661C535 -672 543 -683 551 -695L496 -723C423 -608 293 -513 158 -456C173 -444 197 -418 209 -403C252 -425 296 -452 338 -481V-430H649V-485H343C397 -523 447 -567 491 -616C562 -548 684 -457 798 -409C809 -425 828 -449 842 -460V-37ZM86 -796V76H157V27H842V76H916V-796Z"/>
</svg>