<svg xmlns="http://www.w3.org/2000/svg" viewBox="0 -1000 1000 1000">
	<path fill="#000000" d="M271 -674V-239H143V-674ZM339 -167V-746H76V-90H143V-167ZM786 -7C762 -7 758 -12 758 -43V-444L843 -453C860 -424 873 -397 884 -375L950 -414C912 -487 833 -610 773 -704L712 -671C742 -624 776 -568 807 -515L475 -486C540 -579 606 -700 659 -818L579 -844C533 -713 452 -573 426 -538C402 -502 383 -476 364 -471C373 -451 385 -413 389 -397C405 -404 426 -408 510 -418C500 -197 469 -56 266 21C283 34 305 63 313 81C535 -9 574 -173 586 -426L685 -437V-43C685 37 703 61 776 61H870C935 61 954 20 960 -130C940 -136 911 -147 895 -161C892 -30 887 -7 863 -7Z"/>
</svg>