<svg xmlns="http://www.w3.org/2000/svg" viewBox="0 -1000 1000 1000">
	<path fill="#000000" d="M440 -640H854V-526H925V-707H694C684 -747 667 -798 650 -840L579 -827C593 -790 608 -745 618 -707H371V-516H440ZM358 -245C319 -231 280 -216 242 -202V-524H335V-594H242V-826H172V-594H55V-524H172V-177C122 -158 76 -143 39 -131L63 -55C151 -90 265 -135 372 -178ZM757 -366C740 -283 713 -216 673 -162C620 -191 565 -217 513 -241C531 -279 550 -321 569 -366ZM954 -366V-434H844C848 -459 851 -487 854 -515L776 -518C774 -489 771 -460 768 -434H596C618 -489 636 -546 651 -597L578 -608C563 -554 543 -494 520 -434H352V-366H492C467 -307 441 -253 416 -211C482 -183 553 -147 623 -109C554 -50 460 -13 330 11C343 28 360 60 365 78C509 45 613 -1 688 -72C773 -23 849 29 899 72L946 8C895 -33 820 -81 737 -128C783 -191 813 -268 834 -366Z"/>
</svg>