<svg xmlns="http://www.w3.org/2000/svg" viewBox="0 -1000 1000 1000">
	<path fill="#000000" d="M691 -690C674 -652 652 -610 630 -579H467C488 -614 508 -651 526 -690ZM947 -513V-579H707C736 -624 764 -679 783 -726L736 -755L725 -752H553C562 -775 570 -798 578 -821L508 -838C472 -723 412 -610 342 -530V-594H239V-824H170V-594H56V-525H170V-217C120 -195 74 -175 37 -161L65 -87C151 -128 264 -180 370 -231L354 -297L239 -247V-525H338C329 -515 319 -505 310 -496C328 -485 356 -461 369 -448C379 -459 389 -470 399 -482V-362C399 -241 388 -81 291 33C307 42 335 65 346 77C449 -45 468 -229 468 -361V-513ZM664 -7C617 -7 607 -15 607 -49V-371H802V-222C802 -211 799 -208 787 -208C774 -207 735 -207 688 -208C698 -191 708 -167 712 -148C773 -148 814 -148 838 -159C863 -170 868 -188 868 -221V-435H539V-48C539 36 567 58 658 58H837C917 58 939 23 948 -99C928 -103 900 -115 884 -127C880 -26 873 -7 832 -7Z"/>
</svg>