<svg xmlns="http://www.w3.org/2000/svg" viewBox="0 -1000 1000 1000">
	<path fill="#000000" d="M861 -793C845 -760 813 -710 787 -678L834 -657C861 -685 895 -727 925 -767ZM923 -546C876 -580 790 -634 721 -673C740 -718 749 -772 753 -837H684C674 -686 641 -610 475 -568C488 -555 507 -529 514 -513C601 -537 657 -571 692 -619C759 -578 834 -527 875 -496ZM916 -308V-494H87V-308H159V-429H842V-308ZM613 -674C603 -704 577 -756 556 -794L504 -777C523 -738 548 -684 560 -653ZM422 -788C407 -756 379 -707 356 -676L401 -656C425 -683 455 -724 482 -763ZM197 -677C185 -706 157 -755 134 -791L83 -773C105 -735 131 -685 145 -654ZM456 -567C421 -595 355 -639 303 -670C319 -715 326 -770 330 -837H264C256 -673 225 -600 50 -559C63 -546 81 -520 87 -505C183 -529 239 -565 276 -616C324 -584 379 -546 408 -519ZM535 -19V-194H832V-263H535V-389H461V-263H173V-194H461V-19H71V51H930V-19Z"/>
</svg>