<svg xmlns="http://www.w3.org/2000/svg" viewBox="0 -1000 1000 1000">
	<path fill="#000000" d="M472 -742H804V-527H871V-799H406V-527H472ZM770 -689H506V-646H770ZM506 -549H770V-593H506ZM854 -355H743V-441H854ZM688 -355H579V-441H688ZM524 -355H421V-441H524ZM917 -493H359V-303H917ZM348 -242L242 -203V-524H347V-594H242V-825H172V-594H49V-524H172V-177C122 -159 76 -143 39 -131L63 -56C148 -89 259 -132 362 -174ZM807 -192C767 -141 710 -101 643 -69C576 -102 521 -143 484 -192ZM869 -257L856 -254H370V-192H471L419 -172C456 -119 507 -75 567 -38C492 -13 408 5 320 17C332 30 351 61 358 78C459 62 555 38 642 1C723 38 817 64 916 78C926 60 943 31 959 17C874 6 792 -12 719 -37C803 -85 871 -148 914 -230Z"/>
</svg>