<svg xmlns="http://www.w3.org/2000/svg" viewBox="0 -1000 1000 1000">
	<path fill="#000000" d="M222 -197V-524H314V-594H222V-825H156V-594H55V-524H156V-172C112 -156 72 -142 39 -131L63 -56C140 -87 238 -127 330 -165L317 -233ZM855 -208C762 -108 562 -14 386 18C396 34 409 59 415 77C594 36 795 -64 899 -173ZM645 -372C593 -316 482 -259 388 -237C399 -223 411 -199 416 -183C514 -214 629 -280 687 -345ZM745 -290C673 -215 519 -142 390 -114C401 -100 414 -75 421 -59C552 -96 707 -176 788 -258ZM938 -464C925 -501 895 -562 869 -606L827 -590C834 -575 843 -559 852 -541L730 -529C749 -558 770 -594 785 -630L734 -653C720 -606 694 -559 687 -547C678 -534 671 -526 662 -524C665 -515 670 -502 673 -491L621 -506C618 -502 614 -499 610 -495C601 -526 579 -574 559 -610L516 -590C525 -573 535 -555 542 -536L418 -517C444 -547 470 -585 491 -623L446 -644C477 -650 549 -655 800 -670C813 -654 825 -637 833 -623L881 -659C854 -701 798 -766 754 -813L708 -782C726 -764 744 -741 763 -719L509 -706C551 -737 595 -777 636 -820L572 -842C532 -790 473 -741 455 -728C439 -716 424 -708 411 -705C417 -687 426 -653 430 -639C433 -640 435 -641 439 -642C418 -593 382 -546 370 -532C360 -519 350 -511 340 -509C345 -494 353 -463 356 -451C369 -459 393 -465 559 -493C562 -485 564 -476 566 -469L605 -490C546 -432 443 -379 308 -344C319 -330 333 -304 338 -287C464 -325 563 -375 635 -438C713 -373 834 -317 942 -287C946 -304 955 -333 965 -349C865 -369 753 -413 681 -467C695 -473 723 -479 872 -498C881 -478 888 -459 893 -444Z"/>
</svg>