<svg xmlns="http://www.w3.org/2000/svg" viewBox="0 -1000 1000 1000">
	<path fill="#000000" d="M747 -98C715 -127 668 -163 616 -199C667 -256 709 -323 737 -402L692 -427L678 -424H359V-365H644C621 -318 592 -275 557 -238C505 -271 450 -303 402 -330L363 -277C408 -252 457 -221 505 -189C438 -134 358 -92 273 -65C287 -52 307 -21 316 -3C406 -36 492 -82 565 -148C621 -108 672 -68 705 -36ZM692 -553C715 -624 739 -712 760 -785H108V-719H269V-689C269 -494 257 -205 43 27C62 36 91 57 104 71C326 -175 340 -482 340 -689V-719H670C648 -637 621 -546 599 -484H850C834 -177 817 -60 789 -30C778 -18 769 -16 749 -16C728 -16 676 -17 621 -21C633 0 642 31 643 54C697 57 752 58 781 55C814 51 833 43 854 18C890 -25 907 -155 925 -516C926 -526 926 -553 926 -553Z"/>
</svg>