<svg xmlns="http://www.w3.org/2000/svg" viewBox="0 -1000 1000 1000">
	<path fill="#000000" d="M537 -787C514 -671 458 -527 372 -443C389 -434 415 -413 427 -400C518 -492 578 -644 610 -772ZM282 -558C281 -461 274 -346 231 -234C198 -260 164 -287 132 -311C150 -380 167 -464 183 -551ZM413 -567L414 -632L348 -629V-696H282V-625L195 -621C208 -694 218 -766 225 -830L157 -833C151 -768 141 -693 130 -617C96 -616 66 -614 39 -613L47 -543L118 -547C99 -449 79 -356 59 -289C104 -254 155 -212 203 -171C167 -102 115 -34 39 27C56 36 80 59 90 74C164 13 217 -55 255 -124C292 -90 324 -57 347 -29L388 -89C364 -117 327 -152 285 -188C339 -318 347 -452 348 -562ZM453 -429V-360H565C544 -179 487 -54 357 18C373 31 398 59 408 74C548 -16 614 -152 638 -360H800C789 -123 775 -34 756 -11C746 0 738 1 723 1C706 1 667 1 624 -3C635 16 642 44 643 65C687 68 731 68 756 65C783 63 801 55 819 34C848 -1 860 -105 874 -395C875 -406 875 -429 875 -429ZM644 -802V-735H751C781 -601 836 -477 905 -402C918 -418 944 -442 961 -452C889 -523 829 -659 803 -802Z"/>
</svg>