<svg xmlns="http://www.w3.org/2000/svg" viewBox="0 -1000 1000 1000">
	<path fill="#000000" d="M847 -811C824 -768 790 -719 758 -683C775 -676 803 -662 817 -652C847 -689 885 -746 911 -793ZM566 -697C547 -727 507 -777 476 -814L422 -787C453 -749 491 -696 511 -664ZM275 -557V-554C275 -457 269 -341 226 -228C195 -256 162 -285 131 -310C147 -380 162 -464 176 -551ZM341 -561L395 -564L396 -630L341 -627V-696H275V-624L187 -620C198 -693 207 -765 212 -830L143 -833C138 -767 130 -691 119 -617L39 -613L47 -543L110 -547C95 -449 76 -356 59 -288C103 -251 152 -207 197 -163C162 -95 110 -30 34 30C51 40 74 64 84 78C158 19 210 -46 248 -113C280 -80 308 -47 329 -21L373 -79C351 -107 317 -142 279 -178C333 -308 341 -442 341 -554ZM544 -321C568 -352 588 -386 607 -422H728C745 -388 767 -353 792 -321ZM820 -288C853 -249 890 -217 925 -193C936 -210 957 -235 974 -247C909 -283 842 -351 798 -422H962V-486H635C647 -514 657 -545 667 -577H928V-639H682C696 -698 707 -762 715 -831L645 -837C637 -765 626 -700 612 -639H417V-577H595C585 -545 573 -514 561 -486H398V-422H527C485 -350 429 -291 355 -246C368 -231 387 -198 394 -182C424 -203 453 -224 478 -248V-53C478 27 509 47 609 47H821C908 47 929 15 939 -114C920 -117 893 -127 877 -139C872 -33 864 -16 816 -16H613C555 -16 545 -22 545 -53V-260H756V-163C756 -153 753 -150 741 -150C729 -149 693 -149 647 -150C655 -133 665 -112 667 -94C725 -94 764 -93 789 -104C814 -114 820 -130 820 -162Z"/>
</svg>