<svg xmlns="http://www.w3.org/2000/svg" viewBox="0 -1000 1000 1000">
	<path fill="#000000" d="M474 -187C476 -210 476 -233 476 -253V-269H605V-187ZM605 -404V-326H476V-404ZM663 -464H416V-254C416 -165 410 -49 358 38C372 45 397 64 407 76C445 16 461 -59 470 -131H605V2C605 11 602 13 593 14C584 14 556 14 525 13C533 30 541 56 542 72C586 72 618 71 637 61C658 50 663 33 663 2ZM855 -3C855 9 852 12 839 13C827 13 788 13 742 12C750 30 759 56 761 73C821 73 861 72 885 61C909 50 916 33 916 -3V-484H855ZM778 -453H720V-87H778ZM264 -558C263 -460 257 -344 216 -230C187 -257 157 -284 129 -309C144 -378 161 -464 176 -552ZM649 -842C592 -739 479 -635 373 -581V-630L326 -627V-696H264V-624L186 -620C197 -693 207 -765 213 -830L148 -833C143 -767 134 -692 123 -617L41 -613L49 -544L112 -548C96 -450 76 -356 59 -288C100 -252 146 -209 188 -167C156 -99 109 -32 42 27C58 36 79 57 90 70C154 12 201 -52 236 -118C270 -81 300 -46 321 -18L364 -73C341 -103 305 -142 265 -182C317 -314 326 -449 326 -562L371 -565C384 -553 398 -535 406 -523C434 -538 461 -555 488 -574V-535H822V-592H511C565 -634 615 -684 657 -738C729 -658 832 -580 918 -537C930 -553 950 -578 966 -590C872 -630 758 -712 693 -790C699 -800 705 -809 710 -818Z"/>
</svg>