<svg xmlns="http://www.w3.org/2000/svg" viewBox="0 -1000 1000 1000">
	<path fill="#000000" d="M635 -742H581V-551H523V-836H469V-551H407V-743H356V-494H635ZM241 -557C240 -461 233 -349 197 -237C172 -263 147 -288 123 -312C138 -381 154 -465 167 -552ZM321 -100C301 -125 274 -155 243 -188C289 -318 298 -449 299 -560L336 -563V-629L299 -627V-695H241V-623L178 -620C189 -694 198 -767 204 -832L145 -835C140 -769 132 -692 121 -617C91 -615 64 -614 39 -613L47 -544L111 -548C95 -450 76 -356 59 -289C94 -253 134 -211 172 -170C142 -100 99 -32 37 32C52 41 73 59 83 73C142 12 184 -53 216 -120C238 -94 259 -69 273 -49ZM336 -367H649V-427H336ZM385 -325C382 -166 371 -57 299 6C314 17 333 41 341 55C428 -20 444 -146 447 -325ZM607 -136V-327H548V-135C548 -96 532 -80 520 -73C530 -59 543 -31 547 -15C558 -29 578 -47 693 -120C687 -133 680 -156 675 -173ZM857 -574C848 -454 833 -349 805 -259C780 -346 763 -447 752 -553C754 -560 757 -567 759 -574ZM955 -574V-639H778C793 -699 806 -762 816 -826L751 -837C731 -689 697 -546 635 -452C648 -439 670 -408 678 -395C689 -412 699 -431 710 -451C724 -346 743 -252 772 -169C734 -88 682 -21 607 30C621 42 644 65 653 77C716 30 764 -27 801 -95C832 -29 869 26 916 67C926 49 947 24 963 11C909 -30 868 -92 836 -168C882 -279 905 -413 920 -574Z"/>
</svg>