<svg xmlns="http://www.w3.org/2000/svg" viewBox="0 -1000 1000 1000">
	<path fill="#000000" d="M280 -558C280 -462 273 -347 229 -233C198 -260 164 -286 133 -311C151 -379 169 -465 185 -551ZM413 -567L414 -631L347 -628V-696H280V-625L197 -621C210 -694 220 -765 227 -830L157 -833C151 -767 141 -692 130 -617C96 -616 66 -614 39 -613L47 -543L118 -547C99 -450 79 -357 59 -289C104 -254 154 -213 202 -170C166 -102 113 -34 37 27C54 37 79 60 89 75C164 14 217 -52 255 -122C292 -87 325 -53 348 -25L389 -84C365 -113 327 -149 285 -186C339 -317 347 -451 347 -562ZM491 -191V-301H635V-191ZM844 -301V-191H704V-301ZM970 48C942 -1 880 -76 828 -128L771 -102C790 -80 812 -56 831 -32L704 -27V-134H912V-359H704V-439H949V-501H577C637 -527 670 -560 686 -597H910V-797H843V-659H700V-672V-835H633V-672C633 -668 633 -663 633 -659H494V-797H429V-597H612C590 -567 545 -541 458 -526C464 -519 471 -511 479 -501H387V-439H635V-359H426V-134H635V-25C537 -21 447 -19 377 -17L383 49C513 44 698 36 877 27C890 46 901 64 910 79Z"/>
</svg>