<svg xmlns="http://www.w3.org/2000/svg" viewBox="0 -1000 1000 1000">
	<path fill="#000000" d="M870 -791C852 -757 817 -707 789 -675L836 -653C864 -682 901 -726 934 -766ZM931 -532C883 -571 794 -629 721 -669C737 -716 744 -771 748 -837H679C670 -669 639 -581 469 -533C483 -521 500 -496 507 -479C604 -508 661 -551 697 -612C766 -570 842 -518 883 -482ZM916 -322V-473H86V-322H157V-410H842V-322ZM626 -709C610 -734 577 -770 548 -797L500 -764C528 -736 561 -695 577 -670ZM433 -792C415 -759 382 -709 356 -679L401 -657C430 -686 464 -728 494 -768ZM205 -705C188 -730 154 -768 123 -795L76 -762C105 -733 139 -692 156 -666ZM469 -559C433 -591 363 -636 308 -667C322 -714 329 -770 333 -837H265C257 -663 227 -576 52 -528C65 -515 83 -490 89 -474C190 -504 249 -547 284 -610C336 -578 391 -538 421 -510ZM671 -226C638 -171 593 -127 535 -94C463 -112 389 -130 313 -147C334 -170 356 -198 380 -226ZM950 -226V-290H782C788 -306 793 -322 798 -340L728 -358C721 -334 714 -311 705 -290H427C448 -320 468 -350 484 -379L411 -398C393 -364 369 -327 343 -290H50V-226H294C260 -184 226 -145 194 -113C283 -95 368 -74 449 -53C354 -16 231 3 74 13C86 29 98 56 103 76C296 61 441 31 550 -25C668 8 772 43 849 74L913 23C836 -7 735 -39 622 -70C678 -111 721 -162 754 -226Z"/>
</svg>