<svg xmlns="http://www.w3.org/2000/svg" viewBox="0 -1000 1000 1000">
	<path fill="#000000" d="M451 -632H628V-412H696V-632H880V-546H945V-685H696V-743H930V-800H402V-743H628V-685H388V-546H451ZM453 -416C502 -432 552 -449 607 -468L603 -509C537 -493 478 -478 431 -469ZM460 -573C500 -560 550 -538 577 -521L604 -559C576 -575 525 -595 486 -606ZM421 -336H907V-390H421ZM892 -459C855 -475 785 -498 733 -512L714 -474C767 -458 837 -432 873 -416ZM832 -609C804 -594 751 -566 717 -555L741 -522C776 -533 826 -552 862 -573ZM269 -558C266 -459 255 -343 210 -228C181 -256 154 -284 126 -309C143 -378 160 -464 175 -552ZM329 -695H270V-624L185 -620C197 -694 206 -767 212 -832L149 -835C144 -769 134 -693 124 -618C92 -616 65 -615 39 -614L47 -545L113 -549C96 -451 77 -357 59 -289C97 -252 140 -208 181 -165C147 -97 100 -32 34 29C49 39 72 58 81 71C144 13 190 -51 226 -117C262 -76 295 -37 317 -7L365 -60C340 -93 300 -136 256 -181C312 -313 326 -448 328 -562L367 -565V-630L329 -628ZM952 -224V-279H378V-224H506C492 -183 474 -140 458 -107H532V-108H811C798 -37 787 -2 769 11C759 17 746 18 724 18C698 18 626 17 556 11C569 28 578 53 580 73C647 77 712 77 744 76C781 75 802 71 822 53C850 30 867 -22 883 -134C886 -142 887 -163 887 -163H555C563 -183 572 -203 580 -224Z"/>
</svg>