<svg xmlns="http://www.w3.org/2000/svg" viewBox="0 -1000 1000 1000">
	<path fill="#000000" d="M259 -558C257 -461 246 -347 204 -233C178 -259 151 -285 126 -308C141 -378 157 -464 172 -552ZM336 -90C316 -116 287 -148 254 -182C307 -314 320 -449 322 -562L368 -565V-630L323 -627V-694H260V-624L182 -620C193 -693 202 -766 207 -832L142 -835C137 -768 129 -692 118 -616C89 -615 63 -614 39 -613L47 -544L108 -548C93 -450 74 -357 56 -289C93 -253 136 -210 175 -168C143 -100 97 -34 34 27C51 37 73 57 85 72C145 13 190 -51 224 -116C250 -86 274 -59 291 -36ZM603 -599V-538L488 -529L493 -483L603 -492V-475C603 -418 617 -392 681 -392H826C853 -392 884 -393 898 -397C896 -413 895 -429 893 -447C877 -443 841 -442 822 -442H695C674 -442 670 -450 670 -474V-497L831 -510L826 -555L670 -542V-599H876C870 -571 863 -541 857 -521L913 -512C926 -545 941 -602 951 -650L906 -659L895 -657H668V-715H911V-768H668V-836H595V-657H397V-368C397 -244 389 -82 314 36C329 43 356 64 367 76C449 -49 462 -234 462 -368V-599ZM952 -157H840C857 -184 874 -220 893 -254L835 -273C824 -240 803 -191 786 -160L794 -157H744V-297C803 -304 859 -311 904 -320L864 -369C776 -351 619 -337 491 -331C498 -317 506 -296 508 -282C562 -283 621 -286 679 -291V-157H601L624 -166C616 -193 596 -234 573 -263L524 -246C541 -219 559 -183 568 -157H469V-101H679V4C679 15 676 18 664 19C652 19 614 20 570 18C579 35 587 58 590 76C649 76 688 75 712 66C737 56 744 40 744 6V-101H952Z"/>
</svg>