<svg xmlns="http://www.w3.org/2000/svg" viewBox="0 -1000 1000 1000">
	<path fill="#000000" d="M447 -818C431 -783 401 -730 378 -695L423 -676C449 -706 479 -751 508 -793ZM99 -668V-303H157V-612H274V-320H329V-612H447V-339H506V-569C523 -560 546 -541 556 -533C587 -567 617 -610 643 -659H811C797 -614 778 -573 754 -537C721 -562 686 -585 655 -606L611 -567C645 -544 681 -518 718 -490C667 -435 601 -392 522 -363C534 -351 552 -322 559 -309C642 -344 713 -390 768 -452C824 -406 875 -360 908 -324L956 -369C921 -406 865 -454 805 -500C836 -545 861 -598 878 -659H945V-718H673C687 -751 701 -787 712 -822L649 -836C619 -737 570 -640 506 -574V-668H334V-837H269V-668ZM437 -399C433 -442 414 -514 392 -571L350 -560C371 -503 388 -429 393 -384ZM206 -570C200 -511 188 -453 159 -410C172 -405 191 -395 199 -388C227 -433 242 -498 251 -563ZM220 -703C208 -735 179 -781 150 -814L98 -791C125 -756 153 -707 165 -676ZM663 -171C630 -129 589 -96 537 -70C466 -84 391 -98 318 -109C338 -128 361 -148 382 -171ZM725 -293C718 -271 710 -251 701 -232H440C462 -256 482 -282 500 -305L427 -328C407 -298 381 -264 352 -232H50V-171H297C262 -135 226 -100 194 -73C278 -60 360 -46 437 -31C340 -3 217 12 63 18C74 35 83 58 88 81C287 69 440 45 554 -6C679 20 787 50 865 78L933 28C854 2 748 -25 631 -51C678 -83 716 -122 746 -171H951V-232H777C783 -247 789 -261 794 -277Z"/>
</svg>