<svg xmlns="http://www.w3.org/2000/svg" viewBox="0 -1000 1000 1000">
	<path fill="#000000" d="M243 -561C241 -464 232 -349 194 -235C170 -260 144 -285 121 -308C135 -378 149 -464 162 -554ZM300 -695H244V-623L171 -619C179 -694 187 -767 192 -833L133 -835C131 -769 123 -692 114 -616L40 -613L47 -543L105 -549C91 -450 75 -356 59 -288C94 -254 135 -214 172 -174C142 -102 98 -31 38 35C52 43 73 61 83 72C141 9 183 -59 214 -128C245 -92 273 -59 293 -32L329 -86C308 -115 275 -151 238 -189C286 -322 297 -454 300 -567L333 -570L334 -628L300 -626ZM548 -807L538 -803H358V77H417V-742H520C505 -668 483 -569 461 -487C513 -397 525 -322 525 -262C525 -229 521 -193 509 -182C504 -176 494 -174 485 -174C473 -173 458 -173 441 -175C450 -159 456 -137 456 -122C473 -121 491 -121 506 -122C522 -125 537 -130 547 -139C569 -158 577 -205 577 -257C577 -323 565 -400 511 -492C537 -585 565 -698 585 -783ZM924 -372H629V-196C629 -120 624 -22 570 50C584 57 610 76 621 87C679 8 690 -108 690 -196V-317H862V-160C798 -141 736 -122 690 -111L714 -54C760 -72 810 -91 862 -111V8C862 17 859 20 849 21C840 22 809 22 773 21C781 36 790 60 792 77C842 77 876 76 897 66C918 56 924 40 924 8ZM701 -248C739 -231 787 -201 812 -182L844 -226C819 -245 773 -268 731 -287ZM959 -706V-764H763C771 -788 778 -810 784 -833L721 -844C716 -819 708 -791 699 -764H601V-706H676C646 -644 606 -584 555 -542C569 -533 589 -515 599 -504C628 -527 653 -556 676 -588V-578H755V-490H620V-437H955V-490H816V-578H925V-632H704C718 -655 731 -681 741 -706Z"/>
</svg>