<svg xmlns="http://www.w3.org/2000/svg" viewBox="0 -1000 1000 1000">
	<path fill="#000000" d="M781 -666H708V-756H781ZM658 -666H585V-756H658ZM535 -666H466V-756H535ZM835 -804H414V-618H835ZM266 -562C264 -462 252 -343 207 -226C179 -253 150 -281 123 -306C138 -376 152 -463 166 -553ZM346 -81C324 -108 291 -143 253 -181C309 -315 322 -453 324 -568L371 -572V-630L325 -627V-695H267V-624L174 -619C185 -694 193 -767 198 -833L137 -835C133 -769 125 -692 115 -616C88 -615 62 -614 39 -613L47 -543L107 -548C92 -450 75 -356 59 -289C97 -252 141 -210 181 -169C147 -98 99 -29 31 34C46 43 67 62 77 74C142 13 190 -54 226 -123C259 -87 289 -54 309 -27ZM938 -103V-157H673C677 -175 680 -196 682 -218H943V-273H455V-528H925V-818H868V-582H399V-218H617C615 -196 611 -175 607 -157H394V-103H587C552 -39 482 -8 336 12C349 25 365 52 370 68C545 39 624 -9 659 -103ZM546 -443H616V-353H546ZM666 -443H738V-353H666ZM788 -443H863V-353H788ZM916 -305V-491H494V-305ZM669 -52C758 -18 872 37 929 75L960 26C900 -12 786 -64 698 -96Z"/>
</svg>