<svg xmlns="http://www.w3.org/2000/svg" viewBox="0 -1000 1000 1000">
	<path fill="#000000" d="M876 -738C869 -670 863 -642 855 -632C850 -626 844 -624 833 -625C823 -625 800 -625 773 -628C781 -615 786 -594 787 -580C815 -578 844 -578 858 -580C879 -580 893 -585 905 -599C921 -616 930 -660 938 -771C939 -780 940 -796 940 -796H640V-738H721C710 -678 683 -633 624 -604C637 -596 654 -575 661 -562C734 -600 766 -658 778 -738ZM709 -247H864V-168H709ZM709 -374H864V-297H709ZM709 -501H864V-424H709ZM651 -117H923V-552H651ZM231 -559C229 -464 220 -353 187 -241C165 -264 143 -286 122 -306C136 -377 151 -464 163 -554ZM308 -110C290 -133 264 -161 236 -191C278 -322 289 -453 291 -563L333 -566V-628L292 -626V-695H232V-623L173 -619C181 -694 189 -767 194 -833L134 -835C131 -769 124 -692 114 -616L40 -613L47 -546L105 -550C91 -451 75 -357 59 -288C92 -255 131 -216 166 -178C138 -105 97 -33 40 35C55 43 78 63 89 75C143 11 183 -57 212 -128C233 -103 252 -82 265 -63ZM387 -531H451V-356H387ZM560 -356H499V-531H560ZM631 -145C613 -168 534 -253 507 -280V-301H613V-587H508V-673H634V-733H508V-838H444V-733H315V-673H444V-587H337V-301H438C403 -202 343 -102 281 -46C292 -31 307 -7 313 11C362 -32 408 -104 443 -181V76H507V-207C538 -168 575 -119 590 -93ZM704 -101C683 -57 639 0 600 35C614 46 634 65 644 77C683 40 730 -18 762 -69ZM810 -76C845 -32 884 31 901 72L958 45C941 6 901 -55 864 -99Z"/>
</svg>