<svg xmlns="http://www.w3.org/2000/svg" viewBox="0 -1000 1000 1000">
	<path fill="#000000" d="M267 -394C220 -288 143 -178 66 -108C84 -97 113 -72 127 -61C203 -137 285 -257 338 -372ZM462 -18C462 -3 457 1 441 1C425 2 372 2 314 1C325 21 338 54 341 74C413 74 464 73 494 60C525 49 535 27 535 -17V-515H462ZM651 -369C732 -277 822 -151 859 -71L926 -106C887 -187 794 -310 712 -399ZM509 -836C402 -673 216 -517 39 -427C59 -410 80 -383 94 -363C238 -444 388 -569 499 -709C630 -561 767 -459 914 -367C925 -391 949 -416 967 -432C814 -517 668 -620 540 -763C550 -777 560 -792 568 -806Z"/>
</svg>