<svg xmlns="http://www.w3.org/2000/svg" viewBox="0 -1000 1000 1000">
	<path fill="#000000" d="M953 -695H665L723 -725C709 -757 680 -805 654 -843L592 -814C614 -777 643 -727 655 -695H390V-626H953ZM734 -567C796 -504 871 -416 905 -361L963 -405C927 -458 850 -543 787 -603ZM519 -601C480 -526 418 -446 360 -392C377 -382 406 -360 419 -347C477 -406 543 -497 588 -579ZM267 -673V-256H146V-673ZM336 -742H77V-92H146V-187H336ZM760 -419C738 -339 703 -268 654 -206C606 -268 569 -338 543 -415L478 -396C510 -305 554 -222 608 -152C537 -79 446 -21 337 23C353 36 373 62 382 78C491 33 581 -26 653 -99C725 -21 813 38 916 77C927 57 948 29 965 15C861 -18 772 -76 701 -152C757 -222 800 -306 829 -401Z"/>
</svg>