<svg xmlns="http://www.w3.org/2000/svg" viewBox="0 -1000 1000 1000">
	<path fill="#000000" d="M280 -829C261 -792 234 -752 203 -713C177 -752 145 -789 105 -826L54 -788C99 -747 132 -703 158 -659C118 -616 74 -576 30 -543C47 -531 69 -511 80 -496C117 -526 155 -558 189 -594C208 -546 219 -497 225 -446C180 -363 103 -275 33 -230C51 -216 70 -191 82 -173C133 -213 188 -275 233 -338C233 -327 233 -315 233 -303C233 -173 224 -50 200 -18C192 -7 182 -3 168 -1C148 1 111 2 68 -1C81 19 88 46 89 70C127 71 165 71 197 65C221 61 240 50 253 34C293 -23 302 -158 302 -302C302 -424 293 -539 240 -649C280 -696 317 -747 345 -797ZM833 -45H672V-325H602V-45H441V-277H370V22H833V71H903V-282H833ZM574 -423C580 -459 587 -502 594 -546H789C784 -504 778 -461 773 -423ZM807 -722C804 -689 800 -650 796 -610H604C610 -648 615 -687 620 -722ZM866 -610C873 -673 879 -734 883 -784L831 -789L819 -786H379V-722H548C543 -687 538 -648 533 -610H328V-546H523C516 -502 509 -459 503 -423H366V-359H902V-423H844C850 -462 855 -504 860 -546H957V-610Z"/>
</svg>