<svg xmlns="http://www.w3.org/2000/svg" viewBox="0 -1000 1000 1000">
	<path fill="#000000" d="M882 -798H806V-679H536V-837H461V-679H201V-798H128V-614H882ZM546 -565C517 -459 467 -357 402 -290C418 -282 446 -263 458 -252C521 -325 578 -436 611 -551ZM421 -206C402 -230 321 -322 288 -357V-393H426V-459H288V-590H217V-459H59V-393H203C165 -277 103 -159 39 -98C54 -86 77 -62 89 -46C135 -98 181 -177 217 -266V75H288V-273C321 -228 359 -174 376 -146ZM712 -198C743 -155 776 -105 804 -56L516 -30C577 -114 639 -222 688 -326L619 -350C574 -231 496 -104 473 -72C450 -38 432 -15 413 -12C422 6 433 38 437 52C462 41 502 36 837 2C851 26 862 49 870 68L935 36C903 -31 832 -141 772 -223ZM627 -573V-514H723C765 -413 834 -315 905 -256C917 -272 939 -297 954 -309C879 -364 805 -467 768 -573Z"/>
</svg>