<svg xmlns="http://www.w3.org/2000/svg" viewBox="0 -1000 1000 1000">
	<path fill="#000000" d="M944 -658H794C817 -704 844 -763 866 -813L798 -837C783 -784 753 -710 728 -658H571L617 -683C600 -723 567 -785 538 -832L482 -805C507 -761 539 -699 555 -658H394V-590H944ZM282 -138H231V-825H180V-138H125V-668H74V-72H282V-35H331V-669H282ZM557 -177C567 -144 577 -106 586 -68L456 -48C531 -159 603 -302 662 -443L604 -472C590 -430 572 -387 553 -346L463 -338C499 -400 534 -479 560 -555L502 -581C478 -493 434 -399 420 -375C406 -351 396 -333 383 -330C390 -312 399 -278 403 -263C414 -269 434 -273 525 -285C486 -203 449 -136 431 -111C404 -68 385 -39 367 -34C375 -15 385 19 388 33C403 24 428 17 599 -13C603 13 608 39 611 59L663 47C653 -17 630 -113 607 -189ZM957 44C943 -20 909 -117 880 -193L830 -177C843 -145 856 -106 868 -69L748 -49C816 -162 883 -307 934 -447L876 -476C863 -433 846 -389 831 -347L735 -339C768 -400 802 -478 826 -553L765 -580C745 -493 703 -401 691 -377C678 -353 667 -336 654 -333C661 -314 672 -280 675 -264C687 -271 707 -276 805 -288C771 -206 737 -139 722 -113C698 -70 680 -41 662 -36C670 -17 680 17 683 31C698 22 722 15 886 -14C894 14 900 40 905 62Z"/>
</svg>