<svg xmlns="http://www.w3.org/2000/svg" viewBox="0 -1000 1000 1000">
	<path fill="#000000" d="M677 -306C659 -234 606 -160 532 -118C543 -110 559 -89 567 -77C612 -103 650 -141 680 -184C723 -150 771 -108 797 -78L835 -117C806 -147 751 -193 705 -227C717 -250 725 -273 732 -296ZM544 -51C516 -51 509 -61 509 -90V-267H493C506 -283 519 -299 530 -317H886C875 -104 863 -22 845 -1C836 9 828 11 812 11C803 11 787 11 767 10C790 10 810 9 820 5C819 -11 815 -38 814 -56C796 -52 760 -51 737 -51ZM526 -594H832V-508H526ZM526 -733H832V-650H526ZM571 -382C584 -404 595 -428 606 -451H897V-790H463V-451H533C494 -374 439 -301 380 -249V-669H326V-136H259V-820H195V-136H129V-669H74V-70H326V-34H380V-231C393 -215 409 -193 416 -181C428 -192 438 -204 450 -215V-91C450 -16 470 10 545 10H711C720 29 726 54 727 74C772 76 817 77 840 75C867 72 884 65 900 44C927 11 940 -85 953 -349C954 -359 955 -382 955 -382Z"/>
</svg>