<svg xmlns="http://www.w3.org/2000/svg" viewBox="0 -1000 1000 1000">
	<path fill="#000000" d="M761 -136C647 -43 409 4 164 23C175 39 188 63 194 80C450 55 693 2 820 -105ZM536 -317C459 -263 322 -215 212 -189C225 -177 240 -159 250 -146C365 -177 502 -230 589 -291ZM641 -224C548 -163 373 -116 224 -94C238 -81 251 -60 261 -46C414 -75 590 -126 695 -195ZM931 -348C914 -385 873 -436 833 -471L788 -447C799 -437 811 -424 823 -411L688 -404C712 -430 738 -462 757 -495L691 -519C671 -474 635 -430 624 -418C612 -406 602 -399 591 -396V-395C570 -411 552 -427 535 -442C541 -450 547 -458 552 -466L486 -486C459 -447 425 -412 384 -381C370 -408 347 -442 324 -468L277 -449C287 -436 298 -423 308 -408L186 -403C213 -429 241 -461 264 -493L218 -511C259 -517 357 -520 744 -537C776 -516 803 -496 824 -477L872 -517C820 -561 722 -619 637 -652L590 -617C614 -607 639 -597 663 -584L351 -573C399 -592 446 -615 493 -643L436 -670H893V-813H817V-725H535V-837H462V-725H185V-813H112V-670H423C357 -628 270 -592 245 -583C219 -573 198 -568 179 -566C184 -553 192 -533 197 -517C172 -473 133 -429 122 -418C110 -406 97 -399 86 -396C94 -382 105 -353 109 -339C125 -345 154 -349 335 -359L340 -349C254 -294 148 -253 38 -226C50 -212 71 -183 78 -169C236 -215 391 -288 496 -396C602 -300 769 -220 920 -181C930 -197 950 -224 967 -237C864 -260 755 -299 665 -349C700 -352 756 -357 859 -364C869 -348 877 -335 883 -322Z"/>
</svg>