<svg xmlns="http://www.w3.org/2000/svg" viewBox="0 -1000 1000 1000">
	<path fill="#000000" d="M303 -136H248V-821H188V-136H129V-669H74V-71H303V-34H357V-669H303ZM802 -249V-162H515V-249ZM515 -26V-109H802V-26ZM448 73H515V32H802V69H870V-308H448ZM492 -600C518 -554 544 -492 554 -454L600 -472C588 -508 561 -568 536 -613ZM757 -455C779 -492 805 -547 828 -596L779 -612C765 -570 736 -508 714 -470ZM849 -420H684V-648H849ZM469 -648H630V-420H469ZM776 -706C799 -738 822 -779 845 -815L774 -839C760 -800 731 -745 708 -706H547L600 -727C588 -757 563 -804 536 -837L475 -817C498 -783 522 -737 532 -706H407V-362H914V-706Z"/>
</svg>