<svg xmlns="http://www.w3.org/2000/svg" viewBox="0 -1000 1000 1000">
	<path fill="#000000" d="M664 -352V-298H952V-352H835V-431H936V-484H835V-549H777V-484H684V-431H777V-352ZM944 -622H702V-702H887V-759H702V-835H632V-759H452V-702H632V-622H404V-565H944ZM382 -334L394 -277C466 -288 556 -301 646 -316L644 -366L555 -355V-431H637V-484H555V-549H496V-484H404V-431H496V-348ZM303 -138H244V-824H185V-138H125V-667H74V-72H303V-35H354V-668H303ZM805 5C783 5 779 2 779 -19V-181H957V-244H394V-181H546C532 -72 492 -13 358 22C372 35 390 61 397 78C549 33 597 -47 612 -181H711V-19C711 46 727 64 796 64H886C941 64 959 37 965 -71C946 -76 919 -86 905 -97C903 -8 899 5 878 5Z"/>
</svg>