<svg xmlns="http://www.w3.org/2000/svg" viewBox="0 -1000 1000 1000">
	<path fill="#000000" d="M265 -652V-235H143V-652ZM331 -166V-721H77V-71H143V-166ZM859 -381C762 -211 558 -62 323 18C338 34 358 62 369 81C491 36 603 -25 699 -99C769 -43 845 24 887 67L943 18C900 -25 821 -90 752 -141C825 -205 888 -276 936 -352ZM707 -706L720 -710C711 -745 687 -801 661 -842L590 -823C609 -787 629 -741 640 -706H369V-637H578C541 -581 478 -495 456 -474C439 -456 407 -448 388 -443C395 -427 407 -390 411 -371C431 -379 461 -384 664 -398C583 -317 477 -247 363 -199C377 -185 397 -157 406 -141C596 -225 760 -368 854 -526L783 -552C767 -523 747 -493 725 -465L533 -454C573 -508 625 -582 663 -637H946V-706Z"/>
</svg>