<svg xmlns="http://www.w3.org/2000/svg" viewBox="0 -1000 1000 1000">
	<path fill="#000000" d="M470 -410H570V-289H470ZM626 -231V-467H415V-231H485C456 -125 406 -31 337 30C351 40 378 62 387 74C434 30 473 -28 503 -96C539 -65 576 -30 596 -6L641 -52C616 -80 567 -121 527 -152C537 -177 545 -204 551 -231ZM739 -410H847V-289H739ZM904 -231V-467H684V-231H756C729 -122 677 -28 606 33C621 43 646 65 657 77C703 34 742 -22 772 -87C821 -40 873 14 900 51L951 7C919 -33 854 -98 798 -147C808 -174 817 -202 824 -231ZM538 -587C580 -628 616 -675 647 -726C682 -676 725 -630 778 -587ZM634 -844C582 -712 479 -599 352 -533V-669H298V-136H242V-825H185V-136H128V-668H74V-71H298V-35H352V-525C367 -511 383 -493 392 -478C433 -499 471 -526 505 -557V-529H798V-571C834 -543 876 -516 923 -490C931 -509 951 -531 968 -546C833 -613 740 -690 679 -787C685 -799 690 -811 695 -823Z"/>
</svg>