<svg xmlns="http://www.w3.org/2000/svg" viewBox="0 -1000 1000 1000">
	<path fill="#000000" d="M875 -641C899 -669 928 -713 955 -750L904 -776C890 -744 860 -693 839 -662ZM943 -512C916 -546 861 -601 815 -642C831 -697 838 -762 841 -834H783C777 -682 756 -573 655 -513C667 -503 684 -483 691 -470C740 -499 773 -538 796 -586C835 -548 876 -503 899 -472ZM936 -308V-458H400V-308H464V-398H870V-308ZM763 -684C751 -710 724 -754 704 -787L674 -773L643 -788C630 -756 603 -705 583 -674L616 -655C634 -678 656 -712 676 -745C694 -715 712 -680 722 -658ZM675 -546C650 -573 599 -614 557 -644C571 -699 578 -763 581 -835H524C519 -680 499 -570 400 -511C413 -501 430 -482 436 -469C486 -499 518 -540 540 -592C575 -563 613 -529 634 -505ZM488 -681C478 -708 453 -753 432 -786L389 -766C409 -731 432 -684 444 -655ZM304 -138H245V-822H186V-138H126V-669H74V-72H304V-34H356V-669H304ZM551 -166C512 -100 440 -35 370 -2C384 9 405 34 416 51C490 11 565 -67 607 -147ZM946 -203V-265H702V-347H633V-265H403V-203H633V77H702V-203ZM735 -129C800 -73 877 5 913 55L963 13C926 -37 847 -112 782 -166Z"/>
</svg>