<svg xmlns="http://www.w3.org/2000/svg" viewBox="0 -1000 1000 1000">
	<path fill="#000000" d="M906 -467V-510H732V-540H670V-434C670 -378 688 -366 760 -366H877C927 -366 944 -382 949 -440C933 -444 910 -451 898 -459C895 -418 890 -412 870 -412H766C738 -412 732 -414 732 -434V-467ZM709 -748C687 -731 660 -714 636 -701H460C479 -716 496 -732 511 -748ZM830 -598H465V-657H830ZM400 -555H897V-701H730C761 -721 790 -743 814 -766L776 -796L763 -793H551C561 -805 570 -817 578 -828L511 -840C476 -787 411 -727 325 -681C342 -673 363 -655 374 -640C382 -645 391 -651 400 -657ZM325 -34V-668H275V-138H225V-821H169V-138H118V-668H68V-72H275V-34ZM471 -137V-206H625C621 -180 615 -158 606 -137ZM709 -298C690 -282 668 -267 644 -254H471C489 -269 504 -283 518 -298ZM854 -137H673C680 -159 686 -181 690 -206H854ZM743 19C707 19 701 16 701 -6V-90H920V-254H738C765 -275 789 -298 806 -322L765 -347L756 -344H558C567 -356 575 -366 582 -378L540 -386L640 -403C640 -413 640 -435 642 -449L481 -426V-467H637V-511H481V-539H418V-467C418 -429 400 -417 387 -411C396 -398 407 -372 411 -356C422 -362 439 -367 510 -380C474 -329 411 -270 329 -226C343 -217 364 -199 375 -185C386 -192 397 -199 408 -206V-90H579C536 -34 460 2 324 25C335 37 351 61 356 77C506 48 590 4 638 -65V-6C638 50 659 63 736 63H879C933 63 951 44 957 -32C941 -35 919 -41 906 -50C903 10 897 19 871 19ZM878 -30C854 -49 809 -73 774 -89L739 -55C776 -37 820 -10 843 7Z"/>
</svg>