<svg xmlns="http://www.w3.org/2000/svg" viewBox="0 -1000 1000 1000">
	<path fill="#000000" d="M369 -680L359 -677H77V-621H314C254 -550 152 -502 44 -475C57 -465 76 -437 82 -423C219 -462 347 -534 408 -658ZM846 -404H138V-345H846ZM356 -1C244 -1 224 -8 224 -40V-107H818V-286H141V-229H745V-164H151V-39C151 44 197 60 360 60H757C882 60 912 36 925 -72C904 -76 876 -84 857 -94C849 -14 836 -1 753 -1ZM857 -735C814 -700 745 -655 686 -621C666 -644 648 -668 634 -695C688 -717 740 -742 783 -770L739 -808L724 -804H188V-748H629C579 -725 520 -702 469 -687V-504C469 -494 466 -490 453 -489C441 -489 404 -488 357 -490C367 -473 377 -450 380 -431C441 -431 480 -431 506 -441C533 -451 540 -467 540 -502V-659C554 -663 566 -668 580 -673C643 -552 762 -465 910 -426C920 -444 939 -469 953 -482C865 -500 788 -535 728 -583C788 -614 856 -654 912 -693Z"/>
</svg>