<svg xmlns="http://www.w3.org/2000/svg" viewBox="0 -1000 1000 1000">
	<path fill="#000000" d="M187 -693H946V-754H583C572 -781 557 -815 544 -842L471 -825C481 -803 492 -778 500 -754H117V-466C117 -320 109 -115 31 31C47 37 79 58 91 70C174 -82 187 -311 187 -466ZM926 -440V-495H588V-564H849V-618H588V-674H518V-618H275V-564H518V-495H212V-440H424C399 -373 341 -329 210 -304C223 -292 240 -268 246 -253C395 -287 462 -345 492 -440H600V-390C600 -328 616 -305 681 -305H820C846 -305 875 -305 887 -309C885 -325 883 -346 882 -363C867 -359 834 -358 817 -358H687C666 -358 662 -366 662 -389V-440ZM696 -189C659 -146 610 -110 552 -81C497 -106 450 -135 412 -166C420 -174 428 -181 436 -189ZM757 -250L743 -246H487C504 -269 520 -291 534 -314L462 -326C441 -288 410 -248 367 -211C357 -221 348 -233 340 -245L291 -213C300 -200 310 -186 321 -173C288 -151 250 -128 209 -110C225 -100 248 -78 257 -63C297 -83 332 -105 365 -128C397 -100 435 -73 478 -49C385 -14 278 8 170 19C183 33 197 60 203 77C326 60 447 32 552 -14C650 28 770 58 910 74C918 55 934 28 947 12C824 1 717 -20 627 -52C700 -95 761 -151 801 -223Z"/>
</svg>