<svg xmlns="http://www.w3.org/2000/svg" viewBox="0 -1000 1000 1000">
	<path fill="#000000" d="M884 -323C908 -374 935 -459 954 -530L909 -544L897 -541H679C691 -578 700 -617 708 -658L644 -669C624 -556 587 -445 536 -372C551 -365 579 -348 591 -337C618 -376 641 -426 661 -482H876C863 -431 847 -377 831 -341ZM553 -84L421 -60V-285H548V-342H421V-422H511V-478H295C326 -509 355 -546 379 -585C436 -552 496 -507 528 -475L569 -524C534 -558 466 -604 406 -636C410 -645 414 -654 418 -662L357 -677C324 -593 259 -519 185 -471V-685H942V-750H574C559 -780 537 -816 513 -843L450 -815C465 -795 481 -773 493 -750H115V-445C115 -301 109 -103 36 39C53 46 83 65 96 77C174 -72 185 -292 185 -445V-454C197 -441 210 -422 216 -413C232 -424 247 -435 261 -448V-422H359V-342H221V-285H359V-49C297 -37 239 -27 194 -20L207 42C303 24 434 -2 557 -28ZM227 -234C251 -183 270 -116 274 -72L326 -88C320 -132 300 -199 275 -249ZM494 -89C512 -127 534 -187 552 -238L496 -257C487 -212 466 -146 449 -105ZM702 -446C693 -209 646 -55 495 32C510 42 538 66 546 78C643 15 701 -72 734 -192C773 -75 832 20 913 78C923 60 944 35 960 24C856 -41 792 -175 760 -332C764 -367 767 -404 769 -444Z"/>
</svg>