<svg xmlns="http://www.w3.org/2000/svg" viewBox="0 -1000 1000 1000">
	<path fill="#000000" d="M371 -674C332 -599 267 -523 202 -473C217 -462 245 -442 257 -430C285 -453 314 -484 342 -516H927V-579H391C408 -603 424 -629 438 -654L375 -674H950V-744H581C567 -774 548 -812 530 -840L456 -819C469 -797 482 -769 494 -744H117V-470C117 -321 111 -106 37 45C56 51 89 68 103 79C179 -80 190 -312 190 -471V-674ZM252 80C300 35 341 -33 372 -87L312 -117C285 -65 241 1 192 41ZM444 -88C456 -39 465 27 466 69L531 57C529 15 518 -49 504 -98ZM608 -88C634 -39 657 27 666 70L729 51C719 9 695 -57 667 -105ZM776 -99C819 -46 866 29 887 76L950 48C929 1 882 -70 838 -122ZM384 -326H473V-201H384ZM620 -326V-201H531V-326ZM768 -326V-201H678V-326ZM831 -201V-326H928V-388H831V-495H768V-388H678V-495H620V-388H531V-495H473V-388H384V-494H323V-388H245V-326H323V-201H222V-137H953V-201Z"/>
</svg>