<svg xmlns="http://www.w3.org/2000/svg" viewBox="0 -1000 1000 1000">
	<path fill="#000000" d="M921 -506C857 -546 741 -601 648 -641C652 -649 655 -659 658 -669H933V-733H674C679 -763 683 -796 686 -831H611C608 -795 605 -762 599 -733H343V-669H581C546 -585 476 -532 322 -499C335 -487 354 -459 361 -442C493 -472 571 -518 618 -585C711 -543 817 -488 873 -450ZM252 -836C205 -758 116 -662 38 -601C51 -589 70 -563 79 -547C164 -616 258 -720 319 -810ZM270 -620C214 -508 121 -397 31 -323C45 -307 66 -273 74 -257C109 -289 146 -326 180 -366V76H250V-456C282 -502 312 -550 336 -597ZM620 -242V-122H452V-242ZM687 -66V-298H386V-8H452V-66ZM957 -434H302V-368H798V-7C798 8 793 12 775 13C759 14 698 14 631 12C641 32 652 59 654 78C742 78 796 78 829 67C860 56 871 37 871 -6V-368H957Z"/>
</svg>