<svg xmlns="http://www.w3.org/2000/svg" viewBox="0 -1000 1000 1000">
	<path fill="#000000" d="M93 -369C118 -441 137 -556 142 -637L84 -645C77 -565 59 -456 33 -390ZM176 76H248V-837H176ZM253 -654C282 -597 312 -521 324 -475L378 -502C367 -546 335 -620 304 -676ZM824 -265V-40H487V-265ZM415 76H487V28H824V72H898V-332H415ZM385 -788V-719H556C538 -596 494 -486 353 -427C370 -414 391 -387 399 -369C558 -442 610 -569 630 -719H837C828 -555 818 -490 802 -472C794 -463 785 -462 769 -462C754 -462 712 -462 667 -466C680 -447 688 -418 689 -396C734 -394 779 -394 802 -396C829 -398 847 -405 863 -425C890 -454 900 -537 911 -755C912 -766 912 -788 912 -788Z"/>
</svg>