<svg xmlns="http://www.w3.org/2000/svg" viewBox="0 -1000 1000 1000">
	<path fill="#000000" d="M816 -664H500V-745H816ZM816 -525H500V-609H816ZM887 -803H430V-468H887ZM82 -367C119 -434 135 -548 135 -638L83 -645C81 -558 65 -450 31 -390ZM181 75H252V-837H181ZM384 -494C374 -541 341 -617 308 -675L262 -654C293 -595 325 -517 335 -469ZM959 -355V-418H334V-355H487C441 -278 372 -198 310 -155C328 -144 348 -125 360 -110C397 -140 437 -183 473 -229H559C510 -141 433 -50 362 -3C379 8 400 27 412 42C490 -18 576 -128 624 -229H715C676 -124 612 -19 542 35C561 45 581 65 593 80C667 13 738 -111 775 -229H862C848 -76 831 -14 814 5C806 14 798 16 784 15C769 15 739 15 704 12C714 28 720 55 721 74C759 76 793 76 814 74C837 72 854 66 869 49C898 19 915 -59 932 -262C934 -272 935 -292 935 -292H518C531 -313 544 -334 554 -355Z"/>
</svg>