<svg xmlns="http://www.w3.org/2000/svg" viewBox="0 -1000 1000 1000">
	<path fill="#000000" d="M92 -370C115 -444 131 -559 135 -638L81 -645C74 -566 58 -456 36 -389ZM160 76H228V-836H160ZM243 -664C259 -619 277 -558 284 -521L338 -546C331 -580 312 -638 294 -683ZM440 -137C403 -83 343 -27 285 10C301 19 327 39 340 51C397 9 462 -56 505 -118ZM850 -191C867 -169 880 -148 890 -130L942 -162C917 -212 854 -284 800 -336L751 -306C770 -288 789 -266 808 -245L498 -234C596 -275 694 -325 789 -386L738 -430C710 -410 681 -391 650 -373L501 -370C546 -392 591 -418 633 -447L616 -459H935V-518H659V-585H880V-640H659V-702H904V-759H659V-833H589V-759H359V-702H589V-640H386V-585H589V-518H314V-459H548C495 -422 436 -392 415 -383C393 -372 373 -366 357 -364C363 -347 372 -316 375 -303C391 -308 414 -312 550 -317C493 -288 445 -265 422 -257C379 -239 346 -227 320 -225C327 -208 336 -174 339 -161C360 -167 390 -171 586 -180V10C586 19 583 21 573 22C564 22 532 22 498 21C506 38 514 61 517 79C569 79 603 78 625 68C648 58 654 42 654 10V-183ZM728 -109C783 -61 850 7 880 51L938 16C906 -29 838 -95 782 -140Z"/>
</svg>