<svg xmlns="http://www.w3.org/2000/svg" viewBox="0 -1000 1000 1000">
	<path fill="#000000" d="M81 -366C117 -435 134 -548 134 -638L83 -645C81 -557 65 -450 31 -390ZM171 76H242V-837H171ZM251 -660C277 -603 303 -526 310 -479L360 -502C352 -547 326 -620 297 -678ZM461 -199V-317H602V-199ZM819 -317V-199H670V-317ZM753 -107C773 -86 795 -62 815 -38L670 -32V-139H890V-377H670V-463H602V-377H393V-139H602V-30C495 -26 397 -23 323 -21L334 46C471 40 673 31 863 21C879 42 892 60 902 76L962 45C931 -4 864 -80 809 -133ZM614 -734L578 -709C610 -686 647 -652 665 -629L707 -661C689 -683 654 -713 623 -734H804C767 -675 715 -625 653 -585C590 -625 539 -675 505 -734ZM859 -800L846 -797H362V-734H488L443 -718C480 -653 531 -596 592 -551C512 -508 421 -480 329 -463C341 -449 357 -421 364 -403C466 -425 566 -459 654 -509C733 -464 826 -432 928 -412C937 -431 956 -458 971 -473C877 -488 791 -513 717 -550C798 -607 863 -683 905 -778ZM371 -633C397 -598 431 -551 448 -522L490 -550C474 -576 439 -622 411 -656Z"/>
</svg>