<svg xmlns="http://www.w3.org/2000/svg" viewBox="0 -1000 1000 1000">
	<path fill="#000000" d="M758 -374C720 -410 650 -463 589 -504C632 -530 682 -564 722 -598L681 -627C651 -600 602 -562 559 -534C539 -563 513 -591 478 -617C492 -625 506 -634 519 -644H734V-691H259V-644H447C388 -609 310 -579 240 -560C250 -550 266 -530 272 -520C324 -538 382 -563 435 -591C449 -581 462 -570 473 -560C417 -519 319 -478 244 -459C256 -451 269 -433 275 -421C350 -445 441 -488 501 -529C509 -518 516 -507 521 -496C456 -438 332 -380 234 -354C246 -344 259 -325 265 -311C357 -342 467 -397 539 -454C552 -404 542 -362 520 -347C508 -337 496 -336 480 -336C465 -336 442 -336 420 -339C428 -324 434 -301 434 -286C455 -284 474 -284 490 -284C517 -285 539 -290 561 -310C592 -333 607 -383 597 -440C645 -405 692 -366 720 -338ZM787 -266H209V-742H787ZM856 -800H142V-208H856ZM439 -171C474 -137 518 -88 539 -59L592 -95C569 -124 524 -170 490 -203ZM117 34C156 -13 185 -86 206 -143L144 -169C125 -114 93 -44 55 -2ZM420 -5C363 -5 353 -10 353 -34V-159H281V-33C281 38 310 56 415 56H619C704 56 726 28 735 -88C715 -92 687 -102 671 -112C666 -19 658 -5 613 -5ZM776 -148C809 -95 849 -20 868 25L936 -3C917 -46 875 -118 841 -171Z"/>
</svg>