<svg xmlns="http://www.w3.org/2000/svg" viewBox="0 -1000 1000 1000">
	<path fill="#000000" d="M931 -706C914 -739 873 -787 835 -819L785 -791C822 -757 862 -707 878 -674ZM530 -655V-592H675C664 -497 627 -385 505 -303C522 -291 545 -269 555 -253C657 -329 708 -423 731 -514C797 -427 867 -326 900 -260L960 -298C920 -375 828 -499 752 -589L745 -585L746 -592H946V-655H751C751 -666 751 -675 751 -685V-836H680V-685C680 -675 680 -666 680 -655ZM431 -222C475 -188 530 -141 558 -111L607 -159C578 -187 522 -231 479 -263ZM419 -673C406 -607 381 -552 334 -513C348 -505 370 -488 379 -480C398 -498 415 -519 430 -543C455 -518 481 -488 494 -467L534 -500C518 -526 484 -563 451 -589C461 -614 469 -639 474 -666ZM238 -511C226 -532 199 -563 174 -586C184 -611 190 -638 196 -666L141 -673C128 -599 97 -534 47 -490C60 -481 83 -465 91 -456C115 -478 136 -507 153 -539C170 -519 187 -498 195 -481ZM124 22C174 -36 211 -128 237 -201L170 -226C147 -156 108 -69 58 -14ZM331 -255V-426C378 -393 442 -343 470 -319L507 -371C479 -391 365 -466 332 -484L331 -483V-697H532V-758H331V-837H263V-758H66V-697H263V-533C217 -444 131 -355 46 -314C61 -303 80 -280 90 -265C152 -300 215 -362 263 -430V-255ZM430 -14C375 -14 364 -19 364 -46V-231H292V-45C292 33 319 54 425 54H618C708 54 731 22 742 -113C721 -118 690 -129 673 -140C668 -30 660 -14 612 -14ZM756 -212C804 -151 858 -68 880 -15L948 -51C922 -102 865 -184 819 -242Z"/>
</svg>