<svg xmlns="http://www.w3.org/2000/svg" viewBox="0 -1000 1000 1000">
	<path fill="#000000" d="M856 -633H751V-746H856ZM696 -633H595V-746H696ZM540 -633H442V-746H540ZM924 -801H376V-578H924ZM89 -368C117 -440 133 -554 137 -637L82 -645C76 -563 59 -454 32 -390ZM173 76H243V-836H173ZM368 -486C357 -534 329 -613 302 -675L253 -656C278 -595 306 -512 315 -463ZM954 -392H678V-456H897V-512H678V-557H607V-512H400V-456H607V-392H316V-333H505L462 -319C477 -295 490 -264 499 -240H390V-181H607V-111H354V-53H607V77H678V-53H933V-111H678V-181H898V-240H790C803 -263 818 -288 833 -314L763 -332C754 -306 737 -269 721 -240H546L565 -247C557 -270 540 -306 524 -333H954Z"/>
</svg>