<svg xmlns="http://www.w3.org/2000/svg" viewBox="0 -1000 1000 1000">
	<path fill="#000000" d="M88 -371C111 -445 127 -559 131 -638L79 -645C72 -567 56 -457 34 -390ZM164 76H230V-837H164ZM343 -487C336 -533 312 -613 289 -676L240 -659C261 -597 283 -514 291 -465ZM775 -189C761 -171 736 -143 713 -122C693 -131 674 -139 654 -147V-249H589V-144L533 -121C516 -142 492 -167 469 -186L423 -156C443 -140 463 -117 479 -98C416 -72 360 -49 314 -32L343 22C414 -9 503 -50 589 -91V10C589 20 586 22 574 23C564 24 528 24 488 23C497 38 508 61 511 78C567 78 601 77 624 68C647 57 654 43 654 11V-93C739 -55 825 -9 878 28L911 -18C873 -44 820 -72 762 -100C783 -115 804 -135 827 -155ZM540 -410H707V-336H540ZM540 -531H707V-467H540ZM440 -641H804V-583H440ZM440 -746H804V-690H440ZM952 -280V-336H774V-410H910V-467H774V-531H875V-798H371V-531H472V-467H335V-410H472V-336H308V-280H464C407 -230 325 -184 253 -159C267 -148 286 -125 297 -109C380 -144 478 -211 537 -280H712C764 -214 849 -149 923 -115C934 -131 953 -154 967 -165C903 -188 831 -232 782 -280Z"/>
</svg>