<svg xmlns="http://www.w3.org/2000/svg" viewBox="0 -1000 1000 1000">
	<path fill="#000000" d="M926 -650C903 -689 854 -750 812 -793L761 -762C803 -716 850 -654 872 -613ZM187 -469C247 -544 290 -647 310 -784C362 -685 415 -565 451 -469ZM336 -219H551V-285H344C345 -296 345 -306 345 -317V-404H456V-455C465 -431 472 -407 478 -387L542 -414C530 -451 512 -499 490 -550C527 -575 569 -606 605 -639L562 -681C538 -657 502 -625 468 -600C458 -624 446 -649 434 -673C468 -698 510 -731 545 -765L502 -808C480 -782 443 -747 412 -721C396 -753 380 -784 365 -814L306 -794L309 -789L270 -801L259 -799H73V-738H238C229 -691 215 -648 198 -609C168 -638 126 -670 91 -694L50 -654C91 -626 139 -586 168 -554C132 -495 86 -450 35 -423C48 -410 67 -386 76 -372C109 -391 141 -417 168 -446V-404H275V-318C275 -307 275 -297 274 -285H73V-219H266C250 -137 201 -45 58 26C74 38 96 61 106 76C224 11 284 -67 314 -144C373 -91 436 -28 468 13L521 -34C481 -82 400 -155 335 -211ZM868 -465C844 -387 807 -310 762 -241C749 -310 736 -392 727 -484L955 -509L947 -573L721 -550C713 -638 708 -733 706 -832H635C639 -730 644 -633 651 -543L561 -533L570 -466L657 -476C669 -355 685 -250 707 -163C645 -85 572 -21 492 20C512 34 533 55 546 73C613 35 676 -19 731 -84C767 15 815 73 879 76C920 78 956 34 977 -121C964 -127 935 -145 922 -161C914 -63 900 -9 879 -10C842 -13 810 -65 785 -152C845 -238 894 -335 926 -433Z"/>
</svg>