<svg xmlns="http://www.w3.org/2000/svg" viewBox="0 -1000 1000 1000">
	<path fill="#000000" d="M921 -638C900 -677 856 -739 820 -785L767 -758C803 -710 845 -645 865 -605ZM457 -666H171V-747H457ZM457 -527H171V-609H457ZM525 -806H105V-468H525ZM869 -464C845 -382 810 -300 765 -225C752 -296 740 -382 730 -477L938 -512L927 -576L725 -543C719 -633 714 -730 712 -832H641C644 -726 649 -625 657 -531L554 -514L566 -449L661 -466C673 -341 689 -232 711 -146C663 -82 609 -29 548 8V-32H368V-139H521V-199H368V-295H543V-356H368V-455H301V-356H179C188 -379 195 -404 202 -428L138 -442C118 -362 83 -281 37 -226C52 -219 80 -202 91 -192C114 -221 135 -256 153 -295H301V-199H120V-139H301V-32H78V28H542C558 41 575 58 584 72C639 38 691 -10 737 -66C770 18 813 68 870 70C908 71 944 28 965 -130C952 -136 922 -154 910 -169C902 -71 888 -16 869 -17C837 -19 811 -62 788 -136C849 -225 896 -329 928 -433Z"/>
</svg>