<svg xmlns="http://www.w3.org/2000/svg" viewBox="0 -1000 1000 1000">
	<path fill="#000000" d="M371 -401L262 -371V-567H374V-637H262V-836H190V-637H49V-567H190V-352C132 -336 79 -321 37 -311L59 -239C98 -251 143 -264 190 -278V-18C190 -4 184 1 170 1C158 1 115 2 67 0C77 20 88 50 90 69C159 69 200 67 226 55C252 44 262 24 262 -18V-299L380 -334ZM841 -273C764 -129 605 -31 405 16C420 33 437 58 445 77C654 19 818 -87 904 -247ZM663 -564C611 -491 516 -415 432 -372C448 -360 467 -340 478 -324C567 -374 663 -454 722 -540ZM755 -422C692 -326 574 -240 458 -191C475 -177 492 -155 503 -139C624 -196 743 -289 815 -397ZM649 -838C598 -714 493 -596 366 -520C380 -508 403 -482 413 -468C514 -532 600 -617 662 -717C732 -620 831 -527 918 -476C930 -495 953 -522 969 -536C872 -586 761 -682 696 -776C703 -790 710 -805 716 -818Z"/>
</svg>