<svg xmlns="http://www.w3.org/2000/svg" viewBox="0 -1000 1000 1000">
	<path fill="#000000" d="M900 -720C876 -751 824 -794 781 -824L738 -785C781 -755 831 -709 855 -677ZM357 -328L347 -395L260 -371V-566H347V-635H260V-835H187V-635H49V-566H187V-351C131 -335 79 -321 37 -311L59 -239L187 -277V-18C187 -4 182 1 168 1C156 1 113 2 65 0C75 20 85 50 88 69C157 69 198 67 223 55C250 44 260 24 260 -18V-299ZM873 -537C839 -484 786 -416 737 -363C712 -423 695 -488 683 -559V-590H944V-659H683V-835H612V-659H372V-590H612V-325C505 -241 393 -153 321 -101L364 -38C436 -96 526 -171 612 -246V-16C612 1 605 6 590 7C574 7 523 8 465 6C476 26 488 58 492 78C570 78 615 76 644 62C671 50 683 29 683 -16V-336C734 -205 813 -100 931 -28C938 -48 953 -76 966 -92C876 -140 810 -213 763 -304C819 -357 886 -434 938 -502ZM386 -500C431 -445 482 -369 503 -322L561 -355C540 -402 487 -475 441 -528Z"/>
</svg>