<svg xmlns="http://www.w3.org/2000/svg" viewBox="0 -1000 1000 1000">
	<path fill="#000000" d="M795 -429C652 -211 384 -67 61 7C79 26 97 56 106 76C283 33 443 -32 578 -119C680 -59 796 19 857 72L923 19C859 -33 742 -107 643 -163C730 -229 805 -304 864 -390ZM555 -707L573 -713C559 -748 527 -803 499 -842L426 -820C447 -785 471 -741 486 -707H61V-635H379C329 -577 257 -498 232 -477C210 -458 183 -450 165 -446C172 -430 183 -388 185 -369C209 -377 247 -382 506 -400C391 -312 245 -245 90 -204C108 -185 127 -157 136 -136C385 -211 606 -345 734 -531L666 -565C644 -533 618 -502 589 -473L317 -459C366 -510 427 -578 475 -635H943V-707Z"/>
</svg>