<svg xmlns="http://www.w3.org/2000/svg" viewBox="0 -1000 1000 1000">
	<path fill="#000000" d="M633 -622C671 -600 712 -572 751 -544C710 -497 662 -460 611 -437C624 -425 642 -402 650 -386C705 -415 756 -454 800 -504C836 -476 866 -447 886 -422L935 -469C911 -496 878 -526 838 -555C878 -615 908 -687 926 -771L886 -785L874 -783H649V-721H848C834 -674 813 -631 788 -593C751 -618 713 -643 677 -663ZM617 -496C598 -518 572 -542 542 -566C575 -624 601 -692 617 -771L576 -785L564 -783H345V-721H540C527 -679 510 -639 490 -603C457 -625 424 -646 392 -662L348 -622C384 -602 421 -579 455 -553C416 -501 368 -460 317 -436C331 -423 348 -400 357 -384C413 -415 463 -458 506 -513C532 -492 554 -470 570 -451ZM305 -406L225 -375V-567H314V-636H225V-836H159V-636H49V-567H159V-351C115 -335 75 -320 42 -310L63 -238L159 -275V-11C159 2 154 5 142 5C132 6 96 6 57 5C66 24 75 53 78 71C135 71 170 69 193 57C216 46 225 27 225 -12V-301C256 -314 288 -325 318 -338ZM612 -48C592 -70 564 -97 532 -122C570 -183 598 -256 616 -341L575 -354L563 -352H336V-289H538C523 -242 504 -199 481 -161C447 -184 412 -207 380 -225L336 -185C371 -164 409 -138 445 -111C396 -50 334 -5 266 22C280 35 298 59 305 76C377 43 443 -4 495 -70C524 -46 548 -22 565 -2ZM856 -289C837 -231 809 -179 776 -135C744 -181 719 -233 701 -289ZM895 -354L883 -352H635V-289H645L641 -288C663 -214 693 -145 733 -86C683 -37 625 -1 562 23C576 37 593 61 601 79C664 52 722 15 773 -34C814 13 862 51 917 78C928 59 948 35 963 21C907 -2 858 -37 817 -82C871 -150 913 -235 936 -340Z"/>
</svg>