<svg xmlns="http://www.w3.org/2000/svg" viewBox="0 -1000 1000 1000">
	<path fill="#000000" d="M333 -417C300 -406 266 -395 234 -385V-568H326V-636H234V-836H167V-636H45V-568H167V-364C116 -348 69 -334 31 -324L50 -252C85 -263 125 -276 167 -290V-8C167 6 162 10 150 10C138 10 99 10 56 9C66 28 75 59 78 76C140 77 178 74 201 64C226 51 234 31 234 -8V-312C270 -324 307 -336 343 -348ZM543 -574H427V-719H543ZM427 -157V-303H543V-175ZM543 -368H427V-511H543ZM308 -719H366V-148C336 -143 309 -139 285 -136L303 -69C373 -81 458 -97 543 -114V75H605V-719H652V-785H308ZM911 -791L901 -788H675V75H740V-725H876C853 -651 821 -549 789 -467C865 -376 883 -300 883 -237C883 -203 877 -170 862 -157C853 -151 841 -147 827 -147C812 -146 790 -146 767 -148C778 -130 784 -103 785 -84C808 -83 833 -83 853 -85C874 -88 893 -94 907 -106C934 -127 946 -174 945 -232C945 -300 927 -380 852 -473C888 -565 926 -673 956 -763Z"/>
</svg>