<svg xmlns="http://www.w3.org/2000/svg" viewBox="0 -1000 1000 1000">
	<path fill="#000000" d="M350 -334L340 -403L242 -371V-567H348V-636H242V-836H171V-636H47V-567H171V-350C118 -334 71 -319 33 -309L51 -237C88 -249 128 -262 171 -275V-17C171 -2 166 2 153 2C142 2 103 2 60 1C70 22 80 53 82 72C146 73 184 70 208 58C233 45 242 26 242 -16V-299ZM886 -400H395V-235C395 -152 388 -42 324 40C340 48 369 70 380 84C451 -8 463 -139 463 -234V-342H815V-175C685 -151 550 -126 460 -113L484 -52C576 -70 699 -94 815 -120V-5C815 6 811 10 799 10C786 11 744 11 697 10C705 28 716 54 719 73C784 73 825 73 851 61C878 50 886 32 886 -5ZM486 -264C571 -247 680 -216 738 -191L762 -243C704 -266 593 -295 510 -309ZM683 -596H896V-653H683V-740H866C859 -715 851 -691 844 -673L901 -658C917 -691 933 -744 947 -790L901 -802L889 -799H345V-740H610V-519C555 -533 512 -561 483 -613C491 -643 496 -675 500 -709L432 -714C420 -597 385 -507 310 -450C325 -439 352 -417 362 -405C407 -442 439 -490 463 -548C525 -465 618 -445 754 -445H936C939 -462 949 -490 958 -505C922 -504 782 -504 757 -504C731 -504 706 -505 683 -507Z"/>
</svg>