<svg xmlns="http://www.w3.org/2000/svg" viewBox="0 -1000 1000 1000">
	<path fill="#000000" d="M902 -825H832V-429C832 -418 828 -415 815 -414C804 -414 761 -414 720 -415C727 -398 736 -376 739 -359C801 -359 842 -359 867 -369C894 -377 902 -392 902 -428ZM704 -772H640V-464H704ZM439 -576C384 -598 282 -617 203 -624L186 -584C266 -576 367 -554 422 -532ZM476 -649V-532C360 -512 244 -493 164 -481C167 -504 168 -527 168 -548V-649ZM185 -427C267 -442 373 -462 476 -481V-413C476 -404 473 -401 464 -401C456 -401 428 -401 398 -402C406 -386 415 -367 417 -350C462 -350 495 -351 515 -360C537 -369 542 -382 542 -413V-698H471C493 -728 516 -767 537 -801L481 -826C464 -789 431 -733 407 -698H360V-835H294V-698H195L233 -719C222 -747 192 -791 168 -823L117 -799C139 -769 164 -727 178 -698H101V-549C101 -491 95 -422 45 -371C59 -362 87 -338 98 -325C139 -368 157 -424 164 -479ZM935 -114H536V-168H884V-220H536V-279C634 -286 725 -297 797 -311L749 -355C615 -330 361 -314 152 -310C159 -297 165 -276 167 -262C261 -263 364 -267 463 -274V-220H124V-168H463V-114H61V-60H463V-5C463 9 458 13 441 14C426 15 368 16 309 13C318 31 329 53 334 71C414 71 464 71 496 62C526 52 536 36 536 -3V-60H935Z"/>
</svg>