<svg xmlns="http://www.w3.org/2000/svg" viewBox="0 -1000 1000 1000">
	<path fill="#000000" d="M869 -759C845 -711 801 -641 768 -598L822 -576C855 -617 897 -679 932 -735ZM926 -421C891 -453 756 -575 706 -616C716 -654 718 -693 718 -729V-832H649V-731C649 -630 628 -504 413 -419C428 -407 448 -381 456 -365C588 -419 654 -489 687 -560C747 -507 846 -411 886 -369ZM595 -602C579 -641 545 -710 516 -761L460 -737C488 -685 521 -614 537 -572ZM235 -376H303V-554C340 -521 387 -478 406 -455L443 -508C422 -525 340 -588 305 -612H443V-669H303V-751C354 -758 401 -768 440 -779L398 -829C319 -805 177 -787 60 -778C66 -763 74 -742 77 -727C127 -730 182 -735 235 -741V-669H56V-612H206C161 -546 94 -480 34 -445C49 -434 68 -412 78 -398C130 -433 189 -494 235 -558ZM951 -128H536V-185H885V-240H536V-308C647 -316 751 -328 832 -344L779 -388C637 -360 365 -344 144 -339C150 -326 157 -304 159 -289C256 -291 361 -295 463 -302V-240H124V-185H463V-128H50V-72H463V-4C463 10 457 14 442 15C426 15 369 15 310 14C319 31 330 55 334 73C414 73 464 72 496 63C526 53 536 37 536 -3V-72H951Z"/>
</svg>