<svg xmlns="http://www.w3.org/2000/svg" viewBox="0 -1000 1000 1000">
	<path fill="#000000" d="M789 -515C761 -543 706 -586 659 -620C670 -648 679 -679 685 -712L626 -718C611 -624 567 -554 494 -508C508 -498 530 -478 539 -468C578 -496 611 -531 636 -573C679 -540 726 -500 753 -473ZM816 -451H475V-732H816ZM885 -789H410V-393H885ZM348 -347L338 -416C305 -405 272 -394 239 -384V-568H346V-636H239V-836H170V-636H45V-568H170V-363C118 -347 70 -332 32 -322L51 -250L170 -289V-10C170 5 165 8 153 8C141 9 102 9 59 8C69 28 78 59 81 76C143 77 181 74 205 63C230 51 239 31 239 -10V-311ZM451 -265H543V-21H451ZM692 -265V-21H598V-265ZM841 -265V-21H747V-265ZM911 -21V-324H384V-21H300V43H958V-21Z"/>
</svg>