<svg xmlns="http://www.w3.org/2000/svg" viewBox="0 -1000 1000 1000">
	<path fill="#000000" d="M808 -700C789 -670 766 -641 739 -615C701 -637 663 -658 626 -676C632 -684 639 -692 645 -700ZM945 -480C909 -510 855 -546 795 -582C839 -626 875 -678 900 -739L856 -760L844 -757H683C696 -779 707 -800 717 -823L655 -839C619 -754 554 -676 479 -626C495 -617 519 -594 529 -582C550 -598 569 -616 588 -634C622 -617 658 -596 693 -576C630 -529 558 -495 485 -475C498 -463 516 -438 523 -423C603 -449 682 -488 749 -542C812 -503 868 -463 905 -431ZM751 -36V-123H936V-177H751V-240H884V-292H751V-349H911V-402H751V-458H688V-402H531V-349H688V-292H555V-240H688V-177H501V-123H688V-36ZM456 -668C444 -710 423 -775 406 -825L343 -811C358 -761 379 -693 390 -651ZM294 -328L282 -396L211 -370V-567H285V-635H211V-835H145V-635H50V-567H145V-345C106 -331 71 -319 41 -310L62 -238L145 -270V-15C145 -2 141 1 129 1C120 1 87 1 50 0C59 21 67 50 70 69C124 69 159 66 181 55C203 42 211 23 211 -15V-295ZM471 -370L459 -367H413C435 -437 460 -523 480 -594H306V-534H398C377 -455 350 -368 328 -308H425C409 -229 383 -142 351 -82C327 -62 301 -25 274 18L322 81C345 20 376 -43 394 -43C416 -43 446 -12 482 14C542 55 608 69 705 69C776 69 895 65 947 61C948 42 957 8 965 -10C891 -1 781 4 705 4C616 4 553 -8 498 -44C466 -65 444 -85 424 -95C459 -170 485 -268 501 -356Z"/>
</svg>