<svg xmlns="http://www.w3.org/2000/svg" viewBox="0 -1000 1000 1000">
	<path fill="#000000" d="M529 -583C553 -568 579 -551 605 -534C584 -479 551 -437 497 -405L498 -433C438 -430 378 -426 322 -424V-476H472V-520H322V-577H254V-520H103V-476H254V-420C183 -417 118 -414 66 -412L71 -360C184 -368 342 -378 497 -389V-398C509 -388 524 -369 530 -358C591 -393 630 -439 657 -499C685 -479 712 -459 730 -445L766 -491C743 -507 710 -530 674 -552C685 -590 691 -631 696 -676H791C793 -479 802 -347 891 -347C940 -347 952 -384 958 -481C945 -489 928 -503 915 -517C913 -453 909 -407 895 -407C855 -407 853 -544 854 -732H700C702 -765 703 -800 704 -837H643C642 -800 641 -764 639 -732H525V-676H635C632 -644 627 -614 620 -586C601 -599 581 -611 563 -621ZM319 -645V-616C319 -568 328 -547 375 -547H441C457 -547 477 -547 487 -550C485 -564 483 -579 482 -593C471 -590 450 -589 440 -589H387C374 -589 372 -595 372 -615V-645H511V-690H322V-740H478V-785H322V-836H254V-785H98V-740H254V-690H55V-645H201C189 -601 155 -580 65 -568C75 -558 87 -540 92 -528C199 -546 241 -580 253 -645ZM536 -181H885V-235H536V-299C649 -306 755 -316 837 -331L784 -375C640 -350 365 -337 140 -335C146 -321 152 -300 153 -285C252 -286 360 -289 463 -294V-235H120V-181H463V-124H50V-69H463V1C463 14 457 18 442 19C426 20 370 20 310 18C319 36 331 59 335 77C415 78 464 77 496 68C526 57 536 42 536 2V-69H951V-124H536Z"/>
</svg>