<svg xmlns="http://www.w3.org/2000/svg" viewBox="0 -1000 1000 1000">
	<path fill="#000000" d="M889 -593C876 -532 860 -466 844 -424L895 -406C920 -466 945 -563 961 -647L919 -659L908 -656H736C749 -709 759 -766 768 -824L704 -834C687 -704 658 -576 605 -492C619 -481 643 -457 653 -445C678 -486 700 -537 717 -593ZM786 -529H721V-482C721 -367 710 -190 605 -31L601 -84L491 -66V-347H617V-410H491V-515H580V-574H375C411 -619 443 -672 470 -727C518 -672 567 -608 593 -565L628 -614C602 -658 546 -725 495 -780C500 -792 505 -804 510 -816L449 -832C415 -738 360 -646 297 -580V-636H227V-836H161V-636H45V-567H161V-366C113 -349 70 -333 35 -321L55 -250C87 -263 124 -276 161 -291V-6C161 7 157 11 144 11C134 12 95 12 53 11C63 31 71 59 75 77C135 77 172 75 194 64C218 52 227 33 227 -6V-317L302 -347L289 -414L227 -390V-567H285L282 -564C293 -550 312 -520 317 -507C328 -519 340 -532 352 -545V-515H431V-410H319V-347H431V-55C375 -46 324 -37 283 -31L301 34C386 16 495 -6 602 -27C588 -7 572 15 553 36C572 45 596 62 609 75C691 -18 735 -123 758 -222C799 -102 854 7 919 73C931 56 953 33 967 21C884 -54 815 -214 782 -370C785 -410 786 -447 786 -480ZM301 -283C319 -225 335 -149 340 -100L391 -113C385 -162 367 -236 348 -294ZM572 -115C588 -161 606 -232 623 -291L566 -304C558 -252 540 -174 526 -126Z"/>
</svg>