<svg xmlns="http://www.w3.org/2000/svg" viewBox="0 -1000 1000 1000">
	<path fill="#000000" d="M789 -12C775 -52 741 -110 707 -154L656 -130C669 -114 681 -95 693 -75L593 -67V-160H758V-356H593V-423H533V-356H389C409 -378 429 -403 448 -430H863C853 -129 842 -25 823 0C816 13 808 15 795 15C783 15 763 14 739 13ZM593 -305H697V-211H593ZM431 -211V-305H533V-211ZM423 -739H524V-626H423ZM583 -739H689V-626H583ZM747 -739H855V-626H747ZM931 -493H488C502 -518 514 -543 525 -569H921V-797H359V-569H451C422 -507 380 -447 334 -399L328 -434L234 -400V-568H326V-636H234V-836H167V-636H45V-568H167V-376C116 -357 69 -341 31 -329L50 -259C85 -271 125 -286 167 -301V-8C167 6 162 10 150 10C138 10 99 10 56 9C66 28 75 59 78 76C140 77 178 74 201 64C226 51 234 31 234 -8V-326L298 -350C313 -339 333 -322 343 -311C353 -320 363 -329 373 -339V-160H533V-63C454 -57 382 -52 326 -49L335 15C438 6 582 -7 721 -20C727 -8 731 3 734 13L715 12C724 28 730 56 732 75C769 77 805 76 826 74C852 71 868 65 884 42C911 7 920 -111 931 -459Z"/>
</svg>