<svg xmlns="http://www.w3.org/2000/svg" viewBox="0 -1000 1000 1000">
	<path fill="#000000" d="M553 -616H393V-698H553ZM553 -482H393V-564H553ZM615 -752H487C495 -777 503 -804 511 -829L440 -837C436 -813 431 -781 424 -752H334V-427H615ZM305 -332L292 -400L220 -372V-567H302V-636H220V-836H154V-636H52V-567H154V-349C112 -333 74 -319 42 -310L63 -238L154 -273V-14C154 -1 149 2 137 2C127 3 92 3 52 2C61 22 70 50 73 68C130 68 166 66 188 55C211 43 220 24 220 -14V-299ZM457 -212C459 -234 461 -257 462 -281H640V-341H521C510 -367 494 -399 481 -425L420 -410C431 -390 442 -364 452 -341H314V-281H400C394 -132 373 -29 276 31C289 41 309 63 316 78C397 26 433 -52 450 -155H550C542 -48 532 -5 522 8C516 15 508 17 497 17C485 17 459 16 428 13C436 29 442 52 443 70C476 72 507 71 525 70C546 68 560 62 573 48C593 26 603 -33 614 -184C615 -194 615 -212 615 -212ZM848 -567C835 -454 817 -349 787 -259C760 -346 740 -444 727 -546C729 -553 731 -560 732 -567ZM955 -567V-634H747C760 -696 769 -761 777 -828L714 -836C697 -668 667 -508 604 -406C618 -395 642 -370 652 -359C667 -382 680 -410 691 -438C707 -341 728 -252 755 -172C718 -87 669 -20 605 24C623 37 643 59 654 76C707 35 751 -22 786 -92C818 -23 856 35 902 79C914 60 936 36 952 23C897 -22 854 -89 821 -170C864 -282 890 -419 906 -567Z"/>
</svg>