<svg xmlns="http://www.w3.org/2000/svg" viewBox="0 -1000 1000 1000">
	<path fill="#000000" d="M368 -712H523C505 -647 455 -617 327 -600C338 -592 351 -574 356 -560C505 -583 565 -624 585 -712H655V-639C655 -597 664 -575 716 -575H845C872 -575 900 -575 912 -578C909 -594 909 -603 908 -618C894 -615 860 -613 842 -613H739C719 -613 716 -620 716 -638V-712H859V-635H927V-769H652C642 -792 629 -818 615 -840L543 -829C553 -811 564 -790 573 -769H302V-632H368ZM557 -576C507 -556 418 -539 343 -528V-306H880V-545H626V-496H812V-444H635V-403H812V-355H412V-404H577V-445H412V-490C477 -500 546 -514 595 -533ZM316 -336L302 -404L220 -373V-567H289V-636H220V-836H153V-636H52V-567H153V-348C112 -333 74 -319 42 -309L63 -238L153 -272V-15C153 -3 149 1 137 1C127 1 91 1 51 0C61 20 70 49 72 68C129 68 165 65 188 53C211 42 220 23 220 -16V-299ZM404 -182H532V-228H404V-278H341V-57C341 -17 321 2 307 10C317 23 331 48 335 63C350 53 374 44 522 11C521 -2 520 -24 521 -41L404 -19V-85H533V-131H404ZM633 -19V-85H757V-131H633V-181H756V-227H633V-278H571V-55C571 -15 551 4 538 12C548 24 561 49 565 63C581 53 606 43 777 6C775 -7 773 -29 774 -46ZM783 -278C786 -46 819 70 898 70C940 70 959 49 967 -36C953 -42 936 -51 924 -62C921 -8 916 7 902 7C872 7 847 -79 849 -278Z"/>
</svg>