<svg xmlns="http://www.w3.org/2000/svg" viewBox="0 -1000 1000 1000">
	<path fill="#000000" d="M432 -644V-682H582V-644ZM801 -682V-644H653V-682ZM363 -535H880V-452H948V-579H653V-610H861V-716H653V-746H921V-793H653V-837H582V-793H317V-746H582V-716H374V-610H582V-579H297V-451H363ZM285 -400L207 -370V-567H289V-636H207V-836H139V-636H45V-567H139V-346C102 -332 67 -320 39 -311L60 -240L139 -270V-14C139 -1 135 2 123 3C113 3 76 3 36 2C46 22 55 51 58 70C116 70 152 68 174 56C198 44 207 25 207 -15V-297C237 -309 268 -322 298 -333ZM538 -232H702V-192H538ZM538 -307H702V-272H538ZM428 -473H543V-429H428ZM704 -472H823V-428H704ZM856 -145C834 -124 796 -97 762 -75C734 -96 710 -121 690 -146H950V-192H767V-232H888V-272H767V-307H921V-351H767V-392H877V-509H652V-392H702V-351H538V-392H599V-509H375V-392H473V-351H329V-307H473V-272H361V-232H473V-192H304V-146H531C464 -100 361 -67 266 -46C278 -35 297 -11 304 1C349 -11 395 -26 440 -44V-27C440 11 421 25 408 30C416 42 428 65 432 78C449 69 478 61 673 24C672 11 672 -14 673 -30L501 0V-72C544 -93 582 -118 612 -146H629C688 -46 800 30 926 66C934 50 952 27 966 16C906 3 850 -20 802 -48C835 -67 870 -89 902 -113Z"/>
</svg>