<svg xmlns="http://www.w3.org/2000/svg" viewBox="0 -1000 1000 1000">
	<path fill="#000000" d="M836 -425C815 -340 781 -263 740 -198C699 -265 665 -343 643 -425ZM872 -494L861 -491H749V-627H956V-695H749V-836H679V-491H533V-425H579C607 -319 647 -222 699 -139C655 -84 605 -40 551 -7C549 -21 547 -37 546 -48C524 -44 482 -41 453 -41H219C164 -41 145 -63 145 -122V-721H533V-785H44V-721H78V-126C78 -14 118 23 223 23H450C472 23 494 23 512 21C526 36 544 60 552 76C621 39 685 -12 740 -79C788 -16 844 35 908 71C919 52 941 26 957 12C890 -21 832 -72 782 -136C844 -227 891 -341 916 -478ZM414 -479H275V-604H414ZM473 -653H218V-429H473ZM225 -313H288V-160H225ZM183 -111H330V-362H183ZM475 -160H409V-311H475ZM518 -360H366V-111H518Z"/>
</svg>