<svg xmlns="http://www.w3.org/2000/svg" viewBox="0 -1000 1000 1000">
	<path fill="#000000" d="M144 -205V-302H226V-205ZM366 -302V-205H282V-302ZM438 -12C426 -47 398 -102 373 -142L328 -128C337 -113 345 -96 353 -80L282 -72V-157H421V-350H282V-426H226V-350H91V-157H226V-67C160 -60 100 -54 53 -50L62 6C148 -5 262 -18 375 -32C381 -18 386 -5 389 6ZM863 -412C839 -319 803 -239 755 -175C714 -244 684 -326 664 -412ZM132 -733H211V-627H132ZM265 -733H347V-627H265ZM402 -733H486V-627H402ZM902 -482L890 -479H775V-622H947V-688H775V-836H703V-479H575V-412H655L603 -400C627 -295 663 -200 710 -121C656 -63 591 -20 519 11C533 -47 538 -178 544 -468C544 -476 545 -501 545 -501H207C220 -523 233 -548 244 -571H547V-790H73V-571H172C139 -503 90 -439 36 -394C50 -383 76 -360 87 -348C115 -373 143 -406 168 -441H478C472 -125 464 -17 450 7C443 19 435 21 423 21C410 21 384 21 354 19C362 34 368 59 369 76C402 77 433 78 454 75C476 73 493 65 507 44C510 40 511 35 513 29C527 44 542 65 549 79C623 46 692 0 751 -60C796 -3 850 45 914 78C924 59 945 34 961 20C897 -9 841 -56 796 -113C866 -202 918 -318 947 -464Z"/>
</svg>