<svg xmlns="http://www.w3.org/2000/svg" viewBox="0 -1000 1000 1000">
	<path fill="#000000" d="M463 -456C429 -482 381 -515 328 -546C357 -581 382 -621 401 -666H478V-729H308C294 -758 273 -800 255 -832L200 -809C214 -785 227 -755 239 -729H52V-666H332C318 -633 297 -604 274 -576C228 -601 182 -624 139 -644L108 -596C148 -578 190 -556 231 -532C182 -487 120 -452 52 -426C64 -415 86 -388 94 -376C166 -407 231 -448 286 -501C343 -466 395 -430 429 -401ZM133 -188V-288H232V-188ZM395 -288V-188H296V-288ZM355 -94C363 -80 370 -65 376 -51L296 -38V-132H453V-344H296V-426H232V-344H77V-132H232V-28C163 -18 100 -9 50 -3L59 62C153 46 278 25 400 3C412 31 421 57 426 79L480 60C467 14 436 -57 405 -109ZM931 -299V-726H909V-727H790V-664H870V-552H790V-489H870V-357H743C746 -396 747 -435 747 -471V-826H683V-471C683 -435 683 -397 680 -357H570V-489H642V-552H570V-651C601 -667 637 -687 666 -709L625 -755C596 -733 546 -698 511 -681V-299H674C658 -177 612 -53 483 30C498 41 519 65 529 80C642 0 697 -108 723 -220C767 -95 835 12 923 74C933 57 953 36 966 25C868 -35 794 -160 756 -299Z"/>
</svg>