<svg xmlns="http://www.w3.org/2000/svg" viewBox="0 -1000 1000 1000">
	<path fill="#000000" d="M273 -696V-473H142V-696ZM142 -182V-407H273V-182ZM338 -115V-764H76V-40H142V-115ZM917 -676C890 -653 845 -622 806 -597C793 -621 780 -645 769 -672C805 -693 849 -724 886 -755L839 -798C817 -776 782 -745 750 -722C739 -754 730 -789 722 -824L658 -811C688 -674 736 -555 809 -470H491C558 -548 611 -654 637 -784L594 -799L582 -796H400V-734H557C544 -689 527 -647 505 -608C477 -632 440 -658 408 -677L368 -632C403 -610 443 -579 471 -553C433 -500 388 -458 341 -432C356 -419 374 -394 384 -379C412 -395 437 -416 462 -439V-402H610V-363C610 -341 609 -315 605 -288H371V-220H589C561 -138 493 -47 334 26C352 38 374 61 386 77C528 7 601 -77 640 -156C728 -81 828 11 880 70L931 17C873 -45 758 -145 665 -220H916V-288H677C680 -314 681 -340 681 -362V-402H830V-447C855 -423 882 -400 911 -383C922 -402 944 -428 960 -441C911 -468 869 -506 834 -554C874 -575 923 -602 964 -633Z"/>
</svg>