<svg xmlns="http://www.w3.org/2000/svg" viewBox="0 -1000 1000 1000">
	<path fill="#000000" d="M502 -799C468 -743 405 -692 347 -658C359 -642 377 -606 382 -592C447 -637 520 -707 562 -777ZM628 -711C572 -636 491 -561 466 -542C443 -522 424 -509 406 -506C414 -490 424 -457 428 -442C449 -452 487 -457 802 -483C817 -464 831 -447 841 -432L891 -466C859 -508 797 -577 748 -627L701 -598C719 -580 737 -558 756 -537L528 -519C583 -563 638 -619 687 -677ZM258 -693V-474H142V-693ZM142 -182V-410H258V-182ZM320 -759H80V-40H142V-116H320ZM626 -392H356V-329H562V-175C478 -133 394 -90 337 -63L365 -8C423 -40 493 -80 562 -119V3C562 14 559 18 547 18C537 18 501 18 460 17C468 34 478 57 480 75C535 75 572 75 595 64C619 54 626 38 626 4ZM524 -202C500 -231 452 -276 413 -308L372 -277C411 -244 458 -196 481 -165ZM933 -392H660V-329H869V-178C784 -135 699 -93 641 -67L668 -11C727 -44 798 -83 869 -121V3C869 14 866 18 854 18C843 18 807 18 766 17C774 34 782 57 785 75C841 75 879 75 902 64C927 54 933 38 933 4ZM825 -201C801 -230 750 -275 710 -306L670 -274C709 -241 759 -195 783 -163ZM598 -808V-748H742C783 -681 849 -621 913 -583C924 -600 946 -625 960 -637C891 -671 816 -737 781 -808Z"/>
</svg>