<svg xmlns="http://www.w3.org/2000/svg" viewBox="0 -1000 1000 1000">
	<path fill="#000000" d="M253 -673V-256H144V-673ZM316 -187V-742H80V-91H144V-187ZM476 -227V-539H642C609 -463 549 -396 481 -352C496 -343 521 -325 531 -315C571 -345 612 -385 646 -431C699 -397 756 -353 785 -320L822 -362C790 -394 728 -440 673 -474C684 -491 692 -509 700 -526L651 -539H825V-227H674C680 -256 684 -288 687 -322H615C612 -288 608 -256 601 -227ZM697 -699C680 -665 658 -628 637 -601H472C498 -633 522 -666 542 -699ZM957 -165V-227H891V-601H710C740 -641 769 -689 789 -732L744 -762L733 -759H575C586 -781 597 -802 605 -824L535 -835C500 -746 432 -636 332 -554C346 -544 368 -520 378 -505C389 -514 401 -525 412 -535V-227H330V-165H583C547 -74 471 -15 301 18C315 32 333 58 339 76C534 33 618 -44 658 -165ZM674 -109C753 -51 858 30 911 78L958 31C904 -16 798 -94 719 -148Z"/>
</svg>