<svg xmlns="http://www.w3.org/2000/svg" viewBox="0 -1000 1000 1000">
	<path fill="#000000" d="M960 -502C939 -543 896 -609 857 -664C870 -713 880 -767 887 -824L825 -831C809 -692 775 -576 702 -501C717 -491 741 -469 750 -458C784 -496 811 -542 833 -595C865 -546 898 -493 917 -456ZM749 -590C732 -612 702 -642 673 -671C684 -719 693 -770 699 -824L639 -831C622 -690 590 -562 525 -481C540 -472 566 -452 577 -442C609 -487 635 -542 654 -605C678 -580 700 -554 713 -536ZM473 -833C439 -750 383 -664 327 -606C341 -595 365 -571 375 -559C435 -623 497 -721 537 -815ZM250 -693V-477H142V-693ZM142 -188V-411H250V-188ZM311 -759H81V-50H142V-122H311ZM489 -632C451 -520 390 -408 323 -334C335 -320 356 -290 364 -276C383 -298 402 -323 420 -350V77H482V-455C508 -507 531 -561 550 -615ZM858 -1C832 -1 807 -3 783 -10V-220H927V-285H783V-456H719V-42C682 -73 652 -125 632 -212C640 -270 644 -330 646 -388H582C577 -234 559 -60 483 34C499 44 519 63 530 78C569 30 596 -35 613 -107C666 34 751 64 855 64H947C950 45 958 15 967 -1Z"/>
</svg>