<svg xmlns="http://www.w3.org/2000/svg" viewBox="0 -1000 1000 1000">
	<path fill="#000000" d="M760 -719H230V-762H760ZM760 -635H230V-680H760ZM832 -802H161V-595H832ZM139 -416H461V-252H531V-416H858V-327H926V-465H531V-506H884V-556H119V-506H461V-465H74V-327H139ZM179 -240C254 -252 343 -269 433 -287L431 -323C331 -307 232 -293 162 -284ZM189 -367C263 -357 361 -339 415 -325L427 -366C374 -379 276 -394 203 -402ZM844 -223H163V-176H844ZM842 -280C776 -296 658 -312 570 -320L555 -284C646 -274 764 -254 828 -238ZM792 -402C731 -390 626 -370 554 -364L575 -332C646 -337 749 -348 817 -366ZM274 6C319 -17 366 -48 410 -82H645L614 -61C643 -48 676 -30 707 -11ZM941 -133H58V-82H308C264 -50 219 -24 202 -15C181 -4 160 3 145 5C152 24 163 57 167 72C198 61 246 59 778 34C802 50 824 66 841 80L892 42C847 6 764 -45 690 -82H941Z"/>
</svg>