<svg xmlns="http://www.w3.org/2000/svg" viewBox="0 -1000 1000 1000">
	<path fill="#000000" d="M747 -640H817V-705H954V-762H817V-836H747V-762H667V-705H747ZM934 -474V-620H367V-474H429V-567H870V-474ZM821 -463V-509H480V-463ZM480 -640H549V-704H627V-761H549V-836H480V-761H355V-704H480ZM248 -701V-479H139V-701ZM139 -186V-414H248V-186ZM310 -119V-767H78V-39H139V-119ZM880 -334C830 -300 748 -254 681 -224C665 -255 643 -285 615 -313C640 -326 664 -340 685 -355H943V-408H362V-355H599C528 -318 433 -287 348 -268C358 -257 375 -233 381 -221C439 -238 504 -260 564 -287C575 -277 585 -265 594 -253C532 -210 424 -166 338 -147C350 -135 364 -112 370 -98C451 -123 551 -169 620 -214C627 -200 632 -186 637 -172C562 -108 423 -45 309 -17C321 -5 335 17 342 33C445 2 567 -57 650 -119C658 -63 647 -15 627 2C612 16 597 17 578 17C560 17 534 17 507 13C517 30 524 56 525 73C549 75 572 75 589 75C626 74 648 68 673 46C715 11 731 -81 701 -174C720 -182 740 -191 760 -199C788 -97 839 -7 918 38C928 20 948 -5 964 -17C889 -52 839 -134 814 -225C854 -244 892 -266 926 -286Z"/>
</svg>