<svg xmlns="http://www.w3.org/2000/svg" viewBox="0 -1000 1000 1000">
	<path fill="#000000" d="M485 -498C504 -467 523 -427 530 -401L573 -419C565 -444 545 -483 528 -512ZM748 -403C764 -427 782 -462 801 -496L754 -516C745 -489 726 -447 711 -419ZM850 -389H668V-529H850ZM445 -529H611V-389H445ZM604 -575H385V-343H604V-292H380V-240H604V-179H333V-120H954V-179H676V-240H920V-292H676V-343H913V-575H676V-627H949V-683H676V-748C761 -756 840 -766 904 -779L859 -830C743 -806 534 -788 361 -780C367 -766 375 -744 377 -728C449 -731 527 -736 604 -742V-683H331V-627H604ZM245 -701V-479H139V-701ZM139 -186V-414H245V-186ZM307 -119V-767H78V-39H139V-119ZM339 75C392 36 428 -29 452 -85L395 -109C374 -56 334 4 284 39ZM506 -81C519 -32 531 32 534 70L597 58C594 21 580 -42 565 -89ZM638 -80C668 -34 697 29 709 68L768 48C755 9 722 -51 694 -96ZM779 -84C825 -34 880 36 906 79L965 49C939 5 883 -62 836 -110Z"/>
</svg>