<svg xmlns="http://www.w3.org/2000/svg" viewBox="0 -1000 1000 1000">
	<path fill="#000000" d="M875 -704C850 -642 802 -554 767 -500L813 -470C851 -522 898 -601 939 -668ZM537 -487C522 -543 485 -628 447 -692L393 -666C430 -602 466 -516 479 -460ZM166 -328C168 -369 168 -408 168 -443V-498H272V-328ZM272 -732V-566H168V-732ZM338 -800H103V-443C103 -297 99 -98 35 42C52 48 80 65 93 76C135 -19 154 -142 162 -259H272V-18C272 -5 268 -1 256 0C246 0 212 0 172 -1C182 18 189 49 191 67C251 67 286 66 308 53C331 41 338 20 338 -17ZM547 -394V-383C480 -333 416 -285 370 -255L400 -189C444 -225 495 -267 545 -309C536 -173 502 -61 374 25C389 36 413 61 423 77C590 -37 613 -198 613 -393V-825H547ZM789 0C765 0 761 -7 761 -47V-352C814 -301 868 -241 895 -199L941 -247C906 -298 829 -375 766 -429L761 -424V-826H695V-48C695 42 712 65 780 65H874C932 65 949 27 956 -84C937 -88 913 -100 897 -112C894 -23 891 0 870 0Z"/>
</svg>