<svg xmlns="http://www.w3.org/2000/svg" viewBox="0 -1000 1000 1000">
	<path fill="#000000" d="M263 -574H371V-644H263V-836H193V-644H53V-574H181C152 -436 90 -275 29 -186C42 -169 61 -140 69 -120C115 -188 160 -299 193 -413V76H263V-422C292 -363 327 -291 342 -251L389 -315C373 -349 289 -497 263 -537ZM876 -497H949V-685H663L733 -712C719 -747 689 -801 663 -842L594 -818C619 -777 646 -721 660 -685H400V-497H470V-616H876ZM639 -8C587 -8 576 -16 576 -57V-239C686 -282 810 -337 894 -395L838 -451C776 -403 674 -349 576 -307V-531H504V-57C504 36 532 62 634 62H824C919 62 941 18 951 -136C931 -141 900 -154 883 -167C877 -33 869 -8 820 -8Z"/>
</svg>