<svg xmlns="http://www.w3.org/2000/svg" viewBox="0 -1000 1000 1000">
	<path fill="#000000" d="M362 -335C345 -364 271 -479 245 -515V-575H345V-645H245V-837H182V-645H54V-575H170C143 -443 87 -291 31 -211C43 -193 59 -162 66 -141C109 -208 152 -318 182 -430V75H245V-431C273 -380 309 -316 322 -282ZM598 -309C600 -344 601 -379 601 -417V-438H696V-309ZM431 -309C437 -349 444 -394 449 -438H537V-417C537 -379 536 -344 533 -309ZM601 -635H696V-503H601ZM858 -635V-503H760V-635ZM949 -309H760V-438H924V-700H760V-835H696V-700H601V-837H537V-700H384V-635H537V-503H393C385 -419 370 -313 357 -245H526C508 -137 463 -43 354 31C370 41 395 62 407 76C527 -10 574 -120 591 -245H696V74H760V-245H882C877 -145 872 -106 863 -94C858 -87 851 -85 840 -85C830 -85 807 -86 780 -89C788 -73 795 -47 795 -28C825 -27 855 -27 871 -29C892 -32 906 -37 917 -52C935 -74 942 -132 949 -282Z"/>
</svg>