<svg xmlns="http://www.w3.org/2000/svg" viewBox="0 -1000 1000 1000">
	<path fill="#000000" d="M243 -673V-256H137V-673ZM304 -742H76V-92H137V-187H304ZM463 -144C432 -87 382 -28 331 12C347 22 374 43 386 54C436 9 491 -59 528 -125ZM741 -118C793 -67 854 6 880 51L938 18C909 -27 847 -97 796 -148ZM674 -600V-688H909V-750H674V-837H601V-750H383V-688H601V-600H349V-439H412V-541H609C560 -485 494 -435 474 -423C453 -407 436 -398 419 -396C426 -378 436 -346 439 -332C453 -337 475 -340 586 -345C536 -313 493 -289 473 -280C436 -259 405 -246 381 -244C388 -226 398 -192 401 -178C420 -184 446 -188 606 -197V4C606 13 603 16 593 17C583 17 552 17 518 16C527 33 534 57 537 75C590 75 625 75 647 65C671 54 676 38 676 5V-200L847 -208C858 -189 869 -171 876 -156L932 -184C909 -231 855 -302 808 -353L755 -327C773 -308 791 -285 809 -263L534 -252C627 -298 719 -356 805 -423L752 -465C726 -442 697 -421 669 -401L533 -397C582 -431 633 -472 678 -517L641 -541H876V-439H942V-600Z"/>
</svg>