<svg xmlns="http://www.w3.org/2000/svg" viewBox="0 -1000 1000 1000">
	<path fill="#000000" d="M476 -647H875V-538H946V-712H724L733 -715C718 -747 690 -798 663 -837L595 -818C615 -786 638 -744 653 -712H408V-538H476ZM869 -470V-536H484V-470ZM380 -350C363 -378 289 -493 263 -528V-575H376V-645H263V-837H195V-645H55V-575H187C156 -439 93 -281 29 -198C43 -180 61 -148 69 -126C116 -193 161 -301 195 -414V76H263V-436C290 -387 321 -328 335 -297ZM809 0C789 0 786 -4 786 -29V-290H954V-357H411V-290H544C531 -135 493 -37 328 17C342 31 362 58 370 76C553 10 599 -108 615 -290H714V-28C714 45 731 67 798 67H883C941 67 959 33 965 -97C946 -102 917 -114 902 -126C900 -17 896 0 875 0Z"/>
</svg>