<svg xmlns="http://www.w3.org/2000/svg" viewBox="0 -1000 1000 1000">
	<path fill="#000000" d="M385 -350C368 -378 295 -493 269 -528V-575H377V-645H269V-837H198V-645H61V-575H193C163 -439 100 -281 35 -198C49 -180 67 -148 75 -126C121 -191 165 -294 198 -402V76H269V-438C296 -389 327 -329 341 -297ZM894 -351C868 -320 826 -280 788 -248C771 -291 757 -337 746 -385H940V-451H490V-554H895V-619H490V-715H938V-783H420V-422C420 -278 414 -91 341 42C358 50 389 70 401 81C473 -48 488 -236 490 -385H557V-55C557 -9 537 16 523 28C533 38 552 64 559 79C574 65 599 51 759 -20C755 -35 750 -62 749 -80L622 -28V-385H691C730 -195 801 -29 918 55C929 37 951 13 966 0C900 -42 849 -112 809 -196C852 -226 902 -266 944 -305Z"/>
</svg>