<svg xmlns="http://www.w3.org/2000/svg" viewBox="0 -1000 1000 1000">
	<path fill="#000000" d="M380 -400C364 -419 296 -490 272 -514V-557H383V-626H272V-837H204V-626H56V-557H195C164 -419 99 -259 33 -175C47 -157 66 -123 74 -102C122 -170 169 -281 204 -396V76H272V-440C297 -406 326 -367 338 -344ZM825 -248H409V-184H780C737 -115 677 -24 625 47L693 74C759 -21 838 -142 892 -230L837 -253ZM527 -366V-310H767V-366ZM657 -573H927V-793H857V-638H696V-837H627V-638H473V-793H405V-573H643C579 -478 455 -389 319 -332C335 -319 358 -294 369 -279C480 -330 577 -400 650 -482C714 -419 819 -336 918 -292C931 -309 953 -338 970 -352C865 -392 751 -468 687 -529C694 -538 700 -547 706 -555Z"/>
</svg>