<svg xmlns="http://www.w3.org/2000/svg" viewBox="0 -1000 1000 1000">
	<path fill="#000000" d="M371 -609H162V-734H371ZM442 -796H95V-547H442ZM348 -250V-402H415V-250ZM236 -250V-402H301V-250ZM127 -250V-402H189V-250ZM477 -465H70V74H127V-188H189V62H236V-188H301V62H348V-188H415V1C415 9 413 11 406 11C399 12 380 12 356 11C366 28 376 56 379 74C413 74 437 72 454 60C473 49 477 30 477 2ZM723 -405V-210H601V-405ZM783 -150V-466H542V-86H601V-150ZM811 -626H519V-562H811ZM918 -793H506V-724H848V-20C848 -3 841 3 825 3C807 4 748 5 687 2C698 22 708 56 712 76C794 76 846 75 877 63C907 50 918 28 918 -19Z"/>
</svg>