<svg xmlns="http://www.w3.org/2000/svg" viewBox="0 -1000 1000 1000">
	<path fill="#000000" d="M943 -172H806V-433H936V-502H806V-720C858 -732 907 -746 947 -762L897 -819C822 -786 685 -758 568 -743C576 -726 585 -701 588 -684C637 -690 689 -697 740 -706V-172H665V-600H604V-172H560V-104H943ZM327 -329C313 -356 254 -461 228 -502V-575H312V-645H228V-837H164V-645H51V-575H155C132 -444 82 -291 32 -210C42 -192 58 -159 65 -138C102 -201 138 -303 164 -410V76H228V-410C251 -361 278 -304 290 -273ZM507 -500L495 -498H424C461 -584 506 -697 540 -789H327V-721H447C411 -622 366 -511 331 -436H479C470 -350 455 -273 434 -207C414 -247 396 -294 382 -350L329 -328C349 -250 375 -186 406 -136C373 -63 331 -9 280 25C294 39 312 65 321 81C373 43 415 -9 449 -76C542 30 667 55 805 55H940C944 36 954 4 965 -13C930 -12 835 -12 809 -12C684 -13 564 -34 477 -140C512 -233 534 -349 545 -492Z"/>
</svg>