<svg xmlns="http://www.w3.org/2000/svg" viewBox="0 -1000 1000 1000">
	<path fill="#000000" d="M955 -635V-698H701C715 -739 726 -782 735 -826L673 -838C650 -724 611 -615 551 -543C567 -534 592 -515 603 -503C631 -540 656 -585 677 -635ZM506 -712C492 -745 461 -794 433 -831L377 -809C403 -772 434 -720 448 -685ZM226 -702V-233H139V-702ZM286 -171V-763H79V-76H139V-171ZM428 -474C430 -519 430 -565 431 -613H595V-677H300V-613H368C365 -328 357 -92 248 41C265 49 287 70 296 85C389 -27 417 -201 426 -413H513C504 -124 494 -23 479 0C471 12 465 14 453 13C441 13 417 13 389 10C399 28 404 53 405 72C435 73 462 73 481 71C503 68 519 61 533 42C556 8 565 -105 576 -442C576 -451 577 -474 577 -474ZM951 -227V-292H809C810 -311 810 -329 810 -346V-436H924V-498H724C734 -528 742 -560 749 -592L690 -603C671 -508 638 -413 591 -350C606 -343 631 -327 643 -318C666 -351 686 -391 703 -436H748V-346C748 -329 748 -312 747 -292H606V-227H739C724 -140 684 -42 578 36C593 45 614 65 624 79C742 -13 786 -127 802 -227ZM790 -171C833 -93 881 11 902 74L957 44C935 -15 885 -117 841 -195Z"/>
</svg>