<svg xmlns="http://www.w3.org/2000/svg" viewBox="0 -1000 1000 1000">
	<path fill="#000000" d="M678 -252H612V-137H447V-75H608V75H681V-75H849V-137H678ZM482 -572H818V-496H482ZM482 -702H818V-626H482ZM948 -295V-359H610C623 -384 635 -411 645 -439H887V-759H644C655 -780 667 -803 679 -828L596 -836C590 -815 578 -785 566 -759H415V-439H574C563 -411 550 -384 537 -359H362L367 -365C351 -391 283 -499 259 -534V-575H362V-645H259V-836H191V-645H66V-575H188C159 -439 100 -281 41 -198C53 -180 71 -149 79 -128C119 -190 160 -289 191 -394V76H259V-444C284 -398 312 -343 324 -314L356 -352V-295H494C447 -234 387 -184 318 -148C332 -135 356 -108 365 -95C448 -144 519 -212 574 -295H717C763 -216 838 -138 914 -99C924 -115 946 -139 961 -152C896 -180 831 -235 787 -295Z"/>
</svg>