<svg xmlns="http://www.w3.org/2000/svg" viewBox="0 -1000 1000 1000">
	<path fill="#000000" d="M345 -349C331 -377 269 -480 242 -522V-575H349V-645H242V-837H180V-645H52V-575H173C148 -439 92 -281 36 -197C48 -180 63 -147 70 -126C110 -192 150 -298 180 -410V76H242V-430C267 -382 294 -325 306 -294ZM639 -224C635 -89 618 -15 525 31C538 40 555 63 562 77C669 22 693 -68 697 -224ZM763 -309C744 -309 741 -317 741 -342V-374L866 -387L859 -436L741 -423V-493H887C882 -465 876 -439 870 -419L920 -406C933 -441 946 -495 954 -542L914 -554L904 -551H724V-611H926V-666H724V-728H692C773 -740 849 -755 910 -772L853 -827C747 -795 555 -769 392 -753C397 -420 396 -147 291 33C306 41 337 66 348 79C451 -114 459 -365 460 -699C524 -705 592 -713 656 -722V-551H515V-350C515 -235 504 -79 415 35C427 42 452 65 462 78C559 -44 577 -223 577 -349V-493H680V-416L592 -407L598 -353L680 -362V-342C680 -283 693 -259 755 -259H871C895 -259 920 -260 932 -264C930 -278 928 -297 927 -313C913 -309 885 -309 868 -309ZM853 6C846 6 840 5 835 2C831 -1 830 -7 830 -13V-224H770V-15C770 28 773 40 788 53C800 64 821 68 840 68H889C904 68 923 65 934 60C946 53 955 43 961 29C966 14 969 -25 971 -62C954 -67 932 -80 920 -91C920 -57 918 -26 916 -15C914 -6 909 0 904 3C901 5 891 6 882 6Z"/>
</svg>