<svg xmlns="http://www.w3.org/2000/svg" viewBox="0 -1000 1000 1000">
	<path fill="#000000" d="M938 -594C920 -641 878 -714 839 -770L784 -747C821 -691 862 -615 880 -566ZM670 -726H541C532 -757 515 -799 498 -831L435 -813C447 -787 460 -754 469 -726H340V-667H670ZM221 -577H311V-646H221V-837H161V-646H49V-577H150C127 -452 77 -308 27 -233C38 -214 53 -181 60 -159C97 -222 134 -324 161 -429V76H221V-425C246 -376 277 -317 288 -286L326 -341C310 -368 245 -475 221 -512ZM411 -121V-215H569V-121ZM569 -361V-269H411V-361ZM863 -422C846 -363 824 -306 795 -253C785 -317 777 -390 770 -472H943V-533H766C760 -626 756 -728 755 -833H689C692 -728 695 -627 701 -533H592C604 -568 618 -611 632 -650L568 -665C561 -627 546 -573 533 -533H470C466 -571 453 -623 438 -663L386 -652C398 -615 409 -570 413 -533H320V-472H705C714 -357 726 -255 742 -173C710 -128 672 -88 631 -51V-415H351V3H411V-67H569V-41H619C598 -22 574 -5 549 11C564 21 586 44 596 57C658 14 713 -38 760 -96C789 0 828 57 881 59C915 59 948 20 968 -124C955 -130 929 -146 918 -161C911 -73 899 -23 882 -23C854 -24 829 -77 810 -164C858 -238 894 -320 921 -407Z"/>
</svg>