<svg xmlns="http://www.w3.org/2000/svg" viewBox="0 -1000 1000 1000">
	<path fill="#000000" d="M620 -744H811V-666H685V-493H620ZM811 -493H731V-614H811ZM567 -434H864V-113C864 -104 861 -101 850 -100C841 -100 806 -100 769 -101C777 -85 784 -64 787 -48C839 -48 873 -48 894 -58C916 -67 922 -82 922 -114V-493H868V-802H565V-493H509V-47H567ZM764 -208H672V-322H764ZM812 -369H624V-109H672V-161H812ZM444 -667C433 -709 411 -776 394 -828L338 -811C352 -759 374 -691 385 -648ZM312 -337C299 -364 246 -472 222 -514V-556H292V-623H222V-836H158V-623H58V-556H141C122 -428 80 -274 34 -192C44 -177 61 -149 69 -131C103 -193 134 -296 158 -401V77H222V-404C242 -358 262 -307 273 -278ZM455 -370L445 -367H409C430 -436 453 -522 471 -594H308V-529H393C374 -451 350 -367 331 -308H413C401 -235 380 -153 353 -95C325 -79 294 -37 262 17L310 79C331 20 359 -43 377 -43C398 -43 430 -13 466 13C527 53 594 68 693 68C768 68 893 63 947 60C948 41 958 7 965 -11C888 -2 775 3 694 3C604 3 538 -7 481 -44C450 -64 431 -82 411 -93C444 -167 471 -268 485 -357Z"/>
</svg>