<svg xmlns="http://www.w3.org/2000/svg" viewBox="0 -1000 1000 1000">
	<path fill="#000000" d="M327 -127C270 -78 159 -33 67 -12C83 2 104 29 115 46C209 18 323 -40 385 -101ZM613 -85C703 -47 820 9 881 44L927 -9C864 -43 745 -95 657 -130ZM681 -708H787C761 -686 731 -664 701 -645H681ZM810 -441H585V-498H810ZM810 -341H585V-399H810ZM948 -589V-645H793C844 -683 889 -724 927 -769L873 -791C851 -766 826 -741 800 -719V-762H681V-834H613V-763H488V-708H613V-645H440V-589H604C551 -561 494 -536 436 -516L458 -556C429 -570 381 -590 339 -603C371 -626 408 -655 437 -683L393 -719C370 -694 332 -659 299 -632C285 -653 269 -672 250 -689C269 -706 286 -723 301 -742H466V-799H82V-742H230C182 -694 117 -652 52 -621C65 -612 85 -591 94 -580C132 -601 173 -626 210 -656C223 -644 233 -630 243 -617C196 -569 119 -522 54 -498C67 -486 81 -464 88 -451C148 -480 218 -526 268 -573C275 -558 281 -541 286 -525C229 -466 132 -405 53 -374C65 -362 78 -340 86 -325C156 -358 237 -412 297 -467C302 -413 293 -368 275 -351C264 -337 251 -336 233 -336C219 -336 197 -336 174 -339C183 -322 188 -297 188 -281C210 -280 230 -279 246 -279C278 -280 301 -286 323 -310C361 -349 373 -454 337 -553C372 -540 407 -525 430 -513C415 -508 399 -502 383 -497C397 -486 419 -463 429 -451C459 -462 490 -474 520 -487V-313H460V-237H64V-176H460V75H534V-176H938V-237H534V-297H877V-542H632C659 -557 687 -572 713 -589Z"/>
</svg>