<svg xmlns="http://www.w3.org/2000/svg" viewBox="0 -1000 1000 1000">
	<path fill="#000000" d="M362 -321C346 -347 275 -456 249 -491V-557H356V-627H249V-838H181V-627H55V-557H175C148 -421 90 -261 32 -177C45 -159 62 -128 70 -107C111 -171 151 -273 181 -380V74H249V-402C276 -354 307 -296 320 -266ZM455 -631H596V-579L474 -569L478 -517L596 -527C597 -472 611 -447 676 -447H834C862 -447 895 -448 910 -452C907 -468 906 -483 904 -502C888 -498 850 -497 831 -497H691C667 -497 663 -505 663 -529V-540L811 -552L808 -596L663 -585V-631H883C878 -604 872 -577 866 -557L921 -543C932 -578 946 -630 958 -676L914 -687L902 -685H686V-733H895V-782H686V-836H615V-685H389V-428C389 -290 378 -103 279 32C295 39 321 62 333 75C438 -68 455 -280 455 -428ZM561 -284H668V-236H561ZM561 -370H668V-324H561ZM835 -324H725V-370H835ZM835 -236H725V-284H835ZM503 -195H894V-411H503ZM534 -106H608V-3H534ZM731 -106V-3H657V-106ZM857 -106V-3H780V-106ZM917 -3V-155H476V-3H416V54H960V-3Z"/>
</svg>