<svg xmlns="http://www.w3.org/2000/svg" viewBox="0 -1000 1000 1000">
	<path fill="#000000" d="M946 -802H654V-749H946ZM921 -529V-703H670V-526H725V-658H865V-529ZM841 -553C833 -577 815 -614 798 -641L755 -628C771 -599 788 -561 795 -537ZM613 -802H335V-749H613ZM334 -335C320 -362 258 -469 232 -510V-575H317V-645H232V-837H168V-645H53V-575H158C133 -444 83 -291 32 -211C43 -192 59 -160 65 -138C103 -203 141 -308 168 -416V75H232V-417C256 -368 284 -310 295 -279ZM518 -327V-249H412C414 -276 415 -303 415 -327ZM518 -438V-375H415V-438ZM689 -375H581V-438H689ZM689 -249H581V-327H689ZM859 -327V-249H751V-327ZM786 8C758 8 754 5 754 -16V-93H904V-143H754V-200H924V-375H751V-438H953V-489H683C675 -512 662 -544 649 -569L599 -552V-703H358V-526H411V-658H543V-529H598C604 -516 609 -503 614 -489H351V-333C351 -225 341 -73 266 37C281 44 310 61 322 71C374 -6 398 -107 408 -200H455V-22C455 10 439 15 426 19C435 36 444 66 447 84C463 74 490 66 660 33C658 19 657 -5 657 -21L517 2V-93H644V-142H517V-200H690V-16C690 48 708 65 778 65H886C938 65 956 46 963 -27C945 -32 920 -41 907 -51C904 1 900 8 879 8ZM441 -624C456 -597 471 -561 477 -537L521 -552C514 -574 498 -611 484 -638Z"/>
</svg>