<svg xmlns="http://www.w3.org/2000/svg" viewBox="0 -1000 1000 1000">
	<path fill="#000000" d="M149 -405V-491H250V-405ZM421 -491V-405H318V-491ZM217 -702H355V-639H217ZM480 -22C448 -42 333 -106 285 -129L287 -135H517V-190H303C308 -210 311 -228 313 -248H489V-301H317C318 -314 318 -328 318 -341V-355H487V-445C505 -435 530 -419 542 -410C579 -466 611 -538 636 -618H879C867 -553 848 -481 830 -434L888 -415C915 -481 942 -585 961 -674L913 -689L901 -686H655C666 -730 676 -778 684 -826L615 -836C593 -691 553 -551 487 -458V-542H318V-595H425V-702H530V-757H425V-836H355V-757H217V-836H150V-757H45V-702H150V-595H250V-542H86V-355H250V-340C250 -327 250 -314 249 -301H83V-248H245C243 -228 240 -210 235 -190H46V-135H216C187 -72 136 -14 44 27C59 39 80 64 89 79C173 36 227 -19 262 -80C317 -48 402 8 438 35ZM746 -558H676V-489C676 -345 660 -131 468 28C484 40 507 66 517 83C631 -14 690 -130 718 -241C760 -107 820 -11 921 77C931 56 952 34 968 20C842 -83 781 -202 744 -404C745 -434 746 -461 746 -488Z"/>
</svg>