<svg xmlns="http://www.w3.org/2000/svg" viewBox="0 -1000 1000 1000">
	<path fill="#000000" d="M856 -590C844 -524 826 -453 809 -406L866 -388C892 -453 917 -557 935 -645L889 -660L877 -657H672C686 -711 697 -767 706 -823L640 -836C619 -690 581 -544 525 -450C541 -439 569 -417 580 -406C608 -456 633 -519 653 -590ZM268 -653H333V-716H525V-771H333V-838H268V-771H77V-716H268ZM151 -492H213V-564H390V-491H452V-564H551V-620H452V-686H390V-620H213V-686H151V-620H51V-564H151ZM154 -207H440V-140H154ZM154 -321H440V-257H154ZM154 -436H440V-371H154ZM89 -89H507V-487H89ZM197 -76C162 -40 100 -6 43 18C58 30 81 55 91 69C150 39 219 -8 259 -54ZM326 -36C369 -7 422 34 453 63L498 19C467 -8 413 -46 365 -76ZM747 -516H679V-470C679 -333 666 -132 496 27C513 37 538 59 550 76C647 -17 697 -124 722 -227C761 -94 821 13 911 72C921 53 943 26 959 13C844 -52 777 -208 745 -381C746 -411 747 -441 747 -468Z"/>
</svg>