<svg xmlns="http://www.w3.org/2000/svg" viewBox="0 -1000 1000 1000">
	<path fill="#000000" d="M901 -771C890 -738 864 -687 846 -656L886 -638C904 -667 928 -709 951 -749ZM959 -506C930 -542 867 -600 817 -640C831 -694 837 -758 840 -835H781C775 -668 757 -569 648 -511C661 -501 677 -481 685 -467C740 -497 776 -537 799 -586C844 -547 893 -496 919 -464ZM750 -662C740 -689 718 -734 700 -769L658 -753V-754L608 -774C596 -740 572 -690 554 -658L592 -642C612 -671 634 -714 657 -753C675 -718 696 -671 706 -641ZM630 -535C606 -563 558 -607 519 -641C533 -695 539 -759 542 -835H482C477 -670 459 -567 350 -509C363 -498 380 -479 387 -465C442 -495 478 -536 501 -587C534 -555 570 -519 590 -493ZM446 -645C436 -675 414 -727 393 -765L349 -749C369 -710 390 -657 400 -625ZM258 -702V-235H144V-702ZM317 -763H82V-76H144V-173H317ZM646 -267C651 -298 654 -330 656 -364H589C587 -330 584 -298 579 -267H379V-205H567C540 -97 481 -21 340 25C354 37 373 61 380 77C540 20 606 -73 635 -205H818C807 -68 795 -11 777 5C769 13 760 14 745 14C728 14 687 14 643 10C655 28 662 53 663 73C707 75 751 76 774 74C801 72 818 66 835 48C861 21 876 -52 891 -236C892 -246 893 -267 893 -267ZM372 -295H435V-393H864V-295H929V-454H372Z"/>
</svg>