<svg xmlns="http://www.w3.org/2000/svg" viewBox="0 -1000 1000 1000">
	<path fill="#000000" d="M820 -566C802 -542 778 -520 751 -501C700 -525 647 -547 600 -566ZM552 -566H593L565 -528C606 -511 651 -491 696 -470C644 -445 587 -430 527 -420C537 -407 551 -386 558 -371C630 -385 699 -406 757 -440C812 -412 863 -385 898 -363L928 -410C898 -429 856 -451 808 -474C851 -508 886 -550 908 -603L869 -619L858 -617H572C639 -655 656 -706 656 -752V-755H776V-716C776 -662 787 -640 841 -640H895C911 -640 928 -641 938 -644C936 -659 934 -680 933 -695C922 -692 904 -691 893 -691H850C838 -691 837 -696 837 -715V-809H596V-754C596 -718 582 -681 509 -648C521 -641 541 -625 552 -613ZM307 -663V-628C307 -624 307 -620 307 -616H173V-575H297C282 -543 248 -510 171 -488C182 -478 197 -463 205 -451C269 -474 307 -503 329 -533C373 -508 421 -477 447 -456L480 -493C449 -515 395 -549 349 -571L350 -575H489V-616H358V-628V-663H470V-704H267C273 -715 278 -726 282 -736L234 -748C220 -711 197 -674 170 -643C182 -639 203 -627 212 -619C223 -632 233 -646 244 -663ZM94 -489C94 -414 119 -386 201 -386H419C458 -386 498 -387 514 -391C511 -406 508 -428 507 -445C487 -441 442 -440 416 -440H202C166 -440 157 -452 157 -487V-748H515V-802H68V-748H94ZM259 -277C235 -181 178 -108 94 -62C109 -51 134 -30 144 -19C190 -48 232 -87 264 -134C307 -97 353 -52 378 -22L420 -66C392 -98 339 -146 292 -183C305 -209 316 -237 324 -267ZM534 -16V-285H904V-345H103V-285H462V-16H55V39H948V-16ZM702 -277C680 -182 627 -108 548 -61C563 -50 588 -29 598 -18C644 -49 684 -90 714 -140C766 -102 823 -54 853 -23L894 -70C860 -104 796 -154 741 -192C752 -216 759 -241 766 -268Z"/>
</svg>