<svg xmlns="http://www.w3.org/2000/svg" viewBox="0 -1000 1000 1000">
	<path fill="#000000" d="M853 -464V-508H590V-540H526V-434C526 -374 552 -361 647 -361H842C906 -361 926 -378 933 -452C916 -455 893 -462 879 -471C876 -416 868 -407 834 -407H650C600 -407 590 -411 590 -434V-464ZM592 -750C570 -733 545 -717 520 -704H235C255 -719 271 -734 288 -750ZM776 -601H241V-658H776ZM178 -555H843V-704H614C644 -723 672 -744 696 -766L657 -797L644 -794H331C341 -806 351 -817 360 -828L292 -841C248 -783 169 -716 64 -668C79 -658 100 -638 109 -624C134 -636 156 -650 178 -664ZM811 -33C773 -54 704 -82 651 -97L621 -58C675 -41 744 -11 780 10ZM237 -145V-209H477C473 -186 466 -164 457 -145ZM583 -299C566 -284 544 -269 524 -257H234C253 -271 270 -285 287 -299ZM793 -145H527C534 -164 540 -186 545 -209H793ZM629 16C571 16 559 11 559 -12V-97H860V-257H613C639 -275 664 -295 684 -315L646 -346L633 -343H334C343 -353 351 -362 359 -371L341 -375C379 -381 428 -388 492 -397C491 -408 490 -429 492 -444L257 -414V-465H487V-509H257V-542H195V-447C195 -412 186 -402 176 -396C184 -387 196 -361 199 -347C209 -352 223 -356 272 -364C223 -313 146 -260 48 -220C63 -212 84 -191 93 -176C121 -190 148 -204 173 -218V-97H427C372 -32 267 3 65 23C76 37 91 63 95 79C322 53 436 6 496 -83V-12C496 52 523 67 627 67H848C921 67 941 47 949 -38C931 -41 908 -49 893 -58C890 6 882 16 841 16Z"/>
</svg>