<svg xmlns="http://www.w3.org/2000/svg" viewBox="0 -1000 1000 1000">
	<path fill="#000000" d="M304 1C276 1 272 -4 272 -28V-92L475 -121L466 -170L272 -142V-213L445 -238L436 -286L272 -263V-329C332 -341 389 -355 436 -370L382 -411C307 -384 171 -359 52 -342C60 -329 68 -309 70 -297C114 -303 159 -309 205 -317V-253L67 -234L76 -185L205 -204V-132L45 -109L54 -60L205 -82V-27C205 41 224 60 296 60H404C460 60 478 36 485 -50C467 -54 440 -64 426 -75C425 -10 420 1 397 1ZM579 -469C511 -469 499 -475 499 -507V-533L932 -570L925 -619L499 -584V-642L852 -671L846 -720L499 -692V-750C609 -763 712 -779 794 -797L742 -837C606 -804 349 -778 132 -765C137 -753 145 -733 147 -720C238 -725 335 -733 429 -743V-686L130 -662L135 -612L429 -636V-578L79 -549L84 -498L429 -527V-507C429 -430 462 -414 576 -414H818H832C918 -414 942 -435 950 -520C931 -523 905 -531 888 -541C884 -479 874 -469 826 -469ZM752 1C720 1 715 -4 715 -30V-95L947 -132L937 -180L715 -145V-218L916 -251L906 -299L715 -268V-331C773 -343 828 -358 873 -373L818 -414C745 -385 610 -358 493 -339C500 -327 509 -307 512 -294C556 -300 601 -308 647 -317V-256L505 -233L515 -185L647 -207V-134L499 -111L509 -62L647 -84V-30C647 41 667 60 743 60H866C926 60 945 33 952 -61C932 -66 907 -75 892 -86C889 -12 884 1 859 1Z"/>
</svg>