<svg xmlns="http://www.w3.org/2000/svg" viewBox="0 -1000 1000 1000">
	<path fill="#000000" d="M236 -728C222 -757 187 -798 155 -825L103 -803C134 -772 168 -731 182 -703ZM442 -828C423 -792 393 -753 362 -722C377 -716 401 -700 413 -692C442 -723 477 -771 499 -812ZM154 -641H454V-425C454 -416 451 -413 441 -413C430 -412 398 -412 359 -413C367 -397 375 -375 377 -358C430 -358 465 -359 487 -368C510 -378 515 -394 515 -425V-692H336V-834H270V-692H94V-356H154ZM352 -470H253V-549H352ZM206 -594V-425H402V-594ZM582 -2C517 -2 505 -9 505 -40V-67L939 -109L932 -160L505 -119V-178L855 -211L849 -263L505 -229V-289C611 -303 710 -321 789 -340L735 -383C602 -348 353 -319 141 -302C147 -289 155 -268 157 -254C246 -261 340 -269 432 -280V-223L111 -192L117 -140L432 -171V-112L58 -77L65 -25L432 -60V-40C432 39 464 59 579 59H823C911 59 934 35 944 -55C923 -59 895 -68 877 -78C873 -13 864 -2 817 -2ZM655 -678H822C803 -627 773 -585 736 -549C702 -586 673 -628 653 -673ZM948 -678V-736H683C695 -764 707 -794 715 -823L654 -836C626 -744 578 -654 519 -594C533 -585 558 -564 569 -554C586 -572 603 -594 619 -617C639 -579 664 -544 692 -512C643 -475 584 -448 518 -427C529 -415 547 -386 554 -373C622 -396 683 -427 736 -468C788 -420 849 -382 914 -357C923 -374 942 -396 957 -409C892 -429 832 -463 781 -507C828 -553 865 -610 890 -678Z"/>
</svg>