<svg xmlns="http://www.w3.org/2000/svg" viewBox="0 -1000 1000 1000">
	<path fill="#000000" d="M928 -692V-750H306C319 -772 331 -794 341 -817L266 -836C221 -732 141 -634 53 -571C72 -560 104 -536 118 -524C171 -567 224 -626 270 -692ZM857 -552V-609H251V-552ZM217 -290C217 -195 189 -68 50 25C66 34 95 59 106 73C251 -28 288 -176 288 -288V-344H217ZM466 63H538V-344H466ZM147 -466V-406H714C717 -74 729 76 876 76C938 76 954 33 960 -92C944 -102 924 -120 909 -136C907 -54 901 5 880 5C791 5 787 -144 788 -466Z"/>
</svg>