<svg xmlns="http://www.w3.org/2000/svg" viewBox="0 -1000 1000 1000">
	<path fill="#000000" d="M330 -721C289 -756 206 -800 140 -826L99 -771C166 -743 247 -696 287 -659ZM271 -451C230 -485 149 -528 86 -553L46 -497C111 -470 190 -424 230 -390ZM142 63C200 -29 270 -153 322 -257L268 -306C211 -194 133 -63 79 13ZM708 -247C671 -308 586 -396 512 -459L460 -416C534 -352 617 -260 652 -200ZM512 -672C531 -720 547 -769 561 -820L486 -837C448 -691 385 -548 303 -457C322 -446 354 -423 368 -410C410 -462 448 -528 483 -601H854C841 -200 825 -47 791 -13C780 0 768 3 747 3C724 3 662 3 596 -3C610 18 618 49 620 72C681 75 741 77 777 73C813 70 835 61 858 32C898 -17 912 -176 928 -633C929 -642 929 -672 929 -672Z"/>
</svg>