<svg xmlns="http://www.w3.org/2000/svg" viewBox="0 -1000 1000 1000">
	<path fill="#000000" d="M329 -722C288 -757 206 -801 139 -827L99 -772C166 -743 247 -696 286 -660ZM271 -452C230 -486 149 -528 85 -554L45 -498C111 -470 189 -424 230 -390ZM268 -307C211 -194 132 -63 79 13L141 63C200 -29 270 -153 322 -258ZM929 -588V-661H560C565 -715 569 -771 573 -828L499 -830C495 -772 491 -716 486 -661H348V-588H479C452 -332 401 -115 289 29C307 39 343 65 355 76C470 -84 523 -313 553 -588ZM938 48C917 -43 863 -181 805 -287L744 -263C773 -207 801 -140 825 -76L589 -49C646 -173 702 -337 739 -491L662 -508C634 -347 570 -167 550 -121C530 -73 515 -39 497 -33C506 -15 517 21 521 35C542 24 576 18 846 -17C857 17 865 48 871 75Z"/>
</svg>