<svg xmlns="http://www.w3.org/2000/svg" viewBox="0 -1000 1000 1000">
	<path fill="#000000" d="M831 -776C800 -705 758 -622 717 -565C735 -558 766 -542 781 -532C817 -591 864 -681 898 -757ZM549 -562C524 -619 472 -707 428 -773L367 -748C409 -680 461 -588 485 -530ZM255 -454C219 -488 144 -532 85 -559L41 -506C103 -476 176 -430 211 -395ZM133 60C181 -32 236 -154 278 -259L218 -302C173 -188 110 -58 66 18ZM95 -774C154 -740 224 -687 256 -649L305 -702C272 -740 201 -790 142 -821ZM953 -282H672V-433H923V-503H672V-837H599V-503H343V-433H599V-282H319V-213H599V76H672V-213H953Z"/>
</svg>