<svg xmlns="http://www.w3.org/2000/svg" viewBox="0 -1000 1000 1000">
	<path fill="#000000" d="M878 -769H404V-700H878ZM307 -720C268 -749 192 -795 136 -826L94 -773C150 -739 225 -690 263 -660ZM257 -463C218 -490 140 -534 84 -561L43 -507C100 -476 176 -430 214 -401ZM133 64C184 -29 244 -153 289 -258L230 -302C182 -189 115 -58 68 19ZM434 -357C404 -247 354 -136 292 -64C310 -55 341 -36 354 -26C414 -102 469 -222 504 -340ZM940 -454V-524H340V-454H590V75H666V-454ZM761 -336C811 -236 862 -105 880 -25L947 -51C929 -132 876 -260 824 -358Z"/>
</svg>