<svg xmlns="http://www.w3.org/2000/svg" viewBox="0 -1000 1000 1000">
	<path fill="#000000" d="M314 -721C276 -757 198 -801 134 -828L94 -774C157 -745 234 -698 271 -662ZM265 -461C225 -494 145 -536 82 -561L41 -505C106 -478 184 -433 223 -399ZM248 -308C194 -194 121 -63 71 15L134 62C189 -31 255 -156 304 -262ZM414 -374V-481H581C585 -444 589 -408 593 -374ZM571 -648C572 -613 574 -578 576 -544H414V-648ZM837 -648V-544H648C645 -578 644 -612 642 -648ZM665 -374C660 -408 656 -444 653 -481H837V-374ZM808 -277C782 -238 748 -203 708 -171C695 -212 684 -258 675 -310H909V-713H640C640 -753 640 -793 640 -835H567C567 -794 568 -753 569 -713H343V-256H414V-310H603C614 -242 629 -181 647 -129C547 -67 423 -24 295 4C309 20 329 54 338 70C457 39 573 -5 673 -65C716 24 775 76 853 76C926 76 952 35 965 -107C947 -113 920 -128 906 -143C899 -32 888 6 857 6C808 6 766 -34 734 -105C791 -146 840 -194 878 -250Z"/>
</svg>