<svg xmlns="http://www.w3.org/2000/svg" viewBox="0 -1000 1000 1000">
	<path fill="#000000" d="M299 -715C264 -750 193 -796 134 -825L89 -774C148 -743 218 -694 251 -658ZM259 -459C221 -491 145 -534 84 -560L41 -506C103 -478 178 -432 214 -399ZM134 61C182 -32 239 -155 281 -260L227 -302C180 -189 115 -59 71 17ZM803 -368H735V-256H506V-368H439V-256H291V-190H436C427 -114 396 -35 294 27C310 38 333 62 343 77C462 3 495 -95 504 -190H735V75H803V-190H953V-256H803ZM946 -658V-723H602C615 -758 625 -793 632 -828L560 -836C553 -799 542 -761 526 -723H316V-658H493C447 -581 379 -510 281 -458C297 -447 319 -421 328 -404C374 -430 414 -460 449 -492V-431H588V-302H655V-431H802V-493H655V-601H588V-493H450C503 -543 543 -599 573 -658H678C731 -558 823 -466 920 -419C931 -436 953 -462 968 -474C883 -510 801 -580 750 -658Z"/>
</svg>