<svg xmlns="http://www.w3.org/2000/svg" viewBox="0 -1000 1000 1000">
	<path fill="#000000" d="M245 -710C216 -746 155 -795 105 -826L66 -783C116 -749 176 -697 204 -661ZM216 -445C186 -477 124 -521 76 -549L39 -504C88 -474 148 -426 178 -394ZM105 60C143 -24 188 -139 221 -236L172 -272C135 -170 86 -49 49 23ZM525 -402L431 -372V-567H526V-636H431V-836H365V-636H251V-567H365V-351C320 -336 278 -323 243 -315L262 -242L365 -276V-17C365 -3 360 1 347 1C337 2 298 2 256 1C265 21 274 52 277 70C338 70 375 68 398 56C422 44 431 24 431 -17V-298C465 -310 500 -322 535 -334ZM838 -290V-50H626V-290ZM565 73H626V12H838V63H901V-353H565ZM712 -843C669 -716 589 -577 499 -498C516 -487 536 -470 546 -457C562 -472 578 -488 593 -506V-445H867V-508H595C646 -569 691 -643 728 -722C779 -619 841 -537 920 -463C928 -480 949 -501 965 -513C879 -588 810 -674 758 -789C762 -801 767 -812 771 -824Z"/>
</svg>