<svg xmlns="http://www.w3.org/2000/svg" viewBox="0 -1000 1000 1000">
	<path fill="#000000" d="M804 -669H457V-748H804ZM804 -536H457V-617H804ZM876 -804H386V-479H876ZM314 -721C276 -757 198 -801 134 -828L94 -774C157 -745 234 -698 271 -662ZM265 -461C225 -494 145 -536 82 -561L41 -505C106 -478 184 -433 223 -399ZM244 -308C190 -194 117 -63 67 15L131 62C185 -31 251 -156 300 -262ZM666 -168H883V-228H666V-345H947V-408H318V-345H593V-29C535 -53 490 -97 460 -177C469 -212 476 -250 481 -290L411 -298C394 -151 347 -38 255 31C272 42 301 65 313 76C366 30 407 -29 436 -102C503 34 612 61 762 61H943C945 42 956 11 965 -5C930 -4 790 -4 765 -4C730 -4 697 -6 666 -10Z"/>
</svg>