<svg xmlns="http://www.w3.org/2000/svg" viewBox="0 -1000 1000 1000">
	<path fill="#000000" d="M819 -636H663V-735H819ZM819 -480H663V-581H819ZM445 -581H595V-480H445ZM445 -735H595V-636H445ZM890 -794H377V-422H890ZM324 -721C283 -757 201 -801 134 -826L94 -772C160 -744 242 -697 281 -661ZM267 -460C226 -495 146 -537 82 -562L43 -507C108 -479 186 -433 226 -399ZM138 59C191 -31 254 -150 301 -253L244 -299C192 -189 121 -61 72 13ZM874 -244C840 -216 787 -180 740 -151C715 -188 693 -228 677 -272H939V-339H319V-272H409V-52C409 -12 384 4 368 13C379 28 393 58 398 77C417 64 448 53 659 -1C658 -16 658 -46 660 -65L481 -24V-272H608C661 -110 759 11 908 69C918 48 939 21 955 7C886 -16 827 -54 779 -105C826 -130 879 -163 922 -195Z"/>
</svg>