<svg xmlns="http://www.w3.org/2000/svg" viewBox="0 -1000 1000 1000">
	<path fill="#000000" d="M303 -712C266 -746 189 -794 131 -824L88 -771C148 -738 224 -688 260 -654ZM268 -453C227 -484 146 -527 85 -552L45 -497C108 -469 187 -423 227 -392ZM228 -306C178 -194 110 -63 64 13L128 59C179 -33 239 -157 283 -261ZM511 -514V-399C511 -357 489 -341 475 -334C485 -321 498 -296 503 -281C517 -291 543 -300 691 -336C689 -349 689 -373 690 -391L574 -366V-514H945V-569H422V-628H881V-679H422V-733H937V-791H353V-498C353 -341 343 -124 239 30C257 36 287 51 301 63C407 -96 422 -332 422 -498V-514ZM871 -502C849 -482 813 -452 783 -432C739 -455 696 -478 657 -496L622 -456C717 -409 839 -338 899 -291L936 -337C909 -356 872 -380 831 -404C859 -421 890 -442 916 -464ZM494 -135C537 -98 583 -44 604 -7L658 -47C636 -82 589 -133 544 -169ZM951 -237H820V-313H752V-237H440V-177H752V1C752 12 749 15 736 16C724 17 682 17 633 15C642 33 651 58 653 76C718 76 761 76 786 66C813 55 820 38 820 2V-177H951Z"/>
</svg>