<svg xmlns="http://www.w3.org/2000/svg" viewBox="0 -1000 1000 1000">
	<path fill="#000000" d="M555 -701C505 -629 430 -557 407 -540C387 -521 368 -508 351 -506C359 -489 368 -456 372 -442C396 -452 436 -456 786 -486C805 -464 823 -445 835 -427L889 -463C850 -515 769 -594 698 -645L647 -615C675 -594 705 -566 734 -539L471 -519C521 -561 572 -614 617 -667ZM473 -821C424 -733 334 -656 243 -607C258 -596 285 -571 296 -558C388 -614 485 -702 540 -800ZM292 -720C256 -753 184 -796 128 -823L93 -769C148 -739 220 -692 254 -659ZM235 -460C199 -491 129 -531 75 -555L41 -501C95 -473 165 -429 199 -398ZM228 -309C179 -198 111 -68 66 7L120 58C171 -34 230 -157 275 -259ZM580 -392H285V-329H513V-176C422 -128 331 -81 269 -53L299 1C361 -32 438 -75 513 -118V-6C513 5 510 9 499 9C488 9 452 10 410 8C419 26 428 50 431 68C487 68 524 67 548 57C573 46 580 29 580 -5ZM466 -201C442 -229 393 -274 353 -305L312 -273C352 -240 400 -193 424 -162ZM919 -392H617V-329H852V-177C760 -131 668 -87 606 -60L637 -6C698 -38 776 -79 852 -120V-5C852 5 849 9 837 9C826 9 788 10 746 8C756 26 764 50 768 68C824 68 863 67 887 57C912 46 919 29 919 -5ZM798 -204C774 -232 722 -276 681 -307L640 -274C681 -242 732 -196 757 -165ZM568 -815V-756H706C758 -676 842 -604 923 -560C933 -578 954 -602 969 -615C885 -653 790 -731 745 -815Z"/>
</svg>