<svg xmlns="http://www.w3.org/2000/svg" viewBox="0 -1000 1000 1000">
	<path fill="#000000" d="M567 -700C550 -734 512 -782 475 -818L423 -790C458 -754 495 -704 510 -669ZM150 -328C152 -369 152 -407 152 -442V-498H277V-328ZM277 -732V-566H152V-732ZM340 -800H89V-441C89 -297 85 -98 32 44C49 49 76 66 88 76C123 -19 140 -143 147 -259H277V-14C277 -1 273 3 261 3C251 4 215 4 175 3C184 21 193 49 195 67C253 67 288 65 310 54C333 42 340 23 340 -13ZM802 -300C783 -266 751 -219 722 -185C711 -192 700 -198 689 -204V-373H621V-186C529 -135 437 -85 374 -55L407 3C470 -31 546 -75 621 -119V-2C621 9 618 12 605 12C594 13 553 13 508 12C517 30 525 54 528 72C590 72 631 72 656 62C682 52 689 35 689 -1V-134C764 -83 843 -23 886 20L931 -30C895 -65 833 -111 770 -154C799 -186 833 -229 860 -269ZM446 -259C479 -225 514 -176 528 -144L582 -177C567 -210 531 -256 498 -289ZM953 -432V-495H632C645 -524 655 -556 665 -589H909V-652H804C837 -691 868 -743 895 -795L833 -814C813 -773 781 -720 749 -682C761 -675 780 -662 793 -652H680C692 -706 700 -766 705 -831L636 -835C631 -768 624 -707 612 -652H414V-589H596C586 -555 573 -523 559 -495H376V-432H518C475 -376 418 -332 343 -299C358 -286 383 -259 392 -245C484 -293 552 -353 600 -432H714C762 -363 842 -296 918 -263C927 -279 947 -303 963 -314C899 -338 833 -383 787 -432Z"/>
</svg>