<svg xmlns="http://www.w3.org/2000/svg" viewBox="0 -1000 1000 1000">
	<path fill="#000000" d="M205 -334H932V-395H134V-263C134 -175 123 -58 41 30C57 39 85 64 95 78C186 -18 205 -159 205 -262ZM438 -249L426 -246H236V-187H394C348 -103 262 -40 173 -10C187 2 204 28 213 43C329 -3 436 -94 480 -232ZM826 -300C785 -264 720 -215 663 -179C630 -215 603 -253 583 -296V-328H511V5C511 15 508 18 495 19C485 20 443 20 401 19C410 36 420 60 423 78C484 78 523 78 549 68C575 58 583 42 583 6V-189C655 -83 763 -7 895 33C905 13 925 -13 940 -28C849 -49 770 -88 705 -140C763 -172 831 -216 885 -259ZM944 -688V-746H656C670 -771 682 -795 692 -819L625 -836C602 -769 551 -690 491 -632V-657H329V-718H476V-771H329V-836H262V-771H99V-718H262V-657H68V-602H236C187 -548 112 -499 44 -474C59 -461 77 -439 87 -424C146 -452 212 -498 262 -549V-416H329V-528C378 -503 430 -476 459 -456L497 -499C459 -524 386 -560 329 -584V-602H479C491 -592 507 -581 516 -571C554 -602 590 -643 620 -688H799C784 -648 759 -614 728 -583C691 -603 654 -622 621 -637L582 -597C613 -581 647 -564 680 -545C626 -508 558 -480 480 -462C491 -449 508 -424 515 -410C604 -431 679 -465 740 -511C803 -474 863 -436 900 -406L942 -452C904 -481 846 -516 786 -551C824 -590 854 -635 874 -688Z"/>
</svg>