<svg xmlns="http://www.w3.org/2000/svg" viewBox="0 -1000 1000 1000">
	<path fill="#000000" d="M848 -481H585V-575H848ZM848 -331H585V-426H848ZM848 -180H585V-276H848ZM518 -634V-121H918V-634H724C734 -662 743 -694 753 -725H946V-789H484V-725H674C669 -696 663 -662 656 -634ZM367 -485C398 -485 432 -486 447 -490C445 -506 442 -535 440 -553C423 -549 388 -548 366 -548H192C163 -548 156 -558 156 -591V-668H428V-730H156V-833H91V-592C91 -512 115 -485 195 -485ZM186 -358L175 -356H55V-294H153C128 -196 81 -104 31 -58C45 -47 64 -24 72 -10C142 -76 200 -201 224 -345ZM487 -76C463 -119 424 -181 382 -244C417 -272 455 -308 489 -342L438 -387C417 -359 383 -322 352 -290C336 -314 321 -336 306 -358V-456H241V-1C241 10 238 13 226 14C214 14 177 15 134 13C143 31 153 57 156 75C214 75 251 74 274 63C299 52 306 35 306 -1V-257C357 -178 408 -95 436 -41ZM618 -107C580 -58 502 -1 432 32C447 45 470 66 480 81C551 46 632 -13 681 -69ZM749 -72C808 -29 878 36 911 78L967 37C932 -6 860 -66 802 -109Z"/>
</svg>