<svg xmlns="http://www.w3.org/2000/svg" viewBox="0 -1000 1000 1000">
	<path fill="#000000" d="M590 -729V-677H427V-729ZM427 -574V-633H590V-574ZM676 -378C660 -418 618 -475 577 -516L531 -493C543 -480 556 -464 568 -450L427 -421V-528H649V-774H540C533 -798 519 -825 503 -847L445 -832C455 -814 466 -794 473 -774H364V-451C364 -413 344 -402 330 -396C338 -382 350 -357 354 -342C371 -352 398 -359 599 -405C611 -386 620 -367 627 -353ZM304 -610C299 -591 292 -572 285 -554L167 -543C227 -591 284 -652 336 -714L293 -746C277 -724 261 -704 243 -684L146 -677C180 -713 215 -758 244 -804L196 -832C168 -772 117 -712 103 -698C89 -682 77 -672 64 -670C70 -658 78 -631 81 -619C92 -624 111 -628 200 -637C167 -603 138 -577 124 -566C101 -546 81 -533 64 -531C70 -517 77 -491 80 -479C94 -486 116 -491 258 -508C210 -435 136 -383 48 -349C59 -337 75 -313 81 -301C215 -359 317 -454 360 -600ZM600 -141V-56H395V-141ZM665 -192H333V30H395V-6H665ZM877 -295H506C516 -311 526 -327 536 -345L463 -361C456 -343 444 -317 433 -295H138V76H210V-239H805V2C805 15 801 19 786 19C773 20 724 20 669 18C677 35 688 59 692 77C766 77 812 77 840 67C869 56 877 39 877 3ZM908 -807L899 -804H693V-323H755V-748H870C854 -706 834 -659 811 -609C869 -556 894 -518 894 -484C894 -464 888 -448 875 -440C870 -437 859 -435 849 -434C833 -433 810 -434 783 -436C794 -420 801 -396 802 -380C826 -378 855 -379 874 -381C889 -382 906 -388 918 -395C942 -410 956 -440 955 -478C955 -518 929 -566 873 -619C902 -675 929 -728 953 -785Z"/>
</svg>