<svg xmlns="http://www.w3.org/2000/svg" viewBox="0 -1000 1000 1000">
	<path fill="#000000" d="M293 -711C255 -741 182 -788 130 -820L87 -773C141 -738 213 -688 249 -656ZM255 -454C216 -482 140 -525 84 -555L42 -506C98 -473 174 -426 212 -398ZM132 66C179 -28 232 -153 272 -260L214 -300C171 -186 109 -54 66 25ZM606 -600H432V-663H606ZM606 -488H432V-550H606ZM606 -375H432V-438H606ZM364 -270H432V-316H905V-375H674V-438H870V-488H674V-550H870V-600H674V-663H895V-721H652L698 -739C685 -766 658 -811 637 -844L569 -821C588 -791 610 -749 623 -721H447C463 -753 479 -788 492 -821L426 -839C387 -732 321 -628 247 -560C263 -548 288 -522 298 -510C321 -532 342 -559 364 -588ZM470 -133C433 -85 359 -38 293 -14C309 -1 330 22 340 39C408 8 485 -53 526 -110ZM712 -102C769 -61 839 -2 873 36L923 -7C889 -45 817 -100 761 -140ZM657 -240V-297H585V-240H303V-177H585V74H657V-177H945V-240Z"/>
</svg>