<svg xmlns="http://www.w3.org/2000/svg" viewBox="0 -1000 1000 1000">
	<path fill="#000000" d="M949 -726H664C652 -758 631 -803 610 -837L552 -816C567 -790 583 -755 594 -726H304V-660H949ZM288 -722C254 -754 182 -798 127 -823L92 -769C147 -741 217 -694 252 -660ZM234 -460C199 -491 128 -531 74 -555L40 -500C94 -473 165 -429 199 -397ZM119 58C168 -32 226 -150 270 -251L224 -300C175 -190 110 -66 66 7ZM392 -241C443 -317 491 -409 531 -498L475 -528C465 -502 455 -477 444 -452L367 -445C397 -495 426 -555 447 -613L387 -640C368 -565 328 -486 316 -465C305 -443 293 -430 281 -427C288 -411 299 -381 302 -367C314 -373 334 -378 412 -389C382 -332 355 -286 342 -268C322 -237 305 -216 288 -211C295 -195 305 -166 308 -152C322 -161 344 -168 455 -193C415 -102 355 -31 271 21C285 31 306 52 315 64C439 -15 514 -143 548 -308L492 -319C488 -298 483 -278 478 -258ZM647 -160H756V-45H647ZM756 -367H647V-467H756ZM756 -214H647V-313H756ZM953 -45H817V-160H921V-214H817V-313H921V-367H817V-467H941V-526H844C835 -558 814 -600 794 -634L742 -615C757 -589 773 -555 783 -526H660C674 -557 685 -591 696 -623L636 -638C607 -540 559 -442 501 -377C515 -368 540 -347 550 -337C561 -350 572 -366 583 -383V65H647V14H953Z"/>
</svg>