<svg xmlns="http://www.w3.org/2000/svg" viewBox="0 -1000 1000 1000">
	<path fill="#000000" d="M937 -638C921 -679 878 -744 840 -792L787 -767C825 -717 865 -652 881 -609ZM531 -637H364V-744H531ZM596 -799H300V-581H596ZM253 -716C224 -749 164 -798 115 -828L75 -783C124 -749 182 -699 211 -664ZM219 -435C188 -468 125 -517 75 -549L36 -504C86 -469 150 -419 179 -384ZM105 64C147 -23 195 -140 231 -240L182 -279C142 -173 87 -51 49 23ZM520 -385H375V-461H520ZM375 -201H520V-121C470 -114 421 -108 375 -103ZM520 -254H375V-332H520ZM627 -461V-522H258V-461H310V-95C282 -92 255 -89 233 -87L243 -22C321 -32 421 -45 520 -60V76H586V-461ZM864 -425C848 -360 828 -296 801 -235C791 -298 781 -371 773 -450L957 -490L945 -551L768 -514C760 -613 756 -721 756 -834H689C690 -719 695 -606 704 -500L635 -486L647 -424L709 -437C720 -324 735 -222 753 -140C715 -72 669 -13 615 36C629 46 650 64 661 76C703 37 741 -10 775 -60C803 26 838 77 880 77C937 77 955 30 966 -110C950 -118 930 -132 916 -147C913 -41 904 10 890 10C868 10 844 -44 821 -135C865 -216 899 -306 924 -400Z"/>
</svg>