<svg xmlns="http://www.w3.org/2000/svg" viewBox="0 -1000 1000 1000">
	<path fill="#000000" d="M288 -722C254 -754 182 -798 127 -823L92 -769C147 -741 217 -694 252 -660ZM234 -460C199 -490 128 -531 74 -555L40 -500C94 -473 165 -429 199 -397ZM227 -309C178 -197 111 -68 66 7L120 58C170 -34 229 -156 274 -259ZM409 -606H565V-545L444 -534L451 -477L565 -488C566 -434 582 -411 646 -411H802C831 -411 863 -412 877 -416C875 -430 873 -448 872 -464C855 -460 819 -460 798 -460H656C632 -460 628 -467 628 -492V-504L801 -521L796 -567L628 -551V-606H861C853 -578 845 -550 837 -530L894 -517C910 -551 928 -607 940 -656L894 -666L882 -664H653V-719H892V-774H653V-837H581V-664H340V-387C340 -257 330 -85 236 38C253 46 281 65 293 78C393 -51 409 -247 409 -387ZM882 -290C842 -261 779 -221 724 -193C708 -225 684 -256 653 -283C671 -296 687 -308 702 -321H917V-373H436V-321H631C577 -283 496 -248 427 -228C433 -218 446 -199 451 -188C503 -204 560 -228 610 -256C619 -247 628 -238 637 -229C580 -183 485 -137 408 -115C419 -105 431 -87 437 -74C513 -101 601 -148 661 -195C668 -183 675 -170 679 -158C615 -95 487 -24 386 6C398 17 412 38 418 51C510 15 621 -49 693 -110C705 -54 695 -5 676 11C665 24 652 25 635 25C620 25 599 25 575 22C584 38 590 62 591 77C612 78 631 79 647 79C678 78 700 72 721 51C757 18 769 -67 741 -151C753 -156 765 -162 778 -169C806 -84 859 -4 928 35C938 19 957 -2 972 -13C903 -46 850 -116 823 -193C860 -212 896 -234 927 -255Z"/>
</svg>