<svg xmlns="http://www.w3.org/2000/svg" viewBox="0 -1000 1000 1000">
	<path fill="#000000" d="M951 -753H684C673 -780 656 -816 638 -843L571 -823C583 -801 594 -777 603 -753H334V-693H951ZM235 -702V-235H139V-702ZM295 -173V-763H79V-76H139V-173ZM557 -290H731V-237H557ZM557 -388H731V-338H557ZM433 -609H556V-533H433ZM729 -609H850V-531H729ZM887 -171C856 -149 804 -116 760 -95C733 -120 709 -151 691 -183H952V-237H797V-290H902V-338H797V-388H923V-441H797V-489H909V-652H673V-489H731V-441H557V-490H614V-652H377V-490H491V-441H353V-388H491V-338H383V-290H491V-237H326V-183H550C478 -137 375 -102 282 -79C295 -67 314 -40 320 -27C368 -41 417 -59 465 -80V-35C465 3 439 16 422 22C432 36 442 63 445 79C462 69 491 61 679 21C677 8 675 -15 676 -31L528 -3V-109C566 -130 602 -153 631 -177C686 -59 788 28 923 67C932 49 950 24 965 11C904 -3 849 -27 803 -60C846 -80 896 -107 936 -135Z"/>
</svg>