<svg xmlns="http://www.w3.org/2000/svg" viewBox="0 -1000 1000 1000">
	<path fill="#000000" d="M288 -722C253 -755 182 -798 127 -823L92 -769C147 -741 217 -695 251 -660ZM234 -461C198 -491 128 -531 74 -555L40 -501C94 -473 164 -429 198 -397ZM217 -309C171 -197 108 -68 65 7L121 54C168 -37 224 -159 266 -262ZM383 66C417 17 445 -57 464 -115L409 -137C393 -82 362 -8 328 35ZM522 -114C531 -58 540 14 542 63L603 53C600 5 590 -67 579 -123ZM486 -226V-311H639V-361H486V-423H425V-254C425 -218 413 -208 401 -202C410 -192 422 -167 425 -153C441 -163 467 -170 652 -210C651 -221 651 -243 653 -258ZM654 -115C677 -60 705 13 716 60L774 42C762 -4 734 -76 710 -131ZM678 -422V-241C678 -181 696 -167 766 -167H875C926 -167 944 -186 949 -251C932 -256 909 -263 895 -272C893 -225 888 -218 868 -218H773C746 -218 741 -221 741 -241V-307H928V-356H741V-422ZM793 -118C830 -59 874 20 895 70L951 43C930 -7 885 -84 846 -141ZM676 -617H566V-685H676ZM851 -563V-490H744V-563ZM566 -563H676V-490H566ZM499 -563V-490H386C387 -515 387 -541 387 -563ZM499 -685V-617H387V-685ZM669 -742C659 -771 641 -811 623 -841L557 -822C570 -798 583 -768 592 -742H321V-568C321 -396 312 -136 216 50C234 56 263 71 276 82C351 -68 376 -269 384 -436H914V-617H744V-685H951V-742Z"/>
</svg>