<svg xmlns="http://www.w3.org/2000/svg" viewBox="0 -1000 1000 1000">
	<path fill="#000000" d="M295 -710C258 -746 184 -794 127 -822L91 -769C149 -737 221 -686 257 -649ZM240 -453C203 -485 129 -529 73 -555L39 -500C96 -470 168 -423 204 -390ZM221 -308C173 -197 110 -68 65 7L119 56C168 -35 226 -157 270 -260ZM529 -323V-383H651V-323ZM529 -486H651V-427H529ZM834 -427H710V-486H834ZM834 -323H710V-383H834ZM930 -221H710V-276H894V-532H471V-276H651V-221H500V-247H440V-221H408V-168H440V72H500V-168H651V-87C604 -85 560 -83 523 -82L534 -30C611 -35 703 -41 796 -48C801 -32 806 -18 809 -6L847 -17C839 -53 817 -107 795 -149L758 -139C766 -124 773 -108 780 -93L710 -89V-168H868V12C868 22 865 25 854 25C845 26 811 26 773 24C781 39 789 57 792 72C845 72 880 73 901 64C924 55 930 42 930 13ZM536 -711V-657H440V-604H536V-550H592V-604H666V-657H592V-711ZM767 -711V-658H692V-604H767V-550H823V-604H927V-658H823V-711ZM953 -793H337V-461C337 -310 329 -107 245 38C261 45 290 66 302 78C391 -74 404 -301 404 -461V-731H953Z"/>
</svg>