<svg xmlns="http://www.w3.org/2000/svg" viewBox="0 -1000 1000 1000">
	<path fill="#000000" d="M546 -651C534 -693 513 -760 498 -812L446 -801C461 -749 481 -682 492 -638ZM110 51C137 -39 168 -162 189 -264L134 -294C111 -185 75 -57 49 22ZM37 -515C71 -471 114 -410 135 -373L190 -411C168 -446 124 -504 89 -547ZM67 -793C95 -743 131 -676 148 -635L207 -664C189 -703 152 -769 123 -818ZM299 -733H375C361 -664 339 -574 317 -499C370 -418 382 -348 382 -294C382 -263 378 -231 366 -220C360 -215 352 -212 342 -212C329 -212 317 -212 299 -213ZM405 -796L396 -794H241V73H299V-209C307 -194 312 -174 313 -159C330 -159 349 -159 364 -161C380 -162 394 -168 406 -177C427 -195 436 -238 436 -288C436 -350 423 -421 369 -505C395 -589 423 -694 444 -774ZM563 -364L554 -361H513C530 -419 548 -487 562 -549C574 -537 587 -521 593 -512C618 -537 641 -565 662 -597H743V-530H612V-481H945V-530H805V-597H925V-647H690C699 -664 707 -682 715 -700H943V-755H734C742 -780 749 -804 755 -829L695 -840C689 -811 681 -782 672 -755H574V-700H650C629 -655 602 -613 570 -579L571 -585H428V-520H500C481 -442 458 -355 440 -296H525C513 -224 494 -146 469 -89C443 -73 414 -36 384 10L433 73C452 18 481 -40 500 -40C519 -40 547 -14 583 11C635 46 692 61 770 61C822 61 909 59 951 55C952 36 961 3 968 -14C910 -8 824 -4 771 -4C697 -4 644 -16 596 -47C566 -66 547 -84 527 -93C557 -168 580 -266 593 -352ZM711 -319C748 -300 793 -270 817 -250L845 -287C822 -307 777 -331 737 -351ZM689 -377H861V-238C796 -227 735 -217 687 -211C688 -237 689 -261 689 -283ZM917 -425H633V-284C633 -223 631 -144 603 -83C615 -77 640 -61 651 -51C672 -95 682 -152 686 -205L704 -158C753 -169 805 -181 861 -194V-111C861 -102 858 -100 848 -99C838 -99 808 -98 773 -99C779 -86 787 -69 789 -55C840 -55 872 -56 891 -63C911 -72 917 -84 917 -112Z"/>
</svg>