<svg xmlns="http://www.w3.org/2000/svg" viewBox="0 -1000 1000 1000">
	<path fill="#000000" d="M579 -669V-729H682V-669ZM852 -729V-669H744V-729ZM955 -579H744V-624H911V-774H744V-836H682V-774H522V-624H682V-579H473V-523H955ZM841 -391H600V-437H841ZM841 -301H600V-349H841ZM841 -210H600V-259H841ZM910 -481H532V-167H910ZM949 -74C914 -99 856 -137 806 -167L765 -131C811 -101 867 -61 899 -36ZM622 -164C591 -134 542 -101 496 -79C511 -69 538 -49 550 -39C595 -64 650 -106 685 -142ZM417 -644C407 -686 385 -752 368 -803L310 -788C324 -736 346 -666 357 -623ZM258 -707C226 -739 165 -790 117 -825L68 -783C116 -745 176 -692 207 -657ZM229 -435C197 -465 132 -513 85 -548L38 -504C86 -467 151 -416 182 -385ZM186 -289C147 -180 90 -52 51 23L116 61C157 -28 208 -148 244 -251ZM451 -352L440 -348H371C397 -415 426 -500 449 -570H261V-506H366C341 -428 310 -343 284 -284H312V-283H403C386 -212 358 -134 326 -81C297 -61 264 -27 233 11L278 73C315 14 356 -42 381 -42C403 -42 433 -14 469 10C528 48 597 62 692 62C767 62 890 58 944 54C945 34 955 1 963 -17C885 -9 771 -3 692 -3C605 -3 539 -14 483 -48C445 -72 424 -92 401 -100C436 -168 464 -257 482 -337Z"/>
</svg>