<svg xmlns="http://www.w3.org/2000/svg" viewBox="0 -1000 1000 1000">
	<path fill="#000000" d="M532 -619C512 -580 483 -547 449 -518C428 -539 401 -562 378 -582L339 -546C360 -528 383 -505 403 -484C357 -456 306 -434 253 -421C265 -410 279 -386 285 -371C431 -415 560 -503 611 -659L575 -673L562 -670H489V-729H603V-783H489V-836H426V-670H397C401 -681 406 -692 410 -702L353 -715C330 -652 288 -593 238 -552C251 -543 272 -519 280 -509C312 -538 344 -576 369 -619ZM281 -727C245 -754 174 -797 124 -827L84 -773C136 -741 206 -694 241 -665ZM244 -469C206 -495 132 -535 79 -560L41 -506C95 -476 168 -433 205 -407ZM205 -296C162 -184 103 -55 60 22L125 63C171 -28 223 -152 262 -256ZM695 -71H900V-125H695V-185H879V-237H695V-296H899V-349H695V-414H628V-10H554V-413H486V-349H297V-296H486V-237H315V-185H486V-125H286V-71H486V-10H236V53H947V-10H695ZM846 -728C828 -682 803 -641 772 -605C747 -642 726 -683 711 -728ZM886 -789L874 -787H628V-728H656C674 -667 701 -611 733 -563C686 -518 630 -484 573 -464C586 -452 602 -427 609 -412C668 -436 723 -469 772 -514C815 -466 866 -426 926 -400C935 -416 953 -438 966 -450C907 -472 855 -509 813 -556C863 -613 903 -687 925 -775Z"/>
</svg>