<svg xmlns="http://www.w3.org/2000/svg" viewBox="0 -1000 1000 1000">
	<path fill="#000000" d="M948 -753H673C663 -780 645 -817 626 -844L565 -826C577 -804 590 -778 600 -753H316V-693H948ZM281 -723C247 -754 180 -797 128 -823L93 -769C144 -740 211 -694 244 -662ZM229 -465C194 -494 127 -533 75 -555L41 -501C93 -474 160 -432 193 -402ZM224 -308C176 -197 110 -68 66 7L120 58C169 -34 227 -155 271 -259ZM541 -290H698V-237H541ZM541 -388H698V-338H541ZM420 -609H538V-533H420ZM713 -609H834V-531H713ZM875 -174C842 -150 789 -118 745 -95C718 -121 695 -151 678 -183H949V-237H764V-290H898V-338H764V-388H918V-441H764V-489H893V-652H656V-489H698V-441H541V-490H596V-652H364V-490H476V-441H336V-388H476V-338H366V-290H476V-237H306V-183H535C463 -138 361 -103 268 -80C281 -68 300 -42 306 -29C352 -43 399 -60 445 -79V-51C445 -7 421 18 406 28C417 38 433 62 439 76C455 66 483 57 668 16C666 2 664 -24 665 -42L503 -11V-106C545 -127 584 -151 616 -177C674 -55 781 36 923 75C932 57 951 33 966 19C898 3 837 -23 787 -60C831 -81 882 -108 923 -137Z"/>
</svg>