<svg xmlns="http://www.w3.org/2000/svg" viewBox="0 -1000 1000 1000">
	<path fill="#000000" d="M882 -665C874 -708 849 -776 820 -828L764 -811C790 -759 815 -689 821 -645ZM590 -588C576 -620 549 -665 520 -706C542 -741 564 -783 583 -822L532 -834C518 -799 491 -748 466 -705C499 -657 528 -607 542 -569ZM477 -586C464 -618 438 -665 410 -705C430 -741 452 -783 470 -822L420 -834C407 -799 381 -748 356 -704C389 -656 416 -605 429 -568ZM117 64C155 -27 201 -150 233 -255L177 -291C141 -179 89 -49 53 30ZM231 -447C200 -480 134 -525 81 -552L38 -503C92 -473 157 -426 187 -392ZM60 -772C109 -741 166 -694 192 -661L239 -714C212 -746 153 -790 105 -819ZM367 -584C354 -617 329 -664 302 -705C321 -740 341 -783 358 -822L308 -834C295 -799 272 -747 248 -704C280 -655 305 -604 318 -566ZM395 -269V-172H315V-269ZM530 -172H447V-269H530ZM363 14C321 14 315 8 315 -18V-120H588V-321H255V-17C255 53 278 70 359 70H514C580 70 598 44 606 -53C589 -57 564 -66 552 -77C548 2 542 14 509 14ZM700 -179H795V-35H700ZM795 -581V-442H700V-581ZM795 -241H700V-380H795ZM507 -418H330V-501H507ZM961 -35H856V-179H939V-241H856V-380H939V-442H856V-581H947V-644H694C719 -704 738 -766 753 -821L690 -836C668 -735 625 -605 566 -516V-553H273V-366H566V-491C576 -479 586 -463 593 -453C609 -474 623 -497 637 -522V77H700V28H961Z"/>
</svg>