<svg xmlns="http://www.w3.org/2000/svg" viewBox="0 -1000 1000 1000">
	<path fill="#000000" d="M249 -715C217 -742 153 -789 106 -822L62 -773C109 -739 173 -691 204 -661ZM231 -457C197 -485 130 -529 82 -559L39 -510C88 -477 154 -430 187 -400ZM115 62C154 -31 200 -156 234 -262L177 -298C140 -185 89 -53 52 26ZM330 -198H414V-145H330ZM546 -145H466V-198H546ZM383 -357H499V-315H383ZM616 -8V-58H471V-102H603V-241H472V-274H560V-353H624V-407H560V-448H499V-403H383V-448H324V-407H251V-353H324V-274H409V-241H275V-102H409V-58H248V-8H409V76H471V-8ZM350 -464C407 -476 471 -489 538 -503L535 -546C457 -534 385 -523 329 -517ZM355 -585C410 -578 481 -563 518 -549L535 -593C498 -606 427 -620 374 -624ZM714 -161C715 -181 715 -200 715 -218V-241H857V-161ZM857 -371V-294H715V-371ZM923 -426H655V-219C655 -135 649 -29 604 50C618 56 645 73 656 83C688 30 703 -40 710 -108H857V2C857 12 854 15 843 16C832 16 797 16 758 15C766 32 773 56 775 73C832 74 870 73 893 63C916 53 923 36 923 2ZM870 -500C822 -518 732 -537 664 -545L648 -503C718 -494 807 -472 855 -454ZM813 -631C773 -619 700 -598 652 -590L677 -555C726 -561 795 -573 844 -591ZM630 -698V-745H891V-798H318V-745H559V-698H259V-557H327V-650H565V-463H624V-650H874V-558H944V-698Z"/>
</svg>