<svg xmlns="http://www.w3.org/2000/svg" viewBox="0 -1000 1000 1000">
	<path fill="#000000" d="M839 -727C818 -699 791 -674 760 -653C727 -672 700 -695 680 -720L685 -727ZM569 -591H485C497 -616 509 -647 520 -676L464 -692C457 -663 442 -622 430 -591H373C368 -619 353 -662 339 -695L286 -681C297 -653 308 -618 314 -591H220V-532H569V-560C578 -547 588 -531 592 -520C602 -523 612 -526 623 -530V-491H727V-441H581V-394H939V-441H783V-491H883V-535H639C682 -550 722 -567 760 -590C809 -562 867 -541 928 -528C936 -546 952 -569 964 -583C909 -591 857 -606 811 -626C857 -661 894 -704 919 -758L886 -780L876 -778H722C732 -793 742 -808 750 -824L693 -835C668 -787 624 -732 564 -689C578 -681 597 -663 607 -650C620 -660 634 -672 646 -684C663 -662 685 -642 709 -624C666 -603 618 -586 569 -574ZM560 -753H442C434 -779 418 -812 402 -836L348 -821C360 -801 371 -776 379 -753H241V-695H560ZM236 -714C209 -746 150 -790 102 -819L57 -772C106 -741 163 -694 189 -661ZM227 -451C196 -483 132 -525 81 -552L38 -503C91 -474 154 -428 183 -396ZM170 -291C136 -179 87 -48 53 30L118 63C154 -28 196 -153 228 -256ZM311 -321H480V-258H311ZM311 -431H480V-368H311ZM564 -73V-135H429V-208H539V-480H254V-208H366V-135H222V-73H366V74H429V-73ZM677 -48C652 -15 595 16 545 34C557 44 576 63 587 77C640 55 701 16 736 -27ZM659 -140H848V-92H659ZM659 -228H848V-181H659ZM659 -315H848V-269H659ZM909 -49V-358H601V-49H823L781 -15C825 11 881 49 910 74L954 35C924 10 870 -25 825 -49Z"/>
</svg>