<svg xmlns="http://www.w3.org/2000/svg" viewBox="0 -1000 1000 1000">
	<path fill="#000000" d="M712 -589V-483C712 -416 727 -392 795 -392H896C918 -392 942 -393 953 -397C951 -413 950 -440 949 -457C935 -453 909 -452 895 -452H798C780 -452 778 -459 778 -482V-594L859 -600C875 -578 890 -559 901 -543L959 -579C922 -631 848 -719 791 -781L734 -752C758 -724 786 -690 812 -658L532 -642C588 -692 644 -754 694 -819L624 -844C572 -765 493 -685 470 -666C447 -645 429 -630 411 -628C420 -610 429 -575 433 -561C449 -566 470 -570 558 -577C541 -494 501 -441 380 -410C395 -398 414 -372 421 -356C561 -398 609 -471 627 -583ZM325 -695C312 -628 284 -529 261 -470L307 -452C333 -509 363 -601 389 -675ZM161 -408C151 -469 121 -579 93 -667L42 -647C67 -562 96 -447 108 -381ZM374 -98C353 -124 272 -228 237 -267C246 -339 248 -413 248 -486V-826H182V-486C182 -304 169 -117 48 30C62 41 87 63 98 79C165 -2 204 -93 224 -190C261 -142 306 -81 325 -46ZM791 -264C759 -207 716 -159 664 -119C622 -151 587 -188 559 -225C570 -238 581 -250 590 -264ZM841 -327L827 -324H629C642 -349 655 -373 665 -400L598 -415C581 -366 554 -323 523 -284C514 -300 506 -317 499 -334L447 -301C456 -280 467 -258 479 -237C450 -209 419 -186 385 -166C400 -153 425 -129 435 -116C463 -135 490 -155 516 -180C541 -145 572 -112 607 -82C529 -36 436 -4 341 13C355 29 371 58 379 76C482 53 582 17 666 -37C736 10 822 50 926 74C935 54 954 25 968 11C872 -8 791 -40 724 -79C796 -137 852 -211 888 -305Z"/>
</svg>