<svg xmlns="http://www.w3.org/2000/svg" viewBox="0 -1000 1000 1000">
	<path fill="#000000" d="M803 -771C773 -722 718 -655 678 -614L738 -584C779 -624 830 -684 870 -740ZM312 -622C289 -664 239 -733 201 -785L146 -753C183 -699 232 -627 254 -584ZM486 -837C462 -629 402 -500 57 -444C70 -429 86 -401 92 -383C338 -427 452 -509 509 -629C593 -503 730 -424 913 -389C922 -409 942 -437 958 -452C756 -482 607 -568 537 -705C548 -746 556 -790 562 -837ZM845 -164C871 -203 905 -261 933 -315L866 -338C849 -292 815 -227 789 -186ZM488 -331C512 -275 537 -200 549 -156L607 -182C595 -224 567 -296 544 -351ZM419 -186C439 -220 463 -271 486 -317L426 -342C414 -303 390 -244 371 -208ZM189 -182C179 -220 154 -285 133 -335L77 -316C97 -265 121 -197 132 -156ZM257 -402C249 -191 224 -55 40 18C56 31 77 57 85 74C195 27 255 -41 288 -133C334 -90 384 -42 410 -10L462 -56C428 -94 361 -155 307 -200C320 -259 326 -327 330 -402ZM668 -400C659 -173 633 -45 421 21C435 34 455 60 462 78C605 30 673 -46 707 -157C748 -48 813 30 917 72C927 53 948 24 962 9C831 -35 764 -147 733 -298C736 -330 738 -364 740 -400Z"/>
</svg>