<svg xmlns="http://www.w3.org/2000/svg" viewBox="0 -1000 1000 1000">
	<path fill="#000000" d="M676 -541V-420C676 -410 672 -406 660 -406C648 -405 604 -405 557 -407C565 -390 575 -370 578 -352C642 -352 683 -352 711 -361C737 -369 745 -384 745 -418V-541H862C845 -503 826 -465 810 -437L868 -419C895 -462 926 -529 954 -590L906 -605L894 -602H750C742 -609 732 -616 721 -624C788 -660 858 -711 907 -762L861 -795L845 -791H432V-733H782C750 -706 711 -678 672 -657C638 -679 602 -702 568 -719L524 -685C566 -663 615 -631 656 -602H407V-541H597C539 -484 455 -430 383 -402C397 -390 417 -367 427 -351C509 -391 606 -466 667 -541ZM319 -672C306 -609 278 -514 255 -456L301 -438C327 -492 357 -581 383 -651ZM134 -381C130 -449 113 -569 96 -663L41 -654C56 -560 71 -437 75 -367ZM361 -102C342 -127 267 -233 237 -271C246 -341 248 -414 248 -486V-826H182V-486C182 -305 170 -118 49 29C63 40 88 63 98 78C166 -2 203 -94 223 -190C256 -143 293 -82 311 -50ZM542 -166C501 -92 420 -17 346 19C362 31 383 55 394 72C470 27 553 -60 598 -145ZM952 -193V-257H701V-343H630V-257H389V-193H630V73H701V-193ZM727 -138C794 -75 872 13 910 69L962 34C923 -21 844 -106 777 -168Z"/>
</svg>