<svg xmlns="http://www.w3.org/2000/svg" viewBox="0 -1000 1000 1000">
	<path fill="#000000" d="M864 -791C845 -761 810 -714 783 -684L829 -663C858 -689 895 -728 927 -767ZM928 -561C882 -593 793 -644 722 -679C740 -722 749 -774 753 -837H684C675 -689 641 -618 472 -578C486 -565 504 -538 510 -523C600 -546 657 -579 693 -626C762 -589 841 -541 884 -509ZM631 -717C613 -738 577 -775 549 -802L509 -769C536 -741 571 -702 590 -678ZM426 -789C410 -759 379 -715 354 -686L398 -666C424 -691 458 -728 487 -765ZM208 -710C189 -734 151 -772 121 -801L81 -769C110 -739 147 -698 167 -672ZM464 -574C427 -603 357 -646 303 -678C319 -721 327 -773 331 -837H265C256 -681 223 -610 48 -570C61 -558 79 -532 85 -517C181 -541 238 -575 275 -625C328 -593 386 -553 420 -527ZM845 -324H919V-500H83V-324H155V-436H845ZM167 -366V-303H366V-180H178V-117H366V78H439V-117H638V-180H439V-303H702C708 -108 734 55 881 73C936 83 958 38 965 -74C950 -81 933 -97 917 -113C914 -39 906 6 894 5C790 -5 773 -175 773 -366Z"/>
</svg>