<svg xmlns="http://www.w3.org/2000/svg" viewBox="0 -1000 1000 1000">
	<path fill="#000000" d="M450 -753H781V-669H450ZM580 -547H298V-492H580V-301H650V-492H941V-547H650V-618H854V-804H380V-618H580ZM937 -347C893 -384 806 -436 738 -468L698 -431C767 -396 853 -342 896 -305ZM717 -100C756 -139 805 -197 845 -250L781 -284C752 -238 702 -172 664 -131ZM466 -465C424 -422 355 -382 290 -353C305 -344 329 -320 340 -308C404 -341 480 -393 527 -445ZM142 -243C178 -195 224 -130 247 -92L304 -130C281 -166 233 -228 196 -275ZM172 -293H243V-695C270 -735 295 -776 313 -816L246 -836C207 -746 126 -641 40 -576C51 -563 71 -537 80 -521C112 -546 143 -575 172 -607ZM469 -315C436 -152 361 -34 44 15C56 30 73 59 79 77C325 34 440 -49 499 -167C578 -32 715 43 915 72C924 52 941 22 957 7C737 -18 592 -98 529 -244C536 -267 542 -290 547 -315Z"/>
</svg>