<svg xmlns="http://www.w3.org/2000/svg" viewBox="0 -1000 1000 1000">
	<path fill="#000000" d="M740 -623H809V-691H947V-752H809V-836H740V-752H674V-691H740ZM498 -623H566V-691H633V-752H566V-836H498V-752H367V-691H498ZM324 -668C309 -607 279 -517 256 -462L302 -441C327 -493 359 -576 385 -644ZM454 -498V-434H342V-379H454V-308H513V-379H578V-434H513V-498ZM149 -408C140 -470 116 -580 92 -666L39 -653C61 -567 83 -456 92 -391ZM242 -828H174V-489C174 -307 160 -120 36 26C51 38 75 61 86 78C153 0 193 -90 214 -184C250 -129 294 -55 314 -17L366 -71C345 -100 262 -226 230 -268C240 -341 242 -415 242 -489ZM686 -533H930V-594H387V-533H616V-276H379V-214H616V-130H385V-67H616V77H686V-67H935V-130H686V-214H938V-276H686ZM852 -435V-498H793V-435H730V-380H793V-308H852V-380H958V-435Z"/>
</svg>