<svg xmlns="http://www.w3.org/2000/svg" viewBox="0 -1000 1000 1000">
	<path fill="#000000" d="M141 -395C134 -459 113 -574 92 -663L40 -653C60 -565 79 -448 86 -380ZM230 -829H167V-481C167 -302 154 -120 35 25C48 36 71 57 81 73C146 -4 184 -91 204 -183C238 -136 278 -76 296 -44L344 -95C326 -121 249 -221 218 -259C228 -331 230 -407 230 -482ZM757 -149V-237H849V-149ZM604 -149V-237H699V-149ZM449 -149V-237H545V-149ZM914 -295H383V76H449V-93H545V67H604V-93H699V67H757V-93H849V8C849 16 847 19 837 20H773C780 36 791 58 794 76C837 76 868 76 888 65C909 55 914 39 914 8ZM503 -382H432V-466H503ZM387 -514V-334H549V-514ZM684 -382H614V-466H684ZM569 -514V-334H729V-514ZM797 -466H868V-382H797ZM753 -334H914V-514H753ZM499 -635C554 -670 601 -709 639 -749C684 -708 744 -667 805 -635ZM627 -836C578 -764 483 -684 347 -627L357 -659L296 -678C285 -609 260 -508 239 -447L284 -431C303 -479 325 -551 344 -617C357 -605 373 -586 381 -572C417 -588 450 -606 481 -624V-576H832V-620C861 -606 890 -594 917 -584C927 -601 947 -626 963 -639C865 -669 745 -730 679 -794C686 -803 692 -812 699 -821Z"/>
</svg>