<svg xmlns="http://www.w3.org/2000/svg" viewBox="0 -1000 1000 1000">
	<path fill="#000000" d="M876 -773C847 -701 802 -618 762 -561C780 -554 809 -538 825 -528C861 -587 908 -677 943 -753ZM611 -560C588 -617 541 -705 499 -772L436 -744C476 -676 523 -584 544 -526ZM176 -495H378V-835H312V-560H176V-815H108V-435C108 -290 99 -89 38 53C59 59 89 69 105 77C148 -30 166 -163 172 -289H311V75H381V-354H175C176 -382 176 -408 176 -435ZM948 -277H726V-426H924V-498H726V-837H655V-498H445V-426H655V-277H427V-205H655V76H726V-205H948Z"/>
</svg>