<svg xmlns="http://www.w3.org/2000/svg" viewBox="0 -1000 1000 1000">
	<path fill="#000000" d="M427 -626L588 -639C602 -595 621 -556 643 -522C579 -495 506 -474 433 -458C444 -445 461 -422 468 -408C541 -425 613 -447 679 -475C728 -423 788 -394 856 -394C920 -393 943 -418 955 -508C937 -514 914 -524 898 -536C894 -478 887 -461 860 -461C819 -460 781 -476 746 -506C799 -533 845 -565 881 -600L822 -631C793 -602 753 -576 706 -551C688 -578 672 -609 659 -645L948 -667L942 -726L855 -719L889 -758C857 -778 798 -811 753 -832L716 -795C760 -772 815 -741 846 -718L642 -703C632 -744 625 -788 623 -836H553C556 -787 562 -741 572 -698L420 -686ZM848 -335C817 -357 759 -390 715 -413L678 -376C723 -352 781 -317 811 -294ZM304 -560H173V-815H104V-435C104 -290 96 -87 40 56C61 62 91 73 108 82C147 -26 163 -163 170 -289H306V76H373V-353H172C173 -381 173 -409 173 -435V-494H374V-835H304ZM819 -209C786 -169 740 -133 685 -102C663 -133 644 -171 629 -214L956 -240L949 -299L611 -274C601 -314 594 -358 592 -405H522C525 -357 531 -311 541 -268L409 -258L416 -197L557 -209C574 -156 597 -110 622 -69C557 -38 484 -13 407 6C420 20 437 46 444 59C520 39 594 12 661 -19C715 43 784 79 859 79C923 79 949 51 960 -50C943 -56 919 -67 904 -79C900 -11 891 12 861 12C813 12 765 -11 724 -53C786 -88 840 -128 880 -175Z"/>
</svg>