<svg xmlns="http://www.w3.org/2000/svg" viewBox="0 -1000 1000 1000">
	<path fill="#000000" d="M814 -663H485V-738H814ZM814 -536H485V-610H814ZM814 -407H485V-482H814ZM884 -794H418V-351H884ZM393 -283L385 -352C346 -342 307 -332 269 -323V-561H358V-632H269V-836H204V-632H140C146 -671 151 -711 155 -752L95 -760C84 -637 66 -507 29 -423C45 -418 73 -407 86 -400C103 -445 118 -500 128 -561H204V-307C142 -292 85 -279 40 -270L61 -196C104 -206 152 -219 204 -233V77H269V-250ZM949 -175V-238H859L896 -273C871 -297 820 -328 780 -350L736 -310C772 -290 815 -261 841 -238H659C663 -267 667 -298 669 -331H596C594 -298 590 -266 585 -238H343V-175H571C538 -79 470 -20 310 15C325 30 343 58 349 76C536 31 613 -49 646 -175ZM666 -119C753 -63 859 21 909 78L954 26C902 -29 794 -109 708 -164Z"/>
</svg>