<svg xmlns="http://www.w3.org/2000/svg" viewBox="0 -1000 1000 1000">
	<path fill="#000000" d="M540 -336C555 -361 567 -386 577 -411L557 -414C596 -437 618 -463 630 -491H796V-641H738V-544H643C645 -555 645 -566 645 -577V-673H586V-578C586 -567 585 -555 583 -544H495V-641H465C480 -659 494 -677 507 -696H865C859 -528 850 -464 835 -447C828 -438 820 -437 807 -437C792 -436 758 -437 720 -440C729 -424 736 -399 737 -383C775 -380 814 -380 835 -382C861 -383 877 -390 892 -408C915 -434 924 -511 933 -724C934 -734 934 -754 934 -754H542C555 -778 566 -802 576 -825L509 -835C484 -770 436 -692 365 -632V-633H266V-837H198V-633H135C141 -679 146 -727 150 -774L88 -784C80 -663 66 -536 34 -452C48 -446 77 -430 88 -423C102 -463 114 -511 124 -565H198V-347C136 -329 80 -312 36 -300L58 -231C99 -244 147 -260 198 -276V74H266V-297L382 -334L372 -401L266 -368V-565H365V-625C380 -616 400 -599 411 -586C420 -594 429 -603 438 -612V-491H559C533 -459 482 -431 384 -411C396 -399 414 -376 421 -363C449 -370 473 -377 495 -385C464 -324 414 -258 342 -207C357 -198 379 -179 390 -165C405 -176 419 -188 432 -200V-60H568C545 -23 492 8 377 30C391 41 410 64 420 77C563 46 616 -1 635 -60H801V-223H742V-114H645C645 -120 645 -127 645 -133V-249H586V-134C586 -127 586 -121 585 -114H488V-223H456C473 -241 489 -259 503 -278H867C856 -85 845 -11 826 9C819 17 811 18 795 18C779 18 741 18 700 15C710 31 717 56 718 74C759 76 801 76 823 74C851 72 868 66 884 48C911 17 923 -68 935 -306C936 -316 937 -336 937 -336Z"/>
</svg>