<svg xmlns="http://www.w3.org/2000/svg" viewBox="0 -1000 1000 1000">
	<path fill="#000000" d="M304 -617H194V-675H304ZM304 -509H194V-567H304ZM304 -401H194V-460H304ZM721 -617H623V-674H721ZM721 -509H623V-567H721ZM721 -401H623V-460H721ZM130 -328H194V-350H496V-401H366V-460H465V-509H366V-567H465V-579C478 -566 495 -544 502 -534C521 -554 540 -577 558 -602V-327H623V-350H939V-401H784V-460H903V-509H784V-567H903V-617H784V-674H923V-727H811C800 -758 778 -801 758 -834L699 -817C714 -790 730 -755 741 -727H632C647 -757 661 -789 672 -820L612 -837C579 -745 526 -652 465 -590V-617H366V-675H481V-728H389C377 -758 355 -801 336 -832L276 -815C291 -789 307 -756 318 -728H208C222 -758 236 -790 248 -821L188 -837C155 -744 100 -652 37 -592C50 -581 70 -553 78 -540C96 -559 113 -580 130 -602ZM942 -122H544V-209H876V-265H544V-337H471V-265H292C303 -286 314 -306 323 -327L254 -345C225 -276 176 -210 121 -165C139 -156 168 -138 182 -127C206 -149 232 -178 254 -209H471V-122H70V-64H471V77H544V-64H942Z"/>
</svg>