<svg xmlns="http://www.w3.org/2000/svg" viewBox="0 -1000 1000 1000">
	<path fill="#000000" d="M864 -718C857 -519 849 -447 837 -429C830 -419 823 -418 811 -418C801 -418 775 -418 747 -421C755 -404 761 -377 763 -357C795 -355 826 -355 844 -358C866 -361 881 -367 895 -386C916 -414 924 -501 933 -751V-782H629V-718H717C707 -567 674 -457 585 -387C600 -378 628 -355 638 -344C731 -428 770 -547 782 -718ZM328 -400C363 -405 401 -410 442 -415V-321H509V-423L619 -438L618 -494L509 -482V-559H596V-616H509V-698H609V-755H509V-835H442V-755H339V-698H442V-616H355V-559H442V-475C397 -470 355 -466 320 -463ZM266 -815C250 -779 227 -742 201 -706C177 -743 149 -779 112 -814L63 -778C104 -737 135 -696 157 -653C118 -609 75 -570 35 -543C48 -527 64 -496 72 -478C110 -506 151 -545 188 -588C203 -544 214 -498 220 -452C180 -367 105 -274 38 -228C52 -214 68 -185 76 -166C128 -210 184 -276 227 -345C228 -330 228 -315 228 -301C228 -174 219 -47 196 -16C189 -6 179 -2 166 -1C147 2 114 2 74 -1C87 19 94 45 95 67C131 69 167 68 195 63C218 59 235 49 247 33C285 -20 294 -158 294 -299C294 -421 285 -537 234 -645C267 -690 298 -737 319 -782ZM937 -187V-252H652C656 -275 660 -300 663 -325H589C586 -300 582 -275 577 -252H326V-187H560C525 -93 454 -22 296 20C312 33 330 61 338 79C520 26 599 -65 636 -187ZM633 -120C722 -62 842 23 901 73L951 15C889 -33 767 -114 679 -170Z"/>
</svg>