<svg xmlns="http://www.w3.org/2000/svg" viewBox="0 -1000 1000 1000">
	<path fill="#000000" d="M486 -594H827V-508H486ZM486 -733H827V-649H486ZM528 -382C544 -404 558 -428 570 -451H899V-790H417V-451H489C446 -379 385 -309 323 -256C323 -272 323 -289 323 -305C323 -426 314 -543 259 -652C295 -697 327 -744 351 -787L294 -823C276 -788 251 -751 223 -715C196 -754 163 -791 122 -827L72 -787C117 -747 151 -705 177 -662C132 -614 84 -571 40 -542C56 -525 76 -494 85 -475C126 -506 170 -549 211 -595C229 -551 239 -508 245 -462C200 -372 115 -270 42 -219C57 -204 76 -175 85 -157C142 -204 206 -278 254 -354C255 -339 255 -322 255 -306C255 -176 246 -61 222 -27C214 -16 205 -11 190 -9C168 -6 129 -6 81 -10C93 12 101 39 102 63C145 66 185 65 219 59C242 54 261 43 274 25C302 -17 315 -98 320 -195C328 -186 335 -176 339 -170C360 -187 381 -207 402 -228V-103C402 -27 425 0 507 0H714C749 0 785 -1 801 -6C799 -21 797 -48 795 -67C775 -62 736 -61 711 -61H505C475 -61 468 -71 468 -101V-284H454C464 -295 473 -305 482 -317H880C869 -104 855 -23 837 -1C828 9 819 11 803 11C785 11 742 10 696 6C707 25 713 53 715 74C763 76 809 77 834 75C862 72 880 65 897 44C925 11 938 -85 952 -349C953 -359 953 -382 953 -382ZM643 -306C624 -234 569 -160 493 -119C505 -110 522 -89 530 -78C577 -103 617 -140 648 -183C693 -149 742 -107 768 -79L809 -118C779 -147 723 -192 675 -226C687 -250 697 -273 704 -296Z"/>
</svg>