<svg xmlns="http://www.w3.org/2000/svg" viewBox="0 -1000 1000 1000">
	<path fill="#000000" d="M285 -816C267 -780 241 -743 212 -707C187 -742 157 -777 119 -811L69 -772C110 -733 142 -695 167 -655C123 -608 75 -566 32 -538C48 -521 68 -491 77 -471C118 -501 161 -542 201 -587C218 -548 228 -507 235 -465C192 -372 115 -273 42 -223C59 -208 77 -179 87 -160C143 -206 200 -276 245 -350C246 -334 246 -318 246 -303C246 -176 237 -58 212 -26C205 -16 195 -11 181 -9C160 -7 123 -7 77 -10C90 10 98 37 99 60C139 62 178 61 210 56C234 51 252 41 266 24C304 -29 315 -160 315 -301C315 -421 306 -537 250 -645C285 -690 318 -737 341 -781ZM820 -596V-479H447V-596ZM885 -421V-654H447V-714C604 -725 776 -745 897 -775L843 -827C735 -799 543 -777 377 -765V-450C377 -308 371 -110 301 29C318 35 348 56 360 69C430 -69 445 -271 447 -421ZM787 -181V-290H862V-181ZM660 -181V-290H736V-181ZM523 -181V-290H609V-181ZM922 -346H460V74H523V-125H609V65H660V-125H736V65H787V-125H862V10C862 18 860 20 853 20C846 21 827 21 806 20C813 36 822 59 824 76C859 76 883 75 900 65C918 54 922 39 922 11Z"/>
</svg>