<svg xmlns="http://www.w3.org/2000/svg" viewBox="0 -1000 1000 1000">
	<path fill="#000000" d="M897 -763H689C680 -788 667 -818 655 -842L586 -829C595 -808 606 -785 614 -763H398V-700H897ZM923 -582H771C784 -609 800 -641 815 -673L746 -688C737 -658 719 -614 704 -582H538L575 -592C569 -618 552 -660 539 -691L478 -678C491 -648 504 -609 509 -582H368V-518H923ZM299 -816C280 -780 253 -742 223 -706C195 -742 162 -778 121 -813L70 -773C115 -734 150 -695 177 -654C132 -609 84 -569 39 -543C55 -526 74 -496 83 -478C124 -508 169 -549 210 -593C229 -552 240 -510 247 -468C201 -378 118 -279 45 -228C60 -213 80 -185 89 -166C147 -213 209 -286 258 -361C259 -343 259 -325 259 -306C259 -177 250 -64 224 -31C216 -20 206 -15 191 -14C168 -11 129 -10 81 -14C93 6 101 33 102 56C144 58 186 58 220 52C244 47 264 36 277 20C318 -35 329 -161 329 -304C329 -423 319 -539 259 -647C296 -691 330 -738 354 -782ZM485 -301H799V-234H485ZM485 -415H799V-350H485ZM785 5C773 5 764 4 758 0C750 -3 749 -13 749 -28V-183H870V-466H416V-183H520C507 -67 464 -11 301 22C315 35 334 63 341 80C523 37 574 -39 590 -183H679V-35C679 18 686 34 704 46C719 58 749 63 772 63H839C858 63 885 60 900 55C918 50 929 39 937 24C943 7 947 -34 949 -73C929 -79 904 -92 889 -105C888 -65 887 -34 885 -20C882 -9 875 -1 867 1C862 4 847 5 833 5Z"/>
</svg>