<svg xmlns="http://www.w3.org/2000/svg" viewBox="0 -1000 1000 1000">
	<path fill="#000000" d="M270 -815C253 -778 229 -741 201 -705C179 -741 150 -777 115 -813L63 -778C103 -737 134 -694 155 -650C117 -607 74 -569 34 -544C48 -527 65 -499 73 -480C110 -507 148 -543 184 -582C198 -541 207 -498 212 -454C175 -369 103 -275 39 -228C53 -214 71 -187 80 -169C128 -211 179 -273 220 -339V-304C220 -179 212 -48 189 -18C182 -9 174 -6 161 -4C143 -2 112 -2 75 -4C87 14 95 39 96 61C130 62 165 61 191 57C214 53 231 43 244 28C281 -21 290 -163 290 -303C290 -422 281 -535 234 -642C270 -689 302 -738 325 -785ZM804 -188V-122H487V-188ZM487 -6V-74H804V-6ZM416 78H487V47H804V74H877V-240H416ZM748 -351C765 -376 785 -411 806 -446L760 -464C750 -437 728 -394 712 -366ZM481 -450C502 -420 521 -381 527 -354L569 -371C562 -396 542 -435 521 -463ZM447 -481H611V-337H447ZM844 -337H671V-481H844ZM382 -286H911V-533H382ZM623 -855C555 -756 432 -668 314 -615C326 -599 346 -561 353 -546C400 -570 448 -600 494 -633V-588H788V-641H505C553 -677 599 -717 638 -761C716 -686 835 -605 935 -555C939 -572 952 -603 964 -619C866 -661 742 -737 675 -806C680 -813 686 -820 691 -828Z"/>
</svg>