<svg xmlns="http://www.w3.org/2000/svg" viewBox="0 -1000 1000 1000">
	<path fill="#000000" d="M425 -623H621V-407H684V-623H883V-532H946V-676H684V-735H915V-791H393V-735H621V-676H364V-532H425ZM921 -452C877 -469 793 -490 731 -502L713 -461C777 -447 860 -423 905 -406ZM847 -602C812 -587 751 -561 709 -549L735 -515C777 -526 836 -542 878 -563ZM435 -559C483 -549 543 -532 576 -517L597 -563C563 -577 502 -592 456 -600ZM411 -407C466 -422 526 -440 591 -457L587 -499C513 -483 444 -468 391 -458ZM288 -823C270 -788 244 -751 216 -714C190 -753 159 -790 118 -826L66 -787C110 -746 143 -704 168 -659C124 -612 76 -570 33 -542C50 -525 69 -495 78 -475C118 -505 161 -546 201 -591C217 -546 228 -499 234 -451C187 -363 109 -267 39 -218C55 -203 75 -174 84 -156C137 -200 194 -267 241 -337V-307C241 -179 233 -58 209 -26C201 -15 191 -10 177 -9C155 -7 118 -7 74 -10C87 12 94 39 95 63C136 65 176 65 208 59C232 55 251 44 264 27C304 -29 313 -162 313 -306C313 -427 304 -542 252 -650C288 -696 321 -743 344 -787ZM954 -312V-371H355V-312H580C572 -287 563 -260 556 -238H386V79H450V-182H547V69H603V-182H698V69H755V-182H859V16C859 24 856 27 848 27C840 28 815 28 787 27C794 42 803 62 806 78C849 78 878 77 896 69C916 59 921 45 921 17V-238H626C635 -260 646 -286 657 -312Z"/>
</svg>