<svg xmlns="http://www.w3.org/2000/svg" viewBox="0 -1000 1000 1000">
	<path fill="#000000" d="M488 -498C506 -467 525 -427 532 -401L575 -419C567 -444 547 -483 530 -512ZM750 -403C767 -427 784 -462 803 -496L756 -516C746 -489 728 -447 713 -419ZM852 -389H670V-529H852ZM449 -529H613V-389H449ZM606 -575H389V-343H606V-292H383V-240H606V-179H330V-120H957V-179H677V-240H920V-292H677V-343H914V-575H677V-627H949V-683H677V-748C762 -756 841 -766 905 -779L861 -830C745 -806 537 -788 365 -780C371 -766 378 -744 380 -728C452 -731 529 -736 606 -742V-683H334V-627H606ZM275 -816C257 -782 234 -746 208 -710C183 -745 155 -778 119 -810L68 -772C109 -735 140 -696 164 -656C122 -609 77 -567 36 -539C53 -522 72 -492 81 -472C119 -504 160 -545 198 -589C215 -550 224 -509 231 -467C188 -374 108 -275 35 -223C51 -209 70 -180 79 -160C136 -207 195 -277 241 -352C242 -336 242 -319 242 -303C242 -176 233 -57 209 -25C201 -15 192 -11 178 -9C157 -7 120 -6 77 -10C89 10 97 37 98 60C137 62 176 61 207 56C231 52 248 41 262 25C301 -28 310 -160 310 -302C310 -423 301 -539 245 -648C278 -693 308 -738 330 -781ZM351 75C398 34 432 -30 455 -84L398 -109C377 -59 341 3 296 38ZM508 -82C522 -33 534 31 536 69L600 58C596 21 583 -42 567 -90ZM640 -80C669 -34 698 29 710 68L769 48C756 9 724 -51 696 -96ZM780 -84C826 -34 880 36 906 79L966 49C940 5 883 -62 837 -110Z"/>
</svg>