<svg xmlns="http://www.w3.org/2000/svg" viewBox="0 -1000 1000 1000">
	<path fill="#000000" d="M794 -617H491V-659H794ZM491 -448V-492H794V-448ZM794 -533H491V-576H794ZM427 -700V-448H345V-307H407C391 -282 372 -259 347 -244L391 -207C440 -239 467 -294 482 -346L433 -365C428 -348 420 -330 411 -314V-397H576L558 -379C603 -362 655 -331 681 -306L715 -342C696 -361 662 -381 627 -397H875V-307C852 -331 826 -355 803 -374L758 -346C804 -306 857 -251 881 -214L928 -245C915 -263 897 -285 875 -307H943V-448H861V-700H656C663 -715 670 -731 676 -749H941V-805H366V-749H602C598 -732 592 -716 587 -700ZM296 -815C276 -776 250 -735 218 -697C196 -736 168 -776 132 -813L83 -777C122 -735 152 -691 173 -647C132 -605 88 -568 47 -544C60 -527 75 -499 82 -480C120 -508 161 -543 199 -583C212 -541 221 -499 227 -454C186 -368 111 -276 43 -228C57 -213 73 -187 80 -169C133 -212 190 -280 234 -349C234 -334 234 -319 234 -304C234 -180 226 -49 204 -20C198 -11 189 -7 176 -6C159 -4 129 -4 95 -6C106 13 113 38 113 61C147 62 180 61 205 57C227 53 243 44 255 28C291 -22 299 -163 299 -304C299 -423 291 -533 248 -638C287 -684 322 -735 347 -783ZM749 -138C720 -108 680 -81 627 -58C588 -74 552 -94 521 -116C530 -122 539 -130 548 -138ZM803 -189L790 -186H596C608 -200 619 -213 628 -227H721C771 -227 789 -243 794 -304C778 -307 755 -313 743 -321C740 -279 735 -273 712 -273H603C572 -273 567 -276 567 -295V-359H506V-295C506 -251 517 -235 556 -229C537 -203 510 -176 476 -152C462 -164 450 -177 439 -192L384 -172C397 -154 413 -136 430 -119C401 -103 371 -87 336 -73C350 -64 369 -45 378 -30C413 -46 444 -64 474 -82C498 -63 526 -46 555 -30C483 -7 397 11 296 23C309 37 325 60 332 77C449 61 549 36 630 4C715 38 812 62 916 75C923 58 939 33 953 19C864 10 778 -7 703 -30C769 -67 819 -113 849 -165Z"/>
</svg>