<svg xmlns="http://www.w3.org/2000/svg" viewBox="0 -1000 1000 1000">
	<path fill="#000000" d="M941 -753H684C675 -781 659 -816 641 -843L580 -826C592 -804 604 -778 612 -753H340V-693H941ZM269 -815C253 -778 229 -740 203 -704C179 -741 150 -778 112 -813L63 -778C106 -736 137 -694 160 -650C120 -603 76 -562 33 -535C47 -519 64 -492 72 -473C111 -503 152 -543 190 -587C205 -544 215 -500 221 -455C183 -368 108 -274 42 -227C56 -212 72 -185 80 -168C132 -211 187 -279 229 -348C230 -331 230 -315 230 -299C230 -172 222 -45 199 -14C191 -4 182 0 169 1C150 4 116 4 77 1C90 21 97 46 97 68C134 70 169 70 197 64C220 60 237 50 249 34C286 -18 296 -156 296 -298C296 -420 287 -536 236 -643C269 -689 300 -737 321 -783ZM558 -290H707V-237H558ZM558 -388H707V-337H558ZM442 -609H551V-533H442ZM723 -610H834V-532H723ZM880 -174C848 -150 796 -116 753 -94C727 -120 705 -150 690 -183H941V-237H772V-290H896V-337H772V-388H913V-441H772V-489H892V-653H667V-489H707V-441H558V-490H609V-652H387V-490H494V-441H361V-388H494V-337H390V-290H494V-237H330V-183H554C489 -137 393 -103 303 -80C315 -68 332 -42 339 -29C382 -42 425 -58 467 -75V-26C467 9 448 19 435 25C443 38 454 64 457 80C475 69 501 60 688 14C686 2 684 -22 685 -38L529 -5V-106C567 -126 602 -150 630 -176C683 -54 783 34 919 73C928 55 946 32 960 18C896 3 840 -23 794 -59C837 -78 888 -107 928 -136Z"/>
</svg>