<svg xmlns="http://www.w3.org/2000/svg" viewBox="0 -1000 1000 1000">
	<path fill="#000000" d="M228 -816C213 -779 193 -742 170 -707C153 -742 132 -777 106 -812L61 -778C92 -737 114 -695 131 -651C99 -609 64 -573 31 -548C44 -533 59 -503 66 -485C95 -510 124 -543 153 -579C164 -534 170 -487 174 -439C142 -364 87 -284 36 -241C49 -226 64 -200 71 -182C108 -219 147 -272 178 -328V-305C178 -186 173 -40 153 -15C149 -7 142 -4 132 -3C116 -2 93 -2 62 -4C72 15 79 39 79 61C107 62 136 61 156 57C176 54 190 46 201 31C230 -14 237 -169 237 -304C237 -424 231 -535 197 -640C228 -687 256 -738 275 -785ZM329 -360C333 -409 337 -466 341 -521H430V-800H284V-734H379V-586H293C289 -493 280 -373 270 -296H377C368 -106 360 -32 346 -15C339 -4 333 -3 323 -3C313 -3 289 -4 263 -6C271 14 276 45 277 67C303 69 329 69 345 66C364 64 378 56 391 36C411 6 421 -82 431 -327C432 -337 432 -360 432 -360ZM580 -717C546 -689 483 -648 433 -622C445 -612 461 -595 470 -582C519 -609 581 -647 624 -683ZM621 -262C616 -240 609 -217 601 -194C589 -208 577 -222 565 -234L537 -209C553 -192 569 -172 583 -151C569 -119 553 -87 535 -63C545 -56 558 -44 565 -36C581 -59 596 -84 609 -112C620 -95 628 -78 634 -65L664 -95C656 -113 644 -134 629 -156C640 -184 650 -214 658 -243ZM619 -495C614 -474 607 -452 599 -429C588 -443 576 -456 565 -467L538 -443C553 -426 568 -407 582 -387C569 -359 555 -331 539 -310C548 -303 562 -291 568 -282C583 -302 596 -325 608 -349C618 -333 626 -319 632 -306L660 -335C653 -352 641 -372 628 -391C638 -420 648 -448 656 -476ZM850 -339C843 -355 831 -375 817 -394C828 -420 838 -448 846 -475L809 -494C804 -474 797 -453 789 -432C777 -446 766 -460 754 -472L727 -447C741 -430 758 -411 773 -391C758 -361 742 -331 725 -309C736 -303 748 -291 755 -282C771 -303 785 -328 798 -353C808 -337 816 -323 822 -310ZM854 -101C847 -118 834 -137 819 -158C831 -187 841 -217 849 -246L812 -265C807 -243 799 -219 791 -195C779 -210 767 -223 755 -236L729 -210C744 -193 760 -174 775 -153C761 -121 745 -90 728 -66C738 -59 751 -48 758 -39C774 -62 788 -87 801 -115C811 -99 819 -83 825 -71ZM959 -621C923 -652 854 -695 798 -719L764 -679C817 -654 883 -612 920 -580H724V-738H949V-801H465V-738H665V-580H473V75H529V-520H670V70H719V-520H869V-4C869 8 866 11 855 11C847 11 815 12 781 10C788 27 797 52 799 68C849 69 879 67 899 57C919 47 925 30 925 -3V-578Z"/>
</svg>