<svg xmlns="http://www.w3.org/2000/svg" viewBox="0 -1000 1000 1000">
	<path fill="#000000" d="M749 -640H811V-704H942V-762H811V-835H749V-762H637V-704H749ZM296 -762V-704H413V-644H475V-704H600V-762H475V-834H413V-762ZM525 -578H591V-504H525ZM482 -460H636V-622H482ZM342 -578H406V-504H342ZM299 -460H450V-622H299ZM244 -835C226 -796 204 -756 176 -717C156 -754 128 -793 95 -829L46 -794C84 -751 114 -706 134 -660C103 -621 68 -584 31 -553C47 -541 68 -522 79 -508C108 -533 135 -561 161 -591C174 -546 182 -502 187 -455C154 -369 92 -275 34 -226C50 -211 69 -185 77 -167C118 -208 160 -267 194 -330V-307C194 -181 187 -44 165 -14C158 -6 149 -1 137 -1C120 1 93 1 61 -1C71 19 78 44 79 66C110 68 142 67 166 63C188 59 204 49 216 33C252 -18 259 -164 259 -306C259 -429 252 -541 209 -649C245 -697 278 -748 302 -800ZM354 -266H443V-199H354ZM354 -378H443V-312H354ZM583 -312H500V-378H583ZM583 -199H500V-266H583ZM641 -51V-104H504V-151H630V-426H307V-151H439V-104H290V-51H439V73H504V-51ZM955 -419H754V-522C820 -536 893 -557 942 -587L893 -638C849 -607 765 -583 693 -568V-301C693 -195 685 -59 617 40C629 48 655 69 665 81C741 -25 754 -185 754 -301V-358H828V69H889V-358H955Z"/>
</svg>