<svg xmlns="http://www.w3.org/2000/svg" viewBox="0 -1000 1000 1000">
	<path fill="#000000" d="M310 -179L215 -151V-413H305V-479H215V-701H317V-768H45V-701H148V-479H55V-413H148V-132C105 -120 66 -109 32 -101L48 -33C126 -55 224 -85 319 -115ZM557 -83V-465H654V-532H557V-828H489V-64L420 -44V-610H357V-28C332 -21 308 -14 286 -9L313 59C408 31 538 -8 659 -44L649 -110ZM788 -13C765 -13 761 -20 761 -58V-465H928V-531H761V-816H692V-59C692 28 712 53 778 53H868C933 53 948 0 955 -144C934 -148 909 -162 892 -174C889 -47 885 -13 863 -13Z"/>
</svg>