<svg xmlns="http://www.w3.org/2000/svg" viewBox="0 -1000 1000 1000">
	<path fill="#000000" d="M945 -735C922 -763 874 -803 834 -830L786 -796C825 -769 873 -725 896 -696ZM610 -331V-159H518V-331ZM659 -101V-390H467V-49H518V-101ZM670 -530H457V-470H670ZM867 -513C848 -419 821 -334 787 -258C775 -349 767 -465 763 -608H954V-674H761C760 -725 760 -779 760 -836H693C694 -779 695 -725 697 -674H362V-409C362 -333 359 -244 338 -157L330 -218L226 -187V-408H322V-475H226V-688H339V-755H46V-688H159V-475H60V-408H159V-168C112 -154 69 -141 35 -132L50 -64C131 -88 237 -121 337 -151C320 -85 294 -22 251 33C266 41 292 64 302 76C410 -60 427 -264 427 -409V-608H699C706 -425 718 -277 736 -166C688 -88 628 -23 553 27C567 39 590 65 598 78C659 34 711 -18 755 -79C783 25 821 78 873 78C934 77 958 51 969 -100C952 -106 928 -122 913 -136C908 -21 898 11 880 11C851 11 824 -41 802 -151C860 -251 901 -367 931 -502Z"/>
</svg>