<svg xmlns="http://www.w3.org/2000/svg" viewBox="0 -1000 1000 1000">
	<path fill="#000000" d="M374 -208L238 -171V-395H346V-461H238V-675H363V-741H48V-675H172V-461H61V-395H172V-153C121 -139 74 -127 36 -118L52 -47C144 -73 266 -107 381 -140ZM754 -176H908V-236H548V-176H681V-11H460V50H952V-11H754ZM690 -391V-482H916V-543H690V-630H931V-692H787C812 -726 840 -771 866 -814L795 -836C779 -797 748 -739 724 -703L753 -692H555L587 -705C577 -739 548 -792 520 -830L462 -809C487 -773 511 -727 523 -692H392V-630H619V-543H412V-482H619V-391H360V-329H473C443 -176 385 -50 288 30C306 41 336 65 349 78C449 -15 515 -154 549 -329H960V-391Z"/>
</svg>