<svg xmlns="http://www.w3.org/2000/svg" viewBox="0 -1000 1000 1000">
	<path fill="#000000" d="M363 -186L241 -157V-401H335V-471H241V-700H352V-770H50V-700H171V-471H63V-401H171V-138C120 -127 74 -116 37 -108L51 -34C141 -57 259 -87 370 -118ZM800 -465V-407H490V-465ZM489 -297C490 -314 490 -331 490 -347V-357H800V-297ZM868 -241V-521H418V-348C418 -235 406 -78 314 34C331 42 362 63 375 77C447 -13 475 -133 485 -241ZM530 -635V-580H774V-635ZM826 -130V-14H544V-130ZM480 76H544V43H826V73H893V-187H480ZM639 -842C571 -741 448 -655 326 -604C339 -590 358 -554 366 -540C466 -589 570 -660 647 -745C720 -673 833 -598 930 -553C936 -572 950 -603 962 -619C866 -655 751 -724 684 -791C691 -799 697 -808 703 -817Z"/>
</svg>