<svg xmlns="http://www.w3.org/2000/svg" viewBox="0 -1000 1000 1000">
	<path fill="#000000" d="M508 -694C494 -732 462 -788 431 -828L374 -805C403 -764 435 -706 447 -669ZM297 -185L206 -155V-413H293V-479H206V-701H306V-768H44V-701H143V-479H54V-413H143V-134C102 -121 64 -110 32 -101L48 -32C123 -58 218 -90 308 -121ZM420 -477C421 -518 422 -560 423 -602H584V-666H286V-602H361C358 -347 348 -102 255 38C271 47 293 64 305 79C382 -39 407 -215 417 -414H494C488 -131 482 -33 469 -12C463 0 456 2 445 1C434 1 412 1 386 -1C395 18 401 47 403 69C430 70 456 69 474 67C495 65 509 57 523 36C545 5 550 -110 556 -446C557 -454 557 -477 557 -477ZM798 -228H945V-288H798V-464H882C875 -424 868 -384 862 -354L914 -341C927 -386 940 -456 953 -516L911 -527L900 -524H634C650 -557 664 -595 677 -636H957V-699H694C704 -740 712 -782 719 -824L651 -837C636 -724 607 -611 564 -536C576 -527 596 -512 608 -500V-464H738V-51C708 -81 684 -128 667 -202C673 -257 676 -313 678 -369H618C614 -218 601 -57 539 31C555 41 575 63 585 78C615 33 636 -25 649 -90C700 32 773 60 864 60H943C946 42 954 12 964 -4C942 -3 883 -3 868 -3C844 -3 821 -6 798 -13Z"/>
</svg>