<svg xmlns="http://www.w3.org/2000/svg" viewBox="0 -1000 1000 1000">
	<path fill="#000000" d="M847 -504C847 -495 845 -493 836 -493H776C783 -477 789 -457 790 -442C834 -442 865 -442 884 -450C904 -460 909 -473 909 -503V-794H648V-739H847ZM806 -636C783 -658 739 -691 706 -715L662 -686C696 -661 739 -625 761 -603ZM827 -616C759 -587 693 -560 646 -543L676 -494C726 -517 783 -544 838 -570ZM549 -501C549 -492 546 -490 537 -489H476C482 -475 487 -457 489 -442C534 -442 566 -442 584 -450C604 -459 610 -471 610 -500V-794H360V-739H549ZM506 -624C483 -646 439 -680 406 -703L363 -674C396 -650 439 -614 461 -592ZM527 -605C459 -575 392 -547 345 -530L376 -481C426 -505 482 -532 539 -560ZM338 -189C301 -177 264 -167 229 -156V-413H334V-479H229V-701H331V-768H49V-701H162V-479H58V-413H162V-135C115 -121 73 -109 38 -100L52 -32C136 -57 243 -91 347 -123ZM842 -177C754 -69 566 -8 346 18C358 34 372 58 379 75C611 42 805 -26 904 -148ZM753 -251C677 -185 527 -131 390 -104C403 -92 418 -72 426 -58C569 -90 721 -147 809 -224ZM673 -339C611 -287 495 -239 398 -213C411 -201 427 -185 436 -172C538 -200 655 -252 727 -313ZM648 -491C576 -422 444 -361 328 -328C343 -315 358 -293 368 -279C459 -308 558 -355 636 -409C738 -342 835 -302 921 -274C929 -292 948 -316 964 -329C877 -353 776 -387 679 -443C688 -450 695 -457 702 -464Z"/>
</svg>