<svg xmlns="http://www.w3.org/2000/svg" viewBox="0 -1000 1000 1000">
	<path fill="#000000" d="M960 -502C939 -544 895 -610 856 -665C869 -714 879 -767 886 -824L824 -831C809 -692 774 -576 702 -500C716 -490 740 -469 750 -457C784 -495 811 -542 832 -596C864 -546 898 -492 917 -456ZM749 -588C733 -611 701 -642 671 -670C683 -719 692 -770 699 -823L636 -831C620 -690 587 -562 523 -480C538 -471 564 -451 575 -440C608 -486 633 -541 654 -605C677 -579 700 -552 714 -533ZM472 -833C438 -750 383 -664 325 -606C340 -595 364 -571 374 -559C434 -623 496 -721 536 -815ZM226 -399H326V-465H226V-692H345V-759H45V-692H158V-465H60V-399H158V-145C113 -133 71 -122 36 -114L50 -43C138 -67 251 -100 359 -130L351 -198C309 -186 267 -174 226 -163ZM488 -634C450 -522 390 -409 321 -335C334 -322 354 -291 362 -277C382 -300 400 -324 419 -351V77H482V-459C508 -510 531 -563 550 -617ZM858 -1C832 -1 807 -3 783 -10V-220H927V-285H783V-456H719V-42C682 -73 652 -125 632 -212C640 -269 644 -329 646 -388H582C577 -233 559 -59 483 34C500 43 520 63 530 78C569 30 596 -35 614 -106C666 34 751 64 855 64H947C950 45 958 15 967 -1Z"/>
</svg>