<svg xmlns="http://www.w3.org/2000/svg" viewBox="0 -1000 1000 1000">
	<path fill="#000000" d="M863 -814C847 -773 816 -714 792 -677L841 -656C867 -689 897 -741 924 -789ZM497 -678C487 -714 457 -769 428 -810L378 -788C405 -745 433 -688 443 -653ZM326 -178L231 -155V-401H316V-471H231V-700H329V-770H51V-700H163V-471H54V-401H163V-137C114 -126 70 -116 34 -108L47 -34C129 -55 234 -82 333 -109ZM639 -70C731 -27 849 39 908 84L952 35C892 -9 774 -72 682 -112ZM946 -641H757V-836H693V-641H601V-836H538V-641H355V-579H946ZM668 -197C672 -219 673 -241 673 -262V-272H896V-330H673V-400H930V-459H792C808 -489 827 -527 844 -560L776 -579C765 -544 745 -495 726 -459H561L573 -463C566 -492 546 -539 528 -575L469 -559C483 -528 499 -489 508 -459H373V-400H604V-330H403V-272H604V-262C604 -242 603 -219 598 -197H349V-136H577C543 -76 473 -18 324 23C338 36 358 60 366 76C537 20 616 -58 649 -136H956V-197Z"/>
</svg>