<svg xmlns="http://www.w3.org/2000/svg" viewBox="0 -1000 1000 1000">
	<path fill="#000000" d="M672 -299C672 -290 670 -287 660 -287C651 -286 623 -286 587 -287C594 -273 601 -253 603 -238C649 -238 680 -238 699 -247C719 -257 724 -271 724 -299V-571H625V-676H724V-735H625V-831H566V-517H672ZM583 -494C578 -429 570 -363 547 -315C558 -310 578 -298 587 -292C610 -341 623 -414 629 -486ZM324 -186C292 -177 259 -167 228 -157V-413H327V-479H228V-701H341V-768H45V-701H161V-479H55V-413H161V-137C113 -123 69 -111 33 -101L47 -32C129 -57 233 -89 333 -122ZM535 -121C480 -74 398 -23 330 12C343 25 365 57 373 70C443 28 532 -37 595 -93ZM689 -77C761 -34 855 30 900 71L943 19C895 -22 800 -82 730 -124ZM900 -215C908 -361 912 -595 912 -767H760V-708H850C850 -668 850 -625 850 -581H766V-522H849C848 -480 847 -438 846 -398H766V-339H844C842 -294 841 -252 839 -215H448L445 -343H525V-402H444L441 -525H525V-584H439L436 -701C471 -717 512 -736 544 -759L503 -810C470 -788 414 -753 377 -735L389 -215H339V-151H953V-215Z"/>
</svg>