<svg xmlns="http://www.w3.org/2000/svg" viewBox="0 -1000 1000 1000">
	<path fill="#000000" d="M627 -588L641 -592C635 -619 618 -662 603 -694H798C790 -662 777 -619 764 -588ZM756 -216H639V-291H756ZM547 -680C559 -652 571 -615 579 -588H476V-78H532V-528H673V-460H565V-409H673V-339H593V-130H639V-168H803V-339H721V-409H828V-460H721V-528H863V-145C863 -135 860 -131 850 -131C840 -130 807 -130 770 -131C777 -115 784 -91 788 -74C837 -74 872 -75 893 -85C914 -95 921 -111 921 -146V-588H823C835 -616 848 -649 860 -682L822 -694H948V-755H735C722 -782 702 -814 684 -838L626 -822C639 -802 654 -778 664 -755H455V-694H598ZM417 -668C405 -710 382 -775 364 -827L307 -810C322 -758 345 -690 357 -647ZM289 -192L200 -161V-391H279V-457H200V-667H289V-733H44V-667H138V-457H54V-391H138V-141C99 -127 63 -116 32 -107L48 -38C121 -65 213 -97 300 -129ZM430 -375L419 -372H378C399 -441 423 -526 443 -598H280V-530H364C344 -451 319 -366 298 -307H387C373 -231 351 -147 322 -89C298 -68 272 -33 246 10L297 76C317 17 346 -46 363 -46C385 -46 416 -15 453 10C514 50 584 64 684 64C761 64 890 60 945 56C946 35 955 1 963 -18C885 -9 768 -3 686 -3C594 -3 525 -13 468 -50C432 -72 410 -94 389 -103C420 -178 445 -275 459 -362Z"/>
</svg>