<svg xmlns="http://www.w3.org/2000/svg" viewBox="0 -1000 1000 1000">
	<path fill="#000000" d="M857 -705H719V-757H857ZM857 -605H719V-659H857ZM857 -504H719V-559H857ZM916 -805H662V-457H916ZM814 -426C845 -390 884 -343 903 -313L947 -346C927 -375 887 -420 855 -453ZM718 -450C698 -414 666 -367 633 -342L676 -302C711 -335 742 -386 765 -425ZM551 -705H421V-757H551ZM551 -605H421V-659H551ZM551 -504H421V-559H551ZM611 -805H364V-457H611ZM511 -423C534 -400 563 -368 579 -348L622 -379C606 -397 577 -427 552 -448ZM225 -151V-413H311V-479H225V-701H327V-768H56V-701H159V-479H65V-413H159V-132C116 -120 76 -108 43 -101L59 -32C136 -55 234 -86 328 -115L318 -180ZM419 -451C399 -413 367 -363 335 -335L377 -295C412 -330 444 -385 465 -427ZM757 -175C734 -132 701 -98 660 -69C606 -86 552 -100 502 -111C514 -131 526 -152 539 -175ZM944 -175V-235H853C856 -246 859 -257 862 -269L797 -282C793 -265 788 -250 784 -235H569C586 -269 601 -304 614 -337L548 -347C536 -312 518 -273 498 -235H338V-175H467C448 -141 429 -108 411 -82C468 -69 530 -52 592 -33C526 -5 443 12 338 23C349 38 361 61 367 80C497 63 598 36 675 -7C759 21 836 49 886 75L945 33C889 7 814 -21 734 -47C776 -81 808 -124 832 -175Z"/>
</svg>