<svg xmlns="http://www.w3.org/2000/svg" viewBox="0 -1000 1000 1000">
	<path fill="#000000" d="M347 -198L230 -160V-413H324V-482H230V-699H338V-769H49V-699H166V-482H63V-413H166V-140C117 -125 73 -111 37 -101L51 -30C137 -57 250 -95 356 -130ZM552 -71C508 -34 417 9 339 32C354 44 376 64 387 78C465 53 557 8 614 -37ZM503 -124V-177H813V-124ZM503 -273H813V-222H503ZM503 -368H813V-318H503ZM882 -71V-422H669C735 -457 758 -514 767 -591H808V-511C808 -472 811 -459 822 -449C832 -440 849 -436 865 -436H903C912 -436 927 -438 935 -442C944 -445 951 -452 956 -461C960 -471 963 -497 964 -520C952 -524 938 -531 929 -539C928 -518 927 -502 924 -494C922 -487 919 -484 916 -483C913 -481 907 -480 899 -480H878C873 -480 868 -481 865 -484C862 -487 862 -493 862 -507V-591H947V-643H826V-704H926V-754H826V-832H769V-754H723C728 -771 732 -786 735 -803L684 -814C676 -765 663 -717 640 -680C652 -673 674 -660 684 -654C693 -668 701 -686 707 -704H769V-643H653V-591H713C705 -531 685 -489 631 -463C644 -453 659 -435 666 -422H524C535 -433 555 -445 645 -490C642 -500 636 -518 634 -531L579 -507V-592H631V-643H539V-704H619V-754H539V-834H483V-754H439C444 -772 449 -789 453 -807L402 -817C392 -769 377 -721 352 -684C364 -678 386 -663 396 -657C405 -670 414 -687 420 -704H483V-643H364V-592H426C419 -521 398 -472 335 -443C347 -435 364 -414 371 -401C446 -440 471 -503 479 -592H527V-535C527 -494 509 -474 496 -466C506 -455 518 -435 524 -422H436V-71H748L702 -36C774 1 852 45 897 77L960 38C911 5 828 -37 755 -71Z"/>
</svg>