<svg xmlns="http://www.w3.org/2000/svg" viewBox="0 -1000 1000 1000">
	<path fill="#000000" d="M718 -631V-585C718 -555 717 -521 713 -486H525V-417H702C684 -338 645 -259 562 -204C576 -193 598 -170 608 -155C689 -212 733 -286 757 -363C813 -292 867 -207 892 -152L954 -182C924 -246 858 -342 794 -417H953V-486H781C784 -520 785 -554 785 -585V-631H930V-697H785V-833H718V-697H631C638 -728 643 -761 647 -793L584 -804C574 -710 555 -616 518 -554C533 -546 561 -531 572 -521C589 -552 604 -589 616 -631ZM491 -830C398 -806 240 -784 112 -772V-453C112 -285 104 -109 38 37C54 46 80 65 91 79C166 -80 175 -268 175 -453V-722C295 -732 431 -750 524 -773ZM348 -227C365 -186 382 -138 398 -93L282 -63C320 -166 323 -287 323 -381V-695H261V-384C261 -266 259 -121 185 -22C197 -11 222 15 230 29C245 18 271 8 417 -34C426 -1 434 28 439 51L494 31C478 -37 437 -153 400 -242ZM391 -721C396 -300 405 -14 923 76C930 56 946 30 959 14C462 -65 455 -315 452 -722Z"/>
</svg>