<svg xmlns="http://www.w3.org/2000/svg" viewBox="0 -1000 1000 1000">
	<path fill="#000000" d="M519 -755H336C326 -780 309 -811 294 -834L228 -816C239 -797 249 -776 258 -755H52V-699H519ZM227 -305H345V-249H227ZM227 -403H345V-353H227ZM130 -612H213V-543H130ZM362 -612H447V-543H362ZM221 -13V-131C246 -153 270 -176 288 -200H522V-249H404V-305H498V-353H404V-403H510V-452H404V-499H499V-656H311V-499H345V-452H227V-499H265V-656H79V-499H167V-452H61V-403H167V-353H82V-305H167V-249H46V-200H215C169 -154 100 -115 35 -87C47 -76 67 -51 76 -39C103 -52 131 -68 158 -86V-36C158 3 139 15 126 21C134 31 145 54 149 67C164 58 189 50 345 11C344 -1 344 -25 346 -40ZM610 -704C724 -719 850 -742 940 -773L888 -829C809 -800 671 -773 552 -756V-541C552 -393 548 -178 500 -7C477 -32 443 -62 406 -91C431 -110 458 -132 482 -155L437 -187C421 -169 391 -142 367 -122C347 -136 329 -149 310 -161L269 -130C339 -82 423 -12 462 35L496 7C493 14 491 23 488 31C501 37 527 60 537 71C600 -112 610 -376 610 -541ZM746 -204C760 -166 773 -121 784 -78L685 -49C736 -197 738 -365 738 -490V-663H686V-492C686 -345 684 -152 608 -11C617 -1 638 26 643 40C656 29 678 17 798 -21C805 11 811 41 814 66L859 53C849 -20 820 -131 788 -216ZM807 -700C820 -394 844 -93 913 72C925 56 948 37 964 26C897 -121 870 -416 858 -705Z"/>
</svg>