<svg xmlns="http://www.w3.org/2000/svg" viewBox="0 -1000 1000 1000">
	<path fill="#000000" d="M159 -641H848V-509H921V-705H747C773 -730 806 -765 834 -800L759 -828C741 -797 708 -753 682 -724L729 -705H535V-837H461V-705H274L320 -726C304 -753 272 -794 245 -825L179 -798C203 -771 228 -732 245 -705H89V-509H159ZM305 -531H694V-454H305ZM765 -404V-582H237V-404ZM773 0C748 0 744 -4 744 -27V-241H338L358 -303H925V-358H89V-303H287C256 -202 215 -79 181 5L97 11L108 75C235 64 417 48 591 33V-22C476 -14 358 -6 256 1C270 -35 284 -77 299 -122C372 -101 509 -59 556 -38L575 -94C536 -106 379 -145 312 -160L321 -186H672V-26C672 41 693 59 763 59H862C924 59 941 28 947 -94C929 -99 901 -109 886 -120C884 -16 879 0 855 0Z"/>
</svg>