<svg xmlns="http://www.w3.org/2000/svg" viewBox="0 -1000 1000 1000">
	<path fill="#000000" d="M868 -759C845 -711 801 -641 768 -598L822 -576C855 -617 897 -679 931 -735ZM925 -421C891 -453 756 -575 706 -616C716 -654 718 -693 718 -729V-832H649V-731C649 -630 628 -504 414 -419C428 -407 449 -381 457 -366C588 -419 654 -489 687 -560C747 -507 846 -412 885 -370ZM595 -602C579 -641 545 -710 517 -761L461 -737C488 -685 522 -614 537 -572ZM235 -376H303V-554C340 -521 387 -478 407 -456L443 -508C423 -525 340 -588 305 -612H443V-669H303V-751C354 -758 401 -768 440 -779L398 -829C319 -805 177 -787 60 -778C66 -763 74 -742 77 -727C127 -730 182 -735 235 -741V-669H56V-612H206C161 -547 94 -480 34 -445C49 -434 68 -413 78 -398C130 -433 189 -494 235 -558ZM772 9C747 9 738 1 738 -24L747 -234H332L345 -293H921V-353H80V-293H269C251 -198 226 -85 204 -6C151 -4 103 -2 61 -1L67 62C210 57 421 47 622 35L624 -22C508 -17 388 -12 280 -8C288 -38 297 -73 305 -110C394 -94 501 -67 558 -48L576 -94C514 -112 403 -137 315 -151L321 -177H670L664 -16C663 50 691 68 761 68H846C933 68 945 22 953 -71C934 -76 909 -87 891 -103C888 -24 881 9 847 9Z"/>
</svg>