<svg xmlns="http://www.w3.org/2000/svg" viewBox="0 -1000 1000 1000">
	<path fill="#000000" d="M903 -493C865 -536 790 -603 723 -655C777 -703 839 -763 884 -811L812 -835C771 -788 697 -713 630 -653C716 -587 799 -509 841 -456ZM629 -492C592 -536 519 -604 452 -655C505 -704 569 -763 613 -811L541 -835C500 -788 427 -713 359 -654C442 -588 524 -510 564 -458ZM365 -488C328 -531 256 -600 189 -654C243 -702 307 -762 351 -811L278 -835C238 -787 165 -713 97 -652C180 -585 260 -506 299 -453ZM462 -377V-245H205V-377ZM802 -245H535V-377H802ZM535 -38V-179H802V-38ZM205 -179H462V-38H205ZM132 79H205V30H802V76H876V-444H132Z"/>
</svg>