<svg xmlns="http://www.w3.org/2000/svg" viewBox="0 -1000 1000 1000">
	<path fill="#000000" d="M182 -466C173 -514 140 -592 107 -650L51 -629C82 -569 113 -491 122 -441ZM947 -678V-741H628C617 -771 597 -810 579 -839L512 -823C526 -799 540 -768 550 -741H199V-430C199 -403 199 -376 197 -348C139 -316 84 -287 44 -269L72 -202C110 -224 151 -248 191 -273C177 -168 144 -60 63 26C78 34 105 61 116 76C248 -62 269 -275 269 -430V-678ZM422 -332V-515C483 -519 547 -525 610 -532C612 -460 617 -394 625 -332ZM922 -266V-332H696C688 -395 683 -464 681 -540C753 -549 821 -561 874 -576L836 -635C723 -603 518 -581 353 -570V-68C353 -27 330 -4 315 6C326 19 342 47 348 63C367 50 396 38 603 -23C600 -37 596 -66 595 -84L422 -38V-266H635C669 -67 740 64 854 64C919 65 945 31 955 -92C936 -98 912 -112 896 -125C893 -38 883 -5 859 -5C789 -4 735 -104 705 -266Z"/>
</svg>