<svg xmlns="http://www.w3.org/2000/svg" viewBox="0 -1000 1000 1000">
	<path fill="#000000" d="M172 -479C165 -529 137 -608 105 -669L51 -648C82 -585 108 -503 115 -452ZM496 28C532 2 567 -25 602 -53L587 -92C540 -62 499 -34 468 -17ZM473 -196C507 -174 548 -141 570 -120L600 -152C579 -173 536 -203 503 -225ZM828 -20C803 -39 756 -71 720 -90L692 -63C729 -40 775 -8 799 14ZM790 -226C766 -204 721 -170 692 -152L717 -120C748 -136 790 -161 822 -188ZM821 -586V-518H379V-586ZM379 -467H893V-637H314V-407C314 -278 304 -100 218 28C234 36 261 56 273 67C354 -54 375 -226 378 -360H617V-304H399V76H460V-251H617V69H676V-251H838V16C838 23 836 26 827 26C819 27 795 27 767 26C775 40 783 60 786 76C829 76 858 76 877 67C897 57 902 45 902 15V-304H676V-360H946V-412H379ZM633 -748C620 -777 600 -815 582 -844L509 -827C524 -804 538 -774 550 -748H176V-427C176 -404 176 -381 175 -356C121 -327 71 -299 34 -282L59 -216C96 -238 133 -260 170 -284C159 -176 131 -62 56 26C70 34 98 59 107 73C225 -64 244 -275 244 -427V-688H949V-748Z"/>
</svg>