<svg xmlns="http://www.w3.org/2000/svg" viewBox="0 -1000 1000 1000">
	<path fill="#000000" d="M158 -468C147 -514 119 -592 96 -653L43 -631C65 -570 91 -489 102 -441ZM949 -681V-745H627C618 -775 603 -813 590 -843L517 -827C528 -802 538 -772 546 -745H171V-429C171 -402 171 -373 169 -344C117 -314 68 -287 31 -269L56 -205C91 -226 127 -248 164 -271C152 -165 122 -55 48 32C62 40 90 66 99 81C221 -60 239 -274 239 -429V-681ZM475 -627L465 -624H288V72H349V-568H442C427 -513 407 -446 384 -386C439 -320 452 -265 452 -221C453 -196 448 -174 437 -165C431 -160 423 -158 414 -158C403 -157 387 -157 371 -159C380 -142 386 -118 387 -101C405 -100 424 -100 439 -102C454 -105 469 -109 481 -118C503 -135 514 -171 513 -217C513 -267 498 -326 443 -393C470 -458 497 -540 519 -604ZM654 -547H822C800 -515 772 -485 738 -459C704 -484 676 -515 654 -547ZM868 -601L857 -598H689C698 -612 706 -626 713 -641L656 -656C621 -584 560 -519 494 -473C508 -464 531 -445 540 -434C567 -454 594 -478 619 -506C639 -476 665 -450 693 -426C634 -388 564 -360 496 -343C508 -332 523 -309 530 -295C555 -302 581 -311 606 -321V-276H708V-211H618C625 -227 632 -243 637 -258L585 -269C568 -218 539 -169 504 -132C517 -125 538 -112 548 -104C563 -120 578 -141 591 -163H708V-104H571V-57H708V6H499V58H945V6H768V-57H903V-104H768V-163H918V-211H768V-276H876V-324H614C658 -342 701 -364 740 -391C796 -353 862 -326 933 -308C941 -324 958 -348 972 -360C904 -373 842 -396 788 -427C838 -469 880 -520 907 -582Z"/>
</svg>