<svg xmlns="http://www.w3.org/2000/svg" viewBox="0 -1000 1000 1000">
	<path fill="#000000" d="M165 -468C158 -516 133 -594 103 -654L50 -635C79 -574 104 -494 110 -445ZM949 -689V-750H631C620 -778 603 -814 586 -842L515 -825C527 -803 539 -775 549 -750H185V-435C185 -409 185 -380 183 -352C129 -321 78 -293 41 -276L68 -212C103 -233 141 -257 178 -280C166 -174 136 -62 60 25C74 34 101 59 111 72C233 -67 252 -280 252 -434V-689ZM551 -668C494 -651 398 -637 319 -628V-352H880V-633H610V-580H809V-517H615V-467H809V-405H388V-468H575V-518H388V-585C455 -591 528 -603 580 -618ZM382 -217H523V-267H382V-325H318V-50C318 -13 300 3 287 9C296 23 309 50 313 66C328 55 354 47 519 7C517 -7 515 -31 516 -48L382 -19V-108H524V-158H382ZM621 -18V-108H749V-158H621V-217H746V-267H621V-324H558V-51C558 -11 538 7 526 15C535 27 548 52 552 67C569 57 595 48 774 3C772 -10 771 -34 772 -51ZM783 -327C786 -61 818 73 895 73C935 73 955 50 962 -40C949 -45 932 -55 920 -67C917 -7 912 9 899 9C870 9 845 -93 848 -327Z"/>
</svg>