<svg xmlns="http://www.w3.org/2000/svg" viewBox="0 -1000 1000 1000">
	<path fill="#000000" d="M494 -751H306L321 -758C311 -782 292 -818 271 -844L212 -820C227 -799 241 -774 250 -751H50V-690H494ZM317 -479H227V-526H317ZM363 -561H183V-444H363ZM403 -411H138V-595H403ZM463 -643H80V-363H463ZM171 -180H373V-124H171ZM171 -278H373V-222H171ZM435 -81V-321H111V-81ZM450 -51C301 -35 147 -20 46 -11L51 52C157 41 307 24 450 9ZM852 -395C832 -306 799 -231 758 -168C715 -235 681 -313 657 -395ZM712 -629V-456H602V-629ZM885 -458L873 -456H774V-629H879C870 -589 861 -549 852 -520L907 -505C923 -550 941 -620 953 -683L910 -694L898 -692H774V-830H712V-692H540V-436C540 -296 531 -100 449 39C464 45 492 61 504 72C581 -61 599 -249 602 -394C629 -292 669 -197 720 -117C669 -57 607 -12 539 17C553 29 570 54 577 70C644 37 705 -7 757 -65C802 -8 855 39 916 71C926 54 946 29 960 18C897 -12 844 -58 797 -115C856 -200 900 -307 924 -446Z"/>
</svg>