<svg xmlns="http://www.w3.org/2000/svg" viewBox="0 -1000 1000 1000">
	<path fill="#000000" d="M874 -808C851 -750 806 -670 772 -619L832 -594C868 -643 910 -715 943 -782ZM574 -620C559 -671 516 -747 473 -803L413 -775C455 -717 496 -639 511 -588ZM294 -709V-570H145V-709ZM145 -155V-300H294V-155ZM145 -506H294V-364H145ZM355 -775H79V-2H145V-88H355ZM909 -553H712V-837H640V-553H431V-278C431 -179 426 -54 375 37C391 45 420 68 432 81C491 -20 501 -168 501 -278V-487H839V-261C715 -232 586 -204 499 -186L524 -122C613 -143 728 -171 839 -200V-18C839 -3 834 1 819 2C803 3 752 3 695 0C705 21 716 51 719 71C793 71 842 70 872 58C901 46 909 25 909 -16ZM517 -371C606 -352 718 -314 776 -282L806 -336C746 -366 634 -402 546 -419Z"/>
</svg>