<svg xmlns="http://www.w3.org/2000/svg" viewBox="0 -1000 1000 1000">
	<path fill="#000000" d="M359 -245C320 -231 280 -216 241 -201V-524H352V-594H241V-825H171V-594H51V-524H171V-176C122 -158 76 -142 40 -131L64 -55C152 -89 266 -135 372 -178ZM458 -319V-416H614V-360C614 -346 614 -333 613 -319ZM458 -568H614V-473H458ZM850 -568V-473H685V-568ZM850 -319H684C685 -333 685 -346 685 -360V-416H850ZM921 -259V-628H685V-708H951V-773H366V-708H614V-628H391V-259H609C601 -211 585 -164 551 -123C513 -155 483 -194 461 -240L395 -223C423 -165 458 -116 503 -76C453 -37 380 -3 274 20C290 35 308 63 317 79C428 51 505 12 560 -33C652 28 773 63 922 80C931 59 949 29 966 13C819 2 699 -29 609 -82C651 -136 672 -195 680 -259Z"/>
</svg>