<svg xmlns="http://www.w3.org/2000/svg" viewBox="0 -1000 1000 1000">
	<path fill="#000000" d="M896 -657C886 -578 864 -460 845 -390L893 -377C915 -447 936 -558 955 -646ZM725 -387C716 -450 690 -567 666 -656L617 -645C639 -556 664 -437 672 -369ZM244 -713V-573H137V-713ZM137 -157V-304H244V-157ZM137 -509H244V-367H137ZM306 -778H75V-5H137V-92H306ZM630 -297C617 -320 554 -411 529 -444V-476H608V-546H529V-735C561 -743 593 -752 619 -762L580 -823C521 -797 422 -772 339 -757C346 -741 356 -717 359 -700C392 -705 428 -712 464 -719V-546H349V-476H446C423 -369 374 -247 326 -182C337 -166 353 -138 360 -118C400 -172 437 -260 464 -350V76H529V-359C553 -316 582 -264 595 -235ZM812 -829H750V-587C750 -394 736 -159 587 28C600 38 622 62 631 77C715 -26 760 -140 784 -257C810 -115 852 3 924 70C935 53 956 26 972 14C872 -70 829 -268 810 -483C812 -518 812 -554 812 -587Z"/>
</svg>