<svg xmlns="http://www.w3.org/2000/svg" viewBox="0 -1000 1000 1000">
	<path fill="#000000" d="M744 -302V-242H257V-302ZM257 -135V-194H744V-135ZM257 -26V-87H744V-26ZM184 76H257V28H744V73H820V-356H184ZM627 -688H803C785 -632 756 -587 718 -550C678 -588 645 -633 624 -683ZM947 -688V-746H660C674 -771 684 -796 694 -820L629 -836C605 -770 560 -688 503 -633L481 -640L470 -637H376L360 -649C413 -682 471 -729 513 -772L470 -808L455 -804H99V-747H398C372 -723 341 -698 313 -680C283 -698 251 -717 223 -730L178 -700C212 -683 249 -659 282 -637H64V-581H240C187 -533 115 -492 45 -463C58 -452 78 -427 84 -415C159 -451 240 -504 299 -562V-442C299 -432 296 -429 285 -429C274 -428 239 -428 199 -430C206 -414 214 -396 218 -379C273 -379 310 -379 332 -389C357 -397 363 -411 363 -442V-581H438C424 -552 405 -522 387 -501L439 -481C466 -512 493 -560 516 -608C526 -600 535 -592 542 -585C557 -599 572 -614 586 -632C609 -587 637 -547 671 -511C619 -475 555 -450 482 -431C494 -418 514 -391 521 -377C595 -400 662 -430 717 -469C771 -426 834 -394 907 -373C916 -392 934 -417 948 -431C878 -447 818 -473 766 -510C813 -557 849 -615 872 -688Z"/>
</svg>