<svg xmlns="http://www.w3.org/2000/svg" viewBox="0 -1000 1000 1000">
	<path fill="#000000" d="M729 -275V-222H268V-275ZM268 -125V-175H729V-125ZM268 -24V-79H729V-24ZM198 78H268V31H729V76H802V-327H198ZM794 -684C780 -624 756 -573 724 -530C685 -575 654 -626 633 -684ZM173 -562V-629H291C292 -605 295 -583 298 -562ZM419 -754V-682H173V-754ZM945 -684V-742H655C665 -768 674 -796 681 -824L617 -837C594 -744 552 -656 497 -597C511 -587 536 -563 545 -552C563 -572 580 -594 595 -619C619 -569 648 -524 683 -484C638 -441 583 -408 517 -384C524 -400 528 -424 531 -454C515 -459 496 -468 482 -481C479 -425 474 -399 456 -398C424 -397 392 -438 372 -507H511V-562H360C356 -583 354 -605 352 -629H486V-807H106V-432C106 -394 89 -380 76 -372C86 -361 101 -335 106 -320C123 -331 151 -340 326 -381C324 -395 322 -421 323 -439L173 -409V-507H310C336 -405 386 -342 453 -342C483 -342 503 -352 515 -381C528 -370 547 -343 554 -330C621 -358 680 -394 727 -439C780 -391 844 -354 917 -330C927 -347 945 -371 960 -384C886 -405 822 -439 769 -485C812 -538 843 -604 863 -684Z"/>
</svg>