<svg xmlns="http://www.w3.org/2000/svg" viewBox="0 -1000 1000 1000">
	<path fill="#000000" d="M241 -713V-574H139V-713ZM139 -510H241V-368H139ZM139 -159V-305H241V-159ZM304 -94V-778H76V-5H139V-94ZM591 -132C569 -175 523 -246 481 -306C484 -327 486 -347 487 -368H590V-434H490C491 -453 491 -470 491 -487V-594H582V-660H491V-820H426V-660H333V-594H426V-487C426 -470 426 -453 426 -434H320V-368H423C414 -245 386 -107 285 -23C301 -11 321 11 331 26C404 -41 445 -129 466 -222C499 -170 531 -114 550 -77ZM679 -414H846V-304H679ZM679 -583H846V-472H679ZM679 -749H846V-641H679ZM855 17C848 17 843 15 840 12C836 8 836 -3 836 -21V-242H915V-811H612V-242H660C650 -109 617 -21 487 28C501 40 519 64 527 79C671 20 712 -85 725 -242H774V-28C774 26 778 41 791 53C803 64 823 69 841 69H882C897 69 914 66 925 59C936 53 944 42 949 24C954 7 957 -44 958 -88C942 -93 923 -103 911 -113C910 -66 910 -31 907 -14C905 0 902 8 898 12C894 16 886 17 879 17Z"/>
</svg>