<svg xmlns="http://www.w3.org/2000/svg" viewBox="0 -1000 1000 1000">
	<path fill="#000000" d="M865 -654H757V-746H865ZM704 -654H598V-746H704ZM545 -654H443V-746H545ZM923 -801H386V-600H923ZM357 -113C340 -141 272 -251 243 -294C247 -321 250 -348 253 -374H351V-439H256C257 -456 257 -472 257 -488V-636H346V-702H170C180 -741 188 -782 194 -824L130 -835C115 -716 85 -598 37 -519C54 -511 80 -493 92 -483C117 -525 137 -577 154 -636H192V-488C192 -472 192 -456 191 -439H59V-374H188C178 -245 145 -99 42 13C56 22 81 45 92 59C163 -19 205 -117 228 -215C258 -162 294 -94 311 -58ZM450 -213C482 -200 523 -179 545 -162L574 -202C553 -217 511 -237 479 -248ZM445 -285H575V-145C522 -121 473 -101 436 -87C443 -126 445 -164 445 -198ZM633 -338H388V-199C388 -128 380 -35 324 36C336 44 360 64 368 77C406 31 425 -27 436 -83L459 -37C496 -55 535 -73 575 -93V7C575 15 573 18 564 18C555 18 531 18 500 17C508 33 515 54 518 69C560 69 590 69 608 59C628 50 633 36 633 7ZM545 -518C558 -496 572 -470 585 -445L455 -438C488 -475 520 -521 548 -568L488 -595C462 -535 415 -475 401 -460C387 -444 375 -434 362 -432C369 -417 379 -386 383 -372V-371C399 -378 426 -382 605 -395C612 -379 617 -366 620 -353L672 -373C660 -418 627 -485 594 -535ZM877 -288C929 -288 947 -311 953 -398C936 -401 912 -410 899 -420C896 -353 892 -344 870 -344H778C752 -344 748 -347 748 -368V-451H925V-504H748V-581H686V-367C686 -305 703 -288 772 -288ZM780 3C754 3 749 -1 749 -22V-131H928V-185H749V-267H688V-22C688 42 705 59 774 59H881C937 59 953 33 960 -66C943 -70 918 -79 905 -89C902 -8 898 3 874 3Z"/>
</svg>