<svg xmlns="http://www.w3.org/2000/svg" viewBox="0 -1000 1000 1000">
	<path fill="#000000" d="M302 -116H182V-411H302ZM54 -715H176C149 -564 103 -422 33 -328C45 -308 62 -266 67 -249C86 -273 103 -299 119 -329V31H182V-49H366V-477H184C209 -552 230 -632 246 -715H388V-784H54ZM509 -490H817V-374H509ZM817 -659V-554H509V-659ZM886 -285C848 -250 788 -208 738 -176C713 -216 693 -260 677 -308H889V-725H713C700 -758 679 -803 662 -840L597 -822C611 -793 626 -756 638 -725H439V-53C439 -15 421 0 405 8C418 25 429 62 434 80C452 67 481 55 668 -8C665 -24 662 -52 662 -73L509 -25V-308H609C663 -130 761 8 915 74C925 54 947 26 963 12C887 -16 824 -64 774 -126C825 -156 888 -197 934 -236Z"/>
</svg>