<svg xmlns="http://www.w3.org/2000/svg" viewBox="0 -1000 1000 1000">
	<path fill="#000000" d="M323 -129H194V-421H323ZM389 -62V-486H200C220 -558 236 -635 248 -715H424V-782H52V-715H176C150 -541 108 -379 32 -274C46 -259 70 -226 78 -210C97 -236 113 -265 129 -296V22H194V-62ZM723 -234V-351H853V-234ZM534 -351H658V-234H531C533 -264 534 -294 534 -321ZM731 -691C713 -654 690 -614 670 -583H524C547 -617 569 -653 588 -691ZM723 -520H853V-411H723ZM534 -520H658V-411H534ZM923 -583H744C774 -626 806 -679 827 -725L779 -757L769 -754H618C627 -775 635 -797 643 -819L574 -837C535 -720 468 -606 390 -532C407 -522 433 -496 445 -483C452 -490 458 -497 465 -505V-321C465 -210 454 -68 358 31C373 40 401 65 411 79C478 10 509 -81 523 -170H853V-9C853 5 848 9 834 10C820 10 771 10 720 8C731 27 741 59 743 78C813 78 859 77 887 65C915 54 923 32 923 -9Z"/>
</svg>