<svg xmlns="http://www.w3.org/2000/svg" viewBox="0 -1000 1000 1000">
	<path fill="#000000" d="M273 -116H179V-411H273ZM359 -715V-784H54V-715H176C149 -563 103 -422 34 -328C45 -310 61 -271 65 -254C85 -279 102 -307 119 -338V31H179V-49H335V-477H180C206 -551 226 -632 243 -715ZM589 -675C578 -633 563 -594 545 -558C522 -581 490 -608 459 -630C468 -645 477 -660 485 -675ZM622 -736L610 -734H511C523 -762 533 -790 541 -817L479 -826C456 -741 406 -634 323 -556C338 -547 359 -530 370 -517C392 -539 411 -561 429 -585C459 -559 492 -529 513 -504C472 -442 421 -394 365 -366C378 -354 396 -332 404 -317C526 -387 624 -521 661 -723ZM507 -187C470 -125 416 -58 366 -11C382 0 407 22 418 34C468 -18 528 -97 571 -166ZM740 -156C789 -100 846 -22 873 28L929 -5C901 -53 844 -129 793 -185ZM690 -391H618V-283H372V-216H618V77H690V-216H936V-283H690ZM723 -514C733 -557 744 -607 753 -653H802V-514ZM864 -514V-653H941V-714H864V-824H802V-714H672V-653H697C685 -585 668 -507 654 -454H802V-327H864V-454H957V-514Z"/>
</svg>