<svg xmlns="http://www.w3.org/2000/svg" viewBox="0 -1000 1000 1000">
	<path fill="#000000" d="M156 -509V-558H255V-509ZM156 -645H255V-596H156ZM420 -645V-596H320V-645ZM420 -509H320V-558H420ZM255 -324H320V-384H506V-432H320V-470H480V-684H320V-726H511V-775H320V-836H255V-775H64V-726H255V-684H98V-470H255V-432H55V-384H255ZM778 -14H325V-114H778ZM61 -240H319C248 -155 143 -87 35 -44C48 -31 71 -4 81 10C139 -19 199 -54 254 -95V76H325V43H778V75H851V-171H342C362 -193 382 -215 398 -240H941V-297H61ZM633 -632V-718C734 -726 844 -743 919 -765L882 -820C808 -795 675 -777 566 -768V-767V-621C566 -542 557 -437 493 -359C508 -351 537 -329 548 -318C606 -388 627 -488 632 -573H760V-318H828V-573H951V-632Z"/>
</svg>