<svg xmlns="http://www.w3.org/2000/svg" viewBox="0 -1000 1000 1000">
	<path fill="#000000" d="M285 -116H176V-411H285ZM54 -715H169C144 -563 100 -422 34 -328C44 -309 61 -267 65 -249C83 -274 99 -301 115 -330V31H176V-49H346V-477H177C201 -551 221 -632 236 -715H370V-784H54ZM798 -249V-162H510V-249ZM510 -26V-109H798V-26ZM445 73H510V32H798V69H865V-308H445ZM489 -600C514 -554 540 -492 551 -454L595 -472C583 -508 557 -568 532 -613ZM755 -455C776 -492 803 -547 825 -596L777 -612C763 -570 734 -508 713 -470ZM844 -420H680V-648H844ZM463 -648H627V-420H463ZM775 -706C800 -738 826 -778 850 -814L781 -839C763 -800 733 -744 707 -706H546L595 -727C582 -757 557 -803 529 -837L471 -816C493 -782 519 -737 530 -706H402V-362H907V-706Z"/>
</svg>