<svg xmlns="http://www.w3.org/2000/svg" viewBox="0 -1000 1000 1000">
	<path fill="#000000" d="M277 -116H181V-411H277ZM379 -715V-784H54V-715H176C149 -564 103 -422 33 -328C45 -308 62 -266 67 -249C85 -272 101 -298 117 -325V31H181V-49H341V-477H184C210 -552 230 -632 246 -715ZM658 -600H509V-663H658ZM658 -488H509V-550H658ZM658 -375H509V-438H658ZM441 -273H509V-316H943V-375H727V-438H907V-488H727V-550H907V-600H727V-663H938V-721H704L747 -738C735 -765 708 -809 686 -842L622 -821C641 -791 663 -749 676 -721H527C544 -753 560 -787 574 -820L507 -839C467 -738 401 -639 329 -575C344 -562 369 -535 380 -521C401 -542 421 -565 441 -590ZM532 -127C495 -81 424 -34 361 -10C376 1 397 25 408 41C474 12 548 -49 587 -105ZM947 -173V-236H707V-303H636V-236H382V-173H636V74H707V-173ZM753 -99C808 -56 875 5 908 45L954 1C921 -37 852 -96 798 -136Z"/>
</svg>