<svg xmlns="http://www.w3.org/2000/svg" viewBox="0 -1000 1000 1000">
	<path fill="#000000" d="M765 -662H829V-711H952V-768H829V-831H765V-768H694V-711H765ZM525 -651H589V-711H664V-768H589V-831H525V-768H406V-711H525ZM527 -547C505 -575 459 -616 422 -644L378 -606C415 -576 459 -533 481 -503ZM362 -409C402 -381 450 -339 472 -310L516 -355C494 -383 445 -422 405 -448ZM280 -117H180V-413H280ZM372 -708V-772H44V-708H163C140 -537 100 -375 31 -268C44 -253 66 -221 75 -206C91 -230 105 -256 118 -283V29H180V-54H343V-477H186C204 -549 219 -628 230 -708ZM477 -260C441 -162 390 -48 354 20L410 61C448 -22 492 -131 525 -222ZM577 -92C613 -61 654 -16 674 15L724 -23C703 -51 661 -93 623 -124ZM772 -345V-386H876V-345ZM612 -345V-386H714V-345ZM714 -467V-428H612V-467ZM876 -467V-428H772V-467ZM957 -184H860V-236C882 -236 900 -237 913 -242C931 -249 935 -256 935 -281V-516H772V-559H954V-609H909L939 -635C924 -653 889 -675 861 -687L826 -658C852 -645 882 -627 899 -609H772V-655H714V-609H531V-559H714V-516H555V-236H612V-303H714V-239H772V-303H876V-283C876 -276 874 -274 867 -274C861 -273 845 -274 825 -274C830 -264 837 -252 840 -241H797V-184H521V-129H797V10C797 19 794 22 784 23C774 23 745 23 708 22C716 38 725 60 728 77C778 77 811 77 833 67C855 57 860 42 860 11V-129H957Z"/>
</svg>