<svg xmlns="http://www.w3.org/2000/svg" viewBox="0 -1000 1000 1000">
	<path fill="#000000" d="M486 -80H664V-23H486ZM664 -236H486V-288H664ZM664 -130H486V-186H664ZM276 -116H181V-411H276ZM729 -80H914V-130H729V-186H914V-236H729V-288H935V-342H730C721 -368 702 -402 683 -429L633 -408C645 -389 658 -364 668 -342H496C509 -361 521 -382 532 -401L473 -420C441 -359 389 -298 335 -253V-477H183C208 -551 228 -632 245 -715H359V-784H54V-715H175C148 -563 103 -423 33 -328C44 -309 62 -266 66 -249C85 -273 102 -300 118 -329V31H181V-49H335V-232C348 -221 362 -208 369 -199C386 -214 403 -230 420 -248V79H486V33H949V-23H729ZM458 -436C507 -447 555 -459 610 -471L606 -515C542 -505 484 -495 438 -489ZM463 -575C508 -565 565 -546 597 -532L616 -573C585 -587 528 -603 484 -612ZM896 -474C858 -491 788 -510 734 -520L715 -482C769 -470 840 -448 878 -432ZM842 -616C810 -603 754 -579 718 -569L744 -535C782 -543 834 -557 873 -578ZM700 -691V-746H908V-801H432V-746H636V-691H381V-530H442V-636H636V-430H700V-636H892V-530H955V-691Z"/>
</svg>