<svg xmlns="http://www.w3.org/2000/svg" viewBox="0 -1000 1000 1000">
	<path fill="#000000" d="M308 -691C288 -730 243 -788 200 -830L131 -805C173 -762 217 -701 236 -662ZM413 -268C395 -290 328 -362 289 -404C336 -473 376 -549 404 -626L361 -651L348 -648H62V-582H311C252 -446 142 -310 36 -233C49 -220 70 -188 78 -170C119 -203 160 -243 200 -288V77H274V-337C308 -295 348 -245 365 -217ZM842 -371V-53H597V-371ZM941 -703V-773H421V-703H590C551 -486 483 -298 366 -176C381 -162 403 -129 412 -113C456 -161 495 -216 527 -278V77H597V16H842V73H913V-440H595C623 -521 645 -610 663 -703Z"/>
</svg>