<svg xmlns="http://www.w3.org/2000/svg" viewBox="0 -1000 1000 1000">
	<path fill="#000000" d="M249 -707C234 -743 202 -795 170 -832L123 -797C152 -758 184 -704 197 -668ZM305 -668L293 -665H54V-597H261C211 -475 121 -356 36 -288C46 -274 60 -237 65 -216C100 -246 136 -284 170 -326V76H231V-346C260 -304 293 -254 310 -225L352 -286C335 -308 272 -389 241 -426C282 -492 316 -566 340 -641ZM750 -149V-237H849V-149ZM602 -149V-237H696V-149ZM455 -149V-237H547V-149ZM912 -295H393V76H455V-93H547V68H602V-93H696V68H750V-93H849V6C849 15 847 17 837 18C829 19 805 19 774 18C782 34 792 58 795 77C837 77 867 76 887 65C907 54 912 38 912 6ZM497 -565H803V-624H497ZM798 -466H864V-382H798ZM757 -334H907V-514H757ZM618 -466H682V-382H618ZM724 -334V-514H577V-334ZM440 -466H500V-382H440ZM398 -334H543V-514H398ZM634 -831C584 -762 483 -691 347 -645C360 -632 376 -606 383 -590C495 -633 583 -689 647 -753C717 -688 829 -625 919 -595C928 -611 946 -639 960 -652C865 -680 748 -737 685 -796C690 -801 695 -808 700 -814Z"/>
</svg>