<svg xmlns="http://www.w3.org/2000/svg" viewBox="0 -1000 1000 1000">
	<path fill="#000000" d="M278 -487H398V-557H278V-724C325 -735 368 -749 404 -764L361 -823C289 -790 162 -761 54 -743C63 -727 72 -701 76 -685C118 -691 163 -699 207 -708V-557H46V-487H197C159 -372 92 -243 32 -173C43 -154 61 -124 69 -103C118 -165 168 -263 207 -364V75H278V-377C309 -328 346 -266 362 -235L407 -294C388 -322 306 -427 278 -460ZM815 -260V-34H542V-260ZM474 77H542V33H815V75H885V-327H474ZM731 -665C765 -622 800 -570 831 -519L513 -497C576 -587 639 -702 692 -816L616 -838C568 -712 489 -578 463 -543C440 -507 420 -482 402 -478C411 -459 422 -423 425 -407C454 -419 498 -424 869 -453C883 -426 895 -402 904 -380L964 -414C932 -492 858 -608 788 -694Z"/>
</svg>