<svg xmlns="http://www.w3.org/2000/svg" viewBox="0 -1000 1000 1000">
	<path fill="#000000" d="M336 -288C321 -314 253 -412 230 -442V-483H315V-551H230V-731C263 -741 295 -751 321 -763L269 -817C218 -790 124 -766 45 -751C52 -736 62 -712 66 -696C98 -701 134 -708 168 -716V-551H47V-483H158C132 -371 83 -240 36 -167C47 -151 64 -121 72 -101C107 -157 141 -244 168 -334V77H230V-360C255 -316 284 -263 296 -236ZM516 -717V-602H397V-717ZM397 -423V-546H516V-423ZM629 -117C611 -167 569 -251 532 -314L484 -290C498 -264 513 -235 528 -204L397 -130V-361H573V-778H337V-150C337 -105 312 -74 297 -61C310 -49 328 -24 335 -9C349 -27 372 -46 550 -154C562 -130 571 -106 577 -88ZM682 -435C694 -519 706 -628 715 -716H775V-712C775 -634 773 -538 756 -435ZM954 -373V-435H816C833 -538 835 -634 835 -712V-716H947V-781H613V-716H654C645 -605 629 -459 615 -373H743C711 -232 647 -84 519 43C536 50 561 69 573 80C666 -15 726 -121 765 -228V-20C765 24 768 37 782 50C794 61 814 65 832 65H875C891 65 909 61 920 54C931 46 939 34 944 15C949 -5 951 -61 952 -110C937 -114 919 -124 908 -134C909 -85 907 -42 905 -24C903 -13 899 -4 895 0C890 3 882 5 873 5H846C839 5 833 3 828 -1C824 -4 823 -10 823 -17V-320H794C798 -338 802 -355 806 -373Z"/>
</svg>