<svg xmlns="http://www.w3.org/2000/svg" viewBox="0 -1000 1000 1000">
	<path fill="#000000" d="M569 -693V-586C569 -524 585 -497 658 -497H824C854 -497 887 -497 903 -502C900 -520 899 -540 897 -559C881 -555 840 -554 819 -554H670C646 -554 642 -562 642 -585V-693H863V-602H937V-753H556C546 -779 533 -814 520 -840L439 -825C448 -803 458 -777 466 -753H74V-594H146V-693H355C331 -600 267 -554 72 -529C86 -516 104 -487 110 -469C328 -504 404 -568 433 -693ZM932 -192V-258H524C535 -294 542 -333 547 -374C656 -384 757 -400 835 -420L792 -477C647 -441 379 -418 159 -410C167 -393 174 -367 176 -350C269 -353 369 -358 467 -367C462 -328 455 -292 444 -258H64V-192H417C365 -96 266 -24 57 15C71 29 89 58 95 76C333 27 443 -64 499 -188C570 -36 702 43 912 75C920 54 940 25 956 8C765 -12 637 -75 572 -192Z"/>
</svg>