<svg xmlns="http://www.w3.org/2000/svg" viewBox="0 -1000 1000 1000">
	<path fill="#000000" d="M201 -390C295 -409 397 -435 469 -466L423 -523C353 -490 231 -458 128 -437V-220C128 -179 107 -160 93 -152C103 -138 119 -108 124 -92C144 -103 172 -113 369 -166C353 -92 294 -24 102 21C114 35 134 61 141 78C407 12 444 -103 444 -225V-374H375V-234L201 -190ZM883 -460H543V76H616V-395H811V-143C811 -131 807 -128 793 -127C781 -126 737 -126 687 -128C697 -109 707 -82 710 -63C777 -63 821 -63 847 -75C875 -86 883 -104 883 -142ZM937 -609V-760H547C538 -785 525 -815 513 -838L439 -825C447 -805 456 -782 464 -760H74V-601H146V-700H358C328 -620 259 -575 75 -548C89 -535 107 -507 113 -490C317 -526 401 -587 437 -700H574V-602C574 -540 589 -513 663 -513H828C859 -513 891 -513 907 -518C905 -536 903 -556 901 -576C884 -571 845 -570 824 -570H675C650 -570 647 -578 647 -601V-700H863V-609Z"/>
</svg>