<svg xmlns="http://www.w3.org/2000/svg" viewBox="0 -1000 1000 1000">
	<path fill="#000000" d="M146 -688H369C346 -600 278 -563 75 -543C88 -531 105 -503 110 -486C336 -513 415 -568 444 -688H551V-592C551 -530 567 -503 640 -503H806C836 -503 870 -503 885 -508C882 -526 882 -546 880 -566C863 -562 823 -560 801 -560H653C628 -560 624 -568 624 -592V-688H863V-596H937V-748H553C543 -775 527 -812 515 -839L439 -825C448 -802 459 -773 468 -748H74V-589H146ZM257 -264C218 -284 142 -318 88 -339L56 -290C111 -267 186 -230 224 -208ZM111 74C177 15 252 -59 316 -125L280 -178C210 -107 125 -28 68 17ZM117 -435C171 -411 244 -374 282 -351L316 -406C276 -427 204 -461 150 -482ZM945 -261H686V-390H907V-453H380V-390H614V-261H332V-195H614V-14C614 -1 609 3 594 3C579 5 527 5 470 3C481 23 491 52 494 73C567 73 616 73 647 61C677 49 686 28 686 -13V-195H945Z"/>
</svg>