<svg xmlns="http://www.w3.org/2000/svg" viewBox="0 -1000 1000 1000">
	<path fill="#000000" d="M154 -693H363C340 -614 279 -579 105 -559C118 -546 134 -523 139 -508C334 -535 409 -584 438 -693H561V-627C561 -570 576 -546 644 -546H793C822 -546 853 -546 867 -550C864 -566 863 -586 862 -604C846 -600 809 -598 788 -598H655C633 -598 630 -605 630 -626V-693H843V-607H919V-753H557C547 -781 533 -817 519 -845L445 -827C455 -805 466 -778 474 -753H81V-604H154ZM205 -100C206 -121 207 -139 207 -158H412V-100ZM412 -261V-203H207V-261ZM480 -312H142V-165C142 -100 138 -19 93 44C108 51 135 73 146 86C175 46 191 -5 199 -55H412V8C412 18 409 20 401 20C391 21 364 21 332 20C339 36 349 56 353 72C400 73 432 72 453 63C475 53 480 39 480 8ZM588 -30H656V-292H588ZM786 0C786 12 782 16 769 16C757 16 711 17 664 15C674 32 686 57 689 75C752 75 793 75 821 65C848 55 857 39 857 2V-319H786ZM322 -422C382 -451 438 -485 486 -522C543 -482 599 -449 656 -422ZM495 -609C393 -509 206 -428 34 -385C49 -369 66 -345 75 -328C157 -351 241 -383 320 -421V-367H669V-416C749 -378 828 -350 908 -327C917 -348 936 -373 952 -388C812 -425 665 -473 534 -560C539 -566 546 -572 552 -578Z"/>
</svg>