<svg xmlns="http://www.w3.org/2000/svg" viewBox="0 -1000 1000 1000">
	<path fill="#000000" d="M233 -541C374 -568 425 -618 443 -709H550V-641C550 -586 563 -559 631 -559H802C834 -559 868 -560 884 -565C881 -582 880 -597 879 -617C862 -613 819 -611 797 -611H652C626 -611 623 -619 623 -640V-709H864V-639H937V-765H553C542 -790 527 -823 515 -847L439 -831C449 -811 460 -788 468 -765H67V-636H139V-709H370C349 -631 287 -600 89 -586C101 -572 117 -545 122 -527C159 -531 191 -535 221 -540C187 -439 114 -319 33 -244C45 -229 64 -203 71 -188C100 -215 128 -248 154 -282V76H221V-383C248 -430 272 -479 290 -525ZM304 -39H367V-456H304ZM801 -463C773 -425 732 -394 682 -368C629 -394 586 -425 557 -463ZM934 -463V-512H593C602 -525 610 -537 617 -550L550 -561C521 -505 464 -443 381 -398C397 -389 419 -370 430 -357C466 -378 496 -401 522 -426C549 -395 583 -366 623 -343C555 -317 477 -300 396 -289C408 -276 425 -251 430 -237C521 -254 608 -277 684 -312C754 -280 835 -259 923 -247C931 -264 946 -287 959 -300C882 -308 809 -321 745 -343C798 -375 841 -414 872 -463ZM523 -130C489 -78 437 -25 386 12C402 20 428 39 441 50C489 10 547 -53 584 -110ZM933 -152V-209H712V-254H645V-209H421V-152H645V75H712V-152ZM757 -98C804 -56 859 4 885 43L939 5C912 -33 857 -89 809 -130Z"/>
</svg>