<svg xmlns="http://www.w3.org/2000/svg" viewBox="0 -1000 1000 1000">
	<path fill="#000000" d="M282 -689C268 -727 242 -784 218 -828L156 -807C178 -763 206 -703 218 -665ZM389 -650H54V-581H389ZM193 -178C189 -276 167 -420 143 -535L86 -523C109 -410 129 -263 133 -166ZM396 -180L294 -155C316 -260 341 -411 359 -528L292 -542C281 -420 257 -245 234 -139C164 -122 99 -107 49 -96L65 -23C160 -47 285 -79 404 -112ZM946 -588V-661H606C611 -715 615 -771 618 -828L544 -830C541 -773 538 -716 534 -661H434V-588H529C506 -335 463 -117 366 29C384 39 419 65 431 76C531 -88 576 -318 601 -588ZM963 53C944 -39 895 -177 840 -283L778 -262C806 -205 833 -138 855 -74L643 -49C700 -173 756 -337 790 -491L717 -508C688 -347 625 -167 604 -121C585 -73 569 -39 551 -33C560 -15 572 21 576 35C595 24 629 19 874 -13C883 20 890 50 895 76Z"/>
</svg>