<svg xmlns="http://www.w3.org/2000/svg" viewBox="0 -1000 1000 1000">
	<path fill="#000000" d="M285 -689L248 -654C286 -622 336 -578 360 -551L404 -596C378 -621 332 -661 294 -689H490V-751H238C249 -774 260 -797 268 -821L199 -841C164 -749 106 -659 43 -600C59 -587 86 -561 98 -548C135 -585 172 -635 204 -689ZM767 -168V-26H242V-168ZM171 77H242V39H767V75H841V-234H171ZM100 -547V-482H402C359 -389 271 -316 55 -281C69 -267 85 -239 92 -221C332 -267 432 -356 481 -482H784C773 -401 761 -363 746 -350C737 -342 726 -341 706 -341C685 -341 626 -342 568 -347C580 -328 589 -302 590 -282C649 -278 707 -278 735 -279C765 -281 787 -286 805 -304C832 -328 847 -385 863 -515C865 -525 867 -547 867 -547ZM661 -751C668 -776 675 -800 681 -825L610 -840C590 -751 554 -663 506 -605C522 -595 552 -572 564 -560C591 -594 616 -639 637 -688H723L686 -649C723 -619 772 -578 797 -551L837 -598C813 -622 764 -661 728 -688H949V-751Z"/>
</svg>