<svg xmlns="http://www.w3.org/2000/svg" viewBox="0 -1000 1000 1000">
	<path fill="#000000" d="M497 -690V-756H241C252 -778 261 -800 269 -822L198 -842C165 -755 107 -669 46 -615C60 -600 85 -567 95 -551C133 -588 171 -636 204 -690ZM235 -637C269 -604 311 -555 328 -523L382 -570C364 -600 321 -645 286 -678ZM298 -430H467V-496H69V-430H226V-133C158 -117 98 -103 49 -93L62 -22C175 -50 335 -91 485 -129L478 -196C417 -180 357 -165 298 -150ZM877 -524L864 -521H532V77H605V-453H816C782 -403 740 -345 700 -297C811 -235 844 -179 845 -133C846 -107 836 -91 815 -81C802 -75 786 -73 770 -71C742 -69 709 -69 672 -73C683 -54 692 -26 694 -6C728 -3 769 -3 802 -6C825 -10 849 -15 867 -26C904 -46 922 -79 921 -128C920 -182 894 -241 787 -308C833 -360 887 -427 932 -489ZM806 -572C785 -604 741 -649 704 -680L653 -641C690 -607 733 -559 753 -528ZM641 -756C649 -778 656 -800 663 -823L588 -841C564 -746 519 -655 462 -595C479 -582 508 -555 521 -542C556 -581 587 -633 614 -690H947V-756Z"/>
</svg>