<svg xmlns="http://www.w3.org/2000/svg" viewBox="0 -1000 1000 1000">
	<path fill="#000000" d="M952 -706V-765H653C662 -786 670 -806 677 -827L607 -843C585 -768 543 -695 490 -648C507 -637 536 -615 548 -604C575 -632 600 -667 623 -706ZM667 -666C707 -634 757 -587 782 -558L831 -602C805 -631 754 -675 714 -705ZM282 -706L238 -672C275 -637 321 -590 342 -561L391 -602C370 -631 325 -674 288 -706H493V-766H238C248 -786 257 -806 265 -826L199 -843C165 -755 109 -668 46 -611C61 -600 87 -575 98 -562C136 -600 174 -650 206 -706ZM231 -433C205 -322 146 -233 61 -179C78 -167 105 -140 116 -127C166 -163 208 -210 241 -267C282 -232 321 -192 343 -163L400 -207C374 -240 320 -289 271 -325C284 -355 295 -386 303 -421ZM931 -189C894 -228 825 -286 763 -327C775 -357 786 -388 794 -422L722 -434C699 -334 649 -249 580 -193C553 -234 536 -280 524 -329C526 -351 527 -373 527 -394V-448H939V-514H527V-608H454V-514H63V-448H454V-394C454 -238 413 -77 39 18C54 33 73 63 81 80C345 12 455 -94 499 -211C555 -76 671 37 918 75C926 53 944 19 958 2C756 -23 645 -93 582 -189C601 -180 628 -165 642 -155C676 -185 707 -224 733 -268C789 -228 847 -177 880 -139Z"/>
</svg>