<svg xmlns="http://www.w3.org/2000/svg" viewBox="0 -1000 1000 1000">
	<path fill="#000000" d="M286 -685L250 -656C287 -624 332 -579 354 -551L403 -594C382 -618 341 -656 307 -685H495V-750H231C243 -774 255 -800 265 -825L199 -844C165 -754 108 -664 44 -605C59 -594 86 -568 96 -556C131 -591 165 -635 194 -685ZM270 -415C239 -286 174 -175 83 -106C99 -95 128 -73 140 -60C190 -103 233 -158 269 -223C318 -176 370 -120 396 -83L448 -129C417 -171 352 -234 297 -282C314 -319 328 -359 339 -401ZM536 -450H894V-516H109V-450H463V-22H58V46H943V-22H536ZM720 -415C686 -293 622 -183 539 -114C555 -104 584 -81 596 -69C641 -109 681 -161 714 -221C773 -170 835 -108 866 -65L917 -116C881 -161 807 -229 745 -280C762 -318 778 -359 790 -402ZM652 -749C662 -774 672 -801 680 -827L612 -844C585 -749 535 -657 474 -598C490 -588 518 -566 531 -554C563 -589 595 -634 621 -684H728L684 -651C718 -617 759 -571 779 -542L830 -586C809 -612 770 -654 737 -684H952V-749Z"/>
</svg>