<svg xmlns="http://www.w3.org/2000/svg" viewBox="0 -1000 1000 1000">
	<path fill="#000000" d="M727 -705L683 -670C720 -640 764 -598 786 -572L835 -615C813 -640 772 -677 736 -705H952V-764H651C660 -785 669 -805 675 -827L607 -843C582 -764 535 -688 479 -639C496 -630 523 -607 536 -595C566 -625 595 -663 620 -705ZM288 -705L250 -676C285 -644 327 -601 346 -573L395 -615C376 -639 338 -677 305 -705H495V-765H237C247 -785 257 -805 265 -825L199 -843C165 -760 110 -680 49 -625C64 -613 90 -589 101 -576C136 -610 171 -655 203 -705ZM259 -259H754V-186H259ZM259 -386H754V-312H259ZM259 -510H754V-439H259ZM699 -1C656 -1 648 -5 648 -28V-130H827V-566H187V-130H337C310 -47 240 -6 49 17C63 31 79 59 86 77C300 45 383 -15 414 -130H575V-27C575 45 598 64 692 64H852C927 64 949 38 958 -77C937 -81 907 -92 891 -104C888 -13 881 -1 845 -1Z"/>
</svg>