<svg xmlns="http://www.w3.org/2000/svg" viewBox="0 -1000 1000 1000">
	<path fill="#000000" d="M747 -705L703 -676C731 -648 765 -610 780 -585L832 -625C817 -647 784 -680 757 -705H952V-763H660C668 -783 676 -802 683 -823L610 -839C581 -751 528 -668 464 -612C483 -603 513 -582 527 -569C564 -605 600 -652 630 -705ZM371 -152V-87H938V-152H697V-305H906V-370H697V-505C774 -514 848 -525 904 -540L868 -600C758 -570 561 -552 402 -544C409 -528 418 -503 419 -485C484 -487 554 -491 624 -497V-370H415V-305H624V-152ZM318 -355L306 -354H214C252 -419 296 -500 332 -569H95C133 -605 170 -653 204 -706H301L258 -672C292 -641 331 -597 349 -569L398 -612C380 -638 342 -678 309 -706H494V-764H236C246 -783 255 -801 263 -820L193 -839C159 -755 101 -672 37 -617C53 -606 78 -583 91 -569H79V-504H224C185 -429 138 -347 101 -289H280C265 -230 245 -179 217 -136C189 -170 165 -210 146 -261L91 -237C116 -175 145 -124 180 -84C140 -38 92 -4 37 21C53 32 78 59 88 75C142 48 190 12 231 -36C332 41 468 61 644 61H934C938 40 951 9 962 -8C911 -7 684 -6 645 -7C490 -7 362 -23 269 -89C311 -155 343 -238 361 -340Z"/>
</svg>