<svg xmlns="http://www.w3.org/2000/svg" viewBox="0 -1000 1000 1000">
	<path fill="#000000" d="M667 -702C694 -670 723 -629 736 -601L800 -629C790 -649 770 -677 750 -702H939V-760H634C645 -781 656 -802 664 -824L594 -840C567 -766 515 -694 454 -648C472 -641 504 -622 518 -612C545 -637 574 -667 598 -702ZM268 -700C291 -667 314 -627 324 -600L389 -621C381 -643 364 -673 345 -700H498V-758H227C238 -780 249 -801 259 -824L190 -842C158 -763 100 -684 40 -633C56 -624 86 -604 99 -593C131 -622 162 -659 190 -700ZM497 -404V-490H701C659 -460 613 -431 566 -404ZM770 -147H329V-218H770ZM329 -20V-95H770V-20ZM947 -343V-404H687C763 -454 833 -509 893 -568L835 -605C802 -570 764 -538 724 -507V-549H497V-614H425V-549H165V-490H425V-404H53V-343H447C320 -283 181 -235 41 -200C55 -186 75 -155 84 -140C142 -157 201 -176 260 -197V76H329V39H770V76H842V-274H450C497 -296 542 -318 586 -343Z"/>
</svg>