<svg xmlns="http://www.w3.org/2000/svg" viewBox="0 -1000 1000 1000">
	<path fill="#000000" d="M293 -704L250 -670C285 -637 329 -592 349 -565L398 -606C378 -633 334 -675 300 -704H494V-766H237C248 -786 257 -805 265 -825L199 -843C165 -760 109 -679 49 -625C64 -613 90 -588 100 -576C135 -610 171 -655 202 -704ZM189 -217C191 -248 192 -279 192 -306V-321H357V-217ZM357 -494V-379H192V-494ZM426 -559H124V-306C124 -198 116 -58 41 42C57 48 87 68 99 81C150 14 173 -74 184 -159H357V-6C357 7 353 11 340 11C329 11 288 12 242 10C252 29 261 58 263 77C327 77 368 76 393 65C418 53 426 33 426 -5ZM834 -612C812 -637 767 -677 732 -703L684 -664C719 -635 762 -594 784 -568ZM952 -703V-765H652C661 -786 669 -806 676 -827L607 -843C583 -762 537 -685 480 -633C497 -624 525 -602 537 -590C567 -621 596 -660 621 -703ZM835 -252C815 -195 786 -145 750 -104C708 -147 673 -197 647 -252ZM876 -314L863 -312H569V-497H827C825 -439 822 -415 815 -407C809 -400 801 -400 787 -400C773 -400 731 -400 687 -405C697 -389 704 -366 706 -349C752 -347 797 -346 819 -348C845 -349 863 -356 876 -370C892 -387 897 -430 899 -534V-559H499V77H569V-252H582C611 -178 653 -113 704 -58C665 -23 619 4 570 24C584 35 606 62 616 78C665 55 712 26 753 -12C801 28 856 59 916 81C926 62 947 37 962 22C902 4 847 -24 800 -60C852 -122 893 -200 918 -295Z"/>
</svg>