<svg xmlns="http://www.w3.org/2000/svg" viewBox="0 -1000 1000 1000">
	<path fill="#000000" d="M276 -702L240 -674C273 -642 315 -599 336 -572L383 -614C365 -637 328 -674 297 -702H494V-765H238C248 -785 257 -805 265 -825L200 -843C166 -760 110 -679 49 -625C65 -613 91 -588 101 -576C136 -609 171 -653 202 -702ZM237 -370H463C455 -345 441 -317 420 -291H237ZM237 -501H480V-488C480 -470 480 -447 476 -423H237ZM794 -423H544C547 -446 548 -468 548 -486V-501H794ZM794 -291H498C514 -318 525 -345 533 -370H794ZM651 -215H578V-127H321C379 -160 422 -197 455 -233H866V-559H479C493 -578 507 -599 520 -621L442 -635C434 -614 419 -584 405 -559H167V-233H364C330 -205 285 -176 227 -151C235 -144 245 -136 254 -127H58V-62H578V74H651V-62H945V-127H651ZM647 -764C658 -785 668 -805 675 -827L607 -843C582 -774 535 -708 481 -663C498 -653 525 -631 537 -619C563 -641 587 -670 610 -702H718L673 -668C706 -638 747 -598 767 -572L818 -614C798 -638 758 -676 725 -702H952V-764Z"/>
</svg>