<svg xmlns="http://www.w3.org/2000/svg" viewBox="0 -1000 1000 1000">
	<path fill="#000000" d="M295 -721L249 -690C278 -660 315 -620 331 -595L383 -635C365 -658 331 -694 302 -721H494V-780H241C250 -795 258 -810 265 -825L199 -844C165 -770 107 -696 45 -648C60 -637 86 -611 97 -599C134 -632 172 -674 204 -721ZM470 -170C469 -44 450 -4 324 22C337 35 355 60 360 77C508 44 535 -19 538 -170ZM764 7C740 7 736 4 736 -17V-171H669V-17C669 47 686 65 756 65H854C911 65 928 39 935 -64C916 -69 891 -78 876 -88C874 -4 869 7 847 7ZM643 -779C650 -795 658 -810 664 -826L596 -844C569 -773 518 -706 461 -662C477 -651 504 -630 516 -618C549 -645 580 -680 607 -720H727L683 -690C702 -673 723 -649 737 -631C577 -602 344 -584 151 -575V-356C151 -224 140 -83 42 29C59 39 84 62 96 77C205 -47 219 -206 219 -356V-525C321 -531 430 -538 534 -549V-427H297V-304C297 -204 284 -69 199 33C213 40 240 66 251 79C345 -30 365 -190 365 -302V-377H532V-325L378 -315L382 -272L532 -282C532 -224 548 -199 618 -199H813C847 -199 884 -200 900 -204C897 -219 896 -236 894 -253C876 -250 833 -248 808 -248H629C602 -248 597 -257 597 -282V-287L807 -301L803 -343L597 -329V-377H836C827 -355 818 -332 810 -315L864 -295C883 -325 904 -373 918 -415L871 -430L859 -427H606V-477H866V-522H606V-556C701 -567 789 -581 859 -597L819 -647C802 -644 783 -639 761 -635L796 -660C783 -678 760 -701 738 -720H953V-779Z"/>
</svg>