<svg xmlns="http://www.w3.org/2000/svg" viewBox="0 -1000 1000 1000">
	<path fill="#000000" d="M302 -705L265 -675C299 -646 341 -605 362 -578L410 -620C391 -644 353 -678 321 -705H501V-765H237C247 -785 256 -805 265 -825L199 -843C165 -762 108 -683 45 -630C62 -618 87 -593 98 -581C133 -614 169 -657 200 -705ZM224 -607C189 -508 117 -388 36 -314C48 -300 66 -272 74 -255C102 -282 129 -311 154 -345V76H221V-444C249 -491 273 -539 292 -586ZM305 -61H368V-491H305ZM526 -140C493 -90 440 -38 390 -1C406 8 434 27 447 38C495 -1 554 -63 591 -120ZM765 -107C811 -65 864 -5 889 34L945 -4C919 -42 867 -98 819 -139ZM712 -293H642V-222H423V-164H642V76H712V-164H946V-222H712ZM786 -499C756 -464 716 -434 670 -409C625 -433 588 -464 562 -499ZM956 -764H655C665 -785 673 -805 679 -827L612 -843C584 -758 535 -676 476 -623C492 -612 521 -591 532 -579C542 -589 551 -599 560 -610C528 -552 472 -487 390 -440C404 -431 426 -414 436 -401C468 -420 494 -442 519 -465C543 -432 574 -404 610 -380C547 -353 477 -333 406 -318C418 -305 437 -277 445 -261C524 -282 602 -307 672 -343C742 -307 825 -284 916 -270C925 -288 942 -314 956 -328C875 -337 799 -354 736 -378C787 -412 834 -452 866 -499H926V-555H595C608 -574 619 -592 628 -611L569 -620C589 -645 608 -674 625 -704H736L694 -673C727 -643 766 -601 785 -574L831 -613C813 -638 775 -676 742 -704H956Z"/>
</svg>