<svg xmlns="http://www.w3.org/2000/svg" viewBox="0 -1000 1000 1000">
	<path fill="#000000" d="M793 -502H455V-557H793ZM793 -401H455V-457H793ZM716 -712L690 -674C729 -654 779 -625 809 -604H389V-354H860V-604H817L841 -646C815 -665 765 -693 724 -712H948V-769H647C656 -788 664 -806 670 -825L606 -843C583 -773 543 -703 498 -656C514 -646 540 -626 552 -616C576 -641 598 -675 619 -712ZM282 -712L253 -680C289 -654 337 -619 362 -597L396 -641C373 -660 330 -689 296 -712H496V-769H235C246 -788 256 -806 265 -825L199 -843C166 -769 109 -695 47 -646C63 -635 88 -610 99 -597C133 -628 169 -668 199 -712ZM107 -569C165 -539 236 -493 269 -460L315 -515C279 -548 208 -590 149 -617ZM260 -347C222 -377 147 -416 89 -441L50 -388C108 -362 183 -318 219 -287ZM127 71C172 -4 224 -99 266 -182L213 -224C168 -134 108 -34 66 27ZM955 -256V-314H285V-256H438C393 -199 330 -146 267 -109C281 -99 306 -77 315 -66C350 -89 385 -118 419 -149H516C465 -78 388 -17 309 23C323 33 348 55 358 66C443 16 530 -61 588 -149H682C644 -72 584 -5 519 42C533 51 559 71 570 82C641 27 708 -55 751 -149H831C822 -47 811 -5 800 9C792 16 785 17 771 17C758 17 726 17 691 13C701 30 707 54 708 73C746 75 783 75 802 73C825 71 842 66 855 50C878 28 889 -30 901 -177C903 -186 904 -206 904 -206H472C487 -222 500 -239 513 -256Z"/>
</svg>