<svg xmlns="http://www.w3.org/2000/svg" viewBox="0 -1000 1000 1000">
	<path fill="#000000" d="M309 -719L261 -689C286 -658 316 -617 330 -591L383 -627C368 -651 338 -691 314 -719H494V-778H242C250 -794 258 -809 265 -825L200 -844C165 -766 109 -691 46 -640C62 -628 87 -603 99 -590C137 -624 174 -669 207 -719ZM777 -435V-386H530V-435ZM530 -293V-343H777V-293ZM218 -293V-343H457V-293ZM457 -435V-386H218V-435ZM457 -631V-580H85V-526H457V-481H145V-184H218V-250H457V-197H530V-250H777V-229C777 -218 774 -215 762 -214C751 -214 713 -214 670 -215C678 -202 688 -183 693 -168C753 -168 793 -167 817 -175C843 -183 850 -194 850 -227V-481H530V-526H920V-580H726L733 -585C710 -610 662 -642 622 -661L586 -635C615 -620 647 -600 670 -580H530V-631ZM233 -108H362V-9H233ZM563 -108V-9H432V-108ZM765 -108V-9H633V-108ZM839 -160H161V-9H51V49H952V-9H839ZM655 -777C663 -793 670 -809 677 -826L607 -844C585 -780 542 -720 493 -679C509 -668 537 -647 548 -635C574 -657 598 -686 620 -718H759L710 -688C736 -658 765 -619 779 -593L833 -630C819 -653 789 -691 764 -718H953V-777Z"/>
</svg>