<svg xmlns="http://www.w3.org/2000/svg" viewBox="0 -1000 1000 1000">
	<path fill="#000000" d="M141 -464V-518H251V-464ZM141 -617H251V-564H141ZM434 -617V-564H319V-617ZM434 -464H319V-518H434ZM251 -224H319V-304H501V-361H319V-416H496V-664H319V-716H505V-772H319V-838H251V-772H63V-716H251V-664H81V-416H251V-361H49V-304H251ZM532 -111H859V-171H532V-243H459V-171H142V-111H459V-12H50V49H951V-12H532ZM636 -599V-721C736 -728 847 -744 921 -768L885 -821C810 -796 678 -777 569 -769V-577C569 -485 561 -364 498 -274C513 -267 541 -246 551 -233C613 -317 632 -437 635 -535H766V-225H835V-535H952V-599Z"/>
</svg>