<svg xmlns="http://www.w3.org/2000/svg" viewBox="0 -1000 1000 1000">
	<path fill="#000000" d="M727 -720L683 -690C711 -663 745 -627 761 -603L813 -643C798 -664 765 -697 738 -720H953V-779H643C650 -795 658 -810 664 -826L596 -844C568 -769 517 -700 458 -654C474 -644 502 -622 513 -611C547 -639 580 -677 608 -720ZM295 -721L249 -690C277 -661 313 -622 329 -598L380 -637C363 -659 329 -695 302 -721H494V-780H242C250 -795 258 -810 265 -825L199 -844C165 -768 107 -694 45 -645C60 -633 86 -608 97 -596C134 -629 173 -673 205 -721ZM739 -329H867V-392H540V-329H666V-222H481V-157H666V75H739V-157H932V-222H739ZM375 -340H159V-401H375ZM375 -226H159V-290H375ZM687 -635C635 -545 539 -459 444 -408V-453H305V-508H476V-566H305V-626H233V-566H61V-508H233V-453H92V-174H233V-110H45V-51H233V75H305V-51H483V-110H305V-174H444V-400C459 -387 474 -369 484 -356C561 -401 637 -466 695 -540C762 -465 835 -410 919 -362C929 -381 949 -403 965 -417C876 -461 796 -513 730 -589C735 -597 740 -605 745 -612Z"/>
</svg>