<svg xmlns="http://www.w3.org/2000/svg" viewBox="0 -1000 1000 1000">
	<path fill="#000000" d="M492 -704V-762H225C235 -781 245 -800 253 -820L185 -840C153 -764 100 -688 41 -638C55 -625 80 -594 89 -581C124 -613 159 -656 190 -704ZM386 -604C378 -628 359 -667 338 -695L275 -679C293 -649 313 -609 320 -584ZM342 -298L244 -275V-413H345V-478H244V-603H174V-478H52V-413H174V-260C124 -248 78 -238 41 -231L52 -164L174 -193V-10C174 3 170 6 159 6C147 6 108 7 66 5C76 25 88 56 92 76C148 76 187 73 211 61C236 49 244 29 244 -10V-211C278 -219 314 -227 348 -236ZM612 -200V-130H463V-200ZM828 -130H677V-200H828ZM677 -5V-79H828V-5ZM463 -5V-79H612V-5ZM396 76H463V51H828V74H898V-255H396ZM953 -762H656C667 -781 676 -800 684 -820L612 -837C584 -761 531 -690 470 -643C488 -636 518 -618 534 -606C487 -590 429 -574 378 -561V-413C378 -373 360 -355 347 -346C357 -334 372 -307 377 -291C392 -302 416 -313 569 -360C574 -345 578 -331 581 -319L635 -345C625 -333 614 -323 600 -315C613 -305 634 -282 643 -271C719 -328 755 -413 765 -532H857C853 -412 848 -367 838 -354C833 -347 826 -345 814 -345C802 -345 775 -345 744 -349C753 -333 759 -308 760 -291C794 -288 828 -289 845 -290C868 -292 882 -298 895 -315C913 -335 919 -398 924 -560C925 -568 925 -587 925 -587H625V-532H704C698 -453 678 -390 636 -345C625 -389 593 -455 560 -503L509 -478C522 -458 535 -434 547 -411L442 -381V-524C504 -538 572 -558 621 -579L576 -625C565 -619 551 -613 535 -607C565 -634 594 -667 620 -704H953ZM831 -617C820 -641 794 -676 770 -700L706 -681C728 -655 752 -619 763 -596Z"/>
</svg>