<svg xmlns="http://www.w3.org/2000/svg" viewBox="0 -1000 1000 1000">
	<path fill="#000000" d="M282 -709C295 -691 308 -668 314 -651L380 -671C373 -687 358 -710 345 -727ZM104 -606H169V-595C169 -540 188 -518 280 -518H700C763 -518 824 -519 851 -524C849 -536 846 -549 843 -569C815 -564 735 -561 689 -561H285C238 -561 232 -568 232 -594V-606H905V-651H749L803 -669C796 -687 776 -710 759 -727L696 -707C711 -691 727 -668 736 -651H542C538 -659 533 -668 528 -676L534 -672C553 -688 571 -708 589 -730H944V-778H622C632 -794 640 -809 646 -825L578 -841C556 -790 517 -740 471 -706L473 -705L437 -697C446 -684 454 -667 463 -651H128C151 -674 174 -701 195 -730H484V-778H226C235 -794 243 -808 251 -824L184 -842C153 -776 102 -712 46 -668C63 -659 92 -640 104 -629ZM762 -398H240V-444H762ZM833 -487H172V-354H833ZM429 -126H542V-86H429ZM429 -204H542V-165H429ZM429 -280H542V-243H429ZM597 -46V-320H376V-46ZM174 -198C203 -184 236 -167 255 -153L276 -185V-108C235 -100 199 -93 167 -88C172 -122 174 -156 174 -185ZM276 -272V-194C256 -207 221 -224 192 -234L174 -209V-272ZM333 -320H117V-186C117 -116 109 -24 50 45C63 50 88 67 98 77C134 36 153 -16 163 -69L176 -40C210 -49 241 -58 276 -67V11C276 20 273 23 264 23H194C202 38 210 59 211 75C258 75 289 75 307 65C328 56 333 41 333 11ZM422 -42C404 -14 366 22 333 44C347 51 367 67 377 77C406 55 446 16 473 -17ZM505 -16C525 4 548 32 558 51L602 22C591 4 567 -23 548 -42ZM874 16C869 16 865 15 862 12C859 8 859 -5 859 -25V-320H627V-271H681V-190C666 -203 652 -215 637 -226L608 -192C631 -173 657 -151 680 -127C677 -68 663 -2 617 50C630 56 652 72 660 81C700 36 718 -24 726 -81C742 -64 756 -49 766 -36L797 -75C781 -95 759 -119 732 -145V-163V-271H803V-32C803 25 806 39 818 50C828 61 845 65 861 65H894C907 65 921 63 930 57C939 51 946 42 951 28C956 14 958 -27 959 -62C945 -67 928 -75 917 -84C917 -48 916 -20 914 -8C911 3 908 9 905 12C902 15 897 16 891 16Z"/>
</svg>