<svg xmlns="http://www.w3.org/2000/svg" viewBox="0 -1000 1000 1000">
	<path fill="#000000" d="M372 -770C357 -707 328 -613 303 -557L351 -539C378 -591 409 -679 436 -748ZM168 -560C158 -617 134 -703 112 -770L58 -757C79 -690 102 -602 111 -545ZM140 -375C122 -285 76 -175 33 -117C44 -98 60 -66 68 -44C121 -114 167 -251 189 -359ZM415 -433V-503H275V-835H206V-503H47V-433H206V77H275V-433ZM289 -346C309 -308 362 -188 379 -139L430 -195C416 -224 348 -348 329 -374ZM805 -541C787 -404 755 -293 700 -205C654 -237 606 -268 559 -297C586 -367 613 -454 639 -541ZM958 -541V-611H886C889 -636 891 -660 893 -685L820 -690C818 -663 816 -636 813 -611H658C678 -685 695 -758 707 -825L636 -832C624 -765 606 -687 586 -611H429V-541H566C536 -440 502 -343 472 -272C533 -237 597 -194 659 -149C600 -79 521 -27 413 11C427 27 448 60 456 77C569 31 653 -28 717 -105C787 -49 848 7 887 55L937 -3C896 -51 832 -107 758 -163C821 -261 857 -385 878 -541Z"/>
</svg>