<svg xmlns="http://www.w3.org/2000/svg" viewBox="0 -1000 1000 1000">
	<path fill="#000000" d="M318 -774C307 -710 280 -616 260 -560L304 -545C327 -598 354 -686 376 -757ZM153 -561C144 -619 123 -705 102 -772L54 -762C73 -694 93 -606 101 -549ZM124 -372C108 -283 69 -166 32 -106C44 -89 59 -61 66 -41C111 -113 151 -253 169 -358ZM249 -347C268 -311 311 -202 325 -156L374 -205C362 -233 303 -348 288 -373ZM889 -400H431V-235C431 -152 424 -42 360 41C375 48 405 70 416 84C487 -8 499 -139 499 -234V-342H819V-186C701 -157 578 -129 496 -113L519 -52C604 -72 713 -100 819 -127V-5C819 6 815 10 802 10C790 11 748 11 700 10C709 28 719 54 722 73C787 73 829 73 855 61C882 50 889 32 889 -5ZM521 -264C600 -247 703 -217 757 -194L782 -244C727 -266 625 -295 547 -308ZM687 -596H895V-653H687V-740H865C858 -715 851 -691 844 -673L901 -658C916 -691 933 -744 947 -790L901 -802L889 -799H381V-740H619V-523C576 -539 543 -567 519 -613C526 -643 532 -675 536 -709L468 -714C457 -603 424 -516 356 -459V-503H240V-836H179V-503H47V-433H179V76H240V-433H356V-442C371 -430 390 -414 399 -405C442 -442 474 -489 498 -546C555 -465 641 -445 767 -445H933C936 -462 945 -490 954 -505C921 -504 793 -504 770 -504C741 -504 712 -505 687 -508Z"/>
</svg>