<svg xmlns="http://www.w3.org/2000/svg" viewBox="0 -1000 1000 1000">
	<path fill="#000000" d="M905 -650C878 -693 821 -760 774 -807L723 -782C742 -762 762 -738 782 -716L537 -704C583 -735 631 -777 673 -821L599 -841C557 -789 495 -740 475 -728C457 -715 441 -706 426 -704C434 -686 445 -653 449 -639C471 -647 505 -650 820 -667C833 -650 844 -635 851 -621ZM299 -776C287 -708 261 -609 241 -551L286 -537C308 -593 337 -687 359 -761ZM152 -551C148 -611 129 -701 105 -772L54 -760C77 -689 96 -598 97 -539ZM99 -378C91 -291 66 -178 38 -118C50 -98 67 -64 74 -40C115 -113 140 -256 151 -363ZM341 -433V-503H232V-834H171V-503H47V-433H171V75H232V-433ZM241 -351C257 -314 295 -201 306 -154L357 -204C346 -233 295 -352 281 -377ZM879 -209C778 -107 561 -13 371 20C383 35 397 61 402 79C596 37 814 -63 926 -173ZM771 -290C691 -214 521 -140 380 -113C393 -98 406 -73 412 -58C556 -94 728 -174 816 -258ZM672 -372C612 -314 487 -258 381 -236C393 -222 406 -197 410 -181C521 -213 649 -278 716 -345ZM949 -468C939 -503 912 -560 888 -602L840 -590C848 -575 857 -557 865 -538L753 -528C776 -556 799 -590 818 -625L759 -648C744 -602 712 -555 703 -544C695 -532 686 -525 674 -523C678 -516 682 -506 685 -496L641 -506L635 -500C625 -531 604 -574 585 -605L538 -590C548 -574 557 -554 566 -534L449 -518C474 -546 501 -581 523 -618L467 -639C446 -589 407 -540 396 -528C385 -516 374 -508 363 -506C369 -491 378 -463 382 -451C396 -460 421 -466 583 -492C586 -484 588 -476 590 -469L610 -477C550 -427 455 -381 330 -349C343 -337 360 -311 367 -294C491 -331 587 -378 657 -435C731 -378 839 -328 936 -301C939 -318 950 -346 960 -361C870 -380 768 -420 700 -468C716 -474 751 -479 885 -494C891 -478 895 -465 898 -453Z"/>
</svg>