<svg xmlns="http://www.w3.org/2000/svg" viewBox="0 -1000 1000 1000">
	<path fill="#000000" d="M331 -774C319 -710 293 -617 272 -560L319 -544C343 -598 371 -685 393 -756ZM163 -562C154 -620 134 -706 112 -774L58 -761C77 -694 98 -605 105 -549ZM121 -372C107 -284 71 -166 36 -106C47 -87 63 -56 70 -36C114 -109 151 -250 169 -357ZM669 -468H787C759 -442 728 -416 695 -393H669ZM839 -142H567V-219H839ZM567 -20V-93H839V-20ZM567 -648H479V-747H567ZM624 -747H716V-648H624ZM773 -747H865V-648H773ZM951 -334V-393H797C850 -439 898 -489 938 -545L876 -570C853 -539 828 -508 800 -480V-525H669V-593H923V-802H422V-593H602V-525H446V-468H602V-393H392V-334H603C527 -291 445 -255 361 -227C338 -276 303 -353 291 -373L253 -348V-433H369V-503H253V-836H187V-503H51V-433H187V76H253V-345C272 -303 312 -193 326 -144L376 -193C373 -199 368 -211 361 -226C375 -211 394 -184 402 -169C435 -182 469 -195 502 -210V76H567V35H839V74H906V-273H626C659 -292 690 -312 722 -334Z"/>
</svg>