<svg xmlns="http://www.w3.org/2000/svg" viewBox="0 -1000 1000 1000">
	<path fill="#000000" d="M863 -513C863 -504 861 -501 849 -500C839 -499 805 -499 764 -501C771 -486 776 -469 778 -454C833 -454 874 -454 895 -462C918 -471 924 -482 924 -513V-796H674V-740H863ZM821 -660C800 -678 756 -707 722 -724L689 -693C724 -673 768 -644 790 -624ZM837 -627C773 -599 711 -572 666 -556L696 -508C744 -530 796 -558 847 -584ZM109 -799V-744H189C155 -673 95 -615 28 -577C39 -565 58 -538 65 -526C129 -566 186 -623 228 -691C257 -624 303 -567 354 -530C365 -543 386 -564 401 -574C332 -616 274 -701 250 -799ZM417 -505C463 -530 513 -557 562 -584L550 -626C488 -597 429 -569 386 -552ZM404 -693C439 -673 483 -642 505 -622L540 -657C518 -677 474 -707 438 -725ZM313 -349C336 -387 364 -443 388 -493L334 -513C321 -470 292 -406 272 -366ZM69 -493C93 -448 116 -388 124 -349L174 -368C166 -406 141 -465 116 -508ZM139 -227C118 -162 75 -86 34 -48C46 -36 63 -12 72 4C117 -45 163 -130 185 -202ZM257 -193C280 -163 330 -77 347 -41L393 -90C379 -112 315 -200 296 -221ZM517 -79H692V-15H517ZM692 -247H517V-310H692ZM692 -130H517V-196H692ZM956 -15H758V-79H913V-130H758V-196H913V-247H758V-310H935V-364H769C760 -391 742 -429 725 -457L661 -440C673 -418 685 -388 694 -364H528C542 -389 555 -415 565 -440L508 -459C556 -459 592 -460 612 -468C635 -476 641 -488 641 -518V-797H389V-741H580V-519C580 -509 577 -506 565 -505C555 -504 522 -504 480 -506C486 -491 493 -474 495 -459H505C478 -393 434 -325 388 -271V-331H256V-562H193V-331H49V-269H193V73H256V-269H386C374 -253 360 -240 347 -227C359 -211 377 -176 383 -162C407 -186 430 -213 453 -245V77H517V39H956Z"/>
</svg>