<svg xmlns="http://www.w3.org/2000/svg" viewBox="0 -1000 1000 1000">
	<path fill="#000000" d="M872 -518C872 -508 870 -505 859 -505C848 -504 814 -504 773 -505C780 -490 785 -472 788 -457C842 -457 881 -457 902 -465C924 -474 930 -487 930 -517V-797H701V-742H872ZM734 -505C774 -530 816 -557 858 -584L845 -626C790 -596 740 -568 701 -551ZM713 -694C745 -672 784 -641 805 -621L839 -657C817 -676 777 -705 747 -725ZM620 -518C620 -509 618 -506 606 -505C596 -504 561 -504 521 -506C527 -492 533 -476 535 -462C590 -461 629 -462 650 -469C672 -477 678 -489 678 -518V-797H448V-743H620ZM481 -506C521 -531 563 -557 605 -585L592 -627C537 -597 486 -569 449 -552ZM460 -694C492 -673 531 -642 552 -622L585 -658C564 -676 524 -706 493 -726ZM428 -604H372V-504H279V-640H412V-793H358V-694H279V-837H219V-694H141V-793H88V-640H219V-504H130V-604H76V-445H428ZM355 -274C378 -301 404 -342 428 -381L372 -404C357 -372 329 -324 307 -295ZM189 -297C177 -326 151 -369 125 -403L76 -382C101 -348 126 -303 137 -273ZM139 -170C118 -118 77 -55 43 -21C56 -8 74 17 83 34C121 -12 163 -85 187 -142ZM301 -134C320 -105 365 -22 382 13L426 -36C413 -58 356 -143 341 -164ZM570 -89H711V-29H570ZM711 -252H570V-310H711ZM711 -140H570V-200H711ZM955 -29H775V-89H922V-140H775V-200H922V-252H775V-310H940V-364H781C769 -391 749 -423 730 -447L675 -429C688 -410 702 -386 714 -364H585C597 -391 609 -418 619 -445L556 -462C524 -374 475 -286 421 -221V-261H282V-426H217V-261H56V-200H217V78H282V-200H403L396 -192C411 -181 435 -158 445 -146C466 -170 486 -196 506 -227V78H570V26H955Z"/>
</svg>