<svg xmlns="http://www.w3.org/2000/svg" viewBox="0 -1000 1000 1000">
	<path fill="#000000" d="M296 -123C244 -74 160 -25 85 7C102 18 129 42 142 55C215 19 305 -40 363 -97ZM611 -102C686 -62 783 1 835 41L897 2C845 -36 748 -96 672 -136ZM648 -285C672 -267 699 -246 723 -225L351 -200C471 -248 592 -307 709 -379L656 -429C622 -407 584 -384 547 -363L342 -348C394 -378 446 -414 495 -455L441 -492C378 -433 292 -377 265 -363C241 -349 220 -340 203 -337C209 -321 218 -288 221 -275C239 -281 264 -287 433 -302C356 -264 291 -235 259 -224C206 -202 166 -189 135 -185C143 -167 153 -131 156 -117C182 -127 218 -131 478 -150V-16C478 -6 474 -3 459 -2C445 -1 398 -1 342 -3C352 17 363 44 367 64C437 64 482 64 512 53C542 42 549 23 549 -16V-156L781 -173C810 -146 833 -121 850 -100L914 -131C869 -185 780 -261 708 -313ZM938 -506V-566H433C450 -589 465 -612 478 -636H864V-695H724C747 -722 770 -755 792 -785L723 -808C706 -775 675 -728 649 -695H509C529 -740 544 -786 555 -832L482 -842C472 -793 455 -743 432 -695H322L342 -704C331 -733 304 -778 279 -811L221 -786C240 -759 260 -723 273 -695H132V-636H399C383 -612 365 -589 346 -566H65V-506H287C219 -447 134 -395 28 -357C44 -344 62 -319 70 -301C204 -352 307 -423 383 -506H608C683 -409 803 -330 928 -292C939 -310 960 -336 974 -350C865 -377 760 -434 690 -506Z"/>
</svg>