<svg xmlns="http://www.w3.org/2000/svg" viewBox="0 -1000 1000 1000">
	<path fill="#000000" d="M945 -735C922 -763 874 -807 833 -835L789 -800C830 -769 877 -724 900 -695ZM96 -198C85 -117 68 -29 41 33C56 38 83 48 95 54C119 -8 139 -102 153 -187ZM182 -188C193 -119 204 -28 205 32L261 19C259 -40 247 -130 235 -200ZM271 -205C291 -144 316 -64 326 -11L379 -30C368 -80 343 -160 321 -222ZM260 -440C271 -412 282 -381 292 -351L149 -327C223 -418 296 -537 355 -653L293 -686C275 -641 251 -595 227 -551L131 -543C182 -619 233 -717 273 -812L206 -841C171 -733 108 -617 88 -588C69 -557 53 -537 37 -533C44 -514 55 -480 59 -465C72 -472 92 -477 190 -490C157 -434 127 -390 112 -372C83 -335 64 -310 44 -306C52 -287 63 -254 66 -239C82 -250 111 -258 309 -296C315 -276 320 -257 323 -241L379 -262C368 -311 340 -394 312 -456ZM666 -202C561 -173 456 -143 385 -127L408 -61C485 -84 581 -114 673 -143ZM591 -308H478V-469H591ZM423 -526V-250H649V-526ZM878 -522C856 -433 828 -351 790 -278C778 -375 769 -491 765 -620H955V-686H763C762 -735 762 -785 762 -836H694C695 -785 695 -735 697 -686H388V-620H699C705 -456 717 -307 737 -189C675 -99 598 -25 501 29C517 41 543 65 554 78C631 29 698 -31 755 -103C783 10 822 79 877 79C936 79 956 35 966 -101C950 -108 928 -122 914 -137C910 -34 901 11 886 11C855 11 828 -59 806 -175C866 -270 912 -381 945 -510Z"/>
</svg>