<svg xmlns="http://www.w3.org/2000/svg" viewBox="0 -1000 1000 1000">
	<path fill="#000000" d="M928 -467C910 -515 865 -596 824 -660C838 -709 849 -760 857 -813L803 -823C784 -684 745 -561 680 -485C690 -470 705 -437 711 -422C749 -468 779 -526 803 -594C836 -536 866 -472 882 -429ZM366 -260C356 -308 329 -390 303 -451L252 -437C263 -409 274 -378 284 -347L149 -325C226 -418 300 -537 362 -654L301 -687C281 -642 257 -595 232 -553L129 -542C177 -618 226 -716 263 -811L199 -839C166 -731 105 -615 87 -586C69 -555 53 -535 38 -531C45 -513 55 -480 59 -465C72 -472 93 -477 194 -490C160 -434 129 -390 114 -372C86 -335 64 -309 44 -305C52 -287 63 -253 66 -239C83 -249 111 -257 299 -293C304 -274 308 -256 311 -241ZM97 -197C86 -117 68 -29 42 33C57 38 85 48 97 55C120 -7 141 -101 154 -186ZM190 -187C202 -119 213 -29 215 31L272 17C269 -42 257 -131 244 -200ZM286 -206C307 -144 332 -64 342 -11L396 -31C386 -83 360 -162 338 -223ZM824 -207V-37H533V-207ZM466 75H533V30H824V72H894V-274H466ZM635 -682C618 -618 594 -560 563 -509C539 -548 518 -598 502 -660C506 -667 509 -674 513 -682ZM669 -743L657 -740H537C548 -766 556 -794 563 -822L501 -835C474 -726 423 -625 355 -559C370 -550 394 -528 406 -517C427 -540 447 -566 466 -595C484 -539 504 -494 528 -456C481 -394 425 -344 365 -314C379 -302 396 -279 405 -262C465 -296 521 -343 568 -405C642 -327 736 -307 839 -307H942C944 -326 954 -356 964 -373C935 -372 864 -372 844 -372C757 -372 672 -388 604 -456C651 -531 687 -621 709 -727Z"/>
</svg>