<svg xmlns="http://www.w3.org/2000/svg" viewBox="0 -1000 1000 1000">
	<path fill="#000000" d="M88 -198C78 -115 63 -25 39 37C55 42 84 51 96 58C118 -4 137 -99 147 -188ZM188 -190C199 -121 209 -30 211 30L270 20C267 -41 255 -130 243 -200ZM285 -209C306 -149 330 -68 338 -17L393 -35C383 -86 359 -163 336 -224ZM290 -445C299 -416 309 -382 318 -349L160 -327C242 -419 323 -533 388 -648L325 -686C304 -642 277 -597 251 -555L141 -545C198 -621 253 -717 297 -811L228 -840C187 -732 116 -618 95 -588C74 -558 57 -537 40 -533C48 -515 60 -480 64 -466C77 -472 100 -477 208 -489C169 -435 136 -393 120 -376C90 -340 67 -316 46 -311C55 -291 65 -256 69 -241C89 -251 119 -259 333 -290C338 -268 342 -247 344 -230L407 -250C399 -303 374 -392 350 -460ZM515 -404V-509H644C642 -480 634 -443 618 -404ZM515 -672H645V-567H515ZM839 -567H710V-672H839ZM839 -404H684C700 -445 707 -482 709 -509H839ZM946 -190H793V-317H721V-190H518C583 -234 627 -288 657 -342H909V-734H659C671 -760 686 -792 700 -823L621 -836C614 -807 598 -766 584 -734H447V-342H582C554 -302 514 -263 456 -229C469 -219 487 -204 499 -190H412V-122H721V77H793V-122H946Z"/>
</svg>