<svg xmlns="http://www.w3.org/2000/svg" viewBox="0 -1000 1000 1000">
	<path fill="#000000" d="M836 -664V-518H674V-664ZM859 -313V-149H674V-313ZM633 -88L925 -87V-375H674V-455H902V-727H773C785 -756 798 -792 811 -825L735 -840C729 -808 717 -762 705 -727H608V-88H633ZM527 -671C515 -713 491 -779 474 -831L415 -814C432 -762 455 -693 466 -649ZM371 -256C365 -305 342 -390 320 -453L268 -441C277 -414 287 -382 294 -351L153 -328C225 -421 295 -539 351 -654L290 -685C271 -640 249 -593 226 -551L135 -543C182 -619 228 -717 262 -810L196 -836C165 -730 107 -614 89 -585C72 -554 57 -534 42 -530C49 -512 60 -480 64 -465C76 -472 97 -477 192 -488C158 -433 130 -390 116 -372C89 -334 68 -308 49 -304C56 -287 67 -254 71 -241C88 -251 116 -258 307 -295C311 -275 315 -256 317 -241ZM88 -198C78 -118 63 -29 40 33C54 36 82 45 94 52C115 -9 133 -103 144 -188ZM184 -188C195 -125 206 -42 209 13L265 -1C261 -55 249 -136 237 -199ZM279 -207C297 -158 316 -95 324 -54L378 -71C369 -112 348 -175 329 -223ZM541 -375L531 -372H481C505 -441 534 -526 555 -598H371V-530H470C446 -451 418 -367 394 -307H500C485 -231 458 -149 428 -91C401 -70 373 -33 342 12L393 76C418 15 449 -46 469 -46C489 -46 519 -17 553 9C607 47 667 64 750 64C806 64 900 61 944 58C945 38 955 3 962 -16C900 -9 810 -4 751 -4C674 -4 618 -17 568 -51C536 -71 516 -92 495 -103C531 -176 559 -273 576 -361Z"/>
</svg>