<svg xmlns="http://www.w3.org/2000/svg" viewBox="0 -1000 1000 1000">
	<path fill="#000000" d="M771 -620H838V-690H954V-752H838V-835H771V-752H693V-690H771ZM516 -617H583V-689H657V-752H583V-832H516V-752H398V-689H516ZM405 -264C391 -313 361 -397 335 -461L279 -443C290 -414 301 -381 312 -348L158 -326C240 -420 321 -537 386 -655L325 -692C301 -645 274 -598 246 -554L140 -544C194 -619 248 -716 292 -809L222 -837C183 -730 114 -617 92 -588C73 -558 55 -538 39 -533C46 -515 58 -480 62 -466C76 -472 98 -476 204 -489C168 -435 136 -393 120 -375C90 -339 66 -314 45 -309C53 -290 65 -256 69 -241C88 -252 118 -259 331 -292C336 -274 341 -256 345 -241ZM84 -198C73 -120 56 -29 37 32C53 36 83 44 96 51C113 -9 134 -104 145 -185ZM190 -191C202 -124 213 -36 215 22L275 8C272 -50 260 -136 247 -203ZM412 -43C401 -93 376 -170 354 -228L300 -211C322 -152 345 -75 355 -25ZM504 -412H815V-341H504ZM504 -535H815V-464H504ZM943 -149V-214H684C688 -237 692 -262 694 -287H885V-589H436V-287H621C619 -261 616 -236 611 -214H395V-149H594C561 -67 494 -13 348 21C362 33 380 61 386 77C558 34 633 -37 668 -149ZM670 -91C753 -41 861 30 916 74L960 20C904 -23 794 -91 714 -138Z"/>
</svg>