<svg xmlns="http://www.w3.org/2000/svg" viewBox="0 -1000 1000 1000">
	<path fill="#000000" d="M536 -506V-439H953V-506H811V-637H940V-701H811V-836H747V-506H667V-761H608V-506ZM374 -261C365 -309 337 -391 311 -453L262 -440C273 -413 285 -380 294 -350L152 -325C227 -415 300 -528 361 -641C373 -630 390 -615 400 -604C459 -657 521 -736 563 -806L500 -828C469 -771 410 -698 358 -650L302 -679C283 -636 259 -592 236 -552L132 -542C184 -617 233 -715 271 -809L208 -835C173 -727 109 -613 89 -583C71 -553 54 -532 39 -528C46 -511 57 -479 60 -466C74 -473 95 -477 198 -490C162 -433 130 -388 115 -369C86 -333 65 -308 45 -304C52 -286 63 -253 67 -239C85 -250 113 -258 310 -295C315 -276 319 -259 322 -244ZM98 -198C86 -118 68 -29 42 32C57 36 85 45 96 52C120 -9 141 -103 154 -188ZM190 -188C201 -121 213 -33 215 25L270 12C267 -46 254 -132 242 -199ZM285 -205C307 -144 331 -64 341 -11L393 -28C382 -80 357 -160 333 -220ZM509 -652C468 -560 404 -467 338 -404C351 -390 369 -357 376 -343C394 -361 410 -380 428 -402V75H492V-490C521 -535 547 -583 568 -630ZM855 -17C834 -17 815 -19 796 -23V-216H936V-281H796V-420H733V-52C696 -82 666 -134 646 -224C651 -267 655 -313 657 -362L594 -366C588 -204 571 -66 506 23C521 32 547 53 557 63C589 16 611 -40 626 -106C676 17 751 48 850 48H950C953 30 962 -1 970 -17Z"/>
</svg>