<svg xmlns="http://www.w3.org/2000/svg" viewBox="0 -1000 1000 1000">
	<path fill="#000000" d="M388 -247C381 -300 355 -389 331 -457L277 -443C286 -413 297 -379 306 -346L157 -325C237 -418 313 -534 377 -650L315 -685C294 -640 269 -595 243 -553L138 -543C193 -620 246 -716 288 -810L224 -837C183 -730 115 -615 93 -585C73 -555 56 -534 40 -530C48 -512 59 -480 62 -465C76 -472 98 -476 202 -488C166 -434 134 -391 118 -374C89 -337 66 -313 46 -308C54 -289 65 -256 68 -241C86 -251 117 -258 319 -288C324 -266 328 -246 330 -229ZM87 -198C77 -111 62 -15 37 50C54 55 83 64 97 71C118 6 138 -94 149 -187ZM187 -192C199 -118 210 -22 211 42L271 31C268 -33 256 -127 243 -202ZM283 -210C304 -148 328 -67 338 -15L393 -33C382 -85 356 -164 334 -226ZM815 -249V-162H522V-249ZM522 -26V-109H815V-26ZM454 73H522V32H815V69H886V-308H454ZM502 -600C528 -554 553 -492 564 -454L611 -473C600 -509 573 -569 547 -614ZM771 -454C794 -491 820 -546 843 -595L793 -612C778 -570 750 -508 729 -470ZM855 -420H696V-648H855ZM479 -648H642V-420H479ZM803 -706C826 -738 851 -778 875 -814L802 -839C785 -800 755 -745 730 -706H568L618 -727C606 -757 579 -803 552 -837L491 -816C514 -782 540 -737 551 -706H414V-362H923V-706Z"/>
</svg>