<svg xmlns="http://www.w3.org/2000/svg" viewBox="0 -1000 1000 1000">
	<path fill="#000000" d="M83 -197C74 -111 58 -15 33 49C49 54 77 63 90 70C112 5 130 -96 142 -187ZM174 -191C186 -118 196 -23 198 41L253 31C251 -33 239 -127 226 -200ZM260 -210C280 -148 304 -66 314 -13L365 -30C355 -82 331 -162 309 -224ZM256 -442C266 -411 276 -375 285 -341L151 -323C226 -417 301 -536 360 -654L297 -689C277 -642 253 -593 228 -550L133 -541C184 -619 233 -718 271 -813L205 -840C171 -732 109 -615 90 -585C72 -555 56 -533 40 -529C48 -512 59 -480 63 -465C75 -472 96 -476 191 -487C159 -434 129 -392 115 -374C87 -337 66 -311 46 -307C54 -289 66 -255 69 -240C85 -250 114 -257 298 -284C302 -262 306 -242 308 -226L365 -242C358 -295 333 -386 309 -454ZM734 -162V-74H591V-162ZM791 -26V-211H536V18H591V-26ZM929 -323H397V76H466V-265H861V-4C861 8 857 11 844 12C831 12 788 13 739 11C749 28 760 54 763 73C827 73 869 73 895 61C922 51 929 33 929 -3ZM757 -418H563V-504H757ZM717 -612C729 -592 742 -573 758 -553H563C578 -573 590 -592 602 -612ZM944 -612V-672H632C640 -695 648 -716 655 -739C749 -746 839 -758 906 -773L852 -824C749 -801 555 -787 396 -783C404 -768 413 -744 414 -728C467 -729 524 -731 581 -734C575 -713 567 -693 557 -672H377V-612H523C482 -552 426 -495 346 -451C361 -441 382 -418 392 -402C433 -427 470 -454 501 -483V-368H821V-485C854 -454 891 -428 927 -409C938 -426 958 -450 974 -463C905 -493 835 -550 788 -612Z"/>
</svg>