<svg xmlns="http://www.w3.org/2000/svg" viewBox="0 -1000 1000 1000">
	<path fill="#000000" d="M614 -431C614 -375 629 -361 689 -361H773C818 -361 834 -381 840 -460C823 -464 801 -472 790 -480C787 -417 783 -411 765 -411H696C675 -411 672 -413 672 -431V-540H614ZM796 -526C773 -552 727 -583 687 -601L651 -567C692 -547 737 -514 759 -489ZM957 -392C942 -436 906 -496 866 -541L817 -519C855 -474 890 -411 904 -368ZM904 -623C873 -672 805 -739 745 -784L694 -754C754 -707 820 -637 849 -589ZM600 -741C570 -775 507 -817 454 -841L411 -805C464 -778 524 -736 554 -702ZM609 -590C680 -590 701 -613 708 -708C690 -712 664 -721 650 -730C645 -655 639 -645 601 -645H431C381 -645 373 -649 373 -671V-793H306V-671C306 -606 331 -590 425 -590ZM186 -435C186 -381 199 -368 257 -368H329C373 -368 389 -388 394 -468C377 -472 356 -480 345 -489C342 -423 339 -416 321 -416H264C246 -416 243 -418 243 -436V-542H186ZM346 -538C323 -564 276 -594 236 -613L202 -579C243 -559 289 -526 312 -501ZM485 -449C472 -481 444 -527 414 -561L368 -540C396 -506 424 -458 435 -427ZM545 -538C532 -492 509 -434 479 -400L525 -373C558 -410 578 -471 592 -520ZM209 -773C183 -721 140 -655 89 -617L144 -581C195 -624 235 -693 264 -748ZM112 -546C98 -500 70 -440 41 -404L89 -378C119 -417 144 -479 160 -526ZM299 -95C238 -55 139 -18 52 7C67 18 92 41 104 54C188 26 292 -21 361 -69ZM619 -61C707 -32 814 16 868 52L918 10C860 -27 751 -73 666 -98ZM658 -239C681 -223 707 -206 732 -188L355 -166C470 -204 586 -251 704 -311L654 -353C618 -334 582 -316 546 -299L327 -285C381 -311 436 -343 488 -379L435 -410C367 -356 273 -309 246 -297C219 -285 198 -278 179 -276C185 -261 194 -231 197 -219C214 -225 240 -229 415 -243C338 -212 274 -191 243 -181C189 -164 147 -154 115 -152C121 -134 129 -104 132 -90C158 -100 193 -105 468 -122V-11C468 1 464 4 448 5C433 6 381 6 322 4C333 22 346 46 351 66C423 66 472 66 502 55C533 44 542 27 542 -11V-126L790 -142C824 -114 854 -87 873 -65L922 -101C876 -152 782 -223 705 -271Z"/>
</svg>