<svg xmlns="http://www.w3.org/2000/svg" viewBox="0 -1000 1000 1000">
	<path fill="#000000" d="M436 -623H630V-408H689V-623H887V-532H947V-676H689V-735H922V-791H397V-735H630V-676H377V-532H436ZM912 -454C870 -471 790 -496 731 -510L711 -471C772 -455 852 -428 895 -410ZM844 -606C811 -591 750 -565 711 -553L735 -521C777 -531 834 -548 875 -569ZM449 -561C495 -550 554 -530 586 -514L607 -556C575 -572 517 -590 472 -598ZM428 -400C482 -420 541 -441 604 -463L598 -503C526 -483 456 -462 405 -451ZM365 -243C357 -295 334 -386 309 -454L260 -444C271 -412 281 -377 289 -342L153 -325C229 -418 302 -537 362 -651L302 -686C283 -641 258 -593 233 -551L134 -543C185 -619 234 -717 275 -811L211 -837C175 -728 111 -612 91 -583C72 -552 57 -531 41 -528C48 -510 59 -479 62 -465C76 -472 97 -476 196 -488C162 -433 131 -390 116 -372C88 -335 66 -309 47 -304C55 -288 65 -255 68 -241C86 -251 115 -257 303 -286C307 -264 311 -245 313 -228ZM87 -198C77 -111 62 -17 37 48C54 51 81 60 94 67C116 2 134 -97 145 -188ZM181 -192C192 -116 202 -19 203 46L255 36C253 -28 242 -124 230 -200ZM269 -210C289 -146 312 -60 321 -4L371 -19C361 -74 338 -157 315 -222ZM954 -312V-371H372V-312H590C584 -288 576 -260 568 -238H398V79H460V-182H560V71H617V-182H709V71H766V-182H865V12C865 20 863 22 855 22C848 23 825 23 801 22C808 39 816 61 818 78C860 78 889 77 907 68C927 58 932 42 932 13V-238H636C644 -260 654 -286 664 -312Z"/>
</svg>