<svg xmlns="http://www.w3.org/2000/svg" viewBox="0 -1000 1000 1000">
	<path fill="#000000" d="M905 -806C890 -773 860 -723 838 -694L880 -672C903 -701 931 -742 954 -782ZM512 -644V-581H951V-644H830V-836H775V-644H707V-836H653V-644ZM649 -694C634 -721 603 -766 576 -798L535 -776C562 -743 592 -698 607 -669ZM347 -251C339 -298 319 -379 297 -440L251 -431C260 -403 269 -372 275 -341L142 -322C215 -418 287 -540 344 -660L284 -688C266 -642 243 -594 219 -550L121 -541C172 -617 222 -716 260 -809L197 -834C166 -727 105 -612 86 -582C68 -552 53 -531 38 -527C46 -510 56 -478 59 -465C71 -472 92 -476 185 -488C153 -432 123 -387 110 -370C83 -332 63 -306 44 -302C51 -286 62 -255 65 -241C81 -250 109 -258 288 -286C292 -267 296 -251 298 -236ZM82 -198C72 -118 59 -29 35 32C49 36 74 44 85 50C107 -11 124 -104 135 -189ZM166 -189C178 -121 189 -34 191 24L244 12C241 -45 229 -132 217 -199ZM255 -204C277 -143 302 -63 312 -10L362 -26C351 -78 325 -158 302 -219ZM457 -836C430 -684 381 -539 312 -443C323 -429 342 -396 348 -382C368 -408 386 -438 403 -471V74H465V-620C487 -684 505 -754 519 -823ZM957 -144V-205H761C765 -229 766 -253 766 -277H924V-333H766V-405H951V-465H825C841 -492 859 -525 875 -555L815 -574C803 -543 781 -498 761 -465H690L694 -467C683 -495 657 -540 632 -573L583 -553C602 -527 623 -492 634 -465H530V-405H702V-333H550V-277H702C702 -254 700 -229 696 -205H506V-144H679C655 -81 605 -22 502 26C517 36 537 60 546 75C670 14 726 -63 749 -144ZM752 -83C812 -35 885 33 919 77L965 35C930 -7 855 -73 795 -119Z"/>
</svg>