<svg xmlns="http://www.w3.org/2000/svg" viewBox="0 -1000 1000 1000">
	<path fill="#000000" d="M518 -490H794V-446H518ZM794 -656V-615H518V-656ZM794 -531H518V-574H794ZM437 -395H600L575 -371C620 -354 674 -324 702 -303L737 -340C712 -357 670 -379 632 -395H880V-315H943V-446H860V-698H670C677 -714 683 -730 690 -747H938V-803H379V-747H615C610 -730 605 -714 599 -698H455V-446H377V-314H437ZM776 -331C823 -295 874 -243 895 -205L942 -238C920 -276 868 -327 821 -361ZM426 -204C466 -236 496 -288 515 -332L465 -353C447 -312 415 -263 378 -236ZM362 -251C356 -301 333 -387 310 -453L258 -440C267 -412 276 -379 284 -348L150 -325C224 -419 296 -537 354 -653L291 -684C273 -639 249 -593 226 -550L133 -541C181 -618 228 -716 265 -811L199 -837C167 -729 108 -614 89 -585C72 -555 56 -533 40 -530C48 -513 59 -479 63 -466C76 -472 96 -477 190 -489C158 -434 128 -391 115 -374C87 -335 67 -310 47 -305C55 -288 66 -255 70 -241C85 -251 114 -258 296 -294C301 -271 305 -251 307 -235ZM89 -198C80 -117 66 -29 42 33C57 36 83 45 95 52C117 -10 134 -103 145 -189ZM174 -188C186 -121 197 -33 199 25L254 12C251 -46 239 -132 226 -199ZM262 -204C283 -143 309 -63 318 -10L370 -27C360 -78 334 -159 311 -219ZM762 -138C736 -109 700 -81 653 -59C616 -75 581 -95 552 -116C560 -123 566 -131 573 -138ZM813 -189L800 -186H614C621 -198 629 -209 637 -222H731C779 -222 796 -238 801 -296C785 -300 762 -306 750 -314C747 -274 743 -269 723 -269H625C598 -269 593 -271 593 -290V-355H531V-290C531 -250 540 -233 569 -226C554 -203 534 -178 508 -155C496 -166 486 -179 476 -192L420 -173C433 -155 449 -136 465 -119C442 -103 416 -87 388 -73C402 -64 421 -45 431 -30C460 -46 485 -63 508 -80C532 -62 558 -45 585 -29C523 -7 450 11 363 23C377 37 393 59 401 76C502 59 586 35 656 5C734 38 824 61 919 75C925 57 942 33 957 19C874 10 795 -7 724 -30C786 -67 830 -113 858 -167Z"/>
</svg>