<svg xmlns="http://www.w3.org/2000/svg" viewBox="0 -1000 1000 1000">
	<path fill="#000000" d="M200 -173C224 -193 245 -214 263 -236H461V-173ZM692 -558H554V-603H692ZM692 -470H554V-518H692ZM692 -380H554V-430H692ZM534 -119H944V-173H534V-236H827V-289H302C314 -308 324 -326 334 -345L275 -353C348 -391 405 -445 428 -522C435 -517 441 -513 445 -509C460 -520 474 -533 489 -546V-306H554V-333H931V-380H757V-430H890V-470H757V-518H890V-558H757V-603H911V-649H758C750 -671 736 -696 724 -717L664 -704C673 -687 682 -668 689 -649H577C589 -668 600 -687 610 -707L555 -721H940V-778H551C539 -800 522 -826 508 -847L442 -832C452 -816 464 -797 473 -778H62V-721H546C512 -652 454 -589 391 -546C400 -541 411 -534 422 -527L364 -533C360 -518 354 -504 347 -492L216 -480C277 -521 338 -572 393 -626L334 -651C321 -637 307 -623 294 -609L187 -603C222 -630 258 -663 289 -698L224 -718C192 -671 139 -623 124 -611C108 -600 94 -592 81 -591C89 -579 98 -555 102 -545V-543C116 -548 138 -552 240 -560C201 -527 166 -501 150 -492C125 -474 102 -462 83 -460C90 -448 101 -424 104 -413C121 -420 149 -425 310 -443C254 -389 164 -357 61 -338C74 -327 94 -306 102 -293C159 -307 212 -323 259 -346C235 -301 195 -249 138 -208C154 -202 174 -187 188 -173H59V-119H461V-15H233V-94H163V39H768V77H840V-96H768V-15H534Z"/>
</svg>