<svg xmlns="http://www.w3.org/2000/svg" viewBox="0 -1000 1000 1000">
	<path fill="#000000" d="M816 -669H647V-745H816ZM578 -669H413V-745H578ZM344 -669H184V-745H344ZM888 -799H115V-616H888ZM142 -202V-277H235V-202ZM398 -277V-202H299V-277ZM203 -478H336V-423H203ZM299 -152H459V-328H299V-373H400V-478H483V-531H400V-593H336V-531H203V-593H141V-531H57V-478H141V-373H235V-328H84V-152H235V-96H43V-40H235V76H299V-40H492V-96H299ZM701 -172V-87H583V-172ZM757 -38V-221H527V-2H583V-38ZM535 -327C620 -348 672 -378 704 -422C762 -394 825 -356 862 -327ZM954 -327H877L910 -368C870 -399 794 -442 730 -471L732 -476H926V-532H746C749 -551 751 -572 753 -594H689C688 -571 686 -551 682 -532H517V-476H665C640 -425 591 -395 497 -375C510 -363 524 -340 531 -327H483V-269H816V4C816 16 812 19 798 19C783 20 735 20 681 19C690 36 698 59 702 76C774 76 819 75 847 67C874 58 882 40 882 5V-269H954Z"/>
</svg>