<svg xmlns="http://www.w3.org/2000/svg" viewBox="0 -1000 1000 1000">
	<path fill="#000000" d="M192 -673C182 -714 158 -779 136 -828L74 -808C95 -758 118 -692 127 -649ZM398 -195L397 -261H264C266 -287 267 -313 267 -337V-389H381V-455H267V-576H386V-582C399 -570 418 -550 427 -538C457 -556 486 -576 514 -596V-552H812V-612H535C582 -650 626 -692 662 -738C732 -666 839 -591 929 -546C936 -565 951 -595 963 -611C873 -649 761 -721 700 -787C707 -799 714 -811 721 -823L652 -845C599 -753 499 -656 386 -590V-643H323C347 -693 375 -758 398 -814L326 -835C310 -778 281 -697 255 -643H51V-576H195V-455H62V-389H195V-337C195 -313 195 -287 192 -261H38V-195H184C168 -112 129 -30 37 22C53 35 75 61 85 76C193 9 238 -93 256 -195ZM748 -416H852V-295H748ZM692 -238H909V-473H692ZM479 -416H578V-295H479ZM424 -238H635V-473H424ZM509 -211C484 -108 428 -20 351 34C366 45 392 67 402 79C450 40 492 -11 524 -70C558 -45 593 -16 613 7L653 -43C630 -67 587 -99 548 -124C558 -148 565 -172 572 -198ZM774 -218C752 -111 699 -25 617 28C633 39 659 64 667 77C717 40 758 -7 789 -64C842 -23 898 26 929 60L975 10C940 -27 874 -80 816 -120C826 -148 835 -177 842 -209Z"/>
</svg>