<svg xmlns="http://www.w3.org/2000/svg" viewBox="0 -1000 1000 1000">
	<path fill="#000000" d="M259 -788H60V-723H195V-345C134 -286 74 -228 33 -192L68 -136C107 -174 152 -218 195 -263V-14C195 -1 191 2 179 3C168 3 130 3 91 2C101 20 111 50 113 67C168 67 205 66 228 54C252 43 259 23 259 -13ZM63 -612C91 -549 121 -464 131 -413L185 -432C174 -480 144 -563 114 -626ZM484 -787H283V-722H418V-349C364 -292 311 -236 275 -202L310 -147C344 -183 381 -224 418 -266V-17C418 -4 414 0 402 1C390 1 351 1 311 0C320 18 330 48 333 65C389 65 427 64 451 53C476 41 484 21 484 -16ZM412 -435C400 -483 370 -564 342 -626L290 -614C319 -552 347 -469 358 -418ZM848 -383C828 -306 799 -235 761 -175C722 -237 692 -308 669 -383ZM713 -630V-448H612V-462V-630ZM883 -451L871 -448H777V-630H878C868 -584 854 -536 843 -503L901 -489C920 -537 942 -614 957 -681L910 -692L902 -691V-696H777V-834H713V-696H547V-462C547 -326 542 -133 483 6C496 14 524 40 535 54C587 -65 605 -232 610 -367C636 -274 673 -189 720 -116C672 -56 617 -9 557 21C572 33 590 59 599 76C659 42 713 -3 761 -61C805 -6 857 39 916 72C927 54 948 28 963 15C901 -16 849 -61 802 -117C858 -202 901 -309 925 -437Z"/>
</svg>