<svg xmlns="http://www.w3.org/2000/svg" viewBox="0 -1000 1000 1000">
	<path fill="#000000" d="M820 -525C820 -514 817 -511 804 -510C793 -509 752 -509 708 -511C715 -494 722 -475 725 -458C786 -458 832 -458 856 -467C883 -476 891 -489 891 -524V-801H511V-742H820ZM715 -668C685 -687 628 -711 583 -722L551 -679C597 -665 654 -639 682 -620ZM789 -640C683 -609 576 -577 505 -559L527 -501C605 -527 702 -560 796 -592ZM378 -530C378 -520 376 -517 363 -516C353 -516 315 -516 273 -517C279 -500 286 -481 288 -465C348 -465 392 -465 416 -473C442 -482 449 -495 449 -530V-801H71V-742H378ZM274 -667C244 -686 186 -710 142 -722L109 -678C155 -664 211 -638 241 -619ZM351 -640C244 -609 136 -577 62 -558L86 -500C163 -526 262 -560 358 -593ZM787 -206C643 -88 364 -17 87 13C100 30 112 56 118 74C406 38 687 -38 849 -169ZM640 -292C536 -208 336 -148 147 -121C159 -107 173 -85 181 -69C378 -103 580 -166 697 -261ZM524 -374C450 -318 309 -273 187 -249C202 -238 216 -217 225 -202C354 -231 496 -281 582 -346ZM487 -519C392 -432 207 -372 27 -343C42 -327 57 -303 64 -286C217 -315 371 -366 479 -440C620 -357 776 -318 925 -291C933 -310 949 -334 963 -349C815 -371 657 -401 523 -473C530 -479 537 -485 544 -491Z"/>
</svg>