<svg xmlns="http://www.w3.org/2000/svg" viewBox="0 -1000 1000 1000">
	<path fill="#000000" d="M827 -588C827 -578 824 -574 812 -574C802 -574 768 -574 727 -575C734 -559 739 -544 741 -528C800 -528 843 -527 866 -535C890 -543 897 -555 897 -587V-798H517V-746H827ZM271 -378H740V-329H271ZM271 -467H740V-419H271ZM201 -284H813V-512H201ZM803 -661L700 -643L725 -683C694 -703 635 -728 588 -741L561 -705C608 -689 668 -664 698 -643C626 -631 561 -620 510 -613L529 -559C608 -576 707 -597 806 -619ZM389 -591C389 -581 386 -577 375 -577C364 -577 330 -577 289 -578C296 -562 301 -547 303 -531C362 -531 405 -530 428 -538C452 -546 459 -558 459 -590V-801H78V-749H389ZM364 -664L262 -646L287 -685C256 -706 197 -730 150 -744L123 -709C169 -692 229 -667 260 -646C188 -634 122 -623 71 -616L90 -562C169 -579 268 -600 367 -622ZM535 -86H866V-132H535V-193H931V-242H72V-193H462V-14C389 -28 332 -54 292 -100C303 -120 312 -142 320 -164L251 -176C221 -81 148 -12 55 31C71 42 96 67 106 80C167 47 221 3 262 -53C353 40 490 59 693 59H935C938 42 949 16 958 1C911 2 727 2 695 2C637 2 584 1 535 -4Z"/>
</svg>