<svg xmlns="http://www.w3.org/2000/svg" viewBox="0 -1000 1000 1000">
	<path fill="#000000" d="M523 -619H345V-697H482V-753H345V-835H283V-619H187V-780H128V-619H49V-559H522ZM414 -533C430 -516 448 -493 456 -475L491 -496C484 -512 465 -535 448 -551ZM317 -269C309 -230 297 -194 282 -161V-317H338V-367H162V-317H239V-88C209 -47 170 -13 126 13C137 21 154 40 160 49C261 -18 333 -121 363 -263ZM186 -285C178 -240 167 -195 145 -161C156 -155 173 -145 181 -139C202 -174 218 -227 226 -276ZM467 -368C457 -307 443 -251 425 -199C417 -262 410 -337 405 -416H517V-473H402C401 -497 401 -520 400 -545H348C349 -520 350 -497 351 -473H82V-307C82 -208 76 -68 26 35C40 41 63 57 74 68C127 -42 137 -199 137 -306V-416H354C361 -302 372 -197 388 -115C360 -60 325 -13 281 25C292 34 310 56 317 66C351 34 380 -3 406 -44C427 19 452 57 486 57C511 58 535 27 548 -77C538 -83 520 -95 509 -107C505 -41 496 -5 485 -6C469 -6 453 -44 440 -107C476 -180 501 -265 518 -360ZM718 -790H545V-728H663V-356C617 -295 571 -236 540 -200L572 -149C600 -185 633 -226 663 -268V-5C663 7 659 11 648 11C639 12 605 12 569 11C577 28 585 55 588 71C637 71 670 70 691 59C710 49 718 31 718 -6ZM548 -613C573 -551 597 -467 607 -417L653 -436C643 -484 617 -565 591 -627ZM920 -789H750V-728H866V-362C820 -303 774 -247 743 -210L774 -160C804 -196 836 -235 866 -276V-5C866 8 861 12 851 12C841 13 805 13 769 12C776 28 785 55 788 72C838 72 872 71 893 60C913 49 920 32 920 -5ZM753 -616C776 -555 801 -474 809 -425L855 -442C846 -490 820 -568 797 -629Z"/>
</svg>