<svg xmlns="http://www.w3.org/2000/svg" viewBox="0 -1000 1000 1000">
	<path fill="#000000" d="M884 -502C863 -484 826 -456 795 -436C757 -457 719 -478 685 -495L650 -456C740 -410 855 -338 912 -291L949 -337C922 -358 885 -382 843 -408C871 -424 903 -443 929 -464ZM379 -177C359 -196 283 -266 250 -293V-331H373V-396H250V-505H357V-570H250V-684C298 -697 342 -711 379 -729L325 -780C305 -769 278 -760 250 -750V-837H184V-731C135 -717 81 -706 32 -698C41 -683 51 -659 54 -645C96 -651 140 -658 184 -668V-570H64V-505H184V-396H47V-331H169C136 -238 80 -133 29 -74C41 -56 58 -28 64 -7C107 -56 150 -136 184 -218V76H250V-220C283 -187 321 -146 338 -124ZM553 -514V-393C553 -354 540 -337 529 -330C538 -318 551 -294 555 -281C569 -290 592 -300 728 -337C726 -350 725 -374 725 -391L612 -364V-514H943V-569H481V-628H895V-679H481V-733H933V-791H412V-496C412 -337 403 -118 305 37C323 44 353 60 366 71C467 -91 481 -329 481 -496V-514ZM533 -132C568 -94 607 -40 624 -4L679 -39C662 -74 623 -125 584 -162ZM842 -312H775V-237H486V-177H775V2C775 13 771 17 758 18C746 18 704 18 655 16C665 35 673 59 675 77C740 77 783 77 809 67C835 57 842 40 842 3V-177H947V-237H842Z"/>
</svg>