<svg xmlns="http://www.w3.org/2000/svg" viewBox="0 -1000 1000 1000">
	<path fill="#000000" d="M171 -570C204 -533 244 -484 263 -452L309 -486C289 -516 247 -565 211 -600L171 -575V-732H316V-375C259 -339 205 -307 166 -285C170 -343 171 -398 171 -447ZM382 -800H103V-447C103 -302 98 -106 35 35C50 42 78 67 89 82C137 -22 158 -158 166 -282L195 -223C234 -252 275 -282 316 -314V-18C316 -4 311 0 298 1C287 1 247 2 202 0C212 19 221 51 224 69C288 69 326 68 350 56C374 43 382 22 382 -17ZM927 -766H454V-695H618C617 -598 614 -493 601 -394C567 -445 524 -507 487 -557L441 -523C489 -451 551 -358 586 -297C559 -166 510 -49 417 30C436 41 460 64 472 81C664 -93 684 -415 689 -695H856C843 -224 828 -57 798 -20C788 -5 778 -2 763 -2C743 -2 701 -3 653 -7C664 14 672 45 673 66C718 68 764 69 792 66C823 61 842 53 862 24C899 -26 912 -198 927 -726Z"/>
</svg>