<svg xmlns="http://www.w3.org/2000/svg" viewBox="0 -1000 1000 1000">
	<path fill="#000000" d="M167 -566C202 -532 241 -487 262 -459L289 -480V-367C242 -337 197 -309 163 -288C166 -344 167 -397 167 -444ZM289 -732V-522C266 -548 233 -580 205 -606L167 -577V-732ZM354 -800H103V-444C103 -298 99 -98 35 42C51 48 79 64 92 76C136 -24 155 -155 162 -277L193 -225C224 -249 256 -275 289 -300V-19C289 -6 284 -1 272 0C261 0 222 0 178 -1C187 17 195 48 198 66C262 66 298 64 322 53C346 40 354 19 354 -18ZM611 -309C613 -343 614 -379 614 -416V-438H708V-309ZM446 -309C452 -349 458 -394 464 -438H549V-416C549 -379 548 -343 545 -309ZM614 -635H708V-503H614ZM869 -635V-503H774V-635ZM959 -309H774V-438H933V-700H774V-835H708V-700H614V-837H549V-700H399V-635H549V-503H408C401 -420 385 -313 372 -244H436V-245H538C521 -138 477 -44 370 31C386 41 411 62 423 76C541 -10 587 -120 604 -245H708V73H774V-245H893C888 -145 882 -106 873 -94C868 -87 862 -85 851 -85C841 -85 818 -86 791 -89C800 -73 805 -48 806 -29C835 -27 865 -28 881 -30C903 -32 916 -38 927 -53C945 -74 952 -132 959 -282Z"/>
</svg>