<svg xmlns="http://www.w3.org/2000/svg" viewBox="0 -1000 1000 1000">
	<path fill="#000000" d="M822 -373H533V-695H822ZM895 -766H461V-302H895ZM178 -576C210 -536 250 -480 268 -444L321 -477C302 -511 262 -564 227 -603ZM170 -732H323V-381C264 -343 206 -307 165 -285C169 -343 170 -398 170 -447ZM389 -800H103V-447C103 -302 98 -106 35 35C50 42 78 67 89 81C136 -22 157 -158 165 -282L197 -215C236 -245 279 -277 323 -312V-13C323 1 318 6 305 6C293 7 251 7 204 5C214 24 224 54 226 73C292 73 331 71 356 59C380 48 389 27 389 -13ZM532 -229C506 -130 456 -36 394 26C413 36 444 57 458 70C519 2 575 -103 606 -213ZM741 -205C793 -117 846 -2 867 68L939 39C915 -32 859 -145 806 -230Z"/>
</svg>