<svg xmlns="http://www.w3.org/2000/svg" viewBox="0 -1000 1000 1000">
	<path fill="#000000" d="M913 -721C889 -752 837 -796 794 -825L751 -786C795 -756 845 -709 869 -676ZM166 -569C199 -533 239 -483 258 -452L301 -484V-369C249 -337 199 -304 161 -285C165 -342 166 -398 166 -446ZM301 -732V-488C280 -519 241 -566 206 -600L166 -574V-732ZM363 -800H103V-446C103 -302 98 -107 35 35C49 41 76 65 86 79C134 -23 153 -157 161 -280L189 -223C225 -250 263 -279 301 -308V-13C301 1 296 6 282 6C270 7 227 7 179 5C188 23 197 52 200 69C267 69 306 68 331 57C354 46 363 26 363 -13ZM698 -590H966V-659H698V-835H628V-659H412V-590H628V-342C536 -257 437 -171 375 -121L421 -58C481 -115 557 -188 628 -259V-16C628 1 622 6 606 6C591 7 541 8 482 6C492 25 504 55 507 75C586 75 630 72 659 60C686 48 698 28 698 -17V-296C742 -179 809 -86 917 0C925 -18 944 -40 961 -53C869 -122 810 -196 768 -289C821 -344 889 -431 940 -504L876 -537C843 -481 790 -407 742 -350C723 -406 709 -469 698 -539ZM412 -500C456 -441 502 -363 518 -312L580 -342C561 -393 514 -470 470 -526Z"/>
</svg>