<svg xmlns="http://www.w3.org/2000/svg" viewBox="0 -1000 1000 1000">
	<path fill="#000000" d="M369 -800H103V-447C103 -303 98 -107 35 35C49 41 76 65 86 79C156 -73 167 -294 167 -447V-732H306V-487C285 -519 247 -565 214 -601L169 -573C202 -536 243 -483 262 -449L306 -478V-369C252 -336 201 -304 164 -284L194 -221L306 -307V-13C306 1 301 6 287 6C275 7 233 7 187 5C195 23 204 52 207 70C273 70 312 69 337 57C361 46 369 26 369 -13ZM911 -282V-727H729V-665H845V-540H734V-478H845V-345H687C692 -390 693 -436 693 -482V-828H626V-482C626 -436 625 -390 619 -345H480V-478H582V-541H480V-649C516 -665 558 -685 591 -708L549 -755C515 -732 456 -697 416 -680V-282H608C583 -165 522 -59 377 27C393 38 417 62 427 77C563 -5 630 -107 663 -218C717 -88 799 17 909 77C920 57 942 31 959 17C841 -37 753 -149 705 -282Z"/>
</svg>