<svg xmlns="http://www.w3.org/2000/svg" viewBox="0 -1000 1000 1000">
	<path fill="#000000" d="M817 -622C791 -645 755 -673 715 -703C743 -734 767 -768 785 -804L733 -826C718 -795 695 -764 670 -734C633 -759 596 -783 563 -803L527 -768C560 -748 597 -722 633 -697C596 -662 553 -632 506 -608C519 -598 537 -582 544 -570C592 -595 637 -628 678 -665C718 -635 753 -605 778 -582ZM166 -570C199 -533 239 -483 258 -452L295 -480V-366C245 -334 197 -305 161 -285C165 -343 166 -398 166 -446ZM295 -732V-497C273 -528 238 -569 206 -600L166 -575V-732ZM356 -800H103V-446C103 -303 98 -107 35 35C49 41 76 65 86 79C134 -23 153 -158 161 -280L189 -223C223 -249 259 -276 295 -304V-13C295 1 290 6 277 6C266 6 226 7 182 5C190 23 199 52 201 69C265 69 302 68 325 57C348 45 356 25 356 -12ZM701 -499V-453C701 -391 715 -368 779 -368H891C914 -368 939 -369 951 -373C949 -388 947 -411 946 -428C933 -424 905 -423 889 -423H785C767 -423 764 -430 764 -452V-499H912V-812H847V-561H475V-812H413V-499H543C529 -430 485 -397 361 -377C375 -366 390 -342 396 -326C539 -354 589 -404 607 -499ZM790 -245C761 -186 719 -137 668 -99C618 -131 575 -170 541 -215C550 -224 558 -235 567 -245ZM836 -306L824 -303H607C622 -326 633 -351 644 -374L578 -385C562 -347 539 -307 505 -269C498 -281 492 -294 486 -308L427 -290C438 -267 448 -245 461 -223C438 -203 411 -183 382 -166C396 -157 417 -134 427 -119C452 -136 476 -154 497 -171C529 -129 567 -93 610 -61C540 -20 456 7 369 23C382 37 397 62 403 80C500 58 591 26 669 -23C741 19 826 49 922 68C932 50 949 24 963 9C875 -6 795 -30 727 -65C793 -120 846 -194 879 -288Z"/>
</svg>