<svg xmlns="http://www.w3.org/2000/svg" viewBox="0 -1000 1000 1000">
	<path fill="#000000" d="M773 -616H840V-699H947V-763H840V-836H773V-763H679V-699H773ZM401 -557V-494H926V-557H714C701 -584 677 -617 655 -643L599 -620C614 -602 630 -578 643 -557ZM490 -616H557V-699H649V-763H557V-836H490V-763H383V-699H490ZM166 -571C199 -534 239 -484 258 -453L300 -484V-370C248 -336 198 -305 161 -285C165 -343 166 -399 166 -447ZM300 -732V-491C279 -521 240 -567 206 -601L166 -575V-732ZM362 -800H103V-447C103 -303 98 -106 35 35C49 41 76 65 86 79C134 -23 153 -157 161 -280L189 -223C225 -250 262 -278 300 -308V-13C300 1 295 6 282 6C271 6 232 7 187 5C195 23 204 52 206 69C270 69 307 68 331 57C353 45 362 25 362 -12ZM634 -307C615 -328 581 -362 551 -387C561 -414 570 -442 577 -472L514 -482C493 -386 445 -309 374 -259C388 -248 412 -224 422 -213C462 -244 496 -284 523 -331C548 -309 572 -282 586 -265ZM956 -173H693V-240C724 -266 752 -298 774 -336C817 -301 864 -260 887 -230L932 -276C904 -308 850 -353 802 -388C813 -415 822 -442 829 -471L765 -482C745 -399 702 -327 640 -280C652 -273 668 -259 680 -248H623V-173H377V-109H623V77H693V-109H956Z"/>
</svg>