<svg xmlns="http://www.w3.org/2000/svg" viewBox="0 -1000 1000 1000">
	<path fill="#000000" d="M750 -704C737 -738 711 -791 688 -831L626 -809C646 -766 673 -711 685 -676ZM153 -561C181 -530 214 -490 230 -463L257 -484V-360C216 -331 179 -304 149 -285C152 -341 153 -396 153 -443ZM257 -732V-518C237 -543 211 -573 187 -597L153 -575V-732ZM319 -800H92V-442C92 -297 88 -96 35 45C51 51 78 67 89 76C127 -25 143 -158 149 -282L179 -224C205 -247 231 -270 257 -293V-12C257 0 253 4 242 4C232 5 200 5 164 4C173 22 181 52 183 69C237 70 270 68 291 56C312 44 319 24 319 -11ZM406 81C442 29 470 -52 488 -113L430 -136C413 -77 383 1 348 48ZM662 -527H493V-609H662ZM662 -385H493V-468H662ZM662 -240H493V-327H662ZM952 -177V-240H730V-327H907V-385H730V-468H904V-527H730V-609H935V-671H501C521 -719 538 -770 553 -822L486 -837C454 -716 400 -597 334 -519C348 -505 372 -476 380 -462C397 -483 412 -505 428 -530V-151H493V-177ZM543 -115C556 -58 565 17 565 66L626 56C625 8 614 -66 600 -123ZM667 -117C692 -61 715 14 723 63L783 46C773 -2 750 -75 724 -131ZM803 -125C838 -64 880 20 899 73L961 47C941 -4 900 -84 861 -146Z"/>
</svg>