<svg xmlns="http://www.w3.org/2000/svg" viewBox="0 -1000 1000 1000">
	<path fill="#000000" d="M437 -560H573V-508H629V-670H573V-613H453V-703H871V-612H748V-670H692V-508H748V-560H886V-611H937V-762H703C688 -787 666 -817 647 -840L582 -822C596 -804 610 -783 623 -762H389V-611H437ZM769 -106C802 -82 839 -46 856 -20L903 -50C884 -74 846 -110 813 -134ZM167 -571C198 -536 234 -487 252 -457L288 -483V-369C240 -336 195 -304 162 -285C166 -342 167 -397 167 -446ZM288 -732V-502C268 -531 235 -570 207 -600L167 -574V-732ZM352 -800H103V-447C103 -303 98 -107 35 35C49 41 76 65 86 79C134 -24 154 -159 162 -282L191 -224C223 -251 256 -277 288 -305V-13C288 1 283 6 271 6C259 6 220 7 175 5C185 24 193 53 195 72C259 72 296 70 320 59C344 47 352 27 352 -12ZM505 -246H810V-193H505ZM505 -345H810V-292H505ZM505 -441H810V-390H505ZM784 7C757 7 752 4 752 -16V-144H882V-491H436V-144H532C517 -58 475 -7 351 22C364 35 383 60 390 76C534 36 585 -31 603 -144H685V-16C685 47 703 64 776 64H883C936 64 955 44 962 -32C943 -36 917 -45 904 -55C901 0 897 7 875 7Z"/>
</svg>