<svg xmlns="http://www.w3.org/2000/svg" viewBox="0 -1000 1000 1000">
	<path fill="#000000" d="M698 -421V-235C698 -177 714 -163 781 -163H888C937 -163 954 -181 958 -244C943 -248 920 -255 908 -263C905 -219 901 -212 881 -212H789C762 -212 759 -215 759 -235V-310H932V-361H759V-421ZM535 -685V-617H426V-685ZM702 -617H596V-685H702ZM864 -563V-490H764V-563ZM596 -563H702V-490H596ZM426 -563H535V-490H426ZM150 -564C177 -530 210 -486 226 -457L251 -473V-355C211 -324 174 -298 145 -278C149 -339 150 -397 150 -447ZM251 -732V-509C233 -536 209 -567 185 -592L150 -571V-732ZM923 -436V-617H764V-685H949V-742H702C692 -770 675 -808 660 -837L596 -822C608 -798 620 -767 630 -742H363V-474C363 -331 359 -130 306 24C307 16 308 7 308 -3V-800H92V-447C92 -303 87 -106 35 36C48 43 72 67 80 80C121 -21 137 -150 145 -270L172 -220C198 -243 225 -267 251 -290V-4C251 8 247 11 237 12C226 12 194 13 158 12C166 28 174 55 176 72C228 72 260 71 281 60C289 56 294 51 298 44L296 50C312 56 339 72 352 82C411 -69 424 -280 426 -436ZM444 71C474 21 498 -57 515 -114L463 -135C448 -78 421 -3 391 43ZM560 -116C567 -58 574 15 575 65L631 56C629 7 622 -65 612 -122ZM524 -420H465V-248C465 -212 453 -202 443 -197C450 -187 462 -163 465 -149C480 -159 505 -167 671 -204C670 -217 670 -239 671 -254L524 -225V-311H672V-361H524ZM676 -113C698 -58 723 14 734 62L789 45C778 -1 752 -72 728 -127ZM801 -112C837 -56 879 21 900 70L951 43C932 -4 888 -78 851 -134Z"/>
</svg>