<svg xmlns="http://www.w3.org/2000/svg" viewBox="0 -1000 1000 1000">
	<path fill="#000000" d="M185 -590C203 -544 225 -486 235 -447L283 -466C273 -504 250 -562 230 -606ZM166 -653H308V-415C258 -409 210 -403 166 -398ZM419 -371L417 -429L370 -423V-713H246C259 -746 273 -787 285 -824L216 -838C210 -802 197 -752 186 -713H107V-392L39 -384L47 -320L107 -328C106 -207 98 -62 33 43C48 49 74 67 84 78C154 -35 166 -206 166 -337L308 -356V-8C308 6 303 10 291 10C279 10 239 11 194 9C204 26 213 53 216 69C278 69 315 68 339 58C361 46 370 29 370 -7V-364ZM290 -150C279 -191 253 -254 231 -301L185 -285C206 -236 232 -173 242 -131ZM764 -175C743 -132 714 -97 677 -68C637 -81 596 -92 559 -101C573 -124 587 -149 600 -175ZM499 -412H645V-351H499ZM855 -412V-351H715V-412ZM529 -563V-620H645V-563ZM645 -723V-668H529V-723ZM827 -723V-668H715V-723ZM715 -563V-620H827V-563ZM957 30C902 5 825 -22 746 -48C781 -82 808 -124 828 -175H954V-234H848C850 -243 853 -252 855 -262L796 -268C793 -257 790 -245 787 -234H630C641 -257 651 -279 660 -301H925V-463H715V-513H892V-616H951V-673H892V-773H715V-837H645V-773H467V-673H393V-616H467V-513H645V-463H431V-301H591C582 -279 572 -257 562 -234H395V-175H531C511 -138 489 -101 469 -73C515 -61 564 -47 614 -32C557 -5 486 11 400 19C413 33 428 57 436 76C545 62 629 37 694 -5C776 22 852 50 901 74Z"/>
</svg>