<svg xmlns="http://www.w3.org/2000/svg" viewBox="0 -1000 1000 1000">
	<path fill="#000000" d="M882 -506C791 -549 635 -612 508 -655C511 -662 514 -670 517 -678H897V-744H535C541 -772 546 -804 549 -837H473C470 -803 465 -772 459 -744H106V-678H437C394 -586 301 -535 90 -509C102 -495 118 -467 124 -451C311 -476 415 -523 475 -600C600 -556 746 -494 828 -453ZM484 -235V-99H230V-235ZM556 -38V-296H159V27H230V-38ZM946 -444H56V-376H733V-15C733 2 728 6 708 8C688 8 619 9 543 6C554 27 567 56 571 77C663 77 725 76 761 65C797 53 808 32 808 -14V-376H946Z"/>
</svg>