<svg xmlns="http://www.w3.org/2000/svg" viewBox="0 -1000 1000 1000">
	<path fill="#000000" d="M365 -644C365 -555 346 -440 144 -361C159 -348 183 -323 193 -305C412 -397 437 -534 437 -642V-675H585V-318H656V-675H942V-739H561C547 -768 524 -811 502 -841L431 -823C448 -798 465 -766 478 -739H59V-675H365ZM693 -602C754 -547 823 -469 853 -417L916 -451C883 -503 814 -578 752 -631ZM213 -635C179 -577 122 -518 66 -479C82 -469 109 -447 121 -435C176 -480 239 -550 279 -614ZM944 -177V-244H525C532 -273 538 -304 543 -338H468C463 -304 457 -273 450 -244H61V-177H423C373 -81 272 -17 50 16C63 31 80 59 85 77C340 35 451 -50 503 -177ZM516 -114C645 -57 821 26 909 77L948 14C857 -35 680 -114 553 -168Z"/>
</svg>