<svg xmlns="http://www.w3.org/2000/svg" viewBox="0 -1000 1000 1000">
	<path fill="#000000" d="M271 -678H344V-727H475V-786H344V-837H271V-786H63V-727H271ZM941 -727V-786H730V-837H657V-786H520V-727H657V-678H728C675 -643 606 -611 530 -584C432 -613 330 -641 242 -661L196 -617C270 -600 353 -577 434 -552C336 -522 231 -499 132 -483C148 -470 170 -439 181 -425C250 -439 324 -457 397 -477C384 -452 369 -426 351 -402H58V-340H300C231 -267 142 -202 45 -158C58 -146 79 -121 90 -105C139 -128 186 -157 230 -189V49H303V-186H496V76H567V-186H776V-33C776 -21 771 -17 757 -17C743 -16 693 -15 634 -17C644 0 655 23 659 42C734 43 783 43 812 33C841 22 849 4 849 -33V-248H567V-317H496V-248H302C334 -276 364 -308 390 -340H937V-402H435C450 -424 463 -445 474 -468L420 -484C458 -495 495 -508 532 -520C636 -486 732 -449 795 -419L844 -470C786 -496 707 -526 621 -555C685 -581 744 -611 793 -644L733 -681L730 -679V-727Z"/>
</svg>