<svg xmlns="http://www.w3.org/2000/svg" viewBox="0 -1000 1000 1000">
	<path fill="#000000" d="M708 -686C698 -724 676 -787 658 -834L585 -818C602 -769 622 -704 631 -665ZM268 -835C216 -685 129 -535 36 -439C49 -421 72 -383 80 -365C109 -398 139 -436 167 -477V75H239V-593C278 -664 312 -738 340 -814ZM956 -589V-661H325V-589H495C489 -343 470 -102 283 27C302 38 326 61 338 78C482 -25 536 -189 558 -373H807C796 -128 782 -33 760 -11C751 0 741 2 722 2C703 2 651 1 597 -3C609 16 618 45 619 66C672 68 725 70 754 67C785 64 807 57 826 34C857 -2 869 -108 884 -409V-443H565C569 -491 571 -539 573 -589Z"/>
</svg>