<svg xmlns="http://www.w3.org/2000/svg" viewBox="0 -1000 1000 1000">
	<path fill="#000000" d="M218 -695H793V-318C793 -310 790 -307 782 -307H731C739 -292 751 -267 755 -250C792 -250 821 -251 840 -261C859 -272 865 -288 865 -319V-756H515C526 -778 538 -801 549 -826L470 -836C463 -814 450 -782 439 -756H148V-257H218ZM529 -302V-401C595 -368 668 -327 709 -300L742 -344C693 -374 604 -421 534 -454H742V-503H630C645 -526 662 -553 680 -585L630 -602C620 -577 600 -540 586 -515L614 -503H529V-609C602 -614 671 -621 725 -630L690 -672C595 -656 419 -646 278 -643C284 -631 290 -613 292 -600C348 -600 409 -602 470 -605V-503H381L412 -515C407 -537 390 -568 374 -591L328 -576C343 -554 356 -525 363 -503H264V-454H435C384 -407 309 -362 245 -340C258 -329 275 -309 285 -296C346 -323 418 -370 470 -421V-302ZM946 -152V-216H522C527 -234 531 -253 534 -273H456C452 -253 448 -234 444 -216H55V-152H417C368 -65 268 -12 42 15C55 30 71 59 76 77C339 42 448 -30 500 -152ZM526 -99C652 -46 824 33 911 80L947 21C858 -25 684 -99 561 -149Z"/>
</svg>