<svg xmlns="http://www.w3.org/2000/svg" viewBox="0 -1000 1000 1000">
	<path fill="#000000" d="M242 -50C287 -20 340 25 366 55L418 8C391 -22 336 -65 292 -92ZM487 -466H291V-498C298 -505 304 -513 311 -520H487ZM487 -368H291V-423H487ZM487 -265H291V-325H487ZM622 -688C663 -642 719 -600 779 -568H512L555 -591C546 -614 524 -650 502 -675L451 -651C469 -626 489 -593 498 -568H349C364 -589 377 -609 389 -631L340 -648C358 -660 373 -674 389 -688ZM800 -520V-557C839 -539 880 -523 921 -512C930 -529 950 -553 965 -567C866 -588 765 -633 699 -688H931V-750H447C465 -773 482 -797 497 -823L439 -842C420 -809 396 -778 368 -750H70V-688H296C220 -633 129 -592 34 -562C45 -547 59 -517 64 -503C155 -536 244 -577 319 -631C259 -533 157 -451 51 -399C63 -388 83 -359 91 -346C137 -372 183 -402 225 -438V-178H291V-216H639V-153H57V-93H639V-2C639 10 636 14 620 15C605 16 552 16 494 14C504 32 515 57 519 76C593 76 642 76 673 66C702 56 711 39 711 0V-93H943V-153H711V-216H847V-265H555V-325H806V-368H555V-423H806V-466H555V-520Z"/>
</svg>