<svg xmlns="http://www.w3.org/2000/svg" viewBox="0 -1000 1000 1000">
	<path fill="#000000" d="M641 -598H714V-697H938V-763H714V-836H641V-763H519V-697H641ZM280 -598H353V-697H486V-763H353V-836H280V-763H66V-697H280ZM635 -160V-260H785V-160ZM425 -160V-260H570V-160ZM215 -160V-260H360V-160ZM857 -320H147V77H215V-104H360V60H425V-104H570V57H635V-104H785V6C785 18 781 21 769 21C759 22 721 22 677 21C686 37 698 60 703 78C762 78 801 77 825 67C851 57 857 40 857 6ZM314 -457C384 -492 447 -533 501 -579C562 -530 628 -490 698 -457ZM507 -675C406 -561 217 -469 31 -420C48 -404 66 -379 75 -362C148 -384 221 -412 289 -444V-399H716V-449C783 -418 854 -392 928 -368C936 -389 956 -414 973 -429C815 -471 666 -525 545 -620C552 -628 560 -636 568 -645Z"/>
</svg>