<svg xmlns="http://www.w3.org/2000/svg" viewBox="0 -1000 1000 1000">
	<path fill="#000000" d="M676 -642H749V-712H941V-773H749V-837H676V-773H520V-712H676ZM929 -449V-617H76V-449H144V-561H859V-449ZM254 -642H327V-712H476V-773H327V-837H254V-773H63V-712H254ZM752 -318V-220H517C527 -250 535 -284 541 -318ZM264 -220V-318H465C460 -283 451 -250 439 -220ZM575 -432C561 -411 543 -390 526 -371H280C306 -391 330 -411 351 -432ZM661 0C609 0 600 -5 600 -29V-167H827V-371H608C633 -400 659 -431 677 -460L629 -491L618 -488H405C421 -507 435 -524 449 -543L368 -559C313 -478 209 -385 65 -320C81 -309 105 -286 116 -270C142 -283 167 -296 191 -311V-167H413C359 -82 257 -21 53 13C67 28 83 57 89 76C329 32 440 -50 496 -167H528V-28C528 46 553 66 655 66H840C920 66 943 40 952 -69C932 -74 902 -84 886 -96C881 -12 874 0 834 0ZM655 -131C696 -104 741 -63 763 -33L815 -72C793 -102 746 -141 706 -166Z"/>
</svg>