<svg xmlns="http://www.w3.org/2000/svg" viewBox="0 -1000 1000 1000">
	<path fill="#000000" d="M264 -656H337V-719H479V-780H337V-837H264V-780H64V-719H264ZM533 -330V-376H764V-330ZM236 -330V-376H462V-330ZM462 -465V-420H236V-465ZM764 -465V-420H533V-465ZM944 -171H707V-216C710 -210 712 -204 714 -198C756 -198 788 -198 808 -206C830 -213 837 -224 837 -254V-516H533V-565H925V-617H814L832 -638C810 -651 772 -670 739 -682V-719H941V-780H739V-837H666V-780H520V-719H666V-680H719L695 -652C719 -644 748 -631 772 -617H533V-686H462V-617H78V-565H462V-516H165V-211H236V-285H462V-211H533V-285H764V-256C764 -248 762 -245 752 -245C745 -244 720 -245 692 -245C695 -240 699 -234 702 -227H637V-171H57V-117H260L224 -84C289 -55 368 -8 408 26L456 -21C419 -52 351 -91 291 -117H637V2C637 14 633 18 617 18C601 20 547 20 485 18C495 35 507 59 511 77C589 77 638 77 669 68C699 57 707 41 707 3V-117H944Z"/>
</svg>