<svg xmlns="http://www.w3.org/2000/svg" viewBox="0 -1000 1000 1000">
	<path fill="#000000" d="M650 -663H723V-720H942V-779H723V-838H650V-779H520V-720H650ZM624 -574H824V-459H624ZM557 -403H895V-630H557ZM420 -568C411 -537 392 -503 345 -473C302 -488 256 -500 214 -511C225 -525 237 -541 249 -557ZM426 -651V-620L286 -613C297 -631 307 -648 316 -665L255 -680C244 -657 230 -634 215 -609C160 -607 111 -604 69 -603L76 -547L178 -553C159 -526 140 -502 122 -481C173 -472 227 -456 279 -439C228 -418 160 -399 68 -383C79 -372 93 -351 98 -336C211 -357 292 -384 349 -414C395 -396 436 -378 467 -360L514 -402C485 -418 448 -434 405 -450C454 -490 472 -532 479 -571L522 -574L523 -625L482 -623V-651ZM279 -675H352V-720H475V-779H352V-837H279V-779H64V-720H279ZM950 -125H548V-186H885V-234H548V-299C658 -307 760 -317 841 -333L784 -377C646 -352 384 -337 165 -333C171 -320 178 -298 179 -283C274 -284 376 -288 475 -294V-234H126V-186H475V-125H51V-71H475V-1C475 14 469 19 451 19C434 21 366 21 297 18C306 35 318 57 323 76C413 76 469 76 503 66C536 57 548 41 548 1V-71H951Z"/>
</svg>