<svg xmlns="http://www.w3.org/2000/svg" viewBox="0 -1000 1000 1000">
	<path fill="#000000" d="M326 -554C324 -459 314 -342 262 -229C224 -259 184 -289 147 -316C165 -383 183 -463 200 -547ZM396 -695H326V-620L212 -614C226 -688 237 -762 245 -828L172 -833C166 -765 154 -687 141 -611C103 -609 69 -607 39 -606L47 -537L128 -542C109 -449 88 -358 67 -293C118 -256 175 -212 228 -166C185 -97 124 -30 37 29C53 40 79 65 91 82C177 21 239 -47 284 -118C323 -82 358 -48 381 -20L428 -79C401 -109 362 -144 319 -181C383 -312 395 -448 396 -559L456 -563V-627L396 -624ZM622 -8C564 -8 553 -17 553 -56V-370H822V-318H897V-766H461V-693H822V-441H478V-55C478 38 510 62 616 62H824C925 62 949 17 960 -144C939 -148 907 -161 889 -174C883 -34 874 -8 818 -8Z"/>
</svg>