<svg xmlns="http://www.w3.org/2000/svg" viewBox="0 -1000 1000 1000">
	<path fill="#000000" d="M942 -392V-449H655V-525H884V-581H655V-640H582V-581H371V-525H582V-449H306V-392H477C456 -327 405 -288 285 -266C299 -254 315 -229 323 -213C461 -245 520 -300 544 -392H672V-343C672 -284 686 -260 748 -260H870C894 -260 921 -260 935 -264C932 -280 930 -300 929 -317C914 -313 884 -312 867 -312H759C739 -312 737 -319 737 -342V-392ZM100 -581C159 -554 232 -510 267 -477L307 -535C270 -566 197 -607 138 -632ZM666 -641H739V-706H941V-768H739V-837H666V-768H520V-706H666ZM264 -633H337V-706H479V-768H337V-837H264V-768H64V-706H264ZM255 -347C217 -376 140 -415 81 -438L42 -386C102 -360 178 -318 216 -289ZM120 73C170 1 227 -92 272 -172L223 -217C172 -131 107 -34 63 25ZM746 -168C712 -128 668 -95 616 -69C564 -93 522 -119 485 -148C494 -155 502 -161 510 -168ZM802 -223L789 -220H563C582 -241 599 -262 613 -285L554 -303C526 -261 488 -223 443 -190C433 -200 424 -213 416 -225L367 -194C375 -181 385 -168 396 -156C363 -136 329 -118 295 -103C309 -93 332 -68 341 -56C373 -73 405 -92 438 -113C468 -86 504 -60 545 -38C464 -7 370 11 275 22C288 37 301 63 306 81C418 65 525 40 617 -1C700 34 799 60 911 76C919 57 936 30 949 15C851 5 764 -14 689 -40C756 -81 810 -133 846 -200Z"/>
</svg>