<svg xmlns="http://www.w3.org/2000/svg" viewBox="0 -1000 1000 1000">
	<path fill="#000000" d="M924 -439V-601H542C537 -625 528 -655 518 -679L450 -670C457 -649 464 -624 468 -601H82V-439H152V-538H851V-439ZM548 -444C521 -469 468 -502 424 -521L388 -482C432 -460 483 -426 508 -401ZM135 -274C186 -317 223 -384 250 -440L190 -466C168 -414 125 -349 77 -310ZM292 -630H365V-706H468V-770H365V-836H292V-770H64V-706H292ZM645 -213C725 -213 747 -238 756 -338C737 -342 710 -351 694 -361C690 -285 682 -273 639 -273H438C425 -273 414 -273 406 -274C536 -328 653 -397 735 -484L674 -513C603 -436 494 -373 370 -324V-480H302V-304V-299C220 -271 132 -248 44 -232C57 -218 78 -189 85 -173C163 -190 243 -213 319 -241C336 -219 372 -213 435 -213ZM776 -27H535V-186H462V-27H238V-159H165V37H776V75H850V-164H776ZM727 -432C786 -382 850 -309 877 -259L935 -297C906 -347 839 -417 781 -464ZM704 -770V-836H631V-770H533V-706H631V-631H704V-706H943V-770Z"/>
</svg>