<svg xmlns="http://www.w3.org/2000/svg" viewBox="0 -1000 1000 1000">
	<path fill="#000000" d="M387 -585C387 -476 378 -340 297 -211C253 -247 208 -283 165 -315C185 -390 206 -481 224 -574ZM460 -704H387V-655L238 -647C248 -709 258 -771 265 -828L188 -833C183 -775 173 -709 163 -643L37 -637L46 -563L149 -570C128 -465 105 -365 82 -293C137 -252 199 -202 255 -152C205 -90 135 -31 39 21C57 34 80 59 91 77C188 24 259 -37 312 -101C357 -58 397 -17 425 16L480 -42C449 -76 405 -118 356 -162C449 -307 460 -462 460 -584V-589L502 -592L503 -661L460 -659ZM611 -94V-658H827V-94ZM540 -729V51H611V-23H827V37H900V-729Z"/>
</svg>