<svg xmlns="http://www.w3.org/2000/svg" viewBox="0 -1000 1000 1000">
	<path fill="#000000" d="M642 -674H715V-725H934V-781H715V-836H642V-781H515V-725H642ZM273 -656H346V-724H484V-780H346V-836H273V-780H59V-724H273ZM799 -503V-445H225V-503ZM872 -401V-547H225V-575C449 -582 704 -600 867 -629L837 -678C676 -650 389 -631 153 -623V-402C153 -283 145 -96 41 20C59 33 83 57 94 72C211 -63 225 -261 225 -401ZM380 -336H737V-282H380ZM809 -246V-373H311V-246ZM527 -172V-102H332V-172ZM800 -102H597V-172H800ZM444 12C350 12 332 4 332 -31V-57H869V-216H263V-30C263 49 307 64 447 64H814C914 64 941 44 950 -40C930 -42 907 -49 891 -59C885 2 872 12 808 12Z"/>
</svg>