<svg xmlns="http://www.w3.org/2000/svg" viewBox="0 -1000 1000 1000">
	<path fill="#000000" d="M664 -646H739V-708H938V-771H739V-836H664V-771H525V-708H664ZM268 -646H342V-708H468V-771H342V-836H268V-771H57V-708H268ZM310 -382H404V-268C404 -261 402 -259 395 -258C387 -258 369 -258 344 -259C352 -243 361 -223 363 -207C399 -207 425 -207 442 -217C460 -227 464 -240 464 -268V-439H310V-507H479V-566H310V-625H243V-566H62V-507H243V-439H94V-201H154V-382H243V-278C199 -181 116 -80 36 -30C51 -18 71 6 83 22C139 -19 197 -86 243 -161V76H310V-149C351 -110 402 -60 423 -35L470 -87C445 -110 345 -191 310 -218ZM751 -380H852V-264C852 -257 850 -255 843 -255C835 -254 818 -254 793 -255C801 -240 810 -219 812 -203C849 -203 874 -203 892 -212C910 -222 914 -237 914 -264V-439H751V-507H942V-566H751V-630H683V-566H505V-507H683V-439H526V-194H586V-380H683V-276C632 -173 536 -70 444 -21C460 -8 480 17 491 32C559 -10 630 -83 683 -166V76H751V-164C798 -86 860 -16 921 25C933 8 954 -17 970 -30C884 -78 798 -177 751 -274Z"/>
</svg>