<svg xmlns="http://www.w3.org/2000/svg" viewBox="0 -1000 1000 1000">
	<path fill="#000000" d="M295 -658H368V-713H486V-774H368V-836H295V-774H66V-713H295ZM827 -667C660 -642 362 -627 125 -623C131 -609 139 -585 140 -567C376 -568 672 -583 852 -609ZM539 -480C532 -504 515 -543 497 -572L438 -556C455 -526 472 -486 479 -460ZM393 -257C372 -209 345 -167 312 -130C286 -156 247 -187 210 -210C223 -225 237 -240 250 -257ZM423 -313H289C302 -332 313 -352 322 -372L260 -389C217 -300 140 -219 57 -167C71 -156 96 -132 107 -120C128 -136 150 -153 170 -172C208 -146 245 -114 268 -88C213 -38 146 -1 74 23C89 35 111 62 119 77C275 15 414 -102 476 -293L435 -315ZM572 -117C583 -152 593 -192 603 -229H683V-117ZM752 -229H900V-286H752V-367H683V-286H494V-229H540C526 -171 509 -106 493 -60H683V76H752V-60H927V-117H752ZM746 -587C728 -550 696 -498 667 -459H279L310 -472C300 -496 277 -533 254 -559L200 -538C218 -515 238 -484 249 -459H72V-307H140V-400H859V-307H928V-459H741C766 -491 795 -530 818 -566ZM701 -774V-836H628V-774H519V-713H628V-669H701V-713H938V-774Z"/>
</svg>