<svg xmlns="http://www.w3.org/2000/svg" viewBox="0 -1000 1000 1000">
	<path fill="#000000" d="M264 -647H337V-706H479V-771H337V-837H264V-771H64V-706H264ZM282 -633C263 -600 240 -569 216 -539C190 -571 159 -601 120 -631L69 -592C112 -559 144 -525 169 -489C129 -451 85 -416 41 -389C56 -377 82 -349 92 -337C130 -362 167 -393 203 -428C216 -398 224 -369 229 -338C185 -266 103 -188 35 -148C51 -135 71 -110 82 -93C132 -129 191 -186 237 -243V-221C237 -117 229 -35 207 -6C199 3 190 7 176 9C157 11 122 11 81 8C94 28 101 54 102 76C140 78 176 78 207 72C228 69 245 59 258 44C296 -3 307 -100 307 -218C307 -308 299 -397 254 -482C289 -522 322 -565 347 -611ZM504 -90H784V-144H504ZM670 -410H605V-481H670ZM834 -350V-255C832 -253 828 -252 815 -252H745C725 -252 722 -255 722 -271V-350ZM450 -9V-350H552C548 -295 529 -240 457 -202C470 -193 489 -175 497 -163C580 -212 601 -277 604 -350H670V-271C670 -216 685 -203 741 -203H823H834V-9ZM769 -653C754 -619 727 -573 703 -539H542L577 -559C565 -582 537 -621 514 -649L460 -622C478 -598 501 -564 514 -539H363V-481H553V-410H385V74H450V45H834V74H901V-410H722V-481H932V-539H773C791 -565 811 -596 829 -625ZM739 -771V-837H666V-771H519V-706H666V-644H739V-706H941V-771Z"/>
</svg>