<svg xmlns="http://www.w3.org/2000/svg" viewBox="0 -1000 1000 1000">
	<path fill="#000000" d="M308 -554C306 -459 297 -346 248 -235C214 -263 179 -290 145 -316C164 -383 185 -464 202 -548ZM447 -564L448 -627L376 -623V-695H308V-619L216 -614C230 -689 243 -762 251 -828L182 -833C175 -765 162 -688 147 -611C108 -609 70 -607 39 -606L47 -538L133 -543C112 -448 89 -358 67 -292C114 -257 167 -215 216 -172C175 -102 116 -35 31 26C48 36 72 60 83 75C166 14 226 -55 270 -125C309 -88 344 -54 369 -25L415 -82C389 -113 348 -151 303 -189C363 -318 375 -449 376 -559ZM577 -20C588 -110 599 -226 609 -348H779C775 -227 770 -111 764 -20ZM786 -715C786 -622 784 -519 781 -417H615C622 -519 630 -622 636 -715ZM956 -348V-417H853C856 -544 858 -674 858 -785H435V-715H564C560 -623 552 -520 543 -417H399V-348H537C526 -227 514 -111 502 -20H396V49H939V-20H839C844 -110 848 -226 851 -348Z"/>
</svg>