<svg xmlns="http://www.w3.org/2000/svg" viewBox="0 -1000 1000 1000">
	<path fill="#000000" d="M638 -660H711V-712H935V-767H711V-836H638V-767H517V-712H638ZM84 -634V-494H152V-580H452L422 -548C469 -531 528 -500 560 -477L596 -520C567 -539 515 -563 471 -580H839V-494H910V-634H551C538 -656 517 -687 499 -710L432 -689C444 -672 457 -653 467 -634ZM704 -514C751 -480 809 -430 836 -397L885 -433C857 -467 798 -514 751 -547ZM325 -546V-470C325 -411 348 -397 437 -397H610C671 -397 691 -415 698 -485C680 -489 657 -496 643 -505C639 -454 633 -447 602 -447H442C397 -447 390 -451 390 -472V-546ZM173 -392C218 -424 257 -473 285 -514L232 -542C206 -505 165 -459 122 -432ZM287 -660H359V-711H480V-767H359V-836H287V-767H63V-711H287ZM129 -85H479V-3C479 8 474 12 460 12C448 13 399 13 347 11C356 28 366 48 370 67C439 67 485 67 515 58C544 49 552 35 552 -1V-85H884V-140H129ZM240 -310H369V-238H240ZM562 -310V-238H431V-310ZM756 -310V-238H624V-310ZM829 -238V-363H170V-238H51V-182H950V-238Z"/>
</svg>