<svg xmlns="http://www.w3.org/2000/svg" viewBox="0 -1000 1000 1000">
	<path fill="#000000" d="M946 -352C908 -382 852 -417 790 -451C841 -495 884 -547 911 -608L869 -627L858 -625H546V-570H818C796 -538 765 -508 731 -482C684 -506 636 -530 592 -548L552 -506C591 -489 634 -467 676 -445C622 -411 562 -386 503 -370C516 -358 532 -333 539 -317C606 -338 675 -370 737 -411C803 -373 863 -334 903 -302ZM668 -666H738V-726H937V-783H738V-836H668V-783H525V-726H668ZM268 -674H338V-726H469V-782H338V-836H268V-782H58V-726H268ZM213 -429H388V-394C328 -389 268 -384 213 -379ZM388 -601V-559H213V-601ZM213 -515H388V-472H213ZM388 -297H456V-601H517V-653H78V-601H146V-374C117 -372 90 -370 67 -368L76 -313C163 -322 276 -333 388 -345ZM268 -193C232 -122 155 -70 78 -39C87 -24 100 10 104 24C162 -2 218 -41 262 -89C308 -57 360 -14 387 14L419 -35C392 -62 340 -101 295 -132C304 -146 313 -161 320 -176ZM775 -323C617 -292 358 -268 151 -262C165 -248 184 -217 193 -202C278 -208 373 -216 469 -227V75H543V-235C647 -248 746 -264 827 -282ZM756 -236C725 -154 657 -91 583 -54C593 -38 607 -4 611 11C664 -20 714 -63 752 -115C792 -65 850 -17 907 10C916 -6 937 -29 952 -40C887 -64 820 -113 783 -163C793 -180 802 -200 810 -220Z"/>
</svg>