<svg xmlns="http://www.w3.org/2000/svg" viewBox="0 -1000 1000 1000">
	<path fill="#000000" d="M310 -555C309 -459 300 -345 251 -232C216 -262 180 -290 145 -316C165 -383 185 -464 203 -548ZM418 -562V-625L378 -623V-695H310V-619L218 -615C232 -688 245 -762 254 -828L185 -833C177 -765 164 -687 149 -611C109 -609 71 -607 39 -606L47 -538L135 -543C113 -448 90 -358 67 -292C115 -257 169 -213 219 -170C178 -100 119 -33 34 27C51 38 74 61 85 76C169 15 229 -52 273 -123C313 -85 347 -50 372 -22L417 -80C391 -110 351 -147 307 -186C367 -316 377 -448 378 -559ZM608 -423V-435V-711H765V-423ZM956 -423H838V-711H938V-781H434V-711H536V-435V-423H407V-353H534C527 -220 496 -71 386 36C403 46 431 67 444 81C566 -37 599 -201 606 -353H765V77H838V-353H956Z"/>
</svg>