<svg xmlns="http://www.w3.org/2000/svg" viewBox="0 -1000 1000 1000">
	<path fill="#000000" d="M639 -654H712V-710H939V-769H712V-836H639V-769H518V-710H639ZM912 -588V-631H535V-686H464V-631H95V-588H464V-548H165V-508H841V-548H535V-588ZM285 -654H357V-710H487V-769H357V-836H285V-769H65V-710H285ZM904 -338C919 -369 937 -417 952 -458L901 -472L889 -469H58V-425H867C859 -398 851 -372 843 -353ZM157 -309V-269H840V-309H532V-349H790V-388H213V-349H462V-309ZM365 -96V-27H181V-96ZM118 66H181V20H365V62H430V-143H118ZM502 -54C535 -26 573 13 592 39L642 2C623 -21 584 -59 552 -84ZM956 -186V-230H48V-186H750V-134H458V-87H750V-1C750 10 747 13 734 14C722 15 684 15 638 14C647 29 660 51 665 70C724 70 762 69 788 59C815 50 822 36 822 1V-87H941V-134H822V-186Z"/>
</svg>