<svg xmlns="http://www.w3.org/2000/svg" viewBox="0 -1000 1000 1000">
	<path fill="#000000" d="M640 -641H713V-714H935V-776H713V-836H640V-776H519V-714H640ZM287 -641H360V-714H483V-776H360V-836H287V-776H67V-714H287ZM189 -394C176 -439 142 -511 110 -565L54 -539C85 -483 117 -408 130 -361ZM277 -526H952V-590H587C574 -618 558 -651 544 -678L474 -663C485 -641 498 -615 507 -590H206V-357C206 -337 206 -316 205 -294C141 -257 82 -221 38 -199L68 -131C109 -158 153 -190 198 -221C185 -132 155 -39 82 35C97 45 126 70 136 84C256 -38 277 -222 277 -356ZM737 -169C724 -128 696 -86 688 -75C679 -65 672 -59 662 -57C668 -48 676 -28 678 -19C691 -24 712 -28 843 -45C846 -34 850 -24 853 -16L891 -33C879 -65 850 -115 824 -151L788 -138C801 -119 815 -98 826 -76L730 -67C748 -92 768 -124 783 -155ZM395 -294H570V-220H395ZM395 -410H570V-339H395ZM810 -339H632V-410H810ZM810 -220H632V-294H810ZM698 10C653 10 644 6 644 -16V-174H875V-457H609C618 -472 629 -488 639 -506L567 -520C562 -502 550 -478 539 -457H333V-174H470C449 -78 396 -10 251 27C263 38 281 63 287 78C449 32 510 -53 534 -174H587V-16C587 46 609 62 695 62H864C930 62 948 40 955 -46C939 -49 916 -58 903 -66C899 0 893 10 859 10Z"/>
</svg>