<svg xmlns="http://www.w3.org/2000/svg" viewBox="0 -1000 1000 1000">
	<path fill="#000000" d="M466 -529V-582H610V-529ZM825 -582V-529H681V-582ZM955 -444H681V-485H897V-626H681V-660H610V-626H398V-485H610V-444H346V-394H955ZM483 -136H813V-88H483ZM483 -224H813V-178H483ZM483 -311H813V-265H483ZM884 -46V-353H414V-46ZM627 -669H700V-723H935V-778H700V-836H627V-778H519V-723H627ZM298 -666H370V-722H484V-777H370V-836H298V-777H66V-722H298ZM317 -632L307 -628H97V77H162V-568H280C261 -510 234 -438 208 -376C275 -309 293 -252 293 -204C293 -177 288 -153 274 -144C268 -139 258 -137 248 -136C234 -135 217 -135 197 -138C208 -120 214 -94 215 -76C235 -75 257 -76 274 -78C291 -79 307 -85 321 -95C346 -113 358 -151 358 -199C357 -253 339 -315 272 -385C304 -453 337 -536 364 -605ZM534 -44C484 -13 393 12 311 29C327 40 354 65 366 78C446 56 544 21 603 -21ZM686 -5C769 22 856 55 907 79L963 39C905 15 812 -18 728 -43Z"/>
</svg>