<svg xmlns="http://www.w3.org/2000/svg" viewBox="0 -1000 1000 1000">
	<path fill="#000000" d="M658 -654H731V-713H937V-776H731V-836H658V-776H537V-713H658ZM544 -428V-298C544 -234 563 -207 638 -207H834C870 -207 907 -208 924 -213C922 -228 919 -248 917 -267C898 -263 855 -261 830 -261H645C617 -261 611 -270 611 -297V-334H890V-382H611V-428ZM267 -654H340V-713H465V-775H340V-836H267V-775H65V-713H267ZM461 -250H120V-145C120 -88 111 -21 51 33C64 41 90 65 99 79C170 16 185 -73 185 -143V-199H397V-107C317 -87 240 -68 183 -57L204 -6C262 -21 330 -39 397 -58V11C397 21 393 24 382 24C372 25 335 25 296 24C303 38 312 56 315 70C372 71 409 70 431 62C454 54 461 41 461 11ZM208 -146C252 -137 307 -117 337 -103L356 -144C327 -159 271 -175 228 -182ZM182 -577H344V-499H182ZM412 -577H579V-499H412ZM647 -577H818V-499H647ZM332 -390C352 -376 372 -359 391 -342L187 -335C226 -360 265 -388 300 -420L256 -446H891V-631H112V-446H242C202 -403 147 -364 129 -353C113 -342 98 -336 84 -334C90 -318 100 -289 103 -277C123 -284 154 -286 435 -297C447 -283 458 -270 466 -258L515 -290C488 -329 430 -383 378 -419ZM670 -1C620 -1 611 -6 611 -30V-87H894V-138H611V-190H544V-29C544 38 568 55 665 55H851C923 55 944 33 952 -57C933 -61 907 -69 892 -79C888 -11 881 -1 844 -1Z"/>
</svg>