<svg xmlns="http://www.w3.org/2000/svg" viewBox="0 -1000 1000 1000">
	<path fill="#000000" d="M177 -200C234 -178 309 -147 348 -127L376 -168C336 -187 261 -217 205 -236ZM170 -268H393V-126C308 -104 226 -82 164 -68C169 -99 170 -131 170 -159ZM456 -320H107V-160C107 -97 103 -17 58 43C73 50 98 71 109 83C138 44 154 -5 162 -54L181 -11C243 -32 318 -56 393 -81V11C393 21 390 24 379 24C369 25 332 25 292 24C301 39 310 59 313 75C369 76 404 76 426 66C449 56 456 42 456 11ZM382 -542H494V-597H338C329 -617 315 -640 301 -659H368V-707H487V-768H368V-836H296V-768H66V-707H296V-666L236 -654C248 -638 260 -616 269 -597H75V-542H371C362 -509 343 -462 329 -427H217L231 -431C227 -461 211 -508 193 -542L138 -527C154 -497 165 -457 170 -427H51V-371H509V-427H389C403 -457 418 -494 434 -527ZM628 -659H701V-707H938V-768H701V-836H628V-768H519V-707H628ZM668 8C618 8 610 2 610 -28V-60H889V-106H610V-154H872V-199H610V-247H887V-293H610V-340H900V-501H610V-554H924V-603H610V-671H541V-451H832V-390H541V-28C541 48 569 66 662 66H856C927 66 948 43 956 -35C936 -39 911 -48 895 -58C891 -3 884 8 850 8Z"/>
</svg>