<svg xmlns="http://www.w3.org/2000/svg" viewBox="0 -1000 1000 1000">
	<path fill="#000000" d="M666 -667H739V-723H941V-785H739V-837H666V-785H520V-723H666ZM264 -678H337V-723H478V-785H337V-837H264V-785H63V-723H264ZM206 -485C238 -513 268 -544 295 -576C341 -549 389 -515 430 -485ZM173 -430H440V-478C462 -461 480 -447 494 -433L535 -484C489 -524 404 -580 329 -623C335 -632 340 -640 345 -648L282 -669C229 -582 130 -497 37 -448C55 -434 75 -413 87 -398C116 -414 145 -435 173 -458ZM139 -323H225V-237H139ZM87 -185H278V-375H87ZM289 -18C272 -42 238 -79 207 -106C214 -127 220 -151 224 -175L159 -181C144 -89 108 -14 44 35C59 44 83 67 93 78C131 45 163 3 185 -48C210 -24 233 3 245 23ZM380 -181C366 -88 330 -14 263 33C278 43 302 65 311 77C352 44 385 2 408 -48C436 -20 464 11 480 34L525 -9C505 -36 464 -76 430 -106C435 -128 440 -151 444 -175ZM645 -457H807C793 -361 770 -279 735 -209C695 -281 665 -365 644 -454ZM456 -237H369V-323H456ZM954 -457V-519H668C680 -558 691 -599 700 -641L631 -655C608 -539 568 -429 509 -350V-375H318V-185H509V-314C523 -302 538 -288 545 -280C567 -305 585 -335 604 -368C628 -285 659 -210 697 -143C650 -73 587 -18 506 22C520 35 542 64 550 79C628 36 688 -16 737 -81C785 -14 844 40 914 78C925 59 946 34 962 21C888 -14 827 -71 777 -142C826 -228 857 -332 877 -457Z"/>
</svg>