<svg xmlns="http://www.w3.org/2000/svg" viewBox="0 -1000 1000 1000">
	<path fill="#000000" d="M666 -705H739V-743H941V-797H739V-837H666V-797H520V-743H666ZM422 -530H481V-469H422ZM576 -642V-617H422V-642ZM576 -530V-469H520V-530ZM576 -561H422V-586H576ZM918 -340V-469H834C839 -526 844 -609 846 -676H669V-636H782L780 -602H670V-567H778L776 -533H670V-498H773L770 -469H627V-677H373V-469H228L226 -498H344V-533H224L223 -560H343V-595H220L219 -622C267 -632 319 -644 361 -658L319 -694C281 -679 215 -661 158 -650L156 -651V-650L167 -469H79V-340H147V-427H847V-340ZM264 -705H337V-743H476V-797H337V-837H264V-797H64V-743H264ZM274 -196H730V-227H274ZM599 -138C628 -114 670 -94 717 -76H276C324 -94 366 -114 402 -138ZM228 -299H364C342 -280 305 -270 246 -264C254 -257 265 -241 269 -230C357 -242 404 -262 428 -299H541V-298C541 -254 562 -248 626 -248H755C761 -248 766 -248 771 -248V-171H228ZM541 -363V-332H441C444 -342 445 -351 447 -363ZM771 -299V-281C768 -279 762 -279 747 -279H631C601 -279 596 -281 596 -297V-299ZM838 -138V-332H596V-363H795V-400H203V-363H394C393 -351 391 -341 387 -332H163V-138H306C245 -107 153 -82 41 -63C55 -55 74 -37 84 -23C139 -35 191 -48 237 -62V-39H410C372 7 258 23 147 29C161 41 182 64 189 77C311 62 442 34 486 -39H700C686 -3 672 18 659 27C650 32 642 33 623 33C606 33 559 32 513 28C519 39 525 56 526 67C575 71 623 71 646 70C671 70 690 68 708 59C732 45 752 13 771 -51C772 -53 773 -55 773 -57C821 -43 873 -31 923 -24C932 -39 950 -60 963 -71C860 -80 749 -105 679 -138Z"/>
</svg>