<svg xmlns="http://www.w3.org/2000/svg" viewBox="0 -1000 1000 1000">
	<path fill="#000000" d="M310 -554C309 -459 300 -345 251 -233C216 -261 180 -290 145 -316C164 -383 185 -464 203 -548ZM424 -562L425 -626L378 -623V-695H310V-620L218 -615C232 -689 245 -762 254 -828L185 -833C177 -765 164 -687 149 -611C109 -609 71 -607 39 -606L47 -538L135 -543C113 -448 90 -358 67 -293C115 -256 168 -213 219 -170C178 -101 119 -33 34 27C51 38 74 60 85 76C169 15 229 -53 273 -122C315 -84 351 -47 377 -16L423 -75C396 -107 353 -146 307 -187C367 -315 377 -448 378 -559ZM831 -260V-33H532V-260ZM463 77H532V33H831V75H902V-327H463ZM739 -664C772 -619 807 -566 836 -515L525 -495C591 -586 655 -700 709 -815L633 -838C583 -711 500 -577 474 -542C449 -506 430 -482 410 -478C419 -458 431 -423 435 -407C463 -419 506 -423 871 -451C884 -426 894 -401 902 -381L966 -413C935 -490 866 -605 797 -692Z"/>
</svg>