<svg xmlns="http://www.w3.org/2000/svg" viewBox="0 -1000 1000 1000">
	<path fill="#000000" d="M885 -834C778 -804 582 -783 419 -774C426 -757 435 -731 438 -714C604 -721 804 -742 933 -776ZM815 -503C848 -554 888 -631 921 -698L854 -725C832 -666 790 -581 759 -529ZM717 -536C706 -581 681 -650 659 -702L601 -684C620 -631 645 -561 655 -515ZM576 -525C563 -568 530 -634 502 -685L444 -664C470 -613 502 -544 515 -500ZM130 -590H205V-352H130ZM338 -352H258V-590H338ZM310 -221C321 -184 333 -142 344 -101L263 -89V-289H394V-652H264V-825H201V-652H74V-243H130V-289H200V-80C141 -71 86 -65 42 -59L53 11C139 -3 249 -20 360 -39C365 -15 369 6 372 26L430 13C419 -53 392 -152 366 -230ZM941 -258H709V-305C772 -348 839 -405 887 -459L842 -495L827 -491H457V-425H763C726 -388 678 -350 636 -324V-258H406V-190H636V-5C636 6 633 10 619 10C607 11 563 11 516 10C527 29 537 57 541 77C604 77 646 76 673 65C701 53 709 36 709 -3V-190H941Z"/>
</svg>