<svg xmlns="http://www.w3.org/2000/svg" viewBox="0 -1000 1000 1000">
	<path fill="#000000" d="M132 -593H191V-357H132ZM294 -357H239V-593H294ZM265 -226C279 -192 294 -152 306 -113L245 -101V-294H347V-656H246V-832H184V-656H77V-247H132V-294H185V-89C133 -79 85 -70 46 -64L58 8C134 -9 229 -28 324 -49C329 -26 334 -4 337 15L389 -1C377 -66 347 -165 314 -241ZM619 -820C562 -789 458 -759 367 -739C375 -726 385 -702 388 -687C422 -694 460 -702 496 -712V-539H380V-475H488C459 -364 408 -244 356 -184C371 -173 392 -152 403 -136C437 -182 470 -253 496 -331V77H562V-341C587 -303 614 -260 626 -236L667 -287C652 -309 589 -390 562 -422V-475H669V-539H562V-730C603 -742 642 -756 674 -771ZM758 -724H696V-146H758ZM850 -822V-6C850 8 845 13 830 13C818 13 774 13 725 12C734 31 744 60 747 78C814 78 855 76 881 64C906 53 916 34 916 -7V-822Z"/>
</svg>