<svg xmlns="http://www.w3.org/2000/svg" viewBox="0 -1000 1000 1000">
	<path fill="#000000" d="M944 -734C922 -763 873 -806 832 -834L789 -799C829 -769 876 -723 899 -694ZM128 -599H190V-351H128ZM309 -351H240V-599H309ZM284 -219C294 -187 304 -151 312 -115L243 -99V-288H363V-662H244V-831H185V-662H76V-240H128V-288H186V-86C133 -74 83 -64 44 -56L56 12C133 -6 230 -29 326 -53C330 -29 334 -8 337 11L393 -1C383 -63 360 -156 337 -229ZM686 -217C577 -190 468 -164 393 -148L407 -81C488 -102 592 -129 692 -156ZM592 -317H477V-481H592ZM420 -539V-258H653V-539ZM869 -521C849 -439 824 -361 792 -291C781 -385 772 -496 768 -618H954V-686H766C765 -735 765 -785 765 -836H695C696 -785 696 -735 698 -686H390V-618H700C707 -456 719 -309 738 -192C683 -101 614 -25 529 31C545 43 572 66 582 79C649 30 708 -31 758 -101C787 11 825 79 880 79C938 79 958 36 969 -92C953 -100 931 -114 917 -130C914 -31 905 10 889 10C859 10 830 -62 808 -181C861 -275 903 -385 935 -508Z"/>
</svg>