<svg xmlns="http://www.w3.org/2000/svg" viewBox="0 -1000 1000 1000">
	<path fill="#000000" d="M922 -551H689V-628H904V-680H689V-753C766 -761 838 -774 894 -790L848 -838C749 -809 559 -792 406 -784C414 -769 422 -747 424 -733C486 -735 554 -739 621 -745V-551H517V-690H450V-551H401V-491H921ZM926 -381C929 -399 941 -426 951 -440C895 -439 597 -439 557 -439C442 -439 352 -444 283 -463C328 -512 362 -571 384 -644L343 -664L331 -661H229C271 -704 318 -755 359 -802H79V-742H224C179 -694 131 -643 88 -605H300C281 -559 253 -521 219 -488C185 -507 158 -533 137 -567L84 -544C108 -503 137 -472 172 -449C130 -418 82 -395 30 -378C44 -368 66 -341 74 -326C133 -348 188 -377 236 -416C313 -389 415 -381 558 -381ZM536 -110H772L720 -85C741 -68 762 -49 784 -29C701 -27 617 -25 536 -24ZM228 -166V-258H463V-166ZM778 -258V-166H536V-258ZM952 52C917 7 844 -62 782 -110H851V-314H536V-374H463V-314H158V-110H463V-23C317 -20 184 -19 84 -18L88 50C277 46 569 39 843 30C862 51 878 70 891 86Z"/>
</svg>