<svg xmlns="http://www.w3.org/2000/svg" viewBox="0 -1000 1000 1000">
	<path fill="#000000" d="M121 -593H198V-358H121ZM321 -358H244V-593H321ZM300 -239C310 -211 321 -179 330 -147L253 -124V-295H375V-657H254V-833H194V-656H69V-248H121V-295H190V-104C135 -89 84 -74 44 -63L59 4C140 -20 244 -53 347 -86C354 -60 360 -35 364 -14L417 -32C405 -92 377 -183 351 -254ZM558 -121H799V-178H558ZM712 -547H642V-636H712ZM853 -489V-296C851 -295 847 -295 842 -295H783C766 -295 763 -298 763 -316V-489ZM500 -35V-249C512 -243 532 -228 540 -219C619 -294 639 -402 642 -489H712V-316C712 -261 726 -248 776 -248H849H853V-35ZM592 -489C589 -412 571 -320 500 -251V-489ZM954 -636V-696H794C820 -730 846 -770 869 -807L809 -833C789 -793 755 -737 726 -696H596L638 -721C621 -752 586 -801 556 -836L503 -809C530 -774 561 -727 578 -696H409V-636H592V-547H436V76H500V24H853V70H920V-547H763V-636Z"/>
</svg>