<svg xmlns="http://www.w3.org/2000/svg" viewBox="0 -1000 1000 1000">
	<path fill="#000000" d="M135 -595H201V-348H135ZM319 -348H248V-595H319ZM289 -214C298 -188 306 -159 314 -129L252 -113V-285H373V-658H252V-831H197V-658H81V-232H135V-285H197V-98C143 -83 93 -70 55 -62L64 7C137 -15 234 -41 330 -69C338 -34 345 0 348 29L401 9C391 -57 366 -155 341 -231ZM487 27C520 -23 535 -107 545 -175L496 -191C488 -124 469 -43 439 6ZM577 -179C588 -116 598 -33 599 15L651 2C649 -43 638 -124 626 -187ZM667 -188C689 -135 714 -64 725 -22L771 -41C760 -81 733 -150 711 -203ZM869 -91C855 -124 821 -179 795 -221L755 -203C780 -161 812 -103 827 -68ZM831 -433C828 -396 824 -353 820 -314H516C532 -351 546 -392 558 -433ZM787 -625C784 -584 780 -535 776 -494H573C583 -536 591 -580 599 -625ZM885 -314C891 -371 897 -436 899 -494L852 -498L841 -494H840C846 -553 852 -624 855 -686L808 -690L797 -687H608C615 -737 621 -788 626 -841L555 -847C550 -792 545 -738 538 -687H478L529 -713C514 -745 483 -795 456 -832L401 -808C426 -770 456 -719 471 -687H400V-625H529C501 -449 454 -300 367 -198C380 -182 401 -147 408 -131C438 -167 465 -208 488 -252H887C875 -80 862 -12 845 6C837 15 828 17 813 17C798 17 761 16 720 12C729 29 735 54 736 72C778 75 820 75 843 73C868 71 885 65 901 46C927 18 941 -64 955 -284C956 -294 957 -314 957 -314Z"/>
</svg>