<svg xmlns="http://www.w3.org/2000/svg" viewBox="0 -1000 1000 1000">
	<path fill="#000000" d="M946 -551H708V-607H886V-661H708V-715H918V-772H708V-834H642V-772H436V-715H642V-661H463V-607H642V-551H402V-494H946ZM127 -598H194V-351H127ZM305 -351H240V-598H305ZM279 -230C289 -199 299 -161 307 -125L244 -109V-288H358V-661H244V-832H189V-661H72V-236H127V-288H189V-95C139 -82 92 -70 54 -61L63 4C134 -15 226 -41 320 -67C325 -43 328 -19 331 1L386 -21C377 -83 355 -176 332 -249ZM668 -131C678 -165 686 -200 691 -232H810C808 -193 806 -159 803 -131ZM515 -131C519 -162 523 -197 526 -232H630C624 -200 616 -165 604 -131ZM641 -385V-367C641 -344 640 -317 637 -289H532C535 -321 538 -354 541 -385ZM701 -385H816C814 -350 813 -318 812 -289H698C700 -317 701 -344 701 -367ZM957 -232V-289H878C880 -325 881 -366 883 -412C883 -420 884 -443 884 -443H481C478 -396 473 -343 468 -289H388V-232H462C455 -172 447 -116 440 -73H579C556 -30 527 12 487 51C502 58 528 72 541 83C589 35 622 -18 646 -73H797C792 -32 785 -9 777 -1C771 11 763 13 749 13C735 13 703 12 667 9C676 24 683 47 683 64C720 66 757 67 778 64C803 63 821 55 836 36C848 20 857 -11 864 -73H945V-131H870C872 -159 874 -194 876 -232Z"/>
</svg>