<svg xmlns="http://www.w3.org/2000/svg" viewBox="0 -1000 1000 1000">
	<path fill="#000000" d="M674 -558V-440C674 -431 671 -427 659 -427C649 -427 611 -427 568 -428C577 -411 585 -390 588 -372C647 -372 685 -372 709 -382C734 -391 740 -406 740 -439V-558H862C844 -523 823 -488 806 -462L864 -444C893 -485 927 -549 958 -606L909 -622L897 -619H763C751 -628 736 -638 719 -647C782 -682 846 -729 892 -778L848 -810L832 -807H461V-749H768C738 -724 702 -698 667 -679C635 -697 600 -715 568 -728L526 -691C568 -673 618 -645 660 -619H413V-558H595C541 -499 464 -446 398 -416C412 -403 433 -381 443 -365C519 -406 607 -482 664 -558ZM191 -593V-358H126V-593ZM307 -358H238V-593H307ZM390 -1C381 -68 358 -169 335 -248L284 -234C294 -198 305 -157 314 -116L246 -103V-295H363V-656H246V-832H185V-656H71V-241H121V-295H184V-90C131 -80 81 -72 42 -65L55 8C132 -9 229 -32 326 -55C331 -30 335 -6 337 15ZM553 -165C511 -91 431 -16 357 19C372 32 394 56 405 72C481 28 563 -59 608 -144ZM945 -203V-266H706V-360H636V-266H408V-203H636V77H706V-203ZM720 -135C785 -73 865 16 901 71L954 33C916 -22 835 -107 769 -168Z"/>
</svg>