<svg xmlns="http://www.w3.org/2000/svg" viewBox="0 -1000 1000 1000">
	<path fill="#000000" d="M191 -593V-357H129V-593ZM305 -357H239V-593H305ZM397 10C388 -57 364 -158 341 -236L288 -222C298 -188 308 -148 317 -109L247 -97V-294H366V-656H249V-832H184V-656H69V-240H122V-294H183V-86C130 -77 80 -70 40 -64L51 8C130 -7 231 -25 330 -44C335 -18 339 5 341 26ZM910 -400H466V-235C466 -152 458 -42 395 41C411 48 439 70 450 84C521 -8 534 -139 534 -234V-342H839V-182C726 -155 610 -128 530 -113L555 -52C636 -72 739 -99 839 -124V-5C839 6 835 10 822 10C810 11 768 11 720 10C730 28 740 54 742 73C808 73 850 73 876 61C902 50 910 32 910 -5ZM556 -264C630 -249 727 -219 778 -198L802 -248C751 -269 654 -295 581 -308ZM722 -596H902V-653H722V-740H876C869 -715 861 -691 854 -673L911 -658C927 -691 944 -744 958 -790L911 -802L899 -799H415V-740H654V-522C611 -537 578 -565 554 -613C561 -643 566 -675 570 -709L503 -714C493 -598 464 -508 394 -449C409 -440 435 -418 445 -406C484 -442 514 -488 535 -543C590 -464 670 -445 788 -445H943C945 -462 954 -490 964 -505C933 -504 812 -504 792 -504C767 -504 744 -505 722 -508Z"/>
</svg>