<svg xmlns="http://www.w3.org/2000/svg" viewBox="0 -1000 1000 1000">
	<path fill="#000000" d="M129 -595H190V-348H129ZM303 -348H242V-595H303ZM544 -635C552 -660 560 -689 567 -718H783C779 -693 775 -664 769 -635ZM887 -411C840 -377 764 -333 700 -301C679 -335 654 -368 620 -397C646 -416 669 -438 691 -459H957V-521H813C829 -601 848 -695 860 -768L811 -776L799 -772H580C585 -793 590 -813 594 -832L525 -840C509 -757 483 -649 462 -581H758C754 -560 750 -540 746 -521H395V-459H609C549 -409 470 -366 395 -337C408 -325 429 -300 436 -287C481 -308 528 -334 573 -364C589 -349 603 -334 616 -317C562 -269 475 -219 404 -196C418 -183 435 -160 444 -145C509 -174 589 -223 644 -271C655 -252 664 -231 670 -210C607 -140 490 -64 390 -28C379 -89 359 -166 338 -228L285 -215C296 -182 307 -143 316 -106L247 -92V-285H359V-658H248V-832H186V-658H74V-232H129V-285H186V-81C133 -70 83 -61 44 -55L53 12C131 -4 230 -24 330 -45C334 -20 338 2 341 22L396 6L394 -7C404 5 414 19 420 29C509 -8 613 -76 685 -146C694 -78 681 -22 659 -2C644 15 628 17 608 17C589 17 567 15 540 12C552 32 557 58 557 76C580 77 603 78 620 77C657 77 680 71 705 48C756 6 775 -125 724 -250C742 -258 761 -267 779 -276C803 -153 846 -40 915 20C926 3 946 -21 962 -33C896 -84 854 -190 831 -304C869 -324 905 -346 936 -367Z"/>
</svg>