<svg xmlns="http://www.w3.org/2000/svg" viewBox="0 -1000 1000 1000">
	<path fill="#000000" d="M128 -595H194V-348H128ZM316 -348H243V-595H316ZM294 -214C303 -183 313 -148 322 -113L248 -97V-285H372V-658H247V-831H190V-658H72V-232H128V-285H190V-85C135 -73 84 -63 44 -56L53 13C131 -4 233 -27 335 -51C341 -20 347 8 350 33L406 14C396 -51 371 -151 347 -229ZM507 -478V-591H646V-478ZM852 -591V-478H708V-591ZM936 -331H708V-417H914V-652H708V-738C787 -747 863 -759 923 -775L873 -832C770 -804 582 -785 427 -776C434 -760 442 -734 444 -717C509 -720 577 -725 646 -731V-652H448V-417H646V-331H484V-371H423V-331H388V-270H423V75H484V-270H646V-144C591 -139 542 -135 502 -132L510 -70C591 -77 699 -89 807 -100C813 -80 819 -61 823 -45L865 -64C853 -112 822 -184 788 -238L749 -221C761 -201 772 -178 783 -156L708 -149V-270H874V6C874 17 871 20 859 20C850 21 812 21 772 20C780 36 788 60 791 78C848 78 885 78 907 67C930 57 936 40 936 6Z"/>
</svg>