<svg xmlns="http://www.w3.org/2000/svg" viewBox="0 -1000 1000 1000">
	<path fill="#000000" d="M765 -697C744 -655 714 -609 688 -576H509C539 -612 568 -653 593 -697ZM832 -437H545V-517H832ZM832 -301H545V-382H832ZM832 -163H545V-245H832ZM477 -104H904V-576H767C803 -623 838 -678 865 -730L817 -762L804 -758H625C635 -779 644 -799 652 -821L589 -839C551 -732 481 -633 403 -568C417 -554 439 -527 448 -513C458 -522 467 -532 477 -542ZM134 -596H212V-348H134ZM341 -348H264V-596H341ZM437 -24C425 -85 395 -176 366 -247L310 -231C323 -196 337 -155 350 -115L271 -102V-285H399V-658H270V-830H207V-658H76V-233H134V-285H205V-91C144 -80 86 -71 41 -65L52 4C140 -12 254 -34 367 -55C371 -37 374 -21 377 -7ZM588 -102C549 -56 472 2 401 33C419 44 444 66 457 79C523 45 604 -14 653 -68ZM742 -64C800 -19 865 38 903 78L966 39C925 -1 856 -57 793 -101Z"/>
</svg>