<svg xmlns="http://www.w3.org/2000/svg" viewBox="0 -1000 1000 1000">
	<path fill="#000000" d="M829 -160V-23H579V-160ZM513 76H579V37H829V73H897V-220H513ZM832 -346H722V-419H832ZM722 -547H832V-476H722ZM130 -595H197V-348H130ZM322 -348H249V-595H322ZM894 -476V-602H722V-661H658V-602H520V-547H658V-476H488V-676H946V-738H750C737 -769 711 -812 687 -844L620 -824C637 -799 656 -766 670 -738H423V-427C423 -324 419 -195 386 -79C376 -125 361 -180 347 -224L296 -214C305 -185 315 -152 323 -119L254 -104V-285H382V-658H254V-831H192V-658H71V-232H130V-285H192V-89C136 -76 85 -65 44 -56L56 13C136 -9 235 -35 335 -64C337 -50 339 -38 340 -27L370 -34C360 -9 350 15 336 37C351 44 378 66 389 78C473 -63 488 -270 488 -419H658V-346H517V-291H658V-224H722V-291H894V-419H956V-476Z"/>
</svg>