<svg xmlns="http://www.w3.org/2000/svg" viewBox="0 -1000 1000 1000">
	<path fill="#000000" d="M557 -139C521 -78 451 -12 385 17C401 30 420 53 431 68C498 31 569 -47 606 -119ZM713 -107C773 -53 848 24 885 71L928 30C890 -15 814 -89 755 -143ZM307 -358H238V-593H307ZM191 -593V-358H126V-593ZM951 -487H614C626 -509 635 -534 643 -559H898V-615H660C666 -637 672 -659 676 -682H919V-740H686C691 -768 695 -798 698 -829L631 -836C628 -803 624 -770 619 -740H416V-682H609C604 -658 598 -637 592 -615H428V-559H575C565 -534 554 -509 542 -487H391V-428H505C468 -377 422 -334 363 -301V-656H246V-833H185V-656H71V-241H121V-295H184V-86C131 -78 82 -70 42 -64L53 9C132 -6 229 -25 328 -43C333 -18 336 6 339 25L392 11C383 -56 360 -157 336 -236L285 -223C295 -188 306 -147 315 -108L246 -96V-295H363V-296C377 -283 401 -259 410 -248C446 -271 478 -297 507 -326C511 -314 517 -299 519 -288C553 -291 589 -295 624 -300V-218H428V-160H624V76H687V-160H874V-218H687V-312C722 -319 756 -327 784 -337L738 -386C687 -367 598 -350 518 -339C543 -367 564 -396 584 -428H730C771 -356 842 -288 914 -246C921 -263 935 -291 948 -306C894 -332 838 -377 800 -428H951Z"/>
</svg>