<svg xmlns="http://www.w3.org/2000/svg" viewBox="0 -1000 1000 1000">
	<path fill="#000000" d="M832 -565C867 -565 902 -566 919 -571C916 -587 914 -610 912 -629C893 -625 853 -623 828 -623H649C621 -623 615 -633 615 -661V-704H882V-759H615V-830H546V-662C546 -593 565 -565 643 -565ZM836 -290C905 -290 925 -312 933 -400C914 -404 887 -413 872 -422C869 -356 862 -346 829 -346H669C623 -346 615 -351 615 -374V-441H890V-496H615V-549H546V-374C546 -307 570 -290 662 -290ZM526 -639C497 -681 438 -748 391 -795L340 -768C356 -751 372 -733 388 -714L175 -699C215 -733 255 -774 290 -816L223 -839C185 -783 125 -729 107 -715C90 -700 75 -691 60 -689C68 -673 78 -640 82 -626C103 -635 138 -639 430 -663C448 -642 462 -623 473 -606ZM178 -557H393V-441C311 -418 231 -394 173 -382L197 -329C254 -348 324 -372 393 -396V-337C393 -326 389 -323 378 -323C368 -322 331 -322 289 -323C297 -308 307 -288 310 -273C368 -273 405 -272 427 -281C452 -291 458 -305 458 -336V-610H114V-473C114 -417 109 -349 61 -297C76 -290 103 -267 113 -255C169 -315 178 -402 178 -472ZM193 -502C244 -484 314 -455 349 -437L375 -476C339 -494 271 -520 219 -537ZM539 -77H764L732 -61C749 -49 766 -33 784 -17C703 -16 619 -15 539 -14ZM228 -129V-198H466V-129ZM773 -198V-129H539V-198ZM942 55C913 19 856 -36 804 -77H846V-250H539V-301H466V-250H159V-77H466V-14C322 -13 189 -12 85 -13L89 53C286 51 570 45 840 39C857 57 872 74 883 88Z"/>
</svg>