<svg xmlns="http://www.w3.org/2000/svg" viewBox="0 -1000 1000 1000">
	<path fill="#000000" d="M499 -679H308V-730H454V-778H308V-836H243V-778H95V-730H243V-679H49V-630H499ZM535 -19V-104H753L707 -79C728 -63 752 -45 774 -25ZM226 -159V-246H463V-159ZM776 -246V-159H535V-246ZM850 -104V-302H535V-350H504C570 -388 611 -437 640 -500C681 -475 719 -448 745 -426L783 -477C753 -500 709 -531 660 -559C671 -595 678 -636 683 -680H783C787 -467 800 -337 897 -337C948 -337 961 -376 967 -478C953 -486 935 -501 923 -515C921 -446 917 -397 902 -397C853 -397 848 -535 848 -739H689C691 -770 693 -803 694 -837H630C629 -803 627 -770 625 -739H509V-680H620C616 -648 611 -618 604 -590C581 -602 558 -614 537 -624L502 -578C528 -565 557 -549 585 -533C564 -483 534 -442 487 -411V-455H310V-508H462V-557H393C403 -574 414 -593 424 -614L367 -630C360 -609 346 -581 332 -557H227C219 -579 203 -606 188 -627L134 -611C145 -595 156 -576 165 -557H86V-508H245V-455H62V-405H245V-324H310V-405H479C474 -401 467 -398 461 -394C474 -385 492 -364 500 -350H463V-302H155V-104H463V-17C312 -14 176 -11 75 -10L81 56C272 52 562 41 834 30C856 51 874 70 888 87L946 50C909 7 836 -58 772 -104Z"/>
</svg>