<svg xmlns="http://www.w3.org/2000/svg" viewBox="0 -1000 1000 1000">
	<path fill="#000000" d="M151 -750H271C251 -709 224 -659 197 -615C267 -568 289 -528 290 -494C290 -473 283 -458 268 -452C261 -448 251 -445 240 -445C223 -444 202 -444 176 -446C187 -432 195 -410 196 -394C220 -393 246 -393 267 -395C284 -397 301 -402 315 -409C342 -423 357 -451 356 -490C355 -530 334 -574 266 -623C297 -672 332 -732 362 -783L314 -807L303 -804H85V-297H151ZM532 -82H751L711 -55C727 -44 745 -31 761 -17C684 -14 606 -12 532 -10ZM237 -134V-214H459V-134ZM755 -214V-134H532V-214ZM830 -82V-266H532V-322H459V-266H165V-82H459V-8C319 -4 192 -1 97 0L102 58C282 54 557 43 816 32C836 51 853 67 865 82L912 46C880 10 816 -45 762 -82ZM471 -555H611V-504H471ZM471 -646H611V-597H471ZM816 -646V-597H682V-646ZM816 -504H682V-555H816ZM885 -459V-691H682V-731H928V-781H682V-835H611V-781H374V-731H611V-691H404V-459H552C495 -415 411 -378 332 -359C348 -348 369 -327 379 -313C462 -338 551 -386 611 -439V-298H682V-448C740 -392 830 -339 911 -314C922 -329 944 -349 959 -360C885 -380 802 -417 746 -459Z"/>
</svg>