<svg xmlns="http://www.w3.org/2000/svg" viewBox="0 -1000 1000 1000">
	<path fill="#000000" d="M771 -704C759 -739 733 -792 710 -832L647 -808C667 -766 693 -711 705 -676ZM682 -527H525V-609H682ZM682 -385H525V-468H682ZM682 -240H525V-327H682ZM458 -152H525V-177H949V-240H748V-327H912V-385H748V-468H910V-527H748V-609H935V-671H536C556 -719 574 -770 588 -821L522 -837C490 -718 437 -600 371 -524C385 -510 409 -480 419 -466C433 -483 445 -501 458 -521ZM125 -595H189V-348H125ZM307 -348H236V-595H307ZM393 -4C384 -65 360 -159 337 -230L286 -214C294 -187 303 -155 311 -123L240 -105V-285H361V-658H240V-831H185V-658H70V-232H125V-285H185V-90C132 -76 82 -64 44 -56L53 13C127 -8 227 -36 326 -64C332 -34 336 -7 339 16ZM434 81C475 30 506 -51 526 -114L469 -136C450 -76 416 1 377 48ZM567 -115C580 -58 590 17 590 66L650 56C649 8 638 -66 624 -123ZM687 -117C712 -61 736 14 743 63L802 46C793 -2 769 -75 743 -131ZM809 -125C843 -64 885 20 904 73L966 47C946 -4 904 -84 867 -146Z"/>
</svg>