<svg xmlns="http://www.w3.org/2000/svg" viewBox="0 -1000 1000 1000">
	<path fill="#000000" d="M943 -748H705C693 -776 667 -818 641 -848L583 -820C600 -799 616 -772 628 -748H393V-691H943ZM733 -469H592V-518H733ZM786 -557H540V-430H786ZM848 -389H482V-599H848ZM912 -648H421V-341H912ZM519 -153H811V-96H519ZM519 -253H811V-197H519ZM881 -51V-298H452V-51ZM132 -595H197V-348H132ZM315 -348H248V-595H315ZM406 -30C398 -84 378 -165 357 -228L305 -215C314 -188 322 -157 330 -126L253 -107V-285H370V-658H253V-831H192V-658H78V-232H132V-285H192V-91C136 -77 85 -65 44 -55L55 11C134 -10 239 -39 343 -68C347 -48 350 -30 351 -15ZM375 -5V53H958V-5Z"/>
</svg>