<svg xmlns="http://www.w3.org/2000/svg" viewBox="0 -1000 1000 1000">
	<path fill="#000000" d="M698 -673C662 -617 613 -576 552 -545C477 -564 399 -582 319 -598C340 -621 362 -646 384 -673ZM905 -442C833 -468 741 -495 638 -523C697 -561 745 -609 780 -673H924V-734H808C812 -747 817 -760 821 -774L743 -785C739 -767 733 -750 727 -734H431C453 -763 472 -794 489 -822L416 -843C397 -808 372 -771 345 -734H69V-673H297C264 -633 231 -596 201 -566C289 -548 375 -529 457 -509C352 -479 226 -466 80 -462C91 -445 108 -415 112 -397C289 -409 441 -430 560 -482C671 -452 768 -421 841 -393ZM370 -258C361 -212 340 -160 292 -111C255 -129 218 -145 183 -160C200 -187 217 -218 234 -249ZM474 -10C442 -31 399 -56 351 -81C407 -141 428 -205 436 -263L485 -266V-323L441 -320V-333V-358H377V-335V-316L264 -310C276 -333 286 -357 295 -379L228 -391C217 -365 205 -335 191 -307C136 -304 87 -302 46 -300L53 -239L158 -246C136 -206 112 -168 91 -137C140 -119 193 -95 243 -70C197 -36 134 -4 50 25C62 36 80 59 88 74C183 41 253 3 303 -38C351 -13 393 13 424 34ZM812 -254C793 -192 763 -142 723 -103C682 -124 640 -144 600 -162C615 -189 631 -221 647 -254ZM955 -254V-316H900C902 -328 904 -340 906 -352L833 -356C831 -342 829 -329 827 -316H675C687 -343 698 -370 707 -395L640 -407C630 -379 618 -347 605 -316H503V-254H575C554 -211 531 -170 511 -137C563 -116 618 -90 672 -62C619 -27 554 -2 474 15C487 29 507 59 513 74C603 50 677 17 736 -28C801 9 859 45 900 75L951 30C909 1 849 -35 784 -71C829 -119 863 -179 884 -254Z"/>
</svg>