<svg xmlns="http://www.w3.org/2000/svg" viewBox="0 -1000 1000 1000">
	<path fill="#000000" d="M524 -711C513 -741 484 -786 456 -820L413 -791C440 -757 468 -709 480 -677ZM599 -656H358V-596H599ZM581 -524H385V-464H581ZM385 -330H581V-390H385ZM121 -595H174V-348H121ZM273 -348H221V-595H273ZM256 -215C266 -181 277 -142 286 -103L224 -90V-285H324V-658H224V-831H170V-658H71V-232H121V-285H170V-79C122 -69 77 -61 42 -55L50 12C120 -4 209 -22 299 -43C304 -16 308 10 311 32L361 16C352 -51 328 -151 303 -228ZM534 -189V-52H432V-189ZM376 66H432V7H534V50H592V-249H376ZM781 -657H863C843 -611 820 -567 795 -526H781ZM864 -198H749V-300H864ZM749 -31V-137H864V-31ZM903 -765C894 -733 882 -701 869 -671V-719H781V-831H723V-719H626V-657H723V-526H606V-463H752C699 -394 639 -335 571 -290C585 -276 606 -250 614 -236C640 -256 665 -276 689 -299V76H749V32H864V68H926V-363H750C776 -394 802 -428 825 -463H951V-526H863C902 -594 935 -670 961 -750Z"/>
</svg>