<svg xmlns="http://www.w3.org/2000/svg" viewBox="0 -1000 1000 1000">
	<path fill="#000000" d="M946 -762H714C705 -787 690 -820 673 -844L615 -826C625 -807 636 -784 645 -762H396V-704H946ZM127 -595H193V-348H127ZM303 -348H243V-595H303ZM285 -215C295 -182 306 -144 315 -107L247 -93V-285H357V-658H247V-831H188V-658H74V-232H127V-285H188V-81C134 -71 84 -62 44 -55L53 12C129 -4 230 -25 328 -47C334 -18 338 9 341 32L394 16C385 -51 360 -151 335 -228ZM596 -289H741V-235H596ZM596 -392H741V-339H596ZM488 -619H590V-542H488ZM753 -619H858V-542H753ZM899 -167C871 -146 825 -117 785 -96C764 -121 746 -151 731 -181H956V-235H807V-289H917V-339H807V-392H935V-442H807V-496H915V-664H698V-496H741V-442H596V-496H647V-664H433V-496H531V-442H414V-392H531V-339H431V-289H531V-235H384V-181H581C527 -141 453 -108 382 -87C393 -75 412 -50 418 -38C449 -49 483 -62 514 -79V-52C514 -8 490 17 477 28C487 39 502 62 508 76C524 66 549 57 717 18C715 4 714 -21 714 -39L572 -10V-111C605 -132 636 -156 660 -181H671C718 -59 805 32 928 72C936 55 953 32 967 18C911 3 862 -24 822 -59C860 -79 904 -103 939 -129Z"/>
</svg>