<svg xmlns="http://www.w3.org/2000/svg" viewBox="0 -1000 1000 1000">
	<path fill="#000000" d="M948 -596C913 -648 840 -727 778 -784L724 -754C785 -696 857 -614 889 -563ZM654 -836H584V-541H654ZM446 -779C415 -706 366 -629 316 -576C333 -567 362 -549 375 -538C423 -595 476 -680 512 -760ZM311 -759C275 -779 211 -811 163 -830L121 -784C169 -764 234 -730 268 -709ZM115 -342C168 -394 234 -458 294 -519L266 -571C194 -504 118 -435 69 -394ZM240 -636C204 -656 139 -685 90 -703L51 -656C100 -637 165 -605 201 -583ZM683 -231C647 -173 598 -129 535 -94C468 -111 398 -126 328 -140C352 -167 376 -199 401 -231ZM736 -347C730 -329 725 -312 718 -296H446C462 -320 476 -343 489 -366L415 -385C625 -420 772 -488 836 -620L770 -640C701 -510 534 -455 290 -434C303 -418 315 -392 321 -371C354 -375 384 -379 414 -384C399 -357 380 -326 360 -296H62V-231H314C277 -184 240 -139 207 -105C288 -89 366 -72 442 -54C349 -22 233 -4 90 5C103 22 115 49 120 71C302 55 444 27 553 -25C671 6 774 39 849 71L910 17C835 -12 738 -42 629 -70C689 -113 735 -164 770 -231H940V-296H798C802 -306 806 -317 809 -327Z"/>
</svg>