<svg xmlns="http://www.w3.org/2000/svg" viewBox="0 -1000 1000 1000">
	<path fill="#000000" d="M942 -766H697V-698H942ZM556 -548V-318H443V-548ZM379 -318H286V-248H706V-318H621V-548H689V-618H621V-829H556V-618H443V-829H379V-618H310V-548H379ZM212 -836C176 -768 102 -687 34 -636C47 -622 66 -597 76 -581C151 -639 231 -730 279 -812ZM241 -637C190 -527 106 -422 20 -352C34 -336 56 -302 64 -286C94 -312 123 -343 152 -377V77H221V-466C254 -514 284 -564 308 -615ZM383 -199C361 -114 321 -29 271 29C288 38 319 59 331 70C381 8 427 -88 455 -183ZM546 -174C582 -113 622 -30 636 24L699 -5C683 -58 645 -137 606 -198ZM959 -500H672V-430H797V-9C797 3 794 7 781 7C769 8 727 8 681 6C691 26 700 56 702 76C766 76 807 75 833 64C859 51 867 30 867 -9V-430H959Z"/>
</svg>