<svg xmlns="http://www.w3.org/2000/svg" viewBox="0 -1000 1000 1000">
	<path fill="#000000" d="M289 -713C272 -746 236 -799 206 -839L153 -804C182 -764 217 -708 233 -673ZM364 -470C345 -443 316 -406 289 -376C278 -389 267 -400 259 -409V-411C306 -480 348 -556 377 -633L339 -663L326 -660H51V-592H290C231 -467 128 -338 32 -264C43 -251 61 -213 68 -194C108 -228 151 -271 191 -320V76H259V-326C295 -278 338 -220 358 -188L400 -248C387 -263 355 -302 322 -339C349 -364 381 -399 410 -429ZM956 -451H726V-707H926V-778H463V-707H653V-451H426V-380H653V-17C653 -1 648 4 632 4C617 5 566 5 512 3C523 24 534 56 538 77C609 77 658 76 687 63C716 51 726 28 726 -16V-380H956Z"/>
</svg>