<svg xmlns="http://www.w3.org/2000/svg" viewBox="0 -1000 1000 1000">
	<path fill="#000000" d="M625 -610C573 -578 507 -549 433 -526C411 -541 383 -556 361 -568L307 -543C327 -533 350 -519 369 -506C279 -481 184 -462 99 -451C109 -439 125 -417 131 -402C346 -435 619 -512 748 -634L704 -660L691 -657H473C491 -669 509 -681 523 -693L485 -707H938V-761H545C533 -786 513 -816 494 -839L427 -820C440 -802 454 -781 463 -761H60V-707H457C378 -648 240 -603 116 -577C130 -566 150 -541 157 -531C231 -550 312 -577 384 -610ZM806 -220C765 -188 699 -144 643 -113C599 -142 560 -173 532 -208C544 -216 555 -224 564 -233L512 -255C668 -298 807 -359 891 -447L845 -476L832 -473H816V-472H621C637 -484 652 -495 664 -507L606 -528C519 -447 350 -390 194 -357C207 -347 227 -322 235 -311C336 -336 447 -373 538 -421H765C708 -382 633 -348 548 -322C524 -341 496 -359 470 -374L419 -349C440 -337 464 -320 484 -304C366 -273 235 -253 114 -244C126 -230 139 -205 144 -190C255 -201 373 -220 485 -249C390 -178 219 -121 45 -82C57 -70 76 -46 84 -31C148 -47 211 -64 271 -84V-50C271 -7 249 13 234 23C246 35 261 61 266 77C285 65 314 55 526 4C523 -9 521 -35 521 -53L340 -12V-109C392 -130 440 -152 482 -177C579 -58 742 26 915 63C925 44 943 19 958 5C866 -11 776 -42 699 -81C753 -109 812 -146 861 -182Z"/>
</svg>