<svg xmlns="http://www.w3.org/2000/svg" viewBox="0 -1000 1000 1000">
	<path fill="#000000" d="M288 -705C273 -740 240 -793 212 -834L152 -805C179 -763 212 -707 225 -672ZM384 -260C373 -273 348 -305 320 -336C348 -361 379 -393 409 -423L358 -465C341 -439 312 -403 286 -374C274 -388 263 -400 255 -409C302 -480 343 -558 371 -635L331 -663L318 -660H51V-592H282C226 -467 127 -337 35 -261C46 -249 65 -213 72 -194C109 -226 147 -266 183 -311V76H251V-327C284 -284 321 -232 339 -203ZM894 -351C868 -318 824 -274 787 -241C770 -285 756 -332 745 -381H946V-447H502V-475V-553H906V-617H502V-718H928V-783H435V-475C435 -322 426 -114 331 33C349 39 378 56 391 68C470 -58 494 -233 500 -381H571V-49C571 -11 551 10 536 19C547 34 562 64 567 81C582 66 605 52 754 -18C750 -32 745 -59 743 -76L632 -28V-381H688C727 -192 799 -27 916 56C926 38 948 13 965 0C900 -41 849 -109 810 -191C851 -223 901 -267 942 -308Z"/>
</svg>