<svg xmlns="http://www.w3.org/2000/svg" viewBox="0 -1000 1000 1000">
	<path fill="#000000" d="M257 -705C242 -739 207 -790 176 -829L125 -802C153 -763 187 -708 202 -673ZM363 -254C353 -268 328 -301 302 -335C325 -363 351 -399 376 -434L329 -469C316 -441 293 -404 272 -374C260 -388 250 -402 241 -412C280 -484 314 -560 338 -636L300 -662L287 -659H56V-593H257C207 -461 120 -324 37 -244C48 -232 68 -199 76 -181C106 -212 138 -251 168 -295V72H235V-335C266 -289 304 -231 321 -201ZM468 -187C470 -210 470 -233 470 -254V-269H600V-187ZM600 -404V-326H470V-404ZM661 -464H409V-254C409 -165 404 -50 351 37C365 43 391 63 401 75C438 16 455 -60 464 -131H600V-2C600 8 598 10 588 11C578 11 550 11 517 10C526 27 535 53 536 70C581 70 613 70 634 59C655 48 661 30 661 -2ZM841 -6C841 5 838 8 826 9C813 10 774 10 728 8C737 26 746 51 748 69C807 69 845 68 870 57C893 47 901 30 901 -6V-483H841ZM776 -447H719V-88H776ZM644 -841C583 -738 468 -639 356 -584C372 -569 392 -548 403 -531C430 -546 459 -563 485 -583V-532H810V-592H498C553 -633 605 -683 648 -736C722 -653 807 -594 903 -544C913 -563 932 -586 949 -600C848 -646 757 -700 683 -783C690 -794 697 -805 703 -815Z"/>
</svg>