<svg xmlns="http://www.w3.org/2000/svg" viewBox="0 -1000 1000 1000">
	<path fill="#000000" d="M632 -755H757V-701C757 -642 770 -620 830 -620H906C926 -620 946 -620 958 -624C956 -639 954 -660 952 -676C941 -673 918 -672 905 -672H836C822 -672 820 -679 820 -700V-807H571V-752C571 -715 556 -676 475 -644C488 -636 510 -612 519 -600C609 -639 632 -697 632 -751ZM921 -346C883 -370 828 -398 768 -425C818 -466 859 -516 885 -577L845 -593L834 -591H512V-540H798C775 -506 743 -476 707 -452C655 -473 601 -493 553 -509L522 -467C562 -453 606 -436 650 -418C605 -396 557 -379 508 -369C521 -357 535 -333 541 -319C603 -334 662 -358 715 -389C784 -358 847 -324 889 -296ZM242 -690C270 -667 299 -632 312 -608L354 -634C340 -658 310 -691 280 -713ZM200 -724H404V-599C333 -595 263 -592 200 -589ZM404 -401C404 -391 400 -387 388 -387C378 -387 339 -386 299 -388C309 -373 320 -348 324 -332C376 -332 412 -333 435 -343C460 -353 467 -369 467 -401V-553L485 -554L486 -603L467 -602V-776H319C327 -792 333 -808 341 -826L271 -837C268 -820 260 -798 253 -776H140V-587L45 -583L50 -527L139 -532C135 -466 116 -397 43 -345C56 -338 80 -317 89 -306C171 -365 195 -456 199 -536C263 -540 333 -544 404 -549ZM233 -496C261 -473 292 -440 305 -415L344 -444C331 -468 301 -501 271 -522ZM842 -199C804 -169 740 -128 687 -98C635 -131 591 -170 558 -213H946V-269H544C531 -293 510 -321 492 -344L433 -323C444 -307 457 -288 469 -269H55V-213H404C306 -151 163 -100 37 -75C53 -62 73 -37 83 -20C144 -35 211 -57 274 -85V-44C274 -1 240 21 221 31C232 43 247 66 253 81C273 69 307 62 576 15C574 2 573 -23 574 -40L337 -1V-113C393 -140 444 -172 486 -205C575 -72 728 20 915 61C925 43 943 17 959 3C880 -11 805 -36 740 -68C792 -94 851 -128 897 -163Z"/>
</svg>