<svg xmlns="http://www.w3.org/2000/svg" viewBox="0 -1000 1000 1000">
	<path fill="#000000" d="M510 -552H808V-612H531C579 -650 622 -692 658 -738C727 -666 834 -591 926 -546C932 -565 946 -595 959 -611C868 -649 757 -721 695 -788C703 -800 710 -811 716 -823L647 -845C595 -750 491 -652 375 -586C390 -576 413 -552 424 -538C453 -556 483 -575 510 -596ZM743 -416H848V-295H743ZM688 -238H904V-473H688ZM468 -416H568V-295H468ZM413 -238H625V-473H413ZM278 -713C262 -746 226 -798 196 -838L143 -804C171 -764 207 -708 223 -673ZM385 -248C374 -263 343 -300 312 -335C339 -361 373 -396 403 -429L356 -470C337 -442 306 -401 279 -372C267 -385 256 -396 247 -406C294 -477 335 -555 364 -633L324 -663L312 -660H51V-592H277C222 -466 123 -338 32 -264C43 -250 61 -213 67 -194C103 -225 141 -265 177 -309V76H245V-326C281 -278 324 -220 344 -188ZM498 -210C472 -107 416 -20 341 35C356 46 380 67 391 79C439 41 480 -10 513 -70C548 -45 583 -15 603 7L642 -43C619 -66 577 -98 537 -124C547 -147 555 -172 562 -197ZM769 -218C748 -110 694 -25 613 28C628 40 654 64 663 77C712 41 754 -6 785 -63C838 -23 894 26 924 60L969 10C936 -27 869 -80 811 -121C822 -148 830 -177 837 -208Z"/>
</svg>