<svg xmlns="http://www.w3.org/2000/svg" viewBox="0 -1000 1000 1000">
	<path fill="#000000" d="M453 -671H866V-571H938V-737H714C702 -768 680 -810 659 -842L594 -819C609 -795 623 -764 635 -737H383V-569H453ZM269 -558C266 -460 254 -344 209 -230C182 -256 153 -284 127 -309C144 -378 160 -464 175 -552ZM365 -59C340 -92 301 -136 257 -180C314 -313 328 -448 331 -562L375 -565V-630L332 -628V-695H270V-624L185 -620C197 -694 206 -767 212 -832L149 -835C144 -769 134 -692 124 -617L39 -613L47 -544L113 -548C96 -450 77 -356 59 -288C97 -251 139 -208 180 -166C145 -98 97 -33 30 27C46 37 69 58 79 71C142 13 190 -50 226 -116C262 -75 295 -36 317 -6ZM589 -459C581 -388 569 -327 555 -271C526 -296 490 -326 456 -350C470 -385 484 -421 496 -459ZM606 -519H512C518 -542 523 -564 528 -588L468 -599C445 -472 402 -352 340 -274C352 -260 368 -228 374 -214C395 -239 412 -267 429 -297C466 -269 506 -235 533 -206C492 -94 432 -19 353 30C366 41 391 65 400 81C542 -12 630 -195 657 -512L617 -521ZM785 10C771 10 763 9 755 6C746 2 742 -15 742 -42V-481H850V-237C850 -228 848 -225 838 -225C828 -224 798 -224 761 -225C769 -207 776 -183 779 -166C831 -166 865 -166 886 -176C908 -187 913 -205 913 -237V-539H681V-50C681 22 689 38 708 50C725 62 753 66 774 66H847C869 66 894 64 911 58C929 51 940 39 947 21C953 3 958 -46 959 -88C939 -94 917 -105 902 -117C901 -71 899 -35 897 -18C893 -4 885 3 878 6C871 9 855 10 840 10Z"/>
</svg>