<svg xmlns="http://www.w3.org/2000/svg" viewBox="0 -1000 1000 1000">
	<path fill="#000000" d="M859 -790C840 -760 805 -713 778 -684L824 -662C853 -688 890 -728 923 -766ZM615 -682C603 -710 578 -760 557 -797L505 -781C525 -742 549 -690 561 -660ZM428 -787C411 -759 377 -714 353 -686L397 -665C424 -690 458 -727 488 -764ZM197 -685C184 -713 157 -760 134 -795L84 -777C107 -739 132 -691 145 -661ZM80 -376H147V-466H852V-376H921V-517H886L925 -562C879 -594 792 -642 723 -678C741 -721 749 -774 753 -836H684C675 -689 643 -618 475 -578C488 -566 507 -540 512 -523C601 -546 657 -579 693 -625C756 -591 827 -547 870 -517H80ZM458 -573C422 -600 356 -642 303 -675C320 -718 328 -772 332 -836H266C258 -682 224 -610 50 -570C62 -558 80 -533 87 -517C179 -541 237 -574 274 -623C325 -591 382 -551 412 -526ZM295 -192H707V-141H295ZM295 -285H707V-236H295ZM295 -377H707V-328H295ZM687 5C641 5 633 1 633 -21V-97H780V-422H224V-97H337C306 -28 231 4 43 20C54 34 70 60 75 77C289 52 376 4 413 -97H560V-20C560 47 585 64 680 64H850C925 64 947 37 954 -72C935 -75 907 -85 892 -96C887 -7 881 5 842 5Z"/>
</svg>