<svg xmlns="http://www.w3.org/2000/svg" viewBox="0 -1000 1000 1000">
	<path fill="#000000" d="M313 -241V-354H395V-241ZM179 -354H261V-241H177C178 -268 179 -295 179 -319ZM317 -687C305 -652 290 -613 276 -583H168C187 -615 203 -651 218 -687ZM313 -522H395V-412H313ZM179 -522H261V-412H179ZM459 -583H340C363 -626 385 -677 401 -722L357 -750L346 -747H241C250 -772 259 -796 266 -821L199 -836C166 -715 108 -594 40 -516C55 -506 84 -484 95 -472C102 -481 109 -490 116 -499V-319C116 -208 109 -60 39 45C53 51 80 71 91 82C141 9 162 -88 172 -180H395V3C395 14 391 17 381 18C372 18 340 19 305 18C314 34 324 59 326 77C377 77 410 76 430 64C452 54 459 36 459 3ZM719 -598H822V-376H716C718 -412 719 -447 719 -484ZM950 -307V-376H889V-668H719V-837H651V-668H507V-598H651V-484C651 -447 650 -411 648 -376H487V-307H641C624 -182 578 -63 461 33C478 43 502 66 514 81C644 -27 693 -164 710 -307ZM728 -259C785 -154 855 -11 887 70L956 41C920 -39 848 -180 790 -282Z"/>
</svg>