<svg xmlns="http://www.w3.org/2000/svg" viewBox="0 -1000 1000 1000">
	<path fill="#000000" d="M236 -362H305V-592C346 -552 401 -495 422 -468L463 -527C441 -548 350 -626 312 -655H470V-718H305V-836H236V-718H58V-655H214C171 -572 102 -489 37 -447C52 -434 73 -412 84 -395C138 -436 194 -503 236 -577ZM680 -238C646 -179 601 -132 543 -96C468 -114 391 -132 313 -147C335 -174 359 -205 382 -238ZM729 -358C723 -338 717 -319 710 -301H425C442 -327 458 -354 471 -379L396 -398C380 -367 361 -334 338 -301H64V-238H295C260 -190 223 -145 190 -110C280 -92 369 -72 452 -52C354 -15 228 4 68 14C80 31 92 58 98 81C297 66 448 35 559 -24C675 8 777 42 853 73L920 17C844 -12 745 -44 635 -72C691 -116 733 -170 765 -238H934V-301H790C795 -313 798 -324 802 -337ZM942 -718H734V-836H663V-718H502V-655H626C585 -573 518 -494 452 -454C466 -440 488 -416 499 -400C560 -444 620 -519 663 -602V-371H734V-597C789 -544 867 -463 898 -426L937 -488C910 -513 801 -612 749 -655H942Z"/>
</svg>