<svg xmlns="http://www.w3.org/2000/svg" viewBox="0 -1000 1000 1000">
	<path fill="#000000" d="M582 -715C570 -726 553 -740 534 -754C555 -773 573 -793 587 -814L541 -826C529 -810 515 -794 497 -779C478 -792 458 -803 439 -813L407 -784C425 -774 443 -764 462 -751C437 -734 412 -719 386 -706C397 -699 415 -681 422 -674C447 -687 474 -705 499 -724C519 -710 536 -695 548 -682ZM560 -108V-159H790V-108ZM492 -159V-108H272C277 -125 280 -142 282 -159ZM587 -360C567 -341 541 -323 517 -308H275C298 -325 317 -342 336 -360ZM560 -257H790V-206H560ZM284 -257H492V-206H284ZM860 -308H612C640 -329 667 -352 689 -376L648 -408L635 -404H377C387 -416 396 -429 405 -440L335 -454C289 -389 202 -317 80 -266C95 -255 115 -233 124 -218C157 -233 186 -248 214 -266V-201C214 -126 192 -40 58 23C72 34 97 61 106 77C182 38 229 -10 254 -62H790V-17C790 0 784 6 762 7C739 8 655 9 567 6C578 23 588 44 593 62C700 62 768 62 808 53C847 45 860 27 860 -17ZM825 -511C831 -590 837 -706 840 -798H628V-748H772L771 -700H641V-654H768L766 -608H635V-562H762C760 -544 759 -527 758 -511H426C453 -527 481 -546 508 -568C530 -550 550 -534 564 -518L598 -550C584 -565 565 -582 542 -597C564 -618 583 -639 599 -662L553 -675C540 -657 523 -639 506 -624C486 -636 466 -648 446 -659L414 -631C433 -620 452 -608 471 -595C443 -575 413 -556 383 -541C392 -535 407 -521 416 -511H246L243 -563H371V-608H241L239 -656H365V-702H236L234 -752C282 -765 339 -781 382 -802L341 -836C297 -818 220 -789 166 -775L179 -511H80V-369H147V-459H852V-369H921V-511Z"/>
</svg>