<svg xmlns="http://www.w3.org/2000/svg" viewBox="0 -1000 1000 1000">
	<path fill="#000000" d="M372 -656C403 -656 440 -657 456 -662C453 -676 451 -692 449 -710C433 -706 391 -704 367 -704H205C179 -704 175 -713 175 -738V-747H427V-789H175V-825H110V-739C110 -682 124 -656 192 -656ZM442 -408C420 -419 349 -452 313 -468L315 -474H480V-517H321V-572H455V-615H211C216 -622 221 -630 226 -638L164 -650C142 -612 106 -576 65 -549C81 -544 107 -531 119 -523C138 -537 158 -553 176 -572H256V-518V-517H66V-474H248C231 -432 182 -394 60 -365C71 -356 89 -334 94 -323C204 -350 264 -388 293 -430C331 -410 376 -386 397 -371ZM281 -261C298 -275 315 -289 331 -303H595C581 -288 566 -273 550 -261ZM791 -169H544V-214H791ZM544 -77V-127H791V-77ZM475 -127V-77H258C263 -94 267 -110 269 -127ZM271 -214H475V-169H271ZM837 -386C801 -386 765 -388 733 -395V-471H898V-515H733V-596H846C836 -579 824 -563 814 -551L868 -540C890 -562 913 -600 930 -633L886 -642L874 -640H757L781 -658C768 -665 752 -675 732 -684C797 -712 862 -752 907 -794L863 -818L849 -815H494V-773H793C761 -750 720 -726 680 -709C653 -721 626 -733 602 -742L562 -713C612 -694 674 -664 715 -640H477V-596H669V-417C638 -433 611 -458 591 -494C599 -520 603 -548 606 -572L540 -575C536 -507 516 -418 446 -371C460 -365 479 -353 490 -344H372C379 -352 385 -361 392 -369L322 -382C276 -323 189 -257 69 -211C83 -201 103 -181 112 -167C144 -181 174 -195 201 -210V-166C201 -102 183 -27 75 30C88 39 114 63 124 77C181 46 219 6 240 -35H791V4C791 17 786 21 770 21C755 22 699 22 641 20C650 36 660 55 664 70C739 71 790 71 821 63C851 54 861 39 861 5V-261H633C653 -279 673 -299 690 -319L650 -348L636 -344H496C528 -366 552 -399 570 -434C631 -356 724 -337 831 -337H924C926 -351 935 -374 944 -386Z"/>
</svg>