<svg xmlns="http://www.w3.org/2000/svg" viewBox="0 -1000 1000 1000">
	<path fill="#000000" d="M753 -696V-625H622V-696ZM560 -573H816V-696H952V-754H816V-835H753V-754H622V-835H560V-754H435V-696H560ZM646 -445H719V-264H646ZM766 -209V-500H601V-209ZM272 -223V-349H341V-223ZM153 -349H224V-223H150C152 -257 153 -291 153 -320ZM299 -691C285 -655 265 -614 247 -585H131C149 -617 165 -654 180 -691ZM272 -527H341V-406H272ZM153 -527H224V-406H153ZM396 -585H308C333 -628 360 -679 378 -726L340 -753L329 -749H199C207 -774 215 -798 221 -823L164 -837C137 -725 93 -618 34 -547C46 -534 67 -507 74 -495C82 -506 91 -517 99 -530V-320C99 -210 94 -63 37 43C50 48 74 63 83 73C120 6 137 -81 146 -165H341V1C341 9 338 11 332 12C325 12 308 12 287 11C295 27 303 52 306 69C338 69 359 67 375 57C392 46 396 28 396 2ZM467 74C506 25 527 -56 538 -126L486 -142C476 -76 454 -1 417 42ZM559 -277V-554H505V-485H425V-426H505V-258C472 -248 441 -239 415 -232L438 -174C484 -192 533 -211 582 -231L575 -282ZM585 -120C598 -61 605 14 602 62L658 51C660 3 652 -72 638 -129ZM700 -120C724 -62 744 12 749 61L805 44C798 -4 777 -78 752 -134ZM920 -180C935 -180 951 -181 961 -184C959 -197 957 -217 956 -231C946 -228 930 -228 920 -228H874C863 -228 861 -234 861 -259V-395H944V-454H861V-552H806V-260C806 -201 817 -180 871 -180ZM816 -124C857 -62 895 21 906 77L965 53C950 -3 912 -84 869 -145Z"/>
</svg>