<svg xmlns="http://www.w3.org/2000/svg" viewBox="0 -1000 1000 1000">
	<path fill="#000000" d="M286 -712C271 -747 239 -799 210 -840L155 -811C181 -770 213 -714 228 -678ZM312 -211V-46H147V-211ZM376 -273H84V63H147V16H376ZM84 -347H369V-406H84ZM369 -536H84V-477H369ZM44 -606H402V-667H44ZM719 -634H957V-703H719V-835H650V-703H441V-634H650V-272H529V-541H464V-203H650V-67C650 19 660 37 681 52C700 65 730 71 753 71H833C857 71 883 68 902 62C922 55 935 42 941 23C949 4 955 -45 956 -84C934 -91 909 -103 893 -118C892 -74 889 -41 886 -26C882 -12 874 -5 866 -3C858 0 842 1 826 1H766C752 1 742 0 733 -4C722 -10 719 -29 719 -60V-203H847V-136H914V-542H847V-272H719Z"/>
</svg>