<svg xmlns="http://www.w3.org/2000/svg" viewBox="0 -1000 1000 1000">
	<path fill="#000000" d="M282 -698C270 -736 243 -793 219 -837L157 -818C179 -774 206 -715 218 -677ZM381 -671H45V-609H381ZM359 -536H87V-477H359ZM87 -344H359V-404H87ZM295 -206V-44H147V-206ZM360 19V-269H83V67H147V19ZM818 -371C793 -294 757 -225 712 -167C664 -226 626 -295 601 -371ZM506 -437V-614H648V-437ZM857 -440L844 -437H717V-614H862C851 -567 839 -518 827 -485L888 -471C908 -521 930 -601 946 -671L897 -683L885 -681H717V-836H648V-681H438V-441C438 -301 431 -104 360 38C376 44 406 65 418 78C483 -51 501 -229 505 -371H534C566 -274 610 -187 667 -116C607 -54 537 -8 465 21C479 34 497 59 506 76C579 43 650 -5 711 -66C769 -7 838 40 918 71C929 52 949 26 965 12C885 -15 814 -61 756 -118C821 -198 871 -300 899 -423Z"/>
</svg>