<svg xmlns="http://www.w3.org/2000/svg" viewBox="0 -1000 1000 1000">
	<path fill="#000000" d="M263 -712C248 -746 215 -799 187 -841L129 -811C156 -770 188 -713 203 -678ZM646 -843C583 -751 479 -672 379 -618V-671H43V-609H361C372 -592 390 -554 396 -540C481 -588 571 -658 643 -740C714 -659 827 -585 930 -540C937 -560 950 -590 964 -607C862 -643 748 -714 684 -790C690 -797 695 -805 701 -813ZM823 -459L811 -455H429V-394H776C754 -352 728 -301 704 -259L767 -240C803 -302 843 -377 873 -442ZM535 -272C594 -229 673 -166 714 -127L761 -176C719 -213 640 -272 579 -314ZM491 -593V-534H796V-593ZM338 -536H85V-477H338ZM85 -344H338V-404H85ZM277 -41H146V-208H277ZM342 -269H82V66H146V20H342V10L388 41C428 -19 470 -110 500 -170L443 -197C418 -143 380 -67 342 -11ZM623 1C590 1 583 -3 583 -27V-198H515V-27C515 42 535 62 615 62H742C804 62 824 35 831 -76C812 -80 785 -89 771 -100C768 -12 762 1 734 1ZM791 -179C832 -110 882 -18 905 40L963 11C940 -46 890 -136 847 -204Z"/>
</svg>