<svg xmlns="http://www.w3.org/2000/svg" viewBox="0 -1000 1000 1000">
	<path fill="#000000" d="M842 -605H690V-729H842ZM842 -419H690V-547H842ZM499 -547H625V-419H499ZM499 -729H625V-605H499ZM911 -791H433V-357H911ZM779 -195C756 -239 705 -304 659 -351L608 -321C654 -272 703 -203 725 -159ZM278 -712C262 -748 232 -800 204 -841L151 -812C177 -770 209 -714 222 -678ZM383 -667H51V-606H383ZM351 -477V-536H89V-477ZM351 -406H89V-347H351ZM295 -211V-46H149V-211ZM356 -273H90V63H149V16H356ZM425 5C455 -68 475 -186 487 -267L431 -285C421 -205 398 -96 370 -28ZM629 -22C597 -22 592 -26 592 -51V-303H526V-50C526 22 546 43 622 43H743C805 43 825 13 831 -101C813 -106 786 -117 772 -129C769 -35 763 -22 736 -22ZM814 -253C854 -177 889 -74 900 -6L961 -31C950 -98 913 -199 871 -276Z"/>
</svg>