<svg xmlns="http://www.w3.org/2000/svg" viewBox="0 -1000 1000 1000">
	<path fill="#000000" d="M254 -698C240 -734 212 -790 185 -831L127 -810C152 -768 180 -710 193 -674ZM362 -668H45V-606H362ZM273 -211V-46H137V-211ZM331 -273H79V63H137V16H331ZM76 -347H332V-406H76ZM76 -477H332V-536H76ZM597 -676C585 -629 567 -586 548 -547C527 -571 500 -600 474 -623C484 -641 493 -658 502 -676ZM629 -736L617 -734H527C538 -762 547 -790 555 -817L494 -825C473 -740 425 -631 346 -552C359 -545 381 -527 392 -514C411 -534 428 -555 443 -576C470 -550 497 -518 516 -494C477 -436 429 -392 378 -365C392 -353 407 -331 416 -316C535 -387 630 -522 666 -723ZM498 -186C463 -126 410 -58 361 -12C375 -1 401 21 412 33C462 -19 519 -96 561 -165ZM756 -156C806 -101 863 -24 890 26L945 -10C917 -57 860 -132 808 -187ZM692 -392H623V-283H378V-218H623V77H692V-218H948V-283H692ZM722 -512C733 -556 743 -608 754 -655H807V-512ZM868 -512V-655H947V-714H868V-824H807V-714H675V-655H694C682 -585 664 -506 648 -452H807V-327H868V-452H954V-512Z"/>
</svg>