<svg xmlns="http://www.w3.org/2000/svg" viewBox="0 -1000 1000 1000">
	<path fill="#000000" d="M276 -708C262 -744 230 -797 202 -837L146 -811C173 -770 204 -714 219 -678ZM294 -211V-46H145V-211ZM357 -273H84V63H145V16H357ZM84 -347H348V-406H84ZM351 -536H84V-477H351ZM44 -606H383V-667H44ZM735 -236V-116H601V-236ZM786 -67V-285H549V-23H601V-67ZM923 -521H770C788 -559 811 -608 830 -652L762 -667C750 -625 727 -563 707 -521H577L628 -538C619 -572 595 -625 571 -664L515 -648C536 -608 560 -555 567 -521H416V77H477V-460H580C574 -386 553 -345 483 -320C494 -311 509 -290 515 -278C601 -311 627 -367 635 -460H694V-376C694 -326 703 -306 749 -306H801C815 -306 832 -307 842 -310C839 -323 838 -339 837 -352C828 -349 810 -349 800 -349H759C747 -349 746 -354 746 -376V-460H861V-5C861 7 857 10 845 11C835 11 799 11 760 10C769 27 776 53 779 71C835 71 871 70 893 59C916 49 923 31 923 -4ZM712 -735C698 -765 674 -807 652 -837L591 -815C608 -791 624 -761 638 -735H403V-673H953V-735Z"/>
</svg>