<svg xmlns="http://www.w3.org/2000/svg" viewBox="0 -1000 1000 1000">
	<path fill="#000000" d="M278 -703C269 -738 246 -793 225 -834L166 -816C184 -774 206 -717 216 -680ZM298 -210V-43H150V-210ZM359 -271H87V64H150V18H359ZM80 -349H361V-408H80ZM360 -543H79V-484H360ZM48 -608H395V-669H48ZM929 -316H692L708 -384H898V-655H833V-439H519V-654H457V-384H647C642 -362 638 -340 632 -316H499V-351H435V-316H396V-254H435V77H499V-254H615C601 -199 585 -145 571 -102C553 -99 536 -97 521 -96L539 -40C608 -51 695 -65 781 -81C788 -64 794 -49 797 -36L845 -55C831 -97 796 -170 767 -225L723 -209C735 -185 748 -157 760 -130C717 -124 675 -117 637 -111C649 -153 662 -203 676 -254H864V1C864 12 861 15 847 16C836 17 793 17 747 15C754 32 763 55 765 73C830 73 871 72 897 62C922 52 929 35 929 1ZM817 -492C795 -511 762 -535 726 -561C757 -588 787 -617 812 -644L763 -663C741 -638 714 -614 686 -589C651 -613 615 -636 583 -656L552 -622C582 -603 614 -580 648 -558C612 -530 574 -504 539 -483C552 -475 572 -457 581 -448C615 -470 652 -498 688 -528C726 -501 761 -473 785 -453ZM722 -750C712 -777 699 -813 685 -839L622 -825C633 -802 643 -775 652 -750H405V-689H944V-750Z"/>
</svg>