<svg xmlns="http://www.w3.org/2000/svg" viewBox="0 -1000 1000 1000">
	<path fill="#000000" d="M853 -479H749V-556H853ZM853 -347H749V-426H853ZM593 -426H690V-347H593ZM593 -556H690V-479H593ZM687 -611H533V-292H687V-215H503V-152H687V-25H752V-152H948V-215H752V-292H914V-611H752V-686H936V-746H752V-837H687V-746H516V-686H687ZM472 -658C460 -701 438 -768 421 -819L362 -802C378 -750 401 -681 411 -638ZM246 -701C238 -735 214 -790 188 -831L126 -812C151 -770 174 -713 181 -677ZM335 -667H42V-606H335ZM309 -536H80V-477H309ZM80 -344H309V-404H80ZM247 -209V-41H140V-209ZM311 -269H76V66H140V19H311ZM486 -364L477 -361H433C456 -429 482 -514 503 -585H338V-518H423C401 -440 373 -355 351 -296H441C427 -220 405 -136 376 -78C356 -59 335 -28 313 9L361 73C377 19 402 -40 416 -40C437 -40 466 -13 503 11C560 47 625 61 715 61C783 61 893 57 946 54C947 34 956 2 963 -16C893 -8 786 -3 716 -3C633 -3 570 -14 517 -46C485 -67 463 -85 443 -94C474 -169 500 -265 513 -351Z"/>
</svg>