<svg xmlns="http://www.w3.org/2000/svg" viewBox="0 -1000 1000 1000">
	<path fill="#000000" d="M702 -465C748 -493 799 -524 850 -556L835 -601C773 -568 713 -537 671 -517ZM693 -693C722 -663 756 -624 773 -598L815 -631C798 -656 763 -695 735 -721ZM586 -471C586 -460 583 -457 571 -457C560 -456 524 -456 482 -457C489 -441 495 -420 497 -404C554 -404 593 -404 616 -413C639 -422 645 -437 645 -470V-800H396V-739H586ZM411 -693C438 -663 471 -623 488 -597L531 -632C514 -656 480 -695 452 -722ZM268 -705C259 -741 236 -796 216 -837L154 -818C172 -774 194 -718 203 -682ZM385 -669H48V-608H385ZM360 -543H70V-484H360ZM293 -210V-43H140V-210ZM358 -271H76V64H140V18H358ZM71 -349H361V-408H71ZM553 -590C489 -560 429 -529 384 -512L413 -460C461 -485 514 -514 567 -545ZM832 -187H513V-281H832ZM513 -35V-133H832V-35ZM638 -426C631 -403 619 -370 607 -342H445V74H513V24H832V68H902V-342H679C690 -365 701 -389 712 -415ZM922 -798H671V-737H863V-469C863 -459 861 -456 849 -455C838 -454 802 -454 760 -455C766 -439 773 -419 775 -402C831 -402 871 -402 893 -411C916 -421 922 -435 922 -468Z"/>
</svg>