<svg xmlns="http://www.w3.org/2000/svg" viewBox="0 -1000 1000 1000">
	<path fill="#000000" d="M742 -704C730 -739 704 -792 683 -832L622 -808C643 -766 667 -711 679 -676ZM256 -712C242 -747 211 -799 183 -841L131 -811C158 -770 188 -714 202 -678ZM357 -667H44V-606H357ZM326 -536H82V-477H326ZM82 -348H326V-406H82ZM278 -211V-46H141V-211ZM338 -273H82V63H141V16H338ZM401 81C441 30 471 -51 492 -113L436 -136C417 -76 385 1 346 48ZM664 -527H495V-609H664ZM664 -385H495V-468H664ZM664 -240H495V-327H664ZM953 -177V-240H730V-327H916V-385H730V-468H913V-527H730V-609H930V-671H498C519 -719 536 -770 550 -821L486 -837C457 -722 406 -608 343 -534C357 -520 379 -491 388 -476C404 -496 418 -517 432 -540V-151H495V-177ZM545 -115C557 -57 567 17 567 66L625 56C624 8 613 -66 599 -123ZM673 -117C697 -60 720 14 728 63L784 46C775 -2 752 -75 726 -131ZM803 -125C837 -63 878 20 897 73L955 47C936 -4 895 -84 858 -146Z"/>
</svg>