<svg xmlns="http://www.w3.org/2000/svg" viewBox="0 -1000 1000 1000">
	<path fill="#000000" d="M278 -562C278 -462 270 -343 223 -227C193 -255 159 -285 129 -310C146 -380 164 -465 181 -554ZM357 -88C337 -114 308 -145 274 -179C332 -313 341 -452 341 -567L385 -571V-631L341 -628V-696H278V-625L193 -620C205 -693 216 -765 222 -830L157 -833C151 -767 141 -691 130 -617C96 -615 66 -614 39 -613L47 -543L118 -548C100 -450 79 -356 59 -288C102 -251 150 -207 194 -164C159 -96 107 -32 34 27C50 37 73 59 83 72C154 15 205 -49 242 -115C270 -84 295 -56 312 -32ZM411 28C442 -30 462 -124 475 -196L418 -215C407 -144 384 -53 354 2ZM516 -184C527 -126 533 -50 531 0L588 -10C589 -58 581 -133 569 -192ZM623 -192C642 -143 661 -80 667 -38L720 -54C713 -94 694 -158 672 -206ZM487 -425H648V-330H487ZM648 -729V-638H487V-729ZM648 -485H487V-578H648ZM719 -330V-425H899V-485H719V-578H899V-638H719V-729H925V-794H419V-264H864C855 -83 844 -13 828 5C819 14 811 16 796 16C781 16 741 15 698 11C709 30 717 56 718 76C762 79 804 79 826 77C852 75 870 68 886 48C911 20 922 -66 934 -298C935 -308 935 -330 935 -330ZM722 -214C747 -177 775 -127 788 -95L832 -115C819 -147 791 -196 764 -233Z"/>
</svg>