<svg xmlns="http://www.w3.org/2000/svg" viewBox="0 -1000 1000 1000">
	<path fill="#000000" d="M468 -660C445 -703 394 -769 351 -816L295 -790C338 -740 387 -671 409 -628ZM182 -811C152 -737 102 -660 49 -608C65 -598 92 -577 104 -566C156 -621 212 -710 249 -792ZM348 -269V-70H195V-269ZM260 -658C206 -528 121 -394 35 -306C51 -297 79 -276 92 -264C104 -278 116 -293 129 -308V57H195V-4H416V-335H150C195 -395 238 -466 277 -540C336 -468 396 -382 425 -324L480 -365C447 -429 374 -526 307 -601C313 -613 319 -626 324 -639ZM823 -20H553V-185H823ZM844 -467L833 -463H485V-400H780C748 -359 708 -310 671 -270L711 -248H489V77H553V43H823V74H890V-248H735C788 -309 845 -380 891 -438ZM686 -844C626 -728 522 -622 418 -558C430 -542 449 -509 457 -494C497 -522 538 -557 576 -595V-535H789V-596H577C617 -636 655 -680 688 -728C753 -648 847 -560 923 -504C931 -522 949 -551 962 -566C883 -616 781 -704 721 -780C729 -793 736 -806 743 -818Z"/>
</svg>