<svg xmlns="http://www.w3.org/2000/svg" viewBox="0 -1000 1000 1000">
	<path fill="#000000" d="M676 -733H790V-557C790 -487 802 -460 861 -460H910C926 -460 942 -461 953 -465C951 -481 949 -507 947 -525C936 -522 920 -521 910 -521H865C853 -521 852 -529 852 -556V-795H614V-654C614 -587 603 -511 526 -454C538 -445 563 -421 573 -407C659 -474 676 -573 676 -653ZM260 -662H92V-609H483V-662H325V-714H520V-768H325V-836H260V-768H58V-714H260ZM504 -435V-564H61V-435H119V-511H445V-435ZM411 -416V-463H152V-416ZM497 -82C471 -106 421 -142 376 -170C413 -194 453 -223 488 -251L443 -288C417 -261 373 -225 336 -198C322 -230 304 -260 280 -286C296 -296 312 -308 326 -320H489V-371H87V-320H256C205 -289 134 -263 70 -246C79 -236 92 -211 96 -202C142 -216 190 -237 236 -260C245 -249 254 -238 262 -225C214 -188 127 -150 54 -134C64 -123 77 -100 82 -87C149 -109 228 -148 282 -186C288 -172 292 -158 294 -146C238 -94 135 -44 46 -23C56 -11 68 12 72 26C152 1 240 -46 302 -94C305 -50 297 -12 283 2C275 15 264 17 250 17C238 17 222 16 202 14C211 30 215 54 217 70C232 70 251 71 264 71C293 71 314 62 332 40C358 11 368 -56 356 -125C398 -96 441 -62 466 -38ZM873 -401L861 -398H554V-338H835C812 -270 779 -211 739 -160C700 -211 670 -272 649 -338L595 -323C620 -244 654 -173 697 -112C639 -52 568 -7 494 22C508 35 525 61 532 78C607 45 678 -2 738 -63C790 -6 851 39 924 69C933 50 950 25 965 12C893 -14 831 -56 780 -110C839 -183 886 -273 913 -383Z"/>
</svg>