<svg xmlns="http://www.w3.org/2000/svg" viewBox="0 -1000 1000 1000">
	<path fill="#000000" d="M957 -614H838V-684H775V-614H584V-684H523V-614H412V-558H523V-492H584V-558H775V-492H838V-558H957ZM535 -197H827V-131H535ZM535 -312H827V-246H535ZM535 -424H827V-360H535ZM466 -81H899V-474H466ZM647 -634H710V-710H918V-766H710V-837H647V-766H452V-710H647ZM441 -228C416 -283 357 -364 299 -424C333 -469 374 -528 408 -581L351 -615C333 -577 304 -528 276 -485C260 -531 239 -574 212 -609C238 -640 261 -674 281 -708H415V-770H48V-708H208C163 -637 99 -572 32 -528C45 -518 70 -492 79 -480C110 -503 142 -531 171 -563C185 -541 196 -518 206 -493C167 -432 95 -365 36 -331C51 -320 68 -297 78 -281C128 -316 186 -372 227 -427C235 -399 241 -369 245 -339C200 -256 113 -169 33 -127C47 -112 64 -87 72 -71C137 -112 204 -179 255 -248C262 -137 249 -40 228 -13C214 9 200 12 180 12C166 12 139 12 115 9C125 27 130 56 131 74C154 75 180 76 195 76C235 75 262 64 284 31C321 -14 337 -163 316 -316C350 -270 380 -222 396 -186ZM573 -76C525 -34 447 5 375 31C390 42 417 65 429 77C499 47 584 -3 637 -53ZM726 -46C790 -7 861 41 901 75L967 45C922 10 845 -39 777 -79Z"/>
</svg>