<svg xmlns="http://www.w3.org/2000/svg" viewBox="0 -1000 1000 1000">
	<path fill="#000000" d="M911 -757H722V-697H849V-604H735V-544H849V-438H722V-378H911ZM407 -378H588V-439H472V-544H579V-605H472V-701C516 -716 566 -734 608 -755L565 -806C525 -783 454 -750 407 -733ZM274 -558C273 -461 266 -344 221 -230C191 -257 159 -286 129 -310C146 -380 164 -465 181 -552ZM385 -60C359 -94 318 -138 272 -182C328 -314 337 -449 337 -563L385 -566V-631L337 -628V-696H274V-625L193 -621C205 -694 216 -765 222 -830L157 -833C151 -767 141 -692 130 -617L39 -613L47 -544L118 -548C100 -450 79 -357 59 -289C101 -253 148 -210 193 -166C157 -99 106 -33 34 27C49 35 73 57 83 72C153 13 204 -52 241 -118C281 -76 316 -36 341 -4ZM818 -240C781 -183 727 -136 664 -98C603 -138 552 -186 517 -240ZM874 -305L861 -302H692V-835H623V-302H387V-240H484L451 -228C488 -166 538 -111 599 -64C518 -26 426 -1 333 14C346 29 362 59 368 77C472 57 573 26 661 -21C736 24 821 57 912 78C923 59 943 29 960 15C876 -1 798 -26 729 -62C811 -117 878 -189 919 -283Z"/>
</svg>