<svg xmlns="http://www.w3.org/2000/svg" viewBox="0 -1000 1000 1000">
	<path fill="#000000" d="M330 -830C265 -786 145 -740 40 -714C52 -701 67 -677 75 -661C182 -689 300 -733 371 -785ZM396 -666C376 -646 354 -625 327 -605C313 -636 290 -675 269 -705L220 -680C242 -646 265 -603 279 -569C253 -553 226 -536 198 -520C183 -557 152 -608 124 -645L74 -619C101 -580 130 -530 146 -492C111 -474 75 -458 40 -444C52 -432 68 -410 76 -395C131 -417 186 -445 238 -473C250 -456 262 -436 272 -415C218 -362 122 -303 50 -272C62 -260 78 -235 86 -219C151 -253 234 -310 293 -362C301 -337 308 -311 313 -284C248 -206 133 -122 41 -80C53 -67 70 -42 78 -26C157 -68 252 -140 321 -211C326 -120 310 -42 286 -19C270 0 254 3 232 3C215 3 186 1 156 -2C166 18 171 45 172 64C198 66 228 67 247 67C287 66 312 56 338 28C405 -39 416 -329 288 -504C347 -540 399 -581 438 -623ZM692 -532H819V-443H692ZM692 -681H819V-594H692ZM888 -382V-532H955V-594H888V-742H692V-834H621V-742H459V-681H621V-594H418V-532H621V-443H455V-382H621V-303H452V-240H621V-154H421V-90H621V75H692V-90H944V-154H692V-240H913V-303H692V-382Z"/>
</svg>