<svg xmlns="http://www.w3.org/2000/svg" viewBox="0 -1000 1000 1000">
	<path fill="#000000" d="M889 -832C775 -800 570 -777 403 -765C410 -749 419 -724 421 -707C592 -716 801 -737 932 -774ZM828 -563C855 -601 888 -658 914 -711L853 -732C836 -686 802 -621 776 -581ZM724 -593C715 -626 692 -679 667 -720L609 -698C633 -657 655 -602 663 -568ZM543 -578C535 -611 509 -662 485 -700L428 -680C452 -640 475 -587 483 -552ZM369 -655C356 -641 343 -626 326 -612C310 -645 288 -686 268 -723C317 -742 362 -765 397 -790L353 -836C284 -790 154 -741 42 -716C54 -702 71 -679 79 -663C123 -674 169 -686 213 -702C236 -660 261 -609 278 -571C211 -520 129 -472 48 -437C62 -424 78 -403 87 -388C139 -413 191 -440 239 -469C251 -451 262 -430 272 -410C213 -356 116 -297 42 -267C55 -253 72 -230 80 -213C147 -248 231 -302 292 -356C299 -332 304 -307 309 -284C245 -206 132 -121 41 -79C54 -66 71 -42 80 -25C157 -67 249 -137 317 -208C321 -115 304 -38 280 -16C262 4 246 7 222 7C205 7 173 5 142 2C152 21 157 49 158 68C187 70 218 71 238 71C281 70 306 60 334 31C404 -35 415 -328 289 -503C338 -538 381 -575 414 -613ZM76 -618C99 -583 128 -535 141 -507L194 -537C181 -564 151 -609 128 -643ZM676 -79C760 -35 862 32 913 79L951 31C899 -16 797 -80 712 -121ZM693 -191C697 -215 700 -241 703 -269H697L861 -283C874 -262 886 -244 894 -227L946 -259C921 -308 863 -380 809 -431L760 -404C782 -382 803 -358 823 -333L568 -315C662 -366 755 -429 843 -499L793 -542C753 -507 708 -473 666 -443L535 -439C581 -472 628 -513 670 -557L612 -590C568 -532 501 -478 481 -464C462 -451 446 -442 430 -440C438 -423 447 -392 451 -378C463 -383 484 -387 590 -392C553 -367 522 -350 506 -341C466 -319 436 -305 411 -302C419 -285 428 -252 431 -239C450 -246 476 -250 632 -263C629 -238 626 -213 621 -191H410V-129H603C570 -55 507 -9 369 21C383 34 401 60 408 77C570 38 643 -26 677 -129H954V-191Z"/>
</svg>