<svg xmlns="http://www.w3.org/2000/svg" viewBox="0 -1000 1000 1000">
	<path fill="#000000" d="M273 -558C272 -461 265 -346 224 -234C194 -260 162 -286 132 -309C148 -379 165 -464 179 -551ZM340 -696H273V-625L189 -620C201 -693 210 -766 216 -830L147 -833C142 -768 133 -693 122 -617L39 -613L47 -543L112 -547C95 -449 76 -356 59 -289C103 -254 151 -212 196 -170C162 -101 112 -34 40 27C57 37 81 60 93 75C163 15 213 -51 249 -120C279 -90 306 -61 324 -37L367 -95C345 -120 314 -151 278 -185C331 -316 340 -450 340 -562L394 -566V-631L340 -628ZM488 -674C504 -640 520 -594 526 -564L591 -584C584 -612 567 -658 549 -691ZM740 -124H589V-225H740ZM946 -753H713C705 -782 690 -818 673 -845L610 -827C621 -804 632 -778 640 -753H383V-691H779C768 -653 749 -601 733 -564H400V77H468V-501H633V-414H504V-360H633V-277H536V-31H589V-71H794V-277H693V-360H823V-414H693V-501H859V-7C859 6 855 9 843 10C832 10 792 11 749 9C759 27 768 55 771 74C831 74 870 73 894 61C919 50 928 30 928 -6V-564H799C814 -598 831 -641 847 -680L807 -691H946Z"/>
</svg>