<svg xmlns="http://www.w3.org/2000/svg" viewBox="0 -1000 1000 1000">
	<path fill="#000000" d="M932 -753C914 -775 877 -805 845 -824L806 -796C839 -774 875 -743 893 -721ZM694 -808H474V-759H694ZM580 -496L514 -491V-626H463V-488L414 -484L420 -432C507 -439 625 -448 743 -458L744 -509L634 -500V-563H725V-610H634V-661H736C757 -496 807 -410 877 -410C924 -410 945 -433 954 -527C938 -532 920 -543 906 -554C903 -490 897 -473 881 -473C849 -473 815 -532 798 -661H939V-714H792C789 -749 787 -788 787 -832H723C724 -789 727 -750 730 -714H432V-661H580ZM256 -162H756V-103H256ZM256 -263H756V-206H256ZM256 -364H756V-307H256ZM184 -58H830V-409H184ZM402 -509C378 -530 343 -554 304 -580C336 -616 365 -657 385 -702H425L424 -759H276L291 -766C280 -789 258 -822 235 -845L180 -822C196 -804 212 -780 223 -759H66V-702H315C299 -669 276 -639 251 -612C212 -635 169 -658 132 -677L93 -634C129 -616 168 -593 207 -570C158 -530 101 -497 39 -474C53 -461 74 -435 83 -423C147 -451 208 -489 260 -535C300 -509 335 -482 360 -461ZM355 -46C280 -14 157 14 51 30C68 42 95 67 108 81C209 59 336 23 419 -16ZM589 -5C706 21 819 55 886 81L944 35C869 9 747 -23 634 -47Z"/>
</svg>