<svg xmlns="http://www.w3.org/2000/svg" viewBox="0 -1000 1000 1000">
	<path fill="#000000" d="M875 -578C875 -570 873 -567 863 -567C853 -566 825 -566 789 -567C796 -553 802 -536 803 -522C851 -522 885 -522 904 -530C924 -538 929 -550 929 -578V-801H697V-751H875ZM837 -692C813 -708 767 -730 731 -745L704 -712C740 -695 787 -671 811 -654ZM853 -669C792 -639 733 -611 690 -593L714 -545C761 -571 812 -598 865 -626ZM692 -332H561V-389H692ZM692 -229H561V-283H692ZM692 -125H561V-180H692ZM573 -440C585 -461 596 -482 605 -503L548 -519C518 -449 469 -379 417 -330C428 -319 450 -294 458 -283C471 -296 484 -311 497 -327V-46H561V-71H933V-125H757V-180H901V-229H757V-283H901V-332H757V-389H924V-440H769C758 -464 744 -491 730 -513L668 -496C677 -479 687 -460 695 -440ZM610 -578C610 -570 607 -566 598 -566C587 -565 559 -565 523 -566C529 -553 535 -538 536 -524C585 -524 620 -524 639 -531C660 -539 665 -550 665 -578V-800H430V-750H610ZM570 -691C545 -708 499 -730 464 -744L437 -711C473 -694 518 -670 543 -653ZM586 -669C523 -638 465 -610 423 -593L446 -545C493 -570 545 -597 598 -626ZM295 -252H417V-315H295V-456H430V-519H286V-645H410V-707H286V-835H220V-707H84V-645H220V-519H56V-456H229V-106C199 -138 175 -181 156 -238C159 -284 161 -333 162 -384L98 -387C97 -212 90 -60 31 38C46 47 72 69 82 79C117 21 136 -52 147 -136C229 27 372 56 588 56H939C943 37 955 8 965 -7C912 -5 630 -6 589 -6C467 -6 369 -14 295 -55Z"/>
</svg>