<svg xmlns="http://www.w3.org/2000/svg" viewBox="0 -1000 1000 1000">
	<path fill="#000000" d="M154 -729H343V-555H154ZM435 -147C385 -134 336 -120 289 -107V-286H417V-352H289V-490H412V-794H89V-490H222V-91L152 -72V-396H90V-57L38 -45L57 26C162 -4 307 -44 443 -82ZM707 -255C770 -151 849 -10 886 71L953 40C914 -41 832 -178 768 -280ZM700 -600H821V-392H694C699 -442 700 -490 700 -535ZM891 -392V-669H700V-834H627V-669H476V-600H627V-535C627 -491 626 -443 622 -392H445V-322H612C590 -199 535 -72 396 23C415 36 439 61 451 78C601 -33 661 -181 685 -322H958V-392Z"/>
</svg>