<svg xmlns="http://www.w3.org/2000/svg" viewBox="0 -1000 1000 1000">
	<path fill="#000000" d="M834 -240H755V-406H834ZM494 -406H569V-240H494ZM700 -406V-240H623V-406ZM953 -406V-471H890V-594H834V-471H755V-594H700V-471H623V-594H569V-471H494V-594H439V-471H372V-406H439V-240H360V-176H951V-240H890V-406ZM265 -558C263 -459 251 -343 207 -228C180 -255 151 -283 125 -308C141 -378 158 -463 173 -552ZM356 -66C332 -97 295 -138 253 -181C308 -313 321 -448 324 -562L370 -565V-571C379 -557 386 -542 390 -535C419 -566 447 -604 472 -647H943V-713H507C524 -748 539 -785 550 -822L489 -839C463 -756 421 -675 371 -615V-630L325 -627V-694H266V-624L183 -620C195 -694 204 -767 210 -832L149 -835C144 -769 134 -692 124 -617L39 -613L47 -544L113 -548C96 -450 77 -356 59 -288C97 -251 139 -208 179 -166C146 -99 100 -33 36 27C51 36 73 56 83 68C144 10 189 -53 224 -118C260 -77 294 -38 316 -8ZM395 78C438 27 471 -52 494 -114L439 -137C419 -79 383 -1 341 45ZM544 -116C555 -58 565 20 567 66L626 59C623 15 612 -61 599 -120ZM673 -118C695 -60 719 18 730 64L788 46C776 3 750 -73 727 -130ZM810 -126C846 -64 885 19 900 70L960 48C944 -2 903 -83 866 -144Z"/>
</svg>