<svg xmlns="http://www.w3.org/2000/svg" viewBox="0 -1000 1000 1000">
	<path fill="#000000" d="M138 -731H268V-558H138ZM251 -495H330V-794H79V-495H190V-77L132 -62V-395H75V-47L42 -39L55 25C137 2 240 -26 340 -56L333 -115L251 -93V-283H343V-347H251ZM644 -708H671V-653H704C716 -468 736 -307 778 -176C741 -89 696 -21 644 23ZM467 -296H583V-152C543 -146 504 -140 467 -134ZM583 -708V-568H467V-708ZM467 -504H583V-361H467ZM879 -653C867 -509 845 -382 813 -276C786 -385 771 -513 761 -653ZM903 -721L892 -718H681V-775H359V-708H407V-125C388 -122 372 -120 356 -118L371 -51C433 -62 507 -76 583 -91V76H644V27C659 40 675 62 685 78C732 35 773 -22 809 -92C837 -27 874 28 920 70C930 51 951 25 966 11C912 -33 873 -96 844 -174C896 -311 928 -490 941 -713Z"/>
</svg>