<svg xmlns="http://www.w3.org/2000/svg" viewBox="0 -1000 1000 1000">
	<path fill="#000000" d="M161 -699C161 -635 185 -613 284 -613H735C800 -613 866 -614 892 -619C890 -632 886 -649 885 -669C854 -663 773 -661 725 -661H283C232 -661 224 -670 224 -698V-724H952V-777H552C543 -797 531 -819 518 -838L444 -824C451 -810 460 -794 468 -777H44V-724H161ZM235 -524H765V-469H235ZM168 -421H836V-572H168ZM155 -238C186 -225 223 -206 244 -192L267 -232C247 -246 209 -262 179 -273ZM153 -329H269V-145C224 -136 184 -127 149 -122C152 -152 153 -181 153 -207ZM325 -380H100V-208C100 -131 94 -32 37 42C50 47 74 62 82 72C122 21 139 -46 147 -110L163 -75C198 -84 232 -92 269 -103V6C269 15 266 18 255 19C244 19 212 19 174 18C182 33 189 55 191 71C243 71 278 71 298 61C319 51 325 36 325 6ZM526 -279C522 -228 511 -170 478 -113C457 -128 436 -142 414 -155C428 -190 443 -230 456 -272ZM614 -289L613 -337L580 -334V-368H528V-332V-329L473 -323C480 -349 487 -375 493 -399L439 -404C433 -377 425 -347 415 -318C389 -316 364 -314 342 -312L349 -261L399 -266C383 -219 365 -174 349 -140C382 -120 417 -95 451 -70C421 -34 382 3 329 35C342 44 359 61 367 74C421 40 462 3 493 -37C514 -18 533 -1 547 14L586 -23C570 -41 548 -60 522 -80C562 -151 575 -222 579 -285ZM872 22C866 22 862 21 860 18C856 14 856 -2 856 -23V-380H627V-326H671V-221C658 -234 645 -247 632 -258L603 -221C625 -201 647 -178 669 -153C664 -87 643 -13 573 45C586 50 607 67 616 76C675 27 702 -38 714 -102C728 -85 740 -69 749 -55L779 -99C765 -118 746 -143 722 -168C723 -178 723 -188 723 -198V-326H800V-30C800 31 803 45 816 56C827 67 843 71 860 71H895C909 71 923 69 933 63C942 58 950 48 955 33C959 19 962 -21 963 -57C948 -61 931 -70 919 -80C919 -43 918 -15 916 -3C914 9 910 15 907 18C904 21 897 22 891 22Z"/>
</svg>