<svg xmlns="http://www.w3.org/2000/svg" viewBox="0 -1000 1000 1000">
	<path fill="#000000" d="M135 -729H287V-555H135ZM242 -286H346V-352H242V-490H348V-794H78V-490H185V-91L131 -74V-395H77V-57L35 -45L49 26C133 -2 248 -42 357 -79L349 -144C314 -132 277 -120 242 -109ZM501 -24V-117H617V-173H501V-249C547 -262 600 -280 640 -301L603 -349C573 -336 527 -316 486 -301C515 -336 540 -373 562 -412H727C746 -379 769 -346 796 -316H661V-258H788V-173H667V-117H788V-24ZM934 -412V-474H592C603 -498 612 -523 621 -548H882V-607H638C645 -632 651 -655 656 -680H911V-742H667C671 -772 675 -803 677 -832L612 -837C610 -806 607 -774 602 -742H389V-680H591C586 -655 580 -632 574 -607H423V-548H554C545 -523 534 -498 522 -474H376V-412H486C447 -349 396 -293 331 -247C347 -237 369 -214 377 -197C399 -214 419 -232 439 -250V78H501V34H788V69H851V-261C876 -238 901 -219 926 -204C937 -221 955 -245 970 -258C907 -289 840 -348 793 -412Z"/>
</svg>