<svg xmlns="http://www.w3.org/2000/svg" viewBox="0 -1000 1000 1000">
	<path fill="#000000" d="M856 -488H670V-578H856ZM856 -339H670V-431H856ZM856 -189H670V-283H856ZM606 -638V-130H922V-638H779C787 -667 797 -701 806 -733H952V-797H570V-733H731C726 -702 720 -667 714 -638ZM140 -730H281V-563H140ZM254 -500H343V-794H80V-500H194V-99L136 -80V-397H80V-63L38 -50L55 17C139 -13 248 -51 352 -88L343 -149L254 -120V-296H353V-361H254ZM465 -157V-488H581V-552H465V-742H399V-172C399 -132 386 -113 374 -104C385 -88 400 -55 406 -39L410 -44C424 -58 454 -77 573 -147C571 -163 569 -190 570 -210ZM674 -114C640 -64 575 0 513 35C531 46 557 66 570 77C628 40 696 -25 738 -82ZM787 -84C832 -36 883 30 906 75L965 42C941 -1 889 -66 843 -113Z"/>
</svg>