<svg xmlns="http://www.w3.org/2000/svg" viewBox="0 -1000 1000 1000">
	<path fill="#000000" d="M860 -478H762V-556H860ZM860 -347H762V-426H860ZM612 -426H704V-347H612ZM612 -556H704V-478H612ZM699 -610H557V-293H699V-214H526V-153H699V-32H767V-153H946V-214H767V-293H917V-610H767V-686H938V-746H767V-837H699V-746H530V-686H699ZM488 -658C477 -701 454 -768 437 -819L379 -802C394 -750 417 -681 428 -638ZM138 -731H269V-558H138ZM353 -123L252 -96V-283H348V-347H252V-495H330V-794H79V-495H192V-79L132 -63V-395H75V-48L42 -39L55 24C141 0 252 -32 359 -65ZM505 -363L495 -360H491V-361H450C474 -429 500 -514 521 -585H352V-518H439C417 -440 389 -355 367 -296H461C445 -223 422 -144 393 -88C368 -71 341 -34 313 9L362 73C380 19 407 -40 424 -40C444 -40 474 -13 510 11C567 47 632 61 720 61C786 61 895 57 947 54C948 35 957 2 965 -16C895 -8 789 -3 722 -3C638 -3 577 -14 524 -46C495 -65 475 -81 456 -91C490 -166 518 -263 534 -350Z"/>
</svg>