<svg xmlns="http://www.w3.org/2000/svg" viewBox="0 -1000 1000 1000">
	<path fill="#000000" d="M935 -641C923 -683 887 -746 852 -793L803 -774C836 -726 871 -660 883 -618ZM660 -715H518L561 -733C551 -760 526 -801 503 -832L444 -812C464 -783 486 -743 497 -715H356V-650H660ZM139 -731H266V-549H139ZM404 -259C391 -194 369 -128 342 -77L333 -124L244 -97V-282H341V-348H244V-486H328V-793H80V-486H183V-78L135 -65V-394H80V-49L42 -38L58 32C135 8 232 -22 327 -54L325 -51C338 -43 363 -29 373 -21C410 -78 440 -164 459 -247ZM442 -519H569V-370H442ZM630 -312V-577H384V-312H477V-3C477 7 473 10 463 10C453 11 417 11 377 10C385 27 395 51 398 69C453 69 488 68 509 58C533 46 538 30 538 -2V-312ZM661 -100C654 -143 631 -209 605 -259L558 -238C582 -188 604 -120 611 -77ZM850 0C843 0 837 -2 832 -5C828 -9 827 -16 827 -24V-436H801C802 -456 802 -478 802 -498V-519H943V-584H802V-836H740V-584H660V-519H740V-498C740 -316 723 -123 588 34C605 45 626 62 639 76C703 -1 743 -85 767 -172V-27C767 19 771 33 784 45C797 58 817 62 835 62H881C898 62 916 58 927 50C939 41 946 28 951 6C954 -14 958 -73 958 -122C942 -126 922 -137 910 -149C911 -95 909 -50 907 -31C905 -19 901 -10 897 -5C893 -1 884 0 875 0Z"/>
</svg>