<svg xmlns="http://www.w3.org/2000/svg" viewBox="0 -1000 1000 1000">
	<path fill="#000000" d="M446 -694H862V-608H932V-748H694C685 -775 672 -810 660 -838L591 -825C600 -802 609 -773 617 -748H379V-608H446ZM813 -315H504V-364H813ZM813 -219H504V-269H813ZM813 -122H504V-173H813ZM881 -74V-412H615C717 -446 810 -492 873 -551L813 -575C780 -546 735 -519 683 -498V-590H819V-641H486V-590H617V-472C529 -442 427 -419 332 -405C345 -391 363 -363 370 -348C392 -352 414 -357 437 -362V-74ZM501 -576C466 -541 409 -509 355 -485C369 -476 389 -453 398 -442C454 -471 518 -515 557 -558ZM261 -557C260 -463 254 -353 218 -243C189 -267 160 -290 132 -312C146 -381 163 -465 177 -551ZM373 -564V-630L327 -627V-696H261V-624L186 -620C197 -693 206 -765 212 -830L144 -833C139 -767 131 -691 120 -617L39 -613L47 -543L110 -547C94 -449 76 -356 59 -288C101 -256 148 -218 192 -178C159 -106 111 -35 39 28C56 38 80 60 91 75C161 12 210 -59 244 -130C282 -95 315 -62 338 -34L380 -92C354 -123 316 -159 273 -197C319 -324 327 -452 327 -561ZM584 -73C528 -41 423 1 352 25C363 41 376 64 384 79C458 51 560 11 638 -27ZM724 -26C799 8 884 52 936 81L967 29C914 1 829 -40 752 -73Z"/>
</svg>