<svg xmlns="http://www.w3.org/2000/svg" viewBox="0 -1000 1000 1000">
	<path fill="#000000" d="M650 -519C644 -539 631 -568 616 -590H784C775 -570 760 -542 746 -519ZM560 -579C572 -561 583 -539 590 -519H467V-470H668V-419H497V-371H668V-298H737V-371H910V-419H737V-470H941V-519H808C818 -536 831 -555 843 -575L792 -590H907V-638H729C720 -654 707 -670 694 -686H722V-728H939V-784H722V-836H649V-784H521V-728H649V-686H661L632 -674C641 -663 651 -651 659 -638H500V-590H600ZM363 -542H168V-592H363ZM382 -414V-360H168V-414ZM273 -686L230 -693C226 -677 219 -656 210 -636H105V-290H168V-315H446V-459H168V-499H426V-636H274C282 -650 291 -664 299 -680H345V-728H477V-784H345V-836H273V-784H59V-728H273ZM251 -239H757V-186H251ZM535 -53H875V-99H535V-141H831V-284H179V-141H462V-2C384 -13 327 -34 287 -75C296 -89 303 -105 308 -121L235 -130C210 -51 132 -2 36 29C52 39 79 65 90 78C155 52 216 16 259 -34C342 46 468 62 668 62H936C939 46 949 21 957 8C911 9 700 9 669 9C620 9 575 8 535 6Z"/>
</svg>