<svg xmlns="http://www.w3.org/2000/svg" viewBox="0 -1000 1000 1000">
	<path fill="#000000" d="M884 -608V-531H817V-608ZM928 -489V-650H770V-413C770 -358 784 -346 833 -346H903C942 -346 956 -366 961 -439C947 -443 927 -450 917 -459C915 -400 912 -393 896 -393H838C820 -393 817 -396 817 -413V-489ZM696 -566H597V-610H696ZM696 -480H597V-526H696ZM696 -394H597V-440H696ZM553 -650V-353H741V-650H657C664 -664 671 -679 677 -695H949V-747H775C793 -768 812 -792 828 -817L758 -838C746 -813 724 -775 705 -747H593C580 -774 555 -811 535 -838L475 -817C490 -796 506 -771 518 -747H347V-695H618C613 -680 607 -664 601 -650ZM525 -426L483 -415V-515H523V-566H483V-665H436V-401L405 -392V-601H365V-381C356 -379 347 -377 339 -375L354 -319C409 -337 468 -357 532 -377ZM538 -340C486 -300 400 -262 324 -237C336 -226 355 -202 362 -191C437 -220 530 -268 589 -317ZM138 -731H260V-558H138ZM329 -113L245 -91V-283H320V-347H245V-495H321V-794H79V-495H184V-76L132 -62V-394H75V-47L42 -39L55 24C136 3 237 -26 337 -54ZM548 -154H769C739 -118 698 -87 650 -63C606 -86 567 -113 536 -145ZM820 -205L808 -202H602C621 -222 638 -241 654 -261L592 -272C571 -244 541 -214 503 -185C497 -194 491 -203 486 -212L429 -194C437 -179 446 -166 456 -153C425 -134 391 -118 354 -102C367 -93 386 -76 395 -62C429 -78 461 -95 489 -113C516 -83 549 -57 585 -34C509 -4 421 15 335 25C346 38 360 62 366 77C464 62 561 37 646 -1C721 36 811 61 911 74C919 58 935 33 949 19C860 10 781 -9 711 -35C774 -74 827 -122 861 -183ZM701 -306C776 -275 874 -230 925 -199L955 -244C904 -274 805 -317 731 -345Z"/>
</svg>