<svg xmlns="http://www.w3.org/2000/svg" viewBox="0 -1000 1000 1000">
	<path fill="#000000" d="M136 -386H216V-290H136ZM136 -535H216V-440H136ZM354 -440H274V-535H354ZM354 -290H274V-386H354ZM279 -234H416V-591H279V-666H436V-730H279V-836H210V-730H57V-666H210V-591H76V-234H211V-157H48V-92H211V76H279V-92H437V-157H279ZM958 -344H741V-711H936V-779H474V-711H666V-344H460V-275H666V77H741V-275H958ZM481 -641C510 -563 534 -461 540 -395L609 -412C602 -478 576 -579 546 -657ZM845 -394C872 -459 904 -561 929 -644L853 -662C838 -587 809 -477 783 -411Z"/>
</svg>