<svg xmlns="http://www.w3.org/2000/svg" viewBox="0 -1000 1000 1000">
	<path fill="#000000" d="M264 -564C262 -463 251 -344 206 -226C179 -254 150 -283 123 -308C140 -378 157 -465 172 -555ZM317 -103C300 -125 278 -151 251 -180C307 -315 320 -454 323 -570L362 -574L363 -630L323 -627V-695H265V-624L181 -619C193 -694 202 -767 208 -832L149 -835C144 -768 134 -692 124 -617C92 -615 64 -614 39 -613L47 -542L113 -549C96 -450 77 -356 59 -289C97 -251 140 -207 179 -165C146 -98 99 -32 35 30C50 39 71 58 81 71C142 11 187 -52 222 -118C242 -95 260 -73 274 -55ZM519 -405H456V-327H337V-269H448C415 -187 357 -96 303 -49C314 -33 328 -7 334 9C378 -33 422 -101 456 -174V76H519V-154C544 -124 574 -89 587 -69L621 -117C606 -134 544 -195 519 -218V-269H622V-327H519ZM432 -410C485 -427 543 -445 606 -465L602 -505C530 -487 462 -472 410 -462ZM454 -563C499 -552 556 -533 587 -518L608 -560C577 -575 520 -591 477 -600ZM865 -329V-259H699V-329ZM699 -11V-85H865V-11ZM865 -136H699V-208H865ZM640 75H699V42H865V70H926V-383H640ZM735 -524C775 -534 833 -551 873 -572L844 -608C811 -593 750 -567 711 -555ZM712 -471C771 -457 850 -431 891 -414L907 -459C865 -474 787 -497 729 -509ZM689 -676V-735H917V-791H397V-735H630V-676H376V-532H435V-623H630V-408H689V-623H888V-532H948V-676Z"/>
</svg>