<svg xmlns="http://www.w3.org/2000/svg" viewBox="0 -1000 1000 1000">
	<path fill="#000000" d="M133 -386H217V-290H133ZM133 -535H217V-440H133ZM360 -440H274V-535H360ZM360 -290H274V-386H360ZM280 -234H418V-591H280V-666H436V-730H280V-836H211V-730H56V-666H211V-591H77V-234H211V-157H47V-92H211V76H280V-92H438V-157H280ZM882 -374L871 -370H492V-304H831C789 -238 727 -160 678 -109C648 -136 619 -164 592 -186L543 -145C617 -78 716 20 763 77L816 29C793 4 762 -28 728 -60C794 -134 880 -246 928 -340ZM571 -533C617 -590 658 -653 692 -717C730 -653 778 -588 827 -533ZM675 -835C627 -712 536 -575 429 -486C443 -474 467 -450 478 -436C508 -462 537 -492 563 -524V-468H837V-522C865 -492 894 -465 920 -444C932 -461 954 -488 969 -501C884 -558 782 -672 722 -779C727 -790 732 -802 737 -813Z"/>
</svg>