<svg xmlns="http://www.w3.org/2000/svg" viewBox="0 -1000 1000 1000">
	<path fill="#000000" d="M609 -712C595 -747 561 -800 529 -839L470 -811C501 -770 533 -714 547 -680ZM135 -386H211V-290H135ZM135 -535H211V-440H135ZM345 -440H268V-535H345ZM345 -290H268V-386H345ZM274 -234H406V-591H274V-666H424V-730H274V-836H205V-730H56V-666H205V-591H76V-234H205V-157H47V-92H205V76H274V-92H425V-157H274ZM728 -501H662V-607H728ZM865 -306C862 -306 858 -306 851 -306H795C778 -306 775 -307 775 -322V-443H865ZM542 -33V-114H865V-33ZM616 -443V-399C616 -353 604 -299 542 -257V-443ZM860 -259H865V-171H542V-250C554 -242 569 -230 576 -222C646 -271 664 -341 664 -398V-443H727V-321C727 -270 741 -259 790 -259ZM956 -606V-673H829C861 -714 897 -767 926 -814L854 -839C830 -790 787 -719 751 -673H445V-606H607V-501H478V79H542V27H865V73H931V-501H786V-606Z"/>
</svg>