<svg xmlns="http://www.w3.org/2000/svg" viewBox="0 -1000 1000 1000">
	<path fill="#000000" d="M138 -386H218V-290H138ZM138 -535H218V-440H138ZM358 -440H276V-535H358ZM358 -290H276V-386H358ZM429 -92V-157H281V-234H420V-591H281V-666H437V-730H281V-836H213V-730H58V-666H213V-591H79V-234H213V-157H49V-92H213V76H281V-92ZM808 -201C781 -158 744 -122 700 -91C659 -118 623 -149 592 -182C597 -188 602 -194 607 -201ZM580 -438H828V-369H580ZM580 -554H828V-488H580ZM862 -261L848 -258H646C659 -276 670 -297 679 -316H898V-607H537C551 -629 566 -651 579 -675H941V-737H611C623 -763 634 -790 643 -816L576 -836C543 -741 487 -649 422 -588C435 -570 453 -531 459 -515C478 -533 495 -553 513 -576V-316H606C592 -287 572 -259 550 -232C537 -251 525 -271 514 -291L459 -272C474 -242 490 -215 509 -188C489 -169 468 -151 445 -135C461 -124 486 -101 495 -89C514 -104 533 -120 550 -137C577 -107 607 -79 640 -55C573 -19 496 5 419 20C432 33 447 60 453 77C540 58 624 29 697 -15C762 25 835 55 915 74C924 55 944 28 959 13C887 -1 819 -25 760 -57C821 -105 872 -166 905 -241Z"/>
</svg>