<svg xmlns="http://www.w3.org/2000/svg" viewBox="0 -1000 1000 1000">
	<path fill="#000000" d="M814 -510C791 -540 745 -583 704 -615C714 -643 722 -674 726 -708L673 -712C661 -621 624 -554 559 -511C571 -502 588 -481 595 -472C633 -498 662 -531 684 -571C721 -540 759 -501 778 -473ZM829 -456H549V-729H829ZM894 -789H487V-397H894ZM130 -391H214V-300H130ZM130 -533H214V-444H130ZM359 -444H267V-533H359ZM359 -300H267V-391H359ZM433 -99V-163H274V-244H416V-589H273V-663H428V-726H273V-836H207V-726H55V-663H207V-589H74V-244H207V-163H42V-99H207V77H274V-99ZM524 -274H600V-9H524ZM727 -274V-9H650V-274ZM856 -274V-9H777V-274ZM918 -9V-334H464V-9H405V53H958V-9Z"/>
</svg>