<svg xmlns="http://www.w3.org/2000/svg" viewBox="0 -1000 1000 1000">
	<path fill="#000000" d="M947 -499H707V-563H900V-616H707V-679H927V-733H794C813 -758 834 -787 855 -816L788 -840C776 -810 749 -765 730 -737L738 -733H586L602 -741C591 -767 567 -807 544 -836L490 -812C507 -789 526 -758 538 -733H428V-679H637V-616H451V-563H637V-499H403V-444H947ZM800 -388C835 -363 877 -327 895 -301L939 -336C920 -362 878 -397 841 -419ZM319 -443H249V-537H319ZM319 -295H249V-390H319ZM127 -390H196V-295H127ZM127 -537H196V-443H127ZM254 -836H191V-728H54V-665H191V-593H74V-239H191V-161H45V-98H191V77H254V-98H387V-161H254V-239H373V-593H254V-665H387V-728H254ZM862 -195C846 -162 824 -130 797 -102C787 -135 779 -176 773 -220H951V-274H767C763 -318 760 -366 760 -418H699C700 -367 703 -319 708 -274H586V-355C618 -363 649 -373 673 -385L625 -425C578 -401 486 -382 408 -370C415 -357 424 -339 427 -326C458 -330 492 -335 525 -342V-274H402V-220H525V-139C477 -132 433 -128 397 -124L404 -66C441 -71 482 -77 525 -84V7C525 17 522 20 511 20C501 21 467 21 429 20C437 37 445 60 447 77C501 78 536 77 558 67C581 57 586 41 586 7V-93L689 -109L687 -162L586 -147V-220H714C722 -158 735 -103 749 -58C709 -26 663 1 616 23C628 34 646 58 654 70C695 49 736 25 773 -4C800 48 836 77 879 77C928 76 949 49 958 -45C943 -50 924 -60 911 -72C908 -7 901 18 883 18C858 18 837 -4 818 -44C859 -83 894 -129 919 -180Z"/>
</svg>