<svg xmlns="http://www.w3.org/2000/svg" viewBox="0 -1000 1000 1000">
	<path fill="#000000" d="M668 -795C660 -752 642 -685 630 -645L668 -630C683 -668 700 -727 717 -778ZM449 -643C444 -683 429 -743 411 -789L372 -776C389 -730 403 -669 407 -629ZM122 -390H181V-295H122ZM122 -537H181V-443H122ZM294 -443H231V-537H294ZM294 -295H231V-390H294ZM367 -98V-161H236V-239H345V-593H236V-665H359V-728H236V-836H176V-728H52V-665H176V-593H72V-239H176V-161H44V-98H176V77H236V-98ZM600 -540C592 -499 578 -439 566 -396H382V-339H513V-238H394V-181H513V-58C456 -49 404 -42 362 -36L374 29C461 13 576 -8 687 -29V-85C645 -78 605 -71 565 -65V-181H678V-238H565V-339H690V-396H612C625 -435 638 -485 652 -528ZM424 -527C437 -488 446 -436 447 -403L493 -417C492 -449 482 -501 468 -539ZM603 -824H560V-604H517V-824H473V-604H371V-546H692V-604H603ZM957 -631H900V-818H842V-631H710V-563H842V-9C842 5 838 9 827 9C817 10 780 10 740 9C749 28 758 58 761 77C813 77 849 75 871 63C892 51 900 32 900 -10V-563H957ZM820 -177C815 -237 793 -338 768 -415L722 -401C745 -323 766 -220 770 -159Z"/>
</svg>