<svg xmlns="http://www.w3.org/2000/svg" viewBox="0 -1000 1000 1000">
	<path fill="#000000" d="M129 -390H193V-295H129ZM129 -537H193V-443H129ZM315 -443H248V-537H315ZM315 -295H248V-390H315ZM396 -98V-161H254V-239H372V-593H253V-665H388V-728H253V-836H187V-728H53V-665H187V-593H74V-239H187V-161H44V-98H187V77H254V-98ZM491 -635H631V-579L511 -569L514 -517L631 -527C632 -478 645 -454 702 -454H822C846 -454 873 -455 887 -458C884 -474 882 -489 881 -506C867 -503 836 -502 820 -502H719C698 -502 696 -509 696 -533V-540L822 -551L819 -594L696 -585V-635H877C873 -605 869 -575 865 -553L917 -543C926 -579 937 -635 945 -684L903 -694L893 -691H697V-734H922V-783H697V-837H632V-691H431V-380C431 -253 426 -81 367 41C381 47 408 66 418 76C482 -52 491 -245 491 -380ZM592 -291H685V-244H592ZM592 -376H685V-331H592ZM833 -331H736V-376H833ZM833 -244H736V-291H833ZM537 -202H889V-417H537ZM568 -114H633V-4H568ZM743 -114V-4H677V-114ZM855 -114V-4H788V-114ZM908 -4V-163H517V-4H461V51H957V-4Z"/>
</svg>