<svg xmlns="http://www.w3.org/2000/svg" viewBox="0 -1000 1000 1000">
	<path fill="#000000" d="M423 -726H836V-160C836 -147 831 -143 817 -142C806 -141 762 -141 716 -143C725 -125 734 -98 737 -80C803 -79 845 -80 871 -91C896 -102 905 -121 905 -160V-792H354V-72H423ZM694 -306H556V-453H694ZM755 -511H497V-248H755ZM793 -649H467V-593H793ZM221 -670C208 -713 185 -779 168 -831L102 -812C119 -759 141 -691 153 -648ZM254 -373L241 -370H173C199 -439 231 -523 255 -595H50V-528H161C134 -449 103 -364 76 -305H206C190 -233 165 -154 134 -97C104 -77 70 -36 35 14L85 81C115 18 148 -45 171 -45C193 -45 231 -11 271 13C344 57 432 68 563 68C682 68 871 62 945 57C947 35 958 0 968 -20C856 -9 694 1 566 1C447 1 357 -6 286 -49C249 -71 226 -90 206 -101C240 -174 270 -271 288 -359Z"/>
</svg>