<svg xmlns="http://www.w3.org/2000/svg" viewBox="0 -1000 1000 1000">
	<path fill="#000000" d="M821 -370C786 -312 737 -263 678 -224C650 -257 605 -298 563 -329C581 -343 598 -356 613 -370ZM675 -431C695 -453 713 -475 729 -498L654 -512C598 -429 487 -334 333 -267C349 -257 370 -235 381 -219C430 -243 475 -268 516 -295C555 -264 598 -224 624 -192C540 -147 441 -117 342 -101C354 -86 369 -60 376 -42C609 -88 829 -193 919 -410L873 -434L860 -431ZM750 -696C717 -646 672 -604 620 -567C594 -596 549 -633 510 -661C524 -673 537 -684 549 -696ZM805 -760L792 -757H606C625 -780 642 -802 657 -825L584 -838C536 -761 443 -670 312 -607C329 -597 351 -575 361 -561C399 -581 433 -603 464 -625C501 -597 542 -562 566 -534C491 -491 403 -459 318 -441C331 -427 347 -401 354 -384C558 -435 762 -544 850 -737ZM221 -670C209 -712 185 -778 167 -830L102 -811C118 -759 142 -690 154 -647ZM269 -373L257 -370H178C208 -439 242 -523 268 -595H50V-528H170C142 -449 107 -364 78 -305H219C199 -232 167 -153 133 -96C104 -75 72 -36 39 11L91 78C117 17 150 -45 170 -45C193 -45 230 -12 269 12C343 55 431 66 560 66C678 66 865 59 940 55C941 33 953 -2 962 -22C851 -10 690 -2 562 -2C445 -2 355 -8 285 -50C249 -71 226 -90 207 -101C248 -173 282 -270 305 -359Z"/>
</svg>