<svg xmlns="http://www.w3.org/2000/svg" viewBox="0 -1000 1000 1000">
	<path fill="#000000" d="M737 -319C713 -273 680 -236 635 -206C587 -222 537 -239 487 -253C505 -273 524 -296 543 -319ZM587 -457L559 -465C543 -438 524 -408 503 -379H315V-319H457C430 -286 402 -254 376 -229C441 -209 504 -190 563 -168C498 -142 415 -124 312 -113C323 -98 335 -73 340 -54C468 -71 568 -98 645 -139C732 -107 808 -74 865 -45L927 -92C869 -119 792 -151 708 -181C753 -217 787 -263 812 -319H944V-379H832C836 -390 838 -401 841 -412L776 -425C772 -409 768 -394 763 -379H589C604 -401 619 -422 630 -443H658V-615H944V-671H658V-752C745 -760 827 -772 890 -789L838 -837C729 -809 516 -792 344 -786C351 -772 359 -749 361 -734C432 -736 511 -739 587 -745V-671H311V-615H537C473 -553 375 -496 287 -468C302 -456 321 -433 330 -416C419 -450 519 -516 587 -589ZM675 -554C770 -514 867 -462 926 -423L966 -468C904 -508 802 -558 708 -597ZM225 -670C212 -713 188 -779 170 -831L102 -811C119 -760 142 -691 154 -647ZM254 -373L241 -370H174C202 -439 234 -523 259 -595H50V-528H161C134 -449 102 -364 74 -305H206C190 -233 165 -154 134 -97C104 -77 70 -36 34 14L86 81C115 18 148 -45 171 -45C193 -45 230 -11 270 13C344 57 431 68 563 68C682 68 871 62 945 57C947 35 958 0 968 -20C856 -9 694 1 565 1C447 1 357 -6 286 -49C249 -71 225 -90 206 -101C240 -174 269 -271 288 -359Z"/>
</svg>