<svg xmlns="http://www.w3.org/2000/svg" viewBox="0 -1000 1000 1000">
	<path fill="#000000" d="M622 -493V-436H842V-289C761 -249 681 -210 624 -186L652 -132C708 -159 776 -193 842 -229V-131C842 -121 839 -118 829 -117C819 -117 788 -117 750 -118C758 -101 767 -78 770 -60C820 -60 857 -61 879 -71C902 -82 908 -98 908 -131V-493ZM782 -314C764 -344 723 -386 687 -415L642 -385C678 -354 718 -311 735 -281ZM754 -605H489V-559H754ZM753 -704H488V-657H753ZM446 -753H801V-543H871V-802H378V-543H446ZM334 -135C390 -162 457 -196 523 -232V-129C523 -120 520 -117 510 -116C500 -115 469 -115 431 -116C439 -100 448 -77 451 -59C502 -59 538 -59 560 -70C583 -81 589 -96 589 -130V-493H305V-436H523V-292C442 -252 361 -212 304 -188ZM468 -316C449 -345 408 -387 371 -415L326 -386C362 -355 403 -312 421 -281ZM220 -670C207 -713 185 -778 167 -830L102 -811C118 -759 141 -690 153 -647ZM254 -373L241 -370H172C199 -439 230 -523 255 -595H50V-528H160C134 -450 103 -364 75 -305H206C190 -233 164 -154 134 -97C104 -77 69 -36 34 14L85 81C114 18 148 -45 170 -45C193 -45 230 -11 270 13C344 57 431 68 563 68C681 68 870 62 945 57C947 35 958 0 967 -20C856 -9 694 1 566 1C447 1 356 -6 286 -49C249 -71 225 -90 206 -101C240 -174 269 -271 288 -359Z"/>
</svg>