<svg xmlns="http://www.w3.org/2000/svg" viewBox="0 -1000 1000 1000">
	<path fill="#000000" d="M135 -512H487V-425H553V-575H341V-674H551V-737H341V-833H270V-737H76V-674H270V-575H71V-425H135ZM560 -270L348 -246V-285C402 -317 460 -359 502 -401L456 -437L441 -433H147V-374H375C345 -350 309 -325 277 -307V-237C196 -228 123 -220 65 -214L73 -146L277 -171V-20C277 -9 273 -6 259 -5C246 -4 201 -4 150 -6C160 14 172 42 176 63C240 63 283 62 312 51C340 39 348 20 348 -19V-180L561 -206ZM887 -788L876 -785H600V77H670V-717H846C818 -639 780 -532 742 -447C831 -357 856 -283 856 -220C856 -185 850 -155 831 -142C820 -135 806 -132 790 -130C771 -130 744 -130 715 -133C727 -112 734 -82 735 -62C762 -61 794 -60 819 -63C842 -66 864 -73 881 -85C913 -106 926 -154 926 -213C926 -283 903 -361 814 -455C855 -547 902 -663 938 -756Z"/>
</svg>