<svg xmlns="http://www.w3.org/2000/svg" viewBox="0 -1000 1000 1000">
	<path fill="#000000" d="M484 -695H279V-748H484ZM484 -599H279V-652H484ZM484 -502H279V-556H484ZM543 -794H221V-455H543ZM567 -407H164V-770H102V-348H567ZM163 -312C144 -264 107 -190 73 -129C120 -61 162 15 181 68L241 43C221 -2 182 -72 141 -130C170 -181 202 -242 227 -296ZM328 -312C310 -264 275 -190 242 -130C287 -62 329 14 347 66L407 41C387 -3 348 -73 309 -131C337 -182 368 -242 391 -296ZM492 -311C474 -264 440 -190 407 -129C454 -61 496 16 515 67L575 42C555 -2 514 -72 474 -130C501 -181 532 -242 554 -296ZM899 -795L892 -793H621V76H685V-726H857C828 -648 786 -541 746 -457C841 -366 870 -293 870 -231C870 -196 863 -165 843 -153C831 -146 816 -142 800 -141C780 -140 750 -140 719 -143C731 -123 738 -94 739 -74C768 -73 801 -72 827 -75C850 -78 873 -85 890 -96C923 -118 937 -166 937 -224C937 -294 913 -371 816 -466C861 -556 910 -670 949 -762Z"/>
</svg>