<svg xmlns="http://www.w3.org/2000/svg" viewBox="0 -1000 1000 1000">
	<path fill="#000000" d="M496 -337C482 -381 446 -451 414 -501L358 -489C371 -467 385 -442 396 -417L220 -401C301 -458 384 -529 456 -604L402 -642C382 -617 359 -593 337 -570L205 -561C246 -595 288 -637 324 -680L322 -681H647C611 -634 566 -592 552 -579C534 -564 519 -554 504 -552C511 -536 521 -504 525 -492C539 -498 562 -502 682 -514C639 -475 601 -445 583 -433C552 -409 526 -393 505 -390C512 -372 523 -340 525 -328C546 -336 579 -342 860 -370C870 -351 878 -333 883 -318L941 -340C924 -387 880 -458 839 -511L784 -492C801 -471 817 -446 832 -420L628 -402C709 -459 792 -532 864 -608L811 -645C791 -620 767 -595 744 -571L608 -562C649 -595 690 -638 726 -681H939V-742H692C713 -766 736 -792 756 -818L681 -841C665 -813 639 -773 614 -742H392C374 -771 342 -811 314 -839L253 -814C273 -792 295 -767 310 -742H61V-681H246C209 -634 163 -591 148 -578C132 -563 117 -553 102 -551C109 -535 119 -503 122 -491C136 -497 159 -501 275 -512C231 -473 193 -443 176 -431C145 -408 119 -392 99 -389C105 -371 115 -339 118 -327C138 -335 170 -340 420 -367C427 -350 433 -334 437 -321ZM951 -157H538V-168C621 -194 709 -231 773 -274L729 -313L713 -309H209V-253H619C572 -231 517 -211 466 -197V-157H50V-95H466V1C466 14 462 17 445 18C430 19 369 20 306 17C316 35 327 58 332 76C414 76 465 76 497 67C529 57 538 41 538 3V-95H951Z"/>
</svg>