<svg xmlns="http://www.w3.org/2000/svg" viewBox="0 -1000 1000 1000">
	<path fill="#000000" d="M144 -180V-186V-269H273V-180ZM273 -405V-322H144V-405ZM331 -463H86V-187C86 -111 84 -23 51 42C63 49 88 69 98 81C129 24 139 -54 143 -124H273V5C273 14 270 16 261 17C253 17 228 17 197 16C206 32 215 57 217 73C259 73 287 73 306 62C325 51 331 35 331 5ZM513 2C513 13 510 16 498 16C487 16 452 16 412 15C420 32 428 55 431 72C487 72 523 71 545 62C568 51 575 35 575 2V-469H513ZM444 -430H391V-81H444ZM335 -838C272 -729 153 -629 33 -574C50 -559 69 -536 81 -518C115 -537 150 -559 183 -583V-530H480V-590H192C246 -630 296 -678 337 -730C423 -669 529 -592 584 -545L626 -599C569 -646 459 -721 373 -780C379 -791 386 -803 393 -814ZM901 -787L890 -783H651V75H719V-713H860C834 -636 797 -531 761 -448C848 -356 872 -284 872 -220C872 -186 866 -154 847 -141C836 -134 821 -132 806 -130C786 -130 757 -130 728 -133C740 -113 747 -85 749 -66C777 -64 808 -64 833 -67C856 -70 877 -76 894 -88C925 -109 938 -157 938 -214C938 -284 915 -361 828 -455C869 -550 914 -664 949 -755Z"/>
</svg>