<svg xmlns="http://www.w3.org/2000/svg" viewBox="0 -1000 1000 1000">
	<path fill="#000000" d="M540 -436H433V-494H540ZM433 -601H540V-549H433ZM553 -290V-232H433V-290ZM433 -125V-186H553V-125ZM249 -125C250 -137 250 -149 250 -159V-186H372V-125ZM372 -290V-232H250V-290ZM602 -648H433V-700H653V-759H434C425 -784 411 -815 397 -838L334 -823C344 -803 354 -781 362 -759H93V-370C93 -245 90 -77 42 38C58 44 86 60 99 71C150 -50 158 -238 158 -370V-700H372V-648H205V-601H372V-549H168V-494H372V-436H205V-389H372V-341H189V-160C189 -99 185 -25 144 30C157 39 181 61 190 74C223 31 239 -25 246 -79H372V63H433V-79H553V-2C553 7 551 11 541 11C531 11 505 11 470 10C478 27 486 48 489 65C536 65 570 64 590 55C612 44 617 30 617 -2V-341H433V-389H602V-494H655V-549H602ZM910 -787L899 -783H680V75H744V-721H875C851 -644 815 -536 783 -449C861 -357 882 -281 883 -218C883 -183 877 -150 860 -138C850 -131 837 -128 823 -127C807 -126 781 -126 755 -129C766 -110 771 -84 772 -67C797 -65 826 -65 848 -67C869 -70 889 -76 903 -87C931 -108 943 -156 943 -212C943 -282 923 -361 844 -456C881 -550 923 -666 954 -758Z"/>
</svg>