<svg xmlns="http://www.w3.org/2000/svg" viewBox="0 -1000 1000 1000">
	<path fill="#000000" d="M107 -632H288V-417H354V-632H535V-545H597V-685H354V-743H581V-800H69V-743H288V-685H47V-545H107ZM107 -414C156 -431 207 -449 263 -468L257 -507C192 -488 131 -472 84 -462ZM116 -571C155 -555 204 -532 229 -515L256 -553C230 -570 180 -592 142 -604ZM564 -387H97V-333H564ZM562 -458C523 -475 450 -496 395 -509L376 -473C432 -457 504 -433 544 -416ZM492 -604C465 -590 414 -564 380 -552L404 -520C439 -529 487 -546 522 -568ZM51 -223H170C157 -183 142 -140 128 -108H454C441 -37 429 -3 414 10C405 17 395 18 377 18C358 18 307 17 257 12C268 29 275 52 275 70C326 74 376 74 401 73C430 72 449 67 467 52C492 30 510 -22 525 -135C527 -143 529 -163 529 -163H220C226 -182 232 -202 239 -223H599V-278H51ZM900 -787L889 -783H651V71H715V-719H862C835 -641 795 -534 757 -449C847 -360 872 -287 872 -224C872 -189 866 -157 847 -145C836 -138 822 -134 806 -134C788 -133 763 -133 735 -136C747 -117 753 -89 754 -71C781 -69 811 -69 834 -72C856 -75 877 -81 893 -93C923 -113 936 -160 936 -218C936 -288 913 -366 824 -458C866 -551 911 -665 947 -756Z"/>
</svg>