<svg xmlns="http://www.w3.org/2000/svg" viewBox="0 -256 256 256">
	<path fill="#000000" d="M88 -175Q96 -173 96 -166Q96 -161 87 -160Q87 -159 74 -154Q68 -149 64 -148Q64 -147 61 -147H59V-146L60 -145L62 -146Q63 -146 67 -142L69 -141L67 -131L69 -128Q72 -129 76 -131H78Q79 -134 82 -135Q86 -135 92 -132Q98 -132 100 -122V-118Q100 -117 98 -117V-111L97 -108L98 -106L97 -103V-99V-95V-91V-88V-85Q97 -80 96 -79L97 -77L96 -70Q97 -66 98 -66L97 -62V-56L98 -54L97 -47L98 -44V-33Q98 -20 89 -8Q83 -2 81 -2L78 -3L79 -6Q74 -23 69 -28L70 -30H74Q76 -30 76 -32H77Q77 -30 78 -30L79 -33V-35Q79 -43 81 -47Q79 -51 78 -62L79 -63L77 -75Q77 -78 78 -83V-84Q70 -79 63 -79Q59 -83 58 -86L59 -88L58 -90L59 -92L58 -95H59L58 -98V-102L59 -106H58V-107L59 -111V-112L60 -115H59Q54 -115 54 -109Q52 -96 51 -90V-88Q49 -83 49 -81L39 -68H38Q37 -68 37 -70Q37 -71 39 -73Q41 -76 42 -82Q43 -82 43 -90V-96Q43 -106 45 -111H44Q40 -107 37 -107Q35 -106 33 -106H32V-104Q33 -104 36 -101V-99L34 -97V-96H35L34 -91V-77V-73V-72V-61L35 -24Q35 -14 31 -8Q29 -3 26 -3H25Q22 -4 22 -8L23 -9Q20 -13 20 -20V-23L21 -24L20 -26L21 -29L20 -41L22 -64Q21 -64 20 -75L21 -83L20 -92H21V-93Q20 -97 20 -98V-100V-101Q18 -115 15 -115V-117H16H17Q24 -115 28 -112L41 -117L43 -119Q41 -126 38 -130V-131L39 -133H41L47 -127L53 -122H54L58 -123V-127V-142V-143H56Q51 -139 49 -139Q48 -138 46 -138Q39 -142 26 -155V-156Q29 -158 40 -161V-160L50 -163Q50 -164 55 -164Q60 -167 77 -170Q80 -173 88 -175ZM150 -166H153L158 -164Q162 -164 166 -156Q173 -149 173 -145Q177 -142 179 -138Q182 -136 188 -131Q188 -130 193 -128Q193 -126 200 -122Q200 -121 209 -117L218 -111Q218 -110 223 -109L238 -102Q238 -101 239 -101L241 -100V-99Q241 -98 221 -96Q218 -95 206 -94L205 -93H204Q202 -93 198 -95Q190 -99 190 -102H189V-98L187 -93V-92Q187 -89 186 -89V-87L187 -85L185 -77V-75Q185 -70 183 -62V-59Q181 -55 181 -51Q180 -51 178 -44Q177 -40 174 -32Q173 -29 170 -23Q166 -14 155 -5Q150 -1 148 -1L147 -3V-6Q147 -9 141 -25V-27Q140 -27 139 -28L140 -30Q138 -30 134 -36L135 -37L143 -32L145 -33L151 -27V-29V-30V-32Q151 -33 153 -33V-36L155 -42V-46V-49H156H155V-50Q158 -63 161 -69L160 -70V-72Q161 -72 163 -84L164 -86L162 -88V-89L164 -90V-92L163 -94L164 -95H163Q158 -95 151 -90Q148 -90 144 -88L141 -87H140L138 -86Q144 -86 149 -77V-76Q148 -74 147 -71L142 -63L141 -62L137 -54Q133 -50 133 -49Q133 -45 131 -45Q128 -40 125 -40V-37Q125 -36 123 -36V-35V-34Q120 -29 110 -21Q110 -20 101 -15Q101 -14 98 -13H97V-15Q105 -21 106 -25Q112 -31 112 -33Q114 -35 118 -43Q119 -43 119 -47Q121 -47 122 -52L123 -53V-54L130 -71Q131 -71 132 -77L134 -79V-80Q134 -84 137 -84V-85H135Q133 -84 132 -84Q131 -80 128 -80L127 -79H126Q123 -79 120 -83Q117 -83 117 -86Q111 -87 111 -88V-89L112 -90H113L115 -89Q115 -91 116 -91L118 -90Q121 -91 123 -93H125L126 -92H127Q127 -94 128 -94L130 -93Q130 -95 137 -97V-98H138V-97H139Q139 -99 143 -99L145 -98Q145 -100 151 -101Q151 -103 152 -103L154 -102L158 -104H159H161Q164 -104 164 -107H165H167Q168 -109 171 -111L173 -109V-110H175Q177 -108 182 -106Q184 -106 185 -103L186 -102Q187 -102 187 -103Q186 -106 181 -109L172 -122L171 -124Q168 -124 168 -126L169 -127Q163 -133 163 -138L162 -137H161L160 -139V-140V-142Q156 -145 156 -148V-149L150 -158Q150 -159 146 -160V-162ZM125 -141H126Q133 -135 138 -135L141 -130V-129Q141 -124 134 -122Q134 -121 128 -117Q127 -117 126 -114Q123 -114 123 -113Q123 -111 120 -110Q119 -106 112 -104Q112 -101 109 -100Q107 -96 103 -96L100 -93H99V-96L108 -106Q108 -107 111 -109Q111 -111 114 -115Q119 -120 121 -126Q121 -129 124 -132V-135L122 -136H121V-137Q124 -141 125 -141ZM66 -111L68 -108Q66 -106 66 -98V-95L65 -94L67 -90Q72 -93 76 -94Q78 -96 78 -98V-99V-103V-104V-108V-112L77 -118L78 -120V-121H76Q68 -120 67 -115ZM69 -73L71 -72H73L74 -71V-70Q74 -68 69 -64H66Q66 -63 65 -63H64H63Q60 -61 51 -57Q46 -58 44 -61V-62L52 -66Q52 -67 60 -70Q60 -71 63 -71Q63 -72 69 -73ZM68 -54Q71 -54 71 -52L72 -53Q76 -52 76 -49Q74 -45 67 -44H65Q61 -41 60 -41Q48 -36 47 -35Q41 -38 41 -40Q41 -41 48 -44Q48 -45 51 -45Q51 -46 52 -46L56 -47Q60 -50 63 -51Z"/>
</svg>