<svg xmlns="http://www.w3.org/2000/svg" viewBox="0 -256 256 256">
	<path fill="#000000" d="M171 -185H173Q180 -178 185 -176L187 -172V-171L185 -169L186 -168Q183 -164 178 -162Q173 -157 169 -153H166Q166 -150 162 -150V-149Q162 -147 166 -145Q169 -144 172 -138L178 -145Q180 -145 181 -150Q183 -150 189 -160Q191 -163 192 -163V-167V-171Q192 -172 195 -172H198Q199 -172 205 -167Q211 -165 211 -163V-161Q211 -154 204 -154L198 -151Q196 -146 192 -146Q185 -140 185 -136Q179 -134 174 -126L164 -117L163 -115L167 -114L171 -116Q180 -116 182 -117H183Q185 -117 185 -118L187 -117L198 -118Q193 -124 193 -127Q192 -128 190 -134L191 -135H192Q193 -133 197 -133H198Q208 -133 213 -126L215 -119V-118L212 -110L205 -107Q202 -107 199 -116H198Q196 -114 192 -114V-113L189 -114Q186 -112 184 -112Q184 -111 181 -109L180 -110L179 -108H176Q176 -106 166 -104Q166 -102 165 -102L163 -103Q159 -103 159 -100Q159 -99 157 -99H156L150 -96H148L145 -93H144L142 -94Q141 -94 139 -90Q137 -90 132 -94L134 -96L133 -98L135 -102L134 -103V-104Q134 -107 135 -107H140Q140 -108 146 -108Q148 -109 153 -117Q154 -117 159 -122Q161 -123 164 -128Q166 -128 168 -133L167 -134Q165 -132 162 -132Q156 -134 147 -135L142 -138L141 -141Q147 -149 153 -153Q155 -157 163 -164Q169 -173 170 -178L169 -181Q170 -185 171 -185ZM118 -171Q127 -168 127 -166V-165Q125 -162 120 -158H119V-159Q115 -156 113 -156V-157Q102 -151 101 -151Q101 -150 96 -149L92 -145Q99 -141 99 -140Q98 -130 96 -130L97 -128V-126H98Q99 -126 106 -129Q110 -131 112 -133H113Q115 -129 124 -129Q127 -129 130 -119Q128 -112 127 -111V-104Q125 -104 124 -93V-92V-89L125 -86V-84L124 -81L125 -80V-79L123 -77Q125 -77 125 -76V-75L124 -74Q125 -72 125 -67Q124 -67 124 -66L125 -64V-61V-53V-52V-47V-43V-37V-32V-31V-22V-19V-17Q124 -17 121 -10Q119 -8 113 -4L112 -3H110L109 -4V-11Q105 -23 99 -29Q98 -29 97 -31V-32V-33L104 -32H106V-37Q107 -39 107 -41Q106 -41 106 -42L108 -46H107L108 -51L107 -54L108 -58L107 -60V-65V-66L108 -68L107 -70L108 -72L106 -75L107 -78H104L101 -77H100L97 -78Q97 -75 94 -75L90 -74Q87 -74 86 -79L84 -81Q86 -84 86 -90L85 -93Q86 -95 88 -110L89 -111Q87 -114 85 -114Q84 -114 84 -113L83 -112L80 -113V-111L81 -110Q81 -106 79 -103V-102L78 -98V-97Q77 -92 76 -90V-87V-86Q75 -85 74 -78Q72 -75 69 -72Q67 -70 64 -65L58 -60L59 -58V-54V-46V-41L58 -40L59 -38V-37L58 -36V-34Q59 -33 59 -29V-27V-22Q59 -14 51 -9Q48 -10 47 -14L45 -15L46 -18Q44 -23 44 -25L45 -31V-35L46 -36L45 -41L46 -45L45 -47L46 -50L44 -55L45 -57V-59L46 -62V-63L45 -67Q46 -67 46 -72L45 -77Q47 -78 47 -79L45 -81V-82H46L45 -93L46 -94V-95Q45 -95 44 -97V-99Q42 -102 42 -107Q40 -107 40 -111L41 -113H43Q49 -111 49 -108Q51 -108 59 -111Q62 -111 67 -114H70V-117Q70 -126 67 -130V-131H69Q71 -131 74 -128Q75 -128 79 -124Q82 -123 82 -120L78 -118Q78 -117 80 -117Q88 -119 88 -122L90 -135L89 -137L90 -139L89 -141V-143L90 -145Q83 -142 81 -142L79 -141H78Q78 -139 74 -139L72 -138H71Q65 -146 63 -147Q63 -151 57 -152L56 -154L57 -155H58Q66 -156 67 -157H70Q75 -160 77 -160L79 -159L81 -161H85Q85 -163 91 -164Q91 -165 98 -165Q98 -167 105 -167Q105 -168 109 -168Q110 -170 118 -171ZM99 -117H96L95 -116L96 -114L95 -113H96Q95 -107 94 -106L95 -102Q93 -98 93 -87L94 -86L96 -87L98 -86Q98 -88 103 -89H105L108 -91Q106 -91 106 -97V-99V-101V-104V-111L105 -113L106 -118V-120ZM58 -102V-101L59 -99V-96V-90V-88L58 -87L59 -81V-80V-76V-74V-71H60L59 -68V-64H61L65 -72L67 -77H66Q67 -79 68 -79V-80Q68 -86 70 -87H69V-88L70 -91L68 -92L70 -97L69 -98V-99L70 -100V-104Q70 -107 67 -107Q63 -104 58 -104ZM194 -99Q197 -97 197 -95H198H199Q200 -94 205 -94Q207 -92 209 -89V-84Q207 -81 207 -70V-68V-66V-65V-54V-50V-46L206 -39L207 -38L206 -35L207 -32V-31V-28V-18Q207 -9 202 2Q199 6 194 10H191L190 9V8L191 5L190 3V1Q188 -1 188 -5Q185 -10 176 -18L178 -19L181 -18L182 -19Q182 -17 188 -16L190 -17L189 -21Q190 -23 191 -23L190 -34V-38V-42L191 -44L189 -49V-53V-55V-57V-58L190 -61L189 -64L190 -68L189 -74Q189 -77 190 -77V-80V-83Q189 -83 189 -85L190 -86Q189 -88 188 -88Q186 -86 178 -84L176 -85Q175 -83 174 -82H173H170Q170 -80 169 -80L166 -81Q166 -78 158 -78Q158 -76 155 -76L157 -71Q157 -69 156 -67V-66L158 -63Q159 -63 165 -67L166 -66H167Q172 -69 176 -70L180 -72Q184 -71 184 -70Q184 -68 182 -65H180L179 -66L173 -62L167 -61H165Q165 -60 162 -58H159Q158 -56 156 -55L157 -51V-46V-44H158Q161 -44 168 -48L183 -53Q187 -52 187 -50Q185 -46 183 -46Q180 -46 179 -44L174 -42L171 -43L164 -39L161 -40Q160 -36 157 -36V-34V-33V-31V-7Q155 0 151 2H150Q147 0 147 -5Q146 -5 144 -12V-13V-16V-18V-24L143 -25Q144 -26 145 -32V-36V-38L146 -46H145V-51L144 -53L145 -57L144 -59V-60V-62L143 -65L144 -66V-68V-70L145 -72L143 -74V-76L144 -77L142 -79V-80Q143 -84 144 -84H145Q146 -84 146 -81H147H150Q153 -81 159 -84H160L161 -83L171 -87H173Q173 -90 180 -91Q185 -94 190 -94L189 -96Q192 -99 194 -99ZM94 -66Q98 -66 98 -64Q95 -61 95 -59Q85 -56 80 -55Q80 -52 73 -51Q70 -53 67 -54H66Q66 -56 74 -57Q76 -60 80 -60Q80 -61 84 -62Q84 -63 92 -65ZM99 -45V-44H102L103 -43V-41Q103 -40 94 -38L92 -39Q90 -39 90 -36Q77 -34 71 -30L67 -32H66Q62 -33 62 -34Q62 -36 72 -37Q72 -38 77 -40L79 -39Q80 -41 81 -41H82L85 -43H90Q90 -45 99 -45Z"/>
</svg>