<svg xmlns="http://www.w3.org/2000/svg" viewBox="0 -256 256 256">
	<path fill="#000000" d="M147 -189H148Q152 -185 161 -183L164 -178V-175Q162 -172 162 -167Q161 -165 158 -152L160 -151H161Q169 -153 172 -153Q176 -155 179 -155L189 -167H191Q198 -160 203 -158Q207 -155 207 -153V-152Q207 -149 202 -142L188 -104L182 -94Q180 -93 174 -91Q174 -90 171 -90V-91V-98H170V-99L159 -96Q158 -98 155 -100V-101Q156 -103 158 -103H162L171 -105Q173 -105 173 -117Q174 -117 174 -118Q174 -122 172 -122L162 -120L156 -126Q156 -127 161 -128H162L177 -132L179 -145H178Q175 -143 165 -141Q160 -145 160 -147H159Q157 -145 156 -135V-132Q156 -131 155 -129V-126L154 -124L155 -122V-121L154 -119L155 -117Q155 -112 152 -99V-98L149 -75H150Q161 -77 170 -84H172Q181 -79 183 -75V-73Q177 -67 174 -61Q171 -58 168 -50Q161 -41 161 -38V-37Q163 -33 168 -32Q176 -25 179 -24Q180 -22 189 -18Q195 -12 199 -12Q204 -9 207 -9Q210 -6 220 -4Q225 -1 234 0Q234 2 231 2L230 1Q222 2 217 4H215L205 8Q198 13 197 13L179 0Q178 -2 174 -5Q174 -7 167 -12L162 -17Q152 -26 152 -29H151Q151 -25 137 -15Q136 -15 135 -12Q133 -11 125 -6Q123 -6 111 1Q105 2 92 8L84 10L83 9V8Q83 7 92 4Q96 0 99 0L111 -7L122 -14Q131 -19 141 -30L145 -35V-36Q141 -36 141 -41Q140 -41 136 -49Q128 -51 128 -55Q128 -57 130 -59H131Q132 -58 139 -56Q143 -54 146 -50L150 -46H152Q160 -57 164 -71L163 -72H162Q157 -68 150 -67L138 -62V-61L137 -62Q137 -60 134 -60Q125 -65 125 -66V-68H126H130Q141 -70 141 -72V-73L139 -76V-77Q139 -78 141 -78V-80Q141 -85 142 -86V-88L143 -93V-97L142 -100L143 -111V-112V-115V-119Q141 -116 136 -116Q133 -115 130 -113Q126 -113 126 -108L128 -103L126 -99L127 -97L125 -95H126Q132 -95 134 -98H135L140 -94Q140 -90 130 -90Q128 -89 128 -85Q126 -81 123 -81Q123 -79 122 -79H121L118 -82L119 -85L115 -102L112 -115H111Q109 -115 109 -112Q108 -112 107 -107L106 -106L107 -103L105 -99V-97L104 -96V-93V-79H103V-78L104 -77V-72V-69V-67V-59V-56L105 -47V-45L106 -34V-29Q105 -20 98 -11L92 -5H90H89Q88 -5 87 -13V-15Q87 -23 79 -31V-32L80 -33L87 -32Q88 -34 88 -36V-38L89 -50L88 -52L89 -58V-83L88 -84L86 -82H84Q84 -81 78 -80L77 -81L74 -80Q70 -80 69 -88L70 -90L68 -95L69 -104V-106L70 -108L69 -111V-112L68 -114H67Q63 -111 59 -111V-108L57 -90L51 -75L45 -64L42 -62L41 -56L43 -44L42 -37V-36L43 -34Q58 -41 60 -41L75 -46H76Q78 -44 80 -44Q83 -41 83 -40Q81 -36 80 -36H75Q74 -35 66 -33Q66 -31 58 -30L49 -26L43 -31L42 -29V-24Q41 -18 36 -13L32 -9H31Q28 -9 28 -16Q27 -16 26 -20V-27L25 -32Q26 -34 27 -45L28 -46L27 -51V-53L26 -62L27 -64L26 -71V-78V-82V-86L25 -91L26 -95L25 -97L26 -99Q24 -100 24 -103L25 -105L21 -112V-113L22 -114H23Q29 -108 31 -108H32L46 -112Q46 -113 50 -114L49 -117V-119Q49 -124 47 -130Q47 -134 48 -134H51Q54 -130 58 -127Q58 -126 61 -126V-124L59 -121Q60 -118 62 -118Q68 -120 68 -123L69 -126L68 -133V-135Q68 -141 62 -141L55 -139Q53 -139 48 -135Q43 -140 42 -140Q38 -144 37 -148L30 -153V-154Q30 -156 43 -158H44L49 -160H51L62 -162Q67 -162 71 -164H74Q76 -166 88 -168Q101 -173 103 -173Q108 -169 109 -164Q107 -161 105 -161Q102 -161 99 -159H98L91 -157L74 -149Q72 -149 71 -146L80 -140V-137L79 -127Q79 -125 80 -125Q82 -126 86 -128Q88 -128 91 -131Q93 -131 99 -127Q105 -125 107 -125H108L105 -131V-133L107 -134Q108 -132 110 -132H112Q119 -136 123 -141Q125 -142 129 -150V-155Q129 -157 132 -157L142 -153Q142 -151 144 -151L145 -154V-161L144 -170L145 -172Q145 -175 141 -182Q143 -186 147 -189ZM116 -129Q116 -127 121 -125Q124 -122 124 -119L123 -118L131 -121Q134 -121 137 -124H138Q141 -122 142 -120H143V-122Q143 -126 143 -127V-129V-136L144 -140V-143L142 -142L139 -143Q134 -139 130 -139L117 -129ZM76 -108V-102Q76 -93 75 -92L76 -90L85 -93Q89 -93 89 -94V-96L88 -100L89 -107V-118L88 -119Q78 -119 78 -114ZM49 -107Q49 -105 42 -103L40 -101V-99L39 -97L40 -94V-93L39 -89L40 -83H39L40 -82V-73V-71V-70L41 -66H42Q44 -66 46 -80L48 -84V-85Q49 -94 51 -100H50V-101L51 -107ZM75 -69Q82 -68 83 -66V-65Q83 -62 77 -61Q74 -59 73 -59H71Q66 -57 62 -55Q58 -55 57 -53H54L46 -58V-59Q46 -60 52 -62Z"/>
</svg>