<svg xmlns="http://www.w3.org/2000/svg" viewBox="0 -256 256 256">
	<path fill="#000000" d="M172 -186Q173 -186 176 -184Q179 -184 182 -182Q187 -182 188 -178L190 -176Q190 -175 188 -173Q188 -170 187 -169L188 -168V-167Q187 -165 186 -160V-154L184 -152L187 -150H188L190 -155L195 -161L194 -162Q195 -162 198 -167V-168Q197 -168 197 -169V-173Q197 -174 202 -176Q214 -164 214 -162Q214 -157 211 -157Q210 -155 204 -154Q204 -153 200 -153Q200 -151 199 -151Q190 -147 185 -143Q182 -143 182 -140Q182 -138 180 -138V-133H181Q183 -133 185 -135H187L189 -134Q193 -137 204 -138Q204 -139 208 -139L212 -140H213H215Q216 -140 222 -137Q224 -137 225 -134V-130Q225 -127 224 -127H223H222H220Q219 -127 217 -128H215H213H208Q208 -127 207 -127L202 -129L197 -127L196 -128Q195 -126 189 -126L184 -125V-124Q190 -122 190 -117Q190 -115 184 -113L178 -107Q178 -105 175 -103Q172 -100 171 -98H172Q175 -100 178 -100L179 -99H180Q180 -101 186 -103L188 -102L195 -105H196L198 -101L199 -100V-99Q198 -97 195 -97H188H187Q182 -95 171 -92L170 -91L167 -92Q165 -91 165 -90Q169 -90 169 -85V-83V-81V-77L174 -81H177Q184 -84 187 -84L191 -78L192 -77L187 -75Q187 -74 176 -73Q173 -71 168 -71L167 -70V-69V-67L166 -58Q167 -55 168 -55Q169 -56 175 -57Q175 -58 177 -58L179 -57Q179 -59 186 -59L194 -62H201H203Q204 -60 207 -60Q211 -57 211 -55V-54Q211 -51 203 -51L198 -52L192 -50L190 -51Q190 -50 176 -48Q171 -46 162 -45V-41L161 -37V-36Q153 -18 147 -10Q146 -10 143 -6Q142 -6 135 -1Q119 9 108 9L102 10L101 9L103 7V8Q108 6 114 5Q126 1 134 -9H136V-12Q139 -14 141 -19V-20V-21Q144 -23 144 -27L146 -29Q145 -29 145 -31L148 -41V-42H147L145 -41H143Q140 -41 134 -37L132 -38L130 -36L129 -37L126 -36Q123 -41 118 -41L117 -42L119 -44H121H122L125 -45H126L130 -47L131 -46Q136 -46 139 -49H141V-48Q145 -51 148 -51Q150 -51 150 -52L149 -56Q152 -61 152 -64L151 -65H150Q150 -63 146 -63Q144 -61 142 -61Q141 -63 136 -63V-65Q136 -67 144 -68Q144 -69 149 -70H152L151 -72L152 -77L151 -79L152 -83V-85H149L148 -83L145 -84Q145 -82 140 -80Q140 -79 137 -79Q134 -79 128 -83Q125 -83 125 -85Q125 -86 130 -86L135 -88V-87H136Q136 -90 142 -90L139 -104Q138 -104 137 -111L136 -112H135L128 -108H126Q126 -110 122 -110Q120 -112 120 -113V-114Q118 -114 114 -118L115 -119L119 -118Q130 -120 131 -121L134 -120L136 -122H137H140Q140 -124 145 -124L146 -127V-128L147 -130L146 -132V-134L145 -140L146 -141Q144 -141 144 -142V-144V-145V-148V-151V-154V-159V-160L141 -162L142 -163Q139 -164 139 -166V-167L142 -170H144Q151 -165 157 -164Q160 -162 160 -159L159 -153V-152V-147V-142V-140V-137V-135V-133V-132V-129V-128Q159 -130 166 -130Q168 -130 169 -136Q170 -136 170 -140V-144L171 -149H170Q170 -154 171 -156L170 -158L171 -161L169 -164Q170 -164 171 -167H170L171 -168Q171 -176 166 -178V-179Q166 -180 168 -183Q168 -186 172 -186ZM102 -169Q104 -166 116 -163Q117 -163 118 -160V-159Q114 -155 112 -155H110Q110 -153 108 -153H106L100 -151H99L91 -146Q89 -146 85 -143Q81 -140 77 -140Q77 -138 74 -138V-137Q75 -135 81 -133Q81 -131 84 -128V-126Q84 -125 82 -125V-124Q83 -124 85 -122Q88 -125 94 -127H95Q97 -125 100 -125Q100 -124 104 -123Q109 -120 111 -118V-111L109 -108V-107Q108 -107 107 -99Q106 -99 106 -98V-95V-94L107 -92L106 -90L107 -89L106 -86Q108 -86 108 -84L107 -81L108 -78L106 -75L108 -70L107 -66L108 -60L107 -59L108 -57L107 -55L108 -51V-48L107 -47H108V-45L106 -44V-43Q108 -41 108 -39V-38V-32V-29V-22Q108 -18 102 -9Q97 -7 94 -5H91H90V-14Q88 -15 88 -18L81 -24V-25L82 -26H85L87 -25H88Q90 -25 90 -33V-38V-41V-45V-57Q90 -58 91 -60L90 -63V-67V-72L91 -74L90 -75V-76V-83Q90 -82 78 -81H77H76Q71 -81 71 -83L72 -90L71 -92L72 -94V-95Q72 -104 73 -105L72 -108Q73 -108 73 -109V-110H72L69 -109H68L67 -110V-109V-107Q67 -102 66 -102V-99Q64 -88 63 -86Q63 -83 59 -78L57 -73L53 -69V-68V-59L54 -57L53 -54L54 -50L53 -47L54 -45L53 -40L54 -39H55Q59 -42 70 -47Q72 -49 75 -49Q75 -50 76 -50H78L81 -48H84H85V-47V-45L78 -40L76 -41Q76 -38 70 -38Q67 -34 63 -34Q63 -32 59 -32Q58 -32 55 -35H53V-23L52 -21L53 -19Q52 -10 44 -3L43 -2H42L40 -4V-6L39 -13H40V-14Q39 -18 37 -22L40 -32V-37L39 -47L40 -51L39 -62V-65L38 -73L39 -75L38 -77V-81L37 -82L38 -85L37 -87V-89L38 -90Q35 -93 35 -98Q32 -100 31 -107Q31 -108 35 -110Q36 -108 42 -104H43Q45 -106 49 -107Q49 -108 55 -109L56 -112L54 -115L55 -116L54 -120V-121V-122Q52 -122 52 -125V-126L54 -127H55Q60 -126 67 -121Q67 -118 69 -116Q73 -117 73 -118V-119Q73 -135 70 -135Q70 -134 67 -134Q67 -133 63 -131H61Q58 -135 51 -139Q50 -142 41 -147L40 -149V-151L45 -153H46L51 -154L52 -155L54 -154Q57 -157 70 -160Q70 -161 77 -162H80L83 -165H86L101 -169ZM122 -153H123L129 -149H130Q139 -144 139 -138L134 -130Q126 -133 126 -138V-140L123 -144L124 -148L121 -153ZM160 -119L158 -120L151 -117H148Q144 -113 139 -113Q139 -111 144 -111Q147 -110 148 -108Q150 -108 151 -99Q152 -99 152 -96Q152 -94 151 -93Q151 -91 153 -91L159 -95L165 -103L167 -104V-105Q169 -113 172 -114V-116V-117L173 -121V-122L171 -123L169 -121H168L166 -123ZM88 -115Q88 -113 85 -113L81 -114V-112V-111V-108Q81 -101 79 -100L80 -99Q80 -92 78 -90V-89L79 -88H81Q90 -93 91 -95V-96Q90 -97 90 -99V-105V-109Q90 -115 89 -115ZM49 -100Q51 -99 54 -89L52 -86L53 -80L52 -77L53 -73H54Q55 -73 57 -88V-90L56 -92L57 -97L56 -104Q49 -103 49 -100ZM76 -68Q80 -67 83 -64V-63Q83 -62 78 -60L76 -59H75Q69 -55 67 -55Q65 -53 63 -53L56 -60L63 -63Q67 -66 76 -68ZM167 -37H169Q174 -34 189 -28L196 -24Q208 -13 210 -6Q211 -6 211 2Q211 5 205 10H204Q199 10 197 6Q191 3 191 -3Q189 -3 188 -8Q186 -8 184 -13Q179 -23 174 -27Q174 -29 171 -32Q171 -33 166 -36Z"/>
</svg>