<svg xmlns="http://www.w3.org/2000/svg" viewBox="0 -256 256 256">
	<path fill="#000000" d="M165 -202Q166 -202 170 -198L174 -196L179 -194L184 -195Q187 -195 189 -188L185 -181V-180L186 -178V-176L198 -180L199 -181Q200 -180 206 -179L208 -176V-175Q208 -172 206 -171L205 -172L196 -167Q194 -167 186 -164Q181 -164 181 -161L182 -160Q181 -153 179 -146H180H181Q182 -147 187 -148Q187 -149 205 -154L212 -157Q216 -157 225 -153Q234 -152 234 -145L235 -143Q235 -139 230 -137L220 -138Q214 -138 201 -130L200 -131L206 -137Q206 -139 208 -142L211 -148V-149H210L209 -147H208L206 -148V-147H205L203 -148Q197 -145 183 -143Q183 -141 180 -141H177L173 -139V-138Q173 -137 178 -135H179V-134L178 -131V-127H179Q180 -129 189 -131Q193 -131 193 -128Q193 -126 183 -124L182 -123H181Q176 -122 176 -118L177 -117L176 -114Q178 -114 181 -112Q192 -116 194 -116Q194 -117 201 -118Q201 -119 203 -119Q208 -117 208 -115V-113Q204 -109 198 -109Q198 -108 196 -108H194H193Q192 -107 186 -106H185L181 -107L179 -106H173Q167 -109 167 -116L165 -117L161 -113H159Q158 -115 154 -115H151L149 -116Q149 -118 163 -122Q164 -123 167 -123L166 -126L167 -133V-135L168 -136V-137L167 -138Q163 -135 153 -132L146 -129Q140 -126 138 -124H137Q134 -128 130 -132L129 -134L143 -137L145 -138H146Q151 -140 159 -140Q162 -142 165 -147H164V-155V-158L165 -162L164 -163L165 -173L164 -177V-179Q163 -186 158 -191V-193Q158 -195 165 -202ZM91 -180H93L106 -170Q111 -168 116 -163V-162L115 -159L116 -157H118L125 -156H126Q126 -155 132 -154Q136 -150 136 -149Q136 -143 134 -143Q134 -141 130 -141Q129 -140 125 -140Q125 -141 120 -142L109 -152H108L104 -149Q104 -147 98 -146Q98 -143 95 -141Q94 -140 77 -124Q77 -123 75 -122L74 -121H75L84 -123Q85 -125 90 -126Q90 -127 96 -128L111 -133V-134Q118 -132 121 -128V-127L119 -126Q118 -124 113 -122L109 -119H107H106Q104 -119 104 -117H106L108 -115V-112Q106 -111 106 -104Q108 -104 120 -109Q126 -109 129 -106Q131 -106 131 -103Q127 -99 125 -99H122Q121 -98 108 -95Q108 -94 105 -93L104 -90V-89L102 -86Q104 -86 104 -80L102 -77L103 -76L102 -72L103 -71L102 -66V-64L101 -63V-61L103 -59Q108 -65 112 -72L115 -81L114 -84Q115 -86 116 -86Q118 -86 123 -82H124Q125 -80 129 -77H130Q131 -77 131 -79V-81L132 -85L133 -104L132 -107L133 -109Q133 -121 130 -121H129V-122L132 -124H133Q139 -118 144 -116Q146 -114 149 -113V-112L148 -110L149 -109L147 -107L148 -105V-104Q146 -103 146 -99Q145 -99 145 -95Q144 -93 143 -92L144 -90L143 -88L144 -86L142 -78V-77Q141 -73 139 -70L140 -69Q139 -69 139 -67H138L139 -66L138 -60V-58L137 -56Q138 -54 138 -46L133 -39Q133 -33 129 -26Q127 -21 125 -17Q120 -5 110 9Q100 21 96 26H94L93 25V24Q109 8 111 0Q115 -4 118 -13V-15Q120 -16 122 -29L126 -37V-38Q126 -47 127 -49V-51Q128 -52 129 -61Q130 -61 130 -66L131 -68L130 -70L131 -71L130 -73Q122 -68 118 -66Q118 -63 113 -62Q113 -60 102 -54Q101 -52 101 -44V-39L108 -41Q108 -42 116 -44H117L121 -40V-39Q121 -38 118 -37L117 -39Q114 -36 108 -34L103 -32Q99 -32 91 -27Q79 -23 75 -18Q72 -18 64 -10H62Q56 -18 51 -18Q51 -20 46 -22V-23Q46 -25 55 -27H62Q62 -29 75 -32L82 -34Q83 -35 84 -39V-44V-46Q84 -49 85 -50V-51V-54V-60V-63V-64V-65L86 -68L85 -71L86 -73L85 -75V-78V-82L84 -83Q80 -81 78 -80Q74 -77 71 -77Q71 -75 65 -72H64Q58 -76 52 -82Q53 -83 63 -87L70 -90L71 -89Q71 -91 77 -92Q77 -93 85 -94V-95V-100L86 -102L85 -104Q85 -106 87 -108V-110H86Q84 -108 82 -108Q81 -112 76 -114Q74 -116 73 -119Q64 -113 56 -105Q51 -102 49 -101Q35 -90 35 -89Q32 -89 27 -85L16 -79H13L12 -80V-81L26 -88Q34 -93 44 -103Q53 -114 57 -117Q74 -136 86 -158L88 -162Q85 -165 85 -167V-171Q85 -173 91 -180ZM209 -105Q214 -101 219 -101Q222 -99 223 -95Q220 -88 217 -86L210 -74L206 -69Q206 -67 201 -63Q201 -62 196 -59H195L194 -60L195 -66L193 -67Q192 -64 190 -64L186 -65Q181 -63 179 -63L173 -60L171 -61Q159 -55 157 -55V-54V-52V-51H156L154 -54Q152 -54 152 -58V-61Q151 -61 150 -72V-73L149 -81V-82L148 -85V-86L147 -90L150 -93H151L153 -90Q159 -90 165 -93L171 -95H173H174Q176 -97 179 -97Q179 -98 189 -99Q189 -100 196 -101Q196 -102 201 -103Q201 -104 203 -104L205 -103Q206 -105 209 -105ZM182 -93V-91Q183 -91 185 -87L184 -84H186Q191 -86 193 -86Q197 -86 197 -84Q196 -81 189 -81Q189 -80 185 -79Q183 -79 182 -81H181L183 -77V-76L182 -71Q182 -69 183 -68L186 -69L187 -68Q195 -70 195 -72L197 -77L196 -79Q197 -79 197 -84L198 -88H200L198 -91V-92L199 -94Q199 -96 198 -96H194H192ZM156 -85L157 -80V-79V-76L156 -73V-72L157 -67L156 -63Q157 -63 158 -61H160L170 -65L173 -64L174 -70Q172 -75 172 -76H171L166 -74H165Q164 -74 163 -77Q173 -79 173 -82L174 -90H172H170Q161 -87 160 -86Q156 -86 156 -85ZM60 -63Q67 -63 73 -57Q77 -55 77 -48Q76 -42 74 -41Q67 -41 67 -46L61 -56Q61 -60 59 -62V-63ZM212 -61L223 -53Q223 -51 224 -50V-47Q219 -41 219 -40L211 -25Q210 -25 209 -22L207 -21V-20H209L210 -21L213 -20Q213 -21 219 -23H222H224L230 -24V-23L234 -26Q244 -21 244 -15V-14Q242 -9 232 -9H231Q224 -12 219 -13L205 -12L201 -14L179 -11L161 -7H158L156 -5H152L136 1H135Q129 -1 129 -2L126 -5V-6Q126 -7 139 -9H141Q142 -10 149 -11V-13L148 -19V-21L145 -36V-38Q143 -38 143 -43L142 -45V-47H143Q144 -47 150 -44Q153 -46 162 -47Q162 -48 168 -49Q168 -50 178 -51Q183 -52 190 -54H192Q195 -56 200 -56L201 -57H204Q207 -57 212 -61ZM189 -49L195 -42V-41Q191 -37 190 -30Q189 -28 188 -24Q187 -24 184 -18L185 -17H186Q187 -18 194 -19Q198 -19 200 -33Q201 -33 201 -43H202L201 -44V-50L200 -51ZM167 -43L165 -44Q161 -41 154 -39H153L154 -35Q154 -34 152 -34Q153 -32 155 -26V-23L157 -15V-12Q162 -14 168 -14Q168 -16 178 -17Q181 -18 181 -27Q182 -27 183 -38V-39L184 -41V-42L183 -43V-47H180Q178 -47 171 -44ZM165 -41Q171 -40 171 -35Q172 -35 172 -32Q171 -24 170 -24L167 -20L165 -23V-28V-33V-36L164 -40Z"/>
</svg>