<svg xmlns="http://www.w3.org/2000/svg" viewBox="0 -256 256 256">
	<path fill="#000000" d="M121 -193Q123 -193 128 -188Q134 -183 139 -183Q139 -182 144 -181Q150 -178 151 -176V-175L150 -171L151 -169L149 -162L148 -158V-157L149 -154L154 -155L158 -156L160 -155Q167 -158 183 -159H185H186H189L190 -158L204 -165Q204 -164 208 -162V-160Q217 -154 223 -151Q226 -147 227 -144Q227 -137 220 -134L213 -135H211H205Q204 -135 199 -134L196 -135Q185 -132 180 -129L179 -128L177 -130Q191 -143 191 -147L192 -148V-149H186L183 -150L181 -149H177Q173 -148 165 -147L164 -148L148 -144H147H146L143 -143L141 -144Q139 -136 132 -132L127 -129H126Q123 -132 120 -132L119 -136V-137Q119 -136 106 -135L101 -134Q101 -132 91 -131L89 -129L87 -130Q86 -129 83 -129Q81 -126 71 -124V-123Q71 -121 72 -121V-119V-109Q72 -106 71 -106L72 -105V-104Q71 -99 64 -93L59 -90H55Q51 -91 51 -99L50 -105H51L50 -109Q51 -115 56 -128L58 -133V-138V-142V-145L59 -146H60Q64 -140 67 -135L69 -134L79 -137Q79 -138 88 -140L94 -142H98L114 -146Q119 -146 119 -151L118 -164V-165L117 -169L118 -172Q116 -172 115 -177Q114 -177 114 -181Q110 -181 108 -187L113 -191Q117 -193 121 -193ZM151 -126Q160 -124 160 -122V-119Q156 -113 148 -113H143Q143 -112 142 -112Q132 -109 123 -105Q121 -105 119 -103Q117 -103 109 -99Q107 -99 103 -96L102 -97L98 -94V-93Q107 -86 107 -83V-82Q107 -79 103 -74V-72L110 -68Q123 -72 127 -76Q127 -77 131 -77Q135 -80 141 -81Q141 -84 145 -84H146L149 -82H151Q154 -81 154 -80Q154 -75 149 -75Q138 -72 131 -67Q125 -65 124 -65V-64L125 -63H130Q135 -63 141 -57Q144 -57 148 -62Q150 -62 151 -73Q155 -76 157 -76H159Q163 -71 169 -70L173 -65V-64Q173 -62 169 -60Q169 -59 165 -59Q155 -50 150 -49V-47Q151 -47 171 -32Q176 -27 194 -16Q198 -15 207 -9Q215 -5 221 -5V-4L219 -2H217Q210 -2 201 1Q201 2 192 5Q186 9 184 9Q182 9 179 6L159 -12Q152 -23 140 -32Q140 -33 136 -36L132 -40Q130 -38 127 -38Q126 -35 122 -35Q122 -34 116 -33L115 -32H114L113 -33Q114 -37 117 -37Q117 -38 121 -39Q121 -40 125 -41Q125 -42 128 -43L129 -46Q128 -46 127 -51L118 -60L114 -59H111L110 -58V-56V-51V-50L109 -45V-44V-41V-39V-37V-35V-29V-23V-20V-17L110 -16H111Q119 -23 127 -26L129 -28Q132 -28 132 -27V-26Q129 -23 124 -16Q122 -15 114 3Q113 3 110 11L105 17H101Q99 16 96 7V6L95 -2Q96 -4 97 -13L98 -17V-18Q98 -38 100 -38V-45V-47Q99 -49 98 -63V-64L97 -65L90 -55L83 -48Q80 -42 69 -29Q55 -17 51 -15Q35 -2 31 -2H29L28 -3V-4Q31 -6 37 -10L50 -20Q52 -23 56 -27L74 -53L78 -62Q80 -67 86 -77L90 -91Q88 -97 86 -97Q85 -97 85 -99Q85 -101 89 -103Q95 -106 107 -110Q111 -113 114 -113Q115 -114 118 -114L119 -113Q119 -116 125 -116Q125 -117 136 -119Q136 -120 141 -121Q142 -123 151 -126ZM142 -104H145Q149 -100 150 -98V-96Q146 -91 143 -91L140 -92L132 -90Q132 -88 123 -86Q118 -81 117 -81Q113 -84 111 -84Q109 -84 109 -87Q109 -89 119 -91L122 -92L123 -93L125 -92Q127 -96 137 -101Z"/>
</svg>