<svg xmlns="http://www.w3.org/2000/svg" viewBox="0 -256 256 256">
	<path fill="#000000" d="M87 -185L91 -181Q103 -177 103 -171V-170Q96 -162 91 -157L80 -145Q75 -139 67 -133Q68 -130 72 -130V-128H74Q76 -127 82 -124L88 -117V-114L87 -112Q89 -112 89 -111V-107Q90 -105 90 -104V-100V-98V-97V-96V-93Q90 -88 88 -88L89 -86Q84 -76 82 -74Q81 -71 75 -68H73Q71 -68 71 -72Q66 -87 56 -92Q55 -94 54 -95Q53 -95 52 -90L53 -88L52 -85V-81Q51 -79 51 -75V-73V-60V-56V-54L50 -52L51 -50L50 -45L51 -41L50 -38L51 -35L50 -34L51 -32L49 -27L51 -26V-25L50 -23L51 -18V-15V-5Q51 1 47 6Q43 9 42 9Q39 9 38 3Q36 0 35 -5Q32 -9 32 -16L34 -23H33L34 -35V-39V-47L35 -51L34 -56L35 -58L34 -60L35 -64L34 -67Q35 -69 36 -79L35 -80L36 -94V-98V-108L34 -117V-119Q33 -121 30 -126L31 -127L30 -131Q30 -134 33 -134H35Q37 -132 47 -127Q50 -126 53 -122V-117Q53 -114 52 -114V-110V-102V-99Q52 -96 56 -96Q56 -95 71 -93L72 -96L71 -98L73 -99Q71 -117 69 -117L70 -120L68 -124V-127Q66 -127 64 -133Q68 -139 68 -144Q69 -146 70 -150Q71 -150 72 -156H71L55 -145L52 -144Q46 -145 39 -151L30 -155L28 -159L29 -161H35Q44 -164 50 -165Q50 -166 57 -167Q57 -168 70 -171Q78 -173 78 -176Q79 -180 86 -185ZM136 -180Q152 -174 154 -172L156 -168V-167V-165Q150 -156 150 -151L149 -149L148 -144H150L151 -145L153 -144Q156 -147 164 -148Q174 -153 181 -155Q188 -155 188 -154H190H191Q196 -152 196 -147L197 -146Q195 -143 189 -143H187Q171 -143 152 -138V-139L145 -137H144Q137 -130 133 -130H132L131 -131H130Q128 -131 119 -128Q115 -126 112 -126Q102 -121 100 -121H99Q94 -121 90 -124Q88 -125 88 -126V-128L89 -129H93Q95 -131 108 -133Q114 -136 120 -136Q120 -137 128 -139Q130 -139 132 -156L131 -159V-163Q129 -168 126 -171L125 -173Q127 -180 132 -180ZM153 -122H154Q169 -111 169 -105V-104Q168 -101 162 -99Q154 -89 153 -83Q150 -79 150 -68L149 -65L150 -60V-57V-54V-52Q155 -40 158 -40Q160 -38 165 -37L167 -36V-37H168L174 -36H177H179H180H181L184 -35H188H193L203 -37L204 -44Q206 -50 207 -59L206 -60Q208 -63 208 -66V-68L209 -69L211 -68L210 -63V-56V-54Q211 -47 217 -38Q222 -32 226 -27Q227 -25 227 -22Q226 -22 225 -18Q225 -16 207 -13L197 -14H195H189H185Q182 -15 179 -15H176Q164 -18 163 -18Q163 -19 159 -19Q158 -22 152 -24Q145 -28 143 -32Q141 -34 139 -40Q137 -42 136 -50L135 -52L136 -54L135 -57L137 -60L136 -63Q141 -94 144 -101L143 -102Q134 -102 131 -98H130H129Q124 -97 124 -96V-86Q122 -66 117 -53Q109 -37 98 -24Q85 -13 75 -6H74Q73 -6 73 -8Q73 -9 82 -15Q91 -25 94 -32Q97 -36 102 -48L103 -49V-51Q105 -51 107 -76V-77L108 -78L107 -85L108 -86L107 -88L109 -90L107 -92L108 -95Q106 -102 103 -106Q103 -109 106 -110H107Q111 -110 115 -104L119 -102Q123 -104 131 -106Q133 -108 141 -109Q141 -110 144 -110Q147 -122 153 -122Z"/>
</svg>