<svg xmlns="http://www.w3.org/2000/svg" viewBox="0 -256 256 256">
	<path fill="#000000" d="M147 -200H148Q149 -200 153 -198Q153 -198 154 -198Q165 -195 165 -192Q165 -185 157 -182Q154 -180 142 -176L135 -172Q139 -168 139 -167Q139 -162 137 -159Q137 -159 138 -158Q148 -161 152 -161Q152 -161 152 -160Q158 -161 158 -162L160 -161L162 -162Q168 -162 176 -164Q186 -166 186 -167Q192 -173 194 -173Q199 -168 202 -166Q202 -164 209 -163Q214 -161 214 -156V-155Q214 -149 205 -146Q200 -147 199 -147H198H194Q187 -147 178 -141Q178 -139 173 -137L172 -138Q180 -149 183 -156Q182 -156 181 -156Q178 -156 176 -156H175L174 -155H173L171 -156Q171 -155 166 -154Q163 -153 162 -153Q162 -154 159 -154H158Q157 -154 156 -154Q156 -154 155 -154Q151 -152 137 -151L136 -150Q136 -148 137 -147Q136 -144 136 -141V-137Q136 -136 137 -133L136 -131Q136 -129 136 -128Q135 -124 135 -123V-120V-118Q135 -114 135 -113Q133 -100 126 -100Q125 -98 124 -98Q121 -98 121 -111Q121 -112 119 -116V-117H118Q116 -116 113 -113Q112 -111 105 -105Q102 -100 99 -98V-97Q99 -96 97 -95Q89 -101 89 -106Q89 -107 95 -108Q95 -109 99 -110Q99 -111 109 -116Q109 -116 118 -120Q119 -120 119 -117Q119 -117 120 -119Q119 -122 119 -125V-134Q119 -145 115 -145H114Q109 -142 104 -141Q102 -140 94 -138Q90 -136 81 -133Q81 -132 76 -131Q78 -127 78 -126Q77 -118 76 -118V-115Q75 -106 72 -102Q72 -100 63 -94Q57 -97 57 -103Q56 -103 56 -106V-111Q56 -113 57 -115L56 -116Q60 -125 60 -130Q60 -132 61 -137V-146Q61 -146 59 -151V-152Q59 -152 60 -153H61L72 -142Q77 -143 89 -146Q89 -147 96 -148Q96 -149 112 -152Q118 -153 118 -155Q118 -163 117 -163Q113 -161 111 -161Q104 -170 94 -179H93V-181Q93 -182 101 -183L111 -187L126 -192Q134 -194 138 -196Q142 -196 147 -200ZM153 -141Q164 -140 164 -137V-136Q164 -132 158 -129H157Q156 -129 148 -134Q141 -136 141 -137V-138Q141 -140 153 -141ZM99 -134Q100 -132 110 -131Q113 -128 113 -125Q111 -123 105 -120Q103 -120 99 -124Q94 -127 90 -128V-129Q91 -132 99 -134ZM151 -126Q162 -126 162 -125Q162 -125 163 -125Q167 -123 167 -120V-118Q163 -114 158 -113Q152 -117 150 -117Q147 -120 143 -121Q143 -125 148 -125Q148 -126 151 -126ZM138 -104Q139 -100 147 -97Q151 -97 151 -94Q153 -93 153 -91Q150 -87 145 -81V-80Q136 -68 136 -66Q142 -64 142 -62Q142 -59 136 -56H132Q128 -54 123 -53Q120 -51 116 -51V-50L119 -47V-45Q117 -43 113 -31L114 -30H115L128 -36Q142 -32 142 -30Q144 -29 144 -26Q146 -28 150 -28Q154 -32 157 -40Q158 -41 161 -48Q164 -53 168 -63Q168 -65 171 -71Q171 -71 170 -72Q172 -72 173 -82Q173 -83 171 -89V-90Q174 -92 177 -95Q181 -91 194 -87Q196 -85 197 -83Q197 -75 191 -73Q188 -69 185 -67Q185 -66 178 -55Q178 -54 168 -38Q168 -36 165 -32V-31L166 -30Q169 -30 200 -35Q203 -35 203 -36Q209 -34 209 -33V-32Q209 -27 201 -25Q197 -23 181 -21Q180 -19 178 -19H175Q175 -18 169 -17Q169 -15 154 -13Q144 -8 143 -8Q142 -8 140 -13H139Q133 9 131 9Q129 17 125 22Q125 24 120 28Q111 36 108 36V34Q108 31 108 30Q105 19 100 19Q100 19 98 17Q98 16 100 16Q102 17 110 19Q113 19 115 10Q118 10 120 0V-3Q124 -10 124 -17Q125 -17 125 -25Q125 -25 125 -26H124L122 -25H119Q119 -23 117 -23L114 -24Q113 -21 104 -16Q104 -13 96 -10H94Q93 -12 93 -14Q93 -15 94 -16L92 -18V-19Q100 -26 103 -37Q103 -39 105 -39V-40Q105 -41 106 -45L105 -46Q104 -46 101 -44Q101 -45 92 -50V-52Q92 -52 102 -55Q106 -57 119 -61Q124 -62 124 -63Q124 -63 124 -64Q124 -64 126 -72Q125 -74 125 -75L126 -77L125 -78H124Q119 -75 117 -75Q115 -75 108 -85Q107 -85 105 -88Q105 -89 120 -92Q120 -93 125 -93Q135 -104 138 -104ZM62 -86Q64 -85 81 -84Q90 -79 93 -74Q93 -63 86 -63Q86 -62 80 -62Q76 -66 73 -72Q67 -78 60 -83V-85Q60 -86 62 -86ZM59 -56H60L68 -53Q74 -50 74 -48Q74 -48 74 -47Q75 -46 75 -45Q72 -37 66 -37Q66 -37 64 -37Q63 -38 58 -39Q56 -42 42 -53Q42 -56 59 -56ZM88 -39Q89 -39 89 -38V-37Q82 -27 78 -17Q77 -11 72 -3Q72 -2 71 1Q69 7 69 8Q72 11 75 16Q76 16 77 21Q77 23 71 28H66Q60 24 55 16Q50 10 50 7L46 1H47Q52 2 54 4Q57 4 65 -10Q66 -10 71 -17L72 -20Q74 -20 78 -26L87 -39Z"/>
</svg>