<svg xmlns="http://www.w3.org/2000/svg" viewBox="0 -256 256 256">
	<path fill="#000000" d="M147 -184Q152 -184 155 -178Q159 -176 166 -176Q170 -172 171 -169L169 -158L167 -152L165 -140V-138L166 -137L168 -138H170Q172 -140 175 -140L181 -144H182L186 -143L189 -144Q191 -141 191 -140V-138Q191 -135 178 -131Q178 -130 170 -128Q167 -126 163 -125V-120Q161 -113 160 -111V-110V-107Q159 -106 158 -102L159 -101Q161 -103 166 -103Q166 -104 171 -106H174L182 -110Q194 -113 195 -114H196Q208 -114 208 -108V-104Q205 -100 203 -100L195 -101L194 -102H186L179 -101H175Q168 -100 164 -98L162 -99Q162 -97 156 -95H155Q153 -95 147 -91L137 -87Q134 -87 128 -82Q120 -77 118 -77L117 -79L115 -78Q112 -82 108 -82V-83Q108 -85 112 -85L116 -84Q118 -88 122 -90V-89H123Q127 -92 137 -95V-94Q146 -97 147 -98L146 -103V-107V-108H145L146 -114V-115L145 -117H143L142 -116H141L135 -123V-124Q135 -125 145 -128L147 -130L146 -131L148 -139V-141V-148L146 -151V-154L148 -160Q148 -174 143 -177V-179Q145 -184 147 -184ZM107 -158Q111 -156 111 -153V-152Q111 -150 105 -149H102Q99 -148 96 -148H95L88 -146Q75 -142 75 -141Q80 -135 87 -134L88 -131V-127H90Q93 -130 96 -130Q98 -129 99 -127V-125L96 -122H92Q86 -120 86 -118V-117L84 -109V-107Q83 -107 82 -104H83Q87 -107 93 -107Q98 -107 100 -104Q100 -99 94 -99H91Q91 -95 83 -95H82Q82 -93 81 -93V-90Q81 -87 78 -81L79 -79V-78Q78 -76 78 -75V-74Q85 -76 96 -81L100 -82Q105 -79 113 -76Q113 -75 114 -74L116 -68L114 -66V-63Q113 -63 112 -54Q109 -49 108 -39Q105 -33 105 -25Q101 -9 99 -8Q97 -4 91 1Q91 4 84 8L81 9H80Q79 9 78 6L79 2Q74 -11 73 -11L70 -14L71 -15H73L81 -9H84Q84 -14 87 -14L86 -16Q89 -27 91 -27L90 -30V-33Q92 -36 92 -38V-39H91L87 -36Q84 -36 82 -41V-45H81V-46L82 -48Q77 -54 77 -56V-57H78Q92 -54 92 -47H93L94 -48V-50Q94 -57 96 -59L94 -61L95 -64V-67L96 -70V-71H95L90 -69H86L83 -68H82Q79 -66 71 -64H70H69Q69 -63 63 -63Q63 -61 57 -61H56L54 -59Q51 -59 51 -54Q48 -49 46 -45H45Q43 -46 40 -54H39V-69Q39 -73 41 -73L40 -76L41 -79V-81L42 -91L40 -95L41 -99Q39 -100 39 -104L41 -110V-111L39 -113V-117L40 -118L38 -122H39L38 -124L39 -126Q37 -126 37 -130V-135Q33 -140 33 -144Q33 -147 35 -147Q41 -147 45 -141L48 -140Q57 -144 68 -145L84 -151H85L94 -154ZM124 -144H125Q127 -141 134 -138L136 -135H138L139 -134V-131Q130 -121 130 -119Q126 -115 123 -112Q123 -107 100 -89L99 -88H98L97 -89Q111 -102 111 -107Q116 -112 116 -113Q116 -116 120 -122V-125Q120 -128 121 -128L120 -131V-137L119 -140Q119 -143 124 -144ZM58 -134L60 -131V-130Q59 -129 58 -122Q56 -122 56 -117L57 -116Q60 -116 67 -120L71 -121L70 -122Q70 -127 71 -127Q71 -135 69 -139Q65 -139 58 -135ZM57 -114V-113L56 -108H57V-107L56 -104L57 -102Q55 -100 54 -95L55 -93H56Q66 -98 69 -98L71 -97V-99L69 -100V-102L70 -106L69 -108L70 -110L69 -112L70 -113L68 -114L64 -112H63ZM54 -89Q53 -85 53 -80V-76L51 -70V-68V-66V-64L59 -68H61Q61 -69 64 -69Q64 -71 69 -71V-72V-75V-76V-77Q68 -77 68 -79L69 -81L68 -85V-89Q65 -89 63 -86H61Q58 -88 54 -89ZM138 -84H139Q143 -80 150 -76Q152 -73 152 -72Q152 -70 144 -58Q139 -45 137 -45Q137 -41 129 -33Q129 -31 110 -14H109V-15L114 -23Q117 -23 118 -28Q125 -35 127 -42Q128 -42 129 -48Q130 -48 132 -53Q133 -53 133 -59V-61L135 -63L134 -65L136 -67Q135 -67 135 -68Q136 -70 137 -73Q135 -77 135 -82ZM156 -84H158Q161 -80 168 -80Q171 -78 172 -75Q172 -72 167 -67L163 -46L162 -45V-43Q162 -36 160 -35L161 -32L160 -29L161 -26V-23V-22Q161 -20 167 -16Q167 -15 174 -14Q175 -13 177 -13H180H184H189H193Q195 -14 196 -14L199 -13L207 -14V-13Q217 -15 217 -19Q221 -25 222 -30L223 -31H224Q225 -31 225 -27Q228 -17 233 -14Q236 -10 236 -9Q233 0 230 0Q226 0 221 3L213 2L203 4H202H199H195H194H189H184L171 2H170Q168 0 166 0L161 -3Q157 -6 157 -10Q156 -10 154 -14V-16V-18V-21V-24Q154 -28 155 -28L154 -29V-32L155 -36V-37V-39L156 -46L155 -48L156 -50L155 -51Q157 -59 158 -73L154 -81Q154 -83 156 -84ZM60 -52H61L72 -48Q72 -47 73 -47V-46V-42L71 -40L72 -38L69 -35H67Q65 -35 64 -41Q63 -41 61 -48L60 -50V-51ZM44 -43Q48 -40 53 -38Q54 -37 56 -33V-31Q56 -28 51 -24H50Q47 -24 46 -32L42 -42V-43ZM22 -38Q28 -38 36 -27Q36 -11 29 -11Q29 -10 27 -10Q24 -10 22 -22L19 -37Q19 -38 22 -38Z"/>
</svg>