<svg xmlns="http://www.w3.org/2000/svg" viewBox="0 -256 256 256">
	<path fill="#000000" d="M148 -180H151Q155 -176 160 -176Q165 -174 165 -170Q165 -165 160 -149V-148Q159 -146 158 -143L159 -142L156 -136H157Q161 -137 165 -140Q166 -140 170 -140Q174 -145 181 -145Q181 -146 186 -146L187 -147H188Q191 -145 191 -143Q188 -138 183 -138Q178 -135 163 -128Q156 -124 152 -123V-122L153 -121Q153 -117 151 -115V-113Q149 -112 149 -109L147 -108V-106Q149 -106 154 -101Q156 -101 157 -99Q155 -95 155 -91Q152 -90 152 -88V-86H154Q158 -89 159 -91Q169 -99 173 -107L174 -108H173L174 -113H173V-115Q173 -116 175 -117Q179 -116 179 -113Q185 -111 185 -108V-105Q181 -101 172 -97L166 -92H165Q162 -87 159 -87Q159 -86 153 -84L151 -86V-83V-79V-77L149 -71V-68V-66L147 -61V-56Q147 -54 146 -53V-51H148Q148 -53 154 -55Q156 -57 157 -60Q161 -62 164 -67H165Q165 -70 170 -73Q177 -83 177 -85V-86Q175 -86 175 -87L179 -90L185 -83Q187 -82 187 -79Q187 -77 182 -74Q182 -73 177 -72Q176 -69 174 -69Q168 -63 159 -56Q157 -54 153 -52Q152 -50 147 -47L145 -45V-41V-36V-32V-30Q147 -29 150 -24H153Q156 -23 162 -21L163 -20L166 -21L170 -20L175 -21H176L178 -20L180 -21L182 -20L183 -21L186 -20Q198 -21 201 -23L206 -22Q207 -22 213 -23L216 -26Q216 -27 220 -33L221 -37V-40L220 -41V-42L221 -43H222Q223 -43 224 -38V-33Q224 -25 230 -17V-14Q230 -10 225 -10Q225 -9 218 -7Q218 -5 216 -5H214H203H202H200H194L190 -4H185L178 -3Q171 -4 171 -5H169H165H162Q162 -7 151 -8Q149 -13 144 -13Q138 -16 138 -22V-23V-26L137 -32L138 -36V-41V-44V-48V-49V-50H139V-51V-54L140 -58L139 -59L142 -63L141 -64Q141 -67 142 -69V-70L141 -72Q141 -74 143 -78L144 -81V-82L143 -83L144 -86V-89L147 -93L145 -95V-96V-98V-99H144Q143 -99 140 -92Q138 -91 137 -88Q128 -77 127 -77Q122 -71 119 -70L116 -67L114 -68Q113 -56 111 -54L112 -52Q111 -38 109 -30V-29Q108 -27 106 -14L98 -5L88 4L85 2V1L86 0V-1Q86 -4 81 -12Q81 -15 75 -19V-20L76 -21H77Q78 -19 84 -18L88 -16Q91 -20 92 -26L95 -38L97 -46V-49Q98 -50 98 -54V-63V-65V-67V-77H93H92L71 -72H70Q68 -71 61 -70L54 -67V-64Q53 -59 48 -56H47Q46 -56 44 -69V-70V-76V-82V-84L45 -87L43 -101L45 -104Q43 -104 43 -110L44 -113L43 -116L44 -122L43 -126L44 -129L39 -150V-153L42 -156H43L47 -152Q49 -152 54 -148H55Q83 -163 89 -163Q93 -167 98 -167Q98 -168 102 -169L103 -171Q111 -171 113 -167V-166V-165Q113 -161 102 -159L80 -151Q80 -149 87 -145Q92 -141 93 -140V-139L92 -138V-137L93 -135H94L105 -141Q108 -139 108 -137Q108 -131 98 -131Q96 -129 91 -128L89 -113H90Q94 -116 100 -117L101 -118H102Q103 -116 107 -116L108 -115V-113Q108 -110 89 -104L88 -105L85 -84H86H87L90 -85L92 -84Q94 -86 99 -86Q99 -88 102 -88H107Q110 -85 115 -84H116L117 -81V-79L114 -71V-70Q118 -72 122 -79Q125 -82 129 -91L134 -104Q134 -105 137 -108V-110L139 -114V-115L138 -116L132 -112H129Q124 -115 120 -117Q118 -119 115 -121V-122Q118 -125 125 -126Q129 -126 131 -129H135Q138 -130 145 -132Q145 -136 147 -140H146V-141L147 -152V-158L148 -161L147 -166L148 -167L144 -174L143 -175V-176ZM178 -172H180L187 -171H193Q196 -168 198 -165V-161Q198 -158 195 -156H193Q190 -156 190 -159Q184 -161 183 -164L177 -170Q177 -172 178 -172ZM61 -141V-139Q59 -132 59 -128V-125V-124L57 -115V-113V-111V-110L54 -82V-78L53 -76L54 -75H57Q60 -77 65 -77L66 -79H70Q76 -79 76 -85V-87V-90L77 -93Q77 -99 75 -99Q68 -95 67 -95Q64 -97 60 -98Q60 -102 66 -102Q70 -104 75 -106L76 -109V-111Q77 -111 79 -122V-125Q76 -122 67 -118H66L64 -122H61Q61 -124 65 -124Q66 -125 72 -126Q72 -127 78 -128L79 -129L77 -133L78 -137L77 -140L78 -142L77 -146H78H77V-149H75Q71 -146 66 -144Q61 -143 61 -141ZM182 -63L190 -53V-51Q190 -49 181 -46Q181 -45 178 -44Q178 -41 172 -39Q169 -34 155 -26H154L153 -27Q157 -30 169 -45Q169 -46 177 -54Q178 -60 182 -63ZM78 -62H79Q79 -60 84 -59Q93 -53 93 -50V-49Q91 -44 88 -42Q81 -46 80 -53Q77 -56 77 -60V-61ZM61 -54H69Q73 -51 74 -50V-44Q70 -40 69 -39Q66 -40 65 -45Q64 -49 61 -53V-54ZM45 -50Q52 -50 55 -41V-40Q53 -35 50 -35Q47 -35 46 -42Q44 -42 43 -49ZM26 -45H28Q37 -40 37 -32Q38 -32 38 -29Q36 -23 34 -20H30Q29 -20 27 -27V-28V-30V-32V-39L25 -44Z"/>
</svg>