<svg xmlns="http://www.w3.org/2000/svg" viewBox="0 -256 256 256">
	<path fill="#000000" d="M185 -180Q189 -178 201 -174Q206 -171 206 -168V-167L199 -155V-153Q197 -152 197 -147Q195 -147 191 -134L190 -132Q189 -132 189 -129Q188 -129 187 -125Q186 -125 186 -121Q179 -115 177 -115L175 -113L170 -117V-122Q166 -122 162 -121H161L159 -122Q155 -121 155 -119Q155 -117 159 -117Q167 -115 169 -113Q167 -105 167 -103V-102H169Q172 -102 174 -104H177L180 -105V-104L182 -106H183L184 -105Q186 -107 188 -107H190Q190 -108 197 -108Q201 -108 205 -105Q210 -105 212 -99V-95Q212 -94 202 -92Q199 -92 199 -93H198H196L192 -92H189Q186 -87 183 -87H182L181 -88Q181 -89 187 -94Q190 -98 190 -100H189V-101L186 -100H183L181 -99L178 -100Q174 -96 168 -96Q168 -95 156 -93L155 -92Q155 -91 165 -88L166 -87H167Q169 -86 172 -82Q172 -81 171 -81V-77L159 -66V-65H160L174 -68H177Q177 -69 179 -72V-75L178 -77V-79Q178 -80 181 -80L190 -76Q190 -75 194 -73L195 -72V-71Q195 -70 192 -70V-69L195 -68H196L198 -70L199 -69L200 -70H203L213 -72H216Q227 -68 228 -66V-62L225 -59H223H220H218H217Q217 -60 204 -62V-61L198 -62H190Q186 -62 182 -56Q180 -55 174 -47Q172 -47 172 -44Q171 -43 168 -38Q168 -37 173 -34Q173 -33 178 -32Q183 -29 185 -29H186Q187 -27 201 -20L203 -17V-15Q204 -14 208 -4V-3Q203 4 198 4Q194 4 190 -2Q188 -2 182 -8Q180 -9 178 -13Q176 -13 171 -19Q168 -20 160 -28Q150 -21 144 -19Q144 -18 137 -14Q127 -9 120 -6Q118 -4 102 1L101 0Q102 -4 106 -4Q106 -5 111 -5Q111 -6 123 -11L133 -17Q137 -21 141 -23L145 -25Q145 -26 151 -30H153V-31L154 -32H153H152H150Q149 -34 145 -34Q144 -36 134 -41V-43Q134 -45 138 -49V-51L141 -52L140 -55L142 -56H140Q137 -54 132 -54Q130 -53 127 -53Q121 -53 116 -54H115L114 -48V-47Q113 -45 112 -36L110 -32H109L110 -30Q110 -26 107 -21Q107 -15 95 -7Q95 -6 91 -5Q90 -2 87 -2L85 -3L86 -12V-15Q86 -17 80 -22Q79 -24 71 -27H69V-28L70 -30Q73 -30 77 -27L85 -25Q87 -25 89 -23H90L91 -26V-28Q94 -38 94 -41L95 -45V-46H94L92 -45Q87 -50 87 -59Q86 -59 84 -67V-68H86Q88 -67 96 -60H97V-70Q97 -71 98 -73L97 -74Q97 -79 99 -82L92 -83L91 -81H90L89 -82Q89 -81 85 -81H84Q73 -76 66 -75Q65 -73 61 -72Q60 -66 58 -66Q58 -64 56 -64Q55 -59 52 -59Q52 -60 48 -63V-72V-87L49 -90L48 -94V-97L49 -99L47 -113L48 -116L46 -118V-123V-125V-128Q46 -140 43 -147L44 -150Q42 -150 42 -154Q39 -154 39 -156V-158Q39 -161 42 -161Q43 -161 48 -158L55 -156H57H58Q71 -161 75 -161Q80 -164 95 -167Q109 -172 113 -172Q120 -169 120 -168V-166Q120 -160 112 -160Q105 -160 99 -156Q95 -156 91 -155H90H89Q84 -152 82 -152V-151L90 -148Q91 -148 93 -144L91 -138H92V-137L107 -142H108Q109 -142 109 -138Q109 -133 100 -133Q91 -131 91 -128L92 -125V-124L91 -122L92 -119Q95 -119 100 -121H101Q107 -119 107 -118V-115Q107 -113 93 -110Q91 -108 90 -103V-101Q89 -99 88 -92Q87 -92 87 -91Q87 -89 90 -89Q91 -91 95 -91Q99 -93 102 -97L112 -91H113H115Q115 -90 120 -88L121 -86Q118 -81 118 -76Q118 -75 117 -75Q117 -73 118 -72V-70Q118 -69 117 -69H116V-68L118 -65Q116 -65 116 -62Q117 -59 119 -59Q119 -60 121 -61H124L133 -62H134L135 -63H136L137 -62L140 -63H143Q147 -64 147 -67Q152 -72 154 -77H155V-78H154L155 -83L154 -85H155V-86L153 -90L154 -91L153 -92Q151 -90 145 -89H143Q143 -87 137 -87L136 -86L137 -83L136 -81L137 -78Q133 -70 133 -69L129 -66Q125 -66 125 -71L127 -87V-88V-90V-91V-100H129Q134 -97 136 -95Q141 -97 145 -97L146 -96Q151 -98 151 -100V-104Q151 -105 150 -107L151 -108V-109L150 -110H149L146 -114L148 -116V-117H146H145H143L142 -116V-114V-113Q140 -109 138 -109Q135 -109 132 -119V-124L130 -132L129 -133L131 -135L129 -136V-137V-142V-149L127 -154L128 -155L127 -162Q131 -163 132 -164H133H137Q141 -166 147 -167L148 -168H151L173 -174Q174 -174 177 -177Q179 -177 181 -179ZM173 -164L170 -165Q162 -165 156 -162Q154 -162 142 -158Q138 -158 138 -157L136 -158L132 -157V-154H133Q139 -152 142 -150Q143 -150 145 -148Q145 -147 141 -144V-143H144H145V-142H148V-144L151 -146Q151 -147 156 -147Q156 -149 165 -149Q168 -147 172 -146V-144L171 -143L167 -144Q165 -142 158 -141L156 -140H152L150 -138H146Q144 -138 144 -134Q144 -133 141 -131Q143 -129 143 -127L142 -126V-124H144L152 -125H155Q158 -128 172 -130Q173 -131 174 -137L176 -138V-140L175 -141Q177 -144 177 -149V-151Q178 -151 178 -154L177 -156Q177 -157 178 -165L177 -166H176ZM74 -152Q70 -149 66 -149L64 -143V-142L65 -140H64L63 -131V-130Q67 -130 79 -135H80V-136Q79 -139 78 -147L80 -150V-152ZM64 -127L62 -115L63 -114L62 -112L63 -110L62 -108L64 -107Q62 -107 61 -99L60 -98V-97L61 -95L60 -94L61 -91V-82L62 -81L68 -83Q74 -85 78 -85V-86L79 -93H78L79 -95V-99L78 -101L79 -103Q78 -105 78 -106H76L71 -103L65 -106V-107Q65 -108 73 -110L78 -113Q78 -117 80 -119L79 -126L73 -123Q66 -127 64 -127ZM69 -63Q78 -60 80 -57Q81 -55 81 -52V-51Q81 -49 78 -47H75Q73 -47 72 -54Q71 -54 70 -59L69 -60V-62ZM166 -59L164 -60H163Q149 -58 149 -55Q146 -55 145 -50L143 -49H141Q141 -45 147 -45Q147 -44 154 -43Q155 -42 158 -42H160Q167 -49 170 -56L173 -59V-60V-61Q166 -60 166 -59ZM50 -57L59 -50Q59 -48 60 -46Q60 -43 55 -41Q52 -41 49 -50Q48 -50 48 -57ZM29 -53H30Q34 -50 37 -47Q42 -44 42 -39L41 -33V-31Q38 -26 36 -25L31 -30V-35L30 -37L31 -40L30 -41V-43Q29 -49 28 -50V-52Z"/>
</svg>