<svg xmlns="http://www.w3.org/2000/svg" viewBox="0 -256 256 256">
	<path fill="#000000" d="M101 -185Q103 -185 107 -181Q109 -181 111 -180Q120 -180 120 -170Q118 -165 112 -160V-158Q111 -156 110 -150L108 -149L109 -146Q107 -145 104 -134Q102 -129 100 -129L101 -128Q105 -130 107 -131Q108 -131 114 -135Q121 -132 121 -131Q125 -130 128 -127L129 -124Q127 -119 122 -119Q112 -117 112 -116L103 -110H102V-113L107 -121V-122L106 -123Q103 -123 99 -121H97H96Q96 -118 92 -116H90L89 -117L90 -119H89L83 -117L82 -118V-117L75 -115L64 -111L53 -106Q51 -106 44 -103Q40 -103 40 -99L36 -98V-95Q38 -93 38 -92V-91L33 -78Q28 -72 23 -69H22Q19 -69 18 -81L17 -90Q20 -96 22 -104V-117L23 -118H24Q34 -107 34 -106H35Q49 -113 53 -113V-114Q52 -115 52 -123Q48 -134 48 -140Q47 -142 45 -151Q43 -154 43 -159Q42 -159 42 -162Q39 -162 38 -166Q39 -171 40 -171Q41 -171 50 -165L53 -164Q56 -166 61 -167Q61 -168 65 -169Q65 -171 70 -171Q71 -172 85 -177Q85 -178 89 -179Q97 -184 101 -185ZM57 -159Q62 -157 62 -154V-151V-146V-141L63 -136L62 -132V-131L63 -128V-126L64 -121L63 -118V-117L65 -118L67 -117Q71 -117 71 -122V-128V-136V-137L69 -145L70 -146L67 -149V-153Q68 -154 70 -154Q72 -151 74 -151L75 -149H77L80 -152H82Q85 -152 88 -154H90H91Q91 -155 93 -157V-158Q91 -158 91 -160Q91 -162 93 -163V-164L92 -166L93 -167Q91 -170 91 -171Q81 -167 79 -167Q78 -167 69 -164Q68 -162 61 -161Q61 -160 57 -160ZM175 -171H178Q180 -167 185 -165H186Q193 -165 195 -157Q190 -147 188 -127L184 -93H185Q186 -93 188 -99Q196 -111 202 -126Q201 -127 198 -131Q202 -136 205 -136Q206 -136 210 -131Q211 -131 214 -127Q215 -127 220 -124V-122Q218 -118 214 -115Q211 -115 199 -100L186 -89Q183 -89 183 -84V-83L184 -81L183 -79H184V-77L183 -76V-75L184 -73V-63L183 -61V-60Q188 -51 193 -51L194 -50L201 -51L206 -50L215 -52H217Q222 -52 224 -57L227 -63L226 -68H227L226 -70L227 -71H228Q229 -71 229 -67Q231 -67 231 -61V-59Q238 -50 239 -46V-42Q232 -34 228 -34L226 -33L222 -34L220 -33L219 -34L216 -33Q212 -35 203 -35H201L197 -36Q183 -36 179 -43Q176 -43 174 -51L175 -53L173 -59Q173 -62 174 -62L172 -65L173 -79V-83V-87V-89L174 -91L173 -92L174 -94L173 -95L175 -122V-126L176 -130L175 -133L176 -135L175 -137L176 -148L174 -151L175 -158Q169 -161 169 -164ZM135 -153Q139 -148 144 -146H145Q148 -144 152 -144Q154 -142 154 -140Q152 -133 152 -119L150 -110L152 -106L159 -110Q161 -110 162 -112H163Q164 -111 167 -111L169 -108V-106Q165 -100 158 -99Q150 -97 150 -95L151 -91L149 -89L150 -86L149 -85L150 -83V-82Q149 -81 148 -76L150 -72L148 -70V-68L149 -66L148 -63L149 -62H150L161 -68Q161 -69 162 -69H163L164 -68Q162 -64 160 -64Q157 -61 144 -52Q143 -52 134 -44Q132 -44 125 -37Q119 -32 116 -32Q112 -35 112 -39L111 -44Q112 -44 114 -56L112 -59V-60Q114 -62 114 -63L112 -82V-83L108 -90V-91L109 -92H110L119 -88Q122 -88 124 -84V-83V-79V-77V-73V-72L123 -70L124 -68V-64V-63L125 -60L124 -59L125 -56L124 -52H125Q129 -54 134 -56L135 -57V-59V-60V-61V-65V-68L136 -76L134 -81L135 -88V-90L133 -96Q134 -96 135 -100V-109V-113V-115L136 -118L135 -121V-126L134 -132L135 -134Q134 -135 133 -142Q131 -142 129 -149Q132 -153 135 -153ZM85 -147L84 -146H80L78 -144H79V-140H80V-139Q79 -137 79 -135V-129L80 -128L79 -123L80 -122L86 -124L87 -123L89 -131Q90 -131 90 -135V-141L91 -143V-145Q89 -147 85 -147ZM89 -105Q92 -105 102 -99Q102 -95 103 -94Q101 -89 101 -78L100 -77L101 -76L100 -73L101 -65L100 -62L102 -59V-56L100 -54L101 -51L100 -49V-48L102 -45L100 -44Q100 -40 102 -38V-36L100 -34L101 -30L100 -27Q100 -26 101 -26H102V-25Q102 -23 101 -23V-20Q99 -9 96 -1Q94 -1 94 3Q92 3 91 6Q89 9 87 9Q86 9 85 3L86 1L85 0V-2L79 -12L73 -15V-16L74 -17L83 -16L84 -17V-18L85 -21L84 -23L85 -29L84 -35L85 -36H84V-37L85 -45V-48V-49Q85 -51 86 -53Q86 -54 85 -54L80 -48Q77 -48 77 -45L74 -43Q74 -42 70 -39L63 -44L62 -43V-42V-31Q62 -29 63 -29Q62 -3 60 -3Q56 3 53 3Q50 2 50 1V-7L49 -12Q49 -17 51 -27L50 -32L51 -36L50 -48L51 -54L50 -57L51 -59Q51 -61 49 -66L50 -68V-72L49 -73V-76V-79V-81V-84V-86V-90V-94L50 -95L55 -89L62 -92V-91L73 -97Q73 -98 80 -99Q81 -102 84 -102Q84 -103 89 -105ZM83 -93Q83 -92 80 -91H76Q76 -89 66 -87Q63 -85 61 -85L62 -75L61 -73Q62 -73 62 -71H64Q73 -77 78 -77L80 -78Q83 -77 83 -74Q83 -71 73 -68L71 -67Q68 -67 67 -65Q64 -67 63 -67Q62 -67 62 -64V-60V-49H65L75 -53Q81 -56 85 -57V-58L84 -60L85 -76L84 -79L85 -81L84 -83L85 -86L84 -91L86 -93H85Z"/>
</svg>