<svg xmlns="http://www.w3.org/2000/svg" viewBox="0 -256 256 256">
	<path fill="#000000" d="M198 -186Q202 -186 204 -181Q209 -178 212 -177L216 -173V-166Q213 -160 204 -160V-161L194 -155Q192 -155 183 -149L169 -141Q167 -141 164 -138L161 -136Q157 -136 150 -130Q148 -130 148 -129V-128H146L145 -129V-130Q145 -133 156 -138Q156 -139 173 -153Q182 -162 185 -168Q187 -168 189 -177V-180Q189 -181 188 -181H187V-184Q187 -185 198 -186ZM128 -185Q137 -183 137 -179L138 -178Q136 -173 135 -173Q133 -171 129 -171Q129 -169 125 -169Q125 -168 120 -167Q120 -166 119 -166H118H116Q116 -164 115 -164H113Q112 -164 112 -162Q111 -161 105 -161L98 -163Q95 -164 93 -166Q89 -166 89 -167V-168Q89 -169 94 -169Q94 -170 98 -171L107 -175Q107 -177 118 -180Q126 -185 128 -185ZM72 -177Q74 -176 76 -174Q78 -174 81 -170Q83 -170 94 -161V-158Q94 -152 92 -152L93 -146V-145Q94 -145 94 -143H95L98 -142Q113 -150 115 -150Q115 -152 120 -153H123Q126 -153 128 -150Q126 -146 126 -145L124 -146Q121 -143 119 -143H118Q118 -141 115 -141L110 -138L107 -136Q99 -137 99 -139Q91 -139 91 -135L92 -133L90 -127L91 -126L90 -124V-122V-121V-120V-117L96 -119L98 -120H99V-119Q99 -122 111 -126Q111 -127 115 -127L117 -129H120L122 -127H124Q129 -127 129 -126V-124Q127 -121 124 -119H123V-120H122L121 -118H120L119 -119H118Q112 -114 107 -114Q106 -112 102 -111L93 -112L94 -109Q94 -108 90 -106V-104Q90 -98 92 -91Q99 -92 109 -95L113 -97H114Q117 -99 126 -101L128 -103H133L137 -100Q137 -95 124 -94Q111 -90 110 -89Q110 -88 103 -87Q103 -85 96 -85Q96 -83 86 -80V-79Q90 -78 97 -73V-68L94 -63Q93 -63 89 -58V-57L90 -56Q94 -56 111 -60H114H116H117V-61Q115 -61 115 -68Q114 -69 112 -77L113 -78H115Q131 -68 131 -62V-61V-58V-57V-55V-52V-51Q131 -46 126 -42H123Q118 -42 116 -53V-56L115 -57H114Q112 -54 105 -53Q104 -52 99 -49Q99 -48 95 -48Q95 -46 90 -45Q89 -42 87 -42Q80 -39 72 -32Q67 -24 64 -23H62L59 -28V-29V-32Q59 -46 62 -46L75 -50H76L79 -59L81 -72V-73V-76Q81 -77 80 -77Q73 -74 69 -72Q68 -72 53 -64Q51 -62 48 -62L31 -71V-72L38 -74H39L42 -73Q42 -76 61 -79Q61 -80 68 -81Q68 -82 76 -84L77 -90L76 -97L77 -104L76 -107L77 -114L76 -116V-118V-124V-126Q76 -129 76 -130V-132V-133V-135V-138L74 -157V-160L72 -162L73 -164L70 -172Q71 -177 72 -177ZM196 -128Q197 -128 205 -123Q213 -123 214 -118L215 -112Q215 -110 210 -108L206 -109Q201 -105 201 -104Q198 -104 188 -96Q185 -95 181 -91L169 -84Q169 -83 163 -80Q163 -78 158 -78Q158 -77 153 -74H151L150 -75V-76Q161 -82 166 -88Q171 -91 177 -98Q180 -102 180 -105Q187 -111 189 -115L190 -117V-120L187 -123V-125Q187 -126 196 -128ZM205 -76Q208 -76 211 -69L217 -65Q220 -65 224 -59Q224 -51 216 -51Q200 -36 196 -35L178 -21Q171 -17 166 -13L129 7L124 10H122L121 9Q128 4 134 1L148 -8Q149 -8 151 -11Q153 -11 157 -14L162 -18Q163 -18 163 -20L166 -24Q168 -24 176 -33Q177 -33 178 -36Q184 -40 184 -44Q186 -44 189 -49Q197 -56 198 -62L199 -65H198V-66L199 -68L196 -69L195 -71V-72L198 -74H199Z"/>
</svg>