<svg xmlns="http://www.w3.org/2000/svg" viewBox="0 -256 256 256">
	<path fill="#000000" d="M172 -210H174Q181 -205 183 -205Q194 -202 194 -198V-197Q194 -189 184 -189Q184 -187 178 -186Q167 -177 162 -177Q162 -175 148 -167Q133 -161 131 -161L130 -162H133Q133 -163 137 -167Q155 -178 155 -182Q156 -184 159 -185Q159 -187 161 -189Q164 -191 164 -195Q166 -195 166 -198Q168 -198 168 -201L166 -205V-206Q166 -207 171 -209ZM122 -205H123Q130 -203 130 -199V-198Q130 -193 124 -193Q115 -191 111 -189Q109 -189 106 -187L101 -185Q98 -185 89 -181V-179L88 -172L90 -171L95 -173L103 -178L113 -182H114Q115 -180 118 -180L121 -178V-177L119 -176L120 -173L111 -170Q105 -167 96 -162H94Q92 -162 90 -164H89L88 -163L89 -160L88 -158L89 -157L88 -152V-151H89Q92 -154 107 -160Q107 -161 112 -162Q119 -161 119 -158Q118 -154 116 -153H115L110 -152Q100 -149 94 -144H91L89 -146H88V-136V-134V-131Q91 -133 97 -134Q103 -137 111 -139Q111 -140 117 -141L124 -144Q131 -143 137 -139V-138Q137 -133 129 -132Q124 -132 116 -129H115H111L108 -127H107Q101 -125 99 -125L97 -123V-124L93 -122H91V-120Q94 -118 94 -116L80 -99L79 -98H82H83Q87 -100 102 -102L103 -104Q103 -105 98 -112V-113H99H101Q109 -110 113 -110Q113 -109 119 -106Q122 -98 122 -95Q121 -90 118 -90Q118 -88 111 -88Q108 -90 107 -91L108 -93Q105 -96 105 -100L94 -96Q92 -93 87 -93Q87 -90 75 -86L61 -76L57 -74Q54 -76 52 -78V-79L53 -81V-82L54 -85L53 -88Q54 -90 58 -92Q65 -96 67 -102Q69 -102 70 -108L71 -109H72L70 -113Q65 -113 46 -101L39 -96H37Q31 -101 21 -106L20 -107Q20 -108 25 -108L26 -110L29 -109Q42 -115 47 -116L52 -118H54L59 -120H61Q62 -122 64 -122H65H68Q69 -122 72 -126V-129L73 -133L72 -135L73 -139L70 -155Q69 -155 69 -158L70 -165L69 -167L70 -169Q70 -170 67 -174L68 -175Q68 -180 62 -185Q60 -185 60 -188V-190Q63 -195 70 -195Q72 -194 82 -188H83Q92 -194 100 -196Q118 -205 122 -205ZM164 -176Q167 -176 167 -173L168 -174Q171 -174 175 -170Q183 -167 183 -162Q185 -162 185 -160V-159Q185 -158 180 -156Q180 -155 176 -155Q176 -153 172 -153Q165 -147 157 -144Q148 -136 142 -135Q142 -134 140 -134L138 -135Q138 -136 153 -148Q156 -152 160 -159Q164 -162 166 -167V-168V-171V-172Q163 -175 163 -176ZM173 -149H177Q183 -143 187 -143Q190 -143 194 -137V-136Q192 -132 187 -131L170 -118Q169 -118 164 -114L140 -103Q140 -102 138 -102Q138 -101 133 -101Q130 -98 127 -98L126 -99V-100Q128 -102 139 -108Q146 -113 150 -114Q153 -121 156 -121Q160 -123 162 -127Q167 -131 168 -136Q170 -136 172 -142L171 -147ZM134 -96H138L146 -93Q154 -92 157 -89V-84L155 -81V-78L153 -76L154 -73V-72L153 -69L155 -68Q163 -70 166 -72L177 -75L181 -76Q189 -75 193 -72L194 -71V-70Q194 -67 184 -65Q180 -65 155 -60H154Q154 -58 153 -58Q153 -51 157 -50Q160 -45 180 -34Q181 -34 202 -23L205 -22Q206 -21 213 -19L220 -15L224 -13H228Q235 -11 236 -10L234 -9H233H232L215 -7L198 -4Q190 -6 178 -16L167 -24V-25H168V-26H167L165 -25Q164 -25 159 -32Q156 -32 156 -34H155Q154 -34 154 -32H155L154 -31L155 -23L154 -17L155 -14L154 -12L155 -11L154 -6L155 0H151Q155 0 155 3V4H154H155V5Q154 8 152 11L153 12V13Q153 15 152 15L153 16V18L149 26Q142 34 138 34H137V33V31Q136 27 134 26L135 22L134 17L136 13L135 11L137 9L136 5V0V-2L137 -5L136 -7V-11L135 -14V-15L136 -18V-19H135L136 -27V-28V-32V-36H135L127 -28Q125 -27 113 -17Q112 -17 100 -8Q92 -3 88 -3V-1V0V1V5V9V10V13V16Q85 22 79 25L75 21V17Q72 11 72 7L71 5L73 -18L72 -20Q73 -20 73 -22L74 -36V-37Q73 -38 73 -42L74 -43Q74 -46 73 -46Q67 -44 62 -38Q60 -38 55 -33Q52 -33 45 -28Q43 -28 42 -26H41L40 -27V-28Q59 -42 59 -46Q68 -54 74 -62L77 -69Q82 -73 82 -76Q85 -77 86 -83L85 -86V-87L86 -88H91Q92 -88 98 -86Q100 -86 100 -84H101Q106 -84 110 -79V-78Q110 -74 97 -70V-69L98 -68Q95 -68 84 -59L77 -55H76V-54Q76 -52 85 -51Q90 -47 91 -45Q90 -45 90 -40H89L90 -37V-36H88V-35L90 -33L89 -28L90 -27V-20Q90 -17 88 -17L89 -14L88 -9V-7L87 -6L88 -5H90Q97 -10 98 -11Q101 -13 110 -23Q110 -24 113 -26L117 -31Q117 -32 120 -35Q120 -37 123 -39L125 -45Q127 -45 127 -48L128 -49V-50V-51Q124 -51 117 -48H116H114Q113 -46 108 -44H106Q104 -44 96 -49H94Q92 -50 91 -50V-51L92 -52H95L105 -54Q105 -55 110 -56Q114 -59 120 -59L127 -60Q127 -61 135 -62H136V-63L135 -65L134 -73L135 -79Q135 -87 129 -90L128 -91Q130 -94 134 -96Z"/>
</svg>