<svg xmlns="http://www.w3.org/2000/svg" viewBox="0 -256 256 256">
	<path fill="#000000" d="M171 -181H175Q179 -181 182 -175Q177 -167 173 -167Q166 -162 163 -162Q163 -160 159 -160Q159 -158 151 -157Q146 -153 141 -152L140 -151H138L120 -165V-166Q120 -167 131 -169L135 -170Q136 -171 142 -172Q150 -175 158 -176Q165 -179 170 -180ZM80 -169Q89 -158 96 -158Q100 -158 102 -149Q102 -144 92 -139Q92 -136 86 -134Q83 -132 81 -129L72 -121Q70 -121 69 -119Q66 -118 63 -115L57 -110Q46 -104 40 -99H39H38Q38 -98 25 -89H23Q22 -87 21 -87L20 -88L38 -102Q39 -102 39 -105Q40 -105 48 -114L61 -133Q67 -143 67 -145Q73 -155 73 -160L71 -165Q71 -166 80 -169ZM182 -151H184Q191 -148 192 -144H193V-142Q190 -136 185 -136L173 -132L171 -133Q170 -131 169 -131H167Q167 -130 160 -129Q160 -127 157 -127V-128H156Q155 -125 151 -125Q147 -123 146 -123H144Q143 -123 142 -122H141H139Q139 -117 128 -115H127Q120 -122 116 -124L115 -126V-127Q115 -128 119 -128Q122 -130 132 -133Q149 -140 154 -140Q155 -141 169 -146Q173 -149 181 -150ZM143 -120Q148 -119 148 -117Q152 -116 155 -113Q156 -113 156 -109H157V-105L153 -99Q151 -99 149 -90Q146 -88 146 -86L144 -84V-82Q144 -81 146 -81L156 -84Q159 -84 159 -83L166 -86Q166 -88 167 -90L166 -91L167 -94L164 -97Q164 -98 172 -101L188 -91Q188 -89 189 -89H191L195 -90V-89L199 -91H200L203 -90L206 -92V-91L207 -92H209L210 -91L220 -94H222H224Q224 -93 232 -90L236 -85V-81Q236 -80 233 -80Q233 -77 228 -77L214 -78L213 -77L212 -78L205 -77H204H200H197H194H190Q179 -75 179 -74Q179 -72 174 -64Q169 -56 167 -54Q166 -54 166 -52L162 -49Q164 -46 167 -46Q168 -44 179 -39Q184 -36 186 -34Q190 -33 193 -29Q194 -29 200 -25Q202 -25 210 -17Q213 -10 213 -4Q210 3 206 4L204 5L203 4V5H201Q196 2 195 0Q194 0 191 -4L161 -29Q160 -29 156 -32Q155 -32 152 -35Q151 -35 141 -27Q137 -27 133 -23L121 -17Q120 -16 115 -14Q105 -12 103 -10L91 -7L89 -8Q92 -10 94 -10L115 -18Q116 -20 121 -23Q124 -25 126 -27Q129 -27 136 -37Q138 -38 139 -41Q135 -46 131 -48L114 -54L113 -56L119 -60Q119 -63 122 -64L124 -67H122L121 -66H119Q114 -64 106 -63L93 -58Q83 -67 80 -67V-68Q80 -71 87 -71Q87 -72 94 -72H96Q96 -73 111 -76H114Q118 -76 121 -78H125L128 -79L131 -78V-82Q133 -83 133 -87Q139 -95 139 -112L138 -116V-119H139ZM62 -113Q63 -113 64 -110Q67 -110 69 -108Q72 -106 75 -105Q77 -103 77 -102L76 -99L77 -98V-97L76 -95L77 -93L76 -90L77 -86V-82L76 -79L77 -77L76 -75L78 -68Q77 -64 76 -64L77 -62V-44L76 -43H77V-28L76 -24L77 -21L76 -19L77 -17V-15H76L77 -14V-11Q77 -7 65 4H63L61 2V-6L59 -21L60 -24V-26Q61 -27 62 -43Q63 -43 63 -45V-48Q63 -49 61 -51L63 -54V-63V-65V-67V-69Q63 -76 62 -78L63 -81Q62 -81 62 -82V-83L63 -84V-85Q61 -85 61 -86Q61 -88 62 -88V-89V-92L61 -95Q62 -98 62 -99L61 -101V-105L60 -107Q61 -113 62 -113ZM129 -60V-59Q130 -57 132 -57L133 -58Q136 -58 141 -55L149 -54Q151 -58 153 -59L161 -72L162 -73L160 -74Q156 -72 143 -70H141Q141 -69 134 -68Q134 -64 130 -63Z"/>
</svg>