<svg xmlns="http://www.w3.org/2000/svg" viewBox="0 -256 256 256">
	<path fill="#000000" d="M120 -175L129 -169L142 -165Q146 -161 146 -157Q147 -157 147 -154V-153Q145 -150 144 -147L145 -145Q143 -143 142 -134L143 -132L141 -127V-125V-124Q140 -122 140 -121V-119Q140 -116 141 -116Q146 -118 148 -122Q152 -126 154 -129L160 -132L159 -134Q165 -139 165 -141Q165 -142 167 -144Q168 -147 169 -148L170 -154Q175 -158 178 -157L183 -152Q185 -150 191 -150Q196 -147 196 -144V-140V-139V-137Q194 -132 188 -132L182 -131Q182 -130 178 -129Q177 -128 170 -127Q170 -125 161 -121L160 -120H158Q152 -117 145 -114L140 -111H139V-112L138 -111Q137 -109 136 -108Q136 -107 137 -107V-105L136 -104V-102L141 -103H142L153 -105L154 -104H155Q155 -106 170 -107L173 -106L178 -107L179 -106L181 -108L185 -107Q194 -109 195 -109H199Q208 -99 212 -99Q216 -98 220 -91V-83V-82Q216 -76 215 -70L212 -59Q211 -59 210 -55L209 -52Q208 -50 207 -42Q206 -42 205 -35L203 -34V-33V-32Q203 -31 201 -28Q198 -17 194 -17Q193 -13 187 -10Q185 -6 179 -3Q178 -2 171 0L170 1H167L166 -1L167 -3V-5V-8Q166 -8 165 -14Q162 -16 163 -19Q159 -21 156 -24L154 -26Q154 -27 156 -26Q165 -25 166 -23L168 -24L172 -23Q177 -30 177 -33Q181 -38 182 -43L183 -47Q184 -47 184 -52L186 -56Q187 -56 187 -58V-60Q187 -65 189 -65V-69L192 -74L191 -82L192 -83V-94V-95Q191 -96 177 -98H171L167 -99V-98L165 -99H164Q162 -99 157 -97L152 -98H149H147H146L144 -97H142L138 -96L137 -98H136L134 -97L135 -94L132 -89Q131 -89 130 -86Q129 -86 125 -80L122 -79Q121 -79 121 -82L115 -89L116 -93H115Q114 -91 110 -91Q108 -91 107 -89H106Q103 -89 98 -88Q97 -88 94 -86Q90 -86 85 -82H82L79 -81H77Q77 -80 73 -78Q73 -77 66 -75L64 -71L65 -64V-62V-56V-53L67 -50L66 -49Q67 -39 68 -30V-28V-26Q64 -8 60 -8H58L54 -14L50 -24Q50 -27 49 -29V-39L50 -41Q48 -44 47 -49V-51L48 -53L45 -63V-65Q44 -65 43 -71Q41 -72 40 -74Q39 -74 40 -78Q36 -82 35 -86Q36 -90 40 -90Q42 -90 47 -85Q49 -85 52 -83L57 -82L67 -85Q79 -88 80 -89L84 -88Q85 -90 90 -91Q90 -92 96 -92Q96 -94 103 -95L105 -94Q105 -96 106 -96H109Q115 -99 116 -99V-101Q117 -114 119 -114L118 -117V-118V-120V-122V-126V-127V-129L119 -134Q118 -135 118 -141Q117 -141 117 -152Q116 -152 116 -158Q113 -158 108 -166Q109 -169 120 -175ZM75 -136L76 -135L79 -136Q79 -135 86 -133Q93 -130 93 -127Q95 -124 97 -124L98 -121V-118Q99 -118 100 -114L98 -111L99 -110L98 -108Q99 -106 99 -103V-102Q94 -96 91 -96Q86 -96 77 -113Q78 -115 75 -119L65 -131V-132Q66 -136 75 -136ZM148 -85Q154 -80 157 -78V-77H158L160 -78Q161 -78 164 -74Q163 -66 153 -61Q153 -58 145 -52Q146 -52 150 -46V-45Q150 -41 144 -41L143 -40H140Q139 -40 137 -41H134L131 -42L129 -41H128Q128 -40 125 -39V-40H124L116 -38L115 -39H114Q107 -36 107 -32L103 -27H102Q99 -28 99 -32Q97 -33 96 -35L97 -36L96 -44Q94 -47 91 -56Q90 -56 87 -67L86 -68V-73L88 -74L93 -72Q93 -70 98 -69Q98 -68 99 -67Q104 -70 112 -71Q115 -74 126 -75Q126 -77 130 -77Q130 -79 135 -79Q136 -81 139 -81L141 -80Q142 -83 148 -85ZM128 -69H126H124Q124 -68 118 -68Q117 -67 111 -65L108 -66L107 -63L108 -56L107 -55Q108 -49 109 -47H110H111L113 -46Q113 -48 117 -48H118H119L120 -47L123 -49L124 -48V-49L126 -51L128 -50Q134 -53 134 -54L135 -57L134 -61L137 -66V-71L136 -72Q134 -71 128 -69Z"/>
</svg>