<svg xmlns="http://www.w3.org/2000/svg" viewBox="0 -256 256 256">
	<path fill="#000000" d="M169 -204Q169 -202 174 -199H177Q179 -197 184 -197L185 -195H184L186 -191V-189Q185 -187 181 -185Q175 -185 168 -178H167Q167 -177 163 -176Q163 -174 157 -171Q156 -168 150 -166Q147 -162 144 -162Q142 -158 138 -158Q137 -156 135 -156L134 -154H133H132V-155Q133 -155 135 -158Q138 -158 138 -161Q139 -161 145 -167Q147 -167 147 -171H148H150Q150 -173 156 -181V-182H157V-183Q159 -185 161 -185Q161 -187 162 -188V-189L164 -191L163 -192Q164 -196 165 -197Q164 -197 164 -198Q162 -198 162 -199Q165 -202 169 -204ZM126 -198Q128 -198 130 -194L127 -190H126Q121 -188 119 -187H118Q116 -186 112 -185L106 -182H105V-183H104Q104 -182 97 -179H96H95H94V-178Q94 -176 96 -175L97 -171L96 -169L97 -168L96 -167Q97 -167 97 -165L102 -167H103H104L105 -166Q108 -170 109 -170L111 -168Q112 -172 116 -172V-173H117L118 -172Q118 -173 123 -176Q123 -175 125 -174L124 -171H125L122 -169H121V-170L117 -169H114Q114 -167 112 -167V-166H111L108 -167Q108 -165 107 -164Q105 -164 105 -163H103Q98 -162 96 -159V-158L97 -156L96 -155L97 -154L95 -150Q95 -149 97 -149H98H101H102H103H104H105L106 -150Q105 -150 105 -152L107 -153L108 -151Q110 -151 110 -152L109 -153L111 -154L112 -153L115 -156H116L118 -157L119 -156Q119 -157 123 -158H125Q126 -158 127 -155L124 -153H122L115 -152H114H113Q113 -151 108 -148H107Q107 -147 101 -145Q101 -144 95 -143V-142V-138V-137V-136V-135Q95 -133 92 -131H91V-132H90V-131V-130V-131Q92 -130 93 -130Q94 -130 98 -133Q103 -134 104 -135H105H110Q112 -135 114 -137Q121 -137 121 -140H122V-139L123 -140H126Q126 -141 131 -142H132Q132 -140 138 -140V-138Q137 -138 137 -135H134H130L124 -136L120 -134H119Q114 -133 114 -132H113H112L109 -130L108 -131L107 -130H106Q103 -129 103 -128H101L98 -127H97Q99 -124 100 -124V-123Q100 -119 92 -114Q91 -114 90 -111Q88 -110 87 -109V-108Q88 -106 89 -106L96 -109H97H99L102 -111H103Q105 -111 107 -113L108 -115V-116Q108 -118 106 -121V-122L107 -123H108V-122V-123H109L110 -122H111Q114 -122 114 -121H115Q116 -120 119 -120Q119 -119 122 -118L125 -115H124V-114L125 -111Q125 -104 120 -102H119H118Q118 -99 117 -99H116L113 -104H114L112 -107V-108L111 -110L112 -111L111 -113H112H111L105 -109Q102 -109 102 -108V-107H101V-108L99 -106L98 -107L97 -106Q96 -106 92 -102H91Q91 -101 89 -101Q86 -99 86 -98H84Q79 -95 78 -93L76 -92V-93H75Q69 -85 66 -85H65L62 -86H63V-91L62 -96H63H66L78 -108Q78 -110 80 -111Q80 -113 86 -121V-122H85Q83 -122 81 -120L80 -119H78Q76 -119 74 -117H72Q71 -115 69 -115Q67 -113 65 -113H64Q60 -112 59 -109Q52 -106 51 -105V-106H50V-105Q47 -105 46 -107Q43 -108 43 -110H42L37 -112L39 -113H40L41 -114V-113L46 -116H47Q47 -117 49 -117H50L56 -119V-118Q59 -121 62 -121Q65 -123 67 -123L71 -125V-124H72Q72 -125 80 -127V-128L81 -127L84 -131L82 -136V-137V-144H81V-145H82L81 -148L82 -149L81 -150L82 -151V-152V-153H81V-158L78 -168V-169V-170Q77 -170 77 -174Q76 -177 74 -177V-180L73 -182Q74 -186 78 -186Q85 -180 86 -180H87H88L90 -182L92 -181H93Q93 -185 96 -185L97 -184L99 -186H101V-185H102Q103 -188 105 -188Q109 -191 111 -191L112 -190Q114 -193 122 -196L124 -195ZM170 -171Q173 -167 174 -167H175L179 -162Q179 -157 172 -154L171 -155Q168 -150 161 -148V-147H162L155 -143Q155 -141 152 -140H149L141 -133V-134H140L139 -132H138V-133Q144 -137 148 -141Q149 -141 156 -150Q158 -150 160 -155Q161 -155 161 -156Q162 -156 162 -158Q164 -158 167 -162L166 -163V-164L168 -167L167 -168H168L167 -169ZM175 -149Q177 -148 177 -147V-146V-145L178 -144V-145H179Q187 -140 187 -137Q186 -137 185 -134Q184 -134 178 -130Q174 -128 174 -126V-127H173L172 -126H171L166 -123Q166 -121 158 -118Q158 -117 155 -117V-115Q155 -114 160 -113Q166 -108 166 -106V-105Q164 -102 157 -99Q157 -98 153 -97V-96L152 -97L149 -94H150V-93L148 -92H147L145 -89H147H148H150H151L153 -91H154V-90L156 -91V-90Q161 -90 162 -92H163L164 -93L165 -92L166 -93L168 -92L175 -95L176 -94L181 -95H183L186 -96H187H189Q194 -98 202 -98L203 -99H204Q206 -99 209 -100V-99L210 -100H211L212 -99V-100H213L218 -97L220 -93Q218 -93 218 -89L214 -87L212 -88V-87Q212 -86 210 -86L204 -89H195L193 -90H192L191 -89H189H187H185H184H181H180L176 -90L174 -89H173H170L166 -88L163 -89L161 -88V-89Q161 -88 158 -87L157 -88V-87L156 -88H155Q152 -87 152 -86L150 -87H147Q145 -87 144 -85H141Q139 -84 134 -83H133L132 -82H130V-83H129Q129 -81 125 -81H123H122L118 -79H117V-80L116 -79V-80Q113 -78 109 -77V-78H108L102 -75V-76L101 -75L98 -76Q95 -75 95 -73L94 -74V-73L93 -74L89 -72H87L85 -71V-72Q83 -71 74 -68H71Q71 -67 69 -67L68 -66H67H66H65Q60 -62 55 -61V-60V-61L54 -60L52 -61Q52 -58 47 -58Q44 -63 39 -64L35 -69V-70H41Q44 -70 46 -72V-71L47 -72H55L57 -73V-72H58Q58 -73 59 -74L62 -73L64 -74H65V-73L69 -75H70L71 -76V-75L75 -76L79 -77H80H85L89 -78L90 -79L91 -78L92 -79H93L95 -80H96V-79Q102 -80 102 -81H106Q109 -82 109 -83Q109 -85 107 -86L105 -91H104V-93Q100 -96 100 -99V-100H101L103 -98L107 -99L111 -97V-98H112V-97V-98H113Q116 -98 121 -93V-92V-91V-90L118 -84V-83L124 -85V-84L125 -85H126H127Q132 -85 133 -86Q133 -87 136 -87Q136 -89 141 -94Q141 -97 144 -97Q144 -99 148 -104Q148 -105 149 -106V-107V-111V-113H147Q144 -109 140 -109Q140 -107 132 -105L129 -102H126H125V-103Q127 -103 130 -106V-105Q131 -107 132 -108L133 -107Q136 -112 139 -112Q139 -113 148 -120Q155 -124 156 -127Q159 -130 161 -131Q161 -133 168 -137Q168 -138 171 -142V-144H170Q172 -149 175 -149ZM169 -86H171Q171 -84 180 -80V-79V-80H181L185 -77H184L185 -75V-74H184H185L183 -67V-66V-64V-54V-52V-50V-49L184 -44H183L184 -37V-36V-34V-33V-32V-27V-23L185 -21L184 -19V-2V1L185 2L184 3L185 5L184 7V8Q184 11 183 11V13L182 14L183 15Q179 19 179 21L174 27L172 28L168 14Q167 14 165 9Q163 9 162 7H161Q160 5 159 5V4H160Q161 5 163 5H164Q167 5 167 7V6H168V7L169 6L170 7V6V4V3V2V1V0V-1V-3V-4L171 -7L170 -13L171 -17V-18V-19Q170 -19 170 -23V-26V-28V-29V-30V-31V-32V-33V-35L169 -38Q170 -38 171 -42Q170 -42 169 -44V-47L170 -48L169 -51H170V-53H169V-57L168 -61H169L168 -62V-65H169L167 -69L168 -71V-72L167 -75Q168 -75 168 -76L165 -82ZM121 -72L123 -70H124H125Q128 -66 132 -66Q134 -66 136 -63H135L136 -62L134 -59V-56V-55V-52V-50V-48V-46V-45V-42V-40V-25H135V-24Q134 -24 134 -22V-21Q135 -21 135 -20Q135 -19 134 -19V-18L135 -17L134 -14L135 -12V-11Q135 -9 134 -9H135V-4H134V0V1V2V3L132 6V7Q131 8 130 11Q129 11 126 15Q125 15 122 19Q121 19 121 21Q118 21 118 18Q119 18 120 15L119 13L118 10L119 9V7Q117 2 112 -1V-3H113Q115 -1 117 -1L121 -8L119 -12Q121 -12 121 -16Q120 -16 119 -18H120H121V-21L120 -23H121L120 -26V-27L119 -33L120 -36H119L120 -39L119 -40L120 -43L119 -44V-49L118 -50V-51H119V-53L120 -55Q118 -55 118 -56V-58L117 -59V-61H116L111 -59V-60L102 -57L101 -58Q101 -56 97 -56Q97 -55 94 -54V-55L90 -53V-54H89V-52Q89 -51 92 -50L94 -48Q93 -47 93 -43V-41L94 -39V-38L93 -37L94 -35V-34V-33V-32V-31V-29V-28L93 -26L94 -25L93 -21L94 -20H93Q94 -18 94 -13V-12V-9V-6V-5V-4V0Q93 2 93 3L94 4V5L93 9V10L90 14H91L88 18H86L85 16Q85 13 86 13L85 11Q84 8 83 8L84 3H83L84 1V0L83 -2H84H83L84 -5L83 -12H84L83 -13L84 -15V-18L83 -20H84L83 -21L84 -22L82 -27L83 -30L82 -32L83 -34L81 -36Q81 -39 82 -39V-42V-46Q82 -49 80 -49L81 -50Q81 -57 79 -57Q80 -60 80 -61Q82 -60 84 -56H85Q85 -58 94 -61V-60Q98 -63 102 -63Q102 -64 104 -64L108 -66V-67H109L110 -66Q112 -68 121 -72ZM146 -63L147 -62L148 -63L154 -57H155H157Q159 -54 160 -54V-51L158 -48L159 -47V-46L158 -43L159 -42L158 -38H159Q158 -30 157 -30V-29Q153 -22 151 -22Q149 -26 148 -26V-43L147 -45V-52L146 -56L147 -57L145 -60V-61V-62ZM105 -44L107 -43L108 -44L109 -43V-44L110 -41H111L112 -42H113L114 -38Q113 -35 111 -35Q111 -34 109 -34Q109 -32 107 -32Q104 -36 99 -40L98 -43H100ZM95 -25H96Q98 -25 98 -23H99H100Q100 -25 103 -25V-24V-25H104L105 -24L106 -25L107 -24L110 -25Q114 -22 114 -20Q114 -16 111 -14H110L108 -16Q107 -16 100 -22H99L98 -21Q97 -23 95 -23Z"/>
</svg>