<svg xmlns="http://www.w3.org/2000/svg" viewBox="0 -256 256 256">
	<path fill="#000000" d="M158 -206Q163 -200 165 -199H166Q167 -198 174 -197L175 -191V-190H174Q174 -189 171 -188L164 -185Q164 -184 155 -178L149 -175Q149 -174 146 -173L143 -171L141 -169H140L136 -166L135 -167Q129 -162 124 -160H123Q123 -158 121 -158H120Q120 -157 118 -157V-158Q119 -159 124 -162Q125 -162 125 -164Q127 -164 129 -167H130H131Q131 -168 135 -171L136 -173L137 -172L142 -178Q146 -182 148 -186L150 -187V-188L151 -189L150 -190Q155 -193 155 -195L154 -197H155V-198V-201Q154 -203 154 -205Q155 -206 158 -206ZM116 -199L117 -198H118H119H120L121 -196V-195V-194L119 -190L118 -191L114 -189L112 -190Q108 -188 106 -188H105Q104 -187 95 -184L94 -183V-184H93L92 -183H91Q91 -182 87 -182Q87 -181 85 -180H84L82 -179V-180Q80 -179 80 -178Q86 -177 86 -173V-172L85 -171Q85 -169 87 -169L94 -173L95 -172Q95 -174 97 -174L101 -176H102L109 -179V-180V-179H110L113 -180L115 -177V-175L109 -171L107 -172Q105 -170 104 -170H103Q101 -170 101 -168L100 -169L85 -162H84L85 -159L84 -157H85V-156Q84 -154 83 -154L84 -153H86H87Q87 -154 93 -156L94 -157H95V-156Q99 -159 101 -159V-160H103L105 -162H111Q114 -160 115 -160V-159H114L115 -158Q113 -158 113 -157H111L108 -156L107 -157Q107 -155 105 -155V-154H103L102 -155L100 -153H99Q99 -152 96 -152L92 -150Q88 -149 87 -147H86V-148L85 -147H83V-138V-137H84Q85 -138 87 -138H88Q88 -140 94 -140H96Q108 -146 110 -146V-145L112 -147H113H114H115Q118 -147 118 -146L119 -147L121 -145L122 -146L123 -143L119 -141L115 -140L114 -141L112 -140H110H107Q107 -139 101 -137L100 -136V-137Q96 -136 95 -134H92Q92 -132 87 -132Q87 -131 83 -131Q81 -131 81 -129L82 -128L84 -129L89 -126H90L82 -116Q79 -110 78 -110V-108H80L83 -109V-110L87 -109L88 -110V-109L95 -112H96L99 -113V-114L101 -113H102V-114L98 -123Q99 -123 99 -125H100L101 -124H103Q103 -123 110 -122Q115 -120 119 -116L118 -115L119 -112V-111V-110L118 -108H119V-107Q117 -107 115 -104L112 -103L109 -106Q109 -107 106 -108Q106 -111 103 -112Q101 -112 98 -110Q95 -110 95 -108H94L92 -107V-108L87 -104H86Q86 -103 82 -101H81L78 -99Q78 -98 75 -98V-97H74Q64 -90 61 -86L57 -84Q57 -85 56 -85L52 -88V-90L53 -91V-93L52 -96Q55 -99 56 -100V-99L66 -105L70 -112L72 -117V-118L74 -123V-125H72L69 -122L67 -123Q67 -122 66 -122L65 -121L59 -117L47 -111V-112H46V-110H44L40 -113H39L37 -115V-116V-115H36Q36 -116 33 -118L40 -121Q43 -123 52 -125Q55 -127 57 -127L58 -128H59H60L61 -129V-128V-129H64Q64 -130 66 -130Q66 -131 69 -131L71 -140H70V-141L71 -144V-146L70 -147L71 -148H70Q71 -152 72 -153Q72 -154 70 -157V-163L69 -166L70 -168L69 -169L70 -170Q68 -170 68 -174L69 -175L64 -181L63 -183L65 -187L73 -183H74H75H76Q76 -185 80 -185L82 -186H83Q85 -186 90 -189H91Q92 -190 101 -193V-194H102Q104 -194 107 -196V-195H108Q108 -196 111 -197L112 -198H113Q114 -198 116 -199ZM157 -172Q157 -171 166 -165Q166 -164 168 -162Q165 -160 165 -158H164Q159 -158 157 -154Q150 -151 149 -148L143 -144L136 -139H135Q135 -136 131 -136Q131 -135 129 -135Q129 -132 128 -132V-133Q121 -129 120 -129V-130Q122 -130 122 -132Q123 -132 132 -141Q135 -142 135 -144Q139 -144 147 -158L153 -166L152 -168Q155 -172 157 -172ZM165 -154Q166 -154 168 -149Q174 -146 177 -141V-140V-139V-138Q175 -138 173 -135H172L171 -136Q164 -133 160 -128V-129Q156 -125 151 -124Q150 -121 147 -121Q146 -120 143 -118H142L139 -115L138 -116Q138 -114 136 -113L135 -114Q129 -108 125 -108V-109Q126 -109 136 -117Q137 -117 137 -119Q139 -119 139 -121Q140 -121 146 -127L149 -131V-132Q153 -132 160 -143Q160 -145 162 -145L163 -149H162L163 -150L162 -151Q162 -154 165 -154ZM154 -122Q154 -121 156 -121Q159 -118 161 -118L163 -119L166 -114Q165 -111 161 -108Q159 -108 150 -101Q150 -100 147 -100L146 -99H145L149 -104H148L150 -107V-108H151L150 -110L153 -115H152V-116L153 -117L152 -121V-122ZM123 -106Q134 -104 134 -103V-102Q132 -98 131 -97H128Q128 -95 123 -93V-92Q121 -92 121 -91H120Q121 -88 122 -88H123V-87V-88L124 -87V-88Q132 -86 132 -82L129 -78Q126 -78 125 -77L120 -81Q120 -83 116 -85Q114 -87 110 -90V-91H111H112H113L115 -90H116H118L121 -98V-99L123 -102V-105ZM92 -104Q94 -104 102 -99Q105 -99 105 -98V-97Q105 -92 97 -88Q93 -84 89 -82Q89 -81 96 -80Q102 -77 102 -75V-71Q102 -69 100 -68V-67H101Q103 -68 115 -71Q115 -72 121 -72Q123 -75 127 -75Q136 -78 140 -79Q140 -80 146 -81L148 -82L150 -81L151 -82L143 -92V-94Q139 -95 139 -96V-97L140 -98L142 -96L145 -97Q154 -95 158 -92Q159 -86 162 -83Q164 -79 168 -79L169 -75V-73Q164 -68 162 -63Q159 -61 155 -52L153 -51Q153 -50 161 -46L164 -44V-43Q160 -36 160 -34V-25Q161 -15 167 -6Q168 -4 175 -1Q175 2 190 4L206 6Q209 6 209 -1L210 -6V-8V-12V-14H211H212Q214 -14 215 4Q216 4 217 8Q223 13 223 16V18Q223 24 209 26H208Q198 26 184 21Q184 20 178 19Q165 12 157 -6Q155 -16 152 -29L153 -35L152 -38L153 -41L152 -43L153 -46L152 -47H151L142 -40H141L140 -41V-42L141 -45H140Q139 -44 137 -44Q129 -40 124 -40H123V-39Q128 -37 128 -36Q128 -28 127 -27V-26Q126 -12 124 -12L125 -9V-8L124 -6Q125 -4 126 -4L135 -9H138Q138 -8 132 -3Q132 -2 128 2Q118 15 114 15L109 10Q109 4 114 2Q116 -3 117 -14H116L117 -17V-24L116 -32L117 -36H116H115Q113 -34 110 -34H107L102 -31H98Q96 -29 92 -28Q92 -26 91 -26H89Q84 -29 82 -43L77 -61Q76 -61 75 -64L76 -65H77L83 -61Q89 -63 91 -64V-65Q86 -71 83 -73Q75 -81 75 -83L77 -85H78L85 -83Q88 -83 92 -99L91 -103ZM130 -69Q130 -68 134 -66V-65Q131 -62 127 -58L128 -57L132 -58L134 -57L136 -58Q138 -57 139 -55V-53L137 -50H142Q145 -57 145 -59Q146 -59 147 -70L149 -72L147 -77H146Q142 -72 134 -71L130 -70ZM122 -69Q122 -68 120 -68Q120 -67 114 -66Q114 -64 111 -64Q110 -63 106 -62Q106 -60 101 -60Q101 -59 93 -57Q93 -55 94 -54V-51L93 -47L95 -43L93 -36V-34L95 -36H96L97 -35V-36L102 -40Q102 -41 113 -52V-53H108Q104 -53 103 -54H100H99V-55Q100 -57 103 -57H104H107L108 -56Q110 -57 117 -58Q119 -61 122 -62L121 -63L124 -67V-68L122 -69ZM103 -40V-39H106Q110 -42 118 -44L123 -46Q129 -49 132 -49L134 -50V-51H133L129 -52L125 -51L123 -53L118 -50Q118 -47 103 -40ZM145 -36Q146 -36 147 -34L144 -31H143Q140 -29 136 -29H134L133 -30Q133 -32 140 -34V-35V-34H141ZM109 -27Q111 -27 111 -26V-25L110 -23H109V-24L99 -19L96 -20V-22H97Q97 -23 101 -24L103 -23Q103 -25 107 -27ZM74 -27H78L81 -25Q83 -23 86 -21Q86 -20 89 -19L88 -18L89 -14V-9L88 -8V-7L89 -6L88 -5H89L88 -3L89 -1L88 0L89 4H90Q92 4 97 1L98 0V-1H100H101L103 -3H104L105 -5H107V-4Q106 -4 104 0H103L102 -1Q102 1 94 7Q93 8 91 10Q91 11 88 12Q88 13 79 21L74 26Q70 29 68 29V31H65Q65 29 59 26L58 25L59 24Q56 24 56 23V22Q56 21 66 18Q66 16 74 13Q74 12 77 11V9V2V0V-2V-3L76 -6H77L76 -8V-9H75V-11H76L75 -12V-18Q74 -21 74 -22L72 -25V-26ZM146 -27V-26L148 -27L150 -25Q150 -22 144 -21L143 -20H142Q142 -19 136 -18Q134 -19 134 -20V-21L139 -23H140Q146 -26 146 -27ZM101 -14H105L106 -13L105 -12L106 -11Q105 -10 100 -10H99Q99 -9 96 -8Q94 -9 93 -9L98 -13L99 -12Q101 -12 101 -14Z"/>
</svg>