<svg xmlns="http://www.w3.org/2000/svg" viewBox="0 -256 256 256">
	<path fill="#000000" d="M84 -181H88Q93 -175 96 -175Q96 -173 100 -173Q104 -169 104 -167L105 -163Q105 -158 94 -153Q81 -141 72 -137Q73 -135 75 -135Q75 -137 81 -139Q81 -140 85 -140L89 -142Q89 -144 94 -144Q94 -145 98 -146Q98 -147 105 -148Q105 -149 117 -152Q120 -155 123 -155L128 -153Q134 -149 138 -149L143 -146V-142Q145 -144 147 -144Q147 -141 153 -137Q153 -136 155 -136L158 -133L157 -131V-126Q157 -113 158 -108L157 -107L158 -106L157 -102V-100L158 -92L157 -89L158 -86L157 -74L158 -70L157 -63V-61Q155 -52 151 -50L149 -49L147 -54Q147 -59 146 -61V-70L147 -72V-75V-87V-90L148 -91L147 -94V-95V-97V-98V-99V-104V-112V-113V-114V-115V-117V-123Q147 -132 142 -138V-141V-138V-137Q138 -131 138 -128Q138 -126 136 -125V-123Q135 -122 133 -117L129 -105L121 -90Q121 -86 113 -81H111Q110 -81 109 -88H108Q107 -86 102 -86L101 -85H99Q99 -83 94 -82Q94 -81 89 -80Q89 -79 85 -79Q85 -77 81 -77Q81 -75 78 -75Q78 -73 75 -73V-72Q83 -66 86 -66L87 -64V-61Q79 -54 73 -45L65 -35Q65 -33 55 -24L52 -22Q46 -13 30 -1Q25 4 22 5L21 4V2Q46 -19 46 -25Q47 -25 47 -28Q49 -29 52 -36Q61 -44 61 -49Q62 -49 62 -51V-53Q63 -53 65 -57L66 -58V-59V-63V-65V-69L61 -66H60Q55 -62 52 -62Q49 -62 43 -70V-71Q44 -73 50 -75Q50 -76 56 -77Q56 -78 60 -78V-79V-81L61 -84L58 -87L59 -90Q57 -94 57 -95V-98V-99Q54 -107 54 -112Q53 -112 52 -120Q51 -120 49 -128L47 -131V-133Q47 -134 51 -135Q55 -134 55 -133Q57 -130 59 -130Q64 -132 64 -136Q65 -136 66 -140Q68 -140 70 -146Q72 -148 72 -151Q74 -153 76 -162L81 -172Q77 -173 77 -174V-176Q78 -178 84 -181ZM210 -166Q217 -158 222 -158Q222 -157 226 -155L227 -152Q227 -149 224 -140V-138V-134V-133V-130V-126V-125L225 -106H224L225 -86L226 -72H225L226 -71V-70L225 -69L226 -63V-59Q226 -56 225 -56V-55Q225 -44 216 -32H214H213V-35Q213 -40 208 -49Q202 -55 197 -57V-58V-59H199Q201 -57 207 -57Q209 -57 210 -59L209 -62L210 -67V-68V-69V-72H211V-73Q210 -75 210 -78V-79V-81V-87V-90V-91V-92V-93L209 -96L210 -99L209 -104L210 -111L209 -112V-116L210 -117L209 -119V-120V-122V-124L208 -131L209 -133L208 -140V-141V-144Q207 -144 206 -152V-151H205L203 -153Q203 -151 193 -150Q194 -148 199 -144Q200 -142 200 -140Q196 -136 194 -131Q192 -131 188 -125L193 -126Q193 -127 201 -128Q208 -127 208 -124Q208 -121 205 -120H199H197Q197 -119 195 -119L193 -120Q193 -118 182 -117V-116Q186 -114 186 -112H187H188L192 -108L191 -104L196 -107H198Q202 -104 203 -103V-102L201 -100L199 -101Q198 -98 188 -96Q188 -95 185 -95Q184 -94 178 -92L176 -90V-87V-83V-81V-79Q178 -77 180 -77Q180 -78 186 -80H188V-81H189H190L197 -84L198 -83L200 -84Q200 -83 202 -83Q204 -81 204 -80V-79Q200 -75 196 -75L195 -76Q194 -76 191 -73L185 -72L176 -68H175L171 -64Q170 -64 169 -68V-74V-76V-78V-81L168 -84V-89L167 -93L168 -94L165 -96V-97L167 -99Q167 -98 172 -97V-96H173Q174 -97 177 -97L180 -99V-102L181 -104L179 -112V-114H178Q174 -112 169 -109L167 -108V-109L165 -107L160 -111V-112Q160 -113 163 -113H164Q164 -114 171 -117H172Q180 -122 183 -122L182 -124Q186 -127 188 -145Q188 -149 187 -149L185 -147V-148H184Q184 -146 179 -145Q178 -144 172 -143L170 -141L167 -140Q168 -138 170 -138L173 -135Q175 -133 176 -130L177 -129L176 -127L177 -126V-125Q176 -124 176 -121L173 -118H172L169 -123V-125L166 -138V-139Q165 -139 165 -140Q163 -138 160 -136Q155 -140 152 -141L150 -143V-144Q150 -145 153 -145Q159 -148 167 -149L189 -156H190Q206 -160 206 -162Q208 -166 210 -166ZM97 -137H95Q95 -135 94 -135L91 -136Q87 -135 87 -134V-133H88Q88 -134 89 -134Q92 -134 93 -131L94 -132H95L98 -130Q98 -129 101 -129L102 -127V-126Q102 -124 103 -124Q104 -127 105 -127L107 -125H109L110 -123H111L112 -124L113 -123H114L116 -124L115 -125V-126Q115 -128 117 -131L116 -133V-142L118 -144H116Q115 -143 111 -143ZM66 -125Q66 -123 72 -119V-118Q72 -116 71 -116L72 -113Q71 -113 71 -111V-110L72 -108H73L78 -111Q84 -115 85 -115L84 -119L85 -122L83 -132Q76 -129 75 -128L68 -126Q66 -126 66 -125ZM98 -111V-108Q98 -107 97 -107V-104Q97 -101 96 -101V-99Q95 -97 94 -93L95 -91L97 -93H100H101Q102 -95 106 -95L108 -96Q111 -96 111 -99Q111 -101 112 -104L113 -110L112 -111Q113 -113 113 -117H111L108 -115Q107 -115 98 -111ZM72 -106L71 -104L72 -102L71 -98L72 -94V-93V-92V-87V-84V-83H73L76 -86H80Q81 -87 84 -87V-88V-89V-91V-95L86 -97Q84 -98 84 -100L85 -103L84 -104Q82 -104 80 -102H79Q74 -106 72 -106ZM89 -77Q90 -77 90 -75H91H92Q92 -77 93 -77Q98 -77 100 -73Q106 -70 106 -67Q102 -60 102 -55V-51Q101 -51 101 -50Q101 -44 100 -41V-38L104 -39Q104 -40 107 -42Q107 -45 111 -49Q111 -51 112 -53L115 -59L116 -66L113 -69Q113 -71 122 -72Q123 -69 129 -66L132 -63V-62Q132 -60 125 -52Q120 -45 118 -45Q118 -42 116 -41L119 -40H120Q122 -42 128 -43L131 -42V-43Q129 -45 129 -48V-49L131 -50Q148 -48 150 -38V-37Q149 -30 147 -30Q142 -27 140 -27Q136 -27 131 -40L125 -37H124L105 -28Q101 -33 101 -36H100V-33Q101 -27 105 -23Q108 -19 114 -19Q114 -18 123 -18V-17L129 -18L132 -17Q139 -17 140 -18L149 -17L154 -18H163L166 -17L167 -18H182Q182 -20 185 -20L189 -19Q196 -20 211 -23Q219 -23 219 -27Q223 -31 224 -36Q224 -38 226 -40H227L228 -38V-34Q228 -23 233 -19L235 -15Q235 -10 228 -6Q227 -6 223 -4L215 -2Q215 0 202 0V1L199 0L191 2H178H174L172 1L168 2L167 1L164 2H162L160 1L157 2L153 1L151 2L146 0L145 2L138 1H132L131 0H128H119H118H114H111Q105 -4 104 -6Q97 -9 96 -12L91 -21L89 -28Q90 -33 90 -45V-49L91 -56L90 -61L92 -68L89 -74V-76Z"/>
</svg>