<svg xmlns="http://www.w3.org/2000/svg" viewBox="0 -256 256 256">
	<path fill="#000000" d="M156 -190H159Q161 -187 178 -183L182 -179V-176L180 -174L194 -178L200 -179Q205 -175 205 -171Q205 -167 199 -165L196 -166H195Q188 -163 186 -163Q186 -162 180 -161L178 -159V-156L177 -152Q177 -149 179 -149Q183 -152 188 -152Q193 -151 193 -148V-147Q191 -144 191 -141Q176 -137 176 -135L175 -126Q176 -124 177 -124Q177 -126 190 -129Q190 -131 196 -131Q197 -132 205 -133Q205 -134 214 -136L217 -135H220L227 -129V-127Q224 -123 221 -123Q221 -122 218 -122L217 -123L211 -122H210H209H206H205H203Q201 -121 198 -121H197Q191 -119 179 -118Q174 -115 173 -115H170Q167 -113 161 -112L158 -111H156Q151 -108 134 -103Q134 -102 132 -102Q128 -106 124 -106L121 -103L122 -101Q120 -95 119 -94L120 -92Q119 -81 118 -81V-78V-77L115 -69L116 -67Q114 -66 114 -63Q112 -63 103 -54H101Q98 -58 98 -64Q97 -64 97 -65V-66H95L82 -62L80 -63Q77 -60 68 -58L67 -57H65V-54Q64 -54 63 -50L59 -45Q53 -53 53 -57V-58L52 -62Q52 -63 52 -68L50 -77L51 -78L47 -96L46 -98L47 -99Q47 -102 44 -111V-112L45 -113H46L54 -109Q56 -109 61 -113Q62 -113 62 -111Q63 -111 67 -113Q70 -113 72 -115Q75 -115 75 -119Q77 -120 86 -135Q87 -135 88 -139Q90 -139 92 -145Q94 -145 95 -150Q92 -150 90 -149H88L87 -152H86Q80 -149 70 -140Q58 -132 58 -131Q55 -128 47 -125L46 -126Q46 -122 41 -122L30 -116L29 -117V-118L43 -128Q59 -144 63 -157Q64 -157 66 -163L64 -165V-167L69 -169Q79 -162 84 -161L88 -158Q94 -162 103 -166L111 -172Q119 -168 122 -168Q130 -162 130 -157L120 -151H119Q118 -149 112 -145L107 -141Q104 -141 104 -140L105 -138Q101 -138 91 -128Q90 -128 84 -120L85 -119Q88 -121 96 -123Q97 -125 100 -125Q100 -126 106 -127L109 -130Q113 -127 120 -123Q122 -122 124 -119Q125 -119 125 -117V-116Q125 -114 124 -113V-111L140 -115Q145 -117 158 -120L160 -122L159 -126L160 -127Q159 -130 157 -130L149 -126H148Q145 -128 140 -131L139 -133Q139 -134 148 -137Q149 -138 157 -140L160 -143V-152V-153H159Q150 -150 147 -147H146Q136 -156 136 -158Q139 -158 150 -162Q153 -164 157 -165L159 -168Q159 -174 152 -185Q152 -188 156 -190ZM97 -114V-115L89 -112Q89 -111 82 -111L81 -110V-108Q90 -107 90 -104V-100Q92 -100 95 -102L100 -100H101V-103L100 -107L101 -112V-114Q101 -115 99 -115ZM185 -110H186Q188 -107 194 -105Q194 -104 195 -104H199L205 -101L202 -89V-87V-86V-85V-81V-78L201 -75L202 -71V-70L201 -67L202 -66V-65L201 -64V-63Q203 -62 203 -59V-58L202 -57L203 -54V-50V-41L202 -37V-34V-31V-30L198 -20Q196 -17 194 -17L192 -16V-14Q196 -13 202 -9Q204 -9 208 0V2V4Q208 10 201 14H199Q191 7 191 6L179 -12L177 -18Q178 -21 181 -21L187 -18H188Q185 -22 185 -25V-28V-29V-33V-36V-38L186 -40L185 -41Q180 -41 168 -37L165 -38Q164 -35 147 -30V-29Q151 -29 155 -24Q158 -23 158 -21Q158 -18 140 -4Q127 5 121 8Q121 9 118 9L117 6Q117 4 124 1L135 -8Q136 -8 141 -15Q144 -16 144 -18H143H141L138 -23V-25Q138 -27 136 -32L137 -36V-37L138 -43L137 -51V-52L138 -53V-54L137 -58L138 -60Q138 -64 136 -68L137 -70Q136 -82 134 -85H135V-86L133 -89Q134 -97 136 -97Q142 -94 145 -94Q170 -103 185 -110ZM64 -103Q65 -103 65 -93V-92H64Q66 -88 67 -88L76 -94V-106L75 -108Q68 -107 65 -104Q64 -104 64 -103ZM149 -84L150 -82L149 -80Q150 -76 151 -76Q153 -78 158 -78Q158 -80 162 -80Q164 -83 167 -84L170 -83L172 -85Q176 -83 178 -81V-80L175 -77H171Q171 -76 165 -75Q165 -74 159 -73Q149 -68 149 -67L150 -64L149 -60L151 -58L153 -59H154L164 -63L165 -65H168Q168 -67 170 -67H171Q178 -65 178 -61Q175 -59 169 -58Q169 -57 164 -56Q164 -55 157 -54Q152 -51 150 -51V-44Q150 -40 151 -39Q157 -41 157 -42H159L160 -41Q160 -44 164 -44Q166 -46 169 -46Q169 -48 173 -48Q174 -49 179 -51Q179 -52 183 -52Q185 -52 185 -55L184 -58V-60L185 -63V-64L184 -67V-69L183 -71L185 -73L183 -77L184 -81L183 -82V-83Q183 -97 180 -97L165 -94Q161 -94 157 -90Q150 -89 150 -87ZM88 -89V-86V-85L87 -76H88V-75Q86 -73 86 -69Q88 -69 92 -72Q99 -72 99 -77Q100 -79 101 -86L100 -88L101 -90Q101 -91 98 -93L89 -90Q89 -89 88 -89ZM70 -81Q67 -84 65 -84V-81V-79V-78V-77V-75V-73V-69V-68V-65V-64L74 -68L76 -71L75 -73L76 -76V-78L77 -81Q76 -84 75 -84Q71 -81 70 -81ZM108 -54Q113 -54 119 -50Q121 -50 124 -46Q127 -46 129 -39V-37V-33Q129 -31 124 -27Q124 -25 120 -24Q116 -24 111 -41Q110 -47 106 -52Q106 -53 108 -54ZM84 -52H85Q90 -48 94 -48Q99 -42 99 -40Q99 -33 94 -32L91 -30Q87 -30 87 -36V-37L85 -43L86 -45Q83 -48 83 -50V-51ZM66 -46Q68 -43 72 -42Q76 -38 77 -37L76 -35L77 -30Q77 -27 68 -23L65 -27V-33V-44Q65 -46 66 -46ZM42 -44H43Q52 -36 52 -35Q52 -32 54 -31V-29L55 -20Q54 -8 49 -7Q46 -3 43 -3Q42 -10 39 -15Q41 -20 41 -28V-32L42 -36L41 -41V-42Z"/>
</svg>