<svg xmlns="http://www.w3.org/2000/svg" viewBox="0 -256 256 256">
	<path fill="#000000" d="M79 -182Q80 -182 82 -178L87 -176Q89 -176 94 -172Q100 -172 100 -168Q98 -162 95 -162Q95 -160 88 -158Q88 -157 84 -155Q84 -153 80 -153Q79 -150 73 -147Q73 -144 66 -142L61 -138V-137Q63 -135 64 -135H65L66 -132L64 -130L65 -128L63 -123V-122L66 -113Q64 -111 64 -108V-103H66Q70 -105 75 -105L84 -110H85Q90 -112 95 -113Q96 -118 97 -119V-121Q97 -127 99 -131V-132L98 -133Q95 -131 93 -126Q91 -126 87 -123L74 -117Q74 -116 73 -116H71V-118L68 -117Q66 -117 66 -122Q67 -123 72 -125Q72 -127 78 -127Q80 -130 82 -130Q83 -131 84 -131H86Q86 -133 92 -134Q95 -136 99 -137L102 -141L101 -144Q103 -146 103 -148Q101 -145 96 -145Q96 -144 87 -142Q87 -140 86 -140H85L84 -141L82 -140Q79 -140 75 -144V-145Q75 -146 84 -149Q84 -150 90 -151Q90 -153 98 -156Q98 -157 108 -162Q111 -159 114 -159L116 -158H119Q122 -157 127 -151V-150L124 -144Q116 -133 113 -125Q112 -122 108 -119V-117Q114 -115 114 -111Q106 -106 104 -106H101L94 -104Q94 -103 91 -103Q88 -101 85 -101Q84 -99 79 -98Q79 -97 72 -96Q72 -95 68 -94H67H66V-95H64V-92L63 -90L62 -86L63 -83L62 -80V-79Q64 -79 64 -78V-76L65 -69L64 -67V-61L72 -64L78 -66L84 -69H85L88 -71L89 -70L93 -73H94H98Q99 -75 103 -75Q104 -77 107 -77Q107 -79 112 -79H114Q116 -77 118 -77Q119 -75 122 -75Q122 -72 129 -69L131 -64Q130 -56 127 -52Q126 -52 126 -50V-47Q126 -42 124 -38H125V-36L122 -30L120 -21L115 -9Q108 1 103 1Q99 6 97 6L95 4L91 -4Q91 -5 80 -15V-16L81 -17L89 -15H94Q97 -15 100 -14L101 -16V-17L104 -23V-26L107 -33V-36V-39L110 -47V-48L109 -50L111 -52V-57V-61V-62V-65H110H108L107 -66H106L102 -64H101Q101 -63 95 -63Q94 -61 92 -61L89 -62Q89 -60 85 -60Q85 -59 76 -56V-57Q73 -56 73 -54L69 -53L66 -54Q66 -51 63 -51H62Q62 -48 56 -46H55Q53 -46 47 -56V-58L48 -67L47 -74V-75V-78V-81V-83L48 -86L47 -87L48 -90L47 -93L48 -94Q46 -122 44 -122V-124V-126Q42 -126 36 -139V-140L38 -144Q48 -142 48 -141H50L52 -140L54 -141Q55 -138 56 -138Q58 -142 62 -145L66 -151Q66 -153 72 -162Q73 -167 75 -171L74 -178Q76 -182 79 -182ZM168 -151Q179 -142 179 -141L181 -137Q178 -131 170 -122L167 -113H166V-109Q164 -108 163 -102Q162 -102 161 -97Q160 -95 158 -86Q156 -86 154 -78V-70V-68L153 -65L155 -54Q156 -54 156 -50Q158 -48 162 -47L163 -46L165 -47Q165 -45 174 -44V-43L187 -44L189 -43L197 -45H201Q203 -45 204 -47V-46H206L208 -54L210 -62V-65Q210 -66 210 -69L211 -70Q214 -70 215 -63L214 -61L215 -56V-55L217 -49Q226 -40 226 -38V-36Q225 -32 222 -30Q221 -28 218 -27Q216 -23 195 -23H193H189H188L178 -24L173 -23L167 -26Q165 -26 158 -28L157 -27Q149 -32 148 -35L146 -39Q139 -47 139 -56L143 -77V-78V-79V-80V-82L145 -92Q146 -92 150 -107L152 -113Q152 -117 153 -122V-123H152L146 -120H145Q135 -128 132 -128L131 -129V-130Q131 -131 143 -134Q147 -136 153 -138Q153 -139 158 -139Q158 -141 168 -151ZM103 -96Q107 -95 107 -90L100 -86L86 -80Q82 -80 79 -77H78Q76 -77 76 -79H75Q75 -75 72 -75Q72 -77 68 -77L64 -81V-82L65 -83H67L68 -82L71 -84H72Q72 -86 79 -87Q79 -88 83 -89Q83 -90 90 -91Q90 -92 102 -96ZM89 -51H90Q91 -49 93 -49Q93 -47 98 -46L101 -41L102 -38Q102 -31 98 -31L97 -29H96Q93 -29 92 -33V-36Q90 -39 89 -46Q88 -47 88 -49V-50ZM69 -46Q75 -46 83 -37L84 -31Q80 -25 76 -25Q71 -26 71 -27V-28L72 -32L71 -36L72 -39Q69 -40 69 -41H70V-42H71L68 -45Q68 -46 69 -46ZM31 -41Q35 -38 40 -36L47 -25L46 -23L47 -21Q47 -14 41 -8H40Q34 -11 33 -13L34 -18L33 -25H34Q31 -37 30 -38V-41ZM52 -40H53Q56 -36 60 -36Q60 -34 62 -34L64 -31L65 -24Q65 -19 59 -17Q54 -18 54 -23Q53 -33 50 -38Z"/>
</svg>