<svg xmlns="http://www.w3.org/2000/svg" viewBox="0 -256 256 256">
	<path fill="#000000" d="M165 -185H171Q173 -183 179 -180Q183 -177 187 -177L189 -174V-172Q181 -164 175 -162Q170 -157 163 -153Q159 -149 157 -149Q157 -148 150 -143L146 -139V-137H148Q156 -135 156 -130V-126L154 -124L156 -122L161 -124H162L164 -123Q164 -126 175 -129Q178 -129 179 -127Q179 -120 164 -116L162 -114H157V-116H156Q153 -115 153 -114V-113V-101H156Q157 -102 165 -104L178 -108H180L181 -109V-112L184 -124L187 -141L189 -142V-143Q188 -143 188 -144L186 -143H185L181 -144Q178 -142 173 -140L171 -139Q170 -141 169 -141Q169 -137 167 -137H166Q156 -140 155 -140V-141Q155 -142 162 -144Q165 -146 168 -146Q168 -147 174 -149L192 -159Q194 -159 205 -154Q216 -151 216 -145Q216 -142 210 -137L206 -132L201 -121L199 -117Q198 -117 198 -114Q195 -111 192 -103Q187 -97 185 -97H184V-96L182 -94H181Q180 -94 180 -95L182 -101H180Q179 -100 175 -99Q165 -96 162 -92Q160 -92 158 -91H157L153 -93L152 -92V-90L151 -87Q151 -86 153 -86V-85V-83L151 -80V-78H152Q158 -80 173 -87L181 -91Q187 -93 190 -93Q193 -93 197 -90V-89Q194 -85 192 -83H187Q180 -82 180 -81Q180 -80 171 -79Q171 -78 161 -74H159Q159 -72 158 -72H157L152 -74L151 -73L152 -71L151 -68L152 -64L151 -62L152 -61H153Q157 -63 163 -63Q163 -64 175 -66Q175 -67 191 -69Q191 -70 201 -72H202L203 -71Q203 -72 219 -76Q227 -68 234 -63V-62V-61Q234 -57 232 -54Q230 -52 226 -35Q225 -32 224 -32L225 -30Q223 -18 220 -14Q219 -9 209 4Q201 9 198 9H195Q193 9 193 1Q191 -1 187 -11L185 -14V-15L186 -16Q193 -10 197 -10Q200 -14 202 -24Q203 -24 204 -29V-32L206 -36H205V-37L208 -46L207 -49Q210 -49 211 -61L207 -63H204H202H198H196H194H192L187 -62L186 -63Q185 -61 184 -61H182Q176 -60 171 -59H167V-58Q166 -57 159 -55H158Q158 -54 153 -52Q153 -51 149 -51L148 -50L149 -48L148 -47V-46Q149 -45 153 -43Q156 -42 156 -40Q159 -37 159 -29Q156 -25 154 -24H153Q148 -25 148 -27L149 -31L148 -34L149 -39Q148 -39 147 -45L143 -44H142Q140 -45 139 -46L140 -49Q138 -49 138 -52H137L138 -60V-70L139 -82L138 -85L139 -89Q139 -99 138 -103V-105L139 -109L138 -113H139L138 -117V-123Q138 -125 136 -127V-128L137 -132Q133 -132 131 -139L135 -143Q137 -142 140 -142L143 -138H144Q144 -141 150 -147L158 -160Q158 -162 162 -168L164 -175V-177Q164 -179 162 -181V-183ZM110 -170Q113 -170 116 -166Q118 -166 119 -164V-165H120Q127 -162 127 -161L129 -158Q129 -152 125 -149Q120 -141 120 -139Q120 -136 117 -134Q116 -132 116 -128Q120 -126 120 -122Q115 -115 108 -115Q108 -114 100 -113L99 -111H96L95 -109H92H90V-108Q95 -108 99 -104Q102 -104 103 -102L106 -103Q108 -99 110 -99L111 -94Q117 -97 119 -97H120Q122 -97 127 -92Q121 -87 119 -87H118L117 -88Q115 -85 111 -85Q110 -83 103 -82Q103 -81 99 -81Q99 -80 103 -79V-78Q101 -72 98 -68Q98 -65 95 -62V-61H98Q100 -64 109 -68Q109 -69 111 -69Q114 -69 119 -64V-65H120Q123 -63 125 -61Q129 -61 129 -56V-54Q122 -49 120 -48Q120 -44 114 -41Q114 -39 113 -37L115 -35H118Q119 -35 119 -33Q119 -28 111 -28L96 -23Q94 -22 88 -19Q88 -18 82 -15L84 -13Q82 -5 79 -5Q72 -10 72 -18L71 -19V-21Q70 -27 68 -31L66 -40V-41Q62 -45 62 -48L60 -51Q53 -39 46 -31Q35 -18 24 -10H23L22 -11L29 -19Q31 -21 36 -29Q37 -29 40 -35Q42 -37 46 -46Q47 -46 49 -53Q50 -53 50 -61V-62Q54 -68 55 -86L57 -94V-95L56 -103L57 -105L56 -107L57 -108L54 -118Q54 -120 55 -121H60Q61 -121 67 -117Q69 -117 71 -113H73Q74 -113 75 -111Q77 -115 81 -117L83 -116Q83 -117 85 -117H86Q88 -119 90 -119Q93 -121 94 -121H96L97 -127V-129L99 -134V-139V-140V-142H98Q91 -140 88 -137H86Q85 -139 82 -139Q81 -141 77 -141Q74 -145 67 -148V-149Q67 -150 76 -153H79Q83 -156 96 -160Q103 -163 110 -170ZM79 -109Q79 -104 76 -100Q76 -99 74 -98V-97L75 -95Q72 -91 72 -85H70L71 -82V-81L69 -79V-77H71Q79 -81 80 -81Q89 -84 89 -86V-92L90 -96Q88 -101 87 -101Q85 -104 82 -104Q80 -107 80 -109ZM77 -68L75 -69L74 -68H73Q71 -70 69 -70H67H66Q66 -68 63 -62Q63 -59 62 -58L70 -54Q73 -54 73 -51L74 -50H75Q80 -54 84 -54Q84 -58 85 -59L84 -61L85 -68V-70L87 -71V-75Q85 -74 83 -71Q81 -71 77 -68ZM94 -51Q92 -51 92 -52L89 -49H88Q88 -50 85 -50Q85 -47 82 -45Q82 -44 79 -44L78 -42H79V-41L78 -39L82 -28L83 -27Q90 -30 94 -33L102 -36Q104 -36 104 -37L103 -40L105 -41L104 -43L105 -47L104 -49Q104 -52 108 -52V-53Q106 -53 104 -55H103L95 -52Q95 -51 94 -51ZM188 -54Q198 -50 199 -46L200 -42Q200 -36 198 -36H197Q197 -35 198 -35L199 -34Q196 -30 193 -30Q190 -31 190 -34L191 -35V-36L189 -40V-41L186 -54ZM167 -50H168Q170 -48 174 -47Q176 -45 178 -41V-36Q178 -32 171 -29L170 -30L168 -32V-35L166 -47V-49ZM126 -41L134 -38Q134 -36 138 -34V-33Q138 -26 140 -22Q139 -18 132 -14H131Q129 -15 128 -17L129 -22L127 -35Q127 -36 125 -39V-40Z"/>
</svg>