<svg xmlns="http://www.w3.org/2000/svg" viewBox="0 -256 256 256">
	<path fill="#000000" d="M170 -188Q172 -188 176 -182Q185 -176 188 -176L189 -170Q188 -170 186 -166Q176 -163 173 -161L159 -153Q156 -153 148 -147Q146 -147 146 -146V-145L153 -141L158 -135Q157 -133 156 -128V-127H157L174 -136H176Q183 -135 183 -134Q178 -128 170 -128Q169 -126 159 -122Q159 -121 155 -121H154V-120L156 -119L155 -115V-111L158 -110L173 -115Q173 -116 180 -117Q180 -118 182 -118V-119Q182 -126 185 -126L184 -127Q184 -130 185 -130L184 -131L185 -135L184 -136L185 -137L184 -140Q185 -140 185 -142V-144L186 -149L185 -150L181 -148L179 -149L178 -148H175Q174 -148 171 -145L165 -144H164Q161 -144 158 -147V-148Q158 -149 166 -151Q166 -152 173 -154Q173 -155 182 -158Q182 -159 189 -162L196 -167H197L208 -159Q211 -159 212 -154V-150Q208 -144 206 -140Q205 -140 204 -135Q203 -135 203 -132Q201 -132 200 -123Q194 -106 192 -106L187 -103H186Q185 -103 182 -105V-108V-110H181Q178 -110 174 -108H172L171 -106L167 -107Q164 -105 155 -101L154 -100L155 -98L154 -89V-88H159H161Q162 -90 166 -90H170Q173 -90 174 -94Q176 -94 178 -95H179H180Q181 -96 195 -100L205 -98V-97Q205 -90 199 -90H195L175 -86H172Q172 -84 169 -82H168H166L160 -80L156 -81L153 -79V-72V-70L154 -66L158 -67H161L164 -69L168 -68L177 -71H182L192 -73L203 -76L209 -77L211 -79L213 -78L216 -79Q216 -77 222 -75Q222 -74 228 -72L233 -66V-63L230 -54Q229 -51 226 -46Q226 -40 222 -33Q221 -28 216 -18Q216 -14 212 -11Q212 -6 210 -6Q207 -2 200 4Q200 8 189 12Q188 12 187 10L188 4V3L187 -2H188L185 -10L178 -17L180 -18L185 -16V-15Q185 -14 190 -14Q190 -13 196 -12Q201 -19 204 -33Q211 -61 211 -65Q210 -66 203 -67L192 -66L190 -67Q190 -65 185 -65H184H182H178Q176 -63 173 -63H170Q170 -61 159 -59Q151 -57 151 -54Q150 -47 146 -47Q145 -47 145 -51Q142 -51 141 -66V-68V-72V-77L140 -81L141 -90V-95V-98V-101Q141 -107 142 -108L141 -110L142 -114L141 -118V-120V-126L142 -128Q141 -128 139 -141Q137 -141 136 -145Q134 -145 134 -147Q136 -150 137 -151H138Q140 -148 143 -148Q148 -150 157 -162L163 -175V-176V-179V-180V-185Q164 -187 170 -188ZM97 -180Q101 -177 112 -173Q116 -171 118 -167Q118 -163 115 -162Q115 -159 103 -158H101H100Q87 -154 81 -151V-150Q82 -149 94 -145L95 -144V-143L93 -140H96H97V-143Q97 -144 109 -148Q112 -148 120 -151Q127 -148 132 -148V-147Q132 -140 120 -140H119H117H110H108Q108 -138 103 -138Q103 -136 98 -135Q98 -134 93 -133H92L91 -132Q90 -132 90 -131Q91 -129 94 -129H95L102 -127Q102 -129 124 -129H125Q134 -126 134 -121V-120Q134 -116 129 -115Q122 -115 122 -116H121H120L107 -121V-122H106L105 -121H104Q103 -121 103 -123H102H101H100L89 -127Q86 -126 86 -123L78 -112L74 -105L75 -104H77Q79 -107 84 -107Q85 -109 92 -112Q94 -112 94 -113Q95 -114 99 -114L103 -118H105L112 -114Q119 -114 122 -109V-108L113 -99L114 -94Q113 -90 112 -90L106 -91L103 -90H101L91 -87Q91 -86 86 -86Q81 -81 77 -81L79 -79Q77 -75 74 -73H73Q70 -73 67 -88V-89L68 -93Q66 -93 66 -96H65Q65 -93 63 -93V-90Q51 -79 44 -76Q43 -73 25 -59H24L23 -60V-61Q35 -72 42 -81Q46 -84 51 -95Q55 -98 61 -109L63 -112Q64 -112 65 -116L68 -120V-122H66Q66 -120 63 -120L52 -112H51Q49 -112 44 -117Q42 -117 39 -120Q35 -120 35 -123L41 -124Q46 -127 51 -128Q59 -131 67 -133Q68 -134 74 -136H73V-138Q73 -141 76 -141L75 -144V-148L74 -149Q61 -141 57 -141L56 -142V-143L64 -148Q67 -151 73 -155Q76 -158 82 -160Q86 -167 91 -170Q94 -175 94 -178Q94 -180 97 -180ZM96 -111Q96 -107 92 -107Q92 -104 83 -104Q78 -100 78 -98V-97V-92L77 -89L79 -88H81Q84 -88 88 -91Q91 -91 99 -96Q100 -106 101 -109V-110H98V-111ZM116 -88Q117 -88 121 -85Q126 -81 128 -81Q132 -79 136 -75V-73Q136 -72 132 -67Q131 -59 130 -56V-50L129 -46L130 -42L127 -33L128 -30Q124 -13 120 -10Q114 -1 110 1L109 3H108Q106 1 105 1V-3Q103 -12 97 -19V-20Q96 -20 96 -21L97 -22Q100 -22 103 -19H106Q109 -25 109 -31Q110 -31 112 -44H111V-46Q113 -53 113 -59V-61L116 -63L113 -66L114 -70Q113 -73 113 -75H112H108L101 -74H98Q91 -70 87 -70V-69L78 -66Q78 -65 72 -64Q69 -62 63 -60L55 -61H54V-60Q55 -60 61 -54V-39L62 -35L61 -33L62 -31L61 -28L63 -27V-8Q60 -1 57 -1Q55 -1 54 -7Q52 -7 51 -14L52 -15L51 -18V-22Q51 -29 50 -32V-35Q49 -35 49 -41V-42Q47 -48 46 -59Q45 -59 45 -67H46L50 -63L71 -69Q72 -71 85 -75Q85 -76 90 -77H92Q92 -79 95 -79L97 -78Q97 -81 102 -81Q102 -83 105 -83Q105 -84 110 -85Q110 -86 116 -88ZM96 -63H97Q98 -62 105 -59L108 -54Q102 -48 101 -45L99 -44V-43L104 -38Q104 -37 99 -35L98 -36Q88 -33 84 -31Q79 -31 79 -26Q79 -24 77 -23H76Q73 -23 71 -39Q69 -39 69 -47Q68 -47 68 -53Q66 -53 66 -55L67 -57L73 -53L77 -52Q82 -54 83 -56Q91 -59 96 -63ZM77 -48V-44L78 -39H77V-38Q78 -36 79 -36Q83 -37 84 -39Q92 -41 92 -45L93 -53L91 -54L81 -50Q77 -49 77 -48ZM193 -54H194Q198 -51 203 -45V-41Q203 -32 197 -28H196Q194 -28 193 -40L194 -43L193 -45L194 -48Q192 -51 192 -52V-53ZM176 -51Q185 -46 185 -42V-41Q183 -32 180 -32Q176 -36 176 -41V-44Q175 -44 175 -51ZM157 -48Q161 -46 165 -43Q168 -40 168 -37Q168 -31 165 -30L163 -28H161Q158 -28 158 -42V-44Q156 -44 156 -46V-47ZM135 -44L143 -39Q150 -36 150 -29V-26Q149 -20 146 -18L144 -17H143Q137 -22 137 -24V-25V-26V-28Q135 -33 134 -40L133 -41V-42Z"/>
</svg>