<svg xmlns="http://www.w3.org/2000/svg" viewBox="0 -256 256 256">
	<path fill="#000000" d="M178 -209L183 -207Q184 -207 188 -205Q191 -205 195 -198V-196Q189 -190 189 -185Q186 -184 183 -170Q181 -170 179 -161Q177 -161 176 -156L172 -154H171Q169 -156 168 -160H167L164 -158H161L156 -156L154 -158Q152 -155 150 -155V-156Q149 -156 149 -152Q146 -152 146 -150L145 -148H142Q141 -148 139 -155Q138 -155 138 -157V-163L137 -167L138 -168V-171V-179Q138 -186 135 -192Q133 -192 132 -198Q132 -200 135 -200L142 -198Q144 -198 146 -196H147Q151 -199 154 -199Q158 -201 164 -202L174 -208Q174 -209 178 -209ZM91 -200Q92 -198 100 -195L102 -196Q106 -192 106 -188H107L113 -190H114Q118 -189 124 -184V-181Q124 -180 114 -176Q104 -171 104 -168L105 -164L104 -162L105 -161L103 -158Q105 -158 105 -157Q109 -157 114 -153L118 -154Q118 -153 122 -153Q127 -150 127 -147L126 -146Q127 -146 127 -142H130L132 -143H135L141 -145L143 -144L150 -147H157Q157 -149 167 -150Q167 -151 178 -151L184 -154H185L186 -153H187Q188 -155 190 -155H194L195 -156H198L204 -158L211 -155H214Q218 -152 218 -149Q218 -147 215 -145H214L213 -146H211L207 -147L204 -146L199 -148Q199 -147 198 -147H196L194 -148L190 -147H187L185 -146H181L172 -144Q169 -144 169 -145L163 -143V-144L155 -141H154L150 -142Q149 -140 148 -140V-139Q148 -138 152 -135Q152 -133 149 -131L150 -130L159 -131H160Q160 -132 167 -132H168L170 -134H176Q177 -136 183 -136Q183 -138 195 -139Q195 -137 199 -135Q202 -130 205 -130L206 -127V-124V-123V-122Q202 -120 199 -117L189 -101Q187 -95 178 -87Q173 -84 171 -84Q169 -95 166 -100V-102L167 -103Q169 -103 171 -100L174 -102Q176 -104 176 -107Q177 -107 177 -110L180 -113L179 -114Q182 -119 182 -121L184 -122H183V-124Q186 -127 186 -129L185 -130Q172 -129 171 -128V-127Q172 -126 176 -124V-122Q174 -116 171 -112Q171 -109 165 -105L162 -101Q160 -101 159 -99V-98H160L163 -99Q167 -94 167 -91Q163 -83 161 -81Q159 -81 159 -77Q158 -77 157 -72Q155 -71 155 -70V-66L151 -56Q147 -54 145 -52H144Q142 -52 141 -57H134Q133 -57 130 -54L124 -52H123Q123 -51 119 -50Q119 -49 116 -49Q115 -47 112 -47V-45V-44L110 -43V-42Q112 -42 112 -41L111 -38L125 -42Q126 -44 129 -44L134 -45Q134 -46 138 -46Q140 -49 144 -49V-48H145Q146 -50 149 -50H154V-51H157L160 -50L161 -51H162L167 -49L168 -46Q164 -43 163 -43L160 -44L155 -43H153H152L149 -41L145 -42Q145 -41 139 -40H134Q132 -38 129 -38Q128 -36 126 -36H123Q119 -32 116 -32L113 -31H112H109V-29L110 -28V-27L109 -26L110 -23L109 -21L111 -20Q114 -23 127 -25Q127 -27 137 -28Q137 -29 143 -29Q143 -30 146 -31L148 -29Q149 -29 149 -31H150H154L156 -33H161Q165 -34 173 -35Q173 -36 184 -38H185Q188 -38 193 -35Q201 -31 201 -25L203 -23V-22Q198 -17 195 -3Q193 -2 187 15Q185 21 173 30Q172 30 167 33L161 34Q159 31 159 27Q158 27 156 20Q154 14 150 10V8L165 16H166Q168 15 169 8Q172 3 172 -1Q177 -8 177 -13L180 -26Q180 -28 176 -29Q170 -27 160 -27H158Q158 -25 155 -25H154L153 -26H152Q152 -25 151 -25H148Q145 -23 130 -21L127 -22Q127 -19 126 -19L125 -20H124L120 -17H116Q115 -17 115 -18Q114 -14 109 -14V-13Q109 -10 111 -10L116 -5L118 2Q114 9 110 9L105 6Q106 5 107 -2L106 -6L107 -9L106 -10Q103 -8 102 -8Q97 -14 96 -14Q96 -17 100 -27H99V-28L100 -33L99 -36L100 -37L99 -43H100L99 -46L100 -47L99 -48V-53V-56L100 -59L97 -72L98 -75Q93 -80 93 -86Q93 -88 98 -90Q101 -90 105 -87L109 -85Q110 -86 114 -96Q116 -96 116 -99L118 -102L117 -111L121 -113Q128 -110 128 -107L129 -108H132Q135 -107 136 -100Q133 -97 131 -97H130Q130 -95 120 -88V-87L123 -86L132 -90Q136 -93 141 -94L143 -97H145Q146 -102 149 -102Q152 -102 155 -100Q156 -100 160 -107Q163 -111 163 -116L164 -117V-119L165 -123L164 -125L165 -129H163Q163 -127 161 -126H159L158 -127H157L156 -126Q157 -126 159 -122Q158 -122 158 -117H157H153H154V-115Q152 -113 147 -109Q143 -104 139 -104L138 -105V-107Q138 -108 142 -109Q142 -110 151 -120Q151 -122 153 -124V-126H152L147 -124L145 -126H144Q140 -118 137 -118H136Q136 -117 132 -114Q132 -113 131 -113H130H129V-114Q131 -117 132 -118Q138 -125 139 -132L141 -137L140 -138Q137 -137 132 -135L130 -134Q128 -134 128 -135H126L124 -137V-140L125 -142H124L121 -137H119Q112 -143 109 -143Q108 -145 105 -147Q104 -147 104 -143L105 -140Q105 -137 102 -135L104 -133L103 -131L104 -129L103 -127L104 -126L103 -123L104 -113L103 -108L104 -107Q104 -103 100 -99L101 -97L94 -91Q91 -91 91 -98L90 -101V-102V-109V-114V-118V-122V-127V-132L89 -133Q82 -124 77 -121Q77 -119 73 -118Q73 -117 69 -114Q69 -113 64 -110L39 -88H38L37 -89V-90L46 -98Q55 -107 59 -112Q61 -112 71 -125L75 -131Q76 -131 77 -134L80 -136V-139Q84 -146 84 -150Q86 -150 86 -155L88 -156V-158H87Q84 -158 81 -154H78Q78 -152 77 -152H74Q66 -160 65 -160Q64 -160 64 -161Q61 -161 59 -166H58L56 -165L55 -167Q55 -169 62 -169L65 -171H66L82 -178H84H85Q85 -179 88 -180L89 -185Q87 -191 86 -193L84 -195V-196Q87 -200 91 -200ZM171 -199Q171 -197 165 -197H164L162 -195L160 -196L155 -194Q153 -194 151 -195H150Q150 -194 154 -190V-189Q152 -187 152 -183Q152 -181 156 -181L158 -183L160 -182Q160 -185 163 -185H164Q166 -185 169 -182V-181Q163 -176 155 -176Q154 -174 152 -174L151 -172V-170V-168L150 -164L151 -163L161 -166L164 -167H165L169 -166L168 -168Q169 -170 170 -175H171L170 -180Q172 -181 172 -184V-188L173 -189L172 -192L173 -197Q173 -198 171 -199ZM123 -81Q118 -83 117 -83H116Q113 -83 113 -81V-71H114L125 -75H126H127Q127 -77 131 -78V-77Q133 -78 133 -80H134Q138 -80 140 -77Q140 -74 133 -72H131Q131 -70 125 -68H124L123 -69Q122 -69 122 -67H121H118Q116 -64 113 -64V-57L114 -56Q121 -60 123 -60Q124 -61 140 -67H143L144 -68L142 -69V-70Q143 -71 144 -87V-88H143Q142 -87 134 -86Q134 -85 127 -83Q126 -82 123 -81ZM151 -23L153 -21H155Q155 -20 161 -15L163 -11V-9V-8V-7V-4Q160 2 156 2Q153 -1 152 -5L153 -8Q150 -17 150 -23ZM128 -19Q134 -15 137 -9L139 -8V-7V-5V-4Q139 4 132 4H131L129 1Q129 -7 127 -17Q127 -19 128 -19ZM74 -14Q78 -10 82 -9Q89 -4 91 0V2Q94 2 94 8L93 10L94 11Q91 17 90 17Q87 18 86 18H85Q82 18 79 7L77 -2L75 -7Q72 -11 72 -13L73 -14Z"/>
</svg>