<svg xmlns="http://www.w3.org/2000/svg" viewBox="0 -256 256 256">
	<path fill="#000000" d="M160 -187H161L167 -185Q175 -185 177 -181Q182 -178 182 -173Q182 -167 177 -167Q174 -164 171 -164L166 -160H165Q161 -158 158 -154Q155 -151 150 -150Q150 -149 144 -143V-142Q147 -142 148 -136L147 -135Q148 -128 149 -128Q153 -128 158 -131H159H160L166 -137H169Q171 -135 172 -135L175 -131V-130Q174 -128 169 -126H168L166 -127L165 -126H162Q159 -124 151 -123Q151 -122 147 -122V-121L148 -118V-116V-114V-110V-109L154 -110H157Q157 -111 162 -112Q162 -113 167 -114Q167 -115 174 -116L176 -125V-128Q178 -129 179 -137Q180 -138 180 -140V-142V-148Q180 -150 179 -150L171 -147Q167 -147 166 -144H165L163 -146L162 -145Q156 -146 156 -148V-149Q156 -150 160 -151V-150L167 -154L171 -156L173 -155H174Q177 -158 179 -158Q183 -162 186 -162Q188 -165 190 -165L192 -164L195 -165Q201 -165 205 -153V-151Q198 -142 198 -141Q191 -131 189 -125V-123Q188 -117 184 -112Q183 -109 178 -106Q178 -104 176 -104H175Q174 -104 174 -108L170 -111Q167 -108 160 -106L158 -107Q158 -105 153 -104Q148 -102 148 -101L149 -93L148 -90L149 -89Q153 -89 155 -91L156 -90Q158 -92 166 -93Q178 -98 189 -99Q192 -98 192 -97V-95Q192 -92 188 -92Q186 -92 184 -91Q182 -91 182 -92Q180 -90 177 -90L176 -89H175L173 -90Q171 -88 166 -88V-87H163Q163 -86 162 -86H161Q159 -85 149 -82H148V-79L150 -77L148 -75L149 -72V-68H150H151L160 -69L163 -68Q180 -72 182 -72H186Q196 -76 201 -76Q201 -77 211 -78Q211 -79 214 -79Q223 -72 225 -65Q222 -60 221 -52L219 -48V-46L216 -36Q216 -31 214 -29H215V-28Q211 -20 211 -17H210L211 -14Q209 -11 208 -7L201 1Q194 7 189 9L187 11Q182 9 182 8V2Q180 0 180 -4Q178 -4 178 -7Q177 -7 175 -12Q174 -14 172 -14L171 -17H173Q179 -13 189 -10Q193 -20 194 -26Q195 -26 195 -31Q196 -32 198 -32Q197 -32 196 -35Q198 -53 199 -55V-59L201 -62L200 -64L201 -67Q200 -69 198 -69L194 -68H192Q190 -67 177 -67L176 -66H172H169Q169 -64 162 -63L160 -64Q160 -62 153 -62Q153 -61 149 -60Q149 -56 146 -53V-52L147 -50Q146 -50 140 -44H139Q137 -45 133 -54V-62Q133 -72 134 -74L133 -78V-82L135 -90L134 -95H135V-99V-101L134 -104L135 -108L133 -115L134 -118L133 -121L134 -123Q131 -135 127 -140V-145Q127 -146 130 -149H132Q139 -145 140 -145Q142 -145 145 -152Q148 -154 153 -165Q157 -173 157 -180V-181Q157 -184 160 -187ZM114 -172Q120 -172 127 -166Q128 -163 130 -161V-160H129V-159L132 -158V-157Q130 -154 127 -153L124 -144Q124 -141 122 -140Q122 -137 116 -125L117 -123Q114 -120 113 -120V-117H112V-116V-115V-114Q110 -111 108 -111Q105 -109 105 -108L104 -107H102Q101 -107 100 -113L98 -115H95Q91 -114 91 -113L90 -114Q85 -113 81 -112V-113L72 -109Q68 -109 67 -106Q63 -105 63 -104L62 -103H61L59 -104H58H59L58 -99V-97L57 -96Q49 -101 49 -103L43 -121Q43 -124 41 -126L42 -130Q40 -130 38 -138H37L32 -145L31 -148Q32 -151 33 -151H35Q36 -151 39 -149Q45 -149 46 -144Q48 -144 49 -149H50L52 -148Q52 -150 61 -151L63 -153H68L73 -157V-156H74Q84 -160 94 -163Q103 -168 110 -171Q110 -172 114 -172ZM100 -156H98Q95 -156 91 -153Q95 -153 97 -150Q99 -150 99 -147Q97 -147 95 -141Q94 -141 93 -136L94 -134Q93 -132 91 -132Q90 -131 88 -125L86 -123L87 -122L90 -123H94L97 -122Q97 -125 103 -125L102 -127Q103 -130 103 -131V-133L105 -135V-136H104Q104 -139 107 -148V-153Q107 -155 109 -158L108 -159Q107 -158 102 -158ZM80 -151Q80 -149 73 -148Q73 -146 63 -144L52 -140H49L53 -135V-132Q53 -130 55 -127L57 -123L56 -122Q57 -119 59 -117V-114H61L63 -115H67L68 -117L66 -119V-121Q67 -121 68 -133L69 -136V-139V-140H71L74 -131Q75 -131 75 -129V-127V-124L76 -123Q76 -121 74 -118Q75 -119 80 -119L82 -121V-125Q82 -126 84 -129V-131V-133V-135V-137L85 -144V-146V-147Q84 -151 83 -151L81 -150ZM106 -103Q111 -102 116 -100Q128 -99 128 -95V-94Q127 -92 126 -92V-91L122 -58L121 -53L120 -52L121 -48Q119 -47 119 -46V-45L118 -39Q120 -39 133 -32Q136 -32 136 -26Q135 -21 128 -17H127Q126 -17 124 -23V-25L119 -35L117 -32V-28Q115 -28 113 -16Q111 -13 109 -8Q108 -8 102 0Q100 0 96 4L90 7Q86 7 86 4L88 -1L84 -12Q82 -17 80 -18V-19L81 -20H82Q86 -20 89 -16H91H95L99 -28Q99 -32 100 -36V-37Q101 -41 102 -50Q103 -50 103 -55L104 -56L103 -58L106 -62L105 -65V-69L106 -74V-75L107 -81L106 -86L107 -92H106H104H102Q101 -90 99 -90V-91L94 -89L91 -90Q86 -86 80 -86L79 -85H77L71 -90H70L64 -83H65V-82L64 -81Q69 -79 72 -76Q75 -76 76 -74H78Q79 -74 82 -76L86 -78Q87 -78 89 -80H90Q90 -78 98 -77L102 -73V-72L101 -71Q102 -70 102 -68Q102 -66 94 -63L90 -61Q90 -59 87 -59V-58V-56L90 -57Q91 -57 91 -55H94Q96 -53 96 -52Q95 -50 94 -49H93Q85 -49 82 -50Q82 -49 78 -48L76 -49Q74 -49 73 -42L75 -41Q75 -40 73 -40V-38L74 -35H77Q82 -36 82 -39L83 -40V-43V-47H84Q88 -45 90 -43Q92 -43 94 -39V-33Q94 -30 93 -30L90 -31L88 -28Q84 -29 84 -31L85 -35H84L79 -31H76Q76 -29 72 -28Q72 -27 68 -25Q68 -23 60 -20Q59 -18 52 -13Q48 -13 42 -21Q41 -21 41 -23Q42 -24 49 -26Q52 -28 56 -28L61 -30Q62 -32 64 -32V-31H65V-41Q64 -46 63 -46Q63 -44 59 -43L58 -41H56H55Q54 -37 49 -37Q49 -39 45 -41L42 -49V-50L43 -52Q41 -52 41 -55Q39 -59 34 -65V-68Q35 -70 37 -70L39 -68L40 -69Q43 -69 44 -67H45Q49 -66 49 -62H50Q53 -65 54 -65L57 -63Q58 -67 62 -67V-73L61 -77Q60 -77 55 -73Q49 -68 48 -68L47 -69Q50 -72 53 -78Q58 -83 61 -94L60 -96Q61 -100 62 -100H63L65 -97Q68 -97 68 -94Q74 -93 74 -91H76L86 -95Q91 -98 94 -98Q95 -100 97 -100H98Q98 -101 106 -103ZM79 -68Q77 -66 76 -65V-63L75 -54L81 -57L83 -55H85L84 -60Q86 -63 86 -67V-68H82ZM58 -60L55 -61Q55 -58 51 -58L54 -48L58 -50V-49L63 -51V-54V-59L62 -63ZM181 -55H182Q191 -47 191 -40V-38Q188 -33 184 -33Q182 -33 180 -40V-45V-48V-52V-54ZM163 -53Q168 -51 172 -46L171 -45Q172 -45 174 -38Q171 -32 166 -32Q164 -32 163 -39V-41L164 -42V-43L163 -45V-46L162 -53ZM146 -46Q148 -44 152 -44Q156 -41 156 -38V-36Q155 -32 147 -30L143 -42V-43Q143 -46 146 -46Z"/>
</svg>