<svg xmlns="http://www.w3.org/2000/svg" viewBox="0 -256 256 256">
	<path fill="#000000" d="M115 -197H116Q127 -191 129 -191Q142 -188 142 -182Q139 -178 139 -173Q138 -173 138 -161H137L138 -159V-158L137 -156V-153V-151V-150Q137 -146 134 -146V-145H136Q138 -145 140 -148L142 -147Q143 -149 152 -149Q152 -150 158 -151V-152V-153Q159 -154 159 -162V-164V-165L158 -166V-169V-170Q157 -171 157 -173V-175L162 -180H163Q171 -175 175 -175Q186 -170 186 -167Q186 -163 179 -154Q166 -124 159 -123Q159 -122 154 -122Q153 -123 153 -128Q153 -135 158 -142V-143H157Q155 -141 150 -140L149 -139L148 -140L145 -139H144Q141 -137 133 -136Q131 -134 120 -133H119V-132Q120 -132 125 -128Q131 -126 131 -121Q127 -118 125 -118V-117Q134 -113 139 -110Q150 -102 151 -102L155 -96Q157 -96 171 -86Q173 -84 177 -83Q177 -81 184 -79Q184 -77 189 -77Q189 -74 192 -74H193Q194 -74 199 -71Q203 -71 211 -67Q212 -67 219 -63Q230 -59 234 -59Q235 -56 238 -56V-54L237 -53H234L210 -47L207 -46Q203 -43 198 -42Q194 -45 185 -50L177 -56L174 -57Q171 -60 163 -64L155 -70Q153 -71 144 -81Q143 -81 132 -93Q131 -93 128 -97Q127 -97 126 -100Q124 -100 119 -108Q118 -108 118 -104Q115 -101 108 -90Q103 -82 100 -80Q99 -78 97 -76Q96 -74 90 -69Q90 -66 85 -62Q85 -60 76 -52Q76 -51 71 -48Q65 -40 57 -35Q51 -29 41 -23L27 -14Q22 -12 20 -10H19L18 -11Q22 -17 25 -17Q36 -25 45 -33Q46 -33 59 -47Q61 -49 69 -59L80 -72L90 -87Q90 -89 95 -92L94 -94Q95 -94 97 -99Q98 -99 98 -101L100 -104Q101 -104 102 -108Q103 -108 104 -112Q109 -118 109 -124V-125L108 -128Q112 -129 112 -130V-131L99 -126L89 -121L77 -111H74Q72 -111 69 -116V-121Q71 -133 72 -135L71 -140L72 -143Q67 -151 66 -157Q67 -160 68 -160Q70 -158 76 -158Q76 -157 86 -154Q91 -150 91 -147L90 -146L91 -145L90 -139V-135Q93 -135 98 -137L109 -140H112H113V-143V-144V-146V-147V-150Q114 -152 114 -160L113 -165L114 -168L113 -172V-175V-177L112 -183Q107 -185 107 -188V-189Q109 -191 109 -193ZM131 -82H133H137Q140 -81 143 -77Q143 -72 131 -69Q127 -65 124 -65Q120 -62 119 -62Q111 -65 106 -71Q106 -72 118 -77L122 -78Q122 -80 126 -80ZM130 -56H131Q139 -51 144 -51Q145 -47 145 -45L144 -43L145 -41Q143 -34 142 -21Q141 -19 140 -12Q139 -12 138 -2V-1V0Q132 16 131 16Q125 22 122 22V20V17V16L119 7Q117 6 117 4V3H120L123 4L126 -3V-5Q126 -13 127 -14L126 -15L128 -35L127 -37L128 -39V-40Q126 -40 122 -38L110 -32Q108 -32 105 -28H104H102L99 -27Q97 -28 94 -29L85 -36L87 -38H91L97 -39H99Q99 -41 108 -42Q110 -44 115 -44Q124 -47 124 -51Q125 -51 130 -56Z"/>
</svg>