<svg xmlns="http://www.w3.org/2000/svg" viewBox="0 -256 256 256">
	<path fill="#000000" d="M128 -211H134Q149 -209 149 -207Q155 -205 157 -203V-199Q155 -197 155 -196L157 -195L172 -200H181Q190 -200 190 -195V-194Q190 -190 187 -190L186 -189H168Q167 -188 163 -188Q163 -187 155 -186Q155 -185 152 -185V-182L148 -176Q149 -176 149 -174Q151 -174 154 -171Q165 -174 165 -175Q165 -177 172 -179L175 -176Q175 -173 178 -173L182 -169V-165L174 -155Q170 -149 168 -148Q168 -145 160 -139H158L157 -140V-144H155Q149 -140 140 -137Q140 -135 134 -134Q134 -133 131 -133Q131 -132 129 -132H127Q127 -129 118 -128L112 -126Q107 -129 105 -129Q104 -126 103 -122Q102 -122 100 -112Q97 -109 86 -91Q70 -75 64 -72H63H62V-74Q68 -77 72 -83Q76 -83 85 -100Q86 -108 90 -117Q90 -121 94 -133V-142L95 -149V-150Q95 -158 91 -158Q91 -164 86 -170Q86 -171 84 -172V-173Q88 -174 88 -176Q106 -179 113 -182Q113 -183 123 -185Q132 -188 133 -189Q132 -192 130 -195Q127 -205 125 -207V-209Q126 -211 128 -211ZM96 -162Q98 -162 104 -157Q109 -155 109 -153V-151V-149V-148Q109 -139 107 -138L106 -134H108Q111 -134 121 -136Q121 -137 122 -137V-152H120L118 -151H117Q116 -153 112 -153H111V-154Q111 -156 119 -159L120 -162V-163Q120 -167 118 -170Q120 -171 122 -171H124Q125 -171 130 -165L131 -164H132Q141 -167 141 -168V-172H136L135 -174V-176L132 -178Q122 -177 122 -176Q122 -174 121 -174Q121 -173 114 -172Q107 -169 104 -166L99 -165Q96 -165 96 -162ZM146 -148V-145H147Q149 -146 155 -149Q157 -150 158 -156H159V-165H158Q150 -165 147 -149ZM132 -154L133 -152L132 -141V-140Q141 -143 141 -144L140 -149V-159Q138 -159 136 -157Q134 -157 133 -154ZM152 -139Q155 -139 160 -136L161 -134V-129H163Q166 -129 168 -132Q169 -132 174 -135H176Q178 -134 179 -133V-131Q174 -124 167 -124Q167 -122 162 -122Q162 -121 160 -120L161 -119V-118Q159 -113 159 -109L161 -108H162Q169 -111 173 -111L174 -112L177 -111Q179 -113 181 -113H184Q188 -109 188 -107Q187 -103 181 -103H179L175 -102V-103L167 -102H164L162 -101H161Q152 -104 152 -109V-117L150 -122L151 -124V-126L149 -135V-137Q149 -139 152 -139ZM136 -129H137Q140 -126 141 -126V-124Q138 -120 132 -120Q131 -117 126 -117Q120 -115 120 -114V-105L119 -104L120 -101H121L123 -103H124Q127 -105 135 -109Q135 -110 138 -110L140 -113H142L143 -112V-111Q130 -101 129 -99Q127 -99 124 -95Q122 -95 118 -90L113 -88L108 -93Q110 -94 110 -103Q110 -108 109 -115L107 -122L109 -124L116 -120L119 -119Q122 -119 127 -123L132 -126H134L133 -127ZM197 -99Q199 -99 202 -96V-95Q202 -93 189 -92Q189 -91 186 -91H185L181 -90H179Q174 -86 170 -86L169 -85V-83L166 -80H165L162 -82H161Q159 -82 156 -80Q149 -80 149 -77Q154 -76 154 -73L151 -68V-67H152Q154 -67 157 -70V-72V-73L156 -76L157 -77H158Q160 -77 164 -71H165Q166 -72 170 -74L171 -77L170 -79V-81L172 -83H173L180 -77H181Q190 -81 195 -81Q195 -79 203 -76V-74Q203 -70 197 -65L191 -57V-56H192L195 -57L196 -55Q196 -50 186 -49L185 -48L183 -49L181 -48Q181 -45 185 -44L189 -40L188 -34V-33H189L200 -37H202H204Q207 -37 207 -34Q207 -32 198 -31Q198 -30 191 -29L187 -27L188 -17V-16Q191 -10 195 -10H196L201 -11L207 -10L210 -11H214V-10L217 -11H219Q223 -11 224 -4Q222 3 216 3L210 2L205 3L194 0L189 1L182 -5Q182 -6 180 -8L178 -14V-15L177 -29L178 -41L176 -42L177 -44L176 -45H175L166 -41H164Q158 -37 156 -37H155Q149 -41 147 -41L145 -38V-36Q141 -18 136 -12Q132 -2 119 12L118 11V10Q132 -8 132 -16L134 -23Q137 -29 137 -33Q138 -34 140 -48L139 -50L140 -51V-53L141 -55L140 -56L141 -58L140 -60L141 -64V-65L140 -68L141 -75Q140 -78 137 -81L136 -83L138 -84H139L140 -83Q149 -84 154 -88H155H157Q158 -88 159 -90Q159 -91 154 -96L153 -98L154 -99H157L168 -96L172 -95L173 -94H174L176 -95L177 -94Q181 -95 184 -97H189Q189 -99 197 -99ZM92 -94Q94 -93 95 -92H96Q105 -91 105 -90V-88L104 -85V-82L113 -85H116Q116 -87 118 -87L119 -86L124 -90L127 -89L129 -90Q129 -88 132 -88L134 -86V-85Q134 -83 129 -82H127L126 -83L122 -81H121L119 -82Q119 -81 106 -78Q106 -77 102 -76Q102 -74 95 -72L93 -73Q92 -71 81 -66Q73 -63 73 -62Q76 -62 81 -56Q81 -54 82 -54L90 -56V-60L89 -68H90H91Q94 -64 95 -64L98 -60H99L103 -63V-65L104 -69L103 -73H104Q107 -73 110 -69V-68Q110 -67 108 -67V-66L109 -64H110Q117 -70 120 -70L123 -72H125Q127 -70 131 -68L133 -66Q131 -61 126 -57Q126 -55 122 -52Q122 -51 121 -49L123 -47Q123 -44 119 -44Q110 -42 109 -41H108Q108 -40 102 -40Q98 -35 92 -35Q92 -33 85 -32Q84 -29 78 -29L76 -31H75Q73 -31 72 -21Q70 -20 65 -7Q64 -7 60 2Q55 11 42 27Q42 28 34 35Q32 34 32 33Q50 14 53 0Q54 0 55 -4Q58 -8 59 -13L62 -23Q64 -23 64 -28Q65 -28 68 -40V-47L69 -50V-52V-59H68V-60L64 -58L59 -63Q58 -63 57 -66Q57 -67 66 -70Q68 -71 76 -72Q77 -74 92 -79Q95 -79 95 -81Q95 -85 90 -92Q90 -93 92 -94ZM177 -69Q177 -60 174 -52Q185 -53 185 -56Q188 -70 190 -74L188 -75Q186 -73 180 -72Q180 -71 177 -70ZM163 -65L164 -57L163 -55L164 -49V-48Q167 -49 170 -51L169 -54L170 -59V-63V-67L169 -68H168ZM150 -63V-58L147 -46V-43Q150 -43 157 -45H159V-47Q159 -52 157 -63H155L154 -62H153L150 -63ZM109 -59V-57Q109 -48 107 -48L108 -45Q115 -46 115 -49Q115 -52 116 -53V-54L118 -62Q112 -61 109 -59ZM96 -51L97 -50Q96 -42 94 -42V-41H95Q103 -43 103 -45L102 -48Q103 -49 104 -56L103 -58H102L96 -53ZM75 -35V-34L76 -33Q79 -33 82 -36Q84 -36 89 -38L88 -41L90 -47Q90 -52 89 -52L83 -50L82 -52Q79 -47 79 -45L76 -37Q76 -36 75 -35ZM106 -37Q109 -34 113 -32V-30H115Q121 -34 122 -34V-33Q125 -35 126 -35H127L128 -34V-33Q128 -28 121 -27Q118 -24 115 -24Q114 -23 113 -21V-20V-16Q112 -5 111 -5V-4H112L124 -17H125L126 -16V-15Q120 -7 114 6L110 10H108Q107 10 106 6L105 5L106 -3L105 -7L106 -8L105 -14L106 -16L104 -36V-37ZM168 -32Q172 -32 172 -29Q172 -26 166 -25L162 -23Q160 -20 154 -18V-16V-14Q154 -13 154 -9V-8Q158 -13 160 -13L170 -19H172L173 -18Q168 -14 163 -8Q162 -8 160 -2Q158 -2 150 8H149Q147 8 142 4V3Q147 0 149 -15V-16V-19L150 -23V-30L151 -31H152Q156 -29 156 -28L155 -27H157Q158 -28 161 -28Q163 -31 168 -32ZM97 -26H100Q103 -25 103 -23Q99 -17 95 -17Q95 -16 91 -16Q90 -14 88 -14V-10L87 -8L88 -6L87 0H88H89L99 -7L100 -5Q85 13 85 17H82L78 11L79 9V3V-1L78 -8L79 -9L78 -14V-16L77 -19V-23H78Q80 -23 85 -20H86Z"/>
</svg>