<svg xmlns="http://www.w3.org/2000/svg" viewBox="0 -256 256 256">
	<path fill="#000000" d="M118 -179Q119 -179 129 -173Q138 -173 138 -167Q138 -163 133 -158Q129 -140 124 -125Q124 -118 121 -115L118 -103Q125 -100 133 -95V-94Q133 -91 129 -87L130 -86L129 -83L130 -82Q131 -83 136 -83L138 -84H139Q142 -84 142 -89L143 -90V-91L142 -93V-94L144 -99Q145 -99 146 -103L148 -106Q148 -107 146 -107L144 -108L139 -106L138 -105H137Q135 -105 134 -111Q130 -115 129 -118L132 -119Q134 -117 138 -117Q144 -117 147 -119L148 -118L150 -119H151L153 -126L152 -130Q154 -130 155 -137Q155 -138 150 -142Q150 -143 145 -149Q145 -150 141 -153V-154Q141 -155 147 -157Q147 -158 157 -159V-160Q159 -160 162 -162L172 -166Q183 -171 188 -173Q197 -169 198 -167V-165Q196 -158 189 -158Q189 -156 175 -151Q173 -149 166 -148L165 -146V-145Q165 -144 174 -141L175 -136Q172 -128 166 -122V-121H167L171 -122H173Q175 -122 182 -126H183Q189 -121 194 -120Q197 -118 198 -117V-114Q193 -107 192 -102Q189 -100 187 -96V-95H188H189Q193 -95 196 -98Q199 -98 200 -99H202L213 -95L216 -91Q216 -87 210 -86H205L192 -87L186 -85L184 -86Q170 -81 164 -81Q163 -80 161 -80H158L150 -77L149 -78Q145 -75 143 -75L141 -74L139 -75L134 -73H133L130 -76H129Q127 -76 126 -63Q125 -63 125 -59L126 -54L125 -47Q127 -34 133 -27Q135 -25 138 -25H139Q139 -23 152 -20H155Q160 -20 166 -18Q182 -16 182 -15Q185 -15 185 -16H190H193Q198 -16 202 -17L206 -16Q209 -18 209 -20L213 -29V-37L212 -39Q213 -41 214 -41Q216 -41 217 -27L220 -20Q225 -14 225 -13Q225 -5 218 -2Q217 0 215 1L180 2L179 3H178Q177 3 177 2L171 1H165H161H159Q159 0 140 -3Q135 -6 133 -9L126 -15Q123 -15 117 -30Q114 -38 114 -42L115 -45L114 -48V-56V-61L115 -67L114 -68Q108 -68 103 -65Q97 -65 95 -68V-69L107 -73Q107 -74 112 -75H113Q115 -75 115 -76V-77V-78L116 -86H114Q106 -83 98 -81Q98 -82 94 -84V-85Q94 -87 98 -87Q100 -89 107 -90L111 -91Q112 -93 114 -93H115V-95V-97V-99H114Q109 -95 108 -95Q106 -100 106 -104L103 -108L101 -107H97Q95 -106 93 -106L90 -105L89 -103L90 -100L88 -95Q93 -91 93 -89L90 -77L89 -75L90 -73V-71V-64L88 -58L89 -55L88 -54L89 -52L88 -50V-48V-46H90L105 -61H106L107 -60Q107 -58 101 -51L99 -47L95 -43Q89 -32 85 -20Q84 -15 81 -14H80Q74 -18 74 -27V-30Q80 -40 80 -53V-54L81 -61L80 -66V-68H79Q75 -64 71 -63L63 -60H62Q57 -62 57 -63Q63 -68 72 -70Q73 -72 76 -72L79 -70H80V-77V-78V-80L79 -81L76 -78H74V-79Q67 -75 63 -75Q58 -76 58 -77V-79L70 -84L77 -87L79 -86H80Q79 -91 76 -100H75L67 -97L64 -100H63Q63 -87 57 -83H56Q51 -86 51 -92L52 -94Q50 -96 49 -106Q48 -106 48 -113Q46 -113 44 -129Q42 -133 39 -139L35 -145L31 -151V-153Q31 -154 34 -155Q40 -155 52 -147H53L62 -155V-157H63H64Q64 -160 67 -167V-171V-174Q67 -176 71 -176Q73 -176 80 -168Q82 -168 87 -162Q87 -154 74 -153H72V-154L69 -150L68 -151Q68 -148 59 -144L58 -143V-142Q60 -141 60 -140V-137L58 -135Q59 -133 60 -130H61Q62 -132 76 -135H78Q81 -133 82 -133V-131Q81 -129 64 -124L60 -122L63 -106L64 -105L74 -107H77L81 -109H83H85H86Q86 -110 95 -112L96 -113H100Q101 -113 103 -115Q107 -115 107 -119Q108 -119 110 -135V-137H109L105 -135H104Q102 -134 98 -133Q98 -131 95 -131Q95 -130 94 -130L88 -135L93 -139Q93 -140 94 -140L95 -139L101 -140H103Q104 -140 107 -142L109 -141L110 -142V-149L109 -151L110 -153V-158V-159H109Q108 -158 104 -158Q102 -156 96 -156Q93 -158 93 -161Q90 -162 89 -162V-163Q89 -164 96 -166H99Q104 -170 109 -170Q112 -172 118 -179ZM169 -113L167 -114L164 -112H162L155 -101L154 -99V-97Q153 -96 153 -93L150 -92V-90L149 -87H151L155 -89H157L159 -88L167 -91L170 -90L174 -95V-100Q175 -100 175 -107V-113L174 -115H172Q171 -115 169 -113ZM40 -87H41Q43 -85 46 -85Q46 -82 51 -81Q51 -80 55 -79L58 -73V-72Q56 -71 56 -67V-66V-61V-57V-53V-51V-46V-39L75 -55H76V-54Q67 -42 65 -41Q62 -33 48 -14Q48 -13 44 -8Q43 -4 40 -4L37 -3Q36 -3 31 -8V-9Q32 -22 36 -22Q36 -23 40 -24Q42 -25 44 -32Q44 -41 46 -45L45 -52L46 -55L45 -57H46Q45 -59 43 -72Q42 -76 38 -80Q36 -81 36 -83Q36 -87 40 -87ZM184 -76Q185 -76 190 -72Q198 -68 198 -67L200 -63L189 -47Q189 -45 193 -41V-39Q191 -36 188 -36H187Q184 -36 184 -35L175 -36Q173 -34 169 -34Q169 -32 162 -32Q162 -31 160 -31Q157 -31 157 -25Q156 -25 153 -23Q149 -23 148 -27Q147 -27 144 -45Q144 -50 142 -58Q142 -63 139 -65V-66L141 -67H144H145Q145 -65 152 -63L164 -66L169 -67Q169 -68 175 -69Q175 -70 181 -73Q183 -76 184 -76ZM175 -64Q175 -62 162 -60Q158 -59 158 -56L157 -54L158 -48V-40L159 -39H160L171 -42L173 -41Q173 -42 177 -43Q177 -49 179 -54V-55V-63H178H176Z"/>
</svg>