<svg xmlns="http://www.w3.org/2000/svg" viewBox="0 -256 256 256">
	<path fill="#000000" d="M126 -200Q130 -198 133 -195L135 -196L139 -192L147 -189Q149 -189 150 -184Q150 -177 146 -175L143 -162H145Q146 -163 152 -164Q152 -165 157 -165L161 -166L162 -167H165L166 -172L165 -174L167 -178Q165 -180 165 -188Q169 -192 172 -192Q180 -185 182 -185L189 -181Q192 -177 192 -173L186 -167Q185 -164 181 -161Q179 -158 176 -157L177 -154Q175 -154 175 -152L174 -151V-149Q174 -148 170 -147Q170 -145 164 -143L162 -149V-151Q163 -158 165 -158V-159H164Q162 -157 155 -156Q155 -154 152 -154L150 -155Q150 -153 147 -153Q147 -152 142 -152L138 -151Q136 -149 136 -148H135V-147L132 -145Q132 -143 130 -142H127Q126 -142 125 -145L122 -146H121Q119 -144 110 -141Q106 -138 102 -138H101Q101 -135 96 -134Q96 -131 88 -130Q84 -131 84 -135V-140Q84 -147 87 -153L85 -154V-155L86 -156V-158Q86 -162 82 -166Q82 -169 88 -169L90 -170Q99 -165 101 -160L102 -157V-154V-153Q101 -150 100 -150L101 -149Q106 -152 112 -154H114Q118 -156 120 -156H121H122V-157V-158V-162L123 -175L122 -177V-180Q122 -186 117 -193L116 -194Q116 -198 125 -200ZM177 -147Q179 -147 188 -139V-136Q188 -133 179 -128Q179 -126 174 -123L179 -120L180 -118V-117Q180 -116 175 -115H174L173 -114H170L155 -110H154Q151 -110 150 -105L145 -104L141 -109V-114L142 -115Q140 -117 140 -126V-129Q138 -131 138 -132L139 -134L138 -136V-137V-138H139Q144 -137 147 -133L152 -134V-133Q155 -135 158 -135Q172 -143 177 -147ZM119 -137H120Q121 -136 121 -135Q127 -134 127 -131Q130 -129 130 -126Q127 -120 123 -120Q121 -119 120 -116L118 -114Q119 -112 122 -109V-107V-106Q122 -105 116 -104Q116 -103 114 -103L113 -104L110 -102L108 -103Q106 -100 99 -98L95 -99Q93 -92 92 -92H91Q90 -92 90 -93L89 -95Q86 -95 84 -101Q84 -102 79 -112Q79 -113 75 -117Q73 -122 73 -125L74 -126H75Q77 -124 85 -122L87 -120Q89 -122 91 -122Q93 -122 95 -124Q98 -126 102 -126Q104 -130 108 -130L111 -133H112H114Q114 -134 119 -137ZM162 -129L161 -130Q161 -128 153 -127L152 -125V-122V-119V-117V-114H153Q155 -116 159 -117Q159 -118 166 -121Q167 -123 167 -131H166ZM103 -120H101Q98 -116 95 -116H93V-110Q94 -106 96 -106H97Q98 -107 103 -108H105Q109 -114 109 -120L110 -122H109ZM173 -108Q184 -104 185 -103V-102Q185 -98 169 -96Q159 -95 159 -94H157L153 -93L150 -94V-93L148 -91H144Q144 -90 141 -90H138Q136 -88 133 -88Q132 -86 126 -85Q126 -84 121 -84Q120 -82 116 -81V-80L114 -81H112L110 -79H108L105 -77H102Q99 -77 98 -81Q97 -81 93 -85V-86Q93 -87 107 -90H111Q113 -92 120 -92Q120 -94 127 -95Q129 -97 140 -99H143H144L154 -102Q155 -103 165 -106L167 -107H168ZM80 -92H82Q86 -92 86 -86Q88 -85 90 -81Q92 -81 93 -79V-75Q93 -72 87 -62Q86 -62 85 -56L82 -55Q82 -52 80 -49Q80 -45 76 -44Q76 -41 74 -40Q72 -33 68 -33V-31Q66 -29 66 -27Q65 -26 57 -17Q55 -17 54 -13Q53 -13 44 -2L29 12L14 21L12 20Q18 15 21 14L31 5Q48 -12 52 -22Q53 -22 53 -26Q54 -26 59 -35Q64 -40 64 -42Q66 -48 69 -52Q70 -53 70 -60Q73 -62 75 -75L77 -80Q76 -84 73 -86V-87Q73 -92 80 -92ZM155 -90H156Q163 -86 168 -83L170 -77Q165 -76 165 -74L161 -69L159 -70V-69L160 -67Q160 -66 158 -66L157 -65Q157 -64 159 -64Q164 -65 166 -68Q170 -68 173 -72Q175 -72 184 -77H187H188L194 -74Q197 -73 197 -71Q197 -66 188 -64L180 -62Q175 -58 173 -58Q168 -58 168 -57V-56L170 -57Q178 -51 178 -50Q173 -39 168 -32V-31Q172 -31 180 -23Q185 -23 188 -20Q196 -17 200 -14Q204 -13 206 -11Q215 -9 215 -8Q218 -8 230 -2Q233 -2 234 0Q243 2 243 3Q243 4 242 4H239L225 7L215 11Q212 13 209 13L208 15H207Q200 13 200 11Q199 11 186 2Q185 2 179 -5Q178 -5 167 -14Q164 -15 161 -19L157 -15Q156 -15 149 -9Q144 -5 143 -5Q141 -5 135 -1Q133 -1 131 0H130L129 -1L139 -9Q152 -18 152 -24Q154 -24 154 -27L147 -36Q145 -36 143 -41Q141 -41 141 -42Q142 -45 147 -47Q149 -45 155 -44Q158 -40 161 -40Q163 -41 163 -46L165 -51Q165 -54 162 -54Q161 -57 157 -59L155 -61Q154 -61 151 -58Q150 -58 147 -54Q145 -54 138 -46Q136 -46 134 -43H132L131 -44Q134 -48 137 -50Q142 -55 142 -58Q148 -66 151 -82L149 -86V-87Q152 -90 155 -90ZM126 -79Q133 -74 133 -72Q132 -70 129 -67Q129 -65 120 -59V-58Q125 -58 126 -60Q130 -60 132 -62H133L139 -58V-55Q139 -54 130 -54L129 -52H125V-50L127 -49Q129 -48 129 -47V-46Q129 -45 127 -45L126 -44L129 -42Q127 -38 126 -36L127 -35L126 -33V-31V-29V-25V-22L127 -21Q129 -23 131 -23Q131 -24 137 -25Q138 -27 140 -27H141L142 -26V-25Q142 -23 134 -20Q129 -16 125 -16L126 -14L125 -13L126 -9V-5Q126 -3 125 -3V-2L124 3L125 5L124 8V9V10V13Q122 22 118 23L117 24H116Q115 24 113 13V12V9L114 6L113 4Q114 4 115 3L113 0L115 -5L114 -8L115 -11V-12H114Q110 -7 108 -7L107 -8Q106 -5 103 -5Q102 -5 99 -2H97Q95 1 88 3Q85 6 83 6H81Q76 2 76 -1Q79 -1 84 -4Q86 -4 88 -5H89H90L89 -8L90 -17V-18V-23V-27V-29V-30V-32V-37V-41H91H93Q97 -39 98 -39V-36V-35H99Q103 -40 109 -42Q112 -42 113 -40V-38Q113 -37 109 -36V-37Q109 -34 99 -30L98 -28L99 -25H101Q102 -25 107 -28H110Q111 -28 112 -25Q110 -23 101 -19Q98 -16 98 -15V-11Q98 -10 100 -10Q106 -14 115 -16L114 -22L115 -27H114L115 -28L114 -31L115 -35L114 -37L116 -38Q114 -42 114 -46V-49H112L111 -48H110L108 -49H107Q107 -46 93 -43H91L87 -40H86Q83 -41 81 -44V-45Q82 -45 88 -48L89 -47L91 -49L94 -48Q96 -51 102 -51L107 -54L108 -53L111 -63H110L106 -60H105L103 -59H102Q95 -65 95 -67L108 -72Q112 -72 116 -75Q118 -75 122 -79Z"/>
</svg>