<svg xmlns="http://www.w3.org/2000/svg" viewBox="0 -256 256 256">
	<path fill="#000000" d="M195 -181H198L201 -176Q204 -173 216 -168V-162Q216 -158 211 -149V-133V-131L210 -127L211 -124V-123H210L211 -120V-110V-107V-105V-99L210 -97Q211 -90 211 -80V-77V-72V-70L210 -59Q211 -56 211 -55V-44L212 -39L211 -36L212 -34Q210 -19 208 -19Q208 -12 193 3Q193 4 191 5H190L189 3V-4Q189 -5 184 -13Q184 -14 181 -18Q181 -21 178 -21L177 -23L178 -25Q182 -25 188 -21H189V-24L191 -25L190 -30L192 -40L191 -42L193 -45V-46L192 -49V-52V-57L193 -62H192V-64L193 -71L191 -76L193 -78L192 -80L193 -86V-92V-94V-95V-98V-99V-100V-103V-105V-108V-112V-114V-115L192 -117L193 -126L191 -129L192 -130V-132V-135L191 -136V-137L192 -141L191 -149V-151V-157V-158V-162V-163L192 -166H191V-167H190Q188 -165 184 -164H183L181 -165Q181 -162 172 -162Q171 -160 166 -158Q166 -157 155 -154Q155 -153 152 -153Q152 -152 146 -151H145Q142 -154 142 -157Q141 -157 138 -160V-161Q138 -162 150 -165L164 -168Q165 -169 171 -170Q171 -171 175 -171Q175 -172 182 -173Q182 -174 191 -179Q193 -181 195 -181ZM94 -173H96H98Q105 -165 109 -165Q117 -159 121 -156V-149Q117 -146 110 -140Q103 -135 103 -133L97 -128Q97 -126 90 -121Q90 -119 87 -118Q87 -117 98 -109L100 -105V-104Q99 -101 99 -98V-97V-95V-94V-92V-89V-75L98 -72L99 -71L98 -68L99 -66H98L99 -49V-44V-36L98 -31L99 -20L96 -13Q95 -13 92 -7L87 -4H86Q85 -4 83 -7V-8Q83 -15 79 -25V-26Q79 -27 81 -30Q80 -32 80 -34L81 -45V-51L83 -55V-72V-74V-77V-87Q83 -89 84 -89V-91V-95L83 -97V-108V-113H82L72 -104Q68 -99 65 -99Q57 -89 48 -82Q43 -79 41 -79L40 -80V-81Q47 -86 47 -87Q48 -87 53 -95Q58 -98 59 -105Q65 -110 71 -121Q74 -125 74 -128Q76 -129 78 -134Q84 -140 85 -146Q86 -146 89 -153Q90 -153 91 -160L92 -161V-162L89 -167V-169ZM175 -140Q182 -138 184 -134Q181 -126 177 -126Q175 -126 171 -123L164 -121Q162 -121 160 -118Q150 -112 145 -111L143 -110Q141 -110 136 -116Q134 -118 126 -122V-123Q126 -124 133 -125Q135 -128 138 -128L139 -127L152 -133L171 -139ZM168 -108H169Q172 -104 182 -98Q182 -96 184 -95Q179 -89 176 -87Q176 -84 172 -81L168 -73Q175 -71 175 -70V-69Q175 -64 167 -64Q167 -63 154 -61Q144 -59 144 -58L142 -57L139 -58Q137 -50 134 -48H132Q131 -48 128 -54H129V-55L127 -61V-67L126 -71V-72L123 -81Q123 -84 120 -91V-93Q120 -94 121 -94Q126 -90 130 -89Q131 -90 133 -90Q139 -93 145 -95Q145 -96 147 -96H149Q152 -99 162 -102Q164 -108 168 -108ZM153 -88H152L151 -89Q148 -86 141 -85Q141 -84 138 -84L139 -79L138 -77L139 -75V-67Q139 -65 143 -65Q145 -68 148 -68H149V-67L153 -70Q155 -70 155 -71V-77L156 -79V-82L157 -84L156 -86L157 -90H156Q154 -90 153 -88Z"/>
</svg>