<svg xmlns="http://www.w3.org/2000/svg" viewBox="0 -256 256 256">
	<path fill="#000000" d="M175 -189H177L183 -186L188 -187Q189 -185 190 -185H191Q196 -183 196 -179V-178L197 -174Q197 -169 185 -161Q185 -160 182 -160Q182 -158 176 -150L181 -145V-144Q181 -142 178 -140L176 -142Q176 -140 171 -139V-138H170V-139L167 -138H162V-137H161H158Q157 -135 153 -134V-131Q151 -131 151 -127L152 -122V-121L153 -120L166 -121L167 -120Q167 -121 170 -122L174 -121L176 -122H179L183 -123Q185 -123 187 -119Q187 -111 167 -111L155 -112H150Q143 -112 140 -124V-125L141 -128L140 -130V-134Q139 -135 139 -141Q138 -141 137 -149Q136 -149 135 -153V-155Q136 -156 139 -156L146 -152L155 -147Q156 -144 157 -144H159Q161 -146 164 -147Q164 -151 166 -155V-161L167 -164V-167H166Q158 -162 152 -162Q150 -162 148 -165Q141 -168 138 -171Q138 -172 144 -174L147 -175Q147 -176 153 -177L158 -180L162 -181L165 -184L167 -183L168 -184Q169 -184 170 -186ZM101 -180L115 -176L119 -177L123 -171V-169Q123 -167 117 -160Q117 -158 110 -149Q110 -145 108 -145V-144L114 -138V-136L111 -133H108Q99 -130 97 -130Q96 -129 91 -128Q91 -127 88 -126V-125V-123Q87 -122 87 -112L90 -111Q93 -113 98 -113Q108 -117 112 -117Q112 -118 114 -118H115Q119 -118 121 -111Q121 -106 113 -106L107 -104H105L104 -105Q99 -103 94 -103H91L88 -102L79 -103Q76 -108 75 -121Q75 -125 70 -135L68 -137V-138Q68 -140 71 -144Q73 -144 78 -141Q87 -137 87 -136V-134H88L90 -137H91L94 -139L96 -138V-142L97 -144L96 -147L98 -153L97 -157L98 -159H97Q95 -157 90 -157V-156L89 -157L85 -155H83Q81 -155 77 -159Q72 -161 72 -162Q72 -167 76 -167L94 -172Q96 -176 99 -177Q100 -180 101 -180ZM145 -109H147L155 -105Q159 -103 164 -103Q167 -103 167 -98V-95H168L175 -96Q183 -93 183 -91Q183 -85 179 -85L176 -86Q171 -82 159 -82V-81L161 -79L156 -68Q154 -62 147 -53Q146 -51 144 -51V-50H147Q147 -53 156 -53H157L165 -55H168L178 -58H185L191 -60L193 -59Q201 -60 202 -62H204Q210 -59 221 -55Q223 -55 228 -50V-48Q227 -43 224 -43L219 -41L209 -45L188 -47L183 -46Q181 -46 180 -49L178 -47H177H174H167H164H163L161 -46L158 -48Q157 -46 150 -45L148 -46Q147 -45 145 -45H144H143Q143 -44 126 -42H122L120 -41H117L116 -42Q116 -40 105 -39Q105 -38 95 -36L86 -35H85L79 -32H78Q72 -32 56 -26Q50 -24 47 -23Q43 -20 37 -20Q36 -20 32 -28Q29 -28 27 -31Q27 -32 47 -35Q51 -35 56 -37H59L62 -38L63 -37L68 -39H76L81 -41Q87 -41 91 -43L94 -41Q94 -44 102 -45L103 -46L102 -48V-50L103 -51Q99 -57 99 -67H98H97Q93 -63 88 -63L87 -61H84Q83 -61 82 -65Q79 -67 76 -67V-68V-69Q76 -70 79 -72H82L95 -75H96L98 -74V-75Q96 -80 96 -84V-85Q95 -85 92 -92Q90 -94 90 -96L91 -98H94Q94 -96 104 -94L108 -91V-92H110Q116 -90 116 -87Q116 -84 112 -83V-82L113 -81H116H118Q119 -82 131 -85L145 -88V-89V-92V-93V-95L143 -104Q144 -109 145 -109ZM115 -72L116 -52V-49Q116 -46 123 -46Q125 -48 133 -49H135H138Q138 -51 140 -51V-52L139 -53Q140 -64 142 -70V-74Q144 -76 144 -78V-80H141Q126 -75 115 -73ZM105 -32H107Q108 -31 114 -27L123 -22V-21Q122 -18 109 -10Q102 -4 95 -1Q95 0 86 4Q81 7 71 11Q65 14 61 14L60 13Q60 11 69 9L81 0Q90 -7 92 -9Q93 -9 94 -13L97 -16H98L99 -15V-16V-18Q100 -21 102 -21V-23L103 -27Q101 -28 101 -30ZM156 -32Q160 -30 168 -30Q169 -27 177 -26Q184 -19 187 -18Q187 -14 189 -13Q190 -13 191 -5L192 -3Q190 9 185 10L181 12Q176 10 172 0Q166 -11 166 -13Q164 -13 163 -18Q161 -19 161 -22V-24Q160 -24 156 -28Q154 -28 154 -31Z"/>
</svg>