<svg xmlns="http://www.w3.org/2000/svg" viewBox="0 -256 256 256">
	<path fill="#000000" d="M159 -183H164H166Q168 -179 170 -179H171Q172 -178 180 -175Q180 -174 181 -174L182 -173V-172Q178 -162 178 -154Q177 -154 176 -149L177 -146L176 -144H177Q189 -146 189 -148H191Q203 -150 207 -152H209Q210 -152 220 -144Q222 -144 227 -140Q229 -140 232 -135Q228 -129 228 -128Q224 -123 222 -117Q221 -117 221 -113H220L219 -108Q218 -108 215 -99Q214 -99 214 -95L213 -92Q212 -92 212 -88Q201 -75 195 -75H194Q192 -75 191 -83V-85L192 -86L191 -88Q177 -86 174 -85L176 -83V-82L175 -81L176 -78Q174 -78 174 -76V-75L175 -71V-69V-66L174 -58L175 -56V-52V-50L176 -45V-36V-34V-32V-29L175 -26L176 -19Q175 -17 174 -13V-11Q173 -9 172 -3Q170 4 166 7H165Q164 7 163 4L164 -4L163 -7L164 -10L163 -11L164 -15V-16Q162 -18 162 -22L163 -25L162 -26V-30L161 -32L162 -34L161 -40L162 -42L161 -43V-45L160 -49L161 -50Q160 -57 159 -61V-64V-70V-76V-77V-82L158 -83L140 -78Q133 -77 133 -72L131 -70H129Q128 -70 126 -78Q123 -79 123 -84Q123 -90 121 -95V-99Q119 -101 119 -106Q118 -106 118 -108L119 -111Q115 -113 115 -119Q114 -119 112 -126L110 -128V-133L111 -134Q113 -134 118 -131L119 -130Q130 -133 132 -133L146 -136V-137H147L150 -136L152 -138H154L159 -139H160L161 -144H160L161 -146L160 -149L161 -150Q160 -161 156 -175Q152 -175 152 -178ZM91 -180Q100 -169 104 -166L105 -167Q115 -162 115 -158V-155V-153Q114 -153 111 -149Q103 -144 88 -131Q79 -122 77 -122H75V-119Q78 -116 84 -113L90 -110Q93 -107 93 -104L92 -103V-102V-99V-93Q91 -92 90 -87L91 -86L90 -84L91 -81L90 -77L91 -75L90 -73V-69V-68L91 -65L90 -62L91 -60L90 -59L92 -53V-50L91 -49L92 -39V-35V-34Q89 -24 88 -24Q83 -18 79 -18Q77 -18 76 -32L73 -39V-40Q74 -40 75 -53V-54L76 -55H75V-56L76 -64V-67V-70Q76 -77 74 -78V-79Q76 -81 76 -82V-91L75 -94L76 -98L75 -103L76 -104Q74 -107 74 -109V-112L72 -117Q72 -116 59 -105Q56 -104 52 -99Q49 -98 46 -95Q29 -82 28 -82Q28 -81 25 -81L24 -82V-83Q37 -92 38 -94Q46 -102 49 -106Q51 -107 54 -113Q56 -113 58 -121Q61 -121 66 -129Q85 -162 85 -167L80 -171V-173Q85 -178 91 -180ZM196 -137L194 -138H193Q191 -136 186 -135H185L183 -136Q178 -134 175 -134V-133L176 -130L175 -125L176 -123H175Q176 -121 177 -121L179 -122H181L182 -123H183Q185 -123 191 -118V-117Q191 -114 186 -113H185H182L174 -111L175 -107L174 -104L175 -100V-98L174 -96L176 -95L179 -97H181H182L192 -99H194H195L194 -102Q196 -102 197 -111Q198 -111 199 -118L200 -120V-121Q200 -128 201 -131V-133V-137V-139H200Q199 -138 196 -138ZM152 -129H150Q147 -128 147 -127L145 -128L143 -127H142L129 -123V-122Q129 -121 132 -120L133 -116V-114L134 -109L135 -107L134 -105L135 -104V-100L134 -97Q135 -95 135 -89V-88V-87Q135 -86 137 -86Q140 -88 147 -88Q147 -89 150 -90L154 -89Q154 -91 159 -91H160V-92L159 -95V-96V-97L160 -99Q159 -101 159 -103L160 -105V-107L159 -108Q159 -106 148 -103L147 -102H146L137 -108V-109Q141 -112 150 -112Q150 -113 157 -115L159 -116V-115L160 -117V-121V-124V-126L159 -130H157Z"/>
</svg>