<svg xmlns="http://www.w3.org/2000/svg" viewBox="0 -256 256 256">
	<path fill="#000000" d="M173 -194H174Q180 -187 190 -183L192 -180V-176Q184 -167 184 -164L178 -149Q175 -144 171 -133Q170 -133 166 -128L162 -126L160 -134L161 -136L159 -137V-138Q159 -140 161 -141V-143V-145L162 -148L161 -151L163 -152V-154L164 -161V-165Q165 -167 166 -171L165 -173V-175L166 -177L165 -179L161 -176H160V-177H159Q159 -176 153 -175Q153 -174 148 -173L147 -172H144Q140 -172 134 -168L132 -167L133 -166L132 -159H133V-158L132 -157V-156L133 -155Q140 -155 144 -159H146H147Q147 -160 150 -161Q155 -160 155 -157V-156Q155 -154 153 -153H152Q146 -152 143 -149H140H139Q135 -151 133 -151L132 -150V-149V-146V-139V-137V-135V-134H133Q136 -134 149 -138H150Q150 -139 152 -140Q157 -140 157 -135Q157 -133 151 -132Q151 -131 145 -131L144 -129H143L142 -130V-129Q142 -128 140 -127Q134 -131 133 -131L131 -130L132 -127V-126Q132 -122 127 -117H126Q120 -122 120 -129L121 -130Q120 -135 118 -137L119 -141Q118 -142 117 -149Q116 -156 111 -168L109 -173L108 -176Q109 -179 110 -179H111Q112 -177 118 -176L120 -175L129 -176H130L147 -182Q159 -184 164 -187Q171 -194 173 -194ZM55 -177H58Q62 -171 68 -171Q74 -169 74 -162V-161L71 -158Q71 -153 70 -153V-152L69 -143Q69 -142 71 -141Q79 -146 85 -153H87Q91 -147 98 -147Q102 -144 102 -140V-138Q98 -135 98 -128L94 -119L95 -116L94 -114L95 -111Q94 -108 94 -107V-106V-105L90 -83L85 -77Q82 -75 81 -75Q78 -78 78 -82Q77 -82 76 -89Q71 -94 69 -95H68V-93V-88L67 -86V-83V-82V-81V-80L68 -78V-77H67L68 -70V-65Q68 -62 67 -59V-58L66 -56L68 -54V-51V-46V-45V-44Q69 -44 69 -42L68 -39Q69 -39 70 -37L69 -36L70 -14L69 -3L70 -1V0Q70 1 65 9Q65 13 58 14Q56 14 55 9Q54 9 53 1V-6L54 -11L53 -14L55 -20L54 -22L56 -37V-40V-52V-54L55 -58L56 -59V-63V-69V-71V-76V-84L57 -88L56 -92L57 -98L56 -101V-103V-104V-110V-114V-118V-122V-123V-125V-126Q54 -126 49 -124Q48 -124 45 -120L46 -114L45 -103V-97V-96L44 -93L45 -92Q44 -83 44 -82V-79V-78Q44 -65 37 -60Q33 -60 31 -68H30V-75L31 -76V-77L30 -78L31 -80L30 -82V-85Q29 -96 28 -98V-100Q27 -113 26 -113Q26 -117 24 -118V-119L25 -122Q19 -122 19 -124L17 -127Q22 -135 26 -137Q27 -137 33 -130L40 -126Q48 -132 54 -135L56 -136V-138V-141V-142L57 -149L56 -151V-157L57 -158Q56 -161 49 -168V-169Q49 -171 55 -177ZM70 -131L68 -133L67 -132Q68 -130 68 -128V-127L69 -125L67 -123L68 -118L67 -115L68 -113L67 -103Q67 -98 70 -98Q73 -98 73 -97L75 -98H76L77 -97H78V-99Q78 -102 79 -102V-104V-109Q79 -112 80 -112L79 -113L80 -124V-126V-130V-134H79H78L76 -135Q72 -131 70 -131ZM182 -129Q186 -127 192 -123Q197 -122 199 -117L200 -116V-111L194 -105Q193 -104 187 -96Q185 -96 184 -95Q184 -94 188 -93L189 -90Q188 -84 185 -82H182L180 -83H178L176 -82L174 -83L173 -82H172L170 -84L168 -82H167L161 -81Q161 -80 159 -80L156 -81Q152 -81 145 -78Q139 -78 137 -77H136H135H134Q133 -76 128 -76Q128 -74 122 -74Q121 -74 114 -64H112Q108 -70 108 -72L109 -74H108Q107 -75 107 -77V-81Q105 -81 105 -88Q103 -88 101 -98L99 -100Q99 -103 96 -107V-109Q96 -112 98 -112Q102 -112 110 -105H111Q112 -107 120 -108L124 -109Q124 -111 126 -111L130 -110Q132 -112 139 -115L140 -114L143 -116H145H146Q146 -117 159 -120Q159 -121 161 -121L176 -126Q176 -127 182 -128ZM164 -112L161 -113L160 -112Q162 -112 162 -108Q164 -108 164 -103Q162 -103 161 -97L159 -91V-90L161 -89L166 -91H168L171 -92L170 -95Q173 -100 173 -108Q174 -108 175 -113L174 -114H172L170 -113L169 -114H168Q165 -112 164 -112ZM146 -108H144Q136 -106 134 -105H132L131 -106L130 -104Q131 -104 136 -98V-97L135 -92Q136 -92 137 -86L136 -85L139 -84L144 -86L148 -84Q149 -97 150 -97V-99L152 -104L150 -109H149ZM117 -100L119 -96L118 -93Q119 -81 121 -81V-80L127 -81V-82L128 -93Q126 -97 126 -100L127 -103H126L120 -101ZM165 -79H168Q169 -77 175 -74Q179 -69 179 -67Q179 -66 173 -60Q173 -59 170 -56Q170 -54 165 -48L163 -43Q160 -41 160 -35L167 -28Q167 -27 173 -23Q188 -14 189 -14Q190 -12 197 -9Q197 -8 207 -5Q211 -2 218 0Q220 1 228 3L238 7Q238 8 236 8H235L232 9L229 8Q224 10 215 11Q215 12 206 13L193 18Q188 18 171 3L156 -11Q156 -12 148 -17Q147 -20 146 -20H145Q145 -18 140 -18Q139 -12 136 -12Q136 -10 130 -8Q130 -7 125 -6Q125 -4 116 -2Q109 3 105 3Q102 6 89 9L80 12Q77 12 77 11Q78 9 87 6Q87 5 90 5Q91 3 99 1Q106 -3 110 -5Q119 -11 122 -13Q125 -13 130 -22Q139 -30 139 -31Q133 -34 132 -40Q130 -41 129 -45Q125 -50 121 -57Q116 -57 116 -63Q121 -66 123 -66L130 -63L135 -65H139Q149 -70 155 -70Q155 -71 157 -72L159 -71Q159 -74 165 -79ZM139 -54Q139 -53 143 -52Q143 -50 147 -47V-46H148Q150 -47 153 -54L152 -55L155 -57Q155 -59 152 -59Q139 -56 139 -54Z"/>
</svg>