<svg xmlns="http://www.w3.org/2000/svg" viewBox="0 -256 256 256">
	<path fill="#000000" d="M154 -196Q157 -192 161 -192Q162 -192 166 -190H167Q172 -190 176 -186Q179 -186 179 -183Q179 -179 177 -179V-176V-173V-172L178 -171Q182 -175 185 -175Q185 -176 189 -177Q197 -177 199 -173V-171Q199 -166 190 -164L187 -165Q185 -163 173 -160L170 -161V-160L178 -155L179 -154H181Q185 -153 186 -151Q186 -142 182 -142Q182 -141 177 -137Q177 -134 173 -132L171 -131V-129L194 -134Q195 -135 199 -135Q200 -136 208 -138L213 -141Q227 -138 227 -131Q226 -126 220 -126H217L212 -127H198Q196 -127 195 -126H194L192 -127Q190 -125 188 -125H187V-126L186 -125H180L162 -119H161L158 -120L157 -117L160 -115H161L162 -116Q172 -113 172 -109L171 -108L172 -104Q175 -106 185 -110Q186 -115 190 -115H191Q198 -109 200 -109H203L204 -108V-109H205Q208 -105 208 -102Q208 -96 204 -94Q201 -88 198 -78Q195 -72 194 -70Q194 -65 190 -61Q187 -55 187 -54Q186 -54 185 -51Q183 -51 179 -46H177L174 -56H172H168Q168 -53 168 -51V-50L167 -46V-45L168 -39L167 -35L168 -34Q172 -37 176 -38L177 -39H178Q178 -38 185 -37Q188 -34 188 -32Q185 -27 179 -27Q179 -26 174 -25Q174 -24 171 -24V-23Q168 -23 168 -22V-17L166 -16Q167 -15 168 -9L167 -5V-4Q173 -4 180 -6H185Q189 -8 196 -9Q204 -11 208 -11L223 -7Q226 -3 226 -1Q225 7 221 7Q221 8 219 8H216H215L200 5L197 6L195 5L192 6L190 4V5H189L183 4L172 5L170 4Q170 6 168 6L165 5Q165 6 163 6H161Q151 7 151 8H150L136 10H135Q133 11 126 13L118 16Q118 17 109 20Q106 15 97 9Q97 6 99 6Q107 6 125 2H127Q132 2 145 0H147Q153 0 153 -3L154 -8L153 -13L154 -14V-17H153L147 -14Q145 -14 134 -21Q134 -25 139 -25Q139 -26 144 -27V-26H145Q150 -28 154 -31L153 -36L154 -38L153 -41L154 -44L153 -46L154 -49Q153 -51 152 -51Q150 -50 147 -50L141 -47H139L137 -48H136L137 -45V-44Q134 -40 132 -39Q127 -44 127 -49Q126 -49 126 -52L127 -53L125 -55L127 -57Q124 -57 123 -69L122 -71V-72L123 -74L122 -77V-80Q120 -86 118 -86L116 -89V-90Q116 -93 118 -93Q120 -93 125 -89L139 -94Q150 -98 151 -99V-100Q149 -108 148 -108L147 -109V-110L150 -113Q150 -114 145 -115Q144 -113 134 -110Q124 -104 117 -102Q117 -99 115 -99H114Q111 -101 105 -107Q104 -90 103 -88Q101 -82 97 -79Q96 -73 90 -68H89Q86 -70 86 -75L87 -77Q85 -77 83 -83Q79 -90 78 -90V-89V-85V-81V-79V-71Q78 -63 79 -59L78 -56L79 -54L78 -50Q79 -48 80 -32L79 -27L81 -15V-11Q78 -1 78 2Q71 9 68 11H65Q64 11 63 6L64 3Q62 -6 60 -10V-11Q62 -18 62 -33Q64 -35 64 -49V-55V-60V-61V-63V-65V-67V-69L65 -73L64 -74V-77V-80V-84V-87V-90V-92V-95V-97V-99V-100V-106V-108V-112V-114L63 -120L64 -123L62 -126H61Q58 -124 51 -121Q51 -116 50 -115V-91V-84V-81V-80V-78L51 -74Q48 -69 45 -66Q45 -64 42 -63Q38 -63 37 -84Q35 -92 35 -101Q33 -101 33 -113Q32 -113 32 -121Q31 -121 29 -127Q28 -127 28 -131L31 -133H32Q39 -126 41 -126Q53 -130 59 -133L60 -134H62Q62 -138 63 -142Q62 -143 61 -151L56 -157Q61 -164 64 -166H65Q70 -162 75 -162Q78 -159 83 -158L85 -154V-152Q81 -146 81 -142L83 -141Q85 -141 96 -150L98 -151Q102 -147 113 -144Q115 -141 115 -139Q110 -133 108 -121Q106 -118 105 -113L104 -112V-111H106L117 -114Q120 -114 130 -118L132 -117L138 -120L140 -121V-122V-123L138 -126V-136Q136 -136 136 -140L135 -142V-146L136 -147Q140 -147 144 -142Q146 -142 149 -139Q150 -139 152 -134V-129Q150 -127 150 -126V-123L161 -126L163 -129V-132Q167 -142 167 -150V-154L166 -155H163Q161 -153 151 -151Q150 -150 142 -147H141Q133 -150 130 -155L128 -156V-157Q128 -158 131 -158L132 -157Q132 -159 142 -160Q142 -162 147 -162Q148 -163 151 -163L152 -164L151 -166L152 -168L150 -171L151 -174L148 -181Q142 -185 142 -186V-187Q145 -195 152 -195ZM79 -130Q79 -122 78 -120L79 -117L78 -114L79 -103L78 -95Q82 -90 86 -90Q88 -99 90 -115V-117V-127V-131Q90 -135 87 -135Q85 -133 82 -133Q79 -132 79 -130ZM178 -100Q178 -99 174 -99L169 -95V-92L168 -90Q168 -87 172 -87Q174 -87 177 -84V-83Q175 -81 174 -78Q168 -78 168 -77V-76V-74V-73V-72V-69Q167 -69 167 -67L168 -66H169Q171 -68 175 -68L178 -71V-74L180 -77L179 -79L180 -83V-86L181 -88V-90L180 -93L181 -94V-95L180 -97L181 -98Q180 -100 178 -100ZM136 -84V-83L137 -80L136 -77L137 -76V-75L136 -73Q137 -73 137 -67V-63L139 -61V-55L141 -54Q146 -59 152 -59L151 -64L153 -68Q152 -71 151 -71L149 -69L141 -74Q141 -77 145 -77Q152 -79 152 -81L151 -83L152 -89L147 -90Q144 -88 137 -86Q137 -84 136 -84Z"/>
</svg>