<svg xmlns="http://www.w3.org/2000/svg" viewBox="0 -256 256 256">
	<path fill="#000000" d="M157 -195H158L161 -194H164Q170 -192 170 -185Q170 -182 163 -179Q150 -172 147 -171L143 -169H140V-167Q147 -165 147 -163V-161Q145 -158 145 -156V-153Q145 -147 147 -147Q151 -147 154 -145Q164 -145 164 -144H167L173 -143H177L185 -138L188 -131Q186 -127 185 -127V-125Q180 -119 177 -119Q176 -122 171 -122Q171 -123 162 -129Q155 -137 152 -137Q151 -137 150 -140Q148 -140 146 -142Q143 -142 143 -125V-115Q143 -106 142 -104V-102L141 -99H142Q148 -101 160 -102L167 -104L170 -103Q173 -105 189 -108Q191 -109 199 -110Q205 -107 211 -106Q221 -99 222 -94V-93Q222 -89 212 -88Q204 -93 200 -93Q200 -94 197 -94H196L195 -93Q193 -94 189 -94H186L184 -95H179H178H176H175H170H169L148 -94Q146 -94 146 -95Q141 -92 141 -87L142 -85L141 -81Q142 -81 142 -79V-78V-75V-72L143 -63L142 -60L143 -57L142 -54V-51L141 -25V-23L139 -8L140 -7Q137 5 134 13Q132 19 131 19L129 18V17L127 -19Q126 -23 126 -37V-40Q125 -54 124 -54L125 -57L124 -59V-60V-63V-69V-71V-72V-76L123 -86L125 -89V-90L124 -91L114 -87L112 -86H110Q108 -86 91 -80V-81Q83 -77 78 -76Q78 -75 72 -74Q68 -71 64 -71Q60 -68 55 -66Q52 -65 52 -62H51H50Q49 -62 48 -65Q45 -65 43 -70Q38 -74 33 -76V-78L34 -79H38Q41 -79 47 -81L48 -80Q53 -81 55 -83L59 -82L65 -84L67 -83Q72 -86 77 -86H78Q82 -89 87 -89H88L89 -88L92 -90H93H97H99L101 -92Q106 -92 116 -95Q120 -95 121 -95H123H124V-112Q124 -132 123 -136L124 -138L123 -140L124 -144L122 -145Q123 -147 123 -152Q123 -153 122 -159Q113 -162 113 -165Q113 -166 103 -177L101 -178H100V-180Q100 -181 103 -181Q104 -182 110 -182L112 -184L114 -183Q116 -185 124 -187Q124 -188 131 -188H132Q137 -191 149 -192Q149 -193 153 -193L155 -194ZM97 -146H102L110 -142V-141H112Q119 -137 119 -135Q117 -127 112 -127Q110 -124 106 -122Q106 -121 102 -119V-118Q101 -118 96 -113Q95 -113 94 -111L88 -108Q85 -103 81 -102Q73 -95 69 -95H68L67 -96Q76 -103 76 -105Q78 -105 79 -109L83 -112L82 -113Q84 -115 89 -123Q94 -131 96 -138Q96 -141 94 -143V-144Z"/>
</svg>