<svg xmlns="http://www.w3.org/2000/svg" viewBox="0 -256 256 256">
	<path fill="#000000" d="M81 -173Q86 -169 94 -165H96Q102 -162 102 -161L103 -158V-153Q99 -148 94 -146Q94 -145 90 -143Q86 -137 78 -132Q66 -120 63 -120Q61 -119 61 -117Q71 -114 71 -111Q74 -111 78 -107L80 -106H81Q93 -126 93 -131L92 -136Q95 -140 97 -140Q98 -140 103 -134Q104 -134 109 -127L113 -125V-126H114Q115 -124 119 -124L120 -122L122 -124H124L126 -123Q135 -126 146 -126L151 -128L153 -138V-139L154 -141V-146H155V-147Q151 -148 151 -151V-153L157 -158H159Q165 -152 171 -151Q173 -148 177 -148Q179 -145 179 -144Q177 -140 172 -137Q173 -137 173 -135L171 -131H172H176H180Q180 -132 197 -144H198L201 -141Q203 -141 205 -139L212 -136V-137H214Q219 -132 219 -128Q213 -116 212 -113L210 -109V-108Q208 -104 205 -94Q204 -94 202 -83Q200 -83 199 -76Q197 -72 193 -54Q187 -38 183 -33Q181 -32 181 -29Q171 -17 167 -17Q166 -15 162 -14Q162 -11 157 -10L155 -12V-14L157 -19V-21Q157 -23 153 -29Q150 -41 145 -48V-50L146 -51Q148 -51 156 -46L162 -43Q167 -45 167 -49L172 -63L176 -76Q176 -78 177 -78Q178 -83 180 -87H179V-89Q180 -90 182 -95L183 -100V-102L187 -117L186 -120L188 -123V-124L187 -125H180H179Q177 -123 169 -122L165 -121L157 -106Q149 -81 144 -73Q142 -70 138 -63Q138 -61 131 -51Q131 -50 123 -41Q123 -39 114 -30Q111 -25 103 -16Q91 -3 88 -3L87 -4V-5Q107 -24 115 -39Q124 -54 131 -70Q135 -77 138 -88Q141 -88 144 -100Q146 -107 148 -115H146Q145 -114 142 -114Q140 -112 135 -111L132 -108Q126 -108 125 -113L122 -114Q118 -119 116 -119L110 -115Q105 -110 98 -105L90 -97Q90 -95 81 -86L76 -80L70 -72V-71H72L74 -72V-71Q79 -73 97 -77H99Q97 -81 95 -88L94 -93L95 -94H96Q97 -92 100 -92Q109 -86 111 -84L113 -81Q115 -81 117 -76Q118 -75 118 -72L117 -68L118 -67Q118 -60 112 -56Q110 -56 110 -54Q108 -53 107 -53Q102 -54 102 -66Q101 -66 100 -73Q99 -73 95 -70Q91 -67 85 -64Q83 -62 78 -60L69 -54Q68 -54 60 -48L53 -43L45 -35H43Q36 -41 36 -47L37 -50V-53L36 -54V-58Q36 -64 40 -64L49 -66Q57 -66 59 -71Q61 -76 68 -86Q68 -87 72 -92L74 -94V-95L72 -97Q71 -97 71 -95H70H69Q68 -95 68 -97Q63 -97 63 -98V-97Q60 -99 49 -99V-100L48 -99Q39 -99 39 -104L38 -108L39 -109L38 -112Q40 -114 41 -120Q55 -124 55 -126Q59 -130 59 -132Q65 -138 65 -141Q66 -141 73 -153Q77 -158 77 -166L76 -171Q76 -173 81 -173Z"/>
</svg>