<svg xmlns="http://www.w3.org/2000/svg" viewBox="0 -256 256 256">
	<path fill="#000000" d="M130 -205H132Q136 -198 140 -198Q142 -196 152 -195Q157 -191 159 -185V-184V-183Q156 -177 154 -171Q157 -173 161 -173L163 -172Q164 -175 166 -175L170 -174L183 -178H186Q188 -180 196 -183L198 -184L204 -182Q207 -180 210 -180Q216 -176 216 -172V-171Q216 -167 211 -167H209L200 -168H197H195Q189 -168 187 -167Q185 -168 183 -168Q180 -168 171 -166V-167Q171 -164 153 -162Q148 -155 148 -153L145 -152Q144 -152 143 -149Q141 -149 139 -147H138Q136 -147 136 -153Q135 -153 134 -159Q133 -159 133 -157H130Q128 -156 127 -156H125Q125 -155 119 -154Q119 -153 112 -153Q112 -151 105 -151Q105 -149 98 -149H96Q96 -148 88 -146L78 -143Q72 -144 66 -151Q66 -152 62 -155H61V-157Q61 -158 80 -160H83Q84 -161 91 -162L93 -161Q93 -162 113 -164L129 -167L130 -165L132 -167H133L134 -166L135 -167L131 -173V-174V-175V-177Q127 -186 124 -186Q124 -187 120 -190L118 -192Q118 -195 122 -198H125Q125 -200 130 -205ZM169 -157H171Q177 -150 185 -147Q192 -146 192 -142V-140Q187 -134 182 -134Q182 -132 179 -132Q175 -127 172 -127Q171 -124 160 -115L156 -111Q154 -111 154 -110V-108H155Q158 -111 166 -113Q167 -114 176 -116Q183 -120 185 -120Q196 -114 197 -113Q197 -110 193 -109H192H190H189H187Q183 -108 179 -108H177Q172 -108 168 -106H165Q162 -104 161 -104H158H157V-103Q166 -100 166 -97V-96L165 -93L166 -90L165 -88Q165 -86 166 -86H167L171 -88Q173 -88 177 -90L186 -88Q188 -86 188 -84V-83L185 -81H182Q182 -80 180 -80L176 -81Q172 -79 171 -79Q166 -77 165 -77V-74L164 -71L165 -68Q164 -65 164 -62L165 -61L163 -56L164 -55Q164 -56 166 -56H168Q177 -57 183 -59H185L187 -60L188 -59Q194 -62 197 -62L208 -66L213 -63Q217 -63 225 -57Q225 -52 220 -48H215Q212 -48 211 -50H195H193Q189 -50 187 -51L179 -50H176Q176 -49 166 -48Q164 -46 164 -42V-39Q163 -23 163 -7L159 10Q159 18 153 29Q151 29 151 25V19L150 16L151 14L150 11L152 8L151 5L152 4L151 -4L152 -8V-9Q150 -9 150 -10L152 -12L151 -13V-18L152 -23L150 -27V-29L149 -32L150 -36V-37L149 -40Q150 -44 151 -46H149Q143 -44 140 -44L114 -35Q112 -33 108 -32Q105 -32 100 -36Q97 -36 91 -41V-42Q92 -43 95 -43H98H103L104 -45L106 -44Q108 -45 117 -46L118 -47H123Q124 -48 135 -50L149 -53L148 -55L149 -56V-57V-59L150 -63L148 -64L149 -66V-67Q148 -69 148 -72H147Q140 -68 139 -68V-69L136 -68H135Q123 -71 121 -73V-74Q122 -75 124 -75H130Q132 -77 144 -79L146 -81L147 -80L148 -82V-90V-91Q145 -95 145 -98L147 -101L146 -102H145Q143 -98 139 -98L128 -94L127 -93H125Q125 -90 119 -89L110 -98V-99Q112 -101 114 -101L117 -100Q117 -101 122 -102Q122 -103 124 -103Q131 -103 145 -108L148 -107Q148 -108 151 -108V-111Q154 -114 154 -116V-117Q157 -119 157 -123Q161 -126 164 -138Q165 -138 166 -146L164 -153Q164 -154 169 -157ZM91 -143L95 -137L102 -133Q109 -131 109 -129L107 -119Q106 -105 103 -105V-104V-102V-101L101 -92Q99 -86 98 -81Q96 -81 95 -75Q94 -75 94 -71Q93 -71 88 -59L79 -44Q79 -42 77 -40Q73 -30 52 -5L47 0L33 12H32L31 11V10Q41 1 46 -8Q48 -8 51 -14Q57 -23 60 -26Q62 -28 67 -41L73 -57V-58V-59Q75 -60 78 -72L82 -82L86 -99V-100L85 -102L88 -109L87 -110V-115V-117L88 -118V-124L90 -126Q90 -127 88 -129L89 -130V-131Q87 -133 87 -135Q87 -140 91 -143ZM124 -139H125Q129 -135 135 -132Q135 -131 141 -128Q141 -126 143 -122L142 -120L143 -119Q139 -108 137 -107H136Q130 -107 129 -121Q128 -121 127 -126Q123 -131 123 -138Z"/>
</svg>