<svg xmlns="http://www.w3.org/2000/svg" viewBox="0 -256 256 256">
	<path fill="#000000" d="M151 -180H153Q156 -180 164 -176Q175 -176 175 -171L176 -167V-166Q176 -163 168 -155L160 -147Q157 -142 154 -142Q145 -131 143 -131L137 -123Q134 -122 134 -120Q131 -120 129 -115Q127 -115 109 -96L105 -92L102 -91L101 -92V-93L112 -105Q113 -105 120 -116Q123 -119 124 -122Q126 -122 126 -125Q128 -128 129 -128Q131 -131 131 -134Q135 -140 135 -143Q138 -143 140 -149L142 -152V-155L145 -157L144 -160L146 -162V-165L147 -167V-169Q144 -171 144 -175Q147 -180 151 -180ZM103 -178Q105 -176 113 -164Q115 -164 119 -160L120 -161L123 -156V-155H122L123 -154V-153Q123 -151 119 -146L117 -147Q115 -146 113 -143Q106 -142 101 -136L94 -130Q94 -128 90 -126Q88 -123 85 -123L84 -122V-120Q88 -116 91 -116Q91 -113 93 -112L90 -103L91 -99Q90 -86 88 -86L89 -83V-80L90 -79V-78L89 -75L90 -72V-71L89 -67L90 -62L89 -52L90 -50L89 -48L90 -43L89 -41L90 -38V-35V-30L89 -26L90 -24L86 -12Q84 -10 78 -2L75 -1L70 -13V-17V-23L69 -25L70 -29L73 -62V-66V-69V-75V-77V-79V-80L74 -92L73 -99V-104L74 -114H73Q72 -114 72 -112Q70 -109 66 -109Q62 -105 52 -100Q52 -99 40 -93Q37 -89 32 -88L31 -87Q30 -87 27 -84H26L25 -85V-87Q30 -91 32 -93Q34 -93 40 -98Q43 -98 61 -117L76 -137Q78 -137 85 -149Q89 -152 91 -160Q92 -160 93 -163V-167V-169V-170V-172Q93 -175 102 -178ZM201 -155Q204 -155 214 -148Q222 -141 222 -137Q222 -132 217 -132Q217 -131 214 -131Q210 -130 210 -127L207 -128Q207 -125 203 -125Q198 -120 196 -120Q195 -120 193 -118Q190 -118 190 -115Q186 -114 178 -104H177L176 -105V-106L181 -115Q183 -119 185 -124Q186 -124 186 -127Q187 -127 188 -132L189 -134L188 -135Q184 -132 182 -132L180 -131H176Q176 -129 165 -125H164Q156 -133 155 -133Q152 -133 152 -134Q152 -136 156 -136L160 -137H163Q164 -139 169 -140L174 -142Q174 -143 181 -144Q182 -146 192 -149Q192 -150 199 -153Q199 -154 201 -155ZM155 -107Q156 -104 164 -101Q165 -100 174 -95L176 -89L174 -83V-79V-72V-70L175 -68L174 -67V-62V-58V-56L175 -54L174 -48V-42L175 -40H174H175V-39Q175 -36 174 -36V-32V-23Q174 -9 156 5H153L151 3V-4Q151 -14 142 -23Q142 -24 137 -27L136 -29Q136 -30 137 -30L150 -28Q153 -28 153 -41L154 -52L153 -54V-55V-63V-69V-75V-77L152 -88L153 -94L152 -97V-101L151 -106ZM123 -75Q126 -69 129 -65Q131 -61 131 -54Q128 -41 122 -37L116 -35H115Q111 -35 111 -40L110 -45Q111 -51 114 -53Q114 -54 118 -60Q120 -75 122 -75ZM195 -80L207 -76L213 -72L214 -73Q224 -65 224 -62Q227 -61 229 -56Q231 -54 231 -46Q232 -44 231 -41Q230 -35 223 -35Q223 -34 218 -34V-33H217Q214 -34 212 -38Q209 -39 207 -48Q203 -56 203 -60L194 -78V-79Z"/>
</svg>