<svg xmlns="http://www.w3.org/2000/svg" viewBox="0 -256 256 256">
	<path fill="#000000" d="M147 -180H151Q158 -172 161 -172Q165 -170 169 -170Q175 -167 175 -162V-160V-158Q172 -155 165 -151H164H160H157Q154 -149 150 -149Q149 -147 137 -143V-142Q137 -141 143 -139Q143 -138 146 -137Q146 -135 152 -135Q154 -135 157 -131V-125L155 -118V-113Q154 -107 152 -107L153 -106Q158 -110 162 -111Q164 -114 171 -114Q178 -113 178 -109Q179 -109 180 -106Q180 -102 169 -98Q168 -98 155 -92Q153 -92 153 -90L154 -85L153 -83V-80V-78V-77Q152 -76 152 -74V-71V-70L164 -73Q164 -74 169 -75Q180 -74 181 -72Q184 -72 186 -67V-65Q182 -61 179 -61L168 -59H166H159H152Q152 -57 142 -57H141Q138 -56 131 -54L130 -55Q128 -54 124 -52L123 -53Q118 -49 106 -49Q102 -51 102 -54Q102 -58 104 -62L103 -70V-72L102 -78H103L100 -90L97 -95V-96Q101 -102 104 -102Q106 -102 112 -97Q114 -97 115 -95Q118 -95 119 -93Q122 -93 122 -91L121 -88V-87L120 -85V-84L119 -77L120 -75L119 -71V-69L117 -68V-66Q118 -65 118 -61L119 -60L121 -61H122H124Q126 -63 133 -65L135 -74L134 -75L135 -77L134 -81L135 -82L134 -85L135 -88L134 -94V-111Q134 -127 130 -134V-136L131 -139L130 -140Q126 -136 122 -135Q122 -134 104 -123Q98 -117 96 -117L95 -118L123 -145Q126 -149 139 -164Q141 -164 144 -171Q144 -173 140 -174V-175Q140 -177 147 -180ZM83 -159H84L89 -154Q97 -153 97 -148Q97 -146 90 -139L84 -130L73 -113Q72 -113 70 -107Q69 -107 65 -99H66Q70 -103 74 -103Q74 -104 78 -105L79 -106H80Q87 -98 89 -98V-95V-94L86 -77Q82 -71 82 -66Q81 -66 80 -62Q81 -62 83 -59H85Q86 -56 90 -56Q96 -50 100 -50Q102 -47 112 -46Q117 -41 123 -41Q127 -39 134 -38Q134 -37 143 -35Q143 -34 155 -32Q158 -30 176 -27Q176 -26 187 -25Q195 -22 203 -21L223 -18H236L237 -17Q237 -15 235 -15H230Q226 -14 219 -14Q218 -12 216 -12H214Q203 -9 191 -3Q185 2 183 2H182Q180 2 176 -1L175 0Q175 -2 166 -3Q164 -5 157 -7Q157 -9 147 -10Q145 -13 140 -15Q132 -19 132 -20H128Q127 -21 127 -23L123 -22Q119 -26 115 -26Q115 -27 111 -27Q110 -29 95 -36Q94 -37 86 -41Q78 -48 75 -48Q73 -48 70 -42Q67 -39 64 -32Q62 -32 54 -22Q47 -18 42 -12L25 1Q22 4 20 4H19Q19 1 32 -9Q39 -16 48 -27L58 -44Q61 -51 63 -58Q62 -62 53 -63L52 -66Q56 -71 58 -71H60H62Q66 -71 68 -69H69V-71Q72 -82 73 -91V-92V-93H71Q68 -93 58 -88Q55 -88 54 -86H53Q52 -86 51 -89L52 -91V-92L51 -95Q51 -96 60 -108Q61 -111 61 -113Q63 -122 67 -126L70 -133V-134H69Q66 -131 63 -131L60 -130Q60 -128 51 -126Q45 -130 42 -136Q38 -139 38 -141Q38 -142 46 -143Q60 -149 72 -152Q72 -153 78 -154Q80 -155 83 -159Z"/>
</svg>