<svg xmlns="http://www.w3.org/2000/svg" viewBox="0 -256 256 256">
	<path fill="#000000" d="M175 -180Q180 -179 185 -173Q185 -170 189 -170Q190 -167 197 -164Q201 -162 201 -157Q201 -150 195 -149Q195 -147 194 -147L192 -148Q187 -144 185 -144Q184 -142 172 -130Q167 -125 160 -118L158 -116H160Q182 -123 185 -123Q186 -126 196 -128L204 -133Q208 -129 211 -129H213Q217 -127 223 -126Q225 -123 225 -121V-114Q223 -112 223 -110V-105Q222 -103 222 -102V-101V-97L221 -93L222 -90L221 -87L222 -85L221 -81L222 -77L221 -74L222 -69V-62V-60V-59V-57L221 -50L222 -49Q220 -26 216 -26Q215 -20 209 -17Q207 -17 200 -11L198 -12V-13L199 -15Q198 -32 196 -32L191 -40L192 -43V-44L190 -43L188 -44Q184 -41 179 -41L177 -44Q177 -40 172 -40Q170 -40 162 -36V-37Q152 -33 152 -32L153 -31Q150 -23 144 -18H143Q142 -18 141 -22Q139 -23 138 -32Q137 -32 135 -36L136 -39L135 -43V-46V-54V-57Q135 -65 131 -91L130 -97Q128 -107 126 -107Q126 -108 123 -111Q123 -119 129 -119L130 -120Q130 -118 140 -114Q141 -114 143 -112H145Q147 -117 150 -120Q150 -121 153 -126Q155 -131 162 -146L168 -161V-164L167 -165V-167H168Q166 -167 164 -170V-172Q164 -174 175 -180ZM93 -170Q102 -170 102 -164Q103 -164 106 -161Q108 -161 110 -158Q112 -158 115 -155H117Q122 -149 122 -146V-142Q118 -138 114 -136Q114 -135 109 -134Q102 -128 99 -128Q99 -127 93 -121H90Q90 -120 85 -115Q85 -112 79 -112V-111Q83 -104 90 -104Q96 -103 96 -98V-96L94 -82V-63L95 -55L94 -52L96 -40L95 -38L96 -36L95 -33L96 -26V-14Q96 -3 86 2L84 4H83Q82 4 82 1Q76 -11 76 -17V-23L77 -30L76 -32L78 -47V-52V-53V-57V-62L77 -63V-64L78 -66L77 -75V-77V-79L76 -83V-90H77L75 -98V-99V-105L76 -106V-108V-113L74 -111V-109Q72 -109 72 -105Q65 -99 60 -99Q60 -97 57 -95Q57 -94 55 -94L50 -92Q47 -88 40 -84Q40 -81 32 -80L31 -81V-83Q40 -89 45 -98Q56 -104 58 -109L67 -120Q68 -121 73 -129L84 -142Q90 -152 90 -154V-159L85 -164V-165Q85 -166 90 -167ZM192 -117L190 -119Q190 -116 183 -116Q181 -113 173 -113L172 -112H170H167Q166 -109 162 -109Q162 -108 158 -108Q158 -107 153 -105Q153 -104 149 -104V-103Q152 -103 152 -102V-101L151 -100V-97V-94L152 -92V-90V-89V-87V-82V-81L151 -79L152 -78Q153 -80 164 -84L179 -90L180 -91H181L188 -86V-84Q184 -79 182 -79L180 -80Q177 -78 171 -77L162 -72L153 -69V-68L154 -65H153L154 -59V-54L153 -51L154 -49V-46Q154 -44 152 -44V-43H153Q157 -47 172 -50H173L181 -54H183Q187 -52 189 -52L190 -53Q193 -50 194 -45H197L196 -47Q198 -50 198 -55V-59V-66L200 -68V-69L199 -72V-74L198 -75L200 -80L199 -83L200 -88H201L200 -90V-93L198 -100L200 -103Q198 -103 197 -118L196 -120Z"/>
</svg>