<svg xmlns="http://www.w3.org/2000/svg" viewBox="0 -256 256 256">
	<path fill="#000000" d="M153 -193Q156 -193 161 -187Q167 -185 172 -185H174Q179 -182 179 -178V-176Q179 -170 174 -168Q170 -166 167 -161Q166 -161 163 -155L159 -149L158 -148Q156 -148 153 -142Q152 -142 152 -138Q155 -137 159 -132Q159 -125 155 -125Q155 -123 141 -122H140H139Q126 -119 126 -118L125 -111L126 -109L125 -108V-107L126 -105V-104L125 -102V-99L124 -93H125Q130 -96 140 -96H142Q146 -99 155 -100Q155 -101 161 -102L164 -101Q164 -103 173 -105H177Q179 -107 184 -108Q186 -111 189 -112H190Q191 -112 198 -103Q210 -99 210 -93Q210 -88 205 -86Q198 -80 198 -77Q192 -69 190 -64Q181 -52 177 -52Q172 -48 171 -48Q163 -46 162 -45H161Q159 -45 159 -50L160 -52V-55Q160 -59 155 -66Q160 -65 164 -60H165H167V-63Q169 -64 169 -67L178 -80L177 -81L180 -86Q180 -90 181 -91L180 -97L181 -99H180Q174 -97 171 -97H167H164Q164 -95 151 -95L150 -94H147Q144 -93 141 -93L138 -92H134Q133 -91 129 -91L125 -88L124 -86V-79L125 -75H124V-74L125 -69V-68L124 -61L125 -57L124 -54L125 -50V-45L124 -42L125 -26V-23V-18V-12V-6Q124 6 123 7V8Q122 16 117 16Q117 18 116 18H115Q109 12 109 7Q110 0 111 0L110 -12Q111 -14 111 -17V-20L110 -23Q110 -24 111 -24L112 -25L110 -27V-29L109 -32L111 -36L110 -40L111 -46L110 -47L111 -52L110 -58V-59L111 -72L109 -74L110 -77H109Q109 -86 111 -87L109 -88Q106 -85 100 -85L92 -82Q92 -81 86 -81V-80L81 -78Q75 -78 68 -73V-72V-70Q67 -70 65 -63Q62 -57 59 -56H58Q54 -61 54 -63V-65L53 -67L54 -69L53 -71L54 -82Q53 -82 52 -99L53 -100L52 -104L53 -107Q51 -107 51 -116Q50 -116 48 -122Q45 -122 45 -126Q45 -129 50 -129Q56 -126 62 -117L68 -113Q70 -108 70 -106V-104L69 -101V-99V-95Q69 -87 68 -83V-82Q73 -82 80 -86H85L86 -87H87L94 -89L97 -88Q97 -89 99 -90L101 -89L109 -92V-95V-104Q109 -106 110 -106L109 -108V-111L110 -115Q99 -113 97 -111H96Q95 -109 88 -107Q83 -113 80 -113Q80 -114 75 -118V-119L77 -120L78 -119L87 -122H88H89Q92 -124 94 -124H95V-123Q96 -124 101 -124Q101 -126 109 -126V-128V-131Q109 -134 108 -134L109 -136Q109 -144 104 -145Q104 -148 109 -152Q113 -152 118 -145Q120 -145 122 -142Q127 -140 127 -137V-136V-133L126 -131L127 -130Q129 -131 131 -131Q135 -131 135 -138Q137 -138 138 -149L139 -158L137 -160V-161L138 -162L137 -166Q137 -168 142 -169V-170H140L139 -171Q139 -168 135 -168Q130 -164 126 -164Q126 -163 120 -162Q115 -161 97 -153H95Q94 -154 87 -158L82 -164Q82 -165 80 -165Q77 -167 77 -169V-170L78 -171H79L81 -170L82 -171L85 -170L88 -171H89H91H95Q96 -172 113 -173L122 -176H123Q139 -181 142 -185Q146 -187 150 -193Z"/>
</svg>