<svg xmlns="http://www.w3.org/2000/svg" viewBox="0 -256 256 256">
	<path fill="#000000" d="M123 -197H125Q140 -191 142 -191Q146 -191 147 -188V-187Q147 -183 142 -174L140 -167V-166H141Q152 -171 161 -173H162Q169 -170 171 -168Q184 -167 184 -162Q185 -162 185 -159Q185 -154 178 -151L166 -140Q160 -134 160 -133Q167 -128 167 -126Q167 -123 163 -121L151 -122Q146 -122 142 -119Q137 -118 137 -115V-112L136 -111Q137 -111 137 -109V-106V-100V-99L157 -104Q157 -105 164 -105Q164 -106 168 -107L170 -106L175 -108L176 -107L179 -108H183L191 -110Q193 -110 197 -105Q209 -99 209 -95V-93L199 -74Q191 -52 176 -44Q173 -41 168 -40Q166 -40 165 -43L166 -47Q164 -48 164 -50V-52Q157 -63 151 -68L149 -70Q149 -71 151 -71Q164 -64 173 -64V-66Q175 -68 175 -70Q176 -70 179 -81V-83L180 -85V-87L182 -96L177 -97L175 -96L170 -97L169 -95L167 -96Q148 -95 137 -90L135 -86L137 -85L136 -82L137 -73L136 -68L137 -65V-58Q137 -49 139 -48V-47Q139 -46 137 -46V-45L139 -43V-41L140 -29L139 -28L140 -21V-19L139 -15L140 -9V-7Q140 14 133 19L131 21H129Q128 21 128 15L124 4V-5V-6L125 -8L124 -9L125 -16L124 -21L125 -23L124 -30V-32V-34V-35V-40V-48L122 -73L123 -76L122 -79L123 -81L122 -84V-87H121Q119 -86 113 -85Q113 -84 106 -83L105 -75L106 -74L105 -71L106 -70Q104 -68 104 -62V-60L103 -58V-57Q101 -49 101 -48Q95 -30 90 -26Q88 -20 73 -7Q63 2 53 9Q52 9 51 10H49L48 9L61 -1L73 -16L72 -18Q75 -18 77 -23Q81 -27 81 -31Q82 -31 84 -36Q85 -36 85 -38L86 -39L85 -42L87 -43L86 -46Q88 -46 90 -62L91 -63V-64V-66L92 -68L91 -72Q92 -74 94 -76L90 -77Q87 -76 81 -72Q77 -70 72 -67V-64V-55Q69 -53 69 -51Q64 -45 62 -45Q56 -45 56 -54Q52 -62 52 -72Q53 -74 53 -82V-83L52 -85L53 -87L52 -94V-97L51 -99L52 -102L51 -108V-111Q47 -119 47 -121Q47 -122 53 -124Q58 -119 63 -117L73 -111L74 -109H75L77 -110H80Q83 -110 93 -116L94 -119H93V-120L94 -122L93 -126L94 -130V-132V-134Q94 -136 93 -136L90 -134H89L88 -135V-134L83 -130H81Q79 -134 66 -144V-145L67 -146H68L71 -145L92 -151V-152Q88 -163 84 -165Q84 -170 83 -171Q83 -172 85 -174H86Q87 -174 97 -166Q109 -166 109 -160Q109 -158 110 -158Q123 -158 124 -162V-166L125 -167Q125 -182 118 -189Q118 -194 123 -197ZM140 -154V-153L139 -147L140 -144L138 -143L139 -140L138 -137V-135Q138 -134 137 -134H136V-133H137Q149 -135 149 -141Q151 -156 152 -156L151 -158Q140 -155 140 -154ZM116 -146H114Q114 -144 106 -143V-140Q106 -137 105 -137L106 -135V-134V-131V-129V-126V-123L108 -122Q113 -123 122 -127Q124 -127 124 -128V-131V-132V-141V-143V-146V-149H123Q120 -147 117 -147ZM108 -109H106V-107V-104V-100V-98V-93L107 -92H108Q115 -93 121 -95L123 -98L122 -102L123 -105L122 -109V-110L123 -113H122H121ZM72 -103V-97L71 -96Q73 -90 73 -88L72 -86L73 -85L72 -83Q73 -81 75 -81Q79 -84 84 -84Q89 -87 92 -87V-88H93L92 -90V-93V-99Q92 -103 93 -103L92 -104Q90 -102 86 -102L84 -100Q83 -102 79 -102Q76 -105 74 -105Z"/>
</svg>