<svg xmlns="http://www.w3.org/2000/svg" viewBox="0 -256 256 256">
	<path fill="#000000" d="M93 -181Q97 -174 101 -172Q103 -169 111 -167Q112 -165 112 -161Q110 -153 108 -153Q108 -152 103 -152L97 -148L94 -149H93Q90 -144 81 -144Q69 -138 59 -134Q56 -131 54 -131Q54 -129 47 -129L46 -130Q46 -132 51 -133Q51 -134 54 -134Q54 -135 62 -141Q66 -144 73 -150Q75 -153 78 -157Q83 -162 85 -169L86 -170V-172Q84 -174 84 -176V-178Q84 -179 93 -181ZM222 -145Q225 -143 227 -143Q231 -138 237 -136Q242 -132 242 -130L237 -116L233 -96L234 -95Q232 -89 229 -68Q228 -68 227 -52Q224 -36 223 -34L216 -24Q215 -21 211 -19Q211 -18 201 -11Q198 -11 197 -17L198 -26Q197 -30 193 -43L195 -44H197L198 -43Q202 -43 203 -53Q205 -53 205 -60V-62Q207 -66 207 -70V-75L208 -76L207 -79L209 -88L208 -90L209 -91L208 -94Q211 -97 211 -103V-105V-107V-108L212 -109L211 -119Q211 -121 213 -123Q211 -124 211 -130L202 -129H201L192 -127Q192 -126 189 -126H187L180 -124Q175 -124 173 -122H172L171 -124Q170 -124 170 -122H169H166Q161 -120 153 -119L151 -118H150Q148 -117 140 -116Q140 -114 133 -113V-112Q136 -112 139 -107V-98V-97V-82V-79V-76V-75L140 -50L139 -49L141 -46L140 -45L141 -44L149 -47L158 -49H160H162Q165 -52 186 -57L193 -52L194 -50V-48L191 -45H187H186H183H177Q177 -43 162 -42Q162 -41 156 -41Q156 -40 155 -40H153Q153 -38 144 -36H141Q139 -24 133 -23Q130 -27 126 -31L127 -33Q125 -36 125 -38L126 -41L125 -43L126 -44Q124 -46 124 -54L123 -55V-58L124 -59Q122 -60 122 -66H123Q122 -69 121 -71V-73L120 -79L121 -81Q118 -90 118 -98V-99L114 -116L113 -117V-118Q114 -120 116 -120H117Q118 -120 118 -119L123 -121L127 -119L130 -121H134L136 -122H138H139Q143 -124 149 -124Q158 -128 175 -131L180 -132Q180 -134 186 -134H187Q189 -135 195 -136L196 -137H198Q202 -137 207 -141Q209 -141 218 -145ZM86 -133Q91 -129 91 -127H94Q100 -121 103 -120Q106 -118 106 -113Q106 -108 99 -107Q96 -103 84 -96Q84 -95 81 -95Q81 -91 76 -89L75 -87Q75 -86 77 -86Q83 -86 85 -80Q86 -80 86 -77L85 -75L86 -72V-68L87 -62V-51L88 -45L87 -43Q89 -43 89 -12L88 -8L89 -5L84 3L81 5H80Q79 5 76 0Q75 0 74 -8Q73 -8 73 -10Q73 -19 75 -21L73 -25V-30L74 -33L73 -36L74 -41L73 -49V-51V-54L74 -62L73 -68V-69V-71V-76Q72 -78 72 -81Q69 -81 65 -76Q55 -66 48 -62Q48 -60 44 -59Q42 -58 35 -54Q33 -51 31 -51Q27 -48 18 -43L14 -40L13 -41Q13 -42 21 -47Q22 -47 32 -57L36 -61Q39 -61 40 -65Q42 -65 54 -77Q56 -84 59 -84Q59 -86 63 -91Q66 -94 66 -96Q67 -96 67 -100H69V-103L75 -110H76L75 -113Q77 -113 78 -118L79 -120L77 -127V-129Q81 -133 86 -133ZM186 -113H190Q200 -106 200 -105L202 -101V-100Q200 -96 194 -91Q194 -89 189 -83V-82Q192 -79 192 -77L188 -72H183Q180 -72 175 -70H172Q170 -68 162 -65Q162 -60 157 -59Q152 -64 152 -68L153 -69Q153 -73 150 -78V-79H151L150 -80V-82L151 -83L149 -86L150 -87L148 -90V-91L149 -93V-95Q148 -96 148 -99L147 -101L148 -102L159 -98Q159 -100 165 -100Q169 -104 175 -104Q180 -110 183 -110Q183 -111 186 -113ZM162 -92L163 -86L162 -77V-76V-74H163Q171 -77 174 -78Q179 -81 179 -93V-95L180 -97H179Q178 -97 176 -96H174L172 -97Q171 -94 166 -94Q166 -92 162 -92Z"/>
</svg>