<svg xmlns="http://www.w3.org/2000/svg" viewBox="0 -256 256 256">
	<path fill="#000000" d="M176 -188H177Q187 -183 195 -181Q199 -181 201 -173V-172Q200 -165 197 -165Q197 -163 188 -162H186H183H180Q174 -162 170 -159Q168 -158 164 -158L161 -154L159 -155L148 -150L143 -146H142L140 -148Q170 -173 172 -180Q170 -180 170 -182V-184Q170 -185 176 -188ZM101 -183Q102 -183 103 -179Q104 -177 112 -171L118 -168L120 -162Q119 -162 118 -157Q116 -153 108 -153L106 -150H103L101 -151Q99 -148 93 -146L74 -139Q70 -136 66 -136Q65 -134 60 -132Q60 -131 55 -131V-132Q56 -135 59 -135L62 -136Q62 -137 71 -144Q73 -145 82 -153Q83 -155 86 -158Q92 -165 94 -173Q92 -176 92 -178V-180ZM165 -153Q175 -146 183 -143Q184 -142 187 -138H188Q188 -139 192 -139Q192 -141 199 -142Q199 -143 207 -145L218 -149H220Q221 -147 230 -145Q234 -141 234 -138Q233 -135 230 -135H228Q227 -134 225 -134H221H219H217L215 -136H213Q213 -134 208 -134Q204 -132 191 -128H189L185 -126Q181 -124 179 -120V-119Q179 -118 177 -118Q177 -114 172 -108Q172 -106 165 -96H166V-95Q177 -99 185 -103Q188 -103 189 -105L196 -110L197 -111Q200 -108 205 -107Q205 -106 212 -104Q217 -100 217 -97L215 -90Q215 -86 213 -84L214 -78L213 -77L214 -76L213 -72L214 -69L213 -67L214 -65L213 -59V-58L215 -53L214 -50V-35V-33V-32Q215 -29 215 -23L213 -13V-9Q211 -7 211 -5Q209 3 196 12Q195 12 194 9L193 8L194 1V-1Q194 -8 192 -14V-15Q190 -15 190 -17Q190 -18 191 -18H193H194V-23Q196 -25 196 -27Q196 -32 195 -32L196 -40L195 -42L196 -44L195 -54L196 -59L195 -60L196 -61L195 -69L196 -71L195 -74V-75V-82L194 -85V-86L195 -87L194 -90V-94Q193 -95 191 -95Q185 -92 182 -92H179Q179 -91 171 -90L170 -91Q170 -90 167 -89L161 -92Q157 -86 156 -86L153 -87H152V-86Q154 -86 156 -84V-81V-77V-70V-69L159 -68Q163 -72 169 -72Q169 -73 175 -75L179 -77H180Q181 -76 184 -76L186 -73Q183 -68 180 -68H176Q173 -66 168 -66L167 -64H164L157 -62H156V-63L155 -62L156 -60V-59H155V-57L156 -55V-54L155 -52L156 -50L155 -49V-47Q156 -47 156 -49H158H159Q162 -51 170 -54L173 -52Q173 -54 181 -57H182Q183 -55 186 -55L187 -52Q187 -50 179 -48L172 -46L171 -47H170L167 -45L165 -46L159 -42L157 -44H156V-43V-42V-39V-26H157Q158 -27 174 -32L175 -31L185 -35L187 -34L190 -35Q192 -32 193 -28Q192 -24 190 -24L189 -27Q189 -25 179 -24L178 -23L172 -24L158 -19Q156 -19 154 -13L148 -9Q146 -9 143 -20V-21L144 -23V-24L143 -25V-27L144 -29V-30L143 -31V-33V-36V-37L144 -39L143 -41V-45Q141 -47 141 -55V-56H142L141 -63V-74Q141 -79 138 -88L139 -93H141Q145 -89 150 -89Q152 -89 155 -95Q156 -95 160 -109Q160 -110 163 -112L162 -114L163 -118L162 -119H161Q161 -117 159 -115H157Q156 -115 154 -113Q151 -113 151 -110L149 -109H148L141 -116H140Q138 -116 138 -104L136 -102V-98V-97V-96Q135 -92 134 -84Q132 -83 130 -75Q129 -73 126 -65L120 -54Q119 -54 117 -50L110 -44L102 -36Q102 -34 99 -34V-36L109 -49V-50L113 -56Q113 -59 115 -60Q120 -71 120 -74Q120 -76 122 -79L121 -80Q121 -81 122 -83V-86L124 -98L125 -99L124 -101L125 -104L124 -107L125 -111V-112L124 -113V-126L123 -133V-135Q121 -135 119 -143L120 -144L117 -148L121 -153H122L143 -143L144 -139L142 -135V-132Q141 -126 139 -124L140 -121L150 -124Q150 -126 158 -127L159 -126Q159 -128 165 -130V-132V-135V-136V-138V-140L160 -149V-150Q161 -153 165 -153ZM94 -135L98 -131L99 -129Q101 -129 109 -123Q113 -122 114 -116Q113 -109 107 -109Q106 -106 101 -104Q93 -97 89 -97V-95Q89 -93 85 -92L83 -89Q83 -87 90 -87Q94 -81 94 -79L93 -77L95 -63V-60H94L95 -59V-51L96 -46L95 -44Q97 -41 97 -37V-34L96 -32L98 -26L97 -24L98 -22V-14Q96 -11 96 -10V-6Q94 -2 89 3V4H88L84 -2Q83 -2 82 -9Q81 -9 81 -11Q81 -21 83 -23L81 -27V-29L82 -36L81 -39L82 -45Q81 -45 81 -50V-52V-59L82 -64L81 -67H82L81 -69V-71V-74V-78L80 -82L81 -85V-86H80Q80 -83 77 -83Q75 -78 68 -73L60 -66L59 -67Q59 -64 56 -64Q56 -63 49 -59Q45 -55 44 -55Q41 -55 34 -49Q26 -45 22 -42L21 -43Q22 -45 36 -54Q36 -56 41 -59Q42 -62 47 -64Q47 -66 51 -68L62 -78Q62 -82 68 -86Q68 -89 71 -92L76 -103H78L77 -105Q80 -107 82 -112Q84 -112 84 -113L83 -114Q84 -114 87 -122L85 -130Q85 -133 94 -135Z"/>
</svg>