<svg xmlns="http://www.w3.org/2000/svg" viewBox="0 -256 256 256">
	<path fill="#000000" d="M160 -187Q163 -187 170 -183Q184 -182 184 -179Q186 -175 186 -171Q185 -169 183 -161Q182 -161 181 -158H182L195 -161H196L200 -165L203 -164L206 -167Q207 -170 208 -170Q212 -166 217 -166Q220 -162 220 -157Q220 -155 215 -153L213 -152Q207 -153 205 -155Q190 -153 186 -151L179 -149V-148L184 -144H186Q191 -144 194 -139Q191 -131 188 -131L180 -125Q174 -116 172 -116V-115V-113L173 -112L174 -113L176 -112Q177 -115 193 -116H194L196 -117H202Q208 -120 210 -120L212 -119L214 -122L216 -121L219 -122Q232 -114 233 -108Q230 -104 226 -104Q225 -102 223 -102H219H214L203 -92H202L201 -93V-95Q205 -102 205 -106L208 -109V-110L207 -111H202H200L196 -110L193 -111Q190 -109 175 -108L170 -107H167Q167 -106 158 -105V-104Q165 -97 166 -97Q170 -97 172 -92Q171 -90 169 -83H170Q177 -84 179 -86H183Q185 -87 192 -88H195Q196 -90 199 -90L208 -87L211 -84V-82Q208 -77 205 -77Q198 -80 196 -80L194 -79L192 -80L187 -79H185Q185 -78 179 -77L178 -78L163 -73Q161 -73 161 -72Q164 -72 168 -68Q171 -68 174 -64Q172 -61 172 -60V-59L173 -58H174Q176 -60 181 -60H184L185 -59L188 -60Q194 -60 200 -53L201 -49Q196 -38 191 -21L188 -9Q182 4 171 9L164 12L162 9L163 7V6L162 2V1V-1Q162 -4 158 -9L159 -10H160L168 -7Q173 -14 173 -18Q174 -18 176 -22V-26Q178 -27 180 -32Q182 -37 183 -44V-45Q183 -50 181 -50H178Q169 -51 169 -58Q166 -54 165 -49Q164 -49 162 -45V-43Q160 -42 156 -33L148 -21Q146 -21 141 -14Q132 -6 128 -4Q119 5 114 5Q114 3 122 -1Q122 -2 131 -10Q137 -17 143 -26Q145 -27 150 -39Q152 -40 153 -48Q155 -48 156 -54Q157 -54 157 -58L159 -64L158 -66L160 -70V-72Q151 -70 149 -70H147Q146 -68 139 -66H136Q136 -68 132 -68L131 -70V-72Q131 -73 138 -73Q138 -74 146 -75Q146 -77 154 -78H155H157L155 -83L156 -87Q156 -91 150 -97V-98L154 -103V-104L150 -103H148L143 -100L137 -98Q137 -96 128 -94Q128 -93 123 -91L122 -90V-89L125 -87V-86L124 -82V-80Q123 -80 122 -77V-75Q121 -75 120 -69Q117 -62 113 -62V-61Q109 -61 109 -64V-68Q111 -71 112 -90Q113 -99 114 -99V-100V-102L115 -103H116Q117 -103 117 -99Q118 -99 119 -96Q123 -99 127 -99Q136 -102 138 -104Q140 -104 143 -105Q143 -106 141 -107V-119V-127Q139 -127 139 -134H142Q144 -132 148 -131L152 -128L153 -124H152H153V-122L151 -120L153 -115V-114Q153 -113 151 -113V-108H152Q164 -109 164 -112Q164 -115 169 -124Q172 -129 172 -136L173 -137V-142L172 -143L165 -137H164L160 -142V-145H158Q154 -141 136 -137Q136 -135 132 -135L131 -133L129 -134L127 -132H126L123 -135Q121 -135 119 -138Q116 -138 116 -141Q116 -142 126 -143L134 -145L136 -146H139Q139 -147 145 -148Q145 -150 146 -150H148L151 -152H152L153 -151Q153 -153 158 -153V-156L160 -160L159 -162L160 -166L158 -170V-171L159 -172L154 -179V-180Q156 -186 160 -187ZM95 -170H97Q99 -170 100 -166L109 -162L112 -160L114 -161Q118 -158 118 -155Q118 -147 115 -147L114 -148L113 -147Q111 -147 109 -149L108 -148L109 -145L96 -140Q92 -140 91 -136Q86 -131 82 -131Q80 -127 68 -122L66 -120H64L63 -122Q63 -126 78 -141L82 -146L90 -156L92 -159V-161L89 -165V-166Q92 -170 95 -170ZM89 -123H90Q94 -119 100 -119Q100 -117 106 -117Q110 -114 110 -113L109 -110L111 -109V-108Q108 -102 103 -102Q103 -101 100 -99Q100 -96 97 -96Q97 -94 89 -88Q89 -84 83 -81V-80Q86 -77 87 -74Q92 -72 92 -71L91 -69L93 -68V-67L91 -62L92 -58L91 -56V-55L92 -54Q92 -49 91 -49Q92 -48 93 -40L91 -35L92 -34V-27V-25L93 -23L92 -20V-17L91 -15Q92 -14 92 -12V-10L91 -5L92 -4Q90 8 86 8Q85 10 83 10Q80 10 78 -5L79 -25V-27V-28V-30V-35L78 -39L79 -43V-47L78 -52V-55L79 -59L78 -65V-66L79 -68Q78 -72 77 -72Q73 -69 71 -66Q67 -59 61 -55Q59 -51 51 -47Q27 -25 24 -25L23 -26V-27L30 -32Q44 -44 51 -54L59 -63Q59 -64 64 -70Q64 -72 66 -73Q69 -81 78 -93L87 -110L85 -114V-115L86 -116V-118V-119Q86 -121 89 -123Z"/>
</svg>