<svg xmlns="http://www.w3.org/2000/svg" viewBox="0 -256 256 256">
	<path fill="#000000" d="M144 -186H145L150 -184L156 -182H158Q167 -180 167 -176V-172Q162 -165 162 -157L163 -154Q161 -154 161 -140V-139H162L174 -146Q178 -149 183 -150Q185 -149 190 -148Q196 -145 196 -143Q194 -136 189 -136Q185 -135 179 -134Q179 -133 173 -132Q173 -129 167 -129Q167 -127 163 -127Q162 -125 158 -122L159 -117Q158 -117 158 -115V-95L157 -84L158 -82L157 -77L158 -74L157 -73L158 -70V-65L157 -63L158 -61V-52V-50L159 -28L158 -25L159 -23L158 -18L159 -15Q158 -9 157 -1Q153 8 150 9Q147 9 145 -2Q144 -2 144 -3L145 -5Q144 -5 143 -14L144 -17V-30V-36V-38V-41V-52V-58L143 -62H144V-63L143 -65L144 -71L143 -76L144 -80L143 -82L144 -86L143 -87L144 -99V-101L143 -108L144 -113H143Q142 -113 141 -111Q135 -111 134 -108H133Q130 -109 117 -118Q117 -119 114 -120V-121L119 -124H121Q123 -124 128 -126Q135 -127 141 -131Q144 -131 144 -138Q145 -138 146 -149L145 -154V-158L146 -160Q146 -168 142 -175L141 -177L136 -178V-179Q138 -181 144 -186ZM194 -176L200 -174Q207 -167 208 -163V-159Q207 -158 206 -155L195 -153L185 -167L182 -170L181 -171V-172Q186 -176 194 -176ZM64 -173Q69 -173 72 -170Q74 -170 75 -167L79 -168L81 -167L85 -168Q85 -167 88 -163Q88 -162 90 -161V-159Q85 -149 84 -140L83 -139Q83 -134 85 -134Q95 -135 99 -137H103Q104 -135 112 -133L114 -130L113 -128L114 -125Q110 -119 105 -119Q105 -117 96 -117Q96 -116 90 -116Q87 -115 85 -114L83 -116H82V-115L83 -114L81 -107L82 -103Q81 -103 81 -97V-81L80 -71L81 -66L80 -59L81 -56L80 -54L81 -48L80 -43L81 -32V-14L80 -13H81V-11Q80 -4 72 8L70 10H68Q63 5 63 3V-3L61 -13Q57 -16 57 -18V-21Q60 -25 60 -30Q61 -30 62 -36Q63 -36 63 -40V-43Q63 -45 64 -47V-51H65L64 -52L65 -59L64 -63L65 -76L64 -78L65 -80V-87L64 -89L65 -91V-92L64 -94L65 -97V-103Q65 -104 66 -106L65 -111L67 -121H66V-122L67 -125L66 -126L67 -128L66 -131L67 -132L66 -134L67 -137L66 -140L67 -148V-155Q64 -165 63 -165L60 -166Q60 -169 64 -173ZM43 -121Q46 -119 48 -113L50 -108L49 -106L50 -102Q49 -99 49 -96V-90L46 -80Q43 -73 39 -71Q39 -68 35 -68Q35 -67 34 -67H32Q28 -68 27 -74V-82L28 -83H27V-84H28L27 -97L37 -108L42 -119Q42 -121 43 -121ZM176 -121H178Q180 -121 184 -117Q194 -113 194 -111L195 -108L191 -100V-99Q191 -93 189 -89V-88L190 -86L189 -84L190 -82L189 -78V-73L190 -67V-65L192 -53L191 -52Q196 -45 199 -45Q205 -43 210 -43L223 -44L229 -39V-33Q226 -29 224 -29L216 -27H214H211L204 -26L203 -27L201 -26Q199 -27 193 -28Q191 -32 186 -32Q185 -34 181 -37Q179 -46 177 -48L178 -49L177 -51L178 -54L176 -57L177 -60Q176 -60 176 -61L177 -63L176 -64V-65V-67L174 -77L176 -78L175 -81H176V-87V-89L175 -91L176 -97V-100V-102V-105V-106Q173 -107 173 -111Q170 -113 170 -114Q170 -119 174 -119ZM115 -102H116Q119 -97 133 -95Q137 -91 137 -89Q134 -85 132 -81L130 -77Q127 -72 127 -65Q126 -65 125 -58Q122 -54 118 -45Q116 -44 113 -37Q112 -37 105 -31L95 -25L89 -20H86L85 -21V-22Q90 -25 95 -31Q98 -31 104 -45Q105 -52 108 -54Q112 -63 112 -68H113V-69H112V-70L114 -78H113V-80Q116 -80 116 -85V-86Q116 -94 114 -94H113L112 -96V-97Q112 -99 115 -102Z"/>
</svg>