<svg xmlns="http://www.w3.org/2000/svg" viewBox="0 -256 256 256">
	<path fill="#000000" d="M167 -181H168Q169 -181 170 -176Q176 -172 179 -169Q182 -169 184 -166Q184 -157 172 -151Q159 -136 155 -135Q153 -130 150 -130Q150 -126 145 -122V-121H147L160 -122L163 -121L167 -122H169L173 -123H175Q175 -125 184 -125Q184 -126 190 -127L192 -128L193 -129Q189 -139 185 -144V-145L186 -146Q205 -142 205 -140Q214 -134 214 -132Q215 -131 218 -122Q217 -116 210 -112L204 -110Q202 -112 199 -119V-122L198 -124L197 -125H195Q193 -122 188 -122Q186 -119 173 -116Q168 -113 161 -112Q157 -110 157 -109Q154 -109 150 -106L147 -105H145Q145 -104 137 -102Q134 -99 128 -97Q128 -95 123 -93Q117 -95 117 -102V-103L118 -105V-111Q118 -114 122 -120L125 -119H130Q131 -119 131 -118L132 -117Q132 -121 136 -126L141 -132Q153 -153 157 -162Q157 -167 159 -169Q159 -172 156 -176V-178Q156 -180 167 -181ZM74 -177Q75 -177 77 -174L82 -171H83Q84 -170 92 -169L97 -165L96 -163L98 -161L94 -154Q91 -151 91 -147V-143V-141V-140V-136V-134V-130H93Q95 -132 103 -134L105 -136H107L111 -135L113 -136Q120 -133 120 -126Q116 -123 110 -123Q109 -121 108 -121L105 -122Q105 -121 103 -121H102Q98 -119 95 -118Q95 -117 92 -117L91 -116L92 -112L91 -109L92 -106V-105L91 -103L92 -101L91 -99V-97V-95L92 -93L91 -92L92 -81H89V-80Q90 -80 92 -77L91 -75Q92 -73 92 -72V-70L93 -66L91 -63L93 -62V-61L92 -60L93 -57V-56L92 -55V-54L93 -50V-45V-41L91 -40V-39Q94 -39 94 -37L92 -36L94 -28L93 -26L94 -16Q94 -7 90 -1Q88 4 83 4Q83 5 80 5H79L78 4Q78 -3 73 -20Q76 -33 76 -60L77 -63L76 -64L77 -69H76V-70L78 -77L77 -81L78 -82V-84V-88L77 -90L78 -95V-97L77 -101L78 -103L77 -108V-110V-116L78 -117L76 -128L77 -129Q74 -153 73 -159Q73 -161 69 -166L68 -169Q68 -173 74 -177ZM49 -126Q50 -126 52 -122Q54 -118 56 -117V-116V-113Q58 -113 60 -100V-95V-91Q58 -89 58 -80L53 -74Q50 -72 43 -69Q39 -70 38 -73L37 -75V-76L45 -105V-106Q46 -108 48 -120V-124Q48 -126 49 -126ZM197 -96Q204 -90 208 -90V-88H209L212 -89Q219 -86 219 -82V-81Q219 -74 212 -67Q212 -66 204 -54Q204 -52 200 -49V-47Q201 -47 203 -44Q207 -44 207 -41L208 -37Q204 -34 199 -34H195Q188 -34 185 -32H184L181 -33L166 -30L150 -25L149 -26Q148 -24 146 -24Q147 -24 148 -22V-21Q144 -11 141 -11H140Q138 -11 135 -23Q134 -23 134 -28Q132 -28 130 -48Q129 -48 129 -56Q124 -72 121 -77Q121 -81 123 -81Q127 -79 131 -75Q136 -74 137 -73Q141 -75 146 -76Q148 -77 160 -80Q163 -80 166 -82Q186 -87 192 -91ZM179 -77H177Q174 -76 170 -76L169 -75H168L166 -74H163Q158 -72 152 -70Q150 -68 144 -68Q143 -67 143 -65Q144 -63 146 -45Q146 -36 149 -36L157 -39V-38H158L170 -42L180 -44L182 -45Q185 -51 185 -57V-61L186 -62H185L186 -71V-72V-73L187 -78H186Z"/>
</svg>