<svg xmlns="http://www.w3.org/2000/svg" viewBox="0 -256 256 256">
	<path fill="#000000" d="M142 -194Q145 -192 146 -192Q151 -188 154 -188H159Q163 -186 163 -183V-182Q161 -178 161 -172Q161 -170 169 -170Q169 -171 175 -171Q178 -169 186 -169Q189 -167 189 -165Q189 -162 183 -159Q181 -159 173 -154Q170 -154 162 -148L158 -146L159 -140V-137V-133V-132Q159 -130 160 -130L162 -131L164 -130L169 -132H170Q173 -134 181 -135Q187 -142 190 -142Q192 -142 199 -136L207 -133Q209 -130 210 -126Q210 -122 203 -118L185 -104Q183 -104 182 -102L187 -98L189 -95V-94Q184 -89 182 -89L180 -90Q179 -89 178 -89L175 -90Q168 -90 168 -89H166H161L155 -90L156 -85L155 -84V-82L154 -77V-73Q153 -67 151 -62Q151 -59 150 -57Q150 -53 148 -53H147Q147 -50 153 -48Q156 -45 159 -45Q159 -42 176 -35Q180 -30 187 -28Q187 -26 194 -24Q195 -23 200 -21Q204 -18 217 -15Q223 -10 232 -9H236L240 -6Q240 -5 233 -4Q233 -1 223 0Q210 5 204 9H202Q194 9 182 -1Q180 -1 178 -5Q175 -5 170 -9L160 -17L157 -20Q153 -23 149 -27Q146 -27 142 -34L141 -36H139L137 -32Q136 -32 134 -28Q132 -28 131 -24Q129 -24 122 -17Q111 -9 108 -9Q104 -6 96 -4Q96 -3 91 -1L89 0H88L87 -1V-2Q87 -5 91 -5Q91 -6 97 -9Q121 -31 124 -38Q125 -38 128 -43V-45Q124 -48 121 -54L115 -60Q112 -60 110 -68L112 -70L117 -69L118 -70Q113 -76 113 -80Q111 -80 111 -88Q110 -88 108 -94Q107 -94 104 -103Q104 -106 101 -106Q101 -109 98 -112V-117L100 -119L113 -115Q114 -116 123 -117Q126 -119 130 -119Q130 -121 136 -121Q136 -122 141 -122L143 -125V-126L142 -127Q142 -131 143 -131Q143 -135 141 -135L138 -133Q134 -133 129 -143Q127 -143 125 -148Q120 -151 120 -154L119 -155Q119 -157 124 -157H127Q127 -158 134 -160H135L142 -163L141 -166L142 -169Q139 -182 137 -190V-191Q138 -194 142 -194ZM81 -168Q83 -164 89 -160Q89 -158 98 -153Q99 -153 105 -144V-140Q105 -136 92 -133Q91 -131 89 -131Q83 -124 78 -123Q78 -120 74 -117L56 -101V-100H58Q65 -95 69 -94Q76 -91 76 -86L77 -81L75 -78L76 -77L74 -55L75 -51V-41L74 -39L75 -37V-35L74 -33L75 -32L74 -30L75 -26H74L76 -17V-16L77 -5Q76 0 75 2V5Q74 11 70 14L65 18L60 19Q59 18 57 6V4Q56 2 55 -3L58 -27L57 -30V-32H58H57V-38L58 -40V-43Q59 -43 59 -55V-60V-61L58 -64L59 -65L58 -71V-72L56 -83L55 -92Q53 -92 53 -97H52L41 -89Q33 -82 25 -77Q25 -76 21 -75Q18 -71 15 -71V-74Q32 -90 34 -95Q35 -95 44 -106Q49 -113 52 -119Q53 -119 60 -129L64 -137Q66 -139 69 -147V-154Q66 -157 66 -158V-161Q71 -166 74 -168H76Q76 -167 77 -167ZM177 -125L166 -124H165Q165 -122 164 -122L161 -123L160 -122H159H158H157L158 -120L156 -117H157V-104V-101V-99V-98H158Q174 -102 174 -104L173 -106Q175 -108 176 -113Q177 -113 177 -118Q180 -119 180 -120L179 -122V-123L178 -126ZM134 -113H133H132Q129 -112 123 -109L124 -106L122 -104L123 -102V-100L122 -99Q123 -99 124 -94Q125 -94 125 -89L123 -87H124Q126 -89 133 -90H136Q136 -93 137 -93H138L139 -92Q141 -92 142 -95V-99L143 -103V-113L144 -116V-117H142L135 -114ZM125 -77L126 -74Q123 -72 121 -69L122 -68H125Q128 -67 135 -61H136Q138 -61 141 -78L142 -80L141 -83L142 -86H141Q139 -83 136 -83Q129 -81 129 -80Q125 -79 125 -77Z"/>
</svg>