<svg xmlns="http://www.w3.org/2000/svg" viewBox="0 -256 256 256">
	<path fill="#000000" d="M162 -178L169 -174H172Q175 -174 178 -168V-165Q177 -159 173 -155L169 -137L161 -110Q158 -109 158 -107Q157 -106 148 -100H147L146 -101V-102V-103V-105V-107V-108V-110H145Q144 -108 139 -108Q139 -106 131 -105L119 -99L118 -98L115 -99L114 -98V-87L113 -84H114L112 -68V-63V-59V-56L111 -54V-50L112 -46H113L118 -49Q122 -53 127 -54Q130 -58 138 -62L139 -63H140H141V-62Q124 -47 118 -36Q117 -36 105 -21Q102 -13 96 -13H94Q90 -13 87 -21Q85 -21 85 -23Q86 -25 86 -27V-31Q87 -32 91 -34Q91 -35 95 -36L97 -38V-39Q97 -47 99 -53V-71V-74V-75V-77V-81V-84L100 -91V-98L101 -102V-103L100 -105L101 -108L100 -112H101L100 -113L101 -118V-119H100L101 -122V-129V-134V-135V-137V-140L99 -150V-152V-153Q96 -156 96 -162Q97 -165 98 -165H101Q102 -165 105 -162Q107 -162 112 -159V-160V-162H119L126 -165L129 -164L138 -168H139Q145 -169 156 -176Q160 -178 162 -178ZM58 -171Q63 -167 71 -166Q74 -166 75 -159V-156Q73 -149 72 -147V-146L73 -145V-144Q72 -143 72 -141L76 -142H77H79H83L94 -144Q99 -141 100 -135Q100 -132 97 -130H94H87L73 -128L72 -129V-128V-127V-121V-118V-117V-116V-109V-87L71 -82L72 -78V-74L71 -68L72 -66L71 -64L72 -60H71L72 -59L71 -55L72 -53L71 -42V-29L70 -27L71 -24L70 -21V-20L69 -12V-8Q61 3 57 3Q54 0 54 -3V-6V-8Q52 -15 52 -23V-32Q54 -32 54 -36V-40V-43V-45V-51V-55L56 -63L55 -66V-67H56L55 -70V-75V-77L56 -80L55 -83L56 -85L55 -88L56 -90L54 -94V-95L56 -102L55 -110V-112L54 -116L55 -124L54 -127L55 -130V-131L54 -133L55 -138V-140L54 -143V-148V-150V-152Q54 -161 50 -161L48 -163V-167Q50 -171 56 -171ZM123 -153H121Q118 -156 116 -156Q116 -153 118 -151V-147Q116 -140 116 -134L117 -133H119Q120 -135 126 -135L138 -139L144 -142H149V-143H150L149 -145V-151L151 -161H150L139 -157Q134 -157 126 -153ZM148 -136Q148 -134 135 -130Q133 -129 121 -126Q121 -125 116 -123L115 -122L116 -121V-120L115 -117L116 -114L114 -110Q115 -108 117 -108L123 -110H126Q128 -112 135 -113Q135 -114 144 -116Q148 -116 148 -122L149 -124L148 -126Q148 -128 149 -130L148 -131L149 -135ZM33 -135H35Q44 -124 44 -119L46 -117Q46 -115 47 -113V-112V-108L48 -104Q44 -95 44 -93L40 -87Q36 -82 30 -80Q30 -79 26 -79Q22 -80 22 -85Q23 -86 24 -96Q25 -96 27 -102L32 -126L31 -134ZM168 -114Q171 -114 173 -109Q177 -106 182 -106Q183 -104 183 -102V-100Q183 -96 176 -96Q172 -93 160 -89Q158 -87 150 -83H149V-82Q153 -78 155 -78Q160 -74 165 -72Q165 -69 174 -67Q175 -64 185 -59Q189 -55 199 -52Q201 -52 207 -48Q208 -48 210 -46Q215 -44 229 -41Q229 -40 234 -39V-38V-37V-36H224H220H218Q211 -34 200 -32Q200 -31 188 -28Q174 -36 168 -43Q167 -45 162 -47Q162 -49 153 -55Q153 -57 150 -57Q144 -63 142 -68Q141 -68 139 -72Q137 -75 135 -75Q118 -66 115 -66V-68L126 -74Q132 -77 132 -78Q134 -79 134 -80V-81L132 -85L126 -91L125 -93V-94L128 -97Q134 -97 140 -90Q144 -86 145 -86L157 -96L162 -102Q162 -103 164 -105L166 -108L164 -111V-112Q166 -114 168 -114Z"/>
</svg>