<svg xmlns="http://www.w3.org/2000/svg" viewBox="0 -256 256 256">
	<path fill="#000000" d="M145 -194H149Q154 -189 166 -187Q171 -184 171 -180Q169 -175 169 -173V-171H170L179 -173H181Q187 -171 189 -169L190 -165Q190 -157 175 -151Q168 -147 165 -147Q161 -147 157 -139V-138V-137L155 -135L156 -133L152 -129V-127L153 -126Q157 -127 163 -129Q166 -129 174 -132Q180 -132 194 -138H197Q209 -134 214 -131L223 -124L224 -119H223V-118L224 -117Q224 -114 220 -113Q220 -111 215 -111L213 -110H212Q210 -112 203 -112Q198 -112 188 -106H185Q184 -104 180 -103Q180 -101 184 -100Q187 -97 187 -96V-95Q185 -93 183 -93H181Q181 -91 177 -90L160 -79L159 -77H158V-76Q158 -74 162 -74Q167 -70 167 -69Q167 -68 169 -68L197 -74Q203 -77 206 -77Q214 -75 222 -66V-64Q220 -58 216 -58H210Q205 -60 202 -60L192 -63L190 -62L189 -63L185 -61H173H171V-60Q173 -57 173 -50V-48V-46V-45V-44L174 -40L173 -37L174 -34L173 -23V-21Q171 -17 170 -9Q169 -9 168 -5Q167 -4 165 3Q163 7 155 14H153Q151 18 148 18Q144 18 144 13L145 12Q140 -2 137 -2Q135 -2 131 -6L132 -7H135L142 -6Q148 -6 148 -14Q150 -15 150 -17V-18Q150 -23 153 -26L152 -28L154 -34L153 -36L154 -39L153 -42L154 -43L153 -54L154 -57H153L144 -56H139Q139 -53 126 -50Q125 -48 115 -47Q111 -45 104 -44Q102 -46 94 -53V-54L96 -55H99L102 -56L104 -55L105 -56H106H107Q109 -58 113 -58H115Q117 -59 119 -59H123L127 -61H128L131 -60Q131 -63 143 -64L149 -65L150 -67L145 -75Q146 -78 149 -78L154 -82V-85L157 -92V-94L158 -97Q149 -93 149 -92Q142 -87 141 -85Q139 -85 135 -81H134Q133 -81 132 -86Q130 -86 129 -88Q124 -90 124 -92Q124 -93 133 -95H138Q138 -96 142 -98Q145 -98 151 -102Q162 -102 162 -106Q165 -109 166 -110Q173 -110 175 -106L178 -104L184 -111L186 -116Q187 -116 188 -121L190 -125H191V-126H190H186H185Q183 -125 175 -124H173H172Q171 -123 164 -122H162Q162 -120 149 -118Q148 -117 146 -117H142Q142 -114 136 -114Q136 -113 134 -113L132 -114L124 -110H121Q120 -108 119 -108H117Q117 -106 118 -104V-103Q118 -101 116 -99L117 -93L113 -84L106 -80H104Q103 -80 102 -84L103 -87L101 -91Q101 -95 103 -98Q103 -99 105 -101L107 -107L108 -109V-114L110 -119V-122V-123H112Q115 -117 118 -117Q123 -117 135 -121Q136 -121 136 -122L135 -124L137 -127Q137 -134 134 -134Q129 -140 118 -149V-155Q128 -158 135 -159Q135 -161 140 -161Q140 -162 144 -163V-166V-170V-172V-176V-178Q144 -181 142 -189V-190Q142 -191 145 -194ZM72 -172Q73 -172 78 -169Q90 -165 90 -161L87 -151H88V-150L86 -141L85 -140L86 -138L85 -132V-128L87 -126L88 -127H90L91 -126Q91 -129 94 -129H99Q103 -128 107 -124V-118Q104 -113 103 -113H94L88 -116Q83 -113 83 -110V-109V-108L84 -107V-105L83 -103V-102L84 -98L83 -95L84 -93L83 -89V-77L82 -75L83 -71V-64L82 -60L83 -52V-48V-47L84 -37L83 -36Q84 -31 85 -31L84 -29L85 -20V-14Q85 -12 81 -9Q81 -4 79 -4Q79 0 72 5Q69 5 69 -1V-5Q68 -9 63 -14V-16V-21L65 -28V-31L67 -36L66 -39L67 -43L66 -50Q66 -53 68 -56L67 -58V-63V-64V-67V-74L68 -75V-78L67 -86L68 -95L67 -96L68 -97L67 -99Q67 -102 68 -102V-103L69 -110V-115V-119V-122V-123V-126V-131L67 -135V-140Q67 -145 68 -145V-147L67 -150L68 -153Q68 -158 63 -164V-168Q66 -172 72 -172ZM45 -129Q47 -129 50 -120L54 -113L53 -111L54 -103L52 -87H53V-86Q53 -82 39 -73H38Q31 -76 31 -83L32 -86L31 -94Q40 -111 44 -122V-123L43 -128Z"/>
</svg>