<svg xmlns="http://www.w3.org/2000/svg" viewBox="0 -256 256 256">
	<path fill="#000000" d="M155 -186Q170 -176 171 -176Q175 -175 175 -169Q175 -161 163 -159Q163 -158 161 -158Q161 -156 155 -154Q155 -153 152 -153L137 -140Q129 -135 119 -127Q126 -122 126 -117L128 -114V-111V-109Q128 -104 129 -101L138 -104H139V-105Q135 -108 134 -112Q130 -114 130 -118L132 -120H134Q140 -118 143 -116Q151 -122 159 -132Q160 -132 162 -138L161 -141V-142L166 -145Q168 -145 177 -138Q181 -138 183 -133V-130Q180 -126 176 -126Q176 -124 170 -124Q170 -122 166 -122Q166 -121 161 -121Q161 -118 157 -118Q157 -117 149 -114Q152 -108 154 -106Q154 -104 160 -97Q161 -97 164 -93Q170 -88 177 -80Q179 -79 191 -69L205 -60H206Q208 -60 210 -57L211 -58Q231 -45 238 -45V-44Q238 -43 231 -42H229Q229 -40 224 -39L223 -38H222Q220 -40 219 -40L217 -38L216 -39Q215 -38 211 -38Q211 -36 203 -35Q203 -34 201 -34H199Q189 -41 184 -48Q181 -48 175 -57Q174 -57 170 -61Q169 -61 168 -64Q163 -68 162 -72Q160 -72 158 -76Q154 -79 148 -89L143 -95H142Q142 -92 139 -92V-93V-92H138L133 -93Q131 -92 131 -91L132 -89L131 -86Q132 -86 133 -84H135Q140 -86 143 -86L147 -82V-78Q147 -75 135 -75L134 -72V-68Q134 -66 136 -64Q138 -66 148 -68Q151 -64 154 -64V-63Q151 -61 151 -59L148 -58L146 -59H145Q143 -56 139 -56Q136 -52 136 -48V-47V-46V-42Q136 -27 131 -13Q126 -8 126 -3Q123 0 121 3Q116 10 112 10Q110 8 110 2Q107 -10 102 -14Q101 -14 99 -18L98 -19H94L92 -21L94 -22L112 -20Q115 -27 116 -34V-36V-40Q118 -42 118 -45L117 -49L118 -50Q118 -51 116 -52Q115 -50 108 -47Q104 -47 100 -44H99Q98 -44 89 -50V-52Q89 -53 106 -56Q106 -57 114 -58Q114 -59 118 -59V-60V-62L117 -64L118 -68Q117 -70 116 -70Q115 -70 113 -68H110Q108 -68 106 -66H103Q101 -66 96 -70Q93 -70 93 -71V-72L95 -74H99L104 -76H105H108Q108 -77 110 -77H112L116 -79V-81L115 -86L116 -88H113L101 -85H100Q96 -88 96 -92V-94Q96 -95 98 -95Q101 -96 112 -98L114 -97V-99Q112 -100 110 -117Q108 -119 103 -132V-133L104 -134H107Q109 -134 111 -132H112L115 -130Q118 -130 125 -144Q128 -145 128 -146L127 -148L132 -155Q133 -157 135 -160V-161L134 -162Q132 -162 130 -160H129H128Q122 -156 120 -156Q117 -156 116 -154Q112 -154 106 -149L98 -144Q96 -144 93 -141Q91 -141 89 -140Q86 -140 79 -152Q77 -153 74 -159V-160Q75 -163 84 -163L94 -165L108 -169Q108 -170 116 -170Q116 -171 125 -172Q125 -173 131 -174L133 -176L134 -175Q142 -175 146 -181Q153 -186 155 -186ZM82 -129L86 -128L87 -129Q89 -128 89 -127H92Q103 -127 103 -121Q103 -115 97 -113L88 -100Q88 -97 85 -96Q80 -84 76 -84V-83L77 -82V-81Q74 -77 74 -74L58 -56Q58 -54 46 -44Q46 -42 29 -26Q20 -18 17 -18V-19V-21Q17 -22 20 -22Q37 -38 43 -48Q44 -49 52 -62L53 -66Q55 -66 58 -73L59 -77Q68 -93 73 -107L72 -108Q71 -108 67 -104Q65 -104 63 -103H61Q61 -101 58 -101L47 -94H44Q42 -98 33 -104L32 -107Q32 -108 43 -110L47 -111Q50 -113 56 -114L71 -119H72Q73 -119 78 -126Q80 -126 82 -129Z"/>
</svg>