<svg xmlns="http://www.w3.org/2000/svg" viewBox="0 -256 256 256">
	<path fill="#000000" d="M80 -197H81Q83 -193 89 -193Q94 -189 98 -187V-186Q95 -181 92 -162L93 -161H95Q99 -162 99 -163H102L107 -164Q113 -163 113 -160V-157Q113 -152 104 -148Q94 -144 91 -141L92 -132L91 -126L92 -125V-123L91 -122V-120V-116H92Q96 -120 100 -121L108 -127H110L111 -126L102 -116Q93 -106 91 -106V-102V-100Q91 -98 90 -96L91 -92L89 -89L90 -88V-84V-80L89 -76L90 -74L89 -57V-54V-50V-47L88 -40L89 -37Q85 -25 84 -25Q84 -21 76 -11Q74 -8 72 -6Q68 -8 68 -18H69L66 -21V-23L67 -25Q61 -26 61 -31Q48 -34 48 -39L51 -40Q53 -38 66 -34Q66 -33 68 -33Q71 -33 73 -43L74 -47V-50L75 -64L74 -67L75 -68V-71V-72V-76V-77V-83V-85V-89V-90V-93Q75 -94 73 -94Q73 -92 67 -88Q48 -70 47 -70H43Q42 -70 39 -74Q37 -74 30 -81V-83Q53 -96 63 -100Q63 -101 76 -106V-107L75 -113H76H75V-117L76 -128L73 -131H72Q69 -128 67 -128L66 -129L63 -128Q59 -133 53 -133Q53 -135 46 -138L44 -141V-143Q48 -146 56 -148Q57 -150 65 -151Q65 -152 70 -152Q70 -153 76 -154V-162V-165L75 -168Q75 -171 77 -179V-181L76 -182V-183L77 -185Q76 -188 74 -189L73 -193Q76 -197 80 -197ZM204 -171H205Q208 -168 210 -165Q214 -163 222 -160Q226 -157 226 -152Q215 -140 215 -131Q212 -115 201 -87Q200 -85 196 -82Q196 -80 187 -75H186Q185 -75 184 -81L185 -82V-83Q183 -83 183 -85L185 -87Q183 -89 183 -91L184 -95H183L179 -93L178 -95Q174 -95 172 -92L169 -93V-92V-91L170 -89L169 -86L170 -83L168 -80V-78L169 -77V-73V-65V-63V-59V-54L168 -51L169 -48H168V-47L169 -45L168 -40L169 -36V-34V-32L168 -31V-30H169L167 -8L168 -7Q168 12 161 19Q161 21 159 22L157 20L158 18L157 6V0V-7H158V-8Q156 -8 156 -10L157 -16V-18L156 -24Q158 -26 158 -28Q156 -30 156 -32Q156 -34 157 -34L156 -35V-37V-41L157 -44Q156 -44 156 -49V-52V-54V-56V-60V-61V-63V-68L155 -69L156 -71V-79V-81L155 -86V-90Q147 -86 143 -86Q141 -83 137 -83L138 -80V-77Q135 -70 132 -70Q130 -71 128 -76L129 -78V-80Q127 -80 126 -82L128 -85L125 -86L126 -89V-90Q124 -90 124 -101V-102V-103L122 -105V-106L123 -107L121 -116V-118Q120 -120 120 -121V-125Q118 -125 117 -134Q116 -134 116 -139Q115 -139 114 -144L113 -146V-148Q113 -149 116 -149L117 -146H118Q118 -148 134 -150Q150 -155 176 -160Q181 -162 189 -163Q189 -165 192 -165ZM190 -158H189L184 -157H182L165 -154Q168 -149 171 -149L173 -147V-144L172 -143V-140L170 -139L172 -138L171 -135V-133H172L176 -135L177 -134L181 -135H182L186 -130Q184 -127 183 -126H182L179 -127Q177 -125 175 -125L174 -126L171 -125V-124Q171 -121 170 -118L171 -117V-116L170 -114L171 -113L170 -110V-109V-105V-104L169 -102V-99Q172 -102 174 -102L175 -100H177Q177 -103 184 -104H187L188 -106L187 -107Q187 -113 189 -116V-122L191 -124V-130L192 -132L191 -133L192 -135V-140V-141V-142Q193 -145 193 -147L192 -149L193 -153V-154L194 -158L193 -159ZM128 -143Q128 -141 134 -140L136 -137L135 -130V-126L134 -124L137 -123L145 -125V-124Q154 -127 154 -129V-132V-136V-138L155 -140Q153 -145 152 -147V-149V-151H151Q145 -148 143 -148ZM143 -117H141Q140 -117 140 -120L138 -119L136 -120L135 -118L137 -99L135 -98V-97Q137 -97 137 -96V-94L138 -93Q143 -95 151 -96Q151 -97 153 -97H155V-99L154 -101L155 -104L154 -106L155 -109L154 -111Q156 -113 156 -118V-119L155 -122Q151 -118 146 -118Q145 -117 143 -117Z"/>
</svg>