<svg xmlns="http://www.w3.org/2000/svg" viewBox="0 -256 256 256">
	<path fill="#000000" d="M66 -181Q72 -177 82 -173L86 -168Q86 -163 84 -162V-155V-154L91 -157H92H94L95 -158H98H100Q103 -158 104 -153V-152Q104 -148 97 -147L82 -135L83 -131L82 -130V-129V-126V-123L80 -118L81 -117L80 -115L81 -113L80 -112Q81 -110 82 -109H83L106 -122H107L108 -121Q103 -116 97 -113Q92 -109 83 -100H82H81L79 -96L80 -94V-92V-85V-67V-65L81 -57L80 -54L81 -51L80 -47L82 -45Q80 -44 80 -42L82 -40L81 -39L82 -35L81 -31V-30Q81 -31 86 -35L92 -45Q93 -47 97 -50Q97 -52 100 -58Q100 -59 103 -63Q106 -67 106 -68Q104 -68 104 -72Q100 -73 100 -76L102 -77Q108 -77 109 -74Q113 -80 114 -82Q115 -82 115 -87H116L115 -88Q117 -91 118 -97V-98L119 -100Q119 -103 115 -105V-107Q117 -110 119 -110L122 -109H123V-111Q123 -112 119 -113V-117Q118 -122 117 -131L112 -142H113V-143Q112 -144 112 -147Q110 -147 109 -153Q108 -153 107 -159Q106 -159 105 -164Q106 -167 107 -167H108Q115 -161 119 -160L120 -159L139 -165Q141 -165 149 -168L157 -171Q167 -173 167 -175L176 -181Q179 -180 186 -174Q188 -174 193 -171Q194 -170 196 -167V-166V-165Q196 -160 193 -158Q193 -157 173 -137V-136Q175 -136 177 -133Q179 -133 180 -131V-127Q177 -124 175 -124H174L173 -125L163 -124H159L154 -123V-122L164 -117L165 -116V-112Q165 -108 163 -107V-104V-101V-99V-93V-92H164Q169 -93 178 -98H179H181L182 -99H189Q192 -96 194 -90Q193 -90 192 -86H189L181 -85V-86Q175 -81 173 -81V-82L165 -78Q163 -78 163 -76V-75V-68V-64L162 -62L163 -60V-59L162 -55V-54L163 -53V-52L162 -51H163V-45Q171 -40 199 -32L225 -26Q226 -25 231 -23L234 -24L237 -23H238Q241 -23 241 -22V-21Q235 -21 226 -16Q222 -16 218 -13Q216 -13 206 -6Q200 -3 198 -3Q191 -4 185 -9Q182 -9 172 -17Q161 -23 155 -28Q153 -28 149 -32Q147 -32 130 -48Q121 -55 116 -62H115Q104 -46 91 -35Q90 -35 84 -29H82V-27V-19V-17Q80 -15 80 -12Q78 -10 77 -5Q73 0 67 6H65Q62 6 62 -2Q57 -16 53 -16Q49 -22 45 -22L44 -23L46 -24Q48 -24 60 -21L63 -27L62 -30V-31Q63 -32 64 -37L63 -38L65 -53V-60Q65 -62 66 -62L64 -68L65 -74L64 -79L65 -82L64 -83L58 -81Q58 -79 42 -67Q41 -67 34 -59H31Q29 -61 21 -64Q19 -68 16 -68Q14 -70 14 -72Q14 -74 21 -75Q21 -77 32 -81L40 -85Q46 -89 49 -91Q50 -92 55 -92Q59 -97 64 -97L65 -98L64 -100L67 -104L66 -106L67 -113V-119Q67 -122 65 -122L58 -117H57Q53 -118 35 -132Q33 -132 32 -134Q32 -136 41 -139H44Q46 -141 51 -141Q51 -142 59 -144Q66 -147 66 -148V-150V-156L64 -170Q63 -172 59 -172L57 -174V-176Q62 -180 66 -181ZM159 -161L157 -162Q153 -162 140 -157Q138 -157 135 -155Q133 -155 131 -153Q128 -153 127 -150Q129 -146 130 -132Q131 -132 131 -128V-127H133Q134 -129 155 -134L158 -135H160H161L160 -139L162 -146V-148L163 -162L162 -163ZM142 -122Q142 -120 136 -119Q136 -118 133 -117Q133 -115 130 -112Q127 -108 125 -108Q128 -103 131 -103Q135 -99 135 -97Q132 -93 131 -93V-90Q127 -85 126 -80Q123 -75 123 -72Q124 -71 129 -66L135 -62L145 -54L147 -59L146 -61L147 -63L145 -64L147 -71L146 -74V-75V-80L147 -84L146 -87V-89V-91V-92V-94V-98L145 -102L146 -103Q145 -113 144 -119V-121Z"/>
</svg>