<svg xmlns="http://www.w3.org/2000/svg" viewBox="0 -256 256 256">
	<path fill="#000000" d="M138 -188Q139 -185 142 -185Q143 -185 147 -184L151 -183L153 -184Q157 -179 157 -176V-175Q157 -170 154 -168V-167H155H158L160 -168L163 -167Q163 -169 173 -171Q173 -172 177 -173Q186 -173 186 -168V-167Q181 -162 172 -159L167 -157Q163 -157 159 -154L154 -153Q152 -153 152 -152L153 -151V-149Q153 -147 152 -147L153 -146L152 -140V-139H153V-138Q154 -138 161 -141Q163 -141 174 -145L180 -149H182L188 -146L189 -147Q191 -147 193 -144Q201 -142 201 -140Q201 -130 196 -130Q196 -129 194 -128L193 -126L194 -125L197 -126Q205 -122 205 -120Q205 -118 202 -114H200L195 -113L191 -114H190Q189 -114 187 -112L185 -113Q181 -108 178 -101Q175 -99 175 -97L180 -93Q180 -86 170 -86L150 -82V-73V-72V-70V-68V-67Q150 -64 149 -64L150 -63Q154 -63 155 -65H156H157Q157 -66 163 -68Q163 -69 168 -70Q179 -69 179 -67V-64Q179 -61 162 -59Q162 -58 157 -57Q157 -56 150 -55V-54L149 -45V-44V-42V-37Q149 -36 147 -34L148 -32L147 -31H148L149 -32H150L159 -26L169 -23Q176 -23 176 -19Q179 -19 192 -14L200 -13H202Q204 -12 210 -11H212Q212 -10 218 -9L219 -8H222L235 -6Q237 -6 237 -5L236 -3H223Q221 -1 217 -1Q216 0 201 4Q196 9 192 9Q175 3 174 2Q174 0 170 0Q170 -1 166 -2L165 -4H163Q161 -6 154 -8V-9Q152 -9 151 -11Q149 -11 142 -17Q139 -17 135 -20L130 -27V-26H129L122 -32Q115 -37 114 -38V-37Q113 -33 109 -27Q106 -14 93 -3L87 2L80 8H78Q78 9 74 11L73 10Q73 9 78 7Q89 -5 92 -10Q96 -15 96 -18Q97 -19 97 -23L100 -34L103 -45Q104 -45 104 -50V-51Q105 -53 105 -54V-56V-65Q105 -69 103 -72L102 -75Q103 -78 104 -78Q107 -78 116 -70Q120 -68 122 -67V-66Q118 -63 117 -51L116 -48Q116 -45 120 -45Q126 -45 135 -38V-40V-43V-45V-49V-56L136 -59L135 -62V-63L136 -64L135 -69L136 -77L133 -78H132L129 -76L126 -77Q121 -72 119 -72Q116 -75 111 -77L109 -80L110 -81H113V-80Q117 -81 119 -83H123Q125 -85 128 -85Q135 -86 135 -88L136 -93L135 -95V-101H134L130 -99V-100H129Q115 -94 112 -94L109 -91H107L100 -97Q97 -97 97 -100Q98 -101 106 -102Q106 -103 110 -103H112Q114 -104 120 -105H121Q124 -107 129 -108L135 -109H136L135 -113L137 -122H136Q133 -120 128 -119Q128 -118 123 -116H122H119Q117 -118 109 -122V-124Q109 -125 113 -125L114 -126H118Q118 -127 134 -132Q136 -132 137 -134H136V-137L137 -140L136 -143V-146Q131 -145 127 -142Q125 -144 119 -147L113 -151V-152Q113 -153 118 -154Q124 -158 129 -158H131L136 -161V-163Q135 -176 132 -176L129 -180Q129 -183 136 -188ZM63 -172H64Q72 -164 79 -164L83 -158L82 -156V-155L79 -149L80 -146L79 -143L81 -142L89 -145Q98 -144 98 -140V-139Q96 -133 91 -130L78 -122V-119L77 -114L78 -113L77 -111V-110L76 -106L77 -102Q76 -100 76 -99V-95V-93V-90V-89L91 -99H93L95 -98Q84 -90 78 -83Q76 -83 76 -80V-77V-73V-70V-69V-67L75 -45L76 -41L75 -34L76 -31L75 -16V-14V-13Q74 -11 73 -2Q69 12 62 12H61Q57 8 57 1Q57 -4 48 -15L43 -20H40Q37 -20 37 -23V-24H39Q50 -18 57 -16L58 -18Q58 -28 59 -29V-32V-34V-37L60 -39L59 -42L60 -44L59 -46Q60 -46 60 -49V-62V-64Q61 -67 61 -69H59Q58 -67 48 -59Q37 -51 36 -51H35Q30 -54 25 -58Q24 -58 19 -63Q19 -64 26 -66Q26 -67 29 -68Q30 -69 37 -71Q37 -73 47 -76Q47 -77 50 -77Q51 -79 59 -81Q60 -83 60 -84V-88H61L60 -91V-92V-93V-95V-96V-97L61 -109H60L55 -104H53Q51 -106 47 -107Q44 -112 39 -115L32 -122Q32 -123 40 -126Q43 -129 51 -131L60 -135Q62 -135 62 -141V-142H61L62 -144V-150L61 -155L62 -157Q60 -157 56 -162Q56 -166 63 -172ZM151 -122L152 -121L151 -118V-114L152 -113L158 -115Q158 -116 170 -118L171 -121V-125Q172 -127 174 -134H172L159 -130Q152 -127 152 -126ZM153 -105L151 -106V-105V-101L150 -95H151L150 -92V-91Q156 -91 162 -94H165Q165 -97 167 -98L166 -100L168 -106L169 -108V-109Q165 -109 157 -107Q154 -107 153 -105Z"/>
</svg>