<svg xmlns="http://www.w3.org/2000/svg" viewBox="0 -256 256 256">
	<path fill="#000000" d="M150 -213H152Q155 -210 164 -207Q167 -203 167 -199Q165 -196 165 -195V-191Q164 -190 163 -182H164L169 -185L173 -186L178 -189Q181 -189 184 -185V-184L183 -182V-181Q175 -174 171 -174Q168 -172 162 -170V-169L163 -167V-163L164 -160L161 -158L162 -154V-150L164 -151H173L179 -152Q185 -152 191 -144Q187 -138 184 -136H180Q168 -143 168 -144L162 -145V-143L161 -139L162 -137Q160 -133 160 -131V-127L155 -119Q152 -115 150 -115Q149 -116 148 -123L147 -124L148 -130Q147 -130 147 -131L148 -132L147 -135L148 -138L147 -140L148 -144H147Q143 -140 141 -139Q139 -136 136 -135L128 -127H127L126 -129Q134 -138 136 -142Q137 -142 139 -148Q144 -153 144 -156Q145 -156 147 -161V-162H146L144 -161H142L132 -167Q134 -171 140 -171L144 -172H145Q147 -175 149 -175V-177V-180V-185V-187V-192V-195Q147 -198 147 -202Q143 -202 143 -203V-204Q143 -206 150 -213ZM120 -203H123Q124 -203 128 -199Q131 -199 136 -192V-190Q132 -183 127 -183Q127 -181 118 -176V-175H120H121L128 -172L129 -168V-167Q129 -165 128 -165H129V-163Q127 -160 125 -160Q119 -160 110 -168L105 -165L100 -161L89 -153L88 -154V-155Q88 -156 97 -164Q97 -165 100 -167L102 -171V-172Q96 -175 96 -176V-177L97 -178H104Q106 -176 107 -176Q107 -179 114 -186Q114 -188 116 -189L117 -194L115 -196V-197ZM67 -199Q69 -196 76 -194Q78 -194 80 -191L81 -189L80 -185Q81 -182 83 -182L86 -184L89 -185Q92 -183 92 -182V-181V-180L89 -179Q89 -176 83 -174Q83 -171 80 -171L78 -168L80 -167L77 -160L78 -158L77 -155V-153L78 -152L80 -153V-152H81L83 -153L91 -149Q94 -145 94 -144V-139H95H100H101H103Q111 -145 112 -153V-155L115 -158H117L122 -155Q122 -154 129 -153V-149Q128 -149 126 -144Q122 -140 121 -140Q118 -138 118 -135L117 -134Q118 -131 122 -131L125 -125Q123 -119 120 -117H118L106 -124Q104 -124 101 -121Q98 -120 98 -119V-118Q102 -118 108 -114Q118 -113 118 -111L119 -110V-108L118 -104H119Q120 -106 132 -108L144 -112L147 -111Q149 -113 154 -113H155L157 -114H161Q174 -118 178 -118Q186 -115 186 -111V-108L183 -105L182 -106L178 -104Q170 -104 169 -106L167 -105H165H153H152L150 -104L149 -105Q146 -103 141 -103V-104Q138 -102 137 -102V-101Q141 -98 144 -95Q149 -94 149 -92Q154 -90 154 -88Q156 -87 163 -82Q163 -80 166 -80L171 -77Q172 -77 182 -71L190 -68Q197 -67 197 -65H200Q202 -63 207 -62L210 -63L211 -61H212H214L216 -60L217 -61Q219 -59 228 -59H230Q235 -57 235 -56Q235 -55 233 -55H222H221Q217 -55 214 -53H207H203L201 -50H200L199 -51Q192 -50 191 -48L190 -49L181 -44Q172 -47 156 -61Q156 -62 150 -65L142 -73Q141 -77 136 -83Q136 -86 128 -95L124 -100H123Q121 -100 120 -98H116H114Q111 -95 109 -91Q105 -88 105 -86Q97 -78 93 -72Q91 -72 87 -66Q83 -66 81 -60Q80 -60 80 -58Q77 -58 74 -52L75 -51Q69 -49 66 -46Q66 -45 60 -42Q48 -32 41 -28Q35 -23 25 -18H21V-19Q30 -22 53 -45Q54 -48 68 -61L84 -84Q88 -89 89 -89V-90L84 -89L83 -90Q83 -88 79 -87Q79 -86 72 -86Q70 -84 62 -80L60 -81Q60 -79 54 -77L53 -76Q50 -76 44 -81Q42 -81 42 -82V-83Q42 -85 50 -86Q50 -87 58 -89L61 -90L62 -89H63Q65 -92 70 -92L76 -94H78Q82 -97 93 -99Q93 -102 95 -104V-109Q95 -111 97 -113Q96 -117 95 -117Q94 -117 93 -115Q91 -115 82 -109H81L80 -110L84 -114Q84 -116 92 -122L95 -126Q95 -128 99 -130V-131Q96 -131 92 -136H91L88 -135L87 -136Q83 -141 82 -141Q80 -141 78 -148H77V-145V-130V-123L75 -118L76 -115L75 -113L76 -112L75 -106V-105Q72 -97 66 -97L64 -99V-106L65 -108L64 -110L65 -111L64 -117V-120V-122Q64 -127 66 -129L64 -130Q58 -125 58 -123Q55 -123 55 -120Q53 -120 47 -112Q45 -112 43 -109L30 -98H28L27 -99Q37 -108 37 -110Q48 -123 51 -131Q52 -131 53 -135Q56 -138 56 -143Q59 -146 59 -149L61 -150V-153H60Q59 -153 59 -152Q54 -148 53 -148L43 -156Q41 -157 36 -162Q36 -163 49 -168Q54 -171 58 -171Q58 -172 62 -174Q62 -177 63 -179Q63 -187 61 -194ZM122 -86Q124 -86 128 -83Q131 -83 131 -82V-81Q131 -77 123 -77Q123 -76 119 -75H118L114 -73V-72Q124 -70 124 -65L125 -64Q128 -64 132 -67Q137 -64 137 -62Q137 -58 124 -56V-55Q124 -53 125 -50V-48L126 -43H127L144 -48Q145 -50 147 -50Q148 -48 154 -47Q156 -45 156 -41L152 -36H144Q135 -36 131 -34Q127 -34 127 -33L128 -30L127 -27L128 -25L127 -24L128 -20V-18V-11V-5Q126 0 126 9Q125 9 123 14Q118 27 112 31L108 37H106Q105 37 104 31Q102 18 98 18Q89 10 85 10V9L86 8L97 9H100H102H105Q106 4 108 2L107 0L109 -5V-6V-7Q110 -11 111 -20L110 -23L111 -28V-31Q103 -28 101 -28L100 -27H99H98Q95 -27 93 -25L91 -24L89 -25L85 -23H84Q84 -20 77 -20Q77 -18 73 -18Q71 -22 65 -24V-26L66 -27Q72 -27 79 -29L82 -30H84Q84 -31 86 -32H88H89Q95 -35 99 -35H101Q101 -36 106 -37Q106 -38 111 -39V-44L110 -47L111 -48Q110 -50 109 -50Q107 -50 101 -47L97 -46Q90 -50 90 -51L89 -53Q93 -53 109 -58L110 -60Q109 -62 109 -65V-71L106 -70H105Q101 -68 99 -68Q95 -68 93 -70Q93 -72 118 -84Z"/>
</svg>