<svg xmlns="http://www.w3.org/2000/svg" viewBox="0 -256 256 256">
	<path fill="#000000" d="M154 -177Q156 -177 158 -174L167 -171Q175 -169 175 -166V-162Q169 -156 165 -151Q163 -151 163 -150Q158 -142 155 -140Q155 -138 153 -138Q150 -135 150 -132L145 -128Q145 -127 143 -125H142H141Q141 -124 136 -119Q136 -117 132 -116Q124 -110 124 -109Q122 -107 120 -107L119 -108V-109Q125 -113 125 -114Q134 -127 135 -130L139 -138Q145 -148 146 -154Q152 -164 152 -167Q151 -167 151 -171L149 -172V-174Q149 -176 154 -177ZM74 -172Q75 -172 77 -170Q79 -170 86 -167Q88 -165 93 -163L94 -162V-161Q93 -159 91 -159V-154V-144H92Q103 -146 103 -148L106 -147L109 -148L112 -147L113 -148Q110 -153 109 -156Q108 -156 107 -162L105 -163L106 -164Q109 -164 120 -161Q126 -156 126 -154L127 -149Q126 -149 124 -145Q120 -145 118 -144L116 -145Q114 -145 113 -140L109 -139L110 -137Q106 -132 104 -132Q102 -132 99 -128Q97 -128 92 -124Q88 -124 88 -121V-119V-111L87 -106Q89 -102 89 -99V-97Q89 -89 91 -89H92Q98 -95 102 -102V-108L101 -111Q104 -113 105 -113Q108 -113 111 -108Q112 -108 120 -101Q119 -96 116 -96Q116 -95 107 -91L106 -89H104H103Q103 -88 94 -81Q92 -78 88 -78H87V-75H90Q107 -72 111 -70H115Q121 -66 121 -64L120 -62L121 -59Q121 -56 113 -54H112H110Q96 -64 95 -64L89 -66Q87 -66 87 -58V-57V-54V-52V-50V-44Q87 -39 85 -37Q87 -35 87 -23Q87 -22 86 -21V-18L84 -10Q79 2 73 2Q72 1 72 -1V-4Q72 -8 68 -21V-23V-24Q68 -27 71 -27V-28Q69 -28 69 -29Q69 -31 71 -34V-36L72 -40L70 -42V-52L68 -54Q65 -51 61 -51Q61 -47 57 -47Q57 -45 53 -41H52H51Q50 -36 48 -35Q40 -23 33 -21Q28 -22 23 -31V-32Q23 -35 29 -36Q29 -37 36 -40Q36 -42 44 -46L45 -45Q45 -48 49 -48Q54 -53 61 -58L72 -68L71 -69L73 -74L72 -77L73 -78L72 -81V-95L73 -98Q72 -113 70 -113H68Q68 -109 65 -109Q64 -109 62 -107Q59 -107 57 -104H56L45 -111Q42 -111 37 -115Q36 -115 32 -118Q32 -121 45 -123Q45 -125 50 -126L56 -127Q56 -128 61 -129Q61 -130 68 -131L71 -134V-137L72 -141V-144Q72 -164 67 -164L66 -165Q66 -168 72 -171ZM192 -140H195Q202 -138 202 -134V-131L199 -126Q194 -126 191 -124L183 -121Q181 -121 179 -118L169 -114Q168 -114 163 -111L159 -109V-108Q162 -104 165 -104V-103L167 -104Q172 -99 172 -97L167 -91V-90Q166 -84 164 -84Q163 -84 162 -78Q159 -76 156 -69H155V-68L169 -54Q188 -45 194 -41Q198 -39 206 -34L215 -31Q218 -27 222 -27Q222 -24 229 -24Q232 -23 232 -20L229 -19L225 -21Q225 -19 221 -19H218L212 -17L210 -18Q204 -14 193 -10L175 -25Q167 -29 161 -38Q160 -38 155 -43L147 -50Q143 -46 140 -46Q140 -45 135 -43Q129 -35 98 -23H97L96 -24Q99 -28 102 -28L107 -31Q108 -32 113 -34Q113 -36 118 -37L128 -45L141 -61V-62Q133 -72 128 -77Q128 -78 121 -84Q121 -85 119 -85V-86V-87L121 -89H122L124 -88L126 -89Q128 -87 136 -86L145 -79L146 -78H147Q152 -81 154 -88Q154 -91 156 -92L155 -93L156 -98L154 -103V-106H153H152Q142 -111 142 -114Q140 -115 139 -117V-118Q139 -119 143 -119Q145 -121 147 -121H148Q153 -125 164 -128L185 -136Q190 -140 192 -140ZM50 -85L55 -83V-84H56Q61 -82 63 -80Q63 -72 60 -72Q60 -69 56 -68L49 -70Q47 -70 43 -75V-74H41L36 -77V-79Q41 -83 45 -83Z"/>
</svg>