<svg xmlns="http://www.w3.org/2000/svg" viewBox="0 -256 256 256">
	<path fill="#000000" d="M130 -204L134 -200Q136 -200 138 -198Q140 -198 141 -196Q146 -194 150 -194L153 -189V-187L150 -180Q151 -176 152 -176H153L167 -183Q167 -184 175 -185Q180 -183 180 -178V-177Q180 -174 176 -173H175Q171 -171 168 -171Q168 -170 159 -167L158 -166H155L150 -167Q148 -167 148 -153V-152Q148 -148 151 -148Q151 -149 158 -150Q158 -152 169 -154Q173 -154 176 -150V-148Q173 -146 164 -144Q164 -143 159 -143Q157 -140 155 -140H153Q151 -141 149 -141V-142L147 -141L146 -137L147 -135L146 -133L147 -131L146 -127L147 -126Q159 -131 164 -131L165 -132H169Q171 -131 174 -131Q176 -128 177 -126Q177 -123 170 -121H165Q161 -121 159 -119Q155 -119 154 -117H152Q149 -119 146 -122Q146 -114 145 -114V-113L144 -109L145 -107Q142 -103 142 -100Q138 -96 132 -90Q132 -89 131 -89V-88H132Q141 -90 141 -91H143Q149 -93 157 -94Q157 -95 161 -95Q161 -96 170 -98Q170 -99 175 -99L187 -94L189 -88Q189 -85 180 -84H178L177 -85L175 -84L172 -85H166H161L159 -84L156 -85Q155 -85 153 -83L150 -84L135 -81H133Q130 -80 128 -80V-79Q126 -79 126 -78Q131 -72 133 -72L138 -71Q143 -71 143 -64Q143 -63 137 -59Q136 -55 132 -51Q130 -46 123 -39Q123 -36 121 -36V-35Q121 -33 123 -33L129 -29Q129 -28 133 -27Q135 -25 147 -19L169 -7Q177 -3 180 -3Q180 0 192 3Q192 4 198 5Q205 8 226 13L228 12H231L232 13Q232 15 227 16L222 15Q210 16 205 18Q194 20 191 21H189Q189 22 185 22Q185 23 179 24Q174 28 171 28Q169 28 162 24L147 13L127 -5Q127 -6 124 -6L109 -21Q108 -21 102 -14Q101 -14 97 -9Q82 4 78 4Q78 5 76 5Q76 9 70 9Q61 15 53 16Q52 18 48 19L27 27H26L24 25V24Q24 23 31 22Q31 21 36 21Q36 19 41 19V18Q42 18 45 18L51 13Q51 12 55 12Q60 6 62 6Q65 6 67 4Q74 -1 76 -5Q78 -5 83 -10Q85 -10 93 -20Q95 -20 96 -23Q99 -25 102 -30Q100 -36 96 -38L93 -41V-44Q92 -44 88 -48Q87 -48 87 -51Q83 -51 83 -53V-54Q86 -57 88 -57L92 -55L95 -56Q97 -54 103 -53Q103 -49 105 -49L110 -45Q119 -59 120 -70L117 -73V-76H115Q107 -74 102 -73Q91 -69 85 -68Q84 -67 77 -65L71 -64Q71 -61 66 -61L65 -59H63V-60H62Q62 -58 57 -56Q57 -55 53 -54Q51 -51 47 -51H45Q43 -54 35 -60V-61Q35 -63 44 -63Q46 -65 51 -65Q51 -66 57 -68L60 -69H61Q67 -72 76 -73Q76 -74 81 -74L83 -76H85L87 -75Q91 -79 97 -79Q97 -80 103 -81L106 -82Q106 -90 101 -94Q101 -95 105 -98L121 -95L123 -92Q123 -91 122 -91L121 -90Q121 -87 123 -87H126L129 -88L128 -90L129 -93Q126 -97 126 -119L125 -140L126 -143L125 -146V-159L124 -163L125 -165L124 -169L125 -173L124 -176L125 -179Q123 -192 120 -192Q118 -194 117 -194V-196Q117 -200 125 -204ZM83 -182H84Q92 -175 99 -175Q107 -172 107 -167Q105 -162 105 -158L104 -157V-156L105 -152V-150V-148L104 -143L105 -140V-139L104 -137L106 -134H107L113 -136L114 -135L106 -129Q103 -128 103 -127V-121V-119Q103 -117 102 -117L103 -116V-113L102 -108L103 -105V-103Q101 -97 99 -95Q99 -92 91 -86H90Q87 -90 87 -95Q86 -99 85 -105L86 -108H85Q84 -108 81 -104L78 -102Q75 -102 72 -96Q70 -96 69 -94Q66 -91 60 -87L58 -86H56Q51 -91 47 -92V-93Q47 -95 51 -96Q51 -97 55 -98Q56 -100 63 -104L67 -105Q67 -107 70 -108H71Q72 -108 73 -112Q75 -114 79 -114L85 -119L87 -126Q85 -129 85 -131L86 -137L85 -139L86 -140Q85 -154 83 -157V-165Q80 -171 79 -171Q76 -171 76 -179Q78 -182 83 -182ZM71 -159Q74 -159 79 -154Q79 -150 71 -149L62 -145Q60 -145 57 -143H56Q52 -146 50 -149Q47 -149 47 -150V-152Q50 -155 71 -159ZM74 -135L75 -134L76 -135Q80 -133 81 -131Q81 -127 74 -126Q74 -123 65 -122Q65 -120 62 -120Q60 -120 56 -122Q54 -122 54 -123V-124Q54 -128 62 -129Z"/>
</svg>