<svg xmlns="http://www.w3.org/2000/svg" viewBox="0 -256 256 256">
	<path fill="#000000" d="M144 -185H149Q150 -185 155 -178Q159 -174 165 -172L166 -169Q166 -167 162 -162Q158 -154 150 -144Q150 -142 141 -134V-133L142 -132L157 -138Q157 -140 162 -141Q170 -146 174 -146L182 -149Q187 -149 189 -151H196Q205 -149 205 -145Q199 -139 192 -139Q187 -138 184 -136H181Q181 -134 176 -134Q174 -130 170 -130Q170 -129 169 -129H167Q167 -126 162 -125L152 -120L151 -119H150Q148 -121 148 -123Q144 -123 144 -126H143L138 -127Q137 -123 118 -105Q117 -104 110 -98Q108 -95 103 -93H102L101 -94Q108 -99 116 -112L122 -121Q125 -122 125 -123L124 -124Q126 -124 130 -134Q130 -136 131 -138Q131 -140 135 -146Q135 -149 137 -151V-152L140 -162V-163V-169Q139 -171 137 -177L135 -179V-180Q140 -185 144 -185ZM77 -168Q85 -162 90 -162Q90 -161 93 -161Q102 -159 102 -155V-146L103 -140L102 -133H103Q104 -133 106 -135L108 -134L110 -135Q117 -135 121 -130V-129Q121 -128 116 -126L113 -127Q110 -125 106 -125Q105 -123 103 -123H101Q101 -122 90 -118H88Q88 -116 83 -114Q81 -113 77 -112V-111Q77 -110 83 -105L87 -100V-92Q85 -90 85 -88V-87L94 -93H95Q98 -90 100 -90Q101 -88 105 -86L108 -81Q106 -81 104 -63Q100 -40 92 -24Q90 -20 88 -15Q76 -3 70 -3Q70 -1 67 0H64H63V-1L64 -4L62 -6V-7L63 -9Q59 -21 53 -24L51 -27H52H53Q59 -23 68 -22V-19Q77 -30 77 -32Q77 -33 79 -36Q81 -39 81 -43Q82 -43 83 -50Q86 -55 86 -62Q89 -66 89 -71V-72L88 -78L89 -79L86 -81Q80 -78 80 -77Q78 -73 74 -67Q74 -65 65 -54Q65 -52 59 -44Q58 -44 50 -36Q45 -32 31 -18L22 -13H20V-14H22L32 -24Q44 -37 52 -52L59 -63L60 -67Q60 -68 63 -71L62 -73L66 -84Q67 -88 68 -88V-90Q70 -98 70 -102Q68 -102 67 -107H66Q64 -107 61 -104Q59 -104 53 -101L52 -100L50 -101Q50 -99 44 -98Q41 -95 39 -95H35Q28 -103 27 -103Q24 -103 24 -106Q23 -108 19 -108L18 -109V-110L19 -112H20Q25 -112 32 -114Q43 -116 43 -117H44H49Q49 -118 50 -119H54Q55 -120 62 -122Q62 -123 68 -124L69 -123Q70 -125 77 -126L78 -127H81Q83 -127 83 -128L82 -132V-135Q79 -142 79 -144Q78 -144 77 -147L72 -154Q65 -156 65 -160Q65 -167 77 -168ZM162 -117H163Q167 -115 170 -113V-112H169V-111H170H174Q176 -108 178 -108Q181 -105 181 -104Q179 -99 174 -99Q173 -99 169 -95H168L167 -96Q162 -92 160 -92Q158 -92 155 -89Q142 -84 138 -80H135V-82Q135 -83 142 -86Q146 -89 146 -90Q147 -90 152 -96Q155 -97 159 -107V-111Q159 -112 156 -112V-113ZM188 -98Q191 -93 198 -90Q200 -88 200 -86L194 -81Q190 -78 186 -77Q186 -74 183 -73Q179 -69 176 -67Q174 -64 172 -64L169 -61L175 -55V-54Q176 -54 178 -51V-52H180Q183 -48 186 -47Q195 -40 211 -30Q221 -24 230 -20Q230 -18 238 -18V-17L237 -16H236H234H232H228Q226 -14 214 -12Q214 -10 208 -10Q208 -9 203 -8L201 -7H200Q198 -7 194 -12Q192 -12 188 -17L171 -34Q169 -34 167 -38Q166 -38 164 -41Q161 -41 156 -50V-53H155Q152 -50 145 -46H143V-47Q144 -50 152 -54V-55Q142 -66 141 -67V-69L146 -72V-73Q153 -73 158 -69L164 -63H165V-64L164 -66V-67Q172 -77 174 -80Q179 -84 181 -92L180 -94Q180 -98 188 -98ZM118 -91H120Q134 -82 134 -81Q134 -79 137 -77L135 -71L136 -68L135 -63L136 -59L134 -52L135 -50Q134 -44 133 -42L134 -38V-32L132 -31L133 -28L132 -25V-23V-22Q138 -26 139 -27Q144 -30 149 -34Q151 -34 151 -36Q157 -41 159 -41L160 -40L149 -25Q133 -8 129 4Q129 6 125 7Q124 8 122 10H121Q117 8 117 2Q115 1 115 0L116 -3Q114 -3 113 -5L117 -22Q117 -27 119 -36L118 -42L119 -46H118V-47L119 -49L118 -52V-59L119 -62L118 -75V-77Q116 -79 115 -87Q117 -91 118 -91Z"/>
</svg>