<svg xmlns="http://www.w3.org/2000/svg" viewBox="0 -256 256 256">
	<path fill="#000000" d="M170 -189H172H180Q184 -187 184 -184Q182 -174 176 -174L156 -160Q151 -158 150 -155L147 -153Q145 -153 136 -159L121 -167Q121 -169 131 -171Q136 -174 142 -175Q142 -176 145 -176Q150 -179 159 -181ZM57 -184H60Q65 -179 75 -175Q77 -172 78 -171Q78 -165 71 -161Q63 -153 57 -151V-150L58 -149Q77 -156 77 -158L79 -157L89 -162Q93 -166 95 -166L99 -163Q105 -160 108 -160Q114 -155 114 -153Q113 -149 108 -144Q108 -143 104 -136L102 -131V-130Q100 -126 98 -118Q95 -113 95 -109Q93 -105 83 -96H82Q81 -96 80 -102L81 -104H79Q79 -103 74 -103Q74 -102 68 -99L61 -96Q52 -94 50 -92Q47 -92 43 -83H42Q36 -86 36 -98L34 -115L33 -119V-120Q33 -123 25 -147L26 -148H27Q28 -146 41 -142L46 -145H47L52 -153L54 -161Q55 -166 55 -171V-173Q53 -175 53 -177V-178Q53 -180 57 -184ZM71 -149L70 -150Q65 -145 60 -145Q59 -144 47 -138V-137L48 -135Q47 -133 47 -132V-127V-123L48 -122Q55 -125 61 -129Q64 -129 66 -133Q69 -133 72 -136Q75 -136 79 -132Q79 -129 76 -128Q76 -126 73 -126Q73 -125 66 -124Q65 -123 53 -118L49 -119H48L47 -118L48 -117L47 -114V-113Q48 -111 48 -110V-107V-105V-104V-101V-99L51 -101Q55 -101 61 -104L71 -109Q82 -113 82 -116L84 -131L85 -132V-139L86 -147L85 -149Q87 -152 87 -154V-155Q87 -153 73 -150ZM149 -151H151Q158 -146 165 -146L167 -143V-142Q165 -135 158 -121Q157 -121 154 -110V-109Q156 -110 161 -112L162 -113L163 -112Q163 -114 177 -117Q182 -118 186 -122H188H190H191H194H197L202 -117V-115Q200 -110 199 -110H197L189 -109Q189 -110 183 -111L182 -110H178L177 -111L163 -106Q155 -104 152 -102H150Q148 -100 147 -95Q146 -95 146 -92Q145 -92 143 -88V-87Q145 -87 153 -82Q159 -80 159 -79V-77Q159 -74 154 -68L155 -66V-65Q153 -64 153 -55Q151 -55 151 -48Q150 -48 150 -47L151 -45L150 -41L151 -39V-37V-36Q153 -25 157 -23Q158 -23 160 -20L161 -21L169 -20H182L191 -22Q207 -24 207 -25Q207 -27 211 -28Q217 -36 217 -45V-48L218 -49Q219 -49 221 -40L220 -38Q220 -32 230 -18H231Q231 -9 219 -9Q214 -6 194 -4H192L186 -5H179Q167 -7 161 -8Q147 -14 147 -19Q144 -19 143 -34Q143 -41 145 -41L144 -44L145 -47L144 -50V-51V-53Q144 -61 145 -63V-64V-66Q146 -67 146 -75Q147 -75 147 -77L146 -79V-80V-82L143 -83H141Q141 -81 138 -76Q138 -74 135 -69Q132 -60 131 -60Q125 -51 121 -42Q120 -42 106 -23Q104 -23 104 -22Q100 -19 93 -10Q91 -10 77 5L66 14L65 13Q86 -8 93 -18L108 -39L115 -51L124 -68L129 -81L134 -93V-94H133Q126 -89 120 -87H119H118L112 -81Q108 -82 108 -86V-91Q112 -103 112 -107V-108L113 -115V-120V-123L110 -127V-129Q111 -131 113 -131Q119 -126 124 -126Q129 -125 129 -120Q125 -114 125 -113Q124 -112 123 -108Q121 -107 121 -104V-100Q121 -98 122 -98L134 -103Q134 -104 137 -104Q138 -105 138 -110Q139 -110 141 -114L142 -123Q144 -123 144 -134Q144 -136 142 -141L141 -144Q141 -147 149 -151ZM74 -85L85 -82L86 -81Q82 -75 76 -73Q75 -71 69 -70Q65 -64 57 -61L54 -60Q52 -60 52 -61Q50 -61 50 -56Q48 -56 48 -52V-44L47 -36V-33L48 -32H50Q61 -36 67 -39Q68 -39 73 -42L75 -43H79V-42L80 -43Q86 -43 86 -40Q85 -33 83 -33Q83 -31 78 -28Q76 -28 73 -25L65 -22L55 -18L48 -17Q38 -17 38 -21Q38 -23 37 -25V-34L36 -38L37 -40L36 -41L37 -43L36 -48L37 -49L36 -51V-54L37 -57Q35 -57 34 -67L33 -68V-73Q31 -76 31 -78V-80L32 -81H33Q34 -79 43 -74Q43 -73 48 -72L49 -70Q52 -73 55 -73Q57 -75 74 -85Z"/>
</svg>