<svg xmlns="http://www.w3.org/2000/svg" viewBox="0 -256 256 256">
	<path fill="#000000" d="M136 -190Q138 -190 144 -185L149 -182Q159 -179 159 -176V-174V-172L160 -170H161Q173 -173 181 -173L183 -175H186L189 -176V-175H190L204 -177Q207 -177 215 -175Q221 -170 221 -169L222 -165Q222 -162 215 -160H209L191 -162H187H184H182H181H180Q173 -162 171 -160L170 -161Q166 -161 164 -159L162 -160L159 -159L158 -160L151 -157L148 -158Q146 -158 143 -149Q140 -149 136 -143Q134 -143 128 -133Q121 -123 120 -122H119V-119L116 -117V-115L117 -114Q123 -117 135 -120L137 -121L141 -120Q141 -122 147 -123Q152 -126 164 -130H165H166Q169 -130 176 -128H179Q182 -126 186 -126Q190 -124 190 -119Q187 -109 186 -98V-97V-95L185 -83L186 -82L185 -81L186 -77H185L186 -74V-58L187 -55V-41V-36Q187 -23 185 -9Q178 9 173 9L167 15H165L164 14V11Q163 1 160 -2Q157 -11 149 -16Q145 -17 142 -20L145 -21Q151 -18 162 -17Q164 -20 164 -27L165 -28L164 -30Q166 -34 166 -44V-61V-69V-76V-89V-91V-95L167 -98L166 -99V-103L165 -107L166 -109Q166 -117 164 -117H163Q154 -114 151 -114H150L149 -115L141 -111V-110L139 -111L123 -105V-104Q124 -103 124 -101H125H126L128 -99L127 -94Q128 -88 128 -87H130Q134 -87 141 -90H143Q143 -91 151 -93Q151 -91 155 -91Q159 -89 159 -88Q155 -82 146 -82L135 -77Q132 -78 131 -79H129Q128 -79 127 -75L128 -72L127 -68L128 -63L127 -61L129 -60Q137 -63 139 -64Q147 -67 151 -67Q159 -64 159 -61Q156 -56 152 -56L150 -57Q142 -54 137 -51H133Q131 -52 128 -53L127 -51L128 -49L127 -45H128L127 -42V-34L128 -24L127 -16V-14V-13Q123 1 119 1L114 4Q112 4 111 -8L109 -11V-12L110 -20V-28Q112 -33 112 -37L111 -41L112 -43L111 -50V-54L112 -63L111 -65L112 -69L111 -72L112 -75L111 -86V-88Q110 -88 110 -94V-95V-97V-100Q110 -106 109 -106Q108 -106 107 -102Q104 -102 100 -95H98V-93Q97 -93 90 -84L67 -66Q65 -64 58 -60Q58 -59 43 -52L35 -47H34L33 -48V-49Q35 -51 47 -58Q56 -64 70 -77V-78Q72 -78 81 -88L104 -120Q105 -126 110 -130L119 -144Q119 -146 122 -150L121 -151Q117 -149 115 -148Q114 -146 112 -146H111L109 -147L97 -142Q94 -142 88 -139Q87 -139 85 -137Q81 -135 78 -135Q78 -133 74 -133L72 -131Q69 -131 66 -137Q64 -137 64 -140Q62 -140 56 -145V-146L57 -147H58Q63 -147 69 -149L83 -153H84Q87 -154 96 -155Q96 -156 103 -157Q103 -158 111 -159Q111 -160 120 -161L121 -162H126Q128 -162 131 -173V-176L125 -181V-182L130 -188Q133 -190 136 -190Z"/>
</svg>