<svg xmlns="http://www.w3.org/2000/svg" viewBox="0 -256 256 256">
	<path fill="#000000" d="M191 -181Q195 -176 198 -176Q201 -175 207 -174Q211 -170 211 -166V-163Q211 -159 202 -154L195 -147L188 -137V-136Q188 -135 193 -135Q197 -131 197 -128Q197 -124 193 -124Q193 -123 189 -122H187Q180 -122 178 -119H176L162 -116L161 -117L155 -113L153 -112L151 -113L146 -110L144 -111L143 -109L144 -107Q142 -95 138 -89Q138 -85 134 -77Q134 -73 131 -69Q131 -64 122 -47Q118 -44 115 -35Q111 -33 107 -25Q100 -19 95 -13V-17Q99 -23 102 -29Q104 -32 108 -43Q110 -45 112 -51L113 -58Q114 -58 115 -65L117 -66V-68Q118 -72 119 -78Q120 -78 121 -85Q122 -86 122 -87V-91L124 -98V-99V-102L126 -108V-111Q126 -113 127 -115V-117V-118V-120V-121Q126 -122 126 -126L122 -130V-131Q126 -136 128 -136Q134 -135 135 -131Q142 -130 147 -125Q157 -127 158 -129Q166 -131 170 -133Q174 -133 177 -147L176 -149L179 -156H178L172 -154L171 -153H168Q165 -152 165 -151H162L157 -149L153 -150Q153 -149 147 -148L145 -146H143Q140 -150 131 -160V-161L133 -162H135Q139 -162 144 -165L145 -164L165 -169L182 -174Q182 -176 189 -179ZM86 -178H87Q89 -175 93 -174Q99 -166 106 -164Q110 -159 110 -155Q108 -151 104 -149Q104 -148 101 -146Q101 -144 94 -140Q94 -137 88 -133Q84 -129 81 -127L67 -115H66V-114Q74 -112 74 -110Q83 -104 83 -100L82 -90V-89V-86V-85V-79V-77V-70V-57L83 -52L82 -50L83 -46V-45Q84 -44 85 -21L86 -17L85 -13L86 -9Q83 2 79 2Q76 5 73 5Q67 -1 67 -13L66 -18H68V-19Q67 -21 67 -23Q67 -34 68 -34V-37V-55V-57V-59L67 -66V-67V-70V-76V-78V-81V-83V-89V-90L66 -95L67 -98L65 -101L66 -104Q65 -104 65 -107L64 -108V-111L63 -113H62Q59 -109 54 -108Q50 -103 44 -99Q36 -93 33 -92H32L31 -94L43 -104Q45 -104 45 -108Q47 -108 51 -113Q58 -121 69 -139Q75 -145 79 -156Q78 -164 76 -166V-170Q79 -175 83 -177Q83 -178 86 -178ZM163 -114H166Q168 -111 182 -108Q184 -105 184 -104Q184 -100 181 -98V-94Q181 -91 180 -91V-88L179 -78H180V-77L179 -76V-72Q179 -71 180 -71Q183 -73 193 -75Q193 -76 196 -77V-81V-83L197 -91V-92Q194 -95 194 -98L198 -101H199L207 -95Q216 -95 216 -89L218 -84L207 -62L204 -57Q202 -57 201 -54Q199 -54 197 -51H196L193 -54L195 -59V-65V-66Q183 -62 179 -58H178L179 -57Q179 -50 177 -45L178 -36L177 -34V-30V-28H181L183 -30H184L185 -29L195 -32H198V-34Q198 -39 194 -43V-45L195 -46Q197 -45 202 -44L211 -41Q219 -34 222 -25L224 -17V-12Q224 -7 213 0H210Q208 -1 206 -5H204L205 -8Q205 -10 201 -20V-23L200 -25H199Q197 -23 193 -23L192 -22H185Q178 -21 174 -18Q171 -18 158 -14H156Q155 -12 151 -12Q149 -10 146 -10L142 -7H141Q139 -7 129 0H128Q122 0 122 -8V-10V-11V-14V-16Q131 -24 133 -29Q135 -34 135 -37V-38V-39L138 -41Q143 -40 151 -34L145 -25L146 -24L164 -27V-34L165 -44L164 -45L165 -48V-51L163 -52L148 -45L144 -42H141Q138 -42 136 -48L135 -49Q135 -52 139 -57L138 -58L141 -73L140 -80Q142 -82 144 -82L147 -79Q151 -79 155 -75V-72Q153 -71 153 -67Q151 -66 150 -60L151 -59H152Q154 -61 156 -61L157 -60Q159 -63 165 -65L164 -68L165 -70L164 -71V-73L163 -77L165 -80V-81Q163 -83 163 -84V-96L162 -103L160 -108V-109Q160 -112 163 -114Z"/>
</svg>