<svg xmlns="http://www.w3.org/2000/svg" viewBox="0 -256 256 256">
	<path fill="#000000" d="M161 -187H162Q163 -185 168 -185Q168 -184 175 -182Q178 -182 183 -176V-175Q178 -171 177 -163L172 -161L174 -158Q172 -155 171 -148Q170 -148 169 -144L167 -143L169 -141Q174 -142 185 -146Q186 -146 200 -156Q203 -156 207 -152L215 -149Q220 -149 222 -144L223 -140Q223 -135 219 -133H216L209 -131H204L196 -126Q196 -125 192 -125Q192 -124 186 -122Q176 -113 174 -113L173 -115L181 -123L180 -124Q186 -129 186 -130V-132Q190 -136 190 -139L189 -140L184 -138Q172 -136 168 -133H165V-131L163 -128V-127V-126Q163 -125 162 -125V-124V-122L155 -102L154 -99Q163 -96 169 -95L171 -94L172 -95Q177 -95 178 -89Q173 -82 168 -70Q163 -59 163 -47L164 -41H163Q163 -35 166 -33Q166 -29 173 -25V-26H174Q177 -25 178 -23L180 -24H181Q185 -22 194 -22H195H199H201H203L209 -21L220 -24H223L229 -31Q232 -37 232 -41V-49L233 -50H234Q235 -50 235 -37V-36L238 -26Q242 -22 245 -18V-17Q245 -11 234 -5L231 -4Q222 -1 213 -1L210 0H206H202H196H195H191L190 -1L183 0Q180 0 173 -4L169 -5L164 -9L159 -16Q159 -18 154 -28L153 -35L154 -37L153 -42L155 -45L154 -47V-50V-51V-56V-58L155 -59H154Q154 -61 156 -63V-65Q156 -70 157 -73L156 -76V-79L158 -81L156 -83Q158 -85 158 -87Q158 -94 154 -96Q154 -98 153 -98L151 -91Q150 -91 149 -86Q145 -79 144 -79Q144 -77 136 -67Q136 -65 128 -57Q127 -57 121 -50L115 -45L96 -31L94 -29H93L92 -30Q96 -35 101 -37Q119 -54 119 -58Q123 -58 127 -67Q128 -70 130 -70V-71L134 -79L137 -86Q137 -88 140 -88V-89L139 -90Q140 -92 141 -92V-93V-94L144 -100L143 -102Q147 -109 148 -114L150 -117L149 -118V-119L151 -124V-125L150 -126L146 -125L144 -126H143L144 -124L136 -121V-116Q136 -115 133 -114V-113L135 -111Q135 -107 129 -103Q128 -100 127 -100L125 -101V-100Q125 -98 122 -97Q118 -99 118 -104L117 -105V-109Q117 -111 120 -115Q120 -121 123 -125H122V-126L124 -137V-139L123 -143L125 -144H126L132 -138V-137L131 -135Q134 -133 134 -130Q139 -131 143 -133H144L147 -134V-133H148Q148 -135 152 -135Q156 -146 157 -152L156 -155L157 -156V-158L158 -160L157 -164L159 -171Q158 -175 154 -180V-182Q158 -187 161 -187ZM77 -184Q77 -181 91 -177Q93 -176 94 -170H93Q92 -170 92 -167L91 -165Q92 -165 92 -164Q91 -162 90 -155L88 -148Q87 -148 87 -145Q87 -144 89 -143Q95 -146 97 -146H101H107H108Q111 -146 112 -144Q112 -140 106 -137V-138H105L100 -133L86 -123Q85 -123 85 -117H84Q86 -113 88 -113Q89 -111 91 -109L93 -104L88 -100L89 -99H90Q91 -99 91 -100V-101H92L94 -99L96 -101L97 -100L100 -101Q103 -99 108 -95Q110 -95 110 -92L112 -90Q112 -89 110 -86Q110 -84 107 -82H106Q100 -83 100 -86L96 -88Q96 -90 93 -90Q87 -97 84 -97V-96L83 -92L84 -90L83 -75L84 -73L83 -70L84 -64L83 -61L84 -59L83 -56L84 -49V-45L85 -42V-41L84 -38V-37L85 -36L84 -33V-30V-29V-27L83 -22L84 -14L83 -10L84 -9Q84 5 78 9Q78 11 76 11Q74 11 72 4Q72 -14 71 -14L72 -21V-23Q72 -32 73 -36L72 -40L74 -51L73 -53V-56V-59L74 -60V-61L73 -62V-64L74 -69L72 -76L73 -77Q72 -79 71 -79H70Q70 -77 65 -72Q65 -71 62 -71Q62 -68 56 -66Q56 -62 49 -57Q37 -46 21 -36L11 -29L10 -30V-31Q17 -38 25 -42L39 -54Q39 -55 50 -65L64 -86Q64 -87 66 -89Q66 -90 70 -90V-91Q69 -91 69 -92Q69 -94 71 -94Q70 -95 70 -97L72 -102V-108Q73 -109 73 -110Q73 -112 71 -112Q65 -109 61 -104H60Q41 -109 41 -112Q36 -112 36 -113H34Q32 -113 28 -117V-118Q29 -120 31 -120L33 -119Q37 -120 46 -123L60 -129Q68 -131 71 -135Q77 -135 77 -140L78 -141Q77 -141 77 -143L78 -146L77 -149L78 -151L77 -156Q76 -157 75 -170Q74 -170 73 -174Q71 -175 71 -179Q71 -182 77 -184Z"/>
</svg>