<svg xmlns="http://www.w3.org/2000/svg" viewBox="0 -256 256 256">
	<path fill="#000000" d="M87 -184Q94 -179 97 -178Q103 -176 104 -172Q105 -172 105 -170Q105 -168 104 -166V-164Q104 -159 102 -159L103 -157L101 -153Q102 -153 103 -151L102 -147V-145V-143V-142H103Q104 -142 108 -145Q112 -145 114 -147H117L119 -146L120 -147H121Q128 -141 128 -140Q125 -137 124 -133H122V-134H121Q121 -131 117 -131Q117 -130 110 -127Q110 -125 104 -123L100 -120V-119Q101 -117 101 -113Q100 -113 100 -108V-106V-105L101 -101V-100L100 -99V-98L103 -99Q108 -97 110 -96Q114 -99 120 -102Q122 -104 126 -107Q130 -112 132 -113Q132 -114 137 -118Q137 -120 141 -122Q141 -125 142 -126V-127L140 -128V-129Q140 -130 144 -133H147L162 -117V-115Q159 -113 148 -112Q142 -107 138 -105L136 -106Q135 -104 130 -102L126 -101Q126 -100 122 -99Q122 -97 117 -97Q117 -96 113 -95L120 -92Q121 -90 126 -87V-86V-84V-83V-82Q126 -80 122 -78Q122 -76 118 -76Q114 -76 111 -79Q109 -79 103 -84H102L101 -83V-81L102 -80L101 -77V-74L100 -72L101 -69V-67L100 -65L101 -62V-57L100 -56V-55L102 -53V-50L101 -48L102 -45V-40L101 -39Q101 -36 102 -36L101 -25V-22L100 -16V-11Q98 -1 94 3L89 8Q86 7 86 5Q86 -5 84 -9Q85 -26 87 -38L86 -40V-43V-45V-47L87 -50L86 -52V-56V-64V-67V-69V-76V-77L85 -78Q81 -78 78 -73L71 -66Q69 -65 66 -61L50 -48Q41 -41 35 -39Q32 -36 29 -36H28H27V-37Q30 -39 38 -44Q38 -45 44 -49Q44 -50 57 -63Q67 -78 69 -79L82 -103L86 -109V-110L84 -112H83Q83 -107 72 -102Q72 -101 68 -101L54 -110Q52 -113 48 -115Q48 -116 46 -116L45 -117V-118Q45 -120 58 -123Q58 -124 63 -125Q65 -127 75 -130Q75 -131 81 -132Q81 -133 86 -134H88H87V-135Q87 -137 88 -137V-147L87 -155L88 -158Q85 -172 82 -172Q79 -172 79 -174V-176Q84 -184 87 -184ZM191 -139L203 -138L206 -139H207Q209 -136 214 -135Q216 -132 221 -130Q228 -123 228 -119V-117Q225 -115 225 -113H224H222Q222 -110 216 -109H215Q211 -109 207 -115Q206 -115 200 -122Q190 -131 185 -134V-135Q185 -136 191 -139ZM168 -106Q171 -106 173 -100Q178 -95 183 -92V-90Q175 -84 175 -82Q166 -72 162 -66L158 -62L155 -59H156V-58Q155 -57 152 -54V-53H153L161 -54H164L166 -56H169H171L176 -59L178 -58Q188 -59 188 -61V-65Q186 -65 185 -71Q184 -71 183 -76V-77L189 -73Q190 -73 197 -70Q200 -70 206 -64Q211 -56 211 -53Q212 -53 212 -44Q212 -36 207 -35Q207 -34 203 -33H201Q195 -33 191 -47L189 -54H188Q185 -52 178 -50L172 -48L158 -41Q158 -40 149 -36L138 -30L133 -28H132Q130 -28 129 -38Q127 -41 127 -45Q127 -48 134 -52Q140 -57 146 -64Q147 -64 147 -67Q152 -72 158 -84Q159 -84 162 -95Q162 -99 160 -100Q161 -104 168 -106Z"/>
</svg>