<svg xmlns="http://www.w3.org/2000/svg" viewBox="0 -256 256 256">
	<path fill="#000000" d="M82 -195H84Q87 -192 88 -192Q89 -192 93 -188H95Q98 -188 103 -183V-181Q102 -180 98 -167Q97 -156 97 -155Q97 -152 98 -152Q103 -154 104 -156Q105 -156 109 -158Q113 -161 115 -161Q124 -158 128 -153V-151Q125 -148 120 -145Q120 -144 115 -143Q113 -140 104 -136Q100 -133 92 -130V-129V-128Q94 -128 94 -127V-125L93 -123Q93 -122 94 -120V-118L93 -115V-113L92 -112V-111L93 -106L98 -107H102L108 -108Q111 -105 116 -105L117 -104H119Q124 -101 124 -98Q127 -98 127 -100V-104L129 -109Q127 -110 126 -117H127L124 -126Q121 -131 119 -133V-135Q121 -140 123 -140Q131 -139 138 -135H139Q141 -135 153 -149Q158 -154 160 -158Q162 -158 166 -164L169 -171L167 -175Q169 -185 174 -185H179Q181 -185 184 -180Q185 -180 195 -175Q205 -172 205 -168Q205 -162 199 -157L198 -156L195 -157L185 -153Q183 -153 177 -150Q170 -150 156 -141Q151 -140 144 -135H143V-134Q147 -134 147 -131Q147 -130 146 -122H147L145 -110V-109H146L152 -113L155 -112Q165 -114 169 -117Q173 -117 174 -119H177L178 -118Q186 -121 192 -124Q194 -124 202 -128Q204 -128 211 -133L212 -134Q231 -128 231 -123Q229 -116 226 -116H219L217 -117L212 -115H210Q205 -114 199 -111Q196 -111 190 -108Q187 -108 187 -106Q192 -105 193 -102V-99L192 -86L190 -68L191 -61L190 -50L192 -29Q192 -16 187 3L183 12Q182 12 182 15Q180 15 180 18Q178 20 177 20L176 19V17Q174 9 174 1L175 -1L173 -36L174 -41Q174 -63 173 -69V-71L172 -73L173 -74H172V-78L173 -80Q172 -81 172 -85V-88L171 -91L172 -95Q171 -95 169 -99L170 -100V-101H169L165 -98Q151 -99 151 -101L147 -103Q144 -103 144 -85V-82L142 -77V-74Q138 -68 138 -63Q134 -54 131 -51Q131 -49 126 -40V-39L127 -38H126L124 -39Q124 -37 114 -26Q110 -20 102 -15H101L100 -16Q100 -18 112 -32L116 -40L120 -52L119 -55Q121 -55 122 -61Q124 -61 124 -71Q125 -72 125 -74Q125 -86 126 -93L124 -94Q123 -93 121 -88Q117 -87 115 -86L102 -95Q102 -97 98 -98Q98 -100 94 -102L93 -103H92V-100Q92 -97 91 -97L92 -96L91 -81L92 -78Q92 -76 91 -76L92 -73L90 -58V-55V-52V-50V-47V-27V-23V-20V-17V-14Q90 -8 84 1L81 4H79Q74 0 74 -9Q73 -9 73 -11V-14Q75 -18 75 -22L74 -23L75 -32V-33V-35V-40V-51V-53V-56V-57Q76 -57 77 -74L78 -75V-76L77 -79L78 -81V-82Q76 -84 76 -86Q78 -86 79 -89V-90H76Q53 -63 36 -50Q29 -45 27 -45H26L25 -46Q43 -59 52 -74Q60 -81 60 -83Q60 -84 63 -88Q63 -92 67 -93L73 -106L75 -108Q76 -117 78 -119V-120H77Q76 -120 73 -117Q69 -116 65 -112L61 -109L59 -108L54 -113Q51 -113 49 -116Q47 -116 42 -122Q39 -122 37 -125V-126Q37 -127 46 -129Q46 -130 51 -131Q52 -131 63 -136Q66 -137 74 -140L79 -143L80 -153H81L80 -159L81 -161L80 -176Q78 -176 78 -181Q76 -182 74 -185V-186Q74 -190 82 -195Z"/>
</svg>