<svg xmlns="http://www.w3.org/2000/svg" viewBox="0 -256 256 256">
	<path fill="#000000" d="M144 -203Q151 -198 159 -195Q165 -194 165 -187Q165 -185 166 -185L180 -189L190 -186Q190 -184 194 -181V-178Q193 -171 187 -171L184 -170Q183 -171 178 -171L173 -170H171Q161 -170 161 -168Q160 -160 158 -156L159 -155L155 -132Q155 -122 149 -108Q147 -100 140 -96Q138 -94 136 -94Q135 -95 133 -106Q132 -106 132 -108V-112H131L128 -109H120V-110Q116 -109 104 -105Q104 -104 99 -104V-103V-101Q94 -92 92 -92H91Q89 -92 88 -107L89 -112L87 -128V-136L88 -138V-139L87 -141V-142Q86 -149 84 -149L73 -144Q67 -143 65 -140H62V-141Q58 -141 52 -147Q47 -149 44 -154Q44 -158 50 -158Q50 -159 54 -159L55 -158Q58 -159 60 -160Q69 -160 84 -165Q80 -175 77 -178V-180Q78 -182 81 -182Q85 -182 90 -178L92 -177L93 -178Q96 -176 101 -175Q105 -171 106 -170Q109 -170 116 -172L128 -176Q137 -176 137 -183V-188Q137 -190 133 -193L134 -195V-198L137 -201Q137 -203 144 -203ZM133 -164H128L122 -162Q114 -160 111 -158H108Q104 -156 104 -154V-152L102 -141V-140L103 -138Q108 -139 115 -144H116L117 -143L126 -148L131 -146L134 -145Q136 -146 137 -148L136 -149L137 -158Q137 -161 136 -161V-164L135 -165ZM133 -144L132 -143L133 -140Q131 -139 123 -136Q119 -135 110 -130H106H105L102 -131Q102 -126 101 -126L102 -124L101 -118V-116V-113H102L105 -114L107 -113Q107 -115 112 -116H114L125 -118Q125 -119 133 -120Q134 -131 136 -131L135 -138L136 -142V-144H135ZM110 -99Q119 -93 124 -93L125 -92L128 -90Q129 -90 129 -88V-86Q129 -85 131 -84Q138 -86 142 -86L160 -91L173 -95H174Q177 -95 183 -92Q184 -92 187 -85Q185 -83 180 -81H173H170L168 -82L153 -80L152 -81L149 -80H148L147 -81H146Q146 -79 134 -77H133L132 -78Q126 -76 126 -75V-73L125 -71Q130 -71 130 -69Q136 -66 137 -63L147 -56L152 -52Q154 -52 156 -50Q158 -50 158 -47Q164 -45 175 -38H176Q177 -36 179 -36L180 -37Q180 -35 185 -33V-32H188Q189 -31 200 -27Q200 -26 204 -25L205 -24H209Q210 -24 219 -20Q222 -20 225 -17L224 -16L212 -15L210 -16Q198 -12 194 -9Q190 -6 184 -6Q183 -8 170 -14Q169 -17 166 -17L163 -20L155 -27Q152 -27 144 -35Q140 -35 138 -39Q136 -39 130 -46Q128 -46 128 -49H127V-48V-45L126 -42H127V-41L125 -39V-37Q127 -36 127 -33V-32L126 -28L127 -25V-23L126 -22V-20L127 -19L126 -17L127 -14L125 -11L126 -5V-4V-2Q125 -2 125 0V1Q125 9 119 20L114 27H112L110 25L111 22L110 19V17Q109 15 109 10L110 -2L109 -7V-9L110 -13L109 -15L110 -18L109 -20Q110 -27 111 -27L110 -29V-31L111 -35V-41V-45V-49V-50V-57H110Q110 -54 103 -50Q95 -38 89 -34Q89 -32 80 -26Q80 -24 76 -22Q76 -21 61 -9Q45 3 39 6Q34 11 32 11H31L30 10V9Q35 4 44 0Q48 -6 57 -12Q57 -14 64 -19L74 -28Q74 -30 79 -33Q79 -35 87 -42Q90 -48 95 -53Q95 -55 99 -59Q99 -60 103 -63Q103 -64 105 -66Q105 -68 110 -72H108Q107 -71 100 -69Q96 -67 92 -66Q92 -65 87 -65Q85 -63 83 -63H82L80 -64Q80 -61 77 -61L57 -52Q55 -52 50 -57Q48 -57 44 -59Q41 -59 40 -62L43 -65L44 -64Q54 -65 61 -67H62L67 -69Q79 -71 79 -72H80H84L86 -73H89Q89 -74 92 -75H94Q97 -76 103 -77L105 -79L108 -78H110L109 -81L110 -85Q110 -88 105 -92Q105 -97 110 -99Z"/>
</svg>