<svg xmlns="http://www.w3.org/2000/svg" viewBox="0 -256 256 256">
	<path fill="#000000" d="M90 -185Q93 -183 93 -181H96Q98 -179 107 -175V-174Q106 -173 105 -166H107H108H111Q111 -167 114 -168Q123 -176 126 -178Q133 -172 139 -171L141 -169V-165L142 -163Q140 -158 134 -154L135 -152Q135 -149 133 -147V-145Q133 -137 130 -133L131 -131L126 -117Q125 -117 125 -113Q124 -113 120 -102Q116 -94 111 -94Q109 -90 102 -87Q102 -86 99 -86L98 -87L99 -99Q98 -100 98 -104Q94 -110 94 -113L95 -114H96L101 -108H102H105V-110Q107 -116 107 -119L108 -121L110 -122H109V-123L110 -125V-127L111 -134Q112 -134 113 -140L114 -141V-143L116 -154V-155H115L108 -153H106L105 -152H102Q102 -150 99 -148H98L97 -149V-148Q97 -144 94 -141V-139Q93 -139 92 -133L87 -127L88 -126V-125Q88 -122 82 -114Q81 -110 78 -108Q78 -106 71 -99Q69 -94 63 -88L52 -75L40 -62H39Q38 -62 38 -63Q38 -64 48 -75L59 -90Q62 -95 66 -99V-100Q71 -108 71 -111V-112Q74 -115 78 -125L82 -140Q80 -139 78 -139L74 -136H71Q66 -141 65 -144Q62 -144 59 -155Q59 -156 61 -157Q64 -157 64 -156Q66 -157 72 -158L74 -156Q74 -158 81 -159Q87 -160 87 -164V-166L88 -175L86 -180Q88 -184 90 -185ZM192 -181H194Q197 -178 200 -178L208 -175Q208 -174 210 -173Q212 -170 212 -169Q212 -163 208 -161H207Q207 -159 199 -149Q198 -146 196 -146Q199 -141 199 -140L196 -136L193 -137H192Q191 -134 188 -134H186H182H180Q177 -131 171 -131Q171 -130 167 -129L166 -128Q161 -127 161 -126H162V-125Q162 -120 154 -117Q152 -128 151 -135L146 -158L143 -169L142 -170V-171L143 -172H144Q147 -168 152 -167Q152 -166 156 -162L158 -164H161Q162 -165 168 -166L170 -167H173Q181 -169 183 -173ZM176 -161L175 -162H174Q173 -161 166 -160L165 -159V-158H164L162 -159Q160 -158 160 -157L161 -154L160 -151V-150L161 -145V-140Q161 -138 164 -136Q169 -137 173 -140L179 -141V-140Q182 -140 183 -158Q184 -163 185 -163L186 -164H181ZM130 -100H133L140 -98Q140 -97 148 -96Q149 -94 149 -92V-85H150L156 -86H157L163 -88H168Q173 -90 181 -90L182 -91H183L185 -90Q186 -92 188 -92Q192 -94 199 -94L200 -95H201Q204 -95 208 -96Q208 -95 214 -94Q226 -90 226 -84Q224 -79 223 -79Q221 -77 216 -77Q216 -76 212 -76Q210 -76 208 -78H204H201L192 -80L188 -79L187 -80L185 -79L181 -80L180 -79H178V-80Q174 -79 174 -78L168 -79Q168 -78 166 -78H164L162 -77L161 -78L151 -76L150 -77Q149 -77 149 -72H148Q149 -70 150 -70L149 -68L150 -66L149 -63Q151 -60 151 -58V-57L149 -55V-54L151 -53L150 -49L151 -45L150 -41V-37L149 -35L150 -34L149 -32V-30L148 -28L149 -23L148 -13V-12Q144 0 131 9Q127 9 127 4L129 2L127 0L129 -2Q128 -3 127 -12L124 -16Q121 -19 118 -20V-21Q119 -22 121 -22H122L129 -21L130 -27L129 -33V-36V-39V-44V-48V-51V-53V-57V-59V-66V-68Q128 -69 123 -70V-71Q121 -70 118 -70H116Q116 -68 110 -68Q110 -66 105 -66Q105 -65 98 -64Q98 -63 90 -62L88 -60L86 -61Q86 -59 76 -55L75 -56Q75 -54 70 -53V-54H69Q56 -47 49 -45L42 -41Q38 -47 32 -52Q30 -52 30 -55V-56Q30 -59 35 -59Q49 -61 53 -63Q56 -63 57 -65H58L61 -64Q67 -66 68 -67H73Q73 -69 83 -70Q83 -71 90 -71H91Q93 -72 98 -73Q98 -74 102 -75L105 -74L108 -77H115L118 -78L119 -77Q119 -78 127 -81L126 -83V-84V-86L125 -89L126 -90Q126 -92 124 -94V-96Q125 -98 130 -100ZM168 -63L183 -59Q183 -57 186 -57Q194 -51 194 -48Q195 -48 197 -41V-38Q197 -32 191 -32L186 -29H185Q181 -29 177 -36Q174 -37 174 -41Q171 -43 167 -51Q164 -53 156 -60Q156 -62 159 -62H163ZM99 -62Q100 -62 100 -58Q102 -58 103 -53Q104 -53 105 -50L106 -49L105 -48V-47L106 -45V-42Q106 -40 104 -39V-37L105 -36L103 -34V-33V-32L99 -27Q97 -27 93 -25Q91 -25 89 -24Q85 -25 85 -31L86 -34L85 -36Q85 -39 92 -48Q92 -50 94 -53Q94 -58 96 -58V-60Q98 -62 99 -62Z"/>
</svg>