<svg xmlns="http://www.w3.org/2000/svg" viewBox="0 -256 256 256">
	<path fill="#000000" d="M140 -197Q150 -194 150 -192Q148 -183 144 -183L134 -179H130Q130 -176 122 -174L119 -172V-171Q123 -170 123 -169L125 -170Q127 -167 129 -167L128 -164Q132 -164 132 -161Q133 -161 133 -158V-157Q133 -156 129 -155L128 -153H129Q130 -153 138 -158Q149 -162 155 -163L159 -165Q160 -165 166 -160Q171 -158 174 -158Q180 -156 180 -153Q180 -148 173 -141Q170 -133 167 -133L168 -130Q168 -129 167 -129Q167 -125 163 -118L161 -114Q161 -108 153 -103Q146 -98 144 -98Q142 -98 141 -103Q142 -106 143 -106L141 -110L143 -112L142 -114V-116H141V-117L138 -116H136L134 -117Q120 -115 120 -113Q119 -113 119 -115L117 -114H116Q115 -114 115 -115V-116H114V-115L115 -113L103 -109H101L98 -110L96 -109V-110Q96 -107 94 -107L85 -104Q85 -101 80 -101L79 -99V-96Q79 -95 78 -95Q80 -94 80 -93Q77 -90 77 -88L76 -87V-86H74L71 -89Q69 -89 69 -92L67 -97Q64 -97 63 -107Q58 -122 56 -123Q56 -126 52 -129L49 -135V-136V-137V-138V-140V-142Q49 -144 51 -144L55 -141L56 -142L66 -137Q70 -138 71 -140H73V-139L76 -140Q79 -141 84 -142L85 -144V-145L83 -155Q83 -161 85 -161Q93 -155 93 -153Q95 -153 98 -149Q102 -149 102 -148L113 -152L114 -153V-158L113 -160L114 -162Q114 -166 112 -168V-167Q110 -167 110 -170Q108 -169 106 -169L107 -166L106 -165L103 -166Q103 -163 96 -161L89 -166Q88 -168 80 -175Q78 -178 78 -180V-181Q78 -183 82 -183L88 -185H92Q94 -187 100 -187Q104 -189 120 -192ZM138 -147L135 -148Q135 -146 129 -145V-146Q126 -145 126 -144L127 -142L124 -134L121 -133L122 -130Q120 -125 120 -122Q126 -122 130 -125Q138 -126 142 -128H143L144 -127L146 -129V-134L148 -136L147 -137V-138L148 -140L147 -143L148 -147V-148V-149Q139 -148 138 -147ZM101 -133V-131H102V-128V-121V-119L103 -117Q107 -117 112 -120H111Q111 -122 113 -126L112 -129L113 -131L112 -133L113 -135V-136L112 -139H113V-140L112 -141Q103 -140 103 -139ZM73 -128Q75 -126 76 -120L75 -117L76 -116V-113Q76 -109 80 -109H81L85 -111Q92 -113 92 -114V-115L89 -129V-131L88 -133H85Q82 -131 77 -131Q77 -130 74 -129ZM107 -107H109Q109 -106 115 -106L119 -102H124Q125 -102 127 -99L125 -95L126 -93L125 -91V-86H126Q128 -90 134 -90L137 -92H138Q143 -92 150 -95Q153 -95 153 -94L156 -95H157H158Q158 -96 162 -96L164 -98H166Q167 -97 171 -96Q171 -95 176 -92V-90Q176 -84 167 -84H162H159L148 -82V-83Q125 -80 125 -78V-74Q125 -72 130 -72Q133 -68 142 -63Q142 -62 147 -60Q150 -57 159 -53H160Q160 -51 164 -51Q164 -49 168 -49Q171 -46 178 -45Q194 -38 196 -38V-37L200 -38Q200 -36 205 -36Q205 -35 207 -34L209 -35L216 -32H217L221 -31Q224 -31 230 -28V-27L222 -26L215 -23L205 -18L194 -11H188L178 -15H177Q175 -18 170 -20Q166 -23 154 -32H151L143 -41Q142 -43 139 -43L133 -48Q130 -52 127 -54H126Q125 -54 125 -50V-35V-31V-27V-24V-21V-18V-16V-15V-12V-8V-4V-1L121 12Q117 18 114 21H113Q112 21 110 15L111 11L110 10L111 9V8Q109 8 109 6V3Q108 3 108 1L110 -9V-12L108 -17Q110 -19 110 -24V-28V-29L108 -41L109 -43L108 -46L109 -48L107 -53Q103 -53 101 -50L97 -47Q90 -41 80 -33Q78 -30 67 -24Q60 -18 39 -10Q30 -7 28 -7L26 -9L40 -14L59 -26L66 -32L74 -38Q74 -39 83 -47L94 -59Q100 -64 102 -70V-72H98Q90 -70 80 -66L65 -61Q65 -60 60 -59Q60 -58 54 -56Q52 -56 44 -65Q41 -66 41 -67Q41 -68 53 -70Q57 -72 67 -74V-73Q71 -75 75 -76L76 -77H80Q81 -77 84 -79H88L97 -81H98Q98 -82 100 -83H104L107 -84Q107 -99 103 -102V-103Z"/>
</svg>