<svg xmlns="http://www.w3.org/2000/svg" viewBox="0 -256 256 256">
	<path fill="#000000" d="M77 -194Q77 -192 81 -191H82Q90 -191 93 -185L95 -180H94H93Q90 -171 90 -166V-164L95 -167H96H97H99Q104 -164 105 -162V-161Q105 -157 97 -151Q96 -151 94 -149Q91 -149 89 -146L86 -145L87 -141V-140L85 -138L86 -137L85 -122L90 -119V-121L95 -120H98Q102 -117 105 -116L108 -112V-110Q108 -106 101 -101H100Q94 -105 94 -107Q89 -112 84 -114V-113L85 -108H84L85 -107L84 -103L85 -97Q83 -95 82 -84V-83V-82L83 -81V-79L81 -77L83 -75H82V-74L83 -72V-71V-66V-64V-61V-58V-56V-46V-43L82 -41L83 -39V-34V-21Q83 -9 72 -2H70L67 -6V-14L66 -19V-22V-27V-30V-33V-35V-36L67 -38V-46Q68 -51 69 -53Q68 -56 68 -59L69 -61L68 -64L69 -66L68 -72V-74V-75V-78L69 -86V-89L70 -99L72 -100V-101H71Q67 -98 67 -94Q66 -94 62 -87Q54 -83 54 -79Q50 -77 45 -71L31 -59L20 -52H19L18 -53V-54L28 -61Q43 -75 45 -81Q49 -82 49 -86L55 -96Q57 -98 59 -103L60 -104V-106Q70 -125 70 -132L71 -133V-134V-135Q62 -131 59 -127V-126H58L47 -129Q47 -130 42 -133Q39 -136 34 -138L33 -140Q33 -141 37 -141Q39 -143 43 -143L44 -144L46 -143Q48 -146 52 -146Q53 -149 55 -149H56L57 -148L63 -152H67L71 -155V-156Q71 -166 73 -171L72 -174V-176V-177L71 -179L72 -181Q68 -181 68 -185Q67 -185 67 -187V-189Q72 -194 77 -194ZM133 -183H135Q137 -183 138 -181Q146 -180 146 -179H148H149Q153 -179 156 -171L154 -169V-168L155 -167L165 -171H170H171Q174 -171 177 -168V-165Q177 -162 172 -160Q172 -158 166 -157L158 -152Q155 -152 154 -150L152 -149L153 -147L151 -135L152 -132L151 -131Q152 -128 153 -128L156 -131L158 -130L159 -131Q168 -130 168 -127V-126Q168 -121 163 -121Q163 -120 161 -120Q161 -118 157 -117Q157 -116 153 -116Q153 -115 150 -114V-109V-108L149 -107L150 -104L149 -102L150 -100L148 -95L151 -92Q154 -93 159 -96Q162 -96 165 -98L170 -99H172Q173 -98 176 -98V-93Q174 -91 166 -90Q166 -89 162 -88Q162 -86 158 -86Q154 -83 150 -82Q150 -80 147 -80V-78Q147 -72 140 -57Q135 -46 131 -41Q131 -39 117 -17Q116 -16 108 -5L101 2H100Q99 2 99 0Q120 -27 120 -35Q122 -36 127 -49H126V-50Q130 -56 130 -63L131 -64V-67H132L131 -68Q131 -71 133 -72V-73H132Q132 -71 129 -70Q129 -67 126 -66Q126 -64 122 -63L114 -56H113Q107 -63 98 -68V-69Q98 -70 103 -71Q103 -72 108 -73Q108 -74 121 -79L135 -86Q135 -91 135 -92V-95V-101Q135 -104 133 -104Q133 -101 124 -97Q114 -106 110 -107V-109Q110 -110 116 -112Q117 -113 124 -115Q124 -116 129 -118L134 -119Q134 -121 137 -121V-122L136 -123V-124L137 -125L136 -126V-137Q136 -140 138 -142Q128 -135 127 -135Q125 -135 125 -132H123L108 -146Q107 -146 106 -149V-150L108 -153H113Q114 -154 121 -155Q121 -156 126 -157Q126 -158 131 -159L135 -161V-164Q134 -164 134 -168Q131 -168 131 -172Q128 -175 128 -176Q128 -178 133 -183ZM221 -177Q224 -173 231 -169Q231 -168 232 -168Q237 -165 237 -160L238 -159Q238 -157 217 -136Q217 -135 212 -132Q212 -131 203 -122Q203 -120 201 -120V-119L204 -117Q204 -116 208 -114H212Q212 -112 215 -112Q216 -110 220 -109L230 -96Q233 -85 233 -82L234 -81V-79L232 -76L233 -74Q230 -59 228 -59Q228 -55 219 -47Q215 -50 215 -53H216Q209 -66 202 -70Q198 -73 196 -73L194 -76V-77Q198 -76 206 -75H207H210Q213 -75 213 -79Q213 -81 214 -81L212 -94Q212 -96 207 -104Q204 -110 197 -117V-118Q202 -126 203 -130L204 -131L203 -133Q205 -135 206 -142L207 -148Q208 -148 209 -150H207Q197 -147 197 -144Q193 -144 193 -136V-133V-130V-129L192 -127L193 -126L192 -124L193 -119L192 -114L193 -110H192H193V-109L192 -104L193 -99H192L193 -98L192 -94L193 -93L192 -90V-88L193 -84L192 -79V-78L193 -76L192 -73L193 -71L192 -67L193 -65L192 -62L193 -60L192 -56V-50Q192 -46 193 -44Q192 -40 192 -34V-27V-23V-18V-8V-6Q190 -4 189 7Q186 18 184 18L183 17V12V11Q183 5 182 1L183 -4Q182 -5 181 -12L182 -14L181 -20V-25L179 -27V-28Q181 -30 181 -32Q180 -32 180 -36V-39V-40V-50V-54L179 -61V-65L178 -77Q178 -81 180 -84Q178 -85 178 -89L179 -91L177 -101L178 -104L177 -108V-111Q177 -129 176 -137V-138L175 -147Q173 -147 171 -156L174 -159L180 -157Q183 -157 187 -153H188Q194 -159 199 -159L203 -162Q208 -163 219 -176Z"/>
</svg>