<svg xmlns="http://www.w3.org/2000/svg" viewBox="0 -256 256 256">
	<path fill="#000000" d="M150 -194Q154 -193 154 -190Q157 -188 164 -186H167L171 -181V-176Q171 -173 165 -171Q162 -166 158 -165Q158 -163 156 -163Q142 -148 137 -144L131 -140Q131 -138 128 -137V-136Q135 -132 135 -131H138L143 -128V-127Q144 -127 145 -124L144 -121L145 -117L144 -114V-110V-105V-104V-103V-93V-85V-84V-80V-75V-74V-72V-69V-67V-65V-51V-43V-41H146Q148 -41 149 -44L154 -43H156Q168 -45 168 -49V-62V-64V-67V-70Q166 -70 166 -71Q162 -69 157 -68Q153 -68 147 -74V-75Q147 -77 154 -77Q154 -79 165 -81L170 -85L169 -87L170 -98L169 -99L162 -96L159 -95H158Q157 -95 149 -100L152 -103L154 -102Q157 -104 167 -108Q170 -108 170 -123L169 -128L170 -130H168Q168 -128 162 -126L158 -123H156Q153 -126 146 -130V-132Q146 -133 158 -137L171 -142Q171 -143 176 -143Q176 -144 180 -144Q181 -146 185 -147Q185 -149 181 -149L169 -164L167 -166Q171 -170 176 -170L182 -169H185Q192 -168 192 -162L193 -158Q189 -150 188 -150V-148H189Q191 -150 200 -153L206 -156Q213 -153 215 -149V-148Q210 -142 207 -142Q203 -142 197 -140Q191 -138 189 -136L179 -134Q181 -132 185 -131L187 -126V-124Q187 -122 185 -122V-121Q186 -119 186 -118L185 -115H186L198 -119Q200 -119 204 -113V-112Q204 -109 191 -107Q191 -106 186 -105H185L184 -106V-105Q185 -105 185 -104L184 -98L185 -96L184 -93V-89L185 -88Q187 -90 198 -92Q203 -90 203 -87Q203 -79 193 -78Q188 -76 183 -76V-63V-47H185Q191 -47 193 -49L196 -48L216 -52H218Q228 -47 228 -41V-40Q222 -35 220 -35H218Q211 -35 202 -37Q202 -36 199 -36L197 -37Q195 -36 180 -34V-35H179L177 -34H174Q161 -33 158 -31Q145 -29 144 -28V-26L145 -22L144 -14V-11V-9V-5Q144 7 139 13Q136 18 133 18Q129 18 128 11L127 10V5Q127 2 126 -4L129 -22L128 -23L129 -26L128 -27L129 -30V-34V-36L128 -38L130 -52L129 -55L130 -57L129 -64V-71Q129 -73 130 -75L129 -77V-86V-88V-89L130 -94L129 -98Q129 -100 130 -100L129 -104V-119L127 -123Q129 -124 129 -126Q127 -126 127 -132L124 -134Q124 -132 120 -130Q116 -124 112 -124H111L110 -125Q113 -127 113 -129Q115 -129 118 -134L117 -135Q120 -135 123 -141L124 -140Q124 -142 127 -144Q131 -149 138 -165Q144 -175 144 -179Q145 -179 146 -185L145 -189Q145 -190 150 -194ZM81 -179Q86 -174 98 -171L99 -168V-167Q95 -162 95 -149L96 -148Q104 -152 108 -152Q116 -149 116 -148V-147Q116 -141 105 -137Q101 -134 96 -132Q96 -131 91 -130V-129L93 -127L92 -124L93 -121Q93 -119 92 -119L93 -114Q92 -113 91 -107H92V-106L93 -107H94Q101 -107 104 -104L111 -103Q116 -98 116 -97Q109 -90 108 -90Q102 -90 99 -94Q94 -97 93 -97L92 -95V-90L91 -88L92 -84L91 -78V-62L90 -54V-51Q90 -46 90 -36L91 -32Q91 -29 90 -29L91 -21V-20V-16V-14Q91 0 81 11Q75 10 75 3L76 0L72 -11V-12L76 -31L75 -33Q76 -52 78 -54L77 -57L78 -60L77 -64L78 -74L77 -77L78 -81L77 -86L78 -91Q77 -91 75 -86L69 -81V-78Q67 -77 64 -72Q62 -72 61 -68L50 -59Q38 -49 32 -45Q32 -44 27 -42V-46L35 -53Q35 -54 38 -54Q38 -57 44 -63L52 -74L61 -89Q63 -90 64 -96L70 -107L76 -120V-121H75Q59 -108 56 -108Q52 -112 46 -116Q46 -117 40 -119V-122L50 -126Q51 -126 59 -131L68 -133Q70 -136 79 -139V-140Q78 -141 77 -148H78H77V-154Q77 -168 71 -171V-173Q71 -177 77 -179Z"/>
</svg>