<svg xmlns="http://www.w3.org/2000/svg" viewBox="0 -256 256 256">
	<path fill="#000000" d="M125 -185L130 -180Q142 -177 142 -172Q142 -168 137 -165Q137 -162 133 -162Q127 -156 125 -156Q125 -154 116 -149Q116 -147 111 -144L109 -142H111Q113 -144 117 -144Q117 -146 123 -147L129 -149Q129 -150 132 -150Q132 -151 139 -153Q139 -155 147 -161H148L156 -156H157Q164 -156 165 -151V-149Q160 -143 159 -138Q158 -138 158 -135V-134L150 -109L145 -104Q138 -97 137 -97L136 -100V-101L137 -103L136 -104Q129 -101 123 -100Q115 -95 112 -95V-94L113 -92Q111 -86 107 -86Q107 -88 103 -93V-95V-96L101 -108V-110L102 -111L101 -114V-115Q100 -116 99 -128L100 -130Q99 -130 98 -142L99 -143L103 -141V-142Q103 -144 109 -149L116 -163Q116 -166 120 -171V-176Q117 -176 116 -181Q123 -185 125 -185ZM63 -175L67 -171Q73 -168 77 -168Q79 -167 79 -165V-160L77 -158H78V-157Q78 -155 77 -155V-152V-150V-148L80 -149L82 -148Q82 -150 88 -151L91 -153H92Q96 -152 96 -151V-150Q92 -142 86 -140Q81 -138 76 -133Q73 -133 73 -131V-130L74 -129V-126L73 -122L74 -121L73 -119Q74 -116 77 -116V-115L75 -113L76 -112L78 -113L80 -112L81 -113Q88 -111 88 -110L90 -111H93Q97 -111 100 -104V-103Q95 -95 93 -95Q92 -95 83 -101L77 -104Q75 -104 73 -106H72V-105Q72 -104 74 -102Q73 -95 72 -95L74 -93L71 -89L73 -83Q72 -82 72 -77V-75L71 -72L72 -68V-63L73 -61V-58L74 -51L73 -44L74 -38H73V-37L74 -35V-32L72 -31V-30Q74 -30 74 -29L73 -27L74 -25L73 -23L74 -17V-14Q72 0 70 0Q70 3 64 7Q64 9 61 9Q60 9 60 6V5L57 -5L58 -20V-23Q58 -46 60 -50L58 -61L59 -63L58 -66H59L58 -67V-68V-74V-81V-85H57Q57 -83 51 -77Q51 -76 47 -74Q43 -67 29 -56Q7 -38 4 -38L3 -39V-40Q6 -43 11 -46Q34 -66 34 -70Q35 -70 41 -78Q41 -81 47 -87L53 -99L61 -122H60Q54 -117 49 -115Q48 -112 45 -112Q44 -116 40 -116Q40 -117 34 -121H33Q32 -121 31 -124Q26 -125 26 -126Q27 -129 36 -131H39Q39 -133 47 -134Q47 -135 62 -141V-142V-148V-150V-154V-160Q60 -167 55 -167V-168Q61 -175 63 -175ZM208 -172Q214 -169 214 -168V-167Q214 -160 202 -158Q202 -157 194 -154Q193 -152 184 -149Q183 -149 179 -146Q172 -152 168 -154L166 -156V-157Q166 -158 175 -160Q178 -162 185 -164Q193 -167 196 -167Q196 -168 201 -169L206 -171Q206 -172 208 -172ZM185 -148H187L199 -140V-136Q198 -131 195 -127H194V-126L195 -124Q194 -124 194 -120Q192 -120 191 -115L190 -114V-113Q190 -112 192 -112L210 -117Q211 -116 217 -116L219 -113Q218 -108 214 -108Q209 -108 196 -104L185 -100V-99L186 -98L182 -90V-89L188 -83Q192 -83 192 -80V-79Q190 -76 187 -66L188 -63L186 -62V-60L184 -43V-41H183L185 -34L184 -33V-32Q186 -32 187 -28L193 -24L201 -23H206Q213 -24 224 -25Q229 -28 235 -29Q239 -36 239 -42L241 -45H242V-44V-43V-36V-33Q243 -28 252 -19V-16Q252 -7 244 -5L232 -3H228H226H223H219H215H213H210L201 -4H200L190 -6Q190 -7 187 -7Q183 -13 180 -16L179 -20L180 -21Q176 -21 176 -36V-39V-40V-43L177 -50L176 -51L178 -54L177 -59L181 -83H180Q179 -83 178 -78Q177 -78 174 -69Q172 -68 171 -62Q169 -59 169 -57Q167 -57 167 -54Q164 -50 163 -46Q154 -36 152 -31Q152 -30 147 -27L138 -15Q136 -14 134 -14Q131 -8 122 -3Q113 4 107 6H106L105 5Q106 3 112 0L116 -3L129 -13Q130 -13 132 -18Q133 -18 137 -23Q145 -31 147 -37Q150 -39 152 -48Q158 -54 158 -58Q162 -65 165 -75Q167 -75 169 -84L171 -92H170Q168 -91 165 -91Q165 -89 158 -86L155 -84H153Q146 -84 146 -86V-89Q148 -93 155 -97Q157 -103 159 -111V-113L160 -116Q159 -125 158 -125V-126L159 -127H164Q168 -122 170 -122L173 -119Q169 -112 167 -106L166 -104V-103H167L174 -105H176Q179 -115 182 -128V-136Q183 -136 183 -138Q181 -141 181 -143Q182 -143 182 -145ZM115 -136H111V-135H112H113L115 -134L114 -132L115 -130Q113 -129 113 -126H114Q117 -128 119 -128L121 -127Q121 -130 126 -131Q126 -133 129 -133H131Q134 -130 134 -128Q133 -127 128 -124L120 -120Q118 -120 116 -117Q113 -117 112 -117L113 -113Q113 -107 111 -104H112Q112 -105 115 -105L116 -107L117 -106L121 -108H125L132 -111V-110L137 -113L138 -122V-127L140 -138L139 -140V-145V-146H138Q129 -142 126 -142Q120 -138 115 -136ZM136 -86L141 -82V-81L136 -76V-77H135Q130 -74 125 -74L117 -71L111 -74V-73V-72Q109 -66 109 -62L108 -61L109 -59Q107 -54 107 -51L109 -50Q111 -52 116 -54H119Q120 -57 124 -57Q124 -58 127 -58Q127 -59 134 -62L136 -64H137L138 -63V-62Q120 -48 114 -42Q109 -37 105 -31L102 -30Q94 -33 94 -34V-35L93 -41Q96 -47 96 -67Q95 -69 94 -72L95 -75V-76L93 -83L94 -84H96Q101 -81 102 -78L105 -79L108 -77Q109 -78 116 -80Q119 -82 129 -86Z"/>
</svg>