<svg xmlns="http://www.w3.org/2000/svg" viewBox="0 -256 256 256">
	<path fill="#000000" d="M114 -178H116Q118 -176 132 -171Q138 -167 138 -164V-163L136 -162L137 -160Q130 -150 125 -149Q125 -145 116 -135H117H120Q123 -133 123 -131Q123 -126 117 -126H114Q114 -125 109 -123L100 -121H97Q97 -119 89 -117H87Q87 -116 85 -116L75 -110Q72 -110 72 -105Q69 -105 68 -98L66 -96L67 -95Q65 -93 65 -90Q63 -90 62 -82Q60 -81 58 -77L57 -76V-73Q55 -70 55 -68Q53 -68 53 -63L43 -46Q42 -46 38 -39L36 -38L37 -37Q37 -34 19 -14L7 -3L6 -4V-5Q28 -28 28 -33Q30 -33 33 -41Q35 -43 39 -54Q42 -60 45 -69Q51 -79 55 -95L57 -97H56L62 -122Q58 -129 58 -132Q59 -135 60 -135Q69 -128 74 -127Q77 -124 80 -124Q83 -126 94 -128L100 -131Q102 -131 104 -145L105 -147V-148L106 -155H105Q100 -155 93 -151Q87 -149 85 -149Q85 -148 78 -144H77Q74 -144 70 -152Q66 -153 64 -158L65 -159H69L80 -162Q87 -165 100 -167L105 -169Q105 -170 114 -178ZM188 -176H190L203 -171Q205 -170 205 -167V-164Q197 -153 195 -149Q193 -147 193 -146V-145Q193 -142 191 -137L189 -131L188 -126H189L191 -125L193 -126H195Q197 -127 203 -128V-129H204V-130L211 -128Q214 -126 214 -122Q212 -116 209 -116L205 -115Q204 -114 202 -114H193H189L187 -113Q178 -116 178 -124Q179 -136 180 -138L179 -139V-140L180 -141L179 -144H181L180 -146L181 -158V-159H179L175 -157V-158L173 -157H171Q167 -154 162 -153Q161 -153 159 -154H157Q157 -152 160 -150L161 -149L160 -142V-139Q159 -139 159 -136V-135L157 -132L158 -131Q156 -120 151 -113Q148 -113 148 -109Q146 -104 130 -92H129V-93Q138 -103 140 -111Q141 -111 143 -125H142L143 -127V-136L142 -138H143V-139L142 -141L143 -146Q141 -146 138 -157L140 -159H141L144 -157H146H148Q148 -158 151 -158Q158 -161 163 -162L169 -163Q169 -165 173 -165Q175 -167 177 -167Q179 -167 188 -176ZM100 -117H101Q109 -113 117 -110V-109V-107Q118 -106 123 -105L125 -100Q123 -95 117 -95H114V-91Q114 -89 113 -79V-77Q112 -77 112 -69H113L126 -74Q129 -72 132 -68Q129 -63 127 -63H126Q114 -63 92 -52Q86 -51 82 -49Q79 -48 77 -45Q79 -41 84 -41L90 -36Q90 -32 79 -26Q79 -24 75 -23L63 -11Q61 -11 49 -1Q47 -1 45 2H44H43L42 1Q43 -1 47 -3Q67 -19 67 -23Q74 -31 74 -36Q75 -36 75 -38L74 -41Q76 -41 76 -44L75 -45L68 -42L66 -41Q60 -41 52 -47Q52 -49 68 -52Q68 -53 72 -53Q74 -55 80 -57Q78 -59 78 -61Q78 -69 77 -74L78 -76L77 -77H76H75Q66 -82 65 -82H64V-83Q64 -85 69 -85Q72 -88 75 -88V-89V-90L76 -93Q73 -97 73 -100L74 -101L81 -97Q84 -97 84 -93H85Q89 -95 92 -95Q97 -100 101 -100L100 -104Q100 -107 101 -107Q100 -111 98 -113V-116ZM178 -111Q184 -106 190 -106Q190 -105 196 -103V-101Q196 -99 185 -85Q181 -76 179 -76V-75Q179 -72 176 -67Q176 -65 171 -59V-58Q173 -58 176 -55Q178 -55 180 -52L192 -45Q195 -45 199 -42Q218 -31 219 -31H220Q221 -29 224 -29Q239 -22 240 -22L241 -21H244H248L249 -19L248 -18H243L234 -16Q234 -14 230 -14Q230 -13 223 -12Q223 -11 219 -10Q218 -9 214 -7H212Q209 -10 205 -11Q203 -14 200 -14Q195 -19 194 -19Q191 -22 189 -23Q189 -24 184 -27Q177 -34 173 -37Q169 -41 167 -41L162 -48H161Q153 -38 145 -34Q145 -32 133 -25L132 -24H131L130 -25Q130 -26 139 -33Q147 -44 150 -46Q150 -48 154 -51Q154 -54 156 -55V-57Q154 -60 152 -64Q151 -64 150 -68Q144 -76 140 -77V-78Q140 -79 141 -79Q146 -79 152 -76Q156 -74 163 -65H164Q164 -67 168 -77Q168 -79 171 -85Q173 -88 173 -92V-93H171Q171 -91 168 -91Q168 -90 163 -89Q163 -87 156 -86L154 -84Q144 -88 144 -93Q147 -93 150 -95H151Q162 -99 168 -101L177 -108Q177 -111 178 -111ZM97 -89L96 -87H94Q92 -85 90 -85Q90 -84 87 -84V-82V-79V-74Q89 -63 90 -63Q93 -63 98 -67L99 -72L98 -74Q100 -75 101 -82V-83L100 -84V-86L101 -87Q100 -89 97 -89ZM100 -47Q103 -45 110 -44Q110 -43 114 -43Q115 -41 119 -40Q119 -38 123 -35Q127 -29 127 -25Q123 -19 123 -18Q119 -14 116 -14Q115 -15 114 -20Q110 -26 105 -37L102 -40V-42Q101 -42 99 -45V-46Z"/>
</svg>