<svg xmlns="http://www.w3.org/2000/svg" viewBox="0 -256 256 256">
	<path fill="#000000" d="M135 -181Q137 -181 145 -176Q155 -175 155 -172L156 -171V-169Q151 -154 151 -146V-144H154Q158 -146 164 -147Q169 -151 173 -152Q184 -147 185 -146L186 -144Q186 -139 183 -136H177Q177 -135 168 -134Q168 -132 156 -130Q156 -129 149 -126L148 -122V-113V-109Q150 -104 160 -96Q160 -95 165 -92Q169 -88 176 -84Q177 -82 191 -74Q195 -71 199 -71Q200 -68 208 -65L213 -63Q232 -52 238 -52L239 -50L240 -51L241 -50V-48L239 -49L237 -48L234 -49L232 -48H229Q223 -48 223 -47L222 -46H220Q216 -46 211 -45H209Q201 -40 198 -40Q195 -40 184 -50Q182 -50 181 -54Q179 -54 177 -56Q175 -56 172 -60Q172 -61 169 -61Q167 -66 161 -68Q154 -78 150 -78Q149 -81 146 -84V-83Q148 -77 148 -63L149 -60L148 -59V-57L149 -41L148 -36L149 -34L148 -28V-16Q147 -8 137 2Q135 5 133 5H132Q131 5 130 -4Q129 -4 128 -10Q127 -10 127 -14V-18Q129 -29 129 -38V-52Q129 -70 130 -80H129V-81L130 -83V-85Q126 -85 125 -81L119 -76Q117 -72 108 -66L98 -58Q96 -58 91 -52Q84 -49 78 -43Q72 -39 72 -38L67 -35Q64 -35 64 -34Q65 -32 69 -27L71 -23V-21Q71 -18 64 -11L63 -10L61 -11H58Q54 -15 50 -15Q50 -19 42 -25Q41 -27 41 -29Q39 -31 35 -41Q35 -45 32 -47V-48L33 -49H39H44L57 -68L64 -80L68 -89Q75 -102 77 -104H78L79 -103V-101L68 -78Q62 -66 61 -61Q60 -61 59 -53V-43Q59 -40 63 -36Q65 -36 78 -49Q81 -49 94 -64Q95 -64 95 -67Q98 -67 107 -79Q109 -79 113 -86Q114 -86 115 -90Q117 -90 122 -104L125 -111Q127 -113 127 -116L129 -117V-118H128V-119Q122 -115 113 -113L112 -112H109Q105 -113 105 -115H101Q99 -117 91 -126V-127Q91 -129 103 -130Q103 -131 110 -132Q110 -133 125 -135Q125 -137 131 -138V-141V-147V-149L132 -152V-153Q131 -154 131 -156V-158V-161Q130 -165 128 -168L129 -169L125 -173Q131 -181 135 -181ZM50 -159H52Q73 -152 77 -148Q79 -148 79 -147L78 -144L81 -140Q81 -132 69 -129Q69 -130 63 -131Q60 -133 57 -139Q56 -139 50 -146Q42 -154 42 -156V-157Q42 -158 50 -159ZM32 -118Q34 -117 40 -116Q40 -115 47 -114Q47 -113 50 -112Q57 -105 57 -101L58 -100Q58 -96 50 -91H49L42 -94Q42 -95 38 -96Q35 -100 32 -100Q32 -102 26 -104L25 -103Q23 -109 19 -109Q14 -112 14 -113Q17 -116 29 -118Z"/>
</svg>