<svg xmlns="http://www.w3.org/2000/svg" viewBox="0 -256 256 256">
	<path fill="#000000" d="M146 -175H148Q155 -168 167 -168Q170 -168 170 -160Q168 -155 166 -141V-138Q165 -136 165 -134V-132V-131Q175 -138 191 -145L192 -146Q203 -144 203 -138Q203 -135 196 -133Q193 -130 188 -129Q188 -128 182 -127Q182 -125 180 -125H179Q179 -124 174 -122Q174 -121 169 -120L163 -122Q160 -120 158 -112Q157 -111 156 -103L153 -99V-97Q150 -91 147 -89L143 -82L142 -81V-80L143 -79L154 -82Q156 -85 166 -86Q166 -87 177 -90Q177 -91 189 -95Q194 -91 199 -90Q204 -87 207 -87L211 -82V-81Q211 -80 206 -72L202 -65Q195 -51 194 -46L192 -44V-43L197 -38V-36L192 -31L189 -32L186 -31H182Q168 -31 164 -29L161 -30Q159 -30 146 -27Q135 -25 135 -23V-22V-21Q133 -14 131 -13H130Q128 -13 126 -25Q125 -25 125 -28V-29Q122 -36 122 -40L121 -41V-43L117 -57Q117 -61 114 -71V-72Q114 -73 112 -76V-77V-78H113Q115 -78 120 -75L122 -73Q122 -76 130 -76Q132 -77 135 -78L139 -77L140 -79L139 -83Q142 -86 143 -91L144 -99L145 -100V-103V-109V-115L146 -118V-121V-123L148 -126H147V-129L148 -131L147 -134V-138L148 -140Q148 -146 147 -146V-149V-152L146 -153V-159L147 -161Q145 -166 143 -166Q142 -166 139 -168V-169ZM73 -160L75 -159H77L87 -158H88L90 -157L92 -158Q94 -158 98 -155Q102 -155 102 -152Q105 -152 107 -144Q105 -134 99 -134H97Q93 -134 87 -142Q80 -148 79 -150L71 -158Q71 -159 73 -160ZM58 -110L65 -108Q69 -106 72 -106Q75 -103 79 -103Q85 -98 85 -90Q85 -88 80 -85H78Q73 -85 64 -93Q60 -93 58 -97Q57 -97 54 -100Q48 -103 48 -104Q48 -105 44 -106V-107Q44 -108 57 -110ZM102 -85L103 -84V-82Q101 -81 98 -75L97 -72Q95 -72 95 -68Q93 -67 88 -58V-55Q86 -54 80 -43Q79 -43 78 -38Q76 -38 76 -31L75 -30Q76 -28 77 -23L79 -18L80 -17V-15L81 -13V-12L80 -11H81V-10Q81 -4 72 0H70Q67 0 67 -3L63 -12Q61 -17 59 -18V-22Q58 -22 55 -31L54 -32V-33H63H65V-32H66L71 -38L78 -50Q85 -58 86 -63Q93 -71 99 -82Q100 -82 101 -85ZM176 -79L172 -80Q172 -78 162 -77Q162 -76 159 -75V-76H158Q157 -74 147 -72Q142 -70 138 -70Q138 -68 132 -68Q131 -67 131 -65Q133 -65 134 -61V-56L133 -54L134 -53V-50V-47L135 -41L134 -39V-35V-34V-33H135Q136 -33 136 -35L152 -39Q172 -41 172 -42Q176 -42 176 -50H178L177 -54L179 -59V-64L180 -68H179Q179 -77 180 -79L179 -80Z"/>
</svg>