<svg xmlns="http://www.w3.org/2000/svg" viewBox="0 -256 256 256">
	<path fill="#000000" d="M164 -178H166Q172 -171 178 -170Q189 -166 189 -161V-159L182 -149Q182 -146 176 -136H177V-135Q177 -131 175 -129V-128V-127L174 -124Q174 -120 177 -112L179 -109L184 -110L186 -109L202 -111H203L210 -113Q221 -112 221 -107Q223 -105 223 -103V-102Q218 -92 207 -92L202 -91L199 -92L198 -91L190 -92H187L186 -93H183H181Q178 -95 172 -96Q163 -105 163 -112V-113V-116V-122L162 -129V-131V-132L163 -134V-137V-140V-142V-144V-153V-155L162 -159V-161Q161 -161 158 -165Q156 -166 155 -167V-168ZM115 -164Q134 -157 135 -154Q135 -153 139 -151V-149L137 -145V-139V-136L136 -134V-132Q136 -129 133 -116Q132 -116 131 -112L129 -110L130 -109Q126 -95 121 -93Q121 -90 110 -82L105 -77Q104 -77 103 -75Q101 -75 100 -73Q98 -73 97 -72H96H95V-73Q99 -77 102 -79Q102 -80 109 -86Q110 -88 113 -96Q115 -99 117 -104Q118 -104 120 -124V-143Q120 -149 114 -155Q114 -158 112 -161Q112 -164 115 -164ZM67 -153Q73 -153 78 -151Q80 -151 91 -144Q97 -139 97 -135Q98 -135 98 -132V-130Q98 -122 86 -121H85Q79 -121 76 -131L59 -146Q55 -150 55 -152Q55 -153 57 -153L59 -152ZM52 -110Q52 -108 58 -107Q74 -99 74 -87Q74 -80 66 -77H64Q51 -88 41 -98Q41 -99 32 -104V-105Q32 -108 49 -109ZM186 -86H187Q195 -77 206 -75Q208 -72 208 -68Q208 -66 201 -54Q195 -44 188 -34L187 -32H189Q192 -32 192 -30H195Q198 -29 198 -26Q197 -17 190 -17Q190 -15 181 -15H180H178H171H165L164 -16L141 -13Q141 -11 136 -11V-10H135H136Q136 0 129 3H128Q126 0 123 0Q119 -9 119 -12L118 -13V-16Q114 -28 110 -48V-50Q108 -50 108 -52V-53L109 -54Q106 -60 105 -62Q105 -64 101 -69Q102 -72 104 -72Q109 -71 120 -65L122 -63H123Q124 -64 131 -65Q131 -66 134 -67L136 -66Q139 -68 144 -69Q144 -70 152 -72L159 -75Q159 -76 165 -76Q165 -77 170 -78L172 -77Q172 -80 185 -86ZM91 -83H92V-82Q90 -81 90 -77Q88 -77 88 -73Q85 -68 79 -52Q75 -43 74 -34H73V-33L75 -31L74 -29L77 -20Q79 -16 83 -13V-11Q84 -11 85 -6V-5Q84 -5 81 -3Q81 -1 76 1Q76 2 73 2H68Q66 0 64 -5Q59 -9 51 -25V-26V-28Q48 -35 48 -37L49 -39H50Q52 -37 55 -37L57 -35H58Q59 -35 60 -38Q61 -38 70 -50Q73 -51 76 -59Q77 -59 82 -68Q82 -70 86 -76Q88 -77 88 -81ZM169 -68H167Q160 -67 160 -66Q149 -63 145 -60L144 -61Q140 -58 135 -58Q135 -56 130 -55H128V-54Q129 -53 131 -48L130 -46Q131 -43 132 -33V-31Q133 -31 133 -28V-26L134 -23L133 -22H135H136H138L140 -23L142 -22L149 -24Q150 -25 152 -25H155Q155 -26 157 -26H158Q164 -27 167 -29L169 -28Q172 -28 175 -40L176 -41L175 -43L176 -44V-53Q177 -53 178 -62L177 -63L178 -68V-71H177Q176 -70 171 -69Q171 -68 169 -68Z"/>
</svg>