<svg xmlns="http://www.w3.org/2000/svg" viewBox="0 -256 256 256">
	<path fill="#000000" d="M153 -181H154Q158 -181 165 -174Q169 -171 176 -169Q179 -167 179 -163Q179 -158 171 -153Q167 -153 162 -145Q160 -144 151 -131Q142 -117 141 -117Q140 -117 140 -115Q134 -108 134 -107L132 -105V-104H133L147 -105Q147 -106 160 -108H161Q168 -108 171 -110H173Q181 -110 182 -113L175 -126Q174 -126 174 -128V-129H176Q178 -127 179 -127H181V-126L183 -127Q191 -125 195 -123Q204 -123 209 -106V-97Q207 -91 204 -88Q201 -86 197 -86Q190 -90 190 -96Q187 -98 187 -101Q186 -103 186 -106H185H184L177 -103H176L171 -100L169 -101Q154 -93 140 -89Q140 -87 134 -87Q131 -84 120 -80Q120 -78 115 -77Q115 -76 109 -74Q109 -72 108 -72H106Q103 -72 102 -83L101 -87V-90Q101 -99 106 -99Q116 -100 116 -103Q116 -104 118 -104Q118 -107 121 -109L130 -125L138 -140Q139 -140 143 -153Q144 -153 144 -156Q146 -156 147 -161L150 -167V-168Q150 -174 147 -174H146V-176Q149 -179 153 -181ZM74 -150Q94 -148 94 -144Q96 -144 99 -139Q102 -139 102 -130Q97 -122 93 -122Q88 -122 84 -126Q84 -128 79 -133Q67 -146 63 -146V-147Q63 -148 74 -150ZM53 -108L54 -107V-108H55L61 -107H64Q68 -104 74 -104L79 -101H80Q86 -95 86 -92L85 -90L86 -89Q86 -84 77 -80H75Q69 -81 66 -85Q52 -97 52 -98Q47 -103 44 -103L43 -104L45 -106H48ZM99 -81L100 -79Q94 -72 92 -66Q89 -63 87 -57L86 -56H87V-55Q87 -54 84 -50Q79 -37 77 -36L78 -34Q77 -34 76 -32Q85 -27 85 -25Q88 -25 91 -16H92V-12Q92 -8 84 -5H83H79H78L69 -12L66 -16Q66 -17 60 -22Q60 -26 56 -26V-27V-28L50 -36L52 -38L55 -37H56H57Q61 -36 63 -36Q70 -41 72 -48Q74 -48 78 -54Q80 -54 84 -61Q86 -63 91 -72Q93 -73 94 -76Q95 -76 97 -79V-81H98ZM191 -76Q192 -76 194 -73L200 -69Q202 -68 207 -66Q207 -65 211 -64Q213 -61 213 -60Q213 -54 210 -53Q205 -48 204 -42Q201 -40 197 -31Q196 -30 193 -25L197 -20V-19Q197 -14 194 -13L192 -14L191 -12H188L183 -11H179L177 -10V-11H176L169 -10H168L159 -9H157L143 -7Q143 -6 138 -6H137Q136 -6 134 0L131 4L129 5Q126 5 123 -5V-6V-8L121 -20Q120 -20 119 -30L117 -34L118 -37Q116 -39 114 -50L112 -53V-54L110 -60Q110 -61 112 -62L124 -57Q130 -59 138 -61L148 -63Q150 -65 155 -66L156 -65L169 -68Q182 -71 182 -72Q182 -73 188 -74Q190 -76 191 -76ZM177 -57Q172 -55 165 -55Q165 -54 163 -54H160L144 -52L136 -50H134L133 -48L135 -39V-31Q135 -29 137 -28V-27L135 -24Q136 -24 136 -23V-20L142 -21L144 -20Q144 -22 152 -23Q152 -24 161 -24Q161 -25 169 -26H170Q176 -26 176 -29L181 -49L182 -57L181 -58V-57Z"/>
</svg>