<svg xmlns="http://www.w3.org/2000/svg" viewBox="0 -256 256 256">
	<path fill="#000000" d="M155 -192Q160 -189 162 -189Q169 -185 169 -181L170 -178L167 -174Q161 -174 161 -172H158H155Q142 -171 128 -161Q126 -161 120 -157V-156Q122 -153 125 -153Q125 -152 128 -152Q128 -151 136 -147L137 -144L136 -143H138Q149 -149 157 -152L164 -150H167Q173 -146 173 -143Q173 -139 168 -137H162H161H159L157 -138Q135 -135 135 -132Q139 -132 152 -118Q152 -117 162 -109L179 -96Q186 -94 190 -90L202 -86Q202 -85 205 -84Q205 -83 211 -82Q213 -80 220 -78Q225 -75 233 -73H236L238 -72V-70L237 -69H229Q223 -69 221 -68H219H218H216L206 -66Q202 -63 199 -63L193 -61Q186 -61 179 -69Q176 -70 166 -81Q160 -88 148 -100L129 -121H128Q127 -117 123 -111L121 -106Q121 -104 113 -92Q112 -87 108 -84Q108 -82 106 -81H107V-80L95 -64L86 -54Q77 -43 73 -41Q71 -37 63 -34L58 -29H55L54 -30V-32Q65 -41 72 -51Q73 -51 78 -58Q86 -66 92 -77Q93 -77 93 -81Q94 -81 95 -86Q97 -87 98 -91Q101 -94 103 -101Q109 -109 112 -121H111Q111 -119 108 -118H107L102 -115H101Q101 -113 95 -109Q95 -108 94 -108H93Q90 -108 84 -116Q82 -116 80 -119V-121Q80 -122 86 -122Q98 -128 105 -130Q107 -130 109 -131Q116 -133 116 -134L117 -145Q114 -152 114 -154H113L107 -149H106Q105 -149 103 -153Q102 -153 101 -155Q91 -161 91 -165V-167L102 -170Q102 -171 106 -171H107Q110 -173 117 -176Q131 -182 151 -190Q153 -192 155 -192ZM53 -154H54Q59 -152 63 -152Q63 -151 69 -149Q73 -146 75 -143V-134Q72 -123 67 -123Q58 -126 58 -131Q55 -136 50 -141Q44 -149 38 -150V-151Q38 -154 53 -154ZM36 -111L39 -110H42Q45 -109 49 -106Q53 -104 55 -98Q53 -91 50 -88H48Q42 -89 37 -93Q35 -93 21 -103Q18 -103 17 -105V-106Q17 -107 22 -107ZM123 -99Q135 -94 136 -93V-92L135 -91V-89V-87L136 -83V-81L135 -78L136 -74V-68L137 -67V-64L138 -44L137 -42L139 -33L138 -28L139 -27L138 -26V-25L139 -23L138 -21V-18L139 -13H138V-11H137L138 -9Q138 -1 134 6Q134 9 125 16H124Q122 15 122 13L123 8L121 0Q119 -8 109 -15V-16L110 -17H111Q116 -17 116 -15Q121 -15 121 -18L123 -29L122 -31V-32L123 -35L122 -36V-37H123L122 -45V-54V-57L121 -74H122V-75Q121 -76 120 -85H121V-86L119 -94Q118 -94 118 -96Q118 -98 123 -99ZM62 -79L63 -77Q62 -75 62 -71Q60 -71 57 -61Q54 -56 53 -51Q51 -44 50 -36Q51 -31 61 -17L62 -13Q61 -10 55 -5Q46 -5 44 -10L34 -24Q28 -29 28 -35L27 -36V-37L29 -39L38 -38L44 -47Q44 -49 49 -56Q49 -57 53 -62Q53 -64 59 -74Q59 -76 62 -79ZM103 -59H104Q110 -52 110 -48V-45Q111 -45 111 -43H112L111 -40V-36L112 -32Q112 -25 103 -17Q99 -14 97 -14Q93 -15 93 -24Q93 -29 98 -37Q103 -51 103 -55V-58ZM163 -58Q182 -51 182 -49Q184 -49 184 -47Q190 -41 190 -38V-37L191 -34V-32Q189 -31 189 -29L184 -22H181Q178 -24 175 -34L170 -44Q166 -52 162 -57ZM144 -57L149 -54Q151 -54 154 -52Q156 -52 160 -46Q161 -46 162 -37L163 -36Q162 -25 157 -25Q157 -24 156 -24H154Q149 -27 148 -39Q145 -47 145 -53L143 -54V-55Z"/>
</svg>