<svg xmlns="http://www.w3.org/2000/svg" viewBox="0 -256 256 256">
	<path fill="#000000" d="M177 -194Q187 -194 188 -189Q188 -186 185 -182Q185 -180 179 -179Q160 -173 150 -167Q137 -161 126 -153L123 -152L108 -165Q106 -165 105 -169L106 -170L109 -169Q116 -173 132 -178L153 -186Q174 -194 177 -194ZM146 -162H147Q151 -155 164 -152Q167 -152 171 -146V-143L181 -147Q181 -146 186 -144V-142V-140Q184 -135 172 -131Q172 -130 167 -129Q167 -117 166 -116L165 -108H166L184 -113L194 -117L198 -118Q202 -115 206 -115Q206 -113 209 -113L212 -109Q211 -104 209 -104L205 -105H200L191 -104H186H184Q176 -102 171 -101L169 -102Q169 -100 165 -99L164 -98H160Q158 -96 154 -96L153 -97Q153 -94 147 -94Q147 -93 138 -90Q131 -85 128 -85Q121 -80 120 -80Q115 -85 113 -85Q113 -86 111 -86V-85V-83V-82Q108 -81 108 -72L106 -70L107 -67L102 -56Q94 -33 86 -19Q83 -13 82 -10Q81 -10 78 -3Q76 -3 70 5Q69 5 58 17L55 18H54V17Q72 -3 76 -16L77 -21Q80 -25 83 -36L86 -43Q86 -45 88 -50L90 -60Q91 -61 92 -67Q93 -67 94 -73L95 -74L94 -77L95 -78V-79Q95 -84 99 -108Q99 -112 100 -117H99L101 -124L100 -131H101L97 -135L96 -140Q99 -144 103 -144H104Q109 -140 110 -138V-139H111Q121 -135 121 -132L122 -131V-129L117 -116L118 -113Q115 -108 115 -103Q112 -100 112 -92V-90H113H114Q124 -93 126 -93Q126 -94 132 -95L138 -98H140L142 -99H144L145 -100H148V-102V-105V-108V-116V-117H146Q140 -112 139 -112Q139 -113 127 -124V-125Q127 -126 133 -127Q133 -128 135 -128H136Q136 -130 141 -131Q141 -132 147 -133L148 -135L147 -145Q145 -148 142 -151L141 -154Q144 -162 146 -162ZM64 -158Q80 -156 80 -152Q83 -152 86 -148Q88 -147 88 -144L90 -143V-140H89L90 -139V-138L85 -133L79 -132H76L70 -137Q59 -146 59 -148L49 -155Q49 -156 52 -157L53 -156ZM51 -113Q51 -111 61 -109L68 -103Q68 -102 69 -102L70 -101V-97Q67 -93 61 -89H58L41 -102Q40 -102 34 -107Q31 -107 31 -108V-109Q31 -111 51 -113ZM81 -102H82L83 -101V-100L72 -73V-72V-71L71 -64Q70 -64 69 -60L68 -59L69 -58V-56L70 -54L69 -52Q72 -44 73 -44L75 -41L78 -36H77L79 -32Q79 -23 69 -15H67Q63 -18 55 -28Q54 -28 52 -35L43 -49V-50L44 -51H51L54 -50Q58 -50 60 -59Q61 -59 69 -74Q69 -77 73 -84Q73 -87 81 -102ZM147 -92Q150 -89 158 -89L161 -88Q161 -87 167 -86H168Q171 -79 173 -79L175 -81H178Q187 -76 188 -75V-73Q185 -69 180 -69Q180 -68 173 -68V-67Q173 -66 169 -65V-63L168 -59V-55L166 -54L167 -53Q166 -42 165 -39L166 -38L179 -40L202 -45H204H207Q212 -42 216 -41L223 -38L225 -35V-34Q225 -32 220 -27L214 -28H210Q208 -30 206 -30L203 -29Q201 -31 192 -31Q190 -30 187 -30V-31L184 -29L180 -30L175 -29L174 -30Q172 -29 166 -28H163Q158 -27 157 -27Q150 -27 146 -24H142Q139 -22 135 -22Q124 -18 120 -18Q120 -16 113 -14L112 -13H110Q109 -14 107 -18Q104 -18 101 -23V-24Q101 -25 113 -26Q113 -27 119 -27L121 -29L124 -28Q125 -28 128 -30H130Q130 -31 137 -32L139 -31Q141 -32 148 -34H149L150 -36H149V-37L150 -38L149 -41L150 -43L149 -45L150 -46L149 -48L150 -50L148 -58H147Q143 -55 139 -54L138 -53H137L136 -54L134 -51H132Q127 -57 122 -57V-59Q122 -60 125 -61L126 -60Q130 -63 133 -63Q133 -64 141 -67L143 -68H144L149 -71L148 -72V-81Q148 -82 144 -86V-87Q146 -92 147 -92Z"/>
</svg>