<svg xmlns="http://www.w3.org/2000/svg" viewBox="0 -256 256 256">
	<path fill="#000000" d="M166 -192H169Q173 -188 175 -183Q186 -177 186 -175V-171Q185 -167 178 -162L173 -153V-151L169 -145Q166 -140 166 -137L161 -132Q161 -131 164 -131Q169 -127 169 -124Q168 -123 168 -121H169L172 -122H173H175L178 -123Q186 -119 186 -117V-115V-113L184 -111H175L171 -110L169 -111L167 -110L166 -111L164 -110L165 -108Q162 -105 162 -102L163 -99L162 -96L164 -95Q167 -95 177 -98H178Q190 -95 190 -91V-90Q190 -88 185 -85L176 -86H174L173 -87L172 -86H169H165H163Q162 -86 162 -84Q165 -73 172 -69L178 -64Q179 -64 187 -59Q188 -59 189 -57Q195 -53 199 -52L212 -45Q212 -42 219 -42Q221 -40 233 -37V-36L234 -37Q236 -36 239 -36V-34L235 -31L233 -32H230Q223 -32 219 -28Q213 -28 210 -25H209Q207 -23 205 -23Q190 -32 187 -35Q187 -36 174 -46Q169 -50 165 -56Q164 -56 159 -63Q152 -69 150 -69Q150 -72 145 -77L142 -80H140L131 -78H129V-76L130 -74L129 -72H130H132L141 -70H143Q143 -68 146 -66L147 -63Q144 -54 144 -48V-41L145 -36L144 -35L145 -30H146H152L159 -28H163H164H165Q168 -26 171 -26Q175 -23 178 -18V-16Q178 -7 169 -5H168Q163 -9 156 -18L150 -25L145 -28H144V-16Q144 -14 143 -14L144 -11V-8Q142 -6 142 -2L138 6Q133 13 129 16H128Q127 16 126 9Q124 6 122 0L115 -7L116 -8H119Q121 -5 125 -5Q127 -9 127 -12V-15L128 -19V-20L127 -21V-22Q129 -23 129 -25V-27H128V-28L118 -21Q106 -7 105 -7H102Q100 -7 98 -12L96 -14Q96 -16 107 -21Q107 -22 111 -23Q111 -24 117 -27Q117 -28 121 -29L128 -35L129 -40L128 -42L129 -45L127 -49L128 -52L125 -67H124Q123 -67 123 -65Q120 -64 110 -49L105 -45V-44Q105 -43 110 -43H111Q116 -43 117 -42L118 -43Q122 -43 122 -38V-35L118 -32H116Q111 -34 104 -42L95 -34Q94 -34 90 -30Q88 -30 84 -25Q82 -23 73 -18Q72 -16 71 -16H70L69 -17V-18Q69 -19 79 -26Q92 -38 92 -41Q92 -43 97 -47L106 -62L111 -71L112 -72L110 -73H109Q109 -71 103 -70H102Q102 -68 99 -68Q96 -68 92 -75V-76Q94 -77 102 -78Q106 -80 112 -81V-84L111 -91L112 -93Q110 -95 108 -95L102 -93Q100 -93 97 -97Q94 -98 94 -99V-100Q94 -101 105 -103Q105 -104 110 -104V-105V-109L109 -113L110 -115Q108 -117 107 -125L109 -124H111Q111 -127 108 -130L109 -132Q102 -159 99 -168L97 -174V-175L99 -176H100Q106 -171 108 -171Q111 -171 113 -173H116L138 -179Q138 -180 145 -181Q145 -182 150 -183Q150 -184 155 -185Q158 -187 165 -190Q165 -192 166 -192ZM144 -174H141Q138 -170 129 -170L127 -168Q124 -168 121 -166L118 -167H117V-165Q119 -165 120 -162V-158V-156L121 -155L128 -158Q130 -158 133 -160L137 -161L142 -162H143H144Q149 -161 149 -158L145 -153Q141 -153 132 -149Q129 -149 123 -146Q120 -146 120 -142V-140V-135V-133L138 -138V-139L147 -141Q154 -141 154 -147Q155 -149 157 -163L158 -164Q158 -170 160 -177L157 -178Q156 -176 144 -174ZM46 -156H50H53Q59 -154 62 -152Q65 -151 71 -146Q73 -146 78 -142L79 -137V-135L80 -130Q79 -130 76 -125L72 -122H68Q67 -123 63 -123Q63 -126 59 -127Q56 -129 56 -132Q50 -136 50 -138Q49 -138 45 -144Q43 -144 38 -149Q37 -149 34 -152V-153L35 -155H36V-154L40 -156V-155L41 -156L44 -155ZM142 -129H138L128 -125Q125 -125 122 -123L120 -124Q120 -122 116 -122V-121Q116 -119 121 -118L124 -115Q124 -113 125 -112L124 -111L125 -108H126Q128 -111 133 -111Q133 -112 143 -114L147 -115V-120V-123L148 -128L147 -131Q143 -130 142 -129ZM34 -108H37Q48 -108 55 -98Q57 -97 62 -91V-88Q59 -82 53 -79L46 -81H44Q32 -92 23 -97Q23 -99 16 -102V-103Q16 -105 34 -108ZM124 -89L125 -86Q130 -86 134 -88Q145 -89 145 -92L146 -95L145 -97Q145 -100 147 -105L146 -106H145Q145 -104 137 -104Q134 -102 128 -102Q124 -100 124 -89ZM69 -77L70 -76V-75Q66 -72 66 -67L61 -58V-53L57 -47L58 -46L55 -38V-37V-33Q55 -31 64 -21L66 -17L67 -13Q65 -4 58 -1H53Q45 -5 42 -12Q38 -20 33 -26L28 -36L30 -37Q35 -36 37 -33Q43 -34 43 -38Q53 -49 53 -55Q56 -55 56 -57Q58 -59 58 -61Q60 -61 65 -72Q66 -72 66 -75ZM149 -49H151L153 -48V-49H154L158 -47L160 -48Q171 -46 171 -43Q171 -33 165 -32H163Q162 -34 160 -34Q160 -36 151 -42Q149 -44 146 -45V-47Q147 -49 149 -49Z"/>
</svg>