<svg xmlns="http://www.w3.org/2000/svg" viewBox="0 -256 256 256">
	<path fill="#000000" d="M85 -180Q89 -172 93 -172Q94 -170 101 -167Q102 -165 103 -161Q101 -150 93 -150Q86 -144 81 -137Q79 -137 73 -130L68 -124Q69 -121 75 -118Q80 -114 80 -113Q80 -105 79 -104L78 -69H77L78 -68L77 -64L78 -63L77 -54L78 -48V-39L79 -36V-35Q80 -33 80 -23Q80 -14 79 -14V-13Q79 -6 69 3H68Q65 1 65 -5Q62 -9 62 -14Q61 -14 61 -18V-23L63 -33V-42Q63 -54 64 -56L63 -61V-72L64 -76V-78V-80L63 -82L65 -88L64 -95L65 -98Q64 -99 64 -104V-107L63 -113L64 -116Q63 -122 62 -122Q60 -117 56 -115Q49 -111 43 -105Q41 -105 32 -96L23 -90L18 -86H17L16 -87Q17 -90 21 -91Q43 -112 48 -120Q48 -122 52 -125Q52 -127 59 -135Q59 -137 71 -157Q75 -163 75 -171V-173Q75 -178 85 -180ZM210 -179Q216 -179 219 -174V-173Q218 -169 214 -167L212 -165H211V-166H210L207 -163L197 -159L195 -158V-156Q195 -154 200 -152L203 -149Q203 -146 201 -144L202 -143H204L210 -144H212Q219 -143 219 -140L215 -136L211 -137Q205 -135 198 -133H196L195 -129V-128Q197 -128 200 -124Q201 -124 204 -121L202 -117L203 -115L202 -113V-111L201 -100L203 -98H204Q216 -102 221 -102Q222 -104 225 -104H226L227 -103L230 -104Q238 -104 239 -100V-99Q238 -95 233 -94Q231 -94 229 -92H225L217 -90Q216 -88 214 -88H211Q209 -90 208 -90L205 -88H202H201Q198 -88 194 -94L193 -97V-98L192 -108L193 -109L192 -114L193 -117L192 -119L193 -122L192 -123H191Q191 -120 187 -117Q187 -113 182 -106Q179 -101 168 -90Q162 -86 160 -84Q155 -80 154 -80L153 -81Q167 -93 171 -101Q179 -114 184 -127H183H182Q180 -125 176 -125L168 -120Q162 -115 159 -115L156 -119Q156 -121 160 -127L165 -136L164 -138V-143L163 -152L165 -153L174 -146Q177 -146 178 -144V-142Q178 -140 175 -132V-131H176Q187 -135 187 -138Q187 -144 188 -145L187 -148L188 -149V-152V-153L187 -154Q182 -151 180 -151Q177 -155 172 -158L168 -162V-164Q168 -165 174 -166Q174 -167 183 -169Q183 -171 188 -171H189Q193 -174 196 -174Q198 -174 201 -176ZM152 -177Q160 -176 160 -170Q158 -166 154 -163Q152 -163 148 -161L142 -158L125 -150H124V-151Q123 -154 121 -154Q121 -155 117 -158Q117 -159 114 -160L112 -162Q112 -164 120 -166Q122 -167 131 -170Q131 -171 135 -171Q135 -172 149 -177ZM126 -149H127Q129 -149 134 -144H135L140 -142L142 -139H143L150 -140Q151 -138 156 -138L157 -136V-135Q157 -134 147 -131Q145 -129 141 -129L137 -126L135 -127V-126L136 -125L134 -121Q137 -117 142 -113H143V-112Q142 -111 141 -105Q140 -105 140 -103L142 -102Q146 -104 151 -106Q156 -109 157 -109L158 -108L146 -97Q144 -97 142 -92Q136 -85 133 -85Q130 -89 130 -91V-94Q131 -97 132 -97H131V-98L134 -115L133 -118Q132 -118 130 -113Q129 -113 128 -109L126 -108L127 -105Q124 -104 124 -101Q122 -101 120 -95Q115 -91 106 -82Q90 -70 88 -70V-71Q88 -73 97 -78L111 -94L114 -95H113V-96Q113 -98 117 -107Q119 -115 121 -115V-117Q121 -118 123 -119V-120L122 -121Q118 -119 118 -117L110 -113L106 -109L100 -106H99Q97 -108 95 -111L99 -122L101 -127L100 -129L102 -132V-138L100 -146L101 -147Q106 -147 108 -143Q110 -143 113 -140Q117 -140 117 -137V-135L113 -124H115L120 -127L124 -130L125 -131L124 -134L126 -137H125V-138L126 -140L124 -148ZM192 -89Q193 -85 198 -82Q204 -78 205 -78V-77V-74V-70V-69L204 -65L205 -64L204 -59V-52V-47V-44V-43V-40V-30L205 -23Q204 -15 200 -8Q194 0 189 3L188 4H186L185 3V2Q185 -3 186 -3L185 -9V-10L184 -13L185 -14Q183 -17 182 -23L180 -25L178 -24L176 -25Q172 -22 167 -22L165 -23Q165 -21 155 -18Q155 -17 147 -15Q145 -15 143 -9Q139 -5 138 -5Q137 -5 134 -10V-12L133 -19H134L133 -20V-22L134 -23L133 -26V-29Q132 -37 131 -56Q130 -56 130 -66L129 -67L130 -68L127 -77L128 -78Q131 -78 140 -72L143 -73H144Q151 -74 154 -76L167 -79Q172 -80 181 -85Q183 -85 185 -86ZM169 -71L167 -72Q167 -70 148 -65L147 -59L148 -57Q148 -54 145 -52V-51Q147 -50 147 -48H148Q152 -51 154 -51H156Q156 -53 164 -54Q165 -56 167 -56H168Q171 -56 171 -55L173 -56Q175 -55 177 -52Q177 -50 171 -49H169Q169 -47 156 -44L149 -41L146 -39L145 -37L146 -26V-24L147 -23H148L152 -25H154Q156 -26 165 -28Q171 -32 175 -32Q179 -30 184 -30L186 -31L185 -32L186 -35V-39V-46L185 -48L186 -52L185 -55L186 -60L185 -72V-74H184Q184 -73 171 -72Q171 -71 169 -71Z"/>
</svg>