<svg xmlns="http://www.w3.org/2000/svg" viewBox="0 -256 256 256">
	<path fill="#000000" d="M174 -189L180 -185H182Q184 -183 188 -183Q196 -180 196 -176V-168Q193 -165 188 -163Q186 -161 186 -159H183L184 -158V-157Q181 -153 181 -152L177 -150Q177 -146 175 -144Q173 -139 169 -139V-138V-137L165 -132V-131L166 -130L174 -135Q178 -138 180 -138Q180 -140 190 -143Q191 -144 198 -148Q198 -149 203 -149Q211 -149 212 -144Q211 -139 196 -130Q193 -127 188 -127V-125L180 -120V-119Q184 -114 192 -109V-104Q192 -99 185 -97Q184 -91 179 -87Q179 -85 176 -82Q178 -81 187 -79Q209 -71 222 -57Q222 -55 224 -53V-50Q224 -45 217 -45Q210 -45 205 -48L204 -47Q200 -50 195 -53L190 -55Q187 -58 182 -60L169 -71H168Q168 -69 164 -67Q164 -64 158 -61L153 -57L151 -55H150Q150 -54 143 -49Q143 -48 128 -43Q128 -41 125 -41L124 -43Q126 -46 130 -46L141 -55Q146 -59 147 -59L149 -63Q152 -63 153 -67Q155 -70 159 -74V-76Q154 -78 147 -83L142 -84L141 -83H140L136 -86V-87Q137 -92 141 -92Q141 -91 146 -90V-89H152L166 -86H167L166 -88Q170 -95 170 -97Q172 -99 172 -100V-101Q173 -101 173 -103V-105V-108L172 -110V-113Q170 -118 165 -122Q165 -123 162 -126H161Q160 -124 158 -124V-122Q152 -117 150 -112Q147 -111 143 -106H142V-108V-109L133 -107L131 -108L128 -107H127Q121 -104 116 -104Q113 -101 111 -101V-102H110Q107 -100 103 -99Q103 -98 97 -98V-97Q106 -90 106 -87V-86H107Q109 -88 117 -89H119Q121 -89 124 -86Q130 -84 130 -81Q130 -74 128 -72V-71Q128 -68 127 -68V-65Q127 -61 124 -58V-56Q123 -56 123 -51L121 -50H122V-49L118 -40H116V-39L117 -37Q112 -28 106 -27Q105 -25 96 -20V-19H95Q92 -21 92 -24V-28V-30V-32Q92 -42 88 -46V-47L89 -48H90Q96 -42 97 -42H101Q105 -48 106 -52Q107 -53 110 -65Q111 -69 112 -71V-72L113 -78V-80L109 -79Q100 -77 100 -76Q99 -70 96 -68Q96 -67 91 -60Q91 -59 87 -54Q87 -51 78 -43L74 -40Q73 -40 67 -34Q65 -34 59 -30L53 -27Q52 -27 50 -25Q49 -25 48 -27Q48 -29 52 -29Q54 -32 56 -32Q69 -41 72 -48Q75 -53 76 -57Q79 -57 84 -73Q87 -73 90 -92V-93H89Q87 -93 82 -90Q81 -90 74 -87Q73 -87 71 -85Q70 -85 64 -81Q55 -77 47 -72H43Q36 -78 29 -78V-80Q29 -81 35 -82Q35 -83 49 -86Q54 -89 61 -91Q61 -92 73 -95L75 -97V-96L82 -99L87 -100L94 -102Q98 -102 98 -105Q99 -105 99 -107Q94 -117 92 -117L81 -112H79Q70 -115 68 -118Q64 -118 63 -122L64 -123H68L93 -131Q94 -132 97 -132Q99 -132 99 -133L98 -135V-136V-141V-142H97L93 -141Q84 -150 77 -152Q72 -153 71 -155V-156L79 -158L89 -162L97 -166L98 -165H99V-166L97 -168V-170L98 -173Q97 -173 94 -179L92 -181V-182Q94 -186 100 -188L110 -184L112 -185Q119 -185 123 -178L122 -176H127Q134 -175 134 -169H135V-168Q134 -163 121 -157Q121 -156 118 -155Q118 -146 115 -146V-139L116 -138Q118 -140 123 -142Q128 -144 131 -144L133 -142V-137Q133 -133 128 -133Q128 -132 121 -131Q121 -130 116 -130Q116 -128 109 -127Q107 -124 104 -124Q106 -122 110 -121Q113 -118 113 -116L115 -114L113 -110L114 -109H115Q122 -110 125 -113Q129 -113 136 -117H137Q141 -117 143 -114V-112H145Q147 -113 155 -125L154 -127L158 -135Q160 -135 162 -146Q163 -146 165 -158Q167 -158 168 -171V-172L169 -173Q169 -174 163 -179V-180Q163 -184 171 -189ZM183 -40Q185 -38 201 -35Q213 -30 217 -28V-26Q222 -26 227 -12V-11L226 -8L227 -5Q225 2 219 7H218Q211 7 203 -8Q200 -15 192 -26Q189 -28 187 -33Q181 -38 181 -40H182ZM151 -39L155 -38H160Q167 -35 168 -32L171 -29V-21Q168 -16 163 -16H162Q156 -18 156 -21L154 -27Q152 -31 152 -32Q151 -32 150 -36Q148 -36 148 -37V-38Q149 -39 151 -39ZM121 -33H122L131 -27L135 -21L136 -18V-17Q134 -11 128 -8H127Q123 -9 120 -13V-15H121Q119 -26 119 -27V-32Q119 -33 121 -33ZM78 -31H79Q82 -27 85 -22L86 -14L85 -10H86V-9L85 -6V-5L83 -3L84 -2Q83 4 78 8Q71 13 66 13Q64 13 62 5Q62 4 67 -5Q67 -7 72 -14L77 -26Q77 -31 78 -31Z"/>
</svg>