<svg xmlns="http://www.w3.org/2000/svg" viewBox="0 -256 256 256">
	<path fill="#000000" d="M186 -180H189H191H192Q193 -179 199 -177Q202 -174 204 -169V-164Q201 -159 195 -159Q181 -173 176 -175V-176V-177Q176 -178 180 -179Q180 -180 186 -180ZM154 -179L165 -175Q170 -172 170 -171Q170 -162 158 -159Q154 -157 148 -155Q141 -149 129 -145H127L126 -148Q129 -149 136 -156Q138 -156 140 -160Q144 -162 146 -170L148 -171V-173L146 -175V-177Q147 -179 149 -179L151 -178ZM59 -169Q61 -169 63 -167H66L76 -163Q77 -162 78 -155Q77 -149 77 -146V-144L76 -142V-138L75 -118V-114V-113H77Q77 -115 84 -126L90 -137L89 -142Q89 -145 95 -149L100 -144H103Q103 -142 108 -142L109 -143H110Q111 -143 111 -141Q113 -141 113 -140Q113 -135 107 -132Q97 -124 95 -121Q89 -121 78 -108Q75 -108 74 -105L75 -104L72 -95V-89L71 -87Q69 -86 69 -83L70 -82H75Q81 -81 84 -79Q86 -79 92 -75Q96 -74 101 -65H102Q105 -68 110 -73H113L126 -65V-64Q122 -64 122 -55Q124 -45 126 -44V-40Q124 -36 124 -34Q120 -31 120 -29L127 -28H128Q140 -24 146 -24H154L155 -25Q155 -30 150 -40Q144 -44 144 -46H145L148 -45Q148 -43 153 -43Q153 -42 156 -41Q158 -41 161 -55L162 -61V-64L163 -65H162L163 -73V-75L162 -77Q163 -79 165 -81V-82H164Q158 -77 153 -71L142 -60L127 -48H126L125 -49V-50Q139 -63 142 -68Q148 -76 150 -81L157 -92Q157 -94 159 -96V-97Q159 -98 157 -99Q157 -98 134 -76Q130 -72 126 -69H124L123 -70Q140 -87 144 -100L149 -105V-106L146 -108H145Q142 -104 140 -104Q135 -99 124 -93L122 -94Q119 -89 115 -89Q109 -96 102 -100Q102 -101 101 -101H100V-102Q100 -104 107 -105L109 -104L115 -105Q122 -101 122 -97Q126 -97 136 -111Q136 -112 142 -118Q142 -120 144 -123Q144 -126 140 -132Q140 -133 135 -136V-138Q135 -139 141 -139Q148 -143 155 -143Q158 -146 173 -151Q175 -152 183 -154Q186 -154 194 -152Q195 -151 195 -149V-147L192 -144H189L181 -141L172 -135Q172 -134 167 -134Q167 -133 163 -132L162 -131V-130V-129L164 -130Q168 -126 168 -124Q166 -119 164 -119L154 -113L149 -112V-110Q149 -109 161 -106Q163 -104 168 -102L173 -96Q180 -104 180 -107Q185 -113 185 -115V-117Q185 -119 184 -121L183 -122Q183 -123 187 -125V-126Q195 -126 198 -122Q201 -120 205 -119L207 -114Q207 -112 200 -110L197 -109L196 -110Q192 -104 188 -104Q186 -101 175 -93H174V-92L175 -90Q182 -90 183 -88L185 -89Q190 -89 203 -79Q203 -77 205 -74Q205 -69 197 -67H194L192 -70Q190 -70 185 -77Q182 -77 178 -82H176V-78V-76L177 -65Q176 -59 173 -49V-44Q169 -32 167 -31Q166 -31 164 -26L159 -23Q159 -22 165 -21H168Q170 -21 173 -19H174H180H188L190 -17L193 -18L196 -17L199 -18L205 -17H217L220 -19L225 -18H227H230H237H238V-15Q234 -13 227 -11Q221 -5 218 -5Q216 -5 214 -2Q211 -2 204 4Q195 4 188 1Q180 0 179 -1H176L164 -4Q162 -6 155 -8L146 -12Q136 -15 135 -15Q130 -17 128 -18Q117 -15 113 -15L112 -16Q110 -14 102 -13H99Q96 -15 96 -18L99 -29V-34L100 -36Q104 -36 105 -30L107 -29L113 -31L116 -30H117V-32Q115 -43 114 -45Q112 -57 109 -61H108L104 -63L103 -62Q103 -61 101 -61H100V-60L101 -56Q98 -52 95 -52L92 -51Q90 -52 82 -60Q78 -63 78 -67Q74 -71 72 -72L70 -76Q68 -76 67 -71L63 -59Q62 -55 58 -51Q55 -45 41 -31Q27 -19 25 -16Q24 -16 20 -13H19L18 -14Q21 -19 29 -25Q41 -36 42 -41Q44 -42 45 -45Q50 -53 52 -60Q54 -62 55 -70L56 -75Q58 -75 58 -87Q59 -87 60 -100L59 -102Q61 -105 61 -108L60 -111L61 -115V-121L62 -123L61 -126L62 -131L61 -147V-152Q61 -155 52 -162Q54 -169 59 -169ZM120 -130Q120 -128 127 -127L130 -124V-122Q126 -116 124 -116L121 -114Q117 -114 113 -122L108 -126Q110 -129 113 -129H116ZM33 -128Q36 -127 43 -122L49 -113Q53 -109 53 -106L55 -104L54 -101L55 -95Q53 -93 53 -92V-91Q49 -86 47 -86H46Q39 -90 39 -94Q35 -99 35 -104Q33 -104 33 -106V-107L34 -111Q31 -117 31 -127Z"/>
</svg>