<svg xmlns="http://www.w3.org/2000/svg" viewBox="0 -256 256 256">
	<path fill="#000000" d="M105 -204H108Q114 -197 118 -196Q118 -195 122 -194Q122 -193 125 -190V-188Q122 -179 117 -179V-178H116L114 -179H101Q100 -179 100 -178V-177H99L98 -178L95 -177H92Q90 -176 86 -175L99 -169Q103 -166 104 -166V-164V-163V-162Q109 -167 112 -167Q118 -164 118 -163Q119 -163 120 -161Q119 -158 117 -158H116H115H116V-156L110 -154Q110 -153 104 -152Q104 -150 101 -150L102 -149V-145V-143V-142V-138V-137L101 -135L102 -132L101 -130H102L108 -129H112H122Q126 -126 126 -123V-120Q124 -116 121 -116L117 -115V-117H114Q108 -123 104 -124L103 -125Q101 -125 100 -122L101 -116L100 -114L101 -111L100 -103V-99L99 -96V-94L100 -92Q99 -92 98 -82L99 -81Q95 -72 94 -72Q93 -68 90 -66H89L87 -68V-70V-72L85 -79Q87 -84 87 -91V-93L88 -96L87 -99V-103V-106V-107Q86 -113 85 -113Q78 -108 75 -102Q53 -86 44 -80H43L42 -81Q42 -82 53 -90Q66 -103 67 -105Q68 -105 71 -110Q80 -122 80 -126L87 -139V-142L82 -138Q77 -136 77 -134L70 -131Q67 -131 65 -127L60 -126L45 -130V-131L44 -130H43Q40 -130 40 -131V-132Q48 -137 56 -140L62 -141Q62 -142 70 -145Q82 -150 88 -154L86 -164Q85 -164 83 -171L84 -173V-174H82L64 -168H61L60 -169Q65 -173 79 -179L93 -187Q101 -191 101 -193Q99 -198 98 -199Q102 -204 105 -204ZM169 -204H171Q172 -204 174 -200L179 -198H184Q189 -195 189 -190Q188 -187 186 -180L185 -156V-154V-151V-150Q185 -146 184 -146L185 -143Q184 -143 184 -117Q182 -116 181 -106Q180 -106 180 -101Q175 -98 172 -96Q171 -95 169 -95Q167 -95 166 -101Q164 -101 164 -105L159 -111Q159 -113 157 -113L155 -117H156H157L162 -116H166L168 -121L167 -122L168 -130V-133Q168 -135 169 -135L168 -136L169 -141L168 -145V-147V-149Q168 -155 170 -156Q168 -156 168 -167L169 -170L168 -173V-174H169L168 -184V-186Q167 -195 164 -198V-199Q164 -201 169 -204ZM139 -170Q143 -167 145 -167Q145 -165 150 -165L154 -162Q154 -158 156 -155Q154 -155 153 -151L154 -146L153 -136V-135L152 -132V-129Q152 -125 149 -123Q149 -122 144 -119L140 -122V-126L139 -130Q139 -133 140 -133L139 -134V-135L140 -137L139 -139V-148V-150V-153V-157Q138 -165 136 -165V-167ZM131 -106Q132 -105 135 -105Q136 -103 137 -103L143 -104L145 -103H146Q146 -102 151 -101L153 -99L150 -90L151 -89L149 -87V-86Q149 -85 151 -85L162 -88Q163 -88 165 -86Q167 -86 170 -83V-81Q168 -78 165 -78L162 -77L150 -74H148V-72V-69V-66V-63L147 -55L148 -54L150 -55H153L167 -59L168 -58Q170 -60 182 -61L189 -63Q189 -64 191 -64Q191 -65 196 -65L198 -67H199Q202 -65 204 -65H207L212 -60Q215 -60 216 -57Q214 -51 211 -51H202H201H199H196H179L173 -50H171Q147 -50 147 -47V-44V-39V-34L146 -32L147 -30L146 -29L145 -22L146 -19L145 -15V-11Q143 -8 143 0L144 2L143 3V4V5L142 7V8Q142 13 137 24Q136 24 135 29H134L132 27L133 20L132 14L131 -23V-29L132 -32L131 -34V-35L132 -38L130 -40L131 -44V-46Q128 -44 117 -41H111Q108 -38 103 -38Q103 -37 98 -36Q98 -35 92 -34Q92 -33 87 -32Q87 -31 82 -30Q78 -27 74 -27Q74 -26 69 -24Q66 -22 65 -22Q65 -19 64 -19H62L50 -28Q50 -30 45 -34L47 -36H54Q56 -36 58 -37L60 -36L61 -37H63Q66 -37 72 -39Q76 -39 76 -40H79H80L94 -43L95 -45L98 -44H99L106 -46H107H111Q112 -46 116 -49L118 -48L130 -51V-56V-63V-64L131 -66V-67H127Q126 -67 126 -68H124Q117 -70 115 -72Q114 -72 109 -64Q108 -64 108 -62Q108 -61 104 -60Q104 -59 101 -56Q101 -55 95 -50L94 -48H92L91 -49L95 -56L101 -68V-70L102 -72V-79L100 -81V-82Q100 -84 106 -85Q108 -85 112 -82Q115 -82 117 -79Q117 -77 116 -75Q123 -77 125 -78H126H127L130 -79V-83V-86Q130 -98 127 -98L126 -99V-100Q127 -106 131 -106Z"/>
</svg>