<svg xmlns="http://www.w3.org/2000/svg" viewBox="0 -256 256 256">
	<path fill="#000000" d="M183 -166H184L186 -164L185 -161Q187 -161 188 -157Q198 -148 204 -146L211 -139V-137Q202 -125 196 -105Q194 -103 194 -98Q193 -98 192 -91Q191 -91 188 -74Q187 -72 183 -55Q181 -52 179 -40Q178 -40 177 -34Q176 -34 173 -24Q168 -14 160 -10L159 -9H157Q156 -9 155 -18V-21Q154 -29 152 -32Q152 -34 147 -39V-41L148 -42H149L155 -40H156Q157 -45 158 -45V-47L160 -49Q160 -55 162 -56L161 -59V-60Q162 -67 164 -67L163 -70V-71Q164 -81 166 -85V-89Q167 -89 167 -94V-96L169 -100L168 -103Q169 -104 170 -111L169 -113L171 -116L170 -118L172 -122L171 -125L172 -127V-131L173 -137V-138H172L170 -137L168 -138Q168 -136 162 -136V-135H161L159 -136L156 -135H154L151 -134H148L140 -131L139 -132L134 -131L131 -130H130L120 -128L116 -129V-128Q117 -125 127 -122Q127 -121 130 -121Q130 -120 134 -118V-117V-114Q133 -110 132 -102Q134 -104 141 -105Q142 -106 151 -108H152Q153 -108 154 -106Q158 -106 158 -105V-103Q157 -102 157 -99L154 -98L150 -99Q149 -98 140 -97L139 -98Q139 -96 134 -96Q134 -95 130 -95V-93L131 -92L129 -82V-79L127 -72H128Q127 -66 125 -63V-59L123 -56V-55H124L125 -56H128Q128 -57 138 -58L139 -59L141 -58L147 -59L149 -54Q152 -54 153 -51V-49L152 -47H148Q146 -47 144 -49Q139 -47 135 -47L134 -48L131 -47L128 -48L119 -46H118Q117 -45 112 -45Q112 -44 110 -44Q103 -44 89 -40H84V-39Q85 -38 87 -28Q81 -18 78 -17H76Q70 -17 70 -29Q68 -29 68 -37V-38Q67 -51 65 -52L64 -54L65 -56L61 -70L62 -72L58 -89Q55 -101 51 -112Q51 -113 47 -122L44 -133L46 -140H47Q54 -134 56 -134Q58 -134 58 -132L59 -133H60Q62 -130 65 -130Q65 -129 68 -129Q71 -126 74 -126L76 -124Q76 -120 78 -118V-116V-112V-111V-108V-102L79 -99L78 -97L79 -94H78Q79 -93 80 -83V-77L81 -72V-69Q82 -66 82 -57Q83 -57 84 -54L83 -50Q83 -48 85 -48Q85 -50 95 -50L96 -51H97H99L105 -53L107 -52L111 -54L112 -68V-69Q113 -73 113 -77L112 -78V-80V-85Q112 -87 114 -90Q114 -92 113 -92H112Q104 -86 98 -86L89 -91V-93V-94L93 -93L110 -98H111H112L113 -104L112 -113L113 -114Q112 -115 112 -120L110 -121V-122L113 -126V-127L112 -128H111L109 -126Q108 -126 107 -128Q107 -124 98 -124Q94 -129 87 -133L85 -135V-136Q85 -137 88 -138H90L95 -139H98L101 -140H103H107H109Q110 -142 112 -142L114 -141L118 -142H121Q125 -144 133 -144Q133 -145 154 -148L170 -152Q170 -153 175 -153Q175 -154 182 -160L183 -161V-162L182 -164Z"/>
</svg>