<svg xmlns="http://www.w3.org/2000/svg" viewBox="0 -256 256 256">
	<path fill="#000000" d="M156 -195Q158 -194 164 -193Q170 -188 170 -187Q170 -185 169 -183V-181Q167 -179 151 -174Q151 -173 146 -172Q146 -171 142 -170V-168Q143 -166 151 -163Q155 -161 155 -159V-157V-155L154 -153V-152L153 -144L154 -142L153 -140L154 -139Q158 -139 164 -143Q166 -143 177 -150L184 -156L186 -157Q187 -157 192 -154Q203 -151 206 -146V-145Q206 -143 197 -132Q197 -130 190 -123V-120Q193 -116 193 -114V-112Q193 -109 188 -107H184Q176 -105 172 -105Q170 -103 163 -102Q152 -98 148 -98V-94Q147 -94 147 -91L146 -90V-89L147 -88Q147 -87 146 -87V-85L148 -83Q151 -83 160 -86Q160 -87 169 -89Q169 -90 173 -91L175 -93Q178 -93 181 -89Q185 -86 194 -81Q196 -78 196 -77Q192 -68 192 -62Q187 -52 187 -47Q186 -47 185 -35Q182 -30 181 -22Q173 1 166 7Q161 13 159 13Q158 13 156 9L157 -2Q157 -8 149 -21L146 -19H145Q142 -19 139 -17L132 -16Q132 -14 122 -13Q122 -12 118 -12Q118 -10 111 -9L103 -12H102L101 -11L102 -8V-5Q101 3 98 3Q91 -2 91 -11Q85 -23 85 -29Q84 -29 83 -35L81 -37V-39Q77 -46 77 -50Q74 -54 73 -58Q72 -59 72 -61V-65Q75 -68 77 -68Q78 -66 85 -64L86 -63L88 -64H91Q96 -66 106 -69L108 -70V-71Q108 -74 104 -82V-84Q102 -86 102 -93V-94H101Q100 -94 95 -91Q93 -91 88 -87Q87 -87 81 -81Q79 -81 79 -78Q79 -75 75 -72Q70 -74 70 -80Q66 -85 66 -91Q65 -92 64 -99L62 -108L59 -115Q57 -117 55 -117Q52 -118 51 -122Q49 -123 49 -125Q49 -129 55 -131L68 -126L73 -125L90 -131Q90 -132 93 -132Q93 -134 98 -134L99 -135L95 -147L91 -150V-152Q96 -156 98 -156Q103 -153 106 -153Q111 -150 113 -150L114 -146L117 -148Q118 -148 123 -142Q122 -140 121 -133L119 -116L120 -114V-113Q118 -106 118 -105V-104V-100V-99L113 -77Q112 -77 112 -73V-72H113Q118 -74 118 -75L117 -79Q117 -81 118 -81H119Q121 -80 122 -80L125 -78H127V-79L130 -78H131Q135 -80 135 -90L134 -92L135 -93L134 -96L136 -97L134 -100L135 -103L134 -105Q136 -105 136 -110Q134 -112 134 -116L135 -121L134 -124L135 -126V-129L136 -134V-138V-142V-146V-148V-150V-152V-153L133 -162L128 -164Q115 -156 111 -155Q109 -155 108 -159Q96 -170 95 -173V-174Q95 -175 100 -176L103 -175L109 -181H115L133 -188Q137 -188 151 -194ZM151 -128H152L149 -114L151 -112Q167 -116 169 -116Q171 -119 173 -130L175 -136V-137H172Q171 -135 163 -135Q163 -133 154 -131Q151 -129 151 -128ZM77 -112L78 -110V-109L77 -107L78 -104V-101Q78 -95 80 -95H81Q97 -104 99 -104Q100 -104 100 -105V-107V-113V-125L99 -126H98Q96 -124 88 -120Q77 -113 77 -112ZM145 -74L141 -75Q141 -73 136 -73L135 -71V-70H137Q139 -70 139 -68L137 -63L138 -61Q137 -59 135 -57L136 -55H137L146 -59H147Q149 -57 151 -57L154 -54V-51Q149 -47 146 -47Q146 -46 139 -45H137Q137 -43 135 -43L136 -41Q135 -31 134 -31L135 -27H136Q136 -29 141 -29L145 -30H147H148Q150 -29 154 -26V-22Q155 -19 159 -19H160L161 -20V-22L164 -30L167 -42Q168 -42 168 -52V-53Q170 -63 170 -75V-76V-79L164 -81H162Q161 -81 160 -78Q149 -77 145 -74ZM109 -64L107 -65Q99 -60 96 -60Q96 -59 94 -59L92 -58H91V-57Q96 -48 96 -38Q97 -38 97 -33L99 -27L98 -26Q99 -25 99 -21Q100 -21 100 -18L102 -17Q110 -20 113 -21L123 -24L122 -27V-29V-34V-36H121L118 -35L117 -36Q116 -34 115 -34H114L102 -39Q102 -40 107 -41L117 -45Q120 -45 122 -48V-51V-55Q122 -68 119 -68Q116 -68 112 -66Z"/>
</svg>