<svg xmlns="http://www.w3.org/2000/svg" viewBox="0 -256 256 256">
	<path fill="#000000" d="M141 -177L148 -174L157 -171H158Q161 -171 164 -161Q160 -155 160 -154Q157 -154 151 -149H150V-147H151L162 -153Q166 -153 171 -159L177 -163Q178 -159 186 -156Q191 -151 191 -150Q191 -145 187 -142Q183 -139 178 -139Q174 -133 166 -124Q166 -122 156 -113V-112Q156 -109 165 -102Q165 -101 172 -97Q172 -95 180 -90Q180 -89 186 -86Q186 -84 192 -83Q197 -78 203 -77Q205 -74 211 -74Q214 -70 218 -70Q218 -69 224 -67Q224 -66 228 -66L232 -63L234 -64L236 -63V-61Q235 -60 232 -60Q225 -56 221 -56Q221 -55 216 -54L209 -49L207 -48Q200 -48 198 -51L194 -54Q191 -50 187 -46Q187 -45 183 -40L178 -30L177 -27Q178 -24 181 -22L184 -17V-16Q181 -9 176 -9Q173 -10 173 -11L171 -10L168 -11L164 -10L162 -11H161Q160 -10 157 -10H155H153Q137 -9 134 -7Q132 -7 128 0Q125 2 124 2Q119 2 118 -26Q113 -46 113 -49L112 -50Q112 -54 113 -54L110 -59V-61L111 -62H112Q116 -62 118 -58Q119 -58 122 -56Q124 -58 134 -60Q137 -60 148 -63Q154 -67 162 -69Q167 -72 170 -72V-73Q164 -78 159 -84Q148 -93 145 -99L136 -90L128 -83Q122 -78 121 -78L117 -74Q117 -72 109 -68Q108 -67 106 -65Q106 -63 101 -62V-63H100Q97 -55 93 -48Q93 -47 83 -38H82L81 -39V-42V-45V-46L80 -49V-50H81Q80 -53 79 -53H78Q72 -49 67 -49Q65 -45 57 -44Q55 -42 53 -42Q50 -41 49 -39L50 -38V-36Q48 -31 44 -28H43Q36 -36 36 -40L33 -43L34 -45Q34 -50 31 -68L29 -77V-81V-83V-84L28 -89V-91Q24 -112 20 -115V-123L23 -127H24Q26 -127 30 -122Q32 -122 35 -117Q38 -116 45 -108L47 -107L46 -105L47 -104V-99V-94V-91V-90Q55 -93 60 -97L59 -99V-104Q57 -118 52 -118L48 -115H47L43 -120Q40 -123 35 -126V-128Q35 -129 41 -129Q50 -133 54 -133Q61 -136 74 -140Q74 -141 86 -145L91 -149L92 -148L94 -149Q95 -149 102 -144L104 -143L106 -144Q113 -138 113 -135H114V-131Q112 -129 111 -125H110V-123L111 -122Q122 -133 122 -135L124 -139Q131 -148 131 -150Q131 -151 134 -156L137 -167Q137 -168 134 -171Q136 -177 141 -177ZM132 -133V-132L134 -130V-131H136Q142 -126 145 -122L147 -121Q147 -123 151 -126Q151 -128 155 -131L157 -136L156 -138L154 -137H153Q150 -140 146 -142V-144H145Q137 -137 132 -133ZM82 -130H79Q79 -128 63 -122Q63 -120 69 -118Q69 -117 72 -117L75 -115V-110L74 -108V-107V-106V-105V-104H80Q83 -102 85 -102L86 -103V-106V-107V-109Q86 -113 87 -113L86 -116L87 -117L86 -121L87 -125L86 -126L87 -130L86 -131H85Q83 -130 82 -130ZM102 -86H103Q101 -82 101 -69V-67V-66V-65Q117 -80 118 -83Q119 -83 126 -93Q132 -101 135 -103Q136 -107 138 -107Q135 -114 124 -128L119 -125Q119 -124 116 -124Q116 -122 109 -119Q106 -110 106 -105Q105 -105 104 -91Q103 -91 103 -86ZM82 -96Q79 -94 73 -91V-89V-84V-82L72 -79V-77V-75V-72L71 -71V-69V-66L70 -61L71 -59H72Q74 -61 77 -61Q77 -62 82 -63Q82 -68 84 -71L83 -73L84 -75L83 -77Q85 -78 85 -79L84 -82Q86 -87 86 -94V-95V-97V-98H85Q83 -96 82 -96ZM47 -86Q49 -83 49 -81L47 -78L49 -77L48 -74L49 -69H48H49V-66L48 -64L49 -61V-60L47 -58L49 -56V-51L50 -50Q50 -52 57 -54L58 -55Q59 -55 60 -56V-59V-61V-63V-66L59 -70L60 -72L59 -77L60 -78L59 -81L60 -85H59L56 -83H55Q53 -83 48 -86H47ZM146 -53L143 -54Q143 -51 136 -50V-51Q136 -50 131 -49L130 -45L131 -42V-41L130 -39L131 -38V-36L130 -34Q131 -31 131 -22L130 -21V-20L131 -19Q136 -19 149 -23L151 -22H153L159 -24V-27Q161 -35 163 -52Q164 -52 164 -53L163 -54L164 -57V-58L163 -59H162Q154 -57 147 -54Z"/>
</svg>