<svg xmlns="http://www.w3.org/2000/svg" viewBox="0 -256 256 256">
	<path fill="#000000" d="M184 -188H185Q195 -185 195 -180V-178Q195 -176 183 -173L175 -170H173V-169Q169 -167 165 -167Q165 -166 162 -166V-163Q154 -161 154 -160Q154 -159 150 -158Q150 -157 143 -155Q140 -155 133 -163Q131 -163 127 -168Q127 -171 136 -171Q136 -172 141 -173Q141 -174 142 -174H145Q145 -176 159 -179L160 -180H167Q174 -184 177 -184Q182 -186 184 -188ZM91 -181Q96 -178 111 -173L115 -167V-166Q112 -163 112 -161Q110 -161 105 -155Q103 -155 103 -153Q98 -147 96 -147L95 -141L103 -136V-134L100 -131H96Q92 -129 88 -129Q77 -123 75 -123L69 -121Q69 -118 62 -117H63L69 -114Q71 -114 72 -112Q72 -110 68 -105Q67 -98 65 -98V-96L64 -94H65Q70 -96 74 -99Q76 -99 83 -103H86Q93 -100 99 -95L100 -90Q100 -89 99 -89L100 -88V-87L99 -83V-79V-78Q99 -76 98 -76Q99 -73 99 -71V-68V-67L98 -64L99 -61L97 -56L98 -53Q97 -44 96 -40V-38L95 -36L96 -35L93 -21V-18Q92 -17 89 -5L86 0Q80 9 74 12H72L71 11V9L72 5Q70 5 69 -2Q68 -2 60 -10Q56 -10 56 -12L58 -14Q63 -13 66 -11L68 -12L72 -11Q76 -17 76 -21Q78 -21 80 -40Q82 -48 83 -48V-49Q83 -55 86 -72L85 -73L86 -80V-85V-86Q84 -90 84 -92Q77 -92 74 -90H69Q69 -87 64 -85Q64 -84 60 -83H58Q58 -82 60 -82V-81Q54 -77 54 -76L65 -70L67 -72H68Q77 -72 77 -69V-68Q75 -66 74 -66L71 -67Q70 -67 68 -63L65 -62V-59V-58V-57V-54L64 -53Q65 -53 65 -50V-47Q70 -47 75 -50Q77 -53 79 -53L82 -49Q82 -45 75 -44Q74 -42 66 -38L60 -34Q48 -27 42 -21Q42 -20 41 -20L37 -16H35Q34 -16 28 -22Q25 -22 24 -24V-27L31 -29Q36 -32 40 -33Q47 -39 54 -40V-41L53 -42L54 -45L53 -48L54 -50Q53 -53 52 -53L47 -50L37 -54L36 -55V-56Q36 -58 43 -59Q46 -61 46 -62Q51 -63 51 -65L50 -70L51 -71V-72H50H49L44 -71H43Q42 -71 42 -77H41L50 -90Q50 -93 53 -99L54 -101H53V-102L56 -108V-109L58 -114H57Q57 -112 49 -110Q49 -112 45 -112Q45 -113 40 -115Q35 -117 35 -118V-119Q35 -121 46 -123L60 -129Q72 -132 72 -133Q78 -133 78 -140Q80 -141 80 -143V-149L82 -151V-153Q82 -154 80 -154Q77 -152 74 -152Q74 -151 68 -148Q66 -148 62 -153Q60 -153 56 -157Q54 -157 52 -160V-162Q52 -163 70 -167Q70 -168 76 -169Q76 -171 77 -171L79 -170Q83 -170 84 -176Q85 -176 90 -181ZM186 -161Q190 -160 191 -157Q204 -155 204 -152Q206 -150 207 -149V-148Q206 -145 203 -143Q203 -140 198 -132Q198 -129 192 -120L190 -112Q189 -112 189 -108L182 -103Q182 -102 179 -99H178Q175 -99 175 -102Q173 -107 173 -108H171L169 -106H164Q156 -104 152 -102L151 -103L149 -102H146Q144 -99 142 -99L137 -97L133 -96V-92Q131 -88 130 -88Q128 -89 125 -93V-97Q123 -98 123 -106L121 -108L122 -112Q121 -112 119 -116V-117L120 -118L119 -121V-123Q117 -123 117 -124V-125L118 -126Q116 -128 114 -133Q112 -135 110 -143L111 -144L117 -140Q120 -140 123 -137H124Q124 -141 131 -141Q132 -142 142 -145L158 -151Q173 -155 175 -158ZM176 -147V-148Q170 -146 160 -145V-144Q163 -139 163 -135Q164 -133 166 -133H167Q169 -135 171 -135Q174 -133 177 -132L178 -130Q177 -128 174 -128H173L171 -130Q171 -128 169 -127H168Q164 -125 161 -125L160 -119V-117L159 -114V-111L176 -116V-117V-119Q177 -121 178 -128L180 -129V-130L179 -132Q179 -137 182 -137L181 -140V-142V-144L182 -145L181 -146V-147L183 -150V-151H182Q180 -151 178 -148ZM145 -140Q145 -138 140 -138Q140 -136 137 -136L135 -138Q133 -134 132 -134H129V-132Q131 -130 131 -126V-125V-124V-123L130 -119H131Q135 -122 137 -122Q138 -124 142 -124L146 -125Q146 -126 147 -128L146 -133V-138L147 -140ZM131 -112V-111L133 -105L132 -104L134 -102Q136 -103 137 -103H138L140 -102H141L140 -103V-104Q140 -105 147 -106L148 -108L147 -109L148 -115Q146 -118 145 -118Q142 -118 139 -116Q137 -116 131 -112ZM212 -104Q215 -103 221 -103Q231 -98 231 -94Q231 -89 226 -88H225L218 -90Q213 -90 212 -92L209 -91L205 -92L203 -91L201 -92L198 -91H195L192 -90H190L181 -89L178 -90Q178 -89 176 -88H175Q172 -88 171 -87H170L168 -88Q168 -86 161 -86Q161 -85 154 -83Q154 -82 150 -82H148Q145 -80 141 -79L139 -78H138H137Q137 -77 132 -76Q131 -74 128 -74Q128 -73 122 -72L121 -71H119V-72Q119 -70 110 -67H109Q100 -74 100 -75V-76L101 -77H104Q111 -79 119 -80H120Q124 -82 128 -82Q132 -82 137 -85L140 -84Q140 -86 148 -87Q148 -88 155 -89V-88L162 -92L165 -91Q165 -92 170 -93Q170 -94 175 -95V-94Q176 -95 181 -95Q186 -98 191 -98Q191 -99 193 -99ZM188 -83Q191 -83 195 -79L201 -77Q206 -75 206 -70Q202 -65 200 -59Q198 -58 196 -45H195H196V-44Q195 -43 193 -36Q192 -36 190 -28Q186 -22 180 -20Q179 -20 177 -27L176 -28V-31Q176 -32 177 -32V-33Q173 -29 168 -29Q165 -27 158 -26L156 -27L153 -24H150Q142 -22 141 -21H139Q138 -20 136 -20Q134 -21 134 -23L132 -19L130 -16H129Q125 -20 125 -22V-23L123 -28V-29L124 -30V-31Q123 -32 123 -35L121 -36V-39Q121 -44 119 -45L121 -47V-48Q119 -50 117 -57Q116 -57 114 -63V-64L115 -65H117L119 -63H120L122 -64L124 -63Q124 -65 130 -65Q132 -68 148 -71Q151 -72 160 -74Q162 -76 172 -77Q172 -78 179 -80ZM163 -69Q163 -67 165 -65V-64L163 -57L166 -56Q167 -56 170 -59H171L177 -53Q174 -51 165 -50Q162 -49 162 -43L161 -40L162 -39L160 -35V-34Q160 -33 162 -33Q166 -36 168 -36H169Q169 -37 178 -39Q179 -42 180 -42L179 -45V-46Q179 -48 181 -50L182 -52L181 -53L182 -62L181 -66L183 -68Q181 -70 181 -72H180Q180 -71 166 -70Q166 -69 163 -69ZM126 -58L129 -59Q131 -57 131 -55Q131 -54 129 -54Q129 -53 131 -52V-51Q131 -45 133 -40Q133 -39 131 -39V-37Q133 -37 133 -36Q133 -25 136 -25Q140 -27 147 -30L149 -32V-35V-36L150 -38L149 -40L151 -42Q149 -42 147 -44H146L141 -41H139L135 -43H134V-44Q137 -47 142 -47Q142 -48 146 -50L149 -49L150 -51L149 -53V-54L150 -57L149 -59L150 -60V-61L148 -63L149 -65H145Q145 -63 135 -62Q130 -59 126 -59ZM202 -20H204Q209 -20 212 -15Q218 -13 221 -8V-5Q219 -2 218 -1H216Q213 -5 204 -6Q204 -8 200 -8V-9L196 -8V-9H195L194 -8H193L191 -9H188H185H183H175H173Q171 -9 171 -8H169H167L159 -5L156 -6Q154 -5 137 0L120 7Q119 9 117 9Q112 8 112 6L104 0Q105 -2 108 -2H109Q112 -4 116 -4H120Q121 -5 127 -5Q128 -6 140 -8Q141 -9 146 -9H147Q149 -11 152 -11H155Q163 -14 165 -14H166L167 -13Q167 -14 179 -16Q179 -17 181 -17L182 -16L192 -17H193Q196 -19 202 -20Z"/>
</svg>