<svg xmlns="http://www.w3.org/2000/svg" viewBox="0 -256 256 256">
	<path fill="#000000" d="M156 -207H157Q159 -207 165 -203Q171 -203 177 -195V-190Q171 -184 169 -176Q166 -176 164 -168Q162 -168 162 -165L159 -160Q157 -160 157 -159L159 -158Q159 -157 156 -156Q156 -151 149 -146Q149 -144 146 -144Q145 -141 142 -140L139 -142V-144L140 -148V-149H137H134Q133 -147 128 -147V-148Q125 -145 114 -144Q114 -143 111 -142H110H108Q108 -140 105 -140Q103 -139 99 -137L97 -135V-132Q95 -128 94 -128H93Q88 -130 88 -135V-137Q87 -138 87 -140Q85 -145 84 -151L83 -152V-154Q79 -166 79 -169Q78 -169 75 -179Q73 -180 73 -185L72 -186V-188L73 -189H75Q77 -186 81 -185H84Q88 -187 99 -189L105 -192L106 -191L112 -194L118 -195Q118 -196 126 -197Q126 -198 131 -198Q131 -199 133 -200L134 -199Q138 -200 138 -202L141 -201Q142 -203 145 -203H146L148 -202Q148 -203 156 -207ZM137 -194L135 -195Q132 -192 127 -192Q127 -190 122 -190V-191L120 -190V-189Q125 -185 131 -185L132 -181V-178L133 -177H134L136 -180Q144 -179 144 -174Q141 -172 137 -171L135 -172Q135 -171 130 -169L129 -166V-160L127 -158L129 -156L128 -154L129 -153H130Q133 -153 140 -157H142L143 -158V-161Q143 -162 145 -162V-164Q147 -172 148 -174L147 -177Q149 -180 149 -181V-185H150L151 -191Q151 -193 150 -193V-195V-197L146 -195L143 -197ZM106 -185H104H103Q99 -183 97 -183L94 -184H93Q95 -175 98 -175V-173Q98 -172 97 -172V-171V-169V-166V-163V-161V-160V-158V-156Q98 -155 98 -153V-152L97 -150Q98 -150 99 -145L101 -144L102 -145H103H105Q106 -147 115 -149V-150Q115 -154 116 -154L115 -158V-160Q115 -164 114 -164Q108 -163 107 -162H106L105 -163L104 -162H102L100 -165V-166Q100 -167 104 -167L106 -168H110Q111 -171 115 -171V-178V-179V-183V-184L114 -186L115 -189Q107 -186 106 -186ZM178 -148Q178 -147 182 -144H183Q195 -142 195 -135L188 -126L185 -116Q185 -111 181 -108Q181 -100 170 -96L169 -94H168L167 -95V-102H165Q160 -100 156 -100L155 -101Q155 -99 154 -99Q151 -99 148 -96Q140 -94 139 -92Q132 -93 132 -96V-97V-100V-103Q132 -109 130 -113V-114L129 -123V-125Q127 -131 127 -133V-134L134 -131Q134 -133 142 -133Q142 -134 145 -135L146 -134V-135Q146 -136 152 -137Q152 -138 167 -143Q167 -144 170 -144Q170 -145 178 -148ZM164 -134Q162 -135 161 -135L155 -133V-131Q163 -127 163 -125H167H169V-124H170Q171 -124 173 -137H172ZM112 -134L125 -127Q127 -127 127 -126V-122Q127 -121 124 -120L125 -119V-118Q125 -117 122 -117Q122 -112 120 -111V-110V-109Q117 -105 117 -102Q115 -102 115 -98V-95Q112 -94 112 -90Q107 -86 105 -83H104L103 -84V-88V-89H100H99Q99 -87 93 -86H92H91V-85Q91 -84 88 -84Q87 -82 83 -81Q78 -77 75 -74H82Q93 -78 98 -78L102 -77Q104 -77 106 -80L110 -79Q116 -80 116 -81L118 -80H120Q120 -83 129 -84L131 -83H134H140Q142 -83 144 -86L146 -85L150 -86L151 -85Q153 -85 158 -87L160 -86L163 -87L167 -86L169 -87V-86V-87H170Q180 -87 189 -90Q192 -93 197 -94Q202 -94 202 -89L206 -85Q207 -85 210 -81Q217 -77 217 -73Q215 -73 215 -70L211 -65H204L201 -68L198 -67Q192 -68 191 -68Q173 -63 170 -59L169 -60V-63L176 -68Q180 -72 184 -77L187 -81L186 -82L174 -81L172 -82L167 -80L164 -81Q164 -80 163 -80L161 -81Q159 -80 159 -79V-78L156 -80H155Q155 -78 141 -78L139 -79Q137 -77 134 -77H129Q129 -75 118 -74L116 -75L110 -73Q102 -73 95 -71H94Q89 -69 74 -67Q74 -65 73 -65L70 -66Q67 -64 61 -63H60L59 -62V-61L60 -59V-57V-55Q58 -54 58 -50Q54 -43 47 -40Q44 -37 43 -37H42Q38 -40 38 -50L39 -54V-55L41 -58H40Q40 -62 42 -63V-64L45 -80Q46 -81 49 -81H50Q58 -76 58 -72L59 -69L70 -72Q71 -72 74 -73V-74H73V-75L70 -74L62 -87L57 -101L49 -113V-114Q55 -114 62 -111Q64 -113 72 -115Q76 -117 79 -119L84 -121Q88 -124 93 -124Q93 -125 102 -129H103H105Q105 -130 112 -134ZM150 -132Q150 -131 142 -128L140 -126L142 -123V-122V-118V-117Q146 -118 148 -119H149Q151 -119 152 -123L151 -126L152 -131ZM99 -121H97Q96 -119 93 -119H91H90V-118Q95 -117 95 -113L93 -111L95 -109L101 -113L105 -112Q107 -112 108 -119H109V-121Q108 -121 108 -122Q108 -123 109 -123V-125Q104 -122 101 -122ZM166 -119H164Q161 -117 160 -117V-113V-110V-108H162H163H168Q168 -111 171 -114Q170 -114 170 -115L171 -118V-119ZM72 -110H71Q71 -108 68 -107Q71 -103 71 -100L70 -99L72 -95V-94L73 -91V-90L72 -89L74 -86V-82H76Q78 -84 83 -86Q85 -86 85 -93Q85 -99 84 -99Q79 -95 78 -95H75L74 -97V-98Q74 -99 81 -100L85 -105Q83 -114 83 -115H81Q79 -113 77 -113Q75 -111 72 -110ZM140 -107Q141 -107 142 -105L140 -103V-101L142 -100Q151 -101 151 -108V-113L150 -114Q140 -113 140 -107ZM105 -108Q103 -107 101 -105L99 -106Q99 -104 94 -104L92 -99L94 -98L93 -96Q94 -91 96 -91Q96 -93 103 -94L102 -96Q103 -99 105 -99L106 -98L105 -100V-102L107 -106Q106 -106 106 -108H105ZM144 -70H146Q147 -70 148 -67Q152 -67 155 -61H159Q164 -61 164 -56V-55Q164 -52 161 -46L160 -42V-41Q159 -36 158 -26L159 -18L158 -14L159 -13L157 -10H158V-8V-3Q157 -3 156 3Q156 6 159 6L160 5H161Q168 5 168 3H170L182 1Q184 5 188 5Q188 7 191 7Q198 12 198 18L194 21H188Q182 19 176 18Q171 15 160 15L156 16L154 15Q146 21 145 21Q142 21 139 18V14H137L136 15H134H132L112 18L110 17L103 19H100Q98 20 87 22L83 24H79Q61 28 57 32H54Q47 27 45 23L43 22V20Q44 18 47 18H53Q60 16 67 16H69Q73 16 74 15H78L97 12L98 0V-8L99 -11Q98 -11 98 -14V-17L99 -18L98 -20V-24Q98 -28 99 -30Q97 -50 96 -50V-53Q96 -55 94 -57V-60L95 -61Q101 -55 104 -54Q106 -55 120 -58Q120 -59 125 -59Q125 -61 132 -61Q132 -63 137 -63ZM138 -55Q138 -54 126 -50L125 -49H122Q116 -48 114 -46L115 -44L114 -41V-36L112 -32H115Q117 -34 121 -35Q121 -36 129 -39Q134 -36 136 -34V-32Q136 -30 121 -27Q120 -27 115 -25Q115 -24 114 -24L112 -25L111 -24V-23L112 -22L111 -18L112 -14L111 -12Q115 -14 118 -14Q118 -15 120 -16L121 -15L126 -18H129L133 -14Q133 -9 128 -9L123 -7Q115 -5 114 -4H112L110 -5V-3V0V4V7L109 10V11H110L113 10L115 11L119 9H125H128H129Q134 8 137 3V-4V-10V-13Q137 -17 138 -17L137 -21L139 -23L137 -26L138 -27V-28L137 -29L139 -32L138 -33L139 -35Q137 -36 137 -38V-52L139 -54V-55Z"/>
</svg>