<svg xmlns="http://www.w3.org/2000/svg" viewBox="0 -256 256 256">
	<path fill="#000000" d="M141 -198Q149 -198 150 -195Q151 -193 159 -189L165 -185L167 -181L166 -178L167 -177H171Q172 -179 178 -180Q180 -180 185 -181Q185 -182 195 -185Q195 -186 197 -186H200Q201 -185 208 -184Q213 -180 213 -178V-176Q211 -172 206 -172Q200 -172 200 -173H199H195Q190 -171 177 -170L175 -171L173 -168H172L170 -169Q170 -167 162 -166Q159 -166 159 -161Q152 -152 144 -152Q139 -154 139 -158V-160Q134 -158 128 -156H127Q124 -154 118 -153Q118 -152 114 -152Q113 -151 104 -148Q104 -146 96 -146Q94 -143 89 -143L79 -153Q77 -153 76 -155V-157Q76 -158 86 -159L87 -160H88H91L98 -162H101Q103 -164 110 -164Q110 -166 115 -166Q115 -167 117 -167H118H119Q120 -167 126 -168L128 -169H130Q134 -169 139 -171V-172Q139 -180 134 -186L129 -191V-193Q129 -194 136 -196Q138 -198 141 -198ZM189 -144Q202 -143 202 -140V-136Q197 -131 190 -131Q178 -126 170 -121Q168 -121 165 -117Q171 -112 177 -110L179 -107Q175 -99 175 -97H176L175 -92V-89L176 -88L188 -91Q188 -92 195 -93Q196 -93 199 -89V-85L196 -82H192Q182 -80 174 -77V-76V-74V-73V-72V-56V-54Q174 -52 172 -51L174 -49V-48L172 -46V-45Q195 -49 213 -50L224 -48Q227 -46 229 -42V-41Q225 -36 221 -36H218Q216 -37 207 -38L205 -37L191 -39H187L182 -38L180 -39Q176 -37 166 -36H164H159Q152 -36 141 -32Q134 -32 131 -31Q128 -31 112 -25H110Q110 -26 106 -29Q106 -30 103 -32V-33Q103 -34 111 -35H112Q113 -36 120 -36Q120 -38 127 -38L128 -40L127 -43L128 -46L127 -60L125 -62V-63L126 -69L125 -74L126 -76Q125 -80 123 -81Q123 -83 119 -84V-85V-86Q122 -89 124 -89H126Q127 -88 139 -82L142 -80V-76L140 -71V-53V-41Q146 -41 154 -43L155 -47V-50L156 -51V-54V-55L155 -59L156 -65L155 -66L157 -70Q156 -70 156 -72Q157 -72 157 -77L156 -79Q157 -83 157 -103H158H157V-106L158 -108L157 -113L154 -111Q148 -116 145 -117L132 -127V-128Q137 -128 146 -132Q156 -135 162 -135Q162 -137 167 -137Q172 -140 182 -142Q182 -143 189 -144ZM97 -142Q98 -139 103 -137Q103 -135 108 -135L113 -131V-130L111 -125Q111 -122 109 -121Q109 -117 107 -114Q107 -110 104 -110V-103Q102 -102 102 -97V-95Q100 -93 99 -90V-87Q98 -87 98 -83Q96 -83 95 -77Q93 -73 93 -70L85 -51Q85 -46 79 -39L73 -28Q67 -14 54 0Q45 11 38 15L29 22H27L26 21Q30 17 38 10Q44 6 47 2Q53 -3 53 -6L57 -13Q60 -15 60 -20Q64 -21 64 -27Q66 -29 68 -37L77 -60Q80 -72 82 -73V-75Q82 -76 81 -76L76 -71L66 -62H65L61 -57L59 -56Q49 -64 49 -68Q49 -70 63 -72Q63 -74 68 -74Q68 -76 74 -77Q78 -80 80 -80H83L85 -82L84 -84Q85 -86 87 -92Q90 -99 90 -102H89V-103L91 -106V-111L94 -124V-129L92 -133Q91 -133 90 -135V-138Q93 -142 97 -142ZM62 -113H71L82 -110Q85 -108 85 -104Q80 -96 75 -96Q73 -96 63 -109Q61 -109 61 -112Z"/>
</svg>