<svg xmlns="http://www.w3.org/2000/svg" viewBox="0 -256 256 256">
	<path fill="#000000" d="M134 -194H136Q141 -190 149 -189Q150 -187 153 -187L155 -188Q165 -184 165 -181L166 -178Q165 -173 162 -171Q162 -169 159 -165V-164Q159 -163 161 -163L163 -165L165 -164Q165 -166 177 -167Q177 -169 192 -171Q193 -172 195 -172Q195 -171 202 -170L206 -165Q206 -161 199 -157H197L192 -158V-157L190 -158H185L183 -159Q183 -158 181 -158H176L165 -154H159L155 -153H154Q148 -146 143 -144H138Q134 -145 134 -146V-147L135 -149L134 -150H132Q132 -148 131 -148L129 -149Q129 -146 116 -144L110 -143H108Q108 -141 104 -141Q104 -139 94 -137V-136Q102 -127 106 -126Q109 -125 111 -122L110 -118L111 -116L106 -104L104 -94Q99 -76 97 -70Q101 -70 107 -73Q109 -73 120 -77Q122 -77 124 -79H127L128 -87Q127 -91 125 -93L123 -98Q124 -98 124 -99H125H128L135 -96Q135 -95 140 -94L142 -91V-89L140 -87V-86H141H142L150 -89Q157 -87 157 -85V-84V-82Q157 -80 146 -77Q146 -75 138 -74L139 -72V-71V-70L140 -69L139 -68V-65L140 -61L139 -59V-58H140Q142 -58 142 -59Q145 -59 147 -57L148 -58H150L151 -57L152 -58L154 -57H156V-56L157 -57H158Q163 -54 163 -50H164L163 -48V-46V-45L157 -40Q151 -42 142 -51V-52Q140 -52 139 -55H137H135V-54H137L138 -53Q138 -52 137 -52V-51Q139 -51 139 -49L138 -46L139 -42L138 -39L139 -38Q139 -37 138 -35V-34V-30V-27H139H138L139 -25Q139 -9 128 -1Q126 -1 126 -5L127 -7L125 -14V-17Q125 -20 126 -22H125V-23L126 -28V-29V-32V-34V-36L127 -39L126 -40H125Q123 -40 118 -34Q115 -34 113 -29L98 -19Q90 -14 89 -14H88V-15Q97 -21 105 -30Q107 -31 110 -36Q113 -38 113 -41L120 -52Q124 -61 125 -62V-63L126 -65L125 -66L118 -61V-59Q116 -59 116 -56L112 -54H111L110 -52H108Q104 -56 98 -62Q97 -68 96 -68Q93 -60 92 -54Q87 -48 81 -33L77 -27Q77 -24 67 -11L56 4Q42 16 41 17H40L39 16Q39 15 46 8Q51 2 55 -5Q56 -5 57 -8Q58 -8 62 -17Q67 -22 69 -33L72 -40Q76 -48 78 -60Q79 -60 80 -66L81 -67V-70L82 -73H81Q78 -73 75 -70Q73 -70 69 -64Q66 -64 56 -52Q56 -50 54 -50Q50 -50 50 -54Q46 -57 44 -60L41 -63L43 -65L45 -64L58 -71H59H63Q75 -79 84 -82L86 -84L85 -87L88 -98Q89 -113 90 -115L89 -119V-123Q88 -123 86 -127L87 -130V-131Q83 -133 71 -146L72 -148L75 -147Q77 -147 80 -149H83L88 -151L90 -150H92L105 -153Q109 -153 111 -155H115Q116 -155 118 -157H122Q123 -157 126 -158H133Q134 -158 134 -160L136 -161V-162L134 -164V-165Q134 -166 135 -166H136V-167L134 -168V-177L133 -180V-181Q132 -181 130 -186Q129 -186 129 -188Q129 -189 134 -194ZM198 -136L205 -131Q208 -129 214 -126Q216 -124 216 -122Q214 -122 213 -104V-85V-81V-78V-75V-74L212 -73L213 -71V-54L212 -52L213 -42V-41Q213 -34 215 -30L214 -20Q215 -20 215 -18V-17L214 -14L215 -13Q214 -5 213 -5V-4Q213 -2 210 2Q210 5 203 14Q201 14 200 18H198L196 16V13Q196 4 186 -3Q185 -3 181 -6V-7L183 -8L191 -6L193 -7H196V-9L197 -14V-16L198 -18V-19L197 -21L198 -23L197 -29Q198 -29 198 -33L197 -50V-52L198 -62L197 -65L198 -68L197 -69L198 -71L197 -81L198 -82L197 -85L198 -91H197V-92L198 -93L197 -100V-103V-105L196 -110L197 -112V-113Q197 -122 189 -128Q191 -136 198 -136ZM143 -134Q160 -124 163 -116Q163 -111 157 -108H154Q152 -108 149 -110L148 -109L147 -110Q144 -110 140 -108Q131 -104 125 -103L115 -97H114L112 -98Q111 -95 107 -93L106 -94Q107 -97 116 -103Q138 -124 138 -125Q135 -129 135 -130Q140 -134 143 -134ZM50 -104Q74 -99 74 -97L75 -95V-93Q75 -88 71 -88L70 -87H68L54 -98Q50 -100 49 -102V-103ZM167 -93H169Q170 -92 173 -92Q173 -91 183 -86V-85V-84V-83V-81V-77Q183 -76 182 -76L183 -73V-72V-68L182 -63L183 -62V-61Q183 -60 182 -60V-59H183Q183 -52 174 -48Q170 -51 170 -55L171 -64L170 -67V-70Q170 -72 168 -83L164 -88V-90Z"/>
</svg>