<svg xmlns="http://www.w3.org/2000/svg" viewBox="0 -256 256 256">
	<path fill="#000000" d="M119 -193H123Q124 -192 128 -190L135 -187Q135 -185 140 -185L145 -182Q148 -181 152 -173L150 -169L151 -168Q160 -171 164 -172L181 -177Q181 -178 187 -180L189 -177L196 -174Q197 -174 197 -169Q195 -166 193 -166H190H188H185H182H179L177 -164H173L172 -165L168 -164H166Q164 -163 152 -161H148Q145 -159 145 -156Q130 -142 129 -142Q126 -142 121 -150L122 -152V-153H121Q119 -151 116 -151Q116 -150 108 -148Q105 -146 101 -146L95 -142L93 -143H92Q92 -141 85 -138L84 -139Q80 -136 76 -136L73 -133H72Q68 -137 65 -137L57 -145V-146L59 -148H61Q64 -148 78 -152L87 -154H91Q91 -155 109 -159L114 -161Q120 -161 120 -164V-165L119 -168L120 -169L118 -173V-174Q116 -176 115 -180Q111 -183 111 -185Q112 -188 119 -193ZM129 -140H132Q133 -139 139 -138L140 -137Q141 -137 143 -135Q146 -135 150 -131Q151 -131 160 -120L163 -117Q165 -113 168 -113Q168 -111 171 -108Q178 -98 184 -95Q187 -90 192 -89Q192 -86 200 -84Q215 -72 224 -69Q226 -67 232 -66V-65V-63L231 -62L229 -63H224H219L215 -64L212 -62L208 -63L205 -62H204L191 -58Q191 -59 177 -71Q177 -72 170 -77Q169 -79 169 -81Q164 -82 164 -86Q160 -88 159 -93Q157 -93 152 -101Q150 -101 148 -106L144 -112H143Q142 -109 138 -106Q131 -97 128 -95Q128 -93 124 -92Q124 -89 115 -82Q115 -80 104 -73Q89 -62 87 -62L86 -63Q93 -68 104 -81Q105 -81 105 -82L114 -95Q122 -104 123 -108L124 -110V-111Q127 -114 128 -116L127 -117L134 -126Q129 -129 129 -131H127Q126 -131 125 -133Q127 -139 129 -140ZM81 -132H82Q86 -128 90 -127Q92 -123 96 -121Q96 -118 97 -116V-115L96 -109V-108Q92 -98 90 -91H89V-88V-87Q87 -83 86 -77Q85 -76 84 -72Q83 -72 83 -68Q81 -65 81 -63V-62Q79 -62 78 -58Q77 -58 77 -54Q75 -54 75 -50Q74 -49 70 -40Q68 -38 65 -30L60 -20Q54 -12 51 -9Q48 -2 26 18H25L24 17V16Q33 7 42 -6Q44 -12 48 -17Q48 -21 52 -23V-25L60 -42Q63 -50 69 -71V-72H68L53 -61L48 -56Q48 -55 47 -54H46Q37 -62 37 -65Q41 -67 47 -68Q47 -69 56 -72L61 -74Q61 -75 65 -76Q73 -80 73 -85Q74 -85 75 -94Q76 -94 76 -97L77 -98V-99L80 -119Q80 -122 78 -127V-131ZM49 -110H50L51 -109H53Q60 -109 65 -106H67L74 -102L71 -95Q66 -93 65 -93Q61 -93 51 -102L47 -108ZM154 -84Q161 -82 161 -81Q161 -80 164 -80L165 -79V-77Q165 -70 142 -63L141 -64Q141 -63 148 -61Q150 -59 150 -57L148 -50V-48H150L157 -50H162Q168 -49 168 -45V-43Q164 -38 158 -38Q158 -37 151 -36Q151 -35 149 -35Q147 -34 147 -28L146 -27L147 -26L146 -22V-19L145 -10Q146 -7 147 -7L150 -9H155Q176 -11 176 -12H180Q185 -9 192 -8Q192 -6 194 -4V0Q194 3 185 4Q181 4 173 1H168H162L128 5H123L122 6H119L110 9H109Q106 9 98 13Q93 7 88 4V1Q88 -1 105 -2L106 -1Q109 -3 113 -3H119Q128 -3 128 -7V-19V-22V-24Q126 -24 125 -23L123 -22Q116 -30 112 -30L111 -31Q111 -32 109 -32V-33Q109 -34 113 -36H115L129 -41L128 -45Q129 -47 130 -55L129 -57H127Q122 -61 120 -61Q120 -63 117 -63L112 -67Q114 -70 120 -70Q120 -71 132 -76V-75L140 -78Q143 -81 147 -81Q147 -82 154 -84Z"/>
</svg>