<svg xmlns="http://www.w3.org/2000/svg" viewBox="0 -256 256 256">
	<path fill="#000000" d="M157 -187H168Q170 -185 171 -185L172 -186Q178 -186 188 -180Q196 -173 196 -162Q196 -158 187 -153H186Q180 -153 170 -160Q167 -165 161 -171Q156 -177 150 -180L147 -182V-183L148 -184H149Q152 -185 156 -186ZM96 -183Q99 -176 104 -174Q106 -172 113 -170Q116 -166 116 -162Q116 -154 112 -152Q108 -149 106 -149L105 -150H104Q103 -149 99 -149Q94 -144 83 -140L70 -132Q67 -132 59 -126Q44 -119 36 -113H35L34 -114V-116Q37 -119 44 -122Q47 -125 51 -127Q58 -135 60 -135Q60 -138 65 -141Q67 -145 73 -150Q75 -155 80 -158Q82 -162 85 -171Q85 -174 83 -176V-177Q83 -178 89 -182L92 -181ZM152 -154Q156 -154 157 -151Q167 -146 171 -146Q175 -144 175 -140V-139Q175 -136 168 -131Q168 -130 159 -120Q159 -119 154 -113Q158 -111 161 -108V-106Q161 -100 147 -100Q142 -100 130 -95Q127 -95 123 -93H122Q119 -93 116 -91H115Q112 -90 104 -87V-86Q104 -85 110 -84Q116 -78 119 -78L120 -75Q120 -72 115 -68L108 -60L102 -53Q101 -53 99 -50Q70 -21 53 -11Q47 -5 34 2Q20 12 18 12L17 9Q17 6 21 6L40 -7Q49 -14 53 -20Q60 -23 60 -25Q69 -32 69 -35Q72 -36 83 -50Q84 -50 87 -56Q90 -56 92 -62Q93 -65 94 -65L99 -74L100 -78L98 -80V-83Q98 -84 99 -84H100V-85Q100 -86 97 -86L94 -91H95V-92L94 -95V-96L92 -105L93 -108L91 -112L92 -113Q90 -113 87 -125Q86 -125 86 -128Q85 -128 85 -131Q85 -134 86 -135Q88 -135 92 -131L98 -129Q102 -131 105 -131H107L113 -135L114 -134Q114 -135 121 -137Q121 -139 127 -140H131Q138 -143 138 -144H140Q143 -144 151 -154ZM110 -124H108V-123L110 -122V-111Q110 -110 108 -108V-107Q110 -105 110 -101L113 -100Q120 -101 125 -104L136 -107Q137 -108 138 -117Q139 -118 139 -126H140V-127L141 -130L140 -131V-132L142 -134V-135H139Q138 -135 135 -133L123 -129Q121 -129 118 -127ZM133 -88H135Q137 -84 141 -84Q141 -83 147 -82L149 -78Q148 -73 144 -69Q144 -68 142 -66V-63L140 -54V-35Q143 -23 149 -17L162 -13H164H170H172L175 -12L178 -13H185H186H187Q194 -13 197 -14H198Q218 -16 218 -19Q226 -35 226 -48L228 -50L229 -49V-43Q229 -24 232 -20Q238 -14 238 -11Q238 0 223 4Q214 7 206 7H198L196 8L195 7L193 8L191 7L188 8H184H181L174 7L173 8Q172 7 162 6Q162 4 157 4Q153 0 148 0Q144 -1 134 -13Q133 -13 133 -17Q130 -17 128 -30V-33V-35V-41V-43L129 -53L128 -54V-57L129 -60L128 -63L129 -67L128 -69L130 -73L128 -75V-76L129 -77L127 -83Z"/>
</svg>