<svg xmlns="http://www.w3.org/2000/svg" viewBox="0 -256 256 256">
	<path fill="#000000" d="M121 -189H122Q125 -187 142 -184L143 -183V-180Q142 -170 140 -167L142 -168H143H144H146H147Q147 -170 148 -170H149V-169Q150 -169 153 -172Q156 -172 162 -177L166 -182H167Q168 -182 168 -179L186 -171L189 -168V-166Q189 -162 182 -158Q175 -154 175 -152Q167 -143 167 -140Q164 -138 164 -137L165 -135Q163 -135 162 -131Q161 -131 159 -126Q157 -126 157 -125V-123H158Q158 -127 167 -128Q167 -129 173 -131H174L183 -128Q183 -126 187 -125V-121Q184 -117 177 -117L170 -119L157 -120Q154 -118 144 -117Q144 -116 135 -115L134 -114L131 -115Q128 -105 117 -91L112 -86Q105 -80 103 -77Q93 -72 90 -69L89 -70L100 -81Q102 -81 103 -85Q109 -91 109 -92L112 -99L111 -100Q115 -103 115 -108V-109H114L100 -104Q97 -103 93 -102Q93 -101 90 -100Q90 -99 83 -97Q83 -95 79 -94Q73 -96 67 -102V-103L68 -105H69L72 -104Q78 -107 88 -109Q91 -111 91 -112V-113V-118L93 -121Q88 -125 88 -132L85 -141Q85 -143 80 -149Q80 -155 78 -158L79 -159Q86 -154 94 -151Q94 -154 99 -154L117 -161H120L119 -162Q119 -164 120 -164V-167V-168L121 -173V-174Q119 -180 115 -180L113 -183Q113 -184 118 -187ZM140 -161L138 -162L137 -161L139 -158L138 -157V-154Q137 -151 135 -138L134 -131L133 -130L134 -128V-127Q132 -125 132 -121V-119H133Q145 -122 147 -125L149 -133Q153 -156 155 -161Q157 -163 157 -164L155 -165Q153 -163 143 -162Q143 -161 140 -161ZM104 -149H102L99 -150L98 -147H101L104 -143V-141V-137V-136V-135V-134V-133V-132L105 -131L104 -128L105 -122L104 -120L105 -116L103 -111H104H105Q105 -115 112 -115H113H117L118 -127V-130L120 -132Q119 -134 119 -136L120 -141L119 -146L121 -149V-151V-152L119 -156Q116 -153 107 -151L104 -150ZM137 -108Q139 -107 144 -107L145 -105L146 -106Q152 -105 152 -104H153L163 -102Q163 -101 167 -101Q175 -96 175 -93V-92L174 -91V-89Q168 -82 165 -82Q162 -82 152 -95L144 -101L136 -106V-108ZM176 -86H177Q178 -86 183 -82Q190 -81 190 -78V-79H191L195 -75V-72Q195 -69 190 -65Q183 -54 183 -51Q182 -47 180 -42Q180 -39 177 -33H175L177 -31V-30L176 -27V-26L186 -27L188 -26Q195 -28 198 -28L209 -32H210H211L219 -28Q229 -26 229 -17Q229 -12 222 -11H219Q217 -13 210 -14Q207 -16 202 -16H201H193H189H185H177H171H169H167L160 -15L158 -16L139 -14Q139 -13 131 -12V-13H130Q124 -10 119 -10Q119 -9 112 -9Q112 -8 109 -8Q103 -7 99 -5H97L86 -3Q81 1 73 1L54 8Q46 11 43 14H42Q39 14 31 7Q27 3 27 1V0L28 -1H29L30 0Q33 -2 36 -2L40 -1Q42 -3 57 -5L60 -6L62 -5Q64 -7 77 -9L84 -10Q84 -11 89 -11L90 -12Q88 -14 87 -29L82 -46Q74 -60 72 -73H73Q80 -67 80 -66H83Q86 -63 90 -63L94 -64H96L101 -66L103 -65L108 -67Q125 -71 134 -72L147 -76V-75H148L165 -80V-81H166V-80H167ZM147 -70V-71L143 -69L140 -70L139 -68Q139 -67 142 -67Q142 -66 145 -65Q147 -63 150 -61Q150 -59 152 -58V-57Q152 -55 150 -55L151 -54V-53Q151 -52 149 -52V-50Q147 -47 144 -34Q142 -32 140 -24V-22L141 -21H144Q145 -22 156 -23L158 -24Q162 -42 162 -46V-51L164 -52V-57V-59V-62V-64V-65V-66Q164 -68 166 -71V-73L157 -72L156 -73Q153 -70 147 -70ZM117 -63H116H115Q111 -61 111 -60Q113 -60 117 -56Q120 -56 122 -49L123 -47V-44L124 -33L123 -29V-24Q123 -22 120 -19V-18L128 -19V-18H129Q132 -18 132 -24L133 -28Q134 -28 134 -35L135 -36L134 -38V-41L135 -42V-44V-46V-47Q136 -49 136 -52V-57V-58L133 -65V-66L135 -68L134 -69H133Q131 -67 127 -66Q127 -65 122 -65Q119 -63 117 -63ZM95 -61V-60Q96 -55 99 -55Q98 -46 97 -46Q99 -44 99 -36L98 -32Q99 -27 99 -14V-13H100L113 -16Q115 -17 115 -18Q112 -23 112 -31L113 -34L112 -36V-37L111 -49H112L111 -52V-54L110 -57V-61H109L100 -57Q98 -57 96 -61Z"/>
</svg>