<svg xmlns="http://www.w3.org/2000/svg" viewBox="0 -256 256 256">
	<path fill="#000000" d="M96 -154Q104 -153 115 -146Q117 -142 125 -138Q125 -135 151 -113Q151 -111 155 -110Q155 -108 159 -106Q170 -97 172 -97L189 -87Q189 -86 192 -86Q196 -82 201 -81Q204 -79 211 -76Q211 -75 216 -74Q216 -73 225 -70Q234 -66 247 -63V-62V-61Q247 -60 235 -59Q235 -58 228 -57Q227 -55 219 -53Q219 -52 214 -50H213L209 -48V-49Q203 -44 201 -44H200Q190 -46 180 -52Q166 -61 144 -81Q134 -89 132 -93Q131 -93 125 -100Q115 -108 115 -110Q115 -112 114 -112H113L98 -94L85 -78Q83 -77 71 -65Q65 -61 61 -56Q59 -56 53 -50L44 -42L35 -37Q26 -33 9 -22L8 -23V-25Q22 -33 25 -36Q39 -51 44 -54Q49 -58 52 -64Q60 -70 60 -73Q60 -74 62 -74Q63 -77 68 -81Q68 -82 72 -87Q72 -90 78 -95Q78 -96 84 -103Q85 -106 89 -110Q90 -112 92 -112L93 -113L92 -114L101 -127V-129Q96 -136 93 -136Q91 -140 86 -140Q82 -144 81 -145V-148Q84 -154 96 -154Z"/>
</svg>