<svg xmlns="http://www.w3.org/2000/svg" viewBox="0 -256 256 256">
	<path fill="#000000" d="M174 -194Q181 -194 183 -189Q184 -188 195 -180L197 -178Q196 -171 192 -171Q189 -168 188 -167V-164Q185 -163 185 -160Q183 -160 180 -150Q178 -150 177 -146Q176 -146 173 -140Q171 -139 171 -136Q166 -127 163 -126Q163 -122 154 -111Q154 -109 151 -108Q151 -106 146 -102H144H143V-103Q148 -113 152 -117H151V-118Q153 -120 155 -126Q157 -128 159 -135L163 -146Q163 -148 166 -157Q167 -163 169 -167Q169 -168 172 -176V-177V-180V-182Q172 -185 168 -187V-189Q168 -192 174 -194ZM127 -177H128Q137 -173 141 -173V-172L143 -173Q146 -172 150 -168V-166Q148 -160 146 -160L144 -159H142Q142 -158 138 -157Q138 -155 132 -154V-153L134 -149V-146L129 -139L128 -136Q126 -135 126 -132L125 -131H124H125V-130L122 -127H123L131 -130L133 -129Q133 -131 135 -131H137Q138 -133 140 -133Q140 -131 144 -131Q147 -131 147 -126Q142 -121 138 -121H135L133 -122Q133 -120 126 -118L125 -119Q125 -117 121 -116Q121 -115 119 -115Q120 -115 120 -113Q122 -114 124 -114L129 -111Q129 -112 130 -112Q132 -112 133 -106H134L132 -100V-62L131 -59H132Q136 -61 138 -64Q138 -65 140 -65L141 -64V-63Q138 -59 134 -57Q131 -55 131 -46V-45V-42V-39V-32V-23V-20L130 -13L131 -9L129 -4V-1Q126 12 123 15Q121 18 120 18H119Q118 18 118 17V15V13V12Q116 -2 114 -4L116 -6V-10V-15V-18V-20V-22L117 -42L114 -41Q112 -39 108 -36Q108 -35 101 -33L102 -32V-31Q101 -29 96 -27Q94 -24 87 -20Q85 -16 81 -14Q80 -14 75 -21Q74 -21 72 -24V-25Q72 -27 77 -27Q77 -29 80 -29Q80 -31 86 -33H88V-34L87 -35V-40L86 -75H87V-76L86 -78V-81Q86 -92 84 -92L85 -94L83 -99V-100L80 -96H78Q77 -96 73 -102V-111Q73 -112 80 -114L81 -115H82Q83 -115 83 -113Q84 -114 86 -114H87Q87 -116 92 -116L95 -118L96 -117Q96 -119 102 -119Q104 -122 109 -122L111 -133Q111 -136 113 -141V-142L112 -143L103 -139L93 -150Q92 -150 92 -154Q89 -154 89 -155V-158L92 -159L95 -158Q95 -160 105 -163Q105 -164 110 -165Q111 -166 114 -166Q122 -170 122 -173L124 -174Q124 -176 127 -177ZM60 -158Q65 -154 69 -154Q76 -151 76 -149Q76 -147 78 -145V-144Q78 -143 74 -137L71 -119V-118L72 -116L71 -115L72 -113L71 -108L72 -106L71 -104Q72 -103 72 -99Q71 -99 71 -94L72 -90H71L72 -86L71 -85V-84L72 -82L71 -81L72 -77L71 -75L72 -72L71 -68V-67L72 -65L71 -63V-59Q71 -54 68 -46Q68 -43 61 -37Q61 -35 60 -35Q57 -36 57 -37V-39Q57 -41 55 -48L56 -60L54 -61Q52 -59 44 -55L40 -52Q34 -50 25 -41H24V-38H23Q17 -38 12 -45Q6 -47 6 -50Q6 -52 12 -52Q16 -54 16 -57V-60Q16 -68 17 -73V-75V-78L15 -97V-104Q12 -131 10 -131Q10 -132 8 -134V-137V-140L9 -141H11Q14 -138 18 -137L28 -141Q32 -143 34 -143Q36 -144 47 -149Q52 -152 60 -158ZM196 -143L199 -142L202 -143Q209 -140 209 -135Q206 -129 200 -129Q200 -128 191 -124L186 -122Q184 -122 184 -120L181 -117H180Q179 -117 178 -121Q176 -121 174 -123Q173 -123 171 -126Q167 -126 167 -127V-128Q167 -129 169 -129L172 -131H173Q174 -133 178 -133Q179 -135 186 -139L188 -138Q192 -143 196 -143ZM25 -132V-131Q29 -131 29 -128L28 -127L29 -125V-124L28 -123H29V-121L28 -120Q29 -114 29 -113H30Q38 -115 42 -119L47 -115V-113Q45 -108 36 -106L31 -103L29 -101V-98V-91V-87Q38 -91 42 -94H44Q47 -94 49 -90V-89Q47 -85 33 -81L29 -77V-76V-74V-72V-69V-60Q34 -62 46 -67Q55 -71 55 -72V-88V-90V-94V-119V-130V-132V-134V-137Q53 -141 52 -141L49 -140V-141H48ZM105 -110H102Q102 -108 97 -107Q97 -106 92 -105L85 -99Q88 -95 94 -94Q95 -91 96 -91L97 -89H98Q98 -91 108 -94L109 -93H110L109 -95L110 -96H114L115 -95H116V-96V-98L117 -107L114 -111L115 -114L114 -116Q113 -116 113 -113ZM181 -114H182Q183 -114 190 -110V-111H191Q193 -111 195 -105V-103Q191 -98 189 -91H188L189 -89Q185 -75 181 -66Q191 -52 198 -49Q199 -47 212 -37L219 -32Q221 -32 224 -28Q227 -28 232 -24Q243 -18 249 -17V-14H248L240 -16L238 -15L237 -16L234 -15L232 -16L230 -15L227 -16Q227 -14 223 -14Q216 -12 209 -6H208L197 -17Q195 -17 182 -32Q182 -33 176 -40Q172 -46 170 -47H169Q169 -44 160 -37Q160 -36 156 -34Q156 -33 151 -31Q149 -28 145 -26Q145 -24 142 -24Q135 -18 133 -18L132 -20Q132 -22 143 -29Q157 -44 159 -51L163 -57Q163 -63 159 -69Q158 -73 154 -79Q153 -79 152 -83Q149 -87 146 -89V-91Q148 -92 148 -95H150Q155 -95 157 -92H158Q160 -92 166 -86Q168 -86 168 -84Q171 -83 171 -81H173Q176 -85 176 -88Q177 -88 177 -94Q178 -94 178 -97L179 -100L180 -101V-105L178 -110Q178 -112 181 -114ZM110 -86Q107 -86 106 -84H105Q104 -84 104 -86H103Q102 -86 102 -83Q98 -82 98 -81L99 -80Q98 -79 98 -75L97 -73Q97 -69 100 -69Q101 -69 109 -74H110V-72H111L113 -73L115 -70Q113 -65 105 -65H104Q104 -63 100 -62Q99 -60 97 -59V-57V-48L98 -44L97 -43Q98 -41 99 -41Q101 -41 103 -44L105 -43Q105 -45 110 -46Q110 -47 113 -47L118 -52L117 -54L118 -57V-59L119 -68L118 -70L119 -72L118 -74V-76V-80L119 -82Q118 -82 117 -87V-88H116Z"/>
</svg>