<svg xmlns="http://www.w3.org/2000/svg" viewBox="0 -256 256 256">
	<path fill="#000000" d="M166 -206Q169 -206 171 -200L183 -189L184 -186V-184Q184 -180 175 -174L173 -175H172Q161 -173 161 -171H160L154 -169Q149 -167 148 -167Q144 -165 138 -162L129 -157H127Q132 -145 132 -139Q132 -133 129 -129V-128L130 -129H131L134 -128Q134 -130 149 -133Q151 -133 153 -134H154Q154 -135 160 -135Q163 -135 169 -145Q178 -153 184 -167V-168L183 -172Q184 -178 190 -178H191Q196 -174 203 -171L205 -167Q205 -158 199 -158Q193 -153 191 -153Q191 -152 186 -150Q186 -148 184 -148Q177 -143 177 -142Q171 -140 171 -138H173Q173 -139 184 -140L185 -141H190L191 -140H192Q192 -141 193 -141H195L197 -142L199 -141L203 -142H204H208L211 -143L214 -142Q215 -144 223 -147Q225 -147 228 -139Q229 -137 233 -137L236 -134Q238 -134 243 -128V-125Q243 -118 234 -116Q229 -117 229 -118L225 -117H224L222 -118L219 -116L216 -117Q210 -115 207 -112L206 -113V-114Q212 -119 213 -125Q214 -125 216 -133V-134L202 -133H200L194 -132Q188 -130 187 -129Q190 -127 191 -126V-123Q189 -122 188 -114V-113H190Q191 -112 196 -111L199 -108V-107Q199 -102 191 -99Q191 -97 188 -97V-95V-92V-91V-87V-75V-70Q187 -68 187 -67L188 -63L187 -62V-60H188L192 -63L195 -62L198 -63H202Q207 -67 212 -67L216 -64L217 -65Q223 -62 223 -58Q223 -54 217 -54Q213 -54 213 -55V-54H211L210 -55L209 -54H207L206 -56H205Q203 -54 202 -54L201 -55Q196 -54 195 -53H194L193 -54H192H188V-51Q188 -48 189 -46L188 -43L189 -38L188 -35Q189 -33 189 -29V-28V-27V-23V-14V-13V-8V-4V-3V0V1V5V6V10V11L188 14V16Q186 16 185 22L184 23V25Q182 27 182 29L180 30H179V23Q178 18 177 16L178 14L177 10L178 9Q177 5 176 4L177 -5L178 -9L176 -11L177 -13V-17V-18L178 -22V-23L176 -25L178 -29L176 -41H177H176L177 -46V-48L178 -50V-51H176L175 -50H172Q172 -47 169 -47H167Q167 -45 166 -45L164 -46L161 -43L159 -44Q159 -41 152 -40L149 -38Q145 -38 144 -42L143 -44V-45Q145 -48 148 -48Q148 -50 149 -50H150V-49H151Q151 -50 154 -52L157 -60V-61L158 -65L157 -66V-67Q158 -68 158 -71L157 -72V-75Q155 -75 155 -76V-77Q157 -80 159 -80Q164 -77 165 -77Q165 -76 168 -75Q170 -73 171 -72Q165 -63 165 -58L166 -56Q167 -56 167 -55Q176 -59 176 -62V-63L175 -64L176 -69V-73L175 -74V-75L177 -77Q175 -78 175 -82L176 -84V-85L175 -86V-90V-92L171 -88H170Q168 -88 159 -95Q157 -95 155 -99Q156 -100 161 -100Q161 -102 164 -102Q164 -103 173 -106Q175 -106 175 -108L177 -113L175 -116L176 -117L175 -119V-123Q175 -125 174 -127L175 -130V-132L173 -131H171Q169 -130 168 -128L166 -129H165L158 -127L152 -125H149L140 -122L139 -123L137 -122H135L132 -120L131 -121Q126 -117 122 -117Q118 -116 116 -115H115Q114 -115 113 -117Q111 -115 109 -115V-113Q109 -110 107 -99Q107 -98 100 -88Q99 -86 93 -84Q88 -85 88 -89V-90V-92L87 -94L88 -96L87 -97L89 -104Q91 -112 93 -112V-113L95 -124L94 -129V-132L93 -137L94 -138H95Q105 -128 105 -127Q105 -126 107 -124L108 -122L107 -120H108L111 -124H112V-123Q116 -123 117 -125H122L124 -127Q120 -130 117 -135Q115 -143 112 -147Q112 -148 109 -154V-158Q106 -162 106 -165Q107 -166 109 -166Q116 -164 122 -160H125Q135 -170 140 -173Q148 -179 148 -180Q157 -188 159 -194L158 -201Q158 -203 166 -206ZM146 -163Q161 -159 161 -153L162 -152V-151Q162 -150 160 -150L161 -148V-147Q157 -140 154 -140H153Q150 -140 150 -146Q148 -148 145 -159Q144 -159 144 -162V-163ZM72 -153H73Q78 -151 78 -150L80 -151Q82 -151 91 -148V-145Q91 -143 87 -135L86 -133Q86 -131 87 -131V-128V-123Q87 -121 85 -119V-116V-115L84 -114L85 -107Q83 -107 83 -104L85 -103V-102Q85 -101 83 -101L84 -94L83 -90L84 -89L82 -87L83 -86V-82V-77V-73V-72Q83 -70 82 -70H83V-69L82 -60V-59L81 -57L82 -55Q82 -42 74 -38H75V-36Q72 -32 69 -30H67Q65 -30 64 -42Q63 -42 62 -46V-51V-53Q62 -55 61 -56Q45 -48 43 -48L42 -46H41L39 -47Q36 -43 35 -40L28 -34H27Q25 -34 25 -40L22 -46V-47L21 -50Q22 -52 23 -63L22 -67H23L22 -70V-72V-74V-78V-81V-85V-87L21 -90V-92H22L21 -93V-95L22 -99Q19 -99 19 -100L21 -103V-108V-109Q20 -111 18 -123Q15 -126 14 -131Q13 -131 13 -133L17 -138L29 -132H30L35 -135H37H40H41Q41 -137 44 -138V-137Q46 -140 50 -140Q54 -142 62 -145Q69 -153 72 -153ZM49 -130H47Q46 -127 44 -127Q40 -127 40 -122L39 -119V-117L38 -116L39 -114V-112V-110L40 -109H41L51 -113L54 -115Q56 -113 58 -113Q60 -111 60 -108Q58 -105 54 -104Q54 -103 49 -102Q47 -102 43 -99Q38 -99 38 -97L39 -94H38L39 -90V-86V-85H40Q47 -85 47 -87Q47 -89 52 -89Q53 -90 54 -90Q57 -88 58 -87L57 -86H58L59 -84L55 -80L53 -81Q52 -81 48 -78L44 -77L38 -75V-74L39 -72L38 -70L39 -67L37 -65V-64Q39 -63 40 -59V-58L56 -64H58Q58 -66 62 -66L63 -68V-72V-77L65 -83Q64 -83 63 -87Q63 -93 65 -98L64 -100L65 -105L64 -109L65 -110V-111L64 -113Q64 -117 65 -118V-119L64 -121L65 -123V-126L64 -129Q66 -130 66 -132Q65 -135 63 -135Q60 -133 49 -130ZM119 -107Q126 -102 127 -102Q131 -101 134 -96V-95Q132 -88 128 -88Q127 -88 124 -83Q121 -81 115 -75Q113 -75 113 -73Q112 -73 111 -70L97 -58L89 -53L86 -52V-53V-54Q87 -55 97 -64Q102 -69 105 -76L110 -85Q110 -88 114 -93V-98H115V-99Q113 -99 112 -102V-103Q112 -104 119 -107ZM134 -85H136L138 -83L139 -84L142 -81L148 -82Q152 -82 152 -75Q146 -71 145 -68Q141 -68 141 -63L136 -60V-59Q136 -56 131 -51V-50H130H131Q135 -50 138 -42V-41Q138 -36 131 -34H130Q126 -34 126 -37V-39V-40H125L124 -39Q123 -39 122 -41Q122 -36 115 -31L112 -27V-28Q106 -23 97 -17Q94 -14 83 -9H81H80V-10L92 -17Q97 -21 112 -38V-39H111V-40L115 -46V-47Q114 -47 114 -52Q107 -54 107 -58V-59H109Q111 -59 113 -56L117 -57H118L120 -54L122 -55L121 -58L124 -63L126 -66Q128 -72 129 -74V-75L128 -76L125 -75H124L122 -77Z"/>
</svg>