<svg xmlns="http://www.w3.org/2000/svg" viewBox="0 -256 256 256">
	<path fill="#000000" d="M94 -191Q94 -188 112 -182Q117 -180 117 -177V-174V-170Q114 -166 108 -159Q103 -152 96 -144Q93 -137 90 -137Q90 -134 85 -132V-130Q85 -129 82 -128Q78 -121 64 -109L55 -101H54L53 -102Q68 -115 72 -124Q77 -131 79 -139Q82 -143 85 -151Q88 -159 90 -167L91 -176H92Q92 -180 90 -186Q91 -191 94 -191ZM154 -158Q167 -156 167 -149Q165 -144 161 -140Q159 -137 144 -133Q138 -131 136 -131Q136 -129 131 -128Q131 -127 127 -127Q127 -126 119 -125Q119 -123 117 -123H116Q110 -128 105 -131Q101 -136 96 -140L98 -141V-140H99L125 -149L130 -151Q130 -152 140 -154Q140 -155 154 -158ZM100 -120Q101 -120 105 -117L107 -118Q107 -117 112 -115V-114L115 -115Q125 -112 125 -110Q125 -108 123 -101Q123 -98 121 -98V-96L119 -94L121 -93Q131 -97 140 -99L157 -105L159 -107H161L163 -105H166Q178 -102 178 -97Q178 -93 169 -90H168Q161 -92 161 -93V-95Q161 -92 159 -92L158 -93Q156 -91 154 -91L151 -92Q141 -90 122 -84H118V-81L117 -77Q123 -74 127 -68Q129 -66 129 -64Q131 -64 136 -58Q137 -58 139 -56Q141 -56 141 -53Q150 -48 154 -41Q157 -40 162 -36Q179 -24 181 -24L201 -13Q204 -11 213 -7Q213 -6 220 -5Q225 -3 227 -1V0H225Q222 -1 209 -2L203 -1H197Q185 -1 177 2L172 3Q170 3 164 -5L154 -13Q143 -25 139 -32Q137 -32 134 -38Q131 -41 124 -52Q122 -58 120 -58L117 -63Q117 -65 116 -65Q114 -65 113 -60V-59Q111 -55 111 -53Q110 -53 106 -46V-45H105H106V-44Q106 -42 103 -37Q103 -34 99 -33Q99 -32 96 -29Q92 -24 82 -16Q80 -16 78 -13Q54 4 43 10Q37 13 33 14Q32 16 30 16H29L28 15V14Q28 13 32 13Q32 12 41 9Q52 2 69 -11Q79 -19 83 -26L87 -32L94 -46Q96 -56 98 -58V-59Q98 -64 100 -66V-69Q100 -74 101 -74L100 -75V-77H99L97 -78Q96 -75 95 -75L92 -76H91V-73H87Q86 -70 71 -64Q65 -60 64 -60H63Q61 -60 57 -63Q53 -64 46 -72V-73Q46 -75 47 -75L48 -74Q55 -74 67 -79L69 -78L73 -80H75L76 -81H79Q79 -83 86 -83Q86 -84 93 -85Q93 -86 99 -87L102 -89L101 -100V-104L102 -105L100 -108V-112Q98 -112 98 -113V-117Z"/>
</svg>