<svg xmlns="http://www.w3.org/2000/svg" viewBox="0 -256 256 256">
	<path fill="#000000" d="M159 -180H168Q170 -180 178 -174H180Q181 -174 182 -172H184L189 -167V-166Q189 -162 185 -159Q185 -157 177 -151Q175 -151 171 -144Q171 -142 167 -139Q165 -134 162 -132Q161 -132 161 -129Q158 -126 157 -125L158 -124H159Q163 -126 175 -128Q176 -130 188 -133L189 -132Q189 -134 198 -139Q200 -143 204 -143L214 -139Q224 -137 224 -133V-132L222 -127V-126Q221 -122 212 -121L210 -122Q201 -119 185 -104L178 -97L177 -98V-99Q180 -104 185 -108L186 -110Q185 -110 185 -111Q187 -115 189 -115L188 -118Q191 -124 194 -124L195 -126H194V-125L191 -126Q190 -124 183 -122L182 -121H181L180 -122Q173 -115 170 -114H169H168Q166 -114 162 -117Q161 -117 159 -119Q158 -119 155 -122L141 -108Q139 -108 135 -102Q133 -102 132 -99L130 -97H129L128 -98V-100Q134 -106 141 -118L142 -119Q143 -119 144 -125L148 -128L147 -130Q151 -133 151 -139Q154 -140 154 -142V-143Q156 -145 158 -153V-157Q160 -163 160 -168L156 -174V-175Q156 -177 159 -180ZM103 -164H104L107 -163L108 -164L112 -162H116Q121 -161 121 -158Q121 -150 110 -146Q108 -146 93 -135Q93 -133 89 -133Q89 -130 86 -130Q82 -127 79 -127Q79 -126 76 -122Q80 -122 89 -115Q92 -115 94 -112Q94 -104 90 -103Q88 -101 82 -90Q79 -90 78 -84Q77 -84 72 -77L73 -76Q77 -77 83 -82Q84 -82 90 -86Q93 -86 99 -90Q101 -90 103 -93Q110 -93 122 -87L123 -85L122 -82H123V-78Q123 -77 115 -72Q115 -69 112 -67Q110 -61 108 -61Q107 -56 102 -53L101 -51Q104 -51 104 -50V-48Q103 -45 102 -45Q93 -45 91 -43H89Q77 -39 76 -37Q72 -37 70 -35V-34L72 -32L70 -30V-28L65 -22H63L61 -24V-26Q59 -26 59 -31L57 -32L58 -34L55 -42Q55 -50 54 -50H52Q45 -44 42 -40Q29 -25 14 -15Q9 -9 5 -9Q5 -7 2 -5H1L0 -6V-8Q27 -30 29 -36Q32 -38 37 -47Q48 -62 49 -65Q50 -65 51 -68L50 -72L51 -76L48 -82V-85Q46 -85 46 -86V-87Q46 -89 50 -90Q56 -86 57 -86Q63 -86 63 -94Q65 -94 68 -100Q68 -102 70 -105L69 -108Q72 -111 72 -118L65 -125Q63 -125 58 -129Q55 -129 53 -133Q49 -136 46 -137L45 -139V-140L67 -148Q67 -149 71 -149Q77 -153 81 -153Q81 -155 89 -156Q92 -160 98 -160ZM146 -100Q163 -95 163 -91L161 -78L166 -73L179 -58Q180 -58 187 -50Q189 -47 192 -46L197 -41Q197 -40 199 -40Q200 -37 201 -37H203Q206 -34 209 -32L214 -28L230 -19Q231 -19 237 -15Q240 -15 243 -13Q255 -8 255 -6L253 -5H243L236 -4L234 -5L231 -4H227Q222 -4 209 4H207L192 -12L185 -20Q183 -20 177 -28L166 -42Q166 -44 162 -47Q162 -49 160 -51V-53Q158 -53 155 -57H154V-55L155 -54Q155 -52 153 -50Q153 -45 149 -44V-41L144 -33Q143 -33 143 -31Q138 -27 138 -24Q134 -23 133 -20L114 -6H113L112 -7Q113 -9 117 -11Q117 -13 119 -13Q127 -22 130 -30L134 -35V-37Q136 -39 136 -44Q139 -45 140 -55Q142 -55 143 -66Q143 -71 145 -83Q144 -83 143 -87Q141 -87 141 -92L139 -94V-95Q140 -100 146 -100ZM73 -67H72L71 -68H70V-66Q70 -64 72 -62V-61L71 -59L72 -55V-54V-50Q73 -46 75 -46L87 -52L92 -53Q95 -61 95 -64H94L95 -67V-69V-76Q88 -74 81 -70L77 -69Q75 -69 73 -67Z"/>
</svg>