<svg xmlns="http://www.w3.org/2000/svg" viewBox="0 -256 256 256">
	<path fill="#000000" d="M180 -182Q182 -178 190 -178Q194 -176 195 -173V-172Q194 -167 190 -167L174 -156L167 -150V-148Q169 -148 171 -146Q173 -146 179 -137Q182 -137 185 -143Q186 -143 189 -149Q191 -151 191 -153Q191 -155 188 -156Q188 -160 193 -161L194 -162Q199 -162 203 -157Q211 -154 211 -150L212 -148Q210 -142 205 -142Q205 -141 199 -140Q194 -136 191 -136Q191 -134 185 -133V-132Q192 -127 195 -123L208 -113Q223 -101 227 -101Q239 -93 245 -91L262 -85Q245 -80 231 -78Q225 -74 223 -74L216 -78Q214 -78 212 -83Q199 -91 192 -100Q190 -100 187 -105Q184 -108 181 -108Q173 -123 172 -124Q170 -124 170 -128Q169 -128 162 -137Q158 -140 158 -141L153 -146Q152 -146 152 -141Q143 -135 140 -128Q137 -124 125 -103Q122 -101 120 -96L117 -93V-92Q117 -91 130 -85L132 -86H136Q137 -87 144 -88L145 -90H150L158 -92Q160 -96 166 -99L167 -101H169L174 -98Q177 -98 180 -96H185Q190 -93 190 -92V-91Q190 -88 183 -83Q183 -81 172 -67V-65L171 -61Q174 -58 177 -58L184 -52Q185 -51 185 -48Q176 -41 168 -29L156 -15V-14L157 -13Q163 -14 166 -15H167Q179 -15 185 -17L195 -20Q199 -20 201 -20Q206 -17 208 -17Q209 -17 211 -15Q213 -15 220 -9V-7Q220 -3 210 0Q207 -1 206 -2H203H198H194L187 -4Q184 -4 183 -2L174 -4L166 -3H161L160 -2H158L155 -3L153 -2H149H147Q123 0 118 4Q116 4 109 8L100 12H99Q97 12 91 5Q89 3 83 -1V-3L85 -5H99L101 -6H103H107H108H111L121 -8Q121 -9 122 -9L133 -10V-9Q136 -11 146 -12L149 -18Q149 -20 155 -29Q155 -30 158 -37Q158 -38 162 -47L163 -49Q162 -53 161 -53L159 -51H157L155 -53L156 -55L155 -57Q153 -56 149 -56Q149 -54 143 -53Q143 -52 136 -51L133 -44Q143 -36 143 -32V-31Q143 -25 134 -20H133Q131 -20 131 -25Q129 -26 128 -33Q127 -33 126 -39Q125 -39 123 -46L125 -47H128Q127 -49 127 -51V-54L122 -73L120 -78Q120 -80 116 -87Q116 -89 115 -89L106 -80Q101 -75 99 -74Q99 -72 93 -68H90L89 -69Q93 -71 99 -82Q107 -91 108 -99Q109 -99 111 -105Q110 -105 110 -107H109L105 -104Q102 -105 101 -111Q96 -118 96 -120L97 -121H100Q100 -119 104 -119Q109 -118 113 -113V-111Q116 -111 119 -128Q122 -134 122 -136Q122 -137 121 -137L116 -135H113L109 -140V-142L111 -144L115 -143L120 -145H122Q133 -155 137 -155H138Q142 -151 151 -149L152 -147H153Q155 -151 156 -152H160L163 -151Q163 -153 172 -169V-170Q169 -173 169 -176Q169 -178 173 -181H175ZM96 -147Q101 -146 101 -144V-142Q100 -136 92 -133L77 -123Q69 -119 66 -116Q70 -113 73 -109V-106Q72 -102 59 -83V-82H61Q62 -84 67 -84L68 -86H69L72 -85Q72 -88 77 -90L81 -93H82L89 -90Q97 -87 97 -86V-81Q91 -73 89 -67Q88 -67 87 -64Q86 -64 86 -61L91 -54L92 -53V-52Q90 -48 86 -48Q79 -46 75 -46Q75 -44 63 -41V-40Q54 -39 54 -34Q51 -22 48 -22H47Q42 -27 42 -36L39 -45Q39 -48 38 -52V-56Q18 -29 -6 -12L-7 -14V-15Q12 -30 12 -34Q17 -39 19 -42L24 -47V-49Q24 -50 26 -51V-53Q28 -55 29 -55V-57L36 -67Q37 -67 38 -72L37 -77L38 -79Q35 -89 31 -92L33 -94H35Q42 -90 46 -88L47 -86V-84H48Q49 -84 50 -92Q52 -92 52 -96Q53 -96 57 -107L58 -111V-112H56L54 -110H53Q43 -124 35 -128Q35 -129 49 -132L62 -137Q68 -137 70 -139Q88 -146 92 -146H94ZM161 -121H167Q168 -119 174 -118L175 -115V-113L172 -110H167Q167 -108 158 -107L139 -99H138L131 -106V-107Q131 -109 140 -110L145 -113V-112H146Q154 -117 156 -117L160 -120Q160 -121 161 -121ZM138 -78L136 -79L135 -78V-75V-67V-61L136 -60Q145 -62 149 -64H153Q157 -64 158 -76Q159 -76 160 -80V-86L158 -87L148 -83L140 -79ZM52 -69V-66L51 -64Q52 -64 52 -58V-56V-55V-52Q53 -52 53 -51L52 -47H54H56L58 -48H60Q64 -51 70 -51Q70 -53 74 -54L76 -62L75 -65L76 -76V-78H72Q70 -76 60 -74Q60 -72 56 -72Q55 -71 52 -70Z"/>
</svg>