<svg xmlns="http://www.w3.org/2000/svg" viewBox="0 -256 256 256">
	<path fill="#000000" d="M106 -187L109 -186L112 -187Q123 -185 123 -179L122 -175V-173Q112 -167 109 -167Q108 -166 94 -159Q94 -158 88 -156H87Q74 -166 71 -170Q69 -170 68 -172V-174Q68 -175 75 -176Q79 -177 81 -178Q83 -178 89 -180ZM161 -166Q167 -166 179 -160Q181 -160 186 -153Q186 -151 185 -149Q185 -147 179 -140Q179 -135 176 -133V-132H177Q185 -135 190 -137Q193 -137 198 -140L204 -141Q205 -143 206 -143H208Q209 -145 212 -145L216 -143Q221 -143 223 -142H225Q228 -142 233 -135V-134Q233 -131 230 -129H226L222 -128L212 -129L210 -128H206Q203 -128 199 -126L196 -127Q195 -126 187 -125Q186 -125 175 -121Q169 -121 169 -116Q169 -114 166 -109L156 -89Q151 -82 149 -82H148L149 -81V-80Q146 -77 146 -75Q146 -76 152 -76Q152 -77 164 -80Q164 -81 173 -83L190 -90L200 -96Q204 -94 204 -91Q207 -88 214 -87Q221 -84 221 -80Q220 -75 217 -72Q206 -55 202 -49V-48Q202 -47 208 -45L209 -41Q209 -37 200 -35L197 -36H194L189 -35L187 -36Q185 -34 174 -33L166 -30L163 -29V-30L161 -28L162 -25Q160 -21 155 -15H154Q152 -16 151 -20Q148 -23 148 -26L149 -27Q145 -35 143 -48Q142 -48 141 -51H142L137 -66H136L132 -60Q131 -60 125 -54L122 -53Q122 -49 114 -46L104 -36Q100 -36 100 -31V-24V-12V-10V-9Q100 -2 96 5Q89 11 88 11Q84 11 83 -4V-8L82 -11V-14L83 -16V-19V-23V-32V-34L84 -35V-38V-39L83 -42L84 -44L83 -46L84 -49L83 -50L85 -55Q84 -55 84 -57V-60Q83 -67 82 -67L84 -78H82L81 -74Q77 -73 77 -71L68 -60Q68 -58 65 -58Q65 -54 53 -45L37 -30Q37 -29 25 -23H24H23V-24Q48 -46 54 -56Q60 -64 61 -67Q64 -70 66 -76Q67 -76 72 -85Q73 -85 74 -89L75 -92Q76 -92 77 -94V-95L82 -107Q81 -108 81 -110V-112Q79 -117 78 -117H77Q75 -115 71 -114Q69 -111 59 -105Q59 -104 56 -104Q53 -99 50 -99L47 -96H45Q42 -99 28 -110V-111Q27 -111 27 -112V-113Q27 -114 40 -117Q43 -119 49 -120L60 -126Q64 -126 70 -130L73 -131H74Q77 -133 85 -135Q86 -138 92 -138Q92 -139 100 -142Q105 -145 115 -147H116H117Q127 -146 127 -143V-141Q126 -137 122 -137Q122 -136 113 -134Q113 -132 104 -130Q104 -129 99 -127L97 -126H95Q94 -126 90 -126V-125Q95 -125 95 -122L100 -121Q101 -121 104 -117V-115Q99 -110 99 -109Q99 -107 98 -107V-104V-103L96 -100Q98 -99 98 -97V-95L97 -94Q98 -92 99 -92L100 -93L105 -92L114 -93L116 -92L120 -93Q123 -90 127 -90Q127 -87 131 -86Q136 -84 136 -83Q136 -82 137 -82L140 -86L141 -90Q145 -94 149 -107L150 -108V-109H149Q146 -107 138 -105L136 -103H134L127 -109Q123 -109 121 -112V-114Q121 -115 133 -117L139 -119L155 -125Q156 -126 156 -133L158 -134V-135L157 -136L160 -143L158 -145V-149Q157 -155 154 -158V-159Q157 -166 161 -166ZM99 -90L98 -88V-86V-85Q98 -84 97 -84V-83Q98 -83 99 -81V-80L98 -77V-76L99 -74L98 -72L99 -70L98 -68L99 -64L98 -63L99 -59V-55L100 -52L99 -48V-45V-41Q100 -41 100 -40H101Q107 -43 118 -54L127 -64Q130 -71 132 -73Q131 -76 129 -77L119 -76Q119 -77 109 -82L103 -86Q103 -87 101 -87ZM180 -75L176 -76Q175 -74 167 -72L162 -70L155 -73H154V-72V-71V-68L155 -63L154 -61Q155 -61 158 -53L157 -50Q158 -50 158 -43V-42Q158 -39 159 -39H160Q167 -43 181 -45Q181 -46 183 -46H186Q187 -46 188 -52V-54L191 -69V-73L193 -78L191 -80Q189 -78 182 -76Z"/>
</svg>