<svg xmlns="http://www.w3.org/2000/svg" viewBox="0 -256 256 256">
	<path fill="#000000" d="M164 -196L175 -187Q179 -187 186 -180V-179Q186 -176 185 -176L186 -173Q184 -166 182 -164L183 -161L181 -157V-154Q180 -148 179 -140H180V-139L179 -137V-133V-129L178 -126L179 -122L177 -118L179 -114L177 -100L175 -87Q174 -87 173 -81L168 -72L161 -63H164L173 -65H177L182 -67H183L184 -66L186 -67H187H189L211 -71Q212 -72 214 -72H220Q233 -61 233 -58Q229 -50 224 -50H223L217 -52L215 -51L207 -53H202L201 -54V-53H200Q191 -53 189 -54H187L183 -55L180 -54L174 -55H173L167 -54H166L165 -55L161 -54L160 -55H159L153 -54H151L142 -53L140 -54Q138 -53 132 -43Q122 -27 112 -17Q107 -11 84 4Q61 18 56 19L54 20V18Q54 17 65 11Q75 5 83 -3Q85 -7 90 -10Q92 -11 99 -23Q100 -23 101 -27Q104 -30 105 -31Q105 -36 108 -36V-37V-38Q109 -39 109 -41L110 -42L111 -44V-45L112 -49L111 -50Q106 -48 100 -47L90 -44H89V-45Q85 -45 82 -42L76 -41Q72 -41 61 -36Q55 -34 52 -34Q48 -31 34 -25Q33 -25 30 -31Q27 -34 24 -36L22 -39V-40Q22 -41 37 -44Q37 -45 40 -45L41 -44L50 -46H52L87 -52H88Q92 -54 94 -54Q94 -53 96 -53L105 -55H111L113 -57L115 -56Q117 -58 117 -62L119 -63V-69Q119 -72 120 -72Q125 -67 132 -64L137 -60L138 -61Q151 -61 152 -63L153 -70L151 -71V-72L153 -73L151 -79V-82V-85Q151 -88 152 -90Q150 -90 150 -92Q153 -93 153 -102Q153 -105 154 -107Q153 -107 153 -109L154 -112V-116L155 -120L154 -122L155 -124L154 -126L155 -130L154 -132V-134V-135V-137L153 -139Q154 -141 155 -150H154V-151H155V-152L154 -153L155 -156L154 -159L155 -162L154 -163V-165L153 -169V-172V-173Q150 -171 148 -171H146Q144 -170 139 -169Q139 -167 132 -167Q127 -163 122 -163L117 -160H115Q114 -160 112 -164L102 -172V-173Q102 -174 104 -175V-174H105L118 -178L119 -177Q122 -179 130 -180Q131 -180 140 -183H141L142 -182Q144 -183 151 -184Q159 -193 164 -196ZM86 -167L90 -162Q94 -159 99 -158V-156H101Q103 -156 106 -152Q108 -152 110 -148L109 -145L110 -143V-142L109 -141V-139Q116 -140 120 -144L134 -148Q134 -149 136 -149H138L142 -146V-144Q142 -141 136 -140Q121 -136 109 -130L110 -126V-125L109 -117L111 -113Q121 -118 125 -118L128 -120Q128 -121 134 -122V-123H136Q143 -119 144 -118V-116Q144 -115 136 -114L122 -109Q116 -107 112 -105Q110 -105 110 -103V-100V-95V-89Q110 -87 112 -87Q112 -88 118 -90Q118 -91 126 -92Q133 -95 139 -96Q145 -94 148 -92V-90Q145 -86 144 -86Q143 -86 141 -85H137L129 -82Q125 -82 118 -80L111 -77L108 -78L107 -77Q110 -77 110 -75Q108 -72 108 -67L101 -60Q99 -60 98 -64Q97 -64 97 -65V-69Q94 -75 94 -80V-84V-90L93 -92L94 -94L93 -96L94 -97L93 -101V-115L94 -116V-117L92 -118V-122L90 -134Q89 -134 88 -144Q87 -145 87 -152Q85 -152 84 -158L81 -161V-163Q84 -167 86 -167ZM136 -41H137Q139 -41 140 -39L143 -40Q146 -38 151 -38Q154 -35 157 -35H160Q162 -32 168 -31Q173 -27 179 -23Q195 -8 195 -1Q195 13 190 13Q189 14 184 14Q183 14 178 10L170 -5Q170 -6 166 -7V-8L167 -9Q166 -9 159 -17Q152 -21 149 -26Q142 -34 141 -34Q139 -34 135 -39V-40Z"/>
</svg>