<svg xmlns="http://www.w3.org/2000/svg" viewBox="0 -256 256 256">
	<path fill="#000000" d="M85 -193Q93 -192 93 -188Q97 -182 101 -180L107 -177Q107 -176 110 -176Q110 -174 113 -171V-163Q111 -161 110 -158Q108 -158 104 -154H102Q100 -156 97 -156H95H94Q90 -156 82 -154L66 -150Q64 -150 64 -149Q59 -149 58 -147Q55 -147 53 -145Q49 -145 49 -143Q43 -140 42 -140L40 -142Q42 -144 48 -147Q57 -152 65 -161Q72 -166 81 -176V-177Q79 -179 78 -181Q78 -188 82 -190Q84 -190 85 -193ZM190 -187L197 -180V-177Q194 -167 187 -167L174 -162Q172 -162 170 -160Q169 -160 167 -158H165Q162 -158 162 -156Q163 -155 166 -155Q166 -153 177 -149L178 -146V-144L177 -142H179L188 -144Q193 -142 202 -137Q207 -133 208 -129Q207 -125 203 -121Q200 -118 199 -118Q196 -118 189 -128L179 -137L177 -138V-137V-134L176 -129L177 -127L175 -126L176 -122L175 -120V-109Q175 -107 174 -107Q175 -104 176 -104Q177 -104 183 -105Q183 -106 189 -107Q189 -108 192 -108H194L196 -107Q196 -108 199 -108Q199 -112 208 -113H210L218 -116Q223 -116 233 -108L234 -107V-103Q231 -98 229 -98Q224 -99 220 -100L218 -99L215 -100Q215 -98 210 -98L209 -99L208 -98H207L206 -99Q198 -97 198 -96L196 -97L192 -96L190 -97Q190 -95 178 -94L175 -93V-92V-83V-78V-77V-70V-60L174 -54L175 -50Q175 -38 173 -27V-24V-23V-21Q172 -18 171 -3L165 16L164 17Q163 17 162 15L163 13L161 10L162 7L161 -23V-24Q159 -31 159 -34L161 -36L159 -39L158 -49L159 -52H158V-53H159V-54L157 -64H158L157 -69V-74V-82V-86L156 -88H155Q153 -86 149 -86Q145 -83 141 -83Q140 -82 135 -81Q135 -80 126 -77Q116 -72 115 -72Q109 -78 105 -81Q105 -84 112 -84Q112 -85 121 -86L131 -90Q131 -91 136 -91Q136 -93 145 -94Q145 -95 149 -95Q149 -97 151 -97V-96H152Q156 -97 156 -99L157 -102V-105L158 -119L157 -129V-135L156 -143V-144L157 -147L154 -149V-151H155V-152L153 -153L152 -150Q149 -150 148 -155Q147 -156 144 -161Q142 -161 139 -167Q139 -168 144 -169H145Q145 -170 156 -173L171 -180L183 -184Q183 -185 190 -187ZM73 -148Q76 -147 76 -144L79 -145L89 -142L93 -141V-140Q91 -139 91 -132L92 -131L99 -134Q100 -136 112 -140Q117 -138 117 -137V-132Q117 -131 113 -131Q113 -130 108 -130Q108 -128 105 -128Q105 -126 99 -125Q93 -124 90 -120Q90 -115 89 -112Q90 -110 90 -108V-103H91V-102L94 -103H97Q99 -100 104 -100Q104 -99 111 -98Q114 -96 114 -93Q122 -102 127 -113Q127 -115 130 -119Q130 -122 136 -131L137 -135V-137V-139L136 -140V-141Q136 -142 140 -143Q141 -143 146 -138L155 -131V-130Q155 -128 153 -127V-126L144 -118H143Q143 -117 140 -116Q140 -113 137 -112Q137 -110 132 -107Q125 -99 122 -97Q122 -95 114 -90V-92H113Q113 -87 110 -87H108L107 -85H106Q102 -88 101 -88Q99 -89 99 -90H97Q92 -94 90 -94H89V-93H90L89 -79V-76V-62V-58L88 -56L89 -54L87 -49Q88 -48 89 -41L88 -36L89 -33L88 -30L89 -27V-26V-23V-21V-18V-14V-13Q87 -11 87 -7Q85 0 80 4Q80 6 76 9Q74 9 73 0H74L72 -10V-17Q72 -18 73 -20V-24Q73 -33 75 -35V-36V-44V-46V-51V-54Q75 -58 74 -59V-61Q73 -62 73 -69L74 -73L73 -74V-75L75 -81V-84H74Q74 -78 68 -76Q68 -75 66 -73Q66 -71 62 -68L55 -62Q55 -60 44 -49Q44 -48 40 -46Q40 -45 32 -38Q32 -37 29 -37L28 -38V-39Q51 -64 51 -68L57 -77L58 -79V-81Q59 -82 61 -86Q62 -86 63 -90Q72 -105 72 -109V-111H70Q70 -109 65 -107Q62 -104 57 -102Q54 -101 51 -98Q48 -98 40 -90H38Q31 -95 27 -101Q22 -102 22 -105Q22 -107 29 -108Q29 -109 39 -113L43 -114Q43 -116 49 -116L50 -117H51Q56 -117 60 -120Q60 -122 61 -123H64Q71 -123 72 -125Q72 -134 69 -140Q66 -141 66 -143Q69 -148 73 -148Z"/>
</svg>