<svg xmlns="http://www.w3.org/2000/svg" viewBox="0 -256 256 256">
	<path fill="#000000" d="M152 -190H154Q159 -184 165 -183Q170 -179 171 -179Q174 -179 174 -173Q169 -165 169 -158Q168 -149 167 -148V-145L166 -144L167 -142L165 -140L168 -138Q177 -141 185 -145Q187 -145 193 -143Q196 -143 200 -139Q200 -133 183 -131Q183 -130 168 -126H166H164H163V-125L165 -124L163 -111L164 -108L163 -105V-103Q163 -98 164 -98H165L167 -100L170 -99Q170 -100 173 -100V-101Q177 -102 181 -104Q189 -106 192 -108L196 -110H197Q202 -109 202 -107H204Q211 -104 211 -99H210H211Q211 -94 207 -94L201 -95Q183 -92 180 -90Q176 -90 162 -86V-85Q162 -83 165 -81Q167 -79 169 -74Q171 -73 177 -63Q180 -59 185 -53Q188 -52 188 -49Q191 -48 193 -45Q207 -33 212 -31Q213 -28 228 -21Q231 -21 241 -14Q245 -14 245 -12L244 -10H243L238 -11H232L228 -9L225 -10Q219 -10 208 -5Q208 -4 204 -4Q193 -10 192 -10Q189 -16 187 -16Q183 -23 181 -24Q181 -27 177 -29Q177 -31 171 -36Q168 -39 166 -45Q163 -47 160 -54Q159 -54 159 -57Q158 -59 157 -60Q156 -60 156 -56L154 -54V-52L150 -44Q149 -44 149 -41Q143 -31 131 -21Q119 -13 110 -9Q105 -5 100 -5L95 -2H91V-3Q94 -6 104 -10L113 -17L116 -20L118 -19Q126 -29 126 -31Q129 -34 129 -35Q134 -41 134 -44Q136 -46 138 -46L137 -50L141 -62V-64Q142 -66 143 -73Q143 -78 146 -82V-83H145L142 -81H140Q138 -81 132 -77L123 -73L121 -74V-77Q117 -77 117 -80L112 -81V-80Q109 -77 108 -77Q98 -78 96 -81L95 -83Q90 -83 87 -85V-84V-81V-80V-72V-70V-66V-64V-61V-60V-59V-55V-52V-51V-48V-36V-34V-32V-29V-27V-26V-21V-17L85 -9V-7Q82 2 75 11Q74 12 71 15H70Q69 15 68 10V6V-4Q66 -4 66 -6H67V-7L66 -9Q66 -14 68 -20L67 -26H68H67V-27L68 -38V-41L69 -42V-43V-48V-51L68 -52V-54Q68 -55 70 -58L68 -61V-62L69 -63V-64Q68 -64 68 -65L69 -68Q67 -68 67 -72L68 -73V-75H66Q65 -75 65 -72Q64 -72 61 -67Q58 -65 54 -59Q39 -44 24 -32Q20 -32 13 -27H11H10V-28L25 -39Q26 -39 28 -42Q38 -52 43 -59Q44 -59 47 -65Q52 -70 56 -77Q58 -77 61 -86Q64 -90 64 -94L69 -99Q68 -100 68 -102V-103L72 -107L70 -108Q66 -105 64 -105Q63 -104 55 -100Q55 -98 50 -98L43 -93Q37 -90 37 -89L35 -87Q33 -87 25 -95Q18 -98 15 -102V-103Q15 -104 20 -104L32 -108Q32 -110 42 -111Q44 -113 50 -113Q50 -115 67 -121Q69 -121 69 -122V-124V-128L70 -131L68 -140V-141L65 -145Q59 -143 55 -139V-140H54Q48 -136 43 -135Q43 -133 41 -133H38L37 -134V-135Q37 -136 47 -140Q54 -153 59 -153Q73 -164 76 -168Q77 -171 82 -175L83 -178V-179Q80 -182 80 -185Q82 -188 85 -188L86 -187L96 -188Q97 -180 108 -172Q112 -171 115 -162Q115 -158 110 -155Q94 -156 94 -157Q88 -155 85 -153L73 -149L72 -148L77 -145H81Q91 -139 91 -134Q91 -133 93 -131L97 -132H102H105Q106 -130 109 -129L111 -127V-126Q111 -125 108 -124Q108 -122 97 -120Q97 -119 92 -117L88 -116L89 -113L88 -107V-106V-103Q87 -103 87 -93L89 -94H90Q91 -93 100 -93H101L103 -91L104 -92H105Q106 -90 110 -90Q112 -88 112 -86L111 -84L112 -83Q114 -85 115 -85L118 -84L124 -87H126Q129 -89 133 -89Q133 -90 142 -92Q142 -93 145 -94L147 -97Q146 -99 146 -103Q148 -106 148 -111V-112L149 -119L148 -118H146V-119H145Q145 -117 144 -117Q143 -117 141 -122Q139 -122 138 -123H137Q135 -122 130 -114Q125 -113 125 -108Q123 -108 118 -102Q111 -93 109 -93V-94V-95L111 -99Q116 -106 117 -110Q118 -110 118 -114L120 -116V-118L122 -126V-130V-131V-133V-134Q121 -134 121 -135L119 -140V-141Q119 -142 125 -143H127L138 -135Q138 -134 141 -131Q141 -128 140 -126V-125L147 -127H148Q148 -129 150 -129V-131V-133V-134L151 -144L150 -149V-150L149 -163V-164Q148 -179 144 -179L143 -181Q143 -185 152 -190Z"/>
</svg>