<svg xmlns="http://www.w3.org/2000/svg" viewBox="0 -256 256 256">
	<path fill="#000000" d="M119 -204L128 -202Q128 -200 139 -198Q148 -195 148 -188Q150 -188 150 -185L148 -179H150Q153 -179 157 -180H164H169L173 -182V-181L175 -182L178 -181L180 -183L182 -182Q184 -182 193 -185V-184H194L201 -186H205Q210 -181 218 -178Q223 -175 223 -169L224 -168V-167Q221 -157 213 -157H212Q203 -162 196 -162Q188 -162 180 -158L179 -159Q185 -165 189 -171L192 -174L189 -175L187 -174L185 -175H183H180H178L176 -176L173 -174L171 -175L165 -174H162Q158 -172 155 -172L153 -173Q150 -172 148 -171L145 -173Q145 -164 139 -161V-159Q139 -158 146 -157H151L157 -156L158 -157Q166 -157 170 -149V-147Q170 -143 161 -140Q156 -140 153 -145Q148 -146 144 -153Q139 -156 139 -158H138Q135 -153 126 -153Q119 -158 119 -162V-165L118 -166Q116 -165 114 -163H112L103 -162Q97 -161 94 -158L88 -157Q88 -156 80 -153Q79 -152 77 -152H75L76 -144V-143Q76 -141 74 -140L75 -138L74 -135V-132Q70 -115 62 -115Q57 -118 55 -122L53 -125V-126Q55 -128 55 -137Q56 -137 56 -140V-142L57 -144H56V-145Q56 -148 58 -150H57V-151Q58 -154 58 -162V-163L57 -168L58 -169H61Q69 -163 71 -161Q74 -164 81 -164Q81 -165 87 -166Q87 -167 90 -167H94Q94 -169 106 -170L109 -171H110H112Q117 -173 117 -174V-178Q117 -184 111 -194Q109 -194 109 -197Q117 -204 119 -204ZM101 -151H107Q115 -145 115 -141Q112 -136 108 -136Q108 -135 98 -131Q96 -130 91 -128Q86 -122 78 -120Q74 -117 72 -117L71 -118Q71 -121 79 -123Q79 -124 87 -131Q94 -136 99 -144V-146V-149ZM153 -138Q165 -135 165 -134Q173 -134 175 -127V-126Q175 -125 166 -112V-111L180 -115V-114L189 -116Q196 -115 202 -110V-106Q202 -102 192 -101H189H182L180 -102L172 -101H171H168Q161 -101 161 -98Q159 -93 157 -87V-86Q157 -85 166 -82V-79Q166 -72 153 -72L148 -71L146 -72Q137 -71 130 -68Q115 -64 115 -63Q115 -60 113 -59V-54Q109 -44 107 -44Q105 -43 105 -42Q105 -41 107 -41Q112 -44 118 -45L120 -44Q120 -45 125 -45L131 -47L132 -46H133Q134 -46 134 -47V-48H135L137 -47Q141 -49 152 -50Q152 -52 161 -52H162L173 -58Q173 -59 175 -59Q177 -59 180 -57Q182 -57 189 -53Q193 -53 195 -44Q195 -37 189 -33Q185 -26 185 -24L180 -18L186 -11V-10Q184 -4 181 -4H180L175 -5H171H169L161 -4H160L157 -5L139 -1V0H134Q132 1 126 3H125H123L122 4L123 7V10Q121 12 121 15L118 17H116Q111 13 109 0Q109 -5 106 -13H105L106 -14L103 -23H104V-26L105 -30H104H103Q103 -27 98 -24Q98 -23 94 -19Q94 -17 88 -12Q86 -11 86 -9Q74 2 73 2Q49 23 44 23Q41 26 37 26Q36 28 33 28H32L31 27L40 23L49 16Q52 16 64 5Q64 4 73 -5L79 -11Q85 -24 85 -25Q87 -25 89 -32Q95 -41 96 -45V-46V-48Q96 -50 99 -53Q99 -54 101 -58L99 -59L86 -53H85Q76 -55 71 -59V-60Q71 -61 74 -63H78L87 -66Q99 -68 104 -71L108 -89V-90H107L94 -85V-86Q89 -83 83 -82Q77 -79 72 -79Q62 -73 58 -73H57Q50 -80 50 -83V-84L52 -85H54Q64 -87 76 -90L98 -95L108 -98L109 -100V-105L110 -108L109 -110V-113V-114Q107 -113 106 -113H105Q102 -116 96 -119V-120Q96 -121 101 -121H103Q103 -123 109 -123Q109 -124 125 -127Q125 -128 131 -129Q131 -130 137 -131L143 -133L144 -134H148Q149 -136 153 -138ZM140 -122L136 -123Q130 -120 125 -120Q124 -119 116 -117Q113 -115 110 -115V-114V-113L116 -108H117L118 -109Q118 -108 123 -106Q128 -102 129 -102Q131 -104 145 -106Q147 -122 148 -122V-124H146H145Q142 -124 140 -122ZM127 -94L126 -95H125Q123 -94 119 -80Q118 -80 118 -77V-74L119 -73H121L129 -76L137 -79Q142 -79 142 -86Q143 -86 144 -98H141Q140 -96 131 -95ZM139 -40H137L132 -41Q132 -39 131 -39H130V-40H129Q126 -36 121 -36H119Q118 -34 118 -28V-27L119 -23L118 -21V-18Q121 -14 121 -9L120 -6H122Q123 -7 132 -9H135H136Q139 -9 142 -11H147Q158 -14 164 -14V-18Q165 -18 166 -36Q166 -45 162 -45L146 -42Q139 -42 139 -40Z"/>
</svg>