<svg xmlns="http://www.w3.org/2000/svg" viewBox="0 -256 256 256">
	<path fill="#000000" d="M186 -189L191 -185Q196 -183 198 -181V-182H199Q206 -181 206 -175Q206 -173 207 -171Q207 -168 201 -166Q199 -164 195 -154V-153Q193 -144 193 -138Q192 -138 191 -132Q190 -132 189 -126Q188 -126 186 -121Q185 -121 183 -116Q181 -116 177 -110H175L174 -111L175 -117H174V-119L175 -121V-122L171 -121H168Q168 -120 161 -119Q161 -117 153 -117Q153 -116 146 -114Q146 -112 142 -108V-107L152 -103Q152 -100 153 -98L141 -87Q140 -87 137 -85Q134 -83 126 -76Q118 -68 117 -68L116 -69V-70Q132 -87 133 -92L134 -93H135H134V-94Q137 -97 137 -102V-104L138 -106Q136 -106 136 -111V-114H135L136 -122L134 -125V-130Q133 -133 132 -142Q130 -142 130 -149Q129 -153 129 -158Q127 -159 127 -162L128 -163Q135 -159 136 -158Q142 -153 142 -152V-150L143 -146H144L147 -148H148L152 -149H153H154Q164 -154 170 -154H171Q172 -154 174 -149Q174 -147 164 -145Q164 -144 155 -143Q155 -142 151 -141Q151 -140 145 -139L144 -138L146 -129V-126L145 -122L147 -121L153 -122Q153 -124 162 -126Q162 -127 167 -127Q171 -131 175 -131V-132H176L175 -133Q178 -145 178 -151L177 -153Q177 -159 179 -162L178 -170H177L174 -171Q164 -167 153 -164Q153 -162 148 -162Q142 -167 140 -167H139Q140 -170 141 -170H142Q149 -170 158 -174L160 -173Q160 -175 171 -177Q171 -178 173 -178ZM83 -169H84Q86 -166 104 -160Q109 -157 109 -153V-150L110 -149Q108 -143 107 -140Q107 -139 105 -137Q105 -135 104 -134V-131L102 -130L103 -129H104Q104 -131 115 -134Q115 -135 118 -135H119L123 -130Q123 -126 115 -122H111Q105 -117 99 -117Q99 -116 95 -116Q91 -112 86 -111L80 -107Q80 -106 76 -106Q70 -99 63 -98L59 -95H58Q54 -99 52 -100Q44 -110 44 -112L46 -113L47 -112L64 -118L66 -117Q70 -120 84 -123Q87 -124 87 -126L86 -128L85 -142V-143L84 -145V-146Q83 -151 75 -159V-161Q75 -166 80 -166Q81 -167 83 -169ZM102 -114Q103 -113 111 -110Q119 -104 119 -101Q119 -98 106 -89Q98 -77 98 -75Q94 -72 92 -67Q89 -63 88 -63H87L88 -60Q86 -60 86 -59V-58L87 -57L89 -58L90 -57L95 -60H99Q100 -62 103 -62Q104 -63 109 -64L112 -63Q112 -65 117 -66H119Q120 -66 121 -63Q114 -60 108 -58Q104 -56 99 -54Q97 -53 85 -48L64 -35Q59 -33 51 -26L47 -25L37 -30Q37 -31 31 -36V-38Q31 -39 35 -40Q35 -41 40 -41Q41 -42 53 -46Q65 -50 67 -50L79 -54Q84 -62 86 -69Q89 -72 90 -77L92 -82Q94 -82 94 -84H93V-85Q99 -100 99 -104Q100 -105 100 -107Q99 -109 99 -111ZM203 -113Q204 -113 207 -109Q211 -108 220 -101Q224 -101 225 -96V-95Q225 -94 221 -89Q216 -66 213 -49V-47Q212 -47 212 -44H211L212 -42Q208 -25 205 -18L201 -9Q198 -5 197 -2Q196 -2 193 3Q184 14 180 14Q177 13 176 11L177 9V8Q175 4 175 1L174 0L175 -3Q172 -4 171 -8Q166 -8 164 -12L158 -15V-16L159 -17H161L171 -14V-11Q173 -13 175 -13Q177 -10 179 -10H180Q185 -16 186 -23Q189 -23 189 -32V-33Q189 -34 190 -34H191V-35L190 -37H191L190 -40L191 -45V-46Q192 -46 193 -54V-56V-57L194 -60V-63Q194 -72 196 -75V-78Q196 -83 197 -83H196V-91L197 -95L196 -97L176 -91L162 -87L161 -86V-85Q169 -83 169 -79L172 -78H173V-77L169 -72Q171 -72 182 -65Q182 -63 184 -61Q182 -54 180 -54H179L176 -53L172 -54H171L170 -55V-56V-60L166 -67H164L153 -59Q153 -58 147 -53Q144 -50 142 -50H141V-51Q150 -62 150 -63Q152 -70 154 -70L153 -72L156 -79L155 -81V-83Q154 -86 151 -89V-92L152 -93H154L160 -95L165 -96Q165 -97 171 -98L179 -100Q179 -101 184 -101H186Q187 -103 193 -104Q195 -106 200 -110ZM61 -90Q70 -86 72 -84Q76 -84 79 -76Q79 -73 80 -72V-71Q78 -59 75 -59H73Q67 -66 65 -76L62 -82L59 -89V-90ZM128 -73Q130 -73 140 -65L141 -60Q140 -58 139 -58L140 -52V-51Q139 -50 139 -45L137 -44V-42L139 -43H142Q144 -43 147 -45H148Q153 -45 157 -46L160 -47L162 -46Q164 -47 165 -49L171 -48Q175 -49 176 -50Q184 -48 185 -45L186 -43V-42L184 -41H181H175H173Q171 -40 158 -39H153L152 -38H150Q144 -36 138 -29Q135 -27 133 -27L131 -35V-36L130 -37V-38L132 -44V-45L131 -47V-48L132 -49V-51Q132 -54 131 -55Q131 -66 128 -70Q127 -70 127 -72Z"/>
</svg>