<svg xmlns="http://www.w3.org/2000/svg" viewBox="0 -256 256 256">
	<path fill="#000000" d="M149 -198Q150 -198 153 -194L159 -192Q168 -192 168 -187Q168 -176 164 -176H160V-174L159 -172V-171H161Q162 -176 166 -176Q172 -177 173 -179L176 -178Q181 -179 183 -180H186Q190 -180 196 -176L199 -171Q196 -166 189 -166L186 -165H180Q163 -161 160 -161Q158 -161 153 -167L146 -162Q144 -161 142 -158Q141 -158 141 -157V-156H143L145 -157Q150 -155 157 -154H159L166 -150L169 -144V-142Q169 -138 162 -134Q155 -134 155 -138Q155 -139 153 -139L141 -152Q138 -153 138 -156H137Q136 -154 130 -150Q124 -145 119 -144Q118 -141 117 -141H113V-140Q113 -139 118 -138H121L125 -135L126 -136Q127 -136 128 -131L132 -133L133 -132L134 -133L135 -134H136Q137 -133 140 -133L141 -132H143Q149 -132 149 -126Q149 -124 141 -122H139H138Q137 -120 132 -120Q132 -118 125 -116V-114Q126 -113 126 -110Q125 -110 124 -107L125 -105Q126 -107 136 -108Q136 -109 141 -110L146 -112Q146 -113 152 -114L153 -115H155Q158 -113 169 -108L171 -106V-104V-103V-101V-100Q163 -94 161 -86Q159 -86 159 -85H160V-84Q151 -65 141 -65L139 -67V-69Q137 -77 133 -81V-82L134 -83H137L139 -81Q141 -81 143 -88L144 -93Q145 -93 146 -101L148 -103Q146 -103 143 -101H141H140L134 -99L132 -100L127 -98H124V-95V-94V-91Q125 -74 126 -74Q125 -70 124 -69Q124 -68 126 -68H127L132 -64L136 -61Q142 -58 144 -55Q147 -55 152 -51L156 -50Q158 -50 161 -47L171 -42Q179 -39 182 -38L183 -37V-38H185Q191 -32 207 -30Q207 -29 211 -27V-28H212Q224 -27 228 -25H233Q236 -23 237 -22Q237 -20 232 -20H229H227H226Q220 -17 208 -16Q208 -15 201 -14Q196 -11 193 -11Q189 -7 186 -7H185Q181 -7 176 -11Q170 -14 165 -18Q165 -20 160 -21Q160 -23 157 -23L154 -26L155 -27Q155 -28 150 -29Q150 -31 145 -32Q141 -35 140 -37Q138 -37 136 -40Q133 -40 133 -43Q130 -43 128 -45H127L126 -44V-41L127 -36L126 -35L127 -33L126 -31L127 -30V-27V-24V-22V-20V-18V-16L126 -14L127 -10V-5V1V2V5L126 7V8Q126 14 115 22H112L110 21L112 18Q110 9 107 9L106 5Q106 1 108 -1L107 -7Q109 -7 109 -14V-17V-18L108 -30Q109 -30 109 -32L108 -34L109 -37V-38V-41V-44V-47H107L92 -31L78 -18Q77 -18 74 -15L59 -5L40 7L24 15Q21 15 21 14Q25 10 37 4Q50 -4 52 -8Q59 -13 63 -20Q65 -20 69 -25Q70 -25 73 -29Q74 -29 78 -34Q80 -34 82 -38Q83 -38 85 -42Q86 -42 93 -51Q93 -53 96 -54Q96 -57 100 -60Q100 -62 103 -65V-68L99 -70Q99 -77 103 -77H105Q105 -76 106 -76H108V-80Q108 -88 109 -93H108Q107 -90 105 -90L102 -88Q99 -88 91 -84Q92 -75 94 -72L93 -71L94 -65Q94 -59 92 -59Q92 -56 88 -54H87Q84 -54 81 -60L80 -61L81 -63L76 -74L77 -76Q71 -82 71 -86Q70 -88 66 -91Q68 -95 69 -95H70Q72 -95 82 -89Q82 -92 84 -92Q89 -93 107 -100H109L108 -103L109 -104L108 -107L109 -108L108 -109Q103 -107 100 -106Q96 -106 92 -111Q88 -115 85 -115V-116Q88 -118 104 -123Q105 -124 108 -124V-125Q106 -127 106 -129L107 -131Q106 -131 103 -136V-137Q105 -142 113 -142Q123 -152 123 -154Q125 -154 125 -158Q131 -163 134 -172Q136 -174 137 -177Q140 -179 140 -182Q142 -182 142 -188Q142 -189 139 -189L138 -190V-193Q138 -194 142 -195Q146 -198 149 -198ZM72 -187Q77 -181 78 -181Q78 -179 88 -178Q91 -176 93 -171Q96 -173 109 -176H111Q115 -175 124 -173L126 -171V-170L123 -167Q123 -164 111 -162Q111 -161 101 -159Q98 -157 96 -157H95Q93 -157 87 -162Q86 -161 80 -158L74 -153H75Q79 -153 81 -151L83 -152H85Q98 -150 98 -145Q102 -142 102 -139V-136Q102 -131 96 -131Q95 -129 91 -129Q88 -131 87 -135Q82 -138 82 -142Q80 -142 73 -152L49 -135Q42 -130 35 -127L21 -118Q19 -118 19 -119Q19 -121 33 -131Q34 -133 41 -138Q41 -140 44 -142L46 -146V-148Q48 -148 50 -152Q62 -165 62 -169Q63 -169 64 -174L65 -175Q65 -176 61 -181V-182Q64 -183 69 -187Z"/>
</svg>