<svg xmlns="http://www.w3.org/2000/svg" viewBox="0 -256 256 256">
	<path fill="#000000" d="M153 -195H160Q165 -195 174 -188L177 -180V-179Q177 -177 169 -167L163 -150Q163 -147 160 -145Q160 -143 155 -131L153 -129Q153 -125 147 -122Q147 -119 142 -118L141 -119V-121V-131L142 -135H141Q146 -150 146 -158Q147 -158 147 -164V-166L148 -171L147 -177V-180H146L142 -179L139 -180Q139 -178 125 -175Q113 -171 105 -170Q105 -168 95 -166V-165L97 -153L96 -152L98 -145L97 -142L98 -134V-131L100 -126Q97 -116 93 -116Q91 -116 88 -124Q84 -128 84 -135Q83 -135 83 -141Q82 -141 78 -153V-154Q78 -156 70 -173V-175Q70 -182 75 -182Q86 -173 89 -173Q91 -176 96 -176Q96 -178 106 -179L116 -184H121Q129 -187 133 -187Q136 -189 141 -190Q141 -191 153 -195ZM132 -164Q134 -163 134 -161L136 -158Q136 -154 133 -154Q114 -149 109 -146H108L104 -150Q102 -151 101 -152V-153Q101 -154 107 -155Q108 -157 125 -162Q125 -163 132 -164ZM130 -139H134Q136 -139 139 -136Q138 -131 137 -131H135Q129 -129 126 -129Q124 -129 117 -126V-127H116L110 -124H109Q106 -124 104 -127Q102 -127 102 -130V-131H105Q106 -133 119 -135Q119 -137 127 -137Q128 -139 130 -139ZM189 -128Q192 -125 196 -125L203 -122Q208 -119 208 -113Q208 -110 201 -107L196 -108L190 -109Q186 -108 177 -108H174V-109Q172 -108 169 -108H166L165 -107L162 -108L154 -106H150Q148 -105 136 -104H135Q133 -103 128 -102L126 -104H125Q125 -100 117 -99Q113 -99 113 -98Q114 -97 118 -95Q118 -94 122 -93L124 -86L122 -81L123 -80Q123 -74 120 -74V-73L123 -68Q121 -66 121 -64V-50V-47L120 -45L121 -39V-38L120 -34L121 -29L120 -27L121 -26L120 -14V-12V-10V-8V-4V0V2V3Q112 19 107 19Q106 19 105 15L106 12L103 0L104 -10V-13V-21V-29V-31H103Q92 -22 92 -21L78 -10Q76 -8 65 1Q62 4 60 4Q57 4 51 -4Q48 -4 48 -7L58 -12Q58 -13 67 -16L70 -17V-18V-24V-26Q70 -35 68 -42V-47L66 -53H67L65 -66V-67V-70Q64 -77 62 -80L63 -82Q63 -84 61 -84Q48 -80 39 -76Q34 -80 34 -82Q28 -84 25 -87V-89L26 -90H27H29Q34 -90 46 -94H49Q57 -96 72 -99H73H76Q80 -101 86 -102Q86 -103 97 -104Q106 -108 111 -108L113 -109H117Q131 -113 140 -113Q140 -114 146 -115Q146 -116 154 -117L170 -121L174 -124L176 -123Q177 -124 180 -124Q183 -128 189 -128ZM168 -99H170L181 -87V-84Q178 -81 175 -72Q167 -57 163 -50V-49Q165 -45 178 -33Q179 -33 183 -30Q185 -28 189 -27Q196 -22 208 -18Q208 -17 213 -16Q223 -10 231 -9V-8V-6L230 -5H227Q210 -3 190 3H188Q183 3 177 -5L171 -13Q168 -17 164 -19Q164 -21 158 -27Q154 -31 153 -35L151 -36Q151 -34 145 -30Q145 -27 134 -22L124 -14L122 -16Q122 -17 136 -32L144 -43V-44L138 -56Q133 -62 129 -67Q126 -69 126 -70Q126 -73 127 -73Q133 -73 138 -70Q142 -70 146 -62Q149 -59 149 -58H150Q151 -58 154 -67Q156 -69 160 -82V-84H159Q156 -81 153 -81Q153 -80 149 -80Q149 -78 144 -78L141 -77Q138 -77 132 -83V-84Q132 -85 135 -85Q135 -87 147 -89L154 -92H158ZM66 -86V-85Q66 -84 72 -79Q72 -77 77 -76Q81 -72 81 -70Q81 -68 83 -68Q92 -75 95 -75H97Q99 -75 102 -71V-70Q99 -64 94 -64Q92 -62 81 -59V-57V-52L82 -48H83L92 -53L96 -54Q101 -53 101 -49Q98 -44 95 -44Q90 -42 81 -39L82 -34L81 -30H82V-29L81 -25V-24H82Q96 -30 101 -34Q104 -34 104 -35V-46V-50V-53V-59V-65V-68V-72L103 -74L104 -77L103 -87L104 -89L102 -94V-95L100 -96Q98 -96 92 -93L74 -88Q69 -86 66 -86Z"/>
</svg>