<svg xmlns="http://www.w3.org/2000/svg" viewBox="0 -256 256 256">
	<path fill="#000000" d="M157 -202Q161 -202 166 -196Q169 -194 174 -193Q179 -189 179 -187Q179 -179 171 -176L170 -174V-173H171Q189 -178 199 -182L204 -185Q217 -182 217 -176V-175Q217 -173 204 -169L198 -168H197Q195 -167 185 -165Q184 -164 176 -162Q174 -162 171 -167Q169 -167 167 -171H166L158 -164Q158 -162 155 -162Q155 -157 151 -157Q149 -152 146 -151Q135 -144 135 -143Q134 -143 129 -137Q127 -137 125 -135H124Q123 -135 123 -136Q123 -138 134 -147Q137 -152 144 -164H145V-167L144 -168Q143 -166 137 -164L135 -165Q131 -163 127 -163H126Q122 -162 115 -161Q114 -159 112 -159Q111 -162 107 -164H106Q94 -154 94 -153Q104 -150 109 -148Q114 -147 114 -143L117 -137V-136L115 -132V-131L110 -126H109Q104 -128 103 -131Q101 -131 98 -137Q92 -148 91 -149H88L76 -141Q75 -141 72 -137Q63 -133 55 -128Q48 -123 46 -123V-125Q58 -132 64 -141Q73 -151 80 -165L83 -168Q83 -172 85 -174V-178Q85 -181 81 -184V-185Q83 -187 90 -189Q92 -189 98 -181Q99 -181 103 -177Q106 -177 109 -171H112Q127 -177 136 -178L137 -179Q141 -178 145 -171H146Q151 -175 151 -179Q153 -180 153 -183V-186Q154 -188 154 -189V-192L151 -196V-198Q154 -202 157 -202ZM158 -161Q164 -159 165 -158Q169 -158 173 -156V-157H174Q183 -149 183 -145V-141L177 -136L189 -132Q193 -131 193 -127Q195 -130 197 -130H198Q206 -128 206 -124Q206 -119 201 -119Q201 -118 191 -117Q189 -115 189 -111Q187 -111 184 -96Q183 -96 181 -92V-91Q192 -93 214 -98L217 -99Q220 -99 224 -96Q226 -96 230 -92Q232 -91 232 -89Q232 -84 226 -82L223 -81Q215 -85 203 -86L199 -85H197L190 -84V-85L180 -82H177Q175 -81 162 -79H160H159Q159 -77 149 -75Q146 -75 131 -70L128 -69Q128 -72 123 -74V-75Q123 -77 131 -78Q131 -79 134 -79H137Q139 -80 140 -82L139 -84H140V-85Q137 -95 137 -100Q130 -97 129 -97Q128 -98 124 -102V-103Q124 -104 135 -108Q137 -110 137 -111L135 -121Q133 -125 130 -129V-132L131 -133L135 -132L137 -133L145 -129L153 -126L154 -122L153 -115V-114L157 -113V-114L156 -116Q157 -117 161 -117L168 -120L170 -123L169 -126L170 -128L169 -132L170 -135L165 -144L164 -146L165 -147Q163 -148 161 -153Q157 -157 157 -159V-160ZM104 -124Q108 -121 114 -119Q117 -117 120 -117L121 -115Q120 -108 115 -108L111 -107L109 -108L106 -107H105Q104 -106 100 -106Q100 -104 98 -102L97 -101L98 -95L97 -93L99 -91L105 -94H107L109 -95Q115 -94 115 -91Q115 -87 107 -86Q105 -84 104 -84V-85L103 -84L102 -85Q101 -82 100 -82H98V-83H97V-82V-79V-78L96 -76L97 -73Q96 -69 95 -68V-67H96Q100 -72 104 -72Q104 -74 112 -76H114Q116 -74 119 -72L120 -71V-70L117 -67Q117 -66 110 -65L100 -62H97L96 -60L97 -56L96 -54L97 -50V-47Q99 -47 99 -48H102H105L109 -46L110 -47H113H115Q119 -45 119 -42Q121 -42 121 -41V-39Q121 -36 118 -36Q118 -32 112 -32L109 -36Q104 -36 101 -41L98 -42Q97 -40 97 -37V-30V-26Q96 -21 96 -10V-3V1V3Q95 5 95 8V12Q92 18 88 21Q83 25 81 25Q80 25 79 19V18L77 9V4L79 3L78 0L80 -1L79 -2V-4L80 -5H79L80 -14V-22L82 -24Q81 -24 80 -26L82 -27L81 -30L82 -34H81L74 -28Q74 -27 67 -21L55 -13Q52 -12 46 -7Q44 -7 38 -4Q37 -4 35 -2L31 0Q28 0 27 2H24L23 1V0L28 -1Q28 -2 32 -3Q32 -4 37 -5Q40 -8 42 -8Q42 -9 56 -19Q59 -21 62 -26Q63 -26 67 -32Q73 -40 74 -45Q80 -54 83 -56H82Q79 -54 73 -50L62 -45Q60 -45 59 -43Q54 -39 51 -39Q49 -36 41 -32H40Q32 -41 31 -41Q29 -41 28 -42V-43Q28 -44 46 -50Q55 -55 68 -58Q72 -60 77 -61Q77 -62 81 -63L82 -65V-68Q82 -72 83 -74V-76Q81 -73 71 -69L69 -68H68Q65 -71 60 -72Q61 -75 69 -77Q73 -80 77 -80Q77 -81 82 -84V-88V-91V-95L81 -96Q72 -94 64 -88Q62 -88 47 -79L43 -78L42 -80Q42 -81 46 -81Q46 -82 64 -93Q75 -101 82 -105Q79 -117 77 -119V-120L81 -123H82Q84 -123 87 -121Q88 -121 90 -119Q94 -119 97 -116H98Q98 -118 104 -124ZM166 -112H165Q163 -110 157 -108Q157 -106 156 -106L154 -107H152V-106L153 -103L152 -99V-98L151 -83H153Q154 -85 156 -85H157Q160 -86 166 -87L167 -89V-91V-95V-102L168 -104L167 -107Q169 -108 169 -110V-111H170L169 -113ZM184 -74H186Q189 -70 197 -70Q197 -68 202 -68Q206 -64 206 -61V-60Q204 -56 202 -33V-29V-28V-26V-2Q202 2 198 11Q196 19 187 25Q186 27 184 27H183Q181 26 181 18V17V13V12V10L180 9L181 6Q179 6 178 2Q177 1 177 -1V-5H174H173H169L166 -4H163Q161 -2 158 -2H157Q156 0 152 0L151 1V3Q150 9 145 15H142Q141 15 141 10Q137 7 137 -4L136 -5L138 -9Q137 -9 136 -18L137 -22L136 -25V-27Q136 -28 135 -34L136 -35L134 -43L135 -44Q134 -45 133 -52Q130 -56 130 -59V-60Q131 -62 134 -62Q134 -61 139 -59Q141 -57 141 -55H143Q149 -59 153 -59Q153 -60 160 -61Q160 -62 163 -62L167 -63Q167 -64 171 -64Q171 -66 174 -66Q179 -68 181 -72ZM150 -50L151 -45V-43L150 -41L151 -39V-36Q149 -34 149 -33H150Q150 -35 154 -35Q159 -38 163 -38L172 -42Q173 -40 177 -37V-36Q176 -32 172 -32L163 -30L159 -28Q156 -27 152 -27L151 -26V-25V-24V-23V-20V-17V-15Q151 -9 154 -9H155Q157 -12 172 -15Q179 -14 180 -11H181V-22V-24V-28V-29V-32L182 -33Q181 -33 180 -37L181 -39L180 -41L181 -42L180 -45L181 -46L180 -47L181 -53Q180 -54 180 -58L179 -59H178L164 -54L159 -53Q153 -52 150 -50Z"/>
</svg>