<svg xmlns="http://www.w3.org/2000/svg" viewBox="0 -256 256 256">
	<path fill="#000000" d="M182 -195H183Q190 -188 199 -186Q201 -184 201 -180Q201 -178 198 -170V-167H199Q211 -165 211 -159Q211 -156 206 -153Q195 -149 195 -148Q194 -148 194 -146V-144V-142V-141H196L197 -142H199Q202 -142 204 -144H208Q211 -146 213 -146Q215 -146 221 -141Q233 -139 233 -134V-131Q233 -128 229 -126Q223 -121 222 -117Q219 -114 217 -108Q214 -105 211 -98H210V-97Q212 -96 212 -91Q212 -88 209 -88L205 -86L203 -87L202 -86L194 -87L191 -86L189 -87H188L186 -85H181L179 -86H178Q178 -85 177 -85H172V-84L170 -82L167 -83Q167 -82 162 -80L158 -81Q158 -79 152 -77Q152 -71 145 -69Q138 -75 138 -87Q138 -92 135 -109V-111L132 -115H131L130 -114H128Q124 -113 121 -111Q118 -111 111 -108L106 -106L107 -104H106L107 -103V-101L106 -99L107 -98L106 -95Q107 -94 107 -90L110 -88H111L113 -89Q113 -87 126 -85Q129 -81 131 -77Q131 -72 126 -67H122Q117 -69 115 -72L111 -77L106 -79H105V-78L107 -77V-76L106 -73L107 -71L106 -70L107 -67L105 -64L107 -61L105 -56Q107 -55 107 -47Q107 -44 106 -44L107 -42V-39H106Q107 -37 107 -33V-32L105 -30Q107 -29 107 -27L108 -13Q107 2 104 8Q100 15 95 20H94Q91 20 89 2Q88 2 87 -3Q88 -11 89 -11L88 -14Q89 -22 90 -22L89 -24V-25V-39L90 -57L89 -59L90 -62L89 -63L90 -65V-67H89Q85 -63 79 -58Q79 -56 73 -52Q72 -48 64 -42Q60 -37 43 -24Q36 -19 27 -14L23 -13V-14Q23 -15 27 -17L37 -24Q37 -26 41 -28Q41 -29 50 -37Q52 -38 54 -42Q55 -42 57 -46Q59 -46 67 -59Q68 -59 74 -70Q74 -71 78 -76L84 -90Q86 -95 86 -96L85 -97L83 -96L81 -97Q81 -95 74 -92Q74 -91 56 -81L52 -78H51Q50 -78 48 -82L45 -81Q42 -81 37 -88V-90L42 -92Q42 -93 46 -93L47 -95H49Q51 -95 58 -99L65 -100Q67 -100 73 -104Q74 -106 77 -106H80L85 -109H87Q91 -110 91 -113V-116V-121Q91 -122 92 -133L91 -137H92V-138L91 -144V-145V-147Q90 -147 90 -156L82 -166V-167Q84 -169 91 -176Q93 -176 96 -172Q112 -167 112 -162L113 -158Q109 -150 109 -146H108L109 -144Q108 -137 107 -137L108 -135L107 -131V-130H108Q111 -133 113 -138L118 -147L117 -155Q117 -157 123 -158H124Q140 -153 142 -150Q144 -152 145 -153L147 -152L154 -154H158V-156Q157 -171 153 -174V-175Q154 -180 158 -180Q162 -175 171 -170Q171 -168 174 -167Q174 -161 178 -161Q180 -161 181 -163V-168V-174V-177Q180 -184 176 -184V-185V-186Q177 -192 182 -195ZM143 -148Q143 -141 136 -140L131 -138L124 -135Q124 -134 119 -132Q118 -130 111 -128Q110 -126 109 -126Q108 -126 106 -127H105V-126Q107 -124 108 -120L110 -118Q115 -122 117 -122V-121L125 -125Q130 -122 131 -122L133 -125H134L141 -119Q154 -126 156 -126L158 -127V-139Q156 -137 154 -137H153L144 -146Q144 -148 143 -148ZM173 -143H169L171 -139L169 -136V-135Q169 -132 171 -131Q178 -132 178 -138L179 -139L178 -140L179 -143L177 -144Q175 -143 173 -143ZM62 -143H63Q65 -140 74 -139Q82 -136 82 -132Q85 -131 87 -121Q87 -118 85 -118V-116V-115Q82 -109 81 -108H79Q71 -113 71 -115L70 -117H71Q68 -118 64 -132Q63 -138 61 -140Q61 -143 62 -143ZM195 -130H194Q191 -129 191 -125L189 -121V-119L196 -120L200 -117H202V-120V-124Q204 -126 204 -130L202 -131ZM169 -114L170 -113L173 -115H176L177 -124L176 -126H175Q169 -124 169 -122ZM148 -113V-112Q149 -111 150 -106V-105H151L152 -106Q153 -108 154 -108Q158 -108 158 -111V-112L159 -115Q158 -118 157 -118Q153 -118 150 -115Q148 -115 148 -113ZM185 -98V-96L186 -95Q190 -96 197 -97L200 -108V-109H199H195H192Q187 -109 187 -106ZM173 -105H168L167 -104L168 -102V-100L167 -99V-97L168 -94V-90H171Q175 -92 175 -94L174 -96Q175 -99 176 -105L175 -106ZM150 -101V-99V-95V-92Q151 -87 153 -85Q158 -85 158 -89V-91V-94V-95Q158 -100 154 -100Q152 -100 151 -102ZM195 -78H198Q202 -75 211 -71Q215 -68 215 -65Q212 -56 212 -43L210 -14Q208 -10 208 -7L206 -6V-4Q206 0 195 9L193 10Q191 9 191 7V2Q188 -9 186 -9L185 -10V-11Q185 -12 190 -13Q191 -18 193 -18L192 -25V-27V-28L193 -30L192 -32L194 -37L193 -39V-51L192 -53H193L192 -59V-62L190 -63H189L184 -62L182 -63Q182 -60 173 -60Q172 -59 170 -59H167Q166 -57 163 -57H162L160 -58Q159 -58 159 -56L158 -54V-51L157 -45Q158 -42 159 -41Q161 -42 164 -42Q167 -45 178 -50Q188 -46 188 -44L189 -41Q189 -39 184 -37H182H181H180H176Q176 -36 173 -36L170 -37Q163 -36 160 -33H159Q158 -33 158 -35L157 -34V-33Q158 -33 159 -28L158 -24Q159 -19 162 -19H163Q166 -22 172 -22Q172 -23 176 -23Q177 -26 179 -26Q189 -23 189 -21V-20Q184 -14 180 -14V-15H179Q164 -13 158 -9L154 -2Q152 0 150 0Q148 -1 146 -11Q144 -14 144 -15L145 -18L144 -23V-28L145 -30V-31L144 -32V-35V-51Q142 -51 141 -62Q141 -64 144 -65Q145 -64 149 -61H151Q154 -63 163 -65Q163 -67 167 -67Q167 -68 172 -68L174 -70H175L187 -75Q189 -76 194 -77Q194 -78 195 -78Z"/>
</svg>