<svg xmlns="http://www.w3.org/2000/svg" viewBox="0 -256 256 256">
	<path fill="#000000" d="M188 -198H190Q193 -198 195 -193Q196 -193 200 -188L205 -184Q211 -180 213 -177V-175Q210 -164 207 -164L203 -162Q199 -164 188 -167H185H180Q169 -164 166 -162H165H164V-163L172 -172V-173V-174L175 -179V-180L169 -181Q168 -180 166 -180H164H161H158L156 -179H146L142 -178L141 -179L135 -177L134 -178H133L131 -177H128Q124 -175 114 -174H113Q107 -171 100 -169L97 -170L95 -167H94L92 -168Q84 -164 83 -163L84 -160Q84 -153 76 -131Q74 -127 69 -122H67L65 -126Q59 -131 59 -139Q59 -143 62 -153L65 -171Q65 -174 66 -174L65 -177H66V-180V-185L65 -189V-191V-192H66Q71 -184 76 -182Q81 -178 81 -175L83 -174H85H87Q87 -175 88 -175H89H90Q93 -176 100 -176H101L103 -177H107Q115 -180 126 -182Q126 -183 132 -183Q137 -184 150 -185L154 -187L157 -186V-187H158L159 -186L164 -189L165 -188Q170 -188 181 -193ZM139 -170L143 -165L145 -166L147 -163H150Q152 -161 154 -161L156 -158V-157Q153 -155 153 -151Q151 -151 151 -147L150 -145V-144Q150 -141 151 -141Q163 -144 163 -145H164Q172 -145 173 -140V-139V-137Q170 -132 168 -132Q164 -132 161 -128H160Q149 -127 148 -127H146L144 -126Q137 -126 137 -139L138 -140L137 -143L138 -157L137 -160H138Q137 -165 136 -166V-168Q137 -170 139 -170ZM107 -155H108Q109 -155 110 -151Q112 -151 115 -148Q121 -145 121 -141V-139Q121 -135 113 -132Q110 -128 102 -123Q101 -123 96 -117L81 -107H79Q79 -109 86 -115Q98 -131 102 -139L105 -146Q105 -147 102 -149V-152Q102 -154 107 -155ZM148 -120H150Q152 -119 154 -119H158Q161 -118 161 -115Q161 -109 144 -104Q137 -99 133 -99Q148 -90 149 -90V-88Q149 -87 148 -87V-86Q148 -84 150 -84H151L156 -86L157 -85L162 -87L163 -86L174 -89L178 -90L180 -89L182 -91H187L190 -92Q202 -89 206 -85Q209 -82 209 -80Q209 -77 201 -73H200Q190 -76 188 -77L186 -76Q185 -77 181 -77H177L172 -76Q171 -76 167 -77H165H164L162 -76H156Q148 -74 148 -72Q148 -70 146 -70Q146 -65 144 -63L145 -62L144 -58L145 -46L144 -43L145 -39V-38H144L145 -36L144 -32L145 -30L143 -21L144 -13Q144 -5 141 3L140 4L141 5Q139 12 133 22H132L131 21V18L127 -9V-12V-18V-23V-27L128 -28Q128 -32 126 -36L127 -37V-39V-41L126 -49L127 -54V-57L126 -60L127 -63H126L127 -65L126 -68L127 -70V-72V-73H126L122 -70L120 -72L116 -70Q116 -68 114 -68H113H110H109Q104 -64 97 -63Q91 -60 86 -60Q80 -55 72 -53L61 -46Q60 -44 57 -44H56L46 -50L42 -56V-58L43 -59H45L53 -60H55Q60 -61 62 -63H64L81 -66H82Q86 -68 96 -70Q98 -72 108 -73Q108 -74 110 -74H111L113 -73Q114 -77 117 -77L119 -76Q123 -78 124 -78H126V-79L125 -80L126 -82L125 -84L126 -87Q124 -87 124 -94V-95H123Q120 -92 114 -90L105 -92L96 -97L94 -99Q95 -101 98 -101Q98 -102 99 -102H100H102Q102 -104 107 -104Q107 -105 115 -106Q115 -107 126 -111Q131 -113 138 -115Q139 -117 143 -117Q143 -119 148 -120Z"/>
</svg>