<svg xmlns="http://www.w3.org/2000/svg" viewBox="0 -256 256 256">
	<path fill="#000000" d="M152 -181Q156 -180 157 -179L160 -180L163 -176H164Q172 -176 178 -170L179 -164Q176 -160 172 -160Q172 -159 167 -158V-157L159 -151Q156 -151 152 -145Q145 -141 145 -140Q145 -139 142 -138Q142 -135 138 -135Q138 -134 136 -133Q136 -131 131 -127L130 -126H131L133 -127L135 -126Q136 -128 144 -129L148 -132L149 -131Q151 -133 158 -134H159Q159 -136 166 -136Q166 -135 174 -134Q178 -132 178 -129Q178 -126 173 -125H162H161L153 -123H148H146Q146 -120 135 -120Q135 -119 131 -119H130V-117H131Q133 -116 138 -115L140 -111L139 -108H140L139 -105V-104H140L144 -106H145Q152 -105 157 -100L158 -96V-95Q156 -92 151 -92Q149 -92 143 -88L140 -89L138 -84L139 -82L137 -81Q137 -79 138 -77V-75L137 -74V-73Q139 -70 140 -69H141Q141 -71 143 -71H144L148 -73H149V-72Q152 -74 157 -76L166 -72L172 -69V-68Q172 -63 165 -63L161 -64L158 -63H155H152L150 -62L146 -63L144 -61L142 -62Q141 -62 141 -61V-60H140L137 -61Q134 -60 134 -59V-58Q137 -58 137 -56L136 -54V-53Q133 -49 133 -45L132 -43V-41L127 -36H126Q125 -36 122 -45V-50Q121 -51 121 -54Q118 -52 116 -50L109 -48Q107 -48 99 -43Q90 -49 87 -52Q85 -52 85 -53V-54L93 -56Q93 -57 100 -59H101L102 -58H103Q105 -60 114 -63H116L118 -64H120Q122 -64 122 -65V-68V-69V-73V-75L121 -78L122 -81H121Q115 -78 114 -78H112H111Q106 -83 100 -84L99 -87L105 -88Q105 -90 108 -90H112Q112 -91 116 -92Q116 -94 120 -94L121 -95V-100V-101L119 -111V-113L116 -114Q112 -113 111 -112Q107 -112 106 -110Q92 -104 89 -104Q86 -107 78 -111V-113Q90 -116 95 -116Q97 -118 107 -120H109H110Q111 -120 111 -121V-122H113L115 -120Q116 -122 122 -123Q122 -124 128 -126L127 -128Q130 -131 134 -139V-140Q139 -144 139 -150Q141 -153 142 -157Q143 -157 143 -161L145 -162V-164L146 -165L145 -167L146 -171L144 -170Q142 -171 142 -173Q143 -177 145 -177Q146 -177 148 -180Q150 -180 152 -181ZM89 -168Q89 -167 99 -166L109 -162Q109 -160 113 -159Q116 -156 116 -154V-153V-152L118 -151L117 -141V-139Q116 -139 115 -131L112 -129Q109 -131 109 -133H107Q102 -137 99 -145Q94 -150 92 -156L86 -167V-168ZM173 -46Q175 -45 178 -45Q181 -42 188 -40Q193 -36 195 -33Q200 -29 200 -27L203 -19Q201 -8 195 -8Q190 -8 184 -22Q184 -23 181 -27Q181 -28 179 -30Q179 -33 173 -41Q170 -45 170 -46H171ZM143 -38Q145 -38 151 -33Q155 -33 162 -25L161 -23Q163 -20 163 -18L162 -17V-14Q158 -9 154 -7H153Q147 -12 147 -16Q147 -24 143 -31L141 -38H142ZM97 -37H98Q105 -30 109 -22L110 -19V-17L111 -14V-10Q107 0 105 0H102Q98 -4 98 -8V-10Q96 -10 96 -11V-12Q96 -13 98 -13V-18V-20V-23V-25V-29Q98 -34 96 -36ZM69 -36Q71 -36 72 -25V-21L71 -18Q71 -15 71 -10Q65 4 57 4L56 5Q53 5 53 -1V-2V-4V-6V-9Q55 -14 59 -18Q63 -24 69 -36Z"/>
</svg>