<svg xmlns="http://www.w3.org/2000/svg" viewBox="0 -256 256 256">
	<path fill="#000000" d="M198 -194H199Q200 -194 203 -189Q210 -188 214 -186Q216 -186 218 -184V-183Q216 -172 213 -172Q210 -169 207 -169Q207 -168 201 -164L193 -156Q192 -156 191 -153Q187 -150 185 -148V-147H188L191 -149H193Q195 -150 206 -154Q214 -153 218 -149V-148V-146Q218 -142 213 -142Q213 -141 208 -140L206 -141L200 -140H196Q194 -139 192 -139L185 -136L184 -137H182L183 -135L186 -136L188 -131L187 -129V-127V-125Q187 -121 190 -121H191L192 -123H193L195 -122Q195 -124 203 -125Q211 -125 211 -117Q209 -114 205 -113L201 -114L200 -113H199H196H195Q190 -110 188 -110L187 -108V-104V-102V-98V-97V-95V-94Q188 -89 191 -89V-90Q191 -91 195 -91Q195 -93 204 -93Q207 -95 212 -95Q212 -96 217 -97Q218 -98 220 -98H224Q239 -94 239 -89V-88Q239 -84 235 -81Q227 -81 225 -82L222 -81Q219 -82 212 -83Q207 -82 205 -81H204Q189 -81 187 -78L188 -76V-74L187 -71L188 -69V-67V-60V-59V-58V-55V-51V-46L187 -42L188 -41V-40V-36V-32Q188 -24 187 -23V-21V-13V-12L183 0V1V2Q179 13 179 15Q179 18 178 18H176Q175 18 175 15V12V5L176 1V-1Q175 -2 175 -5V-7L174 -16L175 -18Q174 -32 173 -36V-37L174 -39L173 -41V-42V-48V-49V-52V-54L171 -65L172 -67L171 -73V-75V-77H170L169 -75L167 -76Q161 -76 160 -73L157 -74V-73L150 -69Q146 -66 141 -66L138 -71Q137 -71 135 -72V-76Q138 -78 142 -78L150 -81H151L154 -80Q155 -82 156 -82L157 -81L161 -83H162V-82Q167 -83 171 -86L170 -87L171 -90L170 -93L171 -95L170 -101L171 -103H170Q169 -101 166 -101Q166 -99 163 -99Q160 -96 157 -96Q156 -96 150 -101Q146 -103 145 -104Q145 -106 154 -107Q156 -109 159 -109Q170 -113 170 -115V-120L169 -123L170 -125L169 -129L166 -130Q164 -127 159 -127Q154 -122 151 -122L150 -121H149L140 -130V-131L145 -133V-134H146L148 -133Q148 -134 152 -134L153 -136L155 -135Q156 -135 158 -138H162L165 -140H169L171 -142Q171 -144 174 -148Q174 -149 178 -154Q178 -156 181 -158L184 -162Q184 -164 187 -167Q187 -170 191 -175Q191 -176 192 -178L194 -186V-187L192 -188H191V-190Q195 -194 198 -194ZM116 -187H119Q126 -179 133 -179L136 -177V-174Q136 -167 131 -165Q125 -156 124 -151Q123 -151 120 -144H121Q123 -144 129 -146Q131 -144 135 -144Q135 -143 140 -141L141 -140V-139Q139 -136 132 -134H131H129L113 -130Q113 -126 108 -117Q108 -115 106 -113V-112H110Q116 -109 117 -108V-107Q114 -100 110 -100L108 -101L90 -95Q89 -94 80 -92Q77 -90 75 -90L73 -88H74V-87Q72 -86 69 -77H68V-75Q70 -75 74 -72Q76 -72 81 -75H84Q84 -77 90 -77Q97 -81 102 -81L107 -83L117 -87H118Q120 -84 133 -81L134 -77V-73Q118 -59 118 -55Q121 -53 121 -51Q118 -46 114 -46L112 -47L104 -45Q104 -44 95 -43L93 -42H89Q88 -41 84 -41V-40L85 -38V-37Q81 -29 78 -29Q73 -36 73 -42V-44Q72 -44 68 -57L65 -70H64L62 -64Q59 -60 52 -49Q50 -47 39 -34Q38 -34 34 -28L18 -14H17L16 -15Q16 -17 21 -20Q21 -21 34 -33L37 -41Q37 -42 39 -44L44 -52Q48 -59 55 -76Q56 -76 58 -83L57 -84L55 -83Q48 -88 45 -89L44 -90Q45 -92 59 -97Q62 -98 62 -102Q63 -103 65 -112H66V-114Q57 -112 51 -108Q48 -108 42 -104Q39 -104 35 -112Q33 -112 31 -115Q29 -116 29 -117Q29 -119 42 -121Q42 -122 47 -122Q47 -123 55 -124Q55 -125 61 -126L67 -128L69 -132V-133V-136L65 -142Q65 -146 69 -146Q72 -146 80 -140Q83 -139 85 -139Q85 -137 88 -137L89 -136V-133Q94 -136 100 -137L102 -141L101 -143Q103 -144 104 -156L102 -157L98 -155L97 -157Q95 -153 91 -152L83 -148H82Q77 -152 77 -153Q74 -156 71 -161Q70 -161 68 -164Q66 -164 64 -170Q65 -170 79 -172H81Q83 -175 89 -175H90H91L100 -178H103Q108 -178 110 -183Q112 -183 116 -187ZM144 -176Q155 -172 157 -170Q159 -170 163 -167Q164 -167 166 -159V-156Q165 -151 160 -146L159 -145Q153 -145 148 -163Q147 -163 145 -171L142 -174ZM79 -106V-105L80 -104L88 -105Q88 -107 94 -108Q96 -114 97 -122V-123V-125L94 -124V-125L84 -120L81 -107ZM102 -72H101Q97 -69 86 -68Q83 -66 83 -64V-61Q84 -52 85 -51L84 -49L86 -48Q91 -49 98 -52H102Q103 -52 104 -55L103 -57Q105 -57 106 -70L108 -73Z"/>
</svg>