<svg xmlns="http://www.w3.org/2000/svg" viewBox="0 -256 256 256">
	<path fill="#000000" d="M197 -190L203 -184L204 -185Q208 -185 211 -181Q213 -181 214 -176Q214 -171 210 -168Q207 -164 207 -158Q204 -155 203 -148Q197 -133 192 -124Q188 -115 184 -113H182Q181 -113 180 -122V-125L179 -130V-131L181 -132L183 -138L182 -140L184 -148V-149Q185 -150 185 -152Q184 -152 184 -153L185 -156V-160L186 -161L185 -164Q187 -167 188 -171Q187 -171 184 -176Q175 -171 172 -171Q172 -169 168 -169Q167 -167 164 -166Q161 -166 157 -171Q153 -171 151 -173V-174Q151 -176 163 -177L165 -178V-177Q166 -179 181 -181Q183 -184 189 -185Q191 -187 194 -189Q194 -190 197 -190ZM121 -186L126 -184Q136 -181 139 -181L141 -179Q137 -170 133 -167Q129 -161 125 -161Q121 -154 116 -151L102 -138V-137H105Q109 -140 113 -140Q113 -141 124 -143H126H130L133 -140Q131 -138 118 -134Q111 -130 107 -129V-128V-124L103 -113V-112V-111Q106 -111 113 -115H114L115 -114V-115L117 -117H121Q124 -116 126 -114V-113Q124 -109 119 -108Q116 -105 107 -102Q107 -101 102 -99L101 -97H102L100 -87L101 -86Q106 -89 110 -89L127 -94H129Q131 -93 131 -90Q127 -88 123 -87Q123 -86 119 -86Q117 -84 113 -84L108 -81Q100 -80 100 -77Q97 -53 93 -48Q92 -43 75 -20Q58 -4 51 0H50H48H47V-1Q56 -9 60 -11Q67 -18 71 -27Q74 -27 80 -45V-46L83 -54H84H83V-56L86 -65L85 -67L87 -72L86 -73H84Q67 -64 65 -62Q57 -57 52 -53H50Q45 -57 43 -57Q43 -58 36 -59L35 -61L36 -62H40Q43 -62 52 -67L58 -69Q59 -70 63 -71Q66 -73 72 -74Q72 -75 77 -76Q86 -81 87 -81L88 -92H86Q85 -92 85 -90Q83 -90 81 -88H78Q71 -93 67 -95Q67 -98 72 -98Q73 -99 81 -102Q89 -104 89 -108L90 -117Q89 -120 89 -121H88Q87 -121 82 -117L72 -113L71 -112L66 -116Q63 -116 61 -120Q58 -121 57 -122V-123L58 -124H60L84 -131L90 -134Q95 -134 104 -148Q107 -149 108 -154Q116 -164 117 -177Q114 -181 114 -183Q114 -184 121 -186ZM65 -169H69L75 -168H77Q86 -168 94 -158L95 -154H94V-153Q95 -152 95 -149Q94 -147 94 -145L93 -144L90 -145Q89 -142 87 -140Q84 -140 79 -149Q76 -150 73 -155Q72 -155 68 -161Q66 -161 66 -162V-163L67 -164H64Q64 -166 62 -168V-169ZM141 -164H142Q144 -164 151 -159Q152 -159 152 -158Q157 -158 159 -152Q159 -150 160 -150H162L173 -155Q180 -154 180 -153Q180 -149 172 -147L171 -148L166 -145H164Q160 -143 158 -143L159 -140Q157 -138 157 -134L156 -133L157 -131L156 -128L157 -127H158L159 -126L170 -132H171Q177 -131 178 -129Q176 -126 174 -126H171Q171 -124 167 -123L166 -122Q164 -122 164 -123Q160 -122 158 -119L146 -113Q145 -117 144 -118V-119V-121L143 -131L144 -135L143 -137V-140V-141L142 -143V-148L141 -150V-151V-153L142 -157Q140 -159 140 -163ZM151 -110L166 -105V-104Q164 -97 160 -96Q159 -95 157 -95V-94V-93Q155 -89 148 -84Q146 -81 139 -77Q138 -74 135 -72Q135 -70 131 -70Q130 -67 124 -65Q124 -64 111 -54H108L107 -55Q113 -59 119 -64Q125 -69 125 -70Q133 -77 134 -80L141 -89Q144 -95 144 -98Q146 -101 146 -104V-107Q146 -108 151 -110ZM204 -108H206Q211 -103 219 -100L221 -93L220 -91L221 -89L219 -82V-81V-72L215 -49V-45Q214 -41 213 -29Q208 -9 204 -4Q199 5 195 8L188 15Q186 15 186 5L187 3Q184 -9 182 -10V-11Q182 -12 184 -12H185Q191 -12 191 -13V-17L193 -21Q193 -27 195 -27L194 -29V-30L195 -31V-35L197 -44L196 -47V-49Q197 -51 197 -52V-54L198 -58V-61L199 -63L198 -65V-71L199 -77L198 -80Q199 -81 200 -81L199 -83L200 -86L199 -88H201Q201 -91 197 -95Q194 -92 190 -92Q188 -88 182 -88Q182 -86 175 -85L171 -82L179 -75V-73Q175 -66 171 -66V-65L174 -64H184Q189 -61 189 -57Q184 -51 182 -51Q181 -53 178 -54Q178 -56 174 -58Q174 -59 169 -63Q161 -56 160 -56Q157 -51 154 -50L149 -45Q148 -45 148 -44L147 -43H146L145 -44Q145 -45 154 -55Q155 -59 161 -68Q161 -69 165 -75L164 -81L165 -83Q165 -88 159 -89Q162 -92 166 -92H169Q172 -95 174 -95V-94L183 -98H185L186 -99H190Q190 -100 196 -103V-102H197Q200 -107 203 -107ZM134 -64Q139 -59 144 -58V-55Q142 -46 142 -36H144Q145 -38 149 -38L150 -39H153L170 -43L176 -45V-44Q178 -45 182 -46L184 -47Q193 -45 193 -44V-41Q193 -40 185 -38H184L180 -39Q179 -38 175 -38L173 -36H167Q164 -36 157 -32Q152 -32 151 -30Q146 -30 137 -23L135 -22H134L131 -25V-27Q131 -28 132 -30V-41V-46L133 -47L132 -54V-59V-63V-64Z"/>
</svg>