<svg xmlns="http://www.w3.org/2000/svg" viewBox="0 -256 256 256">
	<path fill="#000000" d="M124 -196Q125 -196 130 -193L137 -189H138Q146 -188 146 -185V-181L145 -178L146 -176Q144 -176 144 -172V-171L145 -170H146Q148 -172 150 -172H152Q153 -171 155 -171L156 -172Q163 -170 163 -166H164Q165 -166 167 -167H169Q170 -165 178 -162Q185 -159 185 -155V-152Q185 -149 180 -146Q180 -143 175 -143Q175 -141 169 -137Q168 -133 164 -131V-130L167 -131H170L174 -132L178 -131Q179 -133 183 -133Q185 -135 187 -135H194L204 -137L205 -138H207Q212 -140 215 -140L224 -136Q227 -134 227 -132Q225 -126 218 -126L217 -127L214 -126H211L206 -128L205 -127L200 -129L197 -128H195H194V-127L191 -128Q171 -126 160 -124Q152 -114 149 -110Q142 -102 140 -102L141 -99L137 -95Q136 -94 133 -94L132 -92Q134 -92 141 -89H142L143 -90L145 -88H146Q152 -88 154 -91Q158 -92 168 -97Q180 -95 180 -92Q180 -85 173 -85Q168 -82 161 -80Q161 -79 156 -77Q156 -76 150 -76L145 -77Q144 -75 144 -72V-70L142 -68L143 -66L142 -60L143 -59L150 -62L151 -61Q153 -61 153 -63L158 -64L176 -71H177Q178 -68 186 -65Q189 -59 189 -55V-41Q182 -8 179 -5Q169 14 155 18Q155 20 153 20H151L150 19V18Q151 17 152 13Q150 6 146 3Q142 0 139 0L136 -2V-3L137 -4Q147 -1 150 0Q153 0 155 2Q158 2 165 -15Q168 -18 168 -20V-21V-23Q170 -25 170 -29L169 -30L171 -45L170 -47L171 -50L170 -52V-54V-55H169Q164 -55 164 -54H162Q157 -54 154 -51Q146 -51 135 -41L131 -40H129Q128 -40 126 -49L128 -58Q128 -63 129 -64V-68L130 -70L129 -72L130 -73L129 -76V-82V-84H128Q121 -73 116 -70Q116 -68 112 -64Q112 -62 107 -58Q102 -51 101 -50Q100 -47 92 -41Q92 -39 85 -33Q85 -32 65 -14Q61 -9 50 -1L44 4H42H41Q51 -8 57 -11Q71 -23 76 -30Q78 -30 78 -33Q89 -45 89 -46Q92 -53 103 -63Q104 -63 104 -67Q105 -67 109 -74Q110 -74 112 -79Q124 -94 124 -97Q125 -97 129 -105Q132 -108 137 -118Q140 -120 142 -120V-121Q142 -122 139 -122H138Q138 -119 136 -119H133L132 -120H131Q131 -117 125 -117Q125 -116 124 -116L120 -117Q119 -115 114 -115H113Q113 -113 98 -112Q97 -110 96 -110L92 -111H91Q88 -108 83 -108Q83 -106 76 -105Q72 -102 65 -101L64 -99H62L47 -93Q46 -95 43 -95Q41 -98 37 -100Q36 -102 33 -103L29 -105V-106L31 -108L36 -107L50 -110H51Q62 -111 62 -112L64 -111Q64 -113 70 -113H72Q73 -114 75 -114H78Q78 -116 98 -118L99 -117L113 -120H115L116 -121H119H123L124 -122L123 -125V-133L122 -137L123 -139V-140H122Q119 -140 118 -137H117Q112 -140 105 -148Q103 -151 99 -154V-155Q99 -156 104 -157H106Q106 -160 112 -160L114 -161H116Q116 -162 122 -162V-163V-171Q120 -173 120 -175L122 -176Q122 -181 118 -187L116 -189Q116 -193 124 -196ZM161 -162Q161 -161 158 -159Q158 -158 151 -156Q151 -154 148 -153L146 -154Q146 -151 140 -149L142 -147V-146Q142 -145 140 -145V-143Q140 -135 138 -131L139 -130L138 -128V-126Q138 -125 140 -125Q143 -125 143 -128Q149 -133 153 -140Q156 -144 160 -154Q162 -156 162 -159V-161Z"/>
</svg>