<svg xmlns="http://www.w3.org/2000/svg" viewBox="0 -256 256 256">
	<path fill="#000000" d="M155 -203Q163 -196 170 -194Q171 -192 171 -189Q169 -185 165 -183L162 -180Q156 -176 156 -175V-174H158Q166 -180 172 -180Q172 -181 176 -181L182 -185H189Q195 -185 195 -180Q195 -176 190 -176L188 -175L187 -176L181 -173L179 -174Q179 -171 172 -171Q172 -170 168 -170V-169Q176 -162 176 -159Q176 -156 173 -153Q173 -152 167 -148Q167 -145 164 -144L163 -143Q165 -141 166 -138Q168 -138 170 -135Q171 -135 171 -133Q177 -133 180 -129Q190 -126 192 -122Q199 -120 208 -116Q217 -111 236 -106L238 -107Q240 -107 241 -104L235 -103H234Q216 -99 209 -93Q209 -92 207 -92L205 -93L203 -92Q201 -95 198 -95L191 -100Q187 -100 178 -110Q178 -112 175 -112Q174 -114 169 -117Q165 -120 153 -131L144 -126Q144 -125 135 -122L132 -119H130L129 -120L136 -126L141 -132Q145 -136 146 -136V-138Q144 -138 143 -142Q135 -152 129 -153H128H127Q123 -153 121 -148Q118 -147 113 -138Q110 -137 110 -135Q108 -133 108 -131L110 -126Q110 -125 104 -123L100 -122H99V-121L96 -122Q95 -122 89 -117H87Q87 -118 85 -118Q85 -117 80 -115H78L71 -117L69 -110V-109L65 -99L63 -95L60 -87Q60 -85 56 -81Q54 -73 37 -58Q24 -45 15 -40L14 -41V-42Q36 -61 36 -64Q38 -64 46 -81L49 -87L52 -98Q54 -108 56 -111L55 -113L58 -126V-128L59 -134L58 -139L59 -140V-142Q58 -144 58 -145V-148Q58 -151 59 -151Q59 -152 53 -157V-159L57 -162H59L76 -154Q79 -153 79 -151V-150H80Q81 -151 84 -151Q95 -157 100 -158Q103 -159 104 -162Q109 -165 110 -165Q111 -165 117 -160Q123 -159 125 -157H127Q135 -164 137 -169L143 -176Q143 -177 148 -185L149 -189L151 -194Q149 -197 148 -197H147L146 -198V-199Q146 -200 150 -201Q150 -202 155 -203ZM111 -196Q122 -194 122 -189V-188Q122 -182 109 -179Q109 -178 102 -176Q102 -174 97 -173V-172V-171H96H93Q92 -170 84 -166Q82 -164 79 -164H78Q74 -165 67 -171Q64 -171 64 -173V-175L76 -180L93 -188ZM134 -158Q144 -158 148 -153Q149 -153 154 -149H155L161 -158L163 -162V-165Q163 -166 159 -166Q159 -167 153 -171Q153 -173 152 -173Q150 -171 149 -170Q149 -168 143 -166Q140 -162 135 -159ZM75 -136V-133Q75 -131 73 -128V-126Q73 -124 72 -124V-122L71 -120H72L74 -121L76 -120Q80 -124 83 -124L85 -123Q89 -127 95 -127Q98 -129 99 -132Q100 -143 101 -143L100 -144V-147L77 -138Q75 -138 75 -136ZM115 -123H116L117 -122H119Q122 -120 125 -119Q125 -118 132 -117Q132 -116 135 -116V-114L140 -115H141Q141 -116 146 -116Q146 -117 150 -118H152Q154 -116 158 -116Q159 -112 165 -110V-108L163 -104L164 -103V-102L172 -103Q184 -101 184 -99V-97Q181 -92 173 -92H172L170 -93L168 -92L159 -93L154 -92L150 -93H149Q148 -93 148 -89Q144 -89 144 -86Q140 -86 138 -81H137L136 -82Q137 -87 138 -87L137 -88V-89L138 -91Q136 -89 131 -89Q131 -86 130 -85L131 -83Q129 -81 129 -78H131L143 -82H144H145H147Q151 -81 152 -79V-78Q152 -76 148 -74H145Q139 -74 139 -73L138 -72L135 -73L131 -72V-73L129 -72L130 -70V-67V-64V-62L129 -61H131Q142 -65 148 -66H149Q155 -63 156 -61V-59Q155 -56 142 -54L136 -53H133L132 -52H130L128 -51L130 -49V-47V-44V-41L129 -40L130 -39Q133 -41 143 -41L145 -42H149Q149 -43 153 -44L155 -43Q157 -45 166 -45Q166 -46 170 -46H173Q181 -44 184 -40V-39Q182 -32 179 -32H175L155 -33L149 -32L145 -33L143 -32H141L129 -31L130 -27L129 -9V-8Q125 22 122 22Q122 25 119 27L118 26V11L117 7L118 2L117 -1V-2L118 -5L117 -9V-14H118H117L118 -16Q117 -30 116 -30H113H111L110 -29H105Q105 -27 96 -24L91 -22H89Q76 -18 74 -17H73Q65 -24 65 -25Q65 -27 74 -27Q74 -28 81 -30L83 -29Q87 -32 94 -32Q94 -33 104 -35H105L113 -37L115 -36L116 -38V-40V-41V-44V-47V-48H115Q113 -45 109 -45L102 -42H101L95 -49Q95 -50 109 -54L116 -56V-57V-58Q116 -59 117 -61V-62L116 -64V-65L115 -67L113 -66L111 -67Q111 -65 107 -64H105L102 -63Q100 -63 96 -67V-68Q96 -69 101 -69L104 -70Q104 -71 109 -71Q109 -72 116 -74V-75V-77V-80V-83H115Q113 -83 112 -82H111L109 -83Q105 -80 99 -79L98 -78H96L93 -77H90Q90 -76 86 -76Q82 -73 78 -73H77Q73 -77 71 -80V-81Q71 -82 72 -82L75 -81Q77 -81 82 -84V-83Q89 -84 101 -88L113 -91L116 -92V-94V-96V-98L115 -99H112L102 -95Q96 -99 93 -99Q93 -103 98 -103H102Q103 -105 106 -105L107 -104Q110 -106 115 -107L116 -108Q116 -116 113 -119Q114 -123 115 -123ZM145 -112Q145 -110 142 -110Q140 -107 139 -107L138 -108Q138 -106 133 -106V-105V-103Q132 -102 131 -95H133L138 -97H140H141L142 -100V-102Q145 -109 146 -111V-112Z"/>
</svg>