<svg xmlns="http://www.w3.org/2000/svg" viewBox="0 -256 256 256">
	<path fill="#000000" d="M155 -184Q160 -182 166 -179Q175 -177 175 -175L176 -172Q172 -166 172 -156Q172 -155 170 -140L169 -139L170 -135L169 -130V-127L170 -126Q182 -139 188 -149Q190 -150 190 -152V-153Q190 -156 188 -156V-157Q190 -161 196 -161Q203 -155 209 -154Q212 -152 212 -142Q211 -141 205 -140L193 -136Q185 -132 182 -130L171 -124H167L168 -118V-117Q168 -113 167 -113V-110V-108L165 -105L166 -104Q166 -106 178 -109Q182 -109 187 -113H190Q192 -115 196 -115Q196 -117 203 -117Q203 -118 209 -120V-121H213Q224 -117 224 -114V-110Q224 -107 222 -107H217H215L211 -108H209L208 -107L206 -108L203 -107L202 -108L201 -107H198Q195 -107 189 -104Q187 -104 176 -100Q176 -99 172 -99L163 -95V-92Q162 -92 158 -88H155L151 -91Q151 -90 148 -90L143 -87V-86L150 -78V-76Q143 -67 142 -63Q134 -55 124 -41Q123 -41 116 -32Q115 -32 113 -28L103 -20Q96 -17 94 -10Q89 -4 87 -3H85Q83 -4 82 -14Q81 -15 79 -22L70 -33L67 -36V-37L68 -38L79 -34H82L81 -38V-41L82 -45V-47V-50V-61V-65V-67L81 -70L82 -72L81 -74V-75L82 -76V-80Q78 -77 74 -70L73 -69Q71 -69 68 -71V-70L61 -71Q60 -63 57 -50L54 -41Q52 -36 45 -26Q40 -18 29 -4Q21 4 15 8L14 7V4Q19 1 30 -11Q30 -13 35 -20Q35 -23 37 -26Q37 -27 41 -34Q41 -39 43 -40Q43 -45 45 -48V-51L46 -56H45V-57Q47 -61 47 -66V-71Q48 -72 48 -75V-77V-80Q49 -86 49 -101Q49 -104 50 -104V-105V-107L49 -110V-111Q49 -113 50 -113L49 -115L50 -117L49 -119L50 -121L49 -123L50 -127L49 -130H50H49V-131L50 -137L47 -147V-148Q44 -148 41 -151Q47 -158 52 -158L54 -159L59 -156Q78 -162 91 -170V-171L92 -172H93Q94 -172 96 -167Q101 -167 108 -160Q104 -153 104 -148L103 -147V-145L101 -136L102 -132V-127L100 -117V-116V-114V-110V-105V-104L99 -102L100 -100V-95V-89V-84V-82V-79V-78V-76V-73L101 -59L100 -54L101 -49L100 -46L101 -45Q101 -32 99 -21Q104 -26 107 -28Q107 -30 109 -30Q109 -31 112 -34L120 -46Q123 -50 124 -55Q128 -59 132 -68L134 -72Q135 -72 135 -74V-77L136 -79Q135 -81 132 -82H131Q122 -77 121 -77Q119 -77 113 -83V-88Q116 -90 128 -93L130 -95H133Q138 -97 140 -97Q140 -98 149 -101Q150 -108 151 -110L150 -113Q152 -113 152 -115L151 -117L152 -120V-121L151 -124L153 -127L152 -129V-130V-133V-135L151 -142L152 -148V-149L151 -155L152 -158L150 -161L151 -165Q151 -168 144 -173V-176Q148 -183 154 -183ZM68 -147H65L64 -134L63 -130L64 -126Q62 -125 62 -124H63H64L75 -126Q77 -126 82 -121H83V-122H82V-123H83L82 -130V-132L83 -136L82 -137L83 -139V-140L82 -141L83 -145L82 -147V-149V-151V-153H80Q77 -153 73 -149Q69 -149 68 -147ZM124 -134H127Q133 -130 135 -126Q137 -122 137 -120V-118Q137 -109 132 -107H131L126 -111Q126 -121 122 -132ZM63 -120V-119L64 -116V-113V-110V-108Q65 -106 65 -104Q63 -100 63 -98L64 -95Q62 -84 61 -83Q62 -83 62 -82L63 -81L64 -82Q65 -85 71 -86Q71 -88 79 -92Q79 -94 83 -94V-95L82 -98L83 -99L82 -104L83 -108L82 -112L83 -117H82Q82 -113 76 -110H75Q72 -110 70 -113Q64 -119 64 -120ZM159 -85H161Q163 -83 167 -83Q167 -81 172 -80Q175 -79 177 -75V-72L169 -66Q165 -57 165 -54Q163 -50 161 -36L162 -33L161 -32L162 -29V-28H161V-27Q163 -27 166 -21H167L171 -22L175 -21H199L202 -22L206 -21H211Q225 -23 225 -25Q225 -27 227 -30Q229 -35 229 -37V-39L230 -41L229 -46L230 -47Q233 -47 233 -44V-41V-37Q233 -29 239 -19L242 -17V-11Q233 -3 224 -3L218 -1L215 -2H203H199H198L189 -3L187 -2Q185 -2 185 -3L181 -2L179 -3H178L162 -8Q157 -10 155 -14L152 -20Q152 -22 150 -24V-27L149 -31Q150 -36 151 -38V-39L153 -52Q154 -59 155 -63L158 -75V-81V-84Z"/>
</svg>