<svg xmlns="http://www.w3.org/2000/svg" viewBox="0 -256 256 256">
	<path fill="#000000" d="M201 -189L205 -186Q216 -182 221 -179L224 -175V-171L221 -158V-157V-154V-150L220 -149L221 -147L220 -139L221 -135L219 -130L220 -127L219 -124L220 -122V-118L221 -117L220 -114L221 -109V-106L220 -101H221V-100L220 -90V-89L219 -87L221 -82L220 -80L222 -57L223 -51V-50L225 -21L223 -15V-10Q221 -5 221 -2L218 4Q211 12 210 13H209Q207 13 206 3Q205 3 205 -1Q202 -3 202 -5Q201 -5 199 -9L197 -12Q195 -12 195 -14Q191 -16 187 -20L188 -21Q189 -21 194 -18H195L200 -17H203L204 -24V-26L205 -31L204 -32V-33L205 -35V-36V-37V-43V-46Q204 -46 204 -52Q205 -52 205 -54L204 -55V-57V-60L205 -63L203 -64V-65Q203 -66 205 -66V-67L203 -68V-69L204 -72L203 -75Q204 -77 204 -79H203V-81L202 -83V-84L201 -95L202 -98L201 -101H202V-102L201 -106L203 -108Q201 -113 201 -115V-117V-118V-119V-121V-123L200 -124V-125L201 -127Q200 -129 200 -131V-135Q199 -135 199 -136L200 -138Q199 -152 198 -153L199 -155L198 -156L199 -159L197 -170L196 -171V-172H195L193 -171L191 -177Q191 -184 201 -189ZM99 -167H100Q104 -163 115 -159V-156Q114 -152 110 -148Q110 -146 98 -135L92 -131Q90 -131 85 -127H84L75 -135Q73 -135 71 -140Q67 -142 66 -146Q64 -146 64 -147Q64 -149 75 -154Q80 -158 84 -158Q95 -163 96 -165Q96 -167 99 -167ZM156 -167Q159 -164 163 -161L165 -157V-154V-151Q163 -148 154 -145L152 -144Q152 -142 145 -140L140 -136Q142 -133 142 -132V-125V-122L143 -121L142 -115L143 -113L151 -118Q162 -115 162 -111Q161 -107 157 -107Q157 -105 148 -103L144 -99H143L144 -95L143 -93L144 -90L143 -89V-83V-82V-78V-74L144 -60V-55V-44V-41V-40L143 -27L144 -26Q143 -20 142 -18L143 -14L135 -7Q131 -7 130 -12Q129 -12 129 -17L130 -20L129 -24Q130 -24 131 -27L130 -32Q130 -41 131 -41L130 -45L132 -46Q131 -47 130 -53L131 -59L130 -61L132 -63L131 -64V-65L132 -67L131 -69L132 -70H131V-72Q131 -80 129 -87L130 -91V-92H129L124 -86Q117 -79 116 -79H115Q110 -81 109 -82Q104 -83 104 -86H102Q98 -86 97 -91L102 -93Q102 -94 106 -94Q112 -99 125 -104L131 -108L130 -110L131 -112L130 -118L131 -121L130 -124L131 -126Q130 -128 129 -128V-130Q129 -132 125 -139Q125 -140 119 -147V-148Q121 -151 137 -158Q147 -163 149 -163Q153 -167 156 -167ZM74 -127H75L89 -121Q92 -118 92 -116L90 -111H92L104 -117Q111 -116 111 -110Q111 -107 104 -103L102 -101Q100 -101 96 -99Q93 -99 90 -95L91 -92V-89Q89 -82 89 -81L88 -72V-68L86 -58L79 -43Q70 -28 66 -22Q64 -22 56 -12Q56 -10 48 -5L36 6H35V4L45 -6Q51 -13 54 -19Q61 -27 66 -42Q67 -44 71 -56Q72 -56 73 -64L75 -67L74 -69L75 -73H74V-74L75 -76V-77V-80L76 -85V-86H75Q65 -77 59 -69L57 -68H55L47 -72H45L38 -77L36 -76Q30 -81 30 -83Q30 -85 39 -87Q39 -88 50 -91Q51 -92 59 -95Q63 -99 71 -100Q76 -105 76 -106L75 -111L76 -113Q75 -117 71 -122V-124ZM169 -126H170Q174 -122 178 -122Q178 -121 184 -117Q189 -112 189 -110Q187 -105 187 -99H188L186 -95L187 -94V-93L185 -90L186 -89L185 -85L186 -84L185 -81L186 -79Q186 -69 183 -65Q183 -62 181 -62L179 -59Q177 -59 177 -61H175L174 -63V-66V-68Q172 -68 172 -69V-71L173 -74Q172 -74 172 -76V-79L173 -83L172 -84V-85L173 -86Q171 -90 171 -95V-97L172 -98V-99Q170 -99 170 -116Q169 -116 169 -117L170 -120Q168 -122 168 -125Z"/>
</svg>