<svg xmlns="http://www.w3.org/2000/svg" viewBox="0 -256 256 256">
	<path fill="#000000" d="M109 -192Q113 -187 116 -186Q120 -182 124 -182Q127 -178 127 -174Q125 -171 114 -167Q113 -166 107 -164Q102 -160 98 -160Q94 -155 91 -155Q91 -154 85 -152L84 -151Q84 -150 81 -150Q80 -149 72 -146Q72 -144 68 -144Q68 -143 67 -143Q63 -143 63 -144Q63 -145 67 -145Q67 -146 77 -153Q84 -159 88 -164Q94 -169 94 -170L98 -174L101 -180V-184V-185L98 -187V-188Q100 -189 109 -192ZM175 -167H177Q180 -162 187 -160Q187 -159 191 -159Q191 -158 194 -158Q198 -156 200 -153Q203 -153 203 -148Q201 -145 198 -124Q195 -91 194 -77V-76L193 -67Q200 -70 203 -70Q203 -71 210 -72L212 -74V-79Q214 -81 214 -89L213 -92L214 -96V-97L213 -100L214 -102Q214 -105 211 -107L210 -108L216 -114H218Q221 -111 225 -111L230 -108L232 -109H233Q238 -106 238 -102Q232 -91 232 -79L231 -68V-67Q226 -33 222 -33Q222 -30 214 -25H213Q210 -25 210 -27V-32V-39V-44V-45Q210 -49 211 -49L210 -50V-52Q212 -53 212 -57Q211 -60 211 -63L212 -64V-68H211Q209 -67 206 -67Q195 -59 189 -59Q182 -54 174 -51L158 -41Q152 -36 149 -33H146L139 -38L138 -43V-47V-49Q138 -53 142 -53L144 -54Q144 -58 145 -58L144 -72L145 -74Q144 -74 144 -76V-77Q143 -77 143 -81Q135 -90 135 -96Q135 -98 144 -100Q144 -99 149 -95L156 -92Q156 -91 160 -89V-87V-85L159 -79V-77V-76V-75L158 -67L159 -61L158 -59L159 -58Q165 -59 168 -60Q174 -60 174 -61V-65V-72L175 -77L174 -82L175 -95L174 -99L175 -103Q174 -103 174 -107Q172 -107 172 -108V-115Q172 -116 174 -118V-119L173 -124V-129L172 -130V-132V-133V-140V-146Q172 -149 166 -151Q165 -153 165 -154V-159Q167 -163 172 -165ZM113 -157H115Q116 -155 122 -152Q122 -151 124 -151H125Q126 -151 128 -147Q130 -146 131 -145V-142L127 -131L125 -127V-125V-121V-118L124 -116L125 -115L124 -110V-106L123 -104Q125 -106 131 -106L133 -108H135Q140 -106 144 -105V-102Q144 -100 132 -99Q132 -98 131 -98H130L127 -97L126 -98Q126 -96 124 -96L125 -93V-85V-81V-76V-70V-68V-67V-63V-59V-50V-44V-43V-41V-38L124 -34Q125 -32 126 -26Q125 -18 124 -18H125V-17Q123 -16 123 -9Q121 -7 112 5Q110 5 110 9H108Q107 7 103 7V6V5H104H105L106 4V2L104 -8Q103 -8 99 -15Q95 -17 89 -25Q87 -25 87 -26L89 -27Q91 -27 99 -25H103L105 -32V-33Q105 -44 107 -48V-49L106 -51L107 -54Q106 -54 106 -56V-58V-62V-63V-67V-70V-73V-75L107 -76V-77L106 -78V-80L107 -81V-82L105 -84L106 -86Q105 -92 104 -93L100 -92H98L96 -93Q96 -90 90 -90Q90 -89 81 -86Q76 -86 75 -81L76 -78V-77Q74 -77 72 -56Q71 -56 70 -46Q69 -46 68 -40Q67 -40 66 -31Q65 -31 63 -23L55 -10Q50 -5 42 8L36 13L32 17L31 15Q43 3 43 0L45 -5Q46 -5 51 -17Q51 -19 53 -23V-26L55 -30V-32Q55 -33 57 -36L56 -37Q59 -50 59 -63H60L59 -66L60 -67V-68L59 -69V-70Q60 -70 61 -77V-80L60 -81Q59 -79 40 -73Q40 -72 34 -71L31 -69L30 -68H29L26 -72L21 -75Q18 -75 18 -77Q18 -79 20 -79H23Q23 -80 36 -83L60 -89L61 -90V-91H60L61 -102V-105V-107V-112V-116L60 -120L61 -122L60 -124V-126Q59 -126 58 -133L55 -138V-139Q55 -140 57 -140V-141V-140H56Q54 -141 54 -142Q56 -146 58 -146Q61 -146 62 -141Q64 -141 75 -135L78 -125Q77 -123 77 -117V-114L76 -96V-95L75 -94L77 -93Q79 -95 93 -98Q95 -98 104 -100H106V-112V-113L105 -119L107 -122Q106 -123 105 -133L106 -135L105 -137L106 -139L105 -140Q104 -140 104 -138V-137H103L101 -138Q93 -133 87 -131H85Q80 -135 77 -135L76 -136V-137Q76 -138 83 -140Q83 -141 86 -141Q88 -143 93 -144Q94 -147 99 -147Q101 -149 104 -149Q104 -150 107 -153H108ZM86 -119H87Q90 -116 95 -115L99 -110V-107Q99 -105 94 -100H92Q91 -100 89 -108Q89 -112 85 -116V-118ZM82 -74H83Q86 -71 91 -70Q95 -67 97 -64V-61V-58Q95 -54 90 -51Q86 -51 86 -57Q82 -72 81 -72Z"/>
</svg>