<svg xmlns="http://www.w3.org/2000/svg" viewBox="0 -256 256 256">
	<path fill="#000000" d="M119 -193Q131 -192 131 -187Q131 -186 135 -185Q139 -181 144 -180Q150 -178 150 -175V-173Q150 -171 146 -166Q146 -163 141 -161L140 -159V-158H141Q147 -161 158 -164Q164 -164 169 -160V-158L170 -157V-150Q165 -144 156 -144Q141 -141 138 -139Q129 -138 129 -135L127 -132V-131V-130Q125 -129 125 -126Q123 -126 118 -116Q116 -116 113 -111Q109 -109 105 -105Q102 -105 102 -104Q105 -99 108 -99Q112 -101 120 -103Q123 -104 125 -104H128Q128 -107 134 -117L138 -118H139L147 -113Q149 -113 152 -111Q155 -111 158 -104Q156 -95 152 -95L138 -89Q134 -86 130 -82Q125 -80 116 -72Q114 -72 111 -69Q103 -66 99 -62Q97 -62 95 -59L84 -51Q78 -48 74 -45Q72 -45 70 -41L59 -34Q54 -33 54 -32Q57 -32 62 -29L64 -30L72 -27Q72 -26 87 -25Q89 -23 97 -22Q97 -21 102 -21H103Q107 -20 112 -18H115Q124 -15 151 -13Q155 -11 158 -11H166Q170 -10 185 -9H186H191H196H198H200H209Q233 -9 233 -11L235 -10Q234 -8 225 -6Q225 -5 218 -5Q214 -2 206 0Q192 8 190 8Q188 8 175 17H172Q152 16 152 14L130 7L112 1Q112 0 92 -6L83 -9L76 -12Q72 -14 63 -17L62 -18H60L51 -20H45Q37 -18 27 -14H23Q21 -14 21 -20V-23V-31Q21 -34 28 -39H29L31 -34Q35 -34 39 -32H42H49L73 -53Q75 -53 87 -66L93 -70Q94 -70 94 -72Q96 -73 97 -74L96 -75L94 -74Q86 -79 86 -82Q85 -82 85 -84H84Q83 -82 75 -79L69 -76Q60 -68 57 -68Q56 -66 51 -63Q49 -63 36 -76Q36 -77 39 -79H43Q53 -82 64 -85Q64 -86 76 -89L83 -93V-94Q80 -105 77 -105Q76 -103 75 -103Q71 -104 69 -113Q67 -122 66 -122H65L48 -111H46Q42 -113 32 -123Q32 -126 37 -126L57 -131H60Q62 -133 64 -134V-135Q63 -137 62 -144Q59 -150 58 -156Q57 -156 56 -159L52 -164V-168Q52 -171 55 -171Q56 -171 65 -167Q72 -167 77 -163Q84 -162 84 -154Q83 -154 83 -153L82 -143L84 -142L83 -140L85 -139Q86 -140 98 -142L99 -140Q95 -135 88 -133H86L85 -131H84L81 -130L83 -126L81 -124V-123L82 -119L80 -115V-113Q79 -113 79 -111Q80 -108 81 -108H86H89Q99 -107 100 -106H101Q107 -109 112 -135L107 -140Q104 -140 102 -144Q103 -145 113 -148L117 -149Q119 -158 119 -165L120 -171V-174V-176Q120 -180 114 -183L113 -186Q113 -190 119 -193ZM108 -88V-86L109 -85H111L114 -89V-90L112 -92H111Q109 -90 108 -88Z"/>
</svg>