<svg xmlns="http://www.w3.org/2000/svg" viewBox="0 -256 256 256">
	<path fill="#000000" d="M156 -214Q156 -213 161 -212Q161 -210 165 -210Q171 -206 171 -205L172 -201Q170 -195 170 -192L169 -191H171L176 -193Q185 -193 188 -187V-186Q182 -179 179 -179H176Q165 -175 163 -174Q160 -165 153 -157L144 -150H140L138 -151V-152Q140 -154 142 -157L143 -161Q145 -162 145 -164V-166Q145 -167 142 -167Q137 -174 134 -174V-176Q134 -177 146 -182L147 -181Q149 -181 150 -204V-205Q150 -207 148 -209Q148 -213 156 -214ZM72 -198Q79 -192 84 -192Q84 -191 92 -191Q106 -185 106 -182L105 -177V-166H106Q109 -168 118 -169L121 -171H122Q124 -170 124 -168Q124 -167 113 -164L105 -159L106 -156V-150Q107 -148 107 -145V-143Q106 -140 101 -137L99 -136Q95 -139 91 -151Q91 -152 90 -152Q86 -149 73 -142H72Q64 -148 59 -152Q55 -152 55 -156H62L64 -157L65 -156Q68 -158 76 -159Q76 -160 85 -161L86 -162V-163Q84 -163 83 -172Q81 -174 75 -189V-191Q71 -195 71 -196ZM112 -112V-116Q101 -111 99 -111Q90 -117 84 -123Q84 -125 96 -127L115 -131V-136Q115 -144 111 -147V-154L116 -156H118V-154Q120 -153 127 -150L129 -151L130 -150L131 -151Q133 -151 136 -143Q136 -141 134 -140L135 -138L150 -142Q161 -142 161 -139Q162 -137 162 -134Q160 -130 153 -130Q148 -128 137 -126Q131 -125 131 -124Q129 -124 128 -117Q128 -115 125 -109L110 -105ZM142 -95Q149 -87 153 -87L154 -84V-80Q153 -76 147 -76L138 -72Q138 -71 134 -71Q125 -63 123 -63L122 -64V-66Q123 -68 125 -69Q127 -73 127 -74Q132 -82 133 -82V-83Q129 -81 127 -80Q121 -78 121 -77Q107 -71 98 -66H97Q96 -66 93 -70Q86 -74 86 -75V-76L88 -77H92L112 -84L125 -87L126 -86Q126 -88 132 -89Q135 -95 142 -95ZM111 -59L124 -56L125 -55H126Q128 -55 133 -52H136L159 -56L167 -58Q178 -58 180 -53Q182 -51 182 -50V-49Q182 -46 171 -44L158 -47L149 -46L142 -45L139 -46Q139 -45 135 -44V-24L136 -22L135 -21L136 -10Q135 -1 135 0V1Q130 17 123 22L115 29H113L112 28V23Q105 11 100 11Q100 10 96 9L97 8H112Q117 5 119 -10L120 -18V-19L119 -22L120 -24V-32L119 -34L120 -36L119 -40H120L119 -41V-42Q120 -42 120 -43H119Q104 -40 92 -35L65 -27Q58 -33 55 -34V-35L56 -36H59L106 -46Q116 -48 116 -49Q116 -52 109 -58Q109 -59 111 -59ZM85 -93L75 -90Q72 -90 72 -89L73 -85L72 -82V-80Q72 -66 60 -57H58Q56 -57 53 -61L54 -64V-72Q56 -78 56 -85L55 -87L56 -90L54 -96L55 -98Q55 -99 53 -104V-108Q53 -110 54 -110H56L63 -106L69 -101Q68 -99 71 -99Q75 -100 104.5 -107Q134 -114 154 -116Q174 -118 181 -120Q182 -123 187 -123H188Q197 -120 197 -114Q201 -109 205 -109Q209 -106 209 -100Q205 -91 201 -91H196Q194 -91 186 -96L182 -95L175 -96Q175 -94 166 -91H165Q165 -94 171 -97Q179 -104 179 -107V-108Q179 -109 175 -110Q151 -108 85 -93Z"/>
</svg>