<svg xmlns="http://www.w3.org/2000/svg" viewBox="0 -256 256 256">
	<path fill="#000000" d="M159 -205Q165 -198 170 -197H171Q176 -197 179 -192Q179 -186 170 -177V-176H171Q173 -176 182 -180H183Q190 -178 190 -174Q190 -166 180 -166L172 -163Q162 -162 162 -159Q157 -154 154 -147L158 -145Q158 -146 159 -146Q163 -144 165 -142V-141Q164 -140 164 -137Q158 -132 156 -132Q154 -132 153 -139H152Q152 -141 153 -141Q153 -143 152 -143H151V-144L153 -147V-148H151Q147 -140 142 -138Q141 -136 136 -134Q136 -131 129 -128L128 -129V-131Q129 -134 136 -140V-142Q138 -142 139 -148L140 -149L143 -148L142 -151L143 -153L142 -155L143 -156H142Q137 -158 137 -161Q135 -161 135 -162V-163L136 -164Q138 -164 138 -162L140 -163L143 -162Q144 -162 145 -167Q147 -167 147 -170L151 -176L150 -179L152 -189Q150 -194 148 -195V-196Q148 -197 151 -197V-198Q151 -203 156 -203Q156 -204 159 -205ZM84 -190Q87 -190 91 -186H94L101 -183L103 -184H105Q109 -184 110 -178Q110 -174 107 -171L108 -168L107 -165L108 -164L107 -162L109 -161H110Q113 -161 121 -165Q123 -164 124 -162Q118 -157 115 -157Q115 -155 111 -155Q111 -153 107 -152L106 -146V-144L105 -141L106 -140Q101 -131 98 -127H97Q93 -127 92 -137L90 -141L91 -143L89 -145Q85 -141 79 -139Q73 -134 70 -134Q64 -138 61 -142Q59 -142 58 -146V-147L59 -148H64Q72 -149 75 -152Q81 -152 87 -154Q87 -158 84 -167V-169Q76 -181 75 -187Q75 -189 79 -189H80H82ZM174 -136Q183 -134 183 -129Q183 -125 175 -123H174H170Q162 -122 148 -121L147 -122Q146 -120 145 -120H144L141 -119V-118Q144 -114 155 -103Q155 -100 165 -93Q171 -87 178 -84Q183 -78 190 -76Q194 -71 196 -71Q198 -71 203 -67Q217 -60 225 -58L239 -51L237 -50H228H225H223H221H219Q217 -49 209 -48Q207 -47 202 -45L196 -43H195Q187 -50 184 -50Q177 -55 168 -63H167L164 -64Q162 -64 161 -60Q158 -60 154 -58L147 -55V-52V-50V-45V-40V-36V-32V-7Q147 -1 146 0L147 4Q147 21 137 29H136Q135 29 135 27L136 23Q133 23 132 14L134 13V12Q132 9 132 4L133 3V1L134 -1Q133 -2 133 -4V-6V-7V-9Q133 -12 134 -14Q132 -14 132 -15V-16L133 -18V-19V-22V-26V-27V-28Q133 -30 132 -32L133 -38V-39L132 -40V-41L133 -44L132 -47V-48V-51V-52H131L129 -50H127Q126 -51 123 -56H122V-58H123L125 -57L132 -60V-62L131 -67L132 -71Q131 -71 131 -72L132 -74Q129 -74 129 -75V-76L130 -77Q129 -77 129 -80Q126 -80 126 -83L129 -86L131 -85V-86H132H133Q134 -86 134 -85L142 -82L145 -79H146L147 -77L146 -68L148 -67L152 -69L153 -68L155 -71L158 -70V-72L152 -79L147 -85L145 -88Q145 -90 139 -96Q138 -100 133 -103Q133 -107 131 -107Q128 -113 125 -114Q124 -113 120 -113Q113 -102 113 -100Q108 -96 107 -91Q106 -91 104 -86Q102 -86 99 -80Q108 -73 110 -73Q111 -73 113 -70V-69L110 -62V-61H113Q119 -60 119 -58Q119 -54 112 -54Q109 -50 109 -49V-48L105 -29Q97 -14 91 -7Q81 7 73 10H72L71 9L77 5Q87 -5 91 -18Q94 -22 94 -32Q95 -32 96 -36V-40Q96 -42 97 -45V-48H96Q94 -42 91 -42L86 -45L83 -44Q83 -45 79 -48Q79 -51 85 -51Q85 -52 91 -53Q91 -54 96 -55Q96 -56 98 -60L97 -63V-72L93 -73Q90 -71 86 -65Q76 -54 56 -35Q45 -26 39 -23Q38 -21 29 -16L22 -13Q22 -11 16 -10V-11V-12Q20 -15 30 -20L44 -32Q45 -34 54 -41Q55 -43 61 -48L68 -58Q68 -59 72 -63Q78 -72 80 -77L88 -89Q92 -101 94 -103Q94 -104 92 -104Q88 -102 87 -102H86Q83 -101 83 -99Q80 -99 73 -94H72Q68 -95 63 -100Q58 -100 58 -102V-103Q58 -105 69 -106Q69 -107 74 -107L76 -108H79L83 -109L84 -108Q88 -111 97 -113H99L100 -115V-117Q101 -118 103 -126V-131L108 -135H109Q126 -126 126 -122Q124 -121 124 -118H126Q126 -120 127 -120H128H131Q131 -122 133 -122L135 -121Q135 -122 139 -125L142 -124Q145 -126 157 -130Q163 -133 167 -133Q167 -135 174 -136Z"/>
</svg>