<svg xmlns="http://www.w3.org/2000/svg" viewBox="0 -256 256 256">
	<path fill="#000000" d="M149 -195H150Q158 -188 168 -186Q169 -186 171 -182V-178Q167 -172 167 -171H168L171 -173H174Q174 -175 178 -175L183 -177L184 -176L187 -177Q191 -174 191 -171L189 -169Q189 -167 183 -165H181L179 -166L168 -162L166 -161L164 -162Q155 -158 155 -156Q155 -154 149 -147Q149 -145 146 -143Q146 -141 138 -130Q136 -130 133 -126L130 -124L129 -125V-126Q135 -135 135 -140Q137 -140 138 -146V-150L140 -152V-154Q140 -155 137 -156Q136 -157 134 -158H131V-159Q131 -161 138 -162H140L143 -165L146 -175V-177V-181L142 -186V-187Q143 -188 146 -193ZM76 -181L81 -178L93 -175H95Q104 -175 106 -168L105 -166L106 -163L104 -160V-159L106 -155L108 -154Q109 -156 120 -158H124L125 -157Q124 -156 116 -153Q115 -153 114 -150L111 -151Q111 -149 107 -148Q107 -146 104 -146V-145Q104 -135 102 -133Q110 -130 110 -127Q112 -125 116 -123L119 -121V-120L116 -113H117H118Q119 -115 124 -115Q124 -116 131 -118Q131 -119 140 -122Q143 -125 148 -127Q154 -132 156 -132H158L166 -128Q175 -126 178 -123V-122L179 -119Q178 -113 171 -105L167 -97Q167 -95 163 -90Q159 -81 157 -81Q157 -79 153 -76Q153 -73 144 -65H143L142 -66Q142 -67 145 -71L144 -72Q142 -70 136 -69L134 -68H131L127 -67V-64Q131 -64 134 -61V-60L133 -50V-48L131 -38V-36L129 -33L130 -31L129 -28Q129 -5 137 -5L145 -3L151 -4Q153 -3 153 -2Q154 -3 162 -4H163Q173 -4 178 -5Q179 -6 185 -6L190 -7L192 -8L194 -7Q200 -10 204 -10L206 -20Q207 -29 209 -29L210 -27V-22Q211 -16 216 -11Q220 -9 222 -4Q217 4 214 4L211 8H210V7Q205 10 191 12H189L187 11L179 14L176 13H173H168L165 14H163L160 13L158 14Q158 13 155 13H154Q143 13 143 12L141 13Q140 12 135 12L127 8Q124 5 123 0V-1Q121 -1 120 -11V-14Q120 -16 119 -16L120 -18L119 -29Q120 -35 120 -36V-39V-46V-51V-52V-54V-55L121 -65L120 -66Q117 -63 112 -63Q112 -62 109 -62Q109 -60 105 -60Q104 -58 102 -58L101 -59Q101 -57 90 -54Q90 -53 89 -53H88Q84 -53 84 -61L82 -65L83 -67L79 -78L80 -81Q79 -81 78 -86V-87L74 -98L72 -104Q70 -104 70 -106L72 -109L84 -104Q86 -102 88 -102H89Q89 -103 96 -113Q97 -115 100 -118L101 -121V-122L99 -120H97Q94 -122 92 -133V-134Q91 -138 90 -138H89Q80 -136 74 -131L73 -130H72L66 -135Q58 -140 58 -141V-142L59 -143H64Q66 -143 66 -145L69 -144Q73 -147 78 -147Q78 -148 84 -149L88 -151Q86 -153 85 -158Q84 -158 84 -161Q82 -162 79 -169V-172Q76 -172 76 -176Q75 -176 73 -179Q73 -181 76 -181ZM140 -114L138 -115L134 -113H130Q130 -110 125 -110V-108Q129 -105 129 -104L127 -99L128 -98L138 -101H139Q141 -100 141 -99H144H145L143 -97L144 -96V-95Q144 -93 137 -93H136Q135 -92 132 -92Q129 -92 128 -90H127L124 -92V-91L125 -89L123 -86L124 -84Q123 -82 121 -78V-77H122V-76Q120 -74 120 -72H121H122Q124 -74 129 -74H131Q131 -76 146 -80V-81V-86Q148 -92 149 -100L150 -102L149 -104L150 -106V-109L152 -111L150 -114L152 -118V-119H151Q142 -117 140 -114ZM89 -101L90 -100Q90 -99 92 -99L93 -96V-95L92 -91L93 -86V-83L94 -81V-80L93 -77Q94 -64 97 -64Q98 -66 103 -67Q103 -68 106 -68H107Q111 -68 111 -72L112 -76V-79V-82H111L104 -79Q101 -81 101 -82H97L96 -83V-84L102 -87Q102 -88 109 -90L111 -91L114 -90V-91L113 -93L114 -96L113 -99L114 -103V-104H113Q113 -102 112 -102H111L106 -108H105Q102 -105 101 -105Q95 -104 92 -101ZM153 -66L158 -61Q158 -59 161 -59L162 -58V-57Q160 -54 156 -50Q155 -44 148 -37V-36H150L159 -37L161 -36L162 -37Q164 -37 164 -35L147 -30Q147 -29 136 -23H135Q133 -23 131 -27Q132 -32 140 -38H142Q142 -39 147 -45Q147 -49 152 -54L151 -55L153 -59L151 -65ZM94 -53H97Q100 -49 103 -49Q105 -49 107 -46Q107 -45 102 -39Q97 -33 97 -32Q90 -26 90 -23Q88 -23 81 -14Q77 -11 72 -6L61 2Q57 7 50 11L37 19H35L34 18Q36 16 52 6Q68 -7 68 -10Q68 -12 77 -20Q78 -25 85 -33L88 -40L90 -44V-50Q90 -53 94 -53ZM163 -45H164L172 -40Q174 -40 178 -31L177 -29L178 -27Q178 -23 172 -20Q169 -20 167 -32Q165 -33 165 -37Q163 -37 163 -42L161 -44Z"/>
</svg>