<svg xmlns="http://www.w3.org/2000/svg" viewBox="0 -256 256 256">
	<path fill="#000000" d="M134 -196H135Q138 -196 141 -191Q144 -190 153 -185Q159 -185 159 -176Q155 -168 155 -167V-163V-162H157Q165 -165 168 -168H169Q179 -163 179 -159Q179 -152 170 -152V-153H169L151 -149Q151 -148 146 -147Q142 -139 142 -137Q141 -137 138 -130Q135 -127 134 -127V-124L131 -121Q131 -119 127 -119Q121 -112 117 -112L116 -113L124 -125H125L124 -126V-127Q129 -135 129 -140V-142L128 -143L126 -141Q125 -141 124 -144L119 -149V-150Q119 -152 129 -153Q131 -159 133 -172Q133 -176 129 -186V-189ZM68 -174Q68 -171 78 -169Q80 -167 86 -163Q90 -159 90 -158V-155V-147Q90 -144 91 -144L97 -146L99 -147V-146L102 -147L106 -145V-144Q104 -141 99 -140Q91 -135 90 -135H89H88V-134L89 -133V-131L90 -128L89 -126Q90 -126 90 -120Q89 -112 87 -112L84 -108Q81 -108 79 -120L76 -128Q72 -128 68 -125L64 -124V-123Q64 -121 58 -121L56 -119H54Q52 -121 45 -124Q43 -124 39 -129V-130L41 -132L44 -131L50 -132H51Q54 -133 60 -135L70 -137L71 -138Q72 -138 72 -139V-140Q71 -144 67 -152Q67 -153 59 -164Q59 -165 55 -171Q55 -173 57 -173ZM138 -122H139Q142 -119 145 -118Q145 -117 150 -117L153 -114V-113Q153 -111 147 -107L144 -104V-102Q142 -102 136 -90Q134 -90 133 -86Q131 -86 124 -76L113 -65H112L111 -67Q120 -77 126 -88V-91Q128 -91 128 -95Q131 -99 134 -108L135 -114V-118ZM65 -109H66Q69 -104 76 -102L78 -100Q78 -99 82 -99V-96L80 -87V-85Q79 -79 78 -78V-75L77 -71Q78 -69 79 -69Q88 -69 94 -78H95Q108 -70 108 -68V-60V-59Q107 -52 107 -51V-49V-40V-38V-37V-35L108 -32L107 -27L108 -25L107 -23V-21V-20L106 -18L107 -14L106 -11V-5Q104 7 102 9Q96 20 93 20Q91 19 90 18L91 11Q90 9 90 5Q88 5 86 0L79 -6V-7Q79 -8 81 -8Q86 -5 88 -5V-6Q90 -7 91 -16L90 -18L92 -19V-20L91 -21L92 -23L91 -27L92 -32L91 -35L92 -38Q92 -40 91 -42V-46L92 -48L90 -50V-55L91 -57L90 -59L91 -62Q90 -65 89 -65H86Q84 -63 75 -61L73 -59V-58L77 -53V-48L76 -43L77 -37L76 -31V-29Q76 -22 74 -20L75 -17Q72 -7 69 -7L67 -8V-9L68 -14L67 -17L68 -19L67 -22L68 -24V-25H67L68 -31L67 -34L68 -36Q67 -36 66 -42V-44L67 -45L66 -47V-48L67 -52Q66 -52 66 -55L68 -57V-58L65 -59Q63 -57 61 -57H59Q58 -57 58 -56Q57 -54 53 -54Q50 -53 48 -51L49 -49L48 -46L49 -43L48 -39L49 -36L50 -18V-16L49 -15Q50 -15 50 5Q48 14 44 14Q42 14 40 4L41 3L40 1V-1V-10V-14Q40 -45 32 -58V-59L33 -60Q36 -60 37 -57L42 -55Q54 -58 57 -60Q67 -63 67 -66L68 -69V-72L67 -73L68 -84L67 -88L68 -89Q66 -90 65 -99Q62 -102 62 -103Q62 -104 65 -109ZM174 -106Q185 -101 185 -98Q185 -93 178 -93Q177 -91 154 -82Q152 -82 152 -80Q152 -78 162 -73L163 -72L162 -70L163 -68L158 -52Q156 -50 156 -44Q155 -44 152 -37L159 -31L171 -22L172 -23Q172 -20 180 -18L194 -9Q194 -8 198 -7Q202 -4 216 0Q217 2 229 4V5Q229 7 211 8L187 15Q174 4 168 0Q167 0 154 -13Q148 -20 143 -23H142Q140 -23 128 -11L120 -6Q118 -6 111 -1H109L108 -2V-3L120 -12Q120 -13 131 -25L135 -33V-34Q128 -45 124 -49Q123 -54 118 -57V-58Q119 -60 122 -60Q122 -59 131 -55L136 -51L135 -50V-49H140Q143 -49 143 -53Q144 -53 147 -66V-69V-71L148 -72Q146 -74 146 -76L148 -78L145 -80L140 -87V-88Q140 -90 150 -92Q153 -96 163 -99L168 -101Q172 -106 174 -106ZM89 -104H90Q98 -101 101 -101H103L108 -99L113 -94V-93Q113 -88 105 -84H104Q102 -84 95 -95L88 -102ZM44 -97H45Q56 -85 56 -84V-83Q56 -82 52 -81Q42 -71 35 -67Q31 -65 28 -65L27 -66V-67Q40 -79 40 -84Q41 -84 43 -89Q40 -90 40 -93ZM80 -43Q87 -40 89 -37V-35Q87 -33 86 -29L84 -28Q81 -29 81 -35Q78 -39 78 -42ZM58 -38Q63 -31 63 -27Q60 -22 60 -21L58 -20H57L55 -22V-23L57 -28L56 -37Z"/>
</svg>