<svg xmlns="http://www.w3.org/2000/svg" viewBox="0 -256 256 256">
	<path fill="#000000" d="M159 -210Q164 -204 168 -204Q168 -203 174 -202L177 -198Q177 -196 167 -184H168Q171 -186 176 -186Q176 -187 182 -188Q182 -189 185 -189H188Q189 -189 192 -187Q197 -186 197 -183H196V-182L197 -181Q195 -176 190 -176Q190 -174 182 -174L181 -172H177Q174 -171 171 -171Q170 -169 165 -169Q161 -173 159 -173L150 -163Q147 -159 138 -153Q138 -151 131 -149V-150L138 -159Q150 -185 150 -195L151 -197Q150 -197 148 -203Q152 -210 159 -210ZM91 -198L92 -197L94 -198L96 -197L98 -198H100Q109 -198 111 -195Q117 -195 121 -191Q122 -179 123 -179V-176V-173L124 -171L130 -173Q132 -173 132 -170Q126 -168 123 -165L124 -163V-162H123H124V-161L123 -155V-153Q122 -152 121 -144Q120 -144 120 -141H121Q123 -142 129 -143L130 -144H132L135 -145V-146L136 -147Q137 -146 137 -145Q149 -148 153 -148L154 -149H156Q160 -149 168 -154Q170 -154 173 -158Q176 -158 179 -153Q181 -151 184 -151Q190 -147 190 -144Q190 -143 183 -137Q179 -134 174 -126Q163 -111 161 -111L156 -107H154L153 -108Q155 -112 155 -116L154 -117L141 -114H138Q134 -113 115 -111V-110Q120 -110 120 -108Q120 -106 130 -105Q137 -100 137 -95H140L144 -98H145L147 -97H149L153 -93L149 -90H146Q146 -89 144 -89L142 -87L141 -88H140L134 -85L132 -86V-85L133 -82L132 -80L133 -79Q132 -77 131 -77L132 -76Q132 -73 131 -73V-71V-69Q137 -69 141 -71H142Q145 -71 146 -75Q156 -82 156 -87L162 -92V-93Q162 -95 165 -101Q161 -102 161 -104Q161 -107 166 -108H169Q171 -108 174 -104Q177 -104 178 -99H181L185 -96V-95Q185 -88 179 -88Q179 -87 169 -80Q167 -77 164 -75Q164 -74 159 -72L158 -71H159Q167 -73 171 -73L172 -74H177L184 -76L185 -75L193 -77L204 -80H210L216 -79Q217 -77 222 -75Q222 -74 226 -73L228 -70V-69Q228 -66 222 -64H219Q212 -68 206 -68L204 -67L201 -68L197 -67H195H189H188L185 -68Q182 -68 180 -66H179H177L171 -65H168H163H157L155 -66Q155 -64 152 -64Q152 -62 148 -60L147 -58Q149 -58 149 -57H150H151Q157 -55 157 -52Q157 -49 149 -45Q148 -45 146 -51Q145 -54 144 -54H143Q141 -53 136 -47L131 -44L132 -41H131H130L129 -42Q129 -40 125 -37L124 -36Q128 -36 130 -37H132H134Q136 -40 143 -41Q143 -42 151 -44L162 -40L165 -39L168 -40Q173 -36 174 -34L170 -22V-21L168 -15L169 -13L168 -4V5Q167 5 165 18Q155 34 147 34L146 31V30Q144 30 144 28L145 25Q144 23 144 21L145 17L143 15L139 16L136 15L118 18V19Q117 19 117 18L116 17L115 18V19L116 22Q114 25 112 27H110Q109 27 106 19Q105 19 105 17L106 10L104 7V6L106 3L105 1L106 -1L105 -3V-6V-9Q103 -12 103 -17Q98 -14 94 -9Q91 -9 84 -1Q83 -1 75 5L65 13Q64 13 58 17Q36 31 32 31L31 30Q31 28 39 24Q54 18 81 -5Q84 -9 89 -12L106 -29Q104 -30 104 -37V-44L105 -45L107 -44V-42L114 -39Q128 -52 129 -52Q130 -52 131 -56Q132 -56 132 -59L135 -61V-62H131L122 -61H120H118L117 -62H115L114 -60V-59H111H106H104H102H100L93 -57L91 -56H89Q87 -56 85 -54H80Q70 -54 68 -51L62 -50H60L58 -49H55Q55 -47 53 -46L51 -47Q51 -46 44 -43Q42 -40 40 -40Q38 -41 33 -46Q31 -46 28 -50Q28 -53 30 -53L32 -52H33L43 -54H46H47L51 -55H56L58 -57H64Q65 -58 67 -58H70L71 -59H73Q83 -62 86 -62L88 -60L91 -62L94 -61V-62L96 -63H100H101H104L109 -66H114V-77Q109 -75 105 -74L104 -73H102Q96 -80 93 -81V-82L94 -83H98Q100 -84 105 -85L106 -86H107H109Q114 -88 114 -89V-94L115 -95L114 -98V-100L112 -103L113 -106Q109 -107 109 -109H108H106Q104 -109 103 -102L100 -99H99Q98 -99 93 -110Q91 -117 87 -126L80 -136V-138L82 -139H84L93 -134H95Q104 -137 110 -138Q110 -139 116 -140V-141L114 -146V-148L111 -151V-155Q111 -157 110 -158L107 -155L106 -156Q98 -150 96 -150L95 -148Q87 -148 82 -157Q80 -157 79 -160V-161Q79 -162 89 -163H90L98 -165L100 -164Q101 -167 102 -167H106L105 -171Q105 -175 96 -187Q92 -191 91 -191V-192L89 -194V-196ZM145 -140H143V-139Q143 -138 147 -137L148 -135V-134Q148 -131 145 -127L142 -121L143 -120L156 -122L157 -128Q158 -128 159 -135Q160 -135 161 -143H160ZM120 -134Q123 -133 124 -131V-130L123 -126V-125V-122L122 -117L124 -118H128L129 -119H134H135L134 -120Q134 -125 136 -126L134 -127V-128Q136 -129 136 -133V-134V-136Q136 -138 135 -138H134H131H130L120 -135ZM101 -129L103 -126L102 -124L103 -117V-115L104 -114L109 -115H111Q114 -115 114 -122L113 -125H114L113 -133H112Q111 -131 104 -131Q104 -130 101 -130ZM122 -29H120L118 -27L116 -28L114 -26L116 -22V-20V-15V-11H117L134 -17H136Q141 -17 144 -14V-13Q143 -8 141 -8L136 -9Q135 -7 134 -7H133L132 -8H131Q129 -7 124 -6L117 -4Q117 0 115 0L116 1V3L115 4L116 6V8L117 9H118H123H125L127 7V9H128Q132 5 138 5V6L145 3L146 0V-7L147 -10L146 -13L148 -26L147 -30L148 -32Q148 -33 146 -33V-34Q129 -32 126 -30Z"/>
</svg>