<svg xmlns="http://www.w3.org/2000/svg" viewBox="0 -256 256 256">
	<path fill="#000000" d="M123 -195L130 -192Q132 -192 138 -187Q139 -186 141 -183L138 -158Q138 -155 137 -155L138 -152L137 -149Q137 -148 139 -148Q141 -148 144 -150H149L154 -152Q158 -159 160 -168V-176Q156 -180 156 -181Q158 -188 164 -188L167 -189L177 -183Q183 -183 186 -175V-167Q185 -164 178 -157L173 -147Q172 -147 169 -140Q167 -139 165 -134Q160 -127 158 -127Q157 -127 155 -122L148 -118H146L145 -119L147 -128Q147 -129 149 -131V-133L151 -135H150V-137Q150 -138 153 -139L154 -141V-142H153L135 -135L133 -117L130 -104H131L130 -101Q130 -100 131 -100Q137 -100 148 -104L149 -103L154 -104H156L174 -108L186 -110Q186 -111 192 -112L193 -111Q193 -112 209 -116L211 -117H214L221 -114H222H223Q228 -110 228 -107Q228 -100 216 -99L207 -100H204Q202 -100 202 -99L200 -100H198L197 -99L195 -100L193 -99L190 -100L180 -99H178L174 -98H171H169L165 -97H162Q161 -96 148 -95Q148 -94 145 -94L144 -95Q143 -94 129 -92H125L124 -91V-90Q129 -90 130 -89H134Q141 -85 142 -82Q142 -78 140 -76V-75H141Q141 -77 149 -78L154 -81Q154 -83 163 -87Q165 -85 171 -82Q180 -81 180 -77Q181 -76 181 -74V-69L164 -54Q164 -53 159 -50L158 -46L161 -43V-42Q159 -40 155 -38H154L151 -39Q151 -38 143 -37V-36H142L139 -37Q139 -34 137 -34L135 -35L134 -25V-24L133 -20V-16L132 -15L133 -14L138 -15L141 -14L144 -16H146Q146 -17 156 -19L160 -20V-22Q159 -23 156 -30L157 -31H158L162 -28L163 -29L170 -25Q171 -25 172 -23Q185 -18 185 -10Q188 -8 188 -2L187 -1L188 2Q185 11 180 14Q180 15 175 17Q168 13 168 7Q167 0 166 -1L163 -12V-14Q162 -14 161 -15Q161 -14 148 -11Q148 -10 144 -10L131 -5Q122 -4 122 -2Q117 -2 111 3H109L107 2L90 10Q76 19 74 19Q72 19 68 9Q63 6 63 4Q65 3 84 -1Q84 -2 95 -5L99 -4Q99 -6 108 -8V-7L120 -11L121 -18L120 -22Q120 -25 121 -25L120 -26V-28L121 -29Q121 -30 118 -31H117Q117 -29 107 -26H106V-24Q102 -19 99 -19L95 -25Q92 -28 92 -35V-37Q91 -38 90 -45Q89 -45 86 -54Q85 -54 84 -61V-62Q84 -63 86 -63Q89 -63 91 -60L95 -62H97Q102 -65 105 -65L107 -64Q107 -66 113 -66Q113 -68 114 -68H117Q117 -70 121 -70V-77Q121 -82 117 -86L118 -90V-91L110 -89L108 -90Q108 -88 97 -86L95 -87Q94 -86 88 -85Q88 -83 81 -83H78L77 -82H75H74Q74 -81 65 -80Q62 -77 54 -76Q54 -75 50 -75Q45 -72 38 -69L29 -77Q27 -77 27 -81H28H32L53 -86H54L56 -85Q57 -86 69 -89Q74 -89 82 -91L84 -90Q89 -93 96 -93Q96 -95 113 -96Q120 -98 120 -101L119 -103Q120 -103 120 -104L119 -107L120 -110L119 -112L120 -131Q117 -128 113 -128L101 -119Q90 -108 82 -106Q77 -108 77 -113Q74 -116 74 -123Q77 -127 82 -132L83 -135V-140L82 -144V-146Q80 -151 75 -158V-160Q76 -165 81 -165L83 -166H87Q107 -158 107 -153L108 -152Q108 -146 106 -146L107 -144L105 -137H106Q107 -139 115 -141Q121 -142 121 -144L120 -147L121 -152L120 -153L121 -161V-166L122 -168V-169Q120 -169 120 -173V-174V-176Q119 -179 119 -183Q116 -187 116 -189Q116 -191 123 -195ZM139 -66L140 -64Q138 -64 138 -59L137 -58L138 -56L137 -54L138 -51L135 -49L136 -45H135V-44H138Q138 -45 146 -48L148 -47L151 -59H150L153 -68V-71H152V-72Q150 -70 142 -68L139 -67ZM107 -58V-59Q106 -56 103 -56L101 -57L100 -56Q105 -52 105 -50L104 -48V-46L106 -45V-44L105 -43V-42L106 -41L104 -33H106L109 -36H111Q113 -36 114 -38H116H117Q118 -39 121 -40V-44L122 -46L121 -48V-52V-53V-57Q121 -61 123 -61V-62H120Q112 -58 107 -58Z"/>
</svg>