<svg xmlns="http://www.w3.org/2000/svg" viewBox="0 -256 256 256">
	<path fill="#000000" d="M161 -183Q163 -182 165 -178Q165 -176 169 -176Q169 -175 175 -174L176 -173L179 -174Q182 -172 183 -168V-162V-161L180 -153Q178 -146 177 -144L178 -140Q176 -138 176 -135L177 -131Q174 -130 174 -127V-126Q176 -122 181 -121L188 -122Q188 -123 200 -126Q200 -127 201 -127H205Q206 -129 209 -129L214 -127L217 -128Q222 -126 225 -121V-117Q224 -114 218 -113H216L212 -112L210 -113L209 -112Q203 -113 202 -113Q198 -112 192 -112H190L178 -108L177 -109L173 -108Q172 -106 171 -106L170 -94V-93V-90Q169 -90 169 -88L170 -86L168 -79L169 -77Q167 -72 167 -68V-66V-62Q167 -60 170 -59Q173 -62 182 -64L194 -69L199 -64Q203 -64 203 -62L211 -63Q214 -59 214 -52Q214 -48 206 -41Q206 -40 197 -27Q197 -25 195 -24V-23H196V-22L198 -23Q204 -18 204 -16Q201 -9 195 -9H192H190H187L179 -7H178L177 -8L166 -5L159 -4L158 -5Q158 -3 149 -1Q149 0 147 2Q147 5 142 7Q138 7 136 0Q134 0 134 -3L135 -6L134 -9L135 -14L134 -16V-17Q133 -19 132 -25Q129 -27 129 -29V-30V-33Q128 -33 126 -40L127 -42Q125 -42 125 -46L124 -48V-50Q125 -52 127 -52Q127 -50 134 -48Q143 -49 149 -51L150 -50L153 -54H152Q152 -61 154 -65L153 -68L154 -72L153 -75Q153 -81 155 -81L154 -84L155 -88Q153 -88 153 -90L154 -94L153 -98Q153 -101 156 -101V-102L155 -103Q153 -101 149 -100Q149 -99 137 -97Q136 -96 127 -92L123 -95Q122 -95 116 -102H115Q113 -102 106 -91L103 -89Q103 -88 106 -88V-86Q104 -84 101 -84L98 -83L97 -84Q90 -82 84 -80L85 -77L84 -73L85 -70L84 -67V-65V-59V-55L83 -53V-51V-49V-48L82 -45L84 -43H86Q86 -45 97 -49L98 -50V-52H99V-53Q97 -54 97 -59Q95 -59 95 -66H96L102 -64Q104 -64 107 -60Q109 -60 118 -49L117 -47L119 -44L118 -34V-33Q112 -25 105 -25L103 -29L104 -31L101 -38V-40L100 -43Q99 -43 96 -41Q93 -41 91 -37Q89 -37 87 -33Q78 -26 76 -23Q75 -23 69 -16L61 -10L52 -2H51Q48 -2 42 -10Q42 -12 35 -18V-20Q35 -22 43 -23Q51 -29 55 -29Q58 -32 65 -34H67V-35Q71 -36 71 -37V-41Q71 -43 72 -45L71 -47V-48L72 -50L71 -51V-55V-57V-63V-64V-68L70 -70L71 -72L70 -74L62 -71H60V-70L61 -68Q55 -60 53 -59Q51 -59 48 -65Q45 -69 45 -72V-77L43 -83V-86Q41 -86 40 -91Q38 -92 35 -102Q33 -102 30 -110V-112Q31 -118 32 -118H34Q35 -118 40 -114Q42 -114 45 -113Q48 -113 50 -111H52L57 -114V-115L59 -114Q62 -117 70 -119V-120L69 -124V-125L71 -126L69 -128L70 -134Q69 -135 69 -145Q67 -145 65 -152L62 -155V-157L66 -163H69L77 -159H79H81Q82 -158 88 -158L91 -153L90 -147V-146Q90 -140 88 -140L89 -137V-133Q90 -131 90 -129L91 -128Q91 -129 95 -130Q95 -131 101 -133L106 -137H107Q112 -131 125 -131L129 -126V-125V-123V-121V-120Q125 -111 121 -111L117 -106Q117 -104 119 -104L123 -105L124 -104L147 -111Q155 -113 155 -115L156 -119V-124L157 -131H156L155 -132V-135H156V-140Q156 -148 156 -153V-155V-157V-158V-159Q156 -168 153 -168L150 -173V-174Q152 -180 156 -181Q156 -182 161 -183ZM86 -111L87 -104L86 -102L87 -94L86 -91L87 -90Q95 -90 95 -96L96 -100L95 -103V-104L98 -108L97 -110Q99 -112 99 -118L98 -119Q87 -117 87 -114Q87 -112 86 -111ZM60 -104Q61 -97 62 -97L61 -90V-87V-84Q61 -81 62 -81H66Q68 -81 70 -83V-85L71 -88L69 -93H70V-94L69 -97Q70 -100 71 -100H70V-101L71 -106L69 -107Q67 -107 64 -105ZM181 -51L179 -52Q173 -49 157 -45Q153 -42 145 -42V-41Q147 -41 147 -40V-38L148 -37V-36Q148 -35 146 -35V-34Q148 -34 148 -32L147 -28Q148 -24 148 -20L147 -19L148 -18V-14H151L153 -15L154 -14L163 -18L173 -20Q176 -21 179 -23Q181 -23 181 -24V-25Q181 -26 182 -31V-32L184 -42L183 -45L186 -47L185 -50V-51V-52Z"/>
</svg>