<svg xmlns="http://www.w3.org/2000/svg" viewBox="0 -256 256 256">
	<path fill="#000000" d="M132 -185Q134 -184 137 -180Q139 -180 146 -178Q150 -178 154 -171L148 -160L144 -152Q144 -150 141 -144Q136 -137 136 -135Q134 -130 129 -124L130 -123H132Q133 -125 139 -126L141 -129L142 -128L146 -131Q148 -131 159 -136H162Q170 -135 170 -134V-132V-131Q166 -121 160 -121Q159 -120 154 -119Q154 -117 149 -117Q139 -111 137 -111Q132 -113 127 -118Q125 -118 125 -114Q122 -114 114 -104L105 -99V-100Q105 -102 113 -109Q115 -113 115 -117Q117 -117 120 -124L122 -131Q125 -138 125 -145Q126 -145 127 -156L128 -159Q128 -172 123 -173H122L121 -174Q123 -180 127 -183ZM58 -169Q61 -164 64 -164Q69 -159 73 -159Q73 -157 74 -155Q73 -146 72 -146L73 -142V-136V-135L89 -144Q89 -146 91 -146H92L95 -143Q100 -141 100 -140Q104 -138 109 -137Q112 -135 112 -131H113Q113 -129 108 -125Q108 -123 105 -117Q105 -116 102 -114V-111Q102 -108 97 -107L92 -99Q95 -99 95 -96V-95Q95 -94 80 -91L77 -89H75L72 -86L73 -85L72 -83L73 -80Q72 -71 70 -66Q71 -60 72 -60H73Q77 -63 83 -65V-67L81 -72H82L79 -78V-79L80 -80H81Q81 -78 91 -75Q101 -68 101 -59L100 -58L102 -56Q101 -54 100 -54V-52V-50Q97 -45 97 -43Q96 -41 93 -41H91Q87 -44 87 -50V-51V-52L85 -58V-59H84Q84 -56 75 -52Q75 -51 55 -33Q44 -21 42 -21Q37 -21 32 -29L28 -31Q25 -31 25 -34Q26 -35 29 -35Q33 -39 36 -39Q36 -40 43 -43Q43 -44 48 -45Q49 -47 56 -50Q58 -51 58 -54L59 -56L58 -58L59 -67V-71Q59 -72 57 -75L58 -78Q57 -81 56 -81H55Q53 -79 48 -77V-74Q48 -72 43 -66H42Q38 -68 37 -71Q34 -71 34 -76Q29 -93 28 -99Q27 -99 24 -110L19 -115V-117L22 -123H25Q25 -122 33 -119L35 -117Q37 -120 40 -120Q44 -122 53 -127Q57 -127 57 -128Q57 -135 55 -140V-142V-149Q55 -156 52 -156L49 -161V-162Q54 -169 58 -169ZM72 -123L73 -118V-115V-102L72 -99H73Q82 -100 82 -104L84 -116L85 -128L86 -130H85Q72 -124 72 -123ZM45 -109V-108Q46 -106 46 -100Q46 -95 48 -91L47 -90Q47 -86 49 -86Q56 -91 59 -91V-92L58 -99L59 -108L58 -109L59 -111L58 -117Q55 -117 45 -109ZM213 -112L221 -108L226 -107Q230 -107 236 -103V-102Q236 -96 231 -91Q225 -81 222 -75Q221 -75 220 -71Q219 -71 217 -66Q220 -65 224 -62Q229 -60 229 -56Q229 -51 216 -51Q216 -50 206 -49L203 -48H201Q183 -46 183 -43Q183 -39 176 -33H174Q172 -33 171 -41L170 -45V-48L169 -50V-52Q169 -54 170 -54Q169 -73 168 -73V-75L169 -78Q168 -78 167 -86Q166 -86 166 -88V-90V-92Q157 -86 152 -85Q152 -84 144 -82Q144 -81 141 -80L140 -79V-73Q138 -73 136 -59V-58H139Q152 -54 154 -50Q160 -45 160 -39Q159 -29 150 -29H148Q145 -31 143 -40Q140 -47 140 -50Q138 -50 136 -56H135V-55V-54L136 -53Q133 -50 132 -45L128 -36Q123 -26 117 -22Q117 -19 102 -8Q89 1 88 1Q87 3 81 6L78 9H76Q75 9 75 7Q78 3 83 1L99 -11Q111 -25 112 -31Q113 -31 113 -33Q114 -33 116 -38Q122 -47 122 -52Q123 -52 123 -61Q124 -61 125 -66Q126 -66 127 -70H126Q122 -67 120 -67H119L114 -70Q114 -72 110 -72V-76L116 -78Q116 -79 118 -79Q119 -81 123 -81Q123 -82 128 -84V-90V-91V-95V-98L123 -103Q123 -105 125 -108Q141 -101 144 -101V-99V-97L143 -96L144 -94L142 -91L143 -90L158 -99Q162 -97 163 -95H165L163 -101H164H168Q168 -99 171 -99Q174 -95 176 -95Q179 -97 185 -98Q185 -99 191 -100L195 -103L197 -102L202 -104V-105H204V-104ZM183 -86H184L183 -79V-74V-70V-67V-59Q188 -59 192 -62Q195 -62 203 -64Q204 -76 205 -80L204 -82L205 -92L204 -93Q195 -91 183 -86Z"/>
</svg>