<svg xmlns="http://www.w3.org/2000/svg" viewBox="0 -256 256 256">
	<path fill="#000000" d="M141 -207H142Q146 -204 157 -201L163 -199Q169 -195 169 -192Q169 -190 165 -186L162 -176V-172L161 -169V-163L160 -158L161 -155L160 -151V-150V-146Q158 -137 157 -132Q156 -130 155 -130Q155 -127 156 -127Q158 -128 162 -135Q165 -135 175 -151L174 -158L175 -159H179Q182 -156 185 -152Q192 -149 192 -146Q193 -146 193 -142Q193 -139 181 -133Q181 -132 170 -126Q170 -124 165 -122L156 -115L154 -114Q154 -112 147 -109Q146 -106 143 -105Q143 -104 138 -102L135 -100Q131 -98 131 -96L125 -94V-93Q129 -93 131 -88V-87H134Q141 -88 146 -91Q153 -90 153 -88V-85Q153 -81 149 -79H142L139 -78L138 -79L130 -77Q121 -74 119 -74Q115 -72 113 -72Q110 -72 110 -71Q117 -69 120 -63Q121 -59 123 -59H129Q130 -57 133 -54H134Q140 -59 147 -69L150 -74Q152 -74 152 -78L154 -80L159 -79V-81Q165 -79 166 -78V-79H167Q168 -79 169 -75Q171 -75 171 -72Q171 -67 166 -66Q160 -63 157 -60Q155 -60 142 -51L140 -50Q140 -47 154 -39Q157 -35 162 -33Q168 -28 175 -27L187 -20Q189 -19 190 -18Q191 -16 197 -16Q197 -14 202 -14L203 -12H205L219 -8H223Q227 -8 227 -6V-5Q227 -4 225 -4H221Q210 0 207 0Q203 3 200 3Q200 4 194 6Q194 7 191 7Q191 9 189 9Q183 9 178 4Q176 4 175 2L174 3Q170 3 169 -2Q164 -2 157 -10Q150 -15 142 -27H141Q141 -23 130 -11Q129 -8 124 -1Q123 -1 123 2Q121 2 117 11Q117 12 115 14L113 20Q109 31 105 31Q103 30 102 24Q98 20 98 18V17Q100 11 101 -5L102 -12L101 -16L102 -20L101 -21L102 -29L101 -31L102 -33Q101 -37 101 -38H100Q97 -33 92 -29Q87 -23 81 -18Q64 -2 62 -2Q61 0 59 0Q52 7 42 13Q42 14 39 14Q39 16 32 19Q32 21 30 21L29 19V18Q34 13 41 9L48 3Q52 0 67 -15Q72 -18 84 -36Q84 -39 94 -48Q95 -52 98 -56Q98 -57 102 -63L104 -67L102 -68Q101 -68 97 -65Q96 -65 86 -60Q83 -60 82 -58Q79 -58 75 -55L70 -52L63 -56L62 -55Q60 -59 57 -59H56V-60Q56 -62 70 -65Q74 -67 80 -68Q82 -70 84 -70Q88 -72 94 -73Q94 -74 101 -75Q101 -77 110 -79Q110 -80 114 -81Q114 -83 110 -86Q108 -85 107 -85H105Q105 -83 101 -83Q101 -81 100 -81H97V-82L98 -84H100Q100 -86 105 -86Q105 -87 109 -88L102 -95V-97L103 -98Q109 -98 109 -96H112L115 -94Q117 -94 126 -100Q130 -102 132 -104Q133 -104 136 -108L141 -110V-111Q138 -112 138 -119L132 -129L123 -136V-137L125 -139L133 -135H136L138 -140Q138 -153 140 -153V-157L139 -163L140 -166L139 -170L140 -175V-178L141 -185Q139 -192 137 -192Q137 -193 133 -195V-197Q139 -202 139 -205ZM82 -188Q89 -185 92 -185Q92 -184 98 -183L102 -177V-174Q102 -167 98 -165Q93 -165 85 -171Q82 -171 80 -177Q79 -177 72 -184Q70 -184 70 -185V-186L71 -187ZM187 -176Q200 -176 205 -172Q211 -168 211 -161Q211 -158 200 -156Q189 -162 183 -167L175 -171L174 -173L175 -174H178Q185 -176 187 -176ZM113 -161H114Q115 -161 115 -157Q116 -156 120 -148L122 -140L119 -133L120 -132V-131L115 -125Q113 -122 110 -122Q105 -122 104 -132L105 -133V-135Q105 -137 106 -137V-140L108 -144Q108 -147 110 -149L109 -150Q110 -159 113 -161ZM59 -154L61 -153L69 -154Q72 -153 81 -148Q85 -148 85 -144L87 -143L86 -138V-137L81 -132H78Q76 -132 74 -134L72 -133Q70 -136 61 -142Q60 -142 52 -150Q52 -153 56 -153ZM102 -139H103L104 -138V-137L99 -130L96 -125Q96 -121 92 -119Q90 -111 87 -111V-110L88 -109L87 -106L88 -104V-100Q86 -95 86 -87L85 -85L86 -82Q85 -82 81 -78L79 -77Q75 -77 70 -84Q69 -89 69 -91Q67 -91 67 -95L65 -97V-99Q63 -99 62 -105L69 -104H70Q72 -104 85 -119Q91 -124 97 -133Q98 -133 102 -139ZM111 -41V-40V-37L112 -35L111 -32V-28V-26V-20V-15V-13V-11V-7H112L114 -8H116V-9V-10Q117 -10 128 -19Q129 -19 138 -27V-29Q138 -30 132 -39Q131 -41 130 -42H129Q128 -41 119 -34L117 -33Q115 -33 115 -36L122 -41Q123 -41 126 -45Q126 -48 118 -54H116Q112 -51 112 -48Z"/>
</svg>