<svg xmlns="http://www.w3.org/2000/svg" viewBox="0 -256 256 256">
	<path fill="#000000" d="M136 -188Q138 -186 147 -181L152 -179Q152 -178 155 -178L158 -175V-173L155 -167L156 -166Q156 -161 154 -159V-158V-156H156Q157 -157 161 -157H162Q163 -155 167 -155Q167 -153 169 -153V-152Q167 -150 166 -146Q159 -146 152 -142Q150 -142 149 -140V-139V-138Q148 -136 146 -126V-124Q147 -126 157 -129Q170 -126 170 -123V-122Q168 -117 163 -117Q163 -116 161 -116H158L157 -115H151Q147 -112 140 -109V-108H142Q148 -104 151 -100L152 -95L151 -93L152 -92Q154 -93 156 -95Q159 -93 163 -93Q165 -90 165 -89V-88Q164 -86 155 -83Q155 -82 150 -82Q148 -77 147 -63H146V-59H147L167 -65L169 -63H174L177 -59V-56Q174 -53 168 -53H167H162H160Q154 -51 149 -51Q149 -49 143 -49Q142 -47 131 -45L120 -41Q120 -40 115 -39Q107 -36 106 -34H105L95 -45Q95 -46 100 -46Q110 -50 115 -50L116 -51H118Q123 -54 128 -54L130 -56V-73H129V-74Q126 -72 123 -72Q123 -70 117 -69L116 -68Q112 -73 108 -76V-77Q108 -78 112 -78L119 -81H122Q126 -84 130 -84V-86V-93V-96V-97Q130 -103 129 -104Q126 -102 122 -101Q117 -97 115 -97L106 -107Q109 -110 114 -110Q114 -111 123 -114H125Q125 -117 130 -117L132 -118H131L132 -123V-132V-134H131Q131 -132 121 -127H120Q118 -131 113 -135L109 -139V-140Q109 -142 116 -144L127 -149H129L134 -151Q133 -153 132 -161L133 -163Q132 -175 127 -175Q124 -175 124 -179Q124 -183 136 -188ZM82 -186Q91 -183 96 -177V-175V-172Q87 -166 84 -166L82 -165L81 -166L80 -165H79Q77 -165 63 -171Q61 -171 59 -177L69 -181Q69 -182 72 -182ZM190 -185L195 -179Q198 -175 207 -174L211 -170V-165Q209 -162 209 -161V-156Q209 -152 207 -152V-148Q207 -146 205 -145L207 -144L206 -142L205 -121V-118V-115L204 -114V-108H205L216 -109H217L221 -111H222L233 -112Q235 -112 244 -104Q244 -102 245 -102L244 -99L245 -98V-97Q245 -95 243 -94H239Q233 -94 233 -96H231L226 -95L222 -96L208 -94V-95Q205 -94 205 -93V-81V-79V-76V-62L206 -59H205V-58L206 -49L205 -44L206 -32V-28V-27V-22V-21V-18Q206 4 194 12H193Q192 12 190 4V0L188 -7V-15V-19V-25L187 -38L188 -40L187 -41V-42L186 -45L187 -46V-49L188 -53L187 -58L188 -59L187 -62L188 -66L187 -69L188 -73L187 -76L188 -81L187 -90L188 -94L187 -96V-99Q186 -101 186 -108L187 -110L186 -115V-116V-117L187 -121L186 -124L187 -128L186 -131L187 -133L186 -136L187 -140Q187 -142 185 -145V-146Q186 -148 186 -153H185L184 -155L186 -158V-159L185 -161V-163Q184 -174 183 -174H182V-175L181 -174H177V-175V-176Q181 -185 190 -185ZM82 -158H83Q87 -153 91 -153L96 -151V-150Q97 -150 97 -149V-146V-144Q91 -140 88 -135Q88 -134 83 -127Q83 -123 80 -123V-122H81L82 -121Q82 -120 80 -120V-119L81 -118H87Q90 -117 93 -117L94 -116L95 -117L103 -113Q103 -111 105 -110V-104L102 -103Q102 -100 98 -99Q96 -103 93 -103Q93 -104 85 -108Q83 -108 83 -110Q81 -112 79 -112Q79 -106 76 -106L78 -104L77 -100L78 -99L77 -96V-95V-92Q85 -90 89 -88Q91 -88 96 -84Q97 -84 101 -80V-78Q99 -72 96 -72H95Q93 -72 86 -78Q86 -81 80 -85V-87H78L77 -79L78 -77V-76V-74L76 -72Q77 -72 78 -65V-59V-57V-56L77 -46Q78 -43 78 -39L77 -38L78 -31L77 -28L78 -27L77 -23V-20Q75 -18 75 -15Q73 -14 73 -10H71V-8Q69 -6 69 -3H68Q64 -3 62 -9Q60 -17 59 -21V-28Q62 -31 63 -50L62 -55L63 -63L62 -64L63 -66V-67Q63 -68 61 -70Q63 -72 63 -74V-78Q63 -80 61 -82V-83Q61 -86 62 -86Q61 -87 61 -90V-92H60Q60 -90 52 -84Q52 -82 49 -81Q49 -77 42 -71Q42 -69 36 -64Q34 -60 29 -58Q18 -46 12 -42H11L10 -43Q10 -45 20 -53L25 -59Q30 -63 34 -71Q35 -71 40 -78Q42 -78 42 -83Q44 -83 44 -86Q47 -89 50 -98L54 -100L53 -102V-103L56 -105L55 -108V-109Q58 -112 60 -117Q61 -117 64 -126V-127V-130H63Q63 -128 55 -125Q55 -123 51 -122Q50 -120 45 -117Q45 -116 42 -116H37Q34 -119 30 -119Q28 -119 19 -128Q19 -130 24 -130Q24 -131 28 -131Q29 -133 41 -135Q41 -136 47 -138Q47 -139 50 -139H51Q51 -140 60 -143Q60 -144 66 -145L68 -144Q68 -146 73 -148L74 -149L73 -151Q76 -151 82 -158Z"/>
</svg>