<svg xmlns="http://www.w3.org/2000/svg" viewBox="0 -256 256 256">
	<path fill="#000000" d="M87 -198Q94 -192 101 -191Q102 -191 103 -183L99 -176V-175H101L118 -183Q120 -183 125 -178V-176Q125 -175 120 -172Q120 -171 111 -169Q111 -167 101 -165Q96 -161 96 -157V-156L97 -152Q103 -152 108 -156Q111 -156 113 -158Q117 -160 121 -160Q123 -162 125 -162H126Q133 -160 133 -157Q133 -156 129 -155Q129 -154 114 -151Q113 -150 107 -149L98 -145H95L94 -143L95 -140Q94 -133 93 -133V-132L96 -129L98 -130Q100 -132 108 -134Q113 -139 116 -139Q120 -135 127 -133L129 -130V-129Q127 -123 122 -106Q121 -106 121 -104V-102Q121 -101 124 -101H125L133 -102H134Q142 -102 143 -95V-93Q143 -91 140 -89Q140 -87 137 -86Q133 -86 125 -93L120 -96Q118 -90 111 -82H108Q107 -82 105 -90L106 -92L99 -100V-101L100 -102H102L103 -100Q107 -100 108 -122L107 -123L108 -126H106L96 -122H95V-116L94 -99L95 -96L94 -94V-92V-87L93 -85V-78V-77Q93 -73 88 -69Q83 -71 83 -75V-81V-83V-86Q83 -99 81 -100L83 -103L81 -112L83 -116H81Q70 -116 69 -113Q72 -113 74 -110L73 -108L74 -105H73L74 -103V-101L72 -94V-90V-89Q72 -78 67 -75Q64 -75 61 -82L60 -106Q59 -106 58 -119V-120Q59 -121 61 -121Q62 -118 64 -118Q64 -120 75 -122L81 -125H83V-126L82 -128L83 -131V-139H82L61 -129Q57 -128 52 -123L51 -124Q41 -118 39 -118Q39 -116 35 -116Q30 -120 24 -121L21 -124V-126L22 -127L25 -126Q28 -126 34 -129Q37 -130 42 -130Q48 -132 48 -139Q49 -139 52 -152L53 -153V-154Q53 -159 54 -161V-162L55 -168Q51 -173 51 -175Q51 -178 58 -181L71 -170Q72 -170 74 -167L71 -163V-162L83 -165L84 -166L83 -170V-172V-176L84 -183Q84 -188 80 -191V-193Q83 -197 87 -198ZM171 -196H174Q178 -190 185 -189Q189 -188 189 -185L190 -184V-183Q188 -183 186 -167L187 -164Q185 -162 185 -156H184L185 -153V-143V-140L184 -139L185 -135V-125V-116Q182 -101 177 -97Q177 -94 168 -90Q166 -90 162 -101Q161 -104 156 -108L155 -110V-111L165 -108V-110V-111Q165 -118 167 -124V-126L166 -129L167 -131V-139V-142L166 -150L167 -156V-161V-165L168 -167L167 -170L168 -172Q168 -181 164 -190Q169 -196 171 -196ZM141 -164L153 -156L156 -151L155 -144V-138L153 -136L154 -134Q151 -119 149 -119L144 -115Q141 -117 139 -128V-129L140 -132L139 -135H140Q139 -138 139 -141V-149L137 -160V-161Q139 -164 141 -164ZM67 -158Q67 -156 57 -141Q55 -141 54 -136H56L73 -142L79 -145Q81 -145 83 -148Q82 -153 81 -153L78 -152Q77 -152 76 -154H75Q70 -158 67 -158ZM156 -87H159Q166 -86 166 -81Q165 -79 164 -79Q169 -73 175 -71Q175 -70 178 -69V-67V-63Q178 -61 173 -59Q161 -53 153 -45Q160 -40 163 -36Q166 -33 179 -26Q188 -21 197 -18Q210 -11 214 -11Q218 -8 221 -8H224Q225 -6 230 -6H232L234 -5Q234 -4 210 -2L192 3Q192 4 189 4H188Q186 4 170 -10Q165 -12 159 -20Q156 -20 147 -30Q145 -30 141 -36Q140 -36 139 -34H134L126 -29L124 -27H122H121Q123 -31 134 -39Q136 -41 136 -42Q134 -45 126 -51L125 -53Q125 -57 129 -57H132Q141 -54 144 -50Q147 -52 155 -62L158 -68L157 -69V-71L158 -72V-73Q157 -73 156 -75V-76V-77H153L129 -71Q124 -69 124 -68L128 -64V-62L115 -46V-45Q115 -44 116 -44H118L119 -43V-42L118 -41V-35L117 -31L118 -27L117 -23L118 -22L116 -18L117 -17V-14V-5H116L118 -4Q120 -8 125 -11Q129 -16 142 -27H143L144 -26Q144 -24 136 -15Q129 -5 114 19L110 22Q103 19 103 14L105 -9H106H105V-14L106 -17V-20V-24V-27V-28L107 -33L106 -35Q104 -32 89 -18Q68 2 64 4Q56 9 52 10Q47 14 39 18Q35 21 34 21L33 20V19Q34 17 44 11Q45 9 49 8L52 4L55 5Q55 3 66 -5Q78 -18 90 -32Q93 -34 100 -46L111 -63H110Q98 -58 91 -56Q91 -54 80 -50Q72 -54 64 -56V-58Q64 -59 77 -61Q77 -62 87 -64Q87 -66 94 -67L95 -68H98Q100 -71 102 -71V-70L133 -81L139 -82Q139 -83 148 -86H152Q154 -87 156 -87Z"/>
</svg>