<svg xmlns="http://www.w3.org/2000/svg" viewBox="0 -256 256 256">
	<path fill="#000000" d="M135 -193Q139 -192 141 -189L146 -188Q149 -188 153 -183V-182L150 -171H151Q163 -175 167 -178H169Q181 -175 181 -171Q181 -164 165 -160Q165 -159 160 -159Q160 -158 157 -158Q155 -156 152 -156L151 -155V-154Q151 -153 157 -152Q157 -151 162 -149Q166 -146 166 -145H168Q169 -145 178 -139Q201 -127 205 -127Q208 -125 212 -124Q217 -120 222 -120Q222 -119 226 -119Q228 -116 239 -115Q241 -115 241 -114V-113Q241 -112 236 -110L232 -111Q209 -104 206 -100H205Q204 -100 200 -103L194 -105Q192 -105 185 -112L179 -115L173 -120Q170 -122 170 -125H169H168V-122Q168 -119 159 -117Q156 -114 153 -113Q150 -110 145 -108L138 -103H135Q133 -104 129 -107L123 -112V-113Q123 -114 129 -116Q134 -118 141 -120Q141 -122 150 -124Q157 -126 161 -126H165Q165 -127 155 -135Q155 -138 141 -151Q140 -151 140 -149Q138 -149 134 -141Q134 -138 131 -135L128 -131Q128 -129 121 -119Q121 -118 114 -109Q114 -108 105 -101Q104 -97 93 -90L88 -86H87V-87Q87 -89 93 -93Q93 -95 97 -99Q102 -104 103 -108Q105 -112 107 -114Q107 -116 113 -123L118 -134Q119 -138 120 -139V-140H118Q115 -144 105 -153V-154Q105 -155 115 -158Q120 -160 123 -162Q129 -162 129 -167L130 -169V-179Q128 -185 127 -186V-187Q132 -193 135 -193ZM63 -180Q69 -180 76 -177L78 -178Q81 -176 87 -176Q91 -172 92 -167L91 -165L92 -164Q85 -152 85 -150L87 -149L94 -152Q100 -152 102 -147V-146Q102 -143 91 -140L84 -137Q78 -135 77 -134H76L75 -135Q74 -133 67 -132Q65 -130 60 -130Q57 -126 54 -126Q54 -125 50 -125Q50 -122 44 -122Q43 -119 36 -117Q35 -116 33 -115Q30 -115 24 -120L15 -126Q15 -127 27 -131L33 -133L42 -135H43Q43 -136 57 -139L65 -142V-144V-146V-148V-151V-156Q62 -167 60 -167Q60 -169 56 -172V-175V-176Q58 -180 63 -180ZM81 -120Q85 -120 86 -114Q86 -108 77 -107Q70 -104 66 -104Q64 -101 61 -101H60Q59 -99 58 -99Q50 -104 48 -104V-105Q51 -108 55 -108L60 -111L68 -116Q70 -116 74 -119Q77 -120 81 -120ZM184 -106L188 -103L189 -101Q189 -97 179 -97L170 -94H168L164 -93H162Q159 -91 155 -91Q149 -87 144 -86L147 -82V-79Q144 -73 143 -64L142 -63V-62H143H144H146Q149 -64 154 -64Q154 -65 165 -69Q168 -72 171 -72Q171 -70 176 -69Q179 -66 182 -66L186 -63Q187 -61 187 -59Q185 -50 183 -46L184 -45L180 -24L179 -23H180L177 -9Q175 0 162 12L157 13Q156 13 152 17H151L150 15Q150 12 151 12H150V9Q150 5 146 -5Q146 -7 141 -11L137 -14L138 -15L153 -9L156 -8Q156 -11 158 -13L162 -21Q166 -40 166 -51H167L166 -52L167 -59H166L155 -56L154 -55H150Q142 -53 136 -48Q129 -43 127 -43H125Q124 -44 124 -46V-49Q124 -52 130 -63Q132 -72 135 -77L136 -80H135L133 -81Q130 -78 126 -77Q124 -75 120 -75L118 -73H116L111 -76Q109 -76 105 -81V-83Q105 -85 110 -85L112 -86H113V-87V-86Q119 -86 131 -90Q140 -94 142 -94L146 -95H147Q154 -99 159 -99L178 -104Q178 -106 184 -106ZM85 -103Q92 -99 92 -94Q91 -92 82 -91Q81 -90 76 -89Q76 -88 73 -88L61 -81L57 -78H55L50 -82L49 -81L47 -82V-83Q50 -86 54 -86Q67 -95 77 -98Q83 -103 85 -103ZM85 -79H86H88Q102 -75 102 -71L96 -59L90 -47Q92 -47 95 -43Q94 -38 92 -38H90Q87 -38 83 -36L79 -37Q78 -35 76 -35H75Q69 -32 67 -32Q66 -31 60 -29L58 -27H57V-28H56V-27L57 -24V-19L56 -17V-15Q51 -8 49 -8Q45 -8 45 -12Q42 -16 41 -24L38 -31H39Q38 -38 34 -46H35Q35 -49 27 -60Q30 -63 32 -63Q34 -63 38 -60V-61H39L43 -59H44L45 -60L47 -59L60 -66Q60 -67 65 -69Q69 -69 85 -79ZM51 -52Q51 -48 54 -45L56 -38V-37Q66 -39 67 -41L73 -43H75L77 -57L75 -61Q70 -61 59 -56Q59 -54 55 -54Z"/>
</svg>