<svg xmlns="http://www.w3.org/2000/svg" viewBox="0 -256 256 256">
	<path fill="#000000" d="M163 -205Q166 -202 171 -199Q173 -198 181 -195L185 -189V-185Q181 -179 178 -179L157 -158Q155 -158 153 -152Q152 -152 152 -151L160 -154L163 -156L170 -160Q180 -165 184 -166Q184 -167 193 -167Q201 -166 201 -161V-160Q201 -155 190 -153Q190 -152 180 -149Q180 -148 175 -146Q171 -145 171 -143Q175 -137 179 -137L180 -134Q180 -132 175 -126L174 -124V-122Q174 -120 185 -120Q197 -114 197 -107Q196 -99 189 -99Q185 -99 179 -103L166 -108L159 -111Q155 -105 143 -97Q140 -97 137 -93V-92Q143 -92 145 -87V-86L143 -83L144 -81Q150 -81 157 -85L164 -86Q177 -88 177 -90Q180 -90 190 -94Q206 -90 206 -88Q208 -88 211 -83V-82Q209 -78 205 -78Q202 -78 200 -80L197 -79L195 -80L194 -79L192 -81L189 -80L188 -81L179 -78L177 -79Q174 -77 160 -74Q160 -73 152 -72Q152 -71 147 -71Q140 -68 130 -67Q130 -65 121 -65Q117 -63 104 -60Q102 -58 98 -58Q98 -56 90 -56Q76 -47 58 -41L50 -46Q45 -49 44 -50V-51Q44 -53 59 -56Q70 -59 72 -60H75L101 -68V-69Q100 -78 98 -81L92 -88V-89L94 -90Q100 -89 100 -88Q104 -88 104 -90Q104 -93 106 -100V-102L107 -106L106 -108Q107 -109 108 -115L107 -116L108 -123L107 -127H106L103 -125L102 -126H101Q101 -123 92 -122Q91 -120 89 -120L83 -124L76 -118Q75 -118 71 -114Q70 -114 67 -111Q63 -108 63 -106H64Q86 -116 88 -118H89Q92 -118 92 -115Q96 -115 101 -109Q100 -108 93 -104L94 -103Q94 -101 91 -100L90 -96L92 -95Q92 -92 88 -90H85Q83 -90 72 -84Q70 -84 69 -81Q65 -78 63 -78Q59 -81 56 -94Q54 -101 51 -103Q51 -104 48 -108Q48 -113 50 -113Q52 -113 55 -111L59 -109H60Q68 -117 70 -122Q72 -123 75 -131L76 -132V-133L74 -136L76 -139L74 -144V-146H73Q67 -142 61 -136H60Q57 -142 52 -143Q49 -144 49 -148L65 -154Q69 -154 70 -156Q68 -158 68 -164Q67 -164 66 -170Q62 -172 62 -176Q57 -177 57 -181Q58 -186 64 -186Q70 -181 80 -180Q84 -176 84 -173V-167V-163L83 -162Q85 -162 85 -158V-155V-150L83 -142Q83 -141 90 -137Q90 -138 94 -142L96 -155L100 -165V-166L102 -173V-176Q102 -183 103 -185Q102 -190 98 -192V-193Q103 -200 108 -200Q110 -200 113 -197L121 -194Q130 -190 130 -186V-185L126 -178V-177L128 -176L130 -177Q137 -174 138 -174L139 -170Q136 -164 131 -164L130 -163H129L128 -164Q127 -162 119 -160Q114 -158 114 -154Q112 -153 110 -149Q109 -149 106 -144Q104 -144 103 -142Q101 -142 98 -139Q93 -139 90 -131L87 -129V-128H88V-127Q98 -134 103 -136L114 -142H115L126 -134L128 -132Q137 -142 147 -162Q150 -167 152 -172Q159 -185 160 -192V-193Q158 -197 156 -200Q156 -202 163 -205ZM130 -129H127Q125 -125 121 -105V-104V-101L120 -97V-95L121 -94Q123 -94 125 -96H127L132 -94Q138 -95 147 -111L148 -113V-114Q147 -114 140 -119Q138 -119 138 -121V-122L139 -123L141 -122L152 -124H156Q157 -124 161 -134Q162 -138 164 -142H162L158 -139H157Q156 -139 155 -142Q152 -142 150 -145Q148 -145 147 -147Q141 -142 130 -129ZM69 -100L71 -99V-98L70 -92L71 -90H72Q73 -92 77 -93Q80 -95 82 -105Q81 -107 80 -107Q76 -104 71 -104ZM117 -87L118 -85Q117 -82 112 -76Q112 -75 110 -73V-71H112Q121 -74 125 -74L126 -76V-77L124 -84Q123 -84 121 -90H120ZM150 -64Q156 -60 156 -58Q156 -54 143 -50H141Q135 -47 126 -44L121 -41Q117 -42 113 -47V-48Q113 -49 119 -51Q119 -52 128 -55Q128 -56 134 -59V-58Q136 -58 144 -63H146V-62ZM152 -46Q155 -46 159 -43V-40Q155 -35 140 -33Q140 -32 134 -30L126 -26Q123 -26 121 -24Q119 -26 119 -27H116Q113 -27 113 -29V-30Q113 -31 126 -36Q134 -40 137 -41Q149 -46 152 -46ZM161 -30H163Q166 -26 171 -26Q182 -22 182 -16Q176 -12 170 -5L165 1V2Q170 7 170 9Q167 13 162 13H158Q149 13 127 19Q126 24 121 29H120L112 18Q111 16 111 13V10Q106 2 104 -7Q103 -7 100 -14V-16L103 -18Q111 -17 111 -14Q114 -13 116 -11Q116 -14 121 -14H122Q122 -15 137 -19Q143 -23 148 -23Q158 -27 161 -30ZM143 -12L141 -14L139 -11L137 -12Q137 -9 127 -7V-8H126L125 -7V-6L126 -5V-2L127 1L126 3V8L128 9L145 4L147 5L150 2L153 -14V-15Q148 -15 143 -12Z"/>
</svg>