<svg xmlns="http://www.w3.org/2000/svg" viewBox="0 -256 256 256">
	<path fill="#000000" d="M95 -199H96Q110 -194 113 -192L112 -186V-185Q110 -182 110 -177Q109 -177 109 -173V-172V-170V-164Q109 -163 110 -163L115 -164H117Q117 -166 127 -168L131 -166Q135 -165 135 -162Q135 -158 123 -157Q123 -156 117 -155L116 -154H112L107 -152Q105 -152 104 -146L105 -142L104 -140V-139Q109 -140 139 -148L142 -149Q145 -151 148 -151H150Q153 -151 160 -147Q165 -147 165 -143Q165 -139 162 -137H161L152 -138L148 -137L145 -139L142 -137H141L139 -138L127 -135H126Q132 -130 135 -126Q148 -113 155 -110Q161 -105 161 -104H164Q167 -100 169 -100L172 -98Q174 -98 177 -95Q181 -94 183 -91V-92H184Q188 -89 191 -89Q192 -86 199 -84Q206 -80 221 -74L231 -72Q233 -72 233 -71Q233 -69 225 -68L218 -69Q212 -69 210 -67H209H207L190 -61V-60H186Q181 -65 172 -70Q172 -72 168 -72Q165 -77 158 -80L156 -82H154V-81L155 -80V-78Q154 -76 145 -72Q136 -66 131 -65Q131 -64 124 -61L117 -57V-56L118 -50H122L136 -47H137L140 -46H141Q148 -43 154 -42Q159 -42 163 -37Q167 -35 172 -27L173 -22Q172 -13 168 -13Q167 -11 166 -11Q155 -21 154 -21Q151 -26 146 -27V-28V-29Q146 -30 139 -35L134 -38L131 -41L122 -46L121 -45V-44L122 -42V-33L121 -31L122 -27L116 -2L114 1L113 7Q113 9 111 10Q109 15 100 24H98L97 23L98 20Q98 12 85 0L86 -1L97 2L99 1V0Q102 -9 103 -16V-18Q104 -25 104 -27V-30V-32V-33V-35L86 -15Q86 -14 82 -13Q77 -6 65 1Q64 2 60 4L54 9H53H52H51V8Q62 0 71 -9L85 -25Q98 -43 103 -55L100 -60Q99 -58 87 -45L82 -40L62 -26L61 -27V-28Q76 -41 76 -43Q80 -45 86 -56Q86 -58 91 -65Q91 -68 93 -69V-70L91 -72H90Q89 -68 79 -64Q79 -63 65 -56Q64 -56 62 -54H61L60 -55V-56Q62 -59 69 -62Q93 -81 96 -91L95 -93L92 -92L86 -98H85Q85 -96 75 -85Q54 -60 42 -54Q29 -43 25 -42L23 -44V-45Q28 -47 39 -58L52 -72L59 -78Q68 -95 69 -96Q77 -108 77 -109Q78 -109 78 -112Q79 -112 80 -117Q81 -117 83 -122L84 -123V-124H83Q81 -122 77 -122Q77 -120 65 -117Q57 -112 52 -112Q45 -115 39 -119V-120Q39 -122 49 -124H50H53Q53 -126 70 -128Q70 -129 77 -131Q77 -132 84 -132Q86 -133 90 -144L89 -145L86 -144Q77 -150 77 -153L91 -158H92L94 -171V-174V-185L92 -188Q89 -191 89 -193Q89 -196 95 -199ZM147 -195Q158 -193 158 -189Q163 -184 163 -182Q163 -178 158 -178L157 -177H155L152 -176L146 -177L145 -176L128 -186Q125 -186 123 -189Q123 -190 136 -193L137 -194H141Q145 -195 147 -195ZM73 -190H74Q81 -184 85 -184Q85 -183 88 -182Q90 -180 90 -175Q90 -171 84 -171Q84 -169 73 -165Q73 -164 66 -161Q60 -154 55 -154Q52 -152 50 -152L49 -153Q67 -170 69 -180L67 -185V-186Q68 -187 73 -190ZM88 -103Q88 -102 89 -102Q93 -104 100 -105Q109 -107 114 -109L124 -112Q128 -109 128 -106Q123 -102 113 -100Q111 -98 108 -97L105 -98L104 -97Q104 -96 108 -94Q108 -93 112 -89V-88Q112 -87 106 -83L95 -75Q95 -74 99 -73Q99 -72 106 -71L112 -67Q112 -65 116 -61H118Q118 -62 127 -72L134 -83V-86Q132 -86 132 -87V-90Q132 -91 138 -92L140 -93L149 -87Q149 -90 142 -95Q142 -96 136 -101Q136 -102 134 -104Q134 -107 128 -110Q127 -113 122 -118Q122 -120 116 -126L114 -129Q113 -132 112 -132L109 -131L107 -132Q102 -131 100 -128Q100 -123 91 -108Q90 -105 88 -103Z"/>
</svg>