<svg xmlns="http://www.w3.org/2000/svg" viewBox="0 -256 256 256">
	<path fill="#000000" d="M175 -194H177Q181 -189 191 -184Q191 -183 195 -182Q198 -178 198 -176Q197 -173 185 -166L174 -158H170L171 -155Q171 -152 167 -152V-151V-150L180 -154Q188 -154 190 -152L191 -153Q199 -151 199 -148Q199 -144 191 -143H188H187H185L171 -140H168Q165 -138 162 -138Q162 -137 156 -136L158 -135H160Q165 -134 167 -132Q169 -132 169 -131V-128H171H173Q175 -128 180 -126Q182 -126 183 -123Q183 -121 169 -117L166 -116H165V-115L166 -114V-113Q165 -111 164 -99L165 -98H166Q170 -98 173 -100L174 -99Q178 -100 180 -102L182 -101L199 -104Q205 -104 207 -102Q210 -102 212 -100Q215 -99 215 -96V-95Q215 -92 206 -92H205H203Q201 -92 201 -93L184 -91L182 -92L174 -91H173L171 -90H165Q164 -89 158 -88H156Q151 -87 151 -86V-85Q151 -83 155 -82Q157 -81 157 -79V-78Q149 -68 149 -64Q148 -64 140 -50Q136 -43 127 -31Q124 -28 121 -26Q121 -24 118 -21Q118 -19 114 -16Q111 -9 91 9L76 18V15Q85 8 87 4Q88 4 93 -2Q93 -4 101 -11Q101 -14 106 -19Q107 -19 112 -29L113 -31Q115 -31 115 -33Q121 -41 122 -44Q123 -44 123 -47L128 -52L127 -55Q127 -56 130 -57V-61Q132 -63 133 -65Q133 -68 136 -68L135 -69Q138 -76 138 -78Q139 -78 140 -82L143 -83V-84H141L140 -83H139L138 -84L118 -76L117 -77Q110 -74 110 -72Q105 -72 105 -76Q102 -76 102 -80Q98 -77 88 -75L84 -72V-71Q84 -67 83 -65V-62V-61L84 -57Q82 -50 82 -47L83 -46Q83 -47 88 -47Q88 -49 97 -51H98V-48Q93 -44 90 -42Q90 -41 87 -41Q87 -38 81 -36Q76 -33 73 -29Q49 -16 48 -16Q37 -7 34 -7H33L31 -9V-10L30 -21Q31 -29 38 -29V-30V-31V-34Q36 -53 34 -53L35 -54V-56Q35 -60 29 -71V-72L30 -73H31Q33 -70 47 -65L50 -61V-52H49L50 -51V-49V-45V-40V-38L49 -37V-35L50 -34L53 -35H54L63 -38Q64 -40 64 -43H65L64 -49V-50L65 -53L64 -54V-59V-64V-67L63 -69V-88V-94Q63 -96 61 -98Q61 -102 58 -104L57 -108Q56 -108 55 -104H53Q52 -104 51 -110Q49 -110 47 -119Q46 -120 44 -128Q42 -133 41 -140Q41 -142 35 -152L33 -155V-156Q33 -160 35 -162H38Q39 -160 42 -160Q49 -155 50 -154H51L53 -156L55 -155Q56 -155 67 -160H68L70 -159Q70 -161 78 -162H79V-163Q79 -167 83 -168Q87 -173 90 -173Q97 -167 107 -167Q112 -163 114 -160Q110 -157 107 -151Q106 -151 104 -146Q103 -146 102 -143H101L100 -144L99 -143H100V-142Q100 -138 96 -134V-133Q97 -130 98 -130H100L101 -129V-128Q95 -120 87 -120Q83 -117 78 -117Q75 -115 69 -113L62 -111V-110L64 -108H65H66Q68 -107 72 -107L74 -105H79Q81 -105 83 -102V-100V-99L84 -97L83 -93V-90V-89V-87V-85L94 -90Q100 -88 102 -86V-81H103Q104 -83 108 -83L114 -85V-84Q118 -85 123 -87V-86H124Q130 -89 136 -89Q137 -91 146 -93L145 -95L146 -97L145 -100L147 -103Q146 -103 145 -104L146 -106V-108Q142 -108 135 -101H134Q131 -103 131 -106L128 -108Q128 -112 134 -113Q137 -113 140 -116Q144 -116 147 -119V-125L148 -129L147 -132H148L147 -133H146Q144 -131 139 -129Q135 -126 130 -126V-127Q130 -123 125 -123L122 -126Q119 -126 119 -129Q117 -129 117 -130V-132Q117 -133 128 -135Q134 -138 137 -138Q138 -140 147 -142Q151 -144 151 -146Q157 -156 159 -156V-159Q163 -162 163 -165Q167 -170 170 -180V-183V-188L168 -190Q168 -191 175 -194ZM123 -176H126Q131 -175 135 -174Q135 -173 142 -171L148 -167V-165Q148 -155 144 -153L141 -150Q136 -150 135 -154Q132 -154 132 -160L127 -166V-168Q125 -168 124 -172Q122 -173 122 -176ZM71 -152H70Q66 -149 57 -146L56 -144V-143L57 -140V-138L58 -128V-125V-124H59Q66 -125 73 -128Q76 -128 81 -131L83 -129V-130V-132Q82 -132 82 -133V-135H83L84 -136L83 -138Q83 -140 84 -141L83 -150V-153L80 -154H78ZM181 -68H190Q195 -65 195 -60Q193 -60 190 -56L182 -55H180Q180 -54 171 -53H170H168V-52Q168 -51 170 -51H171Q172 -51 178 -47Q180 -47 181 -43V-42Q177 -34 172 -24V-23Q176 -25 179 -25H181L184 -24L206 -27Q206 -28 209 -28H212Q216 -25 221 -24Q227 -20 227 -16L223 -13L222 -14L216 -12H215L209 -13H206Q196 -14 194 -15H192H178L171 -14H169L167 -13L164 -14Q146 -10 137 -8L133 -6Q128 -6 126 -4H125Q122 -5 120 -10L118 -13L120 -15H125Q129 -15 144 -19H151H153H154L156 -18V-19V-22Q157 -27 159 -30V-35L160 -37V-38L161 -44L160 -47V-49H159L157 -47H155L150 -51Q146 -56 146 -57V-58Q146 -60 164 -63Q164 -64 175 -65Q175 -66 181 -68Z"/>
</svg>