<svg xmlns="http://www.w3.org/2000/svg" viewBox="0 -256 256 256">
	<path fill="#000000" d="M190 -194H192Q193 -190 201 -188Q204 -185 213 -185L218 -177Q216 -176 216 -172Q205 -161 205 -158Q205 -155 202 -152L203 -151V-149Q203 -145 199 -140H198L199 -138Q199 -136 197 -135L198 -133V-131L194 -122Q191 -122 191 -121L193 -119Q189 -116 186 -113L184 -112H182Q180 -112 178 -114V-118Q178 -121 179 -121Q178 -123 178 -126L180 -127Q178 -127 178 -129L179 -131L178 -132L175 -129H173L171 -130L164 -126H163H160Q154 -123 152 -123H150V-120Q148 -112 145 -112V-110Q145 -109 141 -109L140 -108L141 -107V-106L140 -105H137Q135 -105 135 -113L134 -115V-120V-121L132 -127V-132L131 -134V-135L132 -136Q130 -137 129 -147L128 -151L127 -152L128 -153Q125 -156 125 -160L121 -164H120Q120 -162 122 -162V-161Q118 -158 115 -153Q114 -152 112 -147Q107 -142 107 -140Q107 -138 104 -135Q105 -131 106 -131H108L109 -130Q103 -121 95 -121Q91 -118 86 -118Q83 -116 77 -114L70 -113V-112L72 -109H73L74 -110Q76 -108 80 -108L82 -107H87Q89 -107 91 -103V-102V-100L92 -98L91 -95V-91V-90V-88V-86L102 -92Q111 -88 111 -85Q110 -80 107 -80H105Q105 -78 104 -78H101Q101 -77 97 -77Q97 -76 92 -74V-72Q92 -68 91 -66V-63L92 -58Q90 -51 90 -48L91 -47Q91 -48 96 -49Q96 -50 106 -53L107 -54H111V-53Q109 -53 109 -50Q104 -49 101 -45Q100 -45 96 -42Q94 -42 93 -39Q83 -35 82 -32L63 -20Q58 -19 49 -12L43 -8H41L39 -10V-12L38 -22Q39 -30 46 -30V-31V-32V-35Q44 -54 42 -54L43 -56V-58Q43 -62 37 -72V-74L38 -75H39Q41 -71 55 -67L58 -62V-53H57H58V-50V-46V-41V-40L57 -38V-36L58 -35L61 -36H62L71 -40Q72 -41 72 -44V-45H73L72 -50V-52L73 -54L72 -56V-60V-65V-68L71 -70V-90V-95Q71 -98 69 -99Q69 -104 66 -106L65 -109Q64 -109 63 -105H61Q60 -105 59 -111Q57 -111 55 -121Q54 -121 52 -129Q50 -134 49 -142Q49 -143 43 -153L41 -157V-158Q41 -161 43 -163H46Q47 -161 50 -161Q57 -157 58 -155H59L61 -157H63Q64 -157 75 -161H76H78Q78 -162 86 -164L87 -163V-165Q87 -167 91 -169Q93 -172 96 -174H99Q104 -168 115 -168L119 -165H120L118 -168Q118 -169 121 -170Q123 -170 128 -168Q144 -172 145 -174H148L162 -180Q168 -180 183 -189Q188 -194 190 -194ZM172 -174Q170 -171 161 -171H159Q158 -169 156 -169H155H153Q149 -167 146 -167L141 -165H138V-164Q138 -163 143 -162Q143 -161 146 -161L148 -155V-153Q156 -153 159 -157H163Q165 -159 169 -159Q172 -159 175 -155Q175 -150 165 -149L161 -148L159 -147H155Q152 -147 150 -144L149 -145V-142L150 -141V-140V-131H151Q160 -133 170 -137L176 -135Q178 -135 180 -139V-141L181 -142V-150L183 -168L182 -170L183 -172V-173H180L176 -172ZM79 -153H78Q74 -150 65 -148L64 -146V-144L65 -141V-140L66 -130V-126V-125H67Q74 -126 81 -129Q84 -129 89 -132L90 -131L91 -133Q90 -133 90 -134V-136Q90 -137 91 -137H92V-138L91 -139V-140Q91 -141 92 -143L91 -152V-154V-155H88H86ZM191 -113Q195 -109 198 -109Q202 -109 208 -101V-99Q206 -84 206 -77V-47L205 -43L206 -39V-17Q204 -13 202 -5Q200 -5 200 0Q199 0 199 4Q198 4 194 10Q190 18 187 18Q186 16 186 13V9Q185 -2 179 -11Q177 -11 175 -16Q169 -18 169 -22L170 -23Q180 -18 181 -17L186 -15H187Q188 -25 189 -25V-29L190 -36L189 -37L190 -39L188 -58L189 -60L188 -64V-65L189 -68L188 -74V-75V-80L187 -94L188 -97H187L185 -95H184V-96H183Q183 -95 178 -95Q178 -93 170 -93Q168 -91 163 -90Q163 -92 158 -94L156 -95V-97L158 -98H159Q164 -100 169 -101Q169 -102 177 -104Q180 -104 187 -110Q187 -112 191 -113ZM141 -98H143Q154 -91 154 -90V-87L152 -86V-85L153 -83Q152 -81 152 -79Q150 -75 150 -74L151 -72V-64Q149 -61 149 -55Q150 -55 151 -47L150 -45L151 -41V-39V-37V-34V-32V-28V-27L152 -24Q150 -12 148 -8L147 -4Q145 -4 144 1Q141 7 140 7L138 9H137Q136 9 135 4V-1Q135 -9 129 -16Q127 -16 127 -19V-20V-21H128L130 -19Q132 -19 134 -17L136 -19V-21V-29V-32V-34V-35V-39Q131 -38 127 -33Q123 -33 114 -20Q113 -20 108 -31Q107 -31 107 -34Q110 -37 118 -37L127 -41Q132 -41 136 -45L135 -48Q136 -48 137 -54L136 -55L137 -57L136 -69V-74V-81Q136 -83 135 -83L127 -81Q124 -81 121 -85V-86L122 -87H123H125Q125 -89 135 -94Q137 -94 141 -98ZM178 -76Q178 -74 182 -73L183 -72Q183 -68 180 -66H177L174 -67Q172 -67 172 -65Q170 -63 169 -63L168 -64L163 -63Q157 -66 157 -70Q160 -72 163 -72L166 -71Q166 -73 178 -76ZM121 -67H123Q124 -65 132 -61L133 -58V-57Q133 -55 128 -50H127Q123 -55 123 -61Q121 -61 120 -65V-66ZM180 -51Q182 -51 183 -46Q183 -41 174 -40L170 -41Q164 -38 162 -38H161Q156 -41 156 -43Q156 -45 164 -46H165Q165 -48 173 -49Q173 -50 180 -51Z"/>
</svg>