<svg xmlns="http://www.w3.org/2000/svg" viewBox="0 -256 256 256">
	<path fill="#000000" d="M60 -174Q80 -168 80 -160V-159Q80 -156 73 -150H72Q65 -153 59 -160Q56 -164 48 -169V-170Q53 -174 60 -174ZM162 -172Q175 -166 175 -162Q174 -158 170 -153Q164 -145 155 -122Q154 -122 152 -117L144 -108Q138 -104 138 -103H139Q143 -103 147 -105L151 -104Q153 -106 157 -108Q157 -109 165 -112L166 -113H168Q182 -103 182 -101L183 -98Q182 -94 175 -85L166 -68Q173 -67 173 -62Q172 -54 168 -54H164L160 -55L157 -54Q157 -55 156 -55H154Q154 -56 151 -56L147 -54L146 -55Q128 -54 120 -52L121 -50Q120 -47 116 -39H113Q109 -39 107 -44L108 -45Q106 -50 105 -58L104 -59L105 -61L102 -73Q101 -81 100 -84V-85L99 -90V-94Q98 -94 97 -99H96Q94 -99 88 -92L79 -85L66 -76L65 -77V-78Q65 -79 71 -83Q71 -84 77 -88Q77 -90 91 -107Q91 -108 96 -114Q96 -116 98 -118L103 -126Q103 -128 108 -135V-137L111 -142Q111 -144 109 -144L102 -142L101 -141H96L86 -149Q86 -150 92 -152H94L103 -155Q107 -155 109 -158L111 -157Q120 -158 123 -161H127H129L132 -162H134Q143 -164 143 -165L144 -166L145 -164Q154 -164 154 -169L155 -170L156 -169Q158 -172 162 -172ZM118 -146Q124 -141 126 -137Q126 -136 119 -130Q119 -128 111 -120Q110 -116 99 -104H98V-103Q98 -101 105 -99Q108 -95 110 -95L111 -96L115 -95Q116 -98 123 -98Q123 -99 128 -99H132L133 -101L132 -104V-108V-110V-112L131 -115V-117H132L126 -128V-129H127L137 -121H138Q138 -122 139 -122V-125Q140 -126 140 -128Q143 -129 143 -130V-132Q146 -145 149 -149L148 -151Q149 -151 151 -155L152 -156L150 -158H149Q148 -157 142 -156Q142 -155 137 -154Q137 -153 126 -150Q118 -148 118 -146ZM39 -138L42 -137L44 -138L45 -137H48H49Q59 -136 59 -133Q61 -131 63 -128V-126Q63 -123 56 -118H55Q53 -118 48 -122Q45 -122 42 -125L32 -131L30 -132V-133Q30 -134 35 -135Q36 -138 39 -138ZM116 -89V-90L115 -87Q118 -85 118 -83V-80Q118 -70 120 -62L127 -64L128 -63Q133 -65 146 -67Q146 -68 148 -68L152 -67L154 -72L153 -73L155 -80L154 -83L156 -85V-89V-94V-96L157 -99H156H155H153Q151 -97 143 -96Q143 -95 138 -95Q138 -94 131 -93Q131 -92 127 -92Q122 -89 116 -89ZM47 -98H49Q49 -96 54 -96Q54 -95 59 -94Q63 -91 63 -89V-86Q57 -80 57 -76V-72Q57 -68 65 -63L67 -57L65 -46Q63 -46 63 -42H64Q65 -44 67 -44H68L83 -41L89 -40Q95 -36 106 -34Q108 -34 109 -33H111L116 -32H121L128 -31H135Q142 -29 147 -29H148L156 -28L158 -29Q159 -27 161 -27H166H172H175H179H185L188 -26L190 -27H196L211 -29H213H220H223Q225 -29 225 -28V-27Q224 -26 217 -24Q212 -21 207 -20Q196 -16 179 -2Q175 -2 163 -6Q158 -8 147 -8Q147 -9 143 -9Q136 -11 132 -12Q132 -13 126 -14Q126 -15 118 -17Q118 -18 114 -18L110 -21H107Q104 -23 92 -27Q90 -29 79 -31L76 -30Q75 -32 73 -32H63L59 -30Q51 -30 48 -25L45 -23H43Q37 -27 37 -33Q36 -33 36 -37L39 -45H42Q44 -42 45 -42H48H52H59V-43Q59 -47 55 -54Q55 -57 47 -64H46V-65L47 -68L46 -69L47 -71Q43 -82 39 -82Q38 -82 38 -84H32L30 -86V-87Q30 -89 38 -90Z"/>
</svg>