<svg xmlns="http://www.w3.org/2000/svg" viewBox="0 -256 256 256">
	<path fill="#000000" d="M138 -178Q143 -178 150 -174Q156 -174 160 -169V-167Q160 -166 154 -157V-153Q154 -145 153 -145H154V-142Q154 -139 153 -137V-136L152 -133V-129L153 -127L152 -122V-121L151 -118L152 -115L151 -112Q153 -110 155 -110Q159 -117 163 -121Q165 -121 165 -124Q167 -126 167 -129Q169 -130 171 -137Q174 -138 175 -142H178H180V-143Q180 -144 178 -144V-145Q181 -149 181 -152L182 -153L181 -154L182 -157L181 -162Q182 -163 187 -167H190Q192 -164 196 -159H198L199 -158H201Q203 -156 207 -155L211 -149H212Q212 -142 205 -140Q202 -140 194 -131Q191 -130 178 -117L156 -102Q154 -100 152 -100L151 -101V-99V-94V-93H150L151 -89Q151 -87 150 -87L151 -81V-78L150 -76L151 -73Q150 -72 150 -70V-67L151 -65L150 -63V-58Q152 -58 152 -56L151 -54Q154 -49 156 -40H157H158Q161 -38 165 -36L169 -37V-36H176H177H179H180H188H191L192 -37H194V-36L196 -37Q201 -37 211 -39Q216 -39 219 -42H220V-44Q222 -47 224 -53Q225 -53 227 -65L226 -66L227 -70H228Q229 -56 232 -44L236 -37Q239 -36 239 -31Q238 -22 234 -22Q233 -18 232 -18H229Q229 -16 216 -15L210 -14L206 -15L203 -13L200 -15L198 -14H196H193H190Q189 -14 184 -15L181 -14L178 -15V-14L175 -15L174 -14L170 -16L168 -15Q165 -15 161 -19Q156 -19 152 -22Q151 -22 148 -25Q144 -28 140 -39Q136 -46 136 -65Q135 -65 135 -68V-69L136 -72V-76L137 -80L136 -83V-84L137 -88L136 -90L137 -105V-108L136 -109V-110L138 -113V-115V-118L137 -119L138 -124V-126V-128V-133L139 -134L138 -136L139 -138L138 -143L139 -145H138V-150V-154L139 -160L138 -163L139 -164Q138 -169 136 -169L135 -171V-173Q136 -178 138 -178ZM96 -163Q98 -163 102 -157Q106 -153 114 -151Q116 -145 116 -143V-141Q111 -137 107 -135Q99 -125 94 -125Q91 -118 84 -113Q84 -110 79 -109Q79 -106 75 -104L71 -100Q71 -99 66 -95Q66 -94 62 -93Q62 -90 57 -88Q57 -86 53 -85Q53 -83 49 -81L30 -68L18 -60H17L16 -61Q18 -63 25 -67Q46 -87 50 -95Q58 -101 63 -111Q66 -114 70 -120Q74 -124 75 -124V-126L83 -139Q88 -145 88 -149L90 -154V-155Q88 -155 86 -160Q86 -162 88 -163H92V-162ZM74 -101H77Q79 -100 79 -98L82 -99Q82 -96 90 -94L91 -93V-92L92 -86L91 -80V-78L92 -77L91 -74V-36L92 -32H91V-25Q91 -22 93 -21V-19Q89 -3 86 -3Q84 -3 84 0L80 2Q79 2 77 -2L75 -8V-9V-12Q74 -12 73 -22L75 -25L74 -29L75 -34V-36V-42V-46L76 -48L75 -53L76 -54V-59V-60L77 -63Q75 -65 75 -69L76 -70V-71V-76V-80L77 -81Q75 -82 75 -89V-90V-91Q75 -93 73 -97Q73 -101 74 -101Z"/>
</svg>