<svg xmlns="http://www.w3.org/2000/svg" viewBox="0 -256 256 256">
	<path fill="#000000" d="M130 -197H131Q133 -197 136 -193L138 -194Q152 -190 152 -189Q155 -188 155 -185V-183L152 -175H153Q159 -177 166 -179Q166 -180 169 -180L178 -178L181 -179Q188 -179 190 -172Q192 -172 192 -170V-164Q191 -162 183 -158L169 -146Q169 -145 173 -144L174 -139V-137L172 -135L170 -136Q153 -135 147 -132V-130V-128V-124L146 -120H148L160 -122V-123H161H162Q168 -125 176 -126L179 -127H182Q191 -127 195 -124Q198 -121 198 -117Q198 -114 193 -113V-114L190 -112Q174 -114 174 -115L167 -113L164 -114L162 -113L157 -114L155 -113L152 -114L146 -112H141L133 -109Q133 -108 122 -106Q118 -102 111 -101Q105 -97 94 -93H92Q83 -101 81 -104Q79 -104 79 -105V-106Q79 -107 86 -107H88H95L97 -109H98L104 -110L107 -108Q108 -111 109 -111H112L113 -112H116Q116 -114 117 -114H121L125 -116Q133 -116 133 -117L131 -118Q132 -123 133 -124V-126Q131 -127 131 -129L132 -130V-131Q127 -126 124 -126L123 -127Q122 -125 121 -125H120L119 -126L115 -124L114 -122V-120L111 -118Q106 -121 106 -128V-130Q104 -130 104 -135Q103 -135 101 -147Q100 -147 96 -157H97Q94 -161 94 -162Q94 -167 97 -167H98L106 -161H110Q124 -166 131 -167H132L133 -168V-175Q131 -188 128 -188Q126 -190 126 -192Q126 -193 130 -197ZM159 -165Q159 -162 156 -162H150L151 -161V-154Q151 -151 148 -151L150 -149V-148L149 -147V-146V-143H152Q159 -144 159 -145Q161 -148 165 -163V-164V-165H164L162 -164L161 -165ZM130 -157Q130 -155 125 -154Q125 -153 117 -151L116 -149V-144V-141V-140V-133H117Q118 -134 127 -135Q127 -136 133 -137V-139V-142L132 -149L133 -155V-156ZM50 -153L57 -151L62 -152Q66 -152 73 -147V-146L72 -145V-144Q75 -144 75 -141L74 -139L75 -137Q72 -131 65 -131L60 -137Q60 -140 56 -145Q56 -146 49 -152V-153ZM29 -124L40 -122L43 -123Q49 -120 52 -120H55Q58 -116 60 -115L62 -109Q61 -102 55 -102L53 -101Q48 -101 45 -108Q36 -116 36 -117Q34 -117 30 -121Q28 -121 28 -122ZM162 -103Q164 -102 172 -100Q174 -100 178 -95L179 -93Q179 -89 167 -80Q165 -80 165 -79V-78Q170 -74 170 -72Q169 -69 166 -67L164 -68L161 -67H160Q158 -69 156 -69L153 -67H150L145 -65L143 -66Q143 -63 139 -63Q138 -61 133 -61L126 -57L125 -53L126 -46Q125 -45 124 -45V-44H125H127H129Q129 -45 133 -45Q137 -49 144 -49Q144 -51 155 -55L165 -58H166Q172 -56 178 -56Q183 -51 183 -48Q183 -45 176 -41L173 -37L169 -33L168 -32Q173 -32 175 -26V-25L172 -22H171L169 -23H167Q163 -23 163 -24L161 -23H159H156H155L147 -22L146 -23L138 -21Q133 -20 131 -18H129H127H125V-14Q122 -6 118 -6V-5Q120 -5 126 -4H131H132V-3V-4L144 -3H145L151 -1L162 -2L164 -1L166 -3H167V-2L170 -3H179H181L183 -2L187 -3H193L198 -4L199 -3L201 -4L204 -3L210 -4L214 -3Q218 -5 228 -6Q231 -6 231 -5V-4Q231 -3 224 -2L213 2L206 5Q206 6 201 7Q193 12 190 13Q190 14 187 14Q178 21 174 21L167 19L166 20L155 18H153Q148 17 147 15L146 16Q138 14 131 14L130 13V12L129 13Q124 13 117 9Q114 7 104 4Q95 -1 88 -1L84 -2L83 -3L81 -2L79 -4Q78 -3 76 -3L74 -4H70L68 -5L50 -2Q47 1 41 1H40Q37 0 36 -14Q39 -19 42 -19L43 -18L48 -19L52 -18Q54 -18 57 -28H58L57 -35L58 -36Q57 -36 54 -40Q52 -40 49 -45Q47 -45 46 -54V-59V-61V-63H44Q44 -61 37 -59Q33 -62 25 -65V-66Q26 -68 34 -71Q34 -72 38 -73Q38 -74 51 -82L53 -81L58 -82Q58 -80 61 -80L62 -81Q66 -79 66 -75Q66 -73 60 -65Q58 -62 58 -61V-57Q58 -53 66 -43L68 -38Q68 -28 57 -19V-18L61 -16H62Q62 -18 63 -18Q64 -17 70 -16Q73 -15 82 -14Q83 -13 85 -13H87Q89 -11 105 -8Q112 -6 112 -5H113V-12L112 -14V-16V-38L113 -40L112 -41V-44L111 -46Q112 -49 113 -49L112 -52V-59L113 -60V-61Q111 -61 111 -63H113V-64Q113 -66 111 -68L112 -72H111V-74V-76L110 -77L111 -80Q109 -80 108 -86Q108 -92 111 -94Q114 -94 115 -90L118 -87Q124 -88 124 -90H127H130Q130 -91 133 -91L140 -94Q145 -96 147 -96Q148 -98 155 -100Q156 -101 162 -103ZM140 -86L138 -87Q136 -84 128 -84Q128 -83 124 -83Q126 -79 126 -75V-70V-66Q127 -67 131 -67L132 -69L135 -68L138 -71H139V-70L150 -73L152 -77L151 -80Q151 -83 155 -85Q154 -85 153 -87L156 -90H155L145 -89Q145 -87 141 -87ZM147 -43L145 -44Q142 -42 133 -39Q133 -38 132 -38L131 -39V-38Q131 -36 126 -36V-27L149 -30Q149 -31 151 -32L153 -31L156 -42Q157 -42 157 -44L155 -46Q152 -44 148 -44Z"/>
</svg>