<svg xmlns="http://www.w3.org/2000/svg" viewBox="0 -256 256 256">
	<path fill="#000000" d="M121 -194H123L128 -191H131Q140 -189 140 -186L141 -183Q139 -183 138 -175L137 -173V-172V-168V-167L136 -163Q137 -160 137 -158V-155V-156H138H137V-157Q143 -162 143 -167Q144 -167 146 -173L144 -177Q144 -181 151 -184Q156 -180 158 -180H162Q166 -176 167 -175V-172Q167 -167 159 -166Q155 -166 153 -162Q150 -162 144 -156Q142 -156 139 -151Q137 -151 137 -150V-149H139L150 -152H153Q153 -153 159 -154Q159 -155 162 -155Q162 -156 168 -157Q174 -157 176 -155Q182 -155 182 -150V-149Q182 -146 180 -146H177L175 -145Q173 -146 167 -146H165H164L156 -147L151 -145H150L144 -144H142Q136 -144 136 -141L135 -140L137 -134Q135 -134 135 -131L136 -129L135 -126V-124Q135 -117 132 -111V-107Q128 -104 128 -100L121 -98L120 -100V-107Q119 -111 119 -116V-117V-122V-124V-126L111 -118Q109 -118 98 -108Q95 -108 90 -101Q88 -101 87 -100L86 -101Q86 -103 88 -105Q88 -107 91 -108Q93 -108 105 -122Q111 -126 113 -132Q114 -132 114 -134V-135H113Q111 -135 110 -133H107Q102 -132 97 -128Q93 -128 87 -123H86Q82 -128 75 -129V-131Q75 -132 82 -134H83Q83 -135 87 -136L88 -137H90L92 -136Q95 -140 101 -140H102Q103 -140 103 -141Q108 -142 116 -145H120L121 -146Q121 -150 119 -153V-154Q121 -156 121 -158V-163L122 -165Q122 -169 121 -170V-174Q121 -184 119 -184Q116 -184 114 -186V-189Q114 -193 121 -194ZM95 -170Q109 -164 110 -162Q115 -157 115 -152Q113 -150 113 -148L107 -145H106Q104 -145 101 -152L100 -156Q97 -158 96 -163L95 -167H94V-169Q94 -170 95 -170ZM45 -149Q58 -148 58 -147H60Q60 -145 64 -145Q68 -142 68 -140Q71 -140 71 -138Q69 -131 67 -130Q63 -126 60 -126Q52 -134 49 -140L43 -147L42 -148Q42 -149 45 -149ZM152 -133L156 -132H158H164Q167 -132 178 -129Q185 -129 188 -120V-118Q183 -112 180 -112H177Q175 -113 169 -115Q169 -117 168 -117L165 -116Q165 -117 160 -120H158Q158 -121 149 -124Q145 -128 139 -128V-129Q139 -130 143 -131L144 -132H149ZM37 -117Q54 -115 54 -110Q55 -110 56 -108Q56 -99 48 -96Q39 -96 37 -101L31 -108Q29 -108 28 -111L24 -114V-115Q25 -117 26 -117L28 -116ZM148 -116L149 -115L154 -116Q154 -114 165 -112L167 -110V-109Q167 -107 165 -104H166L169 -106Q171 -106 177 -101V-100Q175 -96 169 -96L165 -95H164L163 -94V-93L162 -92V-90V-86V-85V-80V-76Q162 -72 163 -72H165L170 -74L179 -77H180V-76Q182 -76 182 -77Q193 -74 193 -72Q195 -69 195 -68L191 -63H182Q180 -65 176 -65L173 -64L172 -65L169 -63L167 -64Q162 -64 162 -60V-54Q161 -54 159 -33V-32Q159 -26 153 -20H151L149 -25L150 -28V-30L149 -33L150 -35L149 -36Q150 -38 150 -40V-44L149 -48L150 -51Q150 -54 148 -54L149 -58V-59L147 -60Q137 -58 132 -55L131 -56L127 -55L124 -58V-60Q128 -64 128 -67Q128 -68 129 -70V-71V-77L128 -82L130 -83Q144 -80 144 -77L143 -75V-73Q141 -73 141 -68H142Q144 -69 148 -69L149 -72L148 -79H149L147 -81L148 -83L147 -84V-85L148 -88H147Q147 -86 134 -85Q134 -86 132 -89L131 -88H130L128 -91Q128 -92 132 -94H133Q137 -96 143 -96H144Q147 -98 149 -100V-102L147 -104V-111Q146 -111 146 -113ZM92 -102Q98 -102 101 -97L106 -95L107 -94H110V-93L107 -91L108 -89H110Q117 -85 120 -85L122 -83L119 -80Q119 -79 117 -77Q113 -68 108 -63L113 -59Q113 -56 114 -56Q113 -45 109 -45L105 -44L100 -49H98Q98 -45 88 -38Q83 -33 82 -33Q79 -31 72 -27L68 -24L77 -23Q79 -20 87 -20Q89 -18 97 -18V-17L103 -18L105 -16H108Q110 -15 111 -15L114 -16L117 -14H118H122Q122 -12 134 -12Q134 -11 139 -10H140V-11Q149 -10 159 -9H160L168 -8L179 -9H182L186 -10L188 -9L193 -10Q195 -9 198 -9L202 -10L204 -9Q229 -11 229 -13Q232 -12 232 -11Q231 -9 226 -9Q226 -8 219 -7Q216 -5 209 -3Q202 1 197 3Q197 4 189 7Q187 9 184 9Q184 10 175 18Q170 18 154 16L151 17L147 14L144 15Q141 13 135 12L132 13Q128 10 122 8L121 7H118Q113 6 102 0Q101 0 97 -3H94Q87 -5 83 -8L72 -11Q66 -12 59 -15Q49 -13 47 -9Q44 -9 44 -6L37 -4Q33 -4 32 -11L33 -16L32 -18V-21Q33 -22 49 -24L51 -25L53 -24L54 -26Q51 -32 43 -42Q42 -44 40 -54Q40 -60 37 -60L33 -61V-60Q25 -62 25 -65Q27 -67 29 -67Q29 -68 33 -68Q35 -71 39 -73L42 -76H44Q45 -75 49 -74Q49 -72 53 -72L55 -70V-65L53 -57V-55Q52 -55 52 -53Q52 -51 55 -46Q60 -36 60 -34L59 -31V-29L57 -28V-26H58V-25L61 -26L66 -25V-27Q80 -39 82 -42Q84 -42 86 -48L93 -57V-58Q91 -60 90 -64Q87 -64 87 -68L89 -69L92 -68Q97 -68 98 -67Q101 -73 103 -75L105 -81V-85Q105 -86 104 -86L97 -80Q96 -80 92 -75Q90 -75 84 -68L78 -63Q77 -63 75 -62L74 -63Q77 -69 82 -71Q82 -72 87 -77V-78Q91 -81 91 -86Q92 -86 93 -93L94 -94V-95Q92 -95 92 -101H91Z"/>
</svg>