<svg xmlns="http://www.w3.org/2000/svg" viewBox="0 -256 256 256">
	<path fill="#000000" d="M85 -188L87 -187H91Q101 -184 101 -179Q103 -178 103 -176V-172Q98 -166 95 -166L92 -165Q89 -167 86 -167Q84 -171 73 -181Q70 -181 70 -183Q71 -185 83 -187ZM193 -174H194Q195 -174 201 -169Q208 -169 209 -163V-160Q207 -154 202 -154Q193 -143 189 -143Q189 -142 180 -134V-133Q178 -133 177 -130Q175 -130 172 -126V-125Q176 -121 181 -121Q182 -119 184 -118L186 -119Q187 -119 187 -117H190L196 -113L202 -99Q202 -97 204 -95V-86Q201 -69 197 -69Q192 -65 188 -65Q185 -65 185 -69Q183 -69 181 -73Q172 -84 168 -84Q167 -84 166 -86Q167 -87 169 -87L171 -86L172 -87L180 -86Q183 -86 183 -90Q183 -91 185 -93L183 -96V-98Q183 -102 179 -107L180 -108Q178 -110 175 -117Q173 -117 171 -123Q169 -123 168 -122H167L166 -123Q169 -126 173 -136V-138Q173 -140 176 -140V-143L175 -144Q179 -148 179 -155L178 -156L168 -152L166 -150H165L163 -151V-142Q163 -140 161 -139L162 -136L161 -135L162 -129Q162 -126 161 -126L162 -122L161 -113V-90L162 -86Q160 -84 160 -80L161 -72Q159 -69 159 -55V-54L158 -52L159 -49Q159 -43 158 -43L159 -41V-35Q157 -14 154 -10L155 -9Q153 -6 151 2Q148 12 147 12H146Q145 12 145 10L148 -3L147 -5L148 -8L147 -11V-19L145 -27L146 -32L145 -34V-45L144 -49V-51L145 -52L142 -59V-83L143 -86Q142 -86 141 -92L142 -94V-98L143 -99L142 -101V-105Q141 -106 141 -109L142 -112L141 -117L143 -118L142 -121V-127L141 -128V-129L143 -131V-133Q141 -133 141 -143Q138 -148 135 -151Q135 -156 141 -160H143L148 -156L152 -158L154 -157L155 -158H159Q161 -159 163 -159Q173 -164 183 -166Q187 -169 187 -171ZM123 -76Q126 -73 126 -71Q127 -71 128 -64Q126 -58 120 -58Q115 -59 107 -66L101 -69Q90 -62 75 -45Q67 -30 57 -30H56Q53 -33 53 -35L55 -37L54 -44L57 -53L59 -68V-69L60 -73L59 -76L60 -79L59 -80L61 -82L60 -84V-86L59 -91L60 -94V-95Q60 -97 57 -99Q58 -100 59 -105L57 -107L59 -112Q56 -124 53 -126V-127Q55 -130 59 -130L68 -123L75 -120Q78 -123 86 -125Q91 -130 102 -132V-134Q102 -136 104 -138V-139L103 -144V-149H104L103 -152Q101 -150 96 -150Q90 -144 77 -139Q66 -133 61 -133Q60 -133 54 -138L46 -142Q46 -143 57 -145Q57 -146 66 -148Q66 -149 72 -149Q72 -150 82 -153Q84 -154 95 -158H98L100 -160H101Q102 -160 103 -156H104V-157H105L104 -159Q109 -167 112 -167Q112 -164 117 -164L128 -162L132 -157V-156Q131 -152 127 -146L122 -136Q122 -131 119 -129V-126Q119 -123 115 -117L116 -115L115 -111Q115 -110 119 -107V-104L116 -101H112V-102L109 -100L107 -101L99 -97Q93 -94 84 -91L73 -86L74 -80L73 -77L74 -71L73 -68L74 -67H73V-66Q74 -59 76 -59Q85 -63 96 -70Q98 -70 98 -72Q98 -73 93 -77Q93 -78 90 -79Q90 -81 86 -81H85V-82L87 -83L96 -81L98 -82L103 -81L113 -80Q115 -78 123 -76ZM81 -113L78 -115Q76 -115 75 -118H73V-117Q74 -115 74 -113L73 -111V-110L74 -108L73 -105Q74 -96 75 -96H76L89 -101Q97 -107 102 -107Q102 -112 104 -113Q104 -114 103 -114L102 -115V-116Q102 -117 104 -117V-118Q103 -119 102 -123H101Q93 -118 84 -115Q83 -113 81 -113Z"/>
</svg>