<svg xmlns="http://www.w3.org/2000/svg" viewBox="0 -256 256 256">
	<path fill="#000000" d="M106 -194Q107 -194 113 -193L117 -188V-187Q114 -184 110 -183Q110 -182 104 -180Q100 -179 97 -176H95L89 -174V-173Q92 -173 95 -169Q101 -169 103 -166Q103 -164 105 -162L103 -158H104L103 -153V-145L102 -144V-137Q102 -135 101 -132L102 -131L101 -127L102 -117L101 -115L102 -112L101 -110L102 -108V-106V-104Q101 -85 98 -85L97 -83Q96 -83 92 -78Q90 -78 90 -86V-88Q88 -91 88 -95L89 -96V-97L88 -102L89 -106Q89 -108 87 -108Q86 -108 80 -100Q78 -100 76 -97Q72 -95 71 -92Q69 -92 57 -80L54 -77H52Q49 -80 45 -81Q43 -83 39 -86V-87L46 -90Q51 -95 56 -95V-97L55 -98V-101V-103L54 -108L55 -112L54 -114L55 -115L54 -121L55 -125L54 -128V-130Q53 -133 53 -135V-139Q52 -139 52 -144Q50 -144 46 -152V-153L48 -156H51Q54 -152 58 -150V-149V-150H59Q61 -147 66 -146L68 -144Q74 -149 80 -150Q87 -147 87 -146V-145Q87 -144 77 -141L72 -137Q72 -136 69 -136L66 -134Q68 -134 68 -132L67 -130L68 -128V-126H69Q71 -126 79 -130H80L82 -127L84 -128L85 -126Q85 -125 74 -121Q67 -117 66 -115V-114Q65 -105 65 -104V-101Q68 -101 72 -104H73H74Q79 -109 85 -109Q85 -111 88 -111V-122H89L88 -123V-127V-131V-136V-147L89 -149L88 -151L89 -154L88 -157L89 -159Q88 -160 88 -168L87 -170V-171V-172H86L79 -167Q78 -167 73 -164H72L65 -171Q59 -175 58 -177Q58 -178 70 -181H71H73L76 -184L78 -183Q81 -186 85 -186Q88 -189 96 -190Q96 -191 101 -192Q101 -193 106 -194ZM142 -173H144Q148 -167 152 -167Q159 -166 159 -163L160 -161Q156 -153 150 -150Q149 -148 144 -145Q144 -144 140 -141Q140 -138 133 -133L137 -130H138Q139 -130 143 -127L151 -123Q151 -122 153 -120L152 -117L153 -115Q153 -112 145 -109Q139 -112 134 -117Q132 -117 128 -121L123 -123Q120 -120 116 -118Q116 -116 108 -109L104 -107L103 -108Q107 -113 114 -120L117 -126Q117 -129 107 -136V-138L119 -136H121L123 -135Q123 -137 128 -143Q130 -149 133 -151V-152L132 -153L123 -149Q121 -149 121 -151H120Q113 -153 113 -155Q114 -158 119 -158Q119 -159 130 -163Q133 -165 136 -165ZM204 -160Q206 -160 212 -155Q222 -153 222 -148V-147Q222 -138 215 -138Q204 -127 204 -126Q200 -126 200 -122Q198 -122 192 -116L183 -106V-105H186Q186 -104 193 -103Q193 -100 198 -99Q209 -92 213 -85L216 -76V-65Q214 -57 208 -52L202 -51Q199 -52 199 -54Q196 -62 187 -67Q187 -68 179 -71L178 -72L179 -73H184L191 -74L192 -73L195 -76L193 -79L194 -81Q194 -87 186 -101Q184 -101 183 -104H181L180 -105V-106Q180 -108 182 -110Q188 -122 191 -135V-138L190 -139Q177 -135 177 -134L179 -131L176 -122L177 -121V-118L176 -117V-114V-113L175 -110V-108L176 -104L175 -102L176 -98L175 -97L176 -94L175 -92L176 -91L175 -89L177 -85L176 -83V-80L175 -78Q176 -77 177 -70L176 -69L177 -65L176 -63L177 -60V-52L176 -49H177V-48L175 -32L176 -31L175 -23V-18L174 -15L175 -11L173 -7V-4Q172 -3 172 2Q171 2 171 7Q168 7 167 17L165 18V19H164Q163 19 163 17L164 12L163 7L164 4L162 -9L163 -12L161 -18V-21L162 -23L161 -25L162 -27L161 -35L162 -36L160 -42L161 -44L160 -50V-51Q159 -53 159 -64V-67L158 -79L159 -82L158 -84V-86V-87V-89V-97L157 -108L158 -110L157 -116V-118L156 -122V-124Q156 -129 154 -132L155 -135Q151 -136 151 -138Q153 -141 155 -141H156Q158 -141 160 -139L163 -137Q168 -140 172 -141Q176 -144 186 -148Q194 -151 204 -160ZM114 -107L122 -101Q123 -101 129 -97V-96Q127 -95 127 -93Q124 -93 117 -86Q116 -86 107 -80Q107 -79 106 -79L104 -78V-77Q116 -71 116 -70V-68V-66Q116 -65 114 -62Q115 -60 118 -60L126 -74L127 -80L126 -83Q126 -85 129 -87L136 -83Q144 -80 144 -78Q144 -75 137 -70Q132 -65 130 -65Q130 -64 127 -62V-61L134 -59H136Q143 -58 148 -54V-53L147 -51L148 -50Q148 -46 142 -43Q138 -43 135 -48L124 -58H123Q118 -54 115 -54V-53V-50L114 -46L115 -41L114 -38L115 -36L114 -35L115 -34Q114 -13 112 -4Q108 2 106 4H105L103 3V2Q103 -5 101 -9H102L101 -16L103 -29V-30Q103 -35 105 -36Q105 -37 103 -37V-38L104 -42L103 -43V-45H104V-46L103 -48V-50V-54V-57L102 -60L104 -63Q102 -63 101 -73V-75L95 -71H93L92 -72Q98 -78 99 -80Q101 -80 102 -85Q106 -86 106 -89L111 -97Q113 -97 113 -99V-101L111 -104ZM78 -81Q85 -77 91 -68L92 -67Q86 -62 82 -55L78 -51V-50Q80 -50 82 -49L84 -50L87 -49Q95 -48 97 -44L98 -42V-39Q96 -33 95 -33H93Q90 -33 85 -40Q81 -41 80 -45L75 -47L69 -40L56 -27L35 -10H34H33Q33 -12 40 -17L54 -31L64 -45Q64 -47 67 -52Q67 -56 74 -65Q75 -68 75 -72V-73Q73 -75 73 -77V-78Q76 -81 78 -81Z"/>
</svg>