<svg xmlns="http://www.w3.org/2000/svg" viewBox="0 -256 256 256">
	<path fill="#000000" d="M153 -187Q157 -187 159 -182Q160 -179 171 -175Q173 -172 173 -167Q173 -164 167 -162L152 -146Q146 -139 143 -139V-137V-136H144L163 -140H165H171Q171 -142 179 -143L174 -152V-153L175 -154L186 -152Q196 -149 199 -145Q203 -138 203 -136V-133Q203 -128 197 -125Q195 -125 194 -123H192L187 -128L181 -138H180L172 -135Q169 -133 162 -131Q157 -128 153 -128Q153 -126 147 -126Q147 -123 137 -121Q137 -120 132 -118L131 -117V-116Q133 -116 136 -110Q139 -110 143 -104V-102Q141 -99 136 -95Q136 -93 129 -88Q122 -81 114 -77Q109 -71 105 -71V-68V-66V-64V-62V-55V-53V-50V-49Q105 -44 103 -42L104 -40L103 -37V-28L104 -27Q106 -28 114 -38Q115 -41 120 -45Q123 -51 124 -54Q126 -54 134 -68Q135 -68 139 -78L138 -87L142 -90L153 -81Q155 -80 155 -77Q154 -75 154 -74V-73H155L171 -80L176 -82Q187 -75 187 -70Q187 -68 179 -61Q179 -60 169 -48Q169 -47 165 -45Q165 -42 161 -40Q164 -40 177 -28V-27L178 -28H179Q190 -19 205 -13Q216 -7 221 -6Q224 -3 234 -2Q237 -1 237 0Q237 1 234 1H231Q229 2 221 3Q216 7 210 7Q207 7 203 10L197 11Q195 11 187 4L179 -2Q178 -2 173 -7Q169 -7 163 -17Q152 -26 151 -29Q150 -27 144 -22Q144 -20 141 -19Q130 -7 118 -1Q112 3 105 5Q101 8 94 11L93 9L106 1Q110 -3 120 -10L131 -20Q131 -21 139 -28Q139 -30 146 -36Q143 -38 143 -41L139 -47Q137 -47 135 -54H133Q129 -45 120 -39L106 -25L104 -26Q101 -26 101 -13V-10L96 0L89 6L86 4V1Q86 -11 82 -16Q82 -18 77 -24V-26L86 -24Q86 -31 88 -32V-33L87 -38L88 -42V-45L87 -46L88 -50V-64V-66V-67H87Q85 -67 80 -65H77H76H70Q67 -69 67 -72Q67 -77 68 -77V-79V-94V-96V-99L66 -100H65L64 -99H63L61 -100H60V-99L62 -96L60 -91V-86L56 -65Q55 -65 52 -57Q50 -56 48 -52L46 -50L45 -51V-53Q47 -55 48 -60V-65L49 -66V-67V-68Q50 -71 51 -82H50L51 -86V-93H49Q45 -91 42 -91L41 -90L42 -89L41 -84L42 -83V-80L41 -79L42 -77L41 -72L42 -64L41 -63L42 -60L41 -58L42 -57V-54L43 -40V-38Q43 -30 46 -28Q50 -28 56 -32L72 -37Q75 -37 76 -38H78L81 -36Q77 -31 75 -31L72 -32Q72 -30 64 -27Q63 -26 56 -23Q52 -19 49 -19L44 -22L43 -16V-13Q40 -4 35 0L34 1H33Q29 1 28 -19V-24V-27V-28V-35V-41V-46V-56V-58V-63V-66L27 -70L28 -71L26 -73V-79L27 -81L25 -87V-89Q24 -89 23 -94L19 -99V-100Q21 -103 24 -103Q28 -101 34 -95H35Q35 -97 40 -97Q40 -99 51 -101V-102V-105V-108L46 -121L48 -122Q51 -122 55 -116V-115L56 -116L64 -111V-110Q64 -108 65 -108Q68 -108 68 -111L69 -112V-113Q68 -115 67 -124L65 -130H64Q60 -126 57 -126L41 -138Q37 -141 37 -143Q37 -144 48 -147L53 -149Q60 -152 64 -152Q64 -153 71 -155L85 -161Q88 -161 97 -164L98 -165H100L102 -163H105Q108 -163 111 -158V-155Q107 -148 101 -148L98 -147Q98 -146 93 -145L78 -137Q78 -136 75 -136L73 -133L78 -126L77 -124V-122V-118V-114V-113L79 -112H80Q80 -114 89 -118Q89 -120 95 -122Q102 -115 102 -114V-113H105L109 -109V-108L107 -103L108 -100Q105 -91 105 -78V-77V-76V-75H106Q109 -76 118 -89Q121 -95 125 -100Q125 -104 127 -105L126 -109L129 -116H128Q124 -113 121 -113L120 -112H118Q114 -115 114 -117V-130Q116 -133 123 -133Q134 -143 135 -148Q138 -152 143 -163L146 -169Q147 -171 147 -174Q147 -176 144 -179V-180Q147 -185 153 -187ZM164 -129H168Q169 -129 174 -125Q179 -124 179 -121L177 -104V-103L181 -104H182H183L185 -105L187 -104Q190 -106 194 -107L196 -105Q199 -105 201 -100Q201 -93 191 -91H190H187H173Q166 -95 166 -104L167 -108Q165 -108 165 -119V-120L161 -124V-126ZM75 -103L76 -98L75 -97V-92V-87L74 -86V-85L75 -83V-81V-79V-78V-74L78 -72L83 -73H84H85L88 -75V-77V-78Q88 -80 89 -80L88 -87V-91L89 -92V-95L90 -98V-99V-98H89V-99V-102L88 -106L90 -108H89Q85 -106 81 -106Q81 -104 75 -104ZM149 -70Q145 -66 144 -66L145 -64Q141 -62 141 -60Q146 -59 152 -51L154 -49L159 -55Q160 -55 165 -66Q166 -66 167 -68Q166 -69 163 -69V-70H162Q160 -68 153 -68ZM71 -56Q78 -54 79 -53V-51Q79 -49 68 -48Q67 -46 64 -46H63Q63 -44 58 -44Q56 -42 53 -42Q53 -44 50 -45L49 -46V-47Q49 -48 52 -48Q52 -50 59 -51Q59 -55 71 -56Z"/>
</svg>