<svg xmlns="http://www.w3.org/2000/svg" viewBox="0 -256 256 256">
	<path fill="#000000" d="M167 -187Q169 -186 177 -178Q184 -174 185 -174Q190 -172 193 -168Q191 -159 185 -159L183 -160H182H179L177 -159H176L174 -160Q170 -160 167 -158L164 -159L161 -158Q171 -154 171 -152L170 -147H172Q173 -148 177 -148Q177 -149 193 -152H197L208 -155Q208 -156 216 -157Q228 -152 228 -147Q225 -144 224 -144Q217 -144 207 -145H202H198H197L193 -144H188Q184 -143 176 -143Q174 -141 173 -141V-142H172Q169 -142 167 -134L168 -131L166 -130L167 -128L166 -122H167L181 -126L182 -127V-126H183L193 -130L197 -133Q200 -136 203 -136Q209 -129 211 -129Q212 -126 216 -126Q219 -122 219 -119Q219 -117 214 -112Q207 -101 202 -88Q200 -85 200 -84Q198 -83 198 -79Q195 -79 193 -74Q191 -74 185 -69Q182 -70 182 -71V-74L184 -80Q181 -80 178 -78H176L166 -77V-63Q170 -63 172 -66H175Q179 -66 181 -63L183 -64Q186 -64 187 -58Q185 -57 183 -57H179L166 -54V-53L164 -41H165Q171 -41 181 -43Q185 -45 199 -47H200Q208 -41 211 -38V-37L208 -33H200L191 -36L189 -35H187H185H184H180Q178 -35 178 -36L175 -35L172 -36L164 -35L162 -34H161Q158 -33 149 -32Q149 -31 143 -30L142 -31Q142 -29 136 -29Q136 -27 127 -25Q124 -25 118 -30V-31Q119 -34 126 -34L134 -36H137L138 -35Q142 -37 144 -37H149Q153 -37 153 -46Q154 -46 154 -51L153 -52Q149 -48 143 -47Q142 -50 137 -50L133 -55L147 -58Q149 -60 151 -60L153 -59L154 -62V-64L153 -68L154 -69L153 -73L154 -75L153 -76H149Q149 -74 145 -74L142 -72L140 -73Q134 -72 134 -69Q134 -64 131 -64L128 -67H129L125 -75L126 -79L124 -81V-83Q122 -84 120 -97Q118 -99 118 -101H119V-102Q116 -107 116 -112V-113H114L115 -114H117Q118 -112 122 -112L123 -111H124Q125 -113 132 -113L133 -114H138Q144 -117 153 -118V-119V-120V-123V-127Q153 -130 152 -132L153 -135L152 -136Q149 -134 145 -134Q145 -131 139 -131Q138 -129 134 -128Q134 -126 128 -125Q128 -124 125 -123L123 -122H122L116 -126Q113 -126 110 -131V-132L111 -133H114Q120 -135 126 -135Q126 -137 138 -140Q138 -141 142 -141Q142 -142 151 -143V-142Q154 -143 154 -144Q152 -146 152 -153L151 -154Q144 -152 144 -150Q140 -150 140 -151L119 -143L118 -144V-145L123 -147Q131 -153 135 -155Q140 -161 143 -162Q158 -175 158 -177V-178V-181L160 -185ZM98 -168Q100 -165 112 -162L114 -159V-158Q110 -154 108 -154H107L104 -152H102L96 -150H95L88 -145Q86 -145 76 -139Q74 -139 70 -136Q71 -135 76 -133Q76 -131 80 -127V-122H81Q84 -124 90 -126H91Q93 -124 96 -124Q96 -123 100 -122Q105 -119 107 -117V-110L105 -108V-107V-106Q104 -106 103 -99Q102 -99 102 -97V-95V-93L103 -91L102 -89L103 -88L102 -86Q104 -85 104 -83L103 -80L104 -77L102 -74L104 -69L103 -65L104 -59H103V-58L104 -56L103 -54L104 -50V-47L103 -46H104V-45L102 -43V-42Q104 -40 104 -38V-37V-31V-28V-21Q104 -16 97 -8Q93 -7 90 -4H87L86 -5V-13Q84 -14 84 -17L77 -23V-24L78 -25H81L83 -24H84Q86 -24 86 -32V-37V-40V-44V-56Q86 -57 87 -59L86 -62V-66V-71L87 -73L86 -74V-75V-82Q86 -81 74 -80H73H72Q67 -80 67 -82L68 -89L67 -91L68 -93V-95Q68 -104 69 -104L68 -107Q69 -107 69 -108V-109H68L65 -108H64L63 -109V-108V-106Q62 -102 62 -101V-99Q60 -87 59 -86Q59 -82 55 -77L53 -72L49 -68V-67V-58L50 -56L49 -54L50 -49L49 -46L50 -44L49 -39L50 -38H51Q55 -41 66 -46Q68 -48 71 -48Q71 -50 72 -50H74L77 -47H80H81V-46V-45L74 -39L72 -40Q72 -37 66 -37Q62 -33 59 -33Q59 -31 55 -31Q53 -31 51 -34H49V-22L48 -20L49 -18Q48 -9 40 -2L39 -1H38L36 -3V-5L35 -12H36V-13Q35 -17 33 -21L36 -31V-36L35 -46L36 -50L35 -61V-64L34 -72L35 -74L34 -77V-80L33 -81L34 -84L33 -86V-88L34 -89Q31 -92 31 -97Q28 -99 27 -106Q27 -107 31 -109Q32 -107 38 -104H39Q41 -105 45 -106Q45 -107 51 -108L52 -111L50 -114L51 -115L50 -119V-120V-121Q48 -122 48 -124V-125L50 -126H51Q56 -126 63 -120Q63 -117 65 -115Q69 -116 69 -117V-118Q69 -135 66 -135Q66 -133 63 -133Q63 -132 59 -130H57Q54 -135 47 -138Q46 -141 37 -146L36 -149V-150L41 -153L42 -152L47 -153L48 -154L50 -153Q53 -156 66 -159Q66 -160 73 -161Q73 -162 76 -162L79 -164H82L97 -168ZM188 -119H185L178 -118L175 -119Q172 -117 168 -117H166V-116V-114L165 -107L166 -103V-102H165L166 -101V-98L165 -97L166 -94Q170 -98 171 -104L174 -109V-110V-114L175 -116H176Q185 -112 185 -111Q185 -110 188 -108V-107Q186 -104 177 -98Q171 -92 166 -90L165 -91V-90L164 -89Q166 -84 167 -84Q169 -86 171 -86H172Q182 -86 183 -88Q184 -88 185 -85L188 -93Q191 -107 191 -110L192 -113L191 -117L193 -118Q193 -121 190 -121ZM84 -114Q84 -113 81 -113H80H78Q78 -111 77 -111V-110V-108V-107Q76 -100 75 -99L76 -98Q76 -91 74 -89V-88L75 -87H77Q86 -92 87 -94V-95Q86 -96 86 -98V-104V-108Q86 -114 85 -114ZM145 -109L144 -110L138 -106H134Q132 -106 131 -104L133 -93H132Q133 -91 134 -86L132 -85L133 -83L132 -81Q133 -81 134 -77H136L142 -79H143Q145 -81 154 -82L153 -91H152Q149 -85 148 -85H147Q145 -85 142 -93Q141 -93 141 -97Q140 -97 137 -104H138H140Q150 -100 151 -98L153 -96V-99V-103V-104L154 -113H153Q149 -109 145 -109ZM45 -99Q47 -98 50 -88L48 -85L49 -79L48 -76L49 -72H50L53 -87V-89L52 -91L53 -96L52 -103Q45 -102 45 -99ZM72 -68Q76 -66 79 -63V-62Q79 -61 74 -59L72 -58Q72 -59 71 -59Q64 -54 63 -54Q61 -52 59 -52L52 -59L59 -63Q63 -65 72 -68ZM168 -32Q168 -31 172 -28Q172 -27 176 -26L179 -23L182 -14V-11Q182 -8 176 -3Q171 -3 170 -10Q168 -25 165 -29V-31Q166 -32 168 -32ZM196 -30Q213 -23 213 -20Q217 -18 221 -11Q222 -11 224 -2V1Q222 11 216 11Q211 11 209 4Q203 -12 199 -18Q199 -21 197 -23Q197 -25 195 -28V-29ZM140 -26Q141 -23 144 -23Q151 -17 151 -11Q152 -11 152 -9Q147 0 144 0Q139 -3 139 -14V-15L138 -25ZM119 -23Q121 -23 123 -15L122 -14V-12V-11L120 -1Q119 -1 119 1L117 2V5Q114 9 112 9L106 11L105 9V-4Q108 -9 111 -10Q111 -12 116 -17Q116 -20 119 -23Z"/>
</svg>