<svg xmlns="http://www.w3.org/2000/svg" viewBox="0 -256 256 256">
	<path fill="#000000" d="M172 -207H173V-206Q173 -203 186 -200Q189 -197 189 -195Q189 -193 190 -193Q190 -188 184 -180L181 -172Q176 -154 175 -154V-152L173 -144V-143L170 -136L168 -135H166L168 -132L170 -134L172 -133L174 -134L176 -133H177L180 -132L181 -133L184 -132L189 -133L192 -132Q193 -133 202 -134H203Q208 -128 216 -124L218 -120Q217 -111 212 -111H211L199 -113H196H195L183 -109Q181 -110 181 -111Q181 -113 188 -117Q191 -119 194 -123Q197 -124 197 -125V-126H193H191H189H185H183L181 -128L178 -127H176Q176 -126 173 -126H169H166Q166 -127 164 -127L162 -126H154H146H145L142 -124L134 -125H131Q131 -123 115 -122L108 -119L107 -120H106Q104 -118 100 -118V-119Q96 -117 91 -117Q91 -116 85 -114L84 -113Q80 -114 80 -117V-116H79H80V-115Q78 -109 69 -109Q69 -108 60 -106Q59 -104 55 -104Q51 -102 51 -99Q51 -96 49 -91Q49 -87 43 -77Q42 -71 39 -71Q34 -67 32 -67Q28 -68 28 -71V-78L31 -89Q32 -90 37 -108L38 -110L37 -113Q38 -113 38 -117V-120V-121V-122H40Q41 -122 48 -109Q49 -110 54 -110Q57 -113 62 -113L72 -116L70 -126L68 -137V-142Q65 -149 65 -152Q62 -155 59 -166Q57 -171 54 -174L51 -177V-180Q51 -181 54 -181Q60 -181 65 -177Q68 -175 70 -175Q83 -185 83 -193V-194L82 -197V-198L85 -202H87Q90 -196 102 -194Q105 -190 105 -188V-186Q103 -180 97 -180Q95 -178 88 -177Q80 -175 78 -172L80 -165L79 -163L80 -162L89 -167H91Q96 -166 96 -165V-164V-163V-162Q94 -158 84 -155Q84 -153 80 -152V-151L81 -149V-148V-147V-144V-141Q83 -141 94 -149H95Q96 -147 100 -147L101 -145Q101 -140 94 -138H92Q85 -135 83 -135H82L81 -134V-130V-120L82 -119H86L96 -122L97 -123L98 -122Q106 -123 106 -125H107L110 -124Q110 -126 116 -126Q117 -127 130 -129L132 -144L131 -150V-153V-160V-166L130 -170L131 -175V-176L132 -178L131 -181Q131 -184 132 -185L131 -187L132 -190H131V-191L124 -189L119 -186L109 -190V-191L110 -193H112L116 -192L129 -198Q132 -203 137 -206Q140 -203 144 -203Q145 -202 152 -199Q152 -198 155 -195V-194Q155 -191 152 -189V-187L150 -182V-181V-180L148 -178L149 -176L148 -172L149 -171V-170L147 -165V-163L144 -151V-150V-146L142 -144V-142V-141Q142 -139 138 -135L139 -133L136 -130V-129H137Q137 -131 143 -131L157 -133H159Q160 -133 160 -135V-139Q160 -140 163 -154H162L155 -151Q152 -154 151 -154L150 -156Q150 -157 158 -159V-158H159L162 -159H163Q164 -169 165 -170V-171L157 -169Q153 -171 152 -173Q152 -175 165 -176L166 -178L165 -180V-182Q167 -183 167 -185Q166 -185 166 -186L167 -188V-189L168 -192H167H166L163 -191Q160 -192 157 -195V-196L159 -198H161Q165 -200 172 -207ZM101 -179L109 -172V-173Q113 -175 113 -176Q117 -176 119 -177Q123 -179 126 -179L127 -176V-174Q126 -173 119 -171L118 -170H117H116Q110 -168 110 -166L112 -163L110 -159L111 -157L110 -156L111 -155Q112 -155 115 -157Q119 -157 119 -160V-161H120L127 -157V-153Q125 -150 123 -150L124 -149V-148L122 -141Q119 -138 115 -138Q115 -137 110 -136Q107 -127 105 -125Q103 -125 102 -131V-134L101 -135L102 -140V-143L104 -144L103 -147L104 -149L102 -152L103 -159Q101 -177 100 -177V-178ZM109 -151V-150L111 -147L110 -144V-140H113Q117 -142 117 -143L116 -144L117 -153ZM152 -121H153Q154 -119 157 -119L160 -116V-113Q160 -112 152 -110H150H148Q140 -109 140 -108L136 -107H134L133 -108H132Q131 -108 131 -106Q131 -104 136 -104V-101L135 -97H136Q146 -100 148 -103Q149 -105 153 -105Q153 -102 163 -100Q163 -99 166 -99L168 -95V-94Q167 -90 164 -86V-67V-65V-64Q164 -61 163 -61L164 -59V-58Q164 -55 162 -53V-50Q159 -36 152 -36H151V-35Q155 -35 162 -27Q163 -27 169 -22Q170 -22 175 -18Q177 -18 188 -11Q192 -9 198 -8Q201 -6 220 0Q228 1 228 2Q223 4 212 5Q212 6 205 8Q194 13 193 13Q190 13 188 11Q186 11 185 8Q182 8 177 3Q175 3 170 -3Q168 -3 160 -10Q159 -10 157 -14Q156 -14 156 -15H155L150 -5Q148 7 142 18Q139 24 136 24Q128 31 126 31H125L124 29V27L125 25L123 18Q119 13 119 11V10H121L127 14H128Q134 2 134 0L136 -9Q137 -17 138 -18V-19Q136 -17 133 -17Q133 -16 128 -15H127H126L123 -16L122 -15Q123 -15 128 -9V-8Q128 -6 118 6Q118 8 105 20L93 29Q92 29 90 31H89L88 30Q102 16 111 1L116 -11L115 -12L110 -9Q110 -10 104 -13L103 -15L116 -19Q116 -20 121 -20Q123 -23 128 -23L132 -24Q136 -28 141 -28Q141 -29 143 -30Q139 -33 133 -40V-41Q133 -44 138 -44Q141 -42 144 -42L145 -41H146L147 -45L146 -47L147 -51V-53L146 -54L148 -57Q147 -57 146 -62L147 -64L146 -65L148 -69Q146 -69 146 -73L144 -72H143L142 -73L138 -71L136 -72L132 -71Q129 -72 128 -75V-79L129 -81L128 -83V-84V-86V-88H126Q124 -87 122 -87L120 -85H119V-86H118Q118 -84 117 -83V-77L114 -72H113V-70L105 -60H104L103 -62L110 -73V-79Q111 -81 111 -82L110 -83Q108 -82 101 -80L100 -77V-74L99 -72L100 -69L98 -68V-67Q100 -65 100 -63V-57L101 -54L100 -52L101 -46V-45L102 -43V-41L100 -32V-31L107 -25V-24L99 -17Q99 -16 95 -14L84 -5Q81 -2 72 5Q65 11 47 21L46 20Q50 14 54 14Q55 12 61 9Q80 -9 86 -18Q90 -22 90 -24Q91 -28 92 -28L90 -32V-35V-46V-50L89 -61H90V-62L88 -64L89 -71Q87 -83 84 -86Q85 -89 87 -89H88Q90 -89 90 -86L92 -85L95 -83L105 -87H107Q110 -87 110 -88L108 -99L106 -98L104 -99Q104 -97 103 -97H102L101 -98H99Q96 -99 92 -100L90 -102Q91 -104 92 -104H95L106 -107L107 -108H112Q113 -110 118 -110Q118 -112 121 -112H125Q125 -113 139 -117L144 -118L146 -117Q149 -121 152 -121ZM114 -101L112 -102H111V-101Q117 -94 119 -94Q120 -94 120 -91H122Q124 -94 128 -94L127 -103L128 -105L127 -106Q123 -104 114 -101ZM134 -90L132 -91V-90Q133 -90 134 -86Q132 -84 132 -78L133 -77L140 -79H144Q146 -79 146 -81V-84V-90V-92L145 -93Q143 -93 138 -90ZM132 -67L136 -63Q134 -60 132 -60Q130 -59 123 -58Q119 -55 114 -55Q114 -54 112 -53Q110 -53 107 -56Q110 -60 116 -60Q116 -61 126 -64Q126 -65 131 -65Q131 -66 132 -67ZM133 -53L136 -52L139 -53Q141 -52 141 -51V-50V-49H138Q138 -47 130 -46L120 -44Q120 -42 112 -41L111 -40H109Q106 -40 105 -42V-43Q105 -44 111 -45Q117 -46 120 -48Q123 -48 129 -52L130 -51Z"/>
</svg>