<svg xmlns="http://www.w3.org/2000/svg" viewBox="0 -256 256 256">
	<path fill="#000000" d="M190 -198H191Q192 -198 196 -192L205 -187Q209 -187 211 -179L207 -170Q204 -169 202 -167V-165L203 -163L202 -158V-156V-151V-145V-144V-140V-139V-132V-127V-126V-124V-119V-117V-115V-113V-80V-79V-75V-70L203 -67L202 -63L203 -62L204 -46V-45V-43L203 -40L205 -36L204 -32L205 -28V-27V-24V-22L206 -18V-12L205 -10L206 -7Q206 3 201 13Q199 17 192 22H191Q189 22 188 18L189 15Q186 8 186 4L187 0L184 -2Q184 -3 186 -3V-4Q184 -4 184 -5L185 -8L184 -10V-11L185 -14L184 -15V-18Q184 -19 183 -19V-20Q183 -27 184 -27L183 -29V-30L184 -31V-32L182 -33L183 -43V-45L184 -47Q182 -47 182 -52V-55V-59Q182 -61 181 -63V-66V-68L182 -75L181 -77L182 -78V-80Q182 -81 181 -81H180V-83L181 -84L180 -86L181 -92Q180 -94 180 -95V-98V-102L179 -105V-107L180 -111L179 -112V-113L180 -114Q180 -115 179 -115V-116Q181 -118 181 -120Q180 -122 179 -122H178Q173 -117 172 -117L170 -116L169 -117Q167 -117 163 -113L161 -114Q151 -109 150 -107Q157 -103 157 -100V-98L154 -86H153V-83Q153 -80 152 -80H153L152 -69L153 -68L152 -62V-59L151 -56L152 -54V-44L151 -42L152 -41Q152 -28 146 -19Q145 -19 143 -16L137 -11H135Q134 -11 134 -13V-17Q133 -17 131 -24Q130 -24 130 -27Q124 -34 122 -35Q119 -35 118 -37L119 -39H121L131 -36Q134 -36 134 -41Q134 -47 135 -48V-49V-51L136 -54L135 -55L136 -62L135 -64L137 -67L135 -70L137 -71L136 -77L137 -79L136 -83V-89V-94V-95Q136 -97 134 -97Q134 -95 127 -94L126 -95Q124 -93 117 -92H114L110 -88L111 -86L109 -79Q111 -79 113 -81H116Q116 -82 121 -84V-83V-84H125Q130 -84 132 -81V-79Q130 -75 128 -75H127L126 -76Q112 -72 112 -71L110 -70H108V-69Q108 -61 107 -59H108H111Q114 -59 123 -63L125 -62L128 -63Q133 -60 133 -59Q133 -55 126 -54Q116 -53 113 -51Q110 -51 107 -50L104 -49V-47Q104 -43 98 -33Q98 -29 80 -12L79 -13Q79 -15 83 -18Q93 -32 93 -37V-45Q94 -46 95 -50L94 -53V-55L96 -58L95 -60Q96 -62 97 -65L96 -67V-72V-76L97 -81Q94 -81 94 -90L91 -94Q92 -96 96 -99H98L101 -95H103Q108 -97 114 -97Q116 -100 131 -103Q131 -104 135 -105Q135 -106 141 -107V-109Q139 -112 139 -114L142 -118V-120L143 -122V-124V-125V-127V-131V-133L142 -136L143 -140H142V-141L143 -142V-143Q141 -144 140 -149L141 -152V-153Q139 -153 139 -158Q138 -158 137 -164Q136 -164 135 -169Q135 -171 137 -172Q141 -172 143 -170Q147 -167 148 -167Q149 -166 150 -166H152Q160 -163 160 -158Q158 -152 157 -152Q157 -149 158 -149Q162 -149 168 -153L172 -155H173Q174 -153 178 -152L179 -151H180L181 -152L180 -154V-156V-158V-161L179 -171L180 -173V-175L179 -176Q179 -172 176 -172Q176 -170 161 -166H160Q154 -170 152 -175Q150 -175 147 -180L148 -181H151L161 -184H163L165 -183Q175 -186 175 -187H177V-186Q178 -186 188 -196ZM96 -187H97Q99 -187 102 -181Q112 -178 112 -176Q114 -175 114 -172Q114 -170 109 -163Q107 -158 106 -153Q104 -153 102 -125L101 -124L102 -121L101 -120V-119Q102 -119 112 -125H113L114 -124V-123Q103 -113 99 -112Q99 -110 89 -102Q85 -98 79 -95Q79 -93 77 -92H76Q74 -94 67 -96L66 -95L67 -94Q66 -89 65 -89L67 -86V-84L65 -82L67 -81V-80L66 -77V-74L65 -72L66 -70L65 -63V-55V-51V-49L66 -45L65 -42L66 -38L65 -35V-34V-13V-12Q65 -8 61 1Q57 11 49 11L45 6L47 -2Q45 -5 45 -6H46L44 -11Q45 -11 46 -19L47 -21V-23L48 -26L47 -28L48 -36V-38V-40L49 -42Q49 -51 50 -54V-56L51 -58L50 -60L51 -62L50 -64L51 -68V-69V-78V-81V-85V-86V-91V-93V-97L50 -103L51 -105L49 -125L50 -129Q49 -129 49 -140Q47 -140 47 -143V-144H48L47 -150Q49 -153 51 -153Q58 -144 61 -144Q61 -143 64 -142Q67 -140 67 -139V-134L79 -138L83 -139H86H87L85 -143L86 -144V-147V-152L87 -153L86 -156Q88 -157 88 -158H87L75 -153H73Q71 -153 69 -159Q68 -159 60 -169Q60 -170 66 -171H70Q73 -172 85 -175L92 -182ZM171 -145H170Q170 -144 166 -143H163Q163 -142 159 -141H157V-139V-137L155 -123H156Q158 -125 171 -129H172Q176 -129 178 -126L179 -128V-131V-133V-135L180 -137V-139L181 -141L179 -144Q179 -145 180 -145H181V-146L180 -147Q174 -146 171 -145ZM67 -111L66 -104L67 -103Q82 -112 85 -112L86 -111H87V-112L85 -115L86 -117L85 -120L86 -123L85 -126V-127L87 -130L86 -131Q84 -129 71 -126L67 -125Z"/>
</svg>