<svg xmlns="http://www.w3.org/2000/svg" viewBox="0 -256 256 256">
	<path fill="#000000" d="M190 -190L201 -184Q204 -181 208 -179L210 -175Q209 -169 205 -162L204 -154Q202 -145 202 -137V-131L201 -128L202 -126L201 -124Q202 -124 203 -122L202 -119V-117V-115V-112V-108V-105V-104V-102L203 -101L201 -93L202 -89V-87L201 -83L202 -81Q202 -78 201 -78L204 -70L202 -66L204 -61L203 -59L204 -53V-49V-47V-45V-44V-41V-23L205 -20Q204 -1 202 -1Q198 9 192 11Q190 14 187 14Q185 13 185 11V9Q184 -2 181 -13L183 -17L182 -18L183 -25L182 -30L183 -33L182 -35L184 -38L183 -42L184 -49V-53L183 -57Q183 -60 184 -60V-65V-71V-72L183 -75L184 -84L183 -88V-90V-91V-94V-101L184 -104L183 -105L184 -110Q182 -114 182 -117V-127V-130L183 -134L182 -135H181Q179 -132 175 -132Q175 -131 168 -131L166 -129H161Q159 -127 147 -124V-123Q147 -122 151 -122Q157 -118 157 -117Q157 -116 154 -116V-115Q156 -114 157 -113H159Q160 -114 163 -114L165 -116H166Q176 -114 176 -113V-109Q175 -108 173 -108Q171 -108 171 -109L161 -107Q161 -105 165 -104Q165 -102 159 -94Q159 -92 156 -91L155 -90H156Q164 -94 167 -94H168Q169 -92 176 -91L177 -90V-88Q175 -86 172 -86H169Q168 -86 166 -84H164L156 -83H155V-81Q159 -81 159 -79L158 -75H159Q162 -77 171 -78Q176 -77 177 -74Q177 -70 170 -69V-70H169L166 -69H164L157 -67V-59Q155 -49 154 -40L155 -39Q150 -27 148 -27L146 -26Q145 -26 145 -34Q143 -35 143 -38L144 -42Q143 -44 143 -47V-53L144 -55Q143 -55 143 -59V-62V-63H142L132 -57H130Q126 -61 126 -63Q126 -64 131 -64Q131 -65 135 -66Q135 -67 143 -69L144 -74L143 -75L144 -78H142Q136 -74 132 -74Q132 -76 128 -77V-78Q129 -80 132 -80H133V-82Q133 -86 131 -97Q128 -97 125 -100Q127 -103 137 -105Q143 -107 145 -109Q143 -119 139 -122Q135 -126 135 -129Q144 -130 144 -132V-135L145 -137L144 -141L145 -144L144 -158L143 -161H144L143 -162V-167Q143 -168 140 -176V-179Q140 -184 143 -184Q146 -179 150 -179L152 -180H153Q175 -185 178 -185Q185 -190 190 -190ZM97 -185H98L111 -175H112L108 -165Q106 -153 105 -151V-149Q102 -143 102 -136Q102 -134 103 -134L112 -137H114Q116 -137 116 -135Q116 -133 107 -130Q106 -129 97 -124Q97 -123 94 -123Q94 -122 88 -120Q83 -115 78 -113Q78 -112 74 -111H73Q70 -113 70 -115H69V-113L68 -108L69 -105L67 -104L68 -102V-100L66 -98Q68 -96 68 -95V-92L67 -89V-87V-85V-84V-80L68 -74L67 -73V-70V-66L66 -65L67 -59L66 -57L67 -55V-53V-48Q67 -36 65 -32L66 -28L65 -23L66 -21Q65 -21 65 -14L62 -6Q55 2 54 2H52Q50 2 49 -14Q47 -15 47 -21L46 -22V-23L48 -27L47 -29V-30L49 -33V-35Q51 -61 53 -66L52 -68Q53 -72 53 -80V-85L54 -87L53 -90V-97L54 -99L53 -102Q53 -105 54 -105L53 -108V-123Q53 -128 54 -128V-132L53 -134L54 -137V-139Q54 -141 49 -149V-151Q49 -155 52 -155L57 -151Q60 -150 65 -145L71 -147H73Q76 -150 89 -152L91 -156L90 -159L91 -164L90 -165H89Q82 -161 73 -160Q73 -159 70 -159H68L61 -168Q59 -168 59 -171Q59 -172 61 -172Q68 -172 79 -176Q90 -178 92 -182ZM176 -176H168V-175H165L163 -174H161H158V-173Q161 -170 162 -167Q160 -165 160 -161L161 -159H162Q165 -162 171 -162Q171 -163 172 -163H175Q177 -163 179 -160V-158Q179 -155 172 -154Q172 -153 170 -153Q158 -153 158 -151L159 -148Q157 -148 157 -143V-141L155 -138Q155 -135 157 -135Q158 -137 171 -140Q172 -140 180 -142L181 -141H182L183 -142L182 -144L183 -147V-149L184 -153L183 -155L184 -159L182 -173L183 -175L181 -176ZM84 -142H82L80 -141L78 -142Q78 -140 72 -139L68 -140V-138L69 -136V-134V-133L70 -130L68 -127L69 -123L68 -121L71 -119Q71 -122 80 -124Q81 -126 89 -128L91 -142L88 -144ZM116 -122L126 -117L128 -115V-114Q126 -113 126 -111Q122 -109 121 -104Q119 -104 119 -102Q117 -102 117 -100L121 -96V-95Q119 -93 116 -93H114L112 -91L111 -92Q99 -89 97 -87Q95 -87 93 -85L94 -83L90 -77H89V-76L90 -74L92 -75H94H96H97Q101 -78 106 -80Q107 -81 111 -82Q111 -84 116 -86Q123 -83 127 -77Q127 -74 123 -71Q121 -66 118 -65L123 -59Q121 -57 114 -56Q114 -54 105 -54Q104 -52 102 -52V-53L96 -50V-47Q94 -41 92 -40H90Q89 -40 89 -43L87 -45V-67H86Q80 -59 69 -50V-51V-52Q75 -59 79 -69Q79 -72 82 -77V-81L84 -90Q85 -90 85 -94L82 -98V-99Q83 -102 85 -103H86Q90 -99 91 -99Q92 -99 94 -96Q96 -96 98 -95H99Q100 -95 104 -96Q104 -98 109 -98V-99V-104V-108H108Q108 -107 101 -106H100L98 -104H96L91 -109V-110Q91 -111 105 -115Q105 -116 111 -117ZM136 -99H133V-98Q133 -96 141 -93Q142 -91 142 -87V-85V-84H143Q147 -86 149 -86V-87L152 -104H151H149Q147 -103 143 -102Q143 -101 136 -99ZM95 -70Q95 -68 96 -67V-65V-62V-61V-57H97L105 -60Q110 -62 110 -70Q109 -74 108 -74L97 -71Q95 -71 95 -70Z"/>
</svg>