<svg xmlns="http://www.w3.org/2000/svg" viewBox="0 -256 256 256">
	<path fill="#000000" d="M132 -201H133Q134 -198 137 -198L138 -197H140Q141 -195 145 -194Q145 -193 149 -193Q151 -189 153 -186Q151 -185 151 -180Q150 -180 150 -178V-176L148 -172L149 -171L148 -169Q150 -166 150 -164Q148 -164 148 -160Q148 -156 149 -156H150Q151 -158 154 -158Q154 -159 156 -159H157Q157 -161 159 -161Q163 -161 170 -153L169 -148L170 -146Q168 -146 166 -140L164 -136L153 -130H152Q147 -127 145 -126L146 -125V-123Q145 -122 144 -116L145 -114L143 -113V-109H144Q145 -110 147 -110H148L151 -112H154L160 -116L162 -114L169 -117H172Q174 -117 178 -120L180 -119Q184 -122 188 -122Q188 -123 190 -124L192 -123Q193 -126 195 -126Q202 -126 208 -122Q210 -122 212 -118V-114Q212 -112 208 -107H206Q204 -109 200 -109H190L189 -110L185 -108L181 -109V-108L178 -109H177Q177 -108 166 -106Q159 -104 156 -104Q156 -102 149 -101Q148 -99 146 -99L145 -100L143 -99H141Q141 -98 138 -98V-97Q138 -95 145 -95Q145 -92 152 -90Q155 -86 155 -85L154 -79L155 -78L154 -67H155Q156 -67 156 -68L157 -69H164Q166 -71 174 -71Q174 -69 178 -68L183 -63V-61Q179 -56 179 -54L173 -55L170 -54L166 -56L164 -55H163L161 -56L159 -55L157 -54L155 -55Q154 -55 154 -53L155 -52L154 -50V-40V-35V-31L153 -30V-29V-23H154H155Q155 -21 164 -19Q164 -18 169 -17L177 -14H178Q178 -12 184 -12L186 -13Q186 -10 197 -9L204 -7H208L213 -5H221Q226 -3 229 -1H232Q237 0 237 1V3L236 4H233H231Q230 4 227 6H223V7H222L221 6Q219 8 217 8Q217 10 204 14L200 17L199 16L195 20H193Q188 17 184 16Q184 15 181 15Q181 13 177 13Q175 9 171 9Q171 8 167 7Q156 0 150 -2Q150 -3 144 -7Q144 -8 140 -8Q140 -10 135 -13Q134 -14 123 -23Q120 -23 118 -26Q116 -26 113 -30Q111 -31 108 -32Q107 -34 106 -34Q105 -34 104 -29L102 -28V-26Q102 -25 100 -25Q98 -19 92 -12L89 -8Q85 -1 70 13L59 24L57 25V24V22Q66 13 72 4Q73 1 77 -2Q77 -5 83 -11Q83 -14 90 -24Q92 -27 92 -31Q94 -33 97 -40L98 -41V-42Q93 -42 93 -46Q93 -48 96 -49L101 -48L105 -54L109 -66V-67V-68L110 -69V-70Q109 -71 109 -75V-76V-77L114 -74H115Q115 -71 122 -71Q123 -69 124 -63L118 -54Q117 -54 114 -48L111 -45H112Q117 -45 119 -42Q120 -42 125 -37Q130 -37 130 -34L132 -35Q132 -33 138 -33L139 -34V-36V-43V-45Q140 -45 140 -48V-49V-53L141 -63L140 -66L141 -67L140 -70V-73L141 -75Q139 -80 138 -80L139 -82V-84Q139 -86 135 -86Q133 -86 133 -94L131 -95L127 -92Q124 -92 123 -90H121L120 -91Q120 -89 115 -88Q115 -87 112 -86Q112 -84 108 -84H107Q107 -82 103 -81L100 -78Q89 -81 89 -86L86 -89V-92Q86 -93 98 -95L102 -97V-96L113 -100L115 -99Q119 -104 126 -104Q130 -105 130 -108L131 -111L130 -113L131 -117Q126 -118 123 -122Q121 -122 117 -128Q115 -128 103 -140V-141Q103 -142 109 -143Q109 -144 116 -144L117 -145V-144Q119 -146 123 -147L124 -148H127V-147H128Q128 -149 131 -149L132 -150V-152V-155V-156V-159V-168V-172Q132 -188 129 -188Q127 -188 127 -191V-193Q127 -195 132 -201ZM78 -170L93 -166Q95 -163 97 -157Q94 -148 89 -148Q87 -144 79 -141Q75 -135 75 -133L74 -134Q70 -131 64 -124Q64 -122 61 -120V-118Q71 -113 74 -109Q81 -99 81 -95V-86L80 -84L81 -83V-81Q80 -81 80 -76L78 -72Q77 -72 77 -69Q73 -65 69 -65Q68 -66 68 -70Q59 -77 57 -79Q55 -79 51 -82H50Q49 -82 49 -79H48L49 -77L48 -72L49 -71L48 -62V-51L49 -48L48 -43L49 -41L48 -38L49 -36L48 -34L49 -24V-23V-19V-17V-15L50 -11V-7V-6V-4V0V4V6Q47 17 39 22H37Q33 19 31 8V3V0V-1V-8V-9V-11L33 -24V-26V-31V-34L34 -38V-39L33 -43Q34 -43 34 -45L33 -50L34 -54L33 -59V-60V-66V-67V-69V-72V-74V-78V-82V-84V-86V-94V-95V-97Q32 -104 30 -106Q30 -108 27 -111V-114Q27 -115 29 -116Q31 -116 39 -110Q41 -110 47 -103L49 -102L48 -91Q48 -86 51 -86Q61 -86 61 -87H63H64V-88V-90L65 -95L64 -98Q63 -101 62 -109Q60 -109 58 -117L59 -118L58 -119Q60 -125 61 -134L62 -135L61 -138Q63 -140 63 -142V-143H62Q56 -136 49 -134Q48 -132 41 -128L40 -127H39Q34 -133 32 -134Q26 -141 19 -146Q19 -150 28 -150Q47 -153 51 -157Q52 -157 55 -159Q61 -159 74 -169Z"/>
</svg>