<svg xmlns="http://www.w3.org/2000/svg" viewBox="0 -256 256 256">
	<path fill="#000000" d="M113 -190Q120 -188 123 -188Q123 -186 130 -186Q130 -185 136 -184Q142 -180 149 -176Q154 -170 154 -168L153 -167V-166L154 -165V-163Q152 -159 152 -151V-150Q152 -149 151 -147V-145L152 -143Q154 -143 156 -145H159Q164 -147 170 -148Q170 -149 173 -149H175Q175 -151 179 -151L181 -152L183 -151L187 -155L188 -154Q188 -155 193 -158H196Q206 -156 215 -152L220 -146V-144Q216 -139 213 -137H210H208L205 -139H201H199H197H194H192H190H189H188H187L186 -140L183 -139H182H178H173Q168 -136 161 -136L160 -137Q158 -135 152 -135L150 -133H148L141 -132Q141 -131 139 -131H138L134 -129L130 -131Q130 -129 125 -127Q130 -125 130 -122L131 -123Q137 -123 138 -121Q145 -120 145 -117L143 -109L144 -108L143 -105V-99H144H149H151L154 -100L159 -99L160 -100Q160 -99 165 -97L170 -93Q178 -85 178 -78V-74Q174 -66 169 -66Q163 -66 160 -77L153 -86L145 -96H144L143 -95V-93L144 -91L143 -89V-87V-78V-76L142 -74L143 -73Q143 -61 142 -61L143 -59H142L143 -56V-50V-46L142 -41L143 -35L142 -31L143 -28L142 -27L143 -22V-8Q141 3 136 8Q132 15 129 15H128Q127 15 126 8L122 -3L123 -7L122 -9L123 -12L122 -14L123 -26V-66V-78V-81L122 -83L123 -86L122 -87V-89L121 -95L122 -96L121 -99V-101L122 -104Q122 -108 120 -111V-114Q119 -124 116 -124Q109 -122 102 -122L100 -120H98L97 -121Q92 -117 87 -117L82 -115L76 -112H74Q68 -108 60 -104L53 -100Q49 -100 40 -113Q38 -113 35 -117V-118Q36 -120 40 -120Q41 -121 49 -121Q49 -122 58 -123Q59 -124 70 -126H75Q84 -130 91 -130L98 -133H100L106 -135L109 -134Q109 -135 113 -137V-138L116 -137L119 -138L125 -137V-138V-139Q123 -141 123 -148Q121 -148 120 -158Q119 -160 113 -168Q104 -179 104 -181V-183Q104 -185 108 -187Q108 -188 113 -190Z"/>
</svg>