<svg xmlns="http://www.w3.org/2000/svg" viewBox="0 -256 256 256">
	<path fill="#000000" d="M143 -187H144Q153 -180 158 -180L160 -179L163 -180Q169 -175 169 -172V-167Q166 -162 157 -160V-158Q152 -155 145 -146Q143 -145 141 -143V-142H142L150 -146Q163 -152 168 -152Q185 -161 187 -161Q190 -157 193 -156Q193 -154 202 -153Q204 -149 207 -146V-145Q204 -136 202 -136L193 -117L189 -108Q188 -108 188 -104Q175 -90 173 -90Q170 -90 169 -95V-99L164 -100L163 -99H160L159 -98L156 -99Q155 -99 153 -96H151Q151 -94 143 -94Q139 -91 133 -90L128 -88V-86Q128 -84 122 -77Q118 -77 118 -83Q116 -83 115 -88Q113 -88 112 -97L111 -98L112 -101Q110 -101 107 -113Q104 -117 101 -127Q98 -129 98 -131Q98 -140 100 -140H101Q107 -139 115 -134H116L118 -136H120L121 -135Q126 -138 126 -142Q127 -142 130 -149L129 -150L131 -152V-154Q133 -154 136 -166L138 -171Q138 -176 135 -180Q135 -183 142 -186ZM89 -179H90Q92 -176 93 -174Q96 -171 103 -169Q104 -166 106 -165L105 -163L106 -158Q104 -153 92 -144Q79 -133 79 -131Q79 -130 71 -124L70 -120Q74 -120 81 -116Q85 -116 91 -108Q96 -95 96 -89V-83Q96 -72 83 -64H82L80 -66L81 -68Q79 -70 78 -74L70 -83Q68 -83 60 -88V-89Q60 -90 62 -90Q68 -90 70 -88H71Q72 -89 75 -89Q77 -91 77 -94Q77 -96 75 -98V-99L76 -102Q75 -105 73 -107V-109L69 -116L66 -119V-120Q68 -124 70 -132Q71 -132 72 -138L71 -139Q73 -139 74 -147H73Q72 -147 70 -143Q68 -143 60 -138L54 -132H53Q50 -132 49 -135L36 -141Q33 -141 32 -146V-148Q34 -152 42 -152Q42 -153 50 -155L52 -157L53 -156Q61 -158 64 -161Q77 -163 77 -168L84 -175ZM147 -136H142Q142 -133 128 -130L125 -127H124L125 -122L124 -117Q125 -114 126 -113V-112L125 -111V-110L127 -98Q127 -96 128 -96Q130 -96 143 -102Q145 -102 150 -104Q158 -108 172 -111Q172 -120 174 -120L173 -122L174 -126L175 -133V-135L176 -137V-138L175 -141L176 -143L175 -144Q171 -144 164 -141L156 -140Q154 -140 153 -138Q149 -138 147 -136ZM153 -129L163 -126H164V-124Q163 -121 158 -121L154 -120Q154 -119 150 -118Q150 -117 145 -116Q142 -113 136 -112Q128 -113 125 -116Q128 -118 135 -121L146 -125Q149 -125 153 -129ZM39 -127H43Q46 -123 46 -122H47H49L56 -118L58 -114L57 -111V-106L56 -105L58 -103L56 -101Q58 -100 58 -99V-98L59 -95L58 -94Q58 -92 59 -83H60L59 -80V-77L60 -76Q60 -57 62 -50V-47Q62 -36 64 -31L63 -27H64V-10V-7V-5V-2Q57 11 52 11Q47 7 47 0Q46 0 46 -3V-4L43 -9L46 -22L45 -27V-28L46 -30V-31L47 -49L46 -50V-57V-63V-66L47 -70Q46 -73 45 -75L46 -77L45 -84V-87V-89Q45 -91 44 -91L45 -95L44 -98L45 -99Q43 -103 42 -112Q41 -112 41 -116Q37 -122 37 -125ZM168 -86H173Q179 -86 179 -81Q179 -75 170 -74Q167 -74 164 -71Q161 -71 161 -68Q161 -67 165 -67L166 -66V-63Q166 -61 164 -59V-57Q168 -60 170 -60L172 -59L174 -60Q180 -60 182 -55V-53L179 -49H176L174 -50Q166 -46 164 -46L163 -30L165 -29L170 -31H172H174H175L177 -32L181 -31L183 -33H186L192 -34L195 -33L196 -35H198Q208 -33 208 -31L211 -32Q212 -31 217 -30Q223 -26 223 -21V-20Q220 -14 219 -14H217Q214 -14 211 -17V-16H209L208 -18H203L198 -20L192 -19Q190 -22 182 -22L177 -21H176L173 -19L165 -21L161 -20V-21H160L159 -20L157 -21L155 -19Q150 -20 149 -21Q147 -18 137 -18Q137 -16 130 -15L118 -10L115 -11H114Q110 -8 106 -8Q106 -7 103 -6Q103 -5 98 -5Q98 -3 95 -2L91 1H90Q88 1 87 -3Q83 -7 77 -9Q77 -11 85 -12Q91 -14 94 -14H95L109 -17H110L122 -21H123H125Q127 -23 130 -23L133 -22Q133 -23 141 -24V-25L144 -24Q144 -25 147 -26V-27L146 -30L147 -32Q146 -32 146 -34L147 -36L146 -37L147 -41H146Q145 -39 140 -37H139V-38H138L136 -35H135L133 -36Q133 -32 130 -32Q128 -32 124 -36Q124 -38 121 -38L120 -39V-40Q120 -41 123 -41Q123 -42 127 -42Q127 -44 132 -45L136 -46H137Q139 -48 144 -48Q144 -50 147 -50L146 -56V-58V-60V-61H145H141Q140 -57 134 -57H133L127 -61Q127 -63 120 -67V-68Q120 -69 133 -73L136 -74H139Q139 -75 152 -80L164 -84L166 -83Q166 -84 168 -86Z"/>
</svg>