<svg xmlns="http://www.w3.org/2000/svg" viewBox="0 -256 256 256">
	<path fill="#000000" d="M152 -188Q153 -188 160 -182Q165 -180 165 -179L167 -180Q174 -180 174 -167Q173 -167 170 -162Q168 -162 166 -160H165L163 -161Q159 -158 157 -158Q156 -155 152 -154Q151 -154 146 -151Q143 -151 141 -148Q132 -142 129 -140H125Q125 -136 117 -133Q117 -132 113 -131L114 -127Q106 -120 103 -120L97 -115Q93 -115 93 -112Q89 -111 85 -107Q78 -109 75 -111Q71 -113 66 -119H65Q61 -112 57 -108L48 -98L42 -91Q42 -90 40 -90H39V-91Q39 -92 44 -96Q49 -104 51 -109Q53 -109 53 -114Q56 -115 57 -122V-124Q60 -129 61 -134Q62 -134 63 -140L65 -143Q66 -143 66 -145L67 -146L66 -147V-149L68 -151Q66 -154 66 -156V-158Q65 -158 63 -162Q62 -162 60 -165V-166Q61 -167 61 -171Q66 -174 71 -174H72Q75 -170 77 -170L83 -166L84 -167H86Q90 -161 91 -158V-156Q91 -148 81 -145Q78 -142 77 -138Q75 -137 68 -123V-122H69Q70 -122 75 -124Q76 -125 84 -128L89 -130Q89 -131 93 -131Q93 -132 98 -133Q98 -134 102 -135Q104 -134 109 -134L111 -132Q112 -132 113 -134Q115 -134 125 -146L134 -158Q134 -160 138 -163Q138 -165 141 -169Q146 -175 146 -177L145 -179H143L141 -180V-184Q142 -185 152 -188ZM180 -167Q183 -164 193 -163Q197 -161 197 -155L189 -149Q187 -149 186 -144Q183 -144 183 -142H186Q187 -143 194 -145Q196 -147 203 -149Q203 -148 206 -148Q209 -145 210 -144Q210 -141 206 -140H197Q196 -138 190 -137H189H188L186 -138Q184 -135 181 -135V-133Q185 -130 188 -130Q194 -126 194 -120V-119H195L200 -121L203 -122L207 -118V-117V-114Q207 -111 195 -110Q195 -109 191 -109Q191 -108 189 -107L190 -103Q189 -99 189 -95Q195 -97 199 -97L201 -99L206 -96L209 -92Q209 -86 195 -85Q189 -85 188 -81L189 -76L188 -68H189L188 -60V-57L189 -55L210 -59H212L215 -61H221Q230 -57 234 -51V-49Q234 -45 228 -42H227L224 -43L219 -42L215 -43H213H210H206Q203 -43 203 -44L201 -43H198L195 -42L190 -43L188 -42H186H178L176 -41H173Q171 -40 170 -40H166L164 -38L160 -39Q154 -37 147 -36Q147 -35 143 -34L142 -31L143 -28L142 -26L143 -23L142 -20L143 -18V-17Q143 -16 142 -16V-14H143V-10L144 -7L143 -3L144 -2Q144 9 136 12H135L132 9V4L130 2L132 0L131 -1L132 -3Q132 -10 130 -13V-16L129 -20L130 -23L129 -25L131 -26V-27L130 -28L131 -32L130 -36L132 -38L130 -40V-41L132 -44L131 -47L132 -49L131 -51L133 -52V-53Q131 -53 130 -56L131 -58L130 -61L131 -63Q130 -63 130 -72V-76V-81V-82L131 -85V-86Q130 -88 130 -90L131 -92L130 -97L131 -108L130 -111V-117V-120Q130 -127 128 -131Q128 -133 127 -136H129Q130 -136 141 -128Q145 -126 146 -125V-121L143 -118L144 -116V-113L143 -111L144 -109L143 -107L144 -105L143 -104L144 -98L142 -91L143 -88L142 -87L143 -84Q142 -84 142 -81V-79L143 -76L142 -73L143 -72V-71L141 -69L142 -68V-66V-63L141 -62L142 -60V-58L143 -56L141 -54L142 -52V-51V-47L143 -46L148 -48H150Q158 -49 161 -50L163 -49Q163 -50 168 -50Q173 -51 173 -53L172 -54V-58V-62L173 -64L172 -67V-68L173 -69V-70L172 -71V-72L173 -73L171 -78Q165 -76 161 -74H159Q154 -75 148 -80V-81L161 -84Q162 -85 172 -87L173 -89L172 -92L173 -95V-96Q173 -98 171 -101L172 -105Q170 -102 163 -101L162 -100H159L157 -101L156 -100Q148 -102 148 -103V-104L154 -105Q154 -106 157 -106Q157 -107 166 -109Q166 -110 172 -111H173V-112Q171 -113 171 -115V-117L173 -120Q171 -121 167 -128V-130L157 -126L156 -125H153L145 -129V-130Q145 -131 150 -131H152Q153 -132 160 -134L165 -135H167Q167 -136 171 -137H172Q175 -141 176 -147L175 -148L177 -153L173 -161V-163Q177 -167 180 -167ZM73 -102Q76 -98 78 -98Q86 -95 89 -95V-92V-90H90Q94 -93 99 -94Q107 -99 109 -99Q113 -97 118 -96Q118 -95 121 -95L122 -92Q122 -91 118 -89H113L107 -87L98 -85Q98 -83 87 -80Q86 -78 84 -71V-70V-69V-67L83 -66Q83 -65 93 -63Q94 -62 100 -61Q102 -58 106 -57L108 -54V-52L107 -51V-50V-51H108Q111 -51 111 -48L113 -43Q111 -34 107 -34H106Q96 -36 96 -42L90 -50L88 -54Q82 -62 80 -62L81 -60L80 -59V-58L81 -57Q80 -55 79 -54Q79 -48 74 -39Q74 -36 71 -36Q66 -27 64 -26Q60 -18 44 -6L35 0H34L33 -1V-2Q48 -13 48 -18Q51 -20 54 -26Q62 -36 64 -46Q66 -47 66 -50V-53L68 -55L67 -56L68 -59V-60V-65V-70H67L56 -64Q42 -54 37 -54H36Q34 -54 29 -55Q29 -56 26 -57L24 -56L21 -59V-60Q21 -62 28 -62Q33 -65 37 -66Q39 -68 44 -69Q44 -70 54 -73Q54 -75 57 -75L58 -74Q61 -77 69 -81L71 -83Q68 -83 68 -91L64 -96L68 -101H70V-100Z"/>
</svg>