<svg xmlns="http://www.w3.org/2000/svg" viewBox="0 -256 256 256">
	<path fill="#000000" d="M140 -191H141L145 -189L147 -190Q158 -187 158 -183Q158 -177 149 -174Q147 -171 134 -167L128 -164Q131 -160 131 -158Q131 -154 129 -150H131Q140 -152 144 -152H145Q151 -152 151 -153H153L154 -154Q161 -154 178 -158Q183 -164 187 -164L191 -160Q191 -159 194 -159Q196 -155 202 -155Q205 -155 207 -147Q207 -140 197 -137Q193 -139 192 -139H187Q179 -139 171 -132Q171 -131 165 -129V-130Q173 -140 176 -148L173 -147L168 -148L167 -147H166H164Q164 -146 159 -145V-146H158L155 -144L153 -146H151L149 -145L147 -146Q144 -144 129 -142V-141V-139V-133V-129V-124V-123V-120L128 -114V-112V-110V-104Q128 -90 122 -85L120 -83L121 -82Q126 -85 129 -85H130Q130 -87 138 -88Q138 -89 149 -93Q151 -96 153 -96H154Q156 -96 159 -94Q161 -94 163 -92V-93Q170 -93 173 -88V-84Q173 -82 169 -77Q165 -63 165 -60Q163 -58 163 -57V-52Q162 -52 162 -49Q161 -49 161 -44H160L161 -42L159 -38L160 -37L159 -35V-32Q158 -32 154 -21Q145 -10 141 -10Q139 -10 139 -16L138 -20L137 -21V-23Q131 -27 129 -29V-30L130 -31L138 -30H139Q143 -32 143 -38L146 -50L147 -51L146 -54L147 -56V-57Q147 -58 148 -70H149L148 -72V-73L150 -76Q149 -81 148 -81H147H145H143Q141 -80 131 -78Q131 -77 118 -74L116 -72Q113 -72 107 -77H106Q104 -74 100 -71Q100 -70 96 -66L86 -58Q74 -50 62 -39L57 -35H55L54 -36Q74 -54 76 -58Q84 -67 88 -74L91 -80Q91 -83 82 -90L81 -94V-95L90 -98L101 -104L111 -109L113 -110L112 -116V-126Q112 -136 108 -136H107Q101 -133 95 -132Q95 -131 90 -131Q83 -127 73 -125Q73 -123 69 -123V-122L71 -117Q70 -110 69 -110V-107Q67 -97 64 -94Q64 -91 55 -86Q51 -88 50 -91L48 -100L49 -106V-107Q53 -117 53 -122L54 -128V-137L52 -142V-144H53Q56 -141 62 -136L65 -133L81 -138Q81 -139 89 -140L105 -144Q111 -145 111 -147Q111 -155 110 -155H109Q106 -153 103 -153Q95 -163 86 -170V-171V-172Q86 -174 94 -175L103 -178L111 -181Q119 -185 124 -185L128 -186Q128 -188 134 -188ZM145 -133Q157 -131 157 -128V-127Q157 -124 151 -121H150L141 -126Q134 -128 134 -129V-130Q134 -132 145 -133ZM92 -122Q93 -121 102 -120Q106 -117 106 -114Q104 -111 98 -108Q96 -108 91 -112Q87 -115 82 -116V-117Q84 -120 92 -122ZM144 -113Q155 -112 155 -111H156Q160 -109 160 -107V-104Q156 -100 151 -99Q145 -103 144 -103Q143 -103 139 -106Q136 -106 136 -108Q136 -111 141 -111Q141 -112 144 -113ZM92 -87L93 -85L94 -86H95Q98 -83 106 -79V-78Q109 -78 114 -80H116V-81Q114 -85 114 -95L113 -97L114 -100L112 -102L113 -104L112 -106Q107 -104 104 -99Q98 -95 95 -89ZM130 -68L138 -63L139 -60V-59Q133 -54 130 -48Q129 -48 129 -45Q132 -42 132 -41Q132 -39 129 -37L126 -38Q119 -33 115 -33Q115 -32 108 -30L106 -29L101 -31H100Q100 -29 98 -26V-14Q99 -12 99 -9V-7L102 -2L104 0H111H113H115H118H122H125L138 -1H139L142 -2L143 -1L177 -5H179Q188 -6 188 -7Q193 -14 193 -23V-27L194 -28H195Q197 -24 197 -13V-12L204 -4L207 -1Q207 9 203 9Q200 11 191 13L189 12L187 13H184L175 15L171 14L170 15H163L161 16L158 15H143H142H140H136H132Q132 14 129 14L128 15L125 14L119 15Q116 15 116 14H113L98 12Q91 8 91 6Q88 2 88 -3L87 -9L88 -13L87 -16V-25V-27Q87 -36 83 -41Q84 -43 85 -44H86L93 -41Q100 -40 100 -36H101L111 -40Q118 -41 118 -43L120 -50V-52L122 -53L121 -57H120Q118 -55 115 -52Q113 -52 110 -50Q109 -50 107 -49H106Q102 -54 97 -54V-55Q97 -57 102 -57Q107 -59 116 -63Q116 -64 124 -66Q124 -67 130 -68Z"/>
</svg>