<svg xmlns="http://www.w3.org/2000/svg" viewBox="0 -256 256 256">
	<path fill="#000000" d="M101 -184Q113 -182 115 -180Q116 -180 118 -179Q121 -177 121 -175V-174Q119 -166 116 -166Q116 -165 114 -165H112Q112 -162 101 -158Q100 -156 94 -153L83 -146H81L70 -152Q69 -152 65 -156Q63 -156 59 -161Q57 -161 57 -162V-163L86 -177Q87 -177 94 -180Q97 -180 101 -184ZM193 -169Q195 -169 202 -162Q210 -160 210 -156Q211 -154 211 -150Q209 -140 207 -135V-132Q206 -131 205 -122Q201 -107 199 -104Q193 -90 186 -82Q185 -82 179 -76Q174 -73 172 -73H171Q170 -73 168 -78V-80L165 -91Q159 -99 156 -99H155V-75V-72V-71V-70V-59V-42Q153 -42 152 -25Q151 -25 151 -19Q150 -19 149 -12Q147 -10 144 2Q143 7 140 8L139 7V-9L141 -10L140 -13L141 -14L140 -16L141 -18L140 -19V-23H139V-44L140 -46L139 -47V-50V-60V-64V-65V-67V-69V-71L138 -76V-80L137 -99L138 -100L137 -104L138 -107L136 -110L137 -113L134 -129L130 -132V-133L132 -135V-136L125 -143V-144Q125 -145 134 -147Q137 -147 140 -149L156 -154Q160 -154 164 -156Q167 -156 169 -158H171Q173 -159 181 -163Q184 -164 193 -169ZM172 -148H171V-149Q162 -148 150 -141Q148 -141 146 -139L144 -140L140 -136Q146 -135 146 -133L149 -134Q152 -134 157 -128V-127Q155 -122 155 -119V-112L154 -110L155 -108V-102Q159 -102 166 -100Q171 -100 173 -98Q175 -98 178 -109H179V-110L181 -124H180V-125L181 -127V-128L183 -140V-145L184 -149V-150Q184 -151 182 -151Q181 -150 177 -150L174 -149ZM111 -138Q111 -136 119 -135Q121 -133 121 -131V-129Q119 -125 116 -125Q116 -123 107 -120Q98 -114 96 -114Q96 -113 88 -109Q85 -107 82 -107Q79 -103 76 -103H70L68 -98L69 -95L67 -81L68 -80Q68 -77 67 -73Q67 -72 68 -72Q72 -75 76 -77H79Q87 -81 88 -83Q92 -83 98 -87L104 -90Q116 -96 121 -96Q122 -96 124 -93Q123 -90 116 -86L110 -82Q108 -82 104 -78Q93 -73 88 -68Q84 -68 76 -58Q69 -46 64 -41H61Q53 -42 53 -48L49 -57L53 -75V-76V-78V-80Q52 -91 51 -94V-97Q51 -103 49 -110V-112Q46 -120 44 -122V-123L47 -126H49Q50 -124 58 -122Q58 -121 64 -120L67 -118H68Q68 -121 89 -130Q94 -131 98 -134L103 -135Q108 -138 111 -138Z"/>
</svg>