<svg xmlns="http://www.w3.org/2000/svg" viewBox="0 -256 256 256">
	<path fill="#000000" d="M109 -190Q111 -190 113 -187Q115 -187 118 -185Q129 -184 129 -178L130 -176L127 -166V-162L125 -159L126 -158L125 -155V-154L126 -153L125 -149V-144V-142L126 -141Q128 -141 138 -153Q152 -168 154 -175Q154 -178 151 -181Q151 -182 157 -185H162Q162 -184 178 -180Q183 -178 183 -175V-172Q180 -162 172 -162Q165 -162 159 -158L141 -147L131 -141Q130 -140 125 -135L126 -134L137 -139Q139 -139 147 -143H149Q159 -140 159 -136V-135Q159 -133 154 -129H151Q138 -126 138 -125H137L135 -126H134Q134 -123 128 -123Q128 -122 123 -121H122L120 -119L121 -118V-117L120 -114V-111L119 -109V-106V-103L120 -102L137 -107Q147 -108 147 -110Q155 -110 162 -114H167Q169 -112 174 -112Q178 -108 179 -106Q179 -104 176 -101H173L171 -100L161 -101H160H156Q152 -101 150 -99L147 -100L140 -99H135V-97L140 -93Q141 -91 146 -89Q153 -82 164 -76Q166 -72 171 -71Q171 -69 176 -69Q185 -61 200 -56Q202 -56 205 -54L213 -52Q213 -50 218 -50Q218 -48 223 -48Q226 -45 239 -42V-41Q239 -40 225 -38Q219 -36 217 -35Q209 -33 202 -28L197 -26H195Q193 -27 191 -31Q186 -31 184 -36Q175 -40 164 -51L156 -56Q152 -56 151 -46Q150 -46 148 -41Q147 -33 144 -26L137 -18L131 -16Q129 -16 128 -23Q127 -23 126 -26Q124 -26 123 -29Q120 -30 119 -32Q119 -33 121 -34L128 -33Q132 -37 132 -47L133 -48L132 -52L134 -55Q134 -62 131 -62H130L126 -61H124Q124 -59 122 -59L120 -60L118 -58H116H115Q111 -54 108 -54Q108 -52 104 -52Q103 -54 100 -55Q93 -50 93 -47Q73 -27 61 -21Q57 -17 21 0L18 1H17L16 0L28 -6Q28 -7 31 -8Q31 -9 38 -12L47 -18L50 -20Q61 -30 64 -32Q64 -35 68 -36L74 -46Q77 -47 85 -61Q88 -64 91 -72Q93 -72 93 -77Q95 -77 95 -78H94V-79L96 -83V-84H95Q92 -81 88 -81Q84 -78 74 -73Q74 -72 70 -72Q70 -71 68 -71Q66 -69 63 -68L61 -67H58Q57 -67 54 -72Q51 -73 43 -79V-80Q43 -81 53 -83L54 -84H56L74 -89H75Q83 -91 85 -93Q86 -93 86 -94L88 -93Q103 -96 103 -99L105 -109V-111L104 -112H103Q102 -110 99 -110Q91 -104 90 -104Q88 -109 83 -113Q79 -114 78 -117L85 -119Q85 -120 88 -121H91L100 -126H104Q108 -127 108 -130L109 -137L108 -139V-140L110 -144L109 -146L110 -154L109 -158L110 -162V-168L107 -174L109 -175L107 -180Q102 -180 102 -182Q104 -190 109 -190ZM72 -160L77 -158L79 -159L92 -154L93 -155L101 -147Q101 -145 102 -143V-140L100 -131Q97 -128 93 -128L92 -129L89 -128Q84 -132 76 -143Q65 -156 65 -158Q66 -159 72 -160ZM111 -79V-77Q105 -68 104 -64Q103 -64 101 -59L102 -58H103Q104 -59 111 -62Q129 -70 132 -71Q132 -72 138 -73L140 -72H142V-73L134 -82Q132 -82 129 -88Q124 -90 124 -95H122Q120 -92 116 -91Q113 -81 111 -79ZM98 -49H101L105 -46L107 -47Q114 -41 114 -39V-37L113 -36L114 -33V-31Q114 -28 112 -27L113 -23H112L113 -22L111 -18L112 -15L111 -11Q111 -1 115 2H120H122L124 1L125 2Q127 0 134 0Q137 0 144 -1H145Q148 -1 148 -2L150 -1L155 -2Q165 2 165 5Q165 10 160 12Q158 13 157 13H155H147V14L144 13L139 14V13V14H138L130 13L123 14Q115 13 108 11Q99 4 99 -3Q98 -3 98 -7Q97 -7 97 -10Q97 -11 98 -17V-20Q98 -23 99 -27L98 -31V-37Q96 -43 96 -46Q97 -49 98 -49Z"/>
</svg>