<svg xmlns="http://www.w3.org/2000/svg" viewBox="0 -256 256 256">
	<path fill="#000000" d="M115 -200Q124 -200 126 -192Q124 -188 120 -188Q105 -182 101 -179Q99 -168 96 -161V-160H93Q93 -158 91 -158H88L84 -156Q91 -153 91 -152V-150Q84 -141 79 -141Q79 -137 73 -135Q62 -126 58 -124Q58 -123 48 -117H47L46 -118Q46 -120 56 -126Q56 -128 60 -131Q69 -141 74 -148L76 -153H77Q74 -156 74 -158H76H78H82L83 -161V-165L82 -167L83 -169V-170V-172V-175L84 -176L83 -179V-182L82 -188Q77 -190 77 -193Q78 -200 82 -200H85Q88 -196 104 -194L106 -193L112 -197Q112 -199 115 -200ZM172 -199L178 -193Q180 -193 182 -190L186 -189Q190 -189 191 -183Q189 -176 185 -176L175 -169Q175 -168 169 -163L158 -150L163 -149H164Q166 -148 177 -147L190 -140L194 -134V-132Q193 -128 188 -124H186Q181 -125 178 -129L169 -135Q168 -135 166 -138Q163 -138 160 -141Q158 -141 156 -144Q155 -144 154 -145H153Q149 -141 128 -128Q127 -128 126 -126L133 -122L134 -121H137L154 -109Q159 -108 165 -103Q166 -103 184 -93L199 -86L203 -85Q203 -84 208 -83Q208 -82 213 -82Q215 -80 220 -80Q226 -76 232 -76Q232 -74 240 -74H244L245 -73L243 -71H241L238 -70L236 -71L233 -70L228 -71Q210 -68 209 -67L201 -62H199Q193 -66 189 -67Q189 -68 184 -69Q182 -72 179 -72Q178 -75 168 -81Q167 -82 163 -84Q161 -86 159 -90Q158 -90 150 -99Q146 -100 146 -103L131 -115H130Q129 -113 128 -113H127Q124 -113 98 -86Q97 -86 93 -80Q91 -80 88 -74Q86 -73 81 -68L78 -64L65 -55Q64 -54 61 -52Q61 -50 51 -45L42 -40Q39 -40 32 -34L29 -32L26 -30Q24 -30 19 -27Q16 -27 12 -23L11 -24Q12 -27 16 -28L35 -40L53 -54Q58 -57 65 -65Q67 -65 73 -72Q76 -74 84 -84Q99 -99 99 -101Q100 -101 107 -111Q113 -117 113 -123H115L113 -127Q114 -130 115 -131H118Q120 -128 122 -128Q130 -131 134 -136L145 -147L146 -148V-149L143 -148Q136 -149 128 -152V-153L129 -154H130L140 -153H146L147 -152Q151 -155 153 -160Q155 -162 158 -171L159 -172V-174H155Q151 -171 149 -171Q147 -171 144 -173Q142 -173 141 -176Q139 -176 137 -178Q137 -179 141 -180Q141 -181 145 -181L163 -191ZM108 -160L121 -151Q120 -142 116 -142Q116 -140 111 -139V-137Q106 -132 104 -131Q104 -129 103 -127Q103 -124 105 -119Q105 -117 107 -115Q107 -111 102 -109Q97 -112 92 -116L83 -107L77 -102Q77 -101 72 -97Q62 -88 53 -83H52L51 -84L62 -93Q81 -111 85 -117L87 -118Q84 -120 81 -123Q80 -123 77 -126Q73 -126 73 -127V-128Q73 -129 75 -129Q80 -129 82 -127H83L92 -126L100 -140Q100 -143 103 -148V-149H99Q96 -150 96 -151V-152Q100 -155 103 -155Q103 -158 108 -160ZM130 -102H138L139 -101V-99Q137 -97 137 -95Q134 -93 130 -92H127Q124 -90 123 -90L116 -94V-95Q116 -96 120 -97Q120 -98 126 -99L127 -100H129Q129 -102 130 -102ZM148 -89H150L151 -88V-86Q154 -86 160 -81Q165 -80 165 -77Q165 -75 158 -64L154 -55Q150 -36 145 -36Q145 -34 143 -34L142 -32H141Q140 -32 139 -35L142 -39L141 -40H140Q137 -38 133 -38L121 -33L114 -30V-29V-28V-25V-23V-21V-19Q114 -5 112 -1L113 1H115Q118 -2 127 -5L135 -10L136 -11L124 -18L126 -20L134 -17L136 -18Q137 -16 141 -16L142 -15L146 -16Q148 -14 156 -14Q156 -13 168 -9Q178 0 178 7L179 9L176 15L173 14H167L163 9Q161 9 153 0Q150 0 144 -6Q143 -6 138 -9Q136 -7 129 -2Q114 11 102 25Q100 25 99 22L100 17Q100 13 98 8V5Q99 4 100 -2V-4V-6V-7Q100 -9 101 -9V-11L102 -17L101 -18L102 -20L101 -26L102 -29L101 -36Q102 -37 103 -49Q101 -52 101 -53L102 -56L101 -59L102 -60L101 -61V-62Q101 -63 103 -63Q103 -64 100 -65L101 -68L98 -72Q99 -75 101 -76H102Q105 -74 108 -71L114 -74L115 -73Q128 -78 136 -82Q141 -82 148 -89ZM114 -68L115 -65Q114 -64 114 -62V-58V-57H116Q118 -57 121 -59H123L138 -63Q140 -63 140 -61Q140 -58 137 -55H131Q130 -54 120 -52L115 -50H114L113 -48L114 -47V-44V-42Q114 -40 115 -39H117Q121 -41 125 -41Q125 -42 127 -42H128L139 -45Q139 -46 141 -46V-50Q141 -51 142 -53V-54L141 -56L142 -60V-67L144 -75L143 -76H142L116 -69ZM158 -41H159Q160 -39 168 -36Q168 -35 169 -35V-34V-31Q169 -28 166 -27H163Q153 -25 151 -23Q149 -23 141 -19V-21Q141 -23 148 -26Q151 -28 156 -36Q154 -36 154 -37V-38Q155 -41 158 -41Z"/>
</svg>