<svg xmlns="http://www.w3.org/2000/svg" viewBox="0 -256 256 256">
	<path fill="#000000" d="M201 -158H202Q206 -151 216 -147Q216 -145 221 -141V-140Q221 -137 214 -127Q209 -116 207 -106Q206 -106 206 -101Q205 -100 205 -94Q204 -93 200 -80L194 -62Q194 -50 184 -34Q177 -25 168 -20L162 -18H160L159 -19V-22L160 -25Q160 -32 154 -41Q154 -44 148 -51L147 -53H148L156 -50L165 -48Q167 -48 167 -51Q170 -54 174 -72Q176 -74 178 -86Q181 -90 185 -110L189 -129Q189 -132 191 -134Q191 -135 188 -136Q188 -134 173 -132L156 -127Q155 -126 151 -126V-125Q151 -124 158 -118Q158 -117 161 -114Q163 -113 163 -111Q163 -110 158 -104Q158 -101 154 -96Q142 -72 133 -60Q131 -58 128 -52Q122 -45 105 -30Q103 -27 94 -23Q93 -22 91 -22H90L89 -23Q101 -30 111 -42Q118 -50 119 -54Q121 -56 122 -60Q125 -63 130 -76Q136 -85 139 -95Q140 -95 142 -102Q147 -115 147 -118V-124H146L141 -123Q140 -123 136 -131Q135 -131 135 -134Q133 -135 133 -136Q133 -139 144 -140L152 -141L153 -142H155L160 -143V-142L164 -144H167Q172 -146 183 -147L187 -148H188Q190 -148 201 -158ZM111 -149L122 -139Q125 -139 128 -131L120 -122Q116 -115 105 -104L98 -96V-95H101L107 -91L109 -89V-87Q109 -85 95 -83L90 -81H87L72 -75Q72 -74 70 -74V-73V-69V-64Q70 -59 66 -51Q66 -49 61 -48Q56 -48 52 -72L51 -73V-77L48 -88Q47 -88 46 -98Q43 -109 34 -124V-126Q34 -128 36 -130Q39 -130 53 -122Q56 -122 58 -119V-120H59L66 -113Q68 -110 68 -100V-94L70 -87L69 -85L70 -84Q73 -84 79 -88Q82 -90 86 -91Q88 -92 88 -94Q90 -101 91 -109Q92 -109 92 -116L93 -117L92 -120L93 -123V-124Q90 -124 84 -121Q76 -117 75 -117H72V-118Q70 -121 68 -121L60 -130V-131L66 -132L78 -137H81L88 -139L89 -138Q91 -140 93 -140Q101 -143 102 -144Q102 -146 106 -147Q106 -148 111 -149Z"/>
</svg>