<svg xmlns="http://www.w3.org/2000/svg" viewBox="0 -256 256 256">
	<path fill="#000000" d="M144 -186Q146 -184 151 -183Q154 -181 158 -180H159Q172 -178 172 -174V-169V-166Q168 -157 168 -151V-149Q166 -149 166 -142L165 -141Q166 -140 166 -137L170 -138L171 -137Q171 -139 182 -142Q182 -143 188 -144H190Q204 -141 204 -136Q204 -132 198 -130H194Q185 -129 184 -127L173 -125Q165 -122 165 -118Q165 -114 164 -110Q165 -110 166 -101V-98V-95V-91L165 -89Q165 -86 173 -83Q174 -86 185 -97Q189 -109 192 -112Q190 -112 190 -113V-114L192 -117H193Q196 -117 197 -113Q199 -111 206 -108Q208 -106 208 -104V-103Q208 -101 205 -98H203Q201 -98 198 -95Q193 -92 186 -86L181 -82H177L176 -81Q180 -75 183 -75Q183 -72 191 -68Q195 -63 202 -60Q202 -59 207 -58Q209 -55 214 -54Q214 -53 222 -50Q229 -45 232 -45Q232 -44 238 -43Q238 -41 248 -40H251L252 -38L250 -36L247 -37L242 -35L240 -36L233 -33Q233 -32 227 -32Q227 -30 219 -27L217 -25Q212 -30 210 -30Q206 -35 203 -35Q202 -36 197 -40Q197 -41 189 -46Q189 -48 179 -55Q176 -60 174 -62L172 -65Q172 -67 170 -67Q170 -68 166 -72V-76L165 -81H166L165 -82L163 -80Q164 -78 165 -72Q166 -72 166 -67V-64L167 -62L166 -59Q168 -58 168 -56L167 -52L168 -49L167 -46L168 -43L167 -38L168 -35V-33V-31V-30V-23V-16Q166 -14 166 -10Q165 -10 164 -5Q157 6 152 10Q151 9 151 7V5L149 1Q149 -5 145 -21V-22Q145 -23 147 -23L148 -27L147 -30L148 -31H147V-33L149 -35L148 -37L150 -42Q147 -42 147 -48V-49L148 -55L147 -58V-60V-64V-65V-67V-68V-70V-71V-82V-103V-115Q142 -111 133 -108Q130 -105 126 -105Q123 -101 120 -101Q119 -99 116 -99Q114 -101 112 -102Q112 -104 102 -111V-112Q102 -113 109 -114Q109 -116 111 -116H113Q116 -119 120 -119Q120 -120 125 -121Q125 -122 129 -122Q132 -124 137 -125Q137 -126 141 -126Q141 -127 147 -128V-129L146 -131V-135L147 -136L146 -141V-142L147 -144Q146 -144 145 -160Q144 -162 144 -164V-166Q142 -169 142 -174V-175Q139 -175 139 -182V-183L143 -185ZM182 -175Q191 -175 200 -172Q200 -171 202 -171Q208 -168 211 -162V-160Q211 -157 202 -150H201Q196 -158 193 -158Q192 -160 187 -167Q187 -168 181 -174ZM85 -156Q92 -146 98 -146L103 -143Q105 -140 105 -136Q102 -127 100 -127L89 -121Q84 -115 75 -110Q66 -102 66 -101V-100L70 -96H73Q74 -94 78 -94Q80 -91 80 -86V-83V-59V-55L81 -54L80 -52L81 -46L80 -44L81 -42V-41L82 -38Q80 -36 80 -30V-27Q80 -25 82 -24V-15Q80 -2 75 1Q73 2 71 6H70Q69 6 69 1Q66 1 63 -14L64 -16L63 -20L65 -26V-27V-28V-32V-44Q65 -46 66 -46L65 -49V-50Q65 -55 66 -55L65 -58V-59L66 -65Q65 -65 65 -67V-69V-73V-76L64 -83H65L64 -85L65 -87Q64 -93 62 -99Q61 -99 58 -95Q56 -92 43 -84Q40 -81 33 -77Q29 -73 17 -66Q10 -60 4 -57L3 -58Q4 -61 10 -64L22 -75L30 -84L36 -90Q37 -90 41 -96Q47 -99 56 -113Q62 -118 65 -123Q76 -138 76 -143V-147V-149Q76 -151 85 -156ZM120 -85L122 -84L125 -85L133 -83Q137 -79 137 -77Q137 -73 129 -68H128Q124 -72 116 -75Q116 -77 109 -79L107 -81Q107 -82 113 -83H114Q116 -85 120 -85ZM145 -68L146 -67V-66Q146 -65 134 -55L116 -34Q113 -30 111 -30Q104 -34 101 -40Q100 -40 100 -42Q100 -44 109 -48L114 -50Q115 -50 119 -53H120Q122 -56 132 -59Q132 -61 140 -65L144 -67Z"/>
</svg>