<svg xmlns="http://www.w3.org/2000/svg" viewBox="0 -256 256 256">
	<path fill="#000000" d="M85 -185H87Q93 -176 100 -175Q100 -174 104 -173Q109 -169 110 -165Q108 -159 106 -158Q104 -153 97 -150Q96 -148 90 -144Q90 -143 87 -142Q87 -140 83 -139Q82 -135 79 -135Q73 -129 67 -126V-125Q69 -125 72 -121Q79 -121 81 -117Q83 -117 85 -115L84 -111L85 -108L84 -99V-98L83 -92L84 -91V-90V-88L86 -80Q85 -80 85 -76L86 -72L85 -68L86 -66V-64V-60L85 -51L86 -41V-39V-36L85 -33L86 -30V-28V-27V-24V-16Q84 -8 77 -1Q77 0 74 0Q70 0 70 -9Q66 -14 66 -18Q68 -21 68 -31L67 -34L69 -39V-47V-50V-53L68 -54L69 -64L68 -68L69 -69L68 -71L69 -73V-88V-90Q69 -92 70 -94L69 -102V-105V-107V-108Q69 -109 69 -115L65 -124H64Q64 -122 56 -118Q52 -114 45 -110Q45 -108 37 -104H34H33V-105Q49 -117 53 -127Q53 -131 57 -131Q57 -134 65 -142L72 -153L74 -156Q74 -158 78 -164V-168Q80 -170 80 -172V-173Q80 -177 78 -179V-182Q78 -183 83 -183ZM200 -185Q202 -185 202 -182Q209 -178 212 -178Q216 -176 220 -176Q222 -173 222 -168Q220 -164 219 -158L220 -157Q218 -155 218 -150V-148Q217 -145 216 -136L217 -135L216 -133L217 -131Q217 -129 215 -127L216 -126L215 -123L216 -122Q216 -113 215 -113V-110V-108Q217 -108 217 -107L216 -101L217 -98V-82V-73V-72L218 -69L217 -67V-66L218 -62V-61V-54V-52L219 -49L218 -47Q218 -40 220 -38V-37V-34V-30V-23Q218 -18 218 -15V-12Q215 -2 206 9H203Q199 9 199 8V6L200 4Q200 2 199 -6Q198 -6 194 -13Q192 -13 188 -19Q184 -24 181 -24L177 -26V-27L178 -28H182Q190 -26 194 -26H195H196V-27L195 -28V-29L196 -30V-32L195 -34L197 -44V-46V-47V-50V-54V-56V-60V-63V-64V-67V-77L196 -81L197 -83V-88V-97V-108L196 -116V-126L197 -127V-128L196 -129Q196 -137 197 -139L196 -140L197 -146L196 -148L197 -156V-158Q195 -159 195 -168V-169L194 -170L184 -167Q184 -166 183 -166L182 -167L175 -164L164 -161V-160H160V-159Q160 -158 165 -157L170 -153Q173 -153 176 -150L175 -147V-144H176Q179 -145 181 -146H183Q185 -146 190 -141Q190 -136 186 -134H183Q178 -134 173 -131Q172 -131 171 -128L172 -123L171 -122V-120H172Q173 -121 175 -121L179 -122Q179 -123 188 -124Q191 -123 195 -121V-120Q195 -115 190 -115Q188 -115 186 -113L184 -115H183L177 -112L176 -113L171 -109Q168 -109 168 -108V-107L165 -99Q164 -99 163 -96L161 -95H160Q159 -95 159 -99Q157 -99 156 -104H155Q155 -101 146 -99Q138 -104 137 -105Q137 -106 145 -110Q145 -111 157 -115L156 -119Q157 -119 158 -124L157 -125L158 -129L152 -124H150L141 -131Q141 -133 144 -134L145 -133Q145 -134 150 -135Q150 -136 153 -136L156 -139L155 -142Q157 -144 157 -145Q155 -153 154 -153V-154L155 -156L154 -157Q149 -157 145 -153Q143 -152 140 -152L133 -159Q132 -160 130 -160L128 -163V-164L129 -165H133L144 -167Q144 -168 146 -168H148Q149 -169 151 -169H153L157 -171L159 -170Q161 -172 164 -172H166L171 -174Q177 -174 179 -176H180H181L183 -178H188Q191 -178 192 -181L193 -182L196 -181Q196 -183 200 -185ZM119 -152Q121 -152 123 -149L126 -150Q127 -148 128 -148Q130 -147 133 -144Q135 -144 137 -142H138Q140 -142 140 -141V-131L137 -123V-122L138 -120Q138 -113 136 -112V-108V-107V-106V-97Q134 -97 134 -88L135 -86Q134 -86 134 -85V-81L133 -79L134 -77Q134 -73 132 -69V-68V-65V-59Q130 -50 128 -45L126 -41L127 -39Q120 -31 120 -28Q119 -28 119 -26V-24Q116 -24 113 -18Q111 -18 110 -14L101 -2L95 3H93L92 2V1Q100 -6 106 -16Q109 -22 109 -24L113 -28L112 -30Q112 -36 114 -36V-40V-41H115L114 -43V-47Q116 -51 118 -51L117 -58L119 -59L118 -63Q118 -67 120 -70Q119 -71 119 -72Q119 -75 121 -75L120 -77V-86Q119 -86 119 -87Q120 -87 120 -96V-101L121 -102L120 -104L121 -106V-107Q121 -108 120 -110Q120 -111 121 -113L120 -115H121V-116L120 -119Q121 -119 122 -125Q120 -125 120 -126L121 -131L120 -132H121L120 -135L121 -139Q119 -139 118 -143Q116 -143 114 -145V-147ZM182 -97Q182 -95 190 -93L195 -87Q195 -84 188 -78Q188 -77 185 -75L186 -73L182 -69Q182 -68 186 -63V-62Q186 -60 185 -60L177 -61Q172 -59 166 -59H164Q154 -57 153 -55Q152 -51 147 -48H146Q142 -48 142 -60L140 -72L141 -73L138 -79L137 -81V-87V-88Q141 -88 147 -84H150V-81H151Q153 -86 157 -86Q163 -90 167 -90Q167 -91 173 -94Q175 -94 175 -96H177L179 -95ZM160 -80H159Q151 -77 151 -76L153 -73L151 -70V-69Q153 -69 153 -68V-64H154L166 -68L168 -66L171 -74L170 -81L172 -84L171 -85Q168 -83 164 -82Z"/>
</svg>