<svg xmlns="http://www.w3.org/2000/svg" viewBox="0 -256 256 256">
	<path fill="#000000" d="M158 -196H161Q169 -189 174 -189L176 -186V-181H177Q195 -186 197 -189L203 -191Q215 -187 215 -182Q213 -177 205 -174Q202 -172 202 -171Q198 -169 194 -166Q193 -166 186 -160Q179 -154 174 -152Q174 -150 171 -150V-149H172L184 -153H187L188 -152L198 -154L201 -153Q201 -155 208 -155L223 -160H226Q228 -158 231 -158Q234 -155 234 -152V-150Q232 -147 229 -147H219L213 -148Q192 -147 192 -145H189Q182 -145 181 -143Q179 -143 179 -144Q173 -141 165 -140L154 -137V-136L164 -131L165 -129Q165 -126 159 -123Q155 -120 153 -117Q149 -117 145 -113Q140 -112 140 -108Q139 -105 139 -101Q137 -100 137 -98Q139 -97 142 -97L147 -98H148Q156 -100 161 -100Q167 -100 167 -108L168 -111L166 -116L164 -118V-120L169 -124H170Q179 -119 183 -119H186L189 -115V-113L186 -108V-107L187 -106H188H190H191Q193 -108 204 -109Q220 -112 224 -113Q234 -111 234 -106Q234 -104 228 -102H224H220L218 -103L216 -102L213 -103L201 -101L196 -102Q196 -100 187 -100Q181 -98 173 -97L160 -94Q157 -92 150 -92L139 -88Q137 -88 134 -92Q133 -92 133 -87Q132 -87 130 -78L129 -76V-75L124 -59Q122 -55 119 -45Q118 -45 117 -39Q116 -39 116 -35L111 -26Q103 -10 98 -5Q92 5 84 13Q82 15 79 17Q78 19 76 20H75L74 19Q74 17 79 13Q90 0 92 -5Q94 -7 96 -12Q102 -25 103 -31Q104 -31 105 -37Q106 -37 106 -41Q108 -41 108 -50V-51Q110 -52 111 -59L116 -76L118 -81L117 -85Q119 -85 120 -95Q122 -98 122 -102V-103H123L121 -105L123 -110V-111L122 -113L123 -114Q121 -115 120 -117V-118Q120 -119 125 -120L126 -122Q137 -115 139 -112H140Q149 -126 149 -132V-135H148Q143 -134 141 -132Q127 -130 127 -127Q126 -126 121 -126L120 -124H118L107 -131L106 -133L107 -134H109L132 -140Q135 -140 139 -142L158 -146H160H161Q161 -149 162 -149H163Q165 -149 171 -159Q171 -160 175 -162Q175 -164 182 -171L185 -174V-176H184L180 -175Q176 -175 171 -177H170Q163 -171 153 -167Q142 -158 136 -158Q135 -156 125 -152Q124 -150 116 -148L115 -147H114Q113 -147 113 -149Q113 -151 119 -152Q119 -153 126 -155Q128 -159 135 -162Q154 -181 154 -185Q155 -186 155 -189L154 -191Q155 -194 158 -196ZM95 -182Q97 -181 103 -172Q108 -170 112 -168Q114 -165 114 -162V-161L113 -159V-157L107 -152V-153H106Q104 -153 100 -147Q97 -147 94 -142L76 -125V-123Q78 -123 85 -117Q92 -114 92 -105L91 -99L92 -95L91 -93V-90L90 -87L91 -86L90 -74L91 -72V-67L90 -66V-65L92 -63L91 -62L92 -54L91 -44L92 -32L91 -29H92V-28L91 -22V-21Q90 -17 83 -10L81 -9Q76 -10 76 -19L72 -29V-30Q73 -41 75 -41V-42H74L75 -53V-54Q76 -54 76 -63V-66V-68V-86V-92V-106V-110L75 -117L74 -122H73Q65 -118 59 -113Q58 -113 53 -108Q49 -108 46 -103Q40 -97 28 -92L23 -89L22 -90V-91Q22 -92 27 -94L36 -102Q41 -104 50 -115Q64 -130 70 -139Q75 -149 80 -153Q87 -164 87 -166L89 -170V-171L85 -175Q85 -178 89 -178Q93 -182 95 -182ZM199 -138L203 -137H205Q218 -132 218 -128Q218 -120 212 -120Q212 -119 211 -119Q207 -119 192 -128Q189 -131 184 -133L181 -135Q181 -136 190 -137L192 -136ZM189 -91Q195 -89 195 -86Q195 -82 185 -80L181 -78Q181 -77 170 -75L169 -74Q166 -77 161 -78V-79Q161 -81 166 -82L167 -81Q167 -83 172 -84L173 -86L176 -85Q180 -88 187 -90Q187 -91 189 -91ZM195 -74L199 -71V-69Q199 -66 194 -65Q193 -63 185 -62Q181 -59 176 -59Q175 -57 169 -55Q169 -57 160 -59L159 -61V-62Q159 -63 168 -64Q168 -65 171 -65Q173 -67 184 -71Q186 -71 191 -74ZM207 -58Q208 -58 214 -52Q223 -50 223 -45V-43Q223 -39 216 -34Q215 -34 208 -27Q203 -25 203 -23Q203 -22 206 -22Q208 -20 208 -18Q208 -14 201 -12L195 -13L173 -9Q173 -8 167 -8Q165 -2 160 -2H159Q157 -2 157 -5Q156 -7 153 -16V-18Q151 -26 148 -33L144 -47V-48Q144 -50 147 -50Q148 -48 151 -47Q155 -43 156 -42Q156 -44 164 -45H166Q175 -48 177 -48Q179 -50 184 -50Q184 -51 186 -51L188 -50L194 -53H196L198 -54L199 -53Q206 -58 207 -58ZM163 -32Q165 -32 166 -21Q166 -18 169 -18L175 -20L188 -23Q193 -23 193 -27Q194 -30 195 -35Q196 -35 196 -42Q196 -44 194 -44Q188 -43 186 -42L171 -38Q163 -37 163 -34Z"/>
</svg>