<svg xmlns="http://www.w3.org/2000/svg" viewBox="0 -256 256 256">
	<path fill="#000000" d="M137 -185Q141 -185 144 -181Q152 -176 154 -176Q156 -171 157 -171Q159 -171 166 -175Q168 -175 174 -179Q175 -179 180 -183H181L191 -180L192 -177Q192 -170 188 -170Q188 -169 181 -168Q181 -167 177 -167Q177 -165 170 -165Q170 -164 161 -162L160 -161L166 -156Q171 -151 171 -150V-149H170H169H168Q168 -146 160 -141H159V-140Q161 -140 167 -135L174 -132Q182 -129 182 -127L183 -128L188 -126H189Q190 -125 194 -123Q194 -121 200 -121Q200 -120 203 -119L204 -120Q207 -117 212 -117Q220 -113 228 -112Q233 -110 244 -109V-108Q242 -107 240 -107H234Q232 -105 229 -105L226 -104H224H223Q223 -102 213 -99Q208 -95 205 -95Q204 -96 199 -99Q199 -100 194 -101L191 -96Q190 -93 186 -88V-87L187 -86Q185 -84 183 -79L182 -75L180 -69Q176 -67 176 -64Q173 -63 170 -60Q168 -60 166 -59H165V-62L160 -64Q159 -62 157 -62L155 -63L153 -62L151 -63V-61L152 -57V-54H154L156 -55L157 -54L159 -55Q160 -53 161 -53L162 -54H164Q166 -53 168 -53V-52Q168 -50 166 -49H165Q161 -49 156 -47H151Q151 -45 149 -45V-44Q150 -43 151 -37L153 -36Q161 -36 171 -39H174Q174 -40 175 -40Q178 -40 180 -39H181Q184 -38 187 -36Q186 -32 183 -32H182Q174 -32 174 -33L172 -32H169H164H162L152 -30L150 -31Q145 -28 133 -26Q133 -25 128 -25V-24Q132 -20 133 -18Q134 -18 134 -14Q135 -14 135 -12V-9Q131 -3 129 -2Q126 -4 126 -6V-10V-11Q125 -11 125 -13L126 -17L125 -22L126 -24H124L121 -23L119 -24Q115 -22 114 -21H113Q107 -24 105 -27V-28L106 -29H107Q112 -29 116 -30H117L129 -32H130L133 -33L135 -32Q139 -32 139 -36V-39L138 -41L129 -39Q129 -40 124 -43L123 -45Q123 -46 128 -46L130 -48L133 -47Q136 -50 139 -50V-55L141 -60H140L138 -59H135Q132 -59 128 -56V-54Q127 -50 125 -50Q122 -52 121 -57Q119 -66 119 -67L120 -70Q118 -71 117 -82Q116 -82 116 -87Q115 -87 115 -88V-90L116 -91V-92Q115 -92 115 -97Q114 -101 112 -101L105 -96L102 -93L101 -90L102 -88V-86V-84V-81V-76L101 -75V-74L102 -73V-72L101 -69L102 -66Q102 -64 101 -63V-62Q97 -50 93 -50L90 -54L91 -56L90 -59V-61L89 -63L90 -67L89 -72H90V-73V-83L89 -92L90 -93L89 -95L90 -99L89 -105L90 -107Q89 -110 89 -111V-123L88 -128V-129L89 -130Q88 -131 85 -135Q87 -140 87 -141Q89 -139 92 -139Q92 -136 101 -135Q105 -131 105 -129L102 -123L103 -122L102 -119L103 -117L102 -114V-113L103 -106L102 -105V-104Q104 -101 107 -101L118 -109Q118 -111 129 -122Q129 -125 140 -136Q141 -140 143 -140Q142 -140 136 -144Q132 -144 131 -150L134 -151L146 -147L148 -148L150 -147L154 -152Q156 -153 156 -159L153 -158Q152 -158 147 -163H145L127 -150Q125 -146 120 -144Q111 -138 108 -138Q110 -142 112 -142Q112 -144 116 -146Q116 -147 120 -151L127 -160Q130 -163 134 -172V-174L135 -176V-178Q134 -178 133 -180Q133 -182 137 -185ZM74 -176Q76 -176 83 -171Q95 -167 95 -165L98 -160V-158Q98 -156 92 -155Q92 -154 82 -147Q78 -141 75 -140L66 -130Q62 -130 60 -126Q59 -126 59 -125L55 -123Q57 -121 69 -118Q70 -117 71 -117Q73 -115 73 -113V-112V-110L71 -108L72 -106L71 -102L72 -100H71V-99L72 -98L71 -93V-92L72 -86H71L72 -83L71 -79L72 -77L71 -75V-68L72 -65L71 -61L72 -57L70 -52Q72 -51 72 -49V-42L71 -41Q71 -40 72 -33L71 -31L72 -29L71 -25L72 -23L71 -20L72 -17L71 -14L72 -13L71 -11V-8L68 1Q67 1 64 6Q61 9 59 9L57 1Q56 -5 53 -15L55 -35V-37Q56 -39 56 -53V-59V-63V-65L57 -69L56 -70L57 -79V-82V-84V-86V-90V-92V-93V-94V-95V-98L56 -100V-101L57 -106Q56 -114 55 -114V-117Q53 -117 53 -119V-121L50 -118H49H48Q44 -113 42 -113H41Q40 -113 37 -109L26 -101L18 -96L13 -94L12 -95L24 -104Q34 -111 47 -126L57 -141Q59 -141 59 -144Q64 -150 70 -162L72 -164L69 -168L70 -170V-172ZM115 -103V-102Q116 -102 118 -100L120 -99L121 -101L125 -100L127 -102H132Q139 -105 160 -108Q168 -112 172 -112L174 -111L175 -115Q175 -116 172 -117Q172 -119 164 -122Q161 -127 158 -127Q158 -129 154 -130L152 -133H151L133 -117Q130 -116 123 -109Q116 -106 115 -103ZM168 -104L161 -103L159 -104Q159 -102 157 -102H156H155Q153 -102 150 -99Q154 -96 154 -91L152 -87V-86V-80H153L156 -82V-84Q156 -87 158 -87L157 -95Q158 -96 159 -96L161 -95V-93Q167 -91 167 -87Q163 -86 154 -77Q152 -77 152 -76V-74V-72Q152 -67 156 -67H157Q157 -68 159 -68H161Q167 -70 167 -74L169 -85V-88V-92Q169 -96 170 -98V-102V-104ZM136 -99Q135 -96 134 -96V-97H133Q132 -96 126 -95L123 -97H122Q122 -94 126 -94L127 -93L126 -86Q131 -85 134 -83Q140 -83 140 -86L141 -90L140 -98H138ZM128 -80L127 -76L128 -75V-71L129 -64L127 -63H129H130L140 -65V-66Q140 -69 139 -69H138L137 -68H136Q133 -72 130 -80ZM152 -27Q161 -23 161 -15Q161 -11 156 -9H155L152 -12L153 -20L151 -26ZM180 -27H182L197 -19Q197 -18 198 -18Q204 -13 204 -5Q204 0 197 2L195 4H194Q192 3 187 -13Q184 -14 184 -17V-18L179 -26ZM102 -22Q105 -22 107 -16L109 -15V-13Q111 -9 111 -8V-6Q109 -5 109 0Q108 1 106 5L100 8Q98 7 98 6V5V2V-1Q99 -3 100 -12L102 -17L101 -21Z"/>
</svg>