<svg xmlns="http://www.w3.org/2000/svg" viewBox="0 -256 256 256">
	<path fill="#000000" d="M146 -181L154 -177Q161 -173 163 -173Q165 -172 167 -168Q167 -162 163 -161Q162 -161 162 -157Q161 -157 160 -153Q159 -153 158 -144Q155 -143 155 -142L156 -140L155 -139V-138L157 -136V-135Q155 -133 155 -131V-129H157Q164 -136 164 -137L168 -143V-152L169 -155Q176 -152 176 -150Q176 -147 182 -144Q184 -142 186 -142H187V-140Q187 -134 182 -134Q174 -131 173 -130H169Q169 -128 161 -125Q157 -121 154 -120L152 -103L153 -101V-99Q153 -94 159 -93Q159 -91 169 -90L171 -89H178L183 -90H186Q199 -91 202 -96Q206 -101 208 -110Q208 -112 209 -112V-111V-110V-105V-101Q210 -95 217 -86L218 -83Q214 -73 209 -73Q209 -72 199 -71Q198 -70 196 -70H194H192L189 -69L182 -70L178 -69L168 -72H164V-71Q166 -67 178 -60V-56Q178 -52 170 -46Q166 -41 166 -40L158 -28V-27Q167 -24 167 -19Q167 -14 156 -11H151L148 -13L144 -12H134L124 -9L123 -10L119 -9H116Q116 -6 108 -6Q107 1 101 5H98Q97 5 92 -6V-13V-14V-15H93L92 -19V-22L90 -32L89 -33V-37V-40L86 -55Q85 -55 85 -59V-61L86 -62Q89 -62 94 -55Q95 -55 99 -53L120 -59H122H124Q125 -61 126 -61H127H128Q136 -64 141 -65Q141 -66 145 -68Q145 -69 146 -69L149 -68Q154 -72 158 -72V-73Q151 -77 147 -80Q147 -81 144 -84Q144 -86 142 -91V-93L141 -97L142 -102V-106L141 -108L142 -111V-118Q142 -130 143 -131V-146Q143 -150 144 -150L143 -153L144 -155L143 -163L144 -165L137 -171V-173Q137 -181 146 -181ZM81 -177Q84 -174 90 -171Q90 -167 100 -166Q100 -165 106 -164L108 -162V-160Q107 -158 104 -149L102 -147L103 -144L102 -142V-141L101 -137L102 -135L101 -132V-130L102 -129L113 -134Q116 -134 118 -136H120L125 -133V-131Q125 -128 124 -128L122 -130V-126Q119 -126 119 -123Q116 -122 110 -117Q108 -117 104 -115H101L100 -117H99V-113V-108L98 -104V-101L97 -100V-95Q97 -90 94 -90V-89L96 -90L97 -88Q108 -93 111 -93Q111 -94 116 -96Q125 -100 128 -100L133 -104L134 -103Q134 -100 130 -99L118 -92Q116 -92 115 -90L109 -88H108V-89Q105 -88 105 -86Q95 -81 94 -79Q92 -79 92 -77L90 -78Q82 -71 80 -71Q80 -69 74 -67L58 -54Q53 -47 49 -47H45Q43 -47 39 -55L38 -56V-65Q41 -69 44 -69Q46 -72 46 -75V-77V-81Q43 -99 41 -102Q38 -104 38 -108V-109V-113Q38 -116 40 -116L47 -109Q51 -106 59 -103L61 -99V-97L62 -94L61 -88V-86L60 -76V-75H61Q63 -75 69 -78L74 -80Q76 -80 76 -82L75 -84Q77 -84 78 -91L77 -94L78 -103V-110V-113L79 -121V-122L80 -142V-144V-145V-148Q80 -158 74 -168V-174Q74 -177 75 -177H79ZM134 -54H132H131L127 -52Q127 -51 115 -49Q115 -48 106 -45L107 -39H106V-38Q107 -27 108 -26L107 -24L108 -22V-20L109 -19Q111 -19 116 -22H122L124 -23L127 -22Q127 -23 137 -25H140L142 -27H141L144 -44V-45L143 -46L144 -54L143 -55H136Z"/>
</svg>