<svg xmlns="http://www.w3.org/2000/svg" viewBox="0 -256 256 256">
	<path fill="#000000" d="M82 -195H83Q85 -195 88 -192Q92 -188 95 -188Q99 -186 104 -180Q106 -181 108 -181Q111 -183 117 -190H118Q127 -183 135 -181Q137 -177 138 -177L139 -175V-173Q142 -176 143 -177L159 -168L160 -167L159 -163L160 -162L159 -156L160 -152L159 -149Q159 -148 160 -146L162 -147H163L164 -146Q167 -149 172 -149Q175 -153 179 -153L182 -174L181 -175Q166 -170 164 -170Q164 -171 155 -179L157 -180H160Q161 -180 163 -182Q168 -182 181 -187L190 -195H191Q198 -191 198 -190L200 -191L209 -189Q209 -188 212 -188Q214 -186 215 -180Q215 -177 210 -175Q205 -171 203 -168L196 -161Q192 -158 192 -157Q195 -156 199 -152L200 -150Q200 -148 192 -144Q188 -144 182 -142L179 -143Q177 -141 171 -140L170 -141L167 -139H166H164Q163 -136 158 -136V-134Q159 -134 159 -133V-132Q159 -131 153 -126H152Q147 -131 147 -139L146 -141V-145L145 -147V-148L146 -149L144 -152V-154Q142 -162 140 -167L139 -171L136 -167Q135 -167 131 -156Q129 -155 125 -143Q123 -139 121 -133Q118 -130 118 -126Q115 -123 115 -120L105 -111Q102 -111 102 -110V-109H103L112 -111H114Q114 -113 123 -113L131 -116Q132 -116 148 -119H150Q152 -121 157 -121H159Q159 -123 169 -123L180 -125L181 -126H183L195 -128H196Q201 -130 205 -130Q221 -127 225 -123Q227 -123 229 -117Q227 -113 223 -110Q220 -110 219 -109Q215 -112 203 -114H200H187H182H181H179Q176 -114 173 -112H170L167 -111Q167 -109 173 -107L175 -104L171 -95L172 -91L171 -85L172 -70L171 -67L172 -65L171 -61L172 -53L171 -52L173 -50L172 -47L173 -41V-28V-23Q169 -4 166 0Q161 10 155 13Q152 19 149 19L148 18V17V11L140 -2Q137 -5 135 -5Q135 -6 129 -8V-9Q129 -10 133 -10L147 -8H148Q150 -8 151 -17L153 -28V-33L154 -44L153 -45L154 -52L153 -67L154 -68L153 -70V-76V-80V-82Q152 -82 152 -90L153 -96L152 -99L153 -102Q151 -103 151 -104L152 -111H151Q151 -110 146 -110L141 -109L140 -108H135Q133 -107 130 -106L129 -107L127 -106L124 -107Q122 -105 116 -104H115H113L112 -103L110 -104Q110 -102 104 -101Q103 -101 101 -103H100V-101Q86 -96 78 -95Q78 -94 73 -93Q73 -92 66 -90H62Q59 -86 49 -84L43 -79Q43 -78 39 -77H38Q36 -77 32 -82L26 -88V-90L27 -92L29 -91Q41 -92 41 -94H44L52 -96Q52 -98 58 -98H60Q60 -99 74 -102Q74 -103 79 -104Q79 -105 84 -105L89 -106Q89 -107 90 -107V-106H91Q97 -108 97 -110L96 -113V-116Q96 -124 88 -132L89 -134Q94 -131 98 -131V-130H100Q102 -130 103 -140Q104 -140 107 -149V-155L109 -157L108 -161Q110 -161 111 -167L110 -168Q104 -164 102 -164L100 -165Q100 -163 95 -162V-161L93 -162Q82 -148 82 -144Q80 -144 75 -135Q74 -132 65 -120Q55 -106 44 -96L42 -95H41L40 -96V-97Q51 -107 55 -116Q58 -118 58 -122Q60 -122 61 -127Q63 -127 67 -140Q69 -140 71 -151H70Q64 -152 59 -160Q56 -162 56 -165Q56 -168 59 -168Q62 -169 67 -169L68 -171L71 -170L74 -172H76H77Q78 -172 80 -177V-179V-182V-183Q79 -184 78 -189L77 -190ZM130 -94H132Q140 -89 144 -89Q148 -86 148 -84Q148 -80 143 -75Q140 -75 137 -66L135 -65Q139 -62 139 -59Q137 -56 134 -56Q129 -55 127 -54H125Q113 -50 109 -48V-45Q109 -43 103 -35H101Q95 -43 95 -46L93 -62H94V-63Q92 -64 89 -73Q88 -73 87 -79Q86 -79 86 -81Q87 -83 89 -85H90Q91 -85 91 -82L92 -83H94Q95 -81 99 -81Q99 -79 102 -78Q105 -81 114 -83Q114 -84 124 -88ZM117 -78H116L115 -80Q115 -77 112 -77Q112 -75 107 -74V-73L109 -72V-70L108 -67L109 -62V-59Q110 -55 111 -55H112Q115 -59 118 -59Q119 -59 121 -60Q125 -60 125 -64Q125 -72 127 -72V-76L126 -79V-80L127 -82V-83Z"/>
</svg>