<svg xmlns="http://www.w3.org/2000/svg" viewBox="0 -256 256 256">
	<path fill="#000000" d="M175 -175L179 -174H183Q187 -171 187 -167V-166Q187 -163 182 -160Q182 -158 181 -158L179 -159Q176 -157 171 -156Q151 -145 144 -138H142L134 -143Q126 -149 121 -150V-151Q121 -152 131 -156Q134 -156 140 -159L145 -161L153 -165Q156 -165 162 -169Q164 -169 170 -172H171ZM80 -144Q81 -144 86 -140L93 -138Q97 -135 97 -133Q96 -127 95 -127L94 -125Q93 -125 92 -122Q85 -116 80 -105V-104Q84 -101 85 -96Q85 -91 70 -90L64 -89Q64 -88 58 -86Q54 -84 51 -83Q49 -81 49 -78Q50 -78 50 -77V-76V-73V-72Q48 -70 47 -67Q46 -67 45 -64H44Q40 -64 40 -69Q39 -69 35 -81Q33 -104 31 -104Q31 -106 28 -110Q27 -117 22 -122Q22 -129 26 -129Q30 -129 36 -125L40 -123Q41 -125 45 -125Q46 -127 50 -127Q50 -129 54 -129Q55 -131 69 -137Q75 -141 78 -144ZM175 -136H177Q180 -132 189 -131Q192 -127 192 -120Q192 -118 188 -113L184 -106Q184 -104 180 -96L178 -89Q175 -75 164 -63L157 -57Q155 -57 154 -63Q153 -67 149 -72Q149 -75 145 -77Q145 -78 143 -81Q143 -82 145 -83Q148 -81 153 -80L154 -79H155Q159 -83 159 -89Q161 -89 161 -97Q162 -97 163 -103L164 -104L162 -108Q162 -111 165 -113H164Q162 -113 153 -106L151 -107H150Q150 -105 146 -102Q144 -102 141 -106Q139 -106 136 -110Q135 -110 132 -113V-114Q132 -115 135 -115Q135 -117 139 -117L144 -119L148 -120L150 -122H155Q158 -124 162 -124V-126Q162 -127 166 -128Q166 -131 173 -135ZM111 -133H112Q115 -129 117 -129Q119 -126 127 -122L128 -120V-116Q124 -106 124 -102Q121 -99 119 -91L118 -89V-87V-86Q116 -85 116 -80Q115 -80 114 -75Q112 -73 112 -70Q109 -68 105 -57Q104 -57 96 -43Q94 -41 94 -39Q91 -36 84 -27Q64 -6 55 -1H53L52 -2L63 -12Q68 -17 77 -28Q78 -28 80 -32Q81 -34 82 -37Q84 -37 86 -45Q88 -45 90 -52Q93 -55 94 -62L95 -64Q97 -64 98 -74Q100 -77 101 -83Q102 -83 103 -93Q104 -93 105 -105Q106 -105 107 -114Q108 -114 108 -119V-121Q108 -123 106 -125Q106 -126 105 -126H103V-128Q106 -131 110 -131ZM64 -122L63 -123Q59 -121 58 -119H55Q55 -116 49 -115L48 -111Q49 -111 49 -109V-107V-105V-104V-101V-100V-98V-96V-95Q49 -94 52 -93Q57 -97 60 -97L63 -99Q65 -99 67 -100H66V-101Q67 -106 67 -113V-117L69 -122V-124ZM128 -98H130L136 -94Q136 -93 142 -90L144 -88V-87Q140 -83 140 -73Q139 -73 138 -54H137L139 -46L138 -43Q138 -35 147 -29Q147 -28 157 -27H162H163H166H169H171H175L179 -28L180 -27Q206 -29 210 -31H213Q213 -33 217 -34L220 -46L221 -52Q222 -52 223 -55H224Q225 -55 225 -49V-46Q225 -41 230 -33Q233 -31 234 -27Q234 -20 225 -14H224Q222 -13 212 -12H211Q207 -10 201 -9H199H195L192 -7H191L189 -8H187L184 -7L181 -8H180L170 -6L166 -7H165H157Q155 -8 154 -8L150 -7Q140 -12 136 -14Q136 -16 133 -18Q130 -23 128 -32Q126 -32 126 -50Q126 -55 128 -67L127 -68L129 -70L128 -72V-74V-77Q129 -79 129 -85Q127 -87 127 -89L128 -93Q127 -93 127 -95V-97Z"/>
</svg>