<svg xmlns="http://www.w3.org/2000/svg" viewBox="0 -256 256 256">
	<path fill="#000000" d="M179 -208L181 -207H183H184H185Q192 -206 199 -199V-198V-196V-195Q191 -186 188 -186H187Q184 -186 178 -194Q173 -198 171 -198Q169 -200 164 -202L163 -203L165 -204H168Q171 -207 174 -207ZM119 -206Q125 -201 129 -201Q129 -200 133 -200Q139 -196 139 -194V-193Q138 -190 130 -188Q125 -182 118 -181Q118 -179 114 -178Q111 -175 102 -172H100Q100 -169 93 -168Q92 -167 91 -167H88V-168Q90 -170 95 -173Q95 -174 99 -176Q99 -177 102 -178Q102 -179 108 -185Q114 -191 115 -191V-193Q117 -193 117 -195L113 -202V-203Q114 -205 119 -206ZM147 -187H151Q154 -182 162 -180Q165 -177 165 -176Q165 -175 156 -168L154 -166Q154 -164 168 -157L184 -149Q196 -143 198 -143V-141L200 -142L203 -140H205Q205 -138 215 -136L217 -135H218H219Q220 -133 228 -132V-131H230H232L239 -129V-128L232 -126Q229 -124 221 -122Q221 -121 216 -121Q210 -116 207 -116Q207 -117 200 -121Q184 -127 183 -131Q180 -131 178 -133Q176 -133 165 -142Q162 -142 162 -144Q160 -146 156 -148L146 -157L134 -147Q133 -147 133 -145Q131 -145 131 -144Q131 -143 128 -142Q128 -140 123 -138Q123 -136 116 -131L112 -128Q108 -125 106 -125Q106 -122 90 -113Q88 -113 86 -110Q81 -109 76 -105L57 -96H55L54 -97Q55 -98 62 -101Q62 -102 70 -105L82 -113Q84 -116 89 -119L90 -120H92H93Q93 -121 100 -126Q106 -133 110 -135L124 -150Q126 -150 129 -156Q131 -156 133 -161Q133 -162 135 -162V-164Q133 -164 133 -167Q128 -167 126 -170Q129 -171 132 -171H135L136 -170L139 -171H142Q142 -172 147 -179Q147 -180 143 -182Q143 -186 147 -187ZM69 -172Q73 -169 78 -168Q85 -162 85 -160Q84 -157 80 -155Q80 -153 69 -136V-135L75 -130Q75 -127 72 -127H71Q71 -126 66 -126Q63 -123 59 -123L48 -119H46Q46 -117 43 -116V-114L44 -105Q41 -96 39 -96H38Q33 -99 33 -102Q32 -102 29 -108L27 -120Q26 -120 24 -132Q22 -133 22 -134L23 -137H22Q21 -137 20 -143Q19 -146 16 -149V-155Q16 -158 20 -158L21 -157Q23 -156 27 -153Q34 -150 39 -142L38 -139Q39 -135 41 -126V-125H42L57 -131Q58 -139 59 -140V-142L60 -152L59 -155L57 -154H55Q53 -153 51 -153L43 -149H42Q34 -156 34 -159L35 -160H37L38 -159Q48 -164 52 -164Q52 -165 60 -167H61Q61 -168 64 -168Q65 -172 69 -172ZM130 -134H131Q133 -134 135 -131Q147 -125 147 -121V-119L141 -114V-113H142Q144 -113 149 -117L160 -124H161Q164 -124 169 -117Q170 -117 172 -113Q175 -110 175 -109Q175 -108 167 -102Q167 -99 163 -99Q161 -95 157 -95L151 -88Q146 -84 144 -82H142Q142 -78 138 -77Q138 -75 128 -69Q126 -69 122 -64Q117 -63 113 -59Q111 -59 106 -54Q101 -52 97 -49Q94 -49 86 -44H83L82 -45V-46Q83 -47 88 -49Q90 -51 93 -51Q95 -54 99 -56Q104 -59 108 -62Q110 -66 116 -68Q118 -71 126 -78Q126 -79 129 -82L123 -80Q120 -80 120 -85V-88L118 -89H117L118 -91V-94L117 -95Q116 -95 116 -93Q115 -91 114 -91Q114 -90 109 -89L106 -86Q106 -85 101 -82Q99 -82 94 -78L91 -77L90 -78Q90 -79 101 -88Q107 -94 112 -100Q114 -100 115 -105Q117 -105 118 -109L121 -113Q122 -113 122 -116Q127 -121 127 -129V-130ZM134 -112Q134 -107 130 -104Q128 -104 127 -102Q122 -101 122 -100L123 -98L120 -96Q126 -93 131 -92Q131 -88 134 -88Q143 -98 145 -102Q146 -102 147 -105V-106H146Q144 -105 143 -105H139Q135 -107 135 -111V-112ZM141 -72H142L143 -68Q146 -68 149 -64Q152 -62 153 -59H155Q157 -61 159 -61L166 -65Q166 -66 170 -67L173 -70H175Q180 -65 187 -61L191 -54V-53Q191 -52 188 -52Q185 -48 183 -48Q169 -36 160 -27L152 -21Q152 -19 149 -18Q142 -10 141 -10L128 -1Q121 5 112 10Q112 12 106 13Q101 17 95 19L85 24Q84 26 78 27L70 32Q69 32 69 31Q69 28 83 22Q92 16 95 14Q97 11 101 10Q101 9 106 5Q106 4 111 3Q111 1 121 -5Q123 -10 131 -14Q131 -16 135 -19L137 -21L136 -23L133 -22Q130 -22 127 -34Q126 -34 126 -37L127 -38V-39Q124 -37 123 -37Q120 -32 116 -31Q106 -24 100 -19L88 -14V-16L95 -21Q98 -24 104 -27L110 -32H111Q116 -40 119 -41Q119 -42 128 -51Q128 -52 133 -56L137 -64V-67V-68ZM129 -40Q129 -38 134 -37L136 -38Q136 -36 142 -32Q142 -29 143 -29H144L151 -36Q152 -36 156 -44Q161 -50 161 -53H160L157 -52H154L149 -56Q141 -48 138 -48Q138 -47 134 -45Q130 -45 129 -40Z"/>
</svg>