<svg xmlns="http://www.w3.org/2000/svg" viewBox="0 -256 256 256">
	<path fill="#000000" d="M181 -191Q183 -191 186 -187H187H188H189Q195 -183 200 -183Q200 -182 205 -180Q207 -176 207 -172Q207 -168 203 -163V-162Q203 -156 202 -152L203 -151V-147V-139V-134V-130V-127V-112V-98V-95V-93V-90V-89V-87V-86V-83V-79V-71V-66V-60V-54V-53V-51V-41V-36L202 -27L203 -24L202 -23L203 -21V-19Q202 -18 201 -9Q194 9 186 13Q184 15 184 16H183Q179 16 178 -1V-3Q178 -8 171 -12Q171 -16 159 -27Q159 -28 161 -28L166 -26Q172 -26 177 -23L178 -24V-32V-33H177H167H164L158 -32Q157 -32 157 -33L155 -32H152H150H146L142 -31H138Q133 -29 126 -29Q125 -28 114 -26Q114 -25 112 -25H108Q107 -23 101 -23Q100 -22 98 -22H95Q93 -19 92 -19Q89 -19 81 -27Q78 -28 78 -31Q78 -32 83 -32Q83 -33 98 -35L99 -36H106L108 -37H111L118 -39Q119 -39 119 -38H121Q121 -40 122 -40L126 -39L128 -41H132L137 -43L141 -42L144 -44H145L148 -45Q146 -49 144 -49Q135 -54 135 -58Q131 -59 128 -62V-63L129 -64Q132 -64 134 -62L137 -63L139 -62V-70V-71Q139 -76 140 -76V-81V-88V-93V-97V-99L139 -103L140 -106L139 -110V-113L138 -114L126 -109V-110Q126 -108 120 -108Q119 -106 117 -106V-107H116L114 -104H113L112 -106H111Q110 -106 110 -104H112Q113 -103 113 -101L112 -98Q114 -98 114 -95Q123 -98 128 -101H130Q131 -99 135 -99V-97Q135 -96 124 -93Q118 -90 116 -89L114 -90L113 -89L114 -78H115Q120 -81 123 -81Q123 -82 127 -83L129 -84H132L136 -81V-79Q134 -77 128 -77H127Q127 -76 123 -76Q123 -74 118 -74Q118 -72 115 -72L113 -69L114 -66L113 -64L114 -63L112 -60L114 -59V-58L112 -56L113 -53V-51Q113 -48 107 -40H106Q104 -41 102 -48V-49V-51V-54L103 -55V-59V-63V-64L104 -66L103 -67V-75V-80V-81Q103 -87 102 -92L103 -96L102 -99L103 -106V-108H102Q102 -104 97 -100L90 -95Q90 -94 82 -86Q82 -85 74 -78Q72 -78 72 -77L74 -75L73 -72L74 -64L73 -63V-62L74 -61V-59V-56V-52V-51L76 -24V-23Q76 -17 77 -16Q72 -5 67 0L64 3H63Q61 -2 59 -10Q57 -15 57 -18V-21V-26V-32V-34Q58 -35 58 -52V-53V-55V-57V-65V-66V-67V-71V-77V-81L57 -85L58 -87L57 -89Q58 -90 58 -96V-97V-100V-104Q58 -109 57 -113V-122V-123Q55 -132 55 -135V-138L53 -143L54 -144V-145Q51 -153 49 -154V-156V-158V-159V-161L51 -163H52L60 -155Q65 -153 68 -152Q71 -152 76 -145V-141Q76 -139 72 -135L73 -134L72 -131V-130L71 -118L72 -114L71 -105L72 -104L71 -102L72 -96L71 -95V-94L72 -93V-90V-87Q72 -82 73 -82H75Q86 -94 89 -101Q90 -101 93 -107Q94 -107 94 -110L104 -123V-126Q102 -123 99 -122L85 -131V-132Q85 -133 108 -138Q110 -139 111 -141L110 -143L111 -153Q109 -153 108 -159L107 -160H106L94 -155H93L85 -160H84Q77 -164 77 -165V-166Q78 -168 91 -170Q91 -171 96 -171Q96 -172 101 -172Q105 -173 106 -174H110L135 -180Q140 -180 143 -181V-180H144Q153 -183 162 -184Q162 -185 167 -185Q167 -186 171 -186Q171 -187 178 -188ZM170 -174H169L162 -173L161 -174Q161 -172 154 -171L153 -170L152 -171H150L148 -170L144 -171Q130 -167 130 -166Q125 -166 115 -163Q111 -163 111 -162Q112 -162 122 -156Q131 -156 135 -152V-146L139 -145Q143 -149 147 -149L155 -153Q157 -151 164 -151Q166 -149 166 -148Q166 -144 162 -143H157Q157 -142 151 -141Q151 -140 143 -139L127 -134H126Q126 -131 125 -130Q125 -129 121 -127Q118 -123 117 -123Q115 -119 112 -119Q111 -115 108 -113L110 -112Q114 -114 120 -115Q120 -116 125 -117Q127 -119 134 -121L140 -127H143L144 -126L155 -122L160 -119L162 -115Q158 -109 158 -99Q157 -97 157 -95L158 -91L157 -89L158 -85L157 -81L158 -73V-72L157 -65V-64V-60V-56L154 -53V-50Q153 -49 152 -45H153L159 -46L162 -45Q163 -45 163 -46L164 -47H165Q170 -45 173 -45L178 -41L179 -42L178 -46L179 -53L178 -68L179 -84H178V-85L179 -86L178 -88L179 -106V-110L180 -126L179 -130L180 -135V-142V-149V-156V-159L179 -160L180 -162L179 -164L180 -166L178 -173L179 -175L178 -176Z"/>
</svg>