<svg xmlns="http://www.w3.org/2000/svg" viewBox="0 -256 256 256">
	<path fill="#000000" d="M184 -186L194 -180L195 -179L196 -180Q196 -179 203 -176Q204 -174 204 -172V-171L201 -157V-149Q201 -147 200 -147L201 -144V-135V-132V-131L202 -113L201 -111L202 -109V-107V-106L203 -105V-103L201 -98L202 -95L201 -92L202 -90L201 -89V-86L200 -83L202 -82V-80V-72L203 -68L201 -67L203 -64L202 -61L203 -50V-44L201 -28V-27L200 -19V-18Q199 -16 199 -12V-10Q192 2 190 4Q183 10 181 10Q179 10 178 3V1V-5V-6Q177 -8 176 -13Q175 -13 174 -14V-15V-16Q172 -18 172 -20V-21Q169 -24 169 -26V-27H170Q172 -26 176 -26L179 -27V-28L181 -36L180 -39L181 -43L180 -44Q181 -44 182 -46L181 -47Q181 -57 182 -57L181 -63L182 -64L181 -68L182 -72L181 -78L182 -84V-85L181 -87L182 -96L181 -104L182 -108L181 -110L182 -111L181 -113V-114L182 -119L181 -122L182 -123L181 -128V-131L180 -139V-142L181 -145L180 -149V-161L177 -175L176 -176Q175 -175 168 -174Q167 -173 165 -173H163H161Q160 -172 152 -172H151L149 -171H148Q136 -170 132 -169H131Q129 -168 119 -167H117H115Q105 -164 102 -164Q99 -164 89 -159L87 -160Q76 -156 75 -155Q69 -155 69 -153Q74 -150 74 -148Q71 -141 71 -136L72 -133L71 -128L72 -126L71 -123L72 -120L71 -108L72 -106V-105H71L72 -99V-88L71 -85L72 -84L73 -85H74L76 -84Q76 -85 84 -87L85 -88L88 -87Q93 -90 100 -90Q107 -105 107 -108Q107 -109 110 -114H109Q104 -111 103 -111H102L96 -115Q96 -116 109 -119Q111 -121 117 -139L120 -141Q129 -137 130 -135V-132L127 -126L128 -125L142 -130L145 -127Q152 -127 152 -117Q150 -117 149 -110Q146 -110 145 -104L149 -103L155 -104Q155 -105 165 -107V-106H166L168 -107H169Q173 -104 175 -102Q175 -100 170 -97H168H165H163H157H154Q154 -95 143 -95L141 -94H134Q132 -94 131 -92H130L129 -93H128Q124 -90 106 -85Q106 -84 104 -84H103Q100 -82 93 -81L84 -77H83L78 -81V-80H77L72 -82V-79V-75L73 -64V-62V-59V-57L74 -54V-46L73 -44L74 -42L72 -21L73 -17Q69 -3 63 2L60 3V-1V-2L57 -11L58 -15Q56 -18 56 -25L57 -32V-35L58 -40V-43V-45V-46V-52V-55V-63V-67V-68V-72V-83L59 -86L58 -87L59 -91L58 -94V-96V-97V-104V-108V-109Q57 -115 57 -117V-121L56 -123V-124L57 -126L56 -140L57 -141Q57 -148 52 -157Q52 -158 51 -160Q52 -165 54 -165H56Q60 -162 60 -160L68 -162H73L83 -165H87Q89 -167 95 -167Q95 -169 101 -169L102 -170H104L111 -172L135 -177L136 -178H137V-177Q168 -184 176 -184H177Q178 -186 184 -186ZM141 -162Q146 -161 147 -159Q150 -159 150 -158Q150 -153 144 -152Q144 -151 137 -149Q132 -146 128 -145Q125 -142 121 -142H119Q110 -136 109 -136H108Q107 -136 106 -140Q101 -144 98 -144L97 -145Q97 -147 103 -147H105Q109 -151 119 -153Q120 -153 123 -156L125 -155Q125 -157 133 -158Q133 -159 139 -160Q139 -161 141 -162ZM110 -93V-92L114 -93H115Q115 -96 120 -96Q121 -97 131 -99L133 -100V-103Q135 -108 135 -113L136 -116L135 -121Q132 -121 130 -118Q120 -118 120 -112Q118 -111 114 -101Q113 -101 113 -99Q110 -98 110 -93ZM145 -86H146Q148 -86 150 -83Q158 -81 158 -77V-74L157 -73Q157 -72 155 -72Q154 -70 147 -62V-61H150Q152 -59 152 -56Q152 -54 146 -53H144L139 -52V-53Q135 -51 126 -50Q126 -48 122 -48Q122 -47 117 -46Q117 -45 113 -45L112 -44H113V-42L110 -38Q106 -38 105 -42V-44Q103 -44 101 -63L98 -73V-74L99 -75H101L105 -71H107Q109 -71 111 -73H115Q115 -75 123 -76L127 -77H128Q128 -78 136 -79L144 -85ZM112 -59L113 -57L112 -55L113 -53Q113 -52 111 -52V-51H112Q118 -54 123 -55Q123 -56 132 -58Q132 -59 137 -59L139 -72Q137 -74 136 -74Q126 -70 113 -67ZM158 -43H159Q162 -43 166 -38V-35Q163 -32 159 -32H158H157H154L149 -30H148Q145 -28 144 -28Q143 -30 141 -30Q137 -27 136 -27L134 -28L132 -27H129L127 -26H124L118 -24H114Q107 -20 98 -18Q98 -17 94 -17Q94 -15 88 -14Q87 -14 83 -20L79 -23V-24Q82 -24 88 -27V-26H89L92 -28V-27Q109 -32 120 -34L132 -37L140 -40L142 -39Q142 -41 153 -42Q153 -43 158 -43Z"/>
</svg>