<svg xmlns="http://www.w3.org/2000/svg" viewBox="0 -256 256 256">
	<path fill="#000000" d="M79 -198H81Q84 -194 96 -189Q102 -188 102 -184V-183Q100 -172 96 -172L97 -171V-170V-169L96 -164H98Q101 -166 106 -167L110 -169H112L116 -166Q116 -161 113 -159Q112 -157 108 -155Q108 -154 99 -151Q99 -149 92 -147L91 -146L92 -140L90 -139L91 -135V-134Q91 -133 89 -133L90 -129L89 -127V-125Q91 -127 103 -131L104 -132H105L107 -131Q109 -131 112 -134H114H116L118 -135H119L127 -133V-131Q127 -126 125 -126H123Q123 -125 118 -125L116 -126L114 -123L113 -124H111Q109 -122 105 -122L104 -121H103L101 -122L96 -119Q96 -118 93 -118L92 -117L91 -118Q89 -117 87 -117Q86 -115 82 -114Q80 -112 66 -108Q64 -106 62 -106H60Q59 -104 58 -104L56 -105Q56 -101 47 -99Q46 -98 41 -97H39Q39 -95 37 -95L33 -94L32 -92H31Q29 -93 22 -100Q20 -100 19 -102V-103Q19 -104 31 -108Q41 -112 46 -112L49 -113H51L57 -115H58Q72 -121 76 -121Q80 -121 80 -126V-129V-134V-141Q79 -141 78 -139L77 -138H75Q73 -138 69 -143Q68 -143 63 -148Q61 -148 61 -149V-150L62 -151H65L79 -157V-156L82 -157L81 -161L82 -163L81 -165L82 -175Q82 -182 78 -187Q78 -188 73 -191Q73 -194 79 -198ZM142 -192H144Q152 -185 155 -185Q165 -185 165 -176L159 -155L160 -153Q159 -153 159 -141L158 -140V-138Q158 -136 157 -136L158 -135L157 -131H158H159H161Q163 -133 169 -134Q181 -147 183 -147H185Q186 -146 193 -143V-140L192 -138H193V-137Q186 -125 182 -125L183 -122Q181 -120 181 -117Q180 -113 179 -112L180 -108Q178 -104 177 -104V-100V-98Q176 -95 175 -87Q174 -87 174 -84Q174 -75 172 -74V-72L173 -71V-70L172 -67L174 -62L173 -58Q176 -54 183 -50Q184 -48 186 -48H188Q189 -47 195 -46Q195 -45 199 -45H203L209 -44H218Q221 -44 221 -47V-49Q222 -49 222 -52Q223 -52 226 -58L225 -63L226 -64H227Q228 -63 228 -60V-58L229 -56L228 -54Q229 -49 233 -45Q237 -41 237 -39Q237 -30 226 -29L220 -28Q207 -29 207 -30L204 -29H203L195 -32L193 -31L189 -32L188 -31Q182 -32 177 -36Q169 -40 169 -43Q168 -43 167 -47Q166 -48 166 -50V-51Q166 -58 167 -62L166 -64V-66L165 -75L166 -77L165 -78L168 -94V-95Q168 -99 171 -104L170 -107V-111L171 -120V-122L172 -127V-129L173 -131H172Q170 -131 165 -128H163V-129L159 -126Q159 -125 157 -125Q155 -125 154 -120L155 -118L153 -114L154 -112L153 -109L154 -106L152 -103V-99Q150 -96 150 -95L151 -94L150 -91V-88Q150 -87 156 -87L161 -82V-81V-77V-75L156 -70Q154 -71 152 -74L150 -73L146 -74V-73H145L146 -71Q142 -58 140 -57Q140 -53 135 -46Q131 -36 124 -28Q120 -21 105 -8H104L103 -9L107 -14L111 -17Q111 -18 116 -23Q116 -24 118 -27Q120 -31 128 -42Q128 -43 130 -45Q130 -46 132 -49V-50L137 -64L136 -66Q138 -66 138 -68V-72L140 -75V-78L132 -81Q119 -81 119 -84V-85Q122 -86 125 -86H126L128 -85L130 -87H137Q141 -87 142 -90L141 -95L142 -98V-99L144 -104H143V-108L142 -111Q145 -114 145 -116V-117H144Q142 -117 140 -114H138V-115H136Q136 -113 132 -109H131Q128 -113 123 -113V-115V-116L127 -118Q127 -119 130 -119H132L133 -120H134Q134 -122 136 -122H137H139Q139 -123 145 -125V-126V-129Q145 -133 146 -133L145 -135V-138L148 -141V-142Q146 -144 146 -145Q147 -159 148 -159L146 -163L147 -166Q145 -167 145 -168L146 -171L145 -173L146 -174Q145 -178 138 -185V-188ZM90 -112L97 -111H100Q100 -110 105 -109L108 -110Q110 -110 114 -108Q117 -107 117 -100Q115 -94 111 -94H107Q103 -98 101 -98L89 -110ZM68 -104Q78 -93 81 -93Q90 -93 95 -84L96 -83V-82Q96 -81 94 -81V-80L95 -79Q99 -79 101 -82H106Q106 -81 109 -81L110 -80V-79Q110 -75 105 -75L103 -73H99Q99 -71 92 -70V-69L93 -68Q93 -63 91 -60V-58L90 -52V-51L110 -59L114 -60L119 -61V-59L116 -58L115 -56L112 -57L103 -51Q98 -50 98 -48Q90 -43 88 -43H87L86 -42L87 -41L83 -39H81Q81 -36 73 -34Q71 -29 57 -19H56Q54 -19 44 -27Q40 -29 40 -30Q40 -31 46 -32H47H48L61 -36Q62 -38 67 -40Q67 -41 74 -43Q77 -46 80 -46V-47L79 -49L81 -52Q79 -53 79 -55L80 -59Q80 -64 79 -64H78Q78 -61 70 -60L69 -59L68 -57H67Q63 -58 60 -61V-62L62 -63H64Q68 -67 72 -67L78 -72L79 -78L78 -87L69 -84H67Q67 -82 63 -80Q63 -78 60 -78Q58 -76 49 -70L37 -62H36L35 -63L46 -72Q46 -73 51 -77L60 -89Q62 -94 65 -98H64V-102Q65 -104 68 -104Z"/>
</svg>