<svg xmlns="http://www.w3.org/2000/svg" viewBox="0 -256 256 256">
	<path fill="#000000" d="M151 -188Q152 -188 160 -180H161H163Q168 -174 168 -170Q166 -170 165 -164L162 -160L163 -156Q160 -155 160 -154L167 -150Q170 -150 172 -146L182 -137Q184 -136 197 -124L205 -118Q205 -117 208 -117Q211 -113 214 -113Q218 -110 221 -107Q224 -107 226 -105L229 -104H231Q235 -99 242 -99Q242 -98 244 -98L246 -96Q246 -95 241 -95H237L233 -93H232Q218 -93 211 -89H209Q205 -90 193 -100Q191 -100 184 -109Q181 -111 179 -115Q175 -117 174 -122Q171 -122 166 -131Q165 -131 161 -138Q157 -141 157 -144Q157 -141 149 -131Q148 -126 145 -124V-122Q134 -108 132 -101L119 -86Q118 -86 116 -82L111 -78H110V-81Q113 -83 113 -86L118 -91Q118 -94 119 -94Q123 -99 123 -103Q124 -103 124 -108Q125 -108 129 -113V-115Q131 -117 132 -124Q135 -124 138 -135L140 -140Q141 -140 141 -143V-147Q143 -148 143 -153Q144 -153 147 -172V-175Q146 -178 143 -178V-179V-180Q149 -188 151 -188ZM78 -178H82Q87 -171 100 -165Q102 -165 103 -158L104 -157V-156Q101 -153 99 -149Q97 -149 96 -143L94 -141L95 -139Q93 -139 92 -134Q91 -134 89 -126H88L87 -125V-122Q84 -117 81 -108H79V-107H83Q84 -107 87 -109H88L90 -108H91L93 -110L97 -109Q97 -111 100 -111V-112L98 -115V-117V-121V-124Q98 -126 101 -126H102L109 -122Q110 -122 115 -118L116 -120Q121 -115 121 -113V-111Q116 -102 114 -102V-99Q112 -99 112 -95L106 -89Q100 -77 98 -77L99 -75Q96 -74 96 -71L92 -68L93 -66Q87 -60 87 -58Q87 -57 90 -56Q90 -54 93 -54V-52H94L95 -53H96Q97 -50 100 -50L101 -47H103Q104 -47 105 -45H107Q107 -44 118 -34L121 -28V-25H120L121 -23Q119 -18 115 -15L114 -14H110Q108 -14 103 -21Q96 -28 92 -32L85 -39Q85 -40 80 -43L78 -45Q75 -44 70 -36L60 -27Q41 -12 35 -12Q19 -3 12 0H11L10 -2V-3Q18 -5 31 -13Q37 -18 47 -24Q47 -25 55 -33L70 -51Q68 -52 67 -56Q63 -57 61 -59Q58 -59 58 -62H57L56 -61L50 -65L47 -68V-73Q55 -82 58 -90H57Q51 -85 46 -85L45 -86Q45 -84 42 -83L41 -84V-83Q41 -80 33 -79Q31 -76 24 -74Q19 -74 19 -78Q12 -81 12 -87V-90Q12 -95 15 -95Q15 -94 23 -92L25 -93L28 -92Q28 -95 41 -96V-95Q43 -98 45 -98L46 -97L48 -99H52Q56 -101 62 -102Q63 -104 64 -104Q64 -108 66 -111Q66 -116 70 -123L69 -124Q69 -126 72 -130V-132Q73 -139 74 -145L73 -147L75 -153V-157L76 -158L75 -162L76 -164Q73 -170 71 -172V-173Q71 -175 74 -175ZM164 -111H167Q169 -111 173 -107V-105Q171 -99 158 -95Q158 -93 151 -92Q148 -97 145 -97Q142 -97 141 -99V-100Q141 -101 159 -108L164 -110ZM87 -101H83L78 -98L77 -99Q77 -98 74 -98V-97V-94Q71 -91 71 -90Q71 -84 64 -80V-79V-77Q62 -74 62 -72L63 -71V-70H62Q64 -70 70 -66L77 -63Q81 -68 81 -69Q83 -74 85 -74V-76L89 -80Q89 -86 91 -86Q96 -102 96 -104H94H93Q92 -104 87 -101ZM174 -79Q177 -79 181 -75Q189 -72 189 -67V-66Q185 -59 182 -44Q181 -44 181 -36Q179 -36 179 -34V-30Q177 -30 177 -23Q171 -7 171 -6Q166 4 159 8L153 12H151Q150 12 149 8L150 4Q148 3 148 -3Q148 -5 153 -12Q154 -18 155 -19V-23L157 -28L156 -29Q158 -30 158 -35V-38Q159 -41 159 -42V-43Q159 -45 161 -47L162 -54H161Q162 -57 164 -61H163Q161 -59 157 -59V-58L156 -59Q149 -55 138 -52H135Q128 -58 123 -58H122V-59Q122 -61 132 -63H133H134L151 -68V-67L156 -69H157Q160 -69 166 -73Q170 -75 170 -77Z"/>
</svg>