<svg xmlns="http://www.w3.org/2000/svg" viewBox="0 -256 256 256">
	<path fill="#000000" d="M170 -175L173 -173H174L175 -174H176L190 -171Q194 -170 196 -167V-166L194 -159V-154Q192 -153 191 -149L192 -148L191 -147L192 -145Q199 -148 202 -148Q209 -149 211 -151H212Q213 -149 218 -149L224 -144V-140Q219 -136 216 -136H213H212H210L206 -135H205H204L197 -134Q194 -134 189 -131L188 -130V-129L189 -128V-127L187 -122L188 -120Q186 -119 186 -114L185 -113V-112L186 -111V-108Q189 -111 192 -111L194 -112H196L204 -113Q216 -110 216 -107V-104Q215 -101 209 -99L207 -100L196 -98H194Q194 -96 185 -96Q185 -95 183 -95H180Q179 -93 174 -93Q174 -91 168 -90L166 -89L164 -90L158 -86Q158 -84 152 -81H151Q150 -81 148 -86Q145 -86 140 -90V-91Q140 -92 147 -94Q147 -95 149 -95H150Q153 -96 157 -97Q157 -99 162 -99Q162 -100 169 -102V-106Q169 -107 170 -109Q169 -111 169 -116Q170 -117 171 -123V-125L168 -124H166Q166 -121 162 -121Q162 -119 158 -119Q158 -117 155 -117Q153 -115 151 -115Q146 -117 143 -121Q141 -121 139 -125L137 -126L148 -130L154 -132V-133H155L157 -132Q158 -135 161 -135L162 -134Q166 -136 167 -136L169 -135L171 -138V-142Q171 -145 172 -145L171 -146V-152L172 -153Q171 -156 170 -163Q165 -167 165 -169Q167 -175 170 -175ZM86 -161H89Q90 -161 95 -157Q98 -157 98 -155H100L103 -153H104L105 -152V-151V-150Q108 -150 108 -143H107H108V-140Q105 -138 103 -130Q101 -130 99 -124V-123V-122Q97 -117 95 -113V-112V-111L91 -103L92 -101Q88 -100 88 -96L89 -95L93 -96H95Q98 -97 101 -97H106L107 -96Q107 -95 101 -94Q101 -92 90 -91Q90 -90 85 -88Q84 -86 83 -81L81 -80V-77Q75 -68 74 -68V-67Q74 -63 68 -58Q70 -58 70 -57V-58H71Q74 -58 74 -55L77 -56L78 -53H80Q81 -53 85 -50H87Q91 -57 92 -58Q93 -58 93 -61Q96 -61 98 -71L100 -73V-74V-75Q103 -77 103 -79Q103 -82 106 -87L107 -90V-93L108 -94L106 -105Q107 -107 109 -108Q116 -108 118 -105Q128 -103 128 -98V-97Q128 -95 125 -89Q123 -89 120 -81Q119 -80 117 -76Q114 -74 112 -68L110 -67L111 -65Q108 -65 108 -62Q108 -59 105 -59V-58Q104 -53 99 -50L100 -48Q98 -46 96 -46L95 -44V-43Q102 -41 102 -39L109 -36Q109 -34 114 -31Q114 -30 118 -28L117 -26Q119 -26 124 -19V-14L120 -8H119L118 -9L115 -8Q114 -8 113 -11Q111 -11 108 -14Q106 -14 98 -25L92 -31L88 -35H87Q87 -32 81 -30Q81 -29 78 -27H76Q76 -25 74 -25Q74 -23 69 -23Q68 -20 62 -17Q62 -16 53 -13Q39 -3 34 -1L33 -2Q50 -14 61 -20Q62 -23 65 -23L71 -28L77 -36Q81 -38 81 -39V-40Q79 -40 77 -44Q74 -44 70 -48Q60 -51 60 -53V-54L62 -57L61 -59Q67 -62 67 -67Q69 -67 70 -76Q72 -76 72 -82L73 -83V-85H72Q72 -82 65 -81Q65 -80 59 -79L52 -76Q48 -72 42 -72L36 -67H35Q34 -67 34 -70Q27 -76 27 -77Q27 -78 37 -81L38 -82H39L41 -81L43 -82Q46 -84 49 -84L50 -85H51L58 -86V-85Q58 -87 63 -88H64H66Q76 -90 76 -92Q77 -98 80 -104L79 -107Q80 -107 81 -113H82V-116V-117Q83 -125 86 -131Q84 -132 84 -134L86 -138V-142L87 -146L86 -148L87 -151L81 -156ZM209 -77Q212 -77 218 -72Q226 -71 226 -68Q227 -68 228 -66Q228 -61 221 -56Q221 -54 218 -52Q214 -45 212 -45L207 -37V-38Q207 -36 204 -34H207Q210 -34 212 -32Q214 -32 216 -28V-27Q216 -24 212 -22Q206 -23 202 -24L200 -23L198 -24L189 -23Q189 -22 181 -22H180Q175 -21 166 -18H165L161 -15V-13Q159 -7 157 -6H156Q155 -6 153 -14Q152 -14 151 -19Q150 -19 150 -24Q149 -24 148 -32V-34L147 -36L148 -38Q146 -38 146 -40V-41L147 -44L145 -45V-48L144 -52L141 -61V-63H142H143L146 -59L148 -60L150 -59L152 -61H153L156 -59Q157 -62 159 -62H160L168 -64Q171 -67 176 -67Q178 -68 183 -70L185 -69L192 -72H194V-71Q198 -74 209 -77ZM188 -62L187 -63Q184 -60 181 -60L180 -61H179Q179 -59 173 -58L172 -59Q172 -57 170 -57H167Q166 -55 159 -53L156 -54V-52V-51L158 -50V-51Q159 -51 160 -45L158 -44Q160 -42 160 -39L162 -34L161 -31Q161 -29 162 -29L168 -28Q171 -30 180 -32Q180 -33 181 -33H192V-34H194H195L194 -36Q194 -38 197 -41L198 -64H197Q194 -63 188 -62Z"/>
</svg>