<svg xmlns="http://www.w3.org/2000/svg" viewBox="0 -256 256 256">
	<path fill="#000000" d="M187 -183H189Q192 -180 203 -176Q206 -174 206 -172L208 -168L207 -166L209 -165L215 -167H219Q219 -165 221 -165L222 -162Q222 -159 216 -153L214 -151L212 -152L204 -150Q201 -150 193 -147L188 -139L184 -136L185 -135V-134L183 -132Q183 -131 181 -129V-127V-126H182Q183 -128 188 -129L193 -132H196L204 -128Q207 -128 211 -125Q213 -125 215 -118Q215 -114 212 -113Q212 -112 209 -108Q209 -105 204 -99Q202 -89 193 -76L185 -68L184 -67Q183 -67 181 -73L180 -75L176 -76L165 -72Q161 -70 156 -69V-68Q168 -63 169 -60L171 -61L172 -58V-56H173Q175 -58 186 -60H188L192 -61H193L198 -62H200Q206 -63 211 -64L214 -63Q225 -67 228 -67H231Q239 -62 239 -58V-55Q238 -53 236 -53H233Q228 -55 221 -56L219 -55L204 -56H202Q197 -55 177 -53L170 -51H169Q166 -51 166 -48Q164 -48 161 -41Q160 -41 159 -37L157 -38V-37Q155 -30 152 -30Q151 -29 146 -20Q145 -20 139 -14L125 -5Q124 -5 121 -2Q119 -2 112 3Q107 5 101 6L100 7H99L98 6V5Q99 3 104 3L112 -1Q112 -2 116 -4L130 -17Q133 -21 139 -27Q139 -30 142 -32Q146 -38 146 -40Q146 -41 149 -45V-46H148L145 -44L142 -45Q141 -43 135 -43Q130 -40 120 -36L110 -43V-44Q110 -46 119 -46L122 -48H125H128Q130 -50 141 -51H145L146 -52H147Q150 -52 152 -51V-53V-58Q152 -60 151 -62L152 -66H151Q148 -66 145 -61H144Q139 -66 139 -69Q139 -70 138 -71Q138 -75 136 -76Q136 -80 132 -90Q129 -97 129 -99L124 -112V-115L125 -116Q130 -113 134 -112L135 -111Q140 -111 148 -114Q153 -116 157 -118L158 -117L169 -122Q175 -130 175 -132Q175 -136 178 -142Q174 -148 171 -149V-150Q173 -153 178 -153Q178 -154 179 -154H180Q183 -154 183 -163L184 -166Q184 -169 179 -176Q183 -181 186 -181Q186 -183 187 -183ZM134 -176Q138 -172 141 -172Q143 -170 152 -167Q155 -165 156 -161V-160V-155V-154V-152V-150L155 -145V-141V-133V-132V-129V-122Q155 -121 149 -121Q148 -122 148 -124Q147 -124 147 -129Q145 -129 144 -135H143L141 -134L139 -135Q138 -133 131 -129H130Q128 -129 121 -137V-138Q121 -140 131 -141H134Q136 -143 138 -143H141Q142 -143 142 -144Q140 -147 138 -157Q137 -157 132 -169Q130 -170 130 -172V-174Q130 -175 134 -176ZM85 -168Q87 -167 91 -164Q99 -157 99 -155L97 -147Q96 -146 94 -140L92 -138H93V-137Q91 -136 91 -131Q87 -126 87 -122Q86 -122 85 -120L86 -117Q85 -115 83 -111V-110L82 -106V-105H85Q87 -107 91 -108H95Q98 -108 98 -113L96 -119Q99 -121 101 -121H103L110 -117L114 -116Q114 -114 116 -113L117 -111V-108Q116 -102 112 -97L107 -91Q107 -86 103 -81Q99 -72 98 -72Q97 -69 94 -63L90 -60Q90 -57 87 -57V-56Q94 -52 96 -47Q96 -46 99 -45L100 -43H103V-41Q110 -39 110 -34H112Q113 -34 114 -32V-30V-25V-24Q114 -18 107 -18Q98 -25 98 -29Q96 -29 96 -32Q94 -32 87 -42Q85 -42 84 -46L83 -47H82Q79 -45 75 -40Q71 -38 71 -36Q65 -31 51 -20Q36 -11 29 -8H28H26Q26 -12 31 -12Q31 -14 38 -16Q52 -27 52 -28L62 -37L72 -51H73V-52Q69 -58 66 -58Q62 -61 54 -63Q53 -65 53 -67V-68L58 -75Q59 -76 62 -85L63 -88V-89L62 -90L51 -85L49 -86L46 -83H44Q42 -83 33 -78L30 -77Q28 -77 24 -82Q21 -86 17 -87V-89L18 -90H19H21L31 -92L51 -97Q55 -97 59 -99Q61 -99 64 -101L67 -100Q69 -102 71 -111L73 -112H72V-113L76 -127L78 -136L80 -149Q80 -160 77 -160L75 -164ZM187 -121Q187 -118 179 -118Q179 -117 173 -116Q172 -115 162 -113V-112H161V-111L158 -112H157Q157 -109 150 -108Q143 -106 143 -104L144 -95Q145 -95 149 -97Q157 -98 160 -101L172 -104H173Q179 -104 179 -100Q178 -97 177 -97L175 -98Q175 -96 159 -91V-92Q155 -89 153 -89L147 -87L146 -79V-78L148 -77H152Q153 -77 155 -78H158Q162 -80 175 -82Q175 -83 178 -83H181Q183 -83 184 -94Q185 -94 185 -98V-99Q186 -103 188 -105L187 -108L188 -113V-116V-120ZM80 -95L79 -96Q78 -96 74 -87Q70 -83 67 -77L64 -73V-72Q64 -71 78 -63H79H80L82 -68Q84 -69 87 -78Q89 -78 91 -88Q94 -97 95 -98V-99H94L93 -98Q92 -98 91 -100Q90 -99 82 -97Q82 -95 80 -95ZM171 -44L177 -42L186 -38V-39H187Q198 -34 201 -31V-30L206 -26Q211 -19 212 -14L213 -9Q213 -6 205 -1Q203 -1 195 -11Q193 -11 190 -17L181 -27Q179 -28 174 -37Q171 -40 170 -43Z"/>
</svg>