<svg xmlns="http://www.w3.org/2000/svg" viewBox="0 -256 256 256">
	<path fill="#000000" d="M208 -178Q216 -171 220 -171Q220 -169 224 -169Q228 -163 228 -161Q226 -150 226 -141V-138V-136V-127V-122V-115V-108V-103V-102V-99V-73L227 -60L226 -50L227 -44L226 -41L227 -37L226 -36L227 -34Q227 -10 219 -5Q219 -3 212 2H210Q208 2 207 -4L208 -6Q206 -16 203 -16Q200 -23 198 -23Q196 -23 195 -26Q188 -30 187 -30V-32H188H189L199 -30H200H204L205 -31L204 -32V-33Q204 -34 206 -34V-35L205 -36V-37Q205 -40 206 -41L205 -49L206 -53Q206 -55 205 -55Q205 -57 207 -63L206 -68L207 -80V-82L208 -84L207 -85V-87V-91V-95V-98V-101V-102V-104V-106V-108V-113Q206 -114 206 -121L207 -124Q205 -125 205 -127L206 -130L205 -137V-140L203 -154Q201 -157 201 -159L176 -153Q168 -151 166 -151Q164 -148 159 -148Q159 -146 147 -142L144 -141Q139 -144 139 -147Q133 -149 133 -151Q133 -154 144 -154Q144 -155 147 -155L148 -154Q148 -156 169 -162L177 -165Q185 -167 190 -169Q192 -169 203 -176ZM59 -153Q61 -153 66 -147L72 -145Q76 -144 76 -143L78 -144Q84 -144 86 -134V-132Q83 -131 82 -110L83 -108L81 -105V-102V-92V-90Q81 -89 82 -89Q96 -93 98 -93L100 -104L99 -109V-110L97 -118Q97 -120 99 -121H100Q104 -121 108 -116Q110 -115 116 -110V-109L109 -91Q108 -91 107 -79L101 -73H100Q98 -73 98 -81V-84Q98 -88 97 -88Q82 -81 79 -81Q69 -74 67 -74Q60 -68 58 -68Q55 -68 50 -61Q47 -61 42 -54L40 -51Q34 -51 34 -56L27 -65V-66Q27 -68 33 -73L34 -75L33 -77L34 -81L32 -93L29 -99L27 -105Q27 -108 29 -108H31L38 -102L49 -95L50 -94L49 -85H50V-84L49 -82V-81Q49 -78 50 -78L57 -81L62 -82L63 -87V-89V-92V-99Q63 -108 62 -114V-115Q61 -131 60 -131V-132Q60 -139 52 -144Q52 -147 59 -153ZM184 -138Q185 -138 185 -136L187 -137H189Q191 -137 193 -135V-131Q193 -129 184 -127Q184 -126 182 -126Q182 -125 178 -125L176 -123H174Q174 -122 158 -114Q155 -117 153 -117Q153 -120 150 -120L149 -121V-123Q149 -124 156 -125Q157 -128 161 -128Q161 -129 163 -129Q163 -131 167 -131H169Q169 -134 180 -136Q181 -138 184 -138ZM118 -133Q120 -131 124 -131Q125 -128 137 -122L138 -117L136 -111Q138 -111 138 -108L136 -105L137 -101L136 -100L137 -99V-97V-94L136 -88L137 -85L136 -79V-74L135 -71L136 -69V-66V-63Q135 -63 135 -60V-59Q136 -58 136 -54Q135 -52 135 -45V-37V-31V-28Q135 -25 134 -18Q129 -9 126 -9Q122 -9 122 -14Q122 -17 119 -25V-26V-27V-30V-31V-33V-36V-37L120 -38L119 -41Q120 -50 122 -51V-52L121 -53V-54L122 -55L121 -58V-73L122 -74L121 -76V-77V-80V-82V-83V-90L122 -95L121 -99V-100V-101V-107L122 -109L120 -113L121 -115L119 -122Q119 -123 117 -129V-132ZM183 -109L190 -104Q194 -103 197 -99Q197 -94 193 -91L185 -80L183 -78V-77Q185 -77 187 -75V-72Q183 -69 180 -69L176 -70L169 -67Q165 -67 159 -63L160 -59Q160 -56 155 -52H153Q150 -54 149 -57L150 -59Q150 -60 147 -63V-65L148 -66Q147 -68 147 -70V-72L145 -83V-85L146 -86Q144 -87 143 -93Q141 -93 141 -94V-95L142 -96H145L152 -92Q153 -93 160 -95Q163 -98 167 -98Q167 -99 173 -101ZM159 -90H158L157 -88Q157 -86 158 -84V-71L159 -70H160Q162 -72 165 -72Q168 -72 168 -74Q173 -74 173 -81L175 -83V-85L176 -91L175 -93L177 -95L175 -96L166 -92Q161 -91 159 -90Z"/>
</svg>