<svg xmlns="http://www.w3.org/2000/svg" viewBox="0 -256 256 256">
	<path fill="#000000" d="M144 -197Q148 -196 151 -194Q155 -192 156 -192H158Q168 -188 168 -182V-181Q168 -179 165 -177Q165 -174 161 -171H163H164Q167 -173 174 -175L187 -181Q187 -182 188 -182Q188 -181 194 -179Q194 -178 199 -176L200 -174V-173L198 -169L193 -168L188 -169L180 -168H179L177 -167H174Q169 -167 167 -165H162Q161 -165 158 -159Q157 -159 154 -157H152L151 -158V-161H150L143 -158L136 -157Q132 -154 129 -153Q129 -152 122 -151Q115 -157 108 -160V-161L109 -162H114Q119 -163 129 -164Q129 -165 134 -165Q146 -168 149 -170L147 -172V-175Q147 -178 143 -182Q143 -185 138 -186L136 -189Q138 -195 141 -195Q141 -196 144 -197ZM61 -158H63Q67 -153 75 -152Q78 -150 84 -149H86Q89 -146 89 -144L87 -127L86 -124L87 -121L85 -119V-118Q87 -116 87 -114L85 -109L86 -108L85 -105V-102V-98V-96H86Q87 -98 89 -98Q95 -102 99 -102L100 -104L99 -107H100L99 -108V-109L101 -114Q99 -114 99 -120Q95 -123 95 -126Q95 -130 98 -130L101 -131Q101 -130 109 -125Q115 -118 116 -118L117 -116V-115L116 -111V-110Q113 -84 111 -84Q111 -79 107 -77Q107 -75 104 -72Q101 -72 101 -76V-78V-80Q100 -80 99 -85L100 -89Q99 -93 98 -93Q95 -90 91 -89Q91 -88 77 -82Q69 -80 59 -71Q53 -65 52 -63L44 -56H42Q40 -56 36 -63Q35 -68 32 -73V-74Q36 -77 36 -80L35 -81Q37 -81 37 -85V-86Q35 -107 32 -107L30 -112L31 -113H32Q33 -113 49 -105Q53 -105 53 -100V-98V-97V-89V-86Q64 -87 64 -94L65 -100L64 -104L65 -106L64 -107L65 -117L64 -123L65 -126L62 -141L59 -149V-152Q60 -158 61 -158ZM173 -155Q174 -155 175 -152Q177 -152 180 -149Q187 -149 187 -145Q189 -145 190 -141Q189 -141 189 -137Q183 -132 181 -129Q179 -129 174 -123Q180 -123 180 -119V-117L177 -114H173H170H169Q166 -114 155 -110Q152 -108 144 -107H143L141 -105L138 -104V-103Q137 -97 134 -97H133L128 -104V-108V-115L124 -131Q123 -131 123 -133Q119 -137 119 -140L120 -141H121L128 -137H130Q138 -138 138 -140H142L153 -144L154 -145H158Q159 -145 159 -147H161Q163 -147 163 -145L164 -146L163 -148H165Q168 -149 173 -155ZM159 -137H158Q149 -133 145 -133Q145 -131 141 -131L139 -133L138 -132L141 -128L140 -127L141 -126Q140 -117 139 -117Q140 -113 141 -113H142L153 -117L154 -118L158 -117Q158 -119 165 -121V-123Q166 -125 166 -134V-136Q167 -138 167 -140H166L161 -137ZM174 -104H176Q182 -99 187 -99Q192 -95 192 -90Q190 -85 183 -82Q181 -82 174 -79L161 -72Q161 -71 169 -66V-64Q172 -67 180 -67Q180 -68 186 -69Q186 -68 188 -68Q191 -68 193 -70H197Q198 -72 205 -72L207 -74Q210 -72 216 -72Q216 -70 221 -70Q225 -65 225 -63Q223 -56 219 -56L218 -55Q211 -56 210 -58H208H206L193 -59L175 -58L174 -56L175 -52L174 -49L176 -46L175 -45L176 -41V-40L175 -39H176V-34Q176 -18 174 -16L175 -14Q174 -4 172 -4Q172 0 167 8Q167 10 154 21H153Q151 21 150 20V15Q149 13 148 9L143 2Q141 0 134 -5L135 -6H137Q140 -5 149 -3Q153 -5 153 -10Q156 -10 158 -35V-40L159 -49L158 -51L159 -52L156 -54Q152 -52 145 -52Q145 -51 135 -50Q135 -48 125 -46Q125 -45 120 -44L119 -45Q115 -41 110 -40L98 -45Q98 -46 95 -50L96 -51H98H100Q106 -53 116 -54Q116 -55 122 -55H125L126 -56H127H128L129 -57H131L142 -59H144Q144 -61 156 -63L154 -65V-66H155L151 -72Q151 -73 154 -74H155Q159 -74 161 -81L162 -82V-84Q164 -86 164 -90L165 -91V-92Q163 -92 161 -90H160L152 -86Q148 -84 145 -84Q145 -82 134 -79H130L121 -86V-87Q121 -89 123 -89Q135 -89 150 -94Q150 -95 155 -95H156Q158 -96 162 -97Q162 -98 167 -98Q170 -101 174 -104Z"/>
</svg>