<svg xmlns="http://www.w3.org/2000/svg" viewBox="0 -256 256 256">
	<path fill="#000000" d="M120 -203H121L124 -198L126 -199Q131 -196 136 -196L138 -195H139Q143 -195 146 -189V-185Q142 -176 142 -167Q142 -165 143 -165Q165 -167 165 -169L167 -175L166 -176V-179L167 -183L165 -190Q165 -194 170 -195H173Q175 -192 180 -189Q180 -188 185 -186Q189 -185 189 -182V-181Q189 -179 185 -175Q185 -173 179 -160Q174 -147 170 -144Q167 -140 164 -140H163Q162 -140 162 -142Q163 -155 164 -163H163Q161 -162 158 -162Q143 -158 140 -158L139 -157H138Q136 -155 126 -153V-152Q142 -147 142 -143Q142 -138 140 -135L138 -128L140 -127Q146 -127 151 -129H154Q183 -135 185 -136H193Q200 -132 200 -128V-126V-124Q200 -121 190 -121L176 -125H174Q171 -125 170 -123L167 -124L166 -123H163L162 -124L160 -122Q169 -115 169 -113Q169 -109 161 -105Q161 -104 158 -101V-100Q158 -99 166 -99H169H175H181Q190 -97 190 -90V-89Q190 -85 182 -81H181Q171 -84 163 -93L155 -97Q148 -86 137 -80Q137 -79 142 -78Q142 -77 146 -77L150 -74L149 -64L153 -65H154L161 -66H165L178 -68H181Q181 -69 185 -69Q191 -69 194 -71H195L206 -73H209Q221 -70 221 -67Q223 -67 223 -63Q223 -58 215 -56H214L207 -59L203 -58H202L192 -59Q188 -59 188 -58L180 -59L172 -57L170 -58V-57H169L167 -58Q149 -56 149 -54V-50V-48L148 -40L149 -32V-31Q149 -29 150 -17H149H150L149 -14V-7Q147 8 145 15Q141 22 136 27H135L134 26V23V19V18V17V13Q132 11 132 5V4H133L132 1V-5L131 -16L132 -19L131 -21V-26Q131 -30 131 -36V-38V-40Q130 -42 130 -47L131 -54H130Q128 -54 123 -52H117Q103 -49 92 -47Q91 -46 73 -42Q73 -41 67 -40Q65 -37 55 -34Q55 -33 47 -31H46Q37 -36 32 -41V-42L33 -43H34H38Q41 -45 55 -46L68 -50H74Q78 -52 83 -53L84 -54H86Q89 -54 93 -55H96Q100 -55 104 -57L105 -56L115 -59L116 -58Q118 -60 127 -60H128H129L128 -62L130 -64Q128 -71 127 -71L123 -70H122Q120 -70 120 -72L121 -74H120L119 -73Q110 -80 106 -85Q85 -66 75 -59H73L72 -60Q92 -81 96 -96L99 -99L96 -107L89 -104Q87 -104 84 -102L80 -100H79L77 -102Q73 -102 65 -110V-111Q65 -112 73 -113Q73 -114 85 -116L98 -118Q98 -119 106 -121Q106 -122 112 -122Q120 -122 120 -124L121 -128V-136Q121 -140 117 -144V-146L119 -149L118 -150Q116 -150 108 -146Q106 -146 96 -140Q95 -140 87 -134H85L82 -138V-143Q82 -148 87 -153V-159Q87 -170 80 -175L79 -178Q81 -181 83 -181Q84 -179 89 -177H91Q92 -175 99 -174Q104 -168 104 -163L101 -158Q101 -157 104 -156L110 -157L111 -156Q111 -158 117 -159L118 -158Q119 -158 121 -180Q120 -192 116 -196Q115 -196 115 -199Q118 -203 120 -203ZM104 -109Q115 -101 118 -100V-98L110 -90Q110 -88 120 -87Q128 -84 129 -82L130 -78H131Q138 -85 138 -88Q139 -88 141 -94Q144 -99 145 -102Q147 -108 148 -114V-119L147 -120Q135 -117 128 -117Q127 -116 122 -115Q117 -113 109 -111Q109 -110 104 -110Z"/>
</svg>