<svg xmlns="http://www.w3.org/2000/svg" viewBox="0 -256 256 256">
	<path fill="#000000" d="M151 -194H155Q160 -189 165 -187V-186Q169 -186 171 -180V-174Q170 -172 169 -167Q164 -164 158 -164H157H155Q155 -163 152 -163H149H148H146Q145 -161 140 -160H139V-159H144Q149 -158 149 -156L155 -151V-147V-146Q159 -146 172 -151L174 -153H175Q184 -153 187 -145Q187 -144 182 -140H176L171 -139H166Q164 -136 158 -136Q158 -135 155 -135L154 -119V-117V-115V-101V-98V-94V-90V-82L153 -81L154 -79L153 -76Q162 -65 165 -65Q166 -62 173 -59Q173 -57 178 -55L184 -51Q185 -49 189 -48Q189 -47 191 -47Q194 -43 207 -38Q209 -35 215 -33Q217 -33 218 -31Q224 -29 225 -29Q229 -27 231 -26Q234 -26 236 -24H237L238 -25H239L243 -22V-19L242 -18H241H238H235L225 -15Q225 -14 224 -14H223H221Q213 -10 208 -6L207 -5H206L196 -11Q196 -13 193 -13Q193 -14 191 -14Q191 -16 183 -23Q180 -24 175 -31Q173 -31 171 -36Q168 -36 163 -44Q162 -44 160 -48L156 -50L154 -46L155 -40L154 -36Q154 -34 155 -34L154 -29V-26Q154 -12 153 -9L154 -7V-6Q152 9 147 14L142 18Q139 18 138 13L139 10L137 4V0L136 -6Q137 -6 138 -37V-38L137 -51L138 -53L137 -54Q134 -49 130 -47Q130 -44 118 -34Q117 -34 109 -27V-28H108Q103 -22 85 -11Q85 -10 82 -10Q82 -8 77 -6H76L75 -8Q75 -11 81 -12Q82 -15 86 -17L103 -32Q130 -61 130 -65Q137 -73 137 -76V-90L138 -94L137 -97V-101L138 -110L137 -113L138 -114L137 -117V-123L136 -124L132 -123L130 -124Q130 -121 121 -117L111 -110Q111 -108 108 -108H107Q106 -108 99 -117Q93 -118 93 -123V-124Q93 -125 96 -125H99Q100 -126 103 -126Q103 -128 112 -129Q112 -130 117 -132V-133L120 -132Q121 -134 125 -134Q129 -138 131 -138H132Q136 -138 136 -139V-140L135 -143H136Q135 -147 133 -151V-156L132 -157Q132 -155 126 -153Q126 -152 121 -152Q120 -149 112 -147L111 -146H110Q110 -145 103 -144H99V-145V-146Q99 -148 108 -152Q110 -153 119 -159Q119 -161 122 -162L136 -172Q138 -175 145 -180L146 -181L144 -186V-189L147 -191L150 -193ZM39 -140H41Q45 -135 53 -134Q56 -132 63 -131H64Q67 -128 67 -126L65 -109L64 -106L65 -103L63 -101V-100Q65 -98 65 -96L63 -91L64 -90L63 -87V-84V-80V-78H64Q66 -80 72 -82L73 -84L72 -87H73H72V-89L74 -94Q72 -94 72 -99L69 -104V-109L74 -111Q74 -110 82 -105Q88 -98 89 -98L90 -95L89 -90Q86 -63 84 -63Q84 -59 81 -56Q81 -55 77 -52Q74 -52 74 -55V-58V-60Q73 -60 72 -64L73 -68Q72 -72 72 -73Q70 -70 60 -66Q59 -64 52 -63L41 -56L39 -54Q39 -52 36 -51Q36 -49 27 -41H25Q23 -41 19 -49Q18 -53 15 -59Q19 -62 19 -65L18 -66Q20 -66 20 -70V-72Q18 -92 15 -92L13 -97L14 -99H15Q16 -99 32 -90Q36 -90 36 -85V-83V-82V-74V-72V-71H37H38L39 -70Q43 -70 43 -82L42 -86L43 -88L42 -89L43 -99L42 -105L43 -108L40 -123L37 -131V-134Q38 -140 39 -140ZM169 -129H170Q172 -129 178 -125Q183 -123 183 -118Q186 -118 188 -121Q189 -121 191 -123H194Q194 -122 199 -121L200 -118Q198 -111 193 -111Q193 -109 189 -108Q189 -107 183 -105Q183 -104 179 -103V-100V-99L178 -91Q179 -91 179 -88H180Q181 -90 183 -90V-89Q186 -90 191 -93Q201 -90 201 -87V-85V-84Q198 -79 194 -79L192 -80L189 -79V-80L184 -79H182H179H177H176Q173 -79 169 -90L170 -92L169 -93V-97V-99V-103V-104V-108V-111V-112Q167 -125 166 -125V-126ZM112 -106H113L123 -101L126 -99V-97V-96V-94V-91V-86H127L133 -91H134L135 -90V-89L126 -81V-77Q126 -69 123 -65Q123 -61 120 -61Q118 -65 117 -72H116Q102 -57 100 -56Q97 -56 90 -62V-64Q90 -65 93 -66Q99 -72 102 -72Q102 -73 115 -80L116 -81V-88Q112 -101 109 -104ZM105 -97H106Q108 -95 110 -95L111 -94Q111 -88 104 -86L101 -83H98Q91 -87 91 -90Q91 -91 96 -92Q96 -94 101 -94Z"/>
</svg>