<svg xmlns="http://www.w3.org/2000/svg" viewBox="0 -256 256 256">
	<path fill="#000000" d="M151 -193Q154 -193 163 -186Q170 -185 170 -180V-179Q170 -175 165 -175L163 -173H156Q153 -173 145 -169Q142 -167 136 -167Q136 -165 134 -164H133L131 -165Q130 -159 126 -159Q120 -154 110 -150L109 -151V-152Q122 -162 137 -176Q140 -180 143 -185Q144 -185 145 -186V-188Q143 -188 143 -189Q145 -193 151 -193ZM53 -179L57 -175Q61 -173 62 -172L64 -173Q72 -169 72 -167L71 -165L72 -162Q71 -162 70 -155H69V-154L70 -149H67Q69 -147 69 -145V-144H70L81 -149Q82 -152 85 -152Q87 -152 91 -149Q93 -149 93 -147H94Q100 -147 104 -142V-141V-138Q104 -137 102 -137L103 -135Q102 -132 100 -131L102 -129Q100 -128 100 -124L98 -122L99 -120L98 -117H99L98 -112V-108Q97 -106 97 -104V-99Q94 -92 94 -88Q93 -87 93 -85V-84L92 -82L93 -81Q93 -80 90 -79V-78L91 -76Q89 -76 87 -70Q84 -70 80 -64H79L77 -65L78 -67Q78 -70 75 -79Q75 -81 71 -82Q70 -86 68 -86L66 -85L67 -82L66 -80L67 -78H66L67 -77L66 -74Q67 -67 69 -61L67 -55V-54L68 -53V-50L69 -44L68 -42H69V-41L68 -40L69 -36L68 -35Q70 -32 70 -25V-19L71 -15L70 -9L71 -7L70 0V2Q68 10 67 11Q62 17 59 17Q57 15 54 3L52 -2L53 -8V-9Q53 -21 54 -21V-26L55 -27V-28H54L55 -49V-54L56 -56Q55 -57 54 -62L55 -69L54 -74L55 -77V-79V-80V-81V-82L54 -86H55V-87L54 -92L55 -95L54 -98L55 -102L53 -103V-104H55V-106V-108V-111L53 -113V-114Q53 -115 54 -115V-117L53 -119L55 -122L54 -124V-125L52 -126L51 -124L48 -125Q44 -122 39 -120L43 -118V-117L42 -115V-114V-113L41 -110L42 -108V-107V-104V-101V-97L43 -90L42 -85L43 -80L42 -78Q44 -78 44 -77L43 -73L44 -71V-70Q44 -69 41 -69V-68Q44 -68 44 -60L42 -58L43 -56Q39 -53 39 -50Q36 -47 34 -47Q30 -47 30 -53Q28 -53 28 -59Q27 -59 26 -60Q26 -73 28 -75L27 -77L28 -80Q27 -87 27 -88L28 -90L27 -92L28 -94L27 -96V-98L28 -102L27 -104V-106V-108Q26 -111 26 -113V-114L21 -123V-127Q21 -129 23 -129Q25 -127 28 -125L29 -124Q33 -124 43 -131Q44 -132 55 -136V-137L54 -142V-144V-147L53 -151V-153Q53 -165 45 -171Q44 -171 44 -174Q50 -179 53 -179ZM171 -171Q176 -166 178 -166Q183 -166 188 -160V-157Q188 -153 181 -152Q177 -149 172 -147Q171 -145 170 -145H168Q168 -142 155 -135Q154 -133 154 -131H155Q156 -132 163 -135L164 -134Q166 -135 171 -136Q171 -138 175 -138L177 -140Q184 -139 184 -138Q189 -138 192 -132Q192 -129 189 -129L188 -130L186 -129L174 -130H172L171 -131H170Q170 -128 162 -128L158 -127L155 -128Q155 -127 153 -126L151 -127Q149 -126 149 -125Q151 -124 151 -123L150 -120Q150 -118 154 -117Q157 -112 159 -112H160Q160 -108 173 -102Q174 -100 176 -100Q179 -96 183 -96Q187 -94 202 -88V-87H203H204L218 -82L219 -83Q225 -81 226 -80H228H233H234L235 -79V-78Q232 -77 222 -74L219 -73L217 -74Q216 -72 208 -69L204 -66H202L201 -68H198H196V-66V-63Q196 -60 192 -51Q189 -42 186 -28Q184 -28 184 -26V-24Q183 -22 180 -13Q179 -13 179 -11Q174 -1 167 2Q167 3 165 3H164Q162 2 162 0V-1L164 -3L163 -6L164 -7V-8Q163 -8 163 -9V-11H161L162 -13Q162 -17 158 -18L148 -16L137 -13L135 -14Q134 -11 131 -11L129 -12Q129 -10 125 -9Q125 -5 120 -2Q115 -2 111 -15V-18L112 -20L111 -22V-24Q109 -32 109 -38L108 -39V-41Q107 -41 106 -45L107 -46Q105 -49 103 -57L104 -58L102 -60V-63L103 -64H104L110 -63H112Q113 -61 116 -61Q116 -63 117 -63L120 -62L123 -64L125 -63Q127 -63 136 -67L135 -73V-77V-79L136 -80Q135 -85 134 -86L135 -89V-90L134 -91V-92Q135 -94 135 -96L137 -98Q135 -98 135 -99V-101L137 -103V-104H135Q135 -100 132 -99V-97Q130 -96 128 -90Q125 -90 125 -88Q125 -87 117 -81Q117 -79 112 -76Q112 -74 106 -70Q106 -68 100 -66Q99 -62 95 -62Q95 -59 89 -56Q89 -55 79 -48Q76 -45 74 -45V-46Q81 -54 84 -54Q84 -55 92 -62Q93 -66 104 -75Q104 -76 107 -78L114 -87Q120 -93 121 -96Q123 -96 123 -99Q125 -99 129 -111Q132 -116 136 -120L135 -121H134L133 -120H131Q131 -116 125 -116L122 -114Q122 -113 117 -112Q117 -111 113 -111L111 -109H110L108 -111Q106 -111 102 -114Q102 -116 107 -117Q109 -118 119 -120Q119 -121 123 -122Q127 -124 134 -126Q136 -126 136 -128H135L136 -135V-138V-139L135 -149L134 -154V-155V-157Q132 -158 132 -159V-162H133Q137 -162 137 -159L138 -161Q144 -157 152 -156Q153 -153 154 -152V-151L152 -146V-143L151 -141Q151 -139 154 -139Q154 -141 157 -141L158 -142V-145L164 -156Q165 -156 166 -161Q167 -161 167 -163V-164Q167 -166 165 -168Q165 -170 171 -171ZM112 -147H113Q115 -147 118 -145H120Q130 -143 130 -140L129 -139L130 -136Q128 -128 123 -124H122Q119 -126 116 -135Q115 -135 113 -144L111 -145V-146ZM71 -133H68V-128L67 -127L68 -125Q66 -123 66 -115V-113L67 -111L66 -103L67 -100V-93Q67 -89 72 -88H74Q77 -88 77 -93Q78 -93 79 -99V-102L80 -107L79 -109L80 -114L79 -116Q79 -122 81 -124L80 -130L81 -137V-138H80Q78 -136 73 -135ZM149 -97Q151 -97 151 -96V-95L150 -94L151 -91L150 -88L151 -84L149 -82V-78L147 -77L148 -74L147 -71L152 -70L153 -72L156 -71L160 -73H161L163 -74H164H165Q165 -76 170 -77Q172 -80 177 -80L179 -78H180Q179 -81 174 -82Q174 -83 173 -83Q170 -85 169 -87Q166 -89 159 -97L155 -99Q155 -102 153 -102Q149 -101 149 -97ZM167 -66H166L164 -68H162Q160 -64 145 -61H141L137 -59L134 -57L133 -58H132Q132 -56 129 -56L128 -54L125 -55V-54V-52L124 -50Q125 -50 125 -48Q124 -42 124 -41Q125 -40 125 -37Q125 -40 129 -41H131Q131 -43 138 -44L139 -45V-46V-49V-50V-52L138 -55L139 -56L138 -58Q138 -59 140 -59H144H146Q148 -59 150 -57H152L154 -54L153 -51V-50Q153 -52 156 -52H157Q157 -54 160 -54Q161 -54 168 -50Q170 -52 170 -56L169 -59H171V-60Q170 -60 170 -61Q170 -65 174 -68H173H170ZM166 -44L165 -42L161 -43L160 -41L157 -42L156 -41H154H152L153 -39Q151 -39 151 -32L149 -31L151 -27Q151 -26 149 -23H152H153H156H155V-24Q155 -25 163 -26Q168 -30 168 -42V-43ZM139 -37Q139 -36 134 -36Q131 -36 127 -32H125V-33V-32L126 -20L125 -15Q128 -18 134 -18Q134 -19 139 -20V-24V-26L140 -37H139Z"/>
</svg>