<svg xmlns="http://www.w3.org/2000/svg" viewBox="0 -256 256 256">
	<path fill="#000000" d="M160 -180H161Q162 -180 174 -176Q174 -174 178 -174Q181 -169 181 -167Q181 -162 176 -158L170 -155H168L167 -156H165Q163 -155 160 -155Q166 -149 166 -146V-145V-144V-143L169 -140L174 -143Q176 -143 184 -148L190 -150H192Q197 -147 197 -146V-143L192 -138H187L183 -136Q179 -136 170 -132Q173 -130 174 -126Q175 -122 191 -108Q192 -106 197 -103Q197 -100 205 -95Q205 -92 208 -92Q208 -90 211 -90L213 -88H215Q220 -88 220 -96Q220 -101 222 -101H223L224 -100V-99H223L224 -96L223 -89Q224 -82 227 -79L226 -78L229 -75V-73Q229 -69 225 -65L220 -62Q213 -65 211 -69Q203 -76 202 -76L198 -79Q198 -80 193 -82H192Q192 -79 189 -77Q189 -73 187 -69L188 -67V-63L187 -53L188 -50H187V-49L188 -46V-44L187 -41L188 -39H187L188 -36V-29L187 -23L188 -18Q186 -16 185 -11L186 -10Q182 -5 181 -2Q176 4 173 4Q171 4 170 -5Q165 -13 164 -14V-16Q164 -17 169 -17L170 -18H169V-19Q170 -25 171 -27L170 -28V-32L171 -35L170 -38V-39Q170 -54 168 -67L169 -68L167 -74L168 -77L166 -78Q164 -78 162 -76H161L158 -77Q158 -76 157 -76H156L147 -72Q145 -72 144 -71Q140 -71 139 -69H138H134V-68L137 -66Q137 -62 135 -62L137 -59V-58L136 -54H137V-50H136H137L145 -53L153 -56H157Q162 -56 163 -52Q158 -46 151 -46L149 -44H146Q139 -42 138 -42V-41H139L138 -39Q138 -35 139 -34V-29V-27V-24Q142 -24 154 -27Q158 -27 163 -24V-23Q161 -18 153 -18H151Q147 -15 138 -13Q137 -13 135 -10L133 -9H131Q129 -11 129 -18L127 -21V-22L128 -27L127 -30H128H127V-31L128 -37L127 -39V-41Q127 -55 126 -59V-60L124 -73Q123 -73 123 -75Q124 -77 126 -77H128Q128 -75 132 -72V-74Q133 -76 143 -79L156 -84Q157 -87 161 -87L162 -88H163L166 -90Q167 -90 169 -92H171H172Q181 -88 188 -88V-89L179 -101V-104Q175 -104 166 -121V-122L162 -128H161L147 -121Q143 -121 135 -125Q133 -125 132 -126Q133 -128 142 -130Q143 -131 157 -136Q157 -143 151 -147Q149 -151 148 -151Q146 -149 139 -147Q139 -146 131 -143L129 -141V-140L130 -136Q127 -136 127 -125V-122L126 -119V-117L125 -114L126 -112L125 -102V-99V-98Q125 -96 126 -96L129 -98V-97Q133 -97 140 -103L150 -108L160 -114L161 -113Q158 -109 147 -101L139 -95Q134 -90 129 -84L120 -78Q114 -68 107 -68Q103 -68 103 -70V-71L101 -74V-75Q102 -85 104 -85L110 -88H112V-92Q112 -96 113 -98V-99L114 -111L113 -113L114 -117L113 -119H114L112 -136V-139L111 -147L110 -149L112 -150H113Q115 -148 117 -148L122 -145H123L150 -169Q151 -169 151 -170Q151 -171 149 -173V-175V-176Q149 -178 152 -180H153ZM64 -171Q66 -171 69 -167Q71 -167 73 -165L79 -163H83Q87 -159 88 -156V-152V-151L83 -145L84 -139V-137H85Q90 -141 94 -141H95Q109 -138 109 -135Q109 -128 104 -128Q96 -126 94 -125Q85 -122 80 -121L81 -119L80 -114L81 -112L80 -107V-102V-100V-99V-95V-94V-92V-91V-90V-89V-88V-84V-82V-72V-64V-63V-57V-54V-50V-32V-24V-23V-22V-21V-19Q79 -18 78 -8Q71 4 69 4H67L63 1Q62 -7 62 -20L60 -25Q62 -30 64 -49V-50Q63 -50 63 -52L65 -56L64 -59L65 -68Q65 -70 64 -70V-72V-76L65 -77V-81V-84Q65 -86 64 -86V-90V-93L65 -115L64 -118L65 -120Q63 -131 63 -144V-156Q63 -159 58 -162L57 -164Q61 -171 64 -171ZM39 -131Q40 -131 44 -122Q47 -118 47 -111Q48 -111 49 -99Q47 -99 47 -89Q44 -86 43 -85V-83L40 -80Q40 -79 36 -76H35L31 -75H29Q27 -75 26 -78L27 -81L26 -86V-87Q27 -90 28 -101Q32 -106 35 -118Q37 -118 38 -126L37 -131Z"/>
</svg>