<svg xmlns="http://www.w3.org/2000/svg" viewBox="0 -256 256 256">
	<path fill="#000000" d="M92 -185Q95 -185 96 -183Q100 -183 105 -180H109Q109 -179 117 -176Q122 -172 122 -169L121 -164L122 -163H123Q126 -166 128 -166H131Q133 -163 136 -162H137Q139 -162 141 -158Q141 -156 133 -153Q133 -152 128 -151Q128 -150 120 -147Q120 -145 117 -145Q114 -141 114 -134V-130H116L134 -136Q146 -132 146 -131Q146 -128 141 -126Q137 -124 129 -124Q129 -123 123 -122Q122 -120 110 -117L109 -115Q109 -113 112 -113L113 -111Q113 -99 111 -99Q111 -98 114 -98L115 -97H116L117 -98H131Q143 -95 143 -90L144 -89Q144 -87 138 -82H137Q135 -82 132 -85V-84H130Q128 -86 126 -86Q122 -90 113 -94Q111 -94 111 -82V-80Q111 -75 110 -72V-70Q110 -55 107 -55Q104 -50 95 -45Q92 -45 92 -50Q92 -53 90 -54Q90 -58 78 -68L79 -69H80L86 -68H88L91 -67H92V-71V-74L93 -75V-81L94 -84V-92L93 -97L94 -100L93 -106L94 -109L93 -110L89 -107L88 -108Q84 -104 78 -102Q71 -98 65 -96Q65 -94 56 -91Q53 -87 51 -87L42 -94H41Q38 -97 33 -99V-101Q33 -103 51 -108L62 -111Q74 -117 87 -119Q87 -120 90 -120H91Q94 -121 94 -124V-131L95 -133Q93 -160 90 -170Q88 -170 85 -175V-176Q88 -183 90 -183Q91 -185 92 -185ZM191 -175Q193 -174 197 -167Q200 -167 203 -163Q209 -163 210 -160V-155Q207 -150 203 -149L197 -140Q192 -130 189 -124L182 -112Q186 -110 194 -108H195Q197 -108 202 -105H203Q216 -99 218 -98Q222 -93 223 -88Q223 -81 216 -78H215Q207 -80 204 -82Q196 -86 196 -89H195Q193 -89 187 -93Q186 -93 184 -95Q182 -95 174 -100L173 -101Q156 -83 153 -83L147 -79L141 -76Q140 -73 136 -73Q136 -72 126 -68L125 -67H123V-68L141 -81Q143 -81 154 -94L163 -107V-108H162Q156 -108 153 -113Q150 -114 148 -117L149 -118H150Q152 -118 154 -117H157L159 -116L161 -117L168 -114Q170 -117 178 -141L179 -147Q173 -144 167 -140Q163 -141 154 -149V-151Q154 -152 161 -153Q168 -158 172 -158Q173 -160 181 -162L185 -165L191 -172H190V-173ZM67 -94Q71 -90 74 -88L75 -81Q73 -61 69 -61Q64 -58 62 -58Q59 -59 59 -66Q63 -77 65 -89V-93ZM182 -66Q198 -65 205 -63Q218 -58 218 -54L222 -49V-47Q222 -37 210 -37Q202 -42 199 -48Q198 -48 192 -54Q191 -54 182 -62Q181 -62 180 -63V-64Q180 -65 182 -66ZM136 -61H137Q139 -61 142 -56Q143 -56 149 -51H150L163 -59L164 -61H165L166 -59L162 -54Q160 -51 157 -49Q153 -37 150 -37Q150 -36 145 -35Q141 -35 139 -43V-44V-45Q139 -48 135 -60ZM105 -47Q108 -47 116 -36Q119 -36 120 -32L130 -26Q135 -22 144 -18Q144 -17 154 -13H159L160 -12H163L175 -11Q182 -12 182 -14V-16L180 -28V-29Q178 -32 178 -37Q176 -38 176 -40V-41H177Q186 -33 191 -23Q192 -23 195 -19Q201 -14 211 -9L212 -7V-1Q210 4 204 7L189 9H188Q186 8 185 8L183 9Q178 9 178 8H177Q170 8 152 4L146 2Q132 -2 131 -4L123 -10Q121 -16 114 -22L109 -33L105 -40L104 -46L105 -47ZM87 -45Q89 -45 89 -34Q87 -21 85 -2Q80 7 74 7Q69 7 68 -4V-7Q70 -14 70 -18Q72 -22 76 -26Z"/>
</svg>