<svg xmlns="http://www.w3.org/2000/svg" viewBox="0 -256 256 256">
	<path fill="#000000" d="M121 -186H122L128 -180Q137 -176 137 -174L138 -170Q135 -160 131 -160Q131 -158 127 -157L123 -154Q123 -153 119 -150Q119 -149 116 -147Q116 -144 114 -144V-143L128 -148L136 -145V-144V-143Q136 -141 131 -139L129 -140Q126 -140 119 -137L116 -136L114 -137V-136Q111 -133 108 -133H106Q106 -129 97 -128Q97 -126 88 -124V-123Q92 -121 94 -121Q96 -120 96 -117Q101 -117 103 -113Q103 -106 101 -105L102 -103L101 -101L102 -98L108 -101Q113 -101 113 -104L114 -110L113 -118L114 -119V-120Q112 -120 111 -122V-123L113 -125Q119 -125 119 -121Q120 -121 123 -117Q124 -117 127 -115V-114L126 -112V-109L122 -99L123 -96Q120 -95 120 -93Q117 -90 114 -86H113Q112 -86 111 -88L112 -90V-92V-93V-95V-98Q110 -98 101 -92L102 -90L100 -80L101 -78L100 -76V-73Q100 -70 98 -69L99 -68L98 -56V-53Q96 -52 94 -45Q91 -42 90 -40H89Q88 -40 88 -41V-43L87 -45L88 -49Q87 -49 85 -53Q85 -54 88 -57Q90 -61 90 -65V-71Q90 -72 92 -74V-76L90 -78V-79L92 -81L90 -87Q89 -87 88 -85Q84 -83 80 -77Q78 -78 78 -80H77Q76 -72 73 -72L66 -70L65 -72V-76V-79Q71 -86 71 -93Q70 -99 69 -100V-103Q66 -108 66 -111H65L57 -105H55Q51 -107 44 -112Q36 -117 34 -117L33 -120L41 -122H43Q43 -123 49 -124L50 -123L62 -127Q64 -128 73 -129Q73 -130 78 -131Q78 -132 82 -132L83 -133H87Q87 -134 93 -134Q95 -138 101 -138Q101 -140 105 -140Q110 -147 113 -153L114 -158L117 -164L118 -172Q112 -178 112 -180Q112 -183 119 -185ZM66 -171H68Q78 -167 85 -165Q85 -163 92 -161Q98 -156 98 -151V-146Q96 -140 93 -139Q92 -137 91 -137Q84 -138 78 -150Q77 -154 71 -162L65 -169V-171ZM184 -166Q188 -160 193 -160Q201 -158 201 -153Q197 -140 195 -140H196L194 -123L195 -118L194 -116L195 -110L194 -109L195 -106L194 -104L195 -102L194 -99L195 -91L194 -90V-89L195 -88Q194 -70 191 -63Q190 -63 189 -59Q184 -52 178 -48H177L176 -56V-58Q172 -66 166 -71L167 -72H169Q172 -70 176 -70L177 -71V-75V-77L178 -78L177 -80V-81V-84V-87V-89V-94V-95V-99V-101V-102V-108V-113V-119V-128L176 -134L177 -136L176 -138L177 -143V-147Q177 -149 174 -150H173Q170 -149 167 -149Q164 -145 150 -143H149Q141 -145 141 -147V-148V-149Q146 -149 148 -148Q148 -151 157 -152Q157 -153 165 -153Q177 -158 177 -160L182 -166ZM141 -138Q143 -138 150 -131Q152 -131 155 -127V-126H154L155 -122L160 -125Q162 -125 166 -128Q168 -128 168 -126H171Q172 -126 172 -123Q169 -121 163 -119L161 -118L159 -117H157Q157 -114 152 -114L153 -113Q153 -104 150 -104V-103L151 -101L148 -97L149 -96H150Q152 -99 156 -99Q160 -102 165 -102L166 -101L168 -102Q173 -102 173 -101Q172 -98 167 -98Q162 -94 157 -94Q156 -92 150 -91Q150 -84 148 -84H149V-81L146 -78L147 -77Q145 -73 142 -73L143 -71Q140 -65 137 -64V-62Q128 -49 126 -49L121 -45L116 -41H115L114 -42V-43L122 -49Q122 -51 126 -53Q132 -64 132 -65Q133 -65 134 -70Q137 -70 137 -80L140 -83V-84L139 -85V-93Q139 -95 140 -95V-96V-102L141 -105V-119Q141 -120 139 -120V-121L140 -127V-128L137 -135Q137 -138 141 -138ZM80 -118H78Q78 -117 77 -117H74Q74 -115 67 -112Q70 -112 75 -105Q77 -105 78 -103Q81 -103 81 -99Q79 -91 78 -91L77 -90V-89H78Q85 -91 87 -93H92L91 -96L92 -99L90 -101L91 -105V-107L92 -108V-109L91 -110L92 -112V-113Q90 -113 90 -114V-115L91 -116Q88 -116 88 -120L86 -122L81 -120Q81 -118 80 -118ZM194 -61H195Q195 -59 208 -58Q208 -57 215 -56Q222 -53 222 -48Q220 -39 213 -39H211Q208 -41 204 -50L193 -59V-60ZM163 -54Q165 -53 165 -52L159 -48Q158 -46 154 -45L155 -44V-43Q155 -42 151 -41L152 -39Q150 -33 141 -30Q139 -32 138 -38Q137 -38 137 -39V-41L136 -47V-49Q134 -49 134 -50V-51L135 -52H136Q138 -50 142 -49V-48L141 -47V-46H142L150 -49H151L154 -50L155 -49Q155 -50 161 -52Q161 -53 163 -54ZM101 -40Q114 -32 114 -29L123 -22Q126 -22 127 -20H129L134 -16Q148 -14 149 -12H153Q156 -12 156 -10H159L171 -8L174 -9L176 -8Q182 -8 182 -12L183 -13Q182 -26 179 -30L180 -31H181Q183 -29 186 -24L190 -20Q191 -20 194 -17L209 -11L211 -9V-7L212 -3Q212 3 200 7H199L193 8V7L189 9L187 8L185 9H183H182L170 8H167H165L164 7H159Q149 5 149 4Q144 4 144 3H142H141L130 -2L121 -9Q121 -10 115 -15Q105 -27 105 -31Q105 -33 100 -38V-39ZM82 -37Q83 -37 85 -31Q83 -31 81 -7V-4Q79 6 76 6Q72 10 68 10Q64 10 62 0V-7Q62 -9 60 -11V-12Q62 -13 62 -15L67 -22Q67 -24 75 -31Q75 -32 82 -37Z"/>
</svg>