<svg xmlns="http://www.w3.org/2000/svg" viewBox="0 -256 256 256">
	<path fill="#000000" d="M161 -200H163L172 -193Q175 -191 176 -189Q172 -183 172 -179V-178H174H177H179H181H182Q183 -178 183 -180V-182L184 -189L183 -190L185 -192Q183 -193 182 -195Q182 -196 187 -198Q191 -195 198 -192Q201 -189 201 -188V-187Q198 -184 198 -182H201H203Q207 -182 211 -175V-173L210 -172H209H201Q193 -172 193 -167L191 -161L190 -158V-156Q205 -151 205 -143Q202 -140 198 -140L194 -141L192 -140Q188 -141 188 -143L187 -142H186Q183 -144 179 -149V-150L180 -152V-153Q181 -157 182 -170L183 -171Q183 -173 180 -173Q180 -171 176 -170L175 -171Q174 -169 169 -167L168 -165L169 -163Q166 -154 164 -151Q164 -149 168 -149Q170 -147 170 -145V-141Q170 -140 168 -140H160Q160 -139 157 -138L154 -139L151 -136L148 -137V-136Q149 -133 156 -131L158 -129L168 -131L172 -132L177 -131Q177 -133 188 -134Q188 -135 196 -135V-136H199L214 -131Q219 -126 221 -122V-119Q221 -117 218 -113Q211 -114 208 -115Q205 -114 201 -114Q199 -112 196 -112L187 -109V-107Q191 -104 193 -102L191 -81V-80L188 -67L187 -66L189 -63V-62Q186 -59 184 -54Q182 -54 178 -50L173 -46H172L170 -48V-51L171 -53V-54Q169 -55 165 -64Q164 -64 162 -66Q161 -66 158 -69H157L156 -68H155L154 -62L155 -61V-60Q154 -55 153 -54V-53L154 -52V-50Q154 -47 149 -43Q149 -41 146 -41L145 -45L146 -48Q144 -48 144 -54Q144 -59 145 -60L144 -62V-63L145 -64V-66Q143 -68 143 -70L145 -76L144 -81Q146 -83 146 -86L144 -87V-89V-92Q144 -95 143 -95H142L141 -92H140V-93L138 -92H137L136 -93Q133 -90 130 -90L129 -86V-79L128 -77Q129 -77 129 -75L130 -64L129 -63L130 -61V-60L129 -58L130 -55Q127 -49 122 -44Q120 -44 117 -53V-58L116 -66V-69V-72Q114 -86 111 -93V-94Q111 -96 115 -99Q116 -99 116 -97H119L123 -94Q129 -98 135 -98Q135 -99 142 -100L144 -102V-106Q145 -106 145 -108L144 -109L145 -111L144 -113L145 -116Q143 -121 141 -122Q140 -119 139 -117L136 -118Q134 -118 133 -116L129 -117Q129 -114 123 -114L122 -115Q120 -112 115 -112Q113 -112 111 -109V-108L110 -105V-101L108 -95L102 -87Q100 -87 100 -85H99Q94 -85 94 -93L97 -104L98 -115V-122Q98 -124 97 -126L98 -127Q99 -127 106 -120Q110 -131 110 -136L111 -153H110H109L106 -152H105Q103 -152 95 -157Q93 -157 93 -160Q93 -161 106 -164Q106 -165 110 -165H111V-166Q108 -170 105 -181Q105 -184 111 -185H112Q120 -181 121 -179Q124 -179 124 -176V-169L126 -168Q134 -170 134 -172L132 -185H133H134Q143 -180 148 -174L151 -172V-173Q151 -174 157 -175L159 -180L158 -190V-192L156 -195V-196ZM57 -168H61L72 -166L73 -167H74Q81 -162 84 -160Q90 -153 90 -152V-151L89 -149V-147Q82 -139 81 -139Q74 -139 71 -145Q69 -146 65 -156Q63 -157 59 -164Q56 -164 56 -167ZM154 -167Q154 -164 150 -164L148 -163L147 -164L145 -158L146 -157Q143 -153 141 -145H140V-144Q143 -144 144 -140H145Q146 -140 148 -145L150 -146L154 -145Q156 -145 157 -165ZM133 -162Q133 -161 130 -160Q123 -158 123 -153H121L122 -150Q122 -144 117 -131Q115 -131 113 -126L107 -117L126 -122H128L139 -126L142 -125H143V-126Q143 -127 141 -128Q140 -133 138 -133Q137 -133 135 -137Q134 -137 133 -144V-149Q133 -152 134 -152L133 -160Q134 -160 135 -162ZM44 -130Q45 -129 52 -129H53Q72 -123 72 -117L71 -115L72 -113L66 -106L64 -107Q64 -104 62 -104H61Q57 -104 53 -111L39 -124L34 -128L35 -129H39ZM174 -125L171 -126Q170 -124 169 -124H165Q161 -123 161 -120Q161 -117 159 -111V-105H161Q161 -106 168 -107L169 -106H170Q170 -108 174 -109Q174 -110 177 -111L178 -112H179L181 -110H182Q185 -110 191 -123V-125L189 -126H188L186 -128Q183 -125 174 -125ZM158 -96L159 -94Q157 -89 157 -83H156L157 -81V-78V-77L156 -72Q156 -71 158 -71H160Q162 -71 164 -68H165L169 -69H171L172 -74V-77H174V-78L172 -80V-81Q172 -85 173 -85Q172 -88 172 -94L174 -99H172H171H169L168 -100H167Q166 -99 158 -96ZM81 -96L82 -95V-92L79 -86V-85Q78 -83 77 -76Q76 -70 75 -65V-53L76 -52V-51V-49V-47V-46Q72 -40 68 -38H66Q63 -38 57 -47V-51Q56 -55 56 -59Q52 -66 52 -68V-69L60 -68Q63 -70 75 -85L80 -94Q80 -96 81 -96ZM94 -48H95L96 -47Q96 -45 90 -40Q86 -31 86 -29L84 -24V-21V-19V-18Q83 -17 83 -15H82L83 -14L82 -12V-10L83 -8L82 -6Q84 -5 84 3Q79 11 75 13L72 14Q68 14 65 4L66 -12L65 -17Q80 -33 85 -37ZM187 -47L190 -46H192L207 -44Q214 -41 221 -34V-33V-30V-27Q216 -19 210 -19Q206 -20 202 -25Q195 -32 183 -41Q177 -42 177 -44L178 -45H181H184ZM98 -45Q100 -43 103 -36Q105 -36 105 -34V-32L117 -21Q118 -21 119 -18Q120 -18 122 -15Q123 -15 127 -11Q129 -9 134 -8L138 -4L139 -5H141Q143 -3 150 0H159L160 1H161L168 2L169 0H174H175L177 1V-5V-6Q176 -7 175 -12L176 -13Q173 -16 173 -21Q172 -21 172 -24L173 -25L182 -16Q194 -4 198 -3Q198 -1 204 0Q208 4 208 7V9Q205 18 199 18Q190 23 179 23Q179 24 175 24Q165 24 163 23H162H160L158 22H156Q147 21 147 20H146Q134 18 134 16H133Q131 13 125 11L124 9V7H122Q108 -4 105 -18Q103 -19 102 -27Q100 -27 98 -40Q97 -40 97 -44ZM165 -40V-39L156 -31L151 -17L145 -14Q143 -14 141 -18Q138 -18 138 -20L137 -25V-28Q134 -28 133 -32V-33V-38V-39H135Q139 -36 140 -34H142L146 -32Q151 -36 155 -36Q155 -37 159 -37Q159 -39 165 -40Z"/>
</svg>