<svg xmlns="http://www.w3.org/2000/svg" viewBox="0 -256 256 256">
	<path fill="#000000" d="M148 -187H152Q156 -181 161 -181Q161 -180 167 -179L168 -180Q170 -179 172 -176Q172 -169 169 -163L170 -162L169 -157V-151L168 -148H170Q176 -152 182 -153Q189 -159 192 -159Q207 -158 207 -153L208 -152Q206 -147 201 -147Q192 -142 184 -139Q180 -135 176 -135Q172 -132 168 -131L166 -123L167 -122L166 -119V-117L165 -114L166 -113V-110V-103V-92V-88V-86V-82V-81H167Q170 -81 180 -94Q188 -106 188 -108L190 -115L189 -119Q189 -122 193 -124H194Q197 -124 197 -120Q201 -117 205 -117H206Q211 -112 211 -109Q207 -101 200 -101Q200 -100 199 -100Q197 -99 194 -99Q194 -96 189 -95Q179 -86 175 -84L169 -79V-78L178 -76H188L189 -74H193L206 -70Q217 -65 220 -62Q228 -57 228 -50V-47Q228 -45 224 -40Q216 -40 216 -44L200 -54Q186 -64 185 -64Q184 -64 182 -67L177 -70Q176 -70 170 -74H167L166 -73V-71V-68V-66L167 -63V-62V-60Q167 -54 166 -54L167 -45L166 -42L167 -38L166 -25V-24V-23V-22L162 -9Q162 -4 152 3H151L149 1V0V-2L147 -10L142 -21L140 -23Q138 -23 135 -27Q133 -28 132 -32H133Q135 -32 145 -27H146Q149 -32 149 -44V-50L150 -54L149 -57L150 -62V-64V-68V-72L151 -73H150V-78L149 -79Q148 -77 145 -77Q144 -74 132 -61Q122 -46 120 -45L117 -44Q113 -44 109 -49Q108 -49 105 -52V-54Q105 -55 110 -57Q117 -63 123 -66L150 -85V-89V-92V-94V-96V-99L149 -117L150 -121H149Q139 -114 134 -114Q134 -117 124 -121Q122 -123 117 -125V-126L129 -131Q129 -132 132 -132Q132 -134 139 -135Q148 -140 150 -140V-159V-162V-164L149 -173Q149 -174 144 -178V-180ZM77 -181L85 -174Q95 -173 95 -169V-164Q93 -158 93 -154V-151V-148Q93 -146 95 -146Q97 -147 101 -148Q101 -149 111 -153H114Q115 -153 117 -148Q117 -141 112 -141Q110 -139 101 -134H100Q99 -134 98 -130L93 -127Q92 -127 92 -125Q90 -125 90 -118L89 -117L90 -113L89 -108Q89 -105 92 -101Q96 -102 99 -106Q106 -108 108 -110H109L110 -109V-108Q108 -106 104 -104L92 -95Q90 -95 90 -88L89 -86V-83Q89 -81 88 -81L89 -73V-69V-44L90 -39L89 -25L90 -21L89 -18V-12Q87 -5 80 8L75 11H72V10V-1Q70 -2 63 -14L56 -19L58 -20Q69 -15 71 -15Q73 -23 73 -26V-27V-30V-33L74 -52V-53V-55L75 -59L74 -62L73 -73L74 -75L72 -76Q62 -66 57 -63Q57 -61 48 -55Q48 -53 45 -52H44Q39 -54 35 -59Q33 -59 31 -63Q29 -63 27 -65V-66Q29 -68 45 -75Q45 -76 54 -78Q59 -81 61 -81L73 -89V-95L74 -101L73 -104L74 -106Q73 -112 72 -112H71L65 -107Q61 -108 48 -121L43 -124V-125Q43 -126 49 -128Q52 -130 65 -135Q67 -135 75 -139H74V-140Q75 -142 75 -148H76L75 -150V-156L76 -159L74 -170L72 -174V-176Q76 -181 77 -181ZM206 -180Q209 -179 209 -178V-177H208V-176Q211 -175 213 -170V-167Q211 -164 208 -164L204 -162Q203 -162 196 -169Q194 -169 194 -172Q187 -175 186 -178L187 -180L193 -179L196 -180L205 -179Q205 -180 206 -180ZM127 -99Q139 -98 140 -93Q141 -93 141 -91L140 -90H141V-88Q135 -82 132 -82Q127 -85 116 -96Q113 -96 113 -97V-98L114 -99H117H120H122Z"/>
</svg>