<svg xmlns="http://www.w3.org/2000/svg" viewBox="0 -256 256 256">
	<path fill="#000000" d="M165 -193L175 -187Q185 -185 187 -181Q189 -180 190 -175V-172L188 -165H189V-164L197 -168L199 -167Q206 -168 212 -171H216Q216 -172 219 -172H220L223 -174H225Q232 -171 232 -165L233 -162L227 -157H221H219L217 -156L212 -157H211L209 -156H204L199 -155V-156L184 -153Q183 -153 182 -150Q181 -150 179 -147Q177 -147 175 -145H174Q170 -149 169 -149Q166 -148 160 -147Q160 -146 153 -145Q152 -143 145 -142Q142 -140 136 -139Q135 -137 133 -137L132 -138L130 -136H126V-135Q130 -135 139 -126Q144 -124 145 -121V-119V-116V-114Q143 -113 140 -105L138 -100V-99L135 -89Q133 -80 131 -78V-75Q131 -72 129 -70L130 -68L128 -67V-64Q123 -46 120 -44Q120 -42 117 -40L118 -37L108 -20Q106 -14 90 1Q77 13 72 17H71L70 16L80 7Q88 -2 93 -10Q94 -12 95 -12L94 -14Q95 -14 97 -18Q99 -19 101 -26Q102 -26 102 -31Q105 -33 108 -43Q110 -48 112 -60Q114 -62 114 -65H115Q115 -73 117 -77Q117 -79 121 -87V-89V-91H122V-92Q126 -115 126 -120V-123V-125L125 -129V-130Q125 -132 121 -134Q121 -135 116 -144Q115 -146 114 -146V-147Q114 -148 121 -151V-152L123 -151Q126 -153 137 -153Q137 -154 143 -155L145 -154L146 -156H149L157 -158V-157Q160 -159 166 -159L167 -160V-167Q167 -169 163 -178L164 -179Q163 -179 159 -186V-187Q162 -190 162 -192ZM76 -192H77Q84 -185 90 -185L95 -182L96 -178L95 -174L96 -172Q94 -171 93 -159H94L104 -163L106 -164Q114 -162 114 -160V-158Q112 -151 107 -151L100 -145Q99 -145 97 -142Q96 -142 92 -139L90 -138V-126Q89 -126 88 -116H86V-115L87 -113L86 -111Q87 -108 90 -108Q90 -109 102 -112Q103 -113 105 -113H106L107 -112V-111Q92 -102 89 -98Q85 -98 85 -96L86 -95V-86V-85V-78V-77Q85 -76 85 -73L84 -62L85 -60L84 -57L85 -52Q84 -44 83 -44Q84 -42 85 -32Q85 -9 70 4H68Q65 1 65 -1L66 -4Q61 -23 58 -23Q54 -27 49 -29Q50 -32 51 -32Q57 -28 65 -26L66 -25H67V-26L69 -37L68 -38L70 -46L69 -50Q70 -50 70 -52V-56L71 -59V-61L70 -62L71 -64L70 -80L71 -84L70 -85L68 -83H66Q66 -81 62 -79Q50 -71 48 -67Q44 -63 42 -63H39Q31 -68 22 -77V-78Q22 -79 26 -79L32 -81Q32 -82 37 -83Q37 -84 41 -86L45 -87Q45 -88 61 -94Q61 -96 68 -97Q69 -99 73 -99L72 -104V-109L73 -114L72 -117L73 -125L72 -126Q72 -123 67 -120Q67 -119 63 -119Q56 -123 48 -130Q48 -131 38 -139V-140Q38 -141 49 -143Q52 -143 58 -146Q70 -149 76 -152V-155Q76 -158 78 -162V-168V-172Q77 -182 72 -182Q72 -183 71 -183V-184V-185Q75 -192 76 -192ZM166 -140Q167 -140 173 -136L181 -134Q186 -134 187 -126Q186 -125 186 -121L183 -111V-109Q188 -109 190 -113Q193 -113 198 -116L210 -121H211Q220 -119 220 -115V-113Q218 -107 211 -107Q207 -104 200 -103Q200 -101 195 -101Q195 -100 189 -98H187L184 -99V-98L181 -99V-97L180 -92V-90Q179 -89 178 -77V-76L176 -69V-68H177Q180 -70 187 -70Q187 -71 190 -71Q190 -72 199 -74Q201 -77 209 -81Q209 -83 210 -83H211Q217 -77 218 -77Q226 -75 230 -70L231 -67Q231 -62 228 -59L221 -50Q219 -47 212 -36L211 -34H215Q222 -28 222 -25Q220 -19 216 -19Q216 -18 214 -18L209 -19L206 -18L204 -19H202H200H199H193L185 -17H182Q169 -15 166 -14H163Q158 -12 158 -9Q156 -8 154 -8H153V-9L154 -11Q154 -12 151 -13Q150 -17 150 -23L149 -27V-28Q147 -32 147 -36Q145 -36 145 -38L146 -40L144 -41V-42L145 -43L142 -59V-62Q140 -62 139 -66L141 -67Q147 -61 150 -61L153 -62H155L162 -64V-68V-70Q163 -72 163 -77V-81L164 -85V-86L166 -102L165 -104Q166 -105 166 -111H167L166 -113Q166 -116 167 -116L166 -119V-122Q165 -130 162 -134V-136Q162 -139 166 -140ZM160 -51V-49L159 -41L160 -39V-36L159 -33L161 -30L160 -26L162 -25Q165 -27 182 -30Q182 -31 189 -32V-33H192H195H197V-35L199 -39L202 -54V-57V-59V-62V-64V-65H201Q195 -63 193 -63L175 -57Q174 -56 163 -53Q163 -52 160 -52Z"/>
</svg>