<svg xmlns="http://www.w3.org/2000/svg" viewBox="0 -256 256 256">
	<path fill="#000000" d="M150 -199Q152 -199 154 -197Q156 -197 159 -194L161 -195L162 -194L164 -195Q166 -195 169 -187Q167 -186 167 -182Q164 -179 164 -174L161 -171L162 -170H163L173 -174Q173 -176 176 -176Q180 -179 184 -180Q184 -181 189 -182Q193 -182 196 -177V-175Q195 -168 188 -168L177 -163Q177 -162 165 -159Q157 -154 155 -154L156 -152Q154 -151 152 -144Q156 -144 156 -143V-142H157L158 -144L168 -142L169 -143L181 -141H183H184L190 -139Q196 -133 196 -130V-125L192 -120H193H194Q196 -122 198 -122H200L201 -121Q205 -123 209 -124Q209 -125 214 -126L217 -128Q219 -128 224 -125Q228 -125 231 -120V-117Q229 -112 222 -112L218 -113H217H213H210H209H205L204 -114Q203 -112 202 -112L198 -113L193 -111H188Q186 -110 185 -110H182Q179 -112 178 -112V-111L180 -108H183Q190 -106 190 -101V-95L189 -88L191 -79L190 -77L192 -46V-44Q192 -34 193 -32L192 -27V-23V-20Q192 -6 187 7Q184 13 177 21Q177 22 174 23Q173 23 170 15Q169 15 168 8Q162 0 158 0Q155 -2 154 -4L155 -5H156Q156 -4 168 -1Q170 -1 171 -7Q174 -9 174 -14L173 -15L174 -19L173 -23Q174 -24 174 -28H175L174 -29V-31L175 -32L173 -34L175 -36L174 -38V-45L176 -48L175 -55L176 -57L174 -58L175 -63H174V-64L176 -66Q175 -68 174 -73V-76Q173 -77 173 -79Q173 -80 174 -81H175L173 -86V-88V-91V-92Q173 -95 174 -97L173 -99Q174 -101 174 -104L173 -105V-108H174H171Q169 -108 168 -107H160Q160 -105 156 -105Q153 -102 150 -102V-103Q147 -100 146 -100L142 -101Q142 -99 138 -98Q138 -97 131 -96L123 -93L122 -94Q114 -90 113 -90Q102 -87 101 -86H98Q94 -89 90 -89Q89 -89 89 -90V-91Q89 -93 94 -94L95 -93Q95 -95 102 -96V-95Q102 -97 108 -98L110 -97Q111 -99 114 -99Q114 -101 121 -102Q125 -104 134 -105Q134 -106 139 -106Q142 -108 146 -108H147Q149 -109 157 -110Q157 -112 163 -113Q163 -114 165 -114H170Q171 -115 176 -116H179Q179 -118 185 -118L187 -117V-119H186Q183 -119 180 -123Q179 -123 175 -126Q174 -127 174 -128V-131L172 -129L166 -134Q165 -135 160 -137Q160 -140 156 -140L151 -143H150Q149 -143 146 -135Q120 -108 108 -101H107L106 -102L120 -116L128 -127L130 -128H129V-130Q132 -131 132 -134Q133 -134 133 -136V-137Q134 -137 138 -144Q139 -144 140 -149L141 -150V-151Q140 -151 140 -149L132 -144H131Q126 -147 125 -151H124H120Q119 -151 116 -154Q116 -155 124 -156Q124 -158 127 -158Q131 -161 138 -161Q145 -165 147 -165V-166Q145 -166 145 -167Q145 -168 146 -168L147 -169V-173L150 -178L148 -180V-181Q148 -182 149 -184Q148 -188 147 -188Q144 -188 144 -194Q147 -199 150 -199ZM70 -185Q76 -185 76 -181H77Q82 -181 84 -180H88Q93 -180 93 -171V-168V-167L90 -157H91L97 -159Q101 -159 102 -161Q107 -161 108 -158Q108 -155 92 -143L88 -139V-137L87 -132V-113L85 -111V-110Q87 -110 88 -108H90L92 -110Q97 -112 101 -116H103L104 -115L93 -106Q93 -105 89 -102H88Q87 -99 85 -99V-97Q87 -97 87 -96V-95L85 -93Q86 -90 87 -90L86 -88L87 -80L86 -77L87 -72V-68L86 -66L87 -63Q87 -54 88 -41L87 -38Q87 -36 88 -36V-33V-32V-28Q87 -26 87 -21V-19Q85 -18 85 -14Q82 -6 76 0Q75 2 74 2Q70 2 70 -7L66 -15V-18H65Q63 -18 63 -19V-20V-21L58 -24V-25L59 -26Q62 -23 66 -23L67 -22H69Q69 -24 70 -24V-25V-27V-29V-30V-32Q71 -33 72 -43H73V-44L72 -46V-52V-54V-69L71 -72L72 -75V-78L71 -79L72 -82Q71 -84 70 -84Q69 -84 69 -81Q66 -81 66 -78Q65 -78 57 -70Q55 -70 55 -67H54H52Q52 -64 46 -61Q45 -58 44 -58Q43 -58 43 -60V-61H42Q42 -59 41 -59H40Q38 -59 33 -64L30 -66L25 -69Q25 -71 30 -72Q31 -73 42 -79Q42 -80 47 -81Q48 -83 55 -86Q55 -87 60 -88Q60 -90 64 -90Q65 -94 70 -94Q72 -95 75 -97L77 -98V-99V-100H76Q76 -99 75 -99H74H73V-100Q73 -101 75 -103V-104Q73 -104 73 -105V-106L75 -108L73 -110L74 -113L73 -115L74 -117L72 -118Q72 -119 75 -120V-121Q75 -122 72 -122V-124V-128H70Q67 -126 64 -123L61 -121H59Q54 -124 53 -126Q51 -126 48 -130Q47 -130 43 -134Q42 -134 42 -135Q43 -138 50 -140Q52 -141 62 -144Q62 -146 67 -146Q67 -148 73 -148V-149L72 -152V-154L73 -155L71 -158L72 -159V-161L70 -171V-173Q65 -175 65 -179Q68 -185 70 -185ZM104 -101H105L106 -100L104 -99H103V-100ZM151 -91Q157 -86 162 -85L165 -81Q160 -72 157 -69L152 -57L153 -54H152H150H148Q148 -53 142 -51Q142 -50 136 -49Q133 -46 128 -45Q127 -41 123 -39H121L118 -44V-47H119V-48L116 -50V-53L117 -57Q115 -59 115 -61V-62V-63Q114 -70 113 -70L112 -72H113L112 -75V-77Q111 -77 111 -80H114Q116 -77 118 -77L121 -75H122Q123 -77 127 -77Q139 -83 146 -88Q147 -88 149 -90ZM126 -72V-71V-65V-60V-56V-52H128Q129 -54 132 -54L138 -57Q138 -58 142 -58Q143 -64 144 -66V-68V-72V-74V-76L146 -77V-78H144L137 -75Q132 -72 126 -72Z"/>
</svg>