<svg xmlns="http://www.w3.org/2000/svg" viewBox="0 -256 256 256">
	<path fill="#000000" d="M183 -196L189 -189H193Q195 -189 197 -184L196 -182L197 -180Q193 -176 187 -173L175 -159L167 -150H169H171H173L175 -149H176Q176 -148 195 -146H197Q202 -142 207 -142Q207 -140 211 -139Q215 -134 215 -132V-130Q213 -123 207 -123H202L184 -129Q180 -129 177 -131L165 -134Q162 -134 162 -136L160 -135Q157 -135 155 -138H154Q153 -136 144 -129Q144 -127 137 -125Q137 -123 132 -122Q131 -120 124 -116L117 -113Q117 -111 112 -111V-112V-113Q112 -114 115 -114Q116 -117 128 -124Q128 -126 132 -128Q132 -131 135 -132Q135 -133 143 -141Q141 -143 136 -144Q134 -146 133 -146H132Q128 -147 128 -148H126H125L122 -150L126 -153Q137 -152 148 -152H152Q152 -155 158 -160Q162 -167 167 -175H164Q162 -172 156 -171Q156 -170 149 -169Q149 -170 138 -178L139 -180H143L150 -182L157 -185Q158 -185 167 -188Q170 -191 174 -191Q177 -194 183 -196ZM105 -195Q110 -195 116 -190L117 -184L112 -181H111H109L95 -178L94 -177H90V-176Q94 -176 97 -173V-171Q94 -167 93 -164Q92 -164 90 -158H91Q92 -159 96 -159Q96 -161 103 -163H104L113 -159Q117 -159 117 -154V-153Q116 -149 109 -144Q108 -141 102 -135Q108 -131 108 -130V-129Q105 -126 102 -126H101H100Q91 -124 91 -123Q98 -118 98 -117Q98 -114 93 -109V-108H94L100 -111L101 -110L104 -112Q108 -108 112 -108V-107V-105Q112 -102 108 -101H102L91 -99H90Q90 -98 85 -98L84 -96H80Q78 -95 75 -95L73 -92L72 -93Q70 -92 67 -92L58 -89L52 -81H49L44 -87V-100V-104L45 -109L44 -113L45 -117L44 -123L45 -126L44 -130L45 -133V-134L44 -135Q44 -144 43 -149V-153V-154L44 -158L40 -163V-166Q40 -167 43 -167Q48 -166 48 -165V-166H49Q49 -165 54 -162Q56 -160 61 -155V-149L60 -148V-146L64 -147Q64 -149 74 -150Q74 -151 77 -153L78 -156L80 -171H78Q76 -169 72 -169H71Q65 -173 60 -175L59 -177Q63 -177 70 -182L73 -181L77 -184L78 -183Q82 -187 84 -187Q89 -188 89 -189H90Q93 -189 101 -194ZM68 -140H67Q63 -143 60 -143V-137L59 -133L60 -131L59 -129V-126V-122H61L67 -125Q67 -126 71 -126Q74 -128 81 -130Q81 -131 89 -132L92 -135L91 -137Q92 -140 93 -147L92 -148Q84 -146 83 -145Q81 -145 76 -143ZM150 -124Q153 -124 155 -120Q160 -116 163 -116Q163 -114 166 -114L168 -112V-105Q164 -100 157 -100H156H153H150H149Q143 -100 142 -99H139L137 -98Q137 -96 143 -95Q151 -90 151 -89L152 -87H153Q155 -90 158 -90L162 -89L164 -90L168 -86L169 -85Q169 -77 158 -77L154 -75L152 -76H151L152 -68V-63Q163 -66 167 -66L169 -67L171 -66L173 -68H177Q178 -68 180 -69H185L188 -70L198 -68Q200 -67 200 -65V-63Q199 -61 198 -57L194 -56L189 -55L184 -57L180 -56L179 -57Q177 -56 177 -55L175 -56Q167 -55 156 -52H152L151 -51L152 -49Q152 -41 150 -37Q149 -14 148 -14L149 -10Q142 20 124 20Q124 16 109 6Q107 4 98 0H97L99 -2Q101 -2 108 0H111H121H125Q125 -2 128 -6V-9Q128 -11 130 -14V-17V-20V-24V-27V-29V-30V-32V-33Q132 -35 132 -36V-41V-46V-47H131Q130 -46 126 -46Q126 -45 122 -44Q122 -42 118 -42L98 -35Q98 -32 93 -32Q82 -26 79 -26Q67 -35 62 -35Q60 -35 60 -36Q60 -39 66 -40L68 -39Q70 -39 72 -41H73Q78 -41 78 -43H81L95 -47L97 -48V-47Q103 -48 106 -50L130 -57L131 -56L132 -57V-63V-66V-67H131Q130 -67 130 -65Q124 -63 121 -63Q121 -61 111 -57H110Q106 -61 104 -62Q102 -63 96 -65V-66Q96 -67 103 -69H106Q112 -73 119 -75Q119 -76 128 -79Q128 -80 131 -81L130 -82L131 -86L130 -90V-95H128Q124 -91 116 -89Q112 -86 105 -85Q105 -83 102 -83Q101 -81 96 -81L95 -80H93L92 -81Q94 -83 109 -90Q111 -90 113 -94Q118 -95 122 -99Q129 -107 135 -109Q136 -109 139 -112Q142 -112 144 -117V-120Q145 -124 150 -124ZM68 -115H66Q64 -115 62 -117Q60 -117 58 -115V-114L59 -113Q58 -112 58 -107V-103L57 -101Q57 -99 58 -99Q62 -99 64 -101H65L68 -103H72Q80 -105 80 -106V-107L79 -110L81 -111L80 -112V-119H79L75 -117Q69 -117 68 -115Z"/>
</svg>