<svg xmlns="http://www.w3.org/2000/svg" viewBox="0 -256 256 256">
	<path fill="#000000" d="M151 -188Q154 -183 159 -181Q165 -178 169 -177Q171 -176 172 -169Q171 -169 171 -166L164 -160Q158 -153 152 -144Q151 -144 149 -139Q147 -139 141 -129Q139 -129 136 -123Q130 -115 129 -115Q121 -104 119 -104L121 -101Q120 -97 117 -97H115L110 -98Q94 -95 94 -94V-93L97 -90Q99 -90 102 -87L96 -81Q95 -78 93 -78V-77Q95 -76 98 -75L99 -73V-72L97 -69H96Q86 -69 84 -67H83L80 -68L79 -65L84 -61Q87 -60 89 -57H91Q93 -59 100 -60Q111 -59 111 -54Q111 -51 104 -50H102Q102 -49 94 -48L92 -49Q91 -46 88 -46V-43L87 -41V-40L88 -36Q88 -34 86 -31L87 -29L86 -25V-22L85 -19L86 -15Q85 -15 84 -7Q83 -5 83 -3V-2Q80 10 77 10Q77 12 76 12H75Q73 12 73 7L71 0H72L70 -5Q71 -5 73 -21V-24V-28V-33V-35Q74 -37 75 -41V-42V-43H74Q66 -40 64 -38Q62 -38 56 -34Q52 -34 49 -31Q42 -26 40 -26Q39 -23 39 -22H37L29 -31Q29 -32 46 -38Q46 -39 50 -40Q50 -41 55 -41Q55 -43 69 -48Q69 -49 73 -49L74 -50L73 -54L74 -57Q72 -63 71 -63Q67 -59 64 -59Q59 -56 51 -54Q49 -54 44 -56Q41 -56 41 -57V-58Q41 -60 51 -61Q52 -63 60 -65Q59 -72 58 -75V-78Q58 -80 57 -80H56Q54 -77 43 -74Q36 -69 27 -66L19 -70Q16 -72 16 -73Q16 -75 29 -78Q29 -79 34 -79Q42 -84 62 -90Q69 -94 73 -94V-98L72 -100L73 -102L72 -103H71Q70 -103 64 -99H63L56 -106Q60 -109 66 -109Q69 -112 72 -112V-113V-117V-121V-123Q71 -127 70 -127Q61 -125 61 -124L62 -122Q62 -118 59 -114H58Q57 -115 55 -120Q52 -122 48 -137Q48 -140 39 -158Q35 -162 35 -163Q37 -169 38 -169H39Q43 -165 45 -165Q51 -162 52 -162H53Q55 -164 74 -168Q75 -170 82 -171Q82 -173 88 -173Q88 -175 90 -175L107 -182Q111 -184 114 -184Q114 -182 124 -179Q129 -176 129 -170Q122 -162 122 -161Q120 -158 112 -145Q106 -134 102 -134L100 -132H99Q98 -132 97 -137H94L84 -133Q79 -133 75 -130Q78 -130 82 -126H83H85Q87 -126 93 -120L97 -122Q106 -122 106 -120V-118Q106 -116 97 -114Q92 -114 86 -109L88 -107L86 -104L87 -102L86 -99H87L93 -101L95 -100Q95 -103 111 -105H116Q119 -106 124 -115Q125 -115 125 -118Q129 -122 132 -131Q135 -137 136 -142Q142 -158 142 -165Q143 -165 145 -176L142 -181Q144 -188 151 -188ZM100 -170L98 -171L89 -167V-166Q94 -163 94 -160L97 -161V-160V-159Q95 -153 91 -148Q91 -144 87 -144V-140L94 -142Q94 -143 98 -143L101 -151L105 -166Q105 -168 106 -170L105 -172H104Q102 -172 100 -170ZM70 -160H67Q62 -157 59 -157Q59 -155 61 -153V-152Q60 -150 60 -149L61 -147V-145Q62 -144 62 -141V-133L63 -132H64L70 -134Q70 -138 68 -144V-148Q67 -148 67 -151L68 -153L66 -157L69 -158Q70 -158 77 -149V-148L76 -144L77 -142V-137L78 -136Q81 -136 83 -144L82 -147L84 -151V-154V-157V-162Q84 -164 82 -165Q79 -163 77 -163Q77 -162 74 -162Q74 -161 70 -160ZM181 -143Q197 -141 197 -139V-136Q197 -129 189 -129Q171 -123 156 -116Q154 -116 153 -114L157 -112V-110H158Q160 -108 165 -107L169 -102V-98Q165 -89 165 -87Q164 -87 161 -81Q156 -72 152 -69L151 -67Q156 -65 157 -63Q157 -61 165 -55Q169 -51 176 -46Q180 -41 186 -38Q211 -23 217 -23Q217 -21 225 -19Q232 -17 235 -17H238L239 -15V-14L238 -13H232L219 -14L204 -11H202Q195 -5 193 -5H189Q187 -5 174 -16Q174 -19 157 -36Q157 -38 151 -43Q144 -51 144 -53H143L133 -43Q132 -41 124 -36L116 -31Q115 -31 113 -28L105 -26Q99 -22 98 -22H97L96 -23Q96 -24 102 -27L108 -31Q114 -35 125 -46Q128 -50 137 -61Q136 -66 128 -76Q118 -87 118 -91Q120 -95 122 -95Q138 -92 138 -86L145 -78Q150 -86 152 -99Q151 -106 150 -110Q150 -113 149 -113L147 -112Q144 -115 138 -119V-120Q141 -123 148 -126Q150 -127 156 -130Q157 -130 165 -135Q176 -139 181 -143ZM66 -84H63H62V-83Q63 -83 67 -79Q70 -79 71 -74Q71 -73 69 -72L70 -69L75 -72Q83 -72 83 -77Q84 -77 86 -91H84Q82 -88 73 -87Z"/>
</svg>