<svg xmlns="http://www.w3.org/2000/svg" viewBox="0 -256 256 256">
	<path fill="#000000" d="M151 -189Q156 -183 160 -183Q160 -182 171 -179Q173 -176 174 -173Q172 -166 169 -166L154 -155Q154 -153 139 -141L125 -128H123Q121 -130 120 -130L116 -129L111 -130Q107 -130 105 -128H104H101Q99 -126 93 -126Q93 -125 87 -123V-122V-120Q88 -118 93 -116Q97 -113 97 -109L92 -97V-95H93L95 -96H97Q97 -97 103 -99Q113 -94 113 -88L114 -86Q114 -82 111 -78V-77Q111 -72 107 -64V-57L112 -56Q112 -57 113 -57H114H116L120 -58V-57H121Q123 -59 125 -59H129Q129 -60 137 -61Q136 -62 134 -63L135 -66L134 -76H135V-77L134 -78L136 -83Q134 -85 134 -92V-94Q133 -94 133 -96V-101L131 -102L129 -107V-113Q129 -114 133 -116Q139 -111 145 -110L158 -115L161 -117H162Q165 -117 171 -121Q173 -121 173 -123L179 -131Q183 -129 192 -127Q198 -125 201 -119L197 -99L198 -90L197 -85L198 -76V-75Q198 -74 200 -74L204 -75L206 -74Q215 -78 218 -78L219 -77H221Q221 -76 226 -76Q226 -74 231 -73Q234 -69 234 -68Q234 -63 230 -61Q213 -65 209 -65L205 -64V-65H204L201 -64L200 -65H197V-63L198 -62L197 -60L198 -57Q198 -54 197 -54L199 -51V-47V-45V-43L198 -36L199 -34Q199 -28 197 -18V-14V-12Q192 -3 190 1Q187 6 183 8Q182 11 180 13H179Q178 13 178 11L179 4Q179 -5 175 -5Q174 -5 174 -10Q173 -10 172 -14Q168 -15 164 -20L166 -22Q167 -21 174 -19Q177 -19 179 -23L178 -26L179 -28V-29L180 -36L179 -49L180 -52V-54L179 -56V-62H177L172 -60L171 -61L161 -59Q155 -57 151 -57H150H147V-56V-54V-48L148 -34L147 -21V-18Q147 -5 139 0Q139 1 137 2Q135 1 135 0V-3Q133 -8 133 -19V-21L134 -23L133 -25V-26L134 -28L133 -30L134 -32Q133 -35 133 -37V-41L134 -45V-48V-49V-52H131L122 -49Q122 -47 117 -47Q116 -45 114 -45L108 -51Q108 -52 106 -52Q106 -54 103 -54V-53V-48Q102 -48 101 -42Q100 -42 99 -36Q98 -36 95 -25Q93 -20 84 -11Q83 -9 75 -5L72 -2Q70 -3 70 -4V-7Q72 -14 72 -17L71 -19L73 -22Q71 -23 71 -26Q67 -31 67 -34L69 -35Q73 -30 78 -30Q80 -33 83 -42L90 -55L93 -67L96 -73L97 -81Q96 -81 96 -83V-84Q95 -86 93 -86Q92 -89 89 -89L87 -90L78 -76Q75 -72 74 -69Q73 -69 61 -54L51 -46Q51 -44 36 -32Q25 -23 23 -23H21V-24L32 -32Q32 -33 42 -44Q47 -50 50 -58Q53 -63 56 -66L62 -77L67 -87Q71 -99 77 -109V-117L76 -118L74 -116L73 -117Q68 -113 59 -110Q57 -108 51 -105Q51 -104 44 -98L34 -105Q34 -107 31 -107Q30 -108 29 -113Q28 -113 28 -114L25 -113L24 -114V-116Q24 -117 26 -117H27H29Q31 -118 42 -120Q42 -121 45 -121V-122L48 -121Q53 -123 61 -123Q61 -124 84 -130Q85 -133 86 -140L84 -143L85 -144Q85 -157 81 -160Q81 -161 78 -163Q75 -166 75 -168V-169Q80 -175 83 -177H84Q89 -171 92 -171L96 -169Q106 -167 107 -167Q108 -167 111 -160H110L111 -159V-158Q109 -156 109 -153L105 -140V-137H107Q112 -140 116 -140L118 -141Q123 -140 127 -137Q129 -137 134 -146Q138 -149 143 -162Q146 -168 146 -172V-175Q143 -178 143 -180Q147 -187 148 -187ZM193 -161Q207 -160 207 -155L208 -154V-153Q206 -148 203 -148L197 -145L196 -147Q194 -145 176 -142Q170 -138 164 -136L161 -135Q155 -138 154 -138Q154 -142 151 -142L150 -145Q153 -148 159 -148Q159 -149 165 -150Q169 -153 174 -153Q174 -154 182 -157H183Q185 -161 193 -161ZM173 -114V-115H172Q170 -113 164 -112H162Q153 -107 150 -107H148V-106L150 -103V-101Q148 -99 147 -93V-92L148 -90L147 -88L148 -86L147 -84H148V-83L146 -78Q148 -78 148 -68V-65L149 -64Q157 -64 160 -69L159 -71V-75L158 -81L159 -83Q157 -85 157 -89V-96L155 -102H154V-104H155H156Q160 -102 160 -101H162Q164 -101 167 -98H168H169V-96H168L169 -94Q168 -91 167 -76H168L167 -74L168 -68V-67L170 -68L172 -67Q173 -68 179 -70V-75L180 -79L179 -81L180 -82L179 -86L180 -90Q179 -92 179 -93V-96V-99L178 -104L179 -108H178L179 -115H178Z"/>
</svg>