<svg xmlns="http://www.w3.org/2000/svg" viewBox="0 -256 256 256">
	<path fill="#000000" d="M148 -199Q152 -199 156 -194Q157 -194 159 -192Q166 -192 166 -187V-185Q166 -176 160 -174Q159 -173 157 -172Q157 -171 150 -167Q139 -157 134 -153Q121 -145 119 -142Q123 -138 123 -136Q121 -133 118 -133H115Q115 -131 105 -130H103H102Q95 -127 93 -127Q87 -125 83 -123Q83 -122 77 -121V-120Q81 -113 90 -108L91 -107Q89 -104 89 -103V-101Q89 -97 97 -95Q105 -91 105 -88L104 -86V-85H105Q127 -107 128 -112Q131 -115 134 -121Q144 -134 144 -139Q145 -139 145 -144Q143 -148 143 -150L149 -154H151Q157 -150 166 -146Q166 -142 172 -141Q185 -131 189 -130Q195 -123 199 -123Q199 -121 209 -118Q219 -112 220 -112Q226 -108 229 -108Q229 -106 235 -105Q240 -102 246 -102Q246 -100 252 -100V-99Q252 -98 249 -98H248H246Q240 -95 236 -95Q233 -93 226 -91L220 -88Q204 -90 204 -93Q198 -86 193 -69Q189 -59 187 -59L184 -56Q196 -45 196 -44V-43Q192 -31 191 -20Q190 -20 190 -14V-13L187 6Q182 21 179 21L175 24H174Q171 21 171 17V16Q171 12 169 0Q169 -2 165 -4H162H158Q158 -3 144 0L139 2Q139 8 133 13H131Q130 13 128 5H127V4L128 2V0L127 -2L128 -5H127L128 -8V-10L126 -15L127 -16V-17Q126 -17 125 -40L124 -41Q126 -46 129 -46L137 -39H139L145 -42Q149 -44 153 -44Q153 -45 160 -46Q160 -48 167 -49Q167 -50 175 -52Q176 -53 177 -58L176 -60L177 -64H175Q173 -64 168 -62L166 -63L163 -60L160 -61L154 -59L147 -57Q141 -57 140 -55L139 -56Q137 -54 128 -51Q126 -51 126 -55L124 -56V-59Q122 -73 122 -79V-81L121 -82V-85Q121 -88 118 -90H117L106 -82Q104 -81 101 -81L103 -79V-78Q101 -68 100 -68L101 -66Q100 -52 97 -43Q94 -30 85 -14Q73 -2 67 -2L65 -6L67 -14L63 -23L56 -33L58 -35H59Q64 -32 69 -30L71 -31L72 -30Q76 -32 80 -42L82 -53L85 -60V-63Q87 -65 87 -69V-72Q88 -73 89 -78L87 -81L88 -85V-86Q88 -88 84 -90Q81 -90 81 -87Q80 -87 73 -76Q70 -72 61 -60Q59 -60 58 -57Q57 -57 50 -47L34 -31Q25 -23 5 -10Q4 -10 4 -13L16 -21L28 -32L42 -47Q43 -51 48 -57L53 -66Q57 -72 62 -85Q64 -86 64 -90Q67 -94 69 -99Q70 -99 70 -102V-107L71 -112L70 -114Q72 -115 72 -117L71 -118L65 -115Q60 -114 60 -111H59Q59 -113 58 -113Q54 -109 49 -108Q43 -104 39 -102Q37 -102 33 -107Q29 -108 21 -114Q22 -115 42 -119Q42 -121 57 -123Q58 -125 60 -125L61 -124Q67 -126 74 -128Q81 -130 81 -132L83 -137Q81 -140 81 -143V-147Q81 -153 77 -158Q77 -161 68 -167V-169Q73 -178 77 -178L79 -179H80L90 -173Q102 -171 102 -168Q105 -167 105 -163V-162L102 -153V-149Q100 -148 99 -139L100 -138H101Q103 -138 110 -141L112 -140Q114 -140 125 -153Q125 -156 131 -163Q131 -165 133 -167V-169Q138 -174 138 -178Q139 -178 140 -184V-186Q140 -187 139 -189V-193Q141 -197 148 -199ZM202 -182Q208 -180 208 -175V-174Q207 -170 201 -170Q187 -167 180 -163Q173 -162 162 -156H161Q160 -156 159 -159Q156 -161 152 -162L150 -164V-165Q150 -166 155 -167L157 -166Q162 -170 171 -171Q173 -174 189 -177Q197 -182 202 -182ZM143 -114L144 -113Q149 -113 156 -117L170 -121H171V-122Q162 -130 161 -134H160Q149 -124 149 -122Q143 -115 143 -114ZM148 -106Q145 -109 140 -109H139Q131 -104 123 -95V-94Q123 -93 127 -91Q128 -92 134 -92Q134 -94 151 -97Q151 -98 161 -99Q167 -101 176 -103Q176 -104 184 -105H188V-107L181 -114Q178 -114 175 -117Q171 -115 154 -108Q154 -107 150 -107ZM160 -91H161L162 -92H163L165 -90L162 -76V-75H163Q170 -84 170 -89L171 -90V-91V-94V-95H173L179 -88V-87Q179 -82 175 -82Q174 -82 173 -79Q170 -79 164 -72Q161 -72 161 -70Q162 -68 163 -68Q168 -70 174 -71Q174 -72 176 -72H178Q179 -72 179 -78Q180 -78 181 -88V-89V-90Q182 -91 182 -96V-97H181L180 -96H177L171 -97Q169 -96 162 -95Q162 -93 160 -91ZM136 -88H135L132 -86V-83L131 -81V-80Q132 -79 133 -75L132 -73L133 -69V-68V-64V-62L130 -59H131H133Q133 -61 140 -61L147 -63Q147 -64 150 -64Q151 -65 152 -74H151L152 -77V-79L151 -82V-85L150 -87V-91L149 -92L138 -88ZM138 -81H139Q145 -77 147 -74V-72V-71Q145 -67 144 -66Q141 -66 139 -77L137 -78V-80ZM166 -44Q166 -42 159 -41Q151 -38 147 -37L143 -36V-32L142 -29V-28V-26L143 -25L155 -27Q164 -31 168 -31L170 -30V-27Q170 -25 164 -25H162L157 -23H155L153 -22L152 -23Q152 -21 142 -18L141 -16L142 -13L141 -7L144 -6L151 -9L154 -8Q157 -10 168 -13L172 -10L173 -12L174 -24L173 -26L174 -28Q173 -30 173 -38V-42V-44H172L169 -43Z"/>
</svg>