<svg xmlns="http://www.w3.org/2000/svg" viewBox="0 -256 256 256">
	<path fill="#000000" d="M154 -207Q156 -207 161 -200H164Q168 -198 170 -195V-194Q167 -187 165 -178V-177Q165 -176 164 -167Q163 -167 162 -157V-156V-152L161 -150V-149Q161 -142 151 -134H149Q143 -140 143 -146V-147H142Q142 -145 140 -145V-146Q133 -145 128 -144H126Q121 -144 120 -140Q120 -138 115 -132H114Q113 -132 113 -136Q111 -138 109 -146L110 -160V-161Q110 -163 109 -163V-167V-171L108 -174V-176V-188L105 -194Q106 -198 107 -198H108Q115 -193 120 -188V-179V-176V-175V-174H124L128 -176L129 -175Q135 -177 139 -177Q141 -177 144 -173Q144 -171 139 -168L137 -169L125 -168L120 -165L121 -162V-161L120 -160V-158L121 -157V-153L122 -152Q130 -155 142 -156Q145 -156 146 -171L145 -175H146H145V-176L146 -184V-186L147 -190L143 -191L142 -190V-191V-190H139L126 -189L117 -195V-196L118 -197H119Q127 -197 136 -200Q139 -200 152 -206ZM208 -137H209Q212 -133 219 -128L221 -124Q221 -121 215 -118Q205 -109 199 -102Q193 -96 190 -90L200 -86Q201 -86 214 -76Q220 -61 220 -59V-58L219 -54V-53V-51V-47V-45Q218 -39 214 -33Q210 -27 206 -27Q204 -27 204 -28L205 -32L204 -34V-36Q203 -41 192 -50L191 -52L192 -53L196 -52H200Q204 -52 204 -59Q204 -64 195 -81Q191 -88 187 -90V-92Q192 -99 198 -119H197L184 -113L183 -104V-101V-100V-99V-95V-90V-89L184 -87V-86Q182 -84 182 -82Q183 -82 183 -77L182 -68L183 -64L182 -59V-56L181 -54H182V-49Q182 -47 183 -45L182 -42V-40V-36V-34L183 -32Q181 -25 181 -12L182 -9L181 -4V-3L180 1V6Q180 18 175 29L173 31L172 30V24V22L171 21L172 18L169 -12L170 -14L169 -32V-42L168 -44L169 -46L168 -51H169H168V-52Q168 -54 169 -54L168 -79L169 -85L167 -95L168 -98L167 -103L168 -107L167 -109L168 -112L167 -113V-115V-118Q165 -120 165 -122Q166 -125 168 -125H169H171Q173 -125 174 -122L180 -119L194 -126Q197 -126 199 -129Q201 -129 206 -135ZM124 -133H128Q133 -129 136 -129L139 -126Q139 -122 135 -120Q132 -117 129 -117Q129 -115 121 -108L122 -107Q131 -111 136 -113Q136 -114 141 -114L147 -119H149Q152 -117 160 -114L163 -112Q163 -107 159 -103V-99L156 -92Q156 -84 153 -84V-77Q151 -68 148 -66Q146 -61 142 -61Q140 -62 140 -63V-64Q140 -66 142 -68H141Q141 -66 126 -64Q126 -63 123 -63Q122 -63 121 -59L116 -55H114Q111 -55 110 -67L111 -68L110 -70L111 -77L110 -78V-84Q108 -90 107 -102Q106 -102 106 -105V-107L107 -108H110Q112 -106 115 -106Q115 -109 121 -119Q124 -124 124 -127L122 -131Q123 -133 124 -133ZM80 -128Q80 -126 90 -117L91 -114Q90 -112 83 -106Q83 -104 73 -95Q70 -91 67 -86L70 -85H72L73 -83H74Q75 -84 79 -85L81 -84L84 -87Q84 -90 87 -95L88 -99L87 -101V-102Q88 -104 90 -104Q95 -102 101 -96V-95Q101 -92 95 -87Q92 -82 86 -77Q82 -70 77 -65L67 -53L69 -52H70L71 -53L74 -51Q74 -53 75 -53L77 -52L79 -55Q81 -54 83 -54L86 -63L87 -68V-71L90 -73Q98 -65 101 -65V-64V-62Q101 -58 93 -47V-45L85 -33Q81 -29 79 -23L58 -3Q45 9 35 13L34 12V11Q48 2 54 -8Q55 -8 58 -14Q62 -17 72 -31L76 -39Q78 -44 79 -46V-47Q71 -47 60 -41H58L50 -35Q50 -33 48 -33Q46 -33 44 -36V-39V-50L47 -52H52Q59 -59 63 -61Q63 -63 66 -64L76 -77H75H68H66L64 -76L61 -77L54 -75H51Q50 -75 48 -81Q52 -89 55 -89Q63 -96 63 -99Q65 -99 70 -113L73 -119L70 -122V-124Q73 -128 80 -128ZM120 -101V-99V-92V-89H121L132 -93L140 -96H143V-98V-103L144 -108H143Q138 -108 130 -104Q125 -104 122 -102Q120 -102 120 -101ZM120 -79L121 -76V-70L122 -69H124Q128 -69 131 -71Q141 -72 141 -74V-75L140 -78L142 -79V-84V-87L141 -88Q138 -88 134 -86Q131 -85 120 -79ZM142 -60L151 -56L152 -53Q152 -50 142 -48L137 -46Q137 -45 128 -41Q121 -39 121 -36Q120 -36 120 -26H119L120 -24H121Q121 -26 126 -27Q126 -28 138 -30L148 -34Q155 -31 156 -30V-29Q155 -27 143 -24Q143 -23 131 -21Q121 -14 112 -5H111L108 -7L107 -17L110 -30V-36L107 -51L109 -52Q110 -50 120 -48L121 -45V-44Q136 -50 136 -54Q138 -57 140 -57Q140 -60 142 -60Z"/>
</svg>