<svg xmlns="http://www.w3.org/2000/svg" viewBox="0 -256 256 256">
	<path fill="#000000" d="M81 -191L88 -187Q106 -185 106 -177Q106 -176 103 -171Q101 -166 100 -156L99 -154V-153H100Q101 -155 108 -158L109 -157L111 -160H112V-159L119 -161Q121 -160 124 -157V-155Q124 -148 113 -144H110Q109 -144 109 -142L103 -140Q103 -138 99 -138L98 -132L99 -128L98 -127L99 -124V-123L97 -113L114 -109L119 -107L125 -99Q122 -91 118 -91L117 -90Q111 -90 109 -95L102 -100Q99 -100 99 -99V-96Q99 -87 98 -86Q99 -85 99 -77L98 -74L99 -73L98 -72L99 -68V-65L98 -63L99 -62V-59V-54V-50V-48L100 -42Q99 -42 99 -41L100 -38V-37L99 -35L101 -34V-32L100 -30L101 -27Q97 -12 96 -11Q91 -4 87 0H86Q83 0 83 -17Q82 -19 81 -28V-32V-33L82 -36V-42L83 -45Q82 -46 82 -50L83 -52V-55L84 -58L83 -60V-67V-68L84 -76L83 -77V-82V-88V-90V-91V-95L82 -96H81Q80 -96 79 -92Q77 -92 75 -88Q74 -87 65 -77L62 -74H61V-75Q61 -72 56 -68V-67Q50 -63 39 -53Q38 -53 22 -40H21L20 -41L47 -66Q54 -75 57 -81Q64 -89 68 -96Q74 -106 77 -112Q77 -113 80 -118Q80 -121 83 -127Q81 -126 77 -126Q69 -119 64 -118Q64 -117 61 -115H59Q55 -118 49 -119L43 -122L39 -127V-128Q39 -129 45 -131Q45 -132 52 -133L72 -141Q73 -143 85 -148V-149L84 -156V-159Q83 -164 83 -173Q83 -176 77 -183L76 -186Q76 -190 81 -191ZM182 -189H183Q186 -189 188 -183Q195 -177 203 -175Q206 -170 206 -169Q204 -163 198 -160L195 -159L194 -160L188 -158H185Q182 -158 177 -154Q172 -153 166 -149Q160 -146 146 -137H141Q141 -135 146 -135Q149 -133 151 -130V-126Q151 -124 149 -123Q150 -118 151 -118L163 -122Q163 -123 168 -123Q168 -124 175 -126H180Q182 -129 186 -129Q186 -130 196 -132Q200 -133 202 -135Q206 -137 213 -139L220 -144Q235 -142 235 -135Q235 -128 222 -128L219 -127H214L195 -122L194 -121L199 -116V-113Q200 -113 201 -110Q200 -100 199 -99L200 -97V-96L199 -91L200 -90L199 -87L200 -84V-82V-80L199 -74L200 -73Q200 -71 199 -71V-69L198 -54Q199 -43 200 -43Q199 -24 198 -23V-20L197 -18V-16V-14V-13Q197 -10 193 0Q193 2 190 5Q188 12 184 15Q183 15 182 5V-7V-9V-12V-15Q182 -16 183 -18L182 -20V-21V-23V-31L183 -36V-39L182 -43L183 -49V-55L184 -58L182 -71V-74V-78V-81V-83L181 -86L182 -89L181 -105V-113L182 -116H181L160 -109Q160 -111 153 -112Q153 -113 151 -113H150V-112L151 -110L150 -108Q151 -108 151 -107Q151 -103 150 -103L151 -102L150 -93V-91L149 -90L150 -87L148 -86L149 -82L148 -79V-75Q146 -73 145 -68V-67V-65L137 -51Q131 -41 126 -36Q123 -31 118 -27Q118 -26 113 -21H112L111 -22V-23Q120 -33 124 -41L126 -45Q127 -45 127 -48Q130 -49 130 -51H129V-52L133 -64V-65Q134 -66 134 -72Q136 -74 136 -89V-94Q137 -95 138 -99L136 -103L137 -105L136 -110H137Q134 -116 134 -123Q133 -123 132 -128L129 -130Q126 -130 126 -134V-135Q126 -140 129 -144H130L141 -139L142 -141Q146 -141 152 -149Q154 -149 156 -153L161 -157Q162 -157 167 -163Q168 -163 173 -171L176 -174V-175Q173 -177 173 -182V-183Q178 -189 182 -189ZM205 -88Q216 -88 226 -84Q226 -82 232 -78V-75V-72Q228 -68 223 -68Q220 -68 214 -75Q210 -79 208 -82Q206 -82 203 -86Z"/>
</svg>