<svg xmlns="http://www.w3.org/2000/svg" viewBox="0 -256 256 256">
	<path fill="#000000" d="M80 -187L85 -186H88Q91 -183 94 -183L103 -178V-176Q103 -173 101 -172Q101 -170 99 -168Q99 -166 98 -165V-164L100 -162Q99 -162 98 -149H100Q104 -151 109 -151H110H113H114Q116 -150 116 -148V-144Q111 -139 109 -139Q109 -135 102 -135Q102 -130 97 -130H96V-129L97 -128V-122Q101 -118 101 -116V-114L96 -106V-105L100 -106H105H108Q111 -106 113 -104Q114 -104 116 -106Q119 -104 121 -100V-99Q120 -93 114 -88Q112 -88 109 -90Q105 -90 105 -93Q103 -93 101 -95Q99 -95 97 -99L96 -100V-99V-98V-96Q95 -95 95 -93L96 -92L95 -84V-81V-80V-79L94 -78L95 -72H94L95 -70L94 -68L95 -65Q93 -65 93 -56V-53V-49V-47V-45V-42V-41V-40V-37V-36V-32V-30V-29V-27Q93 -24 92 -23L93 -19L92 -17V-14Q91 -14 91 -4Q90 -4 89 2Q87 6 83 11H81Q80 11 79 8L80 5Q78 -8 78 -13V-15V-17V-18V-22V-27Q78 -29 79 -32V-34L80 -60V-62L81 -63V-64L80 -65V-67V-70L79 -83L80 -87H79Q75 -86 75 -83L70 -80Q70 -77 59 -69Q52 -60 45 -55L26 -40Q22 -37 19 -37V-39Q33 -50 34 -52Q46 -61 57 -76L64 -86Q64 -87 68 -90Q69 -95 77 -104L80 -110L81 -113V-115V-116Q78 -113 77 -113H75Q71 -106 69 -106Q66 -106 66 -104H64Q63 -104 62 -106Q60 -106 54 -113Q50 -113 43 -122Q44 -124 52 -127Q53 -128 72 -136Q75 -138 82 -140V-142V-146V-148V-149V-153V-161V-163V-164L81 -171V-172L76 -180Q76 -181 80 -187ZM208 -172Q214 -164 221 -162L225 -160L228 -161L230 -155V-149Q224 -142 221 -142L217 -128Q213 -124 213 -119Q212 -118 211 -114Q208 -111 207 -106Q203 -99 192 -90H191Q189 -90 189 -94L187 -100H186Q184 -98 180 -97L178 -98V-89L177 -81L178 -80L177 -77V-75V-72Q186 -74 189 -76H192Q195 -76 198 -72V-69Q195 -64 190 -64L187 -65Q187 -63 179 -61H178L177 -59V-54L176 -46V-45Q174 -44 174 -43L176 -37L182 -40Q182 -41 194 -41Q194 -42 208 -43Q208 -44 216 -45Q221 -43 228 -42Q236 -36 236 -33V-32Q236 -27 231 -25L210 -30L195 -31H193L190 -30L188 -31H184L165 -27H163Q156 -27 148 -24Q143 -23 133 -19Q131 -19 120 -16H118Q112 -19 112 -22L109 -24V-25L111 -27H112V-26Q114 -27 122 -28H124Q124 -30 137 -31L143 -33Q146 -33 153 -35Q159 -35 162 -39L163 -41L162 -42L163 -47L162 -48L163 -56Q160 -55 157 -53L154 -51Q152 -51 150 -50H149Q148 -50 148 -52Q143 -57 140 -57V-58Q140 -60 149 -62Q154 -65 159 -66Q159 -67 163 -67L162 -76L163 -79L162 -80L163 -81L162 -86V-90Q162 -92 160 -92Q159 -91 152 -90Q152 -89 149 -88Q149 -86 148 -86V-85V-84Q146 -81 145 -81V-78L141 -76Q140 -76 139 -79V-81Q136 -81 136 -86Q135 -86 134 -90V-91V-92V-95L131 -113Q130 -113 130 -120Q128 -120 128 -127Q127 -127 126 -132L124 -137Q123 -137 121 -144V-145L122 -147Q124 -147 132 -144Q134 -146 138 -146Q142 -149 153 -150Q154 -152 160 -154L162 -155V-154H163L174 -159H180Q182 -162 185 -162V-161H186L199 -167Q199 -168 204 -169Q206 -172 208 -172ZM170 -146Q173 -145 173 -144L172 -142H173H174H177Q180 -142 181 -137Q181 -136 180 -136L179 -135L180 -134L185 -135Q186 -135 191 -134L192 -131Q192 -128 187 -127V-128H186Q183 -126 179 -126V-123V-122V-117L178 -114L179 -111L178 -109L180 -108H182L188 -110H190Q190 -112 192 -115L190 -116Q192 -117 193 -127Q194 -127 194 -131H195L194 -132L195 -135L194 -137Q196 -143 196 -151Q198 -152 198 -154L197 -155Q194 -152 182 -150Q182 -149 174 -148Q174 -147 170 -147ZM157 -143H152Q152 -141 143 -140V-136Q146 -136 147 -132V-131L146 -130V-129L147 -126L146 -123V-122L148 -116L146 -114V-113H148V-104Q148 -103 149 -101L148 -99V-98L149 -97Q151 -99 156 -99Q156 -100 160 -101H162Q162 -104 163 -104L162 -106V-108L163 -112L162 -115V-116Q163 -117 163 -119V-120L160 -119H155Q155 -117 154 -117H153L149 -119L148 -120V-122Q149 -122 155 -125Q155 -127 161 -127L162 -129V-137Q162 -140 160 -142V-143L162 -145V-146H161Q159 -145 157 -143Z"/>
</svg>