<svg xmlns="http://www.w3.org/2000/svg" viewBox="0 -256 256 256">
	<path fill="#000000" d="M186 -195H189Q195 -189 207 -189H208Q212 -185 212 -178Q208 -175 203 -172Q203 -170 198 -169Q195 -165 191 -163Q190 -163 187 -160Q184 -160 184 -156Q180 -156 179 -153Q176 -153 168 -145V-144H170L176 -147Q182 -150 187 -150Q187 -152 192 -152Q196 -152 201 -150Q202 -149 202 -148Q202 -144 198 -141L194 -142L190 -141H189Q185 -138 179 -137L178 -136H176H175Q174 -134 173 -134H169V-133Q169 -132 174 -131Q174 -130 179 -128V-126H182Q184 -127 185 -127H189Q193 -127 195 -124V-122Q193 -119 192 -119Q184 -119 176 -116V-114Q176 -110 175 -106V-101H176Q177 -103 197 -108Q205 -109 210 -112H213Q215 -111 220 -110V-109H221Q226 -109 228 -104Q228 -99 221 -99L220 -100L218 -99Q213 -99 213 -100H212H207L189 -98L181 -95H178L171 -91V-92H170L166 -89H162Q162 -86 156 -86Q156 -85 151 -83Q151 -82 155 -81Q156 -78 162 -76Q166 -73 166 -71Q165 -68 163 -68Q163 -64 160 -63L159 -60V-59H160L165 -60Q169 -63 178 -65L193 -70Q203 -70 203 -62Q203 -58 189 -53H188H186Q184 -50 179 -50V-49L181 -48H184L189 -45L191 -43Q190 -41 190 -39Q187 -36 185 -27L187 -25Q200 -29 208 -31L209 -32Q215 -31 217 -29L221 -30L228 -27Q230 -24 231 -22L233 -20V-17L232 -16Q229 -15 229 -14L223 -13Q223 -14 208 -15H207Q206 -15 199 -16H193H189L186 -15L182 -16Q180 -13 166 -12L158 -9H157Q151 -7 144 -6Q144 -4 137 -4Q137 -5 129 -13V-14Q130 -15 135 -15Q135 -16 139 -17L141 -16Q143 -17 163 -21H166H168V-25L169 -27V-29V-30L168 -33Q170 -36 170 -42L166 -46Q166 -49 157 -53Q157 -55 156 -55Q151 -50 147 -43Q142 -39 139 -33Q137 -33 137 -30Q136 -27 134 -27Q133 -22 124 -14Q116 -4 111 -1Q111 1 100 9L88 19H87V16L94 11Q94 10 102 3L115 -13Q121 -20 131 -39Q135 -46 138 -50Q138 -51 142 -61Q142 -62 146 -67H145V-68Q146 -69 147 -69L148 -79L147 -80Q142 -80 136 -76L130 -74Q129 -74 122 -78Q121 -78 117 -74L116 -73Q110 -73 107 -77Q102 -80 101 -80L100 -79V-73L99 -72L100 -67L99 -61V-45V-42L101 -36Q101 -33 100 -33L101 -25V-24V-20V-18Q101 -4 91 7H90Q85 6 85 -1V-4L82 -15V-16L85 -35V-37L86 -43L85 -48L86 -58L85 -61L86 -64L85 -69L86 -75Q85 -75 83 -70L77 -64V-62Q73 -59 73 -56Q70 -54 70 -52Q69 -52 59 -42Q47 -32 40 -29Q31 -21 28 -21Q25 -18 23 -18H22V-19Q24 -21 32 -27L43 -36Q43 -37 46 -38Q46 -40 52 -46L60 -58L69 -72Q71 -73 72 -79L78 -90L84 -104H83Q67 -91 64 -91Q60 -95 54 -99Q54 -100 48 -103V-105Q48 -106 58 -110Q59 -110 67 -114L76 -117Q78 -119 87 -122V-123L86 -126V-149Q86 -163 80 -166V-168Q80 -172 86 -174H90Q95 -169 107 -166L108 -163V-162Q106 -159 106 -156Q104 -156 103 -145V-141V-132L104 -131Q112 -135 116 -135Q124 -132 124 -131Q124 -124 113 -120Q109 -117 104 -116Q104 -114 99 -113L101 -111L100 -107L101 -104Q101 -102 100 -102L101 -98Q100 -96 99 -90H100H101H102Q109 -90 112 -88L120 -85L122 -83V-84H126L132 -86Q135 -86 136 -88Q139 -88 143 -90Q145 -90 159 -95V-98V-101V-105L158 -106V-107L155 -106H154L149 -105Q143 -107 142 -109L146 -112H148L150 -111Q151 -114 153 -114L157 -116H161Q161 -122 158 -127L152 -126Q149 -122 146 -122L145 -121H144Q136 -126 134 -129V-131Q139 -135 147 -135Q147 -137 158 -140Q162 -140 162 -144Q165 -145 169 -152Q171 -152 172 -158Q174 -158 174 -160Q175 -160 178 -168L183 -176L185 -186L184 -189V-190Q185 -191 185 -194ZM134 -179Q135 -178 142 -177L143 -176H147Q149 -176 157 -170Q160 -170 160 -164L162 -162Q162 -149 158 -149Q156 -146 154 -146Q145 -153 144 -157V-159Q141 -161 139 -169Q133 -176 133 -178Z"/>
</svg>