<svg xmlns="http://www.w3.org/2000/svg" viewBox="0 -256 256 256">
	<path fill="#000000" d="M166 -186H167H169Q171 -186 179 -180H182H184Q186 -179 192 -178Q194 -174 194 -171V-168Q190 -163 183 -161L176 -162H175L168 -161Q167 -159 161 -158L160 -157L161 -155L163 -156Q165 -153 173 -151L175 -148V-147L174 -146V-145L175 -144L193 -151Q200 -150 200 -145Q200 -142 182 -136L177 -134Q177 -133 170 -131V-128V-127L168 -119L169 -118H170L174 -122H176Q198 -126 198 -130H201Q204 -130 208 -126H209H210L216 -122L219 -119Q219 -115 211 -113L207 -112L205 -113Q202 -111 197 -110Q197 -109 193 -108Q188 -104 187 -104L185 -106Q193 -116 193 -118Q187 -117 186 -116H183Q165 -110 165 -109V-108L172 -104V-103L171 -99V-98H173Q175 -100 179 -100L180 -102H182Q184 -102 187 -99V-96Q187 -95 183 -94V-95L179 -94H178Q170 -91 170 -90L168 -82Q169 -80 170 -80H171L187 -84Q194 -82 196 -79L197 -76Q197 -72 186 -69Q180 -69 178 -68H172H165Q157 -75 157 -81V-84H155Q154 -84 153 -82H152L149 -83Q145 -76 145 -71Q144 -71 143 -65Q142 -65 141 -62L140 -61L141 -60V-59Q137 -52 135 -45Q128 -31 123 -24Q121 -23 116 -17L104 -5Q103 -5 103 -4Q99 0 98 0L97 -1V-3Q114 -18 117 -27Q122 -34 125 -46Q127 -54 129 -54H128V-55Q132 -72 132 -75L133 -77L131 -89Q132 -91 134 -92H137Q140 -92 143 -88H145L150 -90Q152 -90 154 -92Q158 -92 158 -96V-101Q157 -106 156 -106Q154 -104 144 -102L142 -101Q141 -99 139 -99L130 -104L128 -102V-101H129L128 -96V-90L122 -70Q121 -70 121 -66Q119 -66 119 -62Q118 -62 116 -57Q114 -54 111 -46Q110 -44 107 -42Q107 -39 99 -30Q90 -20 87 -20L86 -21L85 -18L86 -15Q86 -9 83 0Q83 2 77 6Q76 9 74 9Q72 9 70 5L71 1Q71 -1 68 -6L69 -8L67 -10L71 -39H70V-40L71 -49V-52V-58V-59V-62L70 -65Q71 -66 71 -72V-75V-77L70 -82Q71 -84 71 -87Q67 -84 60 -72Q58 -71 54 -65Q37 -49 36 -49Q35 -49 19 -35H18L17 -36V-38L23 -42Q32 -51 35 -55Q37 -55 43 -63L46 -65L45 -67Q49 -68 49 -69L48 -70L53 -77Q53 -79 59 -87L58 -90Q63 -92 63 -97Q66 -102 71 -118Q68 -118 62 -114Q56 -108 53 -108L50 -112L44 -116Q41 -116 40 -118Q35 -118 35 -122Q35 -126 49 -128Q49 -130 53 -130Q53 -131 62 -134L71 -139L72 -140L71 -144L72 -146L71 -150V-155L72 -156L71 -158V-161Q69 -161 68 -164Q65 -165 65 -167Q65 -173 73 -175Q76 -174 76 -171H77L79 -172Q83 -170 90 -169Q91 -167 91 -166V-165Q91 -161 89 -159V-155V-153V-149Q92 -149 100 -152H106L110 -149Q108 -142 103 -142Q103 -140 88 -133L87 -132L88 -131V-130Q88 -126 87 -125V-122V-121L86 -120L87 -113L86 -112V-110H89L92 -111H94L103 -112Q104 -112 107 -109H109L112 -104Q110 -97 105 -95L103 -94H101Q100 -94 99 -96L97 -95L88 -102H86L85 -99V-96L84 -95L85 -94V-90V-86V-83V-81V-78V-76L84 -74L85 -72L84 -68V-67Q85 -67 86 -41L85 -39Q86 -37 86 -36L85 -24L86 -23Q95 -26 105 -53Q110 -66 110 -72Q111 -72 112 -82L113 -83L112 -86L113 -89L112 -94L115 -100V-107V-123L114 -125V-127L113 -130L114 -132Q113 -132 110 -137L109 -138V-139Q112 -143 114 -144H115Q121 -141 121 -140H122Q125 -143 131 -147L135 -150Q145 -161 149 -162L156 -168Q156 -171 163 -176Q163 -179 166 -181Q166 -182 163 -183V-185Q163 -186 166 -186ZM126 -138Q126 -137 128 -137H129Q132 -136 132 -135V-131Q130 -126 130 -117L129 -116V-114L130 -112V-110L131 -109H132Q134 -109 142 -112Q149 -113 154 -115V-116Q154 -117 156 -119Q154 -120 154 -122V-132L153 -138L154 -141L152 -148Q151 -148 150 -152H149Q130 -141 126 -138ZM172 -66Q174 -64 178 -64Q182 -60 183 -59V-55Q179 -52 175 -39V-38L176 -32L175 -29Q177 -19 180 -19V-18L188 -19L191 -18H193H199L200 -19L202 -18Q204 -19 208 -20L210 -19L212 -20H214Q215 -21 220 -21Q224 -26 224 -32V-38L225 -40Q228 -38 228 -35V-31Q232 -18 237 -18Q239 -16 239 -14V-12Q238 -5 231 -1L229 -2Q223 0 215 0H214H207H196H193L189 -1L187 0Q178 -3 170 -12Q167 -18 166 -26V-30V-31Q167 -31 168 -48Q169 -48 169 -51V-54Q169 -59 166 -63Q169 -66 172 -66ZM153 -62Q157 -58 161 -58Q165 -55 165 -54Q160 -48 160 -45Q156 -36 145 -19Q141 -9 134 -5L124 1Q111 10 106 10V9Q106 8 113 4L123 -2L133 -11Q133 -13 138 -20L139 -23Q139 -26 141 -28Q143 -35 145 -38Q145 -41 148 -48V-50V-51H149Q149 -54 147 -59Q147 -60 153 -62Z"/>
</svg>