<svg xmlns="http://www.w3.org/2000/svg" viewBox="0 -256 256 256">
	<path fill="#000000" d="M198 -198Q208 -188 212 -187L214 -183V-182Q214 -177 215 -176L214 -175H213Q213 -174 208 -171L204 -164Q203 -164 199 -159L197 -158Q197 -157 201 -155Q204 -152 204 -150Q204 -145 190 -144Q188 -142 185 -142L183 -140V-137Q188 -134 191 -134V-131Q190 -123 189 -123V-121V-116V-115Q186 -105 186 -100Q185 -100 183 -96Q184 -95 190 -91Q190 -90 193 -90L194 -89H195Q196 -91 201 -91Q207 -91 207 -87Q208 -87 208 -85Q208 -80 201 -80Q194 -79 191 -77L192 -75L191 -73L192 -72V-70V-69V-67H193L195 -68H196L198 -66Q199 -68 205 -68L209 -70L210 -71H212L213 -70L217 -72H218L219 -73Q235 -70 235 -66L236 -64V-61Q234 -57 232 -56H226H224L221 -57L217 -56V-57L212 -56H206H203V-57Q200 -55 192 -54Q192 -50 191 -49L192 -47Q191 -44 190 -29L191 -22L190 -19H191L190 -14V-10Q189 -6 189 -1V1Q187 5 187 11Q184 21 182 22H181V21V12Q179 3 179 -12H178V-13L179 -16Q178 -20 177 -44V-45V-50H176Q172 -47 164 -45Q158 -43 153 -40Q150 -40 149 -38Q146 -38 145 -36L142 -37Q142 -35 135 -32Q131 -38 130 -38Q128 -38 126 -42Q126 -46 132 -46L133 -45Q133 -47 143 -59Q143 -60 148 -68L149 -73L150 -79V-81L149 -85Q153 -88 153 -90Q150 -90 146 -97Q147 -100 148 -100Q158 -105 159 -107Q161 -107 169 -113Q170 -113 171 -115V-117V-118V-120V-122Q170 -122 169 -130H170L169 -132V-135Q168 -135 168 -136Q163 -133 159 -132L155 -131L154 -130L153 -133L150 -132Q150 -134 149 -134H147V-133Q147 -125 145 -122V-120Q144 -120 143 -113L140 -107V-106V-104L138 -102Q139 -102 139 -100L136 -93V-92Q134 -87 132 -79Q131 -79 127 -66Q125 -64 123 -57V-55L121 -54V-52Q111 -34 106 -27Q103 -27 98 -17Q93 -11 91 -11V-12Q91 -17 99 -28Q105 -43 107 -46V-49Q108 -49 108 -53L111 -57H112V-58Q112 -63 118 -74Q120 -82 122 -95Q123 -95 124 -110L125 -113L126 -114V-116Q127 -126 129 -141L124 -149V-151Q124 -153 132 -155Q137 -149 144 -146H145L147 -142V-140V-137H149V-139Q148 -139 148 -140Q150 -143 153 -143V-142Q153 -145 159 -145Q159 -146 163 -147L165 -149L166 -148Q168 -148 174 -152Q180 -153 180 -156Q184 -165 184 -170V-171H183Q181 -170 173 -167L172 -166V-167H171Q168 -165 160 -162Q160 -160 156 -160L154 -158H152Q140 -169 140 -173V-175Q143 -177 150 -177Q151 -179 156 -180L158 -181H161Q168 -184 188 -189Q188 -191 196 -198ZM79 -190L85 -186Q88 -184 92 -183Q92 -182 98 -182L101 -179L99 -169L96 -162L97 -160L96 -158Q96 -157 97 -157L101 -161Q104 -161 108 -162Q109 -161 114 -161Q114 -160 115 -160L116 -158Q116 -152 110 -149L107 -146L105 -144Q103 -144 99 -141Q97 -141 97 -138Q93 -138 93 -137V-133V-129V-128Q92 -124 92 -116V-115Q91 -113 91 -112V-111H96L111 -106Q116 -104 117 -102V-99L109 -91H106Q103 -95 100 -96Q100 -98 94 -101Q94 -102 92 -102H91V-99V-98V-95V-90V-77L92 -76L91 -70V-54V-41Q90 -15 88 -11Q88 -5 78 3H76Q75 3 73 -9V-12L72 -16V-19Q73 -20 73 -31V-41L74 -47L73 -52V-55L74 -57V-58Q74 -60 73 -62V-65V-74L74 -75L73 -79L74 -82L73 -83L74 -85Q74 -87 73 -87L60 -72Q57 -70 57 -68Q34 -45 31 -45Q30 -44 24 -41H23H20H19V-42Q22 -45 28 -47Q32 -50 33 -53Q43 -60 47 -67Q48 -67 51 -73Q53 -74 64 -95Q64 -96 71 -108Q73 -114 74 -115V-117L75 -119L74 -122Q73 -122 68 -116L64 -113H63Q60 -116 55 -117Q55 -119 49 -120Q47 -123 43 -124Q43 -127 34 -128Q32 -130 32 -131Q32 -133 45 -135Q50 -137 53 -137Q60 -142 72 -144Q73 -146 75 -146H76H77L78 -147V-150L77 -153H78L76 -165V-166L77 -169V-171Q75 -172 75 -175Q73 -177 70 -178L69 -180Q69 -184 75 -189Q75 -190 79 -190ZM203 -140L205 -139L208 -140Q214 -136 214 -135L215 -131Q214 -126 205 -126L202 -128H201H199L198 -130H195L194 -131V-132Q195 -135 201 -137Q202 -140 203 -140ZM157 -124Q160 -123 161 -122Q164 -122 164 -120Q165 -120 165 -118Q165 -115 158 -112H156L150 -117V-118L154 -121Q157 -122 157 -124ZM207 -120L208 -119H210Q215 -116 215 -112Q215 -109 208 -108H205Q200 -109 199 -111H198H197L196 -112H191Q191 -115 195 -115Q199 -120 207 -120ZM169 -107Q168 -104 164 -100Q164 -96 160 -96Q160 -95 155 -90Q155 -87 159 -87Q159 -86 164 -83V-82Q166 -82 166 -81Q163 -77 163 -75H164Q168 -77 170 -78Q172 -78 176 -82Q176 -86 171 -94V-97V-99L170 -101V-103V-104Q170 -107 169 -107ZM161 -74Q161 -71 151 -61Q142 -50 137 -49V-47H138Q141 -47 153 -52Q153 -53 159 -54Q159 -55 169 -57Q172 -59 174 -59Q177 -61 177 -63L176 -66V-70H175L171 -67H169Q165 -69 161 -74Z"/>
</svg>