<svg xmlns="http://www.w3.org/2000/svg" viewBox="0 -256 256 256">
	<path fill="#000000" d="M208 -188Q210 -185 211 -185Q219 -180 220 -178V-176Q218 -171 212 -166Q211 -163 205 -159V-158Q208 -158 209 -155Q208 -152 206 -152L204 -153L191 -150L189 -151Q187 -149 183 -148Q181 -147 178 -141H177Q175 -143 175 -146V-147L176 -148Q173 -148 173 -154L174 -157L172 -159L173 -161V-162L171 -164L172 -168Q168 -174 168 -179H170L175 -176Q182 -176 196 -182Q199 -182 205 -187ZM153 -179H155Q157 -177 160 -177Q163 -176 163 -172Q159 -167 155 -164Q154 -162 154 -161H153H152H151L152 -160L151 -156Q155 -156 156 -153Q155 -151 152 -151Q150 -149 148 -149H146Q140 -145 139 -145H138V-146Q132 -145 132 -142V-141Q133 -141 133 -140L131 -136Q131 -134 129 -134H128Q124 -137 124 -141Q123 -141 122 -149Q121 -149 121 -154Q119 -156 118 -162Q117 -162 116 -170L114 -172V-174L115 -175H116L125 -169H127Q132 -171 138 -173Q140 -173 153 -179ZM192 -175H190Q186 -172 181 -171V-170Q183 -170 183 -162L182 -159L183 -158V-155L186 -153Q186 -156 189 -156Q195 -158 198 -158L200 -171Q199 -173 199 -176H198ZM79 -173Q85 -167 92 -167Q96 -167 96 -159Q96 -153 92 -148L93 -146L92 -143L93 -142H94Q99 -145 105 -147Q114 -145 114 -144V-141Q114 -138 109 -137L99 -131Q99 -130 91 -126L90 -127L89 -126V-125Q89 -124 91 -124V-123Q91 -121 89 -120V-117V-115V-112V-110L88 -108Q91 -107 92 -107H94L101 -105L102 -104H105L109 -101L111 -99V-94Q108 -89 105 -89Q99 -94 96 -94Q94 -94 89 -99H88V-98L89 -93L88 -90V-87V-85Q88 -83 87 -83L88 -81L87 -61V-59V-55V-52V-50V-48V-42V-41V-38V-22Q87 -20 86 -20L87 -19V-18L85 -14V-10Q82 -3 81 -3Q79 2 76 2Q74 -1 72 -11L71 -16L70 -17V-18L72 -22L71 -25L72 -34V-40V-41L71 -43Q71 -44 73 -46V-47L72 -49L73 -54V-55V-59V-62V-65L74 -75L73 -76V-77Q73 -81 74 -84Q73 -84 70 -78Q69 -78 61 -70Q60 -70 57 -66Q55 -66 46 -59Q45 -59 37 -53L30 -49Q22 -44 22 -43H20L19 -45Q21 -48 25 -49L31 -52Q32 -54 36 -56Q52 -72 53 -75L60 -84Q61 -84 61 -85L60 -86L67 -96L68 -97V-100L71 -104L70 -108Q73 -111 73 -113V-115L69 -111L67 -112Q67 -109 64 -108Q55 -111 48 -118Q46 -118 43 -122Q43 -123 57 -127L67 -131Q68 -132 77 -135V-137V-145L78 -149L77 -152V-157Q77 -159 76 -159L77 -161V-162Q76 -165 71 -167V-168Q76 -173 79 -173ZM134 -165V-164L135 -162L134 -152H136Q141 -155 147 -157V-160V-165L149 -171H148Q147 -169 134 -165ZM200 -144Q201 -144 204 -140Q206 -140 208 -137Q213 -135 214 -134Q216 -134 218 -131V-126Q218 -124 213 -119Q213 -118 211 -116Q211 -112 209 -112H208V-111L205 -102H206V-101Q204 -97 203 -93Q202 -93 199 -86Q198 -86 198 -81Q195 -80 195 -78Q190 -76 187 -72H186Q184 -72 184 -74V-77L183 -78L185 -82Q183 -84 183 -86H182H181L180 -85L177 -87H176V-86Q175 -85 171 -84L169 -85H168V-82Q168 -72 167 -68H168V-67L167 -63L168 -62L175 -64L178 -63L185 -66L192 -65H193L194 -66H195L216 -69L217 -68Q220 -70 227 -71Q232 -71 237 -62Q235 -56 231 -56L221 -58L217 -59H215H213H211H208H205H204H200L199 -60H198L196 -59H194L191 -60L189 -59H187H184Q172 -59 172 -57H171L169 -58Q166 -57 166 -56L167 -54Q166 -31 163 -22V-20V-18L162 -17L163 -15Q159 12 154 12L152 11V9Q154 9 154 -2V-5V-10V-14V-16V-25L155 -29L154 -32V-42L155 -44L154 -46V-50V-52V-55V-56L147 -53L144 -54L140 -52V-53L138 -52Q138 -50 125 -48L119 -45H118L106 -41Q104 -41 95 -49V-50L96 -51H98Q105 -51 110 -54L113 -53L116 -54H118L121 -55V-54L124 -55L125 -54H126Q127 -56 131 -57H132L139 -58L141 -57Q141 -59 154 -61V-65V-69V-72V-80L152 -79H148Q147 -77 145 -77H144Q144 -76 138 -75Q136 -76 136 -77V-78L135 -79H134L132 -77H129Q128 -77 127 -81Q125 -81 124 -88L125 -89V-90L123 -92L124 -95L122 -97V-100Q118 -121 117 -122V-124L118 -125H119L126 -121H127L129 -120Q130 -121 133 -121H136Q136 -122 145 -124H146L147 -125H148L150 -124Q151 -126 158 -127Q159 -129 162 -129L163 -128Q163 -130 169 -131L170 -132L174 -131Q174 -132 180 -133L194 -140Q194 -141 200 -144ZM205 -135V-133L206 -134L205 -135ZM171 -123H168L167 -122L172 -117L171 -115Q173 -114 173 -112H175Q176 -113 179 -113Q179 -115 181 -116Q186 -115 186 -113V-112L184 -109H181L174 -108Q174 -107 171 -106V-101Q171 -92 169 -90L175 -92L177 -91H180Q180 -93 181 -93H185Q186 -93 187 -100Q188 -100 189 -104Q188 -104 188 -105L190 -108L188 -110V-113Q190 -114 190 -117L191 -119V-120V-122L192 -125Q191 -128 190 -128L172 -124Q172 -123 171 -123ZM136 -115H133V-114H136Q138 -113 138 -107Q137 -107 137 -106V-103V-100L142 -102L145 -101Q147 -104 150 -104Q150 -105 152 -105V-104H153L154 -105L153 -106V-107L154 -109L153 -110L154 -113Q153 -113 153 -114V-117Q153 -118 151 -118V-119ZM144 -96L138 -98L137 -97L138 -82H139L141 -84H142L144 -83H145L148 -85H150Q151 -86 153 -86H154V-98L153 -100Q150 -98 145 -97Z"/>
</svg>