<svg xmlns="http://www.w3.org/2000/svg" viewBox="0 -256 256 256">
	<path fill="#000000" d="M156 -193Q158 -188 161 -188Q174 -182 174 -176L173 -173Q185 -178 187 -182Q188 -182 196 -189Q198 -189 200 -184Q207 -182 210 -178V-177Q210 -173 201 -169Q198 -168 194 -163L181 -153L178 -149Q175 -147 172 -144L173 -143L184 -146Q192 -149 199 -149Q199 -150 208 -151Q208 -153 212 -153Q212 -154 221 -155Q225 -155 225 -151V-149L222 -146H217L212 -144L211 -145Q203 -144 201 -143H200L185 -140Q185 -139 177 -138L171 -135Q169 -135 163 -131Q158 -131 154 -128L139 -121L134 -117Q144 -111 144 -108L142 -102H143H144Q155 -114 157 -122V-127L158 -128H160Q167 -123 170 -120V-118L163 -112L164 -111H165L170 -113Q170 -111 176 -109H180Q183 -107 185 -107L186 -104L185 -103V-100Q185 -97 182 -97V-96H183L194 -99Q195 -100 201 -101V-102L203 -101Q211 -102 218 -106H223Q232 -104 232 -99Q231 -93 226 -93L214 -94H212Q204 -94 198 -92H195L189 -90L166 -85Q158 -81 148 -78L145 -77L135 -81Q135 -78 133 -75L130 -63H129L127 -56Q122 -50 119 -45Q118 -45 116 -40Q102 -23 100 -23H99V-24Q113 -41 113 -46L118 -61Q122 -67 122 -74Q123 -74 125 -86V-87H124L118 -83H116Q112 -83 100 -95H98L96 -96L95 -95V-92V-90V-87V-82V-72V-70V-69V-68V-67V-66V-65L94 -63L95 -59V-56L94 -52L95 -47L94 -46L95 -43L94 -40L95 -39V-36V-32V-30L94 -28L95 -25L94 -18L95 -16Q93 -5 90 0Q86 7 83 7Q80 7 80 3V0Q79 -2 77 -11V-12V-22L78 -24L77 -26L78 -28L77 -29L78 -33V-36L79 -50L78 -52Q80 -54 80 -56L81 -66H80V-67L82 -69L81 -72L82 -85V-86H81Q79 -83 71 -75Q69 -72 64 -70Q64 -68 60 -67Q59 -61 53 -58Q51 -58 44 -51L37 -46L25 -40H24Q23 -40 23 -41Q23 -43 28 -45Q38 -51 50 -65Q51 -65 58 -74L68 -89L78 -111V-112L77 -113Q73 -109 66 -104L63 -101H62L55 -107Q52 -108 42 -118V-119Q42 -120 48 -122Q59 -126 72 -129Q72 -130 78 -131Q79 -132 81 -132H83L82 -139Q83 -139 84 -144L82 -147L83 -151L82 -154V-158Q82 -167 78 -169V-171Q78 -174 85 -178Q88 -173 92 -172Q92 -171 100 -169L105 -165V-163Q103 -162 102 -153L99 -140H101L112 -144L113 -145Q115 -145 118 -142V-140Q116 -137 107 -132L98 -126Q97 -116 96 -116L97 -114L96 -111L97 -109L96 -103V-102H97L102 -103L104 -102H105Q113 -102 118 -100Q120 -100 126 -93V-91L127 -92V-94L126 -95L127 -99V-102Q129 -104 129 -106V-113V-115Q129 -117 117 -127H116V-128Q116 -130 126 -131Q129 -134 137 -135Q138 -135 150 -138Q150 -139 159 -140Q159 -141 166 -142Q167 -143 173 -152Q176 -158 181 -166V-167H180L172 -166Q167 -167 166 -170L156 -161Q155 -159 146 -153Q144 -150 139 -149Q134 -144 131 -144L124 -139H122V-140Q124 -144 132 -150Q139 -158 139 -162Q143 -164 145 -171L147 -176L149 -180V-181V-182V-186Q152 -193 156 -193ZM179 -132H183Q186 -131 200 -129Q204 -128 208 -125Q214 -124 214 -119Q214 -109 207 -105H206Q204 -105 195 -114Q192 -116 187 -124L178 -131ZM159 -108Q159 -106 150 -103L146 -99H142Q140 -99 138 -88L137 -85H141L148 -87Q155 -90 159 -90Q162 -92 166 -93H167L166 -95L167 -98Q167 -101 160 -108ZM189 -78Q195 -76 196 -74Q196 -68 181 -66Q165 -60 164 -59H162Q158 -60 153 -65Q153 -66 157 -67Q157 -68 168 -71ZM187 -59Q190 -57 193 -57V-56Q191 -51 189 -51L168 -42L162 -38Q160 -38 156 -41Q151 -43 151 -45Q151 -46 163 -50L185 -58Q185 -59 187 -59ZM199 -45H200L208 -43Q208 -42 215 -41L220 -35Q220 -28 208 -18Q208 -16 203 -12V-11Q203 -10 208 -9L209 -6Q209 -2 205 0H199H195H194H193H185H179H177H175L171 1L170 0Q168 2 159 3V5V8V9Q156 14 154 17H152Q148 13 146 7Q145 5 143 -9Q141 -9 140 -17Q138 -17 136 -25Q135 -25 134 -32L132 -34Q132 -37 134 -37Q135 -37 142 -32Q144 -32 151 -27Q160 -31 176 -34L186 -37Q187 -37 193 -42Q194 -42 199 -45ZM157 -20Q158 -9 159 -6L158 -5H159L181 -9H182L189 -10Q192 -26 192 -31Q177 -28 167 -24Z"/>
</svg>