<svg xmlns="http://www.w3.org/2000/svg" viewBox="0 -256 256 256">
	<path fill="#000000" d="M107 -193H108Q111 -193 111 -189Q116 -187 119 -187Q126 -183 129 -180L128 -178L129 -176Q128 -176 128 -175V-172Q126 -171 126 -169V-167H127Q128 -168 133 -169Q138 -165 138 -163Q138 -160 129 -158H123Q120 -158 117 -146L116 -144L114 -143Q114 -142 117 -141L118 -140V-138Q118 -134 114 -134H110L108 -133L105 -134Q96 -130 92 -130Q92 -128 88 -128Q88 -127 84 -126L83 -125V-124Q87 -123 97 -116L108 -120Q110 -122 115 -125H116Q129 -121 129 -118V-113Q129 -110 126 -110Q123 -106 118 -104Q116 -100 114 -100V-99Q116 -99 116 -98V-96Q116 -94 108 -92L96 -88L95 -87Q94 -87 94 -86V-84V-81V-79L93 -76L94 -74H95Q95 -77 100 -77V-78H102Q104 -78 109 -82H111Q113 -81 114 -78V-76L113 -74L104 -75Q103 -72 100 -72Q100 -71 96 -70Q96 -68 93 -68V-69Q92 -68 91 -60L89 -57L91 -55Q91 -58 105 -61Q105 -62 112 -63Q117 -67 119 -67Q128 -65 128 -64L129 -62V-59Q128 -55 113 -55L111 -57Q108 -54 102 -53Q101 -51 97 -51L94 -52Q94 -50 88 -49L87 -48V-47L88 -45L86 -43H87V-42Q87 -40 84 -37H85V-36L83 -34L81 -29L79 -26Q79 -23 76 -23V-21Q69 -12 65 -8Q53 5 39 16L37 18H36Q35 18 35 16Q35 14 52 1Q62 -11 66 -18Q68 -20 72 -28Q74 -28 75 -36Q77 -36 77 -41L76 -42L78 -44V-45V-46H75Q74 -44 69 -44Q69 -41 57 -38Q53 -35 49 -34L33 -23H32Q24 -25 18 -29Q15 -30 15 -31V-32Q15 -33 22 -35L27 -36Q31 -38 36 -39Q40 -43 52 -45Q54 -45 58 -47L77 -52Q78 -52 81 -63H80H79L68 -59Q67 -59 60 -64V-65Q64 -68 69 -68Q69 -69 72 -69Q80 -72 81 -72L82 -78V-81V-83Q73 -78 68 -78H67Q66 -78 65 -77L66 -72Q65 -70 62 -70Q62 -77 57 -78Q57 -81 55 -83Q55 -85 52 -86Q52 -89 50 -90Q44 -99 43 -100Q42 -100 41 -103Q41 -105 43 -107H44Q53 -105 53 -103L55 -102Q56 -105 59 -105H60L63 -104Q63 -106 72 -108Q80 -111 80 -113L78 -117H77L76 -116H75Q70 -122 70 -130Q69 -131 67 -142L66 -143L40 -129Q38 -131 31 -136V-138L44 -140H46Q46 -142 54 -144Q62 -146 63 -148L64 -149L57 -159L54 -167L56 -174H57Q61 -170 72 -170Q76 -167 79 -166Q85 -163 85 -159V-158L84 -156V-155H85L97 -159Q97 -161 98 -161L102 -160Q107 -160 107 -170L108 -171L107 -173L108 -175Q108 -178 101 -180L99 -182Q99 -184 102 -187Q103 -190 107 -193ZM160 -192H162Q163 -192 163 -190Q166 -189 168 -186Q185 -180 185 -174V-173Q185 -168 180 -164Q179 -163 173 -158Q173 -157 164 -146L159 -140Q159 -137 155 -133Q154 -131 152 -131Q150 -123 146 -123Q146 -122 144 -122V-121V-120Q141 -118 140 -115Q136 -114 134 -110L128 -104L127 -105V-106Q127 -107 131 -109Q131 -113 136 -117Q136 -119 137 -119Q139 -131 142 -134L146 -143Q146 -146 148 -149V-151V-152Q152 -156 152 -164Q153 -164 154 -168V-171L155 -173L150 -178V-179Q150 -181 157 -188Q157 -189 160 -192ZM98 -153H96Q95 -151 92 -151L90 -152Q90 -150 84 -149V-148L85 -147V-146Q85 -144 83 -143Q85 -141 85 -140V-135L87 -134Q93 -136 104 -139V-141Q105 -142 105 -150V-152L106 -155L105 -156ZM188 -142H189L196 -139Q209 -136 209 -132V-126Q209 -119 197 -119Q197 -118 191 -116L186 -114Q186 -113 181 -110L171 -99Q171 -98 169 -97H168V-98Q168 -99 174 -108Q180 -115 180 -121Q178 -121 175 -118H173Q172 -117 169 -117Q167 -115 160 -112L158 -109L151 -115V-117Q154 -121 155 -121L156 -120V-121Q156 -122 161 -122Q161 -123 165 -124Q166 -125 171 -127Q175 -131 183 -135Q184 -138 188 -142ZM105 -113H104L100 -110H99V-111H98L96 -108V-106L95 -99L96 -98L95 -95H96L104 -99L106 -98L110 -109V-113L109 -114ZM74 -101H73H72Q72 -99 66 -98Q66 -97 65 -97L64 -96L65 -90L64 -88Q65 -88 65 -86H67Q69 -88 74 -88Q74 -89 82 -92L83 -95L82 -96L83 -97L82 -100V-104Q75 -102 74 -101ZM143 -104Q153 -98 153 -97Q157 -97 157 -95H158Q161 -95 163 -90Q161 -84 161 -81Q160 -81 159 -77L166 -71Q168 -71 172 -64Q177 -62 180 -57Q183 -53 191 -48Q193 -45 197 -44Q197 -42 209 -35L212 -33H213Q213 -32 215 -31Q215 -30 222 -26Q222 -25 227 -24Q227 -23 233 -22V-21Q241 -20 241 -19V-18Q240 -16 233 -16Q233 -15 231 -15L230 -16L218 -14Q218 -13 210 -10L209 -8L207 -9L203 -8Q201 -10 200 -10H198Q197 -11 197 -14Q193 -14 187 -20Q180 -23 176 -34Q172 -37 169 -42Q168 -42 167 -46Q158 -54 155 -61H153Q153 -56 143 -44Q143 -43 141 -42Q141 -40 132 -31Q128 -31 128 -28Q126 -28 121 -22H119V-23Q130 -37 132 -41L137 -49L136 -50Q136 -56 138 -56V-59L139 -60V-63L142 -73L141 -77L142 -79L141 -81L142 -85L141 -89L142 -91Q141 -91 141 -95Q137 -95 137 -96V-97Q141 -104 143 -104ZM92 -41H93Q110 -35 112 -29Q116 -25 116 -23Q116 -22 119 -22V-21L118 -17V-15L115 -9Q114 -9 111 -6H110Q109 -6 107 -10Q105 -10 103 -14L101 -15L102 -18L98 -26Q96 -26 94 -33V-34Q91 -37 90 -40Z"/>
</svg>