<svg xmlns="http://www.w3.org/2000/svg" viewBox="0 -256 256 256">
	<path fill="#000000" d="M158 -198H160Q164 -194 173 -192Q177 -192 177 -187V-185L175 -179Q175 -176 171 -173V-171Q173 -171 173 -170V-168L179 -170H182Q187 -173 199 -177L201 -179L204 -176Q205 -176 208 -173Q214 -173 216 -167V-166L206 -156V-155Q206 -154 208 -154L220 -157Q229 -154 229 -153Q231 -153 232 -151V-149Q229 -144 223 -144H222L210 -145L207 -144H205Q203 -143 199 -143H198Q195 -143 195 -138L189 -132V-131Q189 -130 195 -128V-125V-123L193 -121H186Q182 -121 171 -118V-117Q171 -116 173 -113L170 -106H171H174L188 -110Q191 -110 195 -104V-103Q193 -99 186 -98L182 -99Q171 -96 171 -94L170 -85L171 -80L170 -78L172 -77Q197 -84 207 -84Q215 -84 220 -78V-74Q220 -70 213 -69H211L207 -68Q201 -68 201 -69L197 -68H192H188L179 -69L175 -68L173 -69L171 -68L169 -70L168 -68L170 -65L169 -58L170 -51L168 -41L169 -39V-35V-32V-26V-16Q167 6 162 15L159 22H158Q157 22 157 19V18L156 12L157 5L156 -9L157 -11L156 -13L157 -16L156 -17V-18L155 -32L156 -33Q155 -34 155 -39L156 -43L155 -46L156 -54L155 -58V-60Q154 -67 151 -67L148 -68V-67L147 -66H146V-67Q141 -66 139 -64H137Q133 -64 131 -63L128 -64Q125 -62 114 -59Q114 -58 113 -58Q107 -58 105 -62Q101 -63 101 -64V-66Q101 -67 102 -67H110H111Q114 -68 128 -70Q131 -72 138 -72H143L145 -74H149Q155 -74 155 -77V-81Q155 -82 154 -84V-85L155 -86L153 -91Q149 -90 147 -88H146L143 -89Q143 -86 142 -86H140Q136 -91 135 -92Q132 -92 132 -93V-94Q134 -96 144 -98L146 -99V-98Q149 -100 155 -101V-104V-109V-110V-112V-113L153 -114Q152 -113 147 -111L145 -112L141 -110Q136 -113 132 -114L131 -116L132 -117H134Q138 -117 148 -121V-120L153 -122L155 -121V-122V-127V-132Q154 -134 153 -134L146 -132H143L134 -129L132 -130L131 -128H128L126 -129Q126 -125 116 -124Q113 -129 109 -131L105 -132V-133Q105 -134 112 -135H113Q119 -137 140 -140Q140 -142 147 -142Q147 -143 154 -143V-144H155V-151L156 -154H155L153 -153H152H151Q147 -150 145 -150Q145 -149 143 -149L136 -154Q134 -155 134 -158Q135 -158 140 -158Q140 -160 155 -163V-165V-171L156 -172H155V-176H156L155 -178L156 -181Q156 -183 151 -191ZM118 -176H119Q120 -176 123 -173Q126 -173 126 -167Q120 -165 119 -163L117 -164Q115 -162 107 -158L96 -153Q92 -151 85 -148Q83 -145 78 -145Q78 -144 75 -144Q68 -152 64 -154L60 -159V-160Q60 -162 72 -163L82 -167L83 -166Q86 -168 93 -168Q93 -170 101 -171Q103 -173 118 -176ZM185 -164Q185 -161 178 -161L171 -157V-155L170 -153Q171 -153 171 -149L173 -148Q174 -149 181 -149Q184 -151 186 -153L185 -154Q187 -159 187 -164ZM80 -142Q89 -136 91 -134Q92 -132 92 -130L88 -124Q88 -123 81 -113Q81 -111 77 -108Q74 -104 71 -101Q71 -99 67 -98Q67 -96 60 -90Q45 -77 42 -77L41 -78V-79Q41 -80 46 -83Q56 -92 60 -100Q62 -101 64 -106Q64 -107 67 -110Q67 -114 72 -121Q76 -131 76 -135Q76 -142 80 -142ZM173 -138L172 -139L171 -138V-136V-135V-133L172 -131L170 -128Q170 -126 171 -126H172L173 -127L175 -126Q177 -128 179 -128L180 -130V-134L182 -139L181 -140Q179 -139 173 -138ZM106 -124Q117 -118 117 -113Q118 -113 119 -109Q119 -106 111 -104Q111 -103 102 -91L103 -90Q100 -87 99 -85Q95 -82 93 -77Q85 -68 83 -64Q82 -63 76 -54Q74 -54 68 -45Q60 -36 47 -25Q46 -23 28 -9H25H24V-11Q35 -21 40 -23L51 -36Q53 -42 55 -42Q58 -45 58 -46Q58 -48 61 -51Q62 -54 71 -63L78 -77Q78 -80 86 -91L91 -105L92 -106V-107Q89 -109 89 -110H88Q85 -110 84 -112V-113Q84 -115 98 -119Q103 -124 106 -124ZM60 -88H62Q63 -87 65 -87H66Q77 -86 77 -81V-79Q77 -75 72 -73Q72 -72 70 -72H68Q62 -77 60 -84Q59 -84 59 -86Q59 -88 60 -88Z"/>
</svg>