<svg xmlns="http://www.w3.org/2000/svg" viewBox="0 -256 256 256">
	<path fill="#000000" d="M163 -203Q175 -200 178 -199Q182 -199 185 -194L183 -189H185Q188 -191 192 -191Q198 -191 202 -184Q202 -179 192 -179L187 -177Q184 -177 181 -176H179Q178 -170 176 -170L177 -169V-167V-166L188 -169H193L197 -164V-162Q197 -158 179 -157L175 -155Q172 -155 167 -153Q165 -153 163 -152L160 -153Q160 -152 156 -149H151Q150 -148 144 -146H141L134 -153H137L140 -155H143Q148 -158 154 -158L159 -161V-165V-169V-171Q154 -170 151 -169L150 -170Q150 -168 143 -167H142Q141 -167 136 -173L133 -175V-176L141 -177L148 -180H149H151L159 -183Q161 -183 161 -184Q161 -194 157 -198V-199Q159 -203 163 -203ZM112 -183Q121 -179 124 -173Q124 -168 115 -166Q115 -164 111 -164L109 -162L107 -163Q105 -159 100 -158L99 -157H96Q96 -155 88 -152Q88 -151 83 -151V-150Q83 -149 92 -144L95 -138L87 -127Q86 -125 84 -125Q82 -125 82 -121Q79 -119 79 -118H81L91 -122Q92 -124 93 -124V-123H94L101 -129L104 -131Q105 -131 116 -119V-118L115 -117H114V-118Q109 -116 109 -111Q108 -109 107 -109V-107L96 -87Q96 -86 92 -85Q92 -82 87 -75Q87 -74 82 -70L73 -56L61 -42L51 -33Q41 -24 31 -18H29L28 -19Q38 -28 46 -39Q46 -41 50 -43Q50 -44 54 -48Q60 -55 60 -58Q73 -73 73 -76Q71 -76 66 -84L61 -92V-93L62 -94Q67 -94 72 -92Q78 -90 80 -87Q83 -95 87 -100L91 -108V-110V-113L86 -110H84L78 -115Q75 -113 73 -108Q62 -99 62 -97Q59 -96 59 -94Q44 -81 42 -81Q42 -84 51 -92Q51 -93 56 -100Q60 -104 60 -108Q63 -111 66 -121L69 -122L68 -125L71 -132L73 -141L70 -143V-147L72 -149Q70 -149 58 -162V-164Q58 -166 68 -167Q69 -169 73 -169V-168Q78 -171 100 -179Q100 -180 105 -180ZM211 -159Q212 -159 223 -148L227 -145V-144Q221 -136 220 -131Q219 -130 213 -118V-117Q211 -116 208 -107Q201 -100 195 -99Q193 -99 192 -106H191H188H184H182Q182 -104 166 -102H165Q165 -100 154 -98Q154 -97 148 -96L130 -89H128Q124 -91 124 -96V-98L125 -99V-100L123 -102V-105V-108L124 -110Q121 -116 118 -126L116 -133V-134L117 -135Q119 -133 123 -129H124Q132 -131 140 -135H144H145Q145 -136 150 -138H153L157 -140L158 -139Q158 -140 166 -143Q166 -144 173 -144Q173 -145 175 -146L177 -145Q181 -148 186 -149Q190 -150 198 -153ZM181 -138L178 -139Q175 -138 175 -137L178 -135V-130V-129Q182 -129 185 -131Q189 -131 190 -132Q194 -128 194 -126Q194 -122 187 -122H186H185Q183 -121 177 -120H175Q173 -119 170 -119L168 -121V-122L169 -128L168 -131H169L168 -135H165L164 -136H163Q163 -133 162 -133H158L155 -135V-131L156 -128Q153 -125 151 -118Q148 -117 147 -114Q145 -114 144 -112L142 -111L143 -110V-109L141 -108Q140 -108 140 -109Q141 -111 143 -117Q144 -117 144 -119V-120L146 -124V-126V-130H145Q144 -127 140 -127L138 -126H137L136 -127L132 -123L131 -124V-122L132 -121V-119L133 -113V-111L134 -109L133 -107Q135 -99 136 -99Q141 -100 145 -103Q150 -105 154 -105H156L160 -108H162H164Q165 -110 168 -110Q170 -110 173 -112H174L183 -114H186L188 -116L190 -115L192 -116H194L197 -117L196 -118Q197 -126 199 -126V-127V-128V-130L200 -131V-134L201 -139L200 -142L201 -143L200 -144Q194 -142 182 -140ZM190 -99H192L200 -94Q207 -90 207 -85Q206 -72 205 -72V-71L204 -63V-61V-59V-53L203 -50V-47V-43V-39Q203 -18 197 -14Q197 -13 192 -12V-10Q200 -9 207 -6Q217 4 217 6L218 10H217L218 11V13Q218 18 209 21Q201 18 190 5Q189 5 184 -1Q175 -9 169 -12L168 -14L169 -15H170Q175 -13 183 -13V-14V-15V-19V-29V-32Q171 -30 171 -26Q171 -24 159 -14Q157 -9 142 3Q142 4 136 8Q132 13 125 15L120 19Q111 25 109 25H107Q107 27 106 27H105V26V25L114 19L122 13L135 1Q135 0 145 -10Q150 -17 152 -17Q154 -17 155 -22Q151 -20 149 -18L147 -19Q147 -16 141 -15Q141 -14 137 -14Q137 -12 129 -10H127Q119 -16 119 -19Q119 -20 121 -21L123 -20Q125 -22 133 -23L134 -25L133 -27V-29L134 -33L135 -43L134 -45L135 -47L134 -49V-53V-55Q133 -73 132 -74L131 -75V-77L130 -81Q131 -86 132 -86H135L142 -80H144L148 -82H150L153 -81Q153 -85 159 -85Q159 -86 163 -87L164 -88H165H167L176 -92L177 -91Q178 -94 186 -96ZM168 -80L166 -81Q164 -81 164 -79H163H162Q162 -78 154 -76L150 -77L149 -75H146L145 -74H143V-73Q146 -73 146 -72L145 -66L146 -65L157 -68Q157 -69 161 -70L162 -71H164Q164 -73 169 -73L171 -75H172Q174 -75 178 -70V-69Q178 -67 171 -67H170L166 -64L164 -65H163Q163 -63 152 -60L148 -57H146L145 -59L144 -54L145 -47L148 -46Q148 -47 151 -47Q151 -48 158 -51L163 -54H166Q166 -55 171 -57L172 -58H173Q179 -53 179 -50L177 -49H176L173 -50Q173 -48 163 -45L159 -44L157 -43H156L154 -44Q154 -41 153 -41H152Q150 -41 148 -39L145 -38L146 -28H147Q148 -28 148 -29L149 -30H153Q154 -30 156 -32H157L158 -31H159V-32V-34L160 -35L159 -38L160 -40Q162 -40 169 -35Q173 -38 178 -38Q178 -39 183 -40Q184 -43 185 -43V-48V-50Q185 -53 186 -53L185 -57V-63L184 -69L185 -75L183 -78L184 -84H183L171 -81Q171 -80 168 -80Z"/>
</svg>