<svg xmlns="http://www.w3.org/2000/svg" viewBox="0 -256 256 256">
	<path fill="#000000" d="M194 -182H195Q203 -172 210 -172L213 -166V-158Q213 -155 208 -150Q205 -143 202 -138Q202 -136 197 -124Q197 -122 194 -118Q193 -114 187 -104Q187 -103 182 -97Q180 -95 178 -95H177H176Q175 -99 174 -99Q174 -104 171 -104H170H167H165V-103L166 -101L164 -99L165 -97L164 -95L165 -92V-86H166Q167 -86 176 -90Q179 -89 183 -85V-83Q179 -77 175 -76H165V-71L164 -68V-61V-59Q171 -62 197 -66Q198 -68 201 -68H206Q210 -68 216 -61V-60Q216 -53 207 -52Q207 -51 203 -51Q202 -53 201 -54H200V-53L197 -54H192L190 -53H181L179 -51H178V-52L177 -51H168L162 -50H157L156 -48H151Q145 -47 143 -45L141 -46L139 -45H138Q137 -45 137 -44H136H134L133 -45Q130 -41 121 -41L112 -35H111Q108 -36 102 -46V-47Q102 -48 112 -50L119 -52H121L127 -54L130 -53L148 -57V-59V-61V-63V-66V-67V-69L145 -68H144H143L141 -65Q138 -65 131 -71L130 -73Q139 -75 139 -77Q140 -78 146 -78L147 -80V-85L148 -90V-95V-98L147 -100Q142 -100 140 -98H137Q132 -98 132 -92L131 -91H129Q127 -91 126 -97V-99Q123 -102 123 -110Q122 -110 121 -113L122 -115Q122 -117 121 -117V-119L118 -123V-124L119 -128Q114 -143 113 -147L112 -149V-150Q109 -156 109 -158V-159L115 -163H116L117 -162H118Q121 -162 126 -164Q139 -167 143 -168L151 -170Q157 -170 165 -174H166H167Q179 -177 182 -177H183Q194 -180 194 -182ZM162 -162H161H160L156 -161Q156 -155 164 -155Q164 -154 168 -154Q169 -152 169 -149Q166 -147 166 -140Q169 -141 172 -148V-154L175 -155H177L184 -148Q185 -150 187 -166Q188 -166 188 -167V-169H187Q183 -165 172 -165L168 -163Q168 -162 162 -162ZM123 -153Q125 -150 128 -150L130 -147V-145L129 -144V-142Q130 -140 131 -137L134 -139H135L140 -136Q140 -137 145 -139L146 -141V-142V-146Q146 -155 144 -158L134 -156Q123 -154 123 -153ZM90 -146H91L97 -144Q105 -143 109 -140Q111 -140 111 -138Q111 -130 103 -126Q103 -122 99 -119Q99 -115 93 -111Q97 -111 98 -109Q102 -107 102 -104Q100 -103 98 -99L86 -96Q82 -95 77 -92L76 -91Q74 -91 66 -86V-85L67 -83L64 -72L62 -71H61Q53 -74 53 -80L50 -86Q50 -91 48 -95L49 -96Q46 -100 45 -105L44 -106L45 -107L42 -114L41 -115V-117L39 -119V-120H40L35 -128V-130V-132Q37 -135 39 -135Q43 -130 45 -130Q48 -130 49 -127Q51 -127 70 -136L76 -139Q79 -139 84 -143Q89 -146 90 -146ZM166 -127L167 -124Q166 -119 164 -117L166 -114V-113L167 -112Q168 -112 172 -114Q175 -114 178 -122L181 -134L182 -139Q180 -139 174 -135Q173 -135 170 -131Q166 -129 166 -127ZM131 -132V-129Q133 -127 133 -120L132 -118L133 -115V-113L135 -110L134 -108V-106Q137 -106 143 -108L145 -107Q146 -107 148 -111L147 -112L148 -116L147 -120L148 -123L147 -125H143Q137 -130 134 -130Q134 -132 133 -132ZM60 -122Q64 -122 64 -113V-112L63 -108L65 -105V-102V-101H67L69 -103H71Q73 -103 77 -105Q80 -105 82 -108L81 -109L82 -121V-128V-129V-130V-131H81Q72 -127 68 -126Q67 -126 61 -123ZM181 -42H182L185 -41H191Q197 -36 202 -35Q206 -32 210 -28Q216 -25 218 -19Q220 -19 220 -18V-9Q219 -6 211 1H209L204 -5Q202 -5 199 -11Q194 -17 193 -21Q190 -23 186 -31Q178 -37 178 -41Q179 -42 181 -42ZM157 -36L161 -33L164 -34Q164 -33 173 -28Q175 -26 175 -21Q172 -15 170 -14H169Q165 -14 163 -21Q162 -21 162 -24Q160 -25 160 -28Q159 -28 156 -33Q156 -36 157 -36ZM136 -34H138Q141 -30 148 -28Q148 -23 150 -23Q150 -13 145 -11H143H141Q140 -11 138 -21V-23Q137 -25 136 -32Q135 -32 135 -33ZM112 -27Q115 -27 116 -10L114 -1Q114 0 110 1Q110 3 107 4Q105 7 103 7Q99 7 98 0V-4Q98 -11 105 -18Q107 -23 112 -27Z"/>
</svg>