<svg xmlns="http://www.w3.org/2000/svg" viewBox="0 -256 256 256">
	<path fill="#000000" d="M157 -191Q168 -189 168 -183Q166 -173 160 -173Q156 -170 152 -170Q152 -167 144 -164Q142 -163 133 -156Q132 -156 130 -154L128 -153Q123 -155 121 -158L115 -163Q112 -163 110 -167Q109 -167 106 -163Q99 -161 98 -158Q97 -157 90 -151Q89 -151 84 -147Q83 -147 79 -142Q76 -142 67 -133L64 -134L61 -132H59L58 -133Q59 -135 65 -140Q80 -157 86 -171L89 -173Q87 -177 82 -181V-183Q83 -185 86 -187H90L93 -184L98 -181Q100 -181 105 -179Q112 -177 112 -172V-168H114Q121 -172 134 -178Q139 -181 146 -184L155 -189ZM141 -149L145 -148H147L150 -144V-142Q150 -140 136 -136Q135 -135 129 -133Q117 -128 114 -125H112Q106 -128 102 -133V-134Q103 -135 115 -139Q115 -140 121 -141Q125 -144 130 -144Q135 -148 141 -149ZM164 -138H165L178 -133Q184 -133 184 -128Q184 -124 176 -116Q171 -108 169 -95V-90L168 -73L169 -71H168V-70Q168 -62 175 -38Q176 -38 177 -33Q178 -33 184 -23Q192 -13 193 -13Q197 -10 201 -9Q203 -9 204 -15Q206 -15 206 -18L211 -32H212H213V-30Q212 -28 212 -24V-18L211 -15Q212 -7 219 0L220 4Q220 10 207 14H205Q203 12 199 12Q192 9 181 -2Q171 -14 166 -27Q161 -39 158 -57L157 -58L156 -79L157 -83L156 -87L157 -90V-91V-104V-105L158 -115V-116L159 -124V-125H158Q157 -123 148 -121L147 -119H143Q140 -118 140 -117L138 -118Q136 -118 130 -113H129V-114Q125 -112 120 -111Q116 -107 113 -107Q113 -106 107 -104V-103Q107 -101 112 -100Q112 -99 116 -99L118 -95V-94L116 -84L117 -81L116 -74L117 -71L116 -68Q125 -72 128 -72H132L134 -74H136Q136 -76 143 -77L145 -79Q152 -79 154 -75Q154 -68 148 -68H146L143 -69L121 -64Q120 -63 116 -63V-62L117 -59V-57Q118 -50 118 -49V-48V-40V-37Q119 -35 119 -25V-23V-18H118L119 -15Q118 -7 114 1Q110 8 102 15L100 13V10Q100 4 92 -8L85 -14V-15Q85 -16 87 -16L95 -13Q99 -14 99 -17V-19Q99 -31 100 -31V-34L101 -41L100 -49L101 -57V-58L100 -59Q100 -58 96 -58L93 -55L90 -56Q89 -53 83 -51Q81 -51 80 -50L77 -51Q76 -48 71 -47Q67 -44 63 -44Q63 -41 56 -40L52 -38Q52 -36 49 -36H48Q45 -40 43 -40Q43 -41 35 -45Q35 -47 42 -47Q42 -48 47 -48L48 -49H49Q49 -50 67 -54L71 -56L72 -55Q80 -57 80 -58Q75 -61 74 -67Q73 -68 73 -72Q71 -72 71 -76Q70 -76 65 -81L66 -82H70Q71 -80 79 -78Q87 -72 87 -71L88 -67H87V-65L88 -64Q86 -62 86 -60H87L90 -61V-60L98 -63Q100 -63 100 -77L99 -86V-88V-92V-94Q98 -94 94 -98Q92 -98 83 -91Q80 -90 76 -88Q75 -88 65 -98Q65 -99 71 -99H72Q78 -99 84 -104L86 -106H88Q93 -106 101 -111L102 -112H105H107Q110 -113 130 -120Q130 -122 134 -122Q139 -124 152 -128Q159 -131 164 -138ZM133 -107Q143 -104 148 -99H147V-98L148 -96Q145 -92 139 -86Q139 -85 129 -79Q129 -77 124 -74Q124 -72 121 -72L120 -73Q128 -83 130 -93Q131 -93 132 -99H133Q130 -102 130 -105Q131 -107 133 -107ZM126 -45L144 -41Q150 -35 152 -30V-27Q148 -21 143 -21H142Q140 -21 140 -23Q135 -27 132 -36Q128 -39 128 -42Q127 -42 125 -45ZM72 -43H73Q80 -34 80 -33L79 -29L80 -26L79 -25V-23Q79 -14 74 -10Q67 -5 66 -5H64L63 -6V-14Q67 -17 68 -27Q69 -27 70 -34Q71 -36 71 -39V-41Z"/>
</svg>