<svg xmlns="http://www.w3.org/2000/svg" viewBox="0 -256 256 256">
	<path fill="#000000" d="M175 -174H176Q178 -174 180 -171L190 -164Q192 -162 192 -159Q192 -158 184 -151Q184 -150 181 -146L177 -140L173 -127L172 -122V-120L171 -118L172 -116L171 -112L172 -111L170 -108H171L170 -104V-101V-98L171 -95L169 -92Q171 -91 171 -89V-85L172 -78H171V-77L173 -71H172V-70L174 -66L173 -64Q174 -64 176 -62L174 -60L177 -57V-56L176 -54Q178 -54 179 -50Q181 -50 181 -49L180 -47V-46H181Q184 -44 187 -39Q188 -39 192 -34L198 -31Q199 -30 210 -25L213 -23L217 -27H216V-28Q216 -29 217 -29Q219 -29 221 -41L222 -46H223Q224 -46 224 -44V-41L223 -37Q224 -37 224 -32L223 -30Q225 -30 226 -21L233 -9Q227 -1 217 -1L216 -2H213H212Q208 -3 208 -5H206Q203 -7 198 -9Q195 -12 185 -18L182 -22Q182 -27 179 -27L175 -35Q174 -37 172 -41Q171 -41 171 -44Q169 -44 169 -49Q167 -49 167 -53Q166 -53 166 -59V-58H165V-59V-61L164 -65L165 -66Q163 -69 163 -74L162 -75V-76L163 -77L162 -80H161Q161 -75 155 -74L153 -72H151Q146 -76 142 -84H138Q136 -80 132 -64Q131 -63 127 -55L123 -49Q123 -45 119 -43Q119 -41 106 -27Q87 -9 82 -8Q82 -7 79 -7L77 -5H75L74 -6L83 -12Q93 -18 99 -27L106 -37Q108 -45 111 -47H112V-48Q111 -48 111 -49Q113 -51 117 -61H116V-62Q120 -72 124 -94Q126 -97 126 -98V-104Q128 -108 128 -114Q127 -118 125 -120V-121L126 -122Q122 -123 122 -126Q125 -129 131 -129Q133 -127 137 -127Q139 -125 141 -125L145 -121V-120V-118V-117L141 -103L142 -102L141 -99V-98Q139 -96 139 -94L140 -92L137 -90H139V-89V-90H140L144 -89L146 -90Q148 -88 149 -88H152L159 -84Q160 -84 162 -86Q160 -89 160 -90V-93L161 -97H160Q161 -106 162 -109V-112L164 -122L163 -124L165 -130V-131L166 -135V-137L167 -145V-146V-149V-153V-154Q167 -153 160 -152Q160 -151 156 -149H154V-150Q153 -147 140 -143Q137 -140 127 -136H125L122 -141L115 -146V-147Q115 -149 129 -150Q140 -154 145 -154L146 -155H147V-154L160 -157Q160 -159 168 -166ZM66 -155L68 -154L72 -155Q75 -153 80 -149Q89 -144 89 -140L90 -136Q90 -130 80 -128Q75 -130 68 -141Q62 -148 57 -151V-152L58 -153H59Q61 -153 66 -155ZM38 -114Q40 -114 48 -109H52Q54 -107 58 -106Q58 -105 65 -101Q72 -92 72 -88Q70 -86 70 -84Q68 -82 64 -82Q59 -82 50 -91Q48 -91 41 -96L23 -107V-108Q23 -110 28 -111L30 -112H32ZM90 -90L91 -89Q90 -82 84 -70Q84 -69 80 -63L81 -62L77 -55Q72 -45 72 -39Q70 -39 70 -38V-35L69 -33H70V-32L69 -30V-29L73 -23Q73 -22 76 -21L77 -17Q74 -4 63 -4Q51 -14 50 -19Q46 -19 43 -31Q41 -31 41 -35L40 -36L41 -37Q47 -37 48 -35Q51 -36 64 -50Q70 -59 72 -59Q76 -67 79 -69Q80 -70 85 -82Q86 -82 86 -85Q89 -86 89 -89V-90Z"/>
</svg>