<svg xmlns="http://www.w3.org/2000/svg" viewBox="0 -256 256 256">
	<path fill="#000000" d="M148 -179H150Q151 -179 152 -175Q156 -171 162 -171L165 -170Q171 -165 171 -162L170 -160L171 -158Q171 -153 162 -136H163Q168 -136 184 -140Q187 -140 188 -141V-140H189Q195 -144 202 -144L210 -143H211Q219 -140 219 -139L220 -136Q220 -130 211 -130L210 -129L209 -130L206 -128L191 -130Q178 -130 175 -128H173Q172 -127 160 -126Q159 -125 153 -124L152 -123V-122Q161 -113 164 -113L166 -111V-110Q161 -104 153 -95L152 -94V-93Q148 -88 148 -87L140 -76Q138 -76 138 -73V-72L141 -70H143Q145 -69 148 -69H150L158 -68L167 -88Q168 -88 168 -95Q171 -99 174 -100H175Q182 -93 187 -93Q190 -90 190 -88Q188 -77 184 -77Q178 -70 176 -69Q174 -65 166 -58Q166 -56 157 -48Q146 -33 142 -32Q142 -28 146 -28Q154 -31 166 -33L170 -32Q170 -34 179 -35Q179 -36 184 -36L190 -39Q202 -36 202 -31V-28Q201 -25 194 -23H186L177 -21H170L166 -19H161L159 -18L157 -19L144 -15Q144 -14 140 -14Q136 -10 129 -9Q124 -4 118 -1Q118 -2 115 -3Q113 -5 113 -7V-12V-13V-15V-20Q113 -25 124 -27H126H127L132 -31Q140 -40 148 -54L151 -57Q149 -57 148 -59L146 -58H144Q138 -58 138 -59H135L128 -60H124Q121 -61 121 -63L122 -65L121 -69V-72Q122 -73 129 -77Q134 -83 139 -95Q145 -107 145 -108V-112V-118V-121H144Q141 -119 136 -118Q136 -117 129 -117Q129 -116 125 -115Q125 -113 116 -111L108 -106H107Q95 -115 95 -116Q96 -117 107 -120L126 -126L132 -128Q132 -129 135 -129Q143 -131 143 -133Q145 -136 145 -144Q145 -153 144 -156V-160Q143 -160 143 -164L139 -169Q139 -174 148 -179ZM64 -154L71 -152L83 -150Q91 -141 91 -140Q93 -135 93 -129Q90 -124 87 -123Q86 -121 85 -121H84Q77 -122 75 -126Q71 -129 63 -140Q62 -140 62 -141Q61 -141 57 -151V-152Q57 -153 64 -154ZM42 -110Q44 -110 44 -109L48 -110Q55 -110 57 -106Q58 -106 64 -103Q74 -95 74 -91V-85Q71 -80 65 -78Q64 -79 60 -79Q49 -94 42 -100L35 -107Q36 -110 42 -110ZM89 -81Q90 -81 90 -80Q90 -78 84 -67Q84 -64 82 -61Q80 -58 80 -55Q79 -55 77 -49L72 -36V-35V-34L70 -29L72 -24V-22Q76 -12 76 -9V-8Q75 1 68 1Q68 2 65 3Q60 3 58 -4L51 -20Q45 -30 45 -39L47 -41Q49 -37 55 -36Q55 -38 66 -50Q71 -56 71 -59Q76 -62 76 -66Q88 -78 88 -81Z"/>
</svg>