<svg xmlns="http://www.w3.org/2000/svg" viewBox="0 -256 256 256">
	<path fill="#000000" d="M118 -181L121 -180L126 -181H129H130Q141 -176 141 -173V-169Q141 -167 139 -166V-162Q139 -155 137 -153L138 -151L137 -148V-146V-142V-140L138 -139Q148 -144 159 -147Q169 -143 169 -137Q167 -132 151 -128L145 -126Q142 -123 137 -123L135 -122L136 -118L135 -114L136 -109L135 -104L136 -103H137Q146 -107 154 -108Q158 -111 180 -116H182Q195 -111 195 -108V-106Q195 -104 190 -99Q181 -99 181 -101L170 -100L168 -101L141 -96Q137 -93 133 -93V-91Q140 -85 142 -81Q144 -81 147 -75Q153 -71 155 -67Q157 -66 162 -62Q171 -55 174 -51Q176 -51 183 -45Q184 -45 187 -42Q189 -42 202 -34Q204 -34 208 -31Q212 -31 212 -28Q214 -28 219 -24L223 -23Q224 -23 231 -19Q236 -19 236 -17L235 -16H231L228 -17L227 -16L223 -17Q210 -15 210 -13H208V-14Q202 -13 199 -10Q197 -10 189 -6H188Q182 -6 170 -20Q168 -20 164 -27Q157 -31 148 -43L137 -54L135 -55V-57Q135 -58 133 -62H132Q130 -62 129 -56Q128 -56 128 -51L123 -42Q120 -42 119 -37L111 -28Q105 -21 104 -21Q102 -21 98 -16L97 -14Q94 -14 92 -11Q73 0 64 3Q64 4 61 4L58 6H56L55 5V4Q55 3 70 -3L73 -5Q73 -6 79 -9L88 -16Q88 -18 97 -28L104 -40L109 -53V-55Q111 -57 113 -66L118 -86H117Q106 -84 106 -83L92 -78Q92 -77 85 -74Q85 -73 79 -72Q72 -80 68 -80Q66 -77 65 -76Q64 -76 64 -72Q60 -69 60 -63Q56 -63 54 -49L53 -48V-46V-39L55 -35V-31L64 -14Q64 -9 55 -5H53Q47 -5 40 -18Q39 -18 39 -20Q35 -24 28 -36V-37L29 -38Q36 -37 37 -37Q38 -37 47 -52L65 -81Q65 -85 69 -85Q81 -89 87 -89V-88Q89 -90 95 -91Q95 -92 108 -95L115 -97L117 -98L119 -97Q120 -97 122 -113V-116H121H120L119 -115Q116 -117 115 -122L110 -124Q110 -123 100 -113Q100 -111 96 -109L81 -99H79V-100Q87 -107 87 -110Q88 -111 93 -124Q93 -127 95 -129H94V-131L96 -136Q96 -138 92 -143Q95 -148 97 -148Q102 -143 105 -143L116 -134Q116 -131 117 -131Q121 -131 124 -134V-144L122 -160Q120 -173 115 -173L114 -174V-175Q115 -181 118 -181ZM47 -156H56Q57 -154 61 -153Q61 -152 65 -152Q66 -150 72 -147L75 -142V-137Q73 -135 72 -131Q66 -131 64 -130Q57 -130 54 -138L46 -149L41 -153Q43 -156 47 -156ZM32 -111H37Q38 -111 48 -106L54 -101L56 -96V-95V-93Q54 -87 47 -84H46Q43 -84 34 -94Q24 -107 20 -107V-109Q20 -111 32 -111Z"/>
</svg>