<svg xmlns="http://www.w3.org/2000/svg" viewBox="0 -256 256 256">
	<path fill="#000000" d="M110 -169L116 -167Q121 -167 126 -162Q129 -162 132 -158V-157L129 -149V-148Q129 -146 126 -144Q126 -143 120 -131L121 -130Q121 -129 118 -126L119 -121Q118 -121 117 -117L116 -116V-115Q115 -110 113 -109V-107L114 -106Q117 -106 128 -109L129 -114L128 -119Q131 -122 135 -122Q149 -116 149 -109Q147 -106 147 -104Q147 -103 155 -100L157 -98L161 -99Q161 -101 167 -102Q167 -103 172 -104L174 -103Q177 -107 184 -107Q184 -108 192 -110Q201 -117 204 -117H205Q211 -112 218 -112Q225 -108 225 -104L223 -99L224 -98Q220 -97 220 -94L218 -90Q218 -88 214 -82Q214 -79 211 -74Q211 -71 209 -68Q215 -62 215 -61V-60Q215 -57 210 -55L207 -56L205 -55H204H199H198L197 -54H193H187H183Q182 -52 174 -51L167 -47Q167 -43 162 -41Q159 -41 156 -55V-56L152 -68L153 -69Q150 -77 150 -81V-85Q150 -87 148 -89L149 -91L146 -98V-101L144 -102Q139 -95 139 -92Q136 -92 134 -85L128 -74Q128 -72 124 -68Q122 -64 118 -60L117 -59Q122 -54 125 -54Q125 -52 136 -43Q140 -35 144 -32L145 -27V-25Q142 -19 138 -16H136Q125 -27 125 -28Q111 -42 110 -48L105 -41Q102 -41 101 -37L94 -32L88 -29Q88 -28 81 -23Q74 -19 72 -19L70 -21L78 -27Q78 -30 83 -30Q89 -38 93 -41Q93 -44 101 -51L102 -50V-51V-52Q90 -63 81 -69V-70Q82 -72 87 -76H89Q91 -87 93 -90V-91L89 -88H87Q82 -84 71 -84V-85V-87Q68 -87 66 -95Q64 -95 64 -96Q64 -97 69 -98Q69 -99 80 -99Q80 -101 95 -104Q98 -105 98 -111Q99 -111 101 -124Q103 -125 103 -129V-130L105 -134V-135Q105 -141 107 -141V-142L108 -152Q108 -153 106 -157Q106 -159 104 -163V-164Q107 -169 110 -169ZM46 -152L63 -149Q63 -148 69 -148Q80 -140 80 -137V-133L78 -131L79 -129Q71 -125 68 -125Q61 -127 54 -140Q53 -140 52 -144Q50 -144 48 -147Q45 -147 45 -151ZM39 -108Q41 -107 47 -106Q58 -99 58 -94V-90Q55 -88 54 -84L52 -83Q52 -84 35 -99L30 -105V-106Q30 -107 34 -107Q35 -108 39 -108ZM163 -86L165 -75V-73Q166 -60 168 -60H170Q174 -63 182 -64Q182 -65 187 -65Q187 -66 192 -67V-68V-70L193 -74V-81V-82V-91V-93L195 -100L194 -101L182 -96Q182 -95 177 -94Q174 -91 169 -90Q169 -89 164 -87H163ZM94 -76Q94 -73 103 -70Q103 -68 109 -67Q109 -65 110 -65L121 -87L125 -99H121L112 -95Q106 -95 106 -91Q102 -90 101 -84Q96 -80 94 -76ZM67 -78L68 -77Q66 -76 66 -71L62 -66Q62 -62 59 -56L60 -55Q57 -46 56 -42L57 -39V-34Q57 -32 61 -28Q61 -26 62 -24Q62 -22 64 -18Q63 -18 62 -12Q57 -7 55 -7Q51 -7 44 -19Q39 -25 39 -27L38 -32L35 -39V-40Q35 -41 43 -42Q43 -44 47 -48Q47 -49 58 -65L62 -72Q62 -74 67 -78Z"/>
</svg>