<svg xmlns="http://www.w3.org/2000/svg" viewBox="0 -256 256 256">
	<path fill="#000000" d="M142 -194L150 -189H155Q156 -186 160 -184L163 -179V-177L162 -171V-166H163L180 -171L189 -176Q201 -174 201 -171L202 -169V-168Q202 -163 194 -163H190L163 -156V-155L174 -151Q176 -151 177 -149V-148Q177 -145 171 -140Q168 -132 159 -125L156 -123V-121L159 -123L161 -122L162 -123H165Q166 -125 167 -125H168L173 -126L174 -125L176 -127H180Q181 -129 188 -130Q188 -131 195 -131Q201 -135 209 -135L212 -136Q222 -133 224 -131L225 -127Q225 -122 221 -119H219Q214 -119 206 -122L204 -121L197 -122H194L190 -123L189 -122L188 -123Q180 -123 154 -115H153L152 -116Q149 -112 138 -110Q137 -108 126 -105Q126 -104 121 -103Q121 -101 109 -99Q107 -101 105 -101Q102 -104 99 -104Q99 -105 98 -105L97 -106V-107Q97 -108 109 -109Q112 -112 122 -113Q127 -116 134 -116Q128 -119 128 -121V-128V-129Q128 -134 124 -144L119 -142Q116 -142 111 -147Q110 -147 105 -152Q105 -153 111 -153Q112 -155 136 -159Q138 -160 143 -162Q143 -172 138 -179Q134 -179 133 -185Q133 -194 142 -194ZM127 -144Q128 -143 132 -141Q132 -140 135 -139Q140 -135 140 -131Q142 -131 142 -130V-127Q142 -124 135 -117V-116H136Q137 -117 148 -120Q152 -128 152 -132L154 -133V-135L158 -150L157 -151L158 -154Q158 -155 156 -155L130 -146L127 -145ZM83 -151H84Q89 -146 91 -146H94Q105 -143 107 -140L109 -136Q107 -133 102 -127V-126Q100 -124 100 -122L94 -113Q93 -109 89 -104V-103V-101L92 -102L94 -100V-99L92 -96L89 -97Q89 -95 78 -92Q74 -90 69 -88Q69 -87 65 -86L61 -85V-83Q61 -77 62 -77Q62 -69 55 -64Q51 -64 46 -88L40 -104L35 -117Q34 -117 34 -120Q32 -120 30 -128L31 -129Q38 -128 45 -124Q55 -121 56 -117Q58 -117 58 -116L57 -111L59 -105L58 -104Q59 -98 60 -97V-94Q76 -100 76 -102L75 -103Q76 -103 78 -118V-120V-122L79 -124L78 -126L79 -127V-128H78Q71 -124 70 -124Q68 -125 66 -127Q63 -127 56 -133Q56 -134 66 -137Q76 -142 79 -146ZM175 -108L183 -101H185Q198 -98 198 -92Q198 -89 193 -83Q188 -63 187 -63Q184 -52 183 -50V-49Q176 -35 169 -35Q169 -34 166 -34Q163 -37 163 -39Q163 -46 166 -49L165 -50H164Q162 -45 159 -45L157 -46Q156 -44 150 -44Q150 -42 143 -41L136 -38L134 -39Q131 -36 129 -36V-37Q125 -27 124 -27H123Q119 -27 118 -36Q117 -36 116 -43Q115 -43 114 -52V-54L112 -64Q111 -64 110 -72Q105 -83 105 -87V-88L106 -89H109Q114 -84 116 -84Q116 -86 118 -86H122Q122 -87 128 -89L133 -90Q137 -93 145 -94Q151 -97 156 -98Q165 -99 173 -108ZM167 -94Q167 -93 159 -90L156 -91L153 -89H151Q150 -87 142 -87Q142 -86 137 -86L134 -85Q134 -84 126 -82Q124 -80 124 -79Q126 -77 126 -76L125 -67H126H127Q138 -70 144 -74Q149 -75 151 -77Q157 -76 161 -74V-73V-72Q161 -69 156 -68L155 -67H154H153Q144 -64 140 -62H138L136 -61H129L127 -63L126 -62V-59L127 -56V-54V-52V-50H128V-49L127 -46L129 -44Q133 -44 138 -49L140 -48Q140 -50 153 -54Q154 -55 156 -55H157Q163 -54 165 -51Q167 -56 167 -64Q169 -65 169 -68Q168 -68 168 -69L169 -72V-76Q169 -79 170 -79L169 -81V-91V-92Q169 -94 168 -94ZM196 -47Q204 -47 208 -44Q212 -44 220 -36Q222 -33 222 -29Q222 -23 219 -23Q216 -21 215 -21H211L205 -26Q204 -31 190 -39Q187 -41 187 -42V-43Q187 -44 190 -44Q192 -45 196 -47ZM150 -31Q155 -30 157 -27Q160 -27 160 -24H161Q165 -30 168 -30L169 -28L166 -23V-19Q166 -14 159 -12Q153 -12 151 -25L148 -31H149ZM181 -25H182Q184 -25 188 -19Q198 -7 207 -4Q217 0 217 4Q217 13 211 15Q211 16 190 18H187H185H183H179H165H162Q159 15 149 13L138 5Q137 5 135 1Q132 -2 126 -9Q125 -9 118 -19L119 -20H120Q127 -18 138 -9Q143 -9 144 -6Q152 -5 154 -3H157Q160 -2 170 0L172 -1L174 0Q188 0 188 -3Q188 -9 185 -18Q182 -22 181 -25ZM101 -23L102 -21L101 -5Q102 -5 102 5Q102 13 93 16L89 11V9L88 5L89 1V-3V-5V-10V-11Q92 -17 95 -17Z"/>
</svg>