<svg xmlns="http://www.w3.org/2000/svg" viewBox="0 -256 256 256">
	<path fill="#000000" d="M65 -165L72 -163Q84 -160 87 -156Q88 -156 93 -148V-147V-142Q90 -131 82 -131L81 -130Q78 -131 77 -135Q75 -135 73 -140L74 -142Q71 -143 68 -149Q65 -150 64 -157L60 -162V-163Q60 -164 65 -165ZM199 -154Q202 -152 205 -152Q208 -148 216 -144L219 -141V-140V-139Q219 -136 213 -121L202 -47Q200 -41 191 -30L179 -20H178Q176 -20 175 -25L176 -35Q176 -39 172 -52L173 -53H175L176 -52H177Q181 -56 181 -62Q183 -62 184 -73Q185 -74 185 -79V-81H186L185 -82V-84L186 -86V-88Q186 -89 187 -98H186Q186 -101 190 -112L189 -113V-114L190 -115L189 -117L190 -119L189 -127Q190 -132 191 -132Q189 -134 189 -136L190 -138L189 -139Q177 -138 169 -135H164L151 -132L150 -131V-132L134 -129Q128 -127 124 -126Q119 -125 118 -125V-124L110 -122V-121Q118 -119 118 -114V-110L117 -106L118 -102L117 -95L118 -93H117H118V-91L117 -87L118 -86L117 -84L118 -59V-58V-57L119 -54H118V-53H119Q128 -56 135 -57Q135 -58 146 -61Q146 -62 154 -63Q154 -64 157 -64Q159 -66 161 -66H164Q170 -62 172 -59V-57L169 -54L165 -55Q165 -54 163 -54H162H155L154 -53L152 -54Q152 -52 141 -51Q141 -50 136 -50L130 -48Q130 -47 123 -45H121Q119 -45 118 -38Q113 -32 111 -32Q108 -36 105 -41V-42L104 -46V-53Q102 -57 102 -63L101 -64V-66L102 -68V-69Q100 -69 100 -73V-74L101 -76Q99 -78 98 -87L99 -91Q96 -99 96 -108H97L92 -122H93L91 -126V-127L92 -129H95Q96 -129 96 -126H98L100 -129H101L105 -128H106L108 -130H113Q113 -131 115 -131H116L118 -130H119Q119 -133 130 -134Q136 -137 149 -139L159 -141L160 -143H164Q174 -146 181 -147Q183 -149 190 -151Q196 -154 199 -154ZM165 -122H167Q170 -122 177 -116Q178 -116 178 -113Q180 -112 180 -110V-109Q177 -105 172 -99Q170 -96 167 -92V-91Q170 -88 170 -86L165 -81H159L153 -79L150 -80Q147 -77 141 -75Q138 -68 135 -68Q131 -73 131 -76V-78V-80L130 -81L131 -84Q128 -84 128 -95H127L128 -97L127 -99V-100V-101V-106V-108L125 -109V-110L126 -111Q128 -111 132 -109L137 -106Q137 -109 141 -109H143Q145 -113 153 -113Q153 -114 157 -116Q157 -118 160 -118ZM52 -116Q62 -116 71 -104L72 -99Q72 -86 64 -86L52 -94Q48 -98 45 -104Q43 -104 41 -109L37 -113Q37 -115 52 -116ZM140 -101L141 -95L140 -83H141H142L153 -87Q157 -88 157 -103V-105L158 -106V-107L141 -101ZM83 -86H84H85L80 -75L76 -65Q73 -54 71 -53V-50L69 -45Q71 -29 75 -29L77 -24V-18Q70 -11 69 -11H66Q64 -12 60 -14L53 -25Q48 -31 48 -35L49 -37L48 -38V-45Q48 -46 49 -46Q52 -45 55 -45L59 -49Q59 -50 63 -53Q63 -56 66 -57Q66 -59 72 -68Q72 -70 76 -73L82 -84Q82 -86 83 -86Z"/>
</svg>