<svg xmlns="http://www.w3.org/2000/svg" viewBox="0 -256 256 256">
	<path fill="#000000" d="M181 -183Q186 -183 190 -179Q190 -171 186 -168Q179 -166 172 -165Q172 -164 167 -163L160 -160H159Q156 -156 150 -154L139 -149L120 -165Q129 -171 142 -172H145Q145 -173 150 -175Q150 -176 157 -176Q157 -177 159 -177H163Q165 -180 169 -180L175 -181Q175 -183 181 -183ZM60 -159H66L67 -158L69 -159H78L88 -153Q88 -152 93 -148Q93 -146 96 -144Q98 -138 98 -135V-132Q94 -126 92 -126H87Q79 -129 78 -133L68 -144Q65 -145 65 -148L60 -154Q58 -154 58 -155V-158ZM178 -151H180L194 -145Q196 -145 197 -143Q197 -134 190 -130Q184 -124 181 -119Q180 -119 177 -115H176Q176 -112 180 -112L185 -107Q178 -100 174 -100L172 -101L169 -100H168Q160 -98 154 -98Q152 -97 144 -95Q137 -94 137 -91Q137 -89 133 -85H132Q131 -87 127 -89L124 -97V-98L125 -99Q122 -104 122 -113Q120 -117 119 -123Q118 -123 118 -129L114 -134V-135L115 -136H118Q123 -133 129 -131Q136 -132 141 -136L143 -135L161 -142L164 -141Q168 -144 170 -147Q172 -147 178 -151ZM163 -132H160L155 -130H152Q150 -127 145 -127Q141 -124 136 -124L134 -125Q137 -121 137 -119L136 -116V-110Q136 -107 138 -106H141L150 -108Q150 -109 159 -110V-111Q165 -112 165 -113L167 -129V-130Q167 -132 165 -133ZM52 -114Q55 -112 61 -111Q63 -108 70 -105Q70 -104 74 -102L78 -95L75 -90V-88L73 -84L71 -85H70Q70 -83 69 -83H65L53 -90Q53 -93 48 -95L30 -106Q29 -106 28 -108V-109Q28 -110 35 -111L41 -113L44 -112Q46 -113 52 -114ZM203 -96Q211 -91 220 -89Q225 -85 227 -82V-78Q222 -72 218 -58Q215 -51 215 -47Q212 -39 206 -19Q205 -19 203 -11Q191 7 184 7Q182 7 182 5H181L183 -2Q182 -3 181 -10Q179 -13 176 -21H175Q171 -20 160 -19L128 -10L123 -11H121V-10V-8Q119 3 117 3H116Q110 0 107 -15Q105 -21 104 -32Q98 -48 94 -65Q92 -65 92 -70V-71Q92 -72 90 -76L91 -77L102 -72Q103 -72 106 -70L117 -73L127 -76Q129 -76 138 -80Q141 -80 146 -82L159 -84H160Q163 -86 168 -86L169 -87H173L192 -92L200 -95Q200 -96 203 -96ZM88 -88L89 -87L86 -77Q84 -70 82 -70V-67Q82 -65 78 -60Q75 -52 74 -52L75 -49Q72 -40 71 -40L72 -38L71 -35Q72 -27 74 -27V-24Q76 -24 76 -21Q78 -20 78 -19V-17Q81 -17 82 -12Q83 -12 84 -7V-6Q83 4 76 4H75Q65 4 59 -8Q55 -13 51 -17Q47 -23 46 -30Q44 -33 44 -35V-36Q45 -38 47 -38L50 -37Q59 -39 59 -44Q60 -44 69 -55Q81 -72 83 -80Q85 -83 87 -88ZM191 -83H190Q188 -81 180 -81Q180 -80 168 -79Q168 -78 163 -77Q163 -76 156 -75Q156 -74 161 -71V-69Q160 -68 159 -63V-61Q163 -61 170 -65H175Q179 -65 181 -61Q180 -55 175 -55Q165 -53 159 -51H157L154 -34L153 -33V-32Q154 -28 155 -28H156Q162 -29 174 -33H175Q177 -32 180 -31Q184 -28 184 -27V-24L182 -22V-21H183Q186 -21 188 -33Q189 -33 189 -40L190 -41V-43Q190 -45 193 -56Q193 -61 195 -65V-69V-73V-76Q195 -78 197 -83ZM127 -66L125 -68Q123 -65 117 -63H116Q111 -62 111 -61L113 -59V-55L115 -48V-47V-45V-43Q117 -43 117 -40V-39V-38L118 -36L117 -34L118 -32V-30L119 -27V-24Q121 -24 121 -20H122L141 -24Q142 -26 143 -29L142 -32L143 -36L142 -38L143 -40L142 -41L144 -43Q143 -45 142 -45Q141 -44 137 -43Q137 -42 133 -41H132Q130 -42 123 -46H122V-47Q122 -49 127 -49Q127 -50 131 -50H133Q133 -51 142 -54V-60L143 -63L142 -66L143 -70H139Q129 -68 127 -66Z"/>
</svg>