<svg xmlns="http://www.w3.org/2000/svg" viewBox="0 -256 256 256">
	<path fill="#000000" d="M145 -193Q146 -193 156 -189Q160 -186 164 -186Q170 -185 170 -182L171 -181L168 -175Q168 -172 172 -171Q180 -174 184 -174Q184 -175 190 -176H196H197Q198 -174 203 -173Q204 -171 204 -170V-169Q204 -165 195 -163Q195 -162 191 -162L190 -163L186 -162Q184 -162 181 -162H177Q175 -160 171 -160Q162 -157 151 -155Q151 -154 149 -154L146 -155Q145 -155 141 -151Q140 -151 134 -148L133 -149L127 -145H126L125 -146V-145Q124 -144 123 -144L119 -147Q117 -147 114 -150Q112 -152 111 -153V-154L112 -155H119L122 -157H123L124 -156L139 -161Q142 -161 142 -162H144Q149 -163 149 -167L145 -177Q145 -182 137 -185V-186Q139 -193 143 -193ZM79 -176Q88 -174 90 -171Q91 -171 99 -162L100 -160V-155V-154Q100 -146 94 -144L92 -142Q89 -142 86 -146Q80 -149 80 -154Q79 -154 70 -164Q69 -164 63 -172Q59 -172 59 -173L60 -175H67ZM145 -151H146Q147 -149 151 -149L152 -148H153Q159 -148 163 -145Q166 -145 166 -143L168 -140Q168 -137 169 -137H170L174 -136Q174 -139 186 -142V-141L187 -140L189 -141Q194 -138 199 -138Q204 -134 206 -131Q206 -126 202 -124L198 -119H199L205 -120L206 -119V-120H208Q210 -117 216 -115L218 -112V-110Q218 -108 207 -106L200 -108Q191 -106 191 -103Q189 -102 187 -95L184 -90Q184 -89 192 -86L195 -84V-81Q192 -77 189 -77L187 -78H186L185 -77H183Q174 -77 174 -76H172L170 -75H169L167 -76Q167 -74 159 -73Q159 -72 158 -72V-71V-68L157 -56V-50Q159 -50 165 -54L176 -56Q176 -58 180 -59L181 -58Q184 -61 190 -63L192 -64H194Q196 -64 201 -58Q204 -58 208 -54L211 -51Q211 -45 207 -43Q200 -29 194 -22V-21H196H197Q199 -20 199 -15Q198 -13 193 -10Q187 -11 187 -12H184H181H180H179L159 -10Q147 -7 147 -6Q146 4 142 4H141H140Q135 -1 135 -11L127 -36L126 -39V-41Q124 -41 123 -49L125 -50H127Q128 -48 136 -46H138Q138 -45 142 -43Q145 -44 145 -45V-47L148 -48V-49L147 -50V-54V-56L146 -60V-61L147 -62Q146 -68 145 -68L140 -67H139Q139 -66 134 -64Q127 -67 126 -71V-72H127H131L146 -77L147 -79L146 -81L148 -82L147 -85L148 -88L147 -92L149 -95L148 -97Q145 -95 141 -94Q140 -92 138 -92L136 -93Q135 -91 134 -91Q132 -91 128 -95H127Q124 -93 124 -88L122 -86L123 -84L120 -73Q119 -73 118 -68Q117 -68 116 -62Q115 -62 114 -56L111 -50V-48Q109 -48 103 -34Q102 -34 101 -31Q100 -31 99 -28Q96 -24 96 -20Q92 -17 88 -10Q82 -1 76 4Q62 17 58 17V15Q67 8 75 0L84 -12Q89 -22 91 -23Q91 -25 100 -43Q100 -46 103 -54Q103 -55 105 -59V-60Q106 -60 107 -68Q109 -69 109 -71V-73L110 -75L109 -77Q110 -78 112 -86H113L112 -87L115 -105Q116 -105 116 -110L117 -113L118 -114V-115L117 -116L118 -118L117 -121L118 -122Q116 -127 116 -131V-135L118 -134L122 -135Q123 -135 126 -132Q134 -129 134 -126V-125L132 -120V-118L130 -116V-115Q128 -101 127 -101V-100L128 -99Q131 -99 138 -101Q138 -102 142 -102Q142 -104 148 -104V-106L147 -109L148 -117L147 -120L148 -122Q141 -118 140 -118Q139 -120 136 -122H135V-124Q135 -125 138 -125L139 -126H141H142L147 -128L148 -133L147 -137V-138Q147 -145 144 -145L143 -147Q144 -151 145 -151ZM176 -131Q175 -129 173 -129H172Q172 -128 164 -127V-126H163L164 -124Q164 -120 163 -114V-112L162 -111V-110L163 -109Q171 -112 176 -113Q178 -115 178 -119L179 -120L178 -122V-125L180 -129V-130ZM55 -126Q65 -124 66 -123H69H70Q75 -123 80 -116L82 -111V-110Q82 -107 82 -106V-105Q82 -98 73 -95H72Q63 -97 63 -101L55 -108Q53 -108 48 -112Q41 -119 40 -119Q37 -120 37 -121Q37 -122 55 -126ZM161 -95V-94L160 -87V-84L161 -83L167 -84L169 -83Q172 -83 172 -87L175 -90L173 -91V-92Q174 -93 175 -98L174 -100L176 -102V-103L175 -104Q172 -101 165 -101Q161 -99 161 -95ZM100 -101Q100 -97 85 -76Q85 -74 79 -68Q79 -66 78 -64Q75 -57 72 -54Q72 -50 70 -49V-47L69 -44Q70 -35 75 -24V-20Q74 -16 67 -11H65Q58 -15 52 -24Q52 -29 46 -37L42 -45Q42 -46 44 -46L51 -45H53Q66 -59 75 -69Q84 -80 85 -83Q88 -86 94 -96ZM177 -50H176Q171 -49 168 -47L166 -49Q166 -47 159 -45V-46Q159 -43 150 -43Q150 -41 145 -41V-39Q145 -37 144 -36L145 -34V-33Q145 -30 144 -30L147 -20H146V-19Q147 -17 148 -17L156 -18L159 -20H164Q174 -21 176 -23L177 -22Q181 -22 181 -25Q181 -28 182 -28V-29Q182 -32 184 -38L183 -40L184 -45L183 -47L185 -49L183 -51Z"/>
</svg>