<svg xmlns="http://www.w3.org/2000/svg" viewBox="0 -256 256 256">
	<path fill="#000000" d="M153 -200Q167 -194 167 -192L168 -188Q168 -185 162 -182Q158 -178 150 -173V-171H152Q155 -175 166 -177L167 -179H169V-178H170Q170 -180 174 -181Q176 -184 181 -185L183 -186H184Q193 -183 193 -179Q189 -174 181 -174Q180 -173 171 -170L163 -167V-166L171 -160Q171 -158 167 -155L161 -146V-145L165 -144L176 -141Q181 -141 188 -137Q198 -133 198 -128L199 -127V-125Q194 -119 193 -119Q178 -122 175 -126L165 -129Q162 -129 156 -133Q151 -135 149 -135Q149 -131 142 -130Q142 -127 137 -127Q135 -125 122 -122L118 -120Q116 -120 116 -121Q118 -124 126 -126Q140 -135 141 -138Q141 -140 131 -143Q131 -144 127 -145L126 -147V-148Q126 -149 132 -149H135L141 -148H142H146Q148 -148 153 -155Q153 -157 156 -160Q156 -161 153 -161Q149 -166 145 -168Q138 -162 128 -156H127Q126 -156 126 -158Q130 -163 135 -165Q135 -170 143 -177Q146 -182 149 -190L145 -194V-195Q145 -200 153 -200ZM86 -196H87Q88 -196 92 -194Q100 -192 104 -189L103 -186V-184H104Q105 -185 110 -185Q118 -185 119 -180Q113 -174 108 -172Q107 -170 101 -168L102 -167Q101 -158 99 -158Q100 -153 102 -153L114 -157H115L121 -158L123 -156V-155Q123 -152 117 -150L114 -151L111 -150L110 -151V-150Q110 -149 106 -148Q106 -146 100 -146V-144L99 -143Q99 -140 104 -140Q120 -136 120 -132Q120 -128 117 -126H115Q109 -129 107 -132L101 -136H100Q99 -129 98 -129L99 -126V-125V-123V-120V-117L97 -111H98V-110L96 -107V-106Q96 -105 97 -105Q98 -106 104 -106Q104 -107 117 -109Q120 -111 137 -113Q148 -118 171 -121Q175 -118 178 -118Q180 -115 180 -113Q180 -112 177 -110H171L151 -107L150 -108Q146 -107 137 -107Q136 -105 132 -104Q134 -100 144 -98Q148 -98 148 -97V-95L147 -93V-88L146 -86L147 -82V-80L145 -78Q146 -78 147 -74Q149 -74 151 -72Q155 -73 161 -82Q163 -89 165 -89V-91L166 -94L165 -97V-98Q165 -99 169 -100H171Q172 -98 179 -97Q184 -93 184 -90V-87Q180 -83 172 -79L161 -73L156 -68Q162 -63 175 -56Q177 -53 185 -50L189 -45H194Q198 -42 201 -42Q203 -38 209 -38Q212 -34 221 -34Q221 -33 227 -32Q233 -29 233 -28V-27L232 -26L229 -27V-26H228V-27H227Q208 -24 205 -23H204Q194 -18 193 -18H192Q190 -18 187 -23Q184 -23 179 -27Q175 -27 172 -33Q169 -33 166 -37L156 -47Q154 -47 151 -51Q150 -51 150 -52V-54H148H147V-50L146 -45H147L146 -43L147 -41V-36V-33V-32L148 -28V-27L147 -26L148 -19Q147 -3 143 4Q140 6 137 12Q135 15 131 15L127 16Q125 15 125 14L126 12Q123 0 119 0Q119 -3 112 -7L109 -8V-9L110 -10H112L114 -8V-9H115L120 -8H121Q125 -5 127 -5L126 -9L127 -10V-15L128 -17Q128 -19 127 -19L128 -22V-31L129 -32V-33L127 -43L128 -45L127 -50L128 -54L127 -56V-63Q127 -72 128 -72L127 -74L128 -76L127 -81V-85V-88V-90Q126 -93 121 -97V-101H119H118Q116 -101 106 -98L96 -94Q86 -92 86 -91L89 -87H91L98 -84V-83H97V-81H99V-79Q99 -77 94 -72Q94 -70 91 -67V-66L92 -65H93Q97 -68 99 -68L100 -67Q100 -70 107 -72Q107 -73 110 -75L112 -74V-75V-77H113H114Q115 -77 115 -76Q119 -76 119 -73H121Q122 -72 125 -72H126V-70Q122 -65 121 -61L111 -40Q111 -39 108 -37Q103 -25 103 -23Q102 -21 99 -20Q99 -16 92 -10Q81 0 72 5Q66 9 64 9L63 8Q63 6 72 1L84 -13Q90 -18 92 -24L94 -29V-30Q97 -36 98 -39Q99 -40 100 -45L103 -49H102V-50Q105 -58 107 -60V-61H106H105Q102 -58 97 -57L95 -55H94L89 -58Q85 -58 84 -52Q83 -52 82 -47Q81 -47 80 -43Q79 -43 79 -39L77 -38V-37V-36Q77 -33 72 -25Q70 -21 66 -16Q66 -15 63 -12Q63 -10 56 -5Q49 6 29 22Q25 22 24 24H23L22 23Q22 20 27 19L39 8L48 -5L59 -24Q62 -27 65 -38Q67 -42 68 -47Q72 -51 72 -56L74 -62L77 -72Q78 -72 81 -85V-88L79 -89H78L74 -87Q71 -87 66 -92Q64 -92 62 -95Q62 -96 68 -97Q68 -98 81 -100Q85 -102 85 -106V-110V-114V-115V-117V-120L84 -122L85 -126L84 -127L85 -128L84 -130H83Q83 -128 73 -119Q73 -117 68 -112Q49 -94 44 -93Q38 -88 35 -88L34 -89V-91Q34 -92 37 -93Q37 -94 43 -95Q58 -108 64 -117Q69 -123 75 -134V-135Q68 -133 58 -127Q55 -127 49 -122H47L38 -126Q38 -127 29 -130V-131Q30 -134 32 -134V-133L44 -136L46 -135Q52 -140 58 -140L65 -142L66 -144H67L68 -143Q73 -144 74 -145L76 -144Q84 -147 84 -149V-158L81 -156H80Q70 -163 66 -164L63 -168Q69 -173 77 -173Q77 -174 84 -177V-180V-183Q83 -183 80 -188V-190Z"/>
</svg>