<svg xmlns="http://www.w3.org/2000/svg" viewBox="0 -256 256 256">
	<path fill="#000000" d="M168 -192H169L172 -191L174 -192H175Q181 -187 190 -184V-182Q186 -177 186 -173V-172Q184 -169 184 -167L185 -165L184 -161L185 -158L183 -155L184 -152L183 -148L184 -146V-143V-133V-130L185 -124L195 -128Q201 -132 209 -135H210Q212 -134 216 -133L220 -131L221 -129V-128Q218 -125 214 -125Q214 -124 206 -123Q191 -114 188 -114Q188 -113 185 -113L184 -111Q186 -107 187 -92L188 -91V-87V-85H189Q192 -88 196 -99L197 -104H196L197 -106H198Q201 -106 208 -99L214 -95L216 -91V-90Q215 -89 207 -82Q207 -81 197 -72Q196 -71 191 -69V-68L192 -66L190 -65Q193 -64 193 -63V-60L202 -38L203 -37L202 -35Q204 -35 206 -30L209 -24L213 -21Q215 -26 220 -29Q224 -37 226 -39Q227 -39 227 -37Q223 -28 223 -19Q222 -19 221 -10Q222 -1 225 7V11Q220 16 217 16H215Q208 13 206 8Q201 4 201 -1Q199 -1 199 -5Q197 -5 196 -9L195 -10V-14Q193 -14 192 -18Q189 -20 189 -25Q185 -32 185 -37L183 -38L184 -41L181 -49Q180 -49 179 -58H177Q173 -55 164 -50L162 -49H161Q159 -47 145 -41V-38Q145 -35 143 -33V-32H145V-27V-25V-23V-19Q145 1 133 7L132 5L133 2Q132 2 130 -5L128 -10H127L128 -14L127 -18L128 -21V-23Q128 -33 129 -33L128 -39L129 -44V-48V-52L127 -53Q119 -46 116 -45Q114 -43 111 -41Q111 -40 106 -37Q105 -36 96 -30Q96 -28 90 -26L89 -25Q84 -28 84 -33Q81 -33 78 -36V-37L79 -38H80L82 -37Q83 -40 87 -40Q96 -44 96 -46V-54V-59L97 -61L96 -63L97 -65L96 -67L97 -70L96 -73V-74V-76V-78V-81V-84V-90V-94V-95V-99V-106H95Q93 -106 90 -103H89L81 -107Q78 -107 78 -110L90 -115Q99 -117 104 -119Q105 -119 107 -121H113H114Q114 -123 123 -126Q127 -128 132 -128Q138 -132 142 -132Q142 -133 148 -134H149L151 -135H154Q155 -133 159 -133Q162 -131 163 -129L159 -126H153Q153 -124 141 -123V-122L145 -117L144 -108V-106L143 -102L144 -101L143 -99V-94V-91V-90V-87V-80L142 -78Q143 -78 144 -72L143 -66Q144 -63 144 -61V-52L143 -50Q144 -50 145 -48L144 -45V-44L146 -43Q149 -46 159 -52Q159 -54 164 -58Q165 -60 177 -70L178 -74Q177 -75 176 -86Q175 -86 174 -89V-93L172 -105L159 -96H158L151 -103Q149 -103 146 -106V-107L159 -112Q163 -115 165 -115L166 -114Q166 -117 171 -117L172 -120L171 -125V-126L172 -130L171 -134L172 -138L171 -142L172 -144Q171 -145 170 -153L171 -155L170 -157L171 -158L170 -161L171 -162V-163L170 -164V-168L171 -172Q169 -172 168 -180L169 -181Q169 -183 165 -185Q165 -189 168 -192ZM146 -182L150 -179L159 -175L161 -172V-170Q161 -169 156 -166Q155 -162 152 -162V-163V-162V-160Q150 -157 148 -157H147V-155L152 -151V-150Q150 -146 147 -146Q146 -145 141 -145L138 -144Q138 -143 132 -142Q132 -141 128 -140L125 -139H123L121 -137L119 -138Q118 -138 118 -136V-135H117L116 -136H115L114 -134L115 -132Q114 -128 109 -124H108Q107 -124 105 -128V-132Q104 -132 104 -134V-136Q103 -136 102 -148Q101 -148 100 -157V-160Q98 -161 96 -167Q93 -170 93 -171V-172Q95 -175 97 -175Q99 -175 104 -171L112 -167Q114 -169 121 -170Q121 -171 125 -171Q125 -172 130 -173L135 -176L141 -178L145 -182ZM58 -169L63 -167L65 -168L67 -167H69Q72 -166 80 -163Q80 -162 84 -161Q84 -158 87 -157V-151Q87 -148 81 -142Q81 -140 80 -140H77Q70 -142 70 -146L64 -152Q61 -152 53 -161Q49 -164 44 -166L43 -168L45 -169L49 -168L50 -169L51 -168ZM130 -163L127 -164L123 -162L121 -163Q121 -162 118 -159V-156L116 -155L118 -150L117 -147Q117 -144 118 -144L120 -145V-144L123 -145Q125 -148 128 -149L131 -148Q131 -151 135 -151V-158V-160Q135 -162 136 -162L135 -166Q132 -166 130 -163ZM201 -166L206 -163V-164H207Q213 -162 218 -155V-151Q218 -146 210 -144Q204 -144 203 -148Q191 -161 189 -162V-163L191 -165H192ZM115 -113H113Q110 -111 106 -111L104 -109H101H100L98 -106V-104H102Q103 -104 107 -102L112 -99Q114 -99 124 -104L128 -105Q130 -105 130 -103L131 -107L130 -108V-110L129 -112L130 -115Q129 -118 128 -118Q119 -115 116 -114Q116 -113 115 -113ZM38 -118H39L49 -117H51Q67 -115 67 -112Q72 -110 72 -103V-100Q70 -99 69 -95L64 -92Q62 -92 51 -99Q50 -99 46 -103L30 -112Q29 -112 28 -113V-114Q28 -116 38 -118ZM83 -101Q84 -101 84 -99Q78 -90 75 -80Q73 -78 70 -69L68 -65L69 -63Q65 -58 65 -50V-48Q68 -40 71 -35Q72 -35 74 -30Q76 -30 76 -26Q76 -18 71 -15H69Q67 -13 65 -13H64Q56 -16 51 -25Q51 -27 45 -35Q45 -37 38 -48L36 -50Q36 -51 38 -51Q46 -49 49 -49H50Q60 -66 63 -68L77 -91Q77 -93 82 -100ZM123 -96Q123 -94 109 -89V-88L111 -86Q109 -84 109 -78Q107 -78 106 -76H109Q110 -77 114 -77Q114 -80 128 -84L129 -88V-91L130 -98H127V-96H126ZM108 -67L109 -66V-63L108 -61L109 -54L108 -52V-51H109Q114 -52 123 -56L127 -58Q127 -59 128 -59H129V-60L128 -61L129 -69L128 -72L129 -74V-75L128 -76Q125 -73 118 -72L116 -71Q115 -70 109 -68Q109 -67 108 -67Z"/>
</svg>