<svg xmlns="http://www.w3.org/2000/svg" viewBox="0 -256 256 256">
	<path fill="#000000" d="M167 -201H175Q176 -201 176 -200V-199H178L180 -201L181 -200L179 -198Q181 -197 181 -195V-191Q176 -182 173 -182Q170 -180 169 -180H167Q167 -179 165 -179Q165 -176 161 -176Q161 -175 160 -175H159V-174Q163 -171 163 -168V-166L184 -171Q189 -171 190 -172H192V-171Q194 -174 202 -175Q206 -176 208 -177L211 -178Q218 -174 219 -173Q225 -170 230 -166Q233 -162 233 -160V-157Q233 -155 231 -153H228H226H224H222L221 -152Q219 -152 216 -154H215H213Q205 -154 200 -149Q194 -149 194 -147Q194 -145 193 -145H191L190 -147L198 -154L201 -160L203 -164Q202 -168 200 -168Q198 -168 195 -166H190Q189 -166 185 -163L180 -162H179H178Q177 -161 175 -160L172 -161L162 -157Q161 -156 160 -149H159L160 -141Q159 -141 159 -139V-137L158 -135L159 -134L158 -126V-124L157 -122V-121L156 -119L157 -117Q157 -113 151 -108V-107Q158 -103 159 -103Q159 -99 152 -99Q145 -97 145 -95Q143 -93 143 -90L141 -88L145 -83Q145 -79 137 -78Q129 -76 128 -74H127H126L124 -73Q124 -72 128 -70Q129 -67 130 -67H131Q133 -69 140 -72L147 -76Q149 -76 155 -71Q158 -69 158 -68Q158 -63 152 -60L144 -52L145 -50Q145 -45 138 -44Q130 -42 129 -40V-39L130 -37H129V-36H130L129 -34V-33L130 -32Q131 -34 140 -36L146 -38L152 -33Q151 -28 150 -28H149L140 -27L138 -28Q138 -26 133 -26Q133 -24 130 -24V-17V-14L131 -13L130 -10H131V-9L130 -8Q130 -4 131 -3V-1L130 0L131 2L130 4Q130 5 131 5V7V11L127 18L125 19H123Q122 19 121 13V12L120 9L121 7L119 5Q119 0 120 0V-1L119 -5L120 -9V-11V-14L119 -17L120 -18Q120 -21 118 -22Q118 -21 117 -21H114L108 -18L106 -17L105 -18Q102 -14 100 -14Q100 -13 96 -11Q94 -8 92 -8Q90 -8 85 -15Q83 -15 83 -16V-18L88 -19H89Q103 -25 109 -25Q109 -26 115 -27Q115 -29 119 -29L120 -36V-37H119Q117 -36 115 -36Q111 -33 110 -30H107Q105 -31 103 -36V-41Q100 -48 99 -54L96 -56V-60L98 -62H99Q102 -60 105 -56H106Q109 -60 115 -61Q120 -63 120 -65L119 -68L120 -70H119H118Q118 -68 114 -68Q113 -64 112 -64Q110 -64 108 -73Q107 -73 107 -79Q100 -73 97 -73Q95 -78 92 -78V-81L97 -82L102 -85Q104 -87 104 -89V-92V-94V-98Q104 -100 105 -100H106Q107 -99 113 -96Q117 -94 117 -93V-92H118L125 -95L131 -99Q132 -99 132 -104L130 -108Q130 -105 125 -104Q118 -110 118 -112Q119 -114 127 -118Q130 -120 135 -125Q145 -130 145 -132V-134V-146Q144 -148 144 -151L143 -152Q141 -149 137 -149Q136 -147 129 -145Q129 -144 125 -143Q125 -142 121 -142L119 -140H118H117Q116 -138 113 -138V-136V-135Q113 -130 111 -125Q110 -117 107 -112Q101 -104 100 -104H99Q96 -107 96 -112Q95 -112 93 -121V-122Q95 -123 95 -127Q96 -127 98 -145V-146L99 -149L98 -152L99 -158L98 -161L99 -162Q101 -162 110 -151Q110 -149 112 -149L121 -152Q123 -152 127 -153Q129 -153 131 -155Q145 -158 145 -160L144 -162L145 -163Q144 -165 143 -165L142 -164H140L132 -171L124 -179V-181V-182Q124 -184 133 -185Q138 -188 146 -191Q147 -193 163 -198ZM70 -176L72 -175L75 -176Q86 -171 90 -167V-168H91L93 -165Q95 -164 96 -164L95 -162L96 -158V-155Q96 -153 93 -151Q90 -146 89 -146Q83 -146 81 -149Q78 -149 72 -158Q71 -160 68 -160Q66 -163 61 -167Q61 -169 58 -170L57 -173L58 -174L62 -173ZM179 -154Q182 -154 185 -149Q187 -147 187 -146Q184 -141 182 -141Q182 -140 178 -139Q175 -140 175 -143L172 -142Q172 -144 168 -144L165 -147Q169 -152 176 -152Q176 -153 179 -154ZM127 -139H129H134L136 -136Q136 -129 131 -125H130Q127 -128 124 -130L120 -131V-134Q120 -135 127 -139ZM179 -136Q190 -132 190 -127L191 -126Q191 -122 186 -118Q183 -118 177 -124L172 -127Q170 -127 167 -129Q165 -129 165 -130V-131Q165 -133 179 -136ZM133 -112Q135 -112 139 -109Q142 -108 145 -105L149 -106H150V-107Q147 -107 146 -110L147 -111V-112Q145 -113 144 -119V-120Q145 -121 145 -123V-125V-126H144Q141 -121 137 -117ZM50 -123Q50 -122 57 -119Q62 -117 66 -111V-110V-109V-107V-106Q66 -105 65 -105Q65 -101 56 -98H54Q50 -98 42 -105Q35 -109 28 -115Q23 -117 23 -118Q23 -121 28 -121L32 -123ZM197 -113H198Q199 -112 206 -110Q215 -107 215 -104H216L215 -100H216V-99Q214 -95 211 -79V-74V-69L212 -66L211 -63L212 -59V-56Q212 -51 212 -50V-46V-18V-17V-15V-3V0Q210 13 206 18L199 25L196 22V17L197 14L196 12H197Q194 7 193 7L190 2L183 -4L182 -5V-6L183 -7L184 -6L186 -7H188L190 -5L191 -6L192 -4H193L194 -6V-7Q194 -13 195 -13V-14Q195 -21 194 -23L195 -26L194 -28L195 -33L194 -36L195 -40L194 -42L195 -44L194 -47V-48V-51V-53V-54V-55Q195 -57 195 -62L193 -67L194 -68V-72V-75V-77L193 -100L190 -99H189H187Q185 -96 180 -95L177 -94Q177 -92 174 -92Q174 -91 171 -91V-90L172 -88V-82V-78V-76L171 -73L172 -72L182 -78H186Q187 -77 190 -77L191 -74V-73Q191 -69 182 -68Q176 -64 172 -64Q172 -63 171 -63V-57L170 -53L171 -51Q169 -51 169 -50V-49Q169 -48 171 -48Q175 -51 177 -51Q177 -53 187 -54Q191 -52 191 -49Q190 -45 183 -45Q181 -42 177 -42Q174 -41 174 -40L173 -39Q171 -41 169 -41Q167 -32 164 -23Q163 -20 163 -17Q161 -15 158 -8Q152 2 142 13L135 19Q134 19 134 18Q134 17 143 8Q149 0 151 -8Q152 -9 153 -14L154 -15V-17L155 -20V-24L158 -37V-38L159 -66L160 -69V-70V-72L159 -77L160 -79Q160 -81 155 -93V-94Q157 -97 161 -97Q161 -96 163 -95Q180 -101 194 -112ZM82 -99V-97Q82 -90 77 -84L70 -69V-68L66 -56Q66 -52 64 -48V-46V-44V-43V-42Q64 -35 68 -31Q68 -27 72 -21Q72 -18 73 -17Q68 -8 64 -8H61Q56 -8 54 -18L47 -31Q47 -32 41 -41L40 -45L41 -46H45Q47 -44 50 -44Q51 -44 53 -50Q56 -52 59 -59Q63 -63 64 -64L63 -66Q66 -67 69 -77Q71 -77 71 -80Q72 -80 74 -85Q75 -85 75 -87Q77 -87 77 -93Q78 -93 79 -96Q80 -96 81 -99ZM116 -81L117 -79L116 -77L117 -75Q125 -80 126 -80Q127 -80 129 -82Q131 -82 131 -85Q131 -86 132 -88V-90H131L118 -85Q116 -85 116 -81ZM129 -63L130 -59L129 -57L130 -54L129 -49H130Q135 -49 136 -55Q137 -55 137 -58V-62L139 -64V-65L138 -66Q133 -63 129 -63ZM110 -51V-48V-47L111 -41H113Q114 -43 121 -44V-45L120 -47L121 -49L120 -51L121 -57L120 -58Q112 -54 110 -51Z"/>
</svg>