<svg xmlns="http://www.w3.org/2000/svg" viewBox="0 -256 256 256">
	<path fill="#000000" d="M149 -187H155Q156 -186 156 -185H157L158 -186H159L169 -184L181 -182Q182 -180 182 -178V-177L178 -169Q178 -165 177 -165V-162H180H184Q187 -165 190 -165L191 -166H196Q198 -166 200 -167Q203 -167 214 -163L215 -160V-159Q213 -155 209 -155L208 -153H202L200 -155Q200 -153 198 -153H192Q186 -153 174 -149H172Q167 -149 166 -149Q164 -145 152 -145H151L147 -143H146Q141 -140 136 -140Q135 -139 132 -138Q127 -141 125 -146L123 -145L122 -147V-148Q122 -149 124 -149H126Q126 -150 128 -150L131 -149L134 -150Q137 -152 148 -153H150Q150 -155 154 -155Q156 -156 156 -162L155 -166L156 -167Q154 -168 154 -169V-172L153 -175L154 -177H153L151 -176Q150 -176 150 -179Q147 -180 147 -182L149 -184L148 -186ZM74 -171L82 -166H83Q85 -165 85 -164H88Q92 -164 94 -161V-159L95 -155Q93 -147 92 -147L93 -144Q92 -130 91 -130L92 -127L90 -124L92 -122Q92 -121 89 -118V-117L91 -118L93 -117L96 -121Q96 -122 99 -124V-125L98 -126Q100 -126 102 -132Q104 -132 105 -140L103 -141V-143L106 -145Q115 -141 121 -138Q124 -138 124 -133L125 -131V-130Q125 -129 110 -124Q109 -122 101 -120Q101 -118 92 -114Q89 -114 89 -113V-112Q91 -112 91 -109L90 -108V-107L91 -106V-105L89 -103L90 -102V-99Q90 -97 88 -96L89 -92L88 -84Q94 -80 98 -80L99 -79L101 -80L105 -77H106Q109 -76 109 -73Q112 -73 115 -69V-68L117 -66V-65H116L118 -62V-58Q118 -53 111 -50H110Q102 -56 102 -59L103 -60V-61Q100 -61 96 -70Q90 -75 90 -78H87Q86 -71 79 -60Q73 -47 61 -35Q59 -35 58 -31Q56 -31 45 -20Q36 -14 30 -11H29V-12Q29 -14 41 -21L51 -31Q56 -37 61 -45H63L62 -47Q63 -49 65 -49V-50L64 -51L67 -54L65 -55Q65 -56 69 -56L67 -58V-59Q67 -60 69 -60H70V-62L73 -68V-69V-70L74 -73L73 -76Q74 -83 76 -87H77L76 -89Q76 -91 79 -92L76 -94L77 -98V-100L78 -102L77 -104Q77 -111 79 -111Q78 -113 78 -115H79V-116L78 -117V-125L77 -128L79 -130L78 -133L79 -135L77 -139V-141V-144L78 -148Q77 -148 75 -155H76L75 -158V-161Q74 -161 74 -162L75 -165H74L73 -164H72L69 -167Q69 -171 74 -171ZM185 -139Q187 -137 194 -136L200 -133Q202 -131 202 -130V-127Q200 -121 196 -121Q192 -115 191 -115Q190 -115 190 -113Q188 -113 187 -109Q191 -109 191 -104Q191 -101 183 -99L179 -100L177 -99H176L174 -100L172 -98L170 -99L166 -96L164 -97L160 -96H158Q158 -95 155 -95Q151 -91 148 -90L146 -89V-88L147 -86Q145 -85 142 -84L140 -86L141 -87L139 -90L140 -92V-93L137 -99V-100L138 -102L137 -104H138V-106Q137 -107 135 -113V-115Q133 -115 133 -122Q131 -122 131 -125L132 -126Q136 -126 139 -123L141 -122H142Q142 -123 145 -123L146 -126L151 -125Q153 -127 159 -127Q159 -128 163 -129Q163 -131 170 -131Q175 -135 178 -135Q179 -137 180 -137L183 -136V-137Q183 -139 185 -139ZM52 -128Q65 -115 65 -106V-105Q65 -104 63 -104Q66 -103 66 -100V-99L64 -96L65 -95V-94Q65 -92 64 -92L65 -90L62 -83L58 -80H52Q51 -80 50 -85Q49 -85 49 -89L47 -90Q47 -91 49 -92V-95V-96Q49 -97 51 -98V-100V-101V-102V-104L52 -105V-106L51 -107V-108L52 -111L51 -113L52 -114V-115V-117V-120V-124L51 -126V-127ZM146 -117Q146 -116 149 -115V-108V-103V-101L151 -100H152H153H155Q156 -100 156 -102H157L159 -101L160 -103H161Q162 -103 162 -100H163L165 -105Q172 -107 173 -108L174 -111V-115L175 -121L174 -122V-123L176 -125V-126L175 -127H173Q172 -126 165 -123Q164 -122 155 -121Q155 -120 150 -119ZM144 -93V-92Q144 -91 146 -91L147 -93ZM200 -92Q205 -92 210 -88Q213 -86 214 -86H219Q226 -84 226 -81Q226 -76 223 -70Q220 -61 217 -36L218 -34V-30V-28Q215 -27 212 -9Q204 4 199 8Q197 10 193 12H192Q191 12 191 10L192 6L191 3V2Q191 1 192 1H193V0Q189 0 187 -6Q185 -7 184 -11Q175 -14 175 -15Q175 -17 177 -17Q179 -17 186 -14H191Q193 -14 193 -18L194 -22L195 -23V-24V-27L196 -31V-32Q196 -34 197 -34L196 -35L197 -42V-43V-45V-47L198 -49V-50L197 -52Q198 -53 199 -58V-61V-68L200 -74Q198 -77 198 -78H196L191 -80L188 -78H187Q180 -78 179 -77H177Q177 -76 170 -76Q170 -75 168 -74L167 -75Q158 -73 157 -72L155 -73Q155 -72 142 -68L140 -67H138Q134 -65 133 -65L131 -66H130L129 -65L132 -61V-60L130 -59L132 -56H131V-55L132 -47V-45L133 -43V-40V-35L134 -34V-32Q134 -25 136 -23L134 -21L135 -19V-18L136 -11L135 -10L136 -8L135 -6L136 -4Q133 4 130 4H129H128Q127 4 124 -6L122 -10Q124 -10 124 -17L125 -18V-19Q123 -22 123 -23L124 -24L123 -29L125 -30V-31L124 -32V-37L123 -41L124 -43V-44Q124 -45 123 -45H122L124 -47L121 -50L122 -53Q120 -54 120 -55L121 -59V-61Q120 -61 120 -62L122 -65Q119 -65 119 -66L120 -68Q117 -71 117 -73L118 -74H119Q126 -70 126 -67L128 -66Q129 -68 129 -69L128 -71V-72Q130 -72 130 -71Q138 -75 143 -75Q143 -76 154 -78L156 -80H157L159 -79Q168 -84 171 -84L173 -85L176 -84L178 -86L180 -85H182Q182 -87 185 -87Q188 -89 196 -90Q196 -91 200 -92ZM181 -68Q192 -63 192 -59V-57Q183 -49 183 -45L186 -41V-40Q186 -38 178 -37L175 -38L172 -35L169 -36Q157 -34 157 -32Q156 -32 156 -31V-27L153 -23H151Q146 -27 146 -36V-38L145 -40V-41L146 -44Q145 -44 144 -45L145 -48Q142 -48 142 -53L141 -54V-55L142 -56V-57Q140 -57 140 -58V-59H141H142Q143 -59 147 -57Q149 -58 151 -58L153 -59L155 -60L157 -59L160 -61H161L162 -60Q162 -63 168 -63Q169 -66 172 -66L174 -65L177 -68H178L179 -66H180Q180 -68 181 -68ZM170 -58H168Q164 -56 162 -56L161 -55H157Q155 -53 154 -53Q154 -51 156 -49L155 -40Q155 -37 158 -37Q162 -39 169 -41Q171 -41 173 -53L175 -54L174 -56V-59L173 -60Q171 -58 170 -58Z"/>
</svg>