<svg xmlns="http://www.w3.org/2000/svg" viewBox="0 -256 256 256">
	<path fill="#000000" d="M146 -196H148Q155 -196 161 -189Q163 -189 166 -182V-181Q166 -179 160 -168L159 -166H161Q162 -167 166 -167Q172 -169 174 -171H175L179 -169Q182 -167 182 -166Q179 -158 170 -158H163L161 -156L159 -158L157 -157H155Q152 -155 152 -151Q139 -134 138 -134Q128 -127 128 -126H127H126V-128Q132 -135 132 -139Q133 -139 134 -144H135V-147L136 -149Q135 -149 128 -155V-157Q128 -158 130 -158H132L139 -160L140 -158H141Q141 -162 144 -173V-174Q143 -186 139 -186V-188Q139 -189 146 -196ZM82 -179Q85 -176 94 -173Q94 -171 100 -169L103 -165V-162V-160Q102 -160 102 -156L101 -155L102 -152L101 -147L103 -146L108 -149H111L112 -148V-147Q110 -145 102 -141L101 -139L102 -137L100 -126L101 -123Q99 -118 96 -118V-117Q97 -115 100 -115Q103 -117 107 -117Q110 -116 110 -114Q110 -109 102 -108Q101 -107 96 -106L95 -104Q96 -103 97 -96H98Q99 -98 105 -99Q111 -102 114 -102Q117 -102 119 -100V-99Q119 -94 100 -90V-89L102 -85V-84Q102 -82 98 -78Q98 -75 94 -71V-70V-68H95Q104 -70 104 -71L106 -72H108Q110 -72 110 -68Q110 -67 102 -65V-66Q100 -64 94 -63Q94 -62 90 -62L87 -59V-58Q89 -55 89 -52Q90 -52 94 -50L101 -53H103Q103 -54 105 -55L106 -54L110 -55Q113 -55 113 -54Q112 -49 110 -49L109 -50L99 -46Q97 -45 89 -43V-30Q89 -13 81 -13L80 -12Q78 -12 78 -17L79 -18L78 -27V-32V-33V-35V-36L77 -38Q74 -36 71 -36Q70 -34 63 -32Q63 -31 53 -26L48 -23Q40 -29 38 -31V-32Q50 -35 57 -38Q60 -38 62 -40L69 -42Q72 -44 77 -44L78 -45L77 -50L78 -54Q78 -55 76 -55Q72 -53 63 -50L62 -49H60Q56 -52 53 -53V-54Q53 -55 63 -58Q63 -59 65 -59V-61V-65V-67L66 -69Q64 -76 63 -76Q61 -75 58 -75Q57 -73 49 -71Q48 -69 43 -68L41 -66Q33 -72 33 -75Q34 -76 47 -79Q48 -79 50 -81L67 -86Q69 -86 71 -88Q81 -89 81 -93V-95L78 -97Q72 -94 70 -94L68 -97L64 -102V-103Q64 -104 69 -104Q69 -105 78 -107L79 -108Q79 -118 77 -122V-123L78 -125Q84 -122 88 -122L89 -123Q86 -130 86 -131H85L69 -122L65 -120H61L57 -126L53 -130V-131Q53 -132 57 -132Q61 -136 69 -136Q69 -138 82 -141Q83 -144 83 -146Q83 -148 81 -152Q80 -159 72 -171Q72 -175 80 -179ZM134 -122H137L144 -117V-116V-111V-110L143 -106L146 -104Q149 -107 153 -107Q155 -109 160 -110L166 -115H167L173 -109Q178 -108 178 -105Q178 -102 169 -91L164 -72Q164 -67 163 -64Q163 -56 168 -50Q172 -45 174 -45Q182 -42 197 -40H202L207 -42Q211 -49 213 -55L215 -66H217Q218 -66 218 -60V-56V-53L217 -50L218 -46Q218 -44 216 -43Q218 -36 222 -31V-29Q214 -25 209 -25Q208 -24 200 -23H193H189H185H183Q182 -24 173 -27L164 -35Q155 -43 155 -49Q154 -49 153 -54L154 -55V-56Q152 -60 152 -71L154 -77V-79Q154 -86 156 -90L159 -95L158 -99L160 -101L159 -103Q156 -100 146 -95L141 -93Q141 -88 138 -75V-72Q139 -71 144 -69L146 -70L150 -65V-63Q150 -62 145 -59Q144 -58 142 -58H141Q140 -60 134 -60Q131 -54 128 -51Q128 -48 124 -44Q124 -42 119 -38Q117 -34 105 -26Q103 -26 96 -21L95 -23Q95 -24 98 -26Q104 -28 116 -42L121 -53V-54V-55Q123 -61 124 -62V-63Q123 -64 118 -67L115 -68V-70Q115 -71 122 -72Q122 -73 127 -74Q128 -79 129 -80L130 -86H129Q128 -86 120 -93V-95L128 -98L132 -101V-103V-104V-106V-112Q128 -116 128 -117Q128 -120 134 -122ZM68 -78Q71 -76 74 -70L73 -66L74 -63H77L78 -62Q80 -63 84 -65L87 -69L90 -80L89 -82V-83Q90 -85 90 -86H89Q87 -85 81 -84Q81 -83 75 -81L69 -79ZM133 -22H135L141 -15Q142 -15 145 -6V-5H144H145V-3L142 6Q140 12 134 12L130 6V2V1Q132 -2 132 -3V-10Q133 -14 133 -18L132 -20ZM164 -20Q174 -20 185 -12L192 -3V4Q192 9 183 13Q179 13 177 7Q175 5 174 -1Q171 -1 168 -11L163 -18ZM107 -19H108Q109 -19 112 -12Q113 -12 115 0Q113 2 113 8Q110 13 107 13L105 15Q101 13 99 7L102 0Q103 -7 105 -8L106 -13L105 -16Q105 -18 107 -19ZM65 -15Q69 -9 71 -4Q70 17 64 18L57 20Q54 18 54 14Q56 4 60 -3Q62 -15 65 -15Z"/>
</svg>