<svg xmlns="http://www.w3.org/2000/svg" viewBox="0 -256 256 256">
	<path fill="#000000" d="M151 -177Q164 -173 164 -170Q164 -166 162 -163Q162 -162 164 -162V-161L162 -157H163L167 -158L170 -157Q170 -159 180 -164Q180 -165 185 -167H186Q187 -167 199 -160Q203 -156 203 -154V-152Q203 -147 194 -144Q191 -139 182 -134Q178 -129 172 -129L164 -127L162 -128Q159 -125 159 -122L160 -120Q158 -111 156 -111V-110L158 -108Q151 -102 143 -99Q132 -91 129 -91L120 -102V-104L135 -107L140 -108H142Q142 -109 145 -109V-108L146 -110V-122L145 -123L137 -120Q133 -120 132 -115Q131 -115 129 -112Q126 -114 123 -126L115 -151L116 -152H117L123 -147Q130 -147 145 -151Q148 -151 148 -156H149L148 -159V-161Q146 -170 144 -172V-174Q145 -177 151 -177ZM67 -158H68Q71 -155 75 -154L77 -153Q82 -151 83 -150V-144L82 -140L83 -135L82 -133L83 -129V-125L82 -119V-118V-116Q81 -114 81 -112H82Q91 -118 91 -122Q93 -122 94 -127L96 -129Q96 -134 92 -134V-135V-137Q93 -139 95 -139Q97 -137 101 -137L104 -138Q111 -135 112 -131L113 -128V-127Q113 -124 107 -122Q107 -120 98 -118Q95 -115 87 -112Q87 -111 81 -108V-105L80 -103L81 -100Q79 -97 79 -84L78 -82Q83 -79 84 -79L86 -80L88 -79H90Q97 -75 101 -71Q105 -63 105 -62V-61Q103 -59 103 -57V-56Q103 -53 98 -53Q94 -56 91 -63Q89 -63 87 -69Q83 -72 80 -77V-78H79V-77H78L77 -78V-77Q77 -69 74 -62Q73 -55 59 -34Q41 -15 35 -11L33 -10H32V-11L46 -23L53 -34Q56 -40 59 -50Q60 -50 60 -54Q64 -56 66 -81L65 -85L67 -89L66 -91L68 -110V-113Q68 -121 69 -135L68 -138V-140Q68 -146 64 -150L62 -152Q63 -154 67 -158ZM162 -140V-135L163 -134H164Q172 -135 172 -137Q172 -140 176 -148V-149V-153H174Q164 -150 163 -150ZM131 -142L133 -140L132 -139L133 -135V-130Q133 -127 135 -127Q145 -128 147 -130Q151 -130 151 -131Q147 -133 147 -136L148 -139V-146L146 -147L131 -142ZM170 -125Q175 -122 177 -122L183 -119Q188 -116 188 -112V-108Q188 -101 181 -99H180Q176 -104 176 -108Q172 -113 172 -116V-117L168 -124ZM50 -122L55 -116V-113Q59 -110 59 -106V-105H60L59 -103L60 -97Q60 -93 57 -86Q51 -78 49 -78H48Q44 -81 44 -85V-86L45 -88V-91Q45 -95 46 -95H45V-98Q46 -102 48 -112L47 -114Q48 -114 48 -120L49 -121Q49 -122 50 -122ZM181 -97Q181 -96 189 -96Q189 -95 193 -95L195 -91V-90Q195 -89 192 -89V-86L193 -85H194L204 -91L208 -92Q222 -88 222 -85Q223 -85 223 -83Q222 -78 219 -77Q218 -77 215 -73Q208 -67 208 -63Q208 -62 203 -62V-59Q208 -58 208 -54Q208 -53 204 -51H201L198 -50L194 -51L190 -49V-45V-42V-41L189 -38V-36L188 -32V-31L190 -29H191Q197 -31 200 -31L202 -33V-34Q198 -38 198 -42L197 -43L199 -44Q212 -41 217 -33L223 -21L224 -14Q224 -6 214 1H212Q209 1 209 -11Q208 -11 207 -17L204 -24L205 -26Q204 -28 203 -28Q197 -24 195 -23Q190 -18 188 -18H186Q186 -15 181 -13Q178 -10 173 -8Q173 -6 168 -3Q157 -9 157 -14Q156 -14 155 -18H154L151 -15Q146 -16 146 -23V-24H147Q145 -29 144 -29H143Q138 -26 137 -26Q135 -22 130 -20V-19L128 -18Q128 -17 127 -17H124L122 -14Q121 -14 109 -4Q108 -2 106 -2H105Q99 -5 94 -13V-15Q94 -17 103 -18Q103 -19 110 -20Q110 -21 115 -22L116 -23H118H119Q119 -25 127 -27L126 -29V-34Q127 -34 127 -41Q127 -45 126 -45H123L121 -44L118 -45V-44V-43L119 -41L118 -36V-35L117 -34Q114 -34 114 -44L111 -54L112 -56L110 -60L111 -63Q109 -63 108 -71L109 -72H110L113 -70L116 -72H117Q127 -72 127 -75Q124 -83 122 -86V-87L123 -89H124Q126 -89 131 -85Q136 -85 137 -79V-78V-76H140Q141 -77 146 -78Q146 -82 149 -82Q153 -81 156 -77H158V-76Q158 -74 154 -74Q154 -71 151 -68L144 -56H142V-55V-54L143 -55H147L148 -54L145 -50L144 -51L142 -50H140Q140 -49 135 -48L133 -43L134 -41L133 -40L134 -36L132 -32Q133 -29 134 -29H135Q136 -30 142 -32H144V-33V-34L141 -41L143 -43H144Q151 -39 155 -32Q156 -32 157 -28L158 -27Q157 -23 155 -20V-19Q156 -19 163 -20Q163 -21 166 -21Q168 -23 170 -23H175Q176 -23 176 -27Q178 -27 178 -31L180 -35L179 -38V-41L180 -42L179 -44L180 -47H179L174 -43Q173 -45 171 -45Q168 -40 165 -40H164Q163 -40 163 -41L164 -45Q163 -45 163 -48V-51L161 -58L162 -63L161 -65V-66V-68Q159 -71 159 -77H160H161Q163 -75 164 -75H165Q167 -78 174 -78Q174 -79 180 -81L181 -82Q181 -86 177 -93V-94Q177 -97 181 -97ZM192 -79V-78L193 -76L190 -57L194 -56Q195 -57 197 -66Q198 -66 199 -73Q201 -73 201 -75L200 -77L202 -80L200 -81Q198 -79 192 -79ZM168 -70Q171 -68 172 -55H173Q175 -55 177 -62L176 -72L173 -73Q168 -71 168 -70ZM135 -65V-63L134 -61Q135 -59 135 -58V-57L134 -54L135 -53H136Q138 -53 140 -59V-65L144 -69Q143 -71 142 -72H140Q136 -72 136 -69ZM121 -69L119 -67L117 -68L116 -67V-66Q118 -66 118 -65V-64V-57V-56Q119 -50 120 -50H121Q125 -50 126 -54L127 -56L126 -60L127 -69H123Z"/>
</svg>