<svg xmlns="http://www.w3.org/2000/svg" viewBox="0 -256 256 256">
	<path fill="#000000" d="M180 -189H183Q199 -178 202 -178L207 -173V-167Q204 -160 204 -148H205V-147L204 -145L205 -142L204 -139L203 -126L204 -125L203 -114L205 -94L204 -90L205 -64V-63L206 -61L205 -58L206 -45V-42L207 -31V-25L206 -23L207 -21V-19Q207 -10 202 -1Q202 5 190 13H189Q184 10 182 6V4Q182 -3 180 -5V-6Q178 -10 176 -16L173 -21V-22L174 -23H177L180 -22Q182 -26 182 -35V-36V-38V-41V-45L181 -46V-49V-50L180 -57L181 -59L180 -62V-67L179 -86L180 -87V-90Q180 -94 181 -96L180 -100L181 -102L180 -105V-117V-119V-125V-128V-135V-154Q177 -154 177 -155L178 -159Q178 -162 177 -166V-168L176 -172V-173L174 -176H170H168H167L162 -175Q162 -176 160 -177Q160 -176 158 -176H151Q135 -172 128 -171Q128 -170 124 -170Q121 -168 118 -168L117 -167H113H112L110 -166L106 -167Q106 -166 104 -165H103L101 -164L97 -165Q97 -162 87 -161L86 -162Q80 -158 77 -158Q76 -157 74 -157H72L70 -155Q70 -154 72 -154V-153V-147Q72 -135 69 -135H70V-132L71 -126L70 -124L72 -116V-110L71 -106V-103L72 -101L71 -97V-96L72 -90H71L72 -82Q71 -80 70 -79L72 -76Q72 -68 71 -66Q72 -66 72 -63V-50V-44V-42V-40V-37V-35V-34V-32V-27V-23V-20V-19V-18V-16Q72 -15 73 -15L77 -17V-16L86 -18Q89 -19 95 -19Q95 -20 105 -21Q105 -23 126 -24Q126 -25 131 -26H132Q139 -27 140 -28L141 -27L143 -28H145V-27L148 -28H155L161 -30L162 -29L165 -30Q172 -28 172 -25Q170 -21 167 -21L161 -22L159 -21H158L157 -22L147 -20H139L135 -18L115 -14L108 -13Q103 -13 95 -9L85 -6Q82 -10 80 -10L71 -14V-13Q71 -6 66 -2L61 4H59Q58 4 57 -1Q54 -4 54 -8Q52 -8 52 -21L54 -26L53 -27V-29L54 -31V-32L53 -36Q54 -36 55 -48Q56 -48 56 -50V-51L57 -58L56 -60V-73L55 -77L57 -81L55 -89Q55 -90 56 -95V-98V-101L55 -105V-107L56 -108V-109L55 -112L56 -117V-119L54 -121V-128L55 -133L54 -137L55 -141L54 -145V-147V-150V-153Q53 -153 52 -160Q50 -160 49 -166L51 -168H52Q59 -162 62 -160Q62 -163 63 -163H67L74 -165H76L79 -166L80 -165H81Q81 -167 85 -167Q85 -168 89 -169L91 -171H92H93L97 -172H99Q107 -175 111 -175L112 -176H113H116L120 -177V-176H121Q122 -177 129 -179Q129 -180 136 -180H139Q142 -182 144 -182H148L152 -184V-183H153L165 -186L169 -185Q180 -187 180 -189ZM110 -153Q114 -150 121 -149Q125 -145 125 -142H126Q128 -144 136 -146L138 -148H144Q150 -144 154 -141Q150 -135 144 -135Q144 -134 139 -133L130 -129L126 -128Q123 -128 122 -126L123 -125L121 -118H122V-117L121 -115V-111L120 -104V-99H121L126 -102H127Q127 -103 133 -105L134 -106H136L138 -112H137L138 -117L136 -121Q138 -124 139 -125H140Q142 -122 153 -117Q157 -115 157 -114V-111L151 -102Q151 -100 148 -97Q142 -84 141 -84L137 -81H135L134 -83V-86Q135 -95 137 -99L136 -100Q134 -97 129 -96L119 -90V-85L118 -75Q118 -74 120 -74V-73V-72Q120 -65 126 -59Q127 -56 135 -56V-55Q143 -56 145 -57H146Q169 -60 169 -62H170L177 -53V-51Q173 -45 170 -45Q166 -43 155 -41H153L151 -40L150 -41L146 -40L142 -41L141 -40H136Q126 -41 121 -46Q113 -53 113 -57L110 -70V-72L109 -76H110L109 -79V-81Q108 -83 108 -84Q102 -81 100 -79Q98 -79 93 -74Q91 -74 84 -66H83H80Q78 -66 78 -77Q81 -81 81 -86L83 -87L82 -88Q84 -93 84 -100L83 -104V-108L85 -109L93 -105Q95 -105 98 -97V-94Q97 -92 97 -89H98Q99 -90 107 -92Q109 -92 111 -108L110 -112V-115L111 -122H110L104 -120H102Q102 -117 95 -117H94Q88 -124 86 -124L85 -125V-126Q85 -127 90 -129L94 -130Q94 -131 101 -132Q103 -134 110 -136V-142L107 -150Z"/>
</svg>