<svg xmlns="http://www.w3.org/2000/svg" viewBox="0 -256 256 256">
	<path fill="#000000" d="M102 -176Q113 -169 120 -167L123 -168L125 -161V-154Q119 -146 114 -146H110Q92 -130 92 -129Q86 -125 86 -123Q91 -117 93 -117L95 -114H97L100 -111V-110L99 -107Q100 -107 100 -104V-102V-100V-97V-94L99 -92L100 -90Q99 -89 98 -83L99 -80V-77H98H99V-72L97 -65L99 -62L97 -58L98 -55V-54L96 -41L97 -40V-39L96 -37L97 -36L96 -31L97 -29Q97 -24 93 -16Q91 -12 88 -10H86Q84 -10 81 -19Q80 -19 79 -27V-32L78 -34Q78 -36 79 -37L78 -40L83 -60L82 -61V-62L83 -63L82 -67L84 -71L82 -72L83 -80Q83 -82 82 -82L83 -85V-86L82 -88V-90V-95H83V-96Q82 -96 82 -97V-98L83 -99L82 -102L83 -104Q82 -104 82 -106V-107L83 -109V-116L81 -117L82 -122H80V-121V-120Q76 -114 71 -111Q71 -109 69 -109L64 -104Q41 -86 30 -79H29L28 -80Q28 -81 30 -81Q30 -82 38 -88Q51 -98 62 -113L61 -115Q65 -115 69 -121L71 -122L70 -124Q73 -125 81 -139Q82 -139 83 -142Q84 -142 86 -147L90 -154Q95 -160 95 -162Q93 -162 91 -170Q91 -174 101 -176ZM208 -172L213 -168L216 -169Q216 -164 224 -163L228 -158V-155Q224 -145 215 -145Q215 -143 210 -138Q210 -135 206 -135Q206 -134 204 -131Q204 -129 198 -126Q198 -124 195 -121Q195 -120 190 -116Q190 -114 189 -113L190 -112Q193 -112 201 -107L202 -108H203Q204 -108 204 -104H205H206Q215 -101 215 -95Q217 -90 217 -81Q217 -70 214 -53V-52Q213 -51 213 -48V-45Q212 -45 211 -39L206 -28Q201 -14 191 -8Q191 -7 185 -4L178 0Q176 0 176 -3V-8L174 -17Q171 -20 170 -24Q166 -29 163 -31V-33H164L173 -29Q181 -25 184 -25Q184 -30 189 -38Q196 -51 197 -59Q198 -59 199 -68L200 -69L199 -71V-73V-78V-81V-82L198 -84V-86V-88L196 -95L193 -97V-99V-100Q190 -100 187 -104Q183 -104 183 -105V-108Q183 -111 187 -119Q187 -122 191 -135Q191 -137 194 -141Q194 -148 197 -150Q195 -150 195 -152L196 -153V-154Q196 -155 195 -155Q192 -153 186 -151L172 -146L159 -140V-139Q163 -136 163 -135Q169 -128 172 -128Q174 -128 176 -126Q176 -122 168 -117Q166 -115 163 -108Q159 -101 157 -97Q145 -77 143 -77Q139 -70 122 -53L105 -38L104 -39V-40L111 -47Q118 -55 119 -59Q121 -59 121 -63Q123 -64 125 -69Q130 -75 135 -85Q139 -94 141 -94V-96Q143 -99 144 -104Q145 -104 146 -110Q148 -110 150 -120Q152 -124 153 -124H152V-126L153 -127Q150 -129 150 -134Q146 -134 146 -135Q145 -135 144 -132L139 -130H138L126 -137Q126 -139 124 -140Q124 -141 127 -143H129L136 -144L137 -143Q137 -144 150 -146H152L155 -147L157 -146H158Q163 -149 178 -153H183Q183 -154 193 -158L197 -162Q199 -162 203 -167Q204 -171 208 -172Z"/>
</svg>