<svg xmlns="http://www.w3.org/2000/svg" viewBox="0 -256 256 256">
	<path fill="#000000" d="M157 -194Q158 -194 166 -188L168 -189Q174 -189 174 -185Q177 -183 177 -180Q176 -179 175 -175L176 -172L174 -168L175 -165V-163V-161L174 -159L176 -157L175 -149H176L190 -156H191Q197 -156 203 -153Q203 -151 205 -150V-149Q205 -142 197 -141Q191 -141 181 -136Q177 -135 174 -133L176 -131Q176 -124 177 -120V-119V-118Q179 -115 180 -108Q181 -108 182 -101H181Q183 -99 184 -93Q186 -95 188 -102Q189 -102 189 -107V-112L188 -115V-116Q188 -118 194 -118Q197 -114 201 -113Q205 -109 206 -106V-105Q206 -104 203 -99Q203 -97 201 -92Q200 -91 195 -86Q195 -84 190 -77Q188 -77 188 -76Q192 -70 192 -67Q193 -67 195 -59V-57Q197 -57 200 -49L209 -32Q209 -30 213 -28Q213 -25 223 -13L227 -18Q227 -21 232 -31Q232 -33 235 -37Q236 -37 236 -33Q234 -33 232 -22V-20L231 -18L232 -16L231 -13Q232 -2 234 -2L236 7V11Q232 18 228 18H226L223 17H221Q217 15 215 9Q213 9 211 4Q210 4 210 2Q207 2 205 -5Q203 -5 203 -9Q201 -9 201 -11L202 -12Q199 -14 199 -18Q198 -18 198 -23Q195 -23 195 -26V-27Q192 -32 188 -45Q186 -45 186 -50H187Q185 -52 185 -55Q185 -56 182 -60Q182 -63 181 -64V-68H180Q176 -61 174 -61Q173 -59 170 -59Q166 -54 159 -50L155 -47Q154 -46 152 -46L151 -44H149L148 -45L160 -56Q162 -56 166 -64Q168 -64 170 -68H171L172 -69L171 -70L177 -80L175 -82V-86L172 -95L173 -99L171 -102L172 -104Q169 -108 169 -114Q169 -115 167 -117V-120Q166 -128 165 -128H164Q162 -126 161 -126H158Q155 -122 149 -119H148Q142 -122 137 -128Q136 -128 134 -130Q127 -132 127 -133V-134Q127 -135 132 -136L133 -137H135Q139 -137 141 -139L142 -138Q146 -141 151 -141L153 -140Q153 -142 161 -143L163 -144V-145L161 -165V-166V-171L159 -173L161 -175Q159 -175 158 -181Q158 -182 155 -185L153 -189Q153 -191 157 -194ZM104 -181H107Q110 -179 112 -176Q118 -168 123 -167L125 -163Q124 -159 122 -159V-157Q122 -156 115 -154Q112 -150 103 -146Q96 -140 94 -140Q94 -138 96 -135V-130L110 -116V-114Q110 -113 108 -112H109V-110Q105 -106 102 -104Q102 -101 98 -99V-98L100 -92L99 -89L100 -86V-85V-74V-73V-70V-64V-60V-58V-54V-48V-46Q100 -36 98 -31Q94 -18 87 -5Q80 5 77 5H74L73 4V3L74 -1Q73 -7 69 -15L63 -21Q60 -21 56 -24V-25L57 -26L68 -23H69Q69 -22 76 -21Q81 -35 83 -64V-67L84 -74L83 -77L84 -79V-84Q81 -84 81 -80Q77 -77 75 -73L66 -65Q59 -56 53 -52Q51 -52 47 -48L29 -35L25 -34H24Q24 -32 21 -31H20L19 -32V-33Q19 -34 24 -36Q25 -39 28 -39L41 -50L46 -57Q48 -57 55 -65L60 -73Q61 -73 64 -79Q70 -86 70 -89Q74 -92 77 -98Q81 -103 82 -108Q84 -108 84 -110V-111L83 -112V-113L84 -114Q83 -115 83 -120L81 -130H80L61 -117Q60 -117 52 -111L29 -99H27L26 -101Q26 -102 33 -105L43 -111Q51 -117 57 -123Q59 -123 60 -126Q62 -126 68 -133Q69 -133 75 -140Q75 -141 72 -144Q72 -147 68 -147L63 -151V-152Q63 -153 65 -154L72 -152V-153H73L82 -149Q89 -152 98 -166L99 -169Q94 -173 94 -176Q94 -179 104 -181ZM135 -115H136L141 -113Q141 -112 145 -110L147 -111L152 -108L153 -105L150 -104Q151 -102 153 -102Q157 -105 162 -105Q163 -104 167 -102V-100Q165 -96 160 -95Q160 -93 156 -93Q154 -90 149 -89L150 -86Q150 -83 146 -76Q146 -70 143 -59Q143 -53 135 -40Q135 -37 120 -24Q119 -24 118 -23H117H116Q126 -35 126 -37Q128 -41 128 -43Q130 -45 130 -49Q131 -49 132 -50L131 -54L132 -56V-59L133 -66V-69L134 -73L133 -74L134 -77H133V-78L132 -77H131Q130 -80 127 -80Q127 -81 123 -81Q123 -83 118 -84L116 -86V-88Q116 -89 123 -90Q123 -91 129 -93L135 -96V-103L136 -104Q133 -105 133 -109Q132 -109 132 -112Z"/>
</svg>