<svg xmlns="http://www.w3.org/2000/svg" viewBox="0 -256 256 256">
	<path fill="#000000" d="M160 -189Q162 -189 165 -186Q174 -182 177 -182Q184 -179 184 -172V-171L181 -162H182Q183 -163 189 -163Q189 -164 196 -167H200Q207 -162 207 -158Q204 -153 197 -153Q195 -153 188 -150Q181 -149 181 -148Q178 -148 178 -147L179 -144L178 -143V-142V-140V-138V-133V-131V-130Q180 -131 191 -134Q199 -133 199 -128Q199 -124 190 -123L180 -119L177 -117V-115L178 -113L177 -112L178 -106L177 -101Q183 -101 189 -103L213 -109Q223 -108 226 -103V-100Q221 -93 213 -93L210 -95L208 -94L206 -95L205 -94H203L200 -93H199L195 -94Q187 -91 181 -91L180 -90H177V-89V-86Q176 -86 176 -82V-81V-76V-74V-68V-40L175 -34L176 -33L175 -30L176 -29Q171 4 165 9L163 13H161Q160 13 160 10V5L158 0L159 -8L158 -21V-23V-27V-28V-30V-32V-33V-41L157 -53L158 -54L157 -59V-60L156 -67V-68H157L156 -73V-81Q156 -82 158 -84V-85L157 -86Q152 -82 148 -82Q139 -80 134 -77Q129 -76 126 -73H123Q119 -76 112 -79L111 -81Q112 -84 117 -84Q117 -86 137 -90L147 -93Q157 -94 157 -96L156 -101V-104L157 -106Q156 -108 155 -108Q152 -106 144 -104Q144 -103 143 -103H142Q136 -107 130 -109L128 -111V-112Q128 -113 135 -114H137Q137 -117 151 -120Q156 -122 156 -128L157 -131L156 -136L157 -137L156 -139L149 -137L146 -138Q146 -135 138 -133H136L128 -137Q126 -141 122 -141L120 -143Q120 -145 134 -148Q139 -152 152 -153Q152 -154 156 -155V-156Q156 -169 150 -177L149 -179Q153 -186 157 -186ZM103 -168H108Q111 -168 115 -163V-161Q115 -158 110 -157Q110 -155 104 -155Q103 -153 96 -150Q91 -146 84 -143L80 -140V-139L88 -135Q91 -135 93 -131V-120V-119H95Q97 -121 100 -121H101Q109 -121 109 -116Q109 -111 101 -108L93 -103Q91 -100 90 -100V-99L87 -72L88 -70Q97 -75 101 -76L105 -78H106L107 -77Q107 -74 102 -74Q102 -72 98 -70Q97 -65 94 -65Q93 -65 87 -59Q85 -59 78 -52Q66 -45 64 -39Q55 -31 54 -31L50 -29H49Q41 -34 34 -41Q30 -41 30 -44Q40 -48 44 -50Q47 -50 59 -56Q65 -59 65 -60H67L71 -65H70V-67L71 -70L70 -72V-77V-78V-83V-85L66 -84Q58 -86 56 -90Q45 -94 44 -96V-97Q44 -98 55 -100Q55 -103 68 -106Q70 -106 70 -108V-112V-125V-126Q68 -133 67 -133Q65 -130 62 -130Q51 -135 48 -141Q47 -141 45 -144Q38 -146 38 -147Q38 -150 42 -150L44 -149Q48 -149 52 -152Q72 -159 75 -159Z"/>
</svg>