<svg xmlns="http://www.w3.org/2000/svg" viewBox="0 -256 256 256">
	<path fill="#000000" d="M139 -187H143Q147 -183 150 -182L159 -178Q161 -175 161 -173V-172L162 -170V-169Q162 -167 154 -159Q154 -158 150 -156V-155L164 -146Q181 -132 194 -123Q200 -119 204 -117Q204 -115 218 -110L231 -104Q238 -102 238 -101Q238 -99 236 -99L232 -100L229 -99L227 -100Q224 -98 217 -97Q214 -95 207 -93Q202 -90 201 -90Q196 -94 191 -97Q191 -98 181 -107Q176 -110 170 -117Q165 -119 165 -123Q164 -123 152 -137Q151 -137 144 -145H143Q135 -131 115 -109L101 -94Q92 -85 82 -80L81 -81V-82Q93 -92 97 -98Q103 -104 103 -106Q103 -108 109 -114Q109 -115 116 -126Q119 -130 119 -133Q122 -135 126 -145Q129 -146 134 -165Q135 -165 135 -171L131 -176V-180ZM93 -173Q98 -173 103 -166V-163Q103 -157 89 -153L74 -144Q66 -141 66 -138Q73 -137 77 -135L79 -131V-129L77 -124L78 -123L76 -121V-120V-116H77Q80 -117 88 -120Q95 -117 95 -112Q93 -106 80 -101Q76 -97 74 -97L72 -72V-69L73 -65L71 -62V-61L72 -60L85 -67L92 -72L102 -77H103V-76Q103 -74 96 -69L81 -57Q81 -56 67 -44L39 -18L37 -17H34L28 -25Q22 -30 18 -33L17 -35Q22 -39 26 -39Q26 -40 39 -44Q43 -47 47 -48L55 -52L56 -58L55 -63L56 -65L54 -71L55 -73V-75L56 -77L55 -78V-80L54 -83L55 -86H54L47 -81H45Q41 -82 40 -85L31 -90L30 -89Q27 -90 27 -91Q27 -95 33 -95L49 -103L55 -105L57 -106Q57 -110 58 -111V-117V-121L57 -125V-132L56 -134H55Q54 -132 50 -131L49 -129H47Q40 -136 37 -137Q34 -141 27 -145L26 -146Q26 -149 39 -152L66 -162Q73 -165 79 -167L89 -170Q90 -171 93 -173ZM150 -122Q155 -117 169 -113L170 -111Q167 -106 167 -103L168 -101L167 -96V-76L168 -63L167 -62L169 -41L168 -39L169 -37L168 -35L169 -32V-30V-27V-25V-15V-14Q167 3 164 3Q164 4 158 11H157Q156 11 156 9V7Q153 -4 153 -11L154 -13L153 -14L154 -16L153 -20L154 -22L153 -26V-27L152 -30L153 -35L152 -37L153 -43L152 -48L153 -51L152 -54L153 -56L152 -59V-63V-71V-72V-79V-83Q150 -85 150 -87L151 -90Q150 -109 148 -109Q148 -112 145 -117V-119Q147 -122 150 -122ZM123 -110Q125 -108 135 -102Q139 -99 139 -97V-96Q137 -92 137 -82L135 -77H136Q134 -69 133 -65Q132 -64 132 -62V-56Q130 -55 127 -44Q126 -44 125 -37Q125 -34 111 -13Q99 1 95 1Q95 -2 101 -8Q101 -9 106 -15Q109 -26 113 -37L116 -51Q116 -56 117 -58V-61Q121 -78 121 -94Q121 -99 116 -103V-104V-105Q118 -110 123 -110Z"/>
</svg>