<svg xmlns="http://www.w3.org/2000/svg" viewBox="0 -256 256 256">
	<path fill="#000000" d="M156 -174Q166 -170 166 -169H170Q177 -168 177 -162L174 -152Q171 -146 171 -139Q170 -139 170 -136V-133L168 -131V-130L169 -129Q171 -129 182 -135Q189 -137 192 -137Q199 -137 202 -133V-129Q202 -127 191 -125Q185 -122 175 -119L174 -118Q169 -121 169 -122Q166 -122 166 -106L164 -94V-91V-89Q176 -93 177 -95H180L184 -98L197 -95Q198 -92 198 -88Q198 -85 189 -84Q180 -82 172 -78L165 -82H164Q163 -82 163 -79V-76Q162 -75 162 -61V-56Q162 -45 171 -38H178L184 -37Q192 -38 203 -41H204H211L212 -42L216 -45Q216 -46 220 -50Q220 -52 222 -54L224 -62H225L226 -61V-55L227 -51L226 -50Q227 -50 229 -44Q237 -34 237 -33V-32Q237 -29 233 -27Q233 -26 229 -26Q229 -24 214 -20Q210 -20 209 -19H205L201 -18L183 -19L178 -18Q166 -21 162 -25Q161 -27 156 -30Q156 -32 152 -39Q150 -46 150 -49L149 -50L150 -54L149 -57V-58L150 -59L149 -63V-66V-69Q150 -71 151 -76L150 -83V-87L151 -94H150V-95L151 -96L150 -102V-104L151 -106V-108Q152 -112 153 -119L151 -122L153 -131L152 -133L153 -136L152 -137L153 -141V-142Q153 -149 151 -150V-151L153 -153L152 -159V-161L148 -168V-169Q148 -171 156 -174ZM119 -169H120Q122 -166 134 -162Q138 -159 140 -155Q137 -146 137 -139Q137 -132 136 -126V-118L135 -117L136 -116L135 -112L136 -108L134 -98L135 -95L134 -81L135 -77Q132 -77 130 -68L126 -56Q125 -56 125 -54Q124 -54 121 -48Q115 -36 104 -26Q84 -8 76 -2L75 -1H74L73 -2V-4Q81 -12 87 -15Q100 -29 107 -43Q107 -45 112 -56Q115 -63 115 -68Q116 -68 117 -71V-75L118 -79Q118 -81 117 -82H116Q102 -68 101 -67H98Q93 -70 91 -72H88Q79 -67 74 -61Q71 -61 62 -53Q49 -43 39 -32Q37 -29 35 -29Q32 -29 23 -37Q22 -37 18 -42Q18 -45 26 -48Q26 -49 33 -50Q36 -54 46 -58L55 -63L54 -66L55 -72V-77L54 -85L55 -86L54 -88Q53 -88 45 -81Q43 -81 39 -86L34 -89Q34 -92 29 -93L28 -94V-95Q28 -96 36 -98Q36 -100 45 -103L55 -107L54 -111L55 -113Q53 -131 52 -131Q49 -131 48 -129H45L27 -144Q27 -148 35 -149L54 -156L59 -158Q62 -158 70 -161L88 -167L91 -166H93Q99 -164 99 -161Q99 -152 93 -152Q78 -147 76 -145Q76 -144 67 -140Q66 -140 63 -137Q57 -135 57 -134Q57 -133 58 -133H59Q72 -128 74 -125V-124L72 -117Q72 -116 74 -116L76 -117Q87 -117 87 -111Q87 -108 78 -104Q72 -100 72 -98V-96Q72 -82 70 -74Q71 -72 72 -72L81 -77Q82 -77 87 -81Q89 -81 94 -85H97L98 -84L92 -77Q94 -77 108 -86Q115 -92 118 -92L119 -93V-94L118 -98Q119 -103 120 -104V-106L119 -108Q120 -110 120 -112L119 -115L120 -119V-121V-126V-130Q120 -145 116 -149V-150L117 -154V-156Q117 -161 112 -161Q111 -161 111 -164Q115 -168 119 -169ZM100 -124Q109 -124 115 -121L117 -118V-116Q114 -110 109 -108L94 -119L93 -121Q93 -122 100 -124Z"/>
</svg>