<svg xmlns="http://www.w3.org/2000/svg" viewBox="0 -256 256 256">
	<path fill="#000000" d="M120 -197L122 -195V-194L121 -193Q121 -192 124 -191Q126 -189 128 -184H129H131Q131 -183 144 -180L146 -176V-174L143 -164Q143 -162 139 -158H140V-153H142L146 -155H147L154 -157Q161 -154 164 -151Q167 -151 168 -147Q167 -138 162 -138Q162 -136 157 -136Q154 -133 151 -133Q150 -130 140 -127Q134 -125 134 -108Q134 -106 132 -98L130 -91H131Q131 -95 145 -96Q147 -98 152 -99H153H155H156H162L173 -101V-102L176 -101L182 -103V-102H183Q183 -104 195 -107Q207 -100 207 -97V-95Q204 -91 202 -91Q200 -91 198 -93L197 -92H189L187 -94L181 -93L180 -94H179L177 -93H173Q173 -92 168 -91L164 -92Q136 -88 136 -86Q134 -86 133 -85H132Q131 -85 131 -86L129 -85V-84Q129 -83 132 -82Q132 -79 139 -78Q143 -75 145 -72V-71Q143 -69 143 -67L144 -66H145L147 -68H152H155Q156 -66 165 -64L166 -60Q163 -56 160 -54H158Q158 -53 154 -53L142 -47Q141 -44 141 -43V-41Q141 -34 139 -31L140 -29L139 -23V-20Q137 -14 137 -10H139Q151 -12 151 -14L154 -13Q163 -14 170 -16L171 -15H172V-18L175 -17H180Q181 -18 187 -19L193 -16L199 -14Q209 -9 209 -2L202 4L199 2H193Q189 2 184 -1L183 0H181L180 -1H178L177 -2L176 -1H175L170 -3L168 -2H165L148 -1L145 -2L138 0H136L115 3L114 2Q114 4 109 4L93 9Q80 13 67 21Q57 15 55 15Q54 13 46 9V8Q46 7 64 5Q64 4 69 4H72Q73 4 86 0H91Q111 -6 122 -6L123 -10V-11L122 -12V-13L123 -14L122 -17H123V-18L122 -19L123 -23L122 -25V-26L121 -32L122 -34V-36H119Q119 -34 113 -31Q110 -31 106 -36Q101 -36 96 -41H95Q93 -41 93 -42V-43Q93 -45 111 -51Q114 -52 114 -54H117L119 -53L120 -59Q120 -69 114 -77L118 -81V-83L114 -82V-83L111 -82H110Q110 -80 109 -80H105Q105 -78 104 -78H102L100 -77L97 -78Q97 -77 88 -74Q88 -73 82 -72Q82 -70 73 -69Q71 -66 63 -64Q61 -64 60 -67Q51 -72 51 -74V-75L60 -76H61Q61 -77 78 -81L84 -83H86Q90 -83 91 -85L94 -84Q97 -84 108 -88L112 -89L115 -88Q118 -88 118 -97Q117 -99 117 -108Q115 -111 115 -113Q112 -113 109 -110H108Q96 -119 94 -123Q82 -128 82 -129L83 -131L86 -130H87L91 -133L93 -132L97 -135H98H100Q105 -137 108 -137Q110 -140 117 -140L116 -144V-145L118 -148L116 -149L117 -154L116 -157L117 -161Q114 -164 113 -168Q106 -171 106 -174V-176V-177Q106 -178 114 -187Q114 -188 117 -189Q119 -197 120 -197Z"/>
</svg>