<svg xmlns="http://www.w3.org/2000/svg" viewBox="0 -256 256 256">
	<path fill="#000000" d="M157 -193H159L165 -189H174H175Q180 -186 181 -185V-181Q180 -173 170 -173Q169 -172 159 -170Q159 -168 153 -167Q153 -166 149 -166Q148 -165 144 -163Q143 -162 137 -161Q121 -153 120 -153Q118 -153 115 -151V-150Q115 -149 121 -149Q124 -145 126 -137V-136L125 -133Q126 -133 126 -131Q126 -126 121 -122Q114 -122 112 -134L113 -135Q113 -139 111 -143V-144Q111 -149 108 -151L107 -154L108 -155H109L114 -152H115Q115 -155 133 -164L139 -171Q142 -171 148 -180Q154 -183 154 -188L152 -189Q152 -190 157 -193ZM180 -169L196 -163L198 -162V-158Q198 -153 187 -151L175 -145Q169 -140 157 -132Q152 -129 147 -125H145L144 -126Q144 -127 150 -129Q150 -131 161 -140Q165 -144 166 -148Q177 -159 177 -164L176 -167Q176 -169 180 -169ZM93 -161H96Q98 -159 99 -158Q96 -148 91 -148L65 -132V-131Q66 -131 70 -126Q72 -126 76 -122Q74 -116 74 -108V-106V-105L81 -110H87Q89 -108 89 -107V-105V-103L84 -98Q76 -94 73 -90L72 -86V-83V-79V-77L70 -68V-66V-64V-61V-59V-57L71 -56H73Q81 -62 85 -62Q85 -65 87 -65Q88 -65 94 -68H95L96 -67V-66Q94 -63 85 -58Q78 -52 75 -48Q63 -38 49 -24Q44 -18 42 -18Q40 -18 36 -22Q31 -23 22 -29Q22 -30 30 -32Q31 -34 37 -36Q49 -41 49 -44Q56 -47 56 -49L58 -55L57 -56L58 -59Q57 -60 56 -68L57 -69V-72V-77L50 -73H47L34 -85Q34 -87 47 -91Q52 -95 57 -97L58 -98V-99L57 -101V-105L56 -119V-125L55 -126Q51 -122 50 -122Q48 -124 45 -129Q44 -129 38 -136Q34 -138 32 -141V-142Q32 -144 51 -146Q52 -148 57 -148Q59 -151 72 -153Q80 -157 87 -158Q87 -159 91 -159ZM139 -157Q141 -155 144 -154Q144 -153 147 -152Q147 -150 149 -149V-146Q149 -135 144 -135H143Q141 -135 140 -140L141 -143L136 -154V-157H137ZM167 -130Q175 -129 175 -127V-126Q175 -123 171 -121H170L168 -122L156 -118Q156 -117 151 -117Q151 -116 141 -113Q141 -112 137 -111V-109L145 -100Q145 -98 146 -98H148Q148 -99 154 -99Q154 -101 160 -101Q163 -104 181 -106Q181 -107 184 -107Q192 -107 196 -100Q194 -97 192 -95H191L183 -97L181 -96L180 -98L177 -96H176L173 -97H171Q171 -95 170 -95H168Q159 -95 147 -91Q139 -91 139 -86Q138 -86 137 -77L133 -68Q133 -67 142 -60Q145 -54 149 -53Q149 -49 152 -48Q155 -52 156 -57Q157 -58 158 -67L159 -68V-70L158 -71L149 -70L148 -72Q148 -73 158 -77Q158 -80 165 -81Q170 -77 172 -74Q174 -74 177 -70V-69Q175 -64 170 -55Q167 -49 164 -46Q164 -45 161 -40Q161 -37 165 -37Q166 -34 172 -31Q172 -30 179 -27Q179 -25 181 -25Q181 -23 186 -22Q187 -19 195 -16Q196 -14 202 -12Q204 -9 211 -7Q213 -5 222 -1L225 0H229Q230 2 233 2L234 4H233H230H229H221L206 7Q206 8 202 8Q198 10 193 11Q192 12 190 12L172 0Q172 -2 166 -8Q166 -9 163 -11Q158 -18 156 -18L152 -23L151 -25H150Q141 -14 133 -11Q124 -5 123 -5L117 -2L106 3L105 2V1Q108 -2 111 -2Q111 -3 116 -4L126 -11Q129 -11 139 -22Q139 -23 144 -26Q146 -27 146 -29Q146 -31 141 -40Q134 -46 134 -50Q130 -50 129 -55L126 -51Q125 -49 125 -46Q123 -45 122 -42L118 -39H119V-36Q114 -32 112 -27Q105 -19 98 -14Q93 -6 81 3Q64 16 58 17L57 16V15Q59 13 67 9Q68 7 74 4Q77 1 83 -4Q85 -7 93 -13Q97 -21 100 -21V-23Q104 -26 104 -28Q107 -29 110 -37L109 -40L110 -41H111V-40H112Q113 -45 116 -50V-54Q118 -55 120 -62L121 -65H122V-67L124 -72L123 -73L125 -75H126V-76L124 -77Q127 -80 127 -84V-85L119 -82Q111 -77 109 -77V-78H108L104 -75H102L91 -81Q91 -82 96 -82Q96 -84 104 -85L117 -89L121 -90Q121 -91 127 -91Q127 -93 130 -93V-94Q131 -106 133 -106L134 -107Q134 -108 131 -108H130L122 -103H121Q116 -105 116 -107L113 -106H112V-107Q112 -111 117 -111Q124 -116 133 -116Q134 -117 144 -121H145Q153 -125 157 -126Q161 -128 167 -130Z"/>
</svg>