<svg xmlns="http://www.w3.org/2000/svg" viewBox="0 -256 256 256">
	<path fill="#000000" d="M176 -194Q177 -194 182 -188Q184 -188 187 -186L189 -187Q192 -185 195 -181V-179Q189 -173 189 -168L186 -163V-159Q183 -148 178 -136Q171 -127 169 -127H168Q165 -130 165 -131Q166 -133 167 -140L166 -141Q155 -135 151 -133L142 -140L143 -141H145H147Q150 -143 163 -146H164V-147L166 -146Q168 -155 168 -167L167 -178H166L154 -174L148 -176Q145 -176 145 -177V-178L155 -182Q158 -184 164 -185Q165 -189 169 -189Q173 -194 176 -194ZM124 -192H126L130 -187L137 -185Q140 -185 142 -181V-175Q137 -170 134 -164L133 -163V-159L135 -157Q135 -156 132 -155Q132 -152 130 -149Q130 -145 128 -143L129 -139L126 -133V-131H129Q135 -127 136 -126H138L139 -123L138 -121L145 -119Q155 -110 160 -109Q161 -107 167 -105Q168 -102 180 -97Q186 -92 190 -92Q190 -91 196 -90Q196 -89 207 -85Q210 -85 212 -83H214H215Q216 -83 218 -81H221H222H223H225Q226 -79 232 -79H235L236 -78V-77L235 -76H228L212 -71Q208 -71 201 -67L198 -65Q193 -65 189 -69Q187 -69 179 -75Q178 -75 170 -81Q168 -81 155 -93Q153 -94 139 -109Q137 -110 136 -114H134L124 -103Q122 -97 112 -88Q108 -85 108 -83L100 -75Q82 -56 78 -56Q70 -50 68 -50L67 -51V-52L78 -59Q89 -70 92 -73L98 -81L111 -100Q112 -100 118 -110Q118 -112 122 -118Q122 -119 124 -121L125 -127V-128Q123 -128 119 -124Q115 -129 115 -136H114L98 -122Q91 -125 91 -129V-130Q95 -131 97 -131Q103 -135 112 -138Q112 -139 114 -140V-139H115L116 -140V-149L115 -150L107 -147L106 -148Q106 -146 100 -146Q94 -149 94 -150Q94 -152 98 -152Q100 -153 107 -156Q112 -156 115 -154H116V-158L117 -167V-168V-171V-172Q115 -172 106 -167H104Q101 -167 97 -171V-173Q97 -174 108 -179Q116 -184 124 -192ZM78 -179H79Q92 -175 92 -172Q92 -164 83 -163Q83 -162 79 -162L77 -160H76L74 -161Q74 -158 69 -157Q66 -153 60 -152L50 -147Q49 -145 47 -145Q45 -145 44 -150Q42 -150 38 -156Q34 -158 32 -162Q32 -164 38 -164Q38 -165 44 -167L56 -170Q56 -171 61 -171Q65 -175 68 -175H70Q75 -176 78 -179ZM160 -165L165 -163Q165 -159 152 -154H151H146L142 -157Q142 -158 147 -159L151 -162H153Q153 -163 160 -165ZM57 -147Q57 -144 72 -138L73 -133V-130V-128V-127H74L76 -128H79Q79 -130 82 -130Q84 -130 87 -127V-126Q87 -119 73 -113Q69 -112 69 -110L70 -108L67 -96V-95L68 -94L67 -89V-87L66 -77H68L80 -87L91 -96H92V-95Q87 -89 79 -80Q78 -80 74 -74Q70 -70 66 -64L43 -38Q38 -31 35 -31L23 -43Q20 -44 20 -46Q41 -60 49 -64L52 -67L53 -76Q52 -84 52 -92Q52 -97 54 -99H53L46 -92H43H42Q41 -92 40 -95Q36 -97 34 -100Q32 -100 29 -104Q29 -108 35 -108Q40 -112 45 -112H46Q46 -114 52 -115V-119L53 -124L52 -128V-131Q50 -133 49 -141Q52 -147 57 -147ZM134 -96H135Q137 -96 144 -90Q150 -88 150 -87V-86Q147 -80 143 -80L136 -74L131 -70Q131 -69 122 -65L112 -59Q105 -55 105 -54H103L102 -55Q102 -56 106 -57Q106 -59 108 -59Q108 -60 117 -66L127 -76Q133 -84 133 -92V-93Q133 -96 134 -96ZM140 -70Q142 -70 143 -67L150 -61V-58Q147 -55 142 -51Q129 -41 126 -41Q126 -39 116 -32Q113 -30 112 -30H111L110 -31L120 -39Q120 -40 134 -56Q139 -64 139 -69V-70ZM147 -47Q151 -47 155 -40L159 -38Q162 -38 162 -34Q162 -28 156 -26Q154 -26 146 -17L139 -11L134 -7Q129 -5 123 0Q121 0 117 4Q107 9 103 11Q92 17 88 18V16Q91 13 96 11Q105 7 125 -10L132 -19Q133 -19 139 -29Q144 -34 146 -39L147 -41L146 -43V-46Z"/>
</svg>