<svg xmlns="http://www.w3.org/2000/svg" viewBox="0 -256 256 256">
	<path fill="#000000" d="M71 -181Q75 -180 87 -178Q93 -175 95 -172L94 -168L95 -167Q106 -170 112 -173Q113 -172 113 -171Q118 -175 125 -176L135 -172L136 -170V-168V-166L134 -165L132 -166Q128 -165 124 -162H123H121L119 -161L116 -162Q116 -160 100 -159Q100 -158 95 -157Q97 -152 101 -152Q104 -149 108 -148V-145Q107 -143 102 -140Q102 -138 94 -131Q92 -126 90 -125V-124Q93 -124 101 -128H105L112 -125Q124 -123 124 -120V-117V-116Q121 -113 121 -107L122 -105L120 -97L121 -96V-90L120 -86L121 -84L120 -82L121 -74V-73L122 -65Q120 -64 120 -63L121 -61L120 -56L122 -54L121 -48L122 -46Q122 -43 119 -43V-42L120 -41H121V-37H122Q125 -41 131 -45Q134 -54 137 -67Q137 -72 138 -76L137 -79L139 -84L138 -86Q139 -94 139 -95V-96V-111Q139 -113 138 -126Q137 -126 137 -132L134 -138V-139Q134 -140 138 -142Q149 -134 152 -131Q153 -127 155 -126Q157 -126 163 -128L172 -131Q172 -132 176 -132Q177 -135 183 -137L187 -135H188Q196 -134 196 -130Q197 -130 197 -128Q196 -125 191 -116Q185 -105 185 -100L184 -99V-97Q183 -94 181 -74L182 -72L181 -69L182 -66L180 -62L181 -59L180 -57L181 -56V-53Q184 -40 190 -33Q193 -29 207 -21L220 -17V-16H221Q227 -23 227 -30Q228 -30 229 -34L230 -35L231 -32V-27L233 -17Q233 -14 238 -7V1L232 5H217Q213 5 208 3Q202 1 202 -1Q191 -7 189 -11Q188 -11 186 -15Q184 -15 183 -19Q180 -23 178 -26L171 -40Q170 -40 170 -41V-42L168 -52L169 -54L168 -56Q166 -55 160 -48Q158 -48 152 -41L143 -34Q135 -28 135 -27L133 -24H125L122 -25V-28L121 -32V-34H120L119 -33L121 -32L120 -28L121 -25Q118 -14 112 -8Q112 -5 110 -5Q109 -4 104 0H101L99 -2V-4Q99 -12 92 -20Q89 -20 87 -23V-24L88 -25H90Q92 -23 97 -23Q100 -26 100 -32L99 -36Q100 -36 102 -41L100 -46L101 -50L100 -52L101 -57V-63V-66V-67L102 -69Q100 -71 100 -73V-74H101Q100 -76 100 -81L101 -85L100 -87V-90L99 -94Q100 -94 101 -95Q99 -98 99 -100L98 -112L99 -116H98L90 -114L89 -115L85 -113Q84 -113 81 -114L80 -112L78 -113Q78 -111 72 -110V-111H71Q69 -108 58 -106Q58 -105 49 -103Q47 -101 44 -101V-100L46 -99L45 -95V-92L44 -85H45Q58 -87 63 -90L67 -89L68 -94Q66 -94 66 -95L67 -99L65 -104Q66 -106 67 -106Q72 -105 72 -102H74L76 -103Q82 -101 82 -97Q82 -95 83 -95Q86 -97 90 -97L91 -98H92L96 -95V-94Q92 -90 89 -90H87Q86 -89 76 -86V-84Q76 -81 72 -72H73Q76 -72 81 -76Q82 -76 84 -77H86Q88 -76 94 -74V-72Q94 -68 90 -65Q90 -62 88 -62L89 -59Q87 -59 84 -53Q89 -51 89 -50Q89 -47 85 -47L83 -45Q80 -45 80 -46L74 -43L63 -41Q62 -41 62 -40V-36L59 -34Q55 -34 53 -51L50 -62V-63L49 -65V-67L50 -68L54 -64H56L62 -68L65 -67V-68L66 -82L65 -83L56 -80H55L45 -83V-82V-76V-70L46 -65Q46 -61 45 -61L47 -56V-55L46 -54V-53L47 -51L46 -47L47 -45V-43V-41V-38V-35L46 -32L48 -22L47 -19V-18L46 -16L47 -14Q44 -1 38 4H37Q31 -6 31 -10Q30 -10 29 -15Q31 -26 31 -27V-29V-32V-54V-58V-59V-60V-64Q31 -67 31 -69V-72L30 -76L31 -78Q30 -80 30 -83V-90Q28 -96 26 -108Q25 -108 25 -112L26 -113H28L31 -110Q35 -109 35 -107Q37 -109 39 -109L40 -108H41Q41 -110 51 -112Q52 -113 54 -113H55Q58 -113 58 -114V-116L56 -119V-122L55 -128H56V-129L53 -137L54 -138Q52 -139 52 -140Q53 -142 54 -142Q60 -140 63 -136Q68 -135 68 -131L70 -128V-126L69 -125L70 -121L68 -118L69 -117H71Q72 -119 80 -121Q85 -126 86 -135Q87 -135 89 -140L88 -143Q90 -143 90 -145L89 -146H85L81 -144Q72 -147 72 -151L68 -149L67 -150L65 -148H64L63 -149Q61 -147 53 -146L52 -144H49Q49 -143 40 -139Q35 -139 31 -135Q30 -135 28 -140L19 -148Q17 -149 17 -151Q17 -153 26 -153L27 -154H33Q39 -154 43 -156L67 -162V-161H68L70 -162Q70 -167 63 -176Q63 -180 71 -181ZM188 -179H190Q197 -176 198 -172L199 -170Q199 -162 184 -161L180 -159Q180 -158 173 -157Q170 -153 165 -153Q163 -151 160 -151Q158 -149 156 -149Q142 -161 142 -163Q143 -164 149 -166L151 -165Q155 -167 165 -170Q165 -171 170 -171Q170 -173 179 -176ZM164 -119H161L155 -116Q151 -116 151 -115L152 -111V-110Q152 -107 151 -107L152 -104V-103Q151 -102 150 -93H149H150Q154 -96 161 -97Q161 -99 165 -99L172 -101Q172 -108 174 -110V-112L175 -116L174 -117L176 -122H175Q174 -121 165 -120ZM170 -90Q169 -87 164 -87Q157 -83 147 -81V-80Q147 -79 148 -79H149V-78Q148 -59 144 -58V-57L145 -56V-55L143 -52L144 -50Q146 -50 150 -53L165 -61Q168 -61 168 -63Q169 -76 170 -76L169 -77Q170 -84 170 -90ZM73 -63L70 -64Q70 -63 65 -60H64L63 -61Q59 -60 59 -59L62 -58V-56V-54V-52V-50V-47V-46H63Q71 -50 76 -50L79 -58L78 -59L79 -61L78 -63L79 -66H78Z"/>
</svg>