<svg xmlns="http://www.w3.org/2000/svg" viewBox="0 -256 256 256">
	<path fill="#000000" d="M123 -200Q126 -200 133 -197Q156 -190 156 -182V-181Q156 -179 153 -174L154 -173Q168 -176 175 -179Q177 -181 189 -183L196 -179Q202 -175 202 -172Q201 -169 197 -169L195 -168Q193 -169 189 -169V-170L184 -169L182 -170Q176 -169 174 -167L171 -168Q150 -167 150 -162Q150 -158 136 -153Q129 -155 129 -159L128 -160Q122 -158 119 -158Q108 -153 107 -153L94 -147L78 -140H77L65 -149V-151L67 -153H68L70 -151V-152L72 -154H73L77 -153Q80 -154 92 -157Q92 -158 103 -158Q103 -160 110 -161Q110 -162 117 -162Q117 -163 125 -165L126 -167L125 -170L126 -172L123 -178V-181L116 -191Q116 -194 123 -200ZM163 -149L170 -145L181 -143Q183 -140 183 -138V-135Q182 -127 176 -127H174H173L169 -126L167 -127L160 -124H158H157Q157 -122 151 -122Q151 -121 147 -119V-118L148 -117H151Q157 -117 159 -114V-113Q159 -106 160 -103L159 -100H161Q163 -100 168 -104H172Q175 -108 179 -108L181 -109H182Q183 -108 191 -107Q195 -104 195 -102V-100Q195 -95 186 -95L184 -94L183 -95Q165 -89 165 -88L174 -69Q174 -67 179 -60Q179 -59 186 -48Q197 -30 200 -30Q205 -23 216 -14Q218 -14 219 -18Q223 -21 223 -26L225 -27H226Q227 -27 227 -26Q225 -22 225 -18V-14Q228 5 231 5Q232 8 232 10Q232 17 224 17L221 18L211 11Q209 11 204 4Q202 4 202 0Q197 0 192 -9L190 -14Q188 -14 186 -21Q183 -21 182 -26Q179 -27 179 -31Q176 -32 173 -40Q169 -45 166 -53Q164 -53 161 -62Q158 -63 154 -75Q151 -80 151 -82Q144 -80 132 -73L130 -72L119 -79Q117 -79 117 -76V-75L115 -63V-59Q114 -45 112 -39L113 -38H114Q124 -41 129 -46Q134 -48 146 -57Q148 -57 152 -61H153L154 -60V-59Q124 -30 107 -6Q103 0 95 0Q92 0 92 -5L93 -8Q91 -9 90 -17Q90 -18 93 -21Q93 -22 97 -27Q98 -36 101 -37V-41Q102 -43 103 -59V-61L104 -73V-78L105 -80L104 -82L105 -83L104 -86V-87Q104 -103 101 -103V-105Q101 -107 102 -107Q114 -104 116 -102H117Q119 -106 127 -111Q128 -113 142 -124L146 -125Q148 -129 152 -132Q153 -135 157 -139L156 -140L157 -143L155 -145V-146L156 -147H158Q161 -149 163 -149ZM87 -139Q89 -136 94 -134Q94 -132 104 -127L105 -126V-124L97 -106L98 -105L93 -90Q92 -81 88 -73L83 -59Q70 -32 63 -19Q59 -11 48 2Q47 6 38 14Q37 16 26 23L25 24L24 23V22L34 13L38 9L47 -5L55 -19L60 -33L69 -56L72 -68Q74 -78 76 -80V-81H75Q73 -81 72 -77Q69 -77 61 -68Q58 -66 52 -60L48 -59Q45 -59 44 -62H42Q35 -65 35 -68L37 -70H38L41 -68Q44 -70 48 -70Q50 -71 59 -75Q61 -77 71 -82Q71 -83 76 -83L83 -101V-104Q83 -108 86 -110V-119Q87 -121 87 -129Q85 -132 85 -135Q84 -135 84 -136V-137Q84 -138 87 -139ZM119 -104L120 -97L118 -90V-86V-84H120L122 -83Q130 -87 138 -90Q138 -91 141 -91Q141 -92 148 -94V-95L147 -99H148L140 -113L142 -117V-118H141Q138 -114 119 -104ZM56 -111H57Q67 -110 69 -108Q72 -108 74 -104V-101Q72 -97 67 -94H66L62 -98Q60 -98 56 -102Q52 -102 48 -107Q46 -107 46 -108Q47 -110 49 -110L53 -109Z"/>
</svg>