<svg xmlns="http://www.w3.org/2000/svg" viewBox="0 -256 256 256">
	<path fill="#000000" d="M126 -204H130Q131 -203 135 -201L142 -198Q142 -196 147 -196Q147 -195 152 -193Q155 -192 159 -184L157 -180L158 -179Q168 -181 171 -183L188 -188L194 -190Q195 -190 196 -188L203 -185Q204 -185 204 -180Q202 -177 200 -177L197 -176L195 -177L192 -176V-177L189 -176H186L184 -175H180L179 -176L175 -175H173Q172 -174 159 -171H155Q152 -170 152 -167Q137 -153 136 -153Q133 -153 128 -161L129 -163V-164H128Q127 -162 123 -162Q123 -161 115 -159Q113 -157 108 -157L102 -153L100 -154H99Q99 -152 92 -149H91Q88 -147 83 -147L80 -144H79Q75 -148 72 -148L64 -156V-157L66 -159H68Q71 -159 85 -163L94 -165H98Q98 -166 116 -170L121 -172Q127 -172 127 -175V-176L126 -179L127 -180L125 -184V-185Q123 -187 122 -191Q118 -194 118 -196Q119 -198 126 -204ZM187 -152Q190 -149 194 -144Q205 -141 205 -134Q204 -128 202 -126Q199 -123 193 -100Q192 -100 191 -96Q189 -86 181 -81L173 -75H171Q171 -76 170 -79V-83Q170 -85 168 -86L155 -81H154H152Q150 -79 142 -77H141Q141 -76 136 -76Q136 -74 128 -72L126 -70L124 -74Q122 -74 121 -79Q120 -79 116 -95Q113 -101 111 -118L110 -121L107 -126V-128Q108 -130 108 -132L107 -135V-137L108 -138Q117 -134 121 -131L139 -136Q139 -137 162 -143Q166 -144 171 -145L178 -149L182 -150Q182 -152 187 -152ZM88 -143H89Q94 -139 97 -138Q100 -134 103 -132Q103 -129 104 -127V-126L103 -120V-118Q99 -109 97 -102H96V-99V-98Q94 -94 93 -87Q92 -87 91 -83Q90 -83 90 -79Q88 -76 88 -74V-73Q86 -72 85 -68Q84 -68 84 -65Q82 -65 82 -60Q81 -59 77 -51Q75 -49 72 -41L67 -31Q61 -22 58 -20Q55 -12 33 7H32L31 6V5Q40 -4 49 -17Q51 -23 55 -27Q55 -32 59 -33V-36L67 -53Q70 -60 76 -81V-83H75L60 -72L55 -67Q55 -66 54 -65H53Q44 -72 44 -76Q48 -78 54 -79Q54 -80 63 -82L68 -85Q68 -86 72 -86Q80 -90 80 -96Q81 -96 82 -104Q83 -104 83 -108L84 -109V-113Q85 -115 87 -130Q87 -132 85 -138V-141ZM160 -132L159 -133L156 -132V-130Q161 -130 163 -126V-124L161 -122H162V-121L161 -117H162Q164 -117 173 -120L175 -119H176Q178 -119 179 -130L178 -132L179 -135V-136Q169 -136 160 -132ZM130 -122L131 -121L130 -114V-110L131 -109H132Q133 -110 143 -112L145 -113L147 -118V-126L146 -128L147 -130H146Q130 -124 130 -122ZM56 -121H57L58 -120H60Q67 -120 72 -117H74L81 -113L78 -106Q74 -104 72 -104Q68 -104 58 -113L54 -118ZM169 -111H167H165H163Q158 -107 158 -105V-103L155 -92Q156 -90 157 -90L159 -91L160 -90Q160 -91 166 -93H168Q173 -94 173 -100L174 -101L173 -102V-103L175 -105V-108L176 -113H175Q171 -111 169 -111ZM131 -87V-85Q146 -86 146 -90L145 -95L146 -99L145 -103L146 -104H145H144Q144 -103 140 -103Q140 -101 134 -101Q134 -100 131 -99ZM208 -75H216Q225 -71 225 -67L221 -63H219H217Q215 -62 214 -62H205L199 -63L197 -62H193Q189 -62 188 -60H181Q180 -60 180 -59L182 -56V-43V-39V-37V-35V-28V-27V-26V-24L183 -21L182 -18Q184 -13 184 -5V-1Q184 18 173 28H172Q171 28 170 23L171 20L169 18L170 12V10L169 2L170 0L169 -2Q169 -5 170 -5V-6V-8V-10V-12V-14L171 -16V-17L170 -19V-20L171 -21L169 -26V-27L170 -28L169 -31V-33L170 -36L169 -38L170 -43L169 -46V-49Q168 -49 168 -50L169 -54L168 -57L169 -59H168Q161 -57 158 -57H156Q154 -55 146 -54V-53Q147 -51 148 -50Q143 -34 140 -21Q139 -21 139 -17Q134 -8 126 0Q114 15 107 18Q103 23 100 23L99 22Q114 9 114 5Q116 5 118 1Q122 -9 124 -13V-14Q127 -21 127 -25Q129 -25 130 -44V-45V-50Q127 -50 121 -47H119Q117 -45 110 -45Q110 -43 103 -42H101Q99 -42 99 -45H95L92 -48V-51Q92 -52 98 -54V-53H99Q100 -54 113 -56Q113 -57 125 -59H126Q139 -62 148 -63Q148 -64 157 -65Q157 -66 169 -67Q169 -68 174 -68Q188 -71 197 -72Z"/>
</svg>