<svg xmlns="http://www.w3.org/2000/svg" viewBox="0 -256 256 256">
	<path fill="#000000" d="M158 -197Q159 -197 162 -192Q165 -189 166 -189Q168 -188 171 -188Q178 -184 178 -178L177 -176V-175H178Q183 -165 191 -165Q195 -163 195 -162V-160Q195 -154 185 -150Q184 -148 181 -148Q176 -143 165 -135L161 -134Q161 -132 157 -130L156 -128V-127L167 -131H168H172Q174 -133 182 -134L185 -137H186H192Q199 -136 203 -133Q206 -133 208 -130V-129Q208 -125 205 -123H200L195 -124L194 -123L191 -124L184 -123L183 -124H182L180 -123H176L175 -124Q175 -123 159 -121Q159 -120 157 -120Q152 -120 152 -117Q152 -115 163 -108L179 -97L183 -93H184L186 -94L194 -89L196 -88H197Q199 -86 206 -84L215 -79Q220 -77 226 -77Q227 -75 233 -75Q233 -74 238 -73V-72V-67Q237 -66 225 -61Q225 -60 219 -59Q219 -58 212 -54H207L203 -58Q201 -55 200 -38Q197 -19 193 -12Q192 -3 180 12Q179 12 170 21H169Q167 21 166 17H167L166 16V13L167 11V9V5L166 -1V-6L157 -3Q152 -3 142 0L139 1L138 0L136 2H133Q125 3 125 6Q122 15 121 15H119Q116 13 112 -5L110 -10Q112 -12 112 -14Q110 -14 110 -15V-18L108 -27H109Q108 -27 107 -29V-31V-32V-34V-36V-39V-40Q104 -41 104 -44V-46Q102 -46 102 -51L100 -55V-57Q100 -58 102 -59L104 -56Q106 -56 110 -53Q112 -53 113 -54L116 -53Q117 -54 122 -54Q123 -57 125 -57L126 -56L136 -60Q137 -60 137 -62L136 -64V-68L137 -70L136 -72L137 -75L135 -77L136 -80L135 -84V-85L137 -86L135 -89L136 -92V-95L135 -96Q135 -93 130 -93V-91Q129 -87 124 -82Q123 -80 116 -74Q116 -73 101 -62L96 -58Q93 -58 93 -55Q91 -54 86 -53L85 -51L86 -49Q84 -35 80 -35Q80 -30 75 -28Q70 -31 70 -35L71 -36Q69 -38 68 -45H67H66Q65 -45 62 -44Q62 -42 58 -42Q58 -41 54 -41Q53 -37 49 -37V-36L50 -34Q44 -23 40 -23H39Q37 -23 37 -30V-32Q35 -32 34 -44Q33 -44 32 -56H33L31 -60V-62L32 -66Q32 -70 30 -72V-79L28 -81L29 -85Q22 -109 18 -109L17 -112Q17 -115 22 -117Q29 -115 31 -113Q34 -116 37 -121Q39 -122 40 -126Q44 -129 45 -133Q46 -133 46 -136Q51 -140 54 -154Q53 -157 48 -160V-162Q49 -169 55 -169H58Q65 -162 67 -162Q67 -161 71 -161Q72 -158 80 -155Q85 -149 85 -148V-146Q81 -141 77 -139L68 -133Q66 -132 61 -127L59 -126H57V-124L53 -122H51Q51 -118 44 -116Q40 -111 36 -111V-110V-109Q39 -109 39 -106L40 -105V-108Q40 -109 49 -111Q53 -115 63 -119Q63 -121 67 -121L76 -129L81 -126L85 -125Q85 -124 91 -123Q93 -120 93 -117Q91 -115 91 -110L90 -108V-103Q88 -96 88 -89V-87L87 -85L88 -83V-81L87 -76V-74L86 -72L87 -70L86 -60V-59L85 -57L86 -56H88Q92 -61 94 -62Q94 -63 99 -68Q99 -71 104 -73Q108 -81 114 -85Q117 -92 121 -92Q121 -96 126 -104Q128 -104 129 -109Q130 -109 132 -113L130 -114Q126 -114 124 -110Q119 -110 106 -102L102 -101Q102 -103 96 -106V-107Q92 -107 92 -110Q93 -111 99 -111H102Q102 -113 107 -113Q107 -115 115 -117L117 -116L122 -118Q125 -118 126 -120Q129 -120 130 -122Q134 -122 135 -128L136 -131L135 -140L137 -144Q134 -145 134 -149L135 -152L134 -157V-160V-161Q134 -160 121 -155Q121 -154 109 -149V-148Q112 -146 115 -146Q115 -145 116 -145L117 -144Q119 -144 122 -140Q126 -138 126 -134L127 -132Q127 -131 125 -130L126 -128Q126 -127 121 -123H120Q119 -123 119 -126H115Q111 -131 111 -135Q109 -135 107 -144L103 -149Q103 -150 107 -150Q111 -153 115 -155Q117 -158 120 -158Q120 -160 127 -164Q134 -169 139 -175Q141 -175 148 -184V-192L151 -195H154Q156 -195 158 -197ZM166 -170H165V-171Q161 -171 151 -167Q149 -167 146 -165Q143 -165 141 -162H145Q147 -159 150 -159Q155 -156 155 -153Q154 -152 153 -144H152V-141V-138V-136V-132V-131Q161 -139 162 -145Q164 -145 165 -149Q168 -152 169 -156H171V-157L170 -158Q172 -164 172 -167L171 -170L172 -171L171 -172Q167 -172 166 -170ZM63 -108H62H61Q61 -106 55 -105Q54 -104 47 -102Q47 -81 49 -81H50Q53 -82 54 -84Q57 -85 59 -86L63 -87Q63 -86 67 -84Q67 -82 68 -82L69 -83Q69 -86 68 -86L69 -90V-99L70 -100L69 -103V-104L70 -106L69 -108L70 -110L68 -111L64 -109Q64 -108 63 -108ZM150 -98L151 -96Q151 -90 150 -88L151 -84L150 -83L151 -81Q151 -78 150 -76L151 -74Q149 -67 146 -63H147Q148 -64 150 -64H153L156 -66L158 -65Q158 -68 166 -68L174 -72L175 -73H177V-74L170 -81Q168 -81 163 -87Q163 -90 160 -90Q159 -93 155 -95Q152 -98 150 -98ZM54 -74H53L52 -72H49H48L49 -70V-67V-65V-59V-56V-54Q50 -49 51 -49Q61 -53 64 -57Q69 -58 69 -59L68 -61L69 -62L68 -68L69 -72L68 -73V-76V-77L67 -78H66Q56 -74 54 -74ZM167 -60H166L165 -59H159L154 -57L149 -58V-57Q149 -54 154 -54L159 -48V-47Q157 -45 157 -44V-43L158 -42L160 -43L162 -42L166 -45Q173 -43 173 -40Q173 -36 168 -36H166Q166 -34 160 -34H159Q156 -34 156 -23L153 -14Q154 -12 155 -12H156Q157 -13 162 -14L164 -13Q166 -14 170 -15Q172 -15 173 -21Q174 -21 174 -23V-31L175 -38V-41V-46L176 -47V-48V-52V-53L175 -59L176 -61Q173 -62 172 -62Q169 -60 167 -60ZM137 -54H135Q134 -52 130 -52Q130 -50 119 -47L122 -37L121 -32L124 -23L123 -22L125 -16L124 -14L125 -10V-9L124 -6Q126 -5 127 -5Q129 -6 140 -8H142L143 -13L142 -16L143 -20V-22L142 -23V-25Q142 -27 144 -29H143H141H139Q136 -25 131 -25L130 -27H128L123 -31Q123 -32 130 -33Q130 -34 132 -34L134 -33Q143 -37 143 -41V-44V-46L142 -50L141 -55H140Z"/>
</svg>