<svg xmlns="http://www.w3.org/2000/svg" viewBox="0 -256 256 256">
	<path fill="#000000" d="M185 -189L192 -185H194Q196 -182 196 -180V-178Q195 -170 188 -170Q183 -166 166 -162Q166 -160 159 -159V-158Q159 -157 163 -156Q165 -153 173 -151Q176 -148 176 -142V-135V-134Q178 -136 183 -136Q189 -139 190 -140H191L205 -144Q205 -142 213 -140Q219 -140 221 -136V-134Q220 -128 216 -128H215H212L204 -126H203Q196 -126 193 -123L191 -124Q189 -122 179 -120L175 -118L176 -116V-110L175 -104L176 -99L175 -97L177 -76V-74L178 -66H177H178V-64L179 -37Q179 -22 173 -5L158 13H157Q155 13 155 9Q150 -7 142 -12Q142 -14 138 -15Q138 -17 134 -19V-20L135 -21Q142 -20 143 -18L145 -19L153 -17H154Q156 -17 158 -31L157 -36Q158 -36 159 -54V-57V-60L158 -62L159 -63L158 -73L159 -75L158 -76L159 -78L158 -87V-91L157 -94L158 -97Q157 -99 156 -108L157 -111L156 -112L158 -114Q158 -116 155 -116Q151 -110 145 -110Q142 -107 139 -107Q138 -105 129 -101Q127 -101 119 -109Q113 -111 113 -113Q113 -114 123 -116Q128 -118 128 -119L130 -118Q152 -127 156 -127L157 -130L156 -133L157 -134Q156 -138 155 -140V-143L152 -156H151Q147 -153 145 -153Q140 -153 129 -165Q128 -167 128 -168Q128 -169 143 -173Q147 -175 150 -176H152Q154 -178 160 -179L161 -180H162L163 -179Q169 -183 174 -183Q175 -184 183 -187Q183 -189 185 -189ZM98 -176H99Q102 -176 105 -170L116 -162Q118 -161 118 -159V-158Q118 -154 115 -154V-151Q112 -144 112 -132L111 -131L112 -127L109 -93Q109 -90 110 -90L109 -76H110V-75L109 -73L110 -68L108 -61L109 -56Q109 -40 95 -31H94Q90 -36 90 -43Q86 -61 84 -61Q80 -57 74 -56Q68 -52 60 -50L51 -40L49 -38H48Q45 -38 44 -50Q43 -50 43 -53Q43 -65 44 -65L43 -73V-74V-77V-80V-83V-89Q43 -107 40 -124Q39 -138 37 -141L34 -146Q35 -152 39 -152Q41 -152 50 -145Q56 -143 60 -135L58 -126L59 -123V-120L60 -119H61Q66 -123 71 -124Q73 -126 75 -126Q81 -124 82 -121V-119Q81 -116 74 -113H71Q68 -111 62 -109Q62 -108 58 -108V-107L60 -104L59 -102V-98L58 -97V-95L59 -94V-93L58 -92V-90Q61 -90 67 -95Q70 -95 75 -99H77Q83 -96 84 -94Q84 -90 79 -87H77Q69 -86 69 -83L61 -81Q59 -81 59 -79L60 -77L59 -75L60 -65L58 -63L59 -60H60Q68 -64 75 -67Q75 -68 86 -72L88 -73V-85L87 -102V-103V-105V-108Q87 -113 86 -114L87 -116L86 -121V-123L85 -146V-148V-149Q75 -142 69 -142Q69 -141 67 -140H66Q59 -144 54 -148Q59 -153 65 -154Q65 -155 70 -157Q70 -158 76 -161Q76 -162 81 -163Q88 -167 90 -170Q91 -170 97 -176Z"/>
</svg>