<svg xmlns="http://www.w3.org/2000/svg" viewBox="0 -256 256 256">
	<path fill="#000000" d="M136 -190H138Q139 -190 145 -184Q159 -180 159 -174Q156 -166 152 -166Q150 -165 150 -163Q143 -157 140 -155Q140 -153 125 -141Q119 -137 117 -137L118 -136Q122 -136 126 -131L132 -133L134 -132Q134 -135 148 -137L158 -140Q161 -143 161 -145Q163 -145 163 -149L165 -152Q165 -159 162 -161L160 -165Q160 -167 167 -174H168Q170 -172 181 -167Q183 -165 184 -161V-160L183 -159H184V-158L173 -148H175L178 -149H181Q188 -153 192 -153Q192 -155 194 -155H195Q203 -153 205 -152L206 -149V-146Q206 -144 199 -143L198 -144Q195 -142 183 -140Q177 -138 171 -137Q169 -136 168 -135Q177 -133 177 -130L176 -123V-119H178Q180 -121 184 -122H185H188L191 -123Q193 -122 194 -116Q193 -113 190 -113H184H183Q178 -109 175 -109L176 -105Q174 -100 174 -94L175 -93H176L182 -95Q184 -95 188 -99H189Q195 -95 195 -94L196 -92Q195 -87 190 -87Q179 -87 174 -82V-81L173 -73V-70V-62V-61Q173 -59 172 -59L173 -56V-54H172L173 -51Q177 -51 181 -54H185Q191 -54 203 -56L209 -57H210L214 -58Q219 -55 221 -54L223 -48V-45Q223 -42 218 -38H212Q211 -40 204 -41H203H200H196L191 -40L188 -41L174 -39H169Q168 -38 161 -38L160 -37H156L152 -36L151 -37L134 -33L131 -34V-33V-26V-24V-23V-22V-18V-8Q131 8 123 13Q120 15 119 15Q117 15 116 7L117 5L114 -8V-9Q113 -11 113 -13L114 -21V-22Q114 -27 115 -31V-36V-40V-43V-45L116 -47L115 -50L116 -53L115 -54L116 -59L115 -63L117 -73L116 -76V-77L117 -85V-86V-88V-90L118 -98L117 -100L118 -106L117 -134L116 -135Q114 -135 104 -126Q101 -126 101 -127Q109 -138 113 -141Q113 -143 118 -147Q118 -148 123 -157L131 -172Q131 -173 132 -175L134 -180Q134 -182 131 -185V-186ZM85 -159Q88 -155 92 -153H95Q95 -152 100 -150Q102 -149 102 -143Q102 -140 98 -132L97 -128V-119L96 -116L97 -113V-108V-101V-100V-98V-84V-77V-72V-71V-67V-66L96 -64L97 -59V-57Q94 -40 89 -36Q83 -29 80 -29H79Q78 -29 78 -34Q72 -41 72 -46L73 -50H72H71Q69 -47 60 -45L50 -41Q42 -35 41 -35Q36 -35 36 -48Q35 -48 35 -54L36 -57V-65L37 -68L35 -69V-71L36 -72V-73L35 -75V-90V-98V-103Q34 -132 33 -143V-144H35L42 -138H43L49 -141V-142L51 -141Q54 -141 59 -146Q63 -149 74 -154L78 -157L83 -159ZM51 -135H49L50 -131L49 -125V-122V-120V-118L48 -116L50 -112Q52 -112 54 -114Q57 -114 59 -116Q61 -117 67 -118Q72 -117 74 -116Q75 -116 76 -125H75V-126L76 -128V-135V-142L74 -144Q70 -141 65 -140H62Q62 -138 55 -137Q55 -136 51 -135ZM141 -125L133 -128H131L130 -127L133 -123L132 -110L133 -108L131 -99Q132 -99 132 -90V-88V-77V-75V-73V-72L131 -69H132V-65L131 -62L132 -60L131 -53L132 -51L131 -45V-44H132Q142 -46 152 -47Q152 -48 154 -48H157V-49V-53V-65V-69V-71L158 -79H156Q151 -75 146 -75V-74H145Q142 -77 136 -78V-81Q136 -82 145 -83L150 -85Q150 -86 154 -86H158V-88L157 -90V-92L158 -94V-95V-99V-103H157L150 -100H146Q144 -102 140 -102L139 -104Q139 -106 146 -107Q146 -108 150 -108Q150 -109 157 -111L159 -119L158 -126L159 -130V-131H158Q157 -131 152 -130Q151 -129 148 -127ZM64 -106H63V-107Q61 -107 58 -104H57Q56 -104 50 -101V-100V-94V-93L49 -84L51 -83L60 -88Q67 -91 69 -91Q71 -91 74 -88V-90V-91Q74 -96 74 -107V-108V-111ZM66 -79H65V-80Q64 -80 64 -78Q58 -76 52 -75L51 -74L50 -75V-73V-71L51 -68V-66L50 -62L51 -59L49 -55L51 -54Q55 -54 62 -58L73 -60L74 -62L73 -64L74 -66L73 -72V-79V-81H72Z"/>
</svg>