<svg xmlns="http://www.w3.org/2000/svg" viewBox="0 -256 256 256">
	<path fill="#000000" d="M163 -199Q165 -199 171 -194L177 -193Q178 -193 182 -188V-187Q182 -185 178 -181Q178 -180 175 -178L174 -173H175Q183 -176 188 -180Q191 -180 195 -183Q203 -182 203 -179V-177Q203 -171 193 -169Q184 -166 182 -164H180L175 -167H173L171 -168Q170 -168 168 -163L164 -154L161 -153V-150Q159 -148 158 -148L157 -149V-148V-147L161 -145Q161 -144 162 -144Q164 -146 168 -146Q168 -148 173 -148Q173 -149 177 -149L179 -151H182Q182 -153 193 -158L200 -153Q204 -153 207 -148Q207 -145 198 -138L195 -135V-134Q195 -132 197 -132V-130Q197 -128 195 -126H193V-127Q187 -125 182 -124L174 -122Q174 -121 172 -121H168Q166 -120 164 -120L160 -117Q155 -120 155 -126L156 -128Q155 -128 155 -131V-133L152 -142L149 -141H148V-143Q150 -145 150 -146V-149Q152 -149 152 -153Q153 -153 155 -161L156 -168Q157 -169 158 -181H159L157 -189Q154 -189 154 -190V-195Q154 -197 158 -197Q158 -198 163 -199ZM114 -184Q116 -184 123 -180Q136 -177 136 -173L137 -169L136 -167L137 -163L136 -161L137 -158L135 -150L136 -146L135 -145V-142V-141V-140H137Q137 -143 138 -143Q145 -136 148 -136H149V-131Q140 -122 138 -122L145 -117Q145 -116 137 -111Q141 -106 146 -106Q149 -103 149 -101Q149 -99 146 -99Q146 -98 139 -93Q139 -91 131 -87Q130 -87 130 -85Q125 -82 124 -80V-78Q125 -78 127 -76L131 -73Q131 -72 130 -72V-71Q132 -71 132 -70Q131 -68 129 -68V-67L131 -64Q129 -62 129 -59L131 -53V-51V-48V-40V-36H130L131 -35V-34L130 -23Q132 -19 135 -19H136Q137 -21 139 -21L142 -20Q153 -25 159 -25V-31V-35V-38V-39V-42V-45L160 -49H159Q153 -45 150 -45Q149 -44 143 -42Q143 -40 142 -40H141L136 -45V-46L151 -53Q159 -55 159 -57V-63L160 -64L159 -67V-68L160 -69H159L153 -67H150V-66H148V-67H147Q147 -65 144 -63H143Q141 -64 137 -65V-66V-68Q137 -69 141 -69L143 -71H145V-70Q149 -73 151 -73L159 -76V-77V-81V-86V-88V-91Q158 -91 157 -89Q151 -87 147 -84Q145 -84 143 -82H141L134 -86Q137 -90 142 -90Q142 -92 152 -95Q155 -97 158 -98Q158 -99 162 -99Q161 -101 161 -103V-106Q160 -106 158 -110Q156 -110 155 -112V-113L159 -115H162Q163 -114 165 -114H166Q168 -114 169 -113L174 -114Q174 -113 178 -112V-111V-108L180 -107Q180 -108 184 -108L188 -110H194Q198 -108 198 -105Q196 -102 195 -102H192Q190 -100 185 -100Q185 -99 178 -98Q177 -97 167 -94V-91H168L170 -92Q175 -90 175 -88V-86V-84H179L187 -87Q197 -85 197 -83V-82Q197 -80 191 -78H184Q179 -77 177 -75L175 -76V-75V-72V-70L174 -69Q175 -66 175 -62Q184 -67 190 -67H191Q199 -66 199 -62V-60L195 -57L191 -58Q181 -57 176 -54L177 -51L176 -44Q177 -42 177 -39L176 -36L177 -34V-33L175 -31Q175 -30 179 -29L182 -30H183Q183 -32 197 -33L207 -35H210Q222 -32 222 -27Q222 -20 213 -18L209 -20Q207 -20 204 -22L201 -20Q201 -21 200 -22L195 -21H191L188 -20H186Q168 -19 168 -17H167L164 -18Q162 -16 151 -15Q151 -14 147 -14H146L143 -13L142 -14L136 -11H132H131V-10L132 -9L131 -7V-5Q131 -2 132 0V1V4V5H131L132 8V11Q130 18 126 20Q122 24 120 24Q117 24 116 9V7L115 5V4Q116 0 118 -14V-23L119 -25V-28L120 -30L119 -32L120 -34L119 -36V-38L120 -41L119 -46L120 -51L119 -56L120 -62V-63V-68L119 -69L120 -75L119 -76L113 -73Q113 -71 110 -69H108Q108 -68 101 -63Q101 -61 96 -60V-59H95L94 -60V-61Q94 -62 97 -62Q98 -66 106 -72Q107 -72 107 -75Q114 -82 117 -88Q119 -88 121 -94Q123 -96 125 -99L129 -106V-108H128Q124 -108 121 -106H120Q117 -104 115 -104Q115 -97 112 -96H110L107 -99V-101H108V-102Q105 -102 105 -109Q103 -113 101 -115Q101 -119 97 -125V-127Q97 -130 99 -131H101Q102 -129 109 -128L112 -126H113L112 -128Q112 -129 115 -130V-131Q118 -131 122 -133Q123 -133 126 -136V-138Q126 -140 122 -147Q122 -149 121 -149H120Q119 -148 114 -147L109 -144H108Q107 -144 104 -149Q99 -151 99 -152V-153Q99 -155 112 -155H113L120 -158V-159L118 -163Q118 -165 114 -172Q114 -173 109 -178V-180Q109 -183 114 -184ZM84 -154Q86 -149 88 -149Q97 -145 97 -143V-142V-139V-138Q92 -131 92 -125V-120L91 -118L92 -116V-113L91 -107L92 -104L91 -98L92 -96L91 -94Q92 -91 92 -88V-86V-85V-83V-81V-78V-77V-72V-68V-66L91 -63L92 -60L91 -59L92 -56V-53L91 -47L92 -44L91 -41L92 -40Q91 -32 83 -22L81 -20H78Q77 -20 76 -27Q75 -27 75 -36V-43V-49L76 -51L75 -53H74L73 -51Q71 -51 70 -49Q68 -49 58 -41L55 -39Q53 -39 53 -36Q51 -35 46 -33H45Q42 -33 39 -44L41 -45L40 -50L41 -59L40 -60L41 -61L39 -65L40 -68L39 -80V-81L38 -83L40 -86L38 -96L39 -98L38 -101L39 -111Q38 -112 37 -127L33 -134V-135Q34 -140 37 -140Q44 -136 44 -134Q48 -136 52 -137Q52 -138 58 -139Q60 -141 67 -143Q67 -144 70 -144Q71 -146 74 -146H76Q76 -149 80 -153Q80 -154 84 -154ZM168 -141L169 -138L168 -135V-132L167 -126H168L171 -127V-126Q175 -130 182 -131Q182 -133 184 -136V-140L185 -144V-145H183ZM51 -127Q54 -125 54 -119L53 -117V-114V-113V-111V-107H56L61 -110H62H63Q63 -112 68 -113Q75 -113 75 -108H74H73L70 -104L69 -105H68Q68 -104 60 -102L55 -99L54 -98V-95V-92V-90Q54 -87 53 -87L55 -85L54 -83L55 -82Q56 -82 56 -83L67 -89Q74 -86 74 -85Q74 -82 58 -77Q56 -74 55 -74V-72L54 -67L55 -66L54 -63L55 -61L54 -53Q58 -54 66 -58Q73 -62 76 -62L75 -65V-66L77 -68Q76 -70 76 -75L77 -77L75 -80V-81L77 -85L76 -87L77 -89L75 -94V-98L76 -113L75 -114V-116Q76 -117 77 -120L76 -124H77Q76 -130 75 -130L76 -136H75L54 -129Q51 -128 51 -127ZM119 -126L117 -127Q114 -126 114 -125L115 -121V-117V-113V-111V-110H116Q118 -110 120 -113L125 -114H127H128V-115L127 -117L128 -130H127Q124 -130 119 -126Z"/>
</svg>