<svg xmlns="http://www.w3.org/2000/svg" viewBox="0 -256 256 256">
	<path fill="#000000" d="M196 -187H205V-186L206 -187Q213 -183 213 -182V-180V-177V-176Q213 -172 209 -172Q209 -171 203 -170Q189 -166 184 -162L167 -155L183 -147Q188 -147 189 -141L190 -138Q187 -134 187 -132V-131L200 -134L220 -140L221 -141L235 -136Q240 -133 240 -131V-125Q236 -121 232 -121H229H226L222 -122H218Q216 -121 215 -121H213L209 -120H204L201 -119L199 -120L189 -117H187H186V-113L185 -108L186 -102L185 -97L186 -95L184 -89L185 -87V-83V-81V-71V-61L184 -56L185 -52V-50L184 -43L185 -40L184 -37L185 -36L184 -34L185 -33V-32L184 -29L185 -19Q182 1 180 1Q180 3 173 11H171Q164 3 164 -5V-7V-9V-11V-14V-18V-31V-33V-35V-41V-45V-46V-49V-50V-52V-67V-69V-81V-84V-86V-89V-93V-95L163 -97L164 -99L163 -106L164 -111H163H162Q160 -109 146 -104L130 -96H129Q126 -96 126 -100Q118 -102 118 -104L116 -108H115L116 -106V-105H115L116 -104Q116 -98 112 -95L104 -81L101 -76Q107 -76 107 -72Q107 -67 100 -67Q100 -66 92 -65L90 -66L88 -64H87L85 -63H83Q80 -62 75 -61Q75 -60 73 -59Q73 -54 66 -48H65Q61 -48 60 -61L56 -78L57 -81H56Q51 -74 46 -70Q46 -68 26 -50L24 -48L22 -49V-48Q22 -45 15 -41V-43Q15 -45 26 -55Q30 -61 35 -68Q39 -73 41 -79Q43 -80 49 -92L51 -95L49 -98L50 -101Q49 -106 48 -107V-108L49 -109H52L55 -107Q59 -107 60 -111L66 -121Q70 -130 70 -137H69Q66 -135 65 -135L54 -148L51 -151V-153Q56 -157 62 -157Q62 -158 71 -160Q76 -162 83 -163L101 -169H103L107 -168L109 -169Q114 -167 114 -164L115 -162Q115 -160 113 -158Q113 -156 105 -154Q101 -153 84 -145Q78 -142 78 -140Q79 -140 81 -136L87 -128V-126Q85 -125 85 -123Q78 -115 75 -108Q73 -107 73 -104L71 -102V-101Q73 -101 77 -104L83 -107Q85 -107 99 -115L101 -116Q109 -113 113 -109L115 -108Q115 -112 116 -112L120 -111L124 -113H128Q129 -114 134 -114Q135 -115 149 -119Q149 -120 155 -122L162 -124L163 -126V-130V-133V-137V-138L162 -140L163 -142Q159 -147 159 -150Q154 -150 153 -153Q148 -158 146 -160Q146 -162 135 -169V-170Q139 -172 143 -172Q146 -176 154 -176Q162 -177 162 -179L172 -180Q174 -180 184 -184Q187 -184 195 -186ZM83 -95V-96Q79 -95 77 -92Q72 -92 70 -90L71 -86V-85L72 -82V-79V-74L73 -73V-71V-69Q81 -74 92 -76V-77L91 -78Q92 -86 92 -95V-98H89Z"/>
</svg>