<svg xmlns="http://www.w3.org/2000/svg" viewBox="0 -256 256 256">
	<path fill="#000000" d="M126 -166Q127 -166 128 -162Q125 -152 120 -152Q113 -145 108 -145Q101 -139 96 -137Q96 -135 87 -133V-132L88 -131L91 -132Q94 -131 96 -126Q99 -126 101 -122V-120Q101 -119 98 -118Q98 -115 96 -115V-113Q95 -112 95 -109Q92 -108 91 -103Q89 -103 87 -99Q82 -95 82 -90H83L86 -92H87V-91Q91 -94 94 -95L95 -96H97V-95H98Q106 -103 109 -103Q109 -106 112 -106Q114 -106 120 -100L122 -101Q124 -99 128 -99Q130 -96 130 -95V-92Q126 -84 122 -79L117 -71Q115 -68 113 -68V-66H117L119 -63V-62Q119 -59 110 -58H109Q109 -56 102 -56L100 -54H98Q98 -53 91 -51V-52Q91 -51 83 -46V-45V-41Q82 -36 78 -30H76Q74 -31 72 -37V-39Q71 -39 69 -47L67 -60H66V-61L67 -63L66 -64H65Q46 -41 40 -35L26 -22L17 -14Q13 -10 11 -10L10 -11V-12L23 -23Q33 -34 33 -36Q45 -51 50 -60Q56 -66 62 -82L64 -84V-86L62 -85Q57 -95 55 -97V-99L56 -101Q65 -96 70 -95L72 -97V-98Q76 -103 76 -107Q82 -114 82 -118Q85 -123 86 -123L85 -125L86 -126L85 -128H82L70 -139Q70 -140 67 -141Q67 -142 64 -142L63 -144Q63 -145 71 -147Q71 -148 79 -149Q83 -152 88 -153Q88 -154 101 -158L114 -163L122 -166ZM194 -164H196Q197 -164 199 -159Q204 -155 208 -155Q208 -154 213 -154Q215 -151 215 -149Q215 -143 211 -139Q211 -138 208 -136V-135Q209 -133 209 -132V-128L208 -127V-124V-121V-120L207 -117Q208 -117 208 -116V-113V-111V-107L207 -97L208 -95Q207 -89 206 -89L207 -82Q206 -80 205 -80L206 -77V-74L204 -72Q206 -72 206 -70L205 -66V-64L203 -59L204 -57Q202 -56 202 -55Q204 -55 204 -54Q204 -52 202 -52V-50L200 -47H201L208 -49L209 -48L212 -49H218Q227 -51 233 -51Q233 -50 239 -48Q244 -44 245 -42V-41H244L245 -40V-38Q243 -35 238 -35L236 -36L234 -35L228 -37H225Q215 -40 201 -40Q199 -40 195 -34Q194 -32 192 -32H190Q186 -34 186 -39H184L183 -40Q183 -38 167 -37L165 -36H163L160 -35H157L154 -33L152 -34Q149 -34 147 -32H146L145 -33L138 -30H137L127 -26L118 -24Q118 -22 108 -22Q106 -22 98 -29V-31L99 -32H103H105Q106 -33 107 -33L109 -32H110L112 -34H116Q116 -36 130 -36Q130 -37 133 -38H135Q140 -38 144 -39H147H148V-40L147 -42L148 -45L147 -47L148 -52V-53L149 -56L148 -57V-60L147 -63L149 -65Q147 -67 147 -75L148 -76Q147 -77 147 -81V-84V-94L148 -97Q147 -97 146 -99H147V-100Q145 -103 145 -105V-108L144 -120L145 -121L143 -123Q143 -124 145 -124V-126Q144 -126 144 -130L137 -144Q137 -147 141 -147Q144 -147 148 -144L159 -148V-149L161 -148L177 -153Q177 -154 180 -154Q183 -157 186 -157Q186 -160 192 -162ZM186 -149Q186 -148 177 -146L175 -144L172 -145L169 -143H168V-144Q163 -140 158 -140Q158 -139 157 -139H156V-138Q161 -135 161 -133L162 -127Q161 -127 160 -124Q161 -117 162 -117Q162 -114 160 -114Q163 -112 163 -110Q174 -115 176 -115L178 -114L181 -115H182Q183 -115 184 -112Q182 -107 174 -104Q172 -104 166 -100Q165 -100 163 -99H161V-97V-96L160 -95Q160 -93 162 -90V-88Q161 -86 161 -85L162 -83V-78Q162 -79 163 -79H166Q166 -80 178 -85H179L183 -79V-78Q183 -77 179 -76L178 -75H176Q176 -73 171 -73Q170 -72 163 -70L162 -71L161 -65L162 -61Q161 -49 159 -45L158 -42L163 -41L165 -42H168L176 -45L178 -44H179L180 -45H186Q186 -51 187 -51L186 -53L187 -60V-64L186 -67Q187 -67 188 -69Q187 -69 186 -71L187 -72V-75V-76L188 -77L186 -84L187 -87L186 -90V-91L188 -93Q186 -95 186 -96V-102V-111H187V-112L186 -113V-114Q186 -115 187 -115V-116L186 -117L187 -119L186 -126V-128L187 -132Q186 -141 185 -142V-145Q185 -146 187 -146L188 -147ZM87 -82H86L84 -83L81 -81L82 -77L81 -75V-73Q81 -72 83 -71V-70Q83 -69 82 -69V-66L81 -65L82 -63V-61Q83 -61 83 -60Q87 -60 89 -62Q102 -65 102 -67L105 -76L104 -79V-81L105 -84L104 -86L105 -87L103 -89Q101 -88 97 -87Q97 -86 87 -83Z"/>
</svg>