<svg xmlns="http://www.w3.org/2000/svg" viewBox="0 -256 256 256">
	<path fill="#000000" d="M186 -188H188Q193 -186 200 -185Q206 -182 206 -177Q203 -171 198 -171Q198 -170 192 -170Q191 -169 187 -168V-167L184 -168Q172 -162 170 -162Q170 -160 180 -158Q181 -156 189 -154L190 -152V-151L189 -149V-147V-143Q187 -142 187 -141L188 -139Q187 -137 187 -136V-135L188 -133Q190 -133 191 -137Q193 -137 193 -140Q193 -140 193 -141Q196 -144 197 -148Q199 -152 200 -153Q202 -156 202 -158Q201 -163 201 -165Q201 -166 202 -167H203Q205 -166 206 -166Q207 -166 208 -166Q212 -166 220 -160Q221 -160 222 -155Q220 -153 216 -152Q209 -148 208 -147Q207 -147 204 -143Q201 -140 199 -138L198 -139Q197 -135 188 -130Q188 -130 187 -128Q187 -127 188 -127Q190 -130 197 -130Q197 -130 198 -131H200Q200 -133 210 -134Q210 -135 215 -136Q220 -138 221 -138Q223 -135 231 -132Q233 -130 233 -128Q233 -125 232 -125H231Q230 -125 230 -126Q227 -125 224 -125H223Q223 -125 223 -126Q221 -125 220 -125L217 -126Q216 -125 208 -125L203 -123Q200 -123 198 -123L192 -121H190Q190 -121 190 -121L188 -120L186 -121Q186 -120 185 -119Q187 -117 187 -115Q187 -114 187 -112Q187 -112 187 -110Q186 -110 186 -109V-108V-105L189 -106H192L193 -105H194L195 -106Q196 -106 197 -105Q200 -106 205 -106H207Q207 -106 208 -106Q209 -107 214 -107L217 -106Q218 -107 220 -107Q220 -106 221 -106Q221 -107 222 -107H223Q229 -103 229 -100L231 -98V-97Q228 -95 228 -91H224Q223 -93 222 -94Q222 -93 221 -93H220Q219 -95 213 -97Q212 -96 211 -96Q211 -96 210 -98H209L208 -97Q207 -97 206 -99Q204 -98 201 -98Q201 -98 200 -100H199H197Q197 -101 193 -102Q193 -103 192 -103L190 -101L187 -103Q186 -103 186 -99Q186 -99 186 -97Q186 -96 186 -95V-94Q186 -93 184 -87V-85L185 -81L184 -79Q184 -78 184 -77Q183 -75 183 -72Q185 -73 190 -75Q191 -74 192 -74Q192 -75 197 -77L199 -76Q199 -77 201 -79H203Q203 -79 203 -78Q209 -81 212 -81Q212 -81 213 -81Q217 -81 217 -80H218H219Q220 -79 225 -78Q227 -76 233 -73L236 -68Q232 -64 232 -57Q231 -57 231 -56V-53Q231 -51 229 -50Q230 -49 230 -48Q229 -46 228 -34L226 -29L227 -26Q225 -25 223 -10Q219 -2 211 3Q210 3 205 7H203Q203 7 201 4Q201 3 203 3V2Q202 1 201 -3Q202 -5 202 -6Q201 -6 201 -9Q200 -9 199 -14Q198 -14 197 -16L198 -18V-19Q198 -19 197 -19Q197 -18 193 -18Q193 -18 192 -18L185 -15H184L182 -16Q182 -15 180 -14Q175 -13 159 -6H158L159 -3V-2L152 5H150Q149 4 145 -4Q144 -4 144 -6L145 -9Q144 -10 144 -12H145L143 -20Q143 -21 143 -22Q142 -22 142 -24V-26Q142 -28 139 -42Q139 -45 136 -49Q134 -56 131 -60V-62H133Q136 -62 137 -59Q145 -62 154 -63Q156 -66 159 -66H160L161 -65Q164 -68 172 -68Q171 -72 169 -76Q169 -76 170 -76V-79Q170 -79 169 -79L170 -81Q170 -81 170 -82Q170 -85 170 -86V-89Q170 -93 172 -93V-94L171 -95Q171 -98 171 -99Q171 -102 170 -102H169V-100Q169 -96 160 -90Q160 -88 150 -81Q147 -77 141 -73Q140 -72 136 -70Q134 -68 133 -68L132 -69Q146 -81 150 -88Q156 -95 156 -96Q156 -97 161 -103Q161 -105 166 -111V-112H165Q162 -111 156 -110Q143 -104 139 -103H138Q133 -106 132 -108Q129 -109 129 -110Q129 -111 137 -113Q137 -113 140 -115H142Q142 -115 142 -115Q147 -117 154 -117Q150 -119 150 -121V-123Q150 -125 150 -126Q149 -126 148 -138Q146 -144 145 -145V-147Q145 -148 146 -148H147L152 -142Q154 -142 156 -138Q158 -138 159 -135Q160 -135 160 -133Q160 -133 160 -132Q162 -132 162 -128V-125Q162 -123 160 -121L161 -120Q166 -122 170 -123Q171 -124 171 -128Q171 -128 171 -129L172 -135Q171 -137 171 -138V-142Q171 -142 171 -142Q170 -143 170 -145Q170 -145 171 -146Q169 -151 168 -160H166Q164 -160 157 -156Q157 -156 155 -157Q155 -158 165 -165Q185 -180 185 -186Q185 -187 186 -188ZM131 -152Q133 -150 136 -150Q136 -148 137 -147Q137 -147 133 -140Q132 -140 125 -135Q114 -129 111 -126Q99 -120 98 -119V-118Q100 -118 101 -116Q103 -116 104 -112Q105 -112 106 -110V-108Q104 -102 99 -95Q91 -84 91 -82H93Q95 -84 100 -84Q100 -85 102 -85H103H104L114 -94H115Q117 -91 128 -89Q132 -87 132 -83V-82Q132 -81 130 -78Q130 -77 124 -68Q122 -62 120 -60V-59Q121 -59 124 -52Q124 -52 126 -51V-50Q124 -46 119 -46Q118 -46 114 -43H112H111Q108 -41 89 -35Q85 -33 85 -32Q85 -30 83 -21Q82 -18 80 -17H79Q73 -23 73 -31Q73 -32 73 -35V-36Q70 -38 70 -44Q70 -46 69 -49Q69 -51 69 -53V-54H68Q65 -50 64 -49Q63 -45 53 -36Q53 -34 34 -17Q29 -12 25 -10Q25 -9 22 -7H21Q20 -7 20 -9Q20 -10 30 -17Q32 -18 36 -24Q39 -26 42 -31Q45 -33 48 -39Q52 -44 54 -44L53 -47Q55 -47 57 -51Q58 -52 59 -52V-55Q60 -56 68 -66Q69 -66 69 -70Q69 -74 68 -76V-77V-78V-79Q67 -79 66 -87Q63 -91 62 -92V-93Q62 -93 63 -94H64Q66 -94 71 -91Q73 -89 77 -89Q78 -87 78 -86Q82 -88 82 -92Q83 -92 84 -97Q86 -98 88 -106H89V-107V-109Q90 -110 91 -113L90 -114H89Q88 -114 86 -112H85Q80 -117 76 -123Q75 -123 72 -127L66 -131Q66 -132 71 -133Q71 -134 81 -136Q82 -136 88 -138Q94 -140 101 -141Q101 -143 109 -145Q115 -148 117 -148Q124 -150 126 -150Q127 -150 128 -150Q128 -150 131 -152ZM110 -79Q110 -77 107 -77L105 -78Q105 -75 97 -75Q97 -74 94 -73L93 -74Q92 -74 91 -71Q86 -71 83 -69Q84 -65 84 -64Q83 -64 83 -63L84 -56V-54V-50L85 -48Q84 -46 84 -45Q84 -44 84 -43H87Q88 -43 91 -46L94 -45Q94 -47 102 -48Q104 -51 106 -51H108Q109 -57 110 -59Q110 -59 109 -59V-69Q109 -69 110 -69V-70V-74Q110 -74 111 -76Q111 -78 111 -79ZM207 -71Q207 -69 206 -69Q206 -70 204 -71Q202 -69 197 -69Q197 -68 195 -68H194Q190 -66 183 -65Q183 -65 182 -65Q182 -65 181 -65V-63Q184 -63 184 -61H187Q188 -61 189 -57Q186 -56 186 -52H185Q186 -49 188 -49Q192 -52 194 -52L196 -51Q196 -52 197 -52Q199 -52 202 -48V-46Q202 -46 196 -44Q196 -44 193 -44Q193 -43 189 -42V-43L186 -40Q184 -40 184 -32Q183 -32 182 -26Q181 -26 181 -25V-24Q189 -25 195 -27H197Q201 -24 201 -23H203V-25Q203 -26 206 -30L205 -33Q208 -34 208 -35H206V-36Q206 -36 207 -38V-39Q209 -41 209 -43L208 -45Q208 -46 210 -48V-49L209 -51V-53L210 -54V-55Q210 -57 209 -57Q210 -61 210 -62V-66Q210 -66 209 -66V-70V-71ZM167 -60H164Q164 -60 161 -58H160L159 -59Q156 -57 150 -56H148Q148 -56 147 -56L151 -52V-48L154 -39H156H158Q158 -40 159 -40H162Q162 -42 171 -44V-51V-54Q170 -55 170 -56Q170 -56 171 -57L170 -60L171 -61H169ZM154 -35V-34L155 -32Q155 -31 154 -31Q155 -28 155 -27Q154 -25 154 -23Q156 -23 156 -21L155 -18Q155 -18 157 -16V-15V-12Q159 -12 161 -15Q164 -15 170 -19Q172 -19 172 -29Q172 -32 171 -34V-36H170Q168 -35 163 -34L155 -36Q154 -36 154 -35Z"/>
</svg>