<svg xmlns="http://www.w3.org/2000/svg" viewBox="0 -256 256 256">
	<path fill="#000000" d="M170 -197H171L173 -194L178 -191Q178 -190 186 -189Q189 -187 189 -185L187 -183L189 -181Q187 -176 179 -173Q178 -171 173 -169V-167H176Q177 -168 187 -171V-172L190 -171L205 -177H209Q214 -175 214 -173V-171Q210 -165 205 -163Q202 -163 190 -159Q181 -158 181 -156H180Q177 -156 173 -162L168 -164Q168 -161 166 -161Q159 -153 155 -153L153 -149Q153 -148 150 -148Q150 -146 141 -138Q132 -129 129 -129L128 -130V-131L132 -133Q132 -134 136 -138Q140 -146 144 -150Q146 -157 149 -157Q149 -158 151 -161V-163Q155 -167 157 -171L162 -180L164 -188L162 -193Q163 -195 170 -197ZM90 -188H92L96 -184L114 -177Q115 -175 116 -170Q115 -163 111 -163H109L106 -160H107Q110 -160 121 -163Q126 -165 132 -166Q132 -167 137 -169H138H141L145 -166V-165Q145 -161 137 -159Q136 -158 127 -156Q127 -154 117 -152Q116 -151 114 -150Q114 -151 110 -152Q108 -156 103 -157Q103 -156 98 -152Q98 -150 91 -147V-144Q90 -144 87 -141L78 -135L73 -130Q70 -126 65 -124Q64 -121 55 -115L45 -107L42 -106V-107V-108Q56 -120 57 -124Q61 -128 63 -129L67 -137Q71 -140 80 -155Q89 -167 89 -177Q83 -182 83 -184Q83 -185 90 -188ZM160 -149H162H164H165Q173 -147 177 -147H180L187 -143Q190 -139 190 -135Q190 -129 179 -128Q174 -130 173 -135Q171 -135 171 -138Q169 -138 159 -148ZM94 -145L106 -143Q106 -141 110 -141Q114 -136 114 -131V-130Q114 -125 106 -123H105Q102 -124 101 -129Q100 -129 98 -135Q96 -135 96 -136V-137L97 -138V-139Q97 -140 93 -141L91 -144ZM159 -131Q163 -131 167 -127L174 -124Q179 -123 179 -119V-118Q179 -113 170 -110Q168 -110 167 -109H166V-110Q159 -108 151 -105Q145 -104 142 -101L141 -102Q140 -101 139 -97L140 -93L139 -88Q141 -88 141 -83H142Q144 -85 150 -85Q150 -86 158 -87Q159 -89 161 -89L164 -88Q168 -92 181 -95H182Q182 -96 187 -97L192 -99Q199 -95 201 -91Q202 -91 205 -88Q208 -88 208 -85L207 -83V-82Q199 -71 190 -52Q177 -41 173 -40L172 -39H170L169 -41Q169 -45 170 -46Q168 -46 168 -48V-50Q167 -50 165 -56Q162 -60 159 -61V-63L160 -64Q164 -62 172 -62Q177 -70 179 -76Q180 -76 183 -84V-85Q183 -86 181 -86Q174 -86 169 -84V-85L164 -82L162 -83H161Q159 -81 153 -80Q145 -78 142 -77Q142 -74 138 -74Q139 -70 140 -70H141Q141 -72 142 -72H144Q145 -72 147 -68L151 -63V-62Q145 -56 140 -56V-55H139L140 -48V-46L141 -33L140 -31L141 -28Q141 -26 140 -26L141 -11V-9L142 0Q140 14 136 19L134 21H133Q128 18 128 9V-1L127 -5Q127 -8 128 -8Q126 -11 126 -21V-24L125 -25L126 -29V-30Q126 -32 125 -33L126 -41H125L118 -35L105 -24L92 -14Q85 -8 73 -1Q73 0 69 0L62 6H60L59 5Q60 2 66 0Q72 -4 87 -16Q88 -16 90 -19Q96 -22 96 -25Q112 -36 114 -43Q120 -49 124 -54L126 -55L125 -58V-64V-71Q120 -68 116 -67Q115 -65 111 -64Q102 -58 96 -51H94H93Q89 -54 87 -58L90 -67L91 -68L90 -74L91 -78V-85V-88Q90 -88 90 -91Q88 -92 88 -95L90 -96H92Q97 -92 103 -90H104L110 -93Q111 -93 112 -95H114V-94Q115 -96 118 -96Q118 -98 121 -99L122 -100V-101L121 -103L123 -106Q121 -108 120 -114L119 -116V-118Q117 -118 117 -119V-121Q120 -127 122 -127Q125 -123 135 -122Q141 -122 141 -117Q142 -117 142 -115L141 -114L142 -113Q154 -119 154 -123Q156 -131 159 -131ZM105 -87L106 -86V-85Q106 -83 105 -81L106 -80Q106 -79 105 -79L104 -78V-77Q104 -73 105 -73L109 -74L110 -73Q114 -76 119 -76Q119 -77 123 -77L124 -78L123 -80L124 -82Q123 -83 123 -85V-87V-90V-93Q123 -94 121 -94Z"/>
</svg>