<svg xmlns="http://www.w3.org/2000/svg" viewBox="0 -256 256 256">
	<path fill="#000000" d="M170 -192L183 -186L185 -179L182 -175H188L191 -176Q198 -176 206 -178Q207 -178 210 -175L212 -173V-172Q212 -170 202 -168H201H196H191L189 -167L187 -168L174 -166Q174 -165 170 -164Q170 -162 164 -159V-158Q170 -156 176 -156Q176 -155 180 -155Q186 -149 186 -147L185 -146L186 -138Q185 -136 175 -135Q168 -144 168 -147Q165 -149 164 -153Q160 -155 159 -155Q149 -149 136 -143H133V-144Q138 -146 146 -152Q153 -158 153 -161Q153 -162 156 -163L160 -168L163 -176Q163 -177 165 -181V-182L161 -185V-186Q165 -192 170 -192ZM98 -182Q102 -177 110 -177Q112 -175 114 -172L113 -171L114 -168L113 -167L114 -165Q119 -166 139 -173Q145 -173 148 -167Q147 -163 135 -162Q135 -161 126 -159L121 -156H120L113 -162H111L102 -156V-154Q102 -153 108 -152L109 -151H110Q120 -149 123 -145V-141Q119 -135 118 -135L115 -134Q111 -134 103 -145Q98 -151 98 -152H97Q84 -143 66 -134Q66 -133 58 -130L57 -129Q56 -129 56 -131Q56 -132 63 -135Q70 -140 74 -144Q80 -150 89 -164L92 -171V-172L91 -180ZM154 -142Q155 -142 161 -137L164 -136L165 -137Q166 -135 171 -134L173 -131V-129L168 -118Q173 -118 176 -121H177Q178 -117 182 -117L185 -111Q185 -105 179 -104H177Q165 -103 161 -101L159 -100L157 -101Q157 -98 153 -91L145 -79L146 -78Q144 -78 138 -71L135 -70Q133 -70 133 -71V-72Q135 -76 136 -77V-78L139 -86L138 -89L140 -90L139 -92Q139 -93 141 -93V-95Q142 -96 142 -99Q140 -102 138 -102Q138 -103 136 -103L134 -105Q134 -108 139 -108L142 -109L143 -108Q145 -108 145 -111Q146 -111 146 -116L148 -117V-119L147 -120V-121V-123V-125Q146 -131 144 -131L142 -134Q142 -135 149 -140Q149 -142 154 -142ZM99 -127H100Q104 -123 108 -123Q111 -121 121 -119Q123 -117 123 -115L122 -113L123 -111L122 -109V-107Q122 -106 120 -106V-105L121 -104L127 -106Q130 -106 134 -103V-101Q133 -99 127 -99Q127 -97 120 -95Q119 -80 118 -80L117 -79Q121 -79 126 -75Q131 -75 133 -65L142 -67H144L145 -68L147 -67L156 -68L159 -67Q160 -69 164 -69Q164 -70 174 -71V-72H181Q202 -76 204 -77L217 -71Q220 -68 222 -63Q222 -61 219 -58H214L212 -59L210 -58L207 -62L205 -61L196 -63L194 -62L187 -64Q183 -63 174 -62Q174 -61 172 -61L163 -62L160 -61L158 -62Q156 -62 154 -61H152H151H148Q148 -60 135 -59H133L131 -61Q129 -53 124 -50Q124 -48 119 -44Q119 -41 113 -39H112V-38H117L121 -37L125 -38H129L132 -39V-38Q134 -40 146 -41Q153 -44 162 -45Q162 -46 172 -49L175 -50H176Q179 -47 187 -45Q193 -38 193 -35V-34Q193 -31 186 -25Q174 -13 173 -9L178 -5L180 0L177 5H176L175 4L173 5L163 4L155 5V4L152 5H146L142 6H141V5L137 6H130V7L131 8Q131 11 125 16H124Q117 14 117 7L116 5V3L113 -13V-14L111 -16L112 -19Q110 -19 110 -22Q109 -22 107 -27L108 -29Q107 -29 107 -30H106Q97 -22 93 -20Q91 -17 86 -14Q85 -12 74 -6Q74 -5 67 -3Q64 2 35 13H34Q34 10 44 7Q44 6 53 2Q53 1 57 0L68 -9Q76 -16 80 -21Q89 -31 97 -40Q97 -43 102 -48Q102 -49 109 -55V-56H105L103 -55H101Q101 -54 94 -53L90 -52L87 -53Q87 -51 78 -50Q78 -49 72 -48L66 -47Q66 -46 60 -45Q60 -44 56 -44Q56 -43 51 -42L50 -41H48Q39 -49 35 -49L34 -50V-52H35H40Q40 -53 56 -54Q61 -55 73 -56H75Q78 -58 105 -60Q105 -61 107 -61H111Q111 -63 112 -65L111 -68V-69V-72Q110 -72 109 -74Q109 -79 110 -79Q110 -80 106 -83V-86V-87Q105 -89 105 -91H104Q104 -89 100 -89Q100 -87 94 -86Q94 -85 91 -85L87 -83V-82H86Q83 -82 82 -87L75 -94Q73 -94 73 -95Q73 -96 80 -98H81L96 -100L97 -99L99 -101L102 -100L103 -101Q102 -103 102 -107H99Q98 -107 95 -113Q91 -114 91 -117L90 -120Q90 -125 99 -127ZM159 -34L157 -35Q145 -33 138 -32H135Q133 -30 130 -30Q130 -28 129 -28L126 -29V-28L128 -19H127L129 -11H128V-10L129 -9V-5H132H136L145 -7H151Q159 -8 159 -9Q159 -11 160 -13V-16Q160 -17 162 -19L161 -22L163 -32V-33V-35V-36H161Z"/>
</svg>