<svg xmlns="http://www.w3.org/2000/svg" viewBox="0 -256 256 256">
	<path fill="#000000" d="M164 -193H167Q172 -188 181 -185Q185 -182 185 -178V-175Q185 -171 180 -169L174 -164V-163H176Q178 -165 184 -165Q186 -168 198 -171Q208 -170 208 -166Q206 -158 199 -158L183 -154Q182 -153 180 -153Q175 -157 172 -157Q172 -158 171 -158H170L150 -140Q147 -139 145 -136L141 -133L134 -128H133L132 -130Q145 -142 146 -147Q150 -151 152 -156Q158 -167 161 -179V-180L158 -186Q158 -192 163 -192ZM95 -184Q100 -184 100 -178Q103 -176 105 -173Q112 -169 113 -168L115 -163H116V-160L114 -158Q117 -158 125 -162Q127 -162 131 -165Q142 -168 144 -168L151 -166V-165Q151 -162 137 -158Q137 -156 132 -155H128Q123 -151 121 -151L115 -154Q115 -155 113 -155Q106 -153 102 -148Q100 -148 88 -138L82 -134L71 -127Q70 -127 48 -109H47L46 -110Q46 -111 63 -126Q83 -152 84 -160Q85 -160 87 -171L83 -176Q85 -180 95 -184ZM161 -146H168Q180 -143 180 -141Q183 -140 187 -133V-131Q183 -126 181 -126L184 -122Q184 -121 179 -117H176Q168 -116 168 -115L165 -116L148 -111Q144 -108 140 -108Q140 -105 127 -102Q127 -100 122 -99V-98Q122 -97 126 -95Q126 -94 129 -94Q129 -91 136 -91Q138 -88 138 -85Q135 -76 134 -71L135 -70L134 -68V-64Q133 -63 133 -61V-53L142 -60H144L145 -59V-58L135 -48Q132 -47 132 -46L133 -41V-40Q133 -36 132 -34V-30V-29V-26V-25Q129 -18 125 -13H123Q121 -16 119 -23V-31V-36H118Q118 -31 109 -25L100 -18Q96 -18 91 -24Q91 -25 96 -27Q110 -35 111 -36Q119 -40 119 -42V-44Q120 -46 120 -49L119 -53L120 -54L119 -58V-59L120 -61L119 -63V-64L120 -66L119 -69V-74V-75V-77V-81Q119 -86 114 -91V-92L117 -95V-97H116L114 -95H111Q111 -93 107 -92Q94 -101 91 -101V-102Q91 -104 100 -105Q100 -106 110 -109Q110 -110 132 -115Q136 -118 143 -118Q143 -119 149 -120H151Q159 -123 170 -126Q172 -127 172 -128Q164 -141 160 -144V-145ZM101 -142H102Q109 -140 113 -140Q118 -136 121 -128Q119 -125 118 -122Q112 -117 110 -117Q108 -117 108 -120L106 -122V-125Q106 -127 102 -135L100 -141ZM150 -108L158 -104H160Q160 -103 163 -103H165H166Q168 -103 169 -95L168 -93Q174 -93 177 -95H178Q181 -97 187 -99H188Q192 -99 193 -94Q193 -90 188 -90Q188 -89 180 -89Q180 -87 175 -87Q175 -85 168 -85Q165 -82 165 -77V-74L164 -72L165 -69L164 -68L165 -67Q168 -67 171 -69L178 -71Q180 -71 181 -72L184 -73H188Q191 -73 192 -70V-69Q190 -66 180 -64L165 -60Q164 -54 163 -52L164 -50L163 -47L164 -44V-43H167L180 -47Q180 -48 190 -50H192Q192 -49 195 -48Q197 -45 197 -42Q197 -39 193 -37H190L188 -38L186 -37L179 -38L175 -37L172 -38Q172 -36 170 -36L169 -37Q165 -36 164 -36L163 -32Q165 -31 165 -29V-27Q163 -18 158 -11L157 -9H160L165 -11H172L193 -15H195V-14L196 -15Q208 -14 208 -7L209 -6V-5Q206 4 197 4H195L194 3L188 4H186L179 5L177 4Q172 5 171 6H167H162L159 7L155 6Q141 9 136 9H132Q127 9 119 12H108Q106 13 105 13H104Q98 13 98 14H95H92L89 17Q83 17 80 12Q78 10 77 5Q76 5 74 -6V-9Q74 -19 72 -24V-28L73 -34L72 -36Q72 -45 70 -54L71 -56Q71 -63 65 -72Q65 -76 68 -77Q70 -77 78 -69L84 -67Q87 -67 89 -62V-60Q88 -56 87 -43V-42Q86 -41 86 -37V-34V-31Q86 -17 85 -14L87 -7L86 -6Q86 -1 89 1L93 0H96L98 -1H100Q123 -4 138 -7H139H141L153 -9L151 -15V-17V-24V-26V-32V-33Q151 -36 152 -36Q151 -36 150 -44H151V-45L150 -47L151 -50H150L152 -56Q151 -56 150 -67L151 -70V-72L150 -80L151 -82L150 -90V-93L149 -95V-99L146 -104Q147 -108 150 -108ZM113 -78H117L118 -77V-75Q113 -71 110 -71Q110 -68 105 -68L102 -65H101L95 -70Q96 -73 101 -73Q102 -75 113 -78ZM111 -58H112L117 -55Q117 -51 111 -51Q102 -46 101 -46H100Q95 -46 95 -48V-49Q95 -50 99 -51Q102 -54 111 -58Z"/>
</svg>