<svg xmlns="http://www.w3.org/2000/svg" viewBox="0 -256 256 256">
	<path fill="#000000" d="M157 -194Q162 -191 170 -188L176 -182V-180Q166 -172 166 -170Q170 -170 182 -174Q182 -175 188 -176Q193 -180 200 -180Q209 -177 209 -172Q209 -168 192 -165V-166L189 -162H188Q186 -162 186 -163L174 -160L165 -167H164Q163 -167 163 -165Q161 -163 157 -162V-161Q157 -160 168 -158L169 -157Q179 -154 179 -149V-148Q179 -144 171 -143H167Q161 -148 160 -152Q158 -152 156 -155L154 -158Q150 -154 138 -148L133 -144Q130 -141 128 -141H127L126 -142V-143Q136 -150 139 -155Q142 -158 142 -162Q143 -162 143 -165Q146 -165 149 -175L151 -181Q151 -184 147 -188Q147 -191 157 -194ZM84 -185Q105 -177 105 -174V-171L104 -168H105Q109 -168 111 -170H114L131 -174H134Q138 -171 140 -168Q139 -163 135 -163Q122 -161 111 -157Q106 -159 100 -165Q100 -164 94 -161Q89 -157 88 -155Q84 -153 81 -149Q75 -146 72 -142Q69 -142 66 -138Q64 -138 58 -133L44 -124Q41 -124 40 -123L39 -124Q39 -126 48 -131L62 -144Q66 -150 68 -155L73 -161L80 -172V-173Q80 -174 78 -176L80 -178Q76 -179 76 -180Q78 -183 84 -185ZM93 -157Q97 -157 98 -154L99 -155H100Q102 -155 106 -152Q111 -152 113 -148Q114 -148 116 -145V-144Q116 -137 112 -135Q110 -135 110 -133H109Q108 -133 108 -135H107H106Q102 -135 101 -141Q97 -144 93 -154L92 -155V-156ZM151 -146Q156 -142 158 -142Q160 -140 164 -139Q167 -136 170 -135V-133Q166 -128 163 -117Q159 -110 159 -106Q160 -106 161 -104H160L158 -105Q155 -100 154 -93Q152 -90 147 -89Q146 -86 145 -86H144L139 -93Q135 -90 133 -90Q133 -89 132 -89H129Q118 -84 116 -84Q114 -84 110 -88Q110 -90 126 -95Q127 -97 132 -97Q135 -99 137 -99Q142 -101 142 -103L141 -104L142 -108V-110Q143 -112 143 -114Q143 -126 145 -129L143 -130Q139 -130 133 -128Q117 -124 109 -119V-118L108 -119Q106 -119 101 -114L110 -107Q114 -108 119 -112Q127 -114 132 -120H134Q135 -120 140 -116L141 -114Q138 -108 134 -108L125 -104L120 -102H118L110 -106H109L108 -97L109 -95L108 -93L109 -92Q108 -90 108 -89V-84V-78V-77L109 -68L108 -65H109Q113 -68 119 -70Q126 -74 129 -74Q126 -78 123 -78Q123 -79 119 -79L118 -81Q118 -83 121 -83H122L129 -81L133 -82L141 -80L154 -89Q156 -91 158 -99H160L170 -93Q173 -93 173 -90Q170 -85 155 -82Q155 -81 151 -81Q147 -79 147 -78Q158 -76 170 -72Q174 -69 176 -65Q174 -59 171 -59H168L167 -58Q174 -54 178 -53L184 -47V-46L182 -42Q182 -40 180 -39Q170 -19 167 -15V-14H170L173 -16H174L175 -15Q175 -16 189 -17Q189 -18 196 -18H197L200 -16H201Q215 -11 215 -7L216 -2Q216 1 208 2Q208 0 192 -3H191Q188 -4 172 -5Q172 -6 167 -6L165 -5L164 -6Q160 -6 156 -1L151 3H150Q149 3 148 -4V-6H147L138 -4H134L128 -2L125 -3L113 0H111L108 2L105 1L100 2H99Q97 4 89 4Q89 5 82 6L80 7Q77 8 77 9L75 10H73L62 15L59 18H56Q55 18 53 13Q48 9 45 9Q44 9 44 8Q44 5 45 5H47L72 0L84 -2L89 -3H90L92 -4L91 -8V-9L90 -17L91 -18L87 -28L82 -36V-40Q82 -41 83 -41Q85 -41 92 -37H93Q94 -39 99 -39Q99 -41 111 -43Q111 -44 120 -45L129 -48L145 -52Q147 -52 153 -55L161 -57H162V-59Q161 -59 153 -63Q150 -63 148 -67Q143 -67 135 -72H134Q133 -73 131 -73Q130 -73 130 -71Q128 -70 124 -66Q118 -63 113 -57Q106 -52 99 -44L95 -42Q91 -42 90 -51H89V-53Q91 -54 92 -59Q94 -60 97 -79L96 -83L97 -89Q94 -110 91 -110Q89 -110 88 -115V-116Q88 -117 92 -117L93 -118L89 -122Q89 -123 98 -125Q98 -126 110 -129Q110 -130 115 -131L116 -132H119Q126 -135 132 -138H134H137Q138 -140 143 -140Q145 -141 148 -145ZM144 -44H143Q140 -42 138 -42H136V-41Q142 -38 144 -35Q144 -32 137 -22Q137 -20 135 -18Q133 -13 129 -11V-10H130V-9Q134 -10 142 -11H143L147 -12L149 -11V-12L151 -20L154 -33Q155 -33 155 -36V-37L156 -45H150H149ZM115 -36H111Q105 -34 101 -31Q103 -31 104 -17Q105 -17 105 -14V-7L106 -6L113 -7H115Q117 -8 123 -9Q123 -12 127 -23L129 -34V-39L128 -41Q116 -38 115 -36ZM111 -34Q116 -34 120 -26V-20V-18Q116 -14 115 -13Q110 -13 109 -21L110 -22L109 -32Q110 -34 111 -34Z"/>
</svg>