<svg xmlns="http://www.w3.org/2000/svg" viewBox="0 -256 256 256">
	<path fill="#000000" d="M154 -204H155Q164 -195 170 -195Q175 -192 175 -189Q172 -181 168 -181Q168 -178 163 -174V-173Q163 -172 164 -172L171 -175Q173 -175 180 -178Q184 -178 190 -182Q201 -179 201 -175V-174Q199 -168 190 -168L180 -167L165 -164H164Q161 -164 158 -167L156 -166V-164Q154 -163 151 -158L144 -150Q139 -148 139 -145Q138 -145 138 -144Q134 -142 129 -137L126 -136V-137Q126 -139 131 -144Q143 -166 143 -169L146 -174V-175L152 -193Q152 -195 148 -200Q151 -203 154 -204ZM86 -190Q88 -190 94 -183L98 -179Q100 -179 103 -175V-174V-172V-171Q107 -175 125 -179Q125 -177 131 -176Q135 -173 135 -171Q135 -164 119 -162L113 -159H111L110 -160Q110 -158 103 -158L102 -156H100L94 -160Q92 -160 90 -156Q89 -156 89 -153L77 -142Q69 -135 65 -135Q65 -131 59 -130L50 -122H49L47 -123L58 -132Q64 -140 78 -165L82 -179L81 -181V-183Q80 -184 80 -186V-187Q82 -190 86 -190ZM157 -159L164 -157Q164 -156 170 -156Q173 -154 176 -150V-144Q176 -142 172 -139H169Q169 -137 168 -137H166L164 -142Q162 -142 157 -155L155 -157V-158ZM91 -153H92Q94 -153 95 -152L96 -153H97L100 -152L103 -153Q111 -149 111 -143V-140Q111 -139 108 -137Q108 -135 104 -132Q98 -132 97 -141L90 -151V-152ZM159 -139H161Q169 -133 169 -132Q171 -132 175 -128V-126L173 -123V-118Q171 -114 170 -106Q169 -106 169 -101Q168 -101 167 -97V-95Q167 -92 160 -86Q160 -84 154 -83Q152 -87 152 -89V-91H151V-92Q136 -86 131 -86H129L130 -85V-84Q130 -83 126 -79Q126 -77 125 -77H124Q123 -77 121 -81Q120 -81 118 -87V-89V-90V-91Q118 -92 119 -94V-95L118 -97L119 -99Q118 -114 115 -120L116 -123L114 -125L115 -126Q120 -126 123 -122H124Q126 -124 133 -126H134H136Q146 -130 152 -134Q153 -134 157 -138ZM149 -126H148H145Q145 -125 134 -120L132 -121L128 -119Q130 -114 131 -114L130 -112L131 -109H133L145 -114Q151 -113 151 -112V-111Q151 -109 149 -108L147 -109L142 -107L139 -108Q134 -104 130 -104L131 -100V-98L130 -95L131 -94V-93L130 -91V-90H134Q137 -94 152 -95Q154 -115 155 -116L154 -117V-122L155 -123L154 -125L156 -127L155 -128ZM72 -116H74Q87 -116 90 -113Q94 -113 96 -108V-104Q96 -101 90 -98H86Q82 -99 80 -104L71 -114V-115ZM202 -89Q211 -89 212 -84Q212 -80 209 -78L204 -79H197H193L189 -78L187 -79H179L175 -78L172 -79Q168 -77 151 -75L127 -69Q136 -59 137 -59L138 -54L145 -55H148Q152 -57 156 -57L158 -56L161 -57H165Q166 -58 174 -59H175V-58L183 -60Q183 -63 189 -63Q194 -55 200 -55H203Q206 -51 206 -49V-46L199 -40Q199 -36 194 -26Q194 -23 184 -3L180 4Q176 13 165 22Q153 29 149 29H147Q146 29 146 25Q147 23 148 15L147 6L148 5H149Q153 9 155 9Q159 6 165 -4Q166 -6 171 -17Q172 -17 178 -37Q178 -40 180 -46L179 -49L181 -52V-53L175 -52V-53L172 -52H162V-50L170 -41V-40Q168 -37 165 -37V-36L166 -35L152 -15L149 -11L148 -10V-9Q132 10 124 13Q119 18 112 21L108 24H107V23Q108 20 112 20Q112 18 122 11Q128 6 130 3Q139 -6 143 -15Q144 -15 148 -25L150 -28L156 -41V-44L155 -48L156 -50L154 -51L147 -50H145L150 -42Q149 -42 135 -27Q134 -27 133 -25H131H130Q130 -24 128 -24Q128 -21 121 -17L114 -10H113L112 -11V-13Q131 -28 132 -36Q137 -41 137 -44Q139 -44 139 -46V-48L138 -49H135L132 -48H129Q124 -46 121 -41Q118 -41 112 -36L105 -32H104Q104 -31 98 -28Q98 -27 92 -24L91 -26L107 -39Q107 -41 114 -50Q114 -52 118 -59L120 -62V-65L119 -66H116Q114 -63 107 -63Q107 -61 96 -59Q94 -59 93 -62Q91 -62 89 -64H88Q87 -59 85 -57L86 -54L81 -41V-35Q81 -23 85 -19L88 -12L90 -7Q90 0 84 3L80 2H78L72 -5Q69 -7 64 -15Q58 -20 58 -27L56 -29V-30L58 -32L67 -30V-31Q68 -33 73 -40Q76 -47 81 -56Q82 -56 82 -60Q83 -60 85 -65Q86 -65 86 -68L88 -70V-77L89 -78H91L93 -77L90 -68L91 -67L110 -72L121 -74Q135 -77 140 -77H142Q148 -79 169 -82L170 -83H173L175 -84H177H179L188 -86L190 -87V-86ZM44 -87L60 -86L61 -87Q65 -86 66 -85H67L68 -86Q73 -85 76 -81Q79 -78 79 -76Q79 -68 73 -65Q73 -64 69 -64Q63 -66 58 -72Q55 -72 52 -79Q51 -79 46 -84L44 -86V-87Z"/>
</svg>