<svg xmlns="http://www.w3.org/2000/svg" viewBox="0 -256 256 256">
	<path fill="#000000" d="M162 -203H163Q164 -203 164 -201Q168 -200 173 -194V-191Q173 -189 169 -189L164 -180L157 -175Q157 -173 155 -171Q155 -170 163 -168Q163 -167 167 -167Q167 -165 173 -164L175 -162V-160Q173 -152 171 -152H168Q162 -156 158 -163Q157 -163 154 -169Q148 -169 148 -165Q145 -165 137 -158L136 -159Q136 -160 145 -168Q145 -171 150 -174Q150 -177 156 -187Q156 -189 160 -195Q158 -195 158 -200ZM92 -193L94 -192L97 -193Q105 -189 108 -189Q108 -188 110 -188L114 -180L126 -183Q126 -184 134 -187L137 -188L140 -182Q140 -180 136 -177H135Q130 -176 127 -176H126Q122 -175 120 -173L118 -172Q107 -174 107 -179V-181H106Q105 -177 97 -170H95Q95 -167 90 -166Q88 -163 86 -163Q79 -157 78 -157L59 -142L48 -135L47 -136Q64 -149 74 -160Q75 -162 77 -165Q81 -166 81 -169Q88 -176 89 -180Q90 -180 90 -185L92 -187L91 -192ZM196 -191H197Q203 -187 203 -185Q203 -183 197 -182Q196 -181 182 -178Q182 -177 175 -175Q175 -173 172 -173H171Q169 -173 168 -175V-174H167Q165 -174 164 -177Q165 -180 169 -180Q169 -181 174 -182L177 -183V-182L183 -185Q183 -187 190 -188Q190 -189 196 -191ZM97 -169H98Q99 -169 99 -167Q102 -165 109 -164Q110 -162 115 -160Q115 -158 117 -154Q115 -149 111 -149H110Q105 -151 105 -155Q103 -157 103 -161Q101 -161 96 -167V-168ZM152 -156Q159 -153 160 -153L161 -152Q161 -147 153 -147L149 -145Q148 -144 146 -144H144Q144 -143 140 -142Q141 -140 146 -140Q150 -138 150 -135Q150 -136 164 -139Q172 -141 172 -142L178 -145Q180 -145 182 -141Q192 -135 194 -132L193 -131L194 -128Q193 -126 186 -122Q180 -112 177 -108Q173 -106 166 -103Q164 -103 164 -108V-112Q166 -114 166 -120Q167 -120 168 -129L167 -130L169 -133V-134L168 -135L155 -131Q149 -131 149 -129Q146 -119 146 -118L145 -117V-113H148Q148 -114 154 -115Q159 -114 159 -113V-112Q159 -108 150 -108L147 -107Q143 -107 143 -108Q140 -106 126 -102Q121 -97 114 -97Q114 -95 113 -95H112L104 -98V-100Q104 -101 106 -101H107L108 -102L110 -101L115 -104L114 -108L115 -112V-115Q113 -115 113 -120H112Q107 -117 102 -117Q102 -114 100 -114H96V-113L97 -112L96 -109L97 -108L96 -101L98 -99V-98L97 -97V-96L99 -95L98 -93L99 -90Q97 -87 96 -86H93H92Q90 -87 88 -95Q86 -95 86 -104H85Q84 -108 81 -114V-117L77 -123L78 -125Q86 -122 88 -120L89 -121H90Q92 -118 94 -118L96 -120L98 -119L105 -121Q105 -122 112 -124V-125Q109 -128 109 -131H110Q112 -128 119 -127H120Q128 -128 132 -131Q137 -134 137 -135V-138Q137 -139 140 -142L137 -141H136Q136 -140 132 -138Q127 -134 125 -134H122Q120 -136 112 -140V-141Q112 -142 114 -143L116 -142Q117 -144 119 -144H120Q120 -146 130 -147Q130 -149 139 -151L141 -152H142Q143 -154 145 -154L148 -153Q149 -156 152 -156ZM123 -123V-122V-121L122 -116V-115L123 -114V-109Q123 -107 125 -106Q129 -109 135 -109Q136 -111 136 -117V-119L137 -121V-123V-125V-127Q132 -127 123 -123ZM160 -102Q162 -102 165 -99Q168 -97 173 -97Q180 -93 180 -90V-87Q173 -80 171 -75Q164 -59 161 -56Q157 -54 155 -54L154 -53H153Q152 -53 150 -57V-58L142 -56L141 -57Q139 -56 139 -55Q151 -50 153 -48L151 -44L153 -43Q164 -45 169 -45H170Q171 -46 182 -47Q182 -49 191 -50Q200 -53 204 -53L214 -45V-44Q212 -38 204 -38L194 -41H192L191 -40L188 -41L181 -40Q178 -41 177 -41H173H172L168 -39L166 -40Q165 -39 160 -39L158 -37H154Q150 -37 150 -29L149 -19L150 -18Q147 3 143 15Q142 16 142 18Q141 21 136 27Q134 27 133 20L134 18L133 7V5V3V-1Q132 -1 132 -16V-18V-20V-24Q132 -25 133 -27L131 -32L128 -33Q124 -32 118 -31Q118 -30 109 -29L80 -21Q78 -21 74 -18L62 -14Q60 -14 55 -12Q51 -12 42 -20V-21L56 -23L58 -24H60H61L73 -27Q73 -28 75 -28H81Q95 -32 110 -33Q112 -36 120 -36L129 -38Q132 -40 132 -44V-51V-52L131 -53H130Q126 -53 121 -50L120 -51Q120 -50 114 -47Q114 -41 110 -40L105 -47V-49L106 -52L104 -55L105 -57Q103 -58 103 -63L101 -65V-70Q100 -72 96 -83L98 -85H99Q100 -85 103 -82H105Q108 -84 112 -86H119Q119 -88 123 -89Q123 -90 128 -90Q128 -92 136 -94H137H138Q140 -95 157 -100Q158 -102 160 -102ZM149 -90H141L139 -89H138L137 -90L134 -88H133Q133 -86 123 -83L113 -80Q113 -79 110 -78V-77L113 -74V-72V-71Q119 -71 122 -73L138 -79Q140 -79 142 -81H143L147 -78V-77Q147 -74 143 -73H141H137V-72H134L123 -68Q119 -67 113 -63L114 -59V-57V-56Q118 -57 120 -58H122L133 -61L149 -66Q152 -67 152 -69L155 -80L154 -82Q155 -88 155 -90V-91H153Q152 -90 149 -90Z"/>
</svg>