<svg xmlns="http://www.w3.org/2000/svg" viewBox="0 -256 256 256">
	<path fill="#000000" d="M95 -197H96Q97 -195 108 -193Q108 -192 114 -191Q118 -188 118 -185Q114 -177 114 -170L113 -165V-164L112 -153V-150H113Q117 -155 118 -159Q120 -161 122 -166Q125 -171 125 -174Q127 -174 128 -182V-183L125 -186L132 -190Q136 -189 138 -187Q139 -187 142 -185Q150 -182 150 -179L151 -178V-176Q148 -171 146 -170L128 -156Q127 -156 122 -152V-151H124L130 -153H131L137 -155H139L143 -156H145Q153 -151 155 -148Q154 -141 147 -141L143 -142H139L137 -143L136 -141H131H130L119 -139Q112 -138 112 -135V-129V-128V-126V-125L116 -126L120 -125L123 -126H125L127 -127H128Q129 -127 129 -126V-125H130Q131 -126 138 -127L144 -126H146Q152 -123 158 -122Q162 -118 163 -115Q164 -115 165 -124L166 -125V-129Q166 -132 168 -134V-142L167 -145L168 -146Q165 -147 165 -148V-149Q169 -152 171 -152Q171 -151 176 -148Q176 -146 187 -139L189 -133Q189 -131 182 -121L171 -99Q170 -96 167 -92V-87L163 -81V-80Q167 -80 173 -73L178 -67Q178 -66 181 -63Q184 -56 187 -52L191 -44L192 -37V-35Q190 -27 184 -27Q181 -27 175 -35Q175 -38 172 -42Q169 -48 162 -59Q162 -62 157 -68Q157 -70 150 -79L149 -83L152 -84H155L157 -90L156 -94Q158 -97 159 -101Q160 -101 161 -108Q163 -108 163 -115H162Q161 -115 160 -110L156 -108H153Q151 -108 146 -111Q142 -111 128 -117Q124 -117 122 -120L120 -119Q118 -121 112 -122H111L112 -120L111 -114L112 -112H111V-111V-107L109 -99Q106 -95 99 -89Q97 -89 96 -96Q95 -96 94 -101L95 -104V-112V-113V-115V-119V-120H94Q88 -111 81 -104Q80 -104 78 -100L70 -92L71 -91L74 -93Q75 -90 82 -87L84 -84Q84 -83 79 -77H81L87 -81Q89 -81 92 -85H93Q96 -83 96 -80Q98 -80 102 -76H103V-78L104 -79Q107 -76 114 -71Q114 -68 111 -63V-62V-53V-52Q116 -55 121 -56Q123 -56 123 -60L124 -61L123 -69L124 -73L122 -77V-78L123 -80L122 -81H121Q114 -78 112 -78Q111 -79 109 -82H107L102 -86Q102 -88 113 -90Q116 -91 120 -92Q121 -94 122 -94Q119 -105 118 -106V-107L122 -110H123L131 -106Q131 -105 136 -104L137 -100L136 -96Q138 -95 139 -95L143 -97H144Q145 -97 146 -94L148 -92Q148 -87 143 -87L136 -85V-83V-79V-77L137 -72L136 -68L137 -65L136 -61Q136 -60 138 -59L140 -60H141Q146 -62 151 -63Q161 -60 161 -57Q161 -55 154 -52L147 -53Q137 -52 137 -50L138 -46L137 -43L138 -41L137 -37L138 -36L137 -32L138 -20L137 -18L138 -13Q138 6 135 12L129 21H128H125Q123 21 122 5V4L123 -7L122 -9L123 -11L122 -14L123 -18L122 -26L123 -29L122 -38V-41V-45V-47H121V-48Q115 -46 115 -45Q105 -43 99 -39H98Q95 -43 95 -45Q95 -50 101 -53L102 -59L101 -63Q103 -67 103 -68L102 -69Q96 -66 95 -62Q91 -58 89 -53Q86 -52 86 -49V-48Q90 -44 92 -40Q92 -34 87 -30Q78 -30 77 -36H76Q55 -13 53 -13Q37 0 26 5L25 6H22L21 5V4Q24 2 29 0L41 -9Q55 -22 58 -28Q62 -31 62 -34L69 -42V-43Q66 -47 64 -51Q62 -53 62 -55Q59 -55 53 -48L43 -39L41 -41Q55 -54 57 -61Q66 -74 66 -77Q67 -77 67 -80L68 -84L69 -85V-86Q69 -89 67 -89H66L60 -84Q60 -82 53 -78Q53 -76 50 -75Q50 -73 37 -66Q32 -63 29 -62H28Q28 -64 40 -72Q40 -73 46 -77L48 -79V-81Q48 -82 60 -95Q60 -96 63 -98Q63 -99 70 -106Q83 -125 84 -126L89 -130H88L86 -129H85H83Q83 -127 75 -124L65 -120Q60 -116 53 -113H50Q41 -122 37 -124V-125Q37 -126 46 -128L47 -129L49 -128L53 -130L54 -129Q56 -131 61 -131Q62 -133 71 -135Q71 -136 78 -136H80V-137Q75 -144 69 -157Q67 -157 66 -163L64 -165V-166Q64 -167 66 -167Q71 -167 83 -159Q88 -159 89 -152L88 -150Q89 -149 89 -147V-145L84 -139H85Q91 -140 95 -143L94 -144L95 -148L94 -149L95 -154V-170Q95 -173 94 -173V-175Q93 -188 90 -188Q88 -188 88 -190Q88 -196 95 -197ZM201 -161Q206 -157 209 -157Q209 -155 221 -151Q221 -150 222 -150L223 -149V-144Q214 -134 213 -126Q209 -120 207 -112Q206 -112 206 -107Q204 -107 203 -101Q201 -100 201 -95Q201 -91 197 -84Q226 -57 226 -54Q234 -45 234 -37V-33Q232 -31 232 -27Q228 -25 225 -23Q224 -23 219 -29Q215 -32 215 -36Q206 -45 206 -49Q195 -62 195 -65L183 -80Q181 -81 180 -85Q181 -88 182 -88H186V-89H187H186V-92Q187 -93 189 -99Q190 -99 190 -104Q191 -104 192 -108L193 -113Q194 -113 194 -117Q195 -117 197 -123V-124V-126Q200 -132 200 -144V-147V-148Q200 -150 197 -154Q200 -160 201 -161ZM62 -57V-56L71 -53Q73 -53 74 -51H75Q76 -53 79 -60Q80 -60 84 -70L85 -72L84 -73L82 -72Q80 -72 78 -75H77Q65 -59 62 -57Z"/>
</svg>