<svg xmlns="http://www.w3.org/2000/svg" viewBox="0 -256 256 256">
	<path fill="#000000" d="M163 -206L178 -198Q180 -195 181 -191V-190Q186 -191 195 -194H196Q206 -192 206 -190L209 -188V-185Q209 -184 204 -183H202Q199 -181 186 -180L185 -179L183 -180L182 -179V-177L189 -172L192 -170V-167Q186 -163 179 -155L174 -149V-148H177Q178 -150 187 -152L190 -153H192H196H200Q201 -153 202 -148Q202 -146 198 -144H196Q186 -143 185 -142H181L176 -140H173V-139Q179 -137 179 -136L178 -131L179 -127V-124Q185 -125 189 -128Q191 -128 196 -130H198Q200 -130 205 -125V-122Q205 -119 194 -118Q192 -117 177 -115V-110V-109Q177 -102 175 -98Q175 -96 173 -94Q176 -94 181 -91V-86Q177 -81 173 -81Q172 -80 166 -79Q165 -77 156 -72L150 -68V-67H153Q154 -68 164 -70V-71H166Q169 -71 172 -72Q178 -72 187 -75H188Q206 -71 206 -69V-66Q206 -63 203 -61Q201 -61 200 -63H199L195 -62L186 -63H184H181H179H177H160L158 -62L157 -63Q157 -61 150 -60L147 -61Q144 -59 143 -59V-54H146Q149 -50 150 -50Q151 -50 154 -48Q155 -48 161 -43L167 -39Q168 -39 173 -34Q174 -34 176 -32Q177 -32 180 -29L181 -30Q184 -29 189 -25H191L192 -22Q194 -22 199 -19Q200 -19 203 -17L208 -15Q211 -15 211 -13H212L220 -10Q226 -7 231 -7V-5Q231 -4 230 -4Q218 -4 211 -1Q206 -1 195 5L192 6Q190 4 187 -1Q183 -2 181 -6Q177 -6 169 -16Q167 -16 155 -26Q154 -31 150 -31Q147 -32 146 -36Q143 -36 143 -34L145 -28L144 -27L145 -23L144 -22L145 -18V-14V-9L146 -5L145 -2H146V-1Q144 9 143 9L144 10Q144 19 132 30H131L130 29V28V25Q128 18 128 17V15V14Q124 13 122 9L120 6Q120 4 117 4L116 3L117 1Q120 1 124 4H127L128 2V1V-1L129 -2V-5V-9Q130 -16 131 -17L130 -19L132 -27L129 -29V-31L131 -33L129 -35L130 -38L128 -39Q122 -31 110 -20Q99 -8 96 -8Q96 -5 88 -1Q87 0 81 4Q78 6 74 7Q71 10 66 11Q66 13 51 18V17V16Q52 13 56 13Q56 12 69 6Q69 5 78 0Q81 -2 85 -8Q94 -14 101 -23Q114 -39 114 -41Q114 -42 116 -45Q116 -46 118 -48Q118 -50 119 -51V-52H118L108 -49Q108 -46 100 -46L90 -42Q90 -41 85 -40Q80 -36 75 -36Q70 -36 61 -44V-45Q61 -47 81 -50L88 -51Q88 -52 101 -54L106 -56L108 -55L109 -56V-57Q105 -59 105 -65Q105 -66 103 -70V-72Q103 -74 101 -78V-80V-81L102 -82L108 -80Q108 -79 113 -78Q113 -77 117 -76Q117 -74 118 -74L120 -71V-70Q119 -64 114 -58H115H116Q119 -60 123 -60L124 -62H126L127 -61H129L130 -62L129 -67L130 -68L129 -72Q131 -73 131 -75V-77L130 -80L131 -81L127 -89Q129 -93 132 -93Q137 -90 139 -90Q139 -88 145 -87L146 -85V-84Q145 -78 145 -72H146Q154 -78 154 -83Q158 -86 159 -91V-96L157 -98L159 -99H162H163V-104Q163 -109 161 -110Q155 -106 149 -105L141 -101L140 -100H137Q132 -105 131 -108V-109L132 -110H134Q141 -113 146 -113Q146 -114 152 -115L158 -117L163 -118V-119L162 -121V-123L161 -128L163 -130V-131Q161 -131 161 -135L138 -126L137 -125H136Q134 -126 127 -131V-132Q127 -133 132 -133Q133 -135 147 -139Q150 -139 150 -143Q148 -143 147 -150Q146 -150 145 -162Q144 -162 143 -166H141Q140 -164 138 -164Q131 -170 131 -172Q128 -172 126 -169Q119 -166 115 -158Q111 -157 111 -156L116 -155L120 -152V-149Q119 -145 115 -145Q115 -144 106 -143L94 -139Q94 -138 89 -137Q89 -135 85 -130Q85 -128 81 -123L80 -120V-118V-117V-115L81 -114L85 -116H87Q87 -118 92 -119L103 -125L110 -131H111Q113 -129 118 -128Q118 -127 126 -126L130 -122Q125 -114 119 -106Q119 -104 115 -104Q122 -95 122 -94L120 -93Q112 -92 111 -92Q111 -90 102 -89Q95 -85 90 -85H87V-82V-79Q85 -77 84 -75L81 -74Q79 -75 75 -83L76 -85L74 -91Q73 -91 73 -97Q71 -97 71 -102H70L71 -104H70Q69 -104 58 -89Q48 -79 26 -60H25L24 -61V-62L39 -77L51 -93L54 -101L58 -108Q58 -112 62 -119Q62 -121 65 -129L67 -137V-144L66 -148Q66 -151 70 -153H71Q74 -150 84 -147L85 -146H86Q87 -147 98 -150Q98 -153 99 -153H98L101 -169V-171H100Q98 -170 94 -169Q94 -168 90 -168Q90 -167 85 -166Q79 -168 78 -173Q78 -174 74 -177V-179H75L85 -180H88Q99 -181 100 -184Q101 -184 102 -187Q105 -187 109 -193H113L124 -189Q131 -183 134 -179V-176H135Q138 -179 145 -179Q154 -182 155 -183H157V-185Q157 -193 154 -195V-198Q158 -204 163 -206ZM146 -168V-167L150 -163H151L153 -165Q154 -165 154 -160Q160 -153 160 -151V-150L159 -143H160L162 -144H164Q167 -149 167 -151Q168 -151 171 -162L172 -164V-165L173 -171V-175V-177H172Q170 -175 167 -175Q167 -174 159 -173Q151 -169 146 -168ZM87 -110V-105Q87 -104 85 -102V-100Q87 -100 87 -95L89 -93Q92 -96 97 -96L101 -98Q103 -99 103 -104L105 -111V-112V-116Z"/>
</svg>