<svg xmlns="http://www.w3.org/2000/svg" viewBox="0 -256 256 256">
	<path fill="#000000" d="M76 -183H78Q83 -178 88 -177Q95 -168 95 -164V-163Q95 -160 87 -155Q83 -152 81 -151Q81 -149 78 -148Q75 -144 74 -143H71Q71 -140 56 -125Q56 -124 60 -123Q60 -122 67 -119Q68 -117 69 -117Q76 -117 83 -129V-131L86 -133L85 -135L86 -137V-143L90 -145L98 -142Q103 -138 103 -133Q101 -130 93 -125Q93 -123 80 -110Q80 -108 74 -102Q69 -99 67 -94Q64 -92 64 -90L65 -89Q69 -89 71 -90H73Q74 -90 83 -92Q83 -93 86 -93L87 -95V-99Q83 -103 83 -105L84 -106H85Q86 -105 91 -104L100 -99Q106 -94 106 -86Q104 -81 101 -81Q101 -79 98 -77H97Q96 -79 93 -80Q92 -83 89 -86V-88H86L78 -83Q76 -83 69 -79V-78Q77 -74 80 -70V-65Q80 -63 79 -63L80 -59V-51L79 -50H80V-45L79 -43L80 -41Q80 -39 79 -39L80 -38V-34Q80 -32 79 -32V-30V-27V-25V-23V-19Q78 -19 78 -12Q73 -5 67 0Q65 0 64 -10Q62 -10 62 -16L63 -19V-20L64 -25V-26L63 -28Q65 -30 65 -32L63 -34L64 -35V-37Q64 -40 63 -40L64 -41L63 -46Q65 -46 65 -49V-50L63 -52L65 -55L64 -59L65 -62Q65 -64 63 -67V-70L62 -75L50 -67Q48 -65 46 -65H45Q40 -68 40 -72V-77Q51 -85 55 -90Q66 -105 66 -108V-109L65 -110H64Q60 -112 52 -113H51Q42 -113 42 -116V-117L43 -125V-128L44 -129H46Q48 -126 51 -126Q52 -128 56 -135Q57 -135 59 -141Q60 -141 62 -147Q65 -150 67 -159Q68 -159 70 -169Q72 -170 72 -174Q72 -176 70 -178Q70 -179 76 -183ZM195 -161H198L199 -160V-161H200Q206 -161 209 -153V-152Q207 -147 204 -147H200L198 -146L196 -147H192L189 -146L187 -147Q168 -142 162 -139Q159 -139 155 -135Q148 -135 140 -130Q139 -130 129 -125H127Q124 -129 118 -132L116 -135Q116 -136 130 -140Q132 -143 137 -143Q148 -147 153 -148Q153 -149 167 -151Q167 -152 182 -156L192 -159Q193 -161 195 -161ZM159 -131H162L164 -130L172 -131L173 -130L175 -131Q179 -127 180 -122Q181 -122 181 -120V-117Q181 -115 174 -110Q172 -105 161 -90V-88Q164 -86 164 -78V-73L166 -68V-65L164 -61V-49V-45V-41V-40L165 -38V-36L164 -35L165 -18V-16V-10Q162 2 159 2Q158 4 154 7H153Q151 7 150 1Q149 1 148 -6L149 -7L148 -10V-12L149 -22L148 -25L149 -36V-37L150 -38L148 -48L149 -59Q147 -61 147 -65H146Q144 -63 140 -57Q139 -57 135 -51Q132 -51 126 -42Q124 -42 123 -38Q116 -32 107 -23Q104 -23 100 -19L94 -17H93V-19Q107 -31 110 -36Q110 -37 112 -38H111V-39Q116 -44 118 -48Q132 -64 135 -72Q141 -79 141 -89L138 -93Q135 -95 134 -97V-98Q138 -104 139 -104H140H142L145 -103H146L147 -102H150Q157 -109 159 -120L160 -123Q159 -125 157 -127V-128Q158 -130 159 -131ZM170 -68Q174 -68 174 -67L176 -68L179 -67H188H189Q199 -67 207 -62Q211 -61 218 -54Q222 -44 222 -43V-41Q219 -32 213 -32H212Q204 -41 203 -42Q201 -44 190 -52Q186 -57 173 -63Q169 -64 169 -66V-67ZM84 -66L96 -63Q101 -63 101 -61H104Q104 -59 110 -58Q112 -56 112 -54L114 -51Q114 -45 108 -41H103Q101 -41 100 -47Q98 -47 96 -54Q84 -64 84 -65ZM41 -62Q44 -57 47 -45Q49 -45 49 -43Q49 -41 47 -39L48 -36Q46 -30 42 -26L39 -23H38Q34 -23 33 -30L34 -32L33 -34Q33 -36 34 -36V-37V-39L35 -41V-43Q36 -43 40 -61V-62Z"/>
</svg>