<svg xmlns="http://www.w3.org/2000/svg" viewBox="0 -256 256 256">
	<path fill="#000000" d="M85 -185L87 -183V-180Q88 -174 103 -167L106 -162Q105 -159 100 -156Q93 -144 89 -143Q89 -141 87 -140Q86 -137 82 -135Q82 -132 79 -132Q76 -129 74 -125Q72 -125 72 -122Q72 -121 68 -120Q68 -118 66 -118Q66 -117 63 -117V-116H62L63 -115L71 -114H73Q76 -114 76 -113V-114H79Q80 -113 84 -112L86 -109Q89 -109 91 -116H93V-117Q93 -122 96 -122V-124Q98 -125 98 -129L99 -130H100L99 -131L101 -134Q100 -135 99 -144Q99 -146 102 -146Q104 -146 110 -139Q111 -139 115 -136Q117 -135 121 -132V-128Q117 -123 109 -118Q99 -106 98 -106Q97 -102 94 -100Q91 -100 90 -95Q85 -93 85 -90Q85 -88 83 -87L82 -86L83 -85Q80 -85 79 -80Q78 -80 78 -79Q74 -76 74 -73H75Q80 -76 100 -79L102 -80V-81Q98 -88 97 -93V-94H98Q105 -94 107 -91L109 -92L110 -90Q118 -90 118 -88V-87Q121 -87 122 -79Q120 -72 117 -72Q114 -68 111 -68Q105 -74 105 -78L99 -75L97 -76Q97 -73 94 -73L93 -72Q93 -71 85 -68Q86 -66 90 -65Q90 -64 94 -63L96 -60Q96 -57 95 -57L96 -53Q95 -49 95 -43V-40L96 -32V-28L94 -23L95 -20L94 -19H95L94 -8V-4Q90 7 88 7L86 9Q83 9 83 -1Q81 -5 81 -9Q80 -9 79 -13Q79 -21 81 -25L80 -26L81 -32L80 -34L81 -36V-37L80 -43V-46L79 -62V-64Q79 -65 78 -65Q62 -56 61 -51L58 -50Q53 -50 49 -59V-68Q49 -71 53 -71L58 -73H62Q68 -75 68 -78Q71 -80 76 -90L81 -99Q81 -100 84 -103V-104H80L75 -103Q69 -103 69 -104L67 -103L61 -104H58H56L52 -102L49 -104L46 -103Q38 -105 30 -113V-114Q30 -115 35 -116L37 -115L49 -117H50Q53 -117 55 -122Q62 -131 64 -135Q68 -139 69 -144Q71 -145 72 -151Q73 -151 73 -154Q75 -154 76 -163Q78 -163 78 -167L79 -170Q79 -175 77 -179Q83 -185 85 -185ZM205 -162H206Q210 -155 214 -154Q214 -152 222 -151Q226 -148 226 -146Q226 -142 224 -138L222 -130Q222 -124 221 -124L222 -123L221 -118V-115L220 -113L221 -111V-103V-99V-95V-92V-88V-87L222 -83L221 -81L222 -77L221 -73L222 -71V-65V-62L221 -60L222 -52V-37Q213 -14 206 -11L201 -5H198Q197 -5 197 -9V-12Q196 -14 196 -15V-16V-18Q195 -23 190 -30V-31L191 -32Q196 -31 198 -29H199V-30V-32Q199 -45 201 -45L199 -47L201 -49L200 -51V-54L201 -57Q200 -57 200 -59L201 -63L199 -66L200 -68L199 -71L200 -73V-75L199 -86H200L199 -90V-92V-97V-99L198 -106L199 -111V-117V-118V-120V-122L200 -124L199 -127V-129Q199 -135 197 -139L198 -140L197 -144Q197 -145 199 -146V-147L198 -148Q196 -148 194 -145H191L179 -143H178L174 -140L172 -141Q171 -139 162 -137V-135L164 -136H165Q168 -134 174 -130L176 -131Q179 -129 179 -127V-125Q177 -118 177 -115V-113Q180 -113 184 -116L188 -118Q193 -117 195 -114L196 -113Q195 -110 193 -110H192H191L182 -107L179 -108Q179 -106 176 -106Q175 -104 174 -100Q174 -95 172 -94L173 -90L171 -89V-88L172 -86Q170 -81 169 -77Q164 -67 157 -61Q151 -51 147 -51V-50V-46V-42V-39L148 -38Q148 -39 153 -39Q153 -40 161 -42Q161 -43 167 -43Q167 -44 184 -49H189L194 -45Q194 -44 197 -43V-42Q197 -38 192 -38L189 -39Q167 -35 165 -32H163H161Q161 -31 151 -29L147 -32V-27Q146 -25 145 -22L142 -18H140Q139 -18 138 -24Q137 -24 137 -32H135V-40Q135 -46 134 -49L135 -51L134 -56V-59V-63V-65V-68V-69V-73V-78V-81V-86V-90L133 -104V-106Q132 -106 131 -113L130 -115V-116Q130 -119 126 -126L130 -129L134 -126Q140 -126 140 -123Q147 -120 147 -117V-115V-112V-108V-105V-102L148 -101L156 -105Q160 -105 161 -107Q163 -107 163 -108V-109L165 -124Q165 -128 160 -131Q160 -134 159 -134H156Q153 -132 149 -132L147 -130H146Q143 -132 143 -134H140Q138 -136 137 -136L136 -137V-138Q136 -139 148 -141Q148 -142 156 -144H157Q158 -146 159 -146H160L162 -144H163Q164 -146 172 -147Q174 -149 183 -150Q188 -153 196 -156Q203 -162 205 -162ZM159 -99H156V-97Q150 -98 149 -99H147V-98V-95V-90V-88V-83V-79L146 -66L147 -64L146 -61L147 -59L146 -55L147 -54H149Q152 -57 153 -60Q159 -65 159 -75Q162 -81 162 -89Q164 -90 164 -92V-100L162 -101H161ZM175 -87Q182 -87 186 -84Q191 -84 194 -81Q196 -81 197 -77V-75Q197 -72 189 -69Q188 -69 183 -75Q182 -75 181 -79L177 -81L178 -83Q174 -84 174 -85V-86ZM102 -56Q109 -55 109 -54L110 -55H111Q118 -54 121 -51Q125 -48 125 -45Q125 -43 126 -41V-40Q125 -37 117 -35Q113 -41 112 -45Q109 -45 107 -49L102 -54V-55V-56ZM56 -43H57Q62 -39 62 -31V-25L61 -23L62 -20L60 -15Q54 -10 53 -10H52L48 -26V-27Q48 -29 53 -40Q53 -41 56 -43Z"/>
</svg>