<svg xmlns="http://www.w3.org/2000/svg" viewBox="0 -256 256 256">
	<path fill="#000000" d="M137 -204L141 -200V-201H142L145 -199H149H150Q155 -198 157 -196Q157 -195 169 -194Q169 -193 176 -190L177 -185Q174 -180 163 -180H159Q155 -180 155 -163V-162L154 -161V-158V-151V-149L153 -148L154 -147L153 -130L152 -129V-122L151 -119H155L158 -121H161Q163 -121 166 -122H168Q180 -125 184 -125Q197 -122 197 -116V-115Q197 -113 190 -111H181H178Q166 -111 163 -109L161 -110L154 -109H153H150H148L147 -106Q151 -106 151 -102H152L154 -103L157 -99Q160 -96 163 -95Q163 -93 165 -93Q168 -93 171 -88L172 -89Q176 -85 192 -76Q196 -74 199 -71Q203 -71 205 -68Q208 -68 208 -65L211 -66Q212 -65 217 -62Q223 -61 223 -59L231 -56Q241 -55 246 -53V-52Q246 -51 244 -51V-50L240 -51H236L234 -50V-51Q224 -47 219 -46Q219 -45 215 -45Q215 -43 206 -41Q199 -42 190 -50Q184 -54 179 -60L168 -68L156 -81L155 -82V-84Q153 -84 150 -89Q148 -89 145 -94L141 -97Q139 -95 136 -95L135 -103L134 -104V-105Q134 -106 136 -106V-108H135Q135 -107 123 -104L102 -99Q108 -97 108 -95L112 -93V-91Q109 -88 106 -88V-86Q102 -82 102 -80Q99 -76 88 -62L70 -42Q55 -27 51 -27Q45 -23 44 -21Q42 -21 30 -13L23 -9L11 -3L10 -5Q10 -6 14 -7Q14 -8 23 -14L42 -28Q57 -41 60 -46Q62 -52 64 -52Q69 -59 73 -63L85 -80Q85 -81 87 -85Q89 -90 91 -92V-93L90 -94Q88 -92 76 -86Q74 -86 66 -81Q64 -81 59 -77H58Q49 -86 47 -86L46 -87V-89Q46 -91 52 -91Q52 -93 61 -93Q61 -94 68 -96H71Q73 -98 91 -102V-103L92 -107L91 -110L92 -113V-119V-128Q91 -128 91 -137Q91 -142 92 -146L91 -157V-159V-160Q84 -154 82 -154Q81 -154 77 -159Q75 -159 69 -168V-169Q69 -171 78 -172Q84 -175 89 -176Q88 -186 85 -186V-188Q86 -189 88 -190L96 -186H100L110 -182Q124 -184 127 -186Q132 -188 132 -189Q131 -194 128 -198Q132 -204 137 -204ZM133 -175Q133 -173 125 -171L113 -169L111 -167H110H109H108V-166L109 -164Q108 -162 108 -156V-150L125 -158H130L132 -156V-154Q128 -149 122 -149L120 -146L118 -147Q108 -142 108 -141L106 -129H108Q108 -131 113 -134Q113 -135 119 -136L120 -137L119 -138H120H121L126 -140Q134 -138 134 -135Q134 -132 119 -128Q117 -126 111 -125Q111 -124 105 -123L106 -121H105V-120L106 -118L105 -108Q106 -106 108 -106L112 -109H114V-108L116 -109H118Q118 -111 126 -112Q126 -115 127 -115L131 -114Q136 -115 136 -116V-122V-137V-140V-141V-143L135 -155H136H135V-156L136 -161L135 -163L136 -166L135 -168L136 -172V-173Q136 -174 133 -175ZM118 -96H120L131 -88V-86L118 -73Q118 -72 114 -69V-68H125Q134 -78 134 -84L133 -86L137 -89H139Q146 -83 149 -82Q149 -81 153 -80L154 -77Q154 -75 146 -71Q145 -71 141 -68Q137 -67 131 -59Q127 -59 120 -51Q115 -47 112 -47V-46L113 -45Q116 -45 129 -50L136 -51Q140 -51 141 -53V-54L138 -60L140 -61H141L158 -54Q158 -53 160 -53L163 -50V-49V-48V-45Q163 -40 156 -38L155 -37H154Q150 -37 144 -45Q134 -44 134 -42Q136 -42 138 -36Q137 -36 136 -33L137 -32L136 -29L137 -27L136 -12V-10V-9V-8Q136 5 132 17Q123 27 121 28H120Q117 28 117 22Q116 17 110 10Q104 4 104 2V1H106Q111 3 117 4Q119 -6 119 -16V-22V-24L118 -34L119 -37H118Q108 -34 103 -30Q101 -30 97 -27Q94 -24 91 -24L89 -26V-33V-35Q92 -41 96 -41Q105 -43 109 -49Q114 -54 116 -58Q117 -58 119 -61V-62H118L111 -60L108 -61L104 -60Q101 -61 101 -66Q101 -67 106 -71Q112 -82 114 -84V-86L115 -89L114 -92Q114 -94 118 -96ZM144 -29H145Q148 -26 153 -26V-27H154L163 -25H164L172 -23Q172 -22 178 -17Q180 -13 180 -9Q180 -5 173 0H171Q166 -3 159 -13L155 -16Q153 -16 143 -26V-28ZM103 -21H104L105 -20Q97 -12 96 -8Q94 -8 89 2L83 5H81L77 2L78 -3V-4Q78 -9 73 -17Q74 -19 75 -19L87 -12Q95 -15 100 -19Q101 -19 103 -21Z"/>
</svg>