<svg xmlns="http://www.w3.org/2000/svg" viewBox="0 -256 256 256">
	<path fill="#000000" d="M133 -205Q145 -202 147 -199Q149 -199 150 -192H151L164 -196H166Q173 -195 173 -192V-189L171 -187H167L154 -184L152 -185Q152 -184 148 -182L145 -175Q146 -171 147 -171L159 -175Q161 -175 165 -171Q165 -169 153 -166Q147 -164 145 -162L142 -163Q141 -162 141 -158V-156L140 -155V-154Q140 -152 142 -152H143L145 -153H146H147L168 -158Q171 -160 174 -160Q176 -158 176 -157Q180 -156 180 -153Q180 -149 176 -149Q174 -149 174 -150L172 -149H161Q159 -149 155 -147H153V-148Q141 -145 140 -144Q130 -141 127 -141L126 -140L125 -141L119 -138L116 -139L115 -137L106 -133Q98 -130 94 -130Q86 -132 86 -134V-135Q86 -136 97 -138Q101 -140 105 -140Q105 -142 114 -143Q114 -144 118 -144Q118 -145 123 -146L124 -149V-152V-155L123 -156L121 -155H119Q119 -153 115 -153Q114 -151 113 -151H112Q111 -151 111 -150L110 -149H109L102 -153H101V-154L102 -155H107Q108 -157 112 -158Q112 -159 116 -159Q116 -161 121 -162L126 -163Q127 -166 127 -169V-170Q127 -173 128 -175L127 -176H126Q123 -173 119 -172L117 -171H116Q112 -168 105 -167Q102 -167 96 -172Q92 -173 92 -175Q92 -177 102 -178Q113 -181 127 -184Q127 -185 129 -185V-186Q128 -193 125 -197V-198ZM155 -144H160Q163 -140 168 -140Q169 -139 169 -136V-135L165 -124V-122Q166 -121 168 -121H170Q174 -123 184 -124Q184 -125 194 -126Q194 -127 198 -127Q208 -124 208 -120V-117Q206 -114 197 -113Q195 -114 191 -114V-113H190Q187 -115 183 -116L175 -115L170 -116Q168 -115 162 -115Q161 -109 160 -109L161 -107Q159 -107 159 -100Q158 -100 158 -96H160H162L168 -98Q168 -99 170 -99Q171 -99 174 -95Q177 -94 177 -91L176 -90L184 -82V-81V-80Q179 -78 177 -78V-77V-76Q181 -74 189 -67V-63Q189 -62 180 -59Q180 -56 175 -55Q175 -54 166 -47Q166 -46 163 -45Q163 -42 160 -42L157 -40V-39L158 -38Q161 -39 162 -39H165H167Q176 -39 179 -40Q181 -39 181 -38Q181 -36 179 -36H175L173 -35L171 -36L170 -34L173 -32L172 -31L173 -28V-27L172 -26L173 -23V-22H172L173 -19V-1L172 5L173 7Q173 22 164 28Q164 29 161 29Q157 25 157 18Q152 11 152 9L154 8L157 9H158L159 1L158 0L159 -4L158 -9V-12L157 -21L158 -23Q157 -23 157 -25L158 -29H156L154 -27L152 -28Q151 -28 141 -22Q140 -22 138 -20Q133 -23 132 -26Q132 -28 134 -29V-30Q134 -36 137 -36Q146 -36 146 -37L156 -49H155L153 -50L151 -49L148 -50H145L143 -52H139Q134 -52 132 -57L130 -55H129L128 -56V-57Q128 -58 136 -65Q136 -66 140 -70Q147 -78 147 -81H144L142 -80H140L139 -81L140 -87V-88Q140 -89 133 -89H132L131 -88H130L128 -89Q124 -89 119 -83Q115 -82 115 -80Q111 -78 111 -77H112L116 -80H120Q124 -76 126 -76Q126 -75 129 -74L130 -73Q130 -71 127 -67V-65L126 -64V-61L123 -42V-40Q121 -26 120 -26Q118 -26 118 -23H119Q121 -24 125 -24Q128 -24 130 -19Q128 -17 125 -17L123 -18L121 -16L117 -17Q114 -17 111 -14Q106 -14 102 -11Q105 -6 105 -5V-4Q99 4 99 5Q99 7 103 9L105 11V14Q102 18 98 18Q95 15 92 3L93 2H94V3Q97 3 97 0L99 -9V-12H98Q97 -10 95 -10H92Q90 -9 89 -9V-8L91 -4Q91 -2 87 0Q85 4 78 10H77L76 8V7Q80 5 80 0L82 -2V-6Q79 -6 76 -3H74Q73 -1 72 0H71Q66 -5 66 -7L67 -19V-23V-26L66 -31L67 -32Q65 -32 65 -39V-40Q63 -45 62 -46V-49L63 -50H66Q73 -42 76 -42Q79 -40 79 -39L76 -32L77 -28Q77 -27 76 -25L77 -23L75 -19L76 -17L74 -15Q75 -14 76 -14H79L80 -13Q81 -14 85 -14L89 -15V-20L88 -22L89 -26L88 -30L89 -31L88 -32L89 -34L88 -37L89 -38L88 -44L89 -45L88 -49L89 -50L87 -67H88L87 -69V-72H88H89Q94 -68 94 -66Q96 -69 98 -69Q99 -69 99 -70L109 -75V-76H106L104 -74H103V-75V-76Q105 -77 112 -85V-86Q112 -87 105 -87Q105 -86 104 -86H103L101 -88L97 -84H95L94 -86V-87Q94 -91 98 -95L97 -99Q98 -99 99 -104H97Q94 -102 77 -97L71 -95H69Q62 -91 58 -90Q56 -90 48 -96Q44 -97 44 -98V-99L45 -100H46L48 -99Q55 -100 62 -103L67 -104L69 -103L74 -104H78Q79 -105 85 -106L88 -105L96 -108H99Q100 -108 101 -112Q103 -112 105 -123H106Q105 -125 105 -128V-129H108Q110 -125 114 -125L117 -121Q116 -113 112 -113V-111L123 -113Q125 -122 125 -128V-129V-130H124L121 -128Q116 -129 116 -130Q118 -132 123 -134L127 -135Q127 -136 133 -136Q137 -137 139 -138H141Q144 -140 150 -141Q153 -142 155 -144ZM143 -134H141L140 -132H139L138 -134L136 -132L138 -128V-127Q135 -126 135 -117L136 -116H138Q143 -118 146 -118V-119Q147 -119 148 -122V-124Q150 -131 150 -134L149 -135Q145 -135 143 -134ZM143 -113H142H138L135 -112H134H133V-108H132L133 -105Q133 -104 131 -104V-102Q130 -99 130 -98Q130 -95 133 -95H143L145 -110Q146 -110 146 -112V-114ZM115 -107H114L111 -108L110 -105V-104L106 -99L105 -97L106 -96Q105 -95 105 -93Q106 -92 108 -92L109 -93H114Q119 -93 121 -103V-106V-108ZM152 -87Q152 -79 155 -79L157 -77Q153 -74 148 -71Q148 -69 143 -66L137 -61V-60Q137 -59 142 -59L143 -60L147 -59Q150 -60 152 -62Q156 -67 163 -73Q166 -77 170 -83L172 -85V-87V-88V-89L162 -90H161H156H155Q153 -88 152 -87ZM168 -68H167L166 -69Q163 -65 157 -63L156 -59L157 -58Q162 -58 164 -56Q166 -59 170 -63Q175 -73 175 -74V-75Q170 -72 168 -68ZM109 -68Q109 -67 108 -67H106L101 -68Q101 -67 97 -64V-63Q99 -63 99 -62V-61Q99 -59 97 -59L98 -57Q101 -59 109 -61H110L112 -60V-62V-64V-68H111ZM102 -54H101Q98 -53 98 -51V-46Q100 -46 107 -50Q111 -50 111 -52L112 -57H110Q108 -57 102 -54ZM179 -50H181Q183 -50 184 -49H186Q192 -49 193 -46Q199 -44 199 -41V-35Q197 -31 193 -31H192Q191 -31 190 -35Q184 -42 182 -46L179 -49V-50ZM97 -37L98 -36L97 -34Q97 -32 98 -32H100Q102 -34 110 -36V-39V-44V-45Q107 -45 99 -42Q98 -42 97 -37ZM103 -28L100 -29V-28H99Q99 -27 97 -27V-26V-24Q95 -24 95 -18H98Q101 -21 108 -21V-20H109Q110 -20 111 -23L110 -30ZM180 -16Q205 -15 205 -11Q206 -11 210 -5Q211 -5 212 0V6Q212 9 207 12H205Q200 12 195 4Q191 1 188 -5Q187 -5 186 -9Q184 -9 179 -14V-15ZM145 -15Q148 -13 148 -11L147 -10Q148 -9 148 -7V-3V0Q147 0 147 4Q146 4 145 8Q138 12 137 12Q134 8 134 6L141 -7L143 -15ZM115 -14H116L119 -10H120H121V-9Q121 -4 114 0L113 1V2H115Q121 4 124 9L123 10L124 13V14Q124 15 122 15Q115 13 115 10L111 3Q109 3 109 1Q110 -1 113 -4L112 -5V-7Q114 -8 114 -12ZM68 6H69Q76 12 79 12Q81 12 84 14Q88 14 90 21Q89 25 85 26Q82 26 75 17Q67 11 67 8Q67 6 68 6Z"/>
</svg>