<svg xmlns="http://www.w3.org/2000/svg" viewBox="0 -256 256 256">
	<path fill="#000000" d="M138 -176Q140 -176 143 -172Q147 -169 154 -167Q160 -165 166 -159L169 -155V-151Q166 -140 161 -140Q160 -139 158 -139L156 -140L154 -139H151L149 -140L136 -136Q136 -135 124 -132Q122 -130 113 -128L107 -126Q107 -124 93 -119Q90 -115 86 -115Q83 -112 81 -111L73 -106Q73 -104 66 -104L65 -106L92 -125Q92 -127 102 -134Q111 -143 117 -146Q120 -152 124 -156Q127 -158 128 -162L127 -171ZM115 -124H119Q121 -124 128 -119Q131 -118 132 -118H133H134H136L139 -119L147 -115Q152 -110 152 -107L151 -96V-95Q151 -94 153 -94Q158 -96 169 -98Q169 -99 177 -100Q177 -101 183 -102Q187 -106 198 -108L202 -109L213 -107Q213 -105 217 -105Q226 -100 226 -96L227 -93V-90Q225 -86 217 -84H216H205Q205 -85 202 -86L200 -85L193 -86H185H182H181H176Q174 -85 173 -85H171H170L165 -84H161Q157 -82 153 -82Q152 -81 149 -80Q146 -59 145 -39L144 -33L143 -31Q143 -32 157 -35L164 -37L166 -38H167L169 -37Q173 -40 177 -40Q191 -36 191 -33Q193 -33 193 -27V-25Q191 -18 183 -18H179H175L173 -19L171 -18H169Q167 -18 165 -20H164L158 -18H153H151H149L124 -13Q122 -13 116 -10Q111 -9 101 -4H99Q96 -3 91 0Q87 0 81 -7Q75 -7 71 -13V-16Q71 -17 82 -18Q82 -19 91 -19Q91 -21 100 -22Q100 -23 112 -24Q112 -25 123 -27L122 -29L123 -32Q121 -34 121 -38L122 -43L121 -50V-53V-55V-58Q119 -61 119 -62V-64H120L119 -65V-71L122 -74L120 -75Q106 -70 103 -70Q103 -68 96 -67Q96 -66 90 -65Q85 -61 80 -61Q79 -59 72 -57L63 -53Q63 -52 60 -52Q60 -50 53 -49Q50 -45 47 -45H45Q44 -45 38 -55Q35 -58 29 -61V-62V-63Q29 -64 32 -64H35Q37 -65 46 -67H47L54 -70L56 -69Q58 -70 79 -74L89 -77H90L110 -82L119 -85V-87L118 -94V-95L119 -96L117 -108V-110Q115 -111 113 -117Q111 -117 111 -119Z"/>
</svg>