<svg xmlns="http://www.w3.org/2000/svg" viewBox="0 -256 256 256">
	<path fill="#000000" d="M188 -190Q191 -190 201 -182Q204 -180 207 -179Q213 -176 213 -173Q212 -168 207 -165Q203 -161 189 -141Q180 -127 169 -123Q168 -123 167 -125V-127Q167 -128 168 -132Q167 -133 167 -135L169 -137L168 -139Q173 -150 173 -152L175 -157Q176 -161 178 -165V-168Q179 -168 180 -172H179L180 -175Q179 -176 178 -176L168 -174H166L165 -175Q162 -172 150 -171V-170V-169Q157 -165 157 -161Q153 -156 148 -145Q148 -145 148 -145V-144Q156 -141 158 -139V-138Q158 -135 155 -133H151L149 -132H145L129 -127Q129 -127 127 -127H123Q120 -123 115 -123Q113 -121 112 -121Q111 -122 110 -122Q110 -121 108 -120H107Q103 -124 100 -124L98 -126Q98 -127 105 -128Q105 -128 106 -128Q111 -130 111 -131Q111 -139 108 -148H109Q107 -150 107 -159Q107 -159 107 -160Q106 -161 105 -161Q102 -159 96 -158L92 -155H91L79 -166Q79 -168 92 -169Q92 -170 104 -171Q107 -173 125 -174Q125 -175 129 -176H133Q136 -176 139 -178H145Q148 -179 155 -180Q155 -181 157 -181H158Q158 -181 158 -181Q159 -181 167 -182Q167 -182 168 -182Q168 -183 176 -184Q186 -188 186 -190ZM117 -163H114Q112 -162 112 -161Q119 -158 122 -154Q122 -150 122 -149Q122 -145 122 -143V-135H123Q124 -135 126 -136Q131 -138 135 -139Q135 -143 136 -149Q135 -152 135 -154Q136 -154 137 -161Q136 -168 135 -168H134Q133 -167 121 -164Q121 -164 117 -163ZM62 -165L76 -159Q78 -159 84 -155L85 -154V-149L90 -123V-122Q90 -122 90 -121V-118Q88 -107 86 -107H85Q79 -109 79 -114Q78 -114 74 -125Q74 -127 70 -135Q68 -142 56 -156Q56 -158 55 -159Q55 -162 62 -165ZM119 -119Q121 -119 124 -117Q128 -117 130 -115Q132 -116 135 -116Q138 -113 140 -113V-112Q138 -112 138 -111Q141 -110 141 -109L137 -102Q144 -103 147 -103L153 -105Q153 -107 155 -107L156 -106Q156 -108 163 -109Q163 -109 163 -110H164Q165 -109 170 -109Q170 -109 172 -109Q172 -109 175 -106V-104Q176 -104 176 -103V-101Q173 -96 165 -96Q163 -96 160 -95L158 -96Q156 -96 150 -93Q148 -95 147 -95Q147 -93 144 -91H142Q142 -91 142 -92Q139 -92 137 -89Q137 -87 139 -82Q139 -81 138 -79Q139 -79 139 -78V-77Q138 -76 135 -76V-75Q137 -73 139 -73H145Q150 -75 151 -75Q153 -75 154 -75Q154 -76 162 -78Q162 -79 166 -79H168Q169 -80 175 -81Q176 -79 185 -78Q187 -75 188 -71Q186 -69 184 -65H172Q165 -65 161 -64Q158 -64 157 -64Q155 -63 154 -63Q153 -63 153 -64Q132 -60 131 -60Q131 -58 135 -57Q141 -54 142 -51L140 -46Q140 -41 141 -41L151 -44Q151 -44 151 -45H153Q155 -45 158 -43Q159 -43 160 -43Q161 -43 162 -42V-40Q165 -40 165 -38Q165 -31 158 -31Q158 -30 148 -29Q148 -28 147 -28Q147 -28 144 -28Q139 -28 139 -19Q139 -19 139 -13Q139 -10 137 -10Q138 -8 138 -7Q137 -4 137 -3L138 -1L140 -2H143Q144 -2 147 -1Q148 -4 150 -4L153 -3Q155 -4 157 -4Q158 -3 159 -3Q159 -6 162 -6Q163 -6 164 -5Q173 -5 184 -10Q189 -12 190 -12H191L196 -10Q209 -5 209 0V1Q209 2 209 3Q209 7 202 8L190 4Q189 4 189 5L178 3L176 4Q175 3 173 3Q173 5 148 5Q137 7 136 7Q133 7 132 7Q131 8 126 9Q123 9 123 8Q121 10 115 10Q114 10 113 9Q108 10 86 16Q80 19 72 21Q64 26 58 26Q49 19 48 19Q43 18 43 17V16Q44 13 47 13H51Q80 9 83 8Q84 8 86 8Q101 5 106 4H108Q112 2 121 1Q121 -1 122 -1L121 -3V-9Q121 -14 118 -15Q119 -16 120 -16V-17Q120 -18 117 -20Q114 -18 112 -18Q112 -17 108 -16Q108 -15 106 -15L99 -19Q99 -19 98 -20H96Q94 -21 93 -23Q93 -24 101 -26Q101 -28 108 -29Q108 -30 112 -31Q112 -32 113 -32H116Q116 -33 119 -34L121 -37L120 -39Q121 -39 121 -40V-47Q121 -49 118 -51L117 -52V-53Q120 -55 120 -56Q117 -55 116 -55Q116 -56 115 -56Q114 -54 102 -51Q102 -50 95 -49Q92 -47 92 -46Q90 -46 85 -42L83 -43L78 -41Q71 -41 61 -49V-51Q61 -52 80 -55Q83 -57 90 -59L93 -58Q93 -59 95 -60Q95 -60 95 -60Q97 -61 105 -62Q105 -63 110 -64Q117 -65 117 -68Q117 -68 119 -69V-72Q119 -73 120 -74Q119 -82 115 -82H114Q112 -80 105 -78Q100 -76 99 -75H98Q94 -80 88 -82Q86 -82 86 -83L92 -87H96Q96 -88 105 -91Q105 -91 108 -92Q108 -92 108 -92Q118 -95 119 -96Q118 -99 118 -100Q119 -103 119 -104Q119 -104 116 -108L117 -111Q114 -112 114 -114V-117Q114 -117 118 -118Q118 -119 119 -119Z"/>
</svg>