<svg xmlns="http://www.w3.org/2000/svg" viewBox="0 -256 256 256">
	<path fill="#000000" d="M108 -205L115 -202H118L123 -201H126H127Q129 -201 132 -198L131 -197L132 -193Q131 -188 128 -185V-184L146 -189L148 -190V-189L155 -190Q162 -190 163 -184Q163 -177 157 -177Q157 -176 150 -175L149 -174L148 -175L145 -174L143 -175Q143 -172 135 -170Q135 -166 139 -166Q139 -165 144 -162Q145 -162 152 -157Q156 -156 156 -153H159Q159 -151 165 -150Q173 -142 184 -138L190 -135Q195 -131 202 -128L224 -121Q228 -118 231 -118Q237 -117 237 -116Q237 -115 235 -115H225Q220 -115 215 -112L212 -113L206 -110Q204 -110 200 -105H198Q192 -105 188 -110Q186 -110 182 -114Q180 -114 175 -121Q172 -121 166 -126Q160 -134 154 -136Q154 -137 148 -141Q148 -142 146 -143Q146 -144 143 -148L142 -150H139L136 -156Q133 -156 132 -159Q125 -165 124 -165Q117 -163 117 -160L114 -158L115 -155Q114 -155 109 -148L104 -141H105V-140Q102 -135 100 -135V-132Q96 -126 92 -123Q92 -122 90 -121Q90 -119 78 -107L69 -99Q69 -98 62 -95Q47 -86 44 -82L29 -75L23 -72H19V-73Q19 -74 23 -75Q23 -76 26 -77L41 -86Q46 -89 61 -103Q69 -110 69 -112Q75 -121 77 -121Q78 -121 78 -122V-123Q79 -123 81 -128Q83 -128 83 -131Q87 -133 87 -137L89 -140Q90 -140 92 -147Q94 -148 94 -150V-151H93L91 -150Q87 -153 86 -153Q84 -153 84 -156Q81 -156 78 -161L70 -166Q71 -168 82 -168Q83 -170 86 -170L88 -171H93L104 -175V-178Q105 -180 105 -183V-184L108 -189Q106 -198 104 -198L101 -202Q104 -205 108 -205ZM164 -122Q164 -121 172 -120Q175 -118 175 -116Q177 -116 177 -115V-112Q175 -108 171 -108H170L164 -109H160H157L137 -104H136Q136 -103 143 -101Q143 -100 153 -99Q155 -97 155 -93Q152 -83 152 -82V-81Q152 -74 151 -74L152 -73L151 -71L152 -68V-65V-64V-63V-62V-61Q153 -55 153 -40V-36V-34V-33L154 -29L153 -26V-22L154 -21V-17V-9V-6V-4V-1V0V1V6V13Q154 18 145 30H144L143 29V27H144L141 16V15Q139 15 139 12L136 13V11V10Q136 9 137 9H139H141V8V7V5V2V1V-1V-2V-3V-5V-9V-11L139 -25L140 -26L139 -30L140 -32L139 -33L123 -26Q115 -20 107 -16L97 -9L90 -2H89Q86 -2 76 -13V-14L77 -15H81L86 -18Q87 -18 94 -20L96 -21L97 -30L96 -32V-36L97 -40L96 -41L97 -44L96 -46L97 -47L96 -50V-57Q96 -60 95 -62H96V-63Q94 -73 92 -77Q92 -79 89 -81L88 -86Q90 -88 91 -88Q91 -86 99 -84H100Q103 -83 108 -83Q108 -82 111 -81L113 -78L112 -77V-76L128 -82L136 -81L137 -79L138 -86L137 -89Q136 -95 132 -100Q132 -103 131 -103Q122 -101 106 -96L94 -91Q87 -90 86 -88Q82 -86 81 -86L74 -92Q71 -94 69 -96V-99L70 -100H75L77 -101L79 -100Q79 -102 82 -102Q82 -101 83 -101L87 -103V-102L126 -110L127 -109Q127 -111 144 -115Q144 -117 154 -118Q156 -119 164 -122ZM110 -53L111 -52H114L122 -57L124 -56Q124 -58 129 -59Q135 -59 138 -56H139L138 -59L139 -61L138 -64L139 -65V-66L138 -69L139 -71Q138 -75 137 -75Q134 -73 127 -72Q127 -71 123 -70L115 -67Q115 -66 113 -65Q110 -65 110 -53ZM126 -49H124Q122 -46 116 -45H115H110L109 -27H110L132 -35L139 -36V-40L138 -45L139 -46L138 -50Q139 -50 139 -51L138 -54Q136 -53 136 -51Q132 -51 126 -49Z"/>
</svg>