<svg xmlns="http://www.w3.org/2000/svg" viewBox="0 -256 256 256">
	<path fill="#000000" d="M162 -196Q168 -190 171 -190L176 -189L178 -188H180Q183 -188 183 -182V-181Q180 -175 180 -173V-170Q179 -168 177 -168V-167Q178 -167 178 -166V-164L177 -158L178 -155V-151H179L181 -153L182 -152Q183 -153 189 -155Q194 -156 196 -158Q198 -158 198 -159Q202 -162 202 -165L205 -167Q207 -167 207 -162Q216 -157 220 -157L221 -156H225Q229 -153 229 -147Q219 -130 219 -127Q219 -124 215 -111Q212 -103 212 -98L205 -85Q197 -74 191 -74L189 -73L188 -74Q189 -78 190 -80Q189 -80 189 -81V-82V-83Q186 -88 185 -88L178 -86L177 -84V-83L178 -82L177 -79L178 -73L177 -67L178 -54H177V-53L178 -51L177 -50L178 -48L177 -45H178V-44L177 -41L178 -37V-36L176 -34Q178 -34 178 -32L177 -28L178 -25L177 -21L178 -16L176 -7L177 -5Q172 21 167 21H166V20H165L166 19L165 6L166 5L164 3L165 1L164 -1V-4L165 -5H164V-15V-18V-20V-22V-26V-32V-34V-36V-40L163 -41L165 -51L163 -56V-57V-60L164 -64L163 -67V-70L162 -72V-73H163L162 -76V-78L163 -82L162 -84L163 -86H162Q162 -84 151 -81H148Q148 -80 145 -80L144 -79V-75Q144 -71 137 -69H135Q134 -69 132 -82Q132 -86 131 -87L132 -91Q131 -91 130 -95H131L129 -99L128 -107H129L127 -111L128 -114Q127 -114 126 -125V-126Q124 -131 122 -134Q119 -141 119 -144V-145H121Q127 -139 132 -138Q140 -141 146 -142V-141Q148 -144 158 -145Q158 -146 161 -147V-148V-150L160 -159L162 -169L159 -179Q159 -180 153 -186V-188Q158 -192 160 -196ZM106 -184Q113 -177 118 -177Q121 -174 121 -172L119 -164V-161L118 -159V-158Q117 -154 115 -133V-126V-121V-119L114 -116L115 -114L114 -112L115 -109Q115 -108 114 -106V-104L115 -96V-93V-83V-82V-77V-68L116 -61L115 -59H116Q116 -56 115 -56L116 -55V-52V-45V-42L115 -41V-36Q113 -27 104 -19L100 -15H99Q98 -15 97 -17L98 -20Q98 -26 94 -32Q94 -34 90 -37Q90 -39 89 -39L80 -45L81 -46Q85 -46 93 -44Q95 -44 95 -48L96 -55H95V-56Q96 -58 97 -58L96 -60V-63V-65V-68V-77V-78L97 -83V-84L96 -85V-88L95 -93L96 -101V-102H95Q91 -98 86 -95L79 -89H78L74 -93H73Q71 -93 71 -90Q70 -78 68 -78Q68 -75 66 -67Q63 -60 63 -57Q63 -55 61 -54Q61 -52 53 -38Q50 -35 43 -25L33 -14L28 -10L27 -11V-12Q35 -20 43 -36Q43 -38 46 -42Q50 -58 52 -62Q53 -69 57 -86L56 -88L58 -90L57 -92L58 -96V-102L59 -111L58 -113L59 -114L58 -117L59 -119L58 -131V-135L57 -138V-139L58 -140Q56 -141 56 -144L54 -146V-147L55 -148L52 -158Q51 -158 50 -162L49 -163V-165Q49 -166 55 -170H56Q62 -168 65 -165L67 -164H69L70 -165Q70 -167 74 -167Q74 -168 81 -170Q100 -179 106 -184ZM92 -162H91L90 -163L87 -162H85Q85 -161 84 -161H83H82Q80 -160 74 -159L75 -153L74 -146L76 -144L74 -142L75 -141L74 -138Q74 -134 76 -134L83 -136H88Q92 -136 93 -131Q94 -131 95 -129L94 -127L95 -126H96L97 -132L96 -133V-135L95 -137L96 -139L95 -146L96 -149L95 -151L96 -153V-157L95 -163ZM194 -147L191 -148L176 -144L177 -141Q176 -131 176 -129V-125L185 -128Q191 -126 191 -125V-120L190 -119L188 -120Q188 -117 178 -115H176V-113V-109V-106Q177 -102 177 -100L176 -99Q176 -95 178 -95Q180 -96 186 -96L188 -98L190 -96Q192 -101 193 -108Q194 -108 194 -112V-116L196 -117V-122L197 -123L196 -125V-127V-131V-134L198 -135L197 -138L198 -140V-142V-144V-145L199 -149ZM147 -135L144 -136L141 -132L142 -131V-130V-129L143 -119V-117Q144 -115 144 -110V-104L145 -96V-91L144 -89L146 -88H150Q152 -90 160 -91V-94H161L160 -95L161 -102Q160 -107 159 -107L155 -106Q146 -112 146 -115L147 -116H149Q153 -118 156 -118Q161 -120 161 -121V-126V-128L160 -130L161 -133V-140H160L150 -137Q150 -136 147 -135ZM74 -130Q74 -122 73 -118L74 -117Q73 -109 72 -109V-106V-104V-102L71 -101V-99V-98L73 -97H74Q75 -97 75 -98Q76 -98 78 -100Q81 -100 83 -102Q86 -102 91 -106L95 -108L97 -107V-108L95 -117Q96 -119 96 -124H95L94 -120L90 -117H88Q81 -123 76 -130Z"/>
</svg>