<svg xmlns="http://www.w3.org/2000/svg" viewBox="0 -256 256 256">
	<path fill="#000000" d="M143 -186Q144 -186 150 -182H152Q160 -180 160 -178V-176L156 -171V-168Q154 -162 152 -145L151 -141H150V-140Q151 -138 152 -138H153Q160 -142 168 -145Q172 -143 172 -140V-139Q172 -135 157 -131H154Q153 -128 151 -128H148L149 -126Q147 -123 146 -116L143 -111V-110H145Q145 -111 149 -113H150H154Q154 -116 159 -116L161 -115Q161 -117 166 -117Q166 -119 180 -122L190 -118V-116V-115V-112L184 -108H183L180 -110H178H175H171H168L165 -109H161L159 -108V-106L173 -95L183 -89L196 -82Q199 -79 202 -79Q210 -75 216 -73Q226 -69 229 -69L230 -68H231V-67Q229 -66 225 -66Q223 -64 223 -62Q216 -59 209 -54L204 -53Q201 -53 199 -56Q197 -56 196 -59Q191 -59 187 -65V-66Q184 -63 184 -59Q182 -59 182 -54Q181 -54 177 -35Q173 -28 172 -22Q171 -22 171 -17Q165 -2 162 -1Q157 4 150 10H149L148 9V6V1Q148 -2 148 -4V-6L143 -16Q140 -16 138 -21L139 -22L147 -16Q149 -16 151 -14Q152 -14 153 -16H152V-17Q157 -23 157 -30L160 -39H161L160 -45Q162 -49 162 -60Q160 -62 158 -62L156 -59H155L154 -60H153Q151 -59 151 -58L152 -56Q149 -56 147 -47Q146 -47 138 -33Q137 -33 133 -26Q131 -25 129 -21Q128 -21 120 -10Q108 1 107 1L106 0Q109 -4 112 -6Q121 -16 121 -19Q124 -21 130 -32Q130 -34 134 -41Q134 -45 135 -45V-49L137 -50V-52H134V-53V-55Q131 -55 128 -60L129 -61H132Q132 -62 134 -62H139L141 -65V-66L139 -68Q141 -69 141 -71L138 -77Q139 -82 144 -82Q149 -79 150 -78Q151 -78 154 -75Q159 -73 159 -69L160 -70H161V-69H162Q162 -72 170 -73Q176 -72 178 -69H180Q180 -70 175 -73Q175 -74 173 -75Q173 -76 170 -79V-81Q166 -81 164 -85Q158 -92 158 -94Q157 -94 151 -101Q150 -101 148 -105L147 -106Q145 -104 141 -104H140V-103L141 -102L134 -85L130 -78Q127 -74 124 -68Q121 -68 111 -58Q109 -56 99 -49V-45V-37V-34L100 -32L99 -29V-27L98 -24L99 -23Q99 -21 98 -21V-18V-16Q94 -6 88 0H86Q85 0 85 -3V-5V-12V-13Q81 -17 74 -30L70 -32V-34Q72 -34 80 -30H82L81 -31V-33Q82 -34 82 -36H83H82V-42Q82 -45 83 -47V-49V-50V-54L84 -56L83 -59V-76L82 -77L83 -85V-87V-90L82 -94L83 -95V-96L82 -99Q81 -103 81 -107V-113V-115V-120V-122L82 -125L81 -129Q81 -131 82 -131L81 -133V-137V-138V-140L83 -143L81 -145L82 -149Q81 -149 80 -150L81 -153L76 -155Q76 -153 71 -153Q70 -150 63 -148Q60 -146 60 -144L61 -143L59 -139V-137L58 -126Q58 -124 59 -122Q59 -119 56 -119V-118L58 -116L57 -114L59 -113V-110L58 -109Q59 -108 59 -104V-103V-102V-93V-92V-90V-88Q59 -86 58 -84L59 -83V-81L57 -74H58Q54 -50 52 -46Q52 -42 49 -39Q49 -37 48 -36Q48 -33 39 -20Q31 -9 23 0L18 4L17 3Q26 -8 26 -9Q35 -25 38 -36Q41 -44 44 -63Q45 -63 46 -68L45 -74L46 -81Q44 -81 44 -82V-83Q44 -84 46 -84V-86L45 -88L47 -95Q45 -97 45 -99L47 -102Q46 -102 45 -104Q46 -106 47 -106V-108Q46 -108 46 -109V-118V-119Q44 -122 44 -124L46 -128L45 -130L46 -131L44 -134V-135V-139Q44 -142 41 -152L36 -158Q38 -159 38 -162H40Q44 -158 50 -157Q50 -155 51 -155Q52 -153 53 -152Q54 -153 64 -155L66 -157L67 -156Q67 -158 76 -161V-160Q80 -163 83 -170H84H85Q88 -168 91 -168Q91 -166 92 -166L94 -167Q106 -165 106 -163Q106 -162 107 -160V-159V-158H104V-157Q106 -157 106 -156Q99 -142 99 -135V-133V-131Q100 -131 100 -128Q98 -126 98 -123V-113V-108V-104V-102V-99V-90L99 -86L98 -83L99 -80L98 -77L99 -72L98 -68L99 -66L98 -58L99 -56V-55Q99 -52 100 -52H101Q101 -53 108 -59L117 -70Q120 -72 123 -81Q126 -85 126 -89Q128 -90 129 -90L128 -91V-92Q128 -93 130 -93V-95V-100H129Q125 -96 121 -96L120 -97L117 -95H116Q114 -97 112 -97L106 -99V-101L107 -102L109 -101Q109 -102 123 -104Q124 -106 129 -107Q131 -107 134 -112V-115L135 -121H133L125 -128Q125 -129 131 -130L136 -133L138 -144L140 -158L141 -160H140V-165L141 -167L139 -177L135 -180V-183Q136 -184 143 -186ZM165 -173Q190 -170 190 -168Q197 -163 197 -158Q196 -153 192 -151L190 -149H188L183 -152Q180 -157 176 -161Q176 -162 173 -163Q173 -164 169 -168Q169 -170 164 -170V-172ZM121 -162Q125 -158 128 -158Q128 -156 135 -153L136 -151Q136 -149 133 -147Q132 -146 123 -143Q123 -142 121 -142L103 -133V-134Q103 -135 109 -140Q120 -150 120 -157L119 -158V-159ZM64 -122L70 -120L73 -121Q79 -119 79 -118V-117H78L80 -114L79 -113V-111Q78 -109 76 -108Q72 -110 68 -117Q67 -117 64 -121ZM63 -90L76 -87Q76 -85 78 -83L79 -81V-79Q77 -74 76 -74Q73 -75 70 -81Q69 -81 62 -89ZM233 -68H234Q235 -67 238 -67V-66L236 -65Q233 -65 233 -67Z"/>
</svg>