<svg xmlns="http://www.w3.org/2000/svg" viewBox="0 -256 256 256">
	<path fill="#000000" d="M188 -176Q195 -175 197 -171Q194 -164 190 -164L184 -161H182Q177 -161 168 -157L159 -153Q156 -153 150 -150L148 -149Q146 -149 144 -153Q141 -153 137 -156Q133 -157 133 -158V-160V-161H135Q136 -161 139 -162H142Q142 -163 154 -167Q155 -169 163 -170Q163 -171 170 -172Q170 -173 188 -176ZM100 -171Q101 -171 104 -169Q117 -167 117 -165L118 -163V-162Q114 -155 114 -152Q112 -152 112 -145H111L110 -144L111 -137L110 -134L111 -131L110 -129L111 -126L110 -122V-121V-115L109 -110L110 -108L109 -106L110 -104Q110 -100 108 -98Q110 -97 110 -96L109 -94Q109 -90 110 -90V-88V-83V-81V-77V-74L111 -71L110 -64L111 -63V-62Q111 -61 109 -61V-60L112 -57L111 -55V-52L112 -50L111 -47Q112 -45 115 -45L121 -46L133 -48L137 -47L153 -51L156 -50L165 -52Q183 -57 191 -57H192Q194 -59 211 -60L224 -62Q225 -60 228 -60L233 -56Q233 -50 229 -50Q229 -49 226 -49Q223 -49 222 -50H221H210H209H207H200H198H194H191H190L187 -49H184L179 -47L177 -48L173 -46H172V-47L160 -44Q148 -41 141 -41Q141 -40 139 -39H138Q128 -36 126 -36Q116 -43 113 -43Q112 -43 112 -39H111L112 -32L109 -23L106 -19H107V-18L104 -13L98 -7H96Q92 -10 92 -11L93 -16Q93 -18 89 -24Q89 -27 83 -34Q83 -37 73 -41V-42Q73 -44 76 -44L88 -41Q91 -44 91 -45V-48V-53V-58L92 -59L91 -64L92 -66L91 -72H92L91 -73L93 -76L91 -78L93 -80L91 -81V-83L92 -86Q91 -86 91 -89L90 -90L79 -79Q77 -78 76 -75H73H72Q67 -77 67 -78H66V-77L67 -76Q66 -75 65 -68L66 -66Q63 -64 63 -54L60 -50V-46Q58 -41 56 -40Q56 -35 54 -34Q50 -30 50 -27Q48 -27 46 -21Q44 -18 39 -14Q39 -12 30 -4Q30 -2 25 0L23 1L22 0V-1Q34 -10 38 -18Q39 -18 39 -23Q42 -27 45 -33V-34Q45 -35 48 -39L52 -58V-61Q54 -63 54 -67H55H54V-68L55 -71Q54 -71 54 -72V-82V-87L55 -92V-95V-105L54 -108Q54 -113 56 -119Q54 -119 54 -124V-132Q54 -135 52 -136V-137L53 -139Q51 -141 50 -145Q49 -145 46 -152Q46 -155 51 -156H52Q54 -156 60 -152Q61 -152 61 -153L64 -154Q66 -157 68 -157H70L78 -161L79 -162H80L81 -161V-162Q81 -163 88 -164Q89 -167 94 -168Q98 -171 100 -171ZM86 -153H83Q74 -149 70 -149L68 -148H66H64V-147Q67 -147 68 -142H69L68 -140L69 -137L67 -134L69 -131L68 -125Q68 -123 70 -122H72H73Q75 -125 86 -125Q90 -125 90 -120V-117Q89 -115 76 -113L74 -114Q72 -112 68 -112V-103V-102L67 -101L68 -98L67 -90V-88L68 -87Q77 -90 81 -94Q85 -94 89 -97Q91 -97 92 -102V-104Q93 -104 93 -110V-114V-117Q92 -124 92 -125L93 -135L92 -137H93L92 -140V-142V-143L91 -145V-148V-152L92 -153L91 -155H89ZM188 -146H191L194 -145H196Q208 -142 208 -139V-137Q204 -131 191 -117Q191 -116 186 -113L185 -111H186H189Q190 -111 191 -108Q191 -105 179 -104L171 -102L165 -100L164 -99H163L162 -100H161Q158 -97 153 -97L151 -95L147 -96L146 -95L148 -92Q147 -90 143 -88Q140 -88 137 -97Q136 -97 136 -100L133 -111V-113L131 -117V-121Q129 -121 128 -126Q126 -126 126 -132L128 -133H129L137 -127H138Q139 -128 141 -128Q143 -131 145 -131L147 -130Q148 -133 161 -135Q161 -137 164 -137Q174 -141 180 -141Q183 -144 188 -146ZM163 -129H162Q155 -125 150 -125L147 -122L144 -124L143 -123V-122L148 -117L147 -116L148 -104Q150 -104 158 -107L164 -108H165Q169 -111 173 -111Q173 -112 177 -113Q180 -121 180 -129V-131V-132V-134Q173 -133 163 -129ZM180 -100Q181 -100 185 -98L191 -96Q194 -96 197 -93V-91Q197 -87 187 -81Q187 -78 184 -77L180 -72H178L176 -68Q175 -67 172 -67Q166 -58 163 -58V-55L162 -54H160L158 -55Q161 -58 163 -62Q164 -62 167 -67Q168 -68 171 -75L178 -87L180 -93V-94Q180 -97 177 -98V-99Q178 -100 180 -100ZM134 -86H136Q140 -83 147 -83Q155 -73 155 -71L154 -68V-67Q154 -60 149 -58H148Q144 -59 142 -66Q142 -69 133 -85V-86Z"/>
</svg>