<svg xmlns="http://www.w3.org/2000/svg" viewBox="0 -256 256 256">
	<path fill="#000000" d="M116 -203L128 -196Q133 -194 133 -189V-188L129 -183V-182L130 -181L131 -182L133 -181L136 -183Q139 -183 142 -179Q138 -174 130 -174H128Q123 -174 123 -170Q122 -170 120 -164Q118 -163 118 -162Q121 -162 124 -157V-156Q124 -155 119 -153H116L105 -151Q103 -151 98 -149L93 -147Q99 -142 102 -141L104 -140Q111 -142 114 -144Q115 -144 122 -148Q134 -144 134 -140Q137 -140 137 -139Q126 -129 122 -129V-127Q123 -127 125 -124Q122 -120 115 -120Q115 -119 108 -119Q101 -117 101 -114L100 -110Q101 -107 102 -107L108 -109Q108 -110 110 -110H111L113 -112H115Q118 -112 121 -109V-108L117 -104L113 -105L98 -100H97L98 -99L97 -94V-92Q95 -90 95 -86H97Q97 -88 101 -88Q102 -90 107 -90L109 -91H111L120 -95Q124 -95 126 -96Q132 -95 132 -91Q132 -89 127 -89L126 -88H125L124 -89Q120 -87 109 -86H106Q105 -84 102 -84Q102 -85 100 -85Q97 -81 93 -81V-79Q91 -77 87 -68Q86 -68 83 -63Q80 -59 77 -58Q77 -57 75 -54Q75 -52 67 -47Q57 -38 48 -33H46L45 -34Q50 -39 57 -42Q59 -47 62 -47L68 -55Q71 -60 75 -65Q75 -68 80 -75V-76H79Q78 -74 74 -74L72 -72H68Q67 -70 63 -70Q58 -66 52 -66Q50 -63 47 -62H45Q41 -65 34 -67V-68Q34 -71 45 -72Q46 -73 59 -76Q59 -77 66 -77L81 -82Q83 -84 85 -93H84Q83 -93 76 -89Q75 -89 74 -88Q67 -90 67 -92Q67 -94 73 -94Q77 -97 81 -98Q81 -99 85 -99Q87 -105 87 -109V-110H84L79 -108Q79 -107 75 -106V-105V-102L73 -100H71Q70 -100 70 -104Q67 -104 65 -110Q63 -111 60 -121Q57 -124 57 -127L56 -128V-129L57 -131H58Q63 -126 64 -126H66Q69 -127 73 -127L75 -129H76L77 -128H79Q81 -131 87 -133Q89 -133 89 -134L88 -138L89 -140L87 -141H86Q86 -138 83 -136Q78 -140 77 -143V-145Q76 -146 76 -150L75 -152V-153V-154L73 -156L56 -149H55Q52 -149 49 -154Q49 -158 56 -158L70 -163Q68 -165 64 -174L59 -180V-181Q61 -185 63 -186H64Q64 -184 83 -181L87 -177V-175L86 -168L87 -167H89L93 -169L94 -168Q99 -172 104 -172Q105 -174 110 -176Q111 -176 113 -189L114 -190Q114 -192 111 -198Q112 -201 116 -203ZM157 -195L174 -188Q177 -187 177 -182V-180Q174 -175 161 -166Q160 -164 158 -164Q158 -162 153 -159Q153 -158 150 -158Q150 -154 145 -153Q148 -151 151 -146L156 -143V-140Q155 -131 153 -131H152V-130Q155 -130 155 -129V-128L153 -126L155 -124L154 -122V-120V-115V-114L155 -111V-110L154 -109V-104L153 -102L154 -99L153 -98L154 -94L153 -92Q154 -89 155 -89H156Q165 -92 170 -92Q170 -93 175 -94V-95L174 -97V-99L175 -102L174 -110L175 -111V-112Q169 -110 167 -108Q166 -108 166 -109L165 -110Q164 -108 163 -108H162Q158 -108 158 -109L172 -115Q174 -116 175 -117V-118L176 -130Q174 -131 169 -131Q168 -128 165 -127L163 -129L162 -128H161L159 -129H158L157 -130Q157 -131 166 -133Q166 -135 176 -135V-136V-141L175 -145L176 -146L175 -151V-153H171Q169 -153 165 -149H162Q160 -150 158 -152V-153H159H160Q161 -153 161 -152H163V-153L161 -154L169 -156Q169 -158 200 -165H201Q201 -167 206 -167Q209 -166 210 -165V-162L204 -159L193 -158Q193 -157 191 -157L188 -158L187 -157V-156Q192 -156 194 -147L193 -145V-144H194L200 -145Q205 -145 205 -139L201 -136H199L197 -137Q196 -136 191 -135L190 -136L189 -135Q191 -132 191 -131L189 -123V-122L190 -121Q199 -123 201 -125H203L205 -122V-121Q203 -118 201 -117H198H195H194H192L190 -116H189Q188 -116 188 -117H187H186V-115Q188 -115 188 -112L187 -104V-97Q188 -97 190 -99H194H198H199H201Q202 -101 203 -101H205L213 -103Q222 -100 222 -97V-96V-95Q221 -91 210 -91H209L206 -92H205L198 -91L197 -92H196Q195 -91 192 -91H187L185 -90H183Q173 -89 165 -86H164Q161 -86 154 -82H152V-81L153 -79Q151 -72 149 -72H147Q144 -74 144 -75V-76L145 -79Q144 -79 142 -83V-85V-89V-90V-92V-95V-97V-98V-100V-103L143 -107V-109V-113V-117V-120V-126V-130V-135L142 -141L143 -143L142 -146V-148V-149H141L133 -145V-146V-147Q146 -158 150 -173Q153 -175 154 -180L156 -182L155 -185L156 -186L152 -191V-192Q155 -195 157 -195ZM181 -180H183H190H193Q196 -180 198 -176V-173Q193 -167 191 -167Q185 -170 183 -173Q179 -176 178 -176H177V-178Q177 -179 181 -180ZM95 -165V-166L88 -162H87H86L88 -160L87 -157V-155L88 -152Q100 -154 100 -156H101L103 -155L105 -157H106H107Q108 -157 108 -164V-165L109 -168L108 -169Q105 -169 95 -165ZM104 -134L105 -133V-131L103 -130Q105 -129 105 -128Q105 -125 102 -125V-124L104 -122L110 -123L112 -124V-128V-129Q113 -131 114 -136H111Q109 -134 104 -134ZM76 -125H75Q75 -122 74 -122H71Q75 -118 75 -117L74 -113Q75 -113 75 -111L88 -115V-117V-119V-121Q89 -123 89 -129H88Q85 -126 76 -125ZM101 -79H102Q113 -79 113 -77H114Q119 -77 124 -72V-66Q124 -63 119 -59H116Q113 -61 111 -65Q105 -74 99 -77ZM187 -72H188H189H190Q192 -72 196 -66Q198 -66 200 -61V-55Q199 -54 198 -46L197 -45L198 -44L196 -38L197 -36Q196 -24 195 -20V-18Q195 -10 190 7Q190 9 187 12Q184 19 177 24L174 27H171L170 26Q171 24 171 22L169 17Q165 4 163 4Q160 0 157 0Q157 -2 159 -2Q164 0 171 2Q173 0 174 -9H175L174 -12L175 -14V-18V-31L177 -32L176 -34V-37L175 -40L177 -42L176 -44L177 -47V-49V-54V-57L176 -58H173L165 -59L164 -58H162H160H159L156 -57L154 -59Q153 -57 151 -56L150 -57Q145 -57 145 -54L142 -51V-49L141 -48H138V-47V-45L123 -30Q122 -30 115 -23L113 -22L112 -23Q119 -33 120 -33Q124 -41 124 -42Q124 -43 127 -44V-45Q131 -50 131 -51L130 -52H129Q126 -50 124 -50L122 -48L120 -49L110 -44L106 -45V-44L109 -41L108 -40L109 -36H108L109 -32L108 -30Q109 -30 109 -28L108 -27Q110 -26 110 -25L109 -23L110 -20V-16L109 -13L111 -12V-9L112 -4V4Q111 11 106 18H104Q102 18 102 14Q99 13 95 4Q97 4 97 -2L96 -7L98 -9L97 -11V-13Q97 -14 96 -23V-24V-28L95 -29V-32L93 -40L94 -42Q93 -42 93 -47Q92 -47 92 -52L91 -53L92 -55H93L102 -49H103Q110 -53 117 -53Q119 -54 129 -56Q129 -57 132 -57Q134 -59 134 -62V-63V-68L135 -69H138Q140 -65 147 -65Q148 -62 154 -62Q157 -64 163 -64Q163 -66 174 -66Q174 -68 187 -72ZM151 -46L156 -45H157H160H163Q165 -45 168 -41L169 -42L170 -41V-40V-38Q169 -38 168 -34H167Q162 -35 156 -41Q156 -42 151 -42L150 -44V-45Q150 -46 151 -46ZM139 -37Q142 -35 145 -35L151 -30V-29Q149 -27 149 -25V-24L156 -23H160H162H163Q169 -23 169 -19Q172 -19 172 -18Q172 -12 167 -10Q150 -21 147 -24H146Q146 -22 133 -13Q133 -11 118 0H116H115V-1Q117 -4 123 -8Q128 -17 134 -22L138 -28L139 -33Q138 -34 138 -36Z"/>
</svg>