<svg xmlns="http://www.w3.org/2000/svg" viewBox="0 -256 256 256">
	<path fill="#000000" d="M81 -185H84Q85 -185 85 -181L96 -173Q96 -171 99 -168Q99 -166 91 -162Q90 -162 88 -160Q85 -159 84 -159Q84 -158 79 -158Q79 -156 72 -155Q70 -153 67 -152Q64 -149 56 -145H55V-144H58Q67 -138 67 -137L68 -132V-131V-129L69 -117L68 -114L69 -113L68 -110L69 -108L67 -106L69 -104V-103L68 -101L69 -99L68 -94L69 -93Q80 -95 82 -97L94 -100V-101V-104V-109Q94 -110 95 -112V-113L94 -120V-122V-137V-145H93Q91 -143 87 -143Q84 -140 80 -139L72 -142L69 -144Q73 -148 80 -148Q82 -150 89 -152L100 -161H101Q109 -157 113 -157Q114 -157 118 -152V-151Q115 -149 115 -145Q113 -145 111 -136H110V-135L111 -133L110 -131V-130V-127V-118L109 -114L110 -111H109L110 -108V-105H111Q111 -107 124 -108H125Q125 -111 127 -111H128Q129 -111 129 -108L135 -107Q151 -117 153 -117V-116Q157 -117 162 -124H163L169 -119Q171 -119 174 -117Q177 -117 180 -109Q180 -105 172 -98L167 -92Q169 -90 171 -90Q174 -89 174 -88V-86Q166 -80 165 -80H160L146 -76Q139 -68 138 -68H137Q132 -71 132 -72L133 -74Q131 -77 131 -79V-83L130 -84L129 -85V-86L130 -87L129 -90H130L128 -95V-96L127 -99V-100Q126 -101 126 -104H125Q121 -98 120 -98H117Q114 -96 110 -95V-80V-78V-77V-75V-71V-69V-68V-66V-61V-52L109 -39L110 -33L109 -32L110 -30V-27L109 -26V-24V-23L108 -22Q108 -16 102 -9Q100 -6 98 -6Q94 -9 94 -10V-13Q94 -21 90 -26V-28L84 -34Q82 -34 82 -35V-36L83 -37H88L90 -38V-36H92Q93 -36 94 -41V-42V-50V-58V-59V-63V-66V-70V-77V-79V-81V-87V-90Q87 -88 85 -88L74 -84Q74 -82 69 -82L68 -80Q68 -76 73 -76Q73 -75 81 -74Q81 -72 86 -69L87 -70H88L87 -67V-62Q85 -59 83 -59H80Q79 -59 78 -62Q76 -62 75 -66L71 -70L70 -72H69Q68 -72 67 -67L63 -46Q61 -40 55 -30Q49 -16 36 0Q26 9 24 9H23H22Q22 6 30 0Q34 -4 38 -9Q40 -10 40 -12V-13Q43 -16 44 -22Q47 -25 47 -32Q48 -32 49 -38Q51 -38 51 -41V-45L53 -49V-50L55 -62L54 -64L55 -67V-71V-72L56 -77L35 -69H34L24 -76V-78Q24 -80 35 -82Q37 -82 38 -84Q42 -84 42 -86H45Q49 -87 56 -88V-90L55 -93Q56 -95 57 -104L56 -108V-109Q55 -111 55 -113Q54 -115 54 -122Q52 -122 52 -123V-128Q51 -130 50 -134L48 -138L45 -140Q45 -144 49 -147H51L52 -146Q56 -149 58 -149Q59 -154 68 -160Q73 -167 76 -174L75 -176L76 -178Q75 -178 74 -180ZM214 -160H216Q227 -158 227 -156Q231 -156 234 -151Q231 -144 226 -144H225L213 -145Q206 -143 204 -142H203V-143L200 -142H196L195 -141L203 -135L205 -132V-131L204 -124V-107L203 -102L204 -99L203 -96L204 -87V-60V-36Q204 -7 190 2Q190 4 183 6Q180 4 180 -5Q179 -5 179 -9Q178 -9 175 -14Q173 -14 171 -18Q167 -19 163 -23V-24L165 -25Q166 -25 173 -23H175Q178 -23 179 -22H181L183 -33L182 -34Q183 -40 184 -40L183 -44V-48L184 -50L183 -51V-54V-55V-57L184 -59V-61Q183 -63 183 -64V-65L184 -69L183 -73L182 -92H183Q182 -94 182 -97V-98V-103V-104V-106V-108V-110L181 -113V-115L180 -122L181 -125L180 -139Q177 -136 173 -136Q173 -135 164 -134Q164 -133 157 -131Q152 -129 150 -129H148L147 -128Q137 -132 137 -135Q134 -137 134 -140V-141Q134 -142 145 -144Q149 -146 156 -147L157 -146Q166 -150 172 -152H176Q191 -154 196 -156ZM72 -119H75Q79 -116 84 -115L88 -111V-110L83 -105H81Q78 -105 75 -113L72 -117V-118ZM142 -103V-101Q144 -101 144 -100L143 -99L144 -98V-91V-88V-86H145L153 -90H156L157 -95L156 -97Q157 -102 157 -106V-107V-108Q149 -107 142 -103Z"/>
</svg>