<svg xmlns="http://www.w3.org/2000/svg" viewBox="0 -256 256 256">
	<path fill="#000000" d="M159 -205H161Q166 -203 171 -198Q172 -198 175 -196H179Q183 -193 183 -192V-188Q177 -180 177 -179Q174 -175 174 -174L176 -173Q178 -173 181 -175H183L184 -176H187L189 -174L190 -175Q199 -170 199 -165Q199 -162 196 -160Q195 -157 191 -156H190Q186 -156 183 -157H182L180 -158Q178 -157 169 -155H168Q167 -155 163 -149Q160 -139 157 -138Q148 -129 146 -129Q143 -129 143 -126L140 -125L139 -126Q146 -133 150 -151V-152Q145 -152 143 -157L140 -160V-162L144 -163L145 -165H149L153 -166H154V-168Q154 -171 155 -171L154 -173Q156 -176 156 -180V-181V-184V-188Q156 -193 153 -199Q153 -203 159 -205ZM98 -188L102 -184L108 -182Q113 -179 116 -179L119 -175V-173L117 -169V-168Q117 -161 119 -161H126Q126 -160 128 -160L130 -158V-157Q130 -153 123 -152Q123 -150 119 -150V-149L120 -135Q120 -126 112 -125Q108 -130 108 -134Q106 -134 106 -144H105H104Q102 -143 99 -142Q99 -139 94 -139L89 -135H88Q84 -135 82 -139L75 -142L74 -141Q73 -145 70 -145Q67 -145 67 -147V-148L68 -149L71 -148L75 -149L80 -148Q80 -149 88 -152L96 -155H98L103 -156Q103 -164 93 -180V-181Q93 -185 98 -188ZM160 -128Q166 -128 169 -122Q168 -120 164 -117H160Q158 -115 154 -115L147 -112L142 -111Q142 -109 137 -108L136 -107L142 -105Q149 -105 150 -99V-95H151Q160 -98 169 -99Q169 -100 178 -101L180 -102L189 -103Q193 -103 198 -100Q203 -98 206 -91Q202 -88 200 -88H199H198L192 -89H186H177L176 -88H174Q170 -88 155 -85Q155 -84 150 -84L149 -78V-74V-70V-66V-63V-60L148 -57L149 -51V-27V-22V-17V-14L148 -11V-8Q146 -4 145 3Q144 3 141 11L135 17Q131 17 131 6Q130 6 130 1V-1Q130 -4 131 -4L130 -6V-17V-20L131 -26H130V-29V-46Q130 -54 131 -54L130 -59L131 -62L130 -70L131 -72L130 -73V-76L131 -80H130Q123 -77 113 -76Q107 -72 103 -72L95 -69Q88 -67 75 -59L69 -55H68L60 -61Q50 -65 50 -66V-67Q50 -69 51 -69H55Q59 -71 73 -74L74 -76L78 -75Q82 -77 90 -78L95 -80Q95 -81 102 -81Q102 -82 117 -85Q117 -87 124 -87Q124 -88 127 -89H130V-90L129 -94H130L128 -100H129Q128 -102 127 -103H126Q125 -102 118 -100Q113 -96 112 -96Q104 -105 100 -105L98 -106V-107Q98 -109 100 -110H103L112 -113L116 -114L117 -113Q121 -116 128 -117Q130 -119 148 -124Q148 -126 155 -126Z"/>
</svg>