<svg xmlns="http://www.w3.org/2000/svg" viewBox="0 -256 256 256">
	<path fill="#000000" d="M105 -190L109 -185Q112 -185 113 -183Q122 -179 122 -177L123 -174V-172Q123 -170 118 -165L117 -166Q114 -163 108 -163Q107 -162 94 -158L93 -153L94 -149H93V-148L94 -145L92 -144V-143Q94 -143 94 -142L93 -138H94H96Q98 -139 98 -143L100 -144L99 -146L100 -148L101 -149H103Q109 -143 113 -143Q114 -143 119 -140Q122 -140 122 -135V-134Q122 -129 114 -129L113 -130Q113 -128 103 -124Q103 -122 96 -120Q93 -118 93 -116L92 -111L93 -110V-108V-104V-100L95 -99Q100 -104 102 -108Q102 -109 104 -112V-115Q107 -117 108 -117H109H110Q110 -115 113 -115Q115 -113 121 -112Q125 -107 125 -104Q124 -104 122 -100L118 -98H115H114H113Q109 -92 103 -89Q99 -86 95 -82Q93 -82 93 -78L94 -75L93 -72V-68H91V-66Q93 -66 93 -65Q92 -64 92 -59Q91 -58 89 -58V-57L90 -56V-55Q88 -54 88 -51L86 -49V-48H87Q88 -51 101 -52L102 -51Q106 -54 113 -54Q113 -55 115 -55H117V-59L118 -61Q118 -68 115 -72V-74Q127 -87 127 -90Q132 -99 132 -101Q136 -110 137 -112V-114Q137 -118 140 -124V-129L141 -131V-132L140 -135L141 -137H139Q136 -141 136 -144Q133 -147 131 -152L128 -155L130 -157H131H133Q137 -158 150 -162Q150 -163 161 -164Q169 -167 172 -169Q173 -169 174 -171L177 -173Q178 -173 183 -180L186 -183Q195 -173 203 -173Q203 -172 208 -171L210 -168V-167L207 -161L208 -158Q202 -156 202 -153Q200 -153 200 -149Q199 -149 199 -145L197 -144L198 -141Q197 -141 196 -136V-134Q194 -133 191 -120Q189 -115 189 -113Q188 -113 186 -104Q181 -97 181 -93Q180 -93 180 -90Q179 -89 177 -85Q173 -80 172 -80V-78Q164 -69 157 -67Q155 -67 154 -72L155 -76H154V-77L155 -78Q153 -80 153 -81L154 -84Q152 -84 152 -90Q147 -95 147 -97L148 -98Q150 -97 150 -95L160 -94Q164 -97 164 -102Q167 -105 168 -116Q170 -117 170 -119V-121Q170 -125 172 -131Q172 -133 173 -137V-140L174 -146L173 -148L175 -154L174 -153H170Q170 -152 163 -149Q161 -148 161 -147Q158 -147 155 -144Q152 -142 151 -140H147L146 -139V-138L147 -137L148 -138L150 -137H151Q152 -137 154 -139Q155 -139 155 -137Q158 -137 158 -136Q158 -131 155 -126V-125Q153 -124 149 -113Q148 -113 147 -109Q144 -109 144 -105Q142 -104 142 -101Q138 -94 128 -83Q127 -82 125 -79Q123 -79 123 -76Q123 -73 131 -71L134 -72Q144 -68 144 -66Q145 -61 146 -61H153L160 -63L161 -62Q165 -63 185 -67H186L200 -70L208 -72Q212 -72 215 -75H217Q220 -72 227 -72Q232 -70 232 -66L233 -63Q233 -56 224 -53Q219 -55 214 -55L208 -54L195 -57L186 -54L185 -55L181 -54H180L179 -55L163 -53H157H154Q154 -51 146 -51L145 -52Q143 -50 137 -50H136H135Q134 -45 131 -41Q131 -40 123 -34Q123 -31 115 -23Q113 -23 113 -19Q111 -19 105 -13Q104 -13 100 -8Q84 4 79 9H77Q77 11 69 14V13Q69 12 79 5Q90 -5 98 -14Q99 -14 99 -17Q104 -22 105 -25H106V-28Q110 -33 113 -40Q113 -42 115 -44V-46L105 -44L101 -45L100 -43H96Q86 -40 81 -39Q70 -36 65 -34L59 -32H58Q58 -30 53 -30Q53 -28 45 -26Q42 -23 40 -23Q31 -32 27 -33Q23 -36 23 -38Q23 -40 34 -41H36H38Q38 -42 41 -42V-41V-42H42H50Q50 -44 68 -46L79 -49L81 -48L82 -50Q81 -50 81 -64V-66L80 -67V-68L81 -71L78 -72Q73 -71 63 -64Q61 -64 50 -58Q48 -58 46 -57H45L44 -58L48 -61Q60 -67 67 -74Q68 -74 72 -79Q80 -83 80 -86V-88V-89L79 -100L80 -105V-113H78Q78 -110 77 -110L76 -111L53 -95H51L50 -96V-97Q58 -102 76 -117Q77 -119 80 -119V-121L78 -123L80 -126Q79 -142 78 -142L79 -144V-150H78Q77 -150 72 -146Q68 -146 64 -143Q56 -140 53 -137L46 -133H43H42V-135Q56 -142 75 -158L77 -159L76 -162Q77 -164 77 -165Q76 -167 73 -172V-173Q77 -179 81 -179Q91 -173 94 -173Q99 -178 99 -181Q99 -189 105 -190ZM139 -42H140Q141 -41 152 -39Q152 -38 160 -36Q163 -36 163 -34L166 -35H167Q170 -32 170 -30L182 -22L191 -9Q193 -6 193 0V1Q190 7 186 11H184H181Q178 11 176 5V4Q174 4 171 -2L165 -9V-11Q162 -11 162 -15Q155 -21 154 -24Q150 -28 148 -29Q148 -30 141 -36Q141 -37 140 -37Q137 -38 137 -40Q138 -42 139 -42Z"/>
</svg>