<svg xmlns="http://www.w3.org/2000/svg" viewBox="0 -256 256 256">
	<path fill="#000000" d="M152 -192H153Q156 -189 171 -185L174 -180V-177Q174 -175 168 -168V-166H170L185 -171Q190 -171 190 -163Q190 -159 179 -154H173Q172 -153 162 -149Q158 -149 155 -142Q137 -123 134 -122H133V-126Q138 -130 138 -135Q140 -136 142 -149Q142 -152 135 -152L134 -153L135 -155H140L144 -157Q146 -157 146 -158L145 -159Q148 -162 148 -173L149 -174L148 -176V-178L144 -184Q147 -189 152 -192ZM83 -176H86Q87 -176 91 -173H93Q94 -172 102 -171H105H108Q111 -167 111 -166V-162L110 -158V-154V-152Q110 -149 111 -149H112L124 -153H127Q129 -153 129 -152Q128 -149 118 -146H117Q110 -143 110 -140L111 -139L110 -137L111 -132V-130Q112 -130 112 -129V-127Q110 -126 110 -122Q109 -122 108 -119Q103 -116 99 -116V-117V-120Q97 -122 97 -127Q96 -127 95 -133V-135Q89 -131 88 -131Q86 -131 81 -126Q78 -124 74 -124Q70 -124 68 -128L62 -135Q62 -137 79 -141Q79 -142 81 -142L83 -141L86 -142H87Q87 -144 90 -144L93 -143V-144L92 -147V-149Q90 -152 90 -154L91 -155L88 -159V-161V-162L87 -166Q81 -169 81 -173Q82 -176 83 -176ZM137 -122Q142 -118 147 -117Q147 -116 151 -115L154 -112V-111Q151 -95 150 -93H149L150 -92L149 -90L150 -88L149 -83H150Q153 -86 175 -90Q175 -91 184 -92H185H187Q187 -91 193 -90L194 -88Q192 -83 187 -83L173 -78Q172 -77 159 -73L147 -68V-67Q148 -67 152 -62L167 -47Q198 -18 202 -18Q206 -14 214 -10L215 -9H216Q217 -8 226 -4Q230 0 238 2Q237 4 234 4L231 3H230H229H225H221Q221 4 214 4H212L210 5H208Q201 7 199 9H195Q189 3 183 0Q183 -2 178 -5Q174 -9 169 -16Q167 -17 163 -24Q162 -24 157 -32Q156 -33 149 -40Q149 -42 144 -43L142 -41V-39Q140 -37 140 -35L135 -29V-28H134H135V-27Q123 -15 120 -15Q118 -12 113 -10Q113 -8 100 -1Q88 7 86 7L85 6Q98 -4 103 -8Q118 -24 120 -30Q126 -37 126 -41L127 -43L126 -45Q129 -52 130 -59L131 -60V-61Q119 -59 119 -57V-56H118Q115 -56 103 -67L97 -72L98 -73H100H102Q108 -75 115 -76Q117 -77 128 -78Q128 -79 133 -79H134V-80H133L135 -88L134 -92L135 -96L134 -98L135 -100V-108Q135 -111 129 -113Q130 -122 137 -122ZM173 -119Q180 -117 184 -114Q192 -110 192 -107Q190 -101 187 -101Q185 -99 182 -99Q177 -101 177 -103L178 -104L174 -110Q170 -117 170 -118ZM86 -118Q97 -109 99 -109Q99 -107 106 -105L110 -101Q110 -95 107 -95Q105 -95 103 -91Q99 -91 93 -86Q92 -86 88 -81Q80 -76 77 -73H75Q75 -70 72 -70Q72 -68 70 -68L68 -66Q70 -66 71 -64L70 -63L71 -62H72L73 -63Q84 -59 85 -56Q82 -54 82 -43H81V-42L82 -38V-36L81 -35L82 -28V-27L83 -10Q82 -10 82 -9L83 -7L82 -4V-1L83 0Q83 11 72 16Q67 16 67 5L66 4V0L64 -1V-2Q64 -3 66 -5L65 -8L66 -9V-11V-18V-26L65 -28L67 -32Q66 -32 65 -33L67 -36Q66 -38 66 -42V-44Q63 -62 62 -62L50 -56Q21 -39 18 -39V-40Q20 -42 32 -50L50 -64Q50 -65 59 -73Q63 -80 66 -81Q72 -89 73 -89Q74 -89 75 -93Q77 -93 77 -96Q79 -98 79 -101Q83 -103 83 -108L79 -112V-113Q81 -117 86 -118Z"/>
</svg>