<svg xmlns="http://www.w3.org/2000/svg" viewBox="0 -256 256 256">
	<path fill="#000000" d="M138 -193H139Q143 -190 158 -185L161 -181V-178Q161 -176 157 -170Q157 -167 154 -161L155 -160Q167 -167 172 -167Q176 -167 180 -161V-160Q180 -155 171 -153L166 -152Q166 -151 156 -149Q156 -148 152 -148L147 -146Q144 -137 140 -133Q139 -133 139 -131Q130 -122 125 -118Q122 -118 122 -119Q122 -122 125 -124Q125 -127 126 -127V-129Q126 -131 127 -131L126 -134L129 -137L128 -139L130 -140V-141H129L128 -140H127L123 -144V-145Q123 -148 132 -150Q134 -151 134 -153V-157L136 -160L135 -162Q136 -167 137 -168V-173V-178Q135 -184 134 -187Q135 -191 138 -193ZM79 -174H81L86 -172Q87 -172 94 -167Q97 -167 103 -163L102 -155H103V-154H102L103 -152L102 -149Q103 -147 104 -147Q114 -149 114 -150H116Q118 -149 118 -147Q118 -146 108 -143L102 -138V-135V-133V-131V-129Q101 -128 100 -121V-119L98 -111H97H95Q98 -107 101 -107L105 -105L108 -102V-100L105 -91V-90L106 -84Q105 -79 105 -69V-67Q105 -64 104 -64L105 -54Q104 -48 104 -47L105 -45V-39L104 -38H105V-37L104 -35L105 -32V-28V-17V-15V-10V-7Q104 0 99 8L91 15Q89 14 89 12V11L90 9L89 8V5Q89 2 84 -7Q83 -11 80 -14V-16Q83 -16 85 -14H87Q89 -16 89 -23V-24V-26V-29V-32V-35L90 -36V-37L88 -40L89 -46V-47Q87 -45 81 -44Q78 -43 76 -41H74Q70 -45 65 -45H64H63V-41Q61 -27 54 -12Q41 11 26 18V17V16Q40 5 41 0L47 -11V-12L49 -16V-18Q50 -21 51 -28Q53 -35 54 -52L56 -62Q55 -73 54 -74L55 -79L53 -86L54 -88L53 -91V-93Q52 -93 51 -98Q49 -98 49 -101L51 -102L58 -95Q62 -98 63 -99H67L72 -101Q75 -101 76 -103Q90 -106 90 -110Q92 -110 93 -112H94Q94 -113 91 -117Q91 -119 89 -123V-124Q87 -127 87 -131Q83 -127 76 -124Q76 -123 71 -121Q68 -121 58 -130Q54 -130 53 -133L54 -134H57Q64 -134 73 -138V-137L77 -139H80Q82 -141 85 -141V-142L81 -154Q80 -154 80 -159L75 -167V-170Q77 -174 79 -174ZM169 -125Q169 -123 178 -116L180 -110Q180 -109 173 -99Q173 -97 168 -89V-88Q167 -88 159 -77L149 -70L147 -68Q145 -68 144 -73V-77V-79Q143 -80 141 -85L139 -86V-87L140 -88Q146 -87 147 -86Q148 -86 153 -95H154L153 -96L157 -108L158 -109H157H155Q153 -108 152 -108H147Q140 -106 139 -104H138L137 -105H135H134H133Q133 -104 131 -103H130Q128 -103 123 -99L121 -100L119 -99Q121 -96 123 -96H124V-97H125L130 -92V-89L129 -86V-83V-72V-71L128 -68V-63V-58Q130 -58 139 -50Q140 -50 144 -45Q145 -45 149 -41Q154 -41 159 -54Q162 -57 162 -60H157Q156 -59 152 -59Q151 -58 143 -55L142 -54L135 -60Q135 -61 141 -62L146 -64Q146 -65 150 -65Q153 -67 157 -67Q157 -68 162 -69Q162 -70 169 -74Q171 -77 172 -77L176 -73H180Q184 -71 184 -68H185V-66Q185 -63 180 -60Q175 -55 172 -50Q164 -40 163 -37Q162 -37 162 -36Q159 -35 159 -34L173 -23Q182 -20 187 -16Q188 -16 199 -11Q202 -9 207 -9Q207 -7 211 -7Q211 -6 216 -5Q216 -3 229 0L230 1L229 2H228V3L225 2H221Q206 6 196 11H193Q184 4 179 3Q170 -4 168 -4Q167 -4 167 -5Q161 -7 152 -18L147 -23Q133 -13 127 -10L126 -6L127 -4L122 9Q121 11 120 12H119Q118 12 117 4V1L116 -3L117 -6L116 -10V-19L117 -20H116V-27L117 -36L116 -39V-42V-45L117 -46L116 -50V-73V-76V-78V-83V-86V-91V-95V-96Q112 -101 107 -105Q108 -107 109 -107H113L114 -109L116 -108Q118 -110 124 -111V-110Q127 -112 134 -113H135L143 -116Q153 -117 155 -119Q161 -119 161 -122ZM80 -95H78Q78 -94 70 -92Q70 -91 66 -91L65 -90Q67 -87 67 -81V-78Q67 -77 69 -77Q69 -78 73 -78Q73 -80 77 -80L80 -81Q82 -81 87 -78H88L89 -79V-84V-86V-89V-91L90 -96L89 -97H88Q82 -96 80 -95ZM88 -72Q88 -71 85 -69Q66 -68 66 -65L64 -52Q67 -54 80 -56V-57H81L83 -56L86 -57Q87 -57 87 -56L88 -55L89 -56V-58V-59V-63L88 -66L89 -72ZM128 -37L129 -35L127 -25L128 -23L127 -20V-18V-16Q127 -14 129 -14Q134 -18 141 -25Q143 -25 143 -27Q140 -27 140 -30Q133 -39 131 -40Q128 -40 128 -37Z"/>
</svg>