<svg xmlns="http://www.w3.org/2000/svg" viewBox="0 -256 256 256">
	<path fill="#000000" d="M168 -201H169L178 -193H179L181 -194Q191 -191 191 -186Q190 -179 187 -177Q187 -174 185 -174V-171L190 -173Q194 -173 195 -175Q209 -173 209 -170L211 -168V-162Q208 -157 201 -157Q198 -157 196 -156H195L193 -155L191 -156L178 -152Q178 -151 172 -150Q172 -148 165 -140V-139Q165 -138 169 -136Q169 -135 170 -135H174Q178 -133 178 -130Q177 -130 177 -124V-123H178Q182 -126 188 -127Q188 -128 193 -128Q200 -126 200 -122Q200 -119 195 -117Q193 -114 192 -114Q183 -114 175 -110V-105Q175 -102 173 -98Q173 -94 177 -94H178Q181 -96 189 -96Q193 -99 202 -100Q202 -101 205 -102Q211 -102 214 -99Q216 -99 219 -96Q220 -95 222 -92Q219 -86 215 -86L214 -87L211 -86H210Q208 -88 204 -88H195H191H186H184Q183 -87 179 -87Q179 -86 174 -86V-85L175 -84L174 -82L175 -79Q173 -74 173 -69V-63H174V-62Q177 -63 187 -65Q187 -66 191 -67H192Q198 -67 203 -59V-58Q203 -54 194 -52L192 -54H187L186 -55L183 -54H178Q178 -53 173 -52V-51V-38V-35V-33L174 -29Q188 -32 201 -33L203 -34L204 -33L206 -34H208L210 -32L212 -33Q219 -32 224 -25Q226 -21 226 -20Q225 -14 221 -14H219L217 -15L215 -14L213 -15H211Q211 -16 200 -18Q192 -18 187 -20L182 -19L177 -20Q174 -18 170 -18H169Q168 -17 158 -16L157 -15L155 -17Q155 -14 146 -12L144 -11L142 -12Q142 -10 134 -9Q134 -8 124 -4Q124 -3 121 -3Q112 -11 110 -11Q109 -11 107 -14L108 -15H112Q118 -17 124 -17Q126 -19 132 -19L134 -21H135L138 -20L144 -22H146Q149 -25 152 -25Q155 -28 155 -30V-31Q156 -32 156 -34V-37L155 -41L156 -44Q154 -45 154 -47Q153 -45 139 -40L137 -39H135L129 -45Q125 -45 122 -48L124 -49H128L140 -52Q145 -54 154 -56L156 -58V-60V-64V-66L157 -81H156Q154 -78 150 -78L141 -74Q141 -72 137 -72L131 -70Q131 -69 128 -69L122 -65H120Q117 -68 114 -70Q113 -72 110 -72L109 -74V-75L111 -76H112Q112 -77 115 -77Q119 -78 129 -80L134 -81Q135 -83 137 -83H140Q142 -85 144 -85H147Q149 -86 152 -86L153 -88H156V-89L155 -97V-98V-103L146 -100Q146 -98 140 -96L139 -95H137V-96Q136 -96 135 -100Q129 -101 129 -104Q131 -105 133 -105H134H135Q135 -107 140 -108H141Q143 -111 148 -111Q150 -113 154 -114L155 -119Q154 -120 154 -122L155 -127L154 -129H153L151 -125Q150 -125 142 -118L141 -120L145 -127V-128Q149 -135 151 -143Q151 -144 153 -145L152 -146V-148Q154 -152 154 -154Q156 -154 157 -163V-165Q158 -171 160 -171Q160 -177 161 -177Q160 -192 156 -192V-194Q159 -200 165 -200Q165 -201 168 -201ZM98 -186Q104 -182 110 -181Q116 -179 122 -179L126 -172L125 -167L126 -160L125 -152H126H127H129Q129 -153 137 -155Q137 -156 145 -156L146 -158H148Q150 -157 150 -154Q150 -153 143 -152Q130 -145 126 -143V-140L127 -133Q127 -123 123 -121Q122 -118 119 -118Q118 -120 115 -123Q115 -126 110 -135H109Q93 -128 92 -127Q91 -127 91 -126L90 -125Q84 -130 81 -135Q78 -138 74 -139V-140Q74 -142 76 -143H83H87H88Q88 -144 98 -145Q98 -146 104 -147L105 -148L107 -149V-151Q106 -151 106 -156Q104 -161 101 -165Q95 -175 94 -176Q90 -177 90 -180V-181Q92 -183 97 -185Q97 -186 98 -186ZM104 -122Q107 -122 108 -117L119 -112Q122 -109 122 -108Q117 -98 110 -95Q108 -95 104 -90Q95 -84 95 -81Q97 -77 105 -75L106 -72Q105 -67 105 -59V-57V-55V-50V-44V-40V-39L106 -34L105 -26V-23L104 -15V-14L105 -10L104 -6V-5L105 4Q105 20 95 25H93Q91 23 88 8L86 3L87 -2V-5L88 -14V-18Q89 -28 90 -29Q88 -32 88 -33L89 -39L88 -46V-48V-50V-51V-55V-60L87 -61V-66L88 -67L87 -70L88 -77H86Q86 -74 74 -65Q58 -51 52 -49Q50 -47 30 -36H29V-37Q32 -40 48 -51Q52 -58 56 -59L65 -69L76 -83L82 -89L84 -90H83L88 -98L93 -104Q93 -105 97 -112L96 -119Q101 -122 104 -122Z"/>
</svg>