<svg xmlns="http://www.w3.org/2000/svg" viewBox="0 -256 256 256">
	<path fill="#000000" d="M143 -190Q144 -190 157 -183Q161 -183 163 -180Q163 -175 162 -173V-172V-170V-169L166 -171Q174 -171 178 -166Q178 -157 169 -154Q165 -154 162 -152Q159 -152 154 -150H153Q144 -148 144 -143Q141 -138 135 -131Q135 -128 125 -122Q123 -122 118 -117L115 -114H114L113 -115V-116Q120 -121 125 -132Q127 -134 127 -137Q131 -140 131 -143Q128 -144 125 -148Q123 -148 121 -150V-153L126 -155Q126 -156 132 -157L133 -158H136H137V-159L136 -160V-163V-165Q138 -165 139 -175V-178L135 -183Q137 -190 143 -190ZM66 -175H67Q72 -171 74 -171Q74 -169 88 -167Q88 -166 92 -165Q95 -162 95 -159V-158Q95 -155 94 -150V-149H96L108 -150H109L114 -152H115L116 -151Q116 -148 113 -148L111 -147Q111 -146 107 -146Q107 -144 103 -144Q103 -143 99 -142L98 -143Q98 -140 94 -140Q93 -137 93 -134V-131L91 -129L92 -126V-125Q89 -117 87 -117H86Q81 -117 78 -132Q76 -132 72 -129Q70 -129 54 -122Q52 -124 51 -127Q49 -127 47 -131Q45 -132 40 -136L41 -137H44L54 -139L55 -138Q55 -139 62 -140Q62 -141 72 -143H73H74V-145L75 -148Q73 -153 66 -165Q63 -166 63 -167V-169Q63 -172 66 -175ZM162 -133H163Q171 -131 171 -128L172 -127V-126L164 -123Q158 -120 151 -118H150Q149 -118 149 -117L153 -112Q149 -105 147 -105L148 -102L145 -96L146 -95Q146 -94 144 -94V-91Q145 -88 146 -88L158 -93Q168 -95 171 -98H173Q175 -98 176 -96H179Q181 -96 184 -93V-92Q184 -89 179 -86H177H175Q164 -85 164 -83H163L160 -84Q159 -83 152 -82Q152 -81 145 -79H144H142Q138 -77 138 -68Q150 -68 150 -64L152 -63Q152 -58 148 -55Q146 -55 146 -48Q145 -48 144 -40V-39L143 -36V-35L142 -33L143 -31Q143 -30 141 -30V-29L143 -28V-25L144 -22V-20V-19Q146 -18 146 -14Q146 -11 150 -11L164 -9L168 -10H169L171 -9L173 -10H180H181L193 -12V-11Q198 -12 200 -14H205Q211 -22 211 -33V-36H212L214 -35L213 -33Q215 -33 215 -24Q220 -14 224 -11Q225 -10 225 -5Q222 2 219 2L216 4H215Q212 4 207 5H205Q201 6 200 7L194 6L180 8H172H171H168Q154 8 147 4Q145 2 142 2Q140 0 139 -3Q138 -3 135 -13V-14V-17L134 -22Q136 -25 136 -27L135 -30L136 -32V-35V-38V-39L138 -50V-51L139 -54L138 -56L139 -57L138 -59L139 -61Q137 -61 136 -64H135L132 -56Q131 -56 131 -51Q127 -48 126 -41Q121 -35 120 -35H119L120 -33Q115 -26 107 -18Q104 -14 101 -12Q101 -10 82 4L65 13L63 15H61L60 14V13Q60 11 72 5Q73 3 78 0Q80 -3 85 -5Q85 -7 89 -9Q108 -31 110 -36Q112 -37 112 -41Q116 -44 118 -51Q119 -51 119 -55Q121 -55 124 -66L126 -69V-71V-72V-73Q124 -73 121 -69H120L118 -71Q118 -68 112 -67Q112 -65 101 -61Q99 -63 99 -65Q100 -68 101 -72Q107 -72 108 -83Q108 -85 110 -85L109 -91L110 -95Q108 -97 108 -99H107Q106 -99 104 -94Q101 -92 101 -88Q99 -88 98 -81Q96 -81 94 -75L93 -71Q90 -69 87 -64H85H84Q82 -64 78 -67Q63 -61 60 -61Q60 -60 55 -59Q54 -54 51 -53Q45 -57 42 -72Q39 -84 37 -84V-85Q36 -89 31 -93V-97L34 -99L44 -94H49Q52 -95 56 -108Q57 -108 58 -113V-115L56 -118V-119Q58 -122 59 -122H60L65 -120V-121H66Q69 -119 78 -118V-117V-113Q72 -106 70 -106L67 -103L68 -102H70Q72 -103 78 -105Q79 -107 87 -110Q90 -113 94 -114Q95 -116 97 -116H98Q103 -110 106 -110Q106 -109 110 -109L111 -106Q110 -102 109 -101V-100Q112 -100 116 -95Q123 -94 123 -90Q121 -86 118 -83Q118 -81 115 -77Q116 -76 119 -76H120Q123 -79 124 -79H126Q126 -80 129 -81L130 -83V-84Q134 -96 135 -97V-98V-101V-103V-105V-107L136 -110L135 -111Q133 -109 131 -109Q129 -113 125 -117Q128 -121 132 -121H134Q134 -122 143 -125Q143 -126 151 -129ZM80 -99H76Q72 -98 70 -98Q69 -95 67 -95V-96Q61 -96 61 -94Q56 -92 54 -90V-88Q56 -86 56 -85V-83H58Q60 -83 60 -85H61L62 -84L73 -90Q80 -89 80 -88V-87Q80 -84 71 -82L64 -80H63L60 -81Q60 -77 57 -77H55V-76L56 -73V-72Q56 -66 57 -66H59Q60 -68 64 -68Q66 -70 68 -70H70Q71 -72 73 -72H76L81 -76L85 -86V-90Q87 -90 88 -99L89 -100V-102Q89 -103 88 -103ZM83 -57H84Q88 -57 90 -54Q90 -48 85 -48Q72 -45 72 -43Q71 -43 63 -38H62L60 -40H59Q57 -40 56 -37V-34V-23V-20H57Q57 -23 61 -23Q63 -25 67 -26Q71 -29 74 -29L81 -34H83L85 -33L86 -34H87L90 -32V-31L86 -27H83Q83 -24 75 -22Q75 -20 72 -20L57 -11Q55 -9 49 -4Q45 -4 44 -13L45 -18L44 -26L45 -30L44 -33V-38Q42 -39 42 -44Q40 -45 40 -48L41 -50H43Q50 -49 50 -46Q52 -46 53 -44H55H56Q60 -45 65 -48Q77 -53 83 -57Z"/>
</svg>