<svg xmlns="http://www.w3.org/2000/svg" viewBox="0 -256 256 256">
	<path fill="#000000" d="M143 -203H144Q151 -199 160 -197Q162 -195 162 -193Q162 -190 158 -185Q158 -182 155 -178L156 -177L161 -179L168 -182L173 -184H175H181Q184 -182 186 -177Q185 -172 181 -172Q180 -172 178 -171L174 -170L172 -171L169 -169H167L163 -170Q162 -168 160 -168L150 -165Q147 -158 132 -142Q130 -142 128 -140L127 -141V-142Q128 -143 129 -146Q131 -146 131 -150L130 -151Q130 -152 133 -154V-155L134 -157L133 -159L136 -162H135L130 -161L129 -162V-163L126 -164V-163H125L120 -167Q120 -168 137 -172L136 -174L138 -176V-177L139 -187V-192Q139 -195 134 -196V-200Q134 -202 142 -202ZM76 -189L95 -186Q95 -185 96 -185H98Q100 -185 102 -180L100 -177V-176L101 -175V-174H100L101 -166H100L102 -165L112 -167H113Q116 -167 116 -164Q113 -160 109 -158L108 -159L102 -156H101Q100 -150 99 -150L100 -147L98 -146L99 -145Q99 -139 94 -135H92Q88 -138 88 -144V-145V-146V-148L86 -150Q78 -147 75 -144L70 -142Q69 -142 65 -139H64V-140L61 -141Q60 -143 57 -143Q57 -147 55 -147L48 -151V-152Q48 -153 49 -153Q57 -153 61 -155H64Q66 -156 75 -158Q75 -159 79 -160L80 -159L84 -161V-162Q82 -162 82 -167Q80 -167 80 -169V-171L79 -175Q77 -175 77 -179Q71 -181 71 -185L70 -186V-187Q70 -188 76 -189ZM144 -143H145Q147 -141 150 -141Q153 -139 153 -135Q152 -134 148 -128L137 -124L128 -119H126Q123 -122 117 -127Q117 -128 112 -132Q112 -133 118 -134Q119 -134 131 -137Q133 -138 138 -140L140 -141H141ZM56 -119H57L61 -118V-119Q64 -118 65 -118L69 -119Q76 -117 77 -116Q82 -111 82 -105Q82 -102 76 -99L74 -98Q68 -98 63 -104Q61 -104 57 -110Q53 -112 49 -116V-117ZM155 -119H156Q159 -119 160 -116L162 -117L164 -116H165H167Q170 -115 173 -111V-108L169 -103L170 -100Q167 -97 166 -86Q164 -79 163 -78V-74Q162 -72 160 -68Q158 -64 157 -62L152 -57L148 -56H147Q146 -56 145 -62H144Q141 -60 134 -58Q130 -55 123 -54Q123 -52 119 -52L117 -50H115Q113 -52 111 -52H110L108 -54H106V-52Q105 -41 104 -41L105 -36Q105 -28 103 -28V-25V-16H102H103V-13L102 -6L103 -5L122 -15Q122 -16 126 -18Q128 -19 132 -21L133 -20Q113 0 110 6Q97 23 96 24Q94 24 90 27H89H88V24L86 20V13Q87 13 91 -2L90 -3Q92 -15 93 -26H92V-27H93L92 -32L93 -39V-43V-49Q92 -49 92 -55L93 -61Q93 -79 87 -84V-85Q88 -86 90 -86H91L108 -76Q110 -73 110 -72Q109 -70 107 -66V-65L108 -64V-63Q106 -61 106 -58V-57H108L116 -60Q128 -63 136 -67L146 -70Q147 -82 147 -93Q149 -97 149 -105H148Q146 -103 139 -102Q128 -97 127 -97L118 -93Q118 -92 113 -91Q111 -89 104 -87V-88L102 -86Q98 -89 95 -90L91 -95V-96Q91 -98 97 -98L99 -99H102L106 -100L107 -99Q107 -100 131 -105Q131 -106 138 -108Q152 -115 155 -119ZM138 -91H142Q145 -90 145 -87Q144 -83 128 -77Q126 -75 124 -75L122 -74H120Q118 -77 116 -77H113H112V-78Q112 -79 125 -85ZM43 -84Q50 -83 61 -80Q66 -76 68 -72L67 -71L68 -67Q66 -62 62 -61Q62 -59 56 -59H55Q51 -59 47 -66Q40 -74 34 -79V-81ZM81 -67H82Q76 -54 70 -43Q67 -33 66 -33L61 -18L65 -14V-12Q67 -12 73 -3V2Q73 4 69 6Q69 7 67 9H64Q58 7 56 3Q45 -3 45 -10Q43 -11 40 -22L38 -26V-27H39H41Q43 -26 44 -26H45L63 -45Q63 -46 73 -56Q75 -60 81 -67ZM163 -65L169 -59Q176 -55 176 -52V-51Q174 -47 167 -47Q167 -45 159 -41Q150 -37 149 -36Q151 -36 153 -32L159 -28H160Q163 -23 169 -21L179 -15L192 -9H193Q199 -4 205 -2Q214 2 216 2Q220 3 221 4Q221 6 219 6L216 5V6H215L213 5L209 6L207 5Q190 7 187 10L182 11L171 4Q164 2 161 -2Q161 -3 157 -5Q157 -6 144 -15Q141 -21 137 -24Q135 -30 134 -30H133Q131 -28 127 -28Q127 -27 124 -27Q124 -26 122 -26Q121 -24 120 -24H116V-25L126 -30Q132 -33 132 -34V-35Q131 -35 129 -38V-39Q127 -39 127 -42L124 -44Q122 -44 120 -47L123 -52H131L139 -47Q140 -47 142 -43H143V-42Q146 -42 152 -50Q158 -50 159 -61L158 -62Q161 -65 163 -65Z"/>
</svg>