<svg xmlns="http://www.w3.org/2000/svg" viewBox="0 -256 256 256">
	<path fill="#000000" d="M161 -211Q165 -211 168 -207Q170 -207 176 -203Q181 -200 181 -197L182 -196V-193Q180 -191 180 -189V-187Q183 -187 186 -189Q189 -189 192 -191H193Q195 -189 199 -189L204 -185V-183Q202 -179 199 -179L192 -180Q187 -178 183 -178H179Q178 -176 173 -176Q169 -169 165 -161L159 -152Q158 -152 155 -148Q153 -145 150 -145V-146V-147L153 -157V-158L152 -162L154 -164Q151 -165 150 -170Q149 -172 149 -174Q157 -175 157 -180V-182L158 -194L157 -196L158 -198L157 -203V-205V-208Q159 -211 161 -211ZM100 -195L106 -193Q125 -188 125 -186L127 -183V-182L126 -179V-177V-175V-174V-171H127L137 -174L140 -175Q142 -174 142 -173Q142 -172 138 -172Q138 -171 125 -166V-165V-162L124 -160L125 -158L123 -154L124 -153V-152Q119 -145 116 -145H115Q114 -145 114 -149Q113 -149 113 -151Q111 -152 110 -154L111 -157L109 -158V-159L111 -161L109 -162Q109 -160 106 -157L104 -158H103Q103 -155 98 -154Q90 -148 87 -148Q87 -150 78 -158Q75 -159 74 -161V-162L75 -163H78Q82 -163 94 -165Q97 -165 104 -167L107 -168Q107 -170 105 -175Q105 -177 103 -179Q103 -182 98 -191V-192Q98 -195 100 -195ZM195 -152Q197 -150 199 -150Q208 -144 210 -140Q210 -132 205 -130Q205 -126 198 -120V-119Q202 -117 202 -113Q200 -110 198 -110L188 -111L184 -110L182 -111Q173 -111 170 -107Q166 -107 162 -105L160 -104L157 -105Q156 -103 156 -99V-97L160 -99H162L166 -98H169Q178 -94 178 -90Q174 -87 171 -87Q171 -86 162 -83Q162 -82 153 -79Q153 -78 151 -78H150V-77L156 -69Q156 -68 159 -68H160H162Q162 -69 169 -70L177 -73Q186 -71 186 -69V-68L182 -64H181L180 -65Q177 -63 172 -63Q172 -62 164 -60Q164 -59 161 -59Q161 -48 164 -45H165Q165 -47 181 -49Q181 -50 189 -51Q189 -52 194 -53Q194 -54 196 -54H197L200 -55Q205 -54 212 -51Q217 -50 217 -45H218V-44Q218 -42 210 -39H206H199L196 -40L194 -39L182 -40L181 -39H177L175 -38L168 -40L163 -39L164 -36Q164 -30 163 -27V-23L162 -21L163 -18Q161 -14 161 -10V-8L160 -5L161 -3L159 13L154 22Q153 23 150 30Q142 35 141 35Q140 33 139 28Q134 19 120 9L121 7L139 8Q140 8 140 6L142 -18Q142 -28 144 -32L143 -33L140 -31H136Q136 -30 134 -30L132 -31V-30Q131 -28 123 -27Q123 -26 119 -26L98 -16Q96 -16 91 -13Q85 -13 79 -18Q78 -18 76 -20Q72 -21 72 -23L84 -25Q84 -26 86 -26H87H89Q100 -30 105 -30Q106 -32 112 -32Q118 -34 120 -36H124Q132 -38 134 -38Q138 -38 143 -42L142 -51H141Q140 -50 135 -50Q135 -49 124 -46L119 -43H117L109 -48V-49V-50Q109 -51 115 -51Q115 -52 122 -54Q126 -55 126 -57L128 -56H130Q133 -59 137 -59Q137 -60 140 -60L141 -66V-69V-70V-72V-73Q138 -71 132 -69Q128 -67 112 -58H111L110 -59V-60Q113 -63 123 -69V-71V-72Q122 -73 113 -75Q108 -80 105 -80Q104 -82 101 -82Q101 -84 100 -84Q93 -76 90 -76Q90 -73 83 -71H82Q79 -65 75 -65L69 -62Q51 -53 49 -53L48 -54V-55L60 -61Q60 -62 64 -63Q73 -68 77 -74Q79 -74 90 -86L91 -87L82 -91Q82 -95 81 -95H79V-92Q76 -89 74 -89H72L71 -90V-92Q73 -98 73 -100L72 -101Q65 -97 60 -97Q59 -95 56 -95Q56 -93 52 -93L50 -91H49Q47 -91 42 -99L37 -102V-103Q37 -104 41 -104L60 -107L67 -109L69 -108Q69 -109 74 -110L75 -111H78Q79 -116 80 -116H79V-117Q82 -121 83 -126Q86 -131 86 -137V-142Q88 -144 92 -146Q95 -144 100 -143Q108 -138 108 -137L107 -136L108 -134Q101 -129 101 -128Q101 -126 99 -124Q98 -123 96 -118Q95 -117 95 -115L96 -114H97L102 -116L103 -115H104Q105 -117 111 -117L114 -124L115 -130Q118 -130 123 -125Q125 -125 127 -121Q127 -119 123 -115Q122 -112 119 -108Q119 -107 114 -100Q113 -97 109 -97V-95Q109 -94 117 -94Q117 -92 121 -92Q127 -86 130 -82Q129 -77 128 -77L130 -75Q132 -77 135 -78Q135 -79 140 -82Q140 -84 147 -89Q147 -90 151 -91Q151 -93 154 -95L155 -96V-97Q149 -93 148 -93Q145 -93 143 -106L138 -122Q134 -131 134 -136Q134 -138 136 -138Q136 -137 141 -137L147 -132Q150 -133 155 -134Q159 -138 166 -138Q169 -141 174 -141L175 -142L177 -141Q179 -145 185 -146Q185 -147 193 -150ZM151 -124Q154 -114 155 -114Q162 -115 165 -117Q179 -118 179 -121Q179 -122 181 -125V-128L185 -136H184L172 -133L162 -130Q159 -130 154 -127Q151 -127 151 -124ZM88 -105V-103Q85 -99 83 -96H84L86 -95Q91 -96 93 -97L96 -95Q98 -95 99 -99L109 -112V-113Q103 -112 96 -108Z"/>
</svg>