<svg xmlns="http://www.w3.org/2000/svg" viewBox="0 -256 256 256">
	<path fill="#000000" d="M140 -206Q142 -206 146 -202L157 -197Q161 -197 163 -190L160 -186V-185H162Q172 -185 175 -182Q176 -182 178 -178Q178 -172 172 -170H170Q169 -169 161 -169Q160 -167 153 -167Q152 -165 150 -158Q149 -158 148 -153L141 -144Q139 -141 136 -141Q136 -139 132 -138L131 -141L133 -142V-143V-144Q133 -146 134 -146L133 -148L134 -151H133V-152L134 -155V-163Q132 -163 127 -167Q122 -167 122 -169Q122 -171 135 -175L136 -177H135V-178L137 -182V-187V-192L135 -199Q135 -203 140 -206ZM72 -186L74 -185L77 -186Q77 -185 84 -184Q84 -181 91 -180L93 -181Q94 -181 99 -176V-171Q100 -166 103 -163L114 -167Q119 -166 119 -164Q119 -162 112 -160Q110 -158 107 -158Q106 -156 102 -155L100 -153L101 -148L100 -144V-142V-141V-138Q98 -133 95 -133Q90 -138 87 -146H86H85Q82 -144 74 -142L68 -138H67Q63 -142 56 -148V-149Q56 -150 64 -152Q82 -158 82 -159Q81 -161 80 -164L74 -176Q69 -181 69 -183V-184Q70 -186 72 -186ZM116 -147L118 -145L128 -140L132 -135V-131L135 -132H136H137H140Q146 -134 156 -135L158 -136H162L182 -140H185L193 -141Q195 -140 199 -136Q205 -134 206 -132H207Q209 -132 210 -126Q210 -123 202 -120H198Q198 -119 195 -119H193H189H185Q183 -117 180 -117L174 -113H173L172 -114V-115Q178 -120 183 -131Q184 -131 184 -132V-133H183L176 -131H175H174H170H168Q167 -130 162 -129Q162 -128 152 -127L139 -124L132 -123L131 -124Q131 -122 126 -122V-120L122 -115V-114Q122 -113 117 -111H114L110 -118H108Q107 -117 99 -115H97L82 -111L77 -109Q73 -108 65 -106Q65 -105 63 -105H61V-104L63 -96Q64 -96 64 -94Q64 -88 62 -82L63 -81Q59 -72 54 -72L52 -70Q47 -77 45 -82Q47 -88 47 -99V-101V-102V-103L48 -110V-114L47 -117L50 -119Q52 -118 56 -113Q70 -115 70 -117Q77 -117 78 -119H81Q90 -123 103 -125Q104 -126 109 -127V-128Q109 -131 104 -142V-143Q107 -144 116 -147ZM151 -113Q158 -110 158 -108Q158 -103 152 -103Q152 -102 144 -101Q144 -100 136 -99Q135 -98 130 -97Q130 -96 125 -96Q122 -94 122 -93Q122 -91 126 -90Q128 -89 129 -85L131 -84Q140 -88 148 -89Q151 -91 153 -91Q153 -93 157 -93Q163 -89 173 -86L175 -81V-80Q175 -76 171 -71Q167 -54 166 -52V-51Q164 -44 163 -40Q162 -40 158 -30Q154 -24 148 -20L152 -18H155Q162 -14 165 -14Q165 -13 169 -12Q181 0 181 6L182 8Q182 17 176 20H170Q168 19 161 9Q159 9 151 -2Q146 -6 138 -16Q136 -16 133 -20L135 -22H137L141 -21L145 -22L144 -27V-32L143 -33L144 -36H143H140L122 -32Q122 -31 115 -30L110 -28Q110 -27 105 -26Q104 -25 102 -25H99L98 -24Q98 -23 108 -13V-12Q108 -9 100 -4Q100 -2 93 0Q93 1 80 11Q76 14 59 24Q51 28 49 30H48L47 29V28Q48 26 56 22L72 10Q75 5 81 0L93 -16V-17Q90 -17 86 -27Q84 -46 78 -63L77 -68V-71Q78 -76 79 -76H80Q81 -76 84 -71Q91 -72 93 -74L96 -73Q96 -74 102 -76Q103 -77 111 -80L112 -82Q111 -90 110 -90Q108 -90 106 -88H103Q102 -88 95 -93V-94Q95 -95 104 -98Q104 -99 114 -102Q123 -104 128 -107L147 -113ZM142 -81H138Q138 -79 132 -79Q132 -77 128 -77V-75Q128 -73 127 -73L128 -69L127 -65L129 -64Q131 -66 139 -68L143 -69Q145 -69 147 -67V-63L144 -60H140L132 -58H131Q126 -56 126 -54L127 -52L126 -50L127 -49L126 -45V-41H128Q130 -43 135 -43L136 -44H138Q148 -46 148 -50Q148 -54 150 -59V-63L149 -65L150 -67V-70V-72V-75V-76V-81V-82H149ZM103 -70H101L98 -68H97Q94 -68 94 -67L96 -63L95 -57Q96 -54 97 -54H98L111 -59Q111 -63 113 -63L111 -66V-71Q111 -72 110 -72Q107 -70 103 -70ZM96 -51V-50L97 -38V-33H101Q112 -36 112 -39V-41V-48L111 -50H110L104 -48H103Q101 -51 96 -51Z"/>
</svg>