<svg xmlns="http://www.w3.org/2000/svg" viewBox="0 -256 256 256">
	<path fill="#000000" d="M94 -178Q95 -176 100 -173L103 -171H105Q105 -169 113 -169Q113 -168 118 -166V-165Q118 -156 113 -152Q113 -151 110 -145Q110 -142 108 -137Q102 -126 102 -124Q101 -117 98 -117Q98 -113 96 -111L97 -110L93 -104H94H95L98 -103Q99 -105 102 -105H103Q109 -106 109 -108L111 -107H112L115 -109V-113V-118L113 -122Q117 -126 120 -126Q121 -126 127 -122Q129 -122 130 -119Q135 -119 139 -114Q140 -115 148 -125L154 -136Q155 -140 162 -147Q162 -150 166 -158V-161Q167 -162 167 -165L169 -167Q169 -169 167 -171V-175Q167 -176 172 -176H175Q179 -176 179 -172V-173H180Q182 -173 186 -169Q188 -169 190 -167Q192 -167 196 -160V-158Q194 -155 187 -152Q184 -152 167 -133Q165 -132 157 -125Q152 -123 152 -120Q149 -120 145 -115L138 -109Q134 -106 134 -103Q127 -97 123 -87Q121 -85 120 -80Q119 -80 117 -75Q116 -75 113 -69Q110 -68 109 -63Q109 -61 117 -58Q125 -50 127 -50Q129 -50 133 -43Q135 -43 136 -40Q137 -40 140 -32V-26Q137 -22 135 -20H131Q128 -20 120 -29Q119 -29 106 -44Q101 -46 100 -50H99L97 -46Q94 -45 91 -42V-41Q88 -41 87 -36L74 -27Q62 -21 52 -14Q47 -12 46 -12V-14Q55 -21 64 -27L78 -41Q81 -44 83 -48Q84 -48 90 -56V-58Q89 -58 86 -61Q85 -61 82 -64L77 -69H75L68 -64H67L66 -66V-71Q66 -75 74 -87Q77 -91 77 -92Q68 -83 63 -83Q58 -80 54 -80Q53 -78 41 -73Q38 -70 36 -70Q34 -71 32 -76Q30 -77 23 -86V-89Q23 -90 27 -90H28L43 -93L44 -94H45L47 -93Q52 -94 55 -95H59Q60 -97 73 -98L77 -99H78H79V-104Q81 -104 84 -119L86 -126V-132Q86 -135 89 -138V-144L91 -150V-151H90L91 -156V-167Q86 -170 86 -172V-174Q88 -176 92 -177ZM209 -137H211L214 -133L220 -131H221Q230 -130 230 -126Q232 -126 232 -120L231 -119L232 -117V-115Q229 -113 229 -110Q228 -110 227 -104L228 -103V-102L226 -99V-95L224 -92L225 -91L224 -88V-85L222 -83L223 -81V-79L221 -70L216 -51H217V-50Q215 -43 212 -41L213 -39Q213 -33 207 -21Q202 -15 202 -14Q202 -11 197 -8Q191 -2 187 0L183 3L181 0V-1V-4V-5Q179 -17 177 -17Q177 -22 168 -30L165 -32V-33L166 -34Q168 -34 172 -32L185 -29Q189 -34 190 -38Q191 -38 192 -47Q194 -51 195 -51V-54Q195 -58 197 -61L196 -62V-63L198 -65L197 -67Q198 -72 199 -73V-77Q199 -79 202 -82Q201 -82 201 -83Q201 -86 203 -89L202 -91Q203 -95 203 -96V-101L204 -104L203 -108L204 -113L203 -115L204 -117H203L196 -116L195 -117Q189 -113 185 -113Q181 -111 173 -108H170L169 -107H168Q160 -116 155 -119L156 -120H157Q163 -120 163 -122H167Q170 -122 173 -123H174Q178 -125 184 -126L185 -127H187Q189 -127 191 -130L193 -129Q197 -131 203 -131ZM101 -99H98L92 -95H90H89L88 -93L89 -91V-90L80 -76L92 -71L96 -70Q101 -76 104 -83Q108 -88 108 -92Q109 -92 109 -95V-97L111 -98V-99V-102H109Q106 -102 101 -99ZM181 -93Q184 -93 187 -87Q185 -80 176 -80L174 -78L172 -79L166 -77L159 -74Q157 -74 156 -72L151 -71H149Q147 -74 140 -79V-81Q140 -84 153 -86L167 -90H169Q172 -92 181 -93Z"/>
</svg>