<svg xmlns="http://www.w3.org/2000/svg" viewBox="0 -256 256 256">
	<path fill="#000000" d="M160 -209H162Q166 -203 173 -203L178 -201L181 -196Q181 -187 175 -182V-181H176Q178 -183 187 -186Q196 -184 196 -179V-174Q186 -168 180 -168Q180 -167 172 -166Q168 -165 168 -164Q167 -161 163 -156Q163 -153 159 -150L155 -145Q153 -141 143 -134V-133Q143 -132 146 -132L153 -124L154 -122Q153 -119 152 -119H153V-118Q153 -117 150 -116Q150 -113 147 -113Q147 -112 146 -112Q139 -113 139 -117Q137 -120 135 -125Q131 -132 128 -135L126 -138V-139L127 -140H128Q132 -137 138 -135L140 -134H141H142V-136V-137Q145 -141 146 -146V-148L147 -152V-153L149 -161Q147 -161 145 -167Q142 -167 142 -169Q142 -171 150 -172L152 -171L153 -172V-176Q154 -177 156 -192V-196L152 -202Q153 -207 157 -207ZM91 -192H92H94H97Q103 -186 112 -186L114 -185H118Q119 -185 120 -181L119 -167V-166H121Q123 -168 128 -168Q128 -170 132 -170L136 -167Q136 -162 125 -157L124 -156H119V-155Q121 -153 121 -151L119 -149Q121 -149 121 -148V-145Q120 -143 120 -141L119 -137L117 -133L113 -131H112Q110 -131 109 -137Q108 -137 107 -143Q106 -143 105 -149H104H101Q101 -147 95 -146Q95 -144 86 -141Q86 -143 82 -143L72 -153L74 -155V-154L83 -157L86 -156L92 -158Q95 -158 103 -161Q100 -170 100 -172L92 -185Q91 -185 89 -189V-191ZM179 -157L185 -153L195 -148L199 -144V-143L198 -140H199V-139Q197 -136 189 -131Q187 -131 184 -128Q182 -128 172 -117Q169 -115 167 -114V-113Q176 -115 179 -117Q182 -117 185 -121Q188 -123 190 -123Q191 -121 194 -121Q204 -119 204 -116V-115Q204 -112 195 -102Q195 -101 191 -97V-95L193 -93V-91Q193 -89 189 -86H184Q182 -86 180 -85H177Q169 -83 169 -81L168 -78L169 -77L168 -71V-69L169 -68L176 -69L195 -75L204 -81H205H207Q210 -77 221 -68L222 -65Q222 -61 215 -54Q215 -51 209 -41L207 -34Q207 -31 201 -24Q195 -17 189 -17Q187 -18 184 -30Q183 -30 180 -37Q178 -37 175 -40Q173 -40 173 -42Q173 -44 174 -44H175Q179 -40 185 -40Q185 -39 190 -38Q194 -42 195 -57L197 -65L196 -67L193 -66L192 -67H191L190 -66H189L187 -67L182 -64H181Q176 -64 173 -63H171Q169 -62 167 -62V-61Q171 -58 173 -54L172 -52L173 -50Q168 -47 167 -47L169 -44V-41L170 -39L169 -38L170 -35V-34L169 -30L170 -24V-21V-18L169 -17L170 -14L169 -11L170 -9V-4V-1L169 0L170 3V4V6L169 9L170 13Q168 13 168 18Q167 18 166 22H167L162 30L158 33H157L156 32V24V22V19V17L155 6L156 2L155 0V-2V-28V-31H153Q152 -31 150 -27Q149 -27 128 -6Q123 -4 115 2Q109 6 107 6H106Q106 4 113 0Q135 -22 137 -27Q139 -27 141 -32Q152 -46 157 -54Q155 -54 155 -56L156 -58V-59H155Q155 -58 147 -55L133 -49V-48V-45Q133 -43 128 -41Q128 -39 127 -38H125L124 -39V-42L125 -45H124V-46Q125 -50 126 -51Q126 -63 128 -63L127 -64V-70L126 -81L128 -82L134 -77H135Q146 -81 153 -82Q153 -83 156 -84V-85V-88V-90Q155 -90 154 -99L151 -100Q148 -97 145 -97Q145 -96 137 -93Q137 -92 134 -92H133Q125 -98 120 -98L114 -94L110 -95L105 -92H102L103 -84L101 -80L102 -79L101 -76V-75L104 -76L121 -71Q124 -68 124 -65Q124 -62 120 -62Q119 -59 116 -59Q107 -63 101 -69L100 -67L102 -65V-62L101 -59L102 -57V-54H101H102V-42V-30L103 -19L102 -16V-14L103 -2L102 1L103 4Q95 21 91 21Q88 21 88 11V9V8Q87 7 87 5Q83 -3 80 -6L81 -8H83L87 -6V-8V-15L88 -16L87 -18L88 -26L87 -27L88 -35Q87 -36 87 -46V-48V-56Q85 -56 79 -50Q74 -46 65 -36Q52 -24 48 -23Q36 -14 34 -14H33Q33 -17 38 -19Q52 -29 62 -43Q71 -54 77 -66Q83 -74 84 -82L74 -77Q65 -72 56 -68Q55 -68 53 -66L51 -65Q49 -68 43 -71L39 -75Q39 -77 46 -77L60 -82Q64 -85 73 -87Q74 -88 79 -90L80 -91H84Q87 -93 87 -94V-97Q85 -107 84 -107Q80 -105 77 -105Q77 -104 72 -103L68 -101V-100L60 -96H59Q58 -96 58 -97Q58 -99 64 -101Q74 -108 78 -113Q89 -123 93 -127V-128Q91 -128 91 -129V-131Q94 -136 96 -136Q99 -134 112 -128Q112 -126 114 -124V-123L109 -117H108V-118Q105 -117 96 -115Q94 -112 92 -112L91 -110L95 -108Q103 -105 103 -100Q103 -99 105 -99L117 -105H119Q122 -103 122 -100H125Q130 -102 137 -103Q137 -104 148 -106Q151 -108 155 -108H157Q160 -109 160 -112Q165 -117 168 -127Q171 -132 175 -143V-144V-148L173 -150V-153Q176 -157 179 -157ZM161 -103V-101L164 -98L166 -99Q166 -98 172 -94V-93L171 -90Q173 -90 177 -92H176V-93L179 -106L178 -108H177Q165 -103 161 -103ZM136 -58L137 -57Q139 -57 141 -59Q145 -59 153 -63Q155 -63 156 -65L155 -69L156 -72H155Q156 -74 156 -77V-78Q145 -73 137 -71Z"/>
</svg>