<svg xmlns="http://www.w3.org/2000/svg" viewBox="0 -256 256 256">
	<path fill="#000000" d="M169 -204Q175 -198 177 -198Q181 -196 184 -196L186 -193V-189L184 -186V-185V-184L183 -182V-180H184Q189 -181 195 -182Q195 -184 196 -184H199V-183Q200 -182 203 -181Q203 -180 207 -179L208 -176Q207 -174 206 -170Q204 -168 198 -167H197Q192 -167 184 -164Q179 -164 178 -162L175 -163Q175 -162 174 -162Q174 -159 171 -158Q171 -154 166 -151Q164 -151 160 -144L161 -143L160 -142L159 -144H157Q145 -135 139 -134V-135Q144 -140 148 -145Q149 -145 151 -152Q154 -158 154 -162Q147 -165 147 -166Q147 -167 155 -170H156Q158 -170 158 -172L157 -173Q159 -177 159 -179V-183Q161 -184 161 -189L160 -192L161 -196Q159 -196 159 -197V-198Q163 -202 169 -204ZM92 -189H94L102 -187Q102 -185 107 -185Q109 -184 114 -183L118 -181L121 -176L120 -173L121 -171L120 -170L121 -166H120Q121 -162 121 -161Q125 -161 127 -163H132L134 -165L136 -163L138 -164Q141 -163 141 -162Q141 -159 130 -156L122 -151V-148V-141Q120 -135 116 -131H115L106 -140V-143Q101 -142 94 -138Q90 -136 89 -136Q86 -136 81 -142Q79 -142 76 -145L72 -149Q72 -152 89 -153L99 -156H100H102Q102 -162 98 -169Q98 -172 94 -179L89 -187Q90 -189 92 -189ZM183 -149Q185 -149 196 -144Q199 -140 199 -139V-138L197 -133L191 -107Q190 -107 189 -100L185 -93Q181 -89 179 -89Q179 -87 175 -87H174V-92Q174 -93 173 -93H172V-97H171Q166 -96 164 -93H161Q159 -93 153 -89L151 -90L150 -89V-87L151 -85Q149 -80 147 -79H145Q140 -81 140 -87Q139 -87 139 -90V-93Q139 -95 137 -103V-112Q134 -117 134 -121Q133 -122 132 -129L130 -133V-134Q130 -135 133 -135Q137 -132 140 -132Q140 -131 145 -130H146Q152 -134 163 -137Q163 -139 168 -139Q168 -140 172 -140L174 -141Q174 -144 183 -149ZM149 -121Q149 -115 151 -115Q157 -118 165 -120L166 -121H168Q171 -119 171 -118Q171 -113 158 -112Q158 -111 152 -109Q152 -108 149 -108V-107L150 -104V-102L151 -100L149 -98L150 -97L161 -99Q161 -100 168 -102Q168 -103 171 -103Q174 -103 175 -125V-126L174 -127L175 -130L174 -135Q171 -132 167 -132L156 -128Q150 -128 149 -121ZM114 -126Q121 -126 124 -120Q123 -113 117 -113Q116 -112 106 -109Q106 -108 96 -106Q89 -103 85 -102L84 -100Q91 -97 94 -91V-90Q94 -88 90 -84Q90 -83 89 -81V-80L103 -85Q108 -90 112 -90H113Q121 -83 121 -81Q119 -78 117 -74Q115 -74 113 -66V-65V-64L116 -65H118Q121 -67 138 -70H140L141 -71H145Q146 -72 159 -74H160H163L173 -76L175 -77L178 -76Q180 -78 182 -78H185L188 -80L191 -79Q191 -81 197 -81L198 -82H205L213 -85L214 -84H215Q217 -86 219 -86H222Q224 -83 226 -83L230 -79V-78Q230 -74 223 -74H218H202L197 -73H196L193 -72V-73L190 -72H186L181 -71H180H176L172 -70H169Q169 -69 166 -69H164L163 -70H162Q159 -67 157 -67H153V-66L158 -63V-62Q156 -56 152 -56L153 -55V-54Q152 -54 149 -51H148V-50L146 -48L148 -46Q150 -46 152 -49L154 -48L159 -49H164Q166 -51 170 -51L171 -52H172L174 -51Q180 -53 182 -54H185Q200 -55 200 -58L207 -59L213 -54Q220 -51 220 -45Q220 -42 214 -34L208 -20Q202 -9 193 7Q180 20 174 22Q170 24 169 25L162 28L161 26V17V13V12Q161 6 158 4H157V3L158 2H159Q162 3 168 8Q170 7 173 2Q175 2 177 -4Q179 -4 180 -9Q181 -9 184 -14V-16Q185 -16 188 -24Q189 -24 189 -28Q191 -29 193 -37Q194 -37 195 -44Q197 -45 197 -47L196 -48L193 -47L191 -48Q189 -46 185 -45L183 -46L181 -45H179V-43Q179 -42 182 -42L184 -40V-38L182 -36Q182 -34 170 -20L157 -4Q152 4 141 12L132 18L122 23Q121 23 120 25H119L118 24V22L123 19Q133 14 140 8Q148 0 148 -2L154 -11Q155 -11 156 -15Q160 -18 162 -24Q165 -26 165 -30Q166 -32 167 -32Q167 -33 169 -37Q169 -39 170 -41V-44L161 -41L158 -43V-40Q160 -39 160 -38V-37Q158 -36 158 -33Q138 -12 128 -8Q128 -7 125 -7L124 -8L134 -16Q139 -20 142 -24Q145 -24 145 -29Q147 -29 149 -36L150 -37V-39Q150 -41 145 -43L144 -44H143L139 -40L135 -36Q135 -35 134 -35H132Q132 -32 122 -27Q117 -23 115 -23L114 -24V-25Q124 -32 126 -35Q130 -41 135 -46Q136 -51 139 -51V-53L143 -63L145 -64H143L142 -63L140 -65Q138 -61 133 -61Q127 -57 122 -57Q121 -59 113 -62V-63H112Q95 -42 85 -31Q84 -30 80 -24Q78 -24 70 -16Q63 -13 58 -9Q53 -3 47 -1Q43 2 38 4L27 9L26 7V6Q26 4 31 3Q41 -2 46 -6Q56 -13 65 -22Q66 -22 75 -31Q77 -37 86 -45Q88 -49 94 -54Q94 -58 98 -63L97 -64L100 -72V-74L101 -75L100 -76H98L94 -75Q89 -77 87 -79Q81 -69 76 -64Q76 -63 82 -61Q87 -58 88 -56V-54Q88 -51 83 -47H82Q79 -48 75 -57L74 -58Q70 -58 63 -50Q54 -44 42 -37L41 -39V-40L49 -45Q61 -56 65 -64L69 -71Q71 -71 71 -77Q72 -77 74 -81Q75 -81 75 -85Q76 -85 78 -90L80 -92L79 -95L80 -96V-97L79 -99Q76 -96 75 -96Q67 -102 67 -104L60 -107V-108Q60 -109 70 -112Q72 -113 81 -115Q94 -120 106 -122Q106 -123 114 -126Z"/>
</svg>