<svg xmlns="http://www.w3.org/2000/svg" viewBox="0 -256 256 256">
	<path fill="#000000" d="M150 -193Q152 -193 159 -188Q171 -182 171 -179V-177Q171 -176 168 -172V-171H169H175Q178 -171 182 -164Q182 -158 180 -158L176 -157V-158H175L174 -157H172L164 -156H162Q159 -154 157 -154Q155 -150 149 -144Q149 -140 141 -135Q141 -133 133 -126Q132 -123 126 -122H125V-124Q133 -134 133 -138L136 -145Q136 -150 130 -154L127 -157Q127 -159 137 -160Q137 -162 142 -162L144 -170L145 -179V-183L142 -185V-187Q148 -193 150 -193ZM71 -176H73Q73 -175 94 -172Q97 -171 97 -165L98 -149L99 -148L110 -149L111 -148V-147Q111 -144 108 -144L104 -142Q101 -142 99 -140L100 -136Q99 -133 98 -133L99 -128Q99 -124 95 -120Q91 -120 87 -131H85H84Q82 -131 76 -127Q73 -127 69 -124Q64 -124 62 -129Q61 -129 58 -134L53 -138Q53 -140 71 -142Q80 -144 82 -146Q77 -159 71 -167Q69 -171 69 -174Q69 -176 71 -176ZM144 -128Q149 -125 151 -123L153 -124Q159 -122 160 -119Q160 -113 145 -95V-94Q148 -94 157 -98L165 -101Q168 -101 174 -106L178 -108Q184 -105 191 -104Q194 -103 195 -99Q195 -96 187 -93L183 -91Q178 -83 165 -72H162H161Q169 -86 169 -93L167 -94Q164 -92 154 -89L150 -86H148L141 -91Q141 -90 135 -85Q133 -80 124 -75Q124 -73 118 -68V-67L126 -63L129 -59Q124 -47 123 -39V-36L121 -26L120 -25V-24L121 -23Q120 -20 120 -16V-15H121Q127 -22 131 -32Q132 -32 136 -51Q138 -60 139 -70Q138 -73 135 -76V-77L140 -82L154 -76Q156 -76 157 -68L156 -63V-61L167 -48Q172 -41 177 -37Q178 -35 193 -23L204 -17Q215 -12 217 -12Q223 -8 226 -8L227 -7V-6Q227 -5 210 -3Q210 -2 206 -1H202Q202 0 191 4H189Q182 2 175 -10Q166 -19 163 -25Q155 -37 150 -43Q150 -46 148 -47H147Q146 -47 146 -43Q144 -43 142 -35Q139 -31 139 -29Q139 -27 130 -17L118 -8Q117 -1 106 11Q103 15 98 17Q96 16 96 14V8Q94 0 88 -5L89 -6H92H97L100 -14Q105 -35 108 -56H107Q95 -54 93 -53L80 -50Q80 -49 66 -45Q64 -43 59 -41H58Q55 -41 55 -35Q56 -21 59 -6L58 -5L59 3L58 9V11Q54 17 51 17H50Q44 10 44 7Q43 6 43 4V2L41 -10Q41 -18 37 -29L28 -45V-47Q28 -53 31 -55H33L44 -47H47L50 -49H51L72 -55Q77 -57 81 -57L93 -61Q94 -63 97 -63V-62H98L106 -65Q111 -71 113 -71L116 -70Q123 -78 123 -80Q123 -81 132 -98Q132 -100 135 -100V-105L139 -117Q138 -122 137 -123Q141 -128 144 -128ZM72 -121H74Q78 -121 79 -120H83H85Q93 -118 96 -115L114 -121H117Q118 -121 119 -117Q122 -117 122 -116V-113Q119 -109 116 -109L111 -110L108 -109L105 -110Q105 -109 102 -108L100 -109L99 -108H96Q96 -107 87 -105Q79 -101 75 -101Q66 -97 64 -97H62H61Q61 -96 52 -93Q52 -92 50 -92H48Q44 -96 38 -99V-100Q38 -102 44 -102Q44 -103 55 -105H57Q69 -109 71 -109V-108H72Q74 -109 74 -110Q74 -112 69 -117Q69 -121 72 -121ZM102 -103Q109 -100 113 -93L114 -90L109 -87Q109 -84 107 -84Q107 -83 104 -82V-80Q108 -80 108 -76L104 -72H103L102 -73L91 -70Q83 -68 77 -63L73 -61Q68 -61 66 -70L65 -71V-74Q65 -77 62 -82Q61 -87 58 -89V-90L60 -91Q62 -91 69 -87Q79 -90 89 -97Q94 -97 97 -100ZM80 -83H79L78 -84Q77 -84 76 -81L78 -74Q81 -74 87 -77Q91 -78 91 -81Q92 -86 93 -86Q92 -88 91 -88H90L80 -84ZM88 -44Q98 -42 98 -36Q96 -34 93 -28L91 -25V-24Q95 -21 95 -20Q95 -18 93 -17L89 -18Q82 -18 72 -7H69Q67 -7 65 -30Q63 -32 63 -35V-36L64 -38H65Q68 -34 72 -34L87 -42ZM74 -27V-26Q75 -25 75 -18H76H77Q83 -20 83 -25Q83 -29 84 -32L83 -33Q77 -30 74 -27Z"/>
</svg>