<svg xmlns="http://www.w3.org/2000/svg" viewBox="0 -256 256 256">
	<path fill="#000000" d="M149 -207Q156 -200 161 -199Q164 -195 164 -192L161 -185Q162 -184 164 -184L165 -185H166Q179 -181 179 -178V-177V-175Q179 -173 168 -172L162 -171H159H156L154 -170H149Q148 -170 148 -168V-167L138 -154Q136 -154 136 -152Q131 -147 127 -146L126 -144H127L151 -153Q151 -155 157 -156Q159 -159 161 -159Q161 -157 173 -153Q180 -148 180 -143Q180 -138 174 -135L171 -133Q171 -131 166 -128Q164 -123 159 -117Q159 -116 157 -114Q157 -112 156 -112H155H154Q149 -104 146 -104L145 -106L146 -109L145 -113L146 -114H143L135 -111H130L125 -108H124H122L98 -99Q98 -98 93 -97Q93 -96 89 -95H86Q83 -95 81 -112Q79 -114 79 -118L74 -127V-131L77 -134H78Q82 -131 85 -129H86Q86 -130 94 -133Q95 -135 106 -137Q107 -138 112 -139Q112 -140 119 -141Q119 -142 121 -142H122Q122 -144 125 -147L130 -156Q133 -159 134 -165Q136 -166 136 -169V-171Q132 -171 130 -174Q130 -176 134 -176Q134 -177 139 -177Q144 -187 144 -195Q144 -197 141 -197L140 -198Q140 -202 149 -207ZM86 -194H88Q90 -193 93 -192H94Q103 -187 105 -187Q111 -181 111 -178L112 -173V-172L111 -171L112 -167L116 -168Q119 -168 119 -165Q116 -162 112 -161V-157V-156L113 -150Q111 -143 108 -142Q108 -140 107 -140Q106 -140 102 -149Q101 -149 101 -152L99 -153Q95 -149 91 -148L83 -142Q81 -142 72 -153L73 -155H76Q86 -158 88 -161H89L92 -160L94 -162H95V-161H96V-162Q94 -172 93 -173Q91 -177 83 -187V-189H84H83V-191ZM149 -143L146 -144L137 -140L133 -139V-138Q135 -138 138 -135Q139 -135 139 -134V-133Q138 -128 136 -128V-126Q132 -120 132 -117H134L148 -121L150 -127Q152 -129 153 -140L155 -144Q157 -144 157 -145H155Q151 -144 149 -143ZM107 -131Q112 -128 112 -123V-119L111 -118Q112 -117 112 -111H113Q118 -113 122 -114Q124 -121 125 -122L124 -125L125 -127V-131V-135L123 -137H122Q119 -133 110 -132Q107 -132 107 -131ZM101 -131Q101 -128 98 -128Q98 -127 96 -127H94Q94 -125 91 -124L92 -114V-113L93 -111V-109L92 -108Q92 -106 94 -105Q96 -105 99 -108H104L105 -109Q104 -109 104 -114V-116L103 -118L104 -121L102 -131ZM193 -113Q195 -113 199 -110Q203 -110 213 -101L216 -93L217 -89Q215 -84 209 -84L208 -83L197 -86H194H191L188 -85H183L180 -83H178Q178 -81 177 -81H175V-83L187 -97V-98H186H184H182L174 -97H173Q173 -96 157 -95L155 -96L154 -95H153H147L142 -94H139L133 -92L130 -93Q130 -91 125 -91H124Q121 -89 114 -88Q113 -87 111 -87H110Q107 -85 101 -85L99 -86Q99 -84 92 -83V-81H94H96H98L105 -76Q108 -74 108 -72V-71Q106 -65 101 -65Q101 -63 95 -60Q89 -54 89 -52Q94 -52 96 -45L94 -33V-32V-31L95 -25H94L95 -23V-19V-17V-9V-7Q95 3 96 4V5V9V11V15V18L94 24Q88 32 85 32H84L81 29L82 26Q82 17 80 13Q81 13 82 -12V-14L83 -19L82 -24L83 -27L82 -32L83 -35Q82 -36 81 -41L82 -43V-45L80 -46Q80 -45 70 -37Q64 -34 61 -29L41 -16L37 -14L35 -15Q38 -18 42 -19Q55 -29 61 -36Q66 -41 82 -61Q84 -61 84 -65Q85 -67 87 -70Q89 -70 89 -74Q90 -78 91 -80L92 -81H88Q87 -79 86 -79L85 -80L71 -75H70L68 -73L66 -74V-72L67 -71V-70Q66 -69 66 -65L67 -64V-62Q65 -60 65 -59H66V-58Q62 -51 51 -46Q49 -46 48 -49L49 -50L48 -54V-56Q48 -62 52 -68Q53 -76 56 -79Q56 -81 57 -81L56 -84L57 -87L55 -91V-92L57 -93Q62 -88 64 -83Q66 -81 68 -81Q77 -86 83 -86Q94 -89 96 -90H98Q103 -93 109 -93Q111 -93 115 -95H116Q118 -96 124 -97V-98L126 -99L127 -98Q135 -98 139 -101Q141 -101 143 -99Q143 -102 153 -102H155Q158 -104 164 -104Q169 -106 178 -107L188 -110Q190 -112 193 -113ZM157 -91H158Q159 -89 162 -89Q162 -88 167 -86Q169 -84 169 -82L168 -81Q168 -80 171 -78H172Q175 -78 178 -72L171 -70L169 -71L163 -70H162Q157 -65 157 -62H158L159 -63Q165 -61 165 -58Q162 -56 160 -56H158L152 -54H151H149L141 -53Q141 -51 134 -50L131 -48H130Q125 -51 125 -53L127 -54L130 -53Q130 -55 140 -57Q144 -59 147 -59Q147 -61 148 -61H149V-63H148V-65V-67L139 -65Q139 -64 132 -63Q129 -61 123 -58Q121 -58 116 -62V-63L123 -67H124L126 -66Q128 -68 130 -68H131Q139 -72 148 -73L151 -80L150 -81L139 -77L138 -78Q134 -76 131 -76H129Q129 -74 128 -74Q126 -76 124 -76L123 -77V-79Q123 -80 130 -81Q131 -82 140 -84Q140 -86 146 -86Q148 -88 152 -88Q152 -89 157 -91ZM172 -56Q175 -56 181 -52L184 -51Q189 -47 189 -46Q189 -40 187 -40H181Q175 -38 171 -36Q165 -34 165 -33L166 -30L158 -19Q152 -10 148 -9Q157 -2 160 -2Q164 1 179 7Q179 8 183 8L186 9Q187 10 197 13L207 17Q207 18 219 18H220V19Q220 20 206 21L193 24Q185 29 182 29H178L173 27Q173 26 164 20L142 2Q141 2 135 9Q128 17 123 17Q123 18 112 21L105 24Q103 24 102 26H101L100 25V24Q100 22 112 18Q112 17 119 13Q128 6 135 -5Q136 -5 136 -8Q134 -8 134 -12Q133 -12 129 -17Q127 -19 125 -20L122 -23V-24Q122 -25 131 -27L134 -29Q137 -29 141 -32Q147 -32 157 -41Q161 -36 163 -36Q166 -39 166 -42Q168 -42 168 -46V-47H166L165 -45L162 -46Q157 -46 148 -43L146 -44Q146 -42 138 -40Q138 -38 134 -38Q131 -36 129 -36H128Q128 -34 124 -34Q124 -32 117 -32V-30L118 -26Q118 -21 116 -18Q116 -16 111 -12H109Q106 -16 106 -18V-22V-23L108 -30V-32Q109 -34 110 -41L111 -42Q112 -42 116 -36Q119 -39 125 -39Q127 -41 128 -41L130 -40Q131 -42 137 -44L139 -43L140 -44Q146 -48 162 -52Q170 -56 172 -56ZM128 -23V-22H130Q136 -22 142 -16L147 -25L149 -28V-29Q137 -23 128 -23Z"/>
</svg>