<svg xmlns="http://www.w3.org/2000/svg" viewBox="0 -256 256 256">
	<path fill="#000000" d="M175 -210H177Q180 -206 190 -204Q195 -202 195 -200Q196 -200 196 -194L199 -193Q201 -195 206 -195Q207 -197 210 -197Q211 -195 214 -195L215 -194V-187Q211 -181 200 -181L189 -179Q186 -179 185 -173Q183 -171 180 -169Q180 -164 165 -155Q165 -154 161 -153L159 -149Q160 -149 160 -144V-143H162Q162 -144 167 -146L169 -145Q169 -146 175 -147Q175 -148 184 -150Q187 -153 192 -153Q192 -154 196 -154H199Q205 -158 212 -159Q212 -160 216 -160Q224 -155 224 -153L225 -152Q225 -148 219 -144H214H210H202H201H197H193H190H187L180 -142H176L173 -143Q173 -140 166 -140Q166 -139 165 -139L164 -140Q161 -140 161 -136Q161 -134 159 -133Q159 -131 154 -130L153 -129L152 -130L150 -129Q148 -131 145 -132Q145 -133 143 -133L142 -135Q142 -133 139 -133Q137 -131 131 -131L130 -128Q131 -127 133 -127Q135 -124 140 -123Q142 -121 142 -119V-116Q144 -118 150 -119L151 -120H152Q154 -120 156 -117Q157 -117 157 -116V-115Q152 -109 143 -109L140 -107L141 -100V-98L140 -96V-94V-93H139L140 -90V-85L139 -83L140 -82V-81L138 -76Q140 -76 140 -74L139 -72V-71Q139 -66 137 -60V-59Q137 -58 135 -58V-57L136 -56V-54Q135 -52 133 -52L130 -58V-63V-74L129 -78L130 -79L129 -85L130 -86L129 -99L130 -103L129 -104Q127 -103 120 -99L114 -104L106 -77Q101 -71 98 -58Q97 -58 96 -53Q93 -50 92 -44Q84 -27 75 -15Q70 -8 63 -2Q37 21 34 21Q30 23 28 25Q25 25 25 23Q25 21 32 19Q37 15 40 14L52 4Q67 -14 67 -17L66 -18Q68 -19 70 -25Q73 -28 76 -39Q78 -39 80 -48Q82 -48 83 -50V-52Q85 -63 87 -63Q87 -67 88 -67V-69Q88 -74 91 -79V-86Q93 -87 94 -93L93 -98Q94 -98 95 -106Q92 -106 90 -111V-113V-114H89L86 -112Q84 -112 79 -118Q73 -120 73 -121V-122H74H82Q83 -124 91 -125Q92 -126 98 -126L100 -128H103Q112 -130 114 -131V-132H115L116 -131Q121 -134 124 -134L133 -136V-137H135H136L142 -139V-140Q141 -146 135 -153L132 -156V-157Q132 -158 133 -158Q133 -159 141 -162L142 -163H146Q158 -160 161 -157L166 -170Q166 -171 163 -171Q161 -176 155 -176L154 -177V-178Q154 -179 161 -181Q166 -184 169 -184Q171 -187 171 -191L169 -200V-205ZM103 -195L109 -191H110Q121 -191 123 -187Q125 -185 125 -182V-180L124 -177Q126 -176 127 -176L126 -173L127 -172Q131 -172 133 -175L135 -174Q135 -176 142 -177Q144 -179 149 -179L150 -177Q150 -175 138 -171H137Q137 -168 132 -167Q131 -166 126 -165L125 -164L129 -158V-154Q125 -144 121 -144Q112 -149 112 -155L110 -156L100 -149H98Q93 -155 85 -158L83 -160V-161Q83 -162 95 -164Q95 -165 100 -165H101Q106 -167 108 -168Q106 -168 105 -174Q101 -181 97 -186V-189Q99 -190 101 -195ZM183 -137Q196 -135 196 -131V-128Q196 -126 199 -126Q201 -128 205 -128H210Q211 -128 212 -122Q209 -118 205 -118H202Q200 -116 196 -116Q194 -113 194 -107V-106L193 -104L194 -99L193 -95H194V-85L193 -80V-77L192 -76H193Q193 -68 188 -65L186 -63H183L182 -66L181 -67V-68L182 -69L180 -76L181 -77L180 -82V-86V-87L181 -91L180 -93L181 -95L180 -96L181 -105V-111H179L170 -107Q170 -110 165 -111Q161 -113 160 -113Q161 -116 167 -116Q170 -118 175 -118L181 -121L180 -126L178 -132Q178 -135 183 -137ZM98 -117Q98 -113 109 -108Q109 -107 112 -107Q119 -111 125 -111L126 -112L128 -113V-114Q128 -116 126 -120Q127 -120 127 -121L126 -124V-125L127 -127H126H125L110 -122Q107 -122 100 -118ZM201 -111H206L212 -107H213V-104L211 -99V-91Q212 -86 213 -86H224Q230 -84 230 -83L231 -79V-78Q231 -73 223 -73H214L213 -74H210Q203 -77 203 -82V-84L202 -87V-89L203 -92L201 -97L202 -99L201 -104V-105L199 -108V-109ZM165 -105Q167 -105 174 -96L175 -91V-90Q174 -88 173 -84V-83L174 -82V-79L171 -71L167 -69Q163 -69 163 -71L164 -74V-76V-77V-80L165 -86V-88V-92V-99L164 -104ZM146 -99Q156 -96 156 -90L154 -88L155 -81V-80V-79L156 -72V-71L152 -66Q148 -66 148 -72L147 -75V-76V-77Q146 -84 145 -85L146 -88L145 -89L146 -90V-91L145 -93V-97ZM116 -90Q117 -90 120 -86V-85V-84Q122 -81 122 -79Q122 -77 119 -74L120 -73V-72L119 -68V-65V-64Q117 -63 117 -60Q116 -60 115 -56L112 -54H110L109 -55L112 -73Q113 -73 114 -82Q115 -82 115 -87V-89ZM168 -68L178 -64Q183 -64 183 -59L182 -53H183Q189 -57 192 -57L203 -61Q211 -61 211 -55V-54Q209 -50 206 -50H205V-51L188 -46L183 -44V-42V-40V-37V-36Q186 -36 191 -38L204 -41L208 -42Q209 -41 213 -37V-35Q213 -33 205 -33V-32H203Q196 -32 192 -30Q189 -30 183 -27V-25V-15H184Q200 -18 205 -19H206Q209 -19 212 -21H214Q215 -19 219 -19Q219 -18 223 -17Q223 -15 226 -15Q228 -13 228 -12V-9Q225 -5 220 -5H219L210 -6L208 -5Q205 -5 205 -6Q184 -5 182 -3L183 2L180 22Q179 22 178 28Q175 33 174 34Q171 34 170 27L171 26Q169 23 169 14L170 -8L169 -11L170 -13L169 -15L170 -22L169 -25L170 -27Q169 -28 169 -31V-36V-40V-45L168 -50L169 -51Q169 -55 165 -61V-63Q165 -68 168 -68ZM143 -63Q151 -59 155 -56V-55Q154 -53 154 -52L155 -49L154 -36L155 -32L154 -31L155 -24V-23L154 -18L155 -14V-8L153 -4L154 -1Q153 4 152 4L153 7V9Q148 15 147 15Q141 14 140 -3L141 -5L140 -6Q139 -6 133 0Q132 0 125 6Q123 6 116 12Q115 12 111 8Q106 8 106 6Q106 4 121 -1Q121 -2 131 -6Q139 -12 141 -12V-14L142 -16L141 -18L142 -20V-22V-27V-30V-31V-35V-37V-39V-42Q139 -42 134 -38H133L130 -39V-38Q130 -36 123 -34Q122 -33 120 -33Q118 -35 115 -36V-37Q115 -38 120 -38Q124 -42 126 -42L128 -41Q128 -42 137 -47H138L140 -45H141H142L141 -48V-50L142 -54L139 -61ZM135 -30H138Q140 -29 140 -26Q136 -20 131 -20Q129 -17 128 -17L125 -19L124 -18L119 -22Q121 -23 131 -27L133 -28Q134 -30 135 -30Z"/>
</svg>