<svg xmlns="http://www.w3.org/2000/svg" viewBox="0 -256 256 256">
	<path fill="#000000" d="M176 -177Q177 -177 188 -168Q194 -168 199 -160V-157Q199 -153 190 -148Q188 -148 186 -144Q178 -137 177 -134L161 -114L162 -113H165Q171 -115 181 -116Q181 -117 191 -118Q191 -119 198 -119L199 -120L202 -119Q205 -120 205 -121L202 -128Q198 -133 198 -135L199 -136L216 -131Q229 -124 229 -117Q230 -117 230 -115V-110Q228 -95 219 -95Q214 -95 212 -102L207 -113H205H204Q201 -113 194 -109H193L192 -110Q187 -107 184 -107Q184 -106 178 -104Q174 -101 169 -101L159 -96Q157 -96 150 -90Q141 -85 139 -85Q138 -85 134 -90V-93Q134 -100 133 -102V-106Q134 -108 138 -111Q142 -113 150 -123Q158 -134 166 -152Q168 -154 169 -158L170 -159V-166Q170 -168 167 -170V-171Q169 -176 174 -176ZM93 -167Q97 -165 101 -160Q111 -157 116 -148Q116 -142 107 -131Q107 -130 103 -122L99 -110L93 -95L92 -94V-93Q92 -92 93 -92Q97 -92 99 -94H102H104Q104 -95 109 -95Q111 -97 111 -100V-103V-104L110 -109Q114 -113 115 -113Q118 -113 124 -106L127 -104Q130 -104 130 -100Q130 -96 124 -91L125 -89V-87Q125 -86 123 -86L119 -75Q117 -72 115 -68Q114 -68 114 -63Q111 -62 110 -54Q106 -52 106 -49Q105 -49 105 -48V-45Q105 -43 106 -43L108 -44L120 -35Q135 -22 135 -15Q136 -15 136 -13L135 -11L136 -10Q136 -8 130 -2H127Q122 -2 108 -20Q108 -22 105 -23Q105 -25 101 -27Q101 -29 95 -33L86 -24Q85 -24 83 -22Q82 -22 79 -18Q71 -13 55 -4L44 0L43 1L42 0L55 -8Q65 -14 78 -28L84 -36Q84 -38 87 -41Q83 -45 82 -45Q80 -45 77 -48L75 -47Q75 -50 69 -51L66 -52L64 -51L61 -54Q61 -57 63 -60Q63 -63 66 -63Q66 -64 72 -73Q72 -76 74 -77V-79L70 -77L68 -78Q68 -75 66 -75L65 -76L48 -68Q44 -68 40 -63Q39 -63 34 -69Q32 -69 28 -75Q25 -75 25 -79Q25 -80 38 -81L52 -85L57 -86L59 -85Q61 -86 78 -89L82 -108Q84 -109 84 -117L86 -118H85L86 -122V-125L88 -127L87 -128L89 -146V-147V-150V-153L84 -160V-162Q84 -163 92 -167ZM97 -86V-87Q92 -84 90 -84L88 -85Q88 -81 83 -72Q81 -67 78 -65Q78 -63 76 -61V-60Q78 -59 84 -56L91 -51Q97 -56 98 -62Q101 -65 101 -68Q102 -68 105 -77Q106 -77 107 -83L108 -84V-89L107 -90H106ZM206 -85H207Q213 -78 222 -77Q228 -73 230 -69Q230 -62 223 -59Q223 -56 220 -53Q219 -48 218 -45Q213 -35 213 -33Q216 -33 216 -30L218 -31Q222 -27 222 -24Q222 -20 212 -18H210H206H201H199H198Q192 -18 190 -17L188 -18L186 -17L184 -18Q183 -17 173 -17Q173 -15 166 -15Q166 -14 164 -14Q164 -11 154 -6L149 -17L147 -38Q146 -40 143 -58Q142 -59 139 -72H141Q151 -69 151 -67L155 -64H156Q160 -66 169 -68Q170 -70 178 -71Q181 -73 189 -74Q189 -76 198 -77Q200 -79 201 -81ZM165 -52V-47V-45V-42V-36V-31V-29H167L185 -32L186 -31Q187 -32 192 -33L193 -32H194L195 -34V-35Q196 -37 199 -63V-65V-67Q197 -66 195 -66H190Q190 -64 178 -62Q178 -61 173 -59Q173 -58 169 -58Q165 -54 165 -52Z"/>
</svg>