<svg xmlns="http://www.w3.org/2000/svg" viewBox="0 -256 256 256">
	<path fill="#000000" d="M178 -184H179L184 -180Q188 -180 193 -176Q199 -175 199 -171Q199 -169 193 -161Q187 -142 187 -133Q186 -133 186 -131H187V-130Q190 -132 193 -132Q194 -135 205 -140H206Q215 -140 216 -133Q215 -127 208 -127Q204 -125 194 -121Q192 -119 190 -118L187 -120Q184 -117 184 -111Q183 -111 182 -102L183 -97L182 -95L184 -93L182 -90Q184 -87 184 -85L187 -83L188 -84L186 -87Q186 -89 190 -89H193Q197 -90 206 -92Q206 -93 209 -93H211Q216 -93 218 -89Q220 -89 222 -86Q222 -77 214 -75L205 -72L202 -73L199 -72L198 -73L194 -72H193H191H186H183L181 -74H179L177 -76V-78Q175 -78 175 -82L173 -92L174 -95L173 -96V-100L172 -103L174 -104V-105L172 -107L173 -110L172 -112L174 -118L173 -121Q174 -122 175 -130L174 -131L175 -133L174 -134L175 -140V-141V-145L176 -151L175 -153L176 -161Q175 -173 172 -173Q172 -174 171 -174L170 -176Q172 -183 176 -183ZM67 -167Q73 -161 79 -160L83 -158Q86 -154 86 -151L85 -143L84 -142L85 -140L83 -138L85 -135V-134L83 -132V-131Q85 -127 85 -126H87Q89 -128 94 -130Q94 -131 95 -131Q95 -133 101 -138H102Q104 -138 106 -135Q110 -135 110 -134Q125 -130 125 -125V-123V-121L126 -116Q123 -113 119 -112Q113 -102 111 -102Q111 -99 106 -93V-91Q108 -91 111 -88V-86Q111 -85 106 -84L105 -85L103 -83H102L101 -84H99Q99 -81 94 -81L93 -80H89L88 -77H86H85Q83 -75 81 -75L80 -76L79 -75L81 -73L80 -71V-69L81 -67L79 -52V-48V-47L80 -46Q85 -50 88 -50L96 -55L95 -59V-65Q94 -67 93 -72H94Q107 -66 107 -63Q112 -61 112 -58L111 -55Q112 -55 112 -54V-53L111 -50V-48Q109 -47 109 -46L110 -41Q109 -35 107 -32L103 -30Q97 -35 97 -42V-45L96 -46V-49V-50H95Q94 -50 89 -47Q87 -47 84 -41Q81 -41 78 -36Q75 -36 61 -23Q59 -23 52 -15Q49 -15 49 -12L45 -8H44V-9Q42 -9 40 -14Q31 -21 31 -24V-27Q39 -31 45 -32Q49 -35 53 -35L65 -41L66 -45L65 -46L66 -48L65 -52L66 -54L65 -56L66 -60L65 -66V-68H64Q58 -68 57 -63V-61Q57 -56 52 -53H51Q49 -54 46 -60Q44 -61 44 -63L45 -65Q43 -68 43 -71V-73Q41 -73 40 -78Q37 -83 37 -86Q37 -91 26 -108V-110V-112L27 -113H28Q31 -109 36 -109Q37 -108 39 -108Q42 -112 48 -112Q48 -113 54 -114L56 -115L58 -114Q58 -117 66 -118L65 -130L66 -131L65 -132L66 -134L64 -140L65 -142L62 -151L58 -156Q61 -167 67 -167ZM125 -154Q127 -152 129 -152Q130 -151 135 -149L143 -147Q147 -144 147 -142V-139V-138H148Q148 -139 156 -143L160 -145H162Q170 -140 170 -136L168 -132Q161 -132 154 -126Q152 -126 144 -122L145 -120L144 -118L145 -115L143 -113V-109V-108L144 -105V-104Q143 -104 143 -97Q143 -93 144 -93Q147 -93 150 -96Q153 -96 155 -100Q159 -102 166 -106L167 -105V-104L154 -93Q154 -92 150 -89Q150 -88 146 -85Q146 -83 141 -80Q140 -80 139 -76Q135 -73 135 -71L131 -65Q127 -56 125 -54H123Q118 -60 118 -62L117 -64L118 -68L117 -69Q118 -70 119 -76Q130 -84 130 -106V-111V-112V-113V-114V-121Q130 -124 128 -126V-127L129 -129L128 -131V-132L127 -139V-140Q125 -140 122 -148Q123 -148 123 -150L122 -152L124 -154ZM86 -117Q85 -117 82 -118H81V-117Q83 -115 83 -114Q83 -112 82 -112L83 -110L82 -107V-104V-103V-100L81 -98V-94V-89H82H85L86 -88Q89 -92 92 -92Q95 -101 97 -121H95Q92 -119 86 -117ZM54 -104H53L52 -105L51 -104L52 -100L51 -99L53 -97L52 -95L53 -92V-90V-88L55 -77H56Q62 -81 66 -82Q66 -85 68 -86L66 -88L67 -90L66 -91L67 -94V-95L66 -99V-100V-103Q66 -104 67 -104Q66 -106 66 -109L63 -107Q58 -107 54 -104ZM158 -77H160Q161 -76 165 -76L170 -72Q175 -69 180 -65V-64L179 -58Q181 -59 190 -62H191L194 -61H196Q201 -58 201 -56V-54Q201 -51 188 -49H187Q184 -47 177 -46L176 -45V-44V-39L172 -19H173L179 -20L182 -19Q182 -21 204 -24Q211 -27 215 -27H219Q222 -24 229 -20V-14Q226 -9 222 -9L205 -12Q204 -14 201 -14H194L193 -12L189 -13H188L185 -12L183 -13Q183 -12 178 -12L177 -11H173H171H170L166 -6Q160 -1 158 -1H157Q153 -8 152 -9Q151 -9 150 -6H149L147 -7Q141 -3 134 -3L125 0H123L109 5L103 9H102L94 2Q94 0 90 0L89 -2V-4Q89 -5 108 -7Q108 -8 131 -11Q137 -12 138 -14L141 -13L148 -14H149L152 -15H153Q155 -18 156 -31Q156 -36 153 -36L143 -31H142Q141 -31 140 -34L130 -43V-45L134 -46L136 -45Q136 -46 148 -49L155 -52L157 -51V-52V-55V-57V-58L156 -62L157 -63Q155 -72 151 -72Q151 -76 155 -76Q156 -77 158 -77Z"/>
</svg>