<svg xmlns="http://www.w3.org/2000/svg" viewBox="0 -256 256 256">
	<path fill="#000000" d="M193 -177H197Q214 -173 214 -169Q211 -160 205 -160H204H200H197L195 -162Q192 -160 191 -160L190 -161L178 -158H176Q176 -157 164 -155Q164 -154 163 -154L162 -155H161Q156 -152 153 -152V-151Q155 -149 155 -148Q161 -144 163 -144Q166 -144 167 -139V-136Q167 -134 158 -123Q158 -122 151 -117L149 -113Q149 -110 150 -110Q150 -111 156 -113L161 -115H163Q166 -115 169 -117Q190 -122 203 -126H204Q207 -122 220 -115Q225 -112 225 -108L226 -106L224 -100V-99Q221 -77 220 -63Q218 -60 216 -40Q215 -40 214 -32Q209 -17 203 -9Q197 -5 195 -3L190 1H189L187 0V-8Q185 -22 182 -22Q180 -25 180 -26L181 -27H186H190Q191 -27 194 -41V-44Q195 -44 196 -60L198 -78L197 -79L199 -96L198 -98Q199 -100 200 -100Q199 -105 198 -108V-110Q198 -113 193 -113L187 -111H186H184Q182 -108 179 -108Q179 -106 188 -99L189 -97Q189 -95 187 -91Q185 -71 183 -62Q182 -58 181 -56V-55L182 -54Q180 -53 179 -45V-42H182Q184 -41 188 -40L190 -37Q190 -34 185 -32L183 -34L182 -32H178H173L171 -30L169 -31L162 -29H160V-28L157 -29Q149 -28 145 -25H144L142 -26Q142 -25 133 -23H130L129 -22L130 -19V-18L125 -13L122 -9H120Q119 -9 118 -17Q117 -17 116 -23Q115 -23 115 -25V-27V-34V-38V-41V-46V-49L114 -63H115L114 -66V-68V-69L113 -75L114 -76Q113 -81 111 -82V-89Q110 -100 106 -100V-101Q106 -103 110 -103Q114 -102 114 -99H116Q118 -103 126 -104L127 -103H128Q133 -107 135 -113Q142 -131 143 -140L142 -142L143 -144L142 -148Q134 -147 131 -145H129Q129 -144 119 -142Q119 -144 110 -152L107 -154Q104 -154 104 -155V-157L105 -158H107Q113 -158 134 -162Q137 -162 141 -164L143 -163Q161 -167 161 -169H163H164L179 -172Q187 -173 187 -175Q191 -175 193 -177ZM74 -161Q76 -158 83 -158L86 -151L85 -150L86 -147Q83 -143 83 -141V-140L84 -139L83 -137V-136Q83 -135 85 -135Q86 -135 90 -138Q95 -139 99 -142Q101 -142 103 -140Q105 -140 110 -137Q120 -135 120 -129L119 -127V-125Q110 -120 110 -114Q107 -113 104 -106Q101 -106 101 -101L104 -99V-95L99 -92L96 -93Q89 -91 88 -91L80 -89V-87V-85V-82L79 -80L80 -74Q79 -72 79 -71V-69V-67V-62Q79 -64 92 -68Q90 -74 88 -78V-79L89 -80Q105 -77 105 -74Q108 -74 110 -67V-65L111 -63V-59Q111 -51 105 -47Q104 -45 101 -44Q98 -45 95 -54Q94 -54 94 -55L95 -58Q93 -61 91 -61Q83 -57 80 -54Q74 -51 74 -48L71 -44Q68 -44 59 -34Q50 -25 49 -25H48Q44 -25 38 -32Q31 -37 31 -39Q31 -41 46 -47Q46 -48 50 -48Q52 -51 66 -56L68 -60L67 -65V-67L66 -70V-71L67 -74L66 -78L67 -80Q65 -85 64 -85Q61 -82 57 -81V-78V-77L55 -70H52Q51 -70 48 -74Q44 -76 44 -78L45 -82L42 -85V-88Q42 -91 38 -97Q38 -100 34 -105Q34 -107 29 -115V-122Q29 -123 31 -124Q33 -124 36 -121Q40 -121 42 -119H44Q48 -121 55 -122L66 -126V-127L65 -131L66 -132L65 -135L66 -139Q63 -151 61 -152Q59 -152 59 -153V-155Q61 -159 69 -159Q69 -160 74 -161ZM88 -127Q86 -124 82 -124H81V-123L82 -122L81 -114L82 -108V-104L80 -102Q81 -102 82 -98H83Q89 -99 89 -104Q89 -108 91 -110V-111H90Q91 -120 92 -126V-127H90H88ZM56 -114L54 -115V-114H53Q54 -101 56 -99V-98Q56 -89 58 -89H60Q66 -90 66 -94V-95V-100V-103V-108V-109V-112V-116V-118H64Q62 -118 56 -114ZM150 -102H148Q144 -100 140 -99V-98V-97Q148 -90 151 -90L153 -87V-82Q154 -82 155 -85Q158 -85 160 -87Q161 -87 164 -89H165Q166 -89 169 -87L171 -90V-95L172 -97L170 -99V-101L169 -106L154 -103Q151 -103 150 -102ZM126 -94L127 -92Q126 -83 125 -82L127 -78L125 -76Q126 -76 128 -67L127 -66L128 -58L127 -56L128 -54V-52V-51V-48V-46L129 -43V-41Q129 -39 128 -39L129 -36V-33L130 -32L129 -29H131Q133 -32 140 -32L141 -35L140 -38L141 -41L140 -43L141 -45L140 -49V-51Q139 -76 135 -97Q131 -97 126 -94ZM154 -77H151V-76L152 -75L151 -71V-69V-67V-66L152 -65Q153 -66 156 -66L162 -70H164Q166 -70 168 -66H169V-70L170 -73L169 -75L170 -77L169 -79Q172 -82 172 -84H170Q166 -81 162 -81Q162 -79 156 -79Q155 -77 154 -77ZM168 -64Q168 -62 163 -62Q163 -60 158 -60Q158 -59 151 -58V-57V-56V-53L150 -45L151 -43Q150 -37 150 -36V-34H152Q153 -34 155 -36H156L157 -35Q158 -36 167 -39L168 -41V-44L169 -55V-60L170 -64H169Z"/>
</svg>