<svg xmlns="http://www.w3.org/2000/svg" viewBox="0 -256 256 256">
	<path fill="#000000" d="M184 -187L193 -180H195Q199 -180 199 -175Q199 -170 192 -170Q186 -169 185 -168H182Q173 -164 169 -161Q166 -159 165 -158Q166 -156 166 -154L165 -142H167Q169 -144 174 -144Q174 -145 178 -147L179 -148H180Q182 -146 185 -145V-142Q185 -139 169 -136L167 -134H165V-133H164L165 -131V-130L164 -128L165 -126Q165 -121 163 -119L164 -116L163 -115V-114H165Q165 -113 175 -111Q175 -110 181 -109Q181 -108 189 -108Q189 -106 195 -106H196Q197 -104 215 -102V-103H216Q223 -102 226 -101Q226 -102 228 -103Q231 -102 231 -101Q229 -99 218 -98L208 -94Q207 -90 194 -86H192L184 -89L183 -88V-86L181 -76V-69V-65V-61V-58V-53V-42L182 -40L181 -37V-36Q181 -33 183 -32L181 -26L182 -24Q182 -1 170 7L165 11H163L160 9V2Q159 -5 153 -14Q148 -16 147 -18V-19Q147 -20 150 -20Q151 -18 157 -18L158 -17H160Q160 -23 162 -27H161L162 -32V-37V-40L161 -46L153 -44Q142 -41 140 -41Q137 -39 137 -38L138 -36V-15V-11Q135 -9 135 -5Q130 3 127 3Q126 2 125 -3Q123 -7 123 -9L122 -25L123 -32V-33H122L123 -40V-64L122 -73L123 -76L122 -79L123 -81L122 -84L123 -88L121 -91Q121 -95 122 -95H124Q130 -90 130 -87Q149 -95 155 -95Q155 -96 160 -98V-99Q152 -104 143 -107L131 -113L129 -115H127Q127 -113 123 -109Q123 -108 118 -104Q118 -100 108 -95Q106 -91 94 -84V-82Q103 -77 103 -71Q104 -69 104 -68V-65Q101 -59 97 -59L96 -57H94Q92 -57 90 -63V-66Q88 -67 88 -70L80 -64Q77 -64 69 -57Q62 -54 48 -39Q48 -37 44 -36Q44 -34 43 -34Q40 -34 25 -48V-49Q27 -52 34 -52Q36 -54 41 -54L53 -59Q61 -61 61 -63V-64V-66V-68Q62 -68 62 -72L61 -85V-86Q60 -91 59 -91Q52 -91 51 -85Q50 -85 50 -83L48 -82Q43 -85 43 -89Q41 -89 40 -95Q40 -103 38 -103L39 -104Q39 -107 32 -125Q30 -125 30 -130L31 -131H32Q34 -131 37 -127Q39 -127 42 -125H44Q47 -127 53 -129V-128H54Q57 -131 62 -131V-132L63 -141V-144L64 -147L63 -152V-153V-155V-159L57 -165V-166Q57 -170 64 -175Q65 -174 69 -170L83 -165Q85 -161 85 -160L81 -149L80 -146L81 -145L79 -137H80Q82 -138 91 -140Q93 -144 100 -146H102Q105 -143 115 -141L117 -139V-132L115 -130L118 -128L120 -129Q120 -128 122 -127Q122 -129 125 -135L124 -136V-137Q126 -139 126 -140V-143L124 -149V-150L127 -153Q129 -153 133 -148Q141 -145 141 -140Q139 -140 134 -127L133 -124L147 -120L148 -122V-124L149 -130L147 -133V-134L148 -135V-142L147 -145V-147V-155V-158V-162L146 -163L132 -158Q129 -161 125 -163L120 -169Q120 -172 129 -173L131 -174H132L162 -181V-180Q175 -183 183 -187ZM167 -171H165Q163 -168 151 -166V-165Q156 -160 160 -160H161Q164 -160 175 -174V-175H174Q171 -171 167 -171ZM86 -131H84Q79 -128 78 -124L79 -122V-121L77 -119V-118L79 -117V-116L77 -114Q79 -114 79 -113V-109L81 -108L84 -110H86Q88 -115 89 -121Q91 -121 91 -132H89ZM112 -129L110 -124V-122Q110 -120 106 -119H105Q102 -113 100 -111Q98 -110 98 -107Q102 -106 102 -105Q99 -103 99 -101Q87 -99 84 -98L83 -99Q78 -97 78 -95V-93Q78 -84 77 -81V-76L76 -69H78Q80 -71 87 -73V-76L85 -77V-79L86 -81L84 -86V-87H85L90 -86Q95 -86 103 -95L111 -106Q111 -109 113 -109V-111L117 -117Q117 -119 120 -122Q113 -125 113 -129ZM53 -121V-122H52V-121V-119Q53 -117 53 -116L52 -114L53 -113V-111V-104Q53 -101 56 -101L58 -100Q60 -102 62 -103H63V-110L64 -120L63 -122L64 -123V-125H62Q61 -123 57 -123Q56 -123 56 -122L55 -121ZM152 -85L150 -86Q137 -82 137 -80Q137 -77 142 -76V-73V-72Q144 -72 151 -75H154L156 -74L159 -75L161 -74L162 -75V-77V-79V-82V-85Q158 -88 156 -88Q152 -86 152 -85ZM83 -76V-75H82V-76ZM159 -68Q158 -68 149 -64V-65H148L137 -60L136 -59L138 -56Q136 -54 136 -50V-49L138 -48L151 -52L155 -53Q159 -52 160 -51H161Q162 -51 163 -56L161 -68Z"/>
</svg>