<svg xmlns="http://www.w3.org/2000/svg" viewBox="0 -256 256 256">
	<path fill="#000000" d="M200 -193Q201 -193 208 -188L216 -186L218 -187Q219 -187 221 -184V-177Q219 -173 216 -171H212Q201 -159 199 -159Q195 -153 182 -149H181Q180 -149 179 -151Q179 -154 180 -154V-156Q180 -162 185 -167Q185 -168 190 -173Q196 -182 196 -185L193 -187V-189Q195 -193 200 -193ZM149 -187H152Q154 -187 160 -180Q169 -177 171 -174V-171Q171 -167 164 -167Q164 -166 161 -165Q161 -163 156 -162L152 -160Q147 -156 141 -154Q135 -149 133 -149L132 -151V-153Q134 -155 136 -160Q143 -167 149 -178Q149 -180 146 -183V-184Q148 -187 149 -187ZM78 -184H80Q82 -183 84 -179Q89 -176 93 -176L96 -168Q95 -164 92 -158Q92 -154 86 -142Q86 -140 85 -140L86 -138L80 -124L81 -123L76 -116V-115H77Q80 -117 90 -118Q94 -121 98 -121Q102 -125 102 -132L100 -137Q100 -139 106 -141H108Q113 -135 115 -135Q119 -133 122 -130V-126L115 -117Q115 -115 107 -103L105 -100V-99L99 -90Q95 -81 87 -71H86Q88 -68 95 -65L100 -61Q100 -60 104 -58Q108 -55 111 -51Q116 -44 116 -38V-35L115 -34H104L96 -43L79 -60Q75 -52 68 -47Q59 -39 49 -35L31 -26L28 -24Q26 -24 22 -22Q20 -22 19 -21H15L14 -22Q19 -25 22 -25L31 -29Q43 -36 46 -41Q47 -41 50 -44Q53 -44 58 -50Q59 -50 69 -60H68V-61L73 -66V-67Q73 -68 69 -68Q66 -71 59 -75Q52 -77 52 -78V-84L55 -99Q47 -97 44 -95Q42 -94 38 -93Q38 -92 31 -89Q31 -87 27 -87Q25 -93 20 -97Q15 -101 15 -102Q15 -104 25 -104Q32 -107 41 -108Q41 -109 53 -110L52 -112H53Q53 -111 55 -111L57 -112L61 -111L62 -116V-118Q65 -120 67 -129Q68 -132 73 -157Q74 -157 75 -166L74 -168V-170Q74 -171 68 -176Q68 -178 78 -184ZM221 -149Q228 -147 228 -144L229 -142Q226 -138 221 -135Q218 -134 212 -132Q212 -131 207 -129Q207 -128 203 -128Q202 -126 200 -126V-125L212 -120V-119Q214 -117 214 -112L212 -109V-107L213 -106H216Q222 -111 229 -113Q231 -112 236 -111Q242 -108 242 -106V-104Q242 -98 228 -98H226Q225 -98 223 -96Q217 -96 211 -94L212 -91L210 -87L211 -85L210 -80L211 -78L210 -75Q210 -70 211 -70L210 -58L211 -56L210 -54L211 -53L210 -50V-43L212 -30L211 -25L212 -24L211 -19V-18Q210 3 208 3Q207 9 200 17H198H197Q196 17 196 12Q194 12 194 4Q193 4 192 -5L193 -11L192 -13L193 -16L192 -20L193 -22L192 -24L193 -31V-36Q192 -40 192 -47V-49V-50V-51V-54L191 -56V-57Q192 -59 192 -60L191 -62V-63L192 -65L191 -67V-70Q191 -82 190 -82Q181 -80 181 -78Q180 -77 176 -77Q176 -76 173 -74L167 -76Q167 -77 162 -81H161H160Q158 -82 158 -85Q169 -89 175 -90Q175 -91 179 -91Q179 -93 182 -93Q182 -95 188 -95Q192 -98 192 -104V-105L190 -114V-117V-118L188 -120H186Q179 -120 174 -126Q173 -126 172 -128V-129Q172 -130 176 -131Q176 -132 185 -134Q188 -136 195 -138L201 -140Q201 -141 207 -143Q216 -149 221 -149ZM165 -141Q167 -140 172 -140V-136Q163 -126 157 -125Q153 -124 146 -118Q144 -118 139 -115H137Q136 -115 136 -116Q134 -116 127 -122Q127 -124 131 -125Q131 -126 134 -126Q139 -130 141 -130L156 -140Q156 -141 165 -141ZM60 -86V-85L69 -81L77 -77Q78 -77 78 -82Q84 -88 88 -98L91 -101V-102Q91 -104 93 -106Q93 -109 96 -113L97 -115H96Q91 -113 81 -109Q81 -108 77 -108Q77 -107 72 -106L67 -96ZM131 -113H133Q138 -109 146 -108H150L153 -106Q155 -106 162 -109H164Q171 -108 171 -104Q171 -100 151 -95Q150 -94 149 -82L148 -79V-75L146 -72V-69Q145 -65 144 -57Q142 -57 142 -52Q139 -50 136 -39Q133 -36 131 -30L125 -23Q117 -13 104 0H103L102 -1V-3Q104 -6 112 -13Q112 -14 119 -21Q119 -23 122 -27Q122 -29 124 -30Q129 -41 129 -43Q130 -43 131 -50L133 -54L132 -57L134 -60V-61V-63V-69Q134 -70 136 -70V-71L135 -75V-76L136 -85H135Q129 -85 128 -81H124L122 -83L119 -82Q117 -82 113 -85Q112 -85 110 -88Q110 -89 122 -92Q122 -93 128 -94Q129 -97 135 -97L136 -99Q135 -101 134 -106Q132 -106 132 -110L131 -112V-113Z"/>
</svg>