<svg xmlns="http://www.w3.org/2000/svg" viewBox="0 -256 256 256">
	<path fill="#000000" d="M157 -182Q160 -182 165 -176Q173 -174 173 -169V-164Q171 -157 165 -157L161 -156V-157Q158 -154 156 -154Q156 -153 155 -153H153Q153 -151 151 -151H149Q149 -150 148 -150Q148 -147 143 -146L139 -143V-142Q139 -140 144 -139Q144 -137 146 -135V-131L145 -129V-126L144 -125V-123L145 -119H147Q154 -126 158 -126Q158 -127 162 -127Q162 -129 167 -131Q172 -128 173 -127V-126L168 -122Q168 -121 163 -119L162 -120Q158 -117 153 -117L151 -115L149 -117Q149 -113 146 -113H144V-112V-108V-102V-101L148 -100Q148 -103 157 -106L161 -107Q161 -108 169 -108Q171 -108 172 -105Q172 -104 169 -101H168L167 -102Q166 -99 160 -99L155 -96H154L153 -97Q153 -94 148 -94Q148 -93 144 -90V-86Q144 -84 143 -82V-81L144 -80Q144 -75 142 -73V-72L149 -75L151 -73Q151 -75 157 -75L158 -77Q159 -77 161 -75L166 -78L168 -77Q170 -79 174 -79H176V-81Q176 -82 177 -82V-83Q176 -83 176 -85L177 -89H176V-90L178 -92H177V-94Q177 -98 180 -98L177 -100L178 -104V-106L177 -109Q180 -109 180 -121V-122V-126L181 -129Q180 -130 180 -132V-133Q180 -135 181 -137L180 -139L181 -141V-147Q181 -148 179 -149Q179 -148 175 -146Q175 -145 171 -144Q171 -143 166 -143H165L163 -141L160 -142Q159 -140 158 -140H157H155Q145 -141 145 -142V-143L147 -144H148H149Q153 -146 161 -149Q161 -150 162 -150L163 -149L166 -150H167V-152Q167 -153 171 -154Q171 -155 175 -155Q179 -160 183 -161Q185 -164 188 -164Q189 -159 195 -159Q195 -158 202 -157L204 -153V-152Q204 -147 201 -139Q201 -136 200 -135V-134L199 -131V-122V-120V-118L198 -112V-108L197 -106L198 -102V-101Q194 -81 193 -79Q192 -79 192 -75Q191 -75 190 -70Q184 -61 180 -61Q180 -59 178 -59H177Q174 -60 174 -64V-69Q174 -72 173 -72H171Q171 -71 166 -71Q165 -68 162 -68L160 -69L157 -66L155 -67Q152 -65 147 -64Q147 -63 143 -62L142 -61H141Q141 -59 132 -56L129 -54H128Q127 -54 127 -55H126H125Q124 -56 118 -60Q117 -63 117 -65V-66L118 -67H120Q121 -69 124 -69H129Q134 -69 134 -75V-78V-85V-86V-89V-98L133 -102Q134 -102 135 -104L134 -113L135 -116L134 -119L135 -120V-121V-122V-124L133 -126L134 -128L133 -131V-132V-135Q130 -138 130 -143Q128 -145 128 -149V-150L129 -152Q131 -148 136 -144Q137 -144 139 -148H141V-150Q147 -156 150 -164Q153 -169 154 -175L153 -176Q153 -179 157 -182ZM64 -157H65Q67 -157 72 -153L79 -151Q81 -151 86 -147V-144L84 -136V-135H85L92 -137Q94 -139 106 -144Q107 -141 114 -139Q123 -136 126 -134V-127Q126 -126 121 -126Q114 -112 112 -110V-108Q110 -107 110 -104L108 -103V-101Q111 -101 112 -97Q109 -93 107 -93L93 -90Q90 -89 89 -89H85Q84 -86 81 -86L82 -82L81 -80V-77V-69V-67Q81 -63 82 -63Q85 -63 96 -67V-71L94 -76V-77L95 -78H97Q101 -74 106 -72L108 -69Q108 -68 112 -65Q114 -60 114 -58V-55Q114 -43 110 -43Q110 -42 107 -40H105Q100 -42 100 -52Q99 -52 98 -59H97L89 -53Q88 -52 84 -50L80 -48Q63 -36 48 -21H45Q43 -23 38 -26L31 -33V-35Q34 -38 44 -41Q44 -42 49 -44Q54 -48 58 -49Q63 -52 70 -54L69 -70L68 -71L70 -72V-73Q68 -74 68 -79L64 -80L56 -75Q56 -70 51 -67Q48 -67 45 -74L43 -79L44 -82Q42 -83 42 -85V-86L34 -110Q33 -110 33 -114L31 -117V-119Q31 -121 34 -123Q36 -121 39 -120Q39 -118 43 -117Q43 -116 45 -116H48Q52 -117 56 -121Q67 -126 67 -128L66 -131L67 -134L65 -137V-138Q65 -145 63 -148V-150Q61 -151 60 -153V-154Q62 -157 64 -157ZM84 -120V-117V-114Q83 -111 82 -111L83 -105L82 -103V-100V-97V-96H83L93 -101H94V-112V-113L95 -114L94 -116Q94 -118 96 -118V-124L97 -127L96 -129Q94 -126 91 -126Q84 -124 84 -120ZM61 -113H59Q57 -113 54 -109L55 -99V-97Q56 -97 56 -95V-93V-86H57Q58 -88 68 -90V-98V-113Q67 -116 66 -116ZM193 -72L196 -71H199H202H205L208 -70L210 -71Q212 -70 217 -68L224 -62Q225 -59 225 -55Q225 -47 220 -47Q220 -46 216 -46Q216 -47 212 -48Q212 -51 210 -51Q202 -62 191 -69V-70ZM160 -56L163 -54H164H165L169 -51H170L178 -55V-54V-53Q175 -48 175 -44L173 -42V-39L170 -36Q168 -36 166 -34H165Q162 -34 161 -45Q160 -45 160 -48V-49Q160 -50 158 -50L157 -52ZM130 -47L135 -45Q139 -44 146 -35Q147 -31 149 -31Q149 -27 159 -24L162 -21L163 -22H164L168 -20L169 -21L176 -19L181 -20L184 -19H185L192 -18Q200 -20 200 -21V-22L198 -24L199 -26Q199 -29 193 -42Q193 -45 194 -45Q195 -45 197 -41Q204 -28 217 -23Q222 -23 225 -15V-13Q224 -5 221 -2Q216 3 210 3H206L204 4L202 3L198 4L190 3H187L184 2L182 3Q180 1 178 1H173L164 -3Q157 -4 149 -9Q138 -22 133 -36L131 -42V-44Q129 -44 129 -45ZM123 -43H124L125 -41L123 -37L124 -36L122 -31V-28Q121 -26 121 -23V-18V-14V-4Q121 3 113 6Q108 2 108 -2Q107 -2 107 -3V-8Q105 -9 105 -15Q107 -18 107 -22Q108 -22 108 -25Q112 -32 115 -33Q115 -34 120 -38Z"/>
</svg>