<svg xmlns="http://www.w3.org/2000/svg" viewBox="0 -256 256 256">
	<path fill="#000000" d="M164 -179Q164 -177 171 -176Q173 -175 181 -172Q184 -168 184 -166Q182 -165 180 -157Q177 -147 177 -145H178Q179 -145 194 -152Q197 -152 199 -154H202Q208 -153 214 -149L215 -144Q215 -140 213 -140L211 -141L206 -140L204 -141Q204 -139 193 -138Q193 -137 191 -137H189Q187 -135 178 -133L176 -131H171Q170 -129 157 -125Q134 -112 133 -112Q132 -113 123 -118Q121 -121 117 -122L115 -125Q115 -126 120 -126H122Q127 -130 139 -132L151 -135Q154 -138 158 -138L160 -142L159 -143L160 -146V-152V-157Q158 -160 158 -162L159 -164Q157 -167 155 -167Q155 -169 151 -173V-174Q153 -179 162 -179ZM82 -162H83Q87 -156 92 -154L98 -150L103 -145V-141Q101 -140 98 -135Q95 -131 94 -126Q90 -123 87 -111Q85 -111 85 -109H86V-108Q86 -106 82 -100Q82 -97 80 -95H81Q81 -96 84 -97Q84 -98 89 -99L96 -100V-101H97V-100L98 -101V-103L96 -105V-110Q96 -111 102 -113Q120 -107 120 -100Q120 -96 116 -94Q116 -91 114 -91V-90Q114 -87 110 -85Q110 -82 107 -76V-74L102 -65V-62Q100 -57 98 -55V-54L95 -50V-46Q96 -45 104 -41Q116 -31 117 -27Q119 -27 119 -23Q121 -23 124 -14Q125 -14 125 -12V-11V-8V-7Q125 0 121 0H116Q113 -1 108 -10L98 -24Q95 -25 89 -34Q87 -34 87 -36L86 -37Q86 -33 69 -21Q54 -9 46 -7Q46 -5 40 -2Q33 0 28 3L27 2Q27 1 34 -2Q35 -3 47 -11Q47 -12 52 -14Q70 -32 71 -36L77 -44Q76 -46 72 -47Q70 -50 62 -56L60 -57Q56 -52 52 -52L51 -53V-58Q53 -59 54 -63Q56 -63 56 -66Q59 -67 59 -71L62 -77V-80Q66 -85 68 -85L67 -86H66L61 -85Q56 -80 47 -78L38 -73H37H36Q35 -71 33 -71Q32 -71 23 -65H20Q18 -65 17 -69H16H15Q10 -73 9 -77L8 -78Q8 -80 22 -81Q22 -82 32 -84L35 -85H38Q46 -88 60 -90Q60 -91 66 -92Q73 -113 75 -122L76 -127L78 -132V-133V-135Q79 -136 79 -139V-140L78 -141V-142L79 -144Q79 -145 72 -154L71 -156Q71 -159 82 -162ZM187 -119L188 -118L189 -119L200 -115Q203 -114 207 -106V-102Q207 -99 198 -97H195Q178 -114 175 -115L174 -117L175 -118H179L183 -119V-118ZM146 -113H147Q148 -113 158 -106Q161 -106 162 -102L161 -100L162 -99Q161 -97 153 -95Q151 -92 144 -89Q134 -80 124 -73L123 -74L134 -86Q134 -87 136 -90Q136 -94 139 -96Q139 -98 141 -98Q141 -100 144 -107L143 -108V-110ZM71 -76V-74L68 -72L69 -70Q66 -67 65 -67L63 -68V-67L65 -65V-64L61 -59L71 -56Q74 -56 76 -54Q79 -54 80 -53H81Q81 -55 83 -55V-58Q83 -59 85 -59Q87 -63 87 -67L92 -77Q94 -77 94 -78L92 -80L96 -86Q96 -92 98 -94V-96Q95 -96 80 -90Q77 -90 77 -87Q77 -84 75 -83Q75 -79 71 -76ZM175 -96Q183 -89 186 -89L188 -85V-82Q180 -71 179 -66L178 -65L176 -63V-62Q176 -59 171 -54Q177 -51 184 -44Q193 -38 206 -27Q209 -27 210 -25L224 -18Q241 -9 248 -9V-7L247 -6H242Q239 -5 230 -5H229Q227 -4 221 -3L212 -1Q212 0 206 1Q205 1 200 -5Q193 -10 183 -21Q172 -33 167 -35Q163 -41 162 -41L155 -35Q149 -28 147 -28L142 -26Q142 -25 134 -21L130 -19V-18Q127 -18 127 -20Q139 -28 147 -38Q150 -41 156 -50V-51Q153 -54 147 -63Q147 -64 142 -68Q137 -72 137 -75L141 -76Q143 -76 144 -73L145 -74H147L154 -68L155 -67H156Q157 -65 161 -63H164V-64V-65L166 -70Q170 -84 170 -88L168 -93Q170 -96 175 -96Z"/>
</svg>