<svg xmlns="http://www.w3.org/2000/svg" viewBox="0 -256 256 256">
	<path fill="#000000" d="M163 -192H165L170 -186L171 -187L174 -185H177L182 -180V-175L172 -164Q165 -161 165 -156V-155H167Q171 -158 177 -159L190 -163L195 -166H196Q203 -163 206 -163Q210 -160 210 -159V-154Q207 -150 204 -150H201Q190 -148 182 -140L179 -137H178L177 -139Q184 -148 185 -148V-149L188 -156H187Q186 -155 181 -155Q181 -153 170 -153L160 -149L159 -150Q155 -149 154 -145Q151 -145 147 -140Q136 -132 134 -132Q132 -121 129 -121V-120H128Q125 -120 113 -129Q112 -131 104 -135Q104 -136 100 -139V-140L101 -142Q104 -141 105 -141H109H117Q128 -138 130 -135Q132 -134 134 -134Q134 -135 141 -140L145 -145Q149 -149 149 -151Q151 -153 154 -162Q157 -167 162 -183L158 -187Q159 -189 163 -191ZM113 -180H114L118 -179H119L127 -177Q130 -177 136 -169Q136 -158 129 -156H127Q121 -158 120 -162L114 -166Q112 -170 105 -173Q105 -175 102 -176V-178Q103 -179 105 -179H111ZM74 -169Q76 -167 85 -163Q87 -160 87 -155Q87 -149 76 -147Q76 -146 68 -142H64Q57 -137 54 -137Q47 -132 35 -130L34 -131Q38 -135 41 -135Q43 -138 50 -141L59 -151Q61 -154 64 -159L66 -161V-165V-167Q66 -168 74 -169ZM160 -140H163Q164 -138 172 -135L173 -133Q173 -130 166 -122L162 -117L167 -115L170 -116Q172 -116 172 -115H174H175L186 -113H190L192 -112H195Q202 -112 205 -110Q217 -108 224 -104Q227 -99 227 -98V-97Q226 -89 219 -89H218Q215 -89 212 -92H211H209L199 -95Q195 -99 191 -99Q191 -100 186 -100Q185 -102 182 -102L181 -104L180 -103Q163 -110 163 -112L160 -111L159 -113H158Q158 -108 148 -101L137 -93L136 -92L135 -93V-94Q143 -102 146 -109Q146 -111 150 -115H149V-116Q151 -118 153 -125Q154 -125 154 -130Q156 -130 156 -132V-135L154 -136V-137Q156 -140 160 -140ZM82 -138Q88 -132 90 -132Q93 -132 93 -126Q89 -118 81 -113Q72 -104 69 -104V-103L73 -100H75Q75 -102 81 -103L89 -106Q90 -108 103 -112Q104 -115 113 -119H114Q114 -118 118 -115L119 -116Q129 -113 129 -110Q130 -110 130 -105Q130 -100 126 -99L113 -85V-84Q113 -83 114 -83L115 -84L117 -82Q117 -78 111 -78Q111 -77 107 -77H106Q105 -75 95 -72Q87 -69 86 -68Q85 -68 84 -63Q82 -60 80 -60Q76 -60 73 -76Q71 -77 70 -85Q69 -85 67 -96L64 -97L55 -90Q53 -90 47 -84Q36 -74 33 -73Q33 -71 29 -70L28 -72V-73Q46 -86 58 -104L69 -119Q71 -119 72 -122Q73 -122 75 -131Q76 -136 78 -136ZM102 -104Q102 -102 97 -100L93 -101V-100Q93 -99 84 -96Q83 -96 83 -94V-93Q83 -84 84 -82V-81Q85 -78 86 -78Q90 -80 95 -80Q95 -81 102 -82L105 -91V-95V-103L103 -104ZM129 -88Q133 -87 135 -86L139 -85H141L145 -83V-78V-77V-75Q150 -75 159 -80Q163 -80 173 -86H174Q177 -83 187 -81L191 -77V-72Q179 -61 173 -51Q171 -46 165 -46Q147 -43 139 -40V-39Q139 -38 141 -38V-37V-36Q141 -34 140 -34L141 -32V-26V-23V-18H143Q157 -23 164 -25H165V-26Q163 -33 159 -36L160 -37Q163 -37 171 -34Q172 -34 174 -32V-33H175Q179 -33 186 -24Q190 -19 192 -10V-3Q192 6 184 13H179Q177 13 174 -1Q172 -3 172 -9Q168 -15 168 -20H166Q152 -14 145 -12Q144 -11 136 -8Q128 -3 123 -1L110 5Q109 8 103 9Q96 13 92 17H91Q82 13 82 9Q77 4 77 0Q77 -1 85 -3Q87 -4 96 -5Q110 -9 116 -12L117 -11L126 -14V-17Q126 -20 127 -20V-23V-24L126 -29V-32Q126 -35 125 -35L115 -32L113 -33V-32Q111 -29 108 -26H106Q105 -26 105 -30Q103 -30 102 -37Q100 -45 99 -52Q97 -54 94 -65Q94 -67 98 -67L104 -63Q107 -64 116 -66L123 -68L126 -69V-71L125 -73L126 -76V-80Q126 -82 124 -84V-86Q126 -88 129 -88ZM162 -74Q162 -72 155 -71V-70H154V-71L148 -69Q147 -68 145 -68Q143 -68 143 -66V-62Q142 -59 141 -58V-55V-54V-53V-51V-50L159 -54Q161 -54 163 -73V-74ZM113 -55V-47V-45Q113 -42 114 -42Q121 -44 126 -46V-53V-60L127 -62H126Q123 -60 114 -57Z"/>
</svg>