<svg xmlns="http://www.w3.org/2000/svg" viewBox="0 -256 256 256">
	<path fill="#000000" d="M154 -186Q164 -179 168 -178Q171 -177 171 -174Q171 -168 165 -164Q160 -163 150 -152Q142 -146 136 -137V-136Q136 -135 143 -133Q144 -130 148 -130Q148 -129 165 -122Q170 -119 172 -119Q172 -118 186 -113L192 -112L196 -109L200 -110Q200 -108 208 -107Q222 -103 228 -102L229 -101H230Q238 -100 242 -99H244Q246 -99 246 -98Q246 -96 235 -96Q235 -94 217 -90L205 -83L200 -82Q194 -85 191 -85L181 -90L172 -94Q169 -97 165 -98Q160 -102 153 -105Q152 -107 149 -107L144 -111Q142 -111 139 -115L128 -123H127Q127 -122 124 -121L118 -114Q115 -114 114 -109L100 -97Q97 -95 91 -87Q89 -87 84 -81Q83 -81 67 -67L60 -61H58Q58 -59 51 -56Q28 -41 16 -37L12 -35H11Q10 -35 10 -36Q10 -38 22 -43Q23 -43 50 -61Q50 -63 57 -68Q57 -69 64 -74L81 -93L90 -103L100 -113Q100 -115 105 -119Q109 -123 109 -125L115 -131Q113 -135 105 -138L104 -141V-143Q107 -148 108 -148Q113 -148 114 -146H116Q119 -146 123 -144L126 -143Q126 -145 130 -150Q134 -156 134 -158Q134 -160 133 -160Q132 -158 130 -158H129Q121 -162 121 -166V-167Q127 -169 132 -174Q138 -176 143 -178Q153 -186 154 -186ZM109 -185Q113 -185 116 -182Q123 -180 123 -177Q123 -176 125 -174V-173Q125 -170 121 -170Q120 -169 120 -167L113 -159Q111 -159 109 -155Q107 -155 105 -150Q100 -144 98 -144H97H96Q96 -140 87 -134L84 -133Q84 -131 79 -129L69 -121Q68 -121 68 -122Q68 -124 77 -130Q99 -160 101 -171L100 -172L101 -178L100 -180Q104 -182 107 -185ZM136 -106H143L145 -104V-103Q143 -98 138 -98L132 -95H129H127Q124 -95 120 -101Q120 -103 127 -103Q127 -104 135 -105ZM152 -95H154V-94Q154 -90 148 -89H147Q145 -89 145 -86Q143 -86 138 -81Q136 -81 136 -80L128 -76Q127 -73 126 -73Q123 -73 116 -81Q116 -82 124 -84H125Q127 -86 132 -86H133Q135 -88 149 -93ZM156 -84H157L161 -80H163Q163 -78 170 -77Q171 -75 172 -74Q174 -76 181 -79L183 -80H184Q186 -80 191 -76Q193 -76 196 -72V-68Q196 -65 190 -63Q190 -60 181 -52V-51Q185 -50 185 -49V-48Q185 -45 174 -44L172 -42L168 -43V-37V-24V-22Q173 -22 178 -24Q181 -24 181 -25Q179 -25 176 -35L177 -36Q198 -29 201 -23H202L201 -21L202 -18V-15L203 -9Q202 -1 199 2L197 3H194Q190 1 184 -18L183 -19V-21H182V-22Q173 -18 168 -12L146 2Q145 4 143 4L133 -9V-10L141 -13H143Q143 -15 148 -15Q150 -17 157 -19L158 -24V-29V-33V-34V-36L157 -39Q154 -38 152 -37L150 -38Q148 -36 147 -33H145Q140 -36 140 -39Q140 -43 138 -45Q138 -50 136 -55V-59L135 -60H134Q127 -56 119 -45L123 -42V-41Q123 -36 116 -36L114 -37Q106 -35 106 -34V-32Q105 -29 105 -26L106 -25L105 -21V-19L106 -18H107Q114 -20 115 -23Q115 -26 114 -27V-29V-30H115L117 -29L118 -30Q120 -30 127 -26Q132 -26 133 -20V-19Q133 -10 127 -9H124Q121 -10 117 -19H116L104 -11L80 4Q73 11 71 11Q64 4 63 4L59 0Q59 -3 72 -5L83 -9Q88 -13 93 -13L94 -14H96V-16V-22L97 -23L96 -27L97 -29H96V-30L97 -32H96L91 -29H90L88 -30H87Q86 -30 86 -26V-24Q85 -21 82 -20Q79 -20 77 -31Q74 -36 69 -57V-58Q72 -58 77 -54L79 -53Q83 -55 91 -58H92Q92 -59 94 -59H95V-60Q93 -66 90 -72Q91 -76 92 -76H93L96 -74L97 -75Q100 -72 103 -72H105H107L111 -67Q114 -67 122 -72H123Q123 -69 132 -66L140 -62Q143 -63 145 -63H146Q149 -66 157 -69V-72Q154 -79 154 -81Q155 -84 156 -84ZM170 -65V-63Q170 -53 169 -53L170 -49Q177 -50 177 -58L178 -59V-60L177 -62L178 -68H177L170 -66ZM146 -59L145 -60H144V-58H145Q149 -58 149 -55V-53V-50Q150 -50 150 -45V-44H151Q156 -44 158 -49V-50V-53L157 -54L158 -56V-58L159 -59L157 -64L150 -60ZM109 -59H107H106V-58L107 -54L105 -53V-52L106 -50V-44Q106 -41 109 -41Q109 -42 112 -43L115 -51V-54V-57V-58V-60V-62H114Q111 -59 109 -59ZM88 -51H86L83 -50L81 -51L79 -49H80H84Q86 -47 86 -45V-34H87Q92 -36 96 -38V-44Q95 -45 95 -50L96 -55Q92 -54 90 -51Z"/>
</svg>