<svg xmlns="http://www.w3.org/2000/svg" viewBox="0 -256 256 256">
	<path fill="#000000" d="M90 -193Q98 -188 102 -188Q108 -186 108 -181L110 -180V-179Q110 -178 108 -177V-176H111L113 -179H115L116 -178Q116 -180 121 -180L123 -182Q125 -182 128 -176H129V-174Q129 -171 113 -167H110L107 -164L105 -155Q106 -153 107 -153Q108 -154 112 -155L124 -162Q127 -159 131 -159Q135 -158 136 -156Q141 -154 141 -150L142 -149Q142 -147 138 -140L134 -130V-128L132 -125V-123V-122L130 -117Q129 -117 126 -109Q123 -108 123 -104Q120 -101 116 -98L115 -97H114L113 -98L111 -95H109Q108 -95 108 -97L109 -101V-102L108 -103Q101 -100 101 -99V-98V-96Q100 -95 100 -90V-86H102L113 -90H114Q118 -93 124 -93Q124 -94 128 -94H130L131 -95Q138 -93 138 -90Q138 -87 133 -85L131 -86L129 -84Q127 -84 126 -86L117 -84L114 -85L113 -83L111 -84Q108 -82 104 -81L101 -80H99V-79L100 -76V-74L99 -72V-68V-65V-64H100Q103 -64 108 -66Q110 -66 112 -68H113Q114 -68 114 -66Q114 -63 109 -63Q109 -62 105 -62Q104 -60 100 -60Q99 -58 95 -58L75 -48Q70 -43 63 -39H61Q57 -41 57 -48Q63 -54 63 -55Q65 -62 65 -66V-67L63 -68L53 -62Q50 -62 44 -58L41 -56Q33 -62 27 -62V-63V-64Q27 -66 36 -66H37L57 -73Q60 -74 62 -75H63Q67 -75 73 -77L83 -81Q89 -81 89 -82L88 -86L89 -89L88 -93V-95H86L78 -91Q77 -84 73 -84L69 -90Q68 -90 68 -94Q67 -94 66 -98Q62 -105 62 -113Q61 -113 61 -117Q59 -117 59 -122Q56 -124 56 -129Q55 -129 54 -135Q53 -135 52 -142Q53 -144 56 -144Q61 -139 65 -139H67L70 -140H72L87 -145L88 -148L87 -151L88 -153V-154Q83 -154 80 -161Q77 -162 75 -162L73 -164V-165L75 -167L77 -166Q81 -169 87 -169Q87 -174 88 -176L87 -178V-181L83 -185V-186Q87 -193 90 -193ZM189 -188L191 -184Q200 -180 200 -178L202 -176Q202 -171 195 -164Q194 -158 190 -156L189 -153L200 -155H201Q207 -153 209 -152L210 -151V-148Q210 -144 195 -140Q194 -139 184 -138Q178 -140 176 -145V-146Q177 -167 179 -172V-173L170 -169Q167 -169 164 -166Q166 -164 166 -162Q164 -161 164 -156Q162 -153 160 -146Q157 -137 153 -134Q153 -131 145 -125H144L143 -126V-127Q149 -136 150 -146L149 -147L151 -149L149 -152L151 -158Q150 -160 150 -163V-164V-166Q149 -166 149 -170Q148 -170 147 -174L150 -176H152L158 -171H159Q160 -172 163 -172L178 -181ZM103 -142L104 -139V-138Q103 -136 103 -135V-132L104 -131Q108 -133 110 -133H115L116 -143H115V-144L116 -145V-147L115 -148Q112 -145 103 -143ZM73 -127L76 -123L75 -119L86 -124Q87 -124 87 -125V-126V-129V-130V-134V-135L86 -136Q85 -135 82 -135Q79 -132 73 -130ZM186 -137Q198 -130 198 -125Q194 -121 190 -114Q189 -114 187 -108L184 -104V-103Q184 -102 188 -101L193 -102L196 -101H198L212 -98H214Q215 -98 223 -94Q229 -90 229 -84Q229 -77 221 -75Q214 -77 214 -78H212L210 -80V-79H208L203 -82H202Q198 -84 184 -88Q184 -89 178 -90Q176 -92 174 -92L162 -82Q161 -82 152 -76Q141 -74 137 -71L133 -70Q133 -73 140 -76Q145 -79 153 -87Q155 -87 161 -94V-95L149 -98H145Q141 -99 140 -102V-103V-104H152L160 -102Q167 -102 167 -108Q170 -111 172 -117L171 -119Q166 -116 163 -116H162Q162 -115 152 -112Q150 -112 146 -116Q143 -116 141 -119Q141 -120 148 -121Q148 -122 153 -122Q153 -124 167 -126Q167 -127 175 -130Q175 -131 186 -137ZM101 -120V-119L102 -116L101 -112V-110L104 -108Q111 -109 111 -114Q111 -117 113 -120L112 -122Q113 -124 113 -126V-128Q107 -125 105 -125ZM81 -113L77 -115L78 -100H79Q81 -102 87 -104L88 -108L87 -109L88 -115L86 -116Q84 -113 81 -113ZM109 -81H111L113 -79L114 -80H115Q116 -79 121 -77Q129 -71 129 -69L130 -67L129 -64H131H134L144 -60Q147 -60 149 -59Q156 -62 167 -65L172 -68Q177 -64 187 -61L188 -56V-55Q188 -52 180 -44Q179 -42 174 -38V-36Q176 -36 176 -35V-33Q175 -32 172 -30L169 -31Q159 -30 156 -28H155H153Q146 -28 146 -18L145 -9V-8H147L159 -10Q159 -11 166 -11L171 -13V-14L167 -24Q167 -25 169 -25Q177 -25 183 -18Q193 -6 193 3Q190 12 183 12Q177 8 177 2L172 -10Q144 -4 131 2Q125 3 125 4Q121 4 112 9Q108 12 104 13L99 14Q98 15 96 15L95 17H93Q89 14 88 10Q86 10 85 6Q83 6 81 3Q81 2 90 0L91 1L94 0H99L110 -3L116 -2Q130 -5 131 -7L133 -12L132 -14V-15V-20V-22L122 -20H120Q120 -18 113 -16Q106 -18 106 -30Q104 -37 99 -48Q100 -51 101 -51H103L108 -46Q115 -49 121 -50L126 -52Q126 -53 131 -53V-54Q130 -59 128 -59H127Q127 -57 124 -54H123Q117 -57 117 -60Q117 -63 113 -76L108 -80ZM79 -72L77 -73Q70 -71 70 -70Q70 -69 77 -64V-62Q75 -60 75 -59L77 -58Q80 -58 83 -60L84 -59Q89 -60 89 -61V-65V-77H86Q85 -74 81 -74Q81 -73 79 -72ZM153 -52H151L149 -53L148 -52L149 -50V-49Q148 -49 147 -35L148 -34H150Q151 -36 157 -36Q162 -36 164 -53V-54ZM126 -45H123Q123 -44 117 -42Q116 -41 115 -35L116 -31L115 -27H120Q121 -28 130 -30Q130 -31 132 -31V-34L133 -40L132 -42L133 -46V-47H132Q127 -46 126 -45Z"/>
</svg>