<svg xmlns="http://www.w3.org/2000/svg" viewBox="0 -256 256 256">
	<path fill="#000000" d="M170 -192L176 -189Q181 -189 184 -184V-183Q184 -181 180 -174L179 -170H182Q183 -171 191 -172Q191 -173 194 -174H195Q201 -172 201 -168V-166Q194 -159 188 -159L187 -158H184Q175 -158 170 -152Q170 -150 166 -144L167 -140Q169 -142 179 -143Q183 -145 187 -145Q189 -144 195 -142Q199 -136 199 -134L191 -123Q191 -121 186 -116Q186 -113 180 -107Q180 -106 169 -98L167 -96L166 -98V-99Q166 -101 167 -103V-105Q168 -105 170 -113V-115Q172 -118 174 -130L176 -133V-134Q175 -135 173 -136L161 -133Q161 -132 158 -132L157 -131L161 -127V-126Q155 -117 155 -115V-114L160 -116H161L163 -115L165 -116L166 -114Q166 -110 156 -108L149 -106L147 -107L145 -105Q148 -103 153 -101Q155 -99 159 -91L160 -90Q180 -95 186 -97Q191 -96 191 -95V-94Q187 -90 187 -89V-88H186L179 -89Q178 -87 169 -86Q169 -85 163 -85Q161 -83 161 -81V-80Q166 -59 170 -59Q176 -68 176 -76L179 -77Q180 -77 184 -72Q189 -68 192 -68L193 -64Q193 -62 188 -58Q188 -57 177 -45H176V-44Q178 -44 181 -38Q184 -34 188 -31Q188 -28 199 -19Q208 -11 213 -9L214 -8H215Q215 -9 220 -19Q221 -19 221 -18V-7V-5Q221 0 225 7V9Q225 13 219 17H216Q214 17 210 13Q206 13 195 0Q192 -1 189 -7Q186 -9 183 -14Q174 -26 173 -31Q170 -35 170 -38H169Q168 -38 161 -30Q155 -27 145 -19L132 -12L127 -9H125L124 -10Q124 -12 132 -16L143 -25Q146 -25 157 -40Q157 -41 163 -48V-49Q159 -61 155 -70Q155 -72 151 -79H148Q147 -79 145 -78H144Q138 -78 134 -76Q127 -72 127 -69V-68Q125 -66 125 -59L121 -43L116 -30V-28Q116 -27 113 -26Q105 -14 93 -6Q83 0 83 1Q81 4 79 4L78 2V1Q78 0 91 -9Q104 -20 104 -25Q106 -27 109 -37Q110 -37 110 -45Q111 -45 111 -50L112 -52Q112 -56 111 -57L112 -60V-62Q113 -63 113 -65Q112 -67 111 -71L113 -73Q111 -79 109 -79L108 -81Q110 -86 114 -86Q115 -86 120 -82L126 -79Q130 -82 134 -82Q134 -83 137 -84L139 -83L147 -87L148 -88Q146 -92 146 -94V-97Q146 -99 144 -101V-103V-104H142L132 -100Q130 -102 129 -102H127L126 -101V-98Q126 -94 122 -91Q119 -92 119 -95Q117 -96 115 -102L116 -105Q114 -110 114 -113V-114V-115L112 -118V-122L111 -126H109Q108 -124 106 -124L101 -118L94 -109H93V-108L97 -105Q97 -101 89 -100V-99L87 -100L85 -99H83L73 -95V-90Q73 -87 71 -86L72 -84L70 -71Q69 -71 69 -68H70Q74 -68 87 -77L86 -78V-81Q86 -85 84 -90L85 -91H86Q89 -91 96 -85Q101 -79 102 -75L103 -73V-63Q100 -58 96 -58Q91 -58 90 -63Q89 -63 89 -66Q88 -66 87 -73Q80 -68 76 -62L54 -39Q49 -33 47 -33H46Q40 -33 30 -48V-49Q39 -54 48 -56Q48 -57 53 -58Q53 -59 57 -60L61 -62L63 -74V-80V-82V-84V-90Q63 -92 62 -92Q53 -90 53 -85Q53 -82 50 -80H49Q44 -85 42 -93V-95V-97Q40 -99 37 -115Q35 -124 33 -125V-126L34 -127H35L41 -122Q45 -125 54 -128Q59 -131 63 -131L64 -134V-135L63 -140L65 -144L63 -151H61Q59 -151 59 -153Q60 -160 65 -160H67Q74 -156 77 -156Q82 -154 82 -149Q79 -141 78 -137L80 -136Q83 -138 98 -143Q107 -136 109 -136Q111 -135 112 -131L111 -129Q114 -129 114 -127H116Q118 -129 123 -129Q123 -130 130 -131L131 -132H134Q133 -148 131 -148Q129 -148 120 -141Q116 -144 116 -146Q112 -147 111 -150V-151H116Q124 -153 126 -154H127L129 -153L130 -154Q129 -156 129 -159V-161Q127 -163 126 -169Q125 -173 121 -177V-178L125 -181H127Q131 -177 140 -174Q141 -174 143 -171V-170V-168V-166V-157V-153V-149V-145V-144L142 -135L143 -134L154 -138Q156 -138 158 -149L161 -165Q164 -172 165 -185L164 -188Q164 -190 170 -192ZM75 -113V-110L74 -107L76 -106Q84 -106 86 -118L88 -130V-131H87Q84 -129 77 -127Q75 -125 75 -113ZM137 -125Q137 -124 143 -120L142 -118Q142 -110 144 -110Q147 -112 147 -113V-114Q147 -118 149 -122Q148 -129 147 -129Q140 -126 137 -126ZM125 -122L126 -118L125 -116L126 -113V-107L127 -106H129Q130 -108 134 -108L135 -109L134 -113L135 -114Q135 -120 132 -124Q126 -122 125 -122ZM51 -116Q54 -114 54 -113L52 -101L53 -99H57L63 -101Q63 -105 64 -107V-108L65 -111L64 -112L65 -116V-121L64 -123H65H64Q53 -118 52 -117ZM193 -104Q206 -104 209 -95Q210 -95 210 -93V-91Q207 -87 204 -85Q199 -85 195 -96L193 -100L191 -103Q191 -104 193 -104ZM128 -63H129Q150 -59 150 -50V-49Q150 -45 142 -42H141L138 -46Q135 -48 134 -54Q128 -59 127 -60V-62Z"/>
</svg>