<svg xmlns="http://www.w3.org/2000/svg" viewBox="0 -256 256 256">
	<path fill="#000000" d="M124 -193Q126 -193 133 -189L142 -184L145 -182V-176H146Q148 -177 154 -178L164 -187H165H166Q173 -181 182 -176V-173Q182 -171 173 -164Q173 -162 167 -157L165 -153H166L169 -154H177L180 -157L182 -156H183Q187 -158 201 -160H203L216 -154L217 -149Q217 -146 208 -144Q200 -145 200 -146Q198 -145 195 -145H191L181 -146L179 -145H178H175H174H173H170H167Q159 -144 158 -144H155L153 -143L148 -144Q145 -142 142 -142L141 -143V-138H140L141 -136Q139 -134 139 -130H140Q144 -132 149 -132H151L153 -134H155H160H161Q163 -132 164 -132Q168 -128 168 -127Q164 -125 160 -124L154 -125L153 -124L152 -125Q145 -123 138 -122L139 -119L138 -117V-115L139 -114H140Q141 -115 146 -116Q146 -117 154 -117Q154 -118 159 -119L163 -120Q163 -121 164 -121Q166 -118 168 -118L170 -119Q175 -116 175 -114Q175 -111 170 -110L166 -111Q166 -110 164 -110L157 -111V-112L155 -110L151 -111L148 -109L146 -110L140 -108Q137 -108 137 -106Q137 -104 136 -103V-102L137 -101L136 -99L137 -95Q136 -95 135 -87L136 -85Q135 -77 134 -76L135 -75L134 -73V-70H133L134 -67Q134 -59 125 -50Q125 -49 128 -49L129 -50Q130 -48 130 -46Q128 -43 125 -43Q125 -42 121 -41Q120 -38 119 -38V-37L120 -36H122Q123 -38 133 -41Q139 -44 147 -44Q153 -48 162 -49Q162 -50 168 -50Q168 -51 171 -52Q180 -44 183 -44L184 -43V-40L178 -30L170 -18Q169 -18 167 -12V-11H168L170 -12H171H176H179L182 -13H183L187 -14H189H195Q195 -13 207 -7L208 -3V-2Q208 3 204 3H200Q199 2 183 -3L180 -2H166L164 -3L163 -2H158L133 0L130 -1Q126 1 111 3L108 5H107V4L106 5H104Q99 5 79 13Q75 17 68 17Q68 16 60 10L58 8Q58 7 66 5H67H69L95 0H97L98 -2Q95 -23 88 -34V-38L89 -39Q99 -36 104 -33H105Q113 -41 113 -45Q114 -45 115 -50V-53Q116 -55 118 -56L121 -54H123Q123 -56 124 -56L123 -68V-70V-93L122 -97L123 -99L122 -101L123 -102V-104L114 -100H112L110 -101Q108 -99 99 -96H98L97 -97L95 -96H92L88 -99V-100Q88 -102 101 -104Q102 -105 115 -108Q115 -109 121 -110Q124 -112 124 -114V-116V-118L122 -119Q122 -117 115 -116Q115 -115 112 -115L110 -116Q108 -113 105 -113Q103 -116 97 -117V-120L99 -121H100Q111 -123 125 -127L124 -131V-132V-140L114 -137Q109 -137 101 -135H97Q96 -133 90 -133Q90 -132 83 -131Q83 -130 72 -127Q62 -126 61 -124Q57 -124 53 -120H52Q49 -120 42 -127Q38 -128 38 -129Q38 -131 65 -135L83 -140L97 -142H98L102 -144L105 -143L111 -145L114 -144L125 -148L124 -150V-158L110 -154H109L98 -165Q98 -167 115 -169Q124 -171 124 -173Q124 -176 117 -187Q119 -193 124 -193ZM142 -157L143 -155L141 -149H142L147 -151H149L151 -150L154 -152V-156Q155 -158 155 -168H154Q152 -167 149 -167Q149 -166 143 -165ZM184 -108Q194 -106 194 -104V-103L190 -100Q182 -100 166 -98H164H163V-97L165 -95V-92Q164 -89 158 -88V-86H160Q176 -93 182 -93Q184 -91 191 -86H192V-83Q190 -79 186 -65Q185 -53 175 -53Q173 -55 173 -57V-58L170 -59H169L160 -57H155L153 -52L150 -49Q146 -51 146 -55V-62V-64L145 -65L146 -67V-68Q145 -69 145 -71V-77Q143 -77 143 -78V-79Q143 -80 144 -80V-81Q143 -81 141 -84V-85L143 -86Q147 -85 150 -82H151Q153 -85 155 -96H153Q151 -94 147 -93H146H145Q141 -95 140 -95Q140 -97 151 -99H152Q153 -99 156 -105H157Q159 -102 160 -102L172 -104H174Q174 -105 182 -107ZM107 -95Q114 -94 114 -93Q114 -89 106 -89Q105 -89 102 -86H97Q95 -84 95 -82L98 -78H100L106 -82Q110 -81 110 -79H112Q117 -75 117 -74V-71Q116 -69 115 -68V-67Q112 -60 111 -48L106 -43H104Q103 -44 103 -46V-48H100H99Q95 -47 93 -45H88V-44Q88 -41 84 -38H83Q80 -41 77 -62Q75 -62 74 -68V-69V-70H77L80 -67Q80 -69 86 -71V-74L87 -79H86H85Q83 -79 79 -76Q69 -74 69 -72Q64 -75 60 -76V-77Q60 -79 67 -80Q67 -81 70 -81Q75 -83 77 -83Q81 -87 92 -89Q92 -90 95 -90L96 -91L97 -93L98 -92Q101 -93 102 -95L104 -94ZM160 -81H158H157L154 -80L153 -81Q155 -78 155 -77V-73L165 -77L169 -78Q172 -78 172 -75Q172 -73 170 -72H165Q161 -72 158 -70L155 -69L154 -70V-69L155 -68V-63V-62Q155 -61 157 -61H158Q158 -63 165 -63L167 -64L172 -62H173L174 -67V-68L175 -76L174 -82L176 -85L175 -86H174Q173 -84 168 -84Q168 -83 161 -82ZM84 -64Q84 -62 86 -61Q93 -65 95 -65Q100 -64 100 -63Q100 -60 94 -60Q94 -59 89 -58Q86 -56 86 -54Q87 -49 88 -49H89Q90 -49 97 -54L101 -52V-57L102 -58V-60L103 -63L102 -67V-70V-71V-73Q84 -68 84 -65ZM157 -40L155 -41Q144 -38 144 -37Q147 -36 147 -34Q151 -34 154 -30V-29L150 -24L151 -22L148 -21L149 -18Q149 -17 147 -17V-14L145 -12V-9L155 -10Q157 -10 162 -37L161 -42H160Q159 -40 157 -40ZM123 -32Q123 -33 117 -35V-36H115L112 -34Q108 -30 106 -30V-29L108 -27V-23L109 -9V-4L110 -3Q114 -5 115 -6Q118 -6 119 -8L118 -16L119 -18L116 -29Q117 -32 118 -32Q120 -32 123 -28Q124 -28 127 -25Q129 -25 129 -18L128 -17L129 -14L128 -11V-9L129 -6Q135 -6 137 -15Q138 -33 139 -33L138 -36Q141 -37 142 -37V-38Q140 -36 128 -34Q128 -33 123 -32Z"/>
</svg>