<svg xmlns="http://www.w3.org/2000/svg" viewBox="0 -256 256 256">
	<path fill="#000000" d="M72 -185H75Q76 -185 77 -181Q80 -181 83 -177Q87 -177 92 -172Q95 -168 95 -165Q95 -161 91 -158L84 -141Q82 -132 80 -127Q80 -124 73 -108Q77 -112 82 -112Q82 -113 92 -113L90 -115V-126Q93 -129 94 -129Q97 -129 103 -124Q106 -124 112 -120Q114 -120 114 -117V-111Q107 -105 100 -90L95 -82Q94 -82 93 -76Q92 -76 89 -71Q87 -71 87 -68L85 -67Q93 -63 97 -59Q98 -59 102 -52Q105 -49 105 -45V-41L104 -38V-37Q106 -38 106 -40Q108 -43 110 -49Q111 -49 115 -58Q116 -58 116 -59Q120 -65 120 -69Q122 -72 125 -86Q126 -86 128 -93Q130 -93 130 -103Q131 -103 132 -107Q133 -107 135 -118V-122Q135 -123 132 -129Q133 -132 139 -136H140Q142 -134 144 -134Q145 -130 149 -130L156 -125H157L171 -131Q171 -132 174 -133H175Q176 -133 179 -135Q188 -137 188 -142Q189 -142 189 -147L192 -151L191 -154V-158L192 -164H191Q186 -161 181 -159Q177 -157 168 -153H166Q166 -151 158 -149Q148 -143 146 -143L140 -151Q137 -153 133 -158V-159L134 -161H137L152 -164L154 -166Q156 -166 156 -164H157Q157 -166 162 -166L165 -167Q172 -168 180 -171Q184 -171 200 -178H206L219 -175H222Q225 -172 225 -168V-164Q225 -160 215 -157Q215 -156 206 -145L202 -140L208 -135V-133Q206 -126 202 -126H201H200H197H193Q192 -124 187 -124Q187 -123 175 -120Q172 -118 162 -116Q161 -113 156 -113L154 -112L152 -113L151 -110V-106Q151 -103 148 -100Q148 -93 141 -87V-86V-85Q139 -74 134 -67L127 -54L119 -43Q118 -43 109 -28Q107 -28 100 -19Q90 -13 88 -11Q87 -11 82 -6Q79 -5 76 -2H75L74 -3Q87 -14 93 -21Q100 -30 100 -32Q94 -32 87 -41L74 -52H73Q64 -41 58 -38Q57 -36 52 -33Q52 -32 44 -29Q41 -27 26 -21Q22 -18 20 -18H17L16 -20Q16 -21 19 -21L31 -26Q41 -33 46 -38Q47 -40 50 -41L60 -53Q60 -55 64 -59V-60Q64 -61 57 -65Q53 -69 46 -72L47 -76L46 -77V-78Q48 -80 48 -82L54 -94H53Q52 -94 46 -90L45 -91Q45 -90 39 -88H37Q37 -86 34 -86Q34 -84 28 -82Q24 -78 21 -78Q18 -79 14 -86Q13 -86 13 -87Q12 -90 9 -91V-92Q8 -92 8 -93Q11 -96 20 -96Q22 -99 27 -99H28H29Q31 -100 36 -100H37Q39 -102 44 -102Q47 -103 54 -104L55 -105H56H58Q58 -108 60 -110V-115L62 -117V-121V-123Q64 -126 66 -133L67 -135Q66 -137 66 -138Q68 -146 68 -152V-155Q69 -156 69 -158V-160L68 -163H69V-164Q67 -172 63 -172L62 -174V-176L67 -182Q65 -182 65 -183L67 -184L68 -182Q69 -182 72 -185ZM184 -119H185Q186 -119 195 -113Q202 -113 205 -106Q205 -101 202 -99H198H194H192H191L189 -98H186Q182 -97 177 -96H175V-94L178 -92V-87V-86L177 -85L178 -83Q183 -84 188 -87H191Q196 -85 196 -81Q196 -77 189 -77Q189 -76 184 -75Q184 -74 180 -74L178 -72H175L173 -70V-69Q175 -69 175 -68L173 -65L174 -62L173 -58V-56H174Q192 -65 195 -65Q203 -63 203 -59Q200 -51 191 -51L190 -50H185Q184 -49 179 -48L178 -49Q177 -47 174 -45H171L172 -42L171 -40Q171 -23 176 -18Q180 -10 189 -10L190 -11L192 -10H194L205 -9L208 -10L224 -13Q224 -14 229 -15Q229 -16 233 -23L238 -36V-37Q239 -37 239 -36V-25Q240 -22 240 -18Q241 -18 243 -12L247 -9V-5Q244 4 240 4Q236 7 223 9H217H197Q197 8 192 8Q183 4 178 4Q164 -4 164 -11Q162 -12 161 -22L160 -23V-24V-30V-36V-40L161 -41Q156 -41 152 -37Q148 -36 137 -28H134L132 -32Q130 -32 127 -36Q127 -41 134 -41Q134 -42 140 -42Q141 -44 147 -45Q147 -47 152 -47Q157 -51 161 -51V-54L162 -64H161L154 -61Q150 -61 145 -66Q143 -66 143 -67V-68Q143 -69 153 -72Q153 -73 161 -74L162 -75H163L164 -77L163 -80L164 -84V-88L165 -89V-90L154 -86Q151 -86 149 -85L142 -83V-84Q142 -88 152 -91Q154 -92 156 -95Q165 -99 176 -108Q179 -109 182 -115L181 -117ZM86 -107Q86 -105 81 -105Q80 -104 75 -102Q71 -99 67 -99Q67 -95 65 -94Q65 -92 61 -88Q61 -83 58 -81Q57 -80 57 -77Q60 -76 66 -75Q66 -74 73 -73L78 -82Q79 -82 80 -86Q83 -88 83 -93Q85 -96 85 -101L88 -105V-107Z"/>
</svg>