<svg xmlns="http://www.w3.org/2000/svg" viewBox="0 -256 256 256">
	<path fill="#000000" d="M156 -193Q159 -193 161 -189L171 -184Q176 -182 179 -177V-176Q177 -167 174 -167V-165V-163H175Q178 -166 186 -167Q195 -166 195 -162L196 -161Q196 -157 192 -155Q190 -152 177 -150L175 -149H174H173H172L173 -146Q172 -146 172 -135Q173 -135 178 -138H180Q184 -135 187 -132V-130Q185 -124 176 -124Q176 -123 169 -122V-121Q170 -121 170 -120Q168 -111 168 -109V-108L178 -111Q178 -113 195 -114Q195 -115 200 -116Q215 -113 215 -109V-107Q215 -103 209 -103Q209 -102 208 -102L206 -103L201 -102L197 -104H196H195H193H192Q188 -104 185 -102L183 -103H177V-104L170 -101L169 -102Q165 -102 164 -96L159 -92H157L156 -94L154 -93Q153 -93 152 -96Q151 -98 150 -98H149Q147 -96 140 -95Q138 -92 133 -92Q129 -90 125 -90Q125 -88 118 -86Q115 -88 115 -91Q111 -93 111 -96V-97Q111 -98 115 -99L132 -103H133H137L144 -104H146L151 -106V-109V-114H149Q148 -113 143 -113V-112H142L141 -113Q140 -109 139 -109H138Q130 -116 130 -117Q130 -120 139 -122L144 -124Q144 -125 152 -127V-128L151 -130V-133L152 -139H149Q142 -135 139 -135Q136 -135 132 -139Q124 -143 124 -147Q134 -149 152 -156V-157V-161V-166Q151 -177 149 -179Q145 -181 144 -184Q144 -188 156 -192ZM67 -186H70Q71 -185 76 -185V-184H79Q80 -183 89 -182L90 -183Q90 -180 93 -180Q95 -177 97 -172Q97 -166 91 -162V-161Q85 -161 82 -165L75 -170Q74 -170 73 -172Q71 -172 69 -178Q67 -178 66 -180L62 -183Q62 -185 65 -185ZM92 -149H97L100 -145Q102 -145 103 -142Q108 -142 108 -135Q109 -135 109 -132Q107 -129 105 -129L100 -124Q100 -122 94 -119Q94 -118 89 -113Q88 -112 84 -109Q84 -107 81 -106L76 -101V-99L78 -98Q79 -100 83 -100L90 -99L94 -100Q94 -99 96 -99L98 -100H99Q102 -97 107 -96V-95V-93L108 -92V-89L106 -85L102 -83H101Q100 -84 97 -85Q97 -87 92 -88Q90 -91 83 -92L81 -95H80V-92Q79 -90 78 -86V-79L77 -77L80 -75H81L82 -76H83L84 -74H85V-75H86L93 -73V-72H95Q105 -72 105 -66V-60Q104 -56 100 -56L98 -58Q96 -58 93 -61Q91 -61 89 -63Q85 -64 80 -69L79 -70Q78 -70 78 -69V-68V-66V-60Q78 -57 76 -55L78 -52V-51L77 -50L78 -47V-41L79 -39L78 -36V-34L79 -30L78 -27V-26L79 -19L78 -17L79 -14Q75 1 73 1L72 3Q84 -6 99 -22Q106 -28 110 -37Q111 -37 120 -51Q122 -51 123 -56Q128 -60 128 -63Q132 -68 134 -73Q135 -73 136 -77L139 -80L138 -81Q138 -82 140 -82L141 -83L140 -84V-86L141 -87L140 -88V-89Q140 -90 143 -90Q146 -88 149 -88L150 -86L152 -87Q153 -86 153 -83L156 -84Q158 -81 158 -80V-79Q156 -77 150 -73L151 -72Q148 -70 148 -68L142 -63L143 -62Q144 -62 144 -59Q148 -59 148 -55V-54L147 -53L148 -50L147 -48V-45V-44L146 -31V-28L145 -26L146 -23Q145 -21 143 -19L145 -18V-17L146 -14Q152 -17 156 -20Q167 -28 171 -35L172 -36H173H174L170 -43Q168 -43 167 -48H166Q165 -46 159 -43Q153 -38 152 -38L151 -39V-40Q151 -41 153 -41Q153 -42 163 -52Q163 -56 154 -66V-68L155 -69H156H159L162 -65L164 -66Q165 -64 166 -64H170Q174 -66 174 -69Q176 -69 179 -75Q180 -75 181 -80L184 -85L182 -91Q185 -95 189 -95L196 -90H197L198 -91Q204 -88 204 -83Q204 -81 199 -78Q193 -76 191 -74Q187 -70 177 -58H175V-56Q176 -56 182 -50Q188 -45 201 -38H202Q202 -36 206 -36Q208 -32 216 -30Q218 -30 218 -28H220L228 -23Q231 -22 236 -18L238 -19Q243 -15 245 -15Q245 -14 246 -14H248Q251 -12 252 -12Q252 -10 242 -9L241 -8H238Q230 -7 228 -5Q226 -5 223 -3L219 -2Q217 -2 214 -5Q210 -5 208 -9Q206 -9 204 -12Q201 -12 198 -16Q197 -16 188 -24Q186 -24 180 -31L177 -32H176Q165 -22 162 -18Q152 -1 143 9Q141 13 137 17H135Q129 11 129 9Q129 6 127 4Q127 3 131 -2Q133 -5 135 -14L134 -17Q136 -17 136 -33V-35L137 -39V-40V-42V-43V-48V-49L138 -51L137 -54V-56Q134 -55 134 -53L125 -42L116 -34Q116 -32 113 -31Q113 -29 110 -27Q110 -25 93 -10L82 -1Q70 9 64 11L63 10V9L70 5V4Q66 4 65 -4Q64 -12 62 -12L60 -14V-15L62 -21L63 -27L62 -30V-33L63 -36L62 -37Q64 -40 64 -43Q62 -44 62 -46V-50L64 -53L63 -59L64 -61L62 -66V-71V-73V-74V-81V-86L55 -77Q48 -72 48 -71Q40 -62 38 -60Q31 -53 24 -48Q18 -41 5 -33H4Q3 -33 3 -35Q6 -39 14 -44Q28 -55 32 -62Q34 -62 39 -70Q44 -73 44 -77Q45 -77 47 -81Q50 -81 50 -82L49 -84Q55 -89 56 -93Q62 -102 64 -104Q64 -105 66 -107Q66 -109 69 -112Q69 -116 73 -118L74 -120L73 -121L76 -125H73Q71 -122 67 -122L65 -120H64Q62 -118 61 -118H60Q60 -116 54 -116L53 -115Q53 -114 50 -114Q49 -111 44 -108Q44 -107 37 -105Q34 -106 34 -108H31Q26 -113 17 -117V-119V-120Q17 -121 26 -123L27 -122Q33 -123 36 -125V-124H37L39 -126L41 -125Q43 -126 44 -126H49Q55 -129 57 -129H60L61 -130H64Q71 -131 73 -134L75 -133Q77 -133 83 -141Q87 -146 92 -149Z"/>
</svg>