<svg xmlns="http://www.w3.org/2000/svg" viewBox="0 -256 256 256">
	<path fill="#000000" d="M147 -202H148Q154 -196 160 -195L165 -192H166V-191L165 -186Q175 -189 175 -191Q177 -191 183 -196H184Q185 -195 187 -192Q189 -192 190 -190L193 -191Q193 -190 197 -186V-185Q195 -181 192 -181L188 -180H187Q187 -176 179 -173Q179 -172 174 -169Q172 -167 166 -164Q166 -162 162 -161Q162 -159 155 -155L157 -154H158Q161 -157 164 -157H166Q169 -158 174 -159Q174 -160 180 -161L182 -162H183H185Q187 -163 194 -166L196 -167H197Q198 -167 198 -165Q199 -165 202 -162Q207 -162 209 -157V-155Q209 -151 203 -148Q203 -147 201 -145Q201 -144 193 -133Q187 -129 184 -129L183 -128H182Q181 -128 181 -129Q181 -132 183 -135V-138Q187 -148 187 -150Q187 -152 189 -158V-159V-160Q186 -158 183 -158Q183 -156 176 -155V-156Q163 -152 161 -152L165 -146Q165 -145 162 -144L161 -143Q161 -141 163 -141L166 -142L175 -138L176 -134V-133Q173 -130 170 -130Q167 -130 165 -133Q163 -133 159 -140V-142H158Q155 -136 152 -136Q152 -135 149 -134Q149 -132 145 -131Q140 -126 138 -126H137V-127Q144 -134 148 -140Q149 -140 152 -147L153 -148V-150Q148 -147 141 -146Q141 -145 135 -143L133 -140L134 -139L132 -135V-134L134 -130L133 -126H134L133 -124V-119V-117V-115V-114Q135 -114 137 -112H138Q138 -113 142 -113L144 -115H147Q147 -117 153 -117L156 -119H160Q162 -121 172 -124L176 -126H179Q180 -126 180 -122H181Q187 -122 189 -118Q191 -117 191 -116Q190 -113 189 -109L190 -107Q189 -100 189 -99V-97V-96V-90V-87L188 -84L189 -81L187 -76L188 -74Q188 -71 182 -64Q181 -64 177 -60Q172 -61 172 -69V-74V-75Q172 -77 170 -77Q166 -74 155 -72V-71Q155 -70 158 -70L160 -68Q160 -62 159 -60L160 -59Q165 -63 170 -63Q172 -63 174 -59L164 -55L160 -54H158V-53L159 -52V-47L160 -46H161L166 -50H167L170 -49L177 -55Q179 -55 183 -50Q184 -50 187 -46V-44Q180 -37 179 -36Q170 -24 169 -24Q169 -23 166 -21V-20Q171 -20 174 -15Q176 -15 186 -9L192 -5Q195 -5 204 -2Q204 -1 214 1Q214 3 221 3Q221 5 233 7Q233 9 237 9Q237 10 243 11V12Q243 13 224 17Q218 20 209 23Q207 26 203 26Q202 25 194 20Q187 16 187 14Q183 13 180 11Q179 11 177 9Q173 9 173 6Q166 4 154 -9L138 0L118 9L108 13L107 12Q107 11 111 10Q111 8 114 8Q114 7 122 4Q134 -2 145 -10L149 -14Q146 -18 146 -19H144Q143 -19 142 -23Q140 -27 138 -27Q137 -28 130 -35V-36Q130 -38 147 -43Q150 -44 150 -45L149 -46L150 -49L149 -52L150 -54L149 -62H150H149V-63L150 -66L146 -69H145Q143 -68 141 -68V-67L142 -63Q141 -62 141 -59L138 -56Q136 -56 135 -60Q133 -61 132 -65L133 -68L132 -70V-75V-77L133 -79V-80L131 -82L132 -89V-90L131 -94L132 -95L131 -105V-107Q131 -109 128 -109Q123 -113 123 -126L124 -127L122 -131V-133Q119 -139 119 -144L117 -150L118 -151H120Q125 -147 129 -147Q135 -150 147 -152Q154 -153 154 -158Q156 -158 164 -170L167 -175L170 -181L164 -180Q162 -180 158 -183Q152 -179 147 -175Q144 -175 143 -171Q133 -167 129 -163L127 -162H126V-163Q139 -176 141 -181Q143 -182 145 -190L146 -194L144 -198V-199ZM63 -192H64Q67 -192 72 -187Q74 -187 78 -180Q81 -180 81 -177L85 -173Q87 -175 96 -178Q99 -180 103 -182L108 -187H110Q112 -182 117 -181L124 -176V-173V-171Q124 -168 118 -165L116 -164H115H113Q113 -162 107 -160Q105 -160 104 -157L101 -154Q97 -154 97 -153Q97 -152 90 -146Q82 -141 80 -137Q78 -136 76 -136Q76 -135 66 -127L65 -125H66H67Q67 -126 76 -129Q76 -131 81 -131Q81 -132 85 -132Q85 -133 98 -140Q105 -136 112 -135L116 -132H117V-131Q117 -127 113 -127L114 -126V-122Q112 -122 111 -100V-99L110 -97Q111 -95 111 -92L110 -88L111 -86L110 -84L111 -81H110L111 -77V-76L110 -73V-71L109 -69L110 -67L109 -65Q110 -65 111 -60Q110 -58 109 -53L111 -51V-50Q109 -48 109 -46V-45L111 -43L109 -37L111 -36L109 -33Q111 -31 111 -29V-28V-26V-24Q111 -22 110 -22L111 -18V-16Q111 -14 108 -11L109 -9Q107 -3 105 0Q105 1 103 2V4L96 11Q91 8 91 7V3Q90 3 89 -6H88V-7Q85 -7 83 -13Q78 -17 74 -18V-19L76 -20Q86 -18 89 -18L90 -16H91V-17H92L91 -20V-23Q91 -36 94 -37V-38Q92 -38 92 -39V-40L93 -42V-45V-47V-50V-60Q93 -63 92 -64Q90 -64 90 -62Q85 -60 81 -57H79L76 -53Q72 -48 68 -48Q68 -45 63 -45Q59 -45 57 -50H56V-47Q54 -36 52 -33Q52 -27 44 -10Q42 -9 38 -1Q30 11 22 18Q18 23 16 23H15V22L26 10Q31 2 36 -12Q37 -12 39 -27Q40 -27 43 -42L42 -45L44 -50H43L45 -64L44 -66L45 -67L44 -69V-73Q43 -73 42 -93L43 -95H42L43 -97L41 -100L42 -103V-106V-108L40 -110V-113Q39 -114 38 -122L36 -123V-124L38 -125H39Q47 -121 47 -120L49 -119Q51 -122 54 -122L59 -123Q59 -124 69 -133Q69 -134 78 -144Q78 -145 82 -150L86 -157L94 -169H93Q91 -169 90 -167H88L87 -168L83 -166Q80 -166 80 -171V-172H79Q79 -168 73 -166Q68 -160 56 -151Q54 -151 47 -145Q46 -145 39 -140L24 -128L17 -124Q16 -124 14 -122L13 -123V-124Q14 -126 22 -131L34 -140Q43 -149 46 -155Q57 -172 59 -180V-182L58 -189Q58 -191 63 -192ZM58 -116V-115Q61 -113 62 -113Q62 -109 60 -106V-103V-98L59 -95H60H62Q63 -97 69 -98L70 -99V-101L71 -107L70 -109V-110L67 -116Q68 -117 70 -117Q73 -117 77 -113Q80 -113 85 -109V-105H89L94 -107L93 -108L94 -113L93 -117L94 -122L93 -126H94V-127L93 -129Q87 -126 72 -122L65 -120Q61 -117 58 -117ZM151 -113H150H149Q149 -111 144 -111Q140 -109 140 -108Q144 -107 144 -106V-101L145 -100H146Q149 -104 161 -106L162 -107Q167 -106 167 -105V-104Q167 -102 158 -101Q158 -99 153 -99L149 -97L146 -98Q145 -95 143 -95L144 -92V-90L145 -88Q151 -90 155 -91Q155 -92 159 -94Q165 -93 165 -92Q165 -89 162 -89H160Q160 -87 150 -86L145 -83H144Q143 -83 141 -80L143 -79V-77L142 -76Q143 -74 144 -74L157 -77V-78H161L172 -81V-85V-86L173 -88L172 -92L173 -94L172 -95V-104V-109V-110V-112V-117H170H168Q163 -117 153 -114ZM80 -88V-87L82 -84V-83Q82 -80 80 -79L81 -76L80 -75V-74L79 -70L80 -69L79 -67V-66L80 -65Q83 -67 88 -67Q88 -68 92 -68L93 -70V-78L94 -88L93 -92V-94L90 -98Q85 -98 81 -88ZM58 -83V-82L59 -81Q58 -71 57 -71L58 -68V-67Q58 -66 57 -66V-64L58 -63V-61L56 -58Q56 -56 58 -56H59Q67 -59 67 -61Q68 -68 69 -81H70L69 -85V-86L68 -87L64 -86L63 -87H61ZM146 -36Q146 -33 152 -32Q154 -28 159 -26Q160 -26 168 -38Q168 -40 172 -43Q171 -43 171 -45H169Q167 -43 162 -43Q160 -40 151 -38L147 -37Z"/>
</svg>