<svg xmlns="http://www.w3.org/2000/svg" viewBox="0 -256 256 256">
	<path fill="#000000" d="M140 -182Q142 -182 151 -177L154 -178Q160 -175 161 -173V-172Q161 -168 152 -161Q151 -157 147 -153L143 -144Q139 -140 139 -139L141 -138L146 -140L152 -141L154 -140L155 -142H158Q160 -142 161 -146Q164 -148 169 -153Q173 -157 175 -157Q187 -149 188 -148L189 -144Q187 -137 183 -137Q183 -135 178 -134Q176 -134 175 -129Q166 -122 163 -116L158 -108Q158 -107 152 -100L151 -99V-98L154 -99Q154 -97 160 -95L170 -88Q171 -85 175 -85Q178 -82 186 -79Q189 -77 200 -72Q204 -69 214 -66Q222 -61 225 -61L245 -55V-54H243H234L227 -51L224 -52Q211 -48 206 -44L203 -43Q200 -43 196 -45Q190 -48 187 -50Q181 -42 178 -32L173 -22V-21Q173 -20 178 -18Q178 -16 181 -16L182 -14Q181 -10 178 -9H163L161 -7L152 -8L145 -6L144 -7Q137 -5 134 -5Q127 -4 127 -2Q127 4 124 5Q122 5 119 -4L120 -6V-10L118 -12Q119 -14 119 -15H120Q118 -18 118 -26L119 -28Q116 -28 116 -34Q115 -34 114 -46Q112 -46 112 -52L114 -54L120 -49H124Q140 -52 149 -55L153 -56Q153 -57 163 -60L164 -62H170L171 -63Q170 -63 155 -76Q153 -76 151 -79Q145 -85 142 -89H140Q140 -86 133 -80Q133 -78 128 -75Q128 -72 118 -64Q117 -62 110 -56L104 -51Q104 -50 101 -50H99Q97 -50 96 -46Q94 -46 87 -35L82 -29V-28L85 -27Q89 -25 90 -23Q90 -19 82 -17Q82 -16 70 -14Q70 -13 65 -11L61 -10Q60 -8 57 -8V-7Q59 -5 59 -3V-2Q59 -1 57 -1V1Q56 7 53 7Q49 7 44 -7Q41 -15 41 -18V-21Q40 -21 39 -27Q36 -31 35 -38Q34 -38 34 -42L32 -44V-47Q33 -49 34 -49Q37 -46 47 -43Q52 -46 56 -47Q56 -48 60 -50H61L71 -56Q78 -59 80 -63L84 -66Q88 -63 93 -63L100 -60L103 -57L102 -54H103Q112 -63 119 -72Q120 -72 125 -81Q133 -94 135 -94V-95Q132 -97 125 -105Q119 -109 119 -112H118L110 -103Q110 -101 103 -96H102L101 -97V-98L106 -103L113 -115Q115 -118 118 -123Q119 -123 121 -129L124 -136L128 -141V-144Q130 -149 132 -158Q133 -158 137 -171Q135 -175 133 -177V-179Q135 -181 140 -182ZM64 -168H65Q67 -164 76 -162L80 -161H82H83Q89 -158 89 -153V-151Q88 -149 88 -148V-147Q87 -138 84 -138V-137Q85 -136 86 -132Q89 -132 92 -135Q96 -135 97 -136L99 -135H100H101Q103 -135 107 -132V-131Q106 -129 98 -127V-128L94 -127H93Q93 -125 92 -125L89 -126Q89 -124 86 -124Q86 -123 83 -123Q83 -121 77 -121Q77 -120 71 -118Q71 -117 66 -117Q66 -116 62 -116Q62 -113 54 -112Q47 -109 40 -104Q38 -104 31 -99Q31 -98 27 -97Q27 -99 22 -102Q20 -104 14 -108L11 -111V-112L13 -114H14Q17 -114 29 -117L42 -121L52 -123Q56 -125 63 -126H64H65V-130V-131V-134H66Q65 -136 64 -150Q62 -150 62 -154L59 -158Q57 -158 56 -160V-161Q62 -168 64 -168ZM122 -117V-116L124 -114L125 -115Q126 -112 127 -112L129 -113L142 -107Q144 -108 150 -119Q152 -119 152 -124Q153 -124 155 -129L158 -132L153 -133L150 -131H148Q147 -129 146 -129Q143 -132 140 -132L137 -135Q134 -135 134 -131Q130 -130 126 -121Q125 -121 122 -117ZM83 -104Q87 -101 87 -100V-99Q82 -93 78 -93H77Q75 -93 70 -89Q68 -89 63 -86Q61 -86 60 -84L57 -83L51 -85L49 -86V-87Q51 -90 62 -94Q66 -97 73 -99Q73 -100 83 -104ZM81 -81H82Q84 -81 88 -77Q88 -73 82 -73Q82 -72 79 -72L77 -70L74 -71Q74 -68 68 -68Q68 -67 61 -65Q56 -63 54 -63Q49 -63 47 -66Q48 -68 65 -75Q67 -77 71 -77Q75 -81 81 -81ZM54 -39H51Q51 -37 54 -36V-35H53Q54 -32 56 -24L55 -23Q56 -21 56 -19L58 -18L65 -22L73 -24Q75 -32 75 -36L76 -40L75 -41L77 -43V-45V-50H76Q73 -46 68 -46Q65 -43 56 -40Q56 -39 54 -39ZM129 -37L130 -35V-33V-28V-22L132 -20V-19L130 -18Q131 -15 134 -15H135Q136 -16 144 -17L155 -19Q158 -19 159 -30V-32H160L159 -33L160 -42V-44V-47L159 -48H158Q156 -46 144 -44Q144 -42 139 -42Q139 -41 133 -40V-39L129 -38Z"/>
</svg>