<svg xmlns="http://www.w3.org/2000/svg" viewBox="0 -256 256 256">
	<path fill="#000000" d="M164 -180H168Q178 -172 180 -172Q182 -172 184 -169V-163Q182 -160 175 -155Q169 -149 159 -140L161 -137L164 -141H169Q174 -144 186 -146Q186 -148 194 -149Q198 -150 199 -152L202 -153Q204 -153 210 -146Q220 -146 222 -140Q222 -134 217 -130Q217 -129 214 -125Q205 -102 202 -97L197 -86Q193 -82 187 -79H185L184 -80V-86Q180 -86 175 -84H172Q172 -82 171 -82H168Q161 -80 157 -78Q155 -78 153 -77H148Q146 -75 144 -70H142Q137 -75 137 -80Q136 -80 135 -86L134 -87V-94Q132 -98 131 -111Q130 -111 129 -122Q128 -123 126 -139H127Q130 -139 131 -136Q133 -136 135 -133L138 -134H139Q140 -134 140 -132H141V-134Q147 -136 147 -138Q147 -142 156 -154Q162 -163 162 -171Q159 -174 159 -176Q159 -180 164 -180ZM92 -169Q94 -169 99 -163Q111 -156 111 -151L104 -142Q98 -131 98 -128Q97 -127 92 -115L88 -108L86 -104L89 -103L95 -104H97L103 -106L104 -111V-113L105 -115L104 -118Q105 -118 105 -121L110 -125H111Q116 -118 125 -116L126 -114V-113V-112V-111V-110Q123 -104 119 -100Q119 -98 116 -96L117 -95L105 -73L99 -63Q99 -62 103 -62Q111 -54 120 -48Q120 -45 125 -34V-33Q122 -28 120 -28L114 -27Q114 -29 110 -30Q107 -33 99 -39Q99 -41 90 -48V-50H89Q81 -44 80 -43Q78 -43 72 -36L51 -23Q41 -18 38 -16Q37 -14 35 -14L34 -16V-17L44 -23Q67 -42 73 -49Q76 -50 77 -57L81 -59L77 -61Q72 -68 66 -69Q66 -71 61 -72H60V-74Q60 -77 68 -88V-90L54 -85L45 -81L44 -80V-81L37 -77H36Q29 -85 22 -89V-91Q22 -92 25 -92Q31 -94 52 -96H54L56 -97H57Q59 -98 64 -98H67Q70 -100 72 -100Q76 -103 78 -113Q81 -124 83 -127V-131V-132V-134Q89 -144 90 -151L88 -154L89 -158V-159Q89 -160 87 -162V-164ZM183 -138V-139H182Q177 -136 176 -136Q180 -133 182 -130Q184 -129 184 -128Q184 -126 177 -117V-116Q177 -115 180 -115L181 -114Q184 -111 187 -110Q187 -108 188 -107V-106Q185 -101 184 -101L177 -106Q177 -107 173 -108Q173 -110 172 -110H171L166 -104Q159 -99 159 -98L148 -90V-89V-88Q148 -86 150 -86Q157 -88 168 -89Q168 -90 178 -91Q186 -93 186 -96Q191 -106 194 -126L193 -129Q195 -129 196 -132L195 -134L196 -140L195 -141H194Q188 -139 183 -138ZM159 -134Q158 -132 157 -132H155Q155 -130 148 -129Q148 -127 144 -126L147 -122L146 -120Q146 -118 150 -117L153 -118H156Q161 -118 165 -117L170 -125H172V-126Q170 -128 170 -132L167 -134L163 -133ZM147 -114V-111V-107V-106L146 -102Q147 -102 147 -101V-97V-95L148 -93L162 -112V-113Q162 -114 156 -114L149 -117Q147 -117 147 -114ZM71 -77Q71 -76 76 -75Q76 -72 86 -72Q91 -78 93 -84Q96 -88 99 -96L101 -100V-101H100Q94 -99 92 -99Q92 -98 87 -97Q87 -96 81 -95Q81 -91 74 -82ZM177 -81Q189 -75 189 -70Q189 -69 188 -63L187 -62L186 -61Q187 -59 188 -59L195 -62Q204 -68 208 -68Q214 -68 214 -62Q213 -59 203 -55L191 -50L187 -47L186 -46L187 -44L186 -34Q187 -26 189 -23L193 -21H197H198L215 -23L217 -22L228 -23H229Q234 -20 234 -17Q234 -14 229 -11Q229 -9 220 -7H219Q206 -7 202 -6L200 -8V-7H196L193 -6L191 -7L189 -5Q186 -8 182 -8Q176 -17 176 -21L171 -30V-32L174 -35L173 -38L174 -41L173 -42L175 -47V-51L176 -57Q175 -74 171 -74V-77Q174 -81 177 -81ZM123 -66Q128 -66 135 -61Q137 -61 142 -55H143Q143 -58 151 -62L155 -64H157H159Q165 -64 167 -61Q167 -58 159 -53Q156 -50 150 -49Q147 -50 144 -50H142V-44V-42L141 -41L143 -30L142 -26V-25H143Q148 -27 160 -35H162Q162 -31 153 -23Q151 -19 146 -15L139 -4Q139 1 131 4H129Q126 4 126 -3V-5Q126 -11 124 -13Q127 -19 131 -19V-20V-21L130 -23L131 -26Q130 -26 130 -27V-31L129 -32V-33L130 -35Q128 -35 127 -48Q126 -48 126 -51V-53Q125 -54 124 -61L122 -63V-65Z"/>
</svg>