<svg xmlns="http://www.w3.org/2000/svg" viewBox="0 -256 256 256">
	<path fill="#000000" d="M138 -177H140Q144 -177 146 -174L149 -175H150L152 -173H154H156Q158 -171 158 -166L156 -158H155V-153H156L167 -157Q169 -157 171 -158H175L176 -157L178 -158Q183 -155 185 -153V-150Q182 -146 175 -146L165 -143Q163 -143 160 -141Q158 -141 151 -137Q149 -136 149 -135V-132L146 -131V-128Q141 -113 137 -113Q137 -111 128 -103L118 -96H116L115 -97Q127 -106 129 -114L131 -116V-117L134 -125Q134 -127 133 -127Q131 -125 127 -124L126 -122Q122 -126 119 -126L116 -130L115 -129Q113 -130 112 -132V-133L119 -136Q133 -144 136 -144Q136 -145 138 -145V-150L139 -153V-158Q138 -170 136 -171L134 -174ZM178 -174L181 -173L183 -174Q191 -174 191 -168Q192 -168 193 -166Q192 -160 187 -160H186Q185 -160 182 -167L175 -172Q175 -173 178 -174ZM88 -164H89Q91 -160 92 -160L94 -161Q99 -157 104 -156L107 -149Q106 -145 104 -144L101 -133L100 -125V-123V-122V-120L99 -108H98L99 -103V-97L98 -95L99 -94L98 -86L99 -80L98 -78Q99 -77 99 -72H100V-70L99 -69V-67L98 -65H99V-64L97 -62L99 -59L98 -58V-56V-55Q96 -53 95 -48Q93 -48 93 -45Q91 -45 91 -41Q89 -40 86 -40V-39L88 -38H90H91Q99 -35 101 -31V-29H103Q104 -29 109 -45L108 -47Q110 -47 110 -51Q111 -51 111 -54H112L111 -57Q111 -61 113 -63V-67Q111 -67 109 -64H108Q103 -67 101 -69Q101 -70 112 -75L115 -76Q115 -81 116 -82Q115 -83 115 -88Q113 -89 113 -92L117 -94Q119 -94 125 -91V-90Q126 -89 129 -89L130 -88L128 -84V-82H129Q132 -82 136 -86Q142 -86 142 -80L139 -78H137Q127 -74 124 -73L126 -71L124 -69L125 -67L123 -61L124 -60L122 -56Q125 -56 129 -52Q140 -47 140 -42Q140 -40 141 -40Q141 -32 137 -30H136L131 -33Q131 -36 128 -37V-38L129 -41Q127 -41 127 -44V-45Q125 -45 124 -51L122 -54Q120 -46 118 -43H117L118 -42V-41Q117 -36 114 -36V-34L113 -32V-30Q110 -23 105 -18Q105 -17 100 -13Q100 -10 98 -9Q93 -4 87 -1Q87 0 85 0H84V-2L90 -6Q99 -14 99 -18L102 -20V-21L101 -22H100Q95 -18 93 -18Q89 -18 86 -24L76 -40Q72 -42 72 -45H73Q75 -44 83 -42V-48V-49V-51V-54V-58L82 -59V-61L83 -67V-68L82 -69Q79 -64 77 -64Q77 -63 71 -62Q69 -59 63 -57Q61 -57 58 -54H56L55 -52L49 -53V-52Q49 -50 53 -50Q57 -45 61 -45Q63 -42 63 -41Q57 -32 50 -28Q42 -20 38 -18Q37 -14 24 -6L15 0L14 -1V-2Q14 -3 24 -10Q34 -19 37 -27Q41 -29 46 -41Q48 -41 49 -43V-45Q44 -46 44 -50V-52L43 -56L44 -59V-63V-64V-72V-74V-75V-80L45 -82L44 -86L45 -88L44 -92V-95V-101V-103V-104L42 -108V-109L43 -110L41 -124L42 -127Q41 -127 41 -132Q39 -132 35 -141Q36 -147 40 -147Q40 -145 48 -142L51 -144L53 -143Q53 -145 58 -146L73 -153Q73 -154 77 -156Q84 -159 88 -164ZM57 -135Q58 -134 59 -125L58 -124V-123L59 -122V-120L58 -117L59 -115H61Q63 -117 64 -117L66 -116Q67 -121 71 -121Q74 -121 78 -117V-114L75 -111H72Q72 -109 63 -108Q63 -107 59 -104V-102V-99L58 -96V-93L56 -91V-89Q58 -88 59 -88Q63 -90 66 -91Q66 -93 71 -95L74 -94L75 -95Q77 -92 77 -91Q77 -85 70 -85Q70 -82 65 -82H64Q63 -80 58 -78L56 -74L58 -71L57 -66V-64L58 -63L60 -64L61 -63H62Q63 -63 63 -64Q67 -65 68 -68V-67Q73 -70 76 -71Q76 -72 78 -72H80Q80 -74 81 -74H82H84Q84 -77 83 -77V-81V-86L84 -88L83 -94L84 -96L83 -97L84 -99L83 -107L85 -108L83 -110V-116L84 -118L83 -120V-125V-130L84 -131L82 -139L83 -143Q82 -145 81 -146L72 -143Q72 -141 67 -140Q58 -136 57 -135ZM151 -126H159Q165 -125 167 -124L169 -125Q171 -123 176 -122L185 -114Q185 -112 187 -109Q187 -102 182 -102L181 -101H180Q176 -101 167 -111L156 -120L152 -125H151ZM137 -102Q139 -100 144 -100L145 -99L146 -100H147Q153 -97 153 -92V-91Q149 -90 149 -88L147 -87H146Q142 -87 142 -91L136 -99V-101ZM188 -98Q192 -98 203 -90V-89L204 -86L198 -81H197Q194 -83 194 -86Q186 -95 186 -98H187ZM160 -94Q165 -91 169 -90L172 -89L175 -83Q177 -83 183 -87Q191 -84 191 -80Q189 -79 187 -77H185L184 -78L175 -74L167 -72L168 -69L167 -67L171 -63Q176 -54 180 -54Q180 -53 185 -47H186Q187 -47 188 -45Q190 -45 191 -42Q195 -41 196 -39L205 -33Q206 -33 211 -28Q226 -18 237 -14Q241 -14 241 -13L238 -12H228Q225 -10 215 -9Q214 -8 206 -6Q202 -7 199 -12Q197 -12 192 -17Q192 -19 188 -22Q188 -23 184 -26Q182 -31 179 -31Q179 -33 176 -36L172 -40Q169 -43 169 -46Q167 -46 164 -50H163Q160 -47 160 -46V-44Q158 -43 156 -37Q155 -37 155 -35Q145 -22 139 -17Q136 -14 132 -12L125 -6Q124 -6 117 -2L113 0Q111 0 109 1L108 0Q113 -4 121 -8Q125 -10 126 -12Q134 -17 140 -27Q141 -27 142 -31Q147 -36 150 -45Q153 -54 155 -58V-59L154 -60L156 -62Q156 -63 154 -63H153Q150 -60 148 -60Q145 -60 143 -64Q140 -64 137 -67V-68Q138 -68 145 -71H146Q146 -72 158 -77V-80Q158 -86 156 -90V-92Q156 -93 160 -94Z"/>
</svg>