<svg xmlns="http://www.w3.org/2000/svg" viewBox="0 -256 256 256">
	<path fill="#000000" d="M153 -192L158 -188Q166 -184 169 -184Q169 -183 173 -181L174 -180V-179L172 -177Q173 -174 174 -174H175Q177 -174 181 -176L185 -178Q195 -174 195 -171Q194 -165 186 -165Q180 -165 178 -163H177H175Q173 -163 172 -160H171L169 -161Q168 -161 167 -158V-156V-153V-152L168 -151Q168 -153 175 -155L176 -156H178Q180 -154 184 -153L185 -151V-150Q185 -149 183 -149L184 -147L183 -146H180Q180 -144 179 -144L177 -145Q173 -143 163 -140Q163 -136 161 -131L163 -130Q167 -131 172 -132Q172 -133 184 -135Q184 -136 190 -138V-139H191L194 -138Q195 -139 206 -142Q218 -136 220 -133V-132Q220 -128 212 -128L206 -129H195H190H186Q184 -127 180 -127L179 -128Q169 -125 163 -122H162Q159 -120 159 -117L153 -110H151Q149 -110 149 -114L147 -118H145L140 -116Q135 -116 131 -112Q128 -112 119 -108H118H116L109 -104Q107 -110 104 -110L103 -111L102 -112Q102 -115 109 -115L115 -117H117Q125 -119 125 -120L133 -122Q135 -122 143 -124Q145 -125 147 -130V-133L148 -134H147Q142 -131 138 -130Q138 -128 133 -128Q131 -132 126 -134L125 -135V-136Q125 -137 133 -138Q134 -139 145 -143H148V-146V-147V-152L147 -153L135 -149Q131 -154 129 -154L128 -153L126 -156V-158Q126 -160 128 -160H129L130 -159H131Q131 -162 136 -162L142 -164Q142 -165 145 -165L149 -167V-168L148 -169V-170V-171L146 -183Q144 -183 144 -185Q144 -191 153 -192ZM103 -170H104Q108 -166 114 -165Q116 -165 123 -158V-156Q121 -154 121 -152Q120 -151 117 -151Q117 -147 111 -142Q111 -141 108 -139Q108 -136 104 -133L103 -131Q109 -128 109 -126Q108 -123 108 -122H107Q105 -123 104 -123Q101 -119 98 -118L97 -119Q92 -116 88 -115L86 -114H85V-113Q87 -108 92 -108Q94 -106 94 -104Q94 -99 92 -96L91 -90H94Q97 -93 106 -95Q111 -93 111 -91V-90L110 -86L108 -84L105 -85Q105 -83 95 -81Q94 -80 94 -78Q90 -78 90 -74L89 -73Q90 -71 90 -67V-65Q88 -64 88 -59L90 -57Q99 -60 102 -62L109 -64L114 -61V-59Q113 -56 108 -55Q108 -54 102 -51Q102 -50 94 -47Q94 -45 89 -44Q77 -37 75 -35L63 -28Q60 -24 56 -22Q56 -18 45 -18L44 -17Q40 -23 40 -26V-27L39 -31L42 -33V-35V-36L43 -37L42 -45V-50Q41 -50 41 -53V-55L42 -57L41 -59V-62Q39 -65 38 -72Q37 -72 36 -77V-78Q37 -81 39 -81Q45 -77 53 -74Q59 -70 59 -68V-67Q59 -65 58 -65V-64L59 -63V-62Q59 -61 57 -61L58 -59Q57 -57 56 -57L57 -54Q57 -50 54 -48Q56 -47 56 -46V-45L54 -44Q55 -40 56 -40H57Q57 -42 72 -48L73 -50V-55V-59V-62Q73 -64 74 -64L73 -67V-71L74 -74V-78V-84L73 -87L74 -89L73 -90L74 -92V-97V-99L75 -102L72 -110H71Q70 -110 69 -107L67 -106L68 -104Q65 -103 65 -101L63 -100L60 -103Q58 -103 55 -111Q54 -111 54 -114L55 -117Q54 -120 54 -128Q53 -128 51 -132L52 -134Q50 -135 50 -140Q47 -140 45 -145Q43 -145 43 -146V-148Q44 -149 44 -151Q45 -154 47 -154Q52 -153 62 -150Q67 -151 71 -154Q74 -154 78 -156Q80 -156 90 -162Q97 -164 103 -170ZM71 -143Q74 -139 74 -136L72 -128L73 -126L71 -123V-120H72Q72 -122 78 -122Q82 -126 86 -126Q86 -127 89 -127Q91 -127 93 -138V-141L94 -146L93 -148L94 -149L93 -150Q90 -150 85 -147Q79 -146 78 -144ZM178 -115H180Q182 -113 190 -109L193 -105V-103Q189 -101 189 -68V-61V-58V-54V-48V-43V-42Q188 -32 182 -23L180 -19H181H183Q183 -18 191 -12Q199 -3 199 4Q199 16 191 16H189Q181 16 177 4L166 -11Q166 -14 162 -15L153 -25V-26L154 -27H155Q158 -27 163 -25L167 -24H169Q170 -24 170 -27H171L169 -34L170 -37Q169 -37 169 -41L168 -46H166Q163 -46 163 -41Q154 -30 150 -28Q150 -25 131 -9Q131 -7 127 -6Q120 0 115 2Q110 6 107 7Q104 10 93 15H92L91 14Q94 11 102 7L110 2Q112 -1 116 -3Q119 -8 126 -14Q126 -15 133 -22L142 -36L144 -38V-39Q144 -40 141 -41Q140 -38 137 -38Q135 -33 132 -31H131Q128 -31 126 -41V-45L125 -47L126 -51L125 -54Q126 -59 126 -63V-68L127 -71L126 -72L127 -73L126 -78V-82L125 -87V-90L126 -93Q123 -96 123 -103L126 -104Q129 -104 130 -99H131V-100H132Q133 -100 133 -99V-98H134Q138 -101 142 -102L144 -103H148Q148 -105 150 -105Q159 -108 165 -109L169 -113L171 -112Q176 -115 178 -115ZM139 -92L141 -87L140 -85H141H142Q144 -86 145 -86H147Q149 -89 154 -89L155 -90H160L163 -87V-85Q160 -82 147 -80Q147 -78 143 -78Q143 -77 140 -76V-73V-69L141 -68L156 -73H157Q162 -71 162 -69Q162 -65 152 -64Q150 -63 144 -61V-62Q141 -59 140 -59L139 -50L140 -49Q150 -51 160 -54H162Q169 -54 169 -61L170 -66V-68L171 -69L170 -74V-76V-78V-79V-83V-85V-87L168 -97Q170 -97 170 -99L168 -101H167Q148 -97 148 -95Q141 -95 139 -92Z"/>
</svg>