<svg xmlns="http://www.w3.org/2000/svg" viewBox="0 -256 256 256">
	<path fill="#000000" d="M77 -189Q82 -183 87 -181Q90 -179 90 -174Q88 -171 87 -163V-162L88 -161Q91 -161 96 -164L107 -167H108H111Q114 -165 114 -163V-161Q114 -156 103 -153Q103 -152 94 -149Q94 -148 86 -145H85V-144L86 -140L85 -139L86 -135L85 -132V-131Q88 -131 105 -139L109 -143H111L127 -132Q127 -129 135 -124Q139 -123 139 -122H143Q146 -120 146 -115L147 -109L146 -105V-104H154Q161 -99 161 -95H163V-100Q166 -134 170 -141V-142Q170 -143 169 -143Q167 -142 155 -135Q153 -135 151 -133H149Q138 -143 135 -143H134V-144Q134 -146 139 -147L141 -146Q142 -148 151 -149Q151 -150 164 -154Q164 -156 170 -156Q175 -161 183 -164L186 -167H187Q188 -167 193 -163Q203 -159 203 -157V-156Q203 -151 197 -148Q189 -137 186 -131Q185 -129 185 -126Q184 -126 183 -120Q178 -110 177 -97Q176 -97 176 -95V-93V-82V-79V-78V-76V-69L180 -53V-52Q182 -49 182 -47Q196 -29 200 -29L204 -27H205H209Q211 -25 218 -23Q221 -27 223 -35Q225 -35 226 -49L224 -52L226 -53Q229 -53 229 -36Q235 -22 240 -18L241 -14Q239 -1 232 -1Q232 0 228 0H223H219Q213 -4 210 -4Q204 -7 199 -8Q198 -9 191 -12L183 -18Q183 -20 172 -30Q170 -39 166 -48Q164 -61 163 -61V-78L162 -82L163 -87L162 -90Q162 -86 158 -85Q152 -88 147 -97H146V-96V-92V-91Q145 -78 144 -78L145 -76Q145 -62 134 -45Q127 -36 115 -25Q101 -14 91 -9L90 -11Q91 -11 91 -13Q99 -15 106 -24Q109 -24 115 -32Q121 -41 121 -45Q122 -45 125 -52V-53L127 -58Q127 -63 129 -64L128 -67L129 -71V-72Q129 -77 131 -77L130 -80L131 -87Q129 -87 129 -89L131 -93V-105V-108L130 -111L131 -116V-119Q131 -121 129 -122H127V-119L125 -112Q124 -112 123 -106Q122 -106 121 -99Q120 -98 117 -90Q117 -86 96 -68H95Q94 -68 93 -70L95 -77L94 -78H93Q91 -77 88 -77Q88 -75 85 -74Q83 -74 82 -60Q82 -54 83 -54L85 -56L86 -55Q87 -56 94 -57Q95 -58 104 -60Q114 -59 114 -51V-50Q113 -49 111 -49H104H102H100H92L83 -46L84 -43H83L84 -42V-41V-36V-33L85 -27L84 -26L86 -11V-10V-8V-7V-4Q83 7 77 12L75 13Q69 3 69 -2L70 -4V-7V-15V-16L69 -23L70 -25L69 -27L70 -33L69 -36V-38V-42V-43H68Q65 -41 64 -41H63Q44 -33 34 -27L28 -25Q25 -25 14 -36Q14 -38 18 -38L20 -37Q23 -40 33 -41L44 -44Q50 -45 53 -45H54Q59 -50 66 -50Q70 -51 70 -55V-62Q70 -68 68 -68Q67 -68 60 -63Q57 -63 57 -61V-59Q57 -56 53 -54Q50 -54 47 -63Q46 -63 44 -70Q42 -70 39 -82Q38 -86 35 -95Q35 -96 31 -102Q31 -104 27 -110Q25 -117 24 -118V-121L25 -122Q32 -121 37 -117H39Q50 -122 55 -122Q57 -122 61 -124Q67 -124 71 -126L72 -131L71 -132L72 -137V-140L67 -137H65Q60 -140 50 -151Q50 -154 65 -154Q65 -156 69 -156L71 -157V-167L72 -171V-175Q70 -179 65 -179V-180V-182Q72 -189 77 -189ZM84 -109H86Q91 -111 93 -111Q95 -109 97 -108Q97 -101 94 -101L93 -102Q87 -99 83 -99V-97L82 -95H83V-94L82 -85L83 -84L97 -89V-90V-94Q99 -97 99 -104L100 -108V-111L101 -129H100Q98 -127 91 -126Q91 -125 87 -125Q84 -125 84 -109ZM64 -116H63Q63 -114 56 -113Q56 -111 50 -110V-109Q52 -109 53 -95Q54 -95 59 -98L68 -102Q71 -102 71 -105V-108L70 -111L71 -115V-118H70ZM61 -89H60Q56 -92 55 -92H54V-91Q54 -84 56 -79Q56 -73 57 -73L71 -80L70 -81L71 -88V-92L70 -93Z"/>
</svg>