<svg xmlns="http://www.w3.org/2000/svg" viewBox="0 -256 256 256">
	<path fill="#000000" d="M161 -193Q167 -188 173 -188Q175 -186 175 -180Q162 -170 151 -160L148 -159V-158H150L158 -156H159Q167 -156 171 -144V-140Q167 -136 167 -135V-134Q161 -134 157 -140Q152 -150 145 -157Q145 -159 150 -168Q156 -176 156 -182Q154 -185 154 -189Q154 -191 161 -193ZM129 -185L136 -181Q139 -179 143 -179V-178V-177Q143 -172 136 -167L129 -161Q129 -159 123 -153H121L120 -154V-155Q125 -159 126 -169L127 -172L126 -174L127 -176Q124 -179 123 -180Q123 -185 126 -185ZM104 -180Q106 -180 109 -176Q120 -173 120 -172V-171Q114 -162 109 -162Q109 -161 104 -158Q104 -157 96 -151Q96 -150 94 -149V-148Q96 -146 108 -140L110 -136V-134Q107 -127 104 -127H102Q100 -128 93 -138L88 -145Q85 -146 84 -148V-149L85 -150Q85 -149 89 -149Q90 -149 96 -157L98 -160Q102 -167 102 -174L101 -178Q101 -179 104 -180ZM117 -153H119V-152L120 -153H121L125 -152L127 -153Q138 -147 139 -141Q139 -136 133 -133H132Q129 -134 123 -146L116 -151V-152ZM45 -150H47L49 -149L54 -150L58 -149L62 -150Q62 -149 67 -145Q68 -144 68 -142Q68 -139 61 -132L55 -135Q52 -135 39 -147Q39 -149 45 -150ZM150 -137H151L156 -134L159 -135Q166 -133 166 -131Q169 -129 169 -124Q160 -113 158 -106L152 -95Q156 -91 164 -88V-87Q163 -81 160 -78L158 -72V-68L157 -64V-63Q159 -48 161 -48Q165 -42 174 -38Q179 -36 180 -35H183H188L195 -34Q197 -34 199 -45V-48L200 -50H201Q203 -50 204 -40Q205 -40 206 -36Q210 -31 211 -31L212 -29Q212 -25 206 -21L201 -19L200 -20L198 -19L186 -20L182 -19Q172 -21 166 -25Q159 -28 155 -34Q152 -38 148 -50V-55Q148 -61 147 -61H145Q141 -60 135 -56H131Q128 -58 128 -60Q129 -62 131 -62V-61Q141 -67 147 -67Q149 -73 149 -78V-81Q149 -89 147 -89H146Q145 -89 145 -87H144H143L141 -88V-93H138Q135 -91 129 -90H125L119 -88Q116 -86 111 -86Q111 -85 107 -85V-84L106 -81L101 -77Q98 -80 98 -83L97 -98L98 -99H97L96 -100V-102Q96 -106 93 -111Q93 -113 90 -120L89 -122Q90 -123 91 -123L93 -122L95 -123Q98 -120 102 -117Q102 -119 113 -123Q118 -123 118 -125L135 -130Q143 -135 146 -135ZM134 -122V-121L139 -117L132 -110V-109Q135 -109 135 -108H137L139 -106V-103Q138 -101 136 -100H134L127 -104H125Q123 -102 121 -102Q120 -98 110 -94H109L108 -95Q116 -102 120 -107H118H116Q115 -108 107 -108V-107V-105V-103L106 -99L107 -96L106 -95V-94Q107 -94 107 -93V-90H108Q116 -91 121 -93Q137 -99 142 -99Q144 -99 146 -117L145 -122L146 -123L145 -125Q134 -123 134 -122ZM117 -118H116L107 -115Q108 -113 112 -111H122V-110H123L128 -119Q127 -121 126 -121H125ZM44 -113H47H48H50H57Q66 -107 66 -104V-103Q66 -99 60 -95L56 -94Q50 -99 42 -102Q35 -108 35 -110Q36 -113 37 -113L40 -112ZM113 -85Q123 -83 126 -81H127V-79H126Q127 -77 129 -77H130L138 -79H142L144 -77V-76Q144 -73 135 -71Q129 -72 128 -73H127Q126 -73 125 -68H124L125 -56L123 -47L124 -45L123 -44L124 -42Q130 -46 134 -50L136 -51V-50Q127 -39 118 -24L115 -21Q105 -26 105 -31V-32Q107 -33 115 -36L114 -37L116 -41L115 -42L116 -44L115 -45V-47V-49V-52L114 -55L115 -59H114Q109 -55 101 -52L98 -53H96Q95 -53 95 -52V-49H94Q95 -44 96 -44Q105 -51 107 -51V-50Q100 -40 86 -26Q86 -24 83 -22Q80 -25 76 -26Q75 -29 75 -32L86 -37L85 -40V-41Q85 -45 86 -45L85 -53L86 -56Q85 -57 85 -62V-63Q84 -70 80 -76L79 -80H80H82Q85 -78 89 -77L91 -76H94Q96 -74 96 -72L99 -71L102 -72V-71H103Q107 -73 110 -73L112 -71Q112 -69 109 -69Q108 -66 104 -66Q102 -64 96 -63V-59L97 -57L112 -63H113L114 -62L115 -63V-66V-69V-72V-74L113 -81V-82L112 -83ZM56 -72Q66 -68 66 -64Q66 -62 62 -59V-55V-54Q60 -50 60 -45Q60 -43 63 -38L70 -28V-24V-20H71L90 -17H92L93 -16H102Q103 -16 103 -13H112Q114 -11 119 -10Q122 -9 128 -9H129H130H133Q134 -8 143 -6H146L148 -5L151 -6H158L164 -4L169 -5H170L174 -4L176 -5L183 -3L189 -4H192H195H197H203H215H217Q226 -3 226 -1Q226 0 225 0Q213 3 192 15Q191 18 189 18L186 17V18H185L182 17H181H179H178H175L170 15H169H165H164Q154 12 135 9Q135 8 131 8Q131 5 118 4L112 2L109 3Q109 1 99 -2Q92 -6 78 -8L72 -9L71 -11Q57 -11 55 -6Q53 -3 51 -3Q46 -5 46 -9L45 -14V-18V-20L46 -21L53 -20L56 -21L59 -20L60 -21Q60 -23 54 -29L49 -37V-38V-42Q48 -53 46 -53L37 -50H36Q31 -53 30 -55L34 -59V-58L40 -60H41V-59H42Q49 -64 55 -72Z"/>
</svg>