<svg xmlns="http://www.w3.org/2000/svg" viewBox="0 -256 256 256">
	<path fill="#000000" d="M114 -188H117Q119 -186 124 -185Q129 -181 129 -179Q129 -175 126 -175V-173Q121 -173 121 -171Q116 -171 114 -168Q111 -168 109 -167L101 -164V-163V-162L98 -160Q98 -158 91 -154Q91 -153 89 -152Q87 -152 84 -155Q82 -157 77 -158Q77 -160 70 -163L69 -168Q73 -168 81 -173Q85 -174 92 -178Q98 -180 106 -184Q112 -188 114 -188ZM202 -188Q203 -188 204 -184H205H206Q220 -176 220 -174Q220 -171 206 -159Q189 -142 181 -132Q186 -129 196 -125Q202 -121 204 -121L209 -115Q212 -110 214 -107L215 -103Q216 -103 219 -96V-82Q219 -77 212 -64Q210 -61 202 -56Q200 -56 197 -65Q195 -67 192 -72Q190 -72 188 -76Q179 -83 171 -86V-87L172 -89L186 -86H187L193 -85H194Q196 -86 196 -89V-94Q196 -102 185 -121Q179 -130 178 -130Q178 -132 182 -139Q183 -143 184 -145Q184 -147 186 -150Q188 -158 190 -161V-163L188 -165H184Q184 -163 181 -163H180Q180 -162 173 -161Q173 -160 170 -159H169V-158L170 -157Q167 -152 167 -142H168V-141L167 -140L168 -136L166 -132Q167 -131 168 -126L167 -123V-120V-118V-115V-113V-111V-110V-108L168 -102L167 -99L168 -95V-67L167 -59L168 -57L167 -53L168 -52L167 -48V-44L168 -42L167 -40Q168 -36 168 -30V-25Q168 -18 164 -4Q164 -1 160 6Q158 12 155 12L154 11L155 4Q155 1 154 1L155 0Q154 -18 153 -19L154 -23V-29L153 -33L154 -34Q154 -37 153 -38V-42Q152 -44 152 -47V-50L153 -53L152 -57V-64L151 -85L152 -87Q150 -92 150 -113Q150 -115 149 -115L150 -124L149 -125V-128L148 -136L149 -141L148 -143V-150H149L148 -153V-157L147 -161L148 -162Q146 -162 143 -166V-171Q143 -173 151 -174L158 -168H160L168 -171L174 -173Q177 -173 181 -175V-174Q184 -176 190 -177Q197 -184 202 -188ZM127 -158H128L130 -156H134L140 -151Q140 -146 133 -144H131L126 -142Q123 -142 118 -140Q115 -140 112 -137Q109 -136 107 -135H104Q102 -130 97 -130Q94 -127 86 -122Q86 -120 80 -118Q80 -116 76 -116Q76 -113 71 -111L58 -101H56Q53 -101 47 -106Q46 -106 40 -110Q35 -110 35 -114Q42 -115 47 -118L57 -122Q62 -126 71 -129Q79 -133 83 -134Q85 -137 89 -138Q97 -143 105 -145Q111 -149 122 -154Q122 -155 127 -158ZM106 -129H107L116 -122Q118 -122 118 -121L114 -111L112 -104V-99L105 -73L104 -70L105 -69L126 -77Q128 -77 130 -79H131Q139 -77 139 -72Q138 -68 134 -65Q122 -59 114 -59L102 -56H101Q94 -59 94 -65V-66Q96 -70 97 -78Q98 -78 98 -86Q99 -86 102 -100V-104Q103 -107 104 -117Q104 -122 101 -124Q102 -129 106 -129ZM82 -113H84Q91 -107 94 -107L96 -103V-102Q91 -95 85 -84Q84 -84 78 -74Q71 -64 61 -55Q58 -51 49 -46Q40 -39 39 -39L38 -40V-41Q50 -52 52 -58Q57 -63 57 -64Q57 -67 68 -82L73 -94L79 -107L77 -109V-110Q77 -111 80 -111Z"/>
</svg>