<svg xmlns="http://www.w3.org/2000/svg" viewBox="0 -256 256 256">
	<path fill="#000000" d="M123 -185H124H125H134Q142 -175 142 -173Q139 -161 131 -161L130 -163H127L123 -169Q120 -169 120 -171Q114 -175 109 -180Q109 -181 115 -184Q115 -185 123 -185ZM206 -185H208L209 -184V-183L208 -181H209Q210 -181 213 -177Q224 -175 224 -171V-170V-167Q222 -162 216 -160Q205 -148 203 -143Q197 -139 194 -133Q193 -133 189 -128Q187 -128 185 -123Q188 -122 190 -121Q193 -121 199 -117Q202 -117 209 -111Q210 -111 216 -101Q219 -92 219 -89V-87L218 -84L219 -82V-81Q218 -81 217 -73Q211 -62 203 -59H202Q200 -59 199 -68Q197 -70 195 -74Q192 -78 182 -82L180 -84Q180 -85 182 -86L192 -85H194H195Q198 -89 199 -93Q196 -108 188 -117Q182 -120 181 -122V-123Q187 -133 189 -140L193 -154L195 -160H194Q192 -160 179 -156Q179 -153 180 -153L178 -135L181 -125L178 -114V-113V-110Q177 -103 176 -103L177 -99V-97V-96V-94V-89L178 -81L176 -75Q177 -74 177 -67L176 -65L177 -62L176 -59L177 -57L174 -39L175 -36Q174 -31 173 -30L174 -29Q174 -13 164 9H163L162 8L163 3L162 -18V-22V-32L163 -34Q161 -34 161 -36L162 -39L161 -46V-50V-54L160 -58L161 -64L160 -73L161 -75L160 -78V-84V-87V-89L159 -93L160 -94L159 -102V-103L158 -106L159 -109L158 -112L159 -113L158 -117V-118L159 -119H158V-123L159 -130L158 -133L159 -135L158 -136L159 -138L158 -152V-153Q157 -157 153 -163Q155 -170 158 -171H159Q164 -165 168 -165H169H171L188 -171L190 -172L191 -171Q194 -172 201 -180Q202 -181 206 -185ZM64 -177H70H84Q94 -172 94 -162H93L94 -161Q94 -155 91 -153H92H94H99H100Q101 -151 103 -151L104 -149V-147V-146Q95 -143 90 -139Q88 -139 80 -132L82 -128L80 -118V-114V-110L81 -109Q89 -112 90 -113L95 -115Q99 -115 101 -113V-112Q98 -108 94 -107L93 -106Q93 -105 90 -105Q90 -104 88 -104Q81 -99 80 -97L79 -96L80 -92Q79 -89 77 -78L78 -77Q77 -75 76 -69Q75 -69 73 -61L68 -52L65 -47Q64 -47 60 -40L51 -31L45 -26Q44 -24 38 -19H37V-20V-21Q49 -34 51 -39Q55 -44 61 -61Q63 -67 63 -75Q64 -75 65 -86H64Q62 -84 55 -80Q47 -73 45 -73L39 -79Q32 -82 32 -84V-85Q32 -86 38 -88Q38 -89 46 -91Q46 -93 55 -95Q64 -100 65 -103V-104Q65 -106 66 -106L65 -109L64 -120V-121L56 -117H55Q52 -117 46 -123L38 -129V-130Q38 -131 47 -133Q47 -134 50 -135Q58 -140 67 -142Q67 -143 73 -144Q73 -145 77 -146Q77 -147 80 -147L83 -150Q74 -154 71 -162L62 -172Q59 -173 59 -174V-175Q59 -176 64 -177ZM139 -157Q149 -157 149 -152V-150Q148 -146 143 -146Q143 -145 139 -144L133 -142Q129 -139 127 -139Q132 -134 132 -133Q131 -127 130 -127V-124L131 -117H132Q141 -123 144 -123H145Q148 -123 149 -120V-118Q146 -113 140 -113Q140 -112 135 -110L131 -107V-106V-104V-95V-92V-63L130 -58L131 -55L130 -48L131 -45L128 -38Q122 -31 119 -28H118Q117 -28 117 -38Q115 -43 115 -49L114 -50L116 -55V-56L115 -58Q115 -74 116 -74L115 -77V-87L116 -94V-98H114Q109 -95 105 -94Q103 -90 100 -90Q97 -93 91 -96V-97Q91 -99 98 -100Q98 -102 104 -104Q109 -108 115 -110L116 -116L115 -117L117 -120L116 -122L117 -126Q115 -126 115 -129V-130L116 -133L115 -134H114L112 -132Q109 -133 106 -137Q105 -137 102 -140V-142L103 -143L105 -142L107 -144H109Q109 -145 119 -149L124 -152L126 -151Q135 -157 139 -157Z"/>
</svg>