<svg xmlns="http://www.w3.org/2000/svg" viewBox="0 -256 256 256">
	<path fill="#000000" d="M91 -195Q96 -193 99 -191L104 -189H105Q112 -189 112 -183L113 -182V-180L112 -177V-176L114 -174Q116 -174 117 -176Q119 -176 121 -178H124Q125 -177 130 -173L129 -167V-166Q126 -162 115 -156Q115 -155 112 -155L109 -148L110 -147L108 -145V-142V-141L107 -139L108 -137Q113 -140 121 -143Q126 -146 136 -146H137Q143 -144 143 -141Q143 -136 131 -136L130 -137Q130 -134 125 -134Q125 -133 121 -133Q117 -131 110 -128Q110 -127 101 -124L98 -122Q107 -118 112 -117L113 -113L111 -107V-104H112Q121 -110 124 -110Q130 -105 130 -104Q130 -100 126 -97H123Q110 -95 110 -90Q110 -83 109 -83V-76L107 -72L108 -68V-66H110Q118 -69 121 -70Q121 -71 134 -73L138 -72L140 -73L144 -67V-66Q143 -63 139 -62H138L136 -63H135L126 -59L124 -60Q124 -58 114 -57Q114 -56 112 -56H110Q108 -55 97 -51Q93 -48 81 -44Q81 -42 72 -39Q66 -35 57 -31Q53 -36 44 -41L43 -43V-44Q43 -45 53 -48Q53 -49 66 -51Q66 -53 68 -53L71 -52Q71 -54 87 -59H88V-58L92 -61V-62L91 -64L92 -65L91 -69L93 -72Q91 -74 91 -77V-80V-84L92 -85V-86H91Q85 -80 76 -77Q73 -74 70 -74L62 -80Q59 -80 59 -81Q59 -83 64 -84Q66 -86 70 -86Q71 -88 83 -92Q83 -93 88 -94Q88 -95 89 -95H91V-97L90 -98V-99H91V-100L90 -102V-104V-105L89 -108V-111L90 -113L88 -115V-117V-118H87Q86 -117 76 -113L61 -104Q58 -104 55 -102Q53 -99 49 -99L42 -105Q36 -107 35 -109V-110L36 -111H40Q44 -114 53 -116Q57 -117 67 -121Q67 -122 71 -122Q72 -123 80 -126Q80 -127 86 -128Q86 -129 89 -129Q90 -130 90 -132V-133L92 -140Q91 -140 89 -140V-141L85 -139Q80 -140 77 -144Q76 -144 76 -145Q73 -145 70 -149Q69 -149 66 -154Q66 -156 70 -156Q76 -159 85 -162Q85 -163 90 -163L88 -167L89 -168L88 -173H89L86 -182Q84 -185 82 -190Q82 -194 85 -194H86H87ZM206 -185Q208 -185 208 -182Q211 -177 219 -176L221 -173V-172V-171Q221 -166 213 -162Q212 -159 206 -154Q205 -150 188 -131L184 -125V-124Q184 -122 197 -119Q205 -115 211 -106L214 -101H213V-100L215 -94L214 -93Q215 -90 215 -88V-86V-83V-81V-77V-76Q215 -72 211 -64Q208 -57 202 -54L200 -52Q197 -52 196 -59Q195 -59 193 -63Q189 -63 188 -69Q179 -75 173 -79L174 -81L184 -80L187 -81L188 -80L191 -81V-80H192Q193 -80 193 -83Q194 -83 195 -91Q193 -94 192 -101L190 -106L184 -117L179 -123V-125Q181 -126 185 -138Q185 -140 187 -142L189 -149L193 -162V-166H191Q174 -158 171 -158H172V-156L170 -146V-145L169 -143L170 -141L169 -132L170 -129L169 -128L170 -126V-124V-122V-120V-117V-114V-113V-111L171 -102L170 -100L171 -93L170 -91L171 -88H170L171 -85L170 -79L171 -74L170 -68L171 -67V-65L170 -62L172 -57L171 -51L172 -48L170 -28L171 -26Q169 -8 167 -1Q167 4 161 15Q161 19 160 19Q158 19 158 13Q158 10 159 10L157 1L158 -4L157 -5L158 -6L157 -20V-21V-39V-42L156 -49V-52V-56L155 -70L156 -74L155 -77H156Q155 -79 155 -85V-86L154 -90H155L154 -92L155 -96Q153 -97 153 -98L154 -100L153 -116V-117Q152 -118 152 -123V-124V-135L151 -139L152 -142L150 -147L151 -149L150 -150V-153Q150 -159 147 -165L146 -164Q143 -165 143 -167L149 -173Q155 -173 161 -167H163L174 -171L198 -180Q201 -183 204 -184Z"/>
</svg>