<svg xmlns="http://www.w3.org/2000/svg" viewBox="0 -256 256 256">
	<path fill="#000000" d="M118 -190Q125 -190 125 -187Q125 -185 133 -181L138 -177Q137 -169 132 -169Q132 -167 124 -167Q112 -162 106 -161Q104 -158 93 -153L94 -151Q94 -147 91 -143Q91 -140 90 -138L91 -136Q89 -136 89 -131Q88 -131 87 -125V-123V-121L90 -122H91Q98 -126 104 -128Q104 -129 107 -130H108Q108 -131 116 -134Q118 -137 126 -139Q131 -140 134 -141Q144 -141 147 -138V-135Q146 -131 135 -128Q126 -125 115 -118L111 -117Q108 -117 107 -115Q105 -113 102 -113Q97 -108 94 -108L84 -111Q84 -107 81 -103L80 -101V-99Q78 -93 78 -90Q77 -90 75 -86H76Q80 -83 83 -83L92 -86Q96 -89 107 -91Q110 -94 118 -95Q118 -96 122 -97Q125 -99 125 -100Q127 -100 133 -105L135 -106Q137 -106 143 -102Q150 -100 150 -95V-93Q150 -91 148 -89Q148 -88 143 -84Q143 -81 133 -70V-69Q133 -68 137 -68L140 -65V-64L139 -63H140V-61Q136 -58 132 -58H129Q118 -57 115 -54Q108 -53 105 -50Q98 -48 97 -48Q96 -48 96 -42Q95 -42 94 -38L90 -35Q86 -35 86 -42Q85 -42 85 -48Q83 -48 81 -60Q79 -65 78 -72Q77 -72 76 -79Q75 -79 75 -81H74Q72 -81 69 -74L63 -66Q63 -64 59 -60Q55 -54 42 -44Q29 -30 25 -30L24 -31V-32Q42 -47 47 -55Q51 -60 54 -67Q59 -72 59 -77Q62 -79 62 -83Q64 -86 68 -96Q70 -99 70 -104Q72 -105 75 -119L77 -131L78 -138L77 -140L78 -142L77 -149V-151Q75 -153 74 -159Q72 -159 71 -165Q72 -167 78 -169Q83 -162 89 -158H90Q90 -160 100 -165Q104 -166 104 -169L109 -173Q110 -173 114 -178Q114 -180 117 -183L114 -186V-187Q116 -190 118 -190ZM215 -180H217L224 -175Q227 -175 231 -171L232 -169Q232 -163 223 -158L210 -144L197 -129Q193 -126 192 -126V-125Q197 -121 206 -118Q206 -117 208 -117Q212 -117 222 -104Q224 -101 224 -96Q226 -95 227 -80V-78Q226 -74 226 -69L223 -63Q222 -63 216 -55L213 -54Q210 -56 210 -59L208 -61V-62H209Q204 -70 196 -77Q195 -77 192 -80Q190 -80 186 -82Q184 -82 184 -83V-84L185 -85H187Q187 -83 200 -82L203 -83L208 -80L209 -81L208 -94Q207 -94 207 -97Q202 -104 200 -110Q198 -110 194 -116Q193 -116 190 -121V-124Q191 -129 195 -135Q197 -138 197 -142Q200 -146 203 -157L204 -158V-160L187 -153L182 -152L183 -149V-148Q183 -144 181 -141L182 -138L181 -136H182V-135Q181 -121 180 -121H181V-117L180 -116L181 -113L180 -110L181 -108L180 -106L181 -105V-103V-98V-97L182 -88H181Q182 -86 182 -82L181 -76V-74Q181 -67 182 -63V-60L183 -57L181 -54L182 -52L181 -43L182 -33L179 -17Q177 2 176 2Q176 5 173 9Q173 14 170 14L169 13L170 8L169 -20V-25L168 -29L169 -32L168 -35L169 -42Q168 -46 168 -47V-48L169 -50L168 -54V-63V-64V-70L167 -75L168 -76Q165 -95 165 -104Q164 -107 163 -130H162V-134V-135V-136Q161 -142 158 -147V-148L159 -149Q158 -150 155 -150L154 -152V-153Q158 -159 160 -159L164 -158H165Q168 -158 173 -160H174L176 -159Q176 -162 184 -163Q189 -166 195 -166Q195 -167 201 -168Q210 -174 215 -180ZM92 -77V-76Q93 -76 93 -75V-69L95 -63V-62H94Q95 -57 96 -57L109 -63H110Q117 -67 121 -67H122Q122 -69 123 -69V-72Q124 -74 124 -79V-80L125 -88H123Q122 -86 114 -85Q112 -83 100 -80Q100 -79 95 -78Q95 -77 92 -77Z"/>
</svg>