<svg xmlns="http://www.w3.org/2000/svg" viewBox="0 -256 256 256">
	<path fill="#000000" d="M90 -187H91Q105 -181 105 -179Q109 -177 109 -173Q111 -173 112 -171H116Q121 -174 128 -174L131 -176Q138 -173 138 -170Q137 -167 135 -167L133 -168L132 -167H129Q121 -167 119 -165L116 -166L114 -165L113 -166Q111 -165 110 -164V-163L111 -162L109 -160V-159Q103 -151 101 -151Q95 -154 95 -157Q94 -161 92 -163L84 -158H82Q82 -156 80 -156L78 -158Q78 -156 74 -156Q74 -154 72 -153L70 -154Q70 -152 60 -147Q57 -146 49 -142Q46 -142 41 -138Q39 -139 33 -145Q27 -146 24 -151V-152Q24 -153 30 -154L33 -153Q38 -156 54 -157Q54 -158 60 -158H61Q70 -162 76 -162Q76 -163 78 -163L79 -162Q79 -163 81 -162Q88 -164 89 -166Q85 -175 76 -182H75V-185L85 -186Q85 -187 90 -187ZM148 -180Q151 -180 156 -172Q167 -169 167 -165L164 -158Q161 -146 159 -145L160 -143Q159 -138 157 -138V-135V-134L156 -132L157 -130L156 -128L158 -127Q159 -128 162 -127Q163 -129 170 -131Q172 -132 178 -138L186 -145H187Q189 -141 198 -138V-134V-133Q191 -127 188 -122Q185 -121 181 -111Q177 -105 175 -98L174 -93Q172 -93 171 -86Q170 -86 169 -81L170 -78Q167 -76 167 -72V-63V-60L165 -57Q166 -57 167 -55L166 -52L172 -42Q176 -39 179 -36L180 -34L187 -35Q187 -33 199 -32Q201 -32 213 -33V-34Q215 -34 216 -37Q219 -39 222 -47V-50Q222 -53 223 -53Q224 -53 225 -49L224 -48Q225 -34 230 -29Q233 -27 233 -25Q233 -21 222 -15Q219 -14 217 -13L212 -14L208 -13L204 -14L196 -15L191 -16L189 -15L184 -16H179Q179 -18 174 -20Q170 -25 168 -25Q168 -26 161 -32L158 -45V-52L156 -58Q159 -62 160 -67L159 -69Q160 -78 163 -90Q163 -94 167 -101V-102V-103Q168 -103 172 -119Q173 -123 173 -128H172Q170 -125 163 -124Q163 -121 159 -121Q159 -120 153 -118V-117V-114Q152 -114 152 -106Q149 -103 147 -94Q146 -93 143 -83L151 -79Q153 -79 153 -76L152 -74L153 -71Q153 -68 149 -65L142 -71Q141 -71 139 -73Q138 -72 135 -63Q134 -63 132 -59Q128 -50 114 -38L105 -30Q105 -28 104 -28H103V-31Q105 -33 117 -46Q128 -63 128 -68Q129 -68 131 -76Q131 -77 134 -80Q134 -81 131 -81Q130 -83 126 -86V-87L128 -88Q131 -88 134 -85Q136 -93 138 -98L139 -101V-103L140 -104Q140 -106 138 -108L136 -107Q132 -107 130 -111Q128 -111 126 -114Q123 -115 123 -116V-117Q124 -119 131 -119L136 -121L137 -120Q137 -122 141 -122L144 -121V-124L146 -136V-140V-143L147 -148L146 -150V-153V-157L148 -159L147 -160L148 -162L147 -166V-168Q144 -168 144 -171Q142 -171 142 -173Q143 -174 147 -180ZM109 -152H110Q113 -149 118 -147Q120 -145 124 -142V-140L123 -137Q119 -132 116 -130Q115 -128 112 -127Q112 -124 109 -123Q112 -123 112 -120L113 -119Q113 -116 110 -114L108 -116Q103 -112 96 -111Q96 -109 87 -108L79 -103H78Q77 -103 77 -104V-106L76 -109Q79 -112 83 -112Q83 -114 89 -114Q90 -116 91 -116L93 -115Q95 -117 97 -117L98 -119L99 -122Q100 -124 100 -127L101 -128L100 -133H98L96 -134L94 -132H91Q91 -130 87 -130L85 -128Q84 -128 84 -130H83H82Q82 -129 79 -128Q79 -127 77 -127L75 -129H74V-127Q74 -126 77 -125V-124V-123V-121L76 -118V-116V-114V-113Q76 -112 74 -112L75 -109V-108V-105V-103Q74 -97 71 -97Q68 -97 67 -106V-108Q65 -108 65 -114Q61 -124 60 -131Q59 -132 58 -135V-136H59Q63 -133 65 -131L67 -130L72 -133Q74 -133 79 -136L97 -142Q99 -142 101 -145Q105 -146 105 -150ZM108 -107H109Q112 -103 120 -100L122 -99L121 -97L120 -96V-95L121 -94Q121 -91 111 -88L108 -86H107L105 -87Q104 -87 104 -84L97 -80Q92 -76 90 -76L89 -77V-78L92 -82Q92 -83 95 -86Q95 -87 99 -95Q96 -95 90 -90Q80 -84 78 -85Q78 -82 77 -82L75 -84H74V-81Q73 -80 68 -78L66 -77H65Q65 -76 58 -72H57H55Q55 -69 49 -67Q48 -64 46 -64Q41 -69 37 -70L30 -77L31 -79H33Q39 -78 62 -83Q63 -83 65 -84H66H67Q68 -86 70 -86H72Q72 -87 80 -90V-91L83 -90L97 -98Q97 -99 100 -98H102Q103 -103 108 -107ZM80 -78H84Q89 -73 96 -72L98 -68H97L98 -65L106 -69H107H108Q101 -62 99 -61L97 -60L98 -57V-56L97 -52Q98 -49 99 -49L98 -45V-36L99 -35V-34L98 -33L99 -31V-29L98 -25L99 -22Q98 -8 88 1Q81 7 79 7L78 6L79 2L78 0V-1H79V-2Q78 -2 76 -7Q75 -7 75 -10Q67 -12 66 -14V-15L67 -16L73 -14L75 -15L76 -14H78H79H80L79 -16Q79 -18 82 -20L81 -23L82 -25V-26L83 -28L82 -29Q82 -30 84 -32V-37L86 -40L85 -41V-46L86 -51V-52Q86 -55 84 -55Q84 -49 77 -48Q74 -44 70 -43Q63 -35 55 -32L49 -27H48L32 -36V-37L38 -38L48 -41H51Q51 -44 57 -45Q57 -46 60 -45Q62 -48 66 -48Q66 -49 71 -52L73 -51L87 -60Q84 -61 84 -62L85 -64L82 -74Q80 -74 79 -77Z"/>
</svg>