<svg xmlns="http://www.w3.org/2000/svg" viewBox="0 -256 256 256">
	<path fill="#000000" d="M123 -193Q137 -193 137 -187Q136 -180 134 -180Q124 -174 120 -174L111 -170L108 -168Q117 -163 117 -162V-161Q117 -158 116 -156L117 -155Q119 -156 123 -158L128 -159Q131 -161 136 -163Q137 -164 139 -164Q142 -164 146 -158Q151 -156 152 -153L155 -154L167 -153Q167 -155 176 -157Q180 -160 185 -161L192 -168Q194 -170 197 -175L199 -176Q200 -176 203 -172L207 -170L211 -171Q213 -170 216 -164V-161Q216 -155 209 -150Q208 -150 206 -147Q203 -144 200 -140Q199 -140 185 -122Q185 -121 181 -118Q181 -116 189 -114L193 -113Q193 -112 198 -112Q198 -110 201 -110L206 -103Q209 -99 210 -95L213 -88Q214 -87 216 -82L214 -79V-77H215Q215 -72 212 -66V-64Q212 -62 209 -60Q207 -54 204 -54Q204 -52 198 -50Q194 -51 194 -54V-56Q189 -72 180 -72Q176 -76 172 -76L171 -77L172 -80Q177 -79 178 -78L182 -79L184 -78H185Q188 -78 188 -77V-78H189L190 -77Q192 -77 193 -84V-87V-90L191 -98Q189 -100 187 -106Q184 -107 183 -112Q180 -113 180 -115H179Q177 -111 176 -111L175 -112L179 -122Q179 -123 180 -125Q180 -126 182 -130Q182 -131 184 -135Q184 -137 186 -142L188 -149V-151Q181 -150 180 -149H178H176Q176 -146 172 -146V-145V-140Q172 -139 168 -135V-133L170 -131V-114V-112V-109V-89V-83V-77V-58V-43L168 -26V-18Q166 -7 162 6L159 12Q158 17 155 17V16V14L156 8V1L157 -7L156 -9L157 -11L156 -18V-19V-23V-28L155 -34V-41L154 -45L155 -47L154 -48L155 -49L154 -54L155 -56V-58V-63Q154 -69 153 -72L154 -76V-81V-85V-87V-90L155 -92L154 -103V-105V-110V-114L155 -116Q154 -117 153 -123Q153 -126 154 -126L153 -130L154 -133Q153 -135 152 -141Q151 -141 151 -144H150Q148 -139 147 -139V-135L143 -124Q142 -124 141 -120L135 -110Q125 -99 123 -99Q121 -99 121 -102L118 -109H117Q115 -108 111 -107H107L100 -103V-102Q100 -100 103 -100Q103 -99 107 -98L109 -96L112 -97L113 -95V-94L112 -90V-88L120 -90H121Q123 -89 128 -88V-85Q125 -79 121 -79V-80Q121 -77 115 -75H114Q114 -73 110 -72Q108 -63 108 -57Q107 -57 107 -55L115 -58Q123 -59 126 -60H127Q131 -61 134 -63H136Q143 -60 143 -59Q143 -56 139 -56L137 -57L135 -55L132 -56Q132 -54 119 -50Q119 -49 114 -49H113L112 -50Q112 -47 108 -47L105 -45H103Q103 -44 99 -43Q99 -42 95 -41L86 -37L79 -33Q79 -32 71 -30Q71 -28 55 -23H54Q51 -24 48 -29Q47 -29 44 -32Q43 -32 40 -35V-36L45 -38Q52 -38 54 -40L71 -45L77 -46Q77 -47 83 -48Q83 -50 91 -50H92Q92 -54 93 -54H92V-59L93 -62L91 -63Q83 -58 82 -58Q75 -65 72 -65Q72 -67 67 -69V-70Q67 -72 80 -75H81Q81 -76 84 -76Q84 -78 89 -78Q90 -80 92 -80H93V-79H94V-81L93 -86V-90Q93 -97 90 -101H88Q85 -97 82 -97L79 -95Q73 -95 73 -90L69 -86H67Q64 -90 62 -100Q57 -111 56 -117Q54 -119 53 -119Q53 -123 51 -125L45 -137L46 -139L45 -140Q46 -142 48 -143H49Q52 -140 56 -140Q58 -138 63 -137L81 -142Q81 -144 81 -147V-148L78 -156V-158L81 -159Q83 -159 89 -154Q97 -150 97 -149L98 -148Q105 -150 105 -153L107 -162L105 -163V-167H104Q103 -167 99 -164Q97 -164 90 -159H89L83 -164Q81 -167 80 -167L72 -174V-176Q72 -177 78 -178Q84 -181 109 -189V-188H110Q121 -193 123 -193ZM120 -148H117Q117 -147 113 -146Q112 -138 110 -134L112 -132Q113 -132 113 -134H115H116L117 -136H121L124 -134H126L128 -140V-142Q129 -144 130 -144L129 -147L130 -149Q130 -151 129 -152Q125 -149 120 -148ZM77 -113H76L75 -114Q81 -122 81 -127V-131L82 -132V-134Q74 -131 72 -131V-121V-119L74 -104H76L88 -107H90Q90 -108 96 -111H97H99Q103 -113 105 -113H107Q107 -115 110 -116V-115Q122 -118 122 -121Q125 -125 125 -130Q115 -124 104 -124Q102 -124 102 -127V-129L103 -133L102 -135Q103 -136 103 -138V-141V-142H102Q100 -142 97 -140Q94 -140 93 -132Q91 -132 90 -128Q85 -119 80 -117Z"/>
</svg>