<svg xmlns="http://www.w3.org/2000/svg" viewBox="0 -256 256 256">
	<path fill="#000000" d="M128 -192H129L131 -191L133 -192Q140 -189 140 -185H141V-184Q141 -181 136 -176L134 -177Q124 -171 118 -171Q118 -169 104 -164Q103 -162 95 -159Q88 -167 84 -169Q83 -171 79 -172V-177Q80 -179 82 -179H86Q86 -181 88 -181L89 -180L92 -181H93V-182H95Q109 -187 116 -188H117H118Q118 -190 125 -190Q125 -192 128 -192ZM211 -179Q217 -174 219 -174Q221 -172 225 -168V-162Q212 -148 211 -148Q209 -148 208 -143Q206 -143 203 -137Q191 -127 191 -125Q195 -124 198 -122H201Q206 -122 214 -115Q222 -101 222 -97V-92H221L222 -89Q222 -80 217 -69L207 -60H206Q205 -60 204 -69Q202 -71 199 -77Q193 -81 193 -83H192Q190 -83 183 -87V-88Q183 -89 185 -89Q189 -89 189 -88V-89H191L193 -87L194 -88L196 -87H199H201L203 -92V-93Q201 -95 201 -96L202 -99L201 -102V-104Q198 -114 197 -114Q196 -114 192 -121Q191 -121 188 -125V-126Q188 -130 195 -140L194 -141V-142Q195 -143 198 -151L197 -153L199 -154V-155V-157H198Q198 -156 187 -154Q185 -153 183 -153Q179 -150 179 -148L181 -146V-145L180 -144L181 -141L180 -140H181V-139L179 -135L180 -131H179L180 -129L179 -126L180 -123L179 -110V-108V-105V-100V-99L178 -89Q179 -86 179 -83Q178 -83 178 -81L179 -79V-73Q179 -68 177 -63L178 -61L177 -56L178 -52L177 -47L178 -44L177 -32V-28V-26V-24V-18V-17Q175 -17 174 -2Q174 1 171 5Q166 16 165 16Q163 16 163 13L164 11L163 9Q163 5 165 2L164 0V-1L165 -3L164 -7L165 -9L163 -13L165 -18V-22L164 -23L165 -27L164 -29L165 -33L164 -41V-45L163 -50L164 -51L163 -55V-71L162 -74L163 -78V-79Q163 -82 162 -84L163 -86L162 -88L163 -94L162 -98L161 -109L163 -112L162 -114L163 -116Q162 -116 161 -120L162 -121V-122H161L162 -127L161 -142L162 -143V-144L161 -148Q159 -148 158 -150L160 -153Q158 -155 158 -157Q158 -160 163 -162L170 -158Q174 -160 185 -162Q185 -164 191 -164Q192 -166 194 -166H195Q196 -167 197 -167H198Q198 -170 202 -171Q208 -177 211 -179ZM128 -170Q131 -165 135 -165Q141 -162 141 -158Q141 -155 132 -149Q132 -148 129 -144L127 -145Q124 -144 124 -143L125 -140Q122 -137 119 -137V-136L127 -137H129L135 -139V-141V-147H136Q144 -144 146 -141Q148 -140 151 -136L150 -133L151 -129V-127Q149 -125 146 -122L156 -117Q159 -116 159 -113Q157 -111 152 -110Q152 -109 147 -108H142H141L134 -107L133 -108L131 -107H129Q127 -105 125 -105H124L120 -104H116Q113 -102 102 -100Q102 -99 98 -99L95 -98H93L92 -99H91Q88 -96 75 -94L74 -92L71 -93L58 -88Q52 -86 50 -85H46L43 -81Q35 -84 35 -88Q30 -89 30 -90Q31 -92 32 -92H35L42 -94L55 -97L65 -100H66L78 -102L82 -104H83H84Q84 -105 90 -107H93H95Q96 -109 104 -109Q104 -111 115 -112Q118 -114 131 -115Q139 -117 142 -120L143 -121Q137 -125 137 -133Q123 -131 118 -126L113 -125Q113 -124 110 -124Q110 -118 102 -113Q96 -116 96 -120Q96 -122 94 -123H93L92 -122H91L89 -123L84 -121Q80 -119 70 -116Q70 -115 63 -112Q58 -104 53 -104H52Q48 -107 48 -109Q48 -113 52 -124Q62 -124 65 -131Q68 -135 68 -139Q71 -139 73 -151L74 -152V-155L71 -158V-159Q72 -161 75 -161Q79 -161 85 -155L93 -151L94 -149V-148Q94 -145 85 -139Q84 -137 81 -136Q81 -135 74 -128V-127H75L84 -129H88L90 -128L93 -131V-134V-139V-140Q97 -140 104 -134Q104 -133 108 -128H109V-133Q109 -134 113 -136Q115 -140 117 -142Q117 -144 122 -154L123 -158L122 -159L123 -160L122 -163L124 -165V-166L122 -168Q122 -169 128 -170ZM125 -99Q134 -93 137 -93L139 -90V-85L137 -77V-73Q136 -73 135 -65L136 -63Q136 -61 134 -55Q134 -53 135 -53V-48V-39L131 -31Q126 -25 122 -23H120Q119 -23 118 -24L120 -29Q116 -38 116 -42H114Q114 -39 104 -36Q103 -35 102 -35H101Q97 -31 94 -31L90 -33L83 -24L80 -23Q76 -27 75 -31L76 -34L75 -39Q77 -41 77 -44L76 -46L77 -54V-59Q77 -73 74 -82Q74 -85 77 -85Q79 -82 82 -80L108 -90Q114 -94 116 -94Q117 -94 120 -96Q122 -99 125 -99ZM105 -81Q105 -80 104 -80H101Q101 -77 93 -76L91 -75H90V-74L93 -72L91 -64V-63H93Q94 -63 97 -65H99L112 -70H113Q115 -70 116 -68H117L118 -69V-74L117 -78L119 -81L117 -82V-84Q109 -82 109 -81ZM116 -63Q115 -62 113 -62H111L110 -63Q110 -60 103 -60Q102 -59 95 -57L93 -59H92L91 -57L92 -47Q90 -42 90 -39Q101 -42 106 -46Q117 -48 117 -51V-55V-57L118 -58H117V-59L118 -62Z"/>
</svg>