<svg xmlns="http://www.w3.org/2000/svg" viewBox="0 -256 256 256">
	<path fill="#000000" d="M115 -199H116Q120 -194 126 -194Q133 -193 133 -189L130 -185L132 -184L134 -185H135L140 -182V-183H141Q145 -180 145 -177Q145 -174 138 -172H137H130Q128 -171 124 -170L117 -158Q117 -155 115 -154V-153Q117 -153 120 -149Q118 -145 115 -145H112Q112 -143 111 -143V-144L101 -141Q96 -139 89 -138Q89 -137 86 -136L85 -135Q85 -133 87 -133L90 -134Q93 -132 99 -131Q99 -130 100 -130H101Q101 -131 104 -133H106L114 -136Q119 -140 121 -140L127 -137Q138 -135 138 -132V-131Q134 -124 128 -121L120 -115V-114L122 -108Q120 -105 115 -105Q115 -104 106 -102Q106 -101 102 -100L100 -101V-100L101 -99V-97V-94V-91L100 -90L101 -89H102Q108 -90 110 -92L114 -90H115Q117 -90 117 -87Q117 -81 110 -80Q110 -79 103 -78Q103 -77 100 -77V-72V-68H101Q102 -68 105 -70H109Q113 -67 116 -66V-64Q115 -60 111 -60H109H108Q108 -58 102 -57Q99 -56 99 -53V-51Q99 -45 103 -45L104 -46L106 -45Q113 -49 118 -50Q118 -51 120 -51H121L124 -48V-43Q124 -41 117 -39H114Q111 -37 98 -33L93 -31Q84 -26 80 -25Q75 -21 69 -17Q66 -17 57 -11L54 -8H51Q44 -16 39 -20V-21Q39 -23 56 -27Q56 -28 62 -30L80 -37Q80 -38 84 -38Q86 -39 86 -42V-48Q86 -49 84 -49Q80 -48 77 -45H74Q74 -43 72 -43Q70 -45 65 -46L62 -50V-51Q68 -53 76 -57L78 -56Q79 -58 85 -60L86 -61L84 -63V-65Q84 -68 83 -68H81L74 -65Q68 -66 66 -68L61 -72Q61 -73 67 -75Q77 -79 83 -81L84 -82V-86V-90L83 -95Q76 -92 73 -91L68 -89Q65 -84 62 -84Q58 -89 58 -90Q58 -91 49 -111Q49 -113 44 -119V-120Q45 -122 46 -122Q51 -118 61 -115H62L70 -119Q73 -121 76 -121Q76 -123 80 -123V-126Q80 -129 76 -132V-133L79 -136Q74 -141 74 -149Q73 -149 72 -153Q62 -150 55 -144H53L43 -153L39 -157V-158Q41 -159 53 -161Q53 -162 61 -164H63L68 -166Q63 -179 58 -181V-182Q56 -182 56 -185Q56 -187 62 -189H63Q67 -186 85 -180Q90 -177 90 -176L89 -172L90 -171Q93 -174 100 -174Q101 -176 108 -177V-179L109 -184Q109 -188 104 -194V-195Q107 -197 115 -199ZM196 -178H199Q201 -177 202 -173Q208 -169 215 -167Q217 -165 217 -162Q217 -157 210 -151Q191 -126 179 -114V-113Q179 -111 187 -110Q188 -109 197 -105Q206 -99 206 -97Q212 -87 214 -79Q215 -79 215 -76V-63Q214 -57 208 -52Q202 -48 200 -48H199Q198 -48 196 -53Q195 -53 192 -58Q191 -58 188 -62Q186 -63 180 -68Q173 -69 172 -72L173 -73H176Q182 -71 187 -71H188H190Q190 -69 192 -69V-70L190 -75V-77L191 -79L190 -80V-83Q188 -83 188 -90L180 -102Q178 -106 175 -106Q175 -107 170 -112Q170 -116 173 -119Q182 -140 182 -148V-149L169 -144Q166 -141 164 -141L163 -142L164 -138V-131L163 -127L164 -126V-119V-113L163 -111L164 -108V-78V-75V-71V-23Q164 -16 160 6Q158 9 158 13L152 23H151Q150 23 149 19L150 16V15Q150 11 151 11L150 2V-16Q148 -21 148 -30Q149 -30 150 -33L148 -38V-41V-42V-45V-50V-58L149 -71L148 -72V-75Q148 -76 150 -76L149 -79V-81L148 -82L149 -86L148 -101V-102V-105V-107Q148 -112 147 -115V-117V-118V-119V-123L146 -130L147 -132V-135Q147 -142 143 -144V-145L142 -144L141 -147V-149Q141 -150 148 -153Q153 -149 156 -149L158 -152H165Q165 -153 175 -156Q175 -157 182 -158L190 -167Q196 -173 196 -178ZM89 -161Q89 -152 86 -149L88 -148L87 -146V-145Q92 -145 97 -149L102 -151Q105 -151 106 -154Q107 -154 107 -162V-165V-166L106 -167ZM102 -124Q102 -116 101 -110H102Q104 -111 109 -113Q115 -113 115 -129L113 -130Q111 -128 102 -125ZM67 -110V-108V-107V-106V-104L66 -101Q67 -98 68 -98Q73 -100 76 -100Q83 -103 83 -104V-105L82 -107L83 -108H82V-113Q82 -116 81 -117Q72 -113 71 -113Q71 -111 67 -110Z"/>
</svg>