<svg xmlns="http://www.w3.org/2000/svg" viewBox="0 -256 256 256">
	<path fill="#000000" d="M172 -193H173Q178 -189 180 -187Q182 -185 188 -185H189Q190 -185 190 -184Q195 -182 197 -176V-174Q191 -166 184 -166L181 -167H178Q178 -166 169 -163Q168 -160 161 -158Q161 -157 155 -156Q153 -151 150 -151L143 -146Q149 -142 149 -136V-132V-131Q149 -130 150 -130H151V-129L150 -126L151 -124Q148 -123 143 -119H142Q139 -119 138 -127Q137 -130 136 -135Q134 -135 134 -139Q133 -140 130 -148H129V-144Q126 -135 126 -126L124 -119L125 -118L121 -96H122V-95Q117 -79 109 -72L106 -69H105V-70Q105 -80 96 -94V-95H95V-94L96 -91L95 -79V-73L96 -66H95V-65L96 -58V-57V-50V-48L97 -47V-45V-44L98 -33V-32L97 -31L98 -29V-27L99 -24L98 -23L99 -19L97 -17L98 -15V-14Q98 -9 93 2L90 5H89Q88 5 87 -1L88 -3L87 -6L86 -10V-29L87 -30V-41H88H87V-48Q87 -51 88 -51L87 -71V-72V-73V-74V-76V-82V-86L86 -89L87 -91V-92L86 -97L87 -98L86 -100L87 -102L86 -103L87 -105L86 -106V-109Q85 -130 82 -131V-132Q83 -135 86 -137V-139Q83 -143 81 -143L80 -145Q83 -145 93 -149Q95 -149 97 -151Q98 -151 100 -153L101 -152Q102 -153 113 -157L119 -162Q124 -156 128 -156Q129 -156 130 -152Q134 -149 141 -148Q145 -154 155 -162Q155 -164 162 -172Q162 -173 167 -180L168 -183Q166 -183 164 -186Q164 -191 171 -192ZM68 -178L73 -171Q79 -167 81 -164V-161Q81 -154 73 -154Q68 -149 61 -145Q49 -134 47 -131L50 -130L51 -128Q50 -122 49 -122V-120L50 -119H61Q65 -119 67 -114V-111Q67 -105 62 -102H61Q55 -110 55 -112L54 -111Q51 -116 50 -116H49L50 -113V-112Q50 -106 48 -103L49 -100V-95V-93V-90L48 -89L50 -87L49 -85V-82H50Q58 -89 60 -89Q60 -90 65 -92L68 -106V-112L67 -115L68 -119V-128L65 -132Q66 -136 68 -136H69Q76 -130 78 -130Q81 -130 81 -124V-122L79 -109V-103Q77 -98 77 -94V-91L71 -64Q68 -50 64 -42Q64 -40 61 -35Q60 -30 45 -11L36 -2L31 1H30L29 0L38 -7Q47 -17 50 -24Q52 -31 56 -38L58 -46L62 -65V-68L64 -70L63 -72L65 -75L64 -78L65 -81V-86H64Q64 -81 49 -63Q45 -57 42 -57Q38 -62 38 -69Q38 -72 40 -74L39 -77L40 -83V-84L39 -85L40 -87V-93Q40 -96 38 -101V-108Q35 -137 33 -137V-140H34L42 -134Q48 -138 61 -160Q64 -167 65 -171L64 -173V-174Q64 -176 68 -178ZM198 -169H200Q203 -165 210 -162Q214 -159 214 -156V-155Q210 -151 205 -149Q204 -149 183 -133Q176 -129 172 -124H169V-125V-126Q184 -140 187 -146Q193 -152 195 -160V-162L194 -163V-164Q195 -167 198 -169ZM162 -154H163Q164 -152 171 -151Q174 -147 174 -145V-142V-140L168 -134H167Q163 -137 163 -146Q162 -146 162 -149L161 -152V-153ZM113 -149Q113 -147 111 -147Q108 -147 97 -140V-141L88 -137Q88 -136 93 -132L95 -133Q95 -132 98 -131V-126L97 -125V-123H98L100 -125L102 -124L106 -125Q106 -124 108 -124Q111 -122 111 -119L110 -117L111 -116L107 -112H105L97 -120V-119Q96 -110 96 -109V-107V-103V-95Q98 -95 105 -91H106Q110 -99 111 -108L110 -110L111 -113V-114L112 -116L111 -117L112 -122V-123L114 -139L113 -140L114 -142L113 -143L114 -149ZM188 -132H189Q192 -129 193 -127V-128H194L196 -126H197H198Q200 -126 201 -121V-120Q201 -116 191 -112Q187 -108 180 -104L179 -102H178L177 -103L175 -98Q182 -96 182 -91H185Q187 -91 189 -93H195Q202 -97 206 -97L213 -101Q220 -101 227 -93V-90Q224 -84 220 -84L218 -86H214Q211 -86 210 -87L207 -86L205 -87Q205 -86 203 -86L198 -87Q194 -84 189 -84Q189 -83 186 -82L187 -79L186 -76Q187 -74 187 -71V-62V-55V-54V-53V-49L188 -45Q187 -43 187 -42V-36V-29L186 -27L187 -25Q185 -23 185 -18Q184 -18 182 -13L183 -12Q175 2 169 7Q166 12 160 17H159L158 16L159 9L157 8L158 6L153 -5L144 -13V-14L145 -15Q146 -13 156 -12L160 -13L162 -11Q164 -11 167 -20L168 -23L169 -24V-26Q173 -44 173 -64L172 -67L173 -70Q171 -79 170 -79Q168 -76 165 -76L164 -77Q161 -74 160 -74H159Q156 -72 150 -71L134 -62H132L124 -69Q122 -69 120 -72Q120 -73 122 -74L126 -73Q127 -74 132 -74Q136 -77 141 -78L143 -80L146 -79Q146 -81 153 -83L155 -84H157L164 -86L165 -85L168 -87H170V-88Q170 -91 162 -99V-100Q164 -103 165 -103L171 -100H172L173 -102L172 -104Q176 -105 176 -108L178 -117H177Q174 -115 169 -115L166 -112L165 -113Q162 -110 151 -106Q151 -104 147 -104L145 -102H142Q139 -106 136 -107L133 -112V-114V-115L135 -114L141 -115L144 -114L146 -116L147 -115Q148 -117 150 -117L153 -116L155 -118H159L162 -121L164 -120Q170 -122 180 -126Q182 -128 186 -130Z"/>
</svg>