<svg xmlns="http://www.w3.org/2000/svg" viewBox="0 -1000 1000 1000">
	<path fill="#000000" d="M696 -740L605 -847L594 -840L649 -685C651 -678 656 -677 661 -683C679 -701 690 -719 696 -740ZM930 -403L886 -441C863 -428 795 -414 721 -406C748 -499 765 -547 781 -559C788 -564 788 -569 784 -577L751 -630L876 -641C889 -642 890 -647 880 -655L844 -685C820 -674 762 -658 465 -634L504 -596C541 -607 574 -613 730 -629C730 -587 718 -513 690 -403L608 -395C626 -421 632 -435 640 -465L562 -587L546 -581L597 -395L443 -380L445 -501C445 -521 451 -535 468 -547C474 -551 474 -556 467 -562L427 -597L397 -561L347 -554V-688L515 -704C525 -705 526 -709 518 -717L477 -756C447 -740 384 -720 59 -697L98 -658C111 -663 139 -668 225 -678C227 -625 227 -579 226 -540L170 -533L147 -595L129 -592C134 -567 137 -525 138 -458L145 -120C146 -73 141 -51 128 -30L164 42C169 52 174 53 177 42C181 25 183 -3 182 -31L383 -50L408 -3C412 5 418 5 421 -3C430 -26 437 -70 439 -172L442 -352L458 -339C485 -347 558 -359 928 -389C940 -390 940 -394 930 -403ZM830 -270L790 -317L757 -274L568 -250L541 -317L522 -311C532 -263 535 -233 535 -205L539 -107C541 -59 536 -27 521 -1L562 76C565 82 572 82 575 75C581 63 582 42 578 -26L813 -50C822 -51 824 -56 815 -63L785 -89L805 -212C810 -239 813 -247 828 -257C833 -260 833 -265 830 -270ZM309 -550L265 -544C267 -586 267 -630 266 -681L309 -685ZM406 -525L405 -340L393 -352C353 -340 347 -344 347 -366V-517ZM225 -502C220 -406 206 -348 179 -299L176 -496ZM405 -315L404 -196C403 -131 397 -93 388 -73L368 -89C345 -81 299 -74 182 -61L178 -263C225 -313 253 -382 263 -508L309 -513V-374C309 -326 313 -312 350 -309C361 -308 386 -311 405 -315ZM764 -236L742 -83L577 -60L572 -218ZM370 -211L343 -237C326 -229 297 -221 201 -209L237 -178C255 -185 316 -194 367 -198C374 -198 377 -205 370 -211Z"/>
</svg>