<svg xmlns="http://www.w3.org/2000/svg" viewBox="0 -1000 1000 1000">
	<path fill="#000000" d="M851 -698C856 -702 856 -709 851 -714L812 -749L784 -715L719 -708C724 -751 728 -772 739 -787C742 -792 742 -796 738 -802L691 -859L680 -851C689 -823 689 -772 684 -706L616 -700C617 -741 620 -759 625 -769C629 -777 628 -782 619 -791L576 -836L564 -830C580 -796 583 -776 584 -698L509 -692L482 -756L465 -751C470 -729 477 -688 478 -663L481 -560C482 -535 479 -519 471 -501L505 -445C511 -436 517 -436 518 -449C519 -453 519 -459 519 -466L817 -487C832 -488 832 -493 820 -503L801 -519L823 -647C828 -676 833 -686 851 -698ZM445 -741L410 -769C388 -752 357 -743 80 -719L121 -686C137 -692 159 -695 225 -703C226 -668 226 -632 225 -575L174 -570L145 -645L131 -639C136 -606 138 -560 138 -496L139 -173C139 -109 134 -82 123 -63L154 -2C162 14 167 12 170 -4C174 -25 175 -49 176 -79L338 -102L367 -49C374 -38 379 -39 382 -51C390 -78 392 -91 397 -183L417 -530C417 -550 421 -561 433 -570C439 -575 440 -582 435 -586L399 -619L374 -589L329 -585V-714L442 -726C452 -727 453 -734 445 -741ZM799 -327L771 -351C754 -341 706 -332 526 -316L566 -282C589 -289 623 -294 795 -311C808 -312 810 -317 799 -327ZM929 35V20C821 15 794 -2 714 -94C787 -153 800 -162 818 -167C828 -170 830 -176 825 -183L800 -219L863 -224C881 -225 881 -230 867 -241L829 -269C809 -253 764 -243 498 -224C506 -265 512 -309 518 -374L834 -401C845 -402 847 -408 837 -416L802 -443C779 -429 741 -421 515 -404L490 -450L475 -445C481 -399 476 -328 462 -234C445 -114 410 -38 319 77L332 87C432 -11 472 -91 496 -211L517 -192C521 -193 527 -194 533 -195V-21C533 17 526 30 502 56L538 83C545 87 550 86 555 79C571 53 583 39 676 -42L667 -54L569 11V-201L590 -203L787 49ZM294 -581L259 -578C262 -634 263 -671 262 -706L294 -711ZM683 -677L678 -615L615 -608L616 -671ZM791 -686L767 -517L699 -510L707 -590L764 -594C778 -595 779 -600 767 -610L742 -630C734 -625 722 -621 710 -619L716 -679ZM675 -588L668 -507L617 -502V-583ZM380 -558L369 -362C333 -351 329 -355 329 -403V-552ZM224 -542C221 -438 208 -371 175 -308V-538ZM368 -326L363 -229C359 -160 355 -134 345 -119L326 -140C305 -132 279 -126 175 -110V-280L181 -279C232 -359 252 -414 258 -545L294 -549V-412C294 -340 302 -333 335 -327C346 -325 357 -325 368 -326ZM780 -218C774 -193 756 -165 700 -112L619 -205ZM355 -243L331 -265C314 -257 275 -247 190 -238L217 -211C236 -217 277 -223 349 -229C360 -230 362 -237 355 -243ZM514 -602L512 -663L584 -669V-607ZM514 -600L550 -573C561 -576 574 -578 585 -580V-500L518 -495Z"/>
</svg>