<svg xmlns="http://www.w3.org/2000/svg" viewBox="0 -1000 1000 1000">
	<path fill="#000000" d="M500 -559C502 -580 497 -612 484 -639L324 -708C351 -756 366 -774 379 -783C386 -788 387 -791 382 -797L337 -860L320 -856C328 -774 225 -568 51 -377L62 -366C109 -409 150 -444 191 -497L237 -476C254 -482 281 -489 300 -494V-370L123 -343L184 -304C206 -315 250 -327 300 -335V-73L84 -21L139 22C177 3 214 -11 490 -98L484 -115L341 -81V-340L498 -363C507 -364 507 -371 499 -376L449 -408C428 -395 399 -386 341 -376V-499L461 -517C474 -519 475 -525 463 -531L416 -556C372 -537 335 -529 201 -513C226 -546 271 -619 312 -687C381 -647 401 -633 486 -556C495 -548 499 -549 500 -559ZM928 22C913 -45 900 -137 899 -185L880 -183L872 -11C812 14 722 19 623 -2C539 -18 531 -86 589 -221C653 -370 716 -494 787 -609C797 -627 818 -647 843 -663C853 -669 853 -674 843 -683L792 -726L749 -673L502 -635L559 -595C598 -613 634 -622 753 -641C630 -414 572 -292 542 -215C477 -50 509 28 651 42C758 52 869 48 919 36C927 34 929 29 928 22ZM469 -272L426 -326L413 -318C418 -281 412 -253 372 -144L387 -137C426 -213 450 -243 466 -255C472 -260 473 -266 469 -272ZM253 -167L191 -264L173 -259L215 -116C218 -108 222 -107 228 -114C238 -124 245 -137 253 -167Z"/>
</svg>