<svg xmlns="http://www.w3.org/2000/svg" viewBox="0 -1000 1000 1000">
	<path fill="#000000" d="M808 -673L695 -745L687 -734L789 -612C798 -599 802 -599 806 -617C808 -628 809 -640 808 -673ZM944 -72V-91C830 -104 820 -111 739 -309L657 -501L874 -529C888 -531 888 -534 877 -543L839 -576C808 -564 733 -545 648 -535C648 -731 651 -751 664 -774C667 -780 666 -786 660 -791L596 -846L583 -837C603 -787 608 -759 608 -634V-530L418 -508L467 -469C507 -480 542 -487 583 -492C544 -350 500 -255 424 -139L299 -97V-343L450 -374C462 -376 463 -381 454 -389L419 -419C407 -410 341 -386 299 -377V-488L420 -513C431 -515 432 -520 424 -527L392 -553C352 -535 311 -523 172 -497C217 -555 250 -615 286 -690C377 -634 384 -629 452 -568C463 -558 468 -560 468 -571C468 -594 466 -609 458 -637L295 -710C315 -752 318 -757 327 -769C333 -777 334 -783 330 -789L292 -853L279 -851C279 -719 172 -518 40 -374L52 -363C95 -407 136 -448 164 -486L198 -462C216 -470 239 -476 261 -481V-371L109 -340L158 -306C183 -316 225 -328 261 -336V-85L64 -19L133 11C163 -7 202 -25 403 -110C386 -85 366 -59 346 -31L363 -18C486 -152 562 -293 608 -420V-151C608 -42 599 8 586 29L625 101C632 113 638 114 642 98C647 77 648 48 648 -80V-442L792 -62ZM410 -292L374 -338L362 -334C364 -290 358 -259 317 -157L334 -151C387 -246 394 -256 405 -267C414 -276 415 -284 410 -292ZM225 -191L150 -278L137 -271L189 -143C194 -133 198 -133 205 -142C213 -154 219 -168 225 -191Z"/>
</svg>