<svg xmlns="http://www.w3.org/2000/svg" viewBox="0 -1000 1000 1000">
	<path fill="#000000" d="M503 -111L498 -129L329 -82V-349L481 -369C491 -370 492 -376 482 -383L444 -411C434 -403 384 -389 329 -380V-498L430 -511C442 -512 444 -516 434 -525L402 -550C366 -536 325 -526 205 -509C245 -564 284 -628 321 -698C368 -657 419 -606 462 -554C468 -547 472 -548 475 -555C479 -570 479 -586 475 -623L331 -716C346 -746 351 -755 361 -764C367 -769 367 -774 363 -782L321 -854L309 -848C319 -753 203 -523 40 -352L50 -340C91 -374 141 -424 191 -490L211 -476C230 -481 264 -489 290 -493V-376L105 -352L153 -318C178 -326 237 -338 290 -345V-72L70 -8L133 30C198 -6 231 -21 503 -111ZM964 -43L921 -80C906 -68 839 -55 696 -40V-378L875 -400C887 -401 887 -407 877 -415L837 -445C800 -430 767 -421 696 -412V-678L890 -699C904 -701 905 -708 894 -716L851 -747C810 -730 720 -711 467 -686L514 -647C541 -656 606 -668 656 -674V-406L505 -386L542 -351C558 -357 595 -365 656 -374V-36L388 -9L442 30C548 8 640 -6 962 -29C973 -30 974 -34 964 -43ZM468 -275L432 -333L418 -328C421 -298 407 -242 355 -137L369 -128C440 -240 451 -252 465 -260C471 -264 473 -268 468 -275ZM863 -203L750 -303L739 -292L837 -130C844 -118 850 -119 853 -128C859 -145 861 -165 863 -203ZM245 -178L166 -282L153 -274L210 -111C214 -99 221 -99 227 -110C234 -122 239 -142 245 -178Z"/>
</svg>