<svg xmlns="http://www.w3.org/2000/svg" viewBox="0 -1000 1000 1000">
	<path fill="#000000" d="M691 -717L596 -851L582 -844L649 -650C653 -638 658 -636 666 -649C679 -670 689 -696 691 -717ZM918 -630L867 -659C804 -632 762 -622 457 -581C455 -596 451 -613 448 -629L292 -699C307 -733 316 -748 325 -754C330 -758 330 -765 327 -771L283 -838L266 -830C280 -745 179 -520 39 -338L53 -325C94 -366 125 -400 167 -468L190 -452C209 -461 236 -469 273 -477V-351L117 -321L168 -287C199 -298 235 -309 273 -318V-69L88 -13L146 31C183 7 229 -18 486 -111L480 -129L312 -80V-325L447 -349C461 -352 462 -358 449 -368L415 -393C397 -384 352 -369 312 -359V-484L416 -504C430 -507 432 -511 419 -521L387 -546C328 -520 271 -505 182 -492C210 -539 248 -609 282 -678C345 -638 400 -597 446 -551C453 -544 459 -547 458 -563L503 -540C535 -553 582 -566 621 -573C625 -535 613 -498 567 -408C519 -309 500 -293 459 -277L502 -239C509 -234 513 -234 519 -237C549 -256 606 -271 671 -282C529 -33 510 -13 445 4L487 48C492 54 497 54 505 51C551 29 706 -8 800 -23C812 1 823 24 836 50C840 59 844 60 850 51C863 28 867 1 867 -29L729 -179L711 -167C741 -123 765 -84 786 -46L539 -8L719 -292C783 -393 796 -410 806 -417C813 -422 814 -427 810 -434L761 -504L747 -495C753 -445 740 -403 689 -314L542 -291L623 -437C647 -480 662 -502 676 -515C684 -521 685 -525 678 -533L646 -577L916 -613C932 -616 932 -621 918 -630ZM440 -270L400 -318L384 -311C390 -279 382 -245 341 -140L357 -134C402 -211 422 -238 438 -253C444 -258 444 -264 440 -270ZM235 -162L162 -248L148 -239L197 -106C201 -95 205 -95 213 -104C224 -117 231 -135 235 -162Z"/>
</svg>