<svg xmlns="http://www.w3.org/2000/svg" viewBox="0 -1000 1000 1000">
	<path fill="#000000" d="M877 -711C883 -716 884 -721 874 -730L830 -767L805 -721L450 -673L500 -638C514 -643 540 -648 612 -659C604 -517 525 -374 443 -280L453 -268C528 -333 602 -438 642 -566C646 -579 654 -594 660 -601C667 -607 667 -614 662 -623L638 -663L807 -687C785 -526 759 -441 742 -413L649 -473L639 -460C688 -409 721 -370 740 -344C747 -334 751 -334 760 -344C787 -373 794 -387 844 -648C849 -675 862 -699 877 -711ZM478 -143L473 -164L312 -120V-383L445 -409C456 -411 457 -417 446 -424L412 -447C394 -435 360 -425 312 -416V-520L398 -537C412 -540 414 -546 401 -554L367 -574C351 -564 291 -546 201 -531C241 -591 270 -643 299 -705L450 -566C457 -559 462 -560 463 -571C465 -593 464 -612 460 -631L309 -727C317 -744 326 -757 333 -761C344 -767 346 -772 338 -783L298 -841L285 -835C291 -757 194 -536 53 -376L68 -365C112 -410 155 -461 193 -517L218 -498C235 -503 253 -508 274 -513V-410L112 -381L162 -351C185 -359 206 -364 274 -377V-110L76 -54L134 -18C162 -35 194 -48 478 -143ZM430 -312L402 -363L389 -357C391 -327 369 -260 336 -178L352 -170C407 -267 417 -282 428 -291C435 -297 435 -302 430 -312ZM237 -224L155 -317L143 -310L202 -164C207 -153 213 -151 218 -163C227 -181 233 -200 237 -224ZM857 -301L813 -341L786 -300L551 -268L520 -318L505 -314C516 -265 521 -221 523 -179L530 -33C531 -1 527 21 520 35L555 92C564 108 570 107 571 91C573 76 573 41 570 -2L825 -28C844 -29 846 -35 830 -47L801 -68L829 -225C836 -259 842 -270 855 -281C865 -290 864 -294 857 -301ZM790 -267L760 -59L569 -36L559 -234Z"/>
</svg>