<svg xmlns="http://www.w3.org/2000/svg" viewBox="0 -1000 1000 1000">
	<path fill="#000000" d="M861 -684C868 -690 868 -694 861 -700L813 -738L786 -697L556 -680L510 -755L494 -746C506 -711 511 -684 512 -631L518 -286C518 -259 511 -237 501 -227L541 -151C547 -140 552 -140 556 -154C558 -163 560 -176 561 -197L841 -217C852 -218 852 -223 845 -230L810 -262L838 -636C839 -655 845 -671 861 -684ZM490 -126L484 -145L314 -99V-357L457 -376C467 -377 467 -382 460 -388L421 -418C408 -408 367 -395 314 -389V-499L434 -516C445 -518 446 -523 436 -530L398 -558C367 -542 324 -530 179 -518C221 -576 266 -648 303 -719C360 -668 397 -627 430 -584C436 -576 442 -576 445 -585C450 -601 450 -621 446 -650L315 -741C324 -756 327 -762 338 -773C344 -779 345 -782 340 -789L295 -848L279 -845C278 -752 206 -586 30 -376L41 -365C86 -408 138 -463 168 -503L198 -478C214 -483 240 -489 271 -494V-384L108 -365L141 -330C164 -335 193 -339 271 -350V-87L64 -29L136 5C174 -15 229 -37 490 -126ZM458 -292L418 -343L404 -335C405 -303 395 -263 340 -160L357 -150C416 -238 441 -266 454 -275C462 -281 462 -286 458 -292ZM226 -172L148 -292L134 -284L188 -117C192 -107 196 -106 204 -117C211 -128 218 -146 226 -172ZM940 -47L904 -80C858 -66 799 -57 386 -34L425 9C479 -1 573 -9 935 -32C949 -33 949 -39 940 -47ZM793 -661L768 -250L560 -234L558 -414L751 -436C761 -437 762 -441 754 -448L715 -483C692 -469 662 -461 557 -449L553 -641Z"/>
</svg>