<svg xmlns="http://www.w3.org/2000/svg" viewBox="0 -1000 1000 1000">
	<path fill="#000000" d="M484 -121L480 -137L317 -95V-374L459 -395C474 -397 475 -402 463 -412L433 -435C414 -424 372 -412 317 -403V-516L439 -534C452 -536 453 -539 443 -548L407 -576C378 -558 351 -551 192 -528C230 -578 261 -631 302 -704C377 -652 430 -613 467 -574C475 -565 481 -566 482 -578C483 -593 480 -621 475 -638L311 -723C330 -757 343 -777 351 -783C359 -789 359 -795 355 -801L314 -864L301 -859C298 -751 200 -561 37 -377L51 -366C98 -412 147 -466 180 -512L206 -493C223 -499 250 -506 279 -511V-398L107 -374L156 -340C186 -350 226 -360 279 -369V-85L71 -28L128 9C158 -9 207 -30 484 -121ZM878 -694L832 -733L805 -694L555 -661L524 -755L510 -750C515 -725 522 -645 522 -616V-115C521 -67 517 -42 504 -14L536 69C541 83 547 83 551 69C556 54 559 24 560 -22L769 -41L796 34C801 47 807 48 811 36C819 14 824 -15 828 -89L857 -630C858 -650 861 -661 877 -676C885 -684 885 -688 878 -694ZM448 -296L407 -350L396 -346C401 -307 394 -256 356 -148L372 -140C425 -247 436 -266 446 -278C452 -283 453 -290 448 -296ZM241 -178L164 -306L152 -298L198 -122C201 -109 207 -109 216 -122C225 -135 236 -159 241 -178ZM817 -661L797 -205C794 -141 786 -91 775 -63L740 -84C709 -74 674 -67 560 -55V-256L762 -279C775 -280 776 -284 766 -293L733 -323C705 -310 657 -299 560 -288L559 -435L762 -460C775 -462 776 -467 766 -474L727 -502C712 -492 686 -485 559 -469V-626Z"/>
</svg>