<svg xmlns="http://www.w3.org/2000/svg" viewBox="0 -1000 1000 1000">
	<path fill="#000000" d="M891 -717L858 -751C830 -738 672 -708 454 -699L494 -660C527 -668 559 -673 638 -680C616 -602 524 -473 407 -366L416 -354C492 -409 582 -497 622 -558C625 -540 627 -514 627 -478V-442C627 -423 620 -404 607 -384L647 -321C653 -311 659 -311 661 -322C665 -344 667 -372 667 -399V-466C667 -530 667 -534 669 -538C672 -546 671 -551 665 -557L641 -584C659 -607 676 -623 691 -630C698 -633 699 -637 692 -647L667 -682L889 -702C898 -703 899 -708 891 -717ZM878 -453L696 -584L685 -567C744 -519 820 -435 856 -384C860 -377 867 -377 870 -386C877 -408 878 -422 878 -453ZM450 -566C450 -577 448 -606 446 -634L307 -713C318 -735 325 -745 332 -749C341 -755 341 -761 336 -772L306 -844L290 -840C293 -749 172 -510 54 -376L68 -363C114 -412 158 -463 188 -505L212 -487C227 -492 245 -497 264 -500V-400L99 -377L145 -340C158 -346 208 -359 264 -369V-91L80 -39L143 -1C176 -19 225 -40 427 -115L422 -133L302 -101V-374L427 -394C440 -397 442 -400 431 -410L399 -437C380 -427 343 -415 302 -405V-508L380 -523C396 -526 398 -530 382 -540L355 -557C338 -549 310 -541 198 -520C235 -570 265 -626 298 -691C344 -655 394 -609 433 -563C444 -549 450 -551 450 -566ZM422 -293L395 -350L382 -346C381 -307 357 -236 310 -143L326 -136C386 -234 408 -263 420 -270C428 -275 429 -278 422 -293ZM234 -194L151 -310L137 -301L192 -137C196 -125 201 -123 207 -134C218 -152 227 -171 234 -194ZM891 -191L855 -231C838 -223 802 -217 671 -206C671 -234 674 -248 685 -263C690 -271 690 -276 682 -282L621 -328L611 -322C627 -286 631 -250 631 -204L415 -190L458 -148C480 -155 537 -162 631 -168V-33C631 -1 627 15 616 33L651 93C658 105 663 105 667 91C670 79 671 66 671 16V-171C731 -174 803 -177 888 -179C898 -179 898 -184 891 -191Z"/>
</svg>