<svg xmlns="http://www.w3.org/2000/svg" viewBox="0 -1000 1000 1000">
	<path fill="#000000" d="M464 -125L461 -143L297 -109V-370L423 -386C437 -388 438 -391 428 -400L395 -430C378 -422 334 -409 297 -400V-520L409 -537C422 -539 423 -545 410 -553L369 -579C336 -563 301 -554 182 -537C209 -577 243 -632 289 -709L416 -599C427 -591 431 -592 432 -601C435 -619 433 -637 427 -666L302 -733C316 -757 324 -768 331 -773C339 -779 340 -783 336 -792L301 -858L281 -853C294 -788 205 -612 25 -379L36 -370C86 -419 129 -462 162 -508L195 -495C208 -501 235 -509 258 -515V-394L104 -372L155 -337C170 -343 223 -357 258 -365V-102L53 -57L122 -15C156 -36 220 -59 464 -125ZM918 -647L885 -674C840 -659 809 -654 630 -634C659 -726 668 -749 691 -774C701 -785 701 -788 694 -797L642 -859L628 -851C636 -792 632 -745 585 -629L438 -612L502 -574C512 -580 532 -586 572 -593C527 -485 504 -448 417 -320L430 -312C460 -339 497 -380 527 -427V-111C527 -67 518 -29 504 -2L538 69C543 79 550 80 554 70C561 52 564 29 564 -70V-192L737 -217C748 -219 749 -224 740 -231L707 -257C688 -246 629 -235 564 -228V-313L729 -336C739 -337 739 -342 730 -350L700 -375C685 -368 652 -361 564 -344V-437L762 -465V-82C762 -40 759 -18 753 -1L660 -50L653 -38C696 -2 740 42 771 82C775 88 782 87 786 81C799 60 804 28 804 -38V-438C804 -454 810 -469 824 -488C829 -495 828 -501 820 -506L776 -534L749 -495L559 -471L556 -477C577 -512 596 -552 616 -599L913 -631C928 -633 930 -637 918 -647ZM416 -292L375 -343L363 -338C368 -292 367 -282 327 -157L342 -150C374 -214 393 -247 413 -271C421 -280 421 -285 416 -292ZM215 -183L151 -295L133 -287L174 -141C175 -135 179 -133 187 -140C201 -152 208 -162 215 -183Z"/>
</svg>