<svg xmlns="http://www.w3.org/2000/svg" viewBox="0 -1000 1000 1000">
	<path fill="#000000" d="M682 -750L592 -850L580 -841L645 -689C650 -676 655 -676 661 -686C670 -700 678 -722 682 -750ZM460 -119L455 -137L306 -94V-376L444 -396C457 -398 458 -402 448 -411L414 -438C397 -429 355 -418 306 -409V-516L413 -535C424 -537 425 -543 417 -550L388 -575C338 -554 289 -542 195 -528C231 -580 266 -638 293 -689C352 -651 399 -619 444 -584C453 -577 458 -580 457 -590C456 -601 452 -622 442 -655L301 -705C316 -735 328 -755 334 -763C339 -770 340 -774 336 -781L297 -843L284 -838C293 -744 192 -553 41 -375L55 -365C100 -411 146 -463 183 -513L211 -494C226 -499 248 -506 267 -510V-403L108 -384L154 -347C173 -355 201 -361 267 -371V-83L76 -25L135 12C170 -7 203 -23 460 -119ZM974 37V22C849 14 826 0 710 -176C779 -237 798 -252 822 -265C830 -269 831 -273 828 -283L806 -341L791 -338C790 -301 764 -264 696 -198L599 -346L804 -370C817 -371 818 -375 807 -385L786 -403L808 -604C811 -633 817 -644 832 -656C839 -662 839 -669 834 -673L790 -714L761 -675L542 -647L508 -731L491 -726C494 -685 495 -646 495 -586V-75C495 14 489 24 449 54L497 85C503 89 508 88 513 80C523 63 536 46 679 -88L668 -104L534 -2V-338L568 -343L808 53ZM419 -278C424 -285 424 -290 419 -296L381 -347L368 -339C378 -303 373 -261 335 -146L347 -142C394 -239 403 -255 419 -278ZM237 -185L161 -303L149 -297L197 -129C200 -119 203 -118 212 -127C222 -137 231 -158 237 -185ZM767 -641L747 -400L534 -371V-476L715 -501C727 -502 729 -507 719 -516L690 -543C673 -534 640 -525 534 -506V-614Z"/>
</svg>