<svg xmlns="http://www.w3.org/2000/svg" viewBox="0 -1000 1000 1000">
	<path fill="#000000" d="M472 -140L469 -155L313 -120V-380L429 -397C443 -399 445 -404 434 -413L407 -437C395 -430 358 -419 313 -411V-510L425 -528C438 -530 438 -535 428 -543L396 -567C362 -551 313 -538 193 -521C231 -576 265 -634 299 -700C342 -673 393 -634 435 -597C445 -589 451 -591 451 -603C451 -616 449 -633 443 -664L310 -724C327 -761 334 -774 340 -780C349 -789 349 -795 344 -802L301 -864L288 -859C303 -769 212 -580 47 -376L59 -365C99 -404 152 -464 182 -503L207 -487C225 -493 247 -498 276 -503V-405L105 -381L151 -348C176 -356 227 -367 276 -374V-113L68 -65L130 -27C161 -43 235 -70 472 -140ZM604 -357L538 -423C548 -450 556 -468 564 -481C573 -497 573 -501 567 -509L529 -556L518 -552C531 -504 503 -397 431 -263L446 -255C472 -290 503 -340 528 -398C546 -365 555 -346 573 -301C579 -286 585 -286 591 -300C597 -315 602 -335 604 -357ZM965 48V31C837 17 817 8 685 -258C711 -296 745 -353 768 -402C800 -359 826 -320 845 -280C852 -266 857 -265 863 -276C869 -286 873 -304 873 -337L776 -421C796 -465 804 -482 811 -491C818 -502 818 -510 814 -516L775 -577L763 -572C773 -525 748 -411 672 -279L656 -313C667 -367 678 -471 685 -605L898 -625C915 -626 917 -630 902 -641L856 -672C835 -659 778 -646 687 -636C693 -728 697 -753 707 -771C713 -781 713 -787 705 -794L640 -860L628 -851C644 -819 650 -771 646 -632L456 -614L502 -580C524 -586 579 -595 646 -602C636 -241 581 -97 302 81L310 96C487 1 596 -102 646 -273L804 59ZM430 -300L398 -349L384 -344C385 -296 374 -243 335 -162L346 -154C402 -250 411 -263 428 -280C434 -286 435 -293 430 -300ZM232 -214L157 -317L144 -310L196 -161C202 -144 207 -143 217 -161C224 -173 229 -191 232 -214Z"/>
</svg>