<svg xmlns="http://www.w3.org/2000/svg" viewBox="0 -1000 1000 1000">
	<path fill="#000000" d="M817 -781L768 -816L744 -776L462 -746L512 -706C550 -720 587 -726 749 -745L743 -666L481 -639L529 -601C556 -613 586 -618 742 -635L736 -553C681 -543 615 -534 457 -518L505 -478C542 -491 575 -496 790 -523C809 -525 811 -531 799 -543L774 -568L790 -712C793 -735 799 -747 816 -763C823 -769 824 -775 817 -781ZM436 -114L430 -132L283 -88V-360L410 -378C424 -380 426 -385 417 -393L387 -420C375 -414 326 -400 283 -392V-510L384 -525C401 -528 400 -534 389 -542L354 -568C315 -550 286 -542 167 -528C197 -573 229 -626 268 -698C317 -667 348 -645 389 -609C400 -600 405 -600 406 -612C407 -624 405 -645 400 -671L278 -716C290 -738 294 -745 308 -758C316 -765 316 -772 310 -780L264 -844L250 -838C262 -743 158 -557 28 -387L40 -375C78 -412 111 -448 149 -499L172 -486C188 -492 215 -500 240 -503V-386L92 -366L146 -332C168 -340 201 -348 240 -355V-76L46 -17L114 20C151 -6 200 -28 436 -114ZM908 -459L864 -499L832 -456L474 -408C474 -423 472 -435 470 -445H452C444 -382 434 -358 411 -333L423 -275C426 -260 431 -261 438 -270C457 -296 470 -331 473 -374L820 -419L794 -352L807 -345C851 -398 862 -409 905 -439C915 -446 915 -452 908 -459ZM399 -293L361 -342L346 -335C351 -288 349 -276 311 -163L325 -155C365 -231 383 -258 397 -271C404 -277 404 -285 399 -293ZM211 -189L149 -289L131 -281L172 -127C189 -140 201 -155 211 -189ZM956 52V33C840 24 797 13 675 -117C707 -156 745 -213 768 -259C774 -271 786 -285 808 -304C817 -312 818 -318 808 -325L761 -361L729 -326L474 -294L537 -255C583 -273 612 -279 733 -294C719 -248 692 -198 650 -147C613 -190 593 -223 584 -242L526 -241C555 -214 586 -179 632 -123C558 -45 473 9 336 74L341 90C460 52 571 -5 654 -94L786 65Z"/>
</svg>