<svg xmlns="http://www.w3.org/2000/svg" viewBox="0 -1000 1000 1000">
	<path fill="#000000" d="M882 -682L841 -714C817 -698 708 -673 551 -653C601 -741 608 -752 618 -755C627 -758 628 -764 622 -776L582 -851L565 -844C571 -784 513 -623 416 -505L434 -492C458 -518 506 -582 540 -635L569 -614C613 -627 678 -638 881 -668C894 -670 894 -673 882 -682ZM445 -404L413 -432C402 -426 349 -412 298 -402V-511L399 -528C411 -530 411 -535 403 -542L371 -570C330 -551 290 -541 179 -524C215 -574 246 -627 284 -694C341 -655 392 -616 421 -585C431 -574 438 -575 439 -590C440 -602 438 -623 433 -649L296 -718C311 -748 317 -760 327 -768C335 -774 336 -779 331 -788L292 -849L277 -843C271 -746 186 -549 39 -393L52 -380C96 -424 134 -465 164 -507L190 -487C214 -495 240 -501 259 -504V-396L90 -373L136 -336C154 -342 211 -356 259 -364V-102L52 -38L119 -4C156 -25 228 -56 441 -134L435 -154L298 -113V-369L441 -389C453 -391 453 -397 445 -404ZM945 -359L903 -391C889 -380 843 -367 800 -362C802 -398 804 -435 806 -469C808 -499 816 -522 834 -534C842 -539 843 -546 835 -551L783 -589L758 -550L566 -524L540 -603L522 -600C526 -546 523 -502 520 -474L505 -331L400 -320L449 -284C461 -288 468 -290 502 -296L491 -196C485 -140 482 -135 453 -120L484 -81C488 -75 494 -75 501 -83C512 -94 521 -100 555 -103L743 -120C735 -47 722 5 712 28L621 -41L608 -30C665 31 690 63 712 92C718 100 727 100 731 92C756 48 772 -9 785 -124L909 -135C923 -136 924 -142 911 -151L867 -183C857 -175 824 -166 787 -159C791 -208 795 -267 798 -327L942 -342C956 -343 957 -349 945 -359ZM412 -291L381 -345L366 -341C365 -296 354 -240 315 -157L333 -151C377 -230 393 -255 409 -270C416 -277 416 -283 412 -291ZM218 -201L141 -298L128 -289L185 -148C190 -137 196 -137 200 -145C210 -165 215 -179 218 -201ZM767 -516C764 -460 762 -407 759 -358L546 -335L563 -489ZM758 -323C755 -259 751 -199 746 -155L524 -132L543 -300ZM686 -418L619 -478L606 -468L658 -371C663 -361 668 -361 673 -369C681 -383 685 -398 686 -418ZM677 -222L609 -291L597 -282L647 -176C652 -165 658 -164 664 -174C672 -188 674 -195 677 -222Z"/>
</svg>