<svg xmlns="http://www.w3.org/2000/svg" viewBox="0 -1000 1000 1000">
	<path fill="#000000" d="M328 -703C330 -719 327 -738 320 -759L189 -809L183 -797L317 -695C325 -690 327 -691 328 -703ZM239 -594C241 -611 240 -630 236 -652L105 -703L97 -693L227 -588C235 -582 238 -583 239 -594ZM847 -622L809 -655C776 -642 727 -632 580 -620C590 -642 597 -656 617 -696C620 -700 621 -706 619 -710L606 -731C645 -738 667 -743 695 -749C740 -759 773 -764 791 -765C799 -765 801 -770 794 -775L734 -823L723 -820C707 -794 610 -760 390 -721L393 -705C447 -711 490 -716 569 -726C566 -694 554 -655 533 -618L339 -602L390 -564C406 -570 463 -579 508 -584C466 -529 395 -473 295 -415L303 -401C412 -453 511 -518 560 -588L843 -610C858 -611 857 -614 847 -622ZM360 -663L350 -668L181 -442L112 -479L104 -467C130 -446 158 -412 181 -374C185 -367 191 -366 195 -374ZM819 -403C819 -420 811 -451 802 -472L583 -566L576 -554L809 -396C816 -391 819 -392 819 -403ZM954 -188V-206C853 -213 777 -241 710 -286L512 -420C540 -427 542 -432 537 -443L512 -492L503 -493C465 -420 297 -281 47 -155L53 -139C210 -204 316 -267 491 -406L798 -173ZM838 -6L785 -43C762 -33 685 -22 597 -19C635 -67 650 -82 661 -90C667 -94 667 -98 664 -104L636 -146L628 -144C622 -118 609 -90 566 -18L502 -17V-143L726 -158C737 -159 737 -162 728 -169L680 -204C651 -189 590 -181 502 -176V-247L633 -258C644 -260 644 -263 635 -269L593 -298C555 -282 524 -276 307 -265L347 -230C365 -235 413 -242 461 -244V-174L199 -162L241 -122C272 -127 340 -133 461 -141V-15L363 -12C368 -23 373 -41 376 -65L287 -119L280 -115L348 -11L130 -3L177 41C238 27 290 23 836 4C846 4 846 -1 838 -6Z"/>
</svg>