<svg xmlns="http://www.w3.org/2000/svg" viewBox="0 -1000 1000 1000">
	<path fill="#000000" d="M433 -643L299 -736C315 -765 320 -772 326 -776C331 -780 332 -785 329 -790L290 -854L277 -849C285 -765 181 -563 38 -393L49 -384C147 -483 206 -575 288 -718L417 -586C422 -580 428 -581 431 -590C435 -606 435 -624 433 -643ZM907 -720C912 -724 912 -730 907 -734L861 -772L830 -730L496 -691L461 -773L449 -767C454 -742 458 -693 458 -667L467 -163C469 -57 465 -33 448 -9L485 92C488 99 495 100 498 92C501 83 505 31 506 -11L802 -40L828 23C832 33 838 32 842 23C851 1 857 -55 861 -143L882 -666C883 -691 890 -707 907 -720ZM454 -131L448 -148L291 -97V-372L429 -394C437 -395 437 -400 431 -405L391 -434C368 -420 350 -413 291 -402V-511L404 -529C413 -530 414 -535 405 -541L371 -566C345 -551 324 -543 168 -519L199 -490C210 -495 236 -503 254 -506V-396L100 -373L147 -341C170 -349 198 -357 254 -366V-85L66 -22L127 12C164 -10 224 -37 454 -131ZM421 -300L381 -359L369 -354C374 -310 369 -262 314 -143L330 -137C397 -263 404 -274 417 -286C423 -292 424 -295 421 -300ZM219 -182L152 -298L141 -292L185 -128C187 -119 192 -118 197 -126C208 -141 215 -160 219 -182ZM843 -698L826 -223C823 -126 817 -91 808 -69L782 -84C770 -74 710 -61 506 -44L497 -660L631 -675C640 -644 642 -625 642 -520L504 -502L545 -472C562 -478 600 -485 642 -490V-359L598 -350L574 -421L560 -417C563 -390 564 -364 565 -335L569 -202C570 -181 567 -167 558 -151L589 -103C595 -94 600 -93 602 -105C604 -119 604 -130 605 -165L754 -185C760 -186 761 -191 757 -195L738 -213L748 -324C749 -335 756 -350 766 -358C774 -365 773 -370 767 -375L732 -401L708 -370L677 -364V-494L823 -514C831 -515 833 -519 825 -525L790 -552C771 -541 743 -533 677 -524C677 -582 680 -602 693 -621C697 -628 697 -632 691 -637L652 -676ZM713 -340L704 -209L603 -192L601 -323Z"/>
</svg>