<svg xmlns="http://www.w3.org/2000/svg" viewBox="0 -1000 1000 1000">
	<path fill="#000000" d="M434 -93L430 -111L299 -83V-363L400 -375C414 -376 416 -382 404 -392L372 -418C359 -410 328 -400 299 -395V-506L394 -516C407 -517 408 -527 399 -533L365 -556C328 -544 271 -534 162 -526C208 -586 250 -654 293 -731C339 -693 371 -657 404 -613C412 -601 416 -601 421 -615C427 -632 429 -652 428 -677L302 -749C310 -764 313 -770 324 -781C333 -790 333 -793 329 -800L290 -862L274 -857C268 -770 209 -625 33 -403L47 -393C87 -435 122 -475 151 -513L180 -488C200 -493 222 -497 256 -501V-391L113 -376L144 -340C172 -347 199 -351 256 -359V-75L69 -34L112 9C148 -10 175 -18 434 -93ZM911 -546L877 -578C852 -568 763 -553 674 -542C674 -594 678 -617 688 -637C692 -646 691 -653 683 -660L652 -692C750 -729 782 -738 826 -740C839 -741 842 -748 831 -761L789 -808L773 -798C771 -779 674 -724 440 -660L447 -641C507 -654 567 -669 623 -683C630 -663 632 -640 632 -538L412 -520L444 -477C459 -483 529 -495 632 -504V-23L499 -18L496 -164L591 -168C608 -169 609 -173 598 -183L571 -209C555 -201 533 -197 496 -197L493 -318C547 -344 576 -357 595 -361C607 -363 609 -367 609 -377L608 -428L595 -429C584 -405 563 -385 487 -340L454 -406L438 -399C446 -375 452 -334 453 -304L458 -39C459 -11 455 1 445 16L479 89C485 101 490 100 494 88C499 74 501 49 500 16L787 1L810 66C814 76 821 77 826 65C833 47 839 23 842 -12L864 -308C865 -327 871 -339 885 -351C893 -358 895 -364 888 -371L846 -415L814 -377L687 -365L721 -329C742 -337 762 -338 823 -341L814 -213L686 -204L716 -167C726 -172 751 -175 812 -179L803 -59C801 -37 799 -28 793 -20L757 -42C742 -32 723 -28 674 -25V-508L905 -528C921 -529 923 -534 911 -546ZM422 -292L387 -344L373 -339C377 -315 363 -257 307 -140L321 -132C384 -236 402 -260 420 -274C427 -280 427 -285 422 -292ZM216 -191L143 -306L128 -298L184 -133C189 -118 194 -117 202 -133C209 -150 213 -167 216 -191Z"/>
</svg>