<svg xmlns="http://www.w3.org/2000/svg" viewBox="0 -1000 1000 1000">
	<path fill="#000000" d="M751 -580C750 -604 747 -616 738 -639L673 -680C720 -744 730 -753 745 -759C753 -762 755 -767 751 -775L720 -838L704 -834C700 -796 685 -761 641 -699L515 -778L505 -764L618 -670C587 -629 550 -586 509 -551L521 -534C561 -564 605 -602 646 -647L736 -574C746 -566 751 -567 751 -580ZM849 -677L808 -738L791 -730C798 -700 798 -681 792 -638C785 -593 778 -567 771 -549L492 -521V-628C492 -641 495 -653 504 -666C507 -671 507 -674 501 -680L449 -737L438 -728C451 -702 455 -677 455 -644V-547C455 -521 448 -510 433 -499L472 -467C477 -463 486 -463 490 -470C497 -481 510 -489 543 -493C541 -451 479 -365 407 -295L420 -279C454 -306 503 -352 539 -393C558 -414 578 -431 590 -436C596 -438 597 -444 593 -450L566 -495L760 -515L777 -470C781 -461 786 -460 792 -471C801 -488 806 -502 812 -535L831 -635C834 -649 839 -657 848 -666C852 -670 851 -673 849 -677ZM445 -395L407 -419C392 -411 351 -401 290 -391V-493L410 -511C426 -513 427 -519 414 -529L384 -551C355 -538 308 -527 188 -511C222 -566 254 -626 280 -688L409 -594C421 -585 425 -590 424 -601C422 -617 416 -638 406 -660L289 -709C304 -746 313 -762 325 -769C335 -774 335 -779 327 -789L281 -845L265 -838C280 -761 163 -495 42 -351L56 -339C97 -379 137 -430 175 -488L195 -474C210 -478 236 -484 254 -488V-387L99 -365L148 -330C175 -338 211 -347 254 -354V-124L63 -65L130 -26C162 -47 211 -68 441 -160L435 -178L290 -134V-359L442 -381C455 -382 456 -388 445 -395ZM873 -325C873 -342 871 -359 868 -386L697 -498L686 -484L856 -320C866 -310 873 -312 873 -325ZM403 -294L365 -344L353 -337C357 -308 340 -248 306 -167L321 -159C382 -261 388 -269 400 -275C411 -280 410 -285 403 -294ZM224 -213L145 -303L131 -293L188 -155C193 -142 200 -144 205 -155C212 -170 218 -186 224 -213ZM964 33V12C849 14 804 -8 738 -71L687 -120C709 -152 730 -190 752 -239C769 -280 776 -291 795 -298C804 -301 805 -308 798 -316L757 -366L724 -321L607 -310C622 -333 632 -344 638 -347C646 -352 647 -359 643 -367L611 -419L595 -415C596 -343 476 -148 371 -56L388 -47C457 -108 507 -158 547 -215C560 -205 575 -191 593 -172L640 -121C581 -42 483 30 374 88L382 104C505 50 593 -7 666 -92L802 54ZM722 -286C713 -255 685 -189 658 -147C598 -210 590 -221 587 -242H566C572 -252 579 -262 585 -273Z"/>
</svg>