<svg xmlns="http://www.w3.org/2000/svg" viewBox="0 -1000 1000 1000">
	<path fill="#000000" d="M805 -647L773 -672C722 -654 668 -641 511 -629L557 -594C575 -601 612 -608 800 -632C815 -633 815 -639 805 -647ZM420 -582C420 -602 420 -613 418 -637L284 -708C299 -741 306 -751 316 -757C326 -763 327 -767 319 -780L281 -848L267 -842C284 -767 156 -495 40 -377L53 -365C99 -410 140 -457 173 -507L191 -493C205 -497 219 -500 250 -507V-400L106 -381L148 -349C177 -357 209 -363 250 -369V-124L66 -72L119 -34C143 -50 165 -61 394 -142L386 -161L289 -134V-374L412 -392C426 -395 427 -399 414 -410L385 -432C371 -425 337 -415 289 -405V-513L382 -527C398 -530 398 -533 385 -544L356 -566C324 -551 294 -543 188 -529C218 -576 244 -623 274 -686L403 -575C413 -567 420 -569 420 -582ZM947 -307V-323C857 -326 796 -344 736 -412C792 -452 806 -461 820 -465C834 -469 834 -474 827 -486L807 -522L878 -530C894 -532 895 -536 883 -545L845 -572C809 -555 735 -542 497 -517C501 -589 506 -652 508 -696L841 -733C857 -734 857 -739 843 -750L803 -779C789 -769 722 -752 507 -729L475 -813L461 -810C468 -745 468 -683 460 -509C447 -241 410 -123 286 66L298 83C369 -7 417 -87 447 -183L477 -159C487 -163 519 -169 549 -172L597 -67C603 -53 610 -52 615 -66C622 -86 625 -98 630 -123L573 -175L712 -190V-37C712 -11 711 4 708 20L604 -43L596 -30C641 7 675 42 707 84C717 97 723 98 730 87C746 60 749 38 749 -22V-193L915 -212C925 -213 926 -219 917 -225L880 -253C859 -241 816 -232 749 -225C749 -257 750 -267 757 -276C763 -283 761 -289 753 -295L704 -332L697 -323C708 -300 712 -276 712 -221L450 -194C476 -280 490 -378 497 -500L522 -481C529 -483 540 -486 548 -488C550 -471 551 -449 551 -438V-336C551 -309 548 -303 516 -286L557 -256C562 -253 567 -254 571 -259C597 -298 605 -309 678 -381L666 -395L584 -326V-418C584 -436 586 -444 595 -458C600 -466 600 -470 594 -476L575 -494C589 -496 603 -499 620 -501L799 -287ZM390 -313L356 -362L344 -357C347 -316 338 -258 312 -196L326 -189C372 -279 377 -286 388 -292C396 -297 397 -302 390 -313ZM220 -220L150 -311L138 -302L182 -173C187 -159 193 -157 202 -169C212 -185 216 -195 220 -220ZM788 -521C783 -496 768 -478 720 -431L657 -506Z"/>
</svg>