<svg xmlns="http://www.w3.org/2000/svg" viewBox="0 -1000 1000 1000">
	<path fill="#000000" d="M677 -800L583 -862L569 -851L650 -731C662 -715 667 -716 671 -729C676 -745 678 -765 677 -800ZM876 -720L836 -753L808 -717L493 -674C492 -688 490 -703 487 -718H470C468 -655 456 -632 429 -600L441 -552C444 -540 450 -540 456 -548C475 -577 487 -606 491 -641L807 -684L786 -608L803 -601C837 -664 858 -689 874 -700C885 -708 885 -712 876 -720ZM417 -126L412 -143L292 -106V-384L391 -404C402 -407 403 -413 395 -420L362 -445C346 -435 333 -430 292 -420V-522L377 -539C391 -542 392 -546 381 -554L353 -575C315 -559 270 -547 167 -529C200 -575 234 -630 275 -706C331 -672 362 -647 393 -616C402 -607 406 -608 407 -619C409 -632 407 -651 399 -682L285 -727C303 -759 310 -771 318 -779C326 -786 326 -794 321 -801L278 -860L261 -853C274 -772 191 -602 53 -423L63 -410C105 -449 127 -472 158 -516L186 -496C207 -504 228 -510 251 -515V-412L92 -381L142 -348C161 -357 179 -362 251 -377V-92L92 -40L147 -3C180 -27 205 -42 417 -126ZM401 -292C407 -300 407 -306 401 -313L364 -353L351 -347C356 -316 345 -264 306 -168L323 -159C372 -251 385 -272 401 -292ZM967 -80V-101C873 -110 846 -124 808 -194L730 -338C804 -419 817 -432 835 -441C847 -447 848 -454 843 -464L816 -521L799 -515C788 -462 766 -426 675 -318C653 -360 621 -404 591 -434C598 -441 605 -449 614 -457C628 -469 640 -479 650 -484C662 -490 663 -494 659 -502L644 -528L812 -552C831 -555 831 -561 817 -569L768 -593C735 -575 670 -564 465 -538L516 -501C540 -511 572 -518 613 -524C597 -479 523 -411 417 -342L424 -328C498 -362 530 -378 572 -417C582 -407 589 -397 597 -385C535 -297 469 -232 395 -178L402 -162C484 -208 563 -277 622 -345C631 -331 636 -320 644 -299C565 -182 477 -104 358 -23L364 -8C476 -63 565 -139 660 -246C684 -156 675 -60 639 4L544 -69L533 -57C572 -10 600 29 632 78C640 89 645 89 651 80C719 -9 735 -161 688 -291C696 -299 702 -305 709 -314L826 -66ZM223 -213L153 -320L136 -311L181 -154C185 -141 190 -141 196 -150C206 -167 213 -184 223 -213Z"/>
</svg>