<svg xmlns="http://www.w3.org/2000/svg" viewBox="0 -1000 1000 1000">
	<path fill="#000000" d="M561 -783L456 -864L445 -852L527 -719C533 -711 536 -711 542 -719C552 -736 557 -752 561 -783ZM888 -529L830 -566C795 -546 661 -525 456 -505C498 -572 504 -578 518 -584C525 -587 527 -590 522 -599L494 -649L780 -680L738 -585L754 -578C804 -651 836 -682 858 -692C865 -696 865 -702 859 -706L806 -750L777 -714L245 -657C247 -681 247 -706 245 -733L228 -734C221 -654 195 -604 162 -566L184 -514C187 -506 193 -507 198 -514C218 -543 234 -579 241 -623L463 -646C455 -606 437 -559 403 -501L116 -475L162 -436C210 -445 262 -453 382 -466C303 -343 196 -238 70 -166L80 -150C165 -192 262 -261 348 -357C349 -345 351 -328 351 -298V-128C351 -69 340 -3 326 25L364 91C369 100 374 101 378 91C388 65 391 33 391 -60V-122L634 -143C644 -144 645 -149 637 -156L601 -188C573 -176 557 -172 391 -157V-232L624 -256C635 -257 638 -260 627 -269L592 -298C568 -287 549 -283 391 -264V-341L674 -374V-105C674 -42 670 -5 663 19L567 -37L559 -25C608 20 648 64 675 99C682 107 687 107 691 99C705 70 715 15 715 -49V-344C715 -372 722 -383 741 -401C747 -406 747 -410 741 -414L692 -447L662 -409L380 -377L372 -385C396 -413 415 -440 434 -471L884 -517C894 -518 895 -524 888 -529Z"/>
</svg>