<svg xmlns="http://www.w3.org/2000/svg" viewBox="0 -1000 1000 1000">
	<path fill="#000000" d="M876 -767L837 -795C809 -779 659 -755 406 -739L460 -699C494 -710 522 -716 559 -721L563 -646L474 -636L449 -674L432 -667C443 -641 447 -624 447 -603L448 -554C448 -537 446 -526 440 -514L464 -454C468 -445 477 -443 480 -452C483 -462 485 -471 486 -486L847 -524C858 -525 859 -528 851 -537L832 -558L842 -619C846 -643 854 -658 867 -669C875 -675 875 -680 867 -684L824 -708L806 -673L719 -663L721 -737L874 -753C885 -754 887 -759 876 -767ZM436 -405L396 -433C382 -426 358 -418 303 -404V-517L403 -529C415 -530 415 -536 406 -542L374 -567C338 -553 299 -543 184 -528C215 -575 251 -640 283 -709C325 -683 362 -655 404 -615C411 -607 415 -607 418 -619C421 -636 419 -652 409 -677L291 -727C304 -756 312 -770 318 -778C322 -784 322 -787 315 -795L274 -839L259 -834C281 -775 195 -579 63 -409L77 -398C111 -431 143 -468 170 -506L183 -495C206 -501 236 -508 261 -512V-399L108 -376L164 -342C195 -353 220 -360 261 -368V-110L82 -51L133 -20C157 -37 182 -51 431 -143L425 -163L303 -123V-373L434 -392C446 -393 446 -398 436 -405ZM411 -313L370 -354L360 -348C365 -317 356 -275 316 -177L333 -170C380 -262 392 -281 410 -294C418 -300 418 -306 411 -313ZM235 -212L156 -302L145 -296L198 -163C203 -152 209 -151 214 -160C223 -172 230 -190 235 -212ZM911 -138L875 -168C848 -156 757 -138 673 -129V-213L800 -226C812 -227 813 -232 804 -241L786 -259L800 -391C802 -414 805 -421 829 -438C837 -444 836 -449 827 -455L778 -486L755 -445L537 -420L505 -456L490 -449C499 -429 505 -396 505 -362V-306C505 -259 501 -241 492 -227L522 -172C528 -161 534 -161 539 -172C542 -179 544 -189 543 -198L636 -209V-126L395 -103L445 -63C460 -71 544 -86 636 -96C638 -32 628 14 616 29L653 100C659 111 665 112 668 98C672 82 673 63 673 7V-100L910 -124C920 -125 921 -129 911 -138ZM684 -734L682 -658L601 -649L596 -725ZM805 -643L796 -551L717 -542L719 -633ZM682 -629L680 -538L607 -530L602 -620ZM569 -526L485 -516L482 -605L564 -616ZM760 -414L746 -252L544 -230L542 -296L721 -314C736 -314 736 -319 724 -328L689 -357C672 -345 622 -333 543 -324L542 -388Z"/>
</svg>