<svg xmlns="http://www.w3.org/2000/svg" viewBox="0 -1000 1000 1000">
	<path fill="#000000" d="M672 -531L642 -557C622 -545 605 -538 584 -533L590 -634L673 -647C686 -648 686 -653 677 -660L644 -687C635 -680 618 -674 592 -668C598 -743 600 -757 613 -784C617 -792 616 -797 609 -803L563 -848L551 -840C562 -817 564 -785 557 -661L482 -651C479 -701 481 -729 485 -740C488 -750 486 -757 482 -760L431 -803L423 -793C439 -756 443 -730 449 -645L377 -635L415 -603C428 -609 439 -612 449 -613L453 -516L372 -504L407 -472C453 -484 482 -489 667 -516C682 -518 681 -524 672 -531ZM404 -107L399 -122L277 -79V-342L382 -359C398 -361 401 -366 384 -379L354 -400C341 -391 310 -382 277 -375V-489L355 -501C372 -503 373 -510 358 -521L334 -538C303 -525 265 -517 166 -503C201 -560 222 -601 253 -676L366 -581C376 -573 379 -575 379 -587C379 -611 376 -625 369 -642L262 -699C281 -745 288 -757 295 -762C303 -768 304 -773 297 -782L249 -841L237 -835C254 -760 162 -509 49 -369L62 -359C96 -397 128 -441 155 -485L173 -469C192 -474 206 -477 240 -483V-370L90 -348L125 -316C146 -323 171 -328 240 -337V-67L71 -6L131 29C164 8 181 -2 404 -107ZM943 34V19C848 0 829 -11 760 -185C785 -252 792 -282 813 -398C818 -433 821 -440 831 -453C838 -461 837 -466 833 -472L801 -522L902 -537C916 -540 916 -544 906 -552L863 -581C836 -565 802 -555 723 -542C735 -588 742 -620 749 -666C758 -719 765 -742 780 -759C785 -766 786 -771 781 -779L726 -853L712 -847C737 -782 693 -490 620 -314L637 -305C652 -332 657 -343 666 -364C670 -355 675 -340 690 -296L726 -188C701 -116 665 -37 614 37C615 15 616 -18 616 -81V-367C616 -385 619 -393 631 -403C638 -409 637 -415 632 -419L593 -451L569 -418L464 -400L438 -463L425 -458C430 -430 431 -413 431 -361V-84C431 -25 428 -11 413 15L445 76C452 90 458 90 462 74C466 58 467 32 467 -48V-158L557 -170C570 -173 571 -177 562 -185L539 -207C531 -201 515 -197 467 -188V-265L559 -281C569 -282 571 -286 561 -295L539 -316C522 -306 509 -302 467 -294V-370L579 -387V-83C579 -27 578 6 574 23L504 -16L496 -4C531 29 552 53 582 91C591 102 596 102 602 88C606 80 609 67 611 55L620 63C668 2 708 -61 743 -138L804 43ZM382 -269L345 -318L335 -311C339 -277 326 -207 293 -125L308 -117C361 -228 368 -237 380 -248C388 -255 388 -261 382 -269ZM209 -164L145 -271L132 -266L171 -106C174 -91 179 -91 186 -104C196 -121 202 -137 209 -164ZM555 -630L549 -529L486 -519L483 -619ZM776 -518C782 -448 769 -340 741 -237C711 -315 697 -376 698 -396L680 -402C693 -436 704 -471 714 -507Z"/>
</svg>