<svg xmlns="http://www.w3.org/2000/svg" viewBox="0 -1000 1000 1000">
	<path fill="#000000" d="M496 -394L421 -493L407 -485L455 -339C458 -328 466 -327 471 -336C484 -359 490 -373 496 -394ZM841 -771C847 -776 848 -780 841 -786L794 -832L768 -790L582 -768L556 -826L540 -821C549 -791 555 -742 555 -705V-601C555 -561 550 -542 540 -531L562 -481C562 -454 559 -436 542 -386C528 -345 493 -270 454 -217C422 -259 385 -348 372 -409L352 -404C365 -310 397 -234 433 -189C391 -139 331 -81 268 -36L279 -22C348 -69 416 -127 454 -168C510 -112 564 -87 655 -85C665 -85 667 -90 661 -103C643 -139 618 -210 604 -266L589 -263L605 -133C548 -143 518 -157 476 -193C514 -240 552 -311 577 -367C589 -392 595 -402 609 -414C614 -419 615 -424 612 -430L587 -480C589 -488 590 -496 591 -509L784 -530L786 -97C786 -50 782 -19 775 -5L676 -69L664 -54C728 8 764 50 790 87C797 96 803 96 808 85C819 58 826 9 826 -39L823 -712C823 -745 826 -760 841 -771ZM449 -744C457 -749 456 -753 449 -759L403 -800L376 -761L203 -741L174 -810L157 -804C166 -767 172 -709 172 -651V-143C172 -55 165 -27 148 -7L187 73C195 88 202 87 205 70C208 51 209 17 209 -71V-484L436 -516C448 -517 450 -523 439 -531L411 -552L422 -685C424 -713 438 -736 449 -744ZM736 -283L614 -363L604 -350L716 -215C723 -207 730 -209 731 -217C736 -236 738 -258 736 -283ZM314 -358L297 -357C289 -266 274 -239 244 -221L255 -153C258 -140 265 -138 272 -150C311 -211 319 -266 314 -358ZM784 -565L591 -541V-627L747 -644C762 -646 762 -652 751 -659L708 -687C700 -676 686 -671 591 -657V-735L783 -756ZM383 -730L374 -543L209 -516V-595L351 -616C361 -617 362 -623 352 -630L314 -655C304 -647 279 -638 209 -627V-710Z"/>
</svg>