<svg xmlns="http://www.w3.org/2000/svg" viewBox="0 -1000 1000 1000">
	<path fill="#000000" d="M643 -377L608 -405L590 -384L400 -358L381 -384L371 -375C377 -359 378 -352 380 -325L382 -298C384 -277 382 -271 375 -261L398 -234C404 -227 407 -227 411 -236C413 -241 414 -253 413 -264L636 -290C650 -291 652 -296 641 -304L622 -316L627 -337C631 -354 634 -359 639 -361C649 -366 649 -372 643 -377ZM585 -160L521 -191L515 -183L565 -118C569 -112 576 -111 580 -120C584 -134 585 -146 585 -160ZM385 -145L333 -173L325 -163L363 -109C368 -102 377 -101 379 -109C383 -124 385 -134 385 -145ZM712 -253L675 -281L652 -252L493 -231L532 -196C549 -205 581 -213 659 -223V-134L478 -77V-163C478 -196 480 -206 490 -211C496 -214 496 -221 490 -226L458 -253L437 -225L267 -202L308 -171C326 -179 351 -183 442 -194V-117L238 -56L289 -28C309 -42 333 -51 442 -93C442 -61 440 -37 435 -14L374 -47L362 -35C404 3 423 26 439 46C445 54 453 55 459 44C471 23 476 -2 478 -62L512 -44C538 -61 585 -84 659 -116C659 -73 656 -41 651 -14L579 -53L569 -38C602 -12 621 5 655 39C663 47 669 46 674 37C690 1 695 -30 695 -100V-190C696 -222 699 -231 711 -237C717 -240 719 -247 712 -253ZM799 -599L594 -573V-634L770 -653C780 -654 782 -661 774 -668L743 -694C729 -684 683 -675 594 -663V-717L799 -741ZM411 -719L403 -577L223 -551V-614L381 -631C392 -632 392 -638 384 -645L352 -671C340 -661 313 -655 223 -643V-695ZM595 -355L588 -316L412 -291L409 -331ZM223 -287C289 -321 331 -346 391 -397L409 -384C426 -390 471 -398 579 -410C594 -412 595 -415 583 -425L556 -444C538 -436 502 -427 412 -417C446 -447 469 -468 499 -500L709 -329L799 -342V-84C799 -13 796 9 791 29L702 -19L692 -3C740 38 764 63 800 108C806 116 813 117 819 105C835 76 837 54 837 -74V-708C837 -726 843 -744 858 -755C863 -760 864 -764 859 -769L812 -810L786 -772L593 -747L567 -805L551 -801C555 -784 557 -760 557 -707V-618C557 -580 552 -562 542 -548L572 -502C577 -494 585 -494 588 -505C591 -518 593 -529 594 -543L799 -567V-365C733 -367 700 -383 589 -467L520 -519C534 -521 536 -526 532 -532L503 -580L492 -578C482 -525 389 -414 223 -308V-521L456 -547C465 -548 467 -555 459 -563L439 -582L451 -693C453 -711 457 -724 472 -734C478 -739 479 -743 472 -749L432 -787L405 -751L220 -727L193 -799L178 -793C182 -772 186 -724 186 -679V-87C186 -50 175 -5 162 10L197 91C202 103 207 102 212 90C218 73 223 45 223 -30Z"/>
</svg>