<svg xmlns="http://www.w3.org/2000/svg" viewBox="0 -1000 1000 1000">
	<path fill="#000000" d="M738 -400L708 -436L681 -414L582 -402C604 -436 616 -450 635 -460C642 -464 643 -470 638 -477L608 -521L598 -515C596 -487 587 -461 552 -399L514 -394V-448C514 -479 516 -490 525 -503C529 -509 527 -515 522 -519L477 -553L465 -545C478 -516 480 -499 481 -453L482 -390L423 -384C430 -395 434 -409 435 -430L356 -491L345 -483L408 -383L336 -375C335 -388 333 -403 330 -419H311C313 -352 303 -323 270 -295L285 -246C288 -236 292 -235 301 -245C318 -265 333 -301 335 -343L671 -382L642 -310L655 -304C704 -371 716 -380 735 -384C744 -386 746 -390 738 -400ZM857 -787L807 -825L779 -783L595 -761L570 -820L555 -816C559 -798 561 -769 561 -723V-627C561 -589 556 -573 546 -559L577 -513C582 -507 586 -507 590 -515C593 -522 595 -535 596 -552L792 -573V-92C792 -20 788 10 778 28L687 -25L673 -8C714 24 749 56 787 100C793 107 798 107 803 99C825 66 829 43 829 -82V-720C829 -737 839 -758 854 -770C862 -776 863 -782 857 -787ZM456 -747C461 -751 460 -757 455 -761L408 -795L387 -761L204 -739L174 -809L159 -803C163 -781 165 -744 165 -681V-97C165 -47 158 -20 142 0L179 81C183 92 188 92 192 80C200 59 202 35 202 -40V-519L436 -544C444 -545 445 -551 438 -557L414 -579L430 -693C434 -721 443 -739 456 -747ZM744 -48L701 -81C676 -67 646 -59 517 -47V-114L684 -132C690 -132 691 -138 686 -142L646 -170C622 -156 588 -148 517 -141V-196L616 -207C626 -208 629 -213 620 -220L601 -235L610 -265C619 -293 623 -300 635 -307C640 -311 639 -317 634 -321L599 -348L583 -324L401 -304L385 -335L369 -329C375 -312 377 -301 377 -274V-228C377 -208 375 -200 366 -185L394 -145C399 -138 403 -138 406 -146C408 -154 409 -161 409 -184L482 -192V-138L296 -124L348 -88C371 -98 411 -104 482 -111V-44L238 -23L297 14C354 -4 432 -14 742 -38C750 -39 752 -41 744 -48ZM792 -606L596 -584V-642L772 -661C781 -662 782 -667 775 -673L745 -699C732 -689 678 -680 596 -672V-730L792 -750ZM393 -728L379 -572L202 -551V-615L370 -634C379 -635 380 -638 372 -645L343 -671C330 -661 299 -655 202 -647V-706ZM583 -296L569 -233L409 -214L408 -275Z"/>
</svg>