<svg xmlns="http://www.w3.org/2000/svg" viewBox="0 -1000 1000 1000">
	<path fill="#000000" d="M927 -50L874 -87C840 -74 772 -63 676 -55V-406L865 -436C884 -439 884 -444 870 -453L821 -483C796 -469 777 -462 676 -443V-632C676 -686 686 -742 695 -758C699 -767 698 -772 690 -779L616 -843L606 -836C624 -798 637 -743 637 -643V-53L525 -43V-399C525 -452 529 -477 540 -494C544 -501 543 -507 537 -513L476 -571L463 -562C480 -531 486 -484 486 -441V-40L306 -25L351 14C429 -3 557 -14 922 -34C940 -35 941 -40 927 -50ZM412 -703C418 -707 418 -714 412 -720L367 -766L331 -720L214 -703L180 -792L165 -786C172 -745 176 -685 176 -613V-92C176 -60 168 -32 150 1L193 76C200 87 203 87 207 76C211 66 212 48 212 -64V-668L335 -685L278 -493C357 -412 365 -341 325 -279L245 -347L232 -335C264 -298 296 -247 318 -203C322 -195 326 -194 333 -202C412 -289 422 -384 308 -497L368 -644C382 -677 390 -689 412 -703Z"/>
</svg>