<svg xmlns="http://www.w3.org/2000/svg" viewBox="0 -1000 1000 1000">
	<path fill="#000000" d="M674 -737L570 -839L559 -828L636 -658C641 -646 648 -646 653 -656C667 -683 672 -703 674 -737ZM898 -619L849 -653C796 -631 750 -623 376 -593L417 -555C472 -570 583 -582 894 -603C912 -604 910 -610 898 -619ZM422 -705C430 -710 431 -714 424 -722L378 -774L341 -723L220 -703L181 -799L163 -795C175 -747 180 -681 180 -606V-77C180 -22 177 -8 160 20L199 91C205 102 210 101 213 90C218 67 219 47 219 -49V-668L345 -688L286 -496C364 -413 376 -327 337 -265L248 -340L237 -328C281 -274 303 -240 326 -191C329 -186 334 -185 339 -191C404 -254 446 -384 315 -499L378 -644C395 -684 401 -691 422 -705ZM920 19C905 -39 896 -99 890 -191H870L862 -8C847 0 817 5 776 1C725 -3 712 -19 713 -101L717 -326C718 -403 721 -415 748 -435C755 -440 755 -445 747 -453L703 -497L673 -459L555 -441L518 -521L503 -516C517 -458 519 -333 504 -237C481 -95 443 -14 315 73L330 88C475 -14 509 -63 541 -210C547 -238 556 -317 561 -406L676 -420L671 -110C669 13 690 36 794 42C836 44 889 39 910 33C920 31 922 26 920 19Z"/>
</svg>