<svg xmlns="http://www.w3.org/2000/svg" viewBox="0 -1000 1000 1000">
	<path fill="#000000" d="M920 -656L865 -694C841 -681 708 -657 600 -648C609 -669 616 -689 623 -707C643 -757 649 -767 660 -775C668 -782 668 -785 664 -791L611 -863L596 -859C605 -808 593 -741 555 -645L378 -627L425 -587C452 -596 487 -603 542 -610C496 -499 437 -405 374 -335C379 -393 355 -455 304 -520L360 -648C379 -692 389 -708 405 -718C412 -723 411 -727 406 -732L358 -777L330 -738L200 -718L162 -802L148 -796C159 -753 165 -709 165 -593V-141C165 -69 156 -17 142 11L181 93C187 104 193 105 196 92C203 60 204 41 204 -144V-684L334 -700L274 -522C343 -416 348 -326 303 -273L223 -335L211 -322C248 -281 270 -249 297 -205C301 -200 307 -200 312 -205C338 -233 356 -263 365 -293C406 -331 463 -394 499 -447V-124C499 -69 489 -17 474 5L510 83C514 91 520 91 523 83C533 55 536 27 536 -71V-181L719 -205C729 -206 731 -212 722 -218L683 -248C670 -238 648 -232 536 -215V-310L717 -334C727 -335 729 -341 720 -347L676 -378C667 -368 648 -360 536 -343V-447L750 -472V-142C750 -63 748 -36 743 -10L649 -77L638 -65C686 -13 727 38 756 81C762 89 768 89 771 81C788 41 791 16 791 -70V-435C791 -466 796 -482 814 -492C821 -496 821 -501 814 -507L769 -546L739 -508L530 -481L525 -490C545 -526 566 -569 586 -614L916 -645C926 -646 926 -651 920 -656Z"/>
</svg>