<svg xmlns="http://www.w3.org/2000/svg" viewBox="0 -1000 1000 1000">
	<path fill="#000000" d="M410 -698L360 -742L328 -702L204 -683L171 -778L152 -772C159 -732 165 -663 165 -624V-120C165 -61 160 -27 144 -4L185 77C189 84 193 84 196 77C205 55 207 35 207 -83V-646L333 -666L278 -513C349 -424 349 -351 313 -294L238 -341L230 -327C267 -294 287 -269 315 -230C318 -226 324 -226 327 -230C386 -304 416 -401 308 -512C364 -637 377 -658 409 -683C415 -687 415 -693 410 -698ZM470 -385C475 -432 480 -485 482 -549L602 -564V-402ZM469 -380L511 -347C535 -355 585 -364 723 -385C704 -316 679 -252 641 -191C564 -286 558 -298 558 -318L504 -320V-311C523 -297 536 -280 619 -161C548 -61 447 11 324 69L332 84C472 28 563 -32 643 -129L775 53L942 39L941 22C805 4 779 -15 665 -160C701 -211 736 -278 762 -341C776 -376 784 -388 800 -401C805 -405 805 -411 800 -415L752 -455L730 -421L643 -409V-568L792 -585L750 -488L766 -480C823 -564 849 -590 875 -608C881 -612 880 -617 874 -622L829 -666L790 -621L643 -603V-725C643 -742 649 -768 658 -783C663 -791 661 -796 656 -800L590 -852L581 -843C596 -808 602 -774 602 -733V-599L481 -585L443 -674L426 -668C439 -572 437 -484 426 -352C413 -210 353 -78 256 32L266 43C389 -72 441 -177 463 -331C465 -347 467 -363 469 -380Z"/>
</svg>