<svg xmlns="http://www.w3.org/2000/svg" viewBox="0 -1000 1000 1000">
	<path fill="#000000" d="M682 -734L580 -842L566 -832L635 -670C641 -656 646 -655 655 -670C666 -688 674 -707 682 -734ZM915 -639L871 -679C821 -659 735 -643 372 -610L425 -570C472 -581 530 -590 584 -596C575 -558 546 -503 510 -455C469 -400 452 -386 412 -373L439 -336C444 -330 449 -329 457 -333C480 -345 552 -363 645 -378C639 -370 631 -360 623 -350C547 -257 464 -183 359 -106L370 -90C512 -179 633 -289 711 -399C751 -456 758 -465 774 -474C782 -479 784 -485 779 -493L740 -561L727 -556C726 -529 711 -476 667 -410L500 -387L578 -487C600 -515 620 -533 631 -539C636 -543 637 -548 633 -556L609 -598L911 -628C921 -629 921 -634 915 -639ZM423 -739L369 -783L338 -740L211 -724L182 -789L168 -781C175 -716 177 -690 177 -600V-137C177 -59 170 -22 153 3L194 85C198 92 204 92 207 84C215 61 217 46 217 -140V-687L344 -704L293 -552C378 -451 367 -366 326 -299L249 -348L240 -336C276 -295 297 -270 323 -232C330 -223 334 -223 339 -231C421 -345 415 -449 328 -553L376 -663C386 -685 409 -713 422 -721C431 -727 432 -732 423 -739ZM865 -38L684 -173C710 -199 737 -228 764 -258C809 -307 820 -316 834 -322C840 -324 841 -331 837 -339L806 -411L793 -405C788 -364 752 -299 662 -205C570 -110 454 -12 299 74L308 89C434 34 551 -43 667 -157C749 -76 791 -24 846 54C853 64 858 64 863 53C870 38 870 4 865 -38Z"/>
</svg>