<svg xmlns="http://www.w3.org/2000/svg" viewBox="0 -1000 1000 1000">
	<path fill="#000000" d="M542 -775L434 -857L423 -845L508 -707C515 -696 521 -696 526 -707C535 -726 540 -746 542 -775ZM843 -703L793 -745L757 -703L228 -648C230 -674 228 -703 226 -735H207C205 -641 181 -585 144 -555L162 -496C166 -483 173 -481 181 -491C203 -519 219 -558 226 -613L761 -669L715 -560L731 -552C791 -643 818 -671 842 -684C852 -689 852 -695 843 -703ZM518 -342L483 -370C465 -359 410 -344 356 -337V-435L519 -466C529 -468 528 -474 522 -479L490 -504C457 -489 427 -482 356 -470C356 -512 359 -531 364 -540C370 -551 368 -556 360 -562L306 -600L298 -588C311 -562 318 -525 318 -471V-332L99 -307L150 -268C183 -280 226 -289 317 -302C323 -284 324 -261 324 -211V-56C324 -37 319 4 313 21L232 -36L223 -25C270 27 296 57 322 91C329 100 333 101 339 91C351 70 362 22 362 -17V-210C362 -250 366 -270 370 -276C375 -284 374 -288 369 -292L351 -307L515 -328C528 -329 528 -335 518 -342ZM940 45V28C828 11 768 -29 668 -183C705 -248 736 -322 759 -405C765 -427 780 -449 795 -458C805 -464 804 -470 793 -479L745 -519L714 -474L493 -431L542 -397C574 -410 597 -416 717 -438C699 -357 675 -284 645 -221L618 -261C594 -298 582 -325 581 -335L533 -339L531 -329C548 -314 556 -303 628 -189C567 -81 489 1 387 74L397 86C497 31 584 -49 650 -155L787 53ZM515 -129C517 -144 517 -157 515 -184L405 -236L397 -225L500 -125C509 -117 513 -118 515 -129ZM257 -196L223 -253L212 -249C209 -201 189 -154 58 5L70 16C124 -30 189 -100 220 -148C226 -157 243 -173 252 -178C260 -183 261 -188 257 -196Z"/>
</svg>