<svg xmlns="http://www.w3.org/2000/svg" viewBox="0 -1000 1000 1000">
	<path fill="#000000" d="M814 -775C821 -780 821 -786 813 -793L767 -834L738 -793L464 -757L423 -829L410 -822C420 -792 430 -747 430 -708L435 -553C435 -512 433 -496 418 -476L454 -415C461 -404 465 -405 469 -415C471 -421 472 -429 473 -443L795 -484C804 -485 805 -488 796 -496L769 -521L788 -700C793 -746 799 -764 814 -775ZM375 -729C381 -731 382 -737 375 -743L327 -789L302 -749L193 -735L155 -814L141 -808C149 -770 156 -715 156 -651V-160C156 -77 149 -38 134 -4L172 64C176 72 182 72 186 64C193 47 196 17 196 -87V-700L305 -716L260 -572C317 -506 323 -411 293 -359L232 -408L221 -396C248 -364 266 -336 290 -292C295 -282 299 -282 307 -292C357 -356 382 -473 288 -572L339 -682C353 -712 363 -724 375 -729ZM950 1V-16C810 -31 772 -53 678 -177C742 -232 772 -254 787 -257C793 -258 795 -262 793 -271L774 -335H759C750 -306 722 -261 663 -197L558 -336L915 -370C926 -371 926 -375 916 -383L875 -417C848 -403 777 -390 342 -348L373 -313C396 -319 413 -322 435 -325L429 -70C428 -16 427 -10 394 25L437 49C445 53 450 52 455 44C475 11 505 -25 608 -134L599 -147L466 -36L475 -329L521 -333L776 18ZM749 -759L732 -511L618 -497V-604L730 -621C737 -622 737 -627 732 -632L704 -658C690 -652 666 -645 618 -638V-743ZM579 -493L473 -480L468 -725L579 -739V-633L475 -618L507 -586C524 -591 548 -596 579 -600Z"/>
</svg>