<svg xmlns="http://www.w3.org/2000/svg" viewBox="0 -1000 1000 1000">
	<path fill="#000000" d="M388 -755L349 -790L327 -760L236 -748L202 -819L188 -812C196 -785 201 -741 201 -697V-387C201 -327 196 -294 183 -271L220 -205C227 -191 230 -191 234 -208C237 -220 238 -237 238 -321V-718L325 -732L281 -597C331 -537 343 -451 314 -409L247 -451L241 -434C274 -408 296 -384 319 -354C327 -345 332 -345 337 -352C384 -421 383 -518 308 -606C347 -694 365 -725 385 -737C395 -743 396 -748 388 -755ZM967 -138V-152C842 -147 760 -165 634 -219L528 -263C540 -270 548 -273 553 -273C561 -273 564 -279 559 -287L531 -326L520 -322C520 -311 504 -293 481 -274C482 -287 483 -308 483 -334L721 -357C734 -358 735 -362 725 -371L700 -392C685 -383 621 -372 483 -360V-395L701 -425C717 -428 716 -432 707 -440L687 -460C666 -447 637 -441 483 -422V-460L752 -497V-336C752 -311 750 -298 745 -289L662 -322L657 -310C700 -282 739 -251 759 -231C769 -221 772 -222 776 -233C784 -254 788 -284 788 -315V-463C788 -480 791 -493 803 -502C811 -509 811 -514 804 -520L765 -551L746 -523L479 -487L453 -517L443 -511C447 -489 449 -451 449 -428V-347C449 -328 444 -304 437 -293L459 -256C363 -185 190 -104 46 -61L47 -44C201 -73 382 -159 506 -246L812 -101ZM539 -160C543 -166 541 -171 535 -177L496 -216L484 -210C490 -189 492 -138 492 -101V-20C492 0 489 21 484 35L387 -22L377 -9C427 31 458 60 494 101C500 108 507 107 511 100C521 80 530 43 530 -9V-108C530 -134 533 -152 539 -160ZM664 -34L580 -132L567 -123L629 22C633 31 638 33 644 24C653 10 661 -12 664 -34ZM791 -31L675 -131L665 -120L765 34C773 46 777 44 781 33C787 19 791 -8 791 -31ZM392 -131L376 -139C330 -55 289 -24 252 -4L253 53C253 64 257 66 267 59C318 22 354 -29 392 -131ZM442 -548L477 -527C516 -537 569 -546 852 -577C867 -579 868 -584 856 -591L818 -614C797 -601 756 -593 645 -578V-629L771 -645C785 -647 785 -653 774 -660L745 -680C717 -668 701 -660 508 -637C519 -653 529 -670 538 -686L856 -723C872 -724 871 -730 859 -738L819 -761C791 -750 694 -730 554 -715C576 -762 589 -784 597 -789C604 -794 605 -799 601 -807L573 -863L558 -861C556 -830 542 -778 509 -710L356 -694L398 -662C416 -667 452 -675 493 -681C458 -616 417 -551 368 -498L375 -480C398 -502 421 -524 442 -548ZM505 -632L534 -609C549 -615 579 -621 610 -625V-574L446 -553C468 -579 488 -605 505 -632Z"/>
</svg>