<svg xmlns="http://www.w3.org/2000/svg" viewBox="0 -1000 1000 1000">
	<path fill="#000000" d="M751 -717L657 -836L640 -826L711 -655C714 -649 718 -648 722 -654C735 -677 744 -696 751 -717ZM448 -591C450 -607 448 -633 444 -653L297 -725C311 -751 321 -768 329 -771C335 -774 337 -779 333 -785L292 -844L278 -840C278 -761 200 -585 52 -415L66 -403C151 -487 230 -592 288 -706L436 -588C441 -582 447 -584 448 -591ZM922 -67L877 -103C850 -90 824 -84 708 -69V-231L852 -253C863 -255 864 -260 854 -266L812 -292C801 -285 754 -272 708 -265V-405L837 -424C846 -425 847 -430 839 -436L794 -466C771 -455 746 -446 708 -438V-573L854 -595C865 -597 865 -602 857 -608L814 -643C778 -621 754 -612 539 -580L529 -603C553 -650 559 -662 584 -716C605 -763 608 -769 619 -777C624 -781 624 -786 620 -792L574 -855L560 -848C565 -777 518 -633 396 -437L410 -428C454 -482 481 -520 506 -563V-85C506 -31 503 -11 489 18L528 98C534 108 540 108 542 95C545 77 546 52 546 -14L919 -54C930 -55 931 -60 922 -67ZM471 -393L434 -420C402 -408 368 -398 312 -388V-502L409 -518C418 -519 419 -524 412 -530L378 -556C347 -542 295 -529 169 -512L201 -479C226 -487 244 -491 274 -497V-382L85 -354L130 -318C158 -328 224 -342 274 -350V-152C274 -76 273 -56 266 -32L173 -87L161 -71C215 -23 237 -2 276 44C282 51 286 51 290 44C307 9 312 -23 312 -123V-357L469 -381C477 -382 478 -388 471 -393ZM462 -212L344 -315L331 -305C370 -255 405 -204 438 -150C442 -143 450 -143 451 -149C457 -170 460 -189 462 -212ZM224 -247L195 -307L182 -301C173 -249 145 -191 52 -75L65 -64C111 -109 138 -139 192 -207C205 -223 213 -230 222 -234C227 -237 228 -240 224 -247ZM668 -64L546 -48V-548L668 -568V-432L551 -416L591 -377C611 -386 633 -392 668 -399V-259L552 -243L598 -209C618 -215 639 -220 668 -225Z"/>
</svg>