<svg xmlns="http://www.w3.org/2000/svg" viewBox="0 -1000 1000 1000">
	<path fill="#000000" d="M821 -374L786 -403C744 -387 709 -380 554 -365V-416L759 -436C769 -437 771 -442 761 -449L725 -477C702 -465 653 -455 554 -445V-488L750 -509C760 -510 761 -515 752 -522L716 -549C683 -536 628 -525 554 -518V-565L785 -588C795 -589 796 -594 787 -601L745 -629C722 -618 652 -602 565 -593C568 -601 569 -610 569 -621L493 -667L479 -654L530 -591L334 -574C357 -594 372 -606 383 -614C392 -621 394 -624 392 -629L381 -662L679 -688L693 -655C696 -648 700 -647 705 -653C714 -662 718 -669 725 -700L734 -737C739 -758 745 -768 759 -777C763 -780 763 -785 759 -789L707 -845L693 -836C701 -817 702 -799 696 -769L685 -721L503 -704V-731C503 -757 511 -785 523 -801C527 -808 526 -813 521 -817L460 -864L450 -857C460 -827 462 -808 462 -743V-701L281 -685V-718C281 -742 284 -752 287 -759C290 -766 288 -771 283 -775L230 -816L223 -805C237 -775 243 -754 243 -730V-701C243 -685 238 -677 222 -668L249 -635C252 -631 256 -630 262 -637C275 -650 282 -652 348 -659C318 -600 198 -485 47 -388L58 -372C124 -406 208 -463 254 -499V-383C254 -344 250 -330 240 -310L270 -256L236 -251L212 -306L197 -299C203 -268 207 -222 209 -162L211 -89C212 -39 208 -18 195 10L230 78C237 91 243 89 247 78C252 63 253 28 250 -54L244 -221L403 -236C387 -203 335 -146 261 -95L272 -83C304 -99 332 -117 366 -143C367 -130 368 -117 369 -106L370 -85C372 -62 367 -45 359 -35L387 16C395 30 400 30 403 17C405 6 406 -2 406 -24L612 -43C624 -44 627 -49 615 -59L599 -74L603 -112C604 -125 609 -129 618 -136C629 -145 629 -149 620 -156L583 -183L565 -164L397 -146L389 -161C409 -178 422 -187 430 -190C439 -193 441 -197 436 -208L423 -237L755 -268L738 -104C732 -50 723 -6 715 16L638 -30L628 -18C670 24 689 46 714 78C723 89 728 91 736 77C753 46 761 15 773 -79L793 -231C796 -256 801 -266 819 -278C828 -284 828 -288 819 -295L775 -330L754 -301L288 -257C291 -272 292 -289 292 -329L319 -309C369 -319 450 -327 817 -359C830 -360 831 -366 821 -374ZM692 -145C692 -158 689 -175 682 -196L537 -243L529 -229L675 -138C685 -131 692 -133 692 -145ZM514 -362L292 -343V-535C300 -543 306 -548 313 -553L330 -538C345 -543 393 -549 514 -562V-514L329 -495L369 -463C389 -469 424 -475 514 -484V-442L325 -425L367 -389C389 -396 435 -404 514 -412ZM567 -132L562 -74L406 -55L405 -116Z"/>
</svg>