<svg xmlns="http://www.w3.org/2000/svg" viewBox="0 -1000 1000 1000">
	<path fill="#000000" d="M907 -700L861 -749L825 -715L514 -686V-751L738 -770C749 -771 750 -776 743 -782L707 -816C659 -798 567 -788 226 -762L274 -725C298 -731 361 -739 476 -748V-683L200 -657C200 -667 198 -679 197 -689H178C181 -620 157 -588 118 -562L137 -502C140 -492 144 -491 151 -499C184 -538 196 -569 199 -624L476 -649V-577C476 -548 470 -528 460 -516L492 -467C497 -459 507 -460 510 -467C513 -476 514 -491 514 -552V-652L822 -680L785 -618L798 -607C855 -667 876 -680 903 -685C913 -687 914 -693 907 -700ZM777 -599L749 -626C727 -614 658 -600 544 -589L575 -559C607 -568 666 -576 774 -587C786 -588 786 -591 777 -599ZM431 -562L403 -589C384 -581 325 -570 205 -557L244 -525C272 -534 336 -545 428 -551C438 -552 438 -554 431 -562ZM799 -517L769 -542C758 -535 680 -519 541 -507L579 -475C616 -484 731 -499 797 -504C807 -505 806 -511 799 -517ZM429 -484L402 -511C375 -501 317 -490 197 -479L235 -446C260 -455 323 -465 427 -474C435 -474 435 -478 429 -484ZM899 -416L856 -446C826 -434 745 -418 518 -399C521 -412 522 -423 523 -438L450 -484L439 -473L492 -397L76 -365L131 -325C178 -338 258 -351 897 -399C910 -400 912 -407 899 -416ZM726 -318L694 -344C668 -334 571 -318 234 -288L280 -253C328 -265 393 -272 725 -305C738 -306 738 -308 726 -318ZM735 -236L692 -270C671 -252 554 -234 244 -211L293 -175C319 -183 388 -191 734 -224C743 -224 744 -228 735 -236ZM724 -130C729 -134 730 -142 724 -147L681 -185L657 -159L320 -127L303 -167L285 -162C292 -137 295 -109 295 -69V-15C295 3 290 18 279 32L314 97C319 107 327 107 330 95C332 84 334 62 333 32L718 1C730 0 732 -4 720 -14L687 -39L694 -76C700 -107 709 -122 724 -130ZM659 -124L646 -29L333 -3L331 -93Z"/>
</svg>