<svg xmlns="http://www.w3.org/2000/svg" viewBox="0 -1000 1000 1000">
	<path fill="#000000" d="M553 -767L474 -861L461 -854L512 -713C515 -705 521 -704 526 -711C539 -729 545 -742 553 -767ZM863 -691C871 -694 871 -699 864 -706L817 -755L783 -720L220 -680C221 -704 220 -735 216 -760H198C196 -676 176 -634 137 -593L157 -544C160 -537 163 -536 169 -543C193 -571 209 -603 217 -643L781 -684L738 -596L753 -588C812 -662 831 -677 863 -691ZM951 -61V-77C845 -91 791 -124 714 -223L639 -321L856 -343C866 -344 867 -348 857 -357L815 -391C798 -382 715 -365 622 -353V-445L796 -464C805 -465 805 -470 797 -477L759 -510C739 -499 691 -487 622 -479C622 -559 625 -579 637 -599C641 -607 640 -612 635 -616L580 -664L567 -657C579 -618 582 -596 582 -475L406 -457L458 -422C482 -428 529 -435 582 -441V-349L388 -329L423 -291C468 -302 497 -307 556 -314C512 -223 439 -124 381 -67V-468C381 -556 385 -578 392 -591C396 -599 395 -602 389 -607L344 -645L330 -639C338 -602 340 -578 340 -506V-436L242 -425L248 -484C249 -499 253 -512 259 -520C263 -525 261 -530 256 -534L215 -570L204 -563C211 -543 213 -530 211 -500L207 -446C205 -425 198 -413 183 -398L214 -370C221 -364 225 -364 230 -372C238 -385 244 -389 259 -391L340 -401V-300L83 -264L124 -228C146 -235 166 -239 211 -246C187 -130 149 -54 53 47L65 60C177 -27 228 -121 259 -254L340 -267V-113C340 -35 335 -11 317 19L356 79C364 91 367 91 371 78C378 60 381 25 381 -38C448 -89 525 -176 582 -273V-121C582 -23 578 -1 560 29L600 93C607 105 611 105 615 93C621 77 622 41 622 -91V-295L796 -48Z"/>
</svg>