<svg xmlns="http://www.w3.org/2000/svg" viewBox="0 -1000 1000 1000">
	<path fill="#000000" d="M696 -729L584 -834L569 -822L659 -664C665 -653 671 -654 676 -666C686 -690 691 -707 696 -729ZM903 -653L865 -699L827 -664L519 -623C519 -635 518 -649 516 -665L501 -666C492 -585 480 -571 446 -536L459 -484C462 -473 467 -473 475 -482C497 -508 509 -534 517 -590L823 -627L775 -532L792 -523C858 -609 872 -621 902 -637C909 -641 909 -646 903 -653ZM861 -422L691 -563L678 -547C752 -464 795 -410 835 -341C843 -328 847 -329 853 -344C861 -368 864 -398 861 -422ZM634 -500L596 -564L582 -557C588 -525 543 -429 444 -309L458 -297C507 -345 542 -382 587 -440C610 -472 618 -480 630 -485C639 -489 639 -493 634 -500ZM499 -191L458 -219C437 -208 376 -193 307 -184V-273L434 -292C443 -293 446 -300 438 -307L419 -323L430 -379C433 -396 439 -411 451 -419C459 -424 458 -428 453 -432L411 -470L390 -435L307 -422V-506L392 -516C401 -517 402 -523 396 -528L368 -550L379 -639L481 -653C492 -654 493 -657 484 -665L453 -693C441 -685 419 -679 382 -673C389 -730 391 -740 401 -754C406 -761 406 -765 401 -770L347 -824L337 -812C350 -778 352 -763 345 -669L231 -652C228 -709 231 -727 243 -744C245 -748 246 -751 239 -757L183 -807L172 -797C188 -767 193 -738 196 -648L74 -632L120 -599C151 -609 161 -611 197 -616C199 -543 195 -523 184 -509L219 -458C227 -447 234 -449 234 -497L273 -502V-418L183 -403L161 -455L147 -450C151 -433 152 -426 153 -380L154 -318C155 -287 153 -280 143 -264L172 -207C176 -200 184 -201 185 -208C187 -223 188 -233 188 -256L273 -269V-181L53 -154L102 -119C142 -130 174 -136 273 -150V-92C273 -26 268 0 256 26L285 93C288 100 295 100 298 92C305 72 307 52 307 -11V-154L497 -179C507 -180 508 -185 499 -191ZM926 -12L879 -51C840 -36 783 -26 671 -18V-261L846 -280C859 -281 860 -286 850 -293L808 -324C760 -301 742 -298 467 -271L521 -238C541 -244 569 -249 632 -257V-16L381 4L429 40C483 27 607 16 922 0C933 0 934 -5 926 -12ZM343 -635L336 -544L233 -528L232 -620ZM394 -405L386 -319L307 -306V-391ZM273 -300L188 -286L186 -374L273 -387Z"/>
</svg>