<svg xmlns="http://www.w3.org/2000/svg" viewBox="0 -1000 1000 1000">
	<path fill="#000000" d="M489 -649L454 -690L424 -654L358 -643C359 -652 359 -663 358 -670C428 -732 449 -748 479 -752C488 -753 489 -757 481 -769L451 -812L419 -786L144 -747L186 -715C240 -729 268 -734 403 -750L345 -687L248 -714L243 -699L333 -639L125 -607L173 -578C202 -587 228 -593 287 -602C246 -541 169 -472 95 -422L104 -406C183 -452 260 -513 329 -597V-513C329 -488 329 -481 327 -468L261 -502L252 -489C293 -458 313 -442 340 -411C345 -406 350 -407 354 -413C363 -427 365 -437 365 -498V-616L418 -625L380 -566L391 -556C448 -616 462 -626 488 -635C494 -638 495 -642 489 -649ZM904 -490V-509C786 -509 754 -517 705 -551L666 -578C680 -592 691 -605 706 -625C718 -641 724 -648 732 -650C741 -652 742 -656 737 -668L720 -714L826 -727C840 -728 840 -732 828 -741L779 -773C761 -757 738 -749 577 -729C602 -774 607 -782 613 -785C624 -790 624 -794 617 -804L575 -864L561 -859C567 -795 530 -678 439 -543L454 -534C486 -572 505 -598 528 -634C547 -625 560 -618 615 -576C580 -532 506 -471 452 -438L462 -420C511 -447 545 -468 580 -494C587 -472 587 -453 583 -410L418 -396C419 -423 420 -432 423 -441C427 -451 426 -455 418 -462L377 -495L369 -485C378 -462 383 -441 385 -394L147 -378L200 -337C217 -342 307 -354 386 -361C386 -339 384 -323 378 -311L404 -263C412 -249 421 -250 421 -284L475 -291V-251L305 -235L279 -291L265 -285C269 -272 271 -260 274 -214L276 -181C277 -167 273 -149 266 -137L292 -83C298 -71 303 -71 307 -83C309 -89 311 -101 311 -118L475 -132V-78L96 -56L147 -15C175 -22 314 -35 475 -46C472 -8 465 12 454 29L487 102C491 111 498 112 502 98C506 83 510 33 511 -49L887 -73C906 -74 909 -81 893 -91L842 -123C818 -107 736 -93 511 -80V-135L718 -154C727 -154 730 -159 724 -167L708 -188L714 -213C721 -240 724 -244 739 -252C745 -255 745 -260 738 -266L699 -301L680 -271L511 -255V-294L620 -308C631 -309 632 -312 622 -322L608 -336L613 -380L845 -400C864 -401 867 -409 850 -419L799 -451C772 -434 709 -419 617 -412C621 -434 624 -442 635 -452C643 -459 642 -462 633 -471L595 -509C617 -529 625 -536 644 -554L752 -468ZM694 -711C684 -674 670 -645 635 -599C594 -627 583 -638 570 -656L540 -655C549 -671 554 -680 560 -693ZM580 -377L574 -334L420 -314L419 -363ZM683 -238L672 -183L511 -168V-223ZM475 -165L311 -148L310 -205L475 -220Z"/>
</svg>