<svg xmlns="http://www.w3.org/2000/svg" viewBox="0 -1000 1000 1000">
	<path fill="#000000" d="M928 -757L887 -788C853 -774 790 -760 496 -730L533 -695C561 -702 608 -710 673 -717C676 -679 674 -645 665 -589L594 -578L565 -644L552 -639C558 -611 563 -570 564 -522L571 -263C572 -218 569 -199 559 -180L587 -134C592 -125 599 -126 602 -134C605 -142 607 -158 608 -186L775 -208L802 -160C808 -151 812 -151 816 -160C823 -176 828 -205 830 -249L843 -547C844 -567 853 -584 866 -592C874 -597 873 -602 866 -608L816 -646L784 -605L696 -592C713 -657 718 -673 728 -682C736 -687 736 -691 729 -697L704 -722L924 -743C939 -744 940 -748 928 -757ZM544 -588L508 -614C497 -606 477 -600 451 -595L457 -665C459 -693 467 -709 483 -719C490 -724 490 -730 480 -738L440 -771L406 -731L163 -694L204 -659C221 -664 247 -671 271 -676C273 -645 271 -610 265 -570L61 -542L119 -503C144 -514 171 -520 261 -533C257 -500 251 -467 242 -432L127 -415L175 -379C195 -386 203 -388 234 -394C209 -293 144 -152 61 -37L79 -28C149 -119 204 -207 241 -296C243 -283 244 -270 245 -258L249 -123C250 -76 248 -62 237 -37L272 25C276 33 284 34 286 22C288 11 289 -11 289 -61L465 -83C474 -84 475 -89 468 -96L442 -123L452 -251C454 -271 461 -285 475 -293C484 -298 485 -305 473 -315L433 -348L404 -310L280 -285L258 -341C265 -362 271 -382 277 -402L478 -431C497 -434 498 -438 483 -449L445 -477L448 -559L542 -571C556 -573 556 -579 544 -588ZM894 -31L720 -177L707 -163C799 -56 839 -1 874 57C880 66 886 66 889 54C893 40 896 2 894 -31ZM687 -115L656 -170L640 -164C630 -97 551 15 450 85L461 103C522 64 608 -15 648 -66C663 -85 672 -94 680 -97C691 -101 692 -107 687 -115ZM418 -696L413 -589L307 -575C312 -602 316 -614 324 -620C332 -626 333 -630 327 -639L301 -680ZM411 -553L407 -456L285 -438C292 -472 295 -494 300 -538ZM800 -574L795 -332C794 -281 789 -250 781 -228L763 -250C749 -243 678 -228 607 -219L605 -312L764 -333C774 -334 776 -338 768 -347L746 -373C734 -366 680 -354 603 -344L601 -433L766 -453C778 -454 780 -457 770 -468L747 -493C728 -485 677 -474 601 -463L599 -546ZM412 -275L404 -111L287 -93L284 -253Z"/>
</svg>