<svg xmlns="http://www.w3.org/2000/svg" viewBox="0 -1000 1000 1000">
	<path fill="#000000" d="M939 -740L907 -767C878 -749 812 -740 528 -717L568 -685C591 -692 638 -698 685 -702C686 -668 680 -627 661 -562L610 -554L587 -626L571 -620C577 -595 579 -563 579 -523V-253C579 -221 574 -200 562 -181L595 -119C602 -107 608 -109 611 -121C613 -130 614 -151 614 -180L774 -197L798 -141C805 -127 809 -127 814 -140C823 -162 826 -188 830 -254L845 -512C847 -541 851 -550 866 -567C873 -575 872 -579 866 -583L820 -617L796 -579L694 -566C713 -621 722 -641 732 -650C738 -655 738 -661 735 -667L709 -704L933 -723C948 -724 949 -731 939 -740ZM548 -689L517 -710C497 -701 466 -694 422 -689C431 -749 434 -759 446 -776C452 -785 450 -789 444 -795L392 -847L382 -839C392 -804 393 -755 387 -687L263 -677C261 -731 261 -744 268 -755C274 -764 272 -767 266 -772L211 -820L200 -810C213 -781 220 -751 224 -671L53 -659L97 -625C123 -632 148 -636 226 -642L228 -597C230 -563 225 -544 214 -530L248 -475C254 -466 259 -466 263 -478C265 -485 266 -499 266 -518L303 -522V-432L167 -416L136 -496L122 -491C130 -462 136 -414 136 -392V-107C136 -73 132 -55 117 -31L154 35C161 48 167 47 169 33C171 21 172 -7 172 -63V-386L303 -401V-132C303 -94 298 -76 282 -50L315 19C322 33 329 32 333 17C337 2 339 -23 339 -104V-195L345 -189C367 -215 386 -237 400 -255L430 -196C436 -184 440 -183 445 -196C450 -208 452 -221 453 -240L357 -363L347 -358L385 -284C375 -264 359 -236 339 -207V-405L466 -419C463 -321 458 -232 452 -152C447 -83 444 -62 437 -30L357 -83L348 -71C393 -21 415 9 435 46C438 52 448 54 453 46C476 8 485 -41 502 -378C503 -400 509 -415 530 -436C538 -444 537 -448 529 -454L485 -486L456 -449L339 -434V-525L421 -533C438 -534 440 -540 426 -552L407 -567L419 -659L544 -669C563 -671 564 -678 548 -689ZM299 -241L209 -360L200 -352L232 -289C223 -266 205 -231 176 -186L187 -177C215 -207 233 -228 250 -253L276 -201C282 -188 286 -188 291 -201C294 -210 297 -220 299 -241ZM686 -103L658 -167L645 -163C642 -104 582 -6 478 87L486 97C544 57 605 -2 650 -57C660 -69 668 -77 681 -84C688 -88 690 -95 686 -103ZM887 12L741 -134L731 -125L858 68C865 80 869 79 874 68C879 56 884 36 887 12ZM384 -656L375 -563L264 -548L263 -645ZM803 -547L794 -286C793 -250 788 -232 778 -220L761 -236C741 -227 710 -221 614 -209V-307L765 -323C782 -324 782 -331 769 -340L738 -360C720 -349 691 -344 614 -334V-419L769 -435C786 -437 785 -440 774 -450L745 -475C724 -464 690 -457 614 -447V-526Z"/>
</svg>