<svg xmlns="http://www.w3.org/2000/svg" viewBox="0 -1000 1000 1000">
	<path fill="#000000" d="M905 -755L863 -790C830 -773 753 -758 464 -732L508 -696C537 -704 586 -711 638 -716C639 -679 632 -641 617 -582L562 -573L539 -625L528 -620C533 -591 538 -535 538 -503V-263C538 -215 533 -196 523 -181L553 -134C563 -119 570 -120 571 -179L742 -205L772 -154C776 -146 782 -144 785 -153C790 -167 791 -177 796 -242L816 -531C818 -559 828 -583 843 -594C850 -598 850 -601 843 -607L800 -644L768 -604L644 -586C666 -640 676 -658 689 -668C695 -672 695 -675 691 -681L665 -718L902 -743C914 -744 914 -747 905 -755ZM492 -393L451 -431L424 -390L308 -376V-478L451 -494C458 -495 459 -499 454 -504L423 -530L432 -680C434 -718 436 -725 459 -743C464 -747 463 -751 458 -756L418 -795L391 -759L190 -733L161 -798L147 -793C154 -758 158 -717 158 -679L161 -551C161 -506 160 -492 151 -476L183 -422C186 -417 191 -417 193 -421C196 -428 198 -441 197 -465L273 -475V-372L153 -358L124 -420L107 -413C114 -382 120 -334 120 -287L125 -143C126 -85 120 -58 105 -33L150 43C153 49 158 49 160 42C162 32 163 -1 161 -79L154 -326L273 -340V-213L173 -181L217 -146C247 -168 272 -182 364 -220L380 -168C381 -164 385 -163 389 -169C399 -184 404 -197 411 -220L353 -300L341 -294L357 -238L308 -222V-343L432 -358C421 -116 415 -69 405 -39L333 -89L323 -77C376 -17 390 2 411 41C414 46 419 47 422 40C442 3 457 -90 463 -287C465 -351 471 -366 491 -378C499 -382 500 -386 492 -393ZM649 -113L618 -173L606 -169C595 -113 530 -13 410 84L417 96C485 57 540 10 610 -71C623 -86 636 -96 645 -99C652 -101 653 -105 649 -113ZM863 61C866 47 866 15 862 -23L705 -132L695 -118C791 -22 813 6 849 63C855 71 860 70 863 61ZM397 -726L395 -623L372 -644C363 -638 353 -635 308 -629V-715ZM273 -506L197 -496L193 -700L273 -711V-624L198 -613L227 -586C238 -591 253 -593 273 -595ZM394 -608L393 -522L308 -511V-599ZM778 -571L762 -321C759 -277 755 -253 746 -229L734 -244C716 -235 679 -225 571 -212V-309L736 -330C745 -331 745 -335 739 -342L717 -366C702 -358 650 -349 571 -338V-419L736 -442C744 -443 745 -447 738 -454L715 -478C697 -470 658 -462 571 -448V-543Z"/>
</svg>