<svg xmlns="http://www.w3.org/2000/svg" viewBox="0 -1000 1000 1000">
	<path fill="#000000" d="M513 -720L440 -776L431 -767L488 -663C493 -653 500 -653 504 -664C509 -678 512 -695 513 -720ZM934 -727L891 -760C857 -742 798 -730 519 -705L564 -669C594 -678 642 -685 692 -690C695 -654 690 -622 671 -559L622 -552L594 -621L581 -616C587 -582 591 -533 591 -498L594 -242C595 -198 592 -182 580 -164L609 -114C615 -103 620 -104 624 -114C629 -127 631 -143 632 -171L781 -189L808 -125C813 -114 819 -115 823 -125C831 -144 836 -171 838 -220L850 -512C851 -535 857 -553 873 -564C880 -569 880 -573 873 -579L832 -614L802 -577L701 -563C719 -612 733 -639 743 -647C750 -653 749 -657 744 -662L715 -692L930 -713C945 -714 946 -718 934 -727ZM559 -157L541 -160L512 -55C484 -102 462 -174 448 -246C464 -283 484 -338 494 -373C510 -427 518 -446 525 -454C532 -460 534 -465 530 -472L491 -533L476 -526C482 -480 468 -397 438 -314C430 -388 420 -511 416 -589L536 -603C550 -605 550 -611 538 -621L506 -645C489 -636 458 -629 414 -622C409 -728 411 -763 419 -784C423 -794 422 -798 415 -804L359 -855L348 -847C360 -820 368 -776 374 -686C375 -665 377 -641 379 -618L193 -595L165 -699L149 -695C159 -602 158 -447 149 -315C139 -171 113 -82 41 33L54 45C142 -77 179 -168 188 -353C189 -385 190 -420 191 -461L222 -442C247 -449 304 -459 390 -471C398 -380 407 -294 413 -250C378 -168 338 -104 271 -25L285 -13C345 -77 383 -124 424 -196C453 -76 488 -6 522 41C529 49 536 46 537 31C540 -24 546 -83 559 -157ZM380 -359C386 -364 387 -369 379 -376L343 -403L322 -371L262 -361L240 -414L226 -410C230 -383 231 -373 231 -333L232 -230C232 -197 230 -178 222 -162L247 -105C253 -93 261 -93 262 -106C264 -125 265 -152 265 -185L369 -202C383 -205 385 -208 372 -219L354 -234L360 -315C362 -339 366 -348 380 -359ZM706 -105L671 -165L658 -162C665 -113 606 -13 495 84L504 96C560 58 620 0 666 -59C676 -72 691 -85 700 -88C709 -91 711 -96 706 -105ZM899 5L750 -122L738 -111C803 -34 852 39 870 77C875 87 885 87 889 77C894 64 898 34 899 5ZM389 -486L361 -507C337 -494 296 -484 191 -473C192 -500 193 -531 194 -563L381 -585C384 -552 387 -518 389 -486ZM811 -546L803 -308C801 -244 797 -223 785 -207L765 -229C751 -222 718 -215 631 -204L628 -303L783 -323C794 -324 796 -328 786 -337L760 -360C747 -352 703 -342 627 -332V-413L779 -431C792 -433 794 -438 783 -446L750 -469C733 -461 696 -451 626 -440L625 -523ZM328 -341L323 -227L263 -216L261 -331Z"/>
</svg>