<svg xmlns="http://www.w3.org/2000/svg" viewBox="0 -1000 1000 1000">
	<path fill="#000000" d="M540 -528L514 -548C506 -542 493 -539 441 -528V-741L509 -750C523 -752 523 -757 512 -765L482 -787C454 -776 400 -767 123 -737L165 -704C190 -712 201 -715 230 -719V-498L107 -481L147 -451C164 -458 257 -474 408 -495C407 -472 402 -461 397 -454L418 -418C423 -409 429 -410 433 -418C438 -429 441 -450 441 -498L537 -512C550 -514 551 -519 540 -528ZM927 -744L886 -775C852 -756 782 -744 503 -720L549 -686C579 -695 615 -701 687 -707C692 -678 687 -639 671 -566L622 -559L594 -623L581 -618C587 -589 591 -538 591 -500L594 -259C595 -212 592 -196 580 -179L609 -130C615 -122 620 -122 624 -130C627 -135 628 -142 629 -179L802 -193L824 -152C830 -141 835 -142 839 -152C845 -166 847 -181 850 -241L862 -521C863 -540 871 -557 886 -568C894 -574 894 -578 886 -584L844 -619L816 -583L700 -569C718 -625 727 -646 739 -658C745 -664 745 -668 740 -673L708 -710L923 -730C938 -731 939 -735 927 -744ZM561 -177L556 -193L513 -179V-387L557 -392C570 -393 572 -399 561 -409L537 -429C506 -417 440 -402 341 -393L309 -417C275 -404 199 -391 76 -381L116 -354C125 -357 138 -360 156 -363L152 -128L43 -96L100 -66C119 -77 193 -110 276 -140C275 -78 267 -38 254 -16L280 45C284 54 288 55 294 46C301 33 306 -5 307 -107L342 -84C378 -104 397 -112 481 -144C481 -53 474 -19 459 6L487 56C494 67 498 66 502 56C510 34 513 -20 513 -157ZM893 -4L750 -153L738 -142C819 -27 839 6 869 68C875 79 879 79 883 68C889 54 892 30 893 -4ZM697 -104L674 -159L661 -156C661 -117 600 -15 478 89L486 101C542 70 612 7 660 -55C671 -70 679 -79 692 -87C700 -92 701 -95 697 -104ZM408 -524L263 -503V-558L389 -576C401 -577 402 -583 393 -591L372 -610C364 -604 332 -595 263 -584V-637L386 -653C397 -654 398 -659 389 -668L371 -686C362 -681 341 -676 263 -664V-722L408 -738ZM826 -552L818 -324C816 -266 812 -244 801 -218L792 -229C777 -221 734 -215 629 -206L628 -308L792 -328C804 -329 805 -333 796 -342L773 -365C764 -359 735 -350 627 -336V-423L788 -441C801 -442 802 -448 793 -456L768 -479C750 -471 714 -464 626 -450L625 -531ZM481 -312L457 -330C445 -324 426 -319 399 -314L400 -376L481 -384ZM276 -226L254 -243C247 -237 222 -230 188 -225L190 -277L263 -289C273 -291 273 -296 265 -303L247 -319C232 -312 219 -308 190 -302L191 -367L276 -378ZM481 -235L458 -252C452 -247 426 -238 397 -232L398 -288L481 -302ZM366 -371L361 -134L307 -118V-151L336 -164L330 -179L307 -173V-382L325 -385L354 -367C357 -368 361 -369 366 -371ZM481 -170L395 -144L397 -208L481 -224ZM276 -164L187 -138L188 -200L276 -215Z"/>
</svg>