<svg xmlns="http://www.w3.org/2000/svg" viewBox="0 -1000 1000 1000">
	<path fill="#000000" d="M460 -587C468 -592 468 -595 460 -602L425 -634L403 -603L329 -592L314 -625L299 -621C304 -597 305 -580 305 -545V-511C305 -483 303 -472 295 -460L324 -413C328 -406 334 -406 337 -414C339 -419 340 -431 340 -452L448 -466C463 -467 464 -473 453 -481L435 -495L442 -560C443 -572 447 -579 460 -587ZM957 54C945 -5 938 -78 932 -169L917 -170L907 -28C820 -142 801 -256 818 -680C819 -703 826 -725 842 -733C851 -738 852 -742 846 -749L805 -798L772 -753L537 -725L505 -811L491 -806C503 -732 496 -449 488 -320C482 -222 468 -147 443 -83L425 -97C408 -89 364 -79 335 -75V-146L452 -161C463 -162 463 -167 455 -174L425 -201C404 -190 372 -180 335 -175V-226L452 -243C465 -244 465 -247 454 -257L426 -283C409 -273 369 -262 335 -256V-317L461 -335C474 -337 473 -341 463 -349L432 -374C414 -365 392 -359 341 -350C346 -361 349 -377 349 -390L277 -439L271 -429L322 -346L200 -328C232 -379 236 -385 246 -389C255 -392 256 -396 250 -409L232 -448L264 -453C278 -455 278 -459 265 -470L251 -482L258 -530C262 -558 264 -564 274 -572C282 -579 282 -582 274 -590L250 -612C251 -622 250 -636 249 -667L328 -676L318 -630L337 -625L358 -679L484 -694C494 -695 494 -700 485 -707L447 -735C434 -725 401 -716 367 -710C385 -775 390 -788 398 -794C406 -800 404 -804 395 -813L350 -859L339 -852C350 -824 347 -764 334 -706L247 -696L246 -740C246 -759 248 -770 252 -775C256 -780 255 -784 247 -793L207 -838L193 -828C202 -816 212 -773 213 -748L215 -693L69 -677L109 -645C127 -651 148 -654 215 -663C215 -655 214 -650 211 -645L233 -606L223 -590L160 -578L142 -621L128 -616C131 -592 131 -580 132 -549L134 -498C135 -477 131 -459 123 -447L150 -401C157 -391 162 -392 163 -401C165 -414 166 -421 166 -439L207 -445C198 -393 148 -275 40 -166L50 -154C110 -204 133 -227 163 -269V-87C163 -31 159 -11 149 8L173 73C177 83 180 83 186 73C192 61 195 49 195 -24C248 -34 292 -42 433 -60C410 -11 377 39 340 79L353 92C463 -20 508 -121 521 -319C531 -448 535 -583 535 -692L781 -721C771 -521 775 -328 795 -207C816 -73 866 10 942 63C955 72 959 66 957 54ZM792 -118L708 -212L698 -206L735 -114L664 -103V-276L755 -286C764 -287 766 -292 757 -299L740 -315L747 -407C749 -429 752 -440 767 -452C774 -458 773 -462 769 -466L737 -504L711 -471L664 -464V-586C709 -606 731 -614 750 -619C762 -622 763 -626 755 -635L725 -668L715 -666C704 -641 682 -624 543 -565L548 -548C588 -559 611 -566 629 -573V-460L583 -452L564 -498L549 -493C552 -481 555 -438 556 -399L557 -323C557 -297 553 -280 545 -270L577 -216C581 -209 587 -209 591 -218C593 -223 594 -239 594 -268L629 -272V-97L477 -73L530 -32C540 -42 590 -58 743 -94L764 -42C768 -32 773 -31 777 -41C779 -47 790 -102 792 -118ZM407 -576L400 -492L338 -481L335 -564ZM225 -563L219 -476L164 -466L162 -550ZM715 -443L707 -313L664 -307V-435ZM629 -302L592 -296L587 -425L629 -431ZM297 -250L195 -239V-296L297 -312ZM297 -171L195 -158V-219L218 -206C236 -211 266 -217 297 -222ZM297 -70L195 -57V-138L219 -124C237 -131 259 -136 297 -142Z"/>
</svg>