<svg xmlns="http://www.w3.org/2000/svg" viewBox="0 -1000 1000 1000">
	<path fill="#000000" d="M298 -729L195 -798L187 -785L273 -661C279 -653 284 -653 286 -661C293 -684 296 -704 298 -729ZM407 -734L395 -745L228 -487L142 -562L130 -549C162 -512 211 -446 226 -420C230 -414 236 -414 240 -421ZM931 -285C832 -284 760 -309 668 -376L518 -486C523 -489 525 -495 522 -500L501 -534C526 -555 550 -578 571 -600C664 -549 740 -493 788 -446C795 -438 801 -438 802 -448C803 -466 798 -496 791 -521L589 -620C606 -636 613 -642 622 -647C628 -651 628 -655 624 -659L606 -677L742 -695L706 -632L720 -623C769 -676 794 -691 817 -699C825 -702 827 -707 820 -714L778 -760L742 -728L481 -692C520 -756 530 -770 542 -776C548 -779 549 -783 545 -789L501 -850L488 -843C495 -800 470 -706 360 -575L370 -563C406 -595 440 -632 470 -675L495 -656C509 -662 531 -667 566 -672C535 -596 453 -513 304 -442L312 -427C371 -448 422 -477 467 -509C411 -429 236 -282 53 -204L60 -185C133 -209 212 -246 298 -307C299 -295 300 -282 300 -265V-27C300 18 290 42 263 57L298 98C303 104 307 103 313 97C357 54 384 37 490 -20L482 -37L338 26V-108L642 -138C617 -118 581 -93 531 -61L395 -110L385 -93C510 -42 610 7 738 87C748 93 753 91 753 85C753 70 746 40 737 18L559 -51C625 -87 689 -117 703 -121C714 -124 717 -128 715 -135L701 -193L689 -194C684 -181 672 -167 655 -149L634 -173L645 -265C647 -285 652 -299 664 -308C672 -314 671 -318 665 -322L623 -353L609 -337L497 -323C503 -338 508 -359 510 -380L450 -433C465 -445 482 -459 495 -470L765 -252L930 -267ZM483 -322L336 -304L321 -325C348 -344 371 -363 432 -417ZM611 -305L596 -166L338 -134V-188L572 -218C578 -219 579 -224 574 -229L542 -256C523 -244 471 -233 338 -219V-273Z"/>
</svg>