<svg xmlns="http://www.w3.org/2000/svg" viewBox="0 -1000 1000 1000">
	<path fill="#000000" d="M845 -706L814 -771L802 -768C798 -722 771 -682 680 -579L694 -566C748 -611 792 -651 812 -672C822 -681 830 -686 838 -688C849 -691 850 -696 845 -706ZM565 -639L468 -746L456 -739L534 -577C540 -565 544 -564 550 -577C556 -591 562 -615 565 -639ZM863 -410C861 -432 853 -460 845 -476L639 -583C655 -629 667 -680 675 -728C679 -749 686 -769 695 -781C700 -788 700 -795 696 -800L649 -856L635 -849C643 -807 641 -769 624 -677C602 -552 546 -473 404 -377L416 -362C528 -428 597 -489 628 -560L850 -400C860 -393 864 -396 863 -410ZM338 -584L255 -651L243 -636L313 -526C319 -517 327 -517 329 -526C335 -549 337 -564 338 -584ZM442 -567C445 -589 444 -612 440 -631L291 -740C300 -760 309 -773 317 -777C325 -781 326 -786 321 -795L281 -863L266 -858C278 -767 147 -523 23 -390L36 -377C83 -420 126 -469 163 -519V-88C163 -42 157 -31 124 -12L167 18C174 23 180 23 185 15C196 -3 225 -28 353 -126L415 -51C423 -40 428 -42 431 -54C436 -73 437 -93 436 -119L299 -221L286 -207L335 -147L200 -58V-241L408 -268C422 -270 424 -275 412 -285L390 -306L404 -428C408 -458 415 -472 428 -480C434 -484 435 -488 427 -495L383 -531L355 -494L205 -474L182 -547C218 -599 251 -659 281 -719L420 -564C434 -548 440 -550 442 -567ZM567 -250L477 -350L462 -340L534 -191C539 -181 545 -182 549 -190C557 -210 562 -223 567 -250ZM951 45V25C832 22 814 8 699 -181C741 -219 774 -252 806 -287C818 -300 825 -304 834 -305C843 -306 845 -311 841 -319L812 -382L798 -380C798 -349 754 -271 686 -203L649 -264C653 -281 656 -298 658 -317C666 -378 674 -403 684 -414C691 -421 691 -426 683 -433L627 -484L615 -476C628 -438 622 -310 604 -248C559 -102 494 -22 290 81L299 99C499 16 597 -79 639 -220L788 60ZM364 -461L352 -296L200 -273V-343L343 -363C356 -365 357 -370 347 -377L310 -401C292 -390 277 -386 200 -376V-439Z"/>
</svg>