<svg xmlns="http://www.w3.org/2000/svg" viewBox="0 -1000 1000 1000">
	<path fill="#000000" d="M899 -553L856 -583C838 -570 791 -559 669 -543V-639L818 -657C827 -658 828 -663 820 -670L784 -700C766 -691 718 -678 669 -672C669 -753 674 -773 685 -786C688 -791 688 -796 683 -800L622 -857L612 -849C623 -823 629 -777 629 -667L473 -649L520 -612C553 -623 573 -627 629 -635V-538L417 -515L467 -479C515 -492 540 -497 612 -506C601 -478 577 -444 542 -409C505 -373 492 -363 459 -349L496 -318C503 -312 508 -312 515 -316C537 -327 556 -332 777 -375L817 -323C822 -317 827 -318 829 -324C838 -351 839 -370 836 -391L713 -481L705 -470L759 -397L529 -363L593 -419C635 -456 646 -464 659 -470C670 -475 671 -480 662 -488L642 -509L895 -537C912 -539 912 -544 899 -553ZM337 -560L273 -630L262 -622L300 -511C303 -502 308 -502 315 -511C329 -528 335 -541 337 -560ZM447 -569C448 -584 446 -606 440 -636L297 -717C311 -748 321 -762 329 -767C334 -771 334 -775 330 -782L287 -851L271 -846C285 -767 179 -509 29 -338L42 -323C90 -373 140 -436 184 -505C186 -477 188 -434 188 -401V-86C188 -34 184 -25 157 2L195 34C200 39 207 38 213 31C243 -2 273 -30 350 -91L386 -33C393 -22 400 -22 403 -33C411 -59 413 -72 413 -96L302 -208L288 -196L338 -112L227 -36V-225L414 -253C430 -255 431 -260 417 -269L391 -288L404 -432C407 -460 412 -471 426 -479C436 -485 436 -490 430 -495L384 -535L356 -499L225 -477L202 -534C236 -587 264 -643 289 -699C363 -641 400 -605 432 -566C440 -555 446 -557 447 -569ZM949 -12L907 -48C878 -38 863 -35 819 -30L831 -191C835 -230 840 -246 854 -260C862 -268 862 -273 856 -278L810 -315L785 -279L510 -247L477 -302L463 -296C471 -272 478 -227 480 -184L490 1L368 14L421 49C612 19 720 10 947 0C956 0 957 -5 949 -12ZM365 -468L355 -280L227 -259V-336L346 -356C357 -358 359 -363 352 -367L314 -392C299 -382 288 -378 227 -369V-445ZM794 -246L782 -27L711 -20L716 -154C717 -172 720 -187 725 -198C729 -207 728 -212 722 -218L705 -236ZM683 -170L679 -18L624 -11L620 -138C619 -158 623 -177 628 -184C632 -191 633 -194 623 -203L600 -226L675 -234C681 -214 684 -191 683 -170ZM591 -8L523 -2L514 -217L572 -223C580 -202 584 -176 585 -153Z"/>
</svg>