<svg xmlns="http://www.w3.org/2000/svg" viewBox="0 -1000 1000 1000">
	<path fill="#000000" d="M911 -714L873 -741C856 -733 804 -720 750 -714C765 -769 773 -788 784 -797C791 -803 791 -809 786 -814L735 -868L722 -862C729 -824 724 -775 712 -709L590 -697L589 -732C589 -746 592 -764 598 -773C603 -781 602 -786 597 -790L543 -839L532 -832C541 -807 549 -768 550 -751L554 -694L427 -683L469 -647C490 -654 526 -662 555 -665C556 -628 554 -608 548 -596L578 -550C584 -541 589 -542 592 -553C594 -561 594 -577 593 -609L590 -668L705 -680C697 -641 686 -599 672 -557L694 -554C711 -596 729 -647 741 -683L909 -699C921 -700 921 -707 911 -714ZM324 -581L255 -648L245 -640L293 -531C297 -522 301 -522 307 -530C318 -546 321 -560 324 -581ZM431 -610C432 -623 431 -644 428 -666L285 -746C293 -765 300 -777 304 -781C310 -786 311 -791 308 -797L274 -858L260 -855C246 -716 164 -544 21 -374L32 -363C88 -419 134 -471 173 -530C177 -513 179 -491 179 -465V-104C179 -52 170 -21 145 0L188 28C194 32 199 31 203 24C214 5 257 -40 341 -111L375 -52C382 -40 387 -40 391 -53C396 -67 401 -93 403 -118L298 -218L286 -210L330 -131L214 -50V-256L397 -281C406 -282 409 -286 400 -295L383 -313L399 -472C400 -485 408 -501 420 -509C429 -515 428 -521 422 -525L381 -557L352 -520L216 -501L192 -561C216 -599 241 -647 276 -724L417 -603C425 -596 430 -598 431 -610ZM957 38V23C855 15 816 -9 736 -107L672 -182L892 -204C908 -205 908 -211 895 -219L849 -247C818 -234 737 -218 640 -208C649 -241 656 -259 663 -267C671 -274 671 -278 665 -285L642 -309L811 -326C821 -327 822 -333 814 -340L789 -361L809 -500C811 -514 819 -527 835 -541C841 -546 841 -552 836 -556L793 -594L764 -558L519 -532L493 -587L480 -582C488 -553 494 -506 494 -489L495 -373C496 -335 491 -319 481 -304L515 -246C522 -235 529 -237 530 -249C531 -257 531 -278 532 -298L610 -306C609 -274 604 -237 595 -205L395 -187L442 -153C472 -161 520 -168 586 -174C550 -72 484 0 333 75L342 89C503 26 591 -51 631 -178L639 -179L814 54ZM771 -528L751 -354L531 -326L530 -397L713 -421C728 -423 729 -427 718 -437L688 -464C664 -449 629 -439 530 -425L529 -501ZM361 -488L348 -307L214 -285V-370L332 -383C344 -384 345 -390 335 -398L306 -422C288 -412 260 -405 214 -399V-470Z"/>
</svg>