<svg xmlns="http://www.w3.org/2000/svg" viewBox="0 -1000 1000 1000">
	<path fill="#000000" d="M316 -584L261 -649L249 -641L279 -538C282 -527 284 -526 294 -537C304 -546 313 -567 316 -584ZM769 -615L734 -649L707 -614L606 -598L580 -663L564 -657C571 -618 576 -580 576 -561L577 -482C578 -448 572 -426 564 -414L592 -375C600 -365 607 -366 609 -376C611 -388 612 -401 612 -420L756 -437C769 -438 771 -443 760 -453L741 -472L750 -557C752 -575 759 -589 768 -594C779 -601 778 -606 769 -615ZM405 -585C407 -596 406 -626 404 -644L287 -739C296 -759 298 -763 306 -769C316 -776 316 -782 311 -789L269 -848L254 -840C270 -776 182 -565 40 -386L54 -375C92 -415 133 -467 169 -520C173 -503 175 -484 175 -451V-56C175 -31 165 -12 136 13L184 38C192 42 197 40 203 31C217 9 255 -31 329 -98L366 -33C371 -24 379 -23 383 -36C389 -59 391 -76 391 -99L287 -198L276 -190L315 -120L212 -38V-238L367 -260C381 -262 382 -265 376 -275L358 -305L371 -453C372 -471 380 -485 392 -492C400 -497 400 -502 394 -509L357 -552L330 -513L213 -492L184 -543C220 -600 247 -648 277 -716L388 -581C397 -571 402 -572 405 -585ZM928 -21L888 -55C860 -40 785 -30 471 -17V-691L865 -721C881 -722 881 -728 868 -737L824 -767C790 -752 717 -744 467 -725L442 -810L428 -806C432 -773 434 -735 434 -659V-126C434 -22 430 -16 401 2L436 37C443 43 448 43 453 36C461 23 467 20 501 18L924 -6C938 -7 938 -12 928 -21ZM858 -321C867 -330 866 -335 857 -343L821 -372L796 -337L732 -327L703 -386L691 -381C697 -357 700 -321 700 -279V-179C700 -145 696 -128 689 -116L713 -72C720 -61 729 -62 731 -74C734 -91 735 -111 735 -135L848 -149C861 -151 862 -158 853 -165L829 -185L838 -266C841 -293 846 -309 858 -321ZM662 -306C671 -314 671 -319 661 -327L632 -350L607 -321L544 -311L520 -371L506 -366C511 -332 513 -304 513 -272V-166C513 -141 510 -124 501 -109L528 -59C534 -48 539 -50 543 -60C547 -69 549 -101 548 -129L652 -141C665 -143 666 -150 657 -158L640 -174L647 -259C649 -281 655 -299 662 -306ZM715 -584L706 -463L612 -449L610 -568ZM336 -482L322 -287L213 -271V-347L316 -363C325 -364 326 -370 321 -376L300 -400C288 -391 264 -385 213 -379V-462ZM806 -307L795 -174L735 -165V-297ZM615 -292L608 -167L548 -158V-282Z"/>
</svg>