<svg xmlns="http://www.w3.org/2000/svg" viewBox="0 -1000 1000 1000">
	<path fill="#000000" d="M881 -686L842 -717C816 -703 749 -688 656 -677V-709C656 -747 662 -776 671 -787C676 -793 675 -798 669 -803L607 -849L596 -839C610 -806 618 -769 618 -731V-673L417 -652L469 -616C517 -627 550 -632 618 -640V-575L461 -557L510 -521C550 -534 625 -546 809 -564C820 -565 821 -570 812 -577L777 -606C752 -595 711 -586 656 -579V-644L878 -672C888 -673 889 -680 881 -686ZM317 -576L253 -635L243 -627L287 -524C291 -516 297 -516 302 -524C309 -535 314 -552 317 -576ZM415 -606C416 -620 414 -638 408 -668L280 -730C288 -746 293 -754 300 -759C305 -763 306 -768 303 -774L267 -846L252 -843C253 -737 163 -519 31 -357L47 -345C94 -398 131 -446 164 -500V-109C164 -35 157 -20 125 4L171 22C177 24 183 23 188 18C221 -19 253 -51 330 -120L384 -45C391 -34 397 -35 399 -45C403 -64 405 -83 405 -114L279 -218L267 -209L316 -138L200 -48V-238L393 -265C406 -267 406 -274 397 -282L377 -300L388 -444C390 -469 398 -488 413 -500C419 -505 419 -510 412 -516L368 -550L347 -511L202 -487L184 -535C212 -585 239 -640 271 -711L398 -603C410 -594 414 -596 415 -606ZM921 -258L872 -288C845 -277 768 -263 697 -253C718 -291 728 -305 737 -312C743 -317 744 -322 740 -328L716 -364L793 -372C803 -373 805 -376 798 -384L777 -408L787 -450C793 -476 799 -485 811 -493C816 -496 816 -503 811 -507L771 -540L749 -506L506 -474L478 -518L467 -511C475 -493 481 -466 482 -447L484 -382C485 -351 482 -343 474 -331L503 -289C508 -282 513 -282 516 -293C518 -304 519 -323 519 -344L699 -363C698 -337 690 -302 664 -251L592 -244C598 -259 600 -270 603 -290L537 -342L526 -332L576 -243L360 -223L407 -186C472 -202 595 -215 918 -244C929 -245 931 -252 921 -258ZM813 -156C820 -160 821 -165 813 -172L771 -207L748 -170L512 -142L488 -192L472 -186C480 -156 484 -134 485 -98L488 -1C488 28 485 46 474 61L507 108C513 115 521 115 522 105C525 88 526 73 524 35L792 8C801 7 803 0 796 -6L770 -32L784 -102C790 -132 800 -148 813 -156ZM752 -473L742 -399L517 -374L513 -444ZM354 -477L341 -292L200 -270V-354L324 -371C334 -372 334 -377 328 -382L298 -409C278 -398 253 -391 200 -383V-455ZM750 -135L734 -21L523 0L520 -111Z"/>
</svg>