<svg xmlns="http://www.w3.org/2000/svg" viewBox="0 -1000 1000 1000">
	<path fill="#000000" d="M698 -491L693 -440L603 -425L601 -478ZM801 -583L786 -375L523 -342L510 -548ZM747 -522L713 -549L694 -523L594 -507L571 -536L562 -531C566 -519 570 -496 571 -482L573 -439C574 -423 572 -411 567 -400L589 -376C599 -365 603 -367 604 -377C605 -381 605 -387 604 -396L739 -414C756 -416 756 -421 744 -431L726 -445L730 -471C732 -487 736 -494 746 -502C757 -511 755 -516 747 -522ZM761 -248L750 -87L546 -63L544 -127L722 -149C739 -150 741 -157 728 -166L696 -190C682 -181 634 -168 543 -159L541 -221ZM515 -278C519 -277 521 -280 523 -284C524 -287 525 -299 524 -311L836 -345C854 -347 855 -357 843 -366L823 -379L837 -539C840 -578 845 -588 862 -597C873 -603 873 -609 863 -617L817 -651L793 -618L506 -582L473 -628L463 -623C469 -601 475 -566 477 -532L484 -401C487 -352 486 -341 478 -329L505 -288L496 -284C501 -268 508 -229 508 -216L511 -109C512 -64 509 -51 502 -37L528 -2C540 13 543 14 546 -3C547 -9 547 -15 546 -28L801 -56C818 -57 819 -64 805 -74L788 -87L797 -209C801 -245 806 -254 817 -262C827 -269 827 -275 817 -284L778 -315L754 -281L528 -252ZM360 -466L349 -286L225 -261V-339L337 -359C349 -361 349 -365 342 -372L314 -398C302 -388 276 -377 225 -368V-442ZM428 -601C425 -622 420 -641 412 -666L300 -714C316 -748 322 -757 330 -763C340 -770 340 -777 336 -783L290 -846L273 -840C293 -782 205 -551 44 -339L58 -329C101 -374 145 -429 186 -494C188 -482 190 -468 190 -452V-60C190 -28 184 -15 158 2L207 27C213 30 220 29 227 20C247 -10 295 -59 361 -114L397 -52C404 -41 410 -40 413 -49C418 -67 422 -84 426 -110L318 -220L307 -212L350 -134L225 -42V-230L392 -256C407 -258 407 -263 399 -271L385 -286L398 -450C399 -461 406 -471 420 -480C430 -487 430 -491 420 -499L378 -533L350 -498L220 -476L202 -524C234 -574 261 -629 291 -694L411 -596C422 -587 429 -589 428 -601ZM912 22L876 -10C836 13 769 21 380 41L415 80C443 71 490 66 908 39C923 38 924 33 912 22ZM333 -554L278 -616L264 -607L300 -507C304 -496 309 -496 316 -507C324 -520 329 -534 333 -554ZM900 -701L868 -731C844 -715 768 -696 424 -663L458 -628C493 -639 569 -648 897 -684C910 -685 912 -690 900 -701ZM690 -755L612 -840L597 -830L659 -699C661 -694 667 -694 669 -699C682 -723 684 -729 690 -755Z"/>
</svg>