<svg xmlns="http://www.w3.org/2000/svg" viewBox="0 -1000 1000 1000">
	<path fill="#000000" d="M498 -382L463 -417L434 -381L339 -367V-467L457 -481C469 -482 470 -487 460 -495L429 -519C417 -513 394 -507 339 -499V-591L440 -604C454 -605 454 -611 443 -619L412 -643C395 -636 367 -627 339 -621V-719L454 -733C469 -734 469 -740 458 -747L420 -772C402 -759 335 -747 196 -731L175 -797L160 -793C163 -759 165 -716 165 -678V-446C165 -377 163 -353 150 -328L177 -275C185 -261 190 -263 195 -275C197 -281 199 -297 200 -311L437 -348C427 -160 409 -56 371 8L275 -76L262 -65C307 -13 338 34 360 79C366 91 370 92 379 82C428 24 448 -37 473 -312C475 -336 484 -355 496 -362C508 -369 507 -374 498 -382ZM911 -437L871 -470C852 -460 783 -443 704 -434V-708L854 -727C864 -728 865 -733 856 -740L815 -771C790 -754 762 -745 506 -720L557 -684C599 -693 632 -699 663 -703V-431L480 -418L534 -378C560 -386 574 -388 663 -397V-123C663 -25 658 -14 644 9L683 89C692 107 697 108 701 86C703 74 704 53 704 -67V-400L910 -421C921 -422 922 -427 911 -437ZM408 -207L338 -302L325 -295L377 -164C382 -152 387 -152 393 -160C400 -171 404 -184 408 -207ZM335 -174L272 -271L258 -265L300 -134C304 -123 310 -121 316 -129C325 -141 329 -151 335 -174ZM256 -147L203 -257L190 -251L219 -102C222 -88 226 -86 233 -95C240 -104 250 -126 256 -147ZM152 -250H138C135 -190 121 -146 90 -113L107 -58C111 -46 118 -45 124 -56C151 -105 157 -156 152 -250ZM303 -617L200 -604V-702L303 -715ZM303 -494L200 -477V-584L217 -572C227 -576 248 -580 303 -587ZM303 -362L200 -345V-467L234 -446C259 -455 283 -461 303 -463Z"/>
</svg>