<svg xmlns="http://www.w3.org/2000/svg" viewBox="0 -1000 1000 1000">
	<path fill="#000000" d="M889 -535C896 -538 896 -543 889 -549L842 -591L813 -551L690 -537V-648C690 -717 695 -753 707 -770C710 -775 709 -781 704 -786L638 -849L628 -840C648 -791 652 -758 652 -659V-533L544 -520L510 -605L493 -601C500 -557 503 -511 504 -437L509 -106C510 -36 505 -16 492 7L532 68C537 76 546 77 547 68C549 52 550 36 550 -20L770 -39L800 38C807 53 812 53 817 37C823 18 829 -28 836 -128L859 -473C862 -514 869 -526 889 -535ZM477 -386L438 -421L408 -388L329 -375V-469L454 -490C465 -492 465 -499 456 -505L426 -526C413 -520 369 -506 329 -499V-583L443 -601C456 -604 456 -610 444 -617L413 -634C401 -628 377 -622 329 -614V-696L471 -716C486 -718 487 -724 475 -733L443 -758C429 -747 353 -730 193 -710L166 -788L152 -784C157 -752 159 -728 159 -689V-435C159 -396 151 -353 142 -339L173 -280C180 -267 187 -268 190 -279C193 -292 195 -302 196 -321L414 -355C399 -142 374 -44 338 2L249 -81L233 -68C285 4 307 40 324 74C329 84 338 85 344 76C401 -2 430 -85 450 -329C451 -345 461 -359 474 -366C487 -373 486 -378 477 -386ZM387 -224L312 -300L301 -292L351 -176C357 -162 363 -163 369 -173C381 -193 385 -205 387 -224ZM318 -189L249 -283L237 -277L277 -143C281 -130 286 -129 295 -139C306 -153 312 -166 318 -189ZM238 -163L186 -266L174 -261L193 -118C195 -105 201 -103 208 -111C222 -126 233 -144 238 -163ZM144 -273L125 -272C113 -190 103 -171 72 -146L86 -84C89 -73 94 -71 102 -82C132 -124 142 -165 144 -273ZM291 -608L196 -595V-678L291 -691ZM291 -493L196 -478V-586L227 -566C237 -568 265 -573 291 -578ZM291 -370L196 -354V-469L230 -449C245 -454 269 -460 291 -464ZM652 -308L545 -296L541 -485L652 -498ZM821 -518L800 -154C797 -98 791 -79 777 -60L756 -84C744 -76 729 -72 690 -67V-278L796 -290C806 -291 808 -296 799 -304L769 -330C755 -324 727 -317 690 -312V-502ZM652 -64L549 -54L545 -283L587 -259C603 -265 621 -270 652 -275Z"/>
</svg>