<svg xmlns="http://www.w3.org/2000/svg" viewBox="0 -1000 1000 1000">
	<path fill="#000000" d="M721 -730L607 -838L595 -831L688 -667C694 -657 698 -656 704 -666C711 -678 718 -706 721 -730ZM882 -642L841 -669C803 -650 761 -642 438 -610L487 -577C514 -585 560 -591 879 -626C895 -627 896 -633 882 -642ZM862 -461L710 -572L700 -559C758 -502 790 -463 843 -388C849 -380 857 -380 858 -388C860 -407 861 -419 862 -461ZM613 -512L576 -567L564 -564C567 -513 538 -444 453 -313L466 -303C501 -339 521 -366 574 -450C592 -478 601 -489 608 -494C616 -500 617 -506 613 -512ZM463 -369L425 -400L403 -369L328 -359V-461L433 -472C446 -473 447 -478 436 -486L406 -508C393 -502 380 -498 328 -490V-583L419 -593C432 -594 432 -599 422 -607L392 -631C376 -623 360 -618 328 -612V-712L450 -726C465 -727 465 -733 454 -740L416 -765C398 -753 343 -742 201 -727L177 -790L162 -786C167 -752 169 -721 169 -683V-462C169 -392 166 -369 153 -343L180 -280C184 -270 194 -268 198 -280C201 -291 201 -298 202 -311L404 -336C383 -129 356 -25 335 -1L238 -76L231 -64C275 -11 299 23 322 67C328 79 331 80 340 70C377 27 398 -33 438 -301C441 -323 448 -338 461 -348C471 -356 471 -363 463 -369ZM372 -216L301 -299L288 -292L341 -168C347 -155 352 -156 357 -165C362 -175 369 -196 372 -216ZM310 -184L242 -277L229 -271L277 -142C282 -126 286 -126 293 -137C300 -150 304 -161 310 -184ZM245 -161L190 -264L176 -259L209 -120C212 -106 216 -105 224 -114C231 -122 239 -139 245 -161ZM952 19C819 4 809 0 686 -214C697 -234 725 -285 743 -322C758 -352 768 -366 776 -372C781 -375 782 -380 780 -386L749 -465L733 -462C735 -419 703 -326 661 -254C599 -362 594 -374 594 -389L543 -394L539 -384C565 -355 584 -330 624 -255L641 -223C546 -84 495 -25 350 86L360 101C496 14 576 -66 664 -182L789 47L951 35ZM149 -260H134C132 -191 111 -163 85 -135L98 -78C101 -65 107 -64 115 -75C143 -113 154 -164 149 -260ZM292 -606L203 -594V-697L292 -707ZM292 -485L203 -473V-579L226 -564C239 -569 254 -573 292 -579ZM292 -354L203 -343V-462L235 -445C248 -449 269 -453 292 -457Z"/>
</svg>