<svg xmlns="http://www.w3.org/2000/svg" viewBox="0 -1000 1000 1000">
	<path fill="#000000" d="M893 -295C886 -319 880 -363 876 -432H861L850 -318C829 -311 814 -309 798 -310C756 -312 747 -321 747 -360V-395C821 -448 833 -455 860 -467C867 -470 869 -475 866 -481L844 -527L835 -524C831 -507 809 -479 747 -427C747 -468 750 -482 758 -496C762 -503 761 -509 757 -515L718 -563L705 -556C710 -536 713 -503 713 -444V-351C713 -288 726 -277 787 -274C824 -272 846 -274 884 -281C893 -283 895 -287 893 -295ZM572 -481C578 -489 577 -494 572 -498L524 -537L515 -530C525 -512 528 -494 529 -460L414 -441L464 -413C484 -421 499 -425 530 -430V-378L414 -324L462 -300C477 -317 492 -330 530 -352C530 -327 525 -313 516 -302L546 -262C550 -257 555 -257 556 -262C562 -283 564 -302 564 -329V-428C564 -465 566 -474 572 -481ZM964 -61C870 -67 845 -79 776 -178L659 -348V-562L890 -587C901 -587 902 -592 893 -600L853 -634C829 -621 750 -601 659 -592C659 -622 663 -651 668 -661C671 -666 670 -670 665 -674L623 -708C656 -720 689 -731 733 -746C791 -766 803 -769 813 -770C823 -771 825 -777 815 -785L769 -824L756 -822C749 -797 679 -756 423 -668L430 -650C471 -659 525 -675 603 -701C614 -667 619 -634 619 -589L406 -569L443 -533C463 -540 506 -545 619 -558V-380C551 -199 478 -79 371 27L383 39C472 -32 553 -138 619 -273V-84C619 -21 615 9 602 34L635 100C640 109 645 108 649 99C656 79 659 48 659 -44V-300L817 -32L962 -42ZM432 -367C440 -373 440 -378 432 -384L390 -416L366 -379L301 -369V-461L396 -476C408 -478 409 -483 401 -491L379 -512C364 -506 332 -497 301 -491V-587L387 -598C399 -600 399 -605 391 -613L366 -636C354 -629 331 -622 301 -616V-708L406 -723C416 -724 417 -730 411 -737L383 -767C361 -752 303 -738 191 -724L154 -790L139 -785C149 -742 151 -707 151 -650V-423C151 -367 148 -347 137 -330L164 -287C172 -275 177 -277 181 -289C183 -297 185 -307 186 -317L370 -343C361 -106 351 -57 332 -1L242 -80L228 -68C267 -18 293 21 317 68C324 80 332 82 339 70C376 9 400 -85 409 -316C410 -341 418 -356 432 -367ZM355 -209L285 -295L273 -286L323 -162C329 -148 333 -147 341 -160C348 -172 352 -185 355 -209ZM293 -173L234 -272L219 -265L257 -124C260 -116 265 -116 271 -124C281 -138 287 -150 293 -173ZM226 -155L176 -262L163 -255L185 -111C186 -102 191 -99 197 -106C209 -118 220 -136 226 -155ZM136 -247L120 -246C116 -168 99 -137 78 -117L96 -64C99 -54 105 -53 110 -62C139 -113 145 -156 136 -247ZM265 -610L187 -598V-693L265 -704ZM265 -364L187 -351V-587L213 -567C227 -573 246 -578 265 -582V-485L190 -471L216 -442C230 -449 243 -452 265 -456Z"/>
</svg>