<svg xmlns="http://www.w3.org/2000/svg" viewBox="0 -1000 1000 1000">
	<path fill="#000000" d="M722 -222C703 -175 683 -138 647 -97C607 -111 581 -119 546 -128C560 -151 572 -170 592 -206ZM268 -362L181 -346L180 -453L199 -438C220 -444 243 -449 268 -455ZM418 -217L463 -184C481 -191 509 -197 551 -202C538 -170 523 -142 506 -116C546 -102 584 -87 622 -70C573 -21 508 21 386 77L393 92C512 52 601 0 657 -54C740 -14 791 14 844 51C857 61 860 57 858 43C856 29 848 5 836 -20C796 -42 745 -63 687 -83C719 -122 748 -170 771 -227L907 -243C924 -245 923 -252 912 -259L870 -284C839 -272 761 -258 610 -240C640 -298 647 -309 653 -313C662 -319 663 -325 657 -334L634 -370L812 -394L780 -315L794 -306C842 -386 862 -403 889 -415C898 -419 898 -424 890 -431L851 -466L820 -429L675 -411C683 -423 688 -438 691 -453L612 -511L600 -502L656 -408L516 -389C515 -397 513 -405 511 -414H497C495 -364 478 -336 451 -320L461 -272C464 -259 469 -258 478 -270C501 -303 511 -328 515 -356L610 -368C610 -338 604 -319 566 -236L419 -221C423 -248 426 -278 430 -311C433 -338 442 -359 452 -369C457 -374 457 -379 452 -384L414 -417L390 -382L304 -367V-459L407 -476C425 -479 425 -485 411 -494L379 -515C366 -507 347 -501 304 -492V-577L399 -592C412 -594 413 -599 403 -606L368 -630C356 -623 335 -616 304 -609V-697L408 -715C422 -717 423 -723 413 -730L379 -755C358 -742 294 -728 170 -710L148 -780L133 -775C139 -743 141 -715 141 -644L146 -409C147 -372 144 -360 135 -346L158 -281C163 -269 172 -270 176 -282C179 -291 181 -303 181 -313L394 -348C377 -131 357 -59 328 -14L242 -89L232 -77C268 -30 287 -1 316 53C320 61 327 64 335 53C370 8 395 -48 418 -217ZM268 -487L179 -473L178 -569L195 -555C216 -562 239 -567 268 -572ZM268 -604L177 -588L175 -677L268 -692ZM773 -741L748 -566L547 -538L543 -609L716 -633C729 -635 729 -641 720 -648L690 -670C659 -657 622 -649 542 -639L540 -708ZM829 -758C836 -764 836 -769 829 -775L792 -809L763 -774L531 -740L505 -796L491 -790C501 -749 506 -714 506 -684L511 -580C511 -540 509 -527 502 -513L529 -449C533 -441 543 -441 544 -452C546 -466 547 -479 547 -506L799 -539C812 -541 812 -547 805 -552L782 -569L809 -709C815 -740 819 -749 829 -758ZM145 -260H130C122 -200 109 -175 82 -157L94 -100C97 -84 104 -83 113 -96C136 -127 145 -162 145 -260ZM241 -177L185 -265L174 -261L204 -133C207 -122 212 -121 217 -128C227 -142 236 -158 241 -177ZM304 -211L242 -287L229 -282L274 -165C277 -158 284 -158 288 -165C295 -178 300 -192 304 -211ZM365 -237L300 -309L288 -302L335 -191C340 -179 345 -179 350 -189C355 -199 361 -218 365 -237Z"/>
</svg>