<svg xmlns="http://www.w3.org/2000/svg" viewBox="0 -1000 1000 1000">
	<path fill="#000000" d="M273 -721L159 -807L152 -797L249 -657C256 -648 261 -648 265 -660C270 -676 274 -700 273 -721ZM947 -292L945 -307C786 -282 755 -285 460 -333C462 -341 463 -348 462 -363L739 -388C755 -389 755 -395 744 -403L714 -425L730 -570C733 -590 741 -609 753 -618C762 -625 761 -630 754 -636L711 -672L683 -636L537 -614C551 -639 565 -660 575 -668C583 -675 583 -679 574 -688L827 -723C841 -725 842 -730 831 -737L798 -759C777 -748 696 -734 626 -725C656 -772 675 -792 690 -801C700 -807 700 -812 694 -819L650 -869L638 -865C642 -828 633 -790 596 -721L518 -710C525 -725 530 -747 532 -773L445 -843L435 -836L504 -708L315 -685L354 -653C374 -660 460 -673 534 -683C529 -662 519 -635 506 -608L452 -599L429 -650L416 -644C423 -613 426 -576 426 -540L427 -455C427 -436 424 -413 412 -392L445 -335C375 -346 296 -354 248 -359C300 -426 294 -443 255 -476C293 -535 313 -559 330 -569C340 -575 340 -578 333 -587L298 -628L268 -590L77 -555L117 -523C142 -533 175 -542 269 -560L226 -473C259 -441 263 -426 218 -360C167 -360 120 -353 74 -340L121 -312C178 -333 215 -338 417 -308C486 -297 536 -289 593 -277C597 -254 601 -223 602 -192L139 -166L189 -125C205 -130 252 -135 354 -143L425 1C430 11 435 12 440 1C445 -10 450 -27 456 -62L373 -144L602 -162V-27C602 -5 601 6 599 14L502 -41L494 -31C548 15 571 42 608 90C616 100 621 100 627 88C635 72 639 46 639 18V-164L842 -178C860 -179 861 -184 847 -196L815 -222C797 -214 720 -201 639 -194C640 -214 643 -233 647 -239C651 -246 651 -249 644 -255L625 -272C681 -261 735 -249 785 -238ZM695 -606L679 -418L462 -389L461 -432L650 -462C665 -464 665 -469 655 -475L625 -493C611 -485 571 -476 461 -461L459 -500L655 -530C668 -532 668 -536 658 -544L633 -563C618 -553 567 -541 459 -527L458 -573Z"/>
</svg>