<svg xmlns="http://www.w3.org/2000/svg" viewBox="0 -1000 1000 1000">
	<path fill="#000000" d="M724 -750L642 -849L631 -839L685 -689C690 -677 694 -676 702 -688C713 -704 719 -721 724 -750ZM495 -500C500 -503 501 -509 495 -514L457 -548L435 -522L413 -519L434 -710C436 -726 445 -741 457 -751C465 -757 465 -762 458 -767L416 -804L389 -768L219 -746L191 -807L175 -800C181 -768 185 -729 185 -693V-495L140 -489C140 -521 139 -540 136 -566L115 -567C114 -470 100 -428 71 -391L91 -334C94 -325 99 -323 106 -335C123 -361 134 -406 139 -460L436 -493L418 -430L433 -424C461 -473 476 -490 495 -500ZM951 -220V-237C866 -244 826 -260 763 -308L679 -372C713 -408 727 -424 751 -462C770 -492 777 -500 798 -512C806 -517 807 -521 801 -527L763 -567L735 -532L605 -511C611 -520 617 -529 622 -539C633 -560 642 -571 654 -576C660 -578 663 -585 658 -592L637 -626L832 -649L800 -582L813 -571C858 -630 882 -654 906 -667C914 -671 914 -676 905 -684L863 -719L837 -685L533 -647C534 -668 533 -689 530 -715H512C508 -639 492 -601 470 -575L493 -543C500 -534 504 -534 509 -543C520 -565 527 -587 531 -615L606 -623C596 -553 545 -461 449 -342L460 -331C498 -368 528 -399 552 -430C568 -423 589 -410 633 -371C578 -309 509 -254 415 -185L425 -170C463 -191 482 -203 510 -222C514 -197 517 -170 518 -141L522 -45C525 -8 517 22 508 35L546 90C554 100 558 101 562 85C564 77 565 64 564 28L787 10C796 9 799 6 790 -4L768 -28L784 -128C787 -149 794 -167 808 -178C814 -183 815 -188 811 -192L776 -230L747 -200L555 -180L532 -238C576 -273 619 -310 658 -349L828 -200ZM429 -392C436 -396 436 -399 429 -405L393 -441L370 -413L220 -383L200 -441L182 -436C186 -404 187 -372 187 -330V-104C187 -37 177 -4 162 14L202 80C209 91 213 90 217 80C223 66 225 46 225 -37V-153L328 -168C340 -169 342 -173 330 -183L304 -204C295 -197 268 -188 225 -180V-248L326 -270C337 -273 339 -277 328 -285L304 -303C296 -297 261 -285 225 -277V-356L372 -381V-96C372 -29 370 -8 364 10L292 -36L281 -23C318 14 349 50 381 90C388 98 393 97 396 91C403 76 409 38 409 -33V-349C409 -369 415 -386 429 -392ZM397 -737L377 -516L325 -510V-592C325 -612 330 -625 341 -638C345 -643 344 -646 339 -650L307 -677L284 -649L219 -637V-713ZM289 -506L219 -498V-608L289 -620ZM724 -497C699 -457 676 -424 651 -392C602 -430 588 -443 585 -453L567 -451C577 -464 584 -474 593 -489L619 -475C638 -484 666 -490 724 -497ZM746 -167L730 -24C718 -21 702 -18 683 -16L563 -4L559 -147Z"/>
</svg>