<svg xmlns="http://www.w3.org/2000/svg" viewBox="0 -1000 1000 1000">
	<path fill="#000000" d="M676 -773L585 -859L572 -848L645 -712C649 -704 655 -705 659 -713C667 -728 672 -747 676 -773ZM929 -138V-158C863 -162 851 -172 799 -329L751 -471V-474L857 -486C866 -487 867 -491 859 -497L818 -524C797 -514 774 -506 751 -502C751 -562 756 -590 767 -601C773 -607 772 -612 765 -618L711 -668L698 -663C713 -621 715 -599 715 -497L638 -489L685 -459C693 -463 700 -465 709 -467C683 -308 647 -225 595 -120V-366L638 -295C643 -288 647 -288 650 -296C655 -316 656 -331 655 -351L595 -396V-457L654 -463C664 -464 665 -468 656 -474L615 -500C609 -496 602 -492 595 -489C595 -555 600 -578 612 -590C616 -594 615 -598 610 -602L555 -650L544 -645C557 -607 560 -560 560 -481L470 -468C471 -492 472 -518 472 -545C473 -594 474 -623 476 -645L859 -689C869 -690 870 -695 861 -702L811 -740C783 -720 744 -708 476 -675L446 -759L428 -754C438 -700 439 -668 436 -547L403 -580L377 -544L359 -541L367 -707C368 -733 378 -751 391 -761C397 -765 396 -771 390 -776L350 -812L322 -775L190 -753L157 -820L144 -813C152 -782 159 -741 160 -706L164 -510L127 -504C128 -525 127 -547 125 -568H104C103 -488 85 -445 58 -427L78 -369C82 -360 88 -360 95 -371C111 -401 121 -436 125 -473L379 -513L355 -450L369 -441C406 -495 424 -516 436 -525C436 -511 435 -494 435 -478C430 -251 410 -130 349 10L367 19C434 -109 462 -221 470 -458L504 -436C519 -444 535 -449 551 -451C521 -325 482 -214 425 -105L440 -94C493 -180 522 -239 560 -356V-133C560 -71 553 -33 540 -8L570 65C574 74 581 74 584 65C591 45 594 7 595 -104L605 -97C657 -184 690 -253 715 -361V-129C715 -66 709 -26 696 -2L727 69C732 80 738 79 741 68C749 40 751 18 751 -78V-385L818 -133ZM370 -417C376 -421 375 -426 370 -430L328 -464L304 -425L191 -408L166 -467L154 -462C157 -438 158 -415 158 -357V-124C158 -30 153 -13 140 9L176 71C181 79 186 79 189 67C193 48 194 27 194 -50V-177L293 -191C303 -192 303 -197 296 -205L273 -230C260 -222 241 -216 194 -207V-280L293 -296C303 -298 304 -302 295 -309L267 -331C258 -324 235 -317 194 -308V-377L311 -396V-85C311 -44 309 -25 306 -12L239 -64L225 -49C267 1 288 30 314 71C320 79 325 79 329 71C343 39 348 10 348 -52V-364C348 -392 358 -409 370 -417ZM332 -746L324 -536L275 -528V-610C275 -630 278 -639 288 -647C293 -651 293 -656 287 -661L255 -687L236 -660L195 -652L194 -724ZM241 -523L197 -516L195 -622L241 -631Z"/>
</svg>