<svg xmlns="http://www.w3.org/2000/svg" viewBox="0 -1000 1000 1000">
	<path fill="#000000" d="M499 -540L464 -574L443 -549L411 -545L420 -741C421 -761 424 -768 437 -779C444 -785 444 -790 436 -795L396 -823L374 -787L220 -769L193 -830L179 -826C185 -795 190 -758 191 -718L198 -523L145 -517C145 -537 143 -558 141 -580H124C125 -510 112 -468 84 -429L104 -382C110 -369 115 -369 123 -384C136 -414 142 -448 144 -483L440 -516L414 -457L429 -447C465 -499 484 -518 497 -525C506 -530 506 -534 499 -540ZM887 -508L845 -543L819 -507L578 -478C593 -499 602 -510 609 -514C617 -519 618 -523 614 -531L591 -573L838 -601C848 -602 849 -606 842 -614L821 -638L844 -746C846 -755 853 -768 868 -776C877 -781 877 -785 869 -792L829 -829L805 -798L525 -766L498 -816L485 -810C490 -789 493 -765 495 -736L502 -635C504 -607 500 -598 490 -584L527 -527C533 -519 539 -519 540 -533C541 -543 542 -553 541 -567L570 -571C567 -529 521 -438 431 -326L444 -315C465 -334 483 -352 499 -369C501 -354 503 -335 503 -327L505 -255C506 -233 502 -225 491 -210L521 -163C529 -152 532 -153 536 -166C538 -175 539 -187 539 -202L600 -210V-124L439 -96L484 -58C510 -70 548 -81 701 -118L718 -72C722 -62 730 -62 734 -71C740 -87 742 -95 748 -121L686 -188L675 -183L692 -139L636 -129V-214L749 -228C757 -229 758 -233 751 -241L733 -261L747 -320C750 -333 756 -340 765 -345C771 -349 771 -356 764 -362L730 -390L710 -362L636 -352C637 -375 641 -392 648 -401C652 -408 651 -413 645 -420L619 -448L825 -474C813 -201 775 -33 748 14L668 -57L656 -46C698 7 716 33 746 84C752 94 757 94 762 86C807 24 841 -121 863 -439C865 -469 868 -484 885 -492C894 -497 894 -502 887 -508ZM423 -441L385 -473L360 -442L231 -424L205 -475L190 -470C194 -441 196 -392 196 -365V-85C196 -54 190 -29 172 -8L210 64C215 73 222 73 226 62C233 44 235 10 235 -64V-194L346 -212C359 -213 360 -218 351 -225L326 -246C314 -239 287 -234 235 -226V-291L338 -308C348 -309 348 -313 341 -320L317 -342C306 -335 277 -328 235 -321V-392L367 -411V-105C367 -53 365 -31 360 -17L293 -64L283 -51C316 -18 345 16 377 59C385 69 389 68 393 58C403 33 407 -2 407 -76V-386C407 -405 412 -418 422 -426C428 -430 428 -437 423 -441ZM808 -766L785 -630L715 -618L726 -755ZM689 -751L682 -614L629 -606L632 -744ZM597 -741L595 -602L540 -595L532 -733ZM382 -754L376 -542L331 -537V-631C331 -642 335 -655 343 -660C352 -665 352 -670 345 -676L311 -704L289 -671L229 -661L226 -735ZM297 -534L234 -527L230 -631L297 -641ZM600 -348L534 -339L516 -391C529 -406 541 -422 552 -440L596 -445C599 -429 600 -404 600 -348ZM711 -331L699 -253L636 -245V-322ZM600 -240L539 -232L536 -310L600 -318Z"/>
</svg>