<svg xmlns="http://www.w3.org/2000/svg" viewBox="0 -1000 1000 1000">
	<path fill="#000000" d="M463 -535L421 -571L397 -535L319 -523C404 -640 415 -651 437 -664C447 -670 448 -675 440 -684L401 -731L367 -681L245 -659C303 -764 307 -771 318 -778C328 -785 329 -789 323 -798L285 -862L271 -858C280 -806 187 -590 60 -445L73 -433C103 -464 131 -495 155 -525C158 -492 161 -448 161 -433V-312C161 -284 156 -263 145 -247L178 -188C185 -176 190 -178 194 -189C196 -195 197 -205 197 -231L435 -261C448 -262 450 -267 439 -276L421 -292L438 -447C442 -486 450 -505 462 -514C472 -521 472 -527 463 -535ZM881 -711C891 -720 890 -725 880 -731L836 -758L810 -725L533 -688L501 -770L487 -765C494 -718 497 -674 499 -604L503 -442C506 -338 503 -324 489 -304L527 -233C533 -223 538 -225 541 -236C544 -248 545 -266 544 -310L649 -322V-168C649 -20 644 -3 627 20L665 98C671 111 676 111 680 97C685 81 687 56 687 -91V-326L854 -344C872 -346 873 -352 860 -360L830 -380L849 -617C853 -672 859 -691 881 -711ZM487 -116L387 -217L374 -207L455 -58C460 -49 465 -50 469 -58C478 -78 482 -91 487 -116ZM384 -91L308 -199L295 -191L344 -38C347 -30 351 -29 358 -38C369 -52 378 -69 384 -91ZM283 -65L226 -176L212 -169L238 -23C240 -13 244 -13 253 -21C264 -31 275 -46 283 -65ZM173 -160H158C149 -95 126 -58 79 -23L98 33C101 43 106 43 114 33C160 -26 176 -68 173 -160ZM649 -530L539 -515L535 -654L649 -669ZM360 -644L284 -518L192 -503L176 -551C195 -577 211 -600 226 -623ZM814 -690L795 -379C773 -372 737 -366 687 -361V-502L793 -516C802 -517 803 -522 796 -529L768 -556C754 -548 736 -542 687 -535V-674ZM402 -501L394 -398L365 -416C353 -408 341 -403 311 -397V-487ZM275 -393L197 -382V-471L275 -482ZM649 -357L544 -344L539 -493L558 -480C572 -487 593 -491 649 -498ZM393 -379L386 -291L311 -279V-367ZM275 -275L197 -263V-367L219 -350C228 -354 247 -358 275 -363Z"/>
</svg>