<svg xmlns="http://www.w3.org/2000/svg" viewBox="0 -1000 1000 1000">
	<path fill="#000000" d="M466 -547L427 -585L394 -546L308 -532C351 -615 373 -644 396 -656C406 -661 406 -667 400 -674L363 -717L329 -677L234 -662C278 -754 287 -769 298 -777C304 -782 305 -788 302 -794L259 -859L245 -853C251 -770 203 -625 49 -430L61 -421C90 -447 129 -493 159 -539C162 -521 164 -498 165 -476L170 -317C171 -287 163 -255 153 -240L189 -168C194 -159 201 -158 204 -171C208 -189 208 -197 207 -233L442 -269C450 -270 452 -276 444 -283L425 -300L440 -467C443 -507 447 -520 465 -532C473 -537 473 -541 466 -547ZM953 -25L908 -59C870 -38 814 -30 675 -20V-204L854 -225C864 -226 865 -232 857 -239L821 -268C792 -252 771 -246 675 -234C675 -312 680 -334 690 -350C693 -356 693 -361 687 -366L652 -402L904 -434C914 -435 915 -441 906 -447L864 -477C837 -463 757 -444 678 -434V-584L851 -606C862 -609 863 -613 855 -620L818 -649C776 -633 747 -625 678 -616V-696C678 -733 682 -752 696 -776C700 -783 699 -789 694 -793L624 -852L614 -842C629 -812 639 -753 639 -693V-612L467 -590L515 -555C540 -564 581 -573 639 -580V-431L440 -409L486 -376C503 -382 555 -391 628 -400C633 -377 636 -336 636 -278V-230L472 -212L521 -178C541 -185 566 -191 636 -200V-17L395 2L440 38C490 27 651 12 949 -11C963 -12 964 -16 953 -25ZM470 -122L398 -209L388 -200L438 -76C441 -68 447 -66 453 -75C461 -88 467 -104 470 -122ZM374 -98L312 -181L301 -174L344 -42C348 -31 354 -31 358 -41C369 -70 372 -80 374 -98ZM281 -61L226 -155L215 -148L241 -16C242 -8 248 -6 254 -13C265 -23 271 -34 281 -61ZM154 -160L140 -159C139 -80 123 -43 89 -17L98 40C99 48 102 50 109 42C151 -8 167 -63 154 -160ZM326 -646L279 -527L194 -512L175 -562C194 -588 209 -613 218 -630ZM407 -518L392 -296L316 -283V-379L387 -392C395 -393 395 -399 389 -404L361 -427C347 -418 333 -411 316 -408V-502ZM281 -278L206 -265L199 -483L281 -496V-402L207 -390L237 -362C247 -366 261 -370 281 -374Z"/>
</svg>