<svg xmlns="http://www.w3.org/2000/svg" viewBox="0 -1000 1000 1000">
	<path fill="#000000" d="M948 -434V-451C850 -453 797 -469 745 -504L649 -573C674 -597 702 -625 728 -654C753 -681 767 -692 784 -698C792 -702 793 -704 785 -713L747 -755L715 -725L547 -698C591 -771 595 -775 606 -783C613 -788 614 -792 607 -802L567 -859L553 -854C561 -785 471 -619 385 -523L396 -511C451 -563 474 -589 502 -628C530 -618 561 -600 600 -572C536 -515 455 -458 352 -400L358 -383C433 -418 495 -451 550 -490C536 -450 466 -349 382 -271L392 -259C421 -275 438 -288 462 -313C464 -296 465 -281 467 -253L470 -198C471 -171 469 -160 458 -143L486 -99C493 -88 500 -90 502 -102C503 -110 504 -116 505 -123L778 -153C793 -155 794 -158 783 -168L762 -187L769 -270C773 -318 778 -329 793 -338C802 -343 802 -348 791 -357L756 -388L725 -354L636 -342C678 -394 698 -414 715 -423C723 -427 723 -434 718 -438L686 -466L653 -437L557 -422C568 -438 580 -452 588 -456C595 -460 598 -466 594 -471L568 -504C589 -521 607 -535 626 -551L807 -412ZM320 -777L279 -842L261 -838C282 -782 168 -534 33 -375L46 -362C94 -406 152 -479 204 -562V-129C204 -45 197 -16 181 18L213 89C216 96 223 97 227 90C238 70 239 54 239 -80V-623C246 -637 254 -654 266 -680C291 -734 304 -752 318 -762C323 -766 323 -772 320 -777ZM355 -539C358 -544 359 -548 353 -554L305 -598L293 -588C306 -554 307 -540 307 -465V-320C307 -262 304 -244 290 -222L325 -156C331 -144 337 -145 339 -156C342 -170 343 -181 343 -233V-461C343 -509 346 -527 355 -539ZM859 -35L739 -133L727 -122L843 38C849 45 855 44 858 35C863 15 863 -7 859 -35ZM714 -28L636 -105L623 -97L687 32C691 43 695 43 701 31C709 16 714 -6 714 -28ZM593 -19L522 -97L510 -89L560 42C563 51 567 52 573 44C583 29 591 2 593 -19ZM462 -94H449C435 -38 409 -6 375 12L383 67C384 75 387 76 396 67C433 29 455 -14 462 -94ZM706 -692C681 -657 653 -625 619 -591C591 -612 573 -628 563 -645H513C519 -654 526 -666 534 -677L556 -664C595 -675 629 -682 706 -692ZM645 -405L604 -337L491 -321L481 -331C498 -348 515 -367 530 -387ZM598 -253L500 -239L498 -292L597 -307ZM739 -326L725 -179L632 -167V-230L719 -240C726 -241 727 -245 722 -250L692 -278C684 -271 672 -265 631 -259V-311ZM599 -164L504 -151L501 -226L522 -210C547 -217 562 -220 598 -225Z"/>
</svg>