<svg xmlns="http://www.w3.org/2000/svg" viewBox="0 -1000 1000 1000">
	<path fill="#000000" d="M439 -529C449 -534 448 -541 437 -550L399 -581L375 -543L308 -534C364 -628 385 -651 405 -660C411 -663 413 -669 407 -674L362 -714L333 -677L232 -661C281 -755 284 -759 296 -765C301 -768 304 -772 300 -778L257 -848L245 -845C241 -765 147 -563 45 -428L59 -416C85 -441 123 -488 154 -534C158 -516 160 -489 161 -455V-315C162 -273 159 -258 149 -237L181 -189C188 -178 196 -178 198 -192C200 -210 201 -218 200 -238L422 -271C435 -272 438 -277 426 -287L407 -304L417 -453C421 -503 427 -523 439 -529ZM595 -409L535 -474C550 -509 558 -519 565 -524C571 -528 573 -533 567 -541L529 -595L517 -590C519 -524 478 -401 421 -304L436 -294C471 -338 505 -403 524 -448L563 -354C567 -342 573 -342 578 -355C586 -372 591 -388 595 -409ZM958 -73V-93C856 -94 826 -116 740 -266L684 -363C707 -391 734 -436 752 -474C796 -421 818 -385 843 -327C847 -319 854 -319 858 -329C867 -357 871 -380 872 -407L763 -498C779 -536 787 -547 793 -550C800 -554 802 -560 796 -569L761 -625L746 -619C750 -571 714 -460 671 -382L657 -408V-619L873 -646C883 -647 883 -652 874 -659L828 -694C807 -679 761 -665 657 -652V-704C657 -766 658 -776 668 -790C673 -797 671 -804 665 -809L603 -863L592 -848C609 -819 618 -770 618 -692V-647L409 -623L457 -584C481 -592 552 -605 618 -614V-461C577 -270 478 -100 374 8L388 21C493 -77 564 -178 618 -319V-139C618 -35 611 -10 597 26L635 99C641 111 647 110 649 101C655 65 657 46 657 -139V-351L806 -58ZM453 -152L363 -241L352 -232L415 -96C421 -82 429 -83 435 -95C443 -113 447 -126 453 -152ZM367 -114L287 -215L275 -208L328 -65C333 -52 339 -50 348 -64C355 -75 361 -91 367 -114ZM272 -86L211 -188L199 -182L226 -39C229 -25 232 -25 242 -36C253 -47 263 -63 272 -86ZM159 -175H143C134 -92 123 -70 84 -36L103 17C107 28 114 27 120 20C149 -17 169 -88 159 -175ZM327 -642L275 -529L192 -517L173 -561C189 -585 201 -606 212 -626ZM382 -510L377 -404L342 -430C335 -426 324 -421 302 -416V-498ZM266 -411L196 -397L195 -483L266 -493ZM377 -397L373 -302L302 -290V-384ZM266 -285L199 -272L197 -384L225 -367C232 -370 241 -373 266 -379Z"/>
</svg>