<svg xmlns="http://www.w3.org/2000/svg" viewBox="0 -1000 1000 1000">
	<path fill="#000000" d="M685 -737L591 -842L579 -834L643 -683C650 -666 655 -666 664 -682C672 -697 677 -710 685 -737ZM891 -678L845 -723L816 -687L496 -642C497 -654 496 -668 495 -679L477 -680C469 -610 456 -588 423 -562L444 -501C449 -487 454 -487 463 -500C479 -523 491 -562 495 -610L817 -651L787 -557L802 -549C852 -635 868 -652 886 -657C900 -661 902 -667 891 -678ZM413 -528C422 -536 422 -541 413 -549L375 -585L353 -552L296 -542C333 -610 354 -638 376 -649C385 -654 386 -661 379 -669L347 -704L324 -680L230 -665C266 -731 282 -758 291 -766C300 -772 300 -776 296 -785L260 -852L247 -846C245 -772 179 -611 57 -444L72 -434C108 -472 127 -495 151 -532C154 -514 156 -488 157 -454L159 -332C159 -306 155 -283 145 -268L178 -210C185 -198 190 -199 193 -211C195 -219 195 -230 195 -246L399 -278C412 -279 415 -283 403 -293L382 -313L396 -467C399 -504 406 -523 413 -528ZM828 -486L704 -590L692 -577C745 -515 764 -489 804 -419C813 -403 821 -406 825 -419C829 -434 830 -460 828 -486ZM602 -523L580 -591L568 -587C564 -553 502 -455 413 -385L427 -369C484 -413 509 -435 558 -482C570 -494 581 -503 594 -506C601 -508 605 -513 602 -523ZM948 -195V-214C849 -220 843 -226 736 -351L656 -442C679 -456 682 -464 676 -474L642 -534L630 -529C625 -489 615 -464 589 -421C533 -329 491 -275 400 -181L351 -233L342 -226L403 -89C407 -80 411 -80 417 -89C427 -106 432 -122 432 -146L415 -165C499 -241 553 -303 638 -420L820 -180ZM355 -109L290 -213L277 -206L315 -62C318 -55 323 -55 329 -62C339 -72 350 -92 355 -109ZM266 -81L219 -198L207 -192L217 -33C218 -18 223 -17 233 -30C250 -51 256 -59 266 -81ZM168 -187H156C136 -108 114 -72 88 -52L109 6C113 16 118 17 125 6C160 -48 169 -109 168 -187ZM788 -23L756 -47L770 -151C774 -181 779 -193 787 -201C795 -208 795 -211 786 -219L751 -251L734 -230L549 -207L521 -256L506 -247C512 -232 520 -192 520 -160V-50C520 -5 516 11 502 28L536 86C544 100 549 100 555 85C558 78 560 54 559 17L783 -6C798 -7 798 -15 788 -23ZM312 -646L263 -537L183 -523L168 -556C191 -591 198 -604 211 -629ZM361 -523L354 -417L332 -434C321 -427 308 -422 293 -418V-511ZM260 -413L193 -401L191 -492L260 -506ZM354 -398L348 -303L293 -293V-388ZM260 -288L194 -275L193 -389L215 -371C226 -376 239 -379 260 -383ZM733 -194L717 -35L559 -17V-173Z"/>
</svg>