<svg xmlns="http://www.w3.org/2000/svg" viewBox="0 -1000 1000 1000">
	<path fill="#000000" d="M676 -770L590 -853L576 -842L640 -706C643 -699 649 -698 653 -705C662 -721 668 -737 676 -770ZM908 -694L850 -731C827 -714 771 -702 399 -668L448 -630C480 -642 520 -649 905 -683C916 -684 916 -689 908 -694ZM427 -543L387 -581L362 -547L292 -536C335 -621 350 -635 372 -648C381 -653 381 -657 375 -664L336 -703L311 -668L202 -648C249 -744 258 -757 268 -762C279 -768 279 -773 274 -780L231 -845L219 -841C229 -784 180 -647 44 -442L56 -431C89 -467 113 -498 138 -536C144 -512 146 -494 147 -463L151 -334C152 -300 147 -284 137 -269L168 -205C174 -193 179 -193 182 -207C184 -213 185 -225 185 -239L409 -272C420 -273 423 -279 412 -287L389 -302L407 -467C412 -509 414 -519 426 -526C433 -531 433 -536 427 -543ZM777 -573C786 -578 785 -583 780 -588L738 -628L716 -593L553 -569L523 -624L510 -617C518 -594 523 -572 525 -545L528 -461C529 -445 526 -435 518 -427L546 -379C552 -369 560 -370 560 -381C561 -398 561 -408 559 -422L768 -448C779 -449 779 -455 771 -462L751 -477L760 -545C762 -559 765 -566 777 -573ZM743 -253L707 -285L691 -257L584 -242L559 -287L546 -279C554 -256 557 -240 558 -207L559 -134C560 -115 557 -103 548 -91L578 -48C584 -40 589 -41 590 -51C593 -65 593 -75 592 -102L734 -120C745 -121 745 -127 738 -132L716 -149L726 -211C728 -223 734 -234 741 -239C748 -245 748 -249 743 -253ZM880 -374L833 -414L811 -379L484 -341L453 -395L440 -390C447 -354 452 -309 453 -275L458 -57C459 -5 458 5 443 23L481 92C485 99 491 98 494 89C498 72 499 56 497 -10L488 -306L816 -345C811 -260 807 -190 798 -83C792 -16 789 -6 779 15L696 -47L684 -34C717 1 738 29 780 90C785 97 791 99 795 92C819 50 836 8 851 -284C853 -329 859 -347 879 -361C884 -365 884 -371 880 -374ZM442 -124L355 -211L346 -205L410 -68C414 -60 419 -61 423 -68C432 -82 436 -93 442 -124ZM346 -103L273 -197L263 -190L311 -51C315 -40 320 -40 327 -50C336 -64 340 -76 346 -103ZM260 -73L208 -176L198 -170L217 -26C218 -15 225 -14 232 -22C244 -36 251 -49 260 -73ZM149 -173H134C130 -119 99 -51 71 -36L88 24C91 34 94 35 101 25C136 -24 148 -81 149 -173ZM306 -633L260 -531L173 -516L152 -557C163 -576 173 -593 185 -615ZM721 -561L715 -476L559 -452L557 -537ZM256 -412L181 -402L178 -485L256 -498ZM373 -517L357 -298L290 -288V-388L354 -399C361 -400 362 -404 358 -409L338 -433C325 -425 316 -422 290 -416V-502ZM256 -284L184 -273L181 -384L197 -371C210 -376 225 -379 256 -383ZM692 -225L683 -144L591 -132L589 -212Z"/>
</svg>