<svg xmlns="http://www.w3.org/2000/svg" viewBox="0 -1000 1000 1000">
	<path fill="#000000" d="M507 -621L416 -723L402 -710L474 -562C478 -552 485 -553 490 -563C499 -578 505 -597 507 -621ZM882 -726L837 -754C812 -737 783 -729 522 -698L583 -663C619 -674 650 -681 708 -688C700 -652 657 -598 527 -495L543 -481C597 -519 613 -530 642 -553C651 -543 658 -530 664 -515C627 -453 584 -397 514 -332L529 -318C596 -374 637 -412 685 -474C693 -454 700 -432 705 -414C643 -312 607 -271 522 -190L535 -176C621 -246 655 -282 714 -357C729 -247 716 -160 687 -109L606 -170L594 -154C647 -98 661 -82 683 -45C690 -34 694 -33 702 -42C753 -103 767 -237 749 -369L856 -237C864 -228 870 -228 872 -241C875 -267 875 -280 875 -302L742 -410C741 -415 739 -418 738 -422C827 -519 836 -526 846 -528C857 -530 858 -536 853 -547L830 -599L817 -597C815 -564 775 -500 729 -449C713 -493 689 -538 661 -572C716 -624 731 -635 741 -638C751 -641 752 -645 749 -654L736 -691L879 -711C895 -713 896 -718 882 -726ZM942 30L940 9C814 29 774 21 674 -26C596 -63 522 -92 477 -103C518 -189 518 -224 465 -292C503 -396 518 -418 539 -432C546 -438 545 -442 540 -446L498 -479L472 -443L369 -421L371 -458C373 -497 378 -513 393 -522C401 -527 401 -534 394 -540L353 -574L328 -535L273 -527C321 -620 332 -631 351 -641C359 -645 359 -650 353 -655L311 -693L289 -660L215 -650C250 -720 261 -741 271 -751C280 -760 281 -763 277 -770L240 -835L226 -829C236 -766 163 -588 53 -446L70 -436C102 -473 119 -496 140 -528C142 -501 142 -471 143 -452L142 -314C142 -280 137 -265 126 -249L155 -184C160 -173 166 -173 169 -186C174 -203 176 -217 176 -236L378 -264C389 -265 391 -270 382 -279L362 -297L369 -410L402 -391C426 -401 439 -406 473 -412L434 -293C477 -221 480 -198 451 -107C432 -110 407 -111 388 -111C392 -119 395 -129 399 -139L332 -226L318 -218L362 -90C366 -79 373 -78 380 -98L404 -70C451 -80 485 -74 564 -39C625 -13 701 36 760 79ZM325 -111L266 -205L251 -196L288 -63C291 -51 295 -51 301 -61C310 -75 319 -94 325 -111ZM251 -78L203 -179L188 -172L206 -32C207 -22 214 -19 220 -28C232 -45 244 -63 251 -78ZM153 -166H133C116 -71 106 -55 81 -40L93 26C94 36 101 36 108 28C136 -6 152 -71 153 -166ZM284 -627L238 -521L173 -511L161 -559C179 -585 188 -599 198 -615ZM339 -502L334 -404L305 -419C298 -414 289 -411 268 -406V-491ZM236 -401L176 -390V-478L236 -487ZM333 -387L328 -292L268 -282V-375ZM237 -277L176 -268V-375L196 -360C205 -363 221 -367 236 -370Z"/>
</svg>