<svg xmlns="http://www.w3.org/2000/svg" viewBox="0 -1000 1000 1000">
	<path fill="#000000" d="M592 -701L503 -773L493 -765L564 -652C574 -636 580 -638 585 -653C589 -668 590 -681 592 -701ZM920 -663L874 -705L848 -671L741 -657C760 -679 771 -692 793 -723C802 -736 811 -747 818 -751C827 -756 827 -763 822 -772L787 -827L775 -822C778 -784 771 -749 712 -653L673 -648V-726C673 -768 674 -777 682 -792C685 -799 684 -804 676 -810L625 -855L611 -845C624 -825 637 -774 637 -743V-644L503 -626C503 -645 500 -673 499 -686L484 -685C481 -601 463 -571 431 -545L452 -493C456 -483 463 -482 468 -491C486 -523 498 -555 501 -594L846 -639L805 -544L817 -538C870 -612 893 -633 916 -644C928 -650 929 -655 920 -663ZM427 -537L389 -582L361 -545L297 -536C359 -644 365 -653 386 -666C394 -671 394 -675 388 -680L345 -720L315 -683L230 -668C255 -715 283 -763 293 -773C301 -781 302 -784 298 -791L258 -855L246 -851C256 -794 192 -626 51 -447L63 -436C96 -470 126 -504 152 -541C155 -515 156 -481 157 -462L161 -327C162 -293 157 -277 147 -262L179 -197C185 -186 192 -186 193 -199C195 -218 195 -224 194 -237L414 -273C426 -274 429 -282 418 -289L391 -309L403 -467C405 -496 410 -511 424 -520C433 -525 433 -530 427 -537ZM787 -556C797 -562 796 -567 786 -575L754 -600L723 -566L568 -546L545 -589L534 -581C540 -562 543 -542 544 -521L546 -464C547 -449 545 -441 540 -432L566 -401C576 -390 581 -392 582 -403C583 -411 583 -417 583 -425L767 -449C781 -450 784 -454 772 -466L759 -479L768 -529C771 -543 775 -549 787 -556ZM877 -295C867 -324 858 -363 850 -419L834 -418L828 -308C766 -284 645 -276 588 -280C540 -284 523 -294 519 -315C577 -324 613 -332 693 -355C740 -369 759 -372 789 -376C801 -377 803 -381 792 -391L762 -420H753C703 -386 632 -362 519 -336C519 -399 519 -402 526 -417C530 -424 530 -430 521 -437L477 -473L467 -466C479 -435 482 -416 482 -351C482 -274 495 -253 564 -247C629 -242 755 -246 866 -274C878 -277 881 -282 877 -295ZM449 -113L356 -214L347 -208L417 -57C421 -49 427 -50 431 -57C439 -71 445 -89 449 -113ZM357 -95L284 -190L275 -183L323 -43C327 -32 331 -32 337 -42C346 -57 353 -76 357 -95ZM261 -74L209 -177L199 -171L219 -27C220 -17 226 -15 233 -23C245 -37 254 -54 261 -74ZM837 -202C847 -209 846 -214 836 -223L800 -255L771 -223L541 -196L510 -246L498 -241C507 -212 511 -191 512 -153L516 -17C517 7 513 21 505 35L538 90C546 103 551 102 554 90C557 78 557 63 556 28L755 13L778 65C785 82 790 81 796 65C801 51 804 25 808 -43L816 -160C817 -180 820 -190 837 -202ZM162 -169H147C143 -115 122 -64 93 -50L110 18C113 29 117 30 124 20C150 -22 161 -73 162 -169ZM318 -650L273 -533L186 -520L168 -565C179 -581 192 -602 210 -632ZM734 -536L725 -476L582 -453L577 -515ZM372 -515L364 -402L335 -422C326 -416 313 -411 295 -407V-503ZM261 -400L192 -390L189 -488L261 -499ZM364 -391L359 -294L295 -283V-378ZM261 -278L196 -268L192 -379L216 -361C230 -365 243 -368 261 -372ZM778 -192L770 -55C768 -26 765 -15 757 -5L727 -28C689 -15 636 -6 554 0L553 -69L711 -88C726 -90 726 -94 717 -107L702 -129C659 -114 622 -107 551 -99L548 -165Z"/>
</svg>