<svg xmlns="http://www.w3.org/2000/svg" viewBox="0 -1000 1000 1000">
	<path fill="#000000" d="M700 -736L607 -843L595 -836L652 -671C658 -654 662 -653 673 -668C689 -691 695 -705 700 -736ZM889 -638L843 -696L810 -653L532 -613C534 -639 533 -668 531 -699H509C508 -595 488 -552 451 -524L465 -463C467 -452 474 -449 482 -461C509 -503 520 -530 529 -579L804 -616L754 -514L773 -502C840 -600 859 -615 886 -621C895 -623 897 -628 889 -638ZM493 -312C499 -317 498 -326 492 -331L445 -369L417 -333L185 -295V-360L456 -397C467 -398 467 -407 457 -412L408 -437C389 -424 325 -409 185 -390V-447L420 -484C430 -485 432 -489 422 -498L398 -519L411 -632C413 -651 422 -669 433 -677C439 -681 439 -687 433 -692L391 -730L363 -694L262 -678C292 -755 297 -767 307 -774C314 -779 314 -784 309 -790L259 -846L245 -838C255 -797 255 -767 231 -673L185 -666L151 -739L133 -733C141 -701 151 -618 151 -568V-397C151 -339 148 -324 133 -300L162 -238C168 -226 176 -227 180 -236C183 -242 184 -249 185 -262L429 -300C409 -112 386 -23 364 10L273 -67L259 -53C297 -7 326 34 357 83C362 92 367 92 373 85C410 37 433 -30 463 -251C468 -287 472 -295 493 -312ZM946 48V27C823 10 818 1 774 -198C721 -440 721 -451 726 -459C734 -471 732 -479 720 -484L665 -505L656 -493C683 -461 688 -436 718 -284L786 54ZM388 -188L317 -262L301 -254L360 -129C365 -120 369 -121 372 -128C380 -142 387 -169 388 -188ZM636 -401L586 -468L570 -463C603 -342 526 -73 416 87L434 100C516 -4 574 -138 611 -300C624 -359 630 -375 635 -379C642 -385 642 -393 636 -401ZM307 -153L246 -238L231 -233L270 -99C273 -92 277 -91 283 -99C289 -106 300 -129 307 -153ZM225 -126L183 -222L166 -217L179 -77C180 -66 184 -65 193 -75C205 -89 212 -101 225 -126ZM128 -232H108C108 -153 94 -118 62 -87L79 -23C82 -13 89 -12 96 -22C129 -67 136 -127 128 -232ZM373 -664L361 -511L185 -479V-540L340 -564C351 -566 350 -571 341 -577L302 -602C284 -591 258 -582 185 -570V-631Z"/>
</svg>