<svg xmlns="http://www.w3.org/2000/svg" viewBox="0 -1000 1000 1000">
	<path fill="#000000" d="M466 -588L333 -788L317 -776C374 -667 403 -594 433 -514C437 -501 445 -502 449 -513C457 -534 461 -552 466 -588ZM299 -735L253 -796L238 -790C250 -729 198 -572 86 -417L101 -407C179 -496 223 -568 272 -690C279 -705 286 -718 294 -722C302 -726 302 -730 299 -735ZM905 -349L862 -393L830 -354L544 -311V-375L843 -414C853 -415 855 -420 844 -427L799 -454C755 -436 735 -431 543 -406L541 -470L790 -504C802 -506 804 -511 793 -519L767 -537L794 -648C799 -668 806 -679 818 -685C827 -689 828 -693 821 -699L775 -744L749 -704L613 -684C644 -752 655 -771 665 -778C670 -782 671 -785 665 -793L620 -851L606 -844C615 -819 611 -770 584 -679L541 -672L519 -735L498 -731C503 -704 504 -685 505 -583L507 -380C507 -335 503 -317 491 -296L526 -236C534 -223 542 -226 543 -238C545 -248 546 -260 544 -277L835 -319C802 -110 774 -13 745 27L638 -45L628 -32C684 33 694 45 735 103C739 109 744 109 747 105C813 -5 829 -47 870 -278C876 -311 892 -332 903 -336C911 -339 911 -344 905 -349ZM447 -436L404 -475L377 -440L105 -399L171 -368C189 -375 202 -378 234 -383C226 -273 162 -103 70 8L81 21C162 -66 215 -157 263 -298C269 -316 274 -329 282 -338C287 -342 289 -345 285 -352L261 -387L385 -405C362 -200 351 -132 335 -98L263 -174L255 -162C287 -108 303 -76 328 -22C331 -15 336 -14 342 -22C377 -68 393 -147 420 -369C424 -399 437 -418 445 -421C454 -425 454 -430 447 -436ZM772 -181L697 -258L688 -245L743 -120C747 -112 754 -112 759 -121C766 -135 770 -155 772 -181ZM692 -135L622 -228L609 -218L652 -85C654 -77 660 -76 668 -84C677 -93 687 -114 692 -135ZM596 -119L542 -216L529 -208L551 -65C552 -54 556 -52 566 -63C576 -75 589 -98 596 -119ZM484 -217L461 -218C448 -134 434 -112 410 -97L423 -28C425 -19 431 -17 439 -26C471 -63 483 -109 484 -217ZM751 -669L730 -530L541 -500V-555L710 -579C724 -581 725 -586 714 -593L675 -616C653 -604 623 -596 540 -585L539 -639Z"/>
</svg>