<svg xmlns="http://www.w3.org/2000/svg" viewBox="0 -1000 1000 1000">
	<path fill="#000000" d="M499 -371L429 -441C449 -495 453 -503 458 -511C465 -521 465 -526 461 -533L421 -590L410 -584C423 -518 400 -413 331 -301L341 -291C373 -328 401 -369 420 -418C443 -382 452 -367 470 -322C475 -310 481 -308 486 -318C493 -333 497 -349 499 -371ZM523 -633L478 -665C455 -652 412 -641 344 -633C344 -725 351 -756 359 -768C364 -777 364 -783 359 -789L298 -859L285 -851C300 -815 302 -777 302 -629L90 -606L134 -570C156 -578 206 -587 302 -597C300 -263 241 -113 75 60L84 71C195 -13 266 -130 304 -253C364 -180 375 -166 432 -75C439 -64 446 -63 449 -76C455 -97 456 -123 452 -150L310 -273C323 -319 334 -401 342 -601L518 -617C539 -618 539 -622 523 -633ZM284 -360L218 -441C231 -469 237 -480 241 -486C245 -493 246 -499 241 -507L203 -556L190 -549C201 -492 161 -358 90 -238L103 -229C137 -272 160 -307 208 -418C227 -377 242 -339 249 -314C254 -298 261 -297 266 -308C275 -324 279 -335 284 -360ZM940 -325C946 -330 946 -336 940 -341L894 -379L867 -344L593 -310V-376L863 -406C878 -407 878 -413 867 -421L828 -447C802 -431 760 -422 593 -406V-476L821 -503C833 -504 835 -510 825 -519L804 -537L821 -661C824 -680 829 -691 842 -697C849 -701 850 -705 843 -711L797 -748L773 -711L643 -696C671 -764 681 -782 692 -789C697 -793 696 -799 691 -804L646 -854L634 -848C641 -828 636 -766 618 -694L593 -691L562 -763L548 -757C556 -711 557 -694 557 -610V-407C557 -342 554 -324 540 -302L572 -243C576 -235 583 -236 587 -245C588 -250 591 -264 592 -277L874 -311C857 -157 821 -27 790 27L678 -45L669 -34C726 29 748 57 772 94C776 101 780 101 785 96C850 19 870 -39 910 -272C914 -295 921 -310 940 -325ZM823 -177L751 -257L742 -249L795 -125C799 -117 803 -117 809 -126C816 -140 821 -158 823 -177ZM740 -160L673 -239L665 -233L707 -113C711 -103 716 -102 723 -112C730 -124 739 -148 740 -160ZM652 -134L598 -226L587 -221L609 -91C610 -80 614 -78 624 -89C635 -102 645 -118 652 -134ZM546 -239L532 -241C518 -158 495 -118 471 -106L491 -39C495 -27 499 -27 506 -39C531 -80 546 -152 546 -239ZM787 -681L771 -527L593 -502V-567L747 -586C759 -587 761 -591 751 -600L726 -623C704 -609 674 -603 593 -592V-661Z"/>
</svg>