<svg xmlns="http://www.w3.org/2000/svg" viewBox="0 -1000 1000 1000">
	<path fill="#000000" d="M359 -768L268 -845L258 -838L323 -713C329 -702 334 -701 340 -709C351 -724 356 -743 359 -768ZM921 -320C927 -325 928 -329 921 -335L877 -373L851 -338L586 -304V-369L882 -405C897 -407 898 -412 887 -420L848 -446C821 -430 762 -419 586 -399V-463L814 -490C825 -491 827 -495 818 -504L797 -525L813 -646C816 -668 826 -684 838 -690C848 -696 848 -704 841 -710L797 -747L769 -706L646 -690C680 -772 687 -783 695 -789C699 -792 698 -799 694 -804L653 -859L641 -853C650 -828 644 -775 622 -688L588 -683L558 -752L544 -746C549 -713 549 -692 549 -605V-402C549 -338 547 -320 533 -298L564 -239C569 -230 573 -230 578 -240C582 -249 585 -261 585 -271L857 -306C840 -152 800 -15 771 27L673 -47L663 -35C709 18 729 44 762 96C765 100 772 101 774 98C820 57 856 -54 893 -267C897 -290 903 -305 921 -320ZM477 -670C481 -673 482 -677 477 -681L435 -719L409 -684L196 -650L171 -734L155 -730C161 -678 158 -575 153 -500C133 -205 106 -102 38 25L52 37C130 -84 170 -193 192 -493L462 -532C472 -533 473 -537 464 -545L443 -563L448 -617C450 -642 460 -658 477 -670ZM479 -442C484 -445 484 -450 479 -454L437 -489L410 -455L267 -434L246 -485L233 -480C237 -455 238 -436 238 -376V-134C238 -81 233 -46 214 -16L247 48C251 55 256 55 258 47C271 6 274 -15 274 -128V-191L400 -210C412 -212 412 -216 403 -222L371 -246C350 -234 329 -229 274 -222V-289L396 -305C404 -306 405 -311 399 -316L365 -342C340 -331 323 -327 274 -320V-402L419 -424V-118C419 -55 417 -36 412 -19L336 -75L327 -63C359 -27 378 0 420 67C425 75 432 75 436 67C448 43 457 -12 457 -80V-358C457 -413 462 -431 479 -442ZM805 -174L743 -258L732 -251L771 -125C774 -116 780 -114 786 -124C792 -134 800 -156 805 -174ZM728 -145L662 -238L651 -232L695 -96C698 -87 703 -85 709 -95C716 -110 722 -125 728 -145ZM645 -118L598 -221L586 -217L603 -76C604 -65 610 -64 616 -71C627 -84 635 -98 645 -118ZM540 -231L526 -232C512 -148 499 -118 478 -104L491 -40C494 -28 499 -27 506 -39C533 -82 540 -134 540 -231ZM414 -652L406 -557L194 -527C196 -558 197 -594 198 -619ZM777 -677L761 -517L586 -492V-558L738 -575C750 -576 751 -580 742 -589L714 -616C692 -603 663 -596 586 -586V-652Z"/>
</svg>