<svg xmlns="http://www.w3.org/2000/svg" viewBox="0 -1000 1000 1000">
	<path fill="#000000" d="M893 -304C899 -307 900 -314 893 -320L852 -363L822 -325L551 -295V-364L827 -390C841 -391 841 -397 831 -405L795 -434C769 -420 714 -410 551 -394V-461L779 -482C793 -483 795 -487 784 -497L759 -519L776 -642C779 -665 787 -679 804 -687C812 -691 812 -695 805 -701L759 -739L731 -705L613 -689C645 -768 650 -777 661 -785C668 -790 667 -796 661 -802L617 -852L603 -844C610 -824 607 -757 587 -687L551 -682L519 -753L505 -747C513 -700 514 -684 514 -599V-396C514 -332 511 -314 499 -292L531 -233C536 -224 541 -225 545 -234C547 -240 549 -250 550 -262L823 -287C804 -113 776 -4 747 36L657 -43L645 -33C680 10 715 66 737 108C741 116 746 117 752 110C799 63 822 -1 861 -249C866 -283 873 -294 893 -304ZM477 -245L441 -276C421 -265 382 -256 300 -248C310 -304 314 -316 322 -321C326 -324 326 -331 321 -337L294 -367L436 -377C445 -378 445 -384 440 -389L417 -414L437 -632C441 -678 447 -689 463 -698C470 -702 470 -707 464 -713L424 -756L394 -718L198 -696L164 -762L150 -757C158 -718 161 -693 163 -635L170 -453C171 -416 165 -387 155 -373L191 -313C199 -298 207 -298 208 -314C209 -322 209 -344 208 -361L266 -365C273 -333 271 -296 262 -245L75 -229L110 -192C127 -198 176 -207 256 -215C233 -113 177 -34 42 60L52 73C199 -7 266 -80 295 -218L474 -232C484 -232 487 -236 477 -245ZM413 -312L348 -363L336 -354L390 -272C396 -264 403 -264 406 -273C410 -284 412 -296 413 -312ZM786 -159L733 -237L722 -231L753 -102C756 -93 761 -91 767 -102C774 -116 782 -139 786 -159ZM710 -139L653 -223L642 -217L678 -88C682 -77 687 -77 694 -87C701 -100 708 -124 710 -139ZM623 -118L571 -216L561 -212L585 -62C586 -51 593 -48 600 -60C608 -73 618 -97 623 -118ZM512 -209L498 -211C485 -127 471 -102 448 -88L460 -17C462 -6 468 -4 475 -16C504 -66 512 -103 512 -209ZM429 -60L302 -163L291 -155L407 1C415 13 420 12 423 1C428 -15 430 -31 429 -60ZM741 -673L723 -514L551 -490V-553L702 -573C718 -575 717 -580 706 -588L675 -612C656 -601 635 -596 551 -586V-651ZM401 -685L385 -409L207 -392L205 -463L361 -480C370 -482 370 -484 364 -490L335 -518C320 -508 310 -506 204 -493L202 -562L363 -580C372 -581 372 -587 366 -592L335 -619C321 -609 291 -603 201 -593L198 -664Z"/>
</svg>