<svg xmlns="http://www.w3.org/2000/svg" viewBox="0 -1000 1000 1000">
	<path fill="#000000" d="M921 -303L881 -345L849 -310L594 -283V-356L877 -383C893 -384 893 -390 881 -398L843 -425C817 -413 753 -401 594 -386V-455L823 -479C836 -480 838 -484 827 -494L800 -519L820 -661C821 -670 831 -688 847 -697C854 -701 855 -706 848 -713L805 -752L776 -715L645 -700C676 -770 691 -786 702 -792C710 -796 710 -801 703 -809L658 -863L642 -857C651 -835 645 -781 613 -697L591 -694L563 -757L549 -751C557 -704 558 -688 558 -603V-370C558 -306 555 -287 541 -266L572 -207C576 -199 584 -199 587 -208C590 -217 593 -233 594 -249L858 -277C841 -124 805 6 780 39L683 -36L670 -24C713 26 747 71 771 110C775 117 779 118 785 111C845 36 863 -12 894 -238C898 -269 901 -275 919 -287C927 -292 926 -298 921 -303ZM533 -728L492 -771L463 -743L175 -712C175 -729 174 -748 172 -767H155C150 -679 136 -654 105 -630L108 -565C108 -551 113 -548 125 -562C149 -587 166 -627 173 -681L285 -692C292 -673 295 -645 296 -585L139 -567L181 -534C196 -539 252 -548 296 -553V-478L193 -466L173 -518L159 -513C163 -492 166 -469 169 -415L174 -298C175 -274 170 -255 159 -241L192 -192C199 -181 206 -181 207 -195C208 -206 209 -217 208 -237L296 -247V-167L82 -138L132 -102C150 -111 236 -128 296 -135C296 -39 287 3 272 31L309 98C314 108 321 108 326 96C330 83 331 62 331 -33V-138L508 -157C523 -158 524 -165 509 -175L472 -201C448 -190 427 -185 331 -172V-251L471 -267C491 -270 492 -273 473 -286L453 -300L467 -426C470 -448 476 -461 489 -469C497 -475 498 -481 490 -488L454 -522L427 -492L331 -481V-557L494 -575C507 -576 509 -583 496 -592L459 -616C443 -606 425 -602 332 -589C333 -607 336 -624 340 -636C343 -648 343 -655 337 -663L313 -694L463 -711L430 -634L447 -627C489 -692 507 -704 530 -713C540 -717 540 -721 533 -728ZM815 -144L749 -226L737 -219L777 -93C779 -86 787 -86 792 -94C800 -106 810 -127 815 -144ZM730 -128L666 -214L653 -207L691 -82C694 -71 699 -71 707 -80C717 -92 727 -113 730 -128ZM653 -109L605 -200L591 -195L605 -64C606 -57 611 -55 619 -62C634 -76 645 -92 653 -109ZM555 -206H538C528 -136 513 -115 482 -91L492 -30C495 -18 500 -16 510 -29C544 -74 557 -125 555 -206ZM782 -682L763 -506L594 -485V-559L756 -576C769 -577 770 -581 760 -590L736 -616C715 -607 671 -599 594 -590V-665ZM430 -461L424 -379L401 -400C388 -395 374 -392 331 -387V-450ZM296 -383L203 -372L200 -437L296 -447ZM424 -367L418 -294L331 -283V-358ZM296 -279L207 -267L203 -355L216 -340C231 -345 253 -348 296 -355Z"/>
</svg>