<svg xmlns="http://www.w3.org/2000/svg" viewBox="0 -1000 1000 1000">
	<path fill="#000000" d="M797 -783C804 -787 805 -790 797 -797L749 -833L719 -795L260 -744L232 -832L216 -828C225 -738 215 -571 199 -412C182 -242 129 -80 35 45L51 61C171 -89 218 -231 239 -412C247 -476 251 -516 254 -570L409 -585C397 -534 333 -449 249 -388L259 -374C306 -400 367 -450 405 -493C418 -509 439 -522 443 -523C453 -525 454 -530 449 -542L432 -587L777 -622C788 -623 789 -628 780 -635L755 -659L765 -736C767 -753 781 -773 797 -783ZM901 -369L856 -397C849 -386 819 -376 762 -368L767 -453C769 -486 776 -513 785 -521C794 -529 794 -534 784 -544L732 -603L718 -596C726 -572 733 -517 730 -454L725 -364L647 -352L646 -429C646 -461 651 -485 657 -493C663 -502 663 -506 654 -516L601 -571L591 -564C602 -536 607 -505 609 -445L611 -349L540 -339C540 -415 542 -441 551 -454C557 -462 556 -466 546 -475L486 -529L476 -521C495 -479 504 -412 505 -335L390 -320L436 -285C454 -292 468 -296 505 -302L506 -98C506 -43 502 -23 482 -1L515 30C524 38 530 37 534 25C541 7 553 1 588 -2L868 -24C885 -25 886 -30 874 -39L828 -71C802 -57 772 -50 546 -30L541 -306L612 -316L613 -276C614 -226 609 -203 595 -181L625 -113C631 -100 637 -100 642 -116C645 -127 648 -142 648 -160L776 -173C794 -174 796 -179 783 -190L753 -215L760 -334L898 -353C913 -355 914 -360 901 -369ZM450 -401L427 -460L411 -456C405 -396 328 -280 207 -185L218 -170C263 -203 307 -238 343 -274V-121C343 -66 334 -26 319 -1L358 66C364 76 369 76 372 63C374 56 377 19 377 -80L376 -312C431 -372 439 -380 447 -385C452 -388 454 -392 450 -401ZM727 -762L715 -653L257 -606C259 -636 261 -668 263 -710ZM724 -330L718 -205L649 -195L647 -319Z"/>
</svg>