<svg xmlns="http://www.w3.org/2000/svg" viewBox="0 -1000 1000 1000">
	<path fill="#000000" d="M479 -765L447 -805L434 -803C433 -782 341 -741 107 -682L110 -663C198 -678 313 -704 412 -734C437 -742 455 -747 472 -750C484 -751 486 -756 479 -765ZM342 -596L260 -688L249 -680L308 -550C313 -540 318 -540 322 -547C333 -565 340 -581 342 -596ZM241 -574L153 -666L143 -658L208 -521C212 -513 218 -513 221 -520C230 -540 235 -553 241 -574ZM883 -320C890 -325 890 -334 883 -339L839 -374L814 -333L558 -304V-373L839 -405C854 -406 854 -412 843 -420L804 -447C778 -430 725 -421 558 -404V-469L788 -493C800 -494 802 -498 792 -507L766 -533L787 -650C790 -670 798 -690 809 -699C816 -704 817 -710 809 -717L768 -748L746 -710L624 -696C660 -776 669 -789 681 -796C687 -800 687 -806 683 -813L645 -871L629 -867C631 -821 619 -772 594 -693L557 -688L525 -762L511 -756C519 -708 520 -691 520 -605V-389C520 -323 517 -305 503 -283L537 -222C541 -215 550 -215 552 -223C556 -238 558 -256 558 -271L818 -299C794 -106 762 -11 733 29L626 -47L615 -34C672 27 686 44 726 100C730 106 737 109 743 102C785 48 813 -20 853 -257C861 -298 865 -305 883 -320ZM494 -396L454 -424C428 -408 391 -397 276 -384C289 -417 292 -423 298 -427C305 -432 306 -439 300 -446L282 -468L473 -492C488 -493 489 -499 478 -507L441 -533C430 -525 406 -519 372 -513C422 -600 443 -633 454 -644C461 -650 463 -657 459 -663L422 -718L410 -713C415 -670 397 -625 341 -508L96 -475L139 -445C160 -450 198 -458 253 -465C249 -441 242 -413 230 -379L71 -362L120 -325C139 -332 179 -341 220 -347C184 -248 128 -155 49 -55L62 -44C124 -105 177 -174 222 -261L249 -243C278 -253 298 -257 378 -268C356 -222 344 -201 317 -164L227 -222L217 -207C250 -183 270 -166 299 -140C250 -80 162 -14 82 26L89 43C176 9 267 -52 324 -118C358 -84 381 -58 395 -34C402 -23 408 -22 412 -35C418 -52 417 -78 412 -101L346 -145C366 -168 380 -188 404 -231C418 -256 428 -267 446 -279C454 -285 455 -290 447 -297L410 -332L387 -303L230 -277C242 -300 253 -324 264 -353L492 -381C504 -382 505 -388 494 -396ZM779 -176L700 -261L687 -252L748 -124C752 -115 757 -114 763 -125C770 -139 776 -155 779 -176ZM700 -144L621 -235L608 -228L667 -96C672 -86 677 -86 684 -95C691 -107 698 -128 700 -144ZM620 -110L558 -217L544 -212L578 -66C581 -55 585 -54 593 -64C603 -76 614 -93 620 -110ZM509 -212L493 -210C487 -115 476 -83 434 -60L449 -10C453 1 458 2 467 -9C507 -60 516 -103 509 -212ZM749 -677L730 -522L558 -500V-563L707 -578C719 -579 720 -583 712 -593L687 -621C664 -609 640 -604 558 -593V-655Z"/>
</svg>