<svg xmlns="http://www.w3.org/2000/svg" viewBox="0 -1000 1000 1000">
	<path fill="#000000" d="M543 -727L503 -755C479 -744 449 -737 360 -729C360 -784 364 -798 372 -807C378 -812 376 -817 370 -821L317 -866L307 -856C319 -820 325 -781 325 -726L123 -707L176 -671C218 -683 252 -688 325 -695V-652L195 -637L242 -605C281 -618 324 -625 487 -640C496 -641 498 -644 489 -652L455 -678C432 -669 412 -664 360 -656V-698L541 -715C550 -716 552 -721 543 -727ZM924 -472L889 -500C871 -489 853 -484 826 -483C791 -482 782 -494 784 -545L786 -694C786 -711 792 -732 808 -745C815 -751 814 -756 809 -760L767 -795L744 -759L653 -746L621 -821L608 -816C617 -731 618 -698 613 -650C601 -530 574 -472 490 -383L502 -372C597 -454 631 -517 647 -624C651 -650 654 -686 655 -716L749 -728L746 -546C745 -463 755 -446 822 -443C854 -442 892 -446 920 -455C931 -459 931 -467 924 -472ZM586 -595L545 -643L521 -614L176 -570C177 -582 177 -594 176 -607L157 -608C154 -552 140 -521 108 -489L127 -436C129 -429 134 -428 140 -438C159 -469 170 -499 175 -539L520 -581L471 -500L487 -489C538 -551 548 -560 583 -582C590 -586 589 -591 586 -595ZM564 -192C573 -198 573 -204 564 -212L522 -247L501 -220L245 -184V-214L472 -243C488 -245 490 -251 477 -260L445 -281C423 -267 377 -257 244 -242V-274L472 -306C486 -308 487 -314 478 -322L458 -339L471 -408C474 -423 479 -429 491 -436C499 -441 500 -446 492 -453L454 -484L434 -459L333 -442C337 -450 346 -462 354 -466C361 -469 361 -475 354 -481L335 -498L457 -514C468 -515 468 -520 459 -526L429 -548C398 -534 336 -522 195 -511L236 -479C253 -484 281 -490 304 -494C306 -476 305 -459 298 -437L235 -427L207 -474L195 -467C204 -446 210 -407 210 -362V-258C210 -224 206 -208 196 -196L225 -143C230 -134 238 -135 241 -153L504 -190C489 -79 469 -15 449 17L374 -38L364 -27C395 9 416 38 442 79C446 85 452 87 459 79C493 36 512 -18 534 -134C540 -166 550 -184 564 -192ZM940 33C837 20 817 9 719 -142C738 -176 762 -236 802 -351C806 -363 814 -374 827 -382C833 -386 834 -392 827 -398L782 -439L758 -408L527 -385L568 -353C595 -361 641 -367 762 -379C745 -307 722 -236 695 -180L644 -259C623 -290 616 -303 610 -326L556 -328L554 -319C585 -294 625 -237 678 -145C621 -39 555 31 462 100L471 115C578 50 642 -18 699 -110L792 53L939 51ZM456 -119L398 -164L387 -157L431 -69C435 -61 440 -60 445 -68C451 -78 456 -102 456 -119ZM370 -96L311 -153L299 -146L341 -49C345 -39 350 -38 356 -47C360 -53 368 -79 370 -96ZM285 -61L240 -136L227 -133L243 -24C245 -12 248 -10 256 -18C268 -29 279 -44 285 -61ZM182 -154H164C159 -84 146 -53 115 -27L131 25C135 36 140 36 147 28C172 -2 186 -72 182 -154ZM439 -429L426 -329L244 -301L243 -335L398 -358C414 -359 414 -366 402 -374L374 -392C353 -380 319 -372 243 -362L242 -399Z"/>
</svg>