<svg xmlns="http://www.w3.org/2000/svg" viewBox="0 -1000 1000 1000">
	<path fill="#000000" d="M336 -761L254 -835L243 -825L302 -701C305 -694 311 -694 315 -702C326 -723 334 -747 336 -761ZM901 -334L858 -373L829 -331L569 -298V-368L860 -406C871 -407 872 -412 861 -419L818 -446C797 -433 702 -413 569 -395V-464L824 -496C834 -497 834 -504 824 -511L791 -535L800 -637C802 -656 810 -674 821 -682C828 -687 829 -693 821 -700L776 -736L754 -697L635 -680C668 -767 673 -776 686 -786C693 -791 694 -800 688 -806L636 -859L622 -852C634 -821 631 -782 605 -677L569 -672L533 -752L517 -745C528 -694 532 -654 532 -625V-378C532 -330 531 -320 514 -291L547 -226C550 -220 557 -220 561 -226C565 -231 568 -240 569 -267L837 -303C821 -120 790 1 770 19L680 -39L668 -25C708 15 738 52 757 86C763 97 767 97 776 87C805 57 844 -27 871 -251C877 -301 879 -307 900 -318C909 -323 908 -328 901 -334ZM500 -394L461 -420C436 -408 382 -395 309 -383V-446L466 -464C477 -465 477 -471 470 -477L434 -503C413 -494 371 -484 309 -476V-536L418 -549C430 -550 431 -556 421 -563L386 -589C363 -578 343 -573 309 -568C309 -589 312 -602 321 -616C326 -625 325 -628 318 -633L288 -659L431 -678L404 -619L421 -612C448 -654 475 -682 496 -694C505 -699 506 -703 499 -709L457 -749L430 -708L157 -672C157 -684 156 -700 155 -718L134 -719C132 -646 119 -615 91 -595L115 -540C118 -533 124 -532 129 -540C148 -571 155 -605 156 -642L266 -656C272 -633 274 -611 274 -563L136 -544L178 -511C208 -521 234 -526 274 -532V-472L123 -453L170 -421C190 -430 215 -435 274 -442V-379L85 -355L132 -318C169 -328 201 -335 273 -346C272 -325 269 -312 260 -295L285 -250L199 -239L164 -307L149 -298C157 -273 163 -237 165 -195L171 -88C173 -52 163 -25 151 -13L192 53C196 59 201 59 204 50C207 39 210 5 208 -41L427 -66C436 -67 436 -74 429 -80L399 -106L410 -185C415 -224 420 -236 438 -248C446 -253 447 -259 438 -266L397 -300L367 -262L304 -252C308 -276 309 -309 309 -351L498 -380C511 -381 512 -385 500 -394ZM799 -180L719 -253L705 -244L767 -119C771 -111 774 -110 780 -119C787 -129 797 -165 799 -180ZM708 -156L632 -232L619 -222L678 -101C682 -92 688 -91 692 -100C699 -112 706 -138 708 -156ZM625 -115L561 -217L546 -209L583 -67C585 -59 587 -59 593 -63C601 -70 618 -94 625 -115ZM511 -219H494C486 -138 474 -106 448 -90L471 -23C473 -17 478 -16 484 -23C503 -49 522 -126 511 -219ZM761 -669L753 -518L569 -494V-555L734 -577C747 -579 747 -583 739 -588L690 -616C676 -604 654 -597 569 -584V-642ZM378 -232L359 -90L207 -72L201 -209Z"/>
</svg>