<svg xmlns="http://www.w3.org/2000/svg" viewBox="0 -1000 1000 1000">
	<path fill="#000000" d="M541 -620L510 -642C495 -634 484 -629 467 -626C473 -665 477 -676 492 -691C499 -698 499 -703 492 -709L452 -740L428 -705L338 -695C338 -728 344 -759 353 -773C360 -785 358 -791 350 -798L301 -847L289 -841C300 -812 302 -792 302 -691L209 -680L180 -735L165 -730C173 -708 179 -678 180 -654L182 -594L82 -583L125 -551C143 -557 164 -561 183 -564C185 -522 182 -502 173 -486L199 -444C206 -433 214 -435 215 -449C216 -458 216 -468 216 -484L302 -494V-433L190 -420L165 -464L155 -459C159 -439 162 -409 163 -393V-331C163 -322 159 -304 153 -292L182 -254C188 -246 194 -247 195 -258C197 -269 198 -282 197 -299L290 -310C285 -289 272 -264 251 -226L73 -211L117 -174C143 -182 181 -188 233 -194C219 -171 204 -148 186 -123C226 -107 259 -92 286 -76C232 -30 151 16 68 49L74 67C158 38 257 -12 317 -59C359 -35 389 -16 439 20C449 27 452 26 452 12C452 -4 449 -27 445 -43L345 -83C370 -107 402 -145 433 -208C440 -224 444 -228 450 -230C457 -233 458 -236 453 -246L419 -308L404 -302C406 -286 403 -260 398 -243C374 -237 331 -233 294 -230C313 -258 325 -273 334 -280C342 -287 343 -290 337 -297L323 -313L485 -331C498 -332 501 -337 488 -348L467 -365L473 -401C476 -420 481 -429 491 -435C498 -439 498 -445 492 -449L457 -479L434 -448L338 -437V-498L462 -514C477 -516 479 -521 467 -533L456 -544L464 -595L537 -603C550 -604 552 -612 541 -620ZM931 -316C936 -322 936 -324 931 -329L890 -370L860 -330L586 -298V-366L896 -401C911 -403 911 -409 900 -417L861 -447C836 -432 754 -418 586 -401V-465L831 -493C845 -494 846 -498 836 -507L819 -522L837 -634C840 -652 850 -671 862 -683C867 -687 867 -691 863 -697L823 -744L792 -698L665 -682C702 -764 715 -782 725 -789C730 -793 731 -797 725 -805L686 -858L670 -850C678 -830 666 -761 637 -679L585 -672L556 -739L542 -733C550 -687 551 -671 551 -587V-387C551 -324 548 -306 534 -285L565 -227C570 -218 578 -219 580 -229C583 -241 584 -254 585 -268L869 -298C843 -146 801 -20 771 21L672 -52L662 -39C714 20 744 60 766 96C770 102 775 102 779 96C824 36 858 -44 902 -263C906 -282 913 -297 931 -316ZM815 -155L749 -246L737 -239L776 -113C779 -105 784 -105 791 -113C799 -123 808 -139 815 -155ZM726 -141L660 -227L650 -220L690 -104C694 -93 698 -92 706 -103C714 -114 721 -128 726 -141ZM645 -118L588 -214L578 -209L603 -79C604 -68 608 -66 618 -77C628 -89 637 -102 645 -118ZM547 -201L533 -204C517 -135 492 -109 459 -85L476 -30C479 -19 483 -18 491 -29C527 -80 544 -126 547 -201ZM438 -674L433 -622L338 -610V-663ZM302 -607L214 -597L213 -648L302 -659ZM801 -664L785 -521L586 -496V-553L773 -574C785 -575 785 -581 777 -589L753 -615C731 -601 684 -592 586 -582V-639ZM430 -591L424 -540L338 -529V-580ZM302 -525L216 -515L215 -567L302 -577ZM441 -417L434 -359L338 -346V-404ZM302 -343L197 -330L195 -387L302 -399ZM386 -210C372 -173 347 -134 310 -97L229 -131C241 -152 259 -181 270 -197Z"/>
</svg>