<svg xmlns="http://www.w3.org/2000/svg" viewBox="0 -1000 1000 1000">
	<path fill="#000000" d="M528 -418L488 -441C462 -428 442 -422 401 -415C458 -505 465 -513 480 -522C488 -528 489 -535 485 -542L458 -592L444 -589C441 -559 433 -534 418 -509L391 -529C375 -521 360 -517 336 -513C338 -541 342 -556 348 -567C352 -574 351 -581 345 -586L320 -605L459 -625C475 -628 476 -633 463 -642L435 -663L442 -698C448 -730 452 -741 465 -750C472 -755 473 -760 464 -768L426 -801L398 -761L189 -728L164 -811L143 -805C155 -727 146 -442 135 -333C123 -214 84 -107 41 -38L55 -30C120 -114 160 -217 175 -368L203 -348C239 -360 271 -366 327 -372C273 -301 208 -235 141 -183L149 -169C182 -188 212 -211 243 -237L245 -81C246 -41 244 -33 231 -14L262 43C269 54 275 52 278 41C281 29 282 1 280 -26L389 -39L416 10C423 22 429 22 432 7C436 -13 439 -39 440 -87L443 -231C444 -266 447 -274 462 -292C469 -300 469 -305 462 -311L421 -343L400 -303L289 -281C320 -313 350 -345 373 -379L523 -402C538 -404 540 -411 528 -418ZM911 -342L870 -383L843 -338L586 -297L585 -368L866 -413C877 -414 878 -420 867 -427L827 -452C806 -438 746 -424 585 -400V-464L817 -496C837 -498 835 -506 822 -515L795 -531L808 -640C812 -674 815 -682 830 -692C838 -698 839 -702 830 -710L793 -744L766 -703L640 -684C664 -746 677 -775 686 -783C692 -788 693 -794 689 -800L643 -858L629 -852C638 -811 632 -752 610 -679L579 -674L544 -733L533 -729C543 -670 546 -641 546 -612L549 -338C549 -313 546 -301 536 -284L567 -230C571 -223 577 -223 581 -230C584 -237 585 -247 585 -265L845 -302C826 -112 797 0 779 24L669 -39L658 -24C705 15 744 60 767 93C774 103 779 103 787 94C826 49 848 -33 879 -257C887 -306 890 -311 910 -326C918 -331 918 -336 911 -342ZM809 -175L736 -250L723 -238L781 -122C785 -115 790 -114 794 -122C801 -137 805 -152 809 -175ZM735 -145L659 -235L648 -224L698 -88C702 -79 706 -79 712 -87C721 -100 731 -126 735 -145ZM649 -105L595 -217L582 -211L603 -56C604 -48 609 -45 616 -53C634 -72 640 -84 649 -105ZM547 -212H528C518 -140 499 -106 471 -79L486 -10C488 -1 492 0 498 -7C534 -50 550 -118 547 -212ZM407 -729L397 -652L187 -617C188 -644 189 -672 190 -697ZM772 -670L758 -523L584 -494V-552L732 -575C747 -578 748 -582 735 -591L706 -612C684 -600 652 -592 583 -582V-642ZM301 -399L175 -380C179 -426 183 -503 186 -586L289 -601C297 -580 300 -554 301 -507L197 -494L239 -467C260 -473 281 -477 301 -480ZM410 -494C386 -453 374 -435 353 -408L336 -404V-484ZM408 -272L403 -107C402 -85 399 -69 395 -60L365 -77C352 -68 338 -64 281 -57L279 -150L390 -165C405 -166 406 -172 394 -180L362 -199C343 -190 323 -184 278 -177V-252Z"/>
</svg>