<svg xmlns="http://www.w3.org/2000/svg" viewBox="0 -1000 1000 1000">
	<path fill="#000000" d="M501 -23L427 -142L408 -135L456 35C460 48 465 48 472 38C485 20 493 3 501 -23ZM651 -18L552 -144L536 -134L612 41C617 51 624 53 629 43C643 18 648 2 651 -18ZM834 -18L691 -161L675 -149L805 61C813 72 819 72 823 62C829 41 834 6 834 -18ZM352 -143L334 -146C305 -55 279 -16 223 8L225 68C225 81 227 83 241 73C307 24 341 -50 352 -143ZM566 -680L562 -594L438 -583V-667ZM401 -580L256 -566C258 -609 259 -632 261 -650L401 -664ZM727 -578L717 -479L594 -469L599 -565ZM561 -562L557 -467L438 -455V-549ZM248 -441C251 -477 253 -520 256 -556L289 -531C327 -538 344 -540 402 -546V-453ZM248 -436L287 -405C297 -408 307 -411 317 -413C322 -395 325 -369 325 -343V-245C325 -212 318 -200 287 -188L316 -154C322 -147 326 -147 336 -154C349 -164 432 -207 548 -260L539 -274L363 -213V-307L529 -327C542 -329 543 -333 531 -343L507 -362C493 -357 448 -347 364 -336C365 -350 369 -366 374 -373C379 -381 378 -385 369 -394L350 -416L553 -433C559 -413 563 -380 563 -362V-278C563 -219 577 -191 631 -180C688 -168 808 -169 878 -180C892 -182 894 -186 891 -198C881 -243 873 -313 870 -372H851L840 -220C791 -205 694 -201 639 -215C610 -222 602 -234 600 -271L755 -351C774 -362 785 -367 791 -368C801 -371 803 -377 801 -382L770 -435L759 -432C751 -402 714 -362 600 -299V-352C600 -364 603 -382 606 -386C614 -394 614 -400 609 -407L584 -435L773 -451C790 -452 793 -460 777 -471L756 -487L764 -550C766 -567 775 -583 787 -591C794 -596 794 -604 789 -608L750 -643L722 -608L601 -597L606 -683L833 -705C851 -706 851 -710 836 -723L796 -754C777 -740 710 -728 545 -711C551 -724 556 -742 561 -772L461 -856L446 -842L524 -709L262 -684L237 -775L216 -772C223 -607 210 -395 182 -266C156 -149 119 -58 42 49L58 61C170 -70 226 -209 248 -436Z"/>
</svg>