<svg xmlns="http://www.w3.org/2000/svg" viewBox="0 -1000 1000 1000">
	<path fill="#000000" d="M869 -432C860 -460 855 -489 850 -535L836 -533L827 -452C805 -441 738 -429 659 -427C592 -424 578 -430 575 -458C614 -469 684 -491 710 -500C732 -509 759 -518 765 -518C779 -518 781 -525 773 -532L736 -562L724 -558C721 -544 701 -529 575 -481C575 -514 577 -523 583 -532C586 -537 586 -542 582 -546L573 -554L729 -570C739 -571 740 -577 734 -582L712 -600L721 -629C726 -646 729 -650 745 -661C753 -666 753 -669 746 -675L712 -707L689 -679L567 -666C571 -685 573 -693 576 -695C581 -698 582 -702 576 -708L564 -720L804 -746C814 -747 816 -750 806 -759L765 -790C747 -777 699 -766 528 -749C533 -762 537 -780 540 -796L448 -856L438 -846L511 -747L234 -719L206 -794L187 -789C193 -713 191 -651 182 -516C165 -275 137 -147 38 12L54 23C161 -132 200 -258 224 -534L250 -514C262 -517 276 -519 288 -521C291 -511 293 -497 293 -483V-425C293 -392 289 -384 257 -373L301 -346C309 -342 316 -342 320 -348C325 -355 369 -371 515 -411L514 -427L329 -389V-446L502 -466C512 -467 514 -470 507 -477L481 -503C463 -493 442 -489 329 -477C330 -488 331 -493 333 -495C336 -498 335 -502 331 -507L315 -525C359 -531 418 -537 537 -550C539 -538 541 -525 541 -517V-463C541 -412 561 -392 642 -394C726 -396 774 -402 862 -419C869 -420 871 -424 869 -432ZM873 64C854 -7 849 -43 844 -102H826L825 22C752 -6 704 -40 665 -105C725 -191 734 -201 751 -208C761 -212 761 -216 755 -227L728 -278L715 -274C713 -243 691 -194 647 -138C630 -173 620 -212 604 -290L821 -314C830 -315 831 -320 824 -326L786 -355C772 -345 748 -338 697 -332C699 -340 700 -349 699 -360L638 -390L627 -379L673 -330L599 -322C596 -340 595 -357 601 -369C604 -376 604 -380 597 -385L548 -413L541 -402C551 -376 558 -353 563 -319L307 -291L283 -346L269 -343C277 -307 267 -198 247 -124C231 -63 191 21 140 81L153 92C234 9 277 -72 298 -198L323 -181C345 -187 439 -196 556 -206C563 -206 566 -212 557 -219L525 -242C504 -231 444 -222 300 -213C303 -227 305 -243 307 -259L568 -287C583 -213 599 -160 621 -108C564 -40 514 -3 420 53L430 68C523 21 591 -28 639 -77C686 -3 774 59 862 78C873 80 876 76 873 64ZM542 -144L510 -172L493 -150L362 -135L348 -164L332 -159C337 -137 338 -127 338 -95V-49C338 -31 333 -21 323 -9L352 38C357 47 367 47 368 34C369 21 369 -1 369 -18L527 -32C539 -33 541 -37 532 -45L516 -59L523 -91C527 -109 534 -122 541 -126C547 -130 548 -138 542 -144ZM532 -717C533 -705 533 -687 531 -663L419 -649C420 -661 423 -672 426 -676C429 -681 428 -687 423 -691L408 -704ZM384 -565L224 -547C229 -604 231 -648 232 -685L381 -701C383 -689 384 -675 384 -646L253 -633L292 -601C309 -606 331 -610 384 -615ZM689 -647L672 -594L559 -582L564 -634ZM530 -631L523 -579L418 -568V-619ZM494 -121L483 -58L369 -45L368 -107Z"/>
</svg>