<svg xmlns="http://www.w3.org/2000/svg" viewBox="0 -1000 1000 1000">
	<path fill="#000000" d="M504 -734L468 -756C441 -744 417 -739 340 -731C341 -758 342 -765 349 -776C354 -783 354 -787 344 -796L298 -837L291 -829C302 -808 306 -781 307 -728L118 -708L162 -674C185 -684 217 -690 307 -698V-648L149 -632L189 -603C229 -614 308 -625 471 -637C481 -637 483 -643 474 -649L444 -674C420 -663 390 -656 340 -651V-701L501 -718C516 -720 515 -727 504 -734ZM848 -380C840 -397 831 -413 814 -436L671 -489C742 -572 750 -581 773 -589C783 -592 783 -598 774 -606L741 -640L713 -613L655 -605V-677L838 -694C853 -695 854 -701 841 -710L805 -736C776 -722 737 -714 655 -705C655 -743 658 -769 664 -780C667 -788 667 -793 659 -800L611 -842L600 -834C612 -809 616 -778 616 -702L461 -688L506 -651C537 -663 558 -667 616 -673V-601L473 -585L514 -554C551 -566 568 -570 705 -584C684 -552 662 -526 638 -501L520 -544L514 -534L615 -482C570 -443 514 -416 434 -379L450 -366C534 -395 596 -427 645 -466L836 -370C845 -365 851 -373 848 -380ZM495 -419L492 -437L383 -422C401 -450 409 -460 416 -465C425 -471 426 -475 417 -483L401 -497L444 -503C458 -504 459 -509 448 -519L435 -532L438 -545C442 -563 446 -573 454 -576C462 -580 464 -587 454 -596L423 -622L399 -597L228 -576L203 -603L194 -596C201 -582 202 -574 203 -551L204 -533C205 -514 202 -500 197 -494L222 -456C227 -450 231 -450 234 -454L254 -402L90 -378L146 -340C182 -356 232 -370 495 -419ZM507 -298L452 -332L442 -322L480 -267C484 -261 488 -260 494 -267C500 -276 503 -283 507 -298ZM926 -169L923 -188C840 -173 744 -179 648 -208L534 -241C582 -269 607 -285 654 -319C683 -340 697 -347 714 -353C722 -356 722 -362 717 -369L687 -410L648 -383L212 -339L261 -307C286 -315 354 -326 634 -355C592 -316 558 -292 488 -255C357 -293 323 -305 312 -314L274 -296L275 -286C308 -281 381 -263 454 -238C339 -182 189 -130 58 -105L63 -87C117 -93 207 -114 288 -138C290 -128 291 -116 292 -98V-71C292 -41 290 -33 282 -23L312 15C318 22 326 21 327 10C328 0 329 -10 329 -20L464 -33V20L159 56L216 91C244 80 477 43 686 21L755 82C764 90 767 89 768 78C769 60 768 40 765 20L631 -46L620 -32L658 -2L500 17V-36L692 -55C703 -56 704 -61 696 -69L678 -87L682 -108C685 -125 689 -135 694 -137C704 -142 707 -145 710 -151L771 -129ZM407 -573L402 -527L237 -504L236 -550ZM377 -495C377 -480 371 -461 353 -418L272 -405C279 -415 284 -427 286 -443L242 -479ZM658 -169L651 -163L508 -148C514 -161 513 -166 506 -173L470 -211C481 -215 490 -219 498 -224ZM462 -144L318 -130L307 -145C359 -162 403 -179 450 -201C456 -184 460 -167 462 -144ZM651 -134L645 -81L500 -66L501 -119ZM464 -63L328 -48L325 -102L464 -116Z"/>
</svg>