<svg xmlns="http://www.w3.org/2000/svg" viewBox="0 -1000 1000 1000">
	<path fill="#000000" d="M495 -735L456 -777L425 -747L307 -731L340 -699C355 -705 372 -708 429 -714L425 -638L325 -624L359 -591C370 -595 386 -598 423 -603L417 -517L196 -487L191 -576L287 -590C295 -592 295 -596 289 -601L253 -631C242 -622 231 -618 190 -608L186 -684C209 -701 231 -717 259 -736C267 -742 275 -747 284 -750C292 -753 293 -757 291 -765L269 -826L256 -827C243 -781 224 -750 176 -706L145 -763L131 -758C138 -737 146 -699 149 -662L157 -545C159 -512 154 -476 145 -461L181 -408C186 -401 190 -400 193 -409C197 -423 198 -431 198 -452L482 -487C490 -488 490 -493 484 -498L454 -528L469 -676C472 -706 479 -717 492 -723C498 -726 499 -730 495 -735ZM953 -393V-410C859 -429 841 -444 807 -533L756 -669C730 -736 724 -780 727 -801L666 -827L660 -815C675 -799 685 -778 716 -685L793 -452L760 -477L738 -447L539 -420C559 -462 580 -510 624 -620C637 -652 644 -663 652 -670C659 -676 660 -680 655 -688L612 -749L598 -743C609 -685 558 -521 468 -341L487 -331C506 -362 516 -378 530 -401L553 -381C570 -387 580 -389 604 -393C600 -236 568 -109 500 2C502 -25 508 -62 521 -141L508 -148L477 -56C452 -99 430 -222 433 -339C434 -371 435 -382 440 -388C444 -392 444 -394 440 -398L394 -452L380 -444C388 -433 397 -359 399 -282C405 -84 454 6 487 21C476 36 465 52 453 67L467 79C562 -22 608 -110 641 -298C648 -340 651 -349 656 -354C663 -362 663 -367 657 -374L637 -399L745 -415C743 -268 719 -58 694 -20L622 -70L613 -58C648 -20 668 7 701 58C706 67 709 67 716 58C740 24 761 -50 787 -365C791 -409 793 -417 802 -426L816 -385ZM259 -300L192 -347L185 -335L236 -257C241 -249 247 -250 250 -257C256 -270 259 -280 259 -300ZM379 -297L325 -328L316 -318L353 -257C360 -246 364 -247 369 -257C376 -273 378 -282 379 -297ZM407 -94L399 -107L310 -58V-323C310 -341 313 -354 320 -365C323 -370 323 -374 318 -378L273 -417L261 -411C272 -393 274 -374 274 -324V-84C274 -43 270 -35 246 -14L284 9C290 13 295 13 299 7C313 -14 363 -63 407 -94ZM264 -88L254 -100L178 -54V-306C178 -335 180 -351 184 -359C187 -364 187 -369 183 -372L134 -418L123 -410C130 -399 140 -347 140 -298V-117C140 -39 137 -33 97 -4L141 22C145 24 148 23 151 19C163 1 227 -61 264 -88ZM380 -193L324 -233L315 -224L358 -147C363 -137 369 -138 372 -147C378 -165 380 -175 380 -193ZM255 -190L194 -230L184 -218L234 -143C240 -136 244 -136 248 -144C254 -156 256 -173 255 -190Z"/>
</svg>