<svg xmlns="http://www.w3.org/2000/svg" viewBox="0 -1000 1000 1000">
	<path fill="#000000" d="M791 -703L694 -769L680 -758L770 -636C778 -627 783 -628 787 -638C793 -656 794 -679 791 -703ZM931 17C806 -7 791 -15 694 -185C718 -239 748 -315 763 -365C775 -404 787 -420 795 -422C802 -423 804 -429 797 -435L752 -480L726 -444L587 -423C595 -457 602 -492 610 -533L873 -565C883 -566 883 -572 877 -577L826 -614C796 -596 759 -586 615 -568C644 -753 647 -764 663 -774C669 -778 669 -783 663 -790L603 -863L589 -857C605 -810 602 -733 574 -563L433 -546L479 -510C497 -516 532 -524 569 -529C540 -363 501 -249 433 -128C413 -187 402 -267 404 -357C404 -377 408 -391 414 -403C419 -415 419 -419 414 -425L374 -470L442 -478C450 -479 450 -482 444 -489L416 -519L433 -689C436 -719 441 -728 451 -734C459 -739 459 -744 452 -750L412 -785L388 -750L281 -734L323 -704C338 -710 354 -714 398 -722L392 -631L292 -617L324 -585C333 -589 361 -594 390 -598L384 -504L170 -476L168 -573L263 -589C270 -590 271 -595 265 -600L241 -624C229 -618 202 -610 167 -603L165 -693C189 -707 216 -725 232 -734C256 -749 270 -754 280 -754C292 -754 293 -760 288 -768L249 -822L236 -816C241 -791 224 -763 159 -717L131 -777L115 -770C122 -749 130 -701 131 -676L137 -546C138 -516 132 -483 124 -468L157 -413C162 -406 166 -406 169 -414C172 -420 170 -428 173 -446L354 -468C359 -446 364 -412 367 -370C384 -127 413 -42 483 22C453 46 420 67 391 80L399 98C515 46 614 -39 674 -148L769 37L930 34ZM244 -324L196 -378L186 -372L220 -275C223 -268 228 -268 232 -277C239 -291 243 -312 244 -324ZM361 -321L314 -374L303 -367L339 -276C342 -269 347 -268 351 -277C357 -290 361 -309 361 -321ZM380 -90L367 -106L290 -41V-331C290 -360 294 -379 301 -389C304 -394 304 -398 299 -402L252 -441L243 -434C254 -413 260 -381 260 -332V-61C260 -32 251 -17 228 4L264 27C269 30 275 30 278 24C288 3 314 -32 380 -90ZM368 -193L315 -251L304 -244L346 -148C349 -141 355 -142 358 -150C364 -163 368 -181 368 -193ZM240 -192L191 -252L180 -245L211 -147C213 -140 219 -138 226 -148C232 -157 239 -179 240 -192ZM250 -91L240 -106L165 -35V-306C165 -322 174 -352 180 -362C183 -368 183 -372 179 -375L136 -414L125 -407C132 -387 133 -362 133 -306V-89C133 -33 129 -19 98 9L141 37C145 40 148 39 151 34C191 -28 208 -49 250 -91ZM725 -410C714 -359 693 -279 671 -224C632 -295 623 -315 618 -344L569 -360C572 -370 575 -380 578 -390ZM655 -186C624 -122 570 -54 510 1C512 -32 521 -77 535 -125L519 -132L483 -38C467 -50 453 -71 441 -103C496 -180 540 -264 564 -340C581 -324 592 -305 625 -245Z"/>
</svg>