<svg xmlns="http://www.w3.org/2000/svg" viewBox="0 -1000 1000 1000">
	<path fill="#000000" d="M378 -695L270 -791L256 -777L342 -641C351 -628 357 -627 363 -639C370 -654 375 -673 378 -695ZM952 -349L950 -372C806 -361 791 -365 634 -524L842 -550C853 -551 853 -560 841 -569L799 -596C766 -580 715 -568 400 -530C417 -553 433 -578 447 -604L771 -644C781 -645 782 -652 772 -658L726 -687C709 -676 674 -665 600 -655C672 -730 686 -743 702 -752C715 -760 716 -767 710 -779L682 -835L666 -831C663 -789 653 -769 562 -650L465 -638C483 -674 500 -712 511 -740C519 -764 528 -777 538 -783C547 -789 549 -792 540 -805L504 -862L488 -859C490 -806 461 -724 415 -633L175 -603L225 -569C243 -575 269 -582 398 -598C383 -573 366 -548 349 -523L98 -493L143 -459C170 -465 225 -474 320 -486C252 -407 159 -330 42 -259L54 -242C192 -316 293 -395 372 -492L595 -520L779 -322ZM772 -323L731 -346C716 -337 668 -328 575 -319L515 -312V-372L651 -395C668 -398 667 -403 655 -411L619 -436C612 -426 590 -417 515 -402C516 -421 519 -428 528 -434C535 -440 535 -446 529 -452L477 -499L465 -492C472 -473 479 -432 479 -398V-309L373 -298V-330C373 -361 376 -370 384 -381C387 -386 387 -391 381 -397L331 -435L319 -428C328 -409 338 -366 338 -339V-295L149 -277L201 -243C225 -251 282 -260 380 -271C367 -236 342 -194 287 -130L300 -119C308 -126 315 -132 323 -138L349 -117C356 -121 377 -124 394 -127C378 -92 348 -55 291 -1L303 11C347 -24 367 -41 397 -72L463 -29C471 -23 477 -26 478 -35C479 -47 478 -53 475 -63L411 -86C416 -91 420 -95 426 -99C436 -105 436 -110 432 -114L417 -130L559 -147C551 -113 529 -80 469 -18L481 -5C526 -40 551 -64 567 -85L645 -34C651 -30 655 -32 655 -38C655 -48 654 -58 653 -69L583 -103C604 -114 604 -120 599 -128L582 -151L623 -156C637 -157 638 -163 626 -171L599 -188C586 -182 557 -176 518 -170C547 -194 565 -218 580 -233L654 -172C662 -166 667 -167 668 -176C669 -186 665 -211 661 -220L597 -247C607 -256 609 -260 605 -266L591 -290L769 -308C784 -309 784 -316 772 -323ZM758 -223L713 -276L701 -269C710 -239 711 -218 707 -155L701 -61C699 -28 696 -14 691 -5L651 -25C623 -15 613 -14 285 16L282 -119C281 -142 284 -156 289 -167C292 -174 292 -180 287 -184L238 -231L228 -222C240 -199 245 -160 246 -109L248 -27C249 17 246 21 226 36L262 67C267 71 273 70 279 63C286 53 300 46 320 44L684 11L709 65C715 77 720 76 724 63C729 47 733 23 737 -40L744 -151C746 -178 749 -193 757 -205C762 -214 762 -218 758 -223ZM566 -288C555 -257 532 -221 487 -165C444 -159 392 -151 330 -145C358 -173 376 -194 388 -211L443 -167C450 -161 454 -163 457 -172C459 -181 458 -196 456 -206L404 -227C416 -235 417 -241 414 -248L402 -273Z"/>
</svg>