<svg xmlns="http://www.w3.org/2000/svg" viewBox="0 -1000 1000 1000">
	<path fill="#000000" d="M862 -753L816 -802L785 -765L447 -724C448 -741 446 -760 444 -775L422 -776C419 -696 400 -658 363 -634L379 -578C382 -567 387 -564 398 -575C424 -602 440 -634 445 -688L784 -730L744 -627L763 -617C820 -710 831 -719 860 -733C870 -738 871 -743 862 -753ZM828 -543L650 -651L638 -639C721 -571 759 -531 805 -474C817 -459 823 -461 826 -473C830 -487 831 -509 828 -543ZM576 -626L538 -672L527 -667C527 -613 494 -547 374 -406L389 -394C432 -433 485 -488 525 -544C549 -578 563 -595 575 -604C585 -611 584 -616 576 -626ZM397 -277L386 -294L258 -242V-485L384 -516C393 -518 392 -524 384 -528L340 -552C329 -544 290 -529 258 -520V-619C258 -715 261 -751 271 -765C277 -773 277 -778 270 -786L213 -853L201 -843C214 -808 221 -750 221 -620V-512L50 -471L113 -439C130 -448 173 -462 221 -475V-227L28 -148L98 -116C119 -133 164 -160 397 -277ZM963 -66V-83C843 -105 818 -114 706 -270L641 -360L848 -384C862 -386 861 -393 851 -400L807 -434C791 -422 746 -411 624 -392C624 -442 631 -466 637 -482C641 -494 640 -498 634 -503L580 -547L566 -539C583 -499 585 -480 585 -387L344 -354L393 -317C427 -327 508 -343 563 -350C504 -238 385 -112 241 -11L250 4C363 -64 496 -176 585 -301V-126C585 -75 574 -14 563 9L598 76C606 90 613 89 617 76C622 60 624 33 624 -55V-328L810 -55Z"/>
</svg>