<svg xmlns="http://www.w3.org/2000/svg" viewBox="0 -1000 1000 1000">
	<path fill="#000000" d="M842 -590L802 -619C763 -603 602 -582 421 -567C432 -581 441 -594 449 -609L722 -634C734 -635 735 -639 725 -647L692 -675C653 -659 575 -648 467 -638C476 -652 483 -666 489 -681L761 -704C773 -705 774 -711 764 -718L724 -747C687 -733 613 -718 539 -710C585 -771 600 -789 611 -794C622 -799 622 -804 616 -812L576 -862L563 -857C563 -828 543 -770 508 -708L398 -699C402 -719 403 -730 405 -751L298 -828L287 -817L377 -697L131 -678L176 -645C204 -653 316 -666 436 -677C431 -663 423 -649 415 -634L173 -613L216 -578C238 -586 292 -594 396 -604C386 -590 376 -577 365 -563L81 -539L125 -506C140 -512 203 -521 340 -533C271 -457 176 -379 88 -334L98 -318C225 -383 324 -456 396 -538L839 -577C851 -578 851 -583 842 -590ZM880 -304L854 -326C826 -315 705 -299 506 -281V-321L717 -346C733 -348 734 -356 721 -362L676 -384C664 -373 616 -363 507 -349C509 -356 511 -361 516 -366C521 -373 519 -380 514 -384L490 -403L801 -433C813 -434 815 -441 803 -450L775 -471C757 -460 699 -450 548 -436V-484L706 -502C724 -504 725 -510 710 -520L685 -538C660 -529 582 -514 358 -492L391 -465C408 -468 465 -476 512 -481V-434L264 -412L304 -377C336 -385 381 -391 456 -399C466 -375 471 -347 471 -278L352 -268C353 -289 355 -298 363 -312C368 -321 367 -327 361 -332L314 -369L302 -361C314 -334 319 -308 319 -265L67 -243L123 -206C139 -215 241 -227 389 -241C381 -214 351 -177 308 -137L319 -127C358 -152 377 -167 401 -193L467 -147C475 -141 481 -144 482 -151C485 -165 485 -170 482 -185L414 -207C418 -209 420 -212 425 -213C434 -215 434 -220 424 -231L415 -243L563 -259C554 -224 527 -185 495 -158L505 -146C541 -172 555 -184 575 -207L630 -165C604 -156 551 -145 283 -120L336 -92C345 -96 360 -100 382 -103C371 -73 342 -40 286 5L298 18C341 -9 358 -21 389 -52C407 -37 442 -7 449 0L443 7L279 24L278 -59C277 -113 280 -139 285 -154C288 -163 289 -168 283 -173L236 -210L222 -197C235 -173 241 -132 242 -65L243 1C243 26 238 33 221 43L255 70C260 75 266 74 270 69C281 55 288 51 312 48L683 12L703 60C706 67 713 67 716 61C723 44 730 14 737 -54L744 -125C747 -154 751 -173 759 -187C764 -195 764 -199 758 -207L716 -260L701 -250C713 -211 714 -157 708 -118L700 -62C697 -43 695 -30 692 -20L480 3C513 -25 546 -56 566 -78L648 -23C656 -18 660 -19 661 -27C662 -39 662 -45 659 -62L579 -90C599 -95 599 -101 588 -114L579 -123L693 -136L659 -156C661 -167 659 -185 656 -198L589 -222C608 -228 609 -233 598 -245L586 -260L874 -288C887 -289 891 -295 880 -304ZM549 -121C537 -92 507 -52 471 -18C470 -23 468 -30 467 -40L403 -63C407 -65 412 -68 420 -70C427 -73 426 -79 419 -88L406 -105Z"/>
</svg>