<svg xmlns="http://www.w3.org/2000/svg" viewBox="0 -1000 1000 1000">
	<path fill="#000000" d="M888 -729L838 -759C788 -734 740 -723 463 -695L513 -661C561 -671 594 -677 639 -682C644 -644 641 -608 624 -527L552 -517L526 -578L512 -574C518 -552 522 -491 523 -421L526 -212C527 -160 521 -121 509 -104L541 -41C551 -23 559 -25 561 -44C563 -58 564 -72 564 -98L733 -118L759 -62C765 -49 772 -47 777 -69C787 -108 789 -123 797 -231L814 -463C817 -501 820 -514 842 -531C851 -539 850 -544 842 -550L798 -589L766 -545L655 -530C680 -605 685 -618 697 -627C704 -633 706 -638 696 -648L662 -685L886 -714C901 -715 901 -721 888 -729ZM921 20C907 -35 901 -77 893 -164H872L862 0C818 19 566 31 469 18C388 7 364 -38 364 -112V-232C364 -244 371 -279 374 -283C382 -292 381 -297 375 -302L342 -334L446 -348C462 -351 462 -355 448 -364L428 -376L435 -470C437 -494 440 -499 455 -514C465 -523 465 -525 456 -533L415 -570L387 -532L305 -520L313 -623L463 -643C480 -646 480 -651 465 -660L426 -686C409 -676 354 -661 315 -652C320 -718 328 -762 335 -770C344 -780 343 -785 333 -795L277 -852L262 -843C279 -805 282 -758 277 -647L59 -622L110 -587C135 -594 186 -603 276 -618L271 -516L193 -504L162 -557L148 -552C153 -532 158 -503 159 -474L161 -360C161 -338 155 -317 146 -302L177 -243C182 -234 190 -235 193 -246C195 -253 198 -286 199 -316L232 -321C236 -217 175 -42 54 70L64 83C165 0 219 -80 257 -201C272 -248 275 -258 278 -261C284 -269 285 -272 281 -279L250 -322L313 -331C319 -309 325 -275 325 -235V-117C325 -17 344 40 487 54C593 66 859 55 910 40C923 35 924 34 921 20ZM394 -500L388 -374L199 -348L197 -472ZM776 -514L758 -225C755 -183 750 -159 740 -141L709 -161C684 -147 659 -142 564 -130L562 -300L738 -327C750 -328 750 -334 741 -340L696 -367C668 -352 637 -344 561 -334L559 -484Z"/>
</svg>