<svg xmlns="http://www.w3.org/2000/svg" viewBox="0 -1000 1000 1000">
	<path fill="#000000" d="M874 -403L827 -431C810 -419 713 -391 654 -377V-500L815 -537C824 -539 824 -542 817 -547L776 -575C757 -563 727 -551 654 -533V-675C678 -683 706 -693 735 -703C782 -721 796 -726 812 -729C820 -730 823 -738 816 -744L770 -780L760 -776C738 -746 647 -698 493 -654L499 -636C542 -645 578 -652 615 -663V-525L483 -495L529 -467C552 -476 584 -485 615 -492V-371L447 -337L494 -304C521 -315 548 -322 615 -336V-241C615 -118 631 -96 682 -86C728 -77 784 -77 857 -89C870 -91 871 -95 868 -107C860 -129 847 -183 839 -238H819L812 -126C773 -116 750 -115 703 -121C660 -127 654 -142 654 -238V-343L872 -390C881 -391 881 -398 874 -403ZM949 0C937 -35 923 -98 916 -169L900 -167L892 -19C844 -4 586 9 489 -5C407 -16 383 -59 383 -132V-239C383 -251 390 -286 393 -290C399 -299 399 -304 393 -310L360 -342L444 -354C457 -356 458 -362 446 -369L427 -380L440 -474C443 -494 450 -509 461 -516C472 -523 471 -528 462 -536L426 -573L398 -536L321 -525L328 -630L478 -646C492 -647 494 -654 481 -664L442 -691C425 -681 369 -668 330 -661C336 -751 340 -769 351 -783C358 -792 358 -799 348 -809L291 -865L277 -855C291 -823 294 -768 290 -657L74 -636L123 -600C148 -606 230 -619 289 -626L283 -520L200 -507L174 -556L159 -551C164 -531 170 -502 171 -473V-367C171 -345 164 -324 155 -310L184 -250C189 -241 197 -242 200 -254C202 -260 205 -293 206 -322L247 -328C250 -216 181 -45 43 53L54 72C174 -15 236 -99 272 -215C288 -263 290 -270 295 -275C301 -283 302 -288 298 -293L269 -331L332 -339C340 -316 345 -278 345 -242V-137C345 -37 381 27 508 33C706 42 851 33 937 22C951 20 953 15 949 0ZM404 -503L390 -379L206 -354V-475Z"/>
</svg>