<svg xmlns="http://www.w3.org/2000/svg" viewBox="0 -1000 1000 1000">
	<path fill="#000000" d="M796 -795L752 -836L737 -831C720 -795 650 -757 397 -675L401 -655C493 -677 605 -710 709 -748C756 -766 774 -771 788 -774C806 -778 806 -785 796 -795ZM806 -682L763 -750L751 -742C755 -701 739 -643 686 -534L701 -526C777 -645 788 -656 803 -665C810 -669 811 -674 806 -682ZM660 -617L565 -689L555 -678L631 -550C637 -539 643 -540 646 -549C654 -574 657 -590 660 -617ZM524 -588L428 -650L418 -640L501 -525C508 -516 513 -516 516 -524C522 -547 523 -562 524 -588ZM934 -406L892 -434C876 -423 856 -417 816 -411L820 -450C823 -484 832 -507 843 -516C854 -525 854 -531 843 -537L803 -561L782 -529L403 -481L459 -447C476 -453 504 -460 608 -474V-383L360 -350L366 -483C367 -507 373 -522 386 -540C392 -548 391 -552 382 -559L328 -598L315 -594C328 -554 330 -520 329 -493L323 -287C322 -252 318 -233 313 -220L262 -208V-650C262 -713 268 -738 282 -757C287 -764 287 -770 280 -776L208 -836L199 -823C217 -776 225 -733 225 -667V-200L168 -187L158 -416C156 -461 157 -470 173 -492C176 -496 175 -500 169 -505L106 -556L95 -548C110 -515 119 -473 123 -414L130 -238C132 -193 128 -185 97 -169L143 -136C148 -133 152 -133 156 -138C163 -148 176 -155 199 -161L306 -187L322 -144C325 -137 329 -136 334 -143C344 -160 354 -188 356 -243L360 -338L392 -316C417 -324 449 -329 608 -349V-253L406 -226L457 -191C483 -202 513 -207 608 -220V-50C608 -24 605 -3 600 13L501 -66L489 -52C532 -5 575 48 608 98C617 111 621 110 628 99C643 73 647 52 647 -33V-224L826 -246C840 -247 843 -253 829 -265L805 -286L813 -374L929 -389C948 -391 949 -396 934 -406ZM785 -495L776 -405L647 -387V-478ZM774 -370L767 -276L647 -259V-354Z"/>
</svg>