<svg xmlns="http://www.w3.org/2000/svg" viewBox="0 -1000 1000 1000">
	<path fill="#000000" d="M957 32V15C860 8 820 -14 766 -99L649 -283C655 -306 660 -321 668 -330C672 -335 671 -339 667 -342L636 -376L767 -398L730 -298L746 -290C796 -375 816 -396 840 -413C848 -418 848 -423 842 -428L794 -467L768 -433L579 -396C591 -425 594 -433 604 -466C613 -498 634 -541 640 -546C646 -550 646 -555 641 -561L600 -610L668 -618L689 -572C693 -564 697 -563 701 -570C708 -584 711 -592 715 -613L735 -732C737 -743 741 -751 748 -760C753 -766 752 -770 747 -775L700 -824L688 -816C700 -787 698 -732 682 -652L510 -632V-714C510 -781 512 -791 519 -800C526 -810 526 -814 517 -821L460 -867L449 -855C466 -819 471 -795 471 -738V-628L297 -607L294 -699C293 -721 295 -731 303 -743C307 -749 306 -752 300 -756L246 -796L235 -784C251 -764 255 -745 256 -709L259 -632C259 -611 256 -602 234 -590L265 -553C270 -547 274 -547 279 -553C293 -567 306 -572 335 -576L581 -606C590 -567 577 -486 544 -398L510 -426C494 -416 479 -412 441 -405C444 -473 446 -485 455 -498C461 -506 460 -511 453 -518L399 -569L388 -559C401 -531 402 -496 398 -400L252 -381C252 -441 254 -461 258 -468C263 -477 262 -481 254 -488L202 -534L191 -524C205 -502 213 -443 213 -377L58 -358L106 -319C125 -327 150 -333 213 -341V-175C213 -107 210 -85 200 -67L234 -3C240 7 243 7 247 -2C250 -8 252 -18 252 -48L448 -74C459 -75 460 -80 451 -89L424 -118L439 -370L539 -384C521 -338 498 -289 470 -244L485 -235C513 -272 543 -318 564 -363L612 -372C616 -324 607 -261 592 -215C552 -94 482 11 363 86L373 101C521 13 593 -70 640 -248L799 41ZM397 -365L386 -105L252 -80V-206L376 -226C387 -227 388 -232 379 -241L353 -267C340 -258 317 -250 252 -237V-345Z"/>
</svg>