<svg xmlns="http://www.w3.org/2000/svg" viewBox="0 -1000 1000 1000">
	<path fill="#000000" d="M973 -414C869 -435 817 -466 758 -572C841 -637 865 -651 877 -656C888 -660 889 -666 884 -674L855 -724L844 -721C837 -690 816 -656 748 -592L702 -676C767 -730 800 -750 813 -755C822 -759 825 -763 820 -773L799 -822L787 -820C778 -786 767 -769 691 -694C654 -763 651 -783 657 -797L599 -816L596 -808C605 -797 612 -785 652 -711L819 -398H972ZM497 -597L408 -657L398 -650L471 -540C478 -530 483 -530 487 -540C492 -555 496 -576 497 -597ZM748 -482L713 -506C691 -495 633 -483 504 -472C539 -520 568 -570 590 -621C620 -693 626 -706 633 -716C638 -723 637 -729 631 -734L593 -765L578 -740L380 -712L433 -675C456 -684 494 -695 578 -707C536 -574 466 -447 378 -360L382 -453C383 -482 387 -503 395 -516C400 -524 399 -528 393 -533L341 -586L331 -579C341 -548 344 -514 343 -465L337 -217L265 -200V-656C265 -686 271 -715 279 -730C283 -738 282 -742 276 -747L215 -808L204 -800C220 -764 228 -700 228 -618V-193L155 -177L150 -437C150 -462 152 -491 155 -500C158 -513 157 -516 151 -521L101 -570L91 -562C103 -527 111 -464 112 -422L119 -209C120 -178 117 -173 80 -160L122 -128C128 -124 133 -124 141 -128C152 -135 167 -141 189 -147L337 -193C336 -177 332 -156 327 -142L347 -95C351 -85 357 -85 361 -94C365 -103 368 -128 370 -189L377 -333C420 -373 461 -416 495 -460L534 -435C574 -445 622 -453 745 -466C761 -468 762 -472 748 -482ZM781 -365C788 -373 787 -377 779 -383L739 -414L717 -380L531 -353L503 -398L486 -392C494 -371 496 -356 497 -336L501 -239C502 -215 501 -207 497 -198L521 -162C530 -149 536 -150 539 -164C540 -169 540 -174 540 -184L761 -204C769 -205 770 -209 763 -219L750 -235L764 -324C767 -340 770 -352 781 -365ZM911 -9L859 -44C835 -31 779 -21 685 -15C726 -85 744 -114 757 -126C764 -133 764 -140 759 -145L722 -185L708 -181C710 -147 699 -104 656 -14L572 -8C577 -21 582 -39 587 -60L507 -150L496 -142L554 -7L347 8L401 51C445 35 618 19 910 8C924 8 926 1 911 -9ZM727 -348L713 -233L540 -216L536 -324Z"/>
</svg>