<svg xmlns="http://www.w3.org/2000/svg" viewBox="0 -1000 1000 1000">
	<path fill="#000000" d="M431 -595C438 -600 437 -604 431 -609L386 -643L361 -605L268 -593V-612C268 -689 279 -753 292 -774C295 -779 295 -782 291 -785L227 -847L213 -840C226 -803 229 -772 229 -671V-588L148 -577L118 -652L101 -648C106 -601 107 -572 107 -531L106 -378C106 -350 101 -331 89 -313L126 -244C130 -237 136 -237 138 -244C145 -264 147 -286 147 -346V-535L229 -547V-140C229 -72 222 -37 205 -2L243 75C247 83 253 82 256 74C265 51 268 16 268 -80V-552L365 -567C359 -395 354 -350 345 -311L297 -345L284 -332C317 -289 330 -271 352 -229C357 -220 361 -220 367 -228C388 -262 397 -308 407 -529C409 -567 415 -584 431 -595ZM926 8C908 -51 894 -115 882 -210H863L861 -21C838 -9 819 -7 783 -8C701 -10 688 -33 692 -126C699 -320 703 -442 710 -641C712 -697 716 -707 739 -723C746 -728 746 -732 740 -738L692 -785L657 -738L520 -716L489 -798L466 -792C479 -737 481 -665 475 -447C467 -187 420 -53 295 73L307 88C448 -36 499 -168 513 -393C515 -421 516 -446 518 -472L600 -346C606 -338 611 -339 613 -348C618 -370 621 -391 621 -422L519 -502C521 -559 523 -615 524 -677L666 -701C657 -433 651 -214 649 -123C646 -6 672 32 782 34C846 35 892 31 920 23C927 21 928 17 926 8Z"/>
</svg>