<svg xmlns="http://www.w3.org/2000/svg" viewBox="0 -1000 1000 1000">
	<path fill="#000000" d="M573 -787L468 -871L452 -859L534 -718C540 -710 544 -710 548 -717C565 -745 570 -758 573 -787ZM908 -715L856 -760L819 -718L242 -676C245 -713 240 -746 232 -773L213 -772C205 -653 184 -608 152 -571L170 -504C173 -496 176 -496 181 -502C205 -528 229 -580 238 -636L809 -677L767 -576L780 -570C846 -654 876 -685 905 -700C915 -705 916 -708 908 -715ZM877 -400C880 -416 876 -441 860 -483L570 -616L561 -601C692 -530 771 -479 863 -398C872 -391 876 -392 877 -400ZM452 -567L429 -641L415 -639C391 -579 304 -487 112 -367L122 -352C205 -392 273 -431 348 -489C408 -536 427 -548 446 -552C453 -553 455 -556 452 -567ZM814 -359C820 -362 821 -367 814 -373L765 -418L736 -381L535 -367C535 -451 540 -479 553 -495C557 -501 557 -507 552 -512L494 -567L481 -560C491 -521 493 -492 493 -364L310 -351L283 -414L266 -409C274 -385 277 -367 277 -325V-166C277 -134 267 -105 257 -93L301 -27C306 -20 310 -20 313 -27C317 -39 318 -63 318 -140V-316L493 -327V-101C493 -49 482 -12 466 13L508 97C512 105 518 105 521 98C531 81 535 49 535 -87V-330L738 -343C725 -201 712 -126 696 -88L599 -161L589 -146C627 -106 657 -66 694 -8C699 1 704 1 708 -4C740 -38 751 -77 774 -257C785 -333 790 -347 814 -359Z"/>
</svg>