<svg xmlns="http://www.w3.org/2000/svg" viewBox="0 -1000 1000 1000">
	<path fill="#000000" d="M594 -769L489 -856L476 -844L555 -705C559 -698 563 -698 569 -706C580 -722 589 -743 594 -769ZM959 27V9C791 -3 769 -13 601 -267L780 -285C791 -286 792 -289 785 -298L757 -329L786 -485C793 -521 799 -532 819 -546C826 -551 825 -558 818 -564L770 -607L744 -572L602 -552L645 -517C662 -523 693 -529 749 -538L736 -447L605 -433L638 -398C658 -407 681 -411 733 -417L719 -318L567 -299C575 -348 581 -419 582 -457C584 -535 587 -569 595 -583C599 -590 599 -594 593 -602L551 -656L875 -690C884 -691 886 -696 877 -703L826 -745C780 -718 733 -707 266 -665L230 -767L211 -761C221 -673 222 -512 212 -363C202 -199 164 -101 60 33L73 42C187 -69 237 -190 251 -325C258 -395 265 -531 267 -628L530 -654C538 -618 541 -547 539 -450C538 -396 536 -347 525 -295L394 -280L389 -381L493 -395C505 -396 506 -400 499 -410L477 -439C463 -430 440 -422 387 -416L383 -490C445 -520 488 -538 511 -544C519 -546 521 -552 517 -561L489 -621L476 -618C470 -587 452 -567 378 -516L352 -575L336 -571C342 -529 344 -506 346 -446L350 -340C352 -287 350 -278 338 -256L382 -187C388 -178 392 -179 395 -188C397 -194 397 -208 395 -247L516 -260C475 -105 369 -3 203 75L212 92C391 24 519 -82 562 -264H570L762 45Z"/>
</svg>