<svg xmlns="http://www.w3.org/2000/svg" viewBox="0 -1000 1000 1000">
	<path fill="#000000" d="M945 -9L944 -27C860 -44 810 -105 773 -267L703 -571C691 -626 690 -667 696 -687C699 -698 697 -702 690 -706L652 -726C719 -751 768 -768 777 -770C788 -772 788 -777 780 -784L734 -826L722 -825C708 -788 617 -738 477 -689L446 -775L430 -771C434 -736 434 -629 430 -522C419 -245 369 -75 290 62L308 70C405 -68 463 -260 480 -661C494 -666 512 -673 534 -680C540 -651 542 -613 542 -547V-140C542 -93 532 -80 491 -54L521 -25C529 -18 533 -19 540 -27C550 -38 586 -59 669 -103L690 -30C694 -14 703 -14 709 -25C717 -40 724 -55 735 -86L648 -228L635 -219L661 -125L583 -95V-544C583 -603 586 -633 596 -641C603 -647 602 -651 592 -660L558 -690C578 -698 602 -706 622 -714C637 -690 644 -671 665 -584L807 -4ZM380 -762L332 -800L305 -756L71 -729L123 -684C144 -695 201 -706 316 -721L297 -563L184 -545L161 -609L145 -607C148 -583 147 -566 145 -537L137 -428C134 -387 120 -360 102 -343L135 -316C144 -309 148 -310 155 -321C161 -333 174 -340 189 -343L306 -366C286 -207 242 -73 216 -25L113 -104L103 -89C163 -19 193 18 214 49C223 61 227 61 234 51C263 9 299 -105 342 -323C349 -358 356 -379 367 -386C377 -393 377 -396 368 -403L329 -436L299 -402L169 -378L183 -509L363 -534C373 -535 373 -539 366 -546L337 -574L356 -706C358 -721 365 -734 379 -743C388 -749 388 -756 380 -762Z"/>
</svg>