<svg xmlns="http://www.w3.org/2000/svg" viewBox="0 -1000 1000 1000">
	<path fill="#000000" d="M948 -380L947 -397C865 -409 822 -437 775 -503L614 -733C625 -751 631 -758 640 -766C650 -774 650 -779 643 -790L593 -859L579 -851C604 -768 456 -513 278 -330L289 -318C397 -404 489 -519 595 -703L812 -370ZM634 -444L523 -533L513 -523L602 -384C609 -375 613 -375 617 -384C623 -397 629 -419 634 -444ZM397 -743L350 -828L336 -822C350 -754 251 -571 46 -355L58 -340C118 -394 179 -456 231 -516V-139C231 -57 224 -30 206 2L248 82C252 91 259 92 262 83C271 55 272 39 272 -48V-568C301 -603 326 -637 346 -669C370 -708 379 -719 391 -726C400 -731 401 -736 397 -743ZM792 -331L747 -375L717 -342L354 -293L394 -253C445 -267 527 -281 710 -305C669 -235 622 -150 580 -72L453 -159L443 -144C514 -78 614 16 682 81C696 95 702 92 703 80C705 55 705 41 704 15L601 -59C663 -152 708 -217 749 -272C764 -294 776 -307 790 -315C799 -320 799 -325 792 -331Z"/>
</svg>