<svg xmlns="http://www.w3.org/2000/svg" viewBox="0 -1000 1000 1000">
	<path fill="#000000" d="M862 -754C869 -760 870 -764 862 -770L818 -803L795 -767L700 -754L678 -826L663 -823C666 -794 668 -750 668 -727L670 -650C671 -619 665 -593 656 -579L687 -528C694 -516 699 -518 702 -530C705 -541 706 -560 705 -582L842 -597C856 -599 857 -604 846 -613L824 -630L836 -712C838 -724 844 -739 862 -754ZM377 -386L333 -423L307 -386L188 -369L208 -518L350 -537C363 -539 365 -543 356 -551L333 -572L347 -696C349 -716 358 -729 375 -740C382 -744 383 -748 375 -756L334 -796L301 -753L97 -729L140 -693C161 -702 199 -710 308 -722L297 -566L206 -549L191 -623L177 -620C179 -594 177 -574 174 -545L156 -402C152 -372 146 -362 119 -345L162 -320C168 -317 173 -317 179 -324C186 -333 194 -337 205 -339L308 -354C291 -191 261 -39 230 14L129 -74L117 -62C160 -9 187 32 219 86C224 95 228 95 234 88C281 31 310 -54 344 -321C347 -338 354 -352 375 -369C383 -376 384 -380 377 -386ZM934 -169L890 -202C866 -189 754 -169 649 -160V-248L815 -265C828 -266 831 -272 820 -280L798 -296L816 -431C820 -459 826 -472 846 -487C853 -492 853 -496 846 -502L802 -539L777 -504L495 -473L472 -526C474 -537 474 -551 473 -566L614 -584C626 -586 626 -592 617 -598L594 -614L603 -704C604 -717 613 -734 624 -744C630 -750 630 -754 624 -759L583 -791L559 -753L463 -743L440 -822L425 -818C429 -793 432 -752 433 -726L437 -642C438 -617 435 -591 424 -572L459 -511C461 -491 462 -465 463 -431L465 -318C466 -287 462 -264 449 -245L486 -188C494 -176 498 -176 501 -192C503 -205 503 -218 502 -234L610 -245V-157L335 -135L383 -94C405 -104 429 -106 610 -124V-71C610 -20 605 14 591 41L625 104C629 112 636 112 639 103C648 70 649 53 649 -35V-127L930 -155C944 -156 945 -160 934 -169ZM802 -736L792 -624L705 -612L702 -724ZM569 -723L561 -609L472 -595L467 -711ZM780 -472L761 -294L649 -282V-356L744 -367C757 -368 757 -372 748 -380L722 -402C711 -397 675 -388 649 -383V-458ZM610 -278L502 -266L499 -441L610 -453V-379L506 -368L541 -336C555 -341 582 -347 610 -351Z"/>
</svg>