<svg xmlns="http://www.w3.org/2000/svg" viewBox="0 -1000 1000 1000">
	<path fill="#000000" d="M503 -427L472 -453C449 -443 419 -436 389 -430V-517L493 -529C499 -529 501 -535 495 -540L459 -572C442 -564 417 -556 389 -551V-631L493 -644C501 -646 501 -650 495 -655L455 -689C438 -681 414 -673 389 -668C389 -730 393 -747 401 -766C403 -772 403 -776 398 -780L330 -830L319 -820C340 -777 349 -724 349 -663L154 -640L198 -601C237 -610 296 -620 349 -627V-546L180 -524L228 -487C258 -497 296 -506 349 -513V-424L103 -390L153 -354C192 -364 272 -379 349 -389C348 -358 345 -347 337 -334L368 -280C373 -272 381 -274 383 -280C387 -292 389 -314 389 -394L499 -409C514 -412 515 -417 503 -427ZM931 -443L885 -480C860 -468 807 -453 703 -444V-519L852 -533C861 -534 862 -537 853 -545L809 -578C785 -569 743 -558 703 -552V-633L876 -653C884 -654 885 -660 878 -666L839 -700C805 -687 764 -678 703 -671C703 -727 710 -764 722 -779C726 -785 725 -790 718 -796L654 -846L644 -836C659 -793 663 -761 663 -667L529 -652L581 -613C589 -618 618 -624 663 -629V-549L537 -539L589 -500C601 -506 624 -511 663 -515V-440L534 -430L588 -387C607 -393 637 -400 663 -404C663 -383 659 -373 647 -357L674 -302L242 -258L293 -214C321 -224 408 -237 731 -269L704 -16C651 -5 536 7 252 28L308 75C356 61 465 48 776 26C790 25 791 21 780 12L749 -15L774 -220C779 -258 793 -277 808 -289C816 -296 816 -300 809 -306L759 -347L725 -308L697 -304C701 -323 703 -347 703 -408L930 -431C938 -432 939 -437 931 -443ZM679 -143L641 -176C612 -162 559 -155 307 -134L360 -91C380 -99 486 -112 675 -130C686 -131 687 -136 679 -143Z"/>
</svg>