<svg xmlns="http://www.w3.org/2000/svg" viewBox="0 -1000 1000 1000">
	<path fill="#000000" d="M833 -770L795 -841L781 -838C795 -793 727 -635 598 -485L609 -469C694 -554 753 -632 798 -713C809 -735 820 -747 830 -752C836 -755 838 -760 833 -770ZM613 -555L575 -585C552 -573 524 -564 491 -558V-679C491 -722 497 -778 506 -792C510 -798 509 -802 503 -807L444 -858L430 -850C447 -809 452 -776 452 -682V-553L337 -538L388 -500C404 -509 417 -513 444 -518C408 -377 356 -263 280 -168L290 -155C365 -234 412 -311 452 -404V-217C452 -99 449 -80 434 -57L465 8C471 21 478 21 482 9C488 -8 491 -37 491 -158V-443L587 -323C593 -316 598 -317 599 -325C603 -346 602 -370 596 -402L491 -469V-525L611 -543C619 -544 620 -549 613 -555ZM402 -583L364 -606C342 -596 309 -586 277 -580V-614C277 -717 282 -759 291 -775C294 -780 293 -785 287 -790L230 -840L216 -831C233 -789 238 -716 238 -603V-574L83 -549L128 -512C146 -520 185 -530 221 -537C193 -438 130 -309 42 -183L55 -172C123 -253 189 -354 238 -457V-206C238 -91 233 -69 219 -51L256 21C262 32 267 31 270 20C275 0 277 -26 277 -146V-459L356 -363C362 -356 367 -357 368 -365C370 -385 368 -403 361 -438L277 -486V-547L398 -568C413 -571 414 -576 402 -583ZM846 -513L819 -581L805 -578C806 -531 726 -396 559 -240L568 -226C689 -316 743 -375 801 -456C821 -483 831 -491 842 -497C849 -500 850 -504 846 -513ZM886 -270L859 -348L844 -344C840 -264 642 -29 444 76L451 92C594 27 746 -97 845 -225C858 -242 866 -248 877 -254C886 -259 888 -263 886 -270Z"/>
</svg>