<svg xmlns="http://www.w3.org/2000/svg" viewBox="0 -1000 1000 1000">
	<path fill="#000000" d="M403 -768L366 -838L351 -833C351 -783 306 -694 119 -520L129 -507C216 -573 288 -641 358 -722C367 -733 384 -746 397 -750C406 -753 408 -758 403 -768ZM913 -472C922 -476 923 -481 913 -490C900 -502 884 -513 870 -522C848 -504 823 -498 778 -498C716 -498 705 -506 707 -581L709 -669C710 -705 713 -716 735 -735C743 -742 743 -746 735 -753L688 -797L655 -750L533 -736L508 -808L490 -805C495 -577 483 -505 340 -371L352 -359C492 -470 522 -538 534 -697L668 -715L666 -587C665 -493 685 -468 754 -461C826 -455 887 -462 913 -472ZM391 -539L366 -616L351 -613C342 -548 258 -419 58 -260L70 -246C124 -280 193 -334 250 -391V-106C250 -68 242 -31 226 -9L265 70C270 80 277 80 281 71C288 55 290 23 290 -74L289 -432C302 -446 312 -457 326 -473C355 -506 371 -520 384 -524C392 -527 393 -531 391 -539ZM951 28V9C794 -2 770 -15 625 -167C667 -221 696 -274 720 -329C738 -371 751 -387 764 -392C774 -396 775 -401 766 -409L721 -449L692 -421L429 -388L478 -349C510 -360 555 -368 690 -385C671 -321 641 -257 598 -196L545 -252C522 -278 500 -310 494 -322L436 -321L437 -311C466 -296 508 -254 578 -170C509 -81 413 -5 306 61L316 77C435 20 533 -54 604 -138L759 47Z"/>
</svg>