<svg xmlns="http://www.w3.org/2000/svg" viewBox="0 -1000 1000 1000">
	<path fill="#000000" d="M796 -686L759 -716C737 -705 636 -685 305 -644C318 -662 332 -683 346 -705C364 -735 378 -751 390 -759C398 -764 399 -770 396 -778L365 -846L346 -839C342 -786 271 -627 101 -424L114 -413C169 -463 231 -535 291 -624L315 -605C326 -610 340 -614 363 -617V-380C363 -335 357 -312 344 -280L385 -213C391 -204 396 -205 399 -214C403 -229 404 -260 404 -354L738 -389C748 -390 750 -395 741 -401L694 -434C658 -420 610 -411 404 -387V-484L704 -525C715 -526 715 -531 707 -537L667 -567C631 -552 596 -546 404 -521V-621L793 -672C805 -673 806 -677 796 -686ZM566 -194L450 -278L440 -268L546 -123C553 -115 558 -115 560 -124C565 -144 567 -165 566 -194ZM878 -110C879 -129 874 -152 861 -187L667 -264L660 -253L866 -103C874 -98 878 -99 878 -110ZM223 -241L207 -242C186 -102 164 -59 117 -15L133 44C135 52 139 54 145 47C191 3 231 -106 223 -241ZM752 76C727 22 701 -45 672 -133L657 -130L680 41C617 50 511 28 450 -14C381 -61 348 -103 286 -232L268 -228C322 -77 379 -6 466 42C538 82 657 100 745 90C754 89 756 84 752 76Z"/>
</svg>