<svg xmlns="http://www.w3.org/2000/svg" viewBox="0 -1000 1000 1000">
	<path fill="#000000" d="M880 -433L843 -463C805 -451 763 -443 607 -428V-522L813 -545C827 -547 828 -552 816 -561L778 -589C745 -574 672 -559 607 -554V-649L820 -677C832 -679 833 -684 823 -691L787 -719C764 -709 722 -701 607 -683C607 -736 611 -757 626 -782C630 -788 629 -792 624 -796L560 -851L549 -841C562 -817 568 -780 568 -685V-440C568 -381 562 -359 550 -335L585 -270C591 -259 596 -260 600 -269C606 -282 607 -307 607 -397L877 -419C889 -420 889 -425 880 -433ZM461 -755C465 -762 465 -766 458 -773L399 -831L388 -823C406 -781 411 -746 411 -723V-682L187 -656L223 -622C254 -631 322 -642 411 -651V-562L218 -542L255 -507C282 -515 309 -519 411 -531V-438L161 -405L197 -371C215 -378 318 -397 411 -407C410 -372 405 -345 396 -332L431 -275C437 -265 443 -266 445 -274C449 -293 450 -305 450 -425V-679C450 -723 452 -737 461 -755ZM566 -181L474 -281L463 -270L535 -112C538 -105 546 -104 549 -112C555 -128 561 -149 566 -181ZM865 -65C867 -94 867 -109 865 -139L697 -245L688 -231C745 -187 805 -121 851 -61C857 -54 864 -55 865 -65ZM250 -262H232C224 -169 196 -116 159 -71L179 -8C182 2 185 4 193 -5C239 -60 256 -152 250 -262ZM763 49C738 -2 714 -53 674 -140L659 -134L699 23C636 29 553 19 478 -19C409 -54 353 -136 334 -228L310 -225C335 -107 397 -18 483 28C541 60 655 75 757 65C766 64 768 60 763 49Z"/>
</svg>