<svg xmlns="http://www.w3.org/2000/svg" viewBox="0 -1000 1000 1000">
	<path fill="#000000" d="M876 -525L741 -616C803 -728 825 -751 840 -761C847 -765 848 -769 844 -778L814 -851L798 -847C799 -799 771 -729 707 -614C768 -564 811 -518 855 -454C862 -443 868 -442 872 -453C877 -473 878 -494 876 -525ZM699 -504L587 -602C636 -701 657 -735 672 -750C681 -758 682 -761 677 -770L642 -834L630 -827C631 -786 612 -724 553 -602C602 -550 644 -497 676 -438C683 -427 688 -428 691 -438C696 -454 698 -472 699 -504ZM531 -495L436 -585C501 -724 509 -738 525 -750C531 -754 532 -759 527 -768L488 -834L475 -827C477 -772 463 -711 405 -589C447 -535 477 -488 505 -432C512 -420 516 -420 520 -432C526 -451 529 -471 531 -495ZM162 -604H147C142 -492 126 -458 90 -424L108 -363C111 -354 116 -353 123 -361C152 -398 183 -502 162 -604ZM366 -594L268 -644C268 -724 272 -761 287 -789C291 -797 290 -801 284 -808L228 -866L217 -856C230 -823 231 -788 231 -695V-135C231 -49 225 -12 208 15L245 91C249 100 256 100 259 91C265 74 268 35 268 -57V-624L347 -527C355 -518 359 -518 363 -532C368 -553 368 -575 366 -594ZM857 -366C864 -372 864 -376 857 -382L815 -417L790 -379L550 -350C574 -394 593 -422 606 -432C613 -438 614 -442 608 -451L575 -501L561 -494C568 -466 556 -414 520 -347L451 -339L420 -421L407 -417C414 -378 419 -306 420 -260L425 -49C426 -7 421 7 408 26L447 93C453 103 460 100 461 91C463 76 464 47 463 22L754 -5L784 67C788 77 794 77 799 67C807 50 812 19 819 -74L838 -320C839 -337 844 -355 857 -366ZM798 -348L784 -114C781 -66 776 -41 763 -25L731 -48C707 -30 654 -22 463 -8L456 -309L696 -336C691 -304 664 -256 632 -212L505 -297L497 -284C535 -256 582 -217 613 -188C567 -131 521 -84 465 -42L472 -30C532 -71 583 -113 634 -169C662 -140 687 -114 723 -74C729 -67 736 -68 737 -79C739 -97 737 -115 732 -142L657 -194C668 -207 678 -220 685 -228C705 -255 717 -268 726 -273C733 -277 734 -281 731 -290L716 -338Z"/>
</svg>