<svg xmlns="http://www.w3.org/2000/svg" viewBox="0 -1000 1000 1000">
	<path fill="#000000" d="M841 -687C851 -693 851 -698 840 -706L789 -743L762 -701L564 -675C602 -744 615 -762 642 -785C650 -792 651 -796 643 -805L597 -862L580 -853C589 -820 583 -787 526 -670L460 -660L427 -736L408 -731C416 -703 421 -649 424 -611L430 -472C431 -449 425 -421 414 -401L456 -337C463 -327 469 -327 472 -341C473 -347 474 -356 474 -378L813 -416C827 -417 828 -421 817 -431L790 -457L812 -630C815 -656 825 -678 841 -687ZM142 -618H125C111 -485 88 -429 57 -405L77 -350C80 -341 85 -340 91 -348C122 -389 149 -475 142 -618ZM384 -503C386 -522 385 -541 380 -567L258 -621C258 -746 261 -756 274 -778C279 -786 278 -792 273 -796L202 -857L189 -843C208 -801 215 -768 215 -658V-154C215 -70 203 -9 190 9L235 98C241 108 247 108 250 97C256 73 258 57 258 -32V-594L370 -499C378 -492 383 -494 384 -503ZM932 -8L886 -44C857 -34 770 -21 626 -11V-134L812 -154C822 -155 824 -159 814 -166L771 -197C753 -189 672 -173 626 -168V-274L857 -296C869 -297 869 -302 860 -310L815 -344C775 -327 685 -308 352 -283L406 -243C443 -253 507 -263 585 -270V-164L392 -147L442 -109C481 -118 518 -124 585 -130V-9L283 12L340 54C395 40 512 28 930 4C940 3 942 -1 932 -8ZM769 -666L750 -448L473 -414L469 -506L710 -532C722 -533 722 -539 714 -546L676 -578C657 -567 597 -555 468 -539L464 -627Z"/>
</svg>