<svg xmlns="http://www.w3.org/2000/svg" viewBox="0 -1000 1000 1000">
	<path fill="#000000" d="M948 -486V-500C849 -519 796 -550 705 -650L599 -768C607 -776 613 -780 618 -783C627 -788 628 -793 622 -801L581 -858L566 -854C565 -779 453 -575 273 -424L284 -409C331 -441 379 -481 422 -528L452 -510C479 -518 572 -534 695 -549C707 -550 709 -557 699 -564L662 -591C630 -575 561 -559 438 -544C492 -603 543 -671 584 -743L810 -474ZM155 -615L135 -618C122 -498 105 -451 68 -404L89 -349C92 -341 97 -340 104 -348C135 -389 158 -501 155 -615ZM369 -546C370 -566 367 -587 361 -609L258 -654C258 -738 263 -754 281 -785C285 -792 284 -796 277 -803L218 -858L206 -849C216 -806 219 -775 219 -681V-180C219 -86 206 -9 190 17L231 92C237 101 241 100 245 91C254 71 258 42 258 -50V-631L359 -541C363 -536 369 -537 369 -546ZM691 -356C694 -360 694 -366 689 -370L646 -413L634 -404C643 -383 647 -357 647 -308V-255C647 -204 645 -193 637 -180L665 -128C669 -121 676 -121 678 -129C681 -139 682 -153 682 -230V-304C682 -327 686 -349 691 -356ZM795 -431C798 -436 798 -441 792 -447L746 -495L734 -486C743 -453 746 -414 746 -360V-108C746 -23 744 -2 737 19L649 -37L640 -24C691 28 719 58 750 97C758 107 762 106 767 96C779 69 784 30 784 -48V-365C784 -401 787 -419 795 -431ZM606 -446L564 -479L540 -448L418 -432L396 -480L379 -474C384 -443 386 -420 386 -360V-104C386 -54 377 -5 364 23L399 89C403 97 410 97 413 89C418 69 422 16 422 -61V-160L535 -177C544 -178 545 -184 539 -189L511 -214C497 -206 471 -198 422 -190V-280L533 -298C543 -299 544 -305 537 -311L511 -335C500 -329 468 -321 422 -312V-399L547 -417V-106C547 -32 545 -10 541 12L472 -30L465 -15C498 22 534 70 550 96C554 102 560 102 564 95C580 65 584 31 584 -79V-388C584 -406 596 -425 605 -431C613 -437 611 -442 606 -446Z"/>
</svg>