<svg xmlns="http://www.w3.org/2000/svg" viewBox="0 -1000 1000 1000">
	<path fill="#000000" d="M858 -714L821 -743C795 -732 746 -718 637 -707C658 -762 664 -771 673 -778C679 -782 680 -787 673 -796L626 -856L613 -851C616 -807 612 -764 598 -704L416 -689C415 -734 421 -760 432 -773C435 -778 435 -782 427 -788L367 -837L358 -828C372 -797 381 -762 382 -687L153 -668L202 -628C226 -635 269 -642 382 -652C381 -625 377 -608 370 -598L398 -554C406 -542 410 -542 415 -556C419 -570 420 -596 417 -655L590 -672C583 -643 574 -611 561 -573L578 -565C597 -600 611 -633 626 -675L856 -696C870 -697 871 -703 858 -714ZM874 -529L830 -562C807 -548 690 -529 474 -507C503 -552 508 -560 518 -570C527 -578 527 -582 523 -590L492 -643L480 -638C474 -599 460 -562 424 -502L132 -474L181 -435C220 -444 293 -456 400 -468C344 -388 265 -308 127 -203L141 -188C212 -232 282 -285 353 -356C359 -316 358 -257 346 -243L379 -193C388 -180 393 -181 397 -191C400 -198 401 -208 399 -230L706 -257C718 -258 719 -261 710 -271L686 -298L699 -360C702 -373 710 -385 722 -394C730 -400 730 -404 724 -410L682 -450L653 -413L386 -383L383 -386C407 -412 432 -442 452 -472L871 -515C885 -516 885 -520 874 -529ZM580 -133L473 -206L468 -193L558 -66C567 -53 571 -54 574 -66C578 -82 580 -103 580 -133ZM868 -34C871 -57 871 -69 866 -111L702 -204L693 -188C752 -139 804 -87 854 -32C863 -22 867 -23 868 -34ZM274 -176L257 -179C230 -91 198 -53 169 -36L180 30C183 46 185 47 195 36C227 4 263 -72 274 -176ZM756 60C728 12 695 -58 673 -114L658 -111L684 32C625 32 543 17 484 -16C437 -41 378 -111 346 -175L328 -168C364 -77 416 2 502 38C552 60 676 81 750 76C761 75 763 72 756 60ZM660 -378L647 -288L396 -262L388 -350Z"/>
</svg>