<svg xmlns="http://www.w3.org/2000/svg" viewBox="0 -1000 1000 1000">
	<path fill="#000000" d="M551 -568L458 -674L444 -668L518 -505C522 -497 527 -496 532 -505C541 -523 545 -538 551 -568ZM942 -307C828 -329 790 -350 745 -415L674 -512C783 -625 806 -646 821 -653C828 -657 829 -660 826 -667L799 -736L783 -733C783 -694 761 -655 662 -530L638 -564C643 -594 646 -629 648 -677C651 -728 657 -759 664 -773C668 -781 667 -786 662 -790L601 -848L589 -839C608 -778 611 -727 603 -604C591 -432 541 -348 397 -254L403 -238C543 -313 602 -382 632 -525L776 -282L941 -293ZM468 -761L423 -809L411 -805C412 -782 374 -756 129 -671L136 -655C179 -664 231 -679 293 -698V-579L70 -549L116 -515C136 -523 183 -531 282 -545C235 -441 138 -335 52 -261L63 -247C151 -313 225 -376 293 -477V-430C293 -322 290 -310 277 -288L311 -226C315 -219 321 -219 323 -226C330 -246 332 -263 332 -379V-470L447 -374C455 -368 460 -370 460 -378C461 -398 458 -418 454 -437L332 -493V-552L454 -570C466 -571 466 -577 458 -584L425 -613C412 -603 374 -592 332 -584V-711C395 -732 451 -748 464 -750C472 -751 474 -756 468 -761ZM602 -206L496 -275L486 -265L585 -127C591 -120 598 -121 599 -130C601 -149 602 -162 602 -206ZM885 -143L728 -258L720 -247L868 -65C874 -58 879 -59 881 -70C884 -87 885 -102 885 -143ZM263 -211L248 -215C220 -126 194 -85 149 -47L176 24C179 31 183 32 189 24C226 -35 253 -121 263 -211ZM779 62C749 9 717 -55 677 -139L663 -134L705 26C624 26 579 11 505 -31C442 -68 383 -130 341 -201L322 -193C369 -89 440 -15 530 30C600 65 688 80 771 75C783 74 784 71 779 62Z"/>
</svg>