<svg xmlns="http://www.w3.org/2000/svg" viewBox="0 -1000 1000 1000">
	<path fill="#000000" d="M957 -672L922 -698C905 -690 856 -679 808 -672L814 -731C816 -746 822 -758 842 -770C850 -775 850 -779 843 -785L800 -827L768 -790L488 -750L462 -817L447 -812C451 -784 452 -766 452 -722V-633L314 -618L363 -583C392 -592 409 -595 452 -600V-569C452 -537 446 -525 429 -509L459 -479C464 -474 467 -474 474 -479C482 -485 494 -490 517 -493L819 -526C830 -527 831 -532 822 -539L797 -561L805 -640L956 -657C968 -658 969 -663 957 -672ZM151 -614H137C137 -510 114 -436 73 -392L90 -339C92 -332 98 -330 104 -338C150 -403 168 -511 151 -614ZM360 -551L256 -619C256 -709 262 -746 277 -774C283 -786 282 -790 276 -795L214 -857L203 -849C216 -813 219 -776 219 -702V-122C219 -52 210 -18 195 0L237 87C241 95 247 96 250 88C255 76 256 42 256 -82V-594L344 -494C350 -487 356 -488 358 -498C362 -516 362 -532 360 -551ZM826 -440C833 -445 833 -449 825 -456L785 -489L755 -454L489 -424L465 -465L452 -462C457 -430 459 -390 459 -365V-242C459 -194 455 -175 442 -156L478 -94C483 -85 489 -84 492 -95C494 -104 494 -113 494 -127L742 -159L762 -112C766 -104 772 -104 775 -112C788 -141 795 -196 797 -236L806 -396C807 -418 811 -430 826 -440ZM879 12L675 -117L662 -104C753 -33 796 8 862 82C870 91 876 91 878 80C881 58 881 38 879 12ZM598 -60L563 -119L550 -114C546 -71 497 -19 336 92L343 106C396 81 500 23 542 -12C566 -33 575 -38 593 -46C600 -49 602 -54 598 -60ZM776 -757L769 -668L647 -653V-739ZM610 -650L488 -636V-718L610 -735ZM767 -636L761 -552L647 -539V-622ZM610 -536L488 -522V-604L610 -618ZM767 -424L761 -272C759 -224 755 -195 745 -178L714 -196C695 -186 630 -175 494 -160V-215L716 -242C730 -244 730 -249 717 -259L687 -281C665 -269 609 -258 494 -244V-299L722 -329C735 -330 735 -336 724 -343L690 -367C670 -355 613 -343 494 -331V-395Z"/>
</svg>