<svg xmlns="http://www.w3.org/2000/svg" viewBox="0 -1000 1000 1000">
	<path fill="#000000" d="M940 -459L901 -496C867 -482 777 -466 621 -450C627 -464 631 -481 632 -495L588 -535L796 -560C805 -561 806 -565 798 -572L767 -599L787 -719C793 -754 799 -770 812 -778C820 -783 820 -787 813 -793L773 -831L744 -797L459 -759L423 -826L408 -818C420 -785 427 -747 427 -735L433 -598C434 -571 431 -559 424 -547L454 -497C464 -481 473 -482 472 -520L553 -530L598 -448L299 -421L352 -382C411 -397 583 -419 936 -446C947 -447 947 -452 940 -459ZM153 -636H133C131 -515 119 -464 78 -407L101 -349C104 -341 109 -340 115 -347C152 -392 165 -506 153 -636ZM383 -544C385 -556 383 -575 377 -603L268 -635C268 -734 275 -768 286 -788C290 -796 289 -799 284 -806L230 -868L214 -857C227 -825 229 -798 229 -702V-130C229 -45 224 -7 207 23L244 98C249 107 253 106 256 98C266 75 268 30 268 -120V-610L370 -540C378 -536 382 -538 383 -544ZM799 -342C806 -347 807 -352 799 -359L756 -396L728 -365L470 -333L440 -376L427 -371C433 -341 435 -314 435 -294L437 -249C437 -229 433 -214 427 -203L458 -162C465 -152 473 -155 474 -190L582 -201C585 -181 586 -155 586 -127V-34C586 4 585 15 581 30L488 -24L478 -12C544 46 572 74 597 102C604 110 608 110 611 102C620 82 624 56 624 16V-126C624 -158 625 -173 627 -179C630 -187 629 -192 615 -204L775 -220C789 -221 790 -225 780 -234L760 -255L773 -306C777 -321 786 -333 799 -342ZM866 9C868 -6 865 -27 857 -63L671 -153L664 -137C735 -88 749 -78 854 13C862 20 865 19 866 9ZM512 -103L492 -157L477 -155C470 -116 420 -55 294 36L303 50C342 29 403 -9 448 -47C466 -62 488 -77 506 -85C513 -89 515 -92 512 -103ZM751 -763L726 -587L471 -554L468 -621L702 -657C712 -659 712 -664 704 -670L675 -693C651 -683 610 -674 467 -655L464 -726ZM738 -334L722 -249L473 -224L470 -300Z"/>
</svg>