<svg xmlns="http://www.w3.org/2000/svg" viewBox="0 -1000 1000 1000">
	<path fill="#000000" d="M846 -725L817 -749C788 -738 725 -727 641 -718C642 -760 645 -774 651 -784C658 -796 657 -800 649 -807L598 -851L587 -843C599 -817 605 -783 606 -715L383 -693L429 -659C456 -665 537 -678 606 -686C605 -655 602 -644 595 -630L620 -597C630 -584 635 -585 638 -601C640 -615 641 -641 641 -689L840 -707C858 -709 859 -715 846 -725ZM159 -602H143C134 -496 118 -455 73 -401L85 -347C89 -334 94 -332 102 -342C143 -396 169 -490 159 -602ZM937 -582L902 -608C874 -597 829 -587 755 -579C763 -602 769 -615 773 -619C781 -627 781 -634 774 -640L733 -683L720 -677C725 -651 724 -630 715 -576L525 -558C525 -577 526 -591 529 -600C532 -614 531 -619 522 -626L487 -655L475 -646C487 -624 491 -609 493 -556L311 -540L357 -504C387 -511 440 -519 494 -525C496 -488 494 -479 489 -471L510 -448C519 -438 526 -440 529 -450C531 -463 530 -490 527 -528L709 -544C703 -519 693 -483 684 -453L467 -431L441 -469L428 -462C435 -441 439 -408 439 -369V-203C439 -165 436 -149 426 -136L453 -92C461 -78 468 -77 472 -93C474 -101 474 -113 474 -128L733 -154L757 -114C768 -97 774 -98 779 -113C785 -128 789 -155 791 -191L803 -391C804 -408 811 -422 823 -431C832 -438 833 -444 823 -454L784 -493L756 -461L714 -455C725 -487 734 -514 745 -547L931 -565C950 -567 951 -572 937 -582ZM370 -561C372 -580 371 -596 368 -613L265 -651C265 -722 273 -758 285 -776C291 -785 290 -792 284 -797L224 -858L211 -850C225 -815 228 -796 228 -682V-109C228 -42 221 -6 203 15L241 89C249 104 255 104 259 87C263 67 265 43 265 -60V-629L352 -558C364 -548 369 -548 370 -561ZM871 80C872 64 869 41 863 9L649 -117L641 -105C726 -36 791 22 851 82C866 97 870 95 871 80ZM576 -56L552 -113L537 -110C539 -65 453 15 348 77L356 90C401 72 471 34 535 -17C548 -28 560 -34 569 -37C580 -41 581 -45 576 -56ZM767 -429L753 -221C751 -187 749 -172 742 -167L704 -194C676 -183 637 -176 474 -160V-221L720 -247C739 -249 740 -253 727 -264L701 -285C671 -273 641 -269 474 -251V-306L715 -330C731 -332 732 -336 719 -346L690 -368C666 -358 626 -350 474 -334V-399Z"/>
</svg>