<svg xmlns="http://www.w3.org/2000/svg" viewBox="0 -1000 1000 1000">
	<path fill="#000000" d="M916 -561L872 -589C849 -574 813 -566 654 -551C680 -599 698 -626 707 -636C716 -646 716 -650 708 -659L680 -689L830 -706C853 -709 852 -715 834 -725L792 -749C770 -736 712 -724 604 -712C612 -731 619 -753 623 -777L539 -863L526 -856L587 -711L345 -687L389 -650C413 -656 445 -664 480 -668L516 -540L288 -520L331 -483C382 -494 442 -504 909 -542C932 -544 934 -550 916 -561ZM143 -593H128C119 -504 97 -455 61 -416L77 -357C80 -345 85 -345 93 -355C135 -408 148 -471 143 -593ZM336 -534C338 -549 338 -560 335 -589L243 -626C243 -700 251 -734 261 -754C267 -766 266 -769 260 -776L200 -842L189 -835C203 -796 205 -738 205 -647V-130C205 -36 198 -9 178 22L216 90C222 101 228 103 233 91C239 74 243 45 243 -52V-601L320 -532C327 -525 335 -527 336 -534ZM778 -450C790 -461 790 -464 778 -472L736 -500L708 -466L447 -438L426 -482L409 -477C416 -455 420 -421 420 -389V-310C420 -278 417 -263 408 -244L441 -203C447 -195 454 -195 457 -206C458 -210 458 -220 458 -230L756 -257C772 -258 773 -262 763 -273L740 -297L756 -396C761 -428 767 -440 778 -450ZM669 -141L560 -201L554 -189L650 -78C659 -68 665 -69 667 -80C670 -98 670 -117 669 -141ZM899 -65C900 -81 899 -103 896 -128L753 -207L745 -193L878 -62C891 -49 898 -50 899 -65ZM404 -191H387C375 -120 350 -75 315 -55L326 7C328 20 334 22 343 12C374 -26 401 -95 404 -191ZM810 45C787 2 765 -46 742 -108L725 -105L751 16C619 9 528 -58 469 -197L450 -192C494 -24 621 63 798 65C816 65 818 59 810 45ZM659 -687C659 -651 648 -612 624 -549L539 -541C544 -554 551 -573 556 -590L501 -670ZM721 -434L703 -286L458 -261V-316L674 -339C694 -341 697 -345 682 -357L652 -380C627 -368 581 -359 458 -346V-407Z"/>
</svg>