<svg xmlns="http://www.w3.org/2000/svg" viewBox="0 -1000 1000 1000">
	<path fill="#000000" d="M153 -595H135C123 -483 115 -437 85 -399L107 -346C112 -335 117 -334 123 -346C157 -415 162 -475 153 -595ZM900 -7L859 -44C836 -35 748 -21 603 -11V-87L805 -107C815 -108 815 -112 807 -118L770 -146C743 -137 677 -122 603 -115V-187L786 -203C795 -204 797 -208 790 -217L769 -242L785 -353C787 -369 793 -380 806 -389C813 -394 813 -397 803 -405L763 -437L737 -401L603 -390V-453L888 -481C897 -482 898 -486 889 -493L850 -524C824 -512 710 -492 603 -483V-537C634 -541 664 -546 690 -550C753 -561 771 -563 785 -564C795 -565 796 -570 789 -577L748 -615L738 -612C735 -603 718 -595 654 -581L674 -663L857 -682C868 -683 869 -687 860 -695L829 -725C808 -715 735 -698 681 -691C693 -737 700 -760 708 -771C713 -778 712 -782 706 -788L657 -835L646 -829C656 -804 655 -742 645 -688L510 -674L507 -713C506 -735 505 -753 509 -765C512 -775 510 -779 502 -784L451 -812L442 -799C456 -778 467 -743 469 -716L472 -671L306 -652L345 -621C368 -629 404 -634 474 -641C476 -619 474 -597 468 -587L495 -548C450 -540 405 -533 386 -530L387 -517C441 -522 505 -527 564 -534V-480L285 -453L327 -422C374 -433 408 -437 564 -450V-387L421 -375L393 -418L380 -412C390 -384 398 -342 399 -317L403 -231C404 -204 402 -191 396 -178L428 -131C434 -123 439 -123 441 -133C443 -143 444 -155 444 -172L564 -184V-112L373 -93L404 -59C430 -68 462 -72 564 -83V-8L286 12L332 50C439 33 568 20 894 4C906 3 907 0 900 -7ZM358 -519C357 -534 354 -551 350 -570L254 -604V-689C254 -719 259 -749 269 -769C273 -777 272 -780 264 -787L206 -835L193 -828C205 -794 214 -744 214 -677V-125C214 -75 202 -19 191 5L231 82C237 94 242 94 245 82C250 62 254 21 254 -46V-581L343 -512C354 -503 359 -505 358 -519ZM640 -660L623 -574C599 -569 555 -561 513 -552C514 -572 514 -600 511 -645ZM564 -302L435 -289L431 -345L564 -357ZM748 -373L733 -232L603 -218V-277L714 -288C721 -289 722 -292 716 -298L687 -326C672 -318 650 -313 603 -307V-361ZM564 -214L442 -199L437 -275L461 -256C485 -262 521 -269 564 -273Z"/>
</svg>