<svg xmlns="http://www.w3.org/2000/svg" viewBox="0 -1000 1000 1000">
	<path fill="#000000" d="M872 -768L829 -803L803 -769L688 -750L663 -820L647 -816C652 -784 657 -725 657 -705V-551C657 -504 655 -493 646 -475L671 -429C678 -418 686 -418 689 -432C691 -438 692 -449 693 -460L851 -478C867 -479 869 -486 856 -496L832 -513L852 -703C854 -723 859 -736 870 -746C880 -756 880 -762 872 -768ZM603 -754L562 -791L535 -755L429 -738L404 -811L389 -807C394 -772 398 -715 398 -695L401 -542C402 -510 399 -495 389 -475L417 -421C424 -407 432 -407 436 -424C437 -430 439 -446 438 -464L590 -484C606 -486 607 -494 596 -503L577 -518L586 -689C587 -714 592 -726 601 -734C611 -743 610 -748 603 -754ZM178 -606H162C138 -488 115 -455 82 -430L99 -371C102 -360 108 -357 117 -367C150 -399 178 -484 178 -606ZM668 -401L581 -466L571 -453L638 -362C647 -351 653 -351 660 -365C664 -373 666 -383 668 -401ZM381 -521C382 -534 381 -552 376 -579L270 -632C270 -692 275 -739 289 -756C295 -764 295 -770 287 -779L225 -848L212 -840C225 -803 233 -747 233 -666V-121C233 -30 229 -13 212 12L249 91C256 105 263 105 266 89C269 69 270 42 270 -69V-609L363 -515C375 -502 380 -503 381 -521ZM910 -38L870 -67C846 -57 802 -47 669 -35V-126L840 -145C860 -147 860 -154 845 -164L809 -185C794 -175 762 -170 669 -158V-223L831 -238C849 -239 849 -247 837 -256L799 -281C776 -271 747 -265 669 -255V-321L862 -341C884 -343 884 -351 868 -360L833 -381C810 -370 754 -361 479 -331V-337C497 -361 513 -379 525 -388C536 -396 538 -400 533 -408L500 -462L485 -455C491 -407 414 -292 290 -175L302 -162C360 -209 403 -247 443 -291V-66C443 -13 431 10 420 23L454 98C461 111 467 111 471 94C477 71 480 49 480 12L902 -19C924 -21 926 -26 910 -38ZM815 -737L799 -506L693 -490V-551L785 -564C798 -565 800 -571 790 -581L770 -599C761 -593 733 -587 693 -581V-632L779 -641C795 -642 796 -649 786 -658L764 -678C755 -672 738 -669 693 -663V-718ZM551 -725L543 -511L437 -494V-552L519 -564C532 -565 534 -572 525 -580L508 -598C500 -592 474 -584 436 -579L435 -628L516 -640C528 -641 531 -648 521 -657L502 -674C492 -669 469 -664 435 -656L433 -707ZM633 -32L480 -19V-302L633 -318V-251L483 -234L511 -201C541 -208 582 -214 633 -220V-155L486 -136L523 -104C540 -110 563 -115 633 -123Z"/>
</svg>