<svg xmlns="http://www.w3.org/2000/svg" viewBox="0 -1000 1000 1000">
	<path fill="#000000" d="M800 -707L693 -771L684 -757L783 -639C791 -628 796 -627 798 -637C802 -660 802 -670 800 -707ZM923 76C913 20 905 -63 901 -142H888L873 18C798 -31 735 -98 693 -225C724 -264 743 -290 762 -320C794 -370 799 -376 809 -384C818 -391 819 -399 814 -407L778 -462L765 -456C763 -423 741 -349 683 -260C664 -329 653 -410 647 -521L882 -551C897 -553 898 -558 885 -567L845 -594C823 -582 768 -572 646 -555C637 -720 638 -768 648 -788C652 -796 651 -799 644 -805L576 -857L566 -846C589 -807 599 -742 606 -550L406 -523V-625L531 -645C541 -647 542 -651 533 -659L500 -687C479 -675 462 -670 406 -658C406 -735 408 -779 416 -792C420 -799 419 -803 409 -811L355 -852L343 -841C358 -815 367 -767 367 -653L214 -631L260 -598C284 -605 319 -612 367 -620V-519L105 -484L152 -448C186 -459 215 -465 279 -473C277 -422 225 -325 75 -176L87 -164C126 -194 188 -253 244 -318V-108C244 -45 239 -8 227 11L264 69C270 78 276 76 277 67C278 58 279 41 279 9L605 -38C618 -40 621 -44 608 -54L573 -81C542 -67 518 -61 448 -51V-135L566 -154C578 -155 580 -161 569 -169L541 -191C522 -182 485 -172 448 -165V-243L570 -265C583 -266 583 -272 573 -279L545 -301C525 -291 500 -284 448 -275V-348L572 -372C584 -374 585 -378 575 -386L540 -414C520 -403 486 -390 448 -381C455 -393 459 -403 461 -419L396 -471L386 -461L429 -377L279 -349V-362C297 -386 308 -397 316 -401C324 -405 326 -410 322 -419L298 -475L607 -516C613 -410 627 -318 655 -219C631 -186 601 -149 566 -113L580 -102C605 -124 625 -144 664 -189C715 -40 809 48 914 88C921 90 925 89 923 76ZM410 -45L279 -28V-332L306 -315C321 -321 371 -334 410 -342V-269L288 -249L330 -217C346 -224 363 -228 410 -237V-160L291 -141L329 -110C343 -117 378 -125 410 -130Z"/>
</svg>