<svg xmlns="http://www.w3.org/2000/svg" viewBox="0 -1000 1000 1000">
	<path fill="#000000" d="M693 -735L576 -848L565 -837L650 -663C657 -649 662 -650 667 -661C678 -682 686 -705 693 -735ZM902 -634L854 -670C813 -650 763 -639 432 -600L479 -561C520 -573 548 -580 898 -621C909 -622 910 -628 902 -634ZM468 -452L460 -470L321 -401V-547L433 -563C442 -564 444 -568 436 -575L400 -604C380 -594 367 -590 321 -582V-658C321 -757 328 -778 335 -787C339 -793 339 -799 333 -804L274 -862L258 -855C275 -813 280 -763 280 -658V-577L81 -549L134 -512C152 -520 187 -528 280 -541V-382L49 -269L115 -241C132 -258 161 -277 280 -342V-88C280 -43 276 -18 271 -6L158 -86L149 -71C218 5 248 41 281 87C289 97 295 97 300 88C315 62 321 20 321 -82V-367ZM948 16C933 -38 918 -127 909 -222H890L884 -9C857 5 825 7 784 4C733 -1 718 -19 722 -104L737 -380C739 -412 742 -420 763 -438C769 -443 770 -448 762 -455L713 -496L684 -454L565 -432L524 -503L508 -498C519 -424 519 -348 503 -240C484 -116 451 -20 341 79L351 92C471 0 512 -71 540 -213C549 -261 556 -317 562 -394L691 -423L681 -113C676 2 701 43 801 45C854 46 903 42 938 31C948 29 950 24 948 16Z"/>
</svg>