<svg xmlns="http://www.w3.org/2000/svg" viewBox="0 -1000 1000 1000">
	<path fill="#000000" d="M964 -211C853 -237 823 -257 711 -427C801 -510 839 -536 860 -541C869 -543 871 -548 868 -557L848 -627L832 -626C821 -588 793 -546 697 -449L639 -538C636 -549 632 -559 628 -568C767 -693 796 -716 839 -739C846 -743 846 -749 840 -755L795 -803L760 -771L410 -730L462 -688C522 -706 576 -716 753 -737L620 -587C611 -605 599 -623 587 -638L573 -628C587 -604 599 -565 606 -523L559 -554L532 -516L345 -489L398 -456C432 -466 455 -471 532 -483C485 -340 431 -244 327 -138L339 -124C450 -217 514 -318 558 -434C574 -478 587 -498 608 -507C629 -379 620 -207 593 -138L485 -196L476 -182C540 -123 577 -85 593 -65C603 -53 608 -53 616 -65C655 -123 674 -288 651 -464L813 -185L963 -192ZM440 -579L398 -608C383 -599 344 -586 302 -579V-664C302 -742 306 -765 319 -780C325 -787 325 -793 316 -801L250 -856L239 -850C256 -807 261 -770 261 -680V-573L69 -547L116 -511C135 -518 195 -531 261 -541V-381L40 -281L107 -253C117 -261 161 -287 261 -342V-91C261 -45 259 -18 255 0L121 -75L113 -61C189 4 214 30 268 91C274 98 280 98 285 88C296 66 302 30 302 -75V-367L402 -424L394 -440L302 -398V-546L436 -566C449 -567 449 -573 440 -579ZM907 -25L865 -64C822 -48 736 -37 344 -24L383 16C422 8 557 0 902 -12C915 -12 917 -16 907 -25Z"/>
</svg>