<svg xmlns="http://www.w3.org/2000/svg" viewBox="0 -1000 1000 1000">
	<path fill="#000000" d="M965 47L964 28C814 23 789 8 673 -289C699 -328 725 -368 747 -412C783 -365 811 -322 831 -287C840 -271 847 -271 850 -284C854 -302 855 -317 854 -346L757 -432C771 -463 785 -486 794 -493C805 -502 805 -507 798 -518L763 -579L749 -573C751 -513 728 -425 661 -317L632 -394C640 -448 650 -533 654 -593L874 -617C894 -619 894 -625 882 -634L840 -667C811 -647 749 -633 656 -624C667 -750 669 -764 678 -781C684 -792 683 -797 675 -804L614 -866L601 -858C620 -823 623 -749 614 -621L409 -601L469 -565C489 -571 534 -580 611 -589C585 -238 542 -116 291 68L299 82C493 -38 586 -153 621 -332L775 61ZM404 -429L398 -446L290 -406V-552L395 -569C411 -572 412 -576 401 -584L366 -610C349 -600 324 -591 290 -585V-698C290 -733 294 -760 303 -776C311 -790 309 -796 302 -802L241 -863L226 -855C241 -812 248 -765 248 -689V-579L69 -550L120 -515C144 -525 172 -533 248 -546V-392L31 -314L98 -280C116 -296 145 -313 248 -358V-76C248 -32 246 -17 242 -8L145 -93L134 -82C195 -7 225 33 249 71C257 84 265 84 270 72C283 42 290 1 290 -82V-376ZM556 -346L490 -413C512 -453 519 -463 527 -468C537 -475 537 -479 531 -488L494 -545L480 -539C485 -475 427 -342 353 -231L366 -222C401 -259 435 -307 480 -392C501 -362 516 -334 531 -305C537 -291 543 -289 548 -301C553 -314 555 -325 556 -346Z"/>
</svg>