<svg xmlns="http://www.w3.org/2000/svg" viewBox="0 -1000 1000 1000">
	<path fill="#000000" d="M950 -387L912 -423C889 -412 857 -404 737 -392L759 -531C761 -544 770 -561 783 -574C790 -580 788 -584 783 -588L737 -627L707 -588L586 -570L614 -708L857 -735C867 -736 868 -739 857 -748L814 -780C788 -765 648 -742 385 -720L440 -681C465 -689 509 -697 567 -703L541 -564L410 -545L457 -511C477 -518 504 -524 536 -528L506 -369L328 -351L374 -315C421 -326 506 -336 949 -375C958 -376 959 -379 950 -387ZM430 -462L419 -478L284 -408V-545L421 -571C431 -572 432 -575 422 -583L387 -613C369 -602 326 -590 284 -581V-701C284 -745 289 -775 296 -789C300 -797 298 -801 293 -805L229 -861L217 -853C234 -808 242 -763 242 -693V-573L53 -541L105 -504C140 -517 172 -525 242 -538V-386L36 -280L95 -254C107 -264 147 -289 242 -346V-115C242 -83 238 -34 232 -9L114 -87L104 -72C169 -12 209 31 248 82C254 90 258 90 263 81C277 53 284 0 284 -120V-372ZM796 -235C803 -241 803 -243 796 -249L750 -290L723 -259L485 -232L459 -284L444 -278C451 -248 455 -215 455 -178V-36C455 -1 450 15 438 34L475 97C482 109 486 109 490 96C493 84 494 73 494 9L782 -9C792 -9 793 -13 783 -22L748 -53L768 -189C770 -204 778 -220 796 -235ZM716 -553L693 -388L546 -373L578 -533ZM729 -223L707 -43L494 -24V-195Z"/>
</svg>