<svg xmlns="http://www.w3.org/2000/svg" viewBox="0 -1000 1000 1000">
	<path fill="#000000" d="M838 -773C846 -778 846 -781 837 -789L793 -824L764 -786L553 -761L516 -825L500 -819C508 -784 513 -748 514 -714L517 -636C518 -605 514 -579 507 -567L543 -521C551 -511 555 -513 558 -522C560 -531 560 -540 559 -563L805 -586C818 -587 821 -593 811 -606L791 -631L810 -735C812 -746 826 -767 838 -773ZM456 -559L420 -589C401 -580 360 -567 323 -558V-651C323 -718 328 -749 339 -771C341 -777 341 -781 335 -786L267 -850L256 -844C276 -794 283 -747 283 -651V-551L97 -518L153 -484C188 -497 225 -506 283 -516V-362L82 -263L146 -239C160 -251 194 -272 283 -323V-81C283 -45 281 -18 276 -1L173 -61L162 -48C228 11 258 42 292 84C299 92 304 92 307 84C321 43 323 27 323 -59V-347L430 -413L422 -430L323 -381V-523L453 -546C463 -547 465 -552 456 -559ZM862 -485C870 -491 870 -498 862 -504L819 -540L788 -500L521 -468L490 -533L472 -526C480 -491 483 -455 483 -406V-114C483 -67 474 -22 461 -5L499 67C506 79 510 79 514 66C519 50 522 20 522 -76V-170L733 -191C746 -192 748 -196 737 -207L705 -236C677 -225 617 -213 522 -202V-303L739 -324C755 -325 756 -331 745 -340L710 -369C682 -355 669 -353 522 -336V-433L800 -465V-84C800 -54 796 -14 792 7L676 -51L668 -37C740 19 758 36 803 85C811 94 815 93 820 87C835 72 841 38 841 -54V-431C841 -457 844 -470 862 -485ZM769 -749L754 -620L557 -595L549 -726Z"/>
</svg>