<svg xmlns="http://www.w3.org/2000/svg" viewBox="0 -1000 1000 1000">
	<path fill="#000000" d="M689 -757L583 -855L570 -846L652 -692C658 -683 662 -683 666 -690C675 -706 683 -729 689 -757ZM911 -670L864 -700C823 -683 731 -666 394 -632L445 -591C507 -608 571 -617 909 -656C920 -657 921 -664 911 -670ZM423 -437L415 -452L309 -404V-541L413 -557C423 -558 424 -564 417 -570L382 -600C366 -590 346 -583 309 -576V-682C309 -739 315 -778 323 -790C329 -797 328 -801 319 -807L255 -858L243 -847C262 -807 268 -751 268 -685V-571L64 -542L121 -504C141 -512 200 -525 268 -536V-386L65 -294L125 -264C140 -277 167 -294 268 -349V-96C268 -50 265 -30 260 -18L151 -88L143 -76C211 -4 245 33 277 74C283 82 288 81 291 76C306 49 309 33 309 -103V-373ZM842 -531L797 -573L766 -536L521 -500L484 -564L471 -557C481 -527 487 -489 488 -459L490 -370C490 -347 488 -334 480 -322L509 -274C515 -266 519 -265 523 -274C526 -280 528 -287 529 -297L623 -309C630 -284 632 -264 632 -210V-55C632 -21 630 -5 622 11L511 -52L502 -38C565 16 603 55 637 95C643 102 648 102 652 95C666 74 671 41 671 -21V-225C671 -247 673 -263 679 -275C684 -283 683 -286 677 -291L655 -311L820 -330C829 -331 829 -335 822 -342L799 -366L816 -472C820 -498 825 -508 840 -517C848 -522 848 -526 842 -531ZM910 -50C913 -79 913 -90 909 -130L734 -239L723 -225C812 -146 829 -130 897 -48C902 -42 909 -41 910 -50ZM559 -195L532 -253L517 -248C517 -210 475 -142 341 -9L349 4C390 -27 447 -76 494 -125C532 -164 549 -179 555 -181C561 -184 563 -186 559 -195ZM775 -501L761 -363L529 -332L525 -466Z"/>
</svg>