<svg xmlns="http://www.w3.org/2000/svg" viewBox="0 -1000 1000 1000">
	<path fill="#000000" d="M870 -741L823 -776L796 -739L468 -702C468 -723 465 -744 461 -761H445C448 -692 426 -622 406 -599L421 -547C426 -533 432 -531 441 -546C458 -576 467 -622 468 -669L795 -704L749 -602L764 -592C815 -673 839 -698 869 -721C880 -730 880 -733 870 -741ZM816 -447C818 -464 818 -482 815 -516L651 -629L642 -618L797 -444C809 -430 814 -432 816 -447ZM593 -580L566 -639L552 -635C556 -587 508 -512 385 -385L395 -373C438 -406 492 -456 540 -507C566 -535 579 -546 589 -554C598 -562 599 -565 593 -580ZM391 -565L358 -590C345 -583 314 -574 286 -569V-673C286 -726 290 -769 295 -782C300 -794 299 -799 293 -804L234 -859L222 -850C241 -807 246 -772 246 -683V-564L61 -537L108 -501C133 -509 170 -518 246 -529V-401L47 -304L109 -282C136 -303 153 -313 246 -368V-102C246 -56 243 -22 237 -8L124 -98L113 -87C176 -15 218 37 247 80C257 95 264 93 269 79C280 48 286 3 286 -66V-391L387 -452L380 -467L286 -421V-535L387 -550C400 -552 401 -558 391 -565ZM951 -39V-55C832 -81 815 -89 731 -215L664 -315L855 -335C868 -336 869 -340 857 -350L819 -380C799 -368 743 -355 631 -344C631 -416 635 -431 643 -444C646 -450 645 -454 638 -461L584 -511L572 -502C581 -483 591 -425 592 -340L336 -315L384 -276C400 -282 491 -296 564 -305C502 -200 395 -75 299 -6L308 9C423 -68 515 -159 592 -271V-77C592 -20 581 26 569 39L604 90C612 101 616 101 621 91C629 75 631 47 631 -25V-312L637 -313L791 -33Z"/>
</svg>