<svg xmlns="http://www.w3.org/2000/svg" viewBox="0 -1000 1000 1000">
	<path fill="#000000" d="M714 -256C691 -190 663 -139 631 -103C585 -119 562 -126 528 -135C545 -174 554 -195 574 -243ZM391 -421L442 -383C470 -392 516 -400 581 -408C579 -373 565 -320 548 -276L346 -261L397 -220C427 -228 471 -235 534 -240C514 -194 497 -160 477 -122C524 -109 545 -101 606 -75C540 -14 465 30 324 78L328 96C452 73 566 23 648 -57C721 -21 786 21 852 73C860 78 863 77 863 66C862 36 860 20 855 -4C797 -35 745 -59 675 -85C705 -125 748 -202 773 -261L932 -275C948 -276 948 -280 936 -290L890 -328C833 -304 790 -295 590 -279C605 -313 620 -341 632 -354C639 -362 640 -365 635 -372L608 -413L911 -443C925 -444 927 -449 915 -459L872 -491C830 -474 798 -469 707 -457C741 -540 758 -564 775 -576C785 -582 786 -586 780 -595L750 -639L868 -652C883 -653 884 -657 872 -668L839 -698C785 -682 690 -665 396 -639L451 -599C474 -607 486 -610 513 -613L549 -454C550 -446 559 -444 565 -453C581 -476 588 -488 596 -507L537 -616L719 -636C719 -600 709 -559 672 -454L396 -425L436 -453L423 -470L305 -403V-529L436 -547C446 -548 447 -551 438 -559L399 -589C380 -579 347 -571 305 -565V-664C305 -725 312 -764 322 -780C327 -787 326 -792 318 -799L249 -863L238 -855C256 -812 265 -749 265 -664V-559L77 -538L129 -497C162 -509 190 -515 265 -525V-380L54 -260L129 -238C142 -250 170 -270 265 -333V-93C265 -43 261 -18 252 3L142 -65L131 -51C199 17 237 59 272 101C280 112 284 111 288 101C299 79 305 34 305 -87V-361ZM678 -765L582 -857L570 -850L641 -695C646 -685 652 -683 656 -692C668 -717 671 -727 678 -765Z"/>
</svg>