<svg xmlns="http://www.w3.org/2000/svg" viewBox="0 -1000 1000 1000">
	<path fill="#000000" d="M817 -790L777 -829L750 -795L433 -765L478 -728C504 -736 547 -742 759 -762L749 -693L469 -664L512 -628C540 -636 580 -643 746 -662L735 -587L452 -554L488 -521C523 -531 573 -539 789 -558C806 -559 807 -564 793 -576L770 -596L792 -721C797 -749 803 -763 816 -772C826 -779 825 -782 817 -790ZM396 -602L369 -627C356 -618 316 -605 280 -597V-692C280 -738 285 -768 296 -782C302 -789 301 -794 293 -802L228 -868L215 -860C235 -811 240 -779 240 -705V-592L56 -569L107 -533C134 -542 178 -551 240 -562V-409L32 -333L99 -299C115 -312 144 -327 240 -373V-126C240 -72 238 -38 231 -20L124 -111L113 -98C173 -31 209 18 244 68C253 82 257 82 263 67C275 39 280 -2 280 -111V-390L376 -438L369 -455L280 -423V-567L393 -584C406 -586 407 -592 396 -602ZM922 -488L879 -528L852 -496L433 -452C434 -474 431 -502 427 -520H411C408 -440 391 -412 360 -385L377 -322C380 -311 386 -310 393 -320C409 -344 423 -378 430 -420L591 -437C597 -415 600 -377 600 -320L494 -310L465 -374L451 -370C456 -343 458 -310 458 -276V-183C458 -143 455 -128 444 -113L478 -58C484 -48 490 -48 493 -60C495 -69 496 -79 496 -137V-277L600 -287V-80C600 -38 595 -3 578 20L614 89C619 98 625 98 629 89C636 72 639 44 639 -46V-290L773 -303C763 -211 751 -142 736 -114L656 -179L646 -167C681 -127 708 -90 737 -47C745 -35 750 -35 756 -47C774 -77 787 -120 810 -266C815 -294 819 -305 836 -319C846 -327 845 -332 835 -339L794 -370L769 -334L639 -323C640 -361 645 -385 653 -393C659 -399 659 -403 651 -410L619 -439L849 -464L817 -378L833 -372C876 -439 894 -457 920 -472C930 -478 929 -481 922 -488Z"/>
</svg>