<svg xmlns="http://www.w3.org/2000/svg" viewBox="0 -1000 1000 1000">
	<path fill="#000000" d="M680 -712C685 -720 683 -725 676 -731L630 -770L618 -760C633 -738 636 -704 635 -655L633 -565C633 -529 629 -512 622 -495L649 -462C656 -453 659 -453 662 -465C666 -483 668 -506 668 -559L670 -652C670 -685 673 -699 680 -712ZM596 -618L560 -644C532 -633 470 -619 396 -607V-676L544 -698C557 -700 557 -704 548 -712L514 -739C492 -728 442 -712 396 -705V-730C396 -771 400 -793 407 -809C410 -816 409 -821 404 -825L355 -865L344 -853C352 -824 356 -795 356 -749V-700L264 -688C279 -720 287 -733 294 -739C300 -744 301 -748 298 -755L268 -810L254 -805C255 -761 236 -698 180 -578L77 -564L123 -529C156 -539 207 -550 356 -570V-508L259 -494L230 -530L216 -523C225 -500 229 -475 229 -455V-398C229 -382 226 -365 221 -352L245 -315C251 -306 255 -307 257 -319C259 -332 260 -345 260 -375V-460L356 -476C356 -394 352 -377 341 -359L375 -313C382 -305 386 -305 389 -314C394 -328 396 -351 396 -453V-481L496 -497C489 -447 483 -422 472 -394L421 -419L415 -407C444 -383 462 -364 479 -338C484 -330 490 -329 495 -339C507 -363 514 -389 530 -464C537 -495 541 -505 551 -512C560 -518 560 -523 554 -529L523 -560L494 -529L396 -514V-575L593 -603C605 -604 606 -610 596 -618ZM823 -791C828 -800 826 -805 821 -809L762 -858L752 -847C766 -821 773 -795 773 -698V-504C773 -439 771 -399 764 -378L681 -419L673 -407C715 -377 748 -349 781 -309C785 -303 791 -303 795 -312C807 -337 812 -377 812 -473V-666C812 -742 813 -772 823 -791ZM895 -140L851 -174C801 -158 665 -141 543 -130V-200L755 -222C768 -223 767 -228 758 -235L720 -264C674 -249 618 -239 543 -230V-305C563 -310 583 -315 599 -319C643 -330 667 -335 689 -339C699 -341 700 -345 691 -352L647 -386L638 -383C634 -367 482 -313 223 -272L224 -257C316 -265 420 -280 503 -297V-226L231 -196L273 -162C302 -171 379 -183 503 -196V-127L97 -91L147 -53C178 -62 352 -85 503 -96V-33C503 8 500 26 492 40L376 -4L369 10C418 40 457 66 505 104C515 111 517 110 522 101C534 77 543 47 543 -41V-99L892 -126C904 -127 905 -133 895 -140ZM356 -602L205 -581C220 -603 238 -635 255 -669L279 -651C300 -660 328 -666 356 -670Z"/>
</svg>