<svg xmlns="http://www.w3.org/2000/svg" viewBox="0 -1000 1000 1000">
	<path fill="#000000" d="M790 -759C798 -764 798 -768 790 -775L747 -813L719 -776L510 -747L474 -812L460 -806C469 -785 481 -723 482 -688L486 -538C486 -497 482 -473 475 -458L504 -415C512 -405 519 -406 521 -416C524 -432 525 -445 525 -466L771 -503C787 -505 787 -511 777 -519L752 -542L765 -696C769 -741 773 -751 790 -759ZM441 -586L409 -610C399 -603 377 -597 296 -584V-688C296 -721 303 -763 312 -779C317 -789 316 -794 309 -800L243 -853L230 -845C245 -805 254 -756 254 -680V-578L78 -550L128 -512C149 -521 167 -525 254 -539V-390L46 -288L119 -264C132 -277 167 -298 254 -349V-83C254 -43 251 -20 246 -9L127 -78L118 -64C177 -17 228 35 261 74C270 84 275 83 280 74C290 54 296 15 296 -74V-374L437 -459L430 -474L296 -410V-546L437 -571C452 -574 452 -578 441 -586ZM961 32L960 14C844 18 769 3 635 -80V-211L829 -234C846 -235 846 -239 834 -249L799 -280C768 -268 724 -257 635 -244V-361L873 -385C888 -386 889 -389 875 -399L829 -432C798 -416 712 -401 341 -361L390 -322C428 -334 469 -343 594 -357V-106L477 -178C498 -225 503 -234 507 -237C515 -242 516 -247 508 -256L463 -300L454 -295C463 -250 421 -105 297 56L309 66C375 5 428 -68 465 -151L787 71ZM725 -740L711 -528L524 -503L522 -592L678 -618C694 -621 694 -625 683 -633L653 -655C633 -646 599 -636 521 -625L518 -715Z"/>
</svg>