<svg xmlns="http://www.w3.org/2000/svg" viewBox="0 -1000 1000 1000">
	<path fill="#000000" d="M818 -788L772 -835L761 -831C765 -812 665 -765 376 -680L380 -663C396 -666 413 -669 430 -673L468 -531C471 -520 476 -520 483 -528C497 -545 506 -561 514 -581L454 -679C490 -687 528 -696 564 -705L598 -562C601 -549 606 -547 613 -555C628 -573 638 -589 646 -610L583 -711C636 -724 685 -738 720 -750C766 -766 797 -774 814 -777C824 -779 824 -783 818 -788ZM418 -572L383 -602C363 -593 331 -584 289 -576V-654C289 -746 293 -768 302 -781C307 -788 307 -793 296 -802L237 -853L225 -842C243 -801 247 -770 247 -654V-571L55 -540L112 -504C141 -515 160 -520 247 -533V-397L39 -283L105 -254C119 -266 151 -289 247 -355V-97C247 -57 243 -20 239 -7L122 -80L112 -65C169 -18 210 27 252 79C258 86 263 85 267 79C280 60 289 22 289 -78V-383L390 -454L381 -471L289 -421V-539L415 -559C426 -561 427 -565 418 -572ZM944 52L942 34C814 17 796 11 658 -113C699 -159 716 -183 745 -234C764 -268 772 -277 791 -288C801 -294 801 -299 794 -305L747 -351L715 -314L532 -285C542 -308 552 -332 561 -357L918 -401C929 -402 930 -406 923 -412L879 -450C859 -438 743 -416 574 -394C581 -413 588 -424 597 -434C602 -439 601 -444 598 -450L580 -478L838 -515C850 -517 851 -521 842 -528L802 -561C789 -552 757 -541 708 -532C771 -635 787 -654 804 -667C810 -671 811 -676 807 -684L778 -747L760 -745C762 -708 736 -638 673 -527L391 -488L437 -449C456 -457 478 -462 542 -472C542 -451 536 -422 526 -388L322 -362L371 -324C391 -331 455 -343 514 -351C466 -205 374 -59 296 15L308 29C378 -32 443 -112 500 -219C514 -211 534 -192 606 -115C543 -42 453 23 339 83L347 97C464 48 560 -9 634 -86L788 75ZM711 -274C686 -224 660 -182 626 -140C577 -189 554 -218 554 -228L507 -233C513 -244 519 -257 525 -270L555 -245C582 -254 635 -264 711 -274Z"/>
</svg>