<svg xmlns="http://www.w3.org/2000/svg" viewBox="0 -1000 1000 1000">
	<path fill="#000000" d="M685 -761L605 -861L591 -851L641 -705C644 -696 650 -695 656 -702C665 -713 676 -735 685 -761ZM899 -693C908 -698 907 -702 897 -711L853 -752L824 -715L476 -670C475 -685 470 -703 465 -722L450 -718C454 -629 437 -594 409 -574L420 -518C422 -508 428 -506 437 -516C468 -557 479 -592 479 -638L830 -681L798 -586L815 -579C859 -662 873 -678 899 -693ZM840 -487C841 -505 840 -522 837 -543L668 -630L662 -618L825 -481C834 -473 839 -476 840 -487ZM606 -579L589 -641H577C562 -594 518 -521 418 -440L428 -426C463 -449 507 -483 550 -525C578 -552 589 -561 598 -563C606 -564 609 -569 606 -579ZM401 -587L368 -613C357 -606 332 -596 299 -590V-667C299 -720 302 -763 308 -776C313 -787 312 -793 306 -798L247 -853L235 -844C254 -801 259 -766 259 -677V-584L66 -556L112 -521C147 -532 173 -537 259 -550V-411L39 -284L99 -258C115 -274 170 -315 259 -375V-106C259 -60 257 -18 252 -4L147 -81L137 -67C188 -16 211 12 263 78C273 90 279 89 284 75C294 43 299 7 299 -70V-401L402 -474L392 -487L299 -434V-557L397 -573C409 -575 409 -580 401 -587ZM907 -390L862 -421C836 -405 737 -386 539 -367C548 -380 555 -392 565 -407C590 -446 593 -450 602 -455C608 -459 610 -464 607 -470L570 -531L558 -523C554 -438 467 -311 358 -208L370 -194C418 -233 467 -278 509 -330L577 -338V-123C577 -25 569 6 556 39L590 97C596 107 601 107 606 91C610 78 613 37 613 -50V-96L895 -126C908 -127 909 -132 898 -139L850 -168C813 -151 739 -141 613 -129V-218L835 -247C848 -248 849 -254 838 -261L789 -288C755 -272 722 -266 613 -250V-341L904 -375C916 -376 918 -382 907 -390Z"/>
</svg>