<svg xmlns="http://www.w3.org/2000/svg" viewBox="0 -1000 1000 1000">
	<path fill="#000000" d="M877 -675L836 -705C812 -696 780 -689 720 -681C740 -756 746 -773 754 -783C760 -791 759 -797 753 -802L698 -857L687 -849C699 -818 702 -777 684 -678L523 -660L521 -720C520 -740 522 -776 527 -784C532 -792 530 -797 524 -801L470 -846L458 -834C467 -823 482 -772 484 -720L486 -656L359 -643L411 -609C433 -616 450 -619 487 -623C487 -597 484 -572 478 -563L508 -522C516 -511 520 -511 523 -525C525 -537 526 -566 524 -626L677 -642C671 -611 663 -573 653 -530L671 -527C688 -571 702 -611 711 -645L876 -663C886 -664 886 -668 877 -675ZM953 -293V-311C854 -320 808 -336 735 -402L607 -521C609 -524 613 -527 618 -529C626 -532 626 -536 620 -545L583 -599L569 -593C579 -552 509 -411 302 -218L313 -207C424 -291 498 -369 592 -500L804 -277ZM399 -457L391 -473L286 -418V-541L392 -557C402 -558 404 -563 395 -570L361 -597C342 -588 323 -582 286 -576V-657C286 -748 290 -765 300 -781C304 -788 303 -793 296 -799L233 -855L222 -848C242 -791 245 -755 245 -657V-571L43 -544L96 -507C124 -516 160 -523 245 -536V-395L37 -285L98 -259C114 -274 129 -283 245 -356V-84C245 -51 241 -18 236 -5L107 -103L97 -89C168 -15 223 48 251 86C259 97 263 97 267 86C282 42 286 -5 286 -78V-383ZM734 -335L700 -365C667 -349 603 -333 443 -314L474 -281C506 -291 559 -302 732 -322C742 -323 743 -327 734 -335ZM770 -212C777 -219 777 -221 769 -228L727 -264L703 -228L475 -196L442 -251L429 -244C437 -221 442 -186 443 -147L448 -39C450 2 446 21 435 39L470 92C476 101 481 101 485 91C489 82 490 63 489 22L752 -8C763 -9 764 -12 754 -21L727 -49L744 -159C748 -186 753 -196 770 -212ZM704 -191L690 -37L487 -14L481 -163Z"/>
</svg>