<svg xmlns="http://www.w3.org/2000/svg" viewBox="0 -1000 1000 1000">
	<path fill="#000000" d="M628 -665L541 -703L534 -692L609 -615C614 -609 618 -609 622 -617C626 -626 628 -639 628 -665ZM945 -396L943 -411C861 -413 838 -422 756 -468L635 -537C687 -595 720 -641 763 -708C783 -739 793 -753 807 -762C815 -767 815 -771 808 -777L768 -817L741 -783L397 -731L450 -692C477 -704 517 -715 730 -746C700 -685 661 -621 603 -554C544 -589 485 -630 467 -649L403 -635V-625C449 -614 469 -604 581 -530C501 -445 417 -380 312 -313L323 -298C362 -318 386 -332 417 -352C423 -332 426 -311 428 -285L435 -185C436 -167 433 -152 423 -135L459 -87C465 -80 469 -80 472 -89C476 -102 478 -117 475 -156L587 -172V-52L320 -8L375 32C409 21 469 8 768 -52L840 48C845 56 851 56 856 48C862 37 865 17 867 -24L717 -147L707 -137L749 -77L626 -58V-176L793 -201C804 -203 805 -208 798 -216L777 -239L795 -319C798 -334 801 -340 809 -347C816 -353 815 -357 807 -363L771 -392L753 -366L626 -343C626 -372 629 -391 637 -408C640 -416 639 -420 633 -425L582 -465L571 -457C584 -424 587 -384 587 -337L464 -316L436 -363C496 -402 557 -451 611 -511L841 -362ZM406 -584L368 -616C350 -606 318 -596 289 -589V-654C289 -730 295 -766 304 -782C308 -788 307 -793 300 -799L231 -852L219 -844C241 -795 248 -767 248 -654V-582L54 -551L100 -513C119 -520 178 -536 248 -548V-409L34 -288L98 -263C114 -278 134 -292 248 -368V-84C248 -39 245 -12 240 0L132 -64L123 -50C181 2 221 45 256 89C263 97 268 97 271 89C283 64 289 21 289 -78V-395L395 -469L385 -486L289 -433V-553L403 -569C415 -570 417 -574 406 -584ZM754 -331L740 -227L626 -210V-309ZM587 -206L473 -189L466 -282L587 -303Z"/>
</svg>