<svg xmlns="http://www.w3.org/2000/svg" viewBox="0 -1000 1000 1000">
	<path fill="#000000" d="M401 -447L394 -464L276 -417V-562L391 -577C408 -579 408 -585 394 -595L360 -620C348 -610 313 -601 276 -595V-695C276 -731 283 -768 293 -785C298 -793 297 -797 292 -802L226 -869L215 -862C231 -816 237 -746 237 -686V-590L52 -566L96 -533C122 -541 156 -547 237 -558V-401L31 -320L92 -285C121 -307 159 -327 237 -366V-100C237 -59 233 -30 226 -12L136 -84L124 -71C182 -5 207 30 237 77C242 85 248 84 252 76C267 45 276 17 276 -76V-384ZM893 -336L854 -376L815 -341L478 -301V-366L813 -398C833 -399 833 -407 818 -418L780 -443C753 -428 697 -418 478 -395V-458L765 -491C782 -492 783 -498 769 -511L749 -529L763 -652C765 -669 770 -680 789 -694C799 -701 799 -706 792 -713L755 -751L720 -717L572 -696C598 -757 607 -773 620 -784C629 -792 630 -798 626 -804L582 -865L568 -860C574 -828 571 -783 540 -693L481 -685L446 -766L434 -760C439 -738 442 -705 442 -675V-403C442 -336 436 -318 420 -295L455 -231C461 -220 468 -221 471 -233C473 -241 476 -257 478 -270L828 -310C791 -107 753 14 726 42L660 -19L648 -8C682 38 704 73 719 105C723 113 731 115 736 109C781 50 813 -29 865 -279C868 -294 877 -309 892 -318C901 -323 902 -327 893 -336ZM714 -185L673 -239L662 -233C668 -208 669 -178 664 -154L657 -116C656 -111 653 -104 648 -98L558 -85V-167C558 -187 561 -202 569 -212C574 -218 574 -223 568 -229L528 -271L513 -265C519 -248 521 -226 521 -200V-81L433 -69L428 -127C427 -143 427 -156 432 -166C435 -173 434 -179 429 -183L383 -219L373 -211C383 -190 390 -166 393 -137L397 -100C400 -73 394 -63 378 -48L410 -25C417 -20 422 -20 427 -27C432 -34 444 -39 471 -43L641 -66L655 -31C659 -21 666 -19 672 -30C677 -40 682 -55 685 -72L697 -131C699 -143 706 -163 712 -168C719 -174 719 -179 714 -185ZM725 -686L710 -519L478 -484V-558L677 -583C693 -585 694 -591 681 -600L648 -623C625 -610 582 -599 478 -588V-655Z"/>
</svg>