<svg xmlns="http://www.w3.org/2000/svg" viewBox="0 -1000 1000 1000">
	<path fill="#000000" d="M453 -614L401 -709L388 -703L416 -575C418 -566 424 -564 430 -571C441 -583 447 -593 453 -614ZM668 -618L624 -693L613 -686L632 -579C634 -569 638 -568 646 -577C655 -588 662 -600 668 -618ZM620 -705L599 -746L587 -744C587 -717 553 -665 514 -627C518 -646 521 -667 524 -688C529 -722 536 -748 544 -764C549 -774 548 -778 542 -783L491 -826L481 -820C496 -784 496 -691 477 -610C461 -547 447 -509 401 -444L413 -434C453 -478 477 -515 494 -560C531 -526 557 -498 582 -467C590 -456 594 -458 597 -470C600 -482 600 -497 599 -517L500 -576C502 -581 503 -584 504 -588C572 -659 601 -684 614 -692C622 -697 622 -701 620 -705ZM382 -577L350 -603C337 -595 305 -584 279 -578V-634C279 -706 282 -752 294 -774C298 -781 297 -787 291 -792L234 -848L221 -838C239 -796 242 -773 242 -682V-573L78 -547L126 -516C146 -524 193 -535 242 -543V-376L47 -277L103 -254C119 -269 147 -288 242 -345V-114C242 -48 240 -35 236 -24L135 -98L124 -85C186 -22 223 23 251 65C258 74 262 73 266 63C275 38 279 3 279 -120V-368L360 -419L353 -433L279 -395V-548L377 -563C391 -565 392 -569 382 -577ZM920 -447L878 -483L857 -455L822 -451C828 -465 830 -485 830 -504L716 -582C717 -585 718 -587 719 -591C799 -660 828 -679 845 -685C852 -687 854 -692 851 -698L825 -753L817 -752C804 -711 776 -671 727 -623C732 -643 736 -666 741 -693C750 -750 753 -762 759 -772C764 -780 764 -784 759 -788L706 -835L696 -828C706 -801 711 -768 697 -653C686 -564 667 -517 600 -446L610 -436C664 -486 690 -511 710 -563C753 -522 776 -493 809 -451L399 -411C399 -435 396 -466 392 -487H377C379 -418 356 -360 327 -331L346 -278C349 -269 354 -268 361 -278C381 -304 391 -338 397 -382L578 -398C585 -369 579 -328 557 -266L372 -245L414 -210C433 -220 446 -223 548 -234C505 -113 440 -27 304 74L314 86C475 -21 543 -105 589 -238L747 -256C715 -103 682 -19 659 10L571 -68L559 -60C598 -15 630 30 655 74C659 81 664 82 670 74C697 41 729 -28 774 -204C784 -243 792 -256 805 -267C816 -276 815 -280 808 -286L769 -318L740 -285L598 -269C614 -322 623 -342 632 -354C640 -364 640 -367 633 -373L605 -400L850 -424L810 -329L823 -323C876 -395 896 -414 920 -429C930 -436 929 -439 920 -447Z"/>
</svg>