<svg xmlns="http://www.w3.org/2000/svg" viewBox="0 -1000 1000 1000">
	<path fill="#000000" d="M961 -443V-458C852 -471 814 -486 729 -613C768 -641 806 -662 825 -669C832 -672 834 -675 830 -685L809 -734L798 -731C801 -711 771 -675 716 -634C701 -656 687 -684 672 -705C716 -739 749 -761 768 -772C776 -777 777 -781 773 -789L744 -844L734 -839C730 -800 723 -783 659 -727C639 -761 630 -788 631 -796L577 -806L573 -796C596 -779 603 -768 642 -704C684 -638 756 -522 809 -434ZM451 -637L377 -697L368 -688L429 -587C436 -576 443 -576 446 -589C450 -604 451 -615 451 -637ZM574 -752C581 -760 581 -763 574 -769L542 -799L517 -768L354 -744L395 -717C417 -724 462 -734 520 -743C480 -627 414 -500 276 -361L289 -347C454 -494 513 -622 554 -721C560 -734 565 -742 574 -752ZM850 -344C839 -353 830 -360 820 -368C813 -363 791 -357 777 -355C745 -353 737 -363 737 -396V-463C737 -473 745 -492 753 -502C759 -509 758 -513 751 -519L716 -548L697 -516L638 -502L614 -565L601 -560C620 -410 608 -362 539 -277L552 -269C626 -340 643 -374 644 -477L703 -489V-390C703 -334 716 -325 777 -322C794 -321 823 -323 849 -330C858 -333 858 -337 850 -344ZM367 -604L338 -630C326 -623 295 -613 265 -607V-676C265 -752 268 -772 277 -786C283 -795 282 -798 274 -805L214 -858L203 -850C222 -810 229 -732 229 -687V-603L52 -583L102 -548C121 -555 175 -567 229 -574V-447L38 -329L96 -304C123 -328 163 -361 229 -410V-83C229 -48 227 -34 221 -8L104 -86L94 -72C158 -14 195 25 236 77C241 83 245 83 249 76C259 55 265 12 265 -90V-437L348 -501L339 -516L265 -471V-577L362 -589C374 -590 375 -597 367 -604ZM553 -501L516 -530L497 -499L424 -484L447 -458C462 -465 481 -469 502 -472L493 -379L427 -366L400 -408L389 -401C395 -380 397 -350 395 -327L390 -266C389 -251 377 -229 364 -219L392 -191C398 -186 402 -187 406 -193C415 -211 422 -215 441 -218L500 -227C488 -113 476 -53 456 -13L359 -97L349 -87C388 -41 421 7 449 54C455 64 459 65 465 55C498 -2 518 -77 533 -207C535 -223 540 -236 548 -245C556 -254 556 -257 549 -263L514 -287L495 -258L419 -243L428 -336L534 -350C545 -351 547 -355 538 -365L522 -382L536 -457C538 -466 543 -477 552 -484C560 -489 560 -495 553 -501ZM841 63C841 37 837 12 830 -17L701 -116C720 -146 733 -173 754 -227C761 -244 768 -254 778 -260C789 -267 789 -271 779 -278L738 -308L718 -281L566 -259L600 -229C618 -237 654 -244 716 -254C707 -214 695 -176 672 -136L581 -205L572 -192C598 -169 634 -137 659 -114C614 -46 558 9 477 67L486 80C590 9 638 -29 685 -89C745 -30 779 7 827 66C836 78 841 75 841 63Z"/>
</svg>