<svg xmlns="http://www.w3.org/2000/svg" viewBox="0 -1000 1000 1000">
	<path fill="#000000" d="M649 -650L617 -675C607 -669 584 -660 564 -655C569 -719 576 -767 587 -788C591 -797 590 -801 583 -807L536 -852L523 -844C534 -823 536 -767 529 -648L448 -634C448 -730 449 -740 454 -756C458 -769 457 -772 452 -777L401 -821L391 -811C403 -789 412 -726 412 -629L328 -616L368 -587C381 -592 397 -597 412 -600V-491L306 -476L348 -447C385 -458 454 -470 640 -497C654 -500 655 -505 646 -512L619 -534C610 -529 575 -518 554 -513L562 -624L645 -637C659 -639 659 -642 649 -650ZM375 -543L341 -566C334 -562 298 -551 266 -544V-690C266 -740 270 -765 278 -781C282 -790 281 -796 274 -802L210 -854L199 -847C216 -806 226 -739 226 -681V-537L74 -511L120 -478C140 -484 184 -495 226 -503V-339L44 -235L112 -218C127 -232 147 -247 226 -302V-117C226 -47 222 -8 216 5L121 -67L111 -52C163 1 202 45 233 84C243 96 247 97 253 84C263 63 266 30 266 -62V-330L371 -407L364 -420L266 -364V-511L370 -530C384 -533 384 -537 375 -543ZM958 35V17C847 -4 829 -13 749 -198C768 -253 786 -316 804 -392C810 -418 815 -430 825 -443C831 -451 831 -455 827 -461L788 -520L909 -545C925 -548 925 -553 913 -561L875 -586C852 -570 809 -555 701 -534C713 -578 721 -612 731 -661C741 -711 751 -733 762 -753C768 -764 768 -768 762 -776L716 -838L702 -832C715 -774 691 -509 577 -290L592 -277C614 -315 627 -340 643 -374C652 -363 659 -350 679 -297L713 -208C679 -103 638 -19 566 71L575 83C641 24 689 -45 734 -156L811 40ZM591 -416L557 -445L532 -415L409 -389L387 -430L374 -425C379 -397 380 -382 380 -328V-83C380 -38 376 -15 359 12L394 77C402 91 407 91 412 76C416 64 417 33 417 -46V-158L520 -177C535 -180 534 -184 525 -192L504 -211C498 -205 478 -197 417 -184V-265L523 -283C536 -284 535 -288 525 -297L502 -316C496 -310 480 -302 417 -291V-359L537 -383V-87C537 -42 534 1 530 20L455 -29L447 -17C477 14 507 49 537 87C546 98 551 98 557 84C569 57 574 8 574 -85V-363C574 -381 577 -390 590 -401C597 -407 596 -412 591 -416ZM527 -619L519 -507L448 -496V-605ZM767 -516C772 -460 760 -363 727 -252C704 -308 678 -377 674 -393L655 -398C668 -429 679 -460 691 -498Z"/>
</svg>