<svg xmlns="http://www.w3.org/2000/svg" viewBox="0 -1000 1000 1000">
	<path fill="#000000" d="M797 -801L750 -837L725 -803L482 -767L448 -834L429 -828C441 -779 446 -749 447 -732L454 -614C456 -576 454 -567 445 -546L480 -491C486 -481 491 -480 493 -491C495 -500 496 -509 496 -519L768 -559C781 -561 782 -564 772 -574L749 -597L773 -736C777 -757 782 -770 796 -782C805 -790 804 -795 797 -801ZM950 32V17C839 -3 810 -24 728 -151C750 -192 770 -236 787 -281C802 -322 817 -352 830 -365C839 -374 840 -378 832 -384L795 -415L767 -384L588 -348L629 -322C658 -331 696 -339 764 -350C749 -295 729 -239 705 -186L676 -230C663 -250 653 -271 646 -290L596 -296L592 -285C615 -267 639 -237 659 -204L689 -154C653 -79 611 -15 568 31V-129L625 -156L619 -174L568 -157V-426L909 -470C922 -472 921 -477 913 -483L871 -517C840 -500 693 -473 315 -433L395 -493L386 -506L282 -443V-564L406 -580C418 -582 419 -585 409 -593L374 -621C352 -612 323 -605 282 -599V-664C282 -739 284 -753 297 -788C300 -796 299 -799 295 -802L234 -854L222 -846C238 -807 242 -756 242 -664V-594L79 -573L130 -538C153 -545 177 -550 242 -560V-419L47 -299L116 -284C137 -300 164 -321 242 -379V-113C242 -59 238 -19 233 -6L129 -84L120 -69C170 -14 215 39 247 83C254 93 258 93 262 83C276 48 282 10 282 -107V-408L299 -420L341 -394C351 -396 360 -398 384 -402V-94L289 -61L344 -28C370 -46 404 -62 530 -114V-59C530 -4 526 12 513 31L545 87C550 95 553 95 558 87C562 80 564 74 566 62C613 25 664 -40 710 -120L809 39ZM730 -767L709 -590L495 -548L490 -623L671 -657C686 -660 686 -664 676 -674L651 -698C629 -686 576 -672 488 -656L483 -731ZM530 -143L421 -107V-203L504 -220C520 -223 520 -228 509 -236L487 -253C472 -245 451 -238 421 -232V-303L506 -321C521 -324 522 -329 512 -338L493 -354C476 -345 459 -340 421 -332V-408L530 -422Z"/>
</svg>