<svg xmlns="http://www.w3.org/2000/svg" viewBox="0 -1000 1000 1000">
	<path fill="#000000" d="M939 25L938 6C824 2 800 -16 723 -159L680 -239C699 -280 718 -326 740 -381C762 -440 769 -455 781 -462C785 -464 785 -469 781 -475L748 -529L880 -548C894 -550 895 -554 883 -563L840 -593C815 -578 748 -558 589 -537C606 -579 624 -628 644 -687C662 -741 666 -751 682 -766C687 -770 687 -773 684 -777L627 -858L612 -848C628 -756 572 -531 453 -325L470 -313C496 -350 519 -387 541 -430C550 -418 561 -398 573 -374L640 -239C573 -112 519 -37 428 52L440 67C542 -20 601 -84 660 -200L778 38ZM539 -579L498 -612C481 -600 430 -587 350 -577L409 -684C416 -697 435 -712 453 -721C459 -724 460 -729 453 -735L407 -781L374 -736L149 -709L197 -671C230 -681 264 -688 371 -701L307 -573L60 -547L111 -508C128 -513 172 -523 215 -529V-116L66 -72L127 -34C147 -51 254 -91 388 -135C388 -56 381 -13 365 19L404 88C411 100 416 98 419 86C425 63 428 37 428 -27V-147L513 -177L509 -197L428 -176V-553L538 -567C546 -568 546 -573 539 -579ZM388 -411L365 -437C350 -429 320 -421 254 -413V-534L388 -549ZM723 -525C725 -477 700 -367 659 -278L599 -389C590 -407 580 -436 579 -454L555 -459C561 -473 567 -487 574 -501ZM388 -286L367 -312C354 -303 327 -295 254 -284V-382L388 -398ZM388 -165L254 -127V-253L388 -271Z"/>
</svg>