<svg xmlns="http://www.w3.org/2000/svg" viewBox="0 -1000 1000 1000">
	<path fill="#000000" d="M375 -770L284 -857L272 -848L340 -695C345 -683 353 -683 359 -697C366 -716 371 -738 375 -770ZM295 -564L235 -624L222 -616L264 -514C270 -499 277 -498 283 -512C289 -528 291 -535 295 -564ZM968 52V35C846 19 803 -20 748 -135L720 -190C751 -262 772 -340 790 -421C796 -444 801 -461 809 -467C817 -473 817 -477 810 -485L771 -530L901 -546C917 -548 917 -555 904 -566L864 -595C843 -581 803 -571 646 -546C661 -599 678 -667 691 -731C694 -746 702 -765 713 -773C722 -779 723 -783 716 -792L657 -864L643 -857C670 -786 601 -468 524 -306L540 -292C560 -328 566 -340 588 -385C593 -376 597 -367 601 -359L676 -197C635 -100 578 -2 485 98L499 109C588 31 654 -52 701 -147L798 59ZM588 -687L545 -718C490 -696 345 -674 64 -656L127 -614C153 -623 203 -632 393 -651C399 -618 390 -583 358 -505L195 -488L165 -552L150 -547C158 -509 161 -472 161 -382V-135C161 -40 159 -23 143 -3L176 64C184 78 190 78 194 61C197 47 199 20 199 -80V-354L224 -336C238 -340 266 -344 315 -349L309 -273L287 -270L262 -313L248 -306C254 -287 256 -270 256 -240V-178C256 -161 253 -146 246 -137L272 -85C281 -68 288 -72 289 -90C290 -95 290 -109 290 -125L408 -134C422 -135 421 -143 412 -151L394 -169L405 -220C410 -245 415 -255 421 -259C431 -266 430 -271 421 -278L384 -308L365 -278L341 -275L351 -354L485 -367L477 -149C472 -43 467 -27 460 -5L361 -73L350 -59C406 -7 423 13 465 74C472 84 477 83 483 74C505 37 509 14 514 -118L526 -451C527 -485 531 -492 545 -502C553 -509 552 -515 545 -520L499 -553L478 -518L389 -507C418 -572 433 -591 442 -595C451 -599 452 -603 448 -609L419 -653L584 -671C600 -673 601 -678 588 -687ZM490 -486L486 -385L453 -409C439 -400 403 -392 354 -386C358 -411 362 -427 365 -430C371 -436 371 -440 363 -447L339 -471ZM317 -382L199 -370V-457L312 -469C321 -447 321 -423 317 -382ZM743 -527C752 -471 735 -353 696 -244L647 -343C624 -391 620 -401 618 -416L603 -421C614 -449 627 -486 637 -513ZM374 -249L363 -164L290 -154V-243Z"/>
</svg>