<svg xmlns="http://www.w3.org/2000/svg" viewBox="0 -1000 1000 1000">
	<path fill="#000000" d="M558 -518L498 -578L488 -571L505 -530L430 -518L492 -609C517 -645 521 -649 529 -654C540 -661 540 -667 534 -676L503 -721L491 -715C496 -700 494 -681 474 -636L411 -623L453 -712C470 -747 475 -754 483 -760C490 -766 491 -772 486 -781L454 -829L440 -824C444 -786 436 -747 394 -648C385 -624 375 -616 350 -607L376 -585C381 -580 386 -581 392 -585C404 -593 429 -601 461 -611C450 -592 433 -566 419 -548C400 -522 391 -517 366 -511L324 -561L311 -555L327 -514L266 -502L320 -600C332 -620 347 -643 355 -649C363 -655 364 -661 360 -669L331 -716L318 -709C323 -692 316 -662 298 -623L249 -610L288 -700C297 -720 310 -743 316 -749C322 -755 322 -760 317 -766L282 -811L270 -804C276 -776 267 -735 236 -645C227 -618 215 -605 193 -600L216 -576C224 -568 229 -569 235 -575C241 -581 258 -588 287 -597C279 -581 270 -562 257 -539C245 -516 231 -500 201 -494L220 -468C227 -459 229 -459 237 -464C255 -475 277 -483 334 -497L345 -468C349 -458 356 -458 361 -468C365 -476 367 -485 369 -497L385 -482C391 -476 395 -475 402 -478C418 -487 446 -495 514 -512L533 -474C540 -460 545 -460 550 -474C555 -489 557 -502 558 -518ZM511 -80L481 -108C453 -95 421 -89 174 -60V-573C174 -633 177 -657 183 -670C185 -675 184 -679 180 -683L126 -735L113 -727C127 -701 134 -645 134 -569V-126C134 -67 131 -53 111 -39L153 -4C157 -1 161 -1 166 -6C185 -29 192 -34 230 -38L505 -67C516 -68 518 -74 511 -80ZM916 -496L875 -528C846 -511 796 -499 632 -478C633 -526 635 -587 636 -638C684 -651 745 -670 779 -682C827 -699 836 -702 856 -706C868 -708 868 -714 861 -722L820 -765L810 -761C798 -740 766 -719 633 -662L599 -744L583 -740C592 -681 593 -615 591 -488C586 -185 559 -78 398 78L410 90C577 -41 618 -161 631 -446L738 -460V-109C738 -33 733 -14 719 8L757 84C762 95 769 93 772 81C778 57 779 37 779 -71V-465L913 -481C923 -482 925 -489 916 -496ZM538 -188L482 -244L470 -237L491 -188L399 -170L459 -252C488 -291 497 -303 503 -307C513 -314 514 -319 508 -327L483 -364L470 -359C474 -347 471 -339 443 -280L383 -266L419 -325C444 -366 451 -375 456 -379C463 -385 464 -388 460 -395L440 -420L533 -430C546 -431 547 -435 538 -443L506 -468C484 -453 438 -442 178 -419L205 -391C218 -394 250 -400 273 -404C270 -389 262 -372 237 -321C226 -298 207 -276 190 -266L207 -236C211 -229 215 -229 223 -234C231 -239 248 -244 277 -253C267 -235 258 -220 247 -201C232 -172 215 -158 186 -148L206 -122C211 -115 217 -115 226 -120C241 -129 274 -140 324 -156L339 -125C346 -112 350 -112 355 -125C359 -133 361 -143 361 -153L376 -139C383 -133 386 -132 393 -137C405 -145 436 -154 500 -171L515 -137C520 -125 528 -123 532 -137C537 -156 538 -171 538 -188ZM432 -255C423 -240 409 -219 400 -207C385 -185 377 -177 356 -166L307 -217L298 -210L315 -173L249 -159L308 -247C333 -285 336 -288 344 -293C353 -299 354 -303 349 -313L330 -350L316 -345C316 -329 311 -315 289 -276L235 -267L270 -324C281 -342 292 -359 302 -367C308 -372 310 -376 306 -383L293 -406L418 -419C419 -397 411 -368 387 -322C367 -281 361 -274 339 -261L362 -237C368 -231 372 -231 378 -235C387 -241 403 -247 432 -255Z"/>
</svg>