<svg xmlns="http://www.w3.org/2000/svg" viewBox="0 -1000 1000 1000">
	<path fill="#000000" d="M371 -638C376 -643 376 -647 371 -652L328 -690L304 -653L187 -633L159 -706L139 -700C146 -665 151 -623 152 -567L160 -259C161 -204 154 -151 144 -133L181 -67C185 -59 191 -60 195 -68C201 -80 203 -96 201 -168L288 -178L319 -111C324 -100 331 -101 335 -112C342 -133 344 -151 346 -264L351 -571C352 -614 354 -621 371 -638ZM915 -739L871 -773C795 -750 759 -744 342 -712L397 -670C436 -679 468 -684 557 -692C560 -626 561 -569 560 -521L457 -507L423 -566L406 -561C417 -528 427 -463 427 -424V-152C427 -75 424 -51 411 -26L446 43C453 56 459 56 462 40C465 25 466 14 466 -29L766 -57L803 19C807 27 813 27 816 19C827 -12 832 -37 839 -157L854 -464C856 -507 861 -522 880 -534C888 -539 889 -543 878 -552L834 -590L805 -551L701 -538V-704L913 -724C924 -725 926 -731 915 -739ZM661 -534L601 -526C604 -575 604 -641 602 -696L661 -701ZM310 -618L306 -293C305 -216 304 -211 298 -197L272 -218C257 -212 245 -209 200 -200L196 -413L294 -427C303 -428 304 -432 297 -439L270 -465C255 -457 240 -452 195 -444L192 -597ZM813 -516L799 -264L778 -283C713 -256 701 -266 701 -332V-501ZM559 -485C551 -336 521 -258 466 -165V-473ZM798 -235L795 -178C791 -112 787 -90 777 -72L737 -102C709 -89 655 -81 466 -62V-136L473 -131C549 -243 588 -329 599 -489L661 -497V-313C661 -242 676 -227 732 -228C765 -229 783 -231 798 -235Z"/>
</svg>