<svg xmlns="http://www.w3.org/2000/svg" viewBox="0 -1000 1000 1000">
	<path fill="#000000" d="M635 -213L560 -275L550 -267L602 -160C609 -145 615 -143 621 -157C631 -179 634 -193 635 -213ZM726 -330C722 -249 717 -186 711 -143L468 -120L484 -302ZM639 -421L568 -480L558 -470L609 -374C616 -363 620 -363 625 -371C634 -386 637 -399 639 -421ZM735 -527C733 -469 731 -414 727 -367L487 -337L501 -502ZM299 -652L296 -283C295 -210 290 -177 281 -159L256 -174C237 -164 211 -159 176 -156L172 -401L269 -418C281 -420 282 -424 273 -431L243 -455C227 -444 199 -436 172 -432L168 -634ZM336 -316L379 -281C400 -288 421 -293 445 -297L438 -215C431 -131 425 -118 398 -98L431 -63C436 -58 441 -57 446 -65C458 -83 465 -85 539 -91L706 -107C697 -45 689 -12 680 15L583 -39L576 -26C619 14 679 75 692 93C699 102 704 101 708 93C728 57 742 -14 751 -110L862 -120C876 -121 877 -126 864 -137L826 -167C811 -159 785 -153 754 -147C760 -214 764 -278 768 -334L900 -349C915 -351 915 -356 904 -365L866 -395C847 -385 821 -379 770 -372C773 -409 775 -445 776 -476C778 -528 781 -536 799 -548C808 -554 808 -559 799 -567L753 -602L720 -561L498 -535L471 -585L455 -580C461 -537 462 -494 457 -433L448 -333L336 -321L342 -600C343 -643 348 -660 362 -674C371 -683 371 -686 362 -693L320 -726L287 -686L162 -668L131 -736L115 -730C123 -697 129 -628 129 -586L132 -257C133 -148 129 -136 115 -120L153 -47C159 -35 164 -35 168 -48C174 -68 176 -83 176 -124L276 -137L305 -86C311 -77 316 -77 320 -87C329 -112 333 -140 335 -254ZM845 -697L804 -729C779 -715 663 -689 499 -671C507 -687 514 -701 523 -720C542 -759 554 -774 561 -779C569 -785 570 -790 564 -798L515 -859L502 -853C512 -802 482 -681 349 -481L362 -472C405 -521 451 -587 489 -653L515 -633C559 -646 615 -656 843 -683C854 -684 854 -690 845 -697Z"/>
</svg>