<svg xmlns="http://www.w3.org/2000/svg" viewBox="0 -1000 1000 1000">
	<path fill="#000000" d="M914 -375L870 -408C835 -396 761 -383 611 -369C651 -398 691 -429 721 -455C734 -466 756 -480 773 -485C784 -489 786 -493 781 -504L758 -564L746 -562C733 -531 685 -473 536 -361L496 -359V-432L630 -444C640 -445 641 -449 633 -457L602 -487C571 -475 546 -469 496 -464C497 -488 500 -499 507 -511C510 -516 509 -521 504 -525L474 -548L725 -571C739 -572 739 -578 728 -586L703 -607L729 -733C736 -758 742 -769 759 -783C767 -790 767 -794 759 -800L713 -835L685 -799L312 -763L282 -828L263 -820C273 -787 279 -750 281 -710L285 -626C287 -587 285 -578 273 -557L310 -502C318 -489 327 -491 327 -535L444 -546C453 -524 456 -503 456 -460L230 -439L276 -404C300 -410 360 -420 456 -429V-355L78 -320L125 -282C163 -291 220 -299 483 -323C447 -298 407 -274 356 -247L339 -279L323 -272C326 -260 329 -247 331 -232C252 -192 147 -142 47 -102L54 -86C149 -119 245 -156 334 -201C336 -186 337 -173 337 -161L340 -55C341 -21 337 -1 326 24L362 80C367 87 371 88 374 78C378 65 380 48 380 30L616 11L646 64C653 76 659 75 664 64C677 33 682 9 686 -33L703 -195C705 -213 712 -233 727 -242C736 -248 737 -253 727 -260L682 -294L657 -261L389 -227C451 -261 508 -295 558 -330L911 -362C922 -363 923 -368 914 -375ZM689 -764L661 -601L327 -568L323 -631L630 -661C645 -662 646 -667 636 -677L608 -703C576 -694 491 -680 322 -664L320 -729ZM664 -226L646 -62C642 -23 636 -9 624 -2L590 -29C561 -19 523 -15 380 -2L377 -83L600 -109C616 -111 617 -116 606 -125L574 -151C527 -134 483 -123 376 -115L373 -192Z"/>
</svg>