<svg xmlns="http://www.w3.org/2000/svg" viewBox="0 -1000 1000 1000">
	<path fill="#000000" d="M946 -130C846 -142 791 -168 711 -250L635 -325L885 -345C899 -346 900 -351 888 -360L840 -393C804 -380 724 -367 599 -354C605 -385 608 -408 613 -443L812 -463C822 -464 824 -469 815 -475L772 -505C749 -496 703 -485 618 -477C624 -505 629 -515 634 -521C640 -527 641 -531 633 -538L604 -560L737 -572C747 -573 748 -577 738 -586L708 -613L724 -729C728 -752 731 -760 750 -770C758 -774 759 -778 752 -784L713 -819L677 -786L341 -747L303 -806L287 -804C299 -752 303 -720 305 -691L310 -628C312 -597 309 -575 300 -563L335 -508C341 -499 347 -499 349 -511C350 -516 350 -524 350 -539L382 -542C391 -521 397 -493 400 -456L197 -439L253 -399C277 -408 305 -412 400 -422L404 -339L118 -316L171 -278C192 -284 260 -293 359 -302C303 -232 178 -135 42 -73L49 -59C160 -105 244 -151 312 -204L411 -114L232 -23L289 0C301 -12 389 -71 490 -131V-57C490 -12 488 13 483 28L387 -21L378 -11C429 28 464 60 493 92C504 105 510 105 516 90C525 66 527 27 527 -53V-109C638 -54 685 -28 738 11C747 18 752 15 751 6C749 -12 737 -48 724 -68L536 -126C600 -169 638 -184 665 -193C671 -195 672 -198 667 -205L634 -249L623 -246C620 -226 601 -208 527 -148V-194C527 -227 530 -249 537 -255C542 -260 542 -264 537 -267L485 -302L475 -296C486 -278 490 -255 490 -193V-153L426 -121C429 -140 426 -153 419 -174L327 -217C361 -246 391 -274 420 -307L605 -322L788 -107L945 -117ZM688 -752L673 -605L349 -570L344 -625L632 -661C649 -663 648 -669 636 -677L604 -699C571 -687 521 -677 341 -655L336 -715ZM577 -474L434 -461C433 -480 436 -499 441 -505C445 -512 445 -517 437 -523L408 -544L573 -558C579 -540 581 -519 577 -474ZM574 -439C572 -411 568 -381 563 -352L440 -342L435 -425Z"/>
</svg>