<svg xmlns="http://www.w3.org/2000/svg" viewBox="0 -1000 1000 1000">
	<path fill="#000000" d="M292 -653L142 -750L134 -738L266 -587C272 -580 277 -580 281 -588C287 -601 291 -623 292 -653ZM870 -142L834 -178C807 -169 775 -162 650 -150V-224L798 -240C809 -241 808 -247 800 -253L766 -280C744 -271 700 -262 650 -256V-324L789 -341C800 -342 801 -346 792 -354L760 -381C732 -370 696 -362 650 -354V-421L816 -443C826 -444 828 -449 818 -456L783 -482C764 -475 736 -466 646 -453C650 -471 653 -495 652 -507L599 -548L789 -568C799 -569 801 -575 791 -583L765 -605L776 -715C779 -746 789 -772 805 -781C810 -784 811 -790 804 -796L760 -828L736 -788L431 -753L400 -819L385 -812C394 -786 398 -760 400 -720L404 -635C406 -598 403 -582 396 -567L430 -507C436 -496 443 -498 444 -511C444 -515 445 -524 444 -532L471 -535C462 -477 388 -383 272 -273L281 -260C320 -288 376 -339 415 -379V-203C415 -167 412 -149 400 -121L437 -60C443 -51 449 -52 450 -61C452 -70 453 -86 453 -115L485 -94C527 -106 593 -118 868 -131C875 -131 876 -136 870 -142ZM963 16L961 -2C821 20 732 15 450 -48C357 -69 283 -84 231 -92C286 -203 284 -224 225 -294C280 -406 290 -422 315 -439C320 -442 320 -447 315 -452L269 -492L243 -457L59 -433L95 -396C116 -403 141 -408 240 -423L196 -295C237 -233 242 -191 202 -95C154 -100 121 -98 67 -90L102 -50C151 -71 205 -71 386 -31C622 21 710 43 803 78ZM740 -754L727 -598L443 -564L440 -624L700 -656C707 -657 708 -663 701 -669L667 -695C653 -686 613 -676 439 -654L436 -721ZM625 -451L461 -430C497 -467 505 -474 512 -477C516 -478 518 -483 515 -489L494 -537L570 -545ZM610 -147L453 -133V-417L477 -396C497 -402 525 -405 610 -416V-349L468 -332L511 -299C528 -305 565 -313 610 -319V-251L467 -236L512 -203C534 -209 569 -215 610 -220Z"/>
</svg>