<svg xmlns="http://www.w3.org/2000/svg" viewBox="0 -1000 1000 1000">
	<path fill="#000000" d="M827 -666C833 -670 833 -675 827 -680L777 -723L745 -681L580 -666C639 -754 657 -776 675 -785C683 -789 684 -794 679 -800L631 -855L618 -848C624 -828 614 -790 548 -664L431 -652C439 -671 446 -697 450 -721L334 -823L325 -812L416 -652L242 -636L205 -707L189 -699C197 -660 207 -597 209 -573L219 -432C222 -387 219 -370 211 -355L252 -294C259 -284 265 -286 266 -298C267 -309 266 -319 265 -337L780 -381C790 -382 792 -385 784 -392L756 -418L786 -584C795 -635 803 -652 827 -666ZM721 -262C726 -264 727 -269 721 -274L677 -313L649 -281L336 -250L311 -301L292 -295C299 -265 304 -217 305 -186L310 -58C312 -9 307 14 298 30L335 91C342 102 346 100 349 92C353 82 355 54 354 26L613 4L644 74C648 82 652 82 658 74C665 63 670 33 678 -44L693 -186C699 -242 704 -253 721 -262ZM750 -646L716 -415L511 -395V-625ZM471 -392L263 -373L247 -601L471 -622ZM655 -245L643 -111C637 -55 631 -26 621 -11L585 -38C552 -29 472 -17 353 -7L349 -96L589 -121C598 -122 598 -127 593 -131L558 -164C535 -155 493 -146 348 -130L344 -216ZM678 -554C685 -558 684 -565 679 -570L637 -615L622 -605C629 -584 623 -562 554 -432L567 -422C641 -523 661 -544 678 -554ZM415 -481L317 -583L307 -574L384 -420C388 -413 392 -412 397 -421C405 -434 410 -453 415 -481Z"/>
</svg>