<svg xmlns="http://www.w3.org/2000/svg" viewBox="0 -1000 1000 1000">
	<path fill="#000000" d="M691 -739L584 -848L567 -836L648 -662C654 -648 660 -648 665 -658C679 -688 685 -703 691 -739ZM903 -620L856 -658C804 -634 761 -626 447 -592L499 -549C515 -558 552 -569 899 -605C913 -606 914 -611 903 -620ZM447 -565L406 -595C392 -587 366 -581 329 -576V-622C329 -720 331 -740 348 -776C351 -782 350 -786 343 -792L274 -853L262 -843C282 -797 287 -765 287 -624V-571L104 -546L155 -506C191 -517 225 -524 277 -531C227 -416 146 -290 48 -179L60 -170C138 -240 223 -340 287 -447V-133C287 -40 281 -13 264 14L299 90C305 101 309 101 313 90C322 65 329 22 329 -74V-459L427 -331C434 -321 441 -322 443 -333C447 -355 448 -374 445 -407L329 -484V-538L445 -552C457 -553 456 -559 447 -565ZM938 7C919 -55 907 -107 892 -194H873V-21C851 -16 824 -14 792 -14C734 -15 721 -28 722 -86L728 -375C729 -410 735 -427 759 -448C767 -455 767 -459 755 -469L710 -506L684 -466L569 -447L541 -517L523 -511C535 -447 530 -364 516 -248C500 -106 439 -18 341 60L349 70C479 -18 525 -82 554 -216C563 -260 569 -322 571 -413L687 -427L679 -68C678 -13 698 26 769 32C826 37 879 37 926 28C939 26 942 22 938 7Z"/>
</svg>