<svg xmlns="http://www.w3.org/2000/svg" viewBox="0 -1000 1000 1000">
	<path fill="#000000" d="M507 -494L414 -613L403 -604L478 -410C481 -401 487 -400 491 -411C500 -433 507 -467 507 -494ZM946 21C930 -21 918 -69 905 -153L888 -150L879 -1C851 13 796 19 756 14C689 5 685 -11 685 -151V-365C731 -328 784 -284 837 -234C843 -228 848 -228 849 -237C851 -256 849 -286 837 -322L685 -388V-415C741 -457 773 -483 801 -508C828 -532 851 -545 862 -548C875 -551 876 -555 872 -567L851 -633H836C814 -585 785 -547 685 -443V-618C685 -719 687 -747 703 -775C708 -784 708 -787 702 -794L639 -860L625 -852C643 -805 645 -778 645 -621V-108C645 20 663 43 747 52C818 60 895 51 941 38C948 36 950 32 946 21ZM418 -365C420 -382 419 -408 415 -428L305 -477V-546L396 -559C408 -561 409 -567 399 -574L367 -598C356 -590 338 -585 305 -580V-654C305 -723 311 -760 325 -783C332 -794 331 -799 324 -804L251 -858L240 -848C260 -802 265 -773 265 -657V-576L69 -553L114 -514C147 -523 167 -527 261 -540C219 -430 145 -285 44 -160L59 -147C123 -211 212 -330 265 -439V-193C265 -65 255 -8 238 21L280 96C284 104 290 105 294 93C302 67 305 37 305 -152V-455L405 -361C411 -354 417 -354 418 -365ZM588 -733C592 -741 591 -747 586 -753L525 -820L513 -811C529 -770 532 -751 532 -576C532 -497 529 -415 523 -360L337 -250L399 -220C418 -244 462 -284 520 -328C500 -151 449 -69 330 67L343 82C445 -15 538 -120 558 -308C565 -370 570 -486 572 -622C573 -685 578 -715 588 -733Z"/>
</svg>