<svg xmlns="http://www.w3.org/2000/svg" viewBox="0 -1000 1000 1000">
	<path fill="#000000" d="M641 -688C646 -696 645 -699 637 -705L590 -740L579 -732C590 -710 595 -683 595 -641V-561C595 -529 592 -512 581 -492L614 -451C621 -443 625 -444 628 -452C633 -468 634 -489 634 -560V-625C634 -673 635 -679 641 -688ZM788 -780C791 -788 790 -793 783 -798L727 -846L715 -836C733 -801 740 -780 740 -678V-469C740 -422 738 -401 734 -390L647 -432L640 -419C695 -375 721 -353 754 -322C759 -317 765 -319 768 -326C777 -349 779 -377 779 -451V-656C779 -734 781 -766 788 -780ZM552 -626L513 -656C501 -647 450 -632 390 -621V-736C454 -759 479 -766 508 -773C519 -776 519 -781 511 -788L466 -828L456 -822C456 -802 322 -739 158 -692L160 -675C238 -690 300 -706 350 -722V-615L101 -576L152 -539C191 -552 222 -559 321 -575C275 -509 203 -432 101 -348L113 -333C213 -404 265 -449 350 -540V-468C350 -412 348 -392 336 -364L370 -316C376 -308 382 -310 385 -319C389 -335 390 -351 390 -459V-535L514 -457C523 -451 528 -452 527 -465C526 -487 524 -498 517 -522L390 -562V-586L549 -612C561 -613 562 -619 552 -626ZM937 -14V-32C821 -40 762 -63 702 -113L559 -233L846 -261C859 -262 859 -269 850 -276L801 -309C789 -297 698 -283 520 -265C518 -319 522 -328 533 -346C539 -356 538 -362 530 -368L473 -408L462 -398C475 -372 480 -350 480 -261L123 -224L177 -182C244 -195 351 -211 441 -221C350 -117 210 -20 67 46L75 63C245 -4 374 -89 480 -207V-101C480 -55 471 14 460 30L498 96C505 107 510 108 514 99C518 89 520 57 520 -60V-229L524 -231L768 7Z"/>
</svg>