<svg xmlns="http://www.w3.org/2000/svg" viewBox="0 -1000 1000 1000">
	<path fill="#000000" d="M352 -757L302 -844L290 -839C302 -766 244 -604 44 -380L55 -367C120 -426 174 -486 219 -548V-148C219 -69 214 -44 198 -5L232 64C237 75 243 75 247 66C258 40 260 29 260 -64V-611C277 -636 292 -661 307 -687C322 -714 333 -729 349 -739C357 -744 357 -748 352 -757ZM937 12C917 -53 905 -101 888 -189L869 -187L873 -11C825 12 785 15 721 9C674 5 656 -22 656 -105V-255C656 -289 659 -300 668 -312C673 -318 672 -324 665 -331L646 -351L802 -367C817 -368 819 -373 807 -384L781 -409L808 -645C813 -685 819 -696 836 -707C845 -713 846 -719 837 -727L787 -770L763 -731L608 -707L651 -673C671 -679 695 -684 766 -694L756 -583L614 -562L651 -528C675 -536 691 -539 754 -547L741 -401L442 -364L435 -492L567 -517C580 -520 580 -522 570 -531L536 -559C521 -549 477 -534 434 -526L429 -634C514 -702 567 -739 582 -745C589 -748 591 -755 586 -762L541 -827L529 -822C534 -789 516 -751 419 -662L388 -716L374 -707C385 -662 389 -641 392 -572L398 -442C400 -400 395 -371 384 -343L420 -277C428 -263 433 -264 437 -277C443 -295 444 -301 443 -331L506 -338C513 -187 457 -57 283 74L292 88C443 -1 514 -105 541 -229C550 -270 553 -280 558 -285C567 -294 566 -301 560 -310L536 -340L608 -348C613 -330 616 -310 616 -288V-92C616 -23 637 39 701 49C751 58 846 52 927 34C938 32 941 24 937 12Z"/>
</svg>