<svg xmlns="http://www.w3.org/2000/svg" viewBox="0 -1000 1000 1000">
	<path fill="#000000" d="M959 -204V-221C846 -235 812 -259 693 -420L899 -445C913 -447 914 -452 903 -460L858 -489C825 -477 764 -466 549 -435C560 -461 570 -487 580 -514L810 -544C824 -545 825 -549 814 -558L775 -587C754 -577 712 -566 591 -549C599 -576 605 -602 611 -630L847 -659C859 -660 861 -663 851 -672L805 -708C776 -690 733 -679 617 -664C633 -738 649 -768 657 -774C664 -779 664 -784 658 -791L601 -858L586 -849C598 -821 597 -789 584 -707C581 -687 578 -671 574 -659L374 -636L422 -598C460 -609 498 -617 568 -626C562 -597 554 -570 546 -544L410 -528L453 -490C473 -497 499 -503 535 -508C525 -480 514 -453 503 -429L373 -411C373 -413 372 -416 372 -418L279 -473V-537L416 -554C427 -555 428 -560 418 -567L381 -595C364 -587 341 -581 279 -571V-634C279 -717 287 -751 302 -772C306 -777 305 -780 299 -786L236 -854L224 -844C235 -806 240 -758 240 -636V-566L52 -540L101 -503C123 -511 171 -522 224 -530C183 -392 131 -283 37 -146L50 -134C126 -226 181 -312 240 -453V-156C240 -34 235 -11 220 17L255 94C261 108 266 107 270 94C276 77 279 37 279 -96V-444L357 -349C362 -343 367 -343 369 -351C374 -368 376 -377 374 -395L404 -374C419 -380 453 -387 487 -394C439 -294 390 -230 297 -137L308 -124C399 -195 478 -283 535 -400L660 -417L823 -191ZM836 -163L795 -190C763 -177 718 -167 635 -158V-248L741 -263C754 -265 755 -269 745 -276L714 -299C697 -291 682 -287 635 -280C636 -321 640 -334 647 -341C651 -345 651 -349 646 -354L594 -398L585 -389C593 -370 597 -347 597 -275L463 -258L503 -225C529 -233 542 -236 597 -244V-155L372 -132L417 -94C448 -106 545 -122 597 -126C597 -11 592 3 576 26L616 103C622 115 627 114 631 101C634 87 635 70 635 -31V-129L831 -150C845 -151 846 -156 836 -163Z"/>
</svg>