<svg xmlns="http://www.w3.org/2000/svg" viewBox="0 -1000 1000 1000">
	<path fill="#000000" d="M943 -17L905 -54C888 -45 839 -37 780 -31L793 -445C794 -488 799 -502 812 -516C819 -524 819 -528 813 -533L765 -572L742 -537L639 -521L644 -623L879 -649C895 -650 896 -654 883 -665L845 -696C820 -685 746 -667 645 -654C650 -756 653 -768 666 -790C673 -802 673 -810 666 -816L606 -864L595 -858C607 -819 608 -791 604 -650L398 -629L452 -592C493 -602 545 -611 603 -618L600 -516L507 -500L467 -554L456 -547C470 -502 475 -473 477 -391L486 -10L339 1L394 40C439 28 537 16 940 -5C950 -6 952 -9 943 -17ZM420 -407L303 -475V-536L411 -549C425 -550 427 -555 415 -565L380 -592C365 -585 335 -576 303 -570V-618C303 -724 309 -759 325 -773C331 -778 330 -782 320 -790L252 -848L242 -842C259 -782 262 -751 262 -620V-565L84 -545L138 -506C156 -515 187 -522 260 -531C228 -411 149 -283 48 -157L62 -147C125 -210 207 -317 262 -418V-132C262 -35 255 -9 237 21L285 99C293 113 298 112 299 99C302 81 303 64 303 -73V-447L403 -340C409 -333 415 -334 416 -342C420 -360 422 -390 420 -407ZM752 -502L740 -29L525 -13L523 -116L694 -132C705 -133 706 -138 697 -146L667 -175C639 -163 619 -158 522 -147L520 -234L685 -256C697 -257 696 -263 687 -271L661 -296C637 -285 612 -280 519 -269L517 -350L685 -372C695 -373 696 -377 687 -386L658 -414C637 -401 624 -396 516 -383L514 -468Z"/>
</svg>