<svg xmlns="http://www.w3.org/2000/svg" viewBox="0 -1000 1000 1000">
	<path fill="#000000" d="M364 -683L263 -774L251 -766L332 -623C339 -611 344 -612 349 -621C356 -634 360 -649 364 -683ZM928 16V-10C781 -14 748 -27 558 -213L844 -237C855 -238 856 -243 846 -250L800 -284C783 -273 710 -259 520 -240V-309L739 -327C751 -328 752 -332 741 -341L700 -372C673 -360 605 -345 520 -337V-410L782 -431C794 -432 795 -436 785 -445L743 -480C718 -467 681 -456 595 -448C625 -493 643 -513 658 -522C664 -526 665 -530 660 -538L637 -576L911 -599C923 -600 924 -606 914 -613L862 -649C822 -631 744 -618 653 -609C676 -636 704 -673 722 -698C729 -707 744 -720 758 -726C765 -729 765 -733 759 -741L719 -802L703 -798C704 -757 687 -712 623 -606L581 -603L590 -725C592 -748 599 -773 611 -789C615 -795 614 -799 606 -805L545 -851L530 -839C544 -817 549 -795 548 -761L542 -600L462 -594L464 -698C465 -738 470 -762 481 -783C484 -789 482 -793 475 -798L412 -844L399 -836C413 -813 421 -766 423 -727L426 -591L99 -567L154 -521C177 -529 280 -545 389 -554L610 -574C610 -536 598 -504 566 -446L443 -435C446 -442 448 -454 451 -477L376 -548L362 -541L417 -433L220 -414L261 -375C292 -384 402 -399 477 -407V-334L281 -318L318 -283C347 -289 412 -299 477 -305V-237L147 -210L193 -170C252 -182 317 -191 434 -203C352 -116 247 -44 90 30L100 45C247 -8 377 -86 477 -186V-75C477 -44 464 -1 452 22L493 98C500 111 507 111 510 98C516 77 520 49 520 -72V-210L527 -209L744 27Z"/>
</svg>