<svg xmlns="http://www.w3.org/2000/svg" viewBox="0 -1000 1000 1000">
	<path fill="#000000" d="M811 -773C822 -779 823 -783 811 -793L769 -828L736 -784L539 -753L496 -824L483 -819C491 -795 498 -762 499 -730L502 -642C503 -601 499 -586 488 -570L523 -523C534 -510 540 -512 541 -525C542 -535 543 -549 543 -564L791 -593C802 -594 804 -599 793 -609L768 -631L787 -733C791 -757 797 -766 811 -773ZM436 -586L396 -618C374 -604 351 -596 304 -587V-671C304 -733 308 -767 322 -787C329 -795 328 -802 318 -809L252 -860L241 -853C261 -803 263 -772 263 -674V-582L61 -553L112 -514C141 -523 172 -530 255 -543C221 -436 161 -321 35 -144L49 -135C146 -243 213 -337 263 -435V-132C263 -53 255 -20 237 7L275 73C282 85 287 84 291 73C302 39 304 10 304 -79V-441L379 -350C386 -342 391 -342 396 -354C401 -366 404 -388 402 -415L304 -476V-550L434 -571C446 -572 448 -576 436 -586ZM945 -185L900 -214C866 -196 843 -189 763 -177V-481L902 -496C914 -497 915 -503 904 -511L857 -540C822 -524 764 -514 369 -469L417 -433C436 -439 451 -442 491 -448V-138L336 -116L394 -74C447 -91 585 -119 723 -137V-86C723 -28 718 2 705 19L742 88C748 99 755 98 757 88C762 59 763 44 763 -51V-142L942 -169C959 -172 959 -176 945 -185ZM742 -749L729 -625L543 -596L539 -720ZM723 -172L531 -143V-221L689 -251C701 -254 702 -258 691 -266L658 -291C642 -282 599 -269 531 -255V-331L686 -361C697 -364 697 -368 689 -375L656 -399C641 -388 620 -381 531 -364V-453L723 -477Z"/>
</svg>