<svg xmlns="http://www.w3.org/2000/svg" viewBox="0 -1000 1000 1000">
	<path fill="#000000" d="M885 -617L841 -655L815 -627L707 -613L727 -686C735 -715 742 -722 766 -730C774 -733 775 -738 769 -745L732 -786L699 -751L408 -714L457 -678C475 -684 493 -688 521 -692C494 -514 442 -376 328 -263L337 -252C488 -371 526 -492 571 -698L693 -714L675 -648C667 -618 662 -608 643 -598L675 -564C679 -560 686 -560 690 -565C697 -575 703 -578 729 -582L815 -595C801 -507 763 -379 729 -316L651 -348L643 -336C683 -310 705 -292 732 -262C738 -255 744 -255 748 -262C792 -341 813 -393 845 -528C858 -582 860 -589 883 -604C890 -608 890 -612 885 -617ZM734 -518L696 -561L672 -540L531 -523L566 -492C583 -497 599 -499 659 -506C642 -479 625 -454 606 -432L524 -464L516 -448C540 -434 564 -420 586 -407C549 -367 503 -330 443 -288L453 -274C517 -310 569 -343 615 -391C651 -372 662 -366 696 -342C702 -338 707 -339 707 -346C707 -365 704 -378 698 -395L641 -418C655 -433 668 -448 685 -470C702 -493 716 -502 731 -506C737 -507 738 -513 734 -518ZM446 -578L404 -610C383 -598 344 -586 305 -578V-671C305 -740 308 -758 321 -782C324 -787 323 -793 318 -797L248 -854L240 -846C259 -795 265 -765 265 -673V-573L76 -545L117 -510C141 -517 179 -525 265 -539V-537C229 -418 151 -278 54 -167L68 -156C151 -241 220 -336 265 -430V-124C265 -39 261 -10 245 15L286 92C292 103 297 102 300 91C303 79 305 38 305 -65V-467L382 -373C387 -367 391 -367 394 -374C400 -388 403 -413 402 -431L305 -494V-544L444 -566C452 -567 453 -572 446 -578ZM946 5L906 -31C880 -23 855 -20 793 -17L812 -165C819 -214 824 -225 843 -234C849 -237 848 -242 844 -246L801 -286L776 -256L465 -223L433 -272L418 -267C426 -244 433 -202 434 -152L437 5L311 13L350 51C432 35 648 21 943 16C952 16 954 12 946 5ZM774 -220L756 -15L676 -10L689 -126C691 -147 695 -163 703 -173C707 -178 705 -182 701 -185L675 -209ZM651 -138L640 -8L582 -4V-122C582 -144 584 -157 590 -164C593 -167 592 -173 588 -176L566 -197L649 -207C653 -187 654 -168 651 -138ZM547 -3L471 3L466 -187L534 -194C540 -172 542 -155 543 -118Z"/>
</svg>