<svg xmlns="http://www.w3.org/2000/svg" viewBox="0 -1000 1000 1000">
	<path fill="#000000" d="M688 -761L585 -844L574 -836L649 -716C655 -706 661 -705 667 -713C679 -729 684 -743 688 -761ZM910 -709L868 -741C808 -716 692 -699 397 -676L447 -637C493 -650 598 -663 907 -693C923 -694 925 -697 910 -709ZM818 -602L768 -639L749 -609L535 -581L506 -623L495 -618C502 -591 506 -566 506 -538V-478C506 -461 502 -444 496 -432L526 -391C533 -382 538 -382 541 -391C543 -399 543 -411 543 -427L789 -455C802 -456 803 -460 793 -469L776 -485L792 -545C798 -568 803 -577 816 -584C828 -590 828 -594 818 -602ZM447 -562L411 -589C387 -578 338 -562 305 -555V-675C305 -717 310 -757 317 -768C324 -778 324 -782 314 -790L248 -842L239 -833C256 -792 263 -747 263 -687V-550L94 -528L136 -492C160 -499 198 -507 263 -518V-509C229 -414 154 -294 63 -188L76 -175C141 -240 214 -332 263 -419V-110C263 -56 259 -31 245 0L279 67C285 80 292 80 299 66C303 58 305 26 305 -57V-460L383 -382C390 -375 396 -375 397 -386C399 -406 399 -419 397 -437L305 -484V-524L441 -546C458 -549 458 -554 447 -562ZM748 -262L708 -289L686 -261L569 -245L544 -284L532 -278C538 -254 539 -240 539 -213L538 -138C538 -115 536 -107 526 -93L553 -50C561 -37 565 -37 570 -51C574 -60 575 -76 575 -103L738 -118C753 -119 754 -123 744 -133L723 -154L728 -208C730 -225 733 -233 746 -241C757 -248 758 -255 748 -262ZM892 -383L852 -415L823 -380L459 -340L431 -399L416 -393C421 -365 423 -341 424 -280L426 -89C426 -45 423 -30 409 -8L444 61C452 75 456 75 461 61C465 50 467 26 466 -38L462 -308L828 -346C828 -198 806 -35 790 5L708 -45L698 -34C741 9 764 35 795 75C805 87 809 87 815 76C840 34 861 -108 868 -293C869 -333 875 -351 891 -363C902 -371 902 -374 892 -383ZM756 -579L739 -486L543 -459V-550ZM693 -230L688 -147L575 -132L574 -215Z"/>
</svg>