<svg xmlns="http://www.w3.org/2000/svg" viewBox="0 -1000 1000 1000">
	<path fill="#000000" d="M567 -628L501 -720L488 -713L532 -575C535 -564 541 -564 547 -574C559 -593 564 -607 567 -628ZM283 -619L201 -717L186 -707L247 -563C251 -553 258 -553 263 -562C275 -581 281 -597 283 -619ZM808 -681L788 -748H774C764 -718 718 -672 635 -617C640 -637 644 -660 648 -686C657 -749 663 -763 673 -773C679 -779 680 -782 674 -789L622 -846L605 -840C619 -796 619 -714 594 -606C578 -540 539 -481 477 -428L494 -418C563 -473 600 -512 622 -572L789 -452C797 -446 803 -449 803 -461C803 -472 800 -491 795 -513L634 -588C752 -655 782 -668 798 -669C808 -670 810 -673 808 -681ZM475 -671L462 -726L448 -728C439 -698 425 -677 354 -616C360 -639 365 -663 369 -692C376 -740 384 -759 392 -766C398 -771 398 -776 392 -782L336 -838L321 -829C339 -782 332 -682 315 -613C295 -528 262 -461 210 -402L226 -391C283 -446 312 -488 336 -551L442 -445C450 -437 455 -438 457 -450C459 -465 459 -477 457 -498L342 -570L346 -582C433 -641 451 -651 467 -654C476 -656 478 -660 475 -671ZM958 -11V-27C806 -30 774 -44 676 -133L562 -237L779 -262C794 -263 795 -268 784 -276L740 -307C713 -286 659 -280 517 -265C518 -313 521 -332 530 -344C536 -352 535 -357 529 -362L504 -384L815 -417L774 -330L788 -322C837 -393 869 -417 901 -427C911 -430 913 -437 904 -445L860 -486L820 -448L188 -383C189 -403 189 -429 188 -446H167C160 -366 143 -319 110 -300L135 -244C140 -234 145 -234 152 -245C165 -268 180 -309 185 -350L472 -381C477 -363 479 -333 479 -261L205 -232L261 -196C279 -204 345 -215 434 -224C348 -123 197 -23 66 41L74 58C237 -14 385 -109 479 -212V-86C479 -38 467 13 454 24L498 95C504 104 510 104 513 94C516 84 517 74 517 3V-232L533 -234L759 10Z"/>
</svg>