<svg xmlns="http://www.w3.org/2000/svg" viewBox="0 -1000 1000 1000">
	<path fill="#000000" d="M569 -345L443 -320L441 -392L527 -408C540 -411 540 -414 532 -424L512 -446C501 -439 482 -432 441 -425L439 -495L527 -511C541 -514 542 -517 530 -528L507 -550C497 -543 479 -537 439 -529L437 -600L569 -620ZM729 -328L637 -419L624 -410L701 -268C710 -253 715 -254 720 -267C726 -283 729 -302 729 -328ZM608 -513V-575C608 -621 611 -628 623 -638C634 -647 633 -654 625 -660L586 -689L564 -657L473 -641C508 -740 516 -759 531 -781C539 -792 537 -796 528 -803L469 -847L459 -834C477 -800 472 -743 440 -635L426 -632L390 -685L378 -679C390 -651 399 -604 401 -544L408 -314L320 -295L365 -261C389 -272 423 -281 523 -304C473 -218 391 -116 299 -37L310 -20C405 -87 485 -175 569 -295V-123C569 -54 568 -28 563 -3L458 -54L450 -40C496 -5 532 30 573 78C583 90 588 90 594 77C606 47 608 20 608 -107V-508L646 -476C667 -484 705 -492 767 -503V-110C767 -56 765 -27 760 -1L649 -62L643 -51C694 -8 731 29 773 82C785 96 790 96 796 82C806 55 810 8 810 -80V-510L936 -531C947 -532 949 -537 938 -547L904 -577C896 -570 851 -555 810 -545V-655C810 -707 814 -746 822 -770C827 -787 826 -790 817 -798L751 -851L739 -839C761 -802 767 -771 767 -676V-538ZM373 -573L340 -600C320 -590 303 -584 278 -579V-671C278 -740 280 -764 290 -780C297 -792 295 -797 285 -805L225 -853L211 -844C232 -807 239 -764 239 -674V-574L58 -552L104 -515C127 -523 165 -530 232 -539C197 -417 130 -288 42 -175L57 -161C115 -221 187 -330 239 -430V-122C239 -41 236 -18 220 7L254 70C263 86 267 87 272 70C277 52 278 27 278 -69V-463L347 -379C357 -367 361 -368 365 -380C371 -398 373 -413 368 -439L278 -492V-544L371 -557C386 -558 386 -562 373 -573Z"/>
</svg>