<svg xmlns="http://www.w3.org/2000/svg" viewBox="0 -1000 1000 1000">
	<path fill="#000000" d="M949 61V43C820 20 785 0 716 -83L640 -176L902 -201C919 -202 920 -206 905 -219L866 -249C836 -234 772 -222 609 -206C619 -232 626 -245 631 -248C637 -253 638 -257 631 -265L604 -293L785 -315C797 -316 798 -319 791 -328L765 -358L781 -468C788 -505 796 -521 814 -533C822 -538 821 -542 811 -550L767 -583L745 -550L670 -540C683 -576 695 -613 704 -642L893 -660C903 -661 905 -665 894 -674L850 -708C821 -695 779 -687 714 -679C738 -756 748 -779 754 -783C759 -787 760 -793 753 -799L692 -857L679 -848C693 -811 693 -766 673 -675L549 -661L547 -719C546 -750 548 -767 555 -780C557 -785 556 -789 551 -793L494 -831L483 -820C496 -800 507 -757 509 -716L511 -658L359 -642L399 -605C418 -612 468 -621 512 -626C512 -606 510 -588 505 -576L534 -536C540 -529 544 -529 547 -537C552 -549 553 -561 550 -629L666 -639C660 -609 651 -575 640 -536L479 -515L451 -566L438 -557C446 -526 449 -508 450 -472L454 -356C455 -328 452 -312 444 -299L475 -250C487 -232 494 -236 493 -280L573 -290C574 -263 570 -227 564 -201L332 -179L382 -141C412 -151 470 -161 553 -169C519 -85 463 -11 321 83L329 96C475 30 564 -67 599 -172L605 -173L786 71ZM415 -547L378 -583C362 -573 337 -565 292 -558V-672C292 -730 296 -748 313 -777C316 -782 316 -788 310 -792L238 -846L226 -835C245 -792 255 -754 255 -684V-554L71 -533L107 -493C135 -502 186 -512 248 -519C197 -389 131 -275 43 -172L54 -161C125 -230 199 -323 255 -431V-110C255 -29 249 -8 235 11L272 84C278 95 282 95 286 84C290 72 292 44 292 -90V-442L380 -339C386 -332 390 -332 393 -340C398 -358 400 -378 400 -400L292 -471V-523L413 -536C421 -537 421 -542 415 -547ZM747 -514L723 -345L493 -314L490 -381L706 -412C713 -413 715 -416 706 -424L676 -453C658 -442 620 -432 489 -412L486 -480Z"/>
</svg>