<svg xmlns="http://www.w3.org/2000/svg" viewBox="0 -1000 1000 1000">
	<path fill="#000000" d="M764 -234C774 -244 773 -247 762 -255L726 -280L703 -248L482 -226L452 -263L441 -256C447 -230 451 -197 452 -161L456 -38C457 -10 455 10 445 28L475 86C482 100 488 100 491 88C495 72 496 54 495 33L688 18L708 78C713 92 718 93 725 80C735 62 740 33 742 -12L749 -166C751 -207 753 -223 764 -234ZM764 -514L749 -349L611 -335V-496ZM574 -331L453 -319L443 -477L574 -492ZM711 -215L705 -56C704 -26 701 -11 696 -2L676 -20C647 -12 601 -7 494 3L491 -84L666 -103C683 -105 684 -110 670 -122L647 -142C627 -132 588 -125 490 -115L488 -193ZM721 -460L692 -497L677 -493C681 -456 671 -432 629 -361L647 -354C692 -420 707 -434 718 -440C729 -446 729 -450 721 -460ZM542 -403L479 -455L466 -448L515 -357C523 -342 530 -341 535 -355C540 -369 543 -389 542 -403ZM777 -564L763 -546L429 -505L414 -524C436 -545 456 -566 478 -593L506 -571C533 -579 580 -586 695 -598C710 -600 712 -604 699 -616L673 -640C652 -628 595 -616 489 -605C523 -648 558 -694 596 -749ZM814 -525L840 -499L982 -510V-526C862 -540 828 -558 613 -773C618 -778 622 -781 626 -784C635 -791 635 -795 631 -801L590 -864L578 -857C584 -789 476 -618 313 -459L289 -480V-557L393 -569C407 -571 409 -576 395 -588L370 -609C351 -598 326 -592 289 -588V-670C289 -717 293 -741 301 -760C306 -772 305 -777 296 -786L243 -843L232 -835C245 -796 250 -764 250 -692V-584L64 -564L108 -529C138 -538 167 -542 241 -551C199 -441 129 -316 40 -203L53 -192C123 -256 197 -368 250 -476V-115C250 -70 242 -22 224 2L261 84C268 99 274 99 279 84C286 61 289 24 289 -72V-452L348 -350C356 -337 363 -337 365 -349C369 -369 370 -396 368 -413L329 -446C353 -467 377 -488 400 -510C403 -491 406 -468 409 -435L414 -378C417 -344 413 -322 405 -305L438 -269C446 -260 453 -261 454 -289L795 -320C807 -321 808 -325 799 -334L784 -349L800 -475C804 -507 807 -516 814 -525Z"/>
</svg>