<svg xmlns="http://www.w3.org/2000/svg" viewBox="0 -1000 1000 1000">
	<path fill="#000000" d="M654 -780L565 -852L554 -841L621 -729C627 -719 634 -718 639 -727C646 -740 650 -754 654 -780ZM883 -740L833 -778L801 -736L432 -694C432 -714 430 -739 428 -754H410C404 -685 390 -650 365 -626L387 -579C391 -570 396 -569 403 -580C415 -599 425 -631 431 -665L809 -703L780 -632L794 -626C834 -684 857 -709 881 -724C889 -730 890 -734 883 -740ZM653 -574C656 -587 655 -602 653 -621L567 -671L560 -661L637 -568C644 -560 650 -560 653 -574ZM843 -536C843 -550 841 -566 836 -585L714 -646L709 -634L824 -531C836 -520 843 -523 843 -536ZM473 -633H461C450 -579 440 -563 417 -540L430 -493C433 -481 441 -479 447 -489C467 -522 475 -555 473 -633ZM762 -509C740 -537 723 -561 701 -606L690 -601L706 -524C646 -518 581 -541 518 -626L503 -622C556 -511 642 -470 755 -491C765 -493 768 -501 762 -509ZM959 -327L929 -350C915 -343 866 -334 790 -327L805 -414C807 -425 814 -437 828 -452C835 -460 834 -465 827 -469L787 -493L763 -466L452 -433L419 -470L407 -464C414 -444 419 -421 421 -401L433 -299L305 -288L339 -254C386 -266 492 -276 953 -308C972 -309 974 -315 959 -327ZM368 -595L345 -617C330 -609 293 -601 264 -597V-690C264 -733 268 -753 279 -773C284 -782 283 -787 277 -791L209 -845L198 -838C216 -792 226 -750 226 -692V-592L48 -568L98 -534C116 -542 174 -553 223 -561C181 -451 122 -332 22 -200L36 -187C105 -263 179 -369 226 -470V-152C226 -45 219 -19 203 1L239 89C244 102 250 102 255 88C261 71 264 36 264 -100V-476L343 -385C353 -374 360 -375 362 -390C364 -406 363 -422 360 -441L264 -502V-567L363 -578C378 -580 380 -584 368 -595ZM873 -226L843 -249C809 -238 732 -228 379 -197L418 -164C450 -172 494 -178 615 -187V-36C615 -8 613 7 611 16L497 -60L486 -46C539 1 581 46 616 86C623 94 628 94 633 85C650 58 655 36 655 -19L654 -190L868 -207C887 -209 889 -214 873 -226ZM770 -436L754 -324L669 -317L684 -427ZM646 -424L637 -315L575 -310L570 -416ZM541 -308L467 -301L459 -405L534 -413Z"/>
</svg>