<svg xmlns="http://www.w3.org/2000/svg" viewBox="0 -1000 1000 1000">
	<path fill="#000000" d="M535 -656L382 -787L370 -772C404 -738 460 -669 503 -601C514 -584 519 -586 524 -601C530 -618 534 -639 535 -656ZM324 -722C329 -726 329 -730 323 -738L275 -799L261 -792C264 -748 252 -666 132 -501L146 -489C199 -543 239 -595 287 -676C298 -696 312 -715 324 -722ZM899 -540C907 -545 907 -549 898 -557L848 -603L818 -569L635 -539C648 -586 662 -639 677 -703C688 -747 695 -768 706 -783C711 -791 710 -794 702 -802L646 -859L633 -849C638 -818 637 -756 632 -714C616 -592 589 -467 513 -304L527 -295C571 -372 601 -436 626 -513L648 -497C681 -507 725 -516 818 -531L761 -386L777 -377C845 -492 866 -519 899 -540ZM522 -427L361 -538C368 -547 376 -553 385 -558C394 -563 395 -568 389 -578L354 -638L339 -635C339 -605 328 -578 303 -530C259 -445 133 -294 52 -228L65 -212C108 -244 157 -286 205 -337C215 -311 224 -270 224 -251V-145C224 -114 217 -85 208 -67L246 1C254 17 258 16 261 0C263 -10 263 -27 263 -61L463 -89C478 -91 479 -96 470 -104L441 -133L463 -257C467 -278 474 -293 489 -304C495 -308 496 -313 489 -319L444 -359L419 -325L254 -295L225 -357C287 -428 310 -459 348 -519C399 -476 452 -422 496 -368C508 -354 513 -355 516 -369C519 -385 522 -410 522 -427ZM970 41V22C844 7 810 -16 674 -295C684 -325 698 -357 708 -369C714 -377 714 -382 709 -387L658 -447L648 -441C651 -401 648 -369 637 -318C604 -171 547 -58 366 80L377 95C501 17 616 -87 663 -250L804 48ZM425 -288L401 -120L263 -98V-257Z"/>
</svg>