<svg xmlns="http://www.w3.org/2000/svg" viewBox="0 -1000 1000 1000">
	<path fill="#000000" d="M882 -557L834 -599L809 -566L621 -538C634 -583 645 -633 657 -694C664 -729 672 -752 679 -759C685 -765 686 -769 682 -775L626 -847L613 -841C637 -752 582 -480 504 -307L520 -296C559 -369 588 -428 611 -502L807 -530L767 -409L785 -400C835 -495 860 -529 881 -541C890 -546 890 -550 882 -557ZM386 -616C393 -620 393 -623 386 -629L347 -665L323 -633L212 -618L187 -664L173 -657C181 -635 184 -613 184 -592L186 -523C187 -501 182 -484 177 -474L205 -427C212 -415 217 -415 221 -427C224 -436 225 -445 225 -457L375 -477C387 -478 389 -482 378 -492L357 -513L366 -580C368 -595 374 -610 386 -616ZM557 -747L515 -777C479 -759 431 -747 94 -717L146 -675C187 -689 241 -698 432 -720V-549C432 -522 425 -493 415 -474L447 -430L31 -374L76 -335C101 -346 157 -358 419 -391C425 -361 427 -324 427 -269V-49C427 -22 426 -5 422 11L337 -48L327 -36C378 13 405 46 438 88C445 96 449 96 453 87C461 69 467 36 467 -20V-267C467 -319 469 -338 474 -346C478 -352 477 -355 470 -362L441 -393L530 -406C543 -408 544 -413 536 -423L514 -449C501 -442 486 -436 468 -433C469 -451 470 -476 470 -509V-723L554 -732C568 -734 569 -738 557 -747ZM959 58V39C839 24 818 7 778 -97L692 -319C704 -392 711 -417 715 -423C719 -429 719 -433 715 -439L670 -497L656 -490C673 -285 619 -90 468 72L479 85C595 -21 658 -130 683 -262L792 68ZM372 -298L336 -332L311 -302L197 -286L176 -326L160 -320C166 -294 169 -269 169 -253L171 -170C171 -148 166 -133 161 -123L192 -78C198 -69 203 -69 205 -78C207 -88 208 -97 207 -122L366 -139C378 -140 378 -145 369 -154L347 -176L354 -240C356 -259 360 -271 371 -279C382 -287 382 -289 372 -298ZM328 -601L322 -505L224 -491L220 -587ZM318 -271L311 -168L207 -153L204 -256Z"/>
</svg>