<svg xmlns="http://www.w3.org/2000/svg" viewBox="0 -1000 1000 1000">
	<path fill="#000000" d="M893 -502L845 -542C810 -527 751 -516 522 -500V-575L721 -593C730 -594 731 -599 722 -605L673 -640C659 -629 613 -619 522 -609V-688L772 -707C782 -708 784 -712 774 -720L727 -757C701 -743 663 -735 522 -722C522 -771 526 -786 536 -800C539 -806 538 -810 533 -815L478 -865L466 -856C479 -832 483 -796 483 -719L214 -697L260 -657C287 -667 342 -676 483 -685V-606L280 -587L318 -552C336 -558 357 -561 483 -572V-497L97 -471L138 -431C282 -451 413 -462 891 -488C902 -489 903 -494 893 -502ZM900 -267L851 -299C837 -290 803 -281 703 -272C705 -291 706 -310 707 -326C710 -362 716 -378 736 -394C744 -401 744 -405 736 -412L692 -449L660 -412L330 -378L299 -430L286 -425C291 -399 291 -339 286 -293L279 -236L69 -219L114 -179C139 -185 213 -195 276 -202L267 -134C264 -108 253 -87 230 -75L265 -34C271 -27 275 -28 280 -34C295 -53 312 -60 352 -63L645 -84C638 -43 625 -3 615 23L531 -42L521 -29C563 21 594 63 618 98C625 107 630 106 635 98C659 61 670 23 685 -87L814 -96C828 -97 827 -102 815 -111L769 -144C760 -138 724 -130 689 -125C693 -160 697 -199 700 -237L899 -254C911 -255 911 -260 900 -267ZM667 -377C665 -340 664 -302 662 -269L519 -257C525 -271 528 -287 529 -299L454 -347L445 -335L499 -256L319 -239L332 -346ZM660 -234C657 -192 653 -153 649 -121L522 -112C525 -127 526 -144 525 -159L441 -207L432 -195L498 -111L304 -96L316 -205Z"/>
</svg>