<svg xmlns="http://www.w3.org/2000/svg" viewBox="0 -1000 1000 1000">
	<path fill="#000000" d="M949 14C927 -64 918 -106 911 -185H894L892 -9C864 1 822 8 791 7C710 5 701 -11 701 -87V-327C738 -362 770 -395 851 -487C869 -507 878 -515 887 -520C891 -523 892 -528 889 -535L853 -600L837 -595C845 -563 804 -482 701 -364V-645C701 -734 704 -748 712 -766C716 -774 715 -778 707 -785L648 -836L636 -824C651 -796 659 -756 659 -662V-80C659 15 672 40 784 47C834 50 906 41 944 30C951 28 952 25 949 14ZM624 -421L587 -449C571 -436 549 -429 504 -422V-598C504 -664 506 -680 517 -699C522 -708 522 -712 516 -718L451 -783L436 -773C453 -742 461 -698 461 -593V-90C461 -42 459 -38 415 -3L459 32C464 36 467 36 471 30C496 -5 548 -61 615 -119L601 -133L504 -60V-385L622 -408C632 -409 633 -414 624 -421ZM427 -611C433 -615 433 -621 427 -626L387 -659L354 -625L150 -599L111 -653L98 -645C107 -613 109 -603 113 -513L126 -273C131 -184 128 -168 112 -141L153 -74C160 -62 166 -63 167 -76C170 -104 170 -118 168 -158L345 -179L374 -120C378 -112 384 -112 387 -121C393 -142 395 -163 398 -237L406 -552C407 -583 412 -601 427 -611ZM364 -591L358 -278C357 -236 357 -229 353 -207L328 -223C317 -217 303 -212 275 -206V-392L341 -406C351 -408 352 -411 346 -416L313 -438C305 -432 293 -427 275 -423V-580ZM235 -200L167 -189L154 -566L235 -576V-416L165 -400L197 -373C205 -378 217 -382 235 -386Z"/>
</svg>