<svg xmlns="http://www.w3.org/2000/svg" viewBox="0 -1000 1000 1000">
	<path fill="#000000" d="M554 -667L465 -742L453 -733L530 -604C537 -593 540 -593 544 -605C550 -625 552 -637 554 -667ZM824 -443C824 -465 820 -488 813 -510L627 -589C628 -590 628 -591 629 -592C748 -672 780 -691 796 -696C805 -700 806 -703 805 -713L795 -780L779 -781C767 -738 740 -708 643 -630C652 -661 658 -691 662 -734C665 -766 670 -787 680 -801C686 -809 686 -813 678 -819L619 -869L607 -860C627 -823 627 -772 614 -687C598 -576 556 -519 414 -414L427 -398C540 -474 587 -516 618 -571L811 -435C820 -429 824 -431 824 -443ZM940 -3C923 -48 908 -124 894 -232H875L877 -31C818 -10 641 10 457 0C320 -7 292 -34 292 -172V-292L431 -325C444 -328 444 -331 432 -339L392 -366C374 -354 349 -345 292 -330V-480L432 -513C444 -516 445 -520 434 -528L395 -553C374 -541 334 -528 292 -516V-679C385 -725 419 -740 434 -744C443 -746 444 -750 434 -759L388 -802L378 -798C360 -763 315 -732 70 -602L78 -587C157 -617 198 -634 250 -660V-505L84 -464L135 -434C162 -445 217 -462 250 -471V-320L51 -271L105 -239C143 -255 192 -270 250 -284V-154C250 -21 288 24 399 36C574 55 845 39 933 15C943 13 945 10 940 -3ZM560 -326L458 -397L449 -384L540 -267C547 -258 551 -258 554 -270C557 -283 559 -297 560 -326ZM812 -107C812 -128 808 -148 801 -170L621 -260C621 -262 622 -265 623 -266C738 -340 749 -346 771 -355C781 -359 782 -363 780 -374L768 -430L754 -431C744 -403 708 -364 634 -303C640 -328 644 -354 647 -382C650 -410 655 -430 664 -443C669 -451 668 -455 662 -461L615 -505L601 -498C614 -466 609 -363 589 -287C567 -207 512 -132 401 -59L410 -42C515 -105 573 -152 612 -238L797 -100C808 -92 812 -93 812 -107Z"/>
</svg>