<svg xmlns="http://www.w3.org/2000/svg" viewBox="0 -1000 1000 1000">
	<path fill="#000000" d="M783 -741L734 -776C698 -755 656 -743 349 -694C390 -761 401 -777 413 -783C419 -786 420 -791 415 -797L361 -858L349 -851C354 -778 272 -601 100 -413L111 -400C185 -466 293 -598 342 -682L374 -656C418 -668 499 -684 779 -729C791 -731 792 -735 783 -741ZM711 -631L671 -660C631 -641 573 -627 324 -592L364 -555C394 -566 463 -579 708 -619C718 -621 719 -625 711 -631ZM957 85C950 11 945 -73 945 -146H925L909 22C793 -52 729 -217 744 -477C745 -502 754 -523 773 -536C779 -540 779 -544 774 -549L726 -594L695 -550L222 -481L275 -441C286 -447 327 -457 384 -466L433 -371L286 -348C286 -364 284 -381 282 -397H261C258 -321 243 -292 219 -264L241 -221C246 -211 250 -211 257 -220C271 -239 281 -270 285 -312L392 -328C393 -298 384 -261 359 -201L151 -176L199 -139C235 -152 296 -162 346 -168C334 -140 317 -109 299 -73C332 -63 368 -49 403 -34C355 7 282 48 192 82L203 95C292 72 384 26 440 -19C517 13 588 48 619 70C630 77 636 75 634 62C631 44 626 27 616 0C559 -20 518 -35 471 -50C502 -82 530 -126 560 -191L675 -204C689 -206 690 -211 681 -219L640 -252C606 -239 494 -219 402 -206C423 -257 433 -271 440 -279C446 -286 447 -290 440 -302L422 -332L580 -355L549 -286L563 -279C616 -347 632 -361 653 -370C661 -374 661 -378 653 -385L607 -428L581 -392L452 -374C459 -386 463 -398 467 -418L406 -469L696 -514C686 -169 752 11 946 92C955 95 958 91 957 85ZM503 -185C484 -136 463 -97 433 -63C409 -71 383 -79 351 -88C366 -123 378 -150 387 -172Z"/>
</svg>