<svg xmlns="http://www.w3.org/2000/svg" viewBox="0 -1000 1000 1000">
	<path fill="#000000" d="M778 -738L733 -775C700 -755 619 -740 334 -710C367 -768 375 -779 387 -784C393 -787 393 -792 387 -799L340 -855L327 -849C338 -772 237 -591 71 -425L81 -412C172 -485 266 -601 322 -691L345 -675C398 -686 509 -700 773 -727C783 -728 784 -733 778 -738ZM698 -631L656 -665C614 -646 560 -636 304 -606L356 -575C389 -584 461 -594 694 -620C703 -621 705 -625 698 -631ZM934 67C922 -2 906 -113 904 -169L888 -170L878 -8C777 -67 702 -190 713 -447C716 -513 721 -527 737 -534C743 -537 743 -541 737 -546L688 -585L663 -547L202 -487L254 -451C279 -459 304 -464 358 -472L422 -396L129 -361L175 -326C223 -337 268 -345 344 -356C338 -336 327 -316 303 -288C262 -237 249 -229 210 -218L240 -185C248 -176 252 -176 259 -180C290 -197 339 -214 398 -227C348 -172 286 -121 161 -46L170 -30C296 -87 360 -135 459 -238C489 -269 497 -277 511 -284C517 -287 519 -293 515 -301L486 -353L474 -350C467 -325 454 -294 422 -256L298 -235L336 -276C366 -308 382 -321 394 -326C400 -328 400 -333 395 -340L382 -359L639 -389C650 -390 650 -393 643 -400L606 -434C572 -421 508 -408 443 -399C448 -412 450 -420 453 -435L382 -475L674 -514C656 -233 715 -19 923 74C932 78 936 77 934 67ZM616 -33L482 -114C496 -127 509 -139 525 -155C547 -177 574 -197 589 -204C594 -206 596 -210 594 -216L568 -279L555 -276C546 -242 519 -198 435 -119C369 -59 240 30 114 66L121 80C252 48 361 -11 463 -97C519 -50 562 -8 599 37C605 44 610 43 613 34C616 21 617 -3 616 -33Z"/>
</svg>