<svg xmlns="http://www.w3.org/2000/svg" viewBox="0 -1000 1000 1000">
	<path fill="#000000" d="M734 -736L620 -800L608 -789L715 -658C722 -650 725 -650 729 -660C737 -680 739 -713 734 -736ZM376 -382L245 -468L236 -455L350 -312C356 -305 360 -306 363 -313C372 -333 376 -358 376 -382ZM940 -68L939 -93C799 -97 733 -150 610 -320C708 -392 739 -413 761 -418C773 -420 775 -424 772 -434L746 -513L732 -514C718 -472 698 -442 594 -343L520 -445V-560L839 -585C851 -586 852 -591 844 -598L795 -640C734 -618 647 -603 520 -593V-695C520 -746 523 -764 536 -790C540 -798 538 -802 533 -806L464 -864L447 -855C472 -806 479 -779 479 -697V-591L139 -567L190 -520C237 -535 339 -546 479 -557V-157C479 -120 472 -36 465 2L320 -92L310 -77C383 -14 428 32 483 97C491 106 495 105 500 96C512 72 520 27 520 -76V-378L750 -55ZM436 -282L426 -298L100 -117L157 -86C165 -82 171 -83 176 -89C207 -120 266 -165 436 -282Z"/>
</svg>