<svg xmlns="http://www.w3.org/2000/svg" viewBox="0 -1000 1000 1000">
	<path fill="#000000" d="M637 -760L486 -852L476 -839L619 -678C624 -672 631 -674 632 -681C635 -696 638 -739 637 -760ZM322 -681L189 -771L179 -757L297 -609C303 -601 307 -601 310 -610C315 -624 319 -646 322 -681ZM222 -461L94 -536L86 -523L205 -385C210 -380 216 -380 217 -388C221 -404 223 -432 222 -461ZM943 -55V-73C827 -85 820 -90 677 -358C778 -442 816 -468 830 -472C838 -475 840 -480 837 -487L809 -558L793 -554C782 -508 758 -472 664 -381L601 -498C601 -569 608 -587 628 -598C635 -602 635 -606 628 -612L579 -652L548 -609L362 -585L414 -546C439 -554 476 -561 560 -573V-136C560 -60 556 -19 549 5L433 -63L424 -49C515 35 541 62 565 91C570 98 578 97 581 90C597 55 601 26 601 -143V-437L793 -45ZM336 -537L315 -544L174 -92L97 -143L87 -131C120 -94 162 -42 185 -10C192 0 196 0 199 -13ZM538 -422L493 -461L465 -423L326 -400L368 -366C399 -377 412 -380 466 -388C414 -223 336 -94 223 5L235 19C343 -62 425 -174 493 -330C517 -386 523 -399 537 -409C543 -413 542 -419 538 -422Z"/>
</svg>