<svg xmlns="http://www.w3.org/2000/svg" viewBox="0 -1000 1000 1000">
	<path fill="#000000" d="M309 -719L176 -809L163 -796L288 -643C296 -634 301 -634 304 -645C308 -661 309 -677 309 -719ZM245 -433C246 -456 245 -473 240 -499L91 -566L84 -549L232 -427C240 -421 245 -423 245 -433ZM650 -545C655 -548 656 -553 650 -558L609 -597L583 -558L460 -543L431 -629L415 -624C420 -592 425 -533 426 -496L430 -384C432 -333 428 -318 416 -297L454 -237C460 -228 467 -228 468 -240C470 -261 471 -276 469 -323L639 -339C648 -340 649 -344 641 -353L611 -386L624 -488C626 -513 636 -536 650 -545ZM916 -747L866 -785C817 -765 787 -759 314 -722L369 -681C426 -691 493 -702 708 -719C714 -692 715 -670 715 -590V-152C715 -96 713 -77 704 -38L547 -126L538 -111C616 -53 666 -8 711 45C719 54 723 54 729 43C748 8 757 -38 757 -111V-589C757 -628 763 -653 769 -668C773 -678 772 -681 766 -688L738 -721L912 -734C924 -735 925 -740 916 -747ZM341 -504L320 -513L181 -107L105 -161L93 -144C130 -108 157 -77 191 -35C200 -24 205 -25 208 -36ZM587 -524L577 -372L468 -359L463 -509Z"/>
</svg>