<svg xmlns="http://www.w3.org/2000/svg" viewBox="0 -1000 1000 1000">
	<path fill="#000000" d="M949 -564L916 -588C900 -581 860 -571 821 -565C827 -591 835 -616 850 -627C856 -632 858 -637 849 -645L809 -680L781 -643L663 -627C664 -644 666 -655 672 -663C679 -672 677 -677 668 -684L646 -701L896 -725C908 -726 910 -733 899 -742L864 -769C839 -756 765 -743 671 -734C677 -751 682 -769 685 -789L592 -872L582 -862L650 -732L441 -712L413 -791L399 -787C406 -674 400 -513 391 -406C369 -185 336 -87 274 27L288 37C370 -88 426 -236 436 -502L454 -487C485 -495 557 -506 625 -513V-461L451 -438L490 -409C506 -413 569 -424 625 -431V-370L498 -352L476 -402L460 -397C465 -365 466 -345 466 -289V-108C466 -41 463 -11 447 14L480 77C484 83 494 87 497 76C501 60 504 29 504 -45V-321L625 -337V-275L508 -263L544 -231C554 -234 591 -241 625 -246V-184L507 -172L547 -140C561 -144 594 -152 625 -156C625 -55 620 -32 607 -12L640 47C649 64 656 63 659 46C662 28 662 14 662 -160L770 -173C782 -174 783 -182 774 -190L744 -212C735 -206 697 -194 662 -188V-252L759 -264C775 -265 775 -270 763 -280L736 -299C721 -293 693 -285 662 -280V-342L801 -361V-101C801 -36 799 -7 796 12L699 -52L690 -39C739 14 773 53 799 85C807 94 815 92 819 86C832 61 841 11 841 -81V-317C841 -339 848 -361 861 -372C867 -377 866 -386 858 -392L816 -423L793 -391L662 -374V-435L818 -453C834 -455 834 -462 822 -471L806 -483L815 -531L946 -544C962 -546 963 -554 949 -564ZM348 -782L307 -861L292 -857C301 -786 236 -581 44 -382L57 -369C123 -431 184 -497 229 -567V-123C229 -51 223 -16 204 11L241 83C246 93 252 95 257 83C264 66 268 18 268 -113L267 -635C278 -653 289 -674 295 -686C316 -728 331 -752 342 -759C351 -764 352 -774 348 -782ZM625 -544L436 -524C439 -582 442 -635 444 -682L614 -698C620 -678 624 -650 625 -623L451 -600L494 -569C515 -576 555 -583 625 -592ZM789 -615L782 -561L662 -547V-597ZM777 -528L771 -479L662 -465V-516Z"/>
</svg>