<svg xmlns="http://www.w3.org/2000/svg" viewBox="0 -1000 1000 1000">
	<path fill="#000000" d="M319 -689L192 -766L182 -752L298 -619C307 -609 311 -610 314 -623C318 -641 320 -663 319 -689ZM846 -504L718 -591L795 -702C816 -734 829 -749 840 -755C848 -760 849 -764 843 -773L800 -839L785 -832C791 -812 778 -765 759 -725C737 -677 712 -632 682 -590C740 -540 776 -496 824 -433C831 -423 837 -423 839 -433C844 -457 846 -479 846 -504ZM671 -770L627 -832L613 -827C617 -795 608 -755 593 -720C579 -685 551 -630 519 -580C563 -538 596 -495 645 -423C652 -413 656 -414 659 -423C665 -442 668 -462 668 -493L553 -580L623 -687C659 -743 664 -748 670 -753C676 -758 677 -762 671 -770ZM514 -777L464 -841L454 -836C456 -803 450 -757 436 -710C428 -683 399 -613 366 -555C420 -513 447 -471 487 -401C494 -391 499 -391 503 -401C510 -423 514 -445 512 -472L401 -560L476 -702C499 -745 505 -754 513 -761C519 -766 519 -771 514 -777ZM243 -483L110 -548L103 -537L224 -415C232 -407 236 -408 238 -418C242 -438 243 -454 243 -483ZM346 -471L330 -479L186 -89L107 -146L99 -135C131 -99 153 -71 197 -13C204 -4 209 -4 212 -13ZM850 -379L805 -417L778 -382L420 -344L390 -413L376 -409C385 -370 390 -321 391 -290L398 -115C401 -32 393 -13 383 1L426 74C431 82 436 81 438 72C441 54 442 35 441 4L744 -25L774 37C780 49 786 49 791 35C797 17 801 -5 809 -81L832 -313C835 -343 839 -353 849 -361C857 -368 857 -373 850 -379ZM787 -346L772 -132C768 -79 763 -59 752 -45L721 -67C709 -61 693 -58 620 -51V-184L741 -196C754 -197 755 -202 744 -211L708 -240C694 -233 666 -226 620 -219V-328ZM579 -46L440 -31L429 -309L579 -324V-214L453 -198L502 -163C528 -171 542 -175 579 -180Z"/>
</svg>