<svg xmlns="http://www.w3.org/2000/svg" viewBox="0 -1000 1000 1000">
	<path fill="#000000" d="M295 -686L165 -763L158 -752L273 -614C283 -602 289 -603 291 -613C296 -633 297 -650 295 -686ZM781 -801L736 -838L705 -799L484 -762L454 -829L440 -824C448 -782 455 -718 456 -692L461 -610C464 -567 463 -559 451 -538L484 -480C493 -465 498 -465 501 -481C502 -487 502 -500 501 -513L761 -549C774 -551 775 -555 765 -564L742 -585L755 -725C758 -757 763 -768 778 -780C790 -790 790 -794 781 -801ZM226 -456L97 -532L90 -521L204 -386C212 -377 218 -377 221 -387C226 -404 228 -421 226 -456ZM347 -526L330 -531L173 -55L81 -124L72 -112C114 -63 154 -12 177 21C187 35 193 34 197 20ZM941 -469L891 -498C857 -478 704 -449 318 -404L365 -367C388 -375 437 -387 492 -395C463 -327 371 -218 273 -135L282 -123C361 -181 419 -234 458 -279L482 -265C489 -270 511 -276 542 -280C510 -188 429 -81 311 -3L320 11C422 -50 492 -115 544 -192C565 -226 574 -238 584 -245C592 -252 593 -257 588 -266L576 -286L669 -299C637 -163 524 -13 364 83L373 98C529 13 614 -90 664 -176C702 -240 705 -246 712 -252C720 -259 721 -263 716 -272L697 -304L808 -320C789 -191 725 -6 687 35L593 -46L582 -34C617 9 647 50 678 97C686 109 691 109 698 99C743 35 787 -66 849 -300C853 -315 859 -325 871 -335C882 -344 883 -348 874 -356L833 -394L802 -354L478 -303C501 -330 525 -353 537 -360C549 -367 549 -372 543 -380L528 -400L937 -452C956 -454 956 -460 941 -469ZM718 -768L705 -577L500 -544L495 -623L680 -653C694 -655 695 -661 684 -668L650 -690C632 -679 587 -667 494 -652L489 -732Z"/>
</svg>