<svg xmlns="http://www.w3.org/2000/svg" viewBox="0 -1000 1000 1000">
	<path fill="#000000" d="M296 -678L179 -753L171 -741L270 -623C282 -608 290 -608 292 -623C295 -641 296 -651 296 -678ZM229 -467L110 -528L103 -515L205 -408C217 -396 222 -397 225 -412C228 -429 229 -440 229 -467ZM886 -460C895 -466 894 -471 885 -479L846 -511L819 -478L664 -459L677 -568L826 -586C845 -589 845 -594 832 -604L810 -624L829 -723C833 -742 840 -749 853 -753C863 -756 865 -764 853 -774L816 -805L787 -773L594 -750L629 -716C647 -723 666 -726 793 -742L776 -616L676 -600L655 -659L639 -655C642 -633 642 -619 638 -563L632 -476C631 -461 624 -445 610 -429L639 -409C650 -400 654 -402 660 -412C665 -422 675 -427 683 -428L821 -442C819 -386 815 -332 810 -284L569 -151L632 -123C651 -144 682 -168 808 -257C793 -96 781 -35 766 -4L657 -80L648 -66C699 -20 741 34 766 73C774 86 783 86 788 72C830 -43 842 -128 863 -409C865 -432 870 -449 886 -460ZM588 -442C596 -448 596 -453 590 -458L547 -492L519 -452L398 -437L409 -557L545 -567C558 -568 558 -573 549 -582L532 -599L548 -709C550 -726 556 -734 568 -742C576 -748 577 -753 568 -761L532 -791L500 -754L335 -735L370 -701C389 -708 417 -714 511 -725L497 -596L408 -586L388 -634L372 -629C377 -605 378 -581 375 -553L365 -464C363 -443 356 -428 339 -416L374 -388C381 -382 384 -382 392 -391C400 -399 405 -400 414 -402L523 -421C522 -370 520 -341 513 -269L268 -135L333 -111C356 -130 372 -141 511 -238C498 -134 481 -47 470 -19L375 -84L364 -71C412 -24 438 6 470 55C480 70 486 70 493 58C521 10 536 -92 565 -397C567 -420 571 -428 588 -442ZM728 -312L640 -379L631 -367L697 -263C707 -247 711 -247 717 -263C722 -275 725 -287 728 -312ZM443 -308L344 -363L337 -349L418 -260C430 -246 433 -247 437 -263C440 -275 442 -291 443 -308ZM325 -505L308 -513L180 -84L95 -133L87 -119C130 -87 157 -61 199 -12C206 -4 212 -3 216 -19Z"/>
</svg>