<svg xmlns="http://www.w3.org/2000/svg" viewBox="0 -1000 1000 1000">
	<path fill="#000000" d="M327 -737L210 -808L201 -795L303 -664C313 -651 318 -651 322 -665C329 -689 330 -708 327 -737ZM916 -540C923 -542 924 -546 916 -555L879 -594L851 -563L757 -552L772 -737C774 -764 783 -783 792 -789C800 -795 801 -799 793 -806L751 -841L727 -804L490 -773L458 -834L443 -828C451 -791 456 -743 459 -662L465 -522L406 -515C406 -536 402 -559 397 -578L382 -574C382 -501 364 -440 335 -416L356 -368C361 -357 366 -357 374 -368C389 -389 401 -433 405 -480L844 -526L804 -436L818 -428C871 -502 899 -534 916 -540ZM211 -451C214 -468 214 -490 210 -521L87 -588L80 -576L194 -447C203 -437 209 -439 211 -451ZM341 -544L325 -552L181 -91L106 -143L97 -131C132 -91 162 -52 193 -8C201 4 206 2 209 -10ZM784 -442L738 -478L713 -441L493 -415L464 -460L452 -453C457 -423 459 -382 459 -336V-96C459 -45 455 -16 443 8L472 63C480 78 486 77 490 64C496 43 499 9 499 -105V-162L689 -184C701 -185 702 -190 693 -198L661 -225C643 -217 585 -205 499 -194V-268L674 -294C686 -296 687 -301 677 -308L647 -331C626 -322 573 -310 499 -298V-382L722 -409V-118C722 -52 720 -30 716 -4L621 -51L614 -37C663 -1 707 44 731 75C738 85 744 85 749 73C760 44 763 -6 763 -122V-367C763 -397 767 -411 783 -427C791 -434 790 -437 784 -442ZM735 -771L720 -548L634 -539L639 -608C640 -629 643 -644 658 -657C665 -663 665 -668 657 -673L617 -702L598 -672L496 -657L494 -740ZM602 -639L598 -536L500 -525L497 -625Z"/>
</svg>