<svg xmlns="http://www.w3.org/2000/svg" viewBox="0 -1000 1000 1000">
	<path fill="#000000" d="M304 -629C305 -649 305 -664 304 -698L187 -786L176 -771L278 -625C291 -606 303 -609 304 -629ZM237 -398C238 -414 236 -433 233 -463L91 -538L82 -524L216 -390C229 -377 236 -379 237 -398ZM968 -460V-480C852 -488 819 -503 614 -766C618 -774 623 -781 626 -784C639 -796 639 -802 631 -811L589 -860L574 -853C584 -790 481 -573 321 -406L364 -555L343 -566L172 -65L70 -165L55 -151C88 -110 144 -31 174 16C185 34 192 36 198 16L312 -369C362 -410 401 -448 446 -502C446 -440 435 -337 416 -250C398 -164 314 -20 242 62L255 75C354 -25 419 -116 459 -249L762 -285C780 -287 781 -295 771 -304L749 -324L770 -472C772 -485 776 -495 782 -505L829 -446ZM797 -199L754 -236L725 -196L513 -169L485 -231L468 -225C474 -200 478 -171 479 -126L482 -34C483 9 478 22 466 36L497 98C508 118 515 116 521 99C524 91 525 70 524 33L774 11C797 10 798 2 783 -10L751 -34L772 -129C776 -148 782 -164 796 -174C809 -184 808 -190 797 -199ZM746 -549L731 -529L486 -495L468 -530C506 -581 547 -645 597 -736ZM729 -491L710 -320L467 -283C470 -297 474 -324 479 -356L680 -380C700 -382 702 -386 688 -398L656 -427C642 -416 593 -404 482 -389C485 -414 487 -440 489 -462ZM729 -160L710 -25L523 -1L519 -134ZM650 -578L580 -664L564 -654L602 -538C609 -517 614 -516 627 -534C636 -547 645 -565 650 -578Z"/>
</svg>