<svg xmlns="http://www.w3.org/2000/svg" viewBox="0 -1000 1000 1000">
	<path fill="#000000" d="M684 -488L602 -565L591 -555L650 -438C654 -430 659 -428 664 -437C672 -453 678 -468 684 -488ZM900 -31L862 -68C818 -54 791 -48 659 -37V-152L827 -170C836 -171 837 -175 829 -182L793 -213C774 -205 729 -193 659 -185V-275L808 -293C819 -294 819 -299 810 -306L774 -333C752 -323 706 -313 659 -307V-394L840 -417C850 -418 851 -423 843 -429L802 -461C763 -443 691 -430 464 -401L507 -367C533 -374 572 -384 617 -390V-301L477 -287L522 -252C548 -260 572 -264 617 -270V-180L483 -166L529 -130C547 -135 581 -142 617 -147V-34L448 -19V-387C460 -402 471 -417 483 -433C508 -471 528 -492 541 -498C547 -501 549 -504 545 -510L509 -569L757 -594L776 -553C779 -547 785 -545 790 -554C794 -562 800 -584 804 -607L818 -688C821 -708 825 -716 832 -722C837 -726 836 -731 832 -735L783 -780L771 -773C782 -743 782 -725 777 -699L771 -657C769 -646 767 -639 764 -632L631 -619V-721C631 -749 638 -784 646 -795C650 -801 649 -805 643 -810L584 -854L571 -844C587 -809 590 -790 590 -733V-615L457 -601V-670C457 -691 460 -703 469 -716C473 -722 471 -726 465 -731L417 -772L404 -761C415 -734 418 -710 418 -677V-627C418 -602 415 -594 395 -574L431 -541C436 -537 440 -537 444 -543C451 -554 464 -563 486 -567C489 -510 433 -385 268 -249L281 -233C332 -269 373 -303 410 -343V-87C410 -40 401 -3 388 14L428 86C433 95 437 94 440 86C446 69 448 55 448 -2L479 21C532 7 607 -4 898 -20C907 -20 908 -23 900 -31ZM381 -781L329 -852L313 -845C330 -795 257 -595 36 -376L48 -362C123 -427 177 -478 225 -540V-125C225 -43 221 -16 207 7L244 85C250 97 256 95 258 86C262 69 265 33 265 -30V-598C285 -628 305 -660 327 -697C359 -754 363 -759 378 -770C384 -774 384 -777 381 -781Z"/>
</svg>