<svg xmlns="http://www.w3.org/2000/svg" viewBox="0 -1000 1000 1000">
	<path fill="#000000" d="M528 -755L426 -839L414 -827L502 -686C508 -677 514 -677 517 -688C522 -702 525 -720 528 -755ZM261 -626C264 -641 264 -664 260 -700L134 -782L124 -768L248 -619C254 -612 259 -613 261 -626ZM854 -486L806 -520C787 -510 697 -492 583 -481V-550L754 -571C765 -572 766 -577 757 -584L723 -610C704 -601 644 -587 583 -579V-643L806 -666C818 -667 818 -672 809 -678L765 -709C743 -701 694 -689 626 -680C679 -764 697 -786 709 -792C716 -796 717 -800 713 -806L675 -868L659 -863C655 -822 645 -781 595 -677L328 -650L381 -613C408 -621 487 -634 544 -640V-575L366 -557L417 -522C437 -528 494 -539 544 -545V-478L315 -457L359 -421C457 -441 556 -452 851 -473C864 -474 864 -479 854 -486ZM195 -381C199 -402 199 -422 195 -450L69 -527L59 -512L179 -376C188 -366 192 -367 195 -381ZM645 -352C644 -370 639 -387 626 -413L510 -439L505 -424L632 -345C641 -339 645 -340 645 -352ZM307 -479L286 -485L137 -54L78 -106L64 -93C98 -50 116 -23 145 25C152 36 156 36 160 22ZM945 -23V-46C799 -59 775 -67 663 -186C747 -257 772 -275 784 -279C790 -282 791 -285 788 -294L762 -363L747 -359C738 -316 721 -283 645 -206L582 -272C582 -305 585 -312 599 -321C605 -325 605 -330 598 -336L559 -368L537 -340L365 -318L405 -282C441 -291 457 -294 543 -308V-87C543 -20 541 5 536 23L441 -41L430 -28C491 32 518 62 552 104C558 112 563 112 568 102C577 86 583 59 583 -26V-238L768 -8ZM518 -224L480 -261L455 -227L302 -208L341 -172C365 -181 381 -184 450 -193C401 -95 323 -21 223 41L232 58C335 1 432 -76 490 -182C499 -199 506 -206 517 -210C524 -213 525 -218 518 -224Z"/>
</svg>