<svg xmlns="http://www.w3.org/2000/svg" viewBox="0 -1000 1000 1000">
	<path fill="#000000" d="M290 -698L164 -776L156 -766L266 -631C275 -619 283 -620 286 -634C290 -654 291 -671 290 -698ZM207 -492L81 -573L74 -563L181 -431C190 -420 197 -419 200 -432C205 -450 207 -473 207 -492ZM972 36V20C818 14 784 5 627 -187L913 -214C928 -215 930 -220 917 -231L881 -259C847 -244 772 -232 586 -214C591 -230 594 -252 599 -279L823 -303C836 -304 838 -311 827 -319L796 -343C780 -335 688 -317 602 -308C604 -328 606 -347 608 -370L799 -392C812 -393 814 -397 803 -407L785 -424L794 -464C796 -471 805 -481 818 -491C825 -497 826 -502 817 -510L772 -545L746 -514L615 -498C616 -510 619 -520 621 -524C625 -532 624 -535 616 -542L596 -560L706 -575C715 -576 716 -580 709 -589L693 -609L703 -669L894 -689C907 -690 908 -697 895 -706L859 -730C839 -722 785 -708 708 -700C714 -732 723 -760 735 -778C741 -786 740 -791 734 -798L686 -852L674 -846C681 -817 680 -771 670 -697L511 -680L509 -719C508 -742 509 -762 515 -776C520 -787 518 -791 510 -797L456 -840L448 -830C462 -803 472 -774 474 -737L478 -677L311 -660L355 -625C377 -630 429 -639 479 -645C480 -612 475 -591 467 -577L498 -529C507 -517 513 -520 516 -549L568 -557C571 -540 574 -515 574 -494L429 -477L403 -539L387 -534C394 -511 400 -467 400 -447V-396C400 -385 397 -376 392 -368L418 -326C425 -314 433 -316 435 -324C437 -332 438 -339 438 -349L569 -365C568 -342 565 -321 563 -304L357 -283L404 -247C434 -256 494 -268 559 -275C554 -248 549 -229 542 -211L292 -188L341 -150C383 -161 442 -171 530 -179C482 -70 401 5 267 76L276 89C437 21 522 -56 574 -183L591 -185L783 52ZM326 -525L310 -531L177 -69L72 -146L61 -134C102 -90 152 -31 183 10C193 23 200 24 203 9ZM666 -666L657 -598L516 -579L512 -648ZM759 -485L747 -418L610 -400C612 -422 613 -445 613 -469ZM574 -465C573 -440 573 -417 571 -396L437 -379L434 -448Z"/>
</svg>