<svg xmlns="http://www.w3.org/2000/svg" viewBox="0 -1000 1000 1000">
	<path fill="#000000" d="M858 -744L816 -772C772 -751 732 -740 499 -712C534 -765 542 -776 549 -781C554 -785 556 -792 552 -798L513 -860L500 -856C505 -780 437 -650 331 -530L343 -520C405 -578 432 -609 490 -696L516 -679C545 -688 647 -704 854 -729C869 -731 869 -736 858 -744ZM779 -632C788 -638 788 -642 778 -651L737 -685L712 -651L508 -620L488 -668L471 -663C474 -644 475 -624 476 -586L478 -475C478 -460 471 -439 464 -428L495 -375C501 -365 508 -366 511 -379C514 -391 515 -402 514 -421L755 -447C770 -448 773 -454 761 -464L741 -481L755 -579C758 -605 765 -623 779 -632ZM385 -791L347 -865L332 -860C339 -786 241 -582 38 -383L50 -371C136 -450 191 -505 237 -564V-117C237 -59 230 -17 214 18L254 91C261 104 267 104 270 90C275 73 276 34 276 -104L275 -616C293 -642 311 -672 332 -706C362 -758 372 -771 380 -774C388 -776 390 -781 385 -791ZM943 -391L901 -419C847 -397 778 -385 316 -342L364 -308C378 -313 436 -321 516 -331C482 -266 406 -177 319 -116L330 -103C395 -146 449 -186 489 -229L568 -238C541 -166 474 -86 329 6L337 18C424 -24 535 -112 575 -169C588 -186 604 -207 609 -211C615 -216 616 -219 612 -227L603 -241L694 -252C653 -123 578 -33 407 70L415 84C566 9 660 -83 714 -181C726 -203 732 -211 736 -214C742 -219 743 -223 739 -229L724 -255L822 -266C794 -132 766 -53 723 4L636 -57L627 -45C662 -7 692 29 711 61C717 70 722 73 732 62C778 14 814 -59 858 -235C865 -262 872 -275 886 -281C896 -286 898 -290 888 -299L846 -333L819 -300L521 -266C540 -286 549 -295 557 -298C564 -301 565 -309 562 -315L552 -334L937 -376C954 -378 954 -384 943 -391ZM719 -620L704 -475L513 -449V-506L684 -528C700 -530 700 -534 691 -542L660 -566C632 -553 599 -545 511 -535L510 -591Z"/>
</svg>