<svg xmlns="http://www.w3.org/2000/svg" viewBox="0 -1000 1000 1000">
	<path fill="#000000" d="M309 -725L172 -800L164 -787L286 -649C294 -640 298 -640 302 -650C310 -672 312 -693 309 -725ZM783 -795L741 -829L713 -794L459 -770L425 -829L411 -824C424 -773 427 -744 428 -698L429 -616C429 -587 427 -578 418 -563L455 -510C462 -499 465 -499 468 -512C470 -522 471 -531 471 -544L774 -574C783 -575 784 -578 776 -585L744 -616L755 -716C759 -754 766 -771 781 -780C790 -785 790 -789 783 -795ZM233 -472L95 -539L88 -524L213 -393C222 -385 227 -384 231 -397C237 -418 238 -441 233 -472ZM844 -512L801 -546L776 -513L399 -475L372 -523L357 -515C366 -480 369 -459 369 -425V-375C369 -344 367 -337 356 -314L392 -265C399 -255 405 -257 406 -267C408 -277 410 -289 410 -299L827 -337C837 -338 838 -341 829 -350L803 -376L819 -452C824 -476 831 -489 843 -496C851 -501 852 -506 844 -512ZM327 -514L307 -519L181 -66L102 -117L92 -104C129 -61 156 -27 196 27C205 40 208 39 212 22ZM927 49V34C815 31 764 12 651 -63L611 -89C649 -124 673 -149 716 -202C746 -239 752 -246 764 -253C772 -257 772 -261 766 -266L719 -304L688 -269L387 -235L429 -198C464 -209 521 -218 682 -234C653 -185 621 -145 581 -110C535 -138 496 -167 484 -188L441 -175L442 -164C453 -161 501 -133 557 -90C492 -37 400 12 267 67L276 83C420 37 514 -10 586 -68L772 76ZM716 -759L706 -605L470 -581L468 -639L661 -659C676 -660 677 -664 665 -674L634 -700C605 -690 574 -684 467 -671L464 -736ZM782 -477L765 -371L668 -361L683 -467ZM644 -464L632 -358L547 -348V-453ZM511 -345L409 -335L405 -440L511 -450Z"/>
</svg>