<svg xmlns="http://www.w3.org/2000/svg" viewBox="0 -1000 1000 1000">
	<path fill="#000000" d="M294 -699L151 -768L143 -754L269 -638C278 -630 284 -630 287 -640C293 -658 295 -674 294 -699ZM418 -531L347 -586L336 -574L389 -481C393 -474 398 -474 402 -480C411 -491 415 -502 418 -531ZM233 -413C236 -431 235 -445 227 -476L75 -519L69 -502L222 -409C227 -405 232 -405 233 -413ZM933 -350V-368C841 -379 797 -400 718 -500C780 -563 789 -571 801 -575C810 -578 811 -583 805 -593L777 -639L764 -635C761 -606 753 -592 702 -524L605 -648L850 -679C865 -680 865 -684 854 -694L814 -726C761 -707 697 -693 568 -678C574 -694 578 -710 582 -726C592 -765 599 -784 605 -790C612 -797 612 -801 605 -808L548 -862L535 -857C548 -803 540 -733 520 -674L304 -650L351 -611C387 -622 440 -631 509 -638C468 -533 392 -405 273 -290L288 -276C334 -315 373 -356 412 -403L416 -273C417 -246 413 -231 404 -219L440 -169C444 -163 450 -164 451 -171C454 -189 455 -196 455 -211L540 -222C544 -202 546 -181 546 -158V-35C546 -6 545 9 543 22L434 -35L426 -22C475 15 515 52 553 92C564 104 569 103 574 96C584 81 589 50 589 -8V-148C589 -164 592 -178 597 -187C599 -192 599 -196 595 -200L572 -225L720 -243C731 -244 731 -249 725 -256L702 -281L725 -438L795 -345ZM324 -513L304 -521L164 -69L92 -117L81 -101C119 -65 154 -29 185 2C192 9 198 9 199 -1ZM848 11C850 -7 847 -34 837 -78L658 -166L651 -152C722 -98 778 -48 832 12C842 23 847 23 848 11ZM440 -112L414 -169L400 -165C393 -118 332 -48 227 39L237 53C292 19 353 -26 405 -74C412 -80 423 -87 436 -91C445 -94 446 -99 440 -112ZM683 -496L676 -489L454 -457C497 -519 532 -581 556 -643L572 -645ZM681 -453L662 -273L454 -245L450 -314L643 -341C649 -342 650 -345 644 -351L612 -382C596 -373 534 -358 449 -348L445 -420Z"/>
</svg>