<svg xmlns="http://www.w3.org/2000/svg" viewBox="0 -1000 1000 1000">
	<path fill="#000000" d="M308 -658C309 -675 308 -692 305 -724L170 -797L161 -785L294 -654C300 -648 307 -648 308 -658ZM236 -428C237 -441 236 -458 232 -494L95 -571L86 -560L222 -423C229 -415 235 -416 236 -428ZM945 -513L901 -546C880 -534 838 -527 623 -504V-573L801 -593C812 -594 812 -600 805 -606L790 -622L804 -692C806 -701 815 -713 825 -719C835 -725 836 -728 828 -735L786 -773L757 -736L623 -718C624 -763 628 -778 635 -793C639 -802 638 -807 630 -815L582 -866L569 -858C582 -828 586 -803 586 -714L440 -693L407 -753L394 -745C406 -714 411 -690 411 -673V-607C411 -578 408 -566 402 -561L434 -520C442 -511 446 -512 446 -524C447 -528 447 -540 447 -552L586 -569V-500L327 -472L342 -547L323 -553L193 -61L94 -132L85 -121C126 -76 181 -13 207 20C215 31 220 31 223 18L325 -460L354 -437C383 -447 542 -471 943 -499C953 -500 953 -506 945 -513ZM809 -429L766 -468L737 -436L457 -402L427 -440L415 -434C423 -412 428 -379 429 -355L431 -195C431 -161 429 -147 418 -133L450 -80C456 -72 464 -73 465 -84C466 -89 467 -100 467 -110L723 -141L748 -105C757 -92 762 -94 765 -104C769 -115 771 -131 774 -180L789 -375C790 -392 797 -406 807 -413C815 -420 816 -423 809 -429ZM865 76C865 59 862 39 852 -3L639 -104L632 -89C754 -8 788 19 850 79C859 87 865 87 865 76ZM575 -53L543 -114L529 -110C529 -60 499 -25 313 92L323 106C426 57 483 23 532 -17C540 -24 556 -33 567 -35C577 -37 580 -43 575 -53ZM765 -703L754 -620L623 -604V-685ZM586 -599L447 -583V-664L586 -681ZM751 -405L741 -230C738 -184 735 -172 723 -159L691 -182C665 -168 625 -158 467 -139L466 -201L704 -231C714 -232 715 -236 708 -243L681 -270C656 -259 618 -248 466 -231L465 -286L699 -314C711 -315 712 -321 701 -330L671 -354C652 -343 615 -334 465 -317L464 -372Z"/>
</svg>