<svg xmlns="http://www.w3.org/2000/svg" viewBox="0 -1000 1000 1000">
	<path fill="#000000" d="M298 -658C300 -681 299 -705 293 -737L170 -794L161 -783L283 -655C291 -646 297 -647 298 -658ZM874 -650L839 -693L808 -657L605 -635V-699L803 -726C819 -728 819 -732 808 -741L771 -770C748 -757 693 -744 605 -733C606 -765 612 -792 620 -805C625 -813 623 -817 615 -823L555 -861L548 -850C562 -817 567 -788 567 -735V-631L401 -613C402 -634 400 -655 397 -673H378C377 -594 358 -539 332 -520L350 -464C355 -450 361 -449 369 -463C386 -494 394 -521 399 -580L800 -623L767 -559L784 -550C834 -615 850 -625 872 -633C882 -637 882 -640 874 -650ZM217 -417C216 -440 215 -460 211 -490L95 -552L87 -537L202 -413C211 -403 218 -405 217 -417ZM837 -347C835 -371 831 -392 826 -408L673 -478L666 -464L820 -341C833 -330 838 -333 837 -347ZM480 -423L456 -469L444 -467C439 -432 404 -382 322 -307L334 -294C374 -319 403 -343 438 -377C455 -392 462 -397 471 -401C484 -407 486 -411 480 -423ZM319 -493L303 -501L171 -71L72 -144L60 -129C108 -80 161 -22 188 9C196 18 201 18 204 6ZM938 -199V-217C854 -222 799 -243 728 -316L604 -446C608 -449 611 -451 615 -452C622 -454 624 -459 617 -471L601 -501L761 -520C776 -522 777 -528 765 -536L727 -562C703 -549 615 -532 416 -516L462 -480C479 -486 517 -493 575 -499C555 -420 462 -309 243 -145L250 -128C335 -181 388 -219 436 -259C438 -238 440 -214 440 -183V-52C440 -10 434 9 421 25L455 88C461 100 466 99 470 87C473 76 475 66 476 41L671 21L695 69C704 86 709 85 715 70C722 52 726 35 728 -24L737 -222C737 -236 739 -247 741 -255L803 -185ZM697 -301L465 -277L461 -283C509 -328 546 -371 586 -425ZM698 -267L692 -107C689 -42 685 -11 677 3L648 -21C634 -13 595 -4 476 10V-51L663 -74C677 -76 678 -81 666 -90L637 -112C610 -100 564 -91 476 -80V-145L663 -170C677 -172 676 -178 666 -184L627 -208C609 -197 583 -191 476 -177V-245Z"/>
</svg>