<svg xmlns="http://www.w3.org/2000/svg" viewBox="0 -1000 1000 1000">
	<path fill="#000000" d="M848 -695L806 -729C778 -715 688 -697 600 -689C600 -753 608 -785 617 -795C623 -801 621 -806 615 -811L559 -861L546 -853C558 -825 562 -787 562 -739V-687L309 -668L355 -632C386 -639 434 -644 562 -656V-586L378 -572L427 -537C465 -546 518 -553 786 -572C796 -572 797 -576 789 -584L751 -619C717 -605 673 -596 600 -589V-660L847 -683C854 -683 855 -689 848 -695ZM342 -769L299 -843L285 -839C286 -750 207 -586 37 -368L49 -358C102 -411 152 -475 203 -548V-117C203 -35 200 -24 181 7L217 79C222 90 229 89 232 80C239 52 241 34 241 -29V-608C259 -635 277 -665 294 -695C320 -741 329 -750 339 -754C345 -756 346 -762 342 -769ZM916 -257L872 -291C843 -276 812 -271 665 -260C687 -300 701 -315 716 -324C722 -328 724 -332 719 -340L700 -374L751 -379C761 -380 762 -386 755 -392L734 -414L739 -447C744 -478 750 -494 760 -500C766 -504 766 -508 760 -513L722 -546L700 -513L437 -486L416 -525L401 -519C406 -505 410 -486 411 -468L414 -419C416 -388 414 -378 407 -366L437 -325C442 -318 452 -321 452 -349L673 -372C670 -345 659 -314 634 -258L509 -247C513 -256 515 -263 518 -275L458 -334L451 -322L480 -246L265 -230L312 -195C387 -210 475 -218 913 -243C926 -244 926 -248 916 -257ZM778 -160L736 -196L709 -164L445 -139L418 -182L404 -175C410 -153 415 -119 415 -96L417 -4C417 16 414 30 405 45L439 102C443 110 451 110 452 100C454 80 454 66 452 37L757 14C768 13 770 8 761 0L737 -23L750 -100C754 -125 759 -134 777 -147C784 -152 783 -156 778 -160ZM705 -481L698 -408L450 -381L445 -457ZM713 -128L698 -14L452 4L449 -105Z"/>
</svg>