<svg xmlns="http://www.w3.org/2000/svg" viewBox="0 -1000 1000 1000">
	<path fill="#000000" d="M286 -728L165 -805L154 -789L264 -651C275 -637 283 -639 285 -657C287 -672 287 -687 286 -728ZM220 -412C222 -430 222 -441 220 -481L98 -553L87 -537L199 -408C210 -394 218 -396 220 -412ZM951 -327V-341C854 -358 838 -367 757 -509L884 -521C903 -523 904 -529 889 -539L853 -563C834 -553 789 -542 742 -537V-617C779 -626 815 -634 834 -638C848 -641 850 -647 841 -655L799 -693L788 -689C785 -673 735 -647 603 -607L610 -590C634 -594 666 -599 706 -609V-534L622 -526L597 -551C585 -546 564 -539 543 -534V-617C567 -624 604 -633 613 -634C626 -636 626 -642 619 -649L584 -684L573 -681C567 -664 509 -633 419 -604L425 -586C439 -589 477 -597 506 -607V-529L403 -514L425 -486C437 -490 467 -496 497 -500C466 -432 424 -366 376 -313L386 -300C433 -342 471 -382 506 -443V-390C506 -345 505 -334 495 -313L519 -267C530 -246 539 -247 541 -271C542 -281 543 -308 543 -377V-455L602 -397C613 -386 619 -387 620 -400C621 -414 620 -425 617 -447L543 -482V-506L603 -513L636 -490C646 -494 668 -499 691 -502C664 -438 613 -359 564 -312L575 -298C621 -339 675 -400 706 -457V-382C706 -345 702 -322 691 -304L715 -259C725 -240 731 -242 736 -263C740 -280 742 -312 742 -358V-485L825 -318ZM866 -760L820 -792C795 -777 698 -759 411 -733L381 -820L364 -815C374 -349 322 -126 201 53L223 67C348 -118 394 -308 410 -698L860 -741C881 -743 882 -749 866 -760ZM322 -518L301 -526L167 -74L71 -155L59 -139C106 -83 146 -34 173 4C183 18 189 16 193 -1ZM949 -25L907 -58C879 -46 804 -34 646 -25V-134L830 -153C844 -154 846 -158 837 -167L801 -199C772 -185 739 -176 646 -165C647 -192 650 -212 658 -226C662 -235 662 -240 655 -246L607 -295L594 -286C602 -271 608 -219 608 -160V-23L506 -16V-118C506 -158 508 -170 512 -178C516 -187 515 -193 509 -198L464 -241L453 -233C462 -213 467 -172 467 -116V-14L313 -4L355 38C410 26 595 9 943 -6C963 -7 964 -13 949 -25Z"/>
</svg>