<svg xmlns="http://www.w3.org/2000/svg" viewBox="0 -1000 1000 1000">
	<path fill="#000000" d="M948 -395V-413C815 -426 770 -439 647 -542C687 -581 727 -626 764 -675C775 -690 795 -706 805 -710C814 -713 814 -718 808 -724L759 -771L721 -731L539 -696C553 -722 566 -746 580 -774C586 -787 594 -799 604 -806C610 -811 610 -816 604 -822L556 -871L538 -866C549 -816 514 -699 388 -519L404 -509C435 -543 464 -581 490 -618C514 -603 556 -572 593 -542C523 -476 431 -413 300 -343L309 -327C430 -377 533 -436 621 -519C714 -442 765 -395 788 -371ZM199 -473L92 -606L79 -599C118 -524 133 -487 166 -405C171 -394 176 -393 181 -402C189 -416 194 -436 199 -473ZM417 -604L383 -665L367 -658C364 -622 354 -596 286 -511C289 -557 291 -607 292 -663C293 -717 300 -754 308 -772C311 -779 310 -784 305 -788L238 -850L224 -840C242 -802 247 -744 247 -658C246 -313 208 -170 52 20L63 34C164 -75 225 -164 256 -297C290 -269 321 -232 344 -197C350 -189 357 -188 358 -197C361 -217 362 -229 359 -269L262 -325C271 -369 279 -418 283 -472C367 -555 399 -583 412 -590C419 -594 420 -598 417 -604ZM892 -149L849 -184C833 -177 734 -161 625 -149V-227L764 -240C776 -241 775 -246 767 -253L731 -284C718 -277 674 -268 625 -261V-330L756 -345C767 -346 769 -351 760 -359L724 -389C712 -381 664 -369 625 -362C626 -386 631 -403 639 -413C643 -418 641 -423 634 -429L581 -474L568 -465C578 -448 584 -398 585 -358L402 -338L448 -300C473 -308 518 -317 585 -325V-257L410 -241L460 -204C486 -212 516 -217 585 -224V-146L344 -124L401 -80C433 -91 505 -105 585 -112C585 -30 581 -16 562 29L602 99C609 110 614 110 617 100C623 76 625 53 625 18V-115L888 -136C899 -137 901 -141 892 -149ZM715 -696C686 -649 654 -606 616 -566C553 -620 546 -628 542 -638L503 -637C510 -648 518 -660 525 -672L549 -654C579 -664 605 -671 715 -696Z"/>
</svg>