<svg xmlns="http://www.w3.org/2000/svg" viewBox="0 -1000 1000 1000">
	<path fill="#000000" d="M667 -759L578 -857L564 -847L627 -699C634 -682 639 -682 648 -698C656 -714 662 -736 667 -759ZM886 -672L837 -716L807 -682L453 -642C452 -685 451 -696 449 -709H430C427 -616 411 -553 385 -520L408 -476C413 -467 417 -467 424 -476C444 -501 454 -543 454 -605L808 -645L766 -542L780 -535C841 -621 859 -643 881 -655C894 -662 894 -665 886 -672ZM804 -478L652 -580L645 -566C706 -508 745 -462 778 -414C789 -399 794 -400 798 -413C802 -428 804 -450 804 -478ZM192 -455L99 -585L85 -577L154 -402C160 -386 166 -385 172 -396C182 -415 187 -430 192 -455ZM569 -531L533 -585L521 -579C521 -552 507 -505 383 -379L391 -366C433 -396 494 -449 529 -489C539 -500 552 -509 565 -514C574 -517 575 -523 569 -531ZM382 -569L350 -624L337 -616C341 -596 318 -535 264 -474C268 -550 271 -619 272 -670C274 -724 282 -758 293 -776C298 -784 297 -788 291 -793L227 -857L215 -849C227 -813 230 -765 231 -672C235 -233 173 -124 42 44L54 53C155 -42 219 -144 247 -306L328 -188C335 -179 340 -178 345 -189C351 -204 352 -226 351 -249L251 -327C256 -362 259 -397 261 -438C338 -519 361 -540 378 -550C386 -555 387 -560 382 -569ZM950 -187V-205C845 -212 795 -228 707 -320L624 -408C629 -413 634 -417 639 -420C651 -428 652 -431 645 -442L608 -497L595 -492C591 -463 582 -437 554 -394C497 -305 398 -195 293 -123L299 -106C352 -137 403 -172 449 -215C456 -194 461 -161 461 -139V-29C461 -6 456 17 445 37L479 95C487 107 491 106 496 94C499 87 500 77 500 38L734 25C747 24 749 20 739 11L712 -16L730 -132C735 -156 740 -171 749 -182C755 -188 756 -192 748 -199L709 -235L686 -208L489 -191L467 -232C507 -271 546 -314 585 -364C592 -374 599 -382 606 -390L803 -166ZM693 -175L673 -10L500 3V-160Z"/>
</svg>