<svg xmlns="http://www.w3.org/2000/svg" viewBox="0 -1000 1000 1000">
	<path fill="#000000" d="M921 -215C821 -224 799 -235 698 -353C716 -379 732 -407 746 -439C760 -471 775 -497 783 -503C787 -506 787 -512 782 -520L762 -551L875 -568C884 -569 885 -575 878 -581L839 -614C814 -595 792 -587 621 -560C636 -597 650 -641 665 -695C676 -737 684 -749 692 -758C696 -764 697 -767 691 -773L639 -834L623 -824C633 -804 631 -749 623 -703C607 -614 590 -561 554 -483L519 -505C503 -496 448 -483 397 -475V-542L504 -557C515 -559 517 -562 507 -569L471 -593C454 -586 429 -579 397 -573V-636L548 -654C558 -655 560 -660 551 -667L516 -694C501 -686 434 -672 397 -668C397 -734 403 -763 413 -777C417 -783 416 -787 410 -792L352 -835L340 -824C356 -799 360 -764 360 -665L157 -642L206 -608C227 -615 309 -626 360 -632V-570L208 -546L255 -516C272 -521 318 -533 360 -538V-472L100 -435L153 -400C174 -409 243 -422 332 -435C282 -308 211 -224 93 -136L102 -123C200 -177 268 -246 322 -334L440 -359C420 -286 407 -250 384 -217L323 -261L311 -249C344 -209 361 -187 382 -155C386 -149 391 -148 395 -154C421 -185 449 -240 474 -331C481 -356 487 -365 503 -374C509 -378 509 -382 504 -387L471 -421L440 -389L342 -371C355 -393 368 -417 380 -441L545 -466C537 -449 527 -430 518 -414L534 -403C549 -423 563 -444 574 -465C585 -454 598 -436 606 -425L655 -353C601 -273 528 -213 447 -164L457 -148C545 -196 619 -253 676 -322L774 -181L920 -194ZM631 -37L546 -156L533 -147C557 -91 569 -48 582 17C586 35 593 37 602 25C614 9 625 -16 631 -37ZM830 -23L704 -164L693 -154C736 -83 762 -30 789 37C796 55 802 54 811 38C819 24 825 1 830 -23ZM444 -24L371 -134L359 -128C370 -92 378 -54 391 20C394 37 399 39 411 27C424 14 432 2 444 -24ZM261 -164H244C222 -62 209 -34 171 4L183 56C188 75 192 76 205 62C236 29 261 -46 261 -164ZM734 -546C730 -511 707 -438 674 -382C632 -433 610 -467 606 -483L587 -486C595 -500 601 -513 608 -526Z"/>
</svg>