<svg xmlns="http://www.w3.org/2000/svg" viewBox="0 -1000 1000 1000">
	<path fill="#000000" d="M534 -601L499 -622C474 -610 416 -598 350 -589V-659L476 -672C495 -674 496 -680 479 -693L452 -711C434 -702 397 -695 350 -689C351 -730 356 -760 365 -778C370 -789 370 -793 361 -801L308 -847L296 -840C309 -807 313 -784 313 -685L158 -670L203 -633C227 -640 268 -649 313 -654V-585L74 -555L120 -523C147 -532 199 -541 253 -548C238 -499 178 -437 104 -384L113 -370C167 -405 188 -419 245 -471C261 -485 275 -494 287 -501C294 -505 296 -509 292 -519L279 -550L531 -583C549 -585 550 -592 534 -601ZM925 -205C915 -257 910 -311 906 -390L889 -391L876 -237C781 -286 746 -364 753 -499C756 -553 760 -576 776 -588C787 -595 787 -601 777 -609L740 -640L714 -603L643 -589C653 -717 658 -750 669 -769C675 -779 674 -783 668 -790L616 -849L605 -842C616 -797 616 -717 605 -583L503 -565L548 -533C562 -538 582 -543 602 -547C598 -502 591 -461 580 -423L535 -454L526 -443C542 -429 557 -413 571 -396C547 -325 502 -248 429 -165L441 -153C519 -225 568 -293 597 -366C621 -337 647 -303 663 -278C670 -267 678 -268 680 -281C683 -303 683 -328 679 -345L609 -399C625 -449 635 -501 640 -555L720 -573C712 -483 717 -403 729 -358C748 -282 809 -204 911 -188C925 -186 928 -190 925 -205ZM501 -436C502 -456 499 -473 490 -496L370 -555L363 -543L485 -432C495 -423 500 -424 501 -436ZM488 -278L485 -295L347 -270V-356L461 -371C473 -373 475 -378 463 -387L434 -408C421 -400 388 -391 347 -384C348 -413 353 -435 359 -443C366 -452 364 -458 358 -463L312 -499L300 -493C308 -470 310 -435 310 -379L177 -361L222 -331C238 -336 263 -342 310 -350V-264L120 -227L175 -190C206 -205 242 -217 488 -278ZM450 -41L381 -157L368 -150L403 23C405 33 411 34 418 25C431 9 441 -8 450 -41ZM641 -44L560 -156L548 -147L603 26C607 38 611 39 620 26C629 13 637 -10 641 -44ZM853 -40L719 -165L708 -155L827 47C834 58 842 58 845 45C850 21 852 4 853 -40ZM253 -153L236 -156C212 -67 190 -36 140 -9L154 56C156 67 162 68 172 60C216 26 238 -36 253 -153Z"/>
</svg>