<svg xmlns="http://www.w3.org/2000/svg" viewBox="0 -1000 1000 1000">
	<path fill="#000000" d="M188 -437L102 -570L89 -563C110 -506 132 -439 146 -383C149 -371 156 -370 163 -381C176 -401 181 -414 188 -437ZM389 -567L357 -629L345 -625C345 -584 330 -546 263 -451C266 -505 269 -566 270 -627C272 -736 279 -755 287 -768C293 -777 293 -781 284 -789L222 -844L211 -837C226 -796 231 -741 230 -597C227 -259 172 -145 47 38L64 48C177 -97 212 -161 240 -278C276 -234 311 -183 334 -143C341 -131 349 -132 353 -146C358 -162 359 -186 358 -215L246 -307C251 -333 255 -369 259 -411C354 -524 374 -545 385 -549C393 -552 394 -557 389 -567ZM880 -489C890 -496 890 -501 880 -510L842 -544L810 -506L514 -476C531 -495 544 -507 550 -510C558 -514 558 -518 555 -527L539 -566L804 -597C819 -599 821 -602 811 -614L793 -635L807 -737C809 -753 817 -768 828 -776C839 -784 838 -788 829 -796L793 -829L766 -796L457 -757L430 -820L416 -816C422 -788 427 -741 428 -693L430 -627C431 -602 424 -573 415 -554L446 -509C453 -499 458 -499 461 -511C463 -521 464 -537 464 -557L518 -564C502 -508 441 -427 336 -314L345 -303C386 -335 439 -383 487 -440L545 -446C548 -426 549 -384 549 -348L469 -338L447 -385L435 -379C441 -357 441 -346 441 -316V-244C441 -229 437 -208 429 -192L458 -154C464 -146 468 -146 471 -158C473 -166 474 -183 474 -201L549 -209V-127L347 -90L398 -49C421 -64 462 -79 685 -131L712 -73C718 -61 724 -62 730 -74C735 -84 738 -99 743 -123L666 -202L654 -194L675 -148L585 -132V-212L698 -224C714 -226 715 -229 704 -240L687 -258L698 -315C701 -333 707 -343 716 -348C725 -353 725 -360 717 -367L686 -394L658 -362L585 -352C586 -376 589 -400 593 -406C598 -413 597 -417 590 -424L566 -448L816 -476C799 -243 768 -43 740 21L643 -61L632 -50C662 -14 707 46 736 90C742 101 748 100 755 89C799 18 817 -64 855 -425C859 -464 863 -477 880 -489ZM771 -767L758 -624L676 -613V-753ZM643 -609L577 -600V-741L643 -750ZM544 -596L464 -585L461 -727L544 -737ZM663 -334L653 -249L585 -241V-323ZM549 -238L474 -230V-309L549 -319Z"/>
</svg>