<svg xmlns="http://www.w3.org/2000/svg" viewBox="0 -1000 1000 1000">
	<path fill="#000000" d="M186 -494L98 -626L84 -620L154 -422C158 -412 162 -412 167 -422C178 -443 184 -466 186 -494ZM902 -201L868 -234C837 -225 753 -214 632 -205V-268L817 -282C828 -283 828 -286 819 -295L788 -326C760 -313 730 -308 632 -299V-364L816 -379C828 -380 828 -383 818 -393L793 -419L807 -509C811 -537 817 -547 830 -554C839 -559 840 -566 830 -574L792 -606L765 -571L632 -559V-624L897 -646C908 -647 909 -651 901 -659L865 -694C846 -683 810 -675 632 -657V-741C659 -747 701 -758 754 -772C773 -777 792 -780 808 -781C818 -782 820 -787 810 -794L758 -833L746 -829C726 -805 578 -752 388 -715L391 -697C443 -703 509 -715 595 -733V-654L379 -633L413 -598C456 -607 495 -612 595 -621V-556L456 -544L429 -586L417 -581C426 -557 431 -529 431 -496L432 -424C432 -404 425 -384 415 -372L445 -322C450 -313 456 -314 459 -322C461 -327 462 -338 463 -350L595 -361V-296L410 -280L442 -248C471 -257 496 -259 595 -266V-201L362 -183L399 -147C458 -163 556 -170 900 -189C910 -190 911 -193 902 -201ZM385 -598L358 -667L343 -662C346 -632 317 -568 265 -485C267 -524 269 -562 269 -597C270 -729 275 -748 289 -768C294 -775 293 -779 288 -785L230 -857L215 -849C226 -815 231 -760 231 -656C232 -262 184 -142 42 41L55 53C165 -62 216 -163 240 -274L341 -148C349 -138 354 -140 355 -149C357 -170 356 -189 352 -221L245 -299C252 -335 258 -390 262 -447C356 -563 366 -573 380 -580C388 -584 389 -589 385 -598ZM849 -41L744 -153L733 -144L819 36C825 50 832 49 836 37C841 22 845 -7 849 -41ZM706 -33L627 -132L614 -124L674 37C679 49 684 50 689 38C697 18 701 3 706 -33ZM586 -29L519 -125L506 -119L547 41C550 52 557 53 563 42C573 23 580 5 586 -29ZM450 -128H434C421 -48 402 -18 359 12L366 70C367 82 373 83 382 73C419 33 444 -22 450 -128ZM772 -540L757 -406L676 -399C707 -454 713 -461 726 -469C733 -473 733 -477 728 -485L704 -526L689 -523C688 -487 675 -452 646 -397L632 -396V-528ZM595 -393L547 -389C554 -405 560 -430 560 -445L502 -505L491 -499L535 -389L464 -383V-514L595 -525Z"/>
</svg>