<svg xmlns="http://www.w3.org/2000/svg" viewBox="0 -1000 1000 1000">
	<path fill="#000000" d="M460 -504L425 -533C407 -524 396 -520 378 -516V-682C378 -721 382 -744 389 -755C396 -768 396 -774 386 -783L333 -837L321 -829C337 -791 340 -758 340 -696V-510L243 -494C244 -533 244 -574 244 -618C244 -636 250 -661 255 -668C262 -677 261 -680 255 -685L194 -745L182 -737C201 -693 207 -580 204 -464C198 -239 159 -91 70 41L86 51C162 -45 207 -151 228 -300L340 -319V-114C340 -69 335 -42 319 -22L354 48C362 65 367 66 372 44C380 15 382 -9 382 -80V-293C382 -318 387 -330 403 -341C410 -346 409 -351 404 -355L354 -390L331 -353L232 -336C237 -373 240 -414 242 -460L458 -491C467 -492 467 -497 460 -504ZM923 -238L873 -275C829 -258 783 -247 695 -237C695 -289 699 -317 706 -328C714 -340 713 -345 703 -353L665 -385L836 -404C853 -405 853 -411 842 -419L812 -441L830 -599C835 -643 839 -651 857 -666C864 -671 865 -677 856 -684L815 -715L787 -680L596 -657C632 -735 646 -755 666 -769C671 -773 671 -778 665 -786L624 -841L611 -836C611 -781 607 -750 559 -654L505 -648L474 -710L459 -705C468 -659 471 -636 472 -610L476 -497C478 -440 468 -403 459 -390L492 -328C501 -312 506 -313 510 -331C512 -341 513 -351 513 -369L578 -375C553 -318 517 -269 468 -214L395 -207L447 -170C471 -177 545 -189 657 -200V-81C657 -45 652 -17 636 6L667 70C676 87 681 87 687 69C693 51 695 23 695 -28V-203L919 -225C933 -226 933 -231 923 -238ZM627 -626C624 -596 621 -567 618 -541L510 -527L508 -614ZM794 -644L774 -434L627 -416C638 -447 645 -473 651 -509L754 -523C767 -524 768 -529 759 -536L724 -565C711 -558 686 -551 656 -546C660 -571 663 -593 667 -630ZM613 -504C607 -469 600 -440 590 -412L513 -403L510 -510L535 -489C555 -495 575 -499 613 -504ZM657 -233L500 -216C565 -283 598 -334 616 -379L637 -382C653 -344 657 -320 657 -233Z"/>
</svg>