<svg xmlns="http://www.w3.org/2000/svg" viewBox="0 -1000 1000 1000">
	<path fill="#000000" d="M566 -652L491 -738L480 -732C508 -670 517 -644 529 -606C532 -599 535 -599 540 -605C550 -615 557 -628 566 -652ZM267 -653L176 -721L163 -707C205 -654 226 -622 245 -583C249 -575 257 -575 261 -586C266 -601 268 -620 267 -653ZM896 -180L851 -216C807 -198 751 -190 516 -169V-276L724 -297C737 -298 738 -302 726 -313L689 -345C643 -327 590 -317 516 -308C516 -354 520 -373 529 -384C533 -389 532 -394 524 -400L495 -424L804 -458L768 -369L786 -361C832 -436 861 -469 894 -485C903 -489 903 -494 895 -500L839 -539L804 -493L741 -486C746 -510 744 -536 739 -556L621 -616C622 -619 624 -622 625 -626C738 -708 755 -717 770 -721C778 -723 780 -727 778 -736L759 -805L740 -800C740 -772 720 -739 633 -663C651 -775 654 -788 663 -801C667 -807 666 -813 661 -817L601 -863L589 -851C608 -820 610 -783 593 -656C584 -589 550 -530 486 -457L447 -452C453 -474 454 -493 449 -519L340 -588C343 -597 345 -604 347 -614C408 -657 449 -683 464 -687C472 -689 474 -693 469 -703L441 -754L424 -749C427 -732 412 -706 352 -647C366 -764 368 -772 380 -785C385 -790 383 -797 377 -802L315 -852L304 -841C320 -815 325 -729 309 -631C296 -549 273 -502 207 -425L172 -421C173 -437 173 -457 173 -468H150C145 -413 134 -390 95 -343L108 -283C110 -275 115 -273 121 -281C139 -304 157 -341 167 -388L462 -421C472 -392 476 -362 476 -303L330 -287C339 -303 355 -322 362 -325C371 -329 372 -333 366 -340L321 -393L308 -385C316 -354 298 -287 216 -162L236 -151C258 -179 298 -234 316 -265L343 -249C369 -259 420 -267 476 -273V-166L85 -129L134 -83C163 -96 273 -115 476 -132V-107C476 -43 468 -8 453 17L491 99C495 108 501 108 505 99C512 82 516 55 516 -74V-135L894 -166C905 -167 906 -171 896 -180ZM723 -484L521 -462C563 -498 594 -539 614 -590C659 -561 694 -526 723 -484ZM434 -451L241 -429C280 -464 311 -508 333 -564C373 -531 404 -493 434 -451Z"/>
</svg>