<svg xmlns="http://www.w3.org/2000/svg" viewBox="0 -1000 1000 1000">
	<path fill="#000000" d="M856 -776C861 -780 862 -785 850 -795L812 -827L787 -784L558 -761L521 -826L507 -819C513 -797 518 -758 520 -713L523 -638C525 -606 521 -592 511 -576L546 -523C552 -514 560 -515 561 -524C562 -534 562 -548 562 -577L828 -600C843 -601 845 -608 836 -618L822 -634L831 -731C833 -747 841 -764 856 -776ZM422 -755L388 -831L374 -826C378 -789 353 -729 291 -648C254 -702 214 -744 180 -774L166 -757C207 -714 243 -670 271 -623C228 -569 168 -508 90 -439L101 -425C161 -467 228 -527 288 -593C306 -557 319 -520 329 -482C277 -401 190 -295 73 -186L81 -174C185 -254 272 -336 340 -419C352 -329 351 -236 341 -135C338 -98 326 -63 313 -42L197 -131L188 -119C239 -61 278 -14 308 35C315 46 320 47 328 38C345 17 368 -21 382 -144C401 -328 383 -502 311 -619C389 -717 398 -727 415 -735C427 -741 428 -743 422 -755ZM868 -496C874 -502 875 -507 867 -514L820 -550L796 -500L532 -474L487 -542L474 -533C484 -501 490 -443 490 -408V-133C490 -82 479 -54 466 -36L505 51C510 63 516 64 520 49C524 33 529 -16 529 -91V-179L773 -198C794 -200 794 -205 779 -215L737 -244C711 -230 690 -225 529 -212V-303L758 -324C774 -325 776 -332 764 -340L721 -369C698 -353 679 -350 529 -336V-440L814 -467V-91C814 -49 810 -30 803 -18L701 -84L693 -71C746 -15 789 36 809 69C815 79 820 79 827 71C842 52 854 12 854 -56V-429C854 -468 857 -484 868 -496ZM794 -750L785 -632L561 -608L557 -729Z"/>
</svg>