<svg xmlns="http://www.w3.org/2000/svg" viewBox="0 -1000 1000 1000">
	<path fill="#000000" d="M592 -722L481 -823L467 -813L559 -654C564 -645 570 -646 574 -654C582 -671 588 -694 592 -722ZM941 -643L901 -679C887 -669 824 -654 705 -642C756 -744 778 -776 800 -790C809 -795 809 -801 803 -808L748 -872L732 -863C741 -812 738 -789 671 -639L325 -606L388 -565C417 -575 495 -589 561 -596C562 -532 561 -506 560 -475L474 -465L442 -533L424 -527C436 -477 441 -438 441 -392L442 -115C442 -64 433 -28 419 -14L461 72C465 80 471 79 474 71C481 55 483 41 483 9L780 -19L805 52C809 63 813 65 819 54C832 31 840 -13 841 -71L845 -440C845 -453 853 -467 872 -480C880 -486 881 -493 875 -498L820 -542L795 -500L704 -490V-610L937 -631C948 -632 949 -636 941 -643ZM400 -765L363 -830L348 -827C347 -788 329 -734 265 -649C232 -688 171 -741 131 -765L122 -751C181 -704 213 -665 245 -623C207 -576 150 -516 86 -455L98 -442C176 -504 224 -546 264 -591C276 -568 285 -537 292 -506C249 -402 167 -266 63 -157L74 -144C160 -215 206 -268 303 -426C312 -332 311 -219 299 -121C293 -72 282 -32 268 -8L160 -85L150 -71C184 -38 231 18 261 68C268 79 274 80 281 70C307 31 331 -36 341 -115C363 -296 350 -509 289 -617C311 -642 333 -670 358 -703C375 -726 387 -739 397 -746C404 -751 405 -757 400 -765ZM666 -486L597 -478C599 -509 600 -539 600 -599L666 -605ZM803 -467L801 -293L784 -310C726 -290 704 -296 704 -317V-456ZM557 -441C549 -351 532 -280 481 -221L479 -432ZM801 -266L799 -138C798 -84 794 -49 785 -33L743 -62C710 -51 638 -40 483 -23L481 -196C563 -268 584 -322 595 -444L666 -452V-325C666 -283 673 -268 709 -263C734 -259 772 -261 801 -266ZM762 -171L725 -197C704 -187 635 -173 496 -164L546 -127C575 -138 643 -147 758 -158C769 -159 770 -165 762 -171Z"/>
</svg>