<svg xmlns="http://www.w3.org/2000/svg" viewBox="0 -1000 1000 1000">
	<path fill="#000000" d="M945 -514L895 -567L861 -528L770 -520L784 -698C786 -727 791 -742 809 -758C816 -765 817 -769 810 -775L767 -812L740 -779L511 -758L485 -810L469 -805C477 -762 483 -684 483 -637V-496L431 -491C430 -514 423 -539 417 -562L403 -557C401 -459 387 -426 361 -398L381 -352C385 -342 390 -341 397 -351C418 -378 429 -415 431 -456L854 -492L817 -410L829 -400C877 -462 906 -484 944 -498C952 -502 952 -507 945 -514ZM411 -761L371 -833L354 -827C364 -802 335 -734 262 -647C224 -690 174 -722 120 -748L113 -732C166 -702 202 -672 241 -622C190 -561 138 -510 76 -458L87 -444C143 -482 206 -534 261 -592C277 -567 286 -538 294 -507C246 -431 165 -330 54 -224L64 -213C149 -276 236 -360 305 -448C314 -379 313 -302 309 -230C304 -147 279 -70 255 -30L153 -103L143 -88C190 -36 222 0 251 41C260 53 264 53 272 43C314 -14 348 -116 350 -258C352 -436 338 -542 286 -618C309 -642 325 -661 348 -690C367 -715 394 -739 406 -744C414 -748 415 -753 411 -761ZM796 -395C802 -401 803 -405 795 -412L751 -446L728 -411L515 -387L485 -439L470 -435C478 -404 482 -356 482 -310V-98C482 -45 476 -15 464 7L497 58C506 72 511 73 515 56C519 37 521 16 521 -109V-142L705 -163C716 -164 716 -169 708 -176L675 -205C657 -196 600 -187 521 -177V-246L697 -268C708 -269 709 -273 700 -281L668 -308C646 -298 603 -290 521 -280V-350L737 -375V-112C737 -66 735 -36 731 -10L643 -55L635 -38C687 5 721 43 743 75C750 85 755 85 760 74C773 47 777 10 777 -114V-338C777 -368 782 -381 796 -395ZM743 -740L731 -517L643 -510L652 -603C653 -611 661 -627 669 -632C678 -638 676 -643 669 -649L632 -679L612 -649L520 -639V-722ZM613 -613L605 -506L520 -498V-602Z"/>
</svg>