<svg xmlns="http://www.w3.org/2000/svg" viewBox="0 -1000 1000 1000">
	<path fill="#000000" d="M534 -721L450 -818L438 -809L501 -661C505 -651 511 -650 517 -660C526 -676 531 -697 534 -721ZM864 -612L777 -697L765 -688L837 -554C843 -543 848 -543 853 -554C857 -565 860 -583 864 -612ZM643 -627L608 -654C595 -643 513 -623 303 -605L349 -568C378 -578 430 -588 641 -611C654 -612 655 -618 643 -627ZM591 -506L562 -531C545 -518 487 -505 351 -489L396 -456C413 -464 437 -470 588 -490C600 -491 601 -497 591 -506ZM600 -402L568 -428C546 -414 488 -402 348 -385L391 -353C406 -360 431 -364 595 -389C608 -391 608 -396 600 -402ZM952 46V28C848 14 841 -1 803 -160L735 -457L896 -476C910 -478 911 -483 899 -492L859 -521C846 -511 808 -496 726 -486C742 -733 746 -761 757 -780C762 -788 761 -794 755 -799L697 -852L686 -845C704 -790 708 -718 691 -482L569 -468L611 -434C627 -439 657 -446 689 -450C665 -192 594 -27 457 81L465 96C597 4 697 -167 720 -398L805 46ZM368 -744L329 -812L313 -806C319 -767 302 -716 240 -629C201 -696 155 -743 114 -772L102 -756C151 -710 189 -669 221 -603C187 -562 135 -505 73 -445L81 -433C153 -493 202 -537 236 -573C247 -544 256 -518 262 -490C212 -363 153 -270 61 -158L71 -146C140 -209 218 -306 273 -414C282 -316 283 -244 274 -157C267 -85 251 -34 233 -4L129 -87L121 -74C179 -8 202 23 233 71C238 79 243 79 248 71C277 26 308 -68 313 -151C327 -355 306 -499 258 -597C344 -711 357 -725 365 -730C370 -733 371 -738 368 -744ZM593 -297L555 -328L532 -292L417 -275L391 -332L377 -325C384 -299 389 -249 389 -223V-126C389 -97 385 -82 375 -71L399 -10C403 1 410 2 414 -11C418 -25 420 -56 420 -98L569 -115C578 -116 580 -120 572 -129L558 -144L570 -239C572 -256 580 -270 592 -279C602 -287 602 -290 593 -297ZM538 -263L526 -141L420 -128V-246Z"/>
</svg>