<svg xmlns="http://www.w3.org/2000/svg" viewBox="0 -1000 1000 1000">
	<path fill="#000000" d="M534 -585L463 -678L448 -671L498 -532C503 -519 507 -518 516 -531C526 -546 532 -564 534 -585ZM911 -514L872 -551L842 -515L739 -498C773 -610 782 -631 796 -644C804 -651 804 -654 794 -669L749 -727L736 -721C750 -656 735 -536 668 -395L685 -386C700 -412 714 -438 726 -465L842 -482L803 -382L820 -373C868 -457 885 -476 910 -494C917 -499 918 -507 911 -514ZM899 -761L852 -794C811 -777 733 -767 413 -735L383 -823L364 -819C370 -774 372 -732 374 -618C379 -252 353 -144 252 15L268 26C393 -143 417 -239 415 -700L893 -745C909 -746 909 -753 899 -761ZM346 -754L318 -827L302 -823C296 -786 281 -738 236 -672C211 -714 183 -744 141 -779L128 -765C163 -728 192 -689 213 -641C184 -600 142 -553 84 -497L93 -484C142 -520 183 -555 229 -607C238 -586 247 -552 253 -520C220 -437 145 -341 54 -253L64 -238C146 -306 203 -362 262 -446C270 -352 264 -226 243 -132C233 -89 217 -47 206 -28L115 -87L106 -72C150 -27 177 4 205 49C211 60 216 60 225 47C250 7 271 -56 283 -117C320 -310 317 -509 255 -638C298 -702 317 -725 343 -738C348 -740 349 -744 346 -754ZM701 -514L665 -539C653 -532 626 -525 590 -520C634 -617 641 -628 651 -636C657 -641 659 -647 653 -657L619 -713L602 -708C608 -673 602 -644 562 -517L420 -498L452 -466C468 -471 489 -477 521 -481C527 -418 529 -352 522 -281L482 -274L480 -323C480 -348 482 -358 487 -365C491 -371 490 -376 483 -382L444 -415L432 -404C440 -385 443 -370 444 -339L446 -290C447 -274 441 -262 427 -248L460 -224C467 -219 472 -220 476 -227C481 -236 494 -244 520 -250C506 -122 445 -48 353 41L362 54C489 -40 546 -137 558 -256L597 -261L613 -224C616 -216 621 -216 627 -225C634 -236 636 -242 642 -286L651 -347C654 -368 656 -375 663 -382C667 -386 667 -391 662 -398L622 -445L609 -437C614 -419 617 -391 615 -371L609 -319C608 -307 606 -299 603 -293L560 -286C561 -308 561 -330 562 -352C564 -401 567 -426 572 -437C576 -445 575 -450 570 -456L547 -483L698 -500C710 -501 710 -508 701 -514ZM973 19V0C883 -16 856 -43 800 -205L766 -300C775 -347 782 -367 788 -374C792 -381 792 -385 784 -394L737 -446L723 -437C733 -408 735 -345 721 -276C697 -146 617 -42 496 48L506 64C628 -16 718 -114 754 -241L839 23Z"/>
</svg>