<svg xmlns="http://www.w3.org/2000/svg" viewBox="0 -1000 1000 1000">
	<path fill="#000000" d="M888 -76L829 -121C785 -102 678 -84 518 -76V-394L770 -418C781 -419 782 -425 772 -432L721 -470C695 -456 633 -441 518 -429V-519C518 -556 522 -583 535 -614C538 -621 537 -626 532 -631L496 -667L804 -694C816 -695 818 -701 808 -708L752 -748C703 -726 565 -704 185 -676L242 -632C292 -646 382 -660 469 -666C475 -644 478 -604 478 -560V-425L205 -399L256 -358C293 -367 368 -379 478 -390V-74L103 -54L165 -6C242 -24 335 -31 886 -64C898 -64 898 -68 888 -76ZM763 -249L605 -353L595 -340L744 -179C749 -173 753 -173 756 -181C762 -199 764 -222 763 -249Z"/>
</svg>