<svg xmlns="http://www.w3.org/2000/svg" viewBox="0 -1000 1000 1000">
	<path fill="#000000" d="M573 -750L538 -780C503 -762 421 -750 108 -721L162 -682C182 -690 223 -697 280 -704L281 -623L223 -616L195 -670L177 -665C183 -637 186 -620 188 -573L191 -500C192 -479 190 -461 179 -445L214 -394C218 -388 225 -389 228 -398C231 -406 231 -414 230 -437L521 -472C531 -473 532 -475 524 -485L508 -505L522 -582C529 -615 533 -622 549 -631C554 -635 554 -641 549 -645L508 -680L485 -646L420 -638L428 -721L572 -736C583 -737 584 -741 573 -750ZM465 -395L435 -420C422 -410 388 -401 192 -376L233 -340C257 -349 316 -362 463 -381C473 -382 473 -388 465 -395ZM969 6V-16C890 -34 878 -61 859 -164L782 -582C774 -628 772 -662 778 -677C780 -685 779 -688 773 -692L759 -701C790 -713 822 -724 857 -735C865 -737 866 -740 858 -750L816 -797H809C792 -762 727 -723 633 -681L595 -734L579 -729C586 -703 590 -671 588 -612C579 -307 544 -154 395 46L409 60C562 -100 619 -309 627 -650C642 -656 652 -661 663 -666C668 -643 668 -629 667 -584L658 -180C658 -71 653 -65 612 -34L655 -6C662 -2 667 -5 672 -11C687 -31 707 -55 740 -86L751 -38C754 -27 759 -26 765 -33C776 -43 786 -57 798 -79L733 -186L718 -179L734 -112L696 -87L702 -477C703 -539 706 -597 716 -622C720 -631 719 -635 713 -643L686 -675C702 -681 717 -686 734 -693L845 7ZM489 -124C494 -143 494 -162 489 -189L391 -234L384 -222L474 -123C481 -116 486 -115 489 -124ZM523 -306L488 -337C472 -327 427 -310 112 -281L156 -241C175 -249 244 -261 325 -270V-121C325 -60 324 -36 319 -22L225 -92L212 -75C271 -18 288 1 328 53C332 59 340 60 345 53C358 34 364 7 364 -86V-202C364 -219 366 -231 371 -239C374 -246 374 -251 370 -256L355 -273L520 -293C531 -294 532 -298 523 -306ZM276 -184L252 -230H241C225 -188 184 -133 75 -31L87 -14C147 -56 185 -87 252 -155C258 -160 266 -164 271 -167C279 -172 281 -176 276 -184ZM389 -717L382 -634L319 -627L318 -708ZM491 -614L468 -501L407 -492L417 -604ZM379 -600L369 -488L320 -481L319 -593ZM285 -477L229 -469L224 -583L282 -590Z"/>
</svg>