<svg xmlns="http://www.w3.org/2000/svg" viewBox="0 -1000 1000 1000">
	<path fill="#000000" d="M954 -35C937 -120 927 -188 920 -270L901 -269L894 -71C865 -56 827 -53 795 -67C765 -79 741 -113 755 -266L775 -471C779 -516 788 -532 810 -548C818 -554 818 -559 812 -564L762 -609L732 -565L607 -550L624 -712L879 -740C890 -741 891 -745 882 -753L840 -791C817 -771 725 -755 460 -730L506 -692C519 -697 554 -704 584 -707L527 -174C520 -118 514 -108 490 -89L529 -48C534 -43 540 -44 545 -50C581 -91 623 -130 714 -195C709 -107 724 -66 769 -33C797 -13 872 -8 945 -19C953 -20 956 -24 954 -35ZM529 -772L496 -804C451 -784 340 -768 57 -740L101 -700C132 -708 172 -718 233 -724C236 -704 237 -672 239 -585L181 -578L151 -638L134 -630C143 -594 148 -557 148 -534L149 -455C149 -422 145 -400 137 -385L168 -325C171 -319 178 -319 180 -327C183 -341 184 -347 184 -373L280 -386C283 -364 284 -329 284 -245L133 -222L168 -185C194 -193 236 -202 284 -209V-76L74 -18L134 21C167 1 232 -24 463 -103L459 -123L323 -88V-215L453 -235C460 -236 461 -240 454 -246L418 -278C393 -266 356 -256 323 -249C323 -312 326 -333 336 -349C339 -353 338 -359 333 -364L308 -390L499 -414C507 -415 508 -420 502 -425L474 -451L483 -538C488 -582 491 -588 504 -597C511 -602 511 -607 505 -612L469 -644L445 -613L378 -603C381 -681 382 -687 391 -701C397 -711 395 -718 370 -739L527 -757C536 -758 538 -763 529 -772ZM341 -599L275 -590C272 -667 274 -683 284 -696C290 -704 288 -711 266 -727L339 -735C343 -715 345 -687 341 -599ZM447 -578L437 -444L371 -433L377 -569ZM340 -565L337 -429L278 -421L275 -555ZM242 -417L184 -408L182 -544L239 -551ZM736 -534L715 -222L562 -126L592 -412L662 -306C669 -295 674 -295 677 -306C682 -323 683 -351 679 -370L595 -438L604 -518Z"/>
</svg>