<svg xmlns="http://www.w3.org/2000/svg" viewBox="0 -1000 1000 1000">
	<path fill="#000000" d="M751 -758L699 -795C657 -779 584 -761 259 -737L315 -691C380 -704 435 -715 748 -746C758 -747 760 -752 751 -758ZM880 -550L828 -592C756 -565 577 -544 117 -517L174 -468C205 -477 278 -487 393 -497C400 -456 392 -384 355 -277C323 -182 277 -80 75 32L82 47C291 -27 376 -147 432 -374C441 -412 449 -429 456 -438C460 -444 460 -449 456 -455L422 -499L876 -536C890 -537 891 -541 880 -550ZM910 -3C891 -79 879 -161 873 -258H855L840 -33C818 -27 758 -21 710 -21C591 -21 583 -55 583 -178V-332C583 -389 589 -415 600 -438C604 -446 602 -451 597 -456L544 -505L530 -501C539 -453 540 -425 540 -341V-162C540 -13 565 24 712 24C782 24 856 20 900 13C910 12 912 8 910 -3Z"/>
</svg>