<svg xmlns="http://www.w3.org/2000/svg" viewBox="0 -1000 1000 1000">
	<path fill="#000000" d="M583 -605L474 -736L464 -727L541 -555C551 -535 555 -534 565 -553C573 -568 577 -581 583 -605ZM425 -677L381 -713L354 -671L142 -648L105 -737L91 -731C100 -687 106 -630 108 -557L115 -335C119 -245 118 -232 104 -204L140 -138C146 -128 151 -127 154 -140C157 -153 158 -168 156 -216L334 -239L357 -179C360 -172 365 -171 371 -179C380 -193 386 -219 391 -341L402 -592C404 -637 406 -645 422 -660C431 -667 431 -672 425 -677ZM918 -331L874 -367C843 -350 765 -337 663 -327V-473L861 -491C874 -492 874 -499 866 -506L828 -535C798 -524 771 -518 726 -512C801 -648 831 -693 841 -699C850 -706 851 -712 843 -724L801 -780L788 -776C789 -736 770 -652 695 -508L663 -505V-631C663 -723 668 -754 680 -776C687 -789 687 -794 674 -804L612 -858L600 -849C620 -801 623 -783 623 -630V-502L437 -485L487 -448C521 -458 562 -465 623 -470V-325L407 -307L454 -269C487 -278 539 -285 623 -292V-180C623 -38 610 -3 596 19L637 94C646 111 652 112 657 92C660 83 663 35 663 -69V-295L913 -316C929 -317 928 -323 918 -331ZM229 -464L148 -455L142 -616L229 -625ZM362 -639L355 -371C353 -280 350 -266 343 -254L318 -277C306 -270 296 -267 266 -261V-437L346 -446C352 -447 353 -450 349 -455L326 -484C316 -479 291 -472 266 -468V-629ZM229 -257L155 -247L148 -450L187 -423C202 -428 210 -430 229 -433Z"/>
</svg>