<svg xmlns="http://www.w3.org/2000/svg" viewBox="0 -1000 1000 1000">
	<path fill="#000000" d="M449 -544C442 -564 434 -605 427 -649H414L400 -557C376 -546 337 -541 300 -544C259 -547 250 -557 250 -590V-626C372 -690 404 -705 415 -705C423 -705 426 -709 423 -722L409 -783L398 -784C386 -749 345 -705 250 -652V-719C250 -746 255 -767 262 -776C266 -782 264 -787 259 -791L203 -837L192 -829C203 -799 209 -760 209 -712V-600C209 -531 235 -506 310 -507C358 -508 402 -514 443 -527C451 -529 453 -534 449 -544ZM949 8V-8C817 -14 780 -29 668 -121V-302L817 -321C828 -322 828 -327 820 -332L773 -364C757 -351 738 -345 668 -335V-485L822 -509L785 -410L799 -403C860 -501 879 -521 895 -527C903 -530 903 -535 894 -543L852 -578L823 -542L700 -524C701 -544 697 -564 686 -585L660 -592C746 -707 781 -738 808 -745C816 -747 817 -752 811 -759L765 -812L730 -769L474 -735L525 -697C542 -708 582 -718 720 -734L633 -601L533 -629L529 -618L679 -521L433 -486L478 -451C505 -459 534 -464 627 -479V-153L533 -231C553 -313 558 -325 564 -329C570 -333 571 -337 565 -344L511 -409L501 -403C534 -338 471 -57 354 76L365 85C443 -1 495 -95 525 -205L782 35ZM455 -265L415 -292C399 -283 375 -275 310 -265C317 -299 322 -336 327 -377L427 -394C437 -396 437 -401 430 -406L391 -434C377 -423 355 -416 214 -390C228 -428 236 -437 248 -442C255 -444 256 -449 251 -455L212 -505L200 -500C204 -453 181 -389 110 -269L125 -261C162 -305 185 -338 203 -369L226 -350C237 -357 258 -364 280 -369C279 -329 274 -291 267 -260L67 -230L117 -190C148 -202 178 -209 259 -222C233 -107 174 -23 61 69L73 82C191 -4 251 -73 287 -171L402 -55C410 -47 413 -49 414 -62C416 -80 413 -106 407 -128L293 -187C296 -200 300 -215 303 -228L451 -253C462 -255 462 -260 455 -265Z"/>
</svg>