<svg xmlns="http://www.w3.org/2000/svg" viewBox="0 -1000 1000 1000">
	<path fill="#000000" d="M610 -746L507 -852L496 -844L571 -691C575 -684 582 -684 586 -691C595 -707 600 -719 610 -746ZM213 -520L105 -626L94 -616L185 -454C189 -447 195 -447 199 -454C205 -468 210 -492 213 -520ZM968 -252V-265C896 -274 847 -315 803 -383L722 -508C733 -532 740 -540 748 -544C754 -547 755 -552 751 -558L708 -631L695 -624C707 -582 663 -417 549 -225L562 -214C605 -264 657 -357 710 -480L837 -247ZM868 -684L810 -722C773 -701 733 -694 302 -660L275 -756L255 -750C264 -693 262 -637 237 -421L29 -286L98 -264C117 -290 162 -333 234 -393C213 -233 172 -92 101 44L113 52C206 -81 254 -231 283 -442L317 -419C329 -424 348 -427 393 -433C397 -399 391 -350 364 -242C336 -129 288 -27 206 76L218 84C307 2 378 -122 417 -284L513 -296C499 -184 477 -65 461 -26L389 -89L379 -79C414 -28 439 14 457 52C460 60 467 62 471 54C508 -22 520 -69 549 -262C554 -296 559 -309 566 -313C572 -317 572 -321 567 -326L522 -364L500 -330L425 -322C435 -365 440 -378 444 -382C449 -387 449 -391 446 -395L416 -435L625 -457C633 -458 634 -463 627 -468L580 -503C566 -493 531 -482 481 -477C488 -494 493 -514 498 -540L416 -616L406 -607L463 -475L284 -456C291 -509 297 -565 302 -624L866 -671C878 -672 879 -677 868 -684ZM776 -147C780 -162 780 -194 776 -221L656 -300L646 -289L762 -146C768 -138 773 -138 776 -147ZM797 57C799 43 797 20 786 -31L617 -143L608 -129C694 -46 751 16 784 58C790 67 796 66 797 57Z"/>
</svg>