<svg xmlns="http://www.w3.org/2000/svg" viewBox="0 -1000 1000 1000">
	<path fill="#000000" d="M580 -787L490 -864L478 -852L550 -721C554 -714 561 -716 563 -722C570 -739 575 -760 580 -787ZM199 -489L87 -564L78 -552L178 -425C183 -419 188 -420 190 -427C195 -443 197 -459 199 -489ZM908 -233L869 -271C841 -259 744 -242 592 -226C592 -254 594 -261 597 -265C602 -272 601 -277 593 -283C623 -323 656 -379 669 -409L791 -296C798 -289 803 -291 804 -299C806 -316 805 -339 801 -360L678 -430C695 -465 701 -475 707 -479C712 -483 713 -487 710 -491L688 -520L842 -536C852 -537 853 -542 845 -548L800 -581C774 -570 680 -551 581 -540C591 -553 600 -572 606 -589L536 -669L864 -698C873 -699 873 -704 865 -710L823 -745C779 -730 665 -711 293 -684L248 -778L232 -772C247 -725 253 -574 238 -399L39 -277L115 -265C141 -292 181 -328 236 -372C220 -208 194 -89 70 76L82 86C194 -24 258 -159 275 -361C281 -436 285 -509 290 -647L513 -668L564 -538L316 -513L357 -479C388 -487 411 -491 449 -495C439 -437 402 -351 317 -249L329 -239C370 -276 417 -333 449 -384L540 -295C548 -275 551 -255 552 -223L276 -195L323 -159C369 -170 459 -183 552 -191V-78C552 -23 549 8 535 34L573 96C578 104 583 103 586 95C590 79 592 50 592 -41V-194L906 -221C915 -222 915 -226 908 -233ZM658 -517C655 -460 635 -390 574 -297L546 -320C546 -331 545 -343 544 -354L459 -403C470 -422 479 -431 490 -439C495 -443 496 -447 493 -452L470 -497Z"/>
</svg>