<svg xmlns="http://www.w3.org/2000/svg" viewBox="0 -1000 1000 1000">
	<path fill="#000000" d="M614 -784L525 -868L514 -860L575 -732C579 -723 584 -722 590 -730C601 -743 607 -759 614 -784ZM230 -510L117 -607L106 -596L199 -446C206 -435 209 -435 214 -446C223 -468 225 -476 230 -510ZM790 -597C799 -602 799 -607 790 -614L746 -649L717 -613L459 -586L430 -639L417 -632C425 -606 430 -569 430 -539V-408C430 -392 425 -375 414 -362L448 -306C454 -296 457 -295 461 -307C465 -318 466 -327 466 -349L761 -377C771 -378 772 -381 762 -390L736 -417L764 -568C766 -579 772 -587 790 -597ZM900 -715L861 -751C815 -736 721 -725 330 -703L290 -789L274 -784C290 -690 288 -523 275 -417L47 -298L112 -272C140 -296 195 -337 270 -386C242 -235 204 -125 60 40L74 53C179 -44 266 -174 300 -338C314 -406 326 -525 330 -667L899 -703C908 -704 909 -707 900 -715ZM938 -10L892 -50C880 -42 820 -32 766 -29L805 -219C808 -232 816 -243 835 -254C842 -258 842 -262 836 -269L792 -315L764 -286L395 -250L356 -310L345 -305C354 -273 360 -228 361 -186L365 -11L205 -2L246 37C308 27 539 8 937 2C947 2 948 -1 938 -10ZM720 -580L698 -409L466 -383L465 -451L669 -475C678 -476 679 -479 670 -487L641 -514C633 -507 596 -498 464 -482L463 -553ZM763 -249L730 -27L641 -23L655 -157C656 -168 661 -186 667 -196C672 -204 671 -207 665 -213L641 -237ZM616 -164L607 -22L526 -18V-136C526 -156 529 -175 536 -189C540 -196 538 -199 533 -204L510 -225L615 -235C618 -222 619 -206 616 -164ZM490 -16L400 -12L399 -215L484 -224C488 -205 490 -185 490 -154Z"/>
</svg>