<svg xmlns="http://www.w3.org/2000/svg" viewBox="0 -1000 1000 1000">
	<path fill="#000000" d="M356 -720L235 -795L228 -784L336 -651C341 -645 346 -646 348 -653C353 -669 356 -690 356 -720ZM273 -598L159 -674L151 -663L252 -528C257 -522 261 -522 264 -530C271 -552 273 -569 273 -598ZM914 -331C809 -336 754 -361 694 -436L616 -534C628 -566 634 -573 646 -581C651 -585 651 -589 646 -594L611 -633L753 -654L711 -562L727 -553C786 -638 795 -645 828 -657C836 -660 836 -664 830 -672L784 -728L753 -688L521 -652C534 -671 542 -685 554 -709C573 -747 588 -766 599 -771C606 -774 608 -778 603 -785L554 -851L541 -845C554 -803 506 -652 388 -509L400 -495C443 -538 481 -584 512 -634L538 -616C550 -621 568 -625 589 -629C580 -494 501 -364 328 -267L338 -249C469 -316 550 -391 602 -504L748 -299L913 -312ZM391 -614L377 -625L220 -351L146 -425L132 -413C162 -369 191 -321 215 -276C220 -266 227 -265 232 -276ZM895 3L856 -33C839 -28 787 -19 722 -14L737 -185C740 -228 751 -246 767 -259C773 -264 773 -268 767 -273L719 -314L692 -275L295 -231L262 -294L247 -289C255 -258 260 -216 261 -175L268 13L82 24L134 66C184 55 255 48 488 34C658 24 871 15 893 14C902 14 902 10 895 3ZM700 -241L685 -12L570 -5L576 -123C577 -150 583 -173 592 -186C595 -190 594 -193 590 -198L566 -227ZM540 -123L536 -3L449 3L448 -93C448 -124 449 -150 455 -168C457 -174 456 -177 450 -184L425 -213L536 -224C540 -193 541 -160 540 -123ZM412 5L305 11L300 -200L395 -210C402 -187 409 -147 410 -96Z"/>
</svg>