<svg xmlns="http://www.w3.org/2000/svg" viewBox="0 -1000 1000 1000">
	<path fill="#000000" d="M933 -513L885 -553C838 -532 609 -504 452 -493C476 -528 489 -551 504 -582L797 -610C806 -612 806 -615 798 -621L757 -655C717 -641 622 -625 522 -616C541 -655 548 -665 558 -674C562 -677 563 -682 558 -687L525 -722C563 -731 606 -742 655 -756C696 -768 705 -770 732 -775C741 -777 741 -779 735 -785L687 -842L674 -837C674 -811 599 -759 225 -680L228 -665C309 -675 385 -687 503 -716C499 -687 489 -658 469 -613L226 -595L271 -558C308 -565 350 -570 453 -578C439 -548 423 -519 405 -490L99 -472L155 -429C183 -437 207 -440 380 -455C301 -343 193 -236 55 -140L63 -127C180 -200 271 -273 343 -351C345 -335 347 -317 348 -289L353 -82C354 -23 352 -7 337 19L373 81C378 89 381 90 384 81C391 59 392 48 392 21L679 -1L712 73C715 79 720 80 723 73C731 53 735 31 739 -70L749 -316C750 -349 759 -375 774 -385C780 -388 781 -392 773 -399L728 -439L701 -400L371 -368L364 -375C389 -402 409 -428 428 -459L932 -501C941 -502 942 -505 933 -513ZM710 -366L701 -107C699 -45 695 -23 687 -14L648 -42C620 -30 585 -25 392 -13L391 -103L651 -120C659 -120 660 -123 652 -130L621 -162C605 -153 574 -148 390 -135L389 -218L648 -239C655 -241 655 -244 650 -248L619 -280C602 -270 575 -267 388 -250L387 -333Z"/>
</svg>