<svg xmlns="http://www.w3.org/2000/svg" viewBox="0 -1000 1000 1000">
	<path fill="#000000" d="M400 -714C408 -723 407 -729 399 -734L350 -766L322 -719L183 -702L144 -778L128 -773C139 -726 143 -686 145 -624L152 -240C153 -166 149 -135 134 -107L178 -34C186 -21 191 -22 193 -36C195 -49 196 -75 195 -127L326 -144L358 -92C368 -76 373 -76 377 -98C382 -127 383 -155 383 -237V-668C383 -687 385 -696 400 -714ZM946 -10V-24C839 -29 808 -52 699 -230C772 -292 803 -313 829 -320C840 -323 842 -326 838 -335L812 -395L799 -391C794 -358 763 -322 686 -251L594 -404L792 -429C807 -431 808 -436 796 -446L769 -468L801 -725C803 -741 811 -754 830 -765C839 -770 839 -775 830 -782L778 -824L749 -785L498 -750L457 -833L440 -827C456 -784 460 -734 460 -657V-55C460 0 454 20 411 58L472 79C482 83 487 81 492 73C516 33 543 2 662 -96L652 -112L504 -3V-392L562 -399L799 9ZM757 -745L731 -459L504 -423V-549L710 -579C723 -581 724 -585 713 -595L681 -624C658 -611 605 -598 504 -583V-712ZM342 -275C342 -206 339 -182 326 -159L303 -181C286 -170 253 -163 195 -157L191 -331L307 -347C320 -349 321 -354 312 -363L290 -386C269 -377 239 -369 191 -360L188 -504L305 -522C313 -523 314 -527 308 -534L284 -561C274 -554 229 -541 188 -534L185 -669L342 -689Z"/>
</svg>