<svg xmlns="http://www.w3.org/2000/svg" viewBox="0 -1000 1000 1000">
	<path fill="#000000" d="M478 -589L395 -665L385 -655L449 -531C454 -521 458 -520 465 -533C473 -551 477 -569 478 -589ZM952 -357V-377C858 -381 778 -443 735 -540C816 -610 850 -632 862 -637C870 -641 871 -645 868 -652L839 -716L828 -714C828 -687 802 -643 724 -564L681 -664C759 -726 780 -739 794 -744C801 -746 803 -750 800 -760L777 -821L765 -820C765 -790 733 -745 672 -689C671 -695 670 -701 671 -708L616 -728L610 -719C623 -705 627 -699 664 -621L794 -348ZM803 -293L751 -323C721 -312 663 -298 609 -294C613 -330 617 -349 623 -361C631 -376 631 -379 624 -388L600 -419L729 -432C748 -433 748 -437 733 -447L690 -475C666 -462 623 -446 465 -437C508 -499 544 -570 583 -669C601 -716 614 -737 620 -739C634 -744 634 -749 622 -760L584 -794L563 -748L377 -729L432 -691C450 -698 470 -702 553 -715C501 -562 444 -442 352 -341L355 -625C356 -682 359 -689 373 -700C381 -705 380 -709 373 -715L327 -759L304 -711L190 -695L142 -772L128 -762C140 -727 147 -674 147 -626V-264C148 -217 143 -185 128 -154L162 -76C166 -67 174 -68 178 -75C183 -84 184 -92 184 -156L293 -167L321 -103C325 -93 330 -93 334 -104C346 -131 350 -160 351 -269L352 -318L355 -316C396 -353 432 -390 461 -430L507 -400C529 -408 554 -414 576 -417C577 -367 573 -326 567 -292L380 -281L432 -239C453 -247 478 -251 560 -258C532 -136 464 -31 326 71L337 86C489 -12 581 -137 604 -261L800 -277C821 -278 823 -281 803 -293ZM818 27C820 10 819 -24 813 -52L607 -199L597 -184C683 -108 756 -27 800 29C812 44 817 42 818 27ZM319 -677L312 -296C310 -219 308 -194 300 -181L265 -208C250 -198 230 -192 184 -187V-337L301 -353C310 -354 312 -360 304 -366L267 -391C255 -383 227 -377 184 -372V-495L302 -511C314 -512 314 -517 304 -524L266 -550C254 -542 229 -533 184 -527V-660Z"/>
</svg>