<svg xmlns="http://www.w3.org/2000/svg" viewBox="0 -1000 1000 1000">
	<path fill="#000000" d="M809 -785C816 -792 815 -797 808 -803L768 -839L742 -802L582 -777L545 -843L531 -837C542 -796 547 -765 547 -727L548 -567C548 -529 543 -513 535 -502L565 -445C573 -431 582 -432 584 -450C585 -455 586 -461 587 -474L797 -495C809 -496 810 -499 801 -507L771 -532L787 -723C790 -762 792 -768 809 -785ZM567 -415L490 -485L479 -477L533 -374C538 -364 543 -363 550 -371C557 -379 562 -392 567 -415ZM853 -36L811 -74C774 -60 715 -51 541 -38V-120L756 -142C766 -143 768 -149 758 -156L719 -186C686 -174 610 -159 541 -150V-224L741 -246C751 -247 753 -251 743 -260L708 -287C675 -275 607 -262 541 -255V-329L761 -354C770 -355 772 -360 763 -367L721 -398C686 -383 576 -359 317 -338L350 -304C365 -309 419 -317 501 -325V-250L332 -235L372 -202C389 -207 429 -213 501 -220V-147L331 -133L377 -95C406 -103 442 -109 501 -116V-35L306 -22V-334C365 -392 377 -402 394 -410C403 -414 405 -420 403 -426L377 -483L469 -496C485 -498 486 -501 478 -509L456 -529L461 -735C461 -748 466 -765 478 -776C485 -782 484 -787 477 -793L440 -825L412 -782L265 -761L226 -847L210 -842C218 -810 224 -762 225 -725L230 -546C231 -509 228 -492 216 -475L252 -417C259 -406 267 -406 268 -419C269 -426 270 -443 269 -467L354 -480C341 -398 223 -284 62 -173L72 -160C133 -193 206 -242 266 -295V-61C266 -23 262 3 249 29L284 91C291 102 295 102 298 89C304 61 306 30 306 -7L343 19C385 7 586 -10 849 -21C861 -21 863 -28 853 -36ZM750 -770L734 -524L586 -503L585 -568L717 -589C728 -590 730 -593 720 -602L693 -624C681 -617 650 -608 585 -597L584 -654L710 -674C719 -675 721 -679 714 -685L689 -708C678 -702 645 -693 584 -684L583 -745ZM423 -750L417 -524L268 -497L266 -555L395 -581C405 -583 407 -587 399 -593L370 -616C358 -608 321 -598 265 -587L263 -641L392 -663C406 -665 406 -668 396 -675L368 -696C358 -689 324 -681 263 -671L261 -727Z"/>
</svg>