<svg xmlns="http://www.w3.org/2000/svg" viewBox="0 -1000 1000 1000">
	<path fill="#000000" d="M886 -519L843 -569L812 -530L564 -503C567 -517 568 -528 568 -541L540 -562C687 -699 719 -725 754 -739C765 -743 765 -745 755 -756L714 -801L681 -772L275 -738L317 -692C343 -703 443 -717 660 -735L521 -574L436 -629L427 -617L535 -500L133 -457L182 -415C236 -427 350 -444 509 -462C429 -338 250 -157 77 -38L87 -22C257 -123 435 -287 533 -417V-103C533 -53 529 -19 523 3L414 -67L405 -55C466 3 495 35 535 86C543 96 547 96 552 85C565 57 574 11 574 -61V-468L808 -492L736 -372L751 -362C823 -451 852 -480 881 -497C894 -504 894 -510 886 -519Z"/>
</svg>