<svg xmlns="http://www.w3.org/2000/svg" viewBox="0 -1000 1000 1000">
	<path fill="#000000" d="M441 -672L403 -706C357 -682 299 -671 88 -651L140 -613C160 -619 200 -627 242 -633C228 -541 160 -410 44 -266L58 -255C111 -308 148 -349 190 -416C192 -408 193 -398 193 -382V-237C193 -199 185 -171 175 -159L215 -88C219 -80 227 -80 228 -90C231 -108 232 -126 232 -180L396 -202C409 -203 410 -207 399 -217L369 -242L386 -392C388 -412 395 -425 410 -437C417 -443 417 -446 410 -452L367 -490L340 -449L227 -434L215 -455C231 -483 249 -514 268 -549C283 -577 287 -583 294 -590C300 -596 300 -598 296 -605L276 -637L439 -660C448 -661 449 -665 441 -672ZM946 48C934 -34 930 -97 930 -196L913 -198L890 -27C783 -100 718 -234 700 -438L878 -465C892 -466 892 -470 880 -479L834 -514C811 -500 767 -485 698 -472C689 -602 692 -623 704 -644C709 -652 707 -655 702 -660L662 -697C767 -732 804 -743 831 -749C842 -751 842 -754 834 -762L780 -816L769 -811C767 -783 714 -750 511 -677L476 -769L459 -764C465 -729 468 -697 468 -654V-161C468 -121 456 -80 435 -54L472 -19C478 -13 483 -13 488 -22C514 -66 537 -95 648 -211L636 -226L510 -118V-648C556 -662 604 -677 638 -689C644 -662 647 -633 649 -587C651 -555 653 -521 658 -467L515 -444L551 -407C571 -414 616 -425 661 -433C689 -173 760 -45 931 55C945 64 947 61 946 48ZM700 -38L605 -136L593 -128L667 25C672 35 677 36 682 25C692 4 696 -12 700 -38ZM346 -416L333 -230L232 -215V-399Z"/>
</svg>