<svg xmlns="http://www.w3.org/2000/svg" viewBox="0 -1000 1000 1000">
	<path fill="#000000" d="M442 -667L403 -704C360 -683 318 -673 84 -648L123 -610C144 -617 179 -623 235 -630C227 -546 162 -387 45 -231L58 -220C102 -264 145 -323 186 -398C189 -381 189 -366 189 -340V-229C189 -187 184 -164 172 -147L204 -77C209 -67 214 -67 218 -79C223 -91 226 -113 227 -150L381 -167C393 -168 395 -172 387 -180L358 -211L380 -366C385 -401 387 -409 403 -420C409 -425 408 -431 402 -436L360 -474L334 -436L222 -418L210 -444C227 -476 243 -511 259 -547C267 -565 280 -581 289 -587C295 -591 295 -596 290 -601L259 -632L439 -655C448 -656 449 -660 442 -667ZM931 -221L884 -256C853 -243 771 -228 686 -221C686 -271 689 -298 697 -311C704 -322 703 -327 695 -334L662 -367L838 -389C854 -391 854 -397 844 -404L817 -425L842 -639C846 -672 849 -680 863 -691C872 -699 871 -704 862 -710L817 -739L794 -701L608 -680C647 -759 660 -782 674 -793C680 -798 680 -804 673 -813L629 -869L618 -861C621 -809 608 -746 577 -678L521 -672L489 -755L471 -749C479 -715 483 -666 483 -597V-455C483 -409 474 -383 458 -364L496 -295C503 -283 508 -284 512 -297C517 -314 519 -327 520 -349L589 -358C564 -306 530 -257 484 -208L405 -200L446 -161C481 -169 521 -175 644 -184V-72C644 -19 637 8 622 26L658 98C667 114 672 114 678 89C683 66 686 33 686 -14V-186L928 -206C942 -207 943 -212 931 -221ZM802 -665L781 -420L643 -401C655 -434 664 -470 672 -517L764 -531C777 -533 777 -537 769 -544L737 -572C724 -565 700 -557 678 -551C682 -577 685 -588 691 -596C700 -608 697 -614 688 -623L663 -648ZM640 -646C643 -621 643 -581 639 -543L525 -526L563 -493C581 -497 613 -507 636 -512C630 -471 619 -434 605 -397L520 -385V-634ZM339 -400L323 -202L227 -190V-383ZM644 -219L511 -210C569 -268 604 -311 628 -363L639 -365C643 -345 644 -313 644 -219Z"/>
</svg>