<svg xmlns="http://www.w3.org/2000/svg" viewBox="0 -1000 1000 1000">
	<path fill="#000000" d="M435 -718L390 -749C354 -731 276 -710 73 -690L122 -649C148 -659 191 -669 235 -675C222 -572 150 -405 32 -262L46 -249C89 -293 130 -343 181 -428C183 -418 184 -406 184 -392L186 -254C186 -225 179 -189 166 -169L201 -105C210 -89 216 -90 219 -107C223 -130 224 -144 223 -212L370 -231C380 -232 381 -236 373 -245L345 -275L364 -413C367 -436 373 -446 386 -453C397 -459 397 -463 388 -472L348 -511L320 -478L210 -459L204 -471C218 -498 236 -534 250 -569C258 -589 267 -605 279 -618C288 -626 289 -631 285 -640L267 -679L434 -703C447 -705 447 -710 435 -718ZM923 -375C931 -380 931 -385 923 -393L878 -437L847 -396L672 -372V-474L829 -494C842 -496 842 -502 830 -510L792 -536C776 -528 733 -516 672 -506V-609L818 -630C829 -632 830 -637 819 -644L773 -672C757 -661 714 -649 672 -643V-743L855 -767C869 -769 869 -774 858 -781L809 -812C787 -798 716 -783 506 -754L472 -837L457 -833C461 -808 465 -746 465 -709V-428C465 -397 458 -360 448 -340L482 -281C490 -268 494 -269 498 -283C500 -293 501 -300 502 -314L851 -360C809 -112 777 -23 745 26L643 -66L628 -54C674 4 705 49 732 95C739 106 744 108 751 99C810 26 836 -38 889 -316C895 -345 906 -364 923 -375ZM780 -196L698 -294L686 -285L746 -146C750 -136 757 -134 763 -146C771 -161 776 -174 780 -196ZM680 -167L605 -272L590 -264L643 -113C647 -102 652 -101 659 -113C669 -129 678 -153 680 -167ZM573 -141L516 -248L500 -242L528 -94C530 -84 536 -82 544 -91C555 -104 568 -124 573 -141ZM449 -256L430 -255C424 -186 407 -147 376 -118L386 -61C388 -49 393 -46 402 -57C439 -99 450 -148 449 -256ZM634 -638L503 -622V-722L634 -739ZM634 -502L503 -485V-607L534 -583C561 -592 583 -596 634 -603ZM634 -367L503 -348V-474L539 -450C564 -459 586 -464 634 -470ZM326 -442L308 -263L223 -246L219 -424Z"/>
</svg>