<svg xmlns="http://www.w3.org/2000/svg" viewBox="0 -1000 1000 1000">
	<path fill="#000000" d="M743 -738L648 -838L637 -829L702 -682C705 -675 711 -674 716 -681C729 -699 734 -711 743 -738ZM420 -667L380 -699C338 -679 259 -661 70 -643L124 -608C145 -614 178 -621 240 -630C225 -520 153 -378 29 -233L43 -220C98 -275 141 -323 176 -374C178 -362 179 -351 180 -341L187 -226C191 -164 189 -156 178 -130L214 -63C218 -56 225 -56 228 -64C233 -78 233 -97 229 -159L369 -183C380 -185 382 -188 376 -195L352 -225L361 -360C362 -372 370 -395 385 -409C389 -413 389 -417 384 -421L337 -457L313 -424L207 -398L201 -413C226 -453 248 -497 268 -546C276 -563 286 -578 298 -585C304 -589 304 -593 299 -599L270 -634L417 -654C428 -655 429 -660 420 -667ZM770 -33L667 -159L652 -147L727 32C732 41 738 43 745 34C757 18 765 -1 770 -33ZM941 -36L803 -163L789 -153L913 50C919 59 923 60 927 51C937 32 942 4 941 -36ZM621 3L558 -126L543 -120L567 49C569 63 573 65 584 55C606 35 613 24 621 3ZM464 -140H447C430 -38 408 -12 373 20L398 83C401 90 405 90 410 83C459 13 465 -50 464 -140ZM322 -387L315 -214L227 -195L215 -364ZM531 -359L570 -329C590 -335 619 -341 671 -348V-248L531 -233ZM531 -626V-653C546 -682 558 -708 568 -737C576 -757 584 -771 594 -777C602 -782 602 -789 598 -795L551 -860L537 -856C543 -772 490 -617 381 -467L396 -456C426 -483 457 -528 489 -579V-291C489 -266 483 -236 469 -214L508 -142C514 -131 520 -131 522 -140C529 -173 531 -196 531 -215L558 -195C613 -209 686 -219 910 -236C920 -237 921 -242 912 -249L870 -282C833 -270 816 -266 713 -253V-354L860 -371C870 -372 872 -377 863 -384L824 -415C806 -405 775 -395 713 -386V-480L849 -498C859 -499 861 -503 852 -511L817 -543C801 -534 761 -524 713 -516V-614L880 -635C891 -636 893 -640 883 -649L844 -682C806 -664 751 -651 531 -626ZM531 -617L570 -588C591 -595 631 -604 671 -610V-511L531 -491ZM531 -484L572 -455C597 -464 616 -468 671 -475V-381L531 -365Z"/>
</svg>