<svg xmlns="http://www.w3.org/2000/svg" viewBox="0 -1000 1000 1000">
	<path fill="#000000" d="M964 -203V-218C859 -235 811 -251 710 -362L627 -451L878 -474C893 -475 894 -479 881 -488L826 -526C791 -510 635 -482 417 -466C432 -492 444 -517 456 -546L721 -574C736 -575 737 -579 723 -589L688 -617C664 -601 618 -592 470 -580C484 -610 491 -629 499 -655L782 -680C794 -681 796 -685 785 -695L741 -732C715 -717 649 -703 510 -690C535 -761 545 -786 550 -791C556 -797 556 -801 551 -806L500 -867L485 -859C496 -826 491 -776 462 -687L197 -666L244 -628C279 -636 313 -640 451 -652C444 -629 435 -604 424 -576L242 -562L290 -524C303 -529 324 -533 410 -541C399 -514 387 -490 372 -464L94 -444L144 -407C175 -413 206 -417 350 -429C277 -317 172 -221 52 -131L63 -118C218 -226 320 -309 396 -432L593 -448L814 -190ZM778 20C780 0 775 -29 767 -60L517 -178V-202L724 -219C739 -220 740 -224 730 -232L687 -268C666 -256 630 -246 517 -235V-334C573 -347 590 -351 609 -355C618 -356 619 -361 613 -366L566 -411L555 -405C550 -380 513 -362 325 -312L329 -295C378 -303 429 -313 478 -325V-232L217 -207L267 -169C291 -177 345 -186 434 -194C368 -104 293 -47 165 36L175 50C300 -13 397 -81 478 -180V-82C478 -32 472 -3 456 24L496 94C501 102 505 101 508 93C515 74 517 49 517 -61V-156C594 -109 720 -20 767 23C772 27 777 27 778 20Z"/>
</svg>