<svg xmlns="http://www.w3.org/2000/svg" viewBox="0 -1000 1000 1000">
	<path fill="#000000" d="M929 -23L888 -53C852 -41 767 -31 638 -23V-137L821 -152C841 -154 841 -160 826 -173L799 -196C774 -185 722 -177 638 -170V-254L806 -272C826 -274 827 -279 811 -292L789 -310L812 -446C816 -471 823 -489 837 -504C847 -515 848 -519 837 -528L793 -564L767 -523L638 -507V-588L906 -616C923 -617 924 -625 909 -636L874 -663C831 -644 806 -640 638 -620V-730C650 -733 662 -737 675 -741C735 -758 762 -765 787 -769C800 -771 801 -778 793 -787L748 -834L737 -832C725 -796 663 -769 406 -695L409 -677C463 -685 526 -699 600 -720V-616L381 -590L426 -554C464 -566 519 -576 600 -584V-503L484 -490L453 -542L440 -537C448 -511 453 -478 454 -454L459 -339C461 -297 458 -274 445 -253L477 -207C485 -195 491 -195 495 -212C497 -221 498 -227 498 -239L600 -251V-167L418 -152L453 -115C481 -123 519 -127 600 -134V-20L327 -1L375 39C441 25 556 13 925 -5C943 -6 945 -11 929 -23ZM395 -332C397 -350 395 -372 390 -403L288 -469V-519L389 -533C405 -535 406 -541 392 -551L363 -574C346 -563 323 -557 288 -551V-713C300 -719 308 -723 319 -729C331 -736 351 -744 378 -753C390 -757 391 -763 383 -772L341 -820L327 -816C327 -783 262 -725 80 -649L86 -633C129 -646 195 -671 250 -696V-546L43 -517L86 -480C111 -488 180 -503 243 -513C203 -407 114 -279 17 -173L28 -161C133 -254 205 -350 250 -435V-146C250 -56 244 -16 224 12L261 74C269 88 275 88 280 73C287 48 288 20 288 -97V-441L377 -327C387 -314 393 -315 395 -332ZM775 -490L753 -301L638 -288V-368L738 -377C752 -378 754 -384 742 -395L719 -417C702 -411 671 -403 638 -399V-474ZM600 -284L497 -272L491 -458L600 -470V-395L504 -384L534 -352C550 -358 576 -361 600 -365Z"/>
</svg>