<svg xmlns="http://www.w3.org/2000/svg" viewBox="0 -1000 1000 1000">
	<path fill="#000000" d="M820 -756L722 -814L712 -803L790 -706C800 -693 806 -695 809 -706C813 -722 817 -738 820 -756ZM946 -516C936 -553 929 -585 922 -627H908L902 -541C885 -535 854 -532 768 -537C717 -540 709 -547 709 -574V-643L927 -656C945 -657 945 -663 933 -671L886 -704C857 -689 819 -680 618 -669C652 -761 659 -772 666 -777C674 -782 673 -789 667 -795L605 -858L593 -850C612 -789 606 -744 572 -666L378 -654L432 -616C447 -621 480 -627 558 -633C523 -558 459 -474 359 -398L366 -385C411 -413 452 -443 486 -476C490 -463 491 -441 491 -406C491 -327 500 -315 562 -309C627 -302 753 -307 874 -322C884 -323 885 -326 883 -335C872 -384 866 -420 863 -463H847L839 -360C795 -346 643 -342 572 -345C540 -346 529 -355 529 -398C653 -423 737 -438 783 -443C794 -444 795 -450 787 -458L749 -494L735 -488C735 -473 650 -448 529 -423C529 -454 531 -464 534 -468C538 -475 536 -479 528 -485L509 -498C553 -544 585 -590 606 -636L671 -641V-574C671 -524 691 -504 755 -500C820 -496 900 -496 937 -501C947 -502 949 -505 946 -516ZM436 -773L390 -823L378 -816C379 -785 346 -746 95 -652L103 -636C155 -648 210 -665 256 -683C259 -672 260 -658 260 -617V-529L59 -508L113 -469C145 -481 198 -490 260 -496V-487C216 -375 149 -265 49 -147L60 -137C133 -203 211 -302 260 -389V-170C260 -77 255 -44 239 -19L276 76C282 89 287 89 291 76C296 57 299 15 299 -131V-376L400 -264C408 -255 414 -256 415 -267C417 -281 417 -298 415 -322L299 -402V-498L416 -509C429 -510 430 -515 419 -522L375 -551C354 -542 339 -537 299 -532V-577C299 -620 300 -645 304 -652C309 -660 307 -666 300 -672L279 -693C370 -731 422 -752 434 -755C443 -757 444 -764 436 -773ZM838 -263L790 -295L771 -262L521 -238L486 -291L472 -286C481 -246 488 -200 488 -168L490 -54C491 -8 488 12 479 32L507 96C512 108 520 109 523 94C526 80 527 69 527 40L749 22L771 91C775 105 783 106 788 92C802 52 807 15 811 -45L819 -182C821 -215 827 -233 837 -243C846 -252 845 -258 838 -263ZM781 -227L772 -58C770 -14 767 0 759 9L710 -19C677 -10 606 1 527 6L526 -102L548 -86C593 -94 632 -100 727 -105C738 -106 737 -112 730 -119L704 -144C679 -137 628 -129 526 -117L525 -204Z"/>
</svg>