<svg xmlns="http://www.w3.org/2000/svg" viewBox="0 -1000 1000 1000">
	<path fill="#000000" d="M874 -716L828 -759L792 -719L526 -701C537 -721 542 -734 546 -757L463 -846L449 -836L503 -700L219 -682C220 -707 218 -735 214 -761L194 -759C197 -682 176 -617 146 -588L170 -529C173 -522 178 -522 183 -530C201 -557 212 -599 217 -644L778 -679L731 -595L747 -584C813 -657 854 -691 873 -700C881 -704 882 -708 874 -716ZM826 -459C826 -479 822 -498 809 -529L547 -635L539 -618C651 -562 739 -511 817 -453C823 -449 826 -451 826 -459ZM444 -597L417 -652L405 -649C395 -610 311 -526 132 -425L140 -408C202 -436 302 -495 369 -544C418 -580 426 -583 438 -584C445 -584 448 -589 444 -597ZM778 -451L727 -490L698 -452L436 -428C481 -490 500 -508 509 -512C517 -515 517 -519 512 -526L473 -577L458 -570C459 -534 450 -504 401 -425L285 -414L260 -461L246 -458C253 -418 254 -390 254 -346L258 -94C259 -50 253 -18 240 6L274 83C278 91 284 92 287 84C294 67 297 53 298 22L659 -4L687 71C691 80 699 81 702 71C716 31 723 0 729 -89L749 -360C753 -418 757 -426 777 -438C784 -442 784 -446 778 -451ZM711 -416L692 -128C688 -73 681 -43 668 -26L634 -53C606 -38 552 -29 298 -14L292 -382L467 -396C461 -355 427 -299 325 -204L336 -192C379 -222 419 -256 451 -290L476 -276C497 -283 512 -286 591 -294C570 -259 552 -229 525 -198L439 -257L431 -243C458 -221 484 -198 506 -177C466 -136 409 -90 329 -31L348 -20C433 -71 485 -107 531 -153C553 -128 568 -110 578 -97C584 -89 591 -88 593 -97C598 -117 599 -125 596 -150L555 -179C577 -202 599 -227 622 -258C649 -292 655 -297 670 -304C677 -307 677 -311 672 -316L629 -357L603 -329L470 -312C487 -331 497 -339 510 -345C517 -348 517 -351 513 -357L485 -397Z"/>
</svg>