<svg xmlns="http://www.w3.org/2000/svg" viewBox="0 -1000 1000 1000">
	<path fill="#000000" d="M552 -776L455 -853L444 -843L520 -726C530 -711 533 -711 540 -727C546 -741 551 -759 552 -776ZM877 -706L828 -757L801 -728L236 -691C237 -716 235 -750 231 -772L212 -773C210 -686 189 -644 151 -604L169 -545C173 -533 177 -531 186 -544C211 -580 226 -616 232 -654L792 -688L744 -595L759 -586C841 -673 857 -684 876 -692C882 -694 883 -700 877 -706ZM436 -595L417 -659L403 -658C389 -614 305 -516 135 -433L140 -417C218 -446 291 -481 382 -554C399 -568 417 -578 430 -582C437 -585 438 -587 436 -595ZM782 -447C782 -472 779 -489 771 -517L543 -639L537 -625C619 -568 681 -519 768 -441C779 -430 782 -433 782 -447ZM908 -285L863 -324C843 -311 724 -296 525 -286V-386L694 -402C709 -403 709 -407 700 -416L669 -448C660 -442 604 -430 525 -421C526 -477 531 -503 543 -518C548 -524 548 -530 542 -535L483 -588L469 -577C482 -548 485 -526 485 -418L369 -406C381 -424 395 -441 399 -444C406 -449 407 -456 403 -462L368 -514L353 -505C354 -463 333 -404 245 -293L263 -280C293 -309 320 -338 343 -369L485 -383V-285L71 -264L111 -221C220 -235 329 -246 903 -270C919 -270 919 -275 908 -285ZM722 -168L676 -213L648 -180L331 -153L295 -213L281 -206C290 -167 292 -143 292 -97V-37C292 5 288 18 277 34L316 95C323 106 327 106 330 93C332 84 333 71 333 42L709 27C725 26 726 23 714 12L678 -24L697 -119C699 -130 711 -147 720 -152C730 -157 730 -161 722 -168ZM651 -143L636 -8L333 5V-116Z"/>
</svg>