<svg xmlns="http://www.w3.org/2000/svg" viewBox="0 -1000 1000 1000">
	<path fill="#000000" d="M822 -522C823 -539 816 -561 800 -593L562 -674L554 -659C665 -605 739 -563 810 -517C818 -512 822 -514 822 -522ZM942 19V0C792 -16 770 -27 681 -169C694 -192 706 -216 717 -243C750 -321 755 -330 764 -338C769 -343 770 -347 766 -353L738 -393L859 -409C870 -410 871 -414 861 -422L822 -452C783 -432 717 -419 607 -408C646 -498 655 -517 667 -536C673 -545 672 -547 668 -551L619 -600L605 -594C621 -548 599 -459 512 -286C481 -275 438 -265 384 -259C388 -264 391 -269 393 -277L354 -314L502 -330C512 -331 513 -334 507 -342L488 -366L498 -429C504 -467 508 -476 520 -485C529 -492 529 -496 520 -502L480 -528L459 -497L367 -486C389 -520 403 -538 416 -548C422 -552 422 -557 417 -563L392 -593C425 -611 447 -619 458 -619C466 -619 468 -624 464 -633L445 -685L796 -713L760 -633L777 -625C834 -695 846 -705 882 -718C892 -722 891 -727 882 -734L836 -774L806 -743L534 -723C543 -743 548 -764 550 -788L470 -851L457 -837L516 -722L221 -699C224 -714 224 -730 224 -745L203 -743C194 -687 173 -647 147 -621L152 -568C153 -559 157 -557 167 -563C185 -575 206 -613 217 -668L421 -684C394 -637 338 -592 142 -492L148 -476C170 -485 193 -493 214 -503C223 -482 229 -461 229 -442L230 -378C230 -347 227 -332 219 -317L248 -270C254 -262 259 -263 261 -270C264 -282 266 -291 267 -305L333 -312L353 -256L117 -232L166 -195C196 -207 246 -217 300 -223C276 -136 205 -43 93 21L99 35C199 -12 265 -69 309 -145L428 -158C411 -84 391 -45 371 -27L308 -83L296 -74C332 -25 344 -3 361 34C364 40 367 40 372 34C406 1 435 -42 457 -118C465 -146 478 -166 486 -170C497 -176 496 -181 487 -186L445 -212L420 -186L327 -178C335 -194 341 -210 347 -227L549 -245C560 -246 560 -251 552 -260L536 -277C542 -284 547 -293 552 -301C565 -292 582 -277 597 -247L639 -170C574 -65 513 -10 408 58L415 71C515 23 595 -36 659 -134L744 19ZM365 -579C367 -558 359 -530 335 -482L257 -473L235 -514C279 -535 324 -556 365 -579ZM463 -468L450 -359L266 -332L265 -373L420 -396C432 -398 433 -402 424 -410L400 -432C378 -421 334 -412 264 -402L263 -445ZM708 -390C708 -336 693 -268 659 -204L639 -237C610 -284 605 -296 602 -316L565 -323C575 -339 585 -357 594 -375Z"/>
</svg>