<svg xmlns="http://www.w3.org/2000/svg" viewBox="0 -1000 1000 1000">
	<path fill="#000000" d="M865 -717L823 -749C784 -730 747 -724 585 -701C625 -769 633 -777 642 -781C650 -784 650 -788 645 -795L600 -860L586 -854C592 -792 534 -668 432 -535L446 -522C484 -558 529 -610 561 -664L637 -673L707 -552C713 -544 717 -543 722 -553C730 -569 737 -590 741 -612L669 -677L863 -699C877 -700 879 -705 865 -717ZM494 -693L450 -726C436 -715 414 -706 266 -686C277 -699 281 -704 288 -715C318 -757 326 -766 341 -776C345 -779 347 -784 345 -789L311 -850L296 -847C291 -775 221 -667 66 -500L77 -486C140 -539 189 -589 240 -652L307 -660L366 -537C369 -531 377 -532 381 -537C392 -555 397 -570 402 -596L336 -663L490 -679C502 -680 502 -686 494 -693ZM177 -465H159C154 -383 141 -350 103 -309L127 -263C132 -253 136 -252 146 -266C176 -307 189 -387 177 -465ZM936 40V21C785 8 765 0 610 -242L881 -267C894 -268 896 -275 887 -282L836 -318C793 -299 771 -294 716 -287L737 -388C741 -408 749 -425 767 -436C777 -442 778 -446 767 -456L725 -496L694 -457L599 -447C606 -509 613 -541 619 -548C623 -555 623 -560 616 -569L571 -620L555 -608C563 -571 563 -546 555 -443L413 -428L459 -389C482 -396 504 -400 552 -406C547 -359 541 -318 532 -271L307 -252L359 -211C396 -220 439 -227 522 -234C493 -116 398 1 303 75L311 87C450 6 536 -110 566 -238L582 -239L752 54ZM385 -361C389 -375 389 -398 384 -420L279 -468C281 -500 284 -516 292 -527C295 -532 296 -536 290 -542L237 -601L227 -593C235 -565 238 -544 238 -435V-122C238 -43 236 -34 215 8L251 91C255 100 260 100 266 90C275 74 279 46 279 -43V-447L367 -358C376 -348 381 -349 385 -361ZM699 -423L679 -284L573 -274C585 -326 591 -364 595 -411Z"/>
</svg>