<svg xmlns="http://www.w3.org/2000/svg" viewBox="0 -1000 1000 1000">
	<path fill="#000000" d="M922 -675L868 -709C827 -691 757 -679 617 -663C633 -692 638 -702 651 -728C668 -762 679 -779 689 -784C695 -788 696 -791 692 -797L652 -857L638 -853C633 -775 599 -674 484 -514L501 -501C543 -552 573 -591 596 -629L666 -636L732 -507C736 -499 740 -497 746 -508C754 -521 760 -542 764 -564L691 -638L920 -662C931 -663 932 -668 922 -675ZM538 -657L493 -688C480 -675 414 -657 307 -644C324 -670 330 -680 339 -697C363 -742 371 -755 384 -765C390 -770 390 -774 388 -779L349 -845L336 -843C329 -741 249 -594 119 -464L131 -450C192 -504 243 -555 282 -609L359 -620L406 -496C409 -488 415 -487 421 -494C435 -513 439 -522 445 -541L385 -623L534 -643C548 -645 548 -650 538 -657ZM464 -365L423 -396C409 -387 371 -376 337 -370C337 -429 343 -471 353 -485C357 -491 356 -493 350 -499L297 -552L283 -544C295 -506 298 -486 298 -450V-365L106 -341L155 -305C170 -310 211 -319 284 -329C248 -249 178 -160 63 -52L77 -39C199 -136 261 -201 298 -268V-101C298 -20 290 10 276 32L312 96C317 105 326 105 329 93C335 70 337 45 337 -60V-266L430 -177C437 -170 441 -171 442 -180C445 -206 445 -219 442 -244L337 -291V-335L462 -353C472 -354 471 -360 464 -365ZM831 -458L785 -499L758 -459L535 -428L509 -488L490 -483C499 -435 500 -400 500 -317V-76C500 -22 494 8 483 25L516 93C521 102 529 102 532 91C539 66 540 54 540 7L734 -14L763 54C767 65 773 65 777 54C789 25 792 4 796 -80L809 -368C811 -419 815 -431 830 -441C839 -447 839 -451 831 -458ZM767 -424L758 -118C757 -73 750 -47 741 -30L694 -59C669 -45 634 -37 540 -29V-135L714 -161C725 -163 726 -167 717 -174L681 -201C654 -187 631 -182 540 -172V-253L715 -279C724 -281 724 -285 718 -290L682 -318C657 -308 629 -301 540 -290V-391Z"/>
</svg>