<svg xmlns="http://www.w3.org/2000/svg" viewBox="0 -1000 1000 1000">
	<path fill="#000000" d="M874 -716L834 -744C811 -730 761 -721 580 -696C616 -762 626 -774 639 -782C647 -787 647 -791 642 -799L600 -864L588 -858C600 -813 555 -695 457 -541L471 -530C498 -564 538 -619 564 -665L624 -672L680 -542C685 -531 690 -531 695 -541C706 -565 709 -581 711 -602L645 -674L872 -701C884 -702 884 -708 874 -716ZM511 -712L477 -739C458 -725 442 -718 278 -696C305 -744 326 -772 338 -780C346 -786 347 -790 342 -799L305 -867L290 -861C293 -787 209 -612 72 -470L84 -459C152 -523 217 -599 259 -665L335 -675L382 -577C386 -568 392 -568 397 -577C405 -592 409 -606 412 -627L360 -678L506 -698C519 -700 520 -705 511 -712ZM547 -174L513 -199C497 -189 413 -171 346 -162V-219L478 -236C489 -237 491 -241 480 -251L462 -268L478 -353C484 -383 488 -393 500 -401C510 -409 508 -416 502 -420L463 -448L442 -416L346 -400V-460L513 -479C525 -480 526 -486 516 -494L482 -521C465 -511 416 -498 346 -489C347 -515 353 -541 358 -548C363 -556 363 -560 356 -566L308 -612L296 -602C303 -583 310 -533 312 -486L110 -462L157 -428C187 -439 219 -446 312 -457V-396L217 -381L197 -427L182 -422C187 -403 191 -368 193 -329L196 -262C197 -243 190 -223 183 -215L214 -166C222 -153 230 -156 231 -169C232 -177 232 -191 231 -204L312 -215V-158L43 -124L88 -93C104 -100 149 -107 312 -128C311 -43 301 2 288 21L323 82C329 91 334 91 338 81C344 63 346 25 346 -75V-132L544 -159C557 -161 558 -166 547 -174ZM907 25C898 -29 890 -101 885 -178H867L854 -3C827 10 805 14 726 13C613 12 600 -11 600 -141V-440L742 -461C736 -349 726 -276 712 -241L623 -306L614 -292C648 -258 684 -216 713 -177C721 -166 728 -166 733 -177C757 -224 763 -250 780 -425C782 -449 791 -472 805 -482C814 -490 815 -495 807 -501L763 -536L734 -491L605 -475L568 -555L554 -550C558 -523 562 -470 562 -401V-158C562 18 577 40 720 47C771 50 853 46 898 39C907 38 908 34 907 25ZM312 -320L226 -307L224 -354L312 -367ZM447 -386L430 -259L346 -246V-297L416 -307C429 -309 431 -313 421 -321L396 -340C386 -334 365 -327 346 -324V-371ZM312 -242L230 -231L227 -290L241 -280C253 -283 286 -290 312 -293Z"/>
</svg>