<svg xmlns="http://www.w3.org/2000/svg" viewBox="0 -1000 1000 1000">
	<path fill="#000000" d="M855 -711L802 -758L771 -719L236 -673C237 -705 235 -739 230 -772H208C205 -637 184 -593 156 -569L179 -514C187 -494 191 -494 202 -515C217 -543 231 -585 234 -633L766 -678L717 -562L736 -552C803 -651 825 -676 854 -692C864 -698 864 -703 855 -711ZM898 -8C884 -63 876 -121 870 -206H853L838 -35C806 -17 715 -9 669 -13C594 -20 585 -54 589 -156L598 -420C599 -449 606 -471 621 -486C629 -494 628 -498 618 -505L573 -538L547 -498L407 -485L371 -564L354 -558C366 -506 363 -392 352 -317C328 -146 264 -45 77 61L85 75C306 -43 361 -109 394 -315C403 -374 406 -399 409 -446L554 -460L545 -139C541 -11 574 29 688 31C761 33 850 25 891 16C900 14 902 11 898 -8Z"/>
</svg>