<svg xmlns="http://www.w3.org/2000/svg" viewBox="0 -1000 1000 1000">
	<path fill="#000000" d="M875 -710L826 -739C795 -725 738 -711 601 -694C631 -755 643 -776 651 -781C658 -786 659 -791 652 -799L606 -851L594 -846C606 -779 533 -603 467 -513L481 -503C512 -540 546 -585 585 -661L637 -668L704 -536C709 -526 717 -526 721 -537C725 -548 729 -569 734 -599L662 -670L870 -696C887 -698 886 -703 875 -710ZM515 -697L482 -723C449 -707 406 -698 282 -681C320 -750 331 -764 338 -769C347 -775 347 -779 340 -788L299 -846L287 -842C287 -764 234 -621 76 -433L87 -423C140 -470 206 -556 263 -648L322 -656L374 -532C379 -520 385 -519 391 -531C398 -545 403 -560 408 -582L346 -660L510 -680C527 -682 527 -688 515 -697ZM465 -223L421 -252L400 -217L216 -191V-262L423 -290C439 -292 440 -296 429 -306L405 -325L417 -395C419 -403 426 -416 437 -423C445 -428 445 -432 437 -439L401 -471L376 -437L283 -424C301 -464 313 -487 321 -493C329 -499 330 -503 325 -512L295 -567L281 -562C284 -547 276 -480 255 -421L211 -414L188 -485L173 -481C179 -450 181 -418 181 -380V-105C181 -59 175 -32 162 -15L196 51C203 64 208 63 211 49C214 33 216 13 216 -28L446 -56C463 -58 464 -62 451 -72L428 -91L444 -175C447 -189 456 -199 464 -205C474 -212 473 -217 465 -223ZM383 -408L372 -318L216 -292V-383ZM408 -184L395 -83L216 -62V-159ZM688 -129V-319L793 -333C784 -175 774 -125 760 -92L693 -136ZM688 -121C724 -85 739 -66 763 -31C771 -19 777 -20 784 -33C802 -68 818 -139 828 -297C830 -326 836 -338 852 -350C862 -357 860 -363 851 -369L808 -400L782 -365L688 -351V-455L909 -480C925 -482 925 -487 913 -495L868 -524C837 -504 792 -494 454 -460L496 -427C510 -434 547 -439 649 -450V-346L551 -333L526 -398L509 -394C515 -368 519 -323 519 -289V-173C519 -135 514 -118 505 -103L538 -48C545 -37 550 -37 553 -48C556 -59 557 -72 557 -121L556 -300L649 -314V-38C649 -14 640 15 630 30L665 100C674 118 679 116 683 96C686 80 688 49 688 -12Z"/>
</svg>