<svg xmlns="http://www.w3.org/2000/svg" viewBox="0 -1000 1000 1000">
	<path fill="#000000" d="M541 -736L508 -760C469 -746 434 -736 302 -724C330 -764 341 -775 350 -779C358 -783 358 -787 354 -794L316 -853L303 -847C292 -766 237 -669 116 -537L129 -527C163 -556 228 -623 279 -693L326 -698L374 -601C380 -589 385 -589 391 -601C397 -614 402 -630 405 -649L352 -700L536 -722C551 -724 551 -729 541 -736ZM953 -529L912 -553C882 -542 820 -530 757 -524C765 -570 769 -576 783 -583C793 -588 792 -593 785 -599L747 -631L722 -601L522 -581L523 -589C552 -622 576 -654 602 -697L657 -703L702 -620C707 -610 714 -609 719 -622C724 -635 728 -649 729 -660L682 -704L882 -725C897 -727 897 -731 889 -737L848 -765C801 -749 753 -740 619 -728C646 -776 650 -782 656 -786C662 -790 663 -795 659 -800L621 -851L610 -848C609 -791 578 -705 518 -614L479 -654L466 -647C477 -629 482 -605 484 -577L210 -550L257 -519C267 -524 300 -529 484 -547V-499L71 -464L113 -428C143 -437 188 -444 484 -471V-425L233 -399L276 -369C292 -374 322 -378 372 -383C373 -371 373 -355 373 -338V-291L288 -279C287 -298 289 -305 290 -307C293 -312 293 -315 289 -320L250 -370L240 -366C252 -321 252 -270 249 -200C243 -65 197 3 103 78L113 90C199 33 246 -23 268 -99L375 -111V-55C375 -32 371 -17 363 -11L390 35C397 46 402 46 405 34C408 20 410 7 410 -32V-96C410 -112 415 -121 426 -127C435 -132 434 -137 426 -144L391 -169L369 -136L274 -127C281 -159 285 -208 287 -252L416 -266C428 -267 429 -272 422 -280L407 -296L408 -334C408 -346 409 -351 413 -355C418 -361 418 -364 413 -370L400 -385L484 -394V-225L288 -206L318 -176C353 -184 390 -188 484 -197V-88C484 -17 482 7 468 32L501 88C507 98 513 98 516 84C519 67 521 31 521 -71V-201L724 -221C740 -223 740 -228 731 -235L702 -258C679 -248 609 -236 521 -228V-397L604 -407C605 -398 605 -386 605 -372V-324C605 -316 599 -305 580 -294L614 -276C624 -271 631 -272 636 -279C640 -284 647 -286 664 -288L742 -295V-167L641 -158L622 -196L610 -193C613 -178 613 -162 613 -145V-83C613 -65 609 -48 599 -36L627 10C635 23 641 23 643 9C645 -3 646 -10 646 -52V-129L742 -137V-80C742 -15 740 -1 730 18L759 72C767 86 773 85 775 70C777 54 778 21 778 -75V-302C778 -343 782 -360 786 -366C791 -372 790 -377 785 -382L747 -418L734 -414C739 -394 741 -362 742 -324L638 -316V-340C638 -350 640 -360 645 -366C650 -370 651 -374 646 -380L623 -409L749 -422C765 -424 764 -427 755 -437L746 -447L754 -495L947 -513C966 -514 967 -520 953 -529ZM726 -573L720 -521L521 -502V-551ZM717 -492L712 -448L521 -428V-474Z"/>
</svg>