<svg xmlns="http://www.w3.org/2000/svg" viewBox="0 -1000 1000 1000">
	<path fill="#000000" d="M701 -748L607 -851L594 -842L659 -690C664 -678 669 -677 676 -687C684 -699 692 -720 701 -748ZM429 -649L394 -697L381 -690C385 -660 379 -630 327 -518L343 -510C395 -595 414 -622 427 -632C434 -638 434 -642 429 -649ZM886 -670L844 -711L816 -675L512 -631C512 -653 509 -677 504 -700L489 -698C487 -616 472 -569 445 -538L463 -491C467 -481 474 -480 479 -489C501 -527 509 -558 511 -599L810 -637L774 -542L791 -536C833 -603 855 -631 885 -649C895 -655 895 -662 886 -670ZM238 -557L165 -675L152 -668L199 -500C202 -489 207 -488 213 -496C223 -511 231 -531 238 -557ZM805 -488L769 -514C737 -497 691 -485 495 -465L543 -429C573 -439 618 -446 802 -472C817 -474 816 -480 805 -488ZM441 -473L406 -499C385 -489 365 -483 312 -474V-634C312 -711 318 -750 331 -775C336 -786 335 -791 326 -799L259 -857L248 -848C267 -810 275 -755 275 -604V-468L88 -438L135 -406C164 -416 187 -422 250 -431C220 -345 140 -215 48 -104L60 -92C159 -198 234 -304 275 -388V-216C275 -53 267 -23 250 12L291 87C297 97 302 98 306 87C311 72 312 53 312 -25V-376L387 -265C395 -254 399 -256 402 -267C407 -286 409 -311 407 -333L312 -408V-440L438 -459C450 -461 450 -466 441 -473ZM904 -353L863 -384C827 -368 770 -355 426 -321L478 -282C514 -293 576 -305 632 -311V-75C632 -9 631 5 624 17L510 -52L502 -38C567 21 606 60 638 97C644 104 649 104 653 96C667 70 671 38 671 -63V-315L899 -338C914 -339 914 -345 904 -353ZM887 -110L722 -238L712 -225C799 -129 821 -100 861 -35C870 -21 877 -23 880 -36C883 -50 885 -71 887 -110ZM566 -193L535 -252L518 -247C522 -211 462 -93 357 14L367 28C412 -6 482 -79 524 -139C536 -157 549 -169 563 -176C569 -179 571 -184 566 -193Z"/>
</svg>