<svg xmlns="http://www.w3.org/2000/svg" viewBox="0 -1000 1000 1000">
	<path fill="#000000" d="M237 -561L157 -672L143 -663L196 -512C200 -500 207 -500 212 -508C223 -527 228 -536 237 -561ZM922 -690L879 -719C855 -710 819 -700 740 -691C744 -760 752 -783 761 -790C767 -794 767 -800 761 -805L700 -854L690 -846C706 -806 708 -765 703 -688L606 -679C604 -727 608 -753 615 -764C619 -771 618 -776 612 -780L546 -822L538 -811C553 -787 568 -732 571 -676L434 -663L383 -720L370 -713C380 -685 375 -616 330 -492L308 -490V-647C308 -728 315 -767 325 -784C328 -789 327 -792 322 -796L260 -847L250 -841C268 -798 276 -768 276 -659V-485L88 -461L139 -429C153 -435 218 -447 265 -452C207 -310 164 -243 63 -120L74 -110C162 -199 222 -271 276 -374V-255C276 -80 270 -51 252 -9L286 50C290 56 297 56 299 50C305 31 308 6 308 -50V-382L412 -268C419 -260 424 -262 425 -269C427 -287 428 -308 427 -331L308 -407V-460L441 -478C449 -479 449 -484 443 -488L406 -514C392 -507 373 -501 357 -497C402 -614 416 -641 432 -653L471 -629C485 -633 535 -640 572 -643L574 -563L491 -551L467 -601L451 -595C458 -570 463 -536 464 -500L468 -398C470 -372 466 -350 457 -336L488 -288C492 -281 497 -281 500 -286C504 -294 506 -306 506 -325L869 -361C876 -362 877 -366 871 -372L847 -396L867 -520C872 -551 876 -563 893 -574C899 -578 900 -583 894 -588L852 -624L824 -593L734 -582L738 -662L920 -680C928 -681 928 -686 922 -690ZM835 -262C840 -266 840 -272 834 -276L788 -311L760 -277L533 -250L509 -283L497 -277C505 -255 507 -236 508 -194L512 -68C514 -28 508 -9 497 7L530 67C533 73 538 73 541 68C546 61 549 45 549 11L737 -5L765 53C770 63 777 62 781 52C792 26 797 0 800 -70L805 -190C807 -231 812 -244 835 -262ZM701 -657L697 -578L608 -566L607 -647ZM695 -546L691 -476L611 -466L609 -536ZM836 -564L812 -387L721 -377L725 -452L798 -461C806 -462 806 -466 801 -470L772 -492C759 -487 747 -484 727 -480L731 -550ZM581 -362L505 -352L498 -522L576 -532L578 -463L506 -453L546 -427C552 -429 566 -432 579 -435ZM690 -448L686 -373L613 -364L612 -439ZM771 -244L763 -103C760 -52 757 -29 751 -19L717 -40C694 -32 668 -28 547 -20L545 -110L728 -125C735 -126 736 -130 729 -135L698 -162C677 -155 647 -148 544 -139L541 -221Z"/>
</svg>