<svg xmlns="http://www.w3.org/2000/svg" viewBox="0 -1000 1000 1000">
	<path fill="#000000" d="M947 -393L946 -410C804 -410 749 -423 642 -480L502 -554C526 -571 546 -586 567 -603C624 -648 629 -652 642 -657C650 -660 651 -663 647 -673L637 -698L821 -716C838 -718 837 -722 825 -730L785 -758C734 -742 661 -730 520 -717C529 -735 533 -754 535 -779L437 -859L424 -852L502 -716L149 -685L197 -649C233 -659 274 -665 597 -695C575 -662 536 -626 468 -573L409 -604C387 -617 374 -628 365 -645L308 -637V-625C337 -617 353 -610 383 -591L443 -554C340 -481 203 -403 59 -353L63 -337C211 -387 341 -444 474 -535L758 -362ZM741 -156C744 -173 743 -205 741 -219L595 -306L586 -296L640 -242L357 -206L508 -305C580 -351 594 -360 611 -365C618 -367 620 -370 616 -379L593 -430H581C572 -406 555 -385 512 -350L347 -328L448 -414C466 -429 480 -438 490 -441C500 -444 501 -449 499 -455L478 -502H466C447 -460 423 -432 339 -359C319 -342 273 -321 239 -312L265 -281C271 -274 275 -274 282 -277C311 -289 354 -302 476 -323C446 -300 408 -273 356 -238C303 -202 264 -191 223 -186L258 -148C263 -143 266 -142 273 -144C339 -169 365 -175 467 -191C472 -170 475 -150 475 -122V-33C475 -10 471 17 467 29L380 -28L371 -17C433 43 454 65 479 98C483 104 487 105 493 100C506 89 512 72 512 -8V-104C512 -130 513 -147 518 -156C523 -164 521 -169 515 -174L494 -195L661 -222L728 -156C737 -149 740 -149 741 -156ZM815 41C815 24 812 4 805 -31L604 -131L596 -119C688 -54 764 4 805 44C812 52 815 50 815 41ZM352 -70L333 -127L319 -125C312 -99 255 -20 120 62L129 73C167 57 216 29 288 -22C321 -47 334 -55 345 -58C352 -60 354 -64 352 -70Z"/>
</svg>