<svg xmlns="http://www.w3.org/2000/svg" viewBox="0 -1000 1000 1000">
	<path fill="#000000" d="M440 -320L355 -419L341 -412L375 -332L210 -296L372 -535C397 -571 401 -577 410 -580C418 -583 419 -588 416 -595L384 -668L370 -664C373 -643 350 -581 325 -535L187 -509L311 -709C339 -754 343 -758 351 -764C359 -770 361 -774 355 -784L313 -855L300 -850C302 -790 273 -707 178 -549C159 -518 145 -509 108 -500L143 -462C151 -453 155 -452 165 -458C185 -469 233 -484 306 -504C194 -318 175 -297 130 -286L152 -236C156 -226 165 -226 179 -236C200 -251 219 -260 385 -310L404 -266C409 -256 416 -256 421 -265C430 -279 438 -301 440 -320ZM930 19C918 -24 903 -117 897 -187H878L873 -8C831 10 732 17 606 9C548 5 523 -27 523 -91V-212L820 -238C834 -239 837 -245 825 -255L800 -276L812 -356C817 -387 827 -407 843 -416C855 -423 853 -428 844 -436L798 -478L771 -439L511 -410L490 -456C549 -504 593 -555 626 -621C649 -667 652 -674 661 -680C668 -685 668 -689 660 -696L644 -712L782 -726C773 -655 749 -567 721 -525L641 -590L631 -575C695 -498 702 -488 718 -458C724 -446 732 -446 737 -456C766 -505 787 -556 810 -661C824 -723 831 -739 843 -746C854 -752 856 -759 844 -767L799 -797L774 -759L444 -727L493 -685C516 -695 548 -702 611 -708C610 -682 601 -655 581 -615C547 -548 491 -486 399 -415L409 -401C438 -419 454 -429 475 -443C483 -398 487 -339 487 -288V-89C487 0 505 31 589 44C682 60 859 49 919 36C930 34 932 29 930 19ZM442 -147L363 -240L350 -232L406 -81C411 -69 416 -68 424 -82C433 -96 440 -117 442 -147ZM331 -96L274 -208L259 -201L285 -39C288 -26 291 -25 301 -36C317 -53 326 -73 331 -96ZM196 -186H177C169 -98 149 -50 118 -25L131 38C134 50 138 52 146 41C180 -6 201 -58 196 -186ZM778 -407L762 -269L664 -258V-393ZM627 -255L523 -243V-378L627 -389Z"/>
</svg>