<svg xmlns="http://www.w3.org/2000/svg" viewBox="0 -1000 1000 1000">
	<path fill="#000000" d="M438 -331L343 -435L330 -426C343 -403 352 -386 366 -357L185 -322L382 -558C412 -595 424 -608 432 -611C440 -615 442 -620 437 -630L406 -691L392 -690C387 -652 370 -615 330 -555L189 -534L303 -714C318 -737 331 -751 343 -756C352 -760 353 -765 347 -776L308 -847L295 -844C292 -786 261 -703 181 -576C156 -537 148 -531 120 -526L147 -487C153 -479 159 -477 169 -483C190 -495 251 -515 312 -531C175 -335 153 -319 110 -314L142 -275C150 -266 156 -266 167 -271C185 -281 258 -305 377 -336C388 -314 396 -294 405 -271C410 -259 417 -259 424 -272C433 -289 437 -305 438 -331ZM864 -366L745 -477L734 -468C758 -433 770 -413 787 -383L539 -358L769 -585C798 -614 807 -619 816 -621C824 -623 826 -629 822 -638L792 -705L778 -701C771 -669 752 -627 712 -580L543 -558L678 -725C696 -748 703 -753 716 -757C726 -760 728 -765 723 -776L691 -853L678 -849C673 -800 635 -722 539 -596C511 -563 500 -557 471 -553L501 -516C507 -508 512 -507 525 -512C567 -527 600 -535 689 -550C551 -399 502 -361 458 -357L488 -314C495 -305 502 -304 513 -309C529 -316 587 -330 635 -337C640 -312 643 -276 643 -228V-57C643 -12 640 7 635 19L524 -61L514 -49C570 7 613 58 640 95C648 106 653 107 659 94C675 61 682 15 682 -40V-211C682 -257 685 -278 694 -289C698 -295 698 -301 693 -306L656 -340L801 -360C813 -340 822 -322 832 -300C838 -286 844 -285 850 -301C858 -323 861 -336 864 -366ZM436 -174L352 -258L343 -251L400 -117C406 -103 411 -102 420 -117C429 -134 433 -148 436 -174ZM323 -126L255 -233L242 -228L276 -76C279 -62 284 -59 294 -73C305 -87 312 -99 323 -126ZM914 -120L733 -247L721 -235C797 -163 844 -109 889 -49C898 -35 906 -34 909 -54C912 -73 913 -86 914 -120ZM584 -204L547 -260L537 -256C538 -214 488 -118 377 -5L386 6C440 -37 484 -79 537 -144C563 -176 569 -181 581 -186C589 -190 590 -196 584 -204ZM183 -219H165C157 -133 135 -101 97 -75L107 -7C109 6 113 9 125 -4C163 -45 192 -137 183 -219Z"/>
</svg>