<svg xmlns="http://www.w3.org/2000/svg" viewBox="0 -1000 1000 1000">
	<path fill="#000000" d="M237 -603L104 -706L95 -694L221 -524C225 -518 231 -519 232 -525C237 -550 238 -570 237 -603ZM968 -38V-55C841 -61 789 -89 674 -239L610 -323L766 -338C776 -339 777 -343 769 -351L743 -378L770 -523C776 -556 786 -575 804 -585C812 -590 812 -593 805 -599L761 -639L727 -601L572 -582V-681L846 -711C860 -713 861 -718 850 -726L805 -759C772 -742 726 -730 572 -712C573 -762 582 -790 589 -798C594 -804 593 -809 586 -815L518 -867L506 -858C523 -825 533 -781 534 -709L286 -685L349 -646C388 -656 448 -668 534 -678V-578L392 -561L361 -617L349 -611C356 -586 362 -544 363 -518L368 -391C369 -357 367 -341 356 -323L392 -261C398 -251 402 -252 405 -265C407 -273 407 -285 406 -305L483 -312C416 -203 323 -97 143 39L152 54C336 -65 436 -161 534 -312V-60C534 -25 528 -4 512 15L551 94C555 102 561 101 564 93C570 72 572 57 572 -23V-320L577 -321L785 -22ZM327 -537L308 -545L146 -198L62 -290L49 -281C82 -228 110 -177 144 -114C150 -103 154 -103 159 -115ZM736 -569L706 -368L572 -353V-443L688 -456C704 -458 704 -464 693 -472L662 -495C642 -486 606 -477 572 -472V-549ZM534 -349L405 -336L399 -529L534 -545V-467L408 -452L453 -420C477 -430 500 -435 534 -439Z"/>
</svg>