<svg xmlns="http://www.w3.org/2000/svg" viewBox="0 -1000 1000 1000">
	<path fill="#000000" d="M688 -753L604 -855L590 -846L649 -697C654 -686 661 -686 668 -698C677 -713 683 -730 688 -753ZM900 -679L854 -728L826 -691L492 -647C494 -673 494 -692 490 -723H471C461 -610 447 -586 409 -553L432 -503C438 -490 443 -489 453 -504C466 -526 482 -572 489 -616L828 -657L794 -549L808 -542C857 -628 873 -646 896 -660C907 -666 907 -671 900 -679ZM417 -338L332 -439L322 -432L355 -348L196 -320L329 -521C354 -560 377 -589 394 -601C402 -606 403 -611 398 -622L364 -690L349 -688C351 -656 339 -614 298 -544L174 -526L283 -707C302 -739 315 -758 328 -770C336 -777 337 -781 332 -790L289 -858L275 -854C278 -793 262 -731 163 -570C138 -528 127 -520 94 -511L123 -476C129 -469 134 -469 145 -474C169 -486 200 -496 283 -517C172 -325 163 -320 113 -311L143 -271C150 -263 154 -263 164 -268C190 -282 235 -296 364 -329L385 -280C390 -270 396 -269 403 -279C410 -290 416 -312 417 -338ZM787 -506L752 -533C719 -516 656 -500 482 -484L538 -446C569 -459 617 -469 783 -489C797 -491 799 -497 787 -506ZM405 -138L321 -257L308 -249L367 -84C371 -74 377 -73 385 -84C394 -97 401 -115 405 -138ZM882 -125L716 -256L706 -243C795 -142 821 -108 859 -51C867 -38 872 -39 876 -53C880 -69 882 -89 882 -125ZM882 -366L845 -397C804 -376 742 -362 434 -335L482 -300C501 -309 529 -313 624 -323V-57C624 -16 621 12 615 31L502 -45L492 -33C585 52 608 77 631 105C638 113 644 113 649 101C659 80 663 43 663 0V-326L879 -348C893 -349 895 -355 882 -366ZM566 -221L534 -280L520 -276C522 -228 476 -132 367 -2L380 11C438 -44 474 -85 526 -162C538 -179 550 -193 561 -203C570 -210 570 -213 566 -221ZM298 -103L244 -226L230 -221L251 -55C253 -40 259 -39 268 -50C283 -68 289 -77 298 -103ZM168 -210H151C136 -108 117 -71 84 -46L96 18C99 30 104 32 112 21C149 -26 169 -96 168 -210Z"/>
</svg>