<svg xmlns="http://www.w3.org/2000/svg" viewBox="0 -1000 1000 1000">
	<path fill="#000000" d="M410 -346L332 -442L321 -435L349 -347L186 -317L313 -501C361 -571 380 -595 393 -603C400 -607 402 -614 399 -622L368 -695L354 -692C352 -657 340 -625 304 -558L178 -537L263 -680C313 -764 318 -771 327 -776C333 -780 334 -785 331 -791L295 -856L279 -852C282 -817 246 -708 169 -575C149 -540 141 -533 114 -525L144 -487C149 -481 153 -480 161 -484C185 -497 215 -509 289 -530C180 -333 151 -317 114 -308L153 -264C158 -258 163 -258 171 -262C213 -283 240 -293 358 -324L372 -283C377 -269 382 -269 390 -282C400 -300 407 -322 410 -346ZM950 -470L913 -496C888 -485 860 -479 803 -473C806 -490 805 -507 800 -531L644 -605L638 -591C710 -539 745 -512 784 -471L513 -442C573 -496 615 -561 637 -630L856 -655C872 -657 872 -662 860 -670L817 -698C794 -685 713 -669 644 -660C664 -742 676 -776 685 -785C693 -793 693 -798 688 -803L637 -858L623 -851C631 -815 630 -780 618 -715C615 -698 612 -682 605 -656L423 -636L465 -599C499 -610 532 -617 596 -626C571 -555 534 -493 478 -438L385 -428L425 -391C468 -405 562 -418 747 -435C752 -409 755 -374 755 -325V-61C755 -19 752 6 748 19L633 -62L623 -50C685 11 711 41 761 102C768 111 773 111 777 102C789 80 794 39 794 -20V-315C794 -357 795 -366 803 -378C809 -387 809 -392 803 -398L766 -436L946 -453C960 -454 960 -462 950 -470ZM696 -320L657 -358L631 -326L509 -304L481 -358L468 -352C474 -327 477 -305 479 -269L483 -175C484 -146 481 -137 471 -120L505 -56C510 -46 518 -50 518 -59C519 -84 519 -94 517 -133L671 -157C683 -158 685 -164 674 -172L658 -185L670 -257C675 -284 679 -289 694 -302C703 -310 702 -314 696 -320ZM421 -150L335 -246L324 -238L386 -81C390 -72 395 -71 402 -81C412 -99 418 -123 421 -150ZM312 -113L252 -225L241 -220L262 -51C263 -40 270 -39 277 -48C293 -69 300 -82 312 -113ZM177 -211H160C145 -109 122 -75 94 -56L113 10C116 19 121 20 129 11C167 -38 178 -82 177 -211ZM638 -295L625 -184L516 -164L510 -274Z"/>
</svg>