<svg xmlns="http://www.w3.org/2000/svg" viewBox="0 -1000 1000 1000">
	<path fill="#000000" d="M396 -345L319 -435L308 -429L340 -344L181 -313L319 -509C357 -562 375 -582 389 -591C397 -596 398 -601 395 -608L362 -678L349 -673C346 -638 336 -608 295 -540L160 -520L271 -696C302 -746 310 -757 324 -766C332 -772 332 -778 327 -787L286 -853L273 -848C270 -784 236 -692 152 -564C128 -526 115 -517 80 -509L114 -474C119 -470 124 -468 132 -471C159 -482 197 -492 277 -510C174 -342 148 -315 102 -296L137 -261C142 -256 148 -256 154 -259C176 -271 218 -286 350 -320L366 -276C370 -266 377 -265 382 -275C388 -288 393 -314 396 -345ZM969 -71V-87C864 -107 850 -117 811 -181L725 -324C767 -360 787 -375 821 -395C830 -400 832 -406 829 -412L803 -473L789 -470C777 -425 759 -390 674 -310C663 -342 637 -391 614 -425C639 -448 655 -465 680 -493L908 -527C925 -530 925 -535 911 -544L868 -571C849 -558 796 -544 711 -531L746 -687C751 -708 759 -723 777 -736C785 -741 786 -746 778 -753L738 -794L704 -753L561 -732C570 -763 577 -779 591 -790C598 -795 599 -798 593 -805L548 -858L536 -849C540 -833 540 -805 529 -759L502 -648C494 -617 488 -606 466 -593L493 -563C498 -558 503 -558 508 -564C514 -573 537 -580 573 -586L689 -603L672 -525L370 -479L418 -444C445 -455 490 -464 617 -483C571 -422 506 -363 406 -301L413 -286C487 -322 529 -350 593 -407C600 -396 605 -387 610 -376C576 -315 499 -235 407 -167L416 -154C493 -202 560 -256 631 -333C638 -318 642 -306 647 -287C571 -174 465 -80 353 -10L362 6C467 -47 565 -130 657 -230C671 -126 659 -26 622 29L524 -51L513 -38C558 9 591 51 620 98C625 106 631 106 636 98C693 23 720 -143 682 -286L706 -308L822 -63ZM400 -140L318 -257L308 -250L363 -72C367 -60 374 -59 380 -71C392 -95 397 -114 400 -140ZM294 -105L238 -226L225 -221L251 -40C253 -26 258 -26 265 -36C280 -56 290 -81 294 -105ZM173 -208H153C146 -119 122 -70 93 -46L99 31C100 45 104 46 113 35C146 -9 173 -82 173 -208ZM712 -723L694 -635L531 -614L553 -698Z"/>
</svg>