<svg xmlns="http://www.w3.org/2000/svg" viewBox="0 -1000 1000 1000">
	<path fill="#000000" d="M492 -443L454 -472C411 -455 371 -446 312 -438V-579L423 -599C439 -602 440 -606 429 -615L393 -643C378 -631 343 -618 217 -594C234 -632 242 -653 253 -688C276 -760 285 -773 298 -782C303 -786 304 -790 298 -797L250 -854L233 -847C243 -791 222 -665 120 -458L135 -447C166 -494 184 -523 201 -560L274 -573V-433L41 -402L91 -367C114 -375 171 -387 274 -401V-146L195 -131L192 -233C192 -263 193 -272 199 -285C202 -291 201 -295 194 -300L138 -339L128 -326C139 -319 152 -281 153 -242L156 -157C157 -122 154 -116 138 -101L180 -71C187 -66 191 -65 195 -76C201 -89 204 -93 236 -102L369 -133L381 -104C386 -91 389 -89 398 -100C403 -106 406 -112 414 -160L439 -304C440 -313 443 -324 449 -331C455 -338 455 -342 447 -349L397 -391L385 -379C395 -364 399 -336 396 -307L386 -210C384 -186 382 -179 375 -166L312 -154V-406L491 -430C501 -431 503 -434 492 -443ZM952 29V11C815 -11 795 -22 643 -314L896 -343C910 -344 912 -349 900 -359L862 -387C841 -379 799 -369 759 -362L788 -508C793 -537 804 -554 821 -565C829 -570 829 -573 819 -582L773 -620L748 -580L639 -563C651 -737 654 -761 665 -779C672 -790 671 -793 662 -801L599 -860L584 -848C602 -815 605 -736 597 -556L461 -535L504 -502C529 -510 553 -515 596 -522C593 -460 587 -413 574 -336L446 -318L480 -284C512 -294 538 -300 569 -306C536 -141 457 -18 317 85L329 99C500 -20 568 -115 608 -310L614 -311L784 38ZM751 -546L722 -358L613 -341C625 -408 631 -450 637 -528Z"/>
</svg>