<svg xmlns="http://www.w3.org/2000/svg" viewBox="0 -1000 1000 1000">
	<path fill="#000000" d="M861 -690L809 -737L779 -698L601 -677L564 -737L551 -733C558 -692 560 -662 559 -629L549 -375L416 -354L413 -593C412 -633 420 -658 434 -669C441 -675 441 -678 433 -684L385 -720L360 -680L203 -664L159 -744L145 -738C158 -697 166 -643 169 -592L183 -209C186 -117 182 -95 168 -72L212 -4C218 6 225 5 226 -4C229 -20 230 -44 229 -74L714 -104L750 -25C755 -15 761 -15 765 -26C778 -58 781 -73 792 -189L830 -607C835 -649 840 -663 860 -678C866 -682 865 -686 861 -690ZM793 -663L756 -236C749 -158 742 -125 723 -114L674 -154C656 -142 571 -129 228 -109L208 -629L373 -646L376 -412C377 -371 373 -359 348 -335L388 -296C392 -292 396 -291 400 -297C409 -315 418 -321 445 -324L614 -344C623 -345 623 -350 616 -356L589 -380L600 -640Z"/>
</svg>