<svg xmlns="http://www.w3.org/2000/svg" viewBox="0 -1000 1000 1000">
	<path fill="#000000" d="M774 -803L737 -837L708 -804L489 -782L536 -747C582 -758 606 -764 713 -774L710 -661C709 -609 699 -579 690 -568L723 -526C730 -516 735 -517 737 -526C741 -541 744 -563 747 -628L751 -731C752 -759 755 -775 773 -792C778 -797 778 -800 774 -803ZM624 -640C626 -656 626 -667 624 -687L517 -720L510 -707L612 -635C618 -631 623 -632 624 -640ZM334 -641C334 -658 333 -667 329 -688L216 -704L213 -692L324 -634C330 -631 334 -632 334 -641ZM691 -618L687 -634L479 -570L535 -539C562 -559 595 -575 691 -618ZM384 -612L378 -627L144 -540L204 -512C236 -535 264 -553 384 -612ZM914 -196L867 -235C835 -223 769 -214 517 -195C517 -214 519 -228 523 -232C529 -238 530 -242 522 -248L511 -257C546 -295 571 -328 588 -350L716 -245C723 -239 727 -240 728 -248C730 -272 729 -294 726 -315L600 -367C609 -379 615 -385 623 -391C629 -395 629 -399 626 -404L608 -435L782 -453C794 -454 795 -459 785 -466L742 -496C713 -485 641 -471 511 -460C519 -473 522 -488 525 -505L445 -558C445 -569 446 -585 447 -614L450 -716C451 -754 452 -767 468 -779C475 -784 474 -787 470 -790L432 -825L402 -788L151 -763L192 -728C232 -738 280 -744 412 -758L409 -646C408 -613 403 -583 394 -572L425 -525C429 -520 436 -518 441 -529L489 -459L198 -432L244 -393C277 -400 308 -406 345 -410C333 -367 282 -294 194 -208L205 -197C252 -235 283 -261 335 -318L430 -231C434 -226 440 -228 441 -234C445 -248 445 -271 442 -289L348 -334C359 -346 376 -360 387 -368C392 -372 393 -377 390 -381L372 -412L579 -433C575 -406 554 -356 496 -270L476 -285L465 -275C475 -255 478 -232 478 -193L80 -166L128 -125C178 -136 345 -153 478 -160V-87C478 -33 474 -9 457 18L497 86C501 93 507 93 510 85C515 70 516 64 516 -51V-162L912 -183C923 -184 922 -190 914 -196Z"/>
</svg>