<svg xmlns="http://www.w3.org/2000/svg" viewBox="0 -1000 1000 1000">
	<path fill="#000000" d="M422 -451L289 -525L282 -512L404 -390C412 -382 417 -382 420 -393C424 -410 426 -437 422 -451ZM767 -743L721 -792L679 -760L193 -717L249 -675C286 -683 425 -700 670 -723L521 -573L472 -612L465 -602C479 -568 484 -524 486 -393L255 -248L310 -222C335 -248 404 -305 486 -366C488 -200 486 -179 478 -150L382 -197L373 -185C426 -144 465 -102 488 -72C495 -63 501 -63 506 -73C521 -105 527 -130 524 -344C606 -294 647 -264 693 -223C700 -217 706 -219 706 -226C706 -248 701 -278 693 -303L524 -366C524 -368 524 -370 524 -373C648 -461 678 -480 698 -491C708 -496 710 -499 706 -510L684 -573L667 -568C651 -523 636 -500 524 -402C523 -483 524 -518 526 -545L678 -671C724 -709 746 -723 764 -730C771 -733 772 -737 767 -743ZM845 -510L788 -576L773 -571C780 -546 781 -510 774 -425L753 -145C749 -95 744 -75 730 -54L689 -83C626 -68 580 -61 246 -42L232 -396C231 -416 235 -446 242 -466C244 -473 243 -476 234 -484L175 -535L162 -522C177 -504 184 -454 188 -381L202 -89C204 -47 201 -36 178 -14L217 22C222 27 226 27 231 20C243 3 258 -6 296 -8L725 -34L754 27C759 37 765 38 770 28C780 7 785 -25 793 -112L820 -424C824 -472 828 -483 844 -493C851 -498 851 -503 845 -510Z"/>
</svg>