<svg xmlns="http://www.w3.org/2000/svg" viewBox="0 -1000 1000 1000">
	<path fill="#000000" d="M918 -573L868 -608C834 -592 782 -584 537 -561V-665L789 -697C803 -699 803 -702 791 -712L750 -742C726 -731 683 -720 537 -700V-730C537 -757 540 -771 549 -790C553 -799 552 -806 545 -811L482 -858L471 -850C485 -819 494 -779 494 -746V-556L359 -544L354 -666C353 -689 356 -713 364 -728L293 -782L284 -769C300 -745 311 -697 314 -658L321 -541L63 -519L118 -479C174 -493 328 -514 915 -559C928 -560 927 -567 918 -573ZM742 -451C750 -457 749 -465 743 -469L692 -505L666 -468L329 -428L295 -489L281 -482C289 -440 292 -417 292 -367V-132C292 -64 280 -25 265 -6L306 70C315 86 323 84 325 70C331 34 332 16 332 -111V-152L639 -177C651 -178 653 -182 643 -191L604 -226C578 -213 529 -202 332 -186V-271L621 -304C639 -305 641 -309 625 -320L588 -348C560 -334 526 -327 332 -306V-394L674 -433V-78C674 -43 669 -12 661 5L550 -75L541 -61C617 17 638 40 674 88C683 100 689 100 695 89C708 66 718 6 718 -46V-407C718 -427 723 -437 742 -451Z"/>
</svg>