<svg xmlns="http://www.w3.org/2000/svg" viewBox="0 -1000 1000 1000">
	<path fill="#000000" d="M833 -718L789 -765L776 -758C781 -726 768 -662 703 -551L718 -541C787 -644 813 -678 830 -693C842 -703 841 -709 833 -718ZM566 -594L460 -714L449 -704L528 -542C534 -529 540 -528 547 -542C556 -561 560 -573 566 -594ZM926 -344L882 -381C848 -360 767 -343 660 -333V-476L857 -499C869 -500 872 -505 861 -515L824 -546C795 -532 747 -518 660 -507V-676C660 -772 660 -784 666 -796C671 -807 670 -814 658 -824L608 -867L595 -855C614 -809 619 -776 619 -680V-502L432 -482L481 -444C516 -456 561 -464 619 -471V-329L392 -310L443 -268C479 -279 521 -286 619 -296V-118C619 -23 615 -8 603 17L641 83C650 98 657 97 658 80C660 62 660 18 660 -84V-300L922 -329C934 -330 937 -334 926 -344ZM401 -747C408 -753 407 -758 401 -763L356 -796L334 -756L225 -739L180 -817L166 -810C177 -764 180 -732 181 -594C183 -260 135 -54 41 69L53 79C154 -29 191 -160 207 -333L345 -351V-127C345 -77 342 -46 337 -30L240 -84L232 -71C275 -34 298 -11 350 48C363 62 368 60 373 46C380 24 385 -22 385 -133V-695C385 -728 387 -733 401 -747ZM345 -537L311 -567C295 -557 272 -550 219 -541C220 -583 220 -633 220 -703L345 -723ZM345 -364L308 -392C300 -383 277 -377 210 -368C215 -420 217 -459 219 -510L345 -526Z"/>
</svg>