<svg xmlns="http://www.w3.org/2000/svg" viewBox="0 -1000 1000 1000">
	<path fill="#000000" d="M872 -731L838 -763C808 -750 639 -718 411 -702L449 -663C488 -674 516 -678 631 -691C614 -586 515 -373 392 -234L404 -220C496 -316 544 -388 596 -490C598 -476 599 -458 599 -429V-250C599 -201 595 -178 580 -155L619 -92C626 -81 632 -81 634 -92C639 -126 640 -147 640 -200V-417C640 -477 640 -484 642 -488C646 -496 645 -500 637 -507L615 -526C653 -602 670 -630 678 -635C685 -639 686 -642 679 -652L654 -693L870 -717C881 -718 882 -722 872 -731ZM404 -745L358 -778L333 -738L212 -722L175 -808L158 -803C172 -737 176 -684 176 -578C176 -282 151 -96 39 56L51 65C146 -38 187 -153 205 -327L333 -348C341 -349 342 -357 335 -363L306 -387C299 -381 260 -370 207 -360C210 -400 213 -442 214 -485L331 -507C340 -509 340 -514 334 -519L306 -544C285 -534 268 -530 215 -521C217 -576 217 -632 216 -687L347 -704V-151C347 -64 346 -52 341 -35L242 -102L233 -90C287 -38 323 3 357 49C363 57 369 58 372 51C383 27 388 -8 388 -119V-684C388 -706 390 -720 403 -731C410 -737 411 -740 404 -745ZM857 -326L665 -496L655 -483C733 -398 797 -315 840 -239C846 -228 850 -227 854 -240C859 -258 860 -284 857 -326ZM918 -72L877 -108C855 -91 669 -68 397 -54L447 -13C511 -26 616 -37 915 -58C925 -58 928 -63 918 -72Z"/>
</svg>