<svg xmlns="http://www.w3.org/2000/svg" viewBox="0 -1000 1000 1000">
	<path fill="#000000" d="M956 38V22C840 16 801 -5 736 -109L615 -299L830 -326C816 -269 805 -237 787 -200L719 -253L710 -242C742 -205 764 -174 784 -140C790 -130 794 -129 802 -139C821 -166 840 -209 864 -307C872 -337 875 -343 891 -350C898 -353 898 -359 892 -364L854 -396L823 -360L618 -333C621 -353 624 -380 626 -411L812 -431C824 -432 824 -437 817 -444L794 -467L807 -524C810 -537 818 -553 825 -560C832 -567 831 -571 825 -576L786 -606L763 -574L639 -559C641 -587 642 -615 643 -638L884 -662C895 -663 897 -668 887 -676L849 -708C825 -695 786 -685 644 -671C648 -745 652 -764 661 -775C668 -784 667 -788 659 -794L585 -848L577 -838C595 -808 602 -771 601 -668L384 -647L429 -610C441 -617 491 -625 601 -634C601 -606 600 -580 598 -555L418 -536L466 -498C483 -507 496 -510 597 -522C596 -492 594 -464 591 -440L481 -426L454 -472L440 -465C447 -447 447 -413 442 -387L432 -332C430 -323 423 -312 401 -288L432 -265C439 -260 443 -260 450 -269C458 -280 463 -282 574 -295C544 -147 483 -27 371 75L382 87C506 -8 574 -125 606 -265L783 47ZM391 -727L348 -764L318 -726L226 -711L182 -792L169 -787C182 -725 186 -670 187 -550C189 -173 164 -90 50 68L62 79C160 -23 206 -127 220 -319L331 -335V-100C331 -51 329 -30 325 -15L236 -76L227 -65C262 -31 304 17 337 59C345 68 350 69 355 58C368 31 371 -10 371 -108V-666C371 -689 377 -701 390 -712C397 -718 396 -723 391 -727ZM331 -506L307 -529C301 -524 285 -518 228 -507C229 -556 229 -613 229 -677L331 -691ZM769 -543L757 -461L629 -444C632 -471 635 -499 637 -527ZM331 -352L308 -375C300 -366 284 -360 223 -349C225 -376 227 -446 227 -479L331 -491ZM589 -407C587 -374 584 -348 581 -329L469 -315L486 -395Z"/>
</svg>