<svg xmlns="http://www.w3.org/2000/svg" viewBox="0 -1000 1000 1000">
	<path fill="#000000" d="M359 -782L321 -853L305 -849C317 -774 169 -502 35 -356L48 -343C98 -391 154 -458 204 -528V-146C204 -64 197 -30 180 0L210 68C215 79 220 81 227 69C238 50 241 26 241 -98V-584C260 -615 294 -674 307 -698C327 -737 339 -754 356 -765C362 -769 363 -774 359 -782ZM932 -397V-416C829 -417 799 -427 710 -489L639 -540C672 -575 704 -614 735 -655C763 -694 771 -701 799 -713C806 -716 807 -721 800 -727L753 -770L719 -730L553 -701C564 -717 574 -733 582 -746C594 -768 605 -779 615 -785C621 -789 622 -797 618 -803L579 -864L564 -859C562 -788 505 -669 397 -528L410 -517C428 -533 458 -568 488 -607C516 -596 554 -569 592 -537C526 -465 449 -398 374 -347L383 -331C427 -357 442 -367 471 -387C475 -356 478 -314 478 -284V-134C478 -55 469 -21 452 6L494 75C499 84 505 83 508 74C513 53 515 35 515 -87V-133L690 -155C704 -156 704 -160 692 -170L661 -193C638 -183 620 -180 515 -166V-236L685 -260C696 -261 697 -266 688 -273L657 -297C633 -287 616 -284 515 -269V-346L720 -373V-115C720 -70 716 -24 710 3L631 -48L619 -34C670 14 684 31 724 84C730 92 735 93 740 85C755 60 758 31 758 -74V-333C758 -366 762 -378 775 -387L797 -370ZM383 -539C386 -544 386 -549 380 -555L329 -599L319 -588C333 -553 335 -530 335 -460V-301C335 -272 327 -239 315 -217L347 -158C355 -143 361 -143 363 -151C368 -169 369 -184 369 -228V-455C369 -503 373 -527 383 -539ZM707 -691C684 -650 650 -604 611 -559C575 -587 557 -603 540 -626L499 -624C513 -641 522 -654 539 -678L565 -662C594 -673 615 -678 707 -691ZM728 -427L714 -409L503 -380L492 -402C535 -437 563 -462 617 -517Z"/>
</svg>