<svg xmlns="http://www.w3.org/2000/svg" viewBox="0 -1000 1000 1000">
	<path fill="#000000" d="M909 -239L867 -272C839 -258 775 -245 697 -237C697 -279 701 -308 706 -318C712 -331 711 -336 703 -343L661 -384L824 -402C840 -404 841 -409 832 -417L806 -442L824 -620C828 -657 836 -669 854 -683C861 -688 860 -692 853 -700L811 -739L777 -698L579 -676C621 -756 641 -786 654 -796C659 -800 660 -805 653 -813L611 -867L597 -858C597 -802 587 -758 543 -673L481 -666L449 -721L434 -714C445 -682 452 -636 452 -587V-473C452 -416 449 -400 440 -387L470 -337C478 -323 483 -323 487 -340C488 -347 489 -352 489 -365L566 -374C544 -319 508 -274 453 -217L398 -213L447 -173C482 -183 517 -190 656 -203V-49C656 -8 647 16 637 31L678 92C686 105 692 105 695 85C697 70 697 54 697 -19V-207L905 -226C919 -227 919 -232 909 -239ZM397 -741L354 -782L323 -746L228 -735L186 -806L171 -801C180 -725 185 -654 185 -592C184 -292 175 -148 56 59L72 68C160 -50 199 -176 215 -323L314 -336C332 -338 333 -341 321 -353L298 -376C286 -370 266 -364 218 -359C221 -390 223 -428 225 -489L314 -502C334 -504 334 -509 321 -521L297 -541C286 -535 268 -530 225 -525C226 -570 227 -624 227 -693L336 -706V-142C336 -65 333 -42 329 -22L244 -81L233 -66C282 -10 313 28 336 59C350 78 354 77 361 60C371 32 376 -7 376 -104V-665C376 -701 378 -718 395 -728C402 -732 401 -738 397 -741ZM615 -643C613 -605 610 -577 605 -545L489 -532V-629ZM784 -663L765 -433L619 -416C626 -443 634 -479 641 -517L741 -529C754 -530 755 -535 746 -542L714 -571C700 -562 674 -554 645 -549C650 -583 654 -618 656 -647ZM602 -513C596 -474 589 -440 580 -412L489 -400V-523L521 -497C541 -503 563 -508 602 -513ZM656 -234L485 -219C548 -277 586 -327 607 -378L642 -382C655 -348 656 -332 656 -234Z"/>
</svg>