<svg xmlns="http://www.w3.org/2000/svg" viewBox="0 -1000 1000 1000">
	<path fill="#000000" d="M933 -41L891 -79C845 -61 816 -55 695 -45V-172L834 -185C846 -186 846 -191 836 -198L796 -228C779 -220 756 -214 695 -206V-309L858 -327C869 -328 870 -331 859 -340L818 -372C801 -363 753 -348 695 -341C695 -396 699 -422 710 -437C713 -443 712 -447 708 -450L669 -488L840 -508C851 -509 851 -513 842 -521L815 -546L841 -716C845 -746 854 -763 870 -774C877 -779 877 -782 870 -788L826 -826L794 -786L543 -755L504 -829L490 -822C500 -787 503 -767 505 -709L510 -564C511 -532 508 -517 499 -499L533 -446C543 -430 550 -430 550 -475L644 -486C654 -459 656 -429 656 -337L526 -322C540 -351 545 -360 554 -366C560 -371 560 -375 556 -382L516 -434L504 -425C509 -367 496 -322 418 -195L434 -186C455 -211 495 -269 519 -310L552 -286C574 -293 593 -297 656 -305V-201L497 -183L545 -147C561 -154 618 -165 656 -169V-43L412 -24L461 17C514 1 579 -8 932 -28C942 -28 944 -32 933 -41ZM419 -748C424 -752 425 -755 418 -761L377 -797L351 -765L227 -745L198 -812L183 -807C191 -749 197 -619 196 -548C191 -226 159 -98 55 61L68 71C171 -43 210 -180 225 -338L334 -358C342 -359 342 -364 336 -369L309 -396C300 -391 265 -381 228 -374C231 -417 233 -463 234 -507L329 -524C337 -525 337 -530 331 -535L304 -561C294 -555 272 -549 234 -544C234 -615 234 -655 232 -710L356 -728V-137C356 -64 354 -37 350 -20L240 -88L230 -74C287 -21 326 22 360 67C367 75 371 75 376 68C392 40 396 -4 396 -143V-700C396 -725 398 -731 419 -748ZM803 -751L774 -535L550 -506L547 -594L752 -625C758 -626 759 -630 753 -636L722 -667C700 -652 661 -641 546 -627L542 -721Z"/>
</svg>