<svg xmlns="http://www.w3.org/2000/svg" viewBox="0 -1000 1000 1000">
	<path fill="#000000" d="M948 35V19C848 15 815 8 677 -111C711 -143 749 -184 776 -226C801 -263 810 -273 821 -280C830 -285 829 -290 819 -297L776 -326L749 -291L591 -273C616 -305 630 -318 635 -320C644 -324 644 -328 636 -335L618 -351L810 -366C820 -367 820 -372 813 -378L780 -409L797 -532C802 -562 808 -574 823 -584C831 -589 830 -592 823 -598L781 -632L756 -601L520 -576L502 -616C509 -628 517 -640 525 -653L872 -686C883 -687 885 -692 874 -700L827 -735C809 -721 772 -712 546 -686C555 -700 563 -715 573 -732C586 -752 593 -759 602 -764C608 -767 609 -771 605 -777L562 -835L547 -828C553 -774 504 -648 398 -509L409 -496C439 -528 457 -551 483 -589C488 -570 491 -545 492 -517L494 -435C496 -403 491 -380 478 -358L511 -303C517 -293 522 -294 525 -303C529 -316 530 -326 531 -344L588 -349C567 -287 478 -171 399 -102L409 -88C448 -118 490 -156 527 -196C539 -191 559 -179 590 -151L634 -111C570 -57 497 -8 380 57L388 73C517 12 598 -35 656 -89L804 54ZM417 -724L368 -754L341 -715L232 -700L196 -782L181 -776C191 -723 194 -654 188 -474C180 -236 141 -96 55 42L70 53C144 -38 188 -138 211 -321L356 -330V-105C356 -69 352 -44 347 -32L264 -86L255 -73C311 -19 329 -2 362 42C367 48 371 48 374 42C389 16 394 -7 394 -72V-672C394 -684 402 -697 416 -708C425 -715 423 -720 417 -724ZM356 -507L319 -536C312 -529 272 -522 225 -514C227 -567 228 -621 228 -668L356 -685ZM760 -571L744 -395L530 -372L529 -445L727 -459C740 -460 740 -465 730 -472L695 -499C666 -487 631 -482 529 -474L526 -545ZM356 -341L318 -372C310 -365 268 -358 214 -351C217 -388 221 -435 224 -484L356 -496ZM752 -264C725 -220 694 -173 654 -131C602 -175 569 -208 563 -221L548 -219C556 -230 566 -241 573 -252L589 -239C599 -245 659 -254 752 -264Z"/>
</svg>