<svg xmlns="http://www.w3.org/2000/svg" viewBox="0 -1000 1000 1000">
	<path fill="#000000" d="M675 -767L590 -849L576 -840L637 -705C641 -697 647 -697 652 -706C663 -725 671 -748 675 -767ZM933 -546L890 -582C869 -573 808 -561 703 -550C724 -597 736 -615 745 -621C754 -627 754 -631 746 -639L716 -671L841 -685C855 -686 856 -690 844 -699L801 -731C769 -712 730 -702 413 -672L451 -635C472 -642 489 -645 511 -648L551 -538L355 -523L398 -482C446 -495 530 -509 929 -533C941 -534 942 -538 933 -546ZM370 -715C379 -723 378 -728 370 -733L328 -761L303 -722L218 -710L188 -788L173 -786C180 -715 183 -573 181 -496C174 -219 148 -73 52 80L62 89C149 -14 192 -121 211 -328L311 -342V-128C311 -75 306 -24 301 -5L212 -64L205 -53C252 -4 283 31 315 73C322 81 328 82 333 71C345 46 351 9 351 -112V-654C351 -682 357 -701 370 -715ZM815 -461L772 -498L747 -461L496 -434L467 -471L455 -465C464 -439 468 -415 470 -381L474 -313C475 -289 468 -270 455 -248L485 -198C491 -189 496 -188 500 -201C502 -206 503 -213 504 -220L798 -245C810 -246 812 -251 802 -260L772 -285L789 -397C792 -418 800 -435 814 -445C822 -451 821 -456 815 -461ZM688 -135L595 -212L584 -200L659 -72C665 -62 670 -61 674 -74C680 -91 685 -113 688 -135ZM898 -105L767 -199L757 -186L878 -32C886 -22 891 -24 893 -37C896 -55 898 -82 898 -105ZM446 -157L429 -159C418 -74 408 -47 376 -9L393 58C396 70 400 72 408 60C428 27 449 -39 446 -157ZM827 76C798 26 780 -13 752 -92L736 -87L766 42C685 46 576 4 491 -161L478 -153C536 28 670 101 818 88C830 87 831 82 827 76ZM697 -669C698 -637 691 -607 670 -548L565 -539C574 -554 581 -572 585 -592L533 -650ZM311 -514L287 -534C273 -527 251 -521 219 -516C220 -561 220 -613 220 -675L311 -688ZM311 -364L292 -380C278 -374 256 -368 213 -361C215 -388 217 -429 218 -487L311 -498ZM753 -427L736 -277L506 -253L505 -319L708 -340C720 -341 721 -345 712 -352L675 -381C652 -369 636 -365 504 -350L503 -404Z"/>
</svg>