<svg xmlns="http://www.w3.org/2000/svg" viewBox="0 -1000 1000 1000">
	<path fill="#000000" d="M864 -599C864 -619 862 -628 856 -649L730 -695C776 -749 796 -769 816 -781C823 -786 824 -791 821 -798L794 -846L781 -841C774 -801 745 -747 690 -688C762 -657 801 -631 851 -592C860 -585 864 -586 864 -599ZM680 -594C682 -604 681 -617 676 -639L587 -685C631 -737 646 -753 663 -765C670 -770 672 -776 668 -782L639 -830L629 -827C623 -791 599 -736 551 -683C618 -639 645 -617 665 -590C673 -579 679 -581 680 -594ZM525 -582C526 -592 526 -607 524 -625L431 -672C490 -741 498 -748 520 -758C528 -762 529 -768 524 -779L498 -833L486 -828C480 -787 455 -739 394 -669C453 -634 480 -610 510 -577C520 -566 524 -567 525 -582ZM369 -750C379 -757 378 -760 368 -768L326 -802L301 -762L190 -744L154 -819L139 -812C147 -752 152 -683 152 -607C153 -218 136 -83 36 88L52 99C134 -21 170 -115 183 -319L313 -336V-151C313 -48 313 -38 309 -7L229 -68L217 -56C262 -5 276 13 319 82C325 91 331 92 336 81C348 54 353 9 353 -105V-682C353 -733 356 -741 369 -750ZM949 65C935 7 928 -37 919 -131H902L897 10C831 -35 805 -112 788 -217C776 -286 779 -304 789 -323C792 -330 791 -336 785 -341L743 -383L812 -390C825 -391 827 -395 817 -404L796 -426L812 -523C815 -540 821 -556 836 -567C844 -574 844 -578 837 -584L798 -616L779 -588L452 -558L431 -596L415 -589C426 -561 430 -541 431 -510L434 -442C435 -414 431 -396 424 -386L453 -345C462 -334 469 -335 471 -358L583 -369C591 -344 595 -308 595 -255V-62C595 -12 590 -1 571 20L600 47C604 52 609 53 615 45C633 23 653 6 747 -55L740 -69L629 -12V-241C629 -280 631 -302 639 -313C644 -320 644 -324 638 -331L603 -371L721 -382C732 -356 739 -320 750 -237C773 -62 820 28 938 74C948 78 952 75 949 65ZM722 -268L670 -315L658 -309L704 -219C708 -211 717 -211 718 -220C721 -242 722 -251 722 -268ZM567 -259L509 -300L501 -290L548 -211C554 -203 559 -203 562 -211C566 -222 568 -239 567 -259ZM725 -149L663 -203L652 -193L705 -102C711 -91 716 -91 719 -106C722 -118 724 -132 725 -149ZM560 -149L502 -198L492 -188L542 -99C549 -84 553 -86 557 -100C561 -111 562 -126 560 -149ZM571 -43L565 -56L470 -9V-166C470 -230 471 -255 479 -269C482 -277 482 -281 475 -289L434 -335L423 -326C432 -306 436 -275 436 -181V-58C436 -11 429 10 402 32L439 52C446 56 449 56 457 47C468 33 490 14 571 -43ZM313 -533L282 -558C276 -553 241 -543 190 -534C191 -592 191 -653 190 -713L313 -731ZM669 -547C661 -532 640 -511 621 -495L533 -535ZM780 -558L761 -416L721 -412C721 -423 719 -439 715 -451L648 -482C669 -497 691 -511 705 -519C711 -523 712 -528 710 -534L703 -550ZM597 -476C556 -445 527 -424 485 -395L489 -388L470 -387L463 -528L509 -533L507 -527C539 -511 558 -501 597 -476ZM313 -351L283 -374C273 -367 237 -358 185 -349C187 -399 188 -452 190 -506L313 -522ZM705 -410L520 -391C554 -412 594 -439 622 -461C661 -441 683 -427 705 -410Z"/>
</svg>