<svg xmlns="http://www.w3.org/2000/svg" viewBox="0 -1000 1000 1000">
	<path fill="#000000" d="M920 -2V-16C818 -33 752 -57 671 -136L563 -244L884 -273C895 -274 896 -279 887 -286L838 -323C777 -303 647 -283 521 -272C521 -296 524 -312 531 -324C534 -328 534 -334 530 -337L502 -361L736 -385C745 -386 745 -390 738 -398L713 -426L741 -648C746 -686 752 -697 774 -711C779 -714 779 -719 774 -724L723 -767L697 -729L448 -699C481 -753 512 -789 534 -803C541 -807 541 -813 535 -820L493 -874L482 -869C482 -841 471 -806 414 -695L340 -686L286 -775L273 -769C281 -747 295 -658 296 -637L304 -436C306 -394 301 -369 287 -350L332 -297C338 -290 343 -292 345 -302C347 -313 347 -324 346 -343L472 -358C479 -339 482 -312 482 -269L95 -237L150 -195C189 -207 303 -222 442 -235C366 -142 229 -42 78 39L86 57C251 -18 392 -121 482 -217V-78C482 -32 474 0 457 25L499 93C501 97 508 99 511 91C518 75 521 42 521 -12V-241L532 -242L756 7ZM702 -695L672 -415L345 -376L342 -448L629 -484C639 -485 640 -490 631 -497L595 -526C574 -513 508 -496 341 -479L338 -545L627 -582C635 -583 637 -587 630 -594L598 -626C579 -614 510 -596 337 -576L334 -652Z"/>
</svg>