<svg xmlns="http://www.w3.org/2000/svg" viewBox="0 -1000 1000 1000">
	<path fill="#000000" d="M839 -670L793 -710L762 -671L512 -641L555 -602C586 -610 625 -616 762 -631L741 -425L502 -402L541 -364C563 -370 619 -377 738 -388L723 -229C716 -156 711 -137 703 -122L668 -158C629 -138 591 -128 283 -109L271 -336L472 -361C486 -363 488 -366 478 -375L440 -410C426 -398 391 -388 270 -371L261 -566C382 -647 426 -674 486 -706C494 -710 497 -716 494 -723L467 -793L447 -789C446 -757 367 -678 264 -602L200 -691L185 -684C200 -644 212 -589 215 -544L236 -218C240 -146 235 -80 226 -57L261 12C266 22 273 22 278 11C284 -5 286 -39 284 -72L687 -103L721 -21C725 -11 732 -10 736 -20C745 -43 755 -106 763 -189L805 -597C807 -617 814 -632 838 -651C848 -659 847 -663 839 -670Z"/>
</svg>