<svg xmlns="http://www.w3.org/2000/svg" viewBox="0 -1000 1000 1000">
	<path fill="#000000" d="M934 -421L890 -455C867 -441 803 -429 700 -419V-613C700 -646 707 -666 721 -675C729 -680 728 -684 722 -690L680 -732L650 -693L468 -670C520 -770 537 -795 552 -804C562 -810 562 -814 555 -823L517 -873L500 -870C499 -828 486 -779 435 -667L375 -659L328 -741L313 -735C334 -642 334 -533 318 -386L64 -364L121 -318C156 -327 238 -340 315 -347C294 -186 225 -44 85 93L98 108C259 -28 333 -173 357 -350L657 -378V-119C657 -41 655 -3 646 21L530 -58L519 -45C570 2 607 41 657 102C665 112 669 112 675 100C693 68 700 28 700 -48V-382L932 -404C949 -405 950 -409 934 -421ZM553 -202L454 -314L441 -305L513 -146C519 -133 524 -132 532 -145C541 -160 547 -177 553 -202ZM657 -415L361 -389C372 -496 374 -565 371 -621L657 -656ZM549 -505L462 -605L447 -596L513 -454C519 -442 526 -441 531 -452C538 -469 543 -482 549 -505Z"/>
</svg>