<svg xmlns="http://www.w3.org/2000/svg" viewBox="0 -1000 1000 1000">
	<path fill="#000000" d="M725 -716L620 -836L607 -829L689 -642C693 -633 697 -633 703 -642C712 -658 720 -682 725 -716ZM475 -648C482 -653 483 -657 475 -663L429 -699L403 -664L336 -656C371 -746 385 -771 401 -783C408 -788 408 -792 401 -800L348 -858L338 -854C345 -808 341 -776 306 -653L266 -649L227 -717L213 -709C228 -639 230 -534 222 -391L56 -372L99 -330C128 -340 160 -347 221 -356C209 -180 171 -61 76 79L89 92C205 -37 248 -202 259 -361L411 -383V-159C411 -85 405 -13 400 5L288 -80L276 -66C334 -4 374 44 411 95C416 103 422 103 427 95C442 65 451 -11 451 -98V-587C451 -620 454 -633 475 -648ZM937 -600L896 -632C842 -610 782 -600 466 -573L521 -534C552 -543 587 -550 658 -558C648 -512 630 -473 564 -373C533 -324 519 -315 481 -302L514 -266C520 -259 525 -259 536 -263C575 -278 614 -289 719 -312C681 -242 624 -157 578 -99C537 -48 523 -39 474 -25L508 22C512 27 516 28 521 26C553 12 611 -5 829 -50C842 -26 853 -3 863 21C868 34 872 34 879 22C887 8 893 -17 897 -47L760 -202L747 -193C771 -158 795 -116 816 -74L577 -37L720 -247C797 -362 816 -384 836 -392C842 -395 843 -398 838 -408L800 -474L787 -470C787 -450 774 -415 735 -341L563 -313L633 -418C659 -460 685 -488 705 -502C711 -507 711 -511 708 -518L687 -560L935 -587C946 -588 946 -593 937 -600ZM362 -247L293 -338L283 -331L321 -199C324 -189 328 -188 335 -196C346 -210 354 -226 362 -247ZM411 -413L261 -395C265 -470 267 -534 267 -615L411 -632ZM369 -510L304 -584L294 -576L336 -464C340 -453 344 -453 350 -463C359 -477 364 -491 369 -510Z"/>
</svg>