<svg xmlns="http://www.w3.org/2000/svg" viewBox="0 -1000 1000 1000">
	<path fill="#000000" d="M923 -645L867 -685C839 -670 799 -660 659 -654C696 -736 706 -755 715 -765C720 -771 720 -777 714 -783L657 -842L646 -835C662 -798 648 -711 628 -652L400 -643L396 -726C395 -739 397 -750 402 -757C408 -765 407 -771 401 -775L347 -814L336 -804C347 -787 356 -761 358 -727L363 -642L84 -629L130 -584C156 -593 186 -597 365 -604C365 -575 361 -557 348 -542L384 -492C391 -483 397 -483 400 -496C404 -516 405 -549 402 -606L613 -616L583 -541L601 -533L643 -617L921 -629C934 -629 934 -637 923 -645ZM643 -429L552 -518L542 -509L607 -375C611 -367 617 -367 621 -373C629 -386 636 -403 643 -429ZM309 -422L191 -497L182 -486L289 -363C298 -353 303 -353 307 -364C313 -380 314 -398 309 -422ZM255 -221C259 -237 259 -259 253 -283L115 -350L109 -339L239 -218C247 -209 252 -210 255 -221ZM899 -349L848 -387C814 -368 780 -356 304 -345L347 -304C375 -311 412 -315 454 -317V-63C454 -36 443 -18 417 6L461 41C470 49 473 48 479 36C489 16 496 10 522 9L862 -5C873 -5 875 -12 864 -20L808 -60C782 -42 739 -37 494 -30V-319L896 -334C909 -334 910 -341 899 -349ZM391 -298L375 -304L209 -36L113 -120L102 -109C137 -66 172 -16 204 35C210 45 216 45 221 35Z"/>
</svg>