<svg xmlns="http://www.w3.org/2000/svg" viewBox="0 -1000 1000 1000">
	<path fill="#000000" d="M878 -708L837 -744C814 -732 723 -715 645 -708C666 -763 672 -773 684 -781C691 -787 691 -790 684 -796L624 -852L610 -846C620 -818 620 -783 601 -705L405 -691C404 -752 405 -763 410 -774C414 -782 412 -786 404 -790L342 -822L334 -812C348 -788 360 -754 366 -689L83 -670L145 -625C180 -636 207 -640 368 -651C372 -620 368 -594 361 -582L390 -544C398 -533 402 -535 405 -547C409 -560 410 -581 407 -654L592 -670C584 -641 571 -599 557 -560L575 -553C596 -594 616 -636 633 -673L875 -693C890 -694 891 -698 878 -708ZM322 -493L208 -557L198 -546L297 -425C304 -416 311 -417 315 -425C321 -439 324 -460 322 -493ZM231 -362L101 -420L95 -404L212 -298C219 -290 223 -290 228 -300C234 -314 235 -332 231 -362ZM951 -196V-212C840 -219 787 -238 613 -351C651 -387 672 -409 711 -457C739 -492 750 -499 769 -505C778 -508 778 -512 770 -520L731 -557L690 -524L502 -498C522 -532 530 -541 539 -547C547 -552 549 -557 546 -562L508 -621L494 -616C492 -556 466 -482 352 -326L368 -315C403 -350 426 -377 452 -416C474 -408 492 -397 559 -348C490 -287 414 -232 277 -157L282 -145C338 -166 382 -186 427 -212C433 -190 436 -164 437 -130L439 -43C439 -21 433 1 421 21L462 85C469 96 475 94 476 85C479 65 480 55 480 23L717 4C732 3 732 0 723 -10L701 -38L718 -158C720 -171 728 -184 737 -187C743 -190 744 -194 736 -201L693 -236L666 -201L469 -181L445 -225C514 -266 549 -291 590 -330L812 -169ZM353 -394L335 -401L181 -55L113 -107L105 -94C138 -52 163 -16 188 26C195 37 199 36 203 26ZM683 -486C648 -445 617 -407 584 -371C516 -417 508 -428 503 -440L466 -437C474 -449 483 -461 489 -471L500 -460C533 -467 573 -473 683 -486ZM673 -168L660 -32L480 -13V-149Z"/>
</svg>