<svg xmlns="http://www.w3.org/2000/svg" viewBox="0 -1000 1000 1000">
	<path fill="#000000" d="M859 -722L815 -758C798 -750 719 -731 642 -722C663 -783 670 -797 679 -803C687 -808 687 -814 679 -818L624 -846L614 -836C618 -813 616 -785 602 -718L406 -700C406 -763 407 -768 412 -778C415 -785 414 -789 408 -793L341 -833L333 -822C347 -805 354 -790 367 -697L121 -675L175 -636C194 -644 210 -647 370 -663C370 -617 369 -605 362 -594L395 -554C403 -545 407 -545 410 -556C412 -566 412 -615 408 -666L594 -683C588 -652 579 -617 566 -573L583 -566C600 -606 614 -642 629 -686L857 -707C868 -708 869 -714 859 -722ZM886 -534C894 -539 894 -542 886 -549L843 -588L815 -561L515 -530C520 -548 526 -569 530 -582L454 -642L443 -636L493 -529L206 -499C207 -517 206 -532 205 -542H187C180 -465 155 -418 131 -397L151 -340C154 -332 157 -330 164 -339C182 -362 199 -405 204 -465L806 -524L758 -434L773 -424C830 -490 864 -522 886 -534ZM714 -428L672 -461C637 -445 593 -439 270 -410L316 -371C401 -386 440 -390 713 -416C722 -417 723 -420 714 -428ZM725 -329C730 -334 730 -340 725 -344L681 -375L656 -343L334 -311L307 -350L294 -345C303 -317 308 -279 308 -253L309 -168C309 -129 306 -107 295 -88L330 -37C338 -26 341 -26 345 -38C348 -48 350 -56 350 -72L705 -98C715 -99 715 -102 707 -111L683 -138L701 -264C706 -302 712 -316 725 -329ZM896 4L840 -41C806 -23 717 -10 111 21L158 65C211 50 315 37 895 15C904 15 905 12 896 4ZM664 -313L644 -133L349 -106L347 -181L613 -207C622 -208 623 -211 614 -219L579 -249C560 -240 497 -228 346 -214L344 -278Z"/>
</svg>