<svg xmlns="http://www.w3.org/2000/svg" viewBox="0 -1000 1000 1000">
	<path fill="#000000" d="M873 -732L831 -765C806 -751 755 -740 634 -731C653 -768 661 -782 669 -788C675 -793 676 -797 671 -803L622 -862L611 -855C617 -826 616 -796 594 -729L409 -716C406 -768 407 -777 411 -785C414 -792 413 -797 408 -801L356 -843L345 -832C358 -817 366 -786 375 -714L122 -696L182 -656C212 -665 299 -675 376 -681C377 -663 373 -646 368 -640L398 -592C404 -584 408 -583 411 -595C415 -611 415 -634 411 -684L583 -696C574 -668 564 -642 553 -615L569 -609C590 -644 598 -659 616 -698L869 -717C882 -718 884 -724 873 -732ZM918 -497L880 -526C848 -515 775 -502 655 -492C665 -544 671 -553 690 -565C696 -569 697 -574 691 -579L653 -617L618 -586L479 -573C487 -596 492 -606 495 -610C502 -616 502 -619 496 -626L453 -672L443 -666C447 -643 446 -602 440 -570L257 -553L303 -515C321 -523 349 -529 433 -537L417 -473L60 -444L121 -405C210 -427 300 -436 915 -481C931 -482 931 -486 918 -497ZM841 -122L802 -149C770 -134 730 -129 529 -115V-182L783 -203C796 -204 797 -208 785 -217L743 -246C716 -233 645 -223 530 -215C531 -228 534 -239 538 -246C542 -253 541 -257 512 -278L701 -292C712 -293 714 -296 705 -306L686 -327L697 -364C702 -380 707 -386 718 -393C727 -399 728 -403 721 -411L691 -445L663 -416L353 -384L329 -430L313 -426C318 -408 323 -376 324 -356L327 -308C328 -287 323 -275 316 -267L347 -220C353 -210 359 -211 361 -222C363 -235 363 -247 362 -267L487 -277C490 -259 492 -236 492 -213L180 -191L232 -155C241 -158 251 -160 261 -161C262 -148 258 -132 254 -121C242 -89 235 -79 211 -72L242 -42C248 -36 252 -36 256 -43C267 -60 277 -67 334 -71L492 -82C492 -1 489 11 474 31L508 101C514 112 519 113 522 101C527 85 529 54 529 -84L838 -106C854 -107 855 -112 841 -122ZM630 -555L614 -489L454 -476L470 -540ZM663 -385L647 -322L361 -297L358 -354ZM492 -113L283 -97C287 -109 292 -119 298 -123C306 -129 306 -132 301 -139L285 -163L492 -179Z"/>
</svg>