<svg xmlns="http://www.w3.org/2000/svg" viewBox="0 -1000 1000 1000">
	<path fill="#000000" d="M898 -706L853 -743C812 -730 713 -716 614 -708C633 -765 644 -791 653 -800C658 -805 657 -809 653 -813L601 -868L588 -859C594 -813 593 -774 577 -706L419 -695L417 -736C415 -771 416 -795 420 -803C423 -809 422 -811 418 -814L354 -852L348 -843C363 -825 377 -786 379 -746L382 -693L88 -674L144 -629C184 -639 254 -648 383 -660C382 -640 378 -619 374 -612L408 -568C414 -561 419 -561 421 -573C423 -584 423 -606 420 -662L569 -672C562 -642 554 -610 543 -572L562 -567C576 -599 592 -639 603 -674L895 -693C906 -694 907 -699 898 -706ZM500 -452L468 -481C447 -472 386 -457 341 -451C349 -519 354 -535 361 -545C366 -551 365 -557 358 -563L306 -607L297 -600C307 -567 310 -526 304 -447L78 -425L120 -390C145 -396 213 -408 302 -417L292 -290L225 -281L200 -337L185 -332C189 -303 193 -258 194 -230L196 -132C196 -108 190 -85 181 -66L217 -4C223 6 228 4 231 -11C234 -25 235 -42 234 -86L413 -104C423 -105 423 -110 416 -117L396 -137L418 -249C422 -268 428 -278 445 -288C452 -292 452 -297 443 -305L405 -338L375 -300L325 -293L339 -421L496 -438C509 -439 510 -443 500 -452ZM807 -540L757 -578L729 -532L567 -511L535 -565L521 -560C531 -517 531 -453 525 -349C513 -172 459 -53 313 75L325 87C463 -22 504 -96 536 -191L703 -214C712 -215 713 -219 706 -226L677 -253C666 -247 629 -238 546 -225C553 -254 559 -284 563 -331L710 -355C720 -357 720 -360 713 -367L687 -393C670 -384 649 -379 565 -366C567 -396 568 -431 570 -474L743 -497V-162C743 -52 739 -12 731 14L621 -75L611 -62C666 1 698 39 749 104C755 111 758 111 762 104C779 73 784 39 784 -130V-469C784 -511 789 -517 806 -527C813 -531 813 -535 807 -540ZM382 -272L362 -132L233 -119L229 -252Z"/>
</svg>