<svg xmlns="http://www.w3.org/2000/svg" viewBox="0 -1000 1000 1000">
	<path fill="#000000" d="M876 -716L837 -749C804 -737 729 -723 629 -716C643 -756 651 -775 661 -784C667 -789 666 -793 659 -801L608 -856L598 -851C605 -817 606 -780 591 -712L438 -704L436 -733C435 -744 438 -760 442 -768C446 -775 445 -779 439 -783L378 -822L368 -810C382 -793 397 -754 398 -734L400 -702L128 -684L170 -643C193 -650 259 -657 401 -669C401 -648 396 -628 391 -618L421 -579L341 -570L313 -615L298 -608C305 -580 310 -546 310 -525V-452C310 -417 306 -392 299 -377L331 -335C337 -328 341 -327 344 -335C346 -340 347 -344 348 -357L384 -360C360 -303 277 -222 71 -109L80 -91C156 -129 223 -164 275 -201C280 -191 282 -176 282 -136V-78C282 -60 276 -46 259 -26L298 7C306 13 309 13 314 7C325 -9 334 -13 355 -15L635 -37C648 -38 649 -43 640 -51L608 -81C584 -71 494 -59 319 -44V-110C319 -140 321 -152 328 -164C332 -172 332 -175 324 -183L294 -213C310 -225 328 -238 342 -252L369 -220C396 -229 431 -236 498 -245C489 -206 441 -143 362 -82L371 -67C423 -101 473 -141 509 -181L648 -96C657 -90 662 -92 662 -102C662 -117 660 -129 653 -154L523 -194C531 -206 537 -212 543 -216C553 -224 552 -228 546 -234L532 -248L777 -281C745 -116 718 -38 681 26L595 -29L585 -17C634 32 660 62 674 84C683 98 687 97 695 87C739 29 767 -37 812 -226C822 -266 829 -283 848 -295C856 -300 855 -307 849 -312L803 -351L771 -316L367 -270C390 -287 409 -301 420 -307C427 -311 428 -315 425 -322L408 -362L707 -389C718 -390 719 -394 713 -403L697 -425L713 -528C719 -567 724 -576 739 -583C749 -589 749 -593 740 -601L703 -639L672 -606L589 -596C600 -625 610 -653 620 -684C748 -694 805 -698 873 -703C884 -704 885 -708 876 -716ZM583 -681C577 -655 569 -627 558 -593L439 -580C442 -605 442 -633 439 -671ZM675 -572L660 -423L348 -388V-469L378 -444C407 -451 483 -464 621 -478C633 -479 635 -483 626 -492L599 -518C573 -505 522 -494 348 -479V-537Z"/>
</svg>