<svg xmlns="http://www.w3.org/2000/svg" viewBox="0 -1000 1000 1000">
	<path fill="#000000" d="M867 -712L828 -743C801 -733 712 -713 633 -705C658 -769 663 -776 673 -784C680 -790 681 -795 674 -801L623 -850L611 -842C617 -820 613 -758 595 -702L436 -688L433 -725C431 -748 431 -764 437 -778C440 -785 439 -789 432 -793L374 -827L363 -817C378 -795 392 -756 395 -729L398 -685L126 -664L172 -630C205 -636 286 -645 400 -655C401 -641 398 -631 396 -623L431 -582C439 -573 443 -574 444 -584C445 -599 443 -621 439 -659L584 -673L560 -603L579 -594C594 -620 607 -646 619 -676L865 -697C878 -698 879 -703 867 -712ZM881 -495L844 -526C812 -516 643 -487 511 -478V-542C557 -548 596 -554 612 -557C652 -565 707 -567 715 -566C725 -565 728 -570 721 -577L678 -624L668 -619C652 -597 609 -582 249 -530L251 -515C296 -518 391 -528 471 -537V-475L83 -447L130 -412C189 -424 285 -433 471 -448V-386L305 -370L284 -414L268 -408C274 -386 278 -343 278 -316L279 -230C279 -213 276 -197 270 -186L301 -133C308 -121 312 -121 315 -132C318 -143 320 -155 320 -167L471 -181V-113L245 -93L292 -61C319 -67 397 -78 471 -84V-10L118 9L163 47C259 31 455 16 863 1C874 1 875 -3 864 -13L827 -44C793 -34 702 -21 511 -11V-88L724 -108C735 -109 735 -113 727 -119L692 -145C672 -136 600 -124 511 -116V-184L726 -203C736 -204 738 -208 728 -217L705 -239L722 -339C726 -362 734 -377 748 -386C757 -392 757 -395 748 -402L706 -436L682 -404L511 -387V-451L879 -483C889 -484 889 -488 881 -495ZM687 -377L665 -228L511 -213V-278L618 -287C629 -288 631 -292 620 -301L593 -325C575 -318 546 -310 511 -304V-360ZM471 -209L319 -193L313 -341L471 -357V-300L352 -287L394 -260C415 -265 438 -270 471 -274Z"/>
</svg>