<svg xmlns="http://www.w3.org/2000/svg" viewBox="0 -1000 1000 1000">
	<path fill="#000000" d="M877 -703L833 -745C815 -737 741 -722 621 -710C645 -773 651 -783 660 -789C667 -794 668 -798 661 -806L607 -862L594 -852C598 -818 596 -781 578 -707L435 -695L433 -730C432 -757 434 -777 438 -783C443 -790 441 -794 435 -798L375 -836L365 -825C384 -793 391 -763 393 -736L396 -693L121 -671L178 -628C203 -636 315 -654 397 -661C399 -628 397 -610 391 -599L419 -564L248 -545L297 -508C346 -520 419 -532 616 -552L509 -458C500 -473 481 -492 465 -504L454 -493C498 -433 504 -318 487 -241L401 -275L394 -261C431 -232 461 -205 486 -180L271 -163L320 -121C354 -132 448 -143 697 -158C708 -158 709 -163 700 -171L658 -208C624 -195 584 -187 516 -181C538 -236 544 -344 518 -435C647 -528 676 -542 701 -549C711 -552 711 -557 705 -564L661 -615L625 -585L574 -579L609 -674L874 -691C884 -692 884 -696 877 -703ZM942 -168V-186C814 -205 786 -216 640 -367C728 -425 755 -438 777 -440C787 -441 789 -444 785 -454L760 -524L744 -522C733 -483 716 -463 620 -387C597 -413 593 -422 589 -434L540 -433L537 -424C558 -410 574 -392 615 -344L770 -161ZM455 -405C462 -408 462 -413 455 -419L413 -458L384 -426L155 -398L204 -362C240 -370 277 -377 373 -390C297 -280 189 -192 62 -124L75 -103C196 -159 314 -255 386 -337C424 -383 442 -399 455 -405ZM613 -20L541 -119L527 -111L563 39C566 50 569 52 577 44C596 25 603 12 613 -20ZM794 -16L691 -121L678 -110L760 70C764 78 769 77 774 69C786 50 792 20 794 -16ZM441 -3L393 -111L375 -104L381 57C381 69 385 71 395 64C416 48 437 16 441 -3ZM253 -118H233C218 -48 190 7 161 25L177 93C179 103 183 104 192 97C227 68 250 -15 253 -118ZM568 -672C563 -646 554 -613 543 -576L438 -565C440 -577 440 -591 439 -613L436 -663Z"/>
</svg>