<svg xmlns="http://www.w3.org/2000/svg" viewBox="0 -1000 1000 1000">
	<path fill="#000000" d="M908 -726L865 -753C828 -739 765 -727 626 -719C645 -770 650 -780 658 -786C665 -793 664 -800 659 -804L600 -860L589 -854C599 -823 597 -758 588 -716L415 -704C415 -763 416 -771 423 -780C428 -788 428 -795 421 -800L361 -846L350 -836C366 -812 374 -778 379 -702L86 -683L145 -644C176 -653 216 -657 381 -670C382 -644 378 -616 370 -606L393 -580L360 -543L120 -513L174 -477C201 -486 278 -501 365 -513L298 -389C280 -411 259 -431 234 -453L220 -443C257 -408 283 -362 294 -322L47 -228L114 -199C135 -217 180 -240 301 -294C326 -170 311 -49 287 -8L184 -76L174 -66C224 -20 257 20 286 60C294 71 301 71 308 59C347 -3 374 -155 337 -311L437 -357L431 -375L330 -336C326 -347 319 -359 311 -371C370 -463 409 -509 434 -518C444 -522 445 -528 437 -537L411 -566C415 -566 417 -570 418 -579C419 -592 418 -613 416 -672L580 -684C570 -642 565 -624 548 -570L565 -565C580 -592 597 -633 616 -687L901 -708C925 -711 925 -716 908 -726ZM871 -211C874 -225 874 -242 871 -274L736 -353L727 -340C747 -325 769 -305 787 -284L573 -262C631 -302 722 -375 750 -401C784 -431 800 -440 810 -441C821 -442 823 -446 818 -458L789 -524L773 -521C775 -497 745 -452 685 -393L548 -381L631 -456C649 -472 666 -482 673 -484C685 -487 686 -491 682 -500L663 -539C686 -546 713 -554 736 -561C772 -570 805 -577 820 -578C831 -578 832 -584 824 -592L777 -641L766 -638C763 -608 711 -575 452 -510L455 -490C519 -501 572 -513 633 -530C617 -496 592 -466 548 -421C520 -394 499 -381 461 -374L491 -341C499 -332 503 -332 513 -336C532 -343 586 -356 659 -368C620 -335 610 -327 573 -298C532 -266 512 -260 454 -250L490 -217C499 -209 502 -209 515 -213C532 -219 583 -229 632 -236C640 -207 643 -188 643 -157V-46C643 -22 641 -2 637 14L538 -52L528 -39C577 2 623 52 647 85C658 100 664 98 669 82C676 64 682 31 682 -17V-127C682 -172 686 -192 690 -199C695 -208 693 -214 686 -220L661 -241L806 -262C824 -242 837 -227 851 -206C861 -191 867 -190 871 -211ZM576 -148L552 -209L537 -205C533 -164 506 -117 365 4L376 17C432 -19 464 -44 514 -90C549 -123 557 -128 568 -131C578 -133 580 -138 576 -148ZM907 -17C906 -32 902 -54 892 -89L726 -178L718 -166C800 -105 839 -64 887 -10C900 5 908 2 907 -17Z"/>
</svg>