<svg xmlns="http://www.w3.org/2000/svg" viewBox="0 -1000 1000 1000">
	<path fill="#000000" d="M877 -736L835 -766C808 -755 709 -742 614 -735C624 -758 637 -775 647 -782C652 -786 652 -791 648 -795L606 -847L591 -844C598 -824 596 -797 576 -733L419 -724L417 -744C415 -761 418 -778 423 -787C425 -792 425 -795 421 -798L363 -826L357 -817C368 -797 379 -768 382 -747L385 -722L108 -704L156 -667C191 -675 252 -681 388 -691C389 -676 387 -661 382 -650L405 -620L335 -613L299 -653L288 -647C301 -617 306 -590 306 -568L307 -503C307 -474 305 -463 299 -450L328 -410C335 -400 338 -400 342 -411C345 -419 347 -425 347 -435L690 -466C699 -467 700 -470 692 -477L667 -500L684 -587C688 -607 693 -618 709 -628C717 -634 716 -639 710 -643L663 -674L639 -641L570 -634C585 -665 592 -681 601 -704L874 -723C885 -724 886 -729 877 -736ZM806 -424L765 -453L734 -426L250 -379L222 -434L206 -429C216 -397 220 -372 220 -340V-293C220 -271 217 -262 210 -248L243 -201C252 -190 256 -190 257 -203C259 -216 260 -230 260 -242L788 -285C797 -285 798 -289 790 -296L764 -321L778 -371C784 -389 795 -406 805 -409C813 -412 814 -418 806 -424ZM905 45V28C756 31 711 21 623 -24L510 -82C550 -109 567 -122 619 -167C643 -188 659 -198 678 -207C684 -210 685 -215 682 -218L647 -255L613 -227L286 -193L329 -166C388 -177 455 -186 597 -200C561 -163 520 -130 474 -101C421 -129 401 -141 389 -154L337 -148L335 -139C354 -133 381 -121 447 -84C342 -20 215 30 85 60L88 76C235 53 369 4 482 -63L718 73ZM566 -702C559 -682 551 -659 542 -632L429 -622C429 -634 427 -652 422 -693ZM645 -611L634 -494L347 -466L345 -510L603 -535C618 -536 619 -542 607 -550L573 -571C547 -559 512 -553 344 -537L342 -584ZM742 -394L725 -311L584 -299L588 -380ZM549 -378L545 -296L433 -286L432 -367ZM396 -284L258 -271L253 -351L395 -364Z"/>
</svg>