<svg xmlns="http://www.w3.org/2000/svg" viewBox="0 -1000 1000 1000">
	<path fill="#000000" d="M860 -700L819 -734C782 -721 762 -717 623 -706C648 -772 652 -779 662 -787C671 -794 670 -800 662 -809L615 -860L601 -854C609 -817 606 -778 586 -704L428 -695L424 -740C423 -763 425 -785 432 -797C436 -803 434 -808 426 -813L370 -845L362 -836C375 -821 386 -776 388 -740L391 -693L129 -679L174 -639C204 -646 245 -650 392 -660C392 -645 389 -628 386 -620L414 -576C420 -567 427 -565 429 -580C431 -595 431 -618 430 -662L576 -671C567 -642 555 -605 544 -574L562 -566C581 -600 599 -639 611 -673L857 -687C869 -688 869 -692 860 -700ZM949 -190C818 -208 804 -215 663 -392C741 -483 768 -509 791 -517C800 -520 800 -524 792 -533L751 -576L715 -545L559 -523C557 -527 554 -532 552 -536L504 -531L503 -525C519 -513 553 -475 562 -463L798 -164L948 -176ZM492 -490C504 -497 504 -502 492 -511L453 -541L424 -506L297 -491C320 -523 334 -537 346 -545C354 -551 355 -557 350 -566L319 -615L305 -609C309 -567 247 -450 96 -314L107 -300C131 -317 160 -340 187 -367L244 -260C188 -208 124 -160 46 -110L53 -94C203 -172 339 -298 447 -449C461 -469 475 -480 492 -490ZM607 -342L574 -367C545 -353 529 -350 377 -335L417 -302C453 -312 486 -317 605 -326C618 -327 617 -334 607 -342ZM693 -242L657 -271C617 -255 569 -246 275 -224L317 -190C352 -198 389 -203 478 -210C483 -196 485 -180 485 -149V-32C485 -5 483 8 479 20L388 -31L380 -16C436 36 462 64 488 97C495 106 499 106 506 96C516 80 522 50 522 -1V-134C522 -152 525 -170 531 -177C536 -185 536 -190 528 -197L510 -213L690 -229C701 -230 702 -234 693 -242ZM781 5C780 -22 778 -34 769 -65L597 -140L589 -125C661 -75 701 -46 765 9C776 18 781 16 781 5ZM382 -110L353 -162L342 -158C336 -121 295 -66 136 42L146 59C186 39 257 -4 313 -47C360 -83 366 -87 377 -90C387 -93 388 -99 382 -110ZM712 -513L648 -412L577 -498L592 -490C625 -498 638 -500 712 -513ZM414 -475C384 -426 352 -383 320 -343C322 -359 322 -379 322 -398L261 -446C269 -454 277 -464 283 -472L307 -455C333 -463 363 -469 414 -475ZM310 -331C293 -310 276 -291 255 -272C259 -287 260 -307 262 -325L198 -378C214 -395 232 -415 247 -431Z"/>
</svg>