<svg xmlns="http://www.w3.org/2000/svg" viewBox="0 -1000 1000 1000">
	<path fill="#000000" d="M904 -723L855 -762C813 -746 770 -740 626 -732C644 -770 650 -779 655 -783C664 -789 664 -794 658 -801L610 -855L596 -846C602 -818 601 -781 585 -730L415 -720L414 -751C414 -773 415 -782 419 -787C425 -792 424 -797 418 -801L363 -837L355 -825C364 -810 373 -776 374 -753L375 -718L92 -702L146 -656C173 -664 230 -671 373 -679C372 -665 370 -655 363 -644L389 -610L242 -599L284 -562C314 -568 381 -575 470 -582V-523L176 -500C176 -518 175 -538 175 -560H155C151 -485 133 -436 110 -416L131 -363C134 -355 140 -354 145 -363C162 -392 170 -417 174 -463L470 -485V-442C470 -370 467 -347 456 -331L495 -281C501 -272 507 -274 508 -283C510 -305 511 -339 511 -418V-487L802 -510L760 -426L776 -413C832 -485 856 -508 881 -517C892 -521 892 -528 885 -535L842 -581L809 -547L511 -525V-585L727 -603C741 -604 744 -610 733 -618L690 -649C676 -643 627 -633 581 -627C593 -654 602 -675 609 -692L901 -710C911 -710 913 -716 904 -723ZM738 -431L710 -452C688 -441 653 -436 540 -428L589 -398C615 -407 648 -411 734 -418C745 -418 747 -425 738 -431ZM414 -413L385 -435C356 -424 336 -418 226 -411L262 -382C295 -388 327 -392 409 -400C419 -400 421 -407 414 -413ZM746 -351L715 -376C689 -367 655 -362 534 -352L575 -321C613 -330 652 -335 742 -339C754 -339 755 -343 746 -351ZM416 -332L388 -358C371 -351 332 -341 220 -330L257 -302C291 -311 329 -315 413 -321C424 -322 424 -325 416 -332ZM775 -266L728 -303L701 -271L279 -228L249 -275L233 -267C241 -230 243 -210 245 -152L248 -46C249 -8 244 14 234 30L277 87C284 97 289 96 291 85C293 73 293 65 293 48L648 25L676 90C680 98 685 98 689 90C705 54 712 26 719 -21L747 -191C752 -225 759 -240 774 -246C785 -251 786 -258 775 -266ZM572 -690C564 -670 556 -648 545 -623L406 -612C411 -627 415 -654 415 -681ZM708 -231L683 -64C679 -35 671 -10 659 6L620 -24C608 -17 584 -11 515 -5V-94L654 -106C664 -107 666 -111 657 -119L619 -150C605 -143 565 -135 515 -129V-213ZM477 -2L291 13L284 -192L477 -210V-125L315 -108L351 -73C369 -79 416 -86 477 -91Z"/>
</svg>