<svg xmlns="http://www.w3.org/2000/svg" viewBox="0 -1000 1000 1000">
	<path fill="#000000" d="M439 -198L359 -282L346 -272L377 -210L300 -189V-342L406 -355C419 -356 420 -360 412 -368L396 -385L417 -521C420 -539 426 -548 438 -554C448 -560 448 -565 438 -573L397 -606L374 -575L300 -566V-683C300 -722 309 -763 319 -776C327 -785 327 -791 317 -800L253 -859L241 -850C254 -812 260 -768 260 -699V-561L182 -551L153 -614L138 -607C143 -587 147 -551 147 -518L148 -379C148 -340 144 -322 134 -310L165 -259C175 -244 180 -245 183 -260C185 -270 186 -287 187 -329L260 -338V-178L53 -121L116 -85C137 -101 177 -117 388 -187L410 -143C417 -130 424 -131 427 -142C433 -159 437 -177 439 -198ZM955 -76V-93C873 -109 849 -131 794 -213L678 -383V-389L889 -412C901 -413 903 -418 891 -427L848 -459C830 -450 771 -436 678 -424V-549L829 -569C843 -571 843 -575 832 -584L797 -612C782 -603 732 -592 678 -584V-676C678 -730 687 -774 696 -789C702 -798 701 -802 694 -808L631 -864L618 -854C631 -828 637 -778 637 -689V-578L528 -563C537 -579 545 -597 551 -614C562 -646 574 -669 582 -677C592 -686 592 -692 587 -698L540 -755L523 -747C532 -694 514 -604 435 -436L451 -427C476 -461 495 -493 517 -539L538 -524C557 -531 593 -538 637 -544V-419L414 -391L464 -357C498 -366 547 -375 600 -381C558 -287 452 -139 326 -20L337 -8C469 -117 575 -244 637 -362V-115C637 -22 628 14 612 35L652 97C661 112 665 112 669 96C675 75 678 37 678 -52V-344L827 -67ZM377 -540L360 -385L300 -378V-529ZM260 -373L186 -364L184 -514L260 -524Z"/>
</svg>