<svg xmlns="http://www.w3.org/2000/svg" viewBox="0 -1000 1000 1000">
	<path fill="#000000" d="M431 -769L344 -861L331 -853L384 -701C387 -693 392 -692 399 -701C409 -716 418 -734 431 -769ZM718 -588C721 -595 721 -598 716 -603L665 -657L653 -649C662 -620 666 -572 666 -528V-360C666 -311 660 -281 647 -261L686 -195C693 -184 697 -184 701 -196C704 -205 706 -239 706 -310V-518C706 -547 709 -570 718 -588ZM869 -778C875 -787 874 -792 868 -797L803 -858L790 -848C807 -808 811 -753 811 -694V-100C811 -53 806 -11 800 10L667 -65L659 -52C748 22 786 60 813 95C819 102 824 103 829 95C842 76 854 17 854 -71V-676C854 -727 858 -760 869 -778ZM650 -709L603 -750L577 -710L214 -669C215 -690 213 -712 210 -734H192C188 -648 170 -602 143 -577L162 -518C165 -510 171 -510 177 -518C194 -542 208 -584 213 -634L347 -650C357 -626 359 -607 359 -548L208 -528L251 -494C290 -506 308 -510 359 -517V-446L204 -425L252 -392C291 -402 322 -409 359 -415V-339L121 -307L165 -271C203 -282 256 -293 359 -309C358 -287 355 -275 350 -264L379 -217L263 -198L234 -250L219 -245C225 -219 230 -175 231 -146L235 -52C236 -31 232 -10 224 8L258 64C262 71 268 72 271 61C275 47 276 33 274 -6L531 -33C545 -34 545 -37 536 -45L511 -69L521 -144C529 -193 533 -202 552 -218C559 -224 558 -228 552 -233L507 -270L486 -235L395 -220C398 -239 399 -260 399 -313L607 -342C622 -344 623 -348 611 -358L573 -386C527 -369 478 -357 399 -344V-420L532 -440C543 -441 544 -446 535 -453L501 -479C481 -469 450 -461 399 -452V-521L540 -540C551 -541 552 -545 543 -553L510 -580C488 -571 463 -563 399 -553C399 -583 402 -593 413 -609C416 -614 415 -618 410 -622L374 -653L575 -676L537 -585L552 -577C609 -666 637 -690 649 -696C656 -700 656 -704 650 -709ZM488 -201L470 -64L272 -40L265 -167Z"/>
</svg>