<svg xmlns="http://www.w3.org/2000/svg" viewBox="0 -1000 1000 1000">
	<path fill="#000000" d="M869 -776L829 -808L804 -771L657 -746L699 -714C726 -724 746 -729 810 -739L789 -585L641 -566L686 -534C718 -544 742 -549 840 -559C855 -560 857 -565 846 -574L824 -593L843 -704C846 -723 854 -738 868 -751C879 -761 880 -767 869 -776ZM394 -163L312 -273L299 -266C313 -236 326 -204 338 -170L255 -151V-323L364 -339C379 -341 379 -346 369 -356L346 -380L363 -487C367 -513 373 -526 385 -536C395 -545 394 -549 388 -557L350 -601L323 -562L255 -551V-667C255 -721 261 -750 272 -777C278 -789 276 -794 268 -803L215 -864L203 -856C217 -815 220 -803 220 -683V-547L151 -536L120 -609L106 -604C112 -584 117 -555 118 -520L121 -360C121 -335 117 -321 107 -308L135 -258C145 -240 150 -239 153 -260C155 -268 156 -286 155 -308L220 -318V-144L42 -104L93 -65C116 -79 154 -93 345 -151C353 -127 358 -110 364 -90C368 -74 376 -75 380 -86C387 -106 392 -134 394 -163ZM637 -769L596 -801L573 -765L468 -746L441 -827L428 -824C433 -803 436 -775 436 -743V-95C436 -44 429 -15 414 5L450 71C458 85 463 84 467 70C470 56 471 36 471 -24V-216L612 -235C625 -236 627 -243 616 -251L584 -276C571 -267 536 -255 471 -247V-375L591 -392C604 -394 604 -398 594 -406L564 -430C549 -420 521 -411 471 -403V-534L610 -555C625 -557 626 -561 616 -571L595 -593L611 -696C614 -717 620 -733 636 -748C645 -757 644 -764 637 -769ZM966 48V28C835 8 826 3 747 -180C779 -240 804 -299 833 -386C840 -403 848 -419 859 -428C870 -437 869 -442 861 -450L821 -491L788 -450L616 -429L657 -396C681 -404 704 -408 797 -423C781 -352 755 -279 728 -223C690 -315 686 -338 691 -351L624 -370L620 -354C644 -340 652 -328 671 -282L710 -187C656 -89 593 -16 495 66L504 80C602 13 672 -52 727 -144L810 55ZM579 -733L561 -580L471 -565V-715ZM329 -529L313 -367L255 -357V-517ZM220 -351L155 -341L151 -500L220 -512Z"/>
</svg>