<svg xmlns="http://www.w3.org/2000/svg" viewBox="0 -1000 1000 1000">
	<path fill="#000000" d="M236 -352L169 -342L167 -504L236 -514ZM358 -530L341 -369L274 -358V-519ZM837 40C815 -9 796 -59 769 -138L754 -135L771 6C655 -8 590 -78 538 -261L521 -255C564 -18 654 46 829 55C840 55 842 51 837 40ZM482 -228H464C455 -134 439 -85 399 -60L418 -1C421 8 426 9 432 1C466 -42 489 -124 482 -228ZM919 -154L790 -253L777 -243L894 -86C901 -77 906 -78 909 -86C915 -105 918 -125 919 -154ZM699 -247L598 -320L588 -309L673 -189C679 -180 685 -180 688 -189C694 -207 697 -222 699 -247ZM422 -544C423 -547 420 -553 418 -555L375 -596L351 -561L274 -549V-648C274 -723 279 -754 293 -777C296 -781 296 -786 291 -791L231 -850L219 -842C232 -812 236 -777 236 -659V-545L169 -536L130 -621L117 -614C125 -586 131 -543 131 -524L133 -376C133 -349 128 -320 118 -306L154 -244C159 -237 164 -238 166 -246C168 -259 169 -273 169 -311L236 -321V-141L44 -91L98 -52C123 -69 160 -83 364 -153L381 -102C384 -94 388 -94 393 -101C409 -124 416 -139 422 -158L341 -280L328 -269L357 -174L274 -151V-325L386 -340C395 -341 396 -344 391 -350L378 -366L392 -486C396 -517 402 -529 418 -538L461 -510C505 -520 531 -524 572 -528C537 -449 483 -379 379 -277L386 -269C484 -345 557 -418 612 -517V-446C612 -409 608 -386 598 -363L633 -309C638 -303 642 -303 644 -311C649 -329 650 -340 650 -413V-530L822 -310L962 -324L961 -339C864 -345 830 -362 725 -479L673 -536L879 -554C892 -555 893 -561 886 -567L842 -599C806 -584 782 -578 715 -569C776 -657 783 -666 799 -672C807 -675 808 -680 804 -686L767 -743L754 -740C756 -711 743 -669 684 -566L650 -563V-739C680 -747 723 -758 765 -770C780 -774 789 -775 809 -775C821 -775 823 -781 815 -789L771 -836L762 -833C738 -800 680 -775 421 -711L424 -694C506 -708 559 -718 612 -731V-559L548 -553C554 -571 559 -592 561 -615L486 -681L479 -673L536 -553Z"/>
</svg>