<svg xmlns="http://www.w3.org/2000/svg" viewBox="0 -1000 1000 1000">
	<path fill="#000000" d="M402 -723L283 -805L275 -792L383 -656C389 -649 393 -650 396 -661C400 -677 402 -698 402 -723ZM885 -657L835 -702L802 -661L638 -646C653 -669 668 -690 691 -720C710 -746 717 -752 726 -755C737 -759 738 -764 731 -773L691 -827L679 -824C681 -792 673 -773 606 -644L522 -637V-735C522 -766 526 -787 535 -798C540 -804 539 -810 533 -814L472 -858L460 -847C481 -816 484 -795 484 -740V-634L225 -610C227 -637 226 -666 224 -694H205C193 -585 179 -545 143 -508L166 -442C169 -437 176 -437 180 -443C199 -473 214 -520 221 -577L805 -629L761 -522L776 -514C832 -606 859 -633 882 -643C890 -647 891 -652 885 -657ZM920 50V36C788 21 725 -4 628 -105C709 -163 738 -176 756 -178C762 -179 763 -182 760 -190L737 -258L720 -256C715 -221 702 -198 613 -122L497 -246C509 -256 514 -261 521 -269L865 -303C877 -304 878 -309 868 -316L818 -350C787 -334 674 -312 529 -297C537 -316 540 -330 541 -347L488 -382L669 -397C679 -398 680 -402 673 -409L649 -434L657 -486C660 -508 666 -517 685 -528C692 -532 692 -538 685 -544L644 -576L622 -547L364 -521L330 -553L318 -546C331 -518 334 -500 335 -470L337 -410C337 -395 335 -388 327 -376L358 -333C368 -319 373 -321 374 -373L454 -380C488 -338 498 -324 512 -297L139 -265L189 -226C230 -236 291 -245 452 -262C400 -207 256 -107 48 6L58 19C176 -31 261 -73 351 -136C354 -127 355 -118 355 -86V-27C355 18 348 33 314 65L354 95C358 97 361 96 363 93C388 62 414 32 520 -67L511 -83L394 5V-79C394 -97 395 -113 402 -122C406 -127 406 -131 401 -135L378 -155C419 -183 450 -206 476 -227L733 64ZM622 -517L611 -428L373 -402L371 -490Z"/>
</svg>