<svg xmlns="http://www.w3.org/2000/svg" viewBox="0 -1000 1000 1000">
	<path fill="#000000" d="M615 -543C614 -557 611 -574 602 -608L366 -743C379 -761 394 -778 401 -782C411 -788 412 -792 406 -800L363 -864L351 -859C352 -756 213 -537 28 -360L40 -348C111 -407 172 -466 225 -531L255 -515C303 -529 345 -537 504 -557C518 -558 519 -564 508 -571L468 -596C436 -581 389 -568 240 -551C282 -604 318 -662 356 -724C450 -658 509 -615 600 -535C611 -526 616 -529 615 -543ZM714 -619C717 -627 715 -633 710 -637L658 -686L646 -678C660 -653 667 -604 667 -543V-362C667 -300 665 -284 654 -260L687 -209C695 -196 699 -196 702 -212C705 -227 706 -245 706 -313V-533C706 -582 708 -601 714 -619ZM852 -769C855 -776 854 -783 849 -787L780 -850L769 -842C792 -792 801 -726 801 -648V-159C801 -27 800 -9 794 9L685 -66L675 -53C727 -2 768 45 808 94C816 103 823 102 826 92C837 50 840 24 840 -122V-649C840 -715 842 -746 852 -769ZM609 -9C608 -22 606 -40 599 -74L476 -137C496 -172 507 -188 513 -195C522 -205 522 -208 518 -214L492 -260L572 -270C585 -272 586 -277 577 -285L556 -304L567 -398C569 -414 575 -432 589 -444C598 -452 597 -457 590 -462L552 -489L527 -455L426 -440L401 -490L386 -486C394 -459 398 -435 399 -399L402 -322C403 -302 399 -281 388 -263L419 -219C425 -210 431 -210 435 -222C437 -228 437 -238 437 -254L467 -257C465 -167 401 -51 288 69L299 78C383 4 432 -58 467 -120L597 -4C605 3 610 0 609 -9ZM358 -436L319 -467L297 -431L202 -419L181 -466L166 -461C171 -440 173 -413 174 -376L176 -312C177 -276 175 -263 166 -244L197 -196C202 -188 207 -188 210 -200C212 -206 213 -223 213 -238L239 -241C237 -158 185 -65 50 64L59 75C139 10 200 -53 237 -108L341 -15C348 -9 351 -10 353 -19C356 -34 356 -44 349 -73L246 -125C270 -165 277 -178 285 -186C291 -192 293 -195 288 -203L264 -245L343 -256C356 -258 356 -263 347 -271L330 -287L341 -376C343 -392 348 -407 357 -417C365 -426 364 -431 358 -436ZM531 -425L521 -296L436 -282L432 -411ZM306 -402L298 -281L212 -266L207 -389Z"/>
</svg>