<svg xmlns="http://www.w3.org/2000/svg" viewBox="0 -1000 1000 1000">
	<path fill="#000000" d="M895 -497L852 -536L819 -497L547 -460C565 -485 573 -494 580 -497C587 -500 589 -504 584 -515L571 -541L815 -567C832 -568 834 -571 823 -584L809 -601L823 -691C828 -721 838 -737 854 -745C864 -750 864 -756 856 -762L814 -793L788 -758L504 -728L479 -792L465 -786C473 -754 478 -718 478 -692L479 -622C480 -583 477 -567 467 -543L496 -491C502 -481 511 -485 512 -494C514 -511 514 -519 516 -535L545 -539C519 -468 471 -396 417 -336V-503C417 -523 423 -543 442 -554C449 -558 450 -563 441 -572L405 -606L380 -572L302 -560C347 -641 377 -681 396 -694C405 -699 405 -703 397 -711L358 -750L331 -716L240 -703C268 -764 277 -775 288 -781C294 -784 295 -790 290 -798L252 -854L239 -850C238 -768 185 -627 72 -482L83 -472C110 -498 138 -531 162 -566C164 -532 165 -489 163 -454C153 -175 133 -98 40 56L53 64C145 -57 167 -106 187 -256L201 -243C212 -247 237 -253 262 -257V-207C262 -111 259 -87 243 -54L274 8C279 19 285 19 289 3C295 -20 298 -54 298 -126V-261L380 -273V-142C380 -62 379 -43 370 -24L316 -68L306 -55C332 -24 352 6 379 48C386 61 392 61 397 47C408 20 417 -29 417 -95V-313C454 -346 501 -393 533 -438L549 -425C562 -429 575 -432 592 -435C594 -413 595 -376 595 -342L525 -333L504 -393L492 -383C494 -365 495 -344 495 -316L496 -257C496 -232 493 -218 486 -205L512 -150C517 -140 521 -139 526 -154C529 -163 531 -182 531 -206L595 -214V-121L439 -92L485 -56C507 -67 552 -79 711 -118L732 -78C738 -67 744 -66 750 -79C753 -86 758 -107 760 -127L684 -199L672 -191L699 -139L629 -126V-218L738 -231C754 -232 755 -236 744 -246L730 -260L742 -311C746 -331 751 -342 757 -346C763 -351 763 -357 757 -363L724 -393L700 -358L629 -347C629 -367 633 -383 639 -391C643 -396 643 -401 639 -407L613 -438L827 -465C796 -154 774 -27 753 27L654 -46L646 -35C687 11 720 51 748 91C755 101 764 100 770 90C804 32 821 -54 866 -420C871 -457 878 -473 894 -480C902 -484 903 -490 895 -497ZM790 -727L776 -597L715 -589L720 -719ZM685 -716L681 -585L618 -577V-708ZM584 -573L515 -564L511 -697L584 -704ZM330 -686L275 -556L198 -544L181 -594C197 -619 213 -646 226 -671ZM380 -419L353 -437C344 -432 329 -426 298 -421V-528L380 -540ZM262 -416L198 -404C199 -437 201 -473 202 -514L262 -523ZM380 -289L349 -306C341 -301 319 -293 298 -287V-392L380 -405ZM262 -283L189 -273C193 -302 196 -340 197 -387L215 -376C225 -379 244 -384 262 -387ZM709 -330L700 -258L629 -248V-320ZM595 -244L531 -236L530 -307L595 -316Z"/>
</svg>