<svg xmlns="http://www.w3.org/2000/svg" viewBox="0 -1000 1000 1000">
	<path fill="#000000" d="M324 -721L231 -826L221 -818L287 -663C292 -651 297 -652 303 -663C312 -680 317 -694 324 -721ZM442 -635L406 -667C380 -647 289 -621 43 -600L92 -565C126 -575 210 -590 437 -619C452 -620 452 -626 442 -635ZM400 -508L362 -534C345 -520 292 -506 121 -485L167 -450C185 -458 225 -468 396 -492C411 -494 411 -501 400 -508ZM410 -387L379 -414C359 -397 274 -381 119 -367L166 -331C191 -341 223 -346 405 -370C419 -371 420 -378 410 -387ZM922 -497L871 -530C844 -514 810 -505 664 -487V-582C664 -602 668 -621 678 -636C682 -642 682 -648 677 -654L642 -697C756 -739 793 -750 813 -752C827 -753 829 -757 820 -768L777 -817L766 -813C755 -784 696 -745 463 -666L469 -645C539 -663 581 -675 620 -688C624 -669 627 -639 627 -612V-483L398 -457L450 -420C468 -428 510 -437 627 -450V-248L542 -236L510 -311L496 -305C503 -277 511 -215 512 -171L515 -73C516 -32 511 -3 500 14L537 82C544 94 549 93 552 77C554 65 555 42 554 14L811 -8C827 -9 828 -13 817 -23L785 -52L804 -207C806 -226 814 -243 830 -254C841 -262 841 -266 831 -274L788 -310L756 -266L664 -252V-455L917 -482C934 -483 934 -489 922 -497ZM413 -245C422 -251 423 -257 413 -265L374 -297L347 -257L204 -233L166 -302L154 -295C164 -259 169 -228 172 -174L177 -72C179 -38 174 -25 162 -12L202 48C209 58 216 57 216 43C216 34 215 9 213 -29L394 -50C409 -51 410 -56 400 -66L379 -87L392 -209C394 -226 399 -235 413 -245ZM353 -224L344 -80L212 -59L205 -203ZM766 -233L746 -39L553 -18L546 -204Z"/>
</svg>