<svg xmlns="http://www.w3.org/2000/svg" viewBox="0 -1000 1000 1000">
	<path fill="#000000" d="M322 -740L227 -838L215 -831L290 -674C293 -667 299 -667 303 -675C313 -694 317 -709 322 -740ZM443 -631L400 -663C352 -640 315 -631 31 -600L78 -562C111 -574 212 -591 438 -619C450 -621 451 -625 443 -631ZM926 -409L880 -444C856 -427 814 -418 669 -403V-558L851 -581C864 -582 863 -588 853 -595L811 -626C801 -618 731 -598 669 -591V-705C669 -762 673 -780 682 -793C684 -796 684 -802 678 -807L624 -858L613 -849C625 -817 633 -758 633 -725V-586L520 -572C530 -597 540 -626 546 -643C552 -662 558 -674 566 -681C571 -685 570 -691 566 -695L513 -752L500 -744C517 -708 499 -572 434 -415L447 -407C464 -435 492 -493 508 -537L633 -552V-398L407 -373L445 -337C493 -351 562 -362 924 -396C934 -397 935 -402 926 -409ZM388 -499L356 -527C334 -514 307 -507 115 -486L160 -452C178 -460 245 -471 384 -486C394 -487 395 -493 388 -499ZM398 -391L368 -414C348 -403 291 -390 107 -372L151 -337C165 -345 252 -360 389 -373C406 -374 409 -382 398 -391ZM395 -265L355 -299L324 -262L181 -239L146 -307L132 -299C141 -275 150 -220 151 -193L155 -78C156 -36 152 -25 140 -13L174 48C178 56 185 57 188 46C192 31 193 10 192 -36L372 -59C383 -60 384 -65 378 -72L358 -95L370 -210C372 -230 380 -243 392 -251C401 -256 401 -260 395 -265ZM823 -268C830 -272 830 -277 823 -283L778 -318L749 -275L540 -248L512 -322L496 -315C503 -291 511 -238 512 -200L515 -52C516 -13 512 0 500 14L536 90C540 98 545 100 549 89C554 74 555 61 552 -1L802 -24C811 -25 813 -30 805 -38L779 -66L797 -215C800 -244 807 -259 823 -268ZM331 -231L323 -87L191 -68L188 -209ZM759 -242L746 -54L551 -32L547 -215Z"/>
</svg>