<svg xmlns="http://www.w3.org/2000/svg" viewBox="0 -1000 1000 1000">
	<path fill="#000000" d="M763 -230L745 -53L574 -34L566 -211ZM339 -245L327 -90L205 -74L197 -224ZM400 -282L358 -317L329 -277L198 -259L160 -321L148 -316C155 -290 161 -242 162 -200L166 -101C168 -76 160 -42 150 -29L190 50C195 60 200 60 203 47C207 32 208 4 206 -39L385 -60C398 -61 400 -66 389 -76L363 -98L376 -220C378 -237 386 -254 399 -263C409 -269 409 -274 400 -282ZM401 -389L446 -355C467 -361 506 -368 562 -374C514 -268 458 -183 391 -96L404 -83C444 -124 487 -178 527 -237C528 -221 529 -202 530 -173L535 -59C536 -29 530 -4 519 13L556 89C563 102 568 101 572 85C577 64 577 37 575 -1L815 -20C829 -21 831 -26 820 -34L784 -63L803 -204C806 -225 814 -243 825 -252C831 -257 831 -263 825 -269L781 -304L755 -264L558 -244L543 -263C566 -300 587 -338 605 -377L927 -407C943 -408 944 -412 931 -422L890 -455C855 -438 759 -424 620 -411C651 -480 656 -489 664 -495C672 -501 673 -506 669 -516L635 -587L622 -583C622 -547 605 -474 578 -408L401 -394L359 -429C333 -415 294 -404 126 -388L177 -354C218 -367 262 -373 390 -386C393 -386 399 -388 401 -389ZM399 -522L357 -548C321 -530 276 -520 125 -503L173 -469C207 -482 250 -490 396 -508C410 -509 411 -515 399 -522ZM449 -635C450 -638 448 -641 442 -645L399 -672C360 -654 282 -635 44 -614L95 -577C144 -591 214 -603 438 -632L484 -599C494 -604 520 -612 547 -616C548 -592 545 -574 538 -560L568 -503C573 -493 581 -492 583 -508C585 -522 585 -554 582 -620L708 -632C703 -600 695 -558 688 -523L709 -518C719 -558 730 -602 739 -634L894 -648C911 -650 911 -656 899 -665L857 -697C846 -689 807 -678 747 -668C769 -764 776 -781 784 -787C791 -794 791 -798 785 -806L735 -867L723 -859C731 -813 724 -731 712 -664L581 -649L578 -720C577 -746 582 -768 587 -776C591 -783 590 -788 585 -793L536 -851L523 -844C533 -819 541 -771 542 -738L546 -646ZM328 -747L241 -853L228 -844L287 -687C292 -676 297 -676 304 -686C313 -700 320 -718 328 -747Z"/>
</svg>