<svg xmlns="http://www.w3.org/2000/svg" viewBox="0 -1000 1000 1000">
	<path fill="#000000" d="M313 -752L214 -835L201 -826L288 -683C293 -674 300 -675 303 -687C308 -707 311 -725 313 -752ZM428 -661L386 -688C359 -671 268 -654 42 -631L88 -594C125 -608 207 -621 421 -646C437 -647 439 -654 428 -661ZM375 -539L333 -562C313 -548 243 -531 129 -519L167 -489C191 -496 231 -503 371 -523C386 -525 387 -532 375 -539ZM378 -427L340 -449C321 -439 262 -424 133 -411L173 -378C205 -387 268 -398 374 -411C388 -412 391 -419 378 -427ZM956 91C950 0 948 -86 950 -155H934L914 10C825 -134 793 -280 822 -665C825 -704 832 -723 849 -737C856 -743 857 -749 849 -755L804 -792L770 -751L489 -722L456 -806L440 -801C451 -746 455 -570 439 -352C427 -193 396 -55 271 96L285 110C420 -57 462 -158 476 -356C484 -449 489 -588 490 -686L781 -716C775 -584 773 -445 777 -342C786 -142 847 32 940 100C950 107 957 103 956 91ZM787 -101L693 -208L680 -200L713 -129L638 -114V-260L736 -270C751 -272 751 -278 741 -287L714 -310L727 -411C729 -424 737 -437 747 -444C757 -451 756 -458 749 -463L710 -491L684 -457L638 -450V-578C693 -596 711 -601 741 -608C751 -610 751 -619 746 -623L704 -654L695 -652C685 -637 628 -604 495 -556L498 -543C533 -551 571 -559 602 -567V-445L549 -438L521 -502L508 -498C515 -469 519 -430 519 -399V-309C519 -285 515 -275 508 -266L536 -199C541 -188 549 -186 552 -201C553 -207 554 -219 554 -252L602 -257V-108L452 -77L499 -39C524 -53 580 -70 724 -107L754 -45C760 -33 766 -31 772 -47C777 -59 782 -77 787 -101ZM377 -295C387 -301 385 -309 376 -315L334 -345L305 -307L185 -287L157 -358L142 -353C149 -330 155 -280 157 -232L162 -130C163 -106 156 -76 147 -65L185 -1C190 8 197 9 200 -5C203 -21 203 -41 201 -86L352 -106C368 -108 370 -114 358 -123L338 -140L351 -246C354 -271 363 -286 377 -295ZM692 -428L680 -294L638 -290V-420ZM602 -286L554 -281V-408L602 -415ZM313 -272L302 -137L199 -119L192 -256Z"/>
</svg>