<svg xmlns="http://www.w3.org/2000/svg" viewBox="0 -1000 1000 1000">
	<path fill="#000000" d="M541 -261C545 -302 546 -326 546 -370L625 -379V-270ZM334 -251L318 -113L219 -95L213 -233ZM393 -265C403 -272 402 -277 392 -285L355 -315L328 -282L210 -266L180 -332L164 -326C172 -299 176 -265 178 -221L182 -106C183 -73 177 -54 166 -41L206 29C213 41 217 41 220 27C223 18 223 -20 220 -63L369 -83C382 -85 382 -89 372 -99L353 -119L371 -224C376 -245 382 -257 393 -265ZM745 -390C740 -354 732 -314 723 -280L661 -273V-382ZM625 -412L544 -402C544 -443 545 -450 551 -459C555 -466 553 -470 546 -476L517 -499C544 -503 582 -507 625 -511ZM754 -524C760 -498 759 -476 749 -425L661 -415V-515ZM389 -384L436 -349C455 -358 480 -363 511 -366C513 -327 509 -305 501 -295L535 -260L434 -249L470 -214C499 -222 539 -228 625 -236V-151L411 -134L452 -96C479 -105 507 -109 625 -119C625 -18 620 0 602 27L636 97C644 113 649 113 653 99C658 83 661 53 661 -121L893 -139C911 -140 912 -147 897 -158L859 -185C843 -175 796 -165 661 -154V-239L855 -258C873 -260 872 -266 859 -275L822 -300C810 -292 789 -287 748 -282C761 -319 770 -351 779 -393L927 -409C947 -412 946 -418 931 -428L896 -451C872 -441 841 -435 787 -428C793 -455 802 -479 808 -486C814 -493 813 -498 807 -503L781 -527L872 -536C889 -538 890 -542 876 -553L842 -581C814 -563 762 -552 411 -524L457 -487C470 -490 483 -493 495 -495C504 -483 510 -446 510 -398L394 -387C397 -389 395 -394 388 -399L357 -423C315 -405 265 -394 136 -379L179 -347C208 -358 260 -369 389 -384ZM388 -508L355 -531C327 -516 307 -511 138 -489L182 -455C211 -465 262 -475 386 -491C399 -492 402 -497 388 -508ZM451 -622L417 -649C372 -628 301 -617 50 -590L99 -551C156 -567 238 -580 448 -605C461 -606 462 -613 451 -622ZM890 -697L856 -725C842 -717 801 -706 748 -700C761 -748 769 -769 777 -775C784 -780 784 -787 778 -794L732 -851L720 -842C726 -817 723 -769 708 -697L600 -686L598 -716C597 -734 602 -755 609 -766C612 -771 610 -776 605 -781L554 -824L543 -817C555 -800 560 -763 563 -716L565 -683L432 -671L477 -634C488 -639 516 -645 566 -650C566 -620 564 -608 557 -594L586 -561C592 -553 600 -554 601 -566C603 -587 603 -619 602 -653L700 -663C694 -635 687 -610 672 -570L692 -562C712 -597 727 -633 738 -666L886 -680C901 -681 902 -687 890 -697ZM328 -732L246 -824L235 -816L290 -676C296 -662 302 -662 308 -673C317 -689 322 -705 328 -732Z"/>
</svg>