<svg xmlns="http://www.w3.org/2000/svg" viewBox="0 -1000 1000 1000">
	<path fill="#000000" d="M564 -723L494 -819L482 -810L527 -671C532 -654 537 -653 544 -667C553 -684 559 -699 564 -723ZM319 -710L233 -809L221 -800L284 -653C290 -638 297 -638 303 -650C310 -665 315 -682 319 -710ZM847 -632L754 -705L746 -694L823 -566C832 -551 837 -553 841 -566C845 -581 847 -604 847 -632ZM387 -604L354 -626C320 -612 239 -600 67 -585L114 -551C140 -560 200 -568 384 -589C398 -590 399 -596 387 -604ZM362 -496L331 -518C303 -502 258 -493 127 -481L170 -449C201 -459 235 -466 359 -480C371 -481 376 -486 362 -496ZM917 75C909 17 904 -49 901 -164L885 -166L870 9C818 -25 779 -88 747 -195C766 -222 784 -250 801 -279C829 -328 836 -338 846 -346C854 -352 854 -357 850 -367L822 -429L808 -424C809 -380 779 -308 738 -233C718 -307 707 -384 702 -455L895 -475C911 -476 911 -481 897 -492L860 -519C836 -506 765 -492 701 -484C694 -683 697 -755 707 -780C711 -790 709 -796 703 -803L649 -859L640 -851C652 -818 657 -774 662 -614C664 -569 665 -519 667 -481L568 -470C590 -520 601 -539 610 -548C617 -554 618 -560 613 -569L593 -604L645 -612C658 -614 659 -620 648 -628L621 -647C590 -632 550 -624 387 -609L428 -578C430 -579 432 -580 435 -581L460 -460L348 -448L393 -414C430 -424 507 -435 669 -451C678 -341 687 -283 712 -191C685 -148 654 -103 621 -63L633 -53C662 -82 693 -118 721 -158C758 -39 821 41 905 84C915 90 919 88 917 75ZM369 -377L337 -399C316 -386 281 -377 134 -360L178 -328C198 -335 234 -342 365 -363C380 -366 380 -370 369 -377ZM626 -326C633 -335 633 -343 626 -348L589 -375L563 -338L460 -323L434 -382L419 -375C426 -343 430 -294 430 -263V-115C430 -73 425 -51 413 -34L440 22C447 36 454 36 458 23C461 11 463 -9 464 -27L554 -40L574 8C579 19 586 17 590 9C597 -6 601 -38 604 -117L610 -270C611 -303 614 -310 626 -326ZM370 -252C378 -258 377 -262 368 -270L333 -299L308 -266L202 -245L177 -307L162 -300C169 -271 174 -229 174 -188V-90C174 -63 168 -35 159 -23L188 42C195 58 199 56 202 42C204 31 206 3 206 -30L355 -52C368 -53 367 -60 358 -68L337 -84L351 -210C353 -228 360 -244 370 -252ZM572 -602C571 -565 561 -519 544 -468L480 -461C486 -475 490 -489 492 -506L450 -585ZM577 -310L570 -121C569 -92 565 -72 558 -59L535 -74C522 -66 495 -59 464 -55V-169L557 -183C569 -184 570 -190 559 -198L535 -217C525 -209 509 -201 464 -195V-293ZM316 -236L305 -77L206 -60V-217Z"/>
</svg>