<svg xmlns="http://www.w3.org/2000/svg" viewBox="0 -1000 1000 1000">
	<path fill="#000000" d="M303 -752L226 -836L213 -828L267 -687C272 -677 278 -676 284 -687C296 -708 301 -725 303 -752ZM391 -637L351 -663C307 -644 198 -621 68 -606L120 -568C155 -582 227 -599 388 -624C399 -625 401 -630 391 -637ZM869 -723L834 -748C814 -737 774 -728 710 -721C722 -747 738 -774 749 -787C755 -794 755 -798 750 -803L707 -850L693 -844C694 -804 688 -766 670 -718L555 -706V-748C555 -765 559 -778 564 -786C567 -791 565 -797 561 -800L511 -837L500 -831C512 -802 515 -778 516 -750L518 -703L373 -690L430 -653C453 -663 476 -667 517 -672C516 -664 515 -658 511 -651L537 -619C543 -612 548 -612 551 -621C553 -629 554 -648 554 -675L658 -686L638 -638L608 -657L601 -648L660 -565C618 -557 564 -548 501 -539C513 -560 521 -570 529 -574C536 -578 538 -585 532 -592L496 -633L485 -628C485 -583 468 -536 361 -405L335 -421C299 -403 244 -391 131 -379L181 -344C202 -355 253 -367 369 -382C379 -384 381 -388 375 -392C404 -416 432 -445 452 -472V-353C452 -322 445 -296 436 -286L465 -226C469 -217 477 -217 480 -226C483 -237 486 -249 487 -266L854 -304C869 -306 870 -311 859 -319L824 -345C801 -335 724 -320 655 -312V-369L800 -386C814 -387 813 -393 805 -399L773 -422C754 -416 703 -404 655 -397V-455L794 -473C805 -474 805 -480 797 -486L764 -508C744 -500 699 -490 655 -483V-535L823 -555C834 -556 834 -564 827 -568L790 -592C775 -587 741 -578 685 -569C687 -579 687 -590 686 -604L662 -622L695 -689L864 -706C881 -708 881 -714 869 -723ZM357 -517L325 -540C305 -529 239 -513 132 -499L185 -464C223 -479 264 -490 354 -500C366 -501 367 -509 357 -517ZM370 -260C380 -265 379 -270 369 -277L330 -303L299 -275L189 -256L157 -312L144 -306C151 -280 157 -240 158 -211L163 -94C164 -77 159 -46 151 -32L184 24C190 34 197 33 198 24C200 11 201 -29 200 -64L355 -78C368 -79 369 -85 361 -93L336 -120L349 -222C351 -241 358 -254 370 -260ZM946 41V23C818 23 799 16 648 -81C685 -114 713 -143 749 -188C760 -201 777 -211 796 -216C804 -218 805 -224 800 -228L752 -272L716 -241L429 -210L484 -174C534 -188 565 -194 708 -209C686 -173 650 -129 618 -100C576 -129 561 -149 557 -160L496 -159L495 -150C509 -144 540 -124 594 -83C513 -22 443 19 325 67L332 81C444 46 537 4 623 -62L792 61ZM615 -479L487 -462V-516C490 -520 491 -522 493 -526L528 -508C549 -516 584 -525 615 -530ZM615 -393L487 -377V-448L531 -428C544 -434 581 -443 615 -449ZM615 -309L487 -294V-360L522 -343C541 -351 578 -360 615 -365ZM310 -242L302 -106L199 -91L195 -224Z"/>
</svg>