<svg xmlns="http://www.w3.org/2000/svg" viewBox="0 -1000 1000 1000">
	<path fill="#000000" d="M540 -769L473 -839L462 -833L504 -724C509 -712 513 -711 523 -722C534 -734 537 -747 540 -769ZM631 -697L595 -722C540 -704 455 -691 350 -687L401 -650C432 -664 536 -681 625 -682C645 -682 646 -687 631 -697ZM846 -495L775 -567L763 -558C770 -546 777 -532 786 -512L678 -494L787 -625C794 -634 808 -643 817 -646C826 -649 827 -655 823 -665L800 -727L784 -724C784 -702 773 -675 750 -639L662 -629L724 -723C729 -731 739 -741 751 -748C760 -754 761 -760 757 -768L729 -827L713 -823C713 -788 699 -747 654 -669C640 -643 626 -632 605 -622L632 -589C639 -580 646 -581 655 -586C666 -593 691 -603 731 -612C658 -504 642 -493 609 -483L637 -449C644 -441 648 -440 658 -446C685 -462 724 -476 796 -491C803 -475 810 -461 814 -449C818 -439 824 -437 830 -448C840 -465 844 -476 846 -495ZM381 -473L324 -546L311 -538C316 -526 323 -505 330 -485L228 -471L335 -609C342 -619 350 -626 357 -630C363 -633 365 -638 360 -647L335 -697L320 -694C319 -677 314 -658 290 -617L214 -614L285 -721C294 -734 302 -742 309 -745C315 -748 317 -752 314 -760L282 -829L263 -825C263 -778 253 -747 198 -639C189 -622 171 -608 144 -601L173 -569C181 -561 185 -560 194 -568C205 -577 217 -582 275 -590C216 -491 196 -479 149 -460L178 -424C186 -415 190 -414 200 -420C219 -432 253 -442 337 -464C342 -449 345 -438 346 -433C350 -419 356 -419 363 -430C373 -445 379 -460 381 -473ZM581 -618L554 -635C536 -629 452 -613 386 -607L429 -579C447 -586 515 -598 575 -603C590 -604 591 -611 581 -618ZM595 -545L570 -565C546 -555 472 -542 393 -536L437 -504C472 -517 519 -525 591 -531C605 -532 607 -536 595 -545ZM595 -458C603 -464 604 -469 595 -477L560 -505L536 -475L442 -464L421 -496L408 -490C412 -476 415 -455 415 -435V-394C415 -378 409 -341 404 -333L427 -294C432 -284 438 -283 443 -295C445 -300 448 -313 449 -325L584 -337C601 -339 601 -343 592 -354L569 -380L575 -419C578 -439 583 -448 595 -458ZM862 -363L786 -451L772 -443L824 -310C829 -295 834 -294 843 -308C851 -320 857 -336 862 -363ZM759 -356L716 -432L700 -427L717 -316C719 -305 724 -303 733 -311C747 -324 757 -343 759 -356ZM371 -347L321 -423L307 -417L336 -310C339 -297 344 -295 352 -308C360 -320 367 -334 371 -347ZM654 -431L637 -432C632 -384 610 -340 592 -328L602 -283C605 -270 610 -269 619 -281C649 -321 659 -376 654 -431ZM288 -320L247 -404L233 -398L245 -280C246 -266 251 -264 261 -274C275 -288 285 -304 288 -320ZM180 -394H161C161 -346 144 -296 122 -283L133 -238C136 -227 142 -225 149 -235C180 -277 189 -320 180 -394ZM913 31V12C768 20 715 6 551 -97C599 -141 639 -184 668 -231L780 -243C798 -245 798 -252 785 -259L736 -285C712 -269 638 -255 406 -232C416 -242 422 -246 427 -249C432 -253 434 -260 431 -266L403 -312L388 -310C375 -238 290 -136 163 -51L171 -36C232 -67 302 -119 361 -182L489 -94C402 -27 312 12 112 61L115 77C305 44 435 -9 520 -73L710 56ZM542 -445L535 -370L450 -354V-434ZM609 -225C586 -185 559 -154 517 -118L387 -202Z"/>
</svg>