<svg xmlns="http://www.w3.org/2000/svg" viewBox="0 -1000 1000 1000">
	<path fill="#000000" d="M500 -772L458 -814L447 -809C441 -786 322 -741 82 -691V-673C173 -686 348 -721 426 -741C450 -748 483 -754 493 -755C508 -757 509 -763 500 -772ZM846 -644L719 -774L705 -764L825 -570C832 -558 841 -560 844 -571C849 -592 850 -614 846 -644ZM461 -689L423 -736L409 -732C414 -699 401 -658 354 -568L371 -556C432 -648 445 -664 456 -671C466 -677 467 -682 461 -689ZM628 -728L584 -786L571 -782C578 -735 551 -652 436 -494L450 -483C496 -532 550 -604 594 -676C606 -696 613 -705 625 -713C632 -718 633 -722 628 -728ZM331 -629L269 -695L257 -689L296 -574C299 -561 306 -560 313 -572C320 -586 326 -605 331 -629ZM219 -596L160 -673L147 -667L188 -541C192 -529 197 -527 205 -541C211 -553 215 -568 219 -596ZM957 -248L955 -272C874 -271 842 -289 781 -378L675 -533C690 -563 692 -566 698 -568C704 -571 706 -577 701 -584L655 -643L643 -636C656 -581 594 -421 458 -250L427 -272C408 -260 378 -248 304 -238C308 -261 312 -272 320 -284C327 -293 326 -300 320 -304L300 -321C327 -327 353 -333 397 -342L431 -292C439 -280 448 -279 449 -294C451 -309 451 -338 450 -354L357 -428L345 -417L379 -366L227 -337L350 -452C376 -476 390 -486 406 -491C413 -494 415 -498 412 -507L391 -563L378 -558C373 -540 356 -514 324 -477L211 -456L252 -504C271 -528 278 -534 286 -537C295 -541 297 -546 292 -554L267 -600L255 -597C251 -564 229 -525 189 -477C172 -456 148 -444 125 -441L155 -409C161 -403 165 -403 174 -407C197 -417 231 -428 294 -444C275 -423 249 -397 227 -376C183 -335 165 -327 116 -317L149 -283C155 -277 159 -277 172 -282C190 -291 214 -300 265 -313C266 -289 264 -260 260 -233L63 -206L102 -169C130 -179 184 -191 255 -202C234 -105 189 -28 56 65L69 82C174 17 245 -51 281 -148L417 10C426 20 436 15 437 2C438 -18 435 -51 431 -71L288 -166C292 -178 295 -193 298 -207L447 -228L459 -220C483 -242 504 -265 522 -288C528 -266 532 -241 533 -196L536 -66C537 -27 533 -10 517 12L550 82C554 90 559 92 565 82C572 69 576 48 576 18L787 -1C797 -2 799 -8 791 -15L761 -46L777 -158C786 -218 792 -233 802 -244C809 -252 809 -257 801 -263L760 -293L742 -267L569 -246L533 -300C582 -361 621 -424 660 -501L825 -237ZM744 -230L723 -34L575 -19L569 -212Z"/>
</svg>