<svg xmlns="http://www.w3.org/2000/svg" viewBox="0 -1000 1000 1000">
	<path fill="#000000" d="M703 -741L611 -819L600 -808L667 -682C673 -670 679 -669 685 -680C695 -699 699 -714 703 -741ZM451 -673L414 -699C393 -687 375 -682 75 -645L117 -611C138 -619 168 -625 448 -657C462 -659 463 -664 451 -673ZM902 -669L858 -710L829 -677L505 -636C504 -650 502 -666 500 -681H482C482 -606 471 -569 438 -530L458 -485C462 -476 467 -475 473 -483C496 -519 506 -555 506 -605L837 -643L800 -544L815 -539C864 -617 881 -635 901 -648C910 -654 911 -661 902 -669ZM408 -536L368 -572L345 -540L199 -524L173 -573L159 -567C166 -541 170 -515 171 -488L175 -392C176 -360 175 -344 165 -329L195 -286C201 -278 206 -279 209 -288C212 -299 213 -310 212 -327L385 -346C397 -347 398 -354 389 -362L370 -379L383 -475C386 -497 391 -509 406 -519C415 -524 415 -530 408 -536ZM657 -419L620 -456L602 -431L537 -421C562 -465 574 -484 582 -489C593 -496 594 -500 587 -511L552 -565L538 -560C538 -501 495 -393 403 -262L416 -253C437 -277 453 -295 467 -313L515 -230C520 -222 526 -221 531 -230C536 -243 539 -266 539 -285L479 -328C492 -346 503 -364 516 -384L600 -397C567 -236 489 -97 343 44L356 56C503 -69 594 -211 629 -342C639 -378 644 -391 655 -400C664 -408 663 -414 657 -419ZM954 0C936 -52 923 -106 916 -174H898L897 -21C858 -12 808 -10 770 -14C718 -19 709 -40 709 -102V-439L809 -458C805 -342 794 -276 779 -232L721 -277L713 -264C743 -230 762 -204 785 -170C790 -163 798 -161 803 -170C817 -197 828 -243 843 -371C850 -437 854 -453 866 -462C874 -468 874 -475 866 -482L830 -516L807 -487L705 -470L673 -535L656 -530C664 -492 669 -448 669 -397V-94C669 -9 695 17 757 23C803 28 870 27 944 19C955 18 958 12 954 0ZM244 -198L174 -278L163 -271L211 -139C215 -129 222 -128 227 -136C236 -151 241 -170 244 -198ZM454 -148L449 -166L307 -134C341 -204 360 -237 371 -246C381 -254 382 -260 377 -267L342 -316L330 -311C332 -275 323 -229 278 -128L53 -76L110 -37C133 -51 162 -65 454 -148ZM351 -509L335 -377L212 -359L207 -493Z"/>
</svg>