<svg xmlns="http://www.w3.org/2000/svg" viewBox="0 -1000 1000 1000">
	<path fill="#000000" d="M954 38C936 -19 926 -59 911 -143L892 -141L895 14C882 19 837 23 786 21C719 19 695 -5 695 -59V-273C695 -294 701 -307 710 -317C717 -325 716 -329 708 -337L682 -364L814 -377C824 -378 825 -383 817 -391L788 -420L821 -590C826 -615 836 -633 856 -642C863 -645 862 -652 856 -657L810 -696L778 -663L596 -637C639 -747 654 -776 673 -787C682 -792 681 -797 677 -801L613 -865L602 -858C611 -816 606 -767 564 -633L506 -625L456 -703L446 -699C458 -660 468 -595 469 -556L475 -410C476 -377 472 -361 462 -340L497 -286C503 -277 508 -277 509 -288C512 -319 513 -325 513 -347L554 -353C559 -178 515 -45 358 84L366 99C498 9 554 -73 585 -209C598 -267 604 -290 609 -303C614 -315 614 -320 609 -326L585 -355L651 -362C654 -346 656 -327 656 -315V-57C656 35 688 55 785 61C875 66 909 65 947 58C955 56 958 51 954 38ZM419 -611L385 -676L370 -671C365 -638 351 -603 327 -566C329 -582 329 -601 327 -619L261 -657C283 -679 297 -694 327 -727C339 -741 349 -748 364 -755C372 -758 373 -762 369 -771L338 -834L324 -831C299 -757 241 -662 60 -519L71 -504C100 -524 117 -536 161 -568L233 -454C193 -416 138 -369 50 -303L59 -287C154 -349 224 -399 279 -452C288 -443 295 -434 303 -422C261 -338 195 -261 88 -175L96 -161C184 -215 250 -273 328 -383C339 -363 346 -347 354 -322C282 -206 216 -126 63 -23L73 -10C191 -74 289 -158 366 -262C384 -133 360 -41 313 26L211 -39L202 -27C253 18 283 50 309 90C314 98 318 98 324 91C383 19 422 -108 412 -223C402 -330 370 -404 297 -470C327 -499 350 -524 379 -564C398 -590 405 -594 415 -598C421 -600 422 -606 419 -611ZM311 -544C291 -513 278 -499 252 -474C256 -488 258 -503 260 -519L181 -583C210 -608 224 -621 243 -640ZM784 -625L748 -411L513 -383L510 -473L720 -500C735 -502 735 -505 724 -515L693 -546C644 -527 624 -522 509 -503L507 -587Z"/>
</svg>