<svg xmlns="http://www.w3.org/2000/svg" viewBox="0 -1000 1000 1000">
	<path fill="#000000" d="M920 -624L874 -655C841 -640 786 -633 512 -609V-739L747 -756C765 -757 765 -763 750 -775L707 -806C657 -786 579 -774 211 -749L261 -708C289 -718 355 -727 474 -737V-606L60 -570L115 -530C160 -546 298 -563 915 -606C934 -607 935 -614 920 -624ZM737 -502C743 -508 742 -513 737 -518L693 -557L662 -517L316 -481L292 -543L276 -538C281 -513 285 -478 286 -442L289 -248C290 -189 286 -172 273 -156L309 -93C315 -84 319 -85 322 -94C327 -108 327 -121 326 -152L413 -160C392 -111 304 -16 123 87L129 101C225 61 299 19 397 -64C414 -78 430 -88 439 -91C448 -94 450 -100 448 -111L437 -162L638 -182L666 -128C672 -117 677 -119 680 -127C690 -153 694 -171 698 -234L712 -446C713 -467 719 -484 737 -502ZM795 71C796 53 793 30 787 -2L551 -147L542 -133C648 -52 712 9 777 78C790 91 794 89 795 71ZM672 -484L662 -299C658 -229 655 -215 646 -202L619 -223C588 -208 568 -205 326 -183L325 -258L619 -287C634 -288 635 -292 623 -301L588 -327C542 -312 508 -307 323 -287L322 -347L618 -378C636 -379 637 -384 623 -394L589 -419C556 -405 500 -396 322 -380L321 -449Z"/>
</svg>