<svg xmlns="http://www.w3.org/2000/svg" viewBox="0 -1000 1000 1000">
	<path fill="#000000" d="M803 -592L766 -544L553 -513C557 -565 560 -621 561 -674C617 -689 703 -717 794 -750C824 -761 841 -765 864 -769C875 -771 876 -777 867 -784L812 -827L804 -823C801 -801 738 -761 557 -703L523 -791L507 -786C523 -694 522 -544 501 -367C482 -205 419 -63 314 57L329 68C420 -28 503 -155 533 -330C537 -355 541 -383 545 -413C555 -400 564 -387 590 -343L661 -220C594 -104 503 -7 370 86L378 102C483 43 611 -70 683 -184L807 30L968 17V-1C837 -15 819 -28 702 -216C746 -293 771 -360 796 -437C816 -502 824 -515 842 -526C852 -532 853 -537 845 -546ZM174 -349C175 -312 174 -288 160 -267L194 -201C200 -189 205 -189 209 -202C212 -212 213 -231 212 -254L352 -273L377 -227C381 -219 387 -219 391 -227C399 -245 403 -271 405 -336L416 -646C418 -694 423 -706 438 -721C445 -728 445 -733 439 -738L397 -775L373 -737L199 -711L168 -792L153 -786C157 -767 164 -700 165 -670ZM381 -704L366 -346C365 -324 362 -302 356 -290L331 -313C317 -303 278 -292 212 -283L208 -404L333 -426C345 -429 345 -433 337 -440L310 -466C295 -455 256 -442 207 -434L203 -539L336 -565C347 -567 347 -572 339 -579L310 -602C296 -593 263 -583 202 -571L199 -678ZM546 -430C549 -456 551 -484 553 -513L597 -476C620 -485 641 -489 768 -511C749 -420 725 -339 680 -252C614 -359 593 -403 592 -427ZM251 -239L238 -235C234 -173 169 -73 44 49L51 61C118 16 188 -60 243 -134C250 -145 263 -158 276 -164C285 -169 286 -174 282 -182ZM313 -224L304 -213C339 -167 365 -120 384 -79C388 -71 393 -68 399 -77C406 -90 409 -110 409 -138Z"/>
</svg>