<svg xmlns="http://www.w3.org/2000/svg" viewBox="0 -1000 1000 1000">
	<path fill="#000000" d="M980 -272V-290C862 -299 841 -306 677 -469C722 -522 754 -568 781 -619C800 -653 814 -669 834 -683C841 -688 841 -692 835 -698L798 -737L757 -700L587 -675C596 -694 606 -715 612 -728C633 -774 639 -783 647 -788C654 -792 656 -799 651 -807L614 -872L597 -866C609 -815 540 -624 423 -467L435 -457C468 -493 504 -539 531 -580C558 -558 600 -514 634 -474C555 -378 469 -306 387 -245L395 -229C465 -270 580 -356 660 -446L830 -254ZM423 -750L380 -789L351 -752L180 -725L142 -805L130 -800C138 -773 144 -724 145 -680L152 -378C154 -311 149 -264 138 -238L171 -188C178 -177 182 -177 186 -187C189 -195 191 -215 191 -237L330 -254L354 -213C360 -204 366 -205 369 -214C376 -231 379 -262 385 -377L400 -686C401 -711 403 -720 421 -733C430 -738 430 -745 423 -750ZM405 -93L297 -187L287 -177L383 -28C389 -19 395 -18 398 -28C402 -42 404 -60 405 -93ZM809 -254L765 -294L738 -260L542 -234L512 -288L501 -282C507 -261 512 -225 512 -202L516 -32C517 5 512 22 502 39L539 95C546 106 550 105 553 91C555 81 556 59 555 17L795 -10C806 -11 808 -15 797 -24L761 -52L787 -205C789 -219 797 -233 806 -238C815 -243 815 -249 809 -254ZM256 -148L226 -208L213 -204C216 -148 132 -9 44 82L53 92C136 15 169 -23 218 -93C230 -111 242 -123 252 -130C258 -135 259 -141 256 -148ZM755 -665C732 -613 699 -554 651 -495C591 -557 581 -574 581 -591L542 -597C547 -604 559 -624 566 -637ZM361 -716L350 -423C346 -332 340 -298 328 -272L304 -292C290 -285 271 -281 191 -269L188 -390L326 -408C338 -410 338 -414 329 -422L302 -446C291 -440 244 -430 187 -421L185 -538L326 -557C338 -558 340 -562 329 -572L301 -595C285 -587 244 -577 185 -570L182 -690ZM748 -227L724 -39L554 -20L549 -201Z"/>
</svg>