<svg xmlns="http://www.w3.org/2000/svg" viewBox="0 -1000 1000 1000">
	<path fill="#000000" d="M893 -471L736 -627L722 -616C748 -581 782 -531 806 -491L510 -447C569 -534 618 -610 672 -703C690 -733 698 -742 711 -751C722 -759 723 -765 717 -775L670 -855L657 -850C666 -788 622 -682 508 -502C482 -460 469 -449 430 -439L467 -396C473 -389 479 -388 490 -393C524 -408 605 -427 823 -464C839 -439 861 -399 866 -385C871 -370 878 -370 883 -384C891 -407 894 -430 893 -471ZM448 -705C455 -712 454 -718 448 -723L404 -762L378 -722L195 -700L162 -784L146 -778C150 -749 153 -706 154 -656L163 -309C163 -269 159 -257 149 -235L182 -180C191 -166 196 -167 201 -182C204 -191 205 -208 204 -231L346 -252L374 -206C382 -192 389 -195 393 -206C400 -228 403 -256 406 -322L422 -639C423 -672 429 -686 448 -705ZM839 -293C849 -300 849 -306 839 -315L795 -357L765 -313L555 -290L525 -359L508 -352C514 -319 516 -283 518 -199L521 -68C522 -19 516 1 502 22L538 86C547 101 552 101 557 83C561 71 563 42 561 -4L821 -28C834 -29 836 -34 824 -45L792 -73L813 -233C817 -266 823 -281 839 -293ZM448 -82L334 -188L321 -178C362 -123 393 -67 423 -4C430 12 435 12 440 -3C445 -17 448 -45 448 -82ZM283 -145L254 -206L241 -201C241 -140 148 -12 49 79L60 92C121 51 188 -19 243 -91C252 -104 263 -116 275 -123C286 -130 288 -135 283 -145ZM382 -687L367 -357C364 -298 362 -279 354 -268L331 -291C308 -280 276 -273 203 -263L201 -372L341 -393C356 -395 356 -402 346 -411L320 -435C300 -425 266 -416 200 -403L197 -514L343 -536C355 -538 355 -543 347 -552L323 -577C297 -566 261 -556 197 -544L193 -664ZM775 -278L755 -61L560 -36L553 -254Z"/>
</svg>