<svg xmlns="http://www.w3.org/2000/svg" viewBox="0 -1000 1000 1000">
	<path fill="#000000" d="M681 -764L581 -862L568 -854L645 -698C650 -688 656 -688 662 -698C677 -724 681 -743 681 -764ZM918 -681L878 -710C817 -688 632 -653 411 -633C412 -679 415 -691 430 -706C438 -714 437 -719 429 -725L383 -756L358 -720L204 -699L165 -771L150 -765C158 -732 168 -656 169 -617L177 -313C177 -278 173 -244 163 -224L198 -158C204 -148 208 -148 212 -159C217 -173 219 -191 219 -221L340 -238L378 -178C385 -168 390 -167 394 -180C398 -193 400 -223 403 -337L411 -620L451 -592C473 -599 549 -615 607 -623C604 -599 595 -577 548 -490C524 -445 498 -421 463 -410L494 -367C499 -360 503 -360 511 -364C544 -380 608 -401 682 -416C618 -312 543 -232 440 -153L451 -140C576 -212 674 -315 757 -459C777 -493 786 -505 797 -518C801 -523 802 -530 799 -535L769 -599L748 -596C746 -546 730 -498 697 -442L538 -421L606 -519C632 -558 643 -571 655 -580C662 -586 663 -592 659 -598L642 -627L916 -664C931 -666 931 -672 918 -681ZM871 -32L705 -163C730 -193 750 -221 772 -253C801 -295 810 -307 820 -317C824 -321 826 -327 824 -334L799 -410L777 -407C777 -351 764 -326 699 -224C634 -121 515 -11 385 71L390 86C482 50 598 -40 691 -145C757 -80 809 -13 853 55C859 66 864 67 868 54C876 32 877 0 871 -32ZM437 -75L323 -163L310 -147C358 -89 381 -57 414 -4C421 6 426 6 430 -3C439 -25 441 -41 437 -75ZM285 -136L258 -197L243 -193C234 -135 191 -62 83 76L96 86C158 29 189 -4 240 -74C258 -98 269 -112 280 -119C287 -124 288 -130 285 -136ZM369 -688L361 -351C359 -284 355 -277 342 -264L328 -274C302 -265 261 -257 218 -252L215 -372L338 -394C350 -396 351 -401 341 -411L318 -433C293 -423 259 -413 214 -403L211 -515L333 -536C348 -539 348 -545 336 -554L309 -574C284 -565 254 -556 210 -547L206 -665Z"/>
</svg>