<svg xmlns="http://www.w3.org/2000/svg" viewBox="0 -1000 1000 1000">
	<path fill="#000000" d="M695 -751L611 -846L600 -837L658 -689C662 -679 668 -679 673 -689C682 -707 688 -724 695 -751ZM930 -401L886 -432C845 -417 787 -406 707 -399C757 -505 772 -534 788 -552C795 -560 796 -566 792 -573L757 -628L868 -642C878 -643 880 -649 870 -656L829 -687C786 -667 735 -655 430 -626L482 -589C514 -600 559 -608 735 -627C743 -579 726 -522 678 -398L385 -378L434 -337C464 -346 507 -351 926 -386C941 -387 941 -393 930 -401ZM610 -474L542 -577L528 -570L566 -417C569 -405 574 -404 582 -415C595 -433 602 -449 610 -474ZM418 -739L374 -781L346 -744L182 -724L151 -794L135 -789C143 -747 147 -706 147 -629V-335C147 -282 145 -263 134 -241L168 -189C174 -181 180 -181 183 -192C185 -200 186 -211 186 -235L314 -248L342 -202C348 -191 352 -191 356 -203C364 -225 370 -275 374 -375L392 -657C394 -693 398 -703 417 -720C425 -727 425 -732 418 -739ZM818 -263L776 -300L748 -263L543 -236L506 -312L491 -303C500 -264 503 -235 503 -193V-48C503 -13 498 11 486 29L519 90C525 102 533 102 536 88C540 68 541 52 541 10L797 -14C808 -15 809 -21 799 -29L769 -52L792 -188C797 -218 803 -232 817 -243C827 -251 826 -256 818 -263ZM401 -77L294 -178L282 -168C321 -114 346 -66 372 -6C377 5 384 5 387 -7C392 -29 395 -40 401 -77ZM243 -139L215 -207L202 -203C190 -128 140 -37 35 76L44 86C97 43 145 -7 201 -87C218 -112 226 -118 238 -123C245 -126 247 -129 243 -139ZM354 -712L340 -400C336 -326 327 -287 310 -267L285 -284C268 -275 244 -270 186 -263V-388L302 -402C313 -403 314 -409 305 -416L277 -438C262 -431 236 -425 186 -419V-534L307 -550C318 -551 319 -556 310 -564L283 -590C261 -578 243 -573 186 -566V-691ZM757 -229L732 -45L541 -23V-204Z"/>
</svg>