<svg xmlns="http://www.w3.org/2000/svg" viewBox="0 -1000 1000 1000">
	<path fill="#000000" d="M535 -778L496 -805C466 -788 400 -774 235 -763L209 -829L193 -826C196 -807 199 -766 199 -740V-525C199 -487 194 -470 171 -450L202 -420C211 -412 215 -413 221 -420C236 -438 245 -441 265 -443L527 -466C539 -467 541 -473 530 -481L494 -506C472 -496 427 -488 381 -483V-553L498 -564C515 -566 516 -570 503 -581L483 -597L490 -635C492 -648 496 -657 507 -667C515 -674 515 -679 507 -686L473 -716L451 -688L384 -680V-746L529 -761C548 -763 548 -769 535 -778ZM980 -417V-433C855 -438 824 -447 700 -566C740 -617 760 -647 798 -713C809 -732 817 -742 831 -752C842 -760 841 -765 831 -773L788 -808L758 -769L525 -738L573 -705C599 -713 639 -721 760 -736C742 -690 714 -642 675 -590C613 -651 606 -661 598 -681L550 -677L548 -665C582 -642 615 -612 659 -567C605 -500 534 -443 471 -399L333 -386L311 -433L295 -428C300 -404 303 -379 303 -340V-199C303 -172 297 -141 284 -125L317 -64C323 -52 329 -53 333 -63C336 -71 339 -89 340 -115L415 -120C398 -72 325 7 168 88L176 101C248 76 330 28 398 -28C426 -50 433 -54 446 -59C458 -64 460 -67 456 -78L439 -121L633 -132L657 -84C665 -69 672 -68 677 -84C682 -99 687 -135 690 -189L700 -347C702 -380 706 -389 717 -398C725 -404 725 -410 718 -416L680 -451L647 -416L516 -403C572 -439 627 -483 682 -544L821 -395ZM759 85C760 60 756 36 747 9L552 -94L545 -80C636 -18 706 48 744 89C754 101 758 100 759 85ZM348 -676L235 -661V-733L348 -743ZM457 -660L450 -590L235 -570V-634ZM345 -480L235 -469V-540L345 -550ZM660 -383L652 -227C650 -191 645 -164 635 -148L607 -171C586 -161 524 -154 340 -143V-198L605 -219C624 -220 625 -225 611 -236L584 -256C561 -246 516 -241 340 -229V-276L613 -300C629 -301 631 -306 617 -317L587 -340C559 -328 513 -321 340 -307V-357Z"/>
</svg>