<svg xmlns="http://www.w3.org/2000/svg" viewBox="0 -1000 1000 1000">
	<path fill="#000000" d="M864 -700L760 -770L752 -758L846 -641C854 -632 860 -633 862 -644C865 -660 866 -682 864 -700ZM917 70C908 3 906 -70 910 -158H891L869 -2C831 -40 793 -119 768 -231C787 -277 805 -330 822 -397C833 -439 838 -446 846 -452C851 -455 852 -460 848 -469L810 -542L797 -537C806 -506 785 -380 757 -293C746 -368 734 -490 726 -632L821 -644C830 -645 830 -652 823 -657L787 -680C777 -674 758 -669 725 -664C719 -749 720 -766 729 -777C735 -785 733 -791 726 -798L669 -854L657 -843C670 -820 683 -756 688 -658L475 -630L453 -703L437 -697C443 -640 445 -587 443 -485L383 -477V-557C383 -587 386 -601 394 -618C397 -624 395 -629 390 -633L349 -672L338 -663C349 -643 352 -619 352 -554V-510C352 -476 349 -472 327 -464L358 -431C363 -426 369 -426 373 -432C381 -445 385 -448 403 -450L442 -456C442 -430 441 -402 440 -372L305 -352L310 -649C310 -675 315 -687 332 -704C338 -710 338 -716 331 -721L286 -755L267 -711L167 -699L145 -769L129 -762C133 -744 138 -684 138 -631V-305C138 -269 135 -261 125 -243L151 -195C158 -183 162 -184 166 -194C168 -202 170 -210 172 -228L262 -239L281 -202C287 -190 291 -190 295 -203C300 -218 302 -239 304 -305L305 -342L329 -322C334 -324 347 -328 360 -330C356 -257 334 -187 304 -140L246 -209L234 -200L288 -76C293 -65 300 -65 305 -75C315 -94 319 -106 320 -121C363 -174 393 -253 399 -335L440 -342C433 -171 389 -64 284 53L296 67C427 -66 467 -164 473 -364C475 -411 478 -530 479 -600L689 -628C698 -459 716 -315 733 -230C722 -206 712 -185 701 -164L668 -187C658 -181 637 -175 609 -171V-268L687 -277C697 -278 698 -283 691 -289L668 -310L676 -373C678 -387 682 -394 696 -400C704 -403 703 -409 695 -416L658 -445L640 -415L612 -411V-495L683 -506C692 -507 693 -512 685 -518L653 -542C638 -532 608 -524 539 -516L516 -564L503 -557C506 -540 508 -512 508 -468V-185C508 -164 504 -157 482 -145L514 -114C521 -107 528 -109 531 -115C536 -127 544 -132 572 -135L693 -149C663 -97 628 -55 571 -1L583 13C653 -49 703 -101 743 -177C773 -56 838 48 901 81C910 86 918 81 917 70ZM217 -158L196 -221L182 -217C189 -171 136 -70 44 31L54 42C99 2 143 -47 177 -97C197 -129 204 -137 213 -141C219 -144 220 -147 217 -158ZM275 -681L271 -310C271 -286 268 -269 262 -258L242 -274C233 -267 213 -262 172 -257V-394L258 -408C270 -410 269 -415 261 -422L240 -441C227 -434 213 -430 172 -424V-529L261 -542C271 -543 271 -548 263 -556L242 -577C227 -569 211 -564 172 -558V-669ZM580 -406L540 -401V-485L580 -491ZM645 -386L635 -302L540 -289V-371ZM577 -168L540 -163V-261L577 -265Z"/>
</svg>