<svg xmlns="http://www.w3.org/2000/svg" viewBox="0 -1000 1000 1000">
	<path fill="#000000" d="M519 -483L469 -515C453 -504 406 -492 329 -483V-609L469 -624C481 -625 481 -630 472 -636L429 -667C416 -658 366 -646 329 -641V-695C329 -724 336 -752 346 -769C353 -781 352 -787 343 -795L284 -851L272 -845C287 -803 290 -761 290 -697V-638L111 -623L170 -584C193 -592 225 -598 290 -605V-481L43 -464L102 -424C127 -432 172 -439 243 -446C246 -401 243 -319 232 -258C208 -133 165 -38 74 71L85 82C210 -37 252 -140 278 -311C287 -373 290 -383 296 -394C301 -402 299 -408 294 -414L264 -447L347 -456C356 -430 360 -395 360 -336V-137C360 -58 359 -43 355 -28L261 -96L252 -84C297 -33 330 8 356 46C369 65 374 64 381 46C393 16 399 -27 399 -101V-342C399 -395 400 -406 404 -410C408 -414 407 -419 402 -424L373 -458L516 -471C526 -472 527 -478 519 -483ZM951 9V-10C829 -23 815 -31 727 -169C752 -225 769 -272 802 -373C818 -422 823 -431 835 -439C843 -444 843 -449 836 -455L791 -493L765 -445L577 -424V-685L763 -712C748 -602 735 -565 713 -532L623 -588L615 -574C649 -542 690 -497 711 -469C720 -457 727 -458 734 -470C764 -525 778 -574 798 -683C803 -712 813 -730 824 -737C835 -744 836 -749 825 -758L784 -792L759 -746L581 -721L534 -797L519 -791C532 -751 537 -712 537 -645V-133C537 -49 535 -37 513 -4L554 87C561 102 567 102 571 82C573 74 575 57 576 41C632 -10 673 -62 710 -134L791 16ZM501 -286L414 -360L403 -348L480 -224C489 -210 495 -211 498 -229C501 -246 501 -267 501 -286ZM181 -382L163 -384C156 -304 109 -233 92 -221L106 -158C110 -140 115 -136 127 -154C152 -194 180 -294 181 -382ZM770 -413C754 -341 732 -271 704 -208C659 -281 645 -326 644 -349L586 -357L583 -347C603 -331 615 -312 648 -250L689 -174C657 -105 619 -43 577 7V-390Z"/>
</svg>