<svg xmlns="http://www.w3.org/2000/svg" viewBox="0 -1000 1000 1000">
	<path fill="#000000" d="M952 6L950 -11C778 0 713 -24 522 -132V-319L777 -354C784 -355 784 -360 778 -365L737 -399C720 -388 672 -375 522 -351V-514L725 -536C734 -537 735 -542 727 -548L690 -579L711 -719C714 -740 730 -764 745 -772C752 -776 752 -780 746 -785L696 -825L667 -782L332 -740L298 -822L280 -817C289 -789 294 -743 297 -688L302 -590C303 -567 298 -532 292 -519L330 -451C336 -440 341 -442 344 -455C346 -465 347 -474 346 -494L480 -510V-158L305 -257C341 -334 349 -346 356 -351C363 -356 363 -360 359 -365L306 -430L293 -423C312 -344 235 -152 41 61L50 71C152 -12 236 -121 291 -227L747 48ZM670 -745L648 -565L345 -528L336 -706Z"/>
</svg>