<svg xmlns="http://www.w3.org/2000/svg" viewBox="0 -1000 1000 1000">
	<path fill="#000000" d="M445 -167L438 -186L314 -136V-339L423 -360C440 -363 440 -368 427 -377L395 -399C381 -391 357 -382 314 -373V-516L392 -528C405 -530 405 -534 396 -543L373 -566L392 -678C394 -691 399 -701 415 -712C422 -717 422 -721 416 -726L371 -766L346 -728L203 -706L175 -772L160 -768C167 -735 169 -714 169 -680L173 -563C173 -543 171 -534 161 -518L198 -463C206 -451 211 -452 213 -464C214 -472 215 -488 214 -501L276 -511V-121L201 -90V-279C201 -307 202 -326 208 -339C211 -344 209 -350 204 -354L150 -397L139 -389C157 -357 163 -319 163 -280V-76L61 -34L129 0C156 -23 194 -46 445 -167ZM934 -16C805 -40 757 -75 682 -215C771 -294 804 -320 820 -327C827 -330 828 -334 825 -341L796 -411L781 -407C781 -372 749 -317 671 -237L574 -420L771 -448C785 -450 785 -455 774 -464L747 -488L773 -702C775 -720 781 -734 799 -750C806 -756 806 -760 797 -768L750 -806L721 -762L515 -733L480 -808L464 -803C475 -768 478 -732 478 -696V-83C478 -41 471 -18 436 16L481 43C487 47 491 46 495 38C507 14 542 -27 649 -138L639 -151L518 -49V-412L544 -416L762 6L933 -1ZM350 -694L337 -556L213 -533L208 -672ZM732 -728L709 -475L518 -444V-550L681 -571C694 -573 694 -578 685 -585L648 -614C624 -601 594 -593 518 -584V-697Z"/>
</svg>