<svg xmlns="http://www.w3.org/2000/svg" viewBox="0 -1000 1000 1000">
	<path fill="#000000" d="M418 -192L412 -211L297 -164V-334L388 -350C398 -351 399 -357 392 -363L362 -391C351 -383 338 -377 297 -367V-531L386 -543C397 -544 398 -549 390 -556L368 -575L382 -676C385 -698 396 -717 409 -726C415 -730 416 -735 406 -743L361 -780L338 -744L208 -724L181 -790L164 -786C171 -757 176 -717 178 -678L183 -584C185 -549 183 -533 169 -506L201 -454C208 -443 214 -443 217 -453C221 -465 221 -486 219 -522L258 -527V-149L182 -118V-288C182 -319 184 -340 191 -358C194 -367 193 -372 187 -379L137 -432L125 -425C137 -391 145 -332 145 -285V-104L57 -67L111 -30C167 -67 238 -106 418 -192ZM676 -397L647 -427C625 -414 598 -403 552 -394C559 -461 563 -545 562 -586L656 -602C669 -604 669 -609 659 -616L621 -643C598 -628 583 -623 498 -605C512 -641 518 -660 534 -711C541 -733 550 -753 563 -770C570 -779 570 -783 564 -791L513 -858L501 -854C511 -767 479 -593 385 -416L399 -407C426 -443 459 -508 486 -571L520 -578C521 -538 518 -478 509 -388L393 -368L434 -334C454 -344 474 -350 506 -356C484 -173 421 -51 267 68L277 83C403 -2 479 -92 519 -222C553 -176 592 -120 610 -90C620 -74 628 -74 631 -87C637 -115 638 -125 637 -152L526 -250C536 -285 544 -322 549 -362L674 -382C685 -384 685 -387 676 -397ZM905 -548C911 -555 911 -560 905 -565L860 -603L833 -564L722 -545L698 -620L680 -616C685 -580 688 -516 688 -464V-233C688 -178 679 -137 666 -116L704 -36C709 -26 713 -26 720 -36C725 -44 726 -52 726 -135L874 -148C885 -149 887 -153 877 -163L849 -191L874 -469C877 -507 883 -522 905 -548ZM347 -713L333 -570L218 -549L213 -692ZM840 -530L813 -185L726 -172V-510Z"/>
</svg>