<svg xmlns="http://www.w3.org/2000/svg" viewBox="0 -1000 1000 1000">
	<path fill="#000000" d="M912 -652L870 -681C826 -663 753 -648 636 -634V-738C697 -761 740 -774 773 -781C787 -784 788 -788 777 -797L728 -839L717 -835C694 -805 639 -776 418 -688L422 -672C496 -691 548 -707 595 -724V-629L362 -600L417 -565C445 -574 466 -578 595 -595V-515L471 -496L448 -550L431 -543C438 -518 441 -490 442 -455L446 -307C447 -280 442 -259 433 -247L467 -192C476 -178 482 -178 486 -193C488 -204 489 -218 488 -236L595 -251V-151L423 -130L472 -93C494 -103 529 -111 595 -118V-3L351 19L406 58C448 44 489 38 904 8C918 7 918 3 907 -6L863 -41C842 -30 755 -16 636 -6V-122L818 -145C835 -148 835 -152 823 -161L786 -188C764 -178 716 -168 636 -157V-255L807 -277C820 -278 820 -283 812 -293L795 -314L815 -480C817 -507 828 -525 840 -532C849 -537 849 -541 838 -550L796 -583L766 -540L636 -520V-600L910 -637C925 -638 926 -642 912 -652ZM427 -159L418 -176L290 -123V-308L398 -335C412 -339 413 -343 401 -351L364 -375C355 -365 331 -352 290 -343V-497L366 -512C378 -514 379 -518 370 -527L350 -548L361 -645C363 -667 372 -686 385 -694C394 -700 394 -704 385 -712L341 -749L316 -706L192 -686L157 -755L141 -749C150 -724 155 -699 156 -666L161 -547C162 -517 159 -503 148 -487L184 -433C193 -419 200 -419 201 -437C202 -452 202 -461 201 -482L251 -491V-108L180 -77V-268C180 -307 182 -329 188 -341C192 -350 190 -358 184 -362L125 -406L113 -395C131 -368 143 -301 143 -233V-63L51 -24L111 4C144 -19 182 -39 427 -159ZM321 -674L312 -538L200 -517L196 -650ZM773 -507L754 -308L636 -291V-376L733 -389C747 -390 748 -394 736 -404L705 -429C688 -421 666 -415 636 -410V-487ZM595 -286L487 -272L479 -466L595 -482V-403L489 -387L530 -356C542 -361 565 -366 595 -371Z"/>
</svg>