<svg xmlns="http://www.w3.org/2000/svg" viewBox="0 -1000 1000 1000">
	<path fill="#000000" d="M947 -376V-393C854 -403 805 -420 756 -522C811 -577 841 -596 859 -604C866 -607 868 -611 864 -619L841 -670L827 -667C825 -638 803 -603 744 -546L711 -615C765 -684 791 -712 807 -721C816 -726 817 -730 813 -737L788 -788L773 -785C767 -752 745 -708 698 -641C640 -764 639 -771 649 -792L585 -806L580 -797C596 -782 603 -773 637 -699L793 -368ZM475 -574L399 -624L391 -613L454 -523C460 -515 465 -515 468 -524C472 -538 474 -553 475 -574ZM711 -495L675 -523C658 -510 634 -501 496 -477C523 -528 544 -580 559 -631C574 -684 585 -706 599 -715C606 -719 606 -723 601 -728L557 -766L534 -729L405 -701L449 -672C465 -679 485 -685 540 -696C516 -596 468 -478 402 -373L360 -397C353 -391 339 -384 299 -374V-511L374 -523C383 -524 384 -528 377 -535L351 -561L363 -663C366 -690 376 -702 390 -712C396 -716 396 -719 389 -725L344 -762L315 -724L202 -702L168 -774L153 -767C161 -730 165 -695 166 -668L171 -586C173 -539 170 -527 159 -506L192 -453C198 -444 202 -445 205 -454C207 -463 207 -476 207 -495L261 -504V-141L192 -113V-281C192 -309 196 -329 203 -344C206 -350 205 -356 199 -361L143 -402L131 -391C145 -368 154 -336 154 -284V-97L49 -55L111 -27C141 -48 191 -77 409 -182L402 -197L299 -156V-342L397 -364C381 -338 363 -312 345 -287L360 -277C410 -335 455 -400 490 -465L529 -446C557 -459 597 -469 707 -482C719 -483 720 -488 711 -495ZM888 -24L844 -61C823 -46 793 -39 673 -26C702 -94 719 -132 730 -146C736 -154 735 -157 730 -164L699 -206L744 -212C752 -213 754 -216 747 -224L727 -246L741 -334C744 -356 750 -366 761 -372C767 -375 768 -379 759 -387L719 -423L696 -393L518 -367L492 -411L478 -405C485 -376 490 -339 490 -316L492 -259C494 -213 492 -203 483 -182L513 -133L535 -10L341 13L385 45C452 31 532 21 887 -11C897 -12 898 -15 888 -24ZM327 -691L316 -550L206 -530L202 -667ZM704 -362L694 -240L529 -215L524 -335ZM676 -203C687 -167 681 -116 647 -23L554 -12C563 -28 572 -49 576 -61L525 -138C527 -152 529 -167 529 -182Z"/>
</svg>