<svg xmlns="http://www.w3.org/2000/svg" viewBox="0 -1000 1000 1000">
	<path fill="#000000" d="M409 -418L371 -439C356 -432 326 -422 298 -416V-540L375 -553C383 -554 385 -559 376 -568L356 -587L369 -701C371 -722 379 -733 393 -742C401 -747 401 -752 394 -758L354 -792L327 -755L204 -735L175 -805L159 -800C166 -769 168 -754 169 -724L175 -590C176 -563 173 -548 164 -534L196 -481C203 -469 207 -470 211 -483C214 -495 215 -510 215 -526L259 -534V-151L194 -125V-328C194 -365 196 -376 201 -384C205 -392 204 -397 198 -402L150 -441L138 -432C152 -400 156 -370 156 -328V-111L49 -68L116 -40C136 -55 168 -74 403 -187L394 -205L298 -167V-380L406 -404C421 -407 421 -411 409 -418ZM898 -492C905 -496 906 -501 898 -507L852 -540L829 -504L516 -468C524 -480 532 -492 538 -504C543 -515 553 -526 562 -530C568 -532 569 -536 564 -544L540 -574L838 -601C850 -602 852 -606 841 -617L818 -639L840 -735C843 -748 850 -760 869 -772C878 -777 878 -781 871 -789L832 -830L807 -801L465 -766L444 -832L426 -828C430 -805 434 -769 434 -746L438 -625C438 -603 435 -590 425 -576L456 -523C462 -514 468 -513 471 -526C474 -541 475 -551 475 -568L512 -572C508 -523 447 -392 359 -295L374 -284C394 -303 415 -326 437 -352C441 -336 444 -319 444 -307V-230C444 -214 440 -198 432 -187L462 -142C468 -134 474 -135 476 -146C478 -160 479 -166 479 -184L555 -194V-113L335 -63L395 -25C429 -40 479 -57 694 -115L714 -65C718 -55 724 -53 730 -64C737 -77 739 -84 746 -114L677 -192L666 -184L684 -139L592 -120V-198L725 -216C735 -217 736 -221 729 -229L709 -251L722 -313C724 -322 728 -330 739 -341C744 -346 744 -351 739 -355L699 -385L682 -359L592 -346C593 -373 597 -384 602 -391C610 -401 608 -406 602 -411L568 -439L827 -470C802 -174 781 -77 752 -1L655 -64L645 -52C688 -9 716 23 756 75C763 84 768 84 773 73C806 6 831 -97 864 -415C869 -460 875 -480 898 -492ZM806 -766L782 -632L696 -624L713 -755ZM673 -751L659 -621L592 -614L597 -743ZM559 -740L556 -610L475 -602L472 -731ZM332 -722L319 -580L214 -561L207 -702ZM555 -342L474 -331L454 -373C470 -395 480 -409 503 -445L521 -429C528 -432 534 -433 545 -435C551 -418 555 -397 555 -342ZM685 -325L673 -245L592 -232V-313ZM555 -228L479 -217V-299L555 -309Z"/>
</svg>