<svg xmlns="http://www.w3.org/2000/svg" viewBox="0 -1000 1000 1000">
	<path fill="#000000" d="M363 -158L358 -174L258 -140V-341L342 -351C354 -352 355 -357 346 -366L323 -389C311 -382 297 -377 258 -371V-526L323 -533C335 -534 338 -538 330 -549L316 -566L330 -673C333 -697 339 -712 349 -719C359 -727 358 -730 350 -737L315 -771L289 -735L168 -720L141 -780L126 -774C132 -753 138 -714 139 -682L143 -588C144 -565 141 -544 130 -531L158 -475C167 -458 172 -457 177 -479C179 -487 180 -501 180 -518L223 -523V-129L158 -108V-299C158 -320 161 -343 165 -352C168 -361 167 -366 160 -372L112 -417L102 -409C113 -380 122 -328 122 -284V-95L22 -62L91 -35C123 -55 177 -82 363 -158ZM295 -704L284 -559L180 -546L175 -690ZM539 -588L533 -522L509 -537C499 -531 473 -526 421 -519V-575ZM809 -479L674 -462V-510L795 -526C807 -528 807 -534 798 -540L776 -556C762 -549 736 -542 674 -535V-585L809 -602ZM533 -510L528 -455L421 -441V-492ZM615 -269L533 -259V-302L615 -311ZM615 -208L533 -196V-249L551 -235C565 -239 593 -244 615 -247ZM615 -133L533 -125V-188L553 -173C568 -177 594 -181 615 -183ZM421 -230V-414L574 -433C591 -435 592 -440 580 -449L562 -462L571 -553C573 -575 577 -586 586 -595C593 -602 592 -607 587 -612L552 -644C552 -657 552 -673 551 -694L647 -701C639 -679 632 -660 624 -641L635 -635C640 -612 641 -593 641 -573V-497C641 -481 638 -466 634 -454L656 -416C665 -402 669 -403 672 -418C673 -423 674 -429 674 -434L809 -450V-137C809 -23 807 -7 799 13L696 -50L688 -37C746 16 794 66 810 87C817 96 821 95 826 87C839 68 847 41 847 -61V-560C847 -595 850 -605 861 -618C868 -626 866 -631 860 -636L818 -668L797 -629L673 -614L646 -641C659 -663 670 -682 681 -703L900 -720C912 -721 913 -728 904 -736L868 -766C851 -755 774 -740 698 -735C713 -765 720 -776 727 -780C736 -786 735 -792 731 -798L699 -847L684 -843C686 -823 676 -784 658 -733L551 -725L550 -751C550 -764 551 -772 555 -778C560 -786 558 -791 551 -797L502 -833L494 -827C504 -805 513 -765 513 -751L514 -723L354 -711L387 -676C408 -682 442 -686 514 -692C515 -678 513 -666 511 -656L534 -618L414 -602L391 -650L375 -646C382 -615 385 -576 384 -536V-144C383 -49 378 -26 364 -8L399 62C407 78 411 78 415 60C419 39 421 0 421 -102V-226L433 -213C455 -235 481 -260 501 -281V-173C501 -127 498 -109 484 -86L513 -29C522 -11 526 -11 531 -32C533 -42 533 -61 533 -102L773 -120C793 -121 795 -126 781 -136L755 -156C744 -149 719 -144 649 -136V-185L732 -192C745 -193 750 -198 737 -207L712 -224C703 -219 693 -217 649 -211V-251L732 -260C747 -261 748 -266 738 -273L713 -288C703 -283 680 -277 649 -273V-314L756 -325C767 -326 768 -330 759 -336L733 -354C710 -346 696 -343 657 -339C662 -349 664 -362 666 -377L617 -425L606 -419L637 -338L542 -327C562 -352 571 -363 577 -367C583 -371 584 -378 581 -384L563 -422L553 -420C548 -381 488 -296 421 -230Z"/>
</svg>