<svg xmlns="http://www.w3.org/2000/svg" viewBox="0 -1000 1000 1000">
	<path fill="#000000" d="M733 -384C736 -393 735 -399 729 -404L695 -437L685 -431C691 -415 693 -384 693 -332V-229C693 -193 688 -165 676 -148L703 -95C711 -81 716 -83 719 -95C723 -111 725 -134 725 -171V-323C725 -360 727 -372 733 -384ZM828 -420C831 -424 830 -431 824 -438L782 -486L770 -477C782 -451 784 -426 784 -342V-111C784 -46 782 -21 774 -2L682 -61L674 -49C725 -1 755 34 782 69C790 79 795 79 799 70C812 46 817 8 817 -62V-334C817 -380 820 -406 828 -420ZM366 -528L359 -442L337 -456C329 -451 309 -446 291 -442V-517ZM256 -437L189 -427L186 -503L256 -514ZM358 -424L351 -347L291 -338V-417ZM256 -333L192 -323L189 -416L212 -400C219 -404 238 -409 256 -413ZM604 -213L587 -229C573 -221 552 -215 507 -208V-294L595 -308C603 -309 604 -316 596 -324L583 -338C571 -332 553 -327 507 -319V-409L604 -422ZM538 -547C571 -596 601 -651 640 -729L838 -456L946 -467V-482C853 -497 832 -514 654 -752C662 -766 669 -776 675 -780C680 -784 681 -794 677 -801L644 -857L632 -853C618 -739 526 -562 388 -398L399 -493C401 -513 407 -526 420 -540C426 -547 427 -553 419 -559L385 -587L363 -557L291 -547V-632L463 -654C475 -655 476 -663 464 -671L431 -694C409 -682 362 -671 291 -661C291 -734 295 -758 306 -784C309 -790 307 -799 301 -806L252 -860L242 -853C254 -817 256 -790 256 -658L60 -636L105 -604C123 -611 149 -615 256 -628V-543L181 -533L158 -585L146 -580C150 -560 153 -530 154 -496L158 -372C159 -330 154 -311 147 -298L178 -248C187 -234 192 -235 193 -249C194 -258 194 -272 193 -296L256 -305V-218L48 -195L96 -161C123 -171 176 -180 256 -189V-123C256 -57 250 -31 235 -9L267 58C273 71 279 70 283 59C289 43 291 21 291 -58V-192L440 -210C457 -212 457 -218 444 -227L414 -248C387 -236 348 -229 291 -222V-309L398 -322C408 -323 408 -329 401 -338L384 -359L388 -395L396 -384C424 -411 447 -435 467 -458C472 -421 474 -391 474 -347V-151C474 -53 468 -30 455 -7L483 54C490 69 497 69 500 56C504 39 507 -7 507 -88V-182L604 -194V-92C604 -45 601 -23 597 -11L536 -43L529 -31C561 -1 581 23 604 55C615 70 619 69 623 58C633 35 638 -1 638 -75V-387C638 -408 642 -427 648 -432C654 -437 655 -444 647 -451L616 -480L596 -449L502 -434L486 -479C504 -501 521 -522 536 -544L570 -516C599 -525 635 -532 728 -542C743 -543 744 -549 730 -561L701 -583C672 -568 645 -559 538 -547Z"/>
</svg>