<svg xmlns="http://www.w3.org/2000/svg" viewBox="0 -1000 1000 1000">
	<path fill="#000000" d="M723 -553L615 -605L607 -595L707 -492C713 -485 719 -485 721 -494C724 -508 725 -527 723 -553ZM878 -706C887 -715 886 -719 878 -725L831 -762L796 -723L317 -669C330 -691 341 -713 351 -734C362 -757 376 -777 391 -788C397 -792 398 -797 394 -804L353 -868L341 -863C330 -744 219 -543 68 -391L80 -380C172 -465 249 -559 304 -647L332 -630C384 -642 423 -647 809 -683C813 -391 781 -64 737 27L630 -33L621 -22C669 18 702 54 744 103C751 111 755 110 759 103C807 25 846 -252 856 -635C857 -679 861 -689 878 -706ZM296 -284V-357L418 -372V-299ZM296 -182L332 -153C352 -160 368 -163 418 -169C418 -92 415 -68 404 -48L435 10C441 20 446 19 449 8C453 -12 455 -49 455 -132V-173L553 -184C567 -186 568 -191 557 -198L524 -220C510 -213 496 -208 455 -202V-274L553 -288C567 -290 568 -294 557 -303L531 -323C509 -315 487 -309 455 -303V-377L592 -394C587 -201 579 -88 569 -56L503 -107L495 -96C536 -46 550 -26 575 20C581 32 587 32 594 20C609 -6 615 -53 628 -373C629 -392 634 -402 644 -409C650 -413 650 -417 645 -421L607 -453L582 -425L455 -409V-483L641 -502C651 -503 652 -507 644 -515L613 -544C591 -534 518 -520 455 -513C455 -542 459 -560 466 -572C470 -579 469 -585 464 -590L420 -631L407 -629C417 -601 418 -581 418 -510L192 -489L242 -453C273 -464 292 -467 418 -480V-403L287 -387L256 -433L244 -430C256 -393 260 -350 260 -282V-125C260 -90 250 -51 242 -36L278 22C283 29 287 29 290 21C294 12 296 -16 296 -125ZM296 -184V-280L326 -254C342 -259 363 -263 418 -270V-198Z"/>
</svg>