<svg xmlns="http://www.w3.org/2000/svg" viewBox="0 -1000 1000 1000">
	<path fill="#000000" d="M344 -747L249 -845L236 -837L309 -682C316 -667 323 -668 328 -683C336 -707 338 -716 344 -747ZM947 -42V-61C851 -66 811 -87 724 -229L655 -342L812 -356C823 -357 824 -361 814 -370L788 -396L801 -467C808 -505 811 -510 826 -519C833 -524 833 -531 826 -537L783 -573L755 -535L644 -523V-621L855 -643C871 -644 871 -648 856 -658L813 -686C787 -673 751 -666 644 -653C644 -744 648 -770 662 -792C668 -801 666 -807 659 -812L587 -868L576 -858C599 -812 604 -776 604 -650L454 -635L415 -660C375 -643 339 -635 102 -618L159 -580C181 -587 234 -595 344 -606C349 -582 344 -551 315 -450L249 -443C258 -460 261 -470 265 -495L199 -569L188 -563L231 -441L60 -423L112 -386C136 -393 187 -402 265 -413C265 -371 263 -330 258 -295L83 -274L136 -237C169 -248 197 -253 254 -261C231 -131 175 -32 67 71L79 84C207 -23 269 -128 294 -266L431 -282C445 -283 445 -289 433 -296L389 -323C371 -313 354 -308 299 -300C305 -345 307 -376 307 -418L455 -436C469 -437 469 -441 459 -450L427 -477C410 -469 390 -463 344 -454C369 -521 382 -548 396 -559C403 -565 403 -570 396 -578L367 -609L460 -619L492 -599C530 -609 552 -613 604 -618V-519L508 -508L484 -564L467 -561C472 -532 474 -513 475 -475L478 -382C479 -360 470 -339 460 -327L498 -268C503 -260 510 -259 512 -270C516 -293 516 -303 515 -331L581 -337C516 -209 404 -80 271 6L280 22C402 -51 515 -151 604 -290V-118C604 -44 599 -11 580 20L622 98C629 109 633 109 637 96C643 79 644 50 644 -91V-309L803 -27ZM763 -500L750 -385L644 -375V-487ZM604 -372L514 -363L510 -473L604 -483Z"/>
</svg>