<svg xmlns="http://www.w3.org/2000/svg" viewBox="0 -1000 1000 1000">
	<path fill="#000000" d="M761 -754L672 -861L660 -854L719 -693C724 -681 729 -679 738 -693C747 -707 754 -728 761 -754ZM313 -741L230 -842L217 -835L279 -676C284 -665 291 -665 296 -676C306 -700 310 -714 313 -741ZM708 -498L647 -595L636 -588L670 -448C673 -436 678 -434 686 -446C696 -464 701 -476 708 -498ZM249 -485L186 -576L175 -569L220 -433C223 -424 229 -424 234 -433C240 -445 245 -461 249 -485ZM605 -522C615 -531 615 -537 604 -546L563 -580L544 -542L490 -532C495 -573 500 -633 503 -691C504 -709 512 -738 518 -746C525 -756 524 -764 518 -772L466 -837L454 -831C467 -785 472 -712 456 -527L368 -511L403 -479C409 -482 432 -488 453 -492C431 -253 378 -98 281 34L296 48C414 -117 460 -238 488 -499L552 -513C543 -286 515 -134 496 -88L441 -151L429 -142C459 -92 475 -63 495 -20C501 -7 507 -6 512 -19C555 -122 560 -152 589 -472C591 -501 593 -512 605 -522ZM924 -440L894 -463C874 -451 821 -438 765 -430C797 -528 810 -560 824 -576C831 -585 831 -589 825 -597L789 -641L891 -654C908 -656 909 -661 894 -674L860 -701C811 -675 785 -667 552 -641L593 -608C611 -615 674 -627 773 -639C780 -600 770 -538 740 -427L588 -407L619 -377C625 -381 645 -385 709 -395V-250L578 -234L611 -203C623 -209 639 -213 709 -221V-94C709 -21 705 3 693 20L726 90C731 101 738 100 741 89C744 77 745 45 745 -67V-224L893 -240C910 -242 911 -249 896 -261L868 -284C852 -274 798 -262 745 -255V-398L921 -420C940 -422 941 -427 924 -440ZM413 -645L386 -671C334 -647 309 -642 85 -621L123 -585C148 -594 246 -611 323 -619C328 -576 314 -505 289 -432L60 -396L108 -363C136 -372 190 -384 254 -395C252 -358 249 -310 246 -275L80 -248L128 -215C137 -219 193 -235 242 -245C222 -111 177 -31 76 71L89 85C211 -33 255 -102 278 -251L394 -269C411 -272 413 -276 398 -288L372 -309C357 -299 323 -288 282 -280C286 -315 289 -364 291 -401L400 -420C412 -422 415 -428 403 -437L378 -457C364 -449 339 -440 317 -436C342 -517 351 -538 370 -566C378 -577 378 -581 373 -587L347 -621L408 -627C425 -628 427 -633 413 -645Z"/>
</svg>