<svg xmlns="http://www.w3.org/2000/svg" viewBox="0 -1000 1000 1000">
	<path fill="#000000" d="M740 -600L705 -635C673 -620 544 -599 332 -582L380 -541C422 -553 463 -562 735 -587C747 -588 748 -592 740 -600ZM926 26V5C788 -1 727 -31 604 -221C691 -284 733 -309 751 -315C757 -318 758 -322 752 -329L708 -384L696 -377C695 -342 667 -314 589 -245L484 -407L854 -440C868 -441 868 -446 858 -453L804 -492C774 -477 655 -456 299 -429C310 -495 316 -561 327 -691L755 -739C765 -740 766 -744 758 -752L717 -790C690 -772 590 -754 322 -729L288 -818L269 -815C283 -684 273 -552 250 -415C228 -280 182 -129 39 44L51 53C166 -55 258 -202 295 -404L310 -386C326 -391 342 -393 368 -396L357 -104C354 -23 350 -16 297 17L355 48C361 51 365 50 371 43C405 8 455 -36 556 -119L543 -136L399 -44L409 -294C410 -329 414 -343 420 -349C425 -354 425 -358 421 -363L392 -398L448 -404L725 35Z"/>
</svg>