<svg xmlns="http://www.w3.org/2000/svg" viewBox="0 -1000 1000 1000">
	<path fill="#000000" d="M289 -632L159 -729L149 -715L259 -571C268 -560 274 -560 278 -570C284 -585 288 -609 289 -632ZM952 30L949 13C781 33 744 31 376 -78C501 -166 571 -249 609 -382L636 -386C638 -367 639 -344 639 -304V-178C639 -105 656 -81 715 -73C757 -67 859 -73 911 -86C918 -88 920 -92 918 -102C905 -158 895 -213 887 -288H869L865 -128C835 -114 771 -108 721 -113C686 -117 677 -128 677 -180V-287C677 -317 679 -329 687 -342C692 -351 690 -357 684 -363L660 -388L810 -407C819 -408 820 -412 813 -419L791 -442L812 -547C815 -564 826 -583 836 -590C848 -599 847 -606 836 -614L794 -645L766 -607L651 -591C698 -681 711 -702 724 -712C735 -720 735 -725 727 -731L690 -761L662 -728L532 -704C565 -751 579 -768 591 -778C601 -786 602 -790 599 -795L564 -855L550 -852C548 -801 491 -678 353 -536L365 -524C390 -546 410 -564 429 -583C434 -561 437 -539 438 -499L439 -414C439 -389 436 -369 426 -348L459 -294C463 -287 470 -288 471 -296C476 -317 478 -339 478 -367L565 -378C527 -249 453 -166 345 -87C315 -95 285 -101 255 -106C321 -221 318 -246 248 -317C300 -403 318 -427 339 -444C348 -452 347 -458 340 -465L300 -505L272 -467L49 -433L96 -396C128 -407 154 -413 268 -431L221 -318C272 -250 279 -199 227 -111C160 -120 97 -120 53 -112L90 -72C139 -92 216 -90 380 -40C542 9 683 54 782 93ZM817 -264L746 -344L735 -337L782 -212C787 -200 792 -199 799 -209C809 -224 815 -241 817 -264ZM657 -691L619 -586L465 -564L447 -602C472 -628 488 -647 516 -683L546 -664C574 -673 603 -680 657 -691ZM773 -572L753 -436L617 -418C626 -455 636 -510 641 -552ZM596 -546C592 -496 585 -451 574 -413L476 -399L474 -528Z"/>
</svg>