<svg xmlns="http://www.w3.org/2000/svg" viewBox="0 -1000 1000 1000">
	<path fill="#000000" d="M959 -528V-544C875 -551 812 -583 739 -647L611 -758C616 -764 622 -767 630 -771C638 -775 639 -778 633 -788L595 -846L581 -840C577 -782 492 -637 312 -494L324 -480C362 -501 397 -528 434 -563L465 -541C492 -549 587 -564 699 -577C710 -578 711 -584 703 -591L667 -618C641 -603 555 -586 446 -574C498 -624 551 -680 595 -739L825 -512ZM297 -653L164 -747L155 -732L276 -580C282 -573 286 -573 289 -581C295 -594 298 -626 297 -653ZM704 -410C707 -415 707 -421 702 -425L661 -456L651 -449C659 -428 660 -416 660 -366V-312C660 -284 657 -268 650 -251L678 -211C683 -204 690 -204 691 -213C694 -227 695 -241 695 -287V-352C695 -389 698 -402 704 -410ZM622 -482L585 -512L562 -483L447 -466L418 -514L407 -506C411 -487 413 -460 413 -415V-273C413 -205 408 -182 394 -153L425 -86C429 -77 435 -77 439 -86C445 -101 449 -142 449 -245L542 -259C551 -260 552 -266 546 -271L514 -295C504 -288 486 -283 449 -276V-340L541 -356C550 -357 551 -363 545 -368L513 -392C502 -384 481 -376 449 -370V-434L568 -451V-256C568 -200 565 -163 562 -144L499 -181L490 -168C527 -133 557 -97 576 -70C580 -64 587 -65 590 -71C600 -93 604 -118 604 -229V-418C604 -451 608 -459 621 -467C629 -473 628 -478 622 -482ZM804 -471C812 -478 811 -482 802 -488L745 -527L737 -517C751 -486 755 -460 755 -376V-238C755 -162 752 -125 748 -106L665 -146L659 -132C713 -80 729 -64 755 -29C760 -21 768 -23 772 -30C786 -61 792 -101 792 -178V-381C792 -438 795 -463 804 -471ZM959 25L957 7C770 35 683 22 368 -69C325 -81 284 -90 246 -97C297 -210 295 -234 238 -297C286 -390 303 -412 330 -426C336 -429 336 -433 330 -438L283 -476L255 -439L44 -411L95 -375C116 -383 139 -388 250 -406L207 -294C252 -245 256 -186 216 -102C141 -113 82 -111 49 -102L84 -61C130 -76 214 -77 397 -25C490 1 640 46 776 88Z"/>
</svg>