<svg xmlns="http://www.w3.org/2000/svg" viewBox="0 -1000 1000 1000">
	<path fill="#000000" d="M287 -645L165 -754L154 -743L255 -583C261 -573 267 -572 272 -583C279 -596 286 -625 287 -645ZM968 29V13C788 27 762 23 549 -38C516 -48 479 -58 443 -66C445 -81 446 -106 446 -165V-529L587 -544C593 -524 595 -498 592 -455L453 -443L483 -410C491 -414 527 -419 590 -426L584 -341L552 -337L523 -382L513 -377C519 -355 525 -317 525 -292L526 -239C526 -219 518 -202 512 -195L542 -136C548 -126 553 -126 556 -137C558 -145 559 -168 559 -195L702 -210C714 -211 715 -216 707 -225L690 -245L697 -299C698 -308 707 -327 716 -336C724 -344 723 -348 716 -353L684 -378L663 -349L615 -344L623 -430L759 -447C773 -449 774 -455 762 -464L734 -485C716 -477 674 -466 626 -459C631 -484 635 -494 640 -502C645 -511 645 -515 639 -520L611 -546L785 -565V-191C785 -129 782 -111 778 -101L687 -173L675 -161C723 -106 749 -75 789 -23C793 -18 799 -18 803 -23C815 -41 821 -72 821 -157V-533C821 -547 829 -566 842 -577C848 -583 848 -588 842 -594L797 -636L768 -593L670 -583C691 -631 701 -648 711 -656C719 -662 719 -668 715 -674L694 -702L886 -721C898 -722 899 -728 889 -737L855 -769C834 -757 762 -742 640 -730C647 -746 653 -770 654 -788L561 -861L550 -853L620 -729L328 -700L378 -663C392 -668 440 -676 504 -684L544 -583C548 -573 553 -573 559 -581C565 -589 571 -605 575 -626L525 -686L666 -700C667 -668 659 -632 640 -580L443 -559L411 -624L398 -617C405 -586 410 -540 410 -506V-228C410 -179 404 -153 390 -136L422 -70C364 -82 308 -93 258 -98C317 -227 316 -247 244 -317C294 -406 311 -428 335 -442C344 -447 345 -452 337 -459L294 -496L262 -456L52 -429L98 -394C120 -402 153 -410 261 -426L214 -315C272 -249 274 -207 233 -100C174 -106 107 -105 59 -97L98 -60C162 -82 280 -75 445 -31C631 19 704 48 759 82ZM665 -321L656 -236L557 -224L556 -309Z"/>
</svg>