<svg xmlns="http://www.w3.org/2000/svg" viewBox="0 -1000 1000 1000">
	<path fill="#000000" d="M816 -800L776 -833L751 -795L441 -763L411 -829L395 -822C401 -800 411 -747 412 -723L415 -658C416 -640 411 -619 403 -606L431 -560C440 -544 447 -544 450 -561C451 -568 452 -576 451 -590L791 -625C802 -626 805 -631 795 -641L772 -665L786 -723C792 -750 797 -761 815 -777C824 -785 825 -792 816 -800ZM293 -635L171 -735L158 -723L259 -579C271 -563 276 -562 282 -577C288 -592 292 -615 293 -635ZM883 -556L843 -586C814 -571 709 -547 335 -520L380 -482C425 -494 468 -500 878 -539C896 -540 898 -545 883 -556ZM813 -75C814 -93 811 -115 803 -138L699 -212C736 -243 758 -257 779 -264C796 -270 797 -274 792 -286L776 -329H764C754 -302 736 -279 677 -226L581 -294C590 -305 598 -313 607 -324L756 -340C770 -342 771 -347 762 -356L742 -376L750 -416C753 -429 758 -441 769 -450C779 -459 779 -467 772 -473L739 -502L713 -469L455 -442L433 -474L421 -469C427 -449 428 -440 430 -407L434 -348C435 -333 432 -318 426 -307L448 -271C458 -255 463 -256 467 -274C469 -282 469 -291 469 -309L549 -318C499 -250 435 -192 306 -112L313 -99C372 -127 435 -166 498 -218C499 -209 499 -198 499 -190V-140C499 -117 493 -107 459 -83L497 -63C507 -58 512 -58 519 -67C534 -86 558 -111 649 -181L642 -195L532 -128V-179C532 -189 534 -204 538 -214C541 -223 539 -228 535 -233L526 -243C539 -256 552 -267 565 -280C645 -218 715 -155 793 -74C808 -57 812 -59 813 -75ZM961 37L959 25C787 37 771 36 363 -65C327 -74 291 -81 257 -85C325 -208 320 -236 255 -307C301 -402 313 -425 334 -442C348 -454 347 -461 339 -468L303 -499L276 -466L54 -434L105 -398C139 -409 161 -414 269 -433L227 -304C276 -228 282 -186 228 -88C164 -93 107 -90 56 -75L107 -36C173 -64 216 -72 392 -27C523 7 635 41 794 98ZM754 -762L737 -655L663 -646L666 -752ZM631 -749L628 -643L556 -635L555 -742ZM522 -631L450 -623L446 -732L518 -739ZM716 -438L706 -367L467 -338L462 -412Z"/>
</svg>