<svg xmlns="http://www.w3.org/2000/svg" viewBox="0 -1000 1000 1000">
	<path fill="#000000" d="M867 -28L818 -65C765 -44 615 -31 221 -15V-675L826 -723C843 -724 843 -728 830 -739L788 -774C709 -750 643 -743 227 -714L185 -800L171 -794C176 -767 181 -714 181 -677V-116C181 -33 174 -14 148 6L185 44C191 50 195 49 200 43C211 30 222 25 266 22L864 -13C879 -14 880 -18 867 -28ZM780 -585C791 -591 791 -596 779 -606L735 -644L707 -608L361 -563L327 -623L311 -616C324 -579 327 -556 332 -489L340 -370C344 -318 342 -301 327 -280L366 -211C372 -202 378 -203 381 -214C385 -230 385 -240 384 -269L506 -284C506 -147 504 -137 487 -116L523 -46C529 -35 536 -35 539 -48C544 -70 546 -110 546 -288L735 -311C752 -313 752 -317 740 -328L719 -346L749 -521C756 -560 762 -575 780 -585ZM711 -574L680 -344C656 -339 617 -333 546 -324V-425L663 -442C678 -444 679 -449 666 -460L638 -483C619 -476 600 -471 546 -460V-551ZM506 -319L382 -303L367 -528L506 -546V-453L379 -433L415 -401C438 -408 471 -415 506 -420Z"/>
</svg>