<svg xmlns="http://www.w3.org/2000/svg" viewBox="0 -1000 1000 1000">
	<path fill="#000000" d="M891 -769L846 -807C785 -784 590 -766 99 -739L159 -693C190 -703 266 -713 401 -721C405 -677 406 -630 404 -576L262 -563L234 -643L212 -638C220 -604 224 -554 224 -524L230 -194C232 -83 225 -45 210 -25L253 53C260 66 264 67 269 55C276 38 277 27 277 -24L698 -57L733 19C738 29 743 30 748 17C759 -12 765 -72 768 -163L781 -525C782 -556 788 -570 811 -592C818 -598 817 -602 810 -608L760 -647L731 -605L574 -590V-733L888 -754C899 -755 901 -760 891 -769ZM534 -587L443 -579C446 -620 449 -680 449 -724L534 -730ZM738 -569L725 -204C724 -154 717 -101 705 -76L668 -105C630 -90 535 -78 276 -62L264 -524L402 -537C392 -423 354 -342 285 -264L299 -252C396 -335 430 -409 441 -540L534 -549V-440C534 -346 568 -332 713 -355C724 -356 725 -360 717 -368L687 -397C597 -367 574 -381 574 -444V-552ZM658 -232L623 -263C597 -246 497 -233 326 -221L374 -182C418 -191 491 -201 654 -218C666 -219 668 -223 658 -232Z"/>
</svg>