<svg xmlns="http://www.w3.org/2000/svg" viewBox="0 -1000 1000 1000">
	<path fill="#000000" d="M431 -630L398 -686L387 -682C387 -647 380 -600 328 -496L344 -487C381 -547 405 -583 427 -609C434 -618 435 -622 431 -630ZM231 -553L174 -651L160 -643L195 -487C199 -471 204 -471 212 -484C220 -498 228 -522 231 -553ZM936 -390L892 -421C864 -405 788 -385 674 -374V-445L822 -462C833 -463 833 -469 825 -476L792 -502C771 -491 721 -481 674 -475C674 -500 675 -505 684 -517C689 -524 688 -529 681 -536L655 -561L837 -580C853 -582 854 -585 842 -597L824 -616L847 -703C850 -714 858 -727 874 -741C885 -750 884 -754 877 -761L834 -801L805 -765L508 -733L480 -794L467 -789C474 -769 480 -721 480 -691V-624C480 -587 475 -575 465 -564L491 -516C500 -500 506 -501 510 -516C511 -522 513 -535 513 -546L629 -559C635 -540 638 -520 638 -471L486 -457L532 -423C552 -429 589 -436 638 -441V-372L420 -351L457 -317C477 -323 503 -326 542 -331L582 -224L448 -214L494 -178C511 -183 558 -190 632 -196V-124L397 -107L447 -68C470 -75 546 -85 632 -91C632 -7 628 16 612 44L646 100C654 114 659 113 663 97C668 80 670 61 670 -55V-93L905 -113C925 -114 925 -119 912 -128L867 -159C846 -146 799 -136 670 -126V-200L846 -216C863 -217 863 -222 852 -230L812 -259C796 -248 761 -240 716 -234C738 -270 758 -298 772 -312C780 -319 781 -323 776 -331L759 -354L932 -373C950 -374 950 -379 936 -390ZM461 -463L418 -493C396 -480 356 -469 307 -462V-697C374 -716 404 -724 429 -728C445 -730 447 -737 436 -747L396 -788L386 -786C375 -753 339 -737 106 -674L108 -658C154 -666 217 -678 268 -689V-459L53 -435L100 -397C126 -407 149 -411 260 -424C210 -317 151 -223 40 -109L52 -98C145 -176 215 -255 268 -354V-101C268 -30 263 3 250 30L284 89C294 106 300 106 303 88C306 69 307 45 307 -39V-372L393 -254C403 -240 408 -240 412 -252C417 -270 418 -295 416 -317L307 -396V-429L458 -447C471 -449 473 -455 461 -463ZM810 -729L788 -609L718 -601L729 -721ZM689 -718L682 -598L621 -591V-712ZM586 -588L514 -580V-701L586 -708ZM732 -351C725 -326 715 -298 685 -232L597 -225C604 -242 611 -266 613 -280L566 -333Z"/>
</svg>