<svg xmlns="http://www.w3.org/2000/svg" viewBox="0 -1000 1000 1000">
	<path fill="#000000" d="M909 3L866 -32C844 -21 738 -7 569 5V-54L780 -69C792 -70 793 -73 784 -81L740 -117C723 -105 690 -94 569 -84V-142L748 -162C755 -163 757 -166 749 -173L723 -196C739 -299 746 -320 757 -327C768 -333 767 -341 761 -345L719 -376L698 -341L385 -306L364 -347L350 -342C356 -318 359 -287 361 -263L364 -216C367 -174 364 -156 351 -134L384 -83C390 -74 394 -74 398 -89C400 -95 401 -109 400 -125L534 -139V-81L328 -64L374 -28C397 -35 475 -47 534 -52V7L214 28L265 68C304 56 559 33 906 15C917 14 918 10 909 3ZM739 -650C731 -615 713 -585 684 -552C653 -583 643 -597 633 -615H607C610 -621 614 -627 617 -634ZM702 -313L689 -187L569 -174V-220L673 -230C682 -231 683 -235 676 -242L654 -265C639 -258 622 -253 569 -246V-297ZM534 -170L400 -156L395 -277L534 -293V-242L413 -229L445 -199C461 -206 487 -212 534 -217ZM493 -397C459 -393 421 -390 377 -385C380 -399 381 -422 381 -474V-543L483 -459C491 -453 494 -455 494 -465C495 -481 493 -496 487 -520L381 -566V-584L568 -606C554 -576 536 -543 514 -511L529 -500C555 -535 577 -565 596 -595C617 -581 639 -561 667 -532C624 -492 573 -459 484 -411ZM501 -398C590 -436 646 -471 689 -510L817 -376L950 -392V-410C841 -417 814 -431 709 -528C754 -580 766 -591 775 -595C781 -597 783 -602 780 -609L763 -652L884 -669C896 -670 897 -675 887 -681L841 -710C820 -695 786 -686 633 -667C653 -728 660 -746 684 -771C690 -778 690 -782 685 -789L639 -845L628 -837C636 -791 618 -710 572 -615L528 -647C505 -632 453 -620 381 -610V-682L516 -700C526 -701 528 -706 519 -712L480 -739C459 -727 428 -718 381 -711C381 -740 388 -768 395 -784C397 -789 395 -794 391 -798L345 -847L333 -839C344 -810 346 -782 346 -708L174 -690L217 -655C234 -662 272 -669 346 -678V-607L107 -583L157 -546C185 -555 240 -566 305 -575C244 -489 157 -409 55 -342L68 -328C179 -393 274 -475 346 -564C346 -484 339 -458 327 -441L359 -383L285 -376L258 -441L243 -437C253 -189 199 -49 62 85L75 98C225 -33 270 -146 284 -345L761 -393C772 -394 773 -400 763 -406L719 -432C701 -422 656 -414 501 -398Z"/>
</svg>