<svg xmlns="http://www.w3.org/2000/svg" viewBox="0 -1000 1000 1000">
	<path fill="#000000" d="M950 -354V-370C847 -384 801 -395 649 -564L510 -719C518 -731 528 -740 534 -743C541 -747 542 -752 536 -760L486 -833L472 -826C476 -779 458 -730 419 -670C301 -488 206 -390 48 -268L58 -252C141 -305 226 -371 288 -435L331 -406C362 -414 396 -420 472 -430V-295L237 -274L293 -231C344 -244 404 -254 472 -260V1L123 23L177 67C267 49 344 42 860 16C868 16 871 10 862 3L810 -40C763 -25 686 -12 592 -5C668 -117 688 -146 706 -158C713 -163 714 -168 711 -174L674 -242L659 -238C657 -188 640 -142 559 -4L514 -1V-264L727 -283C740 -284 740 -288 728 -297L686 -329C665 -319 608 -308 514 -298V-435L652 -453C662 -454 663 -461 655 -467L610 -500C582 -482 480 -462 298 -446C368 -521 401 -562 468 -657C481 -674 489 -686 495 -695L792 -334ZM400 -89L308 -209L294 -199L362 -23C365 -14 371 -13 376 -22C388 -43 397 -69 400 -89Z"/>
</svg>