<svg xmlns="http://www.w3.org/2000/svg" viewBox="0 -1000 1000 1000">
	<path fill="#000000" d="M486 -110L483 -127L304 -85V-348L449 -367C463 -368 464 -374 452 -382L414 -408C403 -399 370 -389 304 -380V-484L406 -500C423 -503 424 -507 412 -517L381 -542C348 -524 299 -513 182 -496C209 -536 253 -609 301 -696L436 -570C447 -559 451 -561 452 -575C453 -585 451 -609 448 -633L311 -715C318 -728 332 -747 342 -758C352 -769 353 -774 347 -784L303 -850L289 -844C301 -737 176 -512 33 -349L44 -338C92 -386 133 -427 172 -481L199 -462C220 -469 242 -474 267 -478V-376L91 -353L135 -319C148 -325 223 -339 267 -344V-77L60 -26L123 12C143 -2 171 -13 486 -110ZM920 -716L880 -755L848 -711L547 -674L512 -774L496 -768C502 -737 510 -666 510 -628V-367C510 -316 507 -292 494 -274L527 -212C537 -193 543 -193 546 -211C548 -221 548 -238 548 -266L668 -281V-94C668 -23 666 2 647 28L685 103C692 117 698 118 702 101C706 82 707 63 707 -48V-284L810 -297L835 -249C844 -232 850 -232 856 -247C860 -260 864 -292 871 -367L895 -628C899 -667 902 -676 919 -692C929 -701 927 -709 920 -716ZM440 -282L404 -336L391 -330C398 -298 381 -236 327 -117L342 -108C402 -222 420 -248 436 -260C444 -267 445 -274 440 -282ZM231 -185L156 -284L144 -276L194 -121C198 -107 203 -106 211 -120C218 -131 226 -157 231 -185ZM858 -679L844 -498L804 -529C793 -521 758 -511 707 -501V-661ZM668 -497L548 -481V-642L668 -656ZM844 -486L838 -408C833 -337 829 -318 818 -310L780 -342C768 -335 740 -327 707 -321V-470ZM668 -316L548 -300V-470L582 -446C592 -450 632 -460 668 -466Z"/>
</svg>