<svg xmlns="http://www.w3.org/2000/svg" viewBox="0 -1000 1000 1000">
	<path fill="#000000" d="M952 -494V-511C864 -518 837 -541 762 -644L702 -728C678 -760 659 -794 658 -812L597 -816L593 -805C617 -786 625 -777 700 -668L827 -485ZM444 -579C445 -594 444 -608 440 -631L298 -714C315 -746 326 -763 334 -770C343 -778 344 -785 339 -792L299 -851L286 -846C289 -750 166 -537 43 -396L55 -385C94 -424 140 -475 167 -512L197 -491C221 -498 239 -502 256 -506V-396L116 -376L162 -343C189 -353 213 -359 256 -366V-88L65 -32L125 3C157 -15 177 -24 440 -121L437 -138L294 -98V-372L416 -390C429 -392 430 -397 420 -405L388 -430C374 -421 351 -414 294 -402V-512L399 -531C411 -533 411 -538 403 -545L371 -570C331 -551 302 -543 178 -524C219 -579 256 -635 286 -690C356 -636 397 -603 425 -576C437 -563 443 -565 444 -579ZM934 28C908 -43 903 -75 896 -159H875L871 10C850 21 802 26 760 22C693 16 684 3 684 -59V-211C684 -234 686 -256 695 -268C700 -275 700 -279 695 -283L667 -311L764 -324C775 -325 778 -332 766 -340L731 -363L754 -487C759 -512 764 -523 775 -533C783 -540 783 -543 778 -548L735 -589L712 -558L528 -534L507 -572C522 -593 535 -610 555 -641C575 -674 580 -680 596 -692C607 -700 607 -705 601 -714L558 -775L545 -770C545 -702 507 -611 363 -441L375 -427C419 -469 457 -509 491 -551C494 -532 497 -506 498 -482L503 -376C504 -347 503 -336 492 -315L529 -257C534 -249 540 -250 542 -261C544 -271 544 -280 543 -295L567 -299C538 -131 478 -27 339 82L350 98C486 1 548 -73 591 -208C601 -240 606 -250 615 -261C619 -266 618 -269 616 -273L600 -303L637 -308C643 -288 645 -268 645 -243V-48C645 28 662 54 753 61C809 65 878 60 929 43C937 40 937 36 934 28ZM415 -307L376 -350L364 -343C372 -310 363 -257 328 -161L344 -155C389 -248 401 -269 414 -285C420 -293 421 -300 415 -307ZM226 -185L154 -304L138 -298L189 -133C193 -121 198 -121 204 -130C213 -144 219 -160 226 -185ZM713 -524L691 -349L542 -330L534 -498Z"/>
</svg>