<svg xmlns="http://www.w3.org/2000/svg" viewBox="0 -1000 1000 1000">
	<path fill="#000000" d="M469 -120L465 -136L301 -95V-362L419 -380C434 -382 435 -387 422 -396L391 -420C380 -412 353 -402 301 -393V-504L398 -519C412 -521 413 -527 400 -536L367 -559C346 -547 313 -539 180 -519C224 -577 261 -637 291 -695L420 -563C430 -553 434 -553 437 -567C440 -580 440 -596 439 -623L302 -716C320 -753 326 -764 335 -769C346 -776 347 -780 340 -790L299 -856L287 -849C292 -751 160 -514 32 -376L45 -364C88 -408 132 -456 167 -503L192 -485C210 -491 225 -494 264 -499V-387L108 -364L160 -333C181 -339 224 -349 264 -357V-85L58 -32L129 3C157 -19 198 -36 469 -120ZM945 -402L909 -430C892 -418 870 -410 819 -402L827 -485C828 -498 835 -510 849 -522C858 -530 858 -535 849 -543L809 -576L779 -532L658 -516C720 -615 749 -648 766 -660C778 -667 778 -671 770 -680L735 -719L705 -687L598 -671C635 -749 641 -758 657 -770C665 -776 666 -782 661 -791L622 -854L608 -849C607 -767 567 -662 426 -463L438 -454C484 -501 535 -567 576 -633L702 -653L624 -511L474 -488L518 -453C532 -460 573 -470 636 -480V-383L408 -360L458 -322C474 -328 529 -338 636 -349V-239L461 -217L513 -179C535 -187 587 -198 636 -205V-40C636 -12 633 4 626 19L504 -55L495 -41C529 -13 588 52 620 92C631 105 637 105 644 92C661 60 673 17 673 -24V-209L828 -227C846 -228 848 -232 831 -245L806 -266L816 -369L942 -383C960 -385 960 -390 945 -402ZM429 -292L387 -341L377 -335C381 -302 366 -236 323 -132L338 -124C390 -228 410 -259 426 -273C434 -280 434 -285 429 -292ZM223 -183L145 -290L135 -282L189 -126C193 -116 197 -115 204 -126C212 -139 218 -159 223 -183ZM789 -501L781 -398L673 -387V-485ZM777 -365L769 -258L673 -244V-354Z"/>
</svg>