<svg xmlns="http://www.w3.org/2000/svg" viewBox="0 -1000 1000 1000">
	<path fill="#000000" d="M941 -629L891 -664C876 -651 819 -633 771 -625C793 -729 799 -749 815 -770C820 -777 821 -781 816 -787L762 -854L748 -844C758 -809 757 -745 734 -621L610 -605L608 -681C607 -712 611 -735 620 -751C624 -759 622 -763 618 -767L558 -825L547 -812C559 -790 568 -753 571 -688L576 -601L448 -585L478 -553C487 -556 513 -561 577 -569C578 -538 574 -503 567 -492L600 -436C607 -425 613 -426 614 -439C615 -453 614 -501 611 -573L727 -587C718 -543 703 -490 687 -448L706 -440C725 -478 746 -532 762 -591L938 -613C952 -615 954 -620 941 -629ZM465 -116L461 -132L309 -94V-372L445 -392C457 -394 458 -401 448 -408L413 -431C401 -423 354 -410 309 -401V-513L410 -529C424 -531 426 -537 414 -546L385 -570C353 -553 316 -541 195 -525C226 -571 260 -634 302 -718L426 -579C433 -571 437 -572 440 -581C444 -594 444 -616 440 -647L311 -735C323 -760 330 -772 338 -777C345 -782 346 -787 343 -793L301 -865L287 -860C295 -751 190 -546 55 -385L69 -374C115 -420 142 -450 183 -508L208 -489C236 -497 252 -502 272 -507V-395L124 -374L171 -340C192 -348 233 -360 272 -367V-83L82 -34L144 2C179 -16 199 -25 465 -116ZM433 -292L395 -355L384 -351C384 -290 366 -218 332 -146L345 -138C403 -248 417 -267 429 -276C435 -280 436 -287 433 -292ZM242 -184L174 -295L161 -288L203 -136C206 -123 210 -123 217 -133C226 -144 234 -160 242 -184ZM892 -411L843 -449L813 -411L526 -373L499 -452L482 -447C488 -414 493 -366 493 -338L498 -66C499 -35 493 -7 481 15L522 88C527 97 534 97 537 85C538 76 538 57 538 9L779 -15L804 40C810 51 815 50 819 40C825 27 833 -8 837 -56L863 -339C866 -366 870 -379 891 -393C900 -399 900 -404 892 -411ZM825 -376L804 -112C801 -80 793 -51 781 -35L756 -53C738 -46 721 -42 685 -38V-201L779 -213C794 -215 795 -218 783 -228L752 -251C741 -244 720 -237 685 -230V-359ZM646 -35L537 -25L531 -340L646 -355V-225L540 -209L582 -179C591 -183 618 -190 646 -195Z"/>
</svg>