<svg xmlns="http://www.w3.org/2000/svg" viewBox="0 -1000 1000 1000">
	<path fill="#000000" d="M466 -118L461 -134L315 -89V-377L442 -399C454 -401 455 -407 446 -415L414 -441C404 -435 354 -420 315 -410V-515L418 -532C431 -534 432 -539 422 -546L391 -571C352 -554 314 -545 190 -524C231 -578 270 -638 306 -701C353 -664 387 -632 427 -588C433 -581 437 -582 440 -593C443 -606 443 -625 441 -649L316 -720C336 -756 342 -765 354 -774C361 -780 361 -784 357 -791L313 -854L299 -848C310 -742 183 -543 50 -391L62 -380C103 -421 145 -465 180 -512L212 -491C230 -496 257 -503 280 -508V-402L133 -376L187 -346C203 -353 246 -365 280 -371V-78L92 -18L152 14C165 -3 180 -11 466 -118ZM949 -414L905 -446C885 -435 840 -421 794 -414C804 -472 811 -500 820 -511C825 -518 824 -523 820 -530L789 -573L900 -586C912 -587 914 -591 904 -600L863 -632C849 -620 803 -606 673 -590V-711C767 -741 798 -750 816 -752C826 -753 828 -760 821 -767L774 -819L766 -815C761 -792 712 -753 474 -677L477 -662C519 -670 564 -681 637 -700V-586L434 -562L488 -529C503 -534 567 -546 637 -555V-394L561 -385C559 -435 559 -454 565 -465C569 -472 568 -477 562 -482L515 -521L508 -514C516 -491 521 -468 528 -382L417 -370L465 -333C487 -341 503 -346 530 -350L533 -289C534 -267 531 -253 522 -241L554 -185L440 -172L487 -137C509 -144 563 -155 637 -164V-16L455 2L505 40C535 30 625 15 870 -6C884 -7 884 -12 875 -19L834 -52C809 -38 770 -29 673 -20V-167L901 -192C915 -193 917 -198 905 -209L869 -239C844 -225 816 -217 752 -209L673 -198V-367L756 -377L737 -217L763 -220L790 -380L945 -398C959 -399 960 -406 949 -414ZM427 -300L387 -342L377 -337C382 -308 372 -246 338 -147L353 -140C397 -246 411 -273 426 -284C434 -289 434 -294 427 -300ZM254 -175L180 -300L166 -293L215 -128C218 -117 223 -115 231 -126C238 -136 244 -151 254 -175ZM764 -571C769 -532 767 -473 760 -410L673 -398V-560ZM637 -194L568 -186C571 -204 572 -223 569 -261L563 -354L637 -363Z"/>
</svg>