<svg xmlns="http://www.w3.org/2000/svg" viewBox="0 -1000 1000 1000">
	<path fill="#000000" d="M701 -770L598 -851L588 -845L664 -714C671 -701 680 -700 684 -709C695 -734 697 -741 701 -770ZM625 -565L555 -628L541 -622L596 -517C604 -502 612 -502 615 -515C619 -532 621 -539 625 -565ZM446 -130L440 -146L295 -99V-347L423 -371C442 -374 442 -380 429 -389L397 -412C384 -403 341 -390 295 -380V-482L380 -499C399 -503 399 -510 385 -519L355 -537C334 -527 277 -512 181 -495C222 -558 254 -616 278 -670C337 -631 370 -607 413 -574C421 -568 430 -571 428 -580C422 -605 420 -613 406 -648L287 -690C311 -744 318 -758 326 -763C335 -769 338 -776 331 -785L284 -846L272 -839C285 -745 151 -478 43 -343L57 -332C82 -358 125 -412 164 -470L185 -455C198 -460 226 -468 257 -475V-374L92 -344L138 -311C156 -318 197 -328 257 -341V-87L75 -26L143 7C171 -16 230 -46 446 -130ZM934 -710L891 -738C863 -723 744 -699 398 -670L456 -630C477 -637 531 -646 725 -670C732 -629 716 -581 681 -511L494 -488L461 -566L446 -560C454 -520 457 -476 457 -394V-127C457 -43 453 -23 439 -1L476 71C482 83 490 83 492 68C495 42 495 29 495 -74V-459L632 -475C639 -456 641 -433 638 -380L507 -364L552 -332C567 -337 588 -341 637 -350L634 -272L592 -265L571 -303L557 -297C563 -272 567 -243 568 -223L570 -183C571 -164 568 -156 559 -142L588 -92C596 -79 601 -80 605 -96C607 -105 607 -116 606 -130L758 -146C772 -147 772 -153 762 -163L744 -181L752 -225C756 -245 762 -258 772 -264C782 -270 782 -275 772 -283L733 -314L712 -283L669 -276L674 -355L793 -369C806 -371 807 -379 797 -385L764 -406C739 -396 716 -390 675 -384C677 -413 680 -424 687 -433C692 -439 692 -441 684 -449L656 -477L825 -497L822 -170C821 -40 820 -12 817 -1L723 -69L713 -56C763 -2 780 17 832 85C840 94 845 94 851 85C860 71 862 54 863 -130L865 -462C865 -495 870 -504 882 -511C888 -514 889 -519 882 -526L843 -562L813 -527L714 -514C747 -578 769 -609 778 -612C791 -617 792 -621 786 -628L749 -672L930 -694C947 -695 947 -702 934 -710ZM413 -276L375 -327L362 -322C364 -287 357 -246 324 -148L340 -142C382 -228 393 -244 408 -256C417 -263 417 -270 413 -276ZM217 -187L148 -275L135 -268L181 -127C186 -111 194 -111 200 -126C208 -147 212 -162 217 -187ZM717 -253L711 -174L605 -161L601 -237Z"/>
</svg>