<svg xmlns="http://www.w3.org/2000/svg" viewBox="0 -1000 1000 1000">
	<path fill="#000000" d="M539 -728L452 -817L441 -808L505 -665C511 -652 516 -650 524 -665C533 -680 538 -699 539 -728ZM891 -659L856 -684C825 -668 789 -658 678 -644C692 -670 705 -698 716 -728C721 -741 726 -752 737 -763C745 -771 745 -778 740 -785L697 -842L683 -837C688 -767 658 -654 585 -505L600 -498C628 -543 644 -573 665 -617L676 -606C722 -620 757 -626 885 -640C904 -642 905 -649 891 -659ZM382 -159L378 -178L270 -147V-370L379 -384C397 -387 398 -390 382 -401L352 -421C338 -413 316 -406 270 -398V-501L346 -513C366 -516 366 -520 350 -532L324 -549C296 -538 253 -528 169 -515C198 -560 228 -616 259 -687L366 -604C378 -596 383 -597 382 -611C381 -629 379 -639 369 -666L269 -708C287 -744 298 -765 308 -774C315 -780 315 -787 310 -795L265 -855L251 -849C270 -775 153 -511 37 -372L49 -362C92 -405 127 -446 159 -496L176 -484C190 -487 211 -492 234 -496V-394L82 -376L124 -342C147 -349 192 -359 234 -366V-136L50 -82L108 -46C141 -66 168 -78 382 -159ZM614 -613L588 -634C561 -620 524 -608 340 -590L379 -557C395 -562 411 -565 438 -570C440 -527 438 -461 431 -392C417 -252 396 -110 271 50L284 62C397 -63 449 -177 469 -409L537 -422C530 -268 513 -126 495 -58L419 -109L409 -96C441 -62 469 -27 494 12C502 23 506 23 512 11C543 -52 565 -240 573 -400C574 -420 578 -430 587 -439C596 -447 596 -451 588 -458L551 -489L529 -452L471 -441C478 -496 481 -514 485 -522C489 -530 489 -533 483 -542L461 -573L610 -593C626 -594 628 -600 614 -613ZM379 -318L347 -357L336 -350C338 -321 330 -282 296 -200L310 -193C357 -275 364 -284 377 -294C387 -301 387 -309 379 -318ZM942 60V40C851 30 825 17 780 -141L746 -262L900 -279C919 -280 919 -288 903 -299L870 -320C847 -310 810 -302 737 -294C742 -341 751 -381 758 -391C763 -401 761 -407 755 -413L737 -431L864 -449C880 -451 881 -459 867 -470L837 -492C816 -480 780 -469 685 -452C695 -477 701 -487 708 -495C717 -503 717 -510 712 -519L677 -572L664 -566C669 -521 653 -438 596 -310L609 -300C631 -331 653 -369 673 -421L705 -426C709 -390 708 -342 702 -290L570 -273L613 -237C635 -246 648 -249 698 -257C672 -105 637 -31 516 72L528 86C647 0 704 -88 726 -214L801 60ZM197 -226L139 -315L126 -308L162 -174C166 -161 173 -159 181 -173C187 -185 191 -198 197 -226Z"/>
</svg>