<svg xmlns="http://www.w3.org/2000/svg" viewBox="0 -1000 1000 1000">
	<path fill="#000000" d="M904 -773L869 -801C826 -784 708 -765 403 -742L455 -701C472 -708 518 -716 585 -723L586 -613L508 -602L479 -660L464 -652C471 -635 477 -598 478 -568L482 -468C483 -451 478 -442 471 -433L496 -381C502 -368 511 -368 514 -382C517 -398 517 -405 517 -418L848 -448C863 -449 865 -456 854 -467L833 -486L846 -573C849 -596 855 -607 870 -614C880 -620 880 -626 871 -634L829 -674L803 -639L730 -630L737 -738L900 -754C919 -756 921 -760 904 -773ZM466 -137L464 -155L298 -114V-370L441 -388C454 -389 457 -395 444 -406L411 -433C398 -424 362 -414 298 -404V-511L401 -524C414 -525 415 -534 405 -543L376 -567C351 -554 309 -545 196 -529C228 -580 257 -634 284 -695C344 -655 367 -638 412 -599C423 -589 429 -590 429 -605C429 -620 426 -640 418 -664L293 -716C313 -764 318 -774 326 -780C332 -785 335 -793 331 -799L286 -862L272 -855C285 -761 176 -519 40 -360L52 -349C101 -396 143 -448 182 -507L209 -490C229 -498 246 -503 261 -506V-399L103 -380L151 -345C175 -353 214 -361 261 -366V-105L74 -57L139 -19C182 -46 223 -61 466 -137ZM817 -360L782 -385C755 -370 703 -361 503 -345L553 -307C585 -317 630 -325 813 -341C827 -342 830 -350 817 -360ZM418 -306L378 -359L366 -353C372 -323 363 -271 323 -173L336 -165C381 -253 400 -275 413 -285C423 -293 423 -298 418 -306ZM223 -217L150 -315L139 -308L182 -168C187 -155 197 -153 203 -167C211 -185 214 -192 223 -217ZM911 -267L872 -294C840 -277 731 -262 415 -238L466 -197C489 -205 569 -217 637 -224C640 -206 642 -179 642 -133V-15C642 -2 639 14 636 26L547 -32L537 -17C594 45 618 73 639 102C647 114 654 114 660 101C674 73 680 45 680 5V-133C680 -154 684 -168 690 -178C694 -186 693 -192 687 -197L661 -225L907 -247C922 -248 924 -258 911 -267ZM888 -69L737 -184L726 -169C800 -90 834 -51 867 -1C876 13 884 12 886 -1C890 -28 890 -43 888 -69ZM580 -128L555 -185L540 -180C537 -134 478 -73 362 25L371 38C434 -1 488 -41 530 -81C548 -98 558 -105 574 -110C583 -113 584 -118 580 -128ZM700 -735L695 -626L620 -617L619 -726ZM810 -604L800 -479L722 -471L728 -594ZM693 -591L688 -468L621 -460L620 -582ZM587 -456L516 -449L512 -570L586 -579Z"/>
</svg>