<svg xmlns="http://www.w3.org/2000/svg" viewBox="0 -1000 1000 1000">
	<path fill="#000000" d="M464 -744C475 -753 476 -758 464 -766L417 -797L390 -756L222 -740L180 -808L164 -801C175 -757 179 -726 179 -671V-179C179 -95 171 -52 158 -22L199 63C206 76 210 76 214 64C218 49 220 32 220 -85V-449L446 -470C459 -471 459 -476 450 -485L421 -514L436 -685C439 -716 441 -725 464 -744ZM845 -761C854 -766 854 -771 844 -779L798 -817L770 -777L590 -757L555 -817L537 -810C544 -790 552 -740 552 -714V-572C552 -531 544 -505 533 -488L566 -411C572 -395 580 -394 584 -411C588 -430 589 -440 590 -467L774 -484V-106C774 -42 771 -16 766 -4L646 -92L634 -75C710 -2 751 46 784 92C791 101 796 102 800 95C818 60 820 48 820 -93V-715C820 -736 824 -748 845 -761ZM704 -301L649 -339C627 -324 579 -308 274 -283L334 -238C419 -263 489 -275 702 -285C717 -286 719 -290 704 -301ZM774 -520L590 -501V-599L748 -615C763 -616 764 -620 750 -630L708 -658C689 -649 658 -641 590 -632V-724L774 -744ZM399 -723L381 -499L220 -484V-581L366 -594C382 -595 383 -599 370 -610L335 -640C309 -626 285 -620 220 -613V-706Z"/>
</svg>