<svg xmlns="http://www.w3.org/2000/svg" viewBox="0 -1000 1000 1000">
	<path fill="#000000" d="M459 -773L418 -807L393 -769L211 -743L183 -821L165 -817C172 -777 174 -748 174 -685V-143C174 -101 164 -50 150 -22L191 54C197 65 203 65 205 52C211 9 213 -28 213 -103V-504L443 -533C457 -534 458 -538 447 -549L426 -572L438 -716C439 -731 445 -743 456 -751C467 -760 466 -767 459 -773ZM852 -787L809 -822L783 -788L583 -761L559 -819L544 -815C548 -798 553 -739 553 -706V-606C553 -570 550 -551 540 -535L571 -476C577 -464 584 -465 587 -478C589 -486 591 -504 591 -530L792 -553L795 -143C796 -49 795 -27 791 -2L704 -83L690 -72C736 -12 764 31 799 92C804 101 810 101 815 92C832 62 837 18 836 -133L831 -704C831 -744 835 -755 851 -768C861 -776 861 -779 852 -787ZM700 -367L667 -393C642 -381 591 -367 514 -357C514 -407 516 -432 524 -446C531 -457 530 -462 521 -469L473 -511L461 -504C475 -464 478 -428 477 -352L279 -330L323 -296C348 -304 401 -314 458 -320C415 -251 342 -172 248 -98L257 -85C354 -152 417 -208 477 -281V-165C477 -124 471 -103 457 -76L493 -5C500 7 505 6 508 -6C512 -24 514 -50 514 -137V-286L666 -139C678 -126 683 -128 684 -143C685 -159 682 -182 675 -208L514 -308V-327L698 -348C714 -351 714 -355 700 -367ZM792 -588L591 -563V-632L758 -649C771 -650 772 -654 760 -665L733 -689C716 -679 686 -673 591 -661V-729L791 -754ZM398 -736L389 -565L213 -536V-609L355 -627C367 -628 369 -634 358 -642L330 -666C321 -659 289 -650 213 -640V-712Z"/>
</svg>