<svg xmlns="http://www.w3.org/2000/svg" viewBox="0 -1000 1000 1000">
	<path fill="#000000" d="M449 -732C459 -740 459 -744 449 -752L404 -784L380 -749L204 -727L177 -800L159 -796C168 -746 170 -716 170 -668V-114C170 -55 162 -19 144 5L185 79C191 89 195 89 199 78C204 63 207 22 207 -74V-482L432 -512C445 -513 447 -518 436 -528L415 -548L425 -690C427 -703 438 -724 449 -732ZM841 -773L798 -807L771 -777L582 -751L552 -809L537 -805C541 -789 546 -732 546 -700V-602C546 -567 543 -548 533 -533L564 -475C569 -466 576 -466 580 -476C582 -484 583 -495 584 -514L778 -536V-147C778 -56 773 -15 765 5L656 -80L644 -67C716 15 744 49 778 99C785 108 791 108 795 99C809 68 819 5 819 -138V-695C819 -732 822 -740 839 -752C849 -759 850 -766 841 -773ZM638 -430C646 -435 645 -440 636 -447L596 -475L574 -443L423 -421L392 -478L378 -473C389 -425 389 -349 382 -264C372 -142 346 -71 257 26L269 38C348 -40 386 -87 406 -179L560 -195C570 -196 571 -203 563 -210L536 -232C524 -226 465 -214 410 -210C414 -233 417 -258 420 -285L552 -299C562 -300 563 -306 555 -313L528 -336C515 -330 486 -324 422 -316C424 -340 427 -374 427 -391L584 -413V-122C584 -88 582 -65 578 -54L480 -111L472 -98C509 -68 553 -26 591 17C597 24 602 23 606 17C615 0 621 -37 621 -92V-392C621 -410 627 -424 638 -430ZM778 -570L584 -545V-614L750 -631C763 -632 765 -636 752 -647L722 -670C705 -660 677 -654 584 -643V-720L778 -743ZM388 -717L378 -541L207 -514V-585L355 -604C367 -605 369 -612 358 -620L330 -642C317 -634 295 -629 207 -617V-696Z"/>
</svg>