<svg xmlns="http://www.w3.org/2000/svg" viewBox="0 -1000 1000 1000">
	<path fill="#000000" d="M922 -215L872 -253C858 -244 775 -226 561 -213C561 -276 565 -295 573 -309C577 -316 576 -321 569 -327L542 -350L758 -367C773 -368 774 -374 762 -383L722 -415L751 -620C758 -671 762 -681 781 -694C789 -700 790 -705 779 -714L732 -752L704 -711L439 -684C469 -744 485 -770 501 -788C508 -795 508 -799 503 -806L459 -862L446 -856C453 -833 446 -782 403 -681L300 -670L260 -750L245 -744C256 -699 263 -647 264 -613L272 -413C273 -386 263 -355 253 -342L291 -285C301 -271 306 -272 307 -287C309 -300 309 -318 308 -334L406 -341C376 -289 336 -243 281 -196L64 -183L121 -137C139 -143 266 -163 522 -178V-37C522 -8 516 13 501 34L538 98C546 112 552 112 556 96C560 79 561 68 561 14V-180L917 -202C930 -203 931 -208 922 -215ZM709 -675L683 -402L467 -383C483 -420 496 -460 507 -510L658 -527C670 -528 671 -534 663 -540L623 -573C611 -563 568 -549 512 -542C519 -577 526 -615 533 -657ZM482 -653C480 -612 476 -572 469 -537L331 -523L369 -488C387 -494 417 -499 465 -506C456 -460 443 -418 426 -380L307 -369C306 -392 302 -582 300 -636ZM522 -211L318 -198C378 -250 417 -293 447 -344L515 -349C521 -329 522 -300 522 -211Z"/>
</svg>