<svg xmlns="http://www.w3.org/2000/svg" viewBox="0 -1000 1000 1000">
	<path fill="#000000" d="M974 -493C855 -501 831 -517 614 -774C621 -786 625 -790 636 -795C646 -800 647 -804 640 -813L596 -872L584 -868C586 -791 502 -630 332 -453C322 -491 302 -526 268 -555C327 -678 339 -698 362 -723C370 -732 370 -737 361 -745L316 -781L287 -737L185 -721L147 -804L132 -798C143 -760 147 -710 147 -615V-173C147 -67 142 -39 124 -7L165 64C170 72 177 72 181 64C186 53 187 44 187 -76V-688L293 -704L238 -550C323 -470 312 -383 275 -316L203 -379L192 -368C218 -338 248 -294 266 -256C272 -244 277 -244 286 -255C326 -298 346 -365 337 -429C356 -445 373 -461 390 -479C398 -444 401 -424 402 -385L404 -325C405 -289 403 -279 394 -260L421 -213C429 -201 435 -203 438 -217C441 -227 442 -237 441 -252L469 -256C466 -188 402 -50 295 64L305 75C376 18 423 -39 473 -138L550 -41C560 -28 565 -29 569 -44C572 -56 572 -71 571 -97L484 -158C501 -189 506 -196 512 -202C519 -209 520 -215 517 -219L492 -259L565 -269C575 -270 577 -277 568 -285L552 -300L563 -385C565 -402 568 -412 580 -424C588 -432 588 -437 580 -443L543 -473L521 -442L433 -431L410 -499C427 -515 437 -526 450 -541L489 -518C528 -532 564 -538 700 -553C713 -554 715 -563 705 -571L670 -596C639 -581 606 -572 460 -553C509 -609 554 -673 599 -749L834 -460L973 -475ZM870 28C873 13 872 -13 865 -47L699 -161C708 -185 718 -204 725 -212C733 -220 733 -225 728 -232L707 -268L790 -279C801 -280 803 -285 794 -294L771 -316L784 -406C786 -421 792 -434 802 -445C810 -454 809 -460 803 -465L766 -497L740 -465L641 -451L616 -507L602 -503C607 -487 609 -471 611 -408L613 -328C614 -306 611 -291 602 -274L630 -226C637 -215 642 -213 647 -227C649 -235 650 -246 650 -261L680 -265C678 -175 606 -31 481 72L490 85C588 26 664 -75 691 -139C757 -79 795 -40 852 33C861 43 867 43 870 28ZM748 -433L736 -306L649 -294L646 -419ZM528 -412L517 -296L440 -284L435 -399Z"/>
</svg>