<svg xmlns="http://www.w3.org/2000/svg" viewBox="0 -1000 1000 1000">
	<path fill="#000000" d="M607 -734L519 -827L504 -817L572 -674C576 -665 585 -664 590 -674C597 -688 602 -708 607 -734ZM871 -360L839 -384C805 -370 763 -362 576 -348V-419L796 -437C812 -438 812 -442 801 -452L769 -478C730 -467 681 -459 576 -450V-519L778 -536C801 -538 802 -541 786 -555L756 -581C728 -570 677 -559 576 -552V-625L852 -650C870 -652 873 -658 859 -668L820 -697C753 -673 637 -659 306 -640C322 -660 338 -682 353 -705C362 -721 375 -731 390 -736C400 -739 401 -744 396 -757L369 -827L350 -823C347 -779 252 -588 72 -430L80 -417C135 -457 190 -501 249 -568V-371C249 -333 245 -318 232 -305L263 -240C269 -228 276 -228 280 -242C285 -259 287 -272 288 -294L864 -339C886 -340 888 -346 871 -360ZM917 34V15C736 25 670 7 544 -73C587 -102 648 -153 686 -191C703 -208 718 -220 730 -225C743 -230 743 -235 734 -243L695 -281L661 -246L208 -207L240 -170C260 -177 280 -180 319 -184L480 -76C380 -14 265 27 121 56L122 74C277 57 393 16 513 -54L679 59ZM536 -346L288 -328V-616L290 -619L317 -596C335 -601 387 -608 536 -621V-549L317 -533L349 -497C377 -503 404 -507 536 -516V-447L322 -433L353 -393C384 -400 446 -409 536 -416ZM654 -216C612 -172 567 -133 509 -95L364 -189Z"/>
</svg>