<svg xmlns="http://www.w3.org/2000/svg" viewBox="0 -1000 1000 1000">
	<path fill="#000000" d="M758 -721L682 -835L668 -828L717 -658C720 -649 725 -649 731 -657C744 -674 753 -695 758 -721ZM938 -65L892 -104C878 -93 834 -81 725 -72V-237L869 -253C880 -254 881 -257 871 -266L833 -300C818 -289 769 -278 725 -272V-411L862 -424C872 -425 873 -428 863 -437L826 -471C811 -464 766 -453 725 -446V-578L880 -595C891 -596 893 -600 882 -610L849 -642C816 -625 774 -614 555 -593C570 -627 587 -665 597 -690C609 -720 619 -737 635 -756C641 -763 641 -769 636 -777L594 -851L580 -846C594 -794 517 -536 414 -406L430 -393C455 -419 487 -462 514 -511V-73C514 -37 507 -4 495 11L531 82C538 94 542 94 545 81C550 65 554 33 554 -35L570 -21C614 -29 708 -36 936 -51C948 -52 949 -55 938 -65ZM489 -728L451 -758C414 -743 353 -729 140 -716L192 -675C221 -683 279 -694 331 -699V-474L208 -456L220 -513C229 -554 235 -566 248 -582C254 -589 254 -593 249 -598L205 -644L194 -638C204 -584 180 -442 139 -429L165 -398C169 -393 174 -393 183 -401C199 -416 214 -422 242 -426L317 -437C257 -314 150 -177 45 -88L56 -72C133 -124 261 -252 331 -373V-167C331 -52 328 -29 323 -14L221 -80L212 -68C263 -14 295 24 334 75C342 85 347 85 352 76C367 47 372 22 372 -107V-444L437 -456C446 -457 447 -461 441 -471L423 -499C405 -490 391 -485 372 -481V-703L488 -715C498 -716 499 -720 489 -728ZM686 -442L554 -425V-566L575 -553C599 -561 635 -569 686 -574ZM686 -268L554 -252V-423L584 -391C603 -397 648 -405 686 -408ZM686 -69L554 -58V-250L588 -218C607 -224 639 -229 686 -233Z"/>
</svg>