<svg xmlns="http://www.w3.org/2000/svg" viewBox="0 -1000 1000 1000">
	<path fill="#000000" d="M501 -783L458 -828L448 -823C442 -800 313 -740 87 -683L89 -666C164 -677 316 -716 427 -750C465 -763 487 -768 495 -769C509 -769 511 -774 501 -783ZM775 -684L688 -783L674 -776L737 -623C742 -611 746 -611 751 -620C762 -640 770 -663 775 -684ZM486 -697L443 -745L434 -738C436 -708 420 -657 364 -572L379 -562C443 -645 468 -672 483 -680C492 -685 492 -690 486 -697ZM340 -636L268 -698L256 -691L310 -577C314 -569 322 -569 326 -578C336 -600 339 -618 340 -636ZM228 -598L140 -663L131 -654L200 -541C206 -532 211 -532 215 -541C222 -558 227 -577 228 -598ZM929 -61L893 -95C864 -83 805 -72 727 -65V-221L865 -239C875 -240 875 -245 869 -250L833 -279C822 -273 772 -261 727 -255V-378L857 -394C867 -395 867 -400 861 -405L825 -434C811 -427 771 -417 727 -412V-537L893 -558C903 -559 903 -565 896 -571L857 -602C819 -584 761 -571 569 -551V-583C589 -619 606 -656 622 -697C636 -729 645 -743 657 -753C663 -758 662 -763 658 -769L607 -833L595 -828C612 -753 543 -574 417 -389L431 -379C469 -425 504 -471 533 -518V-90C533 -29 527 -7 511 16L554 98C557 104 565 104 566 95C569 71 570 49 569 -14L926 -49C936 -50 936 -54 929 -61ZM501 -232L463 -257C443 -243 372 -231 296 -223C300 -244 305 -253 312 -261C320 -268 319 -272 313 -278L294 -297L399 -314L420 -278C428 -266 434 -267 437 -280C442 -304 444 -318 446 -334L354 -413L344 -403L383 -339L206 -315L357 -442C384 -465 404 -477 422 -485C429 -488 430 -494 428 -500L409 -554L398 -551C390 -531 368 -502 341 -472L204 -451L255 -500C271 -515 287 -526 295 -530C302 -534 303 -540 300 -548L279 -596L264 -592C261 -566 236 -523 196 -482C173 -460 149 -449 126 -446L160 -412C164 -407 170 -406 178 -410C197 -419 225 -427 310 -442C286 -419 268 -403 230 -372C183 -333 161 -320 124 -310L159 -274C164 -268 169 -267 181 -272C194 -278 216 -285 261 -292C263 -268 261 -246 255 -219L49 -198L93 -159C123 -169 183 -180 247 -187C224 -98 167 -25 42 53L52 71C172 3 242 -62 275 -145L434 8C443 18 448 17 448 5C448 -10 444 -43 439 -69L282 -167C285 -176 287 -183 289 -191L496 -214C513 -216 514 -223 501 -232ZM687 -406L569 -392V-517L687 -533ZM687 -249L569 -233V-380L599 -357C625 -364 640 -367 687 -373ZM687 -61L569 -51V-223L602 -198C621 -204 649 -210 687 -216Z"/>
</svg>