<svg xmlns="http://www.w3.org/2000/svg" viewBox="0 -1000 1000 1000">
	<path fill="#000000" d="M883 -683C891 -686 892 -692 883 -700L835 -746L806 -709L511 -686L510 -742L725 -762C740 -763 741 -768 729 -778L692 -807C656 -789 582 -776 234 -750L279 -716C297 -720 327 -724 474 -739V-683L196 -661C196 -673 194 -687 192 -699L172 -697C174 -624 163 -588 131 -551L145 -497C148 -482 153 -482 160 -491C181 -521 196 -571 197 -630L474 -651C474 -584 471 -565 463 -551L492 -505C499 -493 507 -495 508 -507C511 -531 512 -561 511 -653L808 -677L770 -592L785 -584C839 -661 856 -673 883 -683ZM734 -601C745 -602 748 -607 739 -614L706 -639C691 -628 672 -623 533 -609L571 -580C606 -588 670 -597 734 -601ZM417 -600L392 -621C376 -608 351 -602 223 -590L258 -560C276 -566 331 -574 416 -582C430 -583 431 -588 417 -600ZM749 -552L721 -575C707 -565 674 -557 533 -541L570 -513C605 -522 676 -532 747 -538C758 -539 759 -544 749 -552ZM429 -538L401 -561C390 -550 331 -537 206 -523L247 -495C270 -503 340 -515 425 -523C437 -524 439 -530 429 -538ZM444 -409L412 -433C399 -424 360 -413 306 -406C311 -417 312 -426 311 -439L245 -483L236 -470L276 -404L77 -382L122 -349C159 -360 277 -377 441 -393C455 -394 455 -401 444 -409ZM387 -329L355 -350C339 -339 300 -331 160 -319L201 -288C231 -295 308 -308 383 -313C398 -314 399 -321 387 -329ZM416 -255L384 -281C362 -268 301 -257 145 -240L189 -210C206 -217 320 -233 408 -240C422 -241 425 -247 416 -255ZM878 -252C887 -258 887 -263 879 -271L842 -306L812 -274L576 -248C582 -253 585 -255 588 -256C594 -259 596 -262 591 -272L580 -292L774 -311C783 -312 785 -317 777 -326L760 -347L775 -434C778 -448 783 -458 796 -465C805 -470 806 -476 795 -485L763 -512L735 -483L513 -455L493 -492L477 -486C482 -470 484 -458 486 -411L489 -337C490 -317 487 -305 478 -294L503 -258C515 -241 523 -244 524 -287L552 -290C540 -257 499 -210 400 -131L409 -119C434 -135 458 -151 480 -167C482 -161 483 -154 483 -145V-95C483 -55 481 -50 467 -36L493 -10C500 -3 504 -4 510 -10C522 -22 533 -27 559 -30L746 -51C759 -52 760 -58 749 -66L719 -88C692 -74 659 -67 517 -54V-129C517 -147 518 -154 520 -157C527 -163 527 -167 518 -172L499 -182C518 -196 532 -208 551 -226L571 -211C581 -214 598 -218 615 -220C608 -188 585 -150 524 -88L536 -77C569 -102 605 -134 623 -157L704 -104C719 -95 724 -97 722 -110C720 -125 717 -136 712 -149L638 -175C645 -185 650 -189 654 -192C663 -198 662 -204 656 -210L644 -222L816 -243C794 -106 764 -9 743 28L647 -23L639 -9C686 26 721 58 742 86C749 96 754 97 761 88C785 55 802 11 850 -207C856 -232 862 -241 878 -252ZM405 -167C413 -173 413 -176 402 -185L371 -210L348 -181L214 -162L195 -201L180 -196C186 -175 189 -161 189 -133L190 -50C190 -17 188 -7 180 2L208 58C213 67 220 67 223 61C228 50 229 40 228 -13L390 -30C399 -31 400 -36 392 -45L372 -69L385 -134C388 -149 392 -157 405 -167ZM740 -451L725 -339L522 -317L521 -353L690 -372C703 -373 706 -380 695 -388L666 -409C647 -399 621 -394 520 -382L518 -427ZM350 -151L338 -58L227 -43L225 -133Z"/>
</svg>