<svg xmlns="http://www.w3.org/2000/svg" viewBox="0 -1000 1000 1000">
	<path fill="#000000" d="M930 -546C921 -592 914 -659 912 -713H895L885 -574C872 -567 845 -562 802 -562C748 -562 737 -569 737 -637V-726C737 -748 743 -762 762 -776C770 -781 770 -786 763 -792L722 -829L691 -790L564 -772L545 -832L531 -828C538 -709 527 -590 430 -503L439 -491C512 -554 544 -600 559 -683L649 -593C656 -585 663 -586 664 -595C666 -609 666 -623 664 -645L563 -699C566 -715 568 -728 569 -741L701 -761V-630C701 -556 715 -529 797 -527C837 -526 865 -528 922 -535C929 -536 931 -539 930 -546ZM497 -637L494 -655L330 -617V-716L462 -733C474 -734 474 -739 465 -745L422 -772C395 -755 348 -744 125 -726L167 -692C184 -697 225 -704 294 -712V-609L78 -557L134 -527C165 -541 213 -558 497 -637ZM941 -129L896 -161C866 -146 714 -129 520 -116V-177L748 -201C759 -202 759 -207 752 -213L729 -236L740 -272C743 -283 750 -293 768 -305C773 -308 773 -313 767 -318L730 -350L702 -318L520 -297V-357L633 -370C643 -371 646 -375 637 -384L614 -406L622 -450L811 -470C822 -471 823 -476 813 -482L771 -508C754 -500 708 -490 627 -481C632 -505 635 -516 645 -529C648 -534 647 -538 643 -541L604 -581L595 -576C599 -558 598 -537 589 -478L406 -459C406 -487 407 -497 411 -504C414 -512 412 -517 407 -521L365 -554L354 -547C363 -532 372 -499 374 -455L165 -434L211 -397C244 -406 308 -417 375 -425L376 -398C377 -382 375 -373 366 -358L394 -317C405 -303 411 -305 411 -343L484 -353V-294L312 -276L289 -331L275 -325C281 -308 285 -287 286 -260L288 -208C289 -192 286 -179 275 -167L303 -128C310 -118 320 -120 320 -158L484 -174V-114L75 -87L122 -50C165 -58 303 -71 484 -84C484 -3 480 15 462 41L499 104C504 111 510 111 512 102C518 77 520 49 520 -86L938 -115C950 -116 952 -120 941 -129ZM586 -446L578 -395L410 -376L407 -428ZM706 -287L693 -228L520 -209V-267ZM484 -206L319 -187L317 -245L484 -264Z"/>
</svg>