<svg xmlns="http://www.w3.org/2000/svg" viewBox="0 -1000 1000 1000">
	<path fill="#000000" d="M694 -396L637 -572L622 -567L656 -346C657 -333 664 -332 672 -344C680 -358 687 -374 694 -396ZM424 -677L396 -699C389 -693 381 -689 354 -683C363 -745 370 -776 376 -784C383 -794 381 -797 375 -804L323 -862L312 -855C326 -818 328 -765 319 -678L218 -665V-721C218 -743 219 -753 224 -766C228 -776 226 -781 219 -788L170 -837L157 -829C170 -800 182 -751 183 -717L185 -660L60 -645L101 -614C119 -620 153 -627 186 -630C189 -573 187 -547 178 -535L202 -495C212 -478 220 -481 220 -520L243 -524V-446L160 -432L137 -480L123 -474C128 -453 131 -431 133 -390L136 -337C137 -324 134 -315 126 -301L152 -256C159 -243 164 -244 169 -260C171 -267 172 -274 173 -285L243 -296V-208L49 -178L91 -142C122 -153 162 -163 243 -175V-79C243 -21 239 -10 226 15L258 87C265 103 271 102 275 84C278 66 279 31 279 -38V-179L378 -194C393 -196 394 -202 383 -213L361 -234C346 -226 321 -219 278 -212V-302L393 -320C406 -321 408 -327 400 -337L382 -358L394 -420C395 -426 399 -434 407 -442C416 -450 416 -455 408 -462L377 -489L356 -465L278 -451V-528L350 -538C366 -540 368 -544 356 -556L339 -573L350 -650L419 -660C436 -662 436 -668 424 -677ZM959 65V50C883 30 864 6 827 -152L779 -359C859 -479 879 -507 892 -517C901 -524 901 -528 895 -536L856 -582L844 -578C834 -511 823 -476 772 -392L751 -484C753 -528 756 -583 757 -624C759 -717 760 -734 773 -756C779 -766 777 -771 770 -777L704 -834L691 -825C712 -782 714 -764 715 -587C717 -254 680 -119 550 64L564 75C684 -70 721 -165 744 -377L834 65ZM628 -738L594 -765L581 -762C568 -736 556 -727 401 -644L406 -630C438 -640 472 -653 499 -667C508 -644 512 -616 512 -530L398 -509L433 -475C447 -484 469 -490 507 -496C481 -382 407 -209 351 -127L366 -116C405 -166 466 -282 512 -399V-121C512 -38 505 6 492 27L521 84C529 100 535 100 541 83C546 69 549 31 549 -71V-370L609 -283C616 -274 622 -274 625 -286C628 -297 629 -313 626 -336L549 -403V-502L612 -515C627 -518 629 -524 617 -535L598 -552C589 -546 580 -542 549 -535C550 -591 553 -610 560 -621C565 -630 564 -635 555 -643L517 -676C585 -708 604 -715 621 -720C639 -725 638 -730 628 -738ZM316 -647L309 -566L220 -550L219 -634ZM357 -434L348 -343L278 -332V-421ZM243 -328L170 -317L165 -404L243 -416Z"/>
</svg>