<svg xmlns="http://www.w3.org/2000/svg" viewBox="0 -1000 1000 1000">
	<path fill="#000000" d="M366 -678L256 -779L242 -770L337 -606C344 -596 349 -595 353 -609C360 -635 363 -651 366 -678ZM947 -206L946 -222C808 -235 751 -258 576 -438L857 -463C870 -464 870 -470 860 -478L816 -515C802 -500 707 -479 429 -460C443 -489 454 -520 463 -552L762 -584C775 -585 777 -589 766 -599L731 -629C697 -613 675 -608 607 -600C660 -680 681 -703 701 -716C710 -722 711 -727 707 -736L671 -810L655 -805C655 -762 647 -720 572 -597L472 -589C508 -729 519 -768 533 -780C541 -787 540 -792 533 -799L468 -867L457 -857C475 -805 472 -763 427 -585L176 -565L226 -522C254 -529 286 -534 417 -548C408 -515 397 -485 383 -456L85 -435L135 -392C157 -399 272 -413 364 -421C298 -303 193 -220 45 -119L56 -100C168 -164 265 -232 331 -305C334 -282 335 -267 336 -229L339 -75C340 -3 366 26 418 40C485 59 656 62 755 37C768 34 769 29 765 19C748 -23 736 -65 720 -145L701 -143L706 -4C654 19 501 26 435 5C394 -9 379 -26 379 -106L377 -269L555 -296C550 -217 543 -174 533 -140L447 -190L440 -179C483 -138 512 -106 534 -79C542 -69 547 -69 552 -78C572 -112 582 -152 594 -261C597 -290 599 -301 609 -311C615 -316 615 -321 607 -327L569 -355L553 -331L378 -303L352 -331C375 -359 395 -390 412 -425L544 -436L770 -183Z"/>
</svg>