<svg xmlns="http://www.w3.org/2000/svg" viewBox="0 -1000 1000 1000">
	<path fill="#000000" d="M365 -583L340 -633L329 -630C332 -620 323 -584 305 -552L204 -530L264 -600C293 -634 319 -659 328 -664C339 -671 340 -675 336 -684L312 -738L299 -734C299 -707 294 -693 273 -660L194 -645L230 -698C257 -738 269 -753 282 -763C292 -771 293 -776 289 -784L258 -839L245 -834C246 -809 233 -746 177 -668C164 -650 138 -637 108 -635L136 -605C141 -599 146 -599 156 -603C182 -614 220 -626 254 -633C197 -548 162 -525 107 -512L144 -483C150 -478 154 -478 163 -483C186 -496 231 -509 289 -524C235 -438 180 -387 93 -334L101 -320C218 -386 268 -430 316 -509C339 -545 349 -559 361 -567C368 -572 368 -577 365 -583ZM901 -267L859 -295C836 -284 741 -270 606 -262C619 -285 634 -305 645 -312C655 -318 654 -322 647 -330L625 -354L756 -365C773 -366 775 -371 760 -384L737 -403C721 -397 703 -392 685 -389C689 -419 690 -438 690 -494V-700L794 -713L745 -608C816 -548 831 -509 809 -467L722 -516L714 -503C749 -478 784 -442 806 -412C814 -401 818 -401 826 -412C882 -494 861 -549 774 -613L820 -685C832 -703 843 -716 855 -725C868 -735 867 -738 856 -747L821 -779L796 -744L689 -730L664 -802L649 -797C653 -770 655 -748 655 -702V-538C655 -466 654 -448 641 -430L666 -388L509 -375C516 -386 520 -396 525 -417L470 -462L530 -494L594 -429C601 -422 607 -422 608 -432C609 -446 609 -458 607 -482L495 -548L486 -540L513 -510L422 -468V-541L604 -570C616 -571 617 -575 606 -586L590 -601L604 -683C608 -705 613 -718 621 -723C632 -731 631 -734 623 -742L590 -772L567 -738L510 -730C514 -742 517 -761 521 -789L457 -850L444 -842L496 -729L418 -719L393 -773L381 -770C385 -752 388 -720 388 -687V-501C388 -461 382 -451 343 -435L378 -409C384 -405 389 -405 397 -412C412 -425 426 -435 456 -454L491 -374L232 -353L279 -318C298 -324 326 -329 358 -332L390 -249L106 -232L147 -194C194 -207 340 -224 898 -246C919 -247 921 -253 901 -267ZM721 -173C731 -182 730 -185 720 -192L683 -218L660 -188L342 -164L316 -197L304 -192C309 -174 312 -149 313 -107L316 -14C317 15 311 40 301 51L331 93C339 106 344 106 349 91C351 86 352 78 353 49L640 29L657 72C661 81 666 82 672 73C682 58 688 35 692 -7L704 -129C706 -152 710 -164 721 -173ZM572 -710L557 -593L422 -570V-619L539 -633C549 -634 551 -639 542 -650L525 -671C513 -661 468 -649 422 -645V-692ZM604 -353C606 -327 596 -300 574 -261L410 -250C415 -261 419 -274 423 -293L381 -334ZM668 -158L657 -38C655 -13 650 -1 641 12L618 -7C604 1 531 9 352 19L350 -44L626 -67C640 -68 641 -73 630 -83L603 -105C582 -94 519 -85 348 -73L346 -134Z"/>
</svg>