<svg xmlns="http://www.w3.org/2000/svg" viewBox="0 -1000 1000 1000">
	<path fill="#000000" d="M494 -592L458 -621C440 -612 385 -599 319 -591V-681C319 -728 323 -752 335 -776C341 -789 341 -794 331 -805L277 -865L264 -859C277 -823 279 -795 279 -709V-587L45 -562L92 -524C128 -532 192 -543 279 -552V-442L117 -419L162 -383C227 -401 274 -410 455 -428C473 -429 474 -435 462 -445L427 -474C408 -465 378 -456 319 -447V-557L488 -574C506 -575 507 -581 494 -592ZM921 -756L879 -789C845 -773 749 -752 434 -733L476 -694C501 -703 575 -711 643 -717C645 -680 640 -647 619 -580L565 -574L537 -637L522 -633C528 -600 532 -544 532 -508V-237C532 -207 529 -190 519 -172L550 -124C561 -108 568 -109 570 -127C572 -135 572 -148 572 -166L766 -182L786 -146C796 -130 801 -130 808 -145C815 -163 820 -193 822 -242L836 -532C837 -558 840 -568 850 -580C859 -590 857 -596 851 -601L808 -636L782 -596L653 -583C672 -636 682 -654 695 -666C705 -675 705 -681 696 -691L670 -719L915 -739C933 -740 934 -745 921 -756ZM426 -307C435 -315 435 -320 426 -328L385 -362L359 -323L214 -299L185 -362L173 -357C180 -316 182 -293 184 -246L188 -132C190 -87 185 -71 174 -56L205 -2C216 16 222 15 226 -4C229 -16 229 -31 228 -65L416 -85C432 -86 434 -91 422 -102L392 -130L407 -260C409 -280 415 -298 426 -307ZM649 -96L627 -160L611 -154C619 -128 548 -9 388 92L396 109C486 62 530 29 598 -40C617 -59 628 -67 638 -72C652 -78 653 -84 649 -96ZM867 -13L713 -138L701 -123C764 -52 810 13 845 73C857 95 862 94 866 73C870 54 870 25 867 -13ZM794 -561L783 -276C781 -229 777 -217 769 -200L749 -224C724 -214 683 -207 572 -196V-302L749 -317C765 -318 766 -323 758 -333L735 -359C715 -350 672 -342 572 -333V-425L741 -439C755 -440 757 -444 749 -453L727 -479C709 -472 665 -466 572 -455V-539ZM365 -288L352 -117L227 -98L221 -266Z"/>
</svg>