<svg xmlns="http://www.w3.org/2000/svg" viewBox="0 -1000 1000 1000">
	<path fill="#000000" d="M538 -236L505 -260C492 -252 469 -246 452 -243L464 -528C465 -559 472 -577 483 -586C492 -594 491 -599 483 -605L444 -636L417 -597L331 -583L338 -670L501 -691C518 -693 518 -697 503 -706L464 -729C437 -717 408 -709 340 -700C345 -748 350 -766 357 -779C362 -790 361 -795 356 -799L302 -854L291 -846C303 -813 306 -775 302 -697L97 -673L141 -640C166 -647 210 -654 301 -666L297 -578L234 -568L206 -634L192 -628C200 -590 201 -577 203 -520L216 -211L71 -191L119 -157C178 -175 238 -187 535 -220C551 -221 551 -226 538 -236ZM925 -768L891 -792C830 -771 762 -759 504 -734L546 -700C569 -707 612 -715 661 -721C663 -683 657 -632 641 -579L598 -572L568 -652L553 -648C560 -611 565 -556 566 -518L573 -273C574 -229 571 -213 562 -195L593 -140C600 -129 606 -130 609 -142C611 -151 612 -164 611 -184L783 -208L810 -155C816 -143 822 -143 825 -157C829 -176 831 -189 835 -264L848 -511C850 -555 854 -574 870 -590C879 -598 879 -601 870 -609L827 -645L801 -602L669 -582C688 -632 702 -664 709 -673C719 -683 718 -686 712 -694L689 -723L923 -750C941 -752 942 -756 925 -768ZM485 -21C487 -38 487 -56 484 -82L362 -163L354 -151L467 -19C479 -6 484 -7 485 -21ZM295 -116L281 -174L267 -173C259 -132 199 -40 61 64L72 77C130 41 181 -1 259 -76C276 -93 281 -96 287 -99C295 -103 297 -106 295 -116ZM899 -8L753 -160L740 -149C785 -88 832 -8 870 70C877 82 881 81 886 70C894 48 898 25 899 -8ZM679 -109L653 -171L642 -167C634 -118 587 -24 448 94L458 108C520 62 587 4 637 -55C657 -79 664 -87 673 -91C683 -95 684 -98 679 -109ZM810 -572L801 -315C798 -250 794 -233 785 -223L753 -244C736 -234 718 -230 610 -217L608 -308L764 -333C781 -336 781 -339 766 -351L741 -370C713 -357 673 -346 607 -338L605 -425L771 -448C787 -451 787 -453 774 -464L743 -487C714 -476 683 -468 604 -454L601 -543ZM427 -569L416 -238L252 -215L249 -280L393 -299C406 -301 406 -309 396 -316L368 -336C350 -326 316 -316 248 -307L246 -364L387 -387C403 -390 403 -394 391 -404L367 -424C349 -414 303 -399 245 -390L242 -448L393 -472C409 -475 409 -477 396 -487L369 -505C349 -496 297 -483 242 -475L239 -540Z"/>
</svg>