<svg xmlns="http://www.w3.org/2000/svg" viewBox="0 -1000 1000 1000">
	<path fill="#000000" d="M811 -776L769 -811L744 -775L595 -755L560 -818L546 -810C556 -780 564 -742 565 -704L567 -627C568 -578 565 -568 553 -548L582 -502C591 -487 596 -486 600 -502C602 -509 603 -518 603 -527L790 -550C811 -553 812 -559 797 -568L773 -582L786 -698C790 -732 794 -739 810 -754C821 -764 820 -768 811 -776ZM934 59C927 20 919 -42 908 -140H889L888 28C766 34 636 -13 570 -74C598 -94 623 -120 646 -148C674 -110 695 -79 713 -43C719 -32 724 -32 731 -41C768 -93 798 -163 841 -332C847 -356 859 -371 869 -375C880 -379 880 -384 872 -393L837 -435L806 -400L609 -379C624 -401 631 -408 635 -411C645 -418 646 -421 640 -430L626 -449L915 -483C930 -485 931 -489 919 -498L877 -528C834 -507 790 -495 457 -465C457 -514 459 -577 461 -629C464 -703 466 -709 483 -723C494 -732 494 -736 486 -743L444 -780L416 -741L195 -710L159 -795L143 -788C157 -718 161 -635 159 -530C152 -181 128 -78 41 67L55 76C161 -86 182 -154 195 -526C230 -537 246 -542 285 -556V-440L247 -434L225 -485L208 -480C217 -452 220 -429 220 -387L219 -296C219 -269 215 -255 205 -241L232 -196C239 -185 243 -185 246 -199C248 -210 249 -221 249 -238L285 -243V-97L147 -67L197 -29C213 -39 274 -60 405 -99L433 -40C438 -31 442 -32 445 -39C453 -59 458 -76 462 -103L372 -206L359 -198L395 -120L317 -104V-247L399 -258C408 -259 410 -264 401 -271L383 -286L392 -385C395 -414 397 -420 412 -432C419 -438 418 -442 413 -446L378 -476L357 -450L317 -444V-567C340 -575 357 -582 370 -588C387 -596 395 -599 400 -600C412 -602 412 -610 403 -618L382 -635H365C317 -603 249 -569 195 -549C197 -588 198 -624 197 -678L424 -708C409 -206 447 -109 624 7C688 47 834 79 918 77C933 77 937 73 934 59ZM752 -743L737 -578L602 -561L601 -625L717 -641C731 -643 732 -650 721 -657L686 -678C669 -669 650 -663 600 -654L598 -723ZM360 -421L350 -282L317 -277V-415ZM285 -273L249 -268V-407L285 -411ZM630 -351C610 -285 557 -197 512 -151C472 -222 457 -311 457 -453L494 -428C518 -435 540 -439 597 -446C583 -391 549 -331 495 -267L508 -258C540 -287 562 -312 587 -346ZM809 -369C777 -218 748 -143 725 -108L658 -164C699 -221 730 -289 756 -363ZM713 -359C692 -268 622 -151 557 -90C543 -106 533 -119 522 -135C575 -173 634 -258 669 -355Z"/>
</svg>