<svg xmlns="http://www.w3.org/2000/svg" viewBox="0 -1000 1000 1000">
	<path fill="#000000" d="M945 19C932 -29 922 -85 915 -174H897L888 -1C700 15 593 -16 533 -99C591 -135 636 -167 676 -207C741 -154 774 -125 812 -85C823 -73 829 -75 829 -92C829 -114 826 -130 821 -146L698 -229C721 -253 739 -275 766 -312C785 -338 803 -355 810 -357C821 -361 821 -366 815 -373L778 -413L751 -385L691 -376V-445L833 -465C852 -468 853 -473 840 -484L824 -498L841 -648C844 -675 848 -690 856 -700C866 -712 864 -716 856 -722L820 -748L799 -717L708 -703L747 -673C762 -680 773 -683 805 -687L798 -606L699 -587L741 -561C749 -565 769 -571 796 -574L790 -496L691 -480V-691C691 -755 696 -781 703 -791C708 -801 707 -806 699 -813L646 -862L633 -852C647 -825 654 -786 654 -700V-475L567 -461L562 -548L625 -562C644 -566 644 -571 632 -580L609 -596C601 -589 584 -581 560 -576L555 -676C592 -700 608 -709 618 -712C629 -715 630 -719 626 -731L613 -771H599C592 -746 579 -730 545 -702L529 -729L512 -722C519 -697 521 -682 523 -652L531 -526C533 -480 530 -465 519 -450L544 -400C550 -389 558 -389 564 -401C567 -406 568 -417 568 -430L654 -441V-372L515 -352L565 -318C592 -328 605 -331 742 -352C708 -296 696 -279 669 -248L577 -310L566 -295C598 -271 627 -247 651 -226C613 -185 570 -151 521 -116C472 -199 450 -385 472 -680C474 -701 478 -712 494 -725C503 -733 503 -738 494 -745L450 -777L426 -740L195 -704L170 -784L150 -778C157 -738 162 -541 157 -415C148 -200 129 -83 59 37L74 45C108 -7 134 -58 151 -117L200 -90C214 -100 243 -111 389 -159L408 -102C414 -84 419 -84 429 -101C434 -109 440 -128 444 -152L368 -257L358 -249L382 -179L328 -166V-290L401 -301C415 -303 416 -306 406 -319L394 -335L401 -419C402 -432 406 -441 412 -447C421 -456 420 -460 412 -465L377 -488L359 -461L328 -453C329 -494 330 -509 338 -527C341 -533 340 -537 335 -543L313 -568C368 -585 387 -590 403 -594C418 -598 419 -603 407 -612L371 -638L361 -633C360 -622 302 -589 196 -551C196 -582 197 -636 198 -672L434 -704C427 -578 429 -336 440 -258C467 -83 528 -19 632 21C684 40 786 50 931 40C943 39 948 31 945 19ZM368 -429L362 -328L328 -321V-422ZM295 -316L260 -310L257 -412L295 -418ZM295 -158L153 -123C182 -221 193 -340 196 -531C231 -540 252 -546 289 -559C293 -542 295 -517 295 -448L253 -440L233 -486L217 -479C222 -465 224 -451 225 -422L228 -335C228 -314 225 -297 217 -286L243 -240C251 -227 258 -229 261 -244C262 -251 262 -259 261 -281L295 -286Z"/>
</svg>