<svg xmlns="http://www.w3.org/2000/svg" viewBox="0 -1000 1000 1000">
	<path fill="#000000" d="M847 -741L807 -779C753 -761 689 -753 316 -721L273 -819L256 -811C267 -771 270 -684 264 -604C240 -234 204 -120 78 47L94 59C228 -82 287 -232 313 -684L843 -728C853 -729 854 -734 847 -741ZM919 -7C901 -74 887 -148 875 -228H858L863 -31C798 -18 734 -13 631 -13C453 -13 436 -29 436 -153V-484L687 -518C665 -370 648 -308 619 -248L520 -331L509 -318C551 -270 592 -218 619 -177C624 -169 628 -168 633 -175C662 -219 688 -287 725 -480C733 -515 738 -525 754 -538C760 -543 761 -546 754 -552L708 -590L682 -555L432 -523L405 -592L388 -587C394 -548 395 -518 395 -419V-132C395 1 426 33 632 33C766 33 841 27 912 9C919 7 921 2 919 -7Z"/>
</svg>