<svg xmlns="http://www.w3.org/2000/svg" viewBox="0 -1000 1000 1000">
	<path fill="#000000" d="M923 -464L740 -663L726 -650C763 -601 803 -543 831 -497L545 -458C605 -549 651 -630 696 -719C717 -759 724 -769 732 -775C740 -781 741 -787 733 -798L687 -864L672 -857C686 -804 636 -666 535 -503C513 -468 496 -455 463 -451L498 -408C506 -399 510 -399 522 -404C557 -420 632 -435 848 -470C864 -442 880 -412 892 -389C898 -377 904 -377 910 -389C917 -405 921 -428 923 -464ZM366 -582L305 -648L294 -637L334 -540C340 -525 345 -524 351 -536C359 -551 363 -565 366 -582ZM491 -571C494 -590 494 -602 491 -635L329 -751C341 -778 345 -785 349 -788C358 -795 359 -800 352 -809L308 -868L298 -863C302 -742 194 -526 52 -370L64 -356C118 -409 164 -463 201 -516C202 -497 202 -483 202 -452V-90C202 -36 195 -16 160 15L201 40C212 47 217 47 226 35C247 7 295 -39 380 -108L428 -45C441 -29 445 -29 448 -48C450 -60 451 -80 450 -105L329 -198L318 -187L367 -123L239 -40V-227L438 -256C451 -258 452 -262 443 -271L420 -295L438 -449C441 -472 445 -483 460 -501C467 -509 467 -513 457 -521L418 -551L391 -512L236 -489L218 -543C254 -600 289 -663 319 -732L476 -567C485 -558 489 -558 491 -571ZM863 -297C872 -305 871 -309 860 -318L817 -351L791 -312L590 -290L556 -370L541 -366C548 -329 552 -269 552 -239L554 -106C555 -22 550 -1 538 20L573 91C581 107 588 107 592 88C594 77 594 55 593 1L836 -22C849 -23 850 -29 839 -36L806 -59L832 -231C837 -259 844 -278 863 -297ZM400 -480L393 -376L358 -399C342 -391 334 -389 239 -371V-457ZM393 -365L387 -282L239 -259V-342ZM796 -274L768 -55L593 -34L589 -254Z"/>
</svg>