<svg xmlns="http://www.w3.org/2000/svg" viewBox="0 -1000 1000 1000">
	<path fill="#000000" d="M880 -775L836 -822L822 -820C822 -788 688 -734 471 -680L473 -664C539 -671 674 -701 773 -732C828 -750 856 -756 875 -758C889 -759 890 -765 880 -775ZM351 -585L289 -656L278 -646L315 -533C318 -525 323 -524 330 -533C342 -547 349 -567 351 -585ZM719 -556L644 -676L631 -669L674 -501C677 -493 685 -490 692 -498C705 -515 712 -529 719 -556ZM870 -652L826 -721L813 -717C817 -669 790 -549 736 -441L756 -433C785 -484 824 -560 844 -605C854 -630 859 -635 866 -637C873 -640 875 -645 870 -652ZM596 -522L512 -642L499 -635L559 -457C563 -446 568 -444 575 -456C584 -472 593 -499 596 -522ZM471 -614L309 -732C321 -755 331 -765 341 -769C347 -772 349 -776 345 -782L304 -848L290 -843C285 -735 152 -506 44 -383L54 -373C109 -422 153 -469 194 -528C196 -513 197 -490 197 -460V-58C197 -28 188 -11 159 13L203 39C210 43 214 42 218 36C234 13 286 -41 373 -120L430 -52C438 -43 444 -42 446 -54C448 -70 449 -90 448 -113L307 -227L298 -213L359 -136L235 -40V-242L418 -271C431 -272 432 -278 422 -287L404 -304L423 -451C429 -488 432 -497 443 -505C450 -510 449 -515 444 -520L402 -555L377 -519L231 -494L208 -552C237 -596 265 -645 297 -710C363 -659 408 -611 451 -549C458 -540 463 -540 467 -549C473 -566 474 -588 471 -614ZM945 -338L900 -371C868 -355 809 -343 621 -326C637 -359 658 -394 671 -406C677 -411 677 -416 674 -422L633 -486L620 -480C622 -452 612 -412 577 -323L422 -310L468 -271C486 -277 526 -285 564 -289C546 -246 525 -205 504 -171C539 -151 594 -119 628 -99C549 -25 435 41 333 83L339 103C450 68 582 -2 661 -79C743 -25 789 10 869 81C877 88 883 87 883 76C883 60 878 30 869 -2C828 -26 755 -68 687 -106C730 -156 769 -235 791 -311L942 -325C955 -326 956 -330 945 -338ZM386 -486L368 -298L235 -276V-359L361 -380C371 -382 372 -386 364 -393L337 -416C321 -406 308 -402 235 -389V-464ZM739 -306C720 -238 686 -167 651 -125C616 -144 576 -165 551 -179C571 -221 587 -254 605 -292Z"/>
</svg>