<svg xmlns="http://www.w3.org/2000/svg" viewBox="0 -1000 1000 1000">
	<path fill="#000000" d="M802 -618C806 -624 806 -629 800 -634L762 -660L740 -626L642 -617L621 -661L600 -656C607 -634 611 -604 611 -586V-531C611 -506 610 -496 602 -478L630 -424C635 -415 643 -414 646 -424C650 -436 651 -444 652 -459L787 -469C798 -470 798 -474 791 -484L775 -505L779 -553C781 -580 790 -603 802 -618ZM920 -41L866 -83C818 -61 750 -52 516 -41L534 -697L877 -729C889 -730 890 -735 878 -744L829 -780C778 -760 755 -754 538 -731L506 -806L487 -799C495 -758 497 -735 496 -683L479 -76C478 -46 476 -40 444 -14L486 26C491 31 497 31 503 25C527 -6 534 -9 550 -10L917 -27C929 -28 929 -34 920 -41ZM472 -411C478 -418 478 -424 472 -428L424 -460L403 -425L326 -413L329 -504L448 -521C460 -523 460 -527 449 -536L415 -564C401 -554 377 -546 330 -537L331 -614L440 -630C453 -632 453 -637 442 -644L405 -669C387 -657 368 -650 333 -644L334 -729L454 -747C467 -749 467 -753 455 -762L419 -790C400 -777 347 -765 208 -741L178 -801L161 -795C171 -753 173 -731 172 -702L166 -492C165 -437 158 -413 146 -397L177 -331C183 -319 188 -320 192 -330C195 -337 197 -344 199 -359L406 -390C383 -164 359 -74 326 -10L229 -86L216 -71C266 -17 293 18 322 63C329 73 333 73 340 64C371 25 414 -117 443 -345C448 -381 453 -391 472 -411ZM873 -362C880 -369 881 -374 873 -381L839 -409L814 -373L755 -365L733 -406L717 -399C720 -377 720 -360 720 -329V-261C720 -237 717 -222 706 -198L729 -139C733 -130 740 -130 744 -139C749 -150 751 -159 753 -181L863 -190C873 -191 874 -196 867 -206L848 -231L854 -309C856 -335 861 -350 873 -362ZM362 -245L305 -330L289 -322L325 -197C328 -186 333 -186 339 -194C350 -207 355 -221 362 -245ZM703 -355C707 -361 707 -366 701 -371L666 -394L648 -366L587 -357L567 -396L550 -389C554 -364 556 -343 556 -314V-244C556 -221 554 -210 543 -185L570 -125C575 -116 582 -115 586 -125C589 -133 590 -146 590 -176L690 -189C701 -190 702 -197 695 -205L678 -225L683 -297C684 -320 691 -340 703 -355ZM292 -220L249 -316L233 -309L256 -171C258 -161 262 -158 270 -169C281 -184 284 -190 292 -220ZM228 -191L188 -308L172 -303L183 -147C184 -135 187 -135 196 -142C209 -154 221 -172 228 -191ZM140 -312H121C114 -219 103 -185 77 -154L93 -94C95 -85 99 -84 106 -93C132 -126 151 -210 140 -312ZM295 -639L207 -626L211 -722L242 -706C253 -712 275 -719 295 -723ZM294 -608L293 -531L204 -515L207 -610L239 -592C251 -597 274 -604 294 -608ZM744 -595L735 -498L651 -486L647 -584ZM291 -498L290 -408L201 -393L204 -498L239 -482C252 -487 274 -494 291 -498ZM818 -341L811 -222L753 -214L755 -334ZM649 -331L643 -217L590 -207V-325Z"/>
</svg>