<svg xmlns="http://www.w3.org/2000/svg" viewBox="0 -1000 1000 1000">
	<path fill="#000000" d="M883 -541C892 -546 893 -550 883 -559L836 -605L803 -567L670 -552L678 -735C679 -762 691 -790 705 -800C714 -806 714 -810 705 -818L662 -855L634 -812L337 -775L307 -840L288 -834C296 -797 301 -754 303 -708L310 -514L190 -500C193 -526 194 -552 193 -579H172C165 -514 137 -458 109 -432L125 -371C128 -358 132 -357 142 -368C165 -395 177 -424 185 -467L802 -533L760 -419L777 -411C837 -506 851 -523 883 -541ZM693 -421C702 -426 702 -430 693 -438L653 -476L622 -437L342 -403L317 -465L299 -459C304 -428 307 -378 307 -336V-102C307 -46 299 -8 285 14L322 82C331 98 336 98 340 85C345 68 347 36 347 -78V-158L583 -185C599 -187 599 -191 586 -203L557 -229C533 -218 508 -212 347 -191V-262L582 -294C598 -296 599 -302 585 -313L555 -336C531 -324 496 -316 347 -295V-370L629 -402V-103C629 -47 624 -8 618 7L521 -44L515 -31C580 27 611 59 636 89C644 99 649 99 654 89C663 68 669 17 669 -138V-365C669 -395 675 -411 693 -421ZM638 -778L632 -548L511 -535L514 -616C515 -637 522 -654 535 -663C542 -668 543 -673 534 -681L497 -711L472 -675L341 -654L338 -741ZM476 -641L475 -531L345 -517L342 -622Z"/>
</svg>