<svg xmlns="http://www.w3.org/2000/svg" viewBox="0 -1000 1000 1000">
	<path fill="#000000" d="M780 -552L751 -572C715 -559 694 -554 658 -549V-623L759 -636C775 -639 775 -643 764 -651L737 -672C721 -663 708 -659 658 -650V-730L773 -745C791 -748 791 -752 778 -761L748 -784C711 -767 671 -757 503 -737L548 -708C564 -714 593 -721 622 -726V-646L505 -631L551 -602C577 -610 596 -614 622 -619V-546L506 -533L543 -503C582 -513 620 -521 775 -537C792 -539 793 -544 780 -552ZM480 -540L450 -561C434 -552 405 -545 361 -538V-616L451 -629C467 -632 467 -636 455 -645L432 -661C422 -657 390 -648 361 -642V-722L461 -736C477 -739 477 -743 466 -751L437 -772C400 -756 378 -749 220 -733L258 -703C274 -708 291 -712 327 -718V-637L209 -622L254 -595C268 -600 299 -606 327 -612L329 -534L210 -518L252 -489C292 -500 330 -508 474 -525C491 -526 491 -532 480 -540ZM216 -733C220 -739 220 -745 216 -751L168 -820L157 -813C164 -788 168 -755 168 -685V-147C168 -65 160 -32 142 3L177 78C182 88 188 89 193 76C202 48 205 10 205 -98V-642C205 -699 208 -723 216 -733ZM848 -755C854 -761 854 -767 846 -776L792 -836L781 -829C793 -793 797 -759 797 -678V-67C797 -11 795 6 790 21L681 -67L671 -55C722 3 758 46 798 99C806 110 810 110 818 97C830 77 836 40 836 -73V-658C836 -732 840 -747 848 -755ZM738 -421L703 -446C684 -434 607 -420 506 -410C510 -420 512 -427 517 -447L461 -505L450 -498L485 -408L237 -384L284 -346C317 -356 364 -363 471 -375V-292L366 -278L337 -323L325 -317C336 -283 339 -254 339 -217V-155C339 -137 335 -117 326 -106L355 -55C362 -44 367 -45 370 -59C372 -67 372 -76 372 -130V-251L471 -263V-140C471 -46 467 -34 451 -11L486 51C493 63 498 63 502 47C506 31 508 -4 508 -76V-267L624 -281C617 -199 611 -152 600 -124L533 -166L524 -155C550 -130 568 -108 596 -72C605 -60 609 -61 618 -74C635 -101 644 -137 658 -251C661 -271 666 -286 677 -292C687 -298 687 -304 677 -312L641 -341L619 -311L508 -296V-378L732 -404C748 -406 748 -413 738 -421Z"/>
</svg>