<svg xmlns="http://www.w3.org/2000/svg" viewBox="0 -1000 1000 1000">
	<path fill="#000000" d="M857 -745L814 -783L783 -742L537 -710L506 -783L491 -778C498 -744 503 -691 504 -649L507 -477C508 -436 504 -413 492 -393L526 -329C535 -313 541 -314 545 -333C547 -345 548 -355 547 -369L817 -396C836 -398 837 -405 824 -415L798 -434L829 -677C832 -699 839 -715 854 -724C866 -731 866 -737 857 -745ZM449 -568L409 -600L383 -563L303 -551C350 -635 378 -668 397 -679C410 -686 409 -691 401 -700L365 -736L335 -697L239 -684C277 -762 287 -779 295 -784C302 -789 304 -795 297 -806L259 -869L245 -863C251 -803 190 -618 62 -445L76 -434C114 -478 134 -504 157 -539C158 -517 159 -490 160 -465L165 -304C166 -277 163 -265 152 -250L183 -186C190 -173 195 -173 200 -190C203 -203 204 -216 204 -249L423 -278C442 -281 442 -286 431 -295L409 -312L428 -488C432 -524 436 -535 446 -547C456 -559 455 -563 449 -568ZM715 -215L609 -329L598 -321L686 -150C694 -134 698 -134 706 -152C711 -164 715 -189 715 -215ZM927 -182L765 -297L756 -284L908 -118C917 -107 924 -107 926 -126C928 -140 928 -160 927 -182ZM439 -164L364 -232L353 -225L411 -113C418 -99 426 -100 430 -116C435 -136 437 -147 439 -164ZM370 -115L299 -200L288 -194L337 -77C344 -60 348 -60 358 -75C364 -86 369 -101 370 -115ZM490 -227H473C477 -146 452 -88 417 -49L429 9C432 25 438 25 448 11C483 -35 503 -121 490 -227ZM284 -67L229 -169L216 -163L244 -35C246 -20 251 -17 262 -30C269 -38 278 -52 284 -67ZM851 51C824 -11 807 -67 788 -144L771 -142L792 21C673 5 591 -74 550 -245L531 -243C564 -15 697 74 839 70C853 70 857 67 851 51ZM175 -162H156C154 -72 134 -38 101 -12L112 45C114 59 121 61 131 49C170 6 183 -58 175 -162ZM632 -570L544 -558L542 -678L632 -689ZM326 -665L275 -547L187 -534L174 -566C190 -590 200 -607 223 -650ZM789 -708L763 -424L668 -413V-544L758 -555C774 -557 776 -564 763 -574L737 -593C727 -587 700 -580 668 -575V-693ZM632 -409L547 -397L545 -539L561 -525C581 -530 604 -535 632 -539ZM268 -422L198 -412L194 -504L268 -516ZM391 -533L377 -304L305 -293V-396L367 -407C380 -409 381 -419 375 -423L349 -441C341 -435 329 -431 305 -427V-521ZM268 -288L203 -278L199 -389L210 -380C232 -386 245 -388 268 -392Z"/>
</svg>