<svg xmlns="http://www.w3.org/2000/svg" viewBox="0 -1000 1000 1000">
	<path fill="#000000" d="M813 -783L774 -823L742 -787L540 -758L511 -825L495 -820C503 -799 510 -758 510 -729V-626C510 -603 507 -593 500 -582L530 -530C536 -520 540 -520 543 -532C544 -536 545 -546 546 -557L786 -587C797 -588 798 -594 790 -600L774 -612L788 -738C789 -751 798 -763 812 -769C820 -773 820 -777 813 -783ZM431 -548L392 -585L362 -550L294 -538C340 -626 355 -645 377 -661C385 -667 384 -671 379 -676L339 -713L309 -678L221 -662C233 -683 242 -701 250 -717C271 -758 279 -771 288 -777C294 -782 295 -786 292 -792L253 -856L240 -851C243 -788 183 -618 38 -442L53 -432C91 -471 115 -500 143 -539C148 -519 149 -510 150 -463L154 -301C154 -278 151 -266 143 -250L171 -199C177 -189 182 -189 185 -202C188 -210 189 -224 188 -244L407 -275C419 -276 421 -281 410 -291L391 -311L409 -495C411 -515 416 -526 429 -534C437 -539 437 -543 431 -548ZM868 -512C876 -519 876 -522 868 -527L823 -563L802 -529L487 -490L458 -551L446 -547C453 -528 460 -489 460 -468V-395C460 -376 457 -364 450 -355L479 -305C485 -294 491 -294 493 -307C494 -314 494 -321 494 -331L854 -370C866 -371 868 -375 856 -385L833 -405L846 -478C848 -490 857 -503 868 -512ZM447 -135L358 -218L349 -211L423 -79C429 -69 433 -68 438 -81C444 -98 447 -115 447 -135ZM967 30V12C860 14 817 0 729 -73L667 -126C695 -155 730 -200 753 -234C775 -269 786 -281 800 -288C807 -292 807 -296 801 -301L760 -338L727 -304L482 -275L529 -245C548 -252 591 -261 729 -277C708 -231 683 -194 642 -147C584 -196 565 -215 559 -228L511 -223L509 -213C530 -205 579 -169 624 -127C553 -53 456 16 346 68L355 84C473 32 567 -28 648 -106L808 50ZM359 -96L294 -202L284 -197L326 -44C329 -33 333 -32 340 -43C349 -59 357 -81 359 -96ZM270 -61L218 -183L207 -178L230 -13C231 -3 234 -1 242 -10C252 -22 263 -42 270 -61ZM149 -184H133C135 -111 120 -58 95 -30L117 32C121 43 124 43 130 32C150 -7 158 -82 149 -184ZM753 -758L740 -615L546 -585V-640L715 -662C723 -663 724 -668 717 -672L675 -697C658 -687 633 -682 546 -669V-731ZM314 -651L261 -533L180 -519L159 -562C175 -585 189 -607 203 -629ZM810 -499L795 -394L705 -383L715 -487ZM680 -484L671 -380L604 -372V-474ZM569 -369L494 -361V-462L569 -471ZM374 -521L358 -301L290 -290V-395L352 -407C364 -409 365 -413 356 -421L335 -438C325 -434 312 -429 290 -424V-507ZM256 -286L188 -274L183 -490L256 -501V-418L189 -406L214 -381C223 -383 234 -386 256 -390Z"/>
</svg>