<svg xmlns="http://www.w3.org/2000/svg" viewBox="0 -1000 1000 1000">
	<path fill="#000000" d="M490 -275L480 -288L359 -192L389 -524C391 -542 397 -553 411 -567C420 -576 419 -582 412 -587L367 -618L341 -577L279 -564C289 -705 298 -753 306 -765C313 -777 312 -783 306 -791L250 -860L238 -852C249 -798 249 -686 238 -556L72 -523L121 -488C139 -496 162 -502 235 -520C211 -281 181 -196 43 -19L57 -11C210 -165 258 -302 277 -529L351 -546L321 -210C319 -179 312 -166 286 -149L327 -119C334 -114 344 -115 350 -123C368 -151 394 -181 490 -275ZM908 -361L868 -393L843 -359L548 -329V-392L830 -422C847 -424 850 -429 834 -440L796 -466C769 -447 728 -441 548 -423V-483L783 -508C799 -509 800 -516 787 -527L770 -540L792 -659C795 -675 802 -693 814 -702C826 -711 827 -717 816 -725L771 -758L744 -719L601 -698C626 -763 642 -788 651 -795C661 -803 661 -809 655 -815L605 -867L594 -860C599 -819 595 -788 570 -695L546 -691L510 -767L498 -762C504 -727 510 -672 510 -635V-411C510 -349 507 -336 495 -324L523 -259C529 -245 537 -244 542 -260C545 -271 547 -279 548 -297L845 -325C804 -138 767 -12 735 30L621 -50L611 -36C657 11 667 23 722 96C729 105 735 107 742 97C786 40 822 -56 887 -310C889 -320 895 -328 907 -335C918 -341 920 -351 908 -361ZM779 -180L706 -267L696 -260L744 -134C749 -123 754 -123 761 -134C768 -146 772 -157 779 -180ZM698 -162L634 -255L622 -247L659 -118C662 -109 668 -108 675 -117C685 -129 691 -142 698 -162ZM607 -137L547 -239L535 -233L563 -98C564 -89 569 -87 579 -95C590 -106 599 -117 607 -137ZM493 -248H480C470 -178 452 -134 426 -118L440 -62C442 -53 451 -52 456 -61C490 -127 500 -167 493 -248ZM755 -687L735 -536L548 -515V-568L709 -587C723 -589 723 -595 712 -603L680 -626C662 -616 623 -606 548 -598V-663Z"/>
</svg>