<svg xmlns="http://www.w3.org/2000/svg" viewBox="0 -1000 1000 1000">
	<path fill="#000000" d="M908 -341L867 -375L842 -337L607 -308V-378L851 -407C863 -408 864 -414 853 -422L817 -446C786 -431 752 -423 607 -406V-479L808 -504C818 -505 819 -511 811 -518L791 -538L808 -646C810 -666 816 -680 831 -690C841 -696 841 -701 834 -707L789 -746L762 -706L650 -689C675 -761 688 -784 700 -795C706 -800 707 -806 703 -811L658 -870L649 -864C652 -819 648 -783 621 -686L606 -683L580 -758L565 -753C570 -725 572 -696 572 -638V-426C571 -342 567 -320 556 -297L588 -236C592 -228 597 -227 601 -238C604 -247 606 -259 607 -277L850 -306C819 -120 793 -6 760 36L657 -34L651 -24C700 32 731 71 750 102C755 112 759 113 766 104C811 49 837 -22 880 -265C887 -296 892 -310 907 -323C915 -330 914 -335 908 -341ZM325 -722L288 -752L262 -714L190 -703L165 -776L151 -771C157 -713 158 -668 157 -563C153 -244 122 -113 39 36L51 46C133 -77 167 -183 183 -357L272 -369V-214C272 -114 267 -89 260 -68L178 -126L170 -116C212 -74 242 -37 265 -3C269 3 277 5 281 -3C302 -43 307 -89 307 -194V-665C307 -679 314 -694 324 -704C331 -712 331 -717 325 -722ZM526 -714C534 -721 534 -724 526 -731L491 -761L466 -728L396 -718L371 -790L357 -784C362 -726 364 -653 364 -572C362 -196 338 -72 246 76L260 84C359 -70 379 -128 395 -345L474 -358V-156C474 -65 471 -38 465 -10L378 -64L369 -52C418 -8 445 19 481 61C486 67 491 67 494 59C507 24 510 -11 510 -131V-674C510 -691 516 -704 526 -714ZM806 -168L744 -246L733 -241L770 -128C774 -118 778 -117 787 -127C794 -136 799 -145 806 -168ZM741 -154L681 -240L671 -233L708 -113C711 -104 716 -104 722 -111C731 -124 738 -137 741 -154ZM672 -127L623 -220L612 -214L634 -90C635 -80 640 -78 648 -87C656 -96 661 -104 672 -127ZM576 -216H564C556 -151 541 -123 520 -103L530 -46C531 -36 537 -36 544 -44C570 -77 583 -126 576 -216ZM474 -535L448 -552C437 -545 419 -539 400 -535C400 -577 400 -627 400 -688L474 -699ZM272 -522L250 -536C241 -530 231 -527 192 -520C194 -573 195 -631 195 -676L272 -685ZM773 -676L758 -528L607 -508V-561L734 -578C747 -580 748 -583 737 -593L711 -616C690 -602 658 -592 607 -587V-652ZM474 -378L450 -394C438 -384 418 -377 396 -372C399 -408 399 -446 400 -507L474 -517ZM272 -384L248 -401C238 -394 215 -387 185 -382C187 -410 190 -451 191 -493L272 -506Z"/>
</svg>