<svg xmlns="http://www.w3.org/2000/svg" viewBox="0 -1000 1000 1000">
	<path fill="#000000" d="M354 -517L296 -586L283 -578L325 -476C330 -465 335 -464 342 -475C347 -485 350 -495 354 -517ZM479 -676L437 -717L407 -680L289 -661C307 -735 317 -762 326 -773C334 -784 335 -788 330 -794L276 -860L260 -853C270 -804 266 -743 246 -655L147 -640C147 -663 144 -691 142 -707H126C118 -612 101 -573 87 -559L103 -500C107 -485 117 -483 123 -499C139 -543 143 -563 146 -608L238 -622C228 -585 208 -527 194 -494L181 -513L165 -506C168 -496 172 -474 174 -450C131 -363 83 -286 31 -227L44 -215C88 -259 136 -318 175 -383V-107C175 -57 170 -22 155 -4L189 67C196 81 202 81 206 65C210 45 211 16 211 -36L458 -74C474 -76 475 -85 464 -94L439 -115C418 -104 385 -94 344 -87V-204L441 -219C457 -221 458 -230 445 -238L417 -256C398 -245 380 -239 344 -232V-311L440 -326C456 -328 457 -337 445 -346L415 -366C400 -354 382 -348 344 -341V-432L449 -448C465 -450 465 -459 452 -467L417 -490C381 -469 343 -459 211 -442V-451C241 -512 264 -575 280 -627L409 -647L380 -563L397 -555C427 -611 434 -619 475 -653C484 -661 485 -670 479 -676ZM917 -332L875 -365L841 -324L551 -284V-349L846 -386C859 -387 861 -396 850 -405L817 -433C794 -418 749 -405 551 -381V-444L792 -478C806 -480 807 -485 797 -496L774 -521L791 -631C794 -653 801 -664 814 -677C824 -686 822 -691 816 -696L774 -732L745 -695L622 -675C646 -753 654 -772 669 -791C676 -800 675 -806 669 -812L611 -870L599 -861C610 -808 608 -767 590 -670L549 -663L516 -749L502 -744C508 -711 513 -646 513 -625V-359C513 -300 509 -283 500 -266L531 -211C539 -196 546 -196 549 -214C550 -219 551 -235 551 -252L850 -289C819 -65 799 0 774 40L678 -28L666 -14C716 37 744 70 772 109C778 118 787 119 794 108C835 43 851 -16 887 -247C892 -280 898 -294 916 -309C927 -318 926 -325 917 -332ZM794 -156L710 -238L699 -228L765 -100C773 -85 776 -85 784 -101C789 -112 792 -133 794 -156ZM706 -137L636 -223L622 -214L672 -86C676 -77 683 -78 690 -88C698 -102 705 -126 706 -137ZM621 -107L564 -205L550 -198L579 -54C582 -41 587 -39 596 -52C607 -65 618 -87 621 -107ZM512 -193H496C484 -91 464 -46 446 -33L461 21C464 33 471 36 480 22C507 -27 520 -115 512 -193ZM754 -662L737 -506L551 -475V-536L708 -562C723 -565 725 -571 712 -581L683 -602C663 -589 630 -580 551 -568V-631ZM306 -336L211 -321V-422L229 -408C252 -415 276 -421 306 -426ZM306 -227L211 -210V-305L234 -287C257 -295 283 -302 306 -306ZM306 -82L211 -68V-198L239 -181C252 -185 269 -189 306 -197Z"/>
</svg>