<svg xmlns="http://www.w3.org/2000/svg" viewBox="0 -1000 1000 1000">
	<path fill="#000000" d="M542 -807L461 -868L450 -857L503 -762C508 -752 517 -751 522 -761C531 -779 535 -787 542 -807ZM523 -393L517 -408L356 -352V-415L506 -437C514 -438 516 -442 510 -447L484 -473C465 -463 421 -451 357 -439C357 -445 359 -449 361 -453C364 -459 363 -464 358 -468L328 -493L315 -487C321 -471 323 -458 323 -431V-388C323 -353 316 -341 292 -323L322 -297C327 -294 331 -294 336 -297C356 -312 422 -348 523 -393ZM871 -360C855 -408 846 -448 840 -498H822L820 -379C791 -365 714 -355 649 -360C601 -363 588 -371 587 -412C691 -455 717 -464 742 -466C755 -467 756 -472 748 -484L724 -520L713 -518C703 -499 672 -476 587 -437C587 -466 588 -481 592 -489C595 -495 595 -500 590 -504L565 -528L743 -545C752 -546 753 -550 747 -556L724 -579L734 -614C741 -637 747 -648 757 -652C762 -654 763 -661 757 -666L720 -699L697 -668L591 -655C594 -673 596 -681 601 -688C605 -693 605 -698 599 -703L576 -724C709 -738 779 -744 836 -748C848 -749 850 -753 840 -762L803 -796C767 -780 589 -751 246 -719L205 -797L193 -792C203 -726 207 -613 197 -483C179 -255 150 -165 48 26L61 36C181 -143 225 -238 243 -622C245 -652 245 -671 247 -685L394 -702C398 -690 400 -674 400 -635L273 -621L314 -588C326 -592 346 -595 400 -602V-543L242 -526L277 -490C319 -499 443 -516 543 -526C550 -512 553 -501 553 -468V-398C553 -352 595 -331 647 -328C731 -324 770 -326 865 -346C873 -348 874 -351 871 -360ZM944 -1V-18C813 -20 741 -42 661 -100L558 -175L861 -197C872 -198 872 -205 865 -211L828 -244C806 -232 736 -220 622 -211C655 -257 672 -275 685 -279C691 -281 692 -285 687 -291L659 -322L647 -320C647 -303 633 -273 590 -209L535 -205C535 -283 539 -300 548 -313C555 -322 554 -327 546 -333L498 -373L485 -364C499 -325 499 -311 499 -201L412 -195C418 -208 420 -218 423 -239L355 -298L344 -292L390 -194L213 -179L248 -142C296 -154 334 -160 464 -169C393 -104 268 -23 134 42L142 59C292 -6 416 -79 499 -148V-32C499 8 497 22 482 51L517 100C523 108 529 108 531 98C534 84 535 73 535 -7V-160L758 26ZM551 -651L434 -638C435 -658 437 -665 440 -669C445 -678 444 -683 440 -686L415 -704L550 -721C553 -705 554 -686 551 -651ZM698 -638L687 -574L580 -562L588 -625ZM550 -621L546 -558L434 -546V-606Z"/>
</svg>