<svg xmlns="http://www.w3.org/2000/svg" viewBox="0 -1000 1000 1000">
	<path fill="#000000" d="M822 -397C823 -420 815 -455 805 -484L549 -601L541 -584C698 -488 728 -465 811 -394C819 -387 822 -388 822 -397ZM966 -219L965 -237C851 -238 808 -252 683 -327L514 -428C529 -431 531 -435 525 -444L511 -466C516 -487 519 -530 519 -631L866 -663C880 -664 881 -670 872 -676L812 -715C767 -697 705 -686 519 -668V-763C613 -786 669 -797 705 -802C714 -803 715 -809 709 -814L653 -861L643 -859C620 -833 525 -789 245 -729L250 -713C357 -727 419 -738 481 -752V-664L121 -628L174 -585C231 -598 321 -612 438 -624C368 -546 255 -462 96 -372L104 -358C254 -426 391 -509 481 -608C480 -552 475 -526 464 -509L481 -479C442 -402 282 -262 49 -143L55 -125C138 -163 219 -205 295 -255L385 -165C390 -159 394 -159 397 -165C404 -181 406 -193 406 -217L311 -266C377 -311 440 -361 494 -412L812 -190ZM745 2C746 -21 744 -37 735 -71L547 -156C603 -196 643 -220 669 -232C676 -235 677 -240 672 -246L641 -290H629C621 -266 601 -239 516 -165V-239C516 -262 522 -293 526 -300C531 -308 529 -313 524 -317L472 -360L459 -350C470 -334 477 -299 477 -239V-58C477 -24 474 -3 469 12L378 -48L367 -34C415 13 453 54 482 90C488 97 493 97 498 89C513 66 516 42 516 -26V-133C522 -137 526 -140 533 -144L732 7C740 13 745 12 745 2ZM454 -156L446 -171L189 -30L250 1C291 -36 315 -55 454 -156Z"/>
</svg>