<svg xmlns="http://www.w3.org/2000/svg" viewBox="0 -1000 1000 1000">
	<path fill="#000000" d="M725 -762L630 -850L619 -841L692 -694C698 -681 707 -682 710 -694C719 -726 721 -734 725 -762ZM947 -437L901 -472C889 -463 814 -443 742 -432C763 -505 783 -562 797 -572C805 -578 806 -583 801 -588L761 -630L884 -644C894 -645 895 -650 888 -656L845 -689C811 -670 726 -654 500 -630L541 -595C603 -611 646 -619 741 -628C745 -569 737 -523 709 -429L484 -404L524 -370C594 -387 636 -393 944 -425C953 -426 955 -430 947 -437ZM646 -497L585 -580L573 -573L609 -443C613 -428 619 -429 625 -442C636 -465 638 -471 646 -497ZM523 -735L486 -779L459 -745L198 -708L166 -766L152 -761C161 -725 170 -678 171 -655L177 -538C178 -515 174 -495 165 -478L201 -424C205 -417 211 -418 214 -425C216 -433 217 -446 217 -461L308 -474V-392L167 -372L209 -338C226 -346 245 -351 308 -363V-270L97 -220L147 -183C168 -195 227 -218 484 -294L481 -309L344 -277V-368L473 -390C485 -391 486 -396 475 -403L444 -424C426 -414 396 -405 344 -397V-479L492 -500C502 -501 503 -506 494 -514L476 -528L494 -675C496 -695 505 -713 522 -721C529 -724 529 -728 523 -735ZM844 -289C855 -296 855 -300 846 -308L801 -345L772 -309L580 -279L552 -335L539 -330C546 -293 550 -262 551 -229L554 -65C555 -28 549 5 539 19L576 90C579 96 585 96 587 89C590 75 591 46 591 22L753 2L780 58C784 66 790 65 793 57C799 35 802 16 807 -51L820 -237C822 -269 828 -280 844 -289ZM493 -88L422 -225L411 -219L447 -26C450 -13 456 -12 463 -22C475 -39 488 -69 493 -88ZM392 -76L334 -198L323 -193L350 -3C351 9 354 10 362 0C374 -14 387 -45 392 -76ZM307 -42L259 -188L244 -183L261 17C261 24 267 25 273 18C288 0 302 -25 307 -42ZM186 -175L167 -171C176 -97 165 -49 141 -8L158 54C160 61 165 61 170 54C207 1 204 -95 186 -175ZM459 -713L443 -530C427 -523 396 -516 344 -508V-696ZM308 -504L216 -492L203 -676L308 -691ZM784 -279L772 -84C769 -42 765 -29 755 -18L729 -37C707 -26 667 -18 591 -11L588 -123L748 -146C759 -148 759 -153 751 -159L713 -185C696 -175 643 -163 587 -155L585 -245ZM426 -634C430 -637 430 -641 423 -647L387 -682L380 -677C385 -650 384 -621 366 -542L382 -539C409 -610 416 -624 426 -634ZM294 -583L246 -656L232 -649L256 -540C258 -534 261 -532 267 -539C278 -549 288 -564 294 -583Z"/>
</svg>