<svg xmlns="http://www.w3.org/2000/svg" viewBox="0 -1000 1000 1000">
	<path fill="#000000" d="M877 -716L819 -759C765 -738 682 -724 110 -698L176 -646C199 -653 295 -668 377 -673C385 -628 382 -560 369 -462C344 -258 278 -109 127 28L137 38C316 -100 388 -248 418 -469C431 -560 436 -585 443 -603C445 -610 444 -614 441 -618L401 -674L582 -685C588 -654 591 -614 591 -533V-157C591 -106 586 -77 568 -56L615 36C618 42 624 42 626 36C632 18 634 -6 634 -133V-498C634 -562 639 -594 647 -609C650 -615 650 -620 647 -624L604 -686L873 -702C885 -703 886 -709 877 -716Z"/>
</svg>