<svg xmlns="http://www.w3.org/2000/svg" viewBox="0 -1000 1000 1000">
	<path fill="#000000" d="M854 -320L816 -342V-573C816 -623 824 -664 835 -675C844 -683 842 -688 836 -693L763 -759L751 -749C766 -712 772 -666 772 -582V-339C741 -330 697 -325 623 -318V-699C623 -727 629 -752 638 -771C642 -780 642 -785 635 -791L575 -849L565 -843C580 -796 584 -716 584 -668V-96C584 -55 573 -22 557 1L601 80C607 90 611 89 614 80C622 54 624 26 624 -48V-283L848 -305C868 -306 867 -312 854 -320ZM472 -753C476 -763 476 -768 469 -774L411 -832L401 -826C415 -780 423 -592 406 -382L259 -317V-593C259 -621 265 -646 274 -665C278 -674 278 -679 270 -686L211 -743L201 -737C215 -690 220 -606 220 -562V-361C220 -316 212 -298 178 -279L225 -248C235 -242 238 -241 249 -254C268 -275 295 -293 403 -347C385 -193 314 -66 121 63L133 79C399 -76 463 -225 458 -682C458 -707 464 -735 472 -753Z"/>
</svg>