<svg xmlns="http://www.w3.org/2000/svg" viewBox="0 -1000 1000 1000">
	<path fill="#000000" d="M910 9C897 -32 886 -91 876 -188H857L853 -13C822 -5 768 0 727 -3C694 -6 685 -25 685 -89V-343C821 -485 842 -501 856 -506C862 -508 864 -512 861 -519L826 -596L810 -591C807 -550 789 -505 685 -378V-641C685 -709 692 -744 703 -760C707 -766 706 -771 699 -777L637 -830L627 -820C644 -786 647 -753 647 -626V-73C647 4 669 29 734 35C774 39 826 36 902 24C911 23 914 19 910 9ZM640 -157L633 -172L527 -122V-398L629 -417C639 -418 639 -422 632 -429L600 -459C587 -448 563 -439 527 -431V-568C527 -673 531 -697 539 -711C542 -716 542 -720 536 -725L473 -779L461 -769C482 -717 488 -683 488 -505V-104L414 -67V-403C414 -441 421 -475 428 -486C431 -492 431 -496 426 -500L363 -556L350 -546C368 -516 375 -465 375 -365V-48L296 -9L367 13C386 -6 437 -39 640 -157ZM365 -761L324 -848L312 -843C314 -809 299 -742 259 -666C193 -537 131 -441 40 -349L54 -333C123 -398 183 -467 233 -541V-126C233 -65 226 -26 206 1L243 78C248 89 256 90 260 76C265 59 271 -6 271 -98V-603C281 -619 290 -634 299 -650C344 -733 349 -739 362 -745C368 -748 369 -753 365 -761Z"/>
</svg>