<svg xmlns="http://www.w3.org/2000/svg" viewBox="0 -1000 1000 1000">
	<path fill="#000000" d="M799 -570L758 -599C722 -579 663 -568 488 -552L540 -516C575 -525 624 -534 794 -553C811 -555 812 -561 799 -570ZM386 -774L331 -856L314 -848C312 -754 279 -645 74 -402L90 -389C152 -449 205 -507 250 -566V-167C250 -76 242 -37 228 -3L265 81C270 93 276 92 279 82C287 59 292 20 292 -48V-626C308 -650 324 -675 340 -702C364 -742 373 -756 383 -763C388 -766 388 -770 386 -774ZM910 -729C918 -735 918 -741 909 -749L862 -787L829 -746L469 -705L430 -788L413 -782C419 -737 425 -679 425 -637V-171C425 -106 413 -41 399 -12L437 73C442 85 447 86 452 72C462 42 466 4 466 -116V-666L843 -708V-129C843 -70 838 -35 830 -2L713 -70L703 -55C762 -2 805 44 844 92C852 102 857 102 862 93C878 68 887 32 887 -103V-682C887 -702 897 -718 910 -729ZM777 -445L727 -478L703 -440L568 -417L540 -473L525 -467C531 -445 534 -413 536 -375L541 -271C542 -242 539 -228 530 -215L565 -160C573 -148 578 -148 581 -161C584 -177 585 -188 584 -217L766 -239C778 -240 779 -246 769 -255L739 -281L753 -377C757 -406 765 -420 776 -428C785 -435 785 -439 777 -445ZM711 -406L699 -270L582 -249L576 -382Z"/>
</svg>