<svg xmlns="http://www.w3.org/2000/svg" viewBox="0 -1000 1000 1000">
	<path fill="#000000" d="M938 30L937 14C776 23 726 19 591 -69V-193L801 -219C814 -220 815 -224 804 -234L769 -263C747 -251 711 -244 591 -227V-321L770 -341C780 -342 780 -348 772 -355L749 -377L756 -449L890 -463C904 -464 906 -468 895 -478L864 -507C848 -498 808 -490 759 -484L763 -531C765 -551 769 -562 785 -570C793 -575 791 -582 785 -588L748 -626L715 -594L591 -578V-660L842 -690C852 -691 854 -695 843 -704L803 -733C784 -722 718 -708 591 -692C592 -753 597 -770 605 -784C609 -790 609 -795 602 -801L539 -851L527 -840C546 -802 554 -766 552 -688L329 -661L377 -626C403 -634 466 -645 552 -655V-574L389 -551L420 -520C448 -527 499 -534 552 -542V-463L290 -435L335 -396C359 -402 424 -417 552 -429V-351L372 -327L420 -293C440 -299 476 -308 552 -317V-94L444 -167C459 -193 465 -199 472 -204C479 -210 479 -215 474 -223L437 -286L425 -281C426 -217 382 -89 266 58L280 70C341 6 375 -41 431 -141L734 72ZM338 -746L296 -832L284 -826C284 -717 204 -550 26 -338L37 -325C99 -385 161 -454 214 -533V-130C214 -74 202 -25 189 -1L229 82C234 92 243 92 247 80C252 64 254 31 254 -103V-597C261 -611 269 -623 277 -637C309 -698 321 -719 336 -730C342 -735 342 -739 338 -746ZM724 -563L718 -480L591 -467V-547ZM716 -445L711 -373L591 -357V-432Z"/>
</svg>