<svg xmlns="http://www.w3.org/2000/svg" viewBox="0 -1000 1000 1000">
	<path fill="#000000" d="M354 -767L312 -845L298 -839C305 -749 183 -493 27 -332L39 -318C117 -390 177 -458 229 -541V-141C229 -85 216 -36 203 -12L243 71C248 81 255 82 259 69C264 52 266 20 266 -114V-606C276 -623 284 -639 293 -656C328 -727 333 -736 352 -749C357 -753 358 -758 354 -767ZM937 -299L889 -336C862 -320 768 -304 551 -285C585 -345 588 -350 596 -355C603 -359 604 -365 601 -370L583 -392L813 -414C826 -415 827 -422 819 -429L787 -453L802 -553C806 -581 816 -600 831 -609C838 -613 838 -617 831 -624L788 -663L759 -623L668 -612C671 -633 676 -641 685 -648C694 -655 694 -662 689 -668L655 -711L872 -733C885 -734 886 -739 876 -746L825 -781C785 -760 672 -738 330 -714L383 -674C394 -679 439 -687 488 -693C499 -665 507 -643 508 -592L413 -581L376 -644L363 -637C373 -616 384 -572 385 -554L393 -447C396 -411 392 -382 384 -369L409 -323C414 -314 420 -313 424 -326C429 -342 431 -357 431 -378L547 -389C541 -361 531 -334 507 -282L282 -263L338 -223C361 -232 421 -240 490 -247C475 -218 452 -183 434 -159C475 -146 544 -116 588 -94C524 -33 432 19 300 61L306 80C456 42 557 -12 622 -77C753 -1 769 9 834 62C842 68 847 68 847 58C846 36 839 12 822 -25L646 -102C683 -141 710 -186 749 -270L932 -286C945 -287 945 -293 937 -299ZM632 -607L543 -596C542 -626 542 -636 551 -645C558 -652 558 -657 551 -664L516 -696L625 -708C634 -682 636 -663 632 -607ZM765 -591L751 -442L657 -431L666 -579ZM630 -575L621 -428L548 -420L544 -565ZM514 -417L429 -409L422 -551L509 -562ZM696 -266C679 -217 645 -159 609 -117L485 -172L531 -251Z"/>
</svg>