<svg xmlns="http://www.w3.org/2000/svg" viewBox="0 -1000 1000 1000">
	<path fill="#000000" d="M357 -775L311 -848L292 -843C320 -773 202 -529 33 -353L46 -337C105 -390 170 -462 224 -541V-129C224 -73 211 -24 198 0L238 83C243 93 250 94 254 81C259 65 261 32 261 -102V-601C274 -622 286 -642 297 -664C336 -739 344 -750 354 -757C361 -763 361 -767 357 -775ZM915 -544L879 -576C859 -566 802 -556 634 -538V-622L811 -644C819 -645 819 -650 813 -657L784 -688C770 -677 729 -669 634 -653V-735L843 -756C855 -757 856 -760 845 -771L809 -804C773 -784 728 -776 382 -743L430 -707C452 -715 508 -722 596 -731V-534L492 -523V-590C492 -601 494 -616 500 -627C504 -635 503 -637 495 -645L446 -689L433 -679C448 -653 454 -627 454 -603V-520L305 -504L351 -469C370 -475 413 -482 468 -488C471 -468 468 -443 461 -414L443 -330C436 -296 431 -290 401 -276L447 -238C455 -231 461 -233 466 -241C477 -260 482 -263 513 -267L813 -302C781 -128 750 -39 714 19L615 -57L601 -42C641 2 678 53 700 93C705 102 709 102 717 93C756 46 803 -49 847 -259C852 -284 864 -303 881 -312C890 -317 890 -322 882 -329L838 -373L807 -336L479 -296L495 -368L808 -408C818 -409 820 -413 809 -422L773 -452C754 -438 690 -424 503 -402C510 -421 518 -437 524 -445C530 -453 529 -457 522 -463L492 -490L913 -531C923 -532 924 -536 915 -544ZM738 -180L654 -257L641 -248L710 -123C716 -112 722 -112 725 -122C733 -150 736 -164 738 -180ZM632 -154L563 -241L550 -233L598 -101C602 -88 607 -88 613 -100C622 -119 628 -135 632 -154ZM538 -132L474 -226L460 -219L497 -72C500 -60 505 -59 512 -70C526 -95 534 -113 538 -132ZM423 -220H401C382 -144 369 -123 338 -97L336 -21C336 -8 343 -6 353 -16C388 -48 413 -118 423 -220Z"/>
</svg>