<svg xmlns="http://www.w3.org/2000/svg" viewBox="0 -1000 1000 1000">
	<path fill="#000000" d="M949 -162V-180C846 -193 829 -201 779 -254L676 -364L898 -386C910 -387 911 -393 900 -400L858 -429C830 -420 702 -399 553 -383C574 -412 581 -418 586 -421C593 -425 595 -431 591 -438L572 -471L796 -494C808 -495 808 -502 800 -511L776 -536L791 -602C795 -621 802 -633 815 -642C822 -647 822 -653 814 -660L774 -699L747 -656L665 -647L673 -731L861 -750C871 -751 873 -756 864 -763L822 -797C771 -777 674 -761 334 -728L382 -690C404 -696 464 -708 507 -714L510 -630L419 -619L391 -671L377 -664C383 -646 387 -618 388 -597L392 -508C393 -494 390 -479 382 -466L412 -423C419 -414 423 -415 427 -425C429 -432 429 -445 428 -456L544 -469C529 -428 516 -404 500 -378L281 -355L332 -321C355 -328 403 -337 476 -344C419 -273 353 -211 251 -135V-615C265 -641 281 -670 297 -703C315 -742 324 -752 337 -763C343 -768 343 -773 340 -778L297 -854L282 -847C295 -773 192 -530 30 -351L45 -337C116 -410 162 -461 210 -541V-142C210 -79 203 -29 189 7L228 84C232 91 239 91 242 84C249 70 251 39 251 -108C318 -149 392 -204 451 -263C454 -252 455 -241 455 -216V-60C455 44 469 69 626 63C667 61 748 54 801 44C809 43 810 39 806 29C794 -5 781 -64 777 -120L757 -119L752 8C733 16 690 23 612 24C497 25 493 23 493 -83V-105L698 -129C709 -130 711 -136 702 -144L673 -168L682 -215C685 -229 693 -239 701 -246C708 -252 708 -258 701 -264L665 -298L639 -267L490 -247L469 -281C493 -305 512 -327 530 -350L646 -362L811 -147ZM635 -727L627 -643L543 -633L541 -717ZM753 -627L737 -521L653 -511L662 -616ZM625 -613L615 -507L547 -498L544 -602ZM514 -495L427 -485L420 -588L511 -599ZM647 -236L636 -157L493 -137V-216Z"/>
</svg>