<svg xmlns="http://www.w3.org/2000/svg" viewBox="0 -1000 1000 1000">
	<path fill="#000000" d="M891 -566L841 -616L813 -584L670 -553C687 -595 703 -643 720 -700C733 -740 742 -757 751 -763C756 -767 756 -772 752 -779L705 -850L688 -847C702 -764 656 -570 562 -394L580 -385C607 -426 633 -468 655 -519L808 -542L759 -439L775 -430C836 -523 865 -547 888 -553C896 -555 897 -561 891 -566ZM641 -621L603 -647C597 -643 574 -635 554 -630L556 -689C557 -731 561 -758 571 -772C576 -779 576 -784 570 -789L507 -840L495 -833C508 -803 516 -770 515 -703L514 -624L404 -610V-638C404 -658 408 -699 417 -713C420 -720 420 -722 414 -729L363 -787L348 -780C361 -749 366 -713 366 -645V-606L259 -594L301 -561C321 -566 342 -569 367 -573L373 -261L253 -244L300 -211C379 -229 404 -233 621 -257C633 -258 636 -265 624 -273L589 -299C585 -296 567 -290 545 -285L553 -595L637 -606C648 -607 650 -615 641 -621ZM345 -773L299 -845L286 -841C293 -756 231 -593 36 -363L47 -348C97 -393 155 -457 209 -536V-121C209 -47 201 -16 186 9L225 85C230 95 237 96 241 83C246 67 248 40 248 -93V-598C260 -620 272 -640 285 -663C317 -724 333 -749 343 -756C349 -760 349 -766 345 -773ZM941 41L940 25C830 4 826 -5 743 -225L701 -336C711 -396 716 -411 724 -421C727 -426 727 -430 724 -435L675 -499L661 -493C674 -464 673 -373 650 -264C621 -131 554 -5 476 73L491 86C607 -24 665 -133 691 -277L798 47ZM572 -138L478 -200L467 -185L557 -69C563 -62 570 -63 571 -70C573 -78 574 -114 572 -138ZM439 -156L412 -218L399 -215C402 -174 346 -79 261 9L273 21C305 -6 361 -59 399 -108C409 -121 422 -133 435 -138C441 -141 442 -147 439 -156ZM514 -591L510 -281L408 -266L407 -346L497 -364C508 -366 509 -371 501 -378L475 -400C465 -394 439 -383 407 -377L406 -458L500 -476C511 -478 511 -483 504 -489L475 -515C463 -506 438 -496 406 -490L405 -577Z"/>
</svg>