<svg xmlns="http://www.w3.org/2000/svg" viewBox="0 -1000 1000 1000">
	<path fill="#000000" d="M917 -711L877 -746C845 -728 819 -721 638 -701C646 -718 650 -736 653 -753L571 -840L559 -830L616 -700L316 -674L363 -635C406 -647 504 -660 913 -697C925 -698 927 -702 917 -711ZM840 -627L795 -666L765 -628L431 -592L400 -636L387 -630C396 -603 402 -563 404 -529L409 -409C410 -371 408 -350 399 -338L429 -283C436 -271 442 -271 446 -283C449 -294 450 -314 449 -331L824 -368C842 -370 843 -374 830 -383L799 -405L815 -557C819 -583 823 -595 839 -610C845 -616 846 -621 840 -627ZM358 -786L317 -861L302 -853C307 -793 210 -574 37 -385L48 -372C111 -432 176 -499 232 -579V-116C232 -60 220 -11 206 14L247 96C252 106 259 107 263 94C268 78 270 45 270 -88V-640C278 -652 286 -665 293 -678C327 -738 334 -749 356 -770C362 -775 362 -778 358 -786ZM797 -306L756 -342L731 -307L489 -278L463 -318L453 -313C457 -294 460 -269 460 -250L463 -131C464 -91 460 -78 452 -66L483 -24C494 -9 498 -11 501 -24C502 -30 502 -43 501 -60L784 -89C805 -91 806 -98 788 -110L761 -128L771 -237C773 -262 781 -278 796 -285C807 -291 806 -298 797 -306ZM911 -18L871 -43C843 -28 747 -13 323 16L364 54C398 43 457 35 906 2C926 1 927 -7 911 -18ZM774 -597L763 -398L448 -363L438 -561ZM736 -275L725 -120L500 -93L499 -156L702 -177C720 -179 722 -184 709 -192L669 -219C651 -207 618 -198 498 -185L497 -248ZM712 -538L677 -572L655 -536L540 -520L512 -561L503 -555C507 -543 511 -521 512 -506L516 -450C517 -434 515 -422 510 -412L532 -387C541 -377 548 -379 549 -388C550 -393 550 -407 549 -418L705 -438C718 -439 720 -445 708 -455L691 -469L695 -489C697 -501 704 -515 711 -521C717 -527 718 -532 712 -538ZM659 -507L655 -463L547 -448L545 -491Z"/>
</svg>