<svg xmlns="http://www.w3.org/2000/svg" viewBox="0 -1000 1000 1000">
	<path fill="#000000" d="M853 -628L811 -694L797 -688C800 -649 787 -596 735 -499L751 -486C823 -596 833 -606 850 -613C857 -616 857 -621 853 -628ZM647 -546L576 -648L563 -641L606 -490C609 -479 613 -478 620 -488C629 -501 639 -520 647 -546ZM918 -277C818 -290 789 -320 755 -421L708 -564C712 -591 716 -628 718 -672C720 -712 727 -751 739 -768C742 -772 742 -776 739 -779L675 -839L662 -833C683 -786 682 -678 665 -543C648 -397 577 -295 491 -240L501 -224C615 -293 668 -379 696 -495L763 -258H917ZM576 -747L540 -792L529 -790C520 -763 436 -709 318 -669L327 -649C367 -661 407 -673 439 -685V-572L278 -550L324 -519C340 -524 393 -533 428 -539C390 -445 330 -360 267 -291L279 -278C327 -317 393 -387 439 -471V-449C439 -331 437 -322 418 -294L458 -222C463 -215 467 -216 470 -223C476 -239 479 -260 479 -398V-476L554 -388C561 -380 568 -383 569 -391C572 -413 572 -432 569 -455L479 -503V-546L570 -561C581 -562 582 -568 574 -575L545 -601C536 -595 504 -585 479 -578V-701C513 -718 543 -731 571 -736C578 -737 580 -742 576 -747ZM345 -766L298 -847L282 -842C293 -750 188 -532 30 -364L44 -347C118 -418 161 -463 210 -539V-140C210 -77 202 -27 189 9L228 86C232 93 238 93 242 86C249 73 251 35 251 -119V-607C265 -632 280 -659 299 -692C321 -731 330 -741 343 -749C350 -753 350 -756 345 -766ZM651 -160L564 -247L550 -238L624 -92C628 -84 634 -84 638 -91C647 -106 649 -128 651 -160ZM880 -64C883 -80 883 -108 880 -137L731 -227L721 -213L867 -61C873 -54 879 -56 880 -64ZM388 -186L370 -188C358 -118 330 -78 291 -62L303 11C304 21 310 21 316 14C360 -34 387 -91 388 -186ZM815 44C784 -7 763 -48 728 -131L713 -125L739 14C693 15 622 -5 582 -29C517 -67 484 -110 444 -197L424 -196C455 -98 503 -29 584 17C637 46 721 70 808 60C819 59 821 54 815 44Z"/>
</svg>