<svg xmlns="http://www.w3.org/2000/svg" viewBox="0 -1000 1000 1000">
	<path fill="#000000" d="M631 -789L531 -837L522 -827L616 -734C622 -728 626 -729 628 -738C632 -760 632 -776 631 -789ZM867 -719L822 -747C792 -735 660 -716 319 -689L370 -655C412 -668 507 -677 864 -707C876 -708 875 -714 867 -719ZM797 -636L764 -669L744 -641L631 -627L611 -663L597 -654C605 -625 606 -548 595 -516L618 -461C622 -454 625 -454 627 -461C631 -476 633 -485 634 -499L784 -513C795 -514 795 -521 788 -527L765 -544L773 -585C777 -600 784 -614 796 -620C805 -625 805 -629 797 -636ZM571 -605C578 -610 579 -614 570 -622L542 -649L520 -622L408 -607L389 -642L374 -637C386 -602 385 -522 374 -496L398 -452C403 -443 410 -445 412 -454C414 -464 414 -471 415 -486L562 -500C571 -501 574 -506 567 -512L545 -533L554 -570C560 -593 564 -601 571 -605ZM332 -773L291 -844L279 -838C280 -760 202 -547 33 -359L45 -344C114 -414 166 -474 211 -545V-124C211 -68 199 -19 186 6L226 88C231 98 238 99 242 86C247 70 249 37 249 -96V-611C258 -627 266 -642 276 -661C311 -733 318 -744 330 -756C335 -761 336 -766 332 -773ZM922 15V-3C779 -6 756 -13 680 -100C749 -168 761 -178 774 -185C779 -188 780 -194 777 -199L756 -237L876 -245C885 -246 887 -251 880 -257L845 -288C822 -279 776 -272 669 -262L671 -321L806 -332C814 -332 815 -338 809 -343L779 -370C763 -363 719 -355 672 -351L674 -407L796 -419C809 -420 810 -423 801 -431L773 -453C759 -448 723 -440 682 -435C691 -444 693 -449 686 -456L646 -494L636 -487C640 -479 641 -469 639 -431L503 -420C504 -427 506 -434 508 -438C511 -444 509 -450 504 -454L468 -484L454 -474C461 -462 464 -439 466 -417L300 -402L344 -370C352 -373 384 -379 466 -389V-335L335 -324L376 -292C385 -295 407 -299 466 -306V-246L270 -231L320 -196C360 -207 425 -214 512 -221C461 -144 388 -72 275 0L284 16C353 -21 399 -52 442 -88V2C442 35 439 40 410 60L452 83C458 86 463 86 467 80C486 54 503 37 625 -71L614 -84L478 13V-124C497 -144 530 -181 552 -210L737 35ZM745 -613L735 -540L635 -529L637 -599ZM523 -594L511 -526L415 -514L414 -581ZM639 -405L637 -349L502 -337V-391ZM636 -319L634 -259L502 -248V-308ZM737 -236C734 -216 715 -183 664 -118L573 -225Z"/>
</svg>