<svg xmlns="http://www.w3.org/2000/svg" viewBox="0 -1000 1000 1000">
	<path fill="#000000" d="M819 -594L762 -646L731 -599L483 -570C486 -601 493 -658 496 -685C501 -740 509 -770 517 -776C523 -781 524 -785 517 -791L445 -859L433 -851C455 -800 455 -713 438 -565L236 -541C236 -566 234 -596 232 -620H209C210 -508 184 -456 145 -434L168 -359C170 -351 176 -349 187 -362C213 -394 230 -437 235 -503L433 -527C395 -243 307 -107 83 74L94 88C329 -63 441 -232 479 -532L731 -563L682 -450L700 -440C775 -554 791 -567 817 -578C826 -582 826 -588 819 -594ZM883 -5C867 -70 856 -122 852 -203L832 -204L820 -30C793 -19 739 -10 657 -17C575 -24 550 -47 550 -116V-337C550 -379 555 -403 567 -421C571 -428 570 -432 563 -438L509 -483L499 -476C508 -453 510 -439 510 -323V-117C510 -22 550 17 642 25C764 35 809 32 876 13C884 11 886 6 883 -5Z"/>
</svg>