<svg xmlns="http://www.w3.org/2000/svg" viewBox="0 -1000 1000 1000">
	<path fill="#000000" d="M279 -603L144 -723L133 -714L247 -527C255 -515 258 -516 263 -526C275 -551 278 -576 279 -603ZM944 -473V-492C817 -501 783 -518 613 -779C618 -787 624 -792 631 -794C643 -798 645 -801 636 -813L592 -865L577 -860C588 -798 470 -590 309 -442L336 -535L319 -543L177 -166L76 -264L61 -251C113 -184 148 -134 179 -82C187 -70 195 -71 199 -84L296 -398C355 -442 403 -491 444 -537C449 -464 444 -397 427 -270C412 -163 356 -36 252 69L264 84C385 -26 439 -116 465 -261L737 -296C757 -298 760 -303 746 -316L722 -340L736 -470C737 -481 743 -494 755 -508L789 -460ZM767 -208L725 -248L693 -208L510 -182L487 -237L472 -232C479 -199 482 -175 483 -134L486 -42C487 1 483 14 470 28L501 89C510 105 516 103 521 90C523 82 525 65 524 26L755 1C771 0 772 -6 761 -15L733 -39L742 -143C743 -156 750 -172 765 -183C777 -191 778 -197 767 -208ZM728 -549L718 -558L692 -530L617 -519C623 -533 627 -551 629 -565L557 -647L545 -641L592 -515L490 -498L469 -568C515 -620 537 -653 596 -748ZM696 -496L682 -327L470 -295C473 -317 476 -341 479 -363L661 -386C686 -389 685 -391 669 -403L637 -426C624 -415 594 -410 482 -395C485 -421 487 -445 488 -465ZM703 -174L694 -30L523 -10L518 -149Z"/>
</svg>