<svg xmlns="http://www.w3.org/2000/svg" viewBox="0 -1000 1000 1000">
	<path fill="#000000" d="M511 -737L466 -772C425 -752 339 -737 155 -722L209 -681C260 -696 294 -702 507 -725C519 -726 520 -731 511 -737ZM670 -614C672 -619 671 -623 667 -627L615 -683L603 -673C614 -650 621 -598 621 -554V-358C621 -317 614 -275 603 -255L637 -195C643 -184 649 -186 653 -197C658 -211 660 -235 660 -308V-544C660 -578 663 -598 670 -614ZM828 -770C830 -776 831 -781 826 -785L755 -842L741 -831C762 -787 773 -727 773 -646V-107C773 -76 767 -31 760 -4L641 -98L629 -86C711 9 744 53 774 100C778 107 785 107 789 100C802 80 815 25 815 -78V-655C815 -727 817 -747 828 -770ZM576 -539L531 -574C511 -559 416 -537 95 -502L143 -465C171 -473 218 -482 258 -486C261 -420 252 -343 236 -285C201 -160 138 -51 54 41L63 52C170 -34 253 -169 291 -350C299 -387 305 -407 315 -417C321 -423 322 -427 316 -435L278 -488L379 -501C384 -475 386 -439 386 -392V-176C386 -133 378 -112 350 -94L386 -55C391 -50 395 -50 400 -57C420 -82 480 -142 569 -212L559 -227L424 -138V-400C424 -431 429 -459 435 -466C441 -473 441 -475 435 -481L411 -506L573 -526C585 -527 585 -532 576 -539Z"/>
</svg>