<svg xmlns="http://www.w3.org/2000/svg" viewBox="0 -1000 1000 1000">
	<path fill="#000000" d="M709 -618C712 -625 712 -630 705 -636L657 -679L643 -671C658 -637 662 -601 662 -539V-329C662 -275 659 -245 646 -227L678 -171C685 -160 692 -161 696 -171C700 -183 701 -209 701 -279V-529C701 -584 704 -605 709 -618ZM583 -743C592 -748 592 -753 583 -761L539 -799L517 -759L238 -722L200 -809L185 -803C197 -729 198 -674 189 -461C179 -224 148 -111 71 44L87 53C173 -85 218 -220 236 -554L564 -597C577 -599 578 -605 567 -614L543 -634L560 -704C564 -719 573 -737 583 -743ZM856 -782C859 -789 858 -794 852 -799L785 -856L774 -848C796 -805 801 -750 801 -675V-139C801 -58 796 -11 788 15L675 -62L664 -45C723 12 749 40 796 99C802 106 807 106 812 98C830 69 840 36 840 -23V-653C840 -716 843 -755 856 -782ZM635 -89L630 -107L431 -63V-178L576 -201C586 -203 586 -208 577 -214L537 -242C514 -229 483 -219 431 -210C433 -235 438 -250 446 -264C448 -268 447 -272 443 -276L403 -317L533 -346C547 -330 558 -314 568 -297C573 -289 579 -289 583 -297C589 -311 592 -334 594 -363L459 -449L449 -436C470 -417 491 -394 515 -367L320 -334L424 -472L597 -496C607 -497 608 -502 600 -508L561 -538C524 -517 513 -514 236 -481L287 -449C312 -458 328 -461 367 -465C299 -338 293 -332 240 -319L276 -284C280 -280 285 -280 293 -284C317 -294 343 -302 382 -312C390 -283 393 -245 394 -205L228 -180L277 -150C299 -158 331 -164 394 -173V-55L186 -8L252 30C276 19 391 -18 635 -89ZM520 -724L506 -626L237 -589C238 -618 239 -644 240 -688Z"/>
</svg>