<svg xmlns="http://www.w3.org/2000/svg" viewBox="0 -1000 1000 1000">
	<path fill="#000000" d="M867 -749L815 -785C779 -765 726 -754 236 -707L204 -798L187 -795C196 -292 152 -154 46 65L62 76C183 -122 215 -235 234 -673L864 -734C878 -735 879 -741 867 -749ZM944 -95V-117C851 -129 824 -141 791 -224L715 -409L880 -436C895 -439 895 -443 885 -450L845 -478C821 -465 783 -454 685 -436V-571C775 -614 791 -621 805 -624C816 -627 817 -633 805 -641L758 -671L746 -663C741 -647 662 -597 512 -527L520 -507C566 -524 608 -538 646 -554V-429L494 -401L541 -370C552 -376 579 -383 611 -389C564 -243 511 -150 434 -57L446 -43C523 -115 595 -216 646 -356V-87C646 -43 639 -14 622 12L660 86C669 103 675 104 679 85C684 64 685 23 685 -77V-402L688 -403L800 -84ZM558 -433L518 -461C496 -448 468 -439 428 -431V-546C490 -577 519 -590 531 -593C542 -596 544 -601 532 -609L485 -639L472 -630C470 -615 408 -574 254 -498L262 -480C303 -495 346 -511 389 -530V-424L233 -395L280 -364C291 -371 333 -380 376 -387C312 -232 257 -141 171 -39L184 -26C256 -93 333 -200 389 -311V-94C389 -51 382 -21 365 5L403 79C412 96 418 97 422 78C427 57 428 16 428 -84V-319L524 -236C534 -229 540 -232 540 -242C539 -265 532 -291 524 -311L428 -347V-396L554 -419C568 -422 568 -426 558 -433Z"/>
</svg>