<svg xmlns="http://www.w3.org/2000/svg" viewBox="0 -1000 1000 1000">
	<path fill="#000000" d="M858 -290C854 -309 848 -321 830 -350L672 -386C673 -422 676 -434 681 -440C686 -448 686 -452 678 -460L665 -473L733 -480C747 -481 748 -487 738 -494L716 -510L739 -614C743 -631 751 -642 764 -651C774 -658 774 -661 766 -669L731 -706L704 -680L409 -644L380 -701L365 -695C370 -678 379 -634 380 -617L387 -524C390 -490 383 -470 375 -460L410 -405C415 -397 420 -398 423 -406C427 -414 428 -425 425 -451L630 -470C634 -449 637 -425 637 -411V-321C637 -308 630 -282 623 -272L655 -224C661 -215 667 -216 669 -226C671 -236 672 -256 672 -315V-363C762 -326 807 -304 842 -283C855 -276 860 -278 858 -290ZM854 -762L813 -795C782 -780 654 -762 257 -731L221 -821L205 -816C216 -753 220 -694 214 -548C205 -267 170 -118 67 54L84 67C189 -95 233 -228 249 -470C252 -512 259 -657 260 -698L849 -750C862 -751 863 -755 854 -762ZM954 -167L949 -185C821 -168 782 -172 484 -262C497 -280 510 -298 522 -317C542 -346 550 -355 563 -359C570 -362 571 -367 565 -375L535 -414L500 -384L376 -369C382 -382 385 -386 389 -388C396 -391 398 -396 393 -403L361 -448L348 -444C353 -395 310 -285 239 -195L253 -184C284 -216 307 -247 328 -280C364 -269 399 -259 429 -248C363 -163 312 -121 201 -46L211 -31C278 -69 338 -111 388 -158C393 -138 399 -105 400 -87L403 -18C404 12 401 28 393 40L420 94C426 107 434 105 438 92C441 81 442 55 441 34L744 8C762 6 764 0 749 -9L715 -30L728 -106C731 -123 737 -138 744 -146C773 -135 789 -128 798 -122ZM703 -644L683 -511L424 -483L420 -535L651 -561C664 -562 665 -568 655 -576L627 -600C603 -589 574 -584 419 -565L415 -614ZM496 -354C480 -322 464 -296 448 -273L342 -305C348 -316 354 -326 360 -337ZM701 -163L423 -137L405 -175C426 -195 445 -216 464 -237C579 -202 652 -180 701 -163ZM691 -127L680 -22L440 5L436 -103Z"/>
</svg>