<svg xmlns="http://www.w3.org/2000/svg" viewBox="0 -1000 1000 1000">
	<path fill="#000000" d="M937 -307C918 -372 909 -419 902 -497L885 -496L876 -338C836 -321 759 -313 706 -323C665 -331 646 -364 649 -427L656 -565C658 -597 667 -608 687 -621C696 -626 696 -630 688 -638L642 -684L606 -636L438 -609C445 -640 459 -707 464 -728C470 -751 480 -769 486 -776C491 -781 492 -786 487 -793L426 -863L410 -854C423 -806 417 -708 392 -603L170 -568L212 -529C245 -542 279 -548 382 -565C334 -392 248 -297 40 -184L49 -166C277 -273 376 -383 428 -571L612 -599L605 -432C602 -350 630 -305 677 -286C720 -270 844 -270 927 -290C937 -292 940 -297 937 -307ZM742 -32L557 -211L540 -197C569 -165 606 -112 639 -60L303 -10L452 -227C484 -273 491 -282 505 -293C515 -301 515 -305 510 -314L463 -390L446 -387C452 -322 417 -237 283 -42C263 -16 244 -7 207 -3L249 49C256 58 259 58 270 53C285 46 338 31 362 26L656 -34C676 0 694 32 706 58C713 75 720 75 726 62C734 44 743 2 742 -32Z"/>
</svg>