<svg xmlns="http://www.w3.org/2000/svg" viewBox="0 -1000 1000 1000">
	<path fill="#000000" d="M907 -337L859 -377C840 -366 794 -355 638 -343V-545L828 -563C845 -564 846 -568 834 -578L791 -613C776 -601 723 -590 638 -583V-654C638 -732 641 -759 652 -780C656 -788 655 -793 648 -799L585 -855L572 -845C591 -800 595 -751 595 -668V-579L421 -563C422 -701 427 -725 438 -744C442 -752 441 -758 434 -764L364 -828L352 -818C374 -768 378 -722 377 -558L160 -538L211 -495C239 -506 287 -514 377 -522C377 -460 374 -394 365 -323L82 -300L133 -256C166 -267 221 -275 360 -285C336 -140 253 -27 73 97L83 113C273 -2 372 -114 404 -288L595 -302V-93C595 -32 592 -14 573 17L616 95C624 109 630 109 632 95C637 67 638 58 638 -86V-304L901 -322C917 -323 918 -327 907 -337ZM595 -340L409 -326C416 -380 420 -450 421 -525L595 -541Z"/>
</svg>