<svg xmlns="http://www.w3.org/2000/svg" viewBox="0 -1000 1000 1000">
	<path fill="#000000" d="M330 -583C337 -589 336 -593 330 -597L285 -635L260 -598L159 -582L130 -652L112 -648C120 -621 128 -567 129 -538L133 -373C134 -332 127 -308 117 -292L156 -233C162 -225 167 -226 170 -237C172 -246 174 -277 174 -321L324 -342C333 -343 333 -348 327 -354L298 -384L308 -528C310 -554 313 -566 330 -583ZM915 -14L871 -55C842 -42 799 -35 433 -13V-690L870 -727C880 -728 882 -732 873 -740L833 -781C809 -767 775 -759 432 -726L390 -820L375 -815C384 -771 391 -692 391 -641V-74C391 -24 385 -2 366 20L410 50C415 53 419 52 426 45C439 29 451 24 492 22L911 -2C921 -2 922 -7 915 -14ZM835 -521L795 -555L764 -522L663 -508C663 -583 666 -603 674 -617C677 -623 677 -626 671 -632L617 -688L606 -679C618 -645 623 -615 623 -504L529 -492L499 -557L485 -550C493 -515 497 -484 497 -461V-355C497 -313 493 -288 483 -272L518 -212C523 -204 529 -204 532 -213C535 -221 536 -232 536 -293V-456L623 -467V-223C623 -172 617 -142 608 -121L645 -54C651 -41 655 -41 658 -56C662 -72 663 -101 663 -194V-472L774 -486C770 -375 759 -304 743 -259L688 -295L680 -282C709 -246 722 -229 750 -189C756 -181 759 -181 765 -189C785 -220 805 -290 812 -428C814 -469 818 -483 834 -505C839 -512 839 -518 835 -521ZM268 -562L261 -373L173 -357L166 -544Z"/>
</svg>