<svg xmlns="http://www.w3.org/2000/svg" viewBox="0 -1000 1000 1000">
	<path fill="#000000" d="M594 -680L479 -821L464 -810L557 -601C561 -592 566 -591 573 -604C581 -618 587 -637 594 -680ZM386 -613C391 -617 391 -623 386 -627L336 -668L309 -626L183 -600L157 -674L139 -669C148 -614 152 -559 152 -533L154 -401C155 -356 152 -320 141 -302L183 -240C189 -232 194 -233 197 -245C199 -253 199 -263 195 -355L361 -382C373 -383 375 -387 365 -396L337 -421L355 -562C358 -584 369 -601 386 -613ZM920 -267L877 -299C853 -291 762 -271 653 -258V-393L822 -417C836 -419 837 -422 825 -432L786 -464C759 -452 712 -438 653 -428V-549L878 -583C888 -584 890 -591 882 -598L844 -630C806 -616 750 -600 697 -591C751 -714 772 -753 791 -768C799 -774 800 -778 794 -785L739 -855L725 -849C737 -800 727 -749 661 -586L400 -550L451 -512C479 -521 526 -531 610 -543V-422L421 -395L469 -359C495 -367 551 -378 610 -388V-253L316 -224L368 -180C408 -190 482 -203 610 -218V-106C610 -50 601 10 587 28L632 105C638 114 642 113 646 99C651 80 653 42 653 -72V-222L916 -252C930 -254 931 -259 920 -267ZM317 -590L301 -413L194 -389L188 -564Z"/>
</svg>