<svg xmlns="http://www.w3.org/2000/svg" viewBox="0 -1000 1000 1000">
	<path fill="#000000" d="M956 -231L955 -248C860 -250 797 -277 747 -339L598 -525L881 -549C899 -550 901 -555 888 -566L835 -606C793 -588 693 -571 446 -547C471 -603 493 -666 510 -727L738 -748C751 -749 753 -755 742 -763L694 -801C660 -785 561 -762 209 -736L266 -693C285 -701 327 -711 456 -723C440 -658 424 -606 395 -543L104 -518L165 -476C194 -483 271 -495 379 -507C324 -391 223 -288 52 -173L61 -159C160 -215 246 -275 306 -338C311 -310 313 -294 315 -231L319 -108C321 -65 312 -36 300 -18L338 61C346 76 350 76 356 61C360 52 362 34 361 -4L677 -27C691 -28 691 -32 683 -40L646 -74L664 -202C672 -257 677 -271 695 -281C703 -286 703 -291 696 -299L649 -347L621 -316L355 -283L328 -361C368 -407 405 -462 430 -511L560 -522L787 -210ZM628 -277L603 -65L360 -38L355 -247Z"/>
</svg>