<svg xmlns="http://www.w3.org/2000/svg" viewBox="0 -1000 1000 1000">
	<path fill="#000000" d="M820 -664L765 -707L734 -673L549 -642C562 -664 575 -687 589 -713C615 -763 623 -774 627 -777C641 -787 642 -793 632 -805L584 -862L570 -855C589 -775 475 -563 349 -417L361 -407C426 -470 483 -537 533 -615L551 -602C590 -616 638 -623 723 -632C694 -579 664 -538 611 -471L631 -459C762 -611 781 -628 816 -642C831 -648 831 -655 820 -664ZM363 -606L318 -648L294 -609L169 -593L146 -668L130 -664C136 -627 139 -588 139 -568L141 -373C141 -346 135 -321 122 -301L157 -244C168 -227 175 -230 177 -245C179 -262 180 -280 179 -327L346 -346C359 -347 360 -357 348 -367L323 -388L338 -543C339 -558 345 -570 362 -586C371 -594 371 -598 363 -606ZM855 -397C864 -407 863 -411 855 -417L811 -454L783 -417L642 -397L688 -361C711 -368 742 -374 794 -380L782 -244L629 -231L674 -193C692 -200 714 -203 780 -211L770 -112C765 -62 758 -35 748 -21L710 -52C684 -41 629 -34 460 -24L459 -182L590 -200C603 -202 604 -206 593 -215L556 -243C536 -233 505 -224 458 -217L457 -346C545 -387 569 -397 595 -404C603 -406 605 -411 601 -422L582 -475L568 -473C559 -445 536 -424 454 -372L420 -435L402 -429C411 -391 417 -356 417 -322V-55C417 -25 413 0 404 22L444 89C451 100 456 100 459 88C462 75 462 58 460 12L739 -4L763 63C767 75 774 75 779 65C793 36 801 6 807 -64L831 -342C833 -368 841 -382 855 -397ZM300 -575L286 -377L178 -364L175 -558Z"/>
</svg>