<svg xmlns="http://www.w3.org/2000/svg" viewBox="0 -1000 1000 1000">
	<path fill="#000000" d="M337 -600C345 -605 345 -610 336 -617L288 -650L262 -608L166 -587L132 -659L117 -652C125 -628 133 -576 134 -555L141 -400C143 -356 135 -339 126 -323L164 -260C169 -252 175 -253 178 -264C181 -275 182 -292 179 -362L324 -387C333 -388 332 -393 325 -399L299 -424L309 -525C314 -576 318 -587 337 -600ZM933 -199L888 -232C867 -221 810 -211 744 -204L767 -514C769 -543 777 -562 793 -575C801 -582 801 -585 793 -592L748 -628L722 -592L592 -576L604 -663L887 -692C898 -693 898 -697 890 -703L838 -740C803 -722 714 -704 608 -693C619 -768 623 -779 635 -793C639 -799 640 -802 632 -809L571 -861L560 -851C574 -815 578 -777 568 -690L335 -671L379 -632C413 -640 466 -647 565 -659L556 -573L457 -561L421 -615L406 -608C418 -579 424 -538 426 -470L433 -172L232 -151L284 -114C313 -123 396 -136 502 -147C491 -102 420 -26 262 91L269 105C339 69 438 -3 501 -56C516 -68 537 -80 545 -82C552 -83 554 -90 552 -95L522 -149L930 -186C942 -187 943 -193 933 -199ZM841 52C844 37 843 14 839 -14L642 -127L633 -114L828 59C833 63 840 61 841 52ZM273 -575L262 -411L178 -394L173 -552ZM727 -559L703 -199L469 -175L468 -243L674 -265C682 -266 684 -269 677 -275L640 -307C624 -297 592 -290 468 -277L466 -338L681 -364C689 -365 691 -370 684 -375L645 -403C621 -392 592 -386 466 -371L464 -431L684 -459C693 -460 693 -465 687 -469L646 -499C620 -486 585 -480 464 -463L462 -527Z"/>
</svg>