<svg xmlns="http://www.w3.org/2000/svg" viewBox="0 -1000 1000 1000">
	<path fill="#000000" d="M353 -592C358 -597 358 -601 353 -606L309 -644L280 -604L176 -583L139 -669L122 -662C133 -625 140 -576 141 -538L146 -360C147 -310 141 -284 131 -270L170 -198C175 -189 181 -190 184 -200C189 -219 190 -234 187 -319L333 -346C344 -348 345 -353 337 -362L314 -387L325 -520C328 -561 332 -571 353 -592ZM972 64V45C853 38 806 21 661 -77L639 -92C678 -128 714 -168 743 -209C759 -233 780 -252 795 -256C805 -259 806 -262 799 -271L758 -317L721 -282L534 -249C547 -263 556 -270 565 -276C569 -279 569 -281 567 -288L551 -329L804 -361C812 -362 813 -366 807 -372L776 -403L794 -574C799 -625 806 -640 824 -649C832 -653 832 -659 826 -664L777 -705L748 -669L582 -643C604 -711 609 -726 617 -742L882 -767C895 -768 896 -773 886 -782L842 -819C796 -797 689 -778 306 -750L363 -708C406 -720 458 -728 562 -738C564 -713 560 -683 549 -639L460 -625L425 -678L409 -671C417 -647 426 -602 427 -563L431 -447C434 -373 431 -356 420 -338L456 -284C463 -275 468 -275 471 -286C473 -295 474 -301 473 -320L526 -327C513 -274 432 -174 280 -63L290 -48C344 -78 401 -121 460 -176C478 -172 506 -155 584 -91C496 -18 378 49 243 93L250 110C385 78 512 14 612 -68L811 85ZM756 -635L741 -392L472 -351L469 -413L713 -452C722 -453 722 -460 716 -465L685 -491C661 -479 619 -469 468 -443L466 -499L715 -539C724 -540 724 -546 718 -551L683 -580C650 -564 574 -547 465 -531L463 -591ZM288 -570L276 -374L186 -354L179 -550ZM713 -245C690 -202 655 -156 608 -113C532 -165 516 -182 511 -194L477 -191C487 -201 498 -212 508 -222L528 -208C559 -219 597 -228 713 -245Z"/>
</svg>