<svg xmlns="http://www.w3.org/2000/svg" viewBox="0 -1000 1000 1000">
	<path fill="#000000" d="M866 -678L824 -712C787 -698 745 -689 699 -684C721 -754 727 -769 734 -774C744 -782 744 -786 736 -794L681 -852L669 -844C674 -782 673 -756 659 -681L504 -667L501 -730C500 -752 502 -770 509 -780C513 -785 512 -789 506 -793L444 -833L436 -820C448 -801 459 -776 461 -748L466 -664L329 -649L372 -609C404 -621 422 -624 468 -629C471 -591 468 -567 460 -552L494 -510C501 -500 507 -503 508 -515C510 -528 509 -570 506 -632L652 -645C645 -610 636 -578 623 -539L642 -532C660 -577 674 -610 688 -648L863 -665C874 -666 875 -671 866 -678ZM343 -613L299 -649L273 -613L163 -595L143 -675L125 -672C130 -635 131 -586 131 -564L135 -333C136 -299 132 -281 119 -262L154 -205C164 -189 171 -190 174 -205C177 -223 178 -239 176 -296L175 -326L321 -348C337 -350 338 -358 327 -367L303 -386L315 -546C317 -573 323 -584 341 -595C352 -602 352 -606 343 -613ZM932 -295V-313C821 -322 781 -339 678 -448L598 -534C602 -538 605 -540 608 -541C616 -545 616 -547 611 -555L571 -613L557 -607C556 -516 451 -366 246 -215L258 -201C435 -323 491 -379 581 -511L789 -278ZM761 -282L725 -310C696 -297 646 -286 599 -280C599 -330 602 -342 613 -358C617 -364 616 -368 610 -374L560 -425L547 -417C558 -392 561 -364 561 -277L362 -259L406 -222C431 -230 480 -238 561 -245V-44C561 -23 558 -5 554 10L439 -67L429 -53C496 7 527 41 567 96C573 104 580 104 583 95C595 64 599 40 599 -38V-249L758 -266C772 -267 773 -272 761 -282ZM811 -88L656 -201L644 -188C702 -131 751 -65 794 6C800 15 806 14 808 5C813 -18 814 -55 811 -88ZM498 -157L469 -212L458 -208C446 -156 397 -83 267 28L279 41C334 3 400 -52 439 -93C471 -128 484 -137 495 -143C502 -146 502 -150 498 -157ZM278 -578L266 -377L174 -362L168 -562Z"/>
</svg>