<svg xmlns="http://www.w3.org/2000/svg" viewBox="0 -1000 1000 1000">
	<path fill="#000000" d="M343 -592C350 -598 350 -601 343 -607L302 -643L277 -607L150 -590L124 -664L107 -657C113 -631 119 -583 120 -545L122 -402C123 -357 114 -323 106 -306L145 -248C153 -237 159 -238 160 -254C162 -265 163 -298 161 -335L326 -356C337 -357 338 -363 328 -371L296 -396L318 -538C323 -570 326 -577 343 -592ZM896 -520L858 -550C833 -535 800 -529 619 -511V-602L777 -620C790 -621 791 -624 780 -635L751 -664C737 -652 705 -644 619 -635V-721L811 -743C825 -744 826 -750 814 -760L776 -791C737 -769 692 -759 361 -725L410 -690C427 -695 472 -702 581 -717V-506L481 -495V-569C481 -580 484 -596 488 -604C493 -614 492 -618 483 -626L435 -669L420 -657C436 -632 442 -605 442 -582V-491L314 -478L361 -441C378 -446 416 -453 446 -457C448 -439 448 -417 444 -392L430 -304C424 -273 418 -266 395 -257L429 -220C437 -211 440 -210 448 -219C455 -227 462 -228 532 -236L776 -264C751 -112 722 -10 703 29L604 -37L593 -22C636 22 679 71 697 103C702 112 708 112 716 101C746 58 768 -1 812 -220C819 -253 826 -270 844 -282C852 -287 853 -293 843 -302L804 -336L775 -299L457 -263L474 -342L791 -377C804 -378 805 -384 793 -393L757 -421C738 -408 675 -398 482 -378C486 -396 488 -405 495 -413C501 -421 500 -425 493 -432L467 -459L893 -504C907 -505 908 -510 896 -520ZM710 -133L642 -221L627 -211L674 -83C679 -71 685 -71 692 -83C700 -100 707 -119 710 -133ZM611 -106L554 -208L540 -199L566 -63C568 -51 574 -50 582 -57C598 -71 604 -79 611 -106ZM514 -82L480 -196L463 -192L465 -44C465 -30 470 -28 480 -37C498 -53 504 -63 514 -82ZM407 -201H388C374 -110 354 -79 327 -60L344 -5C348 6 352 6 361 -4C393 -39 405 -106 407 -201ZM282 -573L260 -385L160 -371L154 -555Z"/>
</svg>