<svg xmlns="http://www.w3.org/2000/svg" viewBox="0 -1000 1000 1000">
	<path fill="#000000" d="M492 -730L396 -828L379 -816L458 -662C465 -648 472 -648 478 -663C483 -676 489 -703 492 -730ZM853 -646L760 -716L745 -701L832 -570C840 -558 846 -559 850 -571C856 -588 857 -624 853 -646ZM632 -641L596 -670C561 -651 497 -639 330 -621L285 -666L258 -626L163 -612L143 -667L127 -663C132 -634 133 -613 134 -578L138 -401C139 -373 135 -349 122 -330L157 -273C168 -256 175 -259 177 -274C179 -284 179 -299 177 -344L300 -363C311 -365 312 -371 305 -379L288 -397L303 -562C305 -581 309 -595 317 -602L340 -583C383 -596 438 -605 630 -628C639 -629 640 -635 632 -641ZM885 -512L850 -538C825 -527 782 -516 718 -505C722 -556 725 -615 727 -686C729 -745 733 -759 742 -779C745 -786 744 -792 738 -799L693 -849L680 -841C690 -806 692 -786 688 -669C686 -603 683 -548 680 -500L578 -484L606 -454C616 -457 649 -463 678 -467C670 -379 660 -314 645 -253C609 -106 567 -15 477 97L491 111C573 30 646 -90 679 -234C697 -310 708 -374 716 -473L880 -496C895 -498 895 -505 885 -512ZM583 -518C590 -524 590 -527 582 -535L541 -573L513 -531L391 -512L368 -558L351 -550C359 -528 363 -484 363 -462L365 -385C365 -357 362 -343 355 -334L385 -287C392 -277 401 -283 402 -321L440 -328C447 -291 449 -254 449 -224V-98C449 -49 447 -32 444 -21L360 -85L350 -73C399 -17 425 18 449 58C456 68 461 68 467 58C479 38 487 0 487 -66V-223C487 -245 495 -277 500 -281C504 -284 504 -288 498 -295L465 -332L567 -348C580 -350 581 -356 570 -365L549 -381L561 -483C562 -492 571 -508 583 -518ZM596 -194L511 -247L499 -231C542 -184 565 -157 580 -133C586 -124 594 -124 595 -134C597 -144 598 -165 596 -194ZM933 30C919 -16 915 -40 904 -138H881L878 14C860 22 840 24 806 24C766 24 757 4 757 -59V-253C757 -309 759 -327 768 -351C771 -359 770 -365 765 -370L725 -414L713 -410C716 -382 717 -368 717 -290V-42C717 30 739 52 792 63C813 67 886 62 927 49C935 47 936 41 933 30ZM412 -212L391 -266L375 -261C365 -222 316 -140 225 -38L238 -25C275 -56 347 -127 378 -168C389 -183 399 -193 405 -195C410 -197 415 -203 412 -212ZM266 -594L251 -390L176 -379L170 -578ZM521 -499L512 -371L401 -352L397 -479Z"/>
</svg>