<svg xmlns="http://www.w3.org/2000/svg" viewBox="0 -1000 1000 1000">
	<path fill="#000000" d="M878 -482C867 -516 859 -558 855 -600H838L834 -504C818 -493 789 -485 734 -486C662 -487 654 -490 653 -596L805 -612C816 -613 816 -618 807 -627L788 -645L795 -699C798 -717 806 -733 822 -744C829 -749 830 -752 822 -760L782 -803L758 -762L648 -750L621 -799L605 -793C614 -758 617 -738 618 -692V-553C618 -467 640 -451 721 -448C775 -446 835 -452 868 -463C879 -467 881 -471 878 -482ZM595 -468C587 -488 580 -533 580 -572H560L549 -486C539 -480 500 -471 469 -471C421 -471 409 -483 408 -583L561 -601C570 -602 571 -608 562 -616L538 -637L545 -684C548 -703 556 -719 570 -726C578 -730 579 -736 573 -743L535 -788L509 -748L408 -737L375 -790L360 -783C368 -750 373 -715 373 -674L374 -540C375 -455 395 -442 464 -438C502 -436 545 -441 586 -451C597 -454 599 -458 595 -468ZM342 -659C351 -666 352 -671 342 -681L302 -722L272 -676L166 -659L141 -739L125 -735C130 -698 131 -662 131 -639L135 -412C136 -383 132 -360 119 -340L152 -283C161 -267 167 -269 172 -283C175 -293 176 -322 175 -392L331 -413C348 -416 349 -421 336 -430L304 -449L318 -611C320 -629 327 -647 342 -659ZM923 -184L890 -218C860 -209 791 -197 667 -188L679 -294L838 -307C849 -308 850 -312 840 -321L801 -357C773 -342 729 -333 684 -328C690 -374 697 -390 703 -398C708 -405 708 -410 701 -416L655 -455L644 -444C651 -426 652 -397 646 -325L515 -316C514 -359 515 -371 518 -383C520 -391 518 -394 512 -398L466 -431L456 -423C468 -399 476 -365 479 -314L337 -304L388 -265C410 -271 436 -274 480 -279L482 -176L247 -160L294 -119C328 -129 488 -147 922 -170C931 -170 933 -174 923 -184ZM823 62C823 40 820 21 810 -15L623 -127L616 -114L808 67C817 74 823 72 823 62ZM532 -60L517 -132L501 -131C496 -82 380 22 258 78L266 95C344 67 416 27 479 -22C504 -41 511 -44 523 -44C530 -44 534 -50 532 -60ZM761 -730L750 -638L653 -627V-718ZM512 -716L501 -628L408 -616V-704ZM282 -642L267 -439L174 -425L169 -628ZM643 -291L634 -186L517 -178L515 -281Z"/>
</svg>