<svg xmlns="http://www.w3.org/2000/svg" viewBox="0 -1000 1000 1000">
	<path fill="#000000" d="M780 -809L736 -843L710 -808L467 -774L443 -836L426 -830C431 -805 434 -774 435 -744L439 -623C441 -577 440 -570 430 -553L463 -497C469 -487 475 -490 476 -497C480 -510 481 -520 480 -534L762 -573C776 -574 778 -578 766 -588L741 -612L758 -741C761 -767 765 -778 779 -790C789 -798 789 -803 780 -809ZM331 -631C338 -636 338 -640 331 -646L288 -681L262 -644L158 -627L129 -698L112 -692C119 -674 126 -626 127 -584L131 -412C132 -375 130 -366 121 -345L153 -296C158 -290 163 -288 166 -300C169 -313 170 -332 168 -398L311 -421C317 -422 319 -427 312 -433L287 -460L305 -584C309 -611 313 -618 331 -631ZM957 -8V-25C850 -37 810 -52 730 -168C752 -208 771 -249 788 -294C808 -349 810 -354 831 -382C838 -392 838 -398 834 -401L791 -436L760 -397L568 -360V-447L889 -486C903 -488 904 -490 893 -499L849 -532C819 -515 721 -496 321 -452L366 -419C372 -421 379 -423 390 -424V-117L241 -69L303 -38C330 -56 381 -78 531 -134V-59C531 -10 526 7 513 26L547 80C551 87 557 87 560 80C564 67 566 57 567 34C621 -9 671 -67 713 -137L808 6ZM719 -776L703 -602L479 -567L475 -636L659 -664C672 -666 673 -671 664 -680L638 -705C619 -694 582 -683 474 -668L470 -741ZM266 -612L252 -444L167 -432L162 -593ZM531 -352L499 -374C481 -365 458 -358 428 -350V-429L531 -443ZM531 -162L428 -129V-211L515 -231C530 -234 531 -240 520 -247L490 -267C476 -257 459 -249 428 -242V-319L531 -339ZM765 -365C749 -307 730 -253 707 -202L676 -247C659 -273 651 -290 645 -310L604 -305L602 -295C617 -283 630 -268 659 -221L691 -172C656 -103 613 -44 568 5V-149C591 -159 614 -168 637 -176L631 -192L568 -173V-347L606 -328C626 -337 654 -343 765 -365Z"/>
</svg>