<svg xmlns="http://www.w3.org/2000/svg" viewBox="0 -1000 1000 1000">
	<path fill="#000000" d="M840 -770L799 -808L774 -776L433 -733L408 -793L389 -787C397 -748 400 -718 401 -691L403 -620C404 -595 399 -579 390 -566L429 -498C433 -492 437 -493 439 -500C442 -513 443 -529 443 -548L829 -597C838 -598 838 -604 831 -610L803 -633L812 -707C815 -732 825 -748 839 -756C846 -760 846 -764 840 -770ZM888 -528L854 -554C819 -536 765 -522 336 -473L376 -440C410 -448 512 -463 884 -507C905 -509 905 -515 888 -528ZM348 -586C356 -594 356 -598 347 -606L309 -641L284 -603L169 -587L145 -656L128 -651C134 -617 138 -578 138 -555L142 -348C143 -321 139 -297 127 -279L158 -224C168 -207 173 -210 177 -225C180 -235 181 -256 180 -333L335 -354C353 -356 354 -362 341 -371L315 -390L325 -538C327 -559 331 -569 348 -586ZM948 17V-4C826 -7 801 -18 700 -135C796 -214 811 -224 825 -228C832 -230 834 -233 830 -243L806 -300L793 -298C787 -268 770 -239 685 -155C664 -178 632 -218 605 -250C608 -256 611 -259 614 -263L777 -284C786 -285 786 -289 778 -298L759 -318L765 -376C766 -390 770 -398 787 -412C792 -416 792 -422 787 -426L745 -461L721 -427L469 -390L448 -434L433 -427C438 -400 441 -374 441 -355L442 -290C442 -278 439 -265 432 -250L464 -197C471 -186 477 -189 480 -206C481 -214 482 -226 483 -246L551 -255C485 -163 396 -74 237 27L247 43C319 3 411 -55 494 -127V-18C494 37 488 46 448 72L501 93C511 97 514 96 519 89C537 64 554 47 669 -46L658 -66L535 18V-79C535 -88 541 -104 548 -114C552 -120 551 -123 547 -126L519 -154C537 -173 562 -202 584 -227L782 35ZM776 -742L766 -625L682 -613L686 -731ZM647 -727L645 -608L568 -597V-717ZM533 -593L441 -581L439 -701L533 -713ZM288 -572L280 -381L179 -364L174 -554ZM729 -394L722 -310L481 -278L480 -360Z"/>
</svg>