<svg xmlns="http://www.w3.org/2000/svg" viewBox="0 -1000 1000 1000">
	<path fill="#000000" d="M977 -449V-466C869 -474 838 -492 611 -774C617 -783 626 -789 631 -793C640 -799 641 -804 634 -813L587 -871L571 -866C575 -791 471 -608 298 -431L282 -447L298 -611C301 -637 305 -652 315 -660C324 -667 324 -672 315 -680L282 -710L255 -674L146 -656L117 -727L102 -721C107 -701 112 -661 113 -626L117 -489C118 -440 114 -403 104 -386L139 -318C147 -302 153 -304 154 -320C155 -331 156 -366 155 -395L284 -416C265 -398 247 -380 228 -362L240 -349C281 -380 338 -431 377 -470C379 -455 381 -438 382 -423L386 -357C387 -335 385 -317 377 -297L408 -246C414 -236 420 -235 423 -244C424 -251 427 -263 425 -275L799 -311C815 -313 816 -317 805 -329L787 -348L804 -477L836 -438ZM762 -233C772 -242 771 -247 761 -255L724 -283L699 -244L468 -214L440 -258L428 -252C437 -223 439 -199 440 -162L442 -30C442 1 439 19 430 38L460 101C465 111 473 112 476 100C480 84 482 73 480 33L681 12L705 72C709 82 715 84 720 74C727 59 731 34 736 -27L746 -185C748 -214 750 -222 762 -233ZM761 -533L402 -488L398 -492C421 -516 444 -542 465 -568L481 -555C508 -566 542 -572 665 -586C683 -588 684 -593 670 -604L641 -627C618 -614 571 -601 484 -591C521 -639 559 -690 594 -747ZM261 -641L249 -445L154 -426L149 -625ZM765 -500L751 -341L602 -324V-482ZM563 -320L424 -304L414 -461L563 -478ZM707 -214L700 -82C698 -39 694 -18 688 -8L655 -29C623 -14 586 -8 478 1L476 -79L669 -104C685 -106 686 -111 673 -120L644 -142C624 -130 588 -122 475 -110L473 -183ZM718 -445L693 -478L682 -471C682 -448 672 -420 638 -357L654 -348C688 -397 705 -416 717 -424C725 -430 726 -434 718 -445ZM530 -399L457 -443L450 -432L506 -355C515 -343 520 -344 524 -355C527 -364 529 -377 530 -399Z"/>
</svg>