<svg xmlns="http://www.w3.org/2000/svg" viewBox="0 -1000 1000 1000">
	<path fill="#000000" d="M341 -647C349 -653 350 -659 341 -667L296 -704L269 -663L169 -648L139 -733L124 -727C129 -709 135 -655 136 -630L141 -464C142 -417 137 -386 129 -372L158 -314C168 -293 174 -296 177 -317C179 -329 179 -355 178 -400L317 -419C335 -421 334 -427 324 -436L300 -458L317 -613C318 -625 327 -637 341 -647ZM955 -322V-337C868 -343 841 -358 760 -494L881 -509C899 -511 900 -517 887 -526L854 -549C837 -538 800 -529 755 -524V-611C795 -625 831 -638 846 -643C859 -647 861 -652 851 -662L814 -696L805 -692C802 -670 749 -634 636 -593L639 -577C667 -583 695 -589 719 -597V-521L642 -514L606 -540C599 -535 576 -528 549 -523V-599C574 -610 597 -616 608 -618C622 -621 624 -625 615 -635L586 -669L574 -667C561 -638 522 -616 430 -579L433 -564C448 -566 483 -573 513 -586V-519L408 -505L443 -474C460 -479 482 -485 513 -490V-487C484 -430 429 -359 380 -312L388 -298C451 -351 487 -383 513 -419V-364C513 -332 508 -308 497 -293L525 -242C534 -226 539 -228 545 -246C548 -259 549 -271 549 -349V-439L605 -374C614 -364 620 -364 622 -378C624 -392 624 -408 623 -421L549 -462V-493L613 -501L646 -477C660 -482 687 -486 716 -490C684 -426 616 -342 559 -295L568 -282C615 -316 680 -376 719 -428V-370C719 -345 712 -323 703 -312L734 -259C743 -243 749 -246 752 -263C754 -273 755 -279 755 -345V-459L837 -310ZM881 -759L848 -792L834 -790C805 -769 722 -754 410 -732L381 -824L364 -819C374 -744 374 -682 359 -445C348 -257 285 -89 169 47L185 60C350 -123 399 -268 413 -699L876 -742C892 -743 892 -748 881 -759ZM906 -10L860 -43C831 -29 785 -21 672 -13V-134L838 -151C853 -152 856 -160 842 -169L803 -194C785 -180 762 -175 672 -165C673 -190 679 -213 688 -227C694 -237 692 -242 687 -248L636 -301L620 -292C635 -265 636 -248 636 -149V-11L534 -4V-102C534 -117 539 -134 547 -145C553 -153 553 -158 546 -166L497 -220L484 -214C490 -201 497 -144 497 -107V-2L324 12L363 48C390 37 447 31 901 8C919 7 920 0 906 -10ZM281 -631L264 -447L178 -432L174 -618Z"/>
</svg>