<svg xmlns="http://www.w3.org/2000/svg" viewBox="0 -1000 1000 1000">
	<path fill="#000000" d="M862 -769L802 -816L772 -772L215 -728L182 -817L164 -813C172 -773 176 -695 176 -651L186 -136C187 -48 185 -21 174 5L213 80C219 91 225 87 228 79C230 70 232 51 231 27L751 -13L786 65C790 73 796 74 800 65C810 41 816 3 819 -144L831 -685C832 -721 840 -739 861 -755C866 -759 867 -765 862 -769ZM791 -737L775 -135C773 -67 769 -44 755 -34L722 -62C702 -47 535 -25 231 -9L218 -693ZM535 -636L452 -701L440 -692L509 -585C514 -577 524 -576 527 -587C533 -605 535 -621 535 -636ZM744 -582L708 -613C668 -593 586 -577 244 -547L286 -513C341 -524 427 -536 741 -568C754 -569 753 -574 744 -582ZM656 -486L619 -514C586 -496 513 -481 312 -464L366 -430C402 -440 445 -447 650 -471C663 -472 665 -478 656 -486ZM667 -392L627 -419C591 -402 531 -389 334 -373L380 -336C415 -346 456 -354 661 -377C674 -378 676 -385 667 -392ZM653 -293L608 -329L586 -296L397 -274L374 -319L359 -313C364 -297 367 -269 367 -256L369 -153C369 -136 365 -116 360 -105L390 -65C396 -58 403 -59 404 -70C406 -80 406 -94 405 -112L639 -136C651 -137 653 -143 643 -151L617 -171L633 -246C636 -263 640 -269 652 -276C661 -281 661 -286 653 -293ZM592 -265L577 -163L405 -141L403 -242Z"/>
</svg>