<svg xmlns="http://www.w3.org/2000/svg" viewBox="0 -1000 1000 1000">
	<path fill="#000000" d="M955 -37V-54C839 -62 809 -69 694 -225C752 -276 804 -313 821 -318C836 -323 838 -326 829 -343L806 -391L790 -387C794 -364 770 -327 681 -243C661 -270 638 -301 613 -336V-379L775 -405C789 -406 789 -411 780 -418L756 -439L768 -533L929 -554C942 -555 942 -561 932 -568L891 -601C860 -586 824 -577 772 -568L778 -620C784 -658 789 -674 802 -682C810 -687 809 -693 801 -698L755 -729L732 -692L613 -673C613 -747 618 -784 627 -799C633 -808 632 -813 625 -819L574 -858L563 -853C571 -817 574 -785 574 -668L393 -639L444 -603C467 -612 514 -624 574 -634V-540L408 -516L366 -550C342 -537 309 -526 277 -519V-658C277 -722 282 -753 294 -774C297 -780 296 -784 291 -788L223 -839L211 -832C232 -792 238 -758 238 -659V-514L53 -482L106 -446C128 -456 180 -468 238 -480V-236L48 -141L106 -109C131 -130 161 -151 388 -292L380 -308L277 -257V-485L398 -509L440 -478C462 -487 489 -495 574 -508V-405L389 -379L436 -344C454 -354 473 -358 574 -374V-240L290 -51L352 -27C373 -52 453 -119 574 -213V-90C574 -52 571 -19 566 12L453 -52L448 -36C490 -4 545 53 576 94C581 102 586 102 592 95C605 78 613 34 613 -60V-292L795 -18ZM501 -266L411 -332L402 -325L466 -214C476 -200 481 -201 486 -209C494 -226 498 -243 501 -266ZM741 -662L731 -563L613 -545V-640ZM727 -528L717 -434L613 -411V-513Z"/>
</svg>