<svg xmlns="http://www.w3.org/2000/svg" viewBox="0 -1000 1000 1000">
	<path fill="#000000" d="M417 -516L379 -543C367 -535 327 -522 275 -514V-646C275 -691 280 -725 291 -750C295 -759 295 -763 289 -770L231 -835L217 -829C233 -791 236 -752 236 -668V-507L70 -482L119 -446C138 -453 193 -468 236 -474V-226L59 -147L129 -120C151 -141 200 -171 408 -279L401 -297L275 -242V-480L415 -504C425 -506 425 -510 417 -516ZM879 -377C886 -382 887 -387 879 -394L834 -433L809 -396L525 -360C534 -371 542 -382 551 -394C564 -414 573 -421 584 -428C593 -433 594 -437 591 -443L568 -481L772 -506C782 -507 783 -512 776 -518L752 -540L769 -682C773 -718 779 -732 793 -746C802 -755 802 -759 795 -765L748 -804L724 -768L486 -736L458 -797L442 -790C451 -753 456 -722 457 -680L461 -546C462 -513 460 -489 449 -470L480 -417C486 -406 494 -406 498 -423C500 -434 502 -451 501 -473L539 -478C531 -423 468 -308 319 -184L331 -170C371 -198 403 -225 432 -253C437 -235 441 -215 441 -196V-115C441 -90 435 -79 415 -57L446 -30C452 -25 456 -25 462 -33C471 -44 478 -49 515 -52L714 -70C726 -71 727 -75 717 -84L683 -113C666 -104 632 -96 476 -81V-178C476 -208 478 -217 485 -229C489 -235 488 -238 481 -244L449 -270C468 -290 489 -314 510 -339L549 -318C563 -324 591 -330 609 -334C610 -283 579 -223 488 -107L502 -96C553 -144 592 -190 613 -222L728 -132C737 -126 741 -128 741 -139C741 -155 737 -174 732 -192L623 -242C632 -256 644 -270 654 -279C661 -285 661 -287 657 -293L629 -337L816 -363C804 -131 783 -44 744 27L640 -53L630 -39C677 13 709 59 732 95C740 107 746 108 755 96C806 24 829 -45 852 -309C856 -350 865 -366 879 -377ZM732 -734L713 -538L500 -508L497 -591L685 -615C696 -616 697 -621 688 -628L655 -656C643 -648 608 -641 496 -626L494 -702Z"/>
</svg>