<svg xmlns="http://www.w3.org/2000/svg" viewBox="0 -1000 1000 1000">
	<path fill="#000000" d="M394 -286L389 -301L253 -253V-473L370 -492C382 -494 382 -497 372 -504L331 -532C320 -524 287 -513 253 -505V-665C253 -718 256 -743 268 -769C272 -778 271 -782 266 -788L208 -853L195 -847C208 -804 213 -769 213 -686V-500L54 -476L106 -439C126 -446 171 -459 213 -467V-240L28 -174L93 -139C117 -157 177 -188 394 -286ZM951 -161V-183C851 -187 827 -200 744 -316L661 -429L856 -450C870 -451 871 -458 859 -467L823 -496C798 -485 743 -472 673 -463L691 -618L817 -632C827 -633 829 -638 820 -645L783 -675C761 -664 739 -656 694 -650L700 -702C703 -727 711 -753 723 -769C729 -777 729 -780 719 -790L664 -849L652 -841C665 -809 667 -774 661 -716L654 -646L517 -632L516 -673C515 -702 520 -725 529 -741C535 -750 535 -753 522 -763L461 -812L450 -804C468 -770 475 -739 477 -680L479 -628L370 -617L413 -581C427 -586 450 -590 480 -594L485 -444L323 -427L362 -391C382 -397 431 -405 489 -412C450 -316 347 -194 221 -106L233 -91C376 -184 473 -286 538 -416L628 -426L813 -147ZM608 -317C611 -324 610 -328 606 -332L552 -383L541 -373C552 -350 559 -298 559 -255V-120C559 -48 555 2 551 19L458 -35L449 -22C504 31 529 59 561 101C567 109 572 110 577 101C595 70 597 53 597 -87V-244C597 -278 601 -300 608 -317ZM811 -107L685 -237L672 -228L788 -39C794 -30 799 -30 803 -40C807 -52 811 -74 811 -107ZM510 -197L483 -262L467 -258C463 -197 412 -98 327 -8L340 4C381 -31 414 -68 461 -132C483 -163 498 -181 506 -185C512 -188 513 -190 510 -197ZM709 -96L629 -198L616 -190L680 -28C684 -18 691 -19 695 -29C704 -50 708 -71 709 -96ZM650 -614L634 -460L522 -447L518 -599Z"/>
</svg>