<svg xmlns="http://www.w3.org/2000/svg" viewBox="0 -1000 1000 1000">
	<path fill="#000000" d="M885 -582L840 -610C817 -597 771 -587 652 -575V-633L787 -648C804 -650 804 -656 792 -663L757 -683C742 -675 659 -661 514 -646C525 -663 536 -678 545 -695L839 -724C854 -725 854 -730 843 -739L806 -767C783 -753 677 -739 564 -727C582 -763 589 -772 600 -778C608 -783 609 -787 604 -794L567 -851L550 -845C553 -820 539 -771 512 -722L346 -704L388 -672C408 -679 452 -686 496 -691C451 -617 382 -528 323 -488L336 -471C365 -492 395 -514 420 -539L447 -521C490 -530 602 -542 882 -569C895 -570 894 -576 885 -582ZM188 -667L166 -671C152 -591 138 -567 108 -544L115 -470C116 -459 122 -458 129 -466C160 -502 182 -575 188 -667ZM370 -582C371 -599 369 -615 361 -642L281 -677C281 -731 286 -754 295 -771C300 -780 299 -784 292 -790L233 -844L222 -836C235 -798 242 -763 242 -712V-344C242 -310 237 -283 226 -264L260 -199C267 -187 273 -187 277 -203C280 -215 281 -237 281 -287V-646L356 -576C363 -569 369 -572 370 -582ZM793 -493C802 -500 803 -503 792 -512L749 -548L726 -513L505 -492L488 -520L476 -513C481 -492 482 -477 482 -455V-361C482 -319 479 -308 469 -290L499 -247C507 -236 513 -239 514 -250C516 -264 516 -279 516 -333L708 -353C721 -354 722 -359 713 -366L683 -388C664 -379 621 -372 516 -363V-401L705 -423C718 -425 718 -430 708 -437L682 -454C669 -448 640 -444 516 -429V-463L736 -483V-329C736 -303 733 -293 727 -277L650 -319L639 -301C674 -275 707 -243 735 -207C743 -197 749 -197 755 -208C767 -230 772 -261 772 -312V-451C772 -466 780 -482 793 -493ZM890 -8L852 -40C809 -27 703 -19 502 -9V-125L734 -143C752 -144 752 -150 739 -160L704 -186C681 -177 609 -167 502 -158C503 -189 506 -207 510 -212C515 -219 514 -221 509 -226L461 -280L450 -275C457 -245 461 -201 462 -155L236 -138L284 -102C315 -109 350 -113 462 -122V-7L93 14L146 53C212 40 330 32 886 7C900 6 901 2 890 -8ZM615 -572L436 -553C459 -576 481 -600 501 -627L522 -613C539 -619 566 -624 615 -630Z"/>
</svg>