<svg xmlns="http://www.w3.org/2000/svg" viewBox="0 -1000 1000 1000">
	<path fill="#000000" d="M372 -257L366 -275L254 -233V-472L361 -490C371 -492 372 -498 363 -503L319 -529C308 -520 289 -511 254 -503V-643C254 -687 257 -730 267 -753C271 -762 271 -767 265 -773L211 -831L198 -825C210 -788 217 -726 217 -665V-497L74 -472L127 -443C146 -450 176 -460 217 -466V-221L46 -158L117 -129C141 -149 205 -182 372 -257ZM960 35V16C855 6 830 -3 754 -203C781 -263 806 -346 818 -416C822 -440 828 -458 839 -469C845 -475 845 -478 837 -488L805 -527L907 -542C916 -543 917 -548 909 -555L874 -586C845 -570 798 -557 692 -542C707 -586 720 -638 734 -697C744 -744 747 -752 759 -766C767 -775 768 -779 760 -788L713 -845L697 -837C717 -772 675 -539 590 -384L607 -376C615 -387 625 -400 632 -412C646 -391 668 -340 702 -243L716 -205C661 -87 571 6 480 72L493 92C593 22 674 -56 733 -159L804 44ZM636 -347L602 -375C575 -364 552 -355 506 -348C513 -362 518 -377 520 -388L474 -438L609 -459C623 -461 623 -468 614 -473L585 -488L594 -608C596 -633 600 -643 609 -653C619 -664 618 -669 610 -676L573 -708L548 -673L467 -657C497 -743 503 -759 510 -766C519 -775 520 -779 512 -788L468 -835L457 -828C462 -796 461 -758 437 -652L401 -645L377 -701L358 -696C364 -674 370 -615 370 -597L373 -514C375 -470 372 -455 364 -441L392 -387C398 -376 403 -375 407 -387C409 -395 411 -414 411 -429L448 -435L483 -344L301 -315L346 -284C353 -288 386 -296 428 -304C409 -170 341 -48 203 72L215 87C345 -10 413 -104 445 -206L542 -219C517 -105 509 -74 482 -25L417 -81L403 -70C430 -32 455 13 468 40C472 49 477 49 484 42C520 3 545 -55 576 -191C582 -214 591 -223 600 -228C610 -233 611 -239 602 -247L566 -281L544 -249L454 -238C462 -270 465 -292 468 -309L633 -334C643 -335 644 -341 636 -347ZM556 -641L550 -482L410 -461L408 -528L533 -545C543 -546 542 -552 536 -557L508 -583C491 -575 454 -566 407 -558L405 -618ZM781 -523C789 -466 768 -344 735 -252C682 -392 677 -403 678 -424L645 -435C658 -459 669 -483 679 -508Z"/>
</svg>