<svg xmlns="http://www.w3.org/2000/svg" viewBox="0 -1000 1000 1000">
	<path fill="#000000" d="M946 -323V-339C806 -359 776 -375 573 -610L868 -637C881 -638 881 -642 872 -650L822 -694C803 -681 614 -647 461 -634C496 -708 513 -740 535 -758C545 -766 546 -771 540 -779L488 -854L474 -848C476 -790 459 -718 414 -631L124 -613L183 -564C217 -574 296 -586 395 -594C323 -466 220 -350 55 -267L62 -252C238 -323 371 -451 445 -598L540 -608L777 -310ZM718 -337C724 -342 724 -345 718 -350L671 -394L641 -350L481 -328C504 -433 511 -456 519 -467C524 -474 524 -477 519 -482L465 -541L453 -534C464 -498 459 -400 438 -323L217 -293L272 -251C292 -258 332 -267 426 -281C377 -139 308 -43 115 88L124 103C308 7 429 -127 471 -288L651 -316C637 -155 599 -29 578 -6L476 -89L463 -76C517 -8 540 24 572 77C577 86 582 87 588 79C637 11 665 -88 690 -261C697 -308 700 -322 718 -337Z"/>
</svg>