<svg xmlns="http://www.w3.org/2000/svg" viewBox="0 -1000 1000 1000">
	<path fill="#000000" d="M961 -416V-433C839 -441 802 -456 698 -541L576 -639L860 -660C873 -661 874 -666 864 -673L817 -705C770 -688 687 -678 476 -665C481 -673 485 -681 489 -689C510 -731 533 -763 544 -769C556 -776 556 -783 549 -791L489 -858L476 -851C484 -809 475 -758 424 -663L120 -645L175 -601C210 -609 293 -619 405 -628C356 -548 243 -444 76 -343L84 -328C139 -356 186 -383 227 -410L302 -330C309 -322 315 -324 317 -333C320 -351 320 -363 318 -388L246 -421C337 -483 403 -544 456 -631L529 -636L803 -400ZM255 -177C258 -198 258 -217 255 -234L148 -288L141 -274L240 -174C248 -165 253 -166 255 -177ZM767 -411C773 -419 772 -423 767 -427L715 -466L707 -460C717 -429 718 -418 718 -345V-303L636 -294V-388C636 -428 638 -433 642 -436C649 -442 648 -447 641 -453L595 -495L588 -490C597 -465 599 -447 599 -413V-316C599 -301 595 -293 586 -284L613 -258C617 -254 621 -254 627 -259C633 -264 661 -267 682 -269L718 -273V-200L693 -224C658 -210 621 -205 411 -187C413 -207 413 -228 413 -245L530 -256C541 -257 542 -262 533 -270L520 -282V-382C520 -412 524 -425 529 -431C535 -438 535 -441 529 -447L485 -484L477 -478C486 -458 488 -443 488 -407V-283L414 -275C418 -379 420 -387 425 -394C433 -404 432 -409 424 -416L375 -462L366 -455C380 -404 386 -302 375 -180C361 -36 337 19 273 95L281 105C332 64 370 10 391 -64L486 -79V-29C486 2 482 32 475 41L499 83C503 90 508 90 512 83C517 74 518 65 518 18V-45C518 -78 520 -87 533 -99C537 -102 536 -107 532 -110L493 -134L477 -107L399 -95C404 -122 409 -147 410 -177L434 -157C457 -164 553 -177 718 -187V-121L627 -111L597 -144L589 -139C596 -120 598 -108 598 -65V-13C598 20 595 30 590 38L615 72C622 82 628 81 631 69C632 60 633 49 633 29V-81L718 -89V-45C718 10 712 33 702 51L736 102C742 111 746 110 749 101C754 85 756 61 756 -15V-345C756 -394 758 -399 767 -411ZM350 -306L333 -313L220 -12L134 -73L127 -61C170 -10 203 35 219 62C226 73 237 73 241 61Z"/>
</svg>