<svg xmlns="http://www.w3.org/2000/svg" viewBox="0 -1000 1000 1000">
	<path fill="#000000" d="M960 -346V-367C850 -372 835 -379 677 -619L874 -643C889 -645 890 -650 879 -657L825 -692C802 -676 764 -665 624 -646C657 -742 664 -759 675 -767C685 -774 685 -776 680 -783L632 -850L616 -844C622 -801 608 -714 580 -641L401 -623L449 -584C469 -590 498 -596 563 -605C511 -487 462 -409 358 -293L371 -278C407 -310 463 -371 507 -427L532 -410C555 -419 593 -430 723 -450C735 -452 736 -455 728 -463L698 -492C665 -475 634 -467 523 -448C559 -499 596 -568 613 -611L643 -615L822 -331ZM420 -545L372 -622L357 -615C361 -603 362 -569 358 -534L257 -520C266 -565 275 -609 282 -652C288 -688 300 -735 310 -745C319 -754 319 -757 312 -767L260 -841L244 -834C252 -808 252 -777 244 -706C237 -645 228 -581 215 -515L60 -495L125 -458C136 -465 157 -470 210 -479C196 -408 180 -332 159 -256C198 -231 235 -206 265 -181C218 -93 151 -26 60 45L72 64C171 -8 244 -73 294 -160C333 -128 363 -95 388 -64C397 -53 405 -55 404 -67C403 -84 399 -120 396 -149L314 -198C350 -271 374 -360 394 -475C399 -503 411 -522 419 -527C426 -531 426 -537 420 -545ZM803 -240L768 -284L736 -243L566 -219L607 -311L794 -338C804 -339 806 -342 797 -350L760 -382C712 -358 661 -350 418 -320L464 -283C487 -291 508 -296 557 -303C530 -225 524 -216 491 -204L524 -165C529 -159 535 -160 541 -166C555 -180 563 -185 585 -188L733 -209C707 -106 675 -23 640 36L547 -47L532 -34C577 21 600 58 623 102C629 113 636 113 643 104C686 46 710 -2 757 -138C780 -205 786 -215 800 -222C810 -227 810 -232 803 -240ZM355 -504C340 -384 317 -293 283 -217L202 -265C221 -341 238 -416 251 -486Z"/>
</svg>