<svg xmlns="http://www.w3.org/2000/svg" viewBox="0 -1000 1000 1000">
	<path fill="#000000" d="M944 -350V-367C856 -376 820 -388 769 -432L718 -476C748 -521 776 -576 799 -636L896 -648C905 -649 906 -652 897 -660L859 -695C824 -678 777 -667 636 -648C649 -680 656 -697 665 -718C683 -760 691 -775 700 -784C705 -789 706 -794 701 -800L642 -867L629 -860C644 -786 604 -618 509 -464L524 -451C552 -491 567 -514 587 -545C603 -538 619 -526 635 -509L671 -471C629 -410 589 -368 525 -317L533 -301C601 -345 648 -385 696 -445L801 -337ZM536 -580C542 -584 542 -588 535 -596L500 -631L475 -603L407 -594C408 -609 407 -624 404 -642L398 -647C475 -725 501 -747 531 -762C539 -766 539 -771 532 -778L492 -818L463 -788L175 -762L223 -723C260 -732 297 -738 447 -751L377 -659L293 -709L284 -696L384 -592L128 -562L177 -524C214 -535 251 -542 326 -551C288 -500 205 -417 90 -330L101 -315C178 -361 295 -452 355 -522V-437C355 -387 353 -373 347 -358L266 -396L259 -383C293 -359 338 -315 357 -290C363 -283 367 -282 372 -291C390 -324 394 -348 394 -412V-560L474 -571L433 -467L449 -459C493 -536 515 -566 536 -580ZM950 -257L902 -296C861 -278 738 -263 466 -249L490 -295C499 -314 512 -333 520 -338C526 -343 527 -347 523 -356L487 -424L471 -419C474 -378 463 -329 421 -247L79 -231L138 -185C173 -194 190 -197 403 -211C382 -169 374 -154 343 -98C401 -84 437 -74 509 -52C423 25 281 69 160 84L162 105C329 88 465 41 551 -37C645 -4 731 37 808 88C818 94 821 93 821 80C821 65 814 43 790 -2L577 -65C618 -109 660 -170 689 -228L949 -243C960 -244 961 -247 950 -257ZM749 -630C736 -587 714 -540 690 -499L658 -527C642 -541 630 -554 621 -568H599C606 -582 613 -596 620 -613ZM633 -224C611 -173 581 -126 536 -78L399 -119L448 -213Z"/>
</svg>