<svg xmlns="http://www.w3.org/2000/svg" viewBox="0 -1000 1000 1000">
	<path fill="#000000" d="M889 -669L847 -702C830 -693 785 -680 738 -671C754 -739 762 -761 774 -772C781 -779 781 -783 775 -789L718 -846L707 -839C716 -801 715 -764 698 -666L546 -647C542 -726 542 -736 551 -750C555 -757 555 -761 548 -768L489 -818L480 -805C496 -770 501 -746 509 -643L387 -629L436 -591C452 -597 481 -602 512 -608C513 -577 508 -550 502 -541L532 -498C538 -489 545 -486 548 -501C551 -516 551 -545 548 -612L693 -630C683 -577 675 -543 667 -510L687 -502C700 -536 717 -589 728 -634L885 -653C898 -654 900 -659 889 -669ZM396 -551C402 -559 401 -563 393 -573L346 -629L334 -620C339 -596 339 -577 335 -531L241 -517C253 -577 265 -638 277 -693C281 -715 288 -735 299 -748C306 -757 306 -759 299 -769L243 -837L230 -831C238 -797 238 -767 230 -700C222 -638 212 -573 200 -512L47 -489L106 -448C122 -457 150 -465 194 -473C180 -400 164 -333 147 -279C188 -259 229 -232 265 -205C225 -107 166 -23 82 66L92 77C189 -10 254 -84 298 -180C319 -163 341 -144 360 -126C367 -118 374 -121 374 -133C374 -154 368 -180 359 -200L315 -224C341 -294 359 -379 374 -486C380 -522 386 -539 396 -551ZM908 -463L866 -494C839 -477 777 -463 615 -443C631 -477 638 -485 646 -491C654 -497 654 -502 647 -513L607 -576L595 -571C599 -539 591 -497 566 -439L370 -418L420 -379C459 -390 491 -395 550 -402C488 -265 416 -159 317 -46L330 -35C396 -94 453 -162 498 -228C499 -215 501 -202 501 -192L504 -48C505 -9 502 10 495 23L527 79C533 90 540 89 543 77C546 67 547 49 545 -2L796 -26C809 -27 812 -31 802 -41L772 -69L788 -220C790 -242 794 -249 814 -268C822 -276 821 -280 811 -287L765 -322L740 -283L526 -253L521 -266C551 -315 572 -355 598 -408L906 -446C919 -447 921 -452 908 -463ZM333 -499C323 -398 306 -317 281 -242L189 -290C201 -338 217 -408 234 -481ZM745 -245L732 -60L544 -37L537 -218Z"/>
</svg>