<svg xmlns="http://www.w3.org/2000/svg" viewBox="0 -1000 1000 1000">
	<path fill="#000000" d="M396 -93C395 -116 392 -135 384 -166L301 -206C329 -273 347 -352 365 -463C371 -498 376 -519 381 -524C387 -530 387 -533 382 -541L335 -604L321 -596C327 -581 328 -544 326 -513L237 -498C246 -542 254 -588 263 -641C277 -722 282 -740 292 -752C299 -761 298 -766 293 -772L239 -838L224 -829C232 -805 234 -767 228 -703C224 -655 212 -578 196 -493L43 -470L96 -430C112 -437 157 -448 191 -457C178 -386 161 -313 144 -248C181 -229 219 -209 251 -187C208 -103 143 -30 48 52L58 69C170 -18 238 -82 283 -168C329 -137 362 -110 381 -91C390 -82 397 -81 396 -93ZM923 -392L888 -421C870 -412 850 -406 789 -399C800 -443 804 -455 811 -460C817 -465 817 -470 812 -475L759 -536L747 -530C757 -507 757 -468 744 -395L649 -385V-548L891 -573C901 -574 902 -578 895 -584L863 -615C841 -606 793 -599 649 -583V-708C660 -713 671 -717 684 -721C744 -742 775 -750 791 -751C799 -752 800 -755 794 -761L747 -806L736 -802C725 -783 715 -771 401 -654L410 -636C482 -656 539 -673 609 -695V-579L392 -555L427 -522C458 -529 504 -534 609 -545V-381L514 -371C510 -413 514 -436 519 -444C523 -451 522 -454 516 -459L469 -496L456 -486C465 -467 475 -429 478 -368L352 -355L391 -321C412 -325 435 -329 480 -334L482 -309C484 -285 480 -259 476 -247L504 -199C509 -191 514 -192 517 -201C522 -215 522 -235 520 -273L516 -337L609 -347V-192L386 -170L430 -133C464 -141 501 -146 609 -157V-10L390 12L435 48C472 38 564 23 856 1C866 0 868 -4 859 -11L820 -41C797 -30 769 -24 649 -13V-160L875 -183C885 -184 886 -189 879 -195L841 -226C818 -215 787 -211 649 -196V-350L739 -361C726 -298 714 -254 705 -228L725 -220C739 -249 764 -309 779 -365L920 -380C929 -381 930 -386 923 -392ZM324 -486C313 -376 296 -293 266 -222L181 -264C201 -339 216 -402 231 -465Z"/>
</svg>