<svg xmlns="http://www.w3.org/2000/svg" viewBox="0 -1000 1000 1000">
	<path fill="#000000" d="M887 -289L852 -322C815 -309 693 -291 467 -280V-690L588 -704C585 -663 559 -605 491 -498L505 -487C532 -520 555 -547 570 -569L642 -580C640 -557 636 -528 630 -494L472 -474L506 -441C544 -450 587 -459 622 -465C604 -413 547 -344 476 -298L485 -284C557 -322 615 -379 646 -434L789 -332C797 -326 801 -329 801 -340C800 -357 798 -382 793 -394L654 -450C657 -458 659 -464 661 -470L840 -492C849 -493 850 -498 842 -504L806 -532C790 -522 753 -512 666 -499C671 -525 677 -562 679 -585L800 -602C810 -603 811 -608 802 -615L770 -642C759 -633 710 -618 592 -603C620 -652 625 -659 630 -662C639 -667 640 -671 634 -680L616 -707L838 -735C850 -737 849 -742 842 -748L806 -778C785 -767 716 -752 466 -724L436 -789L421 -783C425 -770 431 -730 431 -681V-337C431 -290 426 -282 393 -265L435 -228C442 -222 446 -223 451 -230C459 -242 466 -245 491 -248L882 -278C892 -279 893 -283 887 -289ZM382 -575L339 -647L325 -640C327 -623 327 -596 324 -570L229 -553C236 -589 243 -630 253 -681C264 -740 270 -756 282 -769C288 -776 288 -782 284 -788L231 -859L217 -853C223 -819 223 -794 215 -732C209 -674 200 -612 188 -548L45 -526L86 -490C99 -495 135 -504 182 -514C168 -438 149 -359 127 -282C165 -258 200 -233 230 -210C185 -122 123 -52 36 23L45 38C149 -41 215 -103 259 -185C295 -155 324 -122 350 -88C357 -79 365 -79 366 -91C369 -113 368 -140 364 -164L277 -221C308 -292 332 -380 359 -505C367 -544 373 -552 380 -558C386 -563 387 -568 382 -575ZM682 -163L567 -238L557 -228L660 -101C667 -92 671 -93 675 -104C680 -117 681 -131 682 -163ZM908 -115L754 -210L749 -196L884 -53C892 -44 897 -45 902 -55C908 -68 910 -87 908 -115ZM438 -178H418C407 -100 392 -72 348 -40L362 21C364 28 368 30 373 24C417 -20 438 -93 438 -178ZM835 61C804 11 788 -21 752 -98L738 -91L770 31C693 26 647 9 601 -26C542 -69 509 -130 485 -196L465 -190C484 -108 525 -34 604 21C662 60 752 78 827 76C841 76 841 71 835 61ZM321 -540C302 -417 279 -322 244 -241L167 -291C192 -387 203 -430 223 -522Z"/>
</svg>