<svg xmlns="http://www.w3.org/2000/svg" viewBox="0 -1000 1000 1000">
	<path fill="#000000" d="M839 -754C847 -760 848 -765 839 -772L798 -804L771 -769L464 -734L436 -790L420 -784C429 -755 434 -703 435 -682L438 -621C439 -596 436 -580 425 -569L462 -505C465 -500 472 -500 473 -509C474 -518 475 -534 475 -548L827 -587C838 -588 839 -594 829 -601L801 -624L812 -696C818 -734 822 -742 839 -754ZM907 -519L872 -545C849 -529 812 -524 367 -472L409 -438C445 -448 495 -455 903 -497C923 -499 923 -507 907 -519ZM390 -131C390 -152 387 -180 382 -198L298 -243C321 -311 341 -387 356 -483C361 -515 368 -537 379 -544C387 -550 388 -554 381 -563L329 -622L317 -616C321 -602 321 -568 317 -537L231 -522C243 -583 255 -645 264 -700C267 -721 276 -746 291 -759C299 -766 299 -771 291 -780L237 -844L225 -836C231 -805 228 -753 224 -715C216 -654 206 -583 193 -515L48 -490L105 -450C123 -459 138 -464 187 -475C174 -406 159 -339 147 -292C177 -281 215 -256 252 -227C218 -137 167 -57 89 38L101 52C184 -32 242 -109 283 -204C319 -176 353 -145 377 -124C386 -117 390 -119 390 -131ZM948 18V0C839 -19 798 -43 722 -143C798 -198 804 -202 816 -204C824 -205 827 -208 823 -219L804 -274L788 -271C786 -248 765 -223 708 -163L627 -270L797 -288C804 -289 805 -294 798 -300L777 -319L790 -369C795 -390 800 -397 812 -404C819 -408 819 -415 813 -419L767 -454L744 -423L480 -392L449 -437L436 -431C443 -409 448 -377 449 -358L451 -312C452 -299 448 -285 441 -271L470 -218C476 -207 482 -209 486 -225C489 -236 489 -239 489 -256L564 -264C487 -159 366 -57 272 0L282 17C363 -31 434 -79 497 -137V-18C497 7 486 21 454 46L494 71C503 76 507 75 513 67C525 51 572 6 678 -84L667 -99L532 -6V-107C532 -117 534 -131 538 -141C543 -153 541 -159 530 -169C560 -197 587 -223 608 -249L798 26ZM773 -734L762 -616L679 -605L682 -724ZM646 -720L645 -602L578 -593L575 -712ZM546 -590L472 -581L464 -699L541 -708ZM315 -506C303 -409 287 -331 264 -262L184 -305C194 -347 209 -413 225 -484ZM750 -389L739 -315L487 -287L485 -360Z"/>
</svg>