<svg xmlns="http://www.w3.org/2000/svg" viewBox="0 -1000 1000 1000">
	<path fill="#000000" d="M860 -709L804 -775L767 -727L532 -697C539 -717 541 -740 540 -764L434 -835L421 -822L508 -695L244 -660C246 -681 245 -702 242 -725L222 -723C223 -659 185 -599 156 -579L171 -512C173 -504 179 -503 185 -511C207 -538 228 -575 239 -625L759 -691L709 -606L727 -595C803 -680 824 -690 854 -696C865 -698 867 -701 860 -709ZM482 -279L390 -464L375 -456C409 -353 427 -279 435 -222C437 -201 446 -201 457 -219C463 -229 473 -253 482 -279ZM474 -553L431 -588L418 -582C408 -553 400 -543 234 -458L208 -512L191 -504C196 -478 198 -447 196 -333C193 -167 149 -55 58 45L75 59C197 -60 233 -148 242 -433C254 -439 273 -447 291 -456C297 -436 301 -411 301 -376V-143C301 -71 297 -62 237 -11L288 8C298 11 302 9 309 -6C322 -34 354 -75 391 -113L404 -53C406 -42 411 -40 420 -52C430 -66 437 -83 442 -107L380 -235L365 -229L385 -141L339 -100V-352C339 -388 342 -409 349 -418C354 -425 353 -429 347 -435L315 -467C354 -483 412 -508 472 -534C485 -540 484 -545 474 -553ZM951 -1C864 -12 839 -35 807 -182L759 -409C745 -473 746 -491 755 -502C761 -509 759 -515 749 -522L730 -535C768 -550 811 -562 820 -563C829 -564 830 -571 821 -579L784 -615L769 -610C757 -586 751 -580 553 -513L527 -566L507 -558C514 -501 515 -465 511 -341C505 -146 463 -40 344 87L360 99C518 -47 554 -145 554 -488C572 -492 591 -496 605 -500C612 -474 616 -441 616 -393V-98C616 -46 595 -18 537 22L585 46C597 52 599 51 605 38C613 22 649 -16 707 -70L718 -5C721 15 728 17 737 4C743 -5 759 -46 765 -74L694 -221L680 -214L701 -95L654 -62V-392C654 -423 655 -442 661 -453C666 -462 665 -467 660 -473L633 -507C658 -514 678 -520 697 -525C705 -505 711 -475 723 -415L811 28L950 21Z"/>
</svg>