<svg xmlns="http://www.w3.org/2000/svg" viewBox="0 -1000 1000 1000">
	<path fill="#000000" d="M892 -216L854 -247C827 -237 758 -221 667 -211V-436L811 -458C821 -460 821 -464 813 -470L777 -498C744 -482 722 -477 667 -468V-651L835 -674C846 -675 847 -680 838 -685L789 -714C756 -698 667 -683 465 -659L513 -624C535 -632 563 -639 627 -646V-463L494 -441L535 -407C561 -416 594 -425 627 -431V-207L427 -184L476 -145C509 -158 617 -173 890 -203C900 -204 900 -210 892 -216ZM926 -15C914 -66 905 -110 896 -185H880L874 -44C778 -16 676 -8 497 -13C383 -16 372 -32 372 -133V-372C372 -411 375 -433 384 -448C390 -458 389 -462 382 -468L355 -493L463 -508C473 -509 473 -514 464 -522L433 -552C417 -542 340 -524 283 -514C286 -565 290 -644 292 -685C294 -734 301 -759 310 -770C316 -778 316 -782 308 -789L240 -850L225 -840C249 -796 253 -711 243 -508L69 -485L117 -448C131 -455 189 -469 242 -477C225 -183 148 -30 39 83L51 96C190 -26 254 -159 281 -482L323 -488C330 -467 333 -438 333 -375V-120C333 -15 363 19 465 26C580 34 787 29 918 -4C926 -5 927 -9 926 -15Z"/>
</svg>