<svg xmlns="http://www.w3.org/2000/svg" viewBox="0 -1000 1000 1000">
	<path fill="#000000" d="M787 -756C795 -760 794 -764 787 -770L743 -811L711 -776L278 -733L238 -821L220 -815C231 -721 232 -620 217 -446C204 -284 162 -123 46 66L60 75C182 -83 232 -210 260 -439C263 -469 267 -514 269 -564L760 -615C771 -616 772 -620 763 -628L740 -649L752 -710C756 -728 772 -748 787 -756ZM896 -179L852 -214C823 -197 784 -187 651 -173V-284L839 -308C852 -310 854 -315 842 -323L802 -351C773 -338 736 -330 651 -317V-421L852 -448C867 -450 867 -454 855 -464L814 -495C775 -477 744 -470 651 -455C651 -506 654 -522 659 -528C665 -535 664 -539 659 -543L602 -592L589 -583C602 -556 610 -492 610 -451V-122C610 -10 609 7 594 39L634 100C639 108 646 106 648 97C650 87 651 79 651 -40V-138L894 -165C906 -166 906 -171 896 -179ZM513 -499C519 -507 518 -511 510 -518L457 -562L447 -549C459 -519 461 -503 461 -441L285 -421L323 -386C349 -394 384 -399 461 -408V-317L289 -296L337 -262C361 -269 397 -275 461 -284V-174L239 -147L282 -112C301 -120 341 -126 461 -138V-127C461 -12 459 -2 444 22L481 84C486 92 491 92 495 85C501 73 502 59 502 -43V-423C502 -454 507 -491 513 -499ZM714 -737L695 -644L271 -600C274 -633 275 -668 274 -697Z"/>
</svg>