<svg xmlns="http://www.w3.org/2000/svg" viewBox="0 -1000 1000 1000">
	<path fill="#000000" d="M911 -168L869 -199C836 -184 783 -176 579 -158C602 -195 610 -210 622 -226L789 -242C800 -243 801 -247 793 -256L776 -276L781 -309C783 -325 788 -335 799 -346C803 -350 803 -354 795 -358L756 -378L736 -345L635 -334L636 -390L777 -402C784 -403 785 -407 780 -415L760 -445L764 -473L869 -483C878 -484 880 -488 872 -494L844 -516C829 -511 808 -506 768 -502L773 -531C777 -552 780 -562 790 -573C795 -579 794 -583 788 -587L748 -607L732 -577L640 -566C641 -585 645 -597 649 -604C652 -612 651 -616 642 -624L615 -645L774 -660C784 -661 787 -668 778 -675L754 -693L762 -728C766 -746 771 -759 786 -770C793 -775 792 -780 787 -784L748 -813L722 -781L234 -731L201 -807L185 -804C197 -738 197 -579 179 -415C157 -226 130 -133 56 25L72 33C115 -34 149 -107 173 -185C224 -217 263 -251 308 -301V-97C308 -46 300 -17 286 8L319 68C326 80 331 77 335 68C341 52 344 25 344 -36V-121L372 -104C404 -113 458 -122 520 -127L488 -71C539 -56 562 -45 594 -32C538 10 484 33 392 64L397 78C507 55 588 22 635 -17C711 10 774 35 825 61C834 65 839 64 838 54C837 43 828 24 815 3C780 -7 719 -26 660 -43C696 -79 717 -110 733 -143L908 -157C917 -158 917 -163 911 -168ZM727 -747L715 -689L234 -641C235 -661 235 -682 235 -699ZM736 -548L731 -499L639 -490V-538ZM602 -487L508 -477L509 -524L602 -535ZM727 -470L722 -428L636 -418L639 -462ZM600 -415L507 -404L508 -449L600 -458ZM603 -562L502 -550L478 -588L465 -581C472 -556 476 -533 476 -511L475 -475L385 -466L422 -435C434 -439 444 -442 475 -445C474 -415 472 -403 466 -388L487 -349C493 -337 497 -338 502 -350C505 -356 507 -367 508 -379L599 -386L598 -331L491 -319L474 -347L456 -344C459 -334 459 -320 459 -305V-261C459 -251 455 -240 450 -232L469 -198C473 -191 478 -190 484 -198C486 -202 489 -207 491 -213L571 -221C564 -203 558 -190 538 -155L344 -137V-341C370 -373 377 -378 391 -388C396 -392 398 -395 395 -402L373 -454L353 -449C354 -414 311 -333 182 -216C199 -281 210 -348 219 -421C228 -484 232 -550 233 -611L591 -643C600 -623 603 -596 603 -562ZM742 -317L737 -265L634 -257V-307ZM596 -252L492 -243L493 -293L596 -304ZM686 -139C673 -112 646 -77 622 -55C601 -61 570 -70 533 -80L562 -130ZM402 -567L379 -618L361 -617C363 -586 327 -532 232 -436L241 -424C287 -459 322 -487 365 -530C375 -540 387 -548 398 -552C405 -555 406 -559 402 -567Z"/>
</svg>