<svg xmlns="http://www.w3.org/2000/svg" viewBox="0 -1000 1000 1000">
	<path fill="#000000" d="M408 -561C414 -569 412 -573 402 -580L344 -622L335 -614C347 -574 350 -539 349 -513L341 -288C339 -258 337 -238 333 -224L279 -211V-671C279 -739 283 -756 297 -777C302 -784 302 -786 295 -792L227 -852L216 -844C234 -801 241 -759 241 -687V-204L172 -187L167 -455C166 -494 170 -512 182 -532C185 -537 185 -541 179 -545L115 -596L104 -588C123 -554 127 -531 129 -454L134 -239C136 -193 128 -178 101 -164L146 -133C152 -129 155 -129 159 -135C165 -143 187 -156 207 -161L324 -191L342 -142C345 -135 349 -134 354 -141C364 -158 372 -193 374 -244L389 -502C390 -526 394 -543 408 -561ZM909 -47L870 -86C840 -75 751 -60 620 -52C624 -70 625 -96 625 -152V-426C625 -477 628 -485 635 -495C642 -504 641 -506 631 -515L604 -537C647 -620 657 -631 668 -638C678 -644 679 -651 674 -660L647 -706L855 -730C867 -731 868 -735 856 -745L823 -774C795 -761 604 -729 376 -711L412 -673C449 -684 531 -694 620 -704C601 -595 486 -388 380 -283L392 -269C483 -352 543 -428 583 -496C584 -483 585 -466 585 -441V-202C585 -153 581 -129 565 -106L600 -52L292 -34L343 9C378 -2 545 -19 906 -35C916 -35 917 -39 909 -47ZM854 -328L665 -484L651 -470C731 -389 789 -316 832 -242C840 -229 847 -230 851 -244C856 -259 857 -289 854 -328Z"/>
</svg>