<svg xmlns="http://www.w3.org/2000/svg" viewBox="0 -1000 1000 1000">
	<path fill="#000000" d="M439 -532C445 -537 446 -542 439 -548L385 -603L370 -595C383 -563 387 -533 384 -467L376 -283C375 -266 373 -255 370 -246L301 -236V-689C301 -739 307 -767 318 -782C324 -790 322 -794 315 -800L248 -857L237 -847C253 -812 261 -750 261 -664V-232L184 -221L183 -467C183 -509 184 -528 192 -541C197 -550 196 -556 189 -561L127 -604L117 -594C136 -557 145 -527 145 -460L146 -260C146 -219 143 -213 124 -194L161 -161C167 -156 171 -156 176 -165C186 -183 195 -189 217 -192L363 -213L381 -173C385 -164 390 -164 396 -172C406 -188 410 -216 413 -279L423 -487C424 -511 429 -525 439 -532ZM918 -716C926 -720 927 -726 918 -734L866 -779L839 -736L510 -705L465 -778L451 -769C465 -721 471 -678 472 -623L477 -433C479 -343 475 -327 455 -304L506 -222C509 -217 512 -217 514 -224C517 -235 519 -250 519 -279L646 -294V-149C646 -25 640 1 623 27L665 104C673 119 679 119 683 101C688 75 689 60 689 -132V-298L798 -310L828 -248C833 -238 841 -239 846 -252C859 -287 863 -305 870 -397L891 -648C895 -697 898 -706 918 -716ZM646 -521L515 -503L513 -668L646 -681ZM846 -701L834 -460C828 -387 818 -347 808 -330L775 -359C760 -351 729 -341 689 -335V-492L801 -504C814 -505 815 -511 804 -520L770 -549C756 -541 727 -533 689 -527V-685ZM646 -330L519 -315C518 -354 516 -469 515 -492L552 -469C579 -479 608 -485 646 -488Z"/>
</svg>