<svg xmlns="http://www.w3.org/2000/svg" viewBox="0 -1000 1000 1000">
	<path fill="#000000" d="M769 -745C773 -748 773 -752 769 -756L721 -803L708 -793C718 -769 718 -736 715 -710L711 -675C710 -666 708 -656 706 -649L517 -627V-720C517 -746 525 -775 538 -791C543 -798 541 -802 536 -806L476 -855L463 -848C477 -819 481 -795 481 -732V-623L304 -601V-657C304 -703 305 -710 310 -723C312 -730 311 -734 306 -738L256 -779L246 -769C260 -737 266 -706 266 -667V-630C266 -607 259 -594 235 -579L274 -548C280 -544 283 -544 289 -551C299 -564 312 -569 346 -573L698 -615L714 -573C717 -566 724 -564 728 -573C733 -582 737 -592 741 -624L752 -703C755 -723 759 -735 769 -745ZM630 -422C638 -432 637 -437 626 -445L578 -480L569 -465C582 -437 585 -416 585 -359V-265C585 -199 583 -187 571 -164L603 -109C608 -100 614 -101 617 -110C621 -119 622 -129 622 -229V-358C622 -390 624 -415 630 -422ZM810 -498C815 -506 814 -509 808 -514L745 -568L731 -560C746 -532 756 -478 756 -379V-87C756 -35 755 -11 752 8L643 -55L635 -39C666 -14 724 42 759 88C765 95 769 94 773 88C791 57 796 33 796 -59V-382C796 -459 800 -482 810 -498ZM542 -501L502 -532C476 -514 410 -498 136 -474L181 -435C191 -442 217 -447 314 -460C301 -390 229 -274 120 -162L131 -152C169 -181 206 -219 241 -258L318 -160C327 -149 334 -149 336 -161C340 -181 341 -196 342 -213L254 -274C264 -285 271 -296 280 -307L295 -294C317 -303 368 -311 449 -324C423 -247 380 -171 341 -125C290 -63 203 6 98 62L110 78C225 21 296 -24 365 -103C421 -167 444 -210 480 -288C490 -312 503 -326 515 -334C523 -339 522 -344 516 -350L479 -388L455 -359L298 -333C303 -340 307 -347 311 -354C339 -399 350 -413 359 -420C366 -426 367 -429 360 -438L341 -463L541 -488C551 -489 552 -494 542 -501Z"/>
</svg>