<svg xmlns="http://www.w3.org/2000/svg" viewBox="0 -1000 1000 1000">
	<path fill="#000000" d="M773 -764L726 -812L714 -804C723 -775 724 -755 718 -728L710 -688C709 -682 707 -676 706 -672L519 -651V-727C519 -760 523 -782 535 -797C539 -802 538 -807 533 -811L479 -856L467 -849C477 -820 479 -801 479 -739V-648L296 -629V-674C296 -707 298 -726 304 -739C307 -745 305 -750 300 -754L248 -795L238 -785C252 -753 258 -723 258 -683V-655C258 -633 254 -625 231 -608L275 -571C280 -567 284 -568 288 -573C300 -591 310 -596 354 -601L696 -638L712 -599C715 -592 719 -590 725 -597C734 -608 738 -617 744 -651L753 -699C759 -732 765 -743 772 -749C778 -754 778 -758 773 -764ZM912 -439L873 -467C852 -455 795 -442 703 -433C710 -451 716 -462 723 -469C729 -475 730 -481 724 -487L682 -529L669 -522C674 -500 674 -477 663 -430L517 -418C518 -443 523 -459 534 -472C539 -478 538 -482 533 -486L497 -517C567 -523 672 -532 775 -542C792 -544 790 -550 779 -559L740 -589C713 -570 597 -551 207 -526L255 -486C294 -495 349 -502 469 -514C477 -489 480 -464 480 -416L338 -403C338 -421 341 -433 345 -440C349 -447 348 -451 341 -457L299 -490L287 -486C296 -467 300 -450 304 -401L66 -382L116 -342C160 -355 182 -357 306 -368C307 -327 305 -324 298 -316L328 -279C334 -272 340 -275 341 -286C343 -303 345 -326 341 -370L480 -383V-278L206 -258L254 -219C290 -229 337 -237 480 -247V-163L136 -136L185 -98C222 -108 331 -119 480 -128C480 -29 474 -5 455 23L490 93C497 107 503 105 507 94C512 78 516 45 516 -131L885 -158C903 -159 903 -164 889 -174L852 -201C831 -190 735 -180 516 -165V-251L818 -273C835 -274 836 -278 822 -289L787 -317C767 -306 728 -297 516 -281V-386L656 -398C649 -368 640 -338 628 -307L646 -299C666 -335 678 -361 693 -401L908 -421C927 -423 928 -427 912 -439Z"/>
</svg>