<svg xmlns="http://www.w3.org/2000/svg" viewBox="0 -1000 1000 1000">
	<path fill="#000000" d="M952 -269V-287C831 -290 753 -313 625 -425L511 -519C517 -524 523 -526 528 -528C533 -531 536 -537 529 -545L699 -563L715 -523C717 -519 723 -518 727 -522C734 -529 741 -543 748 -570L769 -658C774 -680 782 -691 795 -699C800 -702 800 -706 795 -711L738 -769L723 -759C733 -730 734 -710 727 -672L718 -626C716 -614 713 -604 711 -597L517 -578V-718C517 -744 526 -773 538 -789C542 -795 542 -799 536 -804L477 -853L464 -846C475 -816 477 -796 477 -730V-575L304 -557V-631C304 -677 305 -687 310 -696C314 -702 313 -705 306 -711L254 -752L244 -742C258 -710 264 -680 264 -640V-584C264 -553 261 -548 240 -532L290 -497C295 -494 299 -494 303 -500C312 -516 353 -529 464 -540C415 -454 253 -294 56 -193L64 -177C166 -222 229 -260 325 -334C384 -380 423 -418 494 -498L781 -244ZM868 -11L818 -47C787 -36 745 -26 611 -19C649 -88 667 -110 684 -121C689 -125 689 -129 686 -135L651 -195L637 -191C637 -149 621 -105 579 -17L522 -13V-197L732 -218C743 -219 745 -223 735 -231L694 -262C674 -252 616 -240 522 -230V-316L639 -328C649 -329 651 -335 641 -342L603 -371C544 -352 476 -340 324 -329L364 -296C390 -302 426 -306 482 -312V-227L248 -206L288 -169C321 -179 345 -182 482 -194V-11L403 -6C406 -20 408 -36 411 -63L320 -152L309 -143L384 -5L162 10L199 48C309 30 437 23 865 0C876 -1 876 -5 868 -11Z"/>
</svg>