<svg xmlns="http://www.w3.org/2000/svg" viewBox="0 -1000 1000 1000">
	<path fill="#000000" d="M358 -532L266 -590L254 -581L335 -482C345 -470 351 -471 354 -480C358 -494 359 -507 358 -532ZM898 26V6C758 0 719 -13 564 -150L848 -171C867 -172 870 -177 854 -189L811 -218C783 -204 723 -193 512 -176V-231L709 -246C731 -247 736 -256 714 -269L682 -289C665 -281 621 -271 512 -261V-318L756 -339C780 -341 779 -348 761 -359L725 -381C709 -372 660 -361 586 -353C617 -389 631 -401 643 -407C652 -411 653 -417 647 -425L623 -457L875 -476C899 -477 901 -482 880 -497L845 -523C811 -512 727 -497 653 -490C663 -505 673 -519 685 -535C694 -549 703 -559 718 -569C725 -574 726 -579 722 -586L687 -636L671 -631C673 -595 661 -564 619 -488L565 -483L571 -556C575 -605 578 -618 582 -624C587 -633 586 -637 579 -643L555 -667L686 -679L699 -640C702 -633 706 -632 710 -637C719 -645 723 -654 730 -685L744 -744C748 -760 752 -768 761 -774C765 -777 766 -781 762 -786L721 -840L706 -832C713 -803 713 -791 706 -756L697 -711L514 -696V-733C514 -763 519 -783 533 -799C538 -804 537 -808 531 -814L479 -863L466 -856C477 -826 479 -811 479 -745V-693L292 -677V-695C292 -718 293 -728 298 -740C300 -747 299 -751 294 -755L242 -796L232 -786C247 -752 256 -713 256 -697V-684C256 -669 253 -663 234 -650L263 -618C265 -615 269 -614 276 -619C298 -638 313 -644 402 -652C411 -630 417 -589 417 -546V-472L92 -444L144 -408C182 -417 319 -434 598 -455C598 -426 584 -394 547 -350L423 -340C429 -350 432 -362 434 -378L370 -429L353 -423L398 -339L222 -325L274 -290C287 -294 362 -305 474 -315V-258L260 -239L306 -207C334 -214 408 -223 474 -228V-173L145 -146L191 -111C222 -118 314 -130 411 -138C345 -66 246 9 90 61L94 75C249 40 395 -55 471 -142H474C474 -16 468 -4 453 20L484 86C492 102 498 103 503 88C510 69 512 37 512 -42V-145L524 -147L720 39ZM536 -573L530 -481L452 -474V-543C452 -571 454 -596 460 -605C466 -615 464 -620 457 -626L424 -654L528 -665C535 -639 539 -611 536 -573Z"/>
</svg>