<svg xmlns="http://www.w3.org/2000/svg" viewBox="0 -1000 1000 1000">
	<path fill="#000000" d="M369 -670L256 -752L243 -738L350 -601C357 -592 363 -592 365 -604C368 -624 369 -643 369 -670ZM954 -282L950 -302C819 -289 786 -297 612 -453L844 -477C857 -478 858 -483 846 -493L802 -527C772 -507 730 -496 413 -468C430 -496 443 -526 456 -559L763 -590C776 -591 777 -597 766 -606L727 -638C704 -624 677 -615 600 -607C670 -689 682 -700 699 -710C705 -714 706 -718 703 -727L674 -797L657 -794C656 -748 638 -706 561 -603L468 -594C481 -625 490 -657 499 -694C515 -757 522 -770 531 -781C537 -789 537 -794 531 -800L472 -861L460 -853C476 -790 465 -714 421 -590L184 -568L238 -526C267 -536 303 -542 409 -554C397 -523 382 -494 365 -464L121 -443L177 -402C204 -413 226 -416 346 -428C294 -348 178 -241 55 -160L69 -142C226 -242 326 -329 392 -432L569 -450L781 -249ZM730 -278C736 -282 736 -286 729 -293L685 -333L666 -306L515 -285V-328C515 -351 521 -374 524 -380C526 -386 526 -389 521 -393L476 -434L461 -428C472 -399 478 -366 478 -311V-281L334 -262L302 -309L289 -301C299 -264 301 -241 301 -209V-151C301 -110 293 -90 285 -73L324 -14C329 -8 332 -7 335 -14C339 -24 340 -51 340 -107V-228L478 -246V-85C478 -39 467 14 456 33L496 102C501 111 506 110 509 101C514 81 515 52 515 -27V-251L670 -271C667 -200 660 -146 652 -112L567 -169L555 -156C597 -115 621 -83 657 -26C661 -19 667 -18 671 -27C690 -67 699 -97 712 -242C714 -265 719 -272 730 -278Z"/>
</svg>