<svg xmlns="http://www.w3.org/2000/svg" viewBox="0 -1000 1000 1000">
	<path fill="#000000" d="M942 -10L888 -56C855 -41 795 -25 689 -18V-130L856 -144C864 -145 865 -148 857 -157L820 -195C798 -185 756 -174 689 -166C689 -208 692 -226 701 -240C704 -245 702 -250 698 -254L675 -279L793 -307L831 -261C839 -251 844 -253 848 -262C853 -274 855 -293 853 -326L724 -413L715 -401L772 -330L577 -294C643 -378 665 -401 677 -409C683 -413 685 -418 682 -425L665 -456L871 -483C881 -484 883 -487 874 -495L834 -531C801 -511 771 -501 520 -471C524 -500 527 -533 530 -566L813 -601C824 -602 825 -606 815 -615L790 -637L808 -716C813 -735 818 -745 838 -760C846 -767 844 -772 837 -778L795 -814L761 -777L533 -748L502 -812L483 -805C494 -736 494 -596 479 -445C462 -284 418 -97 328 24L342 36C456 -101 494 -269 518 -453L548 -430C566 -438 598 -447 640 -452C632 -428 615 -399 570 -335C542 -293 537 -289 507 -282L539 -244C545 -237 549 -236 556 -240C570 -249 597 -260 645 -272C648 -254 649 -234 649 -162L480 -144L517 -108C542 -114 582 -120 649 -127V-16L406 -1L447 41C506 32 635 17 940 4C951 4 952 -1 942 -10ZM436 -564C441 -569 442 -573 435 -581L394 -621L365 -587L294 -578V-699C294 -735 298 -763 305 -777C308 -784 307 -789 301 -794L239 -856L225 -846C245 -812 252 -740 252 -709V-574L172 -565L148 -632L132 -627C136 -596 142 -532 142 -512V-367C142 -347 139 -334 128 -319L161 -249C167 -238 172 -239 175 -247C178 -257 179 -277 179 -329V-531L252 -539V-107C252 -52 247 -22 232 0L272 77C278 89 282 90 287 78C292 66 294 36 294 -60V-543L379 -552C372 -407 368 -371 360 -333L311 -349L308 -336C340 -305 353 -289 369 -267C375 -260 381 -260 385 -267C399 -292 405 -327 418 -514C420 -542 424 -554 436 -564ZM769 -740L748 -630L533 -601C535 -639 536 -678 537 -714Z"/>
</svg>