<svg xmlns="http://www.w3.org/2000/svg" viewBox="0 -1000 1000 1000">
	<path fill="#000000" d="M743 -583L664 -670L653 -663L709 -524C711 -520 716 -519 719 -523C726 -533 735 -555 743 -583ZM513 -510L440 -546C480 -594 486 -598 496 -601C503 -603 505 -608 501 -616L473 -668L461 -663C462 -625 457 -602 410 -545C448 -516 479 -486 498 -459C504 -451 509 -449 512 -463C515 -480 515 -495 513 -510ZM414 -496L352 -539C392 -588 401 -596 408 -598C417 -600 418 -605 413 -613L382 -661L369 -656C370 -619 367 -597 323 -540C345 -516 366 -489 391 -450C397 -441 401 -441 405 -453C410 -469 413 -485 414 -496ZM331 -486L260 -531C308 -582 315 -585 325 -587C332 -588 335 -593 330 -601L298 -650L288 -645C289 -612 282 -591 230 -531C268 -493 284 -476 308 -437C312 -430 319 -431 322 -440C328 -454 329 -467 331 -486ZM842 -737L793 -777C768 -758 717 -745 534 -726C541 -744 546 -767 548 -786L466 -860L455 -851L515 -724L206 -691L174 -781L158 -777C170 -705 168 -649 161 -481C152 -232 114 -70 36 58L51 67C152 -71 188 -244 199 -484C204 -579 206 -613 206 -657L841 -724C851 -725 851 -730 842 -737ZM495 -445L459 -472L439 -440L284 -418L261 -454L248 -449C260 -421 262 -409 264 -370L265 -346C266 -334 262 -311 257 -302L280 -265C286 -256 294 -257 295 -265C297 -276 298 -285 298 -295L488 -325C496 -326 497 -331 491 -335L468 -351L473 -386C478 -416 482 -422 494 -429C502 -434 502 -439 495 -445ZM872 -95L839 -122C822 -113 796 -107 717 -94V-206L845 -226C857 -228 856 -234 847 -239L811 -261C796 -253 751 -242 717 -236V-330L826 -347C840 -349 841 -353 828 -361L793 -382C777 -375 751 -368 717 -361V-466L842 -484C850 -485 850 -491 844 -496L802 -525C778 -511 751 -503 594 -481V-506C601 -522 607 -536 612 -549C622 -578 632 -596 642 -603C648 -607 648 -609 642 -618L598 -686L585 -681C597 -624 584 -539 486 -352L500 -343C521 -376 542 -408 558 -437V-84C558 -29 551 -9 537 11L576 85C579 91 585 91 588 83C592 65 593 37 593 -31V-64L622 -44C645 -53 668 -59 706 -63L870 -82C882 -83 881 -88 872 -95ZM518 -283L481 -308L461 -278L267 -247L232 -296L217 -289C226 -271 231 -244 231 -215V-74C231 -4 250 23 331 26C384 28 442 19 499 -2C509 -6 511 -9 506 -19C495 -44 488 -68 480 -123H466L463 -31C428 -19 393 -11 342 -10C278 -9 266 -24 266 -66V-115L505 -154C518 -156 519 -161 511 -167L489 -184L496 -223C500 -244 506 -262 517 -269C524 -273 525 -278 518 -283ZM683 -357L593 -342V-447L683 -461ZM442 -410L435 -348L296 -326L295 -387ZM683 -232L593 -219V-332L623 -313C641 -317 659 -321 683 -325ZM465 -249L454 -177L379 -164V-235ZM347 -160L265 -145V-218L347 -231ZM683 -90L593 -77V-208L623 -188C641 -192 659 -196 683 -201Z"/>
</svg>