<svg xmlns="http://www.w3.org/2000/svg" viewBox="0 -1000 1000 1000">
	<path fill="#000000" d="M676 -759L583 -858L568 -850L631 -706C636 -695 640 -694 647 -702C658 -717 669 -736 676 -759ZM924 -699L880 -733C834 -714 723 -694 338 -667L394 -625C445 -635 521 -647 595 -654C588 -637 569 -611 506 -543C469 -504 437 -486 401 -479L435 -440C441 -433 446 -432 454 -435C489 -450 561 -468 800 -504L860 -451C869 -443 873 -444 874 -455C876 -470 875 -491 872 -520L695 -618L687 -604L773 -527L493 -490L588 -577C602 -590 619 -600 634 -606C641 -610 643 -616 640 -622L625 -657L918 -685C934 -686 935 -691 924 -699ZM361 -601C368 -606 368 -610 361 -616L313 -654L287 -617L176 -597L138 -676L124 -670C135 -626 142 -574 143 -525L145 -404C146 -348 139 -322 129 -304L169 -239C176 -228 182 -230 183 -245C185 -262 185 -292 184 -342L338 -364C349 -365 351 -369 340 -379L315 -404L335 -548C339 -574 344 -589 361 -601ZM819 -393C825 -397 826 -403 818 -410L768 -447L743 -409L494 -373L468 -421L453 -415C461 -379 464 -351 464 -311V-110C464 -54 456 -7 442 12L480 79C487 90 491 90 495 78C501 61 502 22 502 -112L709 -138C722 -139 724 -145 713 -153L674 -181C652 -171 611 -160 502 -145V-223L698 -253C708 -255 710 -259 700 -267L665 -295C653 -285 620 -276 502 -257V-341L757 -375V-92C757 -28 756 -8 749 14L660 -37L650 -23C699 21 735 58 766 95C773 103 777 103 781 94C793 71 797 48 797 -46V-347C797 -372 800 -382 819 -393ZM298 -583L280 -393L183 -377L179 -565Z"/>
</svg>