<svg xmlns="http://www.w3.org/2000/svg" viewBox="0 -1000 1000 1000">
	<path fill="#000000" d="M182 -624H161C164 -513 148 -460 113 -406L142 -340C145 -332 149 -332 155 -340C179 -373 197 -480 182 -624ZM945 -399L898 -434C870 -421 772 -398 685 -385V-583L866 -617C877 -618 878 -621 867 -631L827 -665C800 -645 720 -622 548 -592C597 -742 606 -766 621 -789C625 -795 625 -800 621 -804L559 -861L549 -852C582 -774 503 -541 425 -393L440 -383C470 -424 519 -517 539 -567L566 -552C580 -559 607 -568 643 -576V-380L351 -341L407 -302C445 -313 526 -330 643 -346V-116C643 -23 638 -3 621 17L665 87C671 95 675 95 678 87C684 73 685 52 685 -34V-351L944 -387C952 -388 953 -393 945 -399ZM419 -522C422 -546 422 -563 419 -586L297 -657C297 -747 302 -779 311 -795C314 -802 313 -806 308 -810L240 -862L230 -854C249 -816 255 -782 255 -693V-119C255 -24 248 0 233 18L272 89C278 99 281 99 287 89C295 74 297 51 297 -38V-634L406 -520C415 -510 418 -511 419 -522Z"/>
</svg>