<svg xmlns="http://www.w3.org/2000/svg" viewBox="0 -1000 1000 1000">
	<path fill="#000000" d="M153 -590H136C135 -504 123 -469 86 -422L110 -361C115 -348 122 -349 127 -362C157 -441 162 -491 153 -590ZM931 23V6C833 -12 810 -27 723 -264C752 -333 772 -407 796 -548C802 -582 812 -607 832 -624C841 -632 842 -636 835 -642L789 -684L758 -648L594 -616L544 -692L531 -686C537 -658 538 -607 531 -550L436 -535C450 -606 458 -649 469 -707C479 -757 483 -764 492 -772C499 -778 499 -782 492 -791L436 -860L424 -849C437 -811 435 -709 400 -530L276 -511L327 -476C339 -482 353 -487 394 -495C374 -394 357 -335 341 -287C376 -268 410 -245 445 -217C391 -101 351 -49 257 35L268 48C378 -38 432 -102 477 -192C507 -167 534 -142 561 -114C568 -107 572 -108 573 -117C575 -136 574 -154 569 -179L493 -228C523 -298 546 -382 570 -531C576 -568 582 -592 589 -602L620 -579C646 -590 686 -600 761 -614C750 -511 726 -391 704 -320L656 -451C644 -483 638 -504 638 -525L585 -547L581 -535C597 -513 605 -497 627 -435L686 -270C628 -129 554 -28 429 74L440 87C572 -9 654 -107 705 -217L793 28ZM342 -540C344 -560 342 -579 336 -598L255 -634C255 -705 259 -766 267 -775C274 -783 273 -787 267 -793L210 -853L197 -845C213 -804 217 -758 217 -658V-132C217 -44 209 -9 194 10L231 89C236 100 242 100 245 88C250 71 255 40 255 -48V-603L332 -535C337 -530 341 -532 342 -540ZM527 -522C507 -388 489 -317 459 -248L381 -297C396 -353 411 -407 431 -502Z"/>
</svg>