<svg xmlns="http://www.w3.org/2000/svg" viewBox="0 -1000 1000 1000">
	<path fill="#000000" d="M166 -565L147 -566C140 -454 115 -425 80 -403L89 -327C90 -319 94 -318 103 -326C143 -364 177 -439 166 -565ZM873 -227L828 -260C795 -242 769 -238 676 -226V-387L799 -402C816 -404 817 -409 803 -419L763 -447C746 -438 727 -432 676 -424V-542L814 -561C828 -563 829 -569 816 -578L780 -604C744 -589 663 -572 491 -553L534 -515C547 -521 589 -530 637 -537V-419L509 -400L556 -364C570 -369 602 -377 637 -383V-222L469 -206L516 -166C535 -172 681 -196 870 -213C882 -214 883 -220 873 -227ZM917 -42L872 -82C840 -59 772 -50 456 -29L462 -669L862 -718C876 -720 877 -724 866 -733L826 -767C798 -751 727 -735 461 -706L432 -783L413 -779C418 -757 421 -679 421 -630L416 -80C416 -38 412 -27 382 -8L427 30C435 37 439 36 444 29C457 11 461 8 500 4L912 -27C926 -28 928 -32 917 -42ZM395 -499C396 -515 394 -546 391 -565L279 -625C279 -709 284 -747 295 -765C300 -774 300 -777 292 -785L229 -848L217 -840C234 -793 241 -719 241 -626V-123C241 -40 236 -7 220 19L260 99C265 109 271 110 275 97C278 83 279 69 279 -64V-595L379 -493C389 -483 394 -485 395 -499Z"/>
</svg>