<svg xmlns="http://www.w3.org/2000/svg" viewBox="0 -1000 1000 1000">
	<path fill="#000000" d="M518 -455L484 -485C473 -477 436 -462 360 -448V-533L497 -559C511 -562 512 -567 499 -576L464 -601C442 -588 409 -577 360 -568V-660L505 -684C519 -686 518 -690 509 -698L473 -728C464 -721 428 -706 360 -695C360 -774 364 -789 372 -802C379 -812 378 -815 370 -822L319 -867L306 -857C318 -822 322 -795 322 -689L131 -660L183 -622C206 -631 263 -644 322 -653V-562L144 -534L196 -497C222 -508 240 -512 322 -527V-443L79 -404L134 -365C172 -380 209 -390 322 -408C322 -345 316 -322 303 -308L336 -247C344 -233 349 -233 353 -250C358 -269 360 -300 360 -414L514 -438C531 -441 531 -444 518 -455ZM854 -727L813 -770L784 -730L499 -680L550 -646C569 -655 594 -663 619 -668C595 -493 551 -402 429 -275L438 -261C562 -370 631 -464 670 -676L787 -695C768 -552 715 -398 689 -348L626 -405L615 -395C640 -358 660 -321 679 -278C684 -267 689 -266 698 -277C737 -325 769 -413 826 -649C835 -683 839 -694 853 -708C862 -716 860 -720 854 -727ZM577 -189L474 -266L464 -255L554 -117C560 -109 565 -109 568 -120C573 -138 576 -159 577 -189ZM901 -59C904 -76 901 -105 894 -141L723 -250L716 -237L886 -55C895 -46 898 -46 901 -59ZM227 -237L209 -238C183 -105 161 -79 115 -36L134 30C137 41 141 43 149 32C185 -19 220 -95 227 -237ZM781 60C751 3 723 -60 690 -147L673 -143L711 27C638 32 541 10 470 -34C424 -63 350 -128 304 -248L288 -242C339 -105 361 -48 499 29C570 69 712 86 775 77C786 76 788 73 781 60Z"/>
</svg>