<svg xmlns="http://www.w3.org/2000/svg" viewBox="0 -1000 1000 1000">
	<path fill="#000000" d="M787 -557C785 -580 777 -616 768 -640L642 -688C714 -755 728 -764 742 -767C750 -769 752 -772 748 -781L719 -847L706 -844C702 -818 667 -768 603 -702L401 -778L392 -755C448 -734 531 -698 577 -677C511 -617 458 -575 374 -518L384 -501C472 -554 556 -611 610 -658C688 -616 719 -597 775 -552C781 -547 788 -549 787 -557ZM175 -603H154C147 -503 128 -455 91 -416L120 -355C126 -343 129 -343 135 -351C161 -389 179 -480 175 -603ZM372 -551L264 -623V-675C264 -720 269 -758 280 -774C285 -781 284 -785 279 -790L213 -849L199 -841C217 -798 224 -758 224 -693V-90C224 -20 219 2 202 30L240 94C244 101 250 101 253 93C261 69 264 42 264 -40V-592L350 -482C357 -474 362 -473 365 -482C370 -496 373 -530 372 -551ZM910 -501L866 -532C828 -513 735 -491 559 -468C590 -523 603 -542 613 -548C618 -551 619 -556 615 -562L571 -615L560 -611C563 -580 551 -533 511 -461L293 -433L339 -396C369 -407 397 -412 492 -425C441 -341 354 -232 284 -173L297 -157C342 -192 394 -243 440 -296C444 -285 446 -269 446 -241L447 -153C447 -117 444 -94 433 -78L468 -20C472 -13 479 -13 481 -20C485 -36 486 -51 485 -101L482 -271L591 -287V-98C591 -27 582 23 571 39L609 98C614 105 618 105 621 97C625 85 627 62 627 -29V-292L759 -313C748 -160 742 -127 732 -95L651 -156L640 -141C680 -94 706 -59 735 -13C741 -4 747 -3 752 -12C772 -51 780 -74 796 -269C799 -307 807 -322 823 -334C829 -338 829 -344 823 -348L774 -385L750 -346L627 -327C628 -375 630 -385 638 -398C643 -406 642 -409 637 -414L607 -443L908 -488C918 -489 919 -494 910 -501ZM591 -322L472 -303L458 -318C492 -360 521 -399 541 -433L583 -439C588 -415 591 -376 591 -322Z"/>
</svg>