<svg xmlns="http://www.w3.org/2000/svg" viewBox="0 -1000 1000 1000">
	<path fill="#000000" d="M692 -727L591 -838L577 -828L644 -660C649 -648 655 -648 661 -654C674 -667 682 -685 692 -727ZM921 -659L869 -715L837 -670L468 -618C468 -634 467 -650 466 -664H445C435 -583 415 -551 385 -525L402 -458C405 -444 410 -442 422 -457C450 -490 462 -524 467 -585L838 -635L801 -531L821 -521C871 -606 892 -627 919 -644C927 -649 927 -652 921 -659ZM183 -586H157C157 -483 129 -433 92 -408L110 -333C113 -321 117 -318 126 -330C174 -397 189 -460 183 -586ZM380 -558L284 -620C284 -699 288 -754 299 -770C304 -777 303 -782 298 -786L233 -845L219 -837C237 -794 243 -754 243 -689V-80C243 -15 238 14 221 40L258 104C262 112 268 112 271 103C281 78 284 51 284 -30V-583L350 -490C358 -479 365 -480 370 -492C377 -510 382 -541 380 -558ZM823 -216C830 -221 830 -225 823 -232L778 -275L747 -237L531 -210V-300L789 -333C802 -334 803 -339 791 -349L766 -371L774 -431C777 -453 790 -479 804 -488C814 -496 814 -499 805 -506L758 -545L731 -506L530 -478L504 -548L484 -543C489 -518 492 -476 492 -413V-103C492 -54 484 -6 468 21L510 103C514 111 519 112 523 99C528 82 530 58 531 4L802 -18C811 -19 812 -22 803 -32L777 -60L790 -154C794 -186 803 -202 823 -216ZM741 -474L726 -360L531 -333V-445ZM756 -206L736 -51L531 -29V-176Z"/>
</svg>