<svg xmlns="http://www.w3.org/2000/svg" viewBox="0 -1000 1000 1000">
	<path fill="#000000" d="M760 -783L717 -820L687 -779L502 -750L468 -831L451 -825C460 -793 466 -746 467 -708L471 -593C472 -553 468 -531 457 -516L485 -469C495 -451 503 -452 507 -468C508 -473 509 -485 508 -497L742 -529C760 -531 761 -535 749 -545L722 -570L736 -703C740 -739 743 -748 759 -763C769 -772 769 -775 760 -783ZM178 -621H159C149 -519 114 -448 77 -433L83 -359C84 -348 88 -347 96 -353C136 -382 180 -484 178 -621ZM391 -595C344 -623 299 -643 266 -654V-688C266 -733 271 -771 282 -787C288 -795 286 -799 281 -803L215 -862L201 -854C220 -811 226 -772 226 -706V-109C226 -43 223 -17 203 12L238 76C242 84 248 84 251 75C263 39 266 24 266 -59V-628C301 -610 345 -570 375 -523C381 -514 387 -514 390 -526C394 -542 394 -566 391 -595ZM907 -457L867 -488C839 -473 626 -439 322 -416L368 -379C386 -385 440 -393 500 -399C480 -341 423 -269 340 -196L348 -178C391 -207 432 -240 464 -276L546 -288C520 -213 440 -116 343 -44L353 -29C437 -81 485 -121 535 -188C561 -223 572 -235 583 -241C593 -246 594 -251 589 -260L572 -291L661 -305C642 -199 517 -34 396 48L407 64C533 -22 600 -81 662 -190C691 -240 700 -254 706 -260C713 -267 714 -271 710 -278L691 -309L786 -323C767 -187 726 -47 689 8L597 -65L585 -53C620 -10 656 39 680 79C686 90 690 90 698 81C747 18 777 -84 821 -295C825 -315 832 -326 848 -335C858 -341 858 -345 849 -353L813 -391L779 -355L496 -314C524 -350 538 -361 543 -364C553 -369 554 -375 546 -384L530 -401L903 -442C918 -443 919 -447 907 -457ZM697 -747L685 -556L508 -530L507 -605L668 -630C684 -632 685 -637 672 -645L637 -669C616 -657 586 -650 507 -640L505 -718Z"/>
</svg>