<svg xmlns="http://www.w3.org/2000/svg" viewBox="0 -1000 1000 1000">
	<path fill="#000000" d="M934 -250V-267C821 -284 772 -311 737 -360L698 -414C723 -470 748 -539 774 -629L869 -643C882 -645 882 -650 872 -657L831 -688C804 -671 778 -664 606 -640C617 -667 625 -691 632 -717C641 -750 650 -769 657 -777C661 -781 661 -785 657 -791L606 -855L593 -848C612 -797 589 -666 517 -507L480 -536C461 -523 436 -516 373 -504C362 -544 360 -565 365 -577C368 -585 365 -588 354 -594L468 -609C482 -611 482 -614 472 -624L454 -643L467 -699C471 -720 476 -726 491 -735C498 -739 498 -743 491 -750L452 -788L422 -751L233 -728L202 -799L187 -796C194 -757 195 -728 195 -658V-334C195 -297 186 -280 154 -263L186 -223C190 -218 194 -218 200 -224C223 -246 254 -271 372 -344L363 -362L235 -303V-449L345 -468C384 -358 444 -282 518 -250C530 -245 533 -249 532 -259C527 -302 523 -363 522 -410L506 -412L493 -317C451 -342 408 -395 383 -473L510 -493C505 -481 498 -467 492 -453L509 -443C529 -475 548 -508 564 -540C573 -532 576 -528 604 -488L656 -412C620 -335 572 -279 514 -229L523 -213C592 -262 641 -309 678 -378L774 -239ZM582 -156L452 -231L444 -219L563 -88C572 -78 577 -78 580 -90C584 -109 585 -124 582 -156ZM893 -50C895 -69 894 -93 890 -118L738 -217L729 -204L880 -44C888 -35 891 -35 893 -50ZM242 -176L223 -181C202 -107 160 -49 132 -23L151 41C154 51 158 52 166 41C198 -2 227 -69 242 -176ZM791 52C755 2 724 -50 680 -132L663 -126L717 23C657 39 558 22 485 -20C422 -55 376 -103 324 -195L303 -185C339 -94 406 -13 499 32C579 70 687 82 783 68C797 66 797 61 791 52ZM430 -719L419 -638L235 -612V-693ZM725 -623C710 -554 694 -497 673 -448L636 -499C620 -521 611 -540 607 -554L571 -556C579 -572 586 -587 593 -602ZM335 -499L235 -482V-579L313 -589C319 -558 327 -527 335 -499Z"/>
</svg>