<svg xmlns="http://www.w3.org/2000/svg" viewBox="0 -1000 1000 1000">
	<path fill="#000000" d="M942 -691L895 -726C872 -712 802 -697 713 -689C716 -742 723 -770 737 -784C746 -792 746 -794 738 -801L677 -862L664 -855C678 -817 679 -782 673 -686L580 -678C581 -724 587 -746 598 -760C605 -768 604 -771 597 -777L534 -835L520 -828C536 -789 540 -757 541 -675L341 -657L394 -619C415 -625 477 -633 541 -639L542 -561L445 -550L420 -597L406 -592C413 -562 418 -524 419 -491L424 -413C426 -378 417 -345 407 -331L442 -271C446 -264 452 -263 456 -273C459 -282 461 -291 460 -304L850 -340C868 -342 868 -347 857 -354L822 -378L844 -493C853 -539 860 -551 881 -572C886 -577 886 -582 881 -587L835 -625L807 -588L707 -578L712 -655L940 -678C950 -679 951 -684 942 -691ZM190 -589L166 -588C161 -485 134 -439 97 -418L112 -353C116 -336 122 -332 134 -349C174 -401 191 -459 190 -589ZM393 -551L286 -611V-684C286 -739 292 -763 304 -778C311 -786 310 -789 303 -795L240 -853L227 -845C243 -806 247 -760 247 -665V-137C247 -52 239 -18 224 0L261 78C267 91 273 91 276 77C284 42 286 31 286 -55V-586L368 -486C381 -470 388 -472 391 -485C396 -507 397 -529 393 -551ZM808 -240C817 -246 817 -251 808 -258L764 -294L740 -262L494 -235L472 -274L458 -268C463 -242 465 -203 466 -180L470 -74C472 -29 464 6 451 22L484 85C493 102 500 100 503 82C505 74 507 48 506 26L705 9L729 68C733 80 737 81 744 70C752 58 761 31 768 -48L780 -171C784 -215 792 -230 808 -240ZM672 -651L668 -574L581 -565L580 -642ZM666 -538L663 -470L582 -460V-529ZM812 -554L783 -369L694 -360L699 -440L777 -448C794 -449 795 -454 783 -465L751 -491C742 -485 724 -479 701 -475L705 -542ZM545 -346L460 -338L455 -516L543 -525V-456L461 -447L500 -414C506 -417 522 -419 544 -422ZM662 -436L658 -357L584 -349L583 -427ZM746 -227L733 -82C730 -36 726 -16 717 -7L681 -33C661 -23 624 -17 505 -9L504 -91L713 -112C724 -113 726 -117 715 -126L678 -157C646 -144 623 -136 503 -123L502 -205Z"/>
</svg>