<svg xmlns="http://www.w3.org/2000/svg" viewBox="0 -1000 1000 1000">
	<path fill="#000000" d="M841 -761L818 -836H806C789 -768 747 -680 623 -540L633 -529C687 -574 732 -619 790 -694C818 -730 830 -743 837 -745C843 -747 844 -751 841 -761ZM643 -678L599 -706C586 -698 540 -684 506 -676V-694C506 -741 511 -781 521 -795C525 -801 524 -805 518 -810L458 -853L447 -847C460 -812 467 -769 467 -716V-671L316 -646L362 -613C376 -618 415 -628 467 -637V-553L352 -535L395 -504C428 -516 455 -521 607 -546C615 -547 614 -552 607 -558L573 -583C553 -573 535 -567 506 -560V-644L641 -668C649 -669 649 -674 643 -678ZM171 -592L150 -593C138 -502 123 -464 89 -425L104 -357C106 -346 112 -343 117 -352C154 -414 168 -477 171 -592ZM866 -543L841 -616L825 -612C815 -546 743 -439 617 -313L624 -303C691 -346 756 -410 812 -480C835 -508 850 -522 861 -526C869 -529 870 -532 866 -543ZM346 -487C347 -501 345 -519 339 -555L259 -598V-680C259 -725 262 -762 275 -780C279 -785 279 -789 274 -794L209 -852L197 -845C214 -802 221 -763 221 -698V-93C221 -22 215 8 203 27L240 90C243 96 249 96 251 88C256 67 259 38 259 -43V-569L335 -485C340 -479 345 -479 346 -487ZM613 -441C619 -445 619 -450 613 -454L566 -490L542 -453L399 -431L370 -477L358 -470C363 -454 367 -428 370 -392L376 -326C377 -310 374 -295 367 -284L401 -233C404 -227 409 -227 411 -235C413 -243 414 -249 414 -263L601 -296C607 -297 608 -300 604 -305L581 -330L593 -416C594 -424 603 -435 613 -441ZM893 -300L869 -380L851 -377C840 -286 665 -69 470 52L478 68C597 7 688 -64 806 -206C850 -258 872 -276 883 -281C894 -286 896 -289 893 -300ZM664 -134L658 -155L536 -121C556 -171 573 -204 584 -213C590 -218 590 -222 583 -230L542 -277L528 -271C535 -231 529 -190 504 -112L445 -95C450 -111 455 -130 458 -144L401 -226L388 -217L419 -89L282 -51L347 -13C362 -26 439 -58 664 -134ZM549 -423L545 -319L412 -292L405 -400Z"/>
</svg>