<svg xmlns="http://www.w3.org/2000/svg" viewBox="0 -1000 1000 1000">
	<path fill="#000000" d="M167 -580L148 -582C136 -487 112 -445 71 -414L81 -350C82 -341 86 -340 93 -347C133 -389 167 -466 167 -580ZM927 -348C916 -395 905 -454 897 -506H881L878 -370C863 -363 842 -359 810 -363C773 -368 763 -377 763 -411V-493C763 -513 766 -522 770 -527C775 -533 775 -535 768 -544L751 -569L884 -590C897 -592 897 -597 887 -605L855 -630C833 -620 809 -613 735 -598C740 -637 750 -676 756 -683C761 -689 760 -693 756 -699L730 -734L866 -750C880 -752 880 -756 870 -765L837 -793C808 -779 762 -766 619 -749L583 -782C547 -765 485 -749 339 -730L380 -698C392 -704 427 -714 472 -721C475 -684 467 -604 460 -567L394 -555C397 -583 408 -627 413 -632C419 -639 419 -643 414 -648L378 -687L366 -681C372 -642 370 -627 363 -576C361 -563 358 -554 352 -546C352 -555 350 -566 349 -576L254 -629V-672C254 -727 257 -755 269 -771C274 -778 273 -783 268 -788L208 -843L196 -836C210 -793 216 -748 216 -690V-85C216 -20 210 5 193 35L226 99C230 106 233 106 239 98C252 76 254 47 254 -35V-603L334 -518C342 -510 346 -511 349 -520L367 -509C376 -504 379 -503 384 -511C392 -524 401 -527 452 -535C419 -431 368 -347 289 -278L304 -263C407 -348 459 -435 485 -528C485 -519 485 -506 485 -484V-398C485 -374 483 -364 462 -350L491 -319C498 -311 503 -312 508 -321C539 -367 572 -409 634 -481L620 -494L518 -392V-474C518 -493 521 -500 524 -504C529 -510 529 -515 525 -520L506 -544L571 -554L602 -528C607 -525 611 -526 616 -532C625 -546 633 -550 692 -560C669 -468 609 -366 532 -303L547 -288C643 -358 706 -459 727 -554C728 -545 729 -531 729 -520V-399C729 -355 759 -332 813 -327C838 -325 881 -327 918 -333C928 -335 929 -338 927 -348ZM783 -288C793 -294 793 -299 783 -308L741 -341L716 -304L481 -276L454 -338L435 -333C446 -288 449 -253 449 -220V-37C449 -11 443 5 431 19L468 88C473 98 480 98 484 87C487 79 489 60 489 26L694 10L720 73C725 84 734 84 738 73C745 52 748 23 751 -35L764 -260C765 -271 769 -280 783 -288ZM707 -731C712 -695 708 -642 699 -593L633 -581C636 -611 642 -638 650 -648C656 -656 656 -661 650 -668L617 -706L604 -700C608 -644 606 -624 598 -589C597 -583 593 -577 585 -571L552 -594C537 -584 519 -578 495 -573C510 -647 514 -662 520 -669C525 -675 525 -679 519 -688L497 -724L608 -741L637 -716C648 -720 679 -727 707 -731ZM723 -273L716 -116C714 -57 709 -29 699 -12L669 -34C653 -24 615 -17 489 -8V-123L701 -146C712 -147 715 -152 704 -162L671 -189C650 -179 599 -168 489 -155V-245Z"/>
</svg>