<svg xmlns="http://www.w3.org/2000/svg" viewBox="0 -1000 1000 1000">
	<path fill="#000000" d="M807 -495L685 -555L678 -543L791 -440C797 -433 802 -434 805 -443C809 -460 810 -474 807 -495ZM158 -605H140C132 -498 112 -452 80 -431L86 -351C87 -340 93 -338 101 -348C148 -409 163 -452 158 -605ZM887 -393L849 -422C827 -411 786 -400 675 -389C681 -403 686 -423 688 -439L624 -493L613 -482L654 -387L463 -367C464 -372 464 -375 464 -378C500 -404 525 -427 587 -489C594 -495 604 -505 609 -506C616 -508 617 -514 613 -522L593 -562L874 -592C888 -593 889 -599 876 -608L840 -633C825 -625 770 -613 641 -598C716 -684 729 -693 753 -700C763 -703 764 -707 756 -716L714 -762L677 -727L547 -706C552 -716 559 -726 564 -736C579 -762 596 -778 602 -780C611 -783 612 -789 606 -796L559 -855L545 -848C547 -776 451 -577 311 -449L323 -436C357 -466 392 -500 427 -538C429 -489 427 -410 423 -357C407 -152 370 -51 285 59L303 71C390 -23 441 -132 462 -348L485 -334C520 -343 570 -352 885 -379C897 -380 898 -384 887 -393ZM362 -584L263 -641V-674C263 -719 268 -756 279 -773C284 -781 283 -785 278 -789L215 -848L201 -840C220 -797 226 -757 226 -692V-94C226 -22 221 -2 206 26L241 90C245 98 251 98 254 89C262 62 263 37 263 -44V-613L344 -520C351 -512 357 -511 359 -523C363 -543 363 -563 362 -584ZM802 -312L766 -337C744 -325 662 -308 481 -292L528 -260C548 -267 614 -277 800 -297C812 -298 814 -304 802 -312ZM809 -231L774 -259C758 -247 695 -235 488 -219L530 -184C555 -192 605 -202 806 -218C817 -219 819 -223 809 -231ZM815 -149L771 -186L745 -151L541 -125L512 -175L499 -170C505 -146 508 -118 510 -85L515 -3C516 15 512 32 506 41L535 89C541 98 547 99 549 90C552 78 553 57 552 38L794 16C808 15 810 10 799 1L773 -22L787 -89C791 -109 800 -125 812 -132C822 -139 822 -143 815 -149ZM672 -693L610 -594L459 -577C482 -608 504 -640 524 -671ZM573 -560C560 -515 523 -456 464 -398C467 -451 468 -513 470 -548ZM751 -120L735 -15L551 5L547 -95Z"/>
</svg>