<svg xmlns="http://www.w3.org/2000/svg" viewBox="0 -1000 1000 1000">
	<path fill="#000000" d="M737 -688L639 -824L627 -816L687 -626C690 -617 696 -616 703 -624C716 -641 729 -666 737 -688ZM887 -556L847 -588C815 -569 747 -549 511 -518L562 -483C618 -501 664 -510 884 -542C895 -543 895 -549 887 -556ZM300 -562C308 -569 306 -574 299 -579L255 -610L233 -572L128 -553L87 -630L73 -625C85 -590 93 -555 95 -523L105 -388C108 -343 100 -314 88 -296L127 -230C134 -218 140 -219 141 -234C144 -267 144 -281 142 -316L279 -332C290 -333 290 -340 283 -346L263 -365L275 -499C277 -525 286 -548 300 -562ZM536 -385L528 -399L442 -349V-521L525 -540C536 -542 538 -547 528 -555L501 -579C489 -571 477 -566 442 -556V-644C442 -718 446 -755 457 -774C461 -781 461 -788 453 -795L385 -854L375 -845C394 -806 404 -734 404 -655V-547L297 -522L337 -490C344 -495 360 -502 404 -513V-325L205 -208L278 -184C291 -198 331 -232 404 -284V-117C404 -79 399 -17 394 10L283 -58L277 -45C334 2 370 42 406 90C412 98 415 98 421 90C440 58 442 33 442 -96V-313ZM666 -236L585 -452L569 -448C593 -369 607 -274 614 -160C615 -145 621 -145 628 -155C645 -176 657 -205 666 -236ZM922 -75L888 -107C861 -97 814 -88 721 -79C784 -363 798 -409 812 -416C821 -421 823 -426 816 -435L764 -501L751 -494C758 -451 753 -397 692 -76L469 -54L514 -16C580 -32 657 -40 917 -60C929 -61 931 -67 922 -75ZM238 -539L226 -364L141 -348L132 -524Z"/>
</svg>