<svg xmlns="http://www.w3.org/2000/svg" viewBox="0 -1000 1000 1000">
	<path fill="#000000" d="M960 -159L959 -176C857 -178 845 -188 774 -255L696 -330L907 -350C922 -351 922 -355 911 -362L864 -391C837 -378 814 -375 685 -362L695 -444L836 -459C849 -460 849 -464 839 -471L799 -497C776 -488 751 -482 698 -477C701 -494 706 -511 710 -516C717 -523 717 -528 712 -533L682 -568L801 -582C813 -583 813 -588 803 -595L771 -617L790 -738C793 -759 802 -779 809 -784C817 -790 818 -793 811 -799L769 -835L746 -794L452 -759L429 -813L412 -809C418 -780 424 -723 425 -699L428 -622C430 -579 429 -568 417 -554L448 -498C455 -485 462 -485 464 -500C465 -505 466 -526 465 -543L497 -547C503 -529 505 -502 505 -459L361 -444L409 -412C414 -416 457 -422 505 -427V-343L308 -324L352 -291C375 -297 410 -303 485 -310C452 -261 371 -176 277 -113L287 -97C341 -131 394 -167 441 -208L501 -126C508 -117 514 -119 515 -130C517 -146 518 -175 517 -184L456 -223C487 -251 516 -282 544 -316L663 -327L821 -141ZM172 -599H153C149 -488 123 -419 95 -390L120 -337C123 -330 128 -328 133 -335C170 -390 181 -480 172 -599ZM385 -492C386 -502 386 -535 384 -553L267 -616V-678C267 -722 278 -754 288 -771C292 -778 292 -781 287 -786L233 -849L219 -843C229 -810 229 -798 229 -696V-100C229 -38 221 -7 202 19L244 91C249 99 254 100 257 90C264 62 267 40 267 -51V-593L367 -493C379 -482 384 -483 385 -492ZM810 17C811 8 807 -28 803 -49L648 -118C714 -166 728 -172 744 -176C753 -178 755 -181 751 -189L722 -244L711 -238C706 -211 697 -193 624 -130L616 -133V-171C616 -230 618 -235 622 -241C628 -249 627 -255 622 -259L576 -302L564 -296C571 -282 578 -255 578 -187V-143L341 -25L393 3C435 -30 483 -62 578 -116V-57C578 -21 576 24 572 36L485 -14L476 -2C524 39 565 79 576 94C586 108 589 108 600 92C611 75 616 60 616 -49V-106C723 -46 772 -10 795 16C804 26 809 26 810 17ZM751 -765L736 -606L464 -573L461 -636L698 -664C715 -666 715 -670 702 -678L668 -700C651 -691 596 -683 459 -668L456 -728ZM662 -474L542 -462C544 -495 546 -502 548 -504C555 -510 555 -513 548 -519L519 -549L662 -566C667 -541 665 -508 662 -474ZM659 -441L652 -359L541 -346V-430Z"/>
</svg>