<svg xmlns="http://www.w3.org/2000/svg" viewBox="0 -1000 1000 1000">
	<path fill="#000000" d="M683 -715L556 -832L544 -822L645 -625C651 -613 657 -613 661 -623C670 -647 678 -682 683 -715ZM452 -575L410 -602C391 -591 365 -584 301 -572V-654C301 -714 306 -734 320 -755C326 -764 325 -768 316 -777L251 -842L237 -833C252 -789 260 -741 260 -645V-566L66 -535L120 -497C139 -508 190 -520 260 -531V-377L41 -289L103 -253C117 -264 166 -290 260 -337V-132C260 -63 257 -35 252 -24L142 -108L128 -94C183 -40 237 30 262 71C270 83 276 84 282 71C292 49 301 7 301 -77V-356L430 -420L422 -441L301 -392V-536L448 -559C464 -562 463 -567 452 -575ZM916 -574L864 -608C792 -580 755 -574 372 -528L425 -486C442 -494 535 -512 600 -521V-118C600 -31 594 -12 578 15L615 88C623 103 630 101 634 84C638 68 640 48 640 -59V-390C718 -332 752 -300 834 -202C844 -190 852 -191 854 -205C858 -232 857 -262 851 -296L640 -423V-526L914 -557C931 -559 930 -565 916 -574Z"/>
</svg>