<svg xmlns="http://www.w3.org/2000/svg" viewBox="0 -1000 1000 1000">
	<path fill="#000000" d="M416 -443L407 -464L282 -409V-550L393 -568C407 -570 408 -575 396 -584L360 -612C345 -602 321 -596 282 -588V-684C282 -732 286 -754 295 -775C299 -784 298 -790 291 -796L228 -848L216 -841C234 -800 243 -733 243 -675V-583L67 -555L114 -520C134 -526 163 -532 243 -545V-392L40 -303L105 -267C129 -287 166 -310 243 -351V-128C243 -59 240 -20 234 -7L138 -78L129 -60C176 -9 213 39 241 81C250 93 255 94 261 81C275 52 282 19 282 -73V-372ZM916 -650L872 -680C845 -664 775 -648 576 -621C585 -643 594 -666 603 -692C616 -730 631 -759 642 -768C649 -774 650 -778 646 -784L600 -852L585 -847C591 -807 564 -697 532 -616L396 -597L445 -562C466 -570 488 -575 518 -579C463 -445 408 -363 296 -244L309 -230C358 -271 409 -324 459 -392C460 -379 460 -363 460 -347V-213C460 -181 452 -148 444 -134L484 -76C490 -67 495 -66 497 -77C501 -94 502 -112 501 -158L498 -371L615 -385V-102C615 -16 610 6 596 24L637 101C641 108 647 108 650 101C654 90 656 74 656 -41V-390L781 -406C784 -241 777 -194 769 -168L693 -220L681 -203C714 -167 744 -129 772 -84C777 -75 784 -76 789 -85C810 -119 825 -188 820 -367C819 -397 830 -414 846 -426C854 -432 853 -436 846 -442L799 -481L773 -443L656 -428C657 -490 662 -509 670 -521C674 -527 673 -530 667 -535L609 -583L597 -575C611 -543 615 -514 615 -423L490 -406L481 -424C509 -468 534 -515 563 -585L913 -633C930 -635 931 -640 916 -650Z"/>
</svg>