<svg xmlns="http://www.w3.org/2000/svg" viewBox="0 -1000 1000 1000">
	<path fill="#000000" d="M677 -736L570 -847L557 -836L640 -669C645 -660 649 -659 655 -667C667 -685 673 -703 677 -736ZM879 -622L833 -657C753 -634 703 -628 400 -596L446 -561C552 -580 598 -586 877 -608C890 -609 890 -613 879 -622ZM843 -352C846 -380 845 -401 840 -436L652 -555L641 -537C718 -477 748 -446 827 -350C836 -340 842 -342 843 -352ZM572 -490L546 -559L531 -556C531 -501 461 -395 352 -297L364 -283C409 -316 476 -376 532 -439C558 -468 563 -472 568 -474C574 -477 575 -481 572 -490ZM413 -449L403 -468L295 -408V-535L396 -551C409 -553 411 -557 400 -566L367 -591C356 -585 328 -577 295 -571V-673C295 -726 297 -757 303 -771C308 -783 307 -788 301 -793L243 -853L231 -844C250 -801 255 -772 255 -683V-566L74 -540L121 -504C145 -512 185 -520 255 -530V-384L54 -268L116 -246C142 -266 173 -287 255 -343V-102C255 -32 252 -19 246 -8L140 -79L130 -63C197 8 219 33 250 78C260 91 264 91 272 77C290 46 295 28 295 -66V-369ZM954 43V22C811 10 775 4 672 -142L641 -186C665 -226 693 -281 700 -297C711 -325 720 -341 729 -349C736 -356 736 -359 731 -367L692 -441L678 -435C680 -398 660 -309 614 -224L584 -268C550 -316 538 -342 538 -359L472 -368L466 -355C480 -347 505 -322 529 -285L593 -188C516 -67 431 5 300 80L310 99C430 37 529 -26 618 -152L762 59Z"/>
</svg>