<svg xmlns="http://www.w3.org/2000/svg" viewBox="0 -1000 1000 1000">
	<path fill="#000000" d="M933 -18L893 -54C860 -43 809 -35 654 -20V-184L845 -205C855 -206 855 -211 848 -217L807 -249C778 -240 717 -227 654 -219C654 -290 659 -317 667 -331C674 -343 673 -347 665 -354L622 -388L902 -420C915 -421 916 -427 906 -434L860 -470C824 -454 788 -444 656 -427V-570L847 -599C859 -601 860 -606 850 -613L806 -644C767 -625 711 -610 656 -602V-640C656 -739 659 -760 674 -780C679 -787 678 -791 671 -797L597 -856L587 -846C610 -783 615 -744 615 -634V-598L442 -576L498 -539C531 -549 565 -557 615 -565V-422L407 -395L455 -360C483 -368 537 -378 595 -385C610 -344 613 -324 613 -215L407 -190L455 -153C479 -160 549 -173 613 -180V-17L341 10L393 49C446 35 535 25 930 -4C942 -5 943 -9 933 -18ZM438 -438L430 -451L318 -389V-516L427 -534C438 -536 438 -540 430 -546L390 -576C372 -566 348 -558 318 -552V-649C318 -725 325 -749 335 -768C340 -777 338 -781 332 -786L260 -850L249 -844C272 -795 276 -736 276 -649V-545L67 -517L117 -477C136 -483 167 -490 276 -509V-364L58 -240L135 -215C148 -225 158 -232 276 -318V-67C276 -38 273 -8 267 6L155 -68L144 -53C214 20 266 77 282 98C288 106 293 106 297 98C315 63 318 38 318 -61V-349Z"/>
</svg>