<svg xmlns="http://www.w3.org/2000/svg" viewBox="0 -1000 1000 1000">
	<path fill="#000000" d="M837 -620L662 -724L652 -709C697 -674 731 -645 755 -620L493 -583L583 -707C617 -756 624 -763 636 -771C643 -775 644 -779 638 -790L604 -852L588 -847C586 -795 565 -746 490 -634C465 -596 451 -583 417 -571L451 -532C456 -527 459 -527 467 -532C480 -540 586 -563 777 -597C791 -580 803 -563 816 -544C826 -530 831 -531 836 -546C841 -567 842 -599 837 -620ZM859 -371C860 -402 853 -427 842 -456L634 -536L627 -520C722 -470 786 -424 843 -370C854 -359 859 -361 859 -371ZM555 -478L531 -540L517 -539C503 -478 433 -380 330 -295L341 -279C378 -304 449 -362 500 -421C528 -451 538 -458 547 -461C557 -465 558 -469 555 -478ZM411 -569L379 -591C372 -588 334 -579 301 -573V-694C301 -743 307 -768 314 -783C319 -793 317 -798 310 -804L247 -855L236 -848C253 -808 262 -742 262 -685V-568L92 -539L136 -503C153 -512 191 -520 262 -533V-389L78 -283L146 -265C159 -279 185 -298 262 -349V-129C262 -52 258 -25 252 -13L138 -85L126 -68C184 -16 228 30 257 71C263 80 270 81 276 71C295 38 301 14 301 -75V-375L407 -448L394 -466L301 -413V-538L407 -557C419 -559 419 -563 411 -569ZM945 18V-3C805 -8 788 -16 707 -99L655 -154C683 -187 715 -233 737 -271C759 -310 771 -324 783 -331C790 -335 790 -340 784 -346L740 -389L710 -351L567 -333C585 -358 594 -369 602 -373C607 -375 609 -380 605 -387L573 -448L561 -443C557 -371 469 -236 348 -135L361 -121C429 -175 468 -209 508 -257C532 -244 566 -211 609 -159C540 -68 430 11 311 63L319 85C476 15 567 -50 635 -127L772 38ZM707 -315C687 -270 669 -240 627 -183C593 -221 570 -255 564 -270L523 -275C529 -281 535 -287 539 -293Z"/>
</svg>