<svg xmlns="http://www.w3.org/2000/svg" viewBox="0 -1000 1000 1000">
	<path fill="#000000" d="M951 -300L950 -320C827 -328 816 -332 664 -544L876 -569C885 -570 886 -574 879 -579L824 -618C792 -599 731 -584 575 -567C607 -643 612 -653 625 -670C631 -678 632 -683 629 -689L612 -720L801 -740C811 -741 811 -748 803 -754L758 -788C723 -770 665 -755 398 -729L451 -690C483 -700 514 -708 572 -716C572 -676 558 -622 532 -563L373 -545L423 -508C450 -517 478 -523 516 -528C470 -432 400 -327 319 -262L333 -247C431 -324 517 -435 562 -533L633 -541L803 -286ZM408 -571L374 -602C353 -593 327 -585 294 -580C294 -737 296 -749 309 -769C312 -774 312 -777 307 -782L249 -844L232 -835C246 -791 254 -736 254 -575L75 -551L124 -515C160 -526 195 -533 254 -541V-387L60 -299L129 -270C152 -291 196 -321 254 -353V-94C254 -35 252 -22 249 -9L168 -84L154 -72C203 -12 233 29 263 74C268 82 274 83 279 74C290 54 294 31 294 -88V-375L393 -429L385 -445L294 -404V-545L405 -560C414 -561 414 -566 408 -571ZM621 -397C625 -403 624 -408 619 -412L563 -464L551 -455C563 -433 572 -367 572 -306V-142C572 -64 570 -37 565 -18L475 -88L463 -72C508 -24 540 16 576 70C580 76 583 77 588 71C607 51 611 29 611 -113V-308C611 -372 615 -389 621 -397ZM522 -260L480 -325L466 -319C472 -274 438 -188 332 -41L347 -30C390 -73 434 -133 479 -201C497 -226 508 -238 518 -244C524 -248 525 -254 522 -260ZM882 -144L731 -295L714 -281C784 -196 806 -164 863 -64C867 -56 871 -55 876 -63C883 -75 887 -105 882 -144ZM753 -130L670 -273L653 -264C675 -199 689 -152 709 -61C711 -53 716 -51 720 -57C747 -95 753 -109 753 -130Z"/>
</svg>