<svg xmlns="http://www.w3.org/2000/svg" viewBox="0 -1000 1000 1000">
	<path fill="#000000" d="M472 -452L444 -475C429 -467 408 -463 328 -450V-532L446 -548C461 -549 461 -555 451 -565L432 -585L438 -623C441 -646 446 -653 451 -658C459 -665 459 -671 451 -679L419 -706L396 -677L328 -667V-742L462 -758C479 -760 480 -766 465 -776L432 -799C412 -788 376 -780 181 -755L155 -826L139 -821C147 -773 150 -736 150 -701V-517C150 -435 149 -428 120 -412L171 -379C178 -375 183 -376 188 -383C198 -398 203 -400 224 -404L468 -435C483 -437 485 -441 472 -452ZM933 -437L931 -459C803 -451 778 -461 653 -568C679 -603 713 -658 736 -704C751 -733 754 -738 768 -750C780 -760 780 -762 769 -773L735 -807L709 -775L474 -743L527 -711C541 -716 563 -720 704 -742C684 -687 652 -633 623 -593C580 -634 561 -663 562 -675H496L495 -666C527 -647 535 -640 608 -570C553 -497 470 -417 417 -381L429 -367C479 -392 569 -469 635 -545L770 -414ZM854 -191L808 -225C779 -210 734 -200 511 -177V-240L733 -264C746 -265 746 -270 736 -277L693 -307C664 -294 596 -281 511 -271V-339C638 -363 693 -373 710 -375C720 -376 721 -381 713 -388L666 -429L654 -424C656 -409 572 -377 178 -308L181 -287C262 -297 353 -311 470 -332V-267L194 -238L239 -203C284 -212 373 -226 470 -236V-173L103 -137L156 -102C217 -113 288 -121 470 -138V-66C470 -24 464 16 459 32L341 -37L332 -23C382 20 427 63 463 102C471 111 478 111 482 102C501 60 511 16 511 -44V-142L851 -176C865 -177 865 -183 854 -191ZM291 -663L187 -648V-725L291 -738ZM402 -646L397 -574L187 -544V-617ZM291 -445L187 -430V-514L291 -528Z"/>
</svg>