<svg xmlns="http://www.w3.org/2000/svg" viewBox="0 -1000 1000 1000">
	<path fill="#000000" d="M394 -577L361 -602C349 -595 319 -588 275 -580V-667C275 -720 278 -763 284 -776C290 -788 288 -793 282 -798L223 -853L210 -844C230 -801 235 -766 235 -677V-575L65 -549L111 -514C133 -522 175 -531 235 -539V-373L55 -286L120 -260C144 -278 159 -287 235 -332V-95C235 -42 230 -3 224 12L112 -65L101 -52C156 7 211 69 230 93C240 106 245 106 251 93C267 60 275 10 275 -60V-357L365 -413L356 -430L275 -391V-544L390 -563C403 -565 404 -570 394 -577ZM954 -396L952 -414C826 -401 788 -406 636 -482V-574L811 -593C819 -594 819 -600 812 -606L777 -637C760 -626 720 -616 636 -605V-722L770 -738L724 -658L741 -650C800 -719 817 -733 843 -747C850 -751 850 -754 844 -761L807 -802L773 -772L363 -724L415 -685C434 -693 490 -704 598 -718V-500L488 -555C497 -578 502 -586 510 -593C518 -600 518 -604 512 -612L472 -671L460 -668C476 -626 411 -437 335 -337L349 -327C389 -365 430 -426 474 -526L713 -398L492 -372L466 -436L451 -430C458 -392 460 -369 460 -261V-64C460 -27 454 7 440 26L480 94C487 105 491 104 494 93C498 75 499 42 499 1V-123L691 -145C700 -146 702 -150 692 -159L661 -190C640 -177 602 -170 499 -155V-229L689 -252C698 -253 699 -257 690 -265L657 -296C638 -284 595 -273 499 -262V-337L718 -364V-42C718 -15 715 8 711 29L610 -33L601 -19C635 12 685 65 715 103C722 112 726 113 733 104C746 85 757 44 757 -25V-321C757 -346 761 -359 769 -369L795 -356Z"/>
</svg>