<svg xmlns="http://www.w3.org/2000/svg" viewBox="0 -1000 1000 1000">
	<path fill="#000000" d="M924 -605L885 -636C852 -617 796 -602 661 -587V-730L833 -751C850 -753 851 -757 838 -767L795 -799C761 -778 712 -766 422 -738L482 -698C497 -705 553 -718 619 -726V-584L368 -557L431 -516C456 -528 507 -537 605 -549L918 -587C937 -589 938 -594 924 -605ZM422 -591L389 -616C377 -609 341 -597 314 -590V-673C314 -742 317 -770 327 -782C335 -791 334 -796 325 -804L264 -859L252 -850C271 -805 274 -777 274 -683V-583L84 -546L132 -513C160 -523 198 -532 274 -548V-372L75 -274L145 -246C173 -271 190 -283 274 -331V-96C274 -52 268 -4 261 9L168 -59L156 -45C222 24 241 46 268 84C277 95 285 94 290 84C302 61 314 9 314 -61V-357L416 -417L409 -437L314 -391V-555L418 -577C430 -579 431 -584 422 -591ZM839 -484C847 -490 847 -493 839 -500L797 -538L771 -502L501 -466L480 -511L463 -505C468 -480 472 -444 472 -417V-216C472 -152 468 -139 455 -123L492 -61C498 -52 504 -53 505 -62C507 -76 508 -91 507 -117L579 -125C561 -76 482 -2 331 86L342 102C426 65 499 23 582 -46C606 -66 612 -70 617 -72C627 -76 630 -82 626 -89L603 -127L748 -143L774 -91C779 -81 786 -82 789 -90C795 -108 799 -135 802 -198L815 -429C817 -458 826 -475 839 -484ZM867 67C869 49 868 27 862 -5L683 -125L673 -111C775 -20 798 8 849 74C858 87 864 85 867 67ZM776 -468L767 -264C764 -193 761 -170 752 -165L723 -184C700 -175 664 -169 508 -148V-225L731 -253C745 -255 745 -260 735 -267L699 -292C674 -281 651 -276 508 -259L507 -330L728 -359C746 -361 747 -366 734 -375L699 -399C668 -387 643 -381 507 -364V-431Z"/>
</svg>