<svg xmlns="http://www.w3.org/2000/svg" viewBox="0 -1000 1000 1000">
	<path fill="#000000" d="M892 -557L839 -592C803 -575 773 -569 639 -554V-641L818 -661C828 -662 828 -666 821 -673L790 -703C765 -692 704 -681 639 -675V-703C639 -745 643 -773 651 -784C654 -788 654 -792 649 -797L584 -854L573 -844C588 -820 598 -764 598 -724V-671L423 -651L469 -615C501 -626 527 -630 598 -638V-551L358 -528L405 -491C444 -501 508 -510 582 -517C569 -492 535 -442 490 -393C461 -361 447 -354 391 -342L447 -305C454 -300 458 -300 464 -304C477 -312 553 -331 772 -372L817 -324C823 -317 828 -318 830 -329C835 -352 835 -364 829 -397L684 -492L673 -478L751 -395L496 -359L563 -425C612 -473 627 -482 642 -485C654 -487 656 -493 645 -502L621 -521L888 -545C901 -546 900 -551 892 -557ZM427 -576L390 -604C374 -594 329 -580 288 -570V-654C288 -735 290 -760 305 -782C309 -788 308 -792 303 -796L239 -854L226 -845C242 -806 246 -772 246 -654V-564L84 -536L135 -500C150 -508 200 -521 246 -530V-376L59 -286L128 -261C144 -275 178 -296 246 -334V-73C246 -29 244 -10 240 9L149 -60L136 -42C201 31 225 61 253 100C259 109 264 108 268 100C279 75 288 43 288 -67V-358L422 -433L413 -454L288 -394V-536L425 -562C436 -564 436 -569 427 -576ZM943 -3L902 -38C879 -30 844 -23 802 -20L814 -180C818 -232 822 -238 847 -256C854 -261 853 -265 848 -270L797 -316L769 -276L457 -239L433 -292L415 -285C423 -261 429 -206 431 -167L439 -2L310 7L357 46C426 37 567 27 940 9C950 9 951 4 943 -3ZM775 -244L764 -19L687 -15L688 -144C688 -171 691 -185 694 -189C700 -199 699 -203 694 -209L675 -232ZM651 -149L650 -13L582 -9V-128C582 -155 584 -169 587 -173C592 -182 592 -185 587 -192L565 -218L646 -228C650 -207 652 -182 651 -149ZM545 -7L478 -4L466 -205L537 -214C542 -192 545 -167 545 -133Z"/>
</svg>