<svg xmlns="http://www.w3.org/2000/svg" viewBox="0 -1000 1000 1000">
	<path fill="#000000" d="M823 -737C831 -743 831 -747 823 -753L771 -793L747 -755L482 -724L445 -791L430 -787C438 -748 445 -681 444 -654L447 -478C448 -430 443 -414 430 -399L469 -341C476 -331 481 -333 483 -343C486 -365 487 -384 487 -406L797 -438C805 -439 807 -444 798 -453L771 -481L798 -695C800 -716 808 -727 823 -737ZM408 -577L376 -600C364 -594 315 -582 277 -576V-665C277 -718 280 -760 286 -774C291 -785 290 -791 284 -796L225 -851L212 -842C232 -799 237 -764 237 -675V-570L79 -547L126 -514C147 -520 180 -529 237 -538V-375L50 -283L119 -260C143 -278 175 -297 237 -334V-98C237 -53 233 -9 227 6L132 -66L118 -49C181 17 201 40 235 86C245 100 251 99 257 85C275 42 277 21 277 -63V-358L396 -429L387 -447L277 -393V-543L404 -563C418 -565 417 -571 408 -577ZM947 -15L902 -52C877 -39 864 -36 811 -31L835 -257C838 -288 843 -304 861 -316C869 -322 869 -328 860 -336L815 -374L787 -333L432 -292L401 -344L388 -339C393 -306 398 -262 399 -233L401 -6L281 2L335 42C353 35 611 14 946 -2C956 -2 957 -7 947 -15ZM752 -721L736 -468L487 -440L481 -687L607 -703C605 -649 558 -548 492 -470L506 -457C543 -490 573 -529 603 -577L690 -492C700 -482 705 -484 706 -492C708 -513 709 -525 708 -547L615 -599C640 -643 648 -652 654 -657C661 -662 661 -666 658 -671L630 -706ZM795 -296L771 -28L683 -23L688 -195C689 -214 693 -233 698 -241C702 -247 702 -251 696 -258L677 -283ZM652 -192L646 -21L565 -16L562 -182C562 -200 564 -220 569 -228C573 -234 572 -238 567 -244L547 -269L646 -280C651 -255 653 -220 652 -192ZM530 -14L442 -8L438 -257L515 -266C521 -240 526 -206 527 -177Z"/>
</svg>