<svg xmlns="http://www.w3.org/2000/svg" viewBox="0 -1000 1000 1000">
	<path fill="#000000" d="M646 -759L553 -846L541 -834L613 -695C620 -681 627 -682 632 -696C639 -715 643 -733 646 -759ZM872 -682L827 -726L797 -685L432 -635C432 -656 429 -680 427 -706H409C400 -585 390 -555 352 -527L380 -473C386 -461 392 -462 398 -473C418 -510 428 -550 430 -600L796 -650L756 -556L771 -547C815 -617 852 -654 870 -664C880 -669 880 -675 872 -682ZM378 -426L371 -441L267 -396V-545L368 -560C380 -562 381 -567 372 -573L341 -595C333 -591 298 -583 267 -578V-683C267 -733 271 -757 279 -774C284 -785 282 -789 275 -795L211 -847L200 -840C217 -799 227 -732 227 -674V-573L56 -549L103 -515C123 -522 158 -530 227 -540V-380L26 -294L86 -260C100 -272 166 -312 227 -343V-120C227 -50 221 -18 214 -7L109 -77L99 -61C159 -7 194 36 225 81C232 92 240 91 245 81C262 45 267 5 267 -65V-366ZM540 -524L506 -589L491 -585C502 -536 437 -392 294 -214L307 -199C348 -240 386 -279 428 -339V-115C428 -48 424 -11 407 21L442 89C448 101 454 100 457 88C463 68 465 32 465 -96V-398C476 -416 494 -445 507 -466C519 -486 526 -496 536 -505C543 -511 544 -516 540 -524ZM880 -502L836 -533C793 -510 735 -498 514 -471L548 -435C567 -442 612 -453 660 -461C657 -423 649 -378 635 -332L594 -324L563 -389L549 -383C556 -363 561 -320 561 -279L563 -56C563 -17 557 6 549 21L576 84C582 99 588 98 592 85C600 59 602 49 601 -4L729 -20L758 62C762 73 768 72 772 61C780 40 784 23 791 -84L804 -289C805 -310 813 -331 826 -339C838 -346 837 -351 825 -359L779 -391L754 -352L663 -337C683 -386 699 -417 708 -424C715 -430 715 -435 707 -444L690 -464L878 -487C891 -489 892 -494 880 -502ZM766 -321L754 -111C752 -74 749 -54 742 -42L717 -63C705 -53 685 -46 601 -35L599 -155L732 -175C743 -177 743 -182 733 -189L703 -212C688 -204 656 -195 599 -186L598 -292Z"/>
</svg>