<svg xmlns="http://www.w3.org/2000/svg" viewBox="0 -1000 1000 1000">
	<path fill="#000000" d="M360 -563L325 -584C314 -579 286 -571 261 -567V-684C261 -734 264 -759 272 -775C277 -785 276 -790 268 -796L204 -848L198 -840C215 -799 225 -733 225 -675V-562L70 -539L116 -508C130 -514 156 -519 225 -530V-385L49 -295L112 -273C127 -285 137 -292 225 -347V-121C225 -38 221 -10 214 2L114 -69L105 -54C161 1 188 33 220 77C228 88 234 89 240 77C257 45 261 26 261 -66V-372L344 -427L335 -441L261 -404V-534L356 -548C370 -550 371 -557 360 -563ZM630 -652L592 -674C573 -664 537 -654 486 -647C487 -718 494 -745 503 -764C507 -773 506 -780 498 -787L439 -846L429 -838C444 -798 450 -756 450 -643L308 -625L355 -592C375 -600 393 -604 450 -613V-527L371 -515L355 -543L341 -539C345 -518 348 -491 349 -453L351 -359C351 -338 347 -324 337 -309L366 -259C373 -248 380 -247 383 -259C385 -268 386 -281 385 -293L450 -303V-214L271 -190L319 -158C348 -167 384 -174 450 -182V-96C450 -29 447 -6 431 17L461 89C468 105 474 105 479 91C484 75 486 41 486 -57V-186L620 -203C640 -206 640 -212 623 -222L588 -243C567 -233 552 -228 486 -218V-307L589 -320C612 -322 613 -327 599 -338L583 -351L601 -481C603 -496 607 -509 618 -519C624 -525 624 -529 618 -536L585 -575L561 -542L486 -531V-617L627 -636C643 -638 643 -644 630 -652ZM931 -494L893 -517C859 -501 827 -492 697 -473C698 -518 699 -580 700 -633C735 -652 780 -677 812 -699C840 -718 853 -724 867 -727C879 -730 881 -736 875 -744L843 -792L829 -791C817 -746 775 -710 695 -658L663 -747L649 -740C662 -674 664 -622 659 -402C654 -175 609 -68 532 41L546 51C643 -65 691 -168 697 -440L773 -452V-106C773 -52 767 -5 753 13L789 89C796 103 803 101 806 89C811 69 812 37 812 -87V-458L929 -476C947 -479 948 -484 931 -494ZM566 -513L558 -428L531 -448C519 -443 501 -439 486 -435V-500ZM450 -431L383 -420L381 -485L450 -496ZM558 -417L551 -347L486 -338V-406ZM450 -334L384 -324L383 -405L400 -391C413 -395 430 -397 450 -400Z"/>
</svg>