<svg xmlns="http://www.w3.org/2000/svg" viewBox="0 -1000 1000 1000">
	<path fill="#000000" d="M301 -601C307 -606 307 -611 301 -615L255 -650L235 -615L136 -598L104 -673L88 -669C97 -627 104 -575 105 -541L109 -417C110 -372 107 -361 96 -336L135 -276C141 -267 145 -266 149 -279C152 -290 152 -301 149 -360L288 -380C301 -381 302 -385 291 -396L269 -419L282 -541C285 -579 288 -590 301 -601ZM967 -185V-201C876 -203 806 -232 723 -290L614 -366C651 -399 668 -418 713 -478C730 -501 757 -525 768 -527C777 -529 777 -535 767 -545L728 -586L698 -553L522 -522C541 -555 565 -582 576 -587C583 -590 584 -596 581 -602L556 -645L802 -675L765 -581L786 -571C830 -644 862 -679 883 -693C891 -698 892 -703 882 -712L835 -751L802 -710L626 -690C636 -707 643 -740 644 -773L526 -868L516 -854L609 -689L404 -665C404 -696 403 -710 401 -732L380 -731C370 -621 356 -577 324 -540L346 -481C351 -469 359 -469 365 -480C382 -512 397 -569 402 -628L525 -642C510 -560 407 -405 292 -302L303 -290C391 -356 442 -412 507 -500L541 -481C562 -493 590 -499 683 -513C653 -470 619 -428 581 -389C547 -418 541 -428 538 -440L476 -433L474 -423C491 -415 511 -403 557 -367C454 -271 327 -193 203 -139L212 -122C313 -160 363 -183 439 -230C444 -212 448 -180 449 -154L454 -29C456 -5 448 22 438 37L478 103C485 116 490 116 495 99C498 90 499 78 498 41L741 24C750 23 753 19 746 10L722 -20L735 -160C738 -194 742 -208 755 -217L826 -164ZM242 -582L234 -410L149 -392L142 -566ZM707 -254L691 -233L481 -208L461 -244C506 -274 550 -308 590 -343ZM692 -197L682 -13L497 6L489 -174Z"/>
</svg>