<svg xmlns="http://www.w3.org/2000/svg" viewBox="0 -1000 1000 1000">
	<path fill="#000000" d="M394 -424L387 -439L282 -392V-537L384 -553C397 -556 397 -560 388 -568L356 -597C337 -586 321 -580 282 -572V-671C282 -735 288 -771 302 -786C306 -790 305 -795 300 -799L233 -857L221 -848C238 -805 242 -776 242 -681V-566L63 -541L116 -504C136 -513 160 -519 242 -532V-375L46 -287L104 -259C132 -277 187 -309 242 -338V-116C242 -39 238 -17 231 3L124 -72L117 -58C185 15 215 51 243 92C250 101 253 101 258 92C275 64 282 15 282 -61V-361ZM950 -185L949 -198C856 -201 774 -226 631 -294C674 -327 717 -363 757 -402C769 -413 780 -420 804 -429C813 -432 813 -436 808 -442L766 -489L731 -455L537 -425C565 -456 571 -461 582 -466C591 -470 592 -473 588 -479L568 -511L811 -537C823 -538 824 -541 814 -550L791 -575L812 -723C814 -738 823 -754 839 -767C846 -773 846 -776 839 -782L797 -818L766 -784L459 -748L426 -818L409 -810C418 -777 424 -740 425 -691L427 -594C428 -561 423 -542 410 -518L447 -458C455 -445 458 -445 462 -457C465 -464 466 -482 466 -499L536 -508C518 -453 454 -377 319 -267L330 -254C376 -284 415 -312 450 -341C482 -333 525 -315 570 -292C495 -236 404 -181 297 -134L307 -117C364 -137 402 -153 453 -180C459 -154 463 -125 463 -105V-30C463 -2 461 11 448 30L479 92C484 104 490 104 494 95C500 79 501 71 501 37L749 21C761 20 762 16 754 6L734 -19L747 -115C749 -127 758 -144 767 -151C775 -157 775 -159 767 -165L724 -195L703 -171L494 -154L477 -193C535 -226 562 -243 604 -274L837 -154ZM768 -749L752 -565L624 -549V-623L722 -634C736 -635 736 -638 725 -647L695 -675C680 -666 665 -662 624 -655V-732ZM717 -421C671 -374 641 -347 596 -313C534 -342 517 -355 512 -364L471 -360C489 -376 505 -392 521 -409L546 -390C572 -398 594 -402 717 -421ZM707 -137L694 -12L501 5V-120ZM461 -639L459 -713L587 -728V-651ZM462 -624L480 -605C501 -611 533 -616 587 -620V-545L465 -531Z"/>
</svg>