<svg xmlns="http://www.w3.org/2000/svg" viewBox="0 -1000 1000 1000">
	<path fill="#000000" d="M807 -662L694 -753L687 -742L733 -674L524 -650L607 -744C629 -769 639 -779 648 -786C659 -795 660 -800 653 -810L616 -863L604 -858C608 -823 592 -779 517 -683C501 -660 488 -652 453 -644L474 -611C481 -600 486 -599 498 -606C509 -612 570 -622 750 -649L782 -602C791 -589 798 -591 800 -601C805 -620 806 -632 807 -662ZM981 -226L980 -242C867 -250 808 -276 732 -359L679 -416C707 -426 758 -438 823 -451L845 -412C854 -397 861 -396 866 -410C871 -423 875 -441 876 -462L786 -545L775 -536L810 -474L671 -452L721 -538C731 -555 738 -565 747 -571C759 -579 761 -583 753 -595L723 -637L711 -632C709 -609 705 -589 697 -569L668 -501C664 -494 659 -483 654 -472L625 -515L616 -511C616 -495 610 -475 598 -454C599 -458 599 -463 599 -468L534 -527L525 -519L555 -455L446 -434L488 -501C511 -537 515 -544 522 -550C531 -558 532 -562 528 -569L503 -603L491 -597C491 -582 487 -569 465 -523L439 -468C429 -446 411 -434 380 -423L404 -391C410 -383 416 -381 427 -388C447 -400 480 -411 565 -435L573 -418C525 -353 434 -274 313 -189L322 -177C448 -248 566 -346 619 -416C624 -423 629 -428 633 -433L821 -210ZM409 -569L376 -595C349 -579 324 -572 294 -568V-694C294 -722 300 -751 309 -771C317 -788 315 -794 306 -802L248 -858L237 -851C251 -811 255 -776 255 -685V-562L82 -537L130 -500C152 -511 206 -524 255 -531V-373L63 -297L128 -262C146 -277 187 -303 255 -338V-60C255 -40 252 -21 248 -9L144 -86L135 -75C195 -10 232 37 260 77C271 92 276 91 282 78C290 60 294 35 294 -65V-359L385 -409L377 -420L294 -387V-536L405 -554C417 -555 418 -562 409 -569ZM673 -329L650 -374L641 -370C636 -329 554 -239 407 -145L414 -135C492 -169 558 -214 632 -282C644 -292 658 -304 667 -308C678 -314 679 -317 673 -329ZM733 -241L710 -293L699 -290C697 -255 607 -154 404 -38L410 -26C515 -72 596 -122 655 -172C691 -202 710 -215 722 -221C734 -227 737 -233 733 -241ZM806 -168L780 -218L769 -214C765 -166 634 -23 356 88L362 100C527 50 644 -16 749 -110C768 -127 786 -140 798 -145C810 -150 813 -155 806 -168Z"/>
</svg>