<svg xmlns="http://www.w3.org/2000/svg" viewBox="0 -1000 1000 1000">
	<path fill="#000000" d="M762 -740L677 -836L667 -829L719 -672C722 -664 727 -663 734 -672C748 -690 757 -713 762 -740ZM703 -461L635 -544L622 -536L663 -407C665 -400 670 -399 675 -406C689 -423 697 -438 703 -461ZM931 -408L887 -443C863 -429 818 -415 765 -407C797 -480 821 -526 834 -537C838 -540 838 -545 832 -553L793 -601L894 -615C906 -616 906 -622 897 -628L851 -659C817 -639 765 -626 578 -602L625 -567C652 -578 697 -588 772 -598C780 -569 772 -521 736 -403L569 -384L617 -345C634 -351 664 -358 703 -364V-243L574 -227L622 -189C651 -198 673 -202 703 -206V-101C703 -50 692 -15 679 7L720 93C724 101 731 100 734 94C742 78 744 67 744 -52V-211L907 -231C916 -232 917 -237 910 -243L863 -282C847 -271 800 -257 744 -247V-369L929 -393C939 -394 940 -400 931 -408ZM525 -673L508 -525L422 -514C429 -563 434 -622 434 -659ZM522 -326L507 -163L436 -151V-312ZM263 -119V-393L354 -450L346 -469L263 -427V-571L356 -586C365 -587 366 -590 359 -597L321 -631C308 -622 291 -615 263 -608V-669C263 -735 270 -763 282 -780C286 -785 286 -791 281 -795L213 -858L200 -848C217 -806 223 -780 223 -670V-601L64 -578L113 -541C141 -551 161 -555 223 -565V-408L47 -320L115 -296C130 -311 142 -319 223 -368V-95C223 -59 219 -26 214 -7L103 -67L94 -49C150 -7 188 27 233 76C240 83 245 84 248 76C259 46 263 23 263 -88V-110L274 -101C332 -182 368 -259 392 -347C395 -329 397 -310 397 -292V-184C397 -139 389 -113 379 -100L418 -24C423 -15 428 -15 431 -24C435 -36 436 -54 436 -119L573 -133C582 -134 583 -138 576 -145L549 -178L562 -293C564 -308 572 -332 580 -342C585 -348 584 -353 579 -357L536 -390L514 -361L430 -345L404 -397C409 -423 414 -450 418 -479L566 -496C576 -497 577 -501 569 -510L548 -532L562 -645C565 -667 569 -676 587 -688C594 -693 593 -698 588 -702L544 -740L518 -705L429 -692L399 -758L384 -755C403 -509 362 -280 263 -119Z"/>
</svg>