<svg xmlns="http://www.w3.org/2000/svg" viewBox="0 -1000 1000 1000">
	<path fill="#000000" d="M647 -679L614 -701C594 -691 575 -685 554 -681C568 -767 571 -777 579 -783C585 -787 584 -792 579 -797L532 -845L521 -839C530 -806 530 -766 521 -674L444 -660L442 -718C441 -736 443 -753 448 -758C453 -763 452 -769 447 -772L396 -806L388 -798C400 -777 408 -742 409 -697L410 -654L306 -637L342 -605C363 -614 387 -620 411 -625C411 -609 409 -598 405 -588L435 -547C441 -539 445 -542 446 -548C447 -560 447 -581 445 -630L518 -643C514 -601 509 -561 500 -526L515 -522C530 -556 542 -598 550 -648L646 -665C656 -667 656 -673 647 -679ZM361 -446L354 -460L268 -413V-546L348 -563C357 -565 358 -570 351 -574L318 -595C304 -586 286 -581 268 -577V-681C268 -731 272 -755 280 -772C285 -782 283 -787 276 -792L213 -843L203 -837C221 -796 230 -730 230 -672V-571L73 -543L116 -510C137 -518 179 -529 230 -540V-389L56 -293L116 -271C129 -283 142 -291 230 -353V-129C230 -41 227 -17 224 -6L134 -63L125 -51C181 5 204 33 233 73C241 84 245 83 251 73C266 49 268 31 268 -74V-380ZM956 24V7C840 -6 832 -10 738 -228C760 -281 773 -320 788 -372C807 -445 814 -454 823 -460C827 -463 827 -467 823 -473L787 -527L887 -543C896 -544 895 -550 889 -555L851 -585C821 -567 805 -561 694 -542C705 -590 714 -640 720 -687C724 -718 734 -748 741 -755C744 -758 745 -760 742 -765L693 -841L679 -835C700 -753 666 -479 582 -294C585 -333 587 -376 589 -423C590 -452 595 -464 606 -472C615 -479 615 -483 608 -488L564 -521L544 -490L429 -469C439 -489 443 -494 446 -496C452 -500 452 -504 449 -509L412 -564L399 -557C412 -524 385 -423 297 -293L311 -283C327 -303 341 -320 353 -336C355 -323 356 -310 358 -292L362 -243C364 -224 363 -211 358 -197L387 -147C391 -140 397 -139 398 -153C399 -163 399 -175 397 -201L513 -221C521 -223 522 -226 514 -232L494 -247L502 -312C504 -332 508 -343 520 -354C525 -358 525 -363 520 -366L480 -393L461 -365L376 -349L368 -360C384 -383 397 -407 411 -433L551 -461C544 -195 523 -96 495 -46L404 -115L393 -103C443 -50 463 -25 493 21C499 29 503 29 508 22C538 -20 561 -98 577 -244C598 -276 620 -317 644 -377L700 -231C647 -96 562 7 474 83L483 98C569 38 663 -67 718 -182L802 30ZM767 -524C771 -478 753 -380 717 -277L657 -414C667 -443 677 -476 687 -510ZM467 -337L460 -242L395 -229L387 -322Z"/>
</svg>