<svg xmlns="http://www.w3.org/2000/svg" viewBox="0 -1000 1000 1000">
	<path fill="#000000" d="M917 -686C923 -690 924 -695 917 -701L875 -736L850 -706L650 -680V-745L863 -771C875 -772 876 -778 868 -784L825 -812C788 -794 717 -782 408 -751L458 -714C479 -720 560 -734 612 -741V-676L432 -652C432 -665 431 -678 430 -691H411C406 -622 395 -596 372 -570L386 -513C389 -502 394 -501 399 -510C409 -528 416 -544 421 -562L452 -535C469 -541 490 -545 587 -559C597 -560 597 -564 589 -570L561 -593C543 -585 526 -580 422 -566C426 -581 429 -599 430 -619L612 -643V-612C612 -547 609 -523 601 -506L633 -467C640 -456 646 -457 647 -468C649 -485 650 -509 650 -557V-647L849 -674L827 -618L820 -623C801 -613 774 -606 663 -593L705 -563C731 -572 768 -579 845 -588C857 -589 857 -597 843 -603C874 -652 894 -671 917 -686ZM865 -518L833 -541C817 -534 798 -529 680 -511L712 -481C734 -488 744 -490 864 -506C873 -507 874 -512 865 -518ZM588 -492L556 -516C533 -505 511 -500 412 -487L456 -455C479 -465 503 -470 586 -481C594 -483 594 -487 588 -492ZM702 -404L636 -457L629 -448L674 -365C682 -351 690 -350 696 -363C700 -371 703 -387 702 -404ZM380 -453L368 -470L292 -430V-544L363 -558C371 -560 372 -563 366 -570L344 -596C329 -589 312 -584 292 -580V-654C292 -730 296 -762 307 -780C310 -785 310 -790 305 -794L238 -857L226 -850C245 -804 252 -764 252 -654V-573L86 -547L139 -513C161 -521 184 -526 252 -538V-408L61 -307L126 -285C140 -297 173 -319 252 -370V-84C252 -47 249 -14 245 0L147 -62L137 -49C197 12 225 41 258 85C263 93 271 92 274 85C289 49 292 21 292 -78V-395ZM927 -42L882 -75C857 -62 835 -57 697 -39V-123L856 -144C869 -146 870 -151 859 -159L821 -184C795 -173 771 -167 697 -156V-223L846 -242C858 -244 859 -250 849 -257L811 -283C783 -271 759 -264 697 -255V-319L881 -343C895 -344 896 -348 886 -355L848 -381C812 -366 752 -357 499 -326V-331C539 -377 547 -383 558 -388C563 -391 563 -395 561 -399L532 -459L517 -454C514 -414 486 -339 331 -188L341 -177C383 -208 421 -243 461 -288V-75C461 -19 456 -2 442 22L482 97C488 108 492 108 495 96C498 83 499 68 499 18C528 14 629 2 924 -29C937 -30 937 -35 927 -42ZM658 -35L499 -16V-302L520 -289C557 -299 578 -304 658 -315V-249L506 -229L535 -195C558 -203 585 -209 658 -219V-150L503 -129L535 -98C553 -105 570 -107 658 -119Z"/>
</svg>