<svg xmlns="http://www.w3.org/2000/svg" viewBox="0 -1000 1000 1000">
	<path fill="#000000" d="M960 45V26C797 4 781 -3 671 -208C706 -267 737 -333 763 -410C773 -438 782 -456 790 -466C795 -472 794 -476 788 -482L754 -516L901 -539C915 -541 915 -546 904 -554L862 -585C816 -564 763 -549 590 -524C610 -572 633 -631 659 -709C668 -737 678 -756 690 -769C696 -775 696 -778 691 -785L638 -852L619 -846C643 -787 591 -563 461 -326L477 -316C495 -343 513 -369 529 -395C535 -387 538 -381 549 -360L628 -213C561 -104 450 -3 293 83L302 97C460 28 569 -57 649 -173L772 54ZM520 -678L473 -709C433 -689 357 -678 66 -657L120 -617C141 -622 178 -629 240 -636L189 -469C182 -444 166 -421 145 -410L178 -370C186 -361 190 -361 198 -372C205 -382 226 -396 251 -399L397 -418C370 -237 338 -134 288 -48L175 -173L159 -159C216 -81 242 -39 275 27C279 35 284 38 294 26C340 -30 390 -147 433 -360C442 -403 451 -427 461 -435C477 -448 477 -452 465 -461L416 -496L389 -454L225 -429L288 -640L516 -664C530 -665 531 -671 520 -678ZM729 -512C736 -463 712 -369 648 -250L591 -357C580 -377 569 -404 567 -422L545 -426C556 -446 565 -466 575 -487Z"/>
</svg>