<svg xmlns="http://www.w3.org/2000/svg" viewBox="0 -1000 1000 1000">
	<path fill="#000000" d="M952 17V-1C810 -23 794 -31 692 -224C717 -275 739 -331 755 -395C763 -426 771 -439 781 -449C787 -455 787 -460 782 -469L750 -527L893 -547C906 -549 907 -554 896 -563L856 -594C809 -575 790 -568 615 -543C628 -588 642 -638 655 -696C663 -731 671 -747 683 -757C689 -762 690 -766 684 -774L630 -850L613 -843C633 -783 598 -591 531 -415L496 -444C482 -436 449 -427 406 -420L427 -523C432 -546 441 -562 455 -573C462 -578 463 -582 455 -589L411 -626L383 -591L288 -577L313 -708L495 -731C502 -732 503 -736 495 -743L456 -776C425 -758 387 -749 120 -720L167 -683C184 -689 202 -694 270 -703L246 -572L127 -555L167 -520C186 -524 211 -529 241 -534L216 -396L51 -375L97 -340C149 -355 263 -372 525 -397C508 -356 489 -314 469 -276L485 -265C511 -303 535 -341 555 -385C566 -375 586 -350 597 -328L647 -229C593 -120 493 -16 339 76L347 92C490 22 597 -65 670 -186L783 28ZM454 -275C459 -279 458 -283 453 -288L407 -330L378 -295L211 -273L182 -331L166 -326C173 -303 179 -255 180 -229L183 -94C184 -49 182 -32 171 -11L203 47C210 59 216 58 218 46C222 22 223 2 220 -54L437 -80C445 -81 447 -85 439 -93L409 -121L424 -225C427 -243 435 -259 454 -275ZM390 -558L367 -416L255 -400L282 -540ZM724 -524C731 -465 712 -376 666 -270L634 -331C615 -367 610 -379 608 -391L566 -408C579 -438 592 -471 604 -507ZM385 -260L370 -110L219 -87L216 -238Z"/>
</svg>