<svg xmlns="http://www.w3.org/2000/svg" viewBox="0 -1000 1000 1000">
	<path fill="#000000" d="M313 -664L227 -789L210 -782L273 -592C276 -583 280 -582 286 -591C298 -609 309 -636 313 -664ZM840 -662L739 -728L729 -717L820 -592C827 -584 833 -584 835 -593C839 -608 841 -634 840 -662ZM633 -646L600 -674C563 -659 483 -644 395 -636L443 -600C483 -612 570 -627 632 -634C640 -635 641 -639 633 -646ZM934 73C927 24 921 -70 922 -169L903 -171L885 -3C834 -38 776 -108 744 -270C728 -342 722 -385 713 -490L917 -516C928 -517 928 -522 918 -530L872 -565C852 -553 811 -542 710 -526C694 -700 698 -749 711 -777C714 -783 713 -788 708 -792L639 -851L625 -841C644 -808 647 -793 656 -674C660 -623 663 -577 668 -521L379 -480L437 -445C474 -456 552 -470 671 -485C682 -372 698 -277 720 -193C757 -52 832 47 924 83C932 86 935 83 934 73ZM435 -541L396 -572C357 -554 289 -539 68 -520L119 -483C151 -492 178 -496 316 -514C318 -476 302 -398 266 -323L177 -455L159 -446C190 -390 223 -326 246 -282C196 -184 136 -106 45 -17L61 -1C152 -80 223 -162 268 -240C293 -194 315 -149 333 -107C337 -97 342 -96 348 -106C354 -116 359 -136 364 -177L293 -284C313 -326 329 -363 342 -398C353 -428 360 -441 368 -450C374 -455 374 -459 370 -466L340 -517L434 -529C443 -530 444 -534 435 -541ZM704 -149L697 -167L576 -128L577 -265L671 -280C679 -281 680 -284 672 -291L640 -320C630 -312 613 -306 578 -298V-329C578 -357 582 -378 591 -389C595 -395 594 -399 589 -403L537 -454L523 -445C534 -421 539 -387 539 -338L538 -116L469 -93L472 -246C472 -268 475 -282 483 -293C486 -298 485 -303 480 -308L429 -362L416 -352C425 -331 430 -295 430 -253L432 -81L306 -40L374 -9C403 -25 458 -51 704 -149Z"/>
</svg>