<svg xmlns="http://www.w3.org/2000/svg" viewBox="0 -1000 1000 1000">
	<path fill="#000000" d="M308 -599C313 -604 313 -611 308 -615L267 -644L246 -612L146 -593L120 -672L102 -666C110 -640 115 -609 118 -551L126 -388C128 -349 124 -333 107 -316L144 -250C148 -242 154 -242 158 -254C163 -271 164 -294 161 -361L293 -377C303 -378 306 -383 294 -392L271 -409L285 -540C288 -568 296 -587 308 -599ZM744 -615C750 -623 750 -630 744 -635L693 -675L686 -668C695 -641 698 -605 698 -538V-350C698 -273 696 -261 683 -239L714 -189C722 -178 725 -179 728 -188C734 -205 735 -226 735 -311V-529C735 -593 738 -606 744 -615ZM646 -664L612 -690C578 -673 554 -666 494 -656C494 -737 498 -766 510 -777C515 -782 515 -788 509 -794L453 -849L441 -842C453 -806 457 -755 457 -652L315 -636L365 -601C382 -610 408 -616 457 -622V-522L387 -511L351 -562L338 -552C350 -524 354 -506 354 -473V-396C354 -372 352 -364 342 -347L374 -297C380 -289 385 -290 388 -299C390 -308 390 -314 390 -327L443 -334C381 -221 279 -117 168 -38L174 -28C261 -73 375 -171 457 -279V-111C457 -43 451 -22 437 -2L475 68C479 76 485 77 488 65C493 45 494 25 494 -86V-277L614 -161C622 -153 628 -154 629 -166C631 -194 630 -207 624 -231L494 -299V-341L610 -355C625 -356 626 -361 617 -369L591 -391L602 -468C606 -499 612 -514 625 -523C633 -528 633 -534 625 -540L584 -569L564 -537L494 -526V-627L643 -646C656 -647 658 -654 646 -664ZM864 -757C870 -765 869 -773 862 -780L803 -842L793 -837C807 -795 813 -751 813 -657V-121C813 -44 808 -8 800 -1L689 -79L680 -66C752 11 776 39 807 82C814 91 819 92 824 84C840 63 854 20 854 -50V-640C854 -718 856 -746 864 -757ZM253 -580L237 -406L159 -394L150 -562ZM567 -504L555 -382L494 -372V-494ZM457 -367L390 -358V-480L457 -490Z"/>
</svg>