<svg xmlns="http://www.w3.org/2000/svg" viewBox="0 -1000 1000 1000">
	<path fill="#000000" d="M684 -629L580 -706L568 -695L659 -567C663 -561 668 -561 671 -568C679 -588 681 -597 684 -629ZM667 -442L566 -533L551 -524L641 -382C646 -374 651 -375 654 -382C661 -400 665 -415 667 -442ZM528 -655C535 -662 535 -667 526 -674L484 -707L465 -672L351 -655L392 -624C405 -630 426 -634 472 -641L463 -526L351 -510L388 -480C402 -485 430 -492 461 -497L450 -365L335 -347C341 -399 343 -456 347 -677C348 -745 350 -755 363 -776C368 -784 367 -788 358 -798L311 -855L296 -850C304 -801 307 -750 307 -668C307 -495 303 -431 294 -342L192 -327L186 -458L277 -471C286 -472 287 -477 279 -485L254 -510C246 -501 229 -494 185 -487L180 -597C228 -635 246 -646 267 -657C274 -661 275 -666 271 -676L254 -720L243 -718C239 -694 216 -661 175 -622L153 -674L136 -669C142 -641 143 -627 146 -557L152 -407C154 -369 149 -340 135 -319L172 -246C178 -234 186 -234 189 -245C192 -258 193 -275 193 -295L290 -309C273 -189 200 -55 63 56L75 69C226 -39 306 -161 331 -314L506 -337C517 -338 519 -344 509 -352L486 -372L511 -594C516 -636 520 -647 528 -655ZM931 -359L884 -387C869 -377 824 -359 769 -346V-628C769 -712 775 -749 788 -770C793 -778 792 -783 787 -787L715 -857L699 -846C719 -802 727 -758 727 -665V-336L456 -276L515 -244C544 -258 616 -277 727 -302V-139C727 -28 719 -1 706 14L748 91C753 101 758 101 762 90C767 77 769 45 769 -40V-310L929 -345C940 -347 941 -353 931 -359ZM537 -121L341 -277L332 -260C428 -165 478 -103 519 -37C526 -25 532 -25 535 -37C541 -59 541 -82 537 -121Z"/>
</svg>