<svg xmlns="http://www.w3.org/2000/svg" viewBox="0 -1000 1000 1000">
	<path fill="#000000" d="M961 -350L960 -370C882 -376 841 -384 765 -474L636 -624L846 -648C855 -649 856 -652 848 -659L804 -699C770 -684 696 -668 600 -655C600 -745 604 -775 619 -789C625 -795 624 -801 617 -806L546 -860L534 -849C556 -802 559 -789 559 -651L340 -628L394 -588C410 -594 451 -602 516 -610C478 -534 424 -447 338 -358L304 -391L317 -527C322 -574 325 -581 343 -593C349 -597 349 -601 344 -605L297 -646L271 -613L151 -591L125 -671L108 -668C113 -626 115 -593 120 -521L126 -406C128 -373 122 -340 110 -321L144 -260C150 -249 154 -248 158 -259C161 -268 163 -298 163 -329L331 -350C307 -328 281 -304 252 -280L262 -264C310 -299 365 -343 416 -400C422 -374 430 -328 432 -294L437 -164C438 -131 433 -113 421 -93L454 -32C457 -26 463 -25 466 -32C470 -40 473 -60 474 -80L755 -114C763 -115 764 -118 757 -125L729 -153L743 -314C745 -337 753 -352 766 -361C772 -365 772 -369 765 -375L718 -414L693 -379L595 -366C599 -382 600 -399 600 -439V-620L605 -621L819 -339ZM917 -14L858 -60C823 -38 616 -10 243 9L299 54C407 34 680 11 916 -4C924 -4 925 -7 917 -14ZM580 -364L464 -348L435 -421C479 -472 521 -533 559 -603V-499C559 -462 555 -438 545 -420ZM279 -577L264 -381L162 -365L156 -555ZM702 -345L691 -145L473 -117L470 -196L668 -223C679 -224 680 -229 671 -237L639 -266C626 -257 588 -248 468 -231L465 -316Z"/>
</svg>