<svg xmlns="http://www.w3.org/2000/svg" viewBox="0 -1000 1000 1000">
	<path fill="#000000" d="M748 -773L704 -817L671 -778L316 -746L281 -814L266 -807C272 -783 282 -725 283 -698L288 -561C290 -508 287 -488 277 -467L310 -411C318 -398 325 -399 328 -411C331 -425 333 -443 333 -480L735 -512C747 -513 749 -519 740 -527L707 -553L719 -690C722 -728 727 -738 747 -752C755 -758 755 -767 748 -773ZM934 23L931 1C786 10 725 -11 534 -147C559 -171 583 -197 604 -223C627 -253 650 -273 662 -278C667 -280 668 -286 665 -291L639 -340L889 -360C898 -361 899 -365 890 -373L845 -412C813 -397 735 -382 532 -366C537 -386 540 -414 540 -429L441 -484L430 -473L505 -364L94 -330L145 -289C217 -305 317 -316 610 -338C600 -295 572 -247 500 -171L400 -243C381 -255 366 -275 358 -291L302 -280L301 -268C324 -257 344 -245 369 -226L475 -145C387 -66 252 6 64 72L71 89C274 28 410 -40 507 -122L736 50ZM680 -740L666 -543L330 -515L327 -594L627 -622C639 -623 640 -627 632 -636L605 -665C578 -653 483 -641 325 -626L322 -710Z"/>
</svg>