<svg xmlns="http://www.w3.org/2000/svg" viewBox="0 -1000 1000 1000">
	<path fill="#000000" d="M757 -774L716 -806L685 -770L320 -728L282 -802L268 -796C274 -771 284 -701 285 -687L292 -567C295 -518 291 -494 281 -474L314 -418C321 -408 327 -408 330 -417C334 -427 336 -448 335 -462L742 -502C755 -503 755 -508 746 -516L713 -544L726 -680C731 -730 736 -742 756 -755C766 -762 766 -767 757 -774ZM946 -268L892 -308C850 -291 802 -282 667 -271C668 -349 673 -384 682 -395C688 -403 688 -407 682 -413L614 -479L604 -471C619 -434 627 -363 627 -268L404 -249C409 -299 415 -323 419 -329C424 -337 423 -341 416 -346L385 -365C442 -385 507 -406 528 -411C538 -413 540 -417 534 -424L492 -472L482 -469C471 -436 419 -403 184 -328L187 -310C229 -319 283 -332 357 -355C364 -325 365 -288 362 -246L77 -224L129 -184C155 -190 275 -207 359 -215C338 -74 289 -14 95 87L103 105C322 15 386 -75 401 -217L627 -233V-147C627 -52 619 -13 603 15L645 80C652 90 656 89 659 79C666 54 667 39 667 -89V-236L943 -256C953 -257 954 -262 946 -268ZM687 -734L672 -532L333 -493L328 -578L642 -611C650 -612 651 -616 645 -623L614 -656C592 -644 533 -632 326 -612L322 -693Z"/>
</svg>