<svg xmlns="http://www.w3.org/2000/svg" viewBox="0 -1000 1000 1000">
	<path fill="#000000" d="M947 -145V-166C796 -169 784 -173 595 -373L848 -399C867 -401 869 -407 852 -416L789 -450C755 -426 700 -417 466 -392C495 -433 502 -440 507 -442C513 -444 514 -448 512 -455L500 -488L752 -513C764 -514 764 -518 757 -525L723 -557L742 -683C748 -723 757 -738 771 -748C779 -754 781 -760 772 -768L725 -812L699 -774L297 -731L260 -804L246 -797C251 -773 261 -704 262 -688L268 -561C272 -512 267 -488 257 -467L289 -411C297 -398 303 -399 306 -411C309 -423 310 -432 309 -469L459 -484C449 -455 432 -421 412 -387L115 -360L180 -321C201 -328 304 -342 390 -352C328 -263 224 -175 40 -82L49 -63C191 -127 285 -183 356 -256C362 -230 362 -203 352 -146C337 -55 295 14 175 88L185 105C313 38 365 -32 383 -104C402 -180 407 -195 414 -201C421 -207 420 -212 414 -219L369 -270C396 -297 420 -326 442 -358L561 -370L767 -126ZM637 -249L580 -298L566 -287C581 -259 588 -225 588 -166V-61C588 0 583 22 572 36L604 90C610 100 614 99 618 89C625 70 627 51 627 -21V-168C627 -211 629 -224 636 -233C642 -240 642 -244 637 -249ZM701 -737L681 -543L308 -503L304 -576L641 -615C652 -616 654 -620 645 -629L618 -656C591 -645 464 -627 303 -610L299 -695Z"/>
</svg>