<svg xmlns="http://www.w3.org/2000/svg" viewBox="0 -1000 1000 1000">
	<path fill="#000000" d="M635 -748L539 -839L527 -829L596 -681C600 -673 605 -672 611 -682C628 -711 632 -725 635 -748ZM872 -681L827 -725L797 -686L422 -645C423 -661 422 -679 420 -696H403C397 -623 377 -578 344 -554L359 -501C362 -490 368 -488 377 -500C399 -531 414 -568 419 -611L794 -652L750 -567L768 -555C818 -627 841 -651 869 -663C881 -668 881 -673 872 -681ZM603 -426C610 -431 610 -437 603 -443L564 -478L541 -446L469 -434C494 -494 505 -512 515 -520C520 -524 520 -528 515 -537L478 -598L467 -593C470 -513 403 -351 327 -241L336 -623C337 -646 348 -669 359 -680C365 -686 365 -690 358 -696L312 -731L289 -691L173 -670L140 -735L123 -731C132 -698 136 -661 137 -588L142 -261C143 -200 137 -165 125 -149L159 -89C164 -80 171 -79 175 -89C179 -102 182 -132 181 -186L275 -203L302 -145C307 -135 312 -135 316 -144C321 -157 325 -181 327 -211C349 -233 379 -272 403 -310L458 -210C462 -202 469 -203 472 -212C479 -230 482 -247 483 -274L417 -331C434 -357 447 -380 456 -398L542 -412C498 -166 436 -58 257 76L268 91C455 -32 529 -136 577 -386C581 -402 591 -417 603 -426ZM900 14C888 -51 881 -96 877 -169L859 -167L853 -6C806 7 737 12 695 4C660 -3 654 -21 654 -92V-253C680 -223 701 -195 722 -157C727 -148 735 -149 740 -157C765 -197 779 -252 791 -400C794 -442 798 -453 810 -463C819 -469 819 -475 814 -480L776 -520L752 -484L647 -472L616 -525L603 -518C613 -483 615 -461 615 -392V-92C615 18 632 37 689 42C754 48 812 46 890 30C900 28 902 24 900 14ZM297 -657L292 -346C291 -280 288 -250 281 -231L262 -243C250 -236 215 -226 181 -219L177 -440L282 -460C293 -462 293 -467 285 -473L255 -498C237 -487 219 -482 176 -474L173 -636ZM755 -451C750 -345 741 -272 727 -225L658 -273L654 -267V-440Z"/>
</svg>