<svg xmlns="http://www.w3.org/2000/svg" viewBox="0 -1000 1000 1000">
	<path fill="#000000" d="M668 -766L573 -860L558 -848L635 -687C638 -681 642 -681 647 -687C658 -703 665 -731 668 -766ZM885 -679L844 -714C807 -693 716 -675 385 -643L434 -604C462 -615 487 -619 521 -623L882 -667C892 -668 893 -672 885 -679ZM598 -410L517 -486C534 -520 546 -540 557 -548C563 -552 563 -556 559 -562L517 -618L503 -614C502 -541 461 -419 380 -294L396 -282C421 -312 478 -397 507 -463L571 -344C575 -336 579 -336 583 -344C590 -358 596 -382 598 -410ZM388 -651C394 -656 393 -660 387 -665L341 -707L313 -667L192 -643L152 -736L135 -732C145 -699 153 -633 154 -561L158 -249C159 -176 154 -155 140 -138L176 -78C181 -69 188 -68 191 -78C196 -95 198 -107 198 -147L293 -165L325 -106C331 -95 335 -94 339 -105C344 -118 347 -144 349 -235L363 -599C364 -622 369 -635 388 -651ZM940 -247L894 -281C868 -267 796 -251 650 -238C650 -273 654 -301 662 -312C667 -319 666 -324 659 -329L642 -341C669 -379 699 -429 726 -486L820 -345C827 -334 834 -333 836 -344C840 -367 842 -383 843 -418L737 -506C758 -550 765 -562 774 -567C782 -571 782 -576 777 -583L730 -645L716 -640C721 -590 689 -464 623 -352L603 -366L593 -359C607 -323 610 -299 610 -235L353 -213L399 -174C438 -184 502 -194 610 -205V-103C610 5 607 17 594 39L631 101C637 111 643 111 645 98C648 81 650 46 650 -55V-208L939 -234C949 -235 950 -240 940 -247ZM322 -631L313 -307C311 -234 306 -204 297 -186L270 -205C257 -195 238 -189 198 -182L195 -389L301 -412C311 -414 312 -419 304 -425L275 -448C260 -440 234 -431 194 -424L191 -610Z"/>
</svg>