<svg xmlns="http://www.w3.org/2000/svg" viewBox="0 -1000 1000 1000">
	<path fill="#000000" d="M931 -509L930 -530C846 -534 805 -561 763 -626L682 -754C660 -787 655 -807 657 -825L599 -840L595 -829C614 -806 624 -791 655 -737L790 -499ZM747 -495L643 -583L628 -569L680 -492L498 -471L573 -575C589 -597 600 -607 610 -613C615 -616 616 -621 612 -628L582 -686L566 -682C564 -657 553 -620 539 -595L492 -511C478 -484 462 -470 412 -460L463 -421C470 -416 473 -417 479 -420C498 -432 535 -441 695 -471L721 -432C727 -423 733 -424 737 -432C745 -449 748 -475 747 -495ZM556 -741L524 -808L508 -803C503 -740 453 -640 319 -491L323 -584C325 -612 332 -624 347 -639C352 -644 352 -648 347 -653L302 -693L276 -653L166 -636L133 -699L115 -696C125 -664 129 -620 130 -554L133 -248C133 -201 128 -154 115 -138L150 -79C156 -70 162 -69 165 -79C172 -100 174 -113 173 -165L254 -176L286 -110C291 -100 297 -101 300 -109C306 -125 309 -147 310 -237L319 -479L328 -472C399 -537 453 -592 504 -667C523 -696 542 -719 554 -727C558 -730 559 -734 556 -741ZM697 -258L609 -299L601 -283L682 -199C687 -194 693 -195 695 -204C699 -223 699 -240 697 -258ZM464 -244L375 -283L367 -270L449 -185C457 -176 462 -178 463 -185C466 -203 466 -221 464 -244ZM815 -369C821 -373 821 -378 814 -384L776 -420L749 -386L585 -362L625 -328C652 -337 671 -343 749 -356V-205L556 -97L617 -74C633 -96 655 -115 749 -176V-75C749 -43 744 1 739 23L638 -36L628 -20C687 28 707 48 740 95C745 102 749 102 755 94C771 74 788 8 788 -79V-306C788 -340 794 -354 815 -369ZM573 -351C580 -357 580 -360 572 -366L532 -399L506 -366L339 -342L383 -309C407 -317 444 -324 513 -333V-194L320 -95L386 -73C404 -97 423 -111 513 -169V-53C513 -21 510 -10 504 7L428 -45L415 -30C470 27 487 47 509 84C513 91 518 91 523 84C536 66 551 8 551 -57V-289C551 -327 557 -338 573 -351ZM287 -621L277 -308C275 -234 271 -209 260 -193L229 -214C216 -207 193 -199 173 -197L169 -407L261 -423C271 -425 272 -428 264 -436L235 -462C222 -453 205 -447 168 -440L166 -603Z"/>
</svg>