<svg xmlns="http://www.w3.org/2000/svg" viewBox="0 -1000 1000 1000">
	<path fill="#000000" d="M894 -217L858 -240C839 -229 763 -218 585 -204L587 -254L732 -267C741 -268 742 -274 735 -280L706 -302C688 -293 648 -285 589 -280L591 -323L754 -337C767 -338 767 -344 759 -350L731 -371C711 -362 663 -353 592 -346C594 -359 596 -366 601 -372C604 -377 605 -381 597 -388L585 -399L709 -412C717 -413 719 -417 713 -425L703 -437V-451C703 -470 706 -480 717 -485C726 -490 727 -493 717 -502L688 -525L670 -501L541 -487L524 -524L861 -550C874 -551 873 -558 864 -563L821 -589C795 -577 738 -569 512 -551C515 -564 517 -574 519 -586L485 -609L717 -629C726 -630 726 -634 719 -641L698 -661L706 -738C709 -769 714 -776 733 -786C741 -790 740 -795 734 -800L697 -835L662 -799L329 -762L297 -826L283 -820C288 -806 293 -778 294 -747L297 -657C298 -635 293 -613 285 -600L316 -555C323 -547 330 -547 331 -557C332 -566 333 -578 333 -591L459 -604L488 -549L98 -519L150 -487C170 -493 189 -496 256 -502C264 -466 266 -419 256 -394L282 -356C288 -346 295 -347 296 -358C297 -363 297 -369 297 -375L355 -381C362 -366 364 -356 364 -327L189 -312L236 -284C249 -289 279 -294 364 -303V-260L205 -246L248 -219C262 -223 313 -230 364 -234V-185L82 -162L133 -129C179 -140 226 -146 404 -161C339 -114 233 -53 63 25L71 42C175 4 248 -27 322 -67V-1C322 24 313 37 284 56L314 93C317 97 324 97 330 93C353 75 388 51 550 -33L542 -52L359 30V-90C402 -115 416 -124 468 -164L701 80L887 64V48C778 45 700 16 607 -67C651 -96 672 -108 688 -112C696 -113 698 -118 694 -127L674 -168L662 -169C657 -151 643 -132 588 -84L498 -170L891 -204C901 -205 903 -211 894 -217ZM670 -771L657 -652L333 -618V-661L617 -690C629 -691 629 -696 620 -702L589 -723C569 -715 495 -703 332 -685L331 -734ZM670 -434L546 -421L544 -461L670 -477ZM414 -415L297 -400L296 -441L414 -458ZM556 -343L400 -330C400 -338 402 -344 405 -350C408 -357 408 -361 401 -367L382 -384L454 -391C465 -392 465 -397 459 -405L446 -422V-438C446 -452 450 -464 459 -469C468 -474 468 -479 458 -487L429 -510L411 -482L292 -468L276 -504L505 -523C518 -482 516 -440 504 -414L529 -374C535 -366 540 -366 543 -375C545 -382 546 -388 546 -394L554 -395C556 -385 557 -373 556 -343ZM555 -320L554 -277L399 -263V-306ZM553 -251L550 -201L399 -188V-236Z"/>
</svg>