<svg xmlns="http://www.w3.org/2000/svg" viewBox="0 -1000 1000 1000">
	<path fill="#000000" d="M958 -44V-64C826 -67 806 -78 676 -307L817 -323C833 -325 834 -329 823 -339L802 -358L823 -512C825 -526 833 -544 846 -554C855 -562 856 -566 847 -574L806 -608L779 -572L657 -553V-652L905 -678C916 -679 916 -684 907 -692L866 -725C848 -710 772 -697 657 -684C658 -743 663 -775 671 -790C677 -802 676 -805 668 -812L608 -864L594 -855C610 -814 619 -767 620 -681L418 -658L463 -624C485 -632 526 -639 620 -649V-549L502 -532L473 -598L459 -592C464 -569 471 -509 471 -490V-369C471 -337 465 -313 458 -297L490 -244C497 -232 503 -233 506 -246C507 -251 508 -268 508 -288L577 -296C515 -182 431 -87 301 16L311 30C454 -67 542 -154 620 -284V-105C620 -41 614 -13 599 16L640 94C646 105 653 104 655 93C656 85 657 47 657 -53V-284L792 -33ZM433 -626L388 -658L366 -621L284 -608V-656C284 -745 284 -763 291 -775C297 -785 296 -789 291 -795L240 -852L228 -845C241 -805 248 -752 248 -644V-603L160 -590L124 -671L111 -666C118 -646 127 -593 128 -564L132 -336C134 -284 131 -265 122 -254L154 -196C160 -186 166 -187 167 -200C168 -208 168 -254 167 -294L248 -305V-74C248 -34 241 -5 229 12L264 87C269 97 276 97 279 86C283 72 284 58 284 -34V-309L406 -324C419 -326 419 -330 411 -338L395 -353L416 -575C418 -595 422 -604 430 -609C441 -616 440 -621 433 -626ZM248 -469L164 -457V-557L248 -571ZM376 -590L358 -350L284 -340V-445L353 -458C364 -460 365 -464 355 -472L329 -492C317 -484 306 -479 284 -474V-576ZM786 -537L767 -353L680 -341C729 -444 736 -456 742 -462C750 -470 751 -474 745 -482L716 -521L702 -516C704 -483 688 -420 657 -347V-519ZM620 -334L508 -319V-499L620 -515ZM248 -336L166 -326L165 -447L188 -427C197 -431 218 -436 248 -440ZM603 -403L534 -480L523 -470L570 -347C575 -333 583 -332 589 -346C598 -365 603 -386 603 -403Z"/>
</svg>