<svg xmlns="http://www.w3.org/2000/svg" viewBox="0 -1000 1000 1000">
	<path fill="#000000" d="M502 -506L407 -595L394 -582L479 -428C485 -419 491 -420 494 -429C500 -446 504 -480 502 -506ZM925 25C909 -46 895 -112 889 -163H869L867 -3C841 6 782 11 757 7C693 -5 687 -9 687 -161V-343C756 -284 786 -255 817 -219C825 -210 830 -212 831 -222C834 -250 832 -271 826 -297L687 -374V-409C720 -440 744 -464 777 -498C806 -528 815 -534 830 -540C838 -543 840 -547 837 -555L807 -634L791 -633C788 -595 752 -523 687 -444V-604C687 -716 694 -765 706 -781C711 -787 711 -791 705 -797L648 -853L635 -846C645 -822 648 -802 648 -689V-87C648 9 661 30 757 46C794 52 876 52 918 40C925 38 927 34 925 25ZM588 -718C593 -728 592 -732 585 -737L516 -784L506 -774C529 -736 536 -689 536 -549C536 -468 535 -426 531 -360L362 -261V-682C362 -699 364 -705 382 -719C390 -724 390 -729 383 -735L342 -777L311 -736L208 -722L172 -801L156 -796C163 -731 165 -695 170 -553C179 -209 127 -59 34 77L51 88C136 -27 185 -122 201 -321L323 -337V-125C323 -58 321 -43 316 -26L227 -92L215 -78C270 -17 294 13 326 62C334 75 340 73 345 62C362 25 362 17 362 -133V-247L425 -230C443 -254 476 -285 530 -335C514 -139 457 -34 346 72L359 85C487 -21 552 -137 566 -301C575 -410 580 -480 578 -539C577 -674 581 -703 588 -718ZM323 -525L285 -550C270 -542 246 -534 208 -527C208 -611 208 -643 207 -689L323 -704ZM323 -350L284 -377C268 -367 248 -360 203 -353C206 -396 207 -429 208 -495L323 -511Z"/>
</svg>