<svg xmlns="http://www.w3.org/2000/svg" viewBox="0 -1000 1000 1000">
	<path fill="#000000" d="M676 -393L603 -579L587 -573C602 -501 622 -413 639 -343C642 -330 645 -330 652 -341C662 -357 668 -370 676 -393ZM976 33V17C881 -9 862 -39 829 -145L762 -361C798 -416 816 -443 851 -494C870 -522 889 -546 898 -552C902 -555 903 -561 900 -567L864 -629L850 -625C849 -579 818 -502 752 -395L741 -432C745 -504 751 -626 752 -680C753 -733 759 -760 768 -774C771 -779 771 -784 767 -787L691 -844L679 -833C707 -788 716 -670 702 -435C690 -228 639 -63 523 86L538 97C658 -38 709 -152 734 -353L845 37ZM291 -575L277 -382L188 -366L180 -554ZM318 -452L365 -425C388 -434 423 -443 461 -454C422 -345 347 -217 235 -102L248 -88C327 -160 404 -254 463 -358V-129C463 -42 459 -21 441 7L487 78C493 86 499 85 500 74C503 57 504 30 504 -78V-374L568 -280C574 -271 581 -272 583 -281C588 -299 591 -318 592 -339L504 -408V-463L583 -480C595 -483 596 -488 587 -494L552 -519C540 -511 525 -505 504 -498V-672C569 -699 577 -702 610 -712C620 -715 620 -720 614 -724L565 -758L554 -754C554 -737 520 -714 352 -640L360 -626C397 -636 434 -647 463 -656V-489L318 -456L328 -532C333 -570 334 -575 351 -592C356 -597 356 -602 351 -606L309 -641L287 -609L177 -590L146 -657L130 -653C138 -628 140 -609 143 -543L150 -377C152 -340 147 -322 137 -306L173 -242C177 -235 182 -234 186 -245C190 -257 191 -276 189 -332L333 -356C342 -357 341 -362 334 -368L310 -393Z"/>
</svg>