<svg xmlns="http://www.w3.org/2000/svg" viewBox="0 -1000 1000 1000">
	<path fill="#000000" d="M794 -729L749 -763C686 -740 610 -725 431 -710L485 -666C546 -683 587 -691 790 -717C802 -718 801 -724 794 -729ZM443 -583L407 -613C391 -604 338 -592 290 -584V-663C290 -731 295 -760 305 -780C309 -788 307 -792 299 -799L235 -853L224 -843C242 -800 252 -706 251 -662V-578L70 -550L119 -515C134 -521 190 -534 245 -542C201 -412 131 -287 37 -179L50 -167C124 -233 195 -336 251 -448V-124C252 -47 246 -14 230 17L267 88C275 101 282 100 285 87C289 70 290 38 290 -71V-453L386 -328C393 -320 398 -319 402 -329C407 -341 408 -367 406 -399L290 -481V-547L440 -570C450 -571 452 -576 443 -583ZM920 2C899 -70 894 -94 883 -189L865 -188L857 -22C817 -12 784 -8 749 -11C695 -16 680 -37 680 -147V-338C680 -380 690 -411 700 -425C705 -432 705 -435 701 -441L675 -473L878 -496C890 -497 891 -503 881 -511L837 -548C777 -522 710 -507 378 -478L421 -437C441 -445 483 -451 518 -456C526 -405 517 -329 497 -233C476 -133 426 -26 309 73L323 87C469 -15 530 -142 556 -330C560 -362 566 -378 579 -395C585 -403 585 -407 581 -413L546 -458L638 -469C641 -442 642 -406 642 -347V-131C642 -7 668 27 747 31C786 33 865 29 910 19C920 17 923 14 920 2Z"/>
</svg>