<svg xmlns="http://www.w3.org/2000/svg" viewBox="0 -1000 1000 1000">
	<path fill="#000000" d="M393 -562L351 -592C337 -583 308 -575 272 -569V-666C272 -736 277 -764 286 -783C290 -791 288 -795 280 -802L216 -856L205 -846C224 -803 233 -748 233 -665V-563L72 -540L115 -502C135 -509 181 -520 227 -528C175 -370 125 -267 38 -152L52 -141C111 -196 172 -293 233 -416V-122C234 -45 228 -12 211 19L250 90C257 103 264 102 267 89C271 72 272 40 272 -69V-439L370 -335C378 -327 385 -327 386 -337C387 -357 387 -372 385 -404L272 -470V-534L391 -549C403 -551 403 -555 393 -562ZM866 -698L817 -735L791 -694L456 -649L419 -754L402 -750C410 -697 414 -626 415 -580L424 -133C425 -81 416 -44 401 -25L444 62C449 73 455 72 458 60C464 38 466 2 466 -50L749 -78L776 8C781 24 788 25 794 7C807 -29 814 -72 818 -161L841 -622C842 -644 850 -670 865 -680C874 -686 874 -692 866 -698ZM801 -656L785 -312C762 -308 750 -306 731 -306C701 -306 697 -309 697 -366V-522C697 -547 701 -582 710 -594C716 -602 715 -606 708 -612L678 -640ZM542 -623C559 -427 542 -309 463 -216L455 -611ZM783 -273L778 -179C776 -130 770 -107 760 -97L724 -126C701 -110 656 -103 466 -87L464 -183C556 -273 580 -347 589 -510C591 -549 594 -559 602 -568C607 -574 606 -578 601 -584L565 -626L652 -637C656 -627 659 -608 659 -574V-369C659 -279 672 -267 722 -268C749 -269 765 -270 783 -273Z"/>
</svg>