<svg xmlns="http://www.w3.org/2000/svg" viewBox="0 -1000 1000 1000">
	<path fill="#000000" d="M838 -704L723 -775L713 -760L810 -635C819 -624 825 -624 829 -637C834 -653 837 -672 838 -704ZM932 64C920 5 909 -96 904 -188H886L871 -14C820 -48 784 -95 736 -207C707 -273 680 -395 671 -519L882 -555C897 -558 897 -565 883 -573L838 -600C819 -588 764 -572 669 -554C658 -736 660 -762 670 -777C676 -786 676 -790 667 -798L607 -854L589 -845C606 -800 614 -746 630 -548L379 -510L436 -470C466 -480 542 -496 632 -513C642 -390 660 -290 700 -182C747 -57 829 44 916 76C929 81 934 77 932 64ZM431 -563L395 -592C381 -583 348 -574 296 -564V-657C296 -726 300 -753 311 -775C315 -783 314 -786 305 -794L240 -848L229 -838C247 -795 258 -701 257 -656V-558L80 -532L129 -496C144 -502 201 -514 254 -523C213 -407 140 -282 35 -170L49 -155C124 -223 206 -328 257 -423V-132C258 -55 251 -22 235 9L274 80C281 93 288 92 291 79C295 59 296 30 296 -79V-441L375 -346C381 -338 388 -339 390 -347C393 -363 394 -382 394 -408L296 -467V-529L428 -549C439 -551 440 -556 431 -563ZM678 -176L674 -195L537 -154V-336L635 -356C648 -359 649 -364 638 -372L603 -395C579 -381 541 -368 393 -344L439 -311C456 -319 467 -323 496 -329V-141L330 -88L394 -51C426 -70 453 -83 678 -176Z"/>
</svg>