<svg xmlns="http://www.w3.org/2000/svg" viewBox="0 -1000 1000 1000">
	<path fill="#000000" d="M806 -789C815 -794 814 -799 806 -805L751 -843L726 -806L435 -769L490 -732C511 -740 596 -754 737 -772L725 -675L695 -701C678 -693 639 -683 462 -656L510 -625C535 -633 608 -647 725 -664L716 -579L455 -540L503 -506C531 -516 573 -526 779 -550C792 -552 792 -556 785 -563L755 -591L774 -726C780 -760 791 -780 806 -789ZM905 -482L857 -528L826 -489L460 -437C462 -455 462 -476 460 -495L443 -496C432 -416 413 -386 390 -375L398 -313C399 -303 406 -301 414 -312C437 -340 445 -357 456 -404L820 -452L776 -372L793 -361C843 -427 875 -452 902 -467C911 -472 912 -476 905 -482ZM435 -568L399 -597C381 -589 332 -576 288 -569V-653C288 -722 293 -751 303 -771C307 -779 306 -783 297 -790L232 -844L221 -834C239 -791 248 -740 248 -652V-563L61 -535L110 -498C126 -504 181 -517 242 -526C194 -375 154 -290 45 -144L57 -133C149 -235 201 -312 248 -413V-126C249 -49 243 -16 227 15L265 86C273 99 280 98 283 85C287 68 288 36 288 -73V-420L349 -323C355 -314 360 -313 365 -325C370 -338 372 -362 371 -391L288 -456V-532L432 -553C445 -555 446 -559 435 -568ZM954 27V8C815 -3 784 -20 648 -151C671 -182 709 -240 731 -287C743 -313 752 -323 769 -329C781 -333 782 -338 771 -348L723 -393L694 -353L445 -319L494 -284C549 -299 584 -306 695 -321C675 -273 652 -221 619 -178C571 -227 558 -245 554 -262L487 -269L486 -252C504 -245 530 -231 558 -202L602 -156C507 -41 410 24 311 69L319 86C473 17 525 -18 627 -127L785 42Z"/>
</svg>