<svg xmlns="http://www.w3.org/2000/svg" viewBox="0 -1000 1000 1000">
	<path fill="#000000" d="M573 -413L510 -451C524 -483 529 -488 539 -495C545 -499 545 -504 540 -512L504 -571L491 -567C491 -485 449 -381 376 -279L390 -268C439 -319 470 -365 500 -427L556 -356C562 -348 569 -348 571 -359C575 -377 575 -389 573 -413ZM963 -76V-98C860 -99 819 -134 692 -341C715 -378 736 -415 753 -448C797 -403 812 -382 839 -336C845 -326 852 -326 854 -336C859 -357 861 -379 860 -409L763 -469C765 -476 768 -483 771 -489C779 -510 788 -522 796 -527C804 -532 805 -538 799 -545L752 -600L739 -593C745 -539 727 -456 675 -366C667 -379 659 -392 651 -407V-608L888 -631C898 -632 899 -637 890 -644L844 -679C812 -666 752 -652 651 -640V-685C651 -723 658 -771 668 -791C673 -800 672 -805 665 -810L601 -857L590 -841C607 -818 610 -799 610 -697V-637L398 -617L448 -575C472 -583 535 -593 610 -603V-426C563 -285 461 -139 319 -24L329 -6C438 -82 541 -195 610 -313V-144C610 -61 603 -15 589 21L628 94C635 106 639 105 643 93C649 74 651 41 651 -144V-352L812 -62ZM419 -555L384 -585C366 -577 341 -570 294 -562V-646C294 -716 299 -754 309 -774C313 -782 311 -786 303 -793L238 -847L227 -837C245 -794 254 -731 254 -668V-556L95 -534L144 -498C158 -504 202 -514 255 -522C205 -393 126 -268 45 -188L61 -174C134 -239 218 -341 254 -416V-131C254 -55 249 -21 233 10L272 81C279 94 286 93 289 80C293 63 294 31 294 -78V-441L384 -350C394 -340 400 -342 400 -355C400 -376 399 -388 392 -417L294 -471V-526L416 -542C426 -543 428 -547 419 -555Z"/>
</svg>