<svg xmlns="http://www.w3.org/2000/svg" viewBox="0 -1000 1000 1000">
	<path fill="#000000" d="M739 -503L706 -564L691 -557C693 -518 675 -467 634 -381L650 -374C707 -467 724 -482 737 -489C742 -492 743 -496 739 -503ZM534 -412L446 -493L435 -482L497 -368C502 -359 508 -358 515 -368C523 -380 529 -394 534 -412ZM404 -549L368 -579C351 -569 323 -559 285 -551V-651C285 -720 290 -749 300 -769C304 -777 303 -780 294 -788L230 -842L219 -832C237 -789 246 -740 246 -650V-545L69 -518L117 -482C132 -488 185 -500 234 -509C199 -387 129 -255 42 -148L59 -135C126 -207 201 -315 246 -412V-121C247 -44 241 -11 225 20L263 91C270 104 278 103 281 90C284 77 285 61 285 -68V-419L369 -309C375 -301 381 -302 383 -310C386 -322 388 -346 388 -380L285 -452V-517L401 -536C411 -538 412 -542 404 -549ZM881 -655L833 -696L805 -654L496 -613C510 -646 527 -685 542 -721C557 -757 565 -769 576 -776C584 -781 585 -786 580 -791L525 -851L512 -842C521 -778 454 -566 364 -432L382 -420C414 -464 454 -527 479 -577L811 -619C777 -66 765 -15 736 28L642 -35L628 -21C672 26 701 61 733 105C739 114 745 114 753 103C802 35 814 1 849 -541C853 -600 859 -623 880 -637C890 -644 890 -647 881 -655ZM774 -354L742 -382C723 -370 689 -362 601 -350V-416C601 -472 605 -495 613 -508C616 -512 615 -516 610 -521L562 -569L550 -557C560 -533 564 -508 564 -412V-346L393 -326L438 -286C464 -296 473 -298 539 -308C494 -220 448 -161 348 -58L360 -43C457 -128 512 -186 564 -267V-163C564 -90 558 -63 543 -32L582 31C586 38 592 38 595 30C599 14 601 -12 601 -79V-273C646 -240 688 -195 712 -162C721 -150 727 -151 729 -163C733 -188 733 -208 729 -233L601 -301V-317L770 -338C784 -340 785 -344 774 -354Z"/>
</svg>