<svg xmlns="http://www.w3.org/2000/svg" viewBox="0 -1000 1000 1000">
	<path fill="#000000" d="M404 -576L359 -604C345 -595 311 -586 278 -579V-705C278 -730 284 -755 296 -775C302 -785 301 -788 292 -797L227 -859L216 -851C232 -810 236 -767 236 -720V-573L51 -546L102 -510C121 -516 175 -528 226 -536C192 -407 121 -276 41 -176L58 -165C131 -244 190 -338 236 -440V-84C236 -44 230 -1 215 25L250 97C255 108 262 108 267 95C274 75 278 41 278 -41V-400L352 -283C357 -274 367 -274 370 -287C375 -307 378 -328 379 -350L278 -437V-543L398 -561C414 -563 417 -568 404 -576ZM960 26L959 9C852 10 793 -17 697 -109L661 -142C680 -192 692 -240 697 -299L853 -313C867 -314 868 -321 857 -330L828 -354L844 -520C847 -553 855 -567 870 -576C877 -580 876 -584 870 -590L826 -635L797 -596L707 -582C710 -621 713 -635 718 -640C729 -651 729 -656 720 -669L699 -699L904 -724C921 -726 922 -732 909 -741L865 -772C839 -754 657 -727 527 -718C537 -740 541 -747 550 -754C559 -761 560 -765 553 -775L507 -842L493 -837C504 -757 436 -561 331 -406L348 -392C379 -430 397 -454 425 -504V-91C425 -48 417 -9 402 18L433 88C437 97 443 99 447 89C455 68 461 28 461 -30V-573C482 -613 502 -659 516 -693L542 -675C560 -682 609 -690 667 -697C670 -675 671 -626 669 -577L571 -561L540 -639L523 -633C529 -612 538 -532 538 -511L540 -391C540 -366 535 -346 526 -326L563 -265C571 -253 580 -254 582 -289L657 -296C650 -243 641 -207 631 -172L585 -217C565 -236 554 -252 551 -266L494 -265L491 -254C515 -239 532 -224 619 -138C593 -66 540 8 464 81L476 93C549 36 615 -36 649 -110L812 50ZM804 -561L797 -452L758 -479C748 -472 729 -466 704 -462C705 -495 705 -524 706 -545ZM669 -540C669 -515 668 -488 667 -457L575 -447L572 -526ZM796 -438L790 -345L700 -336C702 -364 703 -395 704 -429ZM666 -426C665 -391 663 -359 660 -333L581 -325L575 -434L608 -410C617 -416 636 -422 666 -426Z"/>
</svg>