<svg xmlns="http://www.w3.org/2000/svg" viewBox="0 -1000 1000 1000">
	<path fill="#000000" d="M886 -746L842 -793L809 -753L469 -714C470 -738 468 -763 465 -786L447 -785C447 -709 420 -647 399 -633L419 -578C423 -568 428 -566 435 -576C450 -600 461 -636 466 -678L813 -717L784 -651L798 -642C850 -708 861 -721 885 -730C894 -733 894 -737 886 -746ZM911 -252L861 -287C827 -273 803 -268 652 -249C658 -264 662 -281 664 -296L615 -347L787 -367C800 -369 801 -374 791 -382L764 -403L782 -534C788 -571 795 -585 811 -595C820 -600 820 -605 810 -614L769 -649L742 -612L505 -579L484 -638L465 -632C469 -609 474 -551 474 -524V-433C474 -392 470 -364 457 -346L493 -285C499 -275 505 -275 507 -285C509 -293 510 -311 510 -336L590 -345L626 -247L358 -217L407 -182C490 -198 539 -205 904 -238C920 -239 921 -245 911 -252ZM397 -581L355 -612C341 -601 321 -595 289 -588C289 -732 294 -759 304 -779C307 -785 306 -788 300 -793L246 -845L235 -838C248 -810 252 -754 252 -581L58 -545L102 -510C121 -517 159 -528 240 -542C198 -424 117 -270 36 -163L50 -152C124 -234 200 -361 252 -465V-135C252 -41 249 -15 232 21L268 88C273 97 280 97 282 88C288 65 289 54 289 -82V-455L367 -361C375 -351 380 -352 381 -363C383 -381 383 -407 381 -429L289 -487V-550L395 -569C405 -571 405 -575 397 -581ZM847 44C850 29 850 -9 845 -43L681 -178L669 -166C727 -100 793 -17 832 45C838 54 844 55 847 44ZM598 -129L564 -185L549 -182C549 -139 476 -33 343 77L352 91C404 55 471 -1 542 -73C574 -105 585 -113 591 -114C601 -115 603 -120 598 -129ZM744 -575L724 -396L511 -369L510 -442L703 -469C714 -471 715 -475 705 -483L670 -511C656 -500 641 -495 509 -474L508 -546Z"/>
</svg>