<svg xmlns="http://www.w3.org/2000/svg" viewBox="0 -1000 1000 1000">
	<path fill="#000000" d="M889 -567L843 -600C808 -585 750 -573 636 -558V-650L825 -674C835 -675 836 -680 828 -686L784 -716C754 -702 722 -693 636 -682C636 -751 638 -775 650 -790C656 -797 654 -802 646 -808L583 -857L570 -845C587 -818 596 -757 596 -678L405 -656L450 -624C471 -629 529 -638 596 -645V-554L359 -526L411 -489C446 -501 496 -511 887 -552C901 -553 902 -558 889 -567ZM400 -564L365 -591C348 -582 330 -577 281 -568V-620C281 -722 287 -754 298 -777C301 -783 300 -787 294 -792L237 -850L225 -843C240 -806 243 -780 243 -622V-563L64 -538L111 -504C124 -509 181 -520 232 -528C191 -392 131 -266 49 -159L65 -146C134 -228 187 -313 243 -430V-156C243 -52 240 -22 221 18L258 92C263 102 269 102 272 92C279 69 281 57 281 -96V-442L372 -324C380 -313 386 -315 388 -326C391 -343 391 -358 389 -390L281 -471V-534L397 -550C408 -552 409 -557 400 -564ZM960 -3V-24C822 -26 807 -33 727 -155C834 -260 841 -264 851 -267C861 -270 862 -274 858 -282L826 -342L816 -338C813 -308 777 -244 715 -175L636 -308L786 -326C798 -327 800 -333 790 -340L759 -363L772 -418C778 -442 787 -460 795 -465C803 -470 803 -474 796 -480L755 -513L730 -480L484 -443L460 -486L447 -479C455 -451 458 -428 458 -398V-330C458 -305 454 -291 448 -280L474 -234C479 -225 484 -225 487 -234C489 -242 491 -267 492 -289L575 -299C512 -207 438 -125 319 -42L331 -25C390 -61 456 -113 510 -166V-22C510 25 505 36 485 63L519 88C528 95 531 94 536 85C554 54 581 21 683 -98L671 -111L549 3V-205C577 -233 599 -258 615 -280L784 16ZM736 -448L721 -354L492 -322V-413Z"/>
</svg>