<svg xmlns="http://www.w3.org/2000/svg" viewBox="0 -1000 1000 1000">
	<path fill="#000000" d="M918 -548L878 -582C853 -567 765 -550 636 -537V-629L825 -646C838 -647 839 -652 828 -660L779 -695C768 -685 713 -670 636 -660V-699C636 -741 640 -769 648 -780C651 -785 651 -788 646 -793L582 -850L571 -840C586 -816 596 -759 596 -728V-657L415 -642L463 -609C476 -613 488 -615 596 -626V-534L352 -512L401 -476C440 -482 501 -490 570 -498C554 -471 528 -440 501 -411C480 -387 465 -375 413 -361L451 -322C456 -316 461 -316 468 -319C488 -328 554 -344 763 -382L815 -324C824 -313 829 -314 831 -326C835 -349 834 -376 830 -398L682 -495L671 -484L742 -406L505 -370L633 -504L914 -536C925 -537 926 -541 918 -548ZM420 -570L379 -600C363 -589 318 -575 278 -567V-623C278 -725 284 -757 295 -780C298 -786 297 -790 291 -795L232 -853L220 -846C236 -808 238 -773 238 -625V-561L66 -534L115 -498C134 -506 190 -519 236 -527C205 -411 134 -276 52 -173L69 -159C141 -245 192 -318 238 -413V-145C238 -41 235 -12 215 28L255 102C259 110 266 111 269 102C277 81 278 67 278 -86V-445L366 -340C375 -329 380 -331 381 -341C385 -369 386 -386 384 -411L278 -477V-534L418 -558C428 -560 429 -564 420 -570ZM942 -15L889 -53C872 -43 823 -33 792 -29L802 -196C804 -232 811 -259 828 -271C834 -275 833 -280 829 -284L781 -327L756 -291L458 -253L433 -306L415 -300C421 -268 430 -199 432 -170L442 -3L319 8L368 46C442 31 573 16 938 -3C950 -4 952 -8 942 -15ZM764 -258L752 -26L679 -20L684 -163C686 -188 688 -197 695 -208C698 -213 698 -217 692 -223L668 -245ZM648 -165L647 -18L581 -13L577 -141C576 -161 577 -173 583 -186C588 -196 588 -200 583 -206L561 -232L641 -242C646 -217 649 -189 648 -165ZM547 -11L475 -5L464 -221L534 -229C540 -209 543 -181 543 -146Z"/>
</svg>