<svg xmlns="http://www.w3.org/2000/svg" viewBox="0 -1000 1000 1000">
	<path fill="#000000" d="M962 -134V-152C871 -163 823 -184 773 -233L668 -339L887 -367C903 -370 904 -374 891 -383L842 -418C810 -398 760 -386 591 -362C602 -386 616 -410 625 -418C632 -423 633 -426 625 -435L602 -464L787 -487C798 -488 800 -492 789 -502L762 -525L780 -677C784 -698 790 -708 804 -721C810 -726 810 -731 804 -737L757 -779L730 -741L576 -720C595 -767 608 -792 620 -807C625 -815 625 -820 618 -827L578 -871L564 -863C568 -831 565 -798 545 -717L483 -707L440 -778L426 -771C439 -735 443 -704 444 -657L447 -556C449 -485 445 -474 435 -462L468 -406C475 -395 481 -396 485 -407C487 -415 488 -426 488 -450L574 -462C570 -435 560 -395 542 -354L313 -324L365 -287C389 -297 437 -310 527 -322C484 -237 417 -154 302 -73L311 -57C439 -135 532 -236 576 -328L638 -335L820 -119ZM425 -562L390 -593C369 -583 324 -569 285 -562V-689C285 -748 289 -768 298 -791C302 -801 301 -808 291 -817L233 -864L222 -857C240 -810 246 -764 246 -692V-556L64 -529L109 -490C139 -501 170 -509 234 -519C211 -411 138 -264 53 -139L66 -127C131 -197 203 -316 246 -419V-113C246 -44 239 -10 223 17L260 81C270 98 275 97 280 80C284 64 285 45 285 -70V-464L370 -369C375 -364 381 -363 383 -370C389 -389 390 -401 390 -424L285 -485V-526L422 -548C431 -549 434 -554 425 -562ZM751 -152L716 -184C703 -175 681 -169 622 -159C622 -207 624 -218 631 -230C635 -237 634 -241 626 -248L580 -287L570 -280C583 -248 584 -233 584 -154L433 -131L478 -95C501 -106 534 -114 584 -120V-45C584 9 581 21 567 40L603 95C610 106 613 106 617 94C621 83 622 71 622 29V-125L746 -140C757 -141 758 -145 751 -152ZM735 -704L721 -519L488 -486L486 -561L694 -588C705 -589 705 -595 698 -601L665 -634C645 -622 617 -614 485 -593L482 -674Z"/>
</svg>