<svg xmlns="http://www.w3.org/2000/svg" viewBox="0 -1000 1000 1000">
	<path fill="#000000" d="M720 -633L646 -694L635 -683L696 -578C703 -567 708 -568 712 -579C718 -596 720 -614 720 -633ZM493 -624L418 -680L407 -669L468 -569C475 -558 481 -559 485 -570C491 -587 493 -604 493 -624ZM949 -209V-226C832 -233 791 -245 707 -347L623 -449C635 -453 636 -458 628 -467L591 -505L581 -499C579 -490 574 -479 568 -465C569 -479 570 -494 571 -528L577 -681C578 -717 587 -735 601 -743L634 -717C656 -724 666 -726 768 -743L764 -576L591 -512L650 -482C668 -497 692 -512 764 -549L763 -519C762 -499 753 -473 747 -468L773 -423C780 -411 785 -412 790 -426C794 -437 795 -447 798 -506L806 -692C807 -721 811 -733 831 -757C839 -766 838 -770 830 -776L785 -807L760 -774L607 -753L556 -794L532 -762L343 -735L384 -700C406 -707 437 -715 540 -732L537 -561L319 -478L381 -451C399 -466 449 -491 537 -536C536 -518 528 -493 520 -488L551 -439C509 -375 424 -285 293 -189L303 -172C413 -235 522 -334 601 -433L773 -197ZM395 -590L354 -618C339 -607 301 -596 260 -589V-617C260 -718 265 -749 278 -772C281 -777 280 -781 274 -786L213 -843L203 -837C220 -799 222 -765 222 -619V-584L58 -557L102 -523C121 -530 173 -543 220 -550C193 -438 127 -305 42 -192L56 -182C145 -290 189 -358 222 -434V-160C222 -58 219 -28 199 11L238 84C244 95 249 94 252 84C258 62 260 40 260 -102V-436L348 -338C354 -331 360 -332 361 -340C363 -356 363 -379 361 -404L260 -462V-555L394 -578C403 -580 403 -584 395 -590ZM640 -317L616 -373L604 -370C589 -322 528 -247 373 -134L384 -120C468 -172 559 -239 606 -286C614 -294 623 -301 632 -304C641 -307 643 -310 640 -317ZM690 -229L669 -284L658 -282C636 -226 555 -134 400 -40L410 -25C513 -83 583 -130 654 -195C668 -208 674 -211 683 -214C692 -217 693 -221 690 -229ZM750 -147L725 -210L713 -206C679 -119 553 -8 362 84L368 103C501 48 603 -11 698 -105C714 -120 730 -128 740 -130C751 -132 754 -137 750 -147Z"/>
</svg>