<svg xmlns="http://www.w3.org/2000/svg" viewBox="0 -1000 1000 1000">
	<path fill="#000000" d="M857 -678L764 -737L754 -724L834 -612C840 -603 845 -603 849 -612C856 -627 858 -653 857 -678ZM910 -61C898 -139 893 -192 889 -292H871L859 -140C825 -176 796 -217 773 -270C788 -294 803 -319 817 -347C836 -384 841 -389 851 -395C860 -400 861 -405 856 -412L818 -465L807 -462C807 -423 796 -375 758 -311C744 -360 732 -432 725 -509L870 -541C883 -544 884 -548 873 -555L830 -584C817 -575 783 -561 723 -545C719 -593 717 -641 716 -685C715 -752 715 -765 723 -777C726 -783 726 -786 720 -792L654 -847L643 -836C663 -798 674 -727 689 -536L642 -525L610 -568L596 -560C603 -545 608 -493 608 -463V-293C608 -240 604 -226 579 -199L607 -179C614 -174 618 -176 622 -182C638 -207 674 -258 710 -304L700 -315L643 -260V-490L691 -501C698 -415 714 -325 735 -271C707 -230 669 -182 620 -126L632 -115C667 -141 708 -180 749 -234C784 -162 858 -67 900 -53C909 -50 911 -52 910 -61ZM958 11L955 -7C810 7 762 3 497 -138V-268L585 -282C597 -283 599 -287 589 -296L564 -322C554 -315 540 -310 497 -300C497 -362 498 -371 502 -381C504 -387 503 -392 498 -396L477 -415L583 -434C592 -435 593 -440 584 -447L551 -473C538 -465 521 -459 494 -453V-560L576 -575C587 -577 587 -580 579 -586L544 -614C533 -605 522 -599 494 -594V-689C494 -744 497 -765 504 -776C506 -780 505 -785 501 -788L442 -841L430 -830C445 -797 457 -742 457 -684V-588L368 -573L405 -539C417 -545 429 -548 457 -553V-445L377 -429L412 -396C421 -401 435 -406 452 -410C458 -390 460 -371 460 -313V-159C439 -169 417 -182 394 -193C410 -261 415 -278 422 -289C427 -296 426 -301 418 -307L369 -347L359 -340C382 -301 365 -167 300 16L314 25C352 -52 369 -97 387 -164L777 60ZM371 -438L281 -489V-526L363 -540C372 -541 373 -546 365 -552L327 -582C313 -575 303 -570 281 -565V-658C281 -742 282 -759 292 -781C294 -787 294 -793 288 -798L227 -849L214 -840C235 -797 243 -747 243 -660V-558L60 -527L108 -492C132 -501 156 -507 242 -520C204 -418 136 -284 47 -153L61 -143C142 -242 199 -328 243 -419V-122C243 -35 237 -19 219 6L258 76C262 84 268 85 272 76C280 59 281 43 281 -73V-463L353 -372C359 -365 362 -365 366 -374C372 -391 375 -414 371 -438Z"/>
</svg>