<svg xmlns="http://www.w3.org/2000/svg" viewBox="0 -1000 1000 1000">
	<path fill="#000000" d="M746 -409L734 -263L499 -234L498 -289L716 -319C727 -321 727 -326 720 -331L676 -357C647 -342 607 -334 497 -321L495 -378ZM546 -505L458 -494L454 -589L544 -601ZM457 -438C459 -421 460 -408 460 -391L463 -261C463 -243 460 -227 454 -216L482 -161C486 -153 493 -152 496 -160C500 -171 500 -188 500 -204L604 -216V-148L322 -127L368 -85C412 -97 456 -103 604 -115V-86C604 -13 598 10 584 36L617 101C622 111 628 110 632 102C639 85 643 67 643 -27V-117L905 -137C915 -138 916 -143 908 -149L856 -185C817 -170 762 -160 643 -150V-220L791 -236C800 -237 800 -242 794 -247L768 -274L781 -371C786 -401 796 -417 807 -424C815 -429 814 -434 806 -441L763 -475L737 -441L491 -411L468 -449L458 -445C459 -450 459 -455 459 -461L837 -507C846 -508 847 -511 841 -517L812 -543L820 -606C822 -620 829 -638 844 -647C853 -652 852 -657 842 -666L804 -697L778 -664L693 -652L695 -723L900 -743C911 -744 913 -749 903 -756L853 -788C824 -777 736 -759 660 -752C538 -740 477 -735 341 -728L400 -686C427 -694 460 -701 544 -710V-634L453 -622L422 -676L410 -670C416 -645 419 -618 420 -602L424 -511C425 -497 421 -489 415 -478L441 -429C447 -419 452 -420 457 -438ZM654 -615L651 -519L583 -510V-605ZM785 -631L774 -534L688 -523L692 -619ZM657 -720L655 -648L583 -638V-713ZM412 -563L377 -592C359 -584 329 -576 282 -569V-662C282 -732 288 -759 298 -779C302 -787 300 -791 292 -798L227 -852L215 -843C234 -800 243 -746 243 -661V-564L57 -538L106 -501C122 -508 175 -520 228 -527C175 -391 123 -296 37 -176L52 -166C114 -228 187 -336 243 -453V-122C244 -45 238 -12 222 19L260 90C267 103 274 102 277 89C281 72 282 40 282 -69V-454L370 -358C377 -350 384 -351 386 -360C391 -381 391 -394 389 -422L282 -486V-534L409 -549C419 -550 420 -557 412 -563Z"/>
</svg>