<svg xmlns="http://www.w3.org/2000/svg" viewBox="0 -1000 1000 1000">
	<path fill="#000000" d="M933 -237L889 -268C846 -250 813 -244 711 -235C735 -281 747 -290 758 -297C766 -302 766 -305 760 -314L738 -350L871 -367C881 -368 882 -373 873 -380L834 -410C800 -393 749 -384 647 -372C652 -383 654 -396 655 -414L608 -452L797 -475C806 -476 807 -480 799 -486L768 -510L771 -537C775 -565 788 -584 800 -593C806 -597 807 -601 801 -606L758 -645L731 -608L647 -597L652 -670L896 -693C909 -694 910 -698 899 -706L852 -740C819 -725 778 -716 653 -703C659 -762 664 -778 673 -790C679 -798 678 -803 670 -810L615 -859L604 -851C616 -817 618 -778 614 -700L363 -676L420 -641C462 -651 512 -657 611 -667L606 -592L504 -578L479 -617L463 -611C470 -591 476 -563 477 -531L479 -476C480 -453 478 -438 470 -421L507 -377C514 -370 518 -372 519 -379C521 -399 521 -416 519 -441L579 -448L620 -369L398 -343L454 -309C469 -315 489 -320 504 -323L545 -222L321 -204L376 -166C414 -178 448 -183 612 -197V-125L387 -106L435 -70C462 -76 501 -82 612 -93C612 -14 608 9 592 37L630 104C635 113 640 112 644 102C650 87 652 71 652 -60V-96L872 -116C882 -117 884 -121 875 -129L836 -162C796 -144 759 -138 652 -128V-201L931 -224C943 -225 943 -231 933 -237ZM415 -580L378 -609C358 -600 329 -591 295 -585V-614C295 -706 301 -748 312 -771C315 -776 314 -781 308 -786L248 -844L236 -837C250 -792 255 -765 255 -616V-580L61 -551L112 -517C135 -524 189 -535 234 -543C196 -424 133 -296 40 -177L58 -165C140 -257 205 -357 255 -461V-156C255 -52 252 -22 233 18L274 92C280 102 285 102 288 91C293 71 295 35 295 -96V-435L380 -337C386 -330 392 -332 393 -339C397 -357 396 -386 392 -412L295 -466V-552L413 -568C421 -569 422 -574 415 -580ZM735 -574L729 -501L517 -475L512 -546ZM712 -348C710 -316 699 -279 674 -233L573 -224C579 -238 583 -255 585 -273L531 -326Z"/>
</svg>