<svg xmlns="http://www.w3.org/2000/svg" viewBox="0 -1000 1000 1000">
	<path fill="#000000" d="M657 -770L546 -850L536 -842L628 -694C633 -685 641 -686 644 -697C649 -715 654 -741 657 -770ZM919 -549L869 -583C853 -569 811 -557 691 -544C719 -591 735 -607 744 -612C751 -616 752 -620 747 -630L730 -664L848 -677C860 -678 861 -684 851 -691L811 -721C749 -696 709 -689 404 -660L451 -626C492 -637 558 -646 700 -662C694 -624 680 -586 655 -541L575 -532C580 -545 581 -563 581 -588L499 -633L488 -623L556 -531L376 -512L420 -476C472 -487 556 -498 915 -536C929 -537 929 -542 919 -549ZM414 -580L379 -609C357 -599 328 -591 289 -584V-662C289 -730 294 -759 304 -779C308 -786 306 -791 298 -798L237 -851L226 -842C244 -799 251 -754 251 -661V-578L92 -553L141 -518C166 -528 202 -537 250 -544C219 -428 161 -308 69 -178L83 -166C156 -252 209 -333 251 -427V-125C251 -44 248 -15 232 16L266 87C273 102 280 102 284 86C288 69 289 37 289 -72V-460L384 -339C393 -328 398 -330 400 -340C404 -361 404 -380 399 -410L289 -487V-549L411 -567C421 -568 423 -573 414 -580ZM820 -436C827 -442 826 -446 819 -453L783 -490L752 -460L503 -428L484 -473L466 -469C472 -440 475 -418 476 -385L481 -274C482 -253 478 -237 469 -223L502 -173C509 -163 515 -164 516 -174C517 -187 518 -198 517 -213L801 -248C812 -249 812 -254 804 -263L777 -292L795 -394C798 -409 806 -424 820 -436ZM677 -143L580 -209L570 -198L653 -79C659 -71 664 -71 668 -82C673 -101 675 -118 677 -143ZM904 -101L782 -175L772 -161L890 -29C896 -22 902 -23 903 -33C906 -54 906 -74 904 -101ZM457 -155H439C426 -93 409 -71 382 -44L394 23C396 36 401 37 408 27C443 -26 455 -79 457 -155ZM835 40C804 -6 780 -47 744 -128L729 -121L763 13C656 0 612 -22 519 -150L502 -143C592 19 643 50 819 53C838 53 840 48 835 40ZM759 -427L741 -278L516 -246L513 -307L716 -333C725 -334 727 -338 719 -345L686 -375C656 -362 612 -351 512 -339L510 -397Z"/>
</svg>