<svg xmlns="http://www.w3.org/2000/svg" viewBox="0 -1000 1000 1000">
	<path fill="#000000" d="M895 -646L850 -683L825 -647L711 -628L691 -682L675 -678C683 -642 685 -619 685 -588V-449L618 -432V-711L691 -720C709 -722 711 -728 697 -737L663 -759C638 -747 591 -735 357 -711L400 -679C409 -682 420 -685 435 -688V-389L375 -375C377 -388 377 -408 373 -429L281 -489V-538L383 -553C401 -555 402 -562 389 -572L356 -596C340 -587 310 -577 281 -570V-622C281 -711 286 -739 298 -758C304 -768 303 -771 294 -781L240 -839L226 -832C238 -798 243 -760 243 -654V-565L70 -541L119 -507C141 -514 198 -526 244 -534C207 -429 135 -297 49 -181L62 -170C122 -237 196 -338 243 -427V-163C243 -85 239 -53 217 -4L254 70C261 84 266 85 271 69C278 44 281 26 281 -73V-460L359 -371L346 -368L399 -335C411 -340 426 -345 582 -396C579 -375 576 -366 566 -351L596 -302C604 -290 608 -290 612 -306C616 -324 618 -363 618 -408L684 -430C682 -419 677 -409 672 -402L700 -357C707 -346 715 -345 716 -360C717 -376 718 -388 718 -420L871 -439C887 -441 888 -447 879 -455L858 -475L868 -583C870 -600 876 -615 893 -625C903 -632 904 -638 895 -646ZM917 -22L871 -54C849 -40 776 -30 656 -22V-134L793 -146C812 -148 813 -155 799 -165L763 -190C748 -180 717 -173 656 -167V-258L831 -277C849 -279 850 -285 837 -294L796 -322C765 -303 703 -291 438 -267L484 -231C503 -237 556 -246 618 -254V-163L446 -148L490 -112C512 -118 555 -126 618 -131V-19L362 -2L415 40C459 28 507 22 911 -4C931 -5 931 -12 917 -22ZM583 -603L548 -628C537 -620 513 -613 470 -604V-692L583 -706ZM583 -498L548 -521C536 -513 511 -505 470 -498V-579L583 -592ZM834 -615L823 -470L718 -449V-597ZM583 -425L470 -397V-472L583 -487Z"/>
</svg>