<svg xmlns="http://www.w3.org/2000/svg" viewBox="0 -1000 1000 1000">
	<path fill="#000000" d="M875 -597L840 -624C830 -616 819 -610 792 -609C766 -608 758 -621 758 -655V-709C758 -723 764 -735 781 -744C789 -748 789 -753 781 -760L739 -795L717 -761L618 -747L592 -806L578 -801C601 -667 571 -571 505 -515L515 -502C594 -563 618 -609 623 -713L723 -728V-640C723 -592 739 -577 787 -574C800 -573 856 -579 871 -582C883 -584 885 -589 875 -597ZM544 -726L506 -751C490 -742 417 -729 348 -720C349 -765 354 -785 360 -791C367 -798 366 -804 359 -811L310 -857L299 -849C309 -822 313 -787 313 -717L91 -693L133 -659C160 -665 246 -678 313 -686V-638L205 -624L185 -665L171 -658C176 -641 177 -625 178 -598L179 -544C180 -510 176 -491 168 -477L196 -432C201 -423 208 -424 210 -433C213 -445 213 -450 214 -462L313 -475V-434L95 -412L140 -379C173 -388 197 -392 313 -406V-315L219 -298C219 -332 220 -342 223 -347C227 -354 225 -358 217 -364L187 -384L178 -377C183 -366 186 -352 186 -324C186 -299 183 -294 164 -282L191 -254C197 -248 201 -248 206 -255C209 -259 216 -261 251 -268L418 -302L433 -266C438 -254 446 -255 449 -266C452 -279 456 -302 461 -343C462 -349 466 -365 472 -370C476 -374 476 -377 469 -386L442 -421L522 -431C540 -433 542 -438 529 -447L496 -470C473 -459 425 -447 348 -438V-479L496 -498C507 -499 510 -505 499 -514L474 -534L486 -599C489 -616 493 -629 501 -634C508 -639 509 -643 499 -652L463 -682L443 -654L348 -642V-689L539 -711C555 -713 556 -718 544 -726ZM949 -9L947 -28C811 -19 771 -31 697 -83L551 -187L837 -215C848 -216 848 -222 840 -229L795 -262C759 -243 710 -233 512 -216C514 -227 517 -237 523 -244C526 -247 528 -250 528 -254C581 -282 646 -326 686 -367C745 -337 789 -310 841 -272C849 -266 854 -268 853 -281C850 -308 845 -321 824 -352L712 -393C740 -426 761 -459 777 -486C787 -502 794 -510 806 -516C816 -521 816 -526 807 -534L773 -568L746 -540L528 -507L573 -477C592 -484 609 -488 739 -507C723 -477 705 -445 672 -407L564 -446L556 -426C592 -411 625 -395 652 -382C619 -345 565 -302 512 -271L473 -304L463 -297C471 -274 474 -258 474 -213L126 -183L175 -142C202 -150 309 -163 417 -174C328 -85 240 -28 57 50L65 68C237 13 383 -70 474 -170V-58C474 -22 465 11 451 27L487 99C493 111 498 112 502 99C508 81 511 28 511 -17V-183L766 24ZM450 -627L439 -522L348 -508V-546L420 -558C433 -560 433 -565 421 -573L391 -593C386 -586 370 -580 348 -575V-614ZM313 -504L214 -490L209 -595L313 -610V-571L225 -557L250 -530C260 -533 282 -538 313 -541ZM426 -420C433 -388 433 -353 424 -332L348 -320V-410Z"/>
</svg>