<svg xmlns="http://www.w3.org/2000/svg" viewBox="0 -1000 1000 1000">
	<path fill="#000000" d="M760 -368C759 -379 753 -408 745 -430L613 -470L609 -458L743 -365C755 -357 761 -357 760 -368ZM927 -281V-301C766 -284 726 -288 603 -326C604 -336 605 -354 605 -386V-446C605 -476 610 -492 617 -500C621 -504 620 -508 616 -512L592 -535L785 -554L746 -483L762 -473C805 -532 831 -550 866 -568C874 -572 874 -576 867 -582L829 -623L792 -585L507 -556V-594L707 -614C717 -615 717 -618 711 -626L692 -648L697 -667C699 -675 710 -688 716 -692C723 -696 723 -701 716 -707L682 -735L657 -707L507 -691V-724L820 -754C830 -755 830 -759 821 -767L790 -792C749 -778 613 -759 507 -750C509 -774 512 -790 517 -796C524 -805 524 -809 516 -816L466 -856L454 -848C463 -829 471 -794 474 -747L149 -720L198 -687C236 -696 312 -705 474 -721V-688L329 -672L314 -701L296 -698C299 -690 305 -658 305 -649V-614C305 -604 301 -588 298 -580L324 -549C330 -542 336 -541 339 -550C341 -557 343 -567 342 -578L474 -591V-553L204 -526C205 -541 203 -558 200 -572L182 -571C182 -502 164 -479 136 -451L146 -390C147 -382 155 -381 161 -389C183 -415 197 -456 202 -497L312 -509C292 -451 242 -391 149 -321L159 -305C204 -331 248 -364 279 -394C310 -388 328 -384 341 -379L378 -367C313 -302 220 -237 99 -185L109 -169C197 -203 274 -241 333 -284C334 -276 335 -267 336 -258L338 -204C339 -189 336 -178 331 -171L356 -139C362 -132 369 -134 370 -140C373 -153 374 -161 374 -171L467 -180V-133L162 -108L215 -74C245 -81 334 -93 411 -102C348 -42 254 21 97 80L104 97C249 55 383 -17 467 -100V-78C467 -16 461 14 447 33L479 100C482 106 486 106 489 100C500 75 505 64 505 -5V-106L690 52L883 34V15C733 18 707 10 613 -58L537 -113L801 -137C809 -138 809 -142 802 -147L755 -179C720 -166 644 -149 505 -137V-184L648 -198C658 -199 658 -203 652 -211L633 -236L640 -276L738 -242ZM659 -679L650 -638L507 -623V-664ZM474 -620L340 -605L336 -646L474 -661ZM574 -334L433 -376C445 -389 454 -401 462 -414C477 -437 494 -451 512 -458C518 -461 520 -465 512 -472L473 -506L447 -479L329 -456C337 -467 350 -478 354 -481C366 -489 366 -495 344 -511L561 -533C566 -517 569 -500 569 -461V-431C569 -383 566 -374 556 -368ZM442 -448C429 -428 414 -408 396 -387L377 -393C343 -403 333 -411 323 -420L300 -415C304 -419 307 -422 309 -426ZM550 -308L366 -281L353 -300C376 -318 396 -336 413 -355ZM600 -286L596 -225L372 -200L368 -253Z"/>
</svg>