<svg xmlns="http://www.w3.org/2000/svg" viewBox="0 -1000 1000 1000">
	<path fill="#000000" d="M876 -415C869 -432 859 -476 851 -535H835L829 -431C784 -417 747 -409 688 -414C665 -416 658 -424 656 -447C771 -501 785 -506 796 -506C807 -506 810 -511 803 -523L783 -559L772 -558C765 -537 743 -516 655 -473V-502C655 -512 657 -519 663 -526C667 -533 667 -538 662 -542L639 -562L806 -581C816 -582 818 -587 807 -594L780 -612L786 -631C790 -646 797 -657 804 -663C810 -668 810 -672 804 -677L770 -707L750 -683L655 -671C701 -720 715 -732 732 -735C744 -737 746 -741 735 -753L701 -789L666 -755L509 -732C544 -770 551 -776 557 -779C565 -783 567 -787 561 -801L534 -858L521 -853C527 -819 478 -731 353 -602L365 -590C391 -609 408 -624 439 -657L443 -577C444 -557 443 -547 438 -539L460 -512C466 -505 471 -506 473 -515C474 -522 475 -533 475 -541L615 -559C618 -545 620 -528 620 -509V-457C620 -402 640 -384 675 -381C736 -376 804 -383 861 -396C879 -399 880 -403 876 -415ZM372 -351C376 -369 376 -388 371 -422L271 -478V-553L369 -568C379 -570 380 -574 371 -580L330 -610C316 -602 299 -595 271 -589V-629C271 -731 277 -764 289 -786C291 -791 291 -794 285 -801L229 -859L216 -852C230 -821 233 -794 233 -631V-584L67 -563L110 -525C131 -532 186 -543 230 -549C199 -434 131 -293 48 -181L62 -171C121 -234 184 -329 233 -430V-148C233 -44 232 -15 212 25L253 99C256 105 261 105 263 98C270 77 271 64 271 -89V-449L359 -349C365 -342 370 -344 372 -351ZM914 18C901 -27 892 -78 887 -139H868L862 0C832 15 787 22 702 16C666 13 654 0 654 -35V-138L793 -154C813 -156 816 -161 799 -171L775 -186L782 -218C787 -237 796 -250 807 -257C815 -262 814 -266 805 -274L771 -302L748 -274L645 -261C690 -313 694 -317 705 -320C716 -323 717 -327 711 -334L681 -368L654 -344L508 -325C532 -347 537 -350 542 -351C554 -354 556 -358 550 -370L539 -393C570 -408 592 -416 611 -424L606 -438L447 -394V-444L593 -465C605 -466 606 -473 597 -480L567 -501C558 -494 528 -486 447 -474C447 -488 447 -493 452 -499C458 -505 459 -510 449 -518L408 -549L400 -543C408 -528 414 -500 414 -483V-422C414 -392 411 -384 387 -372L418 -347C423 -344 426 -344 431 -347C441 -355 469 -367 498 -378C474 -333 402 -254 316 -185L326 -170C362 -194 398 -220 431 -250C432 -241 433 -230 433 -222V-176C433 -141 432 -133 426 -122L446 -88C456 -70 463 -73 464 -90C465 -95 465 -105 465 -117L545 -127C512 -62 460 -10 296 85L306 100C486 11 555 -53 589 -131L616 -134V-20C616 32 632 48 687 52C764 58 856 50 901 39C916 36 918 33 914 18ZM788 -80L688 -134L680 -121L769 -18C776 -10 783 -12 785 -20C789 -38 790 -52 788 -80ZM657 -722L622 -666L468 -645L459 -678C465 -684 470 -690 477 -697ZM753 -650L742 -606L474 -571L472 -616ZM640 -309L609 -256L466 -237L448 -265C456 -273 463 -280 471 -288ZM749 -239L740 -181L601 -164C610 -187 615 -205 618 -224ZM577 -219C573 -202 567 -180 559 -160L465 -147V-206Z"/>
</svg>