<svg xmlns="http://www.w3.org/2000/svg" viewBox="0 -1000 1000 1000">
	<path fill="#000000" d="M546 -672L509 -701C494 -692 431 -675 370 -668C376 -691 378 -702 382 -722C388 -753 395 -777 400 -783C403 -788 403 -794 398 -798L339 -856L328 -849C347 -799 348 -737 330 -664L150 -647L198 -609C225 -617 256 -623 321 -632C301 -570 263 -525 175 -453L205 -450C278 -501 317 -536 345 -594C415 -551 438 -535 482 -493C489 -485 494 -485 497 -496C500 -510 498 -532 491 -562L352 -611C356 -620 358 -627 361 -636L544 -659C555 -660 555 -665 546 -672ZM903 -520C911 -525 911 -530 902 -538L855 -577L825 -535L654 -508C676 -573 694 -641 707 -702C717 -748 725 -772 733 -781C737 -787 737 -791 732 -797L672 -864L658 -856C686 -782 649 -521 522 -272L539 -262C574 -317 613 -397 644 -481L656 -470C692 -481 727 -488 827 -502L785 -386L801 -378C852 -474 874 -500 903 -520ZM400 -318C406 -324 405 -329 399 -334L361 -366L339 -335L234 -316L205 -363L190 -357C197 -335 202 -308 203 -263L205 -184C205 -165 203 -153 195 -141L226 -93C233 -82 241 -83 242 -96C244 -110 244 -122 242 -147L393 -171C404 -172 406 -176 396 -185L373 -207L382 -270C385 -294 391 -309 400 -318ZM587 -465L558 -495C535 -482 481 -470 82 -435L133 -393C180 -406 304 -425 443 -437C450 -416 452 -393 452 -318V-72C452 -16 450 4 444 26L342 -39L333 -27C387 24 411 49 446 91C454 100 457 100 463 93C484 70 493 22 493 -58V-310C493 -381 494 -395 497 -402C502 -413 500 -418 494 -423L475 -439L585 -449C595 -450 596 -457 587 -465ZM958 52V37C872 15 825 -15 782 -113L708 -286C723 -346 728 -359 738 -376C744 -387 744 -391 738 -397L694 -445L681 -439C689 -271 612 -52 487 70L497 83C598 -1 660 -103 697 -241L810 53ZM347 -306L338 -198L241 -182L235 -285Z"/>
</svg>