<svg xmlns="http://www.w3.org/2000/svg" viewBox="0 -1000 1000 1000">
	<path fill="#000000" d="M920 37C902 -40 893 -98 887 -175H865L858 8C839 20 788 22 731 20C682 18 659 -14 659 -100V-274L866 -318C876 -320 877 -325 868 -330L815 -364C797 -344 766 -330 659 -308V-463L823 -499C835 -502 836 -506 825 -512L772 -541C754 -526 728 -514 659 -497C659 -568 665 -604 675 -619C678 -623 677 -627 673 -631L630 -669C669 -685 688 -693 723 -710C791 -742 811 -750 820 -751C833 -752 836 -758 827 -766L776 -812L763 -807C756 -774 662 -709 487 -640L497 -619C533 -632 572 -645 609 -660C618 -638 619 -601 619 -488L515 -464L466 -496C444 -481 402 -470 341 -461V-546L448 -566C462 -569 462 -575 450 -581L409 -602C390 -588 351 -576 220 -554C238 -580 254 -605 268 -631L506 -666C519 -668 519 -673 508 -680L460 -708C434 -691 406 -682 287 -666C291 -676 296 -685 300 -694C328 -757 334 -766 341 -771C349 -776 349 -782 344 -790L298 -856L284 -847C290 -798 276 -736 238 -659L79 -638L129 -602C146 -610 180 -618 221 -624C182 -550 120 -463 46 -386L62 -372C80 -388 98 -406 114 -424L152 -396C193 -409 254 -421 515 -451L547 -430C561 -438 579 -444 619 -454V-300L472 -271L521 -239C545 -249 583 -259 619 -267V-105C619 -9 640 54 736 60C785 62 854 59 913 48C920 47 922 44 920 37ZM466 -361C474 -367 474 -373 466 -379L420 -417L397 -378L219 -350L198 -394L185 -389C189 -350 190 -312 190 -272V-122C190 -51 182 -18 168 1L202 67C208 78 213 78 216 65C226 27 228 -1 228 -111V-136L388 -159C404 -161 405 -166 392 -175L359 -198C341 -184 311 -178 228 -169V-229L376 -249C393 -251 393 -257 380 -266L347 -289C330 -276 302 -269 228 -261V-320L411 -347V-128C411 -49 409 -32 401 -20L330 -71L321 -59C359 -13 381 21 404 67C411 81 417 80 422 70C438 40 449 -13 449 -81V-310C449 -337 453 -351 466 -361ZM305 -456L124 -434C155 -466 183 -500 208 -536L243 -522C255 -527 286 -534 305 -539Z"/>
</svg>