<svg xmlns="http://www.w3.org/2000/svg" viewBox="0 -1000 1000 1000">
	<path fill="#000000" d="M537 -616C537 -630 536 -646 534 -671L359 -750C371 -767 387 -782 391 -784C398 -787 400 -792 395 -798L348 -857L334 -849C341 -792 265 -634 54 -408L64 -396C113 -440 164 -492 206 -541L233 -524C259 -533 312 -540 457 -552C468 -553 469 -560 461 -567L423 -596C399 -577 377 -571 221 -558C272 -619 317 -679 349 -733L524 -612C533 -606 537 -608 537 -616ZM932 23C918 -56 912 -117 912 -203H891L879 -16C861 -4 821 4 764 1C701 -1 697 -4 697 -48V-296L920 -343C931 -345 931 -349 922 -355L869 -389C850 -370 818 -355 697 -330V-467L877 -504C889 -506 889 -511 879 -517L827 -549C806 -533 754 -515 697 -501C697 -577 697 -597 706 -610C710 -616 708 -620 704 -623L668 -654C707 -671 716 -675 744 -689C798 -716 822 -725 836 -726C840 -726 844 -729 841 -736L814 -819L796 -815C797 -771 765 -735 550 -625L556 -611C592 -623 619 -633 648 -646C655 -625 657 -601 657 -493L538 -468L580 -435C595 -444 607 -449 657 -460V-323L528 -298L569 -264C594 -274 609 -278 657 -288V-66C657 22 670 31 775 36C841 40 898 38 925 34C932 33 933 30 932 23ZM453 -387C458 -394 456 -398 450 -402L401 -442L393 -432C404 -415 408 -385 408 -342V-227C408 -185 404 -172 394 -162L423 -101C427 -93 432 -92 436 -102C441 -113 443 -129 443 -203V-326C443 -353 447 -378 453 -387ZM534 -452C538 -458 537 -461 531 -468L483 -520L469 -511C483 -487 488 -458 488 -385V-96C488 -13 487 -1 479 20L398 -37L387 -21C434 23 467 61 485 84C489 89 496 89 500 83C523 46 524 35 524 -70V-390C524 -426 525 -438 534 -452ZM385 -446L342 -483L315 -441L219 -429L183 -494L168 -488C174 -461 178 -404 178 -366V-104C178 -22 177 -16 156 8L193 69C200 80 205 80 208 68C212 51 213 38 213 -94V-156L312 -171C319 -173 319 -176 314 -180L287 -204C278 -196 260 -189 213 -182V-275L312 -289C319 -291 319 -295 314 -299L277 -325C269 -314 247 -307 213 -300V-400L323 -413V-95C323 -39 322 -23 317 -9L252 -59L240 -44C274 -4 300 30 325 67C329 74 335 75 340 67C359 33 361 26 361 -67V-389C361 -410 370 -425 383 -432C390 -436 390 -442 385 -446Z"/>
</svg>