<svg xmlns="http://www.w3.org/2000/svg" viewBox="0 -1000 1000 1000">
	<path fill="#000000" d="M930 33C915 -34 909 -72 898 -184H879L873 3C826 13 778 15 732 5C697 -3 682 -31 682 -84V-313L893 -350C903 -352 904 -357 895 -363L842 -396C824 -382 788 -369 682 -347V-501L831 -531C842 -533 843 -538 834 -543L784 -572C763 -557 739 -547 682 -536V-702C703 -712 716 -718 737 -729C790 -756 810 -764 822 -768C832 -771 833 -777 826 -783L777 -824L764 -819C746 -781 671 -724 519 -664L528 -644C573 -657 609 -671 642 -685V-529L508 -504L554 -469C571 -477 597 -484 642 -494V-340L490 -311L492 -364C493 -397 497 -405 516 -416C524 -421 525 -428 515 -437L472 -473L452 -442L351 -427C358 -445 362 -471 362 -495V-613L450 -627L402 -537L417 -528C470 -599 483 -613 513 -633C526 -641 525 -646 516 -654L477 -686L451 -657L364 -643C364 -655 363 -665 362 -672C441 -749 455 -759 489 -773C500 -778 501 -783 491 -793L449 -836L419 -799L139 -765L193 -728C237 -743 290 -752 412 -768L343 -685L251 -725L244 -714L334 -639L77 -599L125 -566C170 -582 208 -589 279 -599C205 -518 149 -470 57 -417L68 -400C91 -413 114 -424 137 -437C140 -418 144 -381 145 -353L151 -108C152 -56 148 -19 136 6L163 52C172 68 178 66 182 51C187 32 189 4 187 -60L183 -195C204 -211 221 -227 239 -246C241 -232 243 -218 243 -211L246 -140C246 -124 242 -113 236 -102L257 -60C263 -48 270 -47 275 -61C279 -73 281 -87 280 -111L390 -123C401 -124 402 -128 395 -137L378 -158L382 -207C383 -218 386 -229 398 -242C405 -250 404 -255 397 -260L363 -285L343 -257L269 -243L255 -265C263 -274 271 -283 280 -294C292 -308 299 -315 303 -317C310 -321 311 -324 305 -336L282 -378L267 -373C278 -349 239 -279 183 -219L179 -369L455 -409L447 -149C445 -93 438 -40 428 -15L349 -71L337 -58C386 0 413 38 429 65C436 77 441 77 448 64C465 31 481 -52 483 -118L490 -300L527 -277C554 -287 596 -297 642 -307V-103C642 4 662 34 742 45C809 54 864 53 923 44C929 43 931 39 930 33ZM428 -270C429 -283 429 -296 428 -319L340 -371L332 -359L412 -268C421 -257 427 -259 428 -270ZM329 -520C329 -497 327 -484 324 -471L252 -508L245 -495C267 -478 299 -449 325 -423L174 -400L152 -446C216 -487 269 -535 329 -601ZM348 -228L344 -150L279 -140L276 -217Z"/>
</svg>