<svg xmlns="http://www.w3.org/2000/svg" viewBox="0 -1000 1000 1000">
	<path fill="#000000" d="M529 -755L496 -793L483 -788C482 -762 470 -731 420 -664L431 -651C486 -706 510 -727 526 -736C536 -742 536 -746 529 -755ZM289 -709L212 -780L200 -772L258 -655C264 -643 271 -642 276 -654C283 -670 287 -687 289 -709ZM923 -344V-361C818 -366 764 -397 712 -466L703 -477C722 -497 735 -512 757 -543C764 -553 776 -567 787 -574C791 -577 793 -581 789 -587L761 -629L850 -640C862 -641 863 -645 853 -654L823 -682C799 -669 773 -663 648 -643C658 -664 668 -686 680 -716C694 -746 702 -760 717 -775C722 -780 721 -784 717 -788L667 -842L652 -836C667 -797 644 -671 527 -498L538 -488C563 -516 581 -537 596 -558C609 -549 616 -541 663 -478C621 -433 584 -401 509 -352L517 -338C587 -375 639 -408 682 -452L774 -332ZM545 -615C555 -622 555 -626 545 -635L510 -670L483 -636L379 -625V-709C379 -735 383 -765 394 -780C400 -788 399 -793 391 -800L342 -845L330 -836C342 -803 343 -788 343 -718V-622L230 -608L207 -668L189 -662C193 -630 194 -608 194 -567V-452C194 -415 191 -395 179 -380L210 -327C218 -314 223 -314 227 -326C230 -338 231 -349 231 -387V-576L485 -602C482 -524 471 -428 460 -400L409 -426L402 -414C433 -388 446 -374 467 -346C476 -336 481 -337 486 -349C499 -380 512 -437 521 -560C524 -587 531 -603 545 -615ZM436 -543L401 -571L381 -545L310 -536L288 -572L275 -566C281 -542 283 -528 283 -511V-457C283 -436 281 -430 275 -419L299 -380C304 -372 314 -372 314 -419L420 -434C428 -435 429 -439 424 -444L407 -462L414 -496C418 -514 424 -524 435 -531C442 -535 442 -538 436 -543ZM919 23C908 -8 891 -91 887 -137H866L860 3C817 18 633 25 554 10C503 -1 490 -16 490 -106L782 -136C797 -137 798 -141 786 -151L750 -183C717 -169 627 -151 490 -137V-194L703 -219C717 -220 718 -225 707 -235L674 -263C644 -249 568 -236 490 -226V-285C524 -291 543 -295 569 -302C647 -319 655 -320 668 -320C685 -320 685 -324 677 -331L626 -370H618C610 -352 514 -312 216 -266L220 -248C274 -252 363 -264 452 -280V-223L194 -196L243 -164C267 -171 290 -175 452 -191V-134L96 -97L146 -63C179 -69 324 -89 452 -103C452 13 473 37 552 49C666 66 786 60 911 42C921 41 924 37 919 23ZM743 -627C738 -593 721 -549 684 -502C646 -548 637 -562 635 -574L610 -577C617 -588 624 -599 632 -612ZM382 -518L374 -457L314 -446V-507Z"/>
</svg>