<svg xmlns="http://www.w3.org/2000/svg" viewBox="0 -1000 1000 1000">
	<path fill="#000000" d="M332 -687L206 -754L197 -742L316 -614C323 -607 328 -608 330 -615C335 -633 336 -657 332 -687ZM247 -407C248 -426 248 -442 246 -469L110 -548L101 -534L232 -402C241 -393 246 -394 247 -407ZM922 -61L866 -97C845 -81 803 -71 641 -55V-394L845 -420C863 -422 864 -428 850 -437L802 -466C775 -452 736 -443 641 -429V-635C641 -689 650 -745 659 -762C663 -770 662 -775 654 -782L580 -846L569 -839C588 -801 600 -746 600 -646V-51L492 -39V-382C492 -415 498 -458 506 -477C510 -485 509 -490 503 -495L440 -552L430 -543C445 -516 452 -472 452 -424V-36L292 -19L334 22C401 9 490 1 920 -44C937 -46 936 -52 922 -61ZM359 -487L341 -494L195 -66L84 -146L74 -132C133 -71 174 -27 207 14C215 23 220 23 223 12Z"/>
</svg>