<svg xmlns="http://www.w3.org/2000/svg" viewBox="0 -1000 1000 1000">
	<path fill="#000000" d="M324 -660L201 -743L191 -729L297 -588C305 -577 312 -578 314 -588C318 -606 322 -630 324 -660ZM242 -365C245 -383 245 -420 240 -445L115 -516L106 -500L227 -363C234 -355 240 -356 242 -365ZM910 50C905 -1 901 -94 905 -178L888 -179L858 -22C773 -67 684 -224 657 -421L841 -453C853 -455 853 -460 843 -467L799 -496C785 -487 718 -467 653 -454C641 -565 641 -596 652 -613C659 -624 658 -630 646 -641L613 -669C623 -673 633 -676 641 -679C737 -715 765 -723 788 -726C805 -728 807 -735 798 -744L744 -798L730 -792C720 -757 697 -739 457 -645L418 -738L403 -733C411 -682 419 -595 419 -547V-116C419 -67 416 -53 374 -17L432 9C442 14 444 13 448 4C463 -35 512 -108 606 -211L592 -226L457 -93V-407L489 -384C514 -393 561 -406 615 -415C654 -172 764 5 894 63C908 69 912 67 910 50ZM366 -498L347 -503L205 -45L110 -128L96 -114C140 -60 183 -3 210 37C219 49 227 48 232 32ZM663 -28L570 -117L558 -107L625 43C629 52 636 54 641 45C651 27 662 -8 663 -28ZM611 -447L457 -420V-615C497 -628 542 -642 583 -658C589 -633 595 -599 598 -564C602 -522 607 -478 611 -447Z"/>
</svg>