<svg xmlns="http://www.w3.org/2000/svg" viewBox="0 -1000 1000 1000">
	<path fill="#000000" d="M336 -611C339 -632 339 -656 336 -694L204 -767L194 -751L319 -607C328 -596 334 -597 336 -611ZM259 -399C263 -426 263 -454 258 -481L128 -549L121 -535L245 -397C251 -390 258 -390 259 -399ZM910 -511L858 -551C815 -528 777 -520 498 -492C500 -543 502 -595 504 -637C572 -659 649 -686 732 -719C773 -736 802 -743 820 -746C833 -748 836 -756 824 -765L770 -807L757 -800C749 -776 705 -746 500 -667L464 -751L447 -744C459 -666 462 -610 456 -451C447 -221 410 -91 273 76L286 87C424 -39 486 -174 497 -458L657 -474V-339L572 -370L565 -355C598 -339 628 -323 657 -309V-139C657 -52 652 -29 634 -4L678 70C685 82 690 80 693 68C698 48 700 23 700 -96V-286C792 -236 841 -205 877 -176C883 -171 889 -173 888 -183C886 -206 880 -228 869 -263L700 -324V-477L907 -498C919 -499 920 -504 910 -511ZM373 -478L353 -487L211 -83L108 -169L97 -155C137 -108 186 -45 217 3C226 17 233 15 237 1Z"/>
</svg>