<svg xmlns="http://www.w3.org/2000/svg" viewBox="0 -1000 1000 1000">
	<path fill="#000000" d="M962 -59V-80C818 -92 767 -107 634 -248C707 -307 759 -340 772 -342C786 -344 789 -347 786 -358L767 -429L751 -430C739 -390 704 -345 610 -273L541 -347C542 -374 545 -385 552 -394C558 -403 558 -409 552 -415L524 -442L714 -465C725 -466 726 -471 720 -479L700 -504L713 -590C716 -612 725 -624 741 -633C750 -638 750 -643 741 -651L696 -688L670 -655L404 -616C412 -624 421 -633 430 -642C442 -656 466 -674 479 -679C488 -683 490 -686 487 -695L469 -737L831 -769C846 -770 848 -776 836 -784L784 -819C746 -796 612 -781 167 -747L225 -707C272 -717 318 -725 438 -735C396 -647 285 -532 118 -445L124 -428C217 -469 291 -515 349 -564C357 -499 354 -455 342 -435L377 -382C384 -371 389 -372 392 -384C394 -392 395 -401 394 -428L492 -439C496 -418 499 -388 499 -355V-112C499 -72 495 -36 490 -12L382 -76L371 -63C434 -5 468 37 498 82C505 93 509 93 517 81C533 55 542 10 542 -61V-301L758 -44ZM456 -318L410 -360L381 -320L148 -285L196 -251C239 -262 278 -271 376 -287C310 -165 203 -81 82 -11L93 6C201 -50 307 -114 401 -239C429 -277 444 -292 455 -298C466 -304 466 -309 456 -318ZM672 -621L656 -494L392 -460L386 -581Z"/>
</svg>