<svg xmlns="http://www.w3.org/2000/svg" viewBox="0 -1000 1000 1000">
	<path fill="#000000" d="M329 -691L196 -781L186 -766L298 -625C302 -620 308 -620 311 -625C320 -642 327 -665 329 -691ZM229 -488L103 -571L93 -557L203 -415C211 -405 215 -405 219 -416C226 -434 229 -456 229 -488ZM899 -531L850 -564C833 -550 793 -540 690 -527C714 -561 738 -596 759 -631C778 -664 790 -678 803 -686C813 -692 814 -697 810 -705L775 -779L761 -774C761 -744 753 -717 723 -660L692 -685C675 -676 633 -665 589 -655V-694C589 -742 593 -763 605 -783C610 -792 610 -797 604 -802L541 -855L527 -847C541 -818 548 -765 548 -700V-649L383 -626L429 -590C456 -599 507 -611 548 -617V-508L334 -480L370 -445C409 -458 498 -471 612 -484C585 -448 558 -417 533 -386L406 -369L457 -334C465 -338 478 -341 496 -345C429 -277 352 -218 252 -150L262 -133C396 -215 441 -246 549 -354L707 -376L614 -264C602 -285 587 -305 572 -320L557 -310C572 -287 594 -244 606 -219L363 -191L416 -155C448 -166 503 -172 618 -185C641 -86 635 -24 602 33L501 -38L490 -24C534 20 566 60 593 106C598 115 603 116 610 108C664 42 692 -76 652 -189L880 -218C893 -220 893 -225 882 -233L838 -264C809 -247 754 -236 639 -222C636 -229 633 -235 628 -240L732 -344C755 -367 771 -378 789 -385C799 -389 800 -394 794 -402L759 -446L715 -412L587 -394C611 -419 638 -453 664 -490L896 -517C907 -518 908 -525 899 -531ZM337 -518L317 -524L178 -68L64 -163L53 -151C96 -100 157 -18 185 23C192 33 199 33 202 21ZM713 -640C689 -595 660 -552 638 -520L589 -513V-623Z"/>
</svg>