<svg xmlns="http://www.w3.org/2000/svg" viewBox="0 -1000 1000 1000">
	<path fill="#000000" d="M642 -754L551 -857L539 -849L596 -690C599 -682 603 -681 609 -688C625 -706 633 -723 642 -754ZM295 -691L176 -766L165 -751L275 -623C282 -615 286 -616 289 -624C295 -641 297 -663 295 -691ZM875 -670C882 -675 881 -679 875 -683L821 -725L794 -685L406 -632C406 -651 404 -675 402 -688L385 -689C380 -593 360 -541 331 -516L358 -466C362 -458 365 -458 370 -465C388 -489 402 -543 405 -594L798 -647L757 -549L771 -543C838 -637 854 -654 875 -670ZM206 -469L82 -534L74 -520L191 -400C197 -393 202 -394 204 -402C208 -421 209 -442 206 -469ZM928 31V15C809 17 744 -6 605 -102V-261L812 -288C821 -289 822 -293 813 -300L773 -332C752 -322 708 -311 605 -296V-447L788 -473C797 -474 798 -478 790 -484L742 -519C713 -502 676 -490 395 -451L442 -417C462 -425 503 -433 564 -442V-130L436 -221C456 -272 473 -297 486 -306C491 -310 492 -313 487 -320L441 -384L427 -379C445 -331 356 -91 236 48L250 58C296 16 378 -90 421 -188L772 63ZM317 -468L301 -474L159 -57L92 -100L82 -87C104 -62 150 -6 174 27C180 35 186 34 188 26Z"/>
</svg>