<svg xmlns="http://www.w3.org/2000/svg" viewBox="0 -1000 1000 1000">
	<path fill="#000000" d="M751 -803L705 -844L677 -806L497 -783L467 -847L451 -841C457 -812 463 -770 464 -744L466 -677C466 -661 463 -642 456 -630L490 -574C496 -565 501 -567 502 -577C503 -583 504 -597 505 -617L729 -638C739 -639 740 -642 733 -649L707 -675L721 -747C725 -767 733 -781 750 -790C756 -793 756 -798 751 -803ZM338 -649C343 -654 344 -660 338 -665L293 -701L269 -664L160 -648L131 -721L115 -716C123 -688 129 -648 131 -602L138 -432C139 -407 133 -377 124 -364L161 -301C167 -291 172 -293 175 -301C178 -311 178 -333 178 -383L319 -401C328 -402 328 -408 321 -414L298 -438L312 -587C315 -620 323 -636 338 -649ZM829 -552C836 -556 836 -561 828 -568L787 -604L762 -566L647 -547L628 -598L611 -594C616 -573 617 -553 618 -513L620 -433C620 -415 617 -398 611 -389L642 -335C645 -329 651 -330 653 -338C656 -349 657 -358 657 -375L811 -389C819 -390 819 -394 813 -400L789 -424L805 -506C810 -533 816 -544 829 -552ZM579 -529C585 -534 584 -540 579 -545L545 -579L514 -545L406 -532L381 -590L367 -584C374 -554 377 -525 378 -491L381 -414C382 -396 377 -372 369 -362L402 -303C407 -294 412 -295 414 -304C418 -325 418 -334 417 -361L558 -374C565 -375 566 -379 561 -385L545 -404L558 -492C560 -505 566 -518 579 -529ZM952 -17L951 -32C866 -32 817 -48 723 -147L638 -239L891 -259C901 -260 902 -264 893 -271L843 -310C793 -290 748 -280 609 -269C609 -289 612 -306 619 -312C624 -317 624 -321 619 -326L573 -374L561 -366C568 -349 570 -318 570 -266L274 -243L324 -204C347 -211 409 -221 528 -231C475 -154 349 -38 210 35L218 50C354 -9 486 -112 570 -221V-63C570 -16 564 0 550 20L587 90C590 95 596 96 600 88C605 77 609 39 609 -1V-232L803 3ZM685 -773L670 -670L504 -648L501 -750ZM276 -627L262 -428L176 -417L166 -614ZM770 -533L752 -419L656 -408L654 -517ZM522 -514L508 -404L415 -391L412 -500Z"/>
</svg>