<svg xmlns="http://www.w3.org/2000/svg" viewBox="0 -1000 1000 1000">
	<path fill="#000000" d="M303 -735L179 -813L173 -801L281 -654C287 -646 292 -647 295 -655C299 -670 303 -705 303 -735ZM204 -479L92 -556L81 -545L180 -402C187 -392 193 -392 196 -406C200 -424 203 -451 204 -479ZM834 -192C838 -197 838 -202 834 -205L785 -247L773 -240C782 -219 785 -181 780 -155L766 -82C764 -73 760 -62 756 -50L659 -38V-285L736 -295L750 -257C753 -250 758 -250 763 -258C770 -269 775 -282 782 -312L805 -408C811 -434 815 -445 820 -453C824 -459 824 -463 820 -466L771 -507L760 -499C769 -482 775 -453 766 -416L745 -333L659 -320V-436C659 -468 665 -501 675 -517C679 -523 677 -528 672 -532L626 -573L803 -591C812 -592 813 -596 806 -603L774 -635L789 -704C793 -728 800 -739 817 -750C824 -754 824 -758 818 -765L773 -812L737 -767L443 -734L415 -829L396 -825C403 -788 402 -710 385 -468C366 -217 330 -88 211 77L229 89C345 -47 401 -194 422 -454C425 -486 429 -519 430 -550L602 -570C613 -540 619 -510 619 -464V-315L529 -301L526 -398C525 -417 530 -434 537 -443C540 -448 540 -452 534 -457L484 -492L472 -480C486 -453 488 -438 489 -408L491 -327C492 -305 486 -295 469 -281L508 -242C513 -236 517 -236 521 -244C530 -263 537 -270 560 -273L619 -281V-34L510 -21L509 -118C509 -142 510 -157 518 -175C521 -182 519 -186 513 -190L462 -225L452 -217C465 -190 471 -158 471 -127L472 -46C472 -25 462 -16 442 1L487 40C492 45 496 44 500 37C510 22 518 16 542 13L748 -14L766 40C769 47 773 48 779 39C786 29 790 19 799 -30L818 -147C821 -166 827 -182 834 -192ZM318 -509L298 -517L162 -88L77 -159L61 -144C106 -89 145 -36 173 7C179 15 185 15 188 3ZM749 -732L735 -621L432 -585C435 -622 437 -659 439 -697Z"/>
</svg>