<svg xmlns="http://www.w3.org/2000/svg" viewBox="0 -1000 1000 1000">
	<path fill="#000000" d="M326 -695L191 -782L179 -767L309 -623C313 -619 317 -618 320 -624C328 -640 329 -660 326 -695ZM251 -407C255 -426 254 -450 247 -482L100 -552L93 -538L240 -402C246 -397 249 -399 251 -407ZM938 -200L884 -238C859 -223 823 -215 623 -195V-292L804 -313C814 -314 815 -318 806 -326L773 -354L794 -499C798 -531 807 -550 823 -565C828 -570 829 -575 822 -581L776 -619L746 -577L599 -557V-662L870 -693C880 -694 881 -700 872 -706L816 -744C801 -730 754 -717 599 -698C600 -748 604 -764 616 -780C619 -785 618 -791 612 -796L551 -855L538 -844C552 -806 558 -757 558 -676V-553L445 -539L413 -620L395 -614C403 -569 407 -531 410 -477L417 -345C420 -298 413 -273 404 -262L442 -206C447 -198 454 -199 456 -210C460 -236 460 -245 458 -275L582 -288V-192L281 -165L348 -126C398 -139 464 -150 582 -160V-85C582 -12 576 18 562 35L601 108C604 113 608 114 614 106C621 93 623 65 623 -58V-163L936 -186C947 -187 949 -192 938 -200ZM357 -462L337 -471L185 -77L112 -135L98 -121C136 -82 151 -63 198 1C203 8 208 6 211 -2ZM753 -542L734 -338L457 -306L452 -409L480 -393C511 -404 592 -417 718 -426C726 -427 726 -432 719 -438L681 -469C666 -456 625 -446 451 -429L447 -506Z"/>
</svg>