<svg xmlns="http://www.w3.org/2000/svg" viewBox="0 -1000 1000 1000">
	<path fill="#000000" d="M294 -670L157 -755L147 -741L267 -602C276 -591 281 -590 284 -602C291 -625 293 -640 294 -670ZM802 -643L681 -712L671 -701L783 -576C789 -569 794 -569 797 -577C801 -587 804 -618 802 -643ZM211 -464L77 -549L68 -536L189 -394C197 -384 204 -385 205 -397C208 -420 209 -433 211 -464ZM887 78C878 25 869 -51 865 -142H848L839 12C777 -31 734 -86 695 -198C712 -225 727 -253 743 -282C776 -350 781 -359 792 -367C797 -371 798 -375 793 -383L757 -447L743 -443C741 -377 719 -318 681 -244C664 -305 655 -387 649 -477L854 -502C866 -503 866 -509 857 -515L815 -544C798 -536 752 -526 648 -510C640 -697 644 -729 657 -760C660 -768 658 -774 652 -779L592 -844L580 -835C602 -778 604 -755 611 -505L469 -482V-583L579 -598C591 -600 591 -605 581 -612L549 -635C538 -629 519 -624 469 -615V-702C469 -735 473 -762 482 -778C486 -785 485 -789 479 -793L421 -837L409 -825C424 -801 431 -768 431 -708V-609L315 -594L357 -561C367 -564 396 -571 431 -577V-477L304 -459L317 -515L299 -522L149 -63L61 -141L48 -128C107 -54 130 -22 158 20C164 29 171 29 174 17L300 -447L336 -425C369 -435 501 -459 612 -473C617 -359 638 -257 655 -198C612 -132 543 -53 456 22L468 37C554 -30 619 -90 668 -159C723 -24 775 32 874 87C883 92 888 88 887 78ZM572 -350C578 -357 578 -360 572 -365L529 -400L504 -366L355 -340L328 -409L313 -402C320 -376 329 -320 330 -291L335 -200C338 -145 335 -133 322 -107L357 -48C363 -38 370 -40 371 -52C372 -66 373 -92 371 -136L561 -164C572 -165 573 -171 562 -178L532 -196L544 -289C548 -318 556 -335 572 -350ZM507 -331L496 -192L370 -171L363 -309Z"/>
</svg>