<svg xmlns="http://www.w3.org/2000/svg" viewBox="0 -1000 1000 1000">
	<path fill="#000000" d="M292 -667L146 -765L137 -751L271 -596C278 -588 282 -588 285 -597C291 -618 293 -638 292 -667ZM223 -450L73 -571L62 -557L195 -384C202 -376 206 -376 210 -384C219 -402 222 -420 223 -450ZM945 -6V-24C845 -26 790 -47 695 -147L626 -221L878 -237C892 -238 893 -241 880 -250L829 -285C809 -272 757 -261 611 -249C611 -282 615 -300 620 -310C623 -316 623 -320 619 -323L587 -356L821 -373C835 -374 836 -377 823 -386L776 -419C751 -404 716 -398 446 -379V-599L541 -610V-551C541 -521 537 -509 529 -494L558 -441C562 -434 566 -434 570 -441C573 -447 574 -453 575 -469L746 -484C757 -485 758 -489 748 -498L720 -523L730 -628L901 -645C913 -646 914 -649 902 -657L848 -693C828 -679 798 -669 734 -663L739 -714C741 -737 750 -763 762 -779C767 -786 767 -789 761 -795L705 -861L692 -853C701 -810 705 -767 702 -728L696 -658L576 -645V-709C576 -751 581 -771 590 -783C594 -789 593 -793 589 -797L533 -858L520 -851C532 -826 541 -786 541 -713V-642L446 -632C446 -695 449 -707 458 -725C460 -730 460 -734 455 -738L395 -801L383 -793C402 -748 409 -715 409 -629L294 -618L342 -580C357 -586 379 -592 409 -596V-418C409 -383 405 -379 380 -360L415 -329C419 -325 423 -325 430 -330C446 -341 458 -345 493 -348L560 -354C571 -327 573 -305 573 -247L303 -229L354 -190C372 -197 453 -210 537 -216C480 -140 380 -49 266 31L277 44C407 -31 496 -103 573 -199V-67C573 -22 567 0 555 16L592 95C596 103 601 103 605 95C610 85 611 76 611 -41V-203L783 9ZM326 -518L307 -524L174 -77L80 -160L67 -148C101 -106 148 -41 183 9C193 22 195 22 198 8ZM694 -625L685 -516L576 -504V-613Z"/>
</svg>