<svg xmlns="http://www.w3.org/2000/svg" viewBox="0 -1000 1000 1000">
	<path fill="#000000" d="M622 -773L516 -853L505 -842L602 -706C610 -695 616 -695 619 -706C624 -724 625 -745 622 -773ZM287 -634C286 -663 284 -675 275 -707L144 -759L137 -745L274 -629C281 -623 287 -624 287 -634ZM865 -693L826 -727C801 -714 577 -679 336 -659L385 -622C422 -633 560 -650 862 -682C872 -683 873 -686 865 -693ZM212 -419C213 -445 212 -457 207 -487L77 -537L69 -523L198 -417C205 -411 212 -412 212 -419ZM928 9V-10C844 -12 802 -31 692 -176C794 -283 803 -290 819 -297C828 -301 829 -304 824 -315L793 -376L779 -374C772 -334 742 -282 676 -197L593 -310C597 -313 600 -314 602 -315C607 -317 607 -321 605 -325L596 -345L752 -367C764 -369 764 -373 754 -382L729 -403L738 -470L881 -489C893 -491 893 -496 883 -503L844 -530C825 -522 796 -513 741 -502L745 -532C750 -567 754 -578 771 -588C778 -592 777 -596 772 -601L725 -642L699 -602L459 -568L432 -615L419 -609C425 -585 431 -546 431 -522L432 -464L319 -449L364 -415C371 -419 384 -422 433 -429C435 -365 431 -345 421 -333L451 -280C456 -272 461 -273 464 -280C467 -289 470 -301 469 -328L556 -340C533 -307 502 -268 467 -228L451 -257L437 -252C440 -243 442 -222 443 -201C382 -136 309 -70 238 -20L246 -5C312 -46 375 -89 444 -155V-50C444 21 439 29 401 65L453 83C461 86 465 85 467 80C485 47 520 10 643 -103L631 -116L482 -2L480 -191C514 -227 555 -268 573 -290L788 25ZM345 -572L326 -579L173 -68L71 -137L57 -120C120 -60 155 -19 187 21C191 27 198 27 200 19ZM708 -569L701 -497L466 -468V-536ZM699 -465L692 -391L468 -360L467 -433Z"/>
</svg>