<svg xmlns="http://www.w3.org/2000/svg" viewBox="0 -1000 1000 1000">
	<path fill="#000000" d="M635 -774L563 -860L551 -852L592 -721C596 -710 601 -709 610 -719C621 -732 631 -754 635 -774ZM883 -726L849 -755L821 -724L402 -685C401 -706 397 -732 394 -748L375 -747C380 -677 363 -624 330 -585L343 -542C347 -529 352 -526 362 -539C385 -569 398 -606 402 -654L812 -689L784 -618L798 -611C837 -669 860 -693 881 -705C893 -712 893 -718 883 -726ZM644 -595L582 -658L569 -649L613 -537C618 -525 627 -524 632 -537C640 -557 644 -573 644 -595ZM862 -551L741 -628L733 -616L843 -494C852 -483 859 -484 861 -499C863 -516 863 -531 862 -551ZM767 -477C747 -513 724 -555 703 -614L689 -607L711 -498C619 -497 549 -517 488 -626L472 -620C521 -482 624 -444 760 -459C771 -460 774 -465 767 -477ZM441 -622H425C418 -562 405 -529 379 -509L391 -466C395 -451 400 -448 410 -462C434 -493 445 -543 441 -622ZM313 -671L277 -700L254 -666L153 -651L128 -721L110 -716C116 -696 119 -656 120 -623L127 -463C129 -422 123 -394 111 -377L141 -320C150 -304 155 -304 161 -321C165 -332 166 -359 166 -396L294 -411C311 -413 312 -417 299 -430L282 -447L295 -612C296 -628 300 -640 312 -650C322 -659 322 -663 313 -671ZM942 -284L901 -314C882 -304 836 -292 786 -287L802 -368C807 -390 813 -405 826 -414C836 -421 836 -428 828 -434L793 -461L766 -428L423 -391L398 -443L384 -436C388 -417 391 -397 393 -374L403 -252L220 -237L261 -202C305 -211 406 -223 938 -266C954 -267 955 -274 942 -284ZM858 -190L823 -216C797 -201 690 -181 332 -157L363 -122C396 -129 476 -137 590 -147V-29C590 -6 588 14 585 26L487 -41L478 -28C531 26 558 56 592 102C600 113 606 112 611 101C625 70 629 44 629 12V-151L853 -171C871 -173 874 -178 858 -190ZM256 -630L246 -440L164 -429L158 -618ZM762 -395L748 -283L657 -275L666 -385ZM628 -381L619 -272L546 -265L541 -372ZM509 -262L438 -256L430 -360L504 -368Z"/>
</svg>