<svg xmlns="http://www.w3.org/2000/svg" viewBox="0 -1000 1000 1000">
	<path fill="#000000" d="M297 -690L170 -760L159 -748L281 -619C288 -611 293 -611 296 -622C299 -639 299 -664 297 -690ZM925 -516V-536C827 -547 789 -567 727 -662L661 -765C640 -797 635 -819 637 -836L575 -846L572 -838C589 -822 602 -801 635 -747L781 -509ZM538 -759L503 -826L488 -821C489 -741 425 -628 290 -491L301 -479C375 -537 444 -615 487 -681C516 -728 523 -736 536 -744C541 -748 542 -752 538 -759ZM735 -503L624 -588L612 -576L661 -509L471 -473L555 -583C567 -599 581 -613 595 -619C601 -622 601 -626 597 -634L568 -689L553 -686C551 -662 544 -646 521 -605C494 -555 483 -538 454 -503C433 -477 419 -470 372 -461L415 -422C422 -417 427 -417 431 -420C451 -432 508 -447 679 -487L715 -439C723 -428 728 -429 731 -440C737 -462 738 -480 735 -503ZM207 -470L89 -540L79 -526L191 -395C198 -387 205 -388 206 -398C209 -418 209 -444 207 -470ZM430 -238L341 -286L333 -273L412 -182C422 -170 428 -173 429 -183C431 -203 431 -216 430 -238ZM306 -462L287 -468L174 -62L73 -118L62 -104C107 -63 143 -29 184 14C194 24 199 23 201 12ZM800 -372C808 -379 808 -384 799 -392L759 -429L732 -390L555 -363L510 -397L488 -363L309 -336L353 -304C384 -313 411 -319 496 -332V-191L267 -76L325 -52C347 -73 373 -91 496 -166V-83C496 -45 493 -16 487 3L408 -53L396 -36C451 22 470 43 492 73C496 78 502 78 506 73C519 52 534 -5 534 -83L586 -64C604 -88 632 -112 742 -178V-76C742 -50 736 -7 728 15L646 -44L637 -31C688 28 711 57 735 88C739 94 744 95 751 87C767 67 780 -7 780 -80V-310C780 -344 784 -356 800 -372ZM742 -204L534 -92V-287C534 -324 540 -339 557 -354L594 -330C617 -337 642 -342 742 -361ZM695 -254L601 -304L593 -290L678 -194C685 -186 690 -187 693 -199C697 -219 697 -236 695 -254Z"/>
</svg>