<svg xmlns="http://www.w3.org/2000/svg" viewBox="0 -1000 1000 1000">
	<path fill="#000000" d="M865 -728L821 -772L784 -737L594 -714C605 -738 609 -753 614 -778L529 -863L516 -855L575 -712L396 -690C396 -709 394 -730 392 -750L373 -751C370 -659 354 -627 317 -597L335 -544C339 -533 344 -532 354 -545C377 -574 390 -612 394 -657L786 -704L739 -617L753 -606C808 -675 836 -697 863 -711C873 -716 873 -721 865 -728ZM292 -703L173 -772L161 -759L272 -624C280 -615 285 -616 287 -627C291 -646 292 -663 292 -703ZM595 -536L561 -564C537 -550 494 -538 352 -521L391 -486C447 -500 483 -508 592 -522C603 -523 604 -528 595 -536ZM222 -408C223 -427 222 -450 220 -482L102 -548L92 -538L208 -405C216 -396 222 -398 222 -408ZM852 -523L814 -551C782 -532 758 -524 699 -511C699 -557 701 -577 709 -592C714 -602 713 -606 707 -613L649 -673L637 -666C656 -619 664 -572 664 -488V-372L583 -357L619 -322C647 -334 692 -345 761 -356C747 -311 733 -276 709 -236L604 -301L597 -290L692 -209C656 -157 610 -106 561 -69L572 -53C634 -97 662 -123 714 -188L809 -108C819 -100 823 -101 824 -113C825 -130 823 -145 819 -167L739 -219C756 -242 769 -267 793 -322C805 -349 811 -359 828 -369C838 -375 838 -379 829 -387L785 -423L757 -387L699 -377V-478L848 -508C861 -511 861 -516 852 -523ZM331 -494L309 -501L167 -78L79 -151L67 -138C101 -98 143 -44 178 4C185 13 191 12 194 1ZM912 -4C900 -49 889 -107 879 -213H860L855 -28C820 -13 714 -4 656 -7C537 -13 527 -24 527 -121V-245C527 -292 530 -314 539 -331C543 -339 543 -343 535 -351L511 -377L617 -392C628 -394 629 -398 620 -405L581 -437C545 -417 514 -410 304 -381L346 -346C366 -354 379 -358 398 -362C403 -309 398 -271 373 -182C350 -103 288 -4 202 63L212 77C335 -12 403 -113 430 -247C435 -273 444 -301 452 -310C458 -317 457 -322 451 -329L417 -364L486 -374C491 -345 493 -310 493 -255V-105C493 16 525 28 670 30C788 32 863 27 904 17C914 15 916 11 912 -4Z"/>
</svg>