<svg xmlns="http://www.w3.org/2000/svg" viewBox="0 -1000 1000 1000">
	<path fill="#000000" d="M661 -779L581 -863L565 -853L619 -720C624 -708 631 -707 638 -719C648 -736 657 -759 661 -779ZM291 -697L165 -777L154 -761L267 -619C273 -612 280 -613 282 -620C288 -640 292 -674 291 -697ZM220 -405C222 -431 222 -452 219 -479L95 -545L86 -531L204 -401C212 -392 219 -393 220 -405ZM952 -22L950 -44C832 -47 823 -52 711 -191C809 -257 828 -269 841 -272C850 -274 851 -279 847 -286L818 -334L804 -331C801 -306 782 -280 696 -209L638 -282V-320L807 -341C823 -343 822 -350 810 -360L789 -377L798 -455L912 -469C927 -471 928 -475 916 -485L880 -515C860 -503 839 -495 802 -487L806 -521C809 -547 816 -558 837 -572C842 -575 842 -579 834 -587L792 -627L765 -589L639 -572C641 -594 645 -615 650 -624C654 -630 653 -633 644 -642L617 -669L873 -700C889 -702 890 -709 876 -717L831 -745C799 -725 728 -714 420 -680L395 -761L375 -756C389 -679 387 -630 376 -429C363 -203 307 -57 214 66L232 77C352 -79 402 -214 415 -434L462 -407C481 -414 518 -420 600 -431V-350L452 -332L495 -296C511 -304 535 -307 600 -316V-187L346 -62L410 -38C429 -59 489 -97 600 -161V-102C600 -27 600 -1 598 16L499 -54L487 -37C534 11 571 53 601 98C608 108 614 108 618 99C636 60 638 47 638 -86V-233L797 -9ZM343 -550L324 -557L176 -92L80 -162L69 -147C118 -92 156 -47 187 -8C194 1 199 0 202 -11ZM554 -176C555 -196 553 -223 548 -244L431 -297L423 -283L542 -174C547 -168 554 -169 554 -176ZM600 -463L415 -441C420 -531 422 -592 425 -645L587 -666C595 -641 599 -603 600 -567L456 -548L513 -516C527 -522 545 -527 600 -534ZM771 -557L763 -481L638 -467V-539ZM760 -450L752 -370L638 -354V-435Z"/>
</svg>