<svg xmlns="http://www.w3.org/2000/svg" viewBox="0 -1000 1000 1000">
	<path fill="#000000" d="M306 -694L187 -778L181 -768L283 -624C290 -615 295 -615 298 -624C305 -647 306 -664 306 -694ZM224 -476L99 -563L93 -553L202 -400C207 -393 213 -393 216 -403C221 -421 224 -444 224 -476ZM901 -15L783 -159L772 -152L818 -54L721 -37V-196L862 -212C870 -213 871 -216 867 -222L835 -260L845 -343C849 -372 857 -387 869 -396C876 -401 875 -405 870 -410L826 -448L803 -412L721 -401C722 -459 726 -477 735 -486C739 -489 739 -493 733 -498L696 -534L827 -549C835 -550 836 -554 828 -562L799 -592L810 -688C813 -717 822 -730 836 -740C843 -746 842 -749 835 -755L788 -794L767 -756L621 -737L593 -799L577 -792C585 -768 592 -731 593 -702L596 -581C597 -553 592 -534 583 -522L615 -476C621 -468 628 -469 629 -480C631 -496 632 -509 633 -528L670 -532C680 -496 683 -450 684 -398L602 -388L570 -453L556 -447C562 -418 568 -384 569 -360L573 -235C574 -213 570 -191 561 -178L595 -126C599 -120 605 -120 607 -127C610 -139 612 -154 611 -185L684 -193V-31L476 8L531 42C581 27 653 9 828 -33L872 58C876 66 882 66 885 59C893 43 898 25 901 -15ZM556 -737L510 -775L490 -740L339 -720L384 -686C398 -692 428 -698 498 -706L485 -536L395 -524L371 -564L360 -560C367 -524 368 -499 364 -469L352 -373C350 -354 345 -341 324 -332L358 -295C362 -290 368 -291 374 -301C380 -310 386 -314 397 -316L477 -326C458 -131 432 -35 411 -3L313 -92L303 -79C342 -30 378 24 401 68C407 79 411 80 422 65C459 14 490 -78 509 -298C511 -323 516 -330 533 -340C542 -345 541 -351 534 -357L490 -398L467 -359L385 -347L403 -490L540 -509C548 -510 549 -515 543 -520L519 -545L534 -685C536 -703 547 -714 555 -720C563 -726 564 -731 556 -737ZM316 -537L297 -542L188 -72L103 -139L91 -127C131 -79 175 -22 203 20C210 30 216 28 218 17ZM776 -723L763 -578L631 -562L627 -703ZM812 -378L797 -239L721 -230V-367ZM684 -227L610 -219L606 -354L684 -363Z"/>
</svg>