<svg xmlns="http://www.w3.org/2000/svg" viewBox="0 -1000 1000 1000">
	<path fill="#000000" d="M339 -637C342 -654 340 -672 333 -707L180 -765L173 -749L324 -634C334 -627 338 -628 339 -637ZM857 -747C865 -751 865 -754 857 -761L809 -802L787 -766L447 -725L409 -799L395 -793C405 -754 409 -729 410 -704L414 -568C415 -540 410 -515 401 -498L435 -447C441 -439 447 -440 448 -448C451 -466 452 -477 452 -504L837 -545C845 -546 844 -552 839 -557L812 -584L830 -694C838 -737 840 -740 857 -747ZM280 -402C281 -420 280 -443 276 -474L119 -539L109 -525L264 -398C274 -391 280 -393 280 -402ZM383 -539L364 -546L209 -72L107 -125L97 -108C151 -63 195 -19 223 14C230 22 235 21 238 10ZM962 -78V-94C885 -115 863 -132 812 -213L771 -278C783 -304 797 -324 805 -327C815 -331 817 -337 811 -345L768 -411L756 -404C764 -351 732 -252 628 -117V-424C751 -455 767 -458 797 -462C812 -464 814 -470 808 -478L778 -515H765C718 -481 641 -453 369 -396L371 -379C420 -384 527 -401 591 -416V-42C591 -8 585 23 573 42L606 100C613 111 619 114 622 99C626 77 628 51 628 7V-86C694 -152 729 -199 755 -246L839 -83ZM555 -154L455 -237C475 -276 486 -288 495 -291C505 -294 507 -302 501 -310L456 -373L446 -369C452 -311 410 -190 285 -38L300 -28C355 -87 407 -154 444 -217L532 -91C540 -79 546 -81 549 -92C554 -114 555 -123 555 -154ZM792 -729L774 -575L688 -565L695 -718ZM658 -714L651 -562L566 -551V-702ZM530 -548L451 -539L446 -689L530 -698Z"/>
</svg>