<svg xmlns="http://www.w3.org/2000/svg" viewBox="0 -1000 1000 1000">
	<path fill="#000000" d="M868 -626C873 -629 874 -634 866 -641L819 -675L794 -646L584 -617V-685L767 -711C777 -713 777 -716 770 -721L732 -751C709 -739 623 -722 584 -715C584 -746 590 -769 600 -784C603 -788 602 -792 597 -797L540 -852L529 -844C541 -819 545 -790 545 -710L366 -691L411 -655C426 -662 460 -669 545 -681V-612L376 -588C377 -608 376 -629 373 -648H357C354 -563 332 -513 310 -491L329 -436C332 -428 338 -427 342 -434C362 -473 371 -517 374 -560L800 -616L770 -537L784 -531C814 -586 842 -612 868 -626ZM307 -591C315 -597 314 -603 307 -608L269 -636L249 -606L160 -588L123 -659L109 -654C116 -634 127 -580 127 -550L129 -403C129 -372 124 -346 114 -327L146 -261C150 -254 153 -253 156 -263C163 -289 164 -306 163 -368L292 -393C302 -395 302 -399 296 -404L270 -427L291 -551C294 -573 297 -583 307 -591ZM748 -522C754 -526 753 -532 748 -536L705 -566L688 -543L431 -506L409 -543L396 -539C403 -517 408 -495 409 -468L412 -381C413 -365 410 -351 399 -337L435 -283C442 -272 450 -274 449 -312L721 -347C730 -348 731 -352 725 -358L705 -378L726 -489C729 -503 735 -513 748 -522ZM930 21L927 8C808 24 716 13 577 -43V-132L708 -153C726 -156 727 -159 715 -169L687 -192C671 -183 645 -177 577 -162V-246L757 -271L726 -191L741 -185C772 -241 802 -270 823 -281C832 -286 833 -290 825 -296L779 -328L753 -298L289 -243L328 -211C344 -216 369 -220 396 -223C389 -155 323 -48 174 72L181 85C244 45 342 -37 383 -93L751 68ZM252 -575L237 -421L163 -400L160 -555ZM689 -514L671 -375L577 -360V-417L645 -427C654 -428 654 -433 648 -437L618 -460C609 -454 595 -449 577 -444V-497ZM542 -353L448 -338L441 -478L542 -492V-437L450 -423L478 -396C495 -403 518 -408 542 -412ZM538 -59L397 -116C416 -146 426 -158 438 -165C445 -169 445 -174 440 -182L414 -225L538 -242Z"/>
</svg>