<svg xmlns="http://www.w3.org/2000/svg" viewBox="0 -1000 1000 1000">
	<path fill="#000000" d="M334 -674L203 -753L194 -741L312 -603C319 -595 325 -595 326 -603C331 -631 333 -645 334 -674ZM542 -748L509 -803L498 -798C498 -745 452 -670 348 -553L361 -541C411 -587 455 -632 495 -685C512 -707 527 -723 538 -730C546 -735 548 -739 542 -748ZM690 -542L629 -597C670 -716 674 -724 680 -732C685 -739 684 -742 678 -750L637 -804L624 -797C638 -734 604 -580 520 -421L535 -410C565 -459 599 -519 618 -569L663 -489C668 -479 674 -480 678 -488C685 -504 689 -519 690 -542ZM251 -452L116 -531L108 -519L236 -378C241 -372 246 -372 247 -378C252 -400 253 -421 251 -452ZM945 38V21C839 25 788 13 717 -57V-267L853 -285C865 -286 865 -293 857 -299L825 -325C809 -315 773 -307 717 -300C718 -356 721 -374 731 -392C736 -401 736 -405 729 -411L700 -437C722 -477 755 -546 769 -584C799 -548 824 -507 849 -458C853 -450 859 -448 863 -459C869 -477 872 -500 871 -525L777 -611C811 -720 816 -734 825 -743C832 -750 831 -754 826 -760L778 -814L767 -808C777 -734 755 -619 682 -454L667 -450C676 -424 681 -406 681 -296V-95L585 -201C606 -286 611 -299 618 -309C623 -317 623 -321 619 -327L579 -376L567 -371C579 -298 546 -124 465 16L479 28C513 -21 556 -107 575 -165L768 59ZM547 -563L515 -621L502 -618C509 -553 425 -410 311 -280L323 -267C350 -293 389 -334 426 -377V-79C426 -29 421 0 405 33L443 104C448 114 454 113 457 102C460 89 462 64 462 22V-426C478 -447 490 -465 497 -478C520 -521 530 -535 540 -542C548 -549 551 -555 547 -563ZM360 -499L343 -505L210 -56L106 -135L97 -120C140 -73 198 -7 222 25C227 31 233 31 237 16Z"/>
</svg>