<svg xmlns="http://www.w3.org/2000/svg" viewBox="0 -1000 1000 1000">
	<path fill="#000000" d="M288 -645C291 -664 291 -687 288 -718L174 -790L164 -777L270 -640C279 -629 286 -630 288 -645ZM437 -646L353 -720L343 -709C368 -667 390 -623 407 -583C411 -573 418 -573 423 -584C431 -599 436 -624 437 -646ZM660 -635L596 -685C600 -689 601 -693 598 -700L575 -750L563 -747C554 -711 528 -660 490 -614C497 -648 502 -683 505 -722C508 -757 512 -770 520 -781C525 -788 524 -793 519 -798L463 -846L451 -838C472 -798 471 -713 453 -603C442 -537 424 -490 389 -428L406 -418C439 -472 462 -516 479 -569C506 -537 536 -500 564 -462C572 -450 580 -451 581 -467C582 -483 582 -500 580 -521L490 -585C529 -628 558 -659 578 -672C603 -641 617 -617 639 -575C646 -562 652 -563 655 -577C658 -588 660 -614 660 -635ZM225 -403C225 -424 224 -438 218 -477L97 -541L89 -527L208 -396C216 -387 225 -388 225 -403ZM916 -453L874 -497L841 -463L807 -459C810 -473 811 -492 809 -517L722 -584C801 -650 825 -669 843 -678C854 -683 856 -687 853 -695L832 -753L817 -751C813 -719 788 -681 705 -595C716 -630 724 -666 728 -703C735 -768 737 -781 744 -791C750 -800 749 -804 744 -809L689 -862L677 -852C695 -831 698 -738 679 -632C665 -561 637 -490 600 -436L383 -412C383 -436 379 -457 376 -477H357C356 -401 345 -356 321 -326L340 -272C344 -260 349 -259 356 -273C368 -296 379 -338 382 -382L550 -400C555 -372 552 -333 537 -279L369 -258L423 -224C441 -231 471 -238 529 -246C491 -123 423 -31 300 63L309 79C445 -12 525 -104 572 -252L738 -274C712 -131 671 -35 651 -5L555 -80L544 -67C588 -16 619 26 646 70C651 78 656 79 662 72C687 41 729 -49 768 -223C775 -253 782 -265 801 -276C810 -281 809 -286 804 -292L766 -336L738 -306L582 -284C593 -317 601 -338 607 -345C614 -352 615 -357 609 -364L576 -402L840 -432L799 -342L816 -333C863 -400 888 -425 911 -438C920 -443 921 -448 916 -453ZM342 -522L320 -526L181 -55L86 -117L76 -97C117 -62 164 -10 191 25C199 35 205 34 208 20ZM793 -457L629 -439C660 -478 682 -522 699 -572C739 -532 766 -498 793 -457Z"/>
</svg>