<svg xmlns="http://www.w3.org/2000/svg" viewBox="0 -1000 1000 1000">
	<path fill="#000000" d="M282 -680L171 -756L160 -745L259 -610C266 -600 270 -600 274 -613C280 -631 283 -652 282 -680ZM212 -390C215 -411 214 -432 209 -462L84 -520L77 -508L199 -385C206 -378 209 -378 212 -390ZM922 -549L886 -584C867 -572 807 -558 679 -545L697 -661L840 -675C859 -677 861 -682 850 -692L816 -724C802 -714 758 -701 701 -694C711 -765 717 -785 728 -800C733 -807 733 -810 724 -818L669 -862L656 -854C669 -831 670 -791 661 -690L523 -679C520 -744 523 -772 532 -785C536 -792 534 -798 525 -804L466 -847L456 -833C472 -808 479 -772 486 -676L344 -663L383 -625C395 -630 423 -634 488 -640L496 -528L327 -512L335 -551L317 -559L175 -90L106 -129L97 -118C130 -83 168 -36 194 1C198 8 202 7 205 -5L324 -499L356 -473C407 -485 444 -490 557 -500C562 -482 565 -458 565 -415L445 -400L413 -455L398 -452C408 -424 408 -380 409 -357L413 -223C414 -183 410 -165 401 -147L436 -89C443 -77 448 -79 451 -91C454 -105 455 -122 454 -144L785 -177C800 -178 801 -182 789 -193L756 -226L774 -366C778 -396 784 -412 797 -419C804 -424 805 -431 797 -437L755 -470L728 -434L602 -419C602 -438 607 -461 612 -470C615 -476 615 -481 608 -487L590 -502L918 -533C931 -534 934 -539 922 -549ZM830 64C833 43 829 15 820 -20L644 -109L639 -96L819 68C824 74 829 73 830 64ZM556 -61L535 -127L522 -125C511 -83 455 -31 277 85L284 100C340 73 451 11 483 -12C514 -35 530 -43 547 -47C556 -48 558 -52 556 -61ZM658 -656L647 -542L532 -531L525 -643ZM737 -405L727 -306L694 -329C682 -322 658 -316 602 -309V-388ZM565 -306L448 -291L444 -369L565 -384ZM726 -294L719 -210L602 -192V-276ZM565 -189L453 -177L448 -284L480 -259C492 -262 516 -265 565 -272Z"/>
</svg>