<svg xmlns="http://www.w3.org/2000/svg" viewBox="0 -1000 1000 1000">
	<path fill="#000000" d="M299 -701L163 -762L154 -748L283 -636C292 -629 297 -631 298 -640C301 -662 301 -676 299 -701ZM875 -491C868 -523 863 -550 852 -622H835L828 -507C810 -497 786 -491 726 -491C660 -491 652 -497 651 -592L804 -612C815 -613 817 -620 806 -628L785 -644L790 -697C793 -724 799 -740 810 -749C817 -755 818 -759 809 -767L775 -796L752 -763L646 -749L615 -812L601 -806C610 -773 615 -737 615 -691V-569C615 -471 634 -458 717 -456C771 -455 827 -463 865 -474C875 -476 877 -480 875 -491ZM595 -479C587 -495 572 -550 568 -584H551L548 -493C533 -485 501 -480 462 -480C411 -480 397 -485 396 -578L554 -598C563 -599 564 -606 554 -613L530 -631L537 -691C539 -711 546 -725 553 -730C561 -736 561 -741 553 -748L514 -778L494 -745L397 -733L363 -794L348 -787C356 -754 362 -709 362 -672V-548C362 -479 382 -451 440 -447C488 -444 539 -449 587 -464C598 -468 598 -472 595 -479ZM229 -485L87 -546L78 -532L212 -419C220 -412 227 -414 228 -423C231 -444 231 -460 229 -485ZM342 -566L320 -572L174 -49L76 -120L64 -106C109 -62 155 -8 188 33C194 40 202 39 204 29ZM902 -192L867 -226C839 -214 797 -207 674 -196L678 -300L819 -315C829 -316 830 -320 820 -329L787 -360C759 -346 729 -340 679 -335C683 -376 689 -399 694 -405C701 -413 700 -417 693 -422L643 -462L632 -450C640 -432 645 -397 643 -331L506 -318C506 -363 508 -379 511 -389C513 -398 511 -401 505 -405L458 -438L448 -432C458 -407 465 -367 466 -315L321 -301L372 -263C394 -270 422 -275 466 -280V-179L260 -163L308 -125C340 -134 380 -139 493 -149C482 -99 408 -18 272 83L282 98C364 51 400 26 481 -49C506 -71 512 -75 524 -76C533 -77 535 -83 531 -94L512 -150L901 -178C910 -179 911 -183 902 -192ZM826 49C828 30 827 8 822 -19L623 -125L615 -109L810 52C820 60 825 60 826 49ZM755 -732L750 -638L651 -623V-718ZM500 -715L493 -625L396 -610V-699ZM642 -297L639 -193L506 -182V-283Z"/>
</svg>