<svg xmlns="http://www.w3.org/2000/svg" viewBox="0 -1000 1000 1000">
	<path fill="#000000" d="M296 -699L175 -773L161 -759L280 -618C286 -611 292 -611 294 -619C299 -638 300 -665 296 -699ZM223 -396C225 -423 225 -440 222 -474L99 -535L89 -521L207 -392C215 -383 222 -384 223 -396ZM925 -440L881 -471C853 -456 772 -439 604 -421V-667L688 -678C697 -629 661 -534 611 -455L625 -447C651 -473 677 -513 701 -560L776 -474C787 -462 794 -464 795 -478C796 -493 795 -510 794 -531L712 -583C726 -615 733 -624 741 -629C748 -634 749 -639 742 -648L714 -682L820 -696C833 -698 834 -701 825 -708L785 -739C758 -729 702 -715 604 -701C606 -750 611 -773 621 -790C626 -799 625 -804 618 -809L560 -855L548 -846C560 -813 564 -777 565 -697L345 -669L398 -632C413 -638 434 -643 450 -645C457 -601 415 -498 365 -423L379 -414C404 -440 432 -477 458 -526L527 -446C537 -435 544 -435 545 -446C546 -465 545 -477 544 -499L470 -550C490 -590 494 -595 498 -598C507 -604 507 -609 502 -615L474 -649L565 -662V-417L308 -389L338 -516L322 -524L176 -63L82 -130L69 -115C118 -64 154 -21 191 25C198 34 204 33 207 22L305 -378L345 -350C412 -369 503 -383 916 -424C936 -426 937 -432 925 -440ZM823 -322C830 -328 829 -332 820 -340L779 -376L752 -337L427 -293L395 -340L381 -334C389 -296 393 -253 394 -200L399 -49C400 -4 394 17 384 29L421 95C430 109 436 108 439 90C441 78 442 67 441 25L722 -4L746 62C751 76 756 76 764 63C777 40 784 10 790 -88L800 -261C804 -304 806 -308 823 -322ZM760 -303L748 -86C746 -47 742 -28 735 -21L699 -46C684 -36 632 -24 440 -8L432 -261ZM692 -232L657 -263L635 -233L530 -216L503 -258L492 -252C510 -174 510 -112 497 -81L525 -45C534 -34 538 -36 541 -51C542 -58 542 -65 542 -80L684 -99C695 -100 696 -104 687 -112L666 -132L672 -182C674 -198 677 -204 689 -213C699 -221 700 -225 692 -232ZM637 -203L631 -124L540 -111L537 -184Z"/>
</svg>