<svg xmlns="http://www.w3.org/2000/svg" viewBox="0 -1000 1000 1000">
	<path fill="#000000" d="M293 -692L170 -789L159 -778L274 -620C281 -612 287 -613 289 -624C293 -644 294 -662 293 -692ZM210 -466L94 -553L85 -541L189 -398C196 -389 202 -390 205 -401C210 -420 211 -437 210 -466ZM903 26C890 -26 882 -78 880 -163H863L845 6C813 14 727 16 657 10C547 -1 539 -16 539 -87V-564C539 -607 542 -633 550 -646C554 -652 554 -658 550 -664L516 -716L588 -724C598 -699 603 -657 603 -585V-198C603 -131 599 -110 586 -94L619 -31C625 -19 632 -19 636 -35C639 -50 640 -73 640 -150L798 -168C810 -169 810 -174 802 -182L773 -210L801 -439C802 -448 810 -462 825 -470C833 -475 833 -479 826 -485L786 -526L756 -484L640 -471V-566L772 -582C783 -583 784 -588 775 -596L750 -619L778 -722C781 -732 790 -743 803 -749C811 -754 811 -758 805 -764L765 -805L737 -770L420 -735L391 -807L376 -801C380 -782 382 -755 383 -713L386 -602C387 -586 381 -568 375 -561L405 -512C412 -500 418 -502 419 -515C420 -521 421 -533 421 -547L502 -557V-465L389 -450L361 -522L345 -517C349 -495 353 -457 353 -417L356 -206C356 -182 352 -167 339 -152L374 -95C380 -86 386 -86 388 -95C391 -111 392 -122 393 -146L502 -162V-98C502 16 521 35 647 50C711 59 830 55 893 41C903 39 905 35 903 26ZM322 -498L304 -506L165 -71L77 -133L68 -119C102 -79 143 -28 173 12C178 19 184 19 187 7ZM742 -739L716 -608L640 -596C640 -645 642 -667 649 -679C654 -687 653 -692 647 -696L613 -726ZM502 -586L421 -578L420 -705L495 -714C501 -692 503 -663 502 -586ZM761 -453L750 -329L721 -353C704 -343 687 -338 640 -332V-440ZM502 -318L473 -341C464 -335 440 -329 388 -321L385 -421L502 -433ZM749 -317L738 -193L640 -180V-302ZM502 -191L392 -177L388 -291L502 -308Z"/>
</svg>