<svg xmlns="http://www.w3.org/2000/svg" viewBox="0 -1000 1000 1000">
	<path fill="#000000" d="M875 -738L831 -767C792 -747 772 -742 616 -722C626 -744 630 -759 634 -781L547 -847L535 -839L600 -720L301 -681L344 -648C388 -662 429 -669 872 -726C881 -727 883 -733 875 -738ZM330 -598C336 -603 337 -608 330 -614L291 -647L261 -615L159 -592L132 -658L117 -651C123 -622 126 -594 129 -547L138 -390C140 -355 136 -326 128 -311L165 -250C170 -241 176 -243 179 -255C182 -267 182 -279 177 -358L319 -381C329 -383 329 -387 321 -394L300 -413L306 -535C308 -573 311 -582 330 -598ZM945 16V-3C826 -18 784 -36 692 -128C775 -193 789 -200 807 -202C817 -203 820 -209 813 -218L787 -254L897 -268C907 -269 909 -274 900 -280L861 -309C829 -295 756 -280 666 -267L669 -331L800 -354C813 -356 813 -360 803 -366L766 -389C751 -381 721 -373 670 -363L672 -421L830 -447C844 -449 844 -454 836 -459L797 -484C773 -475 726 -463 674 -453C676 -462 678 -465 682 -468C688 -473 688 -477 678 -485L650 -511L788 -532C797 -533 798 -537 791 -544L775 -559L782 -597C786 -614 790 -623 800 -629C809 -634 809 -638 800 -646L767 -674L743 -648L639 -629L613 -665L600 -658C615 -621 618 -561 604 -522L634 -470C634 -463 634 -455 634 -446L526 -427C528 -444 529 -451 533 -457C539 -465 537 -469 530 -475L500 -499L564 -511C576 -513 575 -519 567 -525L552 -536L553 -571C554 -592 559 -604 569 -612C577 -617 578 -622 568 -629L533 -652L513 -624L424 -606L403 -636L389 -630C403 -595 403 -516 392 -488L419 -448C426 -437 433 -440 434 -450C435 -461 436 -478 436 -488L475 -495C483 -473 488 -446 490 -421L341 -394L386 -366C408 -375 442 -383 490 -391V-331L358 -308L403 -283C413 -286 450 -295 490 -302V-244L258 -215L302 -183C333 -192 406 -205 486 -216C429 -140 334 -63 199 12L210 30C331 -34 382 -66 458 -130C461 -118 462 -110 462 -89V-17C462 11 456 20 429 42L463 74C469 80 473 80 477 75C512 29 522 16 620 -85L610 -100L499 -17V-75C499 -96 502 -108 505 -112C512 -118 512 -121 504 -128L479 -149C513 -179 537 -202 557 -225L565 -226L783 33ZM749 -623L741 -555L646 -535L644 -601ZM518 -597L516 -530L434 -514L432 -579ZM268 -583L262 -406L175 -389L162 -561ZM634 -415L632 -357L526 -337V-397ZM632 -325L630 -263L526 -248V-308ZM766 -252C760 -233 739 -205 674 -146L595 -229Z"/>
</svg>