<svg xmlns="http://www.w3.org/2000/svg" viewBox="0 -1000 1000 1000">
	<path fill="#000000" d="M315 -692L180 -770L171 -756L295 -626C301 -619 306 -619 308 -627C313 -647 315 -666 315 -692ZM887 -503L848 -533C830 -520 786 -511 611 -490V-560L793 -583C807 -585 807 -589 795 -598L760 -623C742 -615 719 -607 697 -603C726 -658 758 -708 767 -714C774 -719 774 -724 770 -730L739 -775C760 -782 772 -784 788 -785C800 -785 801 -790 793 -799L751 -848L739 -844C724 -810 610 -765 347 -710L349 -690C368 -691 392 -694 425 -700L475 -592C480 -580 487 -581 491 -589C498 -604 502 -615 507 -642L447 -704C478 -711 513 -718 550 -727L586 -604C589 -592 595 -591 602 -600C612 -615 618 -629 627 -657L569 -731C618 -742 669 -754 717 -769C718 -732 705 -683 665 -599L389 -563L437 -527C462 -536 516 -548 572 -555V-486L340 -460L384 -425C423 -436 460 -441 884 -487C899 -489 899 -494 887 -503ZM232 -475L100 -563L93 -550L213 -399C222 -388 229 -390 230 -402C233 -427 234 -444 232 -475ZM798 -422L759 -463L728 -423L371 -380L416 -344C442 -351 495 -362 732 -390L723 -258L379 -216L425 -182C467 -194 537 -204 786 -231C799 -232 800 -237 790 -245L762 -267L770 -353C773 -385 781 -399 797 -408C803 -412 803 -417 798 -422ZM712 -323L684 -345C657 -333 605 -324 398 -301L443 -269C474 -279 525 -287 708 -308C722 -310 723 -314 712 -323ZM349 -555L330 -563L184 -97L73 -171L62 -156C117 -105 164 -51 195 -13C201 -6 208 -7 210 -16ZM654 -125L546 -193L538 -183L633 -53C639 -45 644 -46 647 -53C653 -73 655 -101 654 -125ZM880 -41C882 -61 881 -83 877 -112L742 -183L735 -170L864 -38C873 -29 879 -29 880 -41ZM395 -157L379 -158C367 -92 346 -41 312 -21L331 37C334 45 339 47 345 39C382 -11 398 -71 395 -157ZM817 47C782 -12 766 -44 739 -112L722 -106L745 12C609 13 496 -38 457 -160L437 -153C471 -4 608 70 812 61C820 61 822 57 817 47Z"/>
</svg>