<svg xmlns="http://www.w3.org/2000/svg" viewBox="0 -1000 1000 1000">
	<path fill="#000000" d="M453 -748L358 -840L347 -833L417 -685C422 -675 428 -675 433 -685C440 -700 445 -714 453 -748ZM292 -716L158 -795L150 -785L265 -658C273 -649 277 -649 280 -658C285 -674 290 -697 292 -716ZM575 -671L542 -694C515 -681 461 -667 273 -641L314 -611C344 -620 435 -636 572 -655C588 -657 588 -662 575 -671ZM839 -748L796 -788L769 -749L624 -725L594 -795L579 -790C591 -750 596 -697 596 -642V-409C596 -357 589 -331 580 -315L609 -267C616 -255 623 -255 626 -269C628 -279 629 -285 629 -311L761 -329L783 -290C791 -276 797 -278 800 -291C803 -304 805 -331 807 -418L816 -671C817 -698 821 -716 838 -728C848 -735 848 -740 839 -748ZM408 -517L334 -598L323 -590L373 -474C377 -464 383 -464 390 -473C396 -481 403 -495 408 -517ZM206 -504L81 -582L73 -572L184 -438C190 -431 194 -431 198 -441C203 -458 205 -476 206 -504ZM581 -474L550 -496C537 -488 504 -479 464 -472C504 -545 517 -561 522 -563C532 -568 533 -572 527 -580L491 -631L480 -627C478 -583 467 -545 436 -468L268 -442L293 -568L276 -574L144 -69L61 -134L50 -118C114 -45 126 -30 159 16C164 23 170 22 172 13L265 -430L292 -409C312 -417 356 -426 408 -433V-338L268 -316L306 -284C320 -290 354 -298 408 -307V-139C408 -51 406 -31 402 -19L305 -86L296 -71C353 -10 384 25 408 60C415 69 419 69 424 60C443 27 445 -2 445 -116V-312L571 -330C584 -332 583 -337 574 -344L541 -368C527 -360 503 -353 445 -343V-438L578 -458C591 -460 592 -466 581 -474ZM580 -177L474 -274L462 -265L546 -122C552 -112 557 -111 562 -122C571 -143 576 -157 580 -177ZM370 -205L346 -265L334 -262C332 -220 301 -165 217 -66L229 -55C258 -78 298 -118 334 -162C343 -173 355 -183 364 -186C373 -189 374 -195 370 -205ZM934 13C926 -3 912 -50 896 -167L880 -166L879 1C856 11 840 14 804 10C762 5 754 -4 754 -58V-195C754 -227 757 -244 766 -259C771 -268 770 -273 764 -278L723 -318L711 -314C717 -293 717 -277 717 -205V-54C717 28 737 44 800 45C857 46 881 43 928 30C940 27 940 24 934 13ZM695 -250L659 -307L647 -301C643 -173 568 -30 440 69L449 84C579 -8 625 -70 665 -182C674 -208 684 -227 693 -232C700 -236 700 -241 695 -250ZM780 -716L769 -433C767 -384 766 -366 761 -355L748 -365C732 -359 696 -351 629 -344V-439L756 -457C767 -459 768 -463 759 -472L736 -494C711 -485 683 -479 629 -472V-558L757 -576C769 -578 769 -582 760 -591L737 -614C712 -604 685 -597 629 -590V-692Z"/>
</svg>