<svg xmlns="http://www.w3.org/2000/svg" viewBox="0 -1000 1000 1000">
	<path fill="#000000" d="M294 -706L175 -795L164 -784L271 -638C278 -628 284 -629 287 -640C291 -654 294 -683 294 -706ZM612 -539L584 -562C576 -555 545 -546 496 -539C517 -587 530 -608 542 -622C548 -629 548 -632 544 -638L518 -674L588 -684C598 -685 599 -690 593 -696L564 -723C552 -714 520 -703 474 -696C483 -717 489 -742 492 -761L425 -835L411 -829L460 -694L303 -672L342 -641C351 -644 359 -646 373 -649L404 -527L278 -512L323 -480C371 -494 426 -504 606 -523C624 -525 625 -528 612 -539ZM211 -487L99 -570L89 -559L188 -415C195 -404 201 -405 204 -418C209 -436 210 -449 211 -487ZM914 15C903 -30 897 -74 893 -158H875L870 -5C838 8 773 15 707 6C660 0 657 -21 657 -147L843 -171C857 -173 859 -176 848 -186L820 -211C799 -200 753 -191 657 -178V-240L820 -260C837 -262 837 -267 825 -276L799 -296C777 -288 738 -280 657 -269V-330L826 -351C839 -353 839 -357 829 -367L802 -393C775 -380 741 -372 657 -360V-431L824 -450C838 -451 839 -456 828 -466L807 -486L821 -550C824 -565 830 -571 842 -579C850 -586 849 -589 844 -594L804 -631L779 -597L665 -580V-656L869 -686C882 -688 883 -692 872 -701L838 -730C815 -717 768 -705 665 -688C665 -742 668 -763 678 -781C681 -786 681 -791 676 -797L629 -855L618 -847C625 -831 631 -802 631 -743V-619C631 -585 629 -580 611 -563L637 -538C644 -532 647 -532 653 -538C661 -545 670 -549 676 -550L784 -566L769 -478L657 -460L630 -517L617 -512C621 -491 622 -474 622 -424V-105C622 -7 631 22 683 39C724 51 852 47 907 31C915 29 916 25 914 15ZM313 -470L294 -475L164 -71L82 -143L72 -131C114 -75 145 -31 172 12C177 21 184 21 188 6ZM561 -446L523 -480L499 -446L398 -431L370 -483L357 -477C363 -442 365 -420 365 -370V-152C365 -54 358 -26 344 -9L375 49C383 63 389 62 392 46C396 24 399 -6 399 -77V-183L509 -196V-96C509 -40 508 -23 505 -12L437 -64L429 -53C477 8 491 30 508 61C514 72 521 72 527 62C539 42 545 17 545 -91V-393C545 -411 548 -421 560 -432C566 -438 566 -441 561 -446ZM498 -671C502 -644 492 -601 468 -535L416 -529C426 -546 433 -566 436 -585L392 -654ZM509 -313L484 -339C472 -333 446 -327 399 -320V-398L509 -418ZM509 -211L483 -234C463 -223 444 -217 399 -212V-290L509 -299Z"/>
</svg>