<svg xmlns="http://www.w3.org/2000/svg" viewBox="0 -1000 1000 1000">
	<path fill="#000000" d="M302 -691L187 -777L176 -769L275 -625C281 -616 288 -615 291 -625C297 -647 300 -665 302 -691ZM705 -673L635 -726L625 -718L685 -623C691 -613 698 -616 700 -627C703 -642 704 -651 705 -673ZM468 -665L396 -709L390 -700L452 -618C459 -608 465 -609 467 -622C469 -635 469 -643 468 -665ZM589 -753C595 -758 594 -763 587 -769L553 -801L532 -771L337 -750L375 -715C401 -724 438 -730 537 -740V-635L329 -537L382 -511C400 -526 443 -554 537 -610C536 -579 533 -567 522 -550L550 -500C556 -491 561 -490 565 -502C572 -524 573 -535 573 -605V-709C573 -733 578 -744 589 -753ZM226 -479L106 -549L99 -538L210 -402C216 -394 222 -394 223 -406C226 -431 227 -450 226 -479ZM924 -133L872 -166C848 -157 763 -146 691 -141L701 -209L852 -220C863 -221 862 -227 854 -233L814 -264C788 -255 750 -243 706 -239C709 -255 714 -270 716 -272C721 -276 721 -281 716 -286L696 -310L795 -318C806 -319 807 -324 800 -330L774 -356L790 -441C793 -465 801 -477 813 -483C822 -488 823 -492 811 -503L802 -512C810 -521 814 -545 814 -624V-722C814 -734 819 -747 838 -766C843 -771 843 -774 836 -781L800 -817L776 -789L594 -772L630 -737C652 -745 672 -747 777 -758V-641L585 -571L630 -540C655 -558 687 -576 777 -620C777 -591 773 -579 765 -564L783 -529L775 -535L751 -504L446 -476L415 -513L403 -505C411 -488 416 -464 418 -437L423 -357C424 -333 421 -318 414 -306L438 -254C442 -244 447 -243 451 -253C456 -262 459 -273 459 -289L492 -292C500 -272 505 -250 506 -225L360 -215L407 -179C434 -184 471 -190 507 -193V-129L298 -116L357 -76C393 -84 478 -96 537 -100C517 -54 474 -11 295 75L302 90C373 70 436 43 507 -2C537 -20 555 -26 563 -28C572 -30 573 -35 570 -45L555 -101L921 -123C931 -124 932 -128 924 -133ZM346 -480L329 -486L200 -76L100 -145L91 -132C130 -90 177 -36 210 6C217 15 223 15 226 2ZM843 68C844 51 842 26 832 -7L634 -93L628 -80C742 -4 771 20 830 77C837 84 842 81 843 68ZM753 -474L740 -347L620 -335V-385L719 -392C732 -393 732 -399 721 -406L690 -428C674 -422 655 -418 620 -414V-462ZM585 -332L458 -319L451 -446L585 -459V-411L462 -398L509 -368C520 -372 553 -378 585 -382ZM668 -236L543 -227C545 -240 547 -251 550 -256C552 -260 552 -263 545 -269L518 -294L668 -308C672 -289 671 -266 668 -236ZM665 -206L656 -139L543 -131V-196Z"/>
</svg>