<svg xmlns="http://www.w3.org/2000/svg" viewBox="0 -1000 1000 1000">
	<path fill="#000000" d="M898 -726L851 -757C838 -747 785 -734 689 -722C701 -758 708 -770 718 -775C724 -778 725 -783 720 -790L672 -851L658 -842C665 -810 663 -769 654 -719L518 -703L515 -743C513 -766 514 -779 518 -788C521 -796 520 -797 517 -799L460 -836L452 -823C463 -809 475 -773 477 -753L482 -700L287 -680L335 -647C352 -653 393 -660 484 -670C484 -654 482 -643 477 -632L510 -599C516 -593 523 -592 524 -603C524 -617 523 -634 520 -674L647 -687C642 -664 639 -650 630 -622L651 -616C665 -648 672 -666 679 -690L893 -713C907 -714 908 -719 898 -726ZM281 -697L151 -759L142 -745L263 -632C272 -624 278 -625 279 -635C282 -657 283 -671 281 -697ZM230 -471L93 -534L86 -519L209 -403C217 -394 226 -397 227 -408C229 -426 230 -440 230 -471ZM845 -600C853 -605 853 -611 844 -618L797 -650L773 -614L648 -593L616 -628L602 -623C614 -602 621 -579 622 -551L624 -466C625 -449 624 -440 614 -426L640 -386C647 -375 652 -377 655 -385C658 -396 658 -405 657 -417L786 -433V-57C786 -16 784 -3 778 7L677 -45L666 -28C745 34 771 61 790 86C795 94 801 94 806 87C820 68 824 43 824 -35V-565C824 -577 830 -591 845 -600ZM760 -367L722 -389C699 -379 660 -371 607 -365C608 -388 611 -398 616 -408C619 -414 618 -418 612 -423L567 -454L556 -443C558 -440 559 -436 561 -433L542 -448L552 -531C554 -549 563 -560 575 -565C584 -569 583 -575 574 -584L544 -615L523 -591L392 -570L360 -624L343 -620C349 -600 355 -548 355 -534V-65C355 -16 347 13 334 33L367 86C374 98 380 97 383 86C388 68 391 49 391 -23V-391L566 -419C571 -402 574 -383 574 -361L396 -340L447 -311C460 -317 508 -324 574 -332V-297L487 -287L475 -312L456 -307C463 -292 466 -275 466 -260L464 -196C464 -185 459 -174 454 -168L479 -132C485 -125 489 -124 492 -132C494 -137 495 -143 495 -156L566 -164C536 -120 488 -72 415 -18L427 -5C488 -44 539 -83 574 -121V-70C574 -44 569 -23 557 -7L589 32C597 41 603 42 605 33C607 25 607 19 607 -48V-135L715 -55C727 -46 733 -49 731 -60C728 -72 723 -88 716 -107L607 -157V-167L725 -180C741 -182 744 -187 733 -194L710 -209L717 -253C720 -274 724 -279 735 -284C741 -287 740 -292 735 -298L706 -331L682 -311L607 -301V-336L758 -355C769 -356 771 -361 760 -367ZM329 -530L309 -536L179 -63L80 -135L70 -119C116 -70 169 -11 193 27C200 37 206 36 209 23ZM786 -539L656 -520L654 -566L786 -585ZM519 -563L516 -520L391 -499V-541ZM786 -462L657 -444L656 -493L786 -512ZM514 -491L510 -440L391 -419V-472ZM688 -282L678 -202L633 -197C649 -224 657 -229 666 -231C678 -234 680 -237 673 -244L644 -273L634 -269C633 -253 627 -231 607 -195V-273ZM574 -191L495 -183V-261L503 -262L543 -199C549 -190 555 -190 558 -199C563 -214 564 -221 565 -236L523 -265L574 -270Z"/>
</svg>