<svg xmlns="http://www.w3.org/2000/svg" viewBox="0 -1000 1000 1000">
	<path fill="#000000" d="M216 -439L102 -568L90 -561L183 -371C187 -362 194 -361 197 -369C206 -392 211 -410 216 -439ZM441 -566L401 -637L388 -632C388 -595 368 -546 295 -441C297 -489 298 -547 298 -616C298 -722 306 -763 314 -774C318 -780 318 -783 312 -789L245 -848L234 -838C248 -811 254 -782 256 -679C259 -538 255 -431 249 -348C236 -182 165 -39 45 81L56 93C184 -13 238 -104 275 -245L395 -99C401 -92 408 -92 409 -101C413 -133 413 -145 411 -172L281 -273C286 -299 291 -339 294 -393C413 -538 417 -541 437 -551C444 -555 445 -559 441 -566ZM911 -472L866 -507C830 -490 800 -482 547 -450C551 -510 552 -574 551 -628C611 -647 670 -667 736 -690C793 -710 816 -717 829 -719C839 -721 841 -725 835 -732L790 -780H774C747 -743 720 -726 547 -657L505 -757L491 -752C505 -651 507 -562 503 -450C492 -175 462 -74 305 89L318 101C494 -57 522 -140 544 -415L686 -432V-144C686 -25 682 2 664 40L706 102C713 112 717 112 720 101C726 76 729 45 729 -73V-437L909 -459C919 -460 920 -465 911 -472Z"/>
</svg>