<svg xmlns="http://www.w3.org/2000/svg" viewBox="0 -1000 1000 1000">
	<path fill="#000000" d="M667 -751L579 -845L566 -835L631 -690C635 -681 640 -681 646 -689C656 -706 661 -722 667 -751ZM882 -699L841 -734L812 -699L471 -659C472 -679 471 -700 468 -724H453C449 -641 425 -578 398 -556L414 -503C417 -494 423 -493 430 -503C454 -538 465 -577 469 -624L808 -663L762 -574L777 -565C826 -633 852 -657 881 -678C892 -686 892 -690 882 -699ZM777 -527L742 -552C718 -541 642 -527 465 -511L509 -475C569 -488 640 -499 773 -513C787 -514 788 -520 777 -527ZM193 -460L103 -584L91 -576L159 -396C163 -386 171 -386 175 -394C183 -412 188 -430 193 -460ZM392 -557L361 -605L348 -600C351 -575 336 -532 271 -452C275 -501 278 -558 280 -622C282 -711 288 -737 300 -753C305 -761 304 -768 298 -773L230 -838L216 -828C235 -787 239 -735 238 -622C235 -266 197 -111 62 51L75 64C174 -43 220 -123 249 -274L349 -140C356 -131 361 -131 364 -140C370 -161 371 -183 369 -211L253 -298C258 -331 263 -371 266 -414C352 -506 371 -524 387 -535C396 -541 397 -549 392 -557ZM939 9C921 -58 910 -110 901 -195H884L880 -14C867 -8 819 -2 752 -2C679 -2 668 -20 668 -126V-242C668 -265 673 -295 685 -314C692 -325 691 -330 683 -336L652 -360L868 -380C880 -381 880 -387 872 -393L830 -426C786 -414 683 -393 366 -368L414 -330C435 -336 486 -345 520 -348C508 -155 441 -13 228 75L235 90C414 25 498 -61 542 -217C553 -258 564 -283 579 -295C586 -301 587 -307 580 -315L550 -350L623 -358C630 -337 631 -323 631 -251V-109C631 1 652 30 737 35C817 40 879 36 928 26C940 24 941 18 939 9Z"/>
</svg>