<svg xmlns="http://www.w3.org/2000/svg" viewBox="0 -1000 1000 1000">
	<path fill="#000000" d="M799 -717L775 -785L761 -781C756 -744 723 -701 607 -599L623 -587C754 -686 777 -700 793 -704C800 -706 802 -709 799 -717ZM359 -645L232 -757L221 -746C268 -676 280 -657 330 -575C335 -567 339 -567 342 -574C350 -590 356 -618 359 -645ZM927 -396V-415C818 -414 757 -438 646 -535L506 -659C512 -674 517 -688 522 -703C536 -741 548 -764 558 -772C562 -775 563 -778 558 -784L502 -850L488 -843C497 -814 497 -781 479 -716C440 -572 336 -474 81 -362L87 -343C181 -379 243 -407 301 -441C323 -395 311 -272 267 -160C241 -89 193 -17 96 64L108 79C233 -21 278 -79 318 -187C379 -106 403 -74 437 -23C441 -17 447 -18 449 -24C453 -36 455 -50 459 -87L325 -208C336 -245 342 -270 349 -316C353 -340 361 -365 370 -380C373 -384 373 -388 369 -392L315 -451C390 -499 453 -557 493 -634L764 -377ZM489 -333L468 -392L453 -391C444 -354 425 -312 346 -219L360 -208C447 -298 464 -311 485 -321C490 -323 491 -326 489 -333ZM844 -290L814 -355L800 -352C802 -330 782 -278 699 -186L712 -174C807 -260 822 -272 839 -279C845 -281 846 -285 844 -290ZM253 -234L165 -338L155 -328C182 -269 198 -231 223 -176C226 -169 232 -169 235 -175C245 -198 250 -213 253 -234ZM566 -208L495 -313L482 -305C506 -235 517 -198 533 -151C536 -141 540 -141 545 -151C552 -166 559 -184 566 -208ZM946 62V43C840 32 781 9 709 -135L651 -247C657 -270 662 -297 665 -323C670 -364 675 -376 684 -385C688 -389 688 -392 684 -397L624 -464L613 -459C633 -413 628 -305 596 -185C579 -121 511 -13 390 82L400 97C542 -2 610 -91 643 -208L772 66Z"/>
</svg>