<svg xmlns="http://www.w3.org/2000/svg" viewBox="0 -1000 1000 1000">
	<path fill="#000000" d="M840 -772C845 -776 845 -780 839 -785L795 -824L759 -784L480 -756L443 -806L429 -800C438 -772 440 -747 441 -691L444 -539C445 -493 442 -480 431 -458L465 -399C474 -385 479 -385 482 -401C484 -412 485 -424 484 -447L808 -478C818 -479 819 -482 809 -491L782 -513L811 -712C814 -740 823 -760 840 -772ZM215 -452L112 -578L100 -569L178 -391C182 -382 185 -381 192 -390C201 -402 208 -422 215 -452ZM413 -561L386 -622L368 -616C369 -593 340 -515 287 -441C291 -487 293 -528 295 -579C298 -709 303 -742 312 -754C317 -761 316 -766 311 -770L242 -835L227 -825C249 -781 251 -727 252 -575C255 -262 183 -122 55 36L69 49C195 -82 233 -154 258 -263L357 -141C366 -129 369 -129 373 -142C379 -163 380 -181 379 -209L264 -289C271 -317 277 -354 281 -386C368 -504 388 -527 411 -543C418 -548 418 -551 413 -561ZM957 32V15C810 -4 769 -27 673 -168C747 -229 773 -246 794 -252C804 -254 806 -257 802 -268L783 -331L766 -330C759 -302 732 -265 656 -192L558 -334L927 -374C939 -375 940 -378 928 -386L882 -419C853 -403 774 -384 312 -348L362 -310C380 -315 401 -318 433 -322C438 -300 440 -282 440 -235V-64C440 2 437 11 397 46L444 72C450 75 453 75 458 68C482 33 513 -1 627 -111L617 -125L480 -22V-216C480 -251 482 -264 490 -273C495 -279 495 -282 489 -288L456 -324L518 -331L772 41ZM767 -747L740 -508L633 -497V-606L727 -617C737 -618 738 -621 728 -629L696 -655C680 -648 660 -642 633 -636V-734ZM592 -493L484 -482L480 -720L592 -731V-631L487 -619L520 -586C545 -593 571 -599 592 -601Z"/>
</svg>