<svg xmlns="http://www.w3.org/2000/svg" viewBox="0 -1000 1000 1000">
	<path fill="#000000" d="M823 -799L776 -837L764 -835C730 -806 587 -755 406 -713L409 -695C465 -704 502 -711 568 -726L607 -583C610 -570 616 -569 623 -579C637 -598 642 -612 649 -638L590 -731C671 -749 721 -762 742 -768C755 -772 800 -781 819 -783C830 -784 832 -791 823 -799ZM539 -602L462 -694L449 -687L501 -550C504 -541 509 -541 515 -549C527 -564 533 -577 539 -602ZM197 -439L97 -592L83 -584L161 -367C164 -358 171 -358 175 -366C183 -382 192 -407 197 -439ZM410 -597L380 -665L365 -662C366 -616 317 -522 270 -453C272 -493 274 -536 276 -583C279 -694 285 -729 297 -755C301 -763 300 -767 295 -772L239 -838L225 -830C234 -794 237 -742 237 -651C238 -269 186 -110 46 58L59 69C179 -54 228 -155 253 -301L370 -133C377 -123 383 -124 385 -133C389 -152 390 -171 389 -207L257 -325C261 -353 264 -381 266 -409C390 -571 397 -576 405 -581C413 -586 413 -591 410 -597ZM929 39V20C809 24 779 16 659 -111C689 -144 702 -167 731 -221C756 -267 764 -275 787 -289C797 -295 798 -301 790 -307L747 -343L717 -307L543 -282C557 -314 566 -339 575 -366L889 -401C901 -402 902 -408 892 -415L850 -447C830 -435 768 -424 586 -401C594 -428 600 -456 607 -491L836 -519C848 -520 848 -526 840 -533L799 -564C783 -552 730 -541 686 -535C768 -666 776 -676 796 -685C803 -688 804 -693 799 -702L764 -759L749 -756C737 -696 714 -641 654 -531L385 -499L432 -464C449 -470 483 -475 559 -485C554 -455 547 -425 539 -396L343 -374L393 -339C409 -344 471 -355 529 -362C483 -216 402 -85 269 42L279 53C380 -27 457 -119 509 -215C541 -196 553 -184 615 -110C540 -30 438 40 350 87L359 100C456 62 568 -12 636 -84L760 62ZM709 -272C689 -225 659 -170 635 -136C588 -188 583 -199 576 -221L517 -230C523 -240 527 -250 533 -260L553 -245C580 -254 626 -262 709 -272Z"/>
</svg>