<svg xmlns="http://www.w3.org/2000/svg" viewBox="0 -1000 1000 1000">
	<path fill="#000000" d="M205 -465L105 -588L92 -578L164 -393C168 -382 175 -381 182 -393C193 -412 201 -437 205 -465ZM424 -572L388 -635L375 -630C368 -583 337 -520 277 -439C280 -490 282 -548 282 -614C282 -721 289 -757 301 -772C305 -777 304 -781 298 -787L231 -846L220 -836C234 -809 240 -784 242 -677C245 -536 236 -383 229 -336C204 -171 159 -71 57 46L72 59C164 -25 234 -141 258 -277L379 -116C385 -108 391 -108 394 -117C398 -133 401 -169 398 -197L263 -308C267 -335 271 -365 274 -398C389 -532 398 -541 420 -558C425 -562 427 -566 424 -572ZM533 -374L436 -446L428 -431L505 -312C512 -302 516 -302 521 -311C527 -322 532 -345 533 -374ZM926 28C909 -22 899 -77 892 -158L872 -157L867 7C847 14 792 21 751 19C683 16 677 8 677 -33V-167C677 -185 682 -207 691 -220C694 -225 694 -230 689 -234L656 -268L892 -291C902 -292 903 -296 895 -303L855 -337C841 -329 790 -317 718 -308C785 -412 790 -417 799 -421C809 -425 810 -427 806 -434L772 -497L756 -491C750 -451 744 -428 689 -304C673 -301 658 -300 640 -298V-407C640 -426 642 -438 649 -452C652 -460 651 -464 644 -470L615 -497L803 -517C814 -518 816 -524 806 -532L772 -556L801 -699C804 -713 817 -735 832 -743C841 -748 841 -753 832 -761L785 -804L758 -766L481 -731L451 -801L437 -796C444 -765 450 -723 452 -694L459 -572C461 -541 456 -525 445 -505L482 -445C486 -439 490 -440 493 -448C495 -454 498 -471 498 -485L589 -495C597 -476 600 -454 600 -410V-295L357 -273L408 -237C417 -241 454 -247 535 -257C527 -140 454 -26 258 87L268 105C448 13 506 -40 563 -171C571 -190 579 -201 587 -205C593 -209 594 -214 589 -222L565 -260L633 -266C637 -246 640 -215 640 -198V-31C640 39 659 53 745 55C806 58 853 56 920 44C928 43 930 38 926 28ZM758 -728L734 -545L497 -518L493 -587L715 -617C724 -618 724 -622 718 -628L687 -660C667 -648 620 -637 491 -622L487 -696Z"/>
</svg>