<svg xmlns="http://www.w3.org/2000/svg" viewBox="0 -1000 1000 1000">
	<path fill="#000000" d="M913 -640L877 -670C856 -653 827 -646 731 -632C758 -756 761 -764 766 -769C775 -778 775 -783 766 -793L719 -849L709 -842C727 -752 695 -573 625 -429L641 -420C665 -458 708 -550 723 -599L909 -623C925 -625 925 -630 913 -640ZM682 -348L648 -373C634 -364 614 -360 543 -349V-468L630 -480C645 -482 646 -487 638 -496L619 -516L628 -563C635 -597 638 -603 646 -610C653 -616 653 -620 646 -626L611 -657L589 -628L544 -621V-718L662 -734C678 -736 679 -740 666 -750L634 -775C600 -759 509 -741 419 -731L385 -804L372 -799C385 -741 390 -692 390 -652V-372C390 -338 386 -333 359 -317L397 -283C404 -277 407 -277 412 -284C423 -300 430 -303 464 -307L677 -332C691 -333 693 -340 682 -348ZM189 -436L95 -560L83 -550L151 -372C155 -362 161 -362 166 -371C181 -397 185 -410 189 -436ZM857 -409L735 -530L722 -522L824 -356C832 -343 837 -344 843 -355C851 -370 855 -383 857 -409ZM384 -142L247 -279C253 -324 258 -362 261 -411C341 -518 366 -547 373 -550C382 -554 382 -558 378 -565L343 -628L330 -622C323 -574 303 -519 262 -454C264 -491 265 -535 265 -590C266 -714 274 -734 286 -748C291 -753 290 -757 284 -764L227 -827L210 -816C221 -788 225 -764 227 -653C229 -537 228 -423 219 -323C202 -152 150 -54 53 72L65 83C177 -34 223 -120 244 -249C287 -194 320 -141 356 -69C360 -61 366 -62 370 -70C379 -89 384 -114 384 -142ZM939 -14L902 -40C872 -30 845 -25 801 -20L813 -175C817 -222 823 -234 841 -246C849 -252 849 -257 840 -265L794 -302L771 -266L451 -227L423 -276L410 -270C420 -231 423 -205 424 -162L429 17L294 31L339 70C386 54 648 24 933 4C952 3 955 -3 939 -14ZM508 -617L427 -604V-701L508 -713ZM598 -595L590 -510L427 -484V-570ZM508 -345L427 -334V-451L508 -464ZM778 -232L767 -17L686 -9V-221ZM651 -6L574 3V-208L651 -217ZM540 6L463 14L459 -193L540 -204Z"/>
</svg>