<svg xmlns="http://www.w3.org/2000/svg" viewBox="0 -1000 1000 1000">
	<path fill="#000000" d="M933 -384L882 -423C852 -413 779 -395 663 -387V-555L861 -576C877 -577 879 -581 864 -592L820 -625C792 -610 725 -597 663 -591V-673C663 -733 669 -759 680 -780C684 -786 685 -790 678 -796L612 -858L600 -848C619 -808 623 -767 623 -691V-587L505 -575C514 -594 522 -614 530 -634C542 -666 552 -684 559 -691C565 -696 565 -701 560 -707L511 -768L499 -761C513 -706 487 -596 419 -454L434 -446C460 -486 474 -509 489 -537L623 -551V-385L364 -371L411 -327C460 -341 567 -348 928 -370C947 -371 947 -374 933 -384ZM430 -566L384 -598C371 -589 347 -580 309 -573V-653C309 -723 312 -759 325 -777C328 -782 327 -789 322 -793L259 -842L247 -831C262 -792 267 -727 267 -668V-567L185 -554C191 -570 195 -584 199 -600C204 -619 214 -638 227 -648C232 -652 233 -659 229 -664L177 -725L164 -718C178 -660 154 -542 80 -359L94 -350C127 -409 149 -457 172 -518L267 -531V-370L57 -264L120 -231C137 -250 176 -278 267 -334V-161C267 -86 259 -35 241 -7L279 82C286 96 289 96 294 84C303 62 309 7 309 -135V-361L410 -423L402 -438L309 -391V-536L426 -552C440 -553 440 -559 430 -566ZM824 -236C832 -241 832 -245 824 -252L775 -289L751 -248L509 -226L471 -275L458 -267C469 -240 478 -192 478 -144V-42C478 -10 476 0 465 13L497 84C504 98 507 97 511 82C514 68 515 55 516 31L799 14C811 13 814 9 805 0L779 -26L799 -182C801 -202 812 -229 824 -236ZM758 -211L744 -27L516 -8V-190Z"/>
</svg>