<svg xmlns="http://www.w3.org/2000/svg" viewBox="0 -1000 1000 1000">
	<path fill="#000000" d="M946 -10L898 -45C880 -35 840 -28 778 -23L792 -434C794 -486 796 -495 817 -509C826 -515 826 -519 818 -525L767 -564L743 -525L643 -511L649 -626L905 -654C917 -655 919 -662 906 -670L858 -701C823 -683 762 -672 651 -660C656 -755 659 -767 667 -776C675 -785 674 -792 668 -797L608 -852L596 -844C609 -804 614 -752 610 -656L385 -634L430 -595C461 -604 511 -612 609 -622L604 -505L523 -493L493 -567L478 -561C487 -519 490 -471 491 -401L494 -4L331 8L376 46C489 29 576 23 943 4C955 3 957 -2 946 -10ZM443 -399L435 -417L309 -350V-509L438 -525C453 -527 454 -531 443 -540L406 -569C384 -558 365 -553 309 -544V-689C309 -725 312 -752 326 -777C331 -785 330 -792 321 -800L262 -848L252 -840C268 -803 273 -771 273 -689V-539L179 -526C201 -601 204 -609 216 -621C224 -629 225 -634 220 -641L175 -707L162 -701C182 -633 125 -435 75 -349L92 -340C116 -379 148 -444 165 -490L273 -504V-330L57 -217L120 -192C134 -205 154 -219 273 -290V-61C273 -17 263 18 251 33L287 89C294 99 298 100 302 88C307 70 309 41 309 -28V-314ZM749 -490L740 -20L533 -6L532 -101L722 -128C736 -130 737 -135 724 -143L688 -166C659 -155 613 -144 531 -134L530 -224L717 -251C731 -253 732 -257 719 -266L687 -288C653 -277 620 -270 530 -259L527 -342L717 -370C732 -372 733 -376 719 -385L683 -408C664 -397 630 -389 527 -375L526 -459Z"/>
</svg>