<svg xmlns="http://www.w3.org/2000/svg" viewBox="0 -1000 1000 1000">
	<path fill="#000000" d="M431 -749L397 -825L379 -821C388 -805 369 -737 281 -631C250 -681 205 -718 154 -748L145 -734C197 -691 233 -648 256 -601C219 -556 169 -505 103 -449L115 -435C179 -482 225 -521 272 -568C281 -544 289 -518 295 -488C242 -376 160 -265 62 -167L74 -154C149 -216 227 -296 307 -412C315 -324 313 -222 302 -127C296 -78 290 -54 279 -32L181 -91L172 -79C208 -45 237 -12 278 45C283 53 289 54 294 46C313 21 336 -37 344 -113C365 -304 348 -489 299 -596C368 -684 395 -712 427 -732C433 -736 434 -741 431 -749ZM952 13C937 -56 926 -117 915 -191H898L892 -18C862 -6 764 -5 732 -14C696 -24 685 -55 685 -128V-346C685 -389 688 -408 701 -429C705 -436 705 -440 698 -447L663 -480L786 -508L837 -435C845 -424 849 -425 853 -435C858 -447 861 -475 859 -518L692 -666L681 -655L765 -534L497 -487L621 -708C636 -735 644 -748 660 -764C667 -770 667 -774 662 -782L611 -852L597 -848C604 -796 596 -763 527 -615C479 -511 459 -489 406 -467L441 -428C444 -424 449 -423 455 -426C466 -433 489 -441 526 -449C533 -418 531 -377 522 -332C497 -172 432 -41 311 73L323 85C457 -20 527 -136 570 -343C575 -365 582 -382 590 -394C594 -401 594 -407 589 -412L548 -454L636 -474C641 -448 643 -423 643 -386V-118C643 -18 659 17 723 33C772 45 894 42 945 28C952 26 954 22 952 13Z"/>
</svg>