<svg xmlns="http://www.w3.org/2000/svg" viewBox="0 -1000 1000 1000">
	<path fill="#000000" d="M476 -493L383 -607L365 -595L444 -426C450 -413 460 -415 464 -428C470 -446 474 -470 476 -493ZM930 5C915 -54 906 -105 897 -187H876L875 -15C852 -4 817 1 748 -5C687 -11 670 -35 670 -159V-372C721 -333 777 -276 815 -223C824 -211 832 -213 833 -227C835 -249 834 -272 827 -303L670 -402V-448C807 -564 824 -574 835 -577C846 -580 847 -585 842 -595L814 -657L799 -655C788 -614 757 -570 670 -481V-625C670 -726 673 -749 689 -771C695 -780 694 -784 687 -791L630 -850L618 -842C631 -811 633 -792 633 -650V-115C633 -14 668 26 741 32C796 37 884 32 923 22C932 20 933 16 930 5ZM376 -736L351 -799L333 -796C332 -764 303 -708 244 -641C208 -686 167 -726 130 -757L117 -739C160 -694 196 -652 222 -616C153 -543 102 -499 45 -453L55 -437C135 -493 191 -537 240 -585C255 -560 265 -536 275 -505C228 -413 134 -280 54 -206L65 -189C132 -245 234 -355 291 -442C301 -363 307 -205 292 -119C283 -69 271 -33 257 -12L139 -87L128 -74C192 -10 219 20 254 67C261 75 265 74 270 67C306 19 333 -79 336 -151C347 -401 333 -515 265 -612C347 -699 362 -712 369 -715C380 -720 381 -724 376 -736ZM577 -725C582 -734 581 -739 575 -746L522 -808L507 -800C520 -754 520 -738 521 -564C522 -463 521 -418 520 -389L343 -255L404 -237C422 -262 438 -282 519 -359C505 -163 456 -50 309 75L319 93C474 -25 530 -126 552 -299C558 -343 560 -409 562 -605C563 -681 569 -712 577 -725Z"/>
</svg>