<svg xmlns="http://www.w3.org/2000/svg" viewBox="0 -1000 1000 1000">
	<path fill="#000000" d="M812 -554C808 -580 802 -603 792 -627L666 -690C731 -748 740 -753 757 -758C764 -760 765 -765 763 -773L747 -846H732C727 -821 696 -773 630 -707L468 -789L459 -771C493 -753 542 -723 604 -684C538 -626 480 -587 391 -539L402 -523C506 -572 576 -614 637 -664C703 -622 743 -594 801 -549C809 -543 813 -546 812 -554ZM387 -754L353 -830L338 -826C334 -779 313 -733 258 -651C222 -694 181 -733 145 -757L133 -740C178 -700 211 -661 237 -621C189 -553 134 -491 81 -447L91 -432C153 -483 204 -530 256 -590C271 -563 281 -540 290 -513C227 -369 157 -278 58 -183L69 -169C167 -251 252 -347 305 -440C316 -362 318 -243 312 -161C306 -79 288 -26 271 -4L176 -88L162 -77C194 -40 235 22 263 74C269 85 275 83 283 74C320 27 347 -58 352 -147C365 -361 349 -525 282 -621C300 -645 316 -665 341 -699C355 -719 368 -728 381 -733C391 -737 392 -743 387 -754ZM915 -501L870 -535C829 -518 751 -503 590 -487C610 -529 622 -544 632 -550C637 -553 638 -556 634 -564L602 -625L589 -621C591 -600 582 -568 544 -483L352 -465L398 -429C419 -435 450 -440 527 -448C474 -347 436 -297 358 -212L368 -199C398 -224 433 -257 470 -299C473 -286 475 -267 475 -250V-157C475 -110 471 -96 458 -82L490 -24C495 -15 500 -16 502 -24C508 -45 510 -60 510 -105V-285L615 -296V-92C615 -21 606 29 593 45L631 104C637 113 642 113 645 102C651 78 653 68 653 -23V-300L780 -314C771 -200 762 -145 749 -104L674 -159L662 -146C701 -103 731 -65 752 -29C757 -20 762 -19 767 -28C793 -79 797 -101 815 -270C819 -308 828 -321 845 -328C851 -331 852 -337 845 -343L797 -386L770 -347L653 -334C654 -378 656 -392 663 -400C667 -405 667 -411 662 -416L619 -458L913 -488C924 -489 925 -494 915 -501ZM615 -330L500 -317L493 -327C520 -364 553 -414 572 -452L599 -456C609 -425 614 -382 615 -330Z"/>
</svg>