<svg xmlns="http://www.w3.org/2000/svg" viewBox="0 -1000 1000 1000">
	<path fill="#000000" d="M945 -83V-102C859 -104 826 -125 770 -217L704 -327C785 -395 795 -403 802 -406C812 -410 813 -414 809 -420L773 -474L760 -470C757 -434 722 -380 652 -315C639 -351 612 -394 587 -425C611 -450 631 -471 646 -490L901 -523C909 -524 910 -528 903 -534L865 -566C833 -553 780 -541 694 -529L730 -677C736 -702 743 -713 760 -723C769 -728 771 -734 763 -741L719 -778L691 -745L541 -721C553 -767 559 -782 570 -792C577 -798 577 -802 570 -808L519 -857L507 -853C516 -825 516 -790 506 -747L484 -655C473 -609 466 -599 445 -581L472 -547C476 -541 480 -542 486 -549C503 -573 512 -576 572 -585L671 -600L655 -525L344 -484L386 -450C415 -459 482 -470 585 -482C546 -428 451 -348 364 -290L371 -276C438 -309 525 -367 569 -408C576 -398 583 -386 589 -373C526 -291 463 -230 356 -156L363 -142C453 -190 515 -236 608 -333C614 -319 619 -305 623 -291C551 -188 435 -80 323 -12L330 3C429 -46 536 -122 634 -235C652 -107 637 -24 601 23L499 -54L489 -37C521 -3 557 44 588 93C593 102 597 104 605 95C680 12 702 -129 660 -289C668 -296 676 -303 684 -310L802 -72ZM389 -750L349 -818L335 -811C341 -776 321 -727 251 -633C209 -682 158 -725 125 -746L115 -730C168 -688 202 -647 229 -603C194 -559 141 -503 65 -435L76 -423C148 -481 200 -524 246 -573C257 -553 265 -534 274 -509C224 -400 156 -295 49 -188L58 -176C154 -254 214 -324 291 -449C320 -326 302 -58 257 2L149 -76L139 -63C183 -14 208 17 247 77C252 85 256 84 261 78C301 26 311 -1 328 -84C364 -271 335 -509 273 -602C296 -631 313 -653 346 -697C362 -719 371 -728 386 -737C392 -741 392 -745 389 -750ZM697 -712L680 -634L512 -610L533 -688Z"/>
</svg>