<svg xmlns="http://www.w3.org/2000/svg" viewBox="0 -1000 1000 1000">
	<path fill="#000000" d="M867 -710L827 -739C819 -733 800 -726 767 -721C770 -733 772 -752 772 -774L678 -826L667 -815L747 -717C714 -711 670 -705 611 -699C612 -749 616 -767 626 -779C629 -783 629 -787 624 -792L567 -847L556 -838C570 -800 576 -770 576 -696L328 -671L385 -637C406 -643 463 -652 576 -664V-604L452 -589L422 -630L411 -625C416 -597 417 -586 419 -530L424 -398C426 -331 424 -321 413 -306L444 -247C448 -239 455 -239 457 -250C460 -265 461 -293 458 -367L576 -382C575 -342 572 -330 564 -319L593 -259C598 -249 603 -249 606 -261C610 -277 611 -292 611 -386L735 -401C746 -402 748 -407 737 -415L703 -439C689 -431 668 -425 611 -418V-481L722 -494C735 -496 736 -501 725 -508L690 -530C677 -523 664 -520 611 -513V-576L754 -594L750 -444C748 -354 745 -346 733 -335L761 -277C766 -266 773 -266 777 -277C780 -287 786 -342 787 -399L791 -562C792 -594 796 -605 806 -613C813 -618 812 -622 807 -626L765 -657L746 -626L611 -608V-668L864 -696C877 -697 878 -702 867 -710ZM366 -738L338 -809L327 -805C328 -770 297 -707 244 -626C214 -658 169 -699 115 -733L101 -715C151 -681 191 -643 223 -595C194 -556 133 -482 79 -433L91 -420C133 -451 189 -505 242 -566C254 -542 263 -519 272 -490C221 -371 144 -245 64 -162L76 -148C144 -204 234 -328 287 -420C301 -329 307 -202 295 -122C286 -63 278 -42 260 -13L153 -98L141 -84C200 -16 223 13 253 63C258 72 263 73 269 65C304 23 326 -30 335 -108C352 -257 338 -484 266 -596C286 -622 303 -646 322 -674C347 -710 353 -718 360 -722C368 -727 369 -731 366 -738ZM917 -227L870 -257C849 -245 823 -240 725 -231C726 -256 728 -265 733 -272C738 -279 737 -282 729 -288L677 -327L665 -315C677 -295 684 -270 686 -228L357 -198L413 -162C425 -165 439 -168 458 -171L521 -39C526 -29 531 -29 535 -38C544 -58 550 -83 553 -105L478 -174C520 -179 583 -185 687 -193V-74C687 -10 686 4 680 24L578 -34L567 -20C623 28 667 74 688 100C698 112 701 112 707 100C720 72 725 45 725 -45V-196L913 -213C924 -214 927 -220 917 -227ZM576 -508L454 -493L452 -557L576 -572ZM576 -415L457 -400L455 -462L576 -477Z"/>
</svg>