<svg xmlns="http://www.w3.org/2000/svg" viewBox="0 -1000 1000 1000">
	<path fill="#000000" d="M857 -757C867 -765 866 -771 857 -779L820 -812L786 -775L205 -739L179 -811L160 -805C168 -766 171 -717 171 -659L176 -98C177 -33 172 -5 159 18L194 91C202 107 208 107 213 87C216 75 218 60 217 21L754 -4L780 55C789 76 794 76 800 54C805 40 809 -2 812 -82L836 -709C837 -730 842 -745 857 -757ZM636 -547L617 -431L507 -417V-464L586 -475C604 -478 605 -484 591 -494L567 -512C551 -502 532 -497 507 -492V-532ZM472 -414L368 -400L363 -516L472 -529V-488L375 -476L416 -446C426 -449 450 -456 472 -460ZM794 -742L771 -106C770 -77 765 -52 758 -30L736 -53C703 -35 591 -24 217 -10L209 -702L458 -720C467 -699 471 -674 472 -637L245 -616L292 -582C314 -589 375 -598 472 -609V-561L355 -546L334 -583L318 -576C324 -562 329 -529 329 -510L331 -448C332 -421 329 -404 323 -393L348 -350C356 -337 362 -340 366 -353C367 -359 369 -365 369 -372L472 -383V-339L282 -313L333 -274C362 -286 471 -311 565 -326C571 -313 572 -297 572 -262L237 -230L286 -197C300 -202 336 -208 361 -211L404 -111C409 -101 414 -101 422 -111C429 -119 434 -137 439 -156L384 -213L572 -232V-168C572 -131 570 -118 566 -107L478 -151L470 -138C510 -107 547 -75 577 -43C586 -32 591 -33 596 -45C607 -76 609 -103 609 -147V-235L745 -249C763 -251 765 -256 749 -270L726 -289C705 -281 657 -271 609 -265C610 -274 612 -281 617 -288C622 -296 622 -299 614 -307L590 -331L641 -340L662 -312C671 -300 678 -300 682 -314C685 -325 685 -338 684 -350L619 -399L663 -404C683 -406 685 -410 668 -425L654 -437L671 -525C674 -543 679 -552 687 -559C698 -568 697 -573 687 -580L650 -605L629 -578L507 -564V-612L715 -631C736 -632 738 -638 719 -653L695 -672C663 -658 619 -651 508 -640C511 -652 514 -660 518 -666C524 -675 523 -679 515 -688L485 -721ZM623 -361L507 -343V-386L599 -396Z"/>
</svg>