<svg xmlns="http://www.w3.org/2000/svg" viewBox="0 -1000 1000 1000">
	<path fill="#000000" d="M939 40V24C774 19 725 -15 638 -109L561 -192L900 -220C915 -221 916 -224 904 -234L858 -269C820 -253 764 -242 705 -236C709 -250 711 -269 710 -295L647 -358C670 -380 686 -398 708 -430C754 -389 774 -368 826 -306C836 -294 842 -296 844 -306C848 -329 848 -347 845 -374C801 -404 766 -429 724 -459C735 -478 741 -489 749 -504C762 -532 769 -544 775 -549C782 -554 783 -561 776 -571L753 -606L876 -622C890 -623 891 -627 879 -636L842 -664C809 -648 759 -640 624 -624C637 -650 648 -675 666 -724C684 -769 689 -778 698 -784C703 -788 703 -793 697 -800L646 -858L631 -851C638 -829 634 -773 620 -717C606 -658 585 -603 553 -552L513 -578C497 -571 435 -558 379 -551V-599L512 -616C523 -618 523 -622 515 -627L479 -654C460 -647 411 -635 379 -630V-680L543 -698C553 -699 553 -704 546 -710L507 -740C493 -731 441 -717 379 -708C379 -769 381 -786 391 -799C395 -805 393 -813 387 -817L330 -859L319 -851C338 -815 340 -783 340 -704L147 -684L191 -652C213 -660 269 -669 340 -676V-625L179 -606L221 -574C237 -580 268 -587 340 -595V-548L84 -521L135 -484C152 -491 201 -500 313 -513C299 -452 218 -323 111 -245L120 -232C206 -288 258 -339 311 -422L435 -438C425 -390 410 -349 391 -318L321 -374L309 -362C335 -330 351 -308 384 -257C388 -251 393 -250 402 -261C435 -304 462 -369 473 -426C476 -438 486 -449 499 -455C505 -458 506 -463 500 -468L465 -501L439 -474L335 -458C348 -480 353 -487 356 -489C366 -496 365 -501 359 -507L348 -517L545 -539C536 -525 527 -512 516 -499L531 -489C564 -527 573 -538 606 -588L731 -604C726 -567 714 -524 693 -480C665 -500 632 -523 593 -549L583 -532C616 -507 650 -480 679 -455C646 -399 598 -343 533 -297C537 -307 542 -316 544 -318C548 -322 548 -327 544 -331L493 -382L480 -376C490 -344 491 -271 475 -218L120 -189L165 -154C197 -161 278 -171 462 -185C424 -90 347 -20 145 55L154 74C353 12 465 -66 510 -188L531 -190L722 59ZM689 -235L519 -222C522 -240 523 -251 525 -265C568 -290 602 -315 632 -342Z"/>
</svg>