<svg xmlns="http://www.w3.org/2000/svg" viewBox="0 -1000 1000 1000">
	<path fill="#000000" d="M905 -584C903 -604 900 -620 894 -644L733 -715L729 -699C816 -643 838 -626 893 -578C901 -571 906 -574 905 -584ZM809 -361C810 -370 810 -380 809 -393L773 -422C798 -464 802 -470 805 -473C810 -478 810 -481 805 -487L780 -515L770 -510C773 -497 767 -473 753 -440L701 -482L692 -475C709 -457 726 -437 742 -416C726 -385 712 -361 694 -331L704 -324C722 -346 741 -370 758 -397C771 -384 783 -371 793 -358C801 -347 808 -348 809 -361ZM651 -366C652 -375 652 -382 651 -396L618 -422C630 -443 638 -456 645 -464C651 -471 651 -475 646 -481L622 -513L612 -509C612 -488 607 -465 596 -437L546 -472L542 -462C561 -443 572 -432 586 -415C571 -383 561 -365 542 -333L552 -324C573 -349 587 -370 603 -396C615 -385 626 -374 637 -362C645 -353 650 -354 651 -366ZM349 -780L309 -832L298 -828C307 -796 272 -717 229 -646C202 -695 174 -723 128 -757L118 -742C156 -704 183 -668 206 -614C171 -558 137 -517 99 -473L110 -462C148 -497 187 -536 221 -581C231 -554 237 -532 244 -491C213 -414 146 -304 69 -222L79 -211C145 -270 204 -340 254 -422C265 -310 260 -190 248 -126C234 -55 229 -37 223 -26L138 -98L129 -85C179 -22 199 9 221 51C225 59 232 60 237 52C256 21 275 -40 286 -121C311 -297 291 -505 246 -614C322 -734 335 -752 346 -762C354 -769 354 -774 349 -780ZM918 -780L872 -807C836 -788 813 -785 494 -751L531 -718C553 -725 584 -730 654 -738V-561L531 -544L518 -566C578 -635 591 -649 604 -658C613 -664 613 -669 607 -676L576 -715L567 -710C566 -681 554 -644 478 -549L459 -567L476 -695C479 -719 482 -724 489 -730C496 -736 497 -741 488 -749L456 -776L430 -742L324 -726L356 -696C368 -703 383 -708 442 -716L429 -565L370 -554L351 -595L338 -589C342 -577 345 -552 344 -536L337 -440C335 -414 329 -402 312 -389L338 -359C344 -352 349 -353 353 -360C359 -372 367 -377 382 -379L419 -383C402 -149 394 -93 381 -54L316 -116L308 -107C337 -60 358 -22 378 22C382 30 388 31 392 24C416 -13 432 -73 452 -360C453 -378 457 -387 468 -397C477 -406 477 -411 467 -418L431 -442L410 -412L366 -406L377 -525L467 -536C466 -535 465 -533 464 -531L473 -523C482 -530 492 -539 503 -550C504 -538 505 -521 505 -499V-123C505 -41 501 -23 485 -3L516 55C524 70 531 69 534 55C537 42 539 14 539 -89V-516L654 -529V-134C654 -86 650 -71 637 -55L664 3C670 15 676 15 680 2C686 -15 688 -33 688 -101V-533L821 -548V-121C821 -42 820 -23 817 -15L725 -81L716 -68C762 -17 796 24 819 61C826 72 833 72 838 61C854 26 856 11 856 -77V-510C856 -542 859 -550 869 -560C876 -567 876 -571 869 -576L830 -604L813 -581L688 -565V-741L914 -765C930 -767 931 -772 918 -780ZM812 -210L772 -247C797 -288 801 -294 808 -299C816 -305 816 -309 809 -317L786 -344L775 -338C775 -323 770 -301 754 -266L705 -312L697 -302C714 -281 728 -262 741 -242C718 -202 712 -193 691 -160L700 -148C728 -181 739 -195 757 -222C771 -204 784 -186 796 -170C802 -162 808 -164 810 -173C813 -185 813 -196 812 -210ZM646 -180C646 -191 646 -199 645 -215L615 -243C635 -290 642 -301 646 -306C651 -313 652 -316 646 -323L623 -349L612 -345C616 -327 613 -307 597 -261L550 -306L543 -295C561 -272 573 -257 586 -235C571 -201 560 -177 542 -143L552 -134C574 -167 587 -187 601 -214C612 -202 622 -191 632 -177C638 -169 646 -171 646 -180Z"/>
</svg>