<svg xmlns="http://www.w3.org/2000/svg" viewBox="0 -1000 1000 1000">
	<path fill="#000000" d="M321 -713L215 -812L200 -802L285 -645C291 -632 301 -632 305 -643C311 -658 318 -690 321 -713ZM853 -660L814 -687C788 -672 708 -657 554 -638C561 -653 564 -661 573 -683C594 -735 603 -750 611 -756C617 -760 617 -765 612 -773L568 -839L554 -833C572 -791 515 -599 410 -435L425 -426C457 -468 502 -536 538 -602L850 -642C865 -644 867 -650 853 -660ZM471 -599L431 -627C388 -608 308 -592 45 -567L101 -532C123 -538 159 -544 237 -555C234 -514 222 -480 185 -401C160 -348 156 -345 113 -332L142 -292C148 -284 152 -284 164 -292C175 -300 217 -313 294 -329C266 -279 234 -226 188 -163C142 -100 135 -95 95 -84L128 -39C134 -31 139 -31 150 -39C172 -55 234 -78 391 -121C399 -100 406 -79 413 -57C417 -45 424 -46 430 -56C438 -70 446 -94 452 -122L349 -259L333 -248C351 -215 367 -180 382 -144L189 -99L350 -354C389 -415 394 -422 401 -427C407 -431 407 -437 404 -444L375 -517L361 -513C361 -479 347 -431 310 -360L184 -340L239 -436C267 -485 276 -496 284 -502C290 -507 291 -512 287 -518L263 -558L469 -586C479 -587 481 -592 471 -599ZM950 7V-12C800 -18 785 -32 686 -261C762 -333 782 -349 795 -354C807 -358 807 -362 805 -371L789 -438L773 -437C770 -404 724 -336 675 -285L606 -446C745 -512 780 -527 808 -536C820 -540 821 -547 810 -555L766 -587L754 -583C760 -562 712 -531 533 -439L498 -510L484 -504C491 -481 496 -441 496 -411V-43C496 17 492 30 465 56L503 86C511 92 516 91 523 81C538 57 593 -8 679 -101L668 -114L536 6V-412C550 -418 563 -424 579 -432L758 18Z"/>
</svg>