<svg xmlns="http://www.w3.org/2000/svg" viewBox="0 -1000 1000 1000">
	<path fill="#000000" d="M429 -270L422 -286L285 -231V-425L403 -446C413 -448 414 -451 405 -458L369 -487C358 -480 328 -470 285 -463V-644L409 -661C419 -662 420 -666 412 -673L376 -704C342 -688 237 -668 80 -647L129 -610C145 -617 197 -631 243 -639V-455L108 -432L145 -395C159 -402 180 -408 243 -419V-215L56 -140L126 -106C198 -149 253 -179 429 -270ZM917 -440L870 -479C840 -464 788 -452 651 -438V-698L839 -722C851 -724 851 -728 841 -735L793 -772C757 -751 677 -734 407 -706L466 -665C489 -672 539 -683 606 -693V-434L362 -408L417 -363C453 -374 523 -386 606 -394V-138C606 -23 602 0 585 29L620 101C625 111 633 111 637 101C647 78 651 45 651 -76V-397L915 -426C926 -427 926 -432 917 -440Z"/>
</svg>