<svg xmlns="http://www.w3.org/2000/svg" viewBox="0 -1000 1000 1000">
	<path fill="#000000" d="M575 -723L457 -817L444 -804L545 -649C552 -639 558 -639 562 -649C568 -665 572 -691 575 -723ZM413 -656L377 -690C352 -676 246 -656 72 -642L119 -603C135 -611 174 -618 236 -626V-453L96 -434L131 -399C147 -406 165 -410 236 -419V-211L61 -142L124 -114C154 -134 192 -154 407 -254L399 -274L276 -226V-425L397 -444C406 -445 406 -450 400 -454L366 -481C353 -473 325 -466 276 -459V-630L410 -646C419 -647 419 -650 413 -656ZM889 -368C897 -372 897 -377 889 -383L840 -421L814 -380L639 -355V-450L826 -473C837 -474 838 -481 828 -488L800 -509L812 -585C816 -609 825 -621 839 -629C849 -635 848 -639 841 -645L797 -681L770 -644L671 -632C740 -756 747 -765 760 -771C767 -774 768 -780 764 -786L721 -857L706 -851C710 -823 696 -759 637 -629L349 -596L402 -559C423 -568 445 -574 599 -592V-482L473 -466L449 -522L435 -516C439 -494 440 -469 437 -447L426 -369C420 -329 418 -329 385 -304L431 -271C439 -265 444 -266 448 -276C453 -288 468 -300 495 -303L569 -312C500 -191 423 -109 250 21L260 38C415 -65 526 -162 599 -272V-88C599 -33 593 7 577 33L610 101C614 110 619 111 624 102C636 82 639 60 639 -30V-321L822 -344C805 -222 793 -183 773 -141L676 -200L666 -186C714 -141 742 -109 769 -72C776 -64 783 -64 788 -71C814 -109 826 -141 859 -316C865 -347 873 -360 889 -368ZM775 -612L760 -501L639 -486V-596ZM599 -350L456 -330L471 -431L599 -446Z"/>
</svg>