<svg xmlns="http://www.w3.org/2000/svg" viewBox="0 -1000 1000 1000">
	<path fill="#000000" d="M810 -743L763 -781L740 -743L515 -715L473 -785L456 -779C470 -734 476 -691 477 -661L481 -559C482 -530 477 -514 467 -500L503 -427C507 -418 514 -420 516 -429C520 -445 521 -454 520 -488L788 -515C799 -516 800 -519 793 -527L763 -560L782 -671C790 -711 796 -720 809 -728C817 -733 817 -737 810 -743ZM421 -255L414 -280L270 -227V-440L402 -460C413 -462 413 -466 404 -472L362 -500C348 -491 329 -486 270 -477V-657L411 -677C422 -679 422 -683 414 -688L362 -723C330 -703 287 -690 53 -665L119 -628C140 -636 167 -642 230 -652V-472L85 -453L134 -415C149 -421 181 -428 230 -435V-213L44 -144L113 -108C151 -134 226 -170 421 -255ZM932 -32L868 -73C846 -58 805 -50 650 -41V-194L845 -211C856 -212 858 -218 849 -223L793 -256C775 -246 734 -238 650 -231V-363L865 -380C878 -381 878 -386 868 -392L807 -429C780 -410 704 -394 381 -380L431 -337C458 -345 485 -349 608 -360V-227L401 -213L447 -174C472 -180 488 -182 608 -191V-39L309 -23L364 22C425 10 607 -7 929 -19C943 -20 944 -24 932 -32ZM745 -707L725 -549L519 -526L516 -680Z"/>
</svg>