<svg xmlns="http://www.w3.org/2000/svg" viewBox="0 -1000 1000 1000">
	<path fill="#000000" d="M836 -746L797 -779C759 -759 670 -742 433 -717L479 -678C521 -690 629 -706 831 -730C845 -731 847 -736 836 -746ZM400 -517L445 -479C479 -486 518 -492 555 -497L525 -371C517 -336 512 -328 485 -314L524 -272C529 -266 536 -266 539 -273C544 -286 554 -297 584 -302L776 -327C765 -239 719 -41 682 9L562 -103L549 -90C604 -24 657 55 679 92C683 98 687 99 691 92C737 13 763 -56 809 -267C821 -322 834 -344 844 -347C852 -350 854 -356 845 -364L796 -402L769 -363L555 -331L603 -502L928 -538C941 -539 941 -546 931 -555L893 -589C855 -567 739 -553 419 -521C424 -524 423 -528 416 -534L383 -562C370 -554 340 -544 305 -537V-681C305 -719 311 -779 320 -790C326 -797 326 -800 318 -805L244 -865L232 -852C252 -825 264 -766 264 -682V-530L82 -501L133 -465C153 -473 178 -479 264 -494V-241L53 -149L127 -113C144 -132 196 -166 428 -291L419 -308L305 -259V-501Z"/>
</svg>