<svg xmlns="http://www.w3.org/2000/svg" viewBox="0 -1000 1000 1000">
	<path fill="#000000" d="M405 -680L365 -709C338 -695 260 -680 66 -658L114 -624C137 -632 170 -639 220 -645V-452L84 -432L135 -396C155 -407 176 -412 220 -421V-199L37 -139L102 -105C128 -121 160 -136 399 -241L393 -256L258 -212V-426L377 -444C387 -446 387 -450 379 -456L343 -485C324 -471 304 -465 258 -457V-649L401 -668C412 -669 413 -674 405 -680ZM946 -67V-87C846 -91 819 -108 756 -214L702 -305C714 -315 724 -324 744 -343C770 -368 785 -377 794 -379C803 -381 805 -387 802 -394L777 -457L762 -454C756 -413 714 -349 651 -297C639 -329 610 -373 581 -405C612 -428 619 -431 631 -435C641 -438 643 -443 642 -449L634 -483L884 -518C898 -520 898 -525 887 -532L842 -563C805 -543 766 -534 685 -522L724 -663C732 -692 740 -706 756 -717C766 -724 766 -729 759 -735L714 -773L685 -739L536 -716C553 -755 562 -769 569 -773C576 -778 576 -783 570 -791L527 -848L512 -842C520 -819 519 -784 498 -725L467 -640C452 -599 444 -591 422 -576L458 -542C463 -537 468 -537 472 -543C483 -560 487 -563 533 -570L663 -590L644 -517L373 -479L422 -443C466 -457 513 -466 595 -477C565 -435 471 -349 350 -282L358 -265C445 -309 506 -346 559 -387C567 -378 573 -371 580 -361C536 -296 470 -232 369 -158L381 -142C470 -202 536 -255 603 -324C611 -309 617 -293 620 -278C550 -177 482 -105 353 -16L361 0C465 -61 517 -100 628 -219C638 -115 623 -25 592 21L503 -41L490 -29C525 8 545 30 588 94C595 104 600 105 608 96C659 33 684 -94 658 -269C665 -274 671 -278 680 -285L802 -58ZM693 -705L671 -623L492 -597L522 -680Z"/>
</svg>