<svg xmlns="http://www.w3.org/2000/svg" viewBox="0 -1000 1000 1000">
	<path fill="#000000" d="M412 -674L358 -708C327 -686 307 -679 74 -648L141 -611C165 -620 181 -624 241 -636V-449L98 -423L150 -389C177 -400 206 -409 241 -414V-202L52 -140L130 -106C164 -131 181 -140 407 -239L398 -253L280 -215V-421L389 -441C398 -443 399 -447 391 -453L355 -481C334 -469 315 -463 280 -457V-641L411 -661C422 -663 423 -667 412 -674ZM951 -457V-477C852 -486 815 -513 621 -766C627 -778 632 -783 639 -786C646 -789 647 -793 641 -802L600 -865L585 -860C591 -769 474 -496 317 -347L330 -335C382 -379 430 -430 474 -492C475 -430 467 -358 444 -263C419 -158 354 -39 262 52L275 65C367 -12 441 -114 481 -252L750 -282C764 -284 765 -288 755 -296L727 -318L750 -466C752 -481 758 -489 769 -495C776 -499 776 -504 769 -511L730 -551L707 -522L630 -512C639 -526 647 -544 650 -560L589 -637L573 -628L611 -510L513 -496L497 -527C534 -586 570 -654 606 -735L824 -448ZM797 -203L755 -236L730 -199L532 -176L505 -243L488 -237C493 -213 495 -194 497 -151L502 -30C504 13 499 28 487 42L517 100C525 116 533 114 536 101C539 90 540 59 539 26L784 8C800 7 802 2 790 -8L756 -37L770 -130C775 -161 781 -174 796 -183C806 -189 807 -196 797 -203ZM711 -491L688 -312L490 -285C495 -309 500 -335 504 -363L683 -386C696 -388 696 -393 687 -399L648 -425C632 -415 586 -403 508 -395C512 -419 514 -440 515 -467ZM734 -165L716 -23L538 -8L533 -140Z"/>
</svg>