<svg xmlns="http://www.w3.org/2000/svg" viewBox="0 -1000 1000 1000">
	<path fill="#000000" d="M405 -230L399 -249L279 -217V-417L386 -434C395 -435 396 -440 388 -446L353 -475C333 -462 314 -457 279 -451V-647L396 -664C407 -666 408 -669 399 -676L361 -706C335 -691 282 -678 93 -656L141 -621C162 -629 193 -636 239 -642V-446L105 -427L156 -391C170 -397 193 -404 239 -412V-207L60 -158L126 -121C152 -138 196 -158 405 -230ZM908 -686L873 -714C844 -702 793 -690 719 -682C725 -738 733 -772 743 -785C749 -793 748 -799 743 -803L686 -859L676 -851C688 -810 689 -753 684 -680L558 -665C556 -733 558 -758 565 -769C568 -774 568 -778 561 -785L510 -833L498 -825C512 -790 518 -757 521 -720L525 -661L359 -642L404 -608C429 -616 461 -623 526 -631L529 -583C532 -542 529 -525 518 -511L551 -458C557 -449 563 -450 565 -461C567 -472 567 -482 566 -509L603 -513V-427L459 -409L422 -482L405 -477C414 -438 417 -409 417 -368L420 -82C423 -27 418 -2 406 16L443 71C451 82 456 82 458 68C460 52 460 29 458 -37L456 -111C493 -151 521 -189 543 -224L573 -168C579 -156 585 -157 589 -168C594 -183 596 -203 595 -229L501 -335L488 -325L521 -263C508 -227 489 -190 457 -146L456 -377L603 -393V-142C603 -65 601 -52 589 -31L620 23C627 34 633 33 635 24C638 12 640 -15 640 -102V-130C678 -175 707 -212 724 -242L765 -168C771 -157 776 -157 780 -169C785 -183 789 -204 791 -229L682 -357L669 -346L703 -284C687 -244 663 -199 640 -163V-396L811 -416C809 -320 802 -183 796 -128C785 -30 779 -9 771 5L700 -58L686 -44C716 -5 737 27 770 83C775 91 781 91 786 83C819 33 830 -7 850 -372C852 -405 857 -415 875 -427C884 -433 884 -438 876 -445L831 -484L806 -451L640 -431V-518L729 -529C740 -530 743 -534 732 -544L710 -564L716 -651L906 -671C918 -672 919 -677 908 -686ZM681 -647L674 -556L564 -541L560 -635Z"/>
</svg>