<svg xmlns="http://www.w3.org/2000/svg" viewBox="0 -1000 1000 1000">
	<path fill="#000000" d="M906 17V1C740 0 681 -24 563 -160C608 -209 638 -254 656 -309C716 -260 777 -195 818 -142C825 -132 830 -134 833 -146C838 -168 837 -193 831 -217L664 -332C669 -351 673 -372 676 -393L867 -424C883 -427 883 -432 871 -440L827 -471C796 -455 739 -439 680 -429C685 -464 687 -499 688 -541L821 -563C836 -565 836 -570 825 -578L786 -607C761 -594 726 -583 688 -576C691 -720 695 -743 705 -754C711 -761 711 -766 704 -771L646 -817L634 -804C651 -774 656 -739 649 -569L542 -550C550 -569 557 -588 563 -603C573 -630 578 -637 586 -641C595 -645 596 -652 588 -662L545 -710L532 -704C536 -651 518 -560 465 -442L478 -434C498 -463 517 -497 533 -531L565 -514C583 -521 615 -529 648 -535C646 -491 644 -454 641 -423L453 -393L498 -358C541 -371 569 -377 637 -388C624 -300 602 -251 549 -178C499 -240 466 -307 439 -409C400 -549 391 -606 401 -628C404 -635 403 -639 396 -644L363 -668C393 -682 417 -691 430 -693C444 -694 445 -698 441 -706L409 -762L399 -760C382 -723 327 -679 223 -624L191 -699L175 -695C180 -669 185 -577 185 -523C185 -213 170 -137 63 60L78 69C198 -104 225 -209 226 -598C241 -605 258 -612 277 -621C281 -606 284 -578 284 -538V-110C284 -80 283 -76 244 -50L284 -18C290 -13 295 -15 299 -21C306 -33 335 -58 414 -116L437 -62C441 -52 447 -54 453 -64C460 -75 466 -96 469 -119L379 -241L366 -233L404 -139L323 -90V-525C323 -544 329 -564 338 -576C343 -583 342 -589 336 -594L294 -629C310 -638 328 -647 347 -659C355 -640 364 -607 390 -476C433 -257 518 -123 716 47Z"/>
</svg>