<svg xmlns="http://www.w3.org/2000/svg" viewBox="0 -1000 1000 1000">
	<path fill="#000000" d="M572 -418L537 -446C521 -438 501 -432 451 -425C464 -478 466 -486 474 -495C482 -504 482 -507 477 -512L439 -554L530 -566C542 -568 543 -572 533 -581L501 -610C483 -599 442 -590 341 -576V-695C354 -700 366 -705 381 -712C439 -736 462 -743 486 -747C494 -748 494 -752 488 -758L440 -806L430 -803C425 -777 359 -736 123 -642L131 -627C209 -650 258 -665 304 -681V-572L87 -543L121 -510C133 -515 148 -519 178 -523C188 -495 193 -466 195 -435L198 -396L51 -379L84 -345C102 -351 133 -356 201 -364C204 -330 201 -309 193 -296L228 -242C233 -234 238 -236 239 -244C241 -258 241 -269 239 -298L234 -367L304 -375V-235L109 -211L144 -175C173 -184 222 -193 304 -205V-85L96 -28L160 11C191 -12 284 -53 526 -123L522 -142L341 -95V-209L517 -229C531 -231 532 -235 522 -244L490 -272C473 -262 429 -251 341 -239V-378L409 -386L385 -260L407 -255L443 -389L567 -404C580 -406 581 -411 572 -418ZM952 37C934 -46 924 -123 918 -208L899 -207L896 0C867 17 833 16 803 -1C760 -25 752 -53 765 -197L786 -432C789 -469 798 -483 819 -494C827 -498 828 -503 820 -510L773 -554L749 -523L638 -503L662 -669L897 -696C907 -697 908 -702 899 -710L861 -741C823 -722 737 -707 468 -685L514 -646C530 -651 569 -659 622 -665L542 -94C533 -31 523 -20 485 -2L527 47C534 55 540 53 545 45C559 23 586 0 715 -87L707 -102L572 -29L617 -351L694 -229C700 -220 704 -219 709 -228C715 -239 719 -255 722 -286L620 -376L634 -468L750 -488L724 -143C717 -46 731 3 776 34C805 54 866 62 943 50C952 49 954 45 952 37ZM416 -552C427 -517 425 -473 415 -421L341 -412V-542ZM304 -409L231 -399C228 -449 230 -460 236 -472C239 -478 238 -482 233 -488L199 -525L304 -538Z"/>
</svg>