<svg xmlns="http://www.w3.org/2000/svg" viewBox="0 -1000 1000 1000">
	<path fill="#000000" d="M571 -621L485 -720L476 -707L539 -560C542 -552 548 -551 552 -560C560 -578 567 -602 571 -621ZM488 -643L454 -674C443 -666 407 -655 357 -648V-739C450 -774 461 -778 468 -779C476 -780 479 -787 472 -793L427 -831L414 -827C410 -803 388 -787 170 -702L175 -685C208 -692 259 -706 318 -726V-644L111 -620L156 -583C175 -590 228 -600 292 -608C253 -536 172 -450 93 -389L103 -371C182 -424 257 -490 318 -574V-548C318 -463 313 -440 300 -419L335 -363C341 -354 347 -355 349 -364C356 -396 357 -418 357 -516V-572L455 -489C463 -483 467 -484 468 -493C471 -516 469 -537 464 -553L357 -600V-615L483 -630C495 -631 495 -636 488 -643ZM934 -427C839 -428 804 -444 740 -511L688 -566C780 -674 790 -681 805 -689C811 -692 812 -696 808 -702L771 -772L757 -766C759 -729 753 -698 670 -586L642 -618C647 -640 651 -662 655 -693C665 -770 669 -785 675 -791C681 -798 681 -803 674 -809L614 -862L601 -852C618 -816 621 -721 601 -625C579 -523 534 -448 414 -368L418 -359L147 -330L198 -291C211 -297 288 -312 347 -318L275 -42C268 -15 258 -6 220 8L259 60C264 67 272 66 277 59C295 35 350 8 548 -65L544 -86L307 -13L356 -198L569 -227V-45C569 11 587 48 653 70C707 87 787 85 857 59C866 56 867 51 864 42C847 -5 839 -52 826 -158H808V24C780 38 717 44 673 35C621 24 607 -5 607 -54V-188C607 -219 613 -232 635 -249C641 -254 641 -258 635 -263L590 -299L561 -261L365 -233L388 -322L759 -361C771 -362 772 -366 762 -374L720 -408C670 -388 642 -382 452 -363C543 -422 605 -490 635 -582L788 -388L934 -405ZM504 -87C504 -101 502 -122 498 -142L376 -180L369 -167L492 -83C500 -78 504 -80 504 -87Z"/>
</svg>