<svg xmlns="http://www.w3.org/2000/svg" viewBox="0 -1000 1000 1000">
	<path fill="#000000" d="M874 -573L824 -620L791 -580L528 -527C550 -583 564 -624 582 -689C595 -738 607 -766 616 -776C622 -782 622 -786 615 -793L547 -859L537 -852C561 -796 532 -573 417 -329L432 -322C464 -371 495 -436 520 -502L543 -485C575 -499 664 -519 790 -540L734 -404L750 -397C816 -514 841 -538 872 -558C881 -564 881 -567 874 -573ZM449 -265L442 -279L308 -222V-480L442 -501C448 -502 451 -505 443 -513L410 -545C393 -535 348 -522 308 -514V-665C308 -723 312 -752 325 -785C328 -792 327 -795 321 -800L248 -855L239 -846C257 -804 266 -749 266 -666V-507L68 -476L119 -439C152 -452 193 -461 266 -474V-206L50 -114L126 -79C174 -114 212 -139 449 -265ZM939 34V19C814 4 762 -43 692 -170L598 -340C610 -389 615 -404 622 -410C627 -415 628 -419 620 -427L575 -475L562 -469C568 -386 557 -277 502 -170C457 -83 368 10 247 81L254 96C444 -10 542 -105 589 -298L769 43Z"/>
</svg>