<svg xmlns="http://www.w3.org/2000/svg" viewBox="0 -1000 1000 1000">
	<path fill="#000000" d="M882 -720L844 -752C804 -739 773 -734 646 -726C662 -768 670 -786 674 -790C680 -795 680 -799 673 -807L624 -860L610 -854C619 -828 618 -789 604 -724L440 -714C438 -776 439 -782 442 -790C445 -798 444 -805 437 -809L388 -842L378 -834C390 -811 393 -796 401 -711L152 -696L190 -655C226 -664 284 -670 403 -678C404 -652 402 -640 398 -630L421 -599L300 -589L272 -634L257 -629C267 -603 271 -583 272 -560L275 -492C276 -470 274 -463 264 -446L294 -407C302 -397 306 -397 309 -408C311 -415 312 -419 312 -430L766 -463C774 -464 775 -468 769 -476L750 -497L764 -551C773 -586 779 -595 791 -601C799 -605 801 -610 793 -617L757 -653L733 -624L604 -614L634 -691L879 -706C891 -706 893 -711 882 -720ZM912 -413L866 -453L837 -417L186 -362C186 -384 185 -410 183 -438H166C160 -340 142 -310 110 -273L132 -217C136 -208 142 -208 147 -217C166 -248 180 -278 184 -328L839 -384L803 -294L817 -286C866 -363 887 -385 910 -397C919 -402 919 -407 912 -413ZM919 58C904 11 894 -31 881 -120H865L857 31C822 46 778 51 727 41C683 32 661 8 661 -48V-119C661 -159 666 -172 681 -183C688 -188 689 -196 683 -200L638 -230L613 -197L400 -174L429 -249L762 -279C774 -280 777 -284 767 -294L738 -324C711 -310 623 -291 211 -262L247 -226C298 -235 343 -241 383 -245L305 -22C293 12 279 27 245 42L288 76C296 82 299 82 307 77C328 63 400 34 596 -33L592 -49L330 18L388 -139L430 -144L495 -60C502 -50 506 -50 511 -58C517 -69 521 -94 520 -108L457 -147L621 -165V-30C621 36 672 71 734 83C788 94 851 91 906 77C921 73 922 69 919 58ZM596 -689L572 -610L442 -600C444 -615 444 -634 441 -680ZM731 -592L714 -495L596 -485L598 -526C599 -538 602 -546 605 -556C610 -569 608 -575 597 -581ZM563 -579L560 -483L467 -475V-515C467 -533 468 -540 471 -547C474 -557 472 -563 460 -571ZM431 -472L311 -463L307 -558L431 -568Z"/>
</svg>