<svg xmlns="http://www.w3.org/2000/svg" viewBox="0 -1000 1000 1000">
	<path fill="#000000" d="M698 -775L612 -853L604 -847L664 -718C667 -713 674 -711 678 -718C686 -731 692 -749 698 -775ZM458 -745L417 -778L394 -746L268 -727L244 -798L231 -794C243 -606 189 -468 75 -330L85 -321C160 -389 219 -481 249 -576L441 -601C453 -603 455 -609 445 -616L423 -632L438 -696C442 -715 448 -726 457 -730C465 -734 465 -739 458 -745ZM455 -518L416 -556L399 -531L278 -512L257 -539L246 -534C252 -521 257 -494 258 -469L259 -419C259 -401 254 -382 248 -370L270 -335C276 -325 280 -325 284 -336C287 -347 290 -362 291 -374L435 -392C447 -393 448 -397 441 -404L422 -424L432 -471C436 -489 444 -499 454 -504C460 -507 461 -513 455 -518ZM908 38C889 -32 881 -73 871 -167H853L845 14C816 29 764 35 718 26C666 15 649 -14 649 -63V-163C649 -190 655 -207 670 -218C675 -222 675 -229 670 -233L628 -263L607 -231L414 -212L438 -286L863 -321C878 -322 880 -325 866 -336L823 -369C797 -358 755 -346 664 -336C668 -356 669 -381 669 -441L840 -456C850 -456 852 -460 843 -468L807 -495C785 -487 737 -479 669 -472V-546L882 -565C891 -565 892 -571 886 -576L848 -606C829 -599 766 -586 706 -580C725 -621 736 -636 747 -644C753 -648 753 -651 748 -658L729 -684L851 -695C859 -695 860 -701 854 -706L813 -739C787 -725 685 -706 476 -692L510 -660C523 -664 537 -666 564 -669L593 -571L452 -559L496 -525C522 -531 565 -537 632 -543V-469L478 -455L519 -422C547 -431 571 -434 632 -438C632 -406 628 -389 618 -379L643 -336L151 -295L206 -256C244 -267 293 -274 396 -283L324 -54C309 -11 298 2 272 10L303 46C307 51 314 52 321 48C352 30 405 11 604 -50L601 -64L350 -7L405 -180L611 -201V-55C611 1 632 39 698 61C750 78 843 81 897 59C908 54 911 49 908 38ZM517 -124L446 -164L437 -155L498 -73C504 -66 508 -66 511 -74C515 -85 517 -100 517 -124ZM403 -715L390 -629L257 -608C263 -639 268 -671 270 -695ZM706 -682C704 -656 693 -625 672 -578L608 -572C614 -586 619 -600 625 -619L585 -671ZM402 -499L387 -419L291 -403L287 -483Z"/>
</svg>