<svg xmlns="http://www.w3.org/2000/svg" viewBox="0 -1000 1000 1000">
	<path fill="#000000" d="M828 -612L681 -726L669 -714C694 -686 721 -652 751 -611L510 -578L611 -719C640 -760 649 -770 665 -778C673 -782 674 -788 670 -796L634 -853L616 -849C614 -806 591 -751 520 -645C480 -586 466 -576 438 -570L462 -527C468 -516 471 -515 484 -524C503 -537 588 -557 769 -587C780 -573 789 -560 800 -542C807 -530 815 -530 819 -542C825 -561 828 -579 828 -612ZM870 -376C871 -394 867 -425 863 -447L684 -546L672 -532C753 -473 805 -426 853 -373C863 -362 869 -363 870 -376ZM608 -489L583 -546L568 -542C563 -502 521 -444 404 -337L411 -322C442 -343 511 -399 551 -437C580 -465 588 -469 599 -473C610 -477 611 -483 608 -489ZM441 -630L392 -673L364 -635L180 -616L149 -689L133 -683C140 -645 142 -623 143 -560L148 -286C149 -214 146 -196 132 -177L169 -115C175 -106 180 -107 182 -117C184 -131 186 -160 185 -194L350 -214L368 -174C372 -165 379 -166 382 -178C392 -216 395 -241 402 -361L413 -561C415 -595 420 -606 438 -615C446 -619 446 -625 441 -630ZM969 50L967 31C845 29 793 11 723 -63L672 -117C714 -163 739 -199 772 -255C798 -299 805 -306 820 -312C828 -315 829 -321 822 -327L776 -371L745 -331L588 -310C621 -356 630 -364 640 -369C650 -374 650 -379 647 -385L616 -441L600 -435C607 -398 529 -265 382 -110L395 -96C444 -142 484 -183 516 -218C542 -204 571 -182 624 -122C558 -60 426 24 290 78L297 95C421 57 579 -31 648 -93L793 70ZM375 -598L368 -435L341 -461C335 -454 325 -451 294 -445V-590ZM258 -440L182 -429L180 -579L258 -587ZM368 -423L364 -329C362 -275 357 -256 347 -240L334 -253C327 -249 314 -246 294 -243V-413ZM258 -238L185 -228L182 -416L203 -397C213 -402 226 -405 258 -409ZM743 -297C717 -242 682 -187 646 -145C615 -180 587 -217 582 -228L525 -229C546 -253 563 -273 575 -289L608 -273C642 -282 672 -287 743 -297Z"/>
</svg>