<svg xmlns="http://www.w3.org/2000/svg" viewBox="0 -1000 1000 1000">
	<path fill="#000000" d="M870 -639C879 -643 880 -647 872 -655L830 -697L797 -667L510 -636V-702L742 -725C753 -726 753 -729 745 -736L704 -773C671 -757 629 -747 510 -736C510 -770 513 -783 525 -802C528 -806 528 -811 523 -816L466 -870L455 -861C467 -837 471 -804 471 -733L245 -712L303 -675C319 -682 354 -688 471 -699V-633L203 -604C204 -625 204 -643 201 -662H185C179 -588 150 -533 118 -507L132 -448C135 -436 140 -436 147 -445C172 -477 190 -526 199 -572L796 -632L757 -549L771 -540C823 -609 843 -627 870 -639ZM711 -544C718 -549 718 -552 711 -558L668 -595L643 -564L316 -524L288 -575L275 -571C282 -548 288 -517 288 -499L291 -383C291 -364 286 -349 278 -339L313 -285C318 -277 325 -279 326 -288C327 -294 328 -304 328 -319L701 -357C714 -358 714 -362 706 -369L675 -396L690 -511C692 -525 698 -535 711 -544ZM928 40V22C787 41 700 24 513 -58V-135L709 -158C726 -160 726 -164 716 -174L688 -200C670 -193 609 -181 513 -169V-249L718 -271L682 -210L698 -201C752 -260 778 -276 802 -283C811 -286 812 -290 804 -297L748 -343L716 -304L153 -243L192 -211C209 -216 256 -224 304 -228C297 -143 236 -38 99 73L107 88C176 48 270 -43 314 -113L735 86ZM652 -531L638 -385L502 -370V-428L625 -440C635 -441 636 -445 629 -452L594 -484C578 -474 547 -465 502 -460V-513ZM466 -366L327 -350L321 -491L466 -509V-455L335 -443L382 -406C397 -412 420 -417 466 -424ZM474 -75L330 -138C337 -150 342 -155 348 -158C354 -161 355 -167 350 -175L322 -230L474 -245Z"/>
</svg>