<svg xmlns="http://www.w3.org/2000/svg" viewBox="0 -1000 1000 1000">
	<path fill="#000000" d="M587 -760L481 -851L469 -839L551 -702C557 -693 565 -692 569 -699C578 -716 583 -732 587 -760ZM605 -560L530 -629L515 -620L569 -505C574 -495 580 -495 585 -503C597 -520 602 -534 605 -560ZM223 -435C225 -459 224 -474 218 -501L114 -571L104 -555L207 -431C216 -420 222 -421 223 -435ZM875 -690L835 -724C742 -702 703 -698 307 -666L261 -763L245 -757C261 -705 267 -544 248 -367L39 -228L109 -208C129 -235 162 -268 245 -334C225 -169 171 -49 55 83L65 95C186 -10 255 -132 282 -307C293 -375 302 -516 305 -631L872 -674C885 -675 887 -680 875 -690ZM916 -31L868 -72C811 -58 677 -41 590 -36V-243L787 -261C799 -262 800 -266 790 -275L752 -306C721 -294 693 -288 590 -278V-443L805 -461C820 -462 821 -467 808 -477L764 -510C713 -489 666 -482 342 -455L390 -418C417 -426 471 -433 549 -440V-275L362 -258L412 -219C454 -230 489 -236 549 -241V-35L249 -21L292 25C394 9 447 4 912 -16C928 -17 928 -21 916 -31Z"/>
</svg>