<svg xmlns="http://www.w3.org/2000/svg" viewBox="0 -1000 1000 1000">
	<path fill="#000000" d="M219 -521L132 -622L117 -611L186 -451C191 -439 200 -440 203 -450C210 -471 216 -499 219 -521ZM927 6C912 -51 903 -103 895 -166L873 -165L869 -14C840 -4 797 -1 744 -1C641 -1 617 -16 613 -95C658 -119 701 -145 744 -175C765 -190 782 -199 796 -203C807 -206 810 -211 807 -221L787 -273H774C761 -241 716 -200 613 -136V-211C647 -228 677 -245 718 -270C740 -283 755 -289 766 -292C774 -294 776 -298 772 -309L753 -357L740 -354C732 -328 685 -284 613 -236V-311C646 -328 667 -339 705 -363C730 -379 745 -384 753 -385C761 -386 763 -391 759 -401L740 -452L726 -450C719 -425 684 -386 613 -339V-447L864 -485C876 -487 876 -492 866 -499L820 -530C795 -517 769 -508 723 -501C729 -516 730 -536 728 -566L639 -631L625 -618L708 -498L526 -468C540 -536 548 -564 562 -586C565 -591 564 -595 560 -601L521 -649L871 -694C882 -695 883 -701 875 -707L823 -742C797 -727 757 -717 568 -692C578 -711 583 -727 587 -756L489 -845L476 -834L551 -689L310 -655L273 -756L253 -749C266 -687 267 -551 256 -412L47 -290L115 -270C143 -298 169 -321 254 -380C235 -186 199 -95 77 62L94 77C236 -85 282 -185 298 -447C304 -538 306 -572 309 -621L495 -645C503 -610 502 -561 485 -462L306 -432L366 -397C394 -409 428 -419 479 -428C435 -212 352 -55 183 61L193 78C374 -33 468 -174 519 -433L574 -442V-112C523 -83 430 -38 378 -18L385 0C450 -21 514 -45 574 -75C579 -4 607 33 720 36C801 38 865 34 915 23C929 20 930 17 927 6Z"/>
</svg>