<svg xmlns="http://www.w3.org/2000/svg" viewBox="0 -1000 1000 1000">
	<path fill="#000000" d="M595 -783L515 -857L504 -849L556 -735C560 -726 568 -727 573 -735C583 -752 588 -763 595 -783ZM215 -534L113 -605L104 -596L191 -477C199 -467 205 -468 208 -479C212 -494 214 -511 215 -534ZM926 -426C916 -437 904 -446 890 -454C882 -447 859 -437 837 -437C800 -437 794 -448 796 -488L800 -556C801 -574 807 -583 821 -593C829 -599 829 -603 821 -610L783 -641L759 -608L698 -598L671 -642L658 -636C670 -535 652 -419 601 -356L614 -345C675 -415 696 -466 702 -567L765 -577L762 -498C758 -413 769 -406 836 -401C860 -399 898 -402 922 -410C933 -413 933 -418 926 -426ZM900 -732L850 -770C809 -751 727 -736 308 -706L270 -785L253 -779C268 -716 266 -550 243 -399L46 -296L100 -266C111 -280 136 -303 238 -371C211 -214 176 -105 64 42L76 52C174 -56 243 -172 274 -347C294 -467 306 -574 310 -673L898 -718C909 -719 910 -725 900 -732ZM626 -207L600 -232C590 -227 578 -223 548 -218L556 -321L606 -326C617 -327 619 -331 612 -339L589 -364C583 -360 571 -355 558 -352C562 -390 564 -402 569 -411C574 -420 573 -425 566 -431L536 -460L575 -465C587 -466 587 -470 579 -478L562 -495L575 -551C578 -563 586 -576 600 -587C608 -594 608 -598 601 -604L562 -636L538 -604L403 -588L379 -647L364 -643C369 -586 365 -489 348 -382C325 -239 295 -101 173 48L187 59C318 -78 356 -207 393 -442L520 -459C527 -442 530 -408 526 -348L469 -341C470 -363 471 -369 474 -376C478 -384 477 -389 473 -392L435 -423L425 -415C431 -402 437 -369 438 -339L379 -333L413 -303C422 -306 426 -307 438 -309V-205L342 -190L369 -164C403 -174 469 -182 620 -194C633 -195 634 -199 626 -207ZM963 27C850 -2 824 -19 742 -139C767 -178 786 -213 804 -253C823 -294 843 -321 853 -328C863 -335 862 -339 855 -345L815 -382L788 -350L619 -327L661 -293C681 -302 711 -308 783 -314C765 -264 748 -223 718 -173L693 -211C679 -230 670 -249 671 -258L629 -263L625 -250C638 -244 646 -234 700 -144C648 -68 564 7 437 90L445 103C582 30 661 -29 721 -111L818 46H962ZM584 -108L505 -151L498 -140L564 -54C570 -46 574 -47 578 -55C586 -73 587 -91 584 -108ZM457 -107L433 -142L419 -138C419 -114 354 -49 258 32L267 44C330 3 354 -16 418 -70C432 -82 442 -87 453 -91C462 -94 463 -98 457 -107ZM539 -573L529 -492L397 -475C400 -501 404 -532 406 -555ZM525 -318L519 -215L469 -208V-313Z"/>
</svg>