<svg xmlns="http://www.w3.org/2000/svg" viewBox="0 -1000 1000 1000">
	<path fill="#000000" d="M573 -787L485 -853L471 -844L539 -725C543 -717 548 -716 554 -724C564 -741 572 -767 573 -787ZM196 -526L104 -618L92 -612L161 -464C167 -451 173 -451 178 -461C188 -481 192 -496 196 -526ZM662 -560L621 -605L607 -594C612 -583 616 -563 616 -531V-491C616 -479 614 -473 610 -467L562 -457V-556C562 -573 567 -592 573 -604C576 -611 575 -614 570 -619L524 -666L510 -654C520 -637 528 -604 528 -586V-452L482 -444L480 -510C480 -519 484 -530 488 -537C491 -541 490 -544 485 -549L444 -588L431 -579C438 -566 445 -525 445 -511V-453C445 -440 443 -435 427 -427L461 -392C466 -387 472 -389 474 -394C481 -411 487 -414 508 -418L609 -436L623 -408C629 -395 635 -396 638 -407C642 -421 646 -441 647 -454L651 -515C652 -529 655 -541 661 -547C665 -551 666 -555 662 -560ZM639 -356L614 -379C596 -368 541 -358 414 -344L453 -311C469 -321 505 -327 636 -345C645 -346 646 -350 639 -356ZM865 -722L823 -755C788 -738 745 -733 269 -687L239 -766L221 -760C234 -708 235 -644 226 -393L37 -288L95 -266C108 -282 142 -309 225 -365C216 -207 156 -61 63 64L79 75C147 -9 188 -76 219 -154C257 -190 305 -241 337 -285V-58C337 -23 329 14 315 34L349 90C355 101 361 99 364 88C369 73 372 44 372 -17V-339C396 -374 413 -395 420 -399C429 -404 431 -408 427 -416L399 -480L382 -474C388 -438 315 -296 236 -203C251 -260 261 -336 264 -388C301 -425 337 -466 379 -527C392 -546 401 -557 407 -560C413 -563 414 -566 410 -574L378 -634L361 -629C365 -597 336 -512 264 -420C268 -485 270 -567 271 -652L862 -710C871 -711 873 -716 865 -722ZM951 42V24C858 24 840 13 758 -169C769 -195 782 -232 805 -311C811 -330 817 -344 821 -351C824 -357 824 -361 820 -369L798 -411L915 -427C923 -428 924 -432 916 -438L875 -466C837 -450 788 -439 709 -427C720 -459 730 -493 740 -532C746 -558 756 -581 765 -594C769 -600 768 -605 764 -611L719 -682L704 -675C722 -607 692 -428 614 -273L582 -299L562 -270L493 -256L477 -296L461 -295C469 -160 458 -87 374 23L387 36C473 -51 494 -117 499 -226L570 -240V-127C570 -104 564 -89 542 -69L580 -42C585 -38 591 -40 593 -45C601 -61 618 -82 688 -155L676 -171L605 -112V-207C605 -226 609 -242 620 -256L627 -254C638 -271 651 -291 661 -312C666 -305 670 -294 676 -280L719 -175C663 -66 596 12 501 80L512 98C615 24 681 -35 738 -128L812 54ZM771 -408C772 -369 759 -283 737 -218L713 -271C701 -298 698 -311 700 -332L672 -336C683 -356 691 -376 699 -397Z"/>
</svg>