<svg xmlns="http://www.w3.org/2000/svg" viewBox="0 -1000 1000 1000">
	<path fill="#000000" d="M618 -670L583 -702L557 -666L465 -654C509 -757 512 -764 518 -771C526 -780 526 -786 520 -793L471 -853L459 -844C474 -805 474 -765 438 -651L411 -647L388 -710L372 -705C378 -681 383 -620 383 -602L385 -516C386 -469 381 -445 374 -431L400 -376C406 -363 411 -363 415 -377C417 -383 419 -395 419 -412L596 -433C606 -434 608 -438 602 -446L580 -472L599 -607C603 -634 607 -643 617 -649C629 -656 629 -659 618 -670ZM957 27C829 4 819 -2 745 -200C769 -262 795 -340 809 -401C818 -437 823 -450 827 -456C830 -460 831 -464 824 -476L798 -519L900 -532C910 -533 911 -537 903 -545L869 -580C838 -566 795 -552 692 -541C707 -588 717 -625 740 -714C752 -760 760 -775 766 -779C777 -787 778 -792 770 -803L721 -869L705 -863C718 -793 676 -532 585 -372L601 -363C611 -377 623 -394 635 -412C649 -384 666 -341 710 -213C665 -100 591 3 486 87L498 102C597 34 673 -47 727 -161L800 57L956 47ZM642 -324L610 -350C587 -339 559 -332 515 -326C520 -336 523 -349 525 -362L472 -414L461 -407L488 -323L326 -299L334 -540C335 -569 340 -577 355 -588C363 -593 363 -598 356 -604L312 -641L289 -608L221 -599C265 -735 268 -745 279 -752C284 -756 283 -764 280 -768L226 -838L212 -831C226 -790 224 -751 197 -596L170 -592L147 -652L133 -650C141 -615 145 -561 146 -492L150 -249C151 -210 146 -179 132 -158L168 -88C174 -75 181 -76 183 -89C185 -105 186 -129 186 -192L272 -204L298 -139C303 -127 309 -127 312 -141C317 -159 318 -171 323 -251L325 -282L347 -266C360 -273 383 -279 427 -285C401 -141 359 -40 229 81L242 93C354 4 411 -88 445 -182L530 -192C508 -94 491 -42 463 8L418 -43L402 -34C428 7 442 37 453 69C457 80 462 82 471 71C500 34 529 -31 564 -161C570 -184 576 -192 586 -197C595 -203 596 -208 589 -217L557 -255L533 -224L455 -214C461 -232 466 -238 470 -242C475 -246 475 -250 470 -259L453 -288L638 -311C650 -312 651 -316 642 -324ZM561 -634L545 -461L419 -440L416 -519L533 -537C542 -538 543 -542 536 -549L511 -574C496 -566 477 -559 415 -547L413 -618ZM295 -575L291 -416L262 -437C237 -426 219 -422 182 -415L179 -560ZM770 -516C774 -451 754 -336 725 -255C691 -351 683 -396 684 -413L648 -434C659 -455 669 -479 679 -504ZM291 -397L288 -272C287 -239 284 -226 277 -217L244 -239C230 -233 213 -229 185 -224L182 -385Z"/>
</svg>