<svg xmlns="http://www.w3.org/2000/svg" viewBox="0 -1000 1000 1000">
	<path fill="#000000" d="M839 -522L804 -564L770 -522L518 -493V-583L748 -609C760 -610 762 -616 751 -624L724 -644L744 -715C751 -738 758 -747 773 -755C783 -760 783 -766 775 -773L732 -809L704 -773L183 -718L232 -682C247 -687 287 -693 481 -716V-615L297 -593L279 -647L263 -643C264 -622 261 -592 256 -569L240 -495C233 -466 227 -454 198 -440L235 -409C241 -404 244 -404 249 -411C260 -427 266 -430 292 -433L481 -455C481 -371 477 -348 457 -323L491 -255C495 -246 502 -246 505 -254C514 -276 518 -296 518 -386V-459L765 -487C746 -420 730 -378 709 -349L605 -413L595 -397C651 -350 678 -320 701 -291C709 -282 714 -283 720 -290C746 -320 764 -354 802 -456C810 -479 820 -494 837 -504C845 -509 846 -514 839 -522ZM929 -22L893 -56C876 -45 848 -37 746 -29L762 -191C764 -210 776 -238 786 -245C794 -251 793 -257 784 -265L745 -297L722 -264L274 -222L247 -279L231 -271C236 -253 243 -216 246 -169L255 1L64 15L116 54C179 39 247 34 925 -8C937 -9 939 -13 929 -22ZM707 -740L684 -638L518 -619V-719ZM481 -489L271 -466L293 -559L481 -579ZM720 -228L708 -27L585 -19V-121C585 -135 590 -161 598 -176C601 -182 599 -187 592 -193L569 -214ZM548 -17L445 -10V-128C444 -156 446 -166 451 -176C454 -182 453 -187 445 -194L435 -203L541 -212C545 -185 548 -143 548 -114ZM407 -8L293 -1L283 -189L397 -200C403 -173 407 -140 407 -104Z"/>
</svg>