<svg xmlns="http://www.w3.org/2000/svg" viewBox="0 -1000 1000 1000">
	<path fill="#000000" d="M878 -563L843 -590C818 -580 745 -565 672 -556C675 -598 682 -630 686 -633C694 -640 693 -646 687 -652L652 -685L852 -708C869 -710 870 -715 857 -726L823 -753C771 -734 739 -725 579 -707C611 -765 618 -773 628 -779C642 -787 642 -792 634 -802L593 -858L578 -852C590 -788 529 -668 448 -565L464 -553C492 -581 537 -638 560 -675L628 -683C638 -654 638 -629 635 -553L446 -539L490 -502C511 -509 571 -518 633 -523L630 -449L551 -440L529 -480L513 -472C520 -452 526 -423 527 -403L530 -351C531 -335 528 -320 519 -307L550 -256C557 -245 563 -245 566 -255C569 -267 570 -277 570 -294L779 -314C798 -315 801 -321 788 -331L764 -348L773 -401C776 -420 780 -430 793 -440C803 -449 803 -453 794 -461L758 -494L734 -463L664 -453L670 -526L875 -546C891 -547 891 -552 878 -563ZM480 -331L449 -357C429 -346 381 -337 341 -331V-452L432 -467C448 -470 448 -475 436 -484L417 -498L423 -549C428 -582 431 -589 442 -597C455 -606 454 -612 445 -619L406 -651L382 -619L336 -610V-724L453 -739C472 -741 473 -746 461 -757L428 -788C406 -771 375 -762 209 -741L182 -810L166 -806C177 -744 178 -705 178 -650V-434C178 -335 174 -316 153 -291L189 -261C195 -256 200 -257 204 -264C211 -277 227 -286 249 -289L476 -315C490 -316 491 -322 480 -331ZM934 -23L896 -58C880 -48 805 -34 707 -27L719 -149C723 -184 729 -205 745 -214C758 -222 758 -227 748 -236L708 -275L674 -238L276 -202L249 -249L234 -245C245 -201 249 -164 251 -136L260 4L56 18L106 55C160 42 405 21 928 -6C946 -7 947 -11 934 -23ZM297 -605L213 -592V-708L297 -720ZM389 -586L382 -493L213 -465V-561ZM303 -327L213 -318V-432L303 -446ZM738 -427L729 -344L568 -325L561 -408ZM684 -202L668 -25L554 -17L565 -98C569 -126 572 -134 580 -143C587 -151 586 -156 580 -164L555 -191ZM529 -89L521 -15L430 -9V-101C430 -118 432 -126 436 -135C441 -145 440 -149 432 -156L407 -179L529 -189C532 -158 532 -121 529 -89ZM394 -6L297 1L289 -170L384 -178C391 -148 394 -118 394 -80Z"/>
</svg>