<svg xmlns="http://www.w3.org/2000/svg" viewBox="0 -1000 1000 1000">
	<path fill="#000000" d="M876 -575L826 -618L797 -575L619 -548C623 -578 626 -609 629 -640C637 -709 647 -760 654 -769C659 -774 658 -779 652 -784L588 -844L577 -837C594 -792 598 -734 578 -543L468 -527C468 -555 465 -589 459 -627H442C446 -517 428 -459 399 -423L426 -367C429 -360 435 -360 438 -367C454 -408 464 -446 467 -492L573 -509C542 -243 460 -78 311 76L319 87C482 -53 570 -197 615 -514L791 -540L755 -432L772 -424C819 -517 837 -540 874 -560C883 -565 883 -569 876 -575ZM402 -668C410 -674 408 -677 402 -682L354 -718L328 -675L194 -653L156 -729L143 -723C151 -687 157 -629 158 -571L168 -202C170 -138 165 -114 148 -83L193 -4C198 3 202 4 205 -8C208 -22 209 -52 208 -92L320 -110L351 -53C355 -45 360 -46 363 -54C372 -81 378 -127 378 -190V-611C378 -639 387 -656 402 -668ZM927 29C912 -34 899 -102 889 -180H873L868 5C840 16 823 20 764 22C695 24 669 5 669 -101V-327C669 -381 673 -392 685 -406C690 -412 690 -415 683 -421L623 -476L612 -465C628 -432 632 -409 632 -313V-81C632 26 661 63 757 63C822 63 862 59 921 44C928 42 929 38 927 29ZM339 -237C339 -190 334 -154 320 -128L295 -146C284 -138 272 -136 207 -124L203 -289L311 -307C319 -308 319 -313 313 -318L284 -342C267 -333 240 -326 202 -321L198 -451L307 -472C317 -474 318 -477 310 -483L281 -505C267 -497 253 -492 198 -482L194 -620L339 -641Z"/>
</svg>