<svg xmlns="http://www.w3.org/2000/svg" viewBox="0 -1000 1000 1000">
	<path fill="#000000" d="M905 -462L721 -628L708 -616C764 -549 798 -505 824 -468L522 -423L653 -665C688 -730 698 -745 707 -752C715 -758 716 -764 709 -773L653 -847L640 -840C651 -777 630 -693 519 -491C487 -430 479 -423 437 -415L475 -371C481 -364 485 -363 493 -367C543 -388 586 -398 843 -442C857 -421 869 -402 882 -381C889 -370 894 -371 897 -380C902 -398 904 -417 905 -462ZM449 -656C455 -661 455 -664 449 -669L404 -708L370 -660L216 -641L184 -729L167 -725C175 -690 180 -621 180 -547V-204C180 -139 175 -114 159 -85L199 -15C202 -9 207 -9 210 -15C216 -28 218 -41 218 -114L354 -130L387 -64C391 -56 396 -55 400 -65C406 -79 409 -96 413 -228L424 -598C425 -630 427 -638 449 -656ZM851 -284C855 -288 854 -291 850 -295L803 -337L770 -294L554 -265L522 -336L508 -332C516 -296 520 -239 520 -202V-85C520 -25 515 -4 502 18L542 87C547 96 552 95 555 86C559 75 560 66 560 9L824 -14C839 -15 839 -17 830 -28L799 -63L821 -226C824 -250 833 -270 851 -284ZM383 -626L374 -246C372 -178 369 -160 359 -147L332 -171C307 -162 274 -155 218 -148V-300L353 -319C362 -320 362 -324 356 -331L326 -364C299 -350 272 -342 218 -335V-441L352 -462C361 -463 361 -465 355 -472L325 -504C302 -493 275 -485 218 -476V-604ZM781 -259L760 -51L560 -27V-229Z"/>
</svg>