<svg xmlns="http://www.w3.org/2000/svg" viewBox="0 -1000 1000 1000">
	<path fill="#000000" d="M927 -469L881 -508C849 -494 788 -482 534 -463V-542L745 -563C756 -564 757 -567 747 -576L704 -609C678 -595 616 -584 534 -576V-646L802 -671C813 -672 813 -677 804 -684L761 -720C720 -704 660 -691 534 -679V-744C534 -761 541 -778 550 -789C554 -795 554 -798 548 -804L485 -861L472 -853C487 -821 493 -798 493 -742V-675L318 -659C324 -671 328 -678 332 -687C344 -714 354 -728 359 -731C364 -734 365 -740 360 -746L313 -805L301 -800C309 -740 271 -612 185 -488L200 -479C237 -522 274 -573 310 -643L338 -620C377 -629 428 -637 493 -643V-573L278 -554L331 -515C363 -524 408 -530 493 -539V-460L77 -427L125 -383C178 -401 462 -429 926 -453C935 -453 939 -459 927 -469ZM741 -358C748 -363 748 -367 740 -374L693 -411L666 -371L336 -338L305 -390L292 -384C299 -354 305 -299 306 -261L309 -83C310 -27 305 -7 288 19L330 95C334 103 339 102 342 95C348 82 350 67 350 31L639 14L671 80C675 88 681 88 685 80C696 59 699 38 704 -62L715 -285C717 -329 724 -346 741 -358ZM673 -334L665 -97C663 -44 658 -18 649 -7L611 -37C587 -24 553 -18 350 -6L349 -79L631 -106C640 -107 642 -110 634 -119L603 -154C586 -140 530 -130 349 -116L348 -191L627 -219C636 -219 636 -224 631 -230L602 -263C583 -252 538 -243 348 -227L347 -303Z"/>
</svg>