<svg xmlns="http://www.w3.org/2000/svg" viewBox="0 -1000 1000 1000">
	<path fill="#000000" d="M893 -540L845 -576C816 -559 782 -550 631 -532V-633L816 -655C830 -657 829 -661 819 -668L772 -699C743 -684 696 -673 631 -665V-710C631 -752 636 -785 645 -800C648 -805 647 -809 642 -814L584 -866L570 -858C584 -823 591 -775 591 -711V-660L395 -641L444 -606C468 -614 487 -617 591 -629V-528L348 -499L352 -612C354 -655 360 -676 377 -687C382 -691 382 -697 376 -702L333 -738L309 -703L179 -686L147 -757L132 -752C142 -713 146 -665 144 -593L145 -270C145 -172 141 -154 128 -129L163 -71C170 -60 175 -61 178 -72C181 -84 183 -114 183 -150L293 -162L315 -116C319 -107 327 -108 330 -117C334 -130 338 -167 340 -230L348 -489L391 -464C411 -472 454 -479 518 -487C502 -439 449 -368 345 -278L355 -263C393 -288 456 -339 510 -396C532 -418 544 -427 552 -429C558 -430 560 -435 558 -442L540 -489L889 -528C899 -529 900 -534 893 -540ZM845 -333C847 -357 846 -374 842 -401L653 -492L646 -476C718 -431 793 -372 833 -329C839 -322 844 -324 845 -333ZM949 39V20C838 15 809 1 713 -78L655 -129C680 -162 711 -207 734 -252C747 -277 757 -291 772 -302C777 -306 777 -309 772 -315L736 -356L702 -324L558 -307C573 -330 580 -336 587 -339C593 -342 594 -345 590 -354L561 -417L548 -413C552 -372 486 -238 364 -98L376 -87C406 -112 461 -170 502 -224C529 -205 559 -178 606 -131C536 -56 428 26 294 84L301 100C408 67 552 -17 633 -105L782 49ZM313 -671L304 -268C303 -226 300 -203 294 -191L284 -201C274 -196 243 -189 183 -183L182 -341L290 -354C299 -355 299 -359 294 -365L269 -396C257 -388 226 -381 182 -375V-498L291 -513C300 -514 300 -518 295 -524L270 -552C254 -543 229 -537 182 -530V-653ZM702 -292C684 -245 653 -191 625 -155C564 -210 556 -223 554 -238L516 -243C523 -253 529 -262 535 -271Z"/>
</svg>