<svg xmlns="http://www.w3.org/2000/svg" viewBox="0 -1000 1000 1000">
	<path fill="#000000" d="M702 -617L666 -644C635 -632 571 -620 438 -607L481 -573C511 -582 568 -590 698 -602C714 -603 714 -608 702 -617ZM365 -680C371 -684 371 -689 364 -695L319 -730L295 -693L176 -674L138 -756L123 -750C133 -710 138 -664 138 -592L142 -273C143 -175 140 -156 128 -132L164 -74C170 -65 176 -65 179 -76C182 -88 183 -121 182 -158L280 -170L306 -110C310 -102 317 -103 320 -111C326 -126 333 -173 334 -218L342 -605C342 -642 350 -670 365 -680ZM953 -45L952 -65C845 -66 819 -83 744 -200L707 -259C770 -331 804 -363 816 -368C825 -372 826 -376 821 -388L797 -452L784 -450C779 -408 757 -366 690 -284L632 -376C633 -398 636 -421 639 -425C644 -433 644 -437 637 -443L607 -468L899 -499C916 -502 917 -508 906 -516L859 -545C831 -534 801 -526 742 -518L764 -688C768 -722 776 -740 793 -749C800 -753 800 -757 794 -764L750 -807L723 -767L403 -728L452 -689C501 -704 574 -718 727 -732L704 -514L372 -472L414 -435C447 -445 494 -455 576 -465C585 -436 591 -393 591 -316V-258L321 -54L387 -36C397 -54 465 -117 591 -223V-94C591 -34 588 -4 584 23L479 -39L467 -25C514 15 570 76 590 102C598 113 602 113 608 102C624 75 631 42 631 -90V-325L799 -24ZM520 -305L411 -385L403 -372L493 -240C500 -229 506 -229 510 -241C516 -258 519 -277 520 -305ZM304 -660L298 -271C297 -224 292 -200 283 -187L260 -211C250 -205 219 -197 182 -189L179 -334L280 -350C290 -351 291 -354 284 -362L258 -391C244 -383 226 -376 178 -368L176 -479L283 -498C293 -500 294 -503 287 -510L260 -536C243 -526 231 -522 176 -511L174 -640Z"/>
</svg>