<svg xmlns="http://www.w3.org/2000/svg" viewBox="0 -1000 1000 1000">
	<path fill="#000000" d="M838 -680L738 -747L729 -735L816 -623C826 -609 832 -609 835 -622C839 -641 840 -656 838 -680ZM948 31C829 22 814 15 714 -155C745 -204 767 -253 790 -322C808 -380 822 -396 838 -404C845 -407 845 -411 838 -417L791 -455L768 -424L621 -397C628 -426 639 -466 650 -510L896 -547C907 -549 908 -553 900 -559L852 -591C829 -575 811 -569 658 -545C665 -581 672 -616 678 -646C696 -739 701 -758 714 -768C720 -772 720 -778 715 -785L665 -857L651 -851C659 -806 642 -660 615 -539L461 -517L515 -479C534 -487 572 -497 608 -503C564 -312 533 -238 456 -121L465 -341C467 -381 473 -391 491 -403C498 -408 498 -412 492 -417L446 -456L422 -424L362 -414L370 -532L519 -554C530 -556 531 -561 522 -567L480 -594C467 -583 448 -575 372 -565C379 -628 383 -642 392 -651C398 -657 398 -661 391 -667L355 -700C385 -711 413 -721 442 -731C471 -742 490 -747 510 -750C523 -752 525 -758 516 -766L461 -810L452 -805C447 -778 413 -752 209 -680L168 -778L155 -772C172 -720 175 -677 163 -462C149 -193 128 -113 45 33L59 42C153 -93 193 -207 204 -526L235 -507C263 -515 282 -519 336 -527L329 -410L273 -400L246 -460L231 -452C241 -415 245 -382 245 -320V-138C245 -70 243 -59 226 -33L256 40C261 52 266 51 269 39C275 18 278 -1 279 -31L403 -48L428 10C432 19 438 19 441 11C448 -7 454 -39 456 -99L465 -93C524 -173 559 -228 588 -303C606 -280 628 -246 654 -196L673 -159C621 -81 524 6 387 92L394 106C520 45 632 -47 694 -124L793 60L947 48ZM338 -561L204 -542C205 -578 209 -629 211 -653C255 -667 293 -680 337 -694C343 -662 342 -619 338 -561ZM768 -389C748 -310 726 -247 693 -189L657 -250C640 -280 630 -309 628 -324L597 -326C602 -338 605 -353 611 -367L623 -359C638 -367 658 -371 768 -389ZM430 -391L424 -168C421 -111 416 -88 406 -71L390 -87C370 -78 350 -73 279 -64V-160L412 -178C419 -179 420 -183 415 -188L384 -218C375 -210 357 -204 279 -190V-264L415 -283C422 -284 423 -288 418 -293L388 -323C377 -314 356 -304 279 -294V-370Z"/>
</svg>