<svg xmlns="http://www.w3.org/2000/svg" viewBox="0 -1000 1000 1000">
	<path fill="#000000" d="M897 -402L852 -437C833 -428 654 -400 514 -388V-449L737 -470C748 -471 748 -475 739 -483L700 -515C673 -505 620 -494 514 -484C514 -501 517 -518 521 -528C523 -534 522 -540 518 -544L493 -570L770 -598C778 -599 778 -604 772 -609L752 -630L767 -698C772 -722 779 -733 795 -747C801 -752 800 -757 795 -761L750 -798L725 -769L474 -742C500 -785 506 -793 521 -803C527 -807 528 -812 522 -819L482 -869L470 -863C470 -831 458 -788 432 -738L254 -720L228 -779L211 -773C216 -755 223 -707 226 -664L230 -594C230 -573 226 -548 220 -535L252 -479C258 -469 261 -469 265 -480C268 -488 269 -506 267 -547L462 -568C470 -542 475 -514 475 -481L246 -460L295 -423C344 -433 409 -440 475 -446V-385L96 -353L155 -310C200 -320 268 -331 343 -338L397 -239L216 -222L268 -185C318 -195 342 -198 465 -210V-128L169 -107L218 -65C267 -75 349 -86 465 -95C465 -24 458 22 447 46L478 98C485 108 491 110 495 99C503 78 506 53 506 -31V-99L811 -122C822 -123 823 -127 813 -135L769 -171C750 -160 626 -141 506 -131V-214L758 -237C768 -238 769 -241 759 -250L721 -282C701 -275 639 -263 580 -256C609 -303 622 -320 636 -330C643 -336 643 -340 639 -347L627 -364L896 -388C908 -389 909 -393 897 -402ZM730 -732L717 -629L573 -614L586 -718ZM547 -714L536 -609L435 -598V-702ZM398 -595L266 -581L262 -685L398 -699ZM589 -361C585 -338 571 -303 546 -252L415 -240C421 -251 426 -267 428 -283L373 -340Z"/>
</svg>