<svg xmlns="http://www.w3.org/2000/svg" viewBox="0 -1000 1000 1000">
	<path fill="#000000" d="M854 -641L811 -688L780 -654L550 -631C550 -638 549 -646 546 -653L644 -716C680 -739 704 -752 734 -762C743 -765 744 -770 737 -779L700 -827L660 -793L226 -758L274 -723C313 -731 390 -738 636 -756L524 -671L392 -695L388 -681L496 -626L128 -589L176 -552C201 -559 320 -575 452 -588C382 -525 198 -406 81 -352L90 -336C129 -351 174 -372 220 -397C223 -367 224 -328 224 -282V-104C224 -56 216 -28 204 -4L239 67C246 80 253 79 256 68C261 46 264 16 264 -66V-339L425 -358C413 -327 376 -271 292 -196L303 -184C333 -205 349 -217 380 -246C385 -225 387 -203 387 -187V-156C387 -127 384 -110 377 -95L400 -43C407 -27 415 -28 418 -43C420 -56 421 -65 421 -84L604 -101C617 -102 618 -107 607 -117L588 -133L597 -190C601 -212 605 -220 614 -226C623 -232 625 -236 616 -244L579 -278L556 -247L411 -229L394 -261C405 -270 418 -282 429 -291C438 -298 449 -306 455 -307C463 -308 466 -314 462 -325L450 -360L732 -391L714 -111C711 -60 703 -14 695 12L600 -47L589 -34C653 26 673 48 703 87C712 98 719 98 724 86C735 59 750 -18 755 -83L774 -346C777 -389 779 -392 801 -406C808 -411 809 -416 801 -423L756 -463L726 -426L543 -404C550 -423 553 -447 553 -487V-597L771 -618L712 -523L727 -513C800 -597 819 -611 850 -622C862 -627 862 -632 854 -641ZM669 -246C669 -261 666 -280 660 -304L541 -360L533 -345L651 -242C663 -230 669 -232 669 -246ZM514 -495C514 -469 512 -457 510 -448L429 -487L419 -473C464 -440 487 -420 504 -400L257 -371L244 -410C345 -467 452 -535 514 -587ZM562 -215L550 -130L421 -116L420 -197Z"/>
</svg>