<svg xmlns="http://www.w3.org/2000/svg" viewBox="0 -1000 1000 1000">
	<path fill="#000000" d="M682 -742L588 -837L573 -828L643 -669C647 -659 653 -660 659 -672C668 -690 676 -716 682 -742ZM447 -670L415 -695C385 -678 290 -656 99 -634L148 -600C169 -606 215 -616 259 -623C243 -510 164 -327 41 -185L52 -175C119 -240 164 -300 202 -363L207 -179C208 -134 204 -117 194 -97L228 -43C237 -30 241 -31 244 -44C248 -64 248 -95 246 -153L405 -176C417 -177 418 -183 410 -190L386 -215L397 -364C399 -385 406 -402 420 -415C428 -422 428 -426 419 -433L378 -466L350 -428L228 -407C249 -446 274 -505 285 -535C293 -558 300 -569 309 -575C317 -581 318 -587 310 -599L289 -628L445 -652C460 -654 461 -659 447 -670ZM956 36L955 19C836 9 806 -22 726 -157C795 -223 817 -240 838 -248C847 -251 850 -255 847 -267L826 -338L813 -335C804 -291 771 -242 712 -181L624 -332L810 -362C822 -364 822 -370 813 -376L781 -398L800 -582C803 -615 812 -637 828 -649C838 -656 837 -660 828 -667L778 -706L748 -660L527 -622L494 -705L474 -699C484 -657 491 -594 491 -530V-65C491 2 484 21 455 39L496 78C504 87 511 86 517 77C535 52 584 0 673 -83L664 -96L530 -1V-316L594 -327L799 47ZM760 -624L741 -390L530 -351V-460L731 -488C742 -489 744 -494 733 -504L701 -531C689 -521 650 -510 530 -490V-587ZM359 -395L348 -205L245 -185L239 -372Z"/>
</svg>