<svg xmlns="http://www.w3.org/2000/svg" viewBox="0 -1000 1000 1000">
	<path fill="#000000" d="M926 -187L889 -225C872 -215 827 -204 774 -196L786 -510C788 -550 795 -564 810 -577C818 -584 818 -588 810 -595L768 -632L736 -595L621 -581L633 -666L888 -692C899 -693 900 -697 892 -703L845 -739C806 -721 737 -708 637 -698C645 -761 655 -792 663 -803C668 -810 667 -814 659 -821L609 -864L596 -858C604 -834 609 -777 600 -695L429 -678L384 -716C342 -696 302 -685 76 -661L125 -627C145 -634 178 -640 249 -650C232 -573 170 -456 41 -301L54 -290C107 -343 137 -374 189 -447C192 -428 194 -405 194 -389L196 -264C196 -240 192 -221 181 -199L214 -131C220 -119 226 -121 229 -131C234 -147 236 -166 236 -225L389 -247C400 -249 402 -253 392 -261L366 -281L381 -410C384 -436 391 -448 404 -459C411 -465 411 -470 406 -474L362 -511L337 -477L224 -460L211 -479C229 -506 245 -531 262 -563C274 -583 286 -601 295 -610C299 -614 300 -617 297 -623L281 -653L403 -669L442 -638C466 -646 488 -650 597 -662L587 -577L516 -568L472 -621L460 -616C472 -586 479 -547 480 -479L485 -176L348 -165L385 -128C442 -140 614 -155 922 -175C932 -176 933 -180 926 -187ZM873 62C875 33 874 14 869 -24L677 -137L668 -122C756 -57 812 2 856 64C865 76 872 75 873 62ZM588 -80L560 -141L546 -139C531 -82 457 -10 316 82L324 97C408 59 466 22 518 -27C548 -54 567 -65 580 -68C588 -69 591 -74 588 -80ZM745 -564L736 -193L523 -178L521 -244L714 -267C722 -268 723 -271 717 -277L681 -310C656 -296 621 -287 521 -277L520 -339L706 -365C713 -366 714 -371 709 -376L677 -403C656 -393 630 -386 519 -372L518 -435L707 -461C716 -462 717 -466 710 -472L676 -498C655 -488 641 -484 518 -466L516 -537ZM344 -443L330 -273L234 -258L232 -427Z"/>
</svg>