<svg xmlns="http://www.w3.org/2000/svg" viewBox="0 -1000 1000 1000">
	<path fill="#000000" d="M826 -739L724 -807L715 -795L802 -682C809 -672 815 -672 819 -683C825 -701 827 -721 826 -739ZM932 69C920 16 907 -74 906 -167H886L877 2C839 -24 778 -95 749 -197C765 -229 779 -262 791 -296C830 -415 833 -423 843 -431C851 -437 852 -441 845 -450L801 -516L789 -510C797 -476 783 -376 736 -253C713 -362 701 -479 691 -600L892 -622C907 -624 909 -630 896 -640L859 -670C820 -651 788 -648 689 -638C680 -736 681 -743 694 -771C699 -782 698 -787 691 -794L631 -857L614 -849C627 -828 639 -773 651 -634L424 -609L394 -699L380 -694C390 -613 387 -333 382 -285C365 -138 333 -25 261 72L276 84C382 -50 413 -178 419 -335L454 -312C469 -321 485 -324 526 -330C533 -310 536 -288 536 -254V-136C536 -53 535 -38 531 -31L463 -86L453 -71C488 -29 515 8 539 44C545 53 550 55 556 45C570 22 573 0 572 -63V-242C571 -286 573 -292 577 -297C582 -305 581 -311 573 -317L554 -335L664 -353C677 -355 677 -360 666 -367L629 -390C619 -383 601 -374 551 -366V-450L650 -465C661 -466 662 -472 654 -478L619 -502C609 -494 595 -490 551 -482C552 -504 556 -515 561 -526C564 -533 563 -537 559 -542L524 -583L654 -597C666 -451 687 -291 711 -195C680 -130 619 -40 596 -20L611 -7C651 -47 693 -97 724 -152C771 -19 852 54 921 77C931 80 934 78 932 69ZM368 -681L336 -706C313 -692 255 -676 64 -648L113 -615C134 -622 181 -632 209 -638C201 -529 131 -361 44 -239L61 -226C94 -262 133 -320 163 -380C164 -376 164 -372 164 -367L170 -199C171 -162 166 -144 156 -126L188 -63C196 -47 201 -50 204 -64C207 -76 208 -131 206 -179L341 -197C359 -199 361 -206 346 -215L319 -231L332 -377C334 -400 339 -423 354 -436C362 -443 362 -446 352 -454L309 -488L283 -448L189 -431C209 -474 223 -509 236 -541C244 -562 248 -571 256 -579C261 -584 263 -588 256 -599L230 -641L366 -664C379 -666 378 -673 368 -681ZM677 -209L590 -263L583 -251L661 -150C665 -144 672 -144 674 -155C677 -168 679 -196 677 -209ZM513 -222L479 -274L466 -268C466 -229 455 -178 381 -69L396 -57C427 -90 467 -145 480 -170C489 -187 497 -196 511 -205C518 -209 519 -214 513 -222ZM516 -361L419 -346C424 -479 425 -519 427 -573L501 -581C509 -554 517 -504 516 -480ZM293 -417L284 -227L205 -212L197 -396Z"/>
</svg>