<svg xmlns="http://www.w3.org/2000/svg" viewBox="0 -1000 1000 1000">
	<path fill="#000000" d="M856 -716C860 -720 860 -722 856 -727L809 -789L796 -781C804 -763 806 -723 801 -703L786 -645L651 -633V-701C651 -764 655 -786 663 -798C667 -804 666 -808 661 -812L605 -862L592 -853C604 -827 610 -794 610 -692V-630L479 -619V-679C479 -702 480 -712 485 -719C488 -724 487 -727 481 -733L431 -779L418 -771C430 -749 437 -713 437 -685L438 -638C438 -621 430 -607 412 -593L459 -560C464 -556 467 -556 471 -563C481 -580 488 -586 518 -589L772 -611L790 -575C793 -569 798 -568 801 -573C809 -586 812 -594 822 -626L839 -681C844 -697 849 -708 856 -716ZM396 -688L364 -715C332 -697 245 -679 56 -663L105 -626C131 -635 145 -637 228 -648C212 -557 145 -400 46 -269L61 -258C109 -311 135 -343 170 -402L171 -236C171 -190 168 -175 157 -156L191 -100C200 -86 205 -86 207 -101C209 -118 210 -132 210 -176L349 -190C361 -191 363 -196 354 -205L328 -232L340 -389C341 -399 350 -417 362 -429C369 -436 369 -439 360 -447L318 -486L294 -448L203 -431L196 -448C213 -479 240 -533 255 -570C264 -590 270 -600 280 -610C286 -616 286 -620 277 -629L254 -652L394 -671C408 -673 408 -677 396 -688ZM876 -516C880 -519 880 -523 874 -528L834 -566L811 -533L698 -518L662 -572L649 -564C659 -522 662 -426 660 -288C657 -127 630 -35 558 65L576 78C658 -23 680 -74 695 -219L802 -231C810 -232 811 -236 804 -241L762 -274C756 -265 733 -256 697 -253C698 -278 698 -317 699 -358L802 -368C810 -369 810 -373 804 -378L771 -405C762 -399 732 -393 699 -390C699 -424 699 -458 698 -482L814 -495V-125C814 -32 813 -18 808 -1L727 -54L717 -41C751 -3 790 45 815 84C820 92 825 93 830 86C849 59 852 33 852 -110V-446C852 -490 855 -498 876 -516ZM617 -503L575 -541L548 -507L440 -491L418 -548L400 -542C406 -505 406 -445 403 -309C400 -161 360 -59 263 52L278 68C365 -18 408 -90 434 -213L547 -223C555 -224 556 -228 549 -233L515 -261C506 -255 470 -248 438 -245C440 -267 442 -296 443 -332L546 -342C554 -343 555 -347 548 -352L509 -382C502 -377 469 -368 444 -365C445 -393 446 -426 447 -459L558 -472V-164C558 -76 557 -63 552 -47L480 -96L468 -83C513 -29 536 1 561 37C565 43 571 43 575 35C594 -6 596 -18 596 -139V-441C596 -468 600 -476 616 -489C621 -493 621 -500 617 -503ZM302 -411L293 -224L209 -210L207 -397Z"/>
</svg>