<svg xmlns="http://www.w3.org/2000/svg" viewBox="0 -1000 1000 1000">
	<path fill="#000000" d="M639 -682L603 -719L575 -685L486 -671C519 -762 524 -772 533 -780C543 -789 543 -793 536 -802L496 -851L481 -844C488 -796 483 -758 458 -667L442 -664L412 -726L396 -724C402 -699 407 -646 408 -615L410 -517C411 -482 403 -453 394 -441L431 -380C437 -370 443 -371 446 -382C448 -390 449 -402 450 -423L619 -448C634 -449 634 -455 624 -463L601 -482L616 -621C619 -642 626 -655 638 -662C647 -667 647 -673 639 -682ZM387 -670L355 -695C324 -676 262 -664 75 -642L124 -609C144 -615 178 -622 216 -628C208 -538 148 -377 47 -244L62 -233C110 -285 144 -330 179 -393C179 -389 179 -385 179 -381V-220C179 -181 174 -159 161 -139L193 -86C200 -74 206 -75 209 -87C212 -100 213 -122 213 -171L354 -190C370 -192 371 -197 359 -206L327 -231L336 -386C337 -405 341 -415 357 -432C365 -439 365 -441 355 -449L314 -479L295 -445L202 -427L200 -436C216 -468 237 -518 247 -551C253 -572 259 -583 268 -591C275 -597 276 -602 267 -613L251 -633L385 -652C399 -654 400 -660 387 -670ZM958 60V42C848 19 838 14 759 -187C782 -246 803 -316 822 -398C827 -420 835 -435 843 -440C849 -445 850 -450 845 -459L814 -512L922 -528C933 -530 933 -534 924 -542L890 -575C858 -558 815 -543 705 -527C726 -579 745 -638 761 -704C772 -751 777 -762 784 -767C794 -774 795 -782 788 -792L740 -859L726 -853C743 -780 697 -534 595 -369L611 -359C621 -373 634 -388 645 -406C653 -392 660 -372 687 -297L722 -196C678 -74 622 -1 530 88L542 103C627 34 689 -33 741 -145L816 66ZM658 -323L625 -349C598 -336 575 -329 533 -323C540 -335 543 -351 542 -363L488 -421L476 -414L508 -319L336 -295L378 -265C385 -268 417 -276 451 -282C418 -106 381 -47 257 68L268 81C385 -5 443 -83 469 -182L559 -192C540 -86 525 -43 498 0L439 -64L425 -55C451 -13 474 33 486 68C489 78 493 78 501 70C539 29 558 -15 595 -162C602 -189 608 -198 617 -203C627 -208 627 -212 619 -222L586 -262L558 -227L477 -215C485 -238 496 -261 499 -264C505 -270 505 -272 498 -280L491 -287L654 -310C666 -312 667 -316 658 -323ZM579 -650L568 -474L450 -453L448 -533L553 -550C562 -551 562 -556 556 -563L532 -588C515 -579 489 -572 447 -564L446 -634ZM788 -508C793 -446 769 -334 739 -241C708 -321 687 -394 687 -411L661 -433C672 -451 682 -472 691 -492ZM297 -411L292 -219L213 -204V-395Z"/>
</svg>