<svg xmlns="http://www.w3.org/2000/svg" viewBox="0 -1000 1000 1000">
	<path fill="#000000" d="M971 -206V-226C857 -223 810 -245 714 -357L668 -409L932 -425C951 -426 953 -431 940 -441L902 -469C864 -456 849 -454 788 -447L809 -686C811 -708 817 -728 831 -741C839 -748 838 -753 830 -760L797 -788L772 -757L636 -744L675 -712C693 -716 709 -718 774 -724L768 -653L622 -638L662 -604C694 -615 722 -618 766 -621L760 -552L621 -541L655 -509C667 -512 683 -515 758 -523L752 -446L576 -435L586 -579C588 -607 591 -615 602 -622C615 -630 615 -637 603 -646L569 -669L547 -640L489 -635L492 -708L604 -725C616 -727 616 -732 608 -738L581 -760C570 -753 538 -745 493 -738C495 -770 499 -788 505 -795C512 -803 512 -808 506 -813L463 -859L450 -848C457 -836 462 -815 461 -777L458 -672C457 -648 451 -636 434 -621L461 -599C468 -593 471 -592 481 -600C487 -605 498 -609 507 -610L552 -614L542 -433L475 -429V-512C475 -532 477 -541 481 -545C488 -553 488 -557 480 -563L439 -593L430 -586C437 -568 442 -536 442 -512V-427L290 -418L287 -498L402 -512C414 -513 416 -518 405 -528L381 -550C369 -543 344 -538 285 -529L281 -613L398 -626C412 -628 413 -631 401 -641L369 -667C359 -659 330 -650 280 -641L277 -698C332 -723 360 -734 398 -744C414 -748 417 -751 411 -762L387 -809L376 -807C374 -786 346 -760 264 -718L238 -763L226 -757C234 -730 239 -688 241 -656L256 -416L84 -405L130 -367C159 -373 218 -380 346 -389C283 -301 189 -227 43 -137L52 -123C150 -173 221 -215 269 -255L300 -235C330 -242 357 -245 444 -254C407 -194 314 -121 122 -29L128 -14C240 -59 301 -86 353 -121L355 -18C355 1 352 16 341 33L378 93C385 104 390 103 393 94C395 86 397 62 396 38L706 22C714 22 716 19 708 10L681 -20L694 -101C697 -121 705 -138 724 -150C733 -155 733 -159 726 -166L689 -203L658 -173L393 -151C461 -203 475 -212 491 -219C506 -226 508 -232 499 -240L481 -257L719 -278C730 -279 732 -284 722 -291L686 -316C643 -298 608 -294 286 -270C340 -318 365 -346 397 -393L631 -407L809 -191ZM656 -138L642 -14L395 4L393 -119Z"/>
</svg>