<svg xmlns="http://www.w3.org/2000/svg" viewBox="0 -1000 1000 1000">
	<path fill="#000000" d="M344 -738L229 -829L216 -817L314 -666C320 -658 325 -658 329 -667C337 -688 341 -710 344 -738ZM885 -467L841 -506L819 -470L717 -459L763 -653C770 -681 782 -704 803 -716C814 -722 813 -727 805 -734L757 -777L728 -732L415 -692L463 -650C481 -659 508 -666 540 -671C543 -623 539 -541 530 -468C498 -216 462 -97 317 65L333 76C507 -93 546 -230 577 -535C581 -560 590 -595 599 -610C603 -617 603 -621 599 -626L565 -674L730 -696L686 -500C678 -467 669 -458 647 -445L683 -409C688 -404 692 -404 695 -408C709 -421 748 -431 817 -436C773 -165 731 -43 698 -8L574 -108L562 -95C618 -34 662 26 683 66C690 79 697 81 707 68C762 -4 785 -51 849 -358C863 -423 867 -436 882 -445C893 -452 895 -458 885 -467ZM421 -294C424 -318 424 -343 419 -369L302 -433V-458C317 -480 333 -502 351 -530C364 -550 377 -561 398 -573C404 -577 405 -582 400 -587L358 -637L329 -597L56 -554L106 -516C145 -528 211 -544 319 -561C249 -426 166 -323 41 -224L54 -209C144 -277 202 -326 263 -405V-134C263 -49 256 -14 242 14L282 88C288 98 293 98 296 87C302 67 302 47 302 -50V-406L408 -291C415 -284 420 -285 421 -294Z"/>
</svg>