<svg xmlns="http://www.w3.org/2000/svg" viewBox="0 -1000 1000 1000">
	<path fill="#000000" d="M334 -757L223 -845L210 -833L303 -684C308 -675 314 -676 317 -685C325 -705 331 -730 334 -757ZM872 -551L838 -580C811 -567 748 -550 653 -539C714 -642 745 -678 766 -688C776 -693 776 -697 768 -704L720 -749L692 -708L542 -684C547 -694 551 -702 557 -715C582 -769 590 -781 597 -785C606 -790 607 -794 602 -800L554 -858L538 -852C554 -795 471 -599 358 -449L374 -439C394 -462 418 -491 443 -525C448 -174 416 -73 296 82L310 94C443 -48 481 -123 485 -484L870 -533C884 -535 885 -540 872 -551ZM392 -336C393 -352 393 -374 392 -401L283 -459V-464C303 -491 319 -515 340 -547C356 -572 366 -582 388 -595C396 -600 397 -606 390 -612L344 -655L313 -613L61 -576L110 -538C152 -551 172 -557 310 -578C247 -458 173 -364 35 -238L46 -225C121 -280 187 -344 247 -416V-146C247 -61 240 -26 226 1L260 76C266 89 272 89 275 75C281 49 283 29 283 -68V-433L377 -331C385 -322 391 -324 392 -336ZM923 12C908 -43 898 -101 892 -178L874 -176L869 -14C840 -2 750 4 693 1C608 -2 585 -12 585 -115V-354L746 -380C736 -287 723 -220 707 -180L624 -239L614 -226C645 -193 679 -152 702 -116C707 -107 711 -106 718 -113C747 -142 765 -196 780 -344C785 -379 790 -390 807 -399C818 -405 819 -411 806 -420L759 -451L739 -412L586 -386L549 -444L537 -439C545 -402 548 -374 548 -311V-106C548 15 576 30 693 38C751 42 852 39 915 27C923 25 925 21 923 12ZM688 -674L621 -535L481 -518L462 -552C483 -583 504 -616 522 -647Z"/>
</svg>