<svg xmlns="http://www.w3.org/2000/svg" viewBox="0 -1000 1000 1000">
	<path fill="#000000" d="M325 -725L216 -813L204 -801L291 -663C300 -648 305 -649 310 -661C315 -672 320 -691 325 -725ZM952 44V27C857 18 801 -9 710 -124L639 -213L889 -234C905 -235 905 -239 893 -249L853 -282C815 -270 752 -256 609 -242C621 -273 626 -281 634 -285C644 -291 645 -295 639 -303L607 -346C682 -426 713 -494 739 -651L812 -664C799 -532 784 -432 763 -401L702 -445L690 -432C722 -394 739 -371 757 -341C763 -331 768 -331 775 -339C806 -376 828 -435 849 -610C854 -652 859 -665 878 -680C889 -688 890 -693 881 -699L836 -736L810 -698L643 -667L608 -694C586 -682 563 -675 532 -670C532 -745 534 -764 543 -781C549 -792 548 -796 541 -802L489 -851L475 -845C493 -796 497 -748 497 -665L368 -645L409 -611C435 -620 459 -626 497 -633V-555L385 -537L425 -507C446 -515 467 -521 497 -526V-444L357 -421L395 -390C412 -397 440 -405 497 -414C497 -366 493 -348 482 -333L513 -278C520 -266 525 -267 529 -280C531 -292 532 -322 532 -419L640 -436C628 -411 612 -385 595 -360L585 -352C587 -327 581 -292 565 -238L330 -216L372 -177C401 -186 469 -198 556 -207C524 -113 424 1 293 77L302 91C471 1 549 -86 598 -210L611 -211L802 53ZM390 -305C393 -314 393 -333 390 -362L278 -417V-429C296 -453 315 -479 336 -510C354 -536 365 -546 377 -551C389 -556 390 -562 379 -571L337 -606L305 -558L55 -519L99 -481C126 -492 149 -498 289 -522C249 -447 160 -318 55 -222L63 -209C132 -260 185 -311 241 -379V-97C241 -22 238 -7 225 19L255 77C261 88 266 89 270 75C276 59 278 24 278 -52V-392L374 -306C384 -296 387 -297 390 -305ZM695 -645C689 -582 675 -518 646 -450L610 -475C588 -464 566 -456 532 -449V-531L625 -546C640 -549 640 -552 628 -562L601 -584C584 -576 561 -568 532 -562V-638L618 -652L649 -629C664 -637 676 -641 695 -645Z"/>
</svg>