<svg xmlns="http://www.w3.org/2000/svg" viewBox="0 -1000 1000 1000">
	<path fill="#000000" d="M281 -744L186 -827L172 -812L252 -674C259 -663 265 -662 269 -675C276 -698 280 -721 281 -744ZM675 -701L587 -789L576 -779L645 -634C651 -622 658 -622 662 -636C669 -660 673 -679 675 -701ZM464 -634L379 -734L364 -725L433 -565C437 -554 445 -554 451 -566C459 -582 463 -597 464 -634ZM899 -636L863 -665C846 -656 800 -641 752 -631C808 -735 816 -749 828 -757C837 -763 837 -767 829 -781L795 -837L782 -833C783 -786 764 -727 718 -625L498 -591L543 -557C564 -565 600 -574 698 -589C677 -546 609 -473 515 -417L526 -397C578 -426 618 -450 651 -476C659 -468 667 -458 673 -446C643 -397 595 -345 523 -287L535 -271C598 -310 653 -359 696 -408C703 -393 708 -381 711 -371C661 -290 598 -227 509 -166L522 -150C596 -193 673 -260 719 -315C726 -227 709 -151 690 -122L621 -180L607 -166C632 -134 653 -101 678 -55C682 -47 686 -45 696 -56C744 -107 770 -197 754 -338L873 -213C885 -200 891 -203 892 -218C893 -237 892 -252 889 -275L755 -367C769 -381 779 -392 796 -418C817 -449 829 -460 838 -463C849 -467 851 -472 847 -481L824 -542L808 -538C808 -512 774 -438 744 -392C732 -422 705 -461 670 -493C674 -496 678 -500 682 -503C723 -541 730 -547 737 -549C752 -554 753 -558 747 -566L726 -594L894 -622C908 -624 909 -628 899 -636ZM353 -348L252 -414V-440C274 -471 293 -502 313 -538C323 -555 335 -571 348 -579C358 -585 358 -589 350 -596L297 -642L272 -592L50 -557L100 -525C128 -533 177 -544 270 -559C223 -447 126 -313 33 -224L43 -210C104 -259 160 -315 215 -387V-115C215 -34 209 6 196 23L230 88C237 101 243 99 246 87C251 67 252 47 252 -69V-386L330 -285C336 -278 340 -279 343 -287C350 -310 352 -328 353 -348ZM918 44V25C764 33 733 31 563 -63C518 -87 471 -105 437 -110C496 -184 499 -231 433 -291C481 -395 494 -413 509 -421C520 -427 520 -432 510 -442L470 -483L445 -444L309 -420L355 -388C375 -397 409 -405 444 -411L402 -286C453 -234 451 -182 407 -114C373 -117 344 -115 309 -111L345 -67C398 -84 412 -84 475 -65C533 -48 615 1 730 81Z"/>
</svg>