<svg xmlns="http://www.w3.org/2000/svg" viewBox="0 -1000 1000 1000">
	<path fill="#000000" d="M815 -623C824 -630 824 -634 814 -643L767 -683L737 -639L486 -610C492 -637 498 -660 503 -684C516 -742 530 -770 541 -777C548 -781 550 -786 545 -793L489 -866L473 -860C483 -826 475 -751 440 -606L237 -584L187 -663L173 -655C183 -612 190 -542 190 -460V-117C190 -49 184 -30 168 -10L208 82C215 95 221 96 224 84C230 61 232 45 232 -76V-547L431 -569C410 -483 388 -410 370 -358C348 -296 344 -293 276 -282L327 -238C332 -234 336 -234 343 -238C376 -255 408 -264 588 -311L614 -230C619 -215 626 -212 633 -226C646 -252 655 -276 662 -300L544 -493L530 -484L578 -337L385 -300C410 -359 446 -463 475 -573L745 -600V-119C745 -52 740 -24 732 -5L639 -69L627 -53C694 21 711 41 743 82C749 90 756 89 760 81C780 44 788 7 788 -91V-555C788 -593 797 -609 815 -623Z"/>
</svg>