<svg xmlns="http://www.w3.org/2000/svg" viewBox="0 -1000 1000 1000">
	<path fill="#000000" d="M934 -5C917 -67 911 -96 903 -189H885L877 -26C824 -10 777 -6 719 -7C643 -9 624 -31 624 -125V-369L848 -425C860 -428 860 -432 851 -439L809 -470C776 -451 736 -435 624 -406V-665C648 -674 666 -682 679 -688C719 -705 777 -728 798 -734C808 -737 808 -742 801 -749L754 -796L742 -794C728 -758 675 -716 426 -619L433 -597C462 -607 527 -628 582 -648V-395L421 -353L466 -321C499 -334 525 -343 582 -357V-134C582 -2 605 25 707 34C762 39 828 34 927 12C935 10 937 7 934 -5ZM437 -552L405 -584C389 -574 353 -562 303 -551V-714C342 -728 387 -742 405 -746C415 -748 416 -752 409 -761L369 -809L357 -806C353 -782 317 -750 111 -676L115 -658C140 -665 213 -682 264 -699V-546L76 -518L122 -481C140 -488 192 -500 242 -510C204 -385 139 -257 55 -147L69 -135C125 -189 210 -315 264 -441V-144C264 -41 257 -8 241 16L280 92C288 105 292 105 296 92C302 73 303 54 303 -100V-426L397 -319C405 -310 410 -311 413 -323C417 -339 416 -358 412 -390L303 -459V-519L433 -538C445 -540 446 -543 437 -552Z"/>
</svg>