<svg xmlns="http://www.w3.org/2000/svg" viewBox="0 -1000 1000 1000">
	<path fill="#000000" d="M924 -1C907 -55 896 -99 881 -218H863L860 -20C822 -4 742 0 686 -8C631 -16 617 -50 617 -127V-297L867 -356C877 -358 877 -363 870 -367L821 -400C796 -382 760 -370 617 -334V-482L804 -524C814 -526 815 -530 807 -535L759 -566C739 -551 702 -537 617 -518V-692C646 -704 668 -715 687 -725C740 -752 756 -759 774 -766C783 -769 785 -774 777 -780L725 -818L717 -813C671 -761 633 -737 409 -630L417 -616C480 -638 533 -658 576 -675V-510L412 -474L463 -442C489 -452 509 -459 576 -474V-325L381 -281L434 -247C455 -259 478 -266 576 -289V-132C576 -7 593 20 672 33C728 42 843 38 917 17C924 15 927 11 924 -1ZM453 -547L416 -581C397 -567 359 -554 304 -545V-713C378 -747 400 -757 419 -763C430 -766 431 -771 422 -779L375 -818L362 -814C333 -775 237 -706 98 -647L104 -632C169 -654 221 -674 266 -695V-540L71 -512L123 -474C148 -484 195 -496 263 -507C232 -408 149 -270 55 -161L70 -148C131 -210 215 -312 266 -399V-139C266 -38 261 -6 245 18L282 92C289 105 294 105 297 92C302 73 304 40 304 -95V-430L392 -322C400 -313 407 -314 408 -326C410 -346 411 -364 410 -382L304 -461V-512L449 -533C460 -535 461 -540 453 -547Z"/>
</svg>