<svg xmlns="http://www.w3.org/2000/svg" viewBox="0 -1000 1000 1000">
	<path fill="#000000" d="M941 -30L892 -65C860 -50 803 -39 536 -17V-239L811 -269C826 -271 827 -275 814 -286L789 -307L800 -433C804 -477 813 -487 832 -498C843 -504 843 -508 834 -516L782 -559L752 -515L536 -484V-659L878 -699C892 -701 893 -705 882 -715L841 -747C815 -732 760 -720 534 -693L491 -791L477 -785C488 -736 495 -673 495 -616V-66C495 -25 488 -14 449 6L498 48C503 53 507 53 514 45C526 31 548 22 591 18L938 -15C951 -16 952 -22 941 -30ZM458 -532L421 -566C408 -555 382 -544 311 -531V-702C385 -740 403 -748 418 -753C427 -756 428 -761 420 -769L376 -810L364 -806C362 -782 295 -724 103 -638L108 -624C150 -637 222 -662 273 -684V-526L84 -496L136 -459C156 -468 198 -478 273 -490C236 -385 154 -250 50 -135L63 -121C137 -187 221 -292 273 -380V-133C273 -32 265 0 249 24L289 98C296 111 301 111 304 98C309 77 311 46 311 -89V-411L403 -301C411 -292 416 -293 420 -306C425 -326 428 -359 428 -373L311 -443V-495L454 -518C465 -520 467 -524 458 -532ZM760 -477L745 -302L536 -275V-448Z"/>
</svg>