<svg xmlns="http://www.w3.org/2000/svg" viewBox="0 -1000 1000 1000">
	<path fill="#000000" d="M915 -48L873 -86C850 -70 822 -63 647 -50C650 -65 651 -89 651 -147V-394C651 -447 654 -455 661 -464C667 -472 666 -477 657 -483L625 -505C659 -574 678 -596 689 -603C695 -607 695 -611 690 -621L664 -669L875 -696C887 -698 887 -702 877 -710L838 -743C800 -723 658 -695 416 -674L455 -635C494 -647 538 -654 640 -667C619 -541 502 -338 345 -180L357 -164C457 -254 558 -380 608 -474C610 -458 611 -436 611 -407V-197C611 -148 607 -125 592 -102L626 -47L362 -26L413 16C478 2 574 -11 912 -33C925 -34 926 -38 915 -48ZM450 -531L413 -565C396 -553 355 -541 300 -530V-692C356 -719 395 -733 429 -742C438 -744 439 -750 432 -757L383 -808L370 -804C368 -772 275 -706 91 -643L101 -624C162 -640 211 -656 260 -675V-524L60 -493L112 -456C131 -463 188 -476 246 -485C203 -362 134 -230 46 -115L58 -100C133 -177 212 -297 260 -402V-143C260 -36 255 -11 239 14L277 88C284 101 289 101 292 88C297 66 300 37 300 -100V-402L393 -304C402 -295 407 -296 408 -308C409 -329 408 -356 406 -371L300 -429V-494L446 -517C458 -519 459 -523 450 -531ZM886 -308L702 -461L691 -444C770 -356 818 -295 862 -225C867 -216 873 -218 876 -226C883 -247 886 -273 886 -308Z"/>
</svg>