<svg xmlns="http://www.w3.org/2000/svg" viewBox="0 -1000 1000 1000">
	<path fill="#000000" d="M927 63C914 9 906 -43 895 -189L876 -190L870 -1C778 -57 704 -177 678 -423L862 -447C873 -448 874 -453 864 -461L821 -495C805 -483 748 -465 675 -454C664 -577 665 -610 677 -633C680 -640 679 -644 671 -653L642 -685C661 -692 682 -699 701 -706C770 -732 797 -741 816 -744C828 -746 828 -753 819 -761L775 -799L762 -795C749 -769 739 -757 484 -660L453 -736L437 -732C445 -685 445 -666 445 -518V-103C445 -14 441 -4 413 28L458 51C466 55 471 53 473 46C480 26 496 2 581 -108L660 25C666 35 671 35 674 26C680 9 686 -27 686 -49L593 -124C607 -142 621 -164 639 -185L624 -195L484 -41V-398L635 -419C656 -192 746 7 909 75C928 83 931 80 927 63ZM433 -543L396 -572C380 -562 342 -549 290 -538V-688C296 -691 301 -693 306 -695C363 -719 380 -725 401 -730C414 -733 418 -740 409 -748L366 -783L352 -778C343 -755 331 -745 94 -644L100 -628C141 -637 198 -654 250 -674V-532L71 -499L123 -468C140 -475 189 -486 238 -496C207 -403 142 -266 50 -156L63 -144C130 -210 206 -318 250 -405V-140C250 -44 245 -7 229 17L266 91C273 105 279 102 283 91C289 74 290 61 290 -60V-420L392 -298C398 -290 402 -292 406 -306C410 -322 411 -346 410 -366L290 -448V-504L429 -529C441 -531 442 -536 433 -543ZM633 -449L484 -431V-634C518 -644 563 -658 611 -675C615 -647 620 -607 622 -575C625 -535 631 -482 633 -449Z"/>
</svg>