<svg xmlns="http://www.w3.org/2000/svg" viewBox="0 -1000 1000 1000">
	<path fill="#000000" d="M838 -776L795 -833L784 -828C780 -804 707 -769 409 -693L413 -677C483 -684 617 -713 732 -742C808 -761 818 -763 832 -763C843 -763 844 -768 838 -776ZM831 -672L799 -734L785 -730C781 -676 760 -629 685 -505L699 -496C792 -627 811 -647 827 -658C833 -662 834 -667 831 -672ZM675 -587L594 -681L580 -671L644 -528C648 -520 653 -520 657 -528C665 -545 673 -572 675 -587ZM545 -568L457 -656L444 -647L512 -504C516 -496 521 -496 525 -504C537 -528 542 -545 545 -568ZM452 -519L408 -550C389 -540 346 -529 308 -524V-699C376 -730 385 -734 405 -738C413 -739 415 -743 414 -750L406 -824L388 -823C385 -788 284 -718 89 -632L96 -616C150 -634 199 -652 267 -682V-520L72 -499L123 -458C149 -466 210 -479 264 -485C225 -376 152 -261 53 -140L64 -130C139 -200 214 -292 267 -385V-155C267 -73 263 -51 249 -26L289 64C292 71 297 72 300 63C306 46 308 19 308 -104V-415L411 -307C418 -300 421 -300 423 -310C427 -333 427 -347 424 -370L308 -440V-490L446 -506C461 -507 463 -511 452 -519ZM931 -266L882 -304C856 -290 791 -277 671 -269C668 -276 665 -282 661 -288L788 -428C804 -446 825 -459 844 -465C852 -467 853 -472 847 -479L809 -526L771 -489L416 -450L474 -409C511 -421 579 -435 754 -454L651 -310C638 -333 620 -359 606 -372L595 -364C610 -340 623 -308 636 -267L367 -250L420 -207C457 -217 529 -225 645 -233C666 -128 657 -24 635 7L511 -82L500 -67C543 -24 590 31 633 87C640 95 644 96 649 88C699 23 720 -103 683 -235L927 -252C942 -253 943 -257 931 -266Z"/>
</svg>