<svg xmlns="http://www.w3.org/2000/svg" viewBox="0 -1000 1000 1000">
	<path fill="#000000" d="M423 -547L390 -575C370 -566 333 -555 302 -550V-711C378 -749 389 -754 406 -759C417 -762 417 -766 409 -774L363 -821L354 -817C350 -792 276 -723 92 -647L99 -632C148 -648 217 -673 263 -693V-545L71 -521L119 -485C145 -493 187 -501 262 -512C218 -401 146 -293 47 -180L59 -168C141 -239 212 -328 263 -419V-167C263 -72 254 -37 238 -6L279 77C285 88 290 88 294 76C299 64 302 18 302 -86V-439L382 -336C390 -326 395 -327 398 -334C402 -349 406 -376 406 -393L302 -467V-518L417 -534C430 -536 431 -540 423 -547ZM954 -64V-81C860 -92 801 -135 718 -264L667 -343L881 -363C895 -364 896 -368 885 -377L843 -410C813 -395 726 -378 636 -372V-474L796 -487C809 -488 811 -491 802 -501L781 -525L811 -693C817 -727 823 -737 843 -747C850 -751 850 -756 845 -762L805 -807L773 -772L488 -743L450 -797L438 -788C447 -752 453 -711 454 -681L460 -549C461 -520 453 -489 445 -479L481 -424C489 -412 493 -412 497 -425C499 -433 500 -442 500 -463L597 -471V-370L408 -358L437 -318C465 -325 483 -328 554 -334C502 -234 440 -158 308 -45L317 -30C448 -119 536 -216 597 -324V-196C597 -75 586 -31 567 -8L608 73C617 90 623 90 627 73C633 51 636 19 636 -87V-342L808 -57ZM773 -736L742 -520L636 -508V-599L729 -611C742 -612 743 -615 733 -624L705 -650C692 -643 670 -637 636 -633V-723ZM597 -504L500 -494L493 -710L597 -720V-629L501 -617L534 -583C554 -589 569 -592 597 -596Z"/>
</svg>