<svg xmlns="http://www.w3.org/2000/svg" viewBox="0 -1000 1000 1000">
	<path fill="#000000" d="M719 -783L699 -846L684 -842C673 -799 662 -778 612 -702L488 -787L476 -770C522 -737 559 -706 595 -676C564 -634 525 -589 477 -543L489 -531C544 -576 582 -611 618 -653C643 -632 668 -607 697 -575C705 -566 712 -567 714 -580C717 -597 717 -605 717 -630L642 -682C654 -697 665 -712 677 -731C693 -757 703 -764 713 -768C720 -771 722 -774 719 -783ZM824 -690L780 -747L768 -740C777 -716 777 -696 772 -651C766 -597 760 -566 750 -547L469 -520V-623C469 -636 473 -648 482 -661C486 -666 485 -669 479 -675L427 -732L415 -723C429 -697 435 -672 435 -639V-545C435 -517 432 -512 416 -502L450 -468C455 -463 459 -463 463 -470C469 -480 478 -485 508 -490C495 -445 421 -349 338 -286L347 -273C407 -314 454 -352 498 -400C532 -435 537 -440 542 -442C550 -446 553 -450 549 -458L533 -493L744 -516L755 -477C757 -469 761 -467 768 -477C779 -492 784 -507 790 -542L808 -645C810 -657 817 -670 823 -676C828 -681 828 -684 824 -690ZM848 -341C849 -353 846 -376 841 -402L646 -482L638 -468L832 -337C840 -331 847 -332 848 -341ZM403 -559L370 -584C361 -578 326 -565 285 -555V-707C339 -730 355 -736 375 -738C388 -739 390 -745 383 -753L346 -800L334 -792C334 -772 308 -751 91 -659L96 -640C142 -653 201 -674 247 -693V-547L68 -512L116 -480C129 -486 180 -500 236 -512C204 -420 128 -258 39 -149L54 -139C118 -202 193 -318 247 -426V-153C247 -63 240 -27 225 -3L265 74C271 86 278 85 281 72C284 59 285 26 285 -74V-438L376 -346C383 -339 387 -340 389 -350C394 -375 394 -390 392 -412L285 -465V-522L400 -543C415 -546 415 -550 403 -559ZM941 40L940 17C855 20 803 5 727 -64L651 -131C675 -166 700 -204 730 -263C746 -292 757 -304 773 -314C779 -318 779 -324 774 -330L739 -375L705 -336L557 -313C573 -339 579 -345 586 -350C595 -356 596 -360 591 -369L561 -425L547 -420C550 -352 448 -191 347 -100L359 -84C406 -124 455 -171 498 -226C519 -213 549 -188 572 -165L605 -130C544 -54 440 28 308 83L316 101C450 53 564 -20 633 -104L789 58ZM702 -303C674 -239 653 -197 623 -157C572 -208 554 -231 553 -248L513 -247C525 -262 537 -279 547 -295L576 -276C613 -289 626 -291 702 -303Z"/>
</svg>