<svg xmlns="http://www.w3.org/2000/svg" viewBox="0 -1000 1000 1000">
	<path fill="#000000" d="M682 -778L590 -855L580 -845L643 -719C648 -709 653 -709 660 -719C672 -739 677 -753 682 -778ZM403 -539L371 -565C360 -557 313 -545 276 -540V-706C355 -735 378 -741 390 -742C404 -743 406 -750 398 -758L358 -798L346 -794C344 -775 317 -752 91 -678L95 -660C143 -669 198 -683 238 -695V-535L64 -513L110 -478C126 -484 179 -494 235 -502C194 -386 132 -260 47 -145L62 -135C134 -213 179 -277 238 -402V-144C238 -53 231 -17 215 9L256 86C263 98 268 97 271 84C274 67 276 37 276 -64V-435L362 -323C369 -313 374 -314 377 -326C381 -342 383 -365 382 -386L276 -459V-509L398 -524C411 -526 412 -531 403 -539ZM927 -181C915 -214 897 -280 887 -335H870L873 -195C845 -184 772 -176 745 -179C715 -183 706 -194 706 -226V-259C739 -275 770 -293 819 -327C839 -341 852 -348 856 -349C866 -351 868 -354 864 -364L840 -416L829 -413C824 -385 797 -346 706 -287V-328C706 -354 712 -373 716 -379C720 -385 719 -388 716 -392L690 -422L843 -439C855 -440 856 -444 848 -452L829 -470L840 -526C845 -550 850 -559 860 -570C866 -576 866 -579 859 -585L821 -617L800 -587L712 -577C715 -605 719 -629 726 -638C732 -646 731 -649 723 -656L704 -673L895 -694C912 -696 914 -700 900 -710L861 -738C813 -724 774 -719 454 -680L434 -753L414 -750C420 -690 417 -547 406 -396C390 -177 354 -40 275 80L288 92C380 -20 424 -134 446 -409L466 -393C474 -394 483 -396 490 -397C496 -380 499 -351 499 -327V-233C499 -182 493 -173 462 -157L500 -125C507 -119 511 -119 516 -127C525 -141 565 -179 654 -238L645 -255L534 -191V-279L656 -293C666 -294 666 -299 660 -304L627 -329C616 -323 592 -317 534 -309C534 -331 539 -352 545 -358C550 -363 550 -367 543 -373L509 -400L664 -420C668 -405 670 -386 670 -370V-234C670 -175 684 -153 743 -145C778 -140 876 -151 921 -163C931 -166 932 -169 927 -181ZM897 -1L767 -124L757 -112L854 59C860 70 865 71 872 61C882 46 891 24 897 -1ZM749 8L666 -112L653 -104L699 49C701 57 707 59 714 53C734 36 744 23 749 8ZM635 15L567 -111L553 -104L583 58C585 68 589 71 597 63C612 48 623 34 635 15ZM514 -96L499 -99C480 -28 440 7 397 25L405 78C407 88 411 90 424 80C468 45 499 5 514 -96ZM676 -574L586 -563C587 -601 590 -613 593 -617C596 -621 596 -625 592 -629L565 -657L670 -670C676 -651 679 -623 676 -574ZM548 -559L453 -548C455 -582 457 -618 458 -646L534 -654C542 -634 545 -612 548 -559ZM804 -554L794 -470L706 -460L710 -543ZM674 -539L670 -455L586 -445V-528ZM549 -441L447 -429C448 -450 450 -488 452 -528L475 -511C491 -515 512 -519 549 -524Z"/>
</svg>