<svg xmlns="http://www.w3.org/2000/svg" viewBox="0 -1000 1000 1000">
	<path fill="#000000" d="M853 -649L813 -682L786 -650L671 -638C718 -706 742 -725 757 -731C770 -736 771 -741 761 -751L724 -790L696 -752L567 -737C576 -754 590 -776 601 -786C609 -794 610 -798 606 -805L567 -862L555 -855C559 -795 514 -691 415 -566L388 -592C369 -581 340 -572 295 -564V-716C319 -726 370 -744 390 -750C405 -754 407 -759 397 -768L355 -806L344 -803C330 -776 309 -760 106 -667L113 -652C151 -665 210 -683 257 -700V-559L72 -534L120 -499C131 -506 185 -519 250 -528C213 -419 142 -298 47 -190L61 -178C143 -258 209 -347 257 -444V-151C257 -63 252 -27 232 11L267 79C276 96 282 95 287 78C294 53 295 30 295 -101V-430L365 -332C373 -321 379 -322 382 -334C386 -350 388 -370 387 -392L295 -460V-533L401 -547C392 -534 384 -524 374 -513L388 -500C414 -525 439 -551 461 -578L465 -436C466 -410 463 -393 454 -374L483 -327C492 -312 497 -313 500 -331C501 -339 502 -352 502 -380L830 -411C843 -412 844 -417 834 -426L812 -446L825 -563C829 -601 836 -616 851 -628C861 -637 862 -641 853 -649ZM740 -319L665 -384L652 -375L711 -267C717 -256 722 -257 727 -268C733 -281 737 -297 740 -319ZM907 -243C908 -259 906 -283 903 -308L776 -390L765 -376C826 -320 856 -287 890 -240C899 -228 906 -229 907 -243ZM603 -296L536 -372L525 -364L567 -250C572 -237 576 -236 585 -250C592 -261 598 -278 603 -296ZM455 -363L438 -364C432 -301 413 -266 374 -246L377 -187C378 -175 383 -173 394 -183C439 -224 453 -270 455 -363ZM805 -227C813 -237 812 -241 805 -247L766 -279L745 -244L519 -222L490 -284L476 -279C482 -252 486 -222 487 -185L489 -50C490 -12 485 14 474 30L506 87C515 104 522 103 525 83C526 75 526 59 526 37L716 20L742 79C748 92 753 93 760 78C766 65 773 28 776 -18L787 -175C788 -197 794 -214 805 -227ZM686 -720L636 -635L494 -620C514 -647 532 -674 549 -703ZM793 -618L775 -437L652 -424V-506L759 -518C773 -520 774 -523 763 -533L735 -557C720 -549 693 -541 652 -535V-604ZM615 -420L502 -408L497 -590L615 -601V-531L510 -518L541 -488C558 -493 589 -498 615 -501ZM750 -211L744 -77C742 -33 738 -12 731 0L708 -22C689 -11 644 -5 526 4L524 -84L714 -101C731 -102 731 -107 719 -117L693 -139C664 -128 614 -121 523 -115L521 -189Z"/>
</svg>