<svg xmlns="http://www.w3.org/2000/svg" viewBox="0 -1000 1000 1000">
	<path fill="#000000" d="M854 -802L810 -839L800 -834C786 -809 636 -759 393 -704L397 -686C456 -696 555 -715 621 -731C677 -744 715 -754 746 -765C788 -779 828 -787 850 -788C864 -789 865 -793 854 -802ZM677 -648L614 -724L601 -717L636 -604C640 -590 647 -590 655 -602C665 -619 672 -633 677 -648ZM544 -635L473 -693L460 -683L508 -584C512 -575 517 -575 524 -585C535 -602 541 -616 544 -635ZM877 -590C884 -595 884 -599 876 -606L832 -644L808 -604L753 -597C789 -658 807 -682 820 -689C828 -693 829 -698 823 -706L784 -763L769 -757C773 -717 766 -688 725 -595L467 -568L445 -627L428 -622C433 -594 437 -571 438 -548L441 -472C442 -454 441 -438 438 -419L460 -377C468 -362 479 -365 479 -401L854 -436C871 -438 873 -441 859 -454L836 -475L850 -548C854 -570 862 -579 877 -590ZM417 -537L381 -569C364 -557 347 -550 301 -543V-704C362 -729 383 -736 397 -739C405 -741 406 -747 400 -754L361 -796L348 -792C341 -763 304 -737 103 -655L111 -639C149 -650 210 -671 260 -689V-538L69 -510L121 -472C140 -482 172 -491 248 -501C209 -386 136 -263 48 -142L63 -131C123 -190 207 -312 260 -413V-138C260 -37 255 -5 239 19L279 93C285 104 290 105 294 93C299 77 301 53 301 -94V-417L378 -306C385 -296 391 -297 394 -307C400 -328 402 -359 401 -373L301 -447V-508L413 -523C424 -524 426 -529 417 -537ZM658 -327C668 -332 668 -338 658 -347L617 -379L594 -341L458 -324L430 -391L415 -384C423 -349 427 -310 427 -274V-52C427 -11 424 -5 389 18L432 51C438 55 442 54 446 47C455 32 479 15 582 -43L615 10C621 20 627 19 631 8C637 -10 640 -34 640 -52L544 -135L531 -125L568 -64L462 -16V-133L629 -154C643 -156 644 -160 633 -171L618 -187L634 -286C637 -310 643 -320 658 -327ZM746 -153L686 -233L671 -229L708 -102C711 -91 717 -91 724 -101C733 -114 741 -129 746 -153ZM937 -302L908 -326C888 -316 864 -310 826 -304C826 -334 830 -362 836 -371C842 -380 840 -383 829 -392L788 -424L774 -416C787 -383 792 -349 791 -300L641 -279L683 -247C709 -256 729 -261 791 -269V-80C791 -19 788 -5 784 11L696 -55L686 -42C728 1 763 47 784 88C790 100 797 100 804 89C822 59 826 42 826 -31V-272L933 -284C949 -286 950 -291 937 -302ZM815 -572L798 -464L716 -456L722 -562ZM687 -559L682 -453L605 -446L604 -548ZM570 -443L476 -435L473 -534L567 -544ZM598 -310L585 -182L462 -166V-214L570 -228C584 -230 585 -235 574 -244L550 -265C537 -259 515 -252 462 -244V-293Z"/>
</svg>