<svg xmlns="http://www.w3.org/2000/svg" viewBox="0 -1000 1000 1000">
	<path fill="#000000" d="M544 -781L454 -852L443 -840L512 -712C516 -704 523 -704 527 -712C537 -731 543 -755 544 -781ZM861 -715L824 -758L788 -724L232 -675C233 -692 231 -711 230 -731H210C205 -657 192 -615 153 -581L172 -525C176 -513 180 -511 188 -522C209 -547 224 -588 230 -639L778 -688L738 -623L754 -612C799 -666 841 -692 859 -698C869 -701 869 -706 861 -715ZM827 -522C821 -540 814 -557 797 -590L568 -640L561 -622C665 -587 751 -548 811 -517C826 -510 830 -513 827 -522ZM438 -588L416 -645L404 -643C365 -584 330 -555 171 -461L178 -443C237 -467 303 -501 368 -544C409 -571 417 -573 429 -574C439 -575 442 -579 438 -588ZM692 -474C695 -499 695 -514 692 -533L593 -579L584 -566L676 -473C684 -464 691 -464 692 -474ZM897 75C885 10 876 -60 873 -133L854 -134L845 28C771 3 697 -56 655 -133C675 -159 694 -185 713 -214C730 -240 750 -263 762 -266C767 -267 769 -271 766 -283L742 -368L727 -366C726 -347 705 -270 636 -173C613 -229 584 -327 567 -414L804 -434C817 -435 817 -440 808 -448L765 -484C712 -465 681 -456 562 -446C553 -508 554 -528 562 -541C567 -549 565 -553 559 -558L495 -613L481 -600C491 -586 510 -517 523 -442L119 -406L174 -367C203 -377 311 -390 530 -411C551 -291 576 -203 608 -136C562 -78 496 -10 400 60L409 77C482 34 561 -27 628 -103C686 -10 782 66 881 89C896 92 899 88 897 75ZM498 -334L462 -371L439 -335L269 -314L244 -367L229 -362C236 -336 239 -323 241 -280L244 -210C246 -180 243 -173 233 -160L263 -107C269 -97 273 -97 277 -108C280 -116 282 -128 282 -149L489 -171C499 -172 499 -179 491 -186L465 -208L474 -272C477 -292 485 -312 497 -318C504 -322 505 -327 498 -334ZM533 -107V-129L131 -35L195 3C225 -15 246 -25 533 -107ZM439 -302L429 -198L281 -182L276 -282Z"/>
</svg>