<svg xmlns="http://www.w3.org/2000/svg" viewBox="0 -1000 1000 1000">
	<path fill="#000000" d="M555 -790L449 -865L438 -854L524 -730C529 -723 534 -723 540 -732C549 -748 553 -767 555 -790ZM868 -727L822 -780L789 -745L235 -692C235 -710 232 -730 229 -747L211 -745C211 -653 196 -626 159 -600L184 -533C187 -524 192 -524 198 -532C220 -563 233 -608 235 -659L386 -673C380 -630 359 -602 214 -483L224 -471C258 -488 298 -515 372 -572C386 -582 402 -592 414 -595C421 -596 422 -600 420 -608L403 -674L786 -711L738 -604L752 -595C812 -676 841 -702 866 -712C873 -715 874 -720 868 -727ZM745 -528C745 -543 738 -576 727 -598L566 -650L560 -634C647 -587 679 -566 736 -523C742 -519 745 -521 745 -528ZM952 -357L951 -373C820 -373 760 -396 661 -470L517 -577C525 -582 526 -585 522 -591L491 -640L478 -635C478 -572 316 -429 53 -252L61 -238C109 -262 181 -304 252 -354C258 -326 261 -296 261 -246V-98C261 -24 257 -7 241 16L279 83C286 94 290 93 293 82C296 72 297 61 297 -66V-112L402 -124C412 -125 413 -130 406 -136L376 -162C365 -154 355 -150 297 -142V-202L397 -213C408 -213 410 -217 401 -225L375 -249C365 -242 346 -236 297 -231V-293L442 -312V-98C442 -40 439 -12 434 7L378 -26L369 -13C407 26 427 48 450 83C457 92 462 91 466 81C475 55 479 34 479 -72V-284C479 -313 483 -321 497 -331C506 -338 505 -344 497 -349L456 -380L433 -342L293 -325L270 -367C299 -387 328 -409 353 -430L374 -410C402 -417 469 -425 593 -437C607 -438 609 -443 599 -450L563 -478C535 -466 491 -457 369 -443C428 -489 475 -533 497 -560L791 -322ZM611 -301C613 -308 612 -313 608 -317L569 -358L558 -350C566 -329 569 -305 569 -251V-195C569 -148 567 -142 557 -130L587 -84C595 -72 598 -73 602 -86C604 -95 605 -112 605 -170V-247C605 -282 606 -289 611 -301ZM745 -305C749 -311 748 -316 740 -323L688 -369L676 -361C692 -331 696 -296 696 -229V-53C696 -10 693 8 688 20L603 -31L594 -18C643 29 682 71 703 97C711 107 716 105 721 93C733 63 734 49 734 -44V-234C734 -277 736 -290 745 -305Z"/>
</svg>