<svg xmlns="http://www.w3.org/2000/svg" viewBox="0 -1000 1000 1000">
	<path fill="#000000" d="M337 -692L241 -835L226 -827L289 -607C293 -595 298 -593 306 -606C317 -625 334 -672 337 -692ZM455 -566L418 -599C398 -585 323 -569 73 -537L127 -497C150 -508 236 -524 451 -554C462 -556 462 -559 455 -566ZM893 -623C903 -628 902 -633 893 -641L842 -687L812 -641L538 -599C558 -642 576 -683 594 -727C602 -747 614 -767 626 -779C631 -784 631 -790 625 -797L568 -864L554 -857C563 -776 515 -596 388 -388L404 -377C439 -422 482 -488 517 -559L821 -603C791 -156 773 -66 745 2L632 -87L619 -72C678 -4 712 41 743 92C749 102 755 102 762 89C805 3 835 -130 864 -554C867 -602 875 -614 893 -623ZM733 -446C740 -452 740 -456 732 -464L692 -504L668 -468L527 -444L505 -510L490 -500C494 -475 495 -456 495 -416V-283C495 -257 491 -241 480 -222L514 -161C521 -149 528 -150 530 -164C533 -185 534 -196 534 -221L704 -243C723 -245 723 -253 708 -263L690 -276L710 -401C714 -423 720 -435 733 -446ZM246 -285L172 -448L155 -440L199 -195C201 -182 208 -181 215 -192C228 -213 244 -263 246 -285ZM454 -179L448 -200L298 -156C354 -383 359 -396 381 -419C387 -424 387 -428 383 -435L336 -505L323 -500C327 -447 312 -359 267 -147L67 -88L132 -48C168 -70 257 -109 454 -179ZM669 -433L653 -275L534 -256V-411Z"/>
</svg>