<svg xmlns="http://www.w3.org/2000/svg" viewBox="0 -1000 1000 1000">
	<path fill="#000000" d="M309 -681L225 -799L213 -788L267 -624C270 -614 277 -613 284 -624C295 -642 303 -662 309 -681ZM420 -591L385 -619C352 -599 309 -586 72 -553L121 -516C142 -525 194 -537 418 -577C430 -579 430 -583 420 -591ZM954 -70V-86C877 -97 824 -124 759 -212L659 -345L820 -362C831 -363 832 -368 823 -377L795 -403L805 -473C810 -505 815 -519 827 -526C837 -532 837 -536 829 -543L791 -574L762 -538L640 -519V-610L866 -636C880 -637 881 -642 869 -652L829 -685C806 -674 734 -654 640 -642C640 -727 646 -772 656 -784C663 -792 663 -797 653 -804L594 -851L582 -842C595 -805 600 -753 600 -638L429 -618L473 -582C498 -589 544 -597 600 -604V-514L484 -495L462 -546L446 -542C451 -515 453 -497 454 -462L457 -379C457 -363 450 -338 441 -322L476 -275C483 -267 487 -267 490 -278C493 -290 494 -308 493 -327L578 -338C525 -240 397 -93 257 -5L265 14C409 -77 533 -197 600 -299V-119C600 -47 594 -15 580 9L620 80C626 91 633 92 636 76C639 60 640 35 640 -87V-338L813 -62ZM248 -331L168 -470L156 -465L209 -258C212 -246 216 -244 224 -256C236 -274 246 -306 248 -331ZM440 -259L437 -274L313 -231C351 -427 365 -471 376 -484C382 -491 383 -495 377 -501L336 -546L323 -541C325 -498 319 -435 283 -222L76 -148L138 -111C170 -131 183 -138 440 -259ZM768 -501L757 -395L640 -380V-483ZM600 -376L493 -362L490 -464L600 -479Z"/>
</svg>