<svg xmlns="http://www.w3.org/2000/svg" viewBox="0 -1000 1000 1000">
	<path fill="#000000" d="M402 -284L393 -300L276 -239V-468L398 -495C406 -497 406 -501 399 -507L361 -535C351 -529 308 -513 276 -503V-650C276 -714 282 -746 288 -758C292 -766 291 -770 285 -775L223 -833L212 -824C230 -782 235 -735 235 -651V-493L63 -454L111 -424C133 -432 176 -445 235 -460V-216L47 -117L108 -90C131 -110 203 -162 402 -284ZM941 -179L903 -213C882 -201 834 -191 769 -183L781 -509C782 -549 789 -567 804 -580C812 -587 812 -592 804 -598L764 -631L740 -596L603 -574L613 -661L874 -696C885 -698 885 -701 877 -707L829 -741C792 -723 726 -704 615 -690C624 -773 631 -788 643 -804C648 -811 647 -814 639 -821L590 -865L577 -859C587 -827 586 -767 579 -687L328 -657L377 -619C407 -630 455 -639 577 -655L569 -570L488 -556L442 -609L430 -604C442 -575 448 -536 450 -468L460 -151L273 -132L319 -94C359 -105 431 -116 529 -126C510 -67 458 -19 302 93L311 106C381 70 463 19 511 -20C532 -36 541 -41 556 -44C564 -46 565 -49 563 -56L546 -127L938 -167C948 -168 948 -172 941 -179ZM872 63C873 45 869 21 861 -14L669 -111L661 -97C725 -46 808 22 858 66C867 73 872 71 872 63ZM743 -563L730 -179L499 -155L497 -222L697 -252C707 -253 707 -257 700 -262L662 -293C636 -278 609 -272 496 -256L494 -325L692 -351C701 -352 702 -357 695 -363L661 -391C638 -380 615 -375 493 -359L492 -420L683 -452C692 -453 692 -458 686 -463L654 -489C627 -478 606 -472 491 -451L489 -524Z"/>
</svg>