<svg xmlns="http://www.w3.org/2000/svg" viewBox="0 -1000 1000 1000">
	<path fill="#000000" d="M881 -684L839 -717C816 -701 723 -680 597 -669C634 -747 644 -764 654 -771C663 -778 663 -782 659 -788L609 -854L596 -850C602 -766 557 -642 465 -519L478 -508C506 -536 546 -584 574 -631L651 -640L711 -518C716 -509 722 -509 727 -518C737 -538 743 -557 745 -577L674 -643L877 -669C892 -671 893 -675 881 -684ZM526 -665L492 -692C482 -684 403 -666 285 -652C343 -746 352 -758 359 -762C369 -767 370 -771 365 -780L326 -850L311 -846C312 -761 235 -613 109 -469L122 -457C165 -500 227 -571 259 -615L330 -624L376 -512C380 -502 386 -502 392 -511C402 -527 409 -547 411 -567L353 -626L523 -648C537 -650 538 -656 526 -665ZM693 -494L653 -531L625 -496L338 -460L300 -519L284 -512C296 -485 302 -454 303 -408L305 -340C306 -315 303 -299 294 -285L323 -232C332 -217 339 -218 341 -236C342 -244 342 -265 341 -277L682 -319C697 -321 699 -325 688 -334L659 -359L667 -423C671 -451 681 -468 691 -474C701 -481 702 -486 693 -494ZM754 -215C765 -222 765 -226 753 -236L709 -274L676 -230L284 -186L234 -272L219 -265C232 -236 242 -191 245 -144L250 -64C253 -10 250 6 238 32L275 94C282 106 289 105 290 92C292 69 292 53 291 22L732 -18C745 -19 746 -23 736 -33L709 -62L722 -158C726 -185 736 -204 754 -215ZM633 -464L618 -346L342 -312L340 -426ZM685 -195L668 -47L289 -13L282 -152Z"/>
</svg>