<svg xmlns="http://www.w3.org/2000/svg" viewBox="0 -1000 1000 1000">
	<path fill="#000000" d="M524 -687L490 -715C479 -706 398 -688 278 -675C281 -681 285 -686 288 -691C319 -743 329 -755 335 -758C344 -763 345 -767 341 -778L316 -851L301 -849C288 -763 211 -620 94 -488L105 -476C144 -505 213 -581 253 -639L310 -645L379 -529C385 -519 390 -518 394 -527C401 -544 407 -569 410 -590L339 -649L521 -671C535 -673 536 -677 524 -687ZM868 -704L828 -735C806 -720 753 -710 592 -691C615 -733 633 -763 642 -769C649 -774 650 -778 646 -787L617 -855L602 -850C597 -782 540 -652 451 -534L467 -522C499 -553 542 -605 571 -655L620 -662L706 -549C713 -539 719 -540 722 -556C736 -518 741 -471 741 -356V-112C741 -37 740 -20 735 -1L640 -62L629 -45C684 6 726 54 753 90C760 99 764 99 769 87C782 58 784 37 784 -81V-373C784 -473 787 -496 800 -519C804 -526 803 -530 796 -536L728 -585C730 -594 730 -604 730 -613L656 -666L864 -689C878 -691 878 -696 868 -704ZM651 -416C654 -424 653 -428 646 -434L595 -477L581 -469C596 -435 601 -400 601 -338V-265C601 -199 597 -181 585 -165L621 -111C628 -100 633 -100 636 -111C640 -125 642 -146 642 -216V-327C642 -381 645 -403 651 -416ZM550 -79L547 -99L354 -55V-164L501 -183C513 -185 514 -189 504 -197L471 -224C455 -217 402 -206 354 -198C355 -230 358 -243 364 -250C371 -258 370 -264 361 -271L336 -292L453 -318L489 -272C498 -261 504 -262 506 -275C510 -296 511 -315 509 -346L396 -420L386 -406L436 -339L220 -305L299 -381C324 -404 333 -412 345 -415C353 -417 354 -422 349 -432L339 -453L534 -478C548 -480 547 -485 537 -492L498 -521C457 -504 368 -489 132 -461L168 -426C187 -432 256 -443 300 -450C292 -432 275 -412 235 -362C201 -320 184 -310 138 -297L169 -256C175 -248 178 -248 187 -253C198 -260 225 -268 305 -286C314 -261 315 -253 315 -193L138 -170L181 -133C205 -141 240 -149 315 -160V-46L95 8L158 46C189 31 231 15 550 -79Z"/>
</svg>