<svg xmlns="http://www.w3.org/2000/svg" viewBox="0 -1000 1000 1000">
	<path fill="#000000" d="M481 -318L302 -301L296 -498L481 -515V-437L304 -421L353 -388C374 -395 395 -398 481 -407ZM718 -535L697 -336L519 -321V-410L688 -425C697 -426 698 -432 689 -438L651 -464C631 -454 606 -449 519 -440V-518ZM919 -207L870 -249C842 -237 626 -208 58 -197L127 -144C159 -152 281 -164 370 -169C359 -80 293 22 151 92L159 109C343 31 399 -65 423 -171L590 -179V-55C590 -23 584 3 571 19L609 102C617 118 621 118 626 104C633 82 635 61 635 23V-180L917 -193C928 -194 929 -198 919 -207ZM525 -711L486 -745C472 -734 428 -721 306 -708C354 -775 360 -781 369 -786C376 -790 376 -794 373 -800L343 -861L327 -857C312 -773 230 -648 119 -532L129 -520C193 -576 236 -619 280 -674L331 -679L404 -575C409 -568 414 -569 417 -575C426 -593 429 -605 430 -627L358 -682L521 -697C533 -698 534 -703 525 -711ZM729 -595L712 -573L288 -532L249 -589L238 -582C248 -552 256 -509 257 -484L260 -382C261 -356 259 -339 252 -327L284 -248C290 -236 294 -236 299 -249C301 -255 302 -260 302 -265L759 -300C770 -301 771 -306 763 -314L734 -343L754 -490C759 -524 765 -541 778 -548C784 -552 785 -557 777 -563L742 -590C748 -601 754 -623 755 -642L682 -692L881 -708C894 -709 895 -715 883 -724L837 -760C792 -740 729 -728 604 -719C639 -770 645 -776 658 -783C663 -786 664 -790 661 -796L624 -865L610 -861C615 -816 568 -715 454 -570L466 -560C496 -587 546 -640 579 -684L652 -690Z"/>
</svg>