<svg xmlns="http://www.w3.org/2000/svg" viewBox="0 -1000 1000 1000">
	<path fill="#000000" d="M863 -709L812 -739C788 -723 701 -707 585 -696C619 -757 629 -772 637 -777C649 -784 650 -788 645 -796L604 -858L588 -853C588 -788 535 -661 454 -557L470 -543C501 -574 537 -620 561 -657L631 -666L681 -560C687 -546 693 -546 700 -558C709 -573 717 -596 720 -615L660 -669L859 -692C876 -694 877 -700 863 -709ZM512 -690L478 -718C464 -707 402 -693 293 -681C339 -750 352 -765 360 -769C371 -774 372 -779 367 -789L331 -854L317 -852C304 -766 236 -641 101 -495L113 -481C151 -510 232 -593 270 -647L341 -655L388 -552C393 -541 398 -541 405 -551C416 -568 422 -582 427 -600L371 -659L509 -674C523 -676 524 -680 512 -690ZM371 -521L339 -588L325 -584C334 -533 224 -362 58 -232L69 -215C123 -250 161 -279 198 -314C216 -330 234 -347 248 -363V-133C248 -34 245 -8 224 18L263 104C268 117 276 116 279 103C283 87 286 54 286 9V-410C336 -476 351 -493 364 -499C375 -504 376 -510 371 -521ZM923 38L922 21C792 21 756 12 631 -64L578 -95C594 -130 604 -160 610 -202L786 -221C803 -223 805 -227 795 -237L772 -261L789 -375C793 -407 798 -414 812 -421C823 -426 823 -430 815 -438L772 -481L741 -444L624 -429C625 -454 626 -479 625 -498L846 -520C863 -521 863 -527 851 -535L802 -566C776 -546 518 -515 381 -511L431 -471C446 -478 500 -486 582 -494C584 -480 585 -458 584 -424L457 -408L428 -464L412 -459C417 -441 425 -400 427 -362L431 -293C432 -269 426 -253 418 -239L442 -183L386 -178L388 -163C416 -157 453 -135 530 -84C494 -28 436 21 308 82L316 100C450 46 529 -11 562 -63L759 69ZM584 -391C584 -371 583 -350 582 -326L463 -314L460 -376ZM751 -411L737 -253L614 -237C617 -256 619 -278 619 -300L728 -315C741 -317 742 -323 734 -328L697 -353C687 -347 656 -337 620 -331C621 -355 623 -377 623 -395ZM582 -295C582 -276 580 -254 577 -233L467 -219L464 -295L492 -279C502 -283 537 -289 582 -295ZM571 -197C565 -167 557 -137 546 -114L500 -142C477 -157 468 -162 461 -175C464 -178 466 -181 468 -186Z"/>
</svg>