<svg xmlns="http://www.w3.org/2000/svg" viewBox="0 -1000 1000 1000">
	<path fill="#000000" d="M488 -696L456 -725C440 -718 380 -703 277 -693C313 -748 327 -765 331 -767C341 -772 342 -775 336 -783L299 -842L287 -838C284 -768 198 -626 87 -503L97 -491C136 -523 219 -611 255 -662L289 -665L349 -542C353 -534 357 -533 363 -542C373 -556 382 -579 387 -597L314 -667L486 -682C497 -683 497 -688 488 -696ZM868 -40L824 -74C787 -60 726 -51 542 -37V-120L764 -141C776 -142 776 -147 765 -155L725 -184C693 -172 617 -157 542 -149V-224L745 -242C755 -243 756 -247 746 -256L712 -283C680 -271 612 -259 542 -252V-320L789 -345C801 -346 801 -352 790 -359L745 -387C724 -378 649 -365 562 -355C567 -367 571 -384 574 -403L492 -463L482 -452L542 -353L352 -334C401 -383 441 -433 471 -485L752 -515L706 -433L723 -423C784 -493 807 -513 844 -532C850 -535 850 -539 845 -545L799 -594L762 -551L492 -521C512 -554 518 -562 528 -569C537 -575 538 -578 532 -587L510 -622C527 -640 541 -656 552 -673L598 -677L663 -577C669 -568 674 -568 678 -576C686 -589 691 -608 693 -629L625 -679L853 -698C865 -699 866 -703 856 -711L817 -741C795 -731 695 -716 575 -707C616 -774 622 -780 626 -782C635 -788 636 -792 632 -798L593 -856L580 -851C576 -793 556 -741 496 -643L493 -646L481 -640C480 -602 465 -561 441 -515L250 -493C252 -512 252 -532 252 -552H233C229 -499 199 -444 166 -422L179 -358C181 -349 185 -348 192 -355C220 -384 235 -416 245 -462L422 -480C342 -355 196 -221 66 -149L74 -130C143 -164 214 -211 278 -264V-40C278 -3 274 17 260 42L295 104C301 114 306 113 309 104C315 83 318 62 318 15L865 -25C878 -26 879 -31 868 -40ZM501 -34L318 -21V-296L501 -316V-249L325 -235L363 -202C377 -206 401 -211 501 -220V-147L324 -132L368 -96C393 -103 420 -109 501 -117Z"/>
</svg>