<svg xmlns="http://www.w3.org/2000/svg" viewBox="0 -1000 1000 1000">
	<path fill="#000000" d="M896 -696L861 -726C838 -714 799 -704 598 -677C635 -739 647 -754 664 -766C671 -771 672 -776 669 -782L637 -848L621 -845C617 -783 582 -706 474 -542L486 -527C522 -567 552 -606 575 -642L645 -651L700 -565C706 -557 710 -557 713 -565C718 -577 722 -596 725 -612L675 -655L891 -681C905 -683 906 -688 896 -696ZM513 -673L479 -700C457 -688 427 -680 287 -661C336 -737 350 -752 368 -764C375 -768 376 -774 373 -780L341 -850L326 -848C323 -786 240 -623 78 -444L92 -433C145 -480 215 -561 261 -624L350 -636L389 -547C393 -539 397 -538 403 -546C410 -558 417 -578 419 -594L377 -639L509 -657C524 -659 525 -663 513 -673ZM873 15L827 -23C797 -5 730 4 251 20L259 -458L443 -474C449 -460 452 -435 452 -378L288 -363L325 -330C351 -336 396 -342 452 -346V-275L300 -256L341 -225C369 -233 401 -239 452 -244V-163L283 -143L323 -111C340 -116 364 -120 452 -129C452 -101 443 -72 436 -64L470 -3C476 9 480 10 485 -1C489 -9 490 -22 490 -136V-362C490 -400 494 -418 500 -427C505 -434 504 -438 499 -443L470 -476L568 -484C574 -467 577 -447 577 -387V-160C577 -119 568 -78 558 -63L592 -9C598 0 603 3 607 -7C612 -19 614 -57 614 -135L797 -155C810 -156 810 -162 800 -169L765 -196C741 -187 721 -183 614 -171V-241L746 -260C761 -262 761 -267 749 -274L712 -296C687 -289 657 -283 614 -276V-348L783 -375C797 -377 797 -381 786 -389L749 -415C717 -403 687 -395 614 -384C614 -413 618 -434 628 -445C633 -450 632 -456 626 -461L595 -486L825 -507C839 -508 839 -513 829 -521L792 -551C749 -537 616 -521 257 -492L229 -550L213 -544C219 -511 222 -483 221 -445L211 -50C211 -1 202 22 185 36L223 76C228 82 232 82 237 74C249 56 256 53 276 53L869 29C883 29 885 25 873 15Z"/>
</svg>