<svg xmlns="http://www.w3.org/2000/svg" viewBox="0 -1000 1000 1000">
	<path fill="#000000" d="M901 -712L855 -746C821 -730 752 -711 614 -690C622 -702 631 -716 640 -732C657 -761 668 -775 679 -780C687 -784 689 -789 684 -797L650 -856L632 -853C629 -787 590 -700 490 -555L504 -545C536 -576 559 -604 591 -651L672 -665L743 -545C751 -532 755 -533 760 -548C766 -566 770 -587 770 -611L704 -670L898 -698C910 -700 909 -706 901 -712ZM519 -691L482 -722C457 -706 402 -691 292 -674C304 -691 316 -708 327 -725C356 -770 363 -780 370 -785C378 -790 378 -795 372 -804L341 -850L323 -847C308 -754 238 -637 111 -515L123 -501C180 -548 225 -591 261 -635L360 -650L412 -547C417 -537 425 -539 430 -547C442 -565 445 -580 445 -598L387 -655L515 -675C529 -677 530 -682 519 -691ZM956 20C844 8 801 -22 739 -148L677 -271C687 -310 691 -320 696 -325C701 -330 702 -336 697 -344L662 -395L798 -419L749 -318L769 -311C832 -405 852 -425 877 -436C886 -440 886 -446 879 -453L834 -497L806 -457L629 -423C636 -436 643 -451 650 -467C665 -501 673 -513 678 -517C685 -522 686 -528 682 -535L642 -599L628 -593C639 -543 600 -399 495 -240L510 -231C551 -282 580 -325 611 -385L642 -391C657 -292 609 -57 402 74L412 90C532 21 623 -82 665 -223L802 55L955 41ZM547 -490L514 -518C500 -508 443 -495 371 -486C371 -502 376 -516 380 -523C385 -532 384 -537 379 -541L332 -587L318 -582C327 -554 333 -514 333 -482L129 -460L178 -422C201 -430 251 -440 333 -450V-385L231 -371L206 -412L193 -409C199 -381 201 -365 202 -339L204 -285C205 -259 203 -245 199 -236L229 -191C236 -182 240 -183 244 -196C246 -205 246 -215 245 -231L326 -242C280 -162 194 -69 84 27L94 41C190 -23 270 -97 333 -180V-84C333 -29 325 14 310 33L350 97C357 107 362 108 366 95C369 85 370 65 370 -58V-185L488 -82C498 -74 502 -76 503 -90C504 -104 501 -125 495 -153L370 -211V-248L505 -268C512 -269 516 -275 510 -282L494 -299L502 -344C506 -364 514 -378 528 -390C535 -396 536 -403 528 -409L491 -437L466 -402L370 -389V-455L543 -475C555 -476 557 -482 547 -490ZM471 -368L460 -296L370 -283V-355ZM333 -278L243 -265L239 -337L333 -350Z"/>
</svg>