<svg xmlns="http://www.w3.org/2000/svg" viewBox="0 -1000 1000 1000">
	<path fill="#000000" d="M859 -728L818 -757C797 -743 714 -720 597 -706C621 -753 636 -775 642 -779C653 -787 653 -791 646 -800L605 -854L590 -849C598 -785 551 -666 476 -569L491 -555C519 -583 553 -628 578 -672L639 -681L692 -560C697 -548 701 -548 708 -560C719 -580 724 -599 724 -614L662 -685L855 -713C870 -715 870 -720 859 -728ZM529 -710L492 -736C482 -729 406 -708 291 -689C325 -744 344 -769 350 -772C360 -777 361 -783 354 -792L314 -849L297 -846C302 -784 250 -657 129 -520L142 -507C176 -536 234 -598 268 -651L309 -659L352 -554C357 -542 362 -541 370 -552C378 -564 385 -585 389 -605L333 -663L525 -694C540 -696 540 -702 529 -710ZM638 -514L531 -592L523 -582L567 -519L385 -490L445 -555C460 -571 468 -575 474 -577C484 -580 486 -585 480 -593L448 -637L437 -634C430 -596 420 -580 384 -532C359 -499 353 -495 318 -489L350 -447C356 -439 360 -439 375 -445C411 -460 449 -471 584 -497L611 -460C621 -445 627 -444 632 -461C636 -475 638 -494 638 -514ZM812 -383L718 -466L707 -459L746 -389L616 -364L677 -440C686 -451 698 -462 703 -464C709 -467 710 -472 706 -479L678 -529L663 -527C662 -495 651 -463 636 -441L599 -388C588 -372 577 -363 555 -357L589 -324C593 -320 598 -320 603 -323C624 -333 675 -348 759 -367L783 -325C791 -312 796 -312 801 -324C805 -335 811 -363 812 -383ZM947 -146V-166C785 -165 769 -170 592 -315L511 -380C516 -385 521 -388 524 -389C534 -392 536 -399 531 -405L495 -449L485 -446C483 -420 461 -379 421 -332C424 -346 425 -359 424 -365L352 -413L344 -401L373 -353L252 -333L285 -373C311 -407 319 -415 328 -416C337 -417 339 -423 334 -432L304 -483L290 -478C292 -458 285 -435 276 -421L246 -374C227 -342 211 -332 167 -326L190 -292C201 -275 207 -274 222 -284C234 -292 260 -300 386 -332L401 -308C333 -233 222 -148 78 -80L87 -63C253 -129 400 -237 494 -360L770 -118ZM545 -275L514 -315L504 -312C495 -270 418 -189 266 -107L275 -91C357 -123 432 -171 503 -231C520 -245 532 -252 539 -254C550 -258 552 -266 545 -275ZM614 -204L582 -246L572 -245C560 -202 449 -109 257 -27L264 -10C357 -38 467 -94 570 -168C586 -178 596 -183 603 -185C618 -189 621 -195 614 -204ZM701 -134L664 -179L654 -175C650 -135 425 18 172 87L178 108C363 57 505 -2 631 -84C669 -110 683 -116 690 -117C706 -119 707 -126 701 -134Z"/>
</svg>