<svg xmlns="http://www.w3.org/2000/svg" viewBox="0 -1000 1000 1000">
	<path fill="#000000" d="M533 -749L498 -772C480 -758 448 -750 348 -739C349 -778 351 -784 357 -796C362 -805 361 -809 353 -818L307 -866L295 -855C304 -831 308 -806 308 -736L102 -715L155 -679C189 -687 222 -693 308 -703V-648L212 -633L188 -677L175 -670C181 -655 184 -637 185 -598L188 -519C189 -499 184 -481 176 -471L206 -414C215 -397 223 -398 227 -417C229 -425 230 -438 228 -452L308 -464V-405L45 -382L94 -343C110 -351 156 -358 308 -375C308 -317 303 -304 292 -289L324 -225C333 -207 343 -208 344 -228C347 -255 348 -278 348 -378L514 -397C532 -399 534 -408 518 -420L490 -441C469 -429 410 -416 348 -409V-469L485 -488C501 -490 503 -496 489 -508L474 -520L488 -619C490 -631 494 -641 504 -648C515 -656 517 -664 504 -673L467 -699L446 -669L348 -653V-707L529 -728C548 -730 550 -738 533 -749ZM932 -602L887 -630C856 -609 824 -601 615 -579C618 -616 620 -647 623 -682C674 -695 735 -714 786 -735C798 -740 822 -747 842 -750C853 -752 855 -758 845 -767L802 -806L789 -801C787 -782 742 -751 624 -709L581 -806L563 -799C581 -729 581 -694 573 -544C568 -445 530 -369 420 -263L431 -249C444 -260 457 -268 469 -277C475 -255 477 -225 477 -172L194 -153L252 -114C283 -123 339 -130 477 -139V-19L89 5L146 45C200 33 417 16 891 -8C908 -9 911 -17 894 -30L852 -61C828 -50 721 -36 518 -22V-143L764 -162C780 -163 783 -173 767 -184L726 -211C711 -200 676 -192 518 -176C519 -206 523 -218 530 -228C536 -236 534 -242 528 -249L486 -293C577 -379 608 -442 614 -546L715 -559V-403C715 -359 711 -336 698 -319L730 -252C738 -236 745 -234 750 -254C755 -275 756 -304 756 -386V-563L928 -582C950 -584 949 -591 932 -602ZM308 -572L225 -561L224 -601L308 -615ZM449 -638L438 -517L348 -502V-547L423 -561C440 -564 441 -570 427 -581L407 -597C395 -588 379 -583 348 -577V-621ZM308 -496L227 -484L226 -547L252 -530C261 -533 275 -536 308 -541Z"/>
</svg>