<svg xmlns="http://www.w3.org/2000/svg" viewBox="0 -1000 1000 1000">
	<path fill="#000000" d="M863 -729L822 -755C801 -741 707 -722 582 -709C608 -749 619 -765 625 -769C635 -776 636 -779 632 -789L606 -859L593 -855C589 -786 528 -675 436 -570L450 -559C500 -607 532 -640 558 -676L640 -686L727 -573C734 -563 742 -565 744 -574C748 -589 751 -613 751 -632L669 -690L859 -714C873 -716 874 -721 863 -729ZM505 -705L468 -732C451 -720 408 -707 283 -692C318 -751 326 -759 336 -764C344 -768 346 -773 342 -782L314 -852L302 -850C289 -765 217 -639 96 -500L105 -489C143 -515 228 -611 261 -660L310 -666L397 -571C407 -561 412 -563 413 -571C416 -587 417 -600 416 -623L341 -670L501 -690C516 -692 516 -697 505 -705ZM951 -299V-317C854 -323 820 -338 657 -550C660 -555 663 -559 668 -562C675 -566 676 -570 672 -578L637 -641L624 -635C622 -540 538 -374 443 -261L455 -247C479 -269 501 -292 524 -321L566 -297C581 -303 599 -307 630 -312V-208L484 -189L537 -154C556 -160 588 -168 630 -175V-104C630 -28 624 0 610 22L649 103C654 114 662 114 663 102C665 85 666 68 666 -58V-180L839 -202C856 -204 858 -211 843 -218L792 -243C772 -233 727 -219 666 -211V-317L751 -328C766 -330 768 -334 755 -344L721 -369C696 -353 661 -344 529 -330C568 -379 602 -439 642 -522L817 -287ZM509 -145L461 -172C436 -162 404 -155 343 -145V-212L442 -224C460 -226 462 -233 450 -245L437 -258L454 -364C458 -391 463 -401 473 -411C481 -419 481 -424 473 -430L435 -460L411 -422L341 -412V-479L493 -498C513 -500 514 -506 499 -516L457 -542C436 -530 394 -519 341 -511C341 -544 343 -556 350 -563C355 -568 355 -572 348 -578L301 -623L288 -616C300 -594 304 -569 305 -506L129 -485L190 -455C218 -463 248 -469 305 -475V-408L227 -397L196 -437L182 -431C188 -412 190 -397 192 -359L196 -251C197 -232 194 -213 188 -198L220 -147C225 -138 231 -141 232 -151C234 -165 234 -179 233 -200L306 -208V-141L92 -115L146 -80C187 -92 214 -98 306 -108V-75C306 0 302 16 292 34L323 101C328 111 332 112 336 100C341 86 343 61 343 -10V-112L508 -131C521 -132 521 -138 509 -145ZM417 -392L405 -252L232 -229L231 -285L387 -306C404 -308 405 -315 391 -324L361 -342C337 -331 310 -325 228 -315L226 -366Z"/>
</svg>