<svg xmlns="http://www.w3.org/2000/svg" viewBox="0 -1000 1000 1000">
	<path fill="#000000" d="M851 -713L811 -750C791 -735 718 -716 565 -702C589 -746 597 -759 604 -764C612 -769 613 -776 609 -783L571 -845L558 -841C556 -772 527 -678 444 -554L459 -543C482 -573 521 -628 545 -668L616 -675L673 -555C679 -543 684 -542 689 -554C694 -566 701 -597 703 -614L640 -677L847 -698C861 -699 861 -703 851 -713ZM483 -699L451 -728C434 -717 389 -705 260 -693C298 -751 306 -762 313 -765C322 -769 323 -774 318 -784L283 -849L269 -847C268 -769 198 -632 79 -497L92 -484C129 -519 189 -589 237 -660L278 -664L331 -543C335 -533 342 -532 346 -543C353 -562 358 -585 360 -601L305 -666L480 -683C494 -684 494 -689 483 -699ZM456 -76L452 -96L325 -64V-187L445 -204C455 -205 456 -209 449 -216L419 -246C405 -236 379 -229 325 -220V-327L415 -338C429 -340 430 -344 421 -352L397 -375L408 -441C413 -469 420 -479 432 -488C440 -494 440 -498 434 -505L397 -548L366 -508L219 -488L192 -548L177 -544C190 -503 192 -475 192 -443L193 -373C194 -344 191 -331 184 -317L213 -262C219 -251 223 -252 227 -264C230 -275 232 -289 231 -316L287 -323V-55L208 -34V-132C208 -167 209 -175 217 -192C221 -199 220 -203 213 -210L172 -250L157 -243C166 -208 172 -173 172 -132V-25L56 7L113 41C145 24 247 -14 456 -76ZM930 -167L929 -183C821 -187 780 -206 650 -314C669 -337 691 -370 729 -433C741 -452 758 -470 773 -477C782 -481 782 -486 775 -493L731 -535L700 -498L579 -482C606 -531 612 -540 618 -543C626 -548 626 -552 620 -560L585 -613L571 -608C574 -544 539 -453 444 -322L457 -312C483 -339 504 -362 519 -384L602 -312C534 -231 472 -175 386 -120L395 -103C433 -124 467 -145 499 -169C502 -150 505 -125 505 -112L508 -24C509 2 503 24 491 41L520 98C528 113 537 112 540 95C542 86 544 66 544 38L749 22C765 21 766 16 754 5L727 -18L738 -106C741 -129 748 -147 758 -155C765 -161 765 -165 760 -169L718 -201L696 -178L531 -159L518 -185C558 -219 595 -254 629 -289L793 -145ZM373 -476L361 -366L231 -349L229 -457ZM699 -465C678 -424 649 -372 623 -336L537 -409C546 -421 553 -433 561 -446ZM702 -146L689 -10L544 6L541 -129Z"/>
</svg>