<svg xmlns="http://www.w3.org/2000/svg" viewBox="0 -1000 1000 1000">
	<path fill="#000000" d="M431 -664C436 -667 436 -671 431 -678L390 -745L377 -736C381 -686 370 -643 317 -530L336 -522C409 -649 414 -654 431 -664ZM225 -598L142 -709L127 -700L187 -531C193 -514 199 -513 206 -529C213 -544 221 -573 225 -598ZM461 -472C474 -474 474 -480 461 -488L415 -514C407 -506 350 -490 303 -480V-642C303 -713 306 -749 318 -764C322 -770 322 -775 318 -779L260 -840L247 -829C261 -794 264 -757 264 -631V-474L79 -447L127 -416C139 -421 200 -432 248 -441C191 -273 133 -179 63 -90L76 -77C153 -151 224 -274 264 -363V-156C264 -43 260 -6 241 20L277 97C285 113 293 111 296 96C299 83 303 49 303 -11V-359L391 -246C401 -234 408 -235 409 -243C412 -261 412 -294 410 -317L303 -390V-449ZM944 -219L895 -253C874 -238 841 -231 696 -216C696 -291 697 -299 702 -304C712 -312 713 -318 699 -330L667 -359L834 -378C847 -379 846 -386 837 -394L807 -419L830 -602C836 -643 841 -653 858 -667C870 -676 869 -683 858 -692L812 -730L787 -690L613 -670C648 -748 660 -766 672 -774C682 -780 681 -785 676 -791L627 -849L614 -843C619 -802 614 -748 581 -667L510 -658L485 -732L465 -727C469 -707 477 -635 478 -586L480 -439C481 -400 474 -371 462 -357L495 -291C502 -277 509 -279 512 -295C514 -309 516 -321 516 -341L586 -349C561 -292 526 -245 471 -193L369 -184L417 -149C462 -159 501 -164 656 -178V-59C656 -19 650 6 636 28L672 98C680 114 687 114 691 95C695 76 696 43 696 -17V-182L941 -206C953 -207 954 -212 944 -219ZM796 -660L770 -404L638 -387C649 -424 657 -464 662 -507L766 -524C779 -526 779 -531 769 -538L738 -561C731 -555 703 -544 664 -537C669 -581 672 -593 677 -598C686 -606 685 -610 675 -620L654 -642ZM624 -530L518 -513L560 -483C570 -488 582 -493 623 -500C620 -463 612 -417 600 -383L516 -372L510 -626L624 -639C627 -601 627 -565 624 -530ZM656 -212L512 -197C565 -246 602 -297 625 -354L646 -357C654 -336 656 -315 656 -265Z"/>
</svg>