<svg xmlns="http://www.w3.org/2000/svg" viewBox="0 -1000 1000 1000">
	<path fill="#000000" d="M247 -563L152 -678L140 -669L212 -499C216 -490 222 -490 227 -500C236 -520 241 -536 247 -563ZM950 49V32C833 10 803 -10 756 -74L652 -215L897 -239C906 -240 907 -245 899 -251L856 -286C841 -279 823 -274 799 -269C801 -280 801 -291 800 -305L701 -344L693 -331L767 -264L637 -246C646 -278 654 -294 660 -298C667 -303 667 -308 661 -315L636 -347L814 -367C823 -368 823 -373 817 -378L791 -402L809 -631C812 -669 817 -679 834 -690C842 -695 842 -700 835 -706L791 -741L763 -708L616 -689C641 -751 655 -777 669 -787C675 -792 676 -796 671 -802L626 -855L614 -849C615 -804 610 -769 583 -685L526 -678L496 -741L482 -736C489 -696 491 -666 492 -614L495 -444C496 -410 490 -378 480 -364L513 -304C521 -289 528 -289 531 -305C533 -314 534 -327 533 -337L608 -345C611 -318 609 -285 597 -242L376 -221L428 -182C473 -195 498 -200 589 -209C553 -90 482 -1 359 77L366 90C509 24 585 -73 625 -204L791 59ZM473 -475L439 -503C415 -491 401 -487 367 -482C417 -596 434 -625 448 -633C455 -637 455 -644 450 -649L397 -700L386 -692C396 -657 386 -601 338 -479L318 -476V-685C318 -735 325 -780 335 -792C341 -800 340 -804 333 -809L263 -857L252 -849C276 -809 282 -762 282 -675V-473L91 -448L142 -413C173 -424 188 -427 256 -436C228 -350 154 -239 64 -135L77 -124C168 -210 235 -298 282 -389V-199C282 -70 274 -17 253 10L296 87C301 94 305 94 308 87C315 73 318 44 318 -7V-385L413 -288C421 -280 428 -281 428 -290C429 -307 429 -322 426 -361L318 -411V-443L471 -462C481 -463 482 -468 473 -475ZM771 -674L753 -396L533 -370L531 -445L720 -467C730 -468 731 -472 723 -478L692 -503C671 -493 646 -487 531 -475L530 -541L716 -565C725 -566 726 -571 719 -577L689 -602C668 -592 655 -588 530 -571L527 -646Z"/>
</svg>