<svg xmlns="http://www.w3.org/2000/svg" viewBox="0 -1000 1000 1000">
	<path fill="#000000" d="M423 -291L329 -408L315 -399L349 -315L175 -288L334 -511C366 -557 379 -571 389 -577C395 -581 395 -586 393 -591L354 -666L344 -662C343 -629 327 -583 291 -520L149 -496L268 -694C293 -736 308 -755 322 -765C330 -770 330 -775 326 -782L280 -854L268 -850C275 -803 234 -693 145 -545C119 -501 105 -493 79 -485L112 -444C117 -438 122 -438 133 -443C152 -453 204 -470 274 -489C237 -427 219 -399 171 -334C143 -297 127 -283 99 -277L133 -239C138 -234 143 -234 148 -237C166 -247 224 -263 357 -295L383 -233C387 -224 392 -223 398 -230C408 -243 419 -269 423 -291ZM959 -530L914 -564C883 -550 865 -544 803 -534L809 -680C810 -709 816 -737 829 -754C833 -760 834 -766 830 -770L768 -837L755 -827C766 -798 771 -769 767 -671L761 -530L563 -507L562 -666C562 -693 567 -717 580 -735C584 -742 583 -747 577 -752L512 -819L500 -810C513 -785 521 -731 521 -651L522 -503L355 -485L409 -445C427 -452 475 -464 522 -471L526 -119C527 -55 522 -23 506 -3L547 89C551 97 556 97 560 88C566 76 568 60 567 -8L728 -25L757 35C761 43 767 43 770 35C776 21 780 -11 782 -64L802 -500L957 -518C966 -519 968 -523 959 -530ZM420 -107L330 -211L323 -205L387 -43C390 -36 394 -36 399 -43C408 -60 419 -90 420 -107ZM304 -78L240 -196L230 -192L256 -23C257 -15 261 -14 267 -21C285 -40 296 -56 304 -78ZM171 -183H155C145 -108 108 -59 70 -34L79 32C80 40 83 42 89 36C135 -10 165 -75 171 -183ZM760 -496L747 -154C745 -94 740 -74 728 -51L704 -66C669 -49 645 -45 567 -38L565 -262L737 -280C748 -281 748 -286 739 -292L698 -323C671 -307 651 -302 565 -292L563 -475Z"/>
</svg>