<svg xmlns="http://www.w3.org/2000/svg" viewBox="0 -1000 1000 1000">
	<path fill="#000000" d="M825 -697L721 -774L711 -763L795 -634C805 -619 812 -620 816 -637C820 -654 822 -668 825 -697ZM432 -338L342 -441L331 -433L360 -360L196 -323L334 -512C388 -586 393 -592 401 -598C410 -606 412 -611 407 -621L376 -689L361 -684C360 -655 339 -599 311 -552L184 -537L282 -704C305 -743 315 -757 324 -764C333 -771 333 -775 327 -787L288 -861L273 -856C276 -801 247 -709 170 -579C155 -553 133 -536 103 -527L127 -490C132 -482 136 -481 150 -487C164 -493 238 -515 296 -526C176 -337 158 -325 113 -311L142 -269C146 -263 149 -263 160 -269C185 -282 232 -299 370 -337L392 -285C398 -270 404 -269 411 -281C423 -302 427 -315 432 -338ZM964 54V36C832 30 806 15 698 -158C721 -195 758 -266 781 -325C800 -371 814 -392 827 -403C838 -412 838 -416 829 -424L788 -463L761 -432L581 -409C591 -442 600 -484 610 -526L895 -555C914 -557 913 -565 900 -575L861 -606C825 -589 728 -572 617 -561C622 -587 627 -611 632 -636C656 -753 660 -765 668 -777C674 -785 673 -791 665 -800L608 -859L596 -853C613 -798 607 -737 573 -556L398 -540L445 -501C470 -509 501 -515 567 -522C519 -277 430 -88 304 60L315 73C408 -11 493 -144 554 -324C572 -307 590 -277 655 -164C588 -62 522 -3 376 93L383 109C521 35 595 -20 676 -127L793 71ZM409 -159L328 -279L314 -272L364 -101C368 -87 374 -83 382 -96C395 -115 406 -142 409 -159ZM292 -127L240 -247L225 -242L241 -74C242 -59 249 -58 258 -69C274 -88 287 -110 292 -127ZM165 -223L147 -224C139 -139 121 -81 85 -53L105 15C110 31 115 32 123 18C158 -46 171 -122 165 -223ZM760 -396C736 -318 706 -246 674 -193C629 -268 616 -305 614 -330L560 -340C564 -352 567 -364 571 -376Z"/>
</svg>