<svg xmlns="http://www.w3.org/2000/svg" viewBox="0 -1000 1000 1000">
	<path fill="#000000" d="M451 -332L354 -449L343 -442L389 -334L203 -296L356 -484C410 -551 416 -558 428 -565C435 -570 435 -575 431 -583L400 -660L387 -657C385 -621 365 -576 336 -529L195 -508L293 -670C320 -716 330 -728 338 -734C344 -739 345 -744 341 -753L302 -834L289 -830C292 -767 271 -707 183 -544C169 -517 155 -506 105 -497L149 -459C158 -450 162 -450 167 -452C191 -466 213 -472 315 -497C193 -320 159 -287 109 -281L161 -243C173 -234 179 -235 185 -240C208 -259 252 -273 399 -312L415 -275C420 -263 425 -262 433 -273C443 -289 447 -301 451 -332ZM924 0L882 -34C853 -23 772 -10 660 0V-174L840 -194C850 -195 851 -199 843 -206L806 -239C778 -226 718 -214 660 -206C660 -283 664 -309 671 -318C678 -327 678 -331 671 -337L631 -374L894 -405C912 -408 912 -411 902 -420L863 -451C827 -438 747 -421 661 -412V-564L841 -587C851 -588 854 -593 845 -600L805 -633C769 -618 726 -605 661 -596V-680C661 -746 664 -767 676 -779C681 -784 681 -788 674 -794L615 -848L603 -841C616 -805 619 -774 619 -701V-591L459 -571L497 -535C524 -545 556 -551 619 -559V-408L431 -388L478 -349C504 -358 519 -361 605 -372C614 -339 618 -304 618 -201L458 -186L503 -149C526 -156 539 -159 618 -169V4L361 26L412 66C490 50 677 30 921 14C932 13 934 9 924 0ZM459 -137L357 -252L346 -243L424 -72C428 -63 433 -63 437 -70C447 -85 454 -106 459 -137ZM339 -92L268 -222L254 -215L294 -43C297 -31 301 -30 307 -37C320 -51 328 -64 339 -92ZM190 -204H175C162 -103 152 -74 118 -35L137 38C141 51 145 51 151 43C183 -3 199 -94 190 -204Z"/>
</svg>