<svg xmlns="http://www.w3.org/2000/svg" viewBox="0 -1000 1000 1000">
	<path fill="#000000" d="M979 -364L977 -380C877 -373 799 -397 660 -519C692 -550 717 -579 756 -634C780 -669 793 -683 810 -693C823 -700 824 -705 815 -714L772 -756L735 -711L564 -687C587 -728 606 -758 613 -767C622 -776 622 -781 618 -788L578 -851L566 -846C567 -786 518 -637 393 -479L407 -469C458 -523 487 -557 518 -605C533 -594 567 -565 616 -522C551 -450 481 -396 398 -342L319 -422L309 -416L344 -339L182 -303L321 -508C366 -575 375 -588 383 -593C394 -600 396 -609 391 -618L356 -686L343 -681C345 -647 332 -603 299 -545L175 -524L278 -699C300 -737 309 -748 317 -754C330 -765 330 -769 323 -780L281 -850L267 -845C273 -793 248 -717 165 -565C151 -536 143 -531 108 -518L136 -482C143 -473 148 -472 159 -477C187 -491 233 -506 286 -520C174 -322 151 -302 109 -294L136 -258C143 -249 148 -249 158 -254C190 -270 249 -290 352 -321L376 -270C383 -257 388 -259 393 -269C402 -287 408 -305 409 -323C491 -367 576 -433 641 -498L823 -333ZM871 -187L838 -215C810 -201 771 -191 665 -179V-290L795 -308C811 -311 811 -315 798 -324L764 -349C752 -342 706 -329 665 -321C665 -357 668 -371 675 -385C680 -395 680 -400 672 -407L625 -452L614 -445C621 -423 627 -367 628 -317L452 -295L500 -263C521 -269 575 -279 628 -286V-176L505 -163C518 -197 521 -204 530 -213C538 -221 538 -225 533 -231L509 -260L499 -257C487 -179 464 -155 434 -144L472 -115C482 -108 486 -110 492 -117C503 -127 511 -130 528 -132L628 -143V-68C628 -16 622 -1 606 28L643 95C654 116 659 116 662 94C664 77 665 35 665 -69V-146L868 -170C882 -171 883 -177 871 -187ZM411 -142L334 -236L323 -229L372 -84C377 -70 382 -69 390 -83C400 -101 410 -128 411 -142ZM302 -120L242 -221L231 -215L258 -61C261 -47 266 -44 276 -58C286 -73 296 -95 302 -120ZM162 -207H146C151 -136 131 -77 96 -47L117 12C121 23 126 25 134 11C162 -44 180 -113 162 -207ZM729 -677C692 -618 667 -582 633 -543C573 -596 564 -614 567 -624L535 -633C539 -639 541 -644 544 -650Z"/>
</svg>