<svg xmlns="http://www.w3.org/2000/svg" viewBox="0 -1000 1000 1000">
	<path fill="#000000" d="M793 -568C794 -583 786 -615 770 -641L651 -695C728 -762 737 -770 747 -773C754 -774 757 -778 752 -786L714 -847L699 -841C696 -803 671 -767 615 -710L432 -793L425 -774C461 -758 525 -726 592 -689C528 -632 465 -586 403 -549L411 -534C495 -578 557 -619 622 -672C695 -630 739 -599 782 -563C787 -559 793 -561 793 -568ZM377 -338L300 -430L287 -422L316 -345L182 -320L319 -525C342 -560 352 -572 362 -577C371 -582 372 -587 369 -594L338 -661L323 -655C324 -628 316 -598 280 -531L164 -520L267 -711C283 -741 291 -752 299 -760C308 -769 310 -774 305 -782L263 -847L248 -844C253 -785 230 -700 164 -583C140 -538 118 -521 91 -512L118 -474C123 -467 128 -467 135 -470C160 -482 183 -488 265 -505C245 -470 229 -443 203 -403C159 -333 132 -311 92 -302L120 -268C126 -261 130 -261 137 -265C155 -276 195 -289 327 -322L343 -279C347 -269 354 -268 359 -278C366 -292 370 -306 377 -338ZM911 -515L866 -547C830 -529 779 -517 596 -495C621 -535 631 -548 638 -551C644 -554 645 -558 640 -567L606 -624L590 -620C594 -590 581 -554 546 -489L339 -467L384 -429C404 -436 432 -441 529 -454C485 -379 399 -275 332 -213L301 -253L289 -246L345 -84C349 -73 354 -74 359 -85C369 -107 374 -120 380 -142L343 -196C393 -238 423 -268 472 -323C475 -309 477 -294 477 -283L481 -191C482 -163 476 -134 463 -118L503 -49C508 -41 513 -42 515 -51C519 -74 519 -88 518 -127L512 -297L609 -312V-82C609 -15 605 5 589 36L625 102C631 113 637 111 640 100C646 76 647 57 647 -4V-317L767 -334C762 -203 755 -147 746 -120L664 -172L656 -160C695 -118 733 -72 747 -49C752 -39 758 -38 763 -48C788 -93 795 -129 806 -295C808 -327 812 -336 831 -355C835 -359 835 -365 831 -368L785 -403L761 -369L647 -350C647 -399 651 -415 658 -423C661 -428 661 -433 656 -437L625 -467L908 -501C917 -502 920 -509 911 -515ZM270 -114L222 -235L209 -230L228 -59C229 -49 235 -47 241 -56C251 -71 265 -98 270 -114ZM148 -218H133C126 -125 110 -90 73 -62L86 -3C89 9 94 10 102 -1C138 -44 152 -103 148 -218ZM609 -345L504 -328L495 -348C522 -382 554 -428 575 -461L598 -464C604 -435 608 -384 609 -345Z"/>
</svg>