<svg xmlns="http://www.w3.org/2000/svg" viewBox="0 -1000 1000 1000">
	<path fill="#000000" d="M793 -751L758 -810L745 -807C748 -776 730 -715 666 -625L685 -616C750 -703 770 -724 788 -732C796 -736 798 -742 793 -751ZM545 -673L459 -772L445 -762L507 -617C512 -607 516 -607 523 -617C533 -632 543 -655 545 -673ZM409 -320L333 -420L319 -413L343 -343L204 -317L339 -522C366 -565 373 -573 386 -581C394 -586 396 -591 391 -602L357 -671L345 -666C345 -638 331 -594 304 -541L179 -524L279 -696C304 -739 313 -753 318 -757C329 -766 330 -772 323 -781L278 -845L265 -840C268 -788 250 -713 166 -566C147 -529 138 -521 98 -511L129 -476C135 -469 141 -469 149 -473C173 -484 206 -494 290 -513C272 -477 252 -443 223 -401C163 -315 159 -312 116 -300L149 -264C154 -258 159 -258 168 -263C180 -271 198 -277 351 -323L370 -269C373 -260 378 -261 384 -268C394 -277 401 -290 409 -320ZM950 -239V-258C842 -262 812 -280 716 -389L665 -446L865 -470C880 -471 880 -475 870 -484L831 -516C811 -500 716 -481 578 -466C592 -500 600 -525 608 -555L815 -580C831 -581 831 -585 817 -597L782 -625C762 -615 681 -595 615 -586C623 -626 631 -666 636 -706C641 -746 648 -774 656 -785C662 -794 662 -799 656 -807L607 -863L593 -856C601 -832 603 -823 595 -702C593 -664 587 -623 577 -582L412 -562L448 -529C483 -538 513 -544 568 -551C560 -520 552 -498 537 -462L369 -445L414 -412C432 -417 467 -423 523 -430C489 -356 440 -280 379 -210L393 -196C435 -236 473 -277 502 -319V-88C502 -35 511 12 545 29C592 53 748 56 829 39C842 37 843 33 841 23C830 -23 819 -91 815 -145H796L787 -1C758 12 597 19 567 -5C546 -21 539 -41 539 -93V-272L675 -287C664 -188 658 -166 649 -152L585 -195L575 -184C608 -152 633 -119 650 -88C655 -80 661 -80 666 -88C686 -116 699 -170 708 -257C710 -270 716 -287 724 -292C733 -297 733 -302 727 -308L691 -344L665 -320L537 -302L517 -342C536 -374 552 -404 566 -435L635 -443L808 -227ZM412 -142L331 -248L317 -239L370 -84C374 -75 378 -74 386 -83C398 -99 411 -127 412 -142ZM300 -104L245 -224L230 -218L251 -53C252 -44 258 -42 265 -49C285 -68 296 -85 300 -104ZM177 -208H154C148 -109 125 -65 92 -43L114 26C117 36 122 36 130 26C162 -15 181 -88 177 -208Z"/>
</svg>