<svg xmlns="http://www.w3.org/2000/svg" viewBox="0 -1000 1000 1000">
	<path fill="#000000" d="M826 -795L782 -843L770 -839C767 -816 700 -777 413 -710L416 -691C515 -705 613 -724 690 -745C773 -770 802 -777 819 -779C833 -780 834 -786 826 -795ZM666 -602L586 -694L574 -686L621 -552C627 -536 638 -537 645 -550C654 -568 658 -577 666 -602ZM555 -569L469 -662L458 -652L518 -511C526 -493 536 -494 541 -508C548 -528 550 -536 555 -569ZM386 -342L302 -436L289 -428L321 -352L187 -321L309 -504C360 -580 367 -589 379 -596C389 -602 390 -609 386 -617L353 -684L338 -679C336 -651 321 -602 289 -547L170 -531L272 -705C290 -738 300 -751 312 -758C320 -763 321 -769 316 -778L274 -852L258 -847C265 -787 248 -734 160 -574C142 -540 133 -532 101 -522L126 -481C133 -471 139 -470 150 -476C165 -485 209 -500 273 -518C172 -339 154 -317 100 -302L132 -265C140 -256 145 -256 158 -262C204 -284 221 -291 332 -326L351 -281C358 -263 368 -263 373 -281C379 -301 382 -315 386 -342ZM904 -510L859 -553L824 -519L709 -503C769 -619 787 -646 801 -655C810 -661 810 -667 805 -675L759 -742L745 -737C747 -694 732 -619 679 -499L461 -469C460 -489 457 -510 452 -529L436 -528C436 -452 423 -428 395 -395L413 -341C419 -325 426 -325 436 -341C452 -367 460 -400 461 -436L830 -486L789 -390L805 -382C853 -451 878 -477 902 -489C914 -494 915 -500 904 -510ZM412 -161L333 -251L319 -243L374 -99C381 -80 387 -80 397 -99C404 -113 409 -133 412 -161ZM967 25V10C815 5 794 0 653 -151C688 -195 712 -235 730 -278C754 -332 762 -343 775 -349C787 -355 789 -360 778 -370L731 -414L701 -375L441 -337L486 -298C530 -313 563 -320 706 -342C690 -284 664 -236 626 -182C576 -238 554 -267 554 -279L495 -281L491 -270C511 -259 544 -225 605 -153C547 -79 415 13 302 72L311 87C439 30 562 -50 630 -124L782 47ZM303 -119L238 -227L224 -220L255 -68C259 -50 264 -47 278 -63C288 -76 296 -93 303 -119ZM160 -215H141C143 -138 113 -75 82 -54L100 2C105 16 111 16 122 3C154 -39 168 -91 160 -215Z"/>
</svg>