<svg xmlns="http://www.w3.org/2000/svg" viewBox="0 -1000 1000 1000">
	<path fill="#000000" d="M814 -638L735 -696L721 -685L784 -587C793 -573 800 -571 806 -587C811 -600 814 -617 814 -638ZM533 -688L498 -718L476 -687L326 -669L306 -705L295 -700C299 -686 305 -643 305 -632L306 -574C306 -555 303 -543 298 -537L323 -498C330 -487 336 -488 339 -500C340 -504 341 -510 340 -516L514 -533C532 -534 533 -540 521 -549L507 -562L514 -633C515 -645 522 -658 532 -670C540 -679 539 -683 533 -688ZM923 -246V-262C819 -270 800 -292 712 -504L843 -521C859 -523 861 -530 848 -538L814 -559C799 -549 746 -537 683 -529C689 -633 693 -653 700 -669C705 -679 703 -685 696 -691L644 -735L636 -725C650 -695 655 -629 647 -526L532 -514L574 -481C590 -486 617 -492 645 -496C634 -384 607 -323 555 -259L570 -246C636 -315 671 -384 680 -500L685 -501L778 -237ZM850 -784L808 -813C764 -797 637 -782 240 -759L204 -833L189 -828C202 -762 204 -689 191 -496C171 -204 141 -65 78 36L94 45C188 -80 238 -279 241 -726L843 -766C862 -767 863 -775 850 -784ZM531 -474C539 -480 538 -486 530 -492L494 -517L472 -489L320 -467L299 -504L286 -499C290 -480 293 -442 293 -422V-298C293 -266 290 -246 282 -231L305 -192C312 -180 318 -180 321 -192C325 -208 328 -228 328 -271V-312L455 -327C469 -329 469 -333 461 -341L441 -362C420 -351 389 -345 328 -339V-376L450 -388C464 -389 465 -394 456 -402L435 -422C419 -412 386 -404 328 -401V-436L485 -459V-316C485 -276 484 -267 482 -258L408 -294L402 -282C428 -263 463 -222 484 -193C492 -183 499 -184 504 -196C515 -221 520 -250 520 -292V-446C520 -461 524 -468 531 -474ZM913 -17L871 -50C823 -36 760 -29 569 -20L571 -130L814 -147C831 -148 832 -154 818 -164L778 -192C752 -182 668 -165 571 -160C571 -186 576 -198 584 -207C593 -218 593 -221 581 -231L537 -265L530 -255C536 -240 538 -224 536 -157L288 -136L333 -98C353 -106 369 -111 536 -127L534 -18L214 1L258 42C325 28 406 22 905 -1C923 -2 923 -8 913 -17ZM481 -657L477 -609L453 -629C441 -622 407 -613 339 -606L338 -641ZM477 -596L475 -562L340 -543L339 -580Z"/>
</svg>