<svg xmlns="http://www.w3.org/2000/svg" viewBox="0 -1000 1000 1000">
	<path fill="#000000" d="M404 -346L302 -439L291 -429L336 -345L170 -303L316 -507C368 -579 373 -585 386 -590C393 -592 394 -598 389 -608L352 -688L338 -683C335 -642 316 -592 290 -546L152 -516L264 -692C289 -732 298 -743 312 -752C320 -757 321 -761 315 -773L277 -846L262 -840C263 -793 244 -743 145 -560C129 -528 115 -512 90 -504L116 -473C124 -465 128 -464 135 -467C162 -481 209 -497 270 -512C145 -308 135 -302 97 -291L135 -258C143 -252 148 -250 156 -255C175 -267 202 -276 350 -319L370 -281C376 -269 383 -269 388 -279C396 -296 401 -318 404 -346ZM893 -446C904 -453 903 -458 893 -466L850 -502L822 -464L778 -457L797 -700C799 -722 805 -734 824 -746C830 -750 830 -754 823 -761L775 -810L747 -769L516 -738L492 -804L479 -800C483 -758 485 -721 486 -653L490 -423L462 -419L436 -485L419 -481C425 -435 427 -415 427 -368L429 -84C430 -7 427 13 410 33L447 100C453 112 461 111 462 100C466 69 467 53 467 -66L466 -385L829 -430C821 -149 811 -44 797 13L698 -57L687 -42C729 2 754 32 796 92C801 99 806 100 814 90C842 57 854 -1 870 -398C871 -422 878 -436 893 -446ZM754 -310C761 -314 761 -319 753 -326L715 -360L695 -330L577 -311L557 -363L541 -359C545 -334 545 -322 546 -281L548 -170C549 -148 545 -135 534 -122L566 -64C571 -54 580 -53 581 -62C584 -86 585 -94 585 -128L744 -151C753 -152 753 -157 747 -162L722 -186L735 -278C737 -294 741 -303 754 -310ZM413 -133L326 -259L313 -250L368 -78C371 -69 376 -69 382 -76C392 -89 401 -105 413 -133ZM308 -87L238 -222L226 -216L254 -35C255 -23 259 -22 267 -28C283 -42 298 -62 308 -87ZM168 -210L152 -209C150 -123 130 -72 103 -46L119 17C122 29 127 30 133 23C170 -14 184 -119 168 -210ZM756 -734L740 -453L657 -442L660 -551C660 -565 668 -575 681 -583C688 -587 689 -592 682 -598L640 -633L619 -601L524 -590L522 -704ZM622 -569L619 -438L527 -427L524 -555ZM697 -296L686 -176L585 -162L582 -280Z"/>
</svg>