<svg xmlns="http://www.w3.org/2000/svg" viewBox="0 -1000 1000 1000">
	<path fill="#000000" d="M843 -747C853 -754 852 -761 843 -769L798 -805L771 -763L494 -730L460 -809L446 -805C454 -768 460 -723 461 -664L465 -485C466 -430 462 -413 451 -389L484 -325C491 -313 499 -314 500 -327C502 -346 503 -356 502 -375L812 -406C831 -407 832 -411 820 -422L789 -454L816 -695C818 -717 826 -735 843 -747ZM415 -332L336 -438L324 -431L353 -347L195 -314L330 -519C370 -579 379 -592 386 -596C393 -601 396 -609 392 -616L355 -685L342 -681C345 -652 332 -600 300 -543L169 -524L279 -714C298 -749 309 -762 318 -767C326 -771 328 -775 322 -785L283 -857L269 -853C271 -794 247 -724 161 -571C142 -535 129 -525 95 -516L122 -479C129 -470 134 -470 145 -474C168 -484 213 -497 285 -513C188 -336 155 -311 112 -300L142 -262C150 -252 155 -252 166 -260C183 -271 239 -292 361 -327L382 -272C387 -259 392 -258 399 -272C408 -291 413 -311 415 -332ZM680 -224L581 -349L570 -341L648 -163C653 -150 660 -150 665 -163C673 -184 676 -194 680 -224ZM909 -126C910 -152 909 -165 906 -195L759 -299L749 -288L892 -120C901 -110 908 -109 909 -126ZM397 -144L317 -257L306 -250L360 -96C364 -85 373 -84 379 -97C386 -111 390 -121 397 -144ZM296 -90L235 -227L221 -221L253 -39C256 -23 259 -21 270 -34C282 -49 292 -70 296 -90ZM452 -248H436C436 -159 418 -92 379 -55L393 8C396 20 401 22 410 9C440 -31 469 -132 452 -248ZM836 52C817 10 791 -67 768 -144L754 -141L775 20C634 12 553 -93 508 -265L491 -260C525 -30 660 70 822 70C840 70 841 65 836 52ZM165 -198H149C141 -105 118 -48 87 -23L103 41C106 52 110 54 119 41C153 -7 173 -85 165 -198ZM777 -731L764 -579L728 -605C716 -597 681 -587 641 -580V-716ZM603 -576L500 -562L498 -699L603 -712ZM764 -570L753 -438L641 -424V-551ZM603 -420L502 -406L500 -549L532 -531C557 -538 576 -542 603 -546Z"/>
</svg>