<svg xmlns="http://www.w3.org/2000/svg" viewBox="0 -1000 1000 1000">
	<path fill="#000000" d="M608 -717L499 -826L483 -813L577 -648C581 -640 586 -639 593 -649C603 -666 606 -684 608 -717ZM423 -311L343 -415L328 -407L355 -335L199 -296L352 -541C376 -579 381 -586 390 -592C400 -599 402 -604 398 -611L362 -677L346 -674C347 -646 332 -597 298 -528L163 -500L283 -715C300 -746 305 -754 313 -762C323 -772 323 -776 318 -785L278 -847L261 -844C261 -781 240 -712 163 -564C134 -505 123 -496 76 -484L112 -449C118 -443 124 -443 133 -450C147 -461 172 -470 285 -499C269 -467 259 -450 222 -388C167 -296 153 -288 101 -278L143 -242C150 -237 155 -236 162 -240C181 -252 244 -275 365 -311L387 -257C391 -247 397 -247 404 -258C414 -275 421 -294 423 -311ZM929 -19L882 -56C837 -41 769 -28 692 -24V-197L846 -220C858 -221 858 -226 849 -232L803 -266C770 -243 738 -231 551 -214C571 -252 587 -291 598 -329C748 -353 796 -359 894 -368C905 -369 907 -373 898 -381L857 -416C815 -397 706 -373 607 -362C615 -394 622 -426 628 -464L809 -488C820 -488 822 -492 813 -500L779 -533C745 -519 715 -512 633 -498C637 -527 641 -557 645 -594L852 -622C862 -623 864 -628 855 -635L816 -669C783 -652 737 -638 696 -632C761 -757 769 -771 780 -778C788 -783 790 -789 786 -796L745 -858L732 -852C727 -798 707 -725 664 -627L411 -599L456 -562C479 -569 515 -576 600 -588C598 -553 595 -521 591 -493L447 -471L486 -434C512 -443 548 -452 586 -459C580 -423 572 -390 562 -357L412 -339L456 -300C479 -308 503 -313 553 -321C517 -204 448 -91 349 19L365 32C433 -31 494 -110 539 -191L561 -176C589 -184 610 -188 652 -193V-22L440 -3L490 37C540 21 694 2 925 -9C935 -9 936 -13 929 -19ZM422 -153L335 -256L321 -247L389 -89C394 -78 402 -79 407 -90C415 -108 420 -131 422 -153ZM319 -108L247 -217L230 -210L277 -50C280 -39 286 -38 292 -47C305 -67 314 -86 319 -108ZM178 -189H155C150 -90 132 -44 97 -20L122 35C126 44 132 43 138 36C164 0 184 -73 178 -189Z"/>
</svg>