<svg xmlns="http://www.w3.org/2000/svg" viewBox="0 -1000 1000 1000">
	<path fill="#000000" d="M940 -410C835 -423 809 -441 747 -523L715 -564L845 -577C855 -578 856 -583 849 -589L813 -619C793 -608 748 -598 693 -591C693 -650 696 -663 703 -672C707 -677 706 -681 700 -686L676 -705L862 -724C871 -725 872 -728 864 -735L824 -772C787 -758 718 -745 562 -729C569 -746 574 -763 581 -793L496 -865L483 -856L544 -727L260 -697L219 -789L204 -784C213 -714 213 -636 208 -536C196 -287 153 -126 58 40L70 48C170 -68 234 -267 254 -566C258 -623 260 -646 262 -664L388 -677C399 -648 401 -626 402 -569L284 -553L315 -522C334 -529 350 -533 377 -536C351 -488 305 -424 253 -364L263 -351C321 -406 365 -455 402 -507V-442C402 -416 401 -407 391 -384L421 -352C431 -342 434 -344 435 -352C437 -367 437 -400 437 -446V-505L502 -431C506 -426 510 -426 513 -433C519 -448 520 -461 518 -482L437 -530V-543L538 -553C547 -555 548 -559 542 -564L505 -590C493 -583 478 -578 437 -573C437 -614 440 -631 447 -639C451 -642 452 -647 444 -654L414 -679L646 -702C654 -674 657 -639 657 -587L540 -575L579 -542C596 -548 612 -552 634 -554C614 -515 587 -473 536 -407L547 -396C598 -445 629 -480 657 -524V-484C657 -423 653 -402 641 -383L672 -339C679 -331 684 -332 687 -341C692 -361 693 -372 693 -440V-552L795 -388L939 -392ZM807 -118C810 -134 809 -152 801 -188L659 -251L652 -241L697 -200L428 -164L580 -260C630 -291 639 -296 651 -299C659 -300 662 -305 658 -314L637 -360L628 -359C621 -345 601 -323 565 -295L423 -277L484 -324C508 -342 516 -347 531 -351C538 -353 539 -357 535 -363L508 -404H499C491 -376 478 -361 422 -315C386 -284 364 -272 315 -257L340 -222C343 -218 348 -218 355 -221C379 -233 428 -246 527 -266C483 -234 471 -226 407 -188C376 -169 329 -150 263 -140L296 -104C299 -100 303 -100 309 -102C337 -116 392 -128 526 -147V-24C526 6 525 17 521 30L438 -8L432 5C485 43 503 60 536 99C541 105 544 105 550 100C559 92 565 69 565 3V-153L726 -175L795 -116C803 -110 806 -111 807 -118ZM811 42C814 22 813 7 804 -29L633 -107L628 -93C716 -31 751 -3 799 44C805 51 810 50 811 42ZM433 -62L397 -102L389 -100C373 -63 342 -25 202 85L209 97C252 76 283 57 370 -9C407 -37 416 -42 426 -46C438 -50 440 -54 433 -62Z"/>
</svg>