<svg xmlns="http://www.w3.org/2000/svg" viewBox="0 -1000 1000 1000">
	<path fill="#000000" d="M957 -294V-311C879 -315 865 -324 825 -372L750 -463V-469L867 -482C880 -483 882 -488 870 -498L844 -520C825 -511 792 -503 750 -499C751 -525 754 -547 758 -552C765 -562 765 -566 760 -573L738 -606C777 -621 808 -633 829 -639C844 -643 845 -648 835 -657L798 -692L789 -688C786 -666 733 -630 619 -589L622 -573C647 -578 679 -586 710 -596C714 -574 716 -539 715 -496L624 -487L656 -453C670 -459 689 -462 710 -465C691 -417 652 -360 566 -273L577 -260C637 -310 687 -357 715 -393V-318C715 -294 713 -286 703 -274L724 -215C729 -200 738 -202 743 -216C748 -231 750 -256 750 -297V-424L848 -284ZM882 -744L839 -777C788 -756 735 -746 425 -718L384 -819L365 -812C385 -742 383 -539 351 -283L236 -240V-497L344 -511C358 -513 359 -517 347 -527L314 -553C299 -545 268 -535 236 -530V-667C236 -708 241 -730 249 -743C255 -753 255 -757 249 -764L196 -832L179 -824C193 -783 195 -761 195 -668V-526L62 -511L93 -472C109 -481 139 -486 195 -493V-226L32 -166L83 -128C112 -154 145 -171 349 -258C332 -140 300 -58 212 71L226 80C324 -37 362 -117 387 -244C451 -292 491 -334 516 -381V-324C516 -292 513 -283 504 -273L530 -220C535 -209 541 -208 545 -220C550 -237 551 -257 551 -293V-402L609 -354C618 -346 623 -345 626 -357C628 -366 627 -377 626 -391L551 -425V-458L611 -464C620 -465 623 -469 617 -476L596 -499C585 -495 567 -491 551 -488C551 -520 553 -533 559 -540C567 -551 567 -555 559 -566L536 -594C564 -605 595 -616 608 -618C622 -620 624 -624 615 -635L586 -669L574 -667C561 -638 527 -617 430 -579L433 -564C448 -566 479 -574 510 -584C515 -567 516 -540 516 -484L411 -473C414 -538 417 -610 419 -680L878 -728C894 -730 893 -735 882 -744ZM901 -4L865 -34C816 -18 755 -10 652 -4V-130L829 -152C843 -154 844 -158 832 -167L799 -192C780 -184 750 -179 652 -164C653 -187 655 -204 659 -212C665 -224 664 -228 657 -234L615 -276L601 -267C611 -242 614 -219 614 -141V-2L497 5V-97C497 -123 500 -141 505 -153C510 -164 509 -169 502 -175L458 -216L445 -206C456 -186 459 -164 459 -104V7L339 15L375 54C417 42 455 38 896 13C911 12 913 7 901 -4ZM512 -455C493 -396 452 -339 393 -278C400 -326 406 -388 410 -459L433 -440C445 -445 467 -448 512 -455Z"/>
</svg>