<svg xmlns="http://www.w3.org/2000/svg" viewBox="0 -1000 1000 1000">
	<path fill="#000000" d="M905 -587L855 -624C840 -611 795 -597 681 -583C698 -620 716 -644 724 -648C734 -653 734 -659 727 -667L703 -696L830 -712C844 -713 844 -717 834 -726L793 -757C762 -742 717 -732 629 -720C637 -740 643 -761 649 -791L579 -867L564 -858L612 -718L394 -691L440 -656C464 -664 487 -669 504 -672L544 -567L350 -544L395 -509C450 -523 517 -534 901 -574C915 -575 915 -580 905 -587ZM406 -334L314 -436L302 -429L339 -342L191 -308L310 -505C361 -589 367 -598 375 -604C380 -609 382 -615 378 -623L346 -691L334 -686C332 -665 312 -598 284 -537L167 -519L267 -700C293 -747 298 -756 308 -765C314 -770 315 -775 311 -784L279 -857L264 -853C264 -793 240 -724 160 -567C143 -531 131 -518 100 -510L126 -473C132 -466 140 -466 148 -470C163 -478 219 -495 271 -508C187 -337 163 -312 112 -293L143 -260C150 -252 154 -251 163 -255C193 -270 218 -279 350 -318L375 -263C380 -253 388 -251 392 -261C400 -282 404 -303 406 -334ZM786 -469C793 -474 794 -479 785 -487L749 -523L720 -487L504 -457L482 -504L464 -500C471 -474 473 -459 474 -417L478 -301C479 -278 477 -266 466 -250L499 -201C506 -190 510 -190 513 -203C516 -218 516 -224 515 -243L771 -271C782 -272 784 -276 774 -285L749 -311L764 -422C768 -450 770 -459 786 -469ZM401 -147L339 -251L326 -243L363 -86C366 -74 372 -73 377 -83C389 -110 393 -119 401 -147ZM671 -162L599 -230L588 -219L642 -103C647 -91 654 -92 658 -105C666 -127 668 -138 671 -162ZM879 -83C881 -107 880 -131 877 -153L754 -227L745 -212L865 -79C872 -71 878 -73 879 -83ZM300 -108L239 -219L227 -213L256 -58C259 -44 263 -44 271 -55C284 -70 293 -88 300 -108ZM167 -200L149 -198C143 -104 132 -70 101 -33L120 25C124 37 130 36 136 28C165 -15 180 -101 167 -200ZM464 -171L447 -172C436 -105 425 -67 388 -40L395 21C396 32 401 34 408 25C457 -37 464 -69 464 -171ZM827 55C799 0 771 -66 748 -147L733 -141L761 22C635 20 565 -47 524 -183L507 -179C553 0 598 62 812 68C828 68 831 62 827 55ZM676 -693C672 -652 663 -613 649 -579L567 -569C573 -583 577 -600 580 -621L528 -674ZM729 -456L714 -301L513 -276L512 -340L700 -363C709 -364 711 -368 703 -375L665 -405C637 -391 612 -386 510 -373L509 -425Z"/>
</svg>