<svg xmlns="http://www.w3.org/2000/svg" viewBox="0 -1000 1000 1000">
	<path fill="#000000" d="M486 -741L447 -793L434 -786C436 -751 433 -726 382 -624L400 -617C454 -701 461 -710 482 -725C489 -730 490 -735 486 -741ZM270 -674L184 -767L173 -758L244 -622C250 -613 254 -613 258 -622C265 -638 268 -651 270 -674ZM528 -606L493 -631C472 -621 432 -613 349 -603V-684C349 -722 355 -753 363 -769C367 -777 367 -781 362 -785L305 -842L292 -833C306 -808 313 -752 313 -682V-600L99 -579L148 -543C169 -550 214 -560 273 -566C231 -504 143 -417 70 -364L81 -350C181 -418 261 -489 313 -556C313 -492 310 -476 301 -463L330 -423C339 -412 341 -413 344 -424C348 -440 349 -463 349 -544L501 -428C508 -423 511 -423 514 -432C517 -445 514 -469 507 -494L349 -568V-573L524 -590C541 -591 541 -597 528 -606ZM936 -741L900 -769C862 -755 763 -740 490 -725L533 -686C558 -695 623 -704 679 -708C681 -674 674 -642 653 -579L598 -572L569 -636L556 -632C561 -599 566 -544 566 -508V-237C566 -207 563 -190 554 -172L585 -125C595 -110 600 -112 603 -127C605 -136 605 -148 605 -166L779 -182L800 -146C809 -131 814 -132 820 -145C827 -163 832 -193 835 -242L848 -532C849 -558 852 -568 863 -581C870 -589 869 -595 863 -600L821 -635L796 -595L686 -582C702 -622 712 -642 726 -656C735 -665 734 -673 728 -680L702 -710L928 -726C945 -727 946 -733 936 -741ZM508 -219L406 -306L396 -296L438 -234L259 -217L390 -327C428 -359 439 -365 453 -370C461 -373 462 -377 460 -384L438 -448L427 -445C421 -422 406 -393 356 -342L242 -330L285 -367C294 -375 309 -381 315 -382C323 -383 326 -389 324 -395L302 -453H290C285 -430 270 -398 242 -368C210 -335 199 -329 166 -325L193 -284C198 -278 204 -277 213 -281C237 -292 274 -302 325 -311C306 -292 291 -279 268 -260C213 -215 203 -211 146 -206L171 -165C174 -160 180 -160 186 -162C203 -171 242 -180 318 -192C322 -181 323 -168 323 -155V-63C323 -31 321 -14 317 0L235 -46L227 -34C253 -14 272 7 328 77C334 84 339 84 343 76C354 53 358 33 358 -31V-113C358 -130 363 -152 369 -157C375 -162 376 -164 371 -170L349 -197L452 -214L488 -163C494 -154 499 -154 501 -161C507 -180 508 -191 508 -219ZM520 -16C521 -37 520 -59 519 -82L394 -153L387 -138C449 -81 465 -62 505 -12C514 0 520 -4 520 -16ZM272 -115L249 -166L234 -161C230 -125 164 -53 74 17L85 33C135 -1 187 -40 230 -79C242 -89 248 -93 266 -100C276 -103 277 -106 272 -115ZM671 -96L651 -159L636 -153C644 -127 572 -9 412 93L420 109C509 62 552 28 620 -41C640 -60 650 -68 661 -73C672 -79 675 -85 671 -96ZM889 -12L737 -137L725 -123C789 -52 834 12 868 73C879 93 883 91 888 73C892 54 892 26 889 -12ZM808 -562L797 -276C795 -230 791 -211 784 -197L762 -223C731 -210 694 -202 605 -195V-302L762 -318C776 -319 777 -323 770 -332L748 -358C723 -347 695 -341 605 -332V-425L754 -440C764 -441 766 -446 761 -452L741 -478C720 -470 689 -463 605 -454V-540Z"/>
</svg>