<svg xmlns="http://www.w3.org/2000/svg" viewBox="0 -1000 1000 1000">
	<path fill="#000000" d="M806 -776C812 -782 811 -787 804 -793L761 -827L737 -787L565 -770L535 -834L521 -830C526 -808 527 -797 529 -726L533 -569C533 -521 530 -491 521 -483L543 -443C549 -432 556 -431 561 -440C564 -444 566 -451 568 -464L600 -468C594 -433 561 -378 490 -313L499 -299C543 -330 564 -347 599 -383C610 -394 622 -405 631 -410C638 -415 639 -420 636 -428L617 -469L725 -481L746 -452C753 -443 760 -444 764 -453C769 -466 773 -488 775 -532L786 -716C788 -747 792 -763 806 -776ZM461 -762C468 -769 467 -776 459 -783L421 -812L398 -776L226 -755L194 -823L180 -818C188 -771 190 -753 192 -699L198 -563C200 -515 196 -494 186 -482L213 -438C219 -426 228 -428 232 -453L266 -459C254 -410 173 -334 75 -265L84 -250C136 -282 195 -322 252 -370C279 -392 284 -395 296 -401C304 -406 304 -409 301 -420L287 -461L391 -474L409 -452C416 -444 421 -444 425 -453C432 -467 436 -491 437 -527L444 -706C445 -732 448 -748 461 -762ZM468 -332C470 -356 468 -370 462 -389L358 -451L348 -441L452 -330C460 -322 467 -324 468 -332ZM838 -283C841 -302 834 -339 824 -363L688 -445L678 -432C723 -392 788 -325 821 -281C830 -268 837 -271 838 -283ZM940 -185L892 -219C866 -205 815 -197 513 -174V-253L714 -275C727 -276 727 -283 716 -291L678 -319C645 -302 530 -279 329 -265C341 -280 348 -287 364 -298C373 -304 374 -310 369 -318L339 -366L325 -361C326 -319 302 -272 199 -172L212 -160C245 -187 261 -201 291 -230L474 -248V-172L38 -141L87 -100C127 -110 250 -126 474 -140V6L305 18C301 -10 300 -39 307 -53C311 -60 309 -65 300 -72L258 -104L245 -92C257 -77 266 -49 266 -30V7C266 18 260 28 237 41L265 72C270 77 277 77 282 71C302 52 311 50 346 47L674 22L698 68C705 81 709 80 714 67C717 60 721 43 724 10L729 -42C730 -53 734 -64 742 -73C748 -80 749 -84 741 -92L695 -139L685 -134C696 -96 697 -47 686 -9L513 4V-142L938 -171C949 -172 950 -178 940 -185ZM748 -758L740 -562C738 -517 735 -503 729 -493L702 -515C695 -510 667 -503 569 -491L567 -559L711 -573C721 -574 721 -578 714 -585L689 -608C675 -600 645 -594 567 -585L566 -645L703 -660C719 -661 720 -665 709 -675L684 -698C671 -690 632 -681 565 -673L564 -739ZM407 -744L403 -560C402 -530 397 -505 389 -489L367 -506C355 -499 328 -492 233 -480L232 -546L376 -564C385 -565 388 -572 380 -579L358 -599C342 -591 297 -582 231 -574L230 -630L367 -645C382 -646 382 -652 373 -660L349 -683C338 -676 296 -666 229 -657L228 -723Z"/>
</svg>