<svg xmlns="http://www.w3.org/2000/svg" viewBox="0 -1000 1000 1000">
	<path fill="#000000" d="M712 -302L618 -429C640 -476 650 -501 663 -537C672 -563 683 -583 694 -594C704 -602 705 -605 697 -617L653 -676L641 -673C646 -632 624 -553 589 -467L516 -563L502 -551C529 -514 548 -485 576 -435C535 -340 477 -237 409 -157L421 -147C478 -197 546 -292 600 -393C634 -332 661 -274 676 -232C682 -216 687 -216 695 -230C702 -244 708 -268 712 -302ZM482 -363L409 -441C420 -468 428 -489 437 -515C447 -545 453 -560 462 -566C469 -571 470 -576 463 -585L421 -645L406 -642C411 -608 400 -546 379 -473L286 -573L274 -563C309 -517 335 -481 366 -436C338 -353 296 -257 243 -163L255 -155C301 -205 348 -292 391 -397C418 -357 440 -320 455 -290C461 -280 466 -279 470 -290C478 -314 480 -326 482 -363ZM826 -769C838 -778 837 -781 826 -790L782 -827L746 -784L216 -734L178 -809L159 -803C171 -763 180 -691 180 -640V-196C180 -113 174 -88 156 -58L204 25C212 38 218 38 219 21C221 -8 221 -32 221 -129V-697L764 -744V-136C764 -72 760 -30 752 -15L626 -103L615 -87C666 -41 728 22 768 66C777 77 783 77 787 66C805 12 807 -6 807 -119V-698C807 -737 813 -759 826 -769Z"/>
</svg>