<svg xmlns="http://www.w3.org/2000/svg" viewBox="0 -1000 1000 1000">
	<path fill="#000000" d="M794 -782L750 -825L718 -789L263 -745L237 -801L221 -795C228 -774 230 -762 231 -732L233 -626C233 -603 231 -595 222 -581L254 -530C259 -524 263 -524 266 -531C268 -539 269 -546 268 -562L784 -613C792 -614 794 -620 786 -627L751 -655L768 -734C772 -752 778 -762 793 -769C799 -772 800 -776 794 -782ZM501 -303L468 -329C454 -321 397 -307 271 -292L311 -261C341 -270 385 -278 500 -291C508 -292 510 -295 501 -303ZM665 -236L572 -320L560 -312L633 -170C638 -161 644 -161 648 -170C655 -184 663 -212 665 -236ZM945 -406L906 -436C877 -425 829 -415 768 -408V-461C768 -500 771 -511 780 -523C785 -529 783 -534 778 -538L715 -587L704 -577C719 -549 729 -507 729 -454V-403L530 -382L579 -345C627 -358 663 -365 729 -373V-112C729 -23 727 -3 719 17L614 -52L603 -37C656 10 686 46 727 103C735 113 741 112 746 103C765 71 768 58 768 -45V-376L944 -394C953 -395 954 -398 945 -406ZM569 -223L532 -249C501 -237 412 -216 211 -198C224 -241 234 -288 241 -341L513 -378C525 -379 526 -386 517 -394L498 -411L506 -462C508 -473 515 -485 531 -493C539 -497 540 -502 530 -510L487 -544L459 -507L253 -479L227 -540L209 -535C211 -252 150 -71 40 43L54 58C135 -28 181 -103 209 -191L244 -166C261 -171 316 -180 383 -188V-54C383 -31 382 -17 380 -4L302 -54L292 -39C329 -6 356 24 390 75C395 83 400 84 405 75C418 51 420 42 420 -20V-192L568 -210C578 -211 578 -217 569 -223ZM565 -83L457 -160L448 -148L546 -20C553 -12 557 -12 560 -20C565 -36 567 -57 565 -83ZM336 -112L306 -166L293 -162C293 -120 248 -64 155 15L165 29C223 -10 243 -26 299 -77C315 -91 325 -96 333 -98C338 -98 341 -102 336 -112ZM726 -756L710 -638L578 -624L589 -743ZM550 -739L541 -621L422 -607V-727ZM387 -604L267 -592V-712L387 -724ZM465 -476L459 -403L244 -373C248 -406 250 -426 253 -447Z"/>
</svg>