<svg xmlns="http://www.w3.org/2000/svg" viewBox="0 -1000 1000 1000">
	<path fill="#000000" d="M315 -674L221 -814L207 -806L274 -623C278 -612 283 -609 289 -620C301 -641 307 -653 315 -674ZM413 -583L376 -616C355 -601 328 -590 79 -556L134 -518C157 -528 191 -536 409 -571C420 -572 420 -577 413 -583ZM751 -493L663 -615L651 -605L714 -437C717 -428 723 -429 727 -436C740 -456 746 -472 751 -493ZM529 -470L450 -602L437 -593L490 -411C493 -401 497 -401 502 -408C514 -428 523 -449 529 -470ZM257 -286L183 -490L166 -482L209 -229C211 -219 216 -218 223 -226C240 -244 250 -263 257 -286ZM643 -713C649 -718 649 -722 642 -728L599 -763L569 -721L376 -689L422 -650C447 -659 484 -668 582 -687V-436L395 -255L447 -238C467 -269 486 -294 582 -405V-186C582 -116 576 -64 566 -38L468 -125L455 -114C510 -48 538 -12 578 49C585 59 589 58 594 50C609 25 621 -33 621 -147V-636C621 -683 626 -697 643 -713ZM849 -724C854 -729 853 -734 848 -738L801 -777L772 -729L641 -704L688 -673C706 -679 718 -682 792 -695V-418L632 -253L686 -239C701 -267 727 -305 792 -384V-171C792 -84 786 -51 776 -25L693 -103L682 -90C721 -39 763 24 786 65C791 75 797 75 802 66C822 34 832 -23 832 -165V-659C832 -695 835 -710 849 -724ZM431 -198L425 -216L301 -183C356 -387 373 -429 391 -446C398 -452 397 -458 392 -465L345 -535L332 -530C338 -476 324 -395 277 -177L47 -116L113 -77C150 -100 188 -117 431 -198Z"/>
</svg>