<svg xmlns="http://www.w3.org/2000/svg" viewBox="0 -1000 1000 1000">
	<path fill="#000000" d="M225 -474L134 -601L122 -590L183 -421C186 -413 189 -413 195 -420C205 -429 216 -446 225 -474ZM950 28V10C849 5 836 -7 726 -162C749 -202 771 -253 791 -308C817 -379 823 -390 839 -402C846 -407 847 -412 839 -420L801 -460L777 -428L711 -417V-599L821 -615L780 -519L797 -508C843 -586 875 -622 894 -632C902 -636 902 -642 896 -649L858 -695L828 -652L711 -637L714 -714C716 -766 717 -774 729 -790C735 -798 735 -801 730 -806L663 -867L653 -858C667 -817 671 -785 671 -736V-632L578 -620L555 -686L537 -683C545 -621 540 -415 535 -345C525 -214 509 -131 468 -42V-647C468 -677 477 -703 493 -718C501 -725 501 -730 495 -735L449 -771L423 -735L308 -713C316 -722 317 -725 309 -731L269 -763L243 -726L83 -697L125 -665C144 -673 179 -682 254 -695V-416L68 -260L127 -245C150 -276 174 -303 254 -382V-135C254 -74 251 -40 247 -28L144 -95L135 -80C181 -33 251 46 259 59C267 72 272 68 276 59C291 22 292 12 292 -115V-260L327 -247C339 -265 370 -297 430 -348V-138C430 -69 428 -36 422 -22L334 -85L323 -72C382 -5 400 17 434 64C438 70 443 70 446 63C454 46 458 31 460 20C532 -84 563 -176 575 -380L607 -359C634 -370 665 -377 771 -392C752 -316 736 -269 701 -199C658 -264 641 -301 639 -326L589 -324L587 -313C608 -288 650 -226 684 -169C635 -75 576 0 482 85L491 99C582 35 649 -37 707 -129L807 45ZM671 -412L576 -395C581 -475 583 -512 584 -583L671 -595ZM430 -384L292 -285V-654C292 -673 293 -685 297 -696L321 -676C334 -683 367 -691 430 -700ZM407 -479L327 -589L316 -580L366 -419C368 -413 373 -412 379 -419C392 -434 405 -458 407 -479Z"/>
</svg>