<svg xmlns="http://www.w3.org/2000/svg" viewBox="0 -1000 1000 1000">
	<path fill="#000000" d="M879 -716L837 -750C811 -734 767 -724 585 -708C626 -765 643 -777 660 -783C668 -786 669 -792 663 -800L621 -858L611 -853C612 -828 598 -786 551 -706L441 -697C445 -709 448 -728 451 -748L356 -831L345 -820L419 -696L133 -675L184 -635C221 -644 362 -664 479 -673C483 -653 479 -635 462 -589L435 -584L411 -634L400 -628C407 -592 409 -577 409 -540L411 -440C411 -401 408 -387 399 -369L425 -320C430 -311 440 -313 442 -340L611 -359C621 -360 622 -364 613 -372L591 -394L604 -560C605 -569 613 -581 622 -588C630 -594 629 -599 623 -605L591 -636L565 -604L491 -593C507 -623 512 -630 518 -633C524 -636 525 -642 519 -650L502 -674L877 -700C891 -701 891 -707 879 -716ZM895 -376C886 -418 880 -462 878 -500H861L850 -395C828 -386 798 -381 739 -384C692 -386 690 -391 689 -461L819 -478C830 -479 831 -483 821 -491L799 -509L806 -553C809 -571 816 -583 827 -589C836 -594 837 -598 827 -606L793 -635L772 -606L689 -585L666 -637L652 -632C656 -611 657 -591 657 -552V-424C657 -379 676 -356 717 -354C809 -349 843 -351 888 -361C896 -362 897 -367 895 -376ZM387 -494L360 -518C349 -510 336 -503 307 -497C308 -545 312 -559 318 -567C323 -574 321 -579 314 -586L275 -625L263 -618C273 -591 275 -570 275 -484V-373L223 -359V-448C223 -468 227 -483 233 -494C238 -502 236 -507 229 -514L190 -550L179 -542C187 -521 190 -495 190 -461V-349L95 -322L156 -290C170 -302 194 -314 385 -388L380 -402L307 -382V-469L384 -482C394 -483 394 -487 387 -494ZM823 -204C820 -219 809 -242 791 -274L590 -336L583 -318C696 -273 746 -241 811 -195C821 -187 826 -191 823 -204ZM401 -300L382 -344L370 -343C357 -303 312 -260 150 -168L158 -154C213 -178 307 -227 354 -263C371 -275 384 -282 396 -286C402 -289 404 -293 401 -300ZM944 68L943 50C787 52 746 41 528 -76C558 -101 583 -124 616 -158C648 -191 662 -203 677 -210C689 -215 689 -219 681 -228L643 -267L606 -236L439 -213C482 -252 493 -261 505 -267C511 -270 513 -275 510 -282L484 -332L472 -327C466 -281 381 -178 147 -34L157 -21C236 -59 311 -106 354 -139L468 -75C366 -2 252 50 127 86L133 101C278 71 395 20 501 -56L768 96ZM571 -576L567 -516L546 -534C533 -527 510 -521 440 -512V-555ZM776 -576L767 -501L689 -489V-558ZM567 -503L563 -441L541 -461C527 -452 508 -448 441 -437V-486ZM563 -429L560 -383L442 -369V-413ZM601 -205C579 -169 543 -131 495 -95L378 -158C394 -171 407 -183 421 -196L460 -177C471 -183 506 -189 601 -205Z"/>
</svg>