<svg xmlns="http://www.w3.org/2000/svg" viewBox="0 -1000 1000 1000">
	<path fill="#000000" d="M930 -238L878 -271C847 -251 825 -242 788 -234V-711L882 -724C891 -724 892 -730 882 -736L829 -770C786 -741 770 -735 436 -702L491 -662C502 -669 509 -671 526 -674V-190L428 -174L484 -138C517 -152 533 -155 749 -192V-137C749 -56 742 -14 725 15L767 96C770 102 777 102 779 94C786 67 788 40 788 -39V-198L927 -223C941 -224 942 -230 930 -238ZM493 -267L487 -286L407 -262V-704L473 -714C482 -715 484 -720 474 -726L422 -761C381 -736 308 -718 61 -699L114 -657C127 -664 142 -668 180 -675V-191L45 -149L115 -111C141 -130 174 -144 366 -218V-143C366 -78 360 -21 344 8L385 90C391 100 396 99 399 88C405 62 407 34 407 -45V-232C434 -242 461 -255 493 -267ZM366 -249L219 -203V-349L349 -366C358 -367 359 -372 351 -378L314 -406C284 -391 266 -386 219 -382V-506L346 -521C355 -522 356 -525 348 -532L314 -563C302 -554 263 -543 219 -537V-679L366 -699ZM749 -228L564 -195V-351L731 -371C740 -372 741 -377 733 -383L696 -412C669 -399 641 -391 564 -384V-504L721 -522C730 -523 732 -526 723 -534L690 -564C677 -554 644 -546 564 -536V-679L749 -705Z"/>
</svg>