<svg xmlns="http://www.w3.org/2000/svg" viewBox="0 -1000 1000 1000">
	<path fill="#000000" d="M651 -527L572 -616L560 -604L611 -483C616 -471 623 -469 631 -480C639 -493 644 -505 651 -527ZM946 -463V-479C833 -489 814 -499 756 -576L619 -756C625 -767 632 -775 638 -779C647 -785 650 -790 643 -800L599 -860L585 -854C598 -784 496 -577 349 -423V-665C349 -700 351 -709 372 -724C377 -728 378 -735 371 -741L323 -779L299 -733L199 -712L162 -785L148 -779C159 -728 162 -674 160 -564C154 -210 121 -79 36 68L52 78C129 -32 169 -128 188 -311L293 -322C304 -323 306 -327 296 -336L261 -367C250 -358 227 -349 191 -344C195 -384 197 -428 198 -475L293 -485C303 -486 305 -491 296 -498L261 -525C252 -520 236 -515 199 -508C202 -560 202 -593 201 -678L308 -699V-143C308 -89 306 -51 301 -18L195 -94L187 -82C239 -26 268 12 304 66C313 79 320 80 326 66C346 22 349 -4 349 -127V-391C431 -462 484 -523 547 -624C575 -669 588 -692 604 -726L800 -445ZM735 -454L692 -487L667 -453L442 -420L485 -384C516 -396 551 -405 670 -421L649 -348C644 -331 634 -320 618 -312L638 -259C642 -250 648 -248 653 -256C662 -272 665 -278 675 -310L705 -399C710 -412 717 -423 729 -432C743 -442 745 -447 735 -454ZM678 -175L564 -259L553 -248L656 -109C664 -98 669 -100 671 -112C675 -132 676 -143 678 -175ZM882 -110C884 -127 883 -145 880 -177L726 -256L719 -241L871 -105C875 -100 881 -101 882 -110ZM451 -223L433 -224C416 -131 395 -93 359 -70L376 -10C378 -2 384 -1 392 -11C433 -69 445 -107 451 -223ZM819 50C801 13 774 -57 756 -137L740 -134L757 16C699 19 622 -3 572 -57C539 -94 510 -156 500 -232L482 -230C486 -151 506 -81 540 -41C611 43 688 66 812 66C822 66 824 61 819 50Z"/>
</svg>