<svg xmlns="http://www.w3.org/2000/svg" viewBox="0 -1000 1000 1000">
	<path fill="#000000" d="M937 -654L899 -686C879 -678 764 -654 663 -641C670 -739 674 -763 687 -794C690 -802 689 -807 684 -811L622 -861L610 -848C629 -797 631 -785 623 -637L391 -610L437 -572C457 -580 550 -596 621 -605L615 -473L474 -451L445 -520L429 -515C438 -479 441 -446 444 -359L452 -94C453 -64 446 -27 436 -9L475 63C479 71 486 71 488 62C492 46 493 15 490 -72L479 -417L698 -448C700 -422 695 -379 675 -306L511 -278L547 -248C564 -256 575 -259 632 -270V-190L500 -172L537 -140C556 -147 594 -157 632 -163V-112C632 -59 628 -37 618 -19L648 30C654 38 660 37 663 29C669 9 670 -13 670 -84V-168L799 -185C811 -187 812 -190 802 -199L774 -223C759 -213 734 -206 670 -195V-275L780 -292C794 -294 794 -298 788 -303L759 -329C746 -322 728 -315 702 -310C714 -356 733 -391 741 -399C750 -409 750 -413 744 -420L719 -451L842 -469C837 -321 826 -153 817 -75C811 -18 808 -4 803 11L716 -40L707 -27C759 24 793 61 813 90C818 97 825 97 830 89C840 72 846 50 858 -65C868 -167 877 -310 881 -419C883 -460 888 -474 909 -488C916 -492 915 -498 909 -503L861 -541L834 -504L651 -478L661 -610L933 -641C944 -642 946 -647 937 -654ZM390 -756L344 -790L323 -755L210 -736L179 -805L163 -800C169 -764 174 -681 174 -598C174 -255 156 -97 47 68L63 74C161 -58 188 -146 206 -338L299 -353C308 -354 309 -358 304 -365L285 -388C277 -383 257 -378 208 -369C211 -409 212 -446 213 -501L302 -515C312 -517 313 -520 307 -527L286 -550C277 -544 255 -538 213 -531C214 -590 214 -653 213 -705L327 -723V-120C327 -47 325 -25 319 -10L218 -84L209 -68C261 -10 296 31 330 77C336 85 340 84 343 78C359 47 368 -5 368 -88V-700C368 -723 372 -732 389 -743C397 -748 396 -752 390 -756ZM627 -351L569 -412L558 -405L597 -302C599 -296 607 -295 611 -302C619 -316 624 -333 627 -351Z"/>
</svg>