<svg xmlns="http://www.w3.org/2000/svg" viewBox="0 -1000 1000 1000">
	<path fill="#000000" d="M728 -782L700 -841L684 -837C680 -799 660 -753 614 -691L491 -768L483 -755L593 -663C559 -620 512 -575 465 -538L476 -523C527 -561 575 -601 616 -644L708 -567C717 -560 722 -563 722 -573C722 -592 720 -602 716 -626L643 -674C659 -691 672 -710 686 -729C700 -749 714 -764 723 -768C730 -771 731 -776 728 -782ZM844 -679L801 -741L790 -735C796 -709 793 -667 782 -618C773 -581 768 -559 763 -546L459 -514V-611C459 -624 461 -637 470 -649C473 -653 473 -657 468 -662L417 -717L407 -708C420 -684 427 -659 427 -627V-549C427 -527 416 -505 402 -496L438 -465C446 -458 449 -459 456 -468C462 -476 474 -480 530 -489C527 -453 459 -367 350 -285L356 -269C409 -301 472 -348 513 -389C531 -407 559 -425 566 -427C572 -429 573 -432 569 -440L547 -490L749 -514L767 -467C769 -462 772 -461 777 -467C787 -480 792 -493 802 -538L824 -639C827 -651 833 -661 841 -666C846 -669 848 -673 844 -679ZM860 -307C860 -329 859 -344 854 -372L684 -480L673 -467L845 -306C854 -298 860 -297 860 -307ZM938 34L936 15C815 15 773 -8 649 -126C672 -157 704 -206 725 -244C738 -270 745 -278 773 -294C780 -298 780 -302 773 -310L729 -362L696 -319L562 -303C576 -325 590 -338 598 -341C606 -344 607 -350 602 -359L572 -413L557 -409C554 -340 427 -155 346 -84V-640C346 -686 355 -714 370 -722C378 -726 378 -730 370 -737L326 -775L298 -734L195 -715L169 -785L154 -781C161 -740 161 -724 162 -535C164 -198 148 -135 54 63L68 72C147 -56 184 -130 195 -319L293 -335C303 -337 304 -340 299 -346L275 -372C267 -365 246 -357 196 -348C198 -393 199 -442 199 -498L295 -515C305 -517 305 -521 300 -526L277 -550C269 -543 249 -536 199 -528C199 -575 198 -626 197 -682L307 -701L308 -92C308 -41 307 -25 303 -12L221 -73L211 -62C253 -12 278 23 309 72C315 81 319 82 326 71C342 43 346 22 346 -69L351 -65C408 -115 465 -169 507 -222L602 -126C532 -51 448 26 354 76L362 90C448 53 544 -13 626 -101L774 50ZM697 -286C679 -241 653 -191 622 -151L524 -247C531 -255 537 -262 541 -270Z"/>
</svg>