<svg xmlns="http://www.w3.org/2000/svg" viewBox="0 -1000 1000 1000">
	<path fill="#000000" d="M909 -493C901 -502 892 -510 879 -519C863 -510 846 -505 826 -504C804 -503 798 -510 798 -553V-694C798 -713 801 -719 818 -729C824 -733 825 -738 818 -744L779 -783L755 -746L679 -736L651 -800L635 -794C654 -624 633 -491 567 -410L583 -398C651 -482 675 -537 680 -702L761 -713V-555C761 -480 776 -464 825 -467C853 -469 879 -472 907 -478C916 -480 917 -484 909 -493ZM620 -263L611 -276L469 -208V-362L571 -380C586 -383 585 -389 575 -396L545 -417C527 -408 514 -404 469 -395V-535L569 -551C585 -554 585 -556 573 -567L543 -594C531 -586 517 -581 469 -570V-665C562 -749 571 -756 587 -758C596 -759 598 -764 594 -774L568 -838L555 -833C547 -801 521 -760 463 -692L426 -761L412 -755C425 -710 432 -639 432 -570V-190L359 -155V-678C359 -702 364 -712 384 -724C389 -727 389 -732 384 -737L336 -780L309 -737L200 -724L178 -811L161 -809C164 -752 166 -698 168 -556C171 -200 145 -102 64 61L79 71C157 -61 188 -138 199 -318L299 -334C308 -335 309 -339 303 -344L265 -376C253 -368 236 -361 201 -353C203 -396 205 -441 205 -494L304 -510C312 -511 313 -515 308 -519L268 -550C256 -543 235 -535 205 -528C206 -578 207 -640 206 -689L322 -700V-190C322 -83 317 -48 312 -30L214 -97L202 -82C255 -26 277 -1 315 51C323 62 327 63 333 52C356 9 359 -6 359 -138L406 -126C412 -132 421 -138 432 -147C432 -33 429 -7 413 19L452 91C460 104 466 104 467 89C469 68 469 38 469 -71V-171ZM956 33V13C858 8 835 -8 788 -85L737 -170C756 -208 776 -256 808 -344C815 -364 824 -373 845 -386C853 -392 852 -396 847 -400L800 -441L773 -408L555 -374L619 -340C649 -355 690 -363 769 -373C754 -310 733 -250 713 -209C664 -288 663 -300 672 -322L603 -329L600 -318C610 -312 643 -274 694 -172C644 -81 567 3 483 74L492 90C607 4 663 -54 714 -133L803 43Z"/>
</svg>