<svg xmlns="http://www.w3.org/2000/svg" viewBox="0 -1000 1000 1000">
	<path fill="#000000" d="M940 -339L938 -357C841 -367 806 -384 732 -472L681 -529L868 -550C881 -551 883 -557 872 -565L824 -596C802 -583 766 -575 709 -568C759 -640 777 -660 789 -665C798 -669 800 -673 796 -679L755 -739L740 -733C741 -692 735 -673 674 -564L644 -559V-722C665 -728 685 -734 706 -741C751 -756 775 -761 792 -763C809 -765 811 -772 797 -783L755 -817L744 -813C732 -797 623 -745 401 -687L408 -669C491 -685 553 -698 608 -712V-555L543 -547C550 -567 552 -578 553 -599L470 -666L458 -654L520 -545L393 -531L439 -496C453 -501 488 -507 567 -517C523 -434 464 -366 364 -284V-693C364 -706 374 -726 390 -737C396 -741 396 -744 390 -749L347 -789L316 -749L217 -734L187 -816L168 -808C174 -766 179 -678 177 -563C172 -216 142 -88 33 69L47 82C140 -27 189 -134 207 -329L326 -347V-116C326 -60 322 -39 314 -18L231 -88L216 -72C267 -11 279 6 319 72C325 82 332 82 338 71C352 47 364 -37 364 -124V-258C449 -313 551 -409 608 -498V-460C608 -392 605 -377 592 -349L616 -303L496 -288L477 -333L461 -327C467 -288 469 -261 469 -204V-75C470 -31 467 -10 455 20L489 83C495 94 502 94 504 81C508 51 509 33 509 11L723 -15L740 54C743 67 754 67 759 55C766 40 778 -22 784 -92L796 -246C798 -275 805 -288 820 -297C827 -301 827 -306 819 -313L776 -348L752 -320L639 -306C643 -331 644 -354 644 -435V-525L651 -526L811 -328ZM326 -541L293 -563C280 -554 264 -548 216 -540C217 -591 218 -652 219 -701L326 -717ZM326 -366L290 -385C278 -377 254 -370 209 -362C213 -406 215 -454 216 -508L326 -524ZM603 -169L506 -157L503 -258L603 -270ZM757 -287L745 -121C742 -77 737 -53 730 -41L714 -58C700 -51 670 -43 642 -39V-141L738 -157C744 -157 745 -160 740 -166L714 -195C690 -183 678 -178 642 -174V-274ZM603 -34L508 -22L506 -133L522 -123C542 -128 555 -131 603 -137Z"/>
</svg>