<svg xmlns="http://www.w3.org/2000/svg" viewBox="0 -1000 1000 1000">
	<path fill="#000000" d="M455 -645C462 -651 462 -656 456 -661L415 -697L386 -657L292 -643C335 -749 345 -770 358 -779C363 -783 363 -789 359 -793L304 -850L293 -842C301 -801 297 -748 262 -638L230 -633L193 -720L178 -711C191 -645 197 -572 192 -388L55 -366L95 -327C112 -336 141 -345 191 -353C183 -166 148 -49 38 79L52 92C180 -37 219 -149 229 -359L394 -386V-229C394 -130 391 -98 382 -62L273 -137L262 -124C313 -76 354 -25 385 22C390 31 395 31 402 20C428 -21 435 -49 435 -195V-584C435 -621 439 -632 455 -645ZM883 -684C891 -689 892 -694 882 -703L835 -745L805 -702L468 -659L518 -619C541 -627 555 -630 599 -636C590 -273 520 -75 360 86L377 102C545 -66 593 -179 635 -476C644 -539 648 -558 658 -566C666 -572 667 -577 659 -589L623 -640L811 -666C780 -200 755 -88 720 -23L617 -117L599 -103C657 -27 698 38 708 66C712 77 719 76 726 66C794 -48 810 -107 851 -572C859 -662 863 -670 883 -684ZM350 -267L278 -344L266 -334L309 -202C314 -188 321 -187 326 -198C342 -230 346 -243 350 -267ZM394 -418L230 -393C232 -446 234 -534 235 -602L394 -624ZM342 -509L269 -584L256 -574L309 -443C314 -432 320 -431 326 -442C337 -463 341 -479 342 -509Z"/>
</svg>