<svg xmlns="http://www.w3.org/2000/svg" viewBox="0 -1000 1000 1000">
	<path fill="#000000" d="M889 -739L850 -803L834 -795C834 -757 820 -718 735 -581L750 -571C846 -693 868 -717 883 -726C891 -731 892 -734 889 -739ZM599 -655L499 -765L486 -754L563 -587C567 -579 573 -577 578 -586C590 -605 598 -631 599 -655ZM867 -523C875 -530 875 -535 867 -541L822 -577L794 -535L697 -521V-719C697 -754 702 -782 711 -797C715 -805 714 -810 709 -814L649 -865L634 -853C648 -829 656 -776 656 -722V-516L552 -500L524 -565L506 -557C513 -525 519 -470 519 -422V-154C519 -71 510 -27 498 -6L539 64C546 75 553 73 554 62C556 40 558 9 558 -71V-194L764 -227C774 -229 774 -233 767 -240L733 -272C717 -261 691 -252 558 -228V-333L764 -368C772 -369 772 -375 766 -380L732 -410C717 -399 689 -392 558 -368V-466L807 -500V-107C807 -51 801 -10 792 13L681 -55L670 -41C749 33 780 65 806 99C812 106 818 105 821 99C837 65 847 -3 847 -65V-472C847 -499 852 -510 867 -523ZM456 -638C463 -644 462 -648 456 -653L410 -690L384 -648L313 -634C344 -741 356 -775 367 -793C371 -801 370 -806 365 -810L308 -858L297 -850C312 -815 307 -748 284 -628L248 -620L213 -695L198 -688C211 -605 213 -491 207 -383L53 -368L102 -326C124 -333 160 -341 206 -348C192 -135 161 -25 59 87L71 99C186 -2 229 -100 246 -355L392 -377V-98C392 -50 389 -19 384 -7L294 -64L284 -49C335 -3 369 36 399 74C403 79 409 79 413 74C428 48 433 1 433 -75V-569C433 -610 436 -621 456 -638ZM357 -243L287 -327L274 -317L319 -190C323 -182 328 -181 334 -189C344 -205 353 -225 357 -243ZM392 -401L247 -387C250 -428 252 -499 251 -587L392 -615ZM356 -490L287 -558L276 -547L323 -441C327 -433 331 -432 337 -440C346 -454 352 -471 356 -490Z"/>
</svg>