<svg xmlns="http://www.w3.org/2000/svg" viewBox="0 -1000 1000 1000">
	<path fill="#000000" d="M779 -610L740 -642C712 -629 652 -618 533 -605L568 -573C595 -581 707 -594 776 -599C786 -599 787 -604 779 -610ZM761 -502L724 -532C702 -522 646 -507 531 -493L563 -463C589 -471 679 -487 758 -492C766 -492 768 -496 761 -502ZM415 -669C423 -676 423 -681 413 -690L374 -724L346 -683L270 -674C301 -750 312 -774 324 -782C333 -789 334 -795 326 -804L275 -862L262 -855C272 -801 268 -765 239 -671L215 -668L182 -736L168 -730C182 -666 184 -538 179 -401L26 -380L77 -340C97 -351 132 -362 178 -370C169 -163 137 -55 52 65L68 76C170 -55 206 -160 215 -375L358 -397V-151C358 -85 353 -49 345 -30L259 -112L247 -100C303 -29 323 0 353 52C362 66 368 66 374 54C388 29 397 -14 397 -97V-603C397 -638 400 -656 415 -669ZM885 -747L835 -786L810 -747L502 -716L464 -789L452 -784C462 -742 466 -715 467 -685L469 -578C470 -529 466 -516 457 -496L491 -434L485 -431C492 -401 496 -362 496 -322L501 -74C501 -33 496 -3 484 13L517 81C522 92 530 90 533 79C539 57 540 39 539 -9L737 -25L772 65C776 75 784 75 787 66C794 45 797 26 802 -42L817 -324C820 -363 824 -370 838 -379C847 -385 846 -392 838 -398L793 -435L769 -400L526 -379L503 -429C506 -433 509 -448 508 -483L504 -683L819 -713L800 -555C797 -528 788 -505 778 -490L808 -439C811 -433 816 -434 819 -440C824 -449 828 -462 830 -477L856 -681C859 -708 866 -721 883 -729C891 -733 891 -742 885 -747ZM321 -261L267 -352L252 -345L276 -222C280 -202 286 -201 295 -213C307 -230 310 -235 321 -261ZM358 -428L216 -406C220 -508 220 -553 217 -637L358 -653ZM778 -368L767 -113C766 -83 761 -62 751 -47L719 -69C697 -57 658 -48 539 -40L537 -131L745 -153C753 -154 755 -160 747 -167L712 -195C684 -182 624 -170 536 -162L535 -236L749 -259C758 -260 760 -265 751 -272L711 -301C691 -289 655 -283 535 -268L533 -346ZM320 -512L269 -595L257 -588L282 -472C286 -452 291 -451 300 -465C309 -478 314 -489 320 -512Z"/>
</svg>