<svg xmlns="http://www.w3.org/2000/svg" viewBox="0 -1000 1000 1000">
	<path fill="#000000" d="M700 -766L612 -851L599 -841L658 -706C665 -690 672 -690 679 -701C692 -723 697 -742 700 -766ZM889 -433L855 -467L832 -435L531 -399L522 -414C524 -436 526 -460 529 -487L824 -522C844 -524 844 -532 834 -540L813 -555L826 -630C830 -652 836 -662 850 -670C859 -675 859 -682 850 -690L812 -728L787 -696L535 -666L505 -754L491 -749C504 -644 485 -401 470 -290C456 -173 429 -85 385 5C395 -43 398 -93 398 -186V-565C398 -589 406 -612 421 -625C427 -629 427 -636 421 -641L376 -681L353 -644L294 -637C313 -719 329 -768 340 -776C345 -780 346 -785 343 -790L286 -856L275 -847C284 -815 282 -711 264 -634L223 -629L195 -699L179 -692C186 -660 190 -536 186 -381L41 -365L90 -320C106 -327 132 -333 185 -344C178 -138 135 -40 52 79L68 91C177 -33 220 -163 225 -349L359 -368V-194C359 -130 354 -71 344 -33L267 -87L256 -72C298 -29 337 19 359 51C355 61 350 70 345 79L361 91C454 -37 492 -160 511 -314C512 -294 513 -269 513 -238L514 -148C515 -40 514 -31 500 -14L533 54C539 69 550 66 551 49C552 24 552 -25 551 -103L549 -208L562 -198C577 -204 597 -209 616 -212V-117C616 -67 611 -51 599 -37L628 21C638 39 648 38 649 18C650 -4 650 -28 650 -113V-215L709 -222L708 -153C706 -62 700 -52 692 -43L717 20C723 35 732 37 736 20C738 13 740 -7 741 -31C769 3 797 45 809 70C817 86 826 84 833 69C848 35 853 -6 859 -121L871 -361C872 -389 875 -399 886 -408C899 -419 899 -423 889 -433ZM333 -231L274 -323L256 -314L287 -181C290 -169 296 -169 303 -177C314 -190 328 -213 333 -231ZM788 -661L773 -551L531 -521C533 -554 535 -590 537 -631ZM359 -398L225 -384C227 -439 228 -529 228 -595L359 -609ZM837 -400L828 -257L800 -273C794 -268 782 -264 746 -259L749 -389ZM712 -385L709 -255L650 -248V-378ZM616 -245L549 -237L546 -366L616 -374ZM827 -236C822 -109 817 -38 808 -9L742 -62L745 -226ZM334 -476L270 -565L256 -552L292 -425C295 -414 303 -411 309 -422C321 -444 329 -461 334 -476Z"/>
</svg>