<svg xmlns="http://www.w3.org/2000/svg" viewBox="0 -1000 1000 1000">
	<path fill="#000000" d="M292 -498L236 -567L226 -557L257 -462C261 -449 266 -448 274 -460C281 -471 287 -483 292 -498ZM381 -656C387 -660 387 -665 381 -670L338 -708L310 -673L270 -667C304 -753 317 -779 327 -787C332 -791 332 -796 328 -801L279 -857L262 -848C266 -810 260 -739 239 -663L203 -656L161 -724L146 -716C160 -647 163 -600 157 -403L33 -392L74 -351C94 -360 122 -366 157 -371C149 -156 120 -46 48 73L63 82C144 -24 187 -158 196 -375L317 -388V-162C317 -78 312 -35 300 1L201 -68L191 -55C245 3 273 37 307 84C314 93 322 95 327 83C349 26 356 -36 356 -158V-595C356 -628 360 -641 381 -656ZM317 -418L197 -408C199 -459 201 -543 201 -621L317 -636ZM941 -15L940 -31C850 -52 813 -71 760 -143L695 -232C757 -277 777 -288 796 -293C806 -295 808 -301 802 -314L780 -365L766 -360C759 -337 718 -288 641 -222C628 -259 614 -291 594 -317C619 -332 635 -339 649 -343C658 -346 658 -352 650 -359L638 -369L855 -391C863 -392 863 -397 855 -403L817 -434C756 -415 666 -398 393 -376L429 -342C457 -349 490 -353 590 -364C560 -334 503 -299 376 -233L385 -218C456 -244 521 -273 571 -304C574 -300 578 -295 581 -291C527 -238 449 -177 382 -133L392 -118C462 -156 533 -204 596 -255C600 -245 603 -234 606 -222C542 -141 464 -76 366 -15L376 -2C467 -48 545 -100 616 -173C627 -105 619 -7 594 33L496 -30L486 -13C519 20 553 58 585 95C593 104 599 104 604 98C625 77 656 11 659 -61C662 -111 657 -157 647 -197C656 -204 665 -210 673 -216L803 -6ZM285 -255L229 -345L217 -339L243 -210C246 -197 252 -196 259 -206C269 -220 278 -236 285 -255ZM761 -484L728 -510C690 -495 613 -482 466 -475L503 -442C541 -451 605 -458 754 -469C770 -470 772 -475 761 -484ZM563 -574L452 -564C452 -576 450 -590 449 -604L432 -603C436 -541 414 -494 389 -467L410 -424C414 -415 419 -415 424 -424C445 -461 451 -486 452 -530L817 -563L783 -481L800 -476C842 -547 879 -579 892 -582C900 -585 902 -591 893 -599L848 -636L816 -596L569 -574C575 -592 577 -607 575 -663L679 -674C675 -648 672 -625 668 -592L691 -590C700 -626 706 -652 712 -677L884 -695C893 -696 893 -700 886 -707L851 -743C827 -731 786 -721 719 -712C734 -775 740 -792 747 -799C755 -807 755 -812 746 -819L691 -865L680 -851C689 -821 691 -788 682 -708L574 -697L573 -749C573 -763 575 -774 583 -789C588 -799 588 -805 577 -814L523 -857L511 -848C520 -831 533 -782 534 -759L538 -693L398 -679L442 -641C475 -649 503 -654 539 -659C539 -637 537 -627 531 -615Z"/>
</svg>