<svg xmlns="http://www.w3.org/2000/svg" viewBox="0 -1000 1000 1000">
	<path fill="#000000" d="M911 -686L862 -727C830 -710 763 -697 651 -689C681 -768 689 -780 698 -789C704 -795 704 -799 699 -804L637 -863L627 -855C639 -807 636 -767 611 -687L423 -674L420 -733C419 -758 423 -774 430 -784C433 -788 432 -792 427 -796L359 -838L350 -825C363 -810 380 -766 381 -744L385 -672L108 -653L162 -610C207 -622 251 -629 386 -637C388 -599 387 -585 378 -571L411 -525C416 -518 422 -518 425 -530C429 -546 429 -567 424 -640L601 -651C591 -619 578 -579 562 -532L582 -524C597 -558 613 -596 637 -653L908 -671C920 -672 921 -678 911 -686ZM946 -85V-102C810 -122 787 -138 680 -271L562 -419L843 -445C855 -446 856 -450 846 -459L798 -497C763 -482 662 -462 522 -449C524 -481 532 -517 537 -527C541 -535 541 -540 533 -547L477 -596L463 -587C478 -552 482 -532 482 -445L152 -420L206 -375C232 -384 284 -393 432 -408C366 -283 265 -168 50 -29L56 -13C224 -98 385 -237 482 -396V-158L302 -138L341 -101C371 -110 409 -116 482 -124V-59C482 -23 477 11 461 32L499 98C507 112 513 112 516 100C520 82 522 63 522 3V-128L665 -144C676 -145 677 -149 668 -157L631 -189C610 -179 568 -168 522 -162V-416L530 -417L783 -67Z"/>
</svg>