<svg xmlns="http://www.w3.org/2000/svg" viewBox="0 -1000 1000 1000">
	<path fill="#000000" d="M873 -725L834 -757C804 -748 739 -737 639 -729C659 -780 666 -794 675 -800C680 -804 681 -810 675 -816L622 -869L611 -861C616 -816 616 -786 602 -727L417 -712C413 -770 414 -784 418 -791C421 -797 419 -803 415 -805L357 -838L349 -827C358 -814 371 -774 380 -710L116 -689L161 -647C188 -656 304 -672 383 -678C384 -660 380 -632 373 -624L409 -587C416 -580 420 -581 421 -592C422 -599 423 -623 422 -639L419 -680L593 -692C587 -670 579 -643 569 -613L587 -605C599 -631 614 -664 626 -694L870 -712C881 -713 883 -716 873 -725ZM921 63V44C800 35 745 14 613 -121L506 -232L762 -261C753 -215 742 -186 722 -152L645 -187L638 -176C674 -149 692 -132 720 -101C728 -91 732 -91 741 -103C759 -127 778 -169 799 -232C807 -258 816 -271 831 -277C839 -280 841 -284 834 -290L797 -325L770 -297L495 -265C498 -283 502 -306 505 -334L733 -359C746 -360 746 -363 738 -371L726 -383L742 -439C747 -457 755 -468 765 -471C773 -474 774 -478 767 -484L734 -515L708 -488L517 -467C519 -488 521 -512 523 -535L833 -561C847 -562 847 -565 836 -575L801 -605C783 -596 703 -583 525 -567C527 -584 528 -589 532 -594C538 -601 537 -608 529 -614L469 -660L458 -648C475 -622 479 -603 480 -563L144 -533L190 -493C222 -502 306 -517 480 -532C480 -509 479 -485 478 -463L236 -437L279 -402C310 -412 343 -418 476 -432C474 -410 471 -386 469 -365L289 -342L268 -379L256 -376C251 -250 243 -237 208 -215L240 -189C248 -182 251 -182 260 -192C269 -204 285 -209 344 -215L446 -226C406 -94 269 8 63 92L70 106C311 30 444 -88 484 -218L750 77ZM708 -459L693 -391L508 -369C510 -389 513 -412 515 -436ZM466 -330C462 -305 458 -280 454 -261L280 -239L289 -312Z"/>
</svg>