<svg xmlns="http://www.w3.org/2000/svg" viewBox="0 -1000 1000 1000">
	<path fill="#000000" d="M869 -699L820 -732C788 -717 750 -709 638 -699C650 -741 660 -767 668 -773C676 -779 676 -786 671 -790L611 -850L598 -844C614 -817 615 -782 599 -696L396 -678L395 -725C394 -754 396 -768 401 -774C405 -780 404 -786 399 -790L348 -832L337 -824C349 -793 357 -755 359 -718L361 -675L104 -652L158 -613C185 -622 247 -631 361 -640C361 -610 357 -589 351 -578L381 -530C388 -519 392 -519 395 -532C400 -551 401 -573 397 -643L593 -660C580 -606 573 -583 560 -548L579 -541C597 -580 607 -606 627 -663L866 -683C882 -684 884 -688 869 -699ZM931 -31L930 -54C781 -56 736 -79 653 -170L510 -329L511 -369L689 -388C682 -307 678 -287 668 -262L607 -298L597 -285C630 -258 649 -236 672 -195C676 -187 683 -186 688 -195C708 -231 715 -262 724 -344C727 -373 736 -399 749 -406C754 -409 755 -412 748 -418L708 -452L686 -422L511 -402V-475L811 -502C818 -502 820 -509 813 -515L765 -549C742 -537 666 -525 511 -508C513 -534 519 -552 530 -568C533 -574 533 -579 528 -583L472 -631L461 -619C469 -594 472 -573 472 -504L151 -477L199 -438C239 -449 280 -455 472 -473V-398L314 -381L284 -438L265 -432C274 -414 281 -382 282 -359L284 -282C285 -251 280 -235 272 -224L304 -178C310 -170 314 -170 317 -177C321 -185 323 -203 322 -244L319 -348L472 -365V-336C378 -182 220 -45 63 30L74 47C234 -24 366 -127 472 -259V-95C472 -23 465 6 450 25L493 105C498 115 506 114 507 105C510 82 511 67 511 -66V-286L726 -19Z"/>
</svg>