<svg xmlns="http://www.w3.org/2000/svg" viewBox="0 -1000 1000 1000">
	<path fill="#000000" d="M865 -677L792 -721C778 -709 708 -691 616 -684C632 -741 641 -765 655 -778C660 -782 660 -788 656 -791L594 -851L581 -839C592 -809 594 -758 574 -681L409 -670C409 -746 411 -756 423 -767C427 -770 427 -775 422 -780L357 -843L345 -833C357 -817 365 -777 370 -667L85 -648L157 -598C182 -608 285 -621 372 -627C372 -603 368 -576 363 -561L394 -520C400 -512 405 -512 408 -520C412 -530 413 -542 410 -630L564 -642C554 -605 547 -579 534 -542L556 -533C576 -572 594 -613 605 -645L863 -665C876 -666 877 -669 865 -677ZM806 -489C816 -490 818 -493 806 -501L754 -535C718 -518 655 -504 451 -489L510 -445C546 -458 651 -472 806 -489ZM348 -505L319 -573L305 -568C305 -524 241 -428 131 -342L144 -329C194 -363 244 -402 286 -443C317 -473 330 -484 344 -492C350 -496 350 -499 348 -505ZM396 -383L374 -447L358 -442C346 -387 234 -242 62 -110L75 -95C129 -129 221 -201 280 -258V-97C280 -43 273 -17 258 7L298 88C302 96 305 95 310 89C318 75 319 50 319 -68V-299C353 -339 371 -355 392 -368C397 -372 398 -375 396 -383ZM896 -329C906 -330 906 -335 896 -342L840 -381C802 -362 703 -345 390 -322L447 -275C474 -286 562 -300 665 -309V-95C665 -31 661 -13 652 5L539 -83L527 -66C577 -14 635 52 663 91C669 99 673 99 679 91C695 69 706 17 706 -71V-313Z"/>
</svg>