<svg xmlns="http://www.w3.org/2000/svg" viewBox="0 -1000 1000 1000">
	<path fill="#000000" d="M954 -333V-349C862 -360 793 -391 742 -444L576 -621L848 -636C861 -637 862 -640 851 -651L813 -690C785 -679 686 -663 477 -651C524 -738 538 -753 557 -767C564 -772 565 -775 558 -785L510 -854L494 -851C502 -820 467 -730 422 -649L132 -636L186 -590C202 -595 298 -606 401 -613C323 -486 184 -347 46 -261L57 -242C153 -294 269 -389 356 -487C359 -455 360 -439 360 -362V-172L116 -157L167 -115C218 -126 290 -137 411 -144C351 -51 276 15 217 22L262 69C268 76 271 77 282 73C319 60 393 42 642 -3L712 86C720 96 726 96 729 84C734 66 738 37 738 11L580 -104L568 -95L621 -27L316 12L411 -72C433 -90 446 -99 457 -104C469 -109 469 -113 463 -122L449 -145L860 -168C873 -169 874 -172 863 -182L825 -220C789 -207 666 -192 400 -175V-242L662 -272C673 -273 674 -277 665 -285L635 -316C616 -307 566 -295 400 -278V-345L636 -369C647 -370 648 -374 638 -383L607 -414C574 -399 534 -393 400 -380V-448L616 -472C628 -473 629 -477 619 -486L587 -515C561 -504 533 -498 404 -483L382 -515C418 -558 438 -584 455 -615L544 -620L789 -323Z"/>
</svg>