<svg xmlns="http://www.w3.org/2000/svg" viewBox="0 -1000 1000 1000">
	<path fill="#000000" d="M885 -601L844 -629C820 -618 786 -609 675 -596V-648C675 -720 679 -750 691 -765C696 -772 695 -777 688 -783L630 -833L619 -825C634 -788 638 -747 638 -671V-593L460 -574L506 -535C540 -545 591 -555 638 -562V-409L497 -396L543 -359C576 -371 682 -386 808 -392C825 -393 825 -398 815 -406L780 -433C763 -426 712 -416 675 -412V-565L880 -586C896 -587 896 -593 885 -601ZM470 -758C475 -766 473 -771 467 -776L414 -827L402 -820C413 -790 417 -764 417 -629L299 -615L300 -680C300 -697 304 -713 309 -720C314 -728 313 -733 307 -738L265 -773L254 -767C261 -745 264 -720 264 -670C264 -623 261 -616 233 -590L269 -564C274 -560 279 -560 284 -566C293 -577 299 -582 309 -583L417 -596V-520L147 -486L193 -448C212 -457 250 -466 292 -472C278 -391 230 -315 130 -245L144 -234C270 -307 313 -387 337 -477L417 -488C417 -407 411 -371 400 -349L430 -298C437 -286 442 -286 447 -300C452 -314 455 -348 455 -427V-673C455 -709 460 -746 470 -758ZM926 54L925 38C784 37 736 21 651 -86L566 -192L863 -218C878 -219 879 -222 866 -232L824 -264C799 -249 751 -238 518 -219C535 -266 540 -277 544 -280C553 -288 553 -292 547 -299L504 -349L495 -345C499 -302 493 -262 476 -216L174 -193L223 -154C250 -162 308 -171 463 -184C412 -68 333 -5 139 67L147 84C344 24 456 -50 508 -187L530 -189L727 73Z"/>
</svg>