<svg xmlns="http://www.w3.org/2000/svg" viewBox="0 -1000 1000 1000">
	<path fill="#000000" d="M875 -736L826 -770C799 -756 763 -747 626 -736C641 -774 646 -781 653 -785C661 -790 661 -794 656 -800L612 -857L598 -850C602 -824 599 -794 584 -733L399 -718C395 -761 395 -777 401 -785C406 -790 406 -797 399 -802L344 -841L334 -833C346 -805 357 -767 362 -715L94 -693L147 -652C174 -661 262 -673 365 -682C369 -642 365 -621 359 -610L391 -563C397 -553 403 -554 405 -564C409 -584 411 -611 403 -684L575 -697C566 -669 557 -644 542 -607L562 -597C586 -636 601 -666 613 -700L872 -720C889 -721 891 -725 875 -736ZM831 -554L771 -591C740 -575 680 -561 535 -541C540 -554 543 -570 544 -591L460 -663L448 -648L510 -538L280 -511L257 -573L237 -568C245 -507 241 -366 231 -290C211 -150 173 -57 76 64L90 80C204 -42 253 -150 270 -294C277 -353 282 -425 283 -476L830 -542C841 -543 841 -548 831 -554ZM870 69C856 10 844 -64 839 -141L818 -140L810 17C728 -10 643 -103 600 -241L821 -277C834 -279 834 -283 824 -291L783 -323C754 -307 674 -287 591 -274C581 -317 572 -366 567 -413C685 -448 713 -456 723 -458C738 -460 740 -467 725 -478L680 -511L665 -504C650 -479 639 -473 377 -387L349 -447L333 -443C337 -408 337 -398 337 -275V-88C337 -9 336 -2 296 31L350 55C359 59 363 58 369 50C380 33 402 11 557 -108L545 -125L374 -18V-207L559 -236C616 -54 725 52 854 83C869 87 873 83 870 69ZM617 2L519 -68L509 -52L590 66C599 79 604 78 608 67C614 48 617 22 617 2ZM552 -269L374 -242V-360C423 -372 470 -384 528 -401C535 -348 543 -304 552 -269Z"/>
</svg>