<svg xmlns="http://www.w3.org/2000/svg" viewBox="0 -1000 1000 1000">
	<path fill="#000000" d="M861 -725L795 -762C756 -746 693 -731 620 -724C630 -752 642 -776 649 -784C653 -787 653 -791 650 -796L603 -856L585 -848C592 -818 591 -785 579 -721L411 -707C409 -757 411 -766 418 -774C422 -778 422 -782 418 -786L360 -835L346 -824C361 -798 369 -775 375 -704L103 -684L170 -643C194 -649 275 -661 377 -669C378 -647 372 -629 364 -620L400 -576C405 -570 408 -570 410 -582C414 -609 414 -633 412 -672L571 -686C563 -648 553 -613 540 -577L561 -571C580 -605 599 -652 610 -689L858 -712C870 -713 871 -719 861 -725ZM932 -179V-198C795 -199 767 -208 608 -349L845 -373C857 -374 857 -379 849 -384L801 -416C773 -399 693 -385 397 -359C410 -380 420 -399 431 -424L732 -453C746 -454 747 -460 736 -466L692 -494C670 -484 558 -464 443 -453C453 -473 461 -493 468 -516L785 -548C799 -548 800 -552 789 -562L744 -587C720 -577 605 -558 479 -546C487 -572 490 -579 499 -585C504 -589 504 -593 500 -599L458 -657L444 -654C449 -625 447 -603 429 -542L175 -520L226 -486C247 -491 293 -499 420 -512C414 -489 410 -477 399 -450L223 -436L280 -404C298 -409 328 -415 388 -421C378 -399 366 -378 351 -354L109 -332L158 -296C222 -310 261 -316 331 -322C272 -236 219 -182 77 -83L87 -67C218 -143 309 -223 377 -326L462 -335C469 -320 475 -279 475 -231L285 -209L331 -171C353 -178 403 -188 475 -197V-123L227 -95L276 -58C306 -67 321 -71 475 -88V-32C475 14 470 28 459 45L493 99C500 110 505 110 508 99C512 83 514 73 514 17V-92L728 -116C742 -117 743 -122 733 -130L690 -164C668 -154 616 -140 514 -127V-203L656 -219C668 -220 669 -226 660 -233L623 -260C610 -251 588 -245 514 -235C514 -273 518 -295 523 -301C527 -305 527 -310 522 -313L487 -338L565 -346L762 -158Z"/>
</svg>