<svg xmlns="http://www.w3.org/2000/svg" viewBox="0 -1000 1000 1000">
	<path fill="#000000" d="M873 -705L834 -741C805 -729 761 -721 637 -712C658 -764 664 -775 673 -785C678 -791 677 -794 672 -798L617 -853L608 -845C617 -822 613 -781 595 -710L401 -698C398 -754 399 -760 405 -774C408 -781 407 -784 404 -786L343 -825L335 -811C346 -796 356 -768 362 -696L101 -680L138 -643C157 -649 221 -655 364 -665C369 -630 367 -608 360 -597L394 -554C401 -545 409 -547 409 -557C410 -595 409 -614 403 -667L587 -678C576 -639 562 -599 551 -574L572 -565C590 -595 598 -613 624 -680L871 -694C880 -694 881 -698 873 -705ZM906 4L860 -33C814 -19 664 -7 513 1V-83L753 -103C763 -104 764 -109 755 -115L714 -142C675 -129 615 -119 513 -112V-190L789 -211C799 -212 799 -216 791 -222L751 -253C728 -243 617 -227 513 -220V-286L756 -307C769 -308 769 -313 760 -320L733 -341L740 -395C742 -414 752 -429 766 -435C774 -439 774 -443 769 -448L725 -489L697 -453L513 -436V-519L820 -536C831 -536 832 -542 822 -549L776 -581C733 -566 698 -561 591 -554L145 -528L192 -488C230 -495 357 -509 471 -516V-433L286 -417L257 -468L243 -462C250 -441 253 -421 254 -386L257 -311C258 -294 253 -280 246 -269L277 -227C282 -221 292 -223 294 -268L471 -283V-218L197 -200L246 -165C279 -171 340 -178 471 -187V-110L233 -95L282 -60C299 -64 338 -69 471 -80V4L104 24L145 66C181 57 445 34 905 16C914 16 915 12 906 4ZM704 -422L695 -335L513 -318V-405ZM471 -315L293 -297L291 -385L471 -401Z"/>
</svg>