<svg xmlns="http://www.w3.org/2000/svg" viewBox="0 -1000 1000 1000">
	<path fill="#000000" d="M905 -714L862 -743C825 -731 757 -719 643 -708C663 -768 674 -788 684 -794C690 -798 690 -801 684 -806L635 -856L619 -848C624 -825 618 -791 598 -705L433 -691C430 -766 432 -774 441 -790C444 -794 443 -798 438 -801L375 -845L362 -835C376 -817 387 -777 395 -689L112 -666L165 -625C199 -635 245 -641 395 -655C394 -642 391 -629 385 -621L419 -562C427 -549 436 -551 437 -564C439 -589 439 -611 435 -659L590 -673C582 -637 567 -596 558 -576L579 -569C602 -609 619 -644 632 -676L903 -700C915 -701 915 -707 905 -714ZM914 22C909 8 895 -82 886 -175H861L854 -3C829 8 716 21 669 17C594 11 586 3 586 -94V-122C652 -156 713 -190 757 -218C783 -235 797 -242 808 -243C817 -244 819 -249 816 -259L794 -325L775 -322C771 -287 722 -235 586 -152V-224C586 -254 590 -267 602 -278C607 -283 606 -289 601 -294L559 -331L744 -351C752 -352 753 -357 746 -364L720 -389L734 -488C740 -534 744 -546 763 -557C771 -562 772 -565 765 -572L715 -618L689 -576L325 -532L297 -602L276 -597C282 -573 286 -540 288 -488L291 -399C292 -364 289 -348 277 -326L312 -267C324 -247 333 -252 334 -306L532 -328C542 -305 545 -277 545 -199V-81C545 36 556 44 660 51C722 55 870 47 906 39C914 37 917 31 914 22ZM528 -60L516 -79L318 13V-151L515 -176C528 -178 528 -183 518 -191L482 -221C470 -211 446 -201 319 -181C321 -196 326 -207 331 -214C336 -222 335 -225 329 -230L268 -287L256 -278C272 -249 279 -210 279 -133V-28C279 23 272 31 235 50L286 85C292 89 295 89 299 84C321 58 361 33 528 -60ZM700 -546L679 -377L333 -338L331 -407L649 -444C660 -445 661 -450 652 -459L618 -490C585 -474 521 -459 329 -437L326 -501Z"/>
</svg>