<svg xmlns="http://www.w3.org/2000/svg" viewBox="0 -1000 1000 1000">
	<path fill="#000000" d="M872 -697L824 -731C780 -717 733 -709 644 -702C664 -768 670 -781 679 -790C684 -795 684 -798 679 -803L631 -857L615 -851C624 -827 618 -769 603 -700L391 -686L386 -739C384 -760 384 -772 390 -786C392 -791 391 -793 387 -796L327 -833L318 -820C331 -804 346 -763 348 -737L353 -684L95 -668L146 -628C180 -635 228 -641 354 -650C355 -613 353 -595 346 -583L386 -543C392 -536 397 -537 398 -547C399 -564 398 -594 393 -652L595 -666C586 -629 575 -589 567 -566L589 -560C605 -594 619 -627 633 -669L869 -684C881 -685 881 -691 872 -697ZM940 -304V-324C848 -324 791 -338 676 -437L517 -576C527 -579 531 -585 525 -593L487 -653L471 -648C457 -555 291 -359 51 -228L61 -211C160 -259 202 -282 287 -344L314 -322C344 -329 396 -336 469 -343V-239L209 -216L249 -179C283 -189 300 -191 469 -206V-6L126 16L163 57C244 39 266 38 861 5C869 5 871 -3 864 -9L817 -44C778 -30 723 -21 572 -12C638 -117 650 -134 667 -144C674 -148 673 -153 668 -159L621 -212L608 -207C612 -170 596 -117 541 -10L510 -8V-209L745 -229C754 -229 756 -233 747 -241L705 -274C677 -260 643 -253 510 -242V-347L663 -361C673 -362 676 -367 665 -375L627 -403C581 -386 544 -380 307 -361C362 -403 434 -481 495 -557L779 -281ZM406 -72L313 -167L297 -154L369 -10C373 -2 382 -1 387 -11C395 -29 400 -46 406 -72Z"/>
</svg>