<svg xmlns="http://www.w3.org/2000/svg" viewBox="0 -1000 1000 1000">
	<path fill="#000000" d="M885 -678L844 -716C818 -704 744 -688 635 -680C661 -754 668 -770 676 -776C684 -782 684 -785 676 -793L620 -852L604 -842C615 -804 617 -757 597 -678L423 -667L421 -717C420 -743 423 -767 429 -775C433 -781 432 -786 427 -790L366 -841L354 -832C373 -792 379 -764 381 -722L384 -665L128 -646L173 -604C225 -616 302 -624 386 -630C388 -604 384 -581 373 -563L406 -519C415 -507 419 -508 422 -520C428 -544 429 -579 425 -632L588 -643L554 -518L573 -512L622 -645L879 -663C894 -664 895 -669 885 -678ZM918 -404L875 -437C855 -425 780 -410 672 -400L676 -442C680 -489 687 -515 694 -524C700 -532 699 -537 693 -543L643 -594L629 -583C642 -556 642 -537 634 -440L630 -397L440 -381L488 -343C516 -350 561 -358 628 -364L616 -230L542 -222L511 -290L496 -284C500 -255 505 -211 507 -182L514 -67C516 -29 509 11 496 32L534 82C543 95 549 94 551 80C554 57 555 47 554 19L796 -1C812 -2 814 -6 801 -18L772 -46L796 -188C798 -201 803 -211 815 -218C825 -223 826 -227 816 -236L774 -278L743 -243L657 -234L669 -367L913 -388C931 -390 932 -394 918 -404ZM451 -428L411 -485L396 -478C399 -451 396 -419 391 -386L282 -374C304 -453 313 -478 326 -495C331 -503 331 -509 326 -515L281 -574L265 -570C274 -530 268 -468 243 -371L70 -352L128 -308C161 -319 193 -326 233 -333C218 -276 204 -234 186 -180C219 -160 252 -136 283 -113C244 -59 173 11 96 69L106 83C190 36 261 -23 311 -90C351 -60 379 -36 422 6C432 16 437 15 439 1C441 -15 442 -34 441 -58L334 -122C384 -198 412 -284 428 -352C434 -377 444 -402 449 -408C457 -416 457 -419 451 -428ZM385 -357C369 -281 347 -215 301 -141L229 -184C244 -243 255 -282 271 -338ZM751 -209L729 -35L553 -17L546 -189Z"/>
</svg>