<svg xmlns="http://www.w3.org/2000/svg" viewBox="0 -1000 1000 1000">
	<path fill="#000000" d="M883 -725L836 -761C817 -750 723 -732 619 -722C634 -769 642 -786 651 -792C659 -797 658 -803 651 -810L606 -858L594 -852C596 -818 592 -779 580 -720L410 -705L406 -742C404 -760 405 -770 412 -785C414 -790 413 -795 409 -798L355 -834L344 -822C357 -797 364 -770 368 -740L373 -702L89 -681L149 -639C183 -649 253 -660 377 -671C379 -633 376 -625 367 -609L401 -573C411 -562 416 -563 418 -580C421 -603 420 -618 412 -674L573 -687C567 -652 561 -629 548 -590C477 -572 364 -548 193 -521L195 -503C232 -505 367 -523 464 -540V-472L314 -455L286 -503L273 -498C281 -467 285 -446 287 -418L290 -379C292 -353 290 -340 277 -318L313 -260C317 -253 324 -252 326 -261C329 -278 330 -292 328 -312L464 -326V-260L232 -238L198 -311L183 -306C194 -261 196 -240 201 -147L205 -65C207 -28 203 -2 189 30L230 96C236 106 240 107 243 97C246 87 247 73 244 -9L237 -207L464 -226V-127L261 -100L321 -59C366 -74 426 -87 619 -120L660 -57C665 -49 670 -49 674 -58C680 -74 683 -90 684 -121L578 -213L566 -202L602 -145L502 -131V-229L767 -253C747 -67 735 -18 713 24L598 -42L588 -29C658 31 688 62 713 93C719 101 723 101 729 94C758 61 777 1 803 -204C808 -244 813 -256 830 -267C836 -271 836 -274 828 -282L791 -321L757 -286L502 -263V-328L711 -347C720 -348 721 -353 713 -360L692 -379L699 -436C701 -452 708 -467 724 -479C730 -484 730 -487 724 -492L683 -525L657 -492L502 -475V-546C551 -554 577 -559 637 -572C674 -580 699 -583 723 -585C740 -586 740 -594 728 -601L678 -632L667 -631C656 -623 631 -613 576 -597C590 -629 596 -646 609 -690L880 -712C893 -713 893 -717 883 -725ZM663 -460L656 -379L502 -363V-442ZM464 -360L327 -345L323 -424L464 -439Z"/>
</svg>