<svg xmlns="http://www.w3.org/2000/svg" viewBox="0 -1000 1000 1000">
	<path fill="#000000" d="M879 -723L838 -754C808 -742 747 -730 618 -718C636 -777 642 -790 647 -793C657 -799 658 -803 650 -812L602 -866L588 -858C595 -833 593 -775 579 -715L402 -697C400 -774 400 -782 406 -791C409 -796 408 -800 403 -804L339 -845L331 -831C347 -813 358 -772 364 -694L118 -672L177 -634C201 -641 256 -649 366 -660C365 -641 361 -628 355 -617L389 -574C397 -564 403 -568 404 -579C406 -607 406 -621 404 -664L570 -679C563 -642 557 -618 546 -582L236 -546C235 -565 234 -586 232 -609L212 -608C211 -508 197 -469 172 -439L197 -385C200 -377 207 -376 211 -384C227 -417 236 -447 236 -512L774 -573L731 -487L748 -478C806 -555 817 -564 853 -585C861 -590 861 -594 854 -600L807 -645L776 -607L573 -584C587 -619 599 -653 608 -682L876 -706C889 -707 891 -714 879 -723ZM913 -200L869 -235C834 -219 719 -202 518 -186C527 -204 531 -214 534 -229L489 -269L709 -291C719 -292 719 -296 712 -303L684 -332L697 -427C702 -469 710 -479 727 -490C734 -494 734 -500 725 -507L681 -540L653 -499L325 -460L299 -512L283 -507C291 -468 293 -454 296 -408L300 -343C303 -291 300 -277 288 -256L323 -201C329 -191 336 -191 338 -200C340 -210 341 -232 340 -254L457 -266L494 -184L81 -150L140 -110C192 -124 317 -139 909 -187C920 -188 920 -194 913 -200ZM819 64C814 40 803 8 790 -21L552 -119L543 -104C690 -21 749 20 803 70C813 80 822 77 819 64ZM441 -63L426 -118L408 -115C383 -62 289 14 144 89L150 106C232 74 281 46 369 -12C418 -44 424 -47 429 -47C440 -48 444 -51 441 -63ZM659 -467L647 -322L339 -285L336 -341L611 -372C620 -373 621 -377 613 -384L579 -415C563 -401 533 -395 335 -373L333 -429Z"/>
</svg>