<svg xmlns="http://www.w3.org/2000/svg" viewBox="0 -1000 1000 1000">
	<path fill="#000000" d="M464 -82C466 -100 462 -134 456 -163L357 -216C388 -282 410 -358 427 -458C435 -502 441 -519 449 -530C453 -535 453 -538 448 -543L393 -599L381 -591C388 -575 390 -553 387 -523L265 -503C279 -572 293 -642 306 -708C311 -736 318 -753 330 -769C333 -774 333 -777 327 -783L261 -854L250 -844C267 -819 263 -715 223 -498L66 -475L120 -435C140 -443 180 -453 216 -460C199 -374 188 -324 177 -274C219 -256 264 -231 305 -203C260 -114 185 -20 80 70L90 84C201 8 287 -84 339 -179C381 -148 418 -114 450 -79C457 -71 463 -71 464 -82ZM948 -427C959 -428 960 -432 948 -442L900 -481C866 -468 803 -453 701 -441V-673L894 -696C903 -697 904 -701 896 -708L852 -746C798 -726 738 -716 472 -685L528 -645C552 -651 597 -660 657 -668V-436L424 -411L472 -370C515 -380 573 -391 657 -399V-112C657 -27 651 3 636 31L680 101C687 112 691 112 694 104C699 88 701 71 701 -53V-404ZM385 -492C375 -384 348 -297 320 -235L223 -287C233 -342 246 -404 259 -469Z"/>
</svg>