<svg xmlns="http://www.w3.org/2000/svg" viewBox="0 -1000 1000 1000">
	<path fill="#000000" d="M866 -722L822 -753C778 -735 747 -728 623 -717C644 -768 650 -775 655 -779C663 -785 664 -790 657 -800L609 -865L597 -860C603 -822 601 -777 585 -714L407 -699C402 -776 403 -787 408 -798C412 -808 411 -813 404 -817L345 -850L337 -839C350 -824 360 -795 369 -697L114 -677L171 -636C211 -647 262 -655 372 -665C374 -628 370 -611 364 -597L395 -558C404 -548 406 -548 409 -562C412 -580 412 -613 409 -668L577 -682C565 -639 556 -615 545 -591L565 -582C588 -625 598 -647 612 -685L863 -706C878 -707 878 -713 866 -722ZM333 -546L238 -615L230 -604L303 -495C311 -484 317 -484 323 -498C330 -515 332 -524 333 -546ZM482 -487L442 -512C426 -498 297 -476 76 -457L133 -422C164 -432 286 -452 479 -473C493 -475 494 -480 482 -487ZM888 -392C881 -399 869 -408 851 -420C829 -405 801 -398 760 -398C729 -398 725 -406 725 -441V-511C725 -521 733 -533 745 -542C755 -550 754 -555 746 -562L710 -595L683 -562L559 -543L525 -605L511 -599C540 -469 511 -374 429 -282L441 -271C528 -345 554 -396 562 -511L689 -530V-439C689 -374 700 -363 761 -363C799 -363 849 -369 886 -376C895 -378 896 -384 888 -392ZM421 -397L383 -422C366 -408 304 -394 134 -375L183 -340C200 -349 253 -361 416 -383C432 -386 433 -390 421 -397ZM426 -309L390 -333C371 -319 333 -307 160 -289L206 -255C224 -264 274 -273 419 -292C438 -295 439 -301 426 -309ZM924 35L923 20C816 19 784 6 655 -124C674 -143 702 -177 731 -223C753 -258 766 -272 777 -277C785 -280 785 -285 779 -292L744 -335L708 -302L456 -269L496 -237C522 -245 548 -251 709 -273C692 -232 665 -187 631 -149C579 -200 573 -210 572 -223L516 -225L513 -216C541 -198 571 -170 611 -126C543 -56 455 4 327 71L334 88C444 45 552 -24 634 -102L772 52ZM424 -204C435 -212 435 -215 423 -225L388 -255L362 -216L222 -195L185 -259L172 -252C183 -214 190 -178 194 -129L199 -74C202 -42 198 -9 189 2L219 47C228 62 233 63 236 45C238 37 238 11 236 -20L411 -42C432 -44 433 -50 417 -61L395 -77L406 -160C409 -185 413 -196 424 -204ZM368 -186L358 -71L234 -51L225 -163Z"/>
</svg>