<svg xmlns="http://www.w3.org/2000/svg" viewBox="0 -1000 1000 1000">
	<path fill="#000000" d="M871 -709L815 -747C775 -732 729 -723 595 -712C612 -759 619 -771 634 -780C639 -784 640 -790 636 -796L588 -857L573 -849C578 -822 578 -781 557 -709L414 -698C415 -763 417 -770 425 -780C429 -784 427 -792 422 -797L363 -847L350 -839C357 -823 363 -799 377 -696L100 -677L154 -630C182 -639 234 -648 380 -660C383 -615 382 -591 378 -581L409 -534C415 -525 422 -528 423 -539C425 -551 424 -592 417 -662L547 -672C538 -642 526 -607 510 -568L529 -559C546 -592 568 -638 582 -674L869 -696C881 -697 881 -702 871 -709ZM850 -528L799 -563C772 -549 744 -539 585 -521C607 -554 622 -570 631 -575C640 -580 640 -585 637 -591L610 -642L597 -639C593 -602 549 -506 441 -364L455 -354C483 -384 528 -438 558 -482L848 -517C858 -518 858 -523 850 -528ZM473 -455L423 -489C404 -476 359 -462 300 -455C309 -471 318 -500 320 -524L229 -610L215 -603L284 -454L57 -435L112 -391C144 -401 180 -409 246 -417C230 -257 171 -91 55 65L66 73C144 -4 216 -113 263 -268L372 -280C348 -137 329 -69 311 -43L238 -114L226 -102C255 -61 300 11 313 38C316 45 321 45 325 40C348 4 377 -81 408 -247C412 -270 425 -291 437 -300C443 -305 442 -309 437 -313L390 -353L374 -318L272 -303C282 -342 289 -377 296 -422L471 -441C484 -442 484 -448 473 -455ZM945 43V26C825 9 805 -2 673 -192L906 -215C915 -216 915 -220 908 -225L856 -263C839 -250 753 -232 676 -225C687 -262 692 -280 696 -284C701 -291 702 -295 698 -301L673 -333L833 -349C844 -350 846 -355 836 -362L789 -397C767 -382 734 -375 589 -359C607 -394 613 -403 619 -410C624 -414 626 -421 622 -426L588 -466L578 -462C582 -425 547 -340 492 -246L506 -238C527 -264 552 -298 567 -322L646 -330C645 -299 640 -254 633 -222L430 -207L487 -164C511 -174 548 -180 622 -187C587 -86 529 -14 412 84L420 97C526 37 617 -69 656 -166L792 55Z"/>
</svg>