<svg xmlns="http://www.w3.org/2000/svg" viewBox="0 -1000 1000 1000">
	<path fill="#000000" d="M862 -725L819 -756C779 -741 718 -731 606 -720C627 -767 632 -774 642 -779C649 -783 648 -786 644 -792L596 -856L582 -848C589 -824 588 -789 564 -717L411 -703C411 -759 413 -774 418 -783C421 -788 420 -792 417 -794L360 -835L351 -823C362 -806 368 -782 373 -700L107 -678L160 -637C200 -650 266 -660 374 -670C374 -655 370 -641 365 -634L392 -595L289 -584L267 -634L249 -629C255 -599 257 -583 259 -533L262 -448C264 -405 259 -392 251 -381L284 -328C295 -314 299 -316 301 -364L408 -374C387 -356 354 -333 316 -310C290 -293 270 -285 235 -279L267 -248C276 -240 280 -240 286 -245C294 -251 347 -260 452 -273C410 -248 383 -233 332 -206C292 -185 260 -173 197 -165L231 -130C235 -126 239 -125 245 -128C256 -134 307 -143 476 -163C478 -149 479 -127 479 -88V-18C479 6 477 17 472 30L389 -15L379 0C430 43 457 68 480 96C486 104 492 104 497 96C510 76 519 35 519 6V-82C519 -120 520 -128 525 -133C533 -141 532 -147 508 -168L688 -190C722 -163 732 -154 745 -139C754 -129 764 -134 764 -145C763 -165 760 -181 752 -210L582 -283L572 -269C593 -258 629 -235 655 -215L343 -178L571 -307C606 -327 619 -331 634 -332C642 -333 644 -336 641 -346L627 -394L742 -406C754 -407 756 -413 745 -421L712 -443L729 -546C735 -583 743 -601 755 -608C764 -613 764 -619 755 -627L716 -659L690 -627L549 -610C564 -635 574 -653 591 -688L860 -712C872 -713 872 -718 862 -725ZM827 12C822 -10 817 -21 797 -60L561 -127L555 -108C670 -65 739 -30 811 19C820 25 829 21 827 12ZM389 -80L366 -140L352 -136C353 -104 292 -49 105 42L115 59C194 31 264 -2 340 -48C358 -59 371 -65 381 -67C389 -68 392 -73 389 -80ZM554 -685C545 -660 532 -631 521 -612L527 -608L411 -596C413 -610 413 -644 411 -672ZM693 -593L674 -432L515 -416V-483L663 -497C674 -498 674 -504 666 -511L638 -536C622 -529 586 -522 515 -514V-575ZM478 -413L301 -395L294 -552L478 -571V-511L301 -492L343 -457C376 -467 388 -469 478 -480ZM605 -393C595 -374 567 -348 502 -303L334 -288L402 -328C428 -343 450 -353 461 -354C475 -355 475 -362 458 -379Z"/>
</svg>