<svg xmlns="http://www.w3.org/2000/svg" viewBox="0 -1000 1000 1000">
	<path fill="#000000" d="M958 -159L957 -178C814 -185 801 -186 619 -347C647 -357 691 -368 766 -383L791 -341C799 -327 805 -326 811 -340C816 -352 821 -373 822 -393L727 -469L720 -459L752 -406L626 -389L672 -462C675 -468 681 -473 686 -475C694 -479 694 -484 689 -490L657 -531L644 -527C647 -505 643 -487 636 -472L608 -408C602 -394 594 -386 580 -384L503 -452C516 -460 516 -466 513 -470L477 -512C523 -518 578 -526 659 -537L690 -516C701 -509 704 -511 704 -520C704 -535 702 -554 699 -572L567 -619L560 -608L631 -556L404 -537L484 -602C500 -616 509 -622 515 -624C523 -626 524 -630 518 -643L502 -683L588 -691C582 -664 576 -645 566 -626L587 -620C600 -642 610 -662 622 -693L875 -713C885 -714 886 -719 877 -726L836 -759C801 -746 714 -731 636 -725C651 -760 654 -766 664 -773C670 -777 670 -781 666 -790L632 -861L615 -858C621 -830 616 -798 597 -723L413 -710C415 -756 416 -762 422 -770C426 -775 426 -778 423 -782L374 -841L359 -833C368 -811 374 -783 378 -708L122 -691L173 -647C205 -656 256 -664 379 -674C381 -659 376 -635 370 -632L399 -590C405 -582 410 -582 413 -595C416 -607 417 -626 414 -677L481 -682C479 -649 459 -628 404 -574C369 -541 360 -537 313 -529L349 -491C355 -484 361 -484 372 -488C388 -494 410 -500 457 -509C460 -479 440 -429 398 -370L320 -425L312 -414L348 -364L226 -344L276 -406C294 -428 302 -436 312 -441C322 -446 323 -451 318 -462L293 -523L280 -520C279 -490 272 -467 250 -431L224 -389C199 -350 184 -341 155 -336L183 -306C193 -294 197 -293 212 -300C231 -309 254 -317 364 -343L372 -332C308 -250 208 -159 82 -90L92 -74C251 -148 399 -272 489 -432L777 -141ZM542 -302L517 -359L505 -356C506 -317 450 -237 284 -130L295 -112C393 -167 427 -191 497 -255C515 -270 528 -279 536 -281C547 -284 548 -288 542 -302ZM608 -214L587 -271L572 -268C562 -222 457 -121 281 -36L288 -19C418 -70 491 -115 562 -175C574 -185 589 -193 596 -194C611 -197 612 -202 608 -214ZM676 -111L657 -176L642 -172C645 -132 477 2 221 87L228 104C400 63 500 14 604 -61C634 -81 658 -93 665 -94C678 -95 680 -98 676 -111Z"/>
</svg>