<svg xmlns="http://www.w3.org/2000/svg" viewBox="0 -1000 1000 1000">
	<path fill="#000000" d="M882 -746L846 -772C831 -761 743 -748 646 -742C656 -762 669 -788 674 -795C682 -807 683 -812 674 -822L632 -868L617 -862C623 -835 621 -799 606 -740L415 -729V-765C415 -776 417 -790 421 -800C424 -810 423 -817 416 -823L371 -857L361 -849C370 -832 378 -802 379 -774L380 -727L118 -712L162 -673C190 -679 256 -686 381 -694C382 -671 380 -657 375 -648L398 -615C409 -599 417 -599 418 -620C419 -630 419 -645 417 -696L597 -707C592 -685 583 -658 573 -629L590 -622C615 -667 621 -679 633 -710L875 -725C898 -726 898 -734 882 -746ZM865 -315L833 -338C808 -328 770 -322 660 -311V-370L799 -381C815 -382 816 -391 803 -400L770 -422C753 -414 718 -406 660 -400C661 -416 665 -427 669 -435C673 -443 672 -451 665 -457L642 -477L841 -491C860 -492 861 -501 847 -512L812 -537C782 -524 723 -515 521 -501V-563L728 -578C748 -579 750 -588 737 -599L706 -623C682 -613 635 -604 521 -594C522 -610 525 -618 532 -629C538 -639 536 -644 530 -649L482 -689L471 -681C482 -658 486 -637 486 -592L250 -573L296 -536C320 -543 391 -552 486 -560V-499L143 -476L198 -438C226 -445 256 -449 310 -453C315 -433 317 -412 317 -385L151 -366L201 -334C215 -339 252 -345 317 -354V-296L97 -266L159 -227C181 -240 210 -249 489 -303L487 -320L352 -301V-357L459 -370C474 -372 475 -379 463 -387L436 -406C427 -400 409 -395 352 -388C354 -405 357 -414 360 -419C365 -429 364 -434 358 -439L340 -456L614 -475C620 -451 623 -425 624 -397L483 -384L527 -349C552 -355 571 -359 624 -367V-308L457 -291L500 -259C557 -270 616 -277 858 -295C879 -296 880 -304 865 -315ZM902 16C890 -36 882 -76 876 -157H859L850 -7C821 6 709 18 645 9C598 1 586 -14 586 -51V-102C586 -125 589 -144 600 -159C604 -165 603 -171 598 -175L575 -193L779 -209C800 -211 802 -217 785 -228L749 -252C714 -238 656 -229 197 -196L242 -160C278 -167 350 -177 418 -182C392 -87 286 5 115 66L122 82C256 45 354 -9 433 -103C446 -119 452 -126 464 -133C475 -139 475 -143 468 -154L449 -184L545 -191C547 -177 548 -157 548 -127V-62C548 11 568 40 641 45C719 51 822 47 887 34C902 31 904 26 902 16Z"/>
</svg>