<svg xmlns="http://www.w3.org/2000/svg" viewBox="0 -1000 1000 1000">
	<path fill="#000000" d="M857 -732L814 -765C772 -752 727 -744 615 -734C632 -779 639 -794 647 -802C652 -807 652 -810 647 -815L597 -861L587 -854C592 -821 592 -791 577 -731L413 -716C413 -780 414 -789 419 -800C421 -805 421 -808 417 -811L362 -845L352 -834C364 -819 366 -810 378 -712L129 -690L174 -653C228 -664 308 -675 379 -681C379 -664 376 -647 372 -639L395 -599L317 -590L288 -636L276 -629C285 -602 289 -582 290 -556L294 -473C295 -445 293 -434 283 -414L314 -369C321 -359 326 -360 328 -369C330 -377 331 -385 331 -394L704 -429C715 -430 716 -433 708 -441L684 -464L698 -563C701 -586 708 -600 718 -610C727 -618 726 -623 719 -628L681 -659L655 -629L571 -619C582 -645 593 -673 603 -698L854 -719C865 -720 866 -725 857 -732ZM898 -380L859 -410C821 -397 612 -371 79 -327L128 -290C150 -296 174 -302 250 -310V-51L137 -17L193 18C228 -2 258 -15 429 -76C429 2 424 20 410 41L442 95C446 102 452 102 455 95C462 75 465 47 465 -89L523 -113L518 -128L465 -113V-329L894 -367C907 -368 909 -371 898 -380ZM919 36V21C805 10 754 -10 661 -107C685 -140 708 -180 728 -223C738 -245 750 -261 767 -273C776 -279 776 -284 769 -291L735 -327L701 -298L492 -271L532 -241C561 -247 609 -256 701 -269C684 -218 663 -172 638 -131L597 -175C569 -205 567 -209 564 -220L520 -216L518 -206C537 -196 550 -186 582 -151L621 -105C581 -43 535 9 466 61L476 74C550 24 598 -20 644 -80L761 49ZM567 -696C561 -673 553 -646 543 -616L414 -600C416 -616 416 -632 414 -684ZM659 -597L648 -456L331 -424C330 -438 328 -465 327 -492L358 -472C398 -482 431 -487 610 -507C625 -508 625 -514 614 -522L585 -545C549 -530 502 -522 327 -503L323 -560ZM429 -103L286 -61V-131L393 -149C406 -151 409 -156 398 -165L378 -182C354 -173 330 -168 286 -161V-220L394 -236C407 -238 408 -243 400 -250L381 -270C362 -261 338 -257 286 -249V-313L429 -326Z"/>
</svg>