<svg xmlns="http://www.w3.org/2000/svg" viewBox="0 -1000 1000 1000">
	<path fill="#000000" d="M883 -732L837 -761C810 -750 767 -744 627 -734C642 -774 647 -783 653 -790C659 -795 660 -800 654 -807L609 -857L595 -850C601 -821 598 -790 586 -731L405 -717C405 -781 406 -790 410 -795C416 -802 414 -808 409 -811L354 -853L344 -843C359 -810 364 -781 368 -714L87 -691L136 -654C163 -662 245 -671 369 -679C367 -655 364 -646 360 -641L389 -597C396 -587 401 -587 403 -599C407 -621 408 -637 406 -681L578 -693C570 -658 567 -646 559 -622L548 -640L535 -635C541 -607 543 -585 543 -556L544 -475C545 -443 539 -424 527 -406L563 -345C574 -326 579 -328 583 -384L755 -397V-119C755 -25 752 0 747 15L649 -42L637 -28C697 27 714 47 749 93C753 99 757 99 763 92C788 61 794 23 794 -95V-532C794 -568 801 -581 813 -590C824 -598 824 -602 815 -610L767 -646L743 -605L575 -588L568 -605L573 -603C593 -645 606 -674 614 -696L880 -716C898 -717 899 -721 883 -732ZM546 -306L458 -371L447 -360L520 -253C528 -242 533 -242 536 -252C542 -269 545 -289 546 -306ZM470 -586L429 -620L406 -586L226 -567L204 -627L189 -623C194 -597 197 -545 197 -491V-106C197 -37 186 -10 169 2L209 79C214 89 220 90 225 78C231 62 234 28 234 -57V-364L452 -383C466 -384 468 -388 458 -400L437 -426L449 -535C451 -555 457 -564 468 -570C477 -575 478 -580 470 -586ZM705 -218L599 -281L589 -269L683 -161C689 -154 694 -154 697 -162C702 -177 706 -203 705 -218ZM344 -298H326C315 -227 303 -203 273 -183L290 -117C293 -104 297 -103 304 -114C330 -153 345 -210 344 -298ZM656 -67C631 -113 611 -160 593 -217L575 -214L592 -98C484 -126 436 -186 406 -314L385 -313C410 -148 485 -65 647 -50C659 -49 663 -54 656 -67ZM755 -430L583 -416V-471L725 -484C740 -485 740 -489 729 -497L695 -522C681 -514 649 -506 582 -499L581 -559L755 -577ZM412 -557L399 -408L234 -393V-447L380 -463C394 -465 395 -470 385 -477L350 -500C336 -491 311 -485 234 -478V-537Z"/>
</svg>