<svg xmlns="http://www.w3.org/2000/svg" viewBox="0 -1000 1000 1000">
	<path fill="#000000" d="M878 -715L836 -750C798 -737 739 -725 627 -716C645 -775 650 -783 662 -791C667 -795 667 -800 663 -805L610 -865L595 -857C605 -835 605 -798 589 -712L396 -696C396 -754 398 -763 407 -780C410 -785 410 -788 407 -791L354 -836L343 -824C353 -807 359 -768 359 -693L90 -672L141 -629C177 -638 245 -650 360 -660C359 -642 354 -626 349 -619L377 -573C382 -564 389 -566 392 -577C397 -596 398 -614 398 -663L583 -678C575 -639 567 -606 561 -584L583 -578C599 -619 606 -640 618 -681L873 -702C885 -703 886 -709 878 -715ZM835 -251C842 -254 843 -261 835 -270L795 -317L768 -281L342 -228C370 -263 386 -284 402 -311L719 -343C739 -345 740 -351 727 -362L706 -379L726 -521C729 -542 735 -549 749 -557C757 -562 757 -568 748 -576L707 -611L679 -578L490 -558L530 -524C554 -531 604 -538 687 -546L680 -477L502 -456L548 -420C571 -430 618 -439 678 -446L670 -373L292 -330L290 -405L466 -426C482 -428 482 -431 472 -441L444 -469C423 -457 363 -443 288 -436V-487C393 -529 446 -548 471 -553C486 -555 486 -564 473 -576L437 -609L427 -604C419 -581 396 -564 286 -512L250 -573L234 -566C247 -532 253 -490 254 -459L256 -394C256 -362 252 -340 243 -324L275 -255C281 -243 287 -243 290 -257C292 -267 292 -277 293 -299L350 -306C323 -246 252 -166 119 -80L130 -62C200 -101 257 -140 304 -188L770 -244C757 -131 736 -31 705 37L589 -37L583 -22C648 43 668 65 690 97C697 107 701 108 708 100C750 61 777 -19 805 -208C809 -235 814 -241 835 -251ZM696 -115L608 -201L596 -194L663 -64C668 -54 672 -53 679 -62C689 -75 693 -91 696 -115ZM577 -88L497 -178L485 -171L538 -39C542 -29 547 -27 554 -35C567 -51 573 -66 577 -88ZM464 -57L393 -162L381 -156L421 -12C424 1 428 2 436 -6C454 -24 457 -31 464 -57ZM318 -140L302 -147C285 -80 259 -49 223 -27L230 32C231 42 239 44 246 36C290 -7 309 -55 318 -140Z"/>
</svg>