<svg xmlns="http://www.w3.org/2000/svg" viewBox="0 -1000 1000 1000">
	<path fill="#000000" d="M888 -708L846 -742C825 -730 736 -718 640 -711C653 -755 662 -776 666 -780C672 -785 673 -790 666 -798L616 -854L603 -847C613 -821 613 -780 599 -710L435 -701C433 -746 437 -777 442 -784C447 -791 445 -795 438 -800L383 -841L372 -830C385 -804 395 -758 396 -700L108 -686L162 -643C208 -650 305 -660 396 -665C395 -639 393 -627 389 -616L418 -578C427 -567 433 -567 437 -583C440 -597 440 -621 437 -667L592 -675C585 -641 577 -613 567 -583L587 -577C600 -605 617 -646 628 -677L882 -690C902 -691 902 -696 888 -708ZM928 -227L884 -265C850 -252 778 -240 725 -235L740 -409L852 -419C867 -420 869 -424 854 -437L821 -463C794 -453 766 -447 743 -445C748 -509 751 -525 769 -555C773 -561 772 -566 766 -572L715 -623L701 -613C710 -573 711 -533 704 -441L596 -431C597 -466 602 -508 608 -520C611 -526 611 -531 605 -536L553 -585L541 -576C553 -552 557 -522 559 -428L466 -418L501 -383C517 -387 540 -390 559 -392L563 -221L433 -210L477 -171C575 -188 669 -200 922 -212C940 -213 941 -216 928 -227ZM513 -253L484 -276C445 -265 357 -255 275 -246V-311L436 -332C448 -334 451 -337 441 -346L409 -372C389 -362 358 -354 275 -342V-405L426 -426C441 -428 441 -432 431 -440L401 -463C381 -453 351 -446 275 -435V-498L463 -524C480 -526 480 -531 468 -540L440 -564C414 -554 380 -546 270 -531L240 -590L225 -584C231 -551 236 -496 236 -462V-242L58 -226L106 -185C141 -195 186 -204 281 -214C207 -76 176 -44 132 -29L170 12C175 18 179 18 189 13C223 -6 291 -29 415 -67L441 -27C449 -16 453 -16 458 -25C464 -35 469 -53 471 -81L369 -176L356 -165L401 -90L210 -42L296 -156C303 -165 311 -173 327 -182C335 -187 335 -191 332 -198L322 -217L511 -235C528 -236 527 -242 513 -253ZM849 -22L677 -169L663 -156C734 -74 783 -10 824 58C834 73 839 73 844 59C848 47 850 24 849 -22ZM621 -113L600 -176L582 -172C578 -129 503 -18 374 81L387 96C451 54 496 21 581 -71C593 -83 604 -93 613 -96C623 -101 624 -103 621 -113ZM701 -405L687 -232L601 -224L597 -395Z"/>
</svg>