<svg xmlns="http://www.w3.org/2000/svg" viewBox="0 -1000 1000 1000">
	<path fill="#000000" d="M866 -732L817 -762C791 -750 745 -741 604 -726C616 -758 626 -781 633 -788C639 -794 639 -798 636 -802L590 -865L573 -856C582 -834 580 -784 562 -722L395 -703L393 -746C392 -768 394 -789 400 -796C403 -801 402 -807 398 -810L343 -851L334 -844C351 -793 355 -767 356 -739L358 -700L114 -674L165 -635C192 -645 239 -653 357 -666C358 -649 354 -632 349 -623L379 -577C386 -568 392 -568 395 -577C398 -590 398 -608 397 -670L553 -686C545 -652 532 -620 519 -596L540 -588C561 -621 578 -653 593 -690L864 -718C878 -719 877 -725 866 -732ZM934 -360L933 -377C853 -377 785 -418 710 -496L621 -590C637 -601 639 -604 635 -611L604 -667L588 -662C584 -588 473 -389 362 -281C373 -305 376 -313 383 -334C392 -363 408 -381 421 -389C428 -393 428 -398 421 -405L378 -446L348 -411L231 -391C246 -425 261 -464 275 -507L476 -534C484 -535 483 -541 474 -547L435 -573C397 -557 305 -540 89 -516L139 -482C155 -489 170 -493 228 -500C200 -397 147 -286 83 -205L97 -193C132 -229 160 -266 185 -306L248 -201C254 -192 258 -192 262 -201C267 -217 271 -250 271 -268L196 -324C202 -334 208 -345 213 -355L348 -377C306 -212 227 -86 50 47L59 65C190 -13 294 -129 356 -267L364 -259C401 -288 432 -315 463 -350C467 -328 468 -303 468 -258V-94C468 15 463 33 436 59L481 89C485 92 489 91 494 83C507 65 529 38 644 -57L634 -71L507 12V-162L738 -191C749 -192 750 -198 742 -205L723 -222L733 -307C737 -342 744 -362 752 -367C760 -372 761 -376 753 -383L715 -415L693 -380L498 -360L489 -381C510 -409 533 -441 553 -475L606 -382C610 -375 614 -375 619 -383C631 -403 637 -422 637 -440L564 -494C578 -517 592 -541 607 -569L796 -344ZM845 50C845 31 837 -3 827 -31L691 -90C768 -153 780 -160 793 -162C802 -163 804 -168 799 -178L773 -228L760 -225C757 -196 741 -171 665 -101L552 -149L544 -134C679 -65 759 -11 833 53C838 58 845 56 845 50ZM696 -349L686 -218L506 -193V-246L670 -267C680 -268 681 -273 673 -279L638 -303C622 -296 599 -291 506 -278V-327Z"/>
</svg>