<svg xmlns="http://www.w3.org/2000/svg" viewBox="0 -1000 1000 1000">
	<path fill="#000000" d="M875 -729L831 -757C807 -746 748 -734 626 -724C639 -758 649 -780 654 -785C660 -791 661 -794 658 -800L621 -856L606 -850C609 -823 607 -788 589 -722L421 -708C419 -748 422 -766 428 -773C433 -780 432 -785 427 -789L374 -833L362 -824C377 -787 387 -743 387 -706L122 -686L168 -649C194 -657 273 -666 387 -675C387 -645 384 -635 378 -626L408 -576C416 -564 422 -566 423 -578C426 -603 426 -612 421 -677L579 -689C572 -662 561 -632 547 -598L566 -588C589 -627 605 -660 616 -692L872 -712C888 -713 889 -720 875 -729ZM585 -525L509 -592L498 -580L557 -469C565 -455 569 -456 574 -468C581 -485 585 -506 585 -525ZM291 -510L214 -572L201 -559L266 -453C271 -447 277 -447 281 -456C287 -471 291 -491 291 -510ZM479 -533L458 -581L445 -580C437 -551 412 -512 364 -466L354 -473C372 -552 375 -565 380 -570C387 -578 387 -583 381 -588L334 -632L321 -622C334 -592 336 -555 325 -498C311 -431 281 -382 224 -335L234 -320C281 -351 332 -406 349 -454L449 -349C456 -341 462 -342 463 -352C465 -369 464 -393 460 -408L385 -454C441 -499 461 -514 472 -516C482 -517 484 -522 479 -533ZM912 41V19C768 21 715 8 610 -106C692 -185 710 -200 721 -204C731 -208 731 -212 726 -219L689 -268L676 -263C676 -235 656 -200 595 -123L514 -214C519 -234 529 -254 536 -258C541 -262 542 -267 535 -275L507 -306L780 -329L734 -238L751 -229C809 -309 834 -334 857 -337C866 -338 869 -343 861 -352L819 -403L787 -363L524 -340C580 -381 619 -427 633 -484L751 -371C760 -363 764 -364 765 -373C768 -390 768 -414 766 -429L681 -477C754 -541 769 -551 775 -552C786 -553 787 -556 782 -567L757 -621L744 -618C740 -592 709 -540 659 -490L638 -503C654 -578 657 -592 665 -601C673 -608 673 -610 664 -618L621 -658L608 -649C618 -617 619 -567 605 -515C586 -442 558 -393 495 -344L500 -338L218 -314C219 -335 219 -357 217 -372H197C193 -299 171 -253 140 -234L157 -170C161 -158 166 -158 174 -168C192 -194 207 -237 214 -280L480 -304C481 -273 474 -215 456 -167C421 -71 336 1 118 81L123 97C349 40 470 -52 507 -178L706 58ZM381 -153L287 -228L276 -213L354 -88C362 -76 366 -76 371 -90C377 -107 382 -136 381 -153Z"/>
</svg>