<svg xmlns="http://www.w3.org/2000/svg" viewBox="0 -1000 1000 1000">
	<path fill="#000000" d="M877 -734L828 -768C803 -751 765 -741 642 -730C654 -768 661 -784 667 -790C674 -796 675 -800 668 -808L623 -859L610 -850C617 -828 616 -799 604 -727L443 -714C441 -769 443 -775 449 -782C454 -789 452 -794 447 -798L396 -840L381 -832C394 -805 400 -777 404 -710L115 -687L167 -646C194 -656 305 -672 404 -679C404 -646 401 -633 394 -622L428 -574C436 -563 439 -563 442 -576C446 -589 448 -617 444 -681L599 -695C592 -662 585 -639 571 -602L591 -593C610 -633 621 -661 632 -697L875 -718C891 -719 890 -725 877 -734ZM217 -453L120 -533L105 -522L188 -388C193 -380 199 -380 203 -389C212 -409 216 -430 217 -453ZM904 30C896 7 888 -50 880 -138L862 -137L851 10C825 18 782 22 717 22C622 22 608 6 608 -53V-120C608 -157 613 -177 623 -188C630 -195 631 -200 622 -209L599 -232L752 -249C765 -250 765 -256 755 -265L730 -287L745 -403C749 -435 753 -443 768 -453C777 -459 777 -463 769 -470L728 -506L702 -474L499 -449C530 -490 535 -497 545 -502C556 -508 557 -513 551 -520L537 -536L838 -566C854 -568 854 -572 843 -579L787 -614C765 -598 734 -589 553 -570C558 -584 561 -599 562 -616L482 -664L470 -649L528 -568L310 -546L285 -605L266 -599C273 -567 271 -449 259 -346L58 -235L123 -215C134 -227 173 -257 255 -313C235 -151 187 -52 78 66L91 83C206 -24 263 -125 290 -278C295 -306 307 -427 311 -515L500 -533C496 -515 485 -485 464 -445L401 -437L363 -502L349 -496C360 -465 369 -423 369 -387L370 -298C371 -254 367 -240 354 -219L391 -158C397 -149 402 -149 406 -159C409 -167 411 -187 411 -212L495 -222C464 -129 379 -30 221 76L231 96C421 -20 505 -120 537 -226L564 -229C568 -210 569 -193 569 -149V-51C569 28 584 58 708 60C782 61 822 59 894 46C905 44 908 41 904 30ZM819 -93L747 -167L736 -157L759 -103L676 -86L706 -150C718 -175 722 -180 728 -184C736 -189 736 -193 732 -197L693 -237L681 -234C687 -209 686 -188 665 -126C655 -92 651 -86 624 -75L652 -45C657 -39 661 -38 669 -44C679 -51 724 -67 770 -80L789 -38C793 -29 799 -29 803 -37C810 -53 816 -75 819 -93ZM709 -442L691 -277L544 -260C550 -283 555 -306 558 -328L680 -342C694 -344 694 -349 684 -357L654 -381C638 -373 623 -369 562 -360C567 -390 568 -406 569 -426ZM529 -421C529 -399 526 -376 522 -354L420 -341L457 -311C470 -315 490 -319 517 -323C514 -300 510 -281 504 -256L409 -244L405 -407Z"/>
</svg>