<svg xmlns="http://www.w3.org/2000/svg" viewBox="0 -1000 1000 1000">
	<path fill="#000000" d="M901 -741L857 -774C817 -760 766 -752 620 -741C636 -779 639 -784 647 -793C653 -798 652 -802 648 -806L603 -861L587 -852C594 -830 593 -801 579 -738L408 -726C407 -779 409 -788 413 -798C415 -803 414 -807 411 -809L357 -848L348 -835C360 -820 370 -788 375 -723L95 -701L148 -656C191 -670 269 -680 378 -688C379 -666 376 -637 370 -630L399 -588C405 -580 411 -581 413 -593C414 -602 414 -644 411 -691L569 -703C562 -673 554 -645 540 -613L558 -605C579 -643 592 -669 607 -706L896 -728C910 -729 909 -735 901 -741ZM908 -316L867 -340C833 -327 801 -321 633 -300V-359L811 -379C825 -381 825 -386 815 -394L782 -420C755 -405 705 -395 633 -387C634 -405 637 -422 640 -430C643 -438 641 -444 621 -459L802 -479C815 -480 817 -485 805 -495L785 -511L797 -564C802 -586 809 -599 822 -610C828 -615 829 -620 820 -628L782 -659L753 -623L460 -585L431 -636L418 -629C431 -596 435 -577 436 -552L438 -486C439 -468 437 -460 430 -445L456 -405C467 -389 475 -390 471 -441L590 -455C595 -433 596 -424 598 -383L409 -365L401 -377L289 -330V-446L404 -466C417 -468 417 -473 407 -480L374 -502C355 -491 337 -486 289 -476C289 -551 291 -578 300 -596C306 -608 305 -611 297 -618L249 -660L238 -652C249 -624 252 -583 252 -471L78 -447L123 -416C147 -423 200 -434 252 -441V-315L63 -234L120 -205C142 -223 173 -240 252 -280V-84C252 -45 250 -17 246 -1L154 -61L144 -48C196 8 231 48 258 86C265 96 270 96 275 85C285 58 289 8 289 -49V-298L405 -356L447 -330C471 -337 526 -346 598 -356V-297L341 -269L388 -236C412 -243 447 -249 502 -257L537 -175L410 -163L455 -129C483 -136 510 -141 601 -152V-95L375 -75L415 -38C443 -47 493 -54 601 -64C601 -10 595 17 583 38L615 91C622 103 629 103 631 90C637 55 638 38 638 -67L887 -89C902 -90 903 -96 891 -104L849 -133C833 -125 772 -111 638 -98V-156L828 -176C844 -177 844 -183 832 -191L798 -214C778 -205 741 -195 688 -188C702 -215 715 -232 727 -240C733 -244 734 -248 728 -256L712 -279L906 -300C921 -302 921 -308 908 -316ZM761 -591L750 -504L673 -495L677 -580ZM642 -576L638 -491L573 -483V-568ZM541 -480L469 -471L466 -554L541 -564ZM688 -277C685 -252 677 -229 657 -186L559 -176C564 -190 566 -197 570 -216L525 -259Z"/>
</svg>