<svg xmlns="http://www.w3.org/2000/svg" viewBox="0 -1000 1000 1000">
	<path fill="#000000" d="M953 -417L951 -435C826 -435 781 -456 514 -647C532 -654 534 -659 527 -668L502 -699L588 -706C584 -678 578 -650 568 -621L587 -614C603 -652 612 -678 620 -708L853 -726C869 -727 871 -731 856 -742L808 -773C778 -758 744 -751 629 -742C639 -773 645 -785 651 -789C659 -794 659 -801 654 -805L604 -852L591 -847C595 -826 596 -789 591 -739L392 -725C389 -761 391 -773 396 -778C401 -783 400 -788 395 -793L346 -835L332 -827C346 -800 354 -777 357 -723L123 -705L176 -668C201 -675 268 -683 358 -689C359 -653 353 -640 348 -634L379 -587C385 -579 392 -579 393 -589C396 -605 398 -638 394 -691L480 -698C473 -662 426 -600 338 -523C272 -465 196 -405 67 -340L76 -325C139 -350 197 -381 252 -418C255 -404 256 -398 256 -383L257 -340C257 -322 254 -308 248 -298L278 -257C285 -248 290 -249 290 -284L398 -297C407 -298 408 -302 401 -309L380 -330L388 -386C390 -398 397 -412 405 -418C410 -422 410 -424 405 -429L370 -458L351 -431L279 -420L273 -432C304 -453 339 -481 371 -511L394 -492C416 -498 464 -506 601 -520C610 -521 612 -524 603 -532L572 -557C543 -544 530 -542 394 -529C432 -563 467 -597 494 -626L721 -464L716 -456L637 -448L619 -493L603 -490C607 -465 608 -453 609 -418L610 -372C611 -344 608 -331 600 -316L630 -277C637 -267 644 -267 644 -313L766 -325C775 -326 776 -330 770 -335L749 -357L755 -407C757 -422 758 -429 762 -435L815 -397ZM582 -326L560 -344L564 -395C565 -410 572 -428 581 -433C586 -436 586 -439 581 -444L546 -473L528 -446L459 -434L437 -480L425 -475C430 -448 431 -439 433 -404L436 -355C437 -331 432 -315 426 -305L453 -266C460 -256 465 -257 467 -299L578 -313C587 -314 589 -320 582 -326ZM786 -249C793 -254 793 -257 786 -263L743 -299L718 -267L276 -229L250 -271L238 -266C247 -238 252 -205 253 -162L255 -71C256 -21 254 -8 241 18L277 80C282 88 288 87 290 80C294 63 295 52 293 -4L285 -197L399 -208C407 -183 413 -154 411 -132L305 -122L349 -88C357 -91 384 -99 411 -103V-61C411 -19 408 -8 402 2L427 42C433 51 439 51 442 40C445 28 446 7 446 -56V-106L545 -115V-75C545 -33 542 -19 533 -2L559 43C563 51 569 51 572 43C577 31 580 14 580 -36V-118L688 -127C697 -128 698 -130 691 -137L660 -167C648 -160 615 -153 580 -148C582 -166 584 -173 590 -182C594 -188 593 -191 588 -196L563 -223L723 -237C719 -67 711 -14 703 13L621 -34L612 -20C652 14 687 52 712 86C718 94 724 93 727 85C748 32 750 15 760 -179C762 -224 767 -236 786 -249ZM723 -431L716 -348L643 -340L640 -422ZM534 -419L529 -337L466 -329L463 -408ZM357 -404L351 -322L290 -312L286 -391ZM545 -145L446 -135C447 -154 449 -166 451 -172C454 -178 452 -182 446 -188L424 -210L539 -221C543 -204 545 -180 545 -145Z"/>
</svg>