<svg xmlns="http://www.w3.org/2000/svg" viewBox="0 -1000 1000 1000">
	<path fill="#000000" d="M411 -582C414 -587 414 -591 408 -598L360 -649L347 -643C352 -613 352 -588 347 -543L237 -530C252 -600 259 -636 272 -714C278 -751 281 -758 299 -773C307 -779 306 -783 301 -789L245 -849L232 -844C240 -796 236 -723 197 -526L32 -506L81 -463C95 -468 140 -478 191 -486C173 -399 157 -350 129 -277C179 -255 223 -229 260 -201C208 -92 133 -12 51 57L64 73C157 8 243 -78 292 -177C315 -158 337 -136 359 -112C366 -104 372 -104 373 -115C376 -146 375 -156 369 -183L310 -218C350 -311 370 -387 389 -511C395 -550 404 -572 411 -582ZM823 -728C829 -732 830 -738 820 -746L775 -781L753 -742L539 -714L494 -806L479 -799C497 -741 503 -655 495 -509C483 -293 435 -71 295 83L308 93C451 -34 512 -216 535 -501L816 -529C826 -530 829 -534 821 -543L791 -578L803 -678C806 -701 813 -722 823 -728ZM940 14C921 -51 911 -106 903 -185H886L880 -7C825 5 778 9 718 5C643 -1 632 -10 632 -83V-222C710 -267 756 -297 806 -340C826 -357 831 -360 843 -361C850 -362 853 -365 850 -376L827 -447H811C811 -418 763 -350 632 -251V-330C632 -371 636 -388 645 -402C650 -410 649 -416 643 -421L587 -461L576 -450C586 -433 591 -412 591 -339V-61C591 24 647 46 717 49C793 53 868 48 926 35C941 32 943 26 940 14ZM764 -707L750 -566L538 -538C541 -588 543 -636 543 -677ZM345 -513C333 -413 308 -313 277 -236L177 -292C194 -336 215 -413 230 -492Z"/>
</svg>