<svg xmlns="http://www.w3.org/2000/svg" viewBox="0 -1000 1000 1000">
	<path fill="#000000" d="M936 -323V-344C813 -348 781 -362 571 -564L836 -591C854 -592 855 -598 840 -608L793 -640C754 -623 670 -605 454 -586C479 -630 498 -675 515 -724L755 -747C768 -748 769 -753 759 -760L712 -796C668 -778 583 -762 209 -730L265 -687C315 -700 383 -711 465 -719C450 -672 432 -627 406 -582L123 -557L182 -513C223 -525 303 -537 386 -546C319 -439 214 -336 63 -234L75 -218C241 -316 355 -425 433 -550L537 -561L784 -305ZM805 -19L647 -129L639 -118L689 -57L511 -33V-150L693 -169C703 -170 703 -175 697 -180L669 -208L687 -291C692 -315 697 -325 711 -333C717 -337 718 -340 712 -345L669 -384L647 -358L511 -340C511 -410 514 -435 525 -449C531 -456 530 -459 523 -465L459 -515L447 -504C466 -474 470 -456 470 -335L339 -319L309 -378L293 -372C303 -332 307 -302 308 -271L311 -194C312 -166 306 -146 297 -133L337 -80C342 -74 347 -75 349 -84C352 -96 352 -106 351 -132L470 -145V-28L190 10L250 55C302 38 366 25 711 -30L780 52C788 61 791 61 794 53C801 31 804 7 805 -19ZM648 -322L634 -198L511 -183V-305ZM470 -179L351 -165L346 -285L470 -300Z"/>
</svg>