<svg xmlns="http://www.w3.org/2000/svg" viewBox="0 -1000 1000 1000">
	<path fill="#000000" d="M889 -501C895 -505 895 -511 889 -515L842 -552L810 -515L734 -498C739 -549 743 -604 746 -665C749 -719 757 -753 767 -762C771 -765 771 -771 766 -776L702 -842L689 -833C705 -792 706 -740 688 -490L573 -468C585 -496 590 -505 602 -517C608 -522 608 -526 605 -531L562 -593L550 -586C552 -557 549 -528 520 -447L429 -427L504 -639C525 -701 540 -735 551 -745C555 -749 555 -753 552 -758L503 -828L488 -821C495 -769 484 -681 428 -512C411 -463 400 -441 374 -420L413 -379C417 -374 422 -373 428 -379C439 -390 451 -396 511 -416C496 -372 475 -313 446 -236C428 -185 418 -171 399 -160L327 -259L315 -251L344 -165L271 -143V-315L382 -330C389 -330 391 -336 386 -340L359 -369L379 -494C382 -513 392 -530 403 -539C410 -545 410 -549 404 -554L356 -590L330 -554L271 -545V-642C271 -736 275 -766 284 -783C286 -787 287 -793 283 -796L217 -852L206 -844C225 -798 232 -728 232 -653V-540L168 -530L144 -598L125 -593C131 -564 135 -525 136 -481L138 -370C139 -336 134 -314 125 -300L160 -241C164 -234 172 -236 173 -243C176 -258 177 -272 176 -303L232 -311V-132L38 -74L100 -43C115 -54 156 -70 352 -142L369 -90C372 -81 379 -83 382 -89C389 -104 394 -120 398 -139L427 -117C433 -113 438 -114 441 -118C448 -124 473 -138 492 -145L568 -176L579 -144C582 -136 586 -135 592 -143C601 -158 607 -175 614 -205L540 -310L528 -302L559 -201L452 -170L567 -454L605 -433C621 -439 638 -444 687 -456C667 -205 616 -88 451 77L464 90C624 -46 697 -160 730 -464L822 -485C816 -277 781 -89 749 -25L682 -85L668 -75C710 -15 733 24 752 60C756 67 761 68 765 61C803 3 836 -114 860 -409C865 -466 875 -490 889 -501ZM340 -523L324 -360L271 -350V-512ZM232 -344L176 -335L173 -496L232 -507Z"/>
</svg>