<svg xmlns="http://www.w3.org/2000/svg" viewBox="0 -1000 1000 1000">
	<path fill="#000000" d="M789 -690L664 -755L656 -743L765 -628C772 -621 777 -621 780 -629C787 -647 789 -668 789 -690ZM898 81C888 24 876 -117 876 -172H860L842 13C758 -38 705 -105 665 -214C688 -256 709 -300 722 -335C741 -386 752 -407 764 -413C769 -415 770 -420 765 -427L722 -498L705 -490C707 -421 698 -374 648 -268C628 -337 617 -399 605 -522L876 -551C890 -552 890 -556 879 -565L830 -601C800 -586 748 -573 603 -555C588 -731 589 -771 603 -788C607 -794 606 -798 599 -805L540 -861L526 -853C541 -803 547 -753 564 -552L363 -530V-622L511 -640C523 -641 525 -645 514 -654L477 -683C460 -674 409 -660 363 -653C363 -749 367 -779 373 -786C380 -794 379 -797 371 -803L312 -850L302 -837C321 -809 327 -779 327 -729V-649L160 -632L205 -594C236 -605 271 -611 327 -618V-526L57 -497L105 -460C142 -471 168 -476 305 -490C310 -465 312 -432 312 -370L209 -357L178 -408L165 -401C172 -381 175 -360 177 -330L182 -238C183 -208 181 -194 176 -182L206 -145C215 -134 223 -138 218 -203L312 -215V-90L75 -45L134 -9C179 -28 203 -34 482 -96L502 -74C507 -69 512 -71 514 -78C517 -89 518 -114 517 -135L415 -200L406 -187L463 -118L349 -96V-219L495 -237C505 -238 506 -241 498 -248L472 -272L483 -340C485 -352 497 -367 504 -369C511 -370 513 -377 504 -384L463 -418L441 -387L349 -375C349 -427 353 -443 362 -454C368 -463 368 -467 356 -477L335 -494L567 -519C579 -394 593 -321 624 -218C579 -134 483 -25 375 49L387 66C492 -2 579 -85 639 -171C689 -47 789 54 884 94C894 99 900 94 898 81ZM443 -354L435 -264L349 -251V-341ZM312 -247L217 -234L212 -325L312 -337Z"/>
</svg>