<svg xmlns="http://www.w3.org/2000/svg" viewBox="0 -1000 1000 1000">
	<path fill="#000000" d="M672 -759L591 -846L581 -837L636 -685C639 -676 645 -676 652 -688C661 -706 668 -731 672 -759ZM445 -182L364 -301L351 -294L384 -197L290 -166V-346L422 -363C432 -364 432 -368 424 -376L396 -404L410 -515C414 -546 422 -560 440 -570C446 -574 446 -578 442 -584L404 -632L365 -587L290 -577V-658C290 -755 293 -771 301 -781C305 -786 305 -790 301 -795L247 -856L235 -849C248 -811 251 -782 251 -671V-572L172 -561L146 -636L131 -632C137 -604 138 -588 139 -538L142 -360C142 -329 139 -318 127 -304L163 -243C168 -235 175 -235 176 -244C179 -272 180 -295 179 -332L251 -341V-154L51 -85L114 -50C129 -63 219 -105 393 -173L410 -122C413 -115 417 -115 422 -121C434 -139 440 -156 445 -182ZM946 15L945 -3C823 -13 795 -31 705 -178C784 -256 796 -266 816 -274C825 -278 826 -283 821 -291L794 -344L781 -341C771 -307 743 -256 693 -201L604 -348L794 -371C805 -372 806 -376 797 -384L768 -411L784 -584C788 -628 794 -638 812 -648C820 -653 821 -657 812 -666L767 -711L735 -669L526 -637L487 -718L472 -711C483 -671 490 -596 490 -544V-67C490 5 476 35 447 59L492 84C503 90 505 90 511 80C527 53 547 29 666 -98L656 -112L529 -9V-340L565 -344L785 30ZM745 -633L731 -401L529 -373V-474L714 -499C726 -501 727 -506 716 -516L685 -542C672 -531 644 -524 529 -505V-602ZM374 -554L362 -388L290 -378V-543ZM251 -374L178 -364L176 -529L251 -539Z"/>
</svg>