<svg xmlns="http://www.w3.org/2000/svg" viewBox="0 -1000 1000 1000">
	<path fill="#000000" d="M938 -10L886 -44C857 -29 829 -23 703 -11V-254L881 -273C893 -274 894 -278 882 -288L846 -319C825 -310 789 -299 703 -289V-469L884 -489C898 -490 898 -496 887 -504L844 -534C817 -523 770 -513 703 -504V-673C703 -739 710 -771 716 -779C720 -785 719 -790 712 -796L653 -845L641 -836C654 -805 661 -777 661 -633V-499L528 -484C544 -529 555 -572 561 -607C564 -625 573 -646 577 -649C588 -657 588 -663 582 -671L532 -729L519 -722C540 -651 499 -450 419 -289L437 -279C470 -336 500 -404 523 -467L554 -445C577 -452 616 -460 661 -465V-285L505 -269L558 -232C583 -239 605 -243 661 -249V-7L382 20L438 60C472 49 643 29 932 5C950 4 951 -2 938 -10ZM422 -106L315 -192C364 -300 381 -385 398 -528C402 -564 407 -585 416 -596C421 -603 420 -607 415 -612L364 -663L352 -654C359 -632 362 -588 358 -534L254 -519C265 -573 276 -630 285 -688C288 -709 295 -736 305 -746C311 -752 312 -755 305 -761L248 -820L233 -812C250 -752 250 -705 213 -513L46 -489L102 -452C120 -460 157 -469 206 -478C194 -425 170 -339 148 -284C185 -260 228 -223 271 -182C214 -73 152 -5 60 75L73 91C181 6 253 -72 297 -155C338 -113 377 -67 406 -27C414 -16 418 -18 421 -29C427 -51 426 -75 422 -106ZM356 -508C347 -410 324 -298 285 -215L191 -290C211 -348 231 -415 247 -486Z"/>
</svg>