<svg xmlns="http://www.w3.org/2000/svg" viewBox="0 -1000 1000 1000">
	<path fill="#000000" d="M539 -730L443 -842L432 -834L497 -670C500 -662 505 -661 511 -669C521 -683 532 -705 539 -730ZM402 -544L360 -580L339 -550L269 -539V-648C269 -723 276 -769 287 -783C291 -788 290 -793 285 -797L216 -855L206 -845C224 -796 231 -750 231 -661V-534L168 -524L137 -602L120 -597C126 -577 131 -539 132 -493L134 -368C134 -343 129 -320 121 -307L155 -251C160 -242 166 -243 169 -253C171 -260 172 -272 172 -306L231 -314V-160L53 -99L106 -66C123 -78 152 -92 336 -170L346 -120C347 -111 352 -109 358 -118C370 -134 379 -152 384 -169L330 -261L318 -254L331 -193L269 -172V-318L380 -332C387 -333 389 -338 384 -342L360 -366L374 -478C378 -511 386 -525 401 -531C408 -534 408 -539 402 -544ZM941 -293L899 -324C870 -312 848 -306 758 -294C754 -311 749 -324 742 -337L814 -429C837 -458 842 -462 870 -476C876 -479 877 -484 871 -489L820 -533L799 -505L602 -471L651 -437C672 -446 692 -452 794 -470L727 -362C719 -374 708 -387 697 -400L682 -391C702 -359 715 -329 723 -290L580 -272C583 -298 585 -325 587 -352C590 -395 595 -409 611 -419C617 -423 617 -429 611 -433L564 -468L547 -438L489 -427C495 -497 502 -528 511 -538C516 -543 517 -546 512 -551L483 -580L640 -602C627 -569 611 -534 594 -501L606 -491C630 -524 651 -559 669 -596L692 -580C716 -590 762 -599 910 -618C919 -618 919 -622 912 -629L876 -663C851 -647 807 -638 679 -618C695 -652 704 -677 718 -724C729 -761 737 -778 750 -789C756 -794 756 -799 752 -803L700 -861L685 -852C697 -821 683 -720 643 -611L611 -642C579 -630 549 -623 362 -596L409 -567C420 -571 439 -575 454 -577C460 -512 456 -442 441 -336C421 -195 379 -63 273 71L286 82C397 -25 468 -190 487 -393L553 -405C532 -181 522 -126 505 -74L446 -115L437 -103C476 -53 496 -23 510 6C514 13 520 14 524 7C547 -40 566 -133 580 -261L616 -236C645 -245 661 -249 727 -257C746 -146 737 -38 717 10L617 -61L606 -46C653 5 690 48 722 94C728 101 733 101 737 94C776 31 791 -128 764 -261L938 -281C950 -282 950 -287 941 -293ZM342 -515L324 -360L269 -351V-503ZM231 -346L172 -337L169 -488L231 -497Z"/>
</svg>