<svg xmlns="http://www.w3.org/2000/svg" viewBox="0 -1000 1000 1000">
	<path fill="#000000" d="M819 -794L770 -837L761 -835C725 -800 664 -769 405 -696L411 -678C491 -692 598 -717 736 -758C773 -771 794 -776 814 -777C829 -778 831 -783 819 -794ZM653 -628L584 -708L570 -701L617 -570C620 -561 628 -560 633 -569C642 -585 647 -599 653 -628ZM538 -600L458 -677L446 -670L505 -545C509 -536 514 -536 518 -543C528 -560 534 -575 538 -600ZM408 -215L314 -327L301 -320L334 -240L261 -217V-373L383 -391C396 -393 397 -401 388 -408L361 -428L381 -551C384 -569 388 -579 404 -592C410 -597 410 -601 405 -606L359 -646L334 -606L261 -594V-689C261 -732 264 -758 279 -778C282 -782 282 -785 277 -790L211 -851L199 -842C220 -798 226 -768 226 -694V-589L145 -576L116 -647L100 -640C109 -612 113 -590 115 -550L121 -414C123 -379 118 -364 105 -348L141 -282C145 -275 152 -276 153 -284C156 -295 157 -322 156 -358L226 -369V-206L42 -144L108 -109C140 -131 197 -161 346 -215L373 -153C376 -145 380 -145 385 -152C395 -167 403 -190 408 -215ZM945 38V16C824 14 786 -4 662 -116C694 -156 712 -186 733 -227C758 -276 763 -282 781 -292C790 -297 791 -302 781 -311L737 -351L707 -316L544 -293C552 -313 561 -335 575 -372L895 -407C908 -408 910 -414 899 -422L856 -451C837 -441 745 -422 589 -403C600 -429 608 -441 615 -446C622 -451 622 -457 619 -462L594 -497L842 -528C853 -529 854 -533 846 -540L808 -573C794 -565 758 -554 717 -548C772 -652 781 -664 799 -676C805 -680 805 -684 800 -693L762 -755L748 -751C746 -701 731 -650 684 -543L407 -512L455 -473C474 -480 518 -489 561 -494C560 -463 553 -430 542 -399L360 -379L408 -345C432 -353 472 -361 531 -367C461 -188 382 -91 257 17L268 31C378 -54 439 -113 502 -219C542 -190 558 -176 615 -119C546 -38 446 31 337 80L343 97C455 59 568 -7 643 -91L788 57ZM341 -574L325 -417L261 -405V-562ZM226 -400L156 -389L152 -545L226 -557ZM707 -281C690 -234 669 -189 633 -142C591 -183 565 -214 554 -238L513 -237C518 -245 522 -251 526 -260Z"/>
</svg>