<svg xmlns="http://www.w3.org/2000/svg" viewBox="0 -1000 1000 1000">
	<path fill="#000000" d="M840 -551L800 -598L767 -546L674 -535C738 -640 754 -659 784 -673C796 -679 797 -684 792 -690L741 -745L717 -702L596 -682C636 -759 642 -768 651 -771C659 -774 662 -778 657 -786L610 -863L593 -856C602 -789 552 -630 401 -433L416 -421C448 -452 478 -487 503 -523C506 -489 506 -473 507 -430L509 -288C510 -212 507 -195 493 -171L526 -107C532 -96 542 -95 545 -109C547 -117 548 -130 548 -150L748 -175L768 -116C772 -104 785 -105 788 -115C796 -147 801 -182 805 -249L818 -466C820 -504 825 -518 838 -526C850 -534 850 -539 840 -551ZM449 -171L350 -291L335 -281L368 -195L287 -172V-345L417 -364C429 -365 430 -370 421 -376L389 -401L409 -539C411 -554 422 -577 431 -582C437 -586 437 -592 432 -597L387 -640L363 -595L287 -582V-675C287 -716 293 -744 304 -760C312 -772 310 -777 305 -782L238 -844L224 -836C242 -793 247 -762 247 -686V-576L174 -564L142 -636L123 -630C128 -615 137 -542 138 -517L143 -374C144 -344 139 -325 127 -310L163 -242C168 -232 179 -233 180 -243C182 -271 182 -296 182 -331L247 -340V-160L51 -101L113 -62C129 -75 221 -114 380 -169L410 -95C413 -88 416 -86 422 -94C431 -105 439 -129 449 -171ZM872 -15L698 -142L686 -125C774 -33 811 12 848 69C857 83 863 82 867 69C872 49 873 20 872 -15ZM632 -88L611 -152L594 -150C581 -95 473 24 344 86L354 105C436 68 498 27 580 -41C610 -67 615 -70 622 -72C634 -74 636 -77 632 -88ZM708 -665L639 -531L547 -519L526 -556C544 -585 553 -600 578 -647ZM370 -562L354 -392L287 -381V-547ZM247 -375L181 -364L175 -530L247 -542ZM778 -515L764 -270C762 -228 759 -216 752 -205L729 -218C711 -206 659 -194 548 -181L547 -266L742 -292C758 -294 758 -300 749 -306L706 -333C684 -319 665 -315 546 -298V-377L742 -401C760 -403 760 -411 748 -418L705 -442C686 -430 662 -423 545 -408L544 -488Z"/>
</svg>