<svg xmlns="http://www.w3.org/2000/svg" viewBox="0 -1000 1000 1000">
	<path fill="#000000" d="M421 -562C429 -567 429 -572 421 -578L381 -609L355 -579L276 -567V-651C276 -730 279 -752 291 -773C294 -778 294 -783 289 -788L231 -846L219 -839C233 -796 238 -744 238 -663V-562L165 -550L140 -628L126 -622C131 -587 134 -552 135 -524L138 -376C138 -349 133 -328 121 -309L160 -247C164 -241 169 -242 170 -248C173 -265 174 -285 173 -326L238 -334V-162L41 -96L101 -62C127 -81 174 -104 356 -174L369 -127C371 -121 375 -120 380 -127C393 -145 400 -161 406 -184L341 -283L330 -277L350 -200L276 -175V-339L388 -354C395 -355 396 -359 392 -364L376 -382L392 -508C396 -536 404 -551 421 -562ZM938 -479L894 -508C872 -498 852 -492 816 -486C824 -553 829 -566 849 -578C855 -582 854 -587 848 -592L805 -628L775 -586L671 -570C671 -594 673 -606 683 -624C686 -629 685 -636 678 -642L647 -671L890 -704C899 -705 900 -709 892 -715L850 -747C823 -735 782 -723 668 -708C677 -724 684 -748 689 -773L596 -860L586 -851L647 -704L495 -684L468 -758L453 -754C458 -690 459 -624 457 -541C449 -220 419 -96 293 66L307 75C408 -50 458 -125 482 -304L524 -279C551 -287 585 -294 635 -302C634 -280 629 -262 621 -248L649 -200L541 -183L514 -245L500 -240C507 -196 509 -178 511 -127L513 -74C515 -20 509 15 500 34L535 90C540 98 545 96 548 87C552 73 553 57 551 21L830 -9C840 -10 841 -15 833 -22L800 -50L810 -151C812 -170 818 -184 835 -199C843 -206 842 -211 837 -215L793 -256L765 -220L669 -204C670 -220 671 -242 671 -307L839 -330C849 -331 850 -337 843 -342L806 -370L814 -451L935 -468C945 -469 946 -474 938 -479ZM635 -564L498 -543C499 -576 500 -615 501 -650L619 -668C629 -641 635 -601 635 -564ZM786 -555L778 -479L671 -464V-538ZM635 -457L492 -439C495 -466 497 -499 497 -531L536 -511C561 -520 591 -526 635 -532ZM355 -545L339 -380L276 -370V-534ZM238 -366L173 -357L169 -519L238 -529ZM776 -446L768 -355L671 -337V-431ZM635 -332L482 -315C486 -343 490 -378 492 -414L515 -401C544 -411 579 -418 635 -425ZM773 -185L761 -36L550 -12L546 -152Z"/>
</svg>