<svg xmlns="http://www.w3.org/2000/svg" viewBox="0 -1000 1000 1000">
	<path fill="#000000" d="M845 -716L792 -779L778 -768C788 -752 791 -711 786 -671L781 -628C780 -620 778 -615 776 -609L658 -594V-710C658 -741 661 -764 674 -780C681 -789 679 -793 670 -800L610 -849L594 -839C609 -812 618 -785 618 -755V-590L515 -577V-653C515 -673 516 -679 521 -685C526 -692 524 -698 519 -702L467 -754L453 -743C465 -724 473 -696 476 -650L480 -597C481 -582 477 -572 459 -554L487 -525C493 -518 497 -519 502 -527C507 -535 523 -543 561 -548L765 -575L780 -536C785 -525 793 -525 798 -534C803 -544 806 -554 808 -567L827 -668C830 -684 834 -692 844 -699C851 -704 850 -710 845 -716ZM902 -486L859 -514C818 -498 649 -473 399 -454L449 -415C512 -431 623 -444 898 -469C919 -470 920 -474 902 -486ZM433 -157L343 -264L331 -257L365 -175L283 -148V-308L406 -332C416 -334 416 -340 410 -345L381 -366L396 -504C400 -530 408 -542 420 -549C429 -554 428 -560 421 -565L371 -602L343 -564L283 -550V-639C283 -712 290 -748 300 -766C303 -771 302 -775 298 -778L231 -839L219 -830C237 -786 245 -738 245 -650V-543L167 -527L137 -603L122 -596C128 -571 135 -521 136 -495L141 -367C142 -329 141 -312 129 -296L165 -223C169 -214 179 -215 182 -224C186 -236 186 -253 184 -288L245 -300V-136L43 -71L115 -40C127 -52 183 -77 376 -152L403 -88C406 -81 412 -80 415 -87C423 -106 430 -133 433 -157ZM927 -4L886 -36C855 -24 796 -12 698 -4C738 -96 751 -124 768 -137C776 -144 776 -150 771 -156L735 -200L794 -207C812 -209 813 -216 800 -226L773 -247L784 -313C788 -337 793 -350 804 -359C814 -367 814 -371 806 -378L767 -413L738 -377L528 -351L498 -408L482 -401C488 -378 489 -372 491 -348L499 -244C500 -228 496 -209 489 -198L519 -143C522 -139 523 -138 525 -137L566 -12C570 -1 572 -1 581 -10C592 -23 601 -41 605 -65L537 -157C538 -163 538 -169 537 -176L714 -197C715 -160 709 -109 666 -2L345 23L396 60C621 32 760 21 923 12C940 11 940 7 927 -4ZM356 -531L345 -353L283 -340V-517ZM245 -333L182 -320L172 -495L245 -510ZM747 -343L735 -236L537 -210L530 -318Z"/>
</svg>