<svg xmlns="http://www.w3.org/2000/svg" viewBox="0 -1000 1000 1000">
	<path fill="#000000" d="M526 -682L436 -768L425 -757L492 -622C497 -611 504 -610 509 -621C517 -638 523 -661 526 -682ZM954 -268L952 -284C863 -287 834 -300 751 -388L685 -460L877 -480C893 -481 894 -487 879 -495L833 -523C809 -508 749 -497 562 -478C575 -505 589 -538 597 -561L831 -584C846 -585 846 -590 832 -600L791 -628C782 -622 740 -609 699 -603C753 -681 775 -709 789 -719C800 -727 801 -731 796 -740L763 -800L748 -795C745 -754 721 -690 663 -599L606 -593C621 -644 625 -662 638 -721C642 -740 648 -760 657 -771C664 -780 664 -784 656 -793L607 -850L595 -845C604 -801 592 -689 563 -589L386 -571L433 -535C457 -542 490 -548 553 -557C544 -530 533 -504 519 -475L360 -459L404 -424C424 -429 448 -433 503 -440C465 -366 418 -303 350 -235V-681C350 -707 354 -724 365 -732C375 -739 375 -744 364 -753L324 -787L298 -749L200 -731L174 -811L158 -807C163 -755 165 -692 163 -604C156 -216 140 -109 30 72L43 85C134 -35 179 -129 194 -327L310 -345V-107C310 -62 306 -32 299 -14L209 -84L194 -74C238 -22 288 46 304 74C310 85 315 86 323 72C339 42 350 -16 350 -74V-205C433 -274 498 -348 547 -444L654 -457L819 -252ZM825 1L708 -117L697 -106L737 -36L624 -21V-122L771 -139C782 -140 783 -145 774 -153L742 -179L751 -245C754 -265 759 -276 771 -283C778 -287 777 -292 767 -300L733 -327L708 -297L624 -285C624 -343 627 -362 635 -376C639 -385 638 -390 628 -398L585 -435L574 -425C585 -393 588 -356 588 -281L500 -269L478 -308L465 -301C469 -277 470 -263 470 -232V-162C470 -135 467 -118 462 -106L492 -69C500 -60 505 -60 505 -109L588 -118V-16L357 16L407 59C436 46 530 26 751 -13L798 70C802 78 808 79 812 72C818 62 825 29 825 1ZM310 -533L282 -555C270 -548 255 -544 203 -535C204 -593 204 -643 203 -697L310 -715ZM310 -364L280 -383C263 -372 233 -365 196 -360C199 -400 201 -452 202 -506L310 -521ZM713 -262L706 -166L624 -156V-249ZM588 -151L504 -140L503 -234L588 -245Z"/>
</svg>