<svg xmlns="http://www.w3.org/2000/svg" viewBox="0 -1000 1000 1000">
	<path fill="#000000" d="M733 -635L663 -692L655 -681L709 -585C716 -573 721 -574 725 -586C729 -598 732 -617 733 -635ZM521 -618L447 -680L440 -668L497 -563C504 -551 509 -551 513 -564C518 -579 521 -603 521 -618ZM855 -761L812 -802L788 -765L638 -740L667 -706C693 -716 738 -725 796 -732L791 -591L633 -524L680 -491C698 -509 724 -526 791 -563C788 -513 782 -485 771 -464L800 -413C807 -401 813 -400 816 -415C820 -435 821 -447 826 -547L832 -676C834 -718 839 -731 850 -739C863 -748 864 -753 855 -761ZM952 -229V-243C856 -255 835 -261 698 -401L660 -441C663 -443 667 -445 670 -446C678 -447 679 -451 671 -462L639 -505L631 -501C623 -477 616 -459 604 -436C605 -452 606 -473 606 -499L608 -670C608 -712 614 -723 631 -738C639 -745 638 -750 632 -755L591 -788L562 -752L389 -728L431 -694C453 -701 470 -705 573 -724L571 -571L398 -490C401 -511 411 -532 426 -541C431 -544 431 -549 427 -553L383 -593L352 -561L286 -549V-651C286 -748 287 -759 297 -774C302 -781 301 -784 297 -788L243 -849L231 -842C244 -804 247 -775 247 -664V-544L174 -532L147 -605L131 -600C138 -574 141 -542 142 -508L147 -360C147 -329 145 -318 133 -302L171 -243C177 -234 182 -235 183 -245C185 -257 185 -286 184 -318L247 -328V-165L46 -112L106 -72C120 -84 192 -112 370 -172L401 -95C404 -88 410 -87 413 -94C422 -114 431 -142 434 -163L344 -280L331 -273L361 -193L286 -174V-332L409 -350C417 -351 418 -357 411 -363L387 -387L397 -472L438 -450C454 -470 490 -496 571 -548C570 -512 564 -473 555 -459L584 -407C548 -357 490 -297 396 -231L403 -217C503 -271 583 -345 644 -422L815 -218ZM678 -320L652 -370L640 -367C624 -318 566 -251 453 -166L461 -152C542 -201 582 -231 645 -288C657 -299 664 -304 670 -306C681 -309 682 -312 678 -320ZM715 -235L687 -283L676 -281C661 -229 567 -133 432 -53L441 -36C556 -97 614 -137 679 -202C694 -215 700 -218 708 -220C718 -223 719 -229 715 -235ZM791 -155L764 -214L753 -211C738 -142 531 31 357 89L363 105C506 65 638 -17 739 -111C759 -128 769 -134 780 -137C794 -141 796 -145 791 -155ZM364 -529L352 -375L286 -364V-516ZM247 -359L183 -348L179 -499L247 -511Z"/>
</svg>