<svg xmlns="http://www.w3.org/2000/svg" viewBox="0 -1000 1000 1000">
	<path fill="#000000" d="M519 -663C520 -678 518 -713 515 -731L367 -814L355 -795C439 -735 476 -697 502 -660C511 -646 518 -649 519 -663ZM306 -753L282 -810L270 -807C257 -757 201 -675 133 -611L144 -598C199 -643 228 -668 261 -705C277 -722 289 -733 303 -738C309 -740 310 -744 306 -753ZM879 -679L835 -732L802 -691L632 -666C667 -752 672 -762 678 -767C685 -772 685 -775 681 -781L633 -849L619 -843C639 -772 585 -611 520 -503L537 -493C571 -544 598 -587 617 -631L804 -659L768 -567L785 -560C840 -650 854 -660 878 -669C882 -671 882 -675 879 -679ZM515 -513C516 -529 513 -553 509 -570L357 -645C362 -650 365 -652 369 -654C382 -661 384 -665 377 -675L349 -720L335 -717C332 -693 316 -659 292 -628C233 -551 164 -484 86 -425L96 -411C139 -439 188 -474 229 -513C234 -495 235 -488 236 -453L237 -414C238 -378 232 -353 223 -335L254 -277C259 -268 264 -269 267 -277C269 -285 271 -300 272 -321L459 -347C470 -349 471 -354 462 -362L441 -379L451 -446C454 -468 461 -483 477 -491C482 -494 482 -499 477 -504L438 -544L414 -514L263 -493L245 -528C277 -559 309 -592 343 -631C425 -577 467 -545 498 -511C508 -500 514 -501 515 -513ZM956 -319V-337C845 -345 828 -348 737 -472L690 -535C696 -553 703 -566 710 -570C720 -576 720 -580 715 -586L673 -635L661 -631C665 -595 660 -569 646 -520C631 -466 591 -400 529 -338L477 -387L464 -379C476 -350 482 -311 483 -246L311 -228L279 -279L270 -274C278 -246 280 -235 283 -196L287 -137C288 -118 285 -105 279 -93L311 -50C324 -32 330 -33 327 -84L483 -101V-14L178 27L235 70C262 53 294 47 722 -22L806 46C815 54 817 53 819 41C822 22 822 8 819 -23L644 -108L635 -96L698 -43L520 -20V-104L743 -126C753 -127 754 -132 747 -138L724 -157L733 -214C736 -232 743 -244 761 -254C766 -257 766 -261 760 -266L719 -306L688 -268L520 -250C521 -281 523 -298 527 -310C600 -363 653 -431 679 -504L809 -303ZM416 -483L407 -375L272 -351L271 -463ZM694 -237L685 -152L520 -135V-218ZM483 -132L325 -115L319 -196L483 -215Z"/>
</svg>