<svg xmlns="http://www.w3.org/2000/svg" viewBox="0 -1000 1000 1000">
	<path fill="#000000" d="M413 -577L377 -611L350 -576L279 -568V-644C279 -708 287 -752 299 -768C303 -773 303 -778 298 -783L232 -845L222 -837C240 -788 243 -756 243 -655V-565L163 -556L137 -619L123 -613C129 -591 132 -568 134 -520L138 -395C138 -360 134 -347 121 -332L160 -270C166 -261 172 -262 173 -272C175 -283 175 -301 174 -322L243 -330V-151L40 -90L105 -53C133 -74 190 -101 359 -164L375 -118C377 -111 382 -109 387 -117C400 -136 406 -150 412 -170L336 -281L324 -273L352 -185L279 -163V-334L393 -348C402 -349 403 -354 397 -361L377 -385L391 -523C392 -537 399 -551 412 -563C417 -568 417 -573 413 -577ZM953 -15V-28C858 -44 830 -65 768 -182L722 -267C787 -325 800 -335 810 -339C820 -343 822 -347 818 -358L794 -419L782 -414C776 -385 747 -322 666 -241C658 -285 627 -350 591 -379C597 -389 602 -399 608 -410L816 -433C829 -434 830 -442 820 -450L792 -471L807 -543C813 -569 820 -584 831 -592C838 -597 838 -602 832 -607L791 -639L760 -601L648 -586C709 -672 726 -688 746 -697C755 -702 755 -708 748 -714L706 -749L674 -709L553 -693C564 -709 574 -725 586 -744C604 -773 612 -783 621 -787C627 -790 628 -797 625 -802L588 -862L573 -856C573 -812 531 -694 423 -534L435 -526C444 -536 453 -546 462 -558C471 -491 465 -444 453 -418L481 -373C489 -361 495 -363 498 -376C499 -382 500 -390 500 -397L567 -406C531 -337 491 -294 409 -226L420 -212C492 -261 538 -304 576 -357C584 -347 593 -333 600 -318C562 -257 497 -188 380 -92L389 -79C475 -136 544 -195 619 -278C626 -263 632 -243 633 -228C563 -135 466 -53 315 42L322 57C441 -8 528 -66 639 -170C641 -100 630 -28 604 30L513 -25L505 -13C563 41 577 57 608 98C616 108 623 108 629 100C669 44 684 -87 669 -218C683 -230 692 -239 702 -248L814 -10ZM666 -677L618 -583L494 -566L482 -585C498 -609 515 -634 537 -667L550 -654C577 -665 608 -671 666 -677ZM771 -569L755 -463L625 -445C643 -484 655 -517 666 -554ZM617 -548C611 -516 599 -470 586 -441L500 -430V-532ZM357 -546L343 -376L279 -368V-535ZM243 -365L173 -357L168 -521L243 -531Z"/>
</svg>