<svg xmlns="http://www.w3.org/2000/svg" viewBox="0 -1000 1000 1000">
	<path fill="#000000" d="M898 -688L859 -720L836 -683L717 -666L693 -717L680 -714C689 -674 692 -650 693 -604L695 -485C695 -459 692 -444 685 -434L713 -385C720 -374 727 -375 728 -387C730 -400 731 -414 731 -442L875 -457C893 -458 894 -464 882 -473L859 -493L874 -613C878 -644 885 -660 897 -669C907 -677 907 -681 898 -688ZM429 -172L340 -281L328 -273L362 -186L279 -160V-335L380 -353C395 -356 396 -358 385 -369L368 -386L386 -503C390 -527 395 -538 405 -546C414 -554 414 -559 405 -567L367 -597L342 -565L279 -552V-672C279 -707 287 -748 297 -763C302 -770 302 -772 294 -781L236 -844L225 -835C239 -797 243 -765 243 -687V-547L172 -534L142 -602L127 -595C136 -558 141 -517 141 -482V-367C141 -329 137 -315 129 -304L157 -258C164 -246 169 -246 173 -262C175 -270 176 -289 176 -319L243 -330V-148L67 -90L124 -49C155 -68 183 -82 237 -107L370 -166L400 -94C405 -82 411 -82 416 -94C421 -107 425 -129 429 -172ZM939 -33L899 -67C859 -52 814 -42 677 -31V-149L830 -163C849 -164 850 -169 837 -180L804 -205C786 -194 735 -185 677 -178V-276L837 -296C851 -298 853 -303 842 -311L808 -337C787 -322 696 -307 620 -298C623 -322 625 -360 625 -441L663 -459L658 -476L625 -465V-742L692 -752C706 -754 707 -759 696 -768L663 -793C634 -776 598 -767 374 -738L409 -708C423 -713 432 -715 447 -717V-401L395 -382L437 -350C452 -361 502 -387 590 -427C590 -380 586 -366 574 -344L603 -298L465 -283L505 -248C522 -254 590 -266 641 -272V-174L492 -160L531 -127C553 -133 589 -140 641 -146V-28L384 -6L432 32C486 19 559 8 935 -17C949 -18 951 -23 939 -33ZM590 -452L482 -413V-502L565 -519C578 -522 578 -526 571 -534L555 -552C544 -545 516 -537 482 -530V-604L562 -617C574 -618 575 -622 568 -631L551 -652C536 -645 514 -638 482 -630V-721L590 -737ZM841 -650L827 -486L730 -470L726 -635ZM352 -533L336 -380L279 -369V-520ZM243 -363L176 -350V-503L243 -515Z"/>
</svg>