<svg xmlns="http://www.w3.org/2000/svg" viewBox="0 -1000 1000 1000">
	<path fill="#000000" d="M510 -728L421 -828L410 -820L475 -676C480 -665 485 -664 493 -674C501 -684 507 -701 510 -728ZM589 -641L553 -661C538 -649 470 -633 340 -614L387 -581C413 -592 458 -602 586 -622C604 -625 604 -633 589 -641ZM573 -510L539 -530C508 -514 467 -504 376 -493L419 -462C440 -470 498 -483 569 -493C586 -496 586 -502 573 -510ZM373 -169L285 -285L274 -278L311 -183L257 -162V-319L362 -335C372 -336 372 -342 364 -349L341 -368L349 -501C352 -537 354 -541 370 -551C377 -555 378 -561 368 -569L327 -604L306 -567L257 -557V-634C257 -732 259 -745 269 -758C275 -765 273 -770 268 -776L215 -835L203 -828C216 -788 221 -755 221 -646V-551L160 -539L136 -595L120 -590C126 -563 130 -532 131 -496L134 -368C134 -337 132 -326 120 -310L154 -249C160 -240 164 -242 166 -251C169 -268 170 -280 172 -307L221 -314V-147L58 -81L128 -56C141 -69 213 -106 322 -160L342 -109C347 -98 355 -98 359 -107C367 -125 371 -142 373 -169ZM914 -479L874 -502C849 -489 829 -483 764 -474C793 -523 825 -588 845 -635C866 -684 876 -701 882 -705C895 -713 896 -717 889 -727L848 -790L834 -786C837 -745 827 -701 799 -631L769 -647C754 -639 733 -634 713 -631V-681C713 -742 715 -759 725 -779C730 -789 729 -796 722 -802L663 -853L651 -843C668 -810 675 -774 675 -691V-626L587 -614L625 -584C641 -589 654 -592 675 -596V-462L543 -445L594 -413C621 -422 659 -429 702 -434C673 -389 613 -314 561 -260L540 -277L517 -242L429 -230L397 -288L383 -281C391 -253 399 -208 400 -153L402 -88C403 -59 398 -39 387 -26L419 42C424 52 430 53 434 41C437 33 438 8 437 -20L563 -34C579 -35 582 -41 568 -53L549 -68L558 -190C559 -207 564 -218 574 -225C585 -233 586 -237 578 -245C607 -270 622 -285 641 -306C646 -288 648 -271 648 -240V-52C648 -19 644 -4 633 10L667 79C672 89 676 89 679 77C682 64 683 51 683 20L792 12L819 72C825 85 832 85 835 72C843 38 846 22 848 -38L857 -262C858 -285 862 -299 879 -311C890 -317 890 -323 881 -331L838 -367L814 -329L670 -308L658 -324C700 -375 721 -403 744 -439L913 -462C929 -464 931 -469 914 -479ZM583 -377L542 -400C520 -386 465 -372 377 -361L419 -330C447 -340 495 -350 580 -362C592 -363 592 -371 583 -377ZM791 -612C775 -572 751 -525 720 -468L713 -467V-601ZM314 -537L306 -360L257 -351V-526ZM221 -346L170 -337L167 -510L221 -520ZM821 -299L813 -83C811 -38 807 -22 798 -9L771 -28C753 -17 737 -14 683 -9V-132L800 -149C812 -151 812 -157 801 -164L766 -184C748 -173 726 -167 683 -161V-279ZM525 -213L516 -60L437 -50L432 -201Z"/>
</svg>