<svg xmlns="http://www.w3.org/2000/svg" viewBox="0 -1000 1000 1000">
	<path fill="#000000" d="M393 -575L351 -610L323 -575L260 -565V-655C260 -742 262 -760 272 -779C275 -784 275 -786 270 -791L219 -851L208 -845C222 -808 225 -778 225 -668V-559L153 -549L130 -609L115 -604C123 -579 125 -566 127 -517L132 -380C132 -350 130 -338 119 -323L155 -265C159 -258 163 -259 165 -266C167 -276 167 -291 167 -317L225 -324V-176L55 -106L119 -75C142 -99 186 -122 323 -191L338 -152C341 -145 344 -144 349 -152C360 -172 366 -189 369 -211L298 -294L287 -288L313 -214L260 -190V-328L370 -341C378 -342 378 -345 371 -352L349 -374L362 -508C365 -535 373 -551 392 -563C397 -566 398 -570 393 -575ZM897 -662L863 -709L832 -673L626 -646V-701L826 -725C841 -727 841 -730 830 -739L798 -765C783 -753 737 -743 626 -731C627 -751 632 -775 638 -787C644 -798 642 -801 634 -808L587 -848L578 -841C590 -816 592 -787 592 -732V-642L460 -625L434 -709L417 -705C425 -630 421 -509 411 -396C392 -188 343 -54 250 68L260 80C374 -47 433 -213 447 -387C451 -436 458 -532 461 -592L588 -609C592 -591 594 -567 593 -544L473 -515L515 -490C524 -494 557 -505 593 -515C598 -475 620 -462 675 -461C733 -460 771 -462 844 -471C854 -472 855 -478 851 -486C843 -502 832 -537 827 -561H815L808 -500C786 -494 733 -489 686 -490C637 -491 629 -495 625 -524L756 -557C767 -561 767 -564 758 -570L727 -589C712 -579 666 -563 624 -551C627 -571 629 -577 632 -582C638 -591 636 -594 628 -601L614 -613L821 -639L787 -571L799 -563C850 -622 871 -638 895 -646C903 -649 903 -653 897 -662ZM814 -429L780 -460L753 -435L524 -408L505 -446L494 -441C500 -413 501 -402 502 -360L504 -270C504 -251 501 -237 494 -224L519 -179C530 -160 539 -161 539 -211L799 -237C810 -238 810 -241 802 -250L777 -276L793 -372C795 -388 801 -403 813 -412C823 -419 823 -421 814 -429ZM919 -3L882 -34C868 -27 843 -20 807 -15L818 -120C821 -143 830 -161 844 -172C853 -179 853 -181 844 -189L807 -221L781 -187L497 -155L468 -205L455 -199C462 -166 465 -146 466 -107L469 14L367 24L402 57C475 41 604 31 915 10C928 9 928 5 919 -3ZM329 -543L316 -370L260 -361V-534ZM225 -357L166 -347L161 -521L225 -530ZM759 -406L744 -263L655 -252V-313L740 -321C748 -322 749 -327 742 -332L711 -355C704 -349 682 -341 655 -338V-393ZM623 -249L538 -239L533 -380L623 -390V-335L539 -328L569 -297C581 -302 601 -307 623 -310ZM785 -157L771 -12L700 -5L709 -147ZM673 -144L667 -3L604 4L603 -136ZM571 6L503 12L499 -125L569 -133Z"/>
</svg>