<svg xmlns="http://www.w3.org/2000/svg" viewBox="0 -1000 1000 1000">
	<path fill="#000000" d="M903 -691L870 -721C844 -706 811 -698 700 -686L744 -651C779 -662 816 -669 899 -677C914 -678 915 -681 903 -691ZM305 -747L276 -811L261 -807C263 -759 197 -637 70 -510L81 -496C158 -567 197 -606 263 -688C282 -712 292 -723 300 -728C308 -733 309 -738 305 -747ZM521 -569L489 -595C469 -584 452 -576 414 -568L418 -631C424 -718 432 -753 442 -772C446 -780 445 -784 439 -789L382 -841L372 -831C386 -782 389 -723 383 -627L379 -563L293 -549L333 -517C347 -523 363 -527 377 -530L367 -375L342 -371L311 -432L297 -426C306 -388 310 -363 312 -305L315 -203C316 -172 311 -151 299 -129L336 -70C342 -60 347 -60 350 -73C354 -93 355 -117 353 -151L473 -167C485 -168 486 -173 478 -183L459 -204L471 -322C473 -344 478 -357 492 -371C499 -377 499 -379 490 -387L452 -418L431 -383L401 -379L412 -536L518 -555C528 -557 530 -562 521 -569ZM940 -490L907 -521C879 -505 830 -494 680 -479V-662C680 -677 686 -691 703 -706C708 -711 708 -715 704 -718L663 -755L641 -719L569 -705L539 -783L525 -778C533 -735 534 -706 533 -581C528 -161 500 -78 358 83L369 96C495 -23 539 -102 556 -308L633 -316C643 -317 643 -321 636 -328L611 -354C597 -346 583 -342 558 -339C561 -380 563 -425 565 -475L644 -485V-216C644 -85 639 -39 632 -11L540 -75L530 -61C572 -15 602 24 632 70C638 78 644 77 647 72C673 15 680 -28 680 -184V-465L708 -443C725 -448 748 -453 769 -457C780 -430 781 -405 781 -302V-86C781 -30 780 -8 774 15L698 -46L685 -34C730 22 749 48 784 100C789 107 795 107 799 100C814 73 819 46 819 -61V-311C819 -376 822 -400 830 -413C835 -421 834 -424 829 -429L797 -460L936 -476C949 -477 950 -481 940 -490ZM297 -530L262 -591L250 -586C254 -528 196 -421 35 -270L46 -257C94 -292 148 -339 197 -396V-91C197 -15 194 3 180 29L216 95C222 106 228 104 231 92C233 85 235 48 235 -51V-444C273 -494 284 -506 293 -513C299 -518 301 -523 297 -530ZM644 -497L619 -524C605 -516 588 -510 565 -505C567 -560 569 -623 570 -673L644 -685ZM435 -353L426 -195L352 -183L346 -340Z"/>
</svg>