<svg xmlns="http://www.w3.org/2000/svg" viewBox="0 -1000 1000 1000">
	<path fill="#000000" d="M340 -734L217 -821L208 -808L319 -657C325 -650 332 -651 334 -657C340 -681 342 -700 340 -734ZM961 -367V-384C864 -399 847 -409 786 -504L646 -723C657 -754 668 -777 679 -787C686 -792 686 -798 682 -803L631 -869L616 -860C641 -789 534 -504 400 -333L415 -322C506 -424 584 -553 633 -685L821 -357ZM685 -443L596 -532L586 -523L651 -381C655 -372 660 -373 663 -381C672 -402 680 -425 685 -443ZM429 -428L409 -487L396 -485C390 -451 366 -411 299 -343V-438C330 -474 351 -500 372 -528C396 -558 403 -564 424 -575C431 -578 431 -584 426 -589L386 -631L354 -598L60 -541L119 -501C143 -515 183 -526 335 -556C244 -420 172 -339 43 -229L53 -214C124 -262 187 -316 257 -392V-100C257 -44 252 -16 236 12L281 100C286 107 290 108 293 100C297 88 299 60 299 -35V-315L305 -320L394 -211C399 -205 403 -205 406 -212C411 -229 412 -243 412 -273L321 -332C391 -391 411 -406 423 -411C431 -415 432 -418 429 -428ZM779 -315L736 -351L708 -318L434 -278L488 -239C522 -251 559 -258 706 -281L653 -76C643 -38 630 -15 605 0L622 87C624 97 629 98 634 90C654 56 659 42 672 -4L739 -239C746 -264 757 -283 778 -299C786 -305 785 -310 779 -315Z"/>
</svg>