<svg xmlns="http://www.w3.org/2000/svg" viewBox="0 -1000 1000 1000">
	<path fill="#000000" d="M311 -745L207 -834L194 -821L284 -676C289 -667 296 -668 299 -677C307 -698 310 -716 311 -745ZM945 -73V-91C848 -104 825 -115 770 -219L680 -385L868 -407C889 -409 889 -414 874 -424L826 -454C804 -440 767 -430 649 -415V-559L806 -584C824 -587 825 -594 813 -602L770 -629C750 -613 728 -605 649 -592V-666C649 -716 655 -760 666 -778C672 -787 671 -792 664 -798L599 -849L588 -837C604 -809 608 -770 608 -695V-586L505 -570C526 -632 530 -641 542 -651C549 -657 549 -662 545 -670L501 -739L485 -730C496 -682 485 -580 409 -429L423 -421C446 -450 475 -502 497 -551L524 -533C534 -537 568 -545 608 -552V-411L386 -386L434 -347C471 -360 513 -367 577 -374C527 -247 424 -111 300 -14L312 2C436 -89 528 -185 608 -335V-120C608 -31 602 -1 588 24L628 94C635 105 640 104 643 93C648 73 649 63 649 -58V-381L653 -382L802 -60ZM390 -437L364 -498L350 -493C349 -463 327 -421 275 -363V-436C293 -464 310 -491 327 -522C342 -550 353 -562 371 -572C381 -577 382 -582 371 -591L328 -627L299 -589L74 -552L121 -516C159 -529 212 -541 294 -554C238 -433 158 -326 43 -221L53 -208C135 -273 191 -325 237 -383V-117C237 -38 234 -14 219 14L255 84C261 95 265 95 269 82C274 67 275 48 275 -105V-327L368 -234C378 -225 381 -227 382 -236C384 -254 383 -272 378 -292L289 -343C358 -410 370 -417 387 -423C392 -425 393 -431 390 -437Z"/>
</svg>