<svg xmlns="http://www.w3.org/2000/svg" viewBox="0 -1000 1000 1000">
	<path fill="#000000" d="M328 -698L208 -817L195 -806L290 -638C295 -629 301 -628 306 -638C318 -662 323 -676 328 -698ZM971 -371V-388C877 -404 846 -435 796 -510L644 -737C653 -756 662 -768 671 -773C677 -777 678 -782 672 -790L626 -851L612 -846C614 -803 600 -743 561 -662C508 -548 460 -476 390 -393L404 -381C492 -471 552 -552 630 -710L828 -370ZM767 -397L725 -429C693 -413 656 -402 451 -383L497 -345C546 -360 582 -366 764 -384C777 -385 778 -389 767 -397ZM397 -586L355 -636L317 -583L51 -546L105 -504C127 -513 185 -526 312 -547C205 -375 141 -301 34 -192L45 -181C113 -238 166 -285 233 -365V-130C233 -53 231 -43 213 -21L248 68C252 78 259 80 263 68C270 46 272 17 272 -118V-281L375 -176C382 -169 387 -170 388 -178C390 -195 390 -213 387 -237L291 -292C364 -354 369 -358 384 -365C390 -368 392 -372 388 -380L365 -430L355 -427C347 -396 329 -355 272 -302V-416C295 -445 320 -479 348 -518C376 -557 386 -568 395 -573C400 -576 401 -581 397 -586ZM810 -248C817 -254 816 -258 810 -263L761 -304L733 -262L501 -236L466 -300L452 -293C460 -270 464 -244 466 -199L472 -55C475 -13 470 2 459 21L494 86C500 97 505 97 508 84C512 68 514 38 514 18L786 -5C794 -6 795 -10 789 -18L769 -45L787 -181C793 -228 800 -240 810 -248ZM745 -225L731 -39L513 -19L506 -198Z"/>
</svg>