<svg xmlns="http://www.w3.org/2000/svg" viewBox="0 -1000 1000 1000">
	<path fill="#000000" d="M297 -731L183 -836L170 -825L267 -658C275 -646 279 -647 283 -660C292 -687 295 -703 297 -731ZM638 -87L522 -182C559 -257 586 -347 604 -474C608 -500 618 -531 629 -542C636 -549 635 -554 627 -564L576 -627L562 -620C566 -606 568 -571 567 -537L472 -521C483 -573 491 -617 500 -672C509 -729 514 -743 529 -760C536 -768 536 -773 525 -784L465 -843L452 -835C467 -793 466 -766 454 -675C447 -622 440 -567 432 -515L329 -498L378 -463C390 -469 410 -475 427 -479C411 -380 394 -293 382 -255C418 -229 439 -211 479 -171C429 -82 367 -9 282 69L291 83C383 16 454 -60 504 -145C557 -90 583 -60 620 -7C628 5 633 5 637 -9C642 -27 642 -41 638 -87ZM893 -579C902 -584 901 -590 892 -598L844 -635L815 -590L702 -571L667 -666L651 -662C657 -634 661 -581 663 -522L674 -229C676 -166 672 -137 658 -118L697 -41C702 -31 710 -31 713 -43C717 -59 718 -86 716 -125L882 -140C901 -142 903 -148 887 -159L856 -179L865 -508C866 -552 872 -567 893 -579ZM366 -412L340 -465L328 -463C327 -438 302 -394 258 -342V-463C278 -491 297 -521 316 -554C331 -580 344 -590 364 -598C369 -600 369 -605 366 -609L327 -660L291 -618L57 -581L110 -545C135 -555 166 -563 284 -584C225 -463 153 -360 41 -248L54 -234C120 -289 172 -343 220 -407V-112C220 -32 216 -7 201 21L238 93C244 104 248 104 252 91C256 80 258 48 258 -87V-300L343 -192C349 -185 356 -186 357 -194C362 -212 363 -240 360 -263L271 -321C341 -385 349 -392 363 -398C368 -401 369 -406 366 -412ZM824 -555L817 -171L715 -158L702 -538ZM564 -502C551 -375 524 -267 494 -204L420 -265C442 -363 456 -431 467 -487Z"/>
</svg>