<svg xmlns="http://www.w3.org/2000/svg" viewBox="0 -1000 1000 1000">
	<path fill="#000000" d="M331 -747L218 -830L204 -816L301 -679C308 -669 313 -670 317 -680C326 -703 329 -718 331 -747ZM815 -722C821 -726 821 -730 814 -737L773 -776L743 -737L523 -710L488 -781L474 -775C482 -737 488 -686 489 -654L492 -496C493 -455 487 -431 479 -422L515 -363C520 -354 526 -354 529 -364C532 -374 534 -393 534 -420L802 -445C811 -446 811 -453 803 -460L772 -487L791 -672C793 -696 798 -711 815 -722ZM411 -482L380 -526L366 -521C367 -495 332 -436 294 -397L283 -403V-485C314 -526 325 -543 345 -576C357 -596 371 -606 385 -611C395 -614 395 -621 386 -629L347 -669L313 -631L71 -586L124 -555C156 -568 178 -573 305 -596C262 -506 140 -342 42 -260L55 -243C122 -297 185 -359 245 -434V-111C245 -25 241 -8 228 12L261 82C266 92 272 93 276 80C281 64 283 28 283 -97V-377L384 -279C394 -268 399 -270 400 -282C401 -294 400 -320 398 -340L315 -386C335 -404 356 -424 372 -441C385 -455 399 -464 405 -466C415 -469 417 -473 411 -482ZM944 -10L903 -51C897 -42 851 -30 808 -26L828 -260C831 -288 840 -307 852 -313C861 -318 862 -322 853 -330L812 -367L787 -331L470 -293L437 -348L421 -343C429 -307 437 -240 438 -212L447 -2L305 10L352 49C431 31 597 18 942 2C952 2 954 -1 944 -10ZM750 -703L735 -478L533 -453L530 -551L714 -572C723 -573 724 -577 715 -585L682 -615C668 -604 641 -598 529 -583L526 -678ZM793 -296L770 -25L699 -17L707 -194C708 -215 713 -236 717 -248C719 -255 716 -260 711 -265L690 -284ZM669 -174L661 -16L592 -12L589 -185C588 -215 590 -226 595 -239C598 -247 596 -253 591 -257L573 -271L668 -282C670 -251 671 -212 669 -174ZM555 -9L486 -5L474 -260L546 -268C551 -237 552 -225 553 -165Z"/>
</svg>