<svg xmlns="http://www.w3.org/2000/svg" viewBox="0 -1000 1000 1000">
	<path fill="#000000" d="M561 -787L480 -854L470 -846L523 -736C527 -728 532 -728 538 -736C552 -753 559 -769 561 -787ZM961 -173V-186C856 -207 790 -235 684 -328L609 -392L854 -411C869 -412 869 -415 859 -424L822 -455C795 -445 770 -439 606 -425L614 -490L771 -506C782 -507 781 -513 774 -519L739 -546C712 -536 663 -526 617 -521L625 -581L738 -593C749 -594 750 -599 741 -606L711 -632C692 -624 660 -617 628 -612C633 -636 637 -648 641 -653C648 -661 647 -667 641 -672L607 -699L796 -713L756 -624L769 -615C828 -692 853 -716 875 -726C889 -732 889 -736 878 -745L828 -786L800 -745L259 -708C259 -729 256 -751 252 -774H237C236 -694 212 -651 183 -620L203 -568C208 -554 212 -553 221 -568C239 -597 252 -633 257 -676L370 -684C387 -647 395 -618 397 -589L259 -577L308 -545C333 -550 349 -553 398 -559V-503L241 -491L293 -456C313 -460 359 -466 398 -470V-408L154 -387L202 -356C230 -361 291 -369 357 -374C307 -319 213 -240 46 -153L53 -138C118 -166 176 -194 229 -225L254 -205C286 -213 345 -222 447 -231C359 -152 237 -75 90 -4L97 12C177 -20 264 -62 354 -120C355 -111 355 -99 355 -79V-23C355 23 352 31 327 50L355 83C361 90 365 89 369 84C382 68 407 44 545 -54L538 -70L394 8V-59C394 -76 398 -101 402 -107C406 -114 405 -118 399 -123L384 -138C411 -157 439 -174 465 -194L730 64L900 52V39C769 20 714 -5 604 -101C652 -139 678 -154 692 -154C702 -154 705 -159 701 -167L675 -227L664 -225C660 -199 647 -178 584 -120L486 -209C497 -218 509 -227 521 -237L716 -256L818 -156ZM587 -606L436 -592C436 -624 436 -631 438 -634C443 -643 442 -648 435 -654L396 -685L585 -698C589 -678 591 -651 587 -606ZM585 -578L579 -518L436 -506V-562ZM577 -487L570 -423L436 -411V-474ZM684 -287L519 -270C527 -282 532 -295 537 -314L465 -382L578 -391ZM501 -269L256 -243C320 -284 374 -329 426 -380L448 -381Z"/>
</svg>