<svg xmlns="http://www.w3.org/2000/svg" viewBox="0 -1000 1000 1000">
	<path fill="#000000" d="M554 -662L477 -743L465 -734L515 -609C519 -600 525 -598 531 -607C545 -629 551 -644 554 -662ZM251 -645L164 -733L153 -724L216 -590C221 -582 227 -580 232 -589C240 -602 246 -619 251 -645ZM768 -725L729 -772L717 -767C720 -748 704 -702 646 -622L618 -639C625 -662 632 -693 636 -720C641 -753 650 -779 657 -786C663 -792 662 -796 657 -801L606 -851L592 -843C600 -820 601 -789 596 -717C589 -627 550 -559 460 -477L472 -463C546 -519 587 -565 610 -620L731 -495C738 -487 743 -488 745 -497C748 -513 750 -540 749 -557L667 -608C740 -694 755 -709 764 -713C771 -716 772 -720 768 -725ZM454 -701L416 -751L404 -745C406 -716 400 -692 348 -610L323 -631C328 -651 333 -674 336 -698C343 -753 346 -762 353 -772C357 -778 357 -782 353 -786L304 -840L291 -833C301 -808 303 -775 298 -705C289 -591 259 -535 171 -451L182 -440C263 -500 294 -535 316 -606L411 -476C417 -468 421 -468 425 -477C434 -497 437 -519 436 -537L367 -594C427 -674 432 -681 450 -689C457 -692 457 -697 454 -701ZM911 -15L910 -37C769 -26 733 -40 615 -143C715 -216 731 -225 740 -226C751 -227 753 -231 749 -238L720 -291L707 -289C704 -257 675 -224 596 -160L489 -256C513 -267 515 -272 493 -290L788 -322C801 -323 801 -328 790 -335L737 -365C717 -352 679 -342 506 -324C512 -338 515 -353 517 -371L448 -427L791 -457L750 -374L767 -365C826 -438 847 -454 874 -466C881 -469 881 -474 875 -481L829 -529L799 -488L159 -434C160 -449 159 -467 159 -484H139C130 -408 117 -386 87 -362L104 -305C106 -297 112 -296 118 -304C139 -333 149 -361 156 -404L424 -426L483 -322L146 -284L205 -247C246 -261 285 -268 437 -283C354 -189 224 -104 45 -31L52 -11C158 -50 251 -94 331 -145V-20C331 18 322 29 286 46L337 78C343 82 347 81 351 76C373 53 421 18 568 -68L560 -85L370 10V-173C407 -196 440 -220 468 -243L719 8Z"/>
</svg>