<svg xmlns="http://www.w3.org/2000/svg" viewBox="0 -1000 1000 1000">
	<path fill="#000000" d="M859 -747L821 -774C798 -761 750 -752 530 -733C535 -749 539 -769 541 -787L442 -854L429 -842L507 -731L120 -697L165 -662C193 -671 317 -685 852 -730C872 -732 872 -738 859 -747ZM773 -640C782 -644 783 -650 771 -662L739 -694L709 -660L259 -617L238 -656L225 -650C229 -631 232 -611 233 -585L235 -530C236 -505 234 -484 226 -473L252 -432C261 -418 266 -418 269 -432C270 -438 271 -452 271 -468L467 -486C471 -474 475 -452 475 -440V-368C475 -350 471 -338 464 -329L492 -290C499 -280 504 -281 506 -290C508 -298 509 -311 509 -334V-400C509 -423 510 -431 516 -440C522 -449 521 -454 514 -461L489 -487L753 -512C770 -513 771 -517 759 -528L739 -548L748 -599C752 -621 760 -634 773 -640ZM728 -458L700 -490L689 -486C679 -463 666 -452 547 -391L553 -375C650 -415 708 -435 724 -438C738 -441 739 -446 728 -458ZM428 -361C426 -378 422 -392 414 -411L289 -431L285 -418L416 -356C425 -352 429 -354 428 -361ZM815 -251C809 -268 799 -290 784 -315L537 -364L534 -345C638 -318 757 -271 803 -244C814 -237 818 -241 815 -251ZM456 -339L450 -354L149 -242L217 -208C234 -222 299 -265 456 -339ZM917 -6V-24C779 -24 742 -36 671 -96L611 -147C686 -200 701 -209 714 -211C725 -213 727 -217 722 -227L699 -278L685 -275C680 -245 667 -227 592 -164C556 -194 551 -204 549 -222H491L490 -208C506 -200 518 -190 559 -154L738 14ZM589 -70L579 -86L376 14V-157C400 -173 421 -188 447 -207C478 -229 496 -240 502 -242C513 -245 514 -249 507 -257L473 -296L461 -291C464 -258 301 -123 41 -9L48 6C139 -23 231 -63 337 -130V-32C337 24 330 34 291 54L343 81C350 85 355 83 360 78C378 58 391 48 589 -70ZM714 -629L703 -539L585 -528L588 -617ZM552 -614L549 -525L425 -513L423 -601ZM389 -510L270 -498L269 -586L386 -597Z"/>
</svg>