<svg xmlns="http://www.w3.org/2000/svg" viewBox="0 -1000 1000 1000">
	<path fill="#000000" d="M318 -743L214 -834L204 -827L285 -676C290 -667 297 -668 301 -677C306 -689 313 -716 318 -743ZM947 -201V-219C848 -228 814 -242 768 -290L693 -372L897 -388C909 -389 910 -394 899 -402L858 -432C829 -422 749 -410 594 -395C609 -418 616 -426 621 -429C631 -435 632 -439 627 -448L606 -487L815 -507C828 -508 829 -513 819 -523L801 -542L813 -610C816 -628 827 -643 842 -653C848 -657 847 -661 839 -668L797 -705L772 -671L692 -660L697 -745L859 -759C871 -760 872 -765 863 -773L821 -807C776 -786 726 -777 376 -752L422 -715C446 -721 500 -729 546 -733L548 -643L464 -632L437 -683L423 -676C429 -658 433 -633 434 -610L438 -514C439 -500 436 -485 428 -472L458 -429C465 -419 469 -421 472 -432C474 -438 475 -461 474 -475L579 -485C573 -454 562 -423 545 -391L350 -375L398 -339C426 -348 457 -353 527 -360C467 -261 415 -209 293 -127L301 -114C372 -153 431 -191 478 -240V-69C478 22 516 54 649 52C734 51 797 45 852 37C858 36 860 32 858 23C851 -4 840 -88 836 -144L820 -142L807 -5C788 4 712 16 635 17C527 18 514 -6 514 -92V-127L732 -152C744 -153 746 -156 736 -166L714 -187L722 -236C724 -247 731 -261 740 -266L802 -185ZM399 -438L375 -491L361 -488C357 -459 320 -409 272 -359L261 -364V-447C292 -488 311 -513 335 -550C347 -568 357 -575 367 -578C376 -581 376 -587 370 -595L332 -643L303 -605L63 -569L115 -536C157 -548 173 -551 295 -574C254 -493 183 -379 42 -261L52 -245C116 -291 172 -340 222 -397V-108C222 -26 219 -6 204 15L240 85C245 95 250 95 254 83C259 69 261 39 261 -94V-342L368 -244C378 -235 383 -237 384 -247C386 -260 385 -280 382 -307L294 -348C326 -374 349 -393 369 -410C377 -417 385 -420 393 -422C401 -424 403 -429 399 -438ZM659 -743L656 -656L582 -647L580 -736ZM780 -638L766 -537L686 -528L691 -627ZM655 -623L651 -525L586 -518L583 -614ZM551 -514L471 -505L468 -601L548 -611ZM702 -314L680 -288L509 -268L506 -271C533 -300 554 -330 573 -363L660 -370ZM688 -258L676 -180L514 -160V-237Z"/>
</svg>