<svg xmlns="http://www.w3.org/2000/svg" viewBox="0 -1000 1000 1000">
	<path fill="#000000" d="M310 -724L204 -830L190 -821L271 -666C277 -654 282 -654 288 -664C296 -677 303 -697 310 -724ZM947 -52V-70C853 -76 839 -84 789 -166L715 -284C780 -339 789 -345 797 -347C810 -350 812 -354 805 -366L774 -418L763 -414C756 -376 734 -340 665 -274C651 -314 622 -359 589 -388C597 -399 603 -409 609 -420L820 -443C831 -444 832 -451 823 -459L795 -482L810 -545C816 -571 822 -580 835 -587C844 -592 844 -597 836 -604L792 -639L767 -598L636 -581C697 -673 702 -680 723 -690C731 -694 731 -698 725 -704L688 -743L656 -705L516 -682C526 -697 538 -716 549 -735C568 -768 572 -774 581 -778C590 -782 591 -787 587 -794L548 -856L535 -850C530 -772 457 -620 356 -511L370 -498C395 -522 413 -541 431 -561C446 -491 444 -442 429 -415L459 -366C466 -356 471 -357 474 -368C476 -377 476 -391 476 -406L564 -416C532 -359 467 -296 378 -237L388 -222C474 -273 533 -319 572 -367C582 -357 590 -347 598 -332C507 -230 465 -195 365 -125L376 -109C463 -162 527 -208 616 -298C623 -283 629 -268 634 -253C538 -144 466 -87 339 -6L348 11C460 -48 546 -109 642 -206C653 -121 642 -24 610 28L511 -24L503 -11C557 36 598 77 610 93C616 102 621 103 628 95C682 33 701 -127 672 -247L695 -267L811 -37ZM381 -419L357 -475L345 -472C340 -441 319 -406 278 -355L260 -364V-431C283 -463 301 -490 325 -528C345 -559 358 -574 369 -580C374 -583 374 -588 370 -592L329 -633L301 -595L54 -555L104 -522C127 -531 181 -542 291 -559C238 -449 152 -335 42 -240L53 -226C122 -279 177 -328 223 -381V-112C223 -33 220 -9 204 19L241 89C247 100 251 100 255 87C259 73 260 53 260 -100V-340L355 -242C362 -235 367 -237 369 -248C372 -263 371 -280 369 -302L296 -344C350 -393 357 -398 376 -405C383 -407 384 -412 381 -419ZM651 -671L603 -577L466 -558L448 -583C464 -604 480 -626 494 -647ZM773 -567L759 -471L624 -454C636 -483 642 -513 646 -549ZM604 -544C600 -509 594 -481 581 -450L475 -438L472 -526Z"/>
</svg>