<svg xmlns="http://www.w3.org/2000/svg" viewBox="0 -1000 1000 1000">
	<path fill="#000000" d="M216 -525L108 -601L100 -589L195 -467C202 -458 207 -458 210 -469C216 -490 217 -505 216 -525ZM508 -235L494 -248L379 -142V-416C419 -378 447 -348 485 -297C492 -289 499 -288 500 -299C502 -318 501 -334 497 -372L381 -440C403 -463 422 -484 449 -517C477 -551 487 -560 492 -561C502 -563 504 -567 498 -578L466 -638L453 -634C453 -598 429 -540 379 -471V-639C379 -724 382 -751 396 -771C401 -779 400 -785 394 -791L339 -848L327 -839C337 -809 342 -772 342 -616V-168C342 -127 336 -112 316 -92L360 -71C367 -67 371 -67 376 -75C403 -116 431 -151 508 -235ZM290 -731C295 -741 294 -747 288 -752L227 -809L216 -802C235 -753 240 -722 243 -567C244 -510 243 -456 242 -425L69 -295L129 -277C147 -305 168 -329 241 -394C232 -202 184 -91 58 41L72 54C214 -85 261 -183 276 -361C279 -394 281 -460 281 -611C281 -702 284 -721 290 -731ZM942 23C928 -31 916 -93 907 -166H891L889 0C863 12 803 16 775 10C743 3 734 -7 734 -77V-207C734 -234 736 -256 741 -269C744 -278 743 -283 738 -289L711 -322L751 -327L776 -268C781 -255 790 -253 796 -270C803 -290 805 -306 809 -394L821 -663C823 -698 828 -716 843 -729C850 -735 850 -741 842 -749L802 -786L778 -749L573 -716L540 -799L527 -793C533 -774 539 -701 539 -650V-400C539 -346 535 -329 527 -314L553 -262C560 -250 566 -251 569 -260C572 -269 573 -282 573 -304L602 -308C608 -175 504 -13 347 83L355 99C504 20 582 -78 623 -192C640 -237 644 -245 653 -256C659 -264 658 -269 651 -278L625 -311L688 -319C692 -299 694 -271 694 -234V-68C694 17 704 37 770 48C809 55 901 46 931 38C942 35 944 30 942 23ZM785 -715L771 -426C769 -378 766 -356 760 -346L733 -367C709 -357 664 -348 573 -338V-429L737 -452C751 -454 753 -460 740 -469L704 -491C688 -483 647 -473 573 -462V-548L734 -572C751 -575 751 -580 738 -588L701 -610C682 -602 650 -593 573 -582V-679Z"/>
</svg>