<svg xmlns="http://www.w3.org/2000/svg" viewBox="0 -1000 1000 1000">
	<path fill="#000000" d="M468 -688L433 -742L417 -737C417 -711 388 -659 330 -598L343 -584C427 -656 446 -667 463 -670C472 -672 474 -677 468 -688ZM231 -644L147 -734L131 -723L201 -583C205 -576 211 -575 215 -584C221 -599 228 -625 231 -644ZM458 -441C458 -453 454 -469 443 -504L300 -579C311 -614 317 -645 321 -687C326 -727 333 -750 341 -756C349 -762 350 -768 340 -777L286 -829L272 -817C288 -785 289 -716 268 -620C253 -550 192 -470 99 -407L110 -389C211 -451 258 -493 290 -559L444 -433C453 -426 458 -428 458 -441ZM947 17C935 -24 920 -102 916 -161H895L889 -4C871 5 826 12 784 8C728 3 718 -7 718 -78V-223C718 -241 725 -260 734 -265C741 -269 741 -274 734 -282L699 -324L739 -329L767 -278C773 -268 777 -269 780 -278C789 -300 790 -311 794 -388L808 -681C809 -703 816 -717 840 -738C848 -745 848 -751 838 -758L787 -795L757 -754L555 -728L520 -793L507 -789C514 -751 518 -685 518 -620V-412C518 -376 512 -350 499 -328L539 -257C545 -246 549 -246 552 -260C554 -268 555 -285 556 -307L590 -311C568 -135 485 -5 315 78L325 97C465 40 564 -68 609 -195C615 -213 627 -235 638 -248C644 -255 645 -259 640 -267L612 -314L674 -322C678 -311 679 -296 679 -277V-74C679 17 701 42 777 45C844 48 900 45 940 34C948 32 950 29 947 17ZM464 -323L425 -377L408 -372C411 -344 393 -296 334 -220L350 -209C432 -293 444 -303 459 -306C470 -308 471 -313 464 -323ZM229 -257L147 -343L133 -334L197 -201C202 -190 209 -190 213 -201C223 -221 226 -233 229 -257ZM453 -55C455 -74 454 -94 450 -121L297 -222C306 -261 312 -295 317 -345C320 -373 328 -394 337 -403C343 -409 343 -413 336 -420L282 -474L266 -464C285 -439 276 -296 250 -219C227 -145 146 -38 61 21L73 39C172 -24 255 -112 289 -201L437 -51C448 -40 452 -41 453 -55ZM769 -717L757 -431C755 -386 750 -362 740 -348L709 -372C691 -363 640 -350 556 -341V-443L732 -463C746 -464 747 -468 736 -478L705 -508C685 -496 642 -485 556 -475V-570L734 -591C747 -593 748 -598 737 -606L704 -632C677 -621 642 -612 556 -602V-692Z"/>
</svg>