<svg xmlns="http://www.w3.org/2000/svg" viewBox="0 -1000 1000 1000">
	<path fill="#000000" d="M600 -537L514 -686L501 -679L559 -484C564 -468 572 -464 581 -482C591 -503 594 -512 600 -537ZM950 12C931 -43 919 -104 915 -163H898L894 -12C863 -1 831 3 792 0C738 -4 723 -16 723 -88V-282C723 -344 725 -356 737 -373C742 -381 742 -386 736 -391L706 -421L891 -443C905 -444 906 -449 895 -459L854 -491C831 -477 789 -466 735 -458C787 -581 807 -625 826 -640C835 -647 837 -651 830 -662L788 -731L773 -724C777 -668 764 -614 702 -453L676 -450V-693C676 -730 682 -763 692 -780C696 -788 696 -792 690 -797L626 -857L614 -849C632 -810 638 -777 638 -717V-446L476 -425L509 -390C526 -397 556 -404 589 -408C600 -238 564 -64 440 86L453 97C572 -19 617 -157 628 -298C630 -328 636 -340 645 -349C652 -356 653 -360 645 -369L611 -410L678 -418C682 -394 684 -362 684 -326V-77C684 -2 702 29 759 39C805 46 897 45 944 31C952 29 954 24 950 12ZM367 -640L314 -523L235 -511L209 -571C220 -589 232 -608 244 -628L263 -615C282 -622 301 -627 367 -640ZM228 -240C236 -303 240 -379 242 -477L308 -488V-381L242 -371L271 -341C278 -344 292 -348 308 -350V-251ZM227 -235L259 -209C275 -216 285 -219 308 -223V-148C308 -94 303 -65 287 -37L321 25C330 40 337 40 340 22C344 -2 346 -20 346 -72V-228L414 -238C432 -241 432 -245 419 -256L396 -275C385 -268 364 -262 346 -258V-356L411 -365C430 -368 430 -371 416 -382L391 -402C385 -398 364 -391 346 -386V-493L431 -507V-104C431 -40 429 -21 422 -9L367 -44L357 -31C386 -2 400 15 434 61C444 75 448 74 454 61C464 39 471 1 471 -71V-479C471 -492 476 -509 491 -520C500 -528 500 -531 491 -539L450 -574L427 -539L349 -528C390 -600 424 -643 439 -652C449 -658 449 -664 438 -673L396 -708L372 -674L258 -652C279 -687 290 -708 303 -736C315 -763 322 -771 329 -775C336 -779 337 -785 330 -795L288 -854L272 -849C285 -768 215 -619 69 -419L79 -407C107 -435 152 -488 194 -549C201 -513 201 -500 200 -403C197 -169 173 -80 77 72L90 82C169 -19 208 -93 227 -235Z"/>
</svg>