<svg xmlns="http://www.w3.org/2000/svg" viewBox="0 -1000 1000 1000">
	<path fill="#000000" d="M301 -738L198 -833L183 -826L260 -679C267 -665 273 -665 279 -676C288 -692 296 -716 301 -738ZM432 -657L395 -683C377 -669 320 -654 39 -622L96 -586C122 -598 171 -607 430 -640C444 -640 446 -646 432 -657ZM389 -524L348 -550C333 -537 289 -527 101 -504L155 -470C175 -478 221 -488 385 -510C398 -512 399 -517 389 -524ZM397 -405L355 -432C335 -420 279 -406 90 -384L138 -350C157 -358 229 -371 394 -392C405 -393 407 -398 397 -405ZM954 28L952 9C825 6 794 -6 676 -152C708 -195 751 -272 777 -333C790 -363 809 -388 826 -399C831 -403 831 -408 826 -413L782 -455L748 -417L660 -403V-590L797 -610L758 -515L775 -505C829 -592 851 -614 877 -632C883 -636 883 -640 876 -646L828 -688L798 -647L660 -627V-709C660 -740 667 -768 677 -783C680 -788 679 -794 674 -800L616 -863L601 -854C614 -818 620 -766 620 -718V-622L499 -603L468 -690L447 -684C457 -593 459 -503 447 -366C428 -157 401 -79 304 66L319 77C434 -68 467 -160 488 -362L513 -344C537 -351 605 -364 745 -382C723 -315 689 -240 651 -184C577 -278 565 -297 563 -317L502 -320V-310C526 -291 580 -225 629 -155C574 -83 487 -6 343 74L350 91C482 36 588 -45 653 -120L771 47ZM386 -290L343 -325L318 -291L178 -270L147 -331L132 -323C140 -298 147 -251 147 -197L148 -93C148 -64 143 -46 132 -33L166 36C172 49 179 48 181 35C185 12 186 -12 185 -59L356 -80C370 -81 372 -86 361 -96L344 -114L363 -232C366 -249 373 -263 384 -270C394 -276 395 -282 386 -290ZM620 -399L490 -380C497 -452 500 -513 498 -567L620 -585ZM323 -258L308 -111L184 -93L182 -235Z"/>
</svg>