<svg xmlns="http://www.w3.org/2000/svg" viewBox="0 -1000 1000 1000">
	<path fill="#000000" d="M331 -718L241 -838L225 -830L291 -653C295 -642 300 -641 308 -653C319 -670 327 -691 331 -718ZM448 -634L418 -664C386 -646 361 -639 45 -611L89 -569C120 -580 159 -587 444 -618C457 -619 458 -624 448 -634ZM402 -501L370 -527C347 -513 323 -507 107 -489L154 -451C196 -463 230 -468 399 -485C411 -486 413 -491 402 -501ZM931 27C916 -43 906 -104 896 -197H877L878 -6C858 7 833 12 777 7C733 3 711 -15 711 -56V-256C711 -278 713 -289 720 -300C726 -310 725 -314 717 -323L677 -367L887 -383C900 -384 901 -390 891 -399L853 -433C829 -421 790 -412 674 -401V-578L848 -599C861 -601 862 -605 853 -614L820 -647C790 -636 749 -627 674 -617V-714C674 -753 677 -764 687 -778C693 -786 692 -791 683 -800L624 -858L609 -846C625 -817 631 -779 631 -713V-612L529 -598C547 -664 555 -681 564 -692C572 -700 573 -706 567 -713L522 -766L505 -758C511 -654 508 -631 418 -428L433 -421C465 -465 492 -513 513 -559L631 -573V-399L401 -382L448 -341C469 -350 489 -354 540 -357C553 -205 490 -56 329 87L337 97C479 0 556 -128 580 -253C584 -271 590 -284 597 -291C605 -299 605 -304 598 -313L564 -359L653 -366C663 -343 668 -319 668 -275V-52C668 27 685 43 778 48C833 51 885 48 920 43C931 42 933 36 931 27ZM387 -388L354 -412C333 -397 323 -392 112 -374L142 -339C185 -350 216 -354 383 -371C399 -372 400 -379 387 -388ZM408 -273L369 -307L339 -270L189 -247L164 -300L149 -295C155 -268 159 -230 159 -191L160 -60C160 -34 156 -23 147 -11L179 46C185 57 191 56 194 46C199 29 201 8 199 -44L384 -66C400 -68 402 -73 390 -83L370 -101L382 -203C385 -226 393 -245 407 -255C415 -261 415 -267 408 -273ZM344 -235L333 -92L198 -76L194 -214Z"/>
</svg>