<svg xmlns="http://www.w3.org/2000/svg" viewBox="0 -1000 1000 1000">
	<path fill="#000000" d="M318 -255L308 -106L184 -89L180 -234ZM379 -279C385 -283 385 -289 379 -294L338 -328L313 -287L178 -267L149 -338L134 -333C141 -307 145 -264 146 -219L148 -115C149 -71 143 -50 133 -36L170 29C177 40 181 41 184 27C186 16 187 -13 185 -56L355 -75C368 -76 369 -81 360 -89L343 -104L356 -228C359 -253 366 -269 379 -279ZM402 -402L363 -427C333 -413 301 -403 94 -379L139 -346C173 -357 200 -362 400 -387C412 -388 414 -394 402 -402ZM377 -517L345 -538C318 -524 279 -515 90 -492L138 -460C165 -468 195 -473 376 -498C392 -501 393 -506 377 -517ZM500 -553C503 -593 505 -632 506 -663L847 -711C862 -713 862 -718 850 -727L808 -757C788 -741 721 -725 507 -698L477 -805L460 -802C465 -670 459 -523 450 -391C436 -178 397 -64 290 82L304 94C425 -48 466 -141 488 -372L541 -378V-41C541 26 537 37 509 58L560 82C567 85 571 84 576 77C591 52 609 29 701 -73L689 -88L578 8V-382L604 -386L775 17L956 9V-11C814 -22 798 -35 717 -210C821 -304 836 -314 852 -319C860 -322 861 -326 858 -334L832 -398L820 -395C816 -365 784 -312 707 -232L635 -389L894 -421C909 -423 911 -427 897 -437L858 -467C831 -450 775 -439 491 -405C493 -436 497 -493 500 -550L547 -519C575 -529 628 -538 809 -557C823 -558 823 -564 813 -571L774 -600C751 -585 722 -579 500 -553ZM438 -637L399 -664C372 -648 314 -635 42 -603L90 -570C133 -581 171 -588 434 -621C447 -622 449 -630 438 -637ZM314 -742L206 -842L193 -833L279 -678C284 -668 288 -667 295 -679C303 -695 309 -717 314 -742Z"/>
</svg>