<svg xmlns="http://www.w3.org/2000/svg" viewBox="0 -1000 1000 1000">
	<path fill="#000000" d="M279 -263L257 -108L169 -94L165 -241ZM338 -276C347 -282 347 -287 338 -294L297 -325L273 -293L161 -274L131 -329L118 -324C126 -291 130 -256 131 -214L134 -97C135 -65 132 -45 123 -33L153 17C162 32 169 32 170 15C171 2 172 -27 172 -63L313 -81C326 -83 327 -87 317 -96L294 -117L314 -235C317 -254 324 -267 338 -276ZM540 -574L581 -539C602 -545 644 -552 689 -558C686 -524 679 -499 639 -403C607 -328 599 -318 559 -305L592 -268C597 -262 603 -260 608 -263C638 -278 659 -286 739 -309C719 -273 678 -209 621 -126C575 -58 567 -51 521 -39L559 2C565 9 571 11 577 8C614 -8 667 -22 825 -57C836 -28 842 -9 851 27C854 40 862 39 870 27C883 7 889 -6 900 -37L777 -204L761 -192C781 -161 792 -138 815 -81L609 -48L776 -293C823 -362 829 -368 839 -373C847 -377 848 -382 844 -390L812 -457L798 -453C797 -427 788 -404 753 -338L623 -310L689 -427C725 -492 731 -500 740 -506C746 -510 747 -514 742 -521L713 -560L928 -582C940 -583 941 -587 931 -595L893 -625C819 -603 718 -587 540 -576L551 -650C555 -674 569 -697 582 -705C589 -709 589 -713 584 -718L540 -758L509 -717L323 -697L375 -663C401 -672 428 -676 516 -687L494 -517L421 -508L402 -568L387 -565C391 -538 391 -506 387 -481L369 -369C365 -345 362 -339 338 -320L381 -289C385 -286 389 -286 393 -292C402 -304 408 -308 432 -310L497 -318C474 -143 460 -79 435 -8L351 -76L338 -63C385 -8 407 29 427 70C432 80 438 80 443 72C471 35 482 6 522 -236C535 -306 544 -324 560 -332C570 -337 568 -343 563 -347L520 -385L496 -351L402 -339L424 -476L552 -488C564 -489 564 -494 555 -501L532 -521ZM341 -413L309 -435C289 -424 252 -414 104 -397L144 -364C160 -372 190 -378 335 -396C352 -398 354 -404 341 -413ZM342 -536L307 -559C287 -544 227 -530 102 -512L143 -477C183 -491 204 -495 339 -518C354 -521 355 -528 342 -536ZM358 -644L318 -672C287 -653 240 -640 41 -619L87 -583C116 -592 157 -600 354 -629C369 -632 369 -636 358 -644ZM771 -695L659 -832L647 -823L730 -633C735 -622 739 -621 745 -631C753 -645 761 -665 771 -695ZM276 -731L187 -832L175 -824L234 -675C239 -662 248 -662 255 -673C261 -683 270 -707 276 -731Z"/>
</svg>