<svg xmlns="http://www.w3.org/2000/svg" viewBox="0 -1000 1000 1000">
	<path fill="#000000" d="M291 -718L195 -822L182 -815L257 -654C263 -642 269 -642 274 -653C283 -672 288 -692 291 -718ZM396 -626L354 -655C321 -636 263 -623 46 -598L92 -562C122 -571 165 -578 392 -611C406 -613 406 -619 396 -626ZM346 -508L312 -533C291 -520 237 -507 112 -487L152 -453C195 -469 230 -476 342 -493C356 -495 357 -500 346 -508ZM639 -447L598 -477C582 -466 553 -455 500 -446V-608L621 -626C628 -627 628 -631 621 -637L582 -667C569 -656 554 -650 500 -641C500 -735 502 -751 515 -771C520 -779 518 -784 512 -789L449 -850L437 -839C456 -803 463 -764 463 -667V-441L326 -419L379 -383C392 -392 433 -404 465 -409C468 -393 469 -373 469 -315V-170C469 -76 466 -54 460 -40L380 -108L365 -96C413 -40 443 1 466 41C472 51 481 50 485 40C499 3 507 -53 507 -120V-305C507 -338 510 -356 517 -368C521 -376 520 -381 515 -387L492 -413L636 -433C650 -435 650 -439 639 -447ZM330 -399L298 -420C279 -409 258 -402 112 -377L153 -344C180 -355 218 -364 326 -383C342 -386 343 -391 330 -399ZM936 46V28C827 14 801 -11 740 -244C766 -322 803 -454 820 -568C826 -606 831 -614 852 -630C860 -636 861 -640 851 -649L802 -688L771 -643L598 -619L645 -584C677 -593 694 -597 780 -611C770 -516 750 -411 722 -313L686 -455C673 -501 669 -521 674 -539L622 -559L614 -547C628 -530 636 -511 647 -467L704 -251C659 -121 576 -7 472 69L481 87C576 28 666 -75 719 -192L786 54ZM640 -230L544 -334L532 -326L612 -172C617 -163 622 -165 627 -175C633 -187 637 -202 640 -230ZM443 -288L402 -342L391 -337C395 -280 388 -250 307 -104L319 -93C359 -141 387 -180 413 -230C429 -260 436 -270 440 -272C447 -276 449 -281 443 -288ZM336 -265C344 -270 344 -275 336 -282L293 -317L265 -279L179 -264L147 -322L134 -317C142 -284 146 -248 147 -207L152 -78C153 -45 150 -26 141 -14L172 36C183 52 188 51 189 34C190 22 190 -7 189 -47L318 -66C330 -68 331 -73 322 -81L299 -101L312 -225C314 -241 322 -256 336 -265ZM274 -246L264 -93L188 -79L181 -231Z"/>
</svg>