<svg xmlns="http://www.w3.org/2000/svg" viewBox="0 -1000 1000 1000">
	<path fill="#000000" d="M311 -731L229 -829L216 -820L275 -667C279 -655 283 -655 289 -666C298 -683 306 -706 311 -731ZM965 -471V-489C836 -501 804 -526 639 -765C650 -789 655 -796 661 -801C669 -807 668 -814 664 -819L620 -874L607 -871C605 -759 506 -574 375 -428L387 -417C487 -505 554 -597 622 -736L814 -454ZM435 -631L390 -660C367 -643 308 -629 42 -600L90 -564C129 -577 192 -589 434 -617C444 -618 446 -624 435 -631ZM666 -541L598 -618L585 -609L632 -482C636 -472 640 -471 648 -483C658 -499 664 -519 666 -541ZM368 -504L332 -530C315 -516 220 -495 123 -487L161 -452C193 -464 233 -471 365 -488C380 -490 381 -495 368 -504ZM371 -396L336 -422C309 -408 260 -395 129 -378L173 -344C212 -359 260 -368 368 -379C382 -380 383 -387 371 -396ZM770 -451L739 -496L710 -462L459 -428L503 -392C538 -402 575 -410 710 -429L680 -358C674 -344 660 -327 650 -321L662 -269C665 -256 669 -256 676 -267C679 -271 684 -280 696 -307L746 -413C750 -421 757 -428 768 -434C775 -438 776 -443 770 -451ZM678 -214L586 -312L574 -301L654 -148C660 -139 664 -140 668 -150C674 -165 677 -189 678 -214ZM905 -169L744 -271L737 -258L885 -103C892 -95 896 -96 899 -105C905 -123 906 -146 905 -169ZM381 -271L341 -310L312 -270L191 -251L163 -326L149 -321C155 -293 161 -240 161 -220L164 -79C165 -51 160 -32 152 -15L185 64C189 73 196 74 198 64C203 44 204 27 202 -31L357 -53C371 -54 372 -58 362 -68L344 -86L358 -217C360 -237 367 -248 380 -256C388 -261 388 -265 381 -271ZM471 -245H451C446 -162 427 -104 394 -68L404 -3C406 7 412 10 418 1C466 -67 479 -127 471 -245ZM829 53C809 -8 790 -80 775 -152L759 -149L769 15C640 -12 574 -66 534 -269L514 -268C535 -43 654 61 820 67C829 67 833 64 829 53ZM319 -239L310 -86L201 -65L195 -220Z"/>
</svg>