<svg xmlns="http://www.w3.org/2000/svg" viewBox="0 -1000 1000 1000">
	<path fill="#000000" d="M322 -281L309 -131L203 -115L197 -262ZM382 -299C393 -308 392 -315 382 -322L343 -349L319 -316L192 -293L170 -357L150 -350C156 -324 159 -293 161 -242L166 -126C169 -76 164 -58 150 -35L188 29C196 42 205 39 206 26C207 15 207 0 204 -80L360 -102C377 -104 379 -110 363 -123L347 -136L359 -262C360 -273 368 -288 382 -299ZM615 -285L517 -272L514 -360L546 -337C556 -340 586 -348 615 -354ZM776 -470L754 -304L655 -290V-359L740 -369C758 -371 759 -377 744 -387L711 -408C703 -402 684 -396 655 -390V-452ZM615 -384L514 -368L512 -433L615 -447ZM380 -430L344 -453C323 -440 269 -428 127 -411L179 -378C193 -384 273 -400 375 -411C394 -413 395 -421 380 -430ZM372 -543L342 -567C321 -554 262 -540 127 -527L171 -492C186 -499 230 -508 367 -524C385 -526 386 -532 372 -543ZM427 -660L388 -691C321 -667 278 -660 39 -633L91 -595C121 -606 287 -636 417 -650L424 -596C426 -582 432 -581 441 -592C468 -625 479 -649 484 -692L609 -704L600 -700C609 -678 614 -641 615 -596L436 -576L476 -541C492 -546 534 -553 615 -563V-483L506 -468L479 -528L464 -522C469 -500 475 -452 475 -432L478 -302C479 -269 476 -260 467 -246L497 -197C506 -182 516 -184 517 -198C518 -207 519 -222 518 -239L615 -251V-174L363 -149L410 -110C428 -118 498 -129 615 -140V-85C615 -14 608 11 593 27L630 103C636 116 642 116 648 103C654 90 655 70 655 -17V-144L929 -170C950 -172 949 -179 932 -191L890 -220C856 -206 805 -194 655 -178V-255L806 -273C818 -274 819 -280 810 -289L792 -307L813 -437C816 -457 823 -473 836 -484C847 -493 847 -499 838 -506L800 -535L775 -504L655 -488V-566L841 -586C859 -587 860 -592 845 -604L811 -630C786 -618 771 -613 655 -599C655 -619 657 -628 662 -637C667 -645 665 -651 660 -657L617 -705L827 -726L796 -650L811 -642C858 -711 882 -734 899 -743C912 -750 912 -757 900 -766L858 -799L824 -759L486 -726C486 -749 484 -763 481 -787H462C463 -717 450 -680 427 -660ZM324 -753L231 -850L217 -841L284 -696C290 -684 299 -683 305 -697C313 -716 316 -727 324 -753Z"/>
</svg>