<svg xmlns="http://www.w3.org/2000/svg" viewBox="0 -1000 1000 1000">
	<path fill="#000000" d="M327 -740L244 -837L231 -829L286 -677C290 -665 297 -665 303 -676C313 -694 318 -708 327 -740ZM870 -765L837 -802L802 -769L702 -754L676 -805L662 -800C669 -779 674 -747 675 -726L679 -630C680 -613 674 -597 666 -587L698 -530C704 -520 709 -522 711 -534C713 -544 713 -562 713 -578L849 -590C864 -591 864 -596 853 -607L836 -624L845 -709C847 -726 855 -740 869 -748C876 -753 876 -758 870 -765ZM635 -735C641 -739 641 -744 635 -751L602 -787L572 -754L480 -740L455 -800L441 -796C446 -774 450 -741 451 -710L454 -615C455 -593 450 -571 442 -561L474 -505C480 -495 484 -496 487 -510C489 -519 490 -538 490 -557L610 -576C627 -579 627 -584 615 -593L604 -601L611 -690C613 -714 618 -724 635 -735ZM419 -623L382 -655C355 -635 289 -620 63 -602L109 -567C138 -577 167 -583 415 -608C428 -609 429 -614 419 -623ZM367 -503L335 -528C309 -515 271 -504 132 -489L181 -457C206 -466 238 -472 363 -488C378 -489 379 -495 367 -503ZM832 -475L791 -504C765 -490 644 -467 436 -451L485 -414C513 -425 563 -434 828 -462C842 -463 843 -467 832 -475ZM376 -388L345 -414C319 -400 275 -390 136 -375L189 -343C211 -351 233 -356 371 -373C386 -374 387 -379 376 -388ZM953 -368L903 -403C863 -381 760 -363 383 -335L432 -297C453 -305 478 -309 550 -316L532 -254C523 -224 515 -214 490 -197L532 -173C539 -169 541 -169 548 -176C563 -190 568 -191 594 -195L771 -219C746 -95 705 7 685 32L584 -66L571 -56C618 10 651 60 675 101C678 106 684 106 688 101C724 63 749 13 808 -184C814 -204 829 -221 844 -229C851 -233 851 -237 844 -245L802 -290L767 -250L563 -224L592 -320L950 -356C960 -357 960 -362 953 -368ZM391 -251C397 -255 397 -260 391 -266L353 -303L323 -267L198 -247L173 -306L157 -299C162 -277 169 -230 170 -210L175 -90C176 -62 170 -37 162 -23L199 45C205 55 211 54 212 41C213 27 213 7 212 -35L369 -59C386 -62 386 -67 373 -77L355 -92L367 -198C371 -233 376 -241 391 -251ZM811 -739L802 -619L713 -605L708 -726ZM578 -725L571 -600L489 -586L485 -713ZM331 -233L321 -85L210 -67L205 -216Z"/>
</svg>