<svg xmlns="http://www.w3.org/2000/svg" viewBox="0 -1000 1000 1000">
	<path fill="#000000" d="M385 -578L335 -641L323 -636C327 -619 328 -590 322 -548L232 -539C245 -602 257 -664 268 -724C272 -748 282 -773 296 -789C302 -795 302 -800 297 -804L236 -870L219 -860C230 -835 231 -800 226 -749C219 -682 209 -617 192 -536L38 -521L92 -477C104 -484 132 -490 184 -499C169 -423 147 -351 128 -300C162 -280 207 -250 239 -223C197 -120 125 -25 34 51L46 68C142 0 217 -86 270 -199C305 -170 325 -151 363 -104C372 -93 377 -94 378 -106C381 -123 379 -149 373 -177L286 -235C314 -306 339 -391 358 -497C364 -530 373 -554 383 -564C389 -570 389 -572 385 -578ZM964 -413L962 -426C870 -416 804 -428 650 -486V-568L821 -586C831 -587 832 -590 822 -599L788 -629C770 -618 731 -608 650 -598V-724L810 -741L767 -665L780 -656C842 -721 872 -743 891 -750C898 -753 898 -758 891 -765L845 -809L813 -775L384 -737L437 -696C456 -703 494 -710 612 -721V-499L505 -540C524 -583 533 -598 543 -605C550 -611 550 -614 545 -619L496 -676L485 -671C500 -629 471 -510 350 -343L364 -333C392 -360 459 -445 494 -516L735 -411L726 -398L497 -373L471 -445L455 -440C462 -403 462 -386 462 -282V-85C462 -48 453 -15 442 5L482 73C489 84 493 83 496 72C500 53 501 10 501 -128L697 -146C708 -147 708 -150 698 -160L668 -191C645 -177 606 -170 501 -158V-240L687 -260C697 -261 698 -264 688 -273L656 -301C636 -289 600 -280 501 -270V-343L733 -369V-54C733 -22 726 11 720 26L612 -33L603 -20C650 16 704 64 738 99C746 107 749 107 755 100C768 85 774 52 774 -36V-326C774 -353 779 -374 789 -387L838 -367ZM317 -520C293 -381 284 -343 252 -257L175 -309C190 -358 205 -418 225 -504Z"/>
</svg>