<svg xmlns="http://www.w3.org/2000/svg" viewBox="0 -1000 1000 1000">
	<path fill="#000000" d="M305 -723L218 -835L205 -826L259 -671C264 -659 268 -658 277 -668C292 -685 300 -700 305 -723ZM423 -630L390 -657C346 -636 220 -605 48 -586L96 -550C140 -564 299 -598 420 -614C434 -616 435 -620 423 -630ZM363 -495C377 -498 375 -504 362 -512L329 -531C302 -518 215 -494 99 -478L142 -447C170 -457 270 -479 363 -495ZM373 -395L343 -418C309 -403 222 -379 120 -367L163 -335C193 -346 263 -362 371 -380C385 -381 385 -387 373 -395ZM851 -755L812 -802L783 -769L483 -733L454 -825L436 -820C446 -738 442 -532 437 -465C418 -223 411 -94 260 81L274 95C418 -44 469 -203 474 -458C474 -469 478 -522 481 -577L825 -616C835 -617 836 -622 828 -629L807 -648L819 -696C825 -720 837 -735 850 -741C857 -744 856 -749 851 -755ZM920 -312L872 -345C851 -331 824 -323 724 -313C763 -392 776 -409 784 -412C790 -415 791 -420 786 -427L757 -468L858 -480C873 -482 875 -489 860 -497L816 -521C794 -510 747 -500 700 -493C704 -503 707 -517 709 -530L625 -589L616 -576L671 -490L486 -466L533 -432C555 -440 617 -452 739 -467C735 -417 726 -380 696 -310L636 -302C642 -316 647 -331 650 -347L587 -425L573 -416L612 -301L469 -285L509 -254C547 -262 590 -268 660 -274V-178L462 -160L507 -125C543 -133 609 -141 660 -145V-84C660 -2 657 10 642 31L680 101C687 113 696 112 697 100C699 82 700 32 700 -63V-149L885 -165C895 -166 896 -172 887 -178L846 -209C814 -195 775 -189 700 -181V-278L918 -298C930 -299 930 -305 920 -312ZM369 -258C378 -265 377 -270 367 -278L323 -312L307 -280L181 -248L151 -310L137 -303C144 -277 150 -235 152 -191L158 -109C160 -77 155 -57 144 -44L185 25C192 37 196 37 199 23C201 14 201 -11 198 -53L349 -81C361 -83 361 -88 352 -97L334 -115L349 -222C351 -239 355 -247 369 -258ZM783 -732L766 -646L482 -610C484 -646 487 -679 488 -698ZM308 -240L298 -110L197 -85L189 -217Z"/>
</svg>