<svg xmlns="http://www.w3.org/2000/svg" viewBox="0 -1000 1000 1000">
	<path fill="#000000" d="M387 -140C383 -172 380 -185 370 -215L302 -247C327 -316 348 -399 362 -479C371 -530 376 -545 386 -555C392 -561 392 -566 387 -571L343 -618L332 -615C335 -597 335 -585 331 -558L235 -546C247 -605 258 -665 268 -723C272 -744 282 -770 292 -784C295 -788 295 -792 291 -796L227 -857L212 -849C232 -794 232 -767 195 -542L23 -523L77 -486C94 -491 121 -496 190 -508C177 -434 163 -369 143 -294C194 -269 222 -253 255 -230C218 -138 160 -55 44 58L54 70C164 -13 239 -99 287 -210C320 -187 350 -162 375 -137C383 -128 388 -130 387 -140ZM949 -18V-34C814 -53 785 -76 650 -261L882 -282C895 -283 894 -289 885 -295L836 -330C803 -314 716 -299 621 -291C622 -318 626 -332 633 -342C638 -349 638 -355 633 -360L610 -385L761 -401C772 -402 773 -409 764 -417L737 -440L755 -646L904 -665C916 -667 917 -671 907 -678L866 -709C846 -698 799 -686 757 -680L762 -734C765 -768 772 -785 779 -790C788 -796 789 -801 778 -810L721 -861L710 -856C718 -835 724 -765 721 -729L717 -676L530 -653L531 -718C532 -759 536 -775 543 -784C547 -787 548 -791 541 -797L488 -846L476 -838C487 -805 491 -773 492 -733L494 -649L371 -636L419 -600C441 -607 462 -611 495 -615L498 -455C499 -419 494 -393 482 -377L512 -328C518 -320 522 -320 526 -330C531 -341 533 -352 535 -377L578 -382C582 -360 583 -352 583 -288L361 -270L406 -230C444 -239 488 -245 564 -254C508 -162 377 -48 237 29L245 45C381 -18 511 -110 583 -207V-81C583 -33 576 9 562 31L597 94C601 101 605 102 611 94C619 81 621 55 621 -30L620 -260L786 -9ZM715 -642L699 -430L534 -413L532 -499L666 -520C675 -521 676 -526 667 -533L635 -558C621 -549 607 -545 532 -532L531 -619ZM328 -530C318 -448 295 -339 268 -264L184 -305C198 -364 213 -437 230 -514Z"/>
</svg>