<svg xmlns="http://www.w3.org/2000/svg" viewBox="0 -1000 1000 1000">
	<path fill="#000000" d="M306 -728L208 -832L196 -824L268 -660C273 -648 280 -648 285 -658C293 -676 301 -703 306 -728ZM816 -789L768 -836L761 -835C746 -803 652 -767 396 -698L400 -682C414 -683 430 -685 451 -690L495 -545C498 -536 503 -536 509 -543C517 -553 526 -574 533 -597L467 -694C495 -700 526 -709 566 -720L620 -581C623 -573 630 -572 634 -579C640 -589 650 -613 655 -638L582 -722C634 -735 695 -750 766 -770C779 -774 803 -778 811 -777C821 -776 823 -783 816 -789ZM812 -704L778 -761L766 -756C762 -721 737 -664 664 -555L680 -546C770 -663 795 -685 808 -689C815 -692 817 -696 812 -704ZM426 -633L384 -663C353 -643 251 -621 19 -596L64 -561C106 -574 194 -588 421 -618C437 -619 437 -625 426 -633ZM366 -516L330 -540C308 -527 230 -508 103 -495L144 -462C186 -475 256 -489 362 -500C378 -501 380 -507 366 -516ZM358 -405L326 -427C306 -415 251 -401 116 -387L156 -353C175 -362 201 -368 352 -389C368 -392 368 -397 358 -405ZM921 50V34C787 22 755 6 671 -114L637 -163L850 -188C860 -189 861 -195 852 -202L814 -232C787 -219 716 -202 610 -191C617 -217 622 -228 626 -231C631 -235 631 -240 628 -244L603 -284L755 -311L799 -260C805 -253 811 -252 812 -261C815 -278 816 -306 814 -325L689 -410L681 -399L736 -333L520 -299L674 -431C708 -460 732 -475 741 -478C748 -480 750 -484 747 -492L725 -558L713 -557C703 -521 686 -498 637 -444L499 -429L555 -485C579 -508 593 -518 604 -522C609 -524 610 -528 608 -533L582 -591L570 -589C565 -558 550 -528 489 -458C469 -437 438 -422 408 -418L438 -387C445 -380 450 -380 458 -385C465 -390 528 -404 612 -418C584 -390 559 -368 521 -338C477 -303 467 -297 410 -289L445 -249C448 -245 453 -244 460 -248C472 -254 529 -270 572 -279C576 -249 573 -211 567 -187L362 -167L419 -129C446 -137 493 -146 557 -155C523 -67 451 12 297 85L305 101C478 33 565 -50 601 -159L606 -160L743 63ZM363 -273C370 -278 370 -283 363 -290L327 -326L297 -291L178 -272L148 -326L135 -321C143 -288 147 -253 148 -211L150 -64C151 -31 148 -12 139 0L170 50C181 67 185 67 186 48C187 36 187 -10 186 -53L341 -73C352 -74 353 -80 345 -87L326 -106L340 -229C342 -247 349 -263 363 -273ZM305 -262L292 -103L185 -85L181 -241Z"/>
</svg>