<svg xmlns="http://www.w3.org/2000/svg" viewBox="0 -1000 1000 1000">
	<path fill="#000000" d="M329 -754L234 -846L221 -837L299 -691C305 -679 310 -680 315 -691C322 -707 327 -732 329 -754ZM419 -646L384 -671C358 -654 291 -641 50 -612L102 -576C128 -588 182 -600 416 -631C430 -633 431 -637 419 -646ZM375 -530L338 -557C321 -543 280 -530 128 -512L177 -480C192 -487 238 -496 369 -516C384 -518 384 -523 375 -530ZM379 -418L343 -442C320 -429 268 -415 134 -400L183 -369C202 -378 239 -385 376 -405C389 -406 389 -411 379 -418ZM893 -352C899 -358 898 -363 892 -368L848 -404L823 -366L748 -355C777 -395 804 -468 840 -641C845 -669 852 -683 872 -697C880 -703 881 -707 872 -715L825 -757L804 -727L532 -688C572 -764 582 -780 597 -792C603 -797 604 -802 600 -808L555 -867L542 -861C557 -795 487 -657 395 -531L409 -521C433 -547 456 -575 477 -603C481 -592 484 -576 484 -557V-520C484 -510 478 -499 463 -487L496 -467C504 -462 508 -464 512 -471C517 -482 524 -488 559 -493C532 -442 472 -388 400 -341L408 -329C455 -354 493 -379 522 -405C508 -346 463 -263 376 -171L387 -162C409 -180 446 -216 477 -252C487 -236 493 -217 493 -205V-173C493 -155 487 -138 468 -126L503 -105C509 -102 513 -103 518 -110C529 -126 543 -132 582 -137C546 -56 490 -3 378 69L387 82C516 10 584 -41 622 -142L701 -153L714 -109C718 -97 724 -96 729 -107C735 -120 740 -137 746 -164L753 -196C756 -210 759 -217 766 -223C772 -228 773 -233 767 -240L731 -281L720 -275C725 -244 722 -209 713 -181L632 -171C644 -227 652 -251 662 -265C666 -271 666 -276 660 -284L639 -310L829 -333C811 -182 765 -34 737 10L643 -68L632 -57C665 -18 690 16 733 80C739 88 742 88 748 80C782 32 823 -85 863 -286C871 -323 876 -335 893 -352ZM387 -292C396 -297 397 -303 387 -310L344 -341L319 -306L203 -286L163 -344L150 -339C156 -314 159 -283 161 -207L164 -110C165 -89 160 -67 151 -56L194 16C200 26 206 26 210 14C218 -9 219 -29 216 -76L363 -98C382 -101 383 -105 370 -115L349 -133L363 -256C365 -273 370 -282 387 -292ZM581 -665C588 -630 588 -574 571 -526L516 -518V-561C516 -570 518 -581 521 -586C526 -592 526 -596 518 -601L490 -622C498 -633 505 -643 512 -654ZM807 -695C795 -596 766 -467 732 -412L635 -465L625 -453C664 -421 699 -385 725 -352L531 -327C549 -355 557 -365 564 -369C573 -374 573 -378 568 -385L542 -423C567 -446 584 -471 597 -499L675 -512L688 -482C692 -473 697 -473 703 -481C708 -489 711 -500 714 -521L721 -563C723 -572 727 -581 735 -589C742 -595 743 -600 736 -606L698 -641L686 -635C693 -613 693 -566 680 -540L608 -530C613 -542 616 -555 619 -569C624 -590 630 -605 635 -613C639 -619 640 -622 635 -628L601 -668ZM612 -307C614 -258 611 -218 593 -167L526 -159V-199C526 -209 529 -220 533 -227C538 -234 535 -238 530 -242L493 -271C500 -279 505 -286 509 -294ZM324 -273L312 -124L212 -108L195 -252Z"/>
</svg>