<svg xmlns="http://www.w3.org/2000/svg" viewBox="0 -1000 1000 1000">
	<path fill="#000000" d="M297 -729L208 -819L194 -809L258 -670C262 -662 269 -660 275 -669C286 -687 292 -704 297 -729ZM376 -628L334 -657C302 -637 244 -624 58 -604L104 -569C134 -578 167 -585 372 -613C387 -614 387 -620 376 -628ZM346 -506L312 -533C291 -520 242 -507 121 -495L157 -462C193 -473 242 -482 342 -491C357 -492 358 -496 346 -506ZM353 -392L321 -415C302 -403 258 -393 132 -379L167 -346C183 -354 230 -362 347 -376C363 -377 363 -384 353 -392ZM601 -748L558 -781L535 -743L421 -727L396 -787L380 -783C386 -763 389 -727 389 -677V-76C389 -32 380 2 365 23L403 95C409 104 415 106 418 93C422 77 423 53 423 -25V-480L590 -499C602 -500 604 -507 594 -515L572 -532L578 -653C581 -701 588 -725 600 -732C608 -737 608 -742 601 -748ZM881 -739C889 -745 889 -749 881 -756L839 -792L810 -754L685 -740L657 -794L643 -789C648 -774 651 -746 652 -707L654 -576C655 -544 652 -533 643 -521L671 -465C676 -453 683 -454 687 -465C689 -473 690 -482 691 -500L818 -515V-68C818 -16 815 11 810 25L744 -20L732 -4C772 41 801 76 822 108C827 116 836 116 840 108C852 84 857 52 857 -49V-677C857 -700 867 -729 881 -739ZM737 -405C745 -410 745 -414 735 -422L696 -453L674 -421L562 -406L537 -460L520 -454C529 -418 529 -321 525 -231C520 -142 491 -64 437 6L451 20C505 -38 541 -104 554 -178L664 -191C674 -192 675 -199 667 -206L640 -228C629 -221 604 -214 557 -209C558 -224 559 -248 560 -275L664 -287C674 -288 675 -294 667 -301L640 -324C629 -315 610 -310 561 -304C561 -326 562 -354 562 -375L683 -389V-131C683 -92 681 -72 675 -61L612 -100L602 -85C635 -54 662 -22 685 8C690 16 697 16 701 8C710 -11 716 -42 716 -101V-346C716 -381 721 -394 737 -405ZM349 -256C357 -262 357 -268 349 -274L308 -308L287 -271L176 -255L147 -308L134 -302C142 -270 146 -234 147 -192V-79C147 -38 145 -27 136 -15L166 35C175 51 183 50 184 33C185 21 185 -4 184 -42L330 -59C341 -60 342 -67 334 -74L313 -92L327 -213C329 -230 339 -249 349 -256ZM818 -548L691 -533L689 -605L802 -618C815 -619 816 -625 806 -632L776 -654C766 -647 743 -641 689 -637L687 -706L818 -722ZM543 -708L537 -527L423 -513V-590L520 -602C535 -603 536 -607 524 -617L495 -639C485 -632 465 -627 423 -622V-694ZM293 -237L281 -88L184 -74L181 -222Z"/>
</svg>