<svg xmlns="http://www.w3.org/2000/svg" viewBox="0 -1000 1000 1000">
	<path fill="#000000" d="M312 -727L222 -829L209 -819L274 -656C279 -643 285 -643 290 -655C300 -676 309 -703 312 -727ZM761 -783L718 -822L695 -784L546 -763L521 -816L504 -808C510 -791 516 -760 516 -734L517 -662C517 -639 513 -621 504 -608L540 -552C545 -544 550 -546 553 -554C556 -566 557 -575 556 -596L744 -618C755 -619 755 -623 748 -629L724 -651L737 -727C741 -748 747 -757 759 -765C766 -770 767 -777 761 -783ZM435 -633L397 -664C365 -645 274 -626 54 -604L110 -563C174 -582 206 -586 431 -619C443 -621 444 -625 435 -633ZM373 -506L338 -533C314 -519 249 -504 122 -493L173 -457C213 -469 246 -473 369 -491C383 -493 383 -498 373 -506ZM853 -524C860 -528 860 -532 853 -538L813 -579L787 -540L685 -522L660 -569L643 -563C651 -538 656 -504 657 -483L659 -417C659 -401 654 -386 648 -375L674 -327C678 -319 686 -319 690 -329C693 -339 694 -345 694 -363L846 -380C854 -381 856 -385 849 -392L822 -417L829 -475C833 -501 838 -515 853 -524ZM615 -522L573 -553L549 -518L451 -499L428 -545L412 -540C416 -518 419 -490 421 -457L424 -401C425 -374 421 -363 411 -346L437 -299C446 -283 451 -285 455 -297C457 -306 458 -325 460 -345L601 -364C610 -365 611 -372 604 -378L584 -399L595 -468C598 -484 601 -492 613 -504C621 -512 621 -518 615 -522ZM373 -397L336 -424C307 -410 261 -397 129 -383L177 -346C206 -358 262 -368 367 -381C385 -383 387 -388 373 -397ZM385 -268C392 -273 393 -279 385 -286L344 -319L321 -283L189 -261L159 -315L145 -308C153 -281 161 -235 162 -181L165 -105C166 -75 161 -57 150 -43L186 25C192 36 196 35 200 23C203 11 204 -6 203 -44L378 -69C391 -71 392 -75 382 -84L350 -112L364 -232C366 -249 373 -260 385 -268ZM952 -32C848 -41 815 -47 729 -158L667 -236L899 -260C909 -261 911 -265 905 -271L858 -315C838 -300 764 -279 641 -265C641 -281 647 -298 655 -306C661 -312 658 -318 653 -322L609 -362L591 -357C602 -329 603 -314 603 -262L380 -236L422 -197C440 -205 502 -218 556 -224C500 -124 414 -37 305 31L316 50C428 -13 530 -106 603 -220V-79C603 -20 596 14 581 34L615 100C622 114 627 113 632 100C639 81 641 65 641 -9V-226L798 1L950 -16ZM699 -748L686 -646L555 -631L553 -729ZM795 -508L785 -405L694 -394L691 -490ZM558 -485L550 -391L458 -378L457 -468ZM324 -246L311 -95L202 -79L196 -226Z"/>
</svg>