<svg xmlns="http://www.w3.org/2000/svg" viewBox="0 -1000 1000 1000">
	<path fill="#000000" d="M331 -742L239 -827L227 -817L296 -682C304 -666 311 -668 317 -682C324 -699 328 -715 331 -742ZM568 -711L489 -786L476 -777L541 -652C546 -643 554 -643 560 -656C565 -667 568 -689 568 -711ZM916 -655L877 -697L846 -667L721 -654C755 -702 776 -729 793 -738C802 -744 803 -750 800 -758L773 -813L760 -809C760 -776 741 -730 691 -652L654 -648V-730C654 -751 657 -764 664 -777C669 -785 668 -794 663 -799L618 -849L606 -840C613 -825 618 -788 618 -741V-646L459 -631C459 -651 458 -673 456 -688H438C436 -612 418 -576 394 -548L414 -507C419 -496 427 -496 434 -507C447 -530 453 -553 457 -601L842 -636L805 -552L819 -543C861 -602 890 -623 911 -634C923 -640 924 -646 916 -655ZM410 -632L377 -657C349 -641 262 -626 68 -609L118 -574C149 -583 187 -589 404 -614C423 -615 423 -621 410 -632ZM760 -578L728 -605L708 -577L548 -559L523 -593L513 -585C517 -573 521 -550 521 -531V-486C521 -479 518 -468 515 -462L531 -437C541 -421 546 -421 551 -437C552 -440 554 -449 554 -456L740 -473C760 -474 761 -478 746 -491L736 -501L744 -541C745 -547 751 -553 759 -557C770 -562 769 -570 760 -578ZM364 -518L335 -541C320 -529 285 -521 133 -504L184 -469C200 -477 292 -496 357 -500C378 -501 379 -506 364 -518ZM370 -400L340 -424C326 -413 298 -406 143 -391L185 -357C201 -363 236 -369 364 -382C383 -383 384 -388 370 -400ZM923 -166L882 -195C868 -183 836 -176 647 -162V-205L833 -221C849 -222 852 -227 838 -239L807 -263C789 -252 714 -238 647 -232V-276L810 -292C827 -293 831 -297 816 -311L802 -325L816 -386C820 -403 825 -411 837 -418C848 -425 850 -431 839 -440L802 -471L777 -439L493 -413L465 -454L453 -447C458 -434 463 -403 463 -386V-316C463 -298 462 -291 457 -282L477 -245C486 -230 491 -231 495 -248C496 -252 496 -257 497 -262L613 -273V-230L416 -216L464 -181C480 -188 539 -196 613 -203V-159L362 -140L403 -105C441 -114 557 -125 918 -149C937 -150 936 -157 923 -166ZM371 -282L334 -312L310 -280L205 -266L177 -322L163 -315C168 -294 174 -236 174 -220V-92C174 -65 168 -45 157 -32L186 24C195 40 202 40 206 21C208 9 209 -15 209 -59L344 -71C360 -72 362 -78 352 -89L334 -108L345 -191C349 -228 359 -251 370 -261C379 -269 379 -276 371 -282ZM856 -17L759 -114L746 -106L825 48C833 63 839 63 845 47C851 31 856 0 856 -17ZM726 -9L659 -98L647 -90L689 47C693 60 698 62 707 48C717 32 724 12 726 -9ZM609 -3L556 -93L543 -86L569 46C572 57 579 59 586 50C596 36 606 16 609 -3ZM484 -85L468 -89C456 -39 431 -8 406 11L417 65C420 79 425 80 434 68C460 32 478 -22 484 -85ZM710 -547L704 -500L554 -487V-530ZM783 -410L768 -319L709 -313C725 -343 732 -353 739 -359C746 -365 747 -370 743 -376L726 -405ZM647 -397L709 -405C710 -384 699 -346 680 -311L647 -308ZM613 -304L496 -293V-384L522 -386L554 -313C559 -301 567 -302 572 -313C576 -321 579 -328 581 -345L536 -387L613 -394ZM316 -249L300 -103L209 -90V-236Z"/>
</svg>