<svg xmlns="http://www.w3.org/2000/svg" viewBox="0 -1000 1000 1000">
	<path fill="#000000" d="M531 -718L489 -749C451 -733 399 -725 87 -698L145 -657C186 -671 258 -681 525 -700C544 -701 544 -708 531 -718ZM482 -573C489 -577 490 -583 481 -591L440 -626L409 -585L205 -565L175 -632L158 -627C164 -600 169 -562 170 -523L173 -430C174 -393 171 -380 158 -363L195 -303C203 -290 209 -290 212 -303C215 -315 216 -326 215 -345L450 -369C462 -370 463 -375 454 -384L429 -409L456 -534C460 -554 467 -565 482 -573ZM913 -112L871 -145C837 -134 787 -124 692 -116V-409C692 -481 696 -523 705 -538C710 -547 709 -552 703 -559L670 -595L856 -614C872 -616 873 -620 860 -630L814 -664C757 -642 718 -634 490 -610L535 -572C551 -578 585 -584 644 -592C649 -567 651 -524 651 -410V-113L428 -94L479 -53C531 -66 598 -74 908 -94C926 -95 926 -101 913 -112ZM265 -189L193 -293L181 -286L223 -131C226 -116 231 -114 239 -127C250 -145 258 -161 265 -189ZM508 -157L505 -174L371 -140C401 -224 414 -250 434 -269C441 -275 441 -282 434 -289L388 -337L374 -332C379 -300 372 -261 338 -132L56 -57L124 -13C150 -31 204 -55 508 -157ZM414 -549L391 -400L214 -382L209 -529Z"/>
</svg>