<svg xmlns="http://www.w3.org/2000/svg" viewBox="0 -1000 1000 1000">
	<path fill="#000000" d="M452 -702L405 -729C370 -712 331 -706 89 -681L139 -646C165 -655 200 -662 450 -689C459 -690 460 -698 452 -702ZM429 -572C434 -575 434 -579 429 -584L387 -621L361 -585L202 -563L179 -626L161 -622C165 -593 169 -549 169 -539L172 -426C172 -414 164 -382 157 -376L189 -311C192 -304 201 -304 203 -314C205 -322 206 -327 206 -355L415 -380C422 -381 424 -387 416 -394L391 -416L404 -529C407 -549 415 -564 429 -572ZM939 -205L889 -236C873 -225 851 -221 694 -206C694 -263 698 -294 705 -305C713 -318 712 -322 701 -332L675 -357L821 -372C841 -374 843 -378 830 -387L801 -409L828 -602C836 -653 841 -662 854 -672C863 -679 863 -685 853 -695L817 -733L789 -693L607 -671C647 -761 654 -775 660 -779C671 -786 672 -791 668 -797L623 -854L609 -847C613 -813 600 -740 574 -668L511 -659L487 -719L468 -714C477 -682 479 -658 480 -572L482 -424C482 -399 475 -370 464 -357L496 -284C501 -273 514 -274 515 -286C516 -297 517 -320 518 -341L584 -348C567 -309 529 -240 482 -184L402 -177L453 -145C483 -154 523 -158 656 -170V-73C656 -40 650 -6 638 16L668 89C674 104 683 104 687 86C692 64 694 32 694 -31V-173L931 -193C947 -194 948 -199 939 -205ZM264 -175L199 -293L182 -286L216 -112C217 -107 221 -106 226 -111C247 -132 261 -158 264 -175ZM469 -119L466 -139L327 -110C380 -260 392 -282 401 -287C407 -291 408 -296 403 -302L357 -363L343 -358C352 -322 345 -257 297 -104L63 -50L124 -13C150 -27 175 -36 469 -119ZM795 -664L765 -399L634 -385C647 -422 656 -460 663 -504L761 -517C771 -518 772 -524 762 -530L721 -554C715 -549 695 -542 667 -536C670 -565 674 -624 676 -648ZM638 -644C636 -600 633 -563 630 -532L521 -521L570 -490C580 -493 592 -495 625 -500C619 -454 609 -419 596 -381L519 -373L514 -629ZM367 -554L355 -406L206 -385L205 -531ZM656 -201L517 -187C563 -236 597 -288 622 -351L648 -355C654 -336 656 -312 656 -273Z"/>
</svg>