<svg xmlns="http://www.w3.org/2000/svg" viewBox="0 -1000 1000 1000">
	<path fill="#000000" d="M845 -769L803 -802L777 -762L659 -740L696 -708C720 -717 737 -721 788 -731L771 -595L650 -573L686 -541C715 -550 753 -558 830 -569C845 -572 846 -576 837 -584L812 -607L825 -700C830 -732 835 -742 843 -747C855 -755 855 -760 845 -769ZM646 -748L604 -781L582 -747L482 -729L442 -799L428 -794C437 -765 449 -655 449 -615V-109C449 -43 443 -21 425 3L465 81C473 94 479 94 482 78C485 63 486 33 486 -35V-205L610 -227C621 -229 621 -234 612 -242L583 -270C570 -263 540 -252 486 -240V-371L602 -393C614 -395 615 -402 605 -410L572 -435C558 -425 546 -421 486 -404V-525L636 -554C649 -556 650 -561 638 -571L618 -588L624 -667C627 -708 631 -717 645 -728C654 -735 655 -740 646 -748ZM424 -515L386 -573L370 -567C376 -529 352 -458 309 -393C296 -465 271 -517 238 -551C247 -563 258 -576 269 -591C293 -622 299 -627 307 -630C315 -633 317 -639 314 -644L294 -675L418 -693C428 -694 429 -702 421 -706L364 -738C351 -721 308 -711 93 -683L141 -646C157 -653 209 -663 266 -671C243 -608 164 -497 87 -417L99 -403C142 -442 177 -476 225 -533C234 -520 242 -503 250 -482C206 -389 150 -309 79 -244L90 -230C149 -279 209 -342 265 -429C272 -408 277 -384 279 -359C215 -238 148 -161 53 -90L61 -74C149 -130 226 -203 284 -289C285 -267 285 -243 284 -219C279 -104 274 -72 261 -31L176 -87L164 -71C216 -19 239 6 267 44C272 50 280 51 284 44C305 0 314 -59 320 -212C322 -253 321 -290 318 -325L402 -213C409 -204 414 -204 418 -218C421 -231 423 -257 422 -278L318 -357C407 -491 413 -499 416 -500C425 -502 428 -509 424 -515ZM951 46L950 28C861 20 827 3 735 -173C757 -218 789 -294 815 -377C829 -422 837 -434 847 -439C858 -445 858 -455 849 -461L802 -495L775 -453L634 -426L667 -395C694 -405 708 -408 780 -419C756 -334 747 -305 710 -219C699 -240 687 -264 675 -288C659 -319 653 -336 651 -347L602 -356L599 -344C617 -328 623 -320 656 -256L694 -180C656 -104 572 8 496 78L506 91C580 35 659 -43 714 -136L811 58ZM589 -715L580 -582L486 -557V-692Z"/>
</svg>