<svg xmlns="http://www.w3.org/2000/svg" viewBox="0 -1000 1000 1000">
	<path fill="#000000" d="M504 -723L464 -751C446 -739 395 -729 330 -721C330 -757 337 -783 346 -792C351 -797 350 -803 345 -807L292 -853L282 -844C289 -826 294 -794 294 -717L98 -696L149 -663C192 -675 231 -681 294 -688V-639L152 -622L198 -590C234 -601 278 -610 471 -630C481 -631 483 -634 473 -642L443 -669C425 -660 387 -650 330 -643V-692L502 -711C511 -712 512 -717 504 -723ZM898 -506L862 -537C844 -526 816 -520 784 -519C749 -518 738 -530 740 -581L744 -684C745 -700 753 -718 769 -731C774 -735 774 -742 768 -747L726 -784L702 -749L595 -735L569 -792L556 -787C563 -724 564 -681 560 -639C549 -532 532 -490 488 -420L502 -409C559 -477 584 -530 593 -606C597 -643 600 -676 601 -704L707 -718L703 -581C701 -499 713 -485 787 -482C820 -481 865 -486 893 -492C905 -495 905 -500 898 -506ZM516 -576L478 -611L452 -583L163 -548C164 -561 164 -574 163 -587L144 -588C141 -541 125 -506 94 -475L109 -427C113 -416 119 -414 126 -425C143 -450 154 -478 160 -516L451 -550L430 -486L444 -479C479 -534 494 -549 514 -562C520 -566 521 -571 516 -576ZM427 -481L395 -504C377 -493 331 -482 183 -466L228 -435C263 -446 296 -451 423 -468C434 -469 436 -474 427 -481ZM954 37V18C830 5 800 -10 688 -163C715 -205 749 -277 776 -351C785 -374 794 -383 810 -392C816 -396 816 -401 812 -404L768 -444L738 -413L520 -380L564 -343C594 -356 625 -363 737 -380C720 -315 690 -242 662 -196L617 -258C596 -286 589 -300 583 -323L531 -325L529 -317C547 -302 564 -281 644 -167C580 -70 490 8 368 83L380 100C531 15 608 -52 667 -132L790 45ZM492 -401L456 -429C425 -415 364 -399 121 -378L166 -345C188 -353 218 -358 290 -366C259 -331 179 -279 75 -228L82 -212C181 -254 224 -274 270 -304C278 -294 283 -287 288 -277C248 -230 177 -179 90 -126L98 -111C187 -154 235 -183 306 -243C312 -233 316 -224 319 -213C271 -153 171 -81 56 -20L67 -4C182 -56 249 -95 329 -172C342 -91 332 -2 310 24L222 -38L211 -29C245 9 280 54 297 83C302 91 310 91 316 85C366 42 383 -72 362 -179L470 -86C480 -79 485 -80 486 -93C487 -110 486 -126 483 -148L355 -209V-208C422 -267 445 -280 461 -284C470 -286 471 -293 467 -300L438 -349L427 -346C422 -320 408 -298 347 -234C336 -260 318 -287 292 -318C315 -332 325 -336 333 -338C345 -340 347 -348 340 -357L328 -371L490 -390C498 -391 498 -396 492 -401Z"/>
</svg>