<svg xmlns="http://www.w3.org/2000/svg" viewBox="0 -1000 1000 1000">
	<path fill="#000000" d="M701 -718L588 -828L571 -818L653 -655C658 -645 666 -644 671 -652C688 -676 694 -689 701 -718ZM404 -780L376 -841L359 -839C351 -786 266 -700 68 -580L77 -565C156 -597 253 -656 348 -733C367 -748 392 -763 401 -766C406 -768 407 -774 404 -780ZM257 -566L181 -609L170 -600L229 -505C234 -497 241 -496 250 -510C258 -523 260 -545 257 -566ZM892 -625L845 -673L812 -630L504 -583C504 -597 502 -612 501 -626H480C476 -539 461 -512 430 -480L452 -424C458 -410 464 -408 474 -424C492 -454 502 -494 504 -548L814 -597L781 -484L801 -475C849 -572 871 -597 890 -608C899 -613 899 -618 892 -625ZM465 -636L431 -695L414 -692C414 -665 396 -638 347 -589C350 -604 351 -621 350 -633L275 -671L263 -660L329 -571C259 -505 181 -445 62 -374L72 -356C149 -393 217 -431 287 -484C294 -474 300 -464 305 -454C254 -377 170 -289 78 -223L88 -205C171 -254 251 -320 330 -413C339 -394 346 -378 352 -360C247 -216 179 -141 62 -53L72 -34C169 -92 253 -168 364 -305C367 -284 369 -257 370 -230C373 -118 364 -81 332 -3L240 -69L225 -52C273 3 303 41 323 71C326 76 333 77 339 69C388 5 412 -80 411 -221C410 -341 382 -424 306 -499C339 -526 367 -551 409 -590C426 -606 441 -616 459 -620C468 -622 470 -627 465 -636ZM963 32V11C846 -1 837 -12 785 -210C729 -417 725 -441 736 -458C742 -467 739 -473 727 -478L666 -503L659 -489C684 -459 695 -425 723 -293L798 39ZM626 -413L573 -472L559 -467C580 -290 520 -70 357 84L370 99C507 -23 587 -171 604 -307C610 -356 618 -385 625 -390C633 -396 635 -403 626 -413Z"/>
</svg>