<svg xmlns="http://www.w3.org/2000/svg" viewBox="0 -1000 1000 1000">
	<path fill="#000000" d="M928 -265L887 -295C874 -286 838 -277 805 -272L832 -544C835 -571 847 -588 863 -597C870 -601 871 -608 864 -614L816 -660L789 -620L714 -609L717 -673C719 -722 728 -769 739 -787C744 -795 742 -799 736 -804L674 -855L666 -845C676 -819 681 -759 679 -713L674 -605L606 -597V-669C606 -721 608 -749 614 -766C616 -773 615 -778 609 -783L552 -833L542 -824C560 -779 567 -731 567 -681V-592L500 -584L463 -645L449 -639C454 -617 461 -547 462 -522L469 -242L379 -234C383 -268 385 -291 386 -330L395 -617C396 -665 400 -675 418 -691C428 -700 427 -705 417 -712L375 -744L351 -704L205 -681L165 -753L150 -746C158 -714 168 -631 168 -599L172 -316C171 -280 165 -246 155 -226L189 -160C194 -150 203 -150 205 -162C208 -180 209 -196 209 -217L326 -232L354 -177C359 -167 366 -168 370 -179C372 -184 376 -200 379 -222L421 -193C464 -207 500 -213 923 -247C941 -248 943 -254 928 -265ZM414 -104L310 -194L296 -180C344 -113 366 -75 383 -34C386 -26 394 -25 398 -33C407 -51 412 -75 414 -104ZM876 -29L677 -186L667 -173C779 -56 834 23 855 66C860 76 869 76 871 66C875 46 877 6 876 -29ZM270 -131L244 -192L229 -188C220 -131 201 -94 72 70L85 82C144 25 159 9 223 -70C241 -94 253 -107 265 -114C271 -118 273 -124 270 -131ZM594 -126L571 -193L555 -190C544 -137 441 -23 293 67L303 87C384 47 478 -19 548 -85C565 -102 574 -107 587 -111C595 -114 596 -118 594 -126ZM794 -582L782 -447L766 -462C757 -457 730 -449 707 -447L713 -573ZM673 -569L668 -442L606 -433V-561ZM567 -428L502 -419L498 -549L567 -558ZM357 -674L348 -344C346 -284 342 -265 334 -252L313 -271C289 -263 251 -255 209 -249L208 -369L321 -383C334 -384 336 -388 326 -399L304 -423C279 -414 248 -406 207 -401V-510L320 -525C333 -526 334 -531 325 -541L303 -565C277 -554 252 -548 206 -541L205 -649ZM781 -425L766 -269L699 -263L706 -414ZM667 -409L662 -260L605 -255V-398ZM568 -251L506 -245L502 -396L514 -385C521 -387 540 -390 568 -393Z"/>
</svg>