<svg xmlns="http://www.w3.org/2000/svg" viewBox="0 -1000 1000 1000">
	<path fill="#000000" d="M854 -752L808 -801L769 -756L545 -735C552 -753 554 -768 552 -787L455 -852L443 -839L521 -733L251 -706C252 -719 251 -733 251 -746L230 -747C224 -686 205 -661 179 -639L198 -578C201 -569 206 -568 214 -578C232 -601 243 -632 249 -674L773 -725L744 -654L762 -643C812 -713 820 -718 853 -736C860 -741 860 -745 854 -752ZM681 -650L647 -677C602 -661 527 -647 308 -628L347 -595C384 -605 478 -618 675 -634C691 -635 691 -642 681 -650ZM862 -409C859 -428 852 -446 837 -472L596 -529L589 -513C722 -465 751 -451 846 -400C858 -393 864 -395 862 -409ZM856 -585L815 -613C768 -594 680 -583 157 -542L207 -507C247 -519 293 -525 357 -530C341 -488 286 -438 117 -349L124 -333C195 -359 296 -412 356 -452C379 -468 387 -472 394 -473C404 -474 405 -479 400 -487L373 -530L494 -540V-467C494 -447 493 -437 489 -429L417 -455L409 -440C455 -409 478 -391 496 -372L332 -359L305 -408L288 -399C295 -380 302 -338 302 -308V-187C302 -155 297 -125 285 -110L324 -37C328 -29 335 -30 336 -37C338 -49 340 -69 340 -90L646 -113L669 -61C673 -53 680 -53 683 -60C692 -79 697 -101 701 -153L713 -316C714 -334 725 -355 740 -367C746 -372 746 -377 740 -383L699 -424L669 -386L521 -374C532 -398 534 -412 534 -449V-543L855 -570C868 -571 869 -576 856 -585ZM769 85C770 64 765 39 755 6L547 -90L537 -73C622 -24 686 23 756 88C763 95 769 93 769 85ZM449 -44L424 -92L410 -91C406 -53 321 11 168 90L174 105C231 87 303 52 383 3C427 -24 432 -26 441 -27C452 -28 454 -34 449 -44ZM676 -355L667 -202C665 -167 659 -145 650 -132L620 -155C585 -143 539 -137 340 -119V-174L638 -200C647 -201 648 -207 642 -212L603 -240C568 -225 518 -218 340 -204V-254L622 -276C630 -277 631 -280 623 -287L580 -319C548 -303 489 -294 340 -282V-328Z"/>
</svg>