<svg xmlns="http://www.w3.org/2000/svg" viewBox="0 -1000 1000 1000">
	<path fill="#000000" d="M875 -495L826 -532L798 -491L675 -473V-637C771 -668 816 -682 841 -689C849 -691 850 -696 844 -701L794 -742L783 -735C782 -723 746 -697 675 -672V-734C675 -772 683 -795 689 -806C691 -811 691 -817 685 -822L631 -860L620 -852C630 -834 637 -795 637 -720V-658L539 -627L512 -683L499 -675C504 -640 505 -623 503 -604L494 -491C491 -454 488 -445 460 -427L506 -389C513 -383 519 -384 523 -393C533 -418 540 -421 572 -426L606 -430C537 -297 483 -240 379 -161L388 -144C482 -200 572 -289 637 -400V-204C637 -159 632 -135 617 -108L652 -37C655 -31 661 -31 664 -38C673 -59 675 -74 675 -182V-439L810 -459C803 -382 782 -281 764 -245L688 -297L680 -280C720 -235 732 -220 760 -176C764 -169 771 -169 776 -177C811 -228 826 -286 845 -435C848 -457 857 -470 873 -478C883 -483 883 -489 875 -495ZM952 23L946 3C786 29 736 23 551 -53L327 -144V-281L468 -302C482 -304 482 -309 473 -317L439 -344C432 -338 379 -323 327 -314C327 -371 332 -391 339 -401C343 -408 343 -412 338 -416L305 -448L463 -474C473 -476 473 -482 465 -488L432 -513C419 -504 366 -491 313 -482V-589L428 -608C437 -609 438 -615 430 -621L395 -648C383 -640 354 -630 313 -622V-696C313 -743 320 -775 329 -786C332 -790 331 -796 327 -799L270 -848L259 -840C272 -804 275 -772 275 -697V-617L122 -592L163 -558C183 -566 230 -576 275 -583V-476L80 -445L124 -409C147 -420 177 -427 280 -444C286 -412 288 -386 288 -336V-160L191 -198C206 -267 213 -284 226 -296C233 -302 233 -308 227 -315L178 -369L163 -361C179 -287 150 -120 38 57L53 67C112 -11 155 -84 183 -172L735 79ZM637 -468L529 -451L544 -600C571 -607 600 -615 637 -625Z"/>
</svg>