<svg xmlns="http://www.w3.org/2000/svg" viewBox="0 -1000 1000 1000">
	<path fill="#000000" d="M891 -459L849 -486C838 -477 774 -461 694 -449V-580L842 -601C856 -603 856 -610 845 -617L802 -644C790 -635 750 -623 694 -614V-687C694 -729 700 -759 706 -769C713 -781 712 -786 703 -796L652 -855L637 -844C648 -818 657 -755 657 -705V-608L584 -597C596 -630 603 -643 608 -648C615 -654 615 -661 610 -667L568 -721L556 -714C569 -672 546 -560 491 -455L507 -446C534 -481 556 -521 572 -563L657 -575V-445L460 -421L505 -387C536 -395 571 -401 629 -409C585 -319 508 -223 409 -149L420 -134C525 -204 598 -280 657 -382V-236C657 -164 652 -129 635 -109L675 -31C681 -19 689 -21 690 -33C693 -54 694 -86 694 -179V-330C749 -286 811 -228 869 -156C880 -143 886 -145 886 -158C884 -188 879 -215 872 -243L694 -359V-417L888 -440C904 -442 906 -450 891 -459ZM937 40L934 21C794 31 691 12 471 -97L337 -165V-299L478 -321C489 -323 489 -328 481 -333L434 -360C415 -349 382 -339 337 -333C337 -387 342 -406 349 -414C354 -420 353 -424 348 -428L317 -459L495 -485C507 -487 506 -493 497 -499L453 -526C440 -516 386 -503 323 -492V-598L464 -620C476 -621 476 -627 466 -633L423 -660C404 -650 364 -638 323 -631V-699C323 -735 332 -778 339 -789C342 -794 341 -798 337 -801L282 -851L271 -843C283 -807 286 -775 286 -700V-626L125 -600L175 -567C194 -575 237 -585 286 -593V-487L70 -452L120 -420C150 -430 207 -442 290 -455C296 -423 298 -397 298 -348V-184L212 -227C228 -297 234 -312 241 -319C247 -325 247 -331 243 -337L196 -403L184 -397C205 -273 135 -72 47 46L63 57C123 -10 174 -115 201 -195L738 80Z"/>
</svg>