<svg xmlns="http://www.w3.org/2000/svg" viewBox="0 -1000 1000 1000">
	<path fill="#000000" d="M890 -540C875 -550 860 -558 843 -569C828 -559 810 -554 795 -554C748 -553 740 -560 740 -591V-695C740 -727 751 -753 769 -762C777 -766 777 -772 770 -778L714 -818L690 -774L581 -756L557 -825L537 -820C561 -657 517 -531 441 -466L462 -450C546 -536 569 -579 582 -721L700 -738V-587C700 -532 720 -511 795 -517C835 -520 859 -523 888 -527C895 -528 897 -534 890 -540ZM944 29L943 9C791 33 734 26 575 -39L326 -142V-286L454 -307C466 -309 466 -314 458 -321L425 -349C414 -340 375 -327 326 -319C326 -379 330 -397 338 -408C343 -415 343 -421 337 -426L301 -457L449 -482C454 -483 455 -488 450 -493L418 -521C405 -513 372 -501 318 -491V-601L441 -617C450 -618 450 -624 443 -630L410 -657C397 -650 359 -640 318 -634V-702C318 -738 327 -781 334 -792C337 -797 336 -802 332 -805L274 -854L262 -846C275 -810 278 -778 278 -703V-628L122 -606L158 -572C177 -579 229 -588 278 -595V-485L81 -451L125 -419C146 -428 187 -437 279 -452C285 -419 287 -392 287 -342V-158L185 -198C205 -273 213 -292 224 -303C230 -309 231 -314 226 -321L177 -385L160 -377C176 -307 141 -119 41 44L59 57C113 -17 151 -92 176 -167L752 85ZM858 -162C859 -186 856 -213 848 -240L654 -371V-399L853 -416C864 -417 864 -422 857 -428L820 -461C798 -450 716 -436 654 -431C654 -474 659 -499 673 -520C676 -525 675 -532 670 -536L612 -586L599 -579C607 -553 615 -501 615 -428L425 -409L467 -372C485 -376 530 -384 569 -390C520 -291 467 -228 378 -153L389 -137C485 -203 552 -272 615 -384V-230C615 -160 611 -144 599 -123L629 -62C636 -48 644 -49 647 -62C653 -88 654 -105 654 -179V-340C740 -264 789 -215 838 -160C854 -142 858 -146 858 -162Z"/>
</svg>