<svg xmlns="http://www.w3.org/2000/svg" viewBox="0 -1000 1000 1000">
	<path fill="#000000" d="M919 -480L875 -513C864 -504 826 -491 775 -483L784 -640C787 -708 793 -738 804 -754C811 -764 810 -769 803 -774L735 -833L724 -823C739 -786 747 -737 743 -650L736 -478L643 -466L642 -624C641 -715 644 -731 651 -742C657 -752 655 -758 649 -763L584 -818L572 -806C592 -771 602 -714 602 -640L603 -461L512 -449V-554C513 -617 519 -646 526 -656C532 -664 532 -669 523 -677L459 -737L445 -729C464 -689 472 -635 472 -535V-445L334 -428L388 -388C403 -394 439 -402 474 -408L475 -68C475 -21 464 0 442 20L484 50C490 54 494 54 500 49C512 39 535 33 568 30L875 4C891 3 891 -1 879 -11L836 -46C809 -27 712 -14 513 -3L512 -412L604 -425L605 -251C606 -180 601 -165 591 -154L630 -93C636 -83 642 -84 643 -98C644 -112 645 -132 645 -170L794 -190C811 -192 810 -199 799 -207L764 -232L774 -446L913 -465C927 -467 928 -473 919 -480ZM449 -135L442 -155L290 -111V-300L428 -326C438 -328 438 -333 432 -338L400 -364C391 -359 332 -342 290 -335V-495L384 -510C394 -512 394 -517 386 -524L359 -546L373 -663C375 -677 385 -690 401 -703C407 -708 406 -714 401 -719L359 -757L330 -720L187 -697L158 -769L140 -760C145 -737 149 -701 150 -657L153 -527C154 -498 152 -480 142 -466L178 -415C184 -406 190 -406 191 -418C193 -429 193 -453 192 -482L251 -490V-99L178 -78V-261C178 -303 180 -323 187 -340C189 -345 188 -349 184 -352L130 -399L118 -389C133 -359 141 -317 141 -258V-68L30 -34L104 0C127 -20 197 -51 449 -135ZM337 -686L323 -538L191 -517L186 -662ZM735 -441L725 -221L645 -206L643 -429Z"/>
</svg>