<svg xmlns="http://www.w3.org/2000/svg" viewBox="0 -1000 1000 1000">
	<path fill="#000000" d="M957 -53V-70C846 -74 814 -94 755 -198L655 -372L885 -398C902 -400 905 -409 891 -418L849 -442C826 -429 811 -425 649 -406V-558L837 -583C852 -585 854 -591 841 -599L798 -625C772 -612 754 -606 649 -592V-667C649 -717 657 -760 667 -779C672 -789 672 -793 665 -799L597 -850L590 -838C606 -810 610 -771 610 -696V-587L493 -571C499 -586 504 -601 510 -617C525 -661 530 -670 537 -679C543 -687 544 -691 539 -697L496 -753L483 -743C496 -696 459 -547 402 -443L420 -434C436 -457 460 -497 482 -545L498 -533C511 -538 549 -545 610 -553V-403L426 -382L392 -405C380 -395 365 -389 298 -377V-533L389 -547C402 -548 404 -554 392 -564L373 -578L391 -701C393 -717 403 -735 415 -741C423 -746 424 -750 416 -757L373 -798L344 -755L193 -731L166 -798L149 -793C155 -771 163 -713 163 -692L168 -566C169 -542 165 -531 155 -517L189 -461C197 -447 202 -448 205 -465C206 -472 206 -485 205 -519L259 -528V-155L179 -122V-273C179 -308 182 -333 187 -346C190 -355 189 -363 184 -367L134 -411L121 -401C137 -373 143 -326 143 -270V-108L37 -65L97 -35C128 -56 158 -73 444 -208L435 -224L298 -170V-343L413 -362L443 -341C461 -348 494 -355 589 -366C506 -212 418 -99 275 8L286 24C409 -57 503 -145 610 -317V-110C610 -27 603 8 589 34L629 104C635 114 639 114 641 104C647 71 649 44 649 -48V-325L793 -39ZM349 -721L338 -575L203 -555L198 -696Z"/>
</svg>