<svg xmlns="http://www.w3.org/2000/svg" viewBox="0 -1000 1000 1000">
	<path fill="#000000" d="M942 20V4C803 -4 779 -15 696 -151C769 -222 791 -239 802 -240C814 -241 817 -246 811 -256L783 -298L888 -313C897 -314 898 -320 887 -327L848 -354C827 -342 774 -328 716 -319L726 -434L850 -450C860 -451 861 -459 851 -466L817 -490C794 -480 760 -471 729 -467C735 -510 739 -525 746 -533C752 -540 753 -547 745 -554L712 -584L806 -597C815 -598 816 -605 809 -612L783 -638L794 -715C796 -730 806 -746 817 -751C824 -755 825 -764 819 -770L776 -809L745 -773L492 -733L462 -813L446 -807C454 -713 456 -608 446 -437C441 -342 429 -265 410 -200L296 -171V-349L413 -372C423 -373 425 -377 416 -385L392 -408C385 -401 338 -388 296 -380V-514L386 -527C397 -528 399 -534 389 -544L366 -567L379 -675C382 -697 386 -707 402 -721C407 -726 408 -730 402 -736L361 -775L333 -740L192 -717L168 -782L150 -778C156 -753 162 -696 162 -676L165 -539C165 -524 162 -510 153 -491L187 -434C195 -420 201 -424 203 -437C205 -452 204 -468 203 -501L260 -510V-162L189 -143L187 -301C186 -343 189 -365 196 -383C197 -387 196 -391 192 -394L136 -440L125 -428C142 -394 151 -362 152 -297L155 -134L44 -107L101 -70C129 -86 167 -101 403 -175C372 -82 324 -9 250 68L263 80C368 -11 435 -123 461 -264L488 -248C496 -254 511 -258 525 -261C528 -244 529 -221 529 -191V-36C529 8 525 19 486 49L528 84C534 89 540 87 543 81C551 60 590 10 665 -74L653 -87L564 -4V-179C564 -195 570 -217 574 -223C580 -231 578 -238 572 -244L550 -265L593 -271L767 38ZM755 -742L745 -624L491 -586C492 -622 493 -661 494 -701ZM341 -710L331 -552L202 -533L197 -685ZM693 -463L609 -449C609 -488 611 -508 616 -513C623 -520 623 -524 614 -532L578 -567L688 -582C696 -560 697 -521 693 -463ZM574 -444L482 -430C485 -468 488 -509 490 -554L559 -565C566 -540 573 -493 574 -444ZM691 -429L684 -314L609 -303V-418ZM574 -299L464 -283C471 -321 476 -364 482 -419L508 -397C522 -402 551 -410 574 -414ZM765 -295C760 -272 733 -227 684 -171L621 -275Z"/>
</svg>