<svg xmlns="http://www.w3.org/2000/svg" viewBox="0 -1000 1000 1000">
	<path fill="#000000" d="M663 -761L573 -851L557 -841L628 -700C634 -686 642 -684 647 -700C652 -717 655 -732 663 -761ZM592 -551L517 -621L503 -613L556 -501C562 -487 571 -488 576 -501C584 -520 588 -533 592 -551ZM416 -155L413 -174L294 -139V-332L403 -351C410 -352 411 -356 404 -362L376 -389C366 -384 330 -372 294 -364V-515L366 -525C379 -526 380 -531 370 -540L348 -560L361 -676C364 -697 370 -705 385 -712C395 -717 397 -723 389 -730L344 -772L314 -731L192 -712L164 -772L146 -765C153 -746 161 -698 162 -650L163 -557C163 -529 160 -514 150 -499L184 -445C190 -437 198 -437 199 -448C201 -460 203 -484 203 -502L255 -510V-128L186 -108V-282C186 -323 188 -344 195 -362C197 -367 196 -371 192 -374L138 -421L126 -411C142 -376 149 -341 149 -279V-97L44 -65L107 -26C132 -43 211 -81 416 -155ZM904 -686L864 -720C806 -698 704 -680 369 -654L419 -616C436 -621 489 -629 695 -650C688 -601 670 -542 651 -498L465 -475L433 -547L417 -542C426 -503 430 -454 430 -391V-107C430 -52 421 -18 407 1L441 81C450 102 457 99 461 79C464 63 466 26 466 -49V-331L499 -308C529 -318 550 -323 596 -329L593 -247L559 -243L534 -281L520 -276C526 -261 528 -235 530 -203L533 -144C534 -126 529 -87 521 -82L548 -39C557 -25 567 -25 567 -46C567 -54 567 -70 566 -90L709 -106C721 -107 723 -111 712 -121L690 -140L703 -211C705 -223 711 -231 720 -235C734 -242 734 -250 723 -259L683 -290L661 -257L624 -251L629 -333L762 -350C769 -351 770 -357 763 -363L732 -389C716 -381 678 -370 632 -363C634 -395 638 -414 645 -426C648 -432 646 -438 643 -440L621 -461L784 -480V-73C784 -37 780 1 776 20L681 -43L672 -31C717 16 753 57 785 102C794 115 799 115 804 104C817 74 823 42 823 -45V-464C823 -472 832 -484 847 -494C852 -497 854 -504 848 -511L806 -552L777 -515L684 -502C722 -586 733 -599 741 -601C751 -603 753 -609 745 -621L723 -653L903 -673C910 -674 911 -680 904 -686ZM321 -696L312 -552L201 -534L197 -678ZM598 -397L597 -359L466 -341V-442L592 -458C596 -439 599 -422 598 -397ZM665 -226L655 -133L566 -118L564 -215Z"/>
</svg>