<svg xmlns="http://www.w3.org/2000/svg" viewBox="0 -1000 1000 1000">
	<path fill="#000000" d="M895 -743L850 -778C802 -755 746 -743 488 -717L536 -680C572 -691 605 -697 668 -705C669 -677 663 -634 645 -554L607 -549L581 -612L566 -606C574 -579 578 -531 579 -465L582 -265C583 -225 579 -202 565 -179L596 -114C602 -103 607 -103 611 -116C615 -130 616 -141 617 -164L758 -180L786 -129C793 -117 798 -117 802 -130C806 -145 809 -175 812 -239L822 -489C823 -523 828 -537 847 -552C856 -560 855 -566 848 -572L807 -603L779 -569L675 -556C699 -630 707 -651 720 -663C723 -665 722 -669 719 -674L697 -707L893 -729C903 -730 905 -734 895 -743ZM403 -177L396 -193L286 -159V-350L387 -371C397 -372 398 -378 390 -385L364 -409C358 -401 325 -390 286 -383V-528L351 -538C360 -539 362 -544 355 -553L337 -575L347 -667C350 -690 363 -718 372 -724C380 -729 379 -736 373 -741L333 -779L304 -740L190 -720L166 -784L149 -780C154 -755 159 -698 159 -678L158 -570C158 -554 155 -541 146 -522L179 -465C187 -451 194 -451 195 -468C196 -476 197 -494 196 -514L248 -523V-146L183 -125V-295C183 -330 186 -356 191 -369C194 -377 194 -384 188 -389L138 -433L125 -424C139 -387 147 -341 147 -292V-114L40 -78L103 -46C140 -66 187 -87 403 -177ZM570 -213L562 -226L451 -151V-423L565 -440C574 -441 575 -446 566 -454L537 -482C519 -473 497 -466 451 -456V-541C451 -606 453 -637 462 -658C465 -668 464 -672 458 -677L405 -726L395 -718C406 -698 413 -648 413 -566V-197C413 -147 408 -133 373 -111L414 -76C422 -69 426 -70 433 -80C449 -102 468 -124 570 -213ZM857 -15L720 -141L706 -131C762 -60 795 -10 835 64C842 76 848 76 852 62C857 40 858 19 857 -15ZM677 -99L658 -158L642 -155C635 -106 559 -4 459 78L468 92C516 60 598 -8 637 -55C645 -64 663 -80 671 -83C677 -86 679 -90 677 -99ZM312 -707L300 -566L195 -546L194 -689ZM784 -535L778 -288C777 -251 771 -230 758 -207L741 -225C720 -213 692 -205 617 -194L616 -284L749 -302C762 -304 763 -308 753 -318L727 -345C711 -334 692 -328 615 -318V-411L752 -430C764 -431 765 -438 756 -446L729 -474C712 -461 687 -454 614 -444L613 -515Z"/>
</svg>