<svg xmlns="http://www.w3.org/2000/svg" viewBox="0 -1000 1000 1000">
	<path fill="#000000" d="M951 -421V-438C853 -443 814 -463 762 -535L689 -637L867 -655C882 -656 880 -664 871 -671L835 -697C818 -688 739 -675 611 -659C623 -685 636 -711 650 -749C737 -775 772 -783 793 -786C806 -787 808 -792 797 -802L749 -840L740 -838C731 -813 637 -768 429 -718L431 -699C475 -707 543 -721 595 -734C585 -706 575 -682 561 -654L382 -638L426 -604C438 -610 472 -615 545 -622C501 -541 445 -471 367 -403L380 -387C439 -437 486 -478 523 -525C527 -512 529 -495 529 -489L530 -417C530 -409 527 -395 521 -387L546 -343C553 -332 558 -333 561 -347C562 -355 563 -365 563 -379L737 -393C748 -394 749 -400 740 -410L716 -436L723 -486C725 -494 729 -503 735 -511L805 -408ZM427 -183L418 -201L291 -161V-325L413 -346C421 -347 424 -352 414 -361L386 -384C375 -376 331 -363 291 -355V-515L383 -527C391 -528 392 -532 385 -538L359 -563L371 -681C372 -695 378 -706 397 -722C402 -726 401 -730 398 -734L358 -776L326 -736L202 -722L176 -780L157 -772C163 -743 165 -726 168 -669L171 -567C172 -538 168 -519 157 -504L195 -454C203 -444 207 -445 208 -458C210 -468 211 -486 209 -503L253 -510V-149L186 -127V-255C186 -295 188 -317 195 -334C197 -339 196 -343 192 -346L138 -393L126 -383C142 -348 149 -314 149 -251V-116L42 -81L108 -45C136 -69 158 -81 427 -183ZM715 -231L682 -262L656 -228L566 -217L546 -261L533 -257C538 -240 541 -217 541 -205L542 -117C542 -105 538 -90 531 -81L558 -32C565 -21 570 -22 573 -33C575 -43 576 -66 577 -84L706 -98C719 -99 719 -106 710 -114L689 -132L698 -182C700 -192 705 -204 714 -214C720 -219 720 -226 715 -231ZM842 -336L799 -370L768 -333L481 -307L455 -376L441 -371C448 -332 451 -295 451 -253V-72C451 -41 445 -11 433 3L463 71C468 82 477 82 480 68C484 47 486 19 486 -42V-274L780 -302C774 -180 761 -46 743 16L669 -36L659 -22C699 22 724 57 745 92C749 98 754 99 760 91C784 60 793 36 815 -257C818 -291 824 -304 839 -315C850 -324 849 -329 842 -336ZM335 -704L323 -553L209 -536L202 -688ZM703 -559L690 -540L553 -527L542 -549C559 -574 576 -598 593 -627L654 -634ZM691 -507L681 -421L562 -410L561 -494ZM662 -197L655 -124L574 -116L573 -186Z"/>
</svg>