<svg xmlns="http://www.w3.org/2000/svg" viewBox="0 -1000 1000 1000">
	<path fill="#000000" d="M467 -736C473 -739 473 -746 467 -750L429 -782L399 -750L253 -732L229 -793L212 -789C237 -592 183 -450 78 -319L90 -307C158 -366 206 -443 233 -534C236 -516 239 -495 239 -486L240 -445C241 -419 237 -403 229 -393L261 -340C264 -335 270 -335 272 -342C276 -352 276 -368 277 -396L448 -413C457 -414 459 -416 452 -424L432 -447L441 -497C443 -508 451 -523 460 -528C466 -532 466 -535 460 -540L425 -572L398 -546L267 -527L246 -563L239 -560C242 -570 243 -578 245 -586L453 -612C462 -613 463 -617 456 -624L435 -645L443 -688C448 -716 453 -729 467 -736ZM895 33L892 18C732 28 669 19 532 -33V-106L752 -130C760 -131 760 -137 754 -142L723 -171C709 -164 680 -158 532 -138V-210L688 -229C696 -230 696 -233 690 -239L669 -260L679 -294C688 -323 694 -334 704 -341C708 -344 709 -349 704 -353L666 -384C667 -397 667 -418 667 -470L839 -483C847 -483 849 -489 841 -494L789 -525C775 -516 724 -505 667 -500V-565L874 -585C882 -585 883 -591 877 -596L828 -629C814 -619 789 -610 698 -599C720 -651 726 -661 738 -667C745 -671 746 -675 738 -682L723 -697L836 -707C843 -707 845 -714 838 -719L787 -748C770 -738 724 -727 665 -721C671 -742 679 -771 682 -788L607 -847L597 -837L651 -721L465 -702L520 -668C527 -670 538 -673 554 -676L588 -588L446 -574L502 -540C523 -547 568 -554 630 -562V-498L454 -485L511 -449C529 -456 579 -464 630 -468C630 -440 627 -430 617 -417L648 -373L642 -359L364 -321L345 -365L330 -359C334 -342 336 -314 338 -287L342 -249C344 -232 340 -214 334 -204L363 -159C368 -151 373 -152 378 -165C380 -173 380 -181 381 -191L493 -206V-47L345 -104C353 -112 362 -120 365 -123C369 -126 370 -130 367 -135L333 -182L322 -175C302 -94 235 -2 120 83L127 95C211 52 257 12 330 -82L691 75ZM406 -720L401 -637L249 -618C252 -644 256 -681 258 -702ZM692 -694C692 -672 687 -650 669 -596L609 -590C615 -603 619 -617 621 -632L579 -680C608 -685 654 -690 692 -694ZM405 -517L395 -441L274 -425L270 -497ZM645 -326L633 -256L379 -219L372 -291Z"/>
</svg>