<svg xmlns="http://www.w3.org/2000/svg" viewBox="0 -1000 1000 1000">
	<path fill="#000000" d="M861 -774L824 -804L798 -771L687 -755L664 -809L649 -805C654 -774 659 -716 659 -696V-532C659 -490 655 -473 646 -454L673 -410C680 -399 686 -400 689 -413C690 -418 692 -427 693 -434L847 -451C861 -452 863 -458 851 -468L828 -486L841 -702C843 -727 848 -746 859 -752C870 -758 870 -766 861 -774ZM414 -140L409 -159L291 -127V-321L408 -343C414 -344 413 -349 409 -353L381 -381C371 -375 329 -362 291 -353V-506L368 -517C378 -518 379 -522 370 -529L346 -549L356 -673C358 -687 369 -704 381 -711C387 -715 388 -718 382 -723L340 -762L318 -728L200 -712L173 -772L154 -764C161 -733 165 -703 166 -661L169 -551C170 -523 168 -504 157 -490L193 -439C199 -430 205 -430 206 -442C208 -452 208 -472 208 -493L254 -500V-117L186 -97V-264C186 -305 188 -326 195 -343C197 -348 196 -352 192 -355L138 -402L126 -392C142 -358 149 -323 149 -261V-87L55 -61L113 -24C138 -40 207 -74 414 -140ZM916 -24L878 -55C857 -44 828 -39 696 -28V-102L843 -118C858 -120 860 -126 848 -133L809 -156C785 -145 754 -139 696 -132V-204L830 -220C846 -222 847 -229 837 -235L797 -258C775 -247 747 -241 696 -234V-293L875 -314C894 -316 893 -323 881 -331L843 -357C823 -347 805 -342 690 -327C695 -342 698 -360 697 -377L613 -422L606 -413L665 -326L514 -310V-323C542 -359 552 -368 558 -371C568 -376 569 -379 564 -390L545 -434L610 -443C626 -445 627 -449 615 -460L596 -478L604 -688C605 -713 611 -730 620 -738C628 -745 628 -752 622 -757L585 -793L554 -756L451 -742L429 -801L414 -797C418 -761 423 -705 424 -686L426 -498C427 -466 424 -451 413 -431L442 -377C448 -366 453 -366 457 -379C459 -385 461 -408 460 -423L519 -431C512 -383 464 -293 347 -175L357 -162C401 -197 437 -230 475 -273V-64C475 -11 466 23 455 36L490 102C496 113 502 113 505 99C511 68 513 49 514 19L910 -7C930 -8 931 -12 916 -24ZM804 -739L800 -661L780 -678C773 -672 751 -667 693 -657V-725ZM566 -725L564 -645L547 -664C537 -658 496 -648 457 -641L455 -712ZM319 -696L309 -540L206 -525L201 -681ZM800 -646L796 -560L779 -578C770 -571 752 -566 693 -556V-628ZM564 -632L562 -550L549 -563C533 -556 496 -547 458 -541L457 -613ZM796 -546L793 -480L693 -465V-529ZM562 -533L560 -469L459 -452V-515ZM657 -230L513 -215V-274L657 -289ZM657 -128L513 -113V-206L540 -182C560 -187 593 -192 657 -200ZM657 -25L513 -13V-93L531 -78C552 -83 616 -94 657 -98Z"/>
</svg>