<svg xmlns="http://www.w3.org/2000/svg" viewBox="0 -1000 1000 1000">
	<path fill="#000000" d="M677 -781L593 -854L579 -841L642 -728C648 -717 655 -718 663 -730C671 -742 674 -753 677 -781ZM900 -732L856 -773L825 -738L460 -693C458 -712 454 -732 448 -752L430 -749C437 -680 427 -650 400 -607L417 -563C422 -549 429 -547 438 -563C452 -589 460 -623 461 -660L823 -706L793 -626L809 -619C852 -687 877 -708 896 -714C909 -718 910 -723 900 -732ZM562 -499L505 -549L494 -540L531 -459C535 -449 543 -447 551 -459C556 -467 559 -477 562 -499ZM387 -583L341 -638L327 -630C332 -609 334 -579 331 -547L239 -534C251 -597 259 -642 272 -719C276 -740 283 -756 291 -770C295 -776 295 -782 288 -789L232 -849L219 -840C230 -811 234 -775 228 -726C219 -649 209 -586 200 -530L36 -507L87 -467C105 -475 140 -483 195 -494C181 -416 165 -346 146 -275C180 -259 212 -239 247 -214C203 -127 135 -44 43 45L54 58C153 -24 226 -95 279 -191C312 -165 335 -143 360 -115C370 -103 379 -104 381 -121C382 -132 380 -159 376 -180L296 -227C321 -281 348 -385 366 -487C378 -553 381 -558 386 -564C392 -572 392 -577 387 -583ZM971 -265V-280C897 -279 845 -298 788 -354L707 -435L894 -462C911 -464 910 -471 900 -478L860 -504C837 -492 785 -477 729 -469C757 -513 774 -531 787 -537C797 -542 798 -548 792 -556L755 -603L738 -596C742 -568 734 -530 696 -465L658 -460L657 -586C728 -608 747 -612 760 -613C771 -614 772 -620 765 -629L728 -668L716 -665C704 -640 628 -607 463 -569L465 -551C506 -558 569 -568 620 -578L619 -455L382 -429L428 -391C453 -399 480 -405 561 -416C522 -360 456 -289 368 -218L380 -203C403 -219 432 -239 461 -265C467 -238 471 -205 471 -167V-83C471 -31 466 -8 453 10L488 79C494 92 504 89 506 76C508 65 509 46 509 24L739 4L761 44C769 58 775 57 781 44C786 32 789 19 795 -37L814 -207C818 -234 826 -243 839 -247ZM329 -520C315 -414 292 -315 262 -246L190 -288C206 -364 220 -433 234 -500ZM810 -279L791 -291L771 -268L653 -257C657 -292 658 -354 658 -429L675 -432ZM633 -256L499 -242L479 -280C530 -326 583 -378 619 -424C620 -351 618 -322 605 -305ZM775 -233L757 -67C754 -40 750 -21 744 -12L712 -34C697 -29 679 -25 649 -21V-111L734 -120C748 -121 749 -128 740 -136L712 -162C702 -156 676 -148 649 -143V-223ZM613 -18L509 -8V-212L613 -220V-139L516 -128L550 -93C563 -99 587 -105 613 -108Z"/>
</svg>