<svg xmlns="http://www.w3.org/2000/svg" viewBox="0 -1000 1000 1000">
	<path fill="#000000" d="M457 -246L429 -272C411 -262 387 -255 296 -241V-320L410 -334C424 -336 425 -342 415 -351L394 -370L410 -505C412 -520 418 -539 431 -548C437 -552 437 -559 431 -566L397 -601L374 -573L296 -559V-638L454 -659C464 -660 466 -664 456 -674L430 -701C408 -691 354 -677 296 -670C296 -743 302 -766 314 -783C319 -791 318 -798 311 -805L259 -860L248 -853C258 -822 260 -774 260 -667L77 -644L113 -609C126 -615 146 -619 260 -634V-554L175 -540L154 -588L139 -582C143 -569 146 -557 148 -491L152 -380C154 -339 152 -321 139 -300L174 -248C181 -238 187 -238 188 -251C189 -270 189 -279 188 -307L260 -316V-236L63 -210L108 -174C135 -186 147 -188 260 -204V-94C260 -28 255 8 239 29L274 98C278 106 284 108 288 97C293 81 296 50 296 -24V-208L454 -230C465 -232 465 -239 457 -246ZM867 -758L820 -799L793 -750L509 -715L480 -793L465 -787C474 -719 476 -679 474 -448C470 -137 448 -66 348 85L362 97C469 -29 505 -138 510 -404L542 -384C579 -393 619 -399 806 -420V-109C806 -11 806 0 801 20L687 -50L676 -36C727 9 778 62 808 101C816 111 822 110 827 100C844 67 847 57 847 -79V-671C847 -714 852 -734 866 -741C876 -746 876 -750 867 -758ZM756 -322C762 -327 762 -332 756 -339L721 -375L702 -344L594 -324L573 -371L559 -367C565 -334 568 -301 568 -273L570 -224C571 -194 567 -183 558 -171L590 -107C597 -93 604 -93 606 -108C608 -125 608 -139 607 -166L742 -187C753 -188 754 -194 747 -200L727 -220L735 -266C739 -294 746 -315 756 -322ZM806 -443L780 -462C765 -452 742 -445 671 -436V-532L782 -546C792 -547 794 -550 785 -558L758 -585C737 -577 705 -568 671 -564C671 -618 674 -635 683 -655C686 -664 684 -671 677 -677L653 -699L806 -719ZM378 -540L367 -459L347 -479C336 -471 321 -466 296 -462V-526ZM260 -456L183 -445L181 -508L260 -521ZM366 -442L357 -362L296 -353V-432ZM260 -348L187 -339L183 -438L206 -416C215 -419 239 -424 260 -427ZM705 -312L693 -213L605 -199L601 -293ZM512 -546C513 -589 513 -635 513 -683L630 -697C634 -677 636 -647 636 -559ZM512 -544L549 -515C559 -518 596 -524 636 -528V-432L510 -416C511 -449 511 -493 512 -544Z"/>
</svg>