<svg xmlns="http://www.w3.org/2000/svg" viewBox="0 -1000 1000 1000">
	<path fill="#000000" d="M863 -688C868 -691 869 -698 862 -704L810 -756L796 -749C805 -733 810 -692 803 -653L788 -564L690 -550V-696C690 -736 697 -771 707 -789C711 -797 709 -803 703 -808L644 -856L632 -847C647 -822 651 -781 651 -740V-546L554 -534L551 -629C550 -658 554 -679 561 -685C566 -690 564 -697 559 -701L506 -743L495 -732C507 -705 512 -681 513 -647L516 -564C517 -537 512 -527 494 -513L526 -481C531 -476 537 -478 541 -483C551 -497 565 -504 588 -507L774 -531L790 -489C794 -478 798 -477 804 -486C809 -494 817 -513 820 -530L841 -641C846 -667 854 -683 863 -688ZM486 -226L459 -247C445 -239 409 -231 314 -218V-300L438 -316C452 -317 454 -321 443 -332L424 -352L438 -488C440 -510 450 -527 459 -534C466 -540 466 -545 459 -551L419 -586L392 -550L314 -539V-619L472 -636C488 -637 488 -642 475 -652L439 -680C418 -670 374 -659 314 -651C314 -734 316 -756 327 -774C332 -784 332 -787 325 -796L278 -851L264 -844C276 -809 278 -780 278 -647L78 -623L116 -586C137 -595 187 -604 278 -615V-534L188 -521L164 -581L145 -575C149 -562 153 -530 155 -484L160 -364C162 -323 159 -305 145 -284L184 -232C192 -221 197 -222 198 -235C199 -255 199 -266 198 -287L278 -296V-214L58 -184L105 -147C133 -160 196 -172 278 -182V-100C278 -33 273 2 255 24L292 93C296 101 302 103 306 92C312 78 314 45 314 -29V-186L482 -206C497 -207 499 -216 486 -226ZM925 -444L890 -472C847 -452 787 -441 435 -405L468 -371C505 -382 549 -388 638 -398C639 -365 633 -335 615 -281L527 -269L502 -332L489 -326C494 -285 497 -260 497 -233L504 -50C506 -6 504 9 492 33L528 93C533 102 538 102 541 90C544 81 544 62 542 -4L535 -239L597 -247V-90C597 -55 594 -41 585 -26L614 29C620 40 624 40 629 27C633 15 634 -8 634 -87V-252L695 -260V-96C695 -68 690 -48 679 -28L705 26C710 36 718 36 721 24C724 16 726 7 727 -4C752 27 774 60 794 93C801 104 807 103 812 93C830 59 843 15 858 -237C859 -258 871 -277 883 -287C893 -294 893 -299 883 -308L845 -342L819 -310L647 -286C662 -319 675 -343 687 -354C697 -364 697 -368 691 -374L666 -400L923 -427C940 -428 942 -432 925 -444ZM402 -518L395 -428L367 -450C358 -445 339 -439 314 -434V-506ZM278 -429L194 -418L191 -489L278 -501ZM395 -417L389 -345L314 -334V-406ZM278 -329L197 -317L194 -407L219 -389C229 -392 255 -397 278 -400ZM820 -275C815 -140 807 -52 795 18L729 -31C730 -49 731 -69 731 -92V-264Z"/>
</svg>