<svg xmlns="http://www.w3.org/2000/svg" viewBox="0 -1000 1000 1000">
	<path fill="#000000" d="M702 -767L617 -857L606 -850L663 -712C669 -696 673 -696 683 -711C691 -725 698 -747 702 -767ZM458 -669L428 -694C414 -687 356 -674 306 -668C306 -737 312 -765 323 -783C330 -792 328 -796 321 -802L268 -854L258 -848C268 -811 272 -772 272 -666L95 -650L142 -614C156 -621 174 -625 272 -636V-556L196 -543L170 -593L157 -588C162 -577 170 -522 170 -505L171 -386C171 -356 168 -335 159 -321L188 -267C196 -253 200 -253 204 -270C205 -275 206 -286 205 -304L272 -314V-229L71 -205L115 -166C135 -174 191 -187 272 -197V-100C272 -37 265 -9 248 23L281 95C289 114 296 112 299 94C303 70 306 32 306 -26V-202L440 -218C451 -219 453 -224 443 -234L417 -259C390 -246 368 -241 306 -233V-318L418 -334C436 -337 436 -342 423 -352L405 -368L420 -509C422 -530 428 -544 440 -554C449 -562 449 -565 440 -573L403 -603L380 -574L306 -562V-639L456 -653C468 -654 469 -659 458 -669ZM940 26C927 -32 917 -84 908 -147L892 -146L893 8C864 20 805 25 770 18C733 10 725 -11 725 -51V-134C775 -177 822 -214 848 -228C856 -233 857 -238 855 -247L838 -302L825 -300C816 -272 781 -217 725 -163V-234C725 -267 728 -292 735 -311C737 -317 735 -324 730 -330L702 -366L842 -381C856 -382 858 -386 847 -396L827 -416L840 -492C844 -517 850 -531 862 -540C872 -548 872 -551 862 -559L823 -590L799 -552L733 -542C736 -578 739 -591 745 -604C749 -615 748 -621 744 -626L721 -653L877 -671C897 -674 898 -677 882 -689L849 -716C823 -701 715 -685 534 -666L502 -751L492 -748C502 -601 490 -370 455 -225C430 -122 383 -12 319 73L332 83C432 -26 490 -172 514 -358L535 -343L534 -338C540 -319 542 -299 542 -251V-77C542 -35 532 -8 506 16L542 41C548 45 554 45 560 37C574 18 603 -13 673 -72L667 -85L575 -28V-175L656 -189C670 -191 671 -195 659 -207L638 -227C627 -220 605 -212 575 -206C575 -253 578 -276 586 -287C589 -291 589 -301 583 -307L546 -341C560 -350 588 -355 684 -365C690 -343 692 -317 692 -251V-41C692 13 718 43 759 51C804 61 873 58 929 43C940 41 942 37 940 26ZM700 -539L633 -529C633 -566 636 -583 641 -593C645 -602 645 -607 639 -613L612 -642L696 -651C701 -624 703 -590 700 -539ZM600 -385L515 -375C523 -479 531 -590 535 -634L590 -640C597 -617 600 -582 600 -525L531 -515L564 -482C571 -486 586 -491 600 -493ZM272 -450L203 -443L202 -514L272 -525ZM807 -524L794 -409L723 -399L731 -512ZM698 -508L691 -395L633 -388V-497ZM386 -543L374 -360L306 -348V-429L366 -438C376 -440 377 -444 368 -452L347 -471C338 -465 328 -461 306 -456V-530ZM272 -344L205 -334L203 -439L233 -414C243 -418 257 -422 272 -424Z"/>
</svg>