<svg xmlns="http://www.w3.org/2000/svg" viewBox="0 -1000 1000 1000">
	<path fill="#000000" d="M856 -548L677 -682L666 -667C711 -621 745 -584 773 -544L490 -501L598 -699C621 -740 628 -753 643 -766C650 -772 650 -778 644 -785L589 -854L576 -847C587 -788 574 -743 487 -571C454 -506 445 -498 401 -479L436 -442C441 -436 447 -436 453 -439C494 -462 550 -473 794 -517C807 -499 819 -481 831 -461C838 -451 842 -451 846 -460C854 -477 857 -503 856 -548ZM317 -640L172 -736L161 -722C216 -662 259 -606 287 -560C293 -551 297 -551 301 -558C310 -574 315 -603 317 -640ZM818 -378C822 -381 823 -386 817 -391L765 -435L736 -395L504 -360L468 -414L454 -405C463 -379 471 -338 472 -297L477 -179C478 -147 475 -132 465 -115L506 -50C512 -41 515 -40 519 -52C521 -59 522 -77 520 -122L790 -150C805 -151 808 -155 796 -165L767 -190L786 -325C790 -352 800 -366 818 -378ZM972 26L971 11C791 42 754 36 329 -72C312 -76 298 -79 284 -82C330 -189 323 -216 266 -281C314 -381 330 -411 352 -431C357 -435 358 -440 351 -446L301 -487L271 -442L48 -409L100 -369C121 -378 161 -389 277 -409L232 -278C280 -227 286 -168 253 -87C192 -97 134 -96 65 -82L113 -38C189 -65 238 -73 515 12L800 97ZM746 -360L724 -183L518 -157L510 -323Z"/>
</svg>