<svg xmlns="http://www.w3.org/2000/svg" viewBox="0 -1000 1000 1000">
	<path fill="#000000" d="M493 -695L382 -752L370 -738L475 -632C483 -624 487 -624 490 -635C494 -650 495 -673 493 -695ZM267 -672L146 -757L137 -744L239 -602C246 -593 252 -594 255 -601C262 -620 266 -644 267 -672ZM884 -472C888 -499 887 -520 883 -543L736 -621L726 -606C785 -564 838 -513 871 -471C877 -464 883 -465 884 -472ZM437 -510L327 -578L315 -567L410 -447C418 -437 424 -437 427 -447C436 -481 438 -494 437 -510ZM639 -576L604 -639L593 -634C593 -574 557 -455 499 -347L516 -337C555 -398 589 -460 611 -518C620 -541 628 -556 633 -559C641 -564 642 -569 639 -576ZM946 28L943 10C767 29 752 27 488 -65C600 -137 694 -232 771 -341C804 -388 808 -393 813 -395C821 -399 822 -405 819 -413L792 -479L777 -477C774 -438 743 -369 703 -314C704 -330 705 -350 705 -390V-726C705 -763 709 -776 717 -790C721 -797 720 -802 713 -808L661 -849L649 -840C661 -811 667 -766 667 -702V-418C667 -377 663 -356 653 -341L686 -292C605 -191 553 -142 463 -72C362 -106 295 -122 235 -120C293 -234 288 -245 232 -306C280 -432 283 -440 303 -459C310 -466 310 -472 303 -479L269 -515L241 -478L57 -441L104 -409C129 -419 154 -425 241 -442L205 -298C242 -244 246 -212 205 -119C167 -115 125 -104 73 -87L105 -54C174 -93 249 -99 360 -68C496 -31 595 7 740 78ZM548 -583L531 -589L404 -205L318 -262L308 -249C343 -214 379 -173 408 -136C417 -125 426 -125 430 -140Z"/>
</svg>