<svg xmlns="http://www.w3.org/2000/svg" viewBox="0 -1000 1000 1000">
	<path fill="#000000" d="M320 -656L175 -763L165 -749L292 -583C298 -575 302 -575 306 -583C314 -599 320 -632 320 -656ZM876 -652L835 -685C790 -671 718 -658 641 -649V-747C695 -763 737 -773 772 -779C783 -781 785 -786 779 -793L741 -841L733 -839C723 -819 648 -785 424 -710L428 -696C474 -704 521 -715 602 -737V-645L361 -620L399 -584C431 -592 473 -598 566 -608C513 -537 441 -469 322 -388L327 -376C434 -428 526 -498 602 -585V-540C602 -477 600 -466 590 -451L621 -408C630 -396 634 -397 637 -409C640 -421 641 -441 641 -539V-592C716 -537 734 -524 833 -428C842 -420 846 -420 848 -430C851 -443 848 -471 839 -511L646 -617L873 -639C883 -640 884 -646 876 -652ZM961 33L959 16C804 36 736 22 455 -75C518 -102 563 -125 601 -153C677 -119 746 -80 805 -39C815 -32 819 -34 819 -43C820 -58 814 -85 804 -110C747 -136 690 -160 633 -181C670 -218 701 -264 736 -331L897 -344C909 -345 910 -350 900 -359L857 -395C825 -383 785 -377 580 -356C586 -363 591 -368 595 -371C602 -375 602 -380 599 -386L566 -439L554 -432C554 -414 547 -386 530 -350L306 -329L360 -288C394 -297 436 -305 510 -312C496 -284 477 -252 453 -215C492 -200 530 -184 564 -169C528 -139 481 -112 422 -86C350 -111 297 -127 253 -136C306 -247 306 -262 256 -327C302 -426 317 -449 339 -465C347 -470 347 -475 340 -481L289 -520L262 -482L53 -452L101 -413C123 -420 154 -427 264 -448L225 -327C262 -272 258 -220 220 -142C176 -148 128 -145 68 -137L107 -90C178 -122 266 -109 442 -43L804 91ZM678 -326C660 -279 635 -235 595 -195C565 -207 534 -217 502 -228C524 -265 541 -293 553 -315Z"/>
</svg>