<svg xmlns="http://www.w3.org/2000/svg" viewBox="0 -1000 1000 1000">
	<path fill="#000000" d="M878 -701L845 -738C821 -726 771 -715 696 -708C708 -750 713 -763 720 -771C727 -778 728 -783 723 -790L673 -850L659 -844C666 -804 666 -779 655 -705L521 -695C517 -755 518 -762 523 -770C527 -779 524 -785 518 -789L457 -825L449 -810C466 -780 471 -764 484 -692L322 -680L370 -639C399 -647 440 -654 487 -659C491 -620 489 -596 485 -587L516 -553C523 -545 530 -547 531 -556C532 -567 530 -603 524 -661L649 -671C644 -642 639 -615 629 -582L648 -576C660 -603 673 -636 685 -674L876 -689C885 -690 885 -694 878 -701ZM292 -672L192 -780L177 -771L256 -610C265 -591 271 -591 277 -606C285 -625 289 -644 292 -672ZM806 -390L716 -458C742 -503 752 -516 760 -521C767 -526 768 -532 763 -538L718 -595L704 -590C709 -528 700 -487 615 -333L629 -323C656 -356 681 -392 705 -438L786 -332C793 -322 798 -323 801 -333C805 -346 807 -366 806 -390ZM546 -392L469 -452C482 -478 491 -492 499 -498C506 -503 508 -509 502 -517L463 -570L451 -566C454 -502 419 -403 355 -310L367 -299C398 -335 433 -382 459 -432L526 -334C533 -325 538 -325 541 -335C545 -348 547 -367 546 -392ZM873 -167L824 -204C791 -186 761 -181 607 -166V-265L786 -285C798 -286 798 -292 790 -298L748 -329C726 -315 701 -309 607 -297V-428C607 -505 611 -529 619 -541C624 -549 622 -556 616 -562L567 -613L549 -607C563 -573 569 -533 569 -455V-293L381 -272L429 -234C461 -244 492 -251 569 -260V-163L328 -141L374 -105C455 -122 560 -134 866 -153C883 -154 883 -159 873 -167ZM933 11L930 -9C743 17 716 14 483 -58C360 -94 281 -113 236 -114C309 -229 306 -250 232 -329C284 -437 289 -446 316 -473C323 -480 323 -485 316 -492L276 -532L245 -482L59 -449L106 -416C131 -425 154 -430 244 -447L203 -324C259 -255 261 -221 205 -114C167 -112 119 -104 47 -89L107 -50C186 -87 261 -89 387 -53C514 -17 586 11 716 67Z"/>
</svg>