<svg xmlns="http://www.w3.org/2000/svg" viewBox="0 -1000 1000 1000">
	<path fill="#000000" d="M623 -516L580 -545C569 -537 539 -527 514 -521L516 -542C519 -577 525 -591 537 -597C547 -602 547 -608 538 -616L495 -652L474 -619L379 -604L380 -672L575 -698C586 -699 587 -706 577 -712L532 -743C501 -726 451 -715 382 -704C382 -730 389 -770 394 -777C399 -785 399 -788 392 -795L337 -852L324 -844C332 -824 341 -752 341 -700L122 -676L184 -636C207 -646 255 -656 341 -667V-600L159 -575L209 -539C231 -546 261 -553 340 -567V-497L104 -467L157 -433C181 -443 244 -453 339 -466V-385L157 -361L200 -326C210 -330 243 -336 325 -347C318 -323 308 -297 286 -252L91 -234L141 -193C161 -202 209 -212 270 -220C252 -179 230 -144 214 -127C246 -122 285 -112 354 -89C309 -40 234 9 118 66L123 79C251 31 334 -15 390 -78C440 -60 496 -25 545 17C554 24 558 23 559 11C561 -7 557 -29 542 -61L413 -104C437 -132 459 -169 472 -197C492 -238 498 -249 507 -259C512 -265 513 -269 509 -275L472 -330L459 -326C462 -313 459 -289 452 -268L330 -256C342 -281 359 -304 365 -308C373 -313 374 -320 371 -325L354 -350L539 -375C550 -376 550 -384 541 -390L505 -414L511 -487L621 -501C632 -502 633 -509 623 -516ZM876 -704C883 -709 883 -714 876 -720L822 -762L797 -724L676 -707L643 -783L624 -777C631 -748 637 -657 637 -614V-83C637 -13 631 15 615 35L651 103C656 113 660 115 663 103C672 63 674 43 674 -59V-671L801 -689L745 -461C861 -364 851 -213 812 -167L711 -253L698 -240C746 -189 795 -116 806 -93C809 -86 814 -86 818 -91C893 -170 936 -325 778 -469L835 -647C845 -679 850 -685 876 -704ZM481 -587L477 -516L378 -502L379 -572ZM475 -483L469 -402L377 -389L378 -470ZM443 -240C428 -195 408 -160 376 -117L271 -152C283 -168 298 -195 313 -225Z"/>
</svg>