<svg xmlns="http://www.w3.org/2000/svg" viewBox="0 -1000 1000 1000">
	<path fill="#000000" d="M586 -721C593 -724 593 -729 586 -735L538 -778L508 -743L177 -696C177 -715 175 -734 171 -750L151 -749C154 -675 130 -630 91 -601L105 -546C107 -537 110 -535 116 -542C152 -585 168 -621 174 -664L504 -708L477 -643L494 -631C536 -692 553 -706 586 -721ZM589 -239L539 -272C507 -258 470 -249 352 -233C363 -250 370 -271 370 -286L311 -346L501 -370C511 -371 512 -374 504 -382L479 -407L489 -531C491 -554 497 -572 513 -586C518 -591 519 -595 511 -601L469 -636L443 -605L231 -575L202 -636L187 -630C192 -603 198 -553 199 -525L201 -421C202 -382 195 -355 185 -335L225 -273C230 -265 234 -265 237 -272C240 -281 242 -303 240 -338L290 -344L336 -231L77 -195L125 -162C206 -181 263 -190 584 -227C595 -228 597 -233 589 -239ZM864 -723L806 -772L776 -728L652 -701L621 -791L603 -787C609 -742 615 -664 615 -611V-161C615 -33 612 -10 597 26L635 103C640 113 645 114 648 102C653 82 654 56 654 -46V-669L786 -691L720 -476C769 -425 803 -370 818 -318C836 -259 819 -196 794 -180L692 -277L678 -263C714 -219 760 -146 785 -99C790 -89 795 -90 800 -97C848 -167 881 -262 856 -335C840 -382 820 -410 750 -484L825 -657C833 -676 852 -697 863 -704C872 -710 872 -716 864 -723ZM519 -67L385 -181L373 -168C434 -92 447 -71 496 17C501 27 507 27 509 17C517 -16 518 -23 519 -67ZM314 -115L284 -179L271 -176C268 -137 218 -45 87 57L97 70C162 31 213 -12 258 -61C280 -83 294 -94 310 -102C315 -105 316 -110 314 -115ZM452 -573L441 -398L238 -370L236 -443L430 -470C437 -471 439 -476 431 -482L397 -508C382 -499 344 -490 234 -472L233 -544Z"/>
</svg>