<svg xmlns="http://www.w3.org/2000/svg" viewBox="0 -1000 1000 1000">
	<path fill="#000000" d="M589 -372L550 -408L524 -375L228 -344V-418L544 -453C558 -456 560 -461 547 -470L512 -495C494 -485 446 -476 228 -450V-516L501 -545C515 -546 518 -553 504 -563L477 -582L497 -646C501 -661 511 -676 524 -685C533 -690 533 -694 525 -701L486 -739L460 -704L315 -688C343 -746 362 -780 377 -791C383 -796 384 -801 380 -807L336 -863L322 -859C327 -810 314 -756 283 -685L231 -679L196 -769L181 -764C187 -725 188 -695 189 -574V-391C189 -357 186 -338 175 -322L209 -269C215 -260 220 -260 224 -270C226 -278 228 -294 228 -311L526 -342C503 -178 472 -61 431 -6L345 -84L334 -75C370 -27 381 -11 421 59C427 69 430 70 437 61C486 0 519 -84 558 -296C563 -326 573 -344 588 -356C596 -361 596 -366 589 -372ZM889 -724L841 -768L809 -726L676 -710L640 -796L627 -792C631 -752 633 -704 633 -644V-83C633 -24 627 6 609 30L651 106C657 117 662 116 666 104C670 92 672 67 672 -6V-676L810 -692L747 -479C858 -383 867 -244 807 -174L718 -258L707 -247C737 -208 764 -167 802 -104C807 -95 811 -95 818 -103C906 -204 930 -359 779 -484L846 -655C853 -674 866 -692 887 -706C895 -712 895 -718 889 -724ZM467 -200L399 -285L389 -279L435 -144C439 -133 444 -131 451 -143C460 -160 465 -178 467 -200ZM381 -181L316 -270L303 -263L341 -125C344 -116 348 -115 355 -123C366 -137 376 -158 381 -181ZM292 -147L233 -246L222 -239L252 -103C255 -88 260 -87 268 -99C281 -117 289 -133 292 -147ZM174 -265H157C153 -180 136 -140 107 -121L129 -64C134 -52 140 -53 145 -63C172 -109 182 -181 174 -265ZM461 -671L439 -571L228 -547V-646Z"/>
</svg>