<svg xmlns="http://www.w3.org/2000/svg" viewBox="0 -1000 1000 1000">
	<path fill="#000000" d="M515 -759L468 -800L440 -762L234 -736L199 -798L186 -790C196 -755 204 -706 206 -683L212 -599C213 -573 211 -552 205 -534L239 -484C244 -477 250 -478 251 -487C253 -499 253 -505 252 -534L500 -566C508 -567 509 -570 502 -577L478 -601L489 -689C492 -715 503 -733 514 -740C523 -746 523 -752 515 -759ZM577 -511L538 -547L512 -514L176 -466L151 -522L132 -516C139 -487 141 -474 144 -436L151 -347C152 -329 151 -315 142 -301L170 -262C178 -252 183 -252 186 -265C187 -270 188 -284 188 -310L565 -358C574 -359 577 -367 569 -374L548 -392L556 -451C560 -478 566 -489 576 -495C584 -499 585 -504 577 -511ZM860 -730L814 -779L779 -742L642 -722L604 -810L587 -805C598 -765 604 -684 604 -625V-95C604 -16 596 7 583 21L617 103C622 116 630 117 634 101C638 85 641 49 641 -7V-689L783 -705L716 -514C788 -437 813 -338 812 -301C811 -247 798 -209 772 -176L685 -264L670 -251C710 -193 745 -128 757 -101C760 -94 765 -93 775 -101C825 -139 856 -215 854 -292C853 -359 832 -425 749 -514L812 -661C822 -684 840 -701 859 -712C868 -717 868 -722 860 -730ZM539 3C540 -17 538 -32 530 -71L401 -133C426 -158 449 -184 467 -211C493 -247 499 -253 519 -266C525 -270 526 -276 521 -281L482 -324L450 -289L176 -250L227 -216C262 -227 299 -236 446 -258C414 -206 394 -178 366 -149L235 -212L226 -194C273 -170 312 -147 345 -127C257 -44 212 -10 94 50L106 67C219 16 308 -37 378 -109C439 -69 480 -34 523 8C532 16 539 13 539 3ZM453 -732L441 -592L250 -565L247 -619L412 -642C427 -644 428 -648 416 -657L384 -680C349 -666 314 -657 245 -648L241 -704ZM520 -482L510 -383L427 -372L430 -469ZM394 -464L390 -367L315 -358L311 -451ZM280 -352L187 -340L181 -433L276 -447Z"/>
</svg>