<svg xmlns="http://www.w3.org/2000/svg" viewBox="0 -1000 1000 1000">
	<path fill="#000000" d="M499 -280C491 -285 480 -287 469 -290C443 -294 441 -285 452 -275C461 -265 469 -253 474 -240C353 -227 227 -215 157 -214C118 -213 116 -205 160 -184C195 -168 211 -170 245 -177C301 -189 400 -201 485 -208C491 -180 492 -145 491 -99C489 -25 469 -15 384 -34C363 -38 356 -25 371 -16C416 11 426 22 445 59C457 80 477 78 507 42C542 -1 551 -49 537 -212C604 -216 706 -218 741 -215C830 -205 840 -224 806 -250C777 -273 747 -277 710 -271C662 -263 598 -255 531 -246C528 -255 524 -262 519 -267C575 -310 604 -328 627 -334C660 -343 665 -359 631 -379C581 -409 568 -409 548 -400C494 -375 387 -356 331 -358C309 -359 307 -351 327 -337C347 -322 368 -318 392 -327C435 -340 498 -358 520 -362C562 -370 567 -356 548 -335C527 -309 511 -293 499 -280ZM488 -516C500 -505 512 -492 526 -479C539 -465 550 -469 545 -490C542 -507 534 -519 507 -540C521 -557 525 -564 532 -570C540 -577 539 -582 524 -593C502 -609 493 -605 491 -588C490 -580 486 -570 479 -558C466 -566 451 -573 434 -577C417 -582 413 -574 428 -564C439 -555 453 -546 465 -535C451 -516 431 -493 403 -467C391 -455 392 -451 404 -456C435 -468 459 -482 488 -516ZM485 -652C502 -638 514 -625 526 -613C538 -599 550 -603 549 -627C548 -649 544 -658 508 -681C523 -698 531 -709 543 -722C557 -737 556 -749 537 -758C498 -779 486 -772 496 -759C502 -753 497 -733 475 -699C467 -705 445 -714 416 -724C396 -731 393 -724 407 -714C427 -698 443 -686 458 -675C445 -657 429 -638 409 -616C401 -607 403 -604 416 -608C444 -617 463 -628 485 -652ZM668 -466C508 -451 390 -439 316 -429C310 -451 306 -472 303 -490C336 -492 375 -499 391 -503C410 -509 412 -520 404 -524C382 -536 362 -535 299 -511C294 -537 290 -557 286 -575C316 -577 343 -582 368 -592C383 -599 384 -609 373 -615C357 -624 329 -622 282 -601C274 -637 272 -649 271 -660C304 -680 349 -698 360 -701C375 -704 377 -714 355 -729C314 -757 299 -751 297 -727C296 -712 293 -705 256 -673C246 -676 233 -675 217 -673C193 -670 187 -660 199 -650C224 -629 231 -607 276 -422C223 -414 200 -411 187 -412C165 -457 150 -456 146 -435C139 -399 131 -380 108 -351C94 -335 95 -309 110 -286C119 -272 133 -272 143 -286C161 -316 172 -342 184 -384C199 -384 229 -389 300 -403C344 -411 684 -442 776 -444C795 -445 799 -439 756 -375C743 -354 747 -349 763 -358C838 -396 846 -398 884 -401C912 -403 916 -420 890 -442C868 -462 860 -466 842 -477C823 -488 814 -490 778 -480C766 -476 755 -474 718 -471C757 -656 762 -664 778 -681C794 -696 790 -708 755 -729C719 -752 706 -754 693 -747C675 -738 626 -726 594 -723C574 -721 573 -715 593 -707C611 -698 639 -697 670 -705C701 -712 708 -704 700 -643C660 -638 622 -634 581 -631C569 -630 567 -623 585 -614C603 -604 633 -603 697 -618C694 -598 691 -577 686 -556C644 -551 599 -548 573 -547C564 -547 563 -542 572 -536C596 -519 616 -518 681 -530C677 -506 673 -483 668 -466Z"/>
</svg>