<svg xmlns="http://www.w3.org/2000/svg" viewBox="0 -1000 1000 1000">
	<path fill="#000000" d="M477 -506C471 -536 466 -556 461 -571C539 -617 548 -622 566 -627C585 -633 585 -646 549 -680C528 -699 518 -695 518 -673C518 -658 485 -621 438 -582C427 -583 416 -583 406 -582C387 -581 385 -572 401 -553C421 -533 440 -482 450 -443C465 -379 471 -358 475 -351C493 -328 508 -334 501 -371C524 -377 543 -381 597 -392V-304C516 -285 506 -283 476 -281C452 -279 452 -276 468 -264C497 -241 515 -242 542 -253C580 -269 634 -285 668 -289C683 -290 691 -282 684 -266C669 -222 650 -184 626 -154C608 -166 584 -182 565 -197C528 -227 507 -231 482 -228C457 -224 457 -210 472 -204C522 -187 538 -179 601 -125C559 -85 480 -34 396 -12C365 -4 366 14 411 7C506 -8 577 -35 637 -93C675 -60 706 -33 739 -3C777 31 787 35 833 29C884 22 924 14 961 4C980 -1 978 -17 956 -20C825 -39 773 -58 668 -126C688 -154 696 -164 729 -222C745 -251 755 -266 770 -276C788 -291 788 -303 745 -328C715 -344 706 -345 685 -332C675 -326 662 -320 636 -313L637 -399C652 -402 669 -404 684 -406C718 -410 732 -407 739 -394C751 -375 768 -372 784 -413C795 -436 820 -502 831 -532C843 -568 851 -585 862 -592C879 -606 880 -621 835 -651C802 -673 797 -673 776 -662C748 -649 700 -636 677 -636C657 -636 656 -627 674 -615C697 -601 709 -599 742 -614C777 -630 791 -618 786 -589C784 -576 781 -564 779 -551C755 -562 727 -560 681 -548C661 -542 661 -537 673 -527C687 -516 701 -516 728 -522C738 -524 756 -527 774 -528C767 -500 760 -474 752 -452C746 -435 739 -429 726 -435C716 -439 699 -442 637 -431C638 -537 650 -688 660 -707C674 -738 669 -756 604 -779C572 -790 561 -781 579 -751C588 -736 596 -703 597 -638C598 -595 598 -481 597 -422C570 -416 537 -408 497 -399C491 -434 486 -463 481 -486C512 -486 554 -493 564 -498C581 -505 580 -521 566 -527C548 -537 543 -536 520 -525C511 -521 494 -513 477 -506ZM300 -248C309 -251 310 -271 300 -274C281 -279 260 -278 176 -258C162 -255 162 -244 173 -236C190 -225 241 -228 300 -248ZM294 -510C298 -530 302 -553 305 -562C313 -585 312 -604 287 -628C334 -636 373 -643 391 -648C422 -657 423 -672 401 -683C385 -692 368 -692 309 -677C249 -661 130 -638 103 -635C81 -633 81 -623 99 -616C111 -612 135 -609 163 -611C186 -556 189 -542 187 -487C161 -483 135 -480 115 -478C77 -499 66 -485 79 -465C88 -449 95 -402 97 -329C99 -239 95 -157 88 -134C80 -105 80 -86 94 -52C106 -24 128 -25 131 -103C161 -100 192 -102 263 -110C312 -116 321 -109 330 -58C336 -25 350 -20 366 -44C390 -80 403 -131 399 -237C394 -375 396 -436 404 -451C419 -478 420 -491 379 -510C343 -526 336 -525 294 -510ZM219 -493C220 -519 223 -554 225 -565C228 -586 225 -592 195 -615C216 -617 231 -619 253 -623C266 -588 268 -558 262 -502C249 -500 234 -497 219 -493ZM258 -472C247 -366 256 -349 303 -341C322 -338 340 -345 342 -359C343 -368 336 -374 312 -376C289 -378 280 -402 289 -475C338 -480 345 -475 348 -431C352 -350 353 -219 347 -175C337 -110 332 -108 310 -136C300 -150 288 -156 207 -139C166 -131 152 -129 132 -129C134 -315 134 -368 131 -454C147 -453 164 -454 186 -458C184 -400 173 -353 152 -312C143 -294 149 -290 164 -305C198 -339 216 -401 219 -465C234 -468 248 -470 258 -472Z"/>
</svg>