<svg xmlns="http://www.w3.org/2000/svg" viewBox="0 -1000 1000 1000">
	<path fill="#000000" d="M588 -399C578 -417 555 -422 529 -417C512 -414 505 -402 523 -390C538 -380 556 -372 573 -370C590 -368 597 -383 588 -399ZM789 -442C781 -454 756 -461 733 -453C712 -446 711 -434 724 -428C743 -417 757 -413 775 -411C796 -408 802 -421 789 -442ZM600 -481C591 -497 573 -506 545 -501C530 -499 527 -488 540 -475C550 -465 566 -457 582 -453C597 -450 609 -466 600 -481ZM776 -527C765 -537 744 -546 725 -540C702 -533 698 -525 712 -516C728 -505 741 -499 765 -497C789 -495 793 -513 776 -527ZM509 -181C530 -187 551 -191 573 -194C572 -138 575 -109 580 -87C584 -68 598 -68 605 -90C610 -106 615 -141 612 -201C637 -205 660 -209 681 -212C678 -120 678 -105 679 -62C679 -27 695 -25 706 -52C721 -88 732 -167 727 -219C749 -223 766 -225 777 -226C819 -230 833 -224 834 -196C835 -154 831 -124 822 -83C817 -59 800 -56 769 -66C749 -72 741 -65 753 -52C773 -31 793 -5 801 16C807 34 817 37 832 23C862 -6 880 -45 886 -108C893 -175 898 -198 908 -210C925 -231 925 -240 879 -265C844 -283 836 -282 804 -269C794 -265 729 -250 627 -232C634 -243 640 -252 651 -268C665 -283 665 -291 644 -311C680 -318 724 -330 774 -344C809 -354 816 -367 806 -374C789 -385 761 -387 738 -379C682 -360 568 -329 524 -325C502 -322 501 -307 524 -302C542 -297 570 -298 608 -304C609 -279 604 -259 590 -225C560 -219 527 -213 492 -207C447 -224 433 -214 448 -189C460 -172 477 -122 479 -76C480 -42 482 -37 495 -23C502 -14 512 -15 516 -25C522 -38 525 -56 524 -77C523 -105 516 -147 509 -181ZM625 -685C633 -663 637 -635 637 -601C593 -591 548 -583 518 -578C497 -611 490 -608 485 -582C479 -552 470 -533 454 -511C450 -505 452 -481 458 -464C464 -445 476 -443 488 -455C500 -469 512 -500 520 -554C537 -553 554 -554 573 -559C596 -565 617 -570 637 -574C633 -445 636 -411 640 -400C651 -369 664 -372 671 -399C676 -417 679 -442 679 -467C679 -495 678 -551 678 -582C720 -590 754 -596 778 -600C824 -606 832 -590 805 -544C795 -526 804 -522 817 -533C858 -564 880 -572 904 -577C930 -582 932 -604 885 -633C849 -655 837 -653 804 -641C787 -635 736 -622 678 -610C679 -624 679 -635 680 -638C686 -667 683 -678 669 -692C702 -699 737 -709 772 -721C801 -731 799 -752 784 -757C759 -765 740 -764 710 -752C659 -731 593 -716 538 -710C518 -708 516 -693 539 -686C557 -680 588 -680 625 -685ZM320 -265C333 -270 330 -286 320 -290C301 -295 273 -294 193 -273C180 -270 180 -260 191 -252C211 -240 263 -244 320 -265ZM317 -520C319 -562 320 -572 325 -584C335 -609 333 -620 309 -643C371 -654 403 -661 416 -665C445 -675 446 -692 426 -701C405 -709 387 -709 324 -692C266 -677 175 -659 122 -653C99 -650 99 -641 117 -634C132 -627 167 -624 187 -624C205 -577 205 -553 203 -497C183 -493 162 -491 146 -490C101 -513 90 -502 103 -478C113 -463 118 -417 120 -344C122 -255 118 -172 111 -149C102 -121 102 -103 117 -67C128 -35 143 -37 156 -122C191 -118 226 -119 283 -128C334 -135 349 -126 359 -71C365 -38 375 -34 390 -60C410 -98 419 -146 415 -252C410 -390 412 -452 420 -467C435 -500 433 -508 400 -525C366 -543 358 -544 317 -520ZM239 -502C238 -556 239 -568 244 -586C248 -605 247 -611 221 -629C239 -631 257 -635 273 -637C285 -610 287 -568 280 -509C268 -507 254 -504 239 -502ZM276 -485C267 -388 279 -365 327 -356C344 -353 359 -362 361 -375C362 -384 353 -389 335 -392C314 -394 306 -406 314 -489C359 -491 362 -483 364 -446C369 -345 370 -224 367 -196C360 -137 347 -135 331 -157C319 -174 302 -176 227 -160C194 -153 173 -149 158 -149C161 -228 160 -374 157 -466C169 -465 183 -466 203 -471C199 -395 195 -373 173 -328C162 -304 168 -298 188 -318C217 -348 236 -406 239 -478C254 -481 266 -483 276 -485Z"/>
</svg>