<svg xmlns="http://www.w3.org/2000/svg" viewBox="0 -1000 1000 1000">
	<path fill="#000000" d="M261 -173C273 -200 255 -241 194 -252C184 -255 182 -252 185 -243C194 -217 203 -199 225 -169C237 -153 252 -156 261 -173ZM480 -264C492 -274 486 -287 443 -311C430 -318 417 -307 420 -299C426 -284 421 -268 383 -206C375 -195 386 -187 401 -199C431 -223 443 -233 480 -264ZM691 -328C679 -356 661 -373 607 -394C575 -405 562 -399 580 -372C610 -329 632 -303 653 -278C668 -261 704 -295 691 -328ZM657 -517C683 -507 705 -504 716 -506C748 -513 771 -517 802 -521C819 -523 828 -516 818 -484C784 -368 748 -290 713 -237C647 -138 557 -64 425 5C390 24 396 37 441 24C539 -5 641 -67 700 -134C772 -217 809 -290 866 -425C888 -480 900 -500 914 -510C938 -527 936 -543 889 -569C854 -588 842 -587 819 -575C786 -557 734 -543 676 -541C691 -560 706 -582 721 -606C748 -647 757 -660 774 -673C794 -687 797 -705 741 -740C698 -766 685 -757 697 -722C705 -697 685 -655 629 -565C595 -510 559 -465 499 -407C487 -396 496 -387 516 -400C573 -435 615 -470 657 -517ZM367 -672C375 -687 381 -693 385 -697C405 -717 407 -729 362 -756C314 -785 300 -766 313 -745C323 -727 312 -687 271 -614C221 -522 128 -402 63 -348C46 -334 51 -320 72 -332C115 -354 150 -381 210 -446C232 -437 258 -433 307 -437C316 -425 317 -415 316 -348C246 -332 219 -326 203 -321C188 -317 188 -311 210 -304C224 -299 267 -300 314 -306L308 -127C283 -120 257 -112 244 -108C188 -91 161 -89 130 -93C111 -96 106 -83 118 -68C158 -22 175 -19 200 -34C235 -55 301 -81 481 -150C506 -160 504 -175 482 -172C471 -170 405 -154 353 -139L359 -314C397 -322 434 -336 455 -349C468 -359 471 -370 454 -374C441 -377 421 -375 362 -361C363 -384 365 -398 366 -401C370 -417 368 -429 344 -441C374 -447 406 -455 438 -468C478 -483 472 -501 448 -504C418 -508 375 -499 335 -483C307 -473 257 -464 223 -462C267 -512 321 -588 360 -658C386 -634 429 -604 464 -584C492 -569 501 -573 500 -602C499 -637 453 -669 367 -672Z"/>
</svg>