<svg xmlns="http://www.w3.org/2000/svg" viewBox="0 -1000 1000 1000">
	<path fill="#000000" d="M237 -167C248 -200 237 -225 179 -242C165 -246 161 -237 165 -229C182 -195 192 -177 205 -159C217 -143 231 -146 237 -167ZM463 -253C474 -263 476 -279 426 -301C412 -307 401 -302 404 -284C407 -265 404 -252 371 -198C362 -183 370 -178 384 -189C413 -213 425 -223 463 -253ZM317 -447C347 -452 372 -459 411 -474C452 -489 447 -508 424 -511C393 -515 371 -512 304 -487C282 -479 247 -472 221 -468C253 -510 285 -562 324 -638C356 -616 387 -595 425 -570C451 -552 465 -567 459 -598C452 -630 415 -654 335 -658C341 -669 345 -673 354 -681C374 -701 375 -717 329 -742C286 -764 272 -755 282 -726C288 -709 276 -672 245 -608C192 -503 142 -427 61 -352C46 -338 51 -327 69 -338C126 -373 167 -405 205 -449C225 -442 250 -440 282 -442C292 -427 293 -405 291 -343C255 -334 209 -324 179 -318C163 -315 163 -308 185 -301C199 -296 241 -299 289 -306L284 -114C209 -92 138 -80 112 -85C88 -88 83 -73 99 -57C144 -12 153 -11 184 -29C215 -46 258 -65 442 -133C467 -142 463 -158 441 -156C404 -153 382 -147 331 -130L336 -314C375 -322 413 -333 436 -344C452 -351 456 -368 439 -371C416 -376 393 -376 338 -359C340 -386 342 -402 343 -405C348 -422 344 -434 317 -447ZM749 -652C755 -712 703 -741 623 -747C588 -750 585 -743 601 -726C660 -665 693 -636 707 -625C733 -607 746 -616 749 -652ZM637 -456C652 -400 555 -172 393 -49C373 -33 381 -25 400 -33C507 -78 617 -205 683 -371C763 -340 770 -327 769 -292C768 -233 731 -136 695 -83C674 -52 664 -51 597 -90C570 -105 561 -99 577 -74C607 -29 630 10 637 39C641 54 647 59 671 45C744 5 781 -71 814 -217C824 -261 836 -282 853 -297C868 -308 868 -319 831 -358C808 -380 786 -386 751 -386C736 -386 718 -389 695 -396C699 -403 704 -411 707 -416C714 -429 709 -438 668 -465C747 -482 839 -493 922 -491C984 -490 992 -516 940 -543C906 -560 876 -557 803 -535C725 -511 505 -464 458 -459C433 -457 431 -450 447 -441C489 -417 505 -416 537 -427C579 -440 604 -447 637 -456Z"/>
</svg>