<svg xmlns="http://www.w3.org/2000/svg" viewBox="0 -1000 1000 1000">
	<path fill="#000000" d="M216 -208C228 -235 214 -278 153 -290C143 -292 137 -286 142 -274C153 -243 162 -229 182 -202C194 -186 206 -191 216 -208ZM435 -282C446 -292 441 -306 398 -330C379 -340 370 -330 376 -317C383 -305 376 -279 343 -225C334 -210 342 -207 356 -217C386 -242 397 -252 435 -282ZM299 -472C323 -476 350 -482 383 -491C418 -501 417 -516 395 -526C372 -537 353 -534 292 -513C268 -505 230 -495 204 -488C248 -539 286 -596 323 -663C368 -622 388 -606 410 -593C437 -578 447 -582 446 -613C445 -646 409 -672 334 -683C340 -692 349 -701 354 -707C370 -726 366 -739 329 -763C285 -793 268 -779 282 -752C292 -732 280 -687 242 -623C192 -536 148 -475 61 -388C42 -369 49 -358 72 -372C115 -401 149 -430 188 -470C207 -465 229 -463 262 -466C272 -449 276 -425 276 -377C241 -368 207 -360 166 -349C151 -345 151 -339 172 -332C189 -327 218 -327 275 -338L269 -156C254 -150 236 -144 217 -138C173 -124 136 -118 106 -120C72 -121 69 -111 90 -92C134 -52 142 -51 171 -67C219 -93 256 -110 425 -181C450 -192 446 -208 425 -203C390 -195 359 -186 315 -170L320 -347C367 -360 392 -368 416 -377C431 -383 432 -401 417 -406C397 -412 382 -411 323 -392C325 -412 327 -421 331 -427C341 -442 331 -456 299 -472ZM730 -444C777 -448 836 -449 886 -448C936 -447 943 -472 884 -497C857 -508 823 -507 794 -499C726 -480 646 -467 570 -457C573 -512 574 -560 574 -611C755 -664 771 -668 811 -676C840 -682 841 -703 782 -731C734 -755 721 -749 719 -722C718 -708 679 -675 565 -634C494 -663 485 -653 503 -617C527 -571 524 -434 500 -317C480 -219 462 -169 397 -80C376 -53 381 -47 406 -65C496 -127 551 -240 568 -430C596 -430 615 -432 694 -441C703 -419 704 -387 703 -262C702 -155 702 -107 702 -88C702 -36 706 16 710 31C718 61 727 60 739 27C753 -11 759 -68 756 -227C755 -328 759 -375 764 -388C773 -412 773 -421 730 -444Z"/>
</svg>