<svg xmlns="http://www.w3.org/2000/svg" viewBox="0 -1000 1000 1000">
	<path fill="#000000" d="M557 -703C574 -753 549 -790 462 -800C422 -804 419 -798 442 -769C466 -740 479 -723 506 -692C523 -673 547 -677 557 -703ZM829 -577C862 -578 867 -598 805 -649C755 -689 737 -690 702 -676C694 -673 668 -670 605 -663C555 -658 490 -649 414 -637C345 -625 302 -618 266 -617C250 -670 225 -672 218 -640C212 -612 197 -575 183 -551C159 -508 156 -492 166 -467C177 -440 191 -438 212 -460C245 -494 261 -541 267 -588C303 -586 343 -589 429 -605C529 -623 653 -635 691 -633C734 -630 738 -620 692 -567C674 -546 679 -531 709 -548C743 -566 785 -576 829 -577ZM945 -82C975 -87 972 -103 937 -111C755 -157 681 -189 506 -366C506 -372 506 -378 507 -384C554 -391 612 -399 674 -407C731 -414 734 -451 692 -459C656 -466 637 -464 586 -447C565 -440 537 -432 508 -425C510 -466 513 -487 517 -496C529 -524 518 -544 463 -559C423 -569 417 -553 435 -529C450 -510 457 -477 460 -414C385 -399 310 -387 288 -387C238 -387 232 -370 273 -356C298 -347 332 -345 392 -362C404 -365 422 -369 444 -373C393 -277 255 -129 156 -68C131 -53 132 -40 163 -49C261 -78 387 -180 463 -308C464 -218 459 -113 451 -81C439 -21 441 -11 454 21C467 50 475 61 486 61C495 61 504 48 510 21C518 -11 518 -37 515 -80C511 -133 506 -217 506 -322C584 -229 670 -137 711 -98C747 -65 763 -60 819 -65C847 -67 888 -72 945 -82Z"/>
</svg>