<svg xmlns="http://www.w3.org/2000/svg" viewBox="0 -1000 1000 1000">
	<path fill="#000000" d="M584 -712C576 -756 540 -784 474 -779C436 -776 434 -767 456 -745C480 -718 514 -690 537 -677C569 -659 590 -679 584 -712ZM834 -578C870 -586 871 -606 813 -649C757 -689 738 -690 707 -672C700 -668 653 -659 525 -635C441 -620 349 -605 309 -602C288 -657 271 -651 264 -613C259 -586 241 -551 230 -538C207 -509 203 -500 210 -478C220 -444 243 -447 273 -483C293 -508 307 -548 311 -577C339 -570 366 -572 452 -590C546 -610 646 -624 695 -627C741 -630 743 -612 711 -555C695 -526 699 -522 731 -540C766 -558 800 -570 834 -578ZM963 -18C1003 -28 1003 -47 956 -49C756 -59 676 -75 533 -152L538 -291C582 -279 661 -291 697 -307C721 -318 720 -334 686 -344C650 -354 633 -350 538 -311C541 -360 546 -389 548 -396C552 -412 546 -423 516 -437C549 -444 591 -454 645 -467C686 -477 687 -491 661 -502C635 -513 607 -515 580 -507C517 -490 450 -474 378 -459C352 -454 353 -447 380 -432C400 -421 421 -419 477 -428C488 -414 492 -397 492 -357L489 -176C445 -201 398 -230 364 -254C374 -277 383 -295 385 -298C402 -317 398 -329 365 -352C330 -375 315 -370 319 -343C323 -317 320 -299 302 -251C276 -180 231 -122 147 -46C131 -31 135 -22 157 -31C222 -55 309 -140 351 -227C390 -205 417 -185 448 -160C491 -124 573 -68 668 -10C710 16 747 26 785 21C826 15 877 4 963 -18Z"/>
</svg>