<svg xmlns="http://www.w3.org/2000/svg" viewBox="0 -1000 1000 1000">
	<path fill="#000000" d="M590 -272C648 -283 714 -292 762 -297C802 -301 848 -302 897 -300C945 -298 951 -317 927 -336C900 -356 863 -361 818 -349C772 -337 684 -320 601 -307C534 -296 494 -293 470 -293C440 -293 437 -281 463 -268C493 -253 504 -252 545 -262C557 -238 558 -210 556 -143C555 -101 549 -78 534 -66C516 -52 516 -40 528 -17C539 7 547 9 572 -3C618 -26 724 -39 850 -30C910 -26 917 -43 880 -70C852 -90 823 -92 774 -83C728 -74 653 -67 592 -64C593 -136 600 -190 608 -219C614 -242 614 -255 590 -272ZM722 -381C724 -414 702 -431 641 -447C616 -454 608 -439 626 -418C649 -389 660 -380 684 -360C697 -349 721 -347 722 -381ZM773 -580C813 -585 850 -587 877 -587C921 -588 933 -607 910 -623C885 -642 860 -643 783 -622C795 -669 805 -693 815 -713C828 -734 828 -749 760 -780C736 -790 724 -780 738 -755C748 -737 751 -699 736 -611C692 -602 648 -593 610 -586C607 -615 606 -640 606 -664C606 -703 598 -712 555 -719C510 -726 505 -714 529 -690C543 -676 556 -644 567 -579C535 -574 509 -571 491 -569C461 -566 460 -558 493 -543C512 -535 524 -533 573 -545C581 -490 595 -459 606 -463C614 -466 621 -476 613 -555C648 -562 690 -570 730 -575C725 -545 717 -512 710 -480C702 -442 717 -440 730 -462C740 -479 755 -513 773 -580ZM250 -150C255 -182 242 -205 194 -230C172 -241 167 -232 173 -215C188 -183 204 -158 216 -146C233 -128 247 -132 250 -150ZM445 -228C462 -234 462 -246 432 -266C403 -285 391 -280 393 -265C395 -248 384 -211 365 -183C354 -166 357 -161 370 -169C387 -178 407 -194 427 -213C435 -222 440 -226 445 -228ZM347 -643C353 -653 361 -667 368 -675C387 -697 385 -709 342 -731C296 -756 289 -748 297 -719C304 -693 299 -669 265 -592C217 -484 155 -381 84 -306C66 -287 72 -278 91 -292C135 -322 172 -358 206 -401C227 -395 252 -394 289 -399C298 -379 300 -360 299 -318C272 -310 244 -303 203 -296C184 -293 181 -282 204 -273C219 -267 248 -267 298 -278L294 -108C248 -96 182 -83 150 -86C110 -89 104 -78 147 -43C173 -21 189 -20 217 -35C232 -43 274 -62 451 -131C469 -138 473 -145 468 -154C464 -160 452 -160 334 -121L340 -289C365 -295 394 -303 427 -313C456 -322 457 -337 436 -345C413 -354 387 -352 342 -334C344 -350 345 -360 349 -371C354 -390 353 -401 340 -410C361 -416 385 -423 410 -432C439 -441 440 -451 427 -462C411 -474 381 -475 349 -462C314 -446 262 -432 223 -423C259 -474 294 -537 335 -619C357 -598 390 -571 415 -554C437 -538 451 -547 448 -578C446 -608 421 -625 347 -643Z"/>
</svg>