<svg xmlns="http://www.w3.org/2000/svg" viewBox="0 -1000 1000 1000">
	<path fill="#000000" d="M175 -160C186 -189 170 -229 123 -242C114 -244 109 -241 112 -231C127 -184 134 -170 143 -157C154 -139 166 -139 175 -160ZM372 -231C392 -238 394 -251 350 -281C331 -294 318 -284 322 -272C326 -260 318 -240 281 -186C274 -177 286 -169 295 -176C344 -214 358 -225 372 -231ZM256 -432C272 -436 297 -443 314 -448C356 -462 361 -476 337 -482C303 -490 291 -487 250 -474C231 -468 204 -458 179 -449C211 -496 232 -532 275 -614C290 -599 314 -578 348 -548C373 -525 390 -537 389 -564C387 -600 356 -618 285 -631C292 -645 298 -654 302 -657C325 -677 323 -694 275 -720C233 -743 217 -737 230 -705C239 -683 230 -638 199 -577C141 -462 112 -418 40 -338C29 -327 39 -320 51 -329C95 -358 124 -380 163 -429C184 -422 199 -420 222 -424C228 -413 230 -395 229 -347C200 -339 160 -330 120 -324C109 -321 107 -309 121 -304C147 -296 179 -295 229 -305L226 -106C149 -80 127 -77 88 -77C60 -77 54 -68 70 -52C112 -10 125 -9 146 -25C152 -29 162 -34 204 -55C233 -69 278 -91 343 -116C374 -129 364 -149 331 -139C312 -133 285 -126 266 -120L269 -314C290 -320 313 -327 338 -335C362 -342 363 -354 349 -364C336 -371 327 -372 270 -358C271 -374 272 -388 273 -394C275 -416 274 -422 256 -432ZM507 -366C515 -392 499 -399 489 -374C478 -350 455 -301 435 -261C403 -194 394 -180 388 -182C365 -189 355 -174 394 -99C407 -72 431 -73 434 -104C438 -150 455 -211 507 -366ZM473 -408C475 -441 461 -456 395 -471C372 -476 363 -466 379 -448C399 -428 418 -407 435 -386C451 -369 471 -379 473 -408ZM496 -577C498 -614 480 -630 427 -647C397 -656 391 -646 404 -627C425 -599 445 -570 456 -557C473 -536 494 -544 496 -577ZM667 -333C687 -307 709 -278 736 -239C763 -200 801 -148 831 -110C850 -86 867 -83 971 -93C990 -95 991 -109 972 -116C871 -156 831 -177 740 -292C797 -334 817 -349 841 -360C860 -369 863 -378 817 -420C799 -437 788 -428 789 -409C791 -384 769 -351 722 -313C705 -334 683 -356 667 -372C668 -400 670 -430 670 -441C751 -486 781 -499 809 -508C830 -515 832 -527 800 -559C774 -585 759 -581 759 -555C759 -540 720 -506 662 -465C617 -486 605 -477 614 -452C632 -401 631 -238 624 -150C619 -106 613 -76 603 -60C583 -28 580 -16 595 11C611 42 628 38 638 16C661 -32 696 -85 740 -142C753 -161 743 -169 728 -156C710 -140 690 -119 663 -91C666 -178 667 -230 667 -333ZM568 -594C521 -610 512 -600 525 -573C534 -552 544 -450 535 -344C521 -196 484 -100 415 -14C393 14 405 24 427 6C515 -65 558 -147 575 -343C587 -476 589 -541 584 -574C715 -629 745 -641 770 -646C795 -651 800 -670 745 -717C728 -732 717 -730 711 -706C704 -676 665 -648 568 -594Z"/>
</svg>