<svg xmlns="http://www.w3.org/2000/svg" viewBox="0 -1000 1000 1000">
	<path fill="#000000" d="M574 -46C568 -89 567 -132 569 -158C599 -160 629 -164 709 -177C730 -180 737 -173 736 -147C734 -107 728 -88 718 -73C690 -64 662 -59 574 -46ZM531 -456C485 -482 470 -471 484 -443C492 -423 494 -367 475 -268C461 -186 405 -98 361 -51C327 -15 332 -3 370 -33C421 -72 466 -123 495 -182C513 -161 532 -103 533 -43C533 -26 536 -12 545 11C554 33 574 33 577 -15C616 -18 672 -24 772 -38C800 -42 807 -59 776 -80C794 -129 802 -143 821 -159C837 -171 834 -181 799 -204C766 -226 751 -227 728 -216C702 -205 610 -192 554 -187C543 -191 528 -195 502 -199C509 -216 515 -233 521 -251C574 -253 618 -259 657 -267C680 -272 685 -271 695 -261C705 -249 719 -251 730 -272C736 -284 745 -312 752 -347C765 -404 771 -421 786 -438C797 -450 791 -462 760 -479C727 -497 719 -499 698 -490C673 -480 584 -459 531 -456ZM539 -367C541 -386 542 -407 543 -429C596 -438 632 -445 676 -453C703 -458 709 -456 707 -412C705 -377 700 -342 692 -306C690 -298 685 -298 671 -301C663 -303 647 -300 527 -276C532 -298 535 -319 537 -343C577 -343 618 -351 667 -366C682 -370 686 -378 675 -388C663 -401 646 -400 626 -390C598 -378 568 -369 539 -367ZM671 -528C671 -560 647 -575 587 -585C569 -588 567 -581 580 -564C594 -546 615 -524 637 -509C654 -497 671 -503 671 -528ZM622 -692C714 -576 733 -554 775 -508C801 -479 810 -473 935 -483C983 -487 980 -502 938 -514C835 -544 784 -566 635 -716C641 -726 649 -737 661 -749C670 -759 669 -762 633 -786C581 -819 563 -808 576 -782C585 -764 577 -724 534 -639C472 -518 430 -468 373 -413C359 -400 366 -395 384 -404C463 -450 524 -513 622 -692ZM205 -195C212 -225 204 -237 155 -266C138 -275 133 -273 137 -258C148 -218 152 -206 162 -187C176 -160 199 -165 205 -195ZM398 -260C421 -273 419 -281 376 -318C365 -328 356 -322 357 -305C358 -286 351 -271 313 -223C296 -202 304 -193 328 -210C367 -239 383 -250 398 -260ZM302 -676C310 -695 319 -708 324 -714C340 -734 339 -747 290 -771C249 -790 235 -780 247 -754C256 -734 248 -692 212 -609C182 -541 135 -464 57 -384C36 -363 44 -351 68 -368C104 -393 135 -418 164 -450C181 -449 205 -450 233 -453C241 -438 247 -413 247 -364C204 -351 180 -346 155 -344C130 -342 128 -331 150 -324C175 -315 194 -315 247 -324L245 -138C179 -119 128 -108 100 -109C67 -110 62 -100 96 -71C128 -43 137 -40 154 -51C211 -85 253 -104 387 -160C427 -176 421 -186 400 -182C377 -179 354 -174 289 -153V-333C313 -338 339 -345 358 -350C390 -360 394 -376 372 -384C352 -393 343 -392 290 -376C292 -395 296 -410 302 -420C307 -431 306 -440 276 -458C315 -464 338 -469 359 -475C395 -485 395 -501 369 -510C345 -518 319 -516 290 -504C272 -497 236 -487 189 -480C226 -526 258 -585 295 -659C327 -629 354 -601 374 -575C399 -546 421 -549 422 -592C423 -617 379 -648 302 -676Z"/>
</svg>