<svg xmlns="http://www.w3.org/2000/svg" viewBox="0 -1000 1000 1000">
	<path fill="#000000" d="M216 -196C214 -227 203 -244 154 -260C146 -262 144 -260 146 -251C155 -222 163 -207 182 -180C194 -162 218 -170 216 -196ZM389 -251C401 -260 398 -270 362 -294C340 -308 331 -299 338 -281C342 -271 335 -248 314 -206C303 -187 316 -182 330 -199C348 -219 371 -240 389 -251ZM276 -454C300 -459 328 -468 356 -477C394 -490 392 -510 365 -513C339 -516 319 -512 267 -491C239 -481 220 -476 199 -473C232 -521 263 -584 287 -646C325 -613 352 -588 364 -575C378 -558 402 -559 398 -589C392 -634 383 -640 297 -665C303 -675 308 -682 314 -688C326 -705 323 -714 281 -740C245 -763 227 -751 236 -730C244 -715 238 -681 225 -641C182 -515 125 -422 57 -346C32 -318 44 -308 68 -328C113 -363 152 -403 186 -453C201 -448 218 -446 238 -447C248 -431 251 -402 252 -348C215 -335 190 -329 166 -327C145 -325 142 -315 166 -308C189 -302 218 -301 252 -309L251 -131C152 -97 126 -93 92 -93C67 -93 63 -84 90 -64C134 -33 151 -35 168 -46C195 -65 240 -88 392 -154C420 -166 419 -183 387 -174C356 -165 321 -155 293 -145L296 -318C324 -326 353 -335 385 -346C408 -354 406 -371 381 -376C360 -380 343 -377 296 -363C297 -387 301 -405 307 -416C314 -427 307 -438 276 -454ZM557 -266C553 -280 547 -297 542 -312C607 -311 662 -322 695 -338C717 -347 713 -360 685 -362C671 -362 626 -354 537 -331C532 -347 528 -363 524 -375C630 -395 715 -408 732 -408C760 -409 764 -405 762 -385C761 -372 748 -336 730 -299C724 -287 719 -284 703 -287C697 -289 681 -286 557 -266ZM503 -398C463 -412 452 -397 473 -373C484 -363 510 -300 524 -257C535 -225 554 -221 560 -238C579 -241 596 -244 611 -247C616 -234 618 -212 619 -172C528 -159 466 -153 420 -149C398 -148 395 -141 425 -124C454 -107 466 -107 504 -119C524 -125 570 -133 619 -140C618 19 618 50 623 80C627 107 642 109 650 84C657 68 664 17 665 -5C668 -68 669 -121 669 -147C765 -159 836 -162 896 -158C942 -155 944 -178 910 -199C882 -215 856 -218 825 -211C771 -199 715 -188 669 -179C670 -191 671 -198 674 -207C678 -219 674 -229 632 -250C709 -263 717 -260 724 -250C732 -240 743 -241 755 -257C767 -269 775 -281 788 -309C812 -354 825 -374 837 -384C855 -402 853 -412 803 -438C776 -451 767 -451 753 -445C737 -437 609 -412 503 -398ZM573 -487C548 -482 524 -478 508 -475C501 -500 491 -524 478 -550C502 -554 534 -559 566 -564ZM660 -504C644 -501 622 -497 599 -492V-569C626 -573 650 -577 668 -580ZM708 -588C759 -599 772 -601 777 -601C797 -601 802 -595 798 -584C788 -556 780 -542 770 -526C764 -518 756 -516 739 -518C735 -518 717 -516 690 -510ZM668 -688C674 -668 675 -647 671 -606C649 -603 625 -599 599 -594C598 -643 593 -656 570 -673C603 -677 636 -683 668 -688ZM542 -672C549 -651 559 -614 563 -589C526 -584 489 -579 456 -575C450 -578 441 -580 432 -581C409 -583 400 -572 418 -554C424 -548 442 -518 475 -462C486 -444 497 -438 504 -438C510 -438 514 -442 514 -450C543 -456 598 -466 618 -469C744 -490 762 -492 767 -488C776 -480 785 -481 796 -492C823 -526 862 -565 883 -579C906 -595 906 -606 866 -631C835 -652 824 -651 803 -641C786 -633 753 -623 714 -615C718 -631 722 -647 724 -651C728 -665 726 -674 696 -693C731 -701 763 -709 790 -718C829 -731 824 -751 794 -758C781 -761 766 -759 733 -750C647 -726 579 -712 509 -703C467 -697 467 -690 493 -680C501 -677 525 -673 542 -672Z"/>
</svg>