<svg xmlns="http://www.w3.org/2000/svg" viewBox="0 -1000 1000 1000">
	<path fill="#000000" d="M624 -508C649 -516 679 -526 714 -541C731 -547 733 -556 720 -564C709 -570 686 -569 660 -557C647 -552 636 -548 625 -544C627 -554 629 -565 632 -576C636 -589 632 -595 611 -606C663 -614 733 -623 754 -625C781 -628 783 -624 750 -569C743 -557 752 -550 766 -558C794 -576 829 -589 858 -592C882 -594 886 -609 870 -622C846 -642 835 -650 806 -665C799 -670 794 -670 768 -663C734 -655 706 -650 640 -637L644 -712C688 -709 732 -713 770 -727C784 -732 784 -743 773 -750C752 -762 720 -763 700 -754C680 -745 662 -740 646 -738C647 -746 648 -752 649 -756C653 -771 648 -780 602 -792C568 -801 558 -791 574 -768C595 -740 601 -706 600 -629C561 -622 527 -616 489 -610C428 -631 422 -625 437 -591C452 -559 455 -461 433 -322C411 -186 358 -77 269 20C255 37 266 44 283 32C438 -86 508 -280 499 -584C529 -590 561 -596 576 -600C587 -586 591 -567 588 -530C553 -517 538 -513 520 -508C505 -505 504 -489 516 -489C540 -489 560 -491 589 -498C595 -458 623 -437 659 -436C717 -434 768 -442 805 -459C822 -468 823 -485 814 -493C807 -500 803 -509 796 -538C791 -554 780 -554 777 -532C772 -498 769 -496 750 -487C722 -475 684 -470 653 -472C636 -473 627 -487 624 -508ZM595 -358C589 -342 556 -309 480 -262C469 -255 473 -244 488 -249C530 -264 571 -286 597 -305C601 -300 604 -296 607 -291C588 -256 537 -209 454 -149C445 -143 448 -138 458 -141C523 -165 585 -204 628 -251C631 -245 633 -239 635 -232C590 -164 505 -89 418 -38C406 -31 408 -21 418 -24C511 -56 595 -113 648 -179C657 -134 657 -90 648 -57C640 -25 628 -21 561 -41C548 -45 545 -33 554 -26C587 3 607 29 615 51C619 62 631 64 649 47C702 1 719 -100 677 -221C684 -227 692 -232 699 -237C732 -197 757 -164 789 -122C823 -77 837 -72 948 -92C981 -98 981 -108 950 -118C855 -147 816 -167 720 -251C757 -277 763 -280 808 -303C835 -316 834 -329 786 -348C753 -362 748 -360 745 -333C743 -317 716 -283 668 -243C658 -270 644 -290 613 -318C630 -333 638 -339 642 -342C651 -348 651 -351 643 -366C709 -377 750 -386 762 -392C774 -397 774 -408 762 -413C745 -420 725 -419 708 -415C651 -400 602 -390 535 -381C523 -379 523 -371 534 -367C554 -360 571 -356 595 -358ZM212 -202C214 -233 203 -249 163 -258C136 -263 134 -261 143 -242C153 -218 170 -199 184 -188C195 -177 211 -186 212 -202ZM395 -271C409 -278 410 -286 383 -312C365 -329 350 -326 352 -310C355 -290 339 -260 314 -225C304 -212 314 -206 325 -215C364 -250 383 -265 395 -271ZM288 -453C322 -464 332 -467 369 -479C394 -487 395 -503 378 -509C358 -517 342 -517 318 -507C292 -497 226 -475 194 -467C231 -521 260 -574 298 -656C319 -636 351 -612 384 -590C410 -573 419 -579 416 -609C412 -641 385 -660 302 -665C307 -677 314 -687 320 -693C339 -713 335 -727 289 -754C253 -775 235 -765 247 -742C255 -725 249 -679 219 -609C167 -487 118 -411 46 -333C31 -317 39 -309 54 -319C100 -350 145 -397 184 -451C206 -445 227 -442 241 -444C250 -427 253 -411 253 -368C228 -360 180 -346 159 -342C142 -338 142 -331 162 -322C180 -315 203 -316 253 -328L249 -153C156 -123 143 -120 93 -119C66 -118 63 -108 86 -89C122 -59 136 -55 152 -64C187 -87 217 -102 362 -166C393 -179 391 -192 377 -190C355 -186 324 -177 288 -166L294 -339C317 -345 344 -353 378 -364C397 -370 398 -385 381 -392C361 -399 345 -398 296 -382C297 -402 299 -413 303 -419C309 -430 308 -439 288 -453Z"/>
</svg>