<svg xmlns="http://www.w3.org/2000/svg" viewBox="0 -1000 1000 1000">
	<path fill="#000000" d="M815 -556C842 -576 844 -590 788 -632C744 -666 734 -664 705 -653C675 -641 591 -619 498 -601C572 -689 607 -727 645 -753C670 -769 667 -780 614 -800C554 -823 543 -807 550 -785C558 -764 547 -716 463 -594C447 -592 433 -589 418 -587C367 -602 357 -584 373 -571C395 -553 401 -521 424 -374C428 -347 438 -339 447 -340C453 -341 459 -343 462 -352C481 -355 499 -358 515 -361C462 -239 357 -121 250 -59C228 -46 232 -35 255 -42C425 -99 521 -262 561 -370C643 -387 658 -386 673 -377C685 -370 694 -371 702 -380C720 -402 729 -419 748 -460C764 -492 801 -546 815 -556ZM360 -648C398 -668 400 -677 360 -701C319 -725 306 -725 287 -708C258 -682 205 -660 161 -660C116 -680 111 -664 124 -640C133 -622 143 -563 145 -496C151 -262 146 -194 131 -143C115 -87 114 -59 129 -15C144 28 156 26 170 -16C180 -46 186 -95 187 -145C188 -229 189 -309 190 -387C191 -471 188 -555 184 -640C209 -641 236 -647 273 -658C285 -662 291 -658 283 -632C254 -547 255 -526 296 -438C311 -405 309 -405 282 -410C222 -422 211 -410 237 -394C269 -374 288 -360 308 -335C321 -317 335 -320 344 -347C358 -385 362 -407 332 -447C292 -501 287 -538 300 -573C309 -596 342 -639 360 -648ZM839 -189C851 -224 838 -256 793 -269C769 -276 766 -272 784 -230C755 -225 718 -218 691 -215C681 -214 673 -216 686 -234C701 -254 718 -275 738 -295C753 -310 752 -320 724 -335C699 -348 694 -343 694 -315C694 -290 667 -234 637 -215C626 -208 627 -199 634 -184C644 -164 652 -163 673 -173C695 -183 747 -200 792 -212C797 -202 802 -192 808 -182C816 -169 833 -172 839 -189ZM956 -98C948 -116 943 -166 941 -202C939 -233 928 -234 921 -200C899 -100 892 -85 839 -69C793 -55 706 -51 672 -59C626 -70 601 -90 596 -124C588 -178 594 -241 608 -272C619 -297 618 -312 592 -335C574 -350 566 -350 569 -310C570 -292 565 -256 558 -205C551 -159 551 -103 570 -71C591 -35 630 -17 661 -9C729 8 851 4 895 -17C968 -53 970 -70 956 -98ZM722 -552C714 -511 696 -463 681 -424C675 -408 664 -401 656 -404C645 -409 638 -411 570 -394C578 -419 584 -445 591 -479C621 -485 651 -493 663 -497C678 -503 672 -517 654 -522C640 -526 624 -526 599 -520C600 -529 601 -537 603 -543C608 -566 608 -572 575 -592C636 -608 673 -612 693 -613C731 -614 732 -603 722 -552ZM553 -506C539 -502 518 -496 487 -488C473 -485 470 -478 487 -471C502 -465 519 -466 549 -471C544 -443 536 -413 525 -384C506 -380 483 -376 462 -372C453 -463 445 -523 433 -571C475 -575 522 -580 547 -585C553 -568 555 -541 553 -506Z"/>
</svg>