<svg xmlns="http://www.w3.org/2000/svg" viewBox="0 -1000 1000 1000">
	<path fill="#000000" d="M469 -116C457 -144 448 -143 440 -114C434 -93 425 -70 410 -50C402 -37 400 -20 406 6C408 24 423 29 441 8C477 -36 485 -79 469 -116ZM941 -36C936 -94 909 -124 827 -154C802 -163 796 -159 810 -135C836 -93 881 -29 901 -3C911 11 945 2 941 -36ZM616 -73C619 -94 594 -125 559 -136C541 -142 536 -138 544 -119C560 -86 572 -66 591 -46C600 -37 612 -41 616 -73ZM747 -78C748 -108 709 -137 672 -139C651 -140 650 -137 662 -120C684 -85 703 -63 722 -51C734 -41 745 -50 747 -78ZM590 -255C566 -244 541 -236 491 -224C531 -279 611 -377 633 -395C650 -411 650 -421 631 -440C608 -459 599 -458 596 -435C594 -418 584 -398 549 -348C526 -346 508 -347 489 -350C506 -379 537 -420 559 -442C571 -456 572 -466 539 -490C519 -507 511 -501 512 -477C513 -465 502 -427 493 -410C472 -375 462 -363 445 -348C437 -340 435 -334 441 -318C450 -300 455 -300 471 -307C479 -312 504 -316 529 -318C492 -269 457 -231 437 -218C424 -210 423 -201 431 -177C439 -155 447 -153 461 -163C482 -179 546 -213 599 -235C604 -226 608 -219 613 -213C627 -199 637 -200 642 -232C648 -258 641 -282 599 -304C574 -316 568 -313 576 -287C581 -274 585 -264 590 -255ZM576 -486C631 -496 705 -505 742 -509C739 -488 732 -466 719 -445C700 -412 685 -400 670 -393C658 -386 658 -382 665 -355C670 -339 676 -337 693 -343C713 -352 741 -359 759 -361C731 -322 694 -281 658 -250C644 -239 642 -233 652 -211C664 -183 675 -183 693 -199C709 -213 759 -235 822 -260C835 -237 846 -219 855 -206C867 -189 887 -201 888 -227C892 -271 879 -291 821 -318C798 -330 793 -325 802 -303C805 -295 809 -287 812 -281C781 -269 744 -257 707 -247C743 -297 831 -395 857 -415C879 -432 879 -441 857 -462C832 -484 827 -482 820 -463C816 -447 807 -432 779 -390C750 -387 728 -386 713 -388C741 -424 769 -456 782 -468C801 -483 803 -489 776 -516C781 -520 786 -526 795 -538C808 -557 818 -576 835 -616C843 -636 853 -655 868 -669C887 -686 884 -696 834 -726C803 -745 791 -746 762 -733C731 -721 603 -696 530 -695C484 -711 474 -696 492 -671C502 -655 511 -633 531 -558C536 -538 545 -513 560 -486C564 -478 571 -477 576 -486ZM563 -604C558 -631 553 -653 548 -672C584 -671 640 -677 738 -694C773 -701 783 -695 778 -656C774 -624 768 -591 761 -567C754 -547 752 -545 733 -541C666 -527 626 -522 577 -519C573 -542 570 -561 567 -579C606 -579 651 -584 695 -594C726 -602 729 -617 710 -623C688 -630 662 -629 563 -604ZM296 -307C297 -327 297 -353 298 -373C315 -376 329 -378 339 -380C360 -383 366 -380 359 -348C355 -327 348 -319 296 -307ZM198 -286C193 -305 185 -330 176 -352C205 -358 233 -363 257 -367C256 -342 256 -319 256 -298C236 -294 216 -290 198 -286ZM347 -552C369 -555 393 -558 399 -558C461 -561 469 -577 450 -596C439 -607 418 -609 355 -592C367 -649 375 -670 386 -691C398 -718 395 -730 351 -753C314 -773 302 -760 316 -738C326 -721 328 -675 318 -583C293 -577 266 -571 238 -566C236 -611 236 -645 237 -653C238 -676 232 -685 194 -701C158 -715 152 -698 164 -682C183 -658 189 -631 200 -558C167 -553 134 -548 103 -544C75 -540 73 -528 95 -517C114 -508 128 -508 157 -516C169 -520 185 -523 203 -527C204 -513 205 -496 206 -480C210 -444 219 -434 228 -434C233 -434 239 -436 241 -445C244 -445 246 -446 247 -446C255 -431 257 -414 257 -390C224 -384 186 -378 145 -373C104 -388 99 -376 117 -355C126 -345 143 -317 169 -259C183 -230 203 -227 202 -259C221 -263 238 -266 255 -269C255 -245 254 -224 254 -205C111 -177 85 -173 74 -174C34 -178 29 -167 62 -144C94 -123 102 -122 130 -131C194 -153 229 -165 253 -171C250 -106 247 -76 242 -58C232 -15 234 12 244 36C258 72 267 75 284 42C289 31 293 -21 293 -69C293 -99 293 -140 294 -182C341 -193 373 -199 390 -201C431 -205 438 -218 409 -233C392 -241 372 -243 337 -228C326 -223 309 -217 294 -213C295 -236 295 -258 295 -277C330 -284 360 -291 384 -296C402 -300 404 -306 395 -313C392 -316 393 -325 400 -335C407 -345 416 -356 426 -367C446 -387 444 -398 408 -413C376 -427 366 -425 347 -415C338 -411 320 -405 299 -400C301 -421 296 -436 278 -449C298 -452 318 -456 335 -462C351 -466 353 -475 343 -481C338 -484 336 -488 338 -504C341 -522 344 -538 347 -552ZM244 -474C241 -496 240 -515 239 -535C263 -539 290 -544 314 -547C312 -532 309 -514 306 -497C304 -485 295 -481 244 -474Z"/>
</svg>