<svg xmlns="http://www.w3.org/2000/svg" viewBox="0 -1000 1000 1000">
	<path fill="#000000" d="M653 -49C688 -18 722 8 750 27C779 46 790 50 945 19C975 13 971 -1 945 -5C815 -25 755 -39 687 -76C708 -97 728 -121 747 -148C759 -166 771 -183 788 -194C806 -204 806 -218 759 -244C741 -253 734 -253 718 -247C685 -235 626 -224 507 -213C480 -211 475 -198 495 -191C518 -182 535 -182 576 -189C602 -194 664 -203 691 -205C708 -206 712 -199 705 -183C691 -154 673 -126 647 -101C627 -114 604 -131 577 -149C555 -168 537 -173 515 -170C500 -169 498 -158 513 -149C554 -129 580 -113 619 -77C575 -44 509 -18 411 5C388 10 385 25 409 24C513 19 590 0 653 -49ZM280 -316C281 -339 281 -364 282 -381C296 -383 308 -385 319 -387C344 -392 347 -389 339 -358C334 -334 328 -329 280 -316ZM180 -294C176 -311 169 -330 158 -359C190 -365 215 -369 238 -373C238 -348 238 -327 238 -306C214 -301 195 -297 180 -294ZM219 -480C217 -502 216 -522 214 -540C238 -545 264 -550 288 -553C286 -538 284 -521 281 -504C279 -490 266 -486 219 -480ZM699 -693C661 -687 624 -681 572 -673C571 -684 572 -699 573 -708C575 -722 568 -728 513 -742C489 -748 487 -733 497 -721C510 -706 519 -693 528 -665C472 -657 442 -653 413 -651C398 -650 397 -639 411 -631C441 -615 459 -615 490 -624C504 -628 521 -633 538 -636C541 -627 544 -616 547 -605C550 -590 559 -583 566 -585C574 -587 579 -595 578 -609C577 -622 576 -634 575 -643C609 -649 649 -655 695 -659C692 -642 688 -622 684 -601C683 -596 683 -592 684 -589C675 -600 664 -604 627 -608C610 -610 602 -599 610 -590C634 -569 657 -551 676 -540C636 -531 589 -521 561 -517C544 -515 543 -512 560 -505C579 -497 604 -496 644 -500V-458C623 -455 596 -451 563 -447C540 -444 541 -439 560 -431C580 -421 597 -419 644 -425V-382C615 -378 585 -374 562 -372C542 -371 538 -363 556 -356C576 -349 609 -348 644 -351V-302C587 -291 546 -285 524 -283C524 -358 524 -402 525 -433C526 -447 524 -456 508 -476C530 -505 544 -522 551 -531C563 -543 559 -557 509 -578C495 -584 488 -576 493 -565C502 -543 491 -511 412 -408C408 -412 401 -417 392 -421C366 -436 345 -434 326 -423C315 -417 301 -412 283 -407C284 -430 273 -443 252 -455C274 -458 297 -463 315 -467C327 -469 329 -482 321 -488C319 -490 320 -497 322 -512C325 -530 327 -545 329 -559C348 -561 365 -564 372 -564C432 -567 440 -581 423 -601C412 -611 392 -612 335 -598C345 -655 354 -682 362 -697C373 -720 365 -733 325 -756C291 -776 281 -760 292 -742C302 -724 305 -698 292 -586C270 -582 241 -576 212 -571C209 -618 209 -650 212 -659C219 -680 211 -691 171 -704C134 -715 129 -704 143 -682C159 -657 167 -635 177 -564C144 -557 113 -553 99 -551C68 -548 66 -539 91 -526C114 -516 123 -516 152 -525C160 -528 169 -531 180 -533C183 -514 184 -503 185 -484C188 -450 196 -438 205 -438C211 -438 217 -440 219 -451C222 -451 224 -452 226 -452C235 -438 237 -420 238 -397C210 -392 173 -386 129 -381C91 -395 85 -375 99 -363C116 -348 134 -321 156 -268C167 -239 186 -238 185 -268C202 -271 220 -275 237 -278C237 -255 236 -233 236 -214C139 -195 99 -189 74 -187C41 -184 34 -176 64 -156C94 -134 102 -134 129 -143C181 -162 214 -173 235 -180C233 -111 230 -80 226 -62C217 -19 218 3 228 32C238 58 262 58 271 38C276 27 281 -26 279 -73C278 -120 278 -159 278 -192C326 -202 356 -208 383 -211C423 -214 429 -230 402 -243C385 -251 367 -250 331 -238C321 -234 297 -228 279 -224C279 -245 279 -267 280 -286C314 -294 344 -300 367 -304C384 -307 384 -318 378 -322C375 -326 378 -339 384 -345C391 -354 399 -366 409 -376C417 -383 420 -389 419 -396C440 -404 464 -423 486 -448C493 -414 487 -338 478 -294C473 -263 476 -248 484 -238C500 -212 513 -210 523 -262C544 -260 570 -262 600 -265C759 -285 790 -289 819 -289C862 -289 863 -308 842 -319C811 -336 801 -337 759 -327C733 -320 708 -315 685 -310V-356C765 -371 790 -375 801 -376C824 -378 821 -399 801 -404C774 -410 756 -408 685 -389V-431C725 -437 777 -448 798 -454C819 -461 815 -476 798 -480C773 -485 759 -484 736 -477C725 -473 701 -468 685 -465V-505C715 -510 751 -517 797 -527C834 -536 831 -551 802 -560C776 -568 756 -566 691 -544C694 -567 693 -573 688 -582C698 -581 708 -595 734 -662C770 -664 813 -667 850 -669C883 -670 889 -687 851 -707C837 -714 805 -717 748 -703C755 -723 762 -734 767 -744C777 -761 767 -774 704 -794C692 -798 683 -787 693 -775C701 -763 703 -738 699 -693Z"/>
</svg>