<svg xmlns="http://www.w3.org/2000/svg" viewBox="0 -1000 1000 1000">
	<path fill="#000000" d="M576 -321C577 -348 579 -356 582 -361C594 -379 588 -389 551 -402C512 -414 504 -406 519 -377C525 -366 530 -340 529 -269C528 -187 525 -101 522 -56C485 -52 458 -51 426 -49C429 -90 430 -143 431 -230C431 -290 432 -312 437 -328C445 -351 440 -361 399 -377C365 -389 352 -379 370 -355C378 -345 385 -329 387 -310C369 -316 356 -315 335 -310C314 -304 253 -295 240 -294C214 -293 213 -284 232 -273C254 -261 287 -261 323 -270C342 -275 364 -280 388 -284V-225C371 -231 361 -231 352 -229C308 -219 276 -214 267 -213C252 -211 252 -197 265 -191C285 -182 318 -182 348 -191C362 -195 372 -197 387 -198V-142C370 -147 358 -146 339 -140C330 -137 275 -128 238 -123C218 -120 216 -106 232 -100C256 -91 289 -91 315 -99C341 -108 365 -115 387 -118V-45C347 -43 308 -40 282 -37C218 -31 183 -31 152 -34C114 -38 111 -30 141 -9C172 14 188 17 223 11C290 -1 374 -11 494 -20C695 -33 724 -34 812 -22C887 -11 890 -26 850 -63C821 -90 777 -93 692 -78C647 -71 603 -65 565 -61L569 -135C617 -131 666 -135 721 -143C765 -149 768 -164 743 -176C722 -187 698 -186 667 -177C629 -167 599 -163 570 -161L572 -213C611 -211 648 -214 683 -222C710 -227 710 -245 685 -252C668 -259 643 -258 628 -252C608 -245 591 -240 573 -237L575 -296C602 -294 627 -298 707 -311C744 -317 741 -342 715 -349C697 -354 691 -353 645 -338C619 -330 605 -327 576 -321ZM639 -485C669 -459 688 -442 718 -414C759 -377 771 -373 914 -401C938 -405 937 -421 912 -424C812 -439 738 -467 667 -514C692 -545 713 -578 737 -621C746 -637 764 -655 773 -662C796 -680 796 -691 748 -716C724 -729 708 -729 688 -715C660 -693 593 -674 543 -665C525 -662 526 -651 539 -645C556 -638 578 -640 629 -652C691 -668 696 -661 681 -629C667 -596 647 -565 630 -541C560 -592 544 -599 534 -599C504 -599 504 -582 525 -573C533 -569 553 -556 604 -514C566 -479 507 -444 460 -424C434 -413 442 -400 464 -405C538 -421 601 -453 639 -485ZM405 -739C406 -747 408 -754 411 -761C417 -775 406 -789 352 -801C323 -808 315 -800 335 -780C351 -764 356 -752 362 -621C354 -621 343 -621 335 -622C295 -663 280 -655 278 -628C275 -605 244 -558 160 -482C147 -470 159 -459 181 -474C255 -521 301 -566 324 -599C343 -593 367 -593 403 -602C418 -605 422 -599 419 -590C405 -555 382 -519 352 -484C337 -517 328 -524 295 -535C281 -540 272 -530 287 -508C301 -485 313 -472 330 -461C283 -411 221 -366 154 -331C120 -313 127 -297 163 -310C286 -354 390 -443 450 -536C469 -566 478 -577 487 -582C508 -596 506 -610 463 -635C442 -646 437 -646 399 -630L403 -711C428 -709 458 -715 509 -731C525 -737 532 -752 518 -762C508 -770 480 -771 467 -764C445 -754 424 -745 405 -739Z"/>
</svg>