<svg xmlns="http://www.w3.org/2000/svg" viewBox="0 -1000 1000 1000">
	<path fill="#000000" d="M589 -163C591 -136 532 -57 404 11C384 23 386 34 409 29C475 15 548 -31 608 -87C635 -111 642 -119 652 -123C683 -135 681 -150 637 -170C598 -188 587 -183 589 -163ZM731 -135C780 -70 813 -32 850 5C873 27 888 24 891 2C898 -52 865 -103 741 -147C725 -154 720 -148 731 -135ZM570 -198C630 -204 704 -209 754 -211C777 -212 782 -209 791 -190C817 -138 822 -138 835 -160C857 -200 870 -247 855 -392C850 -443 858 -476 872 -497C885 -517 882 -526 840 -549C807 -567 793 -568 772 -560C747 -551 692 -539 640 -530C667 -562 685 -581 706 -596C725 -611 725 -618 680 -651C747 -662 810 -674 864 -682C928 -692 931 -708 899 -721C862 -737 853 -738 671 -697C618 -686 540 -673 530 -672C507 -671 503 -659 526 -651C547 -643 597 -641 647 -646C648 -619 637 -585 604 -524C588 -522 573 -521 560 -520C522 -531 515 -520 527 -498C534 -483 540 -440 538 -384C537 -353 532 -273 529 -252C527 -236 530 -212 537 -194C547 -168 564 -165 570 -198ZM580 -424C580 -451 580 -475 580 -493C627 -498 677 -505 687 -508C710 -513 729 -514 759 -514C788 -514 794 -511 799 -476C806 -425 805 -306 796 -247C793 -228 787 -228 776 -241C767 -251 730 -252 642 -237C626 -234 612 -233 574 -231C575 -248 576 -275 577 -305C621 -302 671 -305 732 -317C759 -324 761 -330 739 -341C719 -351 695 -350 648 -338C621 -331 598 -327 578 -326C579 -349 580 -375 580 -400C626 -398 692 -401 729 -411C759 -417 759 -427 739 -436C718 -446 705 -446 661 -437C635 -432 604 -427 580 -424ZM199 -554C217 -554 237 -558 262 -565C324 -581 371 -592 405 -601C432 -607 436 -598 409 -535C397 -505 405 -498 435 -523C463 -548 486 -564 510 -571C543 -580 546 -599 503 -624C458 -651 440 -653 403 -637C365 -620 270 -595 193 -582C175 -618 164 -615 160 -590C155 -557 147 -539 137 -523C125 -503 124 -493 130 -468C138 -436 159 -434 179 -472C188 -492 196 -522 199 -554ZM388 -687C388 -737 357 -762 286 -762C264 -762 262 -759 276 -741C295 -717 321 -691 343 -672C367 -651 388 -655 388 -687ZM324 -217C303 -226 284 -234 255 -246C247 -250 244 -262 248 -274C253 -290 258 -305 263 -318C297 -329 335 -339 376 -349C368 -310 350 -260 324 -217ZM336 -159C373 -132 405 -103 432 -72C448 -53 465 -63 463 -93C460 -137 437 -162 364 -198C400 -257 423 -306 442 -367C452 -395 451 -398 416 -417C391 -431 378 -427 382 -403C382 -398 382 -390 382 -383L275 -353C302 -428 321 -470 328 -478C338 -492 339 -499 331 -504C307 -518 294 -525 282 -532C265 -540 254 -531 259 -520C270 -492 263 -423 233 -342C172 -327 120 -319 78 -319C50 -319 49 -308 72 -292C114 -262 124 -264 160 -281C172 -287 192 -296 219 -304C215 -295 211 -285 206 -276C192 -246 200 -236 224 -225C252 -212 276 -198 300 -183C258 -132 195 -89 110 -55C73 -40 74 -28 110 -34C192 -50 284 -98 336 -159Z"/>
</svg>