<svg xmlns="http://www.w3.org/2000/svg" viewBox="0 -1000 1000 1000">
	<path fill="#000000" d="M624 -123C626 -105 566 -31 466 32C447 44 448 53 470 47C530 31 587 -5 633 -46C652 -65 671 -80 675 -84C704 -102 701 -112 661 -137C630 -155 622 -145 624 -123ZM733 -113C775 -50 802 -17 842 28C863 50 877 50 881 28C889 -28 860 -76 744 -127C728 -134 724 -128 733 -113ZM610 -172C666 -177 726 -180 773 -181C796 -182 801 -179 810 -159C834 -103 845 -106 855 -130C877 -178 880 -217 874 -370C871 -436 873 -459 889 -478C905 -496 900 -508 865 -534C834 -556 823 -557 803 -547C782 -537 736 -525 687 -518C716 -553 729 -565 755 -587C775 -604 775 -610 732 -647C799 -655 828 -659 878 -667C935 -675 933 -692 914 -702C878 -719 853 -718 702 -686C647 -675 590 -664 574 -663C556 -663 551 -649 569 -642C589 -634 617 -634 699 -643C701 -613 690 -578 653 -514C637 -513 622 -511 607 -511C569 -522 562 -512 573 -487C579 -474 585 -424 582 -368C580 -335 574 -250 570 -229C567 -211 570 -187 577 -167C588 -140 603 -136 610 -172ZM624 -409C625 -439 625 -466 625 -485C676 -490 701 -493 713 -496C741 -501 769 -502 780 -502C810 -501 816 -497 820 -461C825 -406 823 -274 813 -214C810 -195 804 -194 793 -207C784 -219 750 -221 664 -205C645 -202 630 -201 614 -201C615 -221 616 -249 618 -283C659 -279 700 -281 760 -295C786 -301 786 -307 767 -318C748 -330 722 -329 677 -317C652 -311 636 -307 619 -305C621 -331 622 -358 623 -383C665 -380 722 -382 759 -393C787 -399 788 -408 769 -418C748 -429 737 -431 692 -421C671 -416 644 -411 624 -409ZM420 -704C424 -741 397 -763 310 -781C298 -784 293 -775 300 -763C320 -734 377 -681 390 -680C408 -678 417 -683 420 -704ZM302 -285C303 -311 303 -335 302 -360C324 -362 351 -366 367 -371C382 -375 402 -378 418 -379C433 -380 438 -375 443 -320C450 -250 451 -165 444 -113C441 -85 435 -80 383 -90C364 -93 360 -89 379 -71C407 -46 425 -25 433 -5C441 14 455 16 469 -4C490 -34 500 -75 499 -109C496 -186 494 -263 494 -273C496 -322 499 -345 505 -353C521 -372 521 -381 489 -401C452 -423 438 -423 419 -414C383 -399 328 -385 284 -385C257 -394 250 -384 254 -369C273 -312 263 -149 225 -90C214 -72 215 -45 224 -21C235 2 245 2 258 -22C265 -35 275 -75 290 -172C328 -158 373 -161 409 -180C421 -186 420 -199 407 -205C394 -212 373 -209 343 -197C333 -194 314 -193 293 -193C297 -218 299 -242 300 -263C334 -261 367 -266 395 -274C422 -280 421 -298 402 -305C390 -310 379 -309 302 -285ZM264 -580C292 -582 330 -586 352 -590C368 -593 403 -602 417 -604C442 -608 446 -603 441 -578C435 -549 427 -533 403 -521C381 -510 299 -491 248 -484C257 -528 262 -555 264 -580ZM240 -453C287 -455 343 -464 357 -468C391 -478 443 -490 472 -495C495 -498 501 -516 491 -527C486 -533 485 -549 490 -557C509 -590 520 -603 533 -614C550 -629 543 -646 496 -659C469 -668 455 -668 436 -655C423 -646 391 -631 337 -615C316 -610 282 -607 257 -606C203 -629 190 -622 200 -590C209 -564 200 -492 175 -370C160 -291 113 -166 44 -74C26 -52 34 -42 55 -60C139 -133 192 -252 217 -353C227 -394 234 -427 240 -453Z"/>
</svg>