<svg xmlns="http://www.w3.org/2000/svg" viewBox="0 -1000 1000 1000">
	<path fill="#000000" d="M606 -115C609 -87 572 -37 448 43C429 57 435 66 457 60C528 40 559 24 621 -37C640 -57 654 -70 667 -75C692 -86 693 -99 650 -123C617 -141 604 -137 606 -115ZM732 -95C772 -39 797 -9 839 34C862 57 877 53 880 31C886 -25 866 -64 742 -108C726 -114 721 -109 732 -95ZM593 -152C647 -158 708 -162 755 -164C778 -165 783 -162 793 -141C818 -87 825 -91 838 -113C863 -159 868 -213 856 -353C851 -414 857 -441 873 -465C886 -484 888 -493 843 -517C808 -536 796 -537 777 -527C761 -519 704 -506 650 -498C678 -534 697 -553 717 -570C737 -585 736 -592 692 -627C785 -645 835 -653 857 -659C921 -675 918 -687 891 -701C859 -716 851 -716 681 -674C642 -664 566 -651 537 -649C515 -648 511 -636 533 -627C556 -618 608 -614 659 -622C660 -592 648 -556 616 -493C605 -492 595 -491 585 -490C543 -508 533 -497 546 -474C554 -463 562 -412 560 -346C559 -313 554 -229 550 -207C548 -190 551 -165 559 -145C569 -119 585 -115 593 -152ZM602 -386C602 -414 602 -440 602 -459C642 -464 672 -469 687 -473C709 -479 727 -480 756 -480C786 -480 791 -476 797 -441C804 -387 806 -269 797 -207C794 -187 786 -180 775 -194C766 -205 731 -206 643 -190C626 -187 611 -184 596 -183C597 -202 598 -229 599 -260C637 -258 677 -262 733 -274C760 -280 764 -287 740 -302C720 -312 696 -311 649 -299C628 -293 613 -289 600 -286C601 -311 601 -336 602 -361C643 -360 696 -363 730 -372C760 -379 760 -394 740 -404C720 -414 711 -414 662 -399C644 -394 622 -388 602 -386ZM462 -158C462 -150 459 -143 450 -126C446 -121 448 -92 454 -80C459 -66 473 -65 484 -80C498 -103 502 -120 508 -201C516 -301 518 -309 525 -329C535 -348 534 -352 502 -374C468 -397 454 -385 467 -355C471 -345 472 -302 463 -182L166 -137C172 -268 175 -287 178 -301C184 -330 169 -351 143 -364C115 -376 108 -371 121 -345C132 -324 133 -296 131 -244C126 -162 124 -148 101 -125C90 -112 89 -102 97 -80C110 -49 121 -47 141 -63C175 -90 215 -102 462 -158ZM452 -276C460 -303 448 -322 381 -341C364 -345 359 -337 368 -326C386 -304 402 -285 419 -268C434 -251 445 -256 452 -276ZM298 -325C318 -347 307 -360 287 -340C240 -296 216 -279 198 -274C169 -265 171 -256 196 -242C226 -226 231 -227 240 -247C247 -262 255 -273 298 -325ZM276 -377C284 -407 258 -438 217 -449C205 -453 201 -449 205 -437C216 -406 231 -380 246 -369C261 -356 272 -359 276 -377ZM318 -519C281 -545 267 -521 284 -504C308 -477 318 -437 317 -353C315 -231 310 -226 269 -235C255 -238 253 -232 261 -221C276 -204 291 -184 299 -169C304 -160 307 -159 316 -165C351 -194 360 -228 354 -328C352 -361 351 -414 351 -447C351 -472 344 -490 336 -504C436 -606 451 -619 476 -629C502 -641 502 -657 474 -677C431 -708 421 -708 395 -694C344 -669 262 -650 202 -651C156 -652 155 -639 182 -620C215 -598 230 -595 260 -608C286 -618 299 -622 368 -646C397 -656 401 -646 391 -627C367 -583 350 -557 318 -519ZM464 -447C482 -461 481 -469 443 -486C410 -501 404 -493 405 -480C409 -461 397 -429 363 -382C350 -364 357 -356 374 -372C427 -418 443 -432 464 -447Z"/>
</svg>