<svg xmlns="http://www.w3.org/2000/svg" viewBox="0 -1000 1000 1000">
	<path fill="#000000" d="M325 -293L329 -389C369 -398 376 -393 374 -374C365 -305 359 -299 325 -293ZM269 -258C278 -260 285 -260 292 -261L290 -163C236 -152 201 -146 190 -147C165 -149 157 -142 184 -118C213 -91 218 -91 239 -107C250 -115 283 -130 384 -163C390 -142 397 -127 404 -116C417 -98 427 -99 435 -125C445 -154 431 -195 384 -228C371 -237 368 -235 370 -222C372 -208 375 -196 377 -184C357 -179 339 -174 321 -170L324 -265C343 -268 368 -273 392 -278C418 -283 425 -300 404 -312C395 -317 395 -321 401 -340C408 -360 419 -378 426 -384C439 -395 438 -399 416 -416C391 -436 386 -436 363 -424C355 -420 343 -415 330 -411C332 -429 335 -446 337 -452C343 -471 339 -484 317 -503C335 -508 358 -515 388 -523C416 -532 416 -542 388 -559C353 -581 340 -578 341 -559C342 -551 279 -520 220 -502C200 -496 201 -479 220 -482C245 -486 268 -490 288 -496C293 -482 294 -463 294 -402C276 -398 256 -394 236 -390C200 -404 197 -396 205 -378C213 -363 224 -319 239 -243C244 -222 249 -219 261 -230C269 -236 271 -242 269 -258ZM255 -373C269 -376 282 -379 294 -381L292 -286C283 -285 272 -283 265 -282C261 -310 257 -340 255 -373ZM585 -354C615 -356 643 -359 669 -360C698 -361 701 -377 688 -384C678 -390 678 -400 691 -430C699 -448 707 -456 711 -459C729 -471 727 -482 696 -501C669 -516 661 -515 647 -507C631 -497 622 -493 584 -488C555 -509 547 -502 551 -484C556 -467 556 -424 549 -351C537 -202 571 -150 664 -136C717 -128 762 -128 837 -143C872 -150 874 -173 862 -195C847 -219 843 -249 840 -301C839 -317 825 -314 824 -299C816 -203 809 -197 771 -188C736 -179 692 -176 662 -180C593 -191 575 -221 585 -354ZM591 -463C646 -475 653 -470 652 -452C652 -443 648 -423 644 -410C639 -393 631 -387 588 -381C591 -412 592 -437 591 -463ZM488 -471C493 -567 506 -624 524 -642C538 -656 539 -671 499 -698C467 -720 453 -721 438 -712C408 -693 393 -686 290 -660C245 -649 218 -644 186 -644C127 -679 115 -661 130 -631C145 -603 150 -547 150 -451C150 -266 117 -153 35 -58C15 -34 28 -22 45 -36C150 -133 193 -229 195 -405C196 -484 197 -557 197 -612C218 -613 225 -615 270 -626C321 -639 364 -646 410 -650C447 -653 453 -648 452 -625C442 -283 448 -216 481 -141C540 -5 708 56 915 35C951 32 961 2 941 -24C926 -41 918 -78 910 -149C906 -184 891 -183 889 -150C881 -41 871 -27 837 -26C658 -20 562 -72 523 -160C499 -212 484 -313 487 -443C532 -483 565 -519 593 -567C613 -555 633 -554 656 -561C684 -570 706 -575 730 -580C756 -586 768 -577 767 -526C766 -462 755 -406 741 -363C728 -326 719 -322 676 -334C650 -341 647 -331 664 -317C680 -303 694 -287 707 -265C715 -251 730 -247 745 -263C787 -306 804 -360 820 -512C823 -538 832 -557 843 -575C855 -593 854 -606 815 -624C778 -642 768 -641 756 -631C732 -611 652 -585 602 -581C616 -607 632 -637 647 -671C658 -693 668 -708 679 -717C701 -734 694 -754 652 -774C608 -794 596 -782 606 -756C610 -746 610 -740 597 -691C575 -612 534 -531 488 -471Z"/>
</svg>