<svg xmlns="http://www.w3.org/2000/svg" viewBox="0 -1000 1000 1000">
	<path fill="#000000" d="M249 -272C250 -290 251 -318 251 -350C283 -349 316 -358 350 -373C366 -381 368 -393 348 -400C336 -405 321 -402 252 -377C253 -405 253 -430 253 -448C274 -451 310 -459 348 -472C374 -481 381 -476 381 -447C381 -399 375 -359 367 -322C365 -313 362 -310 337 -302C328 -300 295 -290 249 -272ZM350 -713C371 -693 390 -680 434 -650C457 -635 472 -645 473 -674C474 -701 452 -718 359 -731C368 -755 363 -765 330 -780C285 -799 268 -784 285 -762C294 -750 289 -723 263 -668C203 -536 154 -461 56 -356C39 -338 45 -328 67 -342C115 -371 154 -407 192 -452C204 -431 205 -408 207 -378C213 -285 212 -268 202 -184C196 -129 186 -100 173 -87C163 -75 160 -46 176 -21C193 9 198 9 226 -34C241 -59 304 -122 368 -169C375 -157 385 -142 397 -124C411 -101 436 -108 438 -138C441 -179 429 -193 354 -235C343 -240 337 -237 342 -225C348 -211 352 -201 357 -190C314 -163 274 -139 239 -120C238 -142 239 -172 246 -244C348 -275 361 -276 369 -270C382 -261 402 -278 411 -319C438 -448 446 -468 453 -476C464 -489 460 -501 439 -509C428 -514 417 -519 403 -523C391 -527 381 -526 371 -518C349 -500 283 -479 234 -472C228 -475 221 -477 213 -480C238 -514 254 -539 290 -600C317 -572 343 -552 359 -546C377 -539 388 -555 383 -575C377 -593 352 -611 296 -611C314 -642 331 -676 350 -713ZM771 -178C751 -190 722 -191 686 -181C622 -164 590 -157 536 -147C538 -187 541 -240 542 -248C545 -275 541 -284 511 -299C494 -308 484 -300 494 -277C503 -253 505 -230 503 -208C499 -163 494 -149 486 -143C466 -128 466 -121 476 -105C493 -81 503 -78 527 -100C553 -124 641 -142 756 -142C801 -142 802 -162 771 -178ZM674 -302C704 -269 735 -237 751 -223C778 -200 793 -210 780 -251C772 -280 748 -297 683 -316C688 -322 693 -328 695 -330C714 -346 711 -359 656 -392C707 -404 767 -414 798 -417C842 -421 852 -411 855 -344C857 -300 849 -208 839 -146C823 -53 796 -51 748 -73C708 -92 701 -86 729 -55C755 -24 770 -3 780 31C787 53 802 56 829 33C868 1 891 -61 900 -132C908 -201 910 -245 909 -302C909 -327 915 -367 923 -379C945 -415 942 -428 890 -456C864 -472 846 -473 817 -461C805 -455 775 -448 753 -443C729 -438 675 -428 642 -422C622 -419 605 -417 591 -417C598 -423 603 -429 607 -431C622 -439 622 -450 584 -472C563 -484 551 -471 555 -457C558 -444 510 -367 441 -319C425 -308 435 -295 451 -301C487 -316 529 -347 567 -390C598 -384 617 -383 643 -388C652 -372 646 -337 628 -299C612 -266 588 -230 559 -200C547 -188 554 -176 569 -186C609 -210 637 -238 674 -302ZM596 -487C617 -492 638 -498 669 -504C712 -513 742 -507 753 -498C769 -485 786 -489 803 -531C813 -559 830 -613 836 -637C847 -680 853 -694 857 -701C875 -723 871 -734 827 -759C787 -781 776 -781 743 -762C739 -759 699 -746 682 -742C656 -734 637 -729 614 -723C589 -716 566 -713 541 -713C490 -727 484 -717 511 -683C526 -665 540 -611 556 -525C562 -491 570 -480 580 -480C588 -480 593 -482 596 -487ZM566 -687C587 -687 610 -691 650 -703C668 -708 725 -721 753 -723C775 -725 780 -719 778 -688C776 -663 770 -613 766 -591C755 -542 749 -539 727 -542C719 -543 694 -539 648 -527C631 -523 616 -520 596 -516C592 -542 588 -571 582 -599C604 -593 618 -593 646 -598C673 -602 697 -609 710 -615C726 -622 729 -641 711 -648C696 -654 676 -653 644 -636C622 -623 604 -618 579 -615C572 -657 570 -667 566 -687Z"/>
</svg>