<svg xmlns="http://www.w3.org/2000/svg" viewBox="0 -1000 1000 1000">
	<path fill="#000000" d="M458 -691C476 -705 475 -717 435 -743C393 -770 381 -759 387 -734C393 -707 380 -672 345 -602C333 -579 341 -573 356 -589C381 -614 397 -630 413 -649C424 -662 446 -682 458 -691ZM818 -639C809 -670 769 -690 726 -689C700 -688 698 -682 714 -667C730 -651 757 -627 768 -618C802 -589 830 -599 818 -639ZM280 -615C280 -650 266 -670 207 -693C191 -699 185 -690 194 -673C211 -642 227 -617 244 -597C260 -578 280 -580 280 -615ZM944 30C937 -13 938 -100 943 -141C947 -174 934 -177 925 -145C896 -44 889 -42 864 -64C827 -96 786 -152 756 -209C776 -245 791 -276 804 -307C815 -333 837 -378 843 -385C862 -410 861 -421 824 -435C781 -450 776 -446 780 -408C783 -382 766 -318 735 -255C718 -299 690 -386 671 -488C705 -496 744 -504 778 -509C835 -517 839 -535 801 -545C769 -554 758 -554 734 -545C711 -537 688 -530 665 -521C645 -640 643 -674 648 -706C654 -748 652 -769 601 -780C549 -792 546 -777 574 -743C581 -734 595 -675 630 -511C586 -498 540 -488 493 -481C476 -478 475 -469 491 -462C521 -449 548 -448 582 -462C594 -467 613 -473 637 -480C666 -343 684 -283 713 -215C680 -161 609 -77 550 -26C534 -13 538 -4 559 -11C614 -29 695 -118 733 -172C783 -66 834 7 883 48C925 82 951 74 944 30ZM633 -350C647 -363 645 -375 613 -390C587 -403 577 -401 566 -393C548 -382 517 -374 479 -374C445 -380 441 -373 455 -350C469 -326 477 -292 485 -245C488 -227 498 -216 506 -219C512 -220 516 -227 515 -242C555 -252 591 -262 602 -265C621 -272 623 -282 616 -290C607 -301 609 -310 612 -317C621 -338 627 -344 633 -350ZM466 -575C451 -583 439 -582 385 -566C315 -546 124 -519 86 -521C51 -523 48 -512 72 -491C94 -471 111 -468 151 -481C175 -488 215 -498 259 -507C261 -470 254 -445 220 -394L187 -389C144 -401 139 -395 162 -355C174 -335 179 -297 180 -264C183 -175 181 -121 178 -114C163 -78 185 -30 195 -30C205 -30 213 -55 216 -89C251 -94 292 -98 309 -99C335 -100 344 -94 354 -55C360 -31 366 -23 373 -23C382 -23 389 -30 399 -98C406 -147 406 -196 404 -249C402 -297 409 -352 419 -371C435 -402 434 -407 396 -427C368 -441 354 -440 336 -429C323 -420 291 -410 253 -402C275 -430 296 -452 306 -459C323 -472 324 -488 287 -513C338 -523 388 -532 412 -534C489 -541 496 -561 466 -575ZM653 -194C648 -202 628 -199 584 -185C520 -166 479 -157 451 -156C412 -155 407 -140 433 -118C456 -98 465 -99 481 -110C492 -118 523 -132 591 -158C648 -180 656 -188 653 -194ZM575 -327C573 -291 570 -283 513 -266C511 -294 506 -325 499 -351C516 -352 527 -354 540 -357C574 -366 577 -360 575 -327ZM361 -352C366 -207 365 -185 357 -144C352 -116 344 -112 336 -124C330 -132 312 -131 217 -109V-195C248 -192 275 -197 315 -212C338 -221 339 -233 317 -240C305 -245 281 -239 217 -214L216 -280C245 -276 272 -282 311 -297C336 -306 335 -317 313 -325C301 -329 277 -324 215 -300L212 -376C234 -376 260 -379 293 -386C344 -397 360 -387 361 -352Z"/>
</svg>