<svg xmlns="http://www.w3.org/2000/svg" viewBox="0 -1000 1000 1000">
	<path fill="#000000" d="M112 -245C104 -275 95 -275 90 -244C86 -216 79 -195 67 -178C57 -164 56 -153 67 -129C80 -102 95 -101 108 -136C121 -174 120 -207 112 -245ZM197 -174C202 -193 195 -215 171 -241C157 -257 148 -256 149 -234C150 -208 158 -181 166 -167C172 -157 192 -156 197 -174ZM271 -200C281 -221 270 -249 239 -267C219 -278 213 -274 218 -257C221 -244 229 -221 244 -197C251 -186 265 -186 271 -200ZM350 -237C351 -260 341 -277 308 -295C284 -308 275 -301 283 -284C294 -259 303 -243 321 -222C333 -206 349 -213 350 -237ZM212 -660C224 -660 266 -663 293 -667C296 -645 297 -620 297 -585C276 -579 260 -576 242 -573C222 -569 221 -558 237 -554C254 -550 266 -549 297 -552C296 -532 296 -506 295 -477C275 -471 255 -467 236 -463C221 -459 219 -453 239 -446C256 -441 273 -440 294 -443C294 -418 293 -402 291 -370C263 -364 233 -358 210 -354C210 -491 211 -602 212 -660ZM333 -380C334 -405 334 -430 334 -452C355 -456 382 -461 403 -469C427 -478 426 -497 401 -500C379 -502 357 -500 336 -492C337 -517 338 -539 339 -557C359 -561 376 -566 409 -576C439 -585 441 -601 419 -608C400 -614 382 -613 342 -600C343 -617 345 -628 347 -630C354 -649 354 -659 338 -673C372 -679 412 -686 458 -695C480 -701 475 -720 453 -727C424 -737 413 -736 366 -721C292 -698 245 -689 206 -688C200 -695 194 -699 166 -708C149 -713 138 -704 152 -682C164 -660 167 -624 167 -542C167 -404 168 -376 165 -364C161 -345 161 -328 170 -302C180 -276 191 -281 200 -311C206 -330 221 -339 353 -350C378 -352 385 -352 387 -311C390 -256 381 -174 365 -121C358 -94 350 -90 289 -116C270 -125 259 -114 276 -95C304 -64 319 -39 322 -17C324 -2 338 5 362 -16C410 -59 425 -93 435 -239C439 -299 444 -320 455 -334C464 -346 462 -359 434 -375C396 -398 388 -398 333 -380ZM635 -430C574 -419 508 -411 463 -408C429 -406 429 -399 453 -383C476 -367 496 -366 530 -375C561 -383 583 -388 635 -396C636 -293 637 -178 636 -79C635 -36 639 19 644 47C650 78 667 79 675 40C683 0 688 -40 688 -80C690 -204 690 -280 690 -402C775 -414 842 -418 904 -414C953 -411 960 -430 927 -454C903 -473 875 -476 833 -467C786 -456 737 -447 690 -438C691 -517 696 -568 704 -590C710 -606 705 -614 668 -630C697 -635 731 -642 801 -656C838 -664 839 -683 808 -693C778 -704 759 -703 713 -690C644 -671 578 -658 509 -650C485 -647 487 -631 513 -626C550 -619 574 -618 614 -622C630 -589 634 -564 635 -430Z"/>
</svg>