<svg xmlns="http://www.w3.org/2000/svg" viewBox="0 -1000 1000 1000">
	<path fill="#000000" d="M458 -123C465 -161 441 -195 367 -213C350 -217 344 -212 353 -199C376 -160 404 -116 413 -107C435 -87 451 -86 458 -123ZM577 -370C633 -377 707 -384 750 -388C772 -390 773 -399 756 -411C749 -416 749 -421 751 -427C759 -444 766 -457 783 -469C804 -482 803 -497 766 -514C728 -532 717 -531 696 -519C679 -511 587 -495 544 -491C499 -503 492 -491 507 -471C516 -458 534 -423 547 -376C551 -363 559 -356 565 -356C560 -351 561 -343 569 -335C574 -330 578 -317 581 -298C490 -285 361 -270 213 -255C161 -249 123 -247 101 -248C74 -249 70 -242 94 -228C136 -202 149 -201 207 -213C286 -231 503 -258 585 -265C588 -245 589 -221 590 -190C591 -166 590 -131 583 -71C580 -44 571 -41 477 -59C457 -63 453 -50 468 -40C508 -16 555 30 569 53C578 68 592 69 604 54C632 22 643 -8 645 -60C647 -118 646 -141 640 -192C639 -204 638 -239 639 -269C717 -272 827 -270 852 -267C923 -257 924 -285 889 -307C849 -332 825 -333 725 -316C712 -314 683 -310 640 -305C640 -311 641 -316 641 -318C644 -339 641 -343 610 -355C594 -362 580 -363 573 -361C574 -363 576 -366 577 -370ZM565 -465C604 -475 666 -484 685 -486C706 -488 712 -483 709 -464C706 -444 703 -432 700 -427C694 -415 688 -410 681 -409C663 -407 611 -402 575 -395C573 -428 570 -444 565 -465ZM325 -436C329 -418 330 -397 327 -358C272 -346 233 -341 211 -341C185 -341 180 -330 201 -314C233 -292 246 -291 263 -300C271 -304 376 -339 481 -365C505 -371 503 -387 473 -384C442 -381 396 -373 368 -367C369 -394 368 -423 367 -441C392 -446 425 -454 445 -463C463 -469 459 -483 437 -489C416 -496 397 -496 365 -482C348 -475 304 -465 240 -456C225 -454 226 -448 241 -442C263 -434 280 -432 325 -436ZM683 -595C667 -607 666 -612 672 -627C690 -670 704 -696 713 -705C738 -725 736 -742 692 -765C648 -788 641 -788 606 -775C564 -758 375 -726 320 -726C296 -726 296 -717 322 -707C350 -695 382 -693 402 -698C425 -705 589 -733 606 -736C630 -739 638 -728 636 -694C635 -677 628 -647 616 -613C611 -599 606 -592 583 -589C532 -582 408 -564 391 -559C367 -554 345 -553 323 -554C306 -555 304 -545 329 -534C364 -518 379 -518 398 -523C444 -536 632 -566 666 -565C701 -564 705 -581 683 -595ZM350 -642C326 -640 324 -635 344 -624C369 -611 387 -610 460 -620C497 -625 564 -636 572 -638C601 -645 603 -655 574 -667C553 -676 541 -677 502 -667C464 -657 395 -646 350 -642Z"/>
</svg>