<svg xmlns="http://www.w3.org/2000/svg" viewBox="0 -1000 1000 1000">
	<path fill="#000000" d="M97 -230C91 -261 79 -260 74 -229C69 -201 63 -179 52 -163C43 -148 42 -137 52 -113C66 -84 79 -84 91 -121C104 -163 103 -201 97 -230ZM180 -159C185 -177 175 -210 153 -234C137 -252 128 -249 131 -227C136 -190 142 -167 150 -152C156 -139 176 -143 180 -159ZM251 -184C261 -205 246 -237 217 -253C199 -264 194 -260 199 -241C205 -219 211 -206 224 -181C232 -168 246 -172 251 -184ZM328 -224C327 -248 318 -260 287 -277C266 -290 260 -283 264 -267C270 -246 274 -237 298 -208C310 -194 329 -200 328 -224ZM191 -643C211 -643 233 -645 261 -649C266 -634 268 -617 269 -570C249 -562 233 -559 218 -557C198 -555 193 -543 213 -539C237 -534 251 -532 269 -535L268 -463C254 -456 237 -452 213 -447C197 -444 195 -437 215 -431C227 -427 245 -425 268 -429V-354C248 -350 221 -345 188 -339C188 -500 189 -561 191 -643ZM307 -365L308 -437C331 -442 350 -445 368 -451C392 -457 390 -481 366 -484C347 -486 327 -485 308 -479L309 -544C330 -549 350 -553 372 -560C401 -570 402 -584 379 -588C352 -593 338 -593 310 -584C313 -604 316 -616 320 -625C324 -635 320 -643 306 -656C336 -661 372 -669 416 -678C437 -683 437 -702 416 -709C388 -718 371 -715 333 -703C271 -683 229 -675 187 -671C183 -676 177 -680 150 -688C130 -694 119 -683 130 -664C143 -644 149 -609 149 -526C149 -406 146 -366 142 -352C137 -339 141 -316 147 -303C160 -273 179 -267 184 -296C187 -314 191 -316 322 -335C347 -338 351 -337 355 -296C360 -240 357 -156 341 -101C334 -72 325 -72 268 -95C248 -103 239 -97 259 -75C283 -47 292 -28 298 1C301 17 316 22 333 4C381 -43 401 -104 401 -226C401 -269 405 -299 417 -314C426 -328 420 -340 395 -358C360 -382 349 -382 307 -365ZM618 -226C616 -228 605 -223 579 -205C551 -187 518 -169 498 -164C473 -157 471 -148 492 -130C513 -110 525 -110 535 -128C540 -136 566 -164 594 -189C614 -207 624 -221 618 -226ZM596 -282C592 -309 575 -322 542 -325C524 -326 522 -320 529 -304C536 -287 553 -272 568 -264C587 -253 600 -257 596 -282ZM775 -309C768 -333 750 -346 724 -346C704 -346 701 -340 710 -328C722 -309 732 -297 743 -286C762 -270 781 -291 775 -309ZM713 -745C711 -778 680 -796 615 -799C590 -800 585 -793 601 -777C621 -756 640 -741 680 -714C698 -703 715 -712 713 -745ZM872 -221C865 -343 869 -390 880 -409C894 -431 892 -440 849 -464C821 -479 814 -480 796 -469C782 -461 762 -453 722 -445C690 -438 690 -431 713 -417C725 -411 734 -412 766 -421C794 -430 806 -428 813 -407C828 -367 833 -193 825 -112C821 -62 809 -56 739 -72C718 -77 715 -66 733 -53C775 -20 788 -5 796 13C807 43 820 43 843 13C873 -27 881 -61 872 -221ZM781 -239C755 -222 720 -203 709 -201C675 -196 673 -188 699 -162C717 -143 726 -142 736 -157C750 -177 773 -203 789 -218C813 -240 816 -252 813 -256C810 -259 806 -257 781 -239ZM673 -136C669 -326 670 -356 681 -375C693 -399 693 -408 658 -430C636 -443 628 -443 605 -430C594 -422 572 -416 553 -415C529 -414 529 -404 545 -392C556 -384 579 -384 590 -388C622 -401 630 -397 631 -375C636 -219 634 -166 625 -110C617 -65 604 -59 546 -76C530 -80 525 -73 539 -60C580 -22 593 -6 598 6C607 30 616 33 637 7C661 -22 674 -67 673 -136ZM532 -499C547 -497 561 -498 584 -503C612 -509 765 -531 775 -531C804 -532 816 -552 793 -570C786 -574 785 -578 794 -589C814 -617 822 -625 840 -635C860 -646 859 -658 819 -684C787 -705 774 -707 741 -688C721 -678 613 -653 535 -643C469 -671 459 -661 473 -623C490 -587 490 -536 470 -359C461 -269 424 -128 393 -63C373 -23 388 -14 416 -52C445 -93 477 -170 511 -341C521 -386 528 -443 532 -499ZM537 -614C608 -626 652 -635 719 -647C747 -652 756 -646 747 -616C735 -571 729 -568 685 -556C608 -537 569 -530 534 -527C536 -558 537 -588 537 -614Z"/>
</svg>