<svg xmlns="http://www.w3.org/2000/svg" viewBox="0 -1000 1000 1000">
	<path fill="#000000" d="M585 -156C557 -164 554 -159 565 -137C579 -109 593 -90 616 -73C633 -62 644 -73 645 -93C647 -126 630 -143 585 -156ZM445 -142C420 -150 417 -147 425 -132C439 -104 448 -94 476 -68C487 -59 500 -66 501 -92C502 -119 486 -130 445 -142ZM480 -544C476 -554 467 -553 464 -540C461 -525 452 -513 441 -504C431 -495 425 -480 424 -468C421 -432 441 -429 459 -448C482 -474 492 -513 480 -544ZM328 -124C303 -131 298 -126 303 -115C313 -95 333 -68 351 -53C358 -46 373 -49 375 -73C377 -102 368 -112 328 -124ZM210 -132C204 -112 196 -95 184 -73C170 -51 170 -37 176 -15C181 7 201 9 219 -21C238 -55 246 -92 231 -133C225 -152 214 -149 210 -132ZM366 -347C390 -344 427 -346 488 -353L489 -315C461 -310 421 -303 396 -299C385 -297 386 -286 399 -285C430 -283 455 -284 490 -287L491 -253C462 -249 424 -243 391 -239C377 -237 375 -230 394 -227C419 -223 454 -222 492 -225L493 -195C445 -189 401 -183 368 -180C367 -246 366 -299 366 -347ZM530 -199L531 -230C564 -235 594 -241 629 -250C650 -257 652 -263 631 -271C612 -278 569 -274 532 -263L533 -293C564 -298 596 -305 622 -313C637 -318 637 -327 622 -332C607 -337 584 -336 534 -326L535 -360C613 -371 656 -378 680 -385C705 -393 707 -401 687 -410C664 -421 646 -419 574 -402C537 -393 429 -373 366 -367C363 -376 353 -382 325 -386C310 -388 308 -385 316 -363C325 -332 331 -221 326 -191C323 -172 327 -150 335 -136C343 -123 352 -122 362 -153C495 -169 560 -176 668 -188C717 -193 736 -175 735 -139C734 -100 730 -78 714 -44C703 -20 700 -20 629 -45C616 -50 611 -39 616 -34C663 11 673 26 678 48C682 67 690 70 710 59C762 29 773 4 788 -78C798 -130 802 -143 812 -154C831 -172 829 -182 790 -206C752 -230 737 -232 712 -225C700 -222 616 -209 530 -199ZM490 -612C442 -605 421 -603 415 -604C390 -606 388 -598 403 -586C424 -571 433 -570 489 -583C507 -587 541 -593 581 -599C583 -583 584 -562 582 -552C578 -522 579 -511 587 -476C537 -441 488 -416 438 -401C419 -395 420 -382 440 -383C474 -384 594 -435 664 -486C703 -515 732 -532 745 -536C755 -539 755 -548 731 -574C709 -596 697 -594 692 -580C683 -555 679 -551 625 -506C621 -541 621 -553 622 -560C625 -578 624 -593 619 -604C687 -611 746 -615 802 -613C842 -612 846 -624 824 -646C809 -661 790 -661 730 -649C713 -646 676 -640 634 -633C635 -665 637 -684 638 -691C683 -690 729 -694 743 -702C760 -711 754 -724 739 -729C722 -734 709 -734 640 -718C642 -727 643 -734 644 -740C651 -774 646 -780 609 -792C574 -804 561 -793 578 -774C596 -754 598 -729 597 -627C572 -624 546 -620 523 -616C523 -645 525 -660 529 -669C534 -680 532 -691 497 -703C461 -714 457 -703 470 -686C484 -669 488 -653 490 -612ZM263 -687C280 -687 302 -690 333 -699C342 -702 345 -696 340 -688C322 -659 320 -616 337 -578C349 -553 345 -549 292 -564C284 -566 279 -557 287 -551C328 -520 339 -508 351 -489C357 -479 364 -479 371 -491C392 -526 392 -555 357 -588C352 -593 350 -613 352 -627C355 -647 376 -675 408 -695C426 -707 424 -717 388 -740C366 -753 353 -753 345 -745C330 -726 293 -713 256 -710C206 -736 194 -723 207 -706C218 -691 227 -659 229 -641C238 -535 235 -466 220 -410C214 -388 215 -377 231 -354C244 -338 259 -339 263 -356C269 -382 270 -421 270 -521C270 -578 267 -647 263 -687Z"/>
</svg>