<svg xmlns="http://www.w3.org/2000/svg" viewBox="0 -1000 1000 1000">
	<path fill="#000000" d="M112 -230C106 -260 95 -260 90 -229C86 -201 80 -179 68 -163C59 -148 57 -137 68 -113C81 -87 96 -88 108 -121C120 -157 119 -196 112 -230ZM196 -159C201 -177 191 -210 169 -234C154 -252 146 -249 148 -227C150 -198 158 -168 166 -152C171 -141 191 -140 196 -159ZM267 -184C276 -204 264 -235 233 -253C215 -265 211 -261 216 -241C220 -226 226 -206 240 -181C248 -169 260 -170 267 -184ZM344 -224C343 -248 333 -260 303 -277C283 -290 276 -285 281 -267C286 -247 295 -229 315 -208C328 -195 345 -200 344 -224ZM212 -643C231 -643 254 -645 282 -649C286 -636 289 -621 290 -570C266 -561 252 -558 238 -557C216 -555 214 -543 233 -539C263 -533 273 -532 290 -535L289 -463C272 -456 250 -450 233 -447C218 -444 216 -437 235 -431C248 -427 265 -425 289 -429V-354C269 -350 244 -345 209 -339C209 -497 210 -591 212 -643ZM328 -364L329 -437C353 -442 372 -446 389 -451C412 -457 410 -481 387 -484C367 -486 348 -485 329 -479L330 -544C351 -549 370 -553 393 -560C423 -570 423 -584 400 -588C372 -593 357 -593 331 -584C333 -602 336 -616 340 -625C344 -635 340 -643 327 -656C357 -661 393 -669 436 -678C458 -683 458 -702 436 -709C410 -717 395 -716 354 -703C299 -686 250 -676 207 -671C203 -676 196 -680 170 -688C152 -694 139 -684 151 -664C163 -644 169 -609 169 -526C169 -386 167 -364 163 -350C159 -338 160 -310 165 -298C176 -269 189 -269 201 -296C207 -310 212 -314 342 -335C367 -339 371 -336 375 -296C381 -240 377 -156 362 -101C355 -72 345 -72 289 -95C266 -104 262 -96 280 -75C303 -47 313 -28 319 1C322 17 339 22 357 4C404 -43 425 -104 425 -226C425 -269 429 -299 440 -314C450 -328 443 -340 419 -358C384 -382 369 -382 328 -364ZM636 -646C618 -640 610 -637 595 -630C589 -628 576 -625 554 -620C536 -616 535 -613 553 -607C574 -599 591 -596 635 -604L632 -547C555 -528 511 -520 503 -519C486 -517 486 -508 504 -504C529 -498 556 -498 599 -506C670 -521 754 -540 800 -551C828 -558 831 -573 808 -578C778 -585 771 -584 673 -556L677 -613C712 -621 728 -625 755 -640C778 -652 775 -668 755 -670C735 -673 714 -671 680 -660C683 -691 692 -721 698 -733C710 -758 704 -770 643 -788C619 -795 602 -784 622 -762C634 -749 638 -689 636 -646ZM702 -231C753 -242 773 -248 786 -257C805 -267 803 -275 788 -281C768 -291 759 -291 650 -259C573 -236 503 -221 490 -219C471 -217 470 -206 489 -202C513 -196 537 -196 562 -200C551 -145 479 -59 385 3C366 15 372 26 390 19C473 -7 532 -52 603 -145C615 -162 614 -168 577 -203C594 -207 638 -216 664 -222C673 -201 676 -168 672 -129C662 -17 681 28 767 36C829 42 881 33 921 14C960 -2 966 -15 955 -41C949 -56 941 -93 938 -141C936 -175 923 -174 917 -144C900 -58 893 -40 871 -32C848 -24 816 -20 777 -21C730 -22 713 -38 712 -77C710 -145 714 -174 721 -186C731 -200 726 -213 702 -231ZM773 -364C775 -384 777 -404 779 -422C795 -427 812 -432 833 -438C851 -443 857 -455 849 -462C835 -472 820 -474 784 -465C785 -472 786 -477 787 -480C797 -505 791 -510 762 -522C735 -534 719 -525 736 -500C740 -496 742 -479 741 -451C722 -445 703 -440 684 -437C661 -434 660 -427 675 -419C692 -413 709 -410 740 -414C739 -397 738 -376 736 -352C705 -344 682 -339 669 -336C651 -333 650 -328 664 -320C680 -312 716 -308 757 -321C793 -333 831 -340 863 -343C897 -346 906 -361 892 -370C869 -385 851 -386 773 -364ZM557 -328C556 -340 557 -372 558 -387C595 -398 606 -402 613 -406C636 -419 637 -429 624 -434C609 -439 599 -440 565 -425C572 -463 566 -469 530 -481C505 -490 495 -480 510 -461C513 -455 518 -438 520 -409C478 -396 471 -394 464 -393C447 -389 445 -385 459 -379C473 -371 486 -371 521 -378C522 -360 523 -328 522 -314C485 -299 471 -296 465 -296C442 -295 440 -285 457 -274C490 -250 497 -250 514 -264C536 -280 572 -301 621 -327C644 -339 639 -355 621 -350C609 -347 594 -342 557 -328Z"/>
</svg>