<svg xmlns="http://www.w3.org/2000/svg" viewBox="0 -1000 1000 1000">
	<path fill="#000000" d="M93 -230C87 -261 77 -260 72 -229C67 -201 61 -179 50 -163C41 -148 40 -137 50 -113C64 -84 78 -86 89 -121C102 -163 99 -201 93 -230ZM178 -159C183 -177 172 -210 151 -234C135 -252 126 -249 129 -227C132 -207 137 -172 148 -152C154 -141 172 -140 178 -159ZM249 -184C259 -205 244 -237 215 -253C197 -264 192 -261 197 -241C201 -226 206 -206 222 -181C230 -168 244 -172 249 -184ZM326 -224C325 -248 316 -260 285 -277C264 -290 256 -284 262 -267C270 -242 279 -228 296 -208C308 -194 327 -200 326 -224ZM183 -643C202 -643 225 -645 253 -649C258 -633 260 -617 261 -570C241 -562 227 -559 210 -557C187 -555 185 -543 204 -539C228 -534 244 -532 261 -535L260 -462C242 -455 225 -451 204 -447C189 -444 187 -437 206 -431C219 -427 236 -425 260 -429V-352C236 -347 209 -343 180 -339C179 -453 180 -537 183 -643ZM657 -318C633 -313 606 -307 580 -302V-351C604 -356 631 -363 657 -368ZM543 -412L544 -371C521 -366 499 -362 485 -360C453 -355 453 -341 476 -333C488 -329 499 -330 545 -342L546 -295C495 -283 447 -274 419 -270C397 -267 395 -253 417 -244C432 -237 451 -237 490 -249C498 -252 508 -255 520 -258C499 -216 452 -159 386 -108C393 -140 396 -178 396 -226C396 -269 400 -299 411 -314C421 -328 415 -340 390 -358C354 -382 339 -384 299 -364L300 -437C323 -442 341 -446 360 -451C384 -457 382 -481 358 -484C338 -486 319 -485 300 -479L301 -544C328 -551 336 -553 364 -560C392 -568 394 -584 371 -588C343 -593 328 -592 302 -584C304 -602 307 -616 312 -625C316 -635 312 -643 298 -656C328 -661 364 -669 407 -678C429 -683 429 -702 407 -709C379 -718 359 -714 325 -703C252 -680 215 -672 179 -670C173 -677 170 -679 142 -688C122 -694 111 -684 122 -664C134 -644 141 -609 141 -526C141 -444 138 -375 135 -351C133 -338 133 -316 138 -299C146 -273 163 -271 172 -296C178 -310 182 -313 314 -335C338 -339 342 -337 347 -296C352 -240 349 -156 333 -101C326 -72 317 -72 260 -95C236 -104 231 -97 251 -75C274 -47 284 -28 290 1C293 17 310 22 328 4C351 -19 367 -44 377 -77C430 -100 491 -149 526 -198C531 -63 524 -46 500 -23C485 -8 486 2 495 26C508 61 521 59 535 41C567 3 616 -42 669 -87C682 -98 686 -104 683 -106C680 -108 674 -107 660 -100C636 -88 599 -68 564 -45C566 -131 568 -166 570 -191C571 -199 567 -207 541 -224C553 -242 562 -257 568 -267C592 -242 626 -206 643 -187C693 -131 744 -81 782 -53C822 -22 831 -22 967 -46C988 -51 988 -63 966 -67C850 -91 773 -124 706 -179C745 -209 771 -227 788 -238C802 -246 800 -259 775 -274C744 -295 736 -293 732 -274C726 -248 713 -221 692 -192C612 -259 608 -263 591 -274C684 -294 760 -306 837 -314C872 -317 874 -338 846 -350C823 -361 800 -359 755 -343C747 -340 721 -334 687 -326L691 -375C708 -378 725 -381 740 -384C783 -393 786 -412 769 -420C759 -425 742 -427 693 -410L695 -449C728 -456 757 -463 777 -466C817 -472 820 -490 786 -502C777 -505 753 -502 698 -484C700 -491 701 -498 702 -502C703 -509 698 -516 675 -524C640 -538 631 -530 645 -506C651 -498 654 -484 656 -471C637 -465 610 -457 582 -450C582 -455 582 -461 582 -464C582 -473 576 -479 551 -486C528 -493 519 -485 529 -471C533 -465 537 -452 540 -440C516 -435 495 -431 477 -428C457 -427 457 -413 475 -406C484 -402 514 -405 543 -412ZM657 -440V-398C636 -392 608 -385 580 -378L581 -422C605 -429 632 -435 657 -440ZM473 -518C470 -535 465 -552 460 -567C486 -573 511 -578 527 -581C539 -583 546 -580 546 -570C546 -551 545 -546 540 -541C528 -534 498 -523 473 -518ZM439 -585C409 -592 405 -582 418 -566C426 -553 447 -512 454 -495C457 -486 463 -481 471 -483C475 -484 477 -489 476 -497C532 -510 540 -512 565 -519C585 -525 585 -534 575 -545C581 -557 588 -568 597 -579C610 -593 607 -602 575 -613C556 -620 547 -620 537 -614C522 -604 476 -591 439 -585ZM682 -562C679 -578 675 -594 671 -607C696 -613 724 -619 745 -623C754 -625 763 -622 763 -618C764 -599 759 -587 755 -582C740 -575 709 -568 682 -562ZM645 -625C624 -630 619 -619 630 -605C640 -590 660 -555 666 -538C669 -530 682 -528 684 -540C712 -544 749 -549 779 -553C801 -556 804 -567 788 -578C794 -587 801 -593 824 -613C837 -624 836 -634 807 -653C786 -667 776 -668 765 -661C753 -653 709 -639 645 -625ZM805 -732C785 -741 756 -739 726 -727C676 -710 518 -679 448 -670C426 -667 424 -656 445 -646C465 -637 478 -637 527 -650C543 -655 708 -685 802 -697C833 -702 836 -719 805 -732ZM667 -759C661 -781 645 -794 583 -798C563 -799 560 -790 572 -778C591 -758 616 -738 636 -729C659 -720 675 -732 667 -759Z"/>
</svg>