<svg xmlns="http://www.w3.org/2000/svg" viewBox="0 -1000 1000 1000">
	<path fill="#000000" d="M104 -230C98 -261 88 -260 83 -229C79 -201 73 -179 61 -163C52 -148 50 -137 61 -113C74 -87 89 -87 100 -121C114 -163 111 -201 104 -230ZM189 -159C194 -177 184 -210 162 -234C147 -252 138 -249 141 -227C144 -200 151 -167 159 -152C165 -139 185 -142 189 -159ZM260 -184C270 -205 255 -237 226 -253C207 -264 203 -260 209 -241C213 -224 220 -206 233 -181C241 -168 255 -172 260 -184ZM337 -224C336 -248 327 -260 296 -277C274 -290 268 -286 273 -267C280 -245 290 -229 307 -208C320 -194 338 -200 337 -224ZM194 -643C214 -643 236 -645 264 -649C270 -629 272 -609 272 -569C260 -564 244 -560 221 -557C201 -555 196 -543 216 -539C239 -534 255 -532 272 -535L271 -462C254 -455 237 -451 216 -447C200 -444 199 -437 218 -431C232 -425 249 -424 271 -429V-352C256 -349 229 -345 191 -339C190 -458 191 -539 194 -643ZM695 -344C662 -361 649 -347 659 -329C668 -308 675 -264 670 -176C666 -106 663 -76 659 -44C654 -15 670 12 682 12C690 12 699 -4 702 -31C727 -32 749 -35 777 -41C796 -45 811 -40 815 -25C832 38 835 44 839 44C845 44 852 38 864 13C875 -11 879 -54 876 -90C871 -160 869 -217 870 -277C870 -294 877 -319 885 -329C896 -339 893 -349 858 -371C832 -387 820 -387 804 -377C775 -361 734 -347 695 -344ZM710 -249C710 -277 710 -302 709 -322C719 -324 732 -325 740 -327C757 -332 782 -336 797 -336C808 -336 815 -334 818 -314C829 -259 831 -133 822 -93C817 -65 812 -65 807 -70C802 -75 786 -74 704 -55C706 -77 707 -107 708 -139C740 -133 765 -135 787 -143C816 -154 816 -169 789 -175C772 -179 751 -176 709 -160C710 -199 710 -217 710 -234C746 -227 766 -228 786 -236C811 -246 807 -266 787 -268C775 -270 753 -268 710 -249ZM509 -256C477 -179 431 -99 395 -63C379 -47 387 -36 403 -47C451 -80 485 -123 521 -196C516 -106 512 -66 506 -36C502 -17 503 6 509 18C525 51 536 47 548 19C556 4 559 -25 557 -49C554 -77 550 -143 551 -199C570 -181 583 -170 593 -162C616 -140 639 -159 624 -190C615 -205 593 -215 551 -214C553 -233 553 -250 554 -264C592 -272 624 -278 632 -281C651 -287 653 -304 633 -312C621 -317 609 -318 558 -305C559 -316 561 -330 563 -337C568 -349 567 -358 538 -372C504 -388 495 -374 506 -360C511 -352 518 -327 521 -295C484 -284 468 -281 428 -277C419 -276 412 -274 408 -272C411 -293 416 -305 423 -314C432 -328 426 -340 401 -358C364 -383 344 -380 310 -363L312 -437C334 -442 353 -446 371 -451C395 -457 393 -481 369 -484C350 -486 330 -485 312 -479L313 -544C333 -550 352 -555 375 -560C402 -567 405 -584 383 -588C355 -593 340 -594 314 -584C316 -602 319 -616 323 -625C327 -635 323 -643 309 -656C339 -661 375 -669 419 -678C440 -683 440 -702 419 -709C391 -718 370 -714 336 -703C263 -680 225 -673 190 -671C185 -677 173 -681 153 -688C134 -694 121 -685 133 -664C146 -644 152 -609 152 -526C152 -424 151 -371 148 -355C144 -335 146 -304 150 -295C161 -267 169 -265 184 -296C191 -311 196 -314 325 -335C348 -338 354 -337 358 -296C363 -240 360 -156 344 -101C337 -72 328 -72 271 -95C248 -104 242 -97 262 -75C286 -47 295 -28 301 1C304 17 322 22 339 4C392 -49 411 -124 407 -259C427 -247 447 -245 509 -256ZM566 -422C560 -435 543 -443 514 -443C490 -443 485 -431 499 -415C510 -404 530 -395 547 -392C565 -387 574 -409 566 -422ZM775 -438C769 -451 749 -462 720 -466C698 -470 694 -464 708 -441C716 -427 733 -415 754 -407C771 -401 785 -418 775 -438ZM570 -507C563 -519 545 -528 516 -522C496 -519 496 -510 510 -497C521 -486 535 -478 553 -475C571 -471 584 -485 570 -507ZM775 -531C772 -547 756 -555 720 -556C694 -557 692 -550 708 -532C720 -517 741 -503 755 -498C769 -492 780 -504 775 -531ZM613 -691C619 -675 624 -658 627 -613C565 -602 527 -595 496 -591C481 -634 469 -633 461 -609C451 -580 441 -560 424 -539C416 -528 413 -515 418 -500C425 -471 445 -472 460 -497C471 -516 479 -533 491 -568C511 -566 537 -567 557 -571C578 -576 602 -581 629 -586C630 -540 627 -504 622 -477C613 -440 612 -423 617 -411C635 -372 650 -374 659 -407C662 -418 665 -441 666 -471C668 -544 668 -564 669 -594C709 -602 788 -613 821 -615C844 -617 851 -610 820 -562C808 -544 814 -535 833 -545C873 -567 896 -575 918 -578C952 -582 954 -600 919 -627C870 -667 858 -668 834 -658C810 -649 762 -638 671 -621C672 -636 673 -647 674 -653C678 -674 675 -681 647 -698C709 -712 747 -721 759 -725C799 -739 798 -757 756 -768C742 -773 722 -768 692 -757C656 -744 584 -725 530 -715C513 -712 511 -699 531 -691C547 -684 570 -682 613 -691Z"/>
</svg>