<svg xmlns="http://www.w3.org/2000/svg" viewBox="0 -1000 1000 1000">
	<path fill="#000000" d="M198 -366C159 -379 152 -370 161 -341C177 -296 169 -128 146 -80C136 -63 135 -36 141 -19C151 20 163 22 178 -6C186 -23 190 -47 202 -168C232 -161 281 -163 304 -176C315 -183 315 -200 292 -204C284 -206 267 -208 203 -186C205 -206 207 -239 207 -255C235 -250 278 -252 298 -263C317 -270 308 -283 292 -289C276 -295 256 -292 209 -274C210 -296 210 -318 210 -341C235 -347 283 -353 298 -353C317 -353 326 -347 330 -311C338 -233 338 -149 335 -76C333 -47 324 -36 271 -53C258 -57 252 -44 264 -35C297 -10 318 12 327 32C334 48 348 52 360 32C387 -14 391 -46 384 -148C376 -242 381 -330 389 -342C401 -362 396 -369 367 -385C335 -404 327 -404 301 -390C276 -378 238 -370 198 -366ZM207 -463C209 -503 206 -545 203 -583C255 -598 266 -593 265 -586C262 -546 261 -509 262 -474C244 -470 225 -467 207 -463ZM182 -692C141 -716 127 -704 144 -680C155 -664 161 -621 178 -456C156 -452 137 -448 124 -446C116 -474 100 -473 96 -454C90 -427 74 -381 59 -361C51 -350 48 -330 49 -317C53 -289 60 -285 79 -298C98 -311 122 -367 126 -421C145 -420 165 -423 184 -428C298 -454 366 -470 391 -472C423 -475 427 -468 405 -429C394 -408 400 -405 416 -415C448 -438 469 -449 482 -453C514 -464 512 -475 466 -508C444 -522 435 -523 408 -510C404 -508 393 -504 375 -500C396 -608 416 -662 429 -678C450 -702 451 -711 402 -733C378 -745 366 -743 341 -730C302 -712 230 -695 182 -692ZM337 -490C323 -487 307 -484 292 -480C297 -560 303 -585 310 -595C318 -607 318 -613 296 -624C278 -635 273 -634 259 -625C248 -619 229 -613 201 -608C199 -631 196 -652 193 -668C206 -667 214 -667 223 -670C247 -676 284 -682 310 -686C349 -692 359 -685 357 -645C354 -593 349 -556 337 -490ZM561 -312C541 -320 515 -330 485 -339C461 -346 453 -338 472 -322C498 -303 524 -282 547 -264C516 -167 470 -99 394 -16C377 3 388 12 408 -2C496 -62 546 -135 584 -234C598 -223 611 -212 623 -202C636 -191 653 -196 650 -228C648 -250 640 -271 603 -293C615 -343 628 -410 634 -462C651 -468 671 -476 696 -485C717 -493 724 -489 717 -466C688 -354 685 -207 706 -131C730 -44 795 -4 891 10C946 18 953 7 944 -34C934 -79 931 -122 931 -186C931 -208 914 -213 909 -187C887 -69 873 -59 838 -69C803 -79 763 -106 749 -159C737 -207 735 -283 747 -349C762 -428 775 -462 803 -482C820 -496 821 -508 790 -526C745 -553 730 -551 711 -535C703 -527 683 -517 637 -500C648 -620 653 -651 663 -667C676 -693 673 -707 626 -729C570 -756 561 -739 584 -702C595 -686 598 -598 588 -481C550 -468 510 -455 476 -447C458 -443 457 -431 474 -427C526 -414 533 -415 583 -440C578 -395 571 -350 561 -312Z"/>
</svg>