<svg xmlns="http://www.w3.org/2000/svg" viewBox="0 -1000 1000 1000">
	<path fill="#000000" d="M636 -216C619 -234 601 -253 581 -275C545 -315 537 -321 510 -320C475 -319 478 -303 496 -295C529 -280 546 -264 613 -179C564 -112 516 -81 443 -45C405 -26 412 -18 444 -25C521 -42 592 -85 642 -143C668 -111 710 -59 734 -29C760 3 774 4 910 -8C967 -15 968 -35 925 -43C824 -64 756 -99 670 -182C685 -209 696 -235 704 -262C711 -285 726 -319 732 -329C744 -348 743 -358 706 -379C667 -402 653 -392 660 -369C671 -327 660 -263 636 -216ZM218 -264C218 -284 218 -308 217 -335C242 -339 274 -345 316 -355C327 -359 335 -356 338 -324C347 -240 350 -147 348 -74C347 -47 342 -45 293 -58C273 -63 267 -50 292 -30C314 -12 327 7 339 35C350 57 363 57 375 34C402 -17 404 -40 394 -147C387 -223 386 -317 398 -340C409 -360 405 -368 376 -383C345 -400 337 -400 328 -394C304 -378 248 -363 204 -360C168 -383 158 -376 168 -344C185 -294 172 -123 156 -75C144 -41 143 -33 151 -11C166 30 178 30 191 1C200 -19 203 -40 215 -159C246 -157 288 -163 320 -175C333 -180 331 -198 306 -201C282 -205 270 -203 217 -182C218 -198 219 -218 218 -244C254 -244 280 -249 309 -260C332 -268 327 -285 306 -289C292 -289 271 -285 218 -264ZM601 -440C616 -449 613 -463 575 -480C539 -496 533 -491 531 -469C528 -427 498 -384 459 -345C429 -314 437 -309 474 -331C498 -344 530 -370 562 -402C577 -417 595 -436 601 -440ZM834 -435C821 -471 797 -489 711 -496C683 -497 679 -490 700 -474C740 -442 786 -410 810 -399C838 -385 847 -396 834 -435ZM205 -571C255 -584 279 -585 278 -576C276 -557 276 -533 274 -459C252 -454 230 -450 210 -446C210 -493 209 -535 205 -571ZM824 -616C796 -628 780 -628 703 -606C597 -575 524 -557 476 -554C445 -552 443 -546 472 -536C502 -525 520 -524 576 -536C619 -544 783 -576 799 -578C858 -587 857 -603 824 -616ZM180 -680C145 -702 122 -693 136 -670C154 -642 163 -609 179 -440C171 -438 147 -434 134 -432C122 -476 112 -475 102 -438C92 -395 87 -382 73 -365C65 -355 62 -337 63 -314C65 -280 79 -274 96 -292C121 -316 138 -372 138 -409C156 -409 177 -412 194 -416C226 -424 340 -448 392 -456C415 -459 419 -454 402 -418C388 -384 395 -378 418 -396C443 -417 459 -422 489 -433C513 -441 512 -455 465 -486C435 -505 425 -506 388 -487C408 -619 416 -641 431 -661C450 -685 446 -693 411 -712C383 -726 378 -725 353 -715C310 -697 232 -681 180 -680ZM353 -478C338 -475 323 -471 305 -467C310 -544 315 -569 321 -579C329 -592 329 -601 309 -613C292 -624 283 -624 267 -614C258 -608 230 -598 204 -593C202 -618 199 -640 196 -654C212 -653 225 -654 233 -657C250 -662 296 -670 336 -674C365 -677 367 -677 365 -630C362 -581 359 -545 353 -478ZM708 -688C705 -724 685 -743 602 -756C567 -761 564 -757 578 -737C610 -695 629 -677 663 -654C686 -638 711 -648 708 -688Z"/>
</svg>