<svg xmlns="http://www.w3.org/2000/svg" viewBox="0 -1000 1000 1000">
	<path fill="#000000" d="M269 -297C271 -319 273 -342 273 -364C298 -365 326 -367 357 -370C393 -374 400 -369 401 -352C404 -277 403 -163 395 -98C391 -68 378 -63 326 -81C309 -88 303 -79 316 -66C333 -49 362 -18 371 0C382 18 398 20 415 -2C435 -30 447 -68 446 -96C444 -157 445 -222 448 -292C451 -327 456 -347 464 -360C474 -375 472 -386 437 -403C407 -416 399 -416 376 -407C343 -393 306 -384 253 -381C218 -395 212 -389 221 -370C230 -350 231 -287 218 -227C196 -126 135 -38 86 2C64 20 72 31 98 17C175 -20 222 -84 251 -186C288 -177 313 -178 345 -184C376 -191 382 -211 344 -217C335 -221 304 -217 255 -203C260 -228 263 -243 267 -279C294 -275 313 -275 355 -281C386 -286 388 -305 355 -311C341 -315 317 -310 269 -297ZM605 -316C606 -342 606 -367 605 -385C630 -386 659 -392 696 -400C725 -407 736 -400 739 -380C748 -319 755 -130 746 -80C740 -46 735 -41 661 -64C640 -70 633 -58 648 -45C697 -8 717 13 728 35C737 54 750 58 769 32C799 -10 806 -34 803 -78C798 -159 795 -244 791 -308C789 -343 794 -375 801 -388C814 -415 814 -423 782 -438C748 -453 740 -452 714 -440C682 -424 634 -413 583 -409C542 -424 535 -416 545 -399C559 -375 561 -328 551 -237C542 -145 515 -60 466 -3C444 22 456 32 475 15C549 -45 577 -103 595 -200C631 -194 665 -196 694 -202C732 -211 731 -227 692 -234C675 -237 658 -235 598 -217C601 -240 603 -260 604 -299C644 -294 669 -296 694 -301C730 -309 732 -331 703 -336C686 -339 668 -336 605 -316ZM816 -546C850 -555 848 -572 820 -594C793 -616 779 -615 776 -596C774 -581 757 -567 680 -522C641 -500 590 -477 555 -466C527 -456 530 -442 558 -446C613 -453 664 -473 724 -504C746 -515 804 -543 816 -546ZM794 -645C822 -652 820 -671 787 -694C764 -711 756 -711 753 -696C750 -681 727 -658 692 -637C648 -610 608 -589 582 -579C562 -571 562 -556 583 -560C636 -570 672 -580 717 -608C738 -620 777 -641 794 -645ZM795 -756C807 -762 805 -771 773 -795C746 -815 732 -811 731 -791C730 -775 712 -758 677 -732C649 -712 604 -683 559 -660C532 -647 532 -637 564 -643C604 -651 654 -674 708 -709C741 -730 777 -748 795 -756ZM274 -738C227 -757 213 -742 226 -725C242 -705 253 -676 261 -560C182 -548 124 -544 90 -544C64 -544 64 -535 82 -520C114 -496 123 -495 158 -506C183 -514 224 -523 261 -531C258 -519 249 -505 234 -490C217 -473 197 -461 181 -456C162 -451 158 -443 169 -419C180 -399 186 -398 207 -409C240 -425 298 -444 431 -477C439 -468 447 -459 456 -452C466 -444 484 -447 484 -466C484 -501 469 -524 415 -537C398 -540 394 -536 400 -521C401 -519 410 -505 418 -496C370 -485 284 -469 250 -462C267 -478 309 -519 313 -520C318 -522 317 -526 302 -538C389 -550 404 -551 503 -562C531 -566 535 -587 508 -592C498 -594 475 -594 454 -588C446 -586 386 -577 300 -566L299 -604C347 -605 426 -612 468 -621C493 -626 494 -644 456 -645C439 -645 404 -639 391 -634C381 -629 342 -625 299 -623L298 -659C355 -662 437 -673 474 -680C493 -684 492 -704 464 -706C447 -707 426 -705 401 -694C389 -689 335 -682 297 -680C296 -694 294 -709 291 -720C324 -718 370 -719 403 -725C442 -732 478 -739 495 -741C544 -746 544 -766 512 -775C498 -779 474 -777 439 -766C404 -756 324 -743 274 -738Z"/>
</svg>