<svg xmlns="http://www.w3.org/2000/svg" viewBox="0 -1000 1000 1000">
	<path fill="#000000" d="M592 -674C608 -697 621 -716 631 -726C643 -742 639 -753 604 -766C567 -781 557 -773 562 -755C566 -741 562 -721 551 -698C534 -661 487 -605 438 -564C425 -552 431 -543 447 -550C488 -568 544 -612 575 -650C617 -644 643 -644 697 -650C743 -655 772 -662 820 -677C837 -682 834 -697 812 -705C785 -713 769 -711 720 -698C663 -683 626 -676 592 -674ZM549 -576C508 -591 498 -581 511 -558C524 -538 531 -509 534 -440C535 -407 540 -386 557 -386C565 -386 569 -392 570 -403C592 -408 615 -411 636 -411C647 -411 653 -408 658 -400C667 -381 678 -379 694 -400C709 -420 717 -442 736 -511C743 -539 748 -547 755 -554C773 -571 773 -584 730 -606C709 -616 697 -619 678 -609C652 -594 622 -585 549 -576ZM563 -502C563 -517 563 -534 563 -552C596 -556 624 -560 667 -569C684 -572 690 -568 687 -553C684 -517 679 -482 671 -449C669 -442 664 -440 657 -441C642 -443 618 -441 568 -430C566 -446 565 -463 564 -483C589 -477 607 -477 635 -485C654 -489 661 -501 646 -509C634 -515 618 -514 563 -502ZM224 -298C226 -311 213 -331 196 -337C173 -345 167 -340 173 -319C177 -309 185 -291 191 -283C211 -263 219 -263 224 -298ZM384 -688C412 -698 411 -711 372 -721C349 -727 336 -727 313 -718C270 -701 202 -682 153 -679C127 -677 124 -660 155 -653C178 -648 194 -649 273 -660C306 -665 344 -675 384 -688ZM122 -358C156 -362 202 -369 232 -375C255 -380 289 -384 302 -384C349 -385 356 -378 359 -344C366 -258 368 -159 359 -107C355 -81 341 -72 310 -85C291 -92 279 -79 293 -67C313 -51 334 -24 342 -5C352 17 365 18 381 -3C411 -46 417 -73 409 -205C407 -244 408 -283 411 -313C445 -306 471 -305 520 -313C516 -302 509 -292 501 -280C475 -245 447 -215 423 -198C418 -195 422 -181 435 -187C468 -198 495 -216 524 -247C544 -244 553 -243 563 -244C560 -231 554 -216 543 -203C523 -175 504 -156 445 -104C434 -93 439 -86 460 -95C501 -113 559 -161 590 -199C596 -208 600 -213 607 -218C615 -224 614 -232 599 -248C623 -252 643 -255 663 -257C661 -240 654 -223 645 -206C610 -141 548 -70 464 -12C446 0 454 9 471 3C545 -22 621 -87 676 -175C693 -201 710 -218 716 -223C724 -229 721 -236 698 -259C765 -263 774 -256 771 -223C765 -162 737 -83 684 -29C671 -16 660 -12 612 -39C589 -52 582 -43 596 -25C616 3 630 27 638 53C643 71 650 73 679 56C737 20 782 -47 817 -159C827 -190 838 -216 851 -231C866 -247 865 -256 814 -286C777 -309 763 -307 740 -299C707 -287 600 -271 542 -267C556 -280 562 -285 569 -287C583 -293 581 -304 556 -319C680 -338 817 -348 878 -348C939 -348 944 -370 918 -383C880 -404 858 -406 797 -393C686 -370 509 -341 413 -331C417 -345 420 -356 423 -362C437 -381 432 -393 399 -415C365 -437 357 -437 333 -430C314 -423 288 -417 232 -404C204 -398 148 -388 98 -383C70 -398 59 -385 76 -354C90 -328 91 -164 84 -140C73 -102 78 -76 90 -46C101 -20 121 -26 124 -52C129 -90 132 -216 130 -262C127 -321 125 -344 122 -358ZM241 -246C207 -236 175 -229 163 -229C139 -229 141 -211 166 -205C179 -203 199 -201 216 -204C218 -172 218 -156 218 -137C218 -101 219 -89 222 -84C230 -68 242 -71 248 -86C255 -104 257 -127 257 -184C257 -192 254 -200 242 -212C279 -225 301 -233 318 -236C345 -242 342 -264 312 -265C303 -265 289 -261 266 -255C296 -297 304 -307 320 -322C334 -337 333 -345 301 -364C283 -375 271 -368 275 -356C283 -338 270 -293 241 -246ZM184 -556C219 -561 263 -569 286 -576C305 -582 312 -577 308 -556C303 -519 297 -512 278 -503C257 -493 229 -487 196 -482C192 -506 188 -532 184 -556ZM195 -454C223 -461 259 -468 275 -471C296 -474 315 -476 328 -476C350 -476 355 -492 341 -507C336 -512 344 -531 383 -566C398 -580 396 -595 358 -613C327 -627 318 -627 296 -614C276 -603 216 -585 164 -580C125 -598 112 -583 129 -564C142 -550 158 -500 163 -454C166 -431 184 -427 195 -454Z"/>
</svg>