<svg xmlns="http://www.w3.org/2000/svg" viewBox="0 -1000 1000 1000">
	<path fill="#000000" d="M968 -41C1009 -46 1004 -62 968 -69C810 -97 730 -127 595 -243C539 -289 470 -355 399 -422C428 -424 464 -429 509 -439C579 -452 627 -461 638 -462C682 -467 686 -490 668 -502C646 -516 647 -528 660 -549C682 -588 714 -634 720 -639C763 -669 762 -678 695 -712C641 -740 629 -738 596 -707C585 -697 468 -664 377 -653C302 -680 292 -667 321 -621C330 -607 339 -461 309 -310C289 -208 219 -121 136 -63C86 -27 94 -16 169 -50C275 -97 347 -206 380 -407C464 -319 576 -193 654 -101C718 -27 729 -22 816 -25C849 -26 907 -33 968 -41ZM620 -591C603 -493 598 -491 551 -482C507 -473 451 -461 384 -446C390 -509 393 -568 392 -626C445 -638 518 -654 568 -663C618 -672 632 -661 620 -591Z"/>
</svg>