<svg xmlns="http://www.w3.org/2000/svg" viewBox="0 -1000 1000 1000">
	<path fill="#000000" d="M151 -158C145 -184 133 -183 127 -158C120 -127 108 -99 95 -88C77 -71 75 -51 81 -15C84 1 106 -2 117 -18C156 -72 159 -121 151 -158ZM248 -81C257 -104 252 -123 215 -161C204 -171 200 -168 201 -149C203 -116 207 -95 214 -75C218 -60 238 -59 248 -81ZM336 -116C340 -139 333 -156 297 -182C284 -193 275 -189 282 -165C286 -145 292 -126 300 -108C309 -92 333 -92 336 -116ZM434 -118C438 -155 433 -169 381 -198C364 -207 356 -201 366 -179C379 -150 388 -137 400 -114C410 -95 431 -94 434 -118ZM296 -264L301 -330C317 -333 331 -336 348 -341C372 -349 372 -365 356 -371C343 -376 333 -378 304 -372C306 -397 308 -406 312 -412C318 -425 312 -433 292 -442C315 -447 338 -452 357 -454C377 -457 388 -450 388 -428C388 -390 385 -354 371 -290C367 -270 365 -268 349 -269C336 -270 319 -268 296 -264ZM255 -435C260 -423 263 -401 263 -362C250 -358 232 -353 215 -347C187 -338 189 -324 262 -327L259 -256C242 -251 223 -246 201 -240C188 -332 184 -366 177 -423C203 -425 231 -430 255 -435ZM236 -592C261 -583 278 -583 303 -589C324 -594 325 -588 248 -459C220 -453 190 -448 164 -446C117 -466 97 -441 117 -422C129 -411 145 -355 164 -231C168 -206 177 -197 186 -197C191 -197 198 -204 202 -215C273 -231 306 -237 336 -239C350 -240 360 -239 362 -231C366 -214 383 -219 393 -240C408 -271 416 -301 430 -375C437 -413 441 -427 455 -440C465 -450 462 -461 447 -471C430 -483 418 -491 409 -495C390 -502 384 -500 366 -491C353 -485 318 -475 276 -466C338 -545 373 -579 399 -590C421 -600 420 -614 398 -628C362 -651 353 -652 326 -635C297 -616 272 -610 251 -613C293 -680 310 -704 320 -710C338 -722 336 -731 298 -755C249 -786 237 -775 246 -747C249 -736 242 -712 236 -697C201 -616 166 -560 109 -493C89 -471 95 -467 119 -482C159 -509 201 -550 236 -592ZM857 -680C854 -715 839 -727 766 -736C737 -739 736 -730 755 -709C783 -679 798 -665 822 -650C840 -639 859 -659 857 -680ZM629 -525C629 -496 629 -461 629 -425C591 -417 551 -410 521 -406C481 -430 466 -417 476 -387C493 -337 496 -315 492 -246C487 -165 479 -119 471 -93C459 -55 458 -38 468 -9C480 29 499 32 509 -5C527 -64 536 -168 535 -379C567 -386 582 -389 629 -398C629 -369 629 -339 629 -312C613 -308 597 -304 583 -302C548 -296 548 -289 581 -278C594 -274 609 -274 629 -276C629 -243 629 -216 629 -202C608 -197 594 -194 579 -191C544 -184 544 -177 577 -167C590 -163 607 -162 628 -164C627 -62 628 -29 631 -7C637 40 648 39 659 -5C666 -35 667 -52 669 -169C687 -173 708 -178 730 -184C765 -195 764 -213 734 -219C722 -223 706 -222 670 -212C671 -234 671 -258 671 -283C690 -289 709 -294 732 -300C762 -308 762 -325 732 -331C720 -334 697 -333 672 -326C672 -350 673 -376 673 -405C698 -409 721 -412 742 -415C776 -419 783 -418 787 -392C798 -329 803 -169 801 -96C799 -40 791 -38 735 -54C705 -62 699 -54 727 -29C757 -1 776 22 784 46C793 70 817 70 833 44C868 -16 870 -33 855 -190C846 -285 849 -373 863 -396C872 -412 867 -425 830 -445C784 -469 775 -470 756 -459C746 -453 713 -444 673 -435C674 -472 675 -504 675 -534C779 -548 850 -550 902 -546C951 -543 955 -568 916 -589C884 -607 863 -608 804 -593C777 -587 729 -578 677 -569C680 -660 686 -707 692 -725C701 -760 700 -771 647 -790C601 -808 589 -790 611 -761C627 -741 629 -718 629 -560C563 -549 499 -540 472 -539C442 -538 439 -533 471 -515C494 -503 508 -499 555 -509C581 -515 605 -520 629 -525Z"/>
</svg>