<svg xmlns="http://www.w3.org/2000/svg" viewBox="0 -1000 1000 1000">
	<path fill="#000000" d="M159 -155C153 -177 149 -177 138 -149C125 -115 110 -73 103 -46C94 -4 127 9 149 -35C168 -72 170 -109 159 -155ZM256 -77C265 -100 260 -119 224 -157C217 -164 212 -162 213 -145C215 -112 218 -91 223 -71C227 -56 248 -55 256 -77ZM340 -112C344 -135 337 -152 302 -178C290 -189 283 -184 289 -161C293 -141 298 -122 306 -104C316 -88 337 -88 340 -112ZM431 -111C448 -145 442 -163 388 -196C372 -205 361 -201 373 -173C383 -150 391 -133 402 -110C412 -91 421 -91 431 -111ZM303 -260L308 -327C327 -332 345 -338 361 -344C379 -351 381 -363 360 -371C347 -377 334 -375 312 -366C313 -387 314 -395 316 -402C322 -419 316 -429 299 -438C322 -442 343 -447 361 -449C381 -452 391 -446 391 -423C391 -378 387 -344 374 -285C371 -269 365 -264 353 -265C341 -266 327 -264 303 -260ZM266 -430C272 -414 273 -390 272 -353C260 -350 245 -347 227 -344C204 -340 204 -326 233 -319C245 -317 258 -317 272 -319L270 -251C254 -247 234 -242 210 -235C202 -302 193 -370 187 -418C215 -420 242 -425 266 -430ZM255 -588C283 -577 302 -579 320 -584C339 -589 342 -587 267 -457C234 -450 198 -444 167 -442C123 -458 112 -443 130 -420C142 -406 157 -351 176 -227C180 -202 188 -195 197 -195C200 -195 205 -200 209 -209C275 -225 320 -233 348 -235C361 -236 366 -233 371 -227C385 -213 391 -216 400 -236C410 -257 419 -281 436 -371C442 -403 452 -428 457 -433C470 -446 468 -459 453 -469C439 -477 427 -484 411 -490C393 -498 387 -496 370 -487C358 -482 330 -473 296 -464C362 -552 394 -581 411 -588C433 -598 434 -609 410 -624C377 -646 370 -649 341 -630C317 -615 294 -605 269 -608C291 -643 320 -688 335 -706C351 -724 351 -727 315 -751C272 -779 260 -771 268 -743C271 -731 267 -712 261 -697C227 -616 197 -565 134 -489C117 -468 124 -461 150 -478C180 -499 214 -532 255 -588ZM592 -642C604 -660 599 -669 564 -693C526 -721 512 -710 524 -672C530 -648 518 -572 476 -480C469 -465 468 -453 480 -441C496 -425 510 -410 524 -392C527 -386 538 -375 549 -366C567 -352 591 -367 587 -386C579 -412 555 -438 510 -459C503 -464 501 -471 508 -483C529 -522 549 -559 560 -582C573 -610 587 -633 592 -642ZM732 -665C738 -676 736 -685 701 -709C666 -732 649 -717 667 -684C675 -670 667 -636 622 -509C615 -491 618 -484 630 -472C645 -453 656 -440 667 -422C672 -413 681 -402 686 -396C700 -379 724 -389 719 -418C713 -450 701 -468 652 -487C644 -490 641 -501 647 -509C671 -545 692 -585 703 -610C713 -635 725 -656 732 -665ZM885 -446C881 -476 864 -501 781 -533C769 -537 768 -545 775 -554C790 -572 815 -605 831 -627C855 -664 870 -681 876 -686C891 -701 889 -708 849 -733C807 -761 793 -748 804 -710C810 -691 799 -651 750 -552C742 -537 743 -526 757 -514C777 -498 791 -484 805 -468C821 -448 835 -435 850 -418C867 -401 889 -413 885 -446ZM692 -88L694 -179C726 -183 742 -188 765 -196C784 -203 787 -214 776 -227C765 -239 724 -237 695 -226C695 -240 696 -260 697 -272C700 -294 700 -306 697 -314C727 -319 761 -324 788 -326C825 -328 833 -322 833 -274C833 -207 827 -159 810 -90C806 -71 796 -71 786 -83C771 -103 760 -104 714 -93C708 -92 700 -90 692 -88ZM526 -282C564 -289 613 -298 649 -305C652 -290 652 -267 653 -214C634 -209 614 -206 598 -204C577 -202 570 -186 589 -177C596 -173 610 -171 653 -175L654 -83C622 -77 584 -73 555 -70C544 -171 537 -234 526 -282ZM556 -36C579 -37 604 -41 653 -49C693 -55 711 -57 748 -60C778 -62 789 -55 805 -4C814 27 831 28 843 6C862 -24 877 -79 885 -192C889 -244 899 -276 910 -290C930 -313 921 -329 875 -355C839 -376 829 -378 803 -368C779 -358 633 -331 506 -313C460 -334 450 -317 473 -279C480 -266 504 -136 512 -53C518 -9 530 2 540 2C546 2 555 -12 556 -36Z"/>
</svg>