<svg xmlns="http://www.w3.org/2000/svg" viewBox="0 -1000 1000 1000">
	<path fill="#000000" d="M815 -605C853 -616 855 -621 792 -665C762 -686 749 -678 747 -661C744 -637 741 -626 682 -558C664 -537 672 -529 695 -543C743 -571 795 -599 815 -605ZM506 -549C501 -560 484 -577 447 -586C400 -597 395 -589 415 -561C435 -532 460 -508 476 -499C504 -483 519 -519 506 -549ZM346 -665C365 -683 364 -700 324 -727C273 -763 259 -755 272 -720C280 -700 263 -643 224 -571C172 -474 116 -406 32 -314C19 -300 23 -293 40 -302C100 -334 174 -401 234 -490C239 -475 239 -453 237 -391C233 -230 226 -165 218 -140C198 -80 201 -50 213 -28C234 10 250 10 261 -21C271 -53 278 -104 278 -167C278 -235 282 -405 285 -422C292 -464 286 -485 248 -511C257 -525 264 -536 274 -554C299 -599 336 -655 346 -665ZM903 -332C874 -359 812 -370 727 -346C711 -341 673 -334 624 -325C625 -357 626 -391 626 -416C672 -424 738 -437 755 -439C787 -443 788 -461 759 -472C728 -483 709 -480 656 -463C648 -460 639 -458 626 -456C627 -621 633 -677 647 -714C662 -754 656 -768 591 -795C540 -816 528 -791 558 -762C567 -753 575 -729 576 -683C578 -605 578 -530 577 -446C524 -436 460 -424 432 -422C412 -421 410 -411 430 -402C462 -388 483 -389 577 -407C578 -375 578 -346 577 -317C471 -300 348 -283 327 -282C301 -281 297 -272 319 -260C356 -240 381 -239 423 -252C441 -257 510 -270 576 -279C568 -69 567 -13 571 17C578 76 598 76 608 22C628 -89 630 -159 625 -286C713 -296 805 -296 844 -292C927 -283 935 -304 903 -332Z"/>
</svg>