<svg xmlns="http://www.w3.org/2000/svg" viewBox="0 -1000 1000 1000">
	<path fill="#000000" d="M545 -259C557 -283 544 -314 498 -326C486 -329 478 -319 484 -308C494 -285 503 -270 512 -257C525 -239 537 -240 545 -259ZM764 -268C771 -294 752 -317 710 -326C695 -329 686 -321 694 -310C706 -290 719 -272 731 -261C747 -244 759 -250 764 -268ZM166 -159C156 -174 152 -173 147 -152C145 -142 132 -125 115 -104C107 -95 101 -74 104 -45C109 -14 130 -11 147 -40C172 -85 183 -135 166 -159ZM266 -99C270 -126 259 -139 224 -158C207 -167 200 -162 205 -144C212 -123 228 -93 238 -80C247 -72 263 -79 266 -99ZM344 -112C348 -138 337 -159 302 -174C286 -182 278 -175 285 -156C292 -136 303 -112 318 -96C327 -86 342 -95 344 -112ZM444 -121C445 -154 419 -176 379 -189C366 -193 359 -186 365 -172C378 -144 396 -115 416 -95C425 -85 443 -97 444 -121ZM801 -241C742 -199 681 -160 670 -157C650 -149 651 -143 674 -129C699 -113 707 -112 713 -121C732 -145 760 -176 807 -226C821 -241 810 -247 801 -241ZM878 -134C866 -303 871 -362 888 -381C902 -397 898 -406 842 -431C814 -443 807 -442 798 -435C782 -422 745 -412 696 -409C682 -408 679 -397 693 -389C710 -379 717 -379 748 -384C766 -387 780 -388 793 -389C810 -390 819 -376 820 -363C828 -274 830 -163 823 -67C821 -43 815 -36 747 -55C730 -60 724 -50 741 -36C773 -12 796 14 808 42C815 58 830 57 840 46C879 5 885 -31 878 -134ZM605 -242C527 -197 496 -180 471 -173C447 -166 446 -158 469 -141C491 -125 497 -124 511 -138C530 -157 568 -194 605 -224C605 -174 602 -133 596 -87C592 -55 577 -45 530 -64C507 -73 503 -62 522 -47C543 -30 559 -5 564 9C571 32 583 36 602 19C634 -10 643 -36 643 -135C643 -283 649 -349 664 -367C675 -380 673 -388 634 -410C612 -422 605 -421 595 -415C575 -403 542 -395 498 -389C474 -386 474 -379 486 -373C503 -363 513 -361 529 -365C544 -369 556 -371 585 -374C596 -375 601 -369 602 -356C605 -312 606 -275 605 -242ZM582 -469C604 -470 622 -472 646 -477C679 -484 718 -489 765 -492C772 -468 781 -466 790 -475C803 -487 814 -508 825 -538C853 -612 864 -633 874 -642C896 -660 892 -678 860 -695C810 -723 799 -722 767 -709C729 -693 634 -676 547 -669C495 -685 481 -676 494 -657C514 -624 527 -589 545 -505C560 -436 575 -437 582 -469ZM576 -583C574 -605 572 -623 569 -641C617 -646 644 -650 685 -658C702 -661 722 -663 763 -668C786 -670 795 -661 793 -639C789 -609 778 -556 767 -521C744 -525 733 -524 699 -516C658 -506 622 -500 583 -497C582 -519 580 -541 578 -559C625 -558 662 -564 714 -577C743 -584 742 -601 714 -610C705 -613 691 -613 656 -600C640 -594 601 -585 576 -583ZM308 -265L310 -336C326 -339 343 -344 364 -350C383 -356 382 -374 356 -379C348 -381 330 -377 313 -373C315 -404 316 -415 317 -419C320 -432 317 -442 309 -449C328 -452 349 -455 371 -456C391 -457 400 -454 399 -431C397 -393 391 -347 382 -303C376 -280 370 -274 360 -273C344 -271 327 -269 308 -265ZM191 -429C218 -431 240 -434 266 -440C271 -429 273 -410 273 -362C260 -358 245 -354 231 -351C206 -346 205 -340 232 -332C242 -329 254 -328 273 -330L274 -259C257 -253 237 -249 217 -243C200 -339 193 -387 191 -429ZM269 -610C290 -603 309 -601 334 -604C358 -607 359 -604 271 -469C229 -461 207 -457 179 -454C125 -464 121 -454 130 -438C145 -410 155 -372 176 -261C185 -210 196 -195 209 -195C214 -195 219 -205 220 -219C285 -232 336 -240 358 -243C365 -244 367 -242 370 -235C379 -214 386 -213 395 -223C407 -235 416 -251 429 -312C447 -397 456 -420 472 -437C487 -451 486 -465 438 -489C411 -504 403 -503 383 -495C369 -489 340 -482 307 -476C374 -557 397 -580 423 -593C451 -608 452 -618 419 -637C381 -658 370 -656 354 -647C326 -631 303 -625 282 -627C308 -668 318 -680 328 -687C347 -701 343 -717 306 -741C270 -763 251 -758 259 -733C265 -715 261 -696 246 -669C197 -583 151 -523 95 -468C79 -451 86 -447 108 -459C172 -496 222 -545 269 -610Z"/>
</svg>