<svg xmlns="http://www.w3.org/2000/svg" viewBox="0 -1000 1000 1000">
	<path fill="#000000" d="M502 -189C485 -197 477 -192 481 -174C487 -149 498 -124 511 -105C523 -90 540 -95 544 -115C550 -146 537 -169 502 -189ZM558 -430C610 -437 641 -442 699 -453C721 -420 740 -421 780 -518C797 -558 812 -586 831 -599C858 -616 858 -625 809 -655C779 -674 763 -675 741 -662C714 -647 634 -629 575 -623C638 -684 663 -705 694 -723C729 -744 727 -754 666 -777C622 -793 611 -783 619 -758C625 -742 605 -698 544 -621H538C484 -642 471 -627 490 -607C510 -584 529 -467 512 -344C504 -281 508 -265 523 -239C534 -219 542 -222 547 -242C553 -262 555 -266 562 -267C743 -294 770 -297 788 -298C836 -300 855 -283 853 -255C848 -162 830 -108 805 -63C789 -35 770 -29 697 -68C684 -75 674 -62 685 -50C735 4 741 17 747 43C751 60 762 65 782 52C853 10 890 -62 908 -200C913 -237 919 -259 932 -272C951 -293 951 -305 914 -325C864 -351 854 -351 828 -343C770 -326 722 -316 557 -296C558 -309 558 -326 558 -344C614 -347 684 -359 735 -373C756 -379 761 -395 747 -401C732 -408 715 -409 673 -397C598 -375 589 -373 558 -368C559 -388 559 -400 558 -430ZM555 -595C568 -594 584 -596 603 -601C619 -605 658 -613 721 -622C748 -626 755 -621 751 -605C732 -519 718 -492 699 -482C639 -469 618 -465 558 -453C557 -480 557 -492 557 -507C605 -512 653 -521 690 -534C718 -543 717 -565 698 -568C685 -570 670 -567 632 -553C619 -549 600 -543 556 -533C555 -570 555 -581 555 -595ZM595 -213C574 -221 569 -212 577 -197C597 -163 610 -142 618 -136C634 -125 649 -131 650 -152C651 -181 632 -201 595 -213ZM705 -236C681 -246 677 -243 686 -223C698 -197 713 -169 732 -143C742 -129 764 -131 768 -149C775 -186 755 -214 705 -236ZM404 -205C402 -187 396 -164 375 -112C372 -104 374 -81 383 -67C392 -51 405 -51 413 -64C441 -112 444 -162 424 -207C419 -219 405 -216 404 -205ZM239 -591C292 -600 327 -605 341 -608C374 -614 381 -611 376 -578C367 -500 363 -484 328 -475C291 -465 266 -459 240 -456C242 -504 242 -549 239 -591ZM238 -429C269 -429 313 -434 374 -446C426 -456 429 -469 413 -486C407 -493 405 -506 411 -523C425 -561 434 -581 457 -600C469 -610 469 -626 434 -650C408 -668 399 -668 370 -653C332 -635 269 -617 224 -617C171 -642 157 -626 176 -600C190 -579 195 -502 184 -364C173 -239 132 -114 82 -40C59 -6 69 4 96 -25C187 -124 229 -246 238 -429Z"/>
</svg>