<svg xmlns="http://www.w3.org/2000/svg" viewBox="0 -1000 1000 1000">
	<path fill="#000000" d="M497 -197C499 -225 487 -227 479 -208C472 -191 460 -171 446 -153C430 -130 431 -114 437 -99C444 -81 452 -81 461 -90C482 -109 493 -139 497 -197ZM594 -143C600 -170 594 -191 561 -208C543 -217 537 -211 542 -193C548 -170 556 -147 561 -137C568 -121 590 -125 594 -143ZM682 -164C685 -195 668 -210 632 -219C612 -225 609 -219 616 -207C628 -190 637 -174 649 -155C659 -140 680 -145 682 -164ZM775 -167C779 -200 769 -214 720 -233C698 -241 694 -234 702 -217C717 -187 731 -166 746 -148C756 -137 772 -143 775 -167ZM700 -483C683 -489 647 -487 609 -476C600 -473 590 -472 567 -471C567 -487 567 -502 566 -523C600 -523 657 -532 682 -542C703 -551 706 -562 692 -570C684 -574 668 -575 648 -568C635 -562 602 -555 566 -550C567 -570 567 -591 567 -607C590 -609 630 -614 707 -626C732 -630 739 -628 735 -606C730 -576 717 -525 711 -504C708 -495 704 -487 700 -483ZM566 -385C567 -412 567 -423 567 -439C587 -442 673 -457 695 -461C719 -433 725 -433 777 -547C797 -590 804 -600 815 -607C839 -623 836 -637 797 -660C764 -680 749 -679 730 -670C709 -659 646 -645 591 -635C664 -709 691 -731 704 -738C728 -748 725 -760 681 -785C637 -811 621 -798 627 -778C633 -756 616 -716 555 -628C498 -650 489 -638 500 -616C514 -589 524 -535 524 -482C524 -359 522 -316 516 -299C513 -286 519 -265 524 -255C536 -231 557 -233 559 -250C561 -264 563 -266 583 -269C638 -277 718 -285 784 -290C818 -293 838 -284 837 -245C836 -172 824 -108 814 -80C799 -38 785 -37 720 -63C704 -70 697 -62 707 -50C728 -26 749 8 755 34C760 51 770 60 785 49C840 13 872 -39 883 -140C889 -199 897 -233 912 -255C927 -276 928 -286 885 -314C848 -338 834 -339 808 -334C737 -319 634 -303 563 -295C564 -308 565 -339 565 -364C613 -360 696 -366 763 -382C774 -385 772 -402 763 -406C737 -418 726 -417 681 -405C665 -400 599 -389 566 -385ZM432 -179C430 -223 417 -248 347 -286C326 -298 321 -290 331 -269C358 -213 373 -183 393 -157C410 -133 434 -141 432 -179ZM199 -478C222 -469 246 -467 289 -473C284 -434 279 -399 273 -367C217 -354 156 -345 117 -343C78 -341 75 -330 111 -305C134 -289 150 -285 183 -301C197 -307 211 -311 266 -327C236 -188 192 -109 106 -35C80 -14 90 1 117 -17C237 -97 288 -175 319 -340C373 -352 429 -365 458 -369C510 -377 512 -390 479 -405C462 -413 439 -412 415 -404C385 -395 355 -385 326 -378C330 -407 334 -441 338 -481C376 -490 420 -505 438 -512C486 -532 477 -551 451 -554C429 -557 408 -553 342 -528C354 -642 358 -677 370 -696C385 -720 379 -734 338 -752C279 -778 262 -763 287 -728C298 -712 303 -617 293 -510C254 -498 230 -496 210 -498C225 -528 234 -546 246 -557C258 -570 258 -582 217 -604C179 -623 167 -612 177 -586C188 -556 166 -486 112 -398C98 -376 104 -369 128 -385C152 -403 175 -430 199 -478Z"/>
</svg>