<svg xmlns="http://www.w3.org/2000/svg" viewBox="0 -1000 1000 1000">
	<path fill="#000000" d="M501 -196C503 -226 491 -228 482 -208C478 -197 469 -178 461 -167C441 -137 434 -103 439 -89C446 -68 453 -68 465 -79C486 -99 497 -131 501 -196ZM594 -135C599 -162 596 -178 564 -201C545 -214 539 -208 543 -191C548 -171 559 -141 564 -130C572 -112 591 -115 594 -135ZM673 -156C678 -182 668 -208 628 -218C608 -224 605 -221 613 -206C624 -188 634 -170 647 -149C657 -133 669 -136 673 -156ZM777 -149C785 -178 773 -214 720 -234C698 -242 693 -238 702 -218C719 -180 732 -162 747 -143C757 -130 772 -132 777 -149ZM691 -481C672 -486 637 -483 599 -472C589 -469 579 -468 567 -467C567 -486 567 -501 566 -527C600 -528 649 -538 675 -548C697 -557 701 -571 685 -578C677 -582 661 -583 640 -576C627 -571 593 -561 566 -556C567 -579 567 -605 567 -621C597 -622 643 -628 702 -639C726 -643 732 -642 729 -617C725 -586 712 -530 705 -507C701 -493 696 -485 691 -481ZM566 -378C566 -395 567 -417 567 -434C589 -438 615 -441 660 -450C670 -452 684 -455 693 -457C712 -438 720 -439 770 -553C782 -581 800 -608 816 -621C838 -639 836 -655 793 -679C756 -698 743 -697 725 -686C707 -675 636 -655 578 -644C659 -723 681 -741 698 -748C720 -758 716 -770 671 -796C627 -822 609 -808 617 -793C627 -777 605 -720 547 -644C499 -661 487 -654 500 -628C511 -607 525 -548 525 -483C525 -366 522 -310 518 -293C514 -279 516 -269 525 -245C534 -223 554 -218 557 -240C559 -255 561 -258 582 -261C662 -272 713 -278 781 -283C817 -286 835 -276 835 -234C834 -141 828 -104 817 -71C805 -32 795 -31 721 -62C704 -69 699 -56 710 -42C752 8 764 30 768 47C773 66 784 69 800 59C862 16 877 -18 888 -121C898 -201 904 -231 918 -246C942 -272 937 -286 887 -313C843 -337 834 -335 807 -328C773 -318 646 -300 563 -292C564 -306 565 -331 565 -354C610 -351 681 -358 722 -368C734 -371 747 -373 759 -374C773 -375 772 -394 759 -401C739 -411 715 -408 676 -397C653 -390 597 -381 566 -378ZM263 -421C266 -412 267 -400 268 -373C269 -363 266 -267 262 -192C261 -168 272 -168 282 -188C297 -221 305 -270 307 -320C308 -343 310 -367 315 -386C319 -406 318 -415 304 -428C322 -430 335 -432 342 -433C368 -437 379 -430 381 -401C384 -309 381 -276 368 -227C361 -198 356 -192 321 -202C297 -209 291 -199 309 -184C333 -166 348 -147 356 -124C360 -111 375 -110 388 -125C417 -159 424 -183 426 -263C428 -351 432 -396 446 -418C458 -437 456 -450 417 -471C383 -488 371 -490 353 -482C323 -469 264 -453 209 -443C262 -518 270 -528 281 -538C297 -550 292 -569 259 -589C342 -604 425 -620 433 -623C455 -630 457 -644 437 -655C411 -671 385 -669 315 -651C197 -622 130 -611 92 -610C64 -609 61 -602 83 -591C116 -576 143 -574 218 -583C224 -556 216 -517 178 -437C141 -432 121 -430 101 -429C62 -445 51 -440 59 -417C78 -366 81 -329 81 -238C81 -181 84 -165 100 -146C109 -137 120 -139 123 -154C127 -172 127 -199 123 -262C122 -276 120 -322 116 -402C133 -404 151 -407 167 -409C170 -386 173 -355 175 -338C177 -273 178 -228 179 -213C181 -192 191 -190 200 -209C210 -228 215 -258 215 -294C215 -371 211 -398 201 -413C224 -416 245 -419 263 -421Z"/>
</svg>