<svg xmlns="http://www.w3.org/2000/svg" viewBox="0 -1000 1000 1000">
	<path fill="#000000" d="M546 -191C548 -221 534 -224 528 -203C524 -190 516 -174 507 -163C486 -136 480 -101 486 -86C493 -68 501 -68 511 -77C531 -96 542 -127 546 -191ZM639 -138C645 -157 639 -174 604 -196C585 -207 578 -203 583 -186C590 -165 597 -143 604 -127C611 -109 630 -110 639 -138ZM716 -158C721 -184 712 -197 664 -213C646 -219 642 -217 650 -203C660 -186 670 -166 683 -145C693 -130 713 -139 716 -158ZM809 -145C817 -174 806 -209 754 -229C731 -237 728 -232 736 -213C749 -186 763 -160 780 -139C790 -127 805 -129 809 -145ZM721 -471C703 -476 669 -473 632 -462C622 -458 610 -456 598 -455C598 -475 598 -489 597 -516C631 -517 681 -526 706 -537C728 -545 732 -558 716 -566C703 -572 686 -572 672 -564C653 -553 629 -547 597 -543C598 -567 599 -590 598 -608C629 -609 675 -615 733 -625C755 -629 761 -626 759 -604C754 -566 746 -525 736 -496C732 -483 727 -475 721 -471ZM597 -369C597 -386 597 -398 598 -425C618 -432 634 -435 692 -446C700 -448 710 -450 719 -452C743 -425 751 -427 800 -541C820 -589 830 -602 845 -612C868 -627 870 -640 825 -664C791 -684 774 -683 754 -672C740 -663 672 -643 615 -633C676 -697 706 -721 718 -726C743 -736 742 -757 703 -780C661 -805 645 -789 654 -775C664 -757 633 -703 577 -630C530 -647 516 -640 530 -615C541 -593 554 -537 554 -473C554 -358 551 -317 547 -298C544 -284 548 -263 554 -250C565 -226 584 -227 588 -246C590 -260 592 -263 612 -266C691 -278 734 -283 800 -289C836 -292 852 -281 852 -240C851 -174 842 -112 828 -79C814 -47 799 -39 732 -63C712 -70 707 -63 716 -52C756 -3 764 14 769 36C773 56 779 61 796 51C860 14 888 -35 899 -118C907 -186 918 -233 933 -247C953 -269 950 -289 902 -314C858 -338 847 -337 825 -327C811 -319 756 -310 594 -294C595 -307 596 -326 596 -346C641 -344 714 -351 754 -362C762 -364 773 -365 788 -366C802 -367 803 -384 788 -392C773 -400 713 -397 651 -380C633 -375 612 -371 597 -369ZM338 -592C374 -571 402 -551 420 -537C450 -512 463 -532 448 -570C442 -586 433 -601 371 -629C383 -642 390 -651 400 -668C412 -687 421 -699 431 -710C447 -727 443 -742 403 -760C359 -781 351 -773 364 -743C369 -731 355 -694 325 -649C293 -661 258 -671 214 -679C185 -684 184 -675 201 -667C237 -649 253 -641 300 -615C267 -572 222 -525 169 -488C153 -477 154 -469 180 -476C199 -482 226 -498 257 -520C257 -517 259 -511 262 -507C268 -498 266 -486 255 -458C221 -452 183 -447 142 -441C113 -437 91 -434 74 -434C50 -434 48 -422 65 -411C95 -390 110 -388 124 -393C169 -406 206 -415 238 -421C197 -340 117 -241 55 -192C29 -171 35 -162 61 -173C111 -195 164 -242 207 -296C215 -248 213 -206 195 -162C191 -153 194 -135 205 -114C218 -94 233 -96 239 -123C250 -167 253 -230 249 -279C267 -281 282 -284 291 -287C296 -290 304 -292 314 -294C316 -145 308 -78 295 -30C291 -15 296 15 310 42C319 58 333 59 341 35C352 8 355 -12 354 -66C353 -116 353 -193 353 -301C365 -303 378 -305 393 -307C421 -310 425 -305 428 -274C431 -248 430 -230 425 -203C422 -188 418 -178 383 -188C360 -194 354 -178 368 -170C398 -154 413 -137 420 -124C427 -107 435 -108 452 -127C469 -146 473 -160 474 -212C475 -260 478 -284 487 -298C495 -313 494 -322 462 -338C426 -355 418 -353 399 -345C388 -340 371 -335 353 -330C354 -344 356 -358 363 -374C370 -388 359 -398 330 -409C296 -422 289 -412 301 -389C310 -374 313 -353 314 -318C288 -312 261 -307 237 -303C230 -306 224 -307 217 -307C246 -345 271 -386 294 -432C377 -446 432 -454 473 -456C533 -459 537 -475 503 -490C477 -503 452 -503 418 -492C395 -485 358 -477 312 -469C316 -475 319 -480 324 -484C334 -491 331 -508 299 -521C287 -526 276 -530 269 -531C288 -545 308 -564 338 -592Z"/>
</svg>