<svg xmlns="http://www.w3.org/2000/svg" viewBox="0 -1000 1000 1000">
	<path fill="#000000" d="M547 -192C545 -219 536 -222 529 -203C524 -193 508 -163 495 -139C481 -115 480 -101 487 -86C493 -68 501 -68 510 -76C536 -99 551 -137 547 -192ZM626 -136C630 -161 628 -174 595 -197C578 -208 571 -205 576 -188C581 -170 591 -141 595 -132C603 -114 621 -118 626 -136ZM699 -155C707 -179 693 -203 659 -212C638 -217 635 -213 642 -202C653 -184 663 -169 675 -149C684 -135 696 -136 699 -155ZM786 -149C795 -175 778 -209 731 -228C709 -236 707 -230 714 -212C728 -188 744 -163 759 -143C769 -132 779 -134 786 -149ZM710 -473C686 -477 651 -472 618 -463C609 -459 598 -457 587 -456C587 -474 587 -486 585 -510C617 -510 665 -518 691 -528C710 -538 713 -549 700 -556C693 -560 675 -561 657 -554C645 -549 611 -541 585 -537C587 -557 587 -581 587 -596C610 -599 649 -603 714 -613C739 -617 746 -615 742 -592C722 -495 719 -485 710 -473ZM585 -373C585 -388 587 -409 587 -430C670 -445 691 -447 705 -447C731 -420 743 -423 779 -534C788 -561 802 -584 819 -598C838 -612 839 -623 803 -649C772 -672 756 -671 731 -656C711 -645 654 -628 605 -619C698 -706 714 -719 726 -724C745 -732 745 -747 701 -774C661 -797 644 -783 651 -764C657 -750 628 -684 574 -614C525 -635 516 -624 526 -605C539 -577 548 -512 548 -469C548 -347 546 -311 541 -294C538 -281 540 -272 548 -249C556 -229 576 -225 579 -245C581 -259 583 -261 602 -264C671 -274 716 -279 790 -284C825 -286 843 -279 843 -240C842 -175 828 -105 816 -77C800 -38 793 -35 725 -62C698 -72 691 -63 706 -46C742 -8 753 10 761 39C765 57 771 60 784 52C848 17 873 -34 885 -135C896 -217 904 -250 915 -262C934 -280 933 -292 888 -317C850 -340 840 -339 814 -332C756 -316 677 -303 581 -293C583 -306 584 -329 584 -350C632 -349 725 -360 764 -369C773 -371 785 -372 797 -373C813 -375 815 -388 799 -399C783 -408 744 -407 695 -394C662 -385 612 -376 585 -373ZM204 -140C218 -125 230 -108 242 -91C258 -69 278 -74 276 -104C275 -125 267 -139 227 -176C238 -198 251 -228 254 -238C264 -270 279 -302 286 -310C294 -319 292 -328 269 -342C246 -356 236 -355 216 -340C193 -324 149 -310 125 -309C112 -308 108 -296 126 -289C150 -281 167 -283 210 -304C220 -309 225 -301 220 -276C214 -248 206 -228 195 -203C179 -216 157 -230 129 -244C110 -255 103 -247 120 -230C141 -211 160 -192 179 -171C151 -124 112 -79 64 -47C45 -34 52 -24 70 -33C130 -64 175 -100 204 -140ZM405 -468C421 -452 437 -436 454 -419C472 -400 489 -405 487 -430C484 -463 470 -483 429 -510C446 -547 454 -564 461 -584C471 -613 484 -634 495 -643C508 -653 508 -665 474 -686C445 -703 432 -699 421 -686C408 -674 375 -655 331 -644C318 -640 315 -635 330 -625C351 -617 366 -618 415 -642C427 -647 429 -644 427 -628C423 -599 413 -570 396 -528C377 -539 356 -550 328 -562C308 -572 299 -565 318 -548C340 -527 361 -509 378 -492C361 -462 335 -434 305 -409C287 -394 291 -384 309 -393C349 -410 382 -436 405 -468ZM390 -131C399 -121 408 -109 419 -97C434 -78 458 -78 457 -110C456 -128 442 -149 413 -175C424 -200 434 -230 442 -263C445 -274 458 -299 473 -319C484 -334 485 -342 448 -365C422 -381 415 -380 399 -368C373 -347 337 -334 307 -330C295 -328 291 -316 307 -308C322 -303 351 -304 389 -325C400 -331 407 -329 403 -295C399 -261 391 -230 379 -201C364 -210 343 -222 321 -232C301 -241 294 -235 312 -217C331 -198 347 -181 363 -162C341 -125 295 -75 239 -43C221 -33 225 -23 246 -29C306 -47 360 -86 390 -131ZM218 -436C230 -421 242 -407 255 -392C275 -371 291 -374 289 -407C288 -424 275 -447 241 -477C249 -490 262 -521 278 -562C284 -578 295 -598 303 -606C313 -615 315 -626 286 -646C261 -662 250 -663 231 -649C222 -642 160 -616 134 -612C115 -609 115 -600 135 -591C147 -587 159 -585 168 -588C187 -595 204 -604 224 -612C238 -618 245 -610 242 -595C237 -564 229 -536 213 -501C198 -512 172 -527 137 -544C120 -552 116 -545 130 -531C151 -510 172 -487 194 -463C171 -424 135 -378 106 -355C82 -338 87 -325 112 -338C152 -360 191 -397 218 -436Z"/>
</svg>