<svg xmlns="http://www.w3.org/2000/svg" viewBox="0 -1000 1000 1000">
	<path fill="#000000" d="M234 -105C228 -123 218 -124 216 -112C213 -93 201 -57 186 -25C181 -15 181 -1 188 17C193 31 202 31 213 20C242 -8 249 -67 234 -105ZM377 -30C383 -52 371 -73 335 -89C321 -94 320 -91 323 -81C329 -64 342 -35 348 -28C362 -7 373 -11 377 -30ZM492 -40C496 -69 487 -85 436 -99C426 -102 422 -100 427 -90C435 -74 455 -49 466 -38C478 -26 490 -28 492 -40ZM632 -47C638 -78 616 -100 562 -111C542 -115 541 -111 550 -100C567 -79 581 -64 600 -46C615 -31 629 -35 632 -47ZM575 -265C543 -262 501 -257 485 -253C456 -248 407 -244 376 -243C376 -256 376 -267 376 -279C420 -281 495 -287 530 -293C555 -296 559 -310 546 -313C534 -316 518 -315 491 -309C476 -306 428 -300 375 -296C375 -306 375 -316 374 -327C389 -326 409 -328 436 -333C468 -339 518 -345 564 -349C598 -352 604 -343 600 -325C596 -303 584 -277 575 -265ZM430 -350C409 -347 390 -345 372 -343C325 -363 309 -353 325 -329C332 -315 336 -286 337 -223C337 -191 336 -166 334 -147C332 -134 333 -122 338 -109C347 -89 359 -87 371 -115C373 -121 376 -124 399 -126C506 -137 673 -148 705 -149C752 -150 760 -144 757 -118C754 -84 740 -39 726 -17C717 -5 710 -3 663 -19C647 -24 641 -18 651 -7C676 18 693 42 701 65C705 75 715 77 731 66C775 34 798 -9 810 -67C814 -86 825 -114 838 -124C856 -138 854 -147 815 -172C785 -192 775 -193 751 -184C733 -177 503 -155 372 -146C373 -156 374 -171 374 -175C422 -177 527 -186 571 -193C596 -197 596 -206 584 -211C573 -216 553 -216 512 -209C478 -203 442 -199 375 -193C375 -203 375 -209 376 -223C424 -231 495 -241 570 -248C575 -229 582 -226 595 -234C604 -240 612 -249 619 -262C636 -292 648 -310 673 -329C688 -340 687 -353 653 -375C629 -390 616 -392 588 -382C567 -375 516 -365 463 -355C479 -371 494 -379 503 -383C513 -387 515 -397 497 -411C469 -435 455 -429 458 -410C460 -399 451 -375 430 -350ZM434 -681C443 -712 424 -739 361 -748C339 -751 334 -742 342 -730C369 -694 381 -684 393 -675C412 -660 430 -667 434 -681ZM558 -665C411 -650 200 -634 163 -634C131 -634 128 -623 154 -608C178 -594 191 -593 217 -600C234 -604 266 -609 309 -615C308 -600 300 -583 283 -558C260 -526 238 -512 217 -507C201 -503 197 -493 203 -479C214 -455 223 -452 240 -459C272 -473 303 -481 335 -486C264 -417 246 -404 224 -397C202 -388 199 -379 212 -364C227 -341 236 -341 253 -352C272 -366 330 -388 388 -408C393 -399 398 -390 402 -384C412 -367 430 -371 434 -387C441 -417 430 -436 389 -457C371 -467 363 -462 368 -450C372 -441 376 -432 381 -422C348 -417 312 -409 275 -399C409 -517 431 -534 452 -543C467 -550 467 -559 443 -581C426 -598 412 -594 411 -581C410 -569 396 -547 356 -507C328 -508 288 -506 269 -503C315 -552 338 -573 351 -580C362 -587 364 -594 340 -619C442 -631 554 -643 604 -645C603 -625 599 -611 577 -582C560 -559 540 -545 528 -543C509 -540 503 -532 513 -514C525 -495 533 -493 547 -501C568 -510 606 -521 642 -528C582 -470 549 -448 530 -442C511 -436 510 -429 521 -411C532 -392 538 -390 562 -401C594 -414 660 -434 725 -446C737 -423 745 -414 752 -407C769 -390 779 -395 781 -411C785 -446 771 -479 715 -506C699 -513 693 -509 701 -491C707 -479 712 -470 716 -461C677 -457 614 -449 580 -442C682 -527 731 -566 754 -574C769 -579 770 -590 746 -602C717 -617 709 -615 706 -603C704 -593 697 -582 662 -548C640 -547 602 -543 573 -539C609 -578 627 -593 645 -607C660 -617 660 -625 631 -647C700 -650 755 -650 793 -647C859 -642 864 -667 821 -684C790 -696 759 -696 688 -682C679 -680 649 -676 585 -669C646 -718 674 -737 695 -743C709 -747 709 -761 653 -780C623 -790 610 -783 613 -771C617 -753 601 -717 558 -665Z"/>
</svg>