<svg xmlns="http://www.w3.org/2000/svg" viewBox="0 -1000 1000 1000">
	<path fill="#000000" d="M534 -183C523 -203 516 -200 514 -181C512 -168 510 -161 505 -149C498 -132 496 -104 499 -91C503 -68 519 -67 526 -80C546 -119 548 -159 534 -183ZM615 -127C626 -143 625 -152 593 -190C579 -205 575 -203 574 -184C573 -161 577 -143 584 -125C590 -111 604 -110 615 -127ZM690 -144C702 -166 693 -189 659 -214C641 -227 635 -226 639 -204C642 -188 648 -168 661 -146C670 -130 681 -130 690 -144ZM789 -148C799 -189 795 -205 736 -240C717 -251 710 -248 717 -229C731 -192 744 -163 759 -143C772 -125 784 -127 789 -148ZM254 -259C258 -277 245 -298 217 -305C198 -310 189 -304 197 -283C201 -273 210 -258 219 -248C234 -233 249 -237 254 -259ZM273 -223C245 -214 220 -210 191 -207C161 -204 156 -191 191 -184C207 -181 224 -181 259 -186C258 -167 256 -145 254 -132C249 -105 249 -93 256 -77C268 -52 280 -55 288 -75C296 -95 297 -126 294 -192C342 -199 365 -203 373 -206C396 -214 397 -236 366 -241C349 -244 335 -242 301 -232C340 -281 350 -293 360 -302C374 -314 372 -329 321 -354C396 -367 418 -355 420 -318C424 -252 423 -188 415 -118C409 -77 400 -73 351 -90C336 -95 329 -88 340 -75C374 -39 386 -21 393 1C398 17 416 17 433 -3C463 -38 471 -68 471 -168C471 -291 477 -324 487 -338C504 -365 502 -375 467 -393C420 -416 410 -415 376 -402C354 -393 300 -379 252 -371C224 -366 176 -359 131 -352C86 -378 73 -361 88 -335C107 -304 104 -175 89 -130C79 -100 81 -71 95 -43C110 -17 122 -19 132 -52C138 -69 141 -79 143 -157C144 -183 143 -301 142 -326C176 -329 189 -331 306 -352C312 -322 300 -266 273 -223ZM236 -462C233 -488 227 -526 224 -543C259 -548 291 -554 322 -561C345 -567 359 -559 357 -536C352 -482 349 -480 326 -476C313 -473 272 -467 236 -462ZM204 -566C158 -591 147 -571 168 -546C179 -535 192 -487 200 -428C203 -400 232 -403 238 -429C265 -435 298 -441 318 -444C338 -447 370 -451 383 -453C410 -457 410 -477 394 -493C412 -532 420 -541 433 -551C451 -566 452 -576 406 -598C372 -613 361 -612 340 -603C299 -583 254 -572 204 -566ZM583 -463C583 -497 583 -509 582 -522C619 -524 667 -530 693 -540C711 -547 711 -565 698 -570C684 -575 663 -573 642 -565C622 -556 605 -552 582 -548C582 -580 582 -596 584 -616C634 -623 665 -627 725 -635C745 -637 750 -630 747 -604C743 -570 737 -532 731 -511C727 -496 722 -492 705 -488C653 -476 635 -472 583 -463ZM436 -728C416 -733 385 -728 356 -718C294 -696 223 -681 159 -673C134 -670 136 -657 162 -649C186 -642 219 -640 269 -648C333 -657 408 -674 428 -683C478 -707 474 -719 436 -728ZM596 -645C584 -644 572 -642 561 -641C514 -659 508 -644 525 -620C535 -606 541 -531 542 -430C543 -321 543 -314 540 -302C535 -283 536 -250 549 -227C555 -217 567 -218 572 -238C576 -253 580 -260 592 -261C618 -263 760 -279 782 -283C822 -291 832 -278 832 -231C831 -145 825 -102 809 -61C797 -31 790 -28 711 -53C690 -60 683 -50 698 -36C726 -9 744 19 760 51C768 69 776 71 796 59C859 18 880 -28 892 -214C894 -240 899 -251 913 -265C927 -278 922 -298 870 -322C844 -335 830 -334 803 -324C778 -313 713 -301 581 -287C582 -304 582 -314 583 -343C635 -344 701 -355 755 -373C777 -382 776 -393 757 -401C740 -408 729 -408 668 -389C627 -377 603 -371 583 -368C583 -375 584 -393 584 -439C630 -444 682 -452 708 -457C713 -458 719 -454 722 -447C727 -439 737 -438 752 -453C767 -470 775 -489 784 -517C806 -583 815 -602 831 -613C853 -630 850 -643 809 -669C777 -688 760 -690 737 -677C726 -671 681 -659 631 -650C670 -694 704 -726 720 -736C748 -751 749 -766 701 -785C654 -804 646 -795 652 -770C658 -749 646 -720 596 -645Z"/>
</svg>