<svg xmlns="http://www.w3.org/2000/svg" viewBox="0 -1000 1000 1000">
	<path fill="#000000" d="M229 -132C222 -147 214 -145 210 -128C203 -101 193 -81 179 -64C163 -45 158 -28 163 6C166 24 182 26 194 14C230 -21 250 -88 229 -132ZM359 -35C369 -56 352 -93 306 -108C299 -110 294 -107 296 -97C300 -77 307 -60 328 -26C334 -16 350 -20 359 -35ZM461 -47C471 -68 451 -97 417 -112C406 -118 403 -113 406 -102C416 -72 423 -56 431 -40C437 -29 452 -32 461 -47ZM588 -56C601 -88 573 -121 516 -134C503 -137 498 -134 506 -120C521 -95 534 -75 553 -52C567 -35 580 -39 588 -56ZM537 -276C504 -277 439 -273 403 -265C388 -262 373 -260 362 -259C363 -271 363 -282 363 -294C472 -300 520 -305 532 -308C549 -312 550 -322 534 -328C524 -332 511 -333 493 -330C472 -326 431 -319 363 -310C363 -319 362 -329 362 -338C423 -347 491 -358 544 -365C562 -367 566 -365 564 -347C561 -320 549 -291 537 -276ZM650 -466C675 -450 703 -431 731 -410C769 -381 788 -381 890 -404C916 -409 918 -427 888 -430C799 -439 757 -448 676 -489C694 -508 704 -522 710 -533C720 -549 731 -562 739 -569C761 -583 757 -595 719 -609C690 -621 683 -621 665 -609C653 -602 638 -598 584 -589C546 -583 545 -574 561 -567C575 -558 583 -558 604 -564C617 -568 646 -572 656 -574C673 -577 678 -574 673 -559C666 -541 652 -519 642 -508C596 -536 578 -543 554 -544C531 -545 527 -532 547 -523C570 -513 596 -500 618 -486C582 -454 553 -435 523 -424C502 -416 501 -406 525 -408C562 -411 612 -437 650 -466ZM484 -508C482 -527 471 -537 417 -545C397 -548 394 -536 401 -530C416 -516 435 -501 456 -488C471 -479 485 -483 484 -508ZM353 -651C362 -662 369 -671 374 -674C385 -685 379 -693 360 -698C328 -706 322 -704 324 -685C325 -677 307 -629 275 -595C263 -581 272 -573 289 -584C307 -599 323 -612 340 -634C350 -629 360 -626 368 -625C373 -613 371 -591 365 -571C326 -561 287 -555 272 -555C248 -555 244 -545 261 -534C283 -519 289 -520 314 -530C323 -533 337 -537 355 -542C338 -507 313 -482 279 -459C261 -448 264 -439 288 -447C336 -465 377 -506 396 -552C429 -560 462 -569 481 -571C512 -576 516 -592 499 -596C477 -602 468 -602 446 -593C436 -589 422 -585 404 -580C406 -587 408 -593 410 -596C417 -610 416 -617 393 -628C424 -636 455 -643 463 -645C493 -650 491 -667 462 -672C442 -674 417 -670 392 -659C379 -654 365 -652 353 -651ZM582 -746C536 -763 528 -749 545 -726C554 -715 556 -697 553 -669C549 -642 542 -618 525 -602C506 -584 519 -572 553 -602C585 -629 603 -673 596 -726C614 -728 636 -732 649 -736C663 -739 670 -736 668 -717C667 -707 665 -681 666 -671C667 -649 681 -631 716 -624C757 -617 796 -622 818 -630C836 -637 839 -648 817 -660C799 -671 788 -671 749 -662C722 -656 705 -657 706 -684C707 -705 712 -726 725 -736C743 -750 741 -760 712 -772C678 -785 671 -784 650 -767C640 -759 615 -751 582 -746ZM231 -731C178 -752 169 -739 185 -713C195 -696 202 -635 196 -543C192 -480 182 -444 170 -433C157 -415 155 -409 164 -393C176 -372 183 -372 199 -379C228 -393 272 -407 302 -412C331 -417 354 -420 410 -428C415 -407 409 -394 375 -360C366 -359 356 -356 344 -355C308 -366 294 -354 303 -345C321 -327 333 -228 317 -167C315 -156 318 -130 326 -115C333 -103 339 -104 349 -125C353 -134 357 -137 447 -147C606 -168 633 -170 682 -166C710 -164 719 -145 717 -127C712 -74 707 -53 693 -32C679 -12 667 -11 612 -32C591 -40 587 -30 598 -20C627 7 643 28 656 53C664 71 671 75 690 62C732 32 750 2 766 -57C777 -98 785 -122 796 -130C814 -145 813 -165 764 -192C737 -206 729 -206 706 -203C636 -193 502 -177 357 -162C358 -172 359 -181 359 -192C440 -192 505 -197 591 -214C611 -218 612 -234 597 -236C569 -239 545 -236 474 -223C446 -216 396 -212 360 -211C361 -219 361 -228 361 -236C385 -237 404 -239 435 -245C459 -249 507 -257 525 -259C529 -240 565 -239 583 -273C613 -327 623 -341 636 -346C651 -352 648 -370 608 -390C588 -400 571 -400 555 -394C538 -387 486 -376 416 -366C430 -378 441 -384 455 -390C478 -402 479 -415 443 -432C487 -433 491 -461 466 -468C443 -473 431 -473 390 -461C366 -453 292 -441 225 -433C230 -510 237 -625 242 -706C261 -703 280 -703 312 -707C373 -717 418 -722 444 -725C493 -731 495 -749 463 -761C451 -766 405 -759 389 -754C348 -741 289 -733 231 -731Z"/>
</svg>