<svg xmlns="http://www.w3.org/2000/svg" viewBox="0 -1000 1000 1000">
	<path fill="#000000" d="M558 -195C560 -223 547 -225 540 -206C536 -196 522 -170 507 -150C491 -128 492 -112 498 -97C505 -79 512 -79 522 -88C541 -105 554 -134 558 -195ZM636 -139C642 -166 636 -187 603 -204C587 -213 579 -206 584 -189C590 -171 599 -144 603 -133C609 -116 632 -121 636 -139ZM720 -160C724 -191 706 -206 670 -215C650 -221 647 -215 654 -203C666 -186 675 -170 687 -150C697 -136 718 -141 720 -160ZM809 -163C813 -196 803 -210 754 -229C733 -237 728 -230 736 -213C752 -180 765 -162 780 -144C790 -133 806 -139 809 -163ZM714 -479C698 -485 663 -483 624 -472C613 -469 598 -467 582 -466C582 -483 582 -499 581 -519C615 -519 671 -527 697 -538C717 -547 720 -558 706 -566C699 -570 682 -571 663 -564C650 -558 616 -551 581 -546C582 -566 582 -587 582 -603C610 -605 657 -611 721 -622C746 -626 752 -624 749 -602C744 -573 732 -521 726 -500C722 -490 718 -483 714 -479ZM581 -382C581 -397 581 -414 582 -433C649 -446 696 -455 709 -456C730 -434 737 -435 787 -543C802 -574 814 -592 830 -603C853 -619 850 -633 811 -656C778 -676 764 -675 744 -665C722 -655 661 -641 606 -630C682 -699 704 -717 718 -723C742 -733 740 -747 696 -771C658 -794 636 -781 641 -763C646 -744 627 -693 572 -624H569C514 -645 507 -634 519 -612C533 -584 542 -524 542 -478C542 -338 540 -312 535 -295C532 -284 534 -273 542 -250C551 -226 570 -229 573 -246C575 -258 579 -262 598 -265C650 -273 712 -280 799 -285C833 -287 852 -280 851 -241C850 -168 839 -104 829 -76C813 -34 800 -33 735 -59C718 -66 711 -58 721 -45C742 -22 764 12 770 38C774 56 784 64 800 53C854 17 886 -35 898 -136C905 -199 913 -232 926 -250C943 -274 941 -283 900 -310C862 -335 849 -335 822 -330C752 -315 645 -299 578 -291C579 -304 580 -335 580 -360C638 -355 724 -366 777 -378C788 -381 786 -398 777 -402C751 -414 740 -413 696 -401C674 -396 613 -385 581 -382ZM338 -141C345 -169 327 -192 272 -204C252 -210 245 -200 255 -186C269 -164 294 -136 310 -126C325 -116 333 -120 338 -141ZM475 -71C459 -80 421 -119 389 -158C379 -170 375 -166 379 -153C386 -131 393 -109 399 -92C405 -74 391 -62 355 -59C317 -56 276 -63 262 -71C237 -86 204 -115 195 -154C189 -180 171 -196 165 -194C160 -193 160 -182 166 -155C182 -83 229 -34 280 -18C323 -3 420 -9 471 -31C497 -42 496 -59 475 -71ZM121 -79C134 -112 139 -152 135 -182C132 -206 121 -204 115 -187C97 -133 90 -118 81 -106C65 -89 64 -74 69 -50C74 -30 84 -28 96 -41C104 -51 117 -69 121 -79ZM489 -180C479 -216 470 -222 411 -232C392 -235 388 -227 402 -211C428 -182 440 -170 454 -161C474 -145 493 -163 489 -180ZM254 -519C261 -547 255 -564 222 -575C209 -581 196 -576 203 -553C209 -537 214 -528 228 -514C237 -505 252 -510 254 -519ZM337 -710C335 -729 313 -752 264 -758C242 -760 240 -750 254 -731C279 -697 288 -687 303 -676C323 -661 340 -673 337 -710ZM337 -617C340 -591 333 -562 314 -512C248 -499 167 -487 109 -482C67 -479 66 -471 95 -453C127 -434 136 -436 167 -445C203 -455 264 -473 278 -476C334 -488 384 -497 474 -508C499 -511 501 -528 485 -535C462 -543 441 -542 417 -536C394 -530 369 -524 344 -518C367 -552 377 -565 390 -575C406 -588 408 -602 365 -623C385 -627 401 -630 412 -634C464 -645 467 -663 444 -672C430 -678 415 -679 379 -668C313 -647 220 -625 184 -620C150 -615 151 -608 175 -599C190 -592 211 -591 240 -598C276 -605 309 -611 337 -617ZM232 -236C248 -239 263 -242 282 -246C343 -260 356 -259 365 -244C371 -233 381 -233 390 -247C403 -266 411 -283 421 -312C436 -361 445 -383 453 -392C473 -414 473 -423 428 -446C391 -465 384 -465 361 -451C351 -445 310 -433 266 -421C246 -416 204 -409 171 -406C137 -415 134 -404 151 -378C159 -365 186 -292 190 -271C197 -237 207 -218 221 -221C227 -222 232 -228 232 -236ZM217 -314C254 -315 294 -321 329 -334C363 -345 357 -361 335 -364C322 -365 312 -363 213 -335C210 -353 206 -370 203 -385C217 -387 236 -392 266 -397C318 -407 344 -411 365 -412C381 -413 386 -407 384 -385C382 -367 376 -332 373 -318C365 -287 360 -283 324 -281C315 -280 282 -274 228 -260C224 -279 220 -298 217 -314Z"/>
</svg>