<svg xmlns="http://www.w3.org/2000/svg" viewBox="0 -1000 1000 1000">
	<path fill="#000000" d="M249 -340C261 -371 245 -375 233 -355C131 -172 121 -160 101 -158C74 -155 68 -142 80 -114C117 -19 133 -21 141 -55C149 -92 158 -118 249 -340ZM176 -435C177 -469 145 -499 93 -511C69 -517 65 -511 76 -491C106 -435 119 -416 136 -401C155 -384 175 -392 176 -435ZM257 -621C257 -648 235 -673 167 -689C145 -694 138 -687 150 -669C173 -630 191 -611 220 -586C239 -570 258 -581 257 -621ZM568 -228C561 -237 555 -236 551 -219C548 -201 541 -179 533 -167C523 -152 526 -129 536 -108C546 -90 554 -89 564 -116C580 -161 580 -213 568 -228ZM648 -146C658 -170 644 -198 612 -214C596 -222 593 -222 596 -208C605 -168 610 -160 623 -143C633 -130 642 -130 648 -146ZM725 -163C733 -192 720 -217 681 -227C663 -232 659 -228 665 -215C674 -196 687 -172 697 -162C707 -147 720 -150 725 -163ZM815 -157C832 -184 823 -223 765 -245C751 -249 744 -245 750 -231C760 -213 776 -181 788 -159C797 -143 807 -142 815 -157ZM360 -569C369 -602 356 -625 304 -640C288 -644 286 -638 292 -624C303 -598 321 -573 336 -557C348 -545 355 -548 360 -569ZM454 -619C454 -641 436 -657 401 -664C386 -668 381 -660 386 -650C395 -628 409 -613 434 -596C444 -588 454 -595 454 -619ZM564 -649C582 -660 581 -672 545 -687C515 -701 507 -691 508 -674C509 -661 499 -640 475 -605C465 -589 472 -584 491 -599C530 -629 543 -637 564 -649ZM510 -733C525 -738 529 -755 482 -774C444 -789 438 -786 436 -770C434 -752 412 -730 341 -682C329 -674 336 -667 349 -670C377 -676 401 -685 445 -708C458 -714 498 -729 510 -733ZM391 -319C409 -326 435 -334 469 -344C473 -338 478 -331 480 -328C490 -318 509 -322 511 -346C513 -367 497 -394 460 -405C440 -410 438 -409 444 -392C446 -385 452 -374 458 -363C423 -351 376 -342 353 -339C407 -396 482 -461 511 -478C526 -486 527 -497 492 -515C465 -530 458 -525 458 -513C458 -499 448 -483 428 -458C396 -454 375 -455 355 -455C400 -500 419 -516 438 -526C447 -532 450 -544 427 -566C406 -585 392 -581 393 -569C394 -555 385 -538 369 -513C354 -487 332 -467 314 -458C300 -452 296 -445 303 -425C312 -404 319 -403 335 -412C357 -422 387 -434 411 -439C358 -377 322 -349 298 -338C282 -330 279 -320 286 -307C303 -276 314 -277 324 -285C335 -296 342 -301 371 -311C376 -294 376 -281 373 -247C313 -233 272 -228 245 -228C217 -228 215 -219 242 -200C269 -181 274 -180 295 -189C316 -197 342 -205 368 -212C355 -132 314 -78 236 -14C221 0 226 8 250 -4C326 -43 374 -90 398 -165C417 -143 438 -119 451 -102C477 -66 505 -73 495 -120C489 -146 468 -163 404 -184C407 -197 410 -210 412 -225C432 -229 448 -233 458 -234C536 -245 541 -261 512 -272C495 -279 478 -278 421 -260C422 -265 424 -270 426 -274C434 -293 428 -300 391 -319ZM621 -441C656 -442 685 -447 729 -458C750 -432 757 -433 790 -505C820 -571 833 -595 857 -610C874 -620 873 -634 832 -658C790 -682 771 -682 745 -667C726 -655 681 -640 639 -630C699 -696 731 -727 755 -743C773 -754 774 -763 724 -783C679 -801 671 -792 675 -772C680 -749 663 -706 609 -624L605 -623C564 -639 560 -633 568 -608C579 -574 584 -530 584 -475C584 -398 583 -353 578 -320C572 -283 572 -275 583 -253C593 -235 605 -235 611 -255C614 -265 621 -268 641 -271C755 -286 783 -290 816 -291C848 -292 852 -289 852 -232C851 -157 845 -118 829 -76C808 -22 800 -20 728 -50C715 -55 706 -46 717 -34C753 4 765 24 773 48C778 65 790 69 806 58C864 16 892 -34 905 -193C907 -226 915 -264 924 -275C935 -289 925 -309 883 -328C844 -345 833 -343 810 -333C785 -321 719 -309 618 -295C618 -310 619 -328 619 -348C651 -349 711 -360 736 -368C775 -379 782 -397 775 -403C761 -413 740 -412 682 -392C665 -385 639 -379 621 -376C621 -398 621 -419 621 -441ZM627 -605C652 -608 686 -615 738 -628C761 -635 771 -631 768 -605C765 -578 744 -506 733 -487C717 -492 705 -491 679 -482C659 -476 636 -470 621 -469C621 -492 622 -510 622 -526C647 -528 683 -537 714 -548C730 -554 733 -565 717 -572C699 -578 688 -578 668 -570C650 -562 638 -558 623 -555C624 -579 625 -593 627 -605Z"/>
</svg>