<svg xmlns="http://www.w3.org/2000/svg" viewBox="0 -1000 1000 1000">
	<path fill="#000000" d="M229 -131C224 -143 217 -144 214 -130C210 -106 199 -80 188 -58C178 -36 177 -17 184 -5C195 12 210 12 224 -8C246 -38 249 -85 229 -131ZM364 -32C375 -66 365 -86 325 -107C304 -118 300 -112 303 -98C313 -58 318 -45 326 -37C341 -22 361 -22 364 -32ZM488 -67C491 -87 463 -113 425 -123C407 -126 405 -124 412 -109C423 -87 440 -59 452 -49C473 -29 482 -34 488 -67ZM611 -72C613 -99 593 -124 541 -131C513 -135 510 -129 521 -114C534 -96 548 -81 571 -65C591 -51 610 -57 611 -72ZM535 -282C512 -282 479 -280 440 -274C423 -271 402 -269 336 -264C336 -274 336 -282 335 -291C451 -297 470 -299 501 -305C520 -308 522 -320 504 -329C495 -333 452 -328 434 -322C413 -315 374 -310 335 -308C335 -322 335 -333 335 -341C352 -340 371 -341 391 -344C448 -352 474 -354 537 -356C568 -358 573 -354 569 -337C564 -318 551 -297 535 -282ZM369 -366C351 -364 333 -363 321 -363C274 -377 269 -366 282 -349C298 -327 300 -311 294 -188C292 -158 293 -147 299 -136C310 -113 331 -115 333 -134C334 -141 341 -142 361 -144C584 -166 633 -168 670 -168C720 -168 722 -162 714 -129C687 -15 676 -11 598 -42C576 -50 570 -41 587 -27C624 7 635 22 641 39C651 65 663 70 696 45C732 19 743 -5 756 -53C768 -93 779 -120 797 -139C814 -159 811 -166 773 -190C733 -214 719 -216 691 -208C663 -200 630 -195 337 -166C337 -176 337 -187 336 -196C398 -196 481 -201 559 -212C589 -216 591 -226 577 -234C567 -241 546 -242 478 -229C451 -223 410 -217 336 -211C336 -222 336 -232 336 -241C413 -247 480 -255 527 -262C555 -243 569 -244 597 -281C621 -313 632 -326 645 -334C662 -343 662 -355 647 -365C600 -392 585 -394 550 -384C533 -380 492 -375 403 -368C426 -380 439 -387 460 -395C482 -403 481 -411 457 -427C445 -434 418 -435 417 -425C416 -413 402 -395 369 -366ZM411 -454C410 -465 407 -477 405 -489C434 -493 459 -497 486 -499C493 -499 497 -496 497 -490C496 -481 491 -475 486 -465C481 -461 473 -459 411 -454ZM396 -507C347 -526 338 -518 363 -490C371 -481 378 -461 381 -443C382 -433 385 -425 392 -418C400 -410 409 -412 412 -434C441 -436 478 -438 511 -440C541 -442 540 -455 523 -466C526 -474 535 -481 545 -487C562 -498 560 -510 536 -519C511 -528 502 -528 491 -525C457 -515 424 -509 396 -507ZM538 -575C519 -584 506 -583 478 -576C445 -568 424 -565 384 -561C368 -560 368 -547 394 -544C428 -540 448 -541 522 -553C553 -558 560 -565 538 -575ZM629 -577C618 -513 588 -467 519 -427C498 -414 498 -399 527 -410C612 -444 649 -479 667 -553C681 -532 699 -505 738 -443C764 -402 779 -396 892 -406C923 -409 923 -420 894 -432C794 -470 755 -492 675 -581C718 -585 752 -591 801 -603C842 -612 839 -628 825 -634C796 -646 779 -644 675 -616C683 -689 688 -716 696 -738C705 -763 699 -773 649 -792C626 -801 611 -789 626 -767C639 -748 643 -703 633 -609C599 -603 578 -601 561 -601C539 -601 538 -575 581 -576C599 -576 614 -577 629 -577ZM535 -629C516 -636 505 -637 477 -629C453 -623 423 -618 383 -615C374 -614 371 -605 398 -601C433 -596 455 -596 523 -607C550 -612 553 -625 535 -629ZM599 -693C578 -701 557 -704 503 -691C472 -684 403 -675 341 -669C323 -667 322 -656 360 -650C397 -644 455 -649 577 -673C608 -679 611 -688 599 -693ZM254 -638C257 -628 260 -618 262 -608C218 -560 165 -517 89 -470C56 -449 60 -441 85 -449C158 -474 216 -511 268 -559C271 -530 270 -507 263 -462C259 -439 238 -434 191 -446C175 -450 167 -437 184 -425C211 -408 228 -393 234 -380C244 -363 255 -362 270 -378C288 -398 302 -417 308 -463C318 -531 314 -602 288 -663C300 -673 313 -683 327 -695C337 -705 343 -710 353 -716C366 -725 369 -736 347 -756C307 -789 298 -780 300 -757C302 -749 293 -728 265 -699C249 -717 223 -739 187 -756C180 -759 167 -761 163 -758C158 -754 163 -747 167 -743C200 -717 223 -696 237 -673C209 -647 187 -635 122 -603C99 -590 107 -580 129 -585C187 -599 219 -612 254 -638ZM836 -695C827 -724 807 -739 759 -744C736 -745 730 -736 742 -722C766 -697 783 -682 803 -669C822 -655 843 -674 836 -695ZM514 -748C511 -767 502 -779 445 -784C423 -785 420 -776 431 -763C448 -744 467 -729 480 -723C509 -710 518 -718 514 -748Z"/>
</svg>