<svg xmlns="http://www.w3.org/2000/svg" viewBox="0 -1000 1000 1000">
	<path fill="#000000" d="M476 -189C480 -173 482 -158 478 -140C377 -129 276 -121 255 -121C220 -121 215 -107 241 -96C275 -81 281 -80 360 -98C377 -102 413 -107 469 -112C444 -50 364 11 247 48C222 56 224 65 250 63C386 49 478 -15 524 -118C594 -52 631 -20 665 6C730 56 739 58 894 40C930 36 926 23 897 16C780 -6 722 -26 642 -71C615 -87 592 -102 566 -119C724 -128 744 -129 773 -127C863 -121 873 -150 820 -171C790 -182 751 -182 687 -169C657 -163 598 -155 532 -147C541 -175 539 -184 518 -194C575 -201 633 -211 646 -216C668 -225 668 -241 647 -247C630 -252 615 -252 561 -237C506 -222 419 -209 399 -210C374 -211 373 -195 395 -190C407 -186 425 -185 476 -189ZM433 -269C431 -291 429 -307 426 -321C456 -321 487 -326 535 -337C554 -341 567 -343 592 -346C607 -347 610 -345 606 -327C601 -302 593 -297 563 -289C539 -282 479 -273 433 -269ZM410 -341C366 -353 357 -340 369 -330C376 -325 388 -302 399 -261C407 -229 428 -227 433 -247C555 -268 604 -275 639 -277C656 -278 661 -284 653 -292C648 -297 648 -305 657 -314C664 -321 677 -329 685 -332C704 -340 701 -352 661 -371C631 -384 623 -384 588 -372C562 -363 465 -344 410 -341ZM384 -462C378 -476 375 -480 358 -489C344 -496 335 -491 341 -472C350 -442 345 -405 336 -397C313 -379 312 -373 319 -363C334 -342 339 -341 350 -349C359 -356 397 -373 461 -399C478 -406 498 -415 518 -423C527 -427 524 -434 512 -432C481 -425 438 -415 390 -402C371 -397 366 -402 374 -417C379 -428 383 -437 384 -445C416 -443 469 -450 504 -461C527 -468 530 -479 519 -482C487 -490 459 -487 384 -462ZM596 -610C628 -615 657 -619 670 -620C700 -622 704 -619 702 -610C699 -599 693 -585 685 -574C676 -562 667 -561 649 -566C639 -569 630 -568 579 -558C585 -581 591 -598 596 -610ZM553 -554C513 -547 481 -542 455 -538C456 -557 457 -573 458 -584C507 -594 541 -601 562 -604C560 -590 557 -575 553 -554ZM554 -677C562 -660 565 -646 564 -625C530 -619 494 -613 461 -608C462 -617 464 -623 467 -628C478 -646 471 -649 431 -660C467 -664 507 -670 554 -677ZM409 -658C407 -655 409 -649 412 -645C420 -636 425 -623 428 -603C393 -598 365 -594 355 -594C330 -594 329 -589 348 -580C376 -567 391 -568 429 -578C430 -566 430 -551 430 -534C378 -525 360 -523 334 -522C313 -521 315 -509 327 -505C350 -497 370 -497 389 -503C409 -508 453 -516 560 -532C565 -514 567 -489 566 -447C565 -409 588 -389 669 -387C739 -385 800 -392 856 -415C873 -422 875 -432 867 -451C860 -468 856 -481 855 -496C853 -517 846 -515 841 -499C821 -437 809 -431 669 -419C615 -415 598 -432 598 -461C685 -481 726 -490 759 -495C784 -499 787 -506 768 -524C747 -544 738 -545 722 -527C708 -512 647 -490 602 -479C604 -488 606 -498 609 -505C614 -518 612 -525 593 -537C608 -539 625 -541 642 -543C656 -545 665 -544 673 -537C685 -525 696 -524 714 -549C728 -566 753 -589 776 -602C797 -614 797 -621 755 -648C732 -664 718 -664 691 -651C684 -648 650 -641 606 -633C621 -653 621 -659 579 -681C633 -689 666 -693 734 -702C780 -708 782 -719 765 -728C737 -742 702 -739 648 -727C501 -697 371 -680 286 -680C230 -709 219 -691 230 -671C244 -647 243 -557 224 -413C204 -265 158 -153 60 -41C43 -21 53 -9 74 -26C222 -147 257 -238 289 -479C295 -521 298 -568 300 -653C335 -652 357 -653 409 -658ZM565 -758C562 -783 540 -794 480 -798C459 -799 455 -791 466 -778C488 -753 507 -738 527 -729C556 -717 568 -732 565 -758Z"/>
</svg>