<svg xmlns="http://www.w3.org/2000/svg" viewBox="0 -1000 1000 1000">
	<path fill="#000000" d="M234 -195C256 -165 273 -142 289 -121C230 -59 158 -15 81 28C54 42 57 54 88 45C171 20 254 -26 318 -85C329 -71 341 -55 357 -35C372 -16 383 -23 381 -56C379 -77 371 -98 353 -120C370 -139 385 -159 397 -179C407 -197 419 -209 435 -221C446 -229 443 -244 415 -267C390 -286 381 -287 363 -278C344 -269 321 -262 297 -259C308 -272 319 -284 328 -296C339 -311 339 -316 316 -330C292 -343 271 -339 273 -324C276 -294 206 -196 124 -141C109 -131 116 -123 133 -129C169 -142 203 -167 234 -195ZM281 -240C301 -225 325 -226 355 -237C364 -241 370 -234 364 -222C351 -197 335 -175 319 -155C300 -170 275 -187 247 -205C258 -216 270 -229 281 -240ZM444 -382C433 -402 410 -412 359 -415C345 -416 342 -405 352 -397C377 -374 399 -361 428 -350C440 -346 458 -360 444 -382ZM182 -468C195 -447 212 -431 236 -417C249 -411 258 -417 257 -432C254 -465 244 -471 194 -483C224 -519 226 -527 203 -540C173 -557 161 -555 163 -541C167 -515 142 -468 79 -399C67 -386 70 -377 92 -386C118 -398 155 -437 182 -468ZM412 -487C428 -469 453 -448 481 -427C492 -418 501 -429 501 -440C501 -478 487 -491 428 -503C439 -513 448 -524 457 -536C469 -552 468 -559 443 -577C421 -593 404 -588 410 -571C415 -558 385 -500 348 -462C336 -449 343 -444 358 -451C376 -461 395 -473 412 -487ZM675 -498C704 -503 738 -510 780 -519C834 -533 839 -550 808 -564C790 -571 769 -573 734 -562C713 -556 695 -551 677 -546C682 -662 686 -694 696 -714C708 -740 702 -759 648 -780C592 -800 576 -786 610 -746C624 -729 629 -651 628 -533C583 -521 554 -515 526 -512C497 -509 496 -499 530 -488C551 -481 574 -480 628 -488L625 -356C556 -345 499 -338 445 -335C423 -334 422 -327 444 -309C467 -292 479 -289 508 -297C535 -305 569 -313 605 -319C604 -282 582 -235 530 -153C510 -121 497 -106 457 -96C444 -92 439 -83 458 -54C475 -24 487 -19 521 -36C562 -58 621 -78 787 -107C800 -89 813 -70 829 -49C855 -11 876 -17 876 -72C876 -131 839 -169 732 -233C717 -242 708 -230 716 -217C737 -184 753 -159 770 -132C738 -126 696 -121 541 -105C635 -235 647 -251 661 -260C683 -274 677 -294 631 -324C706 -336 786 -343 834 -340C939 -333 956 -351 914 -383C889 -403 851 -402 803 -392C753 -380 722 -374 671 -365ZM301 -582C300 -547 298 -498 297 -459C234 -370 159 -299 75 -242C42 -221 48 -207 82 -223C150 -252 248 -331 298 -388C304 -346 320 -351 334 -394C338 -405 345 -532 348 -590C374 -594 405 -601 434 -607C494 -619 492 -636 470 -650C452 -662 411 -655 350 -635C354 -674 358 -694 367 -721C374 -743 366 -756 326 -774C282 -793 270 -784 288 -752C296 -738 303 -690 303 -623C251 -610 215 -605 181 -604C144 -602 146 -588 180 -580C211 -573 251 -574 301 -582Z"/>
</svg>