<svg xmlns="http://www.w3.org/2000/svg" viewBox="0 -1000 1000 1000">
	<path fill="#000000" d="M420 -355C410 -383 394 -393 331 -400C320 -402 316 -398 324 -387C348 -360 379 -342 405 -336C416 -334 424 -341 420 -355ZM274 -245C292 -237 316 -233 339 -238C350 -240 359 -230 355 -221C347 -200 332 -175 313 -150C295 -163 275 -173 256 -180C235 -188 232 -183 242 -169C252 -157 267 -136 283 -115C236 -65 176 -16 123 10C93 25 99 39 130 29C198 5 261 -35 310 -83C319 -72 325 -65 327 -62C349 -41 364 -54 363 -83C362 -96 356 -108 345 -121C362 -141 375 -162 386 -183C394 -201 404 -215 421 -228C440 -242 440 -249 408 -272C385 -289 375 -287 359 -278C343 -269 312 -262 288 -261C298 -272 307 -284 317 -297C326 -310 325 -316 303 -331C279 -347 270 -342 269 -325C268 -305 230 -235 159 -179C145 -168 149 -155 165 -161C196 -174 236 -204 274 -245ZM184 -459C195 -441 210 -428 222 -423C235 -419 241 -423 240 -439C238 -462 231 -470 198 -480C221 -517 220 -528 200 -540C178 -551 168 -549 170 -534C173 -507 160 -472 90 -394C78 -379 84 -371 100 -379C123 -390 160 -428 184 -459ZM279 -579C278 -545 275 -497 274 -458C217 -365 150 -282 74 -225C47 -204 55 -194 83 -208C146 -239 232 -318 274 -382C281 -340 296 -335 306 -376C308 -381 310 -406 313 -443C328 -451 344 -463 366 -483C378 -463 398 -442 409 -436C421 -431 424 -433 424 -444C425 -476 417 -490 378 -497C390 -509 400 -522 408 -533C423 -551 423 -556 397 -576C383 -589 375 -584 375 -567C376 -553 354 -510 314 -454C317 -496 319 -536 320 -587C446 -612 454 -626 431 -640C407 -654 381 -651 321 -627C323 -672 329 -706 334 -717C347 -744 337 -762 300 -776C262 -789 247 -780 266 -754C278 -740 282 -688 281 -617C238 -606 193 -596 170 -593C137 -589 135 -571 169 -570C201 -569 227 -571 279 -579ZM669 -435C647 -431 624 -427 597 -421C600 -441 602 -455 603 -478C615 -482 627 -486 634 -488C657 -495 660 -510 646 -513C633 -517 623 -515 604 -509C604 -519 604 -531 604 -544C611 -547 619 -550 628 -554C642 -561 641 -573 633 -576C623 -580 615 -581 604 -577C604 -588 604 -602 604 -615C614 -619 624 -623 633 -629C644 -637 645 -646 635 -652C630 -655 618 -655 606 -652C606 -677 608 -694 609 -699C612 -723 603 -732 561 -743C541 -748 535 -736 551 -717C562 -705 566 -684 568 -638C550 -631 538 -628 524 -625C506 -621 507 -612 521 -608C534 -604 550 -603 569 -606C570 -590 570 -577 571 -565C563 -562 554 -560 542 -558C516 -554 513 -544 529 -538C539 -534 555 -533 571 -536C570 -521 570 -509 569 -498C548 -493 526 -490 510 -489C494 -487 494 -480 504 -470C522 -451 532 -450 569 -466C570 -454 571 -441 576 -418C551 -414 526 -410 497 -405C497 -476 488 -495 451 -510C429 -519 425 -509 436 -488C462 -446 470 -412 455 -392C441 -374 443 -362 457 -349C471 -333 481 -335 493 -349C505 -366 566 -385 844 -435C843 -427 844 -416 848 -402C853 -384 875 -385 897 -452C920 -526 928 -544 939 -555C950 -569 946 -582 909 -610C882 -630 873 -623 882 -596C890 -577 874 -500 855 -463C839 -462 820 -459 793 -455C794 -470 796 -484 797 -500C814 -503 834 -509 851 -517C864 -523 865 -536 852 -543C844 -548 816 -544 800 -537C801 -551 803 -565 804 -577C813 -580 823 -583 832 -586C853 -594 847 -613 837 -615C828 -616 816 -616 807 -615C808 -631 809 -644 810 -654C822 -658 838 -663 855 -671C866 -676 865 -685 854 -691C846 -696 829 -696 813 -692C815 -701 817 -710 820 -718C827 -737 823 -743 786 -760C768 -767 762 -754 770 -739C778 -727 780 -712 778 -674C767 -669 754 -663 742 -659C729 -655 730 -650 744 -644C750 -642 761 -642 776 -645C775 -633 774 -617 773 -600C765 -596 757 -593 749 -591C734 -587 734 -577 748 -572C751 -571 760 -571 771 -572C770 -556 768 -541 767 -524C754 -521 742 -519 732 -517C721 -516 717 -510 730 -502C736 -499 748 -497 764 -497C763 -481 760 -466 759 -449C741 -447 720 -443 696 -439C700 -469 703 -501 707 -567C714 -694 719 -727 727 -748C733 -766 718 -775 678 -791C657 -799 643 -786 658 -770C675 -754 683 -706 673 -538C671 -513 670 -488 669 -435ZM584 -156C583 -176 581 -198 579 -219C629 -232 701 -246 727 -250C741 -253 745 -250 742 -237C732 -196 730 -193 709 -184C676 -172 640 -164 584 -156ZM565 -330C550 -328 550 -318 562 -312C580 -302 593 -300 617 -304C650 -309 722 -325 763 -337C783 -343 790 -355 778 -365C764 -376 731 -376 699 -364C658 -348 611 -337 565 -330ZM718 -32C729 -46 737 -60 749 -81C755 -92 765 -100 773 -105C785 -112 780 -127 733 -153C743 -155 753 -156 764 -157C780 -159 785 -166 782 -177C780 -182 781 -189 785 -195C794 -213 801 -222 812 -229C828 -240 828 -255 790 -280C763 -299 751 -299 738 -291C718 -275 617 -250 560 -249C519 -264 510 -257 523 -236C528 -226 535 -204 548 -158C556 -134 565 -119 572 -116C575 -79 588 -47 602 -32C614 -19 629 -22 632 -41C637 -72 630 -93 588 -124C635 -136 673 -143 711 -149C719 -125 717 -96 688 -29C594 -17 469 -6 426 -7C405 -8 402 1 420 15C450 39 462 40 485 34C541 19 637 8 687 5C778 0 865 3 892 10C923 18 935 -6 914 -23C877 -53 843 -57 795 -44C779 -41 751 -37 718 -32Z"/>
</svg>