<svg xmlns="http://www.w3.org/2000/svg" viewBox="0 -1000 1000 1000">
	<path fill="#000000" d="M752 -694C749 -733 723 -752 648 -765C619 -770 615 -759 631 -741C648 -722 675 -690 694 -668C720 -638 755 -648 752 -694ZM906 -602C874 -617 850 -617 798 -599C745 -581 577 -546 534 -544C500 -543 498 -534 520 -523C544 -511 583 -510 600 -515C695 -541 793 -556 884 -562C923 -565 937 -588 906 -602ZM520 -636C539 -656 536 -666 486 -700C454 -722 445 -723 410 -705C395 -697 247 -667 156 -655C96 -677 88 -664 108 -640C127 -618 145 -558 161 -481C175 -414 181 -401 190 -401C196 -401 201 -406 203 -414C219 -418 242 -423 284 -431V-360C257 -353 214 -343 198 -340C174 -336 172 -319 206 -318C222 -317 251 -322 284 -329V-266C232 -252 160 -238 139 -241C101 -245 100 -236 124 -214C145 -195 151 -192 182 -204C201 -211 311 -245 402 -269C451 -282 456 -285 451 -293C447 -300 411 -303 319 -276V-337C348 -345 377 -353 402 -362C422 -369 421 -381 402 -386C389 -390 370 -388 319 -371V-438C379 -450 401 -453 407 -450C428 -441 434 -441 442 -456C456 -481 480 -538 491 -572C502 -605 515 -631 520 -636ZM838 -406C853 -417 854 -427 804 -453C772 -470 758 -469 734 -456C714 -445 627 -425 575 -421C528 -439 515 -427 530 -407C545 -387 554 -362 566 -290C573 -250 596 -242 599 -278C611 -279 627 -281 645 -284C653 -267 658 -245 660 -227C663 -188 665 -106 660 -78C655 -50 649 -50 604 -61C584 -66 579 -61 596 -45C612 -30 632 -1 641 22C650 45 662 47 679 27C706 -4 714 -54 707 -113C702 -158 708 -220 711 -230C716 -245 713 -261 675 -288C716 -293 756 -298 761 -299C795 -306 799 -312 790 -327C787 -331 794 -349 808 -368C821 -385 830 -400 838 -406ZM471 -172C472 -196 452 -218 423 -222C403 -225 398 -223 411 -200C420 -185 433 -163 441 -151C452 -135 470 -138 471 -172ZM360 -138C361 -163 348 -178 314 -190C295 -197 291 -195 302 -168C308 -152 320 -130 328 -118C339 -102 359 -106 360 -138ZM258 -107C258 -124 244 -144 212 -159C195 -167 190 -163 200 -137C207 -117 217 -94 224 -84C236 -65 258 -72 258 -107ZM548 -195C539 -223 529 -219 523 -201C516 -181 504 -154 491 -135C472 -106 465 -93 466 -80C469 -46 477 -44 498 -58C509 -65 531 -97 542 -128C554 -161 555 -175 548 -195ZM905 -98C900 -145 873 -174 793 -194C770 -200 763 -196 778 -175C805 -138 834 -99 861 -72C889 -43 910 -51 905 -98ZM124 -147C112 -178 104 -177 93 -143C89 -130 74 -103 66 -91C55 -74 51 -61 55 -45C65 -5 73 0 102 -38C127 -70 133 -124 124 -147ZM450 -659C452 -624 434 -526 418 -487C414 -478 408 -473 398 -472C379 -469 351 -464 319 -458C319 -520 320 -576 322 -598C325 -633 323 -650 311 -662C365 -673 396 -678 410 -679C442 -681 449 -678 450 -659ZM284 -452C258 -447 231 -441 202 -435C182 -545 171 -603 164 -637C190 -638 218 -642 275 -654C284 -624 284 -588 284 -452ZM758 -400C754 -342 753 -336 724 -326C704 -319 679 -314 598 -300C596 -331 591 -373 586 -400C625 -406 672 -415 717 -426C743 -432 759 -421 758 -400ZM403 -578C415 -591 413 -601 397 -610C375 -622 370 -619 368 -601C366 -581 361 -558 352 -538C344 -521 353 -516 362 -528C383 -555 392 -566 403 -578ZM257 -536C257 -553 238 -570 222 -575C212 -578 206 -574 212 -558C217 -546 225 -531 234 -522C244 -512 257 -518 257 -536Z"/>
</svg>