<svg xmlns="http://www.w3.org/2000/svg" viewBox="0 -1000 1000 1000">
	<path fill="#000000" d="M599 -194C582 -198 561 -197 488 -181C461 -176 423 -171 387 -167C370 -165 370 -154 389 -148C405 -144 425 -144 482 -150C537 -157 558 -161 594 -169C618 -174 621 -188 599 -194ZM302 -199C342 -195 390 -198 440 -211C470 -221 469 -230 451 -236C442 -239 435 -240 425 -239C431 -283 434 -301 441 -312C452 -325 452 -336 419 -346C374 -361 368 -347 381 -330C393 -311 396 -287 388 -231C365 -227 333 -222 304 -218C305 -229 307 -238 310 -248C319 -273 316 -279 282 -293C238 -309 228 -295 246 -274C262 -253 262 -190 245 -123C225 -49 196 -19 133 28C115 41 120 50 139 44C201 24 246 -16 272 -72C301 -68 335 -71 375 -79C391 -83 394 -77 391 -67C381 -35 382 3 391 18C400 34 405 37 411 35C424 30 428 23 428 1C428 -43 433 -66 444 -79C454 -91 455 -101 419 -118C404 -124 394 -123 361 -107C342 -99 305 -93 281 -92C293 -124 300 -159 302 -199ZM691 -268C651 -268 633 -266 581 -261C582 -293 587 -312 593 -320C604 -337 602 -345 572 -356C534 -372 523 -363 537 -346C547 -334 551 -280 544 -270C528 -252 528 -245 541 -231C555 -216 563 -214 587 -227C603 -236 644 -241 692 -241C692 -206 693 -163 693 -135C672 -137 648 -136 601 -127C579 -123 564 -123 537 -133C512 -142 507 -127 523 -106C537 -89 538 -46 529 -20C525 -8 527 4 540 22C555 41 566 40 572 4C576 -17 575 -49 572 -84C571 -93 576 -99 599 -100C637 -102 658 -104 693 -110C692 -63 691 -46 687 -29C680 10 683 34 697 54C714 82 722 81 732 58C742 32 744 14 740 -71C735 -183 736 -283 740 -298C750 -332 748 -339 706 -356C677 -369 665 -363 676 -339C684 -318 688 -303 691 -268ZM271 -465C268 -480 265 -492 260 -506C303 -514 369 -526 385 -528C396 -531 403 -525 402 -517C400 -497 397 -491 388 -488C360 -480 305 -470 271 -465ZM248 -526C188 -541 180 -522 205 -504C214 -498 232 -470 244 -445C251 -430 268 -429 272 -441C303 -447 338 -453 374 -458C373 -455 373 -451 375 -446C378 -437 374 -410 365 -382C339 -375 314 -369 289 -364C296 -400 290 -407 270 -416C240 -430 229 -419 241 -399C247 -389 253 -379 265 -359C195 -342 136 -333 123 -334C87 -339 79 -328 116 -304C142 -284 161 -285 180 -297C204 -312 285 -336 447 -379C468 -384 481 -396 479 -401C476 -405 465 -410 428 -400C417 -397 405 -394 393 -389C403 -409 410 -419 420 -424C441 -438 437 -448 393 -461C445 -469 450 -480 442 -486C435 -492 432 -498 435 -502C440 -510 446 -516 457 -523C472 -535 473 -542 433 -559C416 -567 404 -566 384 -556C367 -549 348 -544 248 -526ZM672 -630C726 -640 757 -646 783 -653C836 -667 840 -682 803 -695C790 -701 755 -697 731 -687C717 -682 700 -677 676 -671C680 -708 682 -718 687 -728C699 -753 695 -762 657 -777C607 -795 598 -783 622 -750C631 -737 635 -713 633 -661C603 -656 567 -650 524 -644C492 -640 491 -631 524 -617C536 -612 566 -612 631 -623L628 -565C606 -560 581 -556 557 -553C516 -548 515 -542 540 -531C551 -525 559 -522 579 -528C673 -554 690 -542 681 -523C673 -505 660 -487 642 -470C576 -503 543 -513 522 -515C489 -518 487 -502 514 -493C562 -480 587 -471 619 -449C587 -422 544 -399 505 -384C474 -373 477 -359 528 -373C573 -385 615 -403 651 -428C679 -409 703 -395 719 -383C784 -339 799 -338 915 -372C948 -381 947 -397 903 -399C805 -403 766 -410 680 -452C692 -463 702 -476 711 -489C733 -520 743 -533 749 -536C776 -550 776 -562 746 -579C718 -593 704 -591 690 -582C686 -580 678 -577 667 -574ZM363 -647C415 -655 477 -669 489 -672C524 -679 523 -693 490 -703C470 -708 450 -705 365 -681C366 -698 368 -709 371 -717C379 -738 375 -747 344 -756C291 -774 282 -761 303 -738C317 -722 320 -713 321 -673C275 -663 227 -656 193 -653C158 -650 158 -641 181 -634C204 -626 224 -627 321 -641V-598C305 -594 282 -591 248 -585C212 -579 210 -572 241 -560C250 -557 286 -560 343 -574C375 -582 417 -589 437 -591C481 -595 485 -613 466 -620C452 -627 438 -626 361 -606Z"/>
</svg>