<svg xmlns="http://www.w3.org/2000/svg" viewBox="0 -1000 1000 1000">
	<path fill="#000000" d="M405 -149C405 -118 405 -85 403 -77C390 -16 392 5 400 22C416 53 430 56 441 23C452 -11 453 -38 450 -81C445 -153 450 -201 461 -228C470 -248 468 -253 445 -264C425 -273 410 -273 402 -269C377 -257 339 -247 289 -244C291 -282 292 -294 298 -308C305 -326 298 -337 267 -349C217 -369 209 -353 226 -335C255 -304 256 -253 242 -233C233 -218 233 -211 242 -204C257 -190 261 -190 283 -207C292 -214 321 -223 381 -229C399 -231 403 -228 404 -211C404 -203 404 -190 405 -175C258 -148 191 -141 162 -145C122 -150 118 -138 143 -121C165 -105 181 -102 197 -106C220 -111 244 -118 265 -122C256 -78 228 -38 184 5C151 37 159 44 197 22C234 0 267 -29 286 -55C302 -79 312 -89 322 -97C331 -104 328 -113 301 -130C341 -138 376 -145 405 -149ZM622 -214C679 -219 736 -227 761 -233C780 -238 783 -255 761 -268C767 -298 773 -310 795 -331C809 -344 804 -364 764 -380C730 -395 717 -382 730 -361C740 -342 736 -309 721 -280C710 -258 703 -255 625 -244C626 -251 627 -257 629 -261C634 -273 623 -280 593 -290C556 -301 545 -292 561 -269C572 -252 577 -217 575 -149C572 -60 570 -45 561 -27C553 -10 557 8 572 33C591 63 605 64 613 34C624 -5 627 -53 622 -129C647 -127 680 -131 734 -142C761 -147 773 -141 768 -105C759 -35 760 -15 772 17C780 38 789 38 806 14C816 0 821 -37 818 -88C817 -105 823 -127 836 -143C843 -154 842 -158 809 -178C780 -196 770 -196 754 -186C729 -169 675 -158 621 -157C619 -181 621 -200 622 -214ZM403 -280C454 -282 495 -287 546 -297C583 -304 613 -303 618 -297C643 -268 669 -271 673 -345C678 -431 684 -453 694 -462C709 -476 707 -491 671 -511C641 -527 631 -525 592 -512C616 -543 622 -561 617 -611C615 -627 615 -645 615 -661C686 -668 749 -672 796 -673C843 -674 847 -696 810 -715C786 -727 759 -726 687 -711C669 -707 641 -702 616 -697C617 -725 621 -743 624 -753C630 -776 628 -788 584 -800C527 -817 521 -806 546 -777C560 -762 565 -740 568 -689C459 -674 340 -662 262 -659C230 -658 226 -650 263 -639C306 -626 339 -627 466 -645C411 -587 325 -534 171 -475C148 -466 153 -452 176 -458C337 -502 452 -564 534 -653C546 -654 558 -655 569 -656C570 -638 570 -623 569 -600C568 -568 563 -564 516 -571C487 -576 484 -565 503 -554C527 -542 546 -525 559 -505C509 -495 461 -487 393 -482C341 -503 331 -490 348 -462C358 -444 362 -419 364 -338C365 -307 370 -285 378 -276C387 -265 398 -266 403 -280ZM399 -459C437 -459 494 -466 556 -476C616 -486 625 -483 625 -466C626 -417 624 -379 618 -336C617 -328 614 -326 604 -328C583 -332 549 -328 405 -305C404 -315 404 -327 404 -337C461 -338 520 -344 573 -354C607 -361 600 -375 581 -378C548 -383 509 -377 404 -353C403 -369 403 -384 403 -399C458 -399 521 -406 574 -419C596 -424 600 -437 577 -443C553 -447 522 -440 402 -416C401 -432 400 -446 399 -459Z"/>
</svg>