<svg xmlns="http://www.w3.org/2000/svg" viewBox="0 -1000 1000 1000">
	<path fill="#000000" d="M477 -138C487 -170 473 -178 457 -143C442 -112 436 -108 432 -120C426 -136 420 -168 418 -203C413 -273 413 -338 421 -356C429 -378 427 -385 396 -401C367 -415 356 -409 367 -384C375 -366 378 -342 377 -306C375 -231 377 -193 390 -128C396 -98 407 -71 421 -53C439 -27 453 -29 457 -55C461 -81 468 -106 477 -138ZM294 -249C295 -289 296 -318 297 -332C316 -315 333 -304 340 -300C356 -292 367 -302 360 -320C353 -338 343 -343 297 -343C299 -361 296 -368 276 -384C261 -399 250 -395 258 -364C264 -341 265 -316 263 -196C261 -140 255 -121 240 -103C231 -91 232 -86 236 -62C241 -33 253 -31 264 -45C290 -79 326 -118 332 -123C358 -141 356 -148 330 -139C320 -136 309 -131 289 -122C291 -163 293 -203 294 -237C321 -211 331 -202 338 -198C358 -187 369 -196 362 -215C355 -235 338 -244 294 -249ZM165 -339C168 -372 164 -380 139 -390C109 -404 103 -396 122 -364C128 -352 133 -271 125 -159C122 -120 112 -94 94 -78C81 -66 80 -60 87 -33C96 0 106 2 119 -17C161 -74 179 -93 210 -118C231 -135 227 -142 201 -133C188 -127 176 -122 157 -114C158 -146 160 -192 161 -232C181 -217 190 -211 206 -201C223 -191 231 -205 228 -221C223 -237 216 -243 161 -245C162 -286 164 -321 164 -330C189 -309 201 -302 215 -295C231 -286 239 -297 233 -312C227 -333 218 -337 165 -339ZM180 -540C172 -576 165 -611 160 -629C232 -669 267 -684 312 -698C330 -705 333 -716 296 -743C259 -770 252 -766 248 -742C245 -725 214 -690 150 -645C93 -664 81 -650 98 -628C113 -611 125 -579 164 -432C169 -412 188 -406 194 -418C318 -440 349 -442 355 -436C366 -424 374 -424 382 -439C395 -465 415 -524 419 -549C422 -571 433 -601 446 -616C458 -629 457 -639 427 -659C397 -680 383 -681 371 -675C350 -662 333 -657 304 -651C291 -648 290 -639 301 -635C316 -629 325 -630 355 -637C378 -642 383 -637 381 -614C378 -594 376 -577 373 -561C352 -571 340 -574 330 -572C315 -569 304 -567 291 -562C284 -560 287 -545 295 -543C309 -539 320 -539 344 -543C355 -545 361 -546 370 -546C364 -519 359 -499 351 -474C348 -465 344 -464 333 -470C325 -474 312 -471 196 -444C193 -464 188 -492 183 -522C205 -519 224 -521 247 -531C264 -538 264 -554 246 -555C224 -557 212 -555 180 -540ZM923 -403C914 -441 889 -454 840 -454C810 -454 806 -446 818 -432C831 -417 874 -386 889 -379C914 -368 930 -384 923 -403ZM641 -272C700 -280 762 -286 815 -287C902 -290 908 -312 863 -334C839 -345 780 -340 750 -330C730 -322 693 -313 650 -305C653 -312 658 -320 664 -331C673 -346 661 -360 623 -373C589 -384 582 -378 593 -346C597 -337 597 -318 594 -295C547 -286 500 -280 466 -278C434 -276 436 -266 481 -248C494 -243 505 -244 549 -255C562 -258 575 -261 590 -263C584 -235 575 -204 562 -174C527 -96 464 -23 393 11C360 27 367 42 397 32C518 -10 598 -96 631 -218C670 -150 699 -106 742 -40C779 16 797 26 940 13C971 10 974 -2 939 -14C820 -51 760 -102 638 -251C639 -258 640 -265 641 -272ZM544 -394C617 -403 663 -407 703 -409C722 -410 731 -407 735 -395C739 -382 757 -380 766 -397C776 -424 787 -484 789 -524C795 -614 800 -657 808 -671C825 -697 825 -709 777 -730C738 -749 724 -749 707 -738C695 -729 607 -707 536 -695C529 -704 514 -707 485 -708C470 -708 467 -693 482 -675C497 -654 511 -503 500 -443C494 -411 497 -393 511 -373C524 -355 539 -353 544 -394ZM541 -672C640 -691 676 -695 703 -695C727 -695 734 -690 736 -652C738 -610 736 -519 733 -486C729 -440 727 -437 715 -441C699 -444 692 -445 546 -420C547 -443 548 -468 548 -493C594 -493 641 -500 673 -509C697 -516 696 -534 677 -538C659 -541 641 -539 621 -532C594 -522 570 -516 548 -513C548 -537 547 -559 546 -582C595 -582 653 -591 674 -599C697 -609 693 -622 672 -626C652 -630 639 -627 611 -617C596 -611 570 -603 546 -598C545 -626 543 -651 541 -672Z"/>
</svg>