<svg xmlns="http://www.w3.org/2000/svg" viewBox="0 -1000 1000 1000">
	<path fill="#000000" d="M738 -328C748 -349 746 -354 708 -370C657 -392 646 -372 668 -351C675 -344 682 -317 682 -279C682 -90 681 -68 673 -37C664 -1 667 15 690 48C703 68 716 64 721 42C731 5 735 -34 731 -125C729 -176 728 -210 728 -269C728 -284 731 -313 738 -328ZM293 -269C303 -287 299 -296 257 -313C224 -328 205 -316 221 -297C236 -276 235 -244 224 -183C205 -87 175 -32 113 18C90 38 95 43 129 29C178 7 230 -47 244 -84C261 -129 269 -161 278 -212C283 -246 286 -258 293 -269ZM480 -285C489 -275 491 -260 491 -231C492 -162 491 -133 488 -111C486 -97 488 -79 494 -57C474 -55 452 -53 428 -51C433 -70 434 -84 434 -116C434 -164 435 -212 436 -224C438 -249 436 -262 427 -277C441 -280 461 -283 480 -285ZM389 -272C400 -264 402 -258 404 -237C366 -236 349 -233 338 -227C334 -224 322 -222 313 -222C298 -222 295 -213 310 -205C326 -197 339 -199 354 -203C365 -206 386 -213 404 -214C405 -202 404 -189 404 -175C388 -174 376 -173 356 -167C344 -164 331 -163 314 -163C305 -163 304 -152 316 -146C332 -139 348 -139 359 -142C366 -144 386 -149 404 -153C404 -138 403 -126 403 -118C387 -115 378 -114 371 -111C362 -107 343 -104 331 -104C312 -104 309 -95 320 -88C333 -78 340 -78 359 -84C374 -88 387 -91 401 -92C403 -79 406 -65 411 -49C360 -43 308 -40 290 -40C272 -40 272 -34 289 -24C307 -12 315 -11 351 -17C393 -23 575 -35 602 -33C653 -29 657 -41 640 -56C621 -72 606 -74 561 -66C551 -65 536 -63 516 -60C521 -76 523 -93 524 -108C564 -107 597 -110 613 -115C629 -121 632 -132 623 -139C615 -145 594 -147 573 -140C561 -136 543 -131 524 -129C524 -140 524 -153 524 -165C570 -168 594 -171 606 -173C626 -176 633 -200 609 -204C596 -206 575 -203 567 -199C548 -191 537 -188 525 -186C526 -203 526 -219 527 -232C568 -232 603 -237 622 -244C638 -250 638 -267 622 -269C604 -271 594 -270 579 -266C567 -263 547 -257 528 -253C528 -265 525 -273 511 -291C538 -294 562 -298 572 -299C616 -304 617 -318 597 -327C578 -334 558 -332 527 -324C450 -305 387 -296 345 -292C333 -291 330 -283 347 -276C355 -273 370 -271 389 -272ZM594 -569C561 -584 550 -571 561 -559C570 -549 575 -530 575 -508C575 -473 569 -448 562 -438C555 -429 556 -419 565 -409C584 -383 594 -383 601 -395C612 -412 659 -447 683 -464C698 -474 686 -484 675 -481C660 -476 639 -467 624 -459C610 -452 606 -457 607 -467C609 -480 608 -518 605 -553C621 -557 640 -565 658 -573C698 -517 726 -477 741 -451C765 -410 775 -405 876 -411C908 -413 908 -427 879 -437C805 -464 778 -478 680 -583C691 -587 700 -592 708 -598C718 -604 740 -612 754 -614C774 -616 774 -631 740 -657C717 -674 704 -674 703 -658C702 -635 647 -592 594 -569ZM486 -541C525 -583 553 -608 559 -612C573 -619 572 -630 555 -641C521 -660 505 -649 510 -639C516 -626 504 -596 471 -548C442 -559 438 -553 443 -541C452 -522 457 -500 458 -478C459 -450 458 -437 454 -423C450 -411 451 -393 461 -369C430 -362 401 -356 372 -353C359 -352 357 -345 375 -339C391 -334 431 -334 467 -342C506 -350 531 -354 555 -358C580 -361 587 -375 572 -379C548 -386 529 -386 487 -375C491 -388 493 -403 493 -421C494 -510 492 -534 486 -541ZM203 -513C204 -495 201 -477 193 -462C168 -409 150 -383 89 -338C67 -321 79 -310 97 -319C169 -356 206 -392 234 -449C240 -462 248 -472 257 -481C266 -490 261 -498 232 -516C255 -519 285 -524 326 -534C343 -538 354 -532 352 -513C349 -478 344 -459 333 -431C327 -415 316 -415 289 -429C269 -439 259 -429 276 -412C289 -401 300 -384 303 -365C305 -352 319 -348 338 -364C362 -382 373 -406 384 -457C389 -483 397 -511 408 -521C422 -534 424 -547 373 -574C361 -580 349 -580 323 -571C291 -559 179 -537 155 -537C143 -537 142 -523 155 -518C167 -514 184 -512 203 -513ZM398 -631C384 -636 376 -629 384 -616C392 -602 405 -581 415 -571C428 -557 448 -562 448 -580C448 -610 435 -621 398 -631ZM171 -652C142 -650 138 -640 155 -631C192 -613 218 -612 257 -622C331 -643 657 -681 732 -680C822 -678 819 -697 788 -717C762 -734 733 -738 645 -719C520 -693 327 -665 171 -652ZM444 -802C427 -804 424 -800 431 -786C447 -755 466 -730 482 -715C501 -697 520 -704 525 -728C533 -762 511 -797 444 -802Z"/>
</svg>