<svg xmlns="http://www.w3.org/2000/svg" viewBox="0 -1000 1000 1000">
	<path fill="#000000" d="M530 -492C502 -498 463 -493 382 -476C364 -472 337 -470 316 -473C316 -493 316 -512 316 -527C355 -521 398 -524 478 -542C505 -547 508 -564 490 -569C470 -574 456 -575 424 -566C411 -561 341 -550 316 -548C315 -573 314 -589 312 -602C362 -606 496 -624 540 -631C555 -634 566 -624 562 -601C555 -557 542 -518 530 -492ZM332 -628C322 -627 312 -625 302 -624C297 -629 290 -631 281 -634C245 -643 233 -630 247 -614C265 -590 270 -562 273 -491C276 -410 274 -359 269 -330C263 -298 265 -285 275 -267C288 -245 303 -245 307 -262C312 -277 315 -279 342 -282C529 -303 659 -311 683 -311C734 -311 742 -284 726 -159C708 -28 693 -22 593 -56C573 -62 568 -50 583 -39C613 -20 656 27 666 57C672 74 681 76 700 60C744 23 766 -16 778 -76C783 -101 786 -129 797 -221C799 -238 806 -262 823 -282C840 -301 837 -312 793 -343C751 -371 741 -372 706 -362C657 -347 411 -315 317 -311C317 -330 317 -348 316 -364C359 -360 428 -365 568 -386C588 -389 584 -405 569 -413C549 -423 525 -423 446 -402C426 -397 355 -386 316 -385C316 -408 316 -429 316 -446C342 -443 381 -443 412 -450C430 -454 475 -461 521 -467C535 -444 545 -443 559 -457C571 -471 583 -491 607 -548C619 -578 633 -595 651 -610C668 -622 667 -633 615 -663C582 -683 570 -682 539 -670C521 -662 442 -646 365 -634C426 -697 443 -714 472 -733C499 -751 500 -765 447 -795C413 -815 406 -804 411 -782C416 -764 392 -713 332 -628ZM361 -130C330 -125 302 -122 236 -111C236 -127 237 -143 239 -159C242 -182 233 -199 194 -215C175 -224 166 -210 181 -191C201 -164 193 -125 163 -106C147 -96 145 -84 160 -62C177 -39 188 -36 203 -47C237 -73 322 -91 538 -132C538 -89 539 -79 543 -67C546 -58 556 -55 562 -66C576 -91 583 -115 587 -155C588 -167 589 -186 593 -195C601 -213 597 -228 561 -240C523 -253 512 -246 526 -222C536 -203 538 -188 538 -159L402 -136C402 -192 404 -202 409 -211C419 -230 412 -242 378 -256C339 -271 330 -258 345 -237C353 -227 358 -194 361 -130Z"/>
</svg>