<svg xmlns="http://www.w3.org/2000/svg" viewBox="0 -1000 1000 1000">
	<path fill="#000000" d="M898 18C904 -34 884 -70 772 -113C743 -125 741 -122 765 -90C793 -53 820 -18 865 33C884 54 893 53 898 18ZM306 -108C272 -130 259 -128 260 -102C261 -86 210 -29 129 26C111 38 115 50 133 43C201 16 240 -9 305 -60C334 -81 334 -91 306 -108ZM672 -83C688 -98 688 -106 664 -120C634 -136 624 -135 617 -114C609 -85 554 -22 485 22C470 30 473 40 495 33C550 13 627 -37 672 -83ZM489 -31C494 -71 475 -101 415 -120C389 -128 386 -125 398 -102C412 -75 429 -53 451 -22C465 -1 486 -4 489 -31ZM484 -653C406 -645 388 -643 361 -640C376 -686 366 -702 334 -720C306 -736 296 -727 309 -705C324 -681 323 -647 300 -631C280 -617 279 -611 298 -589C313 -573 322 -573 338 -584C359 -599 450 -618 660 -646C661 -638 664 -627 670 -616C683 -592 700 -595 717 -641C730 -673 740 -687 748 -694C765 -709 766 -725 719 -746C672 -767 664 -759 673 -734C680 -716 680 -703 666 -673L528 -657C532 -698 539 -728 546 -742C561 -768 555 -779 502 -794C466 -804 455 -794 471 -772C484 -756 488 -747 484 -653ZM608 -336C609 -362 609 -385 609 -406C654 -413 705 -419 741 -421C785 -423 789 -420 793 -382C798 -329 800 -281 800 -216C800 -183 796 -182 783 -186C763 -190 721 -188 605 -172C606 -197 607 -217 607 -235C652 -233 701 -237 742 -247C764 -252 762 -270 741 -274C717 -279 684 -276 607 -257C607 -273 608 -296 608 -315C654 -314 712 -320 745 -331C760 -336 761 -346 749 -353C735 -361 708 -364 608 -336ZM628 -430C619 -429 611 -428 603 -427C556 -439 547 -431 559 -410C570 -389 573 -234 561 -169C559 -157 564 -137 575 -126C591 -110 598 -110 604 -145C670 -148 729 -154 773 -160C791 -162 796 -160 812 -129C825 -105 831 -105 846 -130C856 -148 862 -183 858 -216C850 -297 852 -360 862 -379C879 -417 877 -423 837 -447C804 -467 786 -466 766 -457C750 -451 710 -443 653 -434C668 -463 679 -478 690 -486C707 -501 710 -509 695 -526C761 -538 811 -546 870 -552C912 -556 913 -577 876 -592C850 -603 824 -603 783 -591C701 -568 606 -548 553 -542C532 -540 531 -530 547 -523C578 -511 598 -509 642 -516C647 -496 642 -466 628 -430ZM337 -477C334 -462 328 -432 326 -423C302 -418 280 -414 257 -411C213 -424 206 -417 219 -381C232 -342 238 -224 235 -163C183 -155 134 -149 106 -153C79 -155 73 -146 98 -126C128 -101 137 -101 187 -116C259 -139 329 -153 487 -167C532 -171 533 -180 521 -191C511 -198 494 -202 463 -199C466 -325 469 -369 482 -389C498 -413 494 -422 470 -434C432 -452 422 -451 404 -445C391 -441 377 -437 364 -433C370 -454 375 -472 379 -485C405 -490 433 -497 464 -505C518 -519 516 -528 491 -539C475 -545 466 -545 432 -535C427 -534 409 -528 397 -524C420 -553 413 -565 379 -579C343 -594 332 -583 343 -559C347 -553 347 -537 343 -511C304 -502 269 -495 235 -489C212 -485 214 -474 234 -470C256 -467 272 -466 337 -477ZM270 -356C270 -367 270 -378 269 -387C315 -392 359 -401 396 -411C418 -417 424 -414 425 -370C426 -311 425 -266 422 -193C334 -180 297 -174 270 -169C271 -181 271 -195 271 -209C296 -208 324 -211 370 -224C399 -232 400 -239 387 -248C376 -256 361 -259 344 -251C323 -242 295 -234 271 -230C271 -244 271 -260 271 -275C299 -273 325 -277 360 -286C384 -293 385 -301 377 -309C371 -316 359 -318 344 -313C314 -303 293 -299 271 -298C271 -311 271 -325 271 -338C297 -336 312 -337 362 -347C386 -352 389 -360 379 -369C371 -377 360 -377 334 -369C313 -362 293 -358 270 -356Z"/>
</svg>