<svg xmlns="http://www.w3.org/2000/svg" viewBox="0 -1000 1000 1000">
	<path fill="#000000" d="M817 -279C814 -329 795 -353 689 -377C706 -398 719 -419 729 -438C739 -458 770 -499 779 -507C795 -523 793 -536 742 -555C686 -576 675 -557 689 -532C694 -524 689 -490 678 -460C658 -405 629 -358 565 -287C544 -264 555 -251 587 -274C618 -297 649 -327 675 -359C720 -307 761 -264 775 -252C803 -227 819 -241 817 -279ZM929 -120C882 -150 831 -156 698 -139C688 -138 617 -132 533 -124C547 -527 550 -560 554 -574C561 -592 561 -604 514 -633C565 -639 684 -661 711 -669C770 -687 769 -705 731 -716C694 -728 666 -729 607 -710C561 -695 397 -669 328 -669C278 -669 276 -659 321 -639C347 -628 393 -625 468 -629C487 -589 489 -495 480 -118C369 -109 251 -99 225 -97C197 -95 132 -94 121 -95C88 -98 86 -83 116 -58C148 -32 170 -25 250 -48C282 -58 406 -76 526 -81C691 -88 812 -84 882 -68C966 -49 986 -86 929 -120ZM426 -267C425 -302 409 -321 321 -351C328 -362 334 -375 341 -389C350 -408 368 -445 381 -463C392 -477 389 -489 350 -514C301 -548 277 -530 297 -498C302 -489 302 -439 292 -407C275 -359 240 -297 180 -231C163 -212 171 -199 198 -217C244 -250 280 -285 308 -327C344 -283 370 -253 383 -242C412 -217 427 -236 426 -267Z"/>
</svg>