<svg xmlns="http://www.w3.org/2000/svg" viewBox="0 -1000 1000 1000">
	<path fill="#000000" d="M595 -763C593 -785 546 -812 492 -817C459 -820 460 -811 479 -789C519 -746 534 -731 554 -720C578 -706 598 -722 595 -763ZM765 -725C741 -732 718 -731 642 -714C528 -686 391 -662 323 -662C269 -688 267 -682 276 -632C283 -597 279 -493 249 -372C219 -248 155 -135 84 -55C42 -7 48 4 97 -35C174 -93 226 -175 277 -301C315 -396 338 -587 334 -639C376 -632 424 -635 525 -653C565 -659 684 -675 724 -680C802 -689 817 -705 765 -725ZM875 -553C848 -568 814 -572 781 -565C744 -557 712 -551 682 -545C689 -562 695 -575 701 -583C720 -609 720 -620 648 -643C620 -652 615 -638 627 -619C637 -604 640 -590 631 -534C577 -525 533 -518 493 -512C493 -531 493 -545 494 -551C496 -564 495 -571 481 -581C469 -589 454 -596 439 -600C423 -604 412 -597 429 -572C441 -555 445 -541 451 -507C413 -502 379 -499 345 -496C321 -494 318 -482 341 -471C352 -466 359 -466 456 -484C464 -435 467 -411 470 -390C474 -361 494 -359 502 -386C508 -388 514 -389 520 -390C528 -371 532 -338 531 -304C485 -297 439 -291 407 -290C341 -330 336 -306 349 -287C361 -272 365 -258 367 -229C370 -191 368 -151 365 -134C361 -107 363 -99 376 -74C390 -47 410 -54 415 -97C418 -125 417 -176 413 -270C447 -267 472 -269 531 -279C528 -83 527 13 528 49C530 145 567 131 575 -4C579 -60 582 -223 580 -287C628 -296 654 -300 688 -303C710 -305 720 -300 725 -280C732 -253 731 -206 723 -174C717 -149 707 -147 666 -161C641 -169 640 -168 656 -143C673 -117 686 -98 704 -76C715 -62 728 -62 743 -78C760 -94 783 -130 785 -174C789 -245 790 -256 805 -280C817 -300 815 -313 774 -332C732 -352 724 -352 701 -342C681 -334 633 -323 580 -313C580 -331 581 -341 586 -352C594 -370 593 -378 561 -397C593 -402 620 -406 644 -409C673 -413 676 -416 663 -432C652 -443 650 -446 654 -460C660 -479 666 -496 670 -511C728 -516 780 -519 804 -518C907 -513 908 -534 875 -553ZM626 -506C623 -489 619 -469 616 -445C612 -425 606 -424 502 -412C498 -441 496 -468 494 -490C530 -495 579 -502 626 -506Z"/>
</svg>