<svg xmlns="http://www.w3.org/2000/svg" viewBox="0 -1000 1000 1000">
	<path fill="#000000" d="M565 -752C569 -781 542 -801 482 -811C447 -816 444 -809 464 -784C481 -762 496 -748 521 -728C541 -712 561 -722 565 -752ZM518 -521C518 -502 518 -482 518 -463C469 -456 408 -449 371 -447C328 -463 321 -449 335 -420C347 -398 363 -349 376 -299C395 -231 399 -224 411 -227C418 -229 420 -234 422 -248C450 -253 486 -260 518 -263C518 -255 518 -222 516 -201C402 -189 276 -175 252 -175C220 -175 217 -166 244 -147C271 -129 282 -127 321 -136C373 -147 457 -162 516 -168C514 -24 518 51 521 68C525 91 535 93 544 67C556 31 568 -87 567 -172C701 -179 778 -177 839 -168C887 -161 894 -179 858 -212C833 -236 796 -239 708 -225C693 -223 635 -215 567 -207C566 -227 566 -242 566 -269C636 -276 639 -274 646 -264C654 -251 667 -250 681 -264C692 -273 708 -297 730 -345C752 -397 764 -410 781 -423C804 -440 801 -455 755 -483C719 -506 712 -507 693 -500C671 -491 635 -484 567 -472C568 -495 568 -515 569 -531C595 -535 616 -538 663 -545C707 -551 709 -565 677 -581C661 -589 631 -587 571 -573C572 -593 573 -600 575 -606C582 -624 580 -637 530 -656C619 -667 687 -675 705 -677C754 -683 754 -698 719 -716C704 -724 690 -727 670 -722C641 -715 616 -711 525 -696C377 -673 334 -669 289 -670C227 -697 217 -685 231 -655C248 -622 244 -502 220 -387C185 -217 126 -109 64 -30C41 0 49 12 83 -16C167 -85 213 -177 255 -319C280 -401 296 -503 301 -639C327 -636 397 -640 488 -651C505 -628 513 -603 515 -560C481 -553 436 -546 421 -544C392 -540 391 -531 421 -521C443 -514 466 -514 518 -521ZM566 -392C566 -410 567 -427 567 -443C624 -452 652 -454 667 -453C697 -452 699 -450 695 -428C686 -380 679 -356 666 -331C656 -310 651 -306 634 -307C622 -308 603 -307 566 -302C566 -320 566 -338 566 -354C587 -358 605 -361 613 -363C649 -371 652 -389 629 -398C618 -402 609 -401 566 -392ZM519 -348C519 -331 519 -314 518 -294C491 -290 459 -284 419 -277C408 -340 401 -381 393 -420C434 -424 484 -431 518 -436C519 -417 519 -399 519 -381C505 -378 467 -370 448 -367C433 -364 431 -360 444 -351C455 -345 474 -342 519 -348Z"/>
</svg>