<svg xmlns="http://www.w3.org/2000/svg" viewBox="0 -1000 1000 1000">
	<path fill="#000000" d="M583 -743C579 -770 539 -796 471 -803C446 -806 442 -800 451 -788C482 -750 513 -714 535 -694C563 -670 590 -698 583 -743ZM840 -468C802 -488 768 -485 653 -459C661 -491 669 -518 676 -531C685 -549 684 -560 636 -581C595 -599 586 -590 603 -563C610 -553 612 -531 604 -449C569 -442 529 -435 480 -426C481 -457 483 -471 487 -483C493 -502 488 -506 448 -522C406 -540 396 -529 415 -500C429 -479 432 -466 435 -419C386 -411 356 -407 326 -404C298 -401 298 -395 317 -386C347 -373 365 -368 437 -384C442 -305 447 -239 450 -229C459 -207 476 -208 480 -241C510 -240 544 -246 638 -265C661 -269 664 -282 650 -291C632 -304 627 -313 631 -340C634 -362 639 -391 644 -416C699 -422 750 -423 809 -426C855 -428 866 -455 840 -468ZM740 -643C774 -653 771 -674 736 -682C712 -688 691 -686 650 -676C602 -664 517 -645 425 -626C382 -618 356 -613 327 -614C272 -647 251 -640 265 -613C280 -582 274 -508 241 -363C212 -233 138 -82 36 24C15 46 25 51 44 40C124 -4 231 -153 274 -292C311 -413 332 -541 331 -595C375 -585 416 -589 558 -610C675 -627 711 -633 740 -643ZM631 -82C633 -119 616 -156 570 -182C559 -188 549 -185 552 -170C560 -135 580 -79 597 -62C612 -47 630 -55 631 -82ZM478 -68C484 -103 477 -140 434 -169C420 -179 411 -176 413 -159C418 -118 426 -70 434 -53C443 -33 471 -31 478 -68ZM855 -4C873 -61 865 -126 709 -205C687 -216 683 -206 696 -187C728 -142 772 -65 811 -2C829 27 847 22 855 -4ZM321 -154C312 -178 307 -178 300 -160C288 -128 258 -62 245 -46C239 -38 236 -22 239 -1C242 22 257 31 288 -1C314 -28 336 -114 321 -154ZM601 -412C595 -359 589 -321 583 -299C579 -285 575 -284 481 -269C480 -321 480 -364 480 -392C523 -401 570 -408 601 -412Z"/>
</svg>