<svg xmlns="http://www.w3.org/2000/svg" viewBox="0 -1000 1000 1000">
	<path fill="#000000" d="M664 -493C665 -533 665 -566 666 -592C695 -599 717 -602 729 -602C750 -602 757 -598 752 -578C738 -518 732 -511 694 -501C687 -499 674 -496 664 -493ZM499 -461C474 -455 451 -452 428 -449C378 -482 364 -475 382 -429C390 -406 384 -330 370 -319C349 -304 349 -291 362 -273C379 -249 386 -250 411 -275C428 -291 453 -301 489 -310C468 -203 417 -136 319 -55C296 -36 303 -27 329 -39C448 -95 518 -187 534 -320C566 -328 595 -334 619 -338C618 -169 617 -121 617 -78C616 8 617 42 622 64C627 87 639 87 647 61C663 12 672 -67 668 -222C667 -275 666 -315 665 -347C721 -358 757 -361 782 -362C818 -363 827 -352 823 -320C818 -269 813 -255 801 -230C789 -208 784 -207 731 -229C713 -236 706 -227 720 -211C760 -170 764 -160 766 -138C768 -115 776 -111 801 -128C836 -152 850 -176 865 -238C875 -283 886 -317 901 -333C920 -353 921 -364 881 -389C843 -413 829 -415 796 -406C776 -400 713 -387 664 -378C663 -421 663 -443 663 -463C694 -469 724 -474 748 -479C796 -486 798 -495 790 -506C782 -518 783 -522 791 -538C802 -558 814 -571 829 -581C848 -595 847 -610 811 -630C769 -655 761 -655 734 -642C726 -638 699 -630 667 -622C669 -702 672 -728 682 -753C693 -780 687 -789 642 -809C592 -830 580 -820 601 -786C614 -763 619 -731 619 -612C594 -606 565 -600 540 -595C539 -644 540 -659 543 -672C548 -696 543 -706 502 -718C455 -731 448 -719 469 -695C482 -681 491 -649 495 -586C473 -582 454 -580 438 -578C413 -575 410 -561 436 -551C445 -547 463 -548 497 -555C498 -528 499 -498 499 -461ZM540 -566C568 -572 595 -578 619 -583C619 -547 619 -515 619 -483C593 -478 566 -473 541 -468C541 -498 541 -530 540 -566ZM540 -438C562 -443 590 -448 619 -454C619 -423 619 -396 619 -369C594 -364 562 -358 536 -352C539 -377 540 -405 540 -438ZM494 -344C467 -339 445 -334 421 -329C426 -353 427 -384 425 -423C452 -422 471 -424 499 -430C498 -395 497 -371 494 -344ZM231 -338C237 -282 231 -157 217 -110C199 -56 205 -27 222 4C230 19 246 17 252 4C262 -18 272 -73 274 -109C275 -125 276 -181 276 -230C276 -326 274 -342 255 -366C288 -404 328 -450 338 -459C357 -476 357 -486 324 -518C294 -547 285 -543 286 -514C287 -493 256 -433 148 -311C124 -284 88 -248 47 -211C19 -187 22 -179 62 -199C115 -226 167 -267 231 -338ZM330 -655C355 -674 354 -689 321 -719C285 -751 271 -742 273 -717C274 -702 258 -664 223 -617C196 -579 165 -546 117 -500C93 -477 106 -467 146 -491C189 -518 228 -551 270 -598C289 -618 312 -642 330 -655Z"/>
</svg>