<svg xmlns="http://www.w3.org/2000/svg" viewBox="0 -1000 1000 1000">
	<path fill="#000000" d="M520 -503C526 -542 498 -595 400 -625C375 -633 371 -627 382 -604C405 -558 450 -495 483 -474C502 -461 514 -465 520 -503ZM895 -478C883 -548 835 -580 729 -591C698 -594 697 -589 715 -570C769 -514 827 -462 851 -445C884 -422 901 -442 895 -478ZM183 -319C199 -371 195 -417 179 -452C167 -478 159 -477 154 -452C144 -406 122 -353 104 -322C91 -301 90 -271 102 -246C112 -224 129 -218 140 -228C151 -239 167 -268 183 -319ZM855 -206C810 -238 764 -278 698 -359C686 -374 677 -367 683 -351C700 -305 719 -262 732 -231C737 -219 735 -206 708 -195C619 -160 471 -194 414 -237C374 -267 341 -314 316 -410C309 -437 295 -450 278 -447C268 -445 265 -436 269 -417C311 -229 378 -168 513 -129C620 -99 742 -111 848 -165C876 -179 875 -193 855 -206Z"/>
</svg>