<svg xmlns="http://www.w3.org/2000/svg" viewBox="0 -1000 1000 1000">
	<path fill="#000000" d="M966 -257C992 -260 987 -276 964 -281C806 -315 757 -338 639 -419C590 -454 553 -484 507 -530C559 -537 617 -543 682 -549C752 -555 771 -582 739 -597C709 -611 679 -615 639 -604C580 -588 508 -573 440 -560C450 -594 460 -618 463 -624C474 -649 469 -659 417 -680C490 -692 599 -713 645 -730C668 -739 677 -761 637 -771C604 -779 580 -779 532 -765C401 -726 331 -709 304 -707C277 -705 275 -691 304 -680C331 -671 347 -669 393 -676C400 -649 399 -605 383 -549C314 -537 252 -528 217 -525C191 -523 189 -516 216 -500C233 -490 290 -488 326 -498C339 -501 356 -505 370 -507C317 -371 219 -259 81 -170C53 -152 53 -136 88 -149C240 -206 367 -345 426 -518C440 -520 454 -523 471 -525C564 -413 654 -326 715 -278C770 -235 783 -234 966 -257ZM480 -308C491 -332 488 -350 436 -376C405 -391 392 -379 405 -354C432 -305 430 -170 418 -60C414 -25 404 -21 356 -33C331 -39 323 -33 342 -15C372 12 384 25 410 69C421 88 428 92 446 66C461 45 476 -13 474 -68C468 -228 471 -289 480 -308ZM610 -86C613 -123 600 -153 518 -198C503 -206 499 -196 505 -179C514 -152 538 -111 571 -67C587 -46 607 -48 610 -86ZM800 -74C793 -124 750 -172 661 -201C642 -207 639 -201 651 -181C678 -141 741 -54 754 -42C783 -18 806 -33 800 -74ZM316 -182C315 -208 301 -207 293 -190C280 -166 258 -137 237 -112C220 -92 215 -78 218 -53C223 -15 235 -13 256 -34C291 -67 318 -134 316 -182Z"/>
</svg>