<svg xmlns="http://www.w3.org/2000/svg" viewBox="0 -1000 1000 1000">
	<path fill="#000000" d="M492 -602C499 -617 496 -628 467 -646C429 -669 418 -667 425 -608L327 -586C347 -664 363 -712 374 -740C384 -765 377 -785 327 -806C290 -822 278 -815 290 -789C305 -757 311 -687 287 -578C227 -567 105 -552 80 -554C46 -556 39 -545 70 -515C95 -491 106 -488 132 -497C153 -504 230 -528 279 -542C274 -518 271 -504 265 -479C261 -463 271 -451 291 -440C310 -429 328 -417 344 -405C310 -366 269 -338 202 -311C168 -298 170 -287 208 -292C264 -299 320 -319 377 -379C391 -366 405 -353 419 -338C452 -303 483 -320 458 -363C447 -380 434 -394 404 -413C425 -446 456 -504 474 -553C478 -565 487 -591 492 -602ZM928 -372C808 -398 770 -409 699 -467C714 -492 735 -537 756 -582C763 -595 781 -620 790 -628C813 -650 811 -659 763 -687C730 -706 721 -707 702 -694C664 -668 610 -649 560 -639C538 -634 536 -623 562 -615C586 -607 605 -609 681 -633C704 -641 707 -635 703 -614C693 -558 681 -526 664 -496C644 -512 621 -532 604 -547C576 -571 562 -579 544 -580C520 -582 511 -567 527 -560C554 -547 567 -539 589 -518C604 -505 623 -486 643 -466C623 -441 565 -401 503 -382C469 -371 479 -362 510 -361C558 -360 625 -386 675 -436C701 -409 726 -383 747 -361C768 -340 791 -329 814 -331C843 -335 880 -340 922 -348C955 -354 958 -365 928 -372ZM583 -208C580 -246 544 -278 469 -270C439 -267 440 -259 456 -244C478 -222 524 -190 546 -182C566 -175 585 -184 583 -208ZM908 -191C894 -242 853 -267 745 -280C714 -284 710 -277 735 -255C760 -234 849 -169 868 -161C903 -145 917 -159 908 -191ZM224 -236C219 -254 207 -250 201 -238C186 -207 170 -182 158 -166C131 -132 128 -116 135 -67C139 -40 158 -26 170 -44C180 -58 195 -82 209 -115C232 -171 235 -196 224 -236ZM812 -62C768 -94 723 -127 681 -170C661 -190 654 -180 664 -164C684 -127 696 -103 704 -85C713 -66 706 -56 676 -51C589 -36 506 -50 434 -85C405 -99 374 -135 322 -221C315 -233 308 -238 300 -236C295 -235 296 -227 298 -217C331 -84 411 -20 528 3C635 24 764 9 811 -16C833 -28 831 -48 812 -62ZM423 -579C417 -541 395 -479 366 -435C351 -443 333 -451 313 -461C303 -466 299 -475 304 -495C309 -515 314 -534 318 -553Z"/>
</svg>