<svg xmlns="http://www.w3.org/2000/svg" viewBox="0 -1000 1000 1000">
	<path fill="#000000" d="M941 -503C918 -529 860 -538 796 -522C788 -520 723 -508 646 -495L648 -557C681 -563 715 -569 749 -576C770 -580 772 -593 762 -599C748 -607 722 -611 695 -602C680 -597 666 -594 649 -589L651 -642C684 -648 722 -657 765 -667C795 -674 800 -687 787 -696C773 -707 741 -706 712 -697C693 -693 673 -687 652 -681C655 -716 662 -747 667 -757C677 -776 671 -792 630 -807C587 -824 573 -810 596 -781C606 -768 615 -746 612 -670C568 -659 522 -648 480 -640C453 -633 460 -622 483 -620C511 -618 552 -622 612 -633L611 -579C580 -571 546 -564 510 -557C492 -554 493 -548 512 -541C521 -537 539 -536 567 -542C580 -545 595 -547 611 -550L610 -489C503 -470 385 -449 357 -447C333 -446 328 -436 357 -421C377 -411 388 -411 419 -421C471 -437 547 -452 626 -463C715 -476 810 -482 875 -476C941 -470 963 -481 941 -503ZM404 -553C393 -579 368 -588 327 -587C295 -586 295 -571 320 -554C334 -545 350 -534 374 -524C399 -514 413 -531 404 -553ZM183 -516C172 -543 166 -542 162 -519C160 -507 140 -439 135 -430C113 -392 106 -360 116 -342C129 -313 146 -312 163 -352C193 -432 199 -480 183 -516ZM314 -710C331 -753 329 -762 284 -785C227 -812 222 -800 244 -761C251 -748 263 -652 263 -615C265 -366 252 -179 238 -134C221 -73 221 -57 244 -14C258 10 270 9 279 -11C286 -27 296 -109 296 -145C294 -322 295 -395 299 -565C301 -643 309 -697 314 -710ZM776 -59C769 -137 762 -223 759 -260C753 -326 757 -348 765 -360C779 -382 778 -390 740 -409C713 -424 700 -424 682 -415C642 -396 586 -386 541 -386C506 -398 501 -389 515 -366C527 -348 513 -160 486 -96C470 -57 469 -47 477 -13C487 24 501 29 514 -6C521 -31 531 -91 539 -163C570 -156 611 -161 664 -175C686 -181 685 -199 663 -204C646 -208 627 -205 541 -180C544 -208 547 -239 549 -269C580 -265 602 -267 665 -280C692 -286 691 -304 664 -309C647 -312 633 -309 550 -286C553 -328 554 -345 550 -365C577 -362 597 -365 641 -373C702 -384 705 -381 712 -310C722 -200 724 -154 719 -67C717 -35 710 -32 666 -48C644 -55 638 -51 658 -28C676 -6 695 29 705 56C712 76 724 78 742 53C765 23 779 -23 776 -59Z"/>
</svg>