<svg xmlns="http://www.w3.org/2000/svg" viewBox="0 -1000 1000 1000">
	<path fill="#000000" d="M737 -547C768 -565 765 -579 715 -613C668 -646 659 -646 628 -638C612 -632 557 -620 492 -607C493 -638 494 -652 495 -672C528 -678 567 -688 613 -700C663 -712 668 -732 642 -742C625 -749 606 -749 579 -741C554 -734 528 -726 501 -719C504 -738 507 -750 510 -758C523 -788 519 -797 473 -813C414 -834 398 -816 421 -790C436 -772 444 -747 447 -706C398 -696 353 -687 328 -685C303 -683 303 -672 326 -661C345 -653 381 -651 449 -663C450 -641 450 -627 450 -599C393 -587 331 -575 286 -568C218 -581 210 -568 243 -533C268 -508 294 -450 320 -384C331 -356 351 -362 356 -377C392 -384 422 -390 448 -395L447 -311C338 -295 282 -290 272 -292C228 -301 220 -284 251 -259C281 -236 299 -237 320 -244C403 -271 516 -294 619 -312C636 -288 656 -266 674 -251C688 -240 703 -247 705 -276C707 -311 673 -356 603 -375C583 -380 579 -376 592 -354C596 -347 600 -341 604 -335C560 -327 519 -320 484 -315L486 -403C566 -417 589 -416 597 -410C615 -394 629 -396 647 -425C696 -506 718 -536 737 -547ZM910 -204C901 -240 869 -272 763 -289C731 -294 727 -287 749 -264C792 -218 822 -195 868 -166C902 -145 918 -173 910 -204ZM560 -157C564 -191 547 -225 461 -239C440 -242 438 -234 448 -216C470 -182 498 -150 520 -136C538 -123 555 -127 560 -157ZM215 -206C209 -222 198 -227 191 -210C177 -174 169 -156 139 -111C127 -92 124 -72 132 -52C141 -27 151 -23 164 -30C178 -37 195 -62 205 -84C228 -134 230 -167 215 -206ZM819 -50C774 -78 734 -111 678 -172C665 -186 655 -182 664 -166C683 -127 696 -96 700 -79C706 -54 702 -50 674 -44C567 -21 480 -26 417 -64C378 -87 349 -123 322 -182C317 -192 307 -200 299 -198C293 -196 296 -172 299 -162C311 -120 331 -84 350 -57C422 42 620 57 812 -5C844 -16 848 -32 819 -50ZM649 -562C640 -511 620 -466 607 -447C604 -443 598 -440 582 -441C566 -442 543 -439 487 -428L489 -484C506 -488 526 -494 551 -501C599 -514 600 -522 578 -533C560 -542 530 -537 515 -529C509 -526 500 -522 490 -520L492 -582C547 -591 594 -596 612 -596C646 -595 653 -585 649 -562ZM450 -575L449 -509C426 -504 404 -499 392 -498C363 -495 366 -480 387 -476C408 -473 425 -472 449 -476L448 -421C422 -415 390 -410 350 -402C330 -476 319 -517 312 -550C356 -559 404 -568 450 -575Z"/>
</svg>