<svg xmlns="http://www.w3.org/2000/svg" viewBox="0 -1000 1000 1000">
	<path fill="#000000" d="M835 -559C873 -582 872 -592 815 -628C769 -659 737 -661 707 -644C697 -637 616 -616 540 -603C597 -675 645 -730 670 -748C700 -770 696 -779 632 -800C582 -817 576 -807 588 -775C596 -755 564 -662 506 -598C501 -597 496 -596 491 -596C423 -610 420 -603 436 -573C451 -546 485 -437 491 -413C495 -398 504 -381 508 -377C522 -362 531 -366 532 -379C582 -388 639 -395 677 -398C689 -399 707 -392 711 -387C724 -372 747 -377 768 -430C796 -506 821 -550 835 -559ZM389 -543C384 -569 366 -586 318 -598C286 -606 283 -600 300 -572C310 -556 339 -520 358 -504C375 -489 396 -503 389 -543ZM140 -500C127 -541 108 -532 108 -497C108 -484 92 -418 86 -406C68 -369 67 -341 75 -318C85 -291 111 -288 128 -326C156 -387 162 -438 140 -500ZM302 -719C321 -757 321 -770 267 -787C204 -807 200 -784 228 -752C236 -743 244 -693 244 -650C245 -446 227 -177 213 -115C199 -54 198 -25 222 22C236 49 250 48 260 25C267 6 273 -61 273 -96C273 -114 279 -336 283 -512C285 -613 293 -702 302 -719ZM917 -81C876 -111 852 -114 738 -93C731 -91 689 -85 633 -79L637 -167C674 -175 710 -182 741 -186C780 -191 781 -207 754 -220C736 -229 705 -225 640 -206C649 -249 647 -270 635 -283C691 -290 737 -297 775 -304C803 -309 807 -326 778 -339C747 -351 724 -350 680 -336C637 -322 478 -293 459 -292C429 -290 428 -278 450 -270C472 -262 503 -258 585 -275C590 -258 592 -230 591 -194C551 -187 498 -177 480 -174C454 -171 452 -162 474 -155C499 -147 527 -147 590 -158L586 -73C481 -59 357 -43 340 -42C308 -40 304 -31 326 -18C364 2 373 4 421 -10C514 -37 740 -52 888 -31C945 -22 958 -51 917 -81ZM751 -565C746 -530 732 -471 721 -442C712 -419 703 -417 687 -426C682 -429 661 -428 529 -402C526 -428 521 -456 516 -482C552 -478 610 -485 675 -502C693 -507 695 -523 673 -531C660 -537 631 -534 613 -528C573 -514 538 -504 511 -502C504 -536 496 -563 489 -580C519 -577 532 -579 575 -589C600 -595 690 -606 713 -607C753 -609 756 -601 751 -565Z"/>
</svg>