<svg xmlns="http://www.w3.org/2000/svg" viewBox="0 -1000 1000 1000">
	<path fill="#000000" d="M761 -721C759 -752 723 -780 653 -776C632 -775 630 -765 647 -750C672 -729 702 -705 729 -694C746 -688 762 -697 761 -721ZM507 -539C496 -543 473 -539 454 -533C425 -521 389 -509 350 -499C336 -495 336 -487 348 -482C359 -477 385 -476 418 -483C443 -487 492 -501 506 -507C530 -519 530 -532 507 -539ZM907 -229C897 -261 890 -293 885 -332C881 -362 872 -362 867 -342C863 -325 856 -305 847 -284C840 -269 827 -267 808 -279C771 -300 726 -338 687 -388C726 -451 750 -485 765 -497C779 -509 777 -514 737 -538C702 -560 688 -555 693 -529C696 -510 681 -469 659 -427C628 -477 598 -551 576 -618C611 -625 641 -631 667 -637C705 -647 712 -659 669 -673C655 -677 630 -673 565 -658C553 -697 546 -730 545 -751C544 -785 543 -792 530 -797C511 -806 488 -812 465 -814C433 -817 430 -804 449 -786C474 -763 489 -738 520 -647C375 -612 321 -601 288 -603C234 -627 218 -616 232 -594C247 -571 251 -526 245 -455C237 -357 185 -271 101 -202C77 -183 82 -174 109 -186C212 -235 270 -330 286 -406C301 -480 306 -539 302 -577C338 -578 400 -587 532 -610C559 -525 591 -448 631 -387C597 -338 554 -294 514 -263C491 -245 497 -237 522 -247C576 -269 623 -307 659 -352C732 -257 807 -213 873 -202C902 -197 915 -205 907 -229ZM539 -394C553 -404 547 -419 514 -432C490 -441 478 -442 453 -431C409 -409 352 -402 311 -407C292 -409 292 -396 298 -385C307 -368 322 -325 331 -287C335 -269 342 -260 349 -260C358 -260 362 -264 365 -277C404 -285 452 -295 487 -301C509 -305 514 -314 506 -335C502 -343 520 -381 539 -394ZM542 -183C542 -217 504 -241 438 -241C418 -241 416 -229 428 -216C449 -191 482 -166 509 -157C525 -153 542 -155 542 -183ZM872 -118C858 -164 814 -186 734 -193C710 -196 708 -186 722 -174C753 -145 807 -103 834 -90C866 -75 880 -89 872 -118ZM231 -175C224 -189 215 -188 210 -178C200 -157 186 -130 177 -120C150 -90 145 -67 155 -38C161 -18 170 -12 185 -23C197 -32 208 -50 224 -82C243 -121 246 -144 231 -175ZM747 -41C712 -66 676 -104 649 -140C638 -154 631 -150 634 -136C638 -118 642 -103 649 -84C655 -66 650 -56 633 -53C560 -41 484 -44 434 -73C401 -91 374 -117 344 -179C340 -186 320 -198 314 -195C308 -192 309 -185 315 -170C366 -57 424 -6 534 8C626 20 681 13 740 -6C760 -13 766 -28 747 -41ZM466 -381C462 -334 453 -317 368 -304C364 -331 358 -356 350 -382C370 -382 387 -383 404 -386C460 -397 467 -394 466 -381Z"/>
</svg>