<svg xmlns="http://www.w3.org/2000/svg" viewBox="0 -1000 1000 1000">
	<path fill="#000000" d="M769 -725C767 -757 736 -778 658 -782C635 -783 631 -775 645 -761C675 -733 697 -716 734 -697C750 -689 770 -701 769 -725ZM273 -582C313 -579 387 -586 535 -613C570 -509 604 -433 637 -381C599 -327 556 -283 513 -255C490 -238 496 -228 523 -237C572 -256 628 -299 664 -343C732 -257 779 -223 849 -203C892 -191 905 -205 893 -229C880 -257 874 -304 872 -364C871 -390 851 -389 846 -368C842 -350 835 -322 825 -287C821 -270 809 -270 791 -283C766 -303 722 -341 691 -381C744 -466 752 -479 768 -491C784 -504 785 -512 744 -537C706 -559 694 -554 699 -526C703 -506 687 -467 663 -423C637 -471 605 -553 583 -622C613 -628 639 -634 672 -639C717 -646 716 -661 674 -676C661 -681 622 -678 570 -664C560 -699 553 -727 553 -741C551 -783 549 -785 536 -791C516 -800 493 -807 469 -809C445 -811 437 -797 457 -781C477 -762 494 -736 523 -651C447 -631 314 -612 248 -608C209 -629 193 -617 204 -593C222 -556 222 -528 212 -444C200 -352 171 -271 94 -196C68 -171 79 -160 108 -176C179 -218 234 -299 254 -396C271 -484 279 -542 273 -582ZM548 -166C536 -201 507 -219 439 -219C419 -219 418 -213 429 -200C446 -179 477 -154 510 -137C535 -125 558 -139 548 -166ZM740 -25C705 -45 671 -80 639 -127C629 -141 618 -137 624 -123C630 -104 635 -90 639 -69C645 -40 642 -33 623 -31C531 -24 478 -33 432 -60C399 -78 378 -105 348 -169C343 -176 321 -187 315 -183C308 -180 307 -173 314 -158C359 -45 405 7 531 26C625 39 649 39 733 11C756 3 757 -15 740 -25ZM244 -165C239 -192 230 -191 222 -168C213 -141 200 -123 186 -106C158 -75 154 -52 163 -22C169 -2 188 2 202 -15C237 -57 252 -106 244 -165ZM837 -110C824 -159 779 -181 698 -193C674 -196 671 -188 684 -173C716 -138 771 -97 797 -83C828 -66 844 -80 837 -110ZM322 -360C317 -378 305 -376 300 -358C296 -343 288 -327 279 -317C269 -308 267 -299 271 -274C274 -256 292 -255 305 -275C323 -302 329 -335 322 -360ZM572 -350C570 -369 551 -378 502 -385C484 -388 480 -383 489 -372C506 -347 522 -334 548 -327C563 -322 574 -334 572 -350ZM422 -493C460 -495 494 -500 515 -509C537 -518 534 -534 519 -539C500 -545 485 -543 466 -533C457 -527 440 -522 424 -519C426 -532 428 -540 431 -546C435 -554 432 -561 395 -573C362 -583 354 -574 365 -549C373 -532 379 -502 379 -437C343 -430 308 -424 296 -424C275 -424 274 -415 294 -406C305 -401 323 -399 393 -409C401 -389 404 -360 401 -331C399 -313 392 -309 361 -316C344 -320 340 -313 356 -302C373 -289 388 -272 395 -258C401 -246 418 -244 427 -257C437 -269 442 -283 442 -329C442 -372 442 -386 441 -393C440 -401 438 -409 433 -415C506 -427 536 -434 556 -442C569 -447 567 -461 553 -468C541 -472 524 -471 420 -444C421 -464 421 -480 422 -493Z"/>
</svg>