<svg xmlns="http://www.w3.org/2000/svg" viewBox="0 -1000 1000 1000">
	<path fill="#000000" d="M472 -314C480 -293 487 -258 487 -217C466 -213 436 -206 401 -198C400 -217 401 -239 401 -256C402 -269 400 -278 382 -301C413 -306 443 -311 472 -314ZM252 -277C283 -284 313 -290 343 -295C356 -274 360 -240 361 -190C339 -186 318 -181 296 -177C274 -172 274 -163 298 -156C315 -152 331 -150 361 -155C362 -118 365 -79 367 -57C369 -33 389 -27 396 -57C400 -73 401 -118 401 -164C424 -169 455 -175 486 -180C481 -124 481 -39 485 -15C488 9 491 13 506 -19C514 -35 524 -99 530 -188C560 -192 584 -196 598 -196C628 -197 633 -222 602 -232C583 -238 564 -237 532 -230C533 -247 534 -262 536 -276C538 -291 536 -302 525 -324C561 -328 592 -331 611 -333C642 -335 658 -327 664 -296C673 -247 675 -176 662 -75C654 -27 644 -26 579 -39C544 -45 541 -39 568 -20C590 -5 631 36 637 56C641 70 652 73 675 52C707 22 728 -29 728 -118C728 -274 732 -296 739 -306C753 -328 752 -338 706 -363C656 -388 648 -387 611 -373C599 -368 456 -339 242 -306C226 -312 212 -317 201 -317C182 -317 179 -309 193 -295C206 -280 221 -122 217 -68C214 -27 221 -2 233 20C244 34 252 34 260 19C269 0 271 -15 269 -53C265 -131 260 -193 252 -277ZM317 -455C297 -453 294 -448 325 -435C350 -424 377 -424 427 -435C491 -448 534 -461 563 -470C595 -480 593 -489 574 -501C550 -513 527 -513 493 -504C429 -482 361 -464 317 -455ZM474 -696C481 -706 487 -710 489 -712C507 -728 511 -743 465 -778C428 -805 419 -795 424 -767C427 -748 413 -713 365 -636C285 -506 171 -398 61 -325C38 -309 36 -294 70 -305C172 -343 288 -431 437 -645C444 -655 452 -664 457 -673C612 -508 657 -462 682 -439C733 -395 741 -390 776 -390C843 -390 883 -393 935 -399C962 -402 960 -415 937 -420C741 -472 708 -492 474 -696Z"/>
</svg>