<svg xmlns="http://www.w3.org/2000/svg" viewBox="0 -1000 1000 1000">
	<path fill="#000000" d="M829 -726C806 -733 796 -732 716 -714C719 -722 724 -731 729 -741C744 -772 743 -784 709 -801C671 -820 660 -816 667 -793C678 -756 676 -731 669 -703C638 -697 591 -689 534 -679C531 -699 530 -710 531 -716C533 -744 526 -752 482 -762C450 -769 444 -756 467 -730C478 -717 488 -699 496 -673C458 -668 411 -663 396 -663C349 -663 349 -654 369 -641C387 -628 400 -626 438 -637C453 -641 476 -646 503 -651C507 -639 510 -626 513 -612C517 -593 522 -587 534 -587C542 -587 547 -601 544 -618C541 -632 539 -646 537 -657C594 -666 632 -673 661 -677C653 -653 647 -637 641 -621C630 -593 643 -593 656 -609C671 -625 689 -657 702 -682C753 -688 793 -690 823 -689C868 -687 871 -712 829 -726ZM358 -544C351 -566 321 -583 285 -578C266 -575 265 -571 275 -561C286 -550 312 -524 329 -513C347 -502 366 -513 358 -544ZM812 -544C839 -560 838 -573 789 -595C748 -613 743 -611 721 -602C710 -597 672 -589 634 -584C605 -580 525 -565 426 -547C392 -557 387 -547 403 -527C414 -514 436 -469 446 -439C453 -417 459 -409 465 -410C468 -410 474 -416 475 -427C550 -440 591 -446 654 -457C673 -460 709 -461 712 -457C723 -443 729 -441 741 -455C750 -465 757 -475 772 -496C784 -514 804 -539 812 -544ZM153 -493C137 -522 120 -522 120 -486C120 -475 107 -430 98 -412C82 -379 82 -372 90 -344C100 -308 120 -305 136 -340C159 -388 171 -459 153 -493ZM269 -684C282 -721 274 -735 228 -759C191 -778 172 -766 199 -729C216 -706 220 -681 220 -627C222 -326 222 -141 208 -90C193 -35 195 -23 206 20C219 68 234 64 247 21C258 -12 260 -45 259 -96C251 -561 262 -663 269 -684ZM923 -339C962 -337 963 -359 917 -396C868 -437 846 -438 822 -426C812 -421 781 -416 628 -396C586 -390 546 -381 512 -374C458 -363 412 -355 379 -353C365 -377 346 -378 346 -353C346 -344 338 -310 330 -294C316 -266 313 -259 315 -242C320 -203 344 -200 356 -227C374 -270 383 -299 385 -335C415 -331 446 -339 545 -359C597 -370 689 -387 803 -397C842 -400 848 -387 819 -343C804 -319 807 -317 832 -324C868 -335 895 -341 923 -339ZM759 28C764 11 764 -7 752 -110C745 -179 744 -249 750 -258C771 -288 764 -302 716 -320C688 -331 678 -330 659 -321C624 -305 579 -293 505 -281C501 -285 494 -286 477 -286C461 -286 458 -282 468 -259C479 -233 477 -108 460 -30C448 20 464 61 478 61C487 61 500 40 503 -3C524 1 542 1 565 -2C585 -4 622 -9 649 -12C683 -15 687 -14 697 26C711 81 719 88 726 88C736 88 744 75 759 28ZM742 -530C735 -508 727 -491 724 -487C717 -476 713 -475 697 -477C688 -479 671 -478 634 -472C647 -505 652 -516 660 -533C665 -546 664 -553 652 -567C690 -574 710 -576 734 -577C749 -578 752 -561 742 -530ZM620 -562C626 -545 623 -519 614 -469C597 -467 575 -464 548 -458C558 -488 552 -514 529 -546C560 -551 590 -556 620 -562ZM535 -456C517 -453 496 -449 473 -445C465 -482 454 -515 446 -532C473 -536 495 -540 517 -544C520 -508 524 -486 535 -456ZM706 -85C703 -22 694 -17 679 -31C660 -48 652 -49 615 -37C588 -28 553 -22 503 -17C505 -48 506 -76 506 -102C552 -101 616 -110 638 -118C668 -129 666 -141 643 -144C637 -145 625 -145 585 -133C552 -122 528 -118 507 -118C508 -143 508 -167 508 -186C541 -182 577 -186 620 -199C666 -212 662 -225 638 -229C632 -230 619 -229 592 -219C559 -206 530 -201 508 -201C509 -221 508 -243 507 -262C547 -269 579 -276 637 -289C681 -299 694 -289 699 -245C706 -184 708 -121 706 -85Z"/>
</svg>