<svg xmlns="http://www.w3.org/2000/svg" viewBox="0 -1000 1000 1000">
	<path fill="#000000" d="M840 -651C833 -684 818 -697 753 -704C714 -708 712 -701 743 -672C778 -642 794 -628 809 -621C839 -607 846 -622 840 -651ZM546 -350C536 -353 511 -352 483 -341C475 -338 458 -333 437 -329L440 -612C538 -631 541 -643 511 -656C500 -661 489 -662 441 -650C443 -672 447 -700 450 -708C460 -736 459 -741 414 -762C373 -780 367 -774 389 -726C393 -714 398 -669 399 -639C368 -631 323 -619 281 -610C281 -627 282 -641 282 -647C285 -678 282 -681 257 -696C218 -718 205 -710 221 -683C229 -669 238 -630 241 -601C212 -594 189 -589 179 -588C143 -584 133 -572 166 -566C179 -564 202 -565 243 -572L244 -293C171 -281 105 -273 83 -273C27 -273 20 -263 52 -242C81 -224 85 -224 123 -236C131 -238 143 -242 160 -246C177 -235 184 -208 187 -170C191 -128 183 -94 175 -85C162 -72 163 -61 175 -40C187 -21 199 -23 220 -37C248 -58 349 -84 477 -89C547 -92 542 -110 512 -126C489 -137 475 -142 412 -129C341 -115 293 -102 224 -87C222 -105 220 -183 222 -199C225 -224 221 -237 185 -252C282 -274 454 -309 504 -314C586 -322 582 -341 546 -350ZM919 7C915 -6 908 -98 908 -140C908 -172 899 -172 890 -132C869 -40 860 -40 811 -93C779 -128 735 -195 711 -256C744 -288 776 -327 799 -370C805 -380 819 -399 829 -411C843 -428 840 -433 809 -453C767 -479 762 -478 761 -439C760 -404 737 -350 696 -297C682 -342 669 -403 659 -490C682 -499 705 -509 729 -518C759 -531 780 -540 790 -544C816 -553 800 -569 770 -574C749 -577 731 -572 686 -547C679 -542 668 -537 655 -531C642 -660 646 -725 655 -749C665 -777 662 -783 608 -806C562 -825 550 -814 571 -784C584 -766 588 -742 599 -638C604 -590 609 -549 614 -512C576 -495 535 -479 514 -473C482 -465 482 -456 509 -450C527 -446 568 -457 619 -475C633 -373 645 -314 664 -260C626 -220 601 -200 558 -170C531 -151 533 -143 562 -153C590 -163 634 -188 678 -225C726 -107 793 -21 851 22C903 62 929 40 919 7ZM501 -212C498 -236 485 -253 423 -263C393 -268 392 -263 410 -245C419 -236 459 -199 464 -195C501 -168 504 -188 501 -212ZM338 -218C353 -231 353 -236 328 -249C306 -260 299 -257 296 -236C294 -221 280 -187 251 -152C239 -136 243 -131 257 -141C279 -155 309 -181 314 -189C318 -195 333 -214 338 -218ZM399 -605L394 -320C361 -314 322 -307 283 -300L282 -383C307 -382 347 -390 367 -399C388 -409 382 -430 350 -424C340 -422 313 -413 282 -403L281 -489C305 -486 340 -490 361 -499C383 -507 376 -530 344 -524C338 -522 311 -515 281 -505V-580C313 -587 361 -597 399 -605Z"/>
</svg>