<svg xmlns="http://www.w3.org/2000/svg" viewBox="0 -1000 1000 1000">
	<path fill="#000000" d="M452 -640C449 -658 430 -672 405 -671C382 -670 382 -663 389 -651C395 -641 417 -624 429 -621C450 -615 456 -623 452 -640ZM816 -630C800 -661 767 -673 726 -664C694 -658 696 -651 717 -632C746 -612 770 -601 788 -597C819 -591 829 -609 816 -630ZM547 -709C559 -723 558 -732 524 -755C497 -771 488 -770 476 -760C459 -751 439 -741 416 -736C390 -732 391 -719 410 -715C423 -711 440 -711 477 -720C485 -723 489 -721 490 -708C491 -689 487 -598 482 -571C478 -540 477 -528 478 -521C485 -488 494 -489 506 -509C521 -536 526 -572 537 -669C538 -685 544 -705 547 -709ZM341 -693C353 -713 352 -718 322 -733C295 -748 291 -747 272 -733C256 -721 234 -717 210 -714C171 -711 168 -701 198 -687C210 -683 223 -682 273 -693C283 -695 289 -689 290 -680C290 -658 289 -613 287 -592C275 -513 288 -499 309 -522C322 -538 328 -602 328 -626C328 -644 336 -686 341 -693ZM242 -610C233 -632 223 -639 194 -642C171 -644 170 -633 179 -621C185 -615 209 -591 218 -588C241 -580 248 -588 242 -610ZM465 -580C480 -591 476 -601 451 -591C438 -584 396 -570 385 -567C358 -562 353 -554 379 -533C397 -520 405 -520 418 -538C420 -541 454 -572 465 -580ZM260 -539C281 -553 271 -561 246 -552C213 -539 182 -530 163 -529C140 -527 135 -522 160 -495C177 -479 184 -480 197 -492C208 -500 249 -531 260 -539ZM925 -142C929 -176 921 -173 905 -142C871 -63 863 -58 838 -79C793 -115 748 -181 722 -240C738 -257 756 -275 773 -296C779 -303 799 -323 807 -330C831 -352 830 -361 811 -380C777 -416 763 -415 763 -372C763 -365 732 -310 705 -281C692 -322 681 -369 673 -419C723 -440 795 -474 803 -478C840 -498 834 -513 803 -513C784 -513 747 -502 714 -483C698 -474 685 -466 669 -458C664 -501 661 -551 661 -602C661 -660 664 -692 673 -724C680 -753 674 -768 636 -785C587 -807 576 -799 595 -760C604 -743 610 -688 616 -583C618 -528 623 -483 629 -443C609 -432 594 -429 575 -423C542 -413 547 -398 575 -397C588 -396 617 -401 633 -406C644 -345 654 -294 671 -251C615 -201 586 -180 511 -144C475 -126 477 -115 513 -123C578 -137 631 -163 687 -208C729 -109 763 -55 850 16C891 48 914 43 913 9C911 -43 913 -66 925 -142ZM536 -405C526 -436 489 -456 366 -472C374 -480 370 -486 348 -500C332 -512 315 -510 307 -489C302 -476 265 -424 223 -380C173 -329 109 -277 89 -264C58 -243 65 -236 96 -245C148 -263 254 -339 315 -418C328 -435 341 -452 351 -462C370 -461 392 -446 465 -403C529 -366 543 -381 536 -405ZM401 -360C424 -372 421 -381 401 -393C365 -415 358 -405 357 -385C357 -379 308 -326 299 -317C278 -295 250 -274 237 -263C208 -240 211 -239 241 -245C259 -249 337 -298 356 -318C365 -326 397 -358 401 -360ZM421 -267C438 -276 438 -289 420 -303C397 -318 391 -317 383 -291C379 -283 362 -265 322 -227C301 -207 261 -177 247 -169C217 -152 225 -144 249 -148C286 -156 357 -204 390 -238C404 -251 416 -264 421 -267ZM453 -161C474 -170 475 -180 452 -202C429 -228 413 -222 405 -190C403 -181 375 -146 347 -120C288 -66 236 -30 198 -13C168 1 172 11 201 5C263 -5 377 -77 413 -119C430 -140 444 -156 453 -161Z"/>
</svg>