<svg xmlns="http://www.w3.org/2000/svg" viewBox="0 -1000 1000 1000">
	<path fill="#000000" d="M441 -411C435 -417 426 -417 348 -371C347 -414 347 -454 348 -490C396 -503 410 -510 432 -522C452 -533 451 -547 430 -553C410 -559 396 -558 349 -545C352 -625 360 -681 369 -708C383 -749 380 -754 330 -776C271 -802 266 -783 286 -752C302 -726 310 -681 312 -532C261 -518 233 -511 181 -502C139 -495 136 -485 159 -474C200 -453 272 -468 312 -479C313 -436 312 -391 310 -348C225 -297 111 -244 94 -242C57 -238 42 -218 85 -191C119 -169 127 -167 151 -190C175 -212 246 -264 309 -305C307 -227 302 -156 297 -101C294 -72 285 -68 236 -81C214 -87 214 -78 222 -69C249 -40 272 -6 286 20C296 38 312 37 320 23C343 -16 351 -71 351 -120C351 -151 350 -262 348 -330C445 -392 448 -404 441 -411ZM897 -264C918 -287 918 -297 854 -327C810 -349 800 -349 782 -339C756 -324 644 -303 581 -296L573 -299C596 -330 616 -363 634 -397C664 -451 675 -469 683 -478C697 -496 699 -509 667 -533C737 -550 785 -561 808 -566C889 -582 894 -600 869 -618C839 -640 807 -632 766 -617C724 -602 570 -561 529 -557C473 -551 475 -534 516 -522C536 -516 578 -517 619 -523C621 -493 609 -460 559 -368C514 -287 435 -195 388 -152C356 -122 365 -110 398 -133C450 -168 495 -207 532 -250C538 -218 544 -172 549 -114C555 -52 563 -42 579 -44C590 -46 595 -61 596 -83C707 -90 802 -99 827 -102C873 -107 869 -121 843 -137C828 -146 829 -150 865 -216C876 -237 889 -255 897 -264ZM795 -225C789 -171 775 -146 742 -138C722 -133 689 -127 595 -114C593 -175 591 -227 588 -269C645 -278 762 -291 776 -289C799 -286 801 -278 795 -225Z"/>
</svg>