<svg xmlns="http://www.w3.org/2000/svg" viewBox="0 -1000 1000 1000">
	<path fill="#000000" d="M709 -697C708 -745 674 -769 601 -772C568 -773 558 -766 576 -744C596 -719 632 -686 653 -672C683 -653 710 -660 709 -697ZM902 -633C863 -652 834 -655 781 -637C720 -616 505 -575 451 -574C416 -573 409 -560 430 -543C446 -529 474 -526 536 -542C678 -575 798 -591 846 -587C932 -580 946 -613 902 -633ZM391 -424C383 -432 374 -429 314 -390C316 -442 317 -485 319 -522C352 -530 376 -538 387 -543C398 -548 399 -569 380 -574C366 -578 343 -579 322 -577C328 -682 334 -719 344 -741C361 -777 359 -788 311 -809C255 -834 239 -817 260 -792C274 -774 284 -730 281 -568C228 -553 158 -537 107 -526C86 -522 86 -513 111 -503C131 -495 172 -490 203 -497C232 -503 258 -508 280 -513C279 -464 276 -411 274 -362C131 -268 87 -244 61 -239C8 -228 5 -207 44 -184C80 -164 93 -162 118 -188C139 -210 211 -271 271 -317C267 -240 261 -172 257 -137C252 -100 243 -96 192 -115C169 -124 165 -111 177 -99C196 -80 225 -37 238 -6C246 12 263 16 275 0C305 -41 315 -92 313 -147C312 -176 312 -281 313 -349C392 -407 398 -417 391 -424ZM814 -425C829 -436 833 -448 784 -481C738 -511 728 -512 694 -494C670 -480 563 -455 511 -449C457 -462 447 -450 469 -427C481 -414 502 -369 520 -302C528 -271 552 -265 560 -289C573 -292 594 -295 614 -298C621 -279 629 -248 630 -230C632 -191 632 -139 628 -104C623 -54 613 -52 553 -66C532 -71 529 -61 541 -51C555 -39 583 -7 599 17C617 44 629 45 649 24C676 -3 686 -53 681 -105C674 -179 673 -236 675 -249C678 -271 676 -279 640 -303C687 -309 733 -315 747 -316C774 -317 775 -326 759 -347C754 -353 757 -371 774 -391C783 -403 810 -422 814 -425ZM898 -139C891 -173 831 -217 764 -229C736 -235 730 -229 744 -210C780 -164 819 -116 849 -85C883 -50 911 -76 898 -139ZM491 -213C484 -241 471 -238 466 -224C460 -208 436 -174 426 -160C403 -126 398 -109 401 -81C404 -53 425 -51 445 -69C459 -81 476 -106 486 -136C493 -156 496 -194 491 -213ZM723 -435C718 -374 709 -352 701 -348C683 -340 617 -324 560 -316C552 -357 543 -398 535 -426C601 -437 659 -449 686 -455C718 -462 725 -455 723 -435Z"/>
</svg>