<svg xmlns="http://www.w3.org/2000/svg" viewBox="0 -1000 1000 1000">
	<path fill="#000000" d="M810 -670C775 -688 752 -683 708 -670C560 -625 530 -621 512 -625C551 -687 578 -723 586 -732C601 -749 604 -762 563 -787C518 -814 502 -804 509 -769C515 -738 463 -612 377 -507C357 -483 369 -476 391 -492C429 -518 464 -554 499 -604C546 -591 593 -593 660 -603C702 -610 770 -625 799 -634C833 -646 830 -660 810 -670ZM344 -703C358 -717 356 -729 316 -758C269 -791 255 -778 263 -756C270 -735 246 -673 200 -592C125 -465 93 -422 28 -351C12 -332 20 -319 38 -330C94 -362 140 -407 212 -510C220 -483 221 -459 219 -353C217 -234 203 -148 194 -125C178 -87 184 -37 201 -1C212 22 226 25 237 4C244 -8 258 -85 259 -113C259 -163 267 -422 272 -453C278 -484 273 -496 229 -537C250 -567 274 -602 299 -643C319 -675 335 -693 344 -703ZM952 -368C917 -392 889 -394 774 -377C777 -429 787 -471 795 -479C811 -495 807 -507 767 -532C733 -554 718 -552 697 -544C653 -526 557 -501 504 -501C459 -517 452 -504 464 -487C478 -464 471 -389 453 -330C381 -321 325 -315 308 -315C276 -316 281 -300 298 -290C326 -273 330 -272 369 -281C393 -287 412 -291 442 -296C425 -249 411 -223 389 -198C365 -170 364 -167 368 -143C372 -119 383 -102 410 -129C420 -140 441 -153 499 -153C593 -153 649 -148 704 -139C683 -11 666 -7 586 -44C570 -51 564 -40 575 -27C594 -5 627 42 635 58C646 81 660 82 681 63C710 38 741 2 759 -128C791 -121 811 -115 835 -106C871 -93 893 -112 877 -136C866 -153 835 -169 764 -177C770 -236 772 -281 773 -329C837 -330 876 -327 904 -324C982 -314 980 -350 952 -368ZM725 -477C726 -447 725 -408 724 -369C648 -358 567 -346 495 -336C506 -379 512 -425 517 -479C540 -475 558 -478 598 -489C629 -498 664 -504 686 -504C715 -504 724 -499 725 -477ZM722 -327C719 -274 715 -220 710 -181C630 -186 506 -187 435 -185C458 -226 475 -265 486 -304C568 -316 644 -324 722 -327ZM633 -393C639 -415 636 -435 593 -452C575 -459 572 -453 574 -439C576 -424 585 -397 595 -382C607 -364 626 -366 633 -393ZM623 -229C631 -253 626 -267 586 -292C572 -301 563 -291 565 -277C569 -245 573 -229 583 -214C595 -196 614 -203 623 -229Z"/>
</svg>