<svg xmlns="http://www.w3.org/2000/svg" viewBox="0 -1000 1000 1000">
	<path fill="#000000" d="M630 -515C620 -521 600 -520 549 -505L567 -598C599 -607 622 -616 627 -618C642 -626 639 -643 623 -647C610 -650 595 -648 575 -642C584 -680 591 -707 596 -714C616 -740 608 -764 564 -781C531 -792 524 -781 533 -752C538 -734 539 -670 536 -627C512 -619 480 -608 449 -599C449 -617 449 -628 451 -637C456 -657 450 -677 415 -688C385 -698 384 -680 396 -663C406 -651 412 -623 415 -588C399 -582 386 -579 382 -578C353 -573 355 -555 385 -551C392 -550 397 -550 417 -555L420 -468C377 -457 348 -450 324 -445C301 -441 301 -427 328 -420C351 -414 366 -416 385 -423C414 -436 573 -476 618 -486C639 -490 641 -508 630 -515ZM964 -47C989 -50 990 -65 964 -74C862 -110 827 -132 754 -213C768 -247 784 -307 788 -358C790 -377 795 -411 798 -421C806 -442 804 -448 755 -483C825 -502 869 -516 877 -520C909 -537 904 -553 882 -559C861 -565 825 -559 795 -541C755 -516 721 -502 696 -499C715 -537 737 -587 764 -652C769 -665 784 -701 791 -714C800 -728 801 -742 792 -752C776 -771 764 -779 744 -785C722 -793 715 -782 724 -764C741 -728 708 -589 629 -429C619 -407 623 -400 639 -413C651 -423 666 -444 685 -478C696 -472 705 -472 730 -477C745 -404 742 -321 723 -253C711 -270 700 -290 689 -310C665 -357 649 -375 625 -382C602 -389 599 -381 616 -363C635 -344 645 -327 679 -266C690 -247 699 -228 709 -212C685 -157 652 -123 599 -82C586 -72 587 -55 602 -60C667 -82 700 -114 732 -173C751 -136 771 -104 799 -69C822 -40 834 -34 964 -47ZM331 -514C347 -522 347 -543 330 -548C323 -550 298 -547 272 -540C277 -653 282 -698 287 -712C301 -755 300 -765 252 -786C191 -813 184 -789 210 -759C225 -741 231 -698 230 -527C186 -514 166 -508 117 -496C98 -492 95 -484 115 -470C136 -456 180 -463 230 -477C229 -422 229 -381 228 -346C115 -257 90 -239 73 -237C37 -231 26 -213 63 -185C94 -161 102 -161 131 -200C138 -210 193 -266 227 -300C226 -225 224 -190 221 -128C218 -71 214 -68 153 -86C135 -92 129 -79 140 -68C171 -37 192 -11 207 16C216 32 230 33 239 19C258 -12 273 -62 271 -120C270 -152 264 -284 263 -332C323 -388 325 -391 320 -396C314 -403 304 -403 264 -373C266 -417 267 -456 269 -490C302 -500 316 -505 331 -514ZM581 -93C579 -134 577 -156 573 -237C569 -317 571 -330 579 -351C589 -375 587 -382 558 -401C538 -415 518 -413 505 -401C485 -384 447 -370 411 -369C405 -372 397 -374 387 -378C376 -381 369 -372 378 -349C385 -329 388 -300 384 -237C379 -163 373 -132 363 -107C355 -88 352 -66 362 -30C367 -11 383 -9 394 -41C404 -68 411 -104 415 -168C453 -167 471 -170 498 -183C510 -189 511 -209 495 -212C485 -214 456 -205 417 -189C418 -209 419 -233 419 -257C447 -255 474 -259 491 -268C516 -282 512 -305 485 -300C475 -298 449 -289 419 -277C419 -307 419 -335 418 -351C436 -352 448 -354 468 -360C480 -364 503 -368 509 -367C523 -365 526 -363 527 -341C535 -179 535 -144 531 -93C529 -66 522 -56 492 -70C473 -78 470 -66 482 -47C493 -30 508 0 520 24C528 39 545 41 555 19C571 -14 583 -62 581 -93ZM531 -587L518 -496C492 -488 471 -482 450 -476L449 -565C472 -570 501 -578 531 -587Z"/>
</svg>