<svg xmlns="http://www.w3.org/2000/svg" viewBox="0 -1000 1000 1000">
	<path fill="#000000" d="M822 -443C836 -478 828 -503 777 -519C760 -525 753 -522 759 -503C762 -490 782 -448 797 -435C804 -427 817 -430 822 -443ZM710 -690C718 -739 680 -774 592 -771C575 -770 573 -767 585 -752C616 -715 657 -680 671 -672C690 -661 707 -670 710 -690ZM309 -526C316 -618 323 -674 331 -695C342 -728 339 -742 295 -761C244 -784 222 -771 242 -749C266 -724 272 -667 268 -513C204 -493 150 -479 122 -476C106 -474 107 -458 126 -453C164 -444 207 -447 267 -463C265 -422 264 -383 263 -345C157 -265 93 -222 64 -218C36 -215 27 -198 59 -175C97 -148 108 -153 122 -169C150 -202 194 -245 262 -301C258 -215 254 -141 251 -92C249 -64 237 -55 177 -75C151 -85 146 -74 159 -63C199 -28 229 10 233 28C237 45 252 47 264 33C300 -9 302 -36 301 -98C301 -119 302 -234 304 -337C328 -360 357 -388 366 -398C383 -416 375 -429 304 -376C305 -411 306 -443 307 -473C335 -481 365 -490 383 -497C413 -509 419 -525 400 -535C384 -543 360 -542 309 -526ZM492 -551C492 -536 486 -518 457 -466C438 -431 406 -394 393 -388C376 -381 371 -372 374 -349C377 -326 385 -324 405 -333C428 -343 463 -352 488 -356C436 -292 400 -256 375 -242C358 -233 359 -223 371 -200C388 -170 393 -171 412 -186C432 -201 479 -219 514 -231C496 -155 443 -49 361 19C349 30 353 33 364 29C463 -9 508 -73 556 -216C563 -239 570 -260 575 -270C583 -285 579 -298 548 -313C526 -325 519 -318 522 -305C524 -296 523 -276 520 -255C492 -248 448 -242 423 -241C536 -366 569 -401 591 -418C606 -431 607 -436 588 -461C567 -487 559 -484 555 -466C549 -445 541 -425 509 -384C489 -382 459 -381 440 -382C495 -465 521 -490 534 -499C550 -510 553 -527 519 -554C635 -571 795 -591 815 -592C881 -595 887 -613 864 -628C840 -644 809 -646 759 -633C721 -623 508 -583 433 -580C410 -579 408 -571 428 -560C443 -552 459 -549 492 -551ZM660 -69C676 -60 695 -58 713 -60C788 -71 864 -76 921 -72C956 -70 959 -81 942 -100C920 -124 901 -123 805 -107V-175C831 -179 855 -186 877 -193C897 -199 902 -205 894 -217C888 -228 865 -228 806 -213V-269C848 -276 874 -282 890 -289C908 -295 911 -306 904 -312C892 -322 880 -322 806 -305C807 -319 809 -332 811 -341C813 -349 812 -358 810 -368C844 -375 873 -382 891 -389C920 -400 920 -411 907 -419C893 -428 875 -425 847 -417C782 -398 708 -379 687 -376C667 -373 665 -368 685 -361C705 -354 733 -354 766 -359C769 -347 769 -329 768 -297C738 -290 715 -285 702 -284C678 -282 678 -269 702 -265C720 -262 743 -262 768 -265L767 -205C735 -198 713 -194 696 -191C677 -188 675 -183 693 -176C710 -170 732 -167 767 -170L766 -102C728 -96 688 -92 661 -90C663 -131 664 -188 666 -274C668 -360 666 -383 650 -400C667 -418 682 -438 696 -457C703 -469 712 -478 720 -484C733 -493 733 -508 697 -530C667 -548 661 -545 665 -518C667 -506 664 -492 643 -457C611 -403 593 -377 564 -343C550 -329 555 -327 569 -334C588 -343 607 -358 626 -375C631 -355 632 -318 628 -245C623 -148 612 -49 603 -33C596 -22 596 1 614 48C626 76 648 71 651 40C656 5 658 -22 660 -69Z"/>
</svg>