<svg xmlns="http://www.w3.org/2000/svg" viewBox="0 -1000 1000 1000">
	<path fill="#000000" d="M962 -507C979 -510 985 -522 959 -530C820 -573 755 -600 611 -736C619 -747 626 -755 629 -759C643 -777 645 -787 608 -803C578 -817 564 -816 567 -794C570 -775 557 -740 523 -682C496 -635 444 -573 342 -484C329 -473 335 -466 348 -472C438 -507 561 -651 598 -715C669 -643 735 -574 788 -526C816 -501 827 -498 857 -498C887 -498 926 -502 962 -507ZM630 -583C630 -609 610 -617 574 -618C561 -619 553 -612 562 -602C572 -586 593 -565 604 -561C618 -556 630 -562 630 -583ZM710 -546C700 -555 669 -552 644 -544C596 -528 550 -520 488 -512C474 -510 474 -501 492 -497C515 -492 542 -494 615 -507C613 -486 607 -472 587 -450C565 -456 537 -461 506 -464C495 -465 495 -455 503 -452C521 -445 542 -437 565 -427C548 -413 529 -397 503 -376C492 -367 494 -358 507 -362C522 -366 559 -390 591 -415C616 -404 639 -393 655 -385C672 -377 684 -388 676 -406C671 -416 651 -429 620 -441C638 -456 645 -462 659 -472C667 -477 665 -489 626 -509C664 -516 689 -521 703 -525C714 -528 719 -540 710 -546ZM373 -560C388 -569 385 -583 366 -588C346 -593 327 -590 290 -578C296 -664 303 -700 310 -728C317 -755 316 -761 275 -783C226 -808 215 -793 230 -769C248 -740 252 -710 251 -567C215 -557 162 -546 113 -538C97 -534 99 -523 114 -518C150 -507 185 -505 251 -520C251 -470 250 -417 247 -369C116 -293 90 -281 66 -278C38 -274 35 -265 67 -241C100 -214 110 -215 133 -241C150 -259 180 -281 246 -328C244 -259 241 -186 237 -139C233 -90 230 -87 182 -105C171 -110 165 -103 173 -92C186 -73 211 -33 223 -5C230 10 244 10 251 -4C286 -62 288 -72 283 -231C282 -262 282 -304 283 -355C402 -440 384 -446 283 -389C284 -445 286 -491 287 -529C328 -541 353 -550 373 -560ZM856 -227C865 -238 864 -252 822 -271C789 -286 773 -288 764 -284C741 -276 716 -271 597 -256C603 -268 607 -278 611 -283C625 -306 627 -314 596 -330C628 -336 667 -341 714 -347C711 -316 733 -304 740 -317C753 -339 769 -389 779 -440C783 -461 781 -467 754 -482C724 -501 717 -488 721 -475C727 -454 729 -418 719 -370C638 -358 554 -347 467 -335C476 -410 473 -427 439 -442C417 -450 408 -442 421 -421C439 -394 436 -354 418 -334C410 -324 409 -316 418 -305C431 -288 442 -288 453 -295C468 -305 486 -312 568 -325C573 -301 571 -279 563 -252C517 -247 443 -241 398 -237C371 -249 365 -240 374 -216C386 -181 392 -136 391 -69C390 -35 391 -26 399 -13C408 4 420 0 425 -11C432 -28 435 -44 431 -105C428 -159 426 -187 417 -213C468 -218 513 -224 553 -228C531 -169 527 -165 500 -150C492 -147 489 -137 498 -120C509 -100 519 -98 533 -107C553 -119 582 -134 649 -156C655 -144 663 -133 669 -121C679 -106 698 -108 702 -140C707 -170 689 -190 650 -205C636 -211 632 -205 635 -194C636 -187 639 -181 641 -175C611 -166 579 -159 550 -154C564 -180 577 -209 587 -233C660 -241 713 -247 747 -248C779 -250 790 -238 788 -196C786 -169 778 -114 770 -79C767 -62 760 -55 709 -61C697 -63 696 -56 705 -45C723 -22 740 2 750 19C755 28 767 31 776 23C813 -11 831 -50 834 -134C837 -191 839 -209 856 -227Z"/>
</svg>