<svg xmlns="http://www.w3.org/2000/svg" viewBox="0 -1000 1000 1000">
	<path fill="#000000" d="M293 -579C296 -670 301 -693 310 -713C324 -740 320 -757 273 -777C218 -800 204 -785 230 -753C246 -733 252 -698 251 -564C210 -550 168 -542 124 -537C102 -534 101 -522 119 -516C156 -504 169 -503 251 -519C250 -457 249 -407 247 -364C134 -300 109 -291 77 -285C40 -280 40 -269 79 -240C111 -216 122 -219 147 -245C162 -262 182 -277 246 -319C244 -241 240 -181 235 -111C234 -92 225 -86 167 -101C150 -105 146 -97 156 -87C188 -55 214 -24 226 6C231 18 245 20 256 5C283 -32 293 -61 289 -128C288 -149 288 -214 290 -349C408 -429 409 -455 290 -388C290 -444 291 -490 292 -527C326 -536 345 -543 367 -553C387 -562 388 -575 362 -583C345 -588 323 -588 293 -579ZM485 -489C488 -498 491 -507 494 -519C535 -531 569 -543 585 -551C601 -559 598 -570 584 -575C572 -579 559 -579 534 -570C523 -566 511 -561 502 -558C505 -574 507 -591 509 -612C553 -621 567 -628 582 -640C592 -647 587 -659 565 -660C556 -661 536 -657 512 -651C518 -706 520 -718 526 -727C537 -748 532 -760 492 -775C447 -790 437 -780 458 -754C467 -742 474 -701 470 -639C454 -635 431 -629 415 -626C395 -622 395 -611 417 -607C438 -603 452 -602 467 -604C464 -581 461 -560 456 -542C422 -531 401 -525 377 -521C356 -517 355 -510 378 -503C392 -499 404 -499 444 -507C426 -458 399 -418 349 -376C329 -361 341 -350 361 -361C415 -389 432 -405 477 -477C491 -455 502 -439 511 -425C524 -407 540 -411 539 -437C538 -457 530 -475 485 -489ZM570 -373C571 -363 571 -353 571 -344C507 -333 486 -330 461 -328C418 -341 400 -333 413 -315C423 -304 438 -270 460 -212C465 -198 471 -192 486 -183C489 -181 493 -183 496 -189C516 -194 543 -198 573 -202C572 -182 572 -167 572 -155C427 -134 389 -130 352 -129C328 -128 325 -119 354 -103C376 -91 391 -90 411 -96C460 -109 518 -119 570 -125C567 -47 569 28 575 60C579 83 588 83 596 62C605 34 612 -14 614 -130C724 -141 780 -140 844 -133C885 -129 887 -147 857 -171C837 -188 822 -190 781 -184C765 -182 708 -174 614 -161C614 -173 614 -190 614 -207C664 -213 683 -214 691 -210C703 -202 712 -201 722 -213C735 -229 740 -237 747 -253C767 -298 772 -308 779 -314C796 -328 795 -338 751 -362C727 -375 716 -375 691 -367C684 -365 666 -361 614 -351C613 -362 613 -371 613 -380C653 -386 674 -393 697 -401C730 -414 730 -425 714 -431C705 -434 682 -435 672 -430C662 -424 646 -419 615 -412C616 -420 618 -430 623 -443C624 -445 624 -447 624 -449C653 -475 676 -504 693 -541C695 -541 698 -542 698 -542C736 -497 764 -465 795 -431C828 -395 837 -393 939 -407C963 -410 963 -423 938 -431C850 -453 820 -472 731 -547C766 -554 797 -565 829 -579C841 -585 840 -595 821 -602C808 -607 784 -605 768 -599C747 -590 727 -584 706 -578C712 -599 716 -621 718 -646C755 -653 789 -662 806 -671C819 -677 814 -694 802 -696C776 -702 768 -701 721 -685C725 -730 727 -748 736 -761C747 -780 745 -792 703 -811C661 -829 647 -814 668 -788C680 -773 681 -752 678 -672C663 -668 643 -663 626 -659C603 -654 602 -648 624 -643C638 -640 654 -638 677 -640C676 -612 672 -588 665 -567C641 -561 621 -557 603 -554C590 -552 589 -539 606 -536C621 -533 630 -533 654 -536C643 -511 629 -490 610 -469C550 -489 538 -480 556 -457C563 -448 567 -432 569 -403C549 -399 526 -394 497 -388C467 -383 466 -374 487 -368C499 -364 520 -365 570 -373ZM615 -297C615 -306 614 -316 614 -327C644 -332 680 -335 694 -334C713 -334 717 -332 715 -316C713 -297 708 -276 703 -259C698 -240 696 -238 687 -240C681 -242 670 -241 614 -232C615 -242 615 -253 615 -264C638 -269 654 -274 667 -278C682 -283 683 -294 668 -300C658 -304 650 -305 615 -297ZM573 -257C573 -245 573 -234 573 -225C551 -222 526 -217 496 -212C490 -253 484 -282 478 -303C503 -305 524 -308 571 -319C572 -307 572 -296 572 -285C550 -280 532 -277 518 -275C505 -274 506 -270 523 -260C531 -255 545 -252 573 -257Z"/>
</svg>