<svg xmlns="http://www.w3.org/2000/svg" viewBox="0 -1000 1000 1000">
	<path fill="#000000" d="M967 -25C990 -27 995 -44 965 -53C833 -92 766 -122 690 -205C703 -234 712 -268 718 -307C722 -337 731 -367 740 -386C749 -405 745 -418 708 -443C780 -456 841 -475 865 -484C893 -495 894 -510 863 -523C835 -534 815 -533 766 -509C722 -488 647 -469 604 -462C638 -509 675 -571 701 -625C708 -640 735 -686 749 -702C761 -714 761 -729 750 -740C739 -751 711 -771 697 -777C676 -787 659 -773 668 -754C682 -725 656 -612 522 -400C509 -380 513 -369 539 -388C553 -398 572 -417 591 -444C614 -433 637 -430 671 -436C679 -388 674 -301 655 -246C633 -273 611 -304 585 -342C571 -363 554 -369 540 -367C527 -365 523 -355 535 -346C550 -335 577 -300 592 -274C605 -251 620 -226 635 -203C600 -149 534 -112 460 -84C438 -76 442 -64 464 -65C535 -68 612 -98 664 -163C697 -117 731 -75 762 -43C790 -12 809 -10 967 -25ZM567 -493C549 -512 537 -515 468 -502C519 -564 541 -589 554 -599C567 -608 570 -621 543 -644C511 -671 502 -665 500 -642C498 -618 472 -569 410 -491C396 -489 381 -486 365 -484L373 -570C411 -577 430 -583 445 -591C473 -606 464 -618 447 -622C429 -627 414 -627 378 -618C382 -661 391 -723 397 -740C403 -757 402 -770 357 -785C303 -803 298 -787 312 -768C330 -744 335 -718 331 -607C295 -599 259 -592 232 -590C208 -588 210 -577 234 -567C251 -561 284 -557 330 -563L326 -478C239 -467 140 -457 99 -458C67 -458 66 -450 91 -430C115 -412 135 -403 168 -413C208 -425 327 -452 386 -460C356 -422 325 -390 295 -360C285 -359 275 -357 265 -356C239 -352 235 -344 262 -328C194 -266 121 -214 33 -160C13 -148 15 -130 44 -140C133 -167 223 -238 310 -325C341 -338 379 -349 409 -358C421 -361 423 -357 418 -350C404 -330 386 -309 361 -284C356 -288 350 -291 344 -293C324 -299 314 -281 337 -268C346 -262 355 -243 359 -215C257 -172 209 -158 178 -158C150 -158 145 -148 170 -124C196 -99 214 -102 237 -117C255 -128 295 -150 362 -182C364 -146 361 -104 351 -71C344 -46 318 -35 273 -38C249 -40 251 -31 267 -19C292 0 314 25 322 40C331 56 340 60 371 20C409 -32 415 -127 400 -200C417 -208 435 -216 454 -225C481 -238 496 -248 490 -255C484 -262 472 -264 392 -230C387 -247 380 -261 372 -272C424 -312 447 -328 470 -337C499 -347 502 -354 475 -381C457 -399 444 -400 427 -392C410 -384 385 -377 353 -371C382 -401 410 -433 437 -466C470 -469 498 -471 514 -472C570 -475 572 -487 567 -493Z"/>
</svg>