<svg xmlns="http://www.w3.org/2000/svg" viewBox="0 -1000 1000 1000">
	<path fill="#000000" d="M539 -619C566 -638 565 -656 518 -677C481 -693 475 -688 475 -654C475 -641 453 -600 401 -551C385 -536 391 -521 409 -531C440 -550 471 -569 496 -588C509 -599 528 -612 539 -619ZM247 -523C259 -554 249 -595 189 -613C158 -622 153 -615 168 -584C181 -556 196 -527 206 -517C225 -500 239 -500 247 -523ZM972 -33C1006 -36 1002 -51 966 -62C836 -103 777 -127 716 -190C729 -218 741 -267 749 -318C755 -353 760 -374 770 -398C778 -418 775 -428 732 -456C807 -471 861 -487 882 -497C916 -512 913 -525 879 -536C855 -543 813 -538 785 -525C751 -509 681 -488 635 -479C650 -508 667 -542 683 -581C691 -600 721 -666 729 -680C741 -699 741 -710 728 -723C719 -733 696 -750 676 -760C650 -771 634 -757 650 -734C671 -707 631 -543 538 -379C512 -332 516 -327 536 -342C541 -346 548 -351 554 -358C568 -345 582 -327 595 -304C619 -265 642 -226 666 -191C639 -144 590 -101 521 -58C502 -47 510 -36 527 -41C590 -60 643 -88 692 -153C719 -115 744 -82 770 -54C793 -27 805 -22 855 -24C882 -25 921 -28 972 -33ZM510 -391C521 -419 520 -424 479 -446C439 -465 434 -464 409 -449C403 -445 388 -439 349 -429C357 -590 366 -694 370 -704C391 -753 389 -766 324 -788C278 -803 271 -792 298 -750C315 -723 319 -619 305 -419C259 -409 226 -404 177 -398C132 -430 122 -416 142 -379C160 -347 149 -164 130 -123C121 -105 119 -71 123 -54C133 -10 151 -5 168 -50C177 -75 181 -111 184 -149C191 -237 194 -302 191 -373C234 -379 284 -388 389 -405C447 -415 454 -412 458 -328C460 -274 460 -209 458 -154C456 -88 446 -80 392 -91C357 -99 353 -91 379 -68C390 -58 405 -38 419 -10C435 21 445 23 471 -10C506 -58 511 -93 508 -165C502 -307 503 -372 510 -391ZM407 -270C423 -290 421 -299 386 -316C367 -325 356 -325 339 -317C323 -310 303 -301 250 -297C213 -310 214 -297 229 -276C235 -268 243 -224 248 -170C250 -154 257 -147 266 -147C270 -147 274 -154 275 -165C305 -173 326 -176 361 -181C392 -184 394 -191 388 -206C384 -215 384 -224 386 -231C390 -246 402 -265 407 -270ZM693 -449C711 -395 708 -310 682 -228C662 -255 639 -286 614 -322C605 -337 590 -353 567 -372C583 -391 600 -417 619 -450C637 -447 665 -446 693 -449ZM351 -246C347 -214 345 -210 327 -205C318 -201 300 -196 276 -193C277 -223 276 -249 273 -277C285 -279 298 -281 316 -284C350 -288 357 -284 351 -246Z"/>
</svg>