<svg xmlns="http://www.w3.org/2000/svg" viewBox="0 -1000 1000 1000">
	<path fill="#000000" d="M787 -550C777 -569 764 -613 757 -659C753 -688 745 -686 740 -654C726 -562 718 -546 671 -528C607 -506 509 -487 383 -495C333 -498 305 -510 297 -537C294 -548 291 -569 289 -589C382 -600 470 -630 553 -665C586 -678 629 -693 671 -704C692 -710 690 -726 645 -758C613 -780 599 -776 592 -760C587 -749 574 -736 547 -720C476 -676 418 -644 289 -609C288 -652 293 -695 298 -705C311 -730 301 -747 243 -760C210 -768 203 -756 220 -734C233 -718 238 -694 239 -667C243 -555 248 -523 260 -504C277 -474 312 -454 388 -447C502 -437 663 -456 748 -483C796 -498 802 -520 787 -550ZM725 -313C736 -339 735 -347 721 -357C707 -367 674 -385 663 -389C642 -396 619 -396 604 -388C573 -372 416 -345 314 -344C254 -374 243 -364 263 -334C280 -305 291 -129 286 -58C283 -16 300 16 317 16C325 16 336 -2 339 -43C394 -33 432 -34 481 -41C568 -53 583 -49 595 -18C635 79 647 84 675 35C692 3 698 -45 698 -92C698 -234 713 -287 725 -313ZM636 -304C642 -253 634 -141 627 -94C621 -54 610 -51 588 -73C570 -91 551 -92 513 -84C440 -70 404 -66 339 -65C340 -93 339 -137 336 -184C387 -176 454 -181 557 -200C591 -206 595 -233 554 -241C534 -245 450 -230 335 -204C334 -241 332 -278 329 -310C399 -322 526 -341 563 -344C617 -348 632 -338 636 -304Z"/>
</svg>