<svg xmlns="http://www.w3.org/2000/svg" viewBox="0 -1000 1000 1000">
	<path fill="#000000" d="M674 -759C655 -774 639 -786 617 -797C593 -809 578 -808 562 -796C536 -780 454 -760 374 -753C308 -777 299 -759 320 -732C351 -695 360 -605 358 -510C357 -467 370 -450 384 -450C390 -450 399 -459 403 -473C451 -474 479 -479 507 -486C533 -493 542 -490 547 -457C553 -415 574 -410 596 -441C615 -467 625 -496 636 -625C640 -674 647 -702 668 -720C686 -735 686 -747 674 -759ZM817 -318C849 -342 844 -353 780 -393C748 -413 744 -413 711 -401C652 -382 413 -354 356 -358C380 -377 393 -386 399 -389C420 -397 423 -412 391 -432C363 -451 352 -448 347 -428C342 -413 326 -391 283 -359C241 -328 196 -299 170 -284C150 -271 154 -263 186 -270C212 -276 275 -300 337 -345C352 -339 375 -335 396 -334C389 -316 369 -289 317 -241C285 -210 242 -182 210 -166C191 -157 199 -145 224 -152C255 -159 335 -194 379 -238C423 -282 429 -287 435 -291C451 -300 452 -309 433 -336C474 -341 511 -345 546 -349C544 -328 529 -295 499 -255C443 -180 332 -69 222 -16C197 -4 199 9 229 2C343 -25 448 -112 538 -216C583 -269 599 -284 607 -290C631 -310 627 -319 587 -353C608 -354 645 -357 664 -358C721 -362 742 -349 737 -294C730 -221 700 -136 679 -100C628 -18 611 -15 534 -55C502 -71 493 -61 511 -42C520 -32 551 28 558 48C567 78 576 82 617 60C656 39 706 -8 736 -69C764 -126 784 -199 790 -241C796 -281 809 -312 817 -318ZM574 -692C574 -644 572 -590 566 -543C560 -497 555 -496 540 -514C531 -526 518 -525 466 -510C449 -505 429 -501 405 -499C405 -529 404 -566 404 -603C440 -599 469 -601 515 -615C551 -626 545 -645 524 -653C510 -659 497 -656 403 -624C401 -658 399 -693 396 -727C454 -735 489 -742 520 -747C563 -754 574 -751 574 -692Z"/>
</svg>