<svg xmlns="http://www.w3.org/2000/svg" viewBox="0 -1000 1000 1000">
	<path fill="#000000" d="M751 -697C765 -708 765 -720 747 -734C731 -748 697 -768 676 -777C652 -787 642 -784 616 -776C579 -764 409 -733 322 -727C258 -744 250 -732 264 -718C292 -689 312 -611 317 -567C321 -536 329 -507 339 -492C351 -473 366 -472 373 -488C591 -517 596 -515 603 -501C611 -484 626 -481 639 -501C651 -521 677 -575 696 -618C714 -660 722 -671 751 -697ZM457 -252C483 -267 479 -282 451 -273C420 -263 320 -222 262 -195C262 -275 261 -314 259 -342C368 -372 387 -375 412 -378C452 -383 462 -397 420 -428C388 -453 375 -450 366 -430C359 -414 312 -388 250 -366C180 -409 165 -400 184 -370C204 -337 210 -301 210 -269C210 -199 207 -188 191 -171C177 -156 174 -147 177 -125C184 -74 200 -73 224 -102C243 -125 405 -224 457 -252ZM856 -377C868 -391 864 -403 803 -435C766 -453 758 -453 733 -443C685 -423 612 -411 561 -415C510 -426 506 -415 516 -396C523 -383 530 -347 530 -228C530 -228 529 -174 527 -112C523 -9 522 43 525 62C532 111 547 112 559 67C581 -18 585 -94 583 -386C607 -385 626 -387 662 -395C675 -398 721 -402 740 -400C761 -398 766 -395 769 -365C773 -325 767 -279 755 -241C743 -203 736 -203 662 -221C644 -225 639 -216 655 -205C673 -194 712 -154 718 -142C734 -108 749 -104 773 -133C798 -162 821 -219 829 -288C832 -316 843 -360 856 -377ZM646 -704C645 -677 622 -595 608 -556C602 -539 598 -537 581 -540C559 -544 525 -541 489 -531C464 -524 409 -515 377 -512C372 -551 368 -578 364 -601C421 -599 511 -609 564 -629C585 -637 585 -656 557 -659C537 -661 521 -658 484 -646C467 -640 404 -628 361 -623C356 -656 350 -676 342 -701C527 -730 557 -734 592 -734C641 -734 647 -729 646 -704Z"/>
</svg>