<svg xmlns="http://www.w3.org/2000/svg" viewBox="0 -1000 1000 1000">
	<path fill="#000000" d="M788 -674C810 -683 807 -702 753 -734C688 -773 677 -772 650 -763C636 -757 452 -730 317 -716C254 -732 252 -715 279 -692C297 -675 327 -604 352 -505C362 -469 370 -456 379 -456C385 -456 392 -463 394 -474C434 -481 482 -489 519 -494C576 -502 623 -502 629 -495C642 -480 653 -479 671 -502C684 -519 701 -554 706 -566C741 -642 762 -665 788 -674ZM887 -72C850 -95 816 -103 761 -98C673 -89 587 -82 522 -77L527 -187C573 -194 619 -200 658 -205C694 -210 698 -229 661 -240C642 -245 624 -246 528 -228C529 -264 531 -298 532 -327C587 -336 643 -344 686 -354C721 -362 729 -380 704 -391C688 -398 658 -397 577 -379C563 -376 548 -374 535 -371C537 -399 539 -418 541 -424C549 -449 544 -463 501 -474C461 -483 453 -472 466 -454C476 -440 482 -406 483 -360C413 -346 369 -339 315 -336C332 -352 342 -362 357 -375C371 -387 370 -399 325 -414C282 -429 270 -418 274 -399C279 -376 263 -338 162 -242C145 -226 154 -217 170 -226C230 -259 266 -284 295 -313C325 -306 358 -306 484 -321C485 -290 484 -256 483 -219C423 -208 381 -201 349 -196C323 -192 319 -181 346 -173C357 -169 387 -169 481 -181L476 -73C208 -49 155 -45 124 -47C75 -49 76 -38 104 -19C136 1 157 6 216 -6C304 -22 386 -35 494 -41C610 -47 748 -43 847 -26C926 -14 939 -38 887 -72ZM685 -685C675 -634 661 -584 641 -544C633 -527 627 -523 598 -529C587 -531 548 -526 393 -501C387 -532 381 -567 375 -594C393 -591 415 -591 448 -595C485 -599 551 -603 587 -613C614 -622 616 -635 587 -639C545 -644 493 -637 371 -607C363 -643 353 -669 345 -696C391 -698 442 -702 503 -712C542 -718 629 -724 656 -723C687 -722 691 -713 685 -685Z"/>
</svg>