<svg xmlns="http://www.w3.org/2000/svg" viewBox="0 -1000 1000 1000">
	<path fill="#000000" d="M764 -621C747 -627 724 -621 653 -599C647 -597 642 -596 632 -593C641 -616 651 -635 662 -657C670 -669 672 -682 645 -706C679 -713 717 -723 752 -738C770 -746 772 -764 753 -772C733 -780 715 -774 641 -748C622 -741 563 -726 549 -724C528 -720 529 -710 546 -704C559 -699 584 -699 614 -702C617 -673 607 -627 590 -581C571 -577 549 -571 519 -564C557 -629 554 -645 526 -660C500 -673 493 -663 504 -645C510 -633 502 -585 489 -574C462 -551 461 -544 467 -528C475 -511 481 -510 510 -530C517 -535 536 -543 578 -554C543 -470 453 -396 413 -376C375 -358 378 -349 413 -359C478 -376 511 -402 557 -458C574 -479 604 -530 619 -563C648 -568 683 -574 726 -580C786 -589 789 -614 764 -621ZM457 -706C471 -723 473 -730 454 -746C445 -753 422 -763 411 -767C398 -772 378 -770 360 -758C340 -744 267 -726 227 -725C186 -743 168 -725 185 -709C196 -698 203 -658 205 -634C216 -490 210 -431 197 -411C168 -366 166 -361 176 -338C194 -301 210 -298 236 -335C246 -350 322 -421 364 -455C373 -444 381 -435 388 -428C409 -408 425 -413 425 -446C425 -472 397 -504 348 -511C329 -514 323 -510 333 -496C340 -486 348 -476 355 -468C322 -449 279 -423 244 -403C247 -447 249 -489 248 -530C267 -531 291 -537 317 -545C329 -549 359 -550 368 -547C379 -544 386 -547 395 -561C400 -568 412 -596 426 -645C432 -666 446 -693 457 -706ZM901 -408C895 -420 892 -436 891 -484C891 -503 879 -503 876 -485C863 -412 840 -390 776 -385C704 -379 674 -390 664 -420C657 -440 660 -489 668 -504C679 -525 675 -537 652 -547C631 -555 625 -548 629 -522C630 -515 629 -436 629 -426C629 -398 642 -368 670 -354C719 -329 797 -326 864 -345C910 -358 916 -376 901 -408ZM679 -275C698 -287 701 -293 677 -314C667 -323 630 -346 611 -355C589 -366 558 -360 535 -348C497 -328 404 -309 340 -308C285 -326 277 -310 293 -293C306 -279 336 -187 349 -125C355 -95 365 -84 373 -86C379 -88 382 -92 382 -106C414 -109 451 -114 486 -121C507 -125 543 -123 551 -114C561 -101 578 -106 592 -128C602 -143 611 -163 628 -203C641 -234 659 -261 679 -275ZM791 -67C760 -87 727 -89 648 -75C607 -67 268 -26 204 -26C171 -26 168 -20 196 0C231 25 253 26 327 8C347 3 440 -12 515 -19C614 -29 690 -31 755 -20C829 -7 843 -31 791 -67ZM387 -702C384 -668 378 -639 366 -593C362 -572 358 -570 348 -575C341 -579 331 -577 248 -552C247 -572 247 -593 246 -614C275 -615 323 -626 337 -635C355 -646 353 -655 336 -658C323 -661 306 -658 245 -636C244 -659 242 -679 240 -702C257 -702 274 -705 294 -712C304 -715 354 -725 366 -726C382 -727 389 -720 387 -702ZM590 -294C588 -252 581 -222 567 -177C559 -153 549 -145 525 -148C515 -149 503 -147 380 -125C378 -157 375 -183 372 -205C417 -203 471 -210 519 -226C546 -235 544 -251 520 -255C505 -258 461 -248 370 -222C366 -252 363 -271 359 -285C394 -288 429 -295 477 -308C503 -315 526 -319 546 -322C581 -326 591 -321 590 -294Z"/>
</svg>