<svg xmlns="http://www.w3.org/2000/svg" viewBox="0 -1000 1000 1000">
	<path fill="#000000" d="M235 -474C242 -445 245 -408 246 -330C247 -222 235 -80 224 -54C213 -26 218 -4 239 34C251 53 266 51 276 35C287 17 289 4 289 -79C290 -297 292 -374 295 -398C301 -438 295 -465 256 -505C278 -540 301 -581 327 -629C345 -664 356 -680 368 -693C384 -711 384 -717 338 -748C291 -781 279 -768 289 -743C299 -715 296 -694 235 -574C185 -474 135 -404 58 -326C40 -307 44 -294 65 -307C128 -345 178 -388 235 -474ZM541 -712C535 -718 525 -722 505 -729C469 -740 462 -725 472 -709C492 -673 502 -579 494 -387C424 -377 366 -370 332 -369C306 -368 302 -362 339 -346C367 -335 379 -335 451 -350C460 -314 461 -271 454 -136C451 -76 446 -58 429 -42C409 -26 409 -11 427 15C446 45 453 46 467 26C485 0 537 -50 625 -115C649 -134 645 -145 615 -132C580 -115 555 -101 496 -66C502 -189 505 -268 507 -329C547 -295 588 -253 662 -168C685 -140 721 -103 745 -81C770 -58 781 -54 936 -69C970 -72 971 -87 931 -97C788 -132 729 -174 659 -236C705 -269 765 -307 784 -318C799 -327 801 -340 772 -360C732 -386 722 -382 722 -362C721 -336 699 -302 644 -248C569 -316 557 -327 503 -361C599 -377 774 -397 841 -400C889 -402 890 -419 857 -438C833 -451 818 -452 787 -445C704 -424 617 -408 540 -395C541 -423 542 -450 543 -475C591 -473 677 -486 713 -503C733 -512 735 -520 715 -532C703 -539 695 -538 645 -524C591 -509 565 -504 543 -500C544 -527 545 -550 545 -575C584 -569 636 -578 713 -606C732 -612 734 -627 714 -634C700 -639 678 -638 622 -620C576 -606 561 -602 546 -601C547 -629 547 -655 547 -682C599 -685 703 -707 759 -723C788 -731 791 -748 765 -758C740 -768 716 -763 664 -744C613 -725 576 -716 541 -712Z"/>
</svg>