<svg xmlns="http://www.w3.org/2000/svg" viewBox="0 -1000 1000 1000">
	<path fill="#000000" d="M831 -695C851 -705 854 -720 794 -750C757 -769 747 -760 748 -738C749 -715 709 -646 659 -602C641 -586 650 -575 669 -585C705 -604 768 -651 790 -669C799 -677 817 -688 831 -695ZM583 -607C592 -639 573 -668 501 -694C477 -703 469 -696 481 -674C499 -639 527 -595 538 -586C557 -569 573 -573 583 -607ZM388 -629C413 -661 408 -670 376 -689C336 -713 328 -711 300 -685C291 -677 253 -662 215 -662C156 -682 147 -670 165 -643C177 -624 186 -548 178 -380C171 -233 139 -107 80 -20C61 8 72 10 89 -4C156 -58 201 -189 216 -314C246 -308 274 -312 291 -325C309 -339 304 -350 278 -355C273 -356 259 -351 248 -346C240 -343 235 -341 220 -344C223 -381 226 -419 227 -458C255 -453 280 -458 296 -470C314 -484 309 -495 283 -500C278 -501 264 -496 253 -491C246 -488 241 -487 228 -489C229 -539 228 -590 225 -639C249 -636 264 -638 288 -644C309 -649 322 -643 323 -624C330 -494 329 -246 321 -159C317 -118 307 -113 260 -127C244 -132 235 -127 251 -110C267 -92 304 -47 313 -29C326 -4 335 -3 354 -33C375 -66 379 -119 375 -199C373 -238 368 -453 371 -534C373 -588 379 -617 388 -629ZM967 -62C809 -108 677 -194 611 -327C612 -332 613 -337 613 -342C681 -352 763 -362 802 -365C851 -369 860 -389 830 -409C814 -420 774 -419 731 -407C692 -397 654 -388 618 -380C620 -391 621 -402 623 -412C627 -441 626 -456 610 -471C645 -479 683 -489 722 -501C758 -512 760 -521 738 -532C719 -541 672 -541 607 -515C583 -505 506 -484 493 -482C457 -476 456 -468 492 -458C504 -455 530 -456 562 -462C569 -444 570 -408 568 -369C493 -355 434 -347 418 -346C388 -345 386 -334 417 -321C437 -312 461 -310 509 -324C517 -326 537 -330 565 -334C563 -318 560 -301 557 -286C535 -183 469 -123 402 -86C380 -74 383 -60 408 -67C529 -99 591 -181 607 -292C656 -182 684 -148 744 -81C795 -24 805 -20 962 -35C997 -38 999 -53 967 -62Z"/>
</svg>