<svg xmlns="http://www.w3.org/2000/svg" viewBox="0 -1000 1000 1000">
	<path fill="#000000" d="M468 -541C451 -544 438 -541 363 -520C371 -633 384 -712 393 -740C407 -778 404 -785 350 -800C295 -816 290 -810 312 -770C326 -745 332 -678 326 -509C259 -492 179 -477 143 -474C110 -470 108 -460 141 -448C165 -439 175 -437 307 -467C250 -349 165 -224 71 -143C43 -118 53 -110 83 -128C182 -183 272 -289 323 -397C315 -182 309 -115 296 -82C281 -43 284 -12 293 12C316 69 332 66 346 19C353 -1 359 -31 358 -110C356 -152 357 -390 360 -479C387 -485 417 -492 450 -500C488 -509 496 -533 468 -541ZM953 -521C929 -540 899 -542 854 -528C838 -524 811 -517 778 -511C780 -623 785 -675 796 -700C813 -745 805 -759 750 -780C686 -805 676 -791 703 -752C722 -723 730 -659 732 -501C642 -484 536 -467 508 -468C469 -470 470 -456 502 -444C526 -436 550 -433 586 -441C635 -451 687 -458 733 -465C733 -256 728 -159 717 -86C710 -35 706 -31 628 -54C597 -64 595 -59 615 -38C651 -3 675 34 693 68C702 87 715 88 733 68C783 11 790 -34 786 -122C784 -152 777 -372 777 -471C839 -479 889 -483 906 -481C978 -477 984 -496 953 -521ZM466 -312C460 -329 431 -354 385 -361C363 -366 362 -360 372 -346C402 -303 419 -285 437 -271C459 -257 480 -271 466 -312ZM624 -279C623 -312 610 -340 548 -362C521 -371 512 -367 528 -336C560 -278 567 -265 580 -250C600 -225 624 -238 624 -279Z"/>
</svg>