<svg xmlns="http://www.w3.org/2000/svg" viewBox="0 -1000 1000 1000">
	<path fill="#000000" d="M698 -678C690 -712 653 -728 586 -739C564 -742 558 -732 567 -719C588 -688 624 -656 659 -632C691 -610 709 -631 698 -678ZM837 -579C804 -598 786 -594 717 -574C645 -553 534 -525 439 -511C420 -508 419 -503 435 -494C465 -478 476 -478 528 -486C629 -502 703 -516 783 -536C846 -551 856 -568 837 -579ZM415 -309C398 -349 375 -358 311 -356C312 -404 313 -444 315 -478C410 -500 417 -521 391 -534C377 -543 356 -539 318 -526C326 -658 332 -720 345 -751C355 -770 351 -782 295 -807C260 -823 242 -813 255 -789C275 -748 283 -708 278 -514C215 -493 128 -474 98 -470C71 -467 71 -458 96 -447C122 -435 142 -435 252 -463C207 -340 145 -241 50 -143C33 -125 34 -117 61 -130C139 -169 230 -275 276 -394C270 -195 263 -125 246 -80C234 -46 235 -34 258 21C271 54 282 52 294 18C304 -11 312 -58 311 -142C310 -227 310 -293 311 -348C341 -310 361 -290 389 -273C414 -258 431 -272 415 -309ZM949 -85C934 -111 929 -151 922 -202C919 -225 911 -228 904 -195C881 -87 874 -65 780 -60C704 -56 676 -96 677 -128C680 -282 696 -345 731 -368C749 -380 749 -391 711 -417C689 -432 673 -435 660 -423C631 -398 590 -382 537 -385C493 -399 489 -396 497 -370C530 -268 494 -110 376 -11C352 8 359 20 390 2C503 -65 565 -184 555 -361C572 -361 588 -364 615 -371C655 -381 662 -379 658 -355C636 -217 631 -128 642 -87C660 -22 712 20 864 -7C950 -23 964 -60 949 -85Z"/>
</svg>