<svg xmlns="http://www.w3.org/2000/svg" viewBox="0 -1000 1000 1000">
	<path fill="#000000" d="M411 -533C399 -540 386 -540 310 -518C320 -634 329 -705 339 -729C350 -756 353 -768 299 -788C248 -807 230 -803 258 -763C269 -746 277 -668 277 -508C184 -481 119 -463 87 -457C54 -451 49 -442 85 -431C111 -423 126 -423 264 -458C217 -342 158 -244 57 -151C27 -124 27 -112 70 -136C159 -184 228 -275 275 -379C271 -237 259 -103 252 -84C239 -46 240 -26 248 -1C269 60 280 58 299 8C306 -11 310 -54 307 -129C304 -212 303 -285 303 -348C328 -318 355 -293 369 -283C388 -270 404 -277 399 -305C392 -340 365 -355 304 -359C304 -400 305 -437 307 -469C328 -474 351 -480 377 -487C434 -502 437 -520 411 -533ZM890 -361C912 -389 912 -400 862 -429C824 -452 816 -452 778 -437C770 -433 731 -425 638 -410C641 -449 646 -467 650 -473C667 -498 666 -503 598 -534C677 -551 742 -567 778 -578C833 -595 833 -607 798 -620C776 -628 741 -626 712 -616C655 -597 553 -569 485 -556C461 -551 460 -540 483 -531C505 -523 531 -522 575 -530C590 -499 593 -467 591 -403C551 -397 503 -391 447 -383C396 -397 391 -387 410 -353C430 -317 433 -199 422 -149C416 -121 420 -103 434 -76C450 -46 469 -46 471 -130C473 -187 470 -259 463 -357C494 -364 532 -370 590 -379C586 -310 563 -246 511 -197C488 -176 494 -165 522 -181C598 -225 628 -287 636 -386C739 -400 751 -401 781 -399C803 -398 812 -393 816 -368C824 -319 824 -221 811 -144C799 -75 787 -69 740 -84C685 -102 682 -98 718 -61C732 -47 755 -11 763 5C775 32 788 34 818 3C853 -35 870 -74 873 -154C880 -326 881 -350 890 -361ZM743 -224C738 -253 708 -276 656 -290C619 -300 610 -296 636 -268C671 -230 697 -206 709 -198C728 -185 748 -192 743 -224Z"/>
</svg>