<svg xmlns="http://www.w3.org/2000/svg" viewBox="0 -1000 1000 1000">
	<path fill="#000000" d="M711 -711C706 -757 680 -775 611 -776C590 -776 588 -767 599 -753C621 -727 646 -702 667 -687C689 -672 714 -683 711 -711ZM840 -660C831 -672 787 -678 751 -667C705 -651 622 -634 514 -619C496 -616 492 -609 513 -598C546 -582 669 -600 796 -627C843 -638 849 -650 840 -660ZM603 -475C605 -495 581 -526 539 -540C521 -546 513 -540 520 -525C530 -504 549 -473 562 -457C576 -438 599 -439 603 -475ZM432 -559C417 -566 403 -568 321 -542C325 -637 332 -693 352 -734C363 -756 359 -764 308 -789C264 -812 252 -795 271 -769C285 -749 293 -701 291 -532C212 -507 159 -497 104 -489C78 -485 80 -474 101 -469C138 -460 171 -461 276 -487C216 -356 167 -260 66 -160C49 -144 59 -139 77 -148C158 -190 239 -286 289 -400C284 -231 273 -151 263 -110C254 -75 257 -45 266 -21C285 30 298 29 311 -9C316 -25 322 -67 321 -102C317 -219 316 -312 317 -386C343 -356 377 -323 388 -319C407 -312 414 -322 410 -348C406 -370 387 -388 317 -393C318 -432 319 -467 319 -495C339 -500 360 -505 384 -511C449 -528 456 -548 432 -559ZM934 -441C899 -461 868 -459 768 -436C741 -429 713 -424 683 -418C712 -473 742 -518 761 -534C776 -550 779 -567 736 -589C698 -609 686 -600 693 -578C700 -559 692 -481 658 -414C583 -401 501 -390 439 -383C411 -381 409 -376 429 -359C441 -349 463 -348 494 -356C527 -364 569 -374 614 -381C625 -359 629 -318 631 -272C570 -259 497 -247 450 -243C426 -241 428 -228 449 -220C480 -209 493 -208 518 -215C543 -222 587 -233 631 -239C631 -179 628 -101 624 -30C622 6 622 57 626 76C631 102 641 104 651 80C668 44 680 -50 681 -121C682 -163 683 -183 680 -245C732 -251 765 -252 831 -250C879 -249 886 -267 849 -291C825 -309 806 -310 679 -282C680 -298 682 -317 684 -327C689 -352 682 -372 658 -386C809 -406 862 -409 912 -401C965 -393 969 -421 934 -441Z"/>
</svg>