<svg xmlns="http://www.w3.org/2000/svg" viewBox="0 -1000 1000 1000">
	<path fill="#000000" d="M240 -525C183 -509 127 -497 86 -490C57 -486 56 -473 80 -467C111 -458 136 -456 219 -474C171 -363 97 -243 42 -182C22 -161 30 -150 53 -166C134 -222 202 -312 238 -399C233 -208 225 -120 207 -70C198 -45 202 -11 216 14C234 49 250 49 263 10C272 -19 278 -66 274 -145C272 -187 272 -219 274 -388C296 -369 321 -348 342 -336C364 -324 379 -342 368 -372C359 -399 335 -412 275 -411C276 -439 276 -465 278 -487C291 -490 305 -493 321 -498C378 -512 379 -534 350 -543C333 -548 318 -548 280 -538C286 -653 290 -687 303 -726C312 -751 307 -760 256 -781C210 -799 200 -784 216 -754C231 -723 241 -647 240 -525ZM661 -210C649 -179 629 -142 602 -113C567 -126 538 -134 525 -137C515 -139 512 -143 514 -147C521 -158 531 -176 541 -197C593 -203 629 -207 661 -210ZM602 -429C634 -434 663 -438 694 -442C692 -431 690 -419 687 -409C683 -389 675 -383 648 -376C630 -372 614 -368 600 -364ZM605 -532C623 -535 641 -539 665 -543C698 -549 706 -540 704 -522C702 -508 700 -492 698 -477C669 -471 636 -465 603 -458ZM562 -653C505 -639 476 -635 451 -635C426 -635 425 -618 443 -613C475 -604 496 -603 562 -615C562 -596 561 -576 561 -552C505 -540 447 -528 423 -527C394 -525 393 -515 417 -503C436 -492 455 -493 488 -503C516 -511 539 -516 561 -521L559 -449C484 -436 413 -425 382 -423C363 -422 358 -412 374 -404C403 -389 419 -385 445 -394C479 -404 528 -414 559 -419L558 -353C498 -340 468 -335 422 -331C396 -329 396 -318 417 -309C436 -300 452 -298 489 -308C499 -311 511 -314 525 -317C531 -294 531 -281 509 -222C433 -212 366 -205 341 -203C308 -201 307 -192 333 -178C359 -165 372 -164 410 -174C431 -180 469 -187 498 -191C491 -175 481 -160 471 -147C457 -130 457 -120 486 -113C510 -107 539 -97 570 -84C519 -42 451 -14 347 12C313 20 314 37 348 35C439 30 534 0 615 -62C675 -32 713 -4 759 44C798 85 823 72 813 24C805 -20 761 -52 653 -95C678 -123 704 -169 722 -216C803 -222 852 -223 878 -219C965 -208 972 -232 939 -253C907 -274 883 -279 836 -269C815 -264 778 -258 733 -251C733 -263 728 -267 690 -282C671 -290 665 -286 669 -262C670 -257 670 -249 669 -242C634 -238 596 -233 559 -228C572 -253 579 -265 594 -278C606 -290 603 -301 556 -324C613 -336 680 -346 729 -353C750 -356 755 -370 734 -396C738 -415 742 -434 747 -449C796 -455 841 -458 876 -458C921 -458 926 -482 883 -500C852 -512 836 -511 790 -499C783 -497 774 -495 764 -491C770 -506 778 -519 786 -531C799 -548 799 -554 760 -579C729 -599 714 -600 693 -588C682 -583 648 -574 606 -564C608 -585 609 -607 610 -624C656 -633 685 -639 737 -650C770 -657 771 -679 743 -688C720 -695 700 -693 660 -681C643 -676 628 -672 614 -668C618 -702 624 -722 630 -733C645 -764 644 -770 576 -796C527 -816 516 -798 539 -772C556 -753 561 -731 562 -653Z"/>
</svg>