<svg xmlns="http://www.w3.org/2000/svg" viewBox="0 -1000 1000 1000">
	<path fill="#000000" d="M630 -605C639 -634 645 -669 649 -710C652 -740 654 -751 660 -759C670 -773 667 -783 623 -798C575 -815 567 -802 582 -778C601 -751 603 -691 588 -607C581 -579 550 -523 503 -480C484 -463 494 -455 514 -467C573 -497 606 -534 626 -591C669 -562 709 -537 756 -509C775 -498 787 -508 784 -523C775 -572 748 -589 630 -605ZM342 -556C366 -532 384 -518 429 -484C444 -473 458 -480 455 -500C446 -549 433 -558 348 -575C354 -601 359 -630 362 -668C365 -696 367 -715 371 -722C382 -741 375 -753 335 -767C298 -781 287 -768 300 -752C312 -739 319 -693 315 -640C309 -564 286 -502 238 -445C226 -431 238 -424 252 -435C297 -469 325 -501 342 -556ZM267 -588C265 -634 257 -645 197 -660C182 -664 178 -660 183 -648C194 -618 207 -598 228 -576C248 -554 268 -565 267 -588ZM557 -607C561 -633 551 -652 513 -670C494 -679 485 -670 491 -653C500 -627 511 -610 519 -601C537 -579 551 -579 557 -607ZM474 -673C488 -681 487 -690 456 -711C427 -730 418 -726 418 -707C418 -689 404 -658 378 -630C363 -613 371 -606 398 -623C440 -651 458 -662 474 -673ZM780 -687C799 -692 799 -713 769 -734C739 -756 728 -752 730 -729C731 -714 719 -699 658 -651C648 -643 650 -636 663 -639C686 -645 708 -654 730 -665C740 -671 769 -684 780 -687ZM425 -267C364 -188 245 -97 138 -44C116 -33 117 -19 148 -26C257 -51 390 -141 464 -245C466 -180 461 -95 448 -37C440 4 442 17 463 45C482 72 495 72 505 46C509 35 513 8 512 -26C509 -152 508 -219 509 -255C600 -154 632 -125 692 -73C717 -52 733 -45 907 -69C938 -73 937 -89 900 -96C752 -125 688 -150 515 -279C583 -287 650 -294 691 -294C756 -295 762 -310 727 -335C707 -348 698 -349 613 -334C578 -328 544 -321 511 -316C512 -339 514 -353 518 -363C524 -379 522 -393 464 -407C436 -414 427 -402 442 -383C448 -376 456 -353 461 -308C360 -293 281 -284 249 -283C217 -282 215 -272 238 -261C274 -244 284 -242 334 -252C355 -257 388 -262 425 -267ZM202 -388C236 -388 289 -394 339 -404C410 -418 633 -436 759 -440C789 -441 793 -429 762 -375C747 -351 753 -344 779 -359C824 -384 840 -389 885 -395C918 -399 921 -413 868 -456C830 -487 814 -491 779 -484C760 -480 726 -476 323 -432C250 -423 224 -420 204 -419C194 -461 180 -461 171 -431C163 -404 149 -381 122 -359C106 -344 102 -328 110 -297C116 -270 130 -270 151 -292C173 -315 189 -342 202 -388Z"/>
</svg>