<svg xmlns="http://www.w3.org/2000/svg" viewBox="0 -1000 1000 1000">
	<path fill="#000000" d="M337 -558C328 -563 312 -562 258 -544C266 -650 273 -708 287 -738C298 -763 297 -770 249 -793C207 -813 195 -801 221 -766C228 -756 233 -691 227 -533C193 -524 106 -506 72 -501C36 -496 36 -485 64 -479C100 -471 149 -473 218 -490C172 -377 101 -280 33 -207C19 -192 27 -185 45 -196C114 -238 183 -324 222 -408C214 -234 209 -160 201 -136C189 -101 190 -89 203 -55C219 -12 233 -6 246 -53C252 -73 255 -104 253 -149C249 -269 249 -345 250 -403C278 -377 301 -358 314 -352C334 -342 343 -356 332 -383C325 -400 302 -412 250 -413C252 -446 253 -473 255 -501C270 -505 285 -510 301 -516C353 -534 355 -547 337 -558ZM925 -504C904 -516 872 -516 841 -505C821 -498 798 -490 775 -484C771 -629 776 -699 782 -713C796 -745 792 -754 741 -769C685 -785 678 -774 709 -733C721 -717 736 -632 739 -475C694 -464 651 -456 626 -455C580 -453 575 -444 600 -430C612 -423 639 -421 666 -429C688 -436 713 -442 739 -447C741 -296 741 -224 741 -128C741 -90 733 -79 692 -87C654 -94 653 -89 672 -71C689 -55 709 -26 727 4C741 27 754 26 767 4C791 -38 801 -80 795 -140C791 -178 779 -364 775 -453C822 -460 866 -464 896 -463C955 -462 957 -486 925 -504ZM582 -581C601 -610 597 -620 562 -639C538 -652 533 -650 511 -637C497 -629 454 -615 414 -610C487 -683 520 -704 540 -715C581 -738 578 -747 526 -761C480 -773 477 -766 482 -740C484 -730 456 -690 393 -613C370 -616 372 -605 388 -584C398 -571 400 -547 392 -332C354 -322 329 -316 318 -315C286 -312 286 -303 303 -291C322 -278 328 -278 355 -291C387 -306 424 -321 471 -335C431 -267 383 -208 295 -142C276 -128 276 -118 303 -128C373 -153 449 -220 529 -349C529 -278 529 -199 527 -150C525 -80 522 -74 481 -88C450 -99 447 -88 467 -65C480 -50 493 -27 505 -2C519 27 527 29 544 0C572 -48 577 -67 572 -167C565 -317 565 -454 568 -501C571 -549 574 -569 582 -581ZM689 -295C688 -320 665 -341 629 -350C610 -355 605 -346 615 -330C630 -304 644 -284 656 -271C671 -254 691 -261 689 -295ZM530 -371C488 -359 452 -348 422 -340C423 -373 424 -392 425 -419C446 -417 465 -419 493 -430C512 -437 511 -448 484 -452C471 -454 456 -450 426 -438C427 -467 428 -483 428 -506C449 -503 464 -503 491 -511C519 -519 515 -534 485 -535C475 -535 466 -533 428 -522C429 -557 430 -574 429 -593C456 -599 475 -603 495 -607C524 -612 527 -619 529 -488C529 -465 530 -433 530 -371Z"/>
</svg>