<svg xmlns="http://www.w3.org/2000/svg" viewBox="0 -1000 1000 1000">
	<path fill="#000000" d="M229 -465C180 -348 119 -251 36 -162C22 -145 28 -135 44 -145C123 -198 186 -274 226 -355C222 -193 215 -112 205 -73C199 -47 201 -8 215 17C233 52 246 50 258 13C265 -9 270 -63 267 -148C265 -203 266 -290 267 -368C291 -343 317 -320 326 -318C351 -312 357 -322 345 -352C336 -377 320 -394 267 -396C268 -427 269 -455 270 -480C286 -484 302 -488 321 -492C381 -507 379 -533 354 -539C336 -544 320 -543 272 -530C280 -675 282 -690 292 -709C304 -731 295 -752 249 -767C200 -784 189 -773 209 -745C228 -717 233 -668 230 -518C164 -500 110 -488 80 -485C57 -483 57 -472 78 -464C106 -453 134 -451 229 -471C229 -469 229 -467 229 -465ZM644 -252C649 -217 646 -150 635 -78C616 -76 597 -74 579 -73C588 -150 583 -189 560 -242C571 -243 580 -244 584 -245C596 -247 621 -250 644 -252ZM747 -87C739 -86 729 -85 718 -85C700 -84 681 -83 661 -80C684 -165 691 -187 698 -199C709 -219 708 -233 681 -255C700 -256 716 -257 728 -258C768 -264 774 -257 771 -224C767 -183 760 -140 747 -87ZM452 -260C393 -282 383 -273 394 -257C415 -224 433 -159 451 -59C408 -56 357 -54 328 -56C307 -57 302 -46 317 -36C354 -9 364 -8 426 -19C585 -43 810 -56 903 -41C972 -31 973 -47 942 -75C910 -103 876 -107 785 -93C814 -180 834 -218 854 -238C874 -257 873 -267 837 -290C796 -315 775 -312 749 -302C729 -294 558 -270 452 -260ZM537 -240C539 -139 541 -108 558 -70C535 -67 511 -64 487 -62C485 -98 472 -183 463 -233C486 -235 513 -237 537 -240ZM809 -400C804 -437 778 -456 706 -466C690 -468 684 -456 691 -451C721 -422 761 -390 775 -382C799 -368 813 -375 809 -400ZM441 -456C442 -479 442 -503 443 -526C470 -530 511 -539 531 -546C562 -556 565 -551 560 -518C556 -487 549 -483 532 -478C501 -469 466 -462 441 -456ZM521 -443C527 -423 527 -400 520 -368C499 -364 471 -359 435 -352C437 -374 439 -403 440 -435C464 -436 491 -439 521 -443ZM709 -557C742 -547 780 -550 893 -574C921 -580 923 -599 902 -608C879 -618 864 -618 809 -601C782 -591 745 -583 722 -579C736 -604 749 -630 763 -658C773 -680 777 -688 787 -701C809 -725 804 -732 760 -759C728 -780 707 -771 720 -743C733 -717 704 -611 639 -495C619 -461 628 -450 651 -477C671 -499 691 -525 709 -557ZM510 -651C519 -624 515 -602 507 -566C488 -560 466 -555 443 -550C443 -593 443 -616 442 -645C464 -645 485 -647 510 -651ZM430 -669C388 -691 370 -684 385 -654C394 -636 399 -608 400 -540C401 -407 401 -378 390 -365C371 -342 370 -332 385 -315C400 -298 406 -297 423 -310C440 -325 573 -345 606 -345C646 -345 651 -364 628 -376C613 -384 599 -387 556 -377C571 -413 569 -432 550 -448C559 -450 567 -451 575 -453C609 -462 611 -470 599 -479C588 -488 589 -493 598 -510C602 -517 613 -533 624 -543C639 -557 639 -567 619 -577C592 -591 581 -590 564 -582C561 -581 554 -579 543 -576C545 -588 549 -599 556 -609C569 -631 566 -640 547 -658C566 -662 585 -667 609 -673C643 -681 640 -697 625 -704C601 -713 580 -714 537 -697C525 -692 471 -678 430 -669Z"/>
</svg>