<svg xmlns="http://www.w3.org/2000/svg" viewBox="0 -1000 1000 1000">
	<path fill="#000000" d="M900 -495C896 -508 892 -533 887 -568C884 -589 875 -588 872 -567C861 -504 856 -494 825 -480C806 -472 733 -466 711 -471C655 -485 649 -496 648 -590C793 -639 823 -648 839 -650C861 -652 864 -665 824 -692C784 -718 777 -716 764 -689C756 -671 712 -634 648 -610C650 -650 669 -727 676 -736C695 -763 691 -781 643 -805C603 -825 592 -813 608 -782C620 -761 620 -755 614 -593C609 -459 619 -443 698 -416C723 -408 825 -411 867 -432C904 -450 910 -460 900 -495ZM568 -580C585 -586 589 -598 568 -606C547 -613 512 -606 454 -582C457 -609 458 -622 460 -629C466 -657 463 -665 424 -686C386 -706 379 -692 393 -667C406 -647 412 -616 414 -571C417 -485 412 -463 386 -438C364 -416 363 -408 371 -393C384 -363 392 -361 420 -389C431 -400 441 -407 549 -476C563 -484 561 -494 548 -492C533 -489 478 -467 445 -453C447 -500 450 -536 452 -562C491 -560 520 -564 568 -580ZM349 -703C363 -715 366 -732 320 -761C278 -787 261 -778 269 -755C278 -727 264 -685 213 -597C180 -539 96 -430 29 -364C7 -341 16 -335 37 -347C89 -378 148 -431 223 -528C235 -497 241 -435 238 -350C235 -243 220 -121 213 -105C202 -79 205 -46 220 -18C229 0 239 0 252 -13C263 -26 269 -47 274 -92C279 -141 286 -337 284 -432C283 -500 277 -516 239 -549C262 -578 285 -610 309 -647C329 -678 343 -698 349 -703ZM771 -259C787 -279 784 -289 736 -314C705 -331 694 -329 677 -321C645 -308 582 -294 482 -277C550 -339 583 -366 595 -370C612 -377 610 -389 577 -404C529 -427 515 -419 523 -396C527 -382 517 -359 463 -276C426 -300 412 -286 430 -263C451 -235 452 -116 441 -73C434 -47 448 -1 464 0C470 1 478 -8 482 -49C498 -46 520 -46 547 -49C645 -59 652 -57 662 -46C670 -38 681 -7 684 6C694 44 700 46 711 37C720 30 735 10 745 -17C755 -42 759 -62 753 -168C751 -218 755 -240 771 -259ZM696 -82C694 -57 690 -55 677 -68C646 -98 632 -101 483 -73C484 -107 486 -135 487 -158C541 -157 584 -163 624 -173C647 -180 646 -192 623 -202C613 -207 586 -204 555 -196C526 -188 510 -185 487 -183C486 -213 484 -238 482 -255C500 -257 527 -262 568 -270C675 -291 688 -286 692 -258C697 -222 699 -116 696 -82Z"/>
</svg>