<svg xmlns="http://www.w3.org/2000/svg" viewBox="0 -1000 1000 1000">
	<path fill="#000000" d="M308 -590C309 -638 283 -660 216 -679C183 -688 178 -675 193 -650C212 -616 241 -574 252 -561C276 -537 307 -555 308 -590ZM197 -401C196 -438 161 -465 95 -470C72 -472 67 -463 77 -448C104 -409 125 -386 147 -371C178 -351 198 -363 197 -401ZM880 -398C896 -421 898 -432 839 -466C791 -494 779 -481 788 -457C795 -439 799 -411 799 -375C799 -346 797 -312 794 -282L615 -252C618 -581 625 -618 638 -648C648 -669 643 -686 581 -711C523 -735 509 -710 530 -683C561 -647 567 -618 564 -243C498 -233 438 -222 415 -218C431 -356 431 -365 381 -382C342 -395 333 -384 351 -359C363 -344 372 -326 373 -295C374 -246 369 -227 359 -215C336 -187 330 -170 337 -146C349 -100 357 -101 394 -135C415 -154 490 -183 579 -203C634 -216 735 -235 790 -243C789 -226 787 -213 785 -206C772 -149 771 -129 776 -109C785 -72 804 -72 819 -105C831 -133 843 -194 848 -233C853 -282 868 -382 880 -398ZM288 -343C311 -407 298 -414 265 -352C246 -317 209 -251 192 -220C171 -185 145 -159 131 -154C104 -145 101 -126 130 -73C181 20 203 7 204 -74C204 -105 240 -212 288 -343Z"/>
</svg>