<svg xmlns="http://www.w3.org/2000/svg" viewBox="0 -1000 1000 1000">
	<path fill="#000000" d="M698 -716C680 -722 670 -724 583 -692C548 -680 460 -653 446 -651C414 -648 411 -626 470 -614C504 -606 575 -617 682 -659C726 -677 733 -704 698 -716ZM312 -646C309 -681 282 -709 217 -713C165 -717 162 -706 183 -684C213 -651 243 -624 269 -609C296 -592 314 -608 312 -646ZM215 -439C220 -473 199 -504 128 -515C87 -522 86 -516 103 -489C127 -453 160 -418 173 -411C202 -396 209 -401 215 -439ZM947 -137C940 -156 924 -225 921 -253C916 -287 907 -286 901 -243C882 -113 867 -98 740 -100C661 -102 633 -134 633 -195C633 -264 635 -305 649 -367C662 -415 659 -424 601 -453C649 -462 702 -472 757 -481C810 -490 808 -516 778 -526C738 -538 717 -537 667 -519C544 -477 389 -438 367 -437C314 -432 307 -417 345 -407C363 -403 384 -402 454 -419C467 -403 461 -361 431 -294C393 -207 341 -144 269 -89C233 -62 242 -53 274 -66C366 -105 424 -157 490 -304C497 -322 504 -332 520 -353C534 -372 532 -380 467 -422C497 -429 534 -438 575 -447C590 -433 598 -378 596 -350C595 -320 594 -266 594 -234C594 -97 615 -53 745 -32C800 -22 877 -33 917 -54C964 -78 966 -90 947 -137ZM279 -358C302 -419 290 -425 256 -372C240 -348 176 -228 169 -212C160 -193 133 -173 124 -171C107 -167 103 -153 126 -87C154 -5 176 -15 186 -74C196 -135 250 -290 279 -358Z"/>
</svg>