<svg xmlns="http://www.w3.org/2000/svg" viewBox="0 -1000 1000 1000">
	<path fill="#000000" d="M763 -702C746 -709 719 -708 684 -692C660 -682 595 -658 540 -647C561 -674 588 -701 612 -731C624 -747 619 -761 563 -786C526 -802 514 -795 523 -762C533 -726 453 -599 375 -528C344 -501 356 -486 390 -506C428 -529 482 -576 518 -617C547 -614 585 -617 631 -625C674 -633 750 -654 761 -658C792 -673 789 -691 763 -702ZM324 -619C330 -660 298 -687 228 -700C191 -707 186 -700 200 -676C221 -640 261 -601 285 -587C302 -577 319 -588 324 -619ZM702 -565C687 -576 663 -577 625 -561C576 -541 528 -525 497 -520C473 -515 474 -503 509 -493C546 -483 668 -514 698 -533C715 -545 715 -556 702 -565ZM257 -425C259 -459 216 -493 148 -499C129 -501 123 -495 137 -469C154 -440 197 -395 206 -391C236 -378 255 -391 257 -425ZM979 -7C964 -43 945 -105 942 -143C939 -183 922 -183 918 -149C906 -36 900 -30 824 -46C745 -64 701 -135 714 -273C722 -361 736 -388 780 -417C794 -427 785 -445 741 -462C709 -475 698 -474 682 -459C663 -440 616 -426 562 -412C478 -392 422 -384 398 -383C371 -382 370 -368 392 -353C423 -329 441 -329 487 -347C540 -367 596 -384 654 -398C680 -405 685 -403 681 -384C655 -261 643 -151 690 -74C738 6 822 48 935 40C982 37 990 19 979 -7ZM300 -326C317 -374 305 -382 280 -337C275 -326 210 -213 199 -195C180 -163 160 -139 147 -133C132 -125 130 -118 157 -56C189 22 222 19 228 -46C235 -119 249 -185 300 -326Z"/>
</svg>