<svg xmlns="http://www.w3.org/2000/svg" viewBox="0 -1000 1000 1000">
	<path fill="#000000" d="M650 -741C649 -774 611 -798 553 -798C514 -798 511 -790 537 -762C553 -745 576 -722 605 -702C621 -691 651 -711 650 -741ZM559 -529C564 -553 552 -569 509 -583C483 -591 472 -584 483 -562C493 -543 503 -524 516 -512C530 -499 553 -507 559 -529ZM919 -475C906 -490 884 -508 853 -526C833 -538 827 -539 805 -529C784 -520 712 -502 627 -489C680 -548 718 -588 732 -599C741 -606 743 -625 677 -647C716 -655 765 -667 789 -674C814 -681 813 -702 785 -710C766 -716 742 -716 684 -699C637 -685 504 -653 433 -640C401 -633 409 -622 435 -615C470 -606 524 -613 659 -643C666 -616 652 -568 602 -485C552 -476 482 -465 399 -453C383 -488 372 -483 367 -461C363 -441 340 -393 333 -384C321 -368 318 -355 325 -332C333 -308 341 -306 361 -325C380 -345 402 -390 403 -433C429 -430 454 -431 662 -467C706 -474 759 -481 790 -483C806 -484 809 -479 806 -467C804 -457 797 -445 791 -433C780 -414 791 -411 809 -418C847 -432 882 -441 917 -443C934 -444 936 -455 919 -475ZM628 -379C635 -402 616 -427 570 -437C550 -441 543 -436 552 -414C561 -395 575 -376 586 -365C603 -348 620 -354 628 -379ZM379 -706C394 -715 396 -734 349 -765C303 -795 293 -785 298 -760C302 -738 285 -681 238 -598C187 -506 118 -426 53 -360C34 -341 40 -332 67 -348C116 -377 180 -432 239 -508C245 -479 246 -442 244 -360C241 -261 227 -141 219 -109C212 -81 219 -55 233 -27C246 -2 255 1 267 -24C275 -42 279 -66 281 -120C283 -170 286 -394 286 -450C286 -490 281 -513 260 -534C286 -569 311 -607 334 -649C356 -686 368 -699 379 -706ZM809 -374C784 -386 750 -388 647 -359C580 -340 429 -312 409 -310C386 -308 381 -296 406 -288C435 -279 462 -277 509 -291C526 -296 541 -299 557 -302C554 -268 519 -213 471 -165C418 -112 364 -68 307 -35C286 -22 287 -9 313 -14C409 -34 551 -164 591 -234C612 -229 638 -225 667 -218C684 -214 692 -200 689 -185C681 -150 668 -117 639 -71C627 -52 599 -53 559 -67C540 -73 534 -65 547 -48C565 -24 580 2 588 24C594 40 603 42 626 30C648 19 672 -3 684 -23C705 -60 729 -113 735 -129C742 -148 756 -170 773 -181C791 -194 790 -204 748 -237C724 -255 709 -260 687 -257C655 -253 633 -252 602 -254C608 -263 615 -270 624 -277C632 -284 632 -291 587 -309C662 -326 711 -331 786 -335C837 -337 844 -357 809 -374Z"/>
</svg>