<svg xmlns="http://www.w3.org/2000/svg" viewBox="0 -1000 1000 1000">
	<path fill="#000000" d="M345 -673C339 -705 309 -729 249 -732C209 -734 206 -728 222 -708C246 -678 274 -654 298 -640C327 -622 352 -638 345 -673ZM242 -461C241 -490 216 -521 157 -530C123 -536 116 -530 132 -507C157 -473 178 -449 195 -435C224 -410 243 -424 242 -461ZM919 -494C889 -515 844 -519 808 -509C785 -502 707 -487 621 -470C630 -522 635 -549 638 -561C646 -591 645 -596 575 -621C604 -632 635 -646 673 -663C689 -670 725 -683 741 -689C778 -702 776 -708 710 -743C664 -767 652 -761 650 -741C649 -728 642 -719 615 -697C578 -667 483 -616 441 -598C421 -589 425 -576 448 -582C485 -591 518 -600 553 -613C574 -588 576 -556 567 -460C465 -441 367 -424 348 -424C298 -426 297 -410 319 -397C348 -380 373 -379 401 -390C417 -397 484 -410 564 -422L547 -270C522 -268 497 -266 473 -264C410 -289 403 -275 425 -249C437 -235 449 -187 467 -91C474 -52 487 -20 501 -20C509 -20 516 -31 517 -51C597 -58 662 -63 751 -68C789 -70 789 -93 776 -106C759 -123 759 -126 775 -154C785 -172 806 -204 815 -210C851 -235 850 -247 776 -288C742 -306 737 -305 712 -295C699 -289 646 -281 587 -274L614 -430C707 -443 807 -453 861 -447C962 -436 966 -461 919 -494ZM309 -316C330 -366 320 -372 293 -331C271 -298 245 -261 226 -233C189 -177 174 -165 166 -165C140 -165 136 -153 163 -85C191 -11 212 -16 221 -61C234 -126 280 -249 309 -316ZM728 -223C708 -130 701 -120 658 -111C628 -105 573 -97 514 -90C507 -135 500 -183 491 -237C528 -238 588 -245 675 -256C723 -262 734 -253 728 -223Z"/>
</svg>