<svg xmlns="http://www.w3.org/2000/svg" viewBox="0 -1000 1000 1000">
	<path fill="#000000" d="M363 -654C358 -696 323 -720 249 -720C226 -720 224 -717 234 -703C257 -672 300 -625 322 -613C348 -599 368 -612 363 -654ZM807 -668C834 -681 838 -697 778 -728C733 -752 722 -752 705 -743C672 -724 551 -695 488 -690C438 -708 421 -698 436 -678C461 -647 481 -607 503 -544C515 -509 536 -504 538 -537C638 -556 705 -567 734 -570C754 -572 763 -588 747 -600C739 -607 741 -616 756 -631C773 -648 784 -657 807 -668ZM268 -452C259 -495 217 -516 166 -525C140 -529 138 -522 149 -505C169 -475 200 -435 225 -416C250 -398 275 -416 268 -452ZM816 -146C793 -342 795 -393 812 -424C822 -443 818 -452 776 -476C736 -499 723 -501 707 -493C679 -478 568 -455 498 -450C448 -466 439 -460 450 -442C466 -417 470 -369 467 -310C462 -199 449 -127 434 -103C417 -75 416 -48 424 -32C448 21 458 18 469 -4C479 -22 493 -110 500 -196C543 -182 572 -182 660 -204C694 -213 700 -238 666 -246C652 -249 635 -246 501 -211C504 -249 506 -282 507 -310C546 -301 594 -305 669 -328C692 -336 692 -353 663 -360C641 -365 615 -361 508 -327C510 -364 510 -394 508 -423C593 -440 641 -448 691 -452C725 -454 731 -449 739 -406C755 -318 761 -188 757 -86C756 -54 746 -48 663 -67C645 -71 645 -62 658 -52C681 -33 708 0 731 36C749 64 765 62 782 36C821 -26 826 -60 816 -146ZM345 -387C340 -390 335 -389 319 -362C215 -184 187 -158 167 -158C143 -158 142 -136 174 -79C214 -5 234 -5 238 -51C243 -108 263 -168 331 -331C350 -377 351 -383 345 -387ZM716 -662C705 -608 701 -602 676 -593C660 -587 625 -579 535 -561C526 -598 516 -637 510 -665C583 -684 644 -699 687 -705C716 -709 725 -704 716 -662Z"/>
</svg>