<svg xmlns="http://www.w3.org/2000/svg" viewBox="0 -1000 1000 1000">
	<path fill="#000000" d="M309 -614C307 -639 272 -667 215 -680C181 -688 180 -685 193 -663C210 -634 247 -589 266 -579C292 -564 312 -580 309 -614ZM939 -246C896 -285 860 -287 788 -272C773 -269 738 -263 684 -255L692 -567C709 -570 723 -573 731 -574C833 -592 832 -616 796 -625C774 -630 732 -627 693 -617C696 -687 704 -747 714 -759C729 -777 697 -804 640 -819C603 -829 598 -821 616 -794C635 -766 639 -745 637 -604C601 -595 547 -583 497 -571C499 -620 503 -649 507 -657C522 -685 515 -698 452 -720C423 -730 415 -718 431 -695C443 -678 450 -646 452 -561C413 -553 381 -546 367 -544C345 -541 341 -532 364 -523C382 -516 427 -515 452 -520L453 -220C371 -207 302 -198 290 -198C255 -197 254 -191 281 -172C293 -163 332 -160 368 -170C399 -179 482 -195 529 -201C700 -222 760 -224 835 -218C952 -209 958 -228 939 -246ZM233 -416C235 -448 199 -477 139 -492C120 -497 111 -493 124 -471C150 -427 176 -392 184 -386C210 -365 231 -375 233 -416ZM293 -332C317 -388 304 -396 273 -345C264 -329 202 -217 190 -196C174 -167 162 -152 131 -149C119 -148 113 -133 140 -79C176 -9 187 -12 199 -73C211 -134 265 -268 293 -332ZM811 5C819 -35 777 -97 658 -141C638 -148 633 -145 644 -123C661 -91 743 16 766 32C794 52 802 48 811 5ZM522 -108C547 -126 543 -141 483 -161C466 -167 459 -162 459 -149C459 -136 446 -111 411 -72C378 -35 318 19 286 40C258 59 266 68 285 60C347 35 415 -11 459 -55C480 -76 511 -100 522 -108ZM637 -556L633 -248C590 -241 541 -234 496 -226L495 -327C532 -319 567 -322 599 -337C621 -347 620 -357 595 -365C583 -369 560 -364 495 -340V-431C522 -424 553 -429 597 -447C617 -455 614 -467 589 -473C569 -478 560 -475 495 -449C495 -479 495 -505 495 -528C537 -538 590 -548 637 -556Z"/>
</svg>