<svg xmlns="http://www.w3.org/2000/svg" viewBox="0 -1000 1000 1000">
	<path fill="#000000" d="M615 -432C614 -453 614 -474 614 -492C633 -496 652 -499 676 -503C713 -509 727 -507 727 -472C727 -444 718 -406 701 -354C697 -342 690 -336 679 -338C669 -340 652 -340 616 -336C616 -359 616 -379 615 -396C642 -400 664 -405 677 -409C702 -417 703 -425 688 -433C671 -441 645 -442 615 -432ZM570 -388C570 -367 570 -347 570 -330C546 -327 520 -321 486 -315C475 -374 466 -425 460 -464C494 -471 523 -476 570 -484C570 -466 570 -444 570 -420C550 -416 531 -412 513 -408C492 -403 492 -399 504 -393C522 -383 531 -382 570 -388ZM419 -662C464 -672 507 -680 548 -687C558 -670 564 -649 567 -603C541 -596 512 -589 481 -583C457 -578 456 -572 473 -565C486 -559 499 -558 569 -568C569 -551 570 -533 570 -510C526 -503 479 -495 446 -490C388 -503 384 -498 398 -473C409 -455 426 -412 443 -326C457 -260 480 -259 488 -291C521 -296 547 -300 569 -302C569 -276 569 -252 569 -229C441 -210 342 -199 297 -196C272 -195 273 -181 293 -172C341 -150 357 -150 392 -161C445 -176 502 -187 569 -196C568 -18 568 10 574 59C577 82 587 82 595 58C610 11 615 -43 617 -202C715 -212 819 -214 894 -208C952 -203 955 -224 908 -257C889 -270 854 -271 797 -262C734 -252 673 -243 617 -235C617 -255 617 -281 617 -308C671 -314 682 -310 686 -304C700 -285 716 -287 737 -322C749 -343 757 -365 778 -432C784 -453 795 -473 811 -484C828 -496 828 -510 781 -532C734 -553 721 -551 704 -544C686 -537 660 -530 614 -519C615 -539 615 -558 615 -575C652 -580 675 -585 697 -594C721 -605 721 -618 705 -624C688 -630 663 -628 618 -617C621 -635 622 -648 624 -656C629 -674 622 -683 598 -695C649 -704 697 -711 741 -717C768 -720 778 -712 771 -695C764 -678 757 -665 742 -641C734 -627 739 -620 754 -628C806 -657 838 -668 876 -672C897 -674 903 -686 886 -701C864 -721 844 -736 810 -754C791 -764 782 -764 764 -759C734 -751 588 -723 412 -693C396 -724 388 -723 384 -705C377 -676 358 -622 348 -604C339 -589 340 -578 355 -548C362 -533 370 -532 392 -568C400 -581 411 -623 419 -662ZM281 -388C289 -415 275 -424 263 -397C212 -283 186 -233 163 -194C149 -168 136 -162 117 -163C99 -164 96 -155 112 -127C171 -20 190 -21 198 -74C212 -163 220 -204 281 -388ZM203 -455C202 -491 166 -526 99 -524C83 -523 81 -520 89 -509C117 -471 141 -450 167 -431C189 -415 203 -423 203 -455ZM284 -659C282 -698 245 -718 179 -720C156 -721 153 -713 170 -695C199 -667 229 -640 253 -623C269 -612 286 -622 284 -659Z"/>
</svg>