<svg xmlns="http://www.w3.org/2000/svg" viewBox="0 -1000 1000 1000">
	<path fill="#000000" d="M768 -708C793 -725 784 -738 744 -756C692 -780 682 -774 687 -735C689 -722 671 -687 618 -618C601 -595 608 -584 632 -602C656 -620 681 -641 711 -666C727 -680 746 -694 768 -708ZM336 -639C334 -674 313 -693 264 -711C221 -726 213 -716 228 -687C247 -650 268 -619 295 -602C317 -588 338 -605 336 -639ZM551 -625C551 -678 539 -688 485 -703C464 -709 454 -705 468 -679C485 -646 493 -631 505 -615C522 -592 551 -597 551 -625ZM839 -576C818 -591 780 -595 752 -590C528 -546 444 -538 410 -538C349 -538 349 -524 388 -504C405 -495 434 -492 539 -517C585 -528 731 -542 804 -536C861 -530 870 -555 839 -576ZM224 -462C227 -495 209 -520 161 -545C122 -564 111 -551 122 -521C129 -500 145 -470 162 -444C183 -409 220 -413 224 -462ZM803 -403C792 -442 762 -464 674 -485C642 -493 636 -486 658 -465C693 -429 728 -396 749 -379C781 -353 811 -375 803 -403ZM555 -439C579 -449 578 -465 545 -478C505 -494 496 -489 492 -462C489 -442 442 -394 381 -350C363 -337 366 -328 390 -335C420 -343 457 -361 487 -386C521 -414 548 -436 555 -439ZM307 -359C337 -418 319 -429 286 -376C266 -344 236 -299 207 -262C174 -219 153 -198 144 -196C119 -191 116 -183 132 -122C155 -38 177 -38 192 -93C206 -145 270 -284 307 -359ZM928 -82C890 -111 852 -117 791 -106C785 -105 773 -103 755 -102C782 -188 805 -243 816 -257C839 -287 839 -297 791 -325C767 -340 753 -340 724 -331C714 -328 638 -318 576 -311C501 -303 441 -298 395 -294C343 -315 338 -300 367 -263C377 -250 397 -169 408 -75C334 -67 288 -64 256 -64C226 -64 222 -50 246 -35C280 -14 289 -12 349 -27C407 -42 547 -57 644 -58C755 -59 834 -50 896 -39C955 -27 963 -56 928 -82ZM743 -249C738 -212 729 -165 713 -98C684 -97 651 -95 624 -93C641 -153 657 -199 664 -215C682 -256 681 -268 645 -290C744 -300 749 -296 743 -249ZM614 -287C623 -247 617 -194 598 -91C579 -91 559 -90 535 -87C553 -152 545 -201 517 -277C552 -281 584 -284 614 -287ZM518 -86C493 -84 467 -82 441 -79C435 -150 428 -211 419 -266C443 -268 472 -271 493 -274C495 -197 503 -130 518 -86Z"/>
</svg>