<svg xmlns="http://www.w3.org/2000/svg" viewBox="0 -1000 1000 1000">
	<path fill="#000000" d="M330 -676C327 -720 296 -734 238 -744C207 -749 201 -740 218 -718C235 -696 277 -652 291 -642C315 -625 332 -639 330 -676ZM225 -477C224 -512 211 -528 154 -552C125 -564 116 -557 130 -528C149 -486 172 -461 187 -451C212 -433 226 -440 225 -477ZM555 -693C580 -709 577 -715 537 -740C512 -756 508 -756 486 -746C467 -736 433 -725 396 -718C371 -713 369 -700 400 -694C424 -689 434 -690 466 -696C478 -698 484 -692 482 -678C470 -592 464 -583 448 -574C410 -553 397 -551 372 -567C352 -577 341 -570 351 -543C369 -498 364 -439 339 -416C324 -402 321 -396 333 -371C341 -352 350 -350 366 -369C388 -397 414 -404 457 -400C472 -397 475 -393 480 -360C485 -327 474 -189 459 -136C445 -90 438 -82 392 -88C373 -90 369 -83 385 -70C398 -57 427 -26 432 -16C439 1 453 -1 467 -19C506 -75 519 -113 517 -274C516 -351 519 -366 525 -375C542 -401 540 -409 493 -441C483 -448 470 -447 457 -439C452 -437 410 -420 380 -412C400 -462 398 -494 391 -523C414 -524 474 -542 503 -553C513 -558 513 -570 505 -577C494 -586 497 -603 513 -638C531 -677 536 -680 555 -693ZM860 -422C883 -458 883 -462 832 -488C804 -503 800 -503 764 -485C739 -472 689 -461 646 -457C658 -494 663 -534 663 -572C685 -574 772 -591 786 -596C799 -600 803 -609 794 -620C777 -642 778 -649 799 -676C811 -691 817 -698 833 -713C862 -735 860 -742 811 -769C780 -786 770 -786 752 -775C715 -749 679 -734 646 -732C627 -731 624 -723 648 -712C666 -704 702 -700 728 -710C759 -720 762 -719 757 -697C745 -635 742 -628 725 -619C683 -596 658 -596 636 -608C603 -626 594 -616 617 -583C627 -568 622 -487 607 -465C588 -437 587 -435 598 -413C612 -388 620 -391 639 -409C677 -441 738 -456 772 -447C794 -441 796 -438 800 -389C807 -304 794 -158 776 -102C766 -74 752 -70 695 -86C672 -93 666 -85 687 -64C706 -47 724 -19 742 14C754 34 765 36 782 19C835 -36 848 -101 845 -304C844 -391 847 -405 860 -422ZM671 -308C668 -328 645 -349 584 -352C569 -353 566 -340 576 -330C594 -310 635 -283 644 -281C665 -277 675 -284 671 -308ZM393 -282C389 -307 375 -321 335 -328C323 -330 318 -321 327 -306C338 -288 358 -267 370 -261C385 -253 396 -262 393 -282ZM280 -388C300 -448 289 -452 264 -398C245 -362 196 -253 183 -224C162 -181 154 -172 131 -163C122 -159 117 -145 141 -102C172 -49 189 -47 199 -97C223 -205 254 -313 280 -388ZM761 -294C776 -312 765 -321 753 -311C729 -287 663 -225 636 -203C614 -184 592 -171 576 -166C552 -160 547 -141 583 -124C613 -109 618 -108 635 -132C672 -181 727 -256 761 -294ZM440 -255C456 -275 446 -284 432 -269C408 -246 383 -223 362 -206C336 -186 325 -180 292 -170C277 -164 274 -154 296 -129C318 -105 323 -107 347 -139C366 -160 424 -234 440 -255Z"/>
</svg>