<svg xmlns="http://www.w3.org/2000/svg" viewBox="0 -1000 1000 1000">
	<path fill="#000000" d="M669 -734C670 -776 629 -799 573 -802C548 -803 547 -795 561 -774C575 -752 603 -717 620 -703C640 -687 668 -702 669 -734ZM343 -649C333 -688 308 -702 252 -710C218 -715 214 -706 230 -686C257 -654 280 -633 303 -617C326 -601 349 -623 343 -649ZM549 -517C554 -545 532 -561 491 -569C468 -573 463 -565 470 -553C483 -528 496 -516 509 -506C528 -491 545 -494 549 -517ZM255 -475C254 -502 224 -526 173 -540C141 -548 137 -539 149 -516C164 -489 197 -450 205 -445C236 -424 256 -435 255 -475ZM881 -678C855 -693 815 -693 762 -678C678 -655 489 -625 406 -621C376 -620 376 -615 401 -602C423 -590 488 -593 537 -602C559 -606 605 -613 655 -619C664 -586 658 -573 600 -473C507 -459 460 -452 416 -449C361 -471 356 -464 378 -417C389 -393 369 -152 355 -124C332 -80 331 -61 338 -36C350 3 364 5 381 -28C388 -42 401 -88 405 -125C420 -265 427 -371 424 -429C464 -431 518 -438 550 -443C563 -417 564 -402 559 -360C529 -354 500 -349 488 -348C459 -345 458 -335 488 -326C501 -322 524 -322 554 -325L544 -251C529 -249 514 -247 501 -246C458 -263 449 -251 466 -225C470 -219 486 -158 494 -124C497 -111 506 -99 511 -100C520 -102 522 -107 521 -125C576 -128 648 -135 670 -139C688 -142 689 -147 679 -157C665 -170 672 -188 708 -215C728 -230 729 -244 692 -265C666 -280 649 -279 633 -272C621 -267 597 -261 571 -256L589 -330C654 -340 705 -350 716 -355C741 -367 740 -376 710 -383C696 -386 682 -387 645 -377C638 -375 620 -371 598 -367C602 -382 605 -394 608 -399C617 -417 615 -424 573 -447C624 -457 697 -465 731 -464C757 -463 774 -452 782 -413C793 -360 797 -206 784 -97C779 -57 777 -54 711 -72C693 -77 688 -69 712 -42C731 -19 743 1 762 37C772 58 786 63 810 36C843 -3 854 -48 850 -128C839 -334 836 -406 841 -415C865 -459 865 -465 813 -493C780 -511 762 -510 732 -498C718 -493 690 -487 627 -477C654 -514 697 -559 716 -567C746 -580 749 -589 672 -621C740 -630 815 -639 854 -642C904 -645 905 -664 881 -678ZM290 -351C317 -416 305 -423 270 -365C249 -330 200 -251 186 -223C169 -191 153 -175 138 -173C126 -171 123 -161 145 -105C173 -37 186 -45 198 -102C206 -141 248 -253 290 -351ZM635 -190C628 -168 620 -163 520 -150C520 -175 517 -204 512 -227C544 -231 591 -237 616 -240C640 -243 648 -231 635 -190Z"/>
</svg>