<svg xmlns="http://www.w3.org/2000/svg" viewBox="0 -1000 1000 1000">
	<path fill="#000000" d="M290 -604C288 -630 265 -655 204 -674C163 -688 160 -677 176 -652C199 -619 227 -584 252 -569C273 -557 293 -565 290 -604ZM819 -616C851 -642 851 -646 811 -669C771 -693 767 -692 740 -685C705 -675 655 -664 633 -659C639 -698 642 -717 647 -736C656 -766 655 -770 605 -793C565 -811 557 -791 576 -768C587 -756 593 -723 593 -651C563 -644 535 -638 513 -634C513 -648 514 -658 516 -673C520 -707 518 -711 474 -731C441 -746 430 -731 449 -708C460 -695 468 -680 475 -627C430 -617 404 -613 373 -615C317 -632 312 -617 336 -594C347 -583 353 -563 382 -475C398 -424 410 -408 423 -408C426 -408 428 -409 428 -413C468 -424 507 -432 563 -441C659 -457 677 -457 689 -448C700 -438 724 -434 739 -454C754 -475 758 -484 778 -538C795 -582 810 -608 819 -616ZM222 -413C219 -445 200 -466 137 -490C113 -499 109 -489 118 -467C134 -428 156 -403 181 -381C208 -358 226 -374 222 -413ZM695 -401C676 -408 640 -402 604 -391C590 -387 455 -357 434 -355C409 -352 408 -342 434 -335C471 -325 483 -326 683 -365C726 -373 727 -389 695 -401ZM281 -325C304 -388 287 -394 259 -337C246 -312 202 -213 189 -186C170 -142 141 -106 125 -102C107 -98 104 -88 137 -36C180 30 199 22 202 -28C206 -92 258 -257 281 -325ZM880 -47C845 -73 837 -75 740 -57C704 -50 668 -46 616 -40C638 -73 657 -101 676 -123C693 -143 690 -150 638 -181C693 -190 700 -196 698 -205C696 -209 706 -230 729 -248C757 -269 763 -286 711 -309C679 -323 675 -323 642 -306C623 -296 498 -267 434 -260C373 -280 368 -273 393 -239C401 -228 419 -198 425 -181C435 -153 450 -145 457 -150C500 -158 577 -170 611 -176C630 -166 626 -137 582 -36C463 -20 324 -6 309 -7C257 -11 248 -3 299 20C326 33 343 35 366 28C403 17 536 -2 620 -7C682 -11 804 -10 822 -7C919 9 930 -10 880 -47ZM491 -55C501 -80 493 -102 459 -119C435 -132 423 -126 429 -105C435 -85 441 -70 461 -50C470 -41 483 -39 491 -55ZM593 -630C593 -611 593 -590 592 -565C569 -558 539 -551 513 -547C512 -571 512 -600 513 -614C544 -620 571 -626 593 -630ZM741 -617C733 -584 724 -541 715 -509C706 -478 701 -477 681 -479C673 -480 656 -478 613 -470L621 -543C639 -546 649 -548 669 -552C701 -557 701 -572 680 -579C669 -582 658 -583 624 -573C626 -598 628 -617 631 -637C667 -643 693 -647 707 -648C744 -650 747 -647 741 -617ZM491 -447C471 -444 450 -439 425 -434C417 -479 399 -560 390 -596C424 -598 442 -600 477 -607C481 -591 483 -561 484 -542C440 -537 428 -530 447 -520C452 -518 460 -517 487 -520ZM591 -538L587 -465C567 -462 543 -458 514 -452L513 -525C533 -528 558 -532 591 -538ZM658 -244C652 -222 642 -205 636 -204C624 -202 587 -196 570 -192C529 -183 496 -177 460 -172C458 -194 452 -223 448 -244C486 -241 542 -251 603 -267C659 -283 666 -273 658 -244Z"/>
</svg>