<svg xmlns="http://www.w3.org/2000/svg" viewBox="0 -1000 1000 1000">
	<path fill="#000000" d="M687 -660C687 -700 654 -731 564 -743C544 -745 540 -738 551 -724C579 -686 614 -646 635 -627C661 -605 687 -622 687 -660ZM167 -379C173 -418 154 -449 96 -485C81 -495 68 -489 77 -463C87 -436 109 -378 117 -362C135 -327 159 -329 167 -379ZM420 -547C442 -562 445 -579 408 -606C383 -624 368 -622 364 -595C360 -568 342 -534 285 -475C289 -514 298 -688 301 -705C306 -737 301 -743 244 -764C193 -782 179 -770 201 -741C232 -699 233 -694 234 -492C235 -278 182 -121 78 5C61 27 68 32 90 17C188 -50 232 -147 257 -257C294 -203 338 -140 351 -127C363 -115 380 -112 388 -143C402 -193 352 -234 259 -265C271 -323 278 -384 283 -446C348 -495 407 -540 420 -547ZM918 -580C885 -609 832 -600 759 -581C690 -562 628 -545 505 -525C479 -521 436 -517 426 -516C404 -514 402 -499 423 -489C451 -475 459 -470 518 -485C529 -488 553 -492 578 -497C575 -484 567 -470 555 -449C520 -389 501 -361 462 -340C447 -332 439 -317 437 -291C435 -261 451 -256 478 -267C516 -281 556 -293 624 -295C523 -147 495 -131 443 -115C420 -106 412 -92 424 -60C438 -17 443 -15 475 -33C515 -55 534 -63 738 -117C758 -90 779 -59 803 -24C825 7 850 -2 850 -57C850 -118 817 -156 696 -206C674 -216 669 -208 683 -191C694 -175 708 -158 720 -140C640 -125 539 -105 512 -101C702 -319 728 -347 762 -372C789 -391 788 -404 745 -434C713 -457 697 -454 695 -430C693 -406 685 -385 642 -321C598 -322 546 -322 511 -324C592 -429 606 -440 634 -461C655 -477 660 -485 637 -510C692 -520 804 -537 896 -540C935 -541 937 -562 918 -580Z"/>
</svg>