<svg xmlns="http://www.w3.org/2000/svg" viewBox="0 -1000 1000 1000">
	<path fill="#000000" d="M583 -680C586 -731 547 -767 443 -776C415 -778 413 -771 426 -754C446 -727 503 -672 526 -653C555 -628 581 -645 583 -680ZM920 -85C876 -132 834 -135 768 -125C747 -122 682 -114 514 -94L521 -276C577 -285 616 -291 650 -296C702 -303 707 -327 668 -344C640 -355 623 -358 523 -331C525 -376 527 -416 529 -424C539 -457 540 -470 498 -494C575 -507 673 -527 714 -540C747 -549 742 -573 724 -582C693 -597 661 -594 507 -554C464 -543 298 -509 279 -510C242 -512 240 -496 273 -486C317 -473 353 -470 454 -486C463 -457 468 -404 469 -317C396 -300 315 -284 300 -284C266 -284 266 -265 294 -257C334 -246 342 -246 469 -267L468 -89C397 -80 312 -70 208 -58C178 -54 129 -53 114 -54C80 -57 76 -45 102 -25C143 5 153 7 211 -7C272 -22 470 -52 516 -54C690 -63 749 -61 864 -47C931 -39 947 -57 920 -85Z"/>
</svg>