<svg xmlns="http://www.w3.org/2000/svg" viewBox="0 -1000 1000 1000">
	<path fill="#000000" d="M941 -371C909 -391 879 -391 816 -373C794 -367 760 -359 721 -351L734 -490C773 -498 801 -504 808 -505C871 -515 872 -536 842 -548C822 -556 808 -557 776 -548C771 -547 757 -543 738 -538C746 -625 755 -669 763 -685C776 -714 778 -736 725 -762C676 -786 642 -775 681 -727C699 -704 699 -627 692 -525C656 -516 615 -506 577 -496C576 -556 576 -587 577 -592C583 -627 580 -634 534 -654C485 -675 472 -657 499 -622C510 -608 526 -542 532 -485C504 -478 481 -473 469 -471C444 -467 431 -456 456 -445C470 -439 499 -441 534 -448L538 -315C485 -306 440 -299 425 -298C389 -295 396 -280 422 -267C446 -255 464 -256 496 -270C545 -292 810 -332 857 -325C975 -308 990 -341 941 -371ZM203 -376C206 -421 189 -453 130 -493C114 -504 105 -497 111 -474C118 -448 143 -371 151 -356C170 -321 200 -337 203 -376ZM439 -550C460 -560 458 -577 424 -596C387 -618 375 -613 371 -590C368 -573 346 -541 306 -501C305 -591 311 -686 317 -705C331 -754 329 -760 276 -783C217 -808 203 -790 236 -749C248 -733 257 -625 251 -395C248 -261 222 -155 108 -18C91 3 100 15 124 -4C276 -123 306 -288 306 -473C372 -513 417 -539 439 -550ZM403 -189C419 -234 383 -263 310 -283C288 -289 287 -284 302 -263C329 -225 350 -193 363 -180C374 -169 395 -167 403 -189ZM586 -181C609 -195 607 -208 575 -227C528 -255 520 -251 519 -211C518 -190 469 -111 360 -26C340 -11 353 -2 373 -11C445 -45 489 -81 521 -118C537 -136 578 -176 586 -181ZM866 -71C867 -122 838 -167 734 -227C705 -245 700 -231 715 -209C728 -190 779 -95 807 -38C833 15 865 3 866 -71ZM689 -480L680 -343C646 -336 612 -328 579 -322L578 -457C615 -465 654 -473 689 -480Z"/>
</svg>