<svg xmlns="http://www.w3.org/2000/svg" viewBox="0 -1000 1000 1000">
	<path fill="#000000" d="M755 -571C732 -579 724 -579 617 -553C631 -692 639 -732 650 -750C665 -772 659 -783 603 -808C562 -827 536 -820 553 -788C575 -749 581 -715 569 -541C497 -523 441 -512 382 -502C384 -581 388 -638 393 -656C398 -675 377 -704 320 -720C296 -727 286 -717 296 -701C325 -653 332 -608 331 -445C330 -261 272 -170 139 -63C109 -39 121 -33 148 -44C275 -96 349 -198 369 -304C402 -295 422 -295 467 -305C510 -315 552 -323 590 -329C603 -331 606 -329 606 -311C610 -149 609 -100 596 -61C588 -38 598 -5 617 35C633 69 643 71 656 37C664 18 666 -2 665 -69C664 -128 661 -213 660 -246C659 -288 672 -311 691 -328C708 -344 707 -356 664 -376C626 -393 616 -393 589 -377C564 -362 468 -340 372 -324C376 -362 381 -420 382 -485C451 -477 516 -484 738 -533C780 -543 773 -565 755 -571Z"/>
</svg>