<svg xmlns="http://www.w3.org/2000/svg" viewBox="0 -1000 1000 1000">
	<path fill="#000000" d="M713 -599C715 -639 685 -692 597 -714C572 -720 565 -710 577 -695C589 -679 603 -661 617 -644C536 -631 434 -618 351 -608C395 -656 463 -720 494 -745C529 -772 533 -787 491 -812C431 -847 416 -830 432 -789C438 -773 401 -708 351 -651C342 -640 322 -623 302 -615C275 -604 268 -589 274 -562C281 -532 290 -526 308 -538C349 -562 463 -591 633 -623C646 -605 660 -590 670 -579C692 -555 711 -560 713 -599ZM897 -307C858 -331 821 -336 783 -328C722 -317 635 -303 544 -289C543 -337 543 -379 543 -406C581 -414 625 -424 676 -440C703 -448 709 -469 685 -476C667 -481 637 -480 616 -472C594 -464 569 -456 543 -449C543 -489 545 -497 547 -504C557 -531 552 -541 512 -555C465 -572 459 -559 478 -532C486 -521 492 -495 493 -436C415 -417 381 -414 357 -418C369 -432 375 -442 381 -450C396 -471 396 -486 356 -503C315 -520 309 -512 317 -489C325 -467 284 -383 212 -312C195 -296 205 -286 222 -295C265 -317 293 -340 345 -405C385 -386 416 -386 493 -397C493 -357 493 -314 493 -281C327 -257 162 -235 129 -241C91 -248 85 -230 111 -215C156 -189 164 -187 208 -199C233 -206 358 -230 493 -248C493 20 495 35 499 59C506 100 519 97 531 61C541 33 546 6 544 -254C660 -267 780 -272 834 -263C917 -249 948 -275 897 -307Z"/>
</svg>