<svg xmlns="http://www.w3.org/2000/svg" viewBox="0 -1000 1000 1000">
	<path fill="#000000" d="M821 -370C851 -393 850 -406 802 -444C755 -479 747 -480 708 -467C684 -458 639 -452 588 -450C663 -611 685 -642 711 -659C744 -680 741 -693 692 -721C651 -744 646 -744 605 -721C554 -693 269 -641 236 -641C192 -641 188 -632 224 -604C250 -584 265 -584 331 -610C342 -614 359 -619 380 -625C390 -591 385 -546 349 -445C296 -290 224 -162 132 -89C102 -66 107 -56 138 -69C267 -120 344 -255 417 -479C430 -520 439 -544 450 -561C469 -588 468 -608 413 -634C467 -649 530 -664 567 -671C619 -682 632 -674 625 -654C580 -516 565 -483 545 -467C525 -450 520 -439 525 -411C528 -394 535 -391 563 -408C582 -420 617 -428 695 -422C735 -419 741 -412 734 -372C719 -285 686 -193 644 -133C619 -95 604 -95 530 -126C504 -137 499 -129 514 -111C547 -71 567 -39 572 -13C577 12 589 19 618 1C688 -42 725 -92 760 -221C790 -336 799 -353 821 -370Z"/>
</svg>