<svg xmlns="http://www.w3.org/2000/svg" viewBox="0 -1000 1000 1000">
	<path fill="#000000" d="M756 -563C781 -568 781 -584 751 -604C724 -622 716 -621 707 -603C702 -593 664 -562 614 -536C602 -530 607 -517 626 -523C667 -537 743 -560 756 -563ZM459 -521C459 -554 438 -567 395 -571C376 -573 367 -563 381 -550C409 -524 419 -517 430 -511C449 -501 459 -506 459 -521ZM767 -457C748 -480 728 -490 662 -490C621 -489 621 -479 644 -467C696 -439 720 -428 742 -420C779 -409 786 -431 767 -457ZM499 -476C520 -490 515 -502 486 -489C444 -469 374 -448 349 -445C326 -442 322 -434 343 -416C362 -401 379 -399 391 -407C425 -429 437 -438 499 -476ZM768 -775C753 -782 731 -790 705 -800C677 -809 671 -808 639 -796C597 -780 424 -748 325 -740C252 -783 241 -780 261 -726C275 -689 263 -539 226 -397C194 -273 151 -168 78 -76C33 -19 40 -9 93 -55C176 -126 235 -223 279 -390C298 -461 312 -526 320 -605C357 -602 383 -603 516 -623C530 -599 535 -560 533 -494C531 -442 532 -434 543 -419C552 -408 565 -409 570 -418C574 -426 575 -432 575 -460C574 -494 577 -558 583 -576C588 -596 585 -604 533 -626C582 -634 652 -646 676 -650C709 -657 712 -665 702 -676C694 -686 718 -714 761 -736C791 -751 792 -762 768 -775ZM895 -236C867 -254 837 -257 768 -246C701 -236 644 -227 582 -218C582 -248 582 -284 582 -306C615 -312 660 -321 712 -333C752 -341 749 -356 722 -365C707 -370 678 -369 647 -361C615 -353 602 -350 582 -345C584 -358 586 -368 587 -371C592 -384 588 -396 559 -407C520 -422 513 -416 529 -382C531 -378 532 -361 532 -335C468 -322 445 -319 414 -317C423 -330 429 -336 437 -344C448 -356 447 -365 414 -381C377 -399 370 -390 376 -369C383 -344 343 -282 308 -247C285 -223 297 -217 320 -231C342 -243 375 -271 400 -299C432 -290 464 -288 534 -299C534 -276 534 -240 533 -212C310 -185 276 -182 235 -181C201 -180 199 -173 235 -155C262 -141 280 -138 310 -144C406 -162 481 -174 534 -180C533 -126 532 -61 532 -13C532 45 533 60 541 83C545 95 560 96 567 78C575 56 579 29 582 -47C583 -64 583 -109 583 -184C706 -196 784 -198 858 -191C933 -184 938 -209 895 -236ZM653 -723C640 -675 637 -673 590 -666C494 -650 374 -633 323 -627C325 -657 327 -687 328 -716C374 -717 412 -721 452 -728C519 -742 583 -753 622 -756C657 -760 662 -756 653 -723Z"/>
</svg>