<svg xmlns="http://www.w3.org/2000/svg" viewBox="0 -1000 1000 1000">
	<path fill="#000000" d="M948 -55C980 -59 983 -70 948 -80C792 -122 731 -150 636 -251C654 -288 667 -332 672 -391C674 -412 680 -433 685 -448C692 -467 687 -480 638 -514C717 -533 828 -566 844 -573C874 -584 870 -597 843 -611C817 -625 774 -616 717 -592C629 -553 564 -533 523 -527C551 -568 583 -621 607 -672C614 -686 638 -727 648 -742C665 -765 664 -773 646 -784C622 -801 609 -809 590 -818C569 -829 559 -816 564 -798C577 -749 558 -660 454 -474C441 -451 448 -445 467 -460C479 -470 494 -488 511 -510C530 -503 573 -502 613 -508C622 -380 621 -331 602 -289C577 -316 548 -350 516 -389C505 -403 476 -421 457 -425C431 -432 430 -424 451 -406C469 -391 492 -367 521 -330C541 -306 562 -281 583 -254C542 -192 464 -129 366 -86C340 -76 340 -67 368 -69C459 -77 567 -149 614 -213C655 -160 696 -110 725 -73C753 -38 770 -28 948 -55ZM428 -272C421 -281 366 -256 291 -217L298 -389C332 -399 363 -409 375 -416C406 -435 404 -452 373 -455C357 -457 332 -455 300 -444C303 -503 306 -538 308 -544C318 -572 316 -588 269 -606C315 -614 363 -630 397 -649C426 -665 422 -685 395 -692C372 -698 339 -690 284 -669C255 -657 188 -641 166 -638C129 -632 131 -618 167 -609C181 -604 213 -603 236 -603C249 -573 259 -519 256 -427C223 -417 176 -402 159 -398C138 -393 138 -380 176 -369C186 -366 217 -371 252 -379L244 -193C190 -167 131 -141 106 -139C64 -135 61 -118 99 -87C135 -58 144 -59 165 -80C196 -113 289 -179 394 -239C427 -258 432 -266 428 -272Z"/>
</svg>