<svg xmlns="http://www.w3.org/2000/svg" viewBox="0 -1000 1000 1000">
	<path fill="#000000" d="M789 -492C811 -492 814 -521 783 -531C752 -541 734 -541 697 -528C682 -523 663 -518 643 -514L648 -595C684 -602 717 -609 732 -615C754 -624 753 -640 729 -648C709 -655 695 -654 654 -641C658 -657 661 -668 662 -675C663 -685 659 -696 642 -705C675 -711 742 -728 757 -735C784 -747 782 -767 757 -774C729 -783 711 -780 660 -758C642 -750 565 -733 542 -730C513 -726 511 -711 537 -703C552 -699 570 -698 593 -699C601 -680 605 -656 605 -625C584 -620 558 -614 542 -611C513 -606 511 -594 537 -585C546 -582 573 -583 604 -588L600 -506C575 -503 548 -499 537 -498C502 -496 496 -485 522 -474C551 -462 559 -461 633 -478C658 -484 756 -492 789 -492ZM463 -523C450 -525 436 -520 370 -494V-565C392 -571 415 -579 438 -590C461 -600 461 -617 437 -622C423 -625 407 -620 372 -607C373 -624 375 -640 378 -653C382 -668 380 -677 352 -686C411 -696 449 -706 461 -712C487 -725 485 -745 461 -753C444 -758 420 -755 363 -735C331 -724 268 -709 245 -706C214 -702 214 -691 240 -683C257 -678 280 -677 312 -680C320 -659 325 -628 326 -594C299 -587 267 -579 251 -576C235 -573 231 -564 269 -554C281 -551 302 -551 326 -555L325 -476C254 -450 206 -438 177 -438C149 -438 146 -428 175 -406C197 -388 208 -387 233 -400C280 -423 422 -483 461 -497C482 -504 482 -520 463 -523ZM950 -205C979 -211 982 -224 949 -229C775 -258 707 -290 487 -429C497 -440 501 -458 474 -474C441 -494 430 -490 429 -466C428 -446 394 -384 368 -351C288 -248 220 -187 101 -113C79 -99 86 -86 107 -92C229 -125 342 -218 451 -379C463 -396 468 -403 472 -408C536 -356 669 -255 732 -212C787 -174 800 -173 950 -205ZM525 -242C533 -281 513 -306 458 -311C438 -313 433 -306 441 -293C456 -266 466 -249 479 -227C495 -202 519 -209 525 -242ZM639 -141C663 -156 665 -168 620 -195C579 -220 574 -220 549 -201C525 -181 413 -157 326 -150C283 -147 282 -139 314 -120C348 -102 361 -103 410 -117C458 -132 503 -146 542 -158C555 -162 561 -159 558 -148C543 -99 504 -31 489 -16C462 11 461 19 462 42C463 77 475 81 508 60C519 53 559 4 591 -74C606 -110 618 -125 639 -141Z"/>
</svg>