<svg xmlns="http://www.w3.org/2000/svg" viewBox="0 -1000 1000 1000">
	<path fill="#000000" d="M875 -532C872 -560 839 -591 778 -601C751 -605 749 -613 757 -621C797 -663 810 -676 844 -712C861 -729 861 -735 850 -745C839 -754 829 -762 806 -775C787 -785 776 -776 787 -746C792 -733 773 -684 735 -619C728 -607 729 -602 749 -587C781 -565 800 -541 837 -511C855 -497 878 -505 875 -532ZM701 -714C712 -727 710 -736 701 -745C690 -754 677 -761 659 -765C638 -769 630 -760 639 -735C644 -721 624 -676 579 -610C571 -598 572 -591 593 -575C607 -565 637 -531 662 -504C679 -485 698 -494 695 -521C692 -549 680 -561 613 -587C592 -595 591 -601 601 -611C640 -648 666 -672 701 -714ZM545 -696C557 -709 555 -719 545 -726C533 -734 516 -742 498 -747C478 -753 465 -746 479 -718C487 -702 468 -654 418 -589C405 -572 408 -569 421 -554C446 -525 473 -496 496 -475C510 -462 532 -468 531 -488C530 -517 517 -533 442 -563C427 -569 425 -579 440 -591C470 -614 510 -654 545 -696ZM400 -273C392 -283 385 -281 272 -228L276 -377C298 -384 320 -393 340 -403C369 -417 367 -437 343 -442C328 -445 321 -444 278 -427C280 -476 281 -517 282 -529C283 -553 279 -571 254 -583C299 -591 327 -602 359 -617C386 -631 387 -646 358 -657C340 -663 302 -657 256 -639C223 -626 162 -611 139 -608C103 -603 108 -594 136 -584C160 -576 186 -574 213 -576C224 -552 230 -508 231 -412C201 -402 163 -390 148 -387C126 -382 130 -366 160 -360C178 -357 203 -359 231 -365V-211C174 -187 110 -166 85 -162C53 -157 49 -146 83 -120C122 -90 131 -88 154 -106C178 -126 272 -191 347 -234C400 -263 404 -268 400 -273ZM872 -353C887 -378 884 -392 850 -408C802 -431 791 -433 755 -423C699 -406 613 -388 529 -375C555 -404 583 -428 609 -447C635 -464 634 -472 596 -490C571 -501 562 -500 560 -480C558 -459 553 -446 503 -372C489 -370 475 -368 462 -367C408 -380 407 -374 418 -352C444 -298 451 -200 440 -82C439 -66 457 -6 465 -6C472 -6 478 -20 482 -70C522 -64 535 -65 596 -74C635 -80 665 -83 689 -85C759 -91 768 -81 795 15C800 31 810 33 825 14C849 -16 866 -98 864 -156C858 -314 860 -331 872 -353ZM808 -329C811 -279 803 -146 795 -103C791 -84 784 -86 768 -102C747 -122 726 -128 654 -116C591 -105 549 -99 483 -92C484 -235 482 -312 475 -348C530 -349 562 -355 628 -369C697 -384 724 -388 756 -389C791 -390 805 -375 808 -329ZM737 -181C728 -200 706 -221 670 -245C702 -277 710 -284 726 -296C742 -308 744 -324 715 -341C689 -355 686 -352 681 -326C679 -317 663 -291 637 -263C615 -275 589 -288 559 -301C529 -313 514 -306 537 -291C570 -269 593 -254 614 -238C585 -208 553 -183 523 -162C494 -142 503 -133 534 -146C572 -162 608 -186 640 -216C658 -202 676 -185 699 -164C737 -128 753 -148 737 -181Z"/>
</svg>