<svg xmlns="http://www.w3.org/2000/svg" viewBox="0 -1000 1000 1000">
	<path fill="#000000" d="M675 -773C670 -796 654 -812 578 -819C566 -820 559 -807 567 -797C582 -778 614 -750 641 -732C661 -720 679 -747 675 -773ZM895 -576C861 -591 848 -591 765 -574C736 -568 702 -562 665 -556C685 -583 699 -599 715 -613C724 -622 721 -635 676 -659C701 -665 726 -671 749 -678C773 -685 777 -698 755 -707C736 -715 692 -712 668 -705C579 -682 516 -668 486 -664C473 -662 470 -652 484 -646C500 -639 528 -634 565 -640C593 -644 624 -648 653 -654C661 -638 658 -603 635 -551C536 -534 428 -519 388 -518C371 -517 360 -508 373 -497C393 -481 398 -480 441 -489C611 -522 770 -540 852 -532C933 -525 922 -565 895 -576ZM572 -582C571 -597 557 -611 526 -620C512 -624 506 -620 510 -607C514 -594 525 -573 537 -557C551 -541 573 -559 572 -582ZM390 -341C382 -350 376 -348 287 -300V-430C304 -436 325 -442 349 -450C375 -457 381 -483 357 -491C345 -495 316 -490 289 -482C291 -516 295 -553 297 -563C302 -589 292 -605 268 -617C315 -629 358 -644 376 -652C396 -663 394 -683 369 -687C346 -691 315 -685 274 -668C248 -658 200 -647 170 -643C139 -639 136 -627 159 -616C178 -607 201 -604 235 -610C243 -591 247 -555 248 -469C219 -460 177 -450 159 -447C141 -444 147 -420 177 -415C193 -412 213 -413 248 -421V-280C170 -240 117 -221 96 -223C72 -225 65 -199 93 -180C130 -156 145 -156 163 -172C177 -186 282 -258 357 -305C377 -317 392 -337 390 -341ZM879 -200C844 -220 810 -223 761 -213C735 -208 685 -201 625 -193C626 -210 628 -224 629 -230C634 -253 629 -262 600 -283C667 -291 677 -289 681 -285C696 -267 720 -272 725 -285C735 -312 776 -388 793 -409C808 -428 807 -436 771 -459C737 -480 720 -484 698 -479C636 -465 534 -448 469 -439C424 -447 415 -440 425 -423C439 -400 447 -381 467 -288C472 -263 478 -257 488 -257C491 -257 496 -262 500 -270C527 -274 549 -276 569 -279C573 -261 576 -231 577 -187C477 -173 376 -161 355 -160C340 -159 333 -153 344 -144C366 -127 395 -121 454 -136C486 -144 529 -151 577 -156C577 -115 576 -65 574 -2C573 22 578 66 583 82C589 101 597 99 604 85C617 57 625 0 624 -160C704 -167 787 -169 838 -160C898 -151 907 -182 879 -200ZM715 -421C710 -386 703 -356 695 -326C693 -317 689 -312 673 -310C640 -306 586 -301 501 -293C499 -313 497 -334 495 -352C522 -347 554 -349 643 -364C668 -368 667 -380 650 -389C638 -396 613 -394 588 -387C545 -375 522 -370 493 -367C491 -389 489 -408 489 -423C515 -425 545 -430 595 -440C635 -447 665 -450 686 -451C706 -452 717 -439 715 -421Z"/>
</svg>