<svg xmlns="http://www.w3.org/2000/svg" viewBox="0 -1000 1000 1000">
	<path fill="#000000" d="M680 -744C673 -777 648 -799 591 -808C555 -813 554 -803 571 -785C608 -743 618 -732 633 -721C656 -704 686 -715 680 -744ZM810 -701C790 -711 759 -709 714 -694C684 -684 523 -644 487 -639C436 -631 426 -623 464 -610C471 -608 511 -608 535 -613C564 -618 598 -625 629 -631C641 -606 639 -581 609 -541C588 -547 561 -553 529 -558C503 -562 504 -551 525 -542C542 -534 565 -525 588 -513C571 -494 547 -471 517 -443C505 -431 510 -423 526 -431C551 -443 578 -463 614 -501C637 -489 661 -476 677 -465C711 -441 723 -454 709 -484C702 -499 682 -515 640 -530C659 -552 679 -576 684 -580C698 -592 695 -599 645 -634C681 -642 712 -648 731 -651C846 -671 847 -683 810 -701ZM392 -311C384 -321 373 -317 281 -265V-417C296 -423 313 -429 333 -437C378 -453 366 -471 342 -476C329 -479 323 -478 282 -463C283 -505 286 -537 288 -547C294 -573 288 -584 248 -597C292 -612 338 -627 361 -634C404 -648 405 -664 369 -672C346 -677 325 -677 262 -650C243 -642 154 -616 143 -615C110 -610 113 -599 140 -589C158 -582 198 -582 219 -588C230 -567 235 -531 236 -447C206 -437 160 -421 146 -418C130 -414 134 -401 164 -395C182 -391 201 -393 236 -403V-240C182 -209 118 -177 94 -177C62 -177 58 -167 93 -135C127 -103 133 -101 154 -121C175 -143 217 -175 349 -269C392 -299 396 -306 392 -311ZM904 -258C923 -279 919 -293 867 -324C837 -343 826 -343 805 -334C793 -328 761 -320 607 -293C616 -316 620 -325 623 -330C635 -349 635 -362 582 -390C637 -402 701 -413 746 -417C745 -406 745 -394 747 -390C751 -380 759 -378 771 -389C780 -397 788 -415 794 -432C813 -489 820 -509 822 -513C835 -536 836 -546 823 -555C806 -567 799 -571 788 -576C760 -589 753 -581 764 -555C770 -539 764 -478 750 -442C625 -424 574 -415 473 -395C477 -417 480 -468 477 -477C474 -487 467 -493 445 -502C405 -519 396 -509 416 -485C431 -467 447 -426 429 -397C418 -379 417 -375 432 -357C444 -343 447 -342 473 -358C484 -365 519 -375 563 -386C578 -365 577 -338 568 -287C477 -271 450 -268 424 -269C377 -289 371 -279 385 -249C397 -222 403 -99 396 -63C393 -47 393 -36 409 -6C420 14 433 16 440 -3C445 -16 448 -53 446 -79C439 -181 436 -223 436 -244C468 -244 504 -249 563 -260C552 -200 542 -182 523 -173C497 -160 496 -145 506 -126C520 -102 532 -101 551 -118C573 -137 635 -170 680 -183C690 -164 699 -147 703 -141C717 -121 733 -121 740 -159C746 -189 729 -216 679 -238C649 -250 646 -248 659 -223C663 -216 667 -207 671 -199C627 -190 591 -180 562 -171C578 -213 589 -245 597 -267C786 -305 815 -304 826 -275C834 -255 828 -128 818 -84C811 -52 795 -44 746 -58C716 -66 714 -63 738 -36C754 -17 777 12 786 31C799 58 816 58 843 18C864 -12 881 -65 882 -100C885 -184 893 -246 904 -258Z"/>
</svg>