<svg xmlns="http://www.w3.org/2000/svg" viewBox="0 -1000 1000 1000">
	<path fill="#000000" d="M237 -271L238 -430C271 -437 302 -446 320 -454C348 -468 342 -489 315 -493C300 -497 281 -496 238 -479C240 -532 245 -554 252 -576C258 -594 250 -604 212 -625C266 -635 308 -645 340 -655C366 -663 363 -686 334 -693C318 -698 297 -699 261 -685C239 -677 166 -658 96 -646C75 -642 78 -631 97 -625C112 -620 145 -620 173 -621C186 -601 192 -565 194 -462C162 -451 129 -444 106 -441C87 -438 80 -418 118 -413C129 -412 159 -415 194 -420L193 -250C129 -221 95 -207 73 -206C36 -204 36 -188 69 -162C101 -137 112 -135 130 -152C159 -177 229 -224 312 -275C350 -299 377 -324 373 -328C366 -335 348 -328 237 -271ZM598 -113C569 -132 536 -155 498 -181C504 -187 511 -193 518 -198C542 -193 570 -193 601 -196C616 -198 636 -200 656 -200C666 -200 670 -194 660 -179C638 -148 623 -132 598 -113ZM554 -747C573 -741 592 -739 634 -738C623 -717 593 -679 561 -644C462 -625 429 -620 395 -616C355 -629 349 -622 360 -604C381 -569 384 -559 388 -534C391 -516 395 -504 407 -481C416 -466 431 -465 434 -480C438 -501 435 -527 430 -547C427 -558 427 -573 428 -593C454 -595 484 -602 544 -615C544 -606 540 -598 530 -583C509 -554 491 -532 466 -505C452 -488 454 -487 475 -496C503 -507 537 -535 561 -560C598 -545 639 -533 667 -525C699 -517 702 -534 690 -547C669 -569 647 -574 572 -574C578 -580 585 -586 592 -589C600 -594 602 -603 582 -623C647 -638 685 -643 727 -646C755 -648 763 -636 761 -617C759 -598 740 -547 725 -525C715 -512 725 -501 743 -509C766 -519 779 -532 808 -572C820 -588 839 -606 853 -616C866 -624 867 -636 845 -650C829 -661 801 -676 788 -681C775 -686 769 -687 734 -679C713 -674 695 -670 599 -651C642 -694 696 -730 722 -739C742 -745 745 -757 702 -790C696 -795 693 -794 680 -789C634 -772 601 -762 570 -766C576 -773 584 -780 591 -784C604 -792 603 -802 560 -823C529 -837 512 -830 516 -811C521 -792 519 -789 488 -747C466 -718 439 -689 406 -660C386 -643 397 -635 419 -646C473 -674 527 -716 554 -747ZM462 -253C469 -256 479 -257 491 -258C481 -235 463 -212 419 -165C379 -124 318 -77 260 -46C227 -29 236 -19 271 -29C345 -51 411 -90 480 -163C513 -134 542 -110 566 -90C493 -39 428 -9 352 12C335 17 334 32 354 30C435 20 516 -9 602 -60C641 -29 669 -7 699 13C733 37 759 38 915 17C936 14 935 -4 914 -6C791 -22 725 -40 642 -87C665 -105 692 -129 699 -138C710 -152 725 -169 733 -172C752 -180 755 -200 721 -221C684 -242 677 -240 664 -234C647 -226 574 -217 534 -216C528 -236 521 -246 504 -260C548 -265 604 -272 643 -276C665 -278 672 -277 675 -272C684 -256 697 -258 710 -282C724 -308 729 -322 735 -379C739 -418 744 -438 749 -443C764 -458 763 -472 722 -491C683 -511 673 -512 646 -504C609 -492 549 -479 460 -464C413 -473 409 -468 418 -445C428 -415 434 -365 430 -332C429 -322 431 -282 435 -269C442 -247 456 -244 462 -253ZM469 -439C538 -451 610 -462 641 -465C669 -467 677 -465 679 -444C682 -414 680 -383 671 -318C669 -303 665 -301 657 -303C652 -304 528 -289 464 -280C465 -293 466 -305 467 -317C512 -315 567 -321 619 -336C646 -343 639 -362 623 -364C612 -365 590 -361 524 -347C494 -341 482 -340 468 -339C468 -352 468 -365 469 -377C520 -379 599 -390 621 -399C646 -408 641 -418 625 -422C603 -428 590 -424 523 -408C502 -403 485 -401 469 -399C469 -413 469 -427 469 -439Z"/>
</svg>