<svg xmlns="http://www.w3.org/2000/svg" viewBox="0 -1000 1000 1000">
	<path fill="#000000" d="M204 -463C212 -438 213 -406 210 -292C206 -189 196 -92 176 -52C167 -35 170 -12 188 24C203 56 235 49 238 -30C241 -112 253 -338 256 -398C260 -459 251 -486 232 -509C248 -540 264 -572 280 -607C296 -644 309 -664 319 -674C334 -690 330 -705 294 -729C251 -759 232 -757 240 -728C252 -688 238 -637 202 -560C153 -456 116 -390 50 -314C36 -299 48 -290 64 -302C119 -344 164 -396 204 -463ZM410 -678C359 -687 356 -673 370 -658C384 -645 396 -615 415 -550C423 -520 436 -520 442 -558C484 -567 532 -576 545 -578C578 -583 579 -587 563 -605C558 -609 558 -629 561 -636C567 -649 573 -659 583 -667C601 -679 603 -693 576 -705C535 -724 521 -721 499 -707C481 -695 443 -683 410 -678ZM440 -586L425 -658C450 -664 477 -672 496 -676C515 -681 519 -677 519 -659C518 -617 509 -605 501 -601C491 -595 470 -590 440 -586ZM654 -714C604 -728 598 -721 611 -698C627 -672 641 -631 650 -591C657 -561 675 -562 683 -598C716 -601 759 -607 784 -612C814 -617 815 -623 803 -635C798 -639 799 -646 804 -651C828 -680 835 -689 838 -691C857 -704 858 -713 840 -724C786 -758 775 -757 756 -745C740 -734 684 -718 654 -714ZM682 -624L671 -692C699 -697 733 -706 753 -713C771 -718 775 -702 767 -677C762 -656 754 -640 744 -636C729 -633 703 -627 682 -624ZM555 -319C560 -294 563 -264 563 -190C563 -164 563 -141 562 -122C530 -107 502 -95 477 -85L480 -152C497 -148 511 -152 531 -160C545 -166 546 -171 544 -174C537 -184 514 -189 499 -180C492 -177 487 -176 481 -176L484 -229C497 -229 509 -231 530 -236C541 -239 545 -244 545 -251C543 -264 521 -267 500 -260C494 -258 489 -256 484 -256C485 -262 485 -266 486 -272C487 -282 484 -293 474 -304C495 -307 521 -312 555 -319ZM744 -328C752 -278 748 -222 733 -178C725 -188 710 -207 698 -224C677 -252 654 -263 629 -267C609 -269 607 -256 626 -245C643 -236 678 -198 716 -144C694 -107 659 -64 598 -31C598 -52 598 -77 598 -110C628 -128 635 -138 632 -141C631 -144 616 -143 598 -137C598 -242 599 -284 600 -292C602 -301 599 -316 590 -327C608 -330 628 -334 650 -339C670 -343 671 -358 661 -364C648 -370 634 -371 612 -364C605 -361 593 -358 576 -354C588 -390 597 -407 612 -415C628 -423 626 -435 601 -449C572 -466 565 -465 550 -456C529 -442 503 -432 467 -423C459 -421 461 -414 476 -409C488 -405 514 -406 542 -413C556 -417 561 -407 547 -347C496 -336 429 -325 399 -321C405 -392 408 -451 406 -479C432 -476 468 -478 516 -485C660 -506 742 -518 807 -525C847 -530 851 -555 831 -561C800 -570 764 -566 711 -555C609 -533 467 -508 402 -505C338 -527 329 -518 344 -485C357 -458 361 -401 348 -278C336 -170 309 -93 255 -3C248 9 259 16 273 3C342 -64 381 -163 397 -302C409 -300 423 -299 442 -301C454 -247 451 -155 441 -69C394 -51 366 -41 352 -37C337 -34 335 -22 361 -5C381 8 389 8 403 0C435 -23 493 -58 562 -91C560 -42 557 -22 551 -6C547 8 547 18 563 52C571 72 590 66 594 38C596 27 597 11 597 -16C668 -33 713 -65 743 -107C767 -72 777 -57 802 -17C816 6 827 10 958 -6C980 -9 979 -21 958 -27C874 -51 821 -81 764 -143C776 -170 783 -199 788 -229C794 -262 799 -289 802 -293C810 -305 809 -317 779 -334C807 -339 837 -345 859 -348C904 -354 907 -366 891 -374C854 -393 830 -388 785 -374C749 -362 719 -352 702 -348C715 -368 726 -386 735 -406C747 -433 754 -443 762 -450C774 -463 774 -477 739 -493C707 -509 696 -499 706 -479C716 -458 695 -380 633 -291C626 -279 633 -273 643 -282C662 -299 677 -315 691 -333C707 -328 724 -326 744 -328Z"/>
</svg>