<svg xmlns="http://www.w3.org/2000/svg" viewBox="0 -1000 1000 1000">
	<path fill="#000000" d="M866 -666C883 -682 881 -690 856 -709C842 -720 818 -734 791 -747C771 -756 767 -756 717 -733C680 -716 585 -692 487 -681C440 -695 434 -679 465 -651C481 -637 505 -573 520 -450C523 -425 528 -411 538 -411C543 -411 549 -415 552 -423C575 -422 591 -424 622 -432C648 -440 677 -447 709 -454C718 -456 735 -457 749 -449C761 -443 771 -442 782 -460C795 -480 804 -503 810 -526C821 -567 837 -623 842 -633C849 -650 858 -660 866 -666ZM454 -249C451 -255 437 -258 348 -225V-331C378 -341 403 -350 413 -354C449 -369 441 -385 406 -383C388 -382 376 -381 348 -373V-472C391 -486 421 -497 434 -505C458 -519 457 -530 435 -533C410 -537 379 -530 348 -518C349 -626 356 -697 361 -710C374 -742 370 -750 327 -769C267 -796 260 -781 284 -750C293 -738 303 -685 304 -499C231 -469 203 -464 181 -473C195 -503 213 -543 220 -561C232 -590 230 -604 190 -617C137 -634 133 -627 153 -596C163 -580 151 -489 99 -375C89 -353 94 -344 115 -365C135 -385 159 -427 173 -456C207 -439 225 -437 304 -459V-360C274 -351 230 -338 213 -334C187 -327 185 -322 204 -312C215 -306 244 -306 304 -320V-209C220 -179 167 -164 147 -163C94 -161 93 -153 132 -122C173 -91 182 -92 214 -117C235 -135 294 -167 400 -214C453 -239 458 -242 454 -249ZM847 -309C871 -338 871 -346 819 -371C787 -387 770 -387 744 -368C736 -362 700 -350 655 -339C660 -348 663 -354 664 -357C676 -384 675 -390 633 -405C604 -416 596 -405 607 -380C609 -375 609 -356 599 -325C554 -315 511 -308 487 -307C443 -306 442 -295 471 -283C489 -275 500 -273 587 -294C533 -185 485 -125 362 -26C335 -5 335 2 365 -8C477 -47 575 -161 613 -243C622 -263 633 -287 642 -308C673 -316 701 -323 740 -332C770 -340 781 -335 775 -262C771 -211 759 -163 744 -124C729 -85 709 -80 651 -108C622 -122 618 -113 634 -95C659 -68 684 -35 695 -7C705 18 715 23 740 2C786 -36 804 -79 818 -175C834 -284 837 -297 847 -309ZM780 -648C776 -608 767 -553 757 -522C745 -480 741 -475 723 -477C711 -479 696 -476 667 -468V-564C699 -572 722 -578 731 -582C746 -588 737 -608 715 -609C704 -610 693 -608 667 -599C668 -633 670 -644 673 -657C677 -671 676 -676 658 -692C688 -699 710 -704 726 -706C778 -712 786 -709 780 -648ZM628 -456C603 -449 580 -445 554 -443C550 -500 536 -581 518 -662C541 -665 573 -672 619 -683C625 -658 628 -639 628 -586C612 -581 595 -576 585 -573C559 -566 555 -559 568 -553C580 -547 592 -548 628 -555Z"/>
</svg>