<svg xmlns="http://www.w3.org/2000/svg" viewBox="0 -1000 1000 1000">
	<path fill="#000000" d="M839 -769C797 -790 777 -792 715 -781C625 -765 426 -736 343 -727C285 -721 214 -718 200 -718C173 -718 170 -706 193 -691C223 -670 232 -668 299 -681C345 -690 435 -703 534 -713C531 -703 520 -692 484 -658C446 -672 441 -663 460 -638C384 -571 271 -505 140 -468C118 -461 117 -447 144 -449C228 -456 387 -521 478 -591C482 -570 484 -546 480 -523C475 -490 481 -469 493 -448C499 -437 529 -440 528 -491C527 -531 525 -581 525 -593C525 -603 523 -613 518 -623C537 -639 558 -654 575 -666C591 -677 593 -688 570 -717C631 -722 723 -725 797 -725C878 -725 894 -743 839 -769ZM821 -543C784 -591 744 -601 642 -614C609 -619 597 -610 624 -596C678 -566 718 -540 765 -505C823 -460 856 -496 821 -543ZM750 -382C770 -411 770 -420 706 -454C683 -465 677 -467 647 -458C585 -440 398 -411 328 -409C272 -424 269 -408 281 -396C296 -379 303 -337 289 -231C279 -158 238 -67 159 11C133 36 137 43 167 28C260 -22 317 -110 337 -223C345 -272 352 -341 352 -382C389 -388 416 -392 466 -399C475 -383 480 -366 478 -312C452 -307 415 -300 392 -298C375 -296 375 -285 388 -282C406 -278 435 -277 478 -281C477 -262 476 -240 474 -211C444 -206 403 -199 381 -197C364 -195 360 -184 377 -178C394 -172 420 -171 472 -177C470 -126 468 -84 469 -58C470 -11 488 -10 500 -58C507 -85 510 -110 514 -183C569 -190 599 -197 619 -205C639 -212 641 -227 615 -233C596 -237 559 -230 516 -220C517 -245 519 -266 520 -287C561 -293 589 -299 611 -308C631 -315 631 -324 599 -332C589 -335 560 -332 524 -324C525 -340 526 -351 527 -357C529 -372 525 -383 500 -404C544 -409 607 -416 633 -417C665 -418 677 -407 679 -383C690 -256 690 -188 685 -103C683 -73 679 -64 620 -73C601 -76 600 -69 613 -58C627 -45 656 -8 673 22C687 47 700 43 713 25C744 -20 753 -59 749 -109C746 -148 743 -201 740 -253C735 -346 736 -361 750 -382Z"/>
</svg>