<svg xmlns="http://www.w3.org/2000/svg" viewBox="0 -1000 1000 1000">
	<path fill="#000000" d="M548 -243C500 -238 435 -232 393 -228C391 -262 389 -298 390 -321C437 -330 519 -340 573 -347C565 -302 557 -269 548 -243ZM580 -385C543 -379 486 -372 395 -359C402 -387 396 -394 355 -410C309 -429 296 -414 310 -401C319 -393 328 -372 334 -349C272 -340 258 -339 241 -338C202 -336 196 -326 226 -315C264 -302 285 -302 341 -313C345 -285 350 -248 351 -224C196 -208 130 -203 102 -204C62 -205 61 -196 96 -175C133 -154 156 -154 252 -175C268 -179 367 -193 409 -196C607 -211 759 -212 858 -200C933 -191 933 -215 881 -253C863 -267 811 -272 760 -265C747 -263 714 -260 592 -247C601 -280 616 -330 625 -353C652 -355 691 -359 705 -359C782 -360 784 -379 760 -395C736 -409 716 -410 648 -396C665 -425 666 -434 625 -455C584 -476 568 -467 582 -437C587 -429 585 -417 580 -385ZM360 -462C417 -473 472 -481 545 -490C587 -496 598 -493 610 -478C616 -470 632 -467 649 -485C665 -502 679 -523 696 -564C731 -650 739 -661 750 -673C772 -694 770 -712 713 -743C668 -767 653 -766 622 -751C592 -737 388 -704 288 -699C233 -719 217 -701 235 -679C257 -654 291 -558 303 -502C316 -445 338 -431 345 -432C356 -434 361 -445 360 -462ZM514 -625C515 -638 518 -645 521 -650C529 -668 526 -678 502 -691C546 -699 594 -709 616 -712C647 -716 667 -703 662 -667C657 -635 647 -600 628 -543C624 -531 611 -520 597 -520C570 -520 536 -519 509 -516L511 -581C538 -586 567 -591 581 -595C612 -606 610 -623 570 -627C549 -629 531 -628 514 -625ZM471 -575L469 -509C431 -503 387 -495 355 -486C343 -542 327 -620 317 -673C371 -676 420 -680 459 -685C465 -672 469 -650 470 -612C447 -607 421 -603 396 -601C370 -599 372 -583 396 -578C420 -573 444 -573 471 -575ZM407 -100C437 -119 435 -135 394 -153C343 -174 327 -167 334 -145C340 -127 320 -91 291 -62C245 -16 207 15 175 37C156 49 161 64 187 54C242 35 309 -6 351 -47C378 -75 397 -94 407 -100ZM737 -31C732 -73 687 -115 571 -162C547 -171 541 -164 556 -146C602 -92 657 -28 687 10C713 41 744 32 737 -31Z"/>
</svg>