<svg xmlns="http://www.w3.org/2000/svg" viewBox="0 -1000 1000 1000">
	<path fill="#000000" d="M744 -771C713 -780 696 -772 675 -764C641 -751 577 -733 528 -730C499 -728 501 -717 520 -709C544 -701 570 -700 621 -707C663 -713 710 -722 740 -734C772 -747 772 -763 744 -771ZM843 -608C861 -623 862 -628 810 -661C773 -684 766 -683 738 -674C709 -664 565 -637 485 -626C443 -645 416 -625 444 -602C457 -591 472 -546 490 -494C504 -454 517 -439 526 -439C529 -439 533 -441 534 -446C561 -453 599 -459 624 -463C684 -472 705 -473 712 -468C724 -458 739 -455 749 -462C764 -474 788 -517 796 -534C804 -551 828 -597 843 -608ZM904 -427C878 -444 839 -445 775 -430C694 -415 459 -378 407 -375C368 -372 373 -368 391 -354C404 -343 416 -343 458 -352C584 -377 794 -401 861 -392C930 -383 944 -405 904 -427ZM402 -673C422 -687 427 -703 379 -724C339 -743 332 -744 317 -728C305 -715 240 -689 174 -684C160 -683 149 -673 178 -662C197 -656 209 -653 247 -664C322 -686 326 -683 323 -663C311 -582 308 -579 289 -571C224 -545 217 -545 187 -557C172 -562 155 -555 168 -537C183 -514 182 -473 161 -449C117 -400 141 -377 163 -395C187 -415 223 -428 277 -433C304 -437 312 -427 313 -398C316 -316 299 -152 291 -125C276 -75 265 -73 219 -73C194 -73 193 -67 216 -50C228 -40 246 -23 260 -7C270 8 278 2 290 -10C334 -56 358 -138 352 -320C351 -354 360 -386 370 -399C390 -422 390 -426 341 -455C307 -474 300 -474 203 -443C212 -479 215 -502 214 -525C243 -525 270 -529 350 -553C361 -556 360 -563 349 -572C337 -583 342 -595 367 -633C374 -645 389 -664 402 -673ZM277 -231C273 -235 257 -231 193 -205L198 -275C218 -281 239 -290 248 -294C273 -306 269 -319 243 -320C233 -320 226 -319 200 -310C201 -325 203 -337 204 -344C206 -358 205 -362 179 -373C162 -381 154 -376 161 -360C164 -352 167 -335 167 -300C141 -293 120 -288 107 -286C91 -283 88 -276 104 -270C118 -265 139 -264 165 -267L162 -191C123 -176 96 -169 78 -167C57 -165 54 -153 77 -139C101 -124 113 -125 128 -136C147 -148 174 -162 255 -207C278 -219 280 -225 277 -231ZM824 -279C845 -298 847 -303 799 -329C766 -348 751 -350 731 -343C689 -326 558 -306 473 -298C436 -310 424 -298 441 -276C450 -265 468 -218 487 -162C501 -120 509 -114 514 -114C518 -114 520 -114 520 -116C551 -119 574 -123 604 -127C684 -138 699 -138 706 -129C715 -117 727 -121 741 -141C753 -157 759 -166 773 -198C786 -223 807 -263 824 -279ZM847 -65C824 -78 801 -82 742 -73C587 -51 451 -43 406 -43C368 -43 364 -35 398 -13C416 -2 422 -1 468 -9C605 -32 740 -34 813 -22C885 -13 896 -37 847 -65ZM771 -620C769 -605 757 -560 736 -510C728 -492 721 -488 713 -493C704 -499 680 -499 634 -491L636 -546C655 -550 675 -555 694 -560C712 -566 719 -576 707 -582C696 -587 682 -585 668 -581C659 -578 647 -574 636 -571C637 -583 638 -593 639 -602C641 -611 640 -617 635 -627C675 -634 712 -640 736 -643C763 -646 773 -638 771 -620ZM605 -485C582 -480 560 -475 529 -469C520 -508 509 -555 495 -600C525 -606 562 -613 598 -620C602 -604 603 -586 604 -563C589 -560 574 -558 561 -557C543 -555 543 -545 561 -540C568 -537 581 -537 604 -540ZM750 -285C746 -261 728 -200 718 -177C709 -155 704 -153 691 -158C678 -162 664 -164 624 -159L627 -215C656 -219 674 -225 685 -230C704 -240 701 -254 672 -252C666 -251 649 -249 629 -246C630 -256 631 -264 632 -272C633 -282 631 -288 622 -296C659 -301 691 -306 715 -309C745 -312 754 -307 750 -285ZM595 -211L594 -154C568 -151 545 -147 518 -142C514 -186 506 -226 494 -277C524 -282 559 -287 591 -292C595 -282 595 -268 595 -240C579 -238 564 -235 552 -233C533 -229 531 -218 548 -212C557 -210 569 -209 595 -211Z"/>
</svg>