<svg xmlns="http://www.w3.org/2000/svg" viewBox="0 -1000 1000 1000">
	<path fill="#000000" d="M653 -722C658 -782 605 -806 518 -796C493 -793 493 -785 512 -767C533 -747 583 -708 604 -698C629 -686 651 -696 653 -722ZM256 -444C263 -479 234 -516 185 -541C158 -554 149 -552 158 -522C166 -493 185 -451 208 -419C223 -399 247 -405 256 -444ZM792 -669C772 -678 750 -677 695 -661C593 -631 493 -611 368 -593C303 -638 286 -615 314 -580C327 -563 325 -426 312 -354C208 -296 120 -269 101 -272C61 -278 55 -262 103 -213C125 -191 136 -192 188 -233C216 -255 244 -274 304 -316C263 -159 229 -105 115 18C94 41 100 53 132 33C212 -17 300 -118 340 -250C368 -339 383 -486 380 -564C441 -559 509 -568 773 -619C826 -629 837 -650 792 -669ZM928 -83C897 -113 852 -126 817 -120C788 -115 755 -110 646 -89L652 -253C688 -246 708 -248 782 -261C818 -267 820 -293 798 -302C772 -313 746 -312 654 -280C656 -342 659 -380 661 -386C667 -404 666 -417 634 -435C677 -444 739 -457 761 -463C804 -474 810 -486 792 -499C773 -513 728 -515 687 -502C587 -471 544 -462 483 -452C459 -448 460 -439 481 -430C497 -424 539 -421 590 -427C604 -393 606 -288 601 -83C575 -79 535 -75 494 -71C493 -188 495 -230 501 -263C505 -287 503 -301 473 -318C424 -346 414 -328 432 -299C442 -284 449 -202 452 -67C389 -60 330 -55 322 -55C286 -55 285 -42 310 -26C340 -8 358 -6 403 -18C457 -34 539 -43 632 -51C705 -57 826 -56 876 -48C939 -38 949 -63 928 -83Z"/>
</svg>