<svg xmlns="http://www.w3.org/2000/svg" viewBox="0 -1000 1000 1000">
	<path fill="#000000" d="M597 -749C585 -780 548 -798 487 -797C466 -797 458 -791 469 -778C495 -745 529 -716 553 -709C590 -699 605 -727 597 -749ZM234 -458C238 -484 227 -510 166 -543C146 -554 135 -549 139 -525C143 -503 162 -464 179 -438C197 -411 228 -416 234 -458ZM762 -664C788 -669 789 -692 754 -701C718 -711 693 -708 652 -697C551 -672 447 -651 353 -639C288 -667 268 -653 287 -628C309 -600 307 -473 292 -365C165 -304 119 -291 88 -290C69 -289 59 -273 92 -243C121 -217 128 -215 151 -237C186 -267 213 -288 288 -336C270 -229 229 -115 144 -20C108 20 118 28 158 1C222 -45 271 -105 311 -217C325 -258 335 -312 342 -373C353 -466 361 -583 353 -616C413 -609 470 -615 604 -639C643 -646 722 -658 762 -664ZM978 -77C1003 -82 1005 -98 978 -102C850 -118 725 -161 631 -217C717 -273 764 -303 777 -306C795 -311 791 -334 755 -348C713 -367 706 -361 706 -342C706 -328 684 -286 613 -228C568 -257 514 -289 479 -308C480 -312 480 -317 480 -321C499 -320 516 -323 537 -330C562 -337 611 -343 617 -339C635 -330 643 -332 654 -348C662 -358 671 -381 692 -446C703 -480 713 -499 728 -511C745 -525 745 -532 727 -545C706 -559 686 -566 667 -575C645 -585 631 -585 615 -576C585 -561 515 -545 460 -540C420 -557 410 -550 424 -524C432 -509 440 -423 440 -352C440 -291 436 -165 430 -107C426 -65 418 -46 406 -34C390 -17 392 -10 414 24C434 54 446 53 464 30C490 -4 541 -55 597 -99C609 -108 606 -118 586 -110C559 -99 508 -77 472 -58C474 -105 477 -201 478 -286C514 -263 568 -223 588 -206C640 -162 706 -111 755 -75C792 -49 804 -47 978 -77ZM641 -521C640 -498 636 -469 632 -446C629 -426 624 -398 618 -380C615 -370 607 -368 599 -368C587 -369 560 -365 536 -357C523 -352 502 -347 480 -344C481 -368 482 -403 483 -430C513 -417 549 -423 585 -435C609 -444 610 -453 591 -463C584 -466 571 -467 549 -465C535 -464 513 -457 484 -448C485 -470 483 -498 478 -519C498 -518 517 -519 539 -524C564 -528 593 -532 617 -534C636 -537 642 -530 641 -521Z"/>
</svg>