<svg xmlns="http://www.w3.org/2000/svg" viewBox="0 -1000 1000 1000">
	<path fill="#000000" d="M604 -745C597 -776 569 -804 498 -804C475 -806 473 -800 483 -783C494 -763 533 -720 559 -704C587 -685 613 -708 604 -745ZM233 -435C246 -485 236 -510 172 -545C140 -562 134 -558 143 -528C160 -491 169 -467 183 -430C196 -395 223 -401 233 -435ZM940 -128C935 -148 931 -192 928 -233C927 -273 917 -272 908 -230C892 -155 877 -136 840 -122C811 -112 780 -111 760 -115C689 -122 676 -159 676 -255C676 -287 677 -321 679 -353C709 -366 737 -379 757 -393C779 -406 806 -422 813 -424C872 -451 873 -457 828 -497C795 -528 781 -524 780 -481C779 -467 741 -419 680 -375C684 -442 690 -494 694 -507C711 -555 709 -563 672 -582C628 -607 614 -594 638 -546C644 -533 645 -478 640 -257C637 -130 653 -84 740 -57C772 -49 826 -48 869 -60C942 -79 950 -91 940 -128ZM761 -652C794 -659 792 -676 756 -687C734 -692 707 -694 673 -683C540 -645 448 -620 358 -615C291 -661 281 -642 301 -603C310 -583 313 -461 289 -329C150 -246 124 -234 94 -236C60 -237 58 -219 108 -173C119 -162 128 -162 146 -182C174 -208 202 -233 282 -296C260 -189 219 -83 132 15C104 50 108 58 142 34C238 -28 296 -151 324 -289C343 -383 363 -524 363 -593C402 -584 425 -586 476 -595C549 -607 629 -622 761 -652ZM617 -219C611 -226 604 -226 534 -197L532 -345C558 -344 583 -351 607 -363C632 -376 627 -396 613 -399C598 -403 576 -396 532 -374C530 -408 534 -439 540 -451C555 -483 545 -498 510 -509C457 -529 449 -520 479 -478C489 -462 493 -432 498 -182C476 -174 453 -165 433 -157C429 -256 429 -278 431 -297C432 -336 428 -341 402 -353C365 -372 357 -359 381 -318C388 -307 393 -259 401 -145C370 -133 345 -124 340 -124C294 -125 289 -110 321 -87C347 -64 360 -66 383 -82C401 -94 442 -119 518 -156C617 -207 620 -215 617 -219Z"/>
</svg>