<svg xmlns="http://www.w3.org/2000/svg" viewBox="0 -1000 1000 1000">
	<path fill="#000000" d="M228 -452C233 -483 219 -511 156 -546C130 -560 121 -551 134 -524C150 -493 170 -450 179 -433C191 -407 221 -407 228 -452ZM593 -730C581 -770 571 -781 488 -780C463 -780 459 -778 478 -758C512 -724 537 -707 562 -693C590 -678 603 -695 593 -730ZM275 -342C250 -213 177 -83 87 7C52 42 59 51 97 29C183 -22 293 -176 322 -311C348 -431 358 -531 355 -599C407 -596 448 -600 582 -614C667 -623 736 -633 793 -641C831 -646 834 -660 798 -677C769 -690 755 -688 686 -675C482 -636 410 -625 344 -625C290 -665 267 -652 281 -620C298 -579 298 -490 281 -372C139 -302 117 -298 83 -298C44 -298 41 -284 82 -256C119 -230 133 -228 149 -247C168 -273 191 -287 275 -342ZM485 -437C472 -445 464 -451 447 -462C429 -473 420 -470 424 -449C429 -420 394 -370 365 -351C350 -341 347 -332 368 -314C395 -293 422 -260 435 -221C441 -203 465 -210 468 -230C474 -272 466 -281 398 -326C388 -333 388 -337 394 -343C422 -371 448 -392 482 -413C490 -417 492 -431 485 -437ZM622 -416C635 -427 629 -440 594 -465C573 -479 560 -471 567 -448C573 -430 539 -367 508 -344C494 -334 496 -327 510 -316C543 -294 566 -269 583 -232C593 -212 618 -219 619 -242C621 -272 612 -296 555 -322C537 -330 537 -332 551 -348C580 -382 601 -401 622 -416ZM771 -427C785 -438 785 -446 750 -472C714 -499 699 -487 707 -466C712 -454 710 -444 697 -411C684 -380 668 -356 654 -343C641 -330 641 -322 660 -311C695 -290 724 -256 733 -227C741 -202 770 -207 772 -240C774 -280 752 -298 693 -325C681 -330 680 -333 691 -345C727 -387 746 -408 771 -427ZM728 -532C750 -536 755 -551 727 -560C695 -571 668 -571 629 -559C539 -534 495 -525 442 -521C426 -520 425 -508 440 -504C474 -496 508 -495 593 -507C635 -514 666 -520 728 -532ZM587 -141C649 -148 687 -155 735 -162C762 -166 759 -182 736 -192C713 -201 688 -202 636 -190C584 -177 485 -162 422 -159C402 -158 403 -148 417 -142C439 -133 467 -129 541 -136C555 -110 558 -86 553 -29C431 -18 309 -9 262 -10C242 -10 236 0 253 9C299 35 314 38 355 29C424 14 497 4 595 -1C717 -7 790 -9 890 5C919 9 931 -14 908 -30C859 -66 844 -67 786 -58C738 -50 671 -41 600 -34C603 -65 606 -84 616 -107C623 -121 615 -126 587 -141Z"/>
</svg>