<svg xmlns="http://www.w3.org/2000/svg" viewBox="0 -1000 1000 1000">
	<path fill="#000000" d="M457 -467C460 -508 463 -531 467 -540C476 -559 476 -567 442 -579C403 -593 394 -580 405 -562C412 -552 417 -522 417 -455C372 -444 354 -441 334 -441C321 -441 321 -432 332 -425C352 -414 374 -413 417 -420C417 -291 407 -163 395 -109C388 -80 391 -53 397 -35C411 7 424 4 436 -33C442 -52 444 -65 443 -113C442 -139 446 -289 454 -428C469 -431 487 -435 506 -439C537 -446 541 -470 509 -473C498 -474 481 -473 457 -467ZM642 -446C642 -165 642 -133 637 -108C629 -73 632 -25 645 -1C653 14 661 16 674 -6C685 -25 690 -74 686 -109C682 -165 678 -301 678 -451C704 -455 734 -459 772 -467C817 -475 816 -485 794 -498C772 -510 761 -507 680 -485C682 -526 684 -547 690 -558C699 -578 692 -592 660 -604C616 -620 615 -601 627 -582C635 -571 639 -522 641 -477C615 -473 588 -470 560 -467C538 -465 540 -453 557 -448C575 -442 595 -441 642 -446ZM576 -738C567 -768 540 -783 481 -792C457 -796 454 -788 468 -768C492 -738 518 -713 539 -698C567 -680 587 -703 576 -738ZM213 -458C216 -502 200 -523 150 -543C121 -555 116 -548 124 -531C144 -485 156 -461 176 -437C190 -417 211 -427 213 -458ZM232 -342C211 -216 165 -99 86 -1C65 25 70 36 103 11C202 -61 263 -207 292 -409C304 -496 312 -560 315 -611C347 -610 395 -612 442 -617C519 -625 564 -630 759 -653C791 -657 794 -680 760 -690C736 -698 702 -697 663 -688C559 -664 401 -641 304 -638C250 -677 231 -669 246 -634C260 -600 258 -516 237 -377C120 -298 98 -293 67 -291C41 -289 36 -274 84 -246C115 -228 122 -229 135 -246C154 -271 185 -303 232 -342ZM608 -339C615 -362 615 -369 580 -378C547 -386 543 -381 558 -360C563 -350 571 -287 565 -239C556 -168 546 -132 503 -71C481 -40 491 -34 520 -62C577 -118 598 -181 599 -294C599 -304 602 -319 608 -339ZM379 -318C387 -337 383 -348 350 -356C318 -364 314 -358 328 -337C333 -328 333 -270 319 -224C300 -158 283 -126 244 -88C221 -65 227 -53 261 -75C323 -116 351 -170 367 -269C371 -292 374 -305 379 -318ZM909 -118C901 -137 894 -163 892 -201C891 -223 878 -221 875 -200C860 -115 848 -112 812 -109C770 -105 755 -126 756 -208C759 -311 759 -319 772 -348C782 -371 786 -381 747 -398C706 -415 702 -401 712 -386C724 -371 727 -346 724 -302C720 -253 719 -236 722 -157C725 -96 747 -68 794 -64C840 -60 853 -64 881 -75C914 -89 918 -96 909 -118ZM520 -330C527 -354 523 -363 497 -369C468 -377 459 -372 468 -355C475 -342 478 -328 479 -301C480 -245 480 -244 479 -224C478 -201 479 -173 480 -155C487 -98 508 -98 512 -156C513 -173 515 -199 514 -225C512 -291 513 -311 520 -330Z"/>
</svg>