<svg xmlns="http://www.w3.org/2000/svg" viewBox="0 -1000 1000 1000">
	<path fill="#000000" d="M407 -165C405 -199 395 -198 385 -173C373 -146 352 -118 338 -104C329 -95 324 -88 318 -54C312 -20 332 -17 356 -41C385 -72 408 -120 407 -165ZM785 -78C781 -131 760 -152 674 -173C641 -181 639 -172 653 -157C686 -123 719 -87 746 -57C767 -34 788 -44 785 -78ZM450 -355C523 -367 599 -379 606 -381C635 -387 646 -386 643 -353C642 -338 634 -287 631 -274C626 -252 619 -247 603 -252C588 -258 558 -256 465 -234C464 -249 463 -265 461 -279C493 -279 565 -291 587 -298C613 -306 615 -317 589 -326C576 -330 549 -326 459 -299C457 -317 454 -336 450 -355ZM408 -430C405 -446 394 -461 359 -470C335 -477 331 -470 343 -451C360 -425 370 -414 386 -400C402 -385 413 -402 408 -430ZM511 -491C535 -495 549 -498 589 -505C623 -466 651 -436 751 -346C788 -313 799 -309 905 -327C943 -333 939 -344 917 -349C827 -370 776 -387 712 -432C742 -454 764 -464 788 -473C811 -481 813 -491 787 -510C748 -539 740 -535 742 -512C743 -502 730 -477 696 -444C672 -462 646 -482 614 -509C645 -514 671 -518 695 -523C721 -528 722 -544 701 -553C683 -562 656 -561 631 -553C597 -543 564 -534 532 -527C540 -538 549 -550 560 -562C575 -582 574 -593 534 -613C506 -626 495 -624 502 -600C506 -583 499 -555 481 -517C448 -511 421 -507 400 -506C376 -505 371 -491 399 -487C415 -484 432 -482 465 -485C423 -406 376 -350 284 -289C265 -276 268 -267 288 -275C334 -294 372 -319 406 -350C418 -328 425 -295 433 -231C436 -203 446 -184 455 -186C461 -187 465 -192 466 -209C480 -213 497 -216 513 -219C527 -181 535 -108 531 -55C528 -22 516 -17 464 -30C439 -36 434 -29 454 -15C489 12 507 29 516 51C524 68 540 67 555 45C582 4 585 -21 579 -71C575 -103 575 -163 581 -179C589 -202 584 -210 546 -225C583 -230 613 -230 615 -224C623 -208 641 -207 651 -228C657 -239 664 -258 675 -294C684 -325 690 -336 702 -351C713 -366 715 -376 681 -400C651 -420 639 -422 624 -416C574 -398 484 -381 436 -379H435C465 -412 490 -449 511 -491ZM566 -738C557 -768 530 -783 471 -792C447 -795 443 -788 458 -768C481 -738 507 -713 529 -698C554 -682 577 -698 566 -738ZM202 -458C205 -502 190 -523 139 -543C111 -555 107 -548 114 -531C136 -478 148 -459 165 -437C180 -418 200 -427 202 -458ZM230 -349C211 -223 176 -111 93 -16C68 13 77 18 106 -3C200 -73 255 -196 285 -409C302 -535 307 -573 309 -610C341 -610 388 -613 432 -617C557 -629 645 -640 748 -653C781 -657 783 -678 749 -688C726 -696 692 -697 652 -688C550 -664 396 -642 298 -639C245 -677 226 -669 240 -634C255 -600 255 -518 235 -382C110 -298 88 -293 57 -291C30 -289 26 -274 74 -246C104 -228 112 -229 125 -246C145 -272 179 -307 230 -349Z"/>
</svg>