<svg xmlns="http://www.w3.org/2000/svg" viewBox="0 -1000 1000 1000">
	<path fill="#000000" d="M722 -724C747 -733 746 -754 703 -772C652 -793 637 -787 638 -769C639 -753 625 -730 571 -683C555 -670 563 -662 588 -672C649 -697 693 -713 722 -724ZM358 -661C357 -695 324 -718 265 -721C249 -722 242 -714 251 -701C263 -685 299 -646 312 -638C339 -621 359 -626 358 -661ZM952 -226C989 -229 987 -248 951 -258C827 -295 754 -321 576 -472C624 -477 665 -481 688 -481C792 -481 809 -505 774 -523C734 -544 705 -542 639 -522C604 -512 523 -497 436 -482C444 -504 451 -529 459 -556C502 -562 554 -574 615 -590C665 -603 673 -620 651 -626C621 -635 599 -637 531 -617C513 -612 492 -607 471 -602C479 -634 487 -671 496 -710C500 -726 503 -740 512 -753C526 -774 526 -786 473 -804C430 -818 418 -805 430 -782C441 -760 436 -677 420 -590C374 -580 330 -572 304 -569C282 -566 282 -556 302 -550C322 -544 358 -543 411 -549C405 -523 398 -498 390 -474C316 -463 244 -453 201 -449C180 -447 178 -436 188 -428C218 -406 251 -408 278 -418C297 -425 333 -433 377 -442C326 -323 228 -217 75 -132C56 -120 56 -109 81 -114C148 -129 264 -194 350 -309C360 -253 348 -135 327 -62C310 -3 332 36 345 38C356 40 369 25 376 -18C421 -23 501 -31 528 -32C551 -33 561 -25 579 24C605 98 617 106 647 53C665 23 675 -26 670 -79C653 -252 653 -282 659 -295C667 -317 663 -325 596 -366C572 -381 561 -382 541 -375C498 -359 453 -349 380 -341L375 -344C394 -374 411 -409 425 -450C463 -456 502 -462 540 -467C592 -423 673 -347 717 -293C773 -227 811 -215 952 -226ZM599 -57C596 -34 590 -31 577 -44C554 -67 536 -74 493 -65C466 -60 429 -54 380 -50C383 -77 385 -104 386 -133C431 -124 471 -126 518 -141C539 -147 544 -151 543 -159C542 -169 524 -178 503 -173C480 -167 453 -163 387 -150C389 -174 390 -197 390 -220C441 -218 478 -223 525 -239C550 -247 548 -264 523 -267C508 -269 486 -265 391 -237C391 -263 391 -289 390 -313C434 -322 492 -330 521 -334C574 -339 586 -329 592 -293C599 -251 605 -104 599 -57Z"/>
</svg>