<svg xmlns="http://www.w3.org/2000/svg" viewBox="0 -1000 1000 1000">
	<path fill="#000000" d="M853 -611C868 -628 863 -634 803 -672C766 -696 756 -695 735 -680C714 -666 676 -654 632 -650C614 -648 609 -638 623 -631C635 -624 643 -624 659 -629C676 -633 703 -639 726 -641C759 -644 773 -634 773 -610C773 -593 770 -569 766 -540C730 -553 712 -551 648 -536C637 -533 634 -526 648 -516C667 -505 672 -504 764 -521C760 -497 755 -469 749 -441C742 -409 740 -405 724 -413C713 -420 688 -416 501 -379C496 -424 491 -462 486 -495C518 -493 539 -497 576 -507C594 -512 594 -527 570 -534C553 -539 538 -539 526 -534C506 -525 494 -520 483 -517C476 -566 469 -601 464 -621C583 -702 612 -726 617 -727C642 -735 642 -750 589 -772C561 -783 545 -778 547 -761C550 -738 530 -705 448 -628C397 -630 391 -620 407 -595C428 -560 436 -532 466 -366C472 -334 496 -331 502 -359C701 -393 730 -392 737 -378C750 -353 770 -359 782 -389C795 -422 802 -446 826 -559C829 -573 841 -598 853 -611ZM368 -606C384 -630 383 -641 342 -662C312 -677 294 -678 272 -664C237 -641 215 -633 172 -624C118 -651 108 -640 126 -608C143 -579 150 -517 149 -399C148 -230 146 -210 139 -187C129 -150 152 -97 167 -97C180 -97 185 -111 189 -169C221 -171 253 -173 278 -177C302 -180 305 -174 299 -156C294 -139 311 -69 322 -69C336 -69 357 -123 356 -209C355 -289 354 -357 353 -453C352 -547 356 -588 368 -606ZM587 -298C597 -313 595 -327 574 -348C557 -366 537 -368 533 -327C530 -294 512 -253 471 -187C440 -137 410 -102 336 -43C308 -20 320 -14 348 -23C424 -49 495 -119 563 -255C575 -278 584 -294 587 -298ZM963 -80C953 -116 948 -147 947 -191C946 -224 937 -221 931 -189C909 -78 875 -57 806 -54C730 -50 697 -69 685 -130C676 -176 678 -265 690 -294C703 -326 704 -335 675 -362C654 -381 631 -382 642 -347C646 -333 647 -286 645 -270C637 -206 637 -147 643 -112C658 -25 707 8 807 8C857 8 912 -4 937 -18C968 -35 972 -46 963 -80ZM308 -229C307 -207 295 -201 290 -207C284 -214 266 -212 190 -193C192 -226 192 -269 191 -323C231 -311 251 -314 279 -327C298 -335 293 -354 265 -356C250 -357 230 -354 191 -340C190 -377 189 -415 188 -453C226 -445 249 -449 272 -461C287 -469 288 -480 274 -485C256 -492 244 -490 187 -473C185 -525 183 -573 180 -608C199 -607 213 -609 257 -620C289 -629 297 -623 299 -592C310 -411 312 -319 308 -229Z"/>
</svg>