<svg xmlns="http://www.w3.org/2000/svg" viewBox="0 -1000 1000 1000">
	<path fill="#000000" d="M470 -733C452 -740 442 -738 397 -723C387 -719 373 -715 354 -711C355 -724 360 -753 362 -758C369 -775 363 -789 336 -798C286 -817 278 -807 297 -777C311 -756 316 -734 316 -702C264 -692 205 -681 182 -679C147 -676 147 -669 168 -658C181 -651 191 -650 316 -675L315 -617C292 -612 261 -605 242 -601C210 -596 207 -588 236 -579C242 -577 274 -580 325 -593C357 -600 404 -608 419 -611C457 -618 464 -633 446 -641C431 -648 422 -648 352 -626L353 -682C421 -695 457 -701 469 -703C495 -709 498 -724 470 -733ZM928 -361C958 -370 954 -381 915 -384C787 -394 747 -402 653 -455C663 -467 673 -482 682 -497C704 -534 706 -540 718 -549C743 -567 747 -576 714 -594C685 -609 674 -608 659 -597C653 -594 636 -588 611 -580L617 -654C695 -667 721 -674 752 -682C809 -696 807 -704 772 -718C758 -724 726 -722 702 -711C679 -701 655 -693 619 -684L622 -720C623 -733 631 -758 637 -772C648 -799 642 -809 607 -826C579 -840 551 -833 567 -801C579 -777 586 -758 584 -718L582 -676C560 -672 536 -667 506 -662C471 -658 472 -648 506 -641C516 -639 527 -639 581 -648L577 -572C564 -569 550 -566 535 -564C498 -559 498 -550 522 -540C529 -537 539 -536 558 -542C664 -574 667 -571 655 -535C647 -514 635 -494 619 -473C562 -506 524 -521 503 -523C475 -525 473 -509 497 -501C535 -490 561 -476 598 -450C567 -417 528 -391 487 -376C450 -364 453 -347 509 -364C557 -378 595 -399 628 -428C746 -340 767 -333 793 -335C827 -337 902 -353 928 -361ZM440 -533C454 -547 453 -556 416 -565C396 -571 385 -572 367 -564C326 -546 278 -533 228 -529C190 -533 184 -519 202 -507C210 -501 228 -470 238 -449C243 -436 255 -434 261 -441C306 -454 319 -458 364 -466C429 -476 432 -483 425 -490C419 -496 418 -499 421 -507C424 -518 429 -524 440 -533ZM459 -390C456 -397 446 -399 410 -387C399 -383 388 -380 378 -377C390 -406 394 -412 401 -419C415 -434 412 -442 394 -452C358 -469 355 -465 359 -444C362 -429 360 -407 344 -368C322 -361 300 -354 279 -348C286 -396 284 -403 263 -412C236 -425 228 -415 237 -395C242 -383 249 -371 263 -344C181 -323 124 -312 108 -314C75 -318 72 -303 102 -279C123 -262 139 -260 164 -274C183 -285 251 -309 429 -367C456 -376 461 -386 459 -390ZM677 -47C662 -247 663 -265 671 -277C689 -306 691 -310 641 -336C608 -353 595 -352 561 -342C489 -321 449 -315 359 -308C312 -319 306 -311 327 -281C344 -259 344 -144 323 -48C315 -10 328 49 347 49C359 49 366 36 370 -7C401 -6 443 -10 526 -21C567 -27 575 -22 591 16C610 63 615 70 626 70C650 69 680 -6 677 -47ZM376 -518C374 -500 372 -494 361 -488C353 -484 297 -470 263 -465C259 -484 255 -496 250 -512C287 -521 340 -532 356 -533C372 -534 377 -531 376 -518ZM617 -51C616 -27 606 -23 586 -40C566 -56 556 -59 371 -30C371 -36 372 -41 372 -47C373 -74 374 -96 374 -116C415 -113 484 -121 551 -138C576 -143 574 -156 551 -163C537 -167 516 -163 374 -131C375 -159 375 -179 375 -199C415 -198 484 -204 549 -221C574 -228 572 -240 549 -245C535 -249 515 -247 376 -214C376 -248 375 -269 373 -283C398 -285 436 -292 534 -309C583 -318 601 -313 606 -283C619 -191 621 -101 617 -51Z"/>
</svg>