<svg xmlns="http://www.w3.org/2000/svg" viewBox="0 -1000 1000 1000">
	<path fill="#000000" d="M756 -464C744 -471 718 -471 640 -460C641 -540 645 -598 654 -616C663 -638 662 -643 627 -664C608 -674 589 -675 561 -668C551 -666 521 -660 488 -654C499 -671 507 -685 515 -706C574 -712 636 -719 681 -725C724 -730 720 -746 688 -760C674 -765 643 -765 622 -760C591 -752 561 -745 529 -739C535 -755 540 -766 543 -771C556 -791 552 -799 511 -807C478 -815 474 -805 484 -783C487 -777 487 -761 481 -734C440 -728 393 -723 336 -719C306 -717 300 -709 325 -697C336 -692 348 -690 368 -691C390 -693 429 -696 474 -702C470 -687 465 -669 461 -650C439 -647 416 -644 395 -642C359 -648 356 -640 371 -615C383 -598 387 -535 380 -430C311 -423 251 -418 238 -418C197 -418 194 -412 224 -397C236 -390 293 -390 325 -395C504 -419 691 -435 725 -429C789 -418 790 -445 756 -464ZM898 -14C875 -27 846 -30 751 -19C755 -188 759 -222 768 -235C780 -253 777 -263 750 -277C732 -285 719 -288 698 -282C683 -277 643 -270 601 -263C610 -278 621 -297 630 -316C692 -322 763 -329 785 -332C821 -336 827 -348 796 -362C781 -367 752 -369 731 -364C719 -360 683 -354 644 -348C650 -359 654 -366 656 -369C666 -384 660 -392 632 -405C603 -416 594 -408 603 -384C607 -374 608 -361 605 -343C569 -339 536 -334 518 -333C482 -330 480 -319 497 -312C508 -307 521 -307 541 -309C555 -310 575 -312 599 -314C595 -298 588 -280 580 -259C569 -257 560 -256 550 -254C508 -264 502 -256 517 -233C530 -215 531 -150 522 2C477 6 440 8 430 8C396 9 390 13 414 31C433 45 443 47 489 36C580 14 736 9 865 27C930 35 940 9 898 -14ZM468 -54C465 -61 461 -63 425 -58C433 -201 437 -230 445 -243C457 -258 456 -264 423 -281C405 -290 392 -290 368 -281C357 -277 337 -272 311 -268C320 -283 330 -298 338 -312C369 -316 402 -322 439 -332C461 -338 465 -351 446 -359C440 -361 410 -355 391 -349C382 -346 371 -345 359 -342C376 -366 372 -375 346 -384C326 -391 320 -385 320 -369C321 -363 319 -352 314 -335C288 -331 259 -328 229 -326C206 -324 203 -319 218 -314C228 -309 247 -305 258 -305C273 -305 289 -306 303 -308C299 -295 295 -281 287 -264C274 -262 261 -260 248 -258C200 -270 197 -265 209 -240C222 -215 224 -155 220 -23C139 -12 95 -9 85 -12C54 -21 45 -7 76 23C96 42 106 46 133 38C165 28 242 8 375 -23C464 -44 470 -47 468 -54ZM593 -602C595 -572 594 -520 590 -453C542 -445 475 -439 413 -433C414 -445 415 -458 415 -473C448 -466 483 -469 540 -481C563 -485 563 -496 538 -501C527 -504 483 -498 416 -484C416 -498 416 -510 416 -524C446 -521 479 -525 526 -534C561 -541 557 -552 524 -555C514 -556 469 -550 417 -540C417 -551 417 -563 417 -574C447 -572 476 -576 538 -590C564 -596 562 -605 531 -609C515 -611 483 -605 417 -589C417 -602 416 -614 416 -625C478 -637 526 -642 550 -644C580 -645 591 -637 593 -602ZM391 -225C392 -205 388 -121 383 -51C333 -41 290 -34 252 -28C253 -41 254 -55 254 -69C278 -65 300 -67 338 -76C361 -81 362 -95 335 -99C328 -100 301 -96 255 -86C256 -101 256 -116 256 -131C279 -127 294 -129 340 -139C357 -143 361 -158 336 -160C326 -161 305 -157 257 -145C257 -158 257 -172 257 -185C287 -183 318 -187 333 -194C351 -202 359 -217 333 -217C324 -217 311 -215 257 -201C257 -216 257 -228 256 -241C297 -249 339 -253 355 -254C386 -256 389 -254 391 -225ZM709 -215C711 -185 710 -86 706 -15C668 -11 609 -5 557 -1C558 -17 559 -36 560 -55C591 -50 621 -52 664 -64C677 -68 682 -82 665 -86C654 -88 625 -85 560 -70C560 -86 561 -102 561 -118C585 -116 607 -118 652 -127C675 -132 676 -149 649 -152C639 -152 609 -147 562 -135C562 -151 563 -165 563 -180C590 -179 609 -180 657 -190C680 -195 681 -211 655 -214C641 -216 624 -212 564 -197C564 -212 564 -225 564 -238C608 -247 646 -250 670 -252C703 -254 707 -249 709 -215Z"/>
</svg>