<svg xmlns="http://www.w3.org/2000/svg" viewBox="0 -1000 1000 1000">
	<path fill="#000000" d="M576 -141C576 -173 566 -190 519 -206C496 -214 491 -211 499 -190C508 -166 522 -141 541 -118C555 -101 576 -106 576 -141ZM596 -443C567 -438 538 -433 509 -428C498 -467 491 -496 480 -531C508 -537 567 -548 599 -554L598 -512C568 -508 557 -506 540 -503C515 -499 514 -492 526 -486C540 -478 556 -477 597 -483ZM642 -562C687 -570 706 -572 728 -574C762 -577 767 -571 763 -540C757 -510 751 -491 745 -476C740 -464 737 -461 726 -459C694 -456 665 -452 636 -448L638 -490C663 -495 681 -499 697 -502C720 -507 722 -519 707 -525C694 -532 682 -532 640 -521ZM601 -629L600 -579C524 -565 500 -560 450 -551C402 -556 400 -540 424 -519C441 -505 459 -468 473 -428C481 -406 495 -389 504 -389C510 -389 515 -394 514 -405C537 -409 564 -413 595 -417L593 -360C508 -344 482 -341 452 -339C422 -337 421 -328 443 -309C471 -289 477 -289 498 -297C539 -313 582 -327 654 -344C667 -328 672 -313 676 -274C474 -246 438 -242 388 -239C352 -237 351 -228 382 -212C407 -199 424 -199 458 -207C495 -215 577 -229 679 -240C684 -172 683 -125 677 -81C673 -52 662 -46 602 -60C572 -67 566 -54 588 -37C619 -12 647 18 658 37C667 53 677 54 694 36C721 4 728 -10 732 -72C734 -101 734 -137 731 -182C729 -205 728 -227 727 -245C800 -252 857 -255 891 -251C951 -245 958 -272 924 -292C893 -309 869 -310 830 -301C803 -295 766 -287 727 -281C727 -290 727 -296 728 -301C731 -325 728 -330 681 -350C698 -353 716 -358 737 -363C747 -352 759 -343 773 -334C791 -322 803 -324 807 -342C814 -367 797 -388 733 -406C698 -415 695 -411 718 -382C692 -377 662 -371 631 -366L634 -422C657 -425 677 -428 694 -430C730 -434 737 -434 744 -428C763 -415 770 -415 779 -439C815 -528 820 -538 836 -547C853 -558 853 -575 815 -596C773 -621 761 -622 718 -606C706 -601 699 -599 644 -588L647 -639C690 -647 719 -653 735 -658C779 -673 774 -690 747 -696C724 -702 702 -698 650 -682C652 -705 656 -721 660 -733C669 -760 666 -764 625 -783C576 -805 565 -791 584 -761C594 -746 601 -711 602 -669C537 -654 512 -649 489 -646C461 -642 463 -628 487 -625C522 -620 555 -621 601 -629ZM214 -361C245 -368 270 -373 296 -378C321 -383 329 -365 321 -316C314 -276 309 -272 269 -261C249 -255 235 -251 218 -247C218 -283 216 -321 214 -361ZM236 -578C239 -544 229 -511 185 -412C156 -423 150 -416 162 -371C122 -302 69 -236 26 -194C11 -178 16 -168 38 -182C85 -214 131 -255 171 -308C177 -271 181 -229 182 -197C184 -145 202 -145 211 -178C214 -190 216 -202 217 -217C272 -227 312 -235 359 -245C374 -248 375 -262 365 -271C355 -280 354 -285 364 -308C379 -342 387 -358 397 -367C417 -385 411 -400 375 -415C339 -431 335 -430 315 -417C293 -405 255 -396 223 -393C256 -455 280 -499 297 -520C313 -539 313 -546 273 -583C348 -596 361 -599 376 -602C421 -609 428 -631 407 -642C382 -655 361 -651 310 -639C212 -615 162 -607 129 -604C109 -602 108 -591 132 -582C158 -573 194 -573 236 -578Z"/>
</svg>