<svg xmlns="http://www.w3.org/2000/svg" viewBox="0 -1000 1000 1000">
	<path fill="#000000" d="M417 -698C420 -731 383 -774 301 -773C267 -773 266 -768 284 -750C318 -717 346 -691 369 -675C397 -656 414 -664 417 -698ZM902 -592C875 -606 842 -603 782 -583C710 -561 650 -545 564 -530C592 -568 622 -613 652 -666C667 -691 683 -718 690 -727C705 -746 701 -762 656 -782C608 -804 598 -793 607 -756C611 -740 606 -707 570 -629C541 -570 482 -476 432 -422C415 -404 424 -395 440 -406C475 -430 511 -465 549 -511C566 -505 586 -501 612 -504C621 -479 628 -417 628 -331C628 -162 624 -79 615 -45C603 0 605 13 626 61C639 92 658 93 667 64C676 36 677 1 671 -230C694 -220 721 -219 765 -224C808 -228 831 -234 863 -244C890 -253 885 -270 866 -279C851 -286 815 -288 783 -275C742 -257 707 -249 671 -245C669 -298 669 -349 670 -380C690 -374 723 -373 756 -379C787 -384 797 -386 827 -395C850 -402 851 -415 833 -424C810 -434 782 -433 759 -424C728 -410 700 -401 671 -399C672 -419 673 -430 675 -435C684 -464 679 -483 642 -508C712 -520 807 -536 882 -551C933 -561 928 -579 902 -592ZM455 -318C450 -352 429 -369 349 -380C347 -393 343 -405 339 -419C382 -482 391 -494 408 -507C436 -527 434 -537 389 -562C354 -580 344 -580 325 -555C306 -530 148 -478 100 -479C70 -479 66 -464 78 -453C106 -428 135 -421 162 -435C231 -473 297 -503 334 -515C317 -471 287 -412 214 -313C188 -277 119 -198 77 -162C61 -148 71 -136 90 -147C194 -214 244 -277 319 -389C321 -371 322 -345 321 -316C319 -228 316 -183 306 -147C289 -85 289 -64 308 -20C319 5 329 6 340 -12C353 -35 358 -100 355 -272C354 -317 353 -345 351 -368C378 -344 400 -322 424 -296C441 -278 459 -290 455 -318Z"/>
</svg>