<svg xmlns="http://www.w3.org/2000/svg" viewBox="0 -1000 1000 1000">
	<path fill="#000000" d="M922 -400C957 -408 953 -419 903 -427C749 -452 717 -468 513 -592C513 -595 513 -597 512 -599C583 -607 662 -613 750 -615C804 -617 807 -635 771 -657C748 -671 683 -666 615 -648C597 -643 562 -636 514 -628C516 -644 517 -656 519 -661C530 -691 526 -702 489 -721C589 -747 613 -753 626 -756C680 -769 683 -779 628 -810C588 -831 584 -831 577 -815C567 -794 483 -758 350 -716C322 -707 321 -694 370 -699C392 -701 425 -708 456 -713C466 -694 470 -673 474 -621C393 -610 296 -598 213 -589C189 -586 188 -576 218 -560C242 -547 259 -547 300 -560C333 -570 376 -580 419 -588C375 -515 281 -439 163 -379C133 -363 137 -348 172 -360C327 -412 417 -483 475 -594C475 -550 470 -494 466 -476C459 -447 462 -429 473 -412C482 -399 495 -399 501 -406C510 -418 518 -455 512 -515C510 -527 510 -549 511 -571C568 -523 629 -473 693 -422C753 -375 764 -371 922 -400ZM729 -177C753 -199 754 -209 704 -237C662 -261 645 -263 620 -251C593 -238 568 -231 548 -230C600 -303 619 -322 648 -342C670 -357 669 -366 632 -388C597 -409 589 -410 569 -399C527 -376 389 -352 283 -345C245 -342 240 -333 276 -311C293 -300 326 -301 379 -314C379 -302 374 -284 358 -238C322 -144 224 -41 122 13C95 27 102 39 128 32C238 -1 338 -83 399 -205C421 -249 429 -263 436 -270C458 -289 462 -298 427 -327C579 -369 588 -365 581 -349C562 -298 539 -264 517 -245C492 -224 490 -218 498 -199C508 -176 515 -175 528 -184C557 -204 583 -212 622 -219C657 -225 664 -212 660 -174C657 -137 646 -101 624 -55C610 -26 597 -25 523 -49C498 -57 491 -47 511 -28C541 0 559 24 574 54C580 68 593 68 613 52C657 19 680 -21 690 -65C706 -134 718 -167 729 -177Z"/>
</svg>