<svg xmlns="http://www.w3.org/2000/svg" viewBox="0 -1000 1000 1000">
	<path fill="#000000" d="M847 14C842 -28 821 -62 694 -109C676 -115 670 -108 682 -93C736 -28 776 13 805 37C836 64 852 52 847 14ZM602 -64C627 -78 627 -86 589 -114C559 -137 545 -133 541 -105C537 -77 470 -20 374 26C349 38 353 52 382 45C454 27 506 3 565 -41C572 -46 593 -58 602 -64ZM629 -536L628 -490C555 -479 481 -474 458 -475C434 -476 429 -465 452 -453C486 -437 506 -436 550 -446C569 -450 597 -454 674 -464C800 -478 851 -483 886 -481C955 -477 959 -498 928 -517C894 -539 863 -537 788 -517C767 -512 705 -502 669 -497L672 -544C692 -548 715 -552 743 -558C789 -569 793 -581 781 -589C770 -598 753 -600 673 -582L676 -627C709 -635 756 -645 793 -654C824 -660 824 -675 808 -685C793 -694 775 -694 678 -669C681 -696 684 -714 688 -723C701 -755 697 -765 644 -784C605 -797 598 -782 613 -759C624 -745 632 -705 632 -657C588 -646 538 -637 503 -635C488 -634 487 -620 500 -616C535 -606 562 -606 632 -618L630 -572C587 -561 545 -554 529 -554C508 -554 507 -545 524 -538C547 -528 566 -525 629 -536ZM536 -140C563 -139 600 -140 626 -143C650 -146 669 -147 714 -149C728 -150 734 -146 739 -137C757 -101 765 -100 781 -123C800 -147 802 -165 798 -257C795 -319 796 -368 808 -385C820 -404 818 -413 785 -429C750 -445 737 -442 701 -432C656 -419 587 -407 536 -404C500 -415 494 -407 504 -392C509 -384 511 -355 510 -293C509 -246 504 -195 499 -169C496 -155 497 -138 502 -128C510 -112 524 -110 536 -140ZM554 -329C555 -346 555 -364 555 -378C579 -380 608 -384 630 -387C664 -395 682 -398 702 -399C729 -401 735 -401 739 -366C746 -308 747 -255 744 -196C743 -172 737 -171 729 -176C717 -183 694 -182 649 -174C626 -171 595 -168 543 -166C545 -178 546 -189 548 -222C589 -222 632 -226 675 -235C704 -241 705 -249 697 -259C684 -272 663 -272 624 -259C595 -249 568 -244 549 -243C550 -264 551 -286 553 -307C587 -303 628 -305 680 -316C707 -322 708 -331 698 -339C683 -350 665 -349 613 -337C589 -331 573 -329 554 -329ZM424 -321C417 -351 394 -365 352 -374C319 -381 317 -373 340 -345C357 -326 382 -302 393 -294C416 -278 431 -292 424 -321ZM328 -490C330 -530 335 -576 340 -593C347 -614 342 -624 284 -640C335 -667 390 -689 425 -699C443 -706 444 -717 393 -742C343 -765 325 -757 327 -739C330 -716 297 -692 177 -616C154 -602 160 -591 187 -600C212 -607 242 -619 266 -631C283 -604 292 -554 290 -481C217 -465 125 -448 81 -445C56 -443 53 -432 80 -413C106 -396 118 -396 150 -406C190 -419 228 -432 245 -437C202 -336 133 -228 65 -147C46 -125 57 -116 78 -132C166 -195 242 -300 287 -428C279 -248 264 -124 253 -81C245 -54 251 -12 260 9C279 46 296 45 306 11C313 -9 318 -44 318 -108C318 -205 321 -321 326 -458C353 -464 377 -468 429 -476C454 -480 456 -492 442 -502C426 -513 400 -514 371 -504C360 -500 345 -496 328 -490Z"/>
</svg>