<svg xmlns="http://www.w3.org/2000/svg" viewBox="0 -1000 1000 1000">
	<path fill="#000000" d="M564 -753C555 -786 516 -810 458 -808C425 -807 422 -802 440 -784C475 -749 509 -717 526 -707C552 -693 573 -715 564 -753ZM856 -610C888 -614 892 -628 828 -676C769 -720 757 -720 713 -699C696 -692 623 -677 320 -626C290 -621 279 -620 268 -622C260 -657 238 -673 230 -644C223 -620 209 -590 183 -551C171 -532 170 -515 176 -499C185 -471 204 -468 229 -498C247 -519 266 -571 269 -599C302 -592 319 -594 392 -609C472 -626 689 -656 719 -657C760 -659 763 -646 738 -594C724 -564 729 -561 766 -581C794 -597 825 -606 856 -610ZM666 -520C664 -555 635 -576 563 -586C530 -591 526 -581 543 -562C557 -549 611 -500 623 -493C648 -480 668 -488 666 -520ZM429 -529C446 -542 445 -552 404 -569C372 -582 360 -575 362 -550C363 -531 316 -469 279 -436C256 -414 263 -408 289 -417C325 -429 368 -470 403 -508C408 -513 421 -523 429 -529ZM807 -383C803 -421 755 -442 699 -445C671 -447 669 -440 685 -421C710 -393 740 -365 759 -355C785 -341 810 -351 807 -383ZM933 0C972 -5 964 -21 926 -31C785 -62 752 -71 627 -156C597 -176 537 -230 489 -282C490 -291 492 -301 493 -310C549 -319 606 -328 632 -329C706 -332 709 -352 681 -368C647 -387 613 -384 559 -367C544 -363 523 -358 498 -352C502 -376 506 -398 508 -403C522 -440 520 -445 480 -458C426 -477 417 -464 437 -435C447 -419 450 -383 447 -342C381 -327 305 -313 264 -307C230 -302 227 -296 259 -279C272 -272 297 -271 347 -283C361 -286 399 -294 442 -302C422 -177 335 -92 199 -27C156 -6 162 7 207 -5C357 -44 446 -124 482 -253C561 -152 633 -67 675 -26C728 26 734 28 933 0Z"/>
</svg>