<svg xmlns="http://www.w3.org/2000/svg" viewBox="0 -1000 1000 1000">
	<path fill="#000000" d="M488 -481C438 -492 435 -487 451 -452C460 -432 462 -410 464 -358C464 -314 465 -286 464 -277C459 -242 470 -188 488 -186C492 -184 497 -192 500 -202C504 -203 507 -204 511 -204C509 -194 505 -182 493 -160C456 -91 373 -27 314 2C278 18 284 31 313 24C390 5 462 -36 529 -126C535 -134 541 -142 553 -152C566 -162 569 -173 533 -207C554 -210 575 -213 595 -215C602 -203 605 -186 603 -155C600 -102 601 -84 605 -54C616 19 660 47 790 42C850 40 910 17 933 -7C946 -21 946 -33 934 -55C923 -74 918 -112 916 -153C914 -201 905 -202 896 -154C875 -51 854 -23 787 -17C704 -10 671 -20 650 -56C643 -67 642 -155 651 -172C660 -188 659 -199 633 -221C649 -222 659 -222 661 -215C677 -170 688 -168 700 -181C711 -195 717 -214 719 -271C720 -297 722 -334 724 -354C728 -439 728 -444 738 -456C753 -475 746 -487 707 -506C677 -520 669 -522 646 -514C611 -501 532 -485 488 -481ZM505 -397C504 -418 504 -434 503 -454C547 -461 603 -471 622 -475C652 -481 666 -474 668 -442C671 -387 670 -318 665 -264C664 -253 649 -248 643 -249C631 -253 609 -252 503 -233C504 -256 504 -272 505 -296C537 -292 574 -296 621 -311C643 -317 644 -329 612 -338C599 -342 584 -338 560 -331C534 -324 518 -320 505 -319C505 -338 505 -355 505 -373C555 -374 578 -377 616 -390C640 -398 640 -406 617 -416C607 -421 591 -418 505 -397ZM242 -467C241 -462 247 -452 256 -441C262 -434 266 -416 267 -380C249 -375 226 -370 197 -365C176 -362 173 -352 196 -343C214 -336 231 -336 268 -343C268 -316 267 -293 265 -270C188 -248 121 -239 69 -239C48 -239 47 -233 76 -209C106 -186 120 -183 150 -196C178 -207 212 -218 260 -232C245 -129 202 -61 115 6C88 26 93 37 125 22C215 -21 268 -78 289 -158C307 -139 324 -122 342 -103C368 -76 387 -88 383 -110C374 -155 363 -167 294 -180C297 -197 301 -219 304 -244C367 -262 385 -266 402 -269C439 -275 439 -283 429 -296C423 -303 415 -306 369 -298C355 -296 338 -292 309 -283C313 -309 315 -334 316 -353C351 -362 368 -368 385 -377C403 -386 403 -400 379 -407C368 -410 348 -408 317 -397C318 -413 319 -423 320 -428C326 -441 326 -447 297 -459C286 -465 275 -468 268 -471C330 -496 368 -521 388 -543C394 -550 410 -565 422 -570C443 -579 440 -592 401 -608C360 -624 349 -612 354 -592C358 -578 341 -544 258 -486C246 -477 240 -470 242 -467ZM638 -552C625 -585 612 -596 536 -606C509 -609 506 -603 530 -579C557 -552 573 -541 607 -522C635 -507 649 -525 638 -552ZM235 -650C219 -698 214 -698 205 -675C189 -627 171 -596 154 -577C145 -566 142 -549 149 -504C151 -490 170 -487 189 -514C207 -540 223 -575 234 -621C278 -624 320 -629 393 -641C536 -661 667 -677 699 -677C729 -676 730 -672 686 -612C665 -582 675 -572 712 -593C752 -617 788 -628 836 -634C864 -637 867 -658 810 -702C767 -734 753 -736 722 -723C677 -706 500 -679 235 -650ZM545 -752C527 -789 501 -801 443 -801C408 -801 407 -795 427 -775C453 -747 476 -727 513 -709C540 -695 562 -719 545 -752Z"/>
</svg>