<svg xmlns="http://www.w3.org/2000/svg" viewBox="0 -1000 1000 1000">
	<path fill="#000000" d="M470 -182C470 -149 468 -106 465 -80C460 -33 443 -25 367 -44C351 -49 344 -36 368 -17C406 15 421 32 433 56C443 74 455 74 472 57C507 19 522 -22 520 -80C519 -112 516 -148 514 -186C628 -192 661 -193 692 -192C738 -190 744 -206 700 -240C701 -255 706 -275 713 -295C822 -297 864 -296 883 -293C941 -284 945 -307 907 -331C886 -344 852 -347 804 -340C785 -337 762 -334 730 -330C738 -345 747 -359 756 -368C775 -387 773 -399 733 -423C701 -443 683 -440 660 -428C647 -422 301 -385 257 -385C232 -385 229 -379 249 -368C273 -354 286 -352 316 -358C326 -360 376 -366 435 -372C453 -356 461 -337 465 -307C155 -285 128 -284 117 -285C94 -287 90 -273 111 -263C147 -244 165 -243 204 -251C224 -255 428 -277 468 -281C469 -263 470 -240 470 -214C336 -205 279 -202 247 -202C220 -202 218 -189 245 -174C272 -160 281 -160 322 -168C344 -172 410 -178 470 -182ZM668 -324C626 -319 574 -315 512 -311C512 -322 512 -331 513 -336C515 -352 506 -366 478 -377C584 -389 612 -392 639 -393C669 -394 677 -386 675 -367C674 -353 672 -339 668 -324ZM514 -218C513 -241 513 -266 512 -285C564 -289 614 -292 660 -293C656 -274 647 -250 640 -234C612 -231 598 -229 514 -218ZM331 -434C325 -464 308 -481 259 -497C238 -503 231 -497 240 -482C260 -453 274 -438 297 -421C317 -408 334 -416 331 -434ZM489 -452C488 -481 475 -496 425 -505C402 -509 398 -502 408 -489C423 -471 438 -455 453 -442C469 -427 490 -430 489 -452ZM748 -504C786 -513 788 -528 746 -547C702 -567 693 -565 686 -549C680 -535 640 -502 574 -466C551 -453 558 -441 587 -451C677 -484 714 -496 748 -504ZM598 -551C615 -553 618 -566 597 -578C580 -587 577 -589 553 -596C537 -601 533 -601 520 -590C501 -576 448 -556 344 -531C325 -526 326 -513 351 -514C403 -517 441 -522 532 -540C573 -548 587 -550 598 -551ZM404 -598C403 -623 394 -639 349 -649C327 -656 324 -651 330 -639C338 -620 349 -603 366 -582C387 -559 405 -566 404 -598ZM720 -624C716 -640 692 -656 645 -658C615 -658 614 -655 627 -642C646 -622 675 -600 686 -593C716 -580 729 -589 720 -624ZM325 -690C334 -703 345 -716 349 -719C364 -733 362 -741 303 -755C278 -761 266 -752 274 -731C279 -722 271 -692 256 -671C225 -627 188 -589 149 -556C137 -547 144 -538 158 -544C217 -568 276 -617 314 -674C352 -664 373 -662 383 -663C457 -672 472 -674 490 -678C516 -684 516 -706 488 -713C467 -718 458 -717 431 -709C386 -694 357 -689 325 -690ZM638 -712C651 -730 657 -737 661 -741C674 -755 673 -764 648 -772C594 -787 588 -779 594 -756C598 -741 587 -712 568 -686C544 -653 531 -638 505 -611C489 -595 495 -591 511 -600C560 -625 589 -646 623 -690C647 -681 692 -677 718 -680C782 -687 800 -690 823 -696C848 -703 849 -717 831 -728C815 -738 798 -740 773 -731C716 -713 668 -707 638 -712Z"/>
</svg>