<svg xmlns="http://www.w3.org/2000/svg" viewBox="0 -1000 1000 1000">
	<path fill="#000000" d="M831 -600C856 -604 864 -619 829 -652C812 -668 776 -695 739 -713C717 -724 709 -723 679 -713C632 -698 610 -694 376 -660C340 -655 303 -651 273 -649C249 -715 234 -711 225 -673C220 -650 193 -598 175 -577C162 -562 153 -545 153 -512C153 -473 181 -462 206 -492C229 -521 252 -567 270 -622C304 -616 321 -618 383 -630C497 -653 621 -663 674 -664C709 -665 714 -645 709 -627C703 -608 698 -595 683 -567C675 -552 685 -548 700 -558C736 -581 770 -590 831 -600ZM903 -119C894 -137 890 -171 888 -223C886 -287 877 -284 857 -205C835 -115 800 -98 687 -99C597 -100 555 -143 548 -224C541 -308 564 -437 604 -470C630 -492 627 -505 578 -529C542 -547 535 -548 512 -526C489 -505 433 -485 379 -490C325 -521 308 -508 328 -474C350 -437 334 -309 310 -242C284 -167 250 -130 170 -75C124 -44 129 -33 188 -54C267 -83 348 -149 372 -247C390 -322 397 -402 394 -460C418 -461 440 -464 476 -473C520 -484 528 -479 520 -412C509 -323 503 -247 504 -212C506 -126 558 -45 666 -33C728 -25 813 -30 866 -51C910 -69 918 -91 903 -119Z"/>
</svg>