<svg xmlns="http://www.w3.org/2000/svg" viewBox="0 -1000 1000 1000">
	<path fill="#000000" d="M514 -352C472 -375 457 -365 471 -338C486 -310 487 -259 473 -199C466 -167 468 -159 485 -132C499 -108 515 -112 523 -144C528 -166 530 -196 529 -328C551 -330 571 -333 613 -340C613 -292 613 -213 613 -172C613 -83 615 -30 623 41C626 72 642 73 648 41C657 0 659 -39 661 -168C662 -234 663 -308 663 -348C690 -352 705 -354 749 -362C773 -366 779 -362 779 -336C779 -293 777 -250 775 -233C770 -195 761 -192 700 -207C679 -212 677 -201 692 -190C724 -165 746 -141 752 -127C760 -110 782 -108 796 -129C821 -169 829 -195 832 -246C836 -320 838 -331 850 -349C864 -369 859 -379 815 -398C780 -412 771 -411 757 -405C737 -395 721 -389 663 -375C663 -418 665 -431 672 -446C679 -462 676 -466 640 -480C725 -496 767 -504 805 -511C840 -517 840 -536 812 -545C780 -555 760 -554 712 -541C595 -509 515 -493 479 -491C460 -490 460 -478 475 -475C514 -466 536 -464 593 -473C608 -454 612 -433 613 -365C562 -356 541 -354 514 -352ZM226 -199C267 -208 287 -212 327 -221C352 -226 356 -221 353 -194C348 -157 340 -149 318 -142C276 -129 256 -123 226 -116C226 -147 226 -172 226 -199ZM245 -436C293 -493 304 -503 322 -515C339 -527 339 -539 282 -561C261 -570 252 -562 258 -545C264 -525 247 -481 214 -432C160 -462 141 -447 157 -424C177 -395 181 -377 183 -295C185 -206 183 -155 171 -108C165 -86 165 -63 187 -26C195 -11 218 -20 225 -86C266 -95 327 -106 391 -116C416 -121 419 -134 393 -156C398 -176 408 -196 426 -211C440 -223 440 -235 399 -257C369 -272 358 -272 347 -265C324 -250 281 -236 226 -227C226 -237 226 -262 225 -299C329 -319 374 -329 394 -334C417 -340 418 -354 406 -361C395 -367 395 -376 399 -384C411 -408 421 -422 432 -432C446 -443 445 -452 404 -470C376 -483 364 -481 350 -472C325 -457 288 -444 245 -436ZM225 -326C225 -376 226 -398 227 -408C282 -419 297 -422 330 -431C353 -437 363 -431 360 -407C355 -367 350 -362 331 -354C301 -342 262 -332 225 -326ZM426 -569C423 -591 415 -598 362 -616C339 -624 334 -619 344 -600C353 -579 372 -553 390 -538C407 -523 432 -528 426 -569ZM726 -598C717 -626 692 -640 643 -647C618 -651 614 -645 625 -630C640 -607 662 -587 685 -571C711 -553 734 -567 726 -598ZM624 -691C642 -715 650 -725 660 -734C673 -748 671 -760 623 -784C587 -802 574 -793 582 -772C587 -759 583 -731 574 -713C551 -663 519 -616 486 -580C462 -554 470 -548 504 -568C539 -588 577 -626 610 -672C638 -664 669 -663 690 -667C754 -677 797 -682 819 -684C859 -688 863 -711 817 -725C800 -730 773 -728 745 -719C695 -702 658 -693 624 -691ZM321 -669C336 -692 345 -704 360 -716C377 -730 374 -742 337 -762C290 -789 280 -781 289 -747C292 -737 284 -709 270 -683C231 -612 202 -577 156 -528C134 -506 138 -496 164 -511C228 -548 267 -584 307 -649C328 -645 352 -644 366 -646C406 -652 442 -658 492 -665C522 -670 520 -692 490 -701C471 -706 451 -705 425 -694C383 -678 350 -671 321 -669Z"/>
</svg>