<svg xmlns="http://www.w3.org/2000/svg" viewBox="0 -1000 1000 1000">
	<path fill="#000000" d="M298 -548C301 -586 267 -621 185 -643C174 -646 166 -642 174 -625C200 -575 234 -517 257 -505C275 -495 294 -495 298 -548ZM972 -199C1012 -204 1014 -219 969 -228C831 -256 739 -312 632 -425C772 -539 787 -550 814 -564C840 -577 835 -601 790 -624C740 -650 731 -643 732 -618C733 -597 707 -542 618 -441C610 -450 602 -459 594 -468C602 -669 607 -722 619 -754C631 -786 625 -794 573 -813C511 -835 494 -827 529 -777C545 -754 550 -711 550 -489C550 -313 548 -210 542 -155C536 -94 533 -92 457 -117C445 -121 441 -113 448 -105C485 -64 514 -18 527 11C535 30 548 29 558 17C601 -39 606 -63 601 -187C598 -270 594 -375 594 -431C644 -361 691 -298 752 -219C778 -186 804 -179 972 -199ZM507 -456C520 -472 517 -480 482 -501C451 -519 438 -519 423 -507C402 -491 357 -469 329 -463C308 -458 313 -446 328 -443C356 -438 381 -442 419 -454C437 -460 440 -455 433 -430C422 -390 399 -325 379 -288C342 -221 305 -179 241 -117C229 -106 231 -95 256 -106C333 -141 426 -251 468 -374C483 -419 493 -439 507 -456ZM282 -372C302 -420 290 -430 266 -393C181 -259 159 -234 138 -225C117 -217 114 -207 137 -161C167 -101 185 -105 191 -137C196 -162 219 -221 282 -372Z"/>
</svg>