<svg xmlns="http://www.w3.org/2000/svg" viewBox="0 -1000 1000 1000">
	<path fill="#000000" d="M680 -496C681 -534 681 -566 682 -593C712 -600 728 -602 735 -602C755 -602 762 -598 757 -578C743 -513 739 -510 680 -496ZM522 -461C498 -456 474 -452 452 -449C403 -482 390 -475 406 -429C415 -406 408 -330 396 -319C374 -304 374 -291 388 -273C404 -249 410 -250 436 -275C451 -290 476 -301 514 -311C500 -198 460 -131 378 -57C357 -37 363 -28 388 -41C498 -102 543 -181 558 -320C589 -328 614 -334 637 -338C636 -213 636 -106 635 -78C633 2 634 40 639 64C644 87 656 87 664 61C680 8 690 -83 684 -222C683 -249 682 -313 681 -348C720 -355 755 -361 779 -362C814 -363 822 -352 819 -320C815 -279 808 -253 797 -230C787 -210 781 -207 729 -229C708 -237 704 -228 718 -211C756 -169 761 -160 763 -138C765 -115 773 -111 797 -128C832 -152 846 -176 859 -238C870 -283 881 -317 896 -333C913 -352 914 -365 876 -389C839 -413 824 -415 793 -406C773 -400 726 -387 680 -378C680 -415 680 -452 680 -464C706 -470 731 -475 753 -479C800 -486 802 -495 795 -506C787 -518 788 -523 796 -538C806 -558 818 -571 833 -581C850 -594 851 -609 815 -630C775 -655 766 -655 740 -642C733 -639 702 -629 683 -624C685 -702 688 -728 699 -753C708 -780 703 -789 659 -809C609 -830 599 -820 618 -786C632 -763 637 -731 637 -613C613 -607 588 -601 563 -595C563 -639 565 -663 567 -672C572 -696 565 -706 525 -718C486 -729 470 -720 493 -695C505 -680 514 -649 518 -586C509 -584 478 -580 462 -578C435 -574 435 -561 460 -551C470 -547 487 -548 520 -554C521 -528 522 -497 522 -461ZM564 -566C593 -573 616 -579 637 -583C637 -551 637 -519 637 -485C611 -479 588 -474 565 -470C565 -499 565 -531 564 -566ZM564 -438C585 -443 610 -448 637 -454C637 -425 637 -397 637 -369C596 -361 585 -359 560 -352C562 -367 564 -406 564 -438ZM518 -345C492 -339 469 -334 445 -329C451 -354 452 -388 450 -423C475 -422 497 -424 522 -430C522 -399 520 -371 518 -345ZM154 -75C170 -120 153 -162 76 -202C55 -213 50 -207 57 -189C73 -146 85 -119 110 -77C126 -49 145 -49 154 -75ZM276 -153C281 -188 255 -212 201 -231C182 -236 180 -233 187 -218C207 -176 226 -149 234 -142C252 -128 273 -131 276 -153ZM381 -199C379 -233 358 -256 304 -267C281 -272 279 -266 292 -246C308 -222 327 -199 348 -181C366 -165 382 -170 381 -199ZM321 -349C342 -318 351 -318 359 -341C370 -371 358 -409 313 -433C290 -445 284 -438 293 -411C295 -405 302 -384 307 -373C268 -362 234 -353 196 -344C301 -483 352 -539 377 -561C402 -583 400 -594 368 -622C336 -650 325 -646 326 -617C327 -595 313 -566 280 -518C242 -518 201 -517 169 -516C235 -628 280 -692 296 -707C315 -723 316 -737 272 -770C232 -800 215 -789 226 -761C234 -742 225 -687 201 -640C166 -570 135 -533 116 -525C93 -517 91 -509 101 -484C112 -457 122 -454 148 -466C179 -478 218 -488 262 -493C177 -373 159 -358 136 -350C120 -345 116 -330 137 -301C159 -272 167 -272 194 -294C213 -309 267 -333 321 -349Z"/>
</svg>