<svg xmlns="http://www.w3.org/2000/svg" viewBox="0 -1000 1000 1000">
	<path fill="#000000" d="M186 -57C195 -94 177 -131 113 -165C96 -173 91 -167 97 -148C112 -104 127 -68 142 -42C154 -20 178 -24 186 -57ZM286 -120C292 -153 271 -186 227 -200C211 -205 205 -201 212 -182C221 -156 234 -130 253 -109C266 -95 283 -101 286 -120ZM388 -180C390 -210 381 -224 323 -249C306 -257 301 -250 307 -235C320 -202 335 -176 352 -157C367 -139 386 -147 388 -180ZM325 -336C283 -329 258 -324 207 -312C357 -504 372 -518 391 -531C411 -545 411 -558 373 -594C349 -618 330 -614 334 -590C338 -570 328 -540 297 -490C259 -488 219 -487 187 -489C263 -614 290 -650 315 -674C335 -693 333 -705 282 -746C247 -774 229 -761 240 -737C252 -712 246 -678 217 -617C175 -530 157 -509 124 -497C112 -491 109 -483 118 -464C132 -433 141 -428 163 -436C212 -453 242 -461 280 -464C198 -340 180 -325 147 -313C127 -306 126 -301 142 -268C156 -239 167 -237 187 -250C222 -274 265 -293 335 -311C355 -268 378 -267 385 -297C392 -332 385 -356 335 -386C315 -398 309 -395 314 -377C317 -363 321 -349 325 -336ZM541 -465C547 -491 516 -535 454 -541C431 -543 427 -535 437 -521C462 -487 484 -464 504 -446C519 -434 536 -443 541 -465ZM648 -524C650 -560 630 -585 584 -599C560 -606 558 -604 565 -587C582 -546 593 -528 609 -508C624 -490 647 -500 648 -524ZM854 -583C873 -588 873 -604 823 -633C785 -655 771 -652 773 -629C776 -596 752 -564 684 -502C669 -487 673 -481 697 -491C736 -508 770 -530 805 -554C823 -568 841 -579 854 -583ZM782 -710C808 -715 808 -727 753 -761C714 -786 700 -781 699 -766C698 -745 643 -705 491 -638C473 -630 474 -621 496 -624C526 -628 642 -660 694 -681C731 -695 756 -704 782 -710ZM694 -313C685 -279 669 -237 646 -201C619 -214 592 -227 565 -238C548 -245 546 -248 556 -267C561 -277 563 -283 569 -297C619 -305 652 -309 694 -313ZM767 -361C712 -414 687 -402 699 -377C701 -371 702 -362 700 -348C663 -342 643 -340 587 -332C605 -365 618 -383 629 -394C645 -410 644 -421 603 -450C571 -473 556 -467 564 -437C570 -413 566 -377 542 -326C487 -318 440 -313 415 -312C386 -311 383 -301 413 -282C433 -271 446 -269 479 -278C484 -279 520 -287 524 -289C492 -237 494 -230 526 -218C551 -209 585 -193 624 -168C574 -112 480 -65 377 -37C354 -31 354 -12 376 -15C493 -23 606 -74 665 -139C707 -108 754 -66 807 -9C840 26 864 15 856 -28C851 -62 819 -105 782 -128C756 -143 726 -161 693 -178C717 -217 741 -267 759 -319C831 -326 891 -327 921 -324C962 -318 968 -339 935 -365C912 -382 886 -385 812 -370C798 -367 782 -364 767 -361Z"/>
</svg>