<svg xmlns="http://www.w3.org/2000/svg" viewBox="0 -1000 1000 1000">
	<path fill="#000000" d="M178 -60C187 -97 168 -134 104 -168C88 -176 83 -171 89 -152C101 -115 117 -74 133 -45C145 -25 171 -34 178 -60ZM290 -140C298 -172 278 -203 233 -214C218 -218 213 -213 218 -199C225 -178 238 -150 257 -130C270 -115 286 -122 290 -140ZM399 -175C407 -209 394 -243 335 -266C321 -271 318 -269 322 -252C331 -218 347 -189 362 -168C378 -146 394 -154 399 -175ZM323 -355C278 -341 231 -330 190 -321C319 -486 361 -536 377 -548C401 -566 400 -574 360 -612C335 -636 319 -627 323 -606C327 -585 310 -548 282 -504C244 -501 201 -501 171 -500C248 -635 268 -670 291 -692C307 -709 307 -723 257 -759C225 -782 211 -768 217 -749C225 -721 219 -678 197 -628C157 -536 137 -513 109 -507C96 -504 94 -495 103 -472C117 -438 127 -435 150 -445C187 -462 225 -471 264 -476C182 -352 162 -334 135 -325C118 -318 115 -308 131 -281C153 -246 160 -247 178 -265C195 -282 266 -313 332 -334C335 -328 339 -320 342 -314C358 -289 375 -290 386 -326C394 -354 383 -378 333 -405C315 -415 307 -411 313 -392C316 -379 319 -367 323 -355ZM680 -680C688 -722 670 -745 569 -763C550 -766 547 -757 559 -743C584 -710 618 -677 638 -661C660 -644 674 -649 680 -680ZM503 -205C516 -231 525 -247 530 -253C544 -269 545 -283 514 -304C473 -332 461 -326 468 -297C474 -271 465 -240 443 -201C403 -129 374 -97 308 -46C288 -31 292 -21 318 -30C390 -56 447 -109 487 -175C540 -138 598 -97 676 -42C767 22 781 26 938 -15C977 -25 978 -38 938 -42C805 -55 744 -71 645 -120L651 -268C693 -263 751 -269 801 -282C833 -292 834 -307 807 -319C783 -331 765 -329 730 -313C717 -308 691 -301 652 -294C654 -320 659 -349 660 -353C669 -380 666 -393 642 -407C674 -413 692 -417 742 -434C783 -447 782 -459 754 -469C721 -480 709 -478 635 -455C581 -439 536 -431 502 -427C473 -423 473 -417 497 -408C519 -400 553 -397 595 -401C604 -380 607 -349 606 -301L603 -141C563 -163 533 -181 503 -205ZM494 -550C515 -548 534 -550 597 -566C661 -580 691 -586 745 -592C778 -595 784 -586 751 -524C739 -502 742 -498 773 -515C803 -533 846 -552 868 -556C908 -564 910 -581 863 -612C809 -647 789 -647 765 -640C737 -631 716 -626 659 -612C556 -587 518 -580 492 -578C468 -625 459 -623 456 -601C452 -570 438 -535 420 -512C404 -493 403 -483 410 -453C419 -418 435 -416 456 -454C469 -478 481 -510 494 -550Z"/>
</svg>