<svg xmlns="http://www.w3.org/2000/svg" viewBox="0 -1000 1000 1000">
	<path fill="#000000" d="M639 -718C662 -720 690 -723 695 -724C707 -726 710 -725 708 -706C700 -633 702 -607 740 -592C761 -584 798 -586 849 -595C864 -598 865 -612 853 -624C836 -643 823 -642 800 -634C755 -618 745 -631 743 -658C741 -687 749 -705 766 -714C789 -730 789 -739 764 -755C737 -773 720 -773 703 -762C682 -750 661 -745 628 -741C579 -761 570 -750 584 -730C594 -718 596 -685 593 -660C590 -637 581 -620 537 -561C524 -543 529 -535 549 -549C612 -593 637 -624 639 -718ZM372 -604L373 -636C388 -637 408 -639 436 -640C459 -641 463 -637 461 -623C458 -607 454 -595 433 -557C430 -551 426 -550 406 -546C396 -544 384 -542 368 -539L370 -572C388 -575 404 -578 419 -582C440 -588 440 -598 424 -603C409 -608 392 -608 372 -604ZM331 -566L330 -534C307 -531 283 -528 256 -525C251 -556 244 -587 235 -612C260 -615 281 -618 334 -630L332 -593C317 -589 298 -586 284 -583C266 -581 264 -578 276 -570C291 -562 297 -560 331 -566ZM706 -442C717 -450 727 -458 735 -469C769 -509 781 -521 787 -525C800 -533 799 -546 774 -562C744 -581 740 -582 724 -574C695 -559 635 -546 579 -545C557 -545 549 -541 567 -526C584 -512 597 -511 617 -518C644 -527 653 -528 705 -532C720 -533 725 -531 715 -516C701 -495 685 -475 670 -463C616 -489 588 -504 567 -502C553 -501 553 -491 566 -485C592 -475 624 -455 643 -442C619 -427 589 -410 543 -387C526 -379 532 -369 553 -375C607 -392 644 -405 672 -419C692 -405 719 -385 771 -349C801 -329 811 -327 933 -353C954 -359 959 -371 927 -375C829 -389 778 -403 706 -442ZM327 -119C324 -135 315 -137 305 -122C294 -99 272 -74 260 -62C247 -50 240 -30 242 -14C246 8 265 11 282 -5C324 -43 334 -77 327 -119ZM750 -54C747 -100 722 -123 618 -143C600 -147 595 -144 610 -129C657 -80 690 -51 720 -30C737 -19 752 -31 750 -54ZM489 -278C430 -244 354 -207 302 -193C287 -189 283 -184 295 -160C305 -139 314 -136 334 -145C352 -153 383 -162 471 -179C477 -160 480 -126 481 -57C482 -11 472 -9 408 -22C392 -25 384 -12 401 0C425 16 451 37 468 62C478 77 489 75 499 65C527 38 540 15 536 -22C530 -80 530 -141 534 -156C538 -170 537 -176 515 -188C549 -193 589 -200 636 -207C647 -195 659 -182 667 -173C688 -154 713 -169 702 -204C691 -240 672 -253 604 -273C583 -278 579 -276 593 -260C601 -249 609 -239 618 -229C530 -215 426 -201 368 -195C463 -237 611 -301 624 -304C642 -309 647 -325 622 -349C601 -369 583 -367 578 -346C576 -336 555 -318 523 -299C472 -296 434 -295 398 -295C426 -310 490 -339 507 -342C528 -346 530 -358 502 -383C488 -397 475 -398 476 -387C477 -381 471 -374 463 -367C462 -390 462 -404 468 -417C473 -429 471 -437 430 -447C404 -454 396 -443 409 -429C417 -420 422 -413 426 -401L358 -389L362 -450C432 -458 463 -461 488 -461C540 -461 544 -472 525 -487C510 -499 489 -500 458 -493C426 -487 396 -482 364 -478L366 -514C419 -521 421 -519 424 -516C435 -504 450 -508 488 -568C506 -596 520 -610 529 -616C542 -622 542 -641 506 -663C480 -680 469 -678 442 -672C427 -669 403 -663 374 -658L377 -693C421 -701 446 -707 460 -710C480 -716 478 -730 461 -737C445 -742 436 -742 382 -729C384 -737 387 -744 392 -755C404 -781 398 -791 347 -809C314 -820 305 -809 322 -790C334 -777 337 -750 338 -719C317 -716 285 -711 234 -704C211 -701 212 -688 233 -682C250 -677 276 -679 337 -687L335 -651C294 -644 251 -637 218 -634C162 -645 157 -630 173 -614C187 -601 204 -568 222 -524C237 -487 244 -484 254 -487C259 -489 260 -492 260 -499C288 -503 310 -506 329 -509L327 -474C120 -449 100 -447 61 -450C36 -452 31 -443 54 -428C89 -404 95 -404 138 -414C177 -423 264 -438 326 -446L323 -384C298 -380 267 -375 235 -370C242 -392 244 -397 238 -408C230 -425 214 -425 209 -406C205 -394 190 -371 165 -359C155 -353 153 -349 171 -321C183 -305 188 -306 203 -315C248 -341 292 -355 430 -378C430 -365 431 -353 435 -347C420 -337 403 -328 392 -320C369 -305 355 -299 332 -295C308 -291 308 -283 320 -262C329 -242 335 -243 352 -250C385 -266 441 -275 489 -278Z"/>
</svg>