<svg xmlns="http://www.w3.org/2000/svg" viewBox="0 -1000 1000 1000">
	<path fill="#000000" d="M451 -716C478 -728 471 -744 439 -762C396 -787 384 -782 385 -748C385 -734 363 -688 314 -629C300 -612 305 -604 327 -619C352 -635 378 -658 399 -678C413 -691 442 -711 451 -716ZM269 -629C269 -658 246 -684 199 -695C167 -702 161 -693 177 -671C192 -650 211 -627 223 -614C253 -584 269 -604 269 -629ZM802 -648C835 -669 833 -683 772 -727C737 -755 724 -754 689 -737C684 -735 664 -728 639 -722C614 -715 586 -708 564 -704C543 -700 521 -696 496 -695C460 -702 457 -689 473 -666C482 -653 503 -589 518 -518C526 -483 528 -475 536 -475C542 -475 546 -479 548 -486C570 -489 586 -492 613 -500C642 -507 663 -507 679 -495C699 -480 709 -480 735 -521C746 -540 757 -565 772 -606C778 -622 797 -645 802 -648ZM421 -579C405 -585 382 -580 349 -568C313 -557 191 -524 156 -516C123 -508 125 -502 156 -494C176 -488 212 -491 258 -501C268 -489 272 -467 270 -415C243 -408 201 -399 182 -394C157 -388 157 -379 182 -373C203 -368 232 -371 268 -377C266 -350 262 -325 258 -299C158 -268 110 -257 64 -258C32 -259 32 -243 59 -223C89 -200 95 -200 132 -217C161 -231 206 -247 251 -262C226 -157 177 -68 88 16C60 42 65 51 89 38C208 -31 285 -155 301 -279C323 -286 344 -293 360 -299C395 -310 392 -321 375 -325C368 -327 342 -323 305 -312C308 -341 311 -367 313 -388C354 -399 382 -405 396 -412C422 -425 418 -440 394 -447C383 -450 377 -448 317 -430C318 -442 319 -451 320 -455C323 -475 319 -491 290 -508C327 -518 396 -538 405 -542C443 -556 443 -572 421 -579ZM853 -361C876 -392 871 -401 809 -434C765 -458 742 -455 720 -441C712 -436 658 -420 636 -415C571 -401 551 -399 535 -404C545 -412 552 -418 559 -423C585 -441 586 -452 559 -468C542 -478 528 -475 521 -452C518 -442 512 -431 492 -404C483 -394 447 -361 426 -345C412 -334 412 -327 432 -332C456 -338 479 -352 515 -385C531 -377 552 -375 579 -378C581 -365 576 -345 559 -316C542 -286 524 -257 498 -229C486 -216 492 -206 508 -215C546 -238 574 -272 599 -311C636 -281 664 -261 686 -249C719 -233 728 -256 716 -281C706 -301 692 -309 606 -321C611 -329 619 -337 626 -341C641 -354 643 -366 619 -385C671 -396 702 -403 728 -404C772 -407 780 -401 785 -338C789 -290 785 -217 773 -148C759 -59 737 -37 675 -56C635 -69 628 -62 654 -32C667 -18 683 13 686 32C690 61 700 66 738 39C796 -1 823 -57 834 -137C841 -181 844 -216 845 -277C846 -327 848 -354 853 -361ZM723 -192C705 -206 670 -209 622 -196C576 -184 541 -176 465 -162C470 -200 473 -242 473 -259C473 -289 469 -298 439 -309C417 -318 407 -311 421 -283C431 -264 436 -242 434 -224C431 -188 424 -175 414 -166C401 -154 401 -143 414 -122C434 -94 441 -93 466 -116C489 -138 592 -159 678 -160C740 -161 742 -178 723 -192ZM725 -672C723 -649 714 -611 705 -576C695 -533 687 -527 659 -533C649 -534 607 -526 586 -518C573 -513 563 -510 549 -508C547 -533 545 -558 542 -583C556 -583 573 -585 606 -590C639 -595 664 -600 668 -603C689 -616 685 -626 669 -633C654 -639 643 -636 603 -621C583 -613 562 -605 540 -601C537 -626 533 -649 528 -672C546 -673 566 -677 599 -687C628 -695 663 -702 696 -705C720 -707 727 -697 725 -672Z"/>
</svg>