<svg xmlns="http://www.w3.org/2000/svg" viewBox="0 -1000 1000 1000">
	<path fill="#000000" d="M902 -34C873 -64 852 -67 767 -57C728 -52 673 -46 617 -41C493 -30 445 -28 398 -30C368 -31 366 -25 387 -6C408 13 420 14 475 7C644 -16 777 -19 877 -5C918 0 924 -10 902 -34ZM508 -274C468 -291 455 -279 473 -248C486 -228 494 -199 513 -107C515 -96 529 -84 537 -84C539 -84 541 -85 543 -88C568 -92 597 -95 649 -100C693 -104 711 -102 716 -94C727 -78 752 -88 766 -121C806 -216 816 -237 823 -243C848 -263 845 -279 805 -298C768 -315 756 -316 738 -310C701 -299 591 -278 508 -274ZM536 -194C533 -210 529 -240 528 -250C560 -251 599 -255 652 -263C745 -276 754 -271 750 -241C746 -215 741 -189 734 -162C728 -140 720 -134 693 -133C685 -133 661 -130 641 -127C601 -121 572 -116 545 -115C544 -133 542 -154 539 -174C588 -172 646 -178 679 -188C704 -196 701 -212 675 -216C662 -218 611 -210 536 -194ZM512 -349C499 -473 495 -492 487 -520C543 -525 600 -533 642 -540C700 -550 734 -553 755 -553C791 -553 802 -545 797 -516C789 -478 778 -436 764 -399C759 -386 754 -381 733 -381C722 -381 703 -379 642 -368C587 -358 542 -351 512 -349ZM469 -545C463 -549 455 -551 445 -552C420 -555 410 -545 430 -521C440 -509 457 -452 480 -333C482 -321 494 -308 503 -309C508 -310 513 -314 513 -322C531 -322 570 -327 650 -339C735 -352 749 -350 762 -338C773 -326 786 -328 795 -343C805 -364 815 -389 820 -407C851 -504 858 -516 870 -524C889 -539 889 -558 842 -583C806 -602 791 -603 767 -595C736 -586 715 -582 623 -566C565 -555 527 -550 469 -545ZM596 -417C591 -436 587 -462 585 -477C610 -478 635 -481 654 -487C669 -491 672 -482 671 -467C670 -452 669 -447 667 -438C657 -430 636 -423 596 -417ZM568 -496C542 -502 534 -495 543 -478C555 -457 564 -436 566 -424C568 -412 570 -405 572 -401C579 -383 591 -383 596 -397C636 -405 671 -410 687 -412C706 -414 709 -421 699 -437C699 -447 707 -462 727 -476C738 -484 735 -496 712 -509C695 -519 677 -523 669 -519C644 -507 605 -498 568 -496ZM247 -512C255 -497 260 -466 261 -417C240 -411 218 -407 163 -398C135 -394 135 -383 162 -373C177 -367 192 -367 261 -381C261 -359 257 -308 253 -282C162 -263 102 -256 69 -262C41 -267 29 -252 61 -229C91 -206 97 -204 125 -215C142 -222 202 -237 247 -246C222 -132 166 -49 86 16C64 34 73 48 94 35C219 -40 279 -140 297 -258C340 -267 389 -275 407 -277C444 -282 443 -295 415 -304C402 -308 362 -305 301 -293C305 -329 308 -365 309 -392C333 -396 351 -400 366 -403C394 -408 395 -425 367 -434C360 -436 333 -436 310 -432C312 -443 316 -463 318 -470C324 -484 321 -497 280 -518C359 -534 373 -538 392 -547C424 -561 423 -570 396 -579C383 -583 363 -583 333 -572C301 -559 218 -543 150 -535C119 -531 117 -520 147 -511C176 -503 196 -503 247 -512ZM866 -679C835 -691 811 -693 778 -685C737 -675 708 -669 673 -662C505 -631 478 -628 440 -627C407 -626 405 -613 430 -604C452 -595 471 -595 500 -601C562 -612 790 -639 848 -641C891 -643 894 -668 866 -679ZM240 -624C246 -657 224 -686 177 -697C150 -704 145 -697 160 -670C173 -645 193 -617 204 -605C220 -588 235 -592 240 -624ZM441 -706C464 -716 458 -737 409 -758C377 -773 364 -766 368 -742C372 -716 347 -667 290 -601C275 -583 287 -575 305 -591C403 -681 424 -697 441 -706ZM685 -723C686 -757 668 -779 595 -794C581 -797 574 -789 587 -771C612 -732 634 -709 652 -696C670 -685 684 -693 685 -723Z"/>
</svg>