<svg xmlns="http://www.w3.org/2000/svg" viewBox="0 -1000 1000 1000">
	<path fill="#000000" d="M796 -608C799 -669 808 -692 827 -717C841 -736 836 -748 788 -775C755 -793 743 -792 715 -776C695 -763 604 -747 542 -740C516 -737 515 -722 547 -711C571 -703 589 -705 708 -731C731 -737 735 -736 737 -708C742 -646 738 -566 725 -497C710 -415 711 -409 728 -382C742 -361 760 -363 771 -399C782 -433 789 -492 796 -608ZM352 -21C499 -39 565 -42 624 -39C637 -6 645 18 648 34C654 60 661 61 679 40C709 6 715 -12 716 -108C717 -202 724 -252 736 -271C752 -297 749 -309 704 -332C664 -351 654 -349 627 -338C609 -332 526 -316 430 -302C457 -335 485 -361 508 -377C535 -396 535 -408 494 -424C445 -444 438 -436 444 -412C450 -393 433 -355 394 -298C369 -295 349 -293 333 -292C274 -314 270 -304 281 -282C295 -252 304 -132 304 -60C304 -4 308 17 326 35C343 52 350 51 352 -21ZM344 -261C405 -264 473 -274 504 -282C518 -285 569 -292 591 -292C645 -292 657 -286 660 -246C663 -205 660 -145 653 -102C647 -61 636 -60 625 -73C610 -91 587 -90 561 -86C538 -81 507 -77 352 -57C352 -86 352 -119 351 -150C417 -147 521 -157 596 -177C611 -181 612 -191 594 -203C570 -216 522 -210 350 -172C349 -205 347 -237 344 -261ZM333 -505C306 -484 258 -461 211 -441C186 -431 166 -424 153 -424C128 -424 126 -410 153 -384C184 -355 199 -355 215 -375C227 -390 238 -402 349 -486C378 -510 370 -534 333 -505ZM440 -561C443 -635 450 -663 467 -687C485 -711 481 -720 435 -745C401 -762 391 -762 364 -747C345 -736 217 -704 175 -701C150 -698 150 -693 180 -676C211 -658 229 -659 266 -675C282 -681 325 -693 358 -701C376 -705 387 -701 389 -681C393 -627 393 -562 385 -528C367 -459 366 -442 381 -416C397 -387 404 -389 418 -414C426 -430 437 -487 440 -561ZM315 -553C320 -586 300 -605 222 -617C197 -621 192 -611 209 -594C220 -583 270 -546 283 -539C300 -528 312 -533 315 -553ZM685 -549C597 -505 546 -490 514 -489C492 -488 488 -477 525 -447C550 -427 561 -429 578 -446C592 -461 635 -492 695 -527C722 -544 713 -562 685 -549ZM661 -614C657 -646 628 -660 558 -659C540 -659 539 -656 548 -646C562 -631 600 -603 630 -585C647 -575 665 -586 661 -614Z"/>
</svg>