<svg xmlns="http://www.w3.org/2000/svg" viewBox="0 -1000 1000 1000">
	<path fill="#000000" d="M650 -697C676 -711 679 -727 628 -750C582 -771 573 -762 576 -746C580 -724 553 -686 445 -590C407 -605 394 -595 410 -577C427 -559 441 -516 441 -474C440 -374 435 -355 420 -332C412 -320 413 -307 422 -287C436 -257 447 -256 459 -277C486 -326 526 -382 565 -397C566 -265 519 -189 440 -112C413 -85 415 -79 446 -94C492 -117 540 -162 567 -210C596 -265 607 -361 603 -418C598 -490 598 -525 601 -538C606 -556 605 -563 576 -572C540 -583 535 -577 542 -558C554 -527 562 -470 564 -420C534 -404 503 -386 474 -368C476 -424 476 -483 474 -536C473 -560 471 -567 456 -582C516 -621 584 -661 650 -697ZM429 -722C416 -730 379 -731 354 -724C269 -702 176 -682 121 -676C91 -673 90 -662 114 -655C124 -652 138 -649 159 -650C173 -610 178 -528 171 -238C104 -215 85 -211 70 -212C40 -214 33 -196 70 -172C107 -148 117 -149 150 -173C173 -191 228 -221 313 -261C312 -178 309 -128 303 -110C290 -79 288 -52 302 -20C317 15 327 13 343 -25C348 -37 351 -57 353 -122C354 -156 353 -211 352 -280C390 -299 392 -304 389 -309C386 -315 381 -316 352 -305C348 -554 350 -581 354 -606C361 -636 355 -645 313 -670C362 -678 411 -689 428 -695C441 -699 445 -712 429 -722ZM910 -558C925 -574 920 -590 865 -610C826 -624 819 -623 803 -612C761 -583 731 -571 688 -570C645 -577 639 -568 652 -552C665 -537 672 -499 677 -429C683 -339 685 -177 683 -92C681 3 684 55 687 66C694 94 701 96 712 67C724 35 730 3 731 -89C732 -183 728 -336 718 -550C733 -552 747 -556 761 -561C773 -565 796 -570 805 -570C826 -570 832 -567 833 -540C834 -499 828 -436 820 -406C813 -381 808 -379 775 -388C752 -394 750 -388 764 -372C780 -353 797 -327 810 -305C817 -294 831 -294 843 -309C869 -340 880 -388 883 -494C884 -519 895 -542 910 -558ZM314 -290C271 -274 235 -260 207 -250C206 -291 207 -313 208 -377C233 -372 250 -374 278 -385C296 -391 296 -400 283 -409C266 -419 257 -418 209 -401C208 -446 209 -487 209 -505C233 -502 255 -505 279 -515C297 -523 292 -541 273 -544C255 -546 243 -543 210 -529C211 -567 212 -595 215 -606C218 -618 218 -629 186 -650C213 -653 247 -657 294 -665C306 -628 310 -586 312 -511C313 -418 314 -347 314 -290Z"/>
</svg>