<svg xmlns="http://www.w3.org/2000/svg" viewBox="0 -1000 1000 1000">
	<path fill="#000000" d="M843 -625C864 -638 866 -649 818 -683C784 -708 777 -703 779 -673C780 -657 774 -645 702 -562C687 -543 693 -537 711 -547C785 -589 815 -608 843 -625ZM543 -583C542 -599 517 -623 495 -631C457 -646 448 -637 465 -606C478 -581 492 -554 502 -544C525 -519 546 -541 543 -583ZM396 -649C418 -677 419 -684 385 -708C343 -738 336 -736 303 -716C278 -701 250 -693 210 -685C142 -705 127 -691 154 -659C169 -639 177 -564 175 -461C172 -274 136 -182 59 -66C35 -31 43 -25 78 -56C144 -115 197 -214 212 -336C247 -327 263 -328 285 -335C316 -344 316 -362 292 -373C280 -378 264 -376 215 -362C218 -390 220 -436 221 -486C249 -482 269 -483 285 -488C316 -497 319 -517 292 -525C275 -529 265 -528 222 -516C223 -565 223 -615 221 -660C241 -669 258 -672 287 -677C327 -685 333 -677 332 -613C330 -417 329 -354 327 -230C326 -146 323 -146 280 -163C243 -177 241 -174 264 -145C284 -119 296 -99 306 -70C321 -28 339 -28 360 -68C377 -99 385 -133 382 -216C377 -356 377 -407 377 -492C377 -597 380 -630 396 -649ZM916 -347C891 -367 846 -370 795 -360C773 -355 718 -347 655 -337C655 -378 655 -399 656 -439C691 -445 729 -452 765 -461C810 -472 803 -495 781 -500C765 -504 719 -499 656 -482C660 -608 665 -695 672 -719C687 -767 685 -769 630 -792C577 -815 566 -796 589 -765C600 -749 608 -674 608 -471C575 -465 530 -458 508 -457C477 -455 473 -440 511 -431C533 -427 568 -427 608 -431C608 -397 607 -363 605 -329C526 -318 456 -308 409 -305C377 -303 379 -293 407 -279C436 -265 472 -264 505 -278C525 -286 557 -293 604 -298C601 -213 597 -37 603 49C607 115 627 113 640 48C651 -4 655 -145 655 -302C744 -309 779 -311 894 -303C942 -300 950 -319 916 -347Z"/>
</svg>