<svg xmlns="http://www.w3.org/2000/svg" viewBox="0 -1000 1000 1000">
	<path fill="#000000" d="M489 -569C501 -575 504 -589 482 -600C468 -607 442 -604 409 -592C398 -588 384 -584 368 -579C387 -678 398 -723 404 -741C416 -775 413 -786 363 -804C316 -821 302 -809 319 -777C337 -745 333 -658 320 -566C257 -551 187 -538 155 -533C108 -528 106 -522 155 -505C175 -498 230 -504 313 -521L292 -379C263 -373 232 -368 208 -366C147 -385 138 -365 158 -337C168 -321 201 -238 201 -219C201 -194 207 -171 222 -151C239 -128 263 -136 254 -196C315 -205 399 -221 418 -226C440 -233 444 -245 432 -256C421 -266 420 -272 431 -294C440 -312 458 -334 473 -342C496 -354 493 -371 450 -398C429 -411 407 -413 399 -408C392 -404 366 -396 332 -388L359 -530C425 -546 468 -557 489 -569ZM872 -673C885 -692 880 -703 838 -720C789 -742 776 -734 753 -720C721 -700 664 -684 612 -680C550 -701 538 -684 561 -659C571 -647 577 -539 569 -407C557 -217 487 -77 380 21C345 52 353 64 390 41C521 -43 594 -185 610 -324C664 -318 713 -323 731 -329C775 -343 771 -366 735 -371C721 -373 700 -368 612 -341C616 -377 619 -430 620 -486C665 -480 705 -484 745 -498C772 -507 771 -528 736 -534C727 -537 679 -523 621 -502C624 -561 624 -619 624 -659C642 -659 663 -660 676 -664C714 -674 743 -679 757 -679C779 -679 785 -670 786 -658C799 -534 815 -207 803 -122C799 -94 792 -90 720 -115C698 -123 693 -115 710 -98C740 -67 777 -19 790 9C802 35 821 39 839 9C862 -27 869 -64 868 -145C867 -207 857 -335 850 -435C841 -557 847 -638 872 -673ZM386 -344C379 -283 374 -261 346 -252C339 -249 287 -237 246 -229C238 -273 230 -313 226 -342C289 -355 342 -364 360 -364C385 -364 388 -360 386 -344Z"/>
</svg>