<svg xmlns="http://www.w3.org/2000/svg" viewBox="0 -1000 1000 1000">
	<path fill="#000000" d="M806 -756C786 -765 753 -764 711 -748C664 -729 592 -709 545 -701C563 -730 575 -748 584 -760C599 -780 601 -790 564 -803C519 -818 511 -812 516 -779C521 -745 477 -657 404 -574C393 -561 400 -547 420 -563C468 -600 506 -640 534 -683C574 -675 613 -676 672 -690C707 -699 731 -702 760 -708C834 -725 834 -744 806 -756ZM786 -563C804 -582 810 -591 751 -621C716 -640 702 -639 679 -626C647 -610 594 -595 531 -587C484 -608 474 -595 491 -565C498 -552 510 -503 512 -465C516 -385 518 -380 525 -380C533 -380 539 -381 542 -389C577 -396 619 -402 645 -407C668 -411 679 -407 685 -395C692 -381 705 -379 719 -392C729 -401 739 -426 749 -466C766 -530 771 -547 786 -563ZM962 -45C829 -63 753 -94 669 -157C686 -179 706 -206 718 -228C735 -260 746 -274 762 -286C781 -302 784 -312 735 -334C706 -347 697 -345 675 -336C635 -319 587 -308 557 -305C561 -311 564 -315 566 -318C584 -346 584 -352 560 -364C521 -383 513 -378 516 -354C518 -339 501 -296 488 -273C463 -227 418 -177 372 -137C366 -130 361 -125 359 -120C362 -140 363 -160 362 -180C361 -220 360 -475 363 -559C365 -615 374 -648 384 -662C405 -689 403 -698 365 -719C330 -739 318 -738 302 -724C276 -702 247 -692 213 -692C150 -715 142 -706 165 -672C174 -658 186 -529 178 -393C168 -227 126 -130 72 -32C53 3 67 11 84 -9C150 -85 199 -179 216 -332C245 -328 264 -328 289 -339C306 -346 309 -368 281 -375C270 -378 260 -376 218 -359C221 -393 223 -436 224 -483C252 -480 271 -480 295 -490C311 -496 315 -519 287 -526C276 -529 266 -527 225 -510C226 -561 225 -614 224 -666C244 -667 261 -670 292 -678C307 -682 316 -674 317 -655C321 -579 318 -223 307 -147C303 -115 298 -110 250 -123C228 -129 225 -124 241 -105C257 -88 271 -63 286 -32C300 -2 311 0 330 -31C342 -50 352 -81 358 -115C360 -112 367 -112 380 -120C440 -156 486 -190 523 -249C538 -235 562 -212 615 -158C577 -113 497 -62 410 -38C386 -31 389 -15 416 -18C510 -28 580 -64 643 -128C681 -89 719 -48 760 -11C789 14 816 14 956 -11C998 -18 989 -41 962 -45ZM706 -562C705 -528 701 -491 694 -456C690 -437 688 -436 669 -437C658 -438 602 -427 546 -414C547 -433 546 -456 544 -481C573 -479 598 -484 650 -498C677 -505 676 -517 659 -524C649 -528 610 -524 581 -513C567 -508 555 -506 543 -504C542 -523 539 -545 537 -565C567 -566 602 -572 644 -583C702 -598 707 -591 706 -562ZM677 -273C665 -242 652 -214 633 -184C593 -216 567 -240 534 -268C537 -273 540 -278 543 -283C571 -280 596 -282 642 -293C681 -302 687 -299 677 -273Z"/>
</svg>