<svg xmlns="http://www.w3.org/2000/svg" viewBox="0 -1000 1000 1000">
	<path fill="#000000" d="M868 -710C847 -722 826 -725 787 -714C773 -710 757 -706 743 -702C753 -725 762 -742 765 -750C778 -780 777 -788 740 -801C693 -818 683 -811 697 -780C704 -768 702 -744 688 -688C644 -679 603 -670 568 -664C566 -680 564 -692 564 -701C563 -727 552 -741 517 -748C482 -755 468 -741 494 -716C505 -707 516 -685 526 -657C490 -652 462 -649 439 -648C412 -647 406 -640 425 -625C443 -612 469 -610 486 -616C491 -618 510 -622 535 -626C539 -612 542 -597 545 -582C548 -566 559 -558 566 -559C573 -560 579 -580 577 -593C575 -607 573 -620 571 -633C602 -640 640 -646 679 -651C674 -635 669 -619 663 -600C653 -574 662 -569 678 -583C691 -597 702 -615 722 -659C766 -665 804 -671 828 -675C876 -681 889 -697 868 -710ZM380 -642C398 -673 398 -679 359 -708C329 -730 310 -732 291 -717C273 -703 243 -693 202 -693C150 -707 143 -693 165 -665C179 -646 189 -550 186 -399C184 -223 160 -138 104 -32C86 5 96 7 112 -10C179 -78 215 -165 228 -303C257 -302 280 -305 290 -309C317 -321 313 -344 285 -349C276 -350 260 -347 230 -338C232 -368 232 -413 231 -471C258 -471 278 -473 293 -480C314 -487 315 -509 285 -516C276 -518 261 -516 231 -506C230 -555 229 -609 228 -671C249 -672 267 -675 286 -680C304 -684 310 -680 313 -656C320 -583 333 -194 325 -122C321 -94 316 -93 278 -96C256 -98 251 -89 266 -75C285 -56 311 -23 325 0C333 13 345 14 352 3C379 -39 385 -75 379 -176C372 -292 365 -469 366 -550C367 -612 371 -625 380 -642ZM958 -2C979 -5 976 -19 957 -24C881 -46 824 -69 785 -93C732 -127 682 -170 636 -217C715 -226 803 -234 851 -227C919 -219 927 -238 901 -261C882 -278 831 -285 785 -276C764 -271 700 -261 632 -251C635 -261 638 -269 639 -272C651 -299 649 -306 608 -332C682 -344 697 -341 708 -334C719 -325 736 -323 745 -335C755 -349 769 -375 782 -407C797 -447 815 -487 824 -494C843 -509 842 -517 796 -546C756 -570 747 -571 721 -561C702 -554 537 -521 487 -517C435 -525 430 -513 456 -483C471 -466 491 -396 501 -349C507 -317 517 -309 526 -309C531 -309 537 -313 539 -321C558 -324 574 -327 587 -329C594 -306 596 -276 587 -244C512 -233 441 -222 426 -222C396 -222 390 -211 412 -195C427 -184 442 -181 477 -192C489 -196 528 -203 579 -210C545 -121 509 -87 420 -51C391 -39 396 -26 428 -31C544 -47 595 -106 619 -200C661 -145 702 -89 731 -54C791 20 799 24 958 -2ZM741 -488C738 -459 730 -422 721 -395C711 -362 705 -357 695 -360C667 -370 639 -368 538 -345C535 -368 530 -390 526 -411C585 -405 632 -414 682 -431C698 -438 701 -450 686 -458C675 -465 642 -461 618 -452C600 -445 550 -435 522 -430C518 -454 513 -475 507 -491C547 -496 578 -501 618 -511C655 -520 697 -524 717 -525C744 -526 745 -524 741 -488Z"/>
</svg>