<svg xmlns="http://www.w3.org/2000/svg" viewBox="0 -1000 1000 1000">
	<path fill="#000000" d="M678 -510C685 -538 678 -556 642 -575C611 -592 603 -581 616 -559C625 -544 627 -523 629 -453C630 -400 630 -381 627 -345C622 -285 622 -259 631 -247C641 -231 649 -231 659 -248C671 -270 675 -303 672 -385C671 -421 674 -494 678 -510ZM558 -470C575 -488 573 -499 526 -531C496 -551 489 -552 469 -542C432 -523 289 -489 229 -488C263 -524 300 -572 349 -646C358 -660 375 -674 391 -686C410 -700 402 -719 359 -743C316 -767 308 -758 316 -729C325 -698 220 -505 131 -427C114 -413 120 -403 139 -413C167 -429 192 -449 218 -476C233 -469 251 -466 271 -467C267 -418 219 -340 142 -266C114 -241 119 -228 156 -251C195 -275 239 -317 266 -354C281 -374 302 -403 314 -417C325 -430 321 -444 297 -470C314 -475 351 -481 378 -485C382 -424 333 -323 274 -244C223 -177 191 -142 124 -91C98 -72 102 -61 128 -72C177 -92 252 -144 301 -207C334 -250 362 -301 395 -364C408 -388 423 -416 428 -424C436 -437 432 -447 391 -487C420 -492 446 -494 465 -494C483 -494 487 -490 491 -465C499 -399 473 -208 421 -140C399 -110 381 -110 328 -143C313 -153 305 -144 317 -127C337 -98 348 -73 359 -42C367 -19 374 -18 402 -37C441 -63 464 -90 483 -135C502 -184 514 -225 520 -270C541 -426 547 -457 558 -470ZM830 -115C829 -186 824 -291 821 -342C811 -527 817 -666 828 -694C846 -741 840 -754 757 -782C728 -791 716 -777 736 -750C755 -725 759 -700 762 -665C775 -511 785 -228 767 -94C763 -63 752 -60 685 -83C645 -95 641 -86 665 -66C685 -49 728 11 738 33C752 63 766 62 786 36C822 -10 831 -42 830 -115Z"/>
</svg>