<svg xmlns="http://www.w3.org/2000/svg" viewBox="0 -1000 1000 1000">
	<path fill="#000000" d="M889 -450C900 -468 891 -485 849 -508C813 -528 801 -529 774 -519C732 -504 676 -488 623 -478C675 -571 735 -665 746 -678C771 -706 767 -717 711 -738C653 -760 642 -745 655 -722C674 -693 659 -601 596 -473C587 -471 578 -470 569 -469C562 -472 550 -473 530 -474C515 -475 509 -465 519 -451C537 -427 560 -293 560 -169C560 -84 576 -48 585 -48C594 -48 605 -60 605 -105C625 -104 644 -105 663 -109C744 -126 766 -125 770 -108C776 -86 782 -68 793 -44C807 -13 821 -18 845 -82C858 -118 862 -142 864 -270C866 -386 871 -420 889 -450ZM461 -577C478 -597 477 -604 443 -626C417 -645 412 -645 393 -631C370 -617 329 -601 291 -590C350 -678 385 -726 400 -747C416 -767 415 -781 365 -799C316 -816 311 -808 323 -785C336 -760 319 -675 264 -582C257 -580 250 -579 244 -578C236 -581 224 -583 206 -586C192 -588 188 -580 198 -567C219 -539 228 -439 223 -336C110 -308 62 -301 40 -305C18 -309 10 -294 38 -272C69 -248 86 -247 108 -257C134 -270 176 -285 221 -301C211 -201 170 -76 115 -1C96 26 102 31 126 12C201 -48 247 -152 264 -315C312 -331 362 -346 401 -356C403 -255 405 -149 404 -102C403 -50 396 -45 343 -52C313 -56 310 -51 335 -31C350 -18 381 16 393 36C409 62 424 62 437 30C454 -13 459 -37 454 -136C439 -508 440 -553 461 -577ZM365 -201C365 -221 352 -242 309 -259C297 -264 291 -258 297 -244C303 -226 313 -208 326 -191C343 -169 365 -176 365 -201ZM400 -379C348 -366 304 -356 267 -345C271 -415 267 -499 258 -560C295 -569 339 -580 370 -587C390 -591 395 -587 396 -552C397 -517 399 -451 400 -379ZM803 -444C805 -384 804 -267 800 -206C795 -121 788 -119 768 -145C752 -163 741 -165 605 -126C603 -182 600 -238 596 -287C633 -282 668 -287 719 -300C755 -309 760 -319 746 -330C730 -343 707 -343 684 -332C662 -323 622 -311 595 -307C590 -368 585 -418 579 -449C605 -451 632 -456 697 -469C773 -485 802 -476 803 -444ZM359 -457C358 -471 332 -493 310 -497C295 -500 290 -495 295 -485C304 -464 318 -440 324 -431C334 -417 361 -427 359 -457Z"/>
</svg>