<svg xmlns="http://www.w3.org/2000/svg" viewBox="0 -1000 1000 1000">
	<path fill="#000000" d="M894 -285C869 -307 849 -307 808 -295C785 -288 774 -285 757 -281L756 -429C803 -438 823 -443 851 -452C890 -465 893 -479 870 -487C841 -497 818 -494 757 -468C759 -508 762 -520 774 -542C782 -558 782 -568 730 -588C788 -616 833 -637 844 -641C874 -651 873 -665 834 -689C793 -713 777 -711 778 -687C779 -666 733 -624 646 -571C621 -556 622 -544 650 -551C685 -560 689 -562 702 -572C717 -546 718 -539 718 -455C670 -443 650 -439 632 -437C609 -435 608 -426 630 -417C657 -406 666 -406 718 -419L714 -272C666 -262 649 -260 610 -260C585 -260 581 -250 603 -235C628 -218 644 -217 675 -226C744 -247 803 -253 856 -251C916 -248 923 -259 894 -285ZM426 -586C442 -609 442 -618 407 -631C377 -643 363 -643 349 -633C325 -617 304 -608 267 -601C331 -676 376 -719 411 -746C428 -759 429 -773 380 -790C338 -804 330 -802 332 -779C335 -747 326 -725 244 -597C238 -596 231 -595 224 -594C185 -607 174 -595 187 -574C205 -544 214 -449 206 -350C122 -331 112 -330 73 -332C51 -333 48 -323 72 -299C98 -273 104 -271 121 -279C157 -296 184 -308 203 -314C190 -198 154 -109 95 -31C76 -4 81 0 103 -16C184 -76 237 -201 245 -328L366 -366C366 -214 365 -169 362 -134C357 -76 354 -74 302 -86C275 -92 272 -84 292 -66C314 -47 337 -14 348 5C362 28 371 25 386 0C409 -38 416 -82 412 -221C405 -468 414 -569 426 -586ZM947 -67C991 -80 985 -96 941 -96C811 -97 702 -120 554 -200C564 -227 576 -267 579 -280C585 -308 594 -335 603 -346C619 -367 616 -374 596 -387C570 -402 564 -402 552 -397C530 -388 527 -389 531 -399C581 -533 588 -551 605 -566C622 -582 621 -597 581 -605C544 -613 541 -612 525 -598C503 -577 487 -569 466 -565C439 -559 440 -554 463 -547C476 -543 504 -542 516 -547C535 -556 540 -554 536 -530C522 -445 516 -426 497 -386C488 -367 497 -358 513 -359C540 -361 544 -358 544 -345C544 -320 532 -251 523 -218C469 -249 450 -256 441 -254C411 -249 412 -239 436 -231C464 -222 480 -213 512 -191C498 -166 479 -142 446 -111C413 -79 416 -75 440 -85C483 -103 522 -134 542 -171C598 -135 677 -86 720 -60C784 -22 798 -22 947 -67ZM337 -231C342 -255 331 -275 291 -288C278 -292 272 -286 276 -271C282 -251 293 -227 303 -212C313 -197 332 -206 337 -231ZM366 -389L246 -360C250 -471 250 -520 242 -573C285 -583 321 -591 334 -592C358 -593 363 -589 364 -561C365 -524 366 -459 366 -389ZM342 -462C345 -480 330 -504 303 -513C283 -520 279 -515 284 -500C291 -479 304 -450 310 -442C320 -429 337 -431 342 -462Z"/>
</svg>