<svg xmlns="http://www.w3.org/2000/svg" viewBox="0 -1000 1000 1000">
	<path fill="#000000" d="M823 -699C804 -709 773 -714 726 -705C702 -700 679 -696 653 -692C664 -717 677 -742 684 -751C704 -775 704 -791 655 -812C594 -840 588 -827 600 -793C608 -770 605 -723 596 -683C547 -676 490 -669 411 -661C410 -697 410 -712 412 -724C417 -754 416 -759 369 -777C319 -795 306 -778 323 -756C337 -738 344 -718 357 -656C278 -648 226 -644 194 -644C150 -644 146 -629 183 -607C212 -589 220 -588 280 -602C309 -609 330 -613 364 -619C367 -602 370 -582 374 -560C377 -540 384 -531 394 -532C408 -534 417 -552 416 -569C415 -591 414 -610 413 -627C459 -634 532 -643 586 -647C577 -615 564 -574 560 -561C549 -527 564 -520 585 -544C602 -563 616 -587 638 -650C680 -652 730 -650 799 -647C852 -644 876 -672 823 -699ZM548 -493C538 -527 510 -541 452 -544C420 -546 422 -529 435 -515C461 -489 484 -471 502 -465C538 -453 554 -474 548 -493ZM893 -467C872 -480 807 -489 777 -481C750 -474 620 -454 485 -437C416 -427 171 -399 149 -398C70 -394 66 -385 101 -361C127 -343 142 -339 195 -350C304 -373 389 -389 470 -398C467 -370 444 -329 379 -254C292 -152 239 -116 127 -54C97 -37 105 -24 132 -31C267 -60 394 -158 485 -293C491 -302 497 -311 502 -318C529 -298 552 -288 592 -280C606 -277 618 -261 614 -235C606 -185 565 -98 529 -68C503 -46 481 -49 423 -85C397 -102 386 -98 408 -68C431 -37 443 -6 454 35C459 50 478 59 504 47C544 29 603 -21 649 -135C676 -198 680 -205 702 -225C717 -240 720 -254 690 -286C663 -314 639 -326 619 -325C582 -323 545 -327 513 -336C521 -346 526 -352 528 -354C544 -368 546 -379 520 -403C695 -418 757 -418 861 -408C938 -400 945 -435 893 -467Z"/>
</svg>