<svg xmlns="http://www.w3.org/2000/svg" viewBox="0 -1000 1000 1000">
	<path fill="#000000" d="M830 -717C806 -732 775 -736 718 -719C708 -717 678 -712 635 -706C647 -734 660 -760 668 -771C685 -794 681 -809 636 -824C590 -842 574 -833 591 -801C598 -786 593 -746 580 -698C530 -692 474 -686 419 -679C418 -695 418 -709 419 -715C423 -753 419 -761 358 -775C319 -784 307 -770 338 -748C355 -735 364 -716 375 -674C284 -664 204 -656 181 -656C147 -656 144 -645 179 -621C196 -609 219 -608 259 -621C280 -627 325 -635 382 -645C387 -623 392 -600 398 -572C399 -567 409 -557 416 -560C424 -563 428 -577 426 -595C423 -612 422 -631 421 -650C468 -655 519 -660 570 -664C563 -643 553 -621 544 -601C531 -574 549 -567 563 -583C585 -608 606 -642 619 -668C678 -672 732 -673 773 -671C875 -666 881 -685 830 -717ZM981 -66C1003 -68 1001 -87 975 -92C799 -127 737 -162 509 -346C559 -351 617 -357 679 -359C720 -361 717 -377 695 -390C679 -398 638 -404 606 -396C586 -392 550 -384 510 -377C510 -415 510 -438 511 -462C592 -472 689 -485 723 -489C767 -494 766 -508 749 -521C733 -533 700 -541 643 -526C612 -519 565 -511 513 -502C514 -521 515 -532 516 -536C524 -555 518 -566 483 -575C440 -586 435 -577 456 -548C462 -539 465 -531 468 -495C381 -483 289 -471 242 -469C217 -468 217 -454 248 -446C273 -440 328 -439 404 -449C418 -451 441 -454 470 -458C471 -432 472 -402 472 -370C407 -360 338 -349 291 -346C268 -344 262 -329 290 -320C310 -313 333 -311 384 -325C394 -328 408 -330 425 -334C350 -212 279 -145 117 -48C96 -35 110 -26 132 -35C294 -88 423 -216 474 -331C479 -257 470 -136 458 -84C451 -59 459 11 477 37C491 58 500 56 511 31C516 19 525 -38 521 -68C518 -89 510 -226 510 -311C600 -209 668 -145 727 -95C782 -50 791 -42 981 -66Z"/>
</svg>