<svg xmlns="http://www.w3.org/2000/svg" viewBox="0 -1000 1000 1000">
	<path fill="#000000" d="M653 -556C666 -587 663 -594 621 -616C579 -639 567 -624 586 -594C597 -578 600 -561 605 -466C606 -443 606 -391 598 -358C583 -296 603 -258 617 -258C634 -258 651 -293 648 -398C646 -461 648 -541 653 -556ZM529 -483C547 -503 546 -511 512 -526C477 -543 459 -545 442 -534C434 -529 396 -519 347 -509C348 -544 350 -573 351 -598C376 -602 401 -609 427 -618C474 -633 481 -649 457 -662C441 -672 420 -670 355 -651C359 -685 364 -709 369 -724C381 -762 381 -770 325 -788C278 -805 265 -794 298 -754C309 -741 313 -713 313 -638C277 -627 248 -623 220 -619C191 -615 190 -603 219 -594C237 -590 271 -588 313 -592C313 -566 313 -537 312 -502C248 -491 211 -484 181 -481C131 -499 123 -483 139 -464C156 -447 168 -411 171 -370C172 -362 173 -342 177 -332C188 -304 203 -299 211 -329C215 -346 215 -358 212 -388C208 -423 207 -435 200 -459C227 -462 260 -467 312 -477C312 -449 311 -421 310 -396C258 -283 145 -173 55 -107C34 -93 36 -81 64 -92C129 -118 234 -194 307 -315C302 -193 296 -133 290 -112C277 -73 277 -64 289 -34C308 19 323 19 334 -24C339 -43 343 -92 341 -151C338 -249 344 -405 346 -483C381 -489 410 -493 425 -494C451 -496 461 -492 461 -465C461 -456 459 -440 452 -412C449 -395 442 -391 402 -393C387 -394 385 -387 404 -373C415 -365 427 -352 439 -330C450 -313 462 -315 475 -334C495 -365 500 -375 506 -408C514 -454 519 -472 529 -483ZM810 -702C827 -740 829 -754 760 -791C718 -813 703 -802 725 -769C732 -759 741 -721 743 -686C751 -553 754 -287 745 -155C739 -71 733 -70 648 -90C616 -98 617 -91 642 -71C662 -56 705 -4 716 13C739 46 748 45 771 14C795 -20 808 -72 804 -127C801 -169 796 -308 795 -368C792 -511 797 -675 810 -702ZM496 -199C490 -221 448 -265 389 -282C368 -289 364 -286 373 -270C391 -236 444 -175 469 -160C492 -144 506 -165 496 -199Z"/>
</svg>