<svg xmlns="http://www.w3.org/2000/svg" viewBox="0 -1000 1000 1000">
	<path fill="#000000" d="M826 -721C797 -736 770 -739 720 -730C694 -725 673 -722 649 -718C658 -738 662 -746 670 -758C683 -778 680 -788 640 -806C594 -826 586 -811 594 -791C603 -770 604 -747 597 -712C557 -707 505 -701 421 -693C420 -712 419 -725 420 -734C422 -760 413 -767 363 -780C330 -790 318 -777 334 -761C357 -740 366 -725 375 -688C275 -680 215 -676 178 -675C158 -674 145 -664 175 -645C201 -628 210 -628 246 -637C280 -646 330 -653 382 -660C385 -646 388 -629 392 -610C395 -594 405 -586 413 -589C421 -591 430 -606 428 -622C426 -639 425 -652 424 -665C487 -672 539 -676 591 -679C587 -657 585 -647 582 -633C577 -613 586 -605 602 -621C611 -631 616 -640 633 -680C712 -681 742 -681 795 -675C843 -669 878 -694 826 -721ZM879 -381C911 -387 908 -398 874 -403C751 -420 725 -425 591 -477C610 -492 619 -501 638 -518C653 -530 677 -546 688 -551C708 -559 708 -569 673 -589C655 -600 644 -599 629 -591C609 -582 557 -574 515 -572C525 -582 530 -588 534 -591C545 -599 547 -613 514 -624C486 -633 477 -628 476 -613C475 -595 470 -584 452 -561C427 -529 403 -504 373 -481C360 -470 367 -459 383 -467C408 -483 428 -494 446 -509C478 -496 497 -488 525 -473C465 -428 385 -386 319 -362C296 -354 304 -340 328 -345C397 -359 485 -396 561 -455C634 -416 660 -402 706 -376C743 -355 754 -354 879 -381ZM293 -459C296 -500 281 -525 218 -536C195 -540 191 -532 200 -519C225 -478 233 -467 256 -445C271 -427 292 -440 293 -459ZM911 -17C940 -28 931 -40 897 -39C725 -33 633 -36 549 -50C564 -89 569 -118 570 -168C623 -170 686 -171 712 -168C752 -164 768 -184 742 -200C725 -213 701 -215 667 -211C644 -209 609 -206 572 -202C572 -218 572 -238 572 -255C630 -261 642 -263 654 -267C671 -271 670 -288 658 -292C647 -296 628 -297 572 -286C573 -303 573 -322 573 -336C626 -342 637 -343 650 -346C666 -349 671 -364 652 -370C638 -375 627 -376 575 -366C575 -375 575 -382 576 -385C579 -400 578 -405 545 -410C520 -414 512 -406 520 -389C523 -383 526 -370 528 -359C501 -355 469 -350 447 -348C426 -346 424 -334 446 -329C461 -325 477 -324 530 -330C531 -314 531 -296 531 -279C502 -274 471 -270 452 -269C430 -268 428 -256 451 -250C471 -245 479 -244 531 -250C531 -234 530 -214 530 -198C498 -194 465 -189 439 -186C407 -181 387 -179 368 -178C349 -177 346 -170 366 -157C384 -144 390 -144 422 -151C460 -159 488 -163 529 -166C529 -137 532 -82 537 -52C477 -63 418 -81 333 -108C305 -118 276 -126 255 -129C258 -151 255 -167 240 -217C234 -240 246 -278 286 -327C295 -337 292 -348 257 -360C228 -368 214 -370 200 -362C180 -353 142 -339 123 -334C112 -329 112 -322 121 -317C141 -306 159 -303 185 -309C209 -314 211 -311 210 -304C196 -264 196 -226 207 -201C219 -173 221 -158 221 -129C196 -125 161 -114 111 -100C82 -91 79 -85 94 -75C120 -55 132 -56 146 -63C219 -99 239 -100 281 -87C326 -73 387 -50 612 31C652 46 703 51 730 43C774 30 858 2 911 -17ZM605 -544C586 -521 569 -508 550 -491C506 -509 488 -517 465 -523C477 -533 489 -547 503 -560C529 -550 548 -550 591 -555C615 -558 616 -557 605 -544Z"/>
</svg>