<svg xmlns="http://www.w3.org/2000/svg" viewBox="0 -1000 1000 1000">
	<path fill="#000000" d="M508 -477C522 -483 521 -498 474 -527C440 -547 432 -547 416 -537C404 -529 374 -516 335 -505C338 -606 343 -665 352 -686C365 -713 357 -723 308 -749C255 -776 233 -766 259 -727C282 -693 292 -620 291 -492C257 -484 218 -476 183 -470C176 -479 163 -482 129 -485C110 -487 107 -480 121 -464C142 -441 177 -358 187 -312C193 -287 203 -278 212 -278C217 -278 222 -285 222 -300C240 -304 264 -308 289 -313L286 -166C178 -121 148 -115 122 -113C90 -110 90 -96 122 -69C149 -46 168 -42 195 -61C256 -103 345 -160 431 -204C438 -193 445 -180 451 -170C464 -149 489 -143 494 -182C498 -214 475 -257 424 -275C399 -284 391 -278 404 -255C410 -246 416 -234 422 -221L324 -181L329 -321C372 -329 412 -337 432 -341C458 -346 461 -353 453 -368C448 -379 450 -397 461 -418C471 -441 490 -468 508 -477ZM949 -167C920 -194 885 -195 841 -189C827 -187 779 -178 703 -165C709 -355 712 -413 721 -443C725 -458 723 -472 685 -489C772 -504 817 -514 844 -524C884 -541 879 -563 845 -570C826 -574 793 -573 745 -559C680 -538 598 -515 565 -512C524 -508 523 -492 560 -482C574 -478 601 -477 645 -483C659 -438 663 -335 653 -156C551 -139 491 -129 469 -128C444 -127 443 -115 465 -99C492 -79 515 -82 536 -88C679 -128 771 -130 910 -122C967 -119 980 -138 949 -167ZM421 -471C414 -401 405 -378 391 -370C384 -365 372 -359 329 -351L334 -479C368 -489 386 -493 398 -494C416 -495 423 -493 421 -471ZM291 -465L289 -341C270 -337 247 -331 220 -326C213 -379 206 -416 194 -446C222 -449 257 -456 291 -465Z"/>
</svg>