<svg xmlns="http://www.w3.org/2000/svg" viewBox="0 -1000 1000 1000">
	<path fill="#000000" d="M485 -202C446 -196 408 -191 380 -188C375 -209 361 -251 346 -280C383 -281 416 -285 481 -297C484 -265 485 -232 485 -202ZM657 -294C657 -276 646 -239 634 -233C623 -227 575 -218 522 -208C523 -241 523 -276 525 -304C585 -314 619 -316 634 -316C652 -316 657 -311 657 -294ZM478 -451C320 -429 157 -409 108 -409C78 -409 72 -397 98 -382C132 -362 149 -364 192 -373C268 -389 368 -405 459 -418C469 -403 475 -364 479 -319C424 -310 367 -303 328 -300C321 -302 311 -304 294 -306C270 -309 266 -302 284 -284C308 -258 338 -211 345 -182C351 -158 358 -145 373 -145C380 -145 384 -150 384 -161C418 -168 452 -175 485 -180L484 -81C362 -59 274 -48 255 -53C209 -63 204 -47 240 -14C277 19 296 22 322 10C367 -10 445 -32 680 -92C708 -58 737 -20 765 18C793 56 812 45 814 6C817 -66 774 -121 675 -150C632 -162 626 -155 648 -130C653 -124 657 -119 662 -113C612 -104 565 -95 521 -87L522 -186C558 -192 592 -196 620 -199C661 -202 694 -207 700 -210C715 -217 714 -225 700 -234C692 -239 722 -273 746 -287C775 -303 774 -310 722 -342C690 -361 672 -362 636 -349C624 -344 579 -335 526 -326C527 -342 528 -353 529 -358C538 -389 534 -397 487 -422C658 -446 769 -455 867 -448C965 -442 971 -463 912 -496C876 -517 841 -519 772 -500C738 -492 632 -474 513 -456C517 -479 518 -517 520 -572C557 -580 600 -589 650 -597C648 -590 646 -583 643 -577C633 -553 633 -534 648 -530C663 -526 690 -556 702 -598C708 -617 720 -641 732 -655C746 -672 744 -682 700 -706C652 -733 638 -726 658 -698C663 -691 661 -652 654 -617C617 -613 569 -607 521 -600C524 -690 530 -737 537 -748C550 -769 540 -785 495 -800C444 -818 428 -796 460 -768C471 -758 479 -661 479 -594C428 -587 379 -579 347 -573C356 -592 362 -611 363 -637C364 -651 355 -658 318 -675C299 -684 280 -671 300 -653C326 -631 307 -579 284 -558C263 -540 262 -527 268 -512C279 -485 283 -485 319 -510C338 -524 382 -541 478 -563C478 -549 476 -540 474 -534C467 -515 467 -482 478 -451Z"/>
</svg>