<svg xmlns="http://www.w3.org/2000/svg" viewBox="0 -1000 1000 1000">
	<path fill="#000000" d="M396 -464C411 -475 412 -482 369 -510C344 -526 333 -526 316 -512C305 -503 283 -493 253 -483C255 -625 262 -661 271 -677C283 -699 275 -711 226 -729C177 -747 162 -740 188 -704C205 -682 216 -617 216 -473C189 -466 159 -460 127 -454C121 -458 112 -461 97 -465C77 -470 66 -458 80 -444C92 -432 114 -373 132 -313C139 -290 150 -276 159 -276C164 -276 171 -281 169 -299C185 -304 201 -309 216 -314V-185C144 -151 108 -139 78 -136C55 -134 54 -126 82 -99C112 -71 118 -73 138 -89C170 -114 250 -170 332 -220C337 -207 342 -196 347 -186C362 -156 379 -161 385 -196C389 -221 381 -238 331 -281C320 -291 313 -286 317 -269C319 -258 322 -248 325 -238L247 -200L250 -323C288 -334 320 -342 339 -346C370 -352 373 -370 360 -379C353 -383 352 -395 356 -406C366 -431 382 -453 396 -464ZM702 -55C762 -14 774 -12 947 -54C993 -65 992 -75 938 -81C775 -98 663 -131 497 -235C527 -321 531 -331 539 -340C554 -357 550 -368 532 -380C519 -389 506 -393 492 -392C471 -390 468 -393 474 -408C516 -515 528 -541 551 -559C570 -574 573 -587 536 -609C505 -627 499 -627 481 -610C460 -590 432 -578 406 -573C390 -570 387 -565 408 -554C418 -549 441 -549 457 -557C487 -573 490 -565 484 -537C477 -505 468 -468 461 -444C453 -416 450 -410 423 -381C407 -363 415 -336 430 -350C442 -362 467 -369 479 -364C488 -360 485 -302 469 -253C425 -280 407 -287 395 -285C372 -281 370 -275 391 -265C410 -256 435 -242 458 -227C431 -168 382 -107 343 -79C302 -48 308 -37 348 -58C401 -86 459 -143 486 -207C544 -164 610 -118 702 -55ZM324 -440C320 -418 314 -400 308 -384C305 -375 295 -367 250 -351L253 -459C282 -467 297 -470 309 -471C324 -472 328 -464 324 -440ZM216 -339C202 -335 185 -330 166 -324C151 -398 146 -413 140 -429C155 -432 173 -436 216 -449ZM877 -296C855 -314 831 -317 800 -306C778 -298 764 -294 714 -282L716 -441C761 -450 784 -455 814 -462C852 -471 853 -488 833 -497C805 -509 791 -507 760 -494C736 -484 730 -481 717 -477C719 -539 724 -565 733 -580C740 -598 739 -607 689 -630C750 -667 775 -680 792 -685C823 -694 827 -708 784 -735C742 -761 732 -757 732 -732C732 -710 689 -669 612 -625C584 -610 582 -595 610 -600C620 -602 630 -605 659 -616C671 -588 676 -552 676 -465C627 -452 608 -448 589 -446C566 -444 564 -435 586 -424C609 -413 616 -413 633 -418C642 -420 655 -423 676 -429V-273C632 -262 589 -257 560 -256C536 -255 537 -246 559 -232C586 -215 603 -216 628 -225C680 -243 791 -263 844 -259C898 -255 904 -273 877 -296Z"/>
</svg>