<svg xmlns="http://www.w3.org/2000/svg" viewBox="0 -1000 1000 1000">
	<path fill="#000000" d="M787 -739C749 -759 731 -754 688 -736C648 -718 582 -697 531 -690C493 -684 496 -674 523 -666C563 -654 586 -654 650 -669C724 -685 760 -697 784 -707C802 -715 804 -730 787 -739ZM803 -540C822 -555 813 -571 772 -588C731 -604 724 -604 712 -599C636 -570 592 -559 551 -556C502 -582 483 -568 508 -542C519 -531 535 -482 542 -445C549 -406 559 -388 568 -388C575 -388 584 -396 585 -424C649 -437 697 -445 722 -448C781 -456 789 -469 773 -481C763 -489 762 -496 768 -504C781 -520 792 -532 803 -540ZM436 -499C452 -515 450 -523 403 -547C373 -564 368 -565 347 -549C333 -539 310 -529 280 -519C281 -576 287 -661 293 -681C302 -712 302 -728 231 -750C192 -763 186 -750 206 -722C230 -690 240 -635 242 -508C212 -500 179 -494 145 -491C95 -515 80 -508 93 -485C104 -464 128 -408 144 -358C158 -313 163 -307 171 -307C177 -307 182 -315 182 -330C204 -335 225 -340 244 -344L246 -215C161 -180 116 -164 82 -160C55 -157 52 -150 87 -120C123 -89 129 -88 158 -111C219 -158 268 -193 361 -239C367 -224 373 -210 379 -198C394 -168 405 -173 418 -205C430 -235 409 -278 353 -306C339 -314 336 -312 341 -294C344 -283 348 -271 352 -260L278 -228L279 -353C304 -359 324 -363 340 -365C411 -376 417 -387 398 -401C390 -407 392 -424 398 -436C417 -476 425 -488 436 -499ZM907 -319C926 -336 927 -347 871 -377C837 -396 829 -396 800 -387C761 -374 588 -339 485 -322C425 -345 419 -332 439 -302C448 -288 468 -184 471 -139C477 -35 491 -11 503 -11C513 -11 518 -20 518 -51C657 -78 713 -85 752 -80C768 -78 775 -66 783 -27C792 19 795 24 804 24C814 24 825 7 841 -23C858 -55 869 -118 879 -211C887 -288 893 -305 907 -319ZM718 -533C711 -493 699 -484 684 -478C664 -472 624 -462 581 -454C576 -482 571 -507 565 -531C616 -543 657 -551 687 -557C714 -561 721 -549 718 -533ZM356 -487C356 -464 349 -424 344 -405C341 -392 336 -387 279 -373L280 -494C311 -502 319 -504 330 -506C346 -509 356 -505 356 -487ZM244 -366C226 -363 205 -359 180 -354C172 -399 165 -439 156 -469C181 -471 208 -475 242 -485ZM827 -307C829 -233 815 -154 806 -121C799 -96 792 -93 782 -101C757 -123 753 -124 662 -106L661 -200C688 -204 723 -213 758 -223C778 -229 781 -247 757 -257C749 -260 737 -258 716 -251C698 -245 680 -239 661 -234C661 -256 664 -278 668 -291C672 -303 669 -310 639 -330C698 -340 750 -348 778 -349C816 -350 826 -345 827 -307ZM622 -98C592 -93 553 -86 516 -81C512 -135 501 -230 491 -301C528 -308 566 -317 603 -324C618 -293 622 -273 622 -225C596 -219 573 -214 558 -212C533 -207 532 -200 554 -193C565 -190 582 -189 622 -194Z"/>
</svg>