<svg xmlns="http://www.w3.org/2000/svg" viewBox="0 -1000 1000 1000">
	<path fill="#000000" d="M574 -152C613 -161 651 -167 691 -170C715 -172 718 -188 707 -196C700 -201 700 -205 706 -222C716 -251 721 -261 732 -270C746 -282 742 -299 697 -317C683 -322 673 -321 650 -311C623 -298 581 -287 549 -284C509 -291 507 -285 519 -263C528 -239 538 -199 545 -154C549 -122 568 -118 574 -152ZM562 -259C593 -266 616 -272 645 -277C658 -279 667 -270 666 -255C663 -215 658 -203 644 -198C624 -191 594 -183 572 -179C567 -201 563 -234 562 -259ZM531 -524C550 -522 567 -524 590 -533C600 -537 608 -534 607 -519C605 -482 602 -433 600 -392C578 -387 558 -383 538 -379C537 -423 535 -473 531 -524ZM511 -668C458 -687 440 -669 460 -640C478 -615 496 -520 501 -373C484 -371 466 -368 448 -366C416 -381 398 -374 406 -350C420 -308 427 -184 420 -130C415 -92 416 -68 423 -53C438 -19 457 -22 467 -55C469 -61 469 -74 469 -134C469 -167 465 -292 462 -338C569 -360 680 -376 760 -382C788 -384 804 -376 806 -350C814 -257 812 -198 799 -109C791 -70 781 -66 716 -91C703 -97 694 -86 708 -72C736 -42 751 -19 761 13C765 30 778 33 790 24C836 -10 848 -38 860 -125C867 -169 871 -224 870 -247C867 -316 869 -358 878 -373C889 -392 888 -398 836 -429C814 -441 802 -442 786 -435C780 -432 769 -429 745 -422C775 -603 787 -639 804 -655C819 -671 820 -681 810 -691C791 -708 774 -719 750 -730C738 -738 724 -734 707 -723C684 -708 564 -675 511 -668ZM700 -412C677 -407 663 -404 635 -399C639 -478 647 -518 660 -534C673 -550 671 -557 640 -576C624 -586 609 -586 601 -579C587 -566 550 -553 530 -550C528 -579 525 -608 522 -637C570 -646 611 -655 685 -675C715 -683 728 -675 725 -633C718 -541 711 -476 700 -412ZM267 -333C390 -359 392 -371 375 -385C369 -390 367 -396 370 -405C388 -461 399 -482 413 -495C433 -512 430 -524 378 -546C358 -554 350 -553 331 -542C317 -533 295 -524 269 -516C271 -603 275 -652 285 -673C296 -699 289 -720 237 -741C197 -756 187 -741 209 -707C223 -685 229 -634 228 -503C195 -495 161 -487 133 -483C127 -488 116 -491 86 -495C66 -497 65 -488 78 -473C96 -449 115 -404 134 -331C143 -301 152 -295 158 -295C167 -295 176 -301 177 -315C195 -319 212 -322 226 -325L225 -191C115 -150 90 -145 70 -146C46 -147 41 -132 72 -106C102 -80 117 -80 133 -94C159 -115 250 -162 344 -202C366 -148 385 -149 395 -191C403 -223 388 -259 327 -285C315 -291 306 -282 313 -270C320 -255 326 -241 331 -229C307 -221 289 -213 266 -205ZM226 -356C211 -353 192 -349 171 -346C166 -374 158 -408 145 -453C167 -456 194 -463 228 -472ZM269 -484C294 -491 305 -495 319 -498C337 -503 341 -495 339 -476C335 -433 331 -413 325 -393C323 -384 308 -376 268 -366Z"/>
</svg>