<svg xmlns="http://www.w3.org/2000/svg" viewBox="0 -1000 1000 1000">
	<path fill="#000000" d="M830 -703C846 -710 849 -725 813 -746C780 -764 768 -765 750 -752C732 -742 712 -737 613 -720C590 -716 570 -715 557 -714C531 -712 529 -702 553 -693C577 -683 586 -681 629 -695C627 -682 623 -669 616 -657C591 -614 558 -583 521 -556C503 -544 507 -535 529 -543C568 -555 617 -594 650 -645C653 -648 667 -667 673 -676C678 -683 677 -690 668 -703C757 -721 762 -720 762 -701C762 -693 759 -670 756 -661C747 -632 740 -630 710 -636C694 -639 692 -629 699 -622C708 -613 720 -598 729 -584C737 -571 748 -572 762 -584C779 -598 787 -611 807 -672C811 -684 822 -699 830 -703ZM485 -570C499 -592 494 -602 464 -618C442 -630 428 -631 411 -622C395 -615 375 -609 342 -602C405 -672 429 -690 452 -697C480 -704 481 -718 443 -739C416 -752 411 -751 389 -740C358 -721 329 -712 302 -710C323 -741 331 -752 336 -760C349 -780 348 -787 313 -798C275 -812 266 -802 273 -785C278 -768 266 -730 249 -700C237 -681 210 -645 187 -625C176 -615 179 -606 191 -611C223 -625 269 -667 291 -695C315 -691 331 -692 378 -697C368 -674 342 -636 317 -599C288 -596 253 -591 206 -586C167 -600 157 -584 173 -562C185 -546 187 -455 171 -389C162 -353 130 -289 104 -251C92 -234 99 -228 123 -246C154 -268 190 -322 205 -376C222 -440 226 -492 223 -566C241 -568 265 -570 295 -575C300 -565 302 -550 302 -510C286 -507 266 -506 260 -506C241 -506 239 -495 252 -488C261 -484 274 -482 302 -486C302 -470 301 -445 301 -426C281 -422 261 -419 256 -418C238 -415 237 -411 253 -404C262 -401 279 -399 299 -400C295 -347 295 -332 299 -315C302 -301 311 -297 320 -312C331 -332 332 -341 333 -404C359 -409 391 -415 399 -418C416 -425 417 -432 401 -441C396 -445 381 -445 333 -433C334 -453 335 -473 336 -491C364 -496 390 -501 403 -507C418 -512 415 -524 396 -527C386 -529 375 -529 338 -518C338 -528 339 -536 340 -542C343 -558 342 -568 331 -582C351 -585 380 -588 402 -590C418 -591 424 -585 426 -568C433 -520 435 -483 428 -397C426 -369 423 -366 391 -374C379 -377 375 -369 382 -362C394 -349 405 -330 416 -312C420 -303 432 -301 443 -312C464 -334 475 -358 476 -392C477 -432 477 -471 475 -501C473 -537 477 -558 485 -570ZM893 -446C878 -456 846 -462 825 -457C812 -454 770 -447 719 -438C719 -454 719 -472 719 -489C744 -493 773 -500 808 -507C830 -513 831 -525 810 -534C798 -539 781 -537 719 -519C720 -529 720 -536 721 -538C729 -554 725 -564 701 -572C660 -586 655 -576 673 -553C677 -549 679 -539 680 -508C658 -504 635 -501 614 -499C618 -506 623 -512 627 -517C636 -529 635 -536 613 -544C589 -551 578 -544 580 -533C582 -524 576 -505 569 -494C563 -482 543 -454 534 -443C524 -430 530 -423 546 -432C560 -440 583 -460 603 -485C623 -481 648 -480 680 -483C680 -468 680 -452 680 -431C613 -419 543 -409 526 -408C494 -406 493 -401 507 -390C519 -379 534 -375 558 -381C604 -392 631 -398 680 -404C679 -353 678 -331 679 -310C681 -269 699 -264 710 -305C717 -332 721 -365 720 -409C770 -413 823 -414 875 -413C909 -412 914 -430 893 -446ZM830 19C842 -25 799 -77 692 -122C673 -130 668 -121 680 -107C684 -102 691 -92 699 -80L512 -58L517 -136C616 -144 647 -147 686 -151C697 -152 703 -161 698 -166C694 -169 694 -182 697 -185C717 -203 739 -214 749 -217C760 -220 761 -235 731 -252C680 -280 675 -278 650 -272C623 -265 578 -258 527 -252C528 -257 529 -264 532 -271C537 -283 531 -292 497 -303C458 -315 446 -305 461 -283C465 -277 469 -263 471 -245C421 -240 376 -235 328 -231C324 -235 315 -238 293 -239C265 -241 262 -236 273 -224C290 -207 300 -188 321 -131C329 -109 336 -100 345 -100C351 -100 357 -107 360 -116C404 -120 441 -129 473 -132L472 -52C342 -33 219 -23 199 -29C176 -35 164 -28 196 7C220 34 228 36 264 27C337 8 446 -13 714 -61C738 -28 766 10 778 26C804 60 819 59 830 19ZM653 -219C644 -193 636 -180 627 -177C617 -174 584 -169 519 -161C522 -191 523 -213 525 -229C576 -237 624 -242 632 -242C654 -241 659 -236 653 -219ZM474 -157C442 -153 403 -144 359 -139C353 -163 346 -187 337 -210C377 -213 426 -217 473 -222C474 -203 474 -180 474 -157Z"/>
</svg>