<svg xmlns="http://www.w3.org/2000/svg" viewBox="0 -1000 1000 1000">
	<path fill="#000000" d="M302 -531C374 -544 469 -554 553 -561C575 -533 598 -542 613 -577C629 -612 654 -647 679 -664C700 -679 699 -687 649 -717C610 -741 594 -741 576 -733C566 -729 482 -713 382 -697C395 -709 423 -735 432 -743C449 -760 464 -773 473 -778C496 -791 495 -806 450 -819C405 -832 393 -824 400 -808C407 -793 397 -759 350 -692C326 -688 305 -685 290 -683C284 -686 275 -688 262 -690C227 -696 222 -689 237 -671C250 -656 262 -617 262 -546C262 -473 260 -440 256 -421C253 -406 254 -394 260 -376C268 -352 279 -355 296 -392C301 -396 313 -399 366 -407C477 -423 572 -433 692 -442C717 -444 725 -429 711 -398C696 -361 684 -360 640 -373C623 -378 616 -369 633 -355C652 -340 664 -318 672 -292C675 -281 682 -280 701 -291C736 -309 750 -325 776 -380C786 -403 794 -413 808 -421C823 -431 822 -443 777 -470C741 -491 728 -492 698 -483C654 -470 417 -438 297 -428C298 -437 299 -458 299 -476C341 -468 488 -480 578 -504C600 -509 601 -521 580 -526C563 -532 543 -530 501 -522C388 -499 342 -494 300 -492C301 -507 301 -515 302 -531ZM301 -663C327 -662 376 -667 401 -672C425 -677 532 -692 561 -695C592 -698 599 -688 594 -672C577 -616 569 -601 559 -586C549 -591 537 -591 516 -588C471 -580 347 -560 303 -556C303 -572 303 -586 303 -599C338 -595 425 -600 494 -613C508 -616 527 -620 536 -621C551 -623 555 -639 536 -646C518 -652 492 -649 459 -639C442 -634 384 -624 303 -614C303 -638 303 -653 301 -663ZM465 -355C461 -386 442 -405 401 -401C381 -399 378 -393 392 -378C410 -360 424 -349 439 -340C451 -334 465 -341 465 -355ZM391 -210C406 -223 416 -233 424 -241C457 -225 507 -190 650 -85C705 -44 717 -40 749 -42C790 -44 834 -50 921 -68C941 -72 937 -85 915 -87C843 -94 801 -102 767 -111C699 -129 648 -149 588 -182C610 -196 626 -206 639 -215C651 -224 663 -229 683 -234C697 -238 696 -253 664 -276C631 -300 617 -296 619 -280C623 -262 598 -224 567 -194C546 -205 526 -217 502 -232C475 -247 459 -255 444 -259C453 -268 452 -276 435 -296C499 -306 531 -310 554 -312C618 -316 616 -334 597 -344C579 -354 562 -354 520 -347C348 -311 281 -302 200 -300C173 -299 169 -291 196 -272C220 -256 247 -253 294 -271C305 -275 321 -278 392 -290C384 -267 356 -233 312 -195C275 -164 183 -106 106 -70C82 -59 82 -49 111 -54C186 -67 290 -120 362 -182C371 -128 362 -49 337 -29C319 -15 317 -4 328 16C350 57 364 60 374 44C393 15 412 -8 515 -102C534 -119 528 -125 509 -116C498 -111 463 -94 402 -59C401 -80 405 -155 408 -172C411 -188 406 -198 391 -210Z"/>
</svg>