<svg xmlns="http://www.w3.org/2000/svg" viewBox="0 -1000 1000 1000">
	<path fill="#000000" d="M500 -283C515 -318 510 -335 447 -354C433 -359 424 -348 431 -337C450 -308 465 -289 475 -279C358 -259 259 -248 220 -246C185 -244 185 -231 212 -222C235 -213 257 -212 285 -216C306 -219 340 -224 377 -228C366 -214 349 -198 321 -174C262 -124 170 -67 79 -30C62 -24 64 -10 88 -16C189 -38 247 -66 356 -148C357 -60 350 -31 328 -15C308 1 306 12 322 29C351 60 363 61 381 39C399 15 439 -25 491 -68C532 -102 523 -113 486 -95C454 -78 429 -66 398 -49C398 -106 401 -128 408 -143C415 -158 412 -166 393 -177C412 -195 424 -205 435 -215C521 -144 595 -86 683 -18C731 18 743 19 920 -11C942 -16 942 -31 918 -35C768 -60 705 -72 585 -145C617 -158 636 -167 673 -188C684 -194 712 -206 732 -212C751 -217 751 -221 708 -240C667 -259 660 -257 658 -247C652 -228 628 -202 563 -160C531 -181 493 -206 448 -237C518 -245 585 -255 609 -259C665 -270 660 -291 639 -296C617 -303 592 -301 562 -296C541 -292 521 -287 500 -283ZM257 -607C274 -603 297 -603 357 -613C357 -596 357 -581 357 -566C211 -535 139 -523 107 -522C83 -522 80 -517 102 -500C126 -481 137 -481 175 -490C216 -501 296 -520 356 -534C356 -516 356 -500 355 -485C327 -479 297 -472 271 -468C226 -485 219 -477 231 -449C239 -431 235 -377 229 -361C224 -348 230 -332 241 -321C256 -308 266 -310 272 -345C278 -376 280 -405 281 -441C300 -444 331 -450 354 -456C353 -417 351 -393 349 -385C339 -354 339 -341 352 -315C364 -289 374 -290 387 -322C390 -331 392 -351 392 -388C392 -402 392 -432 392 -468C408 -472 423 -475 433 -476C458 -478 465 -474 466 -464C467 -451 467 -440 464 -422C462 -412 454 -406 425 -410C410 -412 409 -408 421 -402C438 -390 453 -377 463 -363C474 -347 482 -345 494 -364C503 -378 510 -401 511 -438C512 -458 514 -470 520 -481C525 -491 523 -497 496 -507C466 -518 458 -517 438 -510C428 -506 411 -501 392 -496C393 -511 393 -526 393 -542C434 -550 474 -557 506 -562C548 -569 550 -581 540 -588C527 -599 508 -600 445 -585C432 -582 411 -577 394 -574C395 -590 396 -606 396 -619C429 -626 455 -634 492 -646C513 -653 512 -660 501 -670C487 -680 458 -678 398 -659C400 -696 406 -723 410 -729C420 -743 411 -754 355 -774C327 -783 319 -763 339 -740C350 -727 355 -695 356 -647C315 -635 290 -629 271 -626C281 -639 289 -651 291 -654C299 -665 297 -671 258 -690C239 -699 233 -696 232 -678C231 -658 227 -642 218 -621C209 -600 193 -578 175 -556C160 -539 163 -533 185 -544C216 -560 237 -582 257 -607ZM639 -618C644 -633 642 -641 603 -657C573 -670 564 -658 574 -640C590 -612 592 -524 587 -501C582 -482 587 -461 596 -447C605 -433 613 -432 624 -446C632 -457 635 -476 633 -524C632 -557 635 -606 639 -618ZM727 -778C698 -785 690 -775 707 -751C717 -737 724 -717 727 -682C733 -612 730 -445 724 -411C720 -392 712 -385 669 -398C639 -406 633 -394 649 -381C694 -346 710 -331 716 -320C729 -300 738 -299 749 -311C769 -332 780 -371 777 -402C773 -437 774 -542 777 -612C780 -685 783 -701 788 -715C797 -739 796 -745 787 -750C776 -760 754 -770 727 -778Z"/>
</svg>