<svg xmlns="http://www.w3.org/2000/svg" viewBox="0 -1000 1000 1000">
	<path fill="#000000" d="M372 -704C370 -739 348 -767 285 -773C250 -776 246 -767 260 -749C278 -723 306 -692 325 -678C353 -658 374 -667 372 -704ZM884 -387C907 -418 905 -428 852 -458C816 -477 802 -477 760 -460C748 -455 735 -452 713 -447C688 -442 631 -429 596 -423C549 -415 528 -413 510 -418C526 -433 538 -443 546 -449C572 -467 569 -480 539 -498C540 -500 541 -502 541 -505C568 -507 601 -513 629 -520C679 -533 702 -531 708 -520C717 -502 733 -503 756 -554C765 -573 780 -610 789 -632C794 -649 807 -672 812 -676C842 -701 842 -712 780 -745C741 -764 722 -764 695 -751C688 -747 663 -739 636 -732C610 -727 592 -723 569 -719C548 -715 524 -714 499 -714C445 -731 441 -722 463 -692C475 -673 491 -608 505 -534C509 -514 513 -503 518 -497C515 -494 512 -488 509 -479C505 -469 493 -451 470 -424C458 -409 433 -385 416 -370C401 -357 405 -349 422 -355C441 -361 464 -374 496 -404C520 -389 539 -386 595 -397C599 -381 594 -360 576 -328C559 -298 525 -267 497 -241C485 -229 485 -219 504 -226C546 -241 598 -290 619 -319C654 -288 689 -261 710 -246C745 -222 759 -236 738 -281C727 -305 708 -317 626 -331C633 -343 638 -350 642 -353C662 -371 661 -378 625 -403C676 -413 724 -421 757 -423C806 -426 809 -423 812 -371C814 -339 810 -231 799 -162C784 -72 772 -60 714 -77C668 -91 660 -82 688 -55C713 -30 725 -11 738 18C751 46 757 51 790 23C825 -8 847 -69 855 -149C862 -202 865 -248 869 -309C872 -357 879 -380 884 -387ZM408 -441C429 -458 429 -469 385 -480C357 -487 347 -481 353 -457C356 -449 339 -403 321 -369C312 -371 301 -373 290 -376C286 -390 282 -402 276 -414C332 -511 346 -530 361 -540C392 -564 389 -572 355 -588C324 -602 307 -601 292 -584C282 -574 265 -567 192 -545C147 -531 107 -524 83 -523C56 -522 53 -512 81 -497C113 -479 130 -477 162 -491C232 -522 250 -530 292 -540C275 -496 259 -464 217 -401C193 -363 124 -274 85 -240C42 -201 50 -192 80 -208C149 -250 223 -329 260 -387C264 -361 263 -320 258 -247C255 -201 248 -146 239 -116C227 -76 230 -57 244 -24C258 3 275 5 284 -25C295 -64 300 -100 299 -135C296 -179 296 -230 297 -254C298 -300 297 -331 294 -357C317 -338 335 -323 362 -304C382 -288 397 -294 394 -319C391 -339 380 -351 338 -364C361 -396 383 -420 408 -441ZM724 -205C704 -220 669 -220 621 -209C575 -199 534 -190 459 -176C462 -215 470 -291 471 -298C476 -322 472 -328 441 -340C422 -348 411 -338 424 -313C433 -294 433 -266 431 -242C429 -206 423 -185 415 -179C394 -163 391 -152 402 -133C420 -103 428 -102 456 -128C481 -153 605 -178 688 -173C743 -169 743 -189 724 -205ZM731 -685C729 -662 725 -633 717 -599C705 -552 701 -551 676 -554C664 -555 648 -553 606 -540C592 -536 568 -531 540 -527C537 -552 534 -577 531 -603C551 -601 571 -602 608 -608C632 -612 660 -620 671 -625C694 -635 694 -643 677 -651C661 -658 633 -654 605 -643C580 -632 553 -625 529 -620C527 -646 523 -670 520 -694C542 -693 564 -695 604 -703C621 -707 675 -715 702 -717C726 -719 733 -713 731 -685Z"/>
</svg>