<svg xmlns="http://www.w3.org/2000/svg" viewBox="0 -1000 1000 1000">
	<path fill="#000000" d="M330 -691C336 -730 315 -752 243 -769C212 -776 206 -769 216 -752C233 -727 273 -681 288 -672C309 -659 325 -665 330 -691ZM963 -129C987 -132 988 -144 962 -152C867 -178 787 -227 673 -373C673 -376 673 -379 673 -382C716 -390 770 -395 845 -399C887 -401 899 -421 874 -437C853 -450 827 -453 797 -443C757 -430 714 -418 673 -408C674 -429 676 -444 678 -450C683 -467 682 -476 642 -508C677 -513 709 -518 742 -522C782 -527 784 -547 761 -552C747 -556 745 -560 749 -572C755 -589 775 -618 806 -642C827 -659 820 -672 769 -699C730 -719 723 -720 701 -707C667 -686 613 -668 563 -664C519 -679 511 -670 528 -642C536 -631 554 -569 565 -516C570 -491 577 -480 584 -481C590 -482 593 -485 594 -499C604 -501 614 -503 623 -504C632 -478 636 -440 639 -399C575 -384 521 -374 502 -372C470 -368 472 -360 488 -351C509 -341 533 -342 567 -355C578 -359 588 -363 599 -366C567 -270 517 -197 462 -148C455 -142 450 -136 447 -132C448 -171 448 -216 447 -275C446 -311 448 -404 450 -430C451 -447 443 -461 411 -493C435 -530 454 -572 469 -612C482 -645 498 -679 504 -686C516 -701 511 -715 474 -734C444 -750 424 -742 437 -719C450 -694 405 -532 328 -417C308 -390 316 -383 340 -403C362 -422 382 -446 399 -474C421 -392 414 -159 398 -119C384 -86 383 -61 396 -29C408 1 430 9 437 -33C442 -59 444 -86 446 -121C450 -121 459 -124 469 -130C551 -179 605 -238 637 -375C637 -376 639 -376 640 -376C644 -285 638 -176 626 -92C618 -30 634 26 652 26C666 26 682 -14 679 -93C676 -171 673 -265 673 -337C712 -271 749 -216 777 -174C810 -124 828 -115 963 -129ZM361 -229C362 -244 350 -262 295 -291C328 -312 343 -322 354 -329C365 -336 365 -346 346 -360C324 -375 314 -373 312 -357C309 -337 300 -317 283 -298C275 -302 266 -307 257 -311C257 -325 257 -336 258 -341C260 -357 257 -371 241 -389C252 -406 265 -426 278 -447C296 -476 321 -505 333 -513C359 -532 354 -545 323 -561C293 -576 276 -575 266 -561C246 -532 117 -487 61 -487C49 -487 44 -475 57 -464C85 -439 97 -440 117 -449C141 -461 206 -490 243 -506C258 -513 263 -511 249 -485C168 -336 106 -249 49 -194C27 -172 32 -162 55 -175C109 -207 139 -233 221 -359C232 -295 223 -170 209 -108C196 -50 206 -4 233 3C247 7 262 -38 258 -127C256 -162 255 -243 256 -296C284 -265 316 -229 329 -218C346 -203 360 -205 361 -229ZM717 -644C714 -573 710 -559 696 -552C666 -540 637 -532 596 -525C595 -546 586 -598 577 -641C618 -647 646 -653 687 -665C709 -671 718 -666 717 -644Z"/>
</svg>