<svg xmlns="http://www.w3.org/2000/svg" viewBox="0 -1000 1000 1000">
	<path fill="#000000" d="M384 -355C390 -378 388 -385 357 -400C337 -410 324 -402 336 -381C341 -372 344 -361 347 -304C348 -282 347 -269 343 -247C340 -223 344 -208 355 -193C363 -180 367 -181 373 -191C378 -200 381 -221 379 -280C378 -320 381 -344 384 -355ZM423 -470C405 -477 394 -464 411 -442C419 -433 423 -414 424 -377C429 -246 428 -173 420 -121C417 -98 410 -94 376 -105C362 -110 357 -105 366 -94C384 -76 397 -57 411 -31C420 -17 426 -16 437 -29C464 -61 470 -83 467 -161C466 -186 465 -260 465 -308C465 -359 468 -400 475 -419C482 -438 479 -445 423 -470ZM177 -304C179 -334 180 -360 181 -384C199 -389 220 -394 232 -396C247 -399 253 -394 254 -380C259 -330 260 -176 251 -111C248 -90 238 -86 199 -98C187 -102 182 -91 192 -80C223 -52 238 -32 244 -20C251 -2 258 1 272 -19C291 -43 301 -98 298 -148C296 -177 293 -281 294 -327C295 -354 299 -379 305 -387C315 -401 314 -408 288 -425C269 -439 263 -439 245 -429C226 -417 198 -411 167 -410C136 -420 130 -412 138 -390C142 -382 146 -335 145 -286C144 -237 128 -152 115 -115C108 -95 107 -66 112 -53C120 -34 129 -30 139 -43C146 -52 151 -68 162 -126C164 -137 167 -162 169 -196C182 -195 200 -198 228 -206C241 -210 244 -223 223 -235C214 -240 209 -240 171 -224C173 -242 175 -262 176 -283C201 -281 220 -284 234 -291C240 -295 240 -303 235 -312C229 -322 213 -320 204 -315C199 -311 188 -307 177 -304ZM232 -506C219 -503 217 -499 234 -491C262 -479 337 -489 406 -517C428 -525 429 -540 410 -548C398 -553 371 -551 341 -541C304 -527 256 -512 232 -506ZM321 -673C340 -650 422 -596 451 -582C477 -569 491 -584 479 -615C467 -647 448 -660 327 -681C341 -704 353 -720 358 -725C377 -745 376 -751 322 -786C298 -802 282 -790 289 -773C294 -754 289 -729 267 -682C209 -560 130 -452 53 -375C41 -363 49 -354 63 -363C129 -403 242 -516 321 -673ZM576 -338C576 -361 575 -393 575 -422C611 -424 678 -435 699 -443C718 -450 720 -464 703 -472C691 -477 681 -477 649 -467C635 -462 598 -454 575 -452C575 -464 574 -505 573 -522C608 -525 679 -538 694 -543C715 -551 717 -556 709 -564C694 -577 679 -578 652 -568C632 -560 595 -552 573 -548C572 -587 572 -617 572 -641C616 -652 686 -668 716 -674C736 -679 747 -669 748 -642C751 -473 748 -398 739 -359C717 -365 698 -363 676 -354C660 -348 603 -340 576 -338ZM733 -337C730 -325 734 -317 747 -298C765 -272 769 -272 779 -287C791 -305 801 -371 802 -448C803 -570 808 -630 824 -654C835 -669 836 -680 797 -705C764 -725 741 -726 722 -715C686 -693 608 -672 556 -667C512 -679 506 -670 515 -650C525 -633 533 -598 534 -578C540 -479 540 -404 536 -371C532 -339 532 -324 540 -309C555 -283 572 -291 575 -311C605 -316 678 -325 693 -327C705 -329 720 -332 733 -337ZM413 17C394 31 406 44 424 34C486 1 560 -79 609 -188C618 -210 629 -232 632 -235C646 -253 643 -262 600 -287C582 -297 569 -291 576 -273C582 -257 577 -233 549 -171C523 -112 456 -17 413 17ZM734 -244C745 -259 739 -272 702 -299C688 -308 676 -306 679 -294C683 -262 685 -242 679 -176C675 -128 673 -99 675 -55C677 -1 726 37 817 36C867 35 919 22 943 4C960 -8 961 -17 949 -43C945 -52 939 -77 928 -150C924 -187 912 -186 907 -150C890 -39 888 -31 814 -24C746 -18 724 -36 717 -83C710 -132 722 -231 734 -244Z"/>
</svg>