<svg xmlns="http://www.w3.org/2000/svg" viewBox="0 -1000 1000 1000">
	<path fill="#000000" d="M680 -401C683 -516 700 -662 709 -681C722 -710 713 -731 662 -754C639 -764 625 -752 638 -728C648 -709 650 -537 639 -399C638 -383 637 -369 636 -355C609 -331 584 -310 565 -297C542 -281 553 -268 584 -283C601 -292 618 -301 634 -311C629 -169 649 -110 694 -87C740 -62 800 -60 854 -73C925 -92 936 -108 924 -134C914 -158 906 -202 902 -261C899 -300 887 -302 881 -261C868 -173 859 -152 824 -136C788 -120 736 -128 719 -138C690 -157 678 -202 679 -346C722 -380 760 -420 788 -455C819 -493 857 -535 866 -541C890 -559 889 -576 839 -612C813 -630 803 -623 805 -600C808 -564 763 -487 680 -401ZM493 -456C516 -502 535 -548 549 -595C561 -634 573 -659 581 -672C594 -691 589 -706 547 -725C512 -742 495 -734 506 -709C513 -690 513 -661 493 -587C461 -472 431 -410 375 -329C362 -309 373 -297 393 -317C425 -350 452 -386 474 -424C478 -407 480 -384 479 -354C476 -235 469 -157 464 -142C450 -103 451 -40 468 -12C477 3 493 3 501 -15C506 -27 515 -86 516 -110C520 -197 520 -378 518 -398C515 -421 511 -433 493 -456ZM358 -370C340 -375 322 -374 288 -360C245 -339 217 -332 181 -327C152 -324 150 -314 177 -308C220 -299 258 -301 345 -331C385 -344 390 -361 358 -370ZM366 -483C349 -488 330 -487 294 -472C251 -453 227 -445 189 -440C160 -437 158 -428 184 -421C228 -412 266 -413 354 -443C396 -457 396 -474 366 -483ZM205 -191C226 -197 254 -205 290 -212C310 -216 318 -211 319 -200C320 -186 320 -162 316 -143C310 -125 296 -116 223 -91C215 -139 211 -164 205 -191ZM225 -62C306 -83 329 -89 367 -97C385 -101 387 -114 372 -126C360 -136 360 -142 365 -163C372 -190 376 -199 389 -210C404 -226 402 -233 370 -251C333 -273 322 -272 308 -263C285 -246 232 -226 187 -222C176 -228 166 -233 150 -237C123 -241 116 -228 129 -214C151 -193 161 -168 189 -44C199 4 218 9 224 -22C226 -32 225 -41 225 -62ZM418 -594C388 -604 364 -601 315 -587C186 -553 129 -544 69 -545C36 -545 35 -539 57 -522C104 -487 118 -488 144 -498C209 -521 319 -551 390 -566C441 -576 441 -586 418 -594ZM366 -682C364 -729 355 -741 270 -760C244 -766 235 -761 250 -740C275 -698 297 -678 331 -649C349 -635 367 -652 366 -682Z"/>
</svg>