<svg xmlns="http://www.w3.org/2000/svg" viewBox="0 -1000 1000 1000">
	<path fill="#000000" d="M405 -291C423 -301 422 -315 398 -319C384 -321 345 -313 329 -306C314 -299 234 -278 210 -274C194 -271 193 -267 213 -259C242 -246 263 -246 298 -255C353 -267 381 -276 405 -291ZM405 -429C389 -437 376 -438 339 -424C305 -412 217 -384 198 -380C184 -377 185 -369 200 -363C233 -351 275 -354 393 -395C418 -404 423 -421 405 -429ZM484 -550C471 -557 450 -559 419 -552C220 -509 145 -502 95 -506C67 -508 65 -498 81 -484C127 -443 142 -440 203 -461C251 -476 301 -488 460 -519C498 -527 501 -539 484 -550ZM391 -651C391 -692 348 -733 275 -741C252 -743 250 -734 259 -722C287 -683 328 -642 355 -621C375 -606 391 -615 391 -651ZM234 -144C303 -159 329 -165 336 -168C351 -173 360 -168 359 -153C358 -133 356 -111 353 -95C349 -72 345 -69 336 -67C316 -62 301 -59 245 -45C240 -76 236 -115 234 -144ZM252 -9C290 -19 347 -30 405 -40C423 -43 426 -53 410 -68C397 -83 396 -90 400 -99C410 -121 425 -145 436 -155C453 -167 450 -184 418 -202C377 -224 364 -224 352 -215C325 -198 265 -179 219 -172C204 -176 186 -179 171 -180C146 -182 142 -165 155 -154C176 -137 187 -108 214 5C219 26 221 32 225 38C240 58 260 46 252 -9ZM573 0C720 -16 767 -21 809 -27C839 -31 844 -52 811 -74C801 -81 801 -89 809 -108C831 -160 839 -175 856 -188C880 -204 883 -216 843 -242C799 -271 784 -272 761 -261C745 -253 731 -249 658 -236L683 -409C833 -434 872 -440 909 -444C953 -448 950 -470 905 -486C871 -499 846 -496 800 -484C764 -475 728 -467 691 -459C716 -627 720 -644 727 -664C739 -702 737 -717 656 -741C611 -754 605 -746 633 -705C650 -679 656 -610 639 -449C581 -438 523 -429 465 -421C434 -417 437 -408 463 -399C489 -389 543 -388 633 -401L614 -228C593 -225 565 -222 546 -219C478 -250 468 -234 482 -207C500 -176 520 -77 525 -12C528 15 547 56 560 56C568 56 573 46 573 0ZM558 -189C633 -197 700 -207 737 -214C762 -218 769 -209 768 -182C766 -147 762 -125 755 -105C744 -65 725 -55 569 -37C565 -69 560 -128 558 -189Z"/>
</svg>