<svg xmlns="http://www.w3.org/2000/svg" viewBox="0 -1000 1000 1000">
	<path fill="#000000" d="M349 -366C331 -372 312 -371 279 -355C237 -337 207 -328 171 -322C143 -319 141 -310 167 -304C211 -295 249 -297 336 -327C375 -340 382 -356 349 -366ZM357 -475C339 -480 321 -479 285 -464C235 -442 213 -436 180 -432C151 -429 149 -419 175 -413C219 -404 257 -405 344 -435C387 -449 387 -466 357 -475ZM193 -186C227 -196 258 -203 281 -208C302 -213 308 -209 309 -196C310 -173 310 -158 306 -139C302 -124 290 -115 205 -87C200 -123 197 -150 193 -186ZM209 -58C261 -71 309 -83 358 -93C375 -97 377 -110 363 -122C352 -131 350 -137 356 -159C363 -183 369 -196 379 -206C395 -222 392 -229 361 -247C324 -269 314 -269 299 -259C270 -239 219 -222 178 -217C162 -226 149 -232 141 -233C114 -238 107 -224 120 -210C135 -195 143 -176 172 -40C183 8 201 13 207 -18C210 -28 210 -37 209 -58ZM409 -577C379 -586 357 -584 306 -572C187 -542 115 -533 60 -534C30 -535 26 -527 48 -511C93 -476 106 -475 133 -484C198 -507 309 -532 381 -544C432 -553 433 -568 409 -577ZM338 -661C336 -713 320 -726 242 -744C215 -751 205 -743 220 -721C245 -683 265 -660 301 -630C319 -616 339 -631 338 -661ZM761 -121C770 -496 773 -561 801 -601C814 -619 813 -628 770 -657C736 -681 717 -680 697 -672C653 -654 574 -636 522 -630C466 -651 452 -634 466 -616C487 -591 494 -504 490 -89C458 -85 421 -81 384 -79C344 -77 343 -64 376 -43C397 -30 408 -29 446 -39C476 -47 584 -66 662 -71C788 -79 847 -76 900 -66C952 -56 967 -74 941 -101C913 -130 876 -138 822 -130C803 -127 782 -124 761 -121ZM538 -453C539 -522 537 -581 535 -604C561 -604 597 -609 608 -612C644 -622 672 -625 694 -623C707 -622 713 -612 714 -546C715 -436 712 -268 707 -113C659 -107 603 -101 533 -93C534 -162 535 -222 536 -273C570 -264 616 -267 668 -280C695 -287 698 -314 662 -319C647 -321 621 -318 536 -292C537 -348 537 -394 537 -431C568 -425 605 -428 665 -441C691 -447 690 -467 665 -475C646 -481 622 -481 538 -453Z"/>
</svg>