<svg xmlns="http://www.w3.org/2000/svg" viewBox="0 -1000 1000 1000">
	<path fill="#000000" d="M837 -687C819 -724 771 -746 708 -740C668 -736 663 -728 689 -711C730 -680 774 -656 797 -647C834 -632 852 -654 837 -687ZM516 -741C531 -784 527 -792 461 -815C427 -828 407 -813 432 -783C445 -767 453 -716 456 -678C458 -620 458 -600 452 -583C445 -559 447 -539 460 -515C470 -494 478 -493 493 -514C500 -527 510 -559 510 -583C508 -626 507 -655 508 -677C509 -708 511 -729 516 -741ZM315 -560C322 -607 318 -626 303 -651C290 -672 279 -668 273 -644C269 -622 257 -592 244 -571C229 -547 226 -522 239 -496C246 -481 263 -477 275 -488C289 -498 310 -534 315 -560ZM667 -592C695 -608 691 -621 660 -650C620 -683 607 -681 598 -625C594 -603 546 -534 485 -473C453 -442 394 -392 315 -336C231 -276 165 -235 111 -208C84 -194 87 -182 119 -190C174 -203 243 -241 333 -299C421 -353 512 -429 569 -491C642 -573 655 -585 667 -592ZM786 -294C811 -315 808 -330 756 -359C722 -377 711 -378 685 -367C671 -361 626 -349 574 -337C582 -357 589 -371 594 -378C605 -395 601 -415 563 -429C531 -440 522 -430 528 -406C530 -392 525 -358 515 -323C473 -315 431 -308 401 -306C356 -304 352 -295 380 -276C399 -265 409 -263 503 -288C465 -183 383 -66 251 11C222 28 226 38 248 32C390 -5 507 -127 563 -303C615 -315 649 -322 675 -325C706 -329 715 -313 702 -217C693 -153 684 -126 666 -96C649 -68 637 -64 572 -81C537 -90 532 -81 562 -56C588 -33 606 -8 618 22C625 39 638 42 660 26C717 -18 739 -78 751 -171C762 -252 773 -283 786 -294Z"/>
</svg>