<svg xmlns="http://www.w3.org/2000/svg" viewBox="0 -1000 1000 1000">
	<path fill="#000000" d="M879 -461C904 -487 905 -495 860 -524C826 -546 808 -547 780 -530C768 -524 734 -513 693 -505C728 -663 743 -720 749 -729C768 -752 767 -761 717 -788C663 -817 643 -793 662 -767C676 -746 671 -628 638 -494C588 -485 535 -478 500 -476C483 -475 480 -463 500 -453C525 -440 542 -438 630 -461C585 -285 513 -116 368 -4C344 14 347 23 373 12C499 -44 617 -184 686 -474C715 -480 748 -485 771 -487C798 -490 805 -477 802 -433C791 -280 780 -225 745 -139C729 -96 725 -97 646 -130C631 -137 628 -129 636 -119C654 -96 688 -39 700 -12C711 11 723 12 742 -4C789 -41 819 -93 833 -217C857 -432 860 -443 879 -461ZM514 -257C510 -266 505 -267 421 -241C437 -547 445 -587 459 -600C485 -629 483 -643 430 -667C391 -686 384 -686 358 -668C336 -654 282 -638 228 -628C170 -655 153 -643 176 -607C191 -585 195 -552 200 -173C136 -153 111 -148 83 -147C54 -146 49 -134 76 -109C109 -79 128 -77 151 -94C172 -110 309 -171 492 -240C511 -247 517 -251 514 -257ZM385 -598C385 -537 379 -364 372 -225C326 -212 264 -193 236 -184C238 -228 240 -281 241 -336C271 -328 297 -331 340 -345C362 -351 362 -373 327 -375C311 -376 294 -372 241 -358C242 -393 244 -428 244 -462C277 -458 289 -459 321 -469C357 -479 361 -492 343 -501C333 -508 312 -504 244 -484C244 -530 244 -574 242 -609C272 -610 302 -615 349 -627C379 -635 385 -622 385 -598Z"/>
</svg>