<svg xmlns="http://www.w3.org/2000/svg" viewBox="0 -1000 1000 1000">
	<path fill="#000000" d="M358 -360C340 -365 322 -364 288 -349C245 -329 217 -321 181 -316C152 -313 150 -304 177 -298C220 -289 258 -291 345 -320C387 -335 389 -350 358 -360ZM366 -473C349 -478 330 -478 294 -462C251 -442 227 -435 189 -430C160 -427 158 -417 184 -411C228 -402 266 -403 354 -433C395 -446 397 -464 366 -473ZM205 -180C232 -189 261 -196 290 -202C310 -206 318 -204 319 -190C320 -167 320 -149 316 -133C312 -114 296 -106 223 -80C218 -118 214 -143 205 -180ZM225 -52C278 -65 319 -76 367 -87C385 -91 387 -104 372 -115C360 -126 360 -132 365 -153C372 -179 376 -189 389 -200C404 -215 402 -223 370 -241C335 -262 320 -261 308 -252C285 -236 232 -215 187 -211C172 -219 166 -223 150 -227C123 -231 116 -217 129 -204C151 -182 161 -158 189 -34C200 17 218 17 224 -11C226 -22 226 -31 225 -52ZM430 -584C400 -593 376 -590 327 -577C202 -544 120 -534 59 -535C29 -535 24 -528 47 -512C94 -477 106 -477 133 -487C178 -504 265 -527 402 -555C454 -566 454 -576 430 -584ZM350 -665C348 -717 327 -728 250 -746C222 -753 215 -747 229 -725C250 -693 267 -672 310 -635C328 -620 351 -636 350 -665ZM571 -532C529 -461 473 -406 410 -360C392 -345 400 -333 426 -344C504 -379 563 -431 612 -515C613 -482 612 -445 610 -415C608 -389 608 -375 614 -359C621 -343 634 -345 639 -358C648 -379 652 -411 650 -516C681 -479 697 -462 717 -440C779 -375 794 -373 915 -389C944 -394 941 -405 915 -411C831 -434 760 -464 651 -544C698 -552 774 -565 806 -570C842 -576 843 -591 827 -601C794 -615 768 -615 719 -599C699 -591 675 -585 651 -581C652 -599 653 -607 656 -611C671 -645 671 -656 635 -674C696 -696 721 -705 747 -711C780 -719 779 -737 721 -765C682 -783 675 -777 670 -756C663 -734 603 -698 512 -661C487 -650 486 -637 514 -640C540 -642 574 -651 597 -659C606 -643 608 -626 610 -572C544 -557 490 -549 460 -547C443 -546 441 -534 457 -527C476 -520 497 -519 514 -522C534 -525 553 -528 571 -532ZM529 -247C524 -234 516 -219 509 -203C495 -173 502 -161 524 -155C548 -147 577 -135 604 -121C555 -72 475 -32 378 -10C340 -2 343 11 387 9C481 4 583 -29 648 -96C736 -44 767 -20 798 10C828 39 854 33 844 -7C837 -37 815 -64 770 -90C747 -103 718 -116 677 -132C710 -179 732 -222 742 -269C805 -271 865 -270 919 -265C965 -261 974 -279 947 -297C906 -324 872 -326 803 -313C784 -309 762 -306 737 -303C732 -307 724 -312 711 -319C692 -331 682 -326 683 -296C652 -292 623 -289 597 -285C601 -293 605 -299 610 -306C625 -328 621 -338 597 -355C570 -375 558 -370 560 -348C562 -337 558 -316 542 -280C448 -271 416 -268 402 -268C372 -268 369 -261 388 -249C418 -232 429 -230 472 -238C491 -241 509 -244 529 -247ZM683 -265C677 -231 654 -183 630 -149C606 -158 579 -167 548 -177C538 -180 537 -188 545 -202C553 -214 562 -231 576 -255C612 -259 647 -263 683 -265Z"/>
</svg>