<svg xmlns="http://www.w3.org/2000/svg" viewBox="0 -1000 1000 1000">
	<path fill="#000000" d="M406 -647C423 -657 421 -673 392 -680C361 -687 341 -684 325 -677C297 -664 217 -640 177 -631C155 -626 150 -617 179 -605C207 -593 265 -598 318 -614C370 -630 393 -638 406 -647ZM410 -474C440 -493 441 -505 393 -522C347 -539 335 -537 320 -524C297 -505 229 -478 160 -465C108 -472 107 -460 125 -443C143 -425 156 -401 175 -343C183 -320 189 -307 203 -298C217 -289 226 -297 225 -320C304 -340 346 -351 364 -357C381 -363 387 -372 374 -380C363 -388 362 -396 369 -413C384 -450 399 -467 410 -474ZM965 -37C831 -67 743 -105 666 -172C686 -203 708 -255 721 -295C732 -332 743 -350 756 -361C785 -384 782 -394 734 -412C700 -425 684 -426 669 -414C664 -410 650 -404 630 -396L639 -518C704 -538 739 -550 776 -562C819 -576 828 -598 794 -606C771 -611 721 -602 705 -595C695 -590 671 -582 643 -572C651 -683 656 -730 661 -739C676 -767 674 -774 625 -794C560 -822 552 -809 575 -773C592 -744 597 -650 595 -554C552 -538 510 -523 491 -518C472 -512 470 -503 505 -496C528 -491 547 -492 593 -504L588 -380C552 -367 512 -356 481 -351C454 -347 451 -338 474 -327C493 -318 509 -317 553 -337C575 -347 634 -364 653 -367C673 -370 675 -366 668 -330C656 -274 645 -234 632 -205C610 -227 588 -248 562 -277C546 -295 534 -299 509 -303C478 -308 474 -296 502 -278C537 -256 575 -223 615 -175C570 -114 468 -49 376 -25C357 -20 356 -8 376 -9C507 -15 583 -66 644 -140C675 -104 721 -54 749 -23C766 -5 786 1 817 1C846 1 922 -5 964 -12C993 -17 993 -31 965 -37ZM219 -181C226 -216 210 -247 171 -265C150 -274 143 -269 150 -245C157 -218 168 -186 180 -168C190 -151 214 -157 219 -181ZM423 -163C460 -177 454 -190 413 -184C405 -183 361 -172 304 -154C338 -211 374 -255 382 -261C408 -280 406 -287 359 -310C326 -326 312 -319 319 -296C325 -274 315 -234 276 -145C241 -134 203 -121 166 -109C127 -96 102 -90 74 -89C56 -88 51 -73 74 -53C109 -21 115 -21 148 -40C202 -71 264 -102 423 -163ZM326 -455C316 -399 312 -386 296 -376C278 -365 259 -359 218 -350C206 -389 198 -419 191 -445C227 -452 252 -460 294 -474C321 -483 329 -476 326 -455Z"/>
</svg>