<svg xmlns="http://www.w3.org/2000/svg" viewBox="0 -1000 1000 1000">
	<path fill="#000000" d="M686 -721C686 -761 647 -803 580 -799C559 -799 551 -792 563 -777C582 -752 622 -703 642 -686C663 -666 688 -684 686 -721ZM380 -689C360 -699 334 -702 305 -687C283 -676 196 -645 167 -640C146 -634 143 -625 161 -615C196 -596 247 -595 374 -645C401 -657 408 -675 380 -689ZM860 -572C879 -577 891 -599 844 -628C798 -659 776 -662 762 -650C720 -615 560 -570 500 -566C491 -634 472 -628 465 -599C462 -582 451 -549 438 -518C429 -501 427 -491 430 -468C433 -440 451 -433 468 -455C486 -486 494 -509 499 -544C515 -536 535 -539 572 -549C644 -572 713 -590 743 -596C764 -600 767 -587 741 -526C728 -495 733 -486 753 -505C782 -531 819 -560 860 -572ZM390 -489C409 -510 409 -516 363 -533C333 -546 320 -546 299 -530C270 -513 207 -491 161 -488C111 -504 109 -495 124 -473C139 -450 160 -402 168 -370C176 -337 185 -317 194 -320C206 -324 209 -332 208 -346C261 -355 316 -367 348 -376C363 -381 365 -396 359 -401C349 -409 350 -421 355 -435C360 -445 374 -468 390 -489ZM229 -205C235 -234 221 -265 181 -281C167 -288 159 -286 164 -265C171 -241 180 -213 196 -191C209 -173 224 -177 229 -205ZM956 -79C952 -100 944 -150 944 -201C945 -218 933 -221 928 -199C905 -116 890 -91 868 -80C825 -58 738 -56 707 -85C686 -106 675 -142 675 -190C674 -251 680 -322 686 -385C705 -388 716 -389 729 -390C741 -391 749 -391 750 -375C753 -351 750 -317 744 -283C741 -266 732 -257 707 -264C696 -266 691 -257 698 -249C711 -233 721 -213 729 -194C734 -181 747 -182 761 -196C774 -212 789 -244 790 -269C795 -325 802 -362 818 -385C830 -400 826 -414 787 -432C757 -446 744 -445 737 -437C718 -416 700 -408 674 -404C641 -429 627 -419 635 -401C642 -379 646 -343 638 -202C634 -130 649 -64 680 -40C728 2 861 14 938 -32C955 -41 961 -57 956 -79ZM606 -325C621 -341 622 -346 600 -366C585 -379 568 -383 558 -377C541 -364 527 -360 512 -362C522 -375 527 -381 534 -392C547 -410 545 -413 518 -431C490 -450 479 -437 481 -419C483 -393 462 -340 390 -256C377 -241 382 -227 399 -241C407 -246 415 -253 423 -258C434 -235 445 -218 461 -203C476 -186 496 -189 494 -219C493 -241 468 -262 436 -271C463 -293 483 -318 503 -347C511 -342 522 -338 536 -335C545 -334 547 -334 543 -313C510 -164 429 -72 332 0C311 16 313 29 333 20C433 -22 528 -115 577 -273C586 -294 598 -315 606 -325ZM405 -182C402 -194 376 -192 303 -167C337 -248 345 -268 355 -277C371 -292 372 -303 329 -327C305 -341 293 -339 298 -315C303 -290 304 -242 275 -158C185 -125 94 -113 69 -115C46 -119 44 -107 67 -83C101 -47 105 -47 147 -68C178 -84 248 -116 368 -159C398 -171 407 -175 405 -182ZM316 -465C311 -420 302 -402 287 -396C259 -385 229 -376 203 -369C195 -396 189 -427 185 -460C220 -474 263 -486 284 -490C315 -494 318 -488 316 -465Z"/>
</svg>