<svg xmlns="http://www.w3.org/2000/svg" viewBox="0 -1000 1000 1000">
	<path fill="#000000" d="M368 -120C365 -95 295 -17 194 34C176 43 181 58 200 51C286 26 352 -9 412 -65C418 -70 436 -83 444 -87C463 -96 461 -110 416 -132C376 -150 371 -148 368 -120ZM573 -119C618 -65 644 -34 701 35C721 61 740 53 742 20C746 -43 710 -86 585 -137C565 -145 556 -139 573 -119ZM347 -166C407 -168 503 -176 591 -188C611 -191 633 -187 643 -155C657 -114 673 -111 691 -145C706 -175 709 -195 708 -225C705 -297 703 -335 702 -399C701 -434 706 -458 713 -469C731 -492 729 -502 686 -524C640 -549 633 -549 601 -534C583 -525 437 -504 348 -496C301 -510 290 -497 303 -477C308 -470 312 -449 315 -385C318 -326 315 -255 305 -209C300 -182 300 -172 307 -152C319 -120 335 -121 347 -166ZM367 -402C367 -423 367 -445 366 -466C418 -473 486 -481 589 -490C624 -493 633 -486 637 -453C644 -390 647 -287 645 -258C643 -218 636 -215 624 -226C617 -231 604 -230 564 -225C494 -214 470 -211 353 -198C356 -219 359 -245 361 -273C416 -270 494 -276 576 -293C606 -299 608 -316 578 -326C561 -332 546 -332 526 -327C481 -316 413 -305 363 -300C364 -325 365 -350 366 -375C424 -372 503 -380 579 -397C608 -403 606 -421 581 -429C562 -434 550 -434 530 -429C485 -417 419 -407 367 -402ZM526 -612C531 -637 533 -644 537 -660C543 -686 541 -696 519 -711C584 -717 632 -724 657 -731C695 -744 696 -756 667 -768C636 -782 623 -782 556 -766C471 -747 390 -736 341 -734C312 -734 307 -726 339 -711C357 -703 383 -699 465 -706C481 -685 482 -667 471 -606C318 -590 194 -580 136 -579C98 -578 96 -572 127 -551C160 -528 179 -527 225 -541C268 -553 435 -574 577 -581C703 -587 778 -587 842 -583C924 -577 931 -595 896 -625C870 -647 840 -648 786 -642C696 -630 660 -626 526 -612Z"/>
</svg>