<svg xmlns="http://www.w3.org/2000/svg" viewBox="0 -1000 1000 1000">
	<path fill="#000000" d="M819 -419C828 -407 836 -396 843 -386C867 -353 886 -358 893 -386C905 -430 886 -487 750 -550C734 -558 727 -549 735 -538C748 -517 775 -480 799 -446C729 -435 633 -423 558 -418C684 -633 701 -658 729 -686C746 -704 743 -722 684 -759C651 -780 636 -770 645 -745C661 -704 627 -613 547 -482C527 -448 510 -428 476 -415C463 -410 458 -400 474 -366C489 -336 497 -335 528 -352C561 -371 654 -394 819 -419ZM592 -36C670 -44 753 -51 832 -54C859 -55 863 -78 844 -90C818 -106 816 -118 838 -156C862 -197 869 -207 882 -218C905 -238 905 -249 840 -289C805 -309 796 -308 770 -297C735 -280 624 -262 541 -253C486 -278 475 -263 497 -226C512 -201 528 -153 550 -38C555 -17 566 5 575 2C585 -1 590 -10 592 -36ZM568 -221C619 -230 732 -245 763 -247C781 -248 793 -239 789 -219C773 -112 768 -104 737 -95C719 -90 658 -80 591 -74C585 -127 582 -146 568 -221ZM279 -162C290 -172 287 -180 254 -209C230 -230 221 -229 217 -203C211 -167 137 -53 60 7C43 20 50 29 67 22C131 -8 181 -47 241 -126C249 -135 269 -155 279 -162ZM456 -66C458 -119 429 -156 334 -194C319 -200 314 -195 324 -179C349 -142 391 -87 424 -50C438 -33 455 -38 456 -66ZM205 -252C221 -251 237 -252 264 -258C287 -262 315 -266 349 -270C359 -271 363 -270 364 -262C375 -201 391 -192 403 -210C416 -229 420 -244 420 -264C420 -319 423 -482 424 -527C425 -579 429 -608 439 -622C455 -645 455 -655 418 -677C376 -702 364 -701 345 -689C312 -670 260 -656 207 -650C151 -676 130 -663 147 -642C158 -626 167 -591 168 -552C170 -464 167 -386 161 -332C157 -294 159 -261 169 -236C182 -207 198 -208 205 -252ZM214 -520C214 -555 214 -589 213 -620C233 -624 261 -628 333 -639C359 -643 367 -637 369 -606C372 -569 370 -429 367 -339C365 -299 360 -296 349 -303C342 -307 331 -306 303 -298C283 -292 247 -285 207 -282C209 -306 210 -339 211 -376C255 -377 295 -384 323 -393C339 -398 340 -416 321 -421C304 -425 275 -422 251 -414C238 -410 227 -407 212 -405C213 -434 214 -465 213 -496C247 -493 290 -499 328 -510C340 -514 341 -523 329 -533C313 -545 298 -544 260 -533C248 -528 232 -524 214 -520Z"/>
</svg>