<svg xmlns="http://www.w3.org/2000/svg" viewBox="0 -1000 1000 1000">
	<path fill="#000000" d="M432 -49C451 -61 452 -67 418 -93C389 -115 376 -113 375 -98C374 -77 333 -27 189 50C162 65 169 77 195 70C274 47 337 14 432 -49ZM681 32C682 -23 662 -47 530 -99C508 -107 504 -102 518 -88C570 -30 591 -8 645 53C661 71 680 68 681 32ZM387 -653C390 -695 372 -718 314 -728C297 -731 290 -724 296 -712C312 -682 328 -659 349 -639C363 -624 385 -628 387 -653ZM703 -716C722 -720 724 -739 681 -772C664 -786 647 -780 646 -766C644 -743 623 -717 568 -677C550 -663 564 -651 583 -661C673 -708 684 -712 703 -716ZM349 -126C391 -125 450 -129 561 -142C581 -144 588 -142 598 -122C612 -91 624 -90 639 -114C654 -141 660 -177 658 -202C649 -313 652 -336 664 -353C674 -368 673 -376 628 -401C596 -418 589 -418 558 -408C511 -394 401 -373 343 -368C296 -383 289 -372 303 -351C315 -335 323 -229 313 -171C309 -152 310 -137 315 -125C322 -101 339 -100 349 -126ZM361 -301C361 -316 360 -330 360 -343C413 -351 480 -363 559 -375C581 -378 588 -373 593 -333C599 -284 601 -230 600 -199C599 -169 593 -167 588 -171C578 -177 545 -175 524 -172C488 -166 405 -157 354 -153C357 -173 358 -181 359 -207C415 -200 481 -209 536 -227C553 -233 554 -246 535 -250C520 -255 501 -251 486 -246C454 -238 396 -230 359 -226C360 -243 361 -261 361 -279C408 -274 436 -278 532 -302C550 -305 554 -320 531 -325C515 -328 503 -327 484 -322C452 -315 393 -305 361 -301ZM222 -544C254 -543 280 -546 376 -565C437 -577 608 -594 715 -599C774 -601 776 -598 735 -534C720 -512 729 -504 751 -517C805 -548 823 -556 857 -565C891 -573 894 -587 835 -631C805 -654 798 -655 766 -646C741 -639 713 -635 515 -612C518 -706 521 -741 528 -759C539 -786 530 -799 477 -813C438 -822 430 -811 445 -791C464 -766 470 -738 470 -607C294 -582 257 -578 226 -577C202 -629 194 -626 191 -609C184 -570 167 -535 151 -520C136 -508 131 -496 135 -468C141 -434 160 -427 181 -451C201 -476 212 -499 222 -544ZM405 -423C453 -430 547 -436 600 -437C615 -437 625 -450 610 -465C605 -470 613 -489 642 -503C659 -511 660 -525 618 -546C592 -559 583 -560 551 -550C528 -542 493 -537 365 -523C317 -539 308 -526 322 -513C332 -503 340 -489 363 -440C383 -398 398 -398 405 -423ZM391 -499C474 -509 506 -513 525 -516C561 -522 571 -516 567 -500C563 -481 554 -468 531 -464C488 -455 445 -450 401 -447C397 -463 394 -479 391 -499Z"/>
</svg>