<svg xmlns="http://www.w3.org/2000/svg" viewBox="0 -1000 1000 1000">
	<path fill="#000000" d="M573 -650C582 -663 591 -677 600 -692C614 -716 628 -734 636 -742C659 -762 659 -771 619 -794C578 -819 566 -811 577 -780C584 -759 561 -679 480 -559C471 -546 473 -542 498 -558C548 -537 569 -524 599 -500C573 -473 535 -454 464 -428C453 -423 453 -414 469 -415C535 -420 589 -440 629 -476C644 -464 671 -443 728 -400C766 -370 783 -367 909 -401C930 -407 926 -418 904 -421C785 -435 732 -453 654 -503C677 -534 687 -552 708 -596C717 -616 718 -622 699 -641C743 -651 782 -663 810 -675C851 -691 846 -710 814 -711C769 -713 760 -711 722 -695C627 -656 601 -649 573 -650ZM656 -630C660 -604 649 -573 618 -525C585 -547 559 -561 518 -577C531 -591 547 -612 564 -636C599 -626 619 -624 656 -630ZM376 -81C373 -63 283 15 169 68C154 75 154 79 177 77C248 70 331 29 424 -35C441 -46 443 -61 421 -80C392 -104 379 -102 376 -81ZM530 -72C568 -33 619 24 654 65C672 85 692 78 692 44C692 -9 651 -51 551 -89C516 -102 511 -92 530 -72ZM337 -108C387 -104 465 -109 596 -131C614 -134 619 -132 629 -94C635 -68 649 -64 661 -89C675 -120 679 -142 677 -166C671 -231 669 -255 669 -281C669 -308 672 -332 679 -341C692 -358 690 -369 644 -392C611 -408 599 -408 573 -401C494 -378 429 -368 376 -364C401 -400 415 -416 422 -420C436 -429 436 -432 421 -450C403 -471 394 -475 333 -480C333 -487 330 -495 322 -508C360 -517 397 -524 423 -526C476 -532 479 -547 460 -556C439 -567 433 -567 341 -542C342 -557 344 -574 345 -590C368 -595 387 -602 419 -613C443 -622 445 -633 430 -640C413 -647 400 -647 350 -629C351 -643 353 -657 355 -671C408 -685 426 -691 455 -704C478 -714 476 -725 456 -731C438 -737 427 -734 402 -727C388 -722 373 -718 360 -714C362 -731 364 -740 367 -748C379 -780 377 -786 330 -804C286 -820 275 -804 297 -777C312 -758 316 -743 314 -701C262 -686 224 -678 194 -673C167 -669 167 -664 188 -657C213 -649 254 -649 312 -661C310 -647 309 -631 308 -616C271 -606 239 -598 218 -594C187 -590 187 -587 209 -580C231 -573 252 -572 307 -581C306 -565 305 -556 305 -533C215 -512 95 -489 75 -490C38 -491 33 -484 70 -464C100 -447 122 -446 150 -458C168 -467 223 -483 282 -499C263 -452 185 -373 84 -321C50 -304 54 -290 94 -303C183 -332 279 -402 325 -462C338 -457 348 -453 358 -447C368 -442 369 -417 347 -390C318 -355 300 -352 282 -366C261 -380 252 -375 272 -349C276 -344 287 -328 290 -317C293 -305 301 -304 316 -312C321 -266 317 -225 302 -159C296 -132 298 -105 303 -92C314 -63 328 -64 337 -108ZM356 -282C356 -298 356 -315 356 -333C392 -340 444 -348 564 -368C594 -373 603 -366 608 -330C617 -268 619 -236 618 -195C617 -166 612 -163 594 -164C572 -165 522 -162 461 -149C426 -142 383 -136 341 -133C345 -156 349 -176 351 -196C384 -186 430 -189 538 -211C560 -215 561 -222 548 -233C537 -243 522 -243 487 -234C428 -217 393 -212 352 -211C353 -228 355 -243 355 -260C398 -259 443 -265 529 -282C554 -287 556 -297 538 -306C523 -314 513 -315 486 -308C440 -297 400 -290 356 -282Z"/>
</svg>