<svg xmlns="http://www.w3.org/2000/svg" viewBox="0 -1000 1000 1000">
	<path fill="#000000" d="M853 -674C852 -705 829 -717 783 -725C753 -730 752 -718 773 -692C785 -677 801 -663 818 -651C837 -638 854 -648 853 -674ZM577 -249C576 -272 576 -295 576 -316C596 -318 610 -322 628 -330C637 -334 642 -331 640 -289C639 -267 637 -264 624 -260C613 -258 596 -253 577 -249ZM619 -152C605 -147 591 -142 574 -138C575 -168 576 -195 576 -228C590 -231 604 -233 617 -235C623 -214 623 -182 619 -152ZM639 -440C647 -442 657 -444 667 -446C686 -451 686 -465 673 -472C661 -479 648 -477 619 -468C605 -463 585 -458 564 -455C532 -470 521 -466 530 -443C535 -433 545 -341 545 -299C544 -201 537 -146 526 -130C522 -122 526 -111 535 -100C544 -89 549 -88 562 -97C577 -107 613 -122 679 -132C698 -135 705 -147 693 -156C680 -163 670 -165 649 -161C653 -189 654 -217 649 -240C653 -241 659 -241 663 -242C683 -244 686 -252 673 -263C665 -268 665 -272 669 -285C673 -301 680 -314 687 -320C698 -330 696 -338 677 -352C660 -366 646 -366 638 -358C639 -377 641 -401 644 -412C646 -421 644 -429 639 -440ZM609 -346C599 -342 588 -338 576 -335C576 -370 575 -402 574 -431C583 -431 593 -432 603 -434C611 -417 612 -384 609 -346ZM507 -533C545 -534 602 -541 673 -555C713 -327 737 -217 748 -182C720 -122 684 -73 637 -28C619 -11 628 -1 648 -14C696 -40 735 -79 768 -134C800 -67 847 -2 903 42C933 66 954 56 949 31C943 3 942 -87 947 -115C950 -147 939 -152 931 -131C922 -110 902 -60 899 -52C894 -41 889 -40 877 -52C853 -73 821 -127 796 -188C810 -217 821 -250 833 -287C845 -330 859 -366 867 -385C874 -406 871 -411 831 -429C801 -442 793 -432 799 -417C810 -392 804 -349 775 -250C757 -315 733 -454 716 -565C735 -568 759 -572 776 -573C821 -577 828 -596 783 -613C770 -618 745 -617 710 -608C702 -664 699 -709 701 -717C711 -753 706 -770 652 -785C621 -794 609 -784 627 -759C636 -746 647 -711 652 -682C657 -658 661 -628 667 -594C607 -576 546 -566 496 -562C445 -588 435 -576 448 -552C459 -536 465 -495 466 -439C442 -435 423 -432 403 -428C404 -448 404 -512 409 -533C415 -554 409 -561 379 -573C350 -584 335 -576 354 -553C369 -533 373 -433 362 -425C349 -416 351 -410 363 -395C377 -377 384 -378 400 -388C418 -399 447 -408 467 -412C467 -379 466 -342 463 -303C422 -291 378 -284 352 -281C317 -278 308 -268 338 -249C350 -242 359 -241 377 -245C383 -223 381 -202 376 -188C367 -143 344 -88 323 -60C313 -46 323 -34 342 -53C368 -76 396 -121 426 -196C436 -222 432 -234 404 -255C419 -259 438 -265 461 -271C448 -131 417 -38 370 27C360 42 368 51 389 32C441 -18 485 -110 498 -228C505 -297 508 -443 507 -533ZM189 -125C202 -138 201 -149 172 -164C139 -181 132 -176 129 -140C127 -115 81 -33 32 26C19 41 27 52 49 35C104 -11 120 -26 164 -93C175 -108 183 -119 189 -125ZM304 -39C317 -71 301 -121 242 -157C237 -160 231 -157 232 -143C234 -119 256 -66 273 -37C286 -16 296 -17 304 -39ZM150 -219C173 -215 191 -216 233 -229C248 -233 253 -228 267 -199C281 -172 288 -172 297 -195C307 -219 313 -248 312 -311C310 -379 312 -448 314 -492C316 -572 321 -596 328 -613C338 -637 336 -643 296 -661C264 -677 255 -675 235 -664C206 -648 176 -639 141 -637C99 -648 90 -637 102 -616C110 -605 118 -569 120 -524C124 -416 122 -325 116 -276C112 -246 112 -240 120 -218C129 -196 142 -193 150 -219ZM162 -500C163 -538 163 -564 161 -609C187 -613 210 -619 227 -624C255 -633 262 -627 264 -588C270 -504 268 -374 263 -293C261 -251 259 -249 251 -257C244 -263 231 -265 217 -261C197 -255 181 -250 155 -245C157 -275 159 -312 160 -355C183 -350 206 -354 229 -368C246 -377 247 -388 228 -398C220 -402 210 -401 196 -395C182 -387 172 -384 161 -382C162 -410 162 -439 162 -470C180 -468 194 -470 221 -478C240 -484 240 -505 222 -510C206 -514 191 -512 182 -507C177 -504 169 -502 162 -500Z"/>
</svg>