<svg xmlns="http://www.w3.org/2000/svg" viewBox="0 -1000 1000 1000">
	<path fill="#000000" d="M477 -279C461 -316 445 -325 382 -319C383 -335 384 -347 385 -353C395 -391 394 -397 358 -414C382 -419 400 -422 408 -423C454 -429 451 -449 437 -454C424 -459 404 -457 345 -444L353 -539C385 -546 412 -553 427 -559C458 -570 456 -583 433 -594C417 -601 400 -601 359 -590C365 -648 372 -690 375 -700C388 -735 383 -744 325 -764C283 -777 275 -769 295 -741C313 -715 319 -669 316 -578C283 -569 245 -562 226 -560C199 -558 198 -552 219 -538C233 -529 262 -525 313 -530L306 -436C214 -414 154 -405 109 -402C48 -399 48 -394 75 -376C99 -357 117 -358 160 -370C179 -376 203 -382 229 -387C242 -335 241 -283 218 -206C206 -165 175 -106 111 -51C86 -31 91 -25 112 -35C194 -72 255 -156 268 -233C276 -277 285 -334 287 -341C292 -360 292 -367 259 -394C284 -399 309 -404 331 -408C344 -382 346 -339 344 -246C344 -214 338 -149 336 -130C331 -93 329 -90 291 -97C257 -103 256 -99 274 -78C290 -61 300 -44 310 -23C320 -4 328 -1 345 -20C377 -53 386 -94 384 -128C382 -176 381 -251 382 -301C400 -285 424 -270 437 -264C470 -250 483 -264 477 -279ZM903 -496C870 -508 856 -506 764 -484C747 -480 718 -475 685 -469L694 -567C731 -574 762 -581 782 -590C814 -603 815 -617 790 -627C774 -633 760 -633 699 -616C704 -657 712 -706 717 -719C730 -757 728 -764 670 -784C620 -803 610 -791 629 -761C648 -731 652 -713 647 -602C615 -593 589 -587 577 -585C545 -582 540 -575 562 -564C576 -554 591 -552 646 -559L640 -461C579 -450 513 -439 497 -438C444 -431 442 -426 463 -411C481 -398 489 -397 533 -410C545 -414 558 -417 571 -420C591 -388 591 -323 575 -210C565 -145 534 -80 460 -12C439 6 449 13 470 2C564 -45 613 -146 621 -255C624 -296 628 -349 630 -362C636 -391 632 -396 591 -424C619 -430 647 -436 677 -440C690 -422 693 -393 699 -266C700 -234 698 -124 693 -78C689 -36 679 -31 641 -40C612 -47 609 -44 627 -23C644 -5 666 26 677 45C689 65 701 67 716 45C741 12 753 -43 749 -76C742 -149 735 -346 742 -373C753 -412 751 -419 705 -444C778 -453 846 -455 895 -453C946 -451 945 -480 903 -496ZM539 -275C533 -312 521 -314 513 -287C510 -277 498 -255 488 -240C474 -218 468 -204 471 -178C474 -149 487 -147 505 -166C533 -197 542 -249 539 -275ZM170 -279C160 -304 149 -310 142 -287C135 -268 129 -254 116 -234C110 -223 102 -196 104 -182C107 -152 114 -150 135 -168C167 -194 181 -247 170 -279ZM927 -173C928 -222 874 -272 790 -294C762 -301 760 -291 779 -271C794 -253 846 -193 875 -161C902 -128 926 -139 927 -173Z"/>
</svg>