<svg xmlns="http://www.w3.org/2000/svg" viewBox="0 -1000 1000 1000">
	<path fill="#000000" d="M950 -22C972 -25 972 -36 949 -41C811 -69 749 -101 675 -176C691 -203 705 -240 713 -265C727 -311 746 -359 755 -366C773 -379 774 -389 733 -414C705 -430 696 -430 682 -422C672 -416 655 -408 633 -400L638 -557C669 -566 715 -574 737 -575C764 -576 769 -565 740 -511C725 -483 732 -479 750 -495C790 -529 821 -543 852 -551C878 -558 879 -569 857 -584C833 -600 806 -615 777 -626C762 -632 746 -631 728 -618C717 -609 696 -599 638 -582C644 -678 649 -706 664 -729C676 -747 669 -764 612 -781C559 -797 550 -785 568 -763C589 -738 598 -684 596 -570C553 -557 519 -550 492 -547C443 -576 430 -568 446 -532C461 -498 465 -402 459 -351C443 -210 406 -115 295 -12C274 8 284 19 305 4C442 -94 486 -190 505 -350C542 -345 583 -354 659 -379C674 -384 683 -375 681 -363C677 -327 663 -250 645 -209C619 -238 597 -267 585 -283C563 -314 548 -320 536 -321C514 -323 512 -308 524 -296C538 -284 552 -271 565 -257C576 -244 602 -212 627 -178C592 -135 521 -91 459 -67C437 -58 433 -46 468 -49C531 -55 597 -86 650 -144C677 -108 713 -65 748 -25C771 2 788 3 950 -22ZM418 -606C432 -617 429 -632 375 -652C334 -669 320 -670 302 -657C274 -639 221 -618 183 -610C121 -628 116 -611 133 -591C152 -569 165 -528 173 -476C178 -441 191 -426 199 -427C206 -428 212 -432 215 -444C218 -444 221 -445 224 -445C240 -421 245 -373 241 -181C216 -171 193 -163 173 -155C169 -217 169 -250 171 -281C173 -314 169 -321 113 -338C93 -344 86 -328 98 -312C119 -284 132 -245 139 -141C97 -127 70 -119 56 -118C31 -117 17 -106 52 -77C83 -52 103 -55 120 -68C164 -101 206 -125 342 -190C393 -215 401 -222 396 -231C392 -237 373 -234 275 -194L284 -317C309 -311 339 -317 389 -338C413 -348 409 -375 385 -373C363 -371 341 -363 285 -334C288 -367 290 -389 293 -402C297 -422 294 -427 249 -449C285 -455 321 -463 359 -471C388 -477 382 -487 363 -500C356 -505 354 -519 358 -529C374 -567 397 -591 418 -606ZM315 -596C316 -532 310 -509 296 -496C290 -491 247 -478 216 -471C213 -521 207 -566 198 -592C217 -593 240 -597 262 -604C295 -615 315 -612 315 -596ZM596 -545L593 -387C566 -380 535 -373 506 -368C510 -412 513 -487 507 -526C531 -528 557 -534 596 -545Z"/>
</svg>