<svg xmlns="http://www.w3.org/2000/svg" viewBox="0 -1000 1000 1000">
	<path fill="#000000" d="M427 -642C438 -651 435 -670 391 -693C355 -712 347 -711 328 -701C302 -687 240 -666 188 -666C125 -686 121 -664 133 -649C164 -610 183 -565 192 -507C195 -487 202 -484 209 -485C214 -486 223 -491 226 -506C232 -507 240 -508 249 -509C264 -481 269 -435 265 -226C239 -216 217 -207 199 -199C191 -297 189 -318 189 -343C189 -373 183 -386 134 -401C108 -409 98 -397 110 -379C134 -343 143 -314 159 -184C108 -165 89 -160 69 -159C30 -157 28 -140 56 -120C93 -94 110 -93 127 -105C184 -145 263 -187 350 -229C394 -250 403 -261 399 -268C394 -276 379 -274 306 -245L309 -369C338 -362 374 -365 410 -383C428 -392 427 -410 418 -413C393 -421 357 -417 309 -390C310 -410 312 -444 315 -456C321 -483 320 -493 294 -516C319 -520 347 -526 374 -532C380 -533 385 -544 379 -557C377 -561 383 -578 388 -588C399 -610 409 -625 427 -642ZM968 -245C1000 -250 1000 -265 965 -273C833 -302 753 -336 639 -423C668 -464 688 -493 711 -531C734 -570 754 -595 769 -608C785 -622 785 -633 735 -664C708 -681 699 -681 680 -671C638 -649 610 -638 580 -638C613 -696 629 -721 640 -734C653 -750 652 -761 616 -783C573 -809 557 -798 560 -773C564 -744 559 -715 541 -672C507 -584 469 -517 433 -470C418 -450 426 -441 443 -454C460 -467 474 -480 488 -495C511 -488 531 -474 586 -423C517 -325 453 -259 355 -184C335 -169 340 -160 364 -170C385 -179 405 -190 423 -202C458 -148 469 -100 485 -4C488 13 500 31 509 31C519 31 525 26 527 -7C593 -18 714 -32 735 -31C753 -30 757 -43 744 -57C737 -65 738 -81 750 -102C772 -139 786 -153 799 -163C816 -176 809 -199 744 -233C700 -256 691 -256 669 -248C617 -228 514 -205 468 -208C461 -211 453 -214 445 -216C514 -264 571 -326 618 -393C662 -353 718 -301 765 -256C796 -225 818 -219 968 -245ZM336 -637C339 -572 334 -563 315 -556C291 -547 252 -538 224 -532C221 -569 216 -610 209 -639C230 -639 262 -645 294 -654C326 -663 335 -659 336 -637ZM674 -597C661 -554 635 -501 604 -452C557 -491 531 -507 500 -510C520 -537 541 -570 570 -619C599 -605 623 -607 659 -619C676 -625 681 -621 674 -597ZM695 -176C691 -91 676 -71 652 -67C619 -62 579 -55 523 -45C514 -89 505 -147 502 -182C561 -189 620 -199 637 -204C679 -215 696 -206 695 -176Z"/>
</svg>