<svg xmlns="http://www.w3.org/2000/svg" viewBox="0 -1000 1000 1000">
	<path fill="#000000" d="M215 -524C205 -574 198 -615 192 -645C210 -643 229 -645 258 -653C302 -665 310 -660 309 -644C306 -575 302 -564 290 -550C284 -545 242 -532 215 -524ZM253 -222C231 -212 212 -205 194 -199C190 -267 189 -317 192 -331C198 -362 195 -374 142 -389C110 -399 99 -388 119 -364C137 -340 149 -307 157 -184C121 -171 97 -164 81 -162C50 -157 48 -140 77 -122C114 -98 129 -99 148 -113C209 -162 248 -183 323 -219C370 -242 382 -256 378 -260C374 -265 362 -264 292 -237L293 -363C309 -362 330 -366 363 -377C386 -385 385 -401 360 -407C349 -410 338 -409 293 -388C294 -407 296 -430 301 -453C305 -474 298 -479 252 -504C290 -511 317 -517 343 -524C361 -528 367 -544 353 -555C347 -560 344 -575 347 -583C355 -613 358 -619 390 -648C403 -660 397 -678 359 -698C325 -717 305 -714 287 -704C258 -687 214 -673 181 -668C126 -684 120 -670 135 -649C149 -631 162 -596 175 -525C181 -490 192 -478 199 -479C206 -480 213 -485 216 -498C221 -499 226 -500 231 -500C248 -474 253 -419 253 -222ZM691 -713C699 -684 701 -610 696 -528C671 -523 617 -513 568 -505L570 -552C604 -550 641 -555 665 -567C681 -575 676 -588 662 -590C640 -593 618 -589 570 -575L572 -620C599 -622 648 -630 658 -634C678 -643 680 -652 664 -658C647 -664 638 -663 572 -642C572 -664 571 -679 565 -691C597 -696 628 -702 691 -713ZM511 -366C518 -329 520 -250 518 -181C482 -169 456 -161 434 -154L433 -210C466 -211 480 -213 494 -218C508 -225 509 -244 498 -247C492 -249 482 -249 471 -244C467 -242 447 -238 433 -235L432 -278C471 -279 479 -281 491 -285C503 -291 508 -305 496 -312C485 -318 477 -317 457 -309C447 -306 439 -303 432 -302C431 -330 431 -344 429 -353C447 -356 474 -360 511 -366ZM397 -350C401 -306 404 -180 401 -144C383 -140 368 -138 354 -138C320 -137 315 -128 347 -103C368 -86 378 -84 391 -94C403 -104 443 -122 516 -150C515 -122 513 -96 510 -77C506 -53 507 -34 521 -8C529 10 542 9 546 -5C554 -32 556 -49 554 -102C553 -119 553 -140 553 -165C605 -187 605 -194 593 -199C584 -202 577 -202 553 -194C554 -256 556 -319 557 -331C559 -345 558 -353 544 -371C563 -375 579 -380 588 -385C603 -396 601 -407 584 -411C569 -415 559 -414 542 -409C513 -400 381 -371 369 -371C350 -371 351 -363 367 -355C374 -352 381 -350 397 -350ZM764 -393C772 -368 774 -332 772 -202C740 -195 705 -187 674 -180V-234C709 -236 731 -240 745 -246C763 -253 764 -268 749 -273C733 -279 722 -278 711 -273C702 -269 686 -263 674 -259V-309C699 -309 720 -313 741 -319C757 -325 761 -338 745 -348C739 -352 715 -350 701 -342C694 -338 684 -335 674 -332C673 -356 672 -367 666 -377C687 -380 718 -384 764 -393ZM632 -374C641 -332 643 -230 638 -173C617 -170 601 -168 591 -167C568 -165 566 -159 585 -147C609 -134 623 -135 661 -145C695 -156 733 -164 772 -170C772 -137 771 -99 771 -55C771 -22 772 31 773 45C775 73 786 76 797 45C810 3 815 -27 815 -176C847 -180 880 -182 906 -181C956 -180 961 -203 926 -222C908 -231 873 -229 849 -222C840 -218 829 -215 815 -212C816 -313 818 -356 820 -365C823 -379 822 -384 800 -399C818 -401 841 -404 868 -408C891 -411 890 -432 875 -438C852 -448 825 -445 801 -439C774 -432 752 -427 719 -419C728 -439 736 -473 739 -502C798 -506 815 -506 850 -506C885 -506 888 -521 864 -537C839 -552 801 -551 741 -539C741 -675 741 -683 744 -691C748 -701 748 -707 738 -721C769 -726 782 -727 802 -729C824 -731 822 -753 803 -763C787 -772 767 -773 743 -766C674 -748 522 -719 471 -713C453 -711 450 -701 466 -694C484 -687 499 -685 527 -687C531 -644 533 -534 531 -499C507 -495 482 -490 455 -486C417 -480 415 -475 434 -464C454 -452 468 -451 499 -459C573 -480 640 -492 696 -498C696 -465 698 -438 702 -415C645 -402 624 -398 617 -398C598 -398 593 -384 613 -377C617 -375 623 -374 632 -374Z"/>
</svg>