<svg xmlns="http://www.w3.org/2000/svg" viewBox="0 -1000 1000 1000">
	<path fill="#000000" d="M954 -58C948 -73 941 -121 938 -184C937 -205 926 -207 922 -188C902 -81 885 -52 841 -36C809 -25 773 -19 754 -21C681 -30 667 -46 667 -121C667 -164 672 -214 680 -228C694 -256 690 -271 662 -286C635 -304 623 -301 634 -263C636 -252 631 -174 627 -139C616 -39 656 22 749 35C796 42 878 31 918 7C952 -12 962 -36 954 -58ZM609 -334C618 -371 626 -393 629 -399C644 -424 643 -435 604 -451C632 -455 702 -463 720 -463C746 -463 749 -455 745 -438C740 -415 737 -402 732 -390C718 -358 714 -352 696 -349C675 -345 644 -340 609 -334ZM508 -316C501 -374 495 -405 487 -429C505 -431 531 -436 576 -445C579 -415 574 -369 563 -326C544 -322 526 -319 508 -316ZM601 -644C624 -633 642 -628 669 -633C691 -637 691 -626 567 -468C511 -457 491 -454 464 -452C411 -464 411 -449 432 -427C446 -411 460 -368 471 -306C475 -285 482 -265 494 -267C500 -268 504 -276 507 -287C519 -290 534 -292 555 -295C515 -169 446 -75 361 -10C350 -2 349 11 363 5C480 -47 559 -152 601 -302C696 -315 705 -316 759 -322C782 -326 790 -346 779 -354C769 -363 770 -370 781 -387C802 -419 814 -434 825 -441C854 -458 858 -473 812 -501C780 -520 765 -522 739 -506C731 -501 725 -500 603 -476C694 -571 745 -615 775 -626C804 -638 806 -650 766 -677C742 -693 731 -694 709 -681C691 -670 649 -658 610 -658C624 -679 640 -699 645 -705C669 -726 670 -737 631 -758C592 -780 576 -772 581 -747C584 -731 582 -721 570 -694C542 -636 503 -575 456 -533C440 -519 447 -511 466 -520C513 -545 568 -596 601 -644ZM247 -458C248 -440 248 -422 248 -406C230 -400 198 -393 186 -389C170 -386 170 -384 184 -378C199 -371 214 -370 248 -375C249 -356 249 -337 249 -319C223 -313 197 -307 178 -302C163 -372 153 -413 146 -437C182 -441 209 -447 247 -458ZM285 -329C285 -345 285 -363 285 -382C303 -386 319 -392 336 -398C358 -407 361 -419 337 -427C326 -431 308 -429 285 -420C285 -436 285 -452 285 -470C309 -477 325 -481 344 -485C370 -489 375 -485 373 -461C370 -425 365 -397 359 -366C355 -346 349 -339 325 -337C321 -337 305 -334 285 -329ZM287 -625C288 -685 290 -711 295 -721C306 -746 302 -758 251 -778C215 -791 200 -771 223 -744C231 -734 237 -705 241 -613C191 -600 171 -598 139 -592C116 -588 117 -579 152 -568C164 -564 181 -561 244 -573C245 -548 246 -519 247 -487C196 -475 154 -465 124 -461C66 -475 62 -458 87 -434C100 -420 122 -364 136 -313C147 -279 164 -256 172 -258C180 -259 183 -262 183 -274C199 -274 214 -277 249 -286C249 -261 249 -238 248 -216C135 -187 75 -175 53 -178C27 -180 20 -168 43 -150C78 -124 94 -123 137 -144C151 -150 196 -165 247 -178C245 -109 240 -71 236 -59C225 -24 224 2 242 33C260 61 271 60 280 31C288 1 291 -80 287 -190C353 -207 417 -223 427 -224C445 -225 446 -237 430 -245C412 -253 391 -257 286 -227C285 -244 285 -268 285 -297C351 -314 358 -315 363 -306C368 -297 376 -300 385 -317C394 -338 398 -353 404 -388C413 -444 419 -465 429 -475C443 -489 443 -501 419 -513C376 -534 367 -535 350 -523C343 -518 320 -509 285 -499C285 -530 285 -556 286 -580C341 -590 355 -593 375 -602C409 -615 410 -628 396 -635C373 -645 357 -644 287 -625Z"/>
</svg>