<svg xmlns="http://www.w3.org/2000/svg" viewBox="0 -1000 1000 1000">
	<path fill="#000000" d="M715 -755C710 -788 675 -813 599 -817C578 -818 573 -811 585 -794C601 -772 638 -743 665 -727C696 -710 720 -721 715 -755ZM814 -684C795 -692 776 -690 684 -658C637 -642 560 -619 511 -610C484 -605 487 -591 514 -586C550 -579 630 -590 794 -643C841 -658 836 -675 814 -684ZM601 -477C604 -499 593 -527 559 -547C537 -559 531 -551 533 -533C537 -505 547 -472 558 -458C574 -435 596 -444 601 -477ZM937 -459C898 -479 880 -478 785 -454C752 -446 717 -437 681 -428C731 -492 756 -524 772 -538C788 -552 784 -569 745 -587C710 -604 695 -597 703 -575C710 -558 698 -506 658 -423C582 -407 505 -392 442 -383C437 -388 427 -395 412 -401C376 -416 370 -416 352 -405C322 -386 286 -378 240 -374L210 -391C224 -431 232 -470 238 -507C264 -503 284 -502 313 -507C344 -512 398 -523 419 -529C433 -533 438 -540 419 -554C403 -566 403 -570 418 -601C430 -626 447 -654 462 -664C492 -684 491 -691 446 -715C407 -736 396 -734 379 -720C357 -701 307 -687 249 -679C186 -720 179 -705 189 -671C201 -630 199 -513 165 -385C137 -284 87 -186 41 -129C20 -103 26 -91 56 -116C105 -159 155 -237 202 -367C216 -312 222 -252 227 -167C229 -129 238 -115 245 -115C257 -115 264 -148 264 -186C314 -191 382 -203 412 -211C429 -215 428 -222 415 -230C396 -243 397 -255 406 -281C417 -313 429 -340 443 -364C484 -357 498 -358 527 -366C562 -375 589 -381 614 -386C621 -360 624 -313 626 -273C587 -266 519 -257 480 -253C458 -251 456 -244 476 -231C498 -218 508 -215 565 -230C583 -236 604 -241 626 -245C627 -189 628 -107 626 -39C624 30 627 64 629 79C636 118 647 115 661 77C670 50 682 -17 681 -125C681 -157 680 -203 678 -253C740 -261 805 -266 853 -264C903 -262 902 -290 862 -307C832 -319 813 -320 676 -285C676 -315 678 -341 681 -357C683 -368 681 -376 645 -392C749 -411 850 -420 921 -419C963 -418 965 -445 937 -459ZM383 -658C380 -609 370 -565 355 -551C341 -540 285 -528 240 -526C246 -569 248 -611 249 -656C290 -663 327 -669 357 -675C379 -679 384 -675 383 -658ZM370 -303C364 -244 361 -240 335 -228C320 -221 291 -216 262 -213C259 -261 257 -309 252 -352C286 -358 322 -365 346 -368C368 -371 377 -367 370 -303Z"/>
</svg>