<svg xmlns="http://www.w3.org/2000/svg" viewBox="0 -1000 1000 1000">
	<path fill="#000000" d="M631 -559C642 -522 652 -499 663 -487C678 -470 693 -474 697 -502C701 -532 693 -546 649 -568C634 -576 627 -572 631 -559ZM576 -624C561 -622 561 -614 577 -607C608 -593 688 -599 867 -648C892 -655 897 -670 882 -676C856 -687 837 -690 776 -671C738 -658 613 -628 576 -624ZM267 -548C275 -525 262 -484 236 -430C229 -414 242 -407 254 -424C293 -484 307 -499 317 -505C335 -517 332 -532 291 -558C271 -571 260 -567 267 -548ZM138 -510C154 -472 166 -449 175 -440C187 -427 192 -427 201 -449C212 -474 201 -504 158 -519C135 -527 132 -524 138 -510ZM200 -739C218 -707 248 -670 262 -656C281 -640 306 -660 298 -701C293 -727 265 -746 211 -757C192 -761 190 -757 200 -739ZM732 -421C798 -436 891 -452 910 -453C955 -454 957 -478 926 -491C901 -502 886 -501 763 -465C799 -520 817 -544 836 -559C849 -571 848 -587 812 -609C782 -626 775 -622 778 -600C783 -570 772 -531 736 -456C679 -440 625 -431 588 -428C563 -425 563 -412 584 -402C594 -398 623 -397 697 -413C702 -393 705 -360 704 -320C663 -311 611 -304 580 -303C567 -303 564 -286 578 -281C606 -271 630 -272 703 -290C699 -165 701 -17 707 40C710 68 720 70 731 42C748 -5 759 -166 756 -300C804 -307 869 -312 906 -311C936 -310 947 -331 920 -344C890 -359 855 -361 755 -334C755 -350 759 -366 765 -377C774 -394 771 -405 732 -421ZM676 -794C657 -795 653 -790 664 -776C678 -754 711 -719 734 -704C755 -689 765 -694 772 -722C779 -753 742 -791 676 -794ZM205 -360C207 -334 207 -308 205 -282C164 -268 131 -260 97 -253C78 -250 78 -243 99 -237C123 -230 142 -228 200 -243C186 -167 149 -94 88 -21C70 1 77 11 101 -7C190 -73 234 -148 248 -257C269 -263 296 -271 327 -281C353 -290 356 -302 340 -311C324 -321 308 -320 253 -298C255 -310 258 -320 264 -332C272 -347 272 -356 250 -373C279 -380 310 -390 349 -403C377 -412 377 -430 353 -435C334 -439 325 -438 278 -420C195 -390 104 -368 62 -364C40 -362 39 -350 61 -344C91 -336 124 -339 205 -360ZM96 -581C80 -580 76 -568 97 -561C131 -552 199 -559 350 -601C376 -608 378 -615 354 -630C343 -637 316 -640 287 -627C239 -608 126 -583 96 -581ZM428 -502C396 -493 385 -491 362 -486C343 -482 342 -468 364 -463C377 -459 398 -462 423 -470C398 -318 356 -202 282 -104C263 -80 275 -71 298 -93C383 -172 436 -278 466 -481C481 -485 494 -487 498 -487C513 -487 515 -484 516 -455C519 -386 505 -286 489 -234C480 -207 473 -203 427 -218C416 -223 407 -211 419 -200C435 -183 456 -157 460 -139C465 -119 480 -114 494 -129C527 -164 546 -219 560 -408C563 -451 567 -469 577 -482C591 -499 590 -507 563 -523C530 -543 523 -541 508 -530C503 -525 486 -518 470 -513C482 -596 491 -630 497 -639C515 -667 512 -681 467 -701C434 -715 418 -706 433 -685C444 -671 446 -624 428 -502Z"/>
</svg>