<svg xmlns="http://www.w3.org/2000/svg" viewBox="0 -1000 1000 1000">
	<path fill="#000000" d="M279 -591C280 -645 252 -674 177 -680C153 -682 149 -674 160 -657C188 -617 213 -589 236 -571C257 -554 279 -568 279 -591ZM583 -448C590 -526 599 -557 610 -572C619 -584 619 -592 587 -607C563 -617 556 -615 544 -602C532 -588 514 -579 485 -572C482 -605 480 -633 476 -664C563 -678 598 -683 638 -690C661 -694 671 -690 670 -667C667 -570 665 -543 654 -465C629 -458 605 -452 583 -448ZM489 -429C489 -478 488 -516 487 -548C501 -549 521 -552 539 -557C554 -560 556 -558 549 -440C526 -436 506 -432 489 -429ZM395 -418C353 -438 338 -431 353 -411C371 -386 383 -234 377 -203C374 -182 379 -168 393 -149C409 -127 420 -130 426 -164C429 -180 429 -216 421 -284C418 -313 416 -356 416 -390C466 -399 522 -408 558 -415C609 -425 664 -435 671 -436C731 -442 742 -438 747 -410C754 -367 751 -264 740 -221C732 -187 722 -184 669 -203C649 -210 640 -201 659 -184C678 -167 700 -143 712 -116C720 -99 736 -98 750 -113C795 -161 805 -193 804 -301C803 -367 807 -411 818 -428C832 -447 832 -455 794 -476C763 -492 756 -492 694 -474C699 -497 706 -534 720 -618C726 -649 735 -670 749 -686C766 -705 764 -716 710 -739C685 -749 674 -749 656 -738C634 -724 615 -718 582 -711C518 -696 494 -692 468 -691C461 -696 453 -699 427 -702C405 -704 400 -697 408 -684C426 -654 443 -585 457 -423C428 -419 408 -418 395 -418ZM534 -223C577 -224 623 -229 650 -239C662 -243 664 -256 654 -265C648 -271 650 -292 671 -314C688 -334 686 -342 660 -359C631 -376 625 -374 610 -367C589 -355 546 -343 512 -341C475 -358 470 -339 481 -318C488 -307 491 -294 500 -235C507 -189 528 -188 534 -223ZM522 -319C548 -321 573 -326 604 -333C618 -336 619 -333 615 -312C612 -296 612 -286 608 -274C603 -258 589 -255 534 -250C529 -272 525 -293 522 -319ZM227 -149C213 -149 183 -146 170 -144C126 -136 92 -135 68 -138C47 -141 43 -130 65 -113C108 -81 114 -80 132 -89C201 -120 238 -124 295 -108C374 -87 461 -56 653 22C674 30 694 34 741 23C795 10 838 -3 924 -36C947 -45 944 -60 916 -58C684 -44 662 -44 337 -131C310 -138 284 -143 260 -146C267 -187 257 -224 236 -252C219 -277 233 -334 272 -381C287 -398 289 -409 258 -428C222 -449 209 -448 188 -433C169 -419 150 -413 95 -405C81 -403 79 -394 91 -388C123 -376 143 -373 182 -383C202 -388 209 -386 205 -377C183 -306 180 -277 202 -233C217 -204 224 -175 227 -149Z"/>
</svg>