<svg xmlns="http://www.w3.org/2000/svg" viewBox="0 -1000 1000 1000">
	<path fill="#000000" d="M278 -627C277 -676 230 -699 183 -694C157 -691 157 -687 166 -676C194 -643 213 -626 238 -610C257 -598 278 -606 278 -627ZM611 -614C623 -629 626 -638 588 -658C560 -673 545 -673 526 -664C514 -658 475 -645 430 -634C477 -703 498 -728 512 -742C530 -758 532 -769 489 -783C446 -797 443 -795 449 -767C454 -744 441 -708 408 -629C395 -626 382 -624 370 -622C332 -627 326 -620 346 -594C358 -580 376 -529 383 -492C391 -446 403 -435 411 -450C491 -468 516 -470 531 -466C542 -463 553 -464 558 -470C565 -481 570 -496 575 -521C581 -550 597 -596 611 -614ZM864 -579C836 -585 820 -583 785 -567C717 -536 697 -528 677 -526C698 -561 719 -600 738 -640C745 -654 768 -691 775 -701C787 -717 786 -731 750 -749C712 -767 699 -758 705 -731C713 -699 695 -618 610 -461C600 -442 604 -437 624 -457C636 -469 650 -487 664 -507C684 -503 694 -502 718 -507C729 -469 730 -431 716 -363C699 -378 680 -395 658 -414C634 -435 623 -423 642 -401C664 -377 686 -351 706 -323C686 -272 628 -217 592 -187C571 -169 575 -164 593 -169C638 -181 691 -227 732 -289C756 -256 780 -221 802 -186C824 -150 846 -153 848 -193C850 -228 844 -247 751 -331C757 -348 763 -366 766 -385C770 -408 776 -438 779 -454C783 -475 777 -481 732 -510C777 -521 842 -542 858 -549C889 -561 889 -573 864 -579ZM491 -399C498 -427 491 -436 463 -441C439 -445 435 -440 441 -426C447 -413 457 -400 470 -394C478 -390 489 -392 491 -399ZM597 -403C580 -411 559 -409 521 -398C461 -381 365 -363 301 -355C272 -351 272 -343 290 -335C318 -321 329 -321 367 -334C381 -339 406 -345 434 -352C435 -334 424 -312 394 -272C360 -225 334 -202 309 -182C283 -161 292 -152 315 -163C352 -181 401 -216 436 -269C444 -280 449 -289 454 -295C524 -295 531 -290 528 -270C523 -238 516 -223 510 -214C500 -198 493 -196 465 -207C454 -211 448 -205 454 -193C461 -181 467 -165 471 -149C475 -132 488 -129 500 -137C525 -152 546 -177 561 -227C570 -259 574 -265 580 -271C590 -281 592 -292 576 -304C551 -321 542 -323 528 -320C504 -315 490 -315 472 -317C481 -329 479 -344 462 -358C500 -366 541 -374 572 -377C612 -381 615 -394 597 -403ZM961 -53C984 -63 989 -78 951 -74C715 -50 601 -60 321 -135C296 -142 273 -147 251 -150C259 -193 257 -240 226 -281C205 -309 221 -380 271 -431C284 -445 284 -453 254 -474C222 -496 213 -494 200 -483C168 -457 138 -444 100 -431C87 -427 86 -417 96 -414C121 -405 151 -407 165 -413C199 -430 203 -428 198 -407C176 -316 179 -290 199 -260C215 -236 227 -189 225 -153C199 -156 176 -155 159 -153C111 -146 82 -144 68 -145C43 -146 41 -138 61 -120C90 -94 97 -91 116 -98C197 -128 212 -128 279 -112C327 -100 414 -71 629 3C692 24 720 25 748 19C817 3 883 -20 961 -53ZM542 -612C544 -582 538 -532 531 -504C529 -497 522 -491 511 -490C496 -489 473 -484 414 -472C412 -492 409 -512 405 -533C432 -532 452 -538 498 -551C520 -558 515 -568 501 -571C483 -575 471 -571 403 -544C399 -565 394 -588 387 -609C401 -609 415 -612 436 -618C531 -643 541 -631 542 -612Z"/>
</svg>