<svg xmlns="http://www.w3.org/2000/svg" viewBox="0 -1000 1000 1000">
	<path fill="#000000" d="M521 -400C512 -407 478 -405 458 -400C420 -390 398 -384 371 -376C375 -402 377 -428 378 -459C413 -467 450 -480 465 -489C487 -503 489 -510 473 -517C460 -523 445 -522 407 -511C397 -508 388 -506 379 -503C380 -528 380 -556 380 -584C423 -596 481 -615 494 -622C516 -634 516 -652 503 -658C491 -664 466 -665 439 -655C419 -648 401 -642 380 -634C380 -702 382 -734 387 -748C397 -777 384 -793 342 -807C291 -824 276 -810 300 -775C319 -749 330 -706 333 -620C276 -604 225 -594 196 -591C169 -589 168 -579 194 -571C223 -562 276 -561 334 -573C334 -548 334 -520 333 -490C275 -473 241 -466 228 -465C198 -461 199 -453 226 -446C249 -440 284 -441 332 -449C331 -418 329 -390 324 -363C209 -332 136 -318 102 -320C72 -322 62 -310 98 -283C130 -259 156 -260 178 -274C190 -282 251 -302 317 -322C294 -211 241 -121 139 -48C117 -32 124 -17 155 -34C283 -100 342 -190 366 -338C429 -356 487 -372 501 -374C526 -378 532 -391 521 -400ZM883 -290C879 -359 825 -428 733 -474C721 -480 721 -489 728 -498C803 -591 835 -624 868 -640C892 -652 893 -673 823 -700C790 -713 776 -713 759 -693C744 -676 653 -647 585 -647C530 -669 524 -655 544 -626C557 -607 561 -584 563 -485C565 -377 565 -254 565 -145C565 -60 567 2 569 28C573 78 586 78 598 29C604 6 611 -58 615 -140C622 -288 621 -416 615 -615C669 -624 713 -635 740 -647C761 -655 770 -644 755 -612C728 -555 706 -512 697 -501C680 -480 681 -472 699 -460C824 -377 827 -297 799 -288C786 -284 745 -286 682 -296C658 -300 654 -288 678 -278C739 -253 797 -217 815 -194C826 -181 848 -179 858 -194C878 -222 885 -256 883 -290Z"/>
</svg>