<svg xmlns="http://www.w3.org/2000/svg" viewBox="0 -1000 1000 1000">
	<path fill="#000000" d="M350 -291C327 -286 304 -282 283 -279C280 -329 279 -361 278 -382C302 -386 328 -390 352 -395ZM455 -310C435 -306 413 -302 392 -298L395 -402C423 -406 444 -409 475 -413C471 -387 464 -354 455 -310ZM650 -651C587 -677 579 -661 600 -634C610 -620 615 -592 616 -513C619 -295 619 -226 617 -125C615 -43 617 19 621 51C625 88 639 87 647 52C657 13 660 -23 666 -161C670 -255 671 -483 667 -626C704 -628 731 -635 772 -648C797 -656 801 -651 789 -622C763 -550 751 -521 738 -492C729 -473 729 -464 743 -453C778 -428 804 -394 817 -347C835 -289 825 -277 715 -298C694 -302 694 -292 714 -281C773 -255 811 -231 830 -200C841 -180 862 -181 876 -215C910 -296 903 -384 771 -466C761 -472 760 -477 768 -492C824 -595 847 -624 872 -639C910 -660 908 -671 857 -699C821 -720 810 -719 782 -694C765 -679 709 -660 650 -651ZM332 -672C344 -653 349 -636 352 -587C309 -577 261 -569 206 -561C189 -559 187 -553 210 -545C236 -536 274 -536 353 -549C354 -517 354 -476 353 -422C328 -418 302 -414 276 -410C276 -418 276 -422 276 -427C279 -456 278 -461 244 -475C204 -492 196 -486 213 -458C225 -439 228 -431 234 -404C183 -399 139 -396 94 -395C63 -394 63 -385 87 -372C115 -354 132 -354 158 -360C185 -365 212 -370 239 -375C242 -351 248 -319 253 -274C213 -269 180 -265 164 -264C125 -262 123 -252 152 -237C171 -227 192 -223 233 -234C275 -245 323 -257 349 -261L345 -159C237 -133 202 -127 170 -128C134 -129 132 -115 167 -92C211 -62 219 -63 250 -79C286 -99 355 -124 538 -178C574 -189 565 -209 535 -203C493 -194 468 -189 388 -169L391 -269C444 -278 495 -284 548 -290C592 -294 595 -307 569 -320C554 -329 530 -328 491 -317C506 -381 509 -394 516 -418C541 -420 564 -423 584 -425C610 -428 611 -442 591 -454C573 -465 567 -465 526 -455C532 -474 535 -482 538 -485C551 -500 548 -517 520 -528C474 -546 466 -535 474 -515C485 -490 486 -476 480 -445C458 -440 428 -435 396 -430C398 -496 398 -511 399 -558C436 -566 475 -575 529 -588C559 -595 559 -616 525 -624C507 -628 488 -626 400 -601C401 -627 402 -635 404 -640C412 -662 400 -672 365 -684C445 -715 456 -718 489 -725C518 -731 522 -746 478 -772C438 -795 420 -794 420 -779C420 -759 356 -715 225 -663C194 -651 199 -642 225 -646C266 -652 294 -659 332 -672Z"/>
</svg>