<svg xmlns="http://www.w3.org/2000/svg" viewBox="0 -1000 1000 1000">
	<path fill="#000000" d="M704 -751C728 -762 727 -775 678 -805C620 -836 610 -832 614 -789C615 -776 578 -721 508 -660C490 -643 500 -631 524 -647C618 -704 686 -741 704 -751ZM440 -675C442 -710 410 -744 356 -758C329 -764 323 -756 335 -732C353 -699 374 -669 395 -651C413 -633 438 -638 440 -675ZM910 -631C892 -651 830 -662 783 -649C734 -634 598 -614 459 -597C317 -578 171 -565 114 -566C68 -567 70 -557 100 -532C126 -514 149 -512 211 -526C242 -536 306 -546 384 -556C398 -520 404 -478 404 -438C356 -428 314 -422 288 -421C241 -443 231 -425 251 -405C266 -394 271 -322 272 -278C273 -220 270 -162 255 -116C244 -81 245 -46 260 -18C277 17 294 17 305 -80C341 -72 366 -74 417 -81C466 -88 549 -93 594 -94C632 -95 636 -90 666 18C678 60 692 58 711 25C749 -38 756 -59 749 -152C738 -303 737 -380 748 -397C763 -419 765 -439 722 -461C678 -486 670 -487 612 -472C600 -469 584 -467 563 -463C567 -502 569 -517 575 -526C579 -542 571 -552 529 -572C659 -584 791 -594 853 -586C943 -575 946 -597 910 -631ZM525 -456C499 -452 474 -447 445 -444C446 -472 448 -490 449 -501C450 -521 446 -528 399 -558C424 -561 448 -564 476 -567C486 -568 496 -569 506 -570C524 -549 528 -518 525 -456ZM678 -107C673 -80 668 -80 635 -115C610 -141 601 -142 485 -123C432 -115 349 -106 308 -105C315 -181 320 -304 314 -397C347 -403 378 -408 402 -412C397 -360 381 -306 347 -259C335 -243 345 -237 368 -252C406 -284 437 -346 443 -418C475 -423 499 -426 523 -429C516 -334 533 -299 585 -298C628 -297 662 -309 662 -320C662 -337 628 -348 603 -344C567 -339 553 -359 560 -437C573 -438 587 -439 600 -440C660 -445 665 -442 676 -391C687 -341 688 -171 678 -107ZM564 -246C539 -255 523 -255 483 -244C457 -238 427 -231 390 -225C375 -221 375 -213 393 -204C420 -192 478 -192 562 -217C580 -224 582 -241 564 -246Z"/>
</svg>