<svg xmlns="http://www.w3.org/2000/svg" viewBox="0 -1000 1000 1000">
	<path fill="#000000" d="M740 -699C727 -757 669 -781 589 -778C550 -777 548 -770 572 -752C620 -715 677 -678 705 -664C729 -651 747 -668 740 -699ZM391 -686C415 -697 417 -705 371 -742C338 -767 323 -767 320 -732C318 -708 285 -669 190 -591C171 -575 178 -565 197 -573C248 -594 288 -616 333 -650C351 -663 374 -678 391 -686ZM957 -398C986 -405 984 -418 952 -422C796 -441 695 -468 514 -561C547 -597 573 -622 585 -631C600 -644 597 -659 552 -683C524 -698 515 -699 511 -668C508 -648 496 -619 468 -585C394 -624 370 -631 343 -624C322 -619 323 -608 338 -604C386 -591 409 -580 443 -559C352 -466 192 -385 83 -351C56 -342 60 -327 89 -332C237 -358 374 -419 487 -532C622 -450 655 -428 726 -384C763 -361 789 -359 957 -398ZM802 -65C773 -86 729 -93 697 -87C674 -83 587 -72 492 -62L497 -235C550 -242 603 -247 623 -245C698 -239 701 -262 682 -279C665 -294 634 -298 600 -291C569 -285 535 -279 498 -273C499 -283 501 -293 503 -303C507 -319 502 -330 471 -352C514 -357 559 -364 588 -372C625 -382 628 -396 614 -406C601 -415 574 -417 552 -412C487 -396 425 -384 342 -369C320 -365 323 -353 351 -346C362 -344 394 -345 432 -348C443 -319 445 -307 445 -264C372 -252 302 -241 267 -237C244 -234 244 -220 281 -208C297 -202 306 -204 445 -226V-57C319 -42 193 -31 183 -32C140 -35 142 -21 174 -7C213 10 237 12 267 7C448 -24 573 -35 653 -27C727 -20 753 -18 780 -18C830 -18 833 -43 802 -65ZM646 -165C671 -180 671 -187 637 -206C601 -226 588 -223 588 -197C588 -173 583 -160 553 -109C544 -94 551 -82 570 -98C622 -146 636 -159 646 -165ZM385 -111C383 -137 362 -156 318 -169C295 -176 288 -172 300 -148C309 -129 328 -104 345 -88C359 -76 387 -84 385 -111Z"/>
</svg>