<svg xmlns="http://www.w3.org/2000/svg" viewBox="0 -1000 1000 1000">
	<path fill="#000000" d="M647 -273C643 -315 621 -340 558 -359C527 -368 524 -366 536 -339C553 -304 565 -286 601 -247C625 -223 651 -232 647 -273ZM572 -484C598 -475 619 -474 641 -480C692 -493 720 -501 732 -503C778 -509 795 -497 797 -434C799 -362 788 -253 772 -169C754 -77 744 -70 667 -98C614 -116 607 -109 638 -80C665 -56 692 -15 701 10C711 37 714 39 741 24C783 -1 822 -62 831 -123C841 -196 845 -238 848 -306C855 -447 857 -466 868 -480C888 -508 888 -518 832 -546C795 -565 782 -564 754 -550C710 -528 637 -515 590 -514C605 -542 619 -572 634 -604C663 -670 669 -683 682 -699C700 -722 701 -737 652 -761C601 -788 591 -777 602 -746C611 -721 606 -680 570 -588C539 -509 511 -457 465 -385C453 -366 459 -361 476 -374C511 -400 543 -437 572 -484ZM248 -167C260 -194 241 -235 181 -246C170 -248 168 -246 171 -237C182 -209 194 -188 212 -163C224 -146 238 -149 248 -167ZM467 -258C478 -267 472 -281 430 -305C417 -312 405 -302 408 -293C417 -274 408 -257 375 -202C366 -188 374 -182 388 -193C418 -217 429 -228 467 -258ZM330 -443C356 -448 378 -455 415 -469C453 -483 448 -501 423 -504C392 -508 388 -507 305 -482C282 -475 244 -468 219 -464C252 -503 282 -547 335 -641C357 -620 405 -587 440 -567C468 -551 477 -553 476 -584C475 -627 429 -652 343 -654C350 -664 355 -672 361 -678C382 -697 384 -708 338 -737C294 -764 279 -752 287 -727C296 -701 289 -670 248 -596C191 -497 122 -405 60 -347C44 -332 46 -325 66 -335C114 -356 143 -380 204 -447C225 -436 255 -433 293 -437C299 -424 301 -414 299 -347C257 -335 219 -327 190 -322C175 -320 172 -310 194 -303C213 -298 248 -299 297 -307L292 -118C275 -112 256 -106 236 -101C181 -85 154 -81 123 -86C96 -90 90 -74 104 -61C159 -12 170 -11 193 -25C224 -43 284 -71 468 -141C494 -152 491 -166 469 -163C458 -161 393 -144 339 -130L343 -316C382 -326 422 -339 441 -350C457 -360 457 -369 440 -373C418 -378 393 -376 347 -363C349 -383 351 -397 353 -402C360 -418 356 -430 330 -443Z"/>
</svg>