<svg xmlns="http://www.w3.org/2000/svg" viewBox="0 -1000 1000 1000">
	<path fill="#000000" d="M709 -316C718 -318 729 -319 738 -320C756 -322 763 -316 769 -279C773 -257 781 -256 807 -292C823 -315 836 -345 845 -381C874 -496 890 -533 914 -556C927 -570 927 -584 909 -601C877 -628 863 -638 848 -644C831 -651 822 -652 800 -644C746 -625 608 -602 522 -594C465 -611 450 -599 468 -574C491 -543 511 -468 525 -353C529 -313 544 -265 557 -262C570 -259 577 -267 574 -301C607 -305 635 -308 658 -311C658 -188 657 -94 656 -66C654 -38 657 16 660 46C664 83 679 86 690 44C695 24 698 1 701 -54C705 -125 708 -214 709 -316ZM658 -344C627 -339 614 -337 572 -327C562 -432 553 -496 539 -565C564 -568 593 -571 638 -577C649 -562 654 -548 657 -476C639 -471 618 -466 594 -458C573 -452 574 -442 593 -438C610 -434 623 -432 657 -437C658 -405 658 -374 658 -344ZM683 -583C736 -590 766 -593 781 -594C811 -595 827 -588 827 -566C827 -515 814 -456 787 -374C778 -345 772 -341 745 -351C741 -353 729 -353 709 -351C708 -384 708 -416 707 -447C722 -450 739 -454 760 -458C787 -465 786 -484 754 -490C740 -493 731 -492 707 -488C708 -512 710 -526 714 -538C720 -556 712 -567 683 -583ZM260 -238C269 -268 256 -295 206 -315C191 -321 182 -314 188 -301C202 -267 210 -253 226 -230C237 -213 254 -217 260 -238ZM453 -307C468 -315 468 -322 435 -359C424 -370 409 -363 409 -348C409 -334 401 -315 365 -272C348 -251 360 -244 384 -262C404 -277 436 -299 453 -307ZM333 -483C352 -488 372 -493 396 -501C444 -515 445 -536 422 -539C393 -543 350 -536 330 -526C305 -515 262 -504 230 -498C271 -552 315 -621 349 -684C382 -651 413 -623 430 -613C455 -596 468 -604 464 -640C461 -663 434 -686 358 -698C369 -714 377 -726 382 -731C398 -755 398 -765 356 -791C315 -816 301 -807 313 -780C320 -762 312 -722 273 -653C219 -549 170 -476 67 -378C47 -359 53 -343 76 -360C130 -398 175 -435 213 -477C234 -473 255 -471 280 -474C295 -458 300 -443 300 -392C267 -383 232 -375 204 -370C187 -367 190 -356 214 -350C233 -344 252 -342 299 -352L294 -186C209 -164 171 -161 137 -164C107 -166 103 -149 133 -126C167 -99 178 -95 199 -109C230 -129 257 -138 476 -206C495 -212 493 -229 481 -229C467 -229 435 -222 335 -196L339 -363C359 -368 383 -375 411 -383C436 -390 440 -407 432 -413C423 -420 406 -422 378 -413C369 -410 357 -407 341 -402C342 -412 344 -422 345 -431C352 -451 347 -470 333 -483Z"/>
</svg>