<svg xmlns="http://www.w3.org/2000/svg" viewBox="0 -1000 1000 1000">
	<path fill="#000000" d="M888 -457C857 -477 820 -486 767 -475C724 -467 637 -454 538 -441C538 -473 541 -530 546 -548C559 -590 560 -598 490 -629C561 -660 617 -681 651 -690C693 -701 693 -713 650 -741C583 -783 572 -773 568 -748C565 -728 474 -667 307 -599C281 -588 287 -577 309 -580C355 -586 419 -603 463 -619C475 -595 478 -550 480 -433C335 -415 184 -400 118 -399C100 -399 94 -389 114 -374C154 -345 162 -344 207 -355C242 -364 386 -385 480 -396C480 -313 478 -152 475 -113C472 -63 471 20 479 68C486 111 500 118 512 68C520 36 531 -42 533 -68C539 -163 542 -286 539 -402C635 -410 789 -411 843 -402C897 -393 948 -416 888 -457Z"/>
</svg>