<svg xmlns="http://www.w3.org/2000/svg" viewBox="0 -1000 1000 1000">
	<path fill="#000000" d="M730 -414C747 -369 757 -247 749 -111C746 -60 738 -54 665 -81C639 -92 633 -79 652 -64C693 -31 718 4 730 31C738 50 749 52 763 38C809 -14 814 -33 801 -190C794 -271 793 -331 801 -360C808 -382 804 -398 770 -421C857 -436 904 -440 938 -440C966 -440 968 -462 950 -473C919 -493 891 -492 839 -477C779 -459 662 -435 623 -435C601 -435 599 -423 611 -416C643 -399 672 -399 730 -414ZM419 -209C432 -238 422 -264 377 -281C361 -287 357 -283 361 -271C372 -239 376 -230 389 -208C398 -192 409 -190 419 -209ZM219 -362C227 -310 226 -191 207 -102C195 -45 196 -31 216 10C221 25 236 26 246 7C256 -16 263 -49 261 -100C260 -119 263 -211 265 -243C269 -304 264 -351 240 -388C291 -452 301 -464 308 -468C331 -482 329 -505 299 -528C260 -559 250 -552 256 -530C261 -510 225 -445 176 -376C145 -333 95 -280 54 -246C29 -226 34 -210 66 -229C108 -252 169 -304 219 -362ZM623 -284C633 -292 630 -304 589 -330C574 -339 568 -332 571 -318C575 -301 570 -286 541 -236C532 -219 540 -214 558 -226C569 -233 580 -243 596 -262C600 -267 610 -275 623 -284ZM511 -652C537 -626 562 -606 594 -583C618 -566 633 -574 630 -603C626 -636 604 -654 518 -662C535 -698 542 -711 548 -717C566 -731 565 -750 526 -771C482 -793 471 -780 481 -756C489 -740 480 -701 440 -619C396 -528 363 -473 295 -396C279 -377 283 -371 310 -388C375 -430 446 -521 511 -652ZM862 -594C896 -605 894 -617 860 -631C840 -641 816 -636 774 -617C745 -604 719 -596 677 -591C662 -589 662 -579 676 -572C714 -553 747 -559 862 -594ZM332 -671C352 -686 352 -699 319 -731C287 -762 271 -757 275 -723C278 -706 263 -672 226 -620C194 -576 152 -532 112 -497C95 -482 102 -470 123 -480C181 -509 245 -569 292 -628C306 -647 319 -660 332 -671ZM470 -371C440 -363 402 -354 371 -350C358 -348 357 -338 377 -332C413 -321 430 -322 470 -337C470 -263 468 -208 464 -156C407 -143 363 -138 339 -140C306 -142 302 -132 337 -102C361 -81 374 -83 396 -92C436 -109 532 -141 622 -164C656 -172 660 -194 632 -196C618 -197 557 -182 507 -167C508 -244 509 -287 510 -347C541 -355 563 -360 585 -364C611 -368 611 -385 596 -394C582 -401 553 -400 513 -386C514 -400 515 -410 518 -413C526 -433 526 -444 500 -462C526 -469 553 -477 575 -483C607 -493 607 -501 584 -511C561 -520 525 -514 497 -502C474 -491 432 -479 411 -476C399 -474 396 -466 409 -462C426 -456 442 -453 457 -453C466 -436 469 -421 470 -371Z"/>
</svg>