<svg xmlns="http://www.w3.org/2000/svg" viewBox="0 -1000 1000 1000">
	<path fill="#000000" d="M211 -189C227 -216 220 -243 168 -269C158 -274 152 -273 156 -257C164 -225 169 -207 181 -189C189 -173 202 -175 211 -189ZM418 -284C428 -296 423 -302 386 -318C372 -325 365 -316 367 -302C369 -287 365 -268 344 -224C335 -205 336 -203 352 -214C370 -229 387 -246 399 -262C406 -272 411 -278 418 -284ZM613 -272C581 -264 542 -256 515 -250C499 -247 500 -240 522 -234C542 -228 571 -227 613 -233C613 -215 612 -197 612 -179C526 -162 461 -152 428 -149C407 -148 405 -140 431 -131C464 -118 475 -116 497 -122C524 -129 574 -139 612 -146C610 -41 611 13 615 69C617 98 630 99 637 74C651 25 658 -69 660 -154C727 -163 797 -169 841 -167C893 -165 891 -190 870 -204C840 -225 813 -230 722 -204C708 -200 681 -194 660 -189C660 -203 660 -223 660 -242C685 -247 707 -253 737 -263C761 -270 765 -280 751 -292C738 -303 712 -301 660 -283C660 -301 660 -318 659 -333C688 -340 724 -349 753 -356C777 -363 783 -377 764 -388C745 -399 725 -398 659 -376C660 -390 664 -403 669 -414C675 -427 670 -438 623 -454C606 -461 591 -447 600 -432C604 -424 610 -414 612 -364C565 -352 526 -343 507 -339C492 -335 492 -328 514 -320C533 -314 567 -315 613 -324C613 -308 613 -291 613 -272ZM638 -567C616 -582 592 -599 565 -617C583 -638 597 -655 607 -670C631 -672 666 -674 683 -672C698 -671 701 -668 693 -651C678 -623 661 -595 638 -567ZM651 -510C712 -459 769 -413 798 -389C834 -360 855 -360 977 -379C1007 -384 1003 -401 978 -406C872 -429 808 -455 679 -540C698 -560 715 -582 732 -606C754 -637 771 -654 798 -665C818 -675 821 -691 765 -719C742 -730 734 -729 715 -719C695 -708 660 -701 629 -703C637 -714 645 -724 654 -733C669 -748 666 -762 636 -777C592 -797 582 -791 585 -771C589 -751 588 -741 577 -719C551 -664 481 -567 442 -526C428 -511 434 -503 451 -514C481 -534 506 -555 547 -599C567 -582 591 -561 616 -540C561 -476 488 -413 402 -355C383 -342 386 -334 408 -341C474 -361 566 -419 651 -510ZM306 -465C329 -470 357 -477 391 -487C421 -497 415 -518 394 -523C370 -530 343 -525 259 -496C232 -486 221 -483 206 -481C252 -538 289 -594 327 -663C361 -631 388 -611 415 -593C435 -580 452 -588 447 -611C442 -642 430 -662 335 -676C339 -682 344 -689 350 -694C367 -715 359 -736 317 -761C282 -783 269 -771 276 -753C286 -731 286 -709 247 -637C176 -503 128 -442 41 -352C23 -335 27 -321 52 -338C111 -377 146 -407 192 -464C215 -455 234 -452 265 -456C273 -442 273 -424 271 -371C228 -356 182 -345 163 -342C143 -338 144 -330 163 -324C188 -316 224 -317 270 -329L265 -141C162 -110 136 -107 110 -110C85 -113 75 -105 102 -79C138 -46 156 -43 179 -59C206 -77 250 -98 415 -165C441 -176 434 -190 415 -184C397 -180 348 -167 307 -155L315 -341C338 -348 363 -356 391 -368C416 -378 412 -389 400 -395C377 -404 355 -401 317 -386C319 -410 320 -418 322 -424C328 -439 326 -452 306 -465Z"/>
</svg>