<svg xmlns="http://www.w3.org/2000/svg" viewBox="0 -1000 1000 1000">
	<path fill="#000000" d="M526 -605C490 -592 459 -584 448 -583C437 -582 433 -569 448 -564C463 -559 474 -558 526 -568C526 -550 525 -530 524 -510C494 -499 463 -488 448 -484C437 -481 433 -469 448 -467C467 -464 484 -466 523 -475C521 -450 520 -428 519 -411C470 -396 446 -390 421 -387C398 -385 395 -376 418 -361C440 -345 448 -346 469 -359C474 -362 498 -372 515 -379C511 -349 513 -332 518 -324C534 -298 543 -299 548 -327C550 -342 551 -360 553 -393C582 -404 614 -417 621 -420C629 -424 631 -438 613 -439C606 -440 594 -438 554 -423C555 -440 556 -462 557 -484C573 -488 588 -495 601 -501C628 -512 625 -524 602 -530C593 -533 582 -531 559 -522C560 -540 561 -557 562 -575C587 -581 607 -587 629 -595C650 -604 649 -615 629 -622C613 -627 590 -626 565 -619C570 -681 574 -707 581 -723C593 -747 585 -755 537 -774C495 -790 487 -775 507 -752C519 -741 525 -706 526 -605ZM621 -224L622 -231C774 -249 820 -248 876 -242C927 -237 942 -256 902 -282C871 -303 832 -304 798 -293C783 -287 762 -283 627 -261C630 -278 632 -286 634 -289C647 -311 644 -319 608 -333C573 -346 566 -336 575 -308C579 -297 580 -276 578 -252C479 -236 428 -231 419 -232C390 -234 385 -221 415 -206C444 -191 447 -191 482 -200C513 -208 546 -216 574 -223C558 -119 510 -56 379 11C364 19 368 35 388 29C516 -9 590 -72 614 -188C656 -124 690 -80 759 2C778 25 796 33 955 16C982 13 977 -4 952 -10C860 -34 820 -51 760 -94C727 -118 683 -157 621 -224ZM726 -588C725 -557 709 -511 685 -468C667 -434 648 -405 622 -375C609 -361 613 -356 626 -363C678 -388 708 -424 737 -483C761 -532 769 -545 776 -552C791 -568 791 -580 761 -599C785 -607 803 -613 820 -619C833 -623 840 -608 840 -579C840 -537 834 -498 818 -446C810 -419 795 -412 754 -437C738 -447 729 -440 737 -427C760 -390 773 -369 773 -346C773 -332 784 -326 806 -341C850 -372 862 -397 877 -487C887 -548 896 -578 910 -593C925 -610 924 -627 863 -657C846 -665 835 -665 815 -652C799 -641 744 -625 675 -613C656 -610 651 -604 671 -593C687 -585 704 -583 726 -588ZM330 -194C321 -178 332 -171 345 -182C357 -192 370 -205 410 -250C422 -263 420 -277 381 -296C365 -303 360 -299 361 -286C363 -267 354 -233 330 -194ZM163 -235C171 -205 181 -180 195 -162C205 -147 217 -149 223 -171C230 -203 225 -227 179 -248C163 -255 158 -250 163 -235ZM308 -435C327 -439 348 -445 375 -454C420 -467 417 -482 389 -487C367 -491 320 -482 303 -476C274 -466 253 -459 228 -457C268 -517 301 -583 322 -641C343 -616 356 -605 391 -579C416 -561 433 -562 431 -595C428 -621 413 -639 386 -645C375 -648 348 -654 328 -658C332 -669 337 -679 343 -685C359 -701 356 -717 316 -736C276 -755 264 -739 274 -720C283 -707 281 -677 252 -608C209 -504 124 -368 54 -294C30 -269 35 -262 62 -278C116 -311 170 -372 217 -440C235 -433 250 -429 267 -429C273 -413 275 -393 274 -343C244 -333 216 -325 189 -317C175 -313 171 -303 194 -299C216 -295 238 -295 273 -302L265 -109C185 -86 146 -77 113 -76C88 -75 84 -67 111 -44C149 -14 160 -12 184 -29C233 -59 274 -77 405 -128C437 -140 436 -150 412 -147C391 -144 350 -134 303 -121L314 -312C332 -317 354 -325 379 -334C403 -342 404 -349 389 -360C372 -369 364 -370 317 -355C319 -373 321 -382 325 -394C330 -408 326 -417 308 -435Z"/>
</svg>