<svg xmlns="http://www.w3.org/2000/svg" viewBox="0 -1000 1000 1000">
	<path fill="#000000" d="M611 -200C644 -209 677 -215 686 -216C699 -217 705 -213 704 -201C703 -184 701 -175 697 -163C694 -148 690 -143 618 -136C616 -157 614 -180 611 -200ZM573 -541C559 -546 554 -541 558 -526C565 -503 572 -490 598 -461C611 -446 627 -449 630 -475C634 -507 631 -520 573 -541ZM731 -586C734 -549 724 -506 690 -448C671 -445 648 -441 623 -437C605 -434 551 -427 513 -422C471 -440 462 -428 473 -408C482 -393 485 -376 484 -307C482 -219 477 -159 468 -111C456 -51 457 -34 470 -2C484 29 499 28 509 -6C516 -26 521 -86 525 -393C571 -401 609 -407 640 -412C647 -397 647 -377 644 -332C619 -328 592 -324 560 -319C543 -317 540 -308 558 -302C577 -295 604 -294 642 -299L636 -229C626 -226 614 -224 604 -222C598 -226 590 -227 574 -227C562 -227 560 -218 565 -210C572 -201 575 -191 579 -165C582 -146 588 -124 593 -101C598 -77 619 -74 621 -111C701 -118 733 -122 747 -125C756 -127 757 -141 747 -148C738 -155 737 -158 741 -168C749 -188 755 -200 762 -206C776 -222 776 -231 744 -244C716 -256 708 -257 699 -251C695 -248 684 -243 672 -239L680 -306C717 -312 742 -318 771 -328C789 -334 794 -344 781 -350C759 -363 742 -362 685 -342C688 -356 693 -369 698 -383C704 -399 704 -409 687 -419C718 -423 741 -427 763 -429C804 -433 811 -430 820 -377C834 -301 838 -205 833 -90C831 -43 820 -37 746 -61C719 -69 715 -61 743 -35C772 -8 799 23 808 43C819 69 830 70 848 48C890 -2 898 -27 887 -173C875 -348 872 -372 886 -405C898 -430 896 -436 859 -456C825 -476 811 -479 789 -470C782 -467 769 -463 721 -454C750 -493 773 -518 789 -532C808 -546 810 -558 769 -589C801 -592 833 -594 860 -595C908 -598 910 -613 885 -630C858 -650 832 -648 753 -631C623 -604 546 -593 491 -592C462 -591 459 -581 484 -571C516 -556 529 -554 593 -568C625 -575 676 -581 731 -586ZM621 -766C599 -768 597 -763 610 -746C638 -711 664 -684 684 -668C704 -651 721 -662 722 -688C725 -730 707 -758 621 -766ZM349 -206C335 -193 345 -180 360 -191C409 -224 423 -233 444 -242C458 -247 461 -262 421 -285C402 -296 396 -292 394 -277C390 -253 382 -239 349 -206ZM173 -231C184 -199 202 -168 219 -157C234 -145 240 -149 246 -163C254 -189 242 -216 190 -240C173 -247 169 -244 173 -231ZM325 -447C348 -453 374 -462 407 -472C429 -479 430 -492 419 -500C393 -515 364 -511 279 -477C239 -461 229 -456 209 -453C247 -501 286 -561 327 -639C342 -629 353 -620 372 -600C425 -545 448 -553 443 -595C439 -624 435 -630 340 -662C349 -675 357 -686 363 -693C383 -717 381 -720 334 -743C288 -765 279 -755 289 -729C295 -714 282 -669 248 -603C193 -497 127 -403 51 -334C31 -316 36 -305 59 -318C109 -348 155 -386 201 -445C221 -434 240 -431 280 -436C288 -421 290 -403 288 -343C256 -332 202 -317 185 -313C163 -308 163 -296 186 -293C212 -290 246 -293 287 -303L284 -120C221 -97 172 -87 134 -84C106 -81 101 -72 132 -44C165 -16 178 -17 203 -34C236 -57 309 -97 440 -147C465 -157 461 -174 436 -169C416 -165 378 -153 324 -133L331 -314C358 -321 395 -334 418 -343C442 -353 439 -370 423 -373C401 -377 386 -376 332 -359C332 -384 334 -397 340 -409C349 -424 350 -435 325 -447Z"/>
</svg>