<svg xmlns="http://www.w3.org/2000/svg" viewBox="0 -1000 1000 1000">
	<path fill="#000000" d="M263 -635C249 -640 246 -633 251 -620C261 -596 279 -573 291 -558C307 -543 321 -544 327 -569C336 -601 327 -613 263 -635ZM596 -724C613 -698 622 -640 612 -526C600 -366 598 -255 605 -142C610 -53 642 -4 707 12C788 29 880 20 939 -23C969 -45 969 -53 957 -78C948 -98 927 -186 925 -232C923 -261 913 -260 910 -237C887 -98 882 -84 842 -63C811 -47 750 -43 713 -56C680 -65 661 -81 656 -121C644 -237 644 -354 667 -551C674 -615 682 -656 690 -673C703 -699 700 -712 649 -738C595 -766 577 -751 596 -724ZM384 -579C370 -568 373 -556 390 -567C465 -610 500 -626 516 -633C534 -641 532 -653 490 -676C453 -694 444 -685 448 -670C452 -653 429 -625 384 -579ZM304 -81C319 -71 330 -62 343 -53C366 -36 383 -51 370 -77C365 -90 356 -99 332 -111C340 -122 349 -134 356 -148C365 -168 373 -180 379 -186C390 -194 391 -202 367 -216C339 -231 331 -229 322 -222C300 -205 254 -190 218 -184C206 -182 206 -174 217 -170C247 -163 258 -163 308 -182C321 -188 328 -181 326 -174C320 -156 313 -139 301 -123C284 -129 261 -135 232 -143C219 -145 218 -142 230 -132C251 -119 267 -107 282 -97C263 -77 239 -59 210 -41C191 -31 196 -25 214 -31C253 -46 282 -61 304 -81ZM342 -289C307 -280 286 -275 256 -270C290 -310 302 -322 314 -332C326 -343 327 -351 298 -367C329 -373 358 -378 387 -383C413 -389 425 -376 430 -346C445 -257 454 -165 450 -85C446 -41 437 -33 392 -45C372 -51 364 -39 384 -26C413 -6 433 11 454 42C464 58 478 57 492 26C508 -15 514 -53 503 -159C488 -298 489 -343 500 -367C509 -383 503 -394 469 -411C437 -431 424 -430 397 -419C385 -415 357 -407 320 -399C322 -406 323 -411 322 -416C372 -451 428 -483 457 -493C479 -501 479 -512 425 -541C402 -552 392 -551 375 -542C357 -531 247 -504 168 -496C149 -493 150 -479 162 -474C198 -459 214 -459 249 -471C278 -480 345 -500 361 -503C377 -506 379 -501 312 -432C299 -438 280 -441 246 -444C225 -446 224 -440 237 -431C256 -416 268 -407 288 -392C225 -373 188 -367 156 -368C110 -386 103 -375 113 -359C134 -320 131 -150 104 -68C94 -35 98 -11 111 11C127 43 134 42 144 13C156 -21 163 -85 169 -226C171 -275 173 -320 176 -339C211 -347 247 -356 275 -362C263 -314 237 -275 219 -264C207 -257 206 -250 215 -234C225 -214 232 -213 246 -222C264 -236 308 -257 353 -273C372 -240 390 -245 393 -265C396 -287 388 -306 342 -318C325 -322 321 -317 342 -289ZM441 -748C426 -755 408 -761 381 -771C357 -780 352 -774 347 -755C342 -739 283 -706 189 -665C168 -656 170 -647 193 -650C248 -658 274 -664 330 -684C365 -695 423 -717 437 -721C461 -727 461 -737 441 -748ZM123 -607C103 -611 101 -606 109 -592C125 -565 141 -546 159 -530C176 -514 194 -517 196 -544C198 -570 184 -592 123 -607Z"/>
</svg>