<svg xmlns="http://www.w3.org/2000/svg" viewBox="0 -1000 1000 1000">
	<path fill="#000000" d="M582 -658C593 -677 590 -692 557 -715C517 -744 495 -731 506 -697C513 -676 506 -629 484 -560C448 -448 387 -359 319 -287C299 -266 302 -252 329 -273C376 -310 418 -347 463 -417C467 -394 468 -365 465 -314C462 -261 457 -204 451 -183C437 -125 437 -107 453 -69C467 -39 478 -42 488 -63C496 -79 501 -109 501 -178C501 -223 502 -327 504 -375C506 -417 505 -431 483 -452C502 -486 522 -527 543 -579C554 -607 576 -648 582 -658ZM413 -674C438 -691 440 -707 398 -728C369 -744 351 -742 331 -726C297 -700 257 -688 228 -687C170 -709 159 -694 184 -667C194 -657 200 -622 201 -566C205 -378 190 -209 179 -185C158 -138 158 -125 170 -82C186 -25 205 -28 217 -61C226 -85 229 -111 235 -223C242 -350 244 -525 240 -667C264 -667 285 -669 329 -686C342 -691 347 -686 341 -668C332 -640 322 -610 313 -591C305 -575 307 -566 316 -546C321 -533 331 -504 333 -487C335 -469 329 -461 286 -462C271 -462 267 -456 283 -447C307 -432 320 -422 341 -399C350 -388 364 -391 372 -410C387 -446 388 -478 345 -552C336 -567 335 -580 341 -588C389 -656 400 -665 413 -674ZM928 -508C900 -525 872 -525 823 -514C812 -512 796 -508 777 -504C777 -617 781 -675 792 -701C806 -733 801 -743 753 -765C699 -791 685 -777 702 -743C725 -695 732 -632 734 -495C666 -481 586 -466 565 -464C536 -461 526 -454 550 -441C571 -429 581 -427 614 -436C661 -447 699 -455 734 -460C735 -281 733 -166 730 -115C728 -85 715 -81 659 -96C635 -102 628 -94 643 -79C673 -49 701 -16 723 15C735 32 742 34 756 14C781 -20 796 -72 791 -127C785 -204 779 -366 777 -466C817 -470 856 -471 903 -470C953 -469 953 -493 928 -508ZM669 -329C662 -355 624 -373 588 -379C567 -383 563 -372 575 -355C600 -318 618 -294 637 -282C655 -271 680 -290 669 -329Z"/>
</svg>