<svg xmlns="http://www.w3.org/2000/svg" viewBox="0 -1000 1000 1000">
	<path fill="#000000" d="M684 -726C667 -762 640 -775 589 -778C552 -780 551 -769 572 -745C589 -726 620 -690 640 -670C680 -630 703 -685 684 -726ZM940 -394C895 -419 861 -421 830 -415C794 -408 729 -393 685 -385C719 -442 749 -483 766 -501C776 -513 770 -530 687 -568C728 -577 768 -584 785 -587C834 -598 845 -616 809 -633C794 -642 752 -643 712 -628C645 -606 533 -581 481 -574C444 -570 445 -560 474 -548C494 -540 523 -538 596 -551C615 -554 639 -559 666 -564C700 -534 695 -475 648 -377C544 -360 433 -341 356 -331C312 -326 322 -315 352 -302C376 -291 390 -289 419 -297C446 -305 539 -323 620 -335C756 -354 809 -357 901 -348C969 -340 988 -368 940 -394ZM585 -419C590 -441 570 -479 532 -498C507 -510 499 -507 508 -475C515 -452 532 -418 550 -401C571 -383 578 -389 585 -419ZM410 -652C433 -669 434 -684 397 -702C360 -721 348 -722 331 -709C311 -693 260 -672 217 -665C148 -693 136 -678 164 -639C178 -619 184 -590 186 -517C191 -301 182 -166 161 -92C151 -59 159 -28 171 3C187 44 200 39 216 -7C224 -32 227 -86 229 -230C231 -354 232 -518 230 -639C249 -643 273 -649 308 -659C332 -667 337 -660 330 -642C316 -602 305 -573 297 -550C293 -538 294 -514 299 -502C308 -483 317 -457 320 -444C327 -415 321 -407 274 -414C252 -417 250 -404 271 -395C288 -387 317 -366 329 -354C347 -336 357 -338 368 -369C379 -398 378 -430 326 -508C320 -517 320 -543 325 -552C345 -589 385 -633 410 -652ZM823 -181C838 -195 836 -210 785 -239C739 -263 718 -264 703 -254C681 -241 590 -217 502 -209C440 -241 427 -221 440 -200C458 -170 469 -119 473 -72C476 -38 480 -11 487 9C497 39 519 31 524 -10C589 -12 681 -21 777 -35C786 -36 789 -55 778 -64C767 -74 763 -86 770 -105C779 -133 798 -158 823 -181ZM717 -185C719 -146 709 -75 696 -68C685 -60 651 -57 525 -44C524 -101 521 -147 513 -182C546 -184 587 -190 627 -198C705 -211 716 -206 717 -185Z"/>
</svg>