<svg xmlns="http://www.w3.org/2000/svg" viewBox="0 -1000 1000 1000">
	<path fill="#000000" d="M163 -650C108 -675 97 -659 118 -625C131 -603 141 -565 141 -492C141 -206 139 -142 119 -83C99 -27 100 -17 132 36C145 57 157 58 165 26C175 -8 179 -41 181 -147C185 -373 185 -481 179 -625C205 -624 226 -628 269 -648C297 -661 304 -655 296 -627C289 -602 281 -577 266 -530C259 -506 257 -498 271 -470C309 -397 304 -390 236 -402C203 -407 200 -397 231 -378C258 -363 279 -345 292 -319C299 -306 321 -307 328 -326C353 -386 350 -420 301 -483C289 -500 290 -506 298 -527C321 -585 335 -608 373 -641C399 -662 396 -673 349 -695C308 -714 295 -712 286 -701C264 -675 212 -651 163 -650ZM633 -47L635 -148C675 -155 704 -161 739 -171C767 -179 773 -193 752 -203C737 -212 704 -212 635 -195C636 -213 638 -234 645 -252C656 -279 648 -289 606 -300C556 -313 548 -301 565 -282C581 -264 584 -229 584 -180C529 -167 505 -163 470 -160C446 -158 441 -148 472 -137C493 -130 503 -129 583 -141L581 -40C466 -27 371 -20 321 -21C297 -22 292 -9 315 5C354 29 367 32 394 24C442 9 514 -2 631 -12C726 -21 824 -15 866 -6C932 6 940 -16 912 -41C878 -73 841 -77 751 -64C710 -58 671 -53 633 -47ZM673 -398C652 -402 651 -396 668 -381C704 -351 747 -318 803 -277C821 -264 831 -272 829 -299C825 -347 784 -377 673 -398ZM357 -207C341 -194 343 -184 363 -192C403 -207 438 -231 494 -284C521 -310 538 -327 541 -329C567 -343 569 -360 521 -378C489 -393 475 -387 481 -368C486 -352 451 -284 357 -207ZM627 -471L630 -568C683 -576 720 -584 746 -592C779 -605 781 -622 754 -633C738 -639 715 -640 687 -630C673 -625 653 -620 632 -615C634 -660 640 -717 649 -740C661 -765 657 -783 605 -797C550 -815 539 -797 559 -777C582 -753 587 -713 582 -603C533 -591 482 -580 455 -575C432 -571 433 -565 461 -554C486 -546 500 -546 581 -559L578 -462C482 -444 409 -434 367 -431C344 -429 343 -420 358 -410C389 -389 406 -389 434 -399C461 -408 549 -430 627 -438C728 -449 824 -455 850 -452C902 -445 910 -468 883 -487C852 -510 820 -511 757 -498C711 -487 668 -479 627 -471Z"/>
</svg>