<svg xmlns="http://www.w3.org/2000/svg" viewBox="0 -1000 1000 1000">
	<path fill="#000000" d="M551 -204C581 -242 572 -253 541 -224C481 -166 443 -138 421 -134C401 -131 399 -122 419 -102C443 -77 453 -76 464 -92C484 -119 513 -157 551 -204ZM526 -266C521 -290 503 -301 466 -304C445 -305 441 -294 451 -282C468 -262 487 -244 501 -234C519 -222 533 -232 526 -266ZM585 -478C585 -453 585 -428 585 -402C550 -397 493 -389 475 -388C458 -387 457 -374 474 -367C495 -358 505 -355 522 -359C538 -362 561 -365 585 -368C585 -195 584 -152 578 -69C575 -26 567 -24 511 -43C484 -53 478 -37 499 -22C535 6 551 24 561 45C572 71 585 71 606 45C627 19 632 5 631 -53C629 -97 628 -170 627 -258C678 -198 727 -144 748 -119C780 -81 797 -77 944 -98C967 -101 968 -116 947 -121C841 -144 781 -165 692 -238C724 -257 747 -269 781 -281C803 -289 806 -303 772 -335C746 -360 737 -358 735 -335C733 -313 725 -298 673 -253C659 -266 643 -280 627 -295C627 -320 627 -346 626 -374C678 -381 732 -387 753 -389C776 -392 778 -406 748 -429C744 -440 746 -463 755 -501C802 -506 846 -508 881 -508C924 -508 928 -525 900 -543C877 -557 856 -556 818 -548C805 -545 786 -542 766 -538C774 -564 779 -575 786 -583C804 -603 803 -616 761 -636C729 -650 719 -650 698 -641C684 -635 661 -627 633 -621C636 -667 640 -699 644 -714C657 -758 651 -768 599 -787C556 -802 545 -790 564 -763C580 -741 589 -691 588 -611C547 -604 505 -598 476 -596C461 -596 459 -583 476 -574C495 -565 502 -564 522 -566C540 -569 564 -573 588 -577C587 -555 587 -532 587 -506C511 -495 445 -484 430 -483C410 -482 410 -473 432 -462C450 -452 466 -451 495 -459C514 -465 547 -472 585 -478ZM627 -513C628 -540 629 -565 631 -588C652 -593 671 -596 690 -598C715 -600 721 -592 720 -564C719 -552 719 -541 718 -528C690 -523 658 -518 627 -513ZM714 -497C710 -469 705 -444 699 -428C679 -420 663 -416 626 -409C626 -435 626 -461 626 -485C654 -489 684 -493 714 -497ZM360 -363C381 -373 378 -385 359 -389C342 -393 327 -393 292 -380C254 -367 179 -351 163 -350C150 -349 150 -337 168 -331C193 -324 206 -324 251 -333C309 -345 339 -352 360 -363ZM409 -158C401 -190 393 -198 332 -207C321 -209 312 -200 323 -187C343 -164 357 -153 376 -137C394 -123 413 -141 409 -158ZM173 -186C172 -211 161 -209 151 -190C137 -164 126 -145 114 -127C103 -112 98 -94 101 -77C107 -50 125 -47 135 -63C166 -109 175 -141 173 -186ZM248 -245C259 -196 261 -145 253 -77C250 -54 244 -49 199 -65C177 -73 176 -58 189 -46C220 -20 233 -2 242 17C252 37 265 38 282 14C301 -14 302 -26 301 -65C300 -114 297 -216 298 -224C300 -235 299 -244 290 -253C321 -260 353 -265 384 -269C435 -276 436 -294 419 -301C406 -305 387 -305 358 -299C178 -262 100 -251 62 -251C42 -251 40 -241 63 -225C92 -205 102 -204 135 -217C152 -224 195 -235 248 -245ZM265 -538C264 -513 263 -495 260 -479C252 -439 256 -416 262 -406C271 -390 288 -389 297 -409C301 -418 304 -438 302 -479C301 -512 301 -551 303 -587C338 -595 375 -606 400 -612C439 -622 441 -638 420 -645C392 -654 371 -653 305 -629C309 -676 313 -701 317 -711C329 -743 323 -752 283 -771C245 -788 230 -772 248 -750C260 -734 267 -671 267 -619C214 -605 152 -593 126 -590C94 -585 90 -575 117 -565C135 -557 153 -557 241 -575C214 -524 148 -438 84 -383C64 -367 72 -361 96 -375C170 -417 223 -468 265 -538ZM310 -531C358 -479 371 -467 381 -465C398 -461 403 -467 401 -486C398 -517 385 -536 323 -544C299 -547 299 -544 310 -531Z"/>
</svg>