<svg xmlns="http://www.w3.org/2000/svg" viewBox="0 -1000 1000 1000">
	<path fill="#000000" d="M745 -692C747 -736 695 -758 635 -758C607 -758 599 -753 618 -733C631 -720 680 -679 698 -664C722 -645 744 -662 745 -692ZM478 -482C463 -491 434 -490 400 -479C390 -476 372 -471 350 -465L352 -527C381 -534 406 -543 419 -550C447 -564 445 -585 412 -581C396 -579 378 -574 353 -565L356 -626C386 -634 426 -645 442 -652C483 -668 480 -686 436 -686C419 -686 401 -682 358 -668C360 -696 363 -725 367 -734C377 -759 370 -771 323 -785C271 -801 264 -786 292 -753C304 -738 312 -693 314 -655C278 -645 226 -631 205 -627C176 -621 177 -607 209 -602C228 -599 258 -604 314 -616L312 -551C285 -542 251 -532 237 -531C204 -529 208 -512 240 -507C250 -505 280 -510 312 -517L310 -455C211 -430 71 -399 50 -400C25 -402 13 -390 35 -373C64 -352 72 -351 98 -364C126 -378 229 -407 312 -427C358 -439 397 -447 414 -448C483 -453 492 -473 478 -482ZM897 -559C928 -566 924 -586 876 -615C819 -650 812 -649 781 -630C765 -620 712 -604 661 -590C618 -578 576 -569 554 -567C539 -622 521 -614 516 -587C512 -563 508 -549 500 -523C495 -509 494 -492 496 -487C508 -458 518 -458 537 -486C545 -499 552 -523 554 -548C575 -546 605 -551 661 -567C707 -580 755 -593 766 -593C805 -595 810 -590 786 -536C775 -510 779 -508 800 -519C844 -543 866 -552 897 -559ZM961 -47C997 -58 996 -69 954 -73C799 -87 770 -100 676 -152L680 -279C716 -273 767 -285 804 -296C830 -304 831 -323 800 -329C775 -335 757 -329 680 -296C681 -319 685 -354 687 -359C695 -387 695 -399 670 -414C694 -420 721 -428 752 -440C785 -451 783 -459 766 -467C746 -476 730 -477 707 -468C659 -449 587 -426 561 -421C538 -417 542 -405 564 -402C580 -400 602 -400 632 -405C639 -383 643 -341 638 -173C607 -191 575 -213 545 -236C557 -260 568 -284 571 -288C588 -312 582 -329 552 -335C510 -343 505 -331 517 -308C521 -301 516 -268 494 -220C470 -169 459 -148 429 -114C416 -99 421 -89 437 -100C484 -132 519 -180 537 -216C600 -159 659 -109 729 -59C806 -4 814 -3 961 -47ZM424 -335C439 -357 438 -364 404 -387C384 -401 367 -399 348 -388C318 -371 286 -361 246 -360C213 -372 207 -356 216 -334C226 -308 216 -178 196 -133C167 -67 165 -59 168 -35C173 0 183 11 199 -8C217 -30 228 -64 241 -125C243 -136 245 -148 247 -162C276 -155 297 -157 323 -165C350 -173 343 -190 320 -194C309 -196 288 -192 249 -176C252 -199 254 -226 256 -255C285 -249 301 -250 326 -262C352 -274 349 -284 326 -288C314 -290 297 -285 257 -268C258 -292 259 -317 259 -340C284 -342 305 -345 336 -353C357 -358 365 -348 368 -324C373 -281 374 -129 369 -91C365 -65 351 -59 313 -71C296 -76 288 -68 303 -55C318 -42 347 -3 360 17C373 38 385 37 400 14C419 -15 424 -60 420 -100C416 -144 412 -228 413 -275C414 -313 416 -323 424 -335Z"/>
</svg>