<svg xmlns="http://www.w3.org/2000/svg" viewBox="0 -1000 1000 1000">
	<path fill="#000000" d="M324 -676C379 -611 408 -573 442 -523C461 -497 477 -501 478 -525C481 -589 445 -635 336 -691C318 -701 309 -693 324 -676ZM245 -379C245 -368 240 -353 231 -329C200 -245 139 -160 74 -109C59 -99 62 -87 83 -95C153 -123 226 -201 260 -275C290 -340 295 -348 300 -353C314 -366 314 -378 287 -394C312 -402 336 -408 345 -409C364 -411 381 -404 378 -377C373 -307 365 -267 340 -188C332 -162 322 -159 257 -174C237 -179 236 -174 248 -163C275 -135 292 -108 302 -81C308 -65 319 -64 332 -75C374 -112 407 -186 427 -329C433 -374 435 -389 446 -399C461 -411 458 -420 415 -446C388 -463 376 -463 362 -453C343 -441 252 -415 193 -404C176 -401 176 -393 191 -386C210 -379 229 -377 245 -379ZM68 -360C51 -343 59 -335 79 -344C125 -366 192 -439 242 -527C255 -550 264 -565 278 -579C295 -599 293 -608 237 -642C216 -655 204 -650 209 -628C213 -607 207 -581 186 -535C151 -461 117 -406 68 -360ZM576 -159C577 -149 576 -141 568 -132C507 -66 463 -33 373 19C355 31 357 39 377 34C463 11 520 -16 610 -99C623 -110 638 -121 651 -127C670 -135 673 -148 615 -168C588 -177 575 -171 576 -159ZM566 -423C566 -449 566 -474 566 -493C607 -500 641 -506 665 -511C686 -516 719 -520 742 -521C774 -523 779 -518 783 -480C790 -413 795 -302 790 -277C784 -239 780 -237 769 -247C764 -252 754 -253 742 -250C727 -246 619 -235 561 -230C562 -245 563 -270 563 -298C616 -297 696 -309 734 -324C751 -330 753 -340 735 -348C719 -355 688 -352 564 -321C565 -347 566 -375 566 -401C621 -398 695 -409 735 -423C752 -430 754 -442 736 -450C720 -457 694 -455 566 -423ZM660 -651C719 -660 852 -681 867 -684C919 -693 919 -716 889 -727C868 -736 840 -739 795 -727C693 -702 566 -677 490 -669C469 -667 468 -661 488 -651C513 -638 547 -636 621 -645C623 -618 610 -577 578 -524C569 -523 560 -522 551 -521C505 -543 491 -528 507 -509C512 -503 516 -486 518 -464C522 -385 520 -294 514 -251C511 -225 518 -204 523 -196C537 -172 548 -170 556 -197C637 -201 704 -206 759 -214C774 -216 779 -213 787 -190C801 -150 818 -146 832 -180C841 -203 846 -228 846 -248C846 -279 845 -434 844 -459C843 -472 846 -485 854 -502C867 -526 866 -532 825 -553C787 -574 778 -573 761 -564C742 -553 674 -539 614 -530C646 -570 662 -586 672 -595C695 -615 696 -623 660 -651ZM729 -142C773 -89 817 -33 850 10C869 34 883 27 885 -10C887 -56 868 -101 747 -155C719 -167 713 -161 729 -142Z"/>
</svg>