<svg xmlns="http://www.w3.org/2000/svg" viewBox="0 -1000 1000 1000">
	<path fill="#000000" d="M192 -619C189 -628 183 -642 177 -650C166 -662 160 -664 156 -647C148 -612 138 -592 123 -567C115 -553 114 -544 124 -516C131 -498 139 -497 151 -511C166 -528 179 -554 188 -588C379 -622 404 -626 425 -625C438 -625 440 -622 406 -566C399 -554 408 -544 419 -551C465 -581 482 -591 503 -596C539 -605 541 -622 513 -643C467 -677 452 -676 437 -669C417 -658 409 -656 256 -630C239 -627 217 -623 192 -619ZM851 -9C854 -74 828 -112 724 -157C696 -168 690 -159 701 -143C780 -37 801 -14 824 11C838 25 850 20 851 -9ZM652 -131C669 -141 667 -154 627 -170C587 -187 579 -176 581 -164C583 -155 574 -133 561 -119C496 -44 466 -18 401 23C386 32 390 42 405 37C488 10 525 -10 618 -105C625 -111 641 -124 652 -131ZM389 -702C397 -741 373 -766 319 -776C274 -782 272 -775 284 -761C319 -716 329 -706 358 -683C369 -675 386 -684 389 -702ZM582 -498C609 -506 641 -514 705 -528C744 -537 764 -532 773 -513C791 -473 799 -398 796 -276C796 -258 791 -251 776 -252C734 -255 713 -253 656 -240C601 -228 585 -225 570 -230C573 -249 575 -278 576 -310C627 -308 691 -314 726 -327C739 -332 744 -346 729 -353C705 -365 682 -362 577 -333C578 -356 579 -382 580 -407C631 -405 674 -413 719 -429C737 -435 737 -445 725 -450C695 -462 685 -462 581 -435C582 -457 582 -479 582 -498ZM606 -536C593 -533 579 -530 567 -527C514 -542 507 -526 521 -507C526 -500 532 -475 533 -449C537 -369 534 -299 525 -236C522 -216 527 -195 537 -179C543 -171 559 -175 566 -201C602 -197 625 -199 757 -218C778 -222 787 -212 796 -178C805 -138 818 -139 828 -155C853 -197 860 -257 848 -436C847 -454 849 -486 857 -512C867 -539 864 -547 829 -566C788 -587 778 -586 737 -570C720 -564 684 -553 644 -544C652 -567 671 -603 683 -612C705 -629 707 -640 672 -672C799 -691 838 -697 853 -702C887 -711 889 -728 867 -739C840 -751 811 -751 773 -741C666 -711 582 -694 526 -688C504 -686 502 -681 520 -673C544 -661 572 -658 630 -665C640 -635 630 -580 606 -536ZM261 -181C302 -191 336 -198 355 -200C368 -201 372 -193 371 -165C370 -137 361 -118 355 -115C339 -110 293 -100 265 -95C263 -127 262 -152 261 -181ZM324 -373C294 -380 256 -387 221 -393C236 -408 253 -428 270 -452C301 -454 331 -459 359 -468C372 -472 379 -465 360 -430C348 -408 338 -392 324 -373ZM341 -328C385 -311 412 -300 430 -292C478 -268 489 -269 487 -293C484 -320 466 -340 370 -363C378 -374 387 -385 395 -397C408 -416 437 -441 450 -448C469 -459 468 -471 432 -497C409 -513 395 -512 378 -503C362 -493 332 -485 290 -481C305 -504 319 -521 323 -524C333 -535 332 -547 299 -560C258 -577 247 -561 253 -548C259 -537 257 -523 247 -500C220 -438 190 -402 146 -355C136 -346 147 -338 157 -344C172 -352 187 -363 201 -375C239 -363 272 -351 300 -342C223 -255 173 -216 64 -152C39 -136 45 -128 70 -136C109 -147 151 -168 195 -197C212 -175 221 -134 227 -81C231 -46 241 -24 252 -24C265 -24 271 -29 267 -69C323 -74 389 -83 409 -89C428 -94 431 -99 417 -114C411 -121 411 -127 416 -142C421 -163 429 -175 441 -183C465 -201 462 -213 429 -231C387 -252 377 -251 361 -241C341 -229 284 -210 247 -206C241 -209 234 -212 222 -215C261 -245 302 -282 341 -328Z"/>
</svg>