<svg xmlns="http://www.w3.org/2000/svg" viewBox="0 -1000 1000 1000">
	<path fill="#000000" d="M201 -307C216 -344 207 -373 153 -408C139 -416 136 -414 139 -397C146 -367 157 -329 168 -303C180 -277 191 -279 201 -307ZM365 -521C383 -531 382 -546 365 -552C345 -559 294 -549 239 -530C195 -514 144 -503 109 -498C91 -495 89 -486 108 -480C138 -470 176 -472 202 -477C281 -492 343 -510 365 -521ZM321 -652C323 -701 284 -726 210 -728C194 -728 193 -725 205 -709C223 -688 261 -652 279 -637C303 -615 320 -623 321 -652ZM244 -240C213 -229 170 -212 135 -198C115 -190 80 -180 63 -179C43 -178 35 -169 61 -149C100 -120 111 -119 137 -137C170 -161 242 -202 370 -269C390 -279 386 -291 361 -282C345 -277 310 -266 274 -252C317 -365 335 -412 341 -421C356 -447 342 -463 295 -481C276 -488 267 -477 278 -457C288 -439 289 -401 244 -240ZM476 -622C574 -641 670 -657 722 -665C743 -669 750 -665 749 -642C741 -463 751 -312 781 -205C806 -113 854 -46 919 -7C948 10 965 -11 953 -51C944 -80 943 -106 947 -205C948 -231 933 -233 927 -208C904 -100 898 -99 884 -115C837 -173 798 -282 795 -440C791 -582 805 -634 833 -658C849 -673 847 -684 810 -707C771 -730 761 -732 742 -720C732 -713 719 -709 592 -678C556 -669 511 -661 476 -657C402 -686 392 -670 405 -649C420 -626 430 -549 429 -497C427 -268 393 -170 271 -19C253 5 264 11 287 -8C435 -132 480 -241 476 -590C476 -604 476 -614 476 -622ZM613 -277V-365C625 -368 637 -371 649 -373C673 -377 677 -375 673 -352C664 -300 660 -292 646 -287C634 -283 624 -280 613 -277ZM537 -234C549 -233 563 -234 577 -238V-138C515 -125 485 -121 464 -120C443 -119 438 -104 455 -92C496 -60 505 -60 519 -71C538 -88 609 -118 691 -141C703 -115 714 -94 725 -78C736 -62 749 -68 754 -94C764 -137 746 -173 682 -204C669 -210 661 -206 669 -189C673 -180 677 -170 681 -162C656 -156 633 -150 613 -145V-247C634 -252 662 -258 693 -264C727 -271 733 -286 715 -294C707 -297 704 -303 707 -315C714 -346 718 -359 732 -371C745 -383 741 -395 706 -410C679 -421 668 -420 658 -413C649 -407 633 -400 613 -393C613 -431 616 -452 618 -457C625 -470 622 -480 601 -497C612 -502 627 -509 636 -513C651 -521 664 -526 679 -531C698 -536 699 -548 661 -573C635 -589 615 -583 617 -569C619 -552 598 -535 513 -492C492 -482 497 -472 516 -474C535 -476 546 -478 562 -483C573 -467 577 -430 577 -380C559 -375 538 -370 518 -366C472 -378 466 -365 481 -338C487 -329 498 -292 506 -246C511 -218 515 -210 522 -211C530 -213 535 -223 537 -234ZM529 -338C543 -344 560 -349 577 -354V-268C562 -264 549 -262 536 -260C533 -290 531 -317 529 -338Z"/>
</svg>