<svg xmlns="http://www.w3.org/2000/svg" viewBox="0 -1000 1000 1000">
	<path fill="#000000" d="M230 -230C231 -252 232 -280 232 -308C264 -308 296 -316 330 -333C345 -341 348 -352 327 -360C316 -365 300 -362 232 -335C232 -361 231 -385 230 -402C261 -406 297 -416 326 -427C353 -436 359 -433 359 -404C360 -351 355 -315 348 -282C347 -273 343 -270 319 -262C309 -259 271 -245 230 -230ZM329 -681C365 -651 399 -627 418 -620C445 -610 455 -615 455 -642C455 -670 420 -689 335 -697C341 -715 337 -725 303 -739C256 -758 248 -745 258 -721C263 -709 262 -682 237 -625C180 -492 137 -427 49 -322C32 -304 32 -292 55 -306C98 -334 135 -368 170 -411C180 -396 185 -371 188 -335C194 -252 193 -225 186 -141C181 -86 170 -57 158 -43C146 -29 147 -2 162 23C180 51 184 53 212 8C228 -20 293 -84 353 -129C363 -111 373 -96 382 -85C397 -62 421 -67 423 -99C426 -141 410 -161 336 -201C326 -206 320 -197 325 -184C330 -173 335 -161 340 -150C298 -123 259 -98 224 -77C222 -100 223 -134 227 -202C329 -235 342 -236 351 -230C364 -221 384 -239 393 -280C417 -409 419 -416 431 -431C443 -445 436 -459 417 -470C401 -478 392 -481 381 -484C369 -487 362 -486 353 -478C330 -459 249 -430 204 -421C197 -423 191 -425 184 -429C211 -465 237 -507 266 -559C294 -532 319 -513 336 -506C354 -499 364 -514 359 -535C353 -557 322 -576 275 -576C292 -609 310 -643 329 -681ZM680 -363C685 -442 691 -480 698 -499C709 -528 705 -542 638 -560C665 -573 699 -587 742 -608C760 -616 780 -623 789 -625C827 -634 830 -644 767 -681C713 -713 706 -709 703 -686C700 -669 681 -647 654 -628C581 -578 551 -562 502 -540C473 -526 472 -513 502 -518C536 -523 563 -531 611 -549C628 -501 631 -448 629 -352C551 -336 494 -328 443 -322C423 -320 418 -308 443 -296C477 -279 493 -278 525 -287C555 -297 590 -305 627 -311L619 -85C571 -77 522 -71 455 -66C437 -65 431 -57 454 -43C489 -23 507 -22 543 -29C669 -54 768 -63 835 -62C896 -61 904 -73 865 -101C839 -120 816 -122 777 -113C736 -104 700 -98 666 -92C669 -148 675 -260 678 -320C744 -331 810 -338 857 -339C913 -340 918 -355 897 -372C863 -398 828 -398 760 -381C731 -375 705 -369 680 -363Z"/>
</svg>