<svg xmlns="http://www.w3.org/2000/svg" viewBox="0 -1000 1000 1000">
	<path fill="#000000" d="M611 -302C632 -308 656 -314 674 -318C690 -321 698 -310 696 -286C692 -232 685 -224 667 -216C657 -213 636 -208 619 -204C617 -238 614 -276 611 -302ZM618 -176C678 -189 721 -197 740 -200C759 -202 760 -224 743 -227C733 -229 731 -240 733 -249C740 -280 753 -302 767 -315C781 -330 777 -340 746 -354C716 -369 704 -368 687 -355C675 -346 639 -334 594 -330C555 -342 544 -332 558 -311C567 -298 577 -253 588 -173C592 -146 611 -138 618 -176ZM510 -405C587 -425 719 -448 764 -451C814 -454 827 -447 831 -399C840 -292 830 -175 816 -103C809 -66 795 -61 734 -88C717 -95 708 -80 730 -62C759 -39 781 -12 790 14C798 35 814 39 831 22C872 -23 887 -77 888 -189C891 -394 896 -420 908 -437C924 -458 919 -471 876 -492C829 -515 810 -513 796 -505C771 -490 656 -462 546 -445C669 -633 687 -657 703 -669C729 -688 731 -708 690 -729C628 -763 613 -755 622 -728C633 -692 605 -604 518 -441C507 -440 497 -438 486 -437C448 -451 436 -439 452 -410C468 -381 476 -164 466 -120C461 -97 464 -85 478 -56C494 -29 505 -30 512 -57C520 -87 522 -103 519 -172C515 -231 512 -337 510 -405ZM250 -397C273 -399 302 -406 336 -417C354 -423 361 -421 360 -397C359 -351 353 -292 345 -259C342 -242 338 -238 318 -236C303 -234 278 -227 246 -218C247 -271 247 -281 247 -301C276 -298 294 -300 322 -308C340 -313 340 -327 322 -335C307 -342 286 -339 248 -322C249 -367 249 -380 250 -397ZM197 -434C227 -477 252 -519 268 -553C299 -524 324 -508 340 -504C363 -499 374 -518 366 -533C354 -555 328 -567 274 -569C298 -622 315 -658 325 -681C352 -659 381 -641 406 -625C432 -610 446 -631 428 -661C412 -687 395 -696 332 -695C334 -702 337 -707 339 -711C349 -728 343 -738 309 -759C269 -784 257 -780 263 -754C268 -726 267 -691 246 -637C188 -489 111 -370 47 -290C28 -267 35 -259 56 -272C97 -298 132 -337 185 -415C191 -407 195 -388 199 -351C205 -281 203 -179 192 -94C188 -62 183 -45 168 -32C156 -20 152 -9 170 20C192 56 209 54 222 30C241 -8 307 -71 365 -113C374 -103 385 -93 391 -88C407 -73 421 -83 419 -111C417 -147 407 -162 345 -183C323 -191 316 -181 324 -167C330 -157 342 -140 352 -129C312 -105 274 -86 237 -68C241 -98 245 -134 246 -192C272 -199 305 -206 318 -208C342 -214 349 -214 353 -211C365 -202 382 -212 393 -266C411 -359 423 -400 430 -410C445 -428 440 -445 406 -458C374 -471 359 -469 353 -463C336 -447 299 -434 237 -421C227 -427 214 -431 197 -434Z"/>
</svg>