<svg xmlns="http://www.w3.org/2000/svg" viewBox="0 -1000 1000 1000">
	<path fill="#000000" d="M218 -420C238 -419 273 -425 310 -438C327 -443 334 -439 334 -417C333 -372 329 -308 323 -275C320 -259 316 -256 295 -252C276 -249 247 -243 216 -234C216 -264 216 -291 216 -315C248 -313 273 -315 300 -325C319 -330 318 -345 299 -353C285 -360 253 -355 216 -338C216 -376 217 -404 218 -420ZM169 -446C202 -491 223 -524 241 -564C269 -542 302 -521 317 -518C339 -513 349 -533 342 -547C331 -571 308 -584 251 -585C273 -631 282 -650 297 -681C329 -648 356 -624 383 -608C403 -595 418 -614 401 -651C393 -670 368 -685 307 -698C312 -706 315 -710 317 -712C333 -728 333 -742 295 -763C253 -787 239 -780 245 -752C251 -724 245 -689 221 -637C152 -480 103 -408 39 -336C21 -315 26 -305 46 -318C93 -352 118 -377 156 -429C162 -420 167 -402 171 -365C179 -296 179 -194 168 -107C165 -75 156 -57 142 -43C130 -31 129 -16 150 13C168 38 178 37 193 15C229 -36 279 -88 332 -132C343 -121 353 -111 360 -105C377 -91 389 -96 386 -125C383 -161 364 -179 312 -196C290 -203 284 -197 292 -182C299 -172 309 -158 321 -144C289 -125 244 -100 211 -83C215 -118 217 -154 216 -207C249 -215 283 -222 295 -225C320 -231 326 -231 330 -228C343 -218 360 -231 369 -283C390 -402 392 -408 402 -423C416 -443 412 -459 379 -474C341 -490 329 -485 314 -475C291 -459 258 -447 201 -437C192 -441 182 -444 169 -446ZM466 -683C405 -701 397 -687 425 -656C441 -638 453 -607 477 -520C490 -477 498 -461 502 -456C511 -441 524 -441 525 -458C580 -473 618 -481 652 -486C678 -490 702 -484 709 -474C720 -459 731 -461 744 -483C757 -505 774 -537 788 -570C814 -629 822 -646 837 -657C865 -679 855 -697 788 -730C766 -742 753 -743 737 -737C682 -715 548 -686 466 -683ZM638 -608C640 -618 643 -629 647 -636C657 -650 654 -659 625 -678C664 -685 712 -692 736 -692C759 -693 765 -688 759 -657C752 -625 741 -589 726 -551C715 -526 710 -520 690 -520C683 -520 654 -516 631 -512L635 -570C672 -576 691 -582 708 -590C725 -599 722 -608 707 -613C693 -618 666 -616 638 -608ZM593 -565L592 -504C568 -499 549 -495 522 -487C520 -506 509 -561 489 -656C520 -658 547 -662 584 -670C593 -651 595 -624 594 -593C576 -589 554 -586 532 -583C509 -580 506 -570 531 -562C542 -559 559 -559 593 -565ZM561 -358C693 -176 728 -128 742 -108C790 -42 799 -40 961 -53C986 -55 988 -67 960 -75C857 -107 806 -132 715 -216C773 -251 820 -282 834 -289C854 -299 853 -316 808 -334C768 -348 756 -344 761 -324C764 -308 756 -290 698 -233C675 -258 637 -303 592 -363C672 -375 745 -381 855 -384C893 -385 902 -405 854 -422C820 -435 782 -434 704 -414C653 -402 518 -377 402 -364C385 -362 382 -353 391 -348C426 -328 435 -326 474 -337C487 -297 490 -250 487 -183C484 -113 472 -67 437 -37C422 -24 421 -9 440 24C453 45 464 45 482 23C507 -7 560 -59 621 -108C670 -147 660 -164 609 -133C578 -114 553 -97 518 -73C522 -168 532 -248 540 -272C550 -303 545 -317 502 -345C520 -350 540 -354 561 -358Z"/>
</svg>