<svg xmlns="http://www.w3.org/2000/svg" viewBox="0 -1000 1000 1000">
	<path fill="#000000" d="M615 -615C617 -660 609 -674 542 -696C512 -707 505 -701 522 -674C545 -635 561 -610 574 -595C592 -577 614 -593 615 -615ZM835 -716C857 -728 858 -753 791 -785C761 -800 749 -794 755 -761C760 -738 746 -696 678 -601C666 -583 678 -574 698 -589C729 -615 741 -627 790 -678C801 -688 823 -709 835 -716ZM744 -506C764 -510 783 -514 803 -518C867 -532 872 -546 842 -562C823 -573 799 -572 755 -558C666 -532 553 -507 491 -500C471 -498 471 -486 491 -480C509 -474 521 -472 553 -475C569 -440 574 -401 570 -355C528 -349 513 -347 501 -347C461 -347 457 -336 485 -318C504 -306 511 -307 566 -319C542 -168 508 -109 439 -33C417 -7 424 3 452 -17C556 -90 604 -181 614 -329C649 -335 691 -341 726 -345C722 -153 727 22 731 47C735 74 750 74 759 42C764 22 770 -22 773 -60C777 -109 779 -274 776 -351C838 -359 869 -361 906 -361C953 -361 958 -373 935 -397C908 -423 889 -421 775 -392C775 -416 778 -438 781 -448C790 -476 785 -486 744 -506ZM726 -381C691 -375 653 -369 616 -363C619 -407 621 -419 624 -425C634 -448 632 -462 596 -479C627 -484 668 -491 709 -499C718 -475 725 -435 726 -381ZM88 -241C79 -263 69 -263 67 -244C64 -218 61 -200 55 -177C49 -153 51 -136 61 -119C72 -101 82 -103 87 -115C103 -157 103 -204 88 -241ZM189 -166C198 -193 192 -217 166 -242C154 -253 146 -251 148 -234C154 -184 155 -172 163 -158C171 -143 183 -148 189 -166ZM267 -179C275 -206 259 -236 232 -252C220 -260 217 -258 220 -240C222 -228 234 -192 245 -170C250 -160 261 -159 267 -179ZM343 -221C348 -245 337 -259 303 -280C284 -293 280 -292 285 -273C292 -247 304 -221 316 -207C327 -194 339 -196 343 -221ZM298 -524C298 -500 297 -484 295 -458C275 -452 260 -449 238 -447C223 -445 219 -433 242 -427C254 -423 271 -422 294 -424C293 -394 292 -369 292 -353C267 -348 237 -342 199 -335C202 -377 206 -507 209 -650C230 -651 255 -653 293 -658C299 -638 301 -614 300 -560C283 -555 260 -549 235 -544C222 -541 220 -535 239 -527C252 -522 272 -521 298 -524ZM343 -575C347 -600 349 -613 351 -619C359 -638 357 -651 341 -664C366 -670 399 -677 421 -683C453 -692 451 -708 426 -716C402 -723 386 -725 339 -711C294 -697 250 -688 197 -680C189 -685 184 -687 161 -693C145 -697 139 -684 151 -665C168 -637 169 -421 155 -349C150 -322 151 -313 165 -290C177 -271 185 -272 191 -289C199 -311 227 -315 356 -334C377 -337 387 -324 386 -279C385 -215 374 -157 353 -107C345 -90 334 -85 273 -107C259 -112 255 -103 269 -89C292 -66 318 -31 326 -6C331 9 342 12 362 -8C393 -40 404 -68 417 -125C422 -147 425 -178 434 -241C440 -285 446 -306 457 -317C466 -329 464 -341 425 -365C402 -378 395 -380 379 -373C375 -371 362 -368 329 -361C331 -386 332 -410 333 -431C356 -435 379 -442 408 -451C424 -456 425 -470 410 -476C390 -486 366 -484 335 -473C337 -496 338 -514 339 -532C362 -537 388 -545 413 -555C428 -560 428 -574 411 -579C392 -585 375 -584 343 -575Z"/>
</svg>