<svg xmlns="http://www.w3.org/2000/svg" viewBox="0 -1000 1000 1000">
	<path fill="#000000" d="M543 -161C549 -193 545 -198 520 -209C493 -219 490 -211 499 -189C505 -172 505 -120 501 -80C498 -56 491 -38 472 -24C464 -18 462 -9 469 13C477 38 482 39 496 27C543 -17 569 -33 641 -74C660 -86 656 -92 637 -88C623 -85 569 -68 531 -55C533 -87 536 -118 539 -138C556 -133 579 -135 632 -150C647 -155 646 -171 638 -174C617 -183 606 -182 592 -176C578 -171 570 -168 543 -161ZM78 -230C73 -258 63 -257 58 -229C52 -193 46 -175 36 -162C28 -148 26 -137 36 -113C48 -89 62 -89 73 -121C84 -155 85 -194 78 -230ZM711 -150C712 -174 714 -187 716 -193C724 -212 715 -222 691 -237C663 -255 654 -247 663 -228C674 -204 677 -178 678 -67C679 -29 699 5 745 18C795 34 890 28 934 -5C954 -20 957 -29 951 -52C944 -73 941 -90 940 -137C940 -166 933 -167 924 -139C901 -61 892 -50 876 -41C845 -28 795 -19 762 -25C714 -34 711 -54 711 -127C848 -177 853 -178 866 -182C884 -189 886 -195 858 -221C831 -246 819 -242 817 -225C815 -202 768 -172 711 -150ZM160 -159C164 -177 154 -210 133 -233C118 -249 111 -247 114 -227C119 -189 124 -171 132 -153C137 -142 155 -141 160 -159ZM229 -184C239 -205 224 -235 195 -252C182 -261 177 -259 181 -241C185 -226 192 -206 205 -181C212 -169 224 -173 229 -184ZM304 -224C304 -248 295 -259 265 -276C247 -287 238 -284 244 -267C251 -242 258 -231 278 -209C290 -196 305 -201 304 -224ZM700 -360C719 -364 730 -365 747 -367C770 -369 771 -362 768 -342C766 -332 764 -321 757 -301C755 -296 753 -295 736 -296C727 -297 716 -296 683 -287ZM653 -280C638 -277 616 -273 594 -269L597 -336C627 -343 656 -349 665 -351ZM633 -463C545 -443 506 -437 479 -435C430 -462 424 -456 435 -428C446 -398 440 -287 413 -173C398 -112 376 -56 324 17C306 41 317 48 341 27C407 -29 442 -95 471 -268C480 -324 486 -381 487 -413C501 -410 512 -411 570 -423C577 -425 631 -434 662 -438C669 -423 671 -404 669 -379C640 -373 617 -368 598 -364C599 -373 600 -380 601 -388C602 -399 600 -402 570 -412C556 -417 550 -411 559 -395C562 -386 566 -373 567 -358C546 -354 530 -351 516 -350C495 -348 494 -342 511 -333C525 -326 544 -326 568 -330L566 -265C537 -261 510 -258 492 -256C473 -253 472 -246 492 -240C523 -230 535 -231 568 -238C663 -259 686 -263 725 -267C745 -269 749 -266 753 -259C759 -248 766 -248 778 -265C791 -282 796 -291 804 -310C812 -331 823 -344 833 -351C844 -360 842 -370 812 -394C790 -411 783 -410 762 -401C753 -398 736 -394 707 -388C708 -395 710 -400 713 -405C720 -420 718 -427 686 -441C721 -446 757 -451 786 -455C815 -459 816 -471 798 -483C786 -491 766 -493 732 -485C706 -479 683 -474 662 -469C663 -502 652 -513 618 -522C603 -526 598 -520 601 -513C608 -497 618 -481 633 -463ZM525 -521C534 -540 533 -551 500 -583C490 -593 482 -590 488 -568C492 -549 499 -526 501 -519C504 -506 518 -505 525 -521ZM766 -549C772 -566 767 -586 735 -607C719 -616 715 -614 720 -596C728 -576 732 -559 739 -540C744 -525 757 -526 766 -549ZM437 -627C398 -641 395 -629 405 -615C416 -600 428 -534 428 -508C428 -495 433 -483 440 -475C451 -462 458 -462 461 -490C463 -509 460 -539 450 -605C492 -615 524 -622 549 -626C560 -628 563 -626 564 -612C566 -574 562 -554 556 -539C550 -525 550 -512 560 -490C564 -479 573 -480 581 -496C587 -505 591 -525 595 -553C601 -596 603 -608 614 -622C626 -637 625 -647 601 -658C578 -670 572 -670 557 -659C546 -653 489 -637 437 -627ZM674 -654C643 -671 633 -661 645 -641C651 -629 658 -578 657 -555C656 -536 659 -522 666 -512C674 -499 683 -500 686 -513C691 -530 691 -576 686 -630C733 -639 767 -644 794 -648C807 -650 810 -646 810 -629C811 -587 808 -556 803 -536C798 -515 798 -506 808 -485C812 -477 823 -480 833 -500C838 -510 846 -548 850 -583C853 -611 856 -621 868 -636C878 -649 875 -659 847 -676C829 -687 818 -687 799 -680C768 -669 716 -657 674 -654ZM245 -649C251 -635 253 -619 254 -570C231 -562 216 -558 202 -556C182 -553 182 -543 197 -540C220 -535 236 -533 254 -536L253 -462C241 -457 225 -453 196 -446C183 -443 182 -437 199 -432C211 -428 229 -427 253 -430V-355C234 -351 209 -346 171 -339C171 -489 172 -540 175 -644C195 -643 216 -645 245 -649ZM172 -670C168 -676 157 -681 135 -687C117 -692 106 -685 117 -664C129 -643 135 -609 135 -526C135 -410 134 -365 130 -353C126 -341 125 -315 130 -299C138 -272 157 -268 164 -297C169 -316 172 -319 294 -336C318 -339 323 -338 327 -296C331 -240 320 -156 305 -103C298 -76 289 -73 233 -96C214 -103 207 -98 224 -78C248 -50 257 -30 263 -1C266 14 283 17 298 1C344 -46 367 -104 367 -226C367 -269 374 -302 387 -317C395 -330 391 -339 367 -356C335 -380 318 -381 289 -367V-438C313 -443 330 -446 350 -452C370 -458 369 -480 348 -483C328 -485 307 -483 290 -477V-545C310 -550 330 -554 354 -561C378 -569 381 -583 360 -587C332 -592 319 -592 291 -582C293 -601 298 -616 301 -625C305 -635 302 -644 286 -656C310 -661 341 -669 379 -677C399 -681 399 -698 379 -706C353 -715 331 -711 298 -699C233 -678 215 -675 172 -670ZM612 -740C592 -751 569 -751 557 -746C506 -727 461 -715 425 -712C416 -711 412 -698 429 -694C464 -685 491 -685 610 -717C622 -720 624 -733 612 -740ZM856 -762C838 -771 809 -768 782 -759C735 -744 692 -733 667 -730C648 -729 645 -723 666 -714C700 -698 733 -701 854 -736C870 -740 874 -755 856 -762Z"/>
</svg>