<svg xmlns="http://www.w3.org/2000/svg" viewBox="0 -1000 1000 1000">
	<path fill="#000000" d="M747 -625C774 -647 775 -657 709 -687C663 -708 649 -706 627 -693C609 -682 485 -650 367 -627C445 -702 468 -717 516 -746C540 -760 538 -780 484 -800C429 -819 426 -812 432 -793C439 -766 434 -755 332 -621C315 -618 297 -615 281 -613C214 -629 208 -616 228 -595C255 -568 269 -543 315 -408C331 -361 339 -359 349 -361C357 -363 361 -367 357 -380C379 -383 401 -387 421 -391C371 -244 245 -143 99 -53C80 -40 83 -31 106 -39C299 -102 426 -247 469 -404C522 -419 597 -425 607 -410C619 -395 632 -393 645 -414C656 -435 680 -485 698 -531C708 -560 728 -610 747 -625ZM802 -201C810 -236 781 -274 742 -293C714 -307 709 -305 731 -261C696 -248 641 -230 618 -224C605 -220 601 -226 609 -238C668 -312 688 -335 715 -359C735 -376 729 -389 697 -408C676 -422 662 -419 664 -380C665 -360 582 -226 559 -224C544 -223 545 -205 553 -186C564 -158 576 -153 599 -171C619 -188 689 -221 740 -241C748 -225 755 -210 763 -197C777 -169 795 -167 802 -201ZM946 -120C938 -137 928 -171 920 -220C916 -241 901 -241 899 -218C889 -119 865 -97 815 -80C736 -55 639 -51 582 -72C526 -92 515 -103 507 -164C504 -185 510 -279 528 -328C537 -355 534 -368 510 -380C483 -393 480 -392 486 -346C487 -329 485 -290 478 -241C471 -191 471 -134 480 -105C494 -58 520 -28 569 -11C653 17 828 -4 902 -41C949 -65 962 -91 946 -120ZM658 -620C653 -571 641 -519 625 -465C621 -451 607 -437 595 -442C580 -448 540 -442 475 -426C482 -456 488 -486 494 -512C543 -525 572 -536 584 -542C598 -548 592 -559 581 -563C561 -569 545 -571 504 -555C514 -600 514 -605 477 -625C531 -638 600 -651 627 -652C659 -653 661 -649 658 -620ZM456 -538C430 -529 398 -520 379 -516C362 -512 363 -502 376 -499C389 -496 414 -496 450 -503C444 -471 436 -439 429 -415C406 -410 376 -405 350 -400C331 -484 317 -547 302 -593C351 -601 405 -611 449 -620C458 -601 460 -577 456 -538Z"/>
</svg>