<svg xmlns="http://www.w3.org/2000/svg" viewBox="0 -1000 1000 1000">
	<path fill="#000000" d="M927 -271C841 -291 757 -320 669 -398C669 -407 669 -417 670 -425C749 -444 797 -460 804 -466C812 -471 812 -482 798 -485C771 -491 717 -482 670 -463C671 -490 672 -515 673 -534C733 -550 766 -562 779 -570C787 -575 787 -585 772 -591C751 -599 736 -598 676 -574C679 -629 686 -686 695 -712C702 -735 698 -747 655 -766C615 -785 603 -768 617 -753C638 -728 646 -688 647 -564C608 -554 567 -543 553 -541C539 -539 538 -531 553 -523C570 -515 587 -513 647 -526C647 -492 647 -470 646 -453C615 -441 583 -434 535 -429C521 -428 520 -421 536 -416C553 -410 588 -407 624 -414C600 -361 564 -308 524 -269C499 -244 503 -238 533 -256C578 -283 622 -328 645 -390C641 -276 636 -219 627 -197C614 -165 614 -159 637 -96C644 -75 657 -76 664 -95C675 -124 676 -156 674 -203C671 -261 669 -319 669 -376C704 -336 728 -316 767 -278C816 -231 823 -230 925 -254C945 -259 945 -268 927 -271ZM521 -582C542 -605 543 -611 505 -632C459 -659 454 -658 432 -646C412 -634 333 -614 257 -602C316 -677 354 -717 375 -731C397 -747 397 -758 347 -777C306 -793 302 -785 306 -765C310 -739 280 -677 228 -598C211 -595 195 -593 180 -592C134 -604 133 -600 148 -580C163 -559 174 -515 192 -404C197 -371 201 -358 209 -358C218 -358 221 -363 222 -373C242 -376 257 -378 269 -380C221 -254 150 -159 55 -79C36 -65 41 -58 60 -67C187 -130 261 -242 309 -385C400 -399 413 -400 416 -395C423 -384 430 -382 444 -401C453 -413 464 -435 479 -481C502 -552 508 -568 521 -582ZM536 -191C537 -198 532 -227 491 -255C475 -266 473 -259 478 -243C480 -237 481 -231 483 -225C457 -215 427 -203 407 -197C412 -215 434 -264 456 -292C469 -308 466 -318 441 -330C422 -340 409 -335 414 -311C417 -295 405 -222 378 -200C365 -189 364 -187 370 -170C378 -147 383 -145 397 -155C428 -178 451 -195 489 -208C495 -193 500 -180 504 -173C516 -153 532 -162 536 -191ZM911 -99C903 -124 894 -157 889 -186C884 -217 875 -213 871 -185C861 -118 853 -104 794 -82C741 -64 582 -43 486 -50C406 -56 334 -81 334 -158C334 -214 349 -275 362 -312C371 -334 365 -342 345 -352C325 -362 320 -358 323 -327C324 -320 317 -269 311 -232C300 -164 300 -121 317 -87C339 -45 393 -10 481 -3C595 6 692 1 798 -20C896 -38 921 -70 911 -99ZM457 -582C450 -534 438 -481 424 -441C415 -417 412 -415 405 -417C398 -420 375 -420 316 -409C323 -434 334 -471 339 -493C378 -499 398 -506 408 -513C421 -521 418 -529 404 -532C394 -534 377 -532 345 -524C349 -545 351 -552 353 -556C360 -577 360 -582 323 -597C374 -606 420 -613 433 -615C459 -619 462 -611 457 -582ZM306 -515C295 -512 281 -509 260 -505C246 -502 243 -498 255 -491C264 -485 270 -484 301 -487C294 -457 285 -427 276 -400C260 -397 243 -393 221 -389C212 -472 207 -530 197 -575C224 -580 265 -588 306 -594C312 -578 312 -552 306 -515Z"/>
</svg>