<svg xmlns="http://www.w3.org/2000/svg" viewBox="0 -1000 1000 1000">
	<path fill="#000000" d="M440 -208C435 -223 431 -222 424 -204C374 -78 371 -68 376 -56C387 -34 403 -34 415 -50C453 -103 458 -159 440 -208ZM559 -124C561 -144 544 -172 516 -194C499 -208 495 -207 496 -192C498 -162 514 -118 527 -105C538 -94 557 -103 559 -124ZM654 -143C659 -171 640 -196 606 -217C584 -231 581 -228 591 -199C601 -166 607 -152 616 -136C632 -111 650 -113 654 -143ZM774 -148C774 -177 761 -202 696 -228C685 -232 683 -230 691 -215C708 -178 725 -149 738 -134C760 -109 774 -118 774 -148ZM179 -145C241 -154 323 -163 356 -165C373 -166 382 -182 364 -199C358 -206 358 -212 363 -231C371 -261 382 -279 392 -290C415 -311 415 -324 382 -342C345 -363 331 -363 314 -354C305 -350 276 -342 256 -337L267 -475C319 -485 347 -490 404 -503C434 -509 437 -521 410 -537C390 -549 353 -550 272 -524C283 -636 290 -677 297 -688C315 -719 312 -734 241 -760C196 -777 187 -766 214 -729C227 -712 231 -645 224 -512C149 -492 108 -486 81 -486C64 -486 63 -479 88 -466C110 -453 139 -452 222 -467L213 -328C184 -322 169 -320 154 -319C93 -343 89 -332 98 -313C114 -284 129 -224 137 -136C141 -100 155 -83 161 -83C175 -83 180 -90 179 -145ZM166 -291C187 -292 210 -296 235 -303C296 -319 319 -313 319 -287C319 -256 316 -235 308 -210C302 -202 282 -197 176 -178C172 -201 169 -237 166 -291ZM537 -448C537 -470 537 -487 537 -516C572 -515 639 -525 666 -539C680 -545 679 -553 657 -564C645 -569 625 -566 600 -558C581 -553 566 -549 537 -543C538 -564 538 -584 539 -607C577 -614 628 -622 688 -631C711 -635 719 -627 716 -607C710 -566 700 -532 681 -488C675 -474 673 -472 669 -472C664 -472 643 -468 537 -448ZM538 -362C538 -380 538 -399 538 -420C642 -441 662 -442 665 -435C670 -422 687 -422 698 -435C721 -463 740 -493 751 -522C769 -566 786 -592 802 -603C824 -617 822 -631 767 -665C734 -685 725 -687 698 -674C670 -659 608 -643 550 -635C658 -733 671 -745 688 -751C715 -760 712 -785 656 -809C610 -827 603 -818 609 -795C616 -771 594 -720 527 -639C511 -643 494 -648 485 -650C465 -654 460 -647 475 -622C497 -586 500 -395 490 -312C486 -277 489 -261 495 -238C503 -207 528 -206 533 -231C536 -247 540 -249 566 -253C629 -263 675 -268 781 -276C821 -279 830 -274 827 -229C820 -135 811 -92 782 -41C769 -19 751 -16 677 -57C659 -67 651 -60 665 -42C700 4 712 27 722 59C728 75 743 79 766 65C830 26 863 -40 884 -178C891 -227 896 -239 906 -250C922 -269 921 -274 870 -310C841 -331 834 -332 791 -320C774 -315 648 -294 537 -277C538 -295 538 -315 538 -333C580 -333 674 -347 729 -360C756 -366 759 -380 721 -394C713 -397 687 -394 538 -362Z"/>
</svg>