<svg xmlns="http://www.w3.org/2000/svg" viewBox="0 -1000 1000 1000">
	<path fill="#000000" d="M215 -334C216 -362 216 -389 216 -419C249 -421 287 -427 323 -435C356 -442 360 -435 364 -410C371 -367 381 -179 375 -121C373 -99 365 -92 315 -107C298 -112 294 -102 304 -94C329 -73 354 -44 361 -25C374 10 390 10 406 -17C427 -51 434 -81 427 -161C415 -298 418 -397 431 -420C441 -439 440 -451 403 -471C374 -486 358 -486 341 -477C314 -463 257 -450 199 -445C152 -463 144 -454 157 -430C168 -408 173 -374 171 -313C168 -214 156 -149 134 -110C123 -90 122 -63 130 -36C141 -4 157 -2 168 -27C178 -46 184 -66 190 -97C197 -131 202 -168 206 -209C246 -203 283 -206 323 -216C351 -224 347 -247 313 -251C293 -253 259 -250 209 -234C212 -267 213 -283 214 -310C251 -305 292 -307 328 -319C351 -328 344 -350 315 -352C298 -353 258 -346 215 -334ZM235 -525C287 -531 384 -547 408 -554C421 -557 423 -568 416 -578C411 -584 413 -595 420 -608C429 -625 439 -640 457 -652C475 -665 478 -678 431 -706C399 -724 377 -721 357 -711C326 -695 250 -681 171 -672C131 -682 129 -671 142 -653C158 -629 173 -599 201 -531C214 -500 230 -496 235 -525ZM203 -649C295 -663 309 -665 350 -673C377 -678 384 -673 379 -646C369 -585 363 -581 351 -578C275 -560 256 -556 232 -553C221 -595 214 -620 203 -649ZM533 -208C535 -236 523 -238 515 -219C508 -201 497 -183 482 -164C468 -143 466 -129 473 -110C480 -93 488 -93 497 -101C515 -118 529 -146 533 -208ZM626 -155C632 -181 626 -202 593 -219C577 -228 569 -223 574 -204C579 -187 584 -170 593 -148C599 -133 622 -136 626 -155ZM710 -175C713 -206 696 -222 660 -231C640 -236 637 -231 644 -218C656 -201 665 -186 677 -166C686 -152 708 -157 710 -175ZM799 -178C803 -211 793 -226 744 -244C722 -252 717 -245 726 -229C734 -213 759 -172 770 -160C779 -148 796 -155 799 -178ZM715 -495C699 -501 664 -499 625 -487C614 -484 605 -483 583 -482C583 -499 583 -509 582 -535C616 -535 672 -543 698 -553C718 -562 721 -574 707 -581C700 -585 683 -586 664 -579C651 -574 614 -566 582 -561C583 -581 583 -603 583 -618C609 -620 651 -626 722 -638C747 -642 753 -640 750 -617C745 -588 733 -537 727 -515C724 -506 719 -499 715 -495ZM582 -398C582 -413 582 -423 583 -449C676 -467 702 -471 710 -472C731 -449 738 -450 788 -558C803 -589 815 -608 831 -618C852 -634 853 -647 812 -672C779 -691 765 -690 745 -681C727 -672 661 -656 607 -646C691 -721 706 -732 719 -739C743 -749 741 -762 697 -786C659 -810 637 -796 642 -779C647 -759 628 -709 573 -640C514 -661 508 -649 520 -627C535 -598 543 -539 543 -493C543 -369 541 -328 536 -310C533 -298 535 -289 543 -266C551 -245 571 -241 574 -262C576 -275 578 -277 599 -280C660 -290 716 -296 800 -301C834 -303 853 -296 852 -257C851 -183 840 -120 830 -92C814 -50 801 -49 736 -74C719 -81 712 -73 722 -61C743 -37 766 -1 771 23C775 41 786 47 801 38C855 2 887 -51 899 -152C907 -223 914 -247 927 -266C945 -291 942 -299 901 -326C863 -350 848 -350 823 -345C768 -334 650 -314 579 -306C580 -319 581 -350 581 -375C639 -371 725 -381 778 -394C789 -397 787 -413 778 -417C752 -430 741 -429 697 -416C675 -411 614 -401 582 -398Z"/>
</svg>