<svg xmlns="http://www.w3.org/2000/svg" viewBox="0 -1000 1000 1000">
	<path fill="#000000" d="M557 -642C566 -670 555 -693 528 -712C516 -720 506 -716 506 -706C506 -692 511 -664 520 -647C533 -620 549 -619 557 -642ZM268 -626C280 -665 269 -684 234 -708C215 -721 203 -711 209 -693C218 -660 225 -646 236 -628C249 -609 264 -613 268 -626ZM470 -696C489 -704 492 -720 465 -742C450 -753 440 -751 440 -740C440 -727 422 -704 386 -676C378 -670 377 -660 390 -663C413 -670 429 -676 443 -684C455 -690 465 -695 470 -696ZM773 -719C794 -729 795 -739 749 -762C731 -773 716 -766 717 -752C718 -741 706 -720 662 -680C651 -670 657 -657 671 -664C694 -676 716 -688 746 -707C754 -712 768 -718 773 -719ZM222 -153C218 -165 202 -167 200 -148C197 -122 183 -92 173 -77C159 -55 157 -33 160 -17C166 15 189 17 202 -1C228 -36 237 -104 222 -153ZM366 -56C382 -80 379 -103 330 -136C317 -145 309 -142 313 -123C315 -108 326 -73 333 -61C344 -42 359 -44 366 -56ZM481 -69C501 -91 493 -129 443 -144C422 -154 417 -148 423 -136C430 -116 441 -94 454 -74C464 -60 471 -59 481 -69ZM626 -81C643 -121 624 -140 548 -160C534 -164 531 -160 538 -148C558 -116 574 -96 591 -77C604 -63 619 -64 626 -81ZM542 -342C529 -343 521 -342 495 -336C467 -329 396 -321 359 -319C359 -329 359 -341 359 -353C400 -355 464 -363 505 -372C532 -378 531 -393 513 -397C498 -401 476 -399 443 -390C403 -381 388 -378 359 -374C359 -388 359 -402 358 -414C416 -423 526 -437 544 -439C570 -442 572 -439 568 -415C565 -398 559 -376 551 -361C548 -353 545 -347 542 -342ZM358 -612C387 -584 418 -557 428 -552C439 -546 451 -548 453 -562C459 -596 423 -620 364 -630C369 -648 373 -669 376 -690C381 -722 385 -745 390 -757C395 -772 392 -778 352 -791C319 -801 308 -789 320 -773C336 -748 337 -728 331 -678C322 -607 308 -573 265 -520C242 -518 231 -517 222 -516C211 -553 195 -552 191 -535C188 -521 175 -493 162 -472C132 -421 128 -409 135 -385C142 -364 147 -361 164 -372C183 -386 211 -434 221 -489C271 -496 348 -504 426 -511C428 -495 416 -467 398 -444C382 -441 365 -439 347 -437C301 -457 291 -443 302 -429C315 -413 321 -352 320 -308C319 -261 318 -235 317 -214C316 -186 318 -166 323 -158C336 -137 348 -137 354 -158C356 -165 360 -167 378 -169C485 -182 561 -191 651 -199C701 -203 721 -194 719 -160C716 -113 713 -99 696 -55C684 -25 664 -21 599 -43C579 -51 573 -41 587 -31C614 -9 637 20 648 45C656 61 663 62 676 54C730 23 753 -1 772 -113C776 -137 787 -162 803 -175C817 -188 816 -203 768 -229C725 -251 709 -250 685 -241C661 -231 614 -223 358 -196C358 -206 358 -217 358 -230C400 -232 480 -239 580 -257C603 -261 607 -273 597 -282C589 -290 558 -289 482 -270C435 -259 403 -253 358 -249C358 -265 358 -280 359 -295C395 -299 495 -308 534 -312C560 -299 577 -309 614 -384C621 -397 630 -408 646 -421C663 -435 659 -442 624 -464C592 -483 576 -483 551 -474C533 -467 493 -457 434 -449C452 -467 461 -475 475 -482C491 -489 489 -498 463 -514C573 -524 681 -532 728 -534C775 -536 776 -526 725 -464C714 -450 725 -441 743 -450C797 -476 841 -484 867 -481C899 -478 907 -496 884 -518C825 -573 801 -577 783 -573C745 -564 708 -559 545 -546C588 -573 610 -599 624 -640C677 -610 709 -590 728 -579C739 -572 759 -578 753 -595C745 -624 722 -640 630 -659C634 -677 638 -695 641 -718C642 -728 648 -749 659 -767C664 -777 660 -789 630 -802C590 -821 577 -810 591 -789C603 -770 604 -738 596 -693C584 -625 563 -591 515 -544C443 -539 357 -531 298 -524C328 -550 347 -577 358 -612Z"/>
</svg>