<svg xmlns="http://www.w3.org/2000/svg" viewBox="0 -1000 1000 1000">
	<path fill="#000000" d="M606 -740C638 -746 641 -767 584 -796C542 -818 533 -817 529 -797C525 -777 438 -726 335 -685C296 -669 300 -658 337 -663C381 -669 456 -688 517 -713C532 -719 593 -738 606 -740ZM729 -650C750 -663 752 -675 702 -699C658 -721 650 -715 652 -692C654 -671 625 -617 575 -568C553 -547 562 -533 582 -545C608 -560 656 -594 674 -609C688 -621 721 -645 729 -650ZM519 -574C520 -603 498 -625 461 -641C437 -651 428 -644 439 -614C452 -580 462 -564 477 -549C493 -533 518 -541 519 -574ZM373 -555C371 -581 355 -600 309 -614C288 -620 284 -616 291 -594C302 -559 320 -530 331 -520C351 -502 376 -511 373 -555ZM880 -464C869 -479 834 -509 801 -527C784 -537 774 -539 750 -530C736 -525 699 -518 486 -486C310 -459 249 -450 209 -445C193 -486 178 -481 173 -459C166 -427 147 -378 136 -359C127 -343 124 -321 128 -300C134 -272 156 -272 173 -293C199 -327 213 -361 213 -417C255 -419 306 -426 365 -439C491 -464 661 -482 711 -481C752 -480 755 -475 748 -459C744 -450 727 -425 714 -407C704 -393 710 -388 727 -394C777 -416 814 -425 866 -432C889 -436 894 -445 880 -464ZM903 20C935 11 932 -2 898 -7C736 -32 632 -79 530 -150C550 -181 572 -225 587 -279C590 -291 612 -322 629 -336C652 -352 648 -367 601 -389C571 -402 553 -404 535 -391C510 -374 431 -354 334 -341C312 -338 306 -326 329 -316C361 -303 369 -303 425 -320C530 -352 540 -347 533 -308C525 -265 508 -219 487 -183C466 -199 440 -220 430 -230C395 -265 366 -283 339 -284C309 -285 311 -272 330 -261C356 -247 415 -201 465 -154C417 -104 315 -37 211 -15C175 -8 176 4 206 5C306 12 429 -51 502 -118C544 -79 594 -24 625 2C680 46 700 51 742 47C789 43 867 30 903 20Z"/>
</svg>