<svg xmlns="http://www.w3.org/2000/svg" viewBox="0 -1000 1000 1000">
	<path fill="#000000" d="M524 -192C526 -219 513 -222 506 -203C502 -193 488 -167 473 -147C457 -125 458 -109 464 -94C471 -76 478 -76 488 -85C508 -103 519 -127 524 -192ZM600 -138C606 -165 600 -186 567 -203C551 -211 544 -207 548 -188C551 -175 559 -155 567 -132C573 -115 596 -120 600 -138ZM688 -159C692 -190 674 -205 638 -214C618 -219 615 -214 623 -202C634 -184 643 -169 656 -149C665 -135 686 -140 688 -159ZM791 -162C796 -195 785 -209 737 -228C714 -236 710 -228 718 -212C735 -181 748 -160 763 -143C772 -132 788 -138 791 -162ZM716 -478C702 -484 674 -482 636 -471C627 -468 615 -467 594 -466C594 -482 594 -497 593 -518C626 -518 673 -526 699 -537C719 -546 722 -557 708 -565C701 -569 684 -570 665 -562C652 -557 618 -549 593 -545C594 -565 594 -586 594 -602C615 -605 653 -610 724 -621C748 -625 754 -623 751 -601C746 -572 734 -520 728 -499C725 -489 720 -482 716 -478ZM593 -381C593 -397 594 -418 594 -434C667 -448 687 -452 711 -455C736 -428 742 -429 794 -542C812 -581 820 -594 832 -602C854 -617 854 -630 813 -655C780 -675 766 -674 746 -664C726 -654 670 -640 619 -630C686 -698 709 -719 720 -724C744 -736 743 -751 700 -776C657 -800 643 -788 649 -766C657 -742 634 -693 582 -623H581C528 -644 516 -634 529 -611C541 -588 553 -524 553 -477C553 -328 550 -310 545 -294C542 -282 543 -274 553 -249C561 -229 582 -225 585 -245C588 -259 591 -261 610 -264C683 -275 725 -280 790 -284C824 -287 844 -279 843 -240C842 -174 832 -112 818 -77C803 -35 791 -32 727 -58C710 -65 702 -52 711 -40C741 -6 756 20 762 39C766 57 776 65 791 54C846 18 878 -34 889 -135C896 -195 905 -230 918 -249C934 -270 934 -283 891 -309C850 -334 838 -334 814 -329C759 -317 661 -298 590 -290C591 -303 592 -334 592 -359C639 -354 710 -361 779 -377C790 -380 788 -397 779 -401C753 -413 742 -412 698 -400C676 -395 622 -384 593 -381ZM284 -212C274 -218 267 -215 269 -202C273 -178 281 -157 288 -143C296 -129 315 -133 319 -153C324 -174 318 -190 284 -212ZM362 -233C350 -239 348 -236 351 -224C356 -198 360 -186 370 -168C379 -150 394 -154 398 -173C402 -195 397 -216 362 -233ZM442 -260C431 -267 420 -260 424 -246C428 -232 434 -219 454 -186C463 -169 481 -172 487 -192C493 -214 486 -235 442 -260ZM202 -210C202 -187 196 -161 187 -141C183 -132 183 -113 187 -92C189 -78 205 -79 216 -95C237 -127 240 -179 216 -213C206 -226 202 -224 202 -210ZM317 -398C341 -403 366 -408 389 -413C387 -387 385 -356 382 -320C366 -315 351 -311 321 -303C319 -341 317 -373 317 -398ZM205 -585C159 -610 141 -600 150 -580C159 -561 164 -471 148 -363C125 -214 83 -109 31 -39C10 -10 20 0 46 -23C118 -86 175 -215 199 -390C221 -382 239 -381 279 -389C283 -324 289 -285 295 -269C299 -259 314 -260 320 -275C351 -283 395 -294 420 -297C441 -300 443 -305 428 -320C424 -325 420 -327 416 -328C420 -366 422 -382 427 -420C458 -427 484 -431 500 -434C541 -441 541 -459 503 -472C489 -477 482 -477 432 -461C437 -499 441 -509 444 -515C453 -530 448 -542 392 -559C374 -565 368 -550 378 -535C387 -521 391 -496 390 -447C354 -438 340 -435 316 -428C316 -446 316 -458 318 -465C323 -485 319 -496 275 -507C248 -514 244 -501 254 -485C266 -467 273 -446 276 -419C247 -413 220 -408 201 -406C209 -453 213 -505 215 -557C264 -559 350 -573 464 -598C506 -607 504 -625 472 -634C448 -639 424 -637 396 -628C319 -605 249 -587 205 -585ZM289 -719C308 -698 333 -678 363 -655C383 -641 404 -655 398 -692C394 -719 366 -740 298 -741C278 -741 276 -731 289 -719Z"/>
</svg>