<svg xmlns="http://www.w3.org/2000/svg" viewBox="0 -1000 1000 1000">
	<path fill="#000000" d="M532 -638C552 -657 554 -670 494 -701C455 -721 443 -723 417 -712C389 -699 227 -660 144 -652C89 -671 89 -660 107 -630C118 -613 143 -550 157 -476C170 -413 179 -395 189 -395C196 -395 200 -398 202 -411C220 -417 246 -425 286 -433L283 -359C256 -352 220 -344 203 -341C180 -336 183 -323 210 -322C225 -321 251 -324 283 -328L281 -265C217 -250 173 -243 161 -243C131 -243 128 -232 152 -217C175 -202 181 -201 208 -210C249 -224 298 -238 385 -265C432 -279 441 -288 438 -294C434 -301 420 -298 316 -273L318 -335C348 -342 379 -351 403 -362C422 -371 423 -386 406 -391C395 -394 369 -387 319 -369L321 -440C383 -454 411 -455 418 -446C431 -428 446 -439 452 -450C470 -484 490 -535 510 -591C520 -620 527 -633 532 -638ZM882 -200C889 -242 887 -247 840 -269C794 -290 789 -280 806 -249C816 -230 820 -207 822 -171C779 -162 728 -150 680 -138L688 -352C720 -360 757 -369 805 -380C802 -343 804 -324 809 -318C823 -301 840 -308 856 -397C865 -441 874 -478 878 -486C889 -507 884 -515 848 -536C804 -563 787 -559 807 -516C812 -505 815 -460 808 -404C769 -397 729 -388 689 -380C695 -506 704 -668 711 -691C725 -735 722 -748 664 -765C613 -780 602 -769 621 -747C650 -713 654 -632 647 -371C607 -362 570 -354 548 -349C560 -431 555 -436 512 -460C495 -469 481 -453 494 -432C514 -401 512 -364 496 -343C484 -328 483 -316 489 -306C505 -279 507 -279 537 -297C560 -312 587 -324 646 -340L639 -129C595 -119 555 -110 533 -105C559 -203 556 -221 532 -236C512 -249 497 -239 507 -214C514 -196 512 -129 480 -106C461 -92 463 -86 480 -61C504 -28 508 -27 539 -50C557 -65 644 -97 823 -148C823 -133 823 -118 823 -100C822 -37 829 -13 839 -12C858 -10 872 -68 874 -114C876 -150 878 -174 882 -200ZM459 -157C459 -175 448 -199 423 -218C398 -235 391 -230 397 -205C403 -179 416 -147 426 -132C439 -114 458 -119 459 -157ZM359 -128C359 -143 346 -163 321 -185C303 -201 289 -197 296 -174C304 -148 320 -111 327 -101C341 -81 358 -85 359 -128ZM261 -106C262 -120 250 -143 231 -161C216 -175 204 -174 208 -148C212 -123 222 -91 228 -80C238 -61 259 -62 261 -106ZM143 -148C130 -179 123 -169 121 -142C120 -123 114 -99 106 -85C91 -58 89 -47 95 -23C105 22 117 24 137 -11C155 -43 164 -97 143 -148ZM463 -644C459 -596 444 -521 432 -492C429 -484 419 -476 411 -476C386 -476 355 -471 321 -464C321 -526 324 -583 326 -605C329 -638 330 -649 315 -661C368 -674 403 -679 416 -680C456 -683 465 -665 463 -644ZM286 -457C258 -450 229 -441 200 -433C178 -542 167 -597 157 -633C192 -634 243 -643 279 -652C286 -625 288 -595 286 -457ZM418 -589C432 -605 432 -607 406 -624C380 -640 373 -632 380 -613C382 -606 368 -561 354 -534C345 -516 353 -510 365 -525C387 -551 409 -578 418 -589ZM253 -526C256 -545 239 -568 217 -582C205 -589 201 -583 204 -572C211 -547 219 -524 228 -511C238 -496 250 -505 253 -526Z"/>
</svg>