<svg xmlns="http://www.w3.org/2000/svg" viewBox="0 -1000 1000 1000">
	<path fill="#000000" d="M722 -716C716 -748 698 -770 634 -775C603 -777 599 -768 614 -752C652 -711 670 -695 688 -682C706 -669 727 -691 722 -716ZM812 -638C790 -645 753 -641 689 -624C590 -598 572 -593 535 -590C518 -589 517 -575 533 -569C555 -561 573 -562 612 -567C677 -576 756 -591 783 -597C832 -608 840 -629 812 -638ZM510 -642C530 -664 527 -674 478 -695C432 -715 420 -715 395 -702C372 -690 224 -664 134 -653C90 -664 83 -656 100 -632C122 -602 143 -548 172 -445C184 -402 205 -408 207 -421C222 -427 240 -430 285 -439V-364C238 -350 222 -347 202 -343C188 -340 191 -324 212 -323C226 -322 252 -325 285 -332V-266C216 -250 166 -240 152 -240C117 -240 114 -232 138 -211C155 -196 173 -193 186 -201C214 -217 241 -226 371 -261C419 -274 427 -279 424 -285C419 -293 414 -298 318 -274V-340C339 -346 362 -352 384 -360C407 -368 408 -379 385 -385C374 -388 355 -385 318 -374V-445C400 -461 406 -461 410 -453C418 -436 423 -435 433 -448C451 -471 453 -476 478 -573C483 -593 502 -633 510 -642ZM613 -450C617 -471 608 -491 573 -509C548 -522 539 -521 545 -502C553 -476 565 -453 577 -435C591 -414 607 -422 613 -450ZM926 -416C892 -433 871 -435 844 -429C797 -418 743 -408 691 -401C713 -437 739 -479 763 -518C774 -536 773 -545 742 -560C712 -575 708 -573 708 -542C708 -505 693 -448 669 -398C558 -384 463 -374 436 -373C419 -372 415 -367 432 -354C450 -340 464 -337 484 -341C533 -350 617 -365 651 -370C785 -388 804 -386 890 -379C949 -374 960 -399 926 -416ZM456 -161C456 -185 427 -210 397 -215C381 -218 374 -212 388 -191C408 -160 414 -153 425 -140C441 -122 456 -130 456 -161ZM350 -131C352 -154 342 -172 316 -187C298 -197 283 -189 292 -171C305 -145 313 -129 319 -119C329 -102 348 -112 350 -131ZM249 -118C247 -129 230 -150 209 -162C201 -167 189 -163 195 -144C207 -104 211 -95 218 -86C233 -66 255 -88 249 -118ZM815 -249C826 -266 817 -280 779 -298C745 -315 733 -316 715 -308C681 -294 605 -280 527 -271C497 -283 481 -274 499 -250C517 -226 522 -112 515 -57C511 -26 524 22 538 22C549 22 556 18 558 -36C576 -35 597 -35 610 -37C635 -40 670 -44 684 -43C709 -41 713 -38 726 8C737 49 752 53 766 27C796 -28 804 -58 801 -136C799 -188 805 -234 815 -249ZM130 -136C119 -165 107 -166 103 -138C101 -123 90 -90 85 -75C78 -54 77 -47 80 -30C85 -2 104 10 120 -18C136 -46 145 -98 130 -136ZM433 -652C435 -617 428 -545 413 -490C411 -481 408 -480 393 -480C382 -480 357 -476 318 -467C318 -543 324 -594 333 -624C338 -640 338 -644 314 -662C351 -668 380 -672 392 -673C421 -675 432 -666 433 -652ZM285 -460C262 -455 234 -448 204 -440C179 -554 168 -600 153 -636C178 -637 207 -642 277 -655C284 -628 285 -588 285 -460ZM742 -231C750 -165 749 -86 741 -53C739 -46 726 -45 715 -58C701 -75 686 -77 639 -66C601 -57 588 -55 558 -53C559 -81 559 -117 557 -156C615 -147 635 -149 685 -163C709 -170 708 -183 682 -190C669 -194 648 -190 557 -167C556 -194 556 -224 552 -252C593 -261 681 -275 702 -275C728 -275 738 -263 742 -231ZM396 -571C409 -587 410 -592 392 -603C378 -612 366 -611 365 -595C364 -581 359 -562 349 -543C343 -532 346 -527 356 -534C377 -550 386 -558 396 -571ZM256 -532C254 -549 241 -562 218 -572C211 -575 201 -574 209 -556C217 -538 226 -526 234 -517C244 -506 257 -519 256 -532Z"/>
</svg>