<svg xmlns="http://www.w3.org/2000/svg" viewBox="0 -1000 1000 1000">
	<path fill="#000000" d="M607 -421C627 -447 635 -456 642 -464C657 -478 657 -485 614 -507C590 -519 577 -508 585 -489C593 -472 547 -389 502 -347C493 -339 496 -336 509 -341C540 -352 571 -377 593 -403C619 -380 637 -368 671 -348C687 -339 700 -353 696 -373C690 -401 669 -413 607 -421ZM733 -58C730 -42 727 -31 725 -26C714 -3 715 5 733 45C744 72 763 71 772 42C785 1 790 -19 807 -243C808 -264 813 -284 822 -297C836 -315 831 -332 764 -360C734 -372 722 -359 736 -339C749 -319 752 -298 752 -250C751 -198 744 -131 737 -83C702 -99 685 -97 626 -89C438 -62 330 -51 273 -49C262 -124 261 -192 271 -228C280 -257 266 -268 209 -284C171 -295 164 -277 193 -250C207 -237 220 -206 226 -142C231 -89 225 -52 210 -41C191 -29 191 -20 209 5C223 26 231 26 250 10C273 -10 490 -50 733 -58ZM399 -175C409 -184 421 -196 433 -208C451 -226 451 -234 421 -253C475 -261 518 -267 553 -271C559 -256 557 -240 551 -228C533 -186 509 -148 478 -122C462 -107 473 -98 490 -108C524 -128 561 -162 578 -184C595 -168 627 -144 660 -123C677 -111 692 -118 686 -144C681 -169 661 -183 630 -189C614 -192 602 -196 590 -202C599 -215 605 -224 611 -229C624 -240 623 -250 578 -273C612 -277 643 -280 679 -283C707 -285 707 -298 675 -314C661 -321 641 -321 577 -310C508 -298 333 -274 306 -273C291 -272 289 -269 301 -261C322 -246 335 -242 394 -250C377 -204 338 -153 291 -121C268 -105 272 -94 292 -101C325 -113 352 -131 389 -166C400 -150 419 -129 431 -116C455 -93 469 -104 463 -130C457 -156 443 -169 399 -175ZM393 -384C408 -361 430 -335 445 -321C462 -307 482 -328 474 -349C467 -369 459 -377 404 -398C415 -410 425 -424 436 -440C451 -461 450 -465 406 -486C386 -497 371 -488 379 -473C385 -464 383 -454 362 -415C338 -372 320 -349 280 -315C264 -302 266 -296 289 -304C329 -318 358 -340 393 -384ZM535 -656C574 -653 599 -655 676 -671C724 -680 724 -703 693 -711C672 -716 653 -716 635 -709C597 -693 569 -687 536 -685C538 -721 542 -741 546 -750C558 -776 556 -782 493 -801C454 -814 446 -801 464 -779C485 -754 494 -706 487 -553C432 -545 396 -540 370 -536C368 -613 368 -625 375 -643C383 -662 379 -676 333 -686C284 -697 271 -685 295 -660C317 -639 325 -607 330 -531C179 -510 156 -508 128 -509C96 -510 93 -503 120 -485C153 -464 171 -461 214 -471C322 -498 373 -507 555 -528C681 -544 750 -545 853 -537C904 -533 910 -548 877 -573C837 -602 820 -605 772 -598C717 -589 619 -574 533 -560C533 -599 534 -630 535 -656Z"/>
</svg>