<svg xmlns="http://www.w3.org/2000/svg" viewBox="0 -1000 1000 1000">
	<path fill="#000000" d="M288 -152C323 -183 332 -196 342 -215C357 -200 365 -188 377 -165C389 -146 408 -152 407 -176C406 -198 391 -214 347 -224C356 -243 363 -256 368 -262C377 -273 379 -284 351 -301C334 -310 327 -308 329 -291C332 -264 326 -231 280 -165C268 -180 257 -187 225 -196C244 -229 254 -247 260 -255C267 -263 265 -271 233 -296C304 -310 343 -317 377 -319C407 -321 406 -341 384 -349C369 -354 350 -354 332 -348C269 -327 231 -316 168 -308C150 -306 150 -299 162 -295C177 -289 194 -287 219 -293C219 -249 194 -176 147 -125C147 -195 150 -213 159 -238C165 -256 161 -266 113 -282C85 -293 74 -280 87 -266C103 -245 109 -231 112 -169C114 -101 112 -87 94 -75C83 -68 82 -52 99 -34C119 -14 132 -12 146 -24C171 -44 210 -57 412 -95C408 -72 409 -59 415 -31C419 -11 434 -10 443 -36C454 -64 457 -79 458 -95C466 -234 470 -267 478 -284C486 -301 478 -310 437 -332C415 -344 402 -336 415 -316C425 -300 428 -194 418 -124C291 -101 216 -90 148 -78C148 -89 148 -98 147 -106C178 -129 194 -147 216 -181C236 -167 244 -161 267 -131C278 -119 297 -129 288 -152ZM343 -607C385 -605 422 -610 450 -618C470 -624 470 -634 447 -645C428 -655 408 -655 344 -629C348 -682 351 -701 357 -714C370 -743 364 -752 313 -768C272 -782 264 -767 284 -743C300 -722 307 -705 300 -522C278 -518 253 -514 227 -510C225 -574 228 -593 237 -613C246 -630 239 -637 196 -651C156 -664 149 -654 170 -628C188 -607 193 -585 196 -505C122 -495 101 -492 79 -493C52 -495 51 -485 83 -467C110 -451 124 -450 158 -459C176 -465 193 -470 210 -473C209 -442 178 -386 119 -327C108 -315 114 -313 132 -324C156 -336 192 -367 209 -383C222 -372 240 -360 265 -344C281 -334 290 -344 285 -361C279 -382 269 -390 221 -399C245 -433 250 -441 258 -446C267 -452 266 -464 240 -481C278 -489 313 -497 347 -502C350 -470 335 -427 295 -371C284 -353 290 -349 306 -361C328 -376 341 -390 358 -414C377 -390 395 -373 407 -362C420 -351 439 -356 436 -376C431 -407 420 -417 367 -428C375 -442 388 -459 394 -468C404 -481 404 -487 374 -507C398 -510 421 -513 444 -516C489 -521 490 -536 468 -544C447 -551 424 -551 340 -531C340 -559 341 -586 343 -607ZM685 -366C682 -400 664 -415 597 -431C579 -435 574 -425 582 -411C601 -382 626 -355 645 -340C670 -321 688 -331 685 -366ZM640 -96C623 -104 602 -112 576 -122C554 -130 548 -124 561 -109C623 -39 651 -7 683 30C700 48 721 31 717 -5C713 -42 702 -63 662 -85C730 -178 759 -209 788 -228C804 -238 807 -248 765 -281C729 -310 714 -307 699 -294C669 -266 569 -236 515 -234C492 -233 488 -224 510 -209C539 -192 558 -194 585 -206C631 -228 666 -240 679 -245C699 -251 705 -246 699 -227C686 -194 665 -145 640 -96ZM636 -603C678 -536 726 -467 764 -414C796 -370 804 -367 928 -377C965 -380 962 -400 930 -409C825 -439 765 -487 645 -631C657 -670 668 -698 678 -716C690 -734 691 -745 656 -767C608 -797 589 -784 604 -753C610 -740 612 -714 601 -667C574 -541 518 -417 463 -344C447 -325 461 -321 476 -334C537 -385 592 -474 636 -603Z"/>
</svg>