<svg xmlns="http://www.w3.org/2000/svg" viewBox="0 -1000 1000 1000">
	<path fill="#000000" d="M753 -622C728 -632 697 -637 658 -624C563 -596 513 -585 460 -580C432 -577 428 -568 453 -557C484 -544 529 -543 581 -552C678 -569 710 -574 740 -578C794 -585 791 -607 753 -622ZM832 -344C863 -373 865 -379 825 -404C772 -440 760 -441 730 -432C700 -424 669 -419 620 -413C518 -400 459 -395 396 -391C412 -505 437 -649 453 -694C468 -734 458 -741 381 -777C359 -787 335 -778 360 -746C373 -728 382 -700 372 -614C351 -442 341 -402 308 -381C295 -373 300 -348 310 -334C322 -316 330 -316 357 -334C372 -344 411 -358 481 -368C583 -383 686 -390 717 -386C750 -382 755 -373 755 -351C755 -234 718 -116 687 -65C663 -24 643 -26 568 -57C543 -67 539 -62 560 -41C588 -11 609 21 625 47C638 69 656 74 671 63C718 29 734 4 764 -67C785 -118 794 -162 801 -217C811 -295 822 -335 832 -344ZM640 -244C610 -260 558 -265 523 -257C340 -216 193 -209 132 -215C110 -217 106 -208 127 -191C169 -159 178 -156 216 -165C361 -197 510 -213 579 -204C674 -192 669 -228 640 -244Z"/>
</svg>