<svg xmlns="http://www.w3.org/2000/svg" viewBox="0 -1000 1000 1000">
	<path fill="#000000" d="M411 -552C437 -580 436 -589 392 -616C347 -644 343 -644 309 -622C285 -608 211 -589 166 -593C101 -619 94 -604 115 -573C141 -534 148 -465 159 -295C161 -259 173 -236 187 -236C197 -236 205 -258 205 -340C245 -345 300 -355 357 -368C379 -374 388 -391 370 -407C361 -416 360 -422 367 -446C373 -464 404 -545 411 -552ZM717 -518C709 -525 691 -514 624 -457C478 -331 424 -292 403 -285C351 -272 350 -261 401 -238C446 -216 464 -219 496 -266C511 -287 617 -402 655 -442C720 -507 723 -513 717 -518ZM868 -585C895 -612 895 -622 843 -665C807 -695 791 -698 764 -682C722 -658 563 -632 511 -631C452 -630 452 -622 496 -596C519 -582 537 -583 617 -606C655 -617 714 -626 755 -630C785 -632 791 -629 793 -592C798 -511 765 -269 724 -171C702 -116 685 -116 604 -162C576 -177 571 -172 592 -145C614 -115 656 -48 665 -26C674 -3 684 1 713 -24C749 -57 769 -93 788 -148C799 -178 822 -306 828 -382C839 -521 846 -566 868 -585ZM333 -548C329 -506 318 -450 311 -426C303 -402 297 -396 204 -375C201 -464 198 -517 190 -561C223 -563 275 -571 289 -575C319 -583 336 -577 333 -548Z"/>
</svg>