<svg xmlns="http://www.w3.org/2000/svg" viewBox="0 -1000 1000 1000">
	<path fill="#000000" d="M257 -503C280 -538 303 -578 329 -625C343 -652 357 -670 375 -691C388 -706 388 -721 348 -751C303 -784 287 -775 297 -742C303 -723 279 -653 239 -576C188 -475 142 -409 61 -318C45 -300 52 -293 72 -304C121 -334 172 -381 233 -468C238 -440 239 -406 237 -341C233 -204 225 -147 215 -123C199 -85 200 -46 223 -8C241 24 259 23 265 -2C272 -30 279 -91 280 -160C282 -301 285 -380 288 -408C292 -442 281 -475 257 -503ZM889 -145C881 -186 841 -213 752 -234C727 -240 721 -233 736 -217C783 -168 811 -141 847 -108C878 -80 900 -97 889 -145ZM471 -232C459 -264 457 -263 453 -243C448 -225 423 -182 405 -163C381 -134 375 -116 379 -84C383 -61 387 -57 406 -69C427 -83 445 -105 460 -138C473 -166 479 -209 471 -232ZM851 -641C827 -656 798 -655 734 -642C605 -615 470 -593 410 -593C365 -593 362 -583 400 -564C427 -550 444 -552 498 -564C607 -587 711 -598 809 -596C892 -595 894 -614 851 -641ZM665 -710C666 -746 633 -771 570 -778C539 -782 533 -771 549 -752C570 -728 582 -715 616 -682C640 -659 664 -664 665 -710ZM523 -322C541 -324 570 -326 590 -327C598 -307 603 -279 605 -221C606 -180 605 -129 599 -91C595 -61 589 -58 533 -75C509 -83 501 -71 518 -58C543 -37 570 -8 578 14C589 43 598 45 617 25C651 -12 660 -40 657 -93C654 -129 653 -246 657 -262C664 -296 664 -303 623 -329C688 -333 716 -335 743 -339C771 -343 773 -353 754 -375C748 -382 751 -396 772 -417C791 -438 803 -449 809 -453C827 -466 821 -481 782 -504C737 -531 725 -531 701 -521C665 -508 541 -487 487 -485C436 -505 416 -488 437 -464C461 -436 467 -413 480 -333C490 -278 516 -276 523 -322ZM507 -454C603 -468 670 -476 680 -477C710 -479 722 -471 718 -452C705 -384 698 -379 677 -374C647 -367 594 -361 522 -354C519 -385 512 -424 507 -454Z"/>
</svg>