<svg xmlns="http://www.w3.org/2000/svg" viewBox="0 -1000 1000 1000">
	<path fill="#000000" d="M378 -669C389 -677 380 -695 341 -722C302 -751 283 -742 291 -718C302 -685 294 -655 243 -560C199 -475 125 -379 54 -307C37 -288 44 -280 63 -289C120 -326 174 -377 244 -474C253 -441 254 -412 252 -335C249 -230 240 -150 225 -117C212 -88 216 -37 231 -11C240 5 257 6 263 -10C272 -31 280 -70 282 -102C292 -233 296 -329 294 -386C292 -438 285 -471 263 -498C285 -530 309 -567 337 -615C354 -644 368 -661 378 -669ZM932 -257C899 -282 857 -284 809 -278C767 -271 716 -264 636 -255C636 -284 637 -295 639 -302C642 -312 639 -324 603 -344C688 -357 698 -356 709 -342C717 -332 728 -333 742 -350C752 -361 768 -386 779 -413C799 -462 815 -485 844 -508C858 -519 856 -525 813 -554C776 -575 771 -576 749 -572C726 -567 670 -556 619 -547L627 -648C666 -644 718 -646 763 -660C786 -667 789 -674 776 -687C764 -698 731 -700 718 -695C687 -683 664 -677 629 -672C631 -692 636 -715 641 -730C646 -745 641 -758 580 -774C550 -784 535 -772 553 -754C575 -729 580 -701 579 -538C511 -526 483 -523 461 -522C412 -542 402 -525 423 -503C439 -485 456 -428 477 -336C479 -325 490 -311 497 -311C502 -311 508 -318 509 -330C532 -335 550 -338 574 -341C581 -322 583 -297 585 -249C513 -239 407 -230 338 -225C313 -223 313 -214 330 -201C364 -178 375 -177 422 -191C448 -200 528 -213 586 -220C588 -165 587 -102 583 -27C581 9 582 56 588 73C593 91 602 92 611 71C632 18 638 -51 636 -225C742 -232 803 -232 895 -220C955 -212 961 -235 932 -257ZM748 -502C745 -480 734 -436 718 -388C713 -375 707 -374 694 -378C684 -381 642 -377 508 -351C504 -379 501 -398 498 -417C540 -420 581 -426 612 -432C635 -437 657 -440 667 -441C691 -445 688 -461 669 -470C656 -475 632 -474 604 -465C560 -451 531 -443 495 -435C490 -461 486 -478 481 -497C503 -500 532 -506 545 -509C621 -526 706 -535 731 -534C747 -533 752 -529 748 -502Z"/>
</svg>