<svg xmlns="http://www.w3.org/2000/svg" viewBox="0 -1000 1000 1000">
	<path fill="#000000" d="M241 -491C260 -519 274 -543 301 -590C343 -664 362 -693 378 -706C391 -716 392 -728 350 -760C307 -792 287 -782 297 -754C304 -733 294 -687 241 -593C177 -474 131 -412 52 -336C31 -316 41 -303 67 -320C136 -365 180 -406 224 -467C230 -446 233 -417 232 -371C228 -224 219 -129 206 -90C194 -53 195 -27 210 23C219 53 245 60 254 35C262 11 270 -64 272 -120C274 -356 275 -403 278 -437C279 -454 269 -475 241 -491ZM460 -377C479 -380 501 -383 524 -385C518 -355 482 -293 435 -240C385 -180 359 -158 318 -127C269 -91 273 -80 329 -104C374 -125 427 -164 477 -225C493 -159 489 -47 468 -29C442 -5 443 4 460 30C482 66 489 66 513 36C544 -1 618 -80 641 -101C656 -114 650 -120 639 -113C593 -88 559 -68 525 -46C524 -94 526 -193 531 -206C537 -225 529 -235 501 -256C522 -281 540 -306 549 -316C645 -204 694 -150 733 -111C788 -58 799 -56 945 -75C978 -79 977 -93 940 -101C820 -128 743 -176 671 -240C694 -250 707 -259 729 -275C745 -287 755 -294 793 -307C819 -316 821 -330 785 -356C748 -383 740 -379 739 -355C738 -336 715 -305 654 -256C629 -279 585 -318 567 -334C587 -353 585 -361 545 -388C590 -395 634 -400 662 -403C728 -411 730 -422 715 -438C707 -447 708 -472 755 -510C773 -524 773 -540 719 -562C687 -576 674 -574 649 -564C613 -548 496 -527 436 -522C397 -538 384 -526 397 -507C411 -488 424 -459 436 -398C441 -370 453 -365 460 -377ZM455 -502C521 -504 563 -509 591 -516C636 -527 652 -530 654 -530C671 -527 674 -523 670 -499C661 -449 658 -446 633 -436C626 -433 532 -418 469 -410C468 -441 463 -471 455 -502ZM642 -728C632 -761 600 -777 547 -777C521 -777 516 -771 534 -752C559 -724 587 -701 607 -689C627 -678 652 -697 642 -728ZM794 -678C768 -687 743 -686 709 -675C651 -656 464 -621 415 -616C371 -612 369 -598 408 -589C425 -586 455 -585 516 -598C527 -600 678 -623 763 -637C823 -646 827 -665 794 -678Z"/>
</svg>