<svg xmlns="http://www.w3.org/2000/svg" viewBox="0 -1000 1000 1000">
	<path fill="#000000" d="M241 -501C250 -516 255 -526 265 -548C308 -639 321 -660 341 -684C358 -703 358 -722 330 -741C275 -778 259 -766 269 -742C281 -714 269 -662 217 -558C170 -466 123 -395 67 -331C45 -305 56 -295 82 -314C136 -356 181 -403 220 -465C226 -436 227 -399 225 -341C220 -207 212 -139 198 -97C186 -57 190 -21 210 12C220 30 240 28 246 10C254 -22 259 -72 260 -153C263 -338 264 -383 270 -440C272 -462 269 -475 241 -501ZM851 -17C877 -27 870 -50 846 -58C808 -71 769 -97 732 -135C714 -153 702 -143 713 -125C731 -95 739 -80 748 -61C752 -53 752 -43 728 -43C647 -43 621 -46 584 -56C546 -66 510 -98 486 -144C472 -169 467 -174 462 -172C457 -170 452 -160 459 -137C482 -62 536 -12 615 2C692 15 777 13 851 -17ZM409 -200C405 -219 394 -218 387 -204C370 -168 362 -152 348 -126C336 -108 336 -97 343 -66C350 -41 359 -37 372 -49C384 -58 397 -85 407 -121C415 -146 416 -170 409 -200ZM654 -190C648 -214 613 -230 568 -234C543 -236 538 -228 556 -210C592 -174 606 -163 623 -156C643 -146 663 -156 654 -190ZM887 -175C881 -215 844 -243 760 -263C738 -268 732 -258 753 -237C772 -216 824 -169 845 -154C873 -133 893 -138 887 -175ZM643 -471C643 -499 632 -513 603 -524C584 -532 574 -526 583 -505C595 -478 604 -463 612 -455C630 -440 643 -444 643 -471ZM851 -569C868 -574 868 -587 819 -610C793 -622 783 -616 786 -592C787 -580 771 -557 736 -518C725 -506 730 -497 749 -507C762 -513 779 -524 803 -542C819 -554 837 -565 851 -569ZM705 -458C726 -427 738 -409 791 -335C824 -289 830 -283 953 -295C971 -297 970 -312 954 -317C853 -353 813 -383 710 -496C713 -524 716 -555 718 -586C721 -653 725 -688 730 -703C743 -738 741 -749 699 -766C645 -789 636 -770 663 -736C675 -720 679 -579 670 -510C658 -411 631 -349 544 -285C528 -273 533 -261 550 -268C642 -304 687 -375 705 -458ZM507 -551C509 -573 512 -593 514 -605C519 -621 513 -633 494 -645C506 -650 516 -655 528 -661C544 -671 565 -682 581 -688C602 -695 601 -711 559 -732C524 -751 513 -746 511 -723C510 -709 458 -663 379 -622C364 -614 364 -602 396 -609C413 -613 435 -620 458 -629C467 -607 471 -578 471 -540C424 -524 383 -516 333 -509C308 -506 304 -497 336 -478C353 -469 367 -469 386 -477C405 -485 427 -495 446 -502C425 -443 374 -373 320 -311C303 -294 312 -283 331 -297C398 -341 442 -393 470 -461C469 -392 465 -338 461 -324C452 -287 453 -268 462 -241C471 -217 489 -215 496 -238C501 -255 504 -276 505 -320C506 -358 507 -385 507 -448C516 -439 543 -412 559 -400C573 -388 590 -400 584 -423C579 -446 565 -456 524 -464C515 -466 510 -465 507 -464C507 -480 507 -499 507 -521C528 -526 547 -532 564 -534C603 -540 608 -552 599 -561C588 -573 571 -575 544 -565C532 -559 520 -555 507 -551Z"/>
</svg>