<svg xmlns="http://www.w3.org/2000/svg" viewBox="0 -1000 1000 1000">
	<path fill="#000000" d="M227 -508C251 -541 273 -577 296 -618C314 -650 331 -673 347 -686C363 -701 362 -720 319 -752C279 -782 261 -768 274 -738C286 -712 269 -669 213 -574C167 -498 127 -439 50 -364C32 -347 41 -338 60 -349C106 -374 155 -417 204 -478C212 -445 213 -410 211 -341C206 -231 198 -141 188 -105C176 -60 176 -26 196 9C211 34 229 32 238 3C246 -21 250 -73 251 -142C253 -309 256 -380 259 -408C264 -449 257 -479 227 -508ZM566 -192C576 -171 580 -139 580 -64C580 -23 568 -20 507 -38C491 -43 484 -33 500 -21C523 -3 531 6 562 59C569 71 581 71 595 61C626 36 637 1 630 -47C625 -80 627 -132 632 -161C634 -173 628 -184 615 -196C703 -203 734 -202 771 -197C822 -191 838 -212 813 -231C781 -255 753 -258 687 -243C627 -230 461 -212 379 -207C347 -205 347 -196 363 -182C385 -165 401 -165 428 -171C470 -180 512 -188 566 -192ZM744 -505C722 -513 678 -534 659 -544C643 -550 641 -544 648 -535C677 -499 673 -495 662 -493C632 -489 605 -489 583 -493C550 -500 521 -514 499 -543C486 -560 473 -554 482 -528C491 -504 521 -468 568 -458C619 -448 673 -451 740 -478C761 -486 760 -500 744 -505ZM456 -554C455 -572 443 -577 435 -558C427 -539 416 -517 408 -507C398 -492 394 -482 398 -467C403 -447 410 -447 425 -462C446 -484 458 -521 456 -554ZM768 -555C762 -583 728 -599 686 -596C674 -595 671 -590 681 -581C709 -556 722 -544 740 -535C759 -525 772 -537 768 -555ZM613 -552C619 -579 598 -605 545 -609C535 -610 531 -606 537 -598C545 -586 573 -551 579 -548C601 -537 610 -539 613 -552ZM652 -722C657 -763 627 -788 548 -789C537 -789 536 -785 543 -775C557 -756 595 -717 612 -705C630 -693 649 -693 652 -722ZM423 -622C447 -624 508 -629 521 -630C561 -636 680 -648 756 -655C778 -657 781 -643 760 -607C746 -584 755 -578 779 -591C813 -611 846 -621 867 -625C889 -629 894 -643 862 -670C816 -706 803 -706 774 -697C753 -691 717 -685 610 -671C521 -658 472 -652 424 -647C407 -681 399 -682 391 -658C379 -623 368 -602 356 -586C342 -569 341 -553 347 -535C352 -515 367 -514 376 -525C395 -549 408 -575 423 -622ZM610 -397C612 -380 611 -354 602 -315C590 -314 568 -312 543 -309C544 -340 540 -365 532 -387C555 -389 579 -393 610 -397ZM698 -324C677 -321 651 -319 629 -317C638 -342 650 -365 656 -370C663 -375 662 -382 639 -400C662 -402 681 -404 692 -405C718 -407 720 -405 716 -386C712 -369 704 -341 698 -324ZM444 -377C462 -379 482 -382 504 -384C504 -370 506 -359 509 -347C513 -335 514 -321 512 -306C494 -304 474 -302 456 -300C453 -318 447 -352 444 -377ZM424 -296C371 -290 319 -285 300 -285C270 -284 269 -271 302 -259C333 -248 342 -247 367 -252C419 -266 535 -282 612 -290C749 -298 844 -297 886 -291C927 -282 939 -304 916 -322C890 -345 851 -349 743 -331C759 -364 774 -380 795 -392C810 -400 810 -417 768 -437C744 -448 736 -448 705 -441C675 -434 488 -407 427 -401C382 -412 375 -401 388 -385C406 -359 421 -325 424 -296Z"/>
</svg>