<svg xmlns="http://www.w3.org/2000/svg" viewBox="0 -1000 1000 1000">
	<path fill="#000000" d="M457 -83C452 -111 436 -106 429 -73C425 -56 409 -33 398 -21C386 -5 382 4 377 23C372 47 409 57 428 33C451 6 464 -38 457 -83ZM602 -5C607 -33 602 -52 545 -76C530 -83 526 -79 531 -65C538 -41 560 -3 570 4C589 18 598 16 602 -5ZM936 -7C930 -47 896 -83 818 -99C789 -105 785 -100 806 -77C855 -23 869 -9 896 14C918 34 941 23 936 -7ZM740 -21C744 -50 730 -68 674 -92C656 -99 649 -95 657 -78C667 -56 681 -35 709 -7C719 3 737 -1 740 -21ZM545 -270C554 -305 551 -311 516 -325C490 -335 486 -330 493 -311C501 -287 506 -259 505 -234C504 -203 494 -177 479 -168C460 -157 457 -144 474 -125C492 -103 496 -102 515 -120C536 -137 589 -171 632 -195C648 -204 644 -212 628 -208C604 -203 546 -184 532 -176C533 -195 536 -218 539 -239C564 -241 593 -248 616 -261C637 -271 638 -276 627 -285C615 -294 597 -294 545 -270ZM710 -498C764 -508 778 -507 776 -486C774 -467 770 -454 761 -428C759 -420 753 -417 740 -420C736 -421 726 -420 701 -412C704 -450 707 -477 710 -498ZM663 -404C641 -400 613 -395 587 -389C587 -415 588 -446 588 -472C612 -477 640 -483 672 -489C670 -465 667 -436 663 -404ZM220 -453C231 -419 235 -376 233 -310C230 -213 217 -106 206 -81C194 -50 196 -11 218 28C225 42 240 42 249 27C259 10 268 -63 269 -137C270 -182 274 -396 275 -409C278 -437 272 -449 236 -478C245 -490 250 -499 266 -530C339 -667 348 -677 356 -681C374 -690 374 -712 340 -733C286 -768 274 -761 282 -736C291 -703 267 -637 223 -548C182 -465 110 -366 55 -307C38 -290 47 -282 76 -303C130 -342 178 -389 220 -453ZM667 -610C672 -596 675 -564 673 -517C648 -512 621 -506 589 -500C589 -517 589 -530 590 -535C593 -550 587 -557 560 -568C526 -580 520 -573 536 -550C543 -541 547 -525 549 -493C532 -490 513 -487 494 -484C473 -481 474 -476 488 -469C508 -457 524 -455 551 -462C553 -441 554 -416 555 -384C526 -379 502 -376 495 -375C466 -372 467 -360 497 -351C516 -346 528 -345 571 -356C591 -362 634 -373 643 -374C661 -359 667 -330 665 -244C663 -168 683 -144 766 -142C812 -141 871 -149 891 -160C911 -170 911 -176 904 -198C901 -207 890 -244 888 -267C886 -291 877 -294 872 -269C856 -198 849 -187 768 -183C705 -181 693 -200 701 -263C764 -279 809 -293 822 -297C846 -305 846 -314 828 -334C807 -356 800 -355 790 -338C785 -327 750 -299 702 -281C703 -300 704 -316 706 -330C709 -350 703 -356 658 -377C684 -383 711 -388 737 -392C753 -394 764 -393 770 -385C778 -378 787 -380 798 -395C806 -409 810 -420 819 -446C829 -471 835 -480 849 -492C863 -504 857 -517 827 -534C795 -551 789 -553 762 -540C756 -537 739 -533 714 -526C718 -546 721 -556 727 -568C735 -586 732 -590 682 -612C743 -622 773 -627 798 -631C853 -641 857 -661 832 -673C808 -683 783 -677 696 -653C599 -627 513 -616 454 -615C400 -644 395 -635 407 -596C416 -570 418 -507 384 -292C367 -189 327 -81 270 3C257 20 269 28 283 14C355 -52 401 -149 430 -307C444 -381 463 -513 467 -588C493 -584 529 -587 667 -610ZM671 -708C670 -747 647 -766 570 -770C542 -771 541 -760 555 -747C577 -725 616 -696 633 -686C656 -672 672 -680 671 -708Z"/>
</svg>