<svg xmlns="http://www.w3.org/2000/svg" viewBox="0 -1000 1000 1000">
	<path fill="#000000" d="M625 -548C652 -560 650 -573 625 -582C607 -588 578 -584 540 -574C493 -561 428 -549 402 -549C363 -549 362 -541 388 -525C409 -513 437 -512 516 -523C573 -531 604 -538 625 -548ZM833 -142C823 -315 809 -615 828 -648C851 -687 848 -692 799 -721C745 -752 731 -751 687 -735C678 -732 649 -727 618 -723C560 -716 363 -690 275 -679C210 -707 208 -698 227 -653C247 -601 233 -223 218 -176C197 -107 197 -93 206 -63C224 -3 248 -1 260 -62C268 -108 270 -128 272 -171C279 -315 285 -542 286 -654C417 -671 565 -686 644 -692C748 -701 753 -696 763 -608C770 -541 773 -262 768 -141C766 -77 752 -76 681 -96C650 -104 644 -97 684 -60C694 -50 725 -8 734 9C757 50 767 53 802 0C829 -44 837 -81 833 -142ZM645 -375C669 -392 668 -399 624 -421C579 -445 576 -446 536 -433C498 -422 443 -410 383 -405C338 -415 334 -409 358 -377C369 -361 389 -263 393 -220C394 -208 402 -193 410 -193C416 -193 428 -200 427 -235C476 -234 525 -238 598 -249C624 -253 624 -261 607 -276C602 -281 601 -300 607 -316C614 -337 639 -371 645 -375ZM566 -367C565 -348 562 -322 557 -301C552 -285 546 -279 528 -275C513 -271 469 -264 426 -259C423 -327 418 -363 408 -384C461 -392 528 -401 541 -402C564 -403 567 -401 566 -367Z"/>
</svg>