<svg xmlns="http://www.w3.org/2000/svg" viewBox="0 -1000 1000 1000">
	<path fill="#000000" d="M503 -655C485 -660 465 -660 410 -643C405 -641 396 -639 384 -637C393 -686 402 -724 404 -730C415 -758 410 -762 361 -781C320 -796 313 -784 331 -759C347 -736 349 -676 339 -628C294 -618 246 -611 218 -609C191 -607 191 -600 203 -594C219 -585 254 -581 327 -589C305 -532 265 -487 218 -446C195 -425 201 -418 235 -436C286 -464 329 -497 357 -548C382 -523 408 -498 421 -486C444 -464 466 -467 465 -500C464 -522 449 -534 362 -560C368 -571 373 -584 376 -596C410 -602 445 -609 466 -614C522 -627 518 -651 503 -655ZM662 -532C670 -558 659 -570 618 -582C587 -591 578 -577 594 -556C603 -545 610 -498 612 -450C614 -413 613 -383 605 -344C595 -295 598 -259 612 -240C624 -222 634 -223 641 -241C654 -274 660 -313 656 -380C653 -456 656 -516 662 -532ZM825 -692C841 -729 836 -742 772 -767C722 -786 713 -773 734 -749C748 -732 753 -702 757 -639C766 -501 771 -179 761 -101C754 -53 750 -51 682 -79C649 -92 642 -83 664 -63C698 -30 723 8 738 32C759 65 768 66 787 35C809 0 826 -58 823 -108C819 -170 815 -288 814 -350C809 -586 808 -653 825 -692ZM344 -290C353 -298 350 -308 320 -322C294 -334 289 -334 272 -325C262 -320 199 -305 164 -302C137 -312 133 -304 146 -286C151 -278 157 -260 162 -236C165 -221 174 -182 178 -172C187 -151 198 -150 203 -181C233 -186 287 -192 301 -193C336 -196 336 -212 313 -220C307 -222 309 -241 315 -251C324 -267 335 -282 344 -290ZM559 -443C535 -456 483 -459 440 -449C375 -433 306 -423 203 -413C166 -409 96 -405 76 -406C53 -407 48 -400 70 -381C96 -357 114 -356 180 -373C225 -386 332 -402 388 -406C401 -384 406 -357 408 -303C412 -207 406 -153 398 -102C392 -62 382 -55 322 -68C295 -73 292 -67 309 -54C343 -28 359 -12 372 13C381 31 395 32 407 18C440 -22 452 -60 450 -108C447 -187 448 -319 456 -345C463 -369 454 -388 416 -408C469 -413 495 -415 507 -414C581 -409 584 -429 559 -443ZM285 -278C279 -223 277 -219 263 -216C248 -213 227 -210 204 -208C199 -246 194 -267 187 -286C217 -288 237 -290 260 -296C280 -301 287 -295 285 -278Z"/>
</svg>