<svg xmlns="http://www.w3.org/2000/svg" viewBox="0 -1000 1000 1000">
	<path fill="#000000" d="M877 -475C898 -495 891 -518 828 -550C777 -576 762 -577 735 -569C713 -562 688 -559 619 -551C543 -542 421 -520 294 -497C348 -540 394 -580 441 -628C506 -694 523 -709 541 -721C565 -736 570 -750 504 -779C442 -807 428 -795 433 -768C437 -748 434 -723 396 -662C360 -602 310 -539 265 -492C243 -488 222 -484 202 -480C119 -503 102 -496 145 -451C159 -437 172 -392 179 -298C186 -210 188 -138 181 -109C177 -92 179 -70 190 -47C212 -1 227 0 240 -47C249 -79 247 -138 233 -270C230 -301 228 -337 227 -361C225 -394 221 -431 216 -457C266 -459 311 -467 374 -481C471 -502 595 -518 666 -520C756 -523 770 -514 777 -458C784 -405 777 -228 749 -121C737 -74 721 -69 645 -99C623 -108 613 -103 637 -77C660 -53 684 -9 697 23C710 55 723 58 760 20C782 -3 803 -38 815 -83C834 -154 836 -287 847 -377C854 -433 862 -461 877 -475ZM634 -330C654 -355 637 -368 595 -390C564 -406 547 -407 527 -398C484 -378 416 -368 359 -367C309 -389 300 -369 316 -347C334 -321 345 -261 355 -187C358 -164 369 -142 378 -142C387 -142 391 -151 393 -172C451 -176 517 -184 580 -197C599 -201 601 -211 583 -227C575 -235 573 -250 586 -269C597 -286 623 -317 634 -330ZM545 -329C540 -263 524 -239 510 -230C498 -222 483 -220 394 -202C392 -243 389 -298 384 -340C404 -339 425 -342 459 -349C519 -362 547 -354 545 -329Z"/>
</svg>