<svg xmlns="http://www.w3.org/2000/svg" viewBox="0 -1000 1000 1000">
	<path fill="#000000" d="M649 -387C663 -576 670 -618 680 -637C695 -662 688 -680 636 -711C603 -730 584 -718 603 -688C612 -675 621 -629 604 -341C575 -313 542 -287 510 -265C489 -250 497 -233 518 -243C546 -259 574 -276 602 -296C597 -172 611 -102 659 -68C709 -32 810 -35 876 -60C933 -81 941 -106 925 -146C921 -157 914 -195 912 -242C910 -278 902 -276 893 -240C879 -172 864 -137 824 -115C794 -98 713 -99 685 -113C653 -130 640 -204 646 -330C696 -371 742 -418 783 -472C809 -505 824 -522 844 -536C860 -547 863 -559 819 -594C784 -622 771 -614 774 -584C777 -554 726 -471 649 -387ZM453 -453C466 -479 488 -528 505 -573C520 -610 528 -630 538 -645C549 -662 549 -676 508 -702C466 -728 454 -715 463 -689C471 -667 463 -615 436 -542C403 -450 330 -314 257 -226C246 -212 252 -197 271 -212C335 -264 385 -328 428 -406C429 -395 430 -380 431 -362C438 -239 429 -135 416 -101C399 -60 405 -19 426 16C436 34 443 36 455 17C463 4 471 -38 472 -79C475 -183 474 -380 473 -399C472 -418 468 -434 453 -453ZM147 -508C159 -509 172 -512 190 -517C251 -537 268 -533 266 -503C260 -410 257 -406 235 -396C224 -390 198 -383 157 -374C156 -407 153 -450 147 -508ZM157 -345C214 -351 269 -360 304 -368C327 -374 325 -402 309 -408C297 -413 296 -417 303 -440C316 -478 324 -493 344 -522C356 -538 352 -551 310 -571C273 -588 260 -587 235 -570C204 -548 164 -538 130 -536C73 -561 67 -545 84 -512C98 -483 111 -424 118 -342C121 -308 134 -266 144 -266C154 -266 157 -276 157 -345Z"/>
</svg>