<svg xmlns="http://www.w3.org/2000/svg" viewBox="0 -1000 1000 1000">
	<path fill="#000000" d="M200 -367C196 -422 192 -449 182 -509C217 -513 254 -519 276 -524C324 -535 328 -532 324 -493C320 -455 318 -445 310 -420C303 -396 278 -385 200 -367ZM161 -541C101 -567 93 -547 119 -506C141 -471 153 -407 159 -317C161 -294 175 -253 186 -253C195 -253 204 -293 202 -333C260 -344 326 -356 356 -363C390 -370 389 -390 355 -412C368 -455 385 -489 402 -509C423 -533 422 -540 388 -559C336 -588 322 -585 301 -572C271 -552 212 -543 161 -541ZM478 -247C547 -260 665 -276 698 -277C753 -279 767 -268 763 -243C738 -110 726 -103 697 -95C663 -86 563 -71 506 -66C496 -129 485 -205 478 -247ZM642 -485C703 -477 774 -488 856 -519C882 -528 881 -543 851 -553C815 -566 787 -560 761 -550C715 -533 679 -521 642 -513C643 -574 650 -649 666 -687C680 -724 679 -729 606 -757C551 -778 541 -761 560 -733C590 -690 595 -641 588 -296C536 -286 484 -279 450 -277C387 -300 371 -280 395 -251C416 -226 443 -136 455 -43C461 5 480 34 490 34C503 34 512 8 511 -28C593 -30 767 -43 811 -50C834 -53 838 -77 809 -92C790 -102 788 -108 801 -136C820 -178 854 -228 874 -247C893 -267 891 -276 837 -313C786 -347 772 -346 743 -332C730 -326 691 -315 638 -305Z"/>
</svg>