<svg xmlns="http://www.w3.org/2000/svg" viewBox="0 -1000 1000 1000">
	<path fill="#000000" d="M170 -386C166 -432 161 -469 151 -522C171 -526 202 -533 224 -538C268 -547 275 -546 271 -507C268 -480 265 -466 258 -440C251 -416 246 -405 170 -386ZM131 -554C72 -580 63 -560 89 -519C109 -488 123 -429 129 -337C131 -313 147 -267 158 -267C167 -267 175 -311 172 -352C230 -364 278 -375 303 -382C336 -393 336 -410 302 -432C313 -466 325 -495 350 -522C370 -546 369 -554 335 -573C284 -602 269 -599 249 -585C219 -566 177 -556 131 -554ZM432 -593C426 -598 416 -600 400 -603C372 -608 364 -603 379 -578C387 -566 394 -541 401 -506C416 -435 429 -221 427 -165C426 -136 441 -104 455 -104C461 -104 469 -120 473 -150C502 -149 545 -153 581 -159C614 -164 644 -166 674 -166C700 -166 736 -135 738 -77C739 -43 756 -37 785 -67C832 -114 851 -189 873 -461C878 -522 882 -551 889 -561C915 -598 911 -607 845 -650C819 -668 799 -668 745 -652C711 -643 674 -634 613 -622C522 -605 494 -601 432 -593ZM570 -583C592 -586 612 -589 633 -592C646 -564 649 -504 646 -382C645 -331 666 -297 752 -314C790 -322 795 -341 781 -352C772 -360 760 -364 716 -360C696 -358 688 -361 686 -380C683 -410 683 -509 697 -540C705 -557 702 -571 658 -596C697 -603 730 -607 747 -609C794 -614 810 -608 813 -564C818 -479 804 -279 780 -197C765 -144 747 -145 724 -179C704 -207 675 -216 640 -211C593 -204 558 -199 475 -183C473 -260 459 -500 450 -565C476 -569 510 -574 546 -579C560 -535 551 -422 533 -371C521 -336 506 -309 492 -295C478 -281 484 -269 506 -283C544 -308 570 -343 575 -372C591 -452 602 -519 605 -525C613 -543 611 -557 570 -583Z"/>
</svg>