<svg xmlns="http://www.w3.org/2000/svg" viewBox="0 -1000 1000 1000">
	<path fill="#000000" d="M911 -565C886 -579 844 -583 822 -577C777 -565 721 -552 664 -541C667 -642 680 -731 686 -747C699 -780 699 -797 642 -812C577 -829 561 -818 597 -780C612 -765 621 -649 620 -532C541 -519 465 -509 415 -507C391 -506 392 -496 418 -483C437 -474 488 -473 515 -478C540 -483 578 -489 619 -494L617 -369C552 -358 486 -350 460 -351C435 -352 434 -335 465 -319C484 -310 498 -309 549 -321C611 -337 756 -351 797 -349C840 -347 851 -364 830 -385C818 -397 771 -400 745 -393C725 -388 694 -381 660 -375L663 -500C752 -511 845 -521 871 -520C938 -517 949 -544 911 -565ZM373 -509C397 -537 397 -540 352 -566C309 -591 293 -591 271 -578C238 -559 168 -541 122 -541C64 -559 59 -549 78 -522C100 -491 121 -393 126 -318C128 -284 145 -253 155 -253C165 -253 171 -270 171 -298C212 -303 274 -314 327 -326C347 -331 350 -343 329 -357C320 -363 318 -370 328 -405C339 -446 362 -496 373 -509ZM846 -202C836 -213 806 -231 783 -242C751 -255 731 -252 708 -244C639 -219 552 -203 501 -200C425 -231 415 -211 449 -173C463 -159 481 -83 486 -35C489 -6 498 27 510 27C519 27 527 16 528 -12C631 -22 736 -30 783 -30C821 -30 819 -54 779 -80C762 -91 819 -144 840 -162C855 -175 857 -190 846 -202ZM292 -512C291 -473 287 -424 279 -377C275 -354 260 -343 170 -328C159 -467 153 -492 136 -519C166 -519 200 -525 219 -530C270 -545 293 -543 292 -512ZM742 -172C735 -98 728 -80 711 -74C690 -67 595 -49 527 -45C524 -113 519 -145 506 -175C581 -184 645 -193 682 -200C730 -209 745 -199 742 -172Z"/>
</svg>