<svg xmlns="http://www.w3.org/2000/svg" viewBox="0 -1000 1000 1000">
	<path fill="#000000" d="M376 -516C406 -544 405 -554 353 -582C315 -603 306 -603 275 -584C255 -572 192 -556 141 -558C96 -575 89 -561 105 -539C129 -506 146 -428 155 -345C159 -298 170 -278 179 -278C190 -278 199 -296 196 -353C242 -358 278 -366 325 -380C345 -387 349 -398 335 -413C328 -422 328 -432 337 -457C346 -480 363 -505 376 -516ZM943 -515C906 -532 886 -533 815 -516C792 -511 721 -499 645 -486L652 -601C710 -612 761 -623 778 -632C805 -646 806 -660 780 -672C761 -679 726 -679 658 -657C665 -701 669 -719 677 -741C690 -776 685 -789 624 -814C574 -835 566 -818 589 -785C608 -758 611 -723 608 -643C571 -633 518 -621 509 -620C471 -617 468 -608 487 -597C501 -589 543 -584 606 -593L601 -479C517 -467 437 -457 414 -458C360 -461 356 -454 374 -436C390 -419 409 -413 460 -425C474 -428 489 -431 506 -435C526 -400 533 -337 515 -256C498 -176 443 -88 341 -28C314 -13 320 -4 343 -11C468 -53 553 -152 564 -266C570 -318 575 -360 577 -369C584 -397 583 -405 537 -440C572 -445 610 -450 650 -455C664 -433 671 -401 679 -273C681 -240 679 -165 675 -117C671 -70 662 -57 615 -67C581 -74 573 -68 598 -47C625 -24 643 -2 656 23C675 58 696 54 710 22C733 -35 733 -76 728 -117C717 -210 709 -351 719 -388C729 -425 725 -433 682 -458C763 -465 849 -468 928 -467C981 -466 987 -496 943 -515ZM917 -207C911 -259 867 -297 747 -312C712 -317 709 -312 739 -288C768 -264 819 -220 860 -185C897 -152 921 -165 917 -207ZM428 -292C422 -331 406 -329 398 -301C395 -290 379 -262 364 -243C332 -206 324 -187 327 -167C330 -145 341 -141 362 -154C408 -186 435 -237 428 -292ZM296 -517C294 -489 290 -462 286 -446C279 -409 271 -399 192 -385C187 -430 179 -486 174 -532C195 -531 213 -533 237 -540C281 -550 298 -546 296 -517Z"/>
</svg>