<svg xmlns="http://www.w3.org/2000/svg" viewBox="0 -1000 1000 1000">
	<path fill="#000000" d="M528 -189C561 -191 598 -196 654 -207C682 -212 712 -214 721 -213C744 -211 752 -204 746 -169C737 -118 733 -100 715 -96C668 -84 602 -73 547 -70C541 -119 535 -154 528 -189ZM550 -36C703 -49 768 -54 801 -56C831 -58 834 -79 810 -97C795 -108 794 -115 805 -135C818 -159 830 -174 841 -182C865 -200 864 -213 810 -245C770 -269 757 -270 715 -253C681 -241 591 -225 513 -218C454 -250 436 -235 455 -209C470 -188 498 -107 503 -58C510 9 519 19 531 18C540 17 551 -4 550 -36ZM558 -347C578 -388 597 -433 613 -482C657 -491 696 -497 708 -498C730 -499 732 -492 728 -468C718 -419 711 -392 702 -368C657 -361 606 -353 558 -347ZM579 -638C589 -600 588 -573 571 -506C534 -499 496 -495 478 -493C458 -492 453 -481 472 -472C498 -459 511 -461 549 -470C553 -471 557 -472 563 -473C549 -421 537 -382 516 -342C470 -336 429 -333 399 -332C378 -331 376 -325 397 -308C420 -290 436 -285 484 -300C542 -317 608 -326 665 -332C777 -345 823 -348 897 -345C951 -342 967 -359 921 -389C902 -402 878 -406 800 -387C786 -384 771 -381 753 -377C782 -454 795 -469 815 -483C832 -495 831 -512 780 -538C748 -554 738 -554 707 -537C698 -532 673 -524 625 -515C634 -541 647 -571 654 -583C665 -601 662 -609 613 -642C624 -643 635 -645 648 -647C714 -657 777 -675 800 -685C825 -696 824 -711 795 -721C769 -730 753 -728 690 -709C625 -689 554 -674 520 -672C499 -671 492 -657 519 -645C534 -638 554 -636 579 -638ZM203 -531C225 -526 245 -525 268 -527C275 -503 278 -422 278 -347C131 -319 106 -315 77 -316C43 -317 38 -308 67 -285C99 -261 113 -258 138 -269C178 -286 236 -303 276 -312C273 -198 269 -147 257 -106C234 -28 240 3 252 27C269 67 290 64 300 25C312 -18 318 -178 318 -322C361 -333 397 -341 422 -343C457 -346 465 -363 440 -375C423 -383 405 -381 370 -370C353 -364 336 -360 318 -355C319 -413 323 -454 333 -480C341 -506 332 -519 308 -535C356 -544 408 -560 424 -569C452 -583 450 -599 422 -604C397 -608 385 -606 343 -589C296 -571 260 -560 221 -557C278 -647 310 -686 321 -693C342 -710 335 -728 293 -750C251 -772 240 -764 245 -739C247 -726 237 -682 220 -647C181 -567 135 -503 98 -462C72 -433 80 -427 109 -446C143 -469 182 -505 203 -531Z"/>
</svg>