<svg xmlns="http://www.w3.org/2000/svg" viewBox="0 -1000 1000 1000">
	<path fill="#000000" d="M177 -399C173 -448 169 -478 157 -548C194 -554 225 -560 242 -564C290 -572 294 -572 290 -530C286 -486 284 -477 276 -452C269 -428 254 -417 177 -399ZM136 -577C78 -603 67 -583 93 -542C112 -513 127 -446 133 -349C136 -305 151 -281 162 -281C171 -281 182 -304 179 -365C271 -381 307 -389 327 -395C359 -403 361 -422 326 -444C348 -512 356 -530 371 -545C392 -565 390 -580 359 -598C310 -625 292 -623 267 -608C237 -588 185 -579 136 -577ZM488 -636C428 -668 409 -656 429 -623C452 -585 457 -471 425 -322C397 -192 323 -89 192 2C161 24 164 36 210 15C334 -41 444 -165 473 -303C477 -325 481 -345 486 -365C597 -200 659 -110 705 -46C745 10 757 16 936 -1C975 -5 973 -19 940 -29C775 -79 706 -134 492 -403C492 -405 492 -406 493 -407C516 -406 549 -410 577 -416C613 -424 672 -435 701 -439C740 -444 747 -462 706 -491C722 -547 746 -587 785 -620C804 -636 804 -651 749 -685C710 -709 702 -710 673 -690C639 -668 554 -643 488 -636ZM497 -441C505 -511 507 -568 504 -606C536 -608 567 -614 656 -638C684 -645 688 -641 684 -617C677 -578 668 -542 647 -479C577 -453 536 -443 497 -441Z"/>
</svg>