<svg xmlns="http://www.w3.org/2000/svg" viewBox="0 -1000 1000 1000">
	<path fill="#000000" d="M940 -382C761 -449 707 -493 572 -709C559 -730 534 -743 506 -748C477 -753 471 -733 489 -722C517 -706 528 -695 551 -660C613 -567 671 -479 709 -424C766 -345 775 -341 936 -353C976 -356 981 -367 940 -382ZM506 -506C518 -518 513 -537 472 -559C437 -577 424 -569 430 -544C436 -517 429 -480 391 -411C366 -366 331 -323 251 -250C223 -223 223 -214 262 -233C332 -266 424 -370 469 -446C489 -480 502 -502 506 -506ZM319 -486C340 -503 338 -516 300 -538C257 -562 250 -561 220 -543C188 -523 140 -509 107 -507C45 -538 35 -525 52 -499C67 -474 77 -406 83 -284C85 -250 95 -231 104 -231C114 -231 119 -242 122 -297C167 -302 204 -309 263 -322C283 -326 288 -336 273 -349C261 -359 260 -370 268 -396C283 -445 293 -465 319 -486ZM725 -301C747 -319 749 -327 698 -360C668 -379 656 -378 631 -365C603 -351 592 -347 538 -336C484 -324 444 -319 423 -318C396 -317 395 -304 417 -297C427 -293 450 -292 473 -293C469 -259 446 -203 399 -142C357 -88 321 -58 257 -17C228 1 236 9 268 1C353 -21 445 -106 498 -204C511 -228 521 -246 531 -259C540 -271 539 -284 515 -299C590 -311 608 -314 623 -315C644 -316 648 -308 646 -267C642 -191 623 -111 603 -71C588 -40 572 -38 516 -60C492 -70 487 -67 506 -41C529 -8 541 12 551 37C561 60 577 61 598 45C659 -2 683 -56 701 -196C712 -281 716 -293 725 -301ZM230 -473C226 -426 220 -398 212 -371C208 -358 191 -345 122 -328C123 -377 122 -426 119 -482C136 -482 150 -484 166 -488C224 -503 232 -498 230 -473Z"/>
</svg>