<svg xmlns="http://www.w3.org/2000/svg" viewBox="0 -1000 1000 1000">
	<path fill="#000000" d="M426 -732C362 -756 345 -742 366 -716C376 -704 391 -680 410 -622C425 -580 432 -560 437 -553C450 -536 460 -536 474 -555C573 -578 644 -581 653 -576C669 -568 679 -569 690 -583C698 -594 708 -614 730 -659C736 -673 748 -695 764 -710C787 -732 787 -742 720 -777C685 -795 668 -793 642 -780C614 -766 512 -742 426 -732ZM450 -658C446 -673 443 -687 439 -706C582 -732 618 -738 641 -738C682 -739 686 -733 676 -688C660 -616 644 -607 613 -607C607 -607 540 -595 498 -587C469 -582 466 -583 461 -606C459 -616 457 -626 455 -636C482 -634 510 -637 589 -654C632 -661 629 -679 609 -683C584 -688 573 -687 535 -677C501 -668 471 -661 450 -658ZM761 -57C757 -87 716 -122 639 -131C613 -134 611 -131 635 -107C669 -73 700 -47 727 -28C751 -10 765 -21 761 -57ZM471 -104C503 -127 494 -146 467 -130C406 -93 371 -77 354 -76C315 -74 307 -61 335 -39C366 -16 374 -15 387 -34C395 -47 408 -61 471 -104ZM583 -245C592 -267 590 -281 542 -302C507 -317 495 -302 512 -279C530 -257 536 -223 532 -113C529 -22 523 -15 466 -33C445 -40 440 -29 456 -17C487 8 502 30 512 57C518 69 536 71 557 41C577 10 581 -11 576 -108C572 -193 574 -221 583 -245ZM697 -217C714 -225 715 -243 687 -262C664 -278 653 -275 652 -258C651 -240 624 -207 600 -189C583 -175 591 -164 613 -175C652 -196 683 -211 697 -217ZM599 -462C596 -441 592 -417 587 -393C569 -389 518 -380 487 -375C487 -408 487 -428 487 -443C532 -451 569 -457 599 -462ZM661 -510C673 -547 667 -555 628 -567C603 -574 596 -571 606 -550C608 -545 608 -524 604 -495C567 -486 528 -479 486 -473C482 -511 470 -519 440 -522C411 -525 409 -520 427 -502C432 -497 437 -485 440 -468C428 -467 416 -466 402 -465C366 -462 364 -449 394 -440C410 -435 420 -433 446 -437C450 -417 453 -395 454 -370C386 -359 334 -351 313 -349C280 -346 279 -337 315 -324C332 -317 350 -316 415 -331C407 -276 309 -171 218 -112C181 -89 188 -75 230 -94C302 -125 361 -169 405 -221C421 -196 437 -173 444 -165C458 -145 489 -159 477 -197C472 -212 456 -226 420 -239C454 -283 462 -294 468 -298C484 -310 486 -321 461 -341C513 -351 549 -355 607 -361C701 -260 739 -224 779 -186C827 -140 835 -138 943 -156C991 -164 992 -175 940 -189C830 -217 760 -252 644 -364C672 -366 713 -368 755 -370C859 -375 859 -400 824 -411C779 -425 759 -424 717 -414C709 -412 661 -405 625 -399C635 -433 642 -455 647 -470C681 -476 701 -479 710 -481C778 -496 778 -509 752 -519C736 -525 721 -526 661 -510ZM145 -404C142 -450 137 -487 129 -539C146 -543 177 -549 200 -554C238 -562 244 -557 246 -522C248 -495 246 -481 235 -455C227 -434 214 -422 145 -404ZM100 -573C49 -601 39 -585 65 -542C80 -518 96 -456 103 -354C106 -328 121 -311 129 -311C137 -311 148 -338 147 -370C198 -381 238 -390 273 -398C314 -406 320 -425 281 -453C292 -490 304 -516 322 -538C342 -564 341 -573 314 -590C265 -621 256 -620 225 -604C177 -578 139 -568 100 -573Z"/>
</svg>