<svg xmlns="http://www.w3.org/2000/svg" viewBox="0 -1000 1000 1000">
	<path fill="#000000" d="M936 -136C892 -162 854 -167 764 -155C752 -153 703 -147 633 -142C648 -176 659 -209 677 -275C694 -338 707 -362 731 -384C749 -401 751 -416 694 -441C653 -458 637 -456 616 -440C608 -433 552 -422 488 -411C516 -508 526 -541 542 -569C551 -585 552 -599 502 -628C560 -635 705 -654 741 -661C777 -667 782 -688 749 -705C714 -724 684 -726 577 -696C505 -676 377 -657 331 -657C302 -657 298 -646 329 -629C363 -613 373 -611 464 -622C472 -580 461 -517 430 -402C362 -391 296 -383 280 -384C247 -386 242 -376 274 -357C305 -337 313 -338 420 -364C398 -289 367 -185 340 -116C136 -93 117 -92 101 -94C69 -97 64 -82 95 -60C134 -32 144 -32 217 -52C280 -69 399 -85 515 -92C615 -98 820 -92 889 -80C972 -66 992 -103 936 -136ZM629 -357C613 -270 594 -184 579 -138C485 -132 451 -128 390 -122C414 -188 446 -284 476 -374C532 -383 602 -393 624 -393C633 -393 635 -389 629 -357Z"/>
</svg>