<svg xmlns="http://www.w3.org/2000/svg" viewBox="0 -1000 1000 1000">
	<path fill="#000000" d="M881 -26C857 -46 820 -53 784 -51C748 -49 562 -38 504 -34L507 -115C547 -121 614 -128 638 -130C676 -134 675 -156 636 -166C621 -170 591 -167 508 -152L510 -214C598 -223 634 -227 668 -230C703 -235 705 -249 687 -260C673 -268 637 -273 623 -270C598 -264 554 -256 511 -250L514 -334C591 -341 668 -347 694 -348C705 -348 707 -355 702 -366C696 -378 699 -392 709 -402C718 -411 732 -418 746 -425C770 -437 770 -455 717 -480C675 -501 666 -502 636 -489C628 -486 594 -480 519 -472C526 -500 525 -515 489 -544C527 -548 568 -553 598 -556C619 -558 623 -566 606 -580C595 -589 595 -594 626 -666C694 -670 770 -671 805 -669C876 -665 882 -683 850 -705C822 -725 784 -728 741 -721C728 -719 679 -710 642 -704C655 -731 663 -744 678 -768C694 -793 690 -803 621 -830C587 -844 583 -834 590 -814C601 -782 602 -753 589 -695C544 -690 489 -684 431 -680C430 -704 430 -719 430 -725C431 -738 428 -749 412 -762C403 -769 370 -781 355 -782C336 -783 328 -767 341 -755C364 -733 374 -712 381 -676C281 -668 189 -662 169 -663C143 -665 140 -654 164 -639C197 -617 212 -615 268 -627C300 -634 323 -639 387 -645C393 -610 399 -581 405 -556C409 -539 415 -530 422 -530C428 -530 433 -532 436 -537C442 -538 448 -539 456 -540C464 -520 469 -494 470 -467C423 -462 366 -457 294 -452C251 -464 245 -449 264 -430C275 -419 289 -392 318 -328C336 -289 355 -292 357 -319C384 -322 424 -326 468 -329L467 -244C400 -237 322 -230 305 -231C286 -233 276 -221 295 -210C303 -205 337 -200 363 -202C393 -204 432 -207 467 -210L466 -145C429 -142 349 -134 323 -134C301 -134 299 -121 321 -111C340 -102 404 -103 465 -110L464 -30C227 -12 136 -8 123 -9C97 -10 95 2 122 18C157 38 168 41 214 32C270 21 382 8 483 3C600 -3 677 0 839 22C909 32 924 10 881 -26ZM581 -662C564 -599 559 -588 543 -584C515 -577 479 -568 438 -562C436 -595 434 -624 433 -650C471 -653 518 -657 581 -662ZM651 -409C644 -374 641 -368 514 -361C515 -390 516 -422 518 -448C564 -452 603 -455 625 -456C652 -457 659 -446 651 -409ZM470 -444C470 -427 469 -385 468 -357C435 -354 383 -348 353 -345C348 -368 336 -400 326 -429C366 -435 418 -440 470 -444Z"/>
</svg>