<svg xmlns="http://www.w3.org/2000/svg" viewBox="0 -1000 1000 1000">
	<path fill="#000000" d="M682 -743C677 -783 655 -797 579 -798C548 -798 541 -790 565 -774C586 -758 632 -729 643 -724C669 -713 685 -725 682 -743ZM341 -356C337 -360 313 -355 245 -319L251 -472C286 -480 306 -486 328 -493C358 -502 351 -525 308 -525C302 -525 286 -522 253 -513C258 -613 265 -668 275 -685C287 -706 286 -716 238 -744C184 -777 175 -763 191 -734C211 -699 221 -621 217 -502C192 -494 161 -486 124 -474C93 -464 96 -454 126 -451C144 -448 162 -449 215 -463L208 -298C141 -261 102 -249 75 -247C46 -245 46 -241 82 -210C107 -189 123 -189 135 -198C188 -242 244 -285 316 -332C343 -350 345 -354 341 -356ZM909 -516C891 -527 874 -530 849 -524C839 -522 808 -515 765 -507C772 -529 779 -546 791 -555C812 -573 808 -577 775 -588C742 -599 737 -600 712 -587C702 -582 692 -578 637 -565C639 -579 641 -589 643 -593C649 -608 647 -611 597 -636C673 -652 717 -662 800 -678C831 -684 833 -694 811 -704C791 -712 752 -711 735 -705C642 -675 521 -643 452 -634C392 -658 390 -654 397 -620C408 -569 403 -497 368 -350C332 -199 281 -91 206 9C188 33 198 36 221 16C324 -75 369 -174 425 -434C445 -421 465 -419 478 -423C506 -432 552 -440 600 -450C600 -429 601 -412 601 -390C579 -386 556 -381 532 -376C518 -373 492 -368 476 -366C460 -364 456 -350 474 -346C485 -343 497 -344 522 -348C543 -352 572 -358 601 -364C601 -344 601 -329 600 -307C572 -302 537 -297 495 -291C462 -313 457 -306 462 -289C467 -268 466 -230 460 -153C456 -104 450 -75 436 -49C431 -38 433 -24 441 9C449 38 466 31 474 -3C486 -58 495 -144 499 -264C526 -270 563 -278 600 -284C600 -263 599 -249 598 -227C583 -223 565 -217 543 -209C521 -201 526 -193 542 -192C554 -191 572 -193 597 -198C597 -179 596 -160 595 -139C579 -135 559 -129 535 -122C520 -117 520 -103 540 -103C549 -103 570 -106 594 -111C593 -94 592 -75 591 -56C590 -40 593 -19 600 0C606 17 620 9 623 -56C624 -78 625 -99 626 -117C654 -123 681 -129 691 -133C724 -145 722 -151 688 -156C677 -158 661 -156 627 -148C628 -166 628 -186 628 -204C647 -209 668 -215 692 -223C715 -230 708 -242 686 -244C672 -246 660 -245 628 -236C629 -254 630 -267 630 -290C675 -296 713 -301 726 -301C753 -301 758 -299 762 -268C773 -177 771 -80 765 -54C760 -35 746 -32 710 -45C681 -55 680 -50 701 -26C717 -7 737 21 746 36C763 64 776 61 791 35C821 -18 821 -40 811 -165C805 -242 807 -275 824 -293C835 -304 832 -315 802 -330C775 -344 755 -347 739 -340C723 -331 700 -325 630 -312C631 -332 632 -347 632 -369C691 -381 748 -391 758 -392C779 -395 781 -413 770 -419C758 -426 753 -438 754 -447C755 -458 757 -467 759 -479C801 -483 868 -484 883 -483C930 -481 935 -501 909 -516ZM599 -473C488 -450 469 -446 428 -444C436 -482 446 -543 456 -610C477 -607 494 -609 515 -615C541 -621 563 -627 582 -632C592 -607 596 -591 598 -554C553 -543 535 -542 511 -539C493 -537 492 -530 508 -521C516 -517 536 -515 546 -517C563 -521 580 -526 599 -531C599 -514 599 -495 599 -473ZM728 -499C700 -493 667 -486 633 -480C634 -504 634 -524 636 -542C673 -550 704 -559 716 -563C735 -570 738 -566 728 -499ZM726 -475C720 -423 716 -423 699 -417C685 -412 662 -405 632 -397C632 -417 633 -435 633 -457C668 -464 700 -471 726 -475Z"/>
</svg>