<svg xmlns="http://www.w3.org/2000/svg" viewBox="0 -1000 1000 1000">
	<path fill="#000000" d="M333 -539C353 -558 351 -563 311 -587C271 -611 262 -612 233 -599C197 -582 161 -570 128 -573C73 -604 59 -590 75 -563C97 -524 110 -417 108 -342C107 -316 121 -289 130 -289C140 -289 147 -304 151 -344C190 -346 232 -351 274 -357C292 -360 296 -372 282 -386C275 -393 277 -407 289 -447C306 -502 318 -524 333 -539ZM616 -470C628 -481 628 -491 587 -516C559 -533 541 -536 529 -529C493 -511 469 -505 429 -505C390 -526 379 -516 388 -492C399 -464 405 -398 408 -325C409 -301 417 -287 423 -287C431 -287 440 -298 443 -320C483 -319 518 -323 570 -334C591 -338 592 -351 580 -360C567 -370 565 -380 570 -392C585 -428 601 -456 616 -470ZM917 -685C876 -708 842 -712 773 -700C628 -675 447 -652 319 -646C294 -645 292 -641 313 -625C342 -604 369 -603 405 -611C427 -616 606 -639 673 -645C691 -613 698 -580 702 -510C708 -386 708 -207 692 -127C684 -88 679 -83 598 -107C580 -112 577 -105 589 -92C624 -54 644 -23 666 15C676 33 690 33 712 11C750 -27 766 -91 762 -184C750 -476 749 -555 756 -576C764 -596 760 -619 714 -647C759 -649 825 -648 856 -646C941 -639 948 -667 917 -685ZM252 -529C249 -488 242 -439 236 -407C233 -393 223 -383 151 -372C149 -416 146 -497 144 -546C168 -547 196 -551 223 -557C245 -562 255 -556 252 -529ZM539 -469C537 -438 532 -406 527 -384C523 -363 518 -358 444 -348C446 -384 444 -443 440 -480C463 -481 484 -484 511 -490C532 -494 540 -482 539 -469Z"/>
</svg>