<svg xmlns="http://www.w3.org/2000/svg" viewBox="0 -1000 1000 1000">
	<path fill="#000000" d="M978 -486C948 -513 902 -513 838 -496C808 -488 751 -475 690 -462L691 -530C720 -537 748 -542 773 -547C801 -552 804 -568 793 -575C780 -583 767 -585 738 -576C723 -571 708 -567 692 -563L693 -624C733 -633 771 -640 818 -648C850 -653 854 -666 841 -676C827 -687 786 -687 769 -682C745 -675 720 -668 694 -661C697 -689 706 -731 711 -742C723 -767 717 -780 673 -798C623 -819 612 -806 636 -774C647 -759 652 -709 652 -651C612 -641 571 -630 532 -622C505 -616 512 -603 539 -602C562 -601 600 -605 652 -615V-553C621 -547 587 -540 549 -532C531 -529 530 -514 553 -513C579 -511 615 -515 653 -522V-455C539 -431 477 -420 445 -418C419 -416 417 -405 446 -394C465 -387 471 -387 503 -396C637 -437 824 -464 917 -456C985 -450 996 -470 978 -486ZM426 -450C438 -470 435 -481 394 -506C373 -519 364 -515 367 -496C369 -484 369 -468 368 -448L294 -428C343 -650 352 -681 358 -690C369 -710 368 -718 357 -728C340 -743 323 -753 301 -762C278 -772 267 -766 273 -751C293 -699 293 -634 256 -419C164 -397 109 -391 78 -394C35 -398 32 -385 65 -356C95 -328 99 -327 137 -346C157 -355 198 -371 250 -388C245 -362 240 -335 235 -305C229 -275 232 -267 252 -251C264 -242 279 -227 294 -212C263 -162 204 -111 150 -80C110 -56 115 -49 154 -61C214 -80 276 -120 320 -183C344 -156 369 -126 384 -105C401 -81 421 -88 423 -118C425 -147 394 -187 345 -224C370 -273 400 -360 407 -398C410 -415 417 -435 426 -450ZM836 -35C825 -142 819 -199 817 -237C814 -303 816 -318 822 -331C832 -354 831 -360 792 -386C765 -404 749 -406 732 -395C695 -371 646 -359 604 -356C557 -380 543 -370 558 -336C569 -307 562 -133 534 -67C520 -34 521 -25 530 8C536 29 551 27 561 12C574 -10 582 -48 591 -144C623 -140 647 -141 697 -154C727 -162 719 -175 697 -180C684 -183 651 -176 592 -158C594 -181 596 -208 598 -239C630 -236 660 -241 687 -251C709 -259 705 -275 686 -276C672 -277 655 -273 599 -256C603 -301 604 -319 600 -341C626 -338 639 -339 679 -349C746 -366 755 -361 763 -288C777 -142 778 -115 774 -44C773 -22 767 -18 717 -22C697 -24 696 -21 713 -2C734 21 752 48 768 76C778 93 790 94 804 75C825 46 840 2 836 -35ZM365 -423C358 -374 340 -310 311 -247C298 -255 285 -263 271 -270C262 -275 261 -279 264 -294C272 -331 280 -368 287 -399Z"/>
</svg>