<svg xmlns="http://www.w3.org/2000/svg" viewBox="0 -1000 1000 1000">
	<path fill="#000000" d="M359 -555C387 -588 389 -593 334 -618C289 -639 282 -638 256 -622C206 -593 166 -578 114 -580C64 -593 64 -579 76 -561C95 -533 111 -446 123 -348C128 -309 138 -298 149 -298C160 -298 164 -307 162 -361C211 -369 259 -381 312 -398C341 -407 342 -423 322 -433C313 -439 312 -441 317 -462C322 -482 349 -544 359 -555ZM896 -608C923 -635 923 -641 892 -664C874 -677 843 -697 824 -707C798 -721 783 -722 755 -708C703 -680 552 -653 443 -651C377 -677 375 -670 390 -634C406 -599 437 -491 448 -396C458 -321 465 -293 478 -292C488 -291 493 -299 492 -327C524 -332 562 -338 599 -342C599 -221 598 -97 597 -83C595 -6 594 28 597 52C604 105 613 107 631 47C635 33 640 -17 642 -71C645 -159 647 -255 647 -347C676 -350 702 -353 723 -354C741 -355 747 -355 749 -336C752 -312 768 -302 796 -340C808 -356 819 -378 833 -431C863 -541 881 -593 896 -608ZM805 -629C805 -580 785 -474 767 -407C759 -379 751 -376 722 -384C716 -386 691 -384 647 -379C647 -420 646 -459 645 -494C668 -498 694 -503 725 -510C748 -515 750 -532 722 -541C712 -543 701 -545 645 -533C644 -555 645 -569 646 -586C649 -623 645 -639 638 -650C682 -659 730 -666 752 -667C793 -668 805 -663 805 -629ZM599 -373C569 -368 532 -363 492 -356C487 -447 477 -552 458 -625C500 -628 552 -634 586 -640C594 -627 596 -604 598 -523C581 -519 561 -515 538 -510C516 -505 515 -498 534 -491C547 -486 567 -485 598 -488C599 -456 599 -415 599 -373ZM285 -551C283 -511 279 -479 269 -445C265 -430 246 -417 161 -395C159 -450 151 -514 144 -556C167 -559 186 -564 206 -569C269 -587 287 -581 285 -551Z"/>
</svg>