<svg xmlns="http://www.w3.org/2000/svg" viewBox="0 -1000 1000 1000">
	<path fill="#000000" d="M713 -606C690 -602 666 -598 641 -592C640 -642 641 -667 644 -674C650 -689 648 -705 610 -721C561 -743 549 -733 572 -698C593 -668 600 -637 602 -586C576 -583 553 -580 533 -576C535 -627 531 -634 492 -653C450 -675 433 -654 464 -622C478 -607 482 -598 488 -569C460 -565 441 -561 428 -560C386 -556 386 -550 416 -535C438 -522 451 -524 492 -535C498 -481 494 -418 482 -404C468 -385 466 -376 481 -360C495 -345 500 -344 531 -363C538 -367 562 -372 593 -377C602 -352 609 -321 611 -304C495 -287 452 -282 419 -282C381 -282 378 -271 410 -253C432 -241 444 -238 496 -250C516 -256 539 -260 563 -264C524 -183 434 -95 352 -40C323 -22 328 -9 358 -21C464 -61 563 -155 613 -260C613 -241 613 -218 612 -191C610 -101 608 -81 597 -28C589 10 589 33 604 58C622 85 637 81 644 57C654 16 657 -19 654 -159C653 -195 653 -224 653 -246C714 -170 731 -149 766 -105C807 -54 814 -50 938 -64C974 -68 974 -79 938 -91C839 -121 771 -167 664 -277C742 -285 811 -287 846 -284C921 -277 927 -298 887 -327C865 -343 846 -342 789 -330C782 -329 715 -318 657 -310C658 -317 659 -322 661 -327C670 -349 668 -362 632 -382C681 -388 739 -393 778 -390C827 -388 831 -411 805 -428C791 -437 763 -439 718 -431C648 -418 584 -407 533 -397C532 -453 532 -507 532 -543C557 -548 581 -552 603 -555C604 -536 607 -511 611 -475C612 -462 622 -446 628 -446C635 -446 643 -455 645 -468C684 -474 719 -481 750 -488C767 -491 769 -499 743 -521C740 -524 740 -542 746 -575C780 -579 799 -580 827 -581C912 -583 917 -602 898 -616C871 -637 850 -637 809 -627C791 -623 773 -619 753 -614C762 -654 773 -695 782 -711C801 -741 800 -755 747 -779C706 -797 700 -786 716 -758C728 -739 726 -692 713 -606ZM645 -496C644 -520 643 -542 642 -560C668 -565 690 -568 708 -570C706 -556 704 -543 701 -527C698 -513 696 -508 645 -496ZM341 -446C335 -398 315 -334 276 -252C261 -263 242 -273 222 -282C214 -286 213 -291 215 -300C225 -342 235 -385 241 -413C271 -423 305 -435 341 -446ZM201 -399C196 -375 191 -349 185 -321C179 -293 182 -280 203 -263C219 -250 237 -234 256 -215C224 -172 170 -126 114 -90C74 -64 80 -52 117 -65C185 -90 242 -130 285 -183C305 -161 323 -136 333 -114C350 -79 373 -86 376 -130C378 -158 358 -192 315 -227C349 -285 375 -363 386 -420C390 -443 396 -470 401 -476C416 -493 412 -509 374 -535C339 -558 330 -546 338 -520C342 -507 344 -490 343 -472C308 -463 278 -454 250 -447C289 -607 305 -657 319 -674C332 -691 326 -706 315 -716C298 -730 283 -743 260 -753C235 -764 226 -754 240 -726C255 -697 252 -644 210 -438C127 -417 92 -412 67 -414C28 -418 25 -413 56 -380C81 -353 92 -354 129 -370C146 -376 170 -386 201 -399Z"/>
</svg>