<svg xmlns="http://www.w3.org/2000/svg" viewBox="0 -1000 1000 1000">
	<path fill="#000000" d="M664 -620C674 -607 678 -583 677 -546C676 -475 668 -449 661 -440C653 -431 656 -422 670 -416C687 -408 695 -410 698 -415C706 -425 745 -434 775 -435C793 -435 797 -431 796 -413C794 -383 791 -366 785 -335C782 -318 772 -307 713 -297C707 -301 698 -304 684 -306C660 -310 658 -299 667 -283C683 -256 688 -177 678 -97C648 -94 619 -91 591 -88C590 -221 596 -252 603 -263C611 -273 610 -286 585 -297C567 -305 561 -305 548 -298C519 -279 506 -276 477 -273C475 -310 475 -347 474 -385C485 -387 534 -397 574 -405C601 -411 604 -421 583 -440C585 -505 591 -552 594 -562C599 -578 599 -584 571 -608C592 -610 651 -618 664 -620ZM530 -604C545 -577 547 -553 546 -436C518 -427 486 -419 461 -415C455 -419 447 -421 436 -423C413 -428 401 -419 413 -403C430 -381 446 -286 434 -266C427 -253 427 -246 440 -235C452 -225 458 -226 468 -233C480 -242 508 -250 534 -255C547 -257 551 -255 551 -233C551 -147 551 -119 548 -84C481 -76 425 -70 394 -68C376 -67 361 -68 349 -70C330 -72 325 -58 351 -42C385 -22 400 -21 458 -34C493 -42 569 -55 677 -59C751 -62 878 -58 918 -51C965 -40 973 -64 942 -90C914 -112 898 -119 848 -114C809 -110 767 -106 725 -102C728 -162 728 -223 726 -267C763 -274 813 -282 828 -283C848 -284 854 -299 837 -314C825 -325 828 -346 844 -373C859 -399 872 -411 886 -419C901 -428 903 -443 855 -471C822 -490 811 -488 801 -482C781 -471 743 -458 714 -458C718 -534 720 -560 728 -578C735 -595 732 -608 708 -627C744 -635 773 -641 789 -644C846 -655 848 -670 825 -683C797 -699 769 -694 712 -679C645 -660 514 -636 476 -635C448 -634 448 -625 476 -612C490 -606 505 -603 530 -604ZM267 -516C213 -537 203 -516 224 -499C247 -479 262 -434 270 -376C170 -308 98 -272 72 -267C33 -260 27 -246 76 -221C107 -204 121 -205 137 -224C154 -241 195 -276 275 -337C279 -290 279 -236 274 -184C266 -83 250 -64 181 -87C152 -96 147 -86 164 -68C201 -32 217 -9 224 11C231 33 249 37 267 13C313 -42 323 -86 324 -226C324 -284 322 -331 318 -370C382 -419 389 -428 386 -432C378 -440 364 -437 313 -404C305 -442 295 -472 281 -497C354 -583 378 -604 413 -625C436 -640 437 -655 392 -683C356 -705 343 -704 312 -685C284 -669 178 -640 139 -643C111 -645 104 -630 137 -608C164 -589 180 -588 213 -606C255 -627 307 -645 326 -649C342 -653 347 -649 267 -516Z"/>
</svg>