<svg xmlns="http://www.w3.org/2000/svg" viewBox="0 -1000 1000 1000">
	<path fill="#000000" d="M508 -331C510 -342 513 -348 519 -355C530 -374 522 -382 485 -395C437 -410 427 -397 453 -369C456 -366 460 -348 462 -325C357 -310 234 -296 206 -296C163 -296 160 -281 197 -266C222 -256 244 -257 310 -272C335 -278 372 -284 415 -290C360 -193 259 -103 127 -38C89 -20 95 -8 132 -19C269 -58 372 -123 464 -275C465 -148 464 -102 452 -46C442 -5 442 28 461 62C473 83 489 81 501 50C509 30 514 1 512 -32C506 -165 504 -226 505 -270C560 -211 626 -147 700 -76C742 -35 759 -35 912 -59C937 -63 935 -76 906 -83C753 -114 705 -138 506 -298V-300C584 -307 665 -310 718 -308C812 -304 819 -325 768 -353C737 -371 706 -369 614 -348C596 -344 543 -335 508 -331ZM355 -388C358 -430 340 -451 284 -461C259 -465 257 -457 265 -443C282 -415 293 -400 322 -371C335 -358 353 -362 355 -388ZM508 -452C508 -487 499 -497 446 -504C420 -508 415 -499 425 -485C443 -458 460 -440 473 -430C496 -412 508 -420 508 -452ZM719 -473C745 -477 747 -492 717 -516C678 -547 665 -538 662 -515C660 -500 630 -471 556 -427C534 -413 539 -405 563 -410C585 -415 624 -431 659 -449C687 -465 702 -470 719 -473ZM601 -558C626 -560 627 -575 587 -598C542 -622 535 -622 524 -604C518 -593 501 -584 468 -572C417 -553 387 -545 344 -536C318 -530 317 -520 342 -519C387 -518 432 -523 524 -545C560 -553 572 -555 601 -558ZM255 -634C236 -682 221 -681 217 -646C213 -612 206 -599 187 -572C169 -548 166 -523 175 -495C182 -468 197 -465 221 -497C252 -539 259 -570 258 -610C290 -607 327 -609 387 -619C458 -630 643 -654 698 -656C728 -657 731 -649 691 -578C678 -555 682 -552 708 -567C761 -595 783 -605 824 -611C857 -616 862 -630 823 -662C769 -709 753 -713 721 -704C661 -686 379 -643 255 -634ZM546 -733C544 -767 504 -797 445 -802C420 -805 417 -801 429 -780C447 -749 470 -724 509 -693C527 -678 548 -697 546 -733Z"/>
</svg>