<svg xmlns="http://www.w3.org/2000/svg" viewBox="0 -1000 1000 1000">
	<path fill="#000000" d="M501 -315C535 -319 571 -324 610 -328C643 -332 647 -321 639 -301C630 -277 621 -274 592 -271C567 -267 511 -262 499 -261C499 -277 500 -296 501 -315ZM461 -256C424 -249 375 -244 341 -241C338 -260 336 -276 335 -292C368 -298 411 -304 463 -310C462 -291 462 -273 461 -256ZM465 -483C431 -479 392 -475 349 -470C345 -485 343 -501 342 -514C378 -520 422 -526 465 -532C465 -518 465 -502 465 -483ZM510 -538C550 -543 588 -548 616 -551C652 -555 656 -544 646 -503C611 -499 566 -493 507 -487C507 -505 508 -521 510 -538ZM506 -462C548 -466 595 -469 637 -471C633 -461 629 -448 624 -433C617 -421 613 -422 605 -427C595 -432 585 -432 504 -419C505 -433 505 -448 506 -462ZM465 -414C437 -409 404 -404 363 -398C359 -414 356 -429 353 -443C393 -449 434 -454 465 -457C465 -442 465 -428 465 -414ZM565 -154C553 -127 532 -99 507 -75C475 -83 432 -94 411 -100C399 -104 396 -109 407 -124C411 -129 417 -136 422 -142C467 -147 516 -150 565 -154ZM649 -191C652 -199 646 -205 621 -216C583 -233 582 -230 581 -208C581 -201 579 -192 576 -183C531 -178 486 -174 442 -170C450 -179 454 -184 458 -189C470 -201 471 -212 454 -230C537 -238 630 -245 658 -246C707 -247 709 -259 688 -274C682 -278 686 -289 713 -315C727 -329 725 -338 687 -354C653 -370 646 -369 618 -358C613 -354 565 -347 502 -339C502 -355 503 -372 503 -389C534 -394 563 -397 585 -400C599 -402 607 -399 611 -390C617 -377 638 -374 652 -396C663 -411 677 -436 694 -473C744 -475 782 -475 795 -474C856 -466 866 -492 835 -507C811 -518 786 -523 761 -518C745 -515 727 -512 709 -510C716 -526 719 -533 721 -535C740 -550 738 -555 705 -576C669 -599 662 -598 637 -586C631 -584 577 -576 513 -566C515 -578 518 -588 521 -598C526 -616 524 -621 494 -633C448 -649 440 -641 459 -608C462 -604 463 -589 464 -558C413 -551 362 -544 327 -539C319 -542 306 -543 286 -544C266 -545 261 -534 276 -520C284 -514 293 -497 303 -465C227 -455 166 -450 154 -450C133 -451 132 -444 156 -428C179 -411 186 -410 210 -418C214 -419 258 -428 310 -436C319 -407 324 -390 331 -371C341 -346 358 -342 365 -373C392 -376 427 -380 465 -384C465 -366 464 -349 464 -334C416 -328 361 -321 312 -316C305 -317 299 -318 290 -319C258 -324 253 -314 272 -295C283 -284 289 -275 306 -224C315 -194 335 -190 341 -216C361 -219 387 -223 415 -226C417 -213 413 -203 393 -166C278 -158 177 -153 129 -154C96 -155 95 -148 120 -133C154 -111 175 -113 239 -123C262 -126 320 -133 376 -138C365 -123 360 -115 357 -111C343 -97 344 -81 375 -76C405 -72 434 -65 475 -52C430 -25 338 5 211 25C182 29 178 43 211 44C309 49 438 29 528 -34C634 1 680 29 718 60C742 79 756 66 752 44C745 -1 719 -29 563 -63C579 -80 599 -106 630 -157C754 -164 790 -162 860 -155C921 -148 927 -166 889 -191C856 -212 822 -213 778 -207C738 -201 694 -196 649 -191ZM554 -717C561 -757 543 -782 458 -791C436 -793 436 -784 447 -772C472 -745 497 -720 521 -706C533 -697 550 -698 554 -717ZM258 -636C286 -627 307 -628 422 -642C538 -655 665 -667 722 -671C751 -673 757 -657 721 -603C712 -588 719 -580 737 -593C778 -625 806 -629 843 -633C874 -636 878 -652 824 -690C784 -719 773 -719 747 -713C734 -710 703 -706 525 -684C383 -667 297 -658 258 -658C256 -688 239 -689 233 -673C216 -631 200 -610 185 -595C166 -578 162 -564 164 -539C166 -507 179 -502 202 -522C225 -543 246 -580 258 -636Z"/>
</svg>