<svg xmlns="http://www.w3.org/2000/svg" viewBox="0 -1000 1000 1000">
	<path fill="#000000" d="M558 -699C571 -727 564 -738 514 -758C448 -785 442 -766 460 -744C471 -727 485 -694 487 -664C494 -573 491 -350 477 -291C466 -239 466 -211 481 -177C498 -141 522 -144 532 -180C541 -211 543 -238 542 -263C536 -421 543 -670 558 -699ZM853 -429C842 -482 800 -519 686 -574C657 -588 651 -579 675 -551C729 -489 764 -441 795 -393C832 -335 868 -358 853 -429ZM320 -565C313 -585 297 -582 291 -553C280 -504 251 -464 217 -428C194 -404 194 -379 203 -343C211 -313 225 -311 236 -324C261 -351 278 -376 294 -412C323 -476 335 -519 320 -565ZM420 -152C355 -177 323 -191 309 -194C280 -202 244 -206 223 -201C171 -188 144 -184 114 -184C82 -184 79 -174 101 -152C133 -123 152 -121 165 -126C251 -163 285 -164 325 -145C404 -110 491 -69 634 4C684 30 699 35 728 29C816 9 872 -5 943 -29C973 -39 967 -54 933 -53C742 -47 635 -68 420 -152Z"/>
</svg>