<svg xmlns="http://www.w3.org/2000/svg" viewBox="0 -1000 1000 1000">
	<path fill="#000000" d="M688 -388C710 -397 714 -415 683 -442C658 -465 641 -462 643 -438C645 -413 595 -360 510 -290C489 -270 492 -261 523 -277C579 -308 628 -341 643 -355C666 -376 679 -384 688 -388ZM668 -488C684 -497 685 -511 641 -545C622 -559 612 -551 613 -530C614 -513 590 -479 504 -401C484 -380 487 -371 518 -388C538 -401 568 -420 622 -458C639 -471 651 -480 668 -488ZM744 -684C737 -725 682 -749 626 -745C605 -744 603 -736 616 -723C656 -686 682 -667 711 -658C739 -650 748 -659 744 -684ZM360 -566C285 -548 219 -537 190 -536C161 -535 156 -520 187 -512C212 -506 233 -506 352 -526C300 -305 222 -173 99 -84C59 -56 68 -41 109 -63C234 -131 344 -253 405 -537C498 -554 583 -574 611 -582C662 -598 664 -619 642 -625C618 -631 602 -630 549 -615C506 -603 460 -590 415 -579C437 -680 444 -702 452 -714C466 -739 462 -755 420 -776C368 -800 356 -784 369 -760C383 -738 379 -660 360 -566ZM428 -141C389 -121 345 -101 301 -83C269 -69 272 -59 304 -66C350 -76 394 -91 437 -108C452 -73 479 -52 529 -37C616 -12 773 -24 836 -58C873 -78 881 -99 868 -127C858 -146 855 -172 850 -240C848 -265 840 -268 835 -241C813 -129 799 -108 756 -95C712 -81 609 -75 548 -86C519 -90 496 -104 480 -127C551 -159 614 -197 662 -235C681 -250 710 -268 722 -274C742 -283 742 -291 717 -326C693 -362 678 -354 676 -328C674 -302 590 -231 466 -162C455 -236 465 -387 484 -412C502 -437 499 -446 463 -470C429 -492 416 -487 423 -467C426 -456 428 -424 426 -386C421 -331 420 -227 428 -141Z"/>
</svg>