<svg xmlns="http://www.w3.org/2000/svg" viewBox="0 -1000 1000 1000">
	<path fill="#000000" d="M367 -547C399 -575 397 -581 341 -610C302 -631 290 -632 262 -619C211 -596 178 -587 144 -590C86 -617 75 -605 95 -579C123 -542 134 -462 139 -356C141 -309 149 -298 161 -298C176 -298 184 -310 181 -379C247 -384 282 -388 314 -396C327 -399 334 -410 321 -426C317 -432 317 -449 328 -476C343 -513 358 -539 367 -547ZM787 -668C818 -683 814 -699 753 -732C708 -758 704 -758 681 -738C649 -710 570 -684 500 -681C448 -707 434 -695 450 -671C468 -646 447 -463 398 -336C361 -239 291 -136 188 -58C148 -27 166 -18 202 -40C320 -107 392 -194 440 -319C454 -358 474 -423 489 -490C521 -484 538 -486 592 -500C631 -510 700 -525 710 -526C739 -530 742 -541 720 -553C705 -561 707 -575 718 -592C755 -647 767 -658 787 -668ZM949 -107C941 -127 933 -172 933 -206C933 -263 924 -259 905 -205C875 -120 863 -102 808 -84C768 -71 711 -67 673 -73C607 -84 583 -98 575 -155C573 -175 572 -202 573 -229C750 -339 787 -360 797 -362C832 -371 835 -384 782 -411C740 -432 726 -426 727 -405C728 -385 650 -302 575 -251C578 -288 584 -327 592 -358C602 -397 607 -402 561 -424C523 -443 510 -436 527 -404C541 -378 542 -327 533 -189C527 -94 582 -37 653 -22C721 -9 802 -12 874 -37C948 -62 957 -86 949 -107ZM683 -649C661 -561 659 -557 627 -547C564 -526 532 -518 494 -514C505 -567 514 -618 517 -659C553 -659 578 -665 646 -684C682 -694 693 -688 683 -649ZM289 -547C289 -518 281 -469 273 -442C268 -423 261 -418 180 -402C177 -463 173 -521 168 -565C189 -567 203 -569 235 -576C284 -586 289 -581 289 -547Z"/>
</svg>