<svg xmlns="http://www.w3.org/2000/svg" viewBox="0 -1000 1000 1000">
	<path fill="#000000" d="M677 -469C653 -483 629 -481 579 -468C565 -463 542 -459 517 -454L524 -549C555 -556 591 -566 604 -569C629 -578 635 -598 606 -603C590 -607 567 -601 526 -590C528 -619 528 -626 530 -633C538 -663 537 -670 506 -678C459 -693 449 -682 467 -662C476 -650 482 -620 482 -579C453 -572 418 -565 398 -561C377 -556 380 -548 394 -542C414 -533 437 -533 480 -541L477 -447C439 -441 393 -435 342 -429C318 -426 320 -417 339 -408C355 -401 372 -400 415 -409C518 -428 603 -436 669 -438C699 -439 705 -454 677 -469ZM802 -680C821 -712 821 -716 767 -748C726 -770 710 -775 673 -763C658 -758 432 -720 294 -705C231 -740 210 -724 233 -690C258 -653 265 -589 244 -377C231 -240 169 -128 81 -25C54 5 63 13 94 -10C210 -91 268 -193 291 -349C301 -426 311 -599 309 -684C434 -700 560 -716 618 -720C716 -728 720 -722 727 -631C739 -472 740 -272 733 -151C728 -60 722 -55 646 -76C624 -82 621 -76 644 -54C663 -37 696 7 703 25C718 71 738 75 766 29C797 -23 806 -81 800 -194C793 -300 789 -391 787 -505C783 -629 790 -659 802 -680ZM630 -296C649 -317 645 -332 616 -351C588 -370 580 -372 551 -359C510 -340 431 -324 388 -329C349 -343 344 -332 358 -309C371 -286 379 -244 390 -171C394 -148 398 -133 407 -133C417 -133 423 -150 423 -180C474 -181 537 -187 585 -193C608 -195 611 -203 603 -216C594 -233 596 -243 608 -263C615 -276 620 -285 630 -296ZM561 -289C557 -271 554 -264 546 -243C538 -222 522 -214 423 -207C418 -240 416 -271 412 -307C457 -312 507 -320 527 -323C553 -326 569 -320 561 -289Z"/>
</svg>