<svg xmlns="http://www.w3.org/2000/svg" viewBox="0 -1000 1000 1000">
	<path fill="#000000" d="M249 -319C212 -306 184 -297 163 -289C170 -338 171 -366 169 -392C166 -436 152 -459 124 -473C103 -483 94 -469 107 -452C136 -412 132 -291 95 -269C82 -261 81 -249 95 -228C118 -195 128 -192 143 -213C160 -239 197 -265 362 -333C361 -306 362 -293 366 -284C371 -274 382 -273 394 -296C400 -308 405 -320 406 -330C413 -414 417 -447 421 -462C428 -485 421 -496 394 -511C363 -530 347 -518 359 -495C367 -477 370 -423 365 -365L288 -335C292 -536 296 -604 304 -640C310 -669 301 -681 251 -701C209 -717 195 -701 218 -675C246 -643 250 -577 249 -319ZM707 -141C755 -88 836 -7 850 4C870 19 880 17 883 -18C888 -70 874 -89 715 -152C751 -193 798 -238 815 -248C835 -259 834 -272 802 -302C769 -333 751 -324 753 -297C755 -278 738 -249 680 -183C616 -110 548 -54 470 -6C446 8 453 14 478 9C538 -4 645 -72 707 -141ZM589 -551C564 -475 504 -400 471 -395C455 -392 452 -384 466 -361C489 -325 501 -325 521 -336C538 -347 604 -363 661 -367C584 -268 510 -193 384 -112C372 -105 377 -95 393 -100C510 -139 588 -202 696 -331C750 -397 769 -413 785 -422C811 -436 810 -454 773 -484C732 -517 717 -507 724 -476C727 -461 724 -450 681 -395C623 -387 554 -384 527 -387C606 -480 636 -510 650 -514C666 -519 670 -533 636 -558C717 -571 820 -583 877 -587C925 -590 930 -605 901 -625C872 -646 842 -647 798 -633C711 -605 479 -562 426 -562C397 -562 392 -547 421 -536C454 -522 484 -523 521 -537C529 -540 555 -545 589 -551ZM694 -688C697 -732 678 -759 583 -774C545 -780 541 -773 562 -750C592 -717 626 -686 657 -664C675 -652 692 -659 694 -688Z"/>
</svg>