<svg xmlns="http://www.w3.org/2000/svg" viewBox="0 -1000 1000 1000">
	<path fill="#000000" d="M596 -523C602 -560 606 -577 610 -588C615 -603 613 -614 585 -627C614 -634 653 -641 695 -648C726 -653 730 -652 729 -636C720 -541 714 -489 697 -386C661 -380 605 -371 568 -366C575 -411 581 -447 587 -476C617 -481 653 -489 671 -496C693 -504 693 -515 676 -524C663 -533 644 -536 596 -523ZM541 -470C537 -441 532 -411 524 -360C450 -349 406 -344 384 -343C352 -340 351 -337 379 -319C400 -306 415 -304 474 -317C502 -324 555 -332 623 -340C796 -362 852 -363 889 -359C958 -351 969 -374 941 -393C906 -416 883 -423 846 -414C837 -412 785 -403 748 -396C784 -600 789 -618 809 -638C827 -655 824 -667 783 -688C746 -708 734 -708 708 -692C690 -681 543 -651 478 -646C447 -644 445 -633 480 -619C500 -612 516 -612 542 -617C549 -601 554 -575 551 -552C549 -537 547 -522 546 -510C510 -502 468 -495 451 -492C433 -490 432 -480 460 -471C472 -467 498 -466 541 -470ZM598 -116C557 -111 512 -106 463 -100C475 -125 488 -158 488 -168C488 -187 479 -197 451 -211C426 -224 411 -217 423 -194C441 -155 424 -99 401 -87C387 -78 385 -67 392 -43C399 -15 405 -11 432 -31C457 -49 550 -76 797 -107C800 -49 802 -25 806 -9C811 10 843 3 851 -42C852 -47 851 -92 850 -116C849 -145 851 -169 854 -175C868 -207 852 -221 811 -234C769 -247 755 -236 773 -214C784 -202 790 -178 795 -137C752 -133 679 -126 648 -123C651 -216 654 -248 659 -260C668 -283 663 -291 611 -312C577 -327 562 -317 577 -295C593 -272 603 -233 598 -116ZM253 -509C262 -487 269 -465 274 -439C218 -326 152 -245 52 -164C35 -150 45 -138 57 -144C149 -190 241 -276 284 -355C289 -291 286 -231 274 -108C269 -55 262 -47 186 -75C167 -83 161 -73 175 -59C204 -26 223 2 234 32C242 56 258 58 278 35C310 -2 325 -31 333 -115C351 -298 332 -457 289 -546C314 -574 340 -606 370 -644C384 -661 406 -689 420 -697C437 -709 438 -728 398 -750C344 -778 331 -770 339 -746C348 -722 325 -661 265 -584C239 -615 193 -642 136 -665C125 -671 115 -672 112 -668C109 -663 113 -652 117 -650C168 -622 206 -589 233 -546C191 -498 148 -461 83 -416C63 -403 67 -393 87 -400C143 -419 193 -450 253 -509Z"/>
</svg>