<svg xmlns="http://www.w3.org/2000/svg" viewBox="0 -1000 1000 1000">
	<path fill="#000000" d="M842 -133C865 -144 864 -159 823 -180C783 -202 772 -200 770 -177C768 -157 739 -124 707 -95C636 -31 580 3 515 30C496 37 497 50 523 46C599 32 678 1 781 -92C804 -111 823 -124 842 -133ZM778 -242C805 -253 808 -269 777 -290C746 -310 735 -306 729 -283C725 -270 714 -259 681 -228C649 -198 606 -169 549 -145C530 -137 535 -126 551 -129C597 -137 656 -161 713 -200C745 -222 768 -238 778 -242ZM779 -369C791 -375 791 -387 762 -398C725 -410 710 -410 706 -395C702 -379 688 -364 660 -338C630 -312 604 -297 563 -277C547 -270 553 -258 571 -262C621 -273 673 -300 721 -336C740 -350 762 -361 779 -369ZM617 -508C626 -542 592 -561 549 -568C536 -570 531 -561 538 -547C558 -513 568 -499 582 -487C594 -478 612 -482 617 -508ZM724 -727C724 -758 705 -775 604 -778C593 -778 590 -770 598 -760C631 -723 663 -705 690 -696C710 -690 724 -697 724 -727ZM713 -622C718 -588 706 -536 671 -469C598 -453 538 -444 501 -443C446 -475 434 -465 450 -431C460 -408 454 -308 433 -226C419 -170 361 -54 299 14C286 29 297 36 312 27C391 -25 452 -116 477 -209C495 -274 510 -363 513 -413C533 -414 563 -417 614 -423C739 -438 806 -446 860 -455C937 -469 935 -491 903 -501C878 -508 853 -509 817 -502C806 -500 743 -484 708 -476C745 -534 766 -564 779 -572C796 -582 799 -596 742 -626C765 -629 787 -633 811 -635C866 -640 869 -657 848 -669C818 -685 793 -687 747 -674C662 -648 549 -627 484 -621C455 -618 456 -612 489 -599C512 -588 534 -586 575 -595C619 -606 666 -615 713 -622ZM254 -306C227 -299 200 -292 179 -284C180 -335 181 -362 185 -387C192 -432 183 -452 142 -469C109 -482 98 -473 114 -450C149 -399 142 -275 111 -260C96 -252 97 -244 113 -212C127 -184 138 -186 158 -206C178 -227 216 -248 362 -309C361 -282 364 -268 368 -260C375 -245 388 -247 405 -305C411 -399 416 -444 420 -457C427 -481 422 -495 393 -507C356 -523 344 -514 357 -490C366 -473 370 -399 365 -338L293 -317C297 -527 301 -604 309 -636C318 -669 309 -679 258 -696C217 -711 202 -701 221 -673C244 -638 254 -555 254 -306Z"/>
</svg>