<svg xmlns="http://www.w3.org/2000/svg" viewBox="0 -1000 1000 1000">
	<path fill="#000000" d="M826 -710C844 -724 844 -741 784 -775C764 -787 757 -783 755 -759C752 -724 743 -701 681 -595C674 -584 683 -569 695 -582C763 -650 810 -696 826 -710ZM598 -602C607 -635 593 -663 524 -690C500 -699 489 -694 503 -670C521 -638 547 -598 565 -584C577 -574 592 -576 598 -602ZM422 -436C426 -456 425 -465 398 -485C359 -515 347 -506 365 -477C375 -459 378 -421 374 -326L281 -290C287 -582 289 -614 296 -641C311 -696 310 -713 245 -744C208 -763 196 -748 214 -723C240 -687 246 -638 245 -277C209 -263 176 -248 157 -237C163 -294 168 -366 168 -380C168 -418 149 -438 112 -453C90 -463 87 -444 98 -421C128 -362 135 -264 103 -230C88 -214 85 -205 100 -180C119 -148 127 -142 145 -163C169 -190 255 -246 372 -296C370 -271 373 -258 376 -248C379 -235 393 -235 396 -243C403 -261 405 -277 408 -308C415 -386 419 -418 422 -436ZM921 -560C895 -569 856 -573 816 -560C700 -527 475 -491 461 -491C426 -491 422 -482 456 -469C471 -464 499 -460 518 -462C518 -436 507 -391 487 -352C470 -317 446 -284 428 -273C420 -268 417 -258 420 -239C423 -213 432 -210 448 -220C472 -231 501 -242 540 -248C503 -188 438 -109 400 -79C379 -64 379 -53 386 -30C396 8 402 11 423 -5C456 -31 511 -61 577 -88C581 -73 586 -57 591 -46C598 -25 610 -26 618 -50C631 -83 630 -109 586 -150C570 -165 562 -161 567 -137C569 -127 572 -115 575 -103C536 -96 491 -84 443 -70C595 -274 619 -300 628 -307C644 -317 644 -332 620 -358C601 -377 592 -370 590 -352C588 -335 576 -305 554 -270C528 -275 504 -274 466 -267C514 -341 551 -397 563 -410C579 -427 577 -438 541 -465C586 -472 677 -486 747 -498C835 -513 874 -518 897 -520C958 -525 958 -549 921 -560ZM924 -17C937 -70 925 -106 837 -179C812 -201 799 -185 828 -135C787 -127 725 -111 692 -100C734 -175 835 -292 866 -316C877 -326 872 -346 852 -370C829 -398 820 -399 816 -364C814 -348 807 -329 789 -297C763 -303 719 -299 693 -294C736 -373 757 -407 771 -425C793 -459 787 -469 768 -481C738 -500 726 -495 729 -466C729 -453 721 -414 708 -378C698 -350 677 -314 669 -307C652 -294 648 -282 655 -265C662 -249 674 -241 682 -247C715 -263 747 -273 778 -277C747 -222 674 -124 658 -111C647 -104 645 -93 649 -68C653 -31 665 -27 682 -41C726 -72 766 -94 834 -118C857 -69 880 -22 891 -5C903 13 918 6 924 -17Z"/>
</svg>