<svg xmlns="http://www.w3.org/2000/svg" viewBox="0 -1000 1000 1000">
	<path fill="#000000" d="M881 -640C855 -655 830 -656 791 -644C768 -637 747 -631 724 -626C740 -666 760 -705 767 -713C788 -736 785 -756 733 -776C684 -795 672 -779 690 -746C695 -736 687 -671 674 -616C639 -610 597 -604 536 -596C534 -634 535 -660 539 -665C549 -680 541 -700 479 -719C441 -730 434 -720 460 -686C474 -667 482 -646 492 -590C431 -583 399 -580 381 -577C349 -572 348 -565 370 -550C392 -535 404 -532 433 -543C446 -548 471 -554 497 -558C499 -541 502 -517 505 -496C507 -481 516 -467 528 -467C536 -467 543 -486 542 -503C541 -523 539 -547 538 -564C577 -571 645 -581 664 -583C655 -553 642 -515 634 -494C628 -479 635 -468 650 -482C674 -504 688 -537 708 -587C750 -589 824 -591 862 -591C910 -591 918 -617 881 -640ZM357 -497C378 -518 375 -533 333 -557C284 -585 279 -585 247 -566C207 -542 177 -530 129 -532C82 -551 73 -537 96 -507C118 -479 131 -370 131 -314C131 -282 142 -248 160 -248C169 -248 177 -264 178 -330C223 -335 267 -343 321 -355C346 -360 347 -382 333 -392C319 -402 319 -413 330 -448C337 -470 345 -486 357 -497ZM974 -19C1007 -25 1004 -40 964 -47C775 -82 716 -108 636 -198C656 -234 671 -271 681 -303C695 -349 711 -383 715 -388C734 -411 733 -426 688 -447C626 -474 617 -465 636 -412C646 -384 624 -293 598 -241C579 -266 560 -291 534 -322C470 -397 468 -399 423 -399C395 -399 397 -381 420 -371C442 -361 470 -339 503 -295C526 -266 549 -237 574 -203C517 -135 423 -83 299 -56C277 -51 275 -38 310 -36C410 -30 541 -74 610 -159C643 -120 674 -87 713 -49C764 1 778 5 835 0C878 -4 919 -9 974 -19ZM279 -448C270 -383 266 -381 235 -373C223 -370 203 -366 177 -362C175 -413 172 -461 167 -507C190 -510 208 -514 230 -520C282 -535 290 -522 279 -448Z"/>
</svg>