<svg xmlns="http://www.w3.org/2000/svg" viewBox="0 -1000 1000 1000">
	<path fill="#000000" d="M206 -293C183 -283 151 -272 128 -264C132 -333 134 -353 138 -377C144 -409 135 -427 90 -444C70 -451 61 -440 74 -423C102 -383 88 -256 62 -240C49 -232 46 -215 64 -191C81 -168 94 -168 117 -191C138 -212 171 -235 327 -311C324 -279 326 -265 330 -256C337 -241 357 -243 374 -301C381 -399 384 -421 388 -431C396 -450 395 -465 357 -482C317 -501 309 -486 323 -466C333 -448 337 -417 329 -339L248 -308C251 -508 255 -575 263 -611C269 -640 262 -652 214 -672C172 -688 160 -674 179 -646C201 -611 207 -548 206 -293ZM516 -558C520 -580 504 -600 450 -610C433 -613 429 -607 441 -588C451 -575 468 -553 488 -538C501 -526 513 -531 516 -558ZM784 -635C809 -642 807 -660 757 -675C721 -685 711 -677 713 -656C714 -642 704 -628 664 -587C656 -578 658 -568 673 -576C739 -615 773 -631 784 -635ZM557 -667C569 -645 572 -611 574 -517C522 -506 476 -499 443 -495C399 -489 397 -483 419 -466C431 -456 445 -456 475 -464C495 -468 514 -472 535 -477C491 -397 446 -337 385 -281C361 -260 365 -252 389 -264C457 -297 512 -351 574 -467C575 -421 575 -410 572 -398C563 -353 564 -336 571 -320C584 -294 605 -297 609 -317C613 -337 613 -355 612 -414C612 -424 611 -447 611 -462C668 -410 712 -373 763 -332C801 -301 817 -297 945 -321C970 -327 970 -338 945 -343C810 -370 746 -399 624 -493C683 -504 744 -512 808 -518C844 -521 848 -535 827 -549C800 -568 781 -569 741 -557C696 -545 652 -535 612 -525C615 -587 618 -606 625 -623C632 -646 628 -658 587 -677C609 -686 650 -704 666 -711C686 -720 710 -731 725 -734C739 -738 739 -748 727 -757C711 -770 695 -779 674 -785C650 -792 639 -786 639 -768C639 -748 591 -718 473 -667C458 -660 459 -648 480 -650C503 -652 527 -657 557 -667ZM612 -56L613 -135C643 -140 671 -146 682 -150C700 -157 700 -170 682 -177C666 -184 649 -183 615 -174C615 -189 618 -208 621 -218C623 -229 621 -240 605 -255C639 -260 686 -265 709 -265C731 -265 740 -264 742 -239C747 -182 742 -127 730 -67C725 -43 715 -44 705 -53C692 -63 647 -65 612 -56ZM457 -235C488 -235 518 -238 565 -247C570 -231 572 -210 573 -163C554 -158 530 -153 514 -150C487 -146 487 -136 514 -128C522 -126 535 -126 573 -129L575 -50C542 -44 511 -40 488 -40C480 -106 467 -195 457 -235ZM490 -8C508 -10 531 -14 546 -17C568 -22 636 -27 668 -23C681 -21 691 -18 696 2C706 41 716 58 730 58C738 58 762 30 777 -11C782 -29 791 -76 802 -152C808 -196 813 -216 822 -226C838 -241 836 -252 817 -267C801 -279 786 -289 771 -298C750 -310 742 -309 716 -302C707 -299 522 -270 432 -259C394 -269 384 -253 405 -225C416 -209 438 -119 451 -32C456 5 466 25 474 23C481 20 489 12 490 -8Z"/>
</svg>