<svg xmlns="http://www.w3.org/2000/svg" viewBox="0 -1000 1000 1000">
	<path fill="#000000" d="M553 -691C553 -736 528 -751 438 -764C407 -768 406 -759 426 -738C452 -710 489 -674 503 -663C533 -643 553 -659 553 -691ZM347 -286C356 -302 350 -322 297 -338C271 -345 261 -336 272 -308C285 -277 272 -178 251 -130C230 -84 179 -28 121 4C97 17 101 34 126 27C217 0 290 -61 308 -153C324 -229 335 -267 347 -286ZM893 -73C889 -88 879 -164 881 -196C884 -233 869 -232 860 -194C838 -92 825 -68 790 -56C747 -41 718 -38 699 -41C646 -50 640 -75 636 -123C633 -159 636 -242 643 -267C662 -329 656 -342 611 -370C577 -388 564 -373 583 -342C593 -328 597 -277 593 -122C591 -43 610 -8 683 19C719 34 803 24 845 3C900 -22 902 -38 893 -73ZM495 -287C502 -316 491 -331 461 -345C421 -365 413 -354 429 -324C441 -299 438 -160 431 -131C421 -93 419 -74 435 -25C443 1 457 1 470 -24C480 -43 485 -90 485 -175C485 -197 490 -267 495 -287ZM366 -560C530 -578 704 -591 779 -591C845 -590 853 -615 799 -641C770 -654 744 -652 673 -639C577 -620 255 -583 178 -581C134 -579 132 -566 154 -554C182 -540 205 -535 235 -542C244 -544 272 -548 315 -554C317 -475 310 -454 303 -447C284 -422 280 -404 283 -382C287 -361 303 -354 345 -383C362 -396 614 -421 671 -417C717 -413 733 -437 699 -457C672 -475 632 -484 582 -468C554 -458 404 -435 354 -432C364 -474 367 -516 366 -560Z"/>
</svg>