<svg xmlns="http://www.w3.org/2000/svg" viewBox="0 -1000 1000 1000">
	<path fill="#000000" d="M229 -535C202 -527 173 -522 149 -519C99 -549 87 -535 101 -512C109 -501 113 -484 112 -438C111 -374 109 -351 100 -333C88 -304 91 -283 107 -256C120 -231 134 -235 146 -290C156 -340 161 -409 159 -489C184 -492 203 -496 229 -503C230 -182 225 -103 213 -73C194 -33 202 -1 222 32C234 57 258 53 264 27C272 -5 275 -43 274 -106C274 -124 274 -279 274 -513C287 -515 299 -517 313 -518C340 -521 342 -520 345 -491C348 -454 347 -409 344 -389C340 -353 330 -346 297 -355C282 -360 278 -351 291 -337C315 -312 324 -298 331 -272C336 -258 350 -255 363 -273C386 -302 398 -347 396 -402C393 -476 395 -501 410 -521C424 -537 424 -553 388 -570C350 -588 338 -584 319 -571C310 -565 293 -556 274 -549C275 -647 282 -699 292 -718C305 -744 303 -754 231 -785C196 -799 183 -782 207 -752C219 -739 228 -670 229 -535ZM555 -645C555 -664 518 -693 480 -696C459 -698 455 -694 464 -676C477 -647 495 -617 506 -604C528 -578 556 -584 555 -645ZM782 -707C803 -725 806 -738 776 -756C712 -796 692 -782 699 -758C707 -731 687 -671 608 -575C591 -553 603 -547 623 -562C658 -589 685 -613 730 -660C750 -681 775 -701 782 -707ZM496 -479C555 -488 633 -500 654 -503C692 -507 698 -504 697 -487C690 -410 679 -399 653 -392C628 -384 562 -371 512 -365C509 -403 503 -444 496 -479ZM627 -351C692 -360 717 -363 730 -365C752 -369 756 -379 745 -389C732 -401 732 -406 737 -420C745 -445 764 -470 785 -486C815 -510 811 -531 761 -550C720 -566 707 -564 686 -549C670 -537 545 -509 471 -506C424 -520 417 -506 429 -483C448 -449 459 -422 473 -371C487 -324 497 -314 507 -338C509 -338 510 -338 512 -338C527 -278 454 -149 318 -64C301 -54 307 -38 325 -45C412 -83 481 -135 535 -227C547 -248 559 -266 569 -276C583 -291 579 -312 538 -341C563 -344 584 -346 603 -348C614 -327 617 -289 613 -205C611 -164 612 -122 618 -91C633 -22 657 -1 748 0C816 1 863 -10 903 -30C934 -44 940 -63 921 -97C913 -112 906 -142 898 -205C892 -242 880 -240 876 -206C859 -76 845 -67 747 -65C670 -63 660 -85 659 -136C658 -197 663 -241 670 -268C681 -309 679 -322 627 -351Z"/>
</svg>