<svg xmlns="http://www.w3.org/2000/svg" viewBox="0 -1000 1000 1000">
	<path fill="#000000" d="M545 -384C539 -406 536 -429 534 -447C602 -461 684 -472 699 -471C705 -471 707 -461 702 -437C698 -417 692 -412 673 -407C642 -400 599 -392 545 -384ZM519 -470C470 -481 459 -462 473 -449C489 -436 493 -428 509 -388C524 -353 526 -350 535 -351C543 -352 547 -355 548 -364C563 -365 584 -367 594 -368C600 -356 603 -339 605 -306C553 -294 522 -289 500 -287C478 -286 478 -279 499 -269C521 -259 531 -256 568 -263C581 -266 594 -268 607 -271C607 -250 607 -227 607 -198C566 -192 521 -186 466 -179C484 -223 482 -241 457 -259C439 -270 433 -265 436 -244C440 -222 429 -191 401 -174C389 -167 387 -161 394 -140C399 -126 419 -120 438 -130C465 -144 516 -157 607 -167C606 3 608 20 615 58C619 80 632 79 639 60C656 16 660 -34 658 -172C738 -179 799 -180 830 -177C921 -168 930 -192 889 -214C858 -232 825 -236 793 -230C746 -221 699 -212 658 -205C657 -239 657 -255 657 -280C688 -285 719 -291 749 -296C787 -302 789 -311 778 -321C762 -337 749 -341 709 -331C691 -327 673 -322 658 -318C667 -351 664 -358 641 -374C679 -380 712 -385 727 -388C755 -395 757 -399 750 -417C747 -425 749 -432 761 -443C769 -451 778 -457 790 -465C804 -473 803 -478 784 -489C741 -514 722 -517 710 -509C694 -500 642 -486 519 -470ZM611 -651C650 -659 678 -663 699 -665C711 -667 715 -651 697 -584C683 -582 604 -571 588 -568ZM572 -675C536 -667 503 -660 484 -659C457 -657 455 -651 473 -642C499 -629 516 -628 565 -640L549 -562C494 -555 441 -550 418 -550C403 -550 400 -536 418 -526C448 -511 465 -513 488 -520C501 -524 574 -537 651 -546C784 -562 833 -566 879 -561C945 -555 951 -578 927 -593C900 -612 878 -615 844 -609C811 -603 781 -598 733 -590C747 -619 768 -651 786 -662C805 -674 804 -683 781 -696C746 -716 719 -721 706 -711C700 -707 664 -696 621 -686C629 -717 638 -740 646 -752C658 -770 653 -784 628 -795C561 -824 546 -804 565 -789C578 -778 583 -740 572 -675ZM215 -528C191 -523 167 -519 151 -518C103 -555 87 -543 96 -522C104 -504 106 -473 103 -427C101 -389 96 -368 88 -349C82 -335 84 -321 96 -299C107 -280 123 -284 131 -314C144 -361 150 -419 154 -490C165 -492 191 -498 215 -503C216 -346 201 -170 188 -121C178 -85 177 -50 195 -9C205 10 218 12 227 -6C239 -27 249 -106 248 -173C247 -215 251 -416 254 -511C261 -512 286 -514 305 -516C322 -517 327 -512 329 -489C333 -455 329 -409 324 -388C321 -376 315 -372 274 -382C260 -385 257 -374 272 -363C283 -354 300 -330 313 -303C318 -292 327 -291 341 -305C365 -330 377 -364 378 -395C382 -486 384 -499 392 -510C406 -530 405 -538 374 -551C343 -566 328 -565 302 -552C293 -548 275 -543 255 -538V-539C260 -653 266 -697 278 -719C288 -739 281 -756 216 -778C183 -789 176 -774 192 -751C211 -726 212 -703 215 -528Z"/>
</svg>