<svg xmlns="http://www.w3.org/2000/svg" viewBox="0 -1000 1000 1000">
	<path fill="#000000" d="M795 -633C819 -640 823 -654 770 -666C733 -674 727 -674 723 -654C722 -646 707 -621 674 -587C665 -579 668 -568 683 -576C749 -614 783 -630 795 -633ZM529 -555C532 -576 495 -599 464 -607C446 -612 441 -606 449 -590C456 -580 486 -546 498 -539C512 -529 526 -528 529 -555ZM961 -332C982 -338 979 -346 957 -351C781 -389 718 -414 620 -483C620 -486 620 -490 620 -493C684 -504 749 -512 818 -518C850 -521 858 -536 845 -548C831 -562 794 -569 752 -558C706 -546 662 -536 621 -526C624 -586 626 -597 632 -615C641 -646 637 -656 590 -678C615 -687 646 -699 685 -713C694 -717 722 -729 732 -732C741 -735 745 -746 733 -754C721 -762 696 -776 679 -783C662 -790 650 -780 646 -766C644 -757 579 -704 482 -662C467 -656 470 -644 489 -648C505 -651 529 -658 568 -671C583 -652 587 -626 589 -518C539 -507 495 -498 457 -493C419 -488 418 -479 432 -470C444 -460 458 -460 488 -467C506 -471 525 -474 543 -478C504 -412 453 -350 387 -286C365 -266 373 -257 393 -270C468 -313 534 -386 589 -476C590 -435 591 -420 589 -403C585 -359 586 -338 591 -328C604 -306 613 -306 620 -324C625 -336 625 -362 621 -419C620 -431 621 -445 621 -460C678 -411 727 -372 777 -334C803 -312 833 -305 961 -332ZM395 -496C407 -510 404 -521 371 -534C327 -552 320 -552 301 -543C286 -536 267 -529 247 -522C248 -580 257 -652 268 -690C278 -723 274 -740 210 -763C183 -773 177 -760 199 -725C209 -710 212 -652 211 -510C182 -501 149 -492 127 -487C100 -508 81 -502 90 -481C98 -461 93 -370 84 -328C80 -308 80 -296 90 -277C99 -261 121 -258 129 -303C135 -341 139 -409 137 -464C149 -465 165 -467 172 -469C182 -472 196 -477 211 -481C208 -196 197 -119 191 -105C175 -67 178 -24 193 3C206 26 218 21 229 -1C236 -15 246 -73 246 -136C246 -168 247 -358 247 -491C313 -508 329 -508 331 -477C333 -450 335 -393 331 -362C329 -344 314 -338 286 -343C275 -345 273 -336 281 -327C295 -313 308 -294 318 -278C328 -261 335 -261 355 -284C372 -304 378 -329 379 -385C380 -450 384 -482 395 -496ZM833 -264C819 -278 801 -295 786 -304C767 -316 757 -317 732 -310C722 -307 529 -278 440 -268C403 -280 394 -262 415 -236C426 -220 447 -133 461 -48C466 -12 476 7 484 5C491 3 498 -4 499 -25C517 -26 541 -30 562 -34C584 -39 650 -43 683 -39C698 -37 702 -34 705 -13C715 40 717 49 731 49C739 49 773 25 792 -28C798 -46 807 -90 817 -164C823 -207 824 -213 832 -226C845 -245 844 -254 833 -264ZM757 -248C762 -201 757 -138 745 -79C740 -54 730 -56 718 -64C708 -72 660 -75 622 -65L623 -148C651 -152 685 -158 700 -164C713 -169 715 -182 700 -188C682 -196 667 -197 625 -186C626 -200 629 -217 631 -228C634 -240 630 -254 609 -270C641 -275 696 -281 723 -281C746 -281 755 -273 757 -248ZM585 -59C553 -55 519 -52 497 -52C492 -119 475 -214 464 -251C485 -251 523 -255 572 -264C580 -248 582 -226 583 -175C565 -170 535 -165 522 -163C497 -159 498 -149 522 -142C531 -139 561 -140 583 -142Z"/>
</svg>