<svg xmlns="http://www.w3.org/2000/svg" viewBox="0 -1000 1000 1000">
	<path fill="#000000" d="M520 -265C536 -279 527 -290 512 -281C474 -259 441 -237 399 -209C405 -280 408 -333 409 -365C437 -363 470 -367 507 -386C536 -401 533 -418 510 -424C495 -429 482 -427 409 -390C410 -409 412 -440 413 -446C423 -490 421 -495 388 -510C349 -528 336 -513 357 -480C364 -469 370 -436 370 -384C370 -242 360 -192 342 -178C319 -160 320 -150 341 -121C363 -91 374 -93 392 -127C407 -156 448 -202 520 -265ZM303 -631C238 -667 224 -650 245 -615C258 -591 258 -466 235 -353C205 -207 159 -104 83 -5C66 16 74 23 96 5C179 -58 240 -150 277 -284C296 -354 310 -454 314 -603C383 -604 462 -613 798 -655C838 -660 840 -676 823 -687C800 -704 774 -708 704 -692C554 -659 369 -633 303 -631ZM611 -723C613 -756 572 -790 514 -796C491 -799 488 -792 496 -779C522 -741 547 -715 570 -701C595 -685 609 -692 611 -723ZM651 -107C665 -118 665 -124 629 -145C600 -163 591 -158 591 -144C591 -113 540 -53 440 0C421 10 428 23 451 16C527 -4 570 -31 614 -75C626 -87 637 -96 651 -107ZM854 -14C856 -63 817 -99 726 -133C708 -139 703 -134 713 -120C743 -79 770 -47 817 2C836 22 853 14 854 -14ZM607 -360C608 -380 608 -400 609 -414C644 -415 681 -418 696 -421C708 -424 734 -427 756 -427C774 -427 783 -420 786 -397C790 -363 789 -266 784 -213C783 -203 775 -201 767 -210C759 -219 737 -220 661 -206C644 -203 622 -201 599 -201C600 -210 602 -236 603 -261C657 -257 703 -260 740 -268C755 -271 755 -284 744 -292C730 -302 707 -302 664 -290C647 -285 625 -281 604 -280C605 -299 606 -318 607 -337C645 -335 710 -338 739 -344C762 -350 760 -364 746 -370C729 -378 716 -379 680 -370C661 -365 632 -361 607 -360ZM663 -527C663 -507 653 -479 634 -438C619 -436 605 -434 596 -434C558 -446 542 -436 559 -414C567 -404 569 -385 568 -325C567 -277 564 -247 558 -222C554 -203 555 -191 563 -173C571 -155 588 -150 595 -174C643 -179 712 -183 752 -183C768 -183 774 -182 779 -166C790 -130 804 -127 820 -155C840 -188 843 -223 838 -332C836 -368 838 -396 850 -413C858 -424 852 -440 822 -457C791 -475 779 -475 765 -467C754 -462 710 -451 666 -443C683 -466 695 -477 710 -487C725 -496 726 -508 693 -533C774 -546 796 -550 827 -557C860 -566 864 -580 845 -588C821 -599 807 -598 683 -569C643 -559 581 -551 553 -549C533 -548 530 -538 547 -533C574 -525 616 -522 663 -527Z"/>
</svg>