<svg xmlns="http://www.w3.org/2000/svg" viewBox="0 -1000 1000 1000">
	<path fill="#000000" d="M515 -213C511 -242 508 -243 495 -221C478 -192 462 -163 446 -134C436 -114 432 -98 438 -71C445 -40 459 -38 475 -64C514 -125 524 -163 515 -213ZM892 -128C887 -182 855 -204 764 -240C736 -251 728 -243 747 -219C771 -191 843 -112 862 -95C884 -74 897 -86 892 -128ZM708 -710C704 -750 687 -771 612 -784C579 -790 572 -784 589 -763C626 -717 648 -695 667 -684C694 -669 711 -679 708 -710ZM577 -325C575 -350 569 -405 565 -427C594 -432 625 -438 692 -454C729 -463 740 -456 736 -417C731 -352 727 -350 698 -347C687 -346 638 -336 577 -325ZM667 -305C744 -317 769 -321 782 -325C807 -330 807 -345 779 -362C773 -366 773 -372 777 -381C789 -413 801 -428 813 -439C837 -459 836 -473 801 -491C753 -516 736 -517 706 -498C679 -481 616 -461 554 -453C545 -461 534 -465 518 -468C487 -473 478 -461 496 -439C509 -422 528 -373 534 -325C536 -311 540 -299 548 -281C557 -264 560 -260 567 -264C574 -268 577 -274 578 -293C589 -294 613 -297 629 -299C644 -241 644 -159 636 -81C634 -59 619 -54 574 -65C546 -72 543 -66 564 -44C596 -10 610 10 617 32C623 47 637 52 656 30C681 -2 685 -17 688 -59C692 -99 692 -135 688 -170C684 -221 686 -238 691 -253C699 -276 697 -287 667 -305ZM893 -633C873 -645 840 -647 782 -633C660 -603 524 -579 468 -579C428 -579 425 -567 460 -548C480 -537 491 -536 541 -548C608 -566 807 -589 844 -585C932 -577 941 -604 893 -633ZM213 -486C204 -493 193 -499 180 -504C154 -514 141 -506 151 -490C163 -473 167 -429 165 -410C161 -360 150 -328 136 -318C117 -305 112 -297 116 -273C121 -246 129 -245 148 -262C185 -294 200 -300 217 -302C270 -308 300 -300 300 -275C301 -187 293 -144 276 -98C261 -54 249 -51 190 -72C165 -81 158 -69 181 -47C205 -25 222 5 228 25C233 41 242 43 260 29C323 -23 343 -70 353 -224C355 -261 357 -276 364 -293C375 -318 373 -325 362 -332C348 -340 338 -345 322 -351C302 -359 298 -358 284 -347C278 -343 236 -332 199 -326C192 -325 189 -329 195 -352C204 -389 213 -423 220 -457C255 -463 296 -470 347 -482C371 -488 374 -505 359 -514C347 -521 347 -530 351 -542C377 -626 391 -649 425 -675C439 -685 438 -697 399 -718C373 -731 356 -731 339 -720C304 -695 229 -677 167 -675C144 -674 143 -665 169 -653C211 -635 224 -634 305 -661C329 -670 333 -669 330 -647C325 -610 318 -571 314 -554C306 -524 303 -517 288 -510C265 -500 238 -490 213 -486Z"/>
</svg>