<svg xmlns="http://www.w3.org/2000/svg" viewBox="0 -1000 1000 1000">
	<path fill="#000000" d="M569 -58C589 -66 582 -87 554 -98C506 -116 500 -113 493 -86C488 -66 459 -25 361 33C333 49 336 64 371 53C422 39 461 19 510 -20C533 -37 550 -51 569 -58ZM838 27C837 -36 814 -70 693 -110C664 -120 657 -109 674 -91C748 -12 770 12 785 32C814 67 839 63 838 27ZM559 -583C592 -586 628 -591 662 -598C658 -570 652 -542 646 -513C627 -511 572 -504 559 -502C559 -532 559 -559 559 -583ZM624 -188L628 -259C644 -262 667 -267 687 -272C712 -278 720 -291 703 -302C691 -310 662 -313 649 -307C644 -305 638 -302 630 -300L634 -361C652 -363 669 -364 681 -365C741 -369 746 -367 746 -347C746 -309 739 -259 726 -211C719 -190 711 -184 700 -189C675 -198 666 -197 624 -188ZM591 -355L589 -286C565 -279 540 -274 528 -273C503 -271 499 -265 522 -252C534 -246 548 -244 589 -250L587 -178C557 -170 525 -164 497 -162C482 -255 473 -318 471 -341C521 -347 563 -352 591 -355ZM591 -385C536 -377 478 -370 447 -369C397 -382 386 -370 408 -340C421 -326 443 -240 452 -195C456 -171 469 -132 476 -126C488 -118 497 -121 500 -131C515 -131 528 -133 558 -141C577 -146 629 -156 643 -157C695 -161 705 -159 715 -146C728 -132 734 -131 749 -152C770 -179 777 -197 786 -234C800 -292 817 -335 829 -346C848 -366 847 -377 793 -406C768 -419 746 -419 722 -408C715 -405 680 -399 636 -392C637 -415 639 -428 643 -436C652 -452 647 -462 607 -480C705 -491 801 -492 877 -487C944 -483 950 -502 912 -528C893 -542 874 -548 817 -538C803 -535 737 -525 685 -518C693 -550 699 -578 705 -605C751 -613 790 -623 812 -631C835 -640 835 -653 813 -663C793 -671 767 -668 717 -653C726 -689 732 -709 738 -717C757 -746 754 -759 704 -784C666 -802 657 -794 671 -762C678 -745 680 -725 668 -640C642 -635 601 -627 561 -620C562 -636 563 -647 564 -651C575 -689 569 -694 518 -716C474 -734 460 -722 485 -691C506 -664 512 -648 519 -614C491 -610 465 -607 447 -605C418 -602 417 -585 435 -581C454 -577 485 -577 523 -580C525 -558 526 -532 526 -499C456 -490 399 -484 384 -483C352 -482 351 -471 377 -455C397 -445 409 -441 463 -455C497 -464 533 -470 572 -476C579 -469 590 -432 591 -385ZM385 -636C406 -652 403 -668 360 -691C325 -711 309 -710 287 -694C258 -675 224 -663 149 -652C132 -650 129 -644 158 -630C179 -621 188 -618 232 -633C300 -652 307 -650 303 -627C298 -594 290 -558 276 -522C265 -496 201 -480 166 -489C127 -500 118 -487 132 -469C152 -444 135 -335 107 -312C86 -294 83 -284 93 -263C106 -237 116 -235 142 -262C171 -292 189 -298 238 -306C265 -310 272 -308 271 -269C266 -192 260 -148 252 -105C244 -63 229 -56 175 -74C141 -86 136 -78 155 -58C180 -31 201 2 209 18C221 45 233 48 260 15C292 -23 313 -84 317 -125C329 -252 332 -277 338 -285C354 -305 354 -316 301 -343C274 -356 266 -358 163 -318C179 -348 185 -370 190 -457C226 -458 273 -465 312 -474C338 -481 340 -489 325 -504C310 -516 313 -523 355 -600C363 -614 376 -629 385 -636Z"/>
</svg>