<svg xmlns="http://www.w3.org/2000/svg" viewBox="0 -1000 1000 1000">
	<path fill="#000000" d="M420 -495C413 -521 388 -538 345 -545C312 -550 306 -543 324 -516C335 -499 364 -469 386 -456C406 -444 429 -461 420 -495ZM863 -622C878 -638 878 -650 839 -674C800 -700 784 -699 770 -693C741 -680 706 -669 674 -662C589 -642 491 -630 450 -629C437 -629 434 -622 444 -611C469 -587 484 -585 550 -602C560 -605 574 -607 589 -610C592 -585 579 -537 557 -490C523 -419 476 -359 403 -294C381 -275 396 -265 418 -279C503 -329 553 -381 625 -518C634 -536 641 -549 648 -556C662 -569 662 -574 617 -617C668 -626 731 -638 751 -641C776 -644 787 -627 786 -615C784 -573 755 -482 734 -439C722 -415 708 -414 653 -439C637 -447 630 -436 644 -421C655 -410 676 -374 681 -360C691 -334 700 -329 723 -342C764 -361 790 -399 805 -460C834 -580 842 -600 863 -622ZM179 -495C166 -526 151 -524 145 -491C143 -479 123 -406 119 -397C99 -356 94 -328 104 -309C118 -280 133 -278 160 -316C179 -344 193 -461 179 -495ZM319 -698C331 -736 319 -757 278 -772C221 -791 211 -776 240 -742C251 -728 264 -678 264 -640C266 -329 257 -195 239 -110C228 -54 229 -26 246 16C258 42 270 43 284 18C296 -3 304 -65 304 -101C298 -561 303 -648 319 -698ZM856 -234C871 -247 875 -263 831 -285C779 -313 769 -314 744 -303C682 -274 574 -254 515 -255C447 -275 436 -267 458 -242C476 -219 493 -150 503 -55C507 -14 517 7 530 5C544 3 549 -15 548 -41C588 -38 635 -42 794 -58C813 -60 817 -75 805 -89C793 -102 790 -110 797 -130C813 -173 837 -214 856 -234ZM759 -238C751 -127 735 -102 713 -96C681 -87 597 -75 546 -74C540 -127 535 -183 531 -226C567 -227 620 -236 690 -251C745 -264 760 -255 759 -238Z"/>
</svg>