<svg xmlns="http://www.w3.org/2000/svg" viewBox="0 -1000 1000 1000">
	<path fill="#000000" d="M521 -283C474 -263 438 -249 413 -241C403 -238 399 -244 409 -259C441 -300 452 -314 524 -414C554 -455 568 -475 579 -483C600 -500 599 -512 571 -536C537 -565 523 -561 528 -533C531 -514 519 -485 488 -435C460 -433 428 -432 412 -432C402 -432 401 -437 408 -448C438 -500 451 -523 485 -593C495 -614 518 -651 533 -669C551 -690 547 -704 504 -725C460 -748 451 -738 464 -706C469 -692 461 -649 426 -561C398 -492 366 -451 349 -444C332 -437 331 -425 336 -392C340 -363 354 -363 373 -374C399 -388 432 -402 470 -407C387 -275 368 -256 344 -245C321 -234 319 -219 341 -188C360 -163 367 -165 385 -182C399 -197 439 -219 532 -259C534 -253 536 -248 538 -244C548 -224 564 -226 573 -256C582 -286 571 -315 539 -335C506 -354 497 -349 506 -321C509 -313 514 -299 521 -283ZM673 -485C653 -481 624 -475 608 -473C579 -468 581 -451 599 -445C614 -440 640 -441 666 -446C630 -257 554 -112 442 -12C422 6 427 14 461 -6C580 -78 670 -215 719 -463C751 -472 762 -474 776 -476C800 -479 807 -473 801 -396C793 -296 777 -212 754 -149C739 -107 732 -104 678 -130C650 -143 644 -132 657 -118C691 -77 700 -65 707 -36C714 -7 725 -5 745 -21C786 -53 810 -93 827 -173C833 -203 848 -300 850 -331C858 -431 867 -456 880 -465C899 -476 899 -492 860 -515C822 -538 807 -538 790 -525C779 -517 754 -506 726 -498C750 -629 754 -651 764 -665C776 -686 770 -699 722 -727C674 -756 663 -738 679 -714C697 -688 698 -633 673 -485ZM276 -562C300 -542 321 -526 339 -515C361 -503 377 -520 370 -549C363 -575 337 -586 276 -583C278 -650 280 -671 284 -681C298 -722 292 -734 245 -755C198 -776 184 -759 209 -723C220 -707 232 -658 233 -613C237 -335 225 -131 210 -94C199 -71 200 -40 224 10C233 30 245 32 258 13C263 6 273 -49 273 -101C273 -265 275 -481 276 -562ZM152 -478C142 -504 128 -502 128 -474C128 -459 114 -412 108 -396C89 -352 88 -329 98 -308C110 -281 132 -283 144 -316C170 -395 169 -434 152 -478Z"/>
</svg>