<svg xmlns="http://www.w3.org/2000/svg" viewBox="0 -1000 1000 1000">
	<path fill="#000000" d="M936 -406C906 -422 868 -422 805 -408C787 -404 752 -398 710 -391C748 -501 757 -515 776 -529C793 -543 794 -560 742 -584C709 -600 699 -600 670 -581C663 -576 628 -568 588 -560C598 -600 608 -631 612 -641C621 -659 622 -667 587 -691C680 -706 734 -719 772 -732C799 -743 797 -760 771 -770C745 -779 727 -779 642 -754C604 -743 503 -716 460 -713C431 -711 426 -700 459 -688C473 -682 506 -682 545 -686C550 -653 547 -599 538 -552C493 -544 450 -537 436 -537C416 -536 412 -523 430 -512C452 -499 461 -499 511 -516C516 -518 523 -520 533 -521C523 -474 506 -405 490 -357C395 -344 313 -332 303 -332C273 -332 269 -326 296 -306C320 -288 333 -287 427 -313C442 -317 514 -332 608 -345C737 -361 810 -360 895 -353C978 -346 989 -378 936 -406ZM359 -548C386 -572 388 -584 342 -610C301 -634 292 -634 267 -617C227 -590 180 -576 144 -582C85 -614 72 -601 91 -576C111 -549 125 -443 125 -368C125 -329 135 -283 154 -283C168 -283 173 -295 173 -361C219 -365 246 -370 318 -386C335 -390 337 -399 320 -414C312 -421 311 -425 319 -461C328 -501 345 -537 359 -548ZM801 -193C814 -205 812 -223 748 -256C722 -269 703 -273 681 -263C632 -242 505 -216 439 -221C382 -238 380 -223 399 -201C418 -179 438 -110 440 -60C443 15 460 34 472 31C484 28 488 18 489 -18C658 -33 713 -39 735 -42C772 -47 777 -56 752 -76C744 -83 741 -92 753 -119C767 -150 777 -171 801 -193ZM279 -538C275 -497 270 -461 265 -431C261 -411 257 -406 172 -391C168 -435 163 -505 160 -554C178 -554 194 -557 219 -562C273 -573 282 -568 279 -538ZM689 -512C675 -431 670 -406 662 -383C619 -376 572 -369 526 -362C547 -406 565 -459 581 -531C620 -539 660 -545 664 -544C690 -541 693 -536 689 -512ZM699 -185C688 -90 684 -86 664 -81C627 -72 538 -57 488 -56C486 -116 482 -156 473 -190C506 -191 538 -196 607 -211C629 -216 655 -217 671 -217C695 -217 702 -207 699 -185Z"/>
</svg>