<svg xmlns="http://www.w3.org/2000/svg" viewBox="0 -1000 1000 1000">
	<path fill="#000000" d="M791 -561C795 -609 761 -652 698 -671C652 -685 648 -680 670 -648C675 -640 684 -626 694 -611C617 -596 562 -587 503 -578C580 -681 608 -715 622 -731C641 -754 642 -768 597 -796C550 -825 533 -813 548 -767C554 -747 545 -702 524 -668C490 -611 468 -588 444 -580C414 -570 409 -557 431 -526C447 -504 464 -502 490 -520C504 -530 579 -556 709 -592C720 -576 732 -561 739 -554C766 -527 789 -530 791 -561ZM371 -541C397 -563 398 -573 353 -602C312 -629 303 -630 273 -612C244 -594 202 -581 163 -581C106 -623 91 -609 109 -577C123 -553 134 -448 134 -361C134 -322 143 -302 157 -302C167 -302 177 -313 178 -371C232 -376 274 -383 312 -391C345 -398 349 -410 335 -423C321 -437 320 -446 330 -472C345 -510 358 -530 371 -541ZM941 17C973 14 977 3 933 -10C774 -59 721 -90 588 -249L589 -256C693 -265 800 -266 857 -258C923 -248 934 -275 902 -296C869 -318 833 -326 783 -318C727 -310 661 -301 595 -292C599 -309 602 -322 605 -332C615 -367 616 -376 589 -392C646 -397 696 -407 741 -420C784 -432 777 -455 754 -461C729 -468 712 -465 637 -444C579 -427 534 -417 501 -417C508 -426 514 -432 518 -437C533 -452 532 -459 508 -477C474 -502 458 -495 462 -464C465 -443 429 -396 371 -338C352 -319 360 -310 384 -319C415 -331 453 -361 488 -402C505 -392 518 -389 540 -389C551 -362 551 -322 547 -286C423 -270 311 -257 293 -258C246 -260 247 -250 279 -223C294 -210 327 -209 355 -218C397 -233 467 -245 543 -252C523 -144 462 -70 308 -8C284 2 286 14 316 10C460 -9 564 -99 583 -212C629 -153 671 -97 697 -56C745 19 766 29 827 26C865 24 903 21 941 17ZM293 -537C285 -500 280 -475 275 -445C271 -421 265 -416 178 -403C178 -458 177 -505 175 -554C201 -556 224 -561 244 -566C291 -578 299 -564 293 -537Z"/>
</svg>