<svg xmlns="http://www.w3.org/2000/svg" viewBox="0 -1000 1000 1000">
	<path fill="#000000" d="M601 -188C617 -197 614 -208 580 -229C545 -250 533 -242 539 -219C543 -203 524 -154 468 -97C451 -79 454 -69 476 -83C508 -101 527 -116 565 -159C574 -169 589 -180 601 -188ZM788 -170C783 -197 744 -221 679 -231C636 -237 634 -233 653 -214C666 -203 712 -163 735 -145C773 -116 797 -124 788 -170ZM523 -279L524 -346C564 -343 597 -346 634 -360C656 -366 654 -385 630 -393C616 -397 607 -394 525 -365L526 -442C554 -438 579 -440 632 -456C656 -464 651 -481 624 -487C604 -491 597 -490 526 -462C527 -487 527 -511 527 -531C578 -540 624 -548 681 -559L678 -300C629 -293 574 -285 523 -279ZM391 -223C403 -211 408 -196 409 -136C410 -96 400 -57 387 -45C368 -30 368 -22 387 6C400 27 412 30 436 13C448 4 486 -6 509 -10C621 -28 721 -34 814 -31C892 -28 897 -46 850 -76C833 -88 795 -94 733 -83C619 -62 549 -52 453 -43C451 -97 457 -158 468 -186C473 -201 463 -208 425 -231C531 -255 797 -280 884 -279C949 -278 950 -302 918 -319C884 -338 865 -337 810 -324C790 -318 759 -313 724 -307L731 -570C750 -574 772 -578 794 -583C855 -596 853 -613 817 -623C798 -629 769 -627 732 -620C733 -665 737 -698 749 -725C759 -745 757 -759 683 -786C658 -795 642 -782 658 -759C677 -730 681 -702 681 -607C623 -591 572 -579 528 -570C531 -622 533 -648 538 -656C554 -685 545 -698 482 -720C454 -730 443 -718 460 -695C472 -678 485 -630 486 -560C445 -553 421 -549 395 -546C373 -544 373 -532 391 -526C419 -518 437 -516 486 -523L480 -274C413 -266 358 -262 336 -263C300 -266 296 -253 322 -235C341 -221 361 -217 391 -223ZM114 -490C109 -438 103 -414 91 -383C72 -334 73 -318 88 -282C100 -253 119 -255 132 -292C159 -367 157 -427 138 -493C132 -516 116 -513 114 -490ZM266 -552C266 -593 275 -660 284 -684C292 -709 287 -720 245 -737C192 -756 181 -747 195 -718C213 -683 222 -648 222 -556C223 -256 214 -133 198 -75C183 -19 186 -4 210 38C224 64 241 66 250 37C263 -10 264 -36 264 -116C264 -216 264 -457 265 -536C282 -514 296 -500 330 -469C344 -455 368 -469 363 -502C358 -530 341 -543 266 -552Z"/>
</svg>