<svg xmlns="http://www.w3.org/2000/svg" viewBox="0 -1000 1000 1000">
	<path fill="#000000" d="M358 -231C355 -255 340 -252 336 -235C326 -193 321 -183 306 -167C292 -152 289 -142 290 -118C291 -101 300 -97 317 -106C326 -111 335 -122 342 -136C361 -176 362 -195 358 -231ZM923 -108C918 -126 912 -177 910 -208C908 -248 891 -250 886 -205C878 -127 870 -108 847 -95C817 -78 796 -77 765 -85C728 -93 717 -118 731 -239C737 -300 741 -319 747 -339C754 -370 745 -384 719 -401C696 -416 684 -413 695 -383C698 -371 699 -331 697 -309C694 -275 690 -218 687 -175C684 -92 694 -59 745 -32C771 -19 853 -22 900 -45C927 -59 934 -78 923 -108ZM563 -214C559 -236 541 -244 499 -248C485 -249 482 -238 493 -227C508 -211 527 -194 541 -183C556 -174 568 -188 563 -214ZM595 -590C568 -603 551 -601 514 -585C472 -568 397 -550 342 -541C321 -537 322 -526 342 -517C361 -509 388 -511 417 -519C443 -527 493 -537 584 -552C624 -558 625 -577 595 -590ZM833 -578C832 -613 811 -633 752 -641C731 -644 724 -633 743 -612C766 -585 773 -578 795 -559C817 -540 834 -547 833 -578ZM516 -661C518 -704 499 -717 430 -731C409 -736 403 -724 418 -707C441 -677 460 -654 477 -637C493 -619 515 -626 516 -661ZM636 -449C619 -446 604 -443 592 -441C570 -438 574 -424 596 -419C605 -417 617 -416 631 -416C605 -259 564 -138 502 -53C487 -32 499 -22 515 -39C593 -120 630 -201 672 -420C734 -433 811 -450 832 -456C850 -462 848 -477 828 -485C804 -496 778 -493 724 -474C712 -470 696 -465 680 -461C685 -487 698 -553 702 -581C714 -654 717 -671 721 -678C733 -698 730 -712 688 -731C642 -754 632 -746 652 -708C663 -688 660 -621 636 -449ZM405 -302C411 -303 417 -303 422 -304C429 -285 432 -265 434 -219C436 -163 436 -135 432 -110C427 -77 422 -71 382 -85C363 -91 358 -78 375 -61C391 -45 406 -24 409 -16C419 8 432 9 450 -16C474 -49 479 -64 477 -105C472 -214 472 -233 476 -255C481 -279 479 -286 451 -307C471 -310 490 -313 516 -318C539 -322 541 -333 531 -347C524 -356 525 -364 529 -375C534 -388 549 -409 558 -417C573 -431 572 -444 538 -465C516 -478 506 -478 487 -470C457 -456 407 -445 375 -441C332 -458 328 -443 341 -419C353 -400 364 -360 370 -320C375 -286 389 -278 397 -278C403 -278 405 -285 405 -302ZM393 -420C421 -424 453 -431 473 -435C494 -440 500 -432 495 -396C489 -350 484 -343 460 -338C442 -334 428 -330 404 -326C401 -360 398 -390 393 -420ZM149 -490C138 -517 126 -516 124 -493C120 -451 109 -408 98 -384C76 -335 78 -319 94 -287C103 -268 117 -269 129 -294C165 -368 164 -451 149 -490ZM256 -544C259 -615 264 -642 271 -660C283 -688 279 -702 234 -725C189 -749 172 -736 189 -709C202 -688 215 -620 215 -541C216 -316 203 -144 194 -98C183 -42 184 -24 201 11C214 37 233 38 240 8C252 -32 252 -38 252 -143C251 -332 253 -448 255 -522C279 -486 295 -468 319 -452C333 -443 343 -454 340 -483C336 -513 319 -533 256 -544Z"/>
</svg>