<svg xmlns="http://www.w3.org/2000/svg" viewBox="0 -1000 1000 1000">
	<path fill="#000000" d="M772 25C779 -18 763 -62 636 -111C623 -116 616 -109 627 -95C653 -57 687 -15 733 39C754 66 767 60 772 25ZM554 -69C575 -76 573 -103 524 -122C496 -132 485 -129 484 -108C482 -88 409 -19 323 24C300 35 304 50 329 43C393 26 419 12 496 -39C522 -57 534 -64 554 -69ZM597 -593C597 -617 598 -639 600 -656C623 -659 643 -662 656 -664C686 -669 691 -665 687 -652C677 -612 673 -609 638 -602C624 -599 610 -595 597 -593ZM492 -553C510 -556 532 -559 554 -561L553 -504C403 -481 356 -476 316 -475C288 -474 288 -464 310 -452C348 -433 358 -433 389 -443C412 -451 495 -468 571 -478C665 -492 798 -499 875 -491C937 -485 941 -504 908 -528C883 -547 855 -551 794 -543C780 -541 743 -536 594 -511L596 -566C643 -571 686 -574 699 -574C717 -574 722 -578 722 -592C722 -602 727 -609 740 -619C745 -623 765 -636 777 -640C806 -649 801 -671 738 -701C713 -713 704 -713 683 -705C672 -701 652 -695 602 -685C607 -721 611 -736 619 -749C631 -768 629 -785 564 -808C522 -822 509 -809 529 -784C540 -771 548 -739 551 -675C510 -668 467 -660 436 -656C390 -664 385 -653 402 -631C416 -615 433 -589 463 -545C475 -526 490 -530 492 -553ZM467 -635C479 -637 537 -647 553 -649C554 -630 554 -610 554 -585C529 -581 506 -578 486 -575C474 -605 470 -619 467 -635ZM470 -141C516 -140 575 -142 654 -148C677 -150 684 -150 693 -129C704 -101 714 -100 727 -119C740 -139 747 -172 743 -216C741 -239 739 -285 739 -317C739 -363 742 -378 749 -388C762 -405 759 -417 710 -443C678 -461 670 -459 656 -453C632 -443 537 -423 464 -416C416 -435 410 -427 423 -400C429 -387 433 -358 432 -322C430 -226 427 -195 423 -179C417 -157 422 -139 437 -119C450 -102 462 -104 470 -141ZM475 -329C475 -350 475 -371 475 -387C520 -396 575 -403 626 -408C664 -412 667 -410 673 -380C684 -325 686 -251 681 -206C678 -173 672 -169 660 -179C657 -182 649 -182 627 -178C611 -175 530 -168 472 -164C473 -179 473 -200 473 -223C514 -217 553 -219 624 -234C650 -239 649 -259 621 -264C602 -267 584 -265 568 -262C521 -251 499 -247 474 -244C475 -264 475 -284 475 -304C525 -303 596 -313 631 -327C650 -334 649 -346 629 -350C609 -354 572 -350 550 -343C532 -337 508 -332 475 -329ZM119 -310C141 -339 153 -478 119 -522C107 -539 104 -538 103 -526C102 -508 77 -387 75 -377C63 -329 64 -317 72 -304C86 -276 93 -275 119 -310ZM262 -596C264 -643 268 -682 271 -691C287 -737 285 -753 226 -771C167 -787 161 -777 192 -741C204 -726 212 -688 214 -629C223 -313 211 -140 202 -113C184 -47 188 -23 206 17C220 46 234 46 246 16C256 -11 261 -55 260 -126C258 -279 259 -465 262 -580C280 -560 314 -533 330 -524C358 -510 374 -524 360 -561C352 -582 332 -596 262 -596Z"/>
</svg>