<svg xmlns="http://www.w3.org/2000/svg" viewBox="0 -1000 1000 1000">
	<path fill="#000000" d="M118 -509C113 -458 107 -432 95 -403C77 -354 77 -338 90 -302C98 -281 113 -283 125 -309C155 -374 159 -457 136 -507C124 -534 120 -532 118 -509ZM262 -577C265 -651 269 -672 275 -686C290 -720 287 -727 236 -751C190 -773 179 -761 196 -734C212 -711 223 -631 223 -567C224 -259 215 -131 201 -87C185 -32 193 -12 213 23C227 48 239 49 248 19C257 -12 259 -27 259 -132C258 -345 260 -473 261 -551C284 -530 302 -516 321 -504C343 -488 362 -509 355 -534C347 -558 334 -567 262 -577ZM657 -492C673 -498 673 -512 647 -515C633 -517 614 -517 588 -508C562 -499 532 -492 500 -488C477 -485 478 -475 494 -469C508 -463 533 -464 563 -469C600 -475 638 -485 657 -492ZM431 -526C470 -526 500 -530 534 -538C573 -547 662 -557 722 -559C757 -560 760 -553 732 -510C717 -488 727 -484 749 -497C780 -514 804 -522 842 -526C879 -531 879 -549 803 -596C782 -609 769 -610 740 -601C704 -589 594 -571 431 -550C410 -578 397 -572 394 -547C391 -526 384 -507 373 -485C367 -472 366 -458 373 -444C384 -429 399 -427 408 -446C419 -467 425 -486 431 -526ZM533 -674C530 -695 530 -707 532 -716C536 -736 528 -744 486 -750C435 -757 435 -741 451 -728C470 -714 480 -698 491 -669C456 -664 423 -662 397 -660C367 -658 367 -648 388 -636C402 -626 413 -623 446 -631C462 -635 478 -638 500 -642C502 -634 504 -624 507 -614C521 -562 548 -575 541 -617C539 -628 538 -638 536 -647C564 -650 599 -654 647 -659C638 -628 632 -611 627 -600C614 -577 633 -580 644 -592C661 -610 674 -630 687 -663C725 -665 777 -669 797 -668C851 -665 856 -682 824 -702C807 -713 786 -717 756 -710C741 -706 721 -703 701 -698C709 -720 718 -740 728 -750C743 -767 741 -780 700 -797C656 -816 644 -801 657 -779C665 -762 666 -731 656 -691C616 -685 574 -679 533 -674ZM506 -387C500 -370 488 -359 467 -343C445 -326 419 -309 391 -295C366 -281 378 -266 403 -276C440 -292 472 -308 508 -332C512 -330 514 -328 518 -326C479 -261 426 -221 348 -170C333 -160 335 -147 354 -154C431 -180 480 -215 546 -302C554 -294 560 -284 566 -272C532 -199 425 -93 327 -42C306 -32 310 -16 336 -25C428 -57 512 -115 587 -219C608 -154 608 -113 600 -77C589 -26 569 -22 504 -44C488 -51 480 -40 498 -27C530 -2 544 16 559 43C568 61 583 60 603 44C636 17 662 -53 657 -124C653 -168 641 -213 621 -255C634 -264 645 -271 657 -277C693 -228 729 -189 759 -149C800 -96 812 -93 957 -116C979 -120 979 -136 955 -140C848 -162 779 -194 678 -293C731 -327 755 -341 775 -346C797 -352 797 -368 767 -394C736 -421 725 -418 724 -394C722 -372 685 -331 611 -272C608 -278 604 -283 600 -290C581 -316 567 -334 530 -348C542 -356 553 -364 560 -369C568 -375 566 -380 543 -394C623 -408 667 -418 693 -427C720 -436 719 -450 696 -455C676 -459 662 -461 627 -449C571 -432 508 -416 452 -407C427 -403 430 -392 463 -386C475 -385 490 -385 506 -387Z"/>
</svg>