<svg xmlns="http://www.w3.org/2000/svg" viewBox="0 -1000 1000 1000">
	<path fill="#000000" d="M469 -507C494 -418 529 -325 580 -225C538 -174 481 -122 395 -60C378 -47 381 -36 401 -42C460 -60 545 -123 603 -180C669 -68 766 13 856 47C912 66 924 58 911 13C900 -26 896 -57 900 -151C901 -179 888 -181 879 -154C863 -106 854 -80 843 -59C836 -45 826 -42 807 -55C740 -98 685 -153 642 -222C667 -254 696 -301 714 -334C738 -386 750 -405 761 -416C777 -433 773 -446 728 -470C690 -491 671 -482 679 -453C690 -422 659 -344 615 -274C580 -346 541 -448 521 -518C605 -537 657 -550 687 -560C723 -572 725 -584 695 -598C666 -610 647 -608 509 -561C480 -688 480 -714 485 -739C490 -761 483 -772 416 -789C366 -802 357 -787 381 -764C395 -750 416 -707 421 -682C432 -643 440 -613 459 -545C357 -515 286 -507 246 -511C185 -541 157 -522 181 -490C197 -466 217 -383 213 -321C204 -186 194 -151 173 -135C145 -115 144 -102 163 -65C185 -23 193 -24 218 -62C235 -91 273 -131 373 -218C413 -253 407 -268 366 -245C305 -212 286 -203 254 -188C263 -281 264 -351 254 -482C303 -474 343 -479 469 -507ZM720 -669C712 -725 684 -747 592 -740C573 -739 572 -729 586 -718C618 -688 644 -667 677 -649C705 -635 723 -649 720 -669Z"/>
</svg>