<svg xmlns="http://www.w3.org/2000/svg" viewBox="0 -1000 1000 1000">
	<path fill="#000000" d="M321 -544C324 -651 329 -695 337 -712C350 -738 350 -755 302 -776C240 -802 230 -788 252 -759C269 -738 276 -713 280 -531C223 -513 172 -502 129 -497C104 -493 101 -480 133 -474C167 -468 201 -471 280 -484C281 -446 281 -405 280 -364C147 -286 118 -274 90 -272C50 -269 47 -258 92 -224C124 -200 139 -200 159 -226C169 -239 184 -251 279 -320C278 -238 273 -161 269 -113C266 -84 250 -78 193 -95C168 -102 161 -90 179 -76C221 -43 244 -20 256 12C261 26 279 29 293 5C320 -38 326 -70 324 -129C321 -203 319 -308 319 -349C381 -394 398 -415 393 -419C387 -425 377 -421 319 -387C319 -427 319 -459 320 -490C344 -496 371 -502 406 -509C432 -514 434 -537 402 -548C379 -556 359 -555 321 -544ZM589 -605C607 -574 612 -534 612 -421C526 -407 444 -396 422 -395C388 -394 386 -387 411 -370C436 -353 455 -352 489 -362C521 -371 564 -380 612 -387C613 -287 613 -154 613 -87C613 -51 617 6 625 40C631 71 644 71 651 33C660 -6 666 -51 666 -88C667 -216 667 -269 667 -396C755 -406 815 -408 898 -402C955 -398 960 -417 919 -448C892 -468 871 -472 818 -461C768 -449 725 -441 667 -432C667 -478 674 -547 681 -567C687 -584 681 -592 632 -612C696 -622 744 -629 788 -634C830 -638 832 -658 800 -675C777 -687 743 -688 693 -674C565 -638 535 -631 495 -628C470 -626 471 -615 501 -608C533 -600 551 -600 589 -605Z"/>
</svg>