<svg xmlns="http://www.w3.org/2000/svg" viewBox="0 -1000 1000 1000">
	<path fill="#000000" d="M502 -672C451 -688 441 -676 463 -650C473 -638 481 -599 486 -519C490 -451 487 -324 476 -167C471 -88 467 -79 459 -70C444 -55 439 -40 453 -15C478 33 498 33 512 7C530 -24 575 -68 651 -130C670 -144 666 -160 638 -147C607 -134 555 -108 520 -86C522 -178 524 -273 526 -367C561 -337 579 -319 599 -299C645 -247 703 -190 764 -139C810 -101 823 -96 967 -127C992 -132 992 -142 963 -149C831 -180 772 -203 672 -285C761 -351 810 -381 825 -387C844 -395 842 -416 800 -431C747 -448 739 -443 738 -415C737 -395 716 -360 657 -298C613 -334 575 -364 526 -390C526 -397 526 -403 526 -409C562 -412 583 -416 614 -424C642 -433 656 -434 661 -430C678 -414 690 -414 700 -434C711 -456 729 -502 737 -534C750 -584 759 -612 767 -628C772 -640 787 -658 803 -670C818 -681 819 -696 795 -712C775 -724 750 -737 734 -742C712 -748 703 -747 685 -731C667 -715 565 -678 502 -672ZM527 -437C528 -476 529 -508 530 -533C560 -527 589 -533 623 -548C653 -562 650 -581 614 -584C603 -585 587 -581 530 -559C531 -609 530 -629 527 -646C557 -649 593 -657 611 -667C622 -672 651 -678 673 -680C693 -682 704 -674 704 -659C704 -641 701 -615 688 -558C677 -507 671 -486 666 -474C659 -458 651 -455 642 -459C634 -463 614 -463 527 -437ZM282 -467C282 -421 282 -382 281 -345C147 -263 97 -245 70 -243C30 -240 27 -227 68 -198C103 -173 113 -174 142 -199C180 -232 219 -263 280 -305C278 -233 274 -177 269 -128C264 -73 257 -69 190 -89C171 -94 164 -84 182 -68C219 -35 241 -5 252 22C258 38 272 40 284 27C315 -8 324 -46 324 -123C324 -153 324 -262 324 -336C404 -390 411 -399 403 -407C397 -413 383 -409 324 -373C324 -388 324 -446 325 -477C370 -487 390 -493 412 -504C429 -511 428 -532 406 -539C390 -544 378 -543 326 -527C330 -626 339 -670 352 -701C363 -727 356 -744 303 -766C254 -788 241 -777 264 -742C278 -721 282 -697 282 -514C245 -503 178 -487 126 -478C107 -475 107 -465 128 -453C148 -443 170 -442 282 -467Z"/>
</svg>