<svg xmlns="http://www.w3.org/2000/svg" viewBox="0 -1000 1000 1000">
	<path fill="#000000" d="M599 -630C534 -663 519 -651 537 -622C551 -600 566 -555 574 -484C577 -455 588 -437 600 -430C595 -429 590 -425 585 -419C576 -407 464 -365 337 -331C304 -321 302 -312 331 -311C358 -310 413 -319 476 -337C484 -326 489 -311 493 -284C444 -274 406 -269 349 -264C325 -262 325 -249 348 -242C361 -237 379 -237 496 -250C497 -236 498 -218 498 -199C350 -180 184 -163 156 -163C122 -163 120 -155 150 -135C175 -119 183 -118 271 -134C333 -145 415 -157 498 -165C498 -123 495 -69 490 -51C484 -27 476 -23 401 -43C376 -51 372 -38 391 -23C424 5 439 23 458 54C466 69 481 73 499 56C541 14 548 -11 548 -66C548 -94 547 -132 546 -169C661 -179 772 -184 834 -178C897 -172 903 -200 852 -226C822 -241 777 -241 736 -231C715 -227 675 -221 545 -204C545 -224 545 -241 544 -257C625 -267 645 -271 672 -279C696 -286 695 -300 675 -307C660 -313 621 -311 542 -295C539 -324 533 -338 516 -348C560 -360 631 -377 640 -379C666 -384 666 -401 615 -428C621 -430 624 -438 623 -461C679 -467 741 -474 788 -481C810 -484 810 -489 800 -508C793 -520 790 -531 795 -543C801 -560 812 -581 831 -595C858 -617 856 -630 799 -664C773 -680 767 -680 739 -667C712 -654 657 -639 599 -630ZM621 -488C616 -527 612 -562 607 -604C657 -609 683 -613 728 -622C748 -626 755 -617 753 -595C751 -578 748 -562 737 -530C731 -512 711 -501 621 -488ZM293 -571L422 -596C410 -562 393 -526 371 -500C352 -506 329 -512 302 -518C281 -523 276 -534 293 -571ZM271 -602C181 -586 160 -585 135 -585C83 -585 79 -574 113 -552C148 -530 160 -528 198 -543C223 -552 239 -558 258 -562C238 -515 239 -510 265 -501C293 -490 320 -480 341 -469C290 -418 237 -385 147 -354C123 -346 127 -331 151 -335C249 -354 304 -376 382 -447C407 -433 428 -417 445 -402C478 -373 494 -384 486 -419C478 -448 461 -466 418 -484C435 -507 454 -543 476 -592C481 -604 489 -617 500 -630C508 -641 505 -653 464 -681C441 -696 432 -689 432 -662C432 -656 432 -647 429 -626L309 -608C340 -680 355 -704 374 -722C389 -736 386 -752 369 -765C357 -776 339 -784 312 -793C301 -796 295 -792 303 -770C309 -752 304 -703 271 -602Z"/>
</svg>