<svg xmlns="http://www.w3.org/2000/svg" viewBox="0 -1000 1000 1000">
	<path fill="#000000" d="M352 -725C349 -751 317 -775 258 -768C244 -766 240 -762 251 -751C274 -731 307 -709 320 -702C338 -691 355 -702 352 -725ZM836 -692C819 -718 789 -742 710 -730C689 -727 687 -720 704 -709C766 -668 791 -658 812 -655C842 -650 850 -669 836 -692ZM596 -754C604 -778 603 -782 554 -803C517 -819 508 -809 525 -784C541 -763 548 -674 541 -635C536 -607 537 -583 545 -571C558 -549 569 -550 578 -578C582 -592 587 -620 587 -676C587 -705 591 -743 596 -754ZM454 -695C447 -716 438 -716 432 -696C428 -682 416 -659 407 -645C402 -633 395 -600 399 -587C406 -558 426 -552 448 -604C457 -630 462 -677 454 -695ZM275 -616C272 -637 236 -661 187 -658C164 -657 161 -653 174 -641C198 -620 224 -603 244 -591C263 -579 279 -590 275 -616ZM705 -598C725 -610 724 -623 695 -648C672 -666 660 -664 655 -641C651 -618 608 -570 572 -543C489 -484 375 -430 291 -405C270 -399 270 -385 294 -388C407 -403 527 -450 651 -556C685 -584 692 -589 705 -598ZM338 -570C351 -590 343 -599 325 -578C305 -558 282 -531 256 -502C227 -468 198 -446 188 -445C155 -442 153 -436 178 -398C205 -357 225 -366 249 -425C251 -433 276 -472 338 -570ZM873 -249C836 -274 800 -276 696 -255C681 -252 624 -244 553 -236C552 -257 551 -278 550 -295C591 -302 651 -314 667 -319C697 -326 695 -339 664 -343C643 -347 626 -347 548 -330C551 -363 547 -372 511 -387C552 -395 624 -408 645 -412C676 -418 676 -433 641 -453C613 -469 604 -468 593 -454C588 -448 565 -435 539 -426C493 -412 427 -395 367 -383C343 -378 343 -368 369 -369C400 -370 435 -374 484 -381C493 -368 501 -346 505 -323C464 -315 392 -304 374 -302C351 -300 350 -292 372 -285C394 -277 408 -276 511 -290C513 -271 515 -251 515 -231C375 -213 200 -194 164 -195C136 -195 132 -187 157 -172C196 -149 215 -149 337 -175C390 -186 467 -196 515 -202C513 -88 510 -75 504 -59C489 -18 478 -11 408 -22C385 -26 384 -18 400 -6C409 2 445 42 452 59C464 79 484 79 507 60C552 24 577 -54 566 -131C562 -152 559 -179 556 -205C689 -216 801 -217 828 -212C911 -198 920 -218 873 -249Z"/>
</svg>