<svg xmlns="http://www.w3.org/2000/svg" viewBox="0 -1000 1000 1000">
	<path fill="#000000" d="M276 -461C276 -414 276 -373 276 -333C158 -261 98 -234 78 -232C39 -229 35 -222 76 -191C111 -165 117 -164 149 -192C172 -212 220 -250 275 -289C274 -226 272 -163 270 -122C267 -67 253 -61 194 -77C176 -83 168 -71 184 -56C228 -12 245 5 256 28C264 44 280 43 288 33C321 -12 326 -41 325 -118C325 -145 323 -249 322 -320C412 -382 419 -394 410 -402C403 -409 388 -403 321 -362C320 -402 320 -438 321 -470C367 -481 394 -490 418 -501C435 -509 433 -530 411 -536C396 -540 375 -540 321 -521C324 -606 331 -658 343 -685C354 -708 347 -728 293 -750C244 -772 233 -760 255 -729C271 -703 275 -650 276 -506C245 -497 190 -484 127 -473C108 -470 106 -458 129 -450C165 -438 181 -439 276 -461ZM544 -384C506 -405 491 -395 507 -361C525 -322 511 -149 495 -103C480 -63 480 -42 488 -20C499 16 518 17 529 -10C538 -33 550 -93 556 -173C596 -167 654 -169 703 -187C725 -193 721 -212 685 -222C674 -225 638 -217 557 -195C558 -212 559 -239 559 -270C602 -268 639 -272 700 -286C726 -293 727 -309 694 -318C679 -322 642 -319 559 -292C559 -313 558 -335 558 -358C601 -367 664 -378 704 -383C738 -387 744 -382 751 -348C763 -286 768 -159 765 -85C764 -56 756 -53 706 -65C682 -71 678 -65 696 -46C726 -16 749 13 757 29C771 52 786 52 799 31C822 -9 833 -59 827 -113C802 -336 803 -348 815 -373C825 -395 824 -401 785 -420C753 -436 734 -435 718 -425C692 -411 614 -392 544 -384ZM662 -498C632 -493 601 -488 571 -484C567 -545 567 -570 573 -592C578 -612 571 -618 526 -630C498 -639 479 -627 503 -600C519 -582 526 -557 532 -478C488 -471 460 -467 436 -465C396 -462 394 -448 421 -437C445 -427 461 -424 481 -431C530 -445 584 -454 665 -464C775 -477 856 -482 880 -480C957 -475 965 -505 911 -526C890 -535 858 -539 807 -525C787 -520 748 -513 702 -505C704 -538 706 -583 706 -613C744 -605 769 -608 824 -621C860 -629 857 -650 821 -662C809 -667 787 -661 707 -636C710 -682 714 -711 720 -724C729 -744 721 -753 667 -771C628 -784 617 -772 636 -743C653 -716 663 -625 662 -498Z"/>
</svg>