<svg xmlns="http://www.w3.org/2000/svg" viewBox="0 -1000 1000 1000">
	<path fill="#000000" d="M844 13C841 -38 813 -74 692 -129C672 -138 667 -130 682 -110C729 -50 765 -6 790 20C834 65 847 59 844 13ZM572 -78C598 -90 599 -100 561 -125C524 -149 511 -147 508 -116C506 -101 493 -85 456 -51C411 -10 383 10 349 29C330 39 336 53 354 47C425 23 460 4 509 -34C543 -61 561 -73 572 -78ZM773 -217C778 -440 783 -461 793 -478C809 -509 807 -517 770 -538C736 -557 721 -560 684 -543C672 -537 647 -530 607 -521C615 -551 623 -577 630 -601C716 -610 761 -618 801 -628C842 -639 841 -658 818 -668C788 -680 763 -678 707 -662C690 -657 666 -651 644 -647C661 -699 672 -726 680 -737C693 -752 687 -768 651 -781C593 -800 578 -788 596 -754C602 -742 601 -692 592 -637C536 -626 487 -619 448 -617C420 -616 420 -601 444 -593C470 -586 501 -586 584 -595C579 -570 573 -543 565 -514C546 -511 528 -509 508 -507C458 -527 447 -517 461 -492C477 -463 486 -422 477 -180C431 -176 390 -173 365 -173C334 -173 331 -166 354 -152C381 -135 398 -132 438 -140C543 -161 816 -184 887 -173C966 -161 977 -193 925 -217C891 -234 860 -235 773 -217ZM523 -186C524 -205 524 -226 525 -244C569 -244 612 -249 656 -261C685 -268 687 -290 663 -297C651 -300 625 -298 525 -274C526 -292 526 -309 526 -326C568 -324 598 -327 652 -341C675 -347 679 -365 658 -373C642 -378 621 -378 527 -353C527 -370 527 -385 527 -400C574 -403 611 -408 649 -417C677 -424 681 -439 656 -451C641 -458 618 -456 528 -430C528 -447 528 -464 528 -480C557 -481 590 -486 670 -501C701 -506 716 -503 719 -475C728 -396 729 -325 722 -209C664 -202 590 -193 523 -186ZM256 -457C256 -418 255 -380 254 -341C128 -265 100 -256 62 -252C26 -249 25 -236 66 -206C101 -180 114 -183 132 -202C156 -226 179 -244 253 -297C252 -230 249 -164 246 -105C245 -77 232 -68 176 -85C149 -93 143 -79 165 -60C191 -37 214 -7 228 27C233 39 253 42 269 15C300 -33 306 -58 304 -116C301 -210 299 -274 298 -329C321 -343 342 -359 354 -368C395 -401 396 -406 393 -408C385 -413 362 -405 298 -368C298 -401 299 -432 300 -466C344 -474 369 -480 398 -490C428 -501 428 -517 394 -527C376 -533 355 -531 300 -515C302 -620 309 -665 322 -689C334 -713 329 -730 279 -749C218 -772 210 -757 232 -728C250 -707 256 -652 256 -502C183 -479 146 -472 103 -468C87 -467 85 -454 110 -446C135 -438 153 -439 256 -457Z"/>
</svg>