<svg xmlns="http://www.w3.org/2000/svg" viewBox="0 -1000 1000 1000">
	<path fill="#000000" d="M368 -392C362 -398 352 -393 293 -360C293 -403 294 -442 295 -477C336 -494 357 -505 367 -513C391 -531 379 -562 345 -548C329 -541 313 -532 296 -525C301 -639 309 -697 315 -710C332 -748 330 -756 284 -778C228 -805 217 -792 238 -761C256 -734 260 -715 263 -513C211 -495 154 -478 119 -472C103 -469 100 -462 120 -452C139 -442 219 -448 263 -463C263 -429 263 -386 262 -342C125 -264 68 -234 47 -231C13 -228 6 -222 36 -190C59 -166 72 -165 102 -191C120 -207 192 -258 261 -305C259 -231 257 -162 254 -138C249 -102 235 -99 200 -110C181 -116 177 -109 187 -97C203 -78 233 -37 245 -8C252 8 269 9 276 -5C298 -52 301 -81 299 -115C297 -148 294 -270 293 -327C367 -379 373 -387 368 -392ZM592 -646C623 -671 622 -679 586 -694C549 -709 544 -709 531 -697C512 -679 472 -662 431 -653C404 -647 408 -635 434 -631C450 -629 482 -633 514 -642C529 -646 531 -644 527 -625C512 -559 502 -543 489 -536C471 -526 442 -518 423 -524C401 -531 396 -521 408 -503C425 -478 423 -416 397 -390C385 -378 382 -363 387 -349C393 -332 399 -334 414 -348C439 -371 464 -381 498 -382C515 -383 522 -373 527 -340C536 -283 535 -172 523 -121C512 -76 504 -70 457 -76C436 -78 433 -69 448 -58C472 -41 487 -22 496 -5C503 9 516 12 532 -8C565 -49 577 -103 575 -253C574 -328 577 -352 581 -363C589 -384 590 -394 538 -414C520 -421 508 -420 497 -413C493 -410 466 -400 438 -390C446 -436 449 -467 449 -496C467 -495 516 -504 544 -513C560 -518 559 -534 546 -538C530 -542 527 -553 547 -589C563 -616 576 -632 592 -646ZM893 -379C905 -399 901 -414 842 -437C817 -447 804 -449 781 -438C748 -421 729 -414 675 -404C685 -440 688 -471 688 -503C711 -505 781 -518 799 -524C816 -529 819 -542 806 -549C789 -558 789 -568 815 -612C836 -647 846 -658 867 -669C891 -682 889 -693 840 -722C811 -741 807 -742 786 -727C760 -710 729 -701 693 -694C664 -688 671 -678 692 -673C704 -670 733 -669 754 -676C787 -687 789 -685 785 -663C767 -572 764 -564 745 -555C702 -532 686 -530 669 -540C634 -558 626 -548 649 -514C662 -497 662 -439 644 -417C623 -391 622 -385 629 -366C634 -352 645 -351 656 -362C670 -375 744 -401 785 -401C808 -401 825 -382 828 -347C838 -234 826 -125 807 -79C791 -42 774 -42 723 -68C703 -78 699 -70 719 -47C728 -36 744 -5 757 29C764 44 780 52 798 33C868 -41 871 -56 878 -277C880 -347 883 -360 893 -379ZM736 -287C733 -306 717 -317 668 -319C652 -320 649 -309 660 -298C665 -293 697 -266 710 -260C725 -253 740 -263 736 -287ZM437 -269C433 -294 412 -310 372 -310C351 -310 351 -300 363 -289C382 -270 399 -256 413 -249C426 -242 441 -247 437 -269ZM798 -214C819 -226 805 -236 794 -231C763 -219 744 -213 710 -202C692 -196 667 -189 636 -185C612 -182 609 -175 634 -153C656 -134 662 -133 687 -150C710 -166 748 -187 798 -214ZM494 -212C513 -227 507 -241 487 -228C458 -211 443 -204 419 -193C378 -174 369 -169 337 -161C316 -156 313 -149 339 -127C360 -111 368 -111 394 -133C416 -151 472 -195 494 -212Z"/>
</svg>