<svg xmlns="http://www.w3.org/2000/svg" viewBox="0 -1000 1000 1000">
	<path fill="#000000" d="M319 -556C323 -657 331 -703 339 -721C352 -749 349 -754 298 -777C242 -801 226 -789 248 -760C265 -739 272 -716 275 -545C201 -524 166 -519 131 -517C115 -516 109 -502 132 -492C170 -478 194 -480 275 -497C276 -452 276 -406 275 -360C165 -285 130 -272 101 -270C66 -268 66 -246 108 -224C152 -200 155 -201 173 -225C185 -239 216 -268 274 -313C272 -236 269 -165 265 -119C261 -80 248 -75 197 -94C170 -103 161 -91 185 -71C214 -47 236 -20 248 13C253 29 278 31 291 6C321 -47 322 -71 320 -130C318 -189 316 -282 316 -345C393 -400 419 -433 412 -439C407 -444 366 -424 316 -386C316 -431 316 -470 317 -504C345 -510 372 -516 402 -524C433 -533 432 -555 401 -562C381 -568 362 -568 319 -556ZM536 -480C566 -483 591 -486 649 -497C694 -505 708 -504 712 -498C718 -487 729 -486 744 -501C759 -516 784 -554 799 -591C816 -637 828 -659 851 -677C866 -687 867 -698 846 -715C831 -727 817 -734 788 -751C768 -763 756 -761 714 -746C690 -737 556 -709 476 -694C422 -713 413 -698 433 -674C454 -649 469 -614 496 -522C506 -488 516 -466 525 -468C531 -470 535 -474 536 -480ZM522 -583C562 -580 617 -587 693 -607C716 -613 721 -629 691 -639C676 -644 657 -642 519 -601C507 -648 503 -661 501 -669C558 -682 645 -698 690 -704C740 -709 755 -704 756 -685C757 -665 749 -623 730 -574C712 -525 709 -522 693 -535C688 -538 662 -534 608 -522C584 -517 564 -513 534 -507C530 -535 526 -559 522 -583ZM518 -225C513 -229 494 -225 481 -218C416 -187 385 -177 361 -173C332 -169 331 -160 355 -138C379 -115 390 -114 407 -132C420 -144 459 -175 499 -204C514 -215 521 -222 518 -225ZM793 -242C787 -246 780 -243 762 -232C688 -190 650 -173 627 -170C597 -166 592 -153 627 -125C650 -106 657 -108 681 -135C700 -155 761 -208 774 -218C794 -235 798 -239 793 -242ZM587 -364C602 -383 602 -393 571 -409C537 -427 528 -425 508 -414C496 -407 465 -398 439 -395C410 -392 409 -377 427 -367C434 -363 442 -362 459 -365C473 -369 499 -372 513 -374C525 -374 531 -369 532 -345C536 -247 533 -157 524 -101C519 -71 506 -64 459 -74C434 -79 430 -69 450 -54C474 -34 488 -16 496 4C507 32 518 32 534 10C564 -28 575 -62 575 -103C577 -342 577 -352 587 -364ZM875 -398C891 -424 885 -435 844 -454C807 -472 798 -471 773 -458C752 -448 677 -429 651 -427C619 -423 616 -416 642 -399C656 -389 667 -387 684 -395C717 -408 753 -417 776 -418C797 -419 804 -415 807 -384C821 -277 819 -207 804 -91C800 -55 783 -51 733 -68C705 -77 701 -62 716 -50C762 -12 775 1 782 24C789 47 804 49 821 29C854 -11 864 -36 867 -80C869 -108 869 -144 866 -192C858 -312 862 -377 875 -398ZM461 -266C464 -287 441 -311 406 -316C392 -318 385 -313 393 -299C403 -279 420 -256 427 -250C443 -238 460 -248 461 -266ZM737 -295C735 -321 719 -338 673 -341C653 -342 649 -336 660 -320C663 -314 695 -280 706 -274C724 -265 738 -271 737 -295Z"/>
</svg>