<svg xmlns="http://www.w3.org/2000/svg" viewBox="0 -1000 1000 1000">
	<path fill="#000000" d="M271 -465C271 -420 271 -380 270 -344C151 -273 107 -258 81 -256C44 -252 45 -240 81 -212C113 -188 128 -188 154 -213C172 -232 195 -248 270 -300C268 -210 266 -152 262 -115C257 -61 252 -53 185 -72C165 -78 160 -65 177 -52C217 -19 234 7 245 34C250 48 266 50 276 39C307 5 317 -24 317 -110C317 -139 315 -253 314 -330C394 -384 401 -397 393 -405C387 -411 373 -406 314 -371C314 -410 314 -444 314 -474C355 -483 379 -491 402 -502C420 -510 417 -531 396 -537C376 -543 355 -540 315 -526C318 -640 323 -678 334 -711C343 -738 340 -756 288 -779C233 -802 226 -788 247 -756C264 -729 271 -689 271 -511C238 -502 170 -486 116 -478C99 -476 95 -463 120 -455C152 -446 183 -447 271 -465ZM703 -131C691 -140 666 -142 580 -123C548 -115 519 -110 475 -106C474 -123 477 -163 480 -171C490 -196 476 -211 445 -219C420 -227 410 -214 429 -193C446 -172 444 -120 423 -102C402 -85 402 -80 410 -63C422 -38 429 -34 455 -50C492 -71 583 -95 688 -91C738 -89 740 -103 703 -131ZM500 -297C536 -291 566 -289 585 -290C588 -274 582 -257 570 -238C548 -205 527 -183 501 -163C476 -143 492 -134 514 -146C559 -172 584 -191 608 -228C661 -197 688 -183 704 -178C738 -167 753 -183 721 -215C707 -230 686 -238 616 -241C627 -256 633 -263 638 -267C645 -272 643 -282 630 -298C695 -312 730 -318 735 -318C787 -322 796 -316 803 -266C811 -206 809 -156 799 -112C780 -33 773 -34 721 -46C673 -58 667 -47 699 -21C725 1 736 16 745 40C756 68 773 69 799 43C843 -1 860 -56 866 -170C870 -261 874 -281 879 -291C893 -314 892 -331 845 -353C805 -372 787 -371 733 -352C668 -331 594 -318 530 -315C550 -329 546 -338 521 -350C486 -368 468 -364 477 -343C478 -340 463 -319 445 -299C425 -275 390 -244 372 -234C354 -224 358 -211 385 -219C410 -227 433 -242 500 -297ZM533 -372C558 -374 591 -379 636 -389C665 -397 694 -398 702 -395C729 -385 734 -385 747 -406C763 -432 776 -457 782 -470C804 -513 810 -524 819 -533C846 -557 843 -570 805 -588C765 -608 745 -604 725 -592C711 -585 694 -580 665 -575C629 -569 588 -559 556 -552C535 -548 505 -545 465 -543C423 -556 413 -541 439 -513C457 -492 475 -456 492 -409C507 -365 512 -358 519 -358C529 -358 532 -363 533 -372ZM516 -448C535 -447 553 -449 582 -453C643 -463 654 -465 665 -471C685 -483 681 -498 661 -500C647 -501 628 -497 569 -482C541 -474 526 -471 511 -469C506 -485 502 -501 497 -516C520 -518 544 -522 566 -527C615 -539 670 -548 705 -553C738 -558 743 -553 737 -520C734 -503 724 -469 716 -451C703 -423 701 -422 679 -424C670 -425 656 -422 529 -397C525 -415 521 -433 516 -448ZM745 -694C761 -719 770 -730 781 -742C800 -760 796 -778 753 -799C711 -821 697 -815 709 -776C714 -761 711 -741 686 -683C642 -675 602 -669 557 -662C557 -677 556 -691 556 -695C556 -732 554 -738 509 -745C462 -753 453 -737 481 -716C491 -709 502 -685 511 -656C477 -651 448 -648 420 -646C369 -643 367 -635 394 -618C416 -605 437 -604 474 -615C486 -618 501 -622 520 -626C523 -615 527 -602 529 -593C533 -577 543 -564 553 -564C562 -565 564 -571 562 -598C561 -609 560 -619 559 -634C593 -639 616 -643 675 -650C670 -634 665 -619 653 -594C643 -572 661 -571 671 -582C683 -595 705 -626 722 -656C790 -664 817 -665 877 -663C910 -662 916 -681 887 -702C860 -721 842 -721 795 -708C780 -704 764 -699 745 -694Z"/>
</svg>