<svg xmlns="http://www.w3.org/2000/svg" viewBox="0 -1000 1000 1000">
	<path fill="#000000" d="M412 -681C411 -714 357 -744 305 -750C277 -753 275 -747 288 -729C311 -698 350 -663 362 -654C394 -632 413 -639 412 -681ZM865 -653C843 -663 801 -665 753 -647C636 -604 606 -595 577 -598C596 -624 615 -653 632 -682C648 -710 661 -727 674 -742C685 -755 682 -771 637 -795C593 -819 586 -811 596 -770C601 -749 566 -638 480 -515C465 -494 469 -484 497 -506C518 -523 544 -552 569 -587C592 -576 623 -572 656 -578C716 -588 796 -607 843 -622C881 -634 888 -643 865 -653ZM466 -569C445 -575 440 -575 374 -555C269 -523 154 -500 112 -495C68 -490 70 -479 107 -464C123 -458 173 -459 190 -464C224 -474 253 -482 280 -489C283 -465 271 -437 240 -376C199 -295 136 -205 78 -160C49 -138 55 -130 85 -142C154 -170 236 -263 271 -332C289 -368 300 -390 310 -406C352 -389 366 -375 365 -355C363 -304 334 -199 305 -152C289 -126 274 -124 243 -143C210 -163 205 -154 221 -127C242 -94 251 -68 255 -50C260 -28 275 -23 296 -40C345 -79 373 -155 392 -251C406 -324 413 -337 431 -363C440 -376 430 -406 396 -411C371 -415 346 -420 324 -428C328 -433 332 -437 336 -442C349 -457 352 -473 312 -498C354 -509 394 -520 443 -532C478 -541 482 -564 466 -569ZM943 -317C919 -331 874 -324 839 -312C832 -309 815 -306 792 -301C793 -380 802 -435 815 -452C836 -480 835 -486 792 -508C753 -528 737 -526 714 -511C697 -499 633 -481 581 -478C541 -491 530 -476 547 -448C564 -419 562 -311 553 -266C503 -261 461 -256 441 -255C412 -254 406 -244 432 -229C448 -220 463 -216 497 -224C513 -228 530 -231 547 -234C526 -139 503 -84 429 -12C404 12 407 20 441 2C533 -47 574 -136 589 -242C647 -251 705 -259 756 -264C757 -211 755 -161 751 -82C749 -40 734 -36 682 -47C668 -50 660 -42 676 -30C702 -10 725 19 738 41C753 66 770 62 785 33C811 -18 812 -39 801 -133C794 -192 792 -218 792 -267C851 -272 898 -274 925 -273C977 -271 986 -292 943 -317ZM755 -295C709 -287 649 -279 593 -271C602 -347 604 -392 602 -456C643 -466 674 -472 711 -478C737 -482 747 -473 749 -441C752 -384 754 -339 755 -295ZM711 -360C709 -383 695 -399 662 -404C638 -408 634 -404 646 -383C654 -369 669 -345 674 -338C689 -317 713 -330 711 -360Z"/>
</svg>