<svg xmlns="http://www.w3.org/2000/svg" viewBox="0 -1000 1000 1000">
	<path fill="#000000" d="M348 -658C348 -698 324 -733 244 -740C215 -742 213 -735 226 -718C244 -695 274 -661 295 -641C325 -612 348 -625 348 -658ZM769 -681C752 -685 733 -684 681 -665C598 -634 562 -623 521 -619C542 -645 561 -674 579 -704C587 -718 603 -741 616 -755C628 -768 624 -785 586 -797C537 -812 529 -807 539 -780C547 -758 510 -647 424 -551C409 -534 412 -526 433 -539C460 -556 486 -578 509 -605C543 -597 565 -600 639 -613C678 -620 720 -631 757 -644C791 -656 794 -675 769 -681ZM820 -531C801 -542 756 -541 721 -529C695 -520 665 -511 633 -502C636 -509 636 -521 634 -538C632 -555 610 -569 558 -573C546 -574 539 -562 549 -553C576 -528 599 -509 615 -497C554 -481 484 -465 410 -450C385 -445 386 -437 404 -429C425 -420 438 -416 473 -427C500 -436 531 -445 566 -454C572 -429 561 -407 495 -346C476 -328 463 -318 445 -310C429 -303 423 -292 425 -276C429 -247 436 -244 454 -254C472 -264 625 -310 716 -333C727 -322 736 -312 744 -306C759 -294 775 -301 776 -319C778 -349 761 -375 682 -399C662 -405 657 -397 669 -383C679 -372 690 -360 701 -348C629 -334 539 -314 485 -302C519 -335 592 -395 613 -410C632 -423 631 -435 592 -460C649 -474 717 -486 798 -494C839 -498 845 -517 820 -531ZM370 -522C341 -530 314 -528 268 -510C228 -494 101 -461 74 -455C44 -448 46 -441 71 -434C90 -429 104 -428 147 -435C160 -437 184 -443 212 -449C219 -416 196 -337 164 -281C119 -203 90 -167 42 -120C21 -100 24 -86 54 -106C144 -166 181 -214 251 -361C277 -350 290 -328 290 -313C290 -251 272 -184 241 -124C231 -105 220 -98 169 -109C150 -113 147 -107 160 -96C174 -84 202 -50 208 -34C218 -10 233 -8 250 -26C293 -71 304 -109 319 -206C329 -273 342 -303 351 -312C362 -323 353 -352 317 -367C299 -374 280 -380 260 -382C273 -410 270 -422 222 -451C280 -465 350 -483 367 -489C397 -500 394 -515 370 -522ZM981 -47C967 -80 957 -119 955 -153C953 -181 942 -177 939 -153C925 -46 912 -25 821 -27C763 -28 740 -56 734 -122C732 -148 732 -209 737 -220C749 -250 742 -262 696 -273C679 -277 673 -264 679 -256C686 -246 691 -236 694 -222C698 -205 700 -158 700 -136C700 -28 727 12 830 30C867 37 940 23 969 2C986 -11 989 -27 981 -47ZM623 -197C627 -209 623 -223 579 -239C567 -243 562 -235 567 -222C572 -209 577 -192 578 -169C580 -133 575 -78 566 -36C562 -14 566 -5 575 7C588 25 597 25 605 4C611 -10 613 -27 612 -52C610 -113 613 -163 623 -197ZM509 -179C516 -192 510 -202 474 -219C458 -227 451 -221 457 -204C471 -166 419 -34 308 26C290 36 293 45 314 40C399 20 463 -49 488 -129C493 -144 504 -170 509 -179Z"/>
</svg>