<svg xmlns="http://www.w3.org/2000/svg" viewBox="0 -1000 1000 1000">
	<path fill="#000000" d="M334 -9C386 -16 502 -26 531 -27C554 -28 568 -23 575 2C602 93 614 92 646 41C664 14 674 -35 670 -85C662 -183 666 -213 685 -239C701 -261 697 -271 653 -293C612 -314 598 -315 574 -305C550 -294 431 -273 310 -258C268 -275 259 -263 271 -241C296 -198 297 -112 284 -43C276 -6 299 43 314 43C323 43 330 27 334 -9ZM330 -229C388 -239 516 -256 548 -259C592 -263 603 -263 608 -229C614 -189 614 -125 606 -57C603 -29 595 -28 571 -52C555 -68 528 -68 503 -61C480 -55 416 -45 335 -40C336 -67 336 -98 335 -132C384 -123 441 -127 546 -148C572 -154 568 -175 542 -180C525 -183 495 -180 453 -168C430 -162 394 -156 334 -153C333 -176 331 -214 330 -229ZM599 -631C611 -652 618 -667 632 -696C645 -724 651 -736 661 -747C676 -766 676 -778 638 -794C588 -816 579 -804 590 -780C602 -752 563 -624 485 -518C468 -496 477 -487 497 -503C513 -516 532 -535 550 -558C572 -543 602 -515 654 -455C627 -413 588 -383 536 -358C515 -348 524 -332 542 -338C605 -359 651 -385 682 -422C700 -403 718 -380 739 -355C768 -320 779 -313 927 -332C956 -336 955 -348 926 -355C842 -375 778 -399 707 -456C716 -474 725 -493 730 -515C737 -540 749 -572 754 -581C763 -595 761 -606 736 -623C793 -635 822 -642 840 -648C864 -656 863 -669 835 -680C812 -688 789 -684 747 -669C686 -646 644 -637 599 -631ZM697 -616C700 -602 700 -587 697 -567C692 -536 682 -509 672 -486C653 -503 635 -521 615 -542C602 -556 590 -566 566 -579C573 -589 580 -600 587 -611C621 -607 651 -608 697 -616ZM230 -614C230 -634 230 -655 229 -678C254 -682 266 -685 349 -707C388 -717 392 -715 387 -674C384 -647 370 -640 325 -629C282 -619 255 -615 230 -614ZM301 -594C309 -576 318 -549 326 -511C303 -503 279 -495 265 -491C239 -486 239 -469 270 -468C280 -468 305 -473 335 -481C359 -414 413 -339 461 -308C494 -286 503 -293 498 -330C496 -345 497 -373 505 -417C508 -435 494 -441 488 -421C465 -353 452 -360 418 -409C404 -429 388 -462 374 -492C405 -501 433 -511 444 -517C474 -536 469 -552 443 -555C430 -557 419 -553 362 -524C356 -541 353 -555 353 -562C353 -575 350 -585 339 -600C356 -603 374 -606 397 -609C435 -614 437 -627 428 -638C423 -643 426 -658 433 -672C439 -682 445 -688 461 -698C480 -711 480 -725 437 -749C405 -766 391 -764 365 -748C338 -732 257 -704 206 -706C161 -727 151 -713 168 -690C190 -660 196 -587 186 -444C181 -372 173 -354 160 -343C142 -329 139 -318 149 -300C167 -265 177 -263 196 -290C205 -302 278 -355 316 -381C333 -393 330 -403 308 -396C275 -385 239 -373 220 -365C227 -440 230 -497 230 -587C250 -588 269 -590 301 -594Z"/>
</svg>