<svg xmlns="http://www.w3.org/2000/svg" viewBox="0 -1000 1000 1000">
	<path fill="#000000" d="M224 -235C176 -253 164 -243 183 -215C196 -195 209 -116 203 -81C197 -36 198 -26 212 -8C230 15 237 14 248 -7C255 -23 256 -58 254 -105C251 -155 247 -191 242 -210C584 -247 649 -252 679 -252C755 -253 759 -252 763 -205C767 -160 763 -118 750 -72C741 -39 728 -34 678 -50C643 -61 637 -50 667 -26C686 -10 704 11 716 41C724 56 740 60 759 41C802 0 813 -34 816 -98C819 -169 830 -213 844 -229C862 -247 858 -260 799 -291C772 -304 754 -303 737 -297C705 -285 526 -264 224 -235ZM409 -88C408 -108 403 -133 395 -154C444 -160 488 -163 542 -167C560 -168 563 -166 563 -158C564 -127 549 -108 528 -102C513 -98 493 -95 409 -88ZM376 -174C329 -195 315 -181 330 -164C349 -143 362 -113 365 -99C369 -78 384 -46 391 -44C401 -40 408 -44 409 -63C444 -64 498 -66 521 -69C528 -70 583 -74 600 -75C627 -77 627 -99 602 -111C610 -139 622 -149 643 -159C657 -164 657 -174 624 -193C592 -210 581 -210 559 -202C535 -194 441 -180 376 -174ZM402 -303C400 -315 392 -342 385 -361C434 -369 499 -378 558 -383C580 -386 584 -384 581 -368C575 -343 569 -330 554 -326C529 -318 494 -313 402 -303ZM364 -380C323 -397 308 -385 330 -364C339 -353 353 -326 356 -312C360 -294 383 -264 390 -263C402 -261 406 -267 405 -282C480 -286 509 -290 526 -294C541 -297 578 -303 609 -306C631 -308 637 -324 625 -331C615 -336 629 -361 662 -378C672 -383 672 -393 642 -407C606 -423 590 -425 573 -414C560 -405 436 -385 364 -380ZM736 -485C703 -499 672 -498 631 -486C578 -472 308 -438 253 -438C223 -438 222 -432 242 -422C265 -412 282 -410 333 -417C489 -438 675 -456 699 -456C766 -455 770 -472 736 -485ZM535 -500C536 -523 530 -536 472 -543C440 -547 438 -544 454 -523C469 -503 482 -490 501 -478C507 -473 534 -483 535 -500ZM362 -562C356 -580 350 -596 343 -614C383 -613 440 -618 564 -637C596 -642 598 -657 567 -667C553 -671 527 -668 477 -655C443 -646 395 -637 338 -629C331 -649 325 -668 319 -685C530 -714 597 -720 635 -720C663 -720 672 -714 670 -688C669 -678 651 -643 628 -602C619 -587 613 -586 595 -590C571 -595 558 -595 362 -562ZM291 -707C244 -724 228 -710 250 -689C265 -674 287 -639 316 -561C337 -503 361 -502 367 -536C409 -546 503 -559 577 -565C608 -567 613 -557 613 -546C614 -534 623 -530 643 -543C664 -557 679 -578 726 -651C739 -672 749 -683 763 -691C783 -704 780 -715 718 -746C683 -763 670 -764 642 -758C570 -742 386 -715 291 -707Z"/>
</svg>