<svg xmlns="http://www.w3.org/2000/svg" viewBox="0 -1000 1000 1000">
	<path fill="#000000" d="M357 -571C405 -575 476 -583 547 -593C589 -599 596 -596 598 -585C601 -564 618 -558 637 -580C657 -603 675 -629 692 -667C710 -708 720 -720 735 -729C752 -741 752 -751 682 -793C661 -807 651 -808 618 -798C575 -786 410 -760 308 -753C237 -774 227 -760 237 -750C264 -721 284 -674 305 -601C319 -554 339 -542 350 -544C355 -545 357 -554 357 -571ZM322 -725C398 -738 545 -756 577 -757C633 -759 642 -752 641 -737C640 -715 632 -675 622 -648C610 -618 603 -617 579 -622C566 -625 541 -622 492 -614C462 -609 411 -603 354 -599C351 -614 347 -634 340 -655C404 -653 496 -663 548 -675C582 -682 580 -701 539 -705C514 -707 474 -702 336 -673C332 -690 327 -709 322 -725ZM465 -572C451 -575 444 -567 452 -555C466 -532 478 -514 488 -504C497 -493 521 -498 522 -524C523 -547 514 -561 465 -572ZM671 -481C693 -489 709 -493 736 -499C754 -503 757 -490 752 -471C747 -442 733 -388 726 -369C720 -354 722 -347 732 -336C789 -270 797 -257 801 -233C806 -206 803 -198 786 -196C767 -194 733 -194 705 -197C687 -199 684 -187 701 -180C755 -159 794 -139 825 -113C844 -98 855 -98 866 -124C893 -198 880 -253 757 -344C744 -354 743 -359 756 -382C799 -457 818 -484 839 -497C858 -508 857 -517 821 -536C783 -555 776 -554 762 -545C734 -527 698 -515 656 -510C648 -514 639 -517 627 -521C606 -526 600 -522 609 -504C619 -484 626 -441 625 -330C622 -51 624 29 628 72C632 102 636 102 646 73C667 10 676 -78 670 -207C669 -228 669 -398 671 -481ZM423 -286C424 -309 424 -333 424 -356C452 -356 475 -361 500 -370C511 -375 515 -383 500 -393C491 -399 480 -399 465 -392C452 -386 439 -383 424 -381C424 -401 424 -418 424 -433C453 -440 492 -449 505 -452C524 -457 532 -454 532 -437C532 -404 527 -362 518 -322C514 -310 511 -307 497 -305C487 -304 462 -298 423 -286ZM406 -457C364 -472 356 -465 371 -434C384 -408 390 -363 388 -229C387 -168 378 -149 358 -127C349 -116 350 -107 366 -86C386 -59 397 -59 405 -72C419 -95 454 -130 531 -187C543 -165 554 -147 559 -137C567 -123 576 -122 589 -144C605 -175 594 -202 525 -237C504 -247 498 -242 509 -224C514 -215 519 -206 524 -198C505 -191 468 -175 422 -156C422 -189 422 -210 423 -262C438 -264 459 -268 482 -274C501 -279 518 -277 525 -270C533 -263 537 -264 549 -280C558 -292 563 -307 572 -372C576 -402 584 -421 596 -441C605 -456 604 -464 579 -476C538 -497 526 -496 510 -485C491 -473 453 -462 406 -457ZM248 -370C179 -265 150 -237 123 -226C109 -219 104 -208 117 -174C124 -154 138 -148 162 -166C182 -180 207 -193 270 -219C236 -110 183 -44 93 20C78 32 80 41 94 37C185 9 282 -96 304 -180C317 -227 330 -258 334 -264C350 -283 344 -299 324 -308C279 -330 268 -322 280 -304C287 -292 287 -279 279 -248C244 -235 201 -224 171 -219C262 -335 293 -372 351 -442C361 -454 359 -461 337 -475C299 -501 291 -493 295 -476C299 -458 290 -437 262 -393C230 -388 203 -387 180 -388C238 -477 252 -493 268 -506C283 -516 280 -530 248 -545C214 -561 200 -555 204 -541C211 -521 204 -498 194 -476C163 -410 147 -397 124 -385C116 -381 115 -372 125 -349C133 -331 138 -328 158 -338C181 -350 212 -362 248 -370Z"/>
</svg>