<svg xmlns="http://www.w3.org/2000/svg" viewBox="0 -1000 1000 1000">
	<path fill="#000000" d="M275 -532C199 -511 152 -502 117 -499C94 -497 93 -485 115 -478C152 -466 188 -467 248 -483C214 -374 138 -249 65 -170C40 -142 46 -134 77 -156C169 -219 230 -309 273 -421C268 -201 262 -114 245 -64C235 -39 240 1 254 27C272 62 288 60 300 23C307 0 313 -54 309 -139C308 -176 308 -281 309 -364C336 -334 362 -314 388 -299C408 -286 426 -305 415 -335C404 -364 370 -382 309 -382C310 -424 312 -464 313 -496C325 -498 353 -504 378 -509C432 -520 434 -535 405 -550C390 -558 374 -559 315 -543C320 -616 330 -679 336 -694C350 -724 349 -741 295 -759C237 -779 227 -766 253 -732C270 -709 279 -673 275 -532ZM641 -473C672 -477 712 -482 763 -488C786 -491 793 -487 787 -420C774 -261 756 -181 734 -128C715 -86 704 -86 625 -126C604 -136 597 -129 612 -109C646 -66 662 -34 666 3C668 23 685 29 708 11C773 -39 804 -104 827 -265C849 -421 856 -444 874 -464C893 -485 889 -499 845 -525C802 -552 786 -550 768 -541C748 -531 702 -519 648 -509C671 -641 680 -667 691 -687C703 -711 700 -724 646 -751C592 -779 579 -768 599 -734C618 -702 617 -634 594 -500C539 -491 484 -485 447 -483C424 -482 422 -470 445 -457C473 -443 482 -440 523 -451C537 -455 566 -462 587 -465C547 -264 486 -121 362 -20C336 1 343 10 369 -3C506 -75 591 -205 641 -473Z"/>
</svg>