<svg xmlns="http://www.w3.org/2000/svg" viewBox="0 -1000 1000 1000">
	<path fill="#000000" d="M427 -328C421 -345 391 -363 345 -370C322 -374 319 -368 329 -353C348 -327 375 -300 396 -285C415 -272 438 -296 427 -328ZM569 -411C587 -316 608 -253 641 -190C704 -68 780 -11 849 16C898 36 909 30 904 2C893 -59 890 -105 898 -154C904 -198 885 -206 871 -159C844 -66 823 -67 782 -100C744 -130 714 -170 676 -235C646 -285 627 -343 613 -428C672 -450 749 -478 760 -481C803 -493 798 -522 759 -526C733 -530 706 -521 650 -490C641 -485 626 -478 607 -471C603 -502 600 -537 597 -575C589 -683 587 -703 593 -718C605 -748 600 -763 540 -782C491 -797 480 -785 503 -754C523 -728 532 -688 547 -558C553 -519 558 -484 562 -452C518 -437 466 -420 432 -412C407 -406 407 -392 437 -385C452 -382 510 -389 569 -411ZM322 -516C330 -637 334 -672 350 -704C359 -723 356 -743 296 -765C256 -781 242 -766 263 -739C282 -715 286 -639 283 -507C202 -488 143 -477 125 -475C84 -471 84 -462 122 -449C146 -442 179 -440 264 -456C227 -361 160 -252 56 -144C34 -122 39 -112 73 -134C156 -186 231 -279 280 -376C273 -176 265 -102 258 -75C246 -38 249 -14 258 6C281 60 302 60 315 12C320 -7 323 -36 320 -106C314 -314 315 -386 319 -467C336 -471 355 -475 374 -479C437 -493 440 -511 408 -521C394 -525 367 -525 322 -516ZM818 -622C805 -655 777 -670 709 -672C675 -673 674 -667 704 -641C719 -627 766 -591 779 -585C812 -571 830 -591 818 -622Z"/>
</svg>