<svg xmlns="http://www.w3.org/2000/svg" viewBox="0 -1000 1000 1000">
	<path fill="#000000" d="M439 -342C433 -361 400 -381 358 -387C341 -390 336 -382 342 -371C362 -338 395 -303 415 -297C439 -290 452 -304 439 -342ZM295 -516C226 -496 157 -482 122 -478C84 -474 84 -467 120 -454C152 -444 173 -441 280 -465C218 -341 141 -234 57 -163C40 -148 50 -134 69 -145C167 -199 245 -294 292 -394C287 -210 280 -123 271 -98C259 -62 258 -38 267 -12C290 48 305 47 324 -7C331 -28 334 -54 332 -139C329 -244 330 -298 337 -478C359 -483 385 -489 413 -497C482 -513 482 -530 456 -543C435 -553 416 -552 339 -530C343 -646 345 -662 358 -694C369 -724 364 -741 310 -759C256 -779 249 -765 273 -730C289 -709 298 -673 295 -516ZM622 -427C625 -459 601 -485 516 -481C503 -480 501 -474 511 -465C548 -432 573 -412 588 -406C610 -397 619 -401 622 -427ZM642 -598C647 -631 633 -655 554 -670C531 -674 525 -665 539 -646C560 -618 592 -589 615 -579C625 -575 639 -580 642 -598ZM752 -348C751 -519 752 -565 755 -628C757 -680 760 -696 767 -713C779 -743 775 -760 705 -785C662 -800 654 -786 669 -763C691 -730 696 -706 698 -630C701 -546 702 -443 700 -340C610 -326 521 -312 480 -307C443 -303 443 -292 474 -276C507 -260 514 -259 566 -275C597 -285 637 -294 700 -303C692 -89 696 2 701 26C712 82 721 84 734 30C749 -34 753 -104 753 -311C805 -316 875 -319 926 -317C978 -315 982 -340 947 -363C913 -384 890 -381 839 -368C824 -364 780 -353 752 -348Z"/>
</svg>