<svg xmlns="http://www.w3.org/2000/svg" viewBox="0 -1000 1000 1000">
	<path fill="#000000" d="M406 -508C395 -513 376 -513 320 -496C326 -620 332 -708 338 -724C347 -753 347 -763 299 -784C242 -808 225 -801 264 -747C278 -727 287 -638 286 -486C212 -461 167 -447 137 -440C100 -430 92 -423 141 -414C167 -410 193 -409 263 -428C214 -314 170 -238 86 -143C64 -117 69 -107 99 -127C183 -183 243 -254 284 -380C279 -216 268 -105 259 -80C247 -47 250 -28 260 -2C277 46 292 46 306 4C315 -24 318 -54 316 -129C311 -273 312 -325 317 -445C333 -449 349 -455 368 -460C425 -478 422 -499 406 -508ZM892 -199C875 -433 877 -476 891 -493C909 -515 906 -526 849 -555C810 -575 805 -574 780 -562C768 -555 724 -546 670 -533C677 -606 692 -680 702 -710C711 -735 707 -746 654 -768C606 -787 592 -777 612 -738C629 -703 635 -645 623 -523C577 -515 526 -506 482 -498C438 -517 429 -498 448 -481C474 -457 470 -220 445 -133C437 -104 441 -84 458 -48C465 -33 482 -36 486 -50C497 -87 504 -154 504 -218C572 -256 614 -301 638 -368C709 -288 732 -265 747 -253C773 -231 791 -255 782 -289C771 -329 754 -343 639 -371C651 -409 661 -452 667 -502C707 -509 739 -513 754 -514C802 -517 813 -508 823 -457C834 -400 839 -175 829 -106C824 -71 804 -67 742 -90C720 -98 719 -90 736 -70C760 -45 782 -8 799 27C808 44 825 45 844 23C897 -41 901 -75 892 -199ZM406 -296C400 -313 380 -325 340 -329C314 -332 311 -327 328 -308C346 -288 368 -269 379 -261C402 -245 416 -263 406 -296ZM620 -495C605 -377 575 -299 504 -234C503 -278 505 -366 506 -476C542 -483 583 -490 620 -495Z"/>
</svg>