<svg xmlns="http://www.w3.org/2000/svg" viewBox="0 -1000 1000 1000">
	<path fill="#000000" d="M526 -304C533 -270 520 -224 460 -141C423 -89 384 -52 338 -19C316 -2 322 12 355 -3C439 -41 509 -107 564 -211C576 -234 587 -247 598 -260C611 -275 610 -290 571 -312C637 -325 658 -328 671 -329C695 -331 702 -321 701 -282C696 -197 681 -122 657 -73C649 -57 633 -55 570 -85C545 -97 539 -84 558 -61C582 -29 601 1 609 28C617 51 633 56 656 37C710 -6 741 -87 757 -214C764 -266 769 -285 783 -302C803 -328 804 -337 754 -370C719 -394 706 -394 678 -381C662 -373 630 -364 581 -352C546 -343 487 -334 457 -333C433 -331 429 -315 461 -303C470 -299 485 -296 526 -304ZM397 -298C396 -314 378 -334 314 -350C292 -356 288 -345 298 -334C318 -312 345 -282 361 -266C381 -244 400 -252 397 -298ZM294 -518C304 -649 309 -678 320 -710C328 -733 320 -750 269 -770C218 -789 207 -775 229 -741C249 -711 256 -639 252 -509C151 -484 120 -478 105 -476C64 -471 63 -464 102 -450C125 -442 153 -440 244 -459C208 -361 125 -229 47 -149C23 -126 31 -113 67 -137C146 -192 205 -265 245 -354C235 -172 227 -103 219 -77C208 -40 211 -16 218 4C240 59 262 59 274 11C280 -8 283 -37 282 -107C280 -269 285 -386 290 -470C304 -473 319 -476 335 -480C396 -496 399 -511 366 -522C355 -526 331 -526 294 -518ZM570 -551C588 -566 588 -578 539 -607C510 -625 499 -620 502 -598C506 -568 496 -536 463 -480C443 -447 415 -408 382 -376C357 -351 364 -337 398 -360C452 -396 489 -436 528 -495C547 -522 565 -546 570 -551ZM945 -417C793 -477 737 -543 628 -722C604 -761 587 -774 562 -771C524 -765 520 -754 539 -743C562 -731 587 -708 615 -659C659 -587 713 -496 733 -461C774 -390 784 -385 941 -387C982 -388 983 -403 945 -417Z"/>
</svg>