<svg xmlns="http://www.w3.org/2000/svg" viewBox="0 -1000 1000 1000">
	<path fill="#000000" d="M493 -543C434 -570 423 -557 438 -533C453 -510 456 -416 445 -346C424 -198 394 -112 325 -19C310 1 320 8 339 -6C419 -65 465 -168 491 -324C533 -315 566 -317 660 -340C694 -348 704 -340 702 -318C696 -259 679 -210 663 -180C641 -201 619 -223 607 -238C571 -284 561 -287 533 -289C508 -290 504 -279 525 -267C541 -257 561 -239 581 -214C607 -184 628 -163 642 -147C600 -95 522 -40 436 -17C411 -9 409 7 443 3C540 -10 618 -51 672 -112C696 -84 727 -50 767 -7C796 24 810 30 956 7C985 3 986 -14 957 -20C835 -46 778 -79 699 -148C716 -175 730 -205 739 -237C756 -298 769 -320 781 -332C798 -347 796 -359 752 -382C726 -397 717 -398 702 -388C690 -381 671 -374 647 -367L657 -542C682 -548 711 -554 719 -556C773 -570 778 -560 754 -501C744 -476 752 -469 773 -484C803 -507 847 -526 876 -533C892 -536 896 -548 882 -560C864 -578 853 -585 808 -611C789 -621 782 -620 772 -612C764 -606 708 -586 659 -573C662 -638 673 -690 683 -711C693 -728 685 -744 622 -770C583 -785 572 -773 595 -741C608 -721 615 -664 613 -562C546 -550 524 -546 493 -543ZM613 -533L608 -358C574 -350 536 -345 494 -342C502 -402 508 -476 506 -516C529 -518 564 -523 613 -533ZM261 -510C191 -490 133 -480 102 -477C80 -475 79 -463 100 -454C125 -444 154 -443 244 -462C194 -336 132 -238 51 -157C35 -141 42 -125 60 -138C155 -204 221 -285 258 -375C253 -191 245 -104 233 -63C226 -38 226 -3 242 28C261 63 273 61 286 24C293 1 298 -53 295 -138C293 -197 294 -300 295 -389C321 -364 342 -343 363 -330C388 -313 406 -333 397 -364C389 -390 356 -407 295 -407C296 -431 296 -453 297 -473C309 -476 336 -482 352 -485C406 -498 411 -516 393 -528C378 -539 359 -537 299 -520C304 -635 307 -655 322 -688C332 -713 329 -725 274 -745C226 -762 216 -746 236 -716C255 -689 264 -640 261 -510Z"/>
</svg>