<svg xmlns="http://www.w3.org/2000/svg" viewBox="0 -1000 1000 1000">
	<path fill="#000000" d="M563 -577C579 -601 598 -629 617 -664C634 -693 647 -711 661 -726C672 -740 669 -756 623 -781C577 -806 570 -797 580 -755C587 -730 543 -610 461 -492C445 -471 451 -463 478 -483C501 -500 526 -526 549 -558C577 -549 608 -549 642 -554C710 -565 801 -584 854 -600C901 -613 899 -629 877 -639C843 -652 824 -649 763 -628C642 -588 596 -577 563 -577ZM697 -342C695 -366 680 -382 646 -387C622 -392 617 -387 630 -366C638 -351 653 -327 659 -319C673 -300 700 -309 697 -342ZM567 -463C510 -482 501 -469 522 -433C538 -404 538 -304 527 -241C472 -235 416 -231 394 -230C364 -229 363 -225 387 -205C407 -188 416 -186 454 -194C474 -198 496 -202 520 -206C499 -107 476 -63 402 16C378 42 385 51 418 31C504 -23 548 -85 569 -214C622 -221 717 -231 752 -234C753 -177 752 -133 748 -72C745 -29 736 -25 671 -40C654 -44 649 -33 665 -23C692 -5 720 26 737 54C751 79 764 80 784 46C809 6 813 -33 803 -125C801 -144 800 -169 800 -238C853 -242 878 -243 904 -241C961 -237 972 -258 925 -286C898 -303 867 -303 800 -284C801 -381 806 -421 817 -437C837 -463 834 -474 794 -495C754 -515 742 -513 718 -498C700 -485 623 -466 567 -463ZM751 -274C704 -265 643 -256 573 -246C583 -325 585 -372 583 -432C632 -440 675 -447 707 -452C734 -456 742 -450 744 -417C748 -358 750 -312 751 -274ZM276 -518C214 -499 157 -486 118 -483C79 -480 75 -468 111 -458C138 -450 170 -449 258 -467C217 -349 149 -235 62 -146C50 -134 56 -125 75 -137C162 -196 224 -267 275 -383C272 -200 265 -109 256 -80C242 -38 241 -20 252 6C271 54 294 57 306 10C312 -10 316 -57 315 -133C314 -228 314 -307 314 -373C337 -350 365 -328 389 -311C409 -297 426 -311 412 -352C403 -380 375 -399 315 -398C315 -429 316 -456 317 -480C435 -505 438 -522 411 -540C400 -547 369 -547 319 -533C323 -643 329 -676 342 -721C351 -747 344 -761 297 -779C244 -798 234 -787 260 -748C272 -729 276 -664 276 -518Z"/>
</svg>