<svg xmlns="http://www.w3.org/2000/svg" viewBox="0 -1000 1000 1000">
	<path fill="#000000" d="M640 -378C641 -412 642 -445 642 -468C668 -473 697 -481 710 -487C735 -499 736 -513 711 -521C702 -524 680 -524 643 -513C644 -532 647 -547 649 -556C656 -576 654 -588 628 -607C709 -618 734 -621 745 -620C776 -618 786 -611 780 -567C769 -490 763 -465 746 -417C730 -368 720 -365 713 -371C696 -384 677 -386 640 -378ZM512 -321C538 -324 568 -328 596 -332L594 -218C544 -208 494 -199 479 -198C440 -195 440 -182 472 -174C494 -168 545 -169 593 -174L591 -76C504 -64 432 -57 363 -54C329 -52 328 -46 349 -29C372 -9 394 -8 428 -17C464 -25 559 -38 615 -43C748 -54 806 -53 853 -45C944 -31 952 -59 911 -89C880 -111 846 -116 781 -105C728 -96 679 -89 634 -83L636 -181C678 -189 708 -195 751 -205C793 -215 796 -233 774 -244C753 -253 734 -252 688 -240C676 -237 658 -233 637 -228L639 -340C652 -342 666 -344 680 -346C694 -348 708 -344 712 -339C724 -325 735 -315 742 -317C760 -324 773 -338 794 -393C801 -412 825 -481 838 -519C848 -552 854 -569 867 -580C888 -599 884 -615 845 -639C784 -676 772 -676 725 -662C633 -636 515 -619 431 -616C378 -635 372 -620 394 -590C415 -564 432 -512 461 -369C467 -337 476 -308 496 -295C504 -289 514 -297 512 -321ZM464 -589C501 -591 547 -596 585 -602C593 -581 598 -543 598 -498C580 -492 562 -488 536 -484C509 -480 508 -467 523 -463C536 -458 557 -456 598 -461L597 -368C566 -361 536 -355 507 -352C496 -414 480 -492 464 -589ZM257 -524C159 -496 131 -490 99 -487C77 -485 77 -477 97 -469C123 -458 152 -457 248 -477C200 -363 124 -238 56 -164C34 -140 42 -132 63 -147C151 -209 214 -291 254 -385C250 -205 242 -116 225 -69C216 -44 221 -4 234 22C253 57 270 57 283 17C290 -5 294 -75 292 -144C289 -243 290 -304 291 -368C328 -328 353 -306 362 -304C386 -298 399 -310 388 -340C377 -367 352 -385 292 -385C292 -420 293 -454 295 -487C310 -490 329 -495 349 -500C399 -512 402 -528 382 -543C367 -553 351 -551 297 -536C303 -652 307 -677 321 -716C329 -740 320 -752 273 -773C221 -796 207 -778 233 -744C254 -717 260 -667 257 -524Z"/>
</svg>