<svg xmlns="http://www.w3.org/2000/svg" viewBox="0 -1000 1000 1000">
	<path fill="#000000" d="M385 -529C371 -534 322 -531 284 -521C292 -633 300 -690 306 -701C325 -732 323 -744 267 -767C215 -787 206 -780 229 -739C245 -710 251 -681 249 -511C199 -498 101 -476 83 -474C46 -467 53 -455 98 -446C109 -443 165 -455 228 -468C180 -356 124 -271 37 -186C20 -170 25 -163 46 -175C128 -220 186 -279 246 -400C241 -247 231 -158 219 -110C209 -70 213 -41 219 -19C235 32 257 27 265 -25C268 -44 273 -104 272 -125C270 -181 275 -399 280 -476C313 -484 343 -491 361 -495C409 -507 410 -519 385 -529ZM973 -224C818 -275 743 -323 646 -413C689 -419 765 -424 822 -428C854 -430 856 -450 830 -466C808 -479 747 -469 721 -461C685 -450 620 -436 561 -425C568 -450 575 -475 582 -498C667 -512 718 -526 726 -531C748 -543 744 -556 729 -561C715 -566 693 -564 668 -555C653 -550 624 -542 591 -534C597 -558 602 -581 605 -603C695 -619 737 -630 759 -640C777 -649 779 -661 759 -669C736 -677 707 -672 683 -663C672 -659 644 -651 611 -642C616 -676 622 -706 627 -717C642 -751 641 -767 593 -787C544 -807 529 -793 554 -760C568 -742 570 -691 564 -630C526 -621 488 -613 464 -610C438 -607 436 -601 461 -591C479 -583 497 -583 560 -594C555 -571 551 -547 546 -523C513 -515 481 -509 461 -507C440 -506 440 -496 457 -490C477 -483 488 -482 539 -491C533 -466 526 -441 518 -418C449 -409 432 -407 386 -404C363 -403 362 -397 381 -384C398 -373 431 -372 457 -381C466 -384 482 -388 508 -393C467 -291 422 -241 317 -160C300 -147 303 -139 321 -146C376 -167 424 -201 464 -247C474 -185 475 -112 468 -52C462 -2 479 22 489 22C497 22 506 15 509 -32C544 -36 608 -41 633 -40C649 -40 651 -38 656 -15C674 54 684 55 710 15C731 -17 737 -35 733 -94C729 -148 732 -214 739 -222C746 -230 746 -237 737 -248C731 -256 711 -273 694 -284C674 -298 671 -299 644 -289C612 -278 549 -268 491 -264C488 -266 485 -268 481 -269C510 -306 533 -350 551 -400C571 -403 589 -407 616 -410C689 -324 721 -287 797 -221C833 -190 850 -183 972 -201C1003 -206 1001 -215 973 -224ZM374 -312C373 -337 355 -351 296 -362C285 -364 279 -352 291 -339C302 -326 324 -302 335 -290C352 -273 376 -279 374 -312ZM677 -215C679 -201 680 -117 676 -82C673 -59 665 -56 652 -66C647 -70 613 -75 603 -72C586 -68 550 -62 510 -56C511 -91 512 -122 512 -149C552 -142 604 -143 631 -153C652 -162 650 -179 630 -182C617 -185 559 -175 512 -163C512 -197 510 -223 507 -245C546 -250 617 -258 641 -260C667 -262 672 -255 677 -215Z"/>
</svg>