<svg xmlns="http://www.w3.org/2000/svg" viewBox="0 -1000 1000 1000">
	<path fill="#000000" d="M951 -160C972 -164 974 -176 948 -181C917 -186 865 -199 832 -213C763 -241 693 -290 608 -373C657 -381 701 -387 728 -389C797 -394 806 -409 764 -427C741 -437 716 -437 645 -418C601 -407 541 -392 482 -379C507 -428 506 -434 481 -449C474 -453 470 -456 465 -457C466 -460 467 -465 467 -469C604 -494 629 -495 635 -486C643 -476 657 -475 666 -499C710 -609 730 -645 746 -658C766 -673 767 -682 716 -707C679 -726 672 -725 646 -712C631 -706 536 -684 453 -671C515 -731 563 -772 581 -784C616 -807 615 -812 569 -832C520 -853 511 -843 519 -823C523 -814 502 -761 429 -667C425 -666 421 -666 417 -665C410 -668 401 -670 383 -669C362 -668 360 -661 374 -647C393 -627 411 -590 431 -496C434 -485 443 -467 450 -457C446 -453 446 -446 448 -434C450 -423 446 -400 432 -368C396 -361 362 -353 333 -348C311 -344 308 -338 328 -330C338 -327 373 -327 416 -335C381 -270 313 -185 196 -118C166 -101 169 -91 199 -102C323 -148 391 -209 466 -346C501 -354 541 -362 580 -368C618 -329 655 -286 684 -254C775 -152 786 -147 824 -148C868 -149 917 -154 951 -160ZM320 -572C338 -590 336 -602 293 -621C264 -634 249 -632 227 -614C216 -605 168 -582 94 -576C86 -580 76 -582 65 -584C48 -586 44 -577 54 -562C77 -527 96 -466 106 -381C114 -315 119 -311 128 -311C140 -311 148 -314 144 -382C184 -391 234 -402 272 -410C292 -414 294 -426 285 -431C274 -437 276 -459 284 -490C296 -535 307 -559 320 -572ZM712 -206C694 -218 665 -220 630 -212C608 -207 586 -202 565 -198C565 -226 568 -255 570 -266C576 -287 573 -299 532 -312C499 -322 499 -308 510 -291C519 -277 522 -248 524 -189C473 -180 428 -173 396 -171C378 -170 377 -159 391 -153C411 -145 434 -141 463 -146C485 -149 506 -152 524 -155C525 -100 523 -50 520 6C519 33 521 71 522 87C524 111 540 113 552 80C559 61 565 39 566 7C567 -33 567 -104 566 -162C605 -168 637 -172 666 -177C720 -185 727 -196 712 -206ZM656 -653C651 -603 643 -563 625 -513C597 -521 574 -517 464 -489C460 -518 456 -542 452 -562C471 -557 501 -559 563 -576C597 -585 604 -590 601 -599C598 -607 566 -613 542 -603C495 -585 470 -577 450 -576C443 -617 438 -638 433 -648C463 -649 507 -656 591 -674C653 -687 658 -678 656 -653ZM238 -551C242 -510 238 -471 226 -443C203 -426 171 -414 141 -410C134 -491 128 -534 114 -557C139 -561 167 -567 197 -574C227 -580 236 -574 238 -551Z"/>
</svg>