<svg xmlns="http://www.w3.org/2000/svg" viewBox="0 -1000 1000 1000">
	<path fill="#000000" d="M719 -543C716 -573 682 -591 654 -591C638 -591 633 -584 643 -571C659 -553 684 -528 698 -524C711 -519 721 -526 719 -543ZM711 -427C712 -457 683 -472 650 -472C633 -472 634 -466 643 -452C658 -433 678 -414 688 -410C701 -405 710 -407 711 -427ZM321 -530C310 -541 291 -542 253 -535C259 -680 266 -707 278 -732C288 -753 278 -765 240 -779C184 -800 177 -790 202 -759C217 -739 221 -679 225 -527C172 -514 109 -500 81 -495C54 -489 51 -479 85 -472C116 -466 146 -469 215 -485C158 -352 109 -267 34 -182C19 -165 26 -157 41 -166C111 -209 184 -312 226 -418C224 -289 216 -171 209 -124C201 -70 201 -52 210 -30C231 25 243 27 251 -12C256 -31 261 -93 258 -159C252 -353 250 -427 251 -495C265 -498 281 -502 297 -506C322 -513 330 -522 321 -530ZM606 -219C601 -258 598 -280 596 -338C593 -418 597 -436 602 -445C612 -463 608 -479 575 -494C550 -505 537 -503 526 -496C511 -487 487 -479 460 -472C491 -519 564 -585 590 -600C612 -613 607 -624 570 -643C545 -656 538 -656 525 -648C491 -627 470 -620 454 -618C470 -644 486 -670 494 -682C507 -701 506 -706 468 -726C436 -744 428 -737 437 -719C442 -708 438 -687 423 -647C407 -605 377 -550 333 -492C313 -466 317 -458 345 -477C377 -500 412 -547 446 -604C468 -601 490 -602 508 -605C518 -607 521 -602 512 -586C490 -544 470 -514 437 -466C408 -460 378 -456 356 -455C343 -462 339 -451 343 -437C348 -418 349 -372 347 -262C346 -188 329 -115 295 -39C286 -20 292 -15 311 -35C350 -78 372 -139 378 -224C381 -269 383 -323 383 -377C383 -408 382 -423 374 -439C394 -439 412 -442 440 -450C448 -429 450 -419 450 -358C442 -356 432 -355 419 -354C408 -353 405 -343 419 -338C426 -336 431 -335 450 -337C450 -311 449 -282 449 -257C440 -255 425 -251 406 -247C395 -245 395 -236 406 -233C417 -229 431 -229 448 -231C446 -195 447 -152 448 -138C450 -101 461 -104 470 -137C475 -158 479 -205 479 -235C500 -239 517 -243 525 -246C540 -253 539 -266 522 -269C506 -272 496 -272 478 -267C478 -295 477 -318 478 -340C497 -343 510 -345 522 -349C532 -352 541 -365 530 -370C518 -375 508 -374 479 -366C480 -387 483 -398 486 -411C491 -429 489 -438 461 -456C479 -460 498 -463 523 -464C539 -465 546 -456 549 -439C559 -391 564 -298 562 -192C561 -120 557 -118 513 -126C495 -129 490 -123 508 -107C523 -93 541 -66 549 -45C558 -24 563 -22 581 -44C614 -86 612 -167 606 -219ZM335 -339C332 -366 319 -381 274 -388C257 -391 255 -386 266 -369C282 -342 300 -327 313 -322C323 -317 337 -325 335 -339ZM925 -378C904 -390 869 -388 837 -373C828 -369 817 -365 802 -360C801 -420 800 -525 801 -583C802 -632 804 -664 808 -678C816 -705 805 -720 756 -734C712 -748 704 -735 728 -708C740 -694 746 -662 750 -581C753 -521 756 -404 756 -346C712 -334 643 -318 628 -316C605 -313 605 -303 625 -291C639 -283 652 -284 673 -293C686 -299 715 -307 756 -318C753 -177 754 -24 756 43C758 107 778 111 793 37C803 -12 808 -109 802 -327C831 -332 871 -337 906 -339C949 -342 956 -359 925 -378Z"/>
</svg>