<svg xmlns="http://www.w3.org/2000/svg" viewBox="0 -1000 1000 1000">
	<path fill="#000000" d="M588 -303C590 -327 577 -343 538 -350C522 -353 516 -348 523 -335C529 -320 540 -307 555 -294C571 -279 585 -283 588 -303ZM713 -384C712 -356 705 -327 686 -291C596 -275 447 -262 415 -262C391 -262 383 -252 406 -241C432 -230 450 -227 467 -231C494 -238 530 -242 609 -250C614 -235 617 -214 617 -183C568 -176 518 -172 470 -171C434 -170 432 -160 463 -141C478 -132 499 -131 522 -137C545 -143 585 -150 617 -155C614 -42 617 31 624 59C627 80 643 82 648 64C659 26 667 -50 666 -107C665 -128 665 -145 666 -161C740 -165 780 -166 815 -163C878 -157 885 -177 847 -200C818 -217 786 -216 740 -206C716 -201 692 -196 667 -192C668 -203 670 -212 673 -218C679 -232 674 -243 661 -256C806 -267 845 -268 881 -264C936 -259 942 -281 907 -300C882 -313 849 -318 798 -308C778 -304 747 -299 715 -295C731 -313 747 -329 771 -347C783 -356 782 -369 740 -388C757 -392 776 -395 794 -398C839 -407 837 -417 816 -428C800 -433 770 -435 753 -430C716 -418 618 -403 497 -387C476 -384 473 -377 496 -372C523 -366 547 -365 569 -367C643 -374 672 -378 713 -384ZM673 -435C673 -463 657 -472 607 -472C588 -472 583 -467 595 -453C608 -438 622 -429 639 -421C665 -410 673 -412 673 -435ZM558 -474C664 -485 729 -493 747 -497C783 -502 784 -511 775 -522C769 -528 777 -549 804 -570C830 -589 829 -596 782 -615C749 -628 742 -626 714 -613C702 -608 668 -600 629 -593L643 -654C775 -673 805 -677 834 -682C898 -694 898 -710 851 -721C836 -725 802 -721 761 -713C729 -707 691 -699 652 -692C660 -713 666 -725 674 -734C688 -750 684 -770 631 -787C594 -799 584 -791 600 -761C609 -743 610 -712 607 -684C537 -673 472 -663 440 -662C418 -661 415 -650 441 -643C457 -639 526 -639 602 -648L592 -588C561 -584 531 -582 506 -581C461 -594 454 -583 471 -565C484 -550 504 -516 521 -474C531 -447 551 -448 558 -474ZM537 -558C607 -569 662 -575 694 -579C720 -582 728 -573 722 -556C714 -530 709 -523 669 -513C649 -508 584 -502 551 -499C544 -520 539 -540 537 -558ZM279 -518C210 -499 158 -489 118 -485C95 -483 95 -472 118 -463C143 -452 176 -451 262 -468C215 -355 150 -256 62 -162C48 -146 51 -135 65 -143C168 -204 237 -298 275 -395C270 -214 263 -129 251 -81C245 -56 247 -17 260 9C279 44 291 42 303 5C310 -18 316 -71 313 -157C310 -207 310 -286 312 -362C345 -322 368 -305 381 -302C405 -296 418 -308 406 -338C396 -365 372 -380 313 -379C313 -414 314 -449 315 -479C334 -483 368 -490 379 -493C433 -506 435 -521 412 -537C398 -547 377 -545 318 -530C324 -647 326 -680 341 -713C350 -730 340 -745 294 -763C247 -782 236 -766 254 -741C272 -713 280 -637 279 -518Z"/>
</svg>