<svg xmlns="http://www.w3.org/2000/svg" viewBox="0 -1000 1000 1000">
	<path fill="#000000" d="M829 -66C823 -107 794 -137 707 -162C684 -169 682 -166 696 -147C730 -99 753 -75 788 -40C810 -19 833 -30 829 -66ZM470 -161C471 -189 458 -192 445 -165C426 -125 411 -107 395 -96C383 -88 381 -67 384 -45C388 -21 401 -17 418 -32C448 -60 469 -110 470 -161ZM509 -385C537 -387 588 -396 654 -408C682 -413 692 -404 691 -366C690 -317 687 -297 679 -262C676 -250 667 -249 657 -258C646 -265 631 -265 524 -240C522 -264 521 -283 519 -302C557 -299 590 -303 647 -316C667 -320 669 -331 651 -340C635 -348 621 -350 592 -341C557 -330 537 -325 516 -321C514 -342 512 -362 509 -385ZM593 -601C597 -601 600 -602 603 -602C661 -520 692 -479 784 -372C809 -343 814 -340 948 -347C974 -348 976 -362 945 -371C850 -400 807 -424 732 -497C776 -516 799 -523 829 -528C847 -532 846 -544 819 -575C800 -598 786 -596 783 -580C779 -559 774 -550 714 -513C677 -551 658 -573 630 -607C700 -617 746 -624 762 -627C795 -634 796 -643 772 -659C756 -670 724 -671 696 -661C670 -653 638 -644 605 -636C624 -685 633 -705 646 -724C660 -744 652 -753 613 -773C563 -797 548 -783 564 -761C578 -741 572 -696 550 -622C510 -614 473 -608 447 -606C422 -604 420 -594 450 -588C468 -584 491 -584 540 -591C525 -548 506 -508 486 -471C475 -503 461 -512 417 -523C395 -530 387 -519 400 -502C418 -479 434 -466 470 -446C432 -386 388 -338 341 -299C322 -283 326 -272 356 -290C393 -311 431 -341 465 -380C477 -353 481 -331 494 -215C497 -189 522 -187 525 -216C539 -218 553 -221 564 -223C580 -190 582 -149 576 -50C575 -35 557 -31 497 -47C479 -52 475 -39 500 -22C532 1 551 23 561 47C570 71 590 69 603 44C630 -6 633 -18 630 -72C626 -158 625 -171 632 -188C637 -200 633 -208 603 -227C663 -234 669 -229 675 -213C681 -199 691 -195 701 -208C716 -229 722 -246 737 -332C739 -343 745 -358 751 -369C761 -385 761 -393 724 -422C697 -444 670 -448 652 -441C623 -429 546 -414 493 -409L490 -410C529 -461 565 -524 593 -601ZM257 -540C200 -522 142 -510 106 -507C79 -505 78 -493 103 -486C132 -478 155 -476 234 -491C190 -380 133 -287 55 -200C29 -171 41 -162 66 -179C146 -235 215 -328 255 -422C249 -166 242 -116 225 -65C216 -40 220 -6 233 19C251 54 267 51 280 15C288 -11 293 -52 290 -140C288 -205 289 -324 291 -418C314 -393 331 -379 352 -366C373 -353 392 -367 382 -396C374 -417 358 -429 291 -441C292 -465 292 -486 293 -505C309 -508 326 -512 345 -517C403 -531 405 -549 381 -559C364 -567 341 -566 295 -552C301 -662 305 -688 319 -726C329 -757 326 -763 279 -779C219 -798 206 -781 233 -754C255 -732 260 -687 257 -540Z"/>
</svg>