<svg xmlns="http://www.w3.org/2000/svg" viewBox="0 -1000 1000 1000">
	<path fill="#000000" d="M783 -466C780 -491 749 -516 689 -524C681 -525 676 -519 682 -510C704 -480 736 -455 754 -448C774 -441 785 -446 783 -466ZM604 -471C619 -483 624 -492 587 -506C572 -512 566 -511 560 -494C554 -478 545 -465 506 -423C493 -410 498 -402 513 -411C552 -434 583 -454 604 -471ZM903 -382C889 -403 847 -411 827 -407C784 -398 739 -390 665 -378C680 -422 655 -445 612 -434C598 -430 595 -421 603 -413C614 -401 630 -388 653 -376C638 -373 621 -370 604 -367C547 -357 496 -350 463 -347C477 -441 481 -481 482 -525C499 -523 521 -527 567 -536C650 -552 761 -564 822 -566C844 -567 851 -587 822 -601C804 -609 776 -613 734 -601C708 -593 676 -585 642 -577C686 -630 716 -656 749 -673C773 -684 771 -696 742 -714C713 -734 705 -734 686 -722C653 -702 609 -691 579 -694C594 -716 615 -745 629 -760C649 -782 647 -800 571 -817C548 -822 543 -814 549 -796C557 -774 558 -721 465 -599C449 -577 453 -570 476 -584C506 -604 537 -633 567 -675C588 -663 605 -662 656 -677C677 -684 685 -682 614 -572C559 -560 503 -550 466 -545C418 -559 411 -546 421 -530C437 -505 434 -435 414 -319C393 -200 362 -93 293 2C277 24 288 29 309 11C394 -60 436 -171 461 -331C487 -317 497 -316 552 -328C670 -355 751 -362 840 -359C901 -357 913 -368 903 -382ZM373 -541C353 -550 339 -550 281 -538C289 -664 294 -690 308 -727C315 -745 307 -761 261 -781C216 -802 205 -791 224 -762C242 -732 246 -701 242 -530C186 -517 136 -508 102 -503C80 -500 83 -490 99 -483C124 -474 139 -470 239 -486C194 -383 119 -268 51 -196C37 -182 39 -167 62 -180C122 -215 202 -312 239 -394C233 -219 223 -113 215 -91C201 -53 202 -34 214 1C226 37 242 38 255 1C261 -19 267 -62 268 -133C269 -222 271 -308 273 -380C291 -359 323 -333 340 -322C356 -312 377 -331 362 -365C353 -384 326 -394 273 -388C275 -429 276 -464 278 -493C294 -496 313 -500 334 -504C388 -514 390 -532 373 -541ZM743 -296C734 -306 704 -309 665 -298C627 -287 568 -275 548 -273C534 -272 530 -264 547 -254C564 -242 576 -242 714 -272C746 -279 752 -287 743 -296ZM753 -219C743 -227 715 -227 693 -221C664 -212 584 -194 547 -189C530 -186 536 -170 555 -166C579 -161 611 -163 730 -189C754 -194 764 -210 753 -219ZM825 -83C848 -99 831 -119 799 -134C762 -153 753 -154 734 -142C711 -129 590 -109 529 -108C483 -125 470 -115 483 -96C500 -73 513 -43 525 22C532 55 539 63 547 63C553 63 558 55 559 32C615 28 746 14 774 10C790 8 793 -2 781 -20C772 -34 779 -51 825 -83ZM732 -75C721 -34 711 -23 694 -19C663 -13 600 -4 559 1C557 -28 554 -54 549 -85C566 -84 589 -87 633 -94C662 -99 683 -101 705 -103C731 -106 740 -103 732 -75Z"/>
</svg>