<svg xmlns="http://www.w3.org/2000/svg" viewBox="0 -1000 1000 1000">
	<path fill="#000000" d="M236 -518C179 -502 146 -496 93 -488C64 -484 64 -473 87 -467C121 -457 144 -455 216 -469C169 -358 120 -260 44 -172C25 -150 32 -141 51 -156C137 -222 194 -303 233 -397C228 -159 222 -97 206 -54C197 -29 201 5 215 31C233 66 246 64 258 27C265 4 272 -43 269 -129C267 -189 268 -280 269 -362C297 -338 316 -321 323 -313C336 -298 362 -311 357 -339C351 -373 328 -385 270 -392C271 -427 272 -457 273 -481C288 -484 306 -488 326 -493C375 -505 375 -512 344 -528C325 -539 314 -540 275 -530C282 -643 284 -662 296 -696C304 -721 297 -739 251 -753C195 -771 185 -758 211 -724C230 -699 237 -642 236 -518ZM434 -380C432 -412 428 -446 423 -479C443 -479 463 -484 471 -489C480 -495 481 -511 471 -518C465 -522 450 -521 418 -510C412 -547 406 -578 400 -595C461 -660 499 -697 514 -710C546 -736 542 -745 493 -761C461 -773 453 -768 455 -751C459 -727 439 -681 385 -609C344 -621 335 -612 349 -592C358 -580 374 -509 390 -424C402 -353 409 -335 420 -335C429 -335 435 -343 435 -355C491 -370 502 -373 522 -376C529 -377 537 -373 544 -366C555 -354 567 -354 578 -379C589 -402 603 -473 611 -528C616 -565 629 -604 635 -611C652 -629 651 -640 607 -658C578 -671 569 -672 555 -662C536 -651 518 -643 497 -636C475 -628 475 -620 495 -614C504 -611 515 -612 549 -620C566 -624 571 -620 571 -595C570 -576 569 -554 567 -531C544 -531 523 -526 507 -521C495 -517 496 -505 509 -498C519 -492 532 -491 564 -502C560 -474 556 -447 550 -424C544 -399 535 -400 524 -405C518 -408 506 -405 434 -380ZM447 -244C463 -225 465 -196 462 -115C398 -94 352 -85 320 -85C292 -85 286 -75 310 -53C348 -19 358 -20 382 -38C391 -45 418 -58 622 -146C650 -159 642 -172 616 -167C595 -163 545 -146 506 -132C507 -186 508 -196 513 -208C521 -222 520 -233 485 -251C540 -266 572 -278 590 -286C608 -296 607 -309 589 -314C566 -320 546 -315 505 -300C484 -292 412 -270 382 -265C362 -262 358 -249 381 -241C387 -239 420 -240 447 -244ZM717 -650C725 -651 735 -653 749 -657C779 -667 791 -658 786 -635C777 -590 777 -504 783 -483C793 -450 801 -438 821 -437C856 -436 904 -442 919 -453C940 -469 942 -477 928 -490C919 -500 898 -496 871 -488C831 -477 812 -488 814 -520C819 -605 832 -637 850 -652C871 -669 871 -680 830 -704C803 -719 794 -717 774 -701C755 -685 730 -676 693 -674C643 -690 637 -675 656 -654C669 -640 678 -615 678 -565C678 -485 664 -437 622 -381C609 -365 616 -354 632 -366C706 -418 731 -509 717 -650ZM744 -118C761 -94 778 -68 798 -37C818 -6 827 -1 963 -11C984 -14 987 -28 966 -36C879 -69 832 -92 772 -154C789 -181 809 -219 822 -266C831 -297 841 -319 853 -329C872 -343 865 -358 821 -380C791 -396 785 -397 766 -383C743 -368 685 -347 649 -343C625 -340 625 -327 643 -319C656 -314 669 -314 684 -320C699 -326 751 -338 766 -340C777 -342 786 -338 783 -318C776 -263 757 -222 739 -189C721 -210 702 -235 679 -264C665 -282 651 -289 632 -292C613 -295 609 -282 622 -274C638 -264 666 -233 718 -156C681 -104 622 -62 542 -31C522 -23 525 -12 543 -14C625 -20 691 -55 744 -118Z"/>
</svg>