<svg xmlns="http://www.w3.org/2000/svg" viewBox="0 -1000 1000 1000">
	<path fill="#000000" d="M269 -691C261 -695 251 -698 241 -701C216 -708 206 -697 219 -683C228 -672 234 -646 235 -571C237 -430 229 -376 215 -328C209 -309 209 -292 220 -268C232 -241 254 -241 263 -271C265 -279 270 -330 271 -373C273 -516 275 -588 280 -664C308 -673 327 -679 344 -687C368 -697 376 -695 369 -682C356 -657 343 -634 333 -614C328 -605 329 -600 339 -589C366 -564 388 -538 390 -522C391 -514 382 -502 320 -519C307 -522 304 -512 315 -505C350 -480 369 -464 379 -447C387 -436 397 -434 410 -452C445 -502 439 -550 374 -594C355 -608 354 -612 369 -627C405 -664 417 -676 437 -685C456 -693 453 -709 417 -727C387 -743 377 -741 361 -728C342 -714 299 -698 269 -691ZM419 -215C357 -143 246 -69 145 -25C106 -7 109 7 150 -3C278 -36 401 -110 475 -209C475 -141 474 -92 466 -59C459 -30 461 20 472 39C490 68 498 70 507 52C519 31 530 -12 526 -50C521 -94 518 -175 521 -211C582 -156 657 -93 707 -54C746 -23 763 -16 914 -41C943 -46 946 -61 911 -67C779 -90 680 -124 547 -226C664 -231 775 -232 805 -230C906 -223 913 -247 859 -271C828 -285 811 -286 739 -276C708 -272 665 -267 528 -253C534 -276 533 -282 497 -295C448 -311 441 -298 460 -273C464 -267 467 -259 469 -248C334 -236 195 -224 175 -225C112 -227 107 -215 161 -192C184 -182 197 -181 254 -192C319 -202 368 -210 419 -215ZM705 -422C684 -427 665 -424 629 -417C580 -407 516 -400 485 -402C470 -403 464 -393 477 -385C495 -374 523 -371 549 -376C603 -386 663 -397 702 -403C719 -406 722 -418 705 -422ZM834 -447C846 -455 846 -465 806 -492C784 -507 775 -509 751 -501C715 -488 551 -463 458 -454C444 -454 438 -445 455 -438C476 -427 489 -428 537 -436C598 -446 691 -457 737 -463C751 -465 755 -461 751 -443C737 -381 729 -370 708 -367C593 -348 510 -340 462 -339C442 -339 436 -326 456 -318C478 -310 498 -308 521 -311C617 -324 712 -333 754 -335C803 -338 803 -351 788 -362C778 -369 774 -388 791 -409C809 -430 822 -440 834 -447ZM599 -562C600 -552 600 -541 599 -530C554 -521 510 -515 492 -514C477 -514 474 -505 488 -501C505 -495 522 -492 536 -495C579 -503 677 -516 742 -525C791 -534 786 -549 774 -554C759 -559 738 -558 718 -553C703 -549 674 -543 641 -537C640 -546 640 -558 640 -570C685 -578 719 -586 756 -596C774 -602 773 -613 761 -616C746 -620 736 -621 716 -617C566 -584 515 -575 497 -574C479 -573 477 -564 495 -556C506 -551 524 -550 599 -562ZM543 -614C544 -625 532 -642 494 -664C477 -675 470 -672 475 -653C482 -629 489 -616 499 -602C515 -580 540 -587 543 -614ZM644 -628C651 -649 637 -678 610 -685C590 -690 585 -687 593 -667C597 -654 604 -634 612 -624C626 -610 638 -611 644 -628ZM829 -683C845 -687 844 -702 802 -722C770 -738 761 -733 761 -715C761 -704 744 -687 690 -644C673 -630 676 -617 693 -625C776 -665 808 -678 829 -683ZM766 -744C798 -750 798 -765 746 -788C717 -800 711 -798 704 -785C697 -770 580 -722 486 -702C468 -697 470 -685 491 -685C516 -686 553 -693 660 -719C703 -729 747 -741 766 -744Z"/>
</svg>