<svg xmlns="http://www.w3.org/2000/svg" viewBox="0 -1000 1000 1000">
	<path fill="#000000" d="M159 -402C156 -452 151 -491 141 -546C158 -549 185 -555 206 -560C250 -570 256 -569 252 -527C249 -486 247 -477 239 -453C231 -425 226 -418 159 -402ZM123 -573C67 -596 58 -581 83 -540C100 -512 116 -448 122 -354C123 -333 134 -318 146 -318C154 -318 162 -339 161 -370C214 -380 261 -390 286 -398C318 -408 318 -424 285 -445C303 -503 314 -526 328 -543C348 -566 349 -574 317 -591C268 -618 256 -616 236 -603C209 -584 166 -575 123 -573ZM604 -386C643 -393 678 -397 697 -399C713 -401 716 -395 709 -376C700 -351 695 -345 677 -342C660 -339 635 -335 604 -330C604 -348 604 -367 604 -386ZM562 -325C527 -320 488 -315 447 -310C442 -337 440 -349 440 -359C467 -365 510 -372 564 -380C563 -359 563 -341 562 -325ZM565 -556C526 -551 489 -545 456 -540C453 -558 451 -572 450 -585C479 -591 523 -599 565 -606C565 -590 565 -575 565 -556ZM613 -613C647 -618 676 -622 688 -623C720 -625 726 -621 715 -577C687 -574 653 -569 610 -562C611 -582 612 -599 613 -613ZM608 -534C641 -539 675 -543 707 -546C702 -530 696 -512 690 -493C687 -487 676 -483 669 -485C665 -486 638 -483 606 -477C607 -496 607 -514 608 -534ZM565 -469C531 -464 495 -458 471 -456C467 -478 464 -496 461 -510C482 -514 516 -520 565 -527C565 -506 565 -486 565 -469ZM656 -194C644 -162 629 -126 612 -109C579 -120 534 -134 522 -137C508 -142 507 -149 512 -159C516 -167 521 -173 525 -179C565 -184 610 -190 656 -194ZM722 -234C720 -241 714 -247 702 -255C670 -271 668 -269 669 -257C670 -250 668 -240 665 -227C629 -223 589 -217 543 -211C564 -243 571 -251 580 -258C593 -265 596 -276 577 -300C656 -311 738 -321 746 -320C770 -319 775 -335 750 -351C757 -366 770 -382 781 -388C804 -401 805 -408 772 -428C743 -444 735 -442 719 -436C697 -427 654 -418 604 -411C604 -423 605 -437 605 -449C618 -452 638 -455 649 -457C678 -464 690 -465 692 -457C696 -444 706 -444 716 -457C729 -474 745 -509 762 -550C812 -554 855 -555 879 -554C925 -552 930 -570 907 -586C880 -604 877 -604 775 -586C781 -603 786 -609 796 -616C807 -624 805 -637 772 -656C741 -675 732 -674 706 -662C698 -658 660 -651 614 -643C618 -699 621 -713 626 -729C635 -757 628 -765 590 -780C523 -806 516 -792 547 -754C557 -743 562 -712 564 -633C516 -624 467 -617 437 -614C426 -619 418 -621 403 -623C375 -627 369 -611 390 -590C397 -583 406 -566 417 -534C390 -528 369 -526 358 -526C325 -525 326 -515 350 -506C374 -496 385 -493 425 -503C431 -478 436 -459 442 -446C455 -416 471 -419 473 -434C477 -432 551 -441 565 -443C565 -430 564 -416 564 -405C519 -399 464 -392 427 -385C421 -388 410 -390 393 -393C375 -395 367 -381 383 -368C390 -362 401 -338 417 -280C424 -250 447 -251 451 -280C469 -284 499 -289 534 -294C532 -275 520 -242 500 -205C415 -195 336 -188 303 -188C275 -188 272 -176 304 -161C333 -146 343 -148 395 -162C404 -164 436 -169 481 -174C477 -168 473 -162 469 -156C457 -138 460 -129 481 -122C521 -109 553 -98 580 -85C519 -40 436 -5 363 12C344 16 345 30 368 30C447 28 549 -2 622 -62C690 -23 738 10 766 37C791 62 808 53 802 17C794 -30 756 -57 654 -95C676 -123 703 -170 715 -199C788 -204 896 -207 912 -205C963 -201 966 -217 947 -235C924 -258 880 -262 839 -252C822 -248 782 -242 722 -234Z"/>
</svg>