<svg xmlns="http://www.w3.org/2000/svg" viewBox="0 -1000 1000 1000">
	<path fill="#000000" d="M142 -212C193 -214 231 -221 284 -237C298 -241 300 -255 285 -266C278 -271 276 -275 281 -286C293 -321 301 -339 309 -347C329 -368 328 -374 288 -398C263 -412 248 -413 219 -398C186 -380 155 -372 118 -372C77 -396 61 -382 75 -356C90 -329 100 -289 106 -212C107 -186 117 -161 129 -161C136 -161 139 -167 142 -212ZM130 -347C171 -353 211 -360 220 -361C238 -364 242 -361 242 -337C241 -322 240 -307 236 -283C232 -263 223 -260 142 -244C139 -273 135 -311 130 -347ZM219 -534C242 -516 260 -514 298 -522C378 -540 388 -536 391 -490C396 -411 386 -241 368 -168C354 -108 343 -108 275 -133C256 -140 249 -129 263 -110C293 -74 312 -42 318 -25C326 4 337 3 364 -25C397 -59 409 -87 425 -173C435 -229 439 -289 443 -415C445 -472 451 -502 459 -515C476 -543 476 -551 438 -570C395 -590 381 -589 358 -578C321 -559 271 -549 231 -550C242 -568 254 -586 262 -604C287 -656 316 -704 329 -716C350 -736 349 -749 300 -767C253 -786 237 -776 249 -748C256 -731 254 -717 223 -643C193 -571 153 -502 109 -445C90 -421 99 -411 122 -429C151 -453 188 -491 219 -534ZM582 -516C604 -555 625 -602 644 -657C650 -675 665 -706 673 -716C686 -734 679 -753 632 -776C590 -795 573 -788 589 -754C598 -734 595 -701 579 -644C557 -560 519 -476 474 -411C458 -387 469 -380 486 -395C516 -421 544 -454 571 -497C596 -488 634 -491 688 -507C757 -527 762 -520 735 -462C714 -417 719 -410 749 -436C795 -474 825 -486 853 -495C876 -502 876 -517 854 -534C828 -554 812 -565 802 -570C777 -582 760 -580 747 -572C724 -555 656 -530 582 -516ZM627 -302C633 -333 637 -350 644 -368C657 -397 650 -405 608 -421C571 -436 566 -432 574 -398C584 -356 572 -272 551 -205C523 -109 464 -43 399 -3C379 9 382 25 400 17C512 -26 598 -121 619 -262C672 -160 716 -79 745 -35C766 -4 773 0 924 -1C962 -1 965 -20 940 -28C810 -70 742 -133 627 -302Z"/>
</svg>