<svg xmlns="http://www.w3.org/2000/svg" viewBox="0 -1000 1000 1000">
	<path fill="#000000" d="M656 -242C690 -171 710 -133 749 -62C784 2 790 5 947 4C974 4 977 -12 952 -23C836 -70 782 -106 664 -285C669 -309 677 -338 681 -347C692 -371 688 -378 639 -406C610 -422 600 -411 614 -379C626 -354 612 -248 594 -195C565 -111 537 -73 477 -20C451 4 460 12 489 -2C571 -44 629 -114 656 -242ZM601 -483C641 -473 663 -473 746 -496C771 -503 779 -490 753 -443C731 -401 739 -394 764 -413C830 -467 840 -474 862 -480C896 -489 898 -505 843 -538C798 -566 783 -566 751 -545C719 -524 656 -503 610 -501C631 -541 642 -568 668 -636C678 -663 690 -687 700 -699C715 -718 717 -737 671 -759C618 -785 605 -773 619 -742C626 -727 623 -689 617 -665C594 -558 562 -473 505 -387C488 -362 494 -353 521 -374C550 -397 576 -436 601 -483ZM167 -642C122 -663 111 -652 124 -625C132 -610 141 -552 139 -417C138 -311 131 -169 126 -148C119 -116 125 -70 142 -47C151 -35 165 -40 169 -115C192 -113 216 -115 236 -119C309 -128 334 -131 376 -134C389 -135 392 -132 397 -114C405 -85 413 -50 418 -24C421 -10 431 -10 441 -21C462 -40 479 -71 484 -136C486 -193 485 -347 479 -511C478 -552 488 -606 497 -621C509 -640 507 -651 468 -674C426 -699 415 -697 391 -686C374 -678 258 -654 167 -642ZM273 -421C263 -351 233 -286 176 -242C182 -373 183 -474 181 -610C249 -622 353 -639 379 -641C417 -643 429 -628 432 -577C435 -531 438 -441 438 -344C438 -211 435 -174 429 -145C425 -126 420 -126 410 -141C391 -170 377 -175 360 -171C269 -158 211 -152 171 -149C173 -175 175 -199 175 -222C235 -243 276 -290 300 -362C317 -338 340 -304 368 -265C399 -222 412 -226 412 -261C412 -305 394 -331 305 -379C309 -395 313 -412 315 -431C361 -440 391 -447 406 -451C429 -457 432 -471 411 -481C395 -488 374 -490 348 -482C338 -479 329 -476 320 -473C325 -534 329 -551 336 -564C342 -574 339 -587 303 -605C265 -623 255 -611 269 -586C279 -572 284 -550 276 -459C235 -447 212 -442 198 -441C178 -439 176 -430 194 -422C211 -416 238 -415 273 -421Z"/>
</svg>