<svg xmlns="http://www.w3.org/2000/svg" viewBox="0 -1000 1000 1000">
	<path fill="#000000" d="M875 28C877 -32 842 -83 707 -133C696 -137 693 -131 697 -125C710 -106 732 -78 838 49C858 74 874 69 875 28ZM621 -91C643 -106 636 -120 598 -137C566 -152 559 -149 551 -133C530 -81 444 -3 344 49C336 53 337 64 350 61C412 47 486 14 566 -50C583 -64 601 -77 621 -91ZM535 -175C559 -167 571 -167 617 -173C634 -175 705 -181 757 -184C768 -186 771 -182 775 -173C779 -164 797 -134 807 -122C813 -114 823 -113 830 -125C845 -153 853 -198 848 -248C846 -269 844 -340 844 -409C844 -430 852 -457 858 -472C870 -498 868 -503 844 -517C802 -542 793 -541 764 -531C709 -511 575 -491 530 -493C492 -510 482 -502 491 -478C497 -461 502 -409 501 -369C499 -298 495 -243 488 -209C485 -195 488 -175 500 -159C513 -140 524 -141 535 -175ZM546 -390C547 -419 547 -442 548 -462C654 -477 683 -480 741 -483C765 -484 778 -482 784 -456C788 -438 795 -268 788 -227C786 -211 781 -210 776 -215C769 -225 737 -226 609 -203C587 -199 566 -198 539 -199C540 -226 541 -251 542 -274C583 -267 651 -268 736 -292C750 -296 748 -310 733 -315C715 -322 690 -320 661 -311C647 -307 580 -297 543 -294C544 -324 545 -349 545 -371C589 -362 640 -366 730 -389C745 -394 742 -413 714 -416C697 -418 663 -412 609 -398C590 -393 570 -390 546 -390ZM609 -560C676 -571 704 -574 771 -581C791 -583 796 -593 789 -611C784 -624 807 -668 841 -688C859 -699 860 -711 813 -743C787 -760 770 -761 744 -751C699 -732 613 -712 555 -706C506 -719 494 -703 506 -690C526 -671 558 -611 566 -578C569 -564 576 -549 592 -540C597 -536 607 -541 609 -560ZM583 -680C648 -695 720 -709 743 -710C750 -710 752 -707 752 -695C752 -685 745 -655 741 -644C734 -626 730 -618 720 -615C688 -605 656 -598 607 -590C598 -628 592 -655 583 -680ZM260 -462C332 -444 333 -440 329 -423C298 -290 213 -164 65 -46C49 -34 54 -26 74 -34C157 -70 210 -112 279 -200C297 -224 351 -314 367 -352C381 -383 396 -408 410 -420C431 -438 431 -448 395 -475C374 -490 364 -492 354 -489C318 -479 301 -479 274 -486C293 -515 299 -524 316 -546C337 -573 336 -581 296 -615C389 -637 447 -653 460 -660C481 -672 481 -679 463 -690C441 -704 412 -703 341 -680C250 -651 227 -645 134 -627C118 -624 119 -616 131 -612C178 -595 204 -594 263 -607C264 -552 188 -407 85 -304C67 -287 73 -279 93 -291C121 -306 146 -324 168 -344C180 -328 197 -305 221 -277C246 -248 264 -263 259 -298C254 -329 248 -337 185 -361C211 -387 235 -420 260 -462Z"/>
</svg>