<svg xmlns="http://www.w3.org/2000/svg" viewBox="0 -1000 1000 1000">
	<path fill="#000000" d="M581 -87C596 -98 594 -114 553 -133C516 -148 503 -142 504 -115C504 -102 502 -95 479 -61C463 -37 411 17 363 47C345 59 350 73 374 64C430 42 477 12 526 -34C553 -60 574 -80 581 -87ZM866 11C864 -39 848 -63 736 -123C685 -149 680 -140 709 -101C741 -58 778 -12 807 20C848 68 868 56 866 11ZM690 -716C688 -755 669 -776 599 -792C563 -800 555 -793 577 -760C589 -744 626 -701 644 -682C663 -664 691 -680 690 -716ZM475 -579C487 -577 501 -578 538 -585C615 -601 767 -626 800 -628C827 -630 835 -623 809 -576C794 -547 805 -536 830 -555C866 -584 893 -592 921 -599C958 -607 959 -625 935 -643C920 -653 899 -668 874 -679C848 -690 830 -688 806 -677C782 -665 721 -649 674 -640C566 -620 512 -612 478 -610C464 -652 451 -652 442 -625C428 -586 421 -572 404 -545C391 -523 389 -509 391 -486C394 -453 410 -446 426 -466C443 -488 459 -520 475 -579ZM609 -420C563 -411 514 -403 470 -399C418 -416 413 -405 430 -374C452 -335 467 -281 478 -215C480 -206 484 -196 490 -180C503 -144 528 -149 528 -173C725 -207 737 -209 744 -192C750 -176 765 -175 772 -186C788 -207 808 -249 827 -312C838 -350 846 -373 858 -385C879 -407 875 -420 816 -451C789 -466 778 -465 741 -453C716 -446 688 -439 660 -432C661 -464 653 -475 622 -489C697 -507 738 -519 745 -523C761 -533 757 -548 741 -553C727 -558 703 -557 666 -545C603 -524 553 -511 524 -505C503 -501 503 -488 532 -483C549 -480 567 -479 591 -483C603 -461 608 -443 609 -420ZM609 -291V-217C584 -212 556 -206 525 -199C511 -281 500 -338 492 -371C524 -376 561 -382 609 -392V-321C594 -317 574 -313 546 -307C529 -303 533 -289 555 -286C566 -285 585 -286 609 -291ZM652 -334C656 -370 658 -401 658 -401C715 -413 732 -415 744 -415C773 -416 779 -406 775 -373C769 -324 756 -272 746 -243C743 -234 734 -232 726 -235C719 -237 691 -233 644 -225L649 -297C676 -302 701 -308 715 -313C733 -319 729 -335 713 -340C699 -344 691 -345 652 -334ZM190 -414C210 -407 230 -407 265 -415C285 -419 288 -414 284 -398C245 -233 186 -133 80 -30C53 -4 61 6 87 -10C209 -88 268 -183 319 -328C342 -397 345 -406 364 -417C379 -427 376 -443 348 -461C316 -480 305 -480 278 -459C260 -446 233 -440 204 -439C237 -493 247 -509 256 -521C270 -541 270 -552 235 -576C291 -589 364 -610 391 -621C413 -630 417 -645 405 -654C393 -664 357 -662 319 -649C247 -624 141 -599 107 -596C63 -593 63 -575 108 -564C120 -560 160 -561 204 -570C199 -518 163 -437 79 -324C62 -302 68 -291 96 -313C108 -322 120 -333 129 -343C153 -305 178 -273 197 -248C211 -232 228 -247 227 -276C226 -312 204 -338 141 -353C160 -374 177 -394 190 -414Z"/>
</svg>