<svg xmlns="http://www.w3.org/2000/svg" viewBox="0 -1000 1000 1000">
	<path fill="#000000" d="M712 -76C701 -105 675 -120 609 -128C581 -132 579 -125 598 -108C629 -80 645 -68 675 -47C702 -29 724 -47 712 -76ZM448 -181C454 -189 459 -196 465 -204C473 -214 472 -219 439 -242C498 -253 543 -263 558 -266C626 -279 631 -275 615 -239C603 -210 590 -204 553 -199C530 -195 495 -190 448 -181ZM299 -155C296 -177 291 -195 284 -212C324 -221 364 -228 403 -235C406 -221 403 -201 391 -171C363 -166 333 -161 299 -155ZM420 -349C443 -346 462 -348 485 -353C499 -356 502 -354 487 -327C471 -299 461 -282 450 -270C406 -262 332 -248 257 -236C203 -248 195 -234 212 -222C224 -212 238 -194 278 -126C285 -114 298 -118 300 -133C329 -137 355 -141 378 -144C339 -68 290 -25 126 33C104 40 102 62 129 56C281 24 377 -26 434 -152C445 -154 456 -155 466 -156C474 -139 477 -120 475 -100C472 -64 473 -29 478 -10C493 39 568 60 680 61C749 62 828 46 859 32C908 11 918 -6 906 -28C889 -56 883 -86 882 -126C881 -180 874 -180 859 -125C833 -24 814 -5 683 6C553 17 516 -10 514 -55C513 -80 515 -97 523 -108C536 -133 536 -142 500 -160C537 -164 565 -167 589 -168C647 -171 654 -182 645 -201C641 -208 642 -211 649 -216C675 -234 695 -245 707 -249C726 -257 727 -270 687 -297C653 -320 639 -322 628 -315C609 -304 541 -287 481 -276C519 -315 532 -329 553 -339C571 -348 574 -354 547 -373C522 -390 513 -392 498 -383C477 -373 460 -369 438 -368C456 -384 472 -399 478 -404C491 -412 489 -420 459 -432C418 -448 410 -441 417 -417C422 -398 375 -345 293 -279C281 -269 291 -259 312 -269C353 -290 378 -309 420 -349ZM275 -453C283 -485 278 -493 247 -500C202 -509 195 -497 210 -482C219 -473 227 -447 227 -417C227 -371 219 -351 196 -333C187 -326 185 -319 191 -299C199 -271 209 -271 228 -290C259 -317 289 -341 367 -386C382 -395 378 -407 366 -402C324 -384 296 -373 258 -361C261 -389 267 -423 271 -438C325 -433 350 -438 393 -455C412 -464 411 -476 387 -480C372 -482 359 -480 345 -475C319 -464 298 -457 275 -453ZM349 -537C340 -555 333 -570 323 -585C415 -600 478 -611 571 -628C616 -637 622 -630 603 -591C593 -571 588 -568 564 -567C525 -562 413 -547 349 -537ZM405 -722C439 -716 465 -719 540 -734C554 -738 556 -732 533 -704C516 -683 498 -657 478 -633C412 -620 344 -612 298 -608C249 -624 232 -605 250 -592C269 -578 285 -560 329 -506C338 -495 354 -500 356 -512C406 -522 467 -530 516 -534C527 -519 532 -490 532 -437C532 -399 548 -377 593 -366C657 -350 732 -354 777 -376C801 -387 805 -398 798 -408C788 -420 784 -441 784 -480C784 -502 772 -503 766 -479C751 -423 743 -412 710 -403C686 -396 631 -396 602 -400C576 -403 564 -421 567 -451C661 -476 688 -480 711 -481C730 -482 733 -492 706 -515C679 -538 672 -537 662 -522C652 -509 629 -495 571 -473C579 -510 576 -522 549 -536C561 -537 572 -538 583 -538C646 -540 652 -544 642 -560C639 -568 662 -594 705 -612C729 -622 727 -635 691 -655C646 -678 637 -677 619 -664C614 -660 578 -650 516 -640C567 -692 593 -709 626 -719C643 -725 645 -739 617 -760C580 -788 571 -786 548 -775C509 -755 468 -745 425 -742C437 -754 445 -760 456 -766C471 -776 469 -782 441 -799C395 -829 381 -818 387 -792C391 -773 351 -718 240 -645C219 -631 222 -620 241 -629C308 -659 372 -696 405 -722Z"/>
</svg>