<svg xmlns="http://www.w3.org/2000/svg" viewBox="0 -1000 1000 1000">
	<path fill="#000000" d="M614 -353C615 -379 617 -411 621 -448C651 -455 672 -461 705 -469C745 -479 744 -491 710 -505C693 -512 676 -513 624 -496C628 -534 630 -545 636 -557C645 -576 643 -585 608 -602C630 -609 649 -617 669 -627C693 -640 722 -651 746 -658C766 -664 766 -678 699 -717C681 -727 667 -721 664 -703C659 -675 595 -634 490 -588C463 -577 469 -565 495 -570C521 -575 546 -581 570 -588C580 -574 581 -554 577 -479C544 -467 518 -459 492 -454C465 -449 464 -443 487 -435C498 -431 524 -430 575 -439C573 -398 571 -367 570 -341C493 -320 470 -315 443 -313C419 -311 417 -298 433 -287C454 -274 476 -275 500 -282C527 -291 549 -298 568 -303C568 -219 579 -157 638 -143C685 -133 751 -136 816 -160C842 -169 844 -190 836 -204C827 -221 820 -251 817 -300C815 -335 804 -332 797 -296C781 -217 771 -203 734 -195C714 -191 672 -189 651 -194C618 -201 613 -233 613 -315C657 -328 686 -333 735 -338C785 -343 789 -363 759 -377C731 -390 712 -390 685 -377C672 -371 659 -366 614 -353ZM258 -640C279 -652 280 -668 245 -692C206 -720 192 -713 200 -684C205 -665 190 -635 168 -602C150 -573 118 -532 90 -505C64 -480 67 -469 103 -489C149 -516 181 -547 212 -590C231 -618 239 -628 258 -640ZM450 -607C459 -648 441 -676 345 -713C316 -724 309 -717 327 -694C348 -668 391 -617 413 -594C437 -570 442 -573 450 -607ZM370 -409C312 -397 259 -387 197 -379C270 -473 285 -489 308 -503C325 -512 326 -533 279 -562C256 -577 241 -571 248 -546C254 -519 234 -482 186 -416C167 -392 154 -380 136 -374C117 -368 113 -360 126 -333C138 -308 145 -305 189 -332C196 -318 197 -302 194 -286C165 -146 134 -93 50 -21C28 -2 32 11 62 -4C150 -49 199 -99 237 -246C246 -278 249 -289 254 -298C265 -318 262 -328 220 -345C237 -351 257 -356 293 -365C299 -346 302 -324 301 -303C299 -256 297 -221 297 -198C297 -79 323 -43 405 -18C508 14 715 10 820 -17C934 -45 948 -77 923 -113C906 -138 896 -187 892 -237C890 -274 873 -274 870 -233C859 -110 840 -84 781 -73C653 -51 530 -49 430 -72C366 -87 342 -115 342 -175C342 -277 347 -302 358 -320C366 -334 364 -353 323 -371C341 -375 361 -380 385 -384C394 -369 401 -359 406 -351C424 -330 438 -335 443 -363C450 -393 444 -416 356 -475C341 -484 333 -478 341 -462C348 -448 359 -428 370 -409Z"/>
</svg>