<svg xmlns="http://www.w3.org/2000/svg" viewBox="0 -1000 1000 1000">
	<path fill="#000000" d="M352 -673C336 -716 314 -731 252 -729C225 -728 218 -721 233 -704C264 -670 297 -639 314 -627C344 -608 367 -635 352 -673ZM249 -463C249 -502 211 -528 143 -532C122 -533 118 -525 130 -510C154 -481 195 -442 205 -435C232 -417 249 -432 249 -463ZM945 -86C935 -142 930 -188 926 -243C923 -287 910 -290 901 -245C895 -214 888 -169 882 -150C875 -128 864 -116 831 -122C718 -143 680 -303 704 -481C720 -602 743 -642 768 -657C795 -674 783 -687 739 -715C698 -743 672 -740 648 -721C636 -712 622 -705 572 -692C527 -680 447 -668 415 -667C387 -666 378 -654 409 -634C425 -624 440 -622 489 -635C567 -657 616 -668 644 -673C674 -678 681 -676 677 -643C674 -615 660 -485 658 -458C639 -220 678 -91 861 -52C929 -37 950 -56 945 -86ZM618 -413C638 -420 638 -438 616 -448C597 -456 570 -456 530 -444C534 -494 537 -539 539 -543C551 -580 544 -590 492 -604C457 -613 452 -596 463 -582C486 -552 493 -519 486 -430C446 -418 411 -412 363 -405C341 -402 342 -389 366 -381C396 -370 415 -370 482 -381C471 -273 453 -184 439 -155C419 -114 422 -94 439 -59C446 -45 453 -44 470 -63C489 -85 506 -173 512 -239C516 -282 520 -343 524 -389C558 -396 604 -408 618 -413ZM301 -339C320 -382 307 -395 279 -351C272 -341 210 -236 192 -204C172 -170 156 -155 138 -149C129 -146 124 -128 146 -84C182 -13 206 -18 214 -76C222 -133 258 -237 301 -339Z"/>
</svg>