<svg xmlns="http://www.w3.org/2000/svg" viewBox="0 -1000 1000 1000">
	<path fill="#000000" d="M160 -409C156 -456 151 -493 141 -548C161 -552 193 -558 216 -564C261 -574 267 -573 263 -530C260 -502 256 -483 250 -463C242 -438 236 -428 160 -409ZM120 -577C66 -601 52 -587 81 -542C100 -510 115 -452 121 -360C123 -330 134 -314 146 -314C155 -314 164 -331 162 -375C218 -386 269 -398 295 -405C328 -415 328 -433 294 -454C307 -498 322 -525 339 -545C361 -570 360 -577 327 -595C275 -624 261 -621 240 -608C211 -588 166 -579 120 -577ZM623 -32C623 -53 624 -91 624 -106C665 -113 694 -122 704 -128C726 -140 719 -165 676 -156C658 -152 642 -148 627 -145C628 -154 630 -162 632 -169C637 -192 633 -204 614 -216C648 -221 692 -225 707 -226C745 -229 756 -219 756 -193C756 -162 748 -101 739 -57C734 -37 729 -33 724 -37C717 -41 706 -41 623 -32ZM437 -222C383 -237 371 -227 384 -206C402 -174 411 -141 425 -17C427 6 434 32 443 43C458 60 474 51 473 6C507 11 545 9 595 3C641 -3 668 -6 683 -7C709 -9 713 -5 716 8C720 25 727 45 731 53C736 65 742 66 753 54C772 36 794 -9 797 -43C805 -137 817 -174 839 -196C851 -208 850 -226 794 -257C763 -273 743 -278 703 -264C683 -257 590 -240 437 -222ZM471 -22C466 -76 462 -135 458 -196C499 -201 537 -206 574 -211C579 -202 582 -187 582 -136C558 -131 533 -127 506 -123C478 -119 478 -107 499 -102C513 -98 550 -96 582 -100L581 -28C541 -24 502 -22 471 -22ZM532 -293C590 -302 626 -306 681 -310C700 -311 703 -322 694 -334C682 -347 691 -364 732 -392C747 -402 747 -414 707 -439C671 -462 658 -461 619 -448C569 -432 526 -422 484 -418C437 -427 431 -415 459 -379C465 -372 480 -332 490 -301C495 -283 506 -268 518 -266C529 -265 534 -269 532 -293ZM511 -394C548 -402 579 -407 617 -412C647 -416 659 -412 657 -394C653 -371 651 -362 644 -351C639 -342 612 -336 527 -319C520 -346 513 -376 511 -394ZM797 -698C746 -727 735 -725 731 -698C728 -678 705 -654 664 -624C643 -609 650 -595 675 -607C767 -648 785 -656 802 -660C827 -667 829 -680 797 -698ZM450 -671C432 -677 423 -670 432 -649C450 -612 465 -589 481 -576C501 -562 516 -568 520 -604C522 -631 508 -649 450 -671ZM417 -484C557 -504 667 -517 775 -531C798 -534 805 -527 762 -461C750 -442 755 -435 776 -447C824 -477 862 -487 887 -491C915 -496 917 -513 899 -528C874 -549 860 -559 840 -571C813 -586 798 -584 763 -570C749 -564 715 -557 622 -542L629 -657C632 -715 633 -727 643 -744C659 -767 654 -778 592 -800C550 -815 539 -804 555 -778C572 -749 578 -710 578 -658V-536C535 -528 482 -520 417 -511C392 -548 378 -544 376 -525C372 -490 365 -469 349 -443C338 -428 337 -409 340 -397C349 -367 361 -365 376 -382C394 -403 408 -438 417 -484Z"/>
</svg>