<svg xmlns="http://www.w3.org/2000/svg" viewBox="0 -1000 1000 1000">
	<path fill="#000000" d="M332 -637C323 -682 299 -694 238 -703C197 -709 191 -704 210 -681C236 -649 269 -617 293 -603C319 -588 339 -603 332 -637ZM248 -435C246 -462 213 -489 160 -500C125 -508 120 -502 137 -475C162 -437 192 -404 203 -399C234 -383 250 -396 248 -435ZM950 -33C983 -42 984 -56 947 -59C782 -74 729 -89 616 -148L621 -312C658 -303 693 -304 772 -321C796 -326 800 -343 778 -356C752 -370 731 -374 621 -338C622 -363 626 -391 631 -433C633 -451 629 -458 596 -483C654 -491 676 -493 709 -496C728 -498 730 -512 722 -519C713 -527 713 -543 719 -553C741 -591 774 -630 786 -637C813 -651 815 -657 792 -677C780 -688 759 -699 733 -710C708 -721 693 -720 670 -707C640 -691 530 -663 467 -658C406 -680 395 -667 414 -642C434 -616 466 -542 471 -519C486 -456 495 -445 504 -447C512 -449 518 -456 519 -472C536 -475 552 -477 567 -479C578 -445 579 -389 573 -174C505 -214 480 -228 438 -251C465 -315 469 -325 475 -334C486 -347 486 -361 445 -384C413 -402 400 -391 408 -369C417 -345 407 -300 383 -241C362 -189 329 -149 287 -108C262 -84 267 -75 294 -89C360 -123 403 -172 429 -229C516 -169 660 -63 686 -40C747 16 765 18 950 -33ZM295 -310C320 -363 303 -371 273 -325C249 -291 221 -245 183 -180C158 -138 149 -134 132 -133C120 -132 116 -121 136 -65C166 17 182 11 195 -47C207 -98 264 -247 295 -310ZM688 -624C671 -543 668 -533 644 -524C625 -517 585 -508 516 -498C511 -538 501 -585 487 -633C605 -653 629 -656 656 -661C686 -666 693 -649 688 -624Z"/>
</svg>