<svg xmlns="http://www.w3.org/2000/svg" viewBox="0 -1000 1000 1000">
	<path fill="#000000" d="M569 -364C580 -343 585 -312 587 -249C532 -240 498 -236 456 -235C428 -234 425 -222 462 -212C493 -204 514 -203 587 -210V-87C485 -76 384 -69 345 -69C305 -69 302 -59 331 -41C358 -25 375 -21 427 -30C515 -46 579 -53 660 -57C739 -61 825 -58 858 -54C960 -40 968 -63 920 -100C892 -122 876 -124 810 -113C769 -107 706 -99 640 -92L641 -215C700 -222 740 -228 774 -234C816 -242 816 -263 785 -273C757 -282 733 -280 641 -261C643 -289 648 -313 653 -321C664 -340 663 -347 613 -368C697 -376 787 -388 810 -395C842 -403 843 -419 817 -431C795 -440 751 -440 718 -432C612 -407 527 -394 446 -389C409 -387 410 -374 448 -366C470 -361 507 -359 569 -364ZM534 -523C526 -566 515 -611 506 -648C545 -650 596 -657 666 -673C720 -684 730 -681 730 -651C730 -620 721 -577 713 -561C703 -548 640 -533 534 -523ZM477 -679C429 -696 412 -683 432 -656C452 -629 476 -573 496 -498C505 -465 534 -467 538 -491C643 -505 746 -515 768 -516C788 -517 794 -548 767 -557C774 -588 799 -622 824 -646C847 -665 846 -686 790 -714C750 -734 730 -736 705 -720C677 -704 545 -677 477 -679ZM321 -325C338 -364 325 -370 304 -335C259 -260 231 -217 190 -158C168 -127 154 -116 128 -112C114 -110 109 -97 145 -45C185 12 193 11 205 -43C212 -68 256 -181 321 -325ZM253 -430C250 -481 227 -496 165 -506C129 -512 124 -506 138 -481C161 -443 178 -421 203 -402C234 -379 256 -387 253 -430ZM327 -645C324 -676 305 -702 248 -719C210 -730 201 -723 218 -694C237 -660 267 -620 278 -611C307 -584 331 -596 327 -645Z"/>
</svg>