<svg xmlns="http://www.w3.org/2000/svg" viewBox="0 -1000 1000 1000">
	<path fill="#000000" d="M324 -684C318 -719 284 -744 226 -746C180 -747 178 -743 198 -721C234 -684 260 -664 284 -651C310 -637 330 -649 324 -684ZM713 -608C707 -625 699 -634 604 -674C625 -695 647 -718 666 -738C675 -748 692 -764 697 -768C714 -781 717 -789 671 -826C633 -857 615 -851 622 -816C629 -786 606 -739 564 -690C478 -723 467 -727 429 -735C399 -742 400 -724 423 -714C472 -693 507 -676 536 -661C494 -620 439 -581 379 -554C358 -545 360 -529 390 -538C463 -558 513 -585 573 -643C609 -622 636 -604 674 -579C705 -558 729 -567 713 -608ZM213 -499C206 -540 174 -560 117 -565C79 -568 78 -563 95 -544C125 -510 156 -481 173 -467C199 -446 220 -461 213 -499ZM881 -547C839 -560 829 -561 779 -549C699 -529 647 -519 550 -502C559 -512 566 -517 573 -526C589 -545 588 -554 551 -571C519 -586 509 -582 510 -553C510 -538 503 -521 482 -489C429 -480 334 -466 317 -468C293 -470 283 -459 310 -444C330 -432 352 -429 375 -435C413 -444 439 -450 463 -455C374 -319 330 -267 242 -193C214 -170 222 -155 266 -183C329 -224 372 -261 425 -326C434 -280 428 -225 416 -172C414 -161 422 -133 429 -122C443 -102 454 -105 460 -121C475 -172 475 -242 470 -315C501 -318 539 -324 572 -330C575 -228 573 -102 571 -66C569 -34 571 24 576 62C579 86 593 93 602 60C611 27 617 -7 619 -47C622 -100 623 -141 622 -341C648 -346 666 -348 692 -350C728 -352 741 -342 742 -313C743 -274 741 -248 735 -227C731 -213 714 -210 673 -214C661 -215 663 -201 676 -191C698 -173 716 -147 725 -126C731 -112 744 -112 756 -126C788 -163 801 -197 802 -229C804 -296 805 -309 816 -334C824 -352 819 -363 786 -379C750 -396 731 -398 717 -388C707 -381 669 -370 622 -361C622 -381 624 -398 629 -414C634 -431 623 -446 591 -452C552 -459 538 -451 557 -423C569 -406 571 -393 572 -352C527 -344 482 -338 449 -336L435 -339C462 -373 493 -414 530 -470C665 -498 726 -502 848 -498C929 -496 924 -532 881 -547ZM273 -376C295 -430 283 -441 254 -388C233 -353 194 -286 167 -241C141 -199 129 -188 113 -181C101 -175 98 -154 123 -112C161 -50 177 -56 181 -98C186 -151 209 -221 273 -376Z"/>
</svg>