<svg xmlns="http://www.w3.org/2000/svg" viewBox="0 -1000 1000 1000">
	<path fill="#000000" d="M322 -638C317 -683 281 -699 222 -705C179 -709 175 -701 194 -680C221 -649 252 -616 276 -602C302 -588 326 -604 322 -638ZM957 -407C986 -410 984 -425 952 -433C792 -474 737 -505 565 -686C576 -707 587 -727 593 -738C607 -758 600 -770 552 -797C518 -816 494 -810 507 -783C518 -760 518 -738 482 -650C430 -523 373 -445 280 -354C252 -327 264 -318 288 -334C382 -390 473 -487 550 -657C625 -564 690 -486 736 -429C763 -398 782 -390 957 -407ZM204 -422C198 -468 176 -486 119 -497C77 -504 75 -494 92 -470C119 -432 143 -401 167 -387C182 -377 208 -390 204 -422ZM745 -325C729 -337 714 -342 674 -329C643 -320 610 -311 578 -303C579 -321 580 -336 582 -343C587 -364 580 -372 543 -394C586 -401 633 -412 649 -418C679 -431 675 -444 655 -451C635 -459 611 -463 583 -454C548 -443 473 -420 436 -412C409 -406 416 -392 442 -387C457 -383 478 -383 504 -386C519 -369 525 -361 529 -292C474 -280 424 -270 395 -266C367 -262 358 -253 378 -240C389 -233 424 -228 460 -236C482 -241 506 -246 530 -251C531 -184 529 -141 522 -70C519 -42 514 -38 453 -45C431 -48 428 -39 442 -25C467 -3 484 15 506 42C521 61 537 64 551 45C571 19 587 -30 583 -96C579 -161 577 -216 577 -259C619 -268 660 -276 691 -282C763 -296 768 -309 745 -325ZM246 -330C265 -386 244 -390 223 -344C207 -306 177 -245 164 -215C146 -182 125 -153 115 -148C104 -143 98 -126 120 -76C150 -4 175 -3 177 -60C179 -117 224 -263 246 -330ZM381 -194C372 -217 365 -215 355 -196C338 -164 318 -134 303 -114C287 -94 285 -70 292 -44C297 -21 312 -20 323 -28C339 -41 359 -64 380 -114C394 -148 391 -166 381 -194ZM815 -84C807 -140 769 -172 665 -187C622 -193 623 -187 646 -163C680 -128 741 -74 767 -53C803 -21 819 -48 815 -84Z"/>
</svg>