<svg xmlns="http://www.w3.org/2000/svg" viewBox="0 -1000 1000 1000">
	<path fill="#000000" d="M298 -645C289 -690 266 -702 205 -711C165 -716 159 -712 178 -689C203 -657 235 -625 260 -612C285 -597 305 -612 298 -645ZM242 -457C240 -484 208 -511 155 -522C121 -529 116 -523 132 -497C157 -459 187 -426 198 -422C229 -406 244 -419 242 -457ZM941 -80C981 -85 978 -102 941 -109C820 -133 715 -192 608 -293V-294C693 -304 786 -308 816 -305C890 -298 909 -320 863 -349C836 -365 811 -368 761 -356C720 -347 668 -337 612 -327C614 -339 616 -349 618 -356C626 -382 626 -392 604 -408C644 -411 689 -413 728 -411C777 -409 779 -431 754 -447C740 -456 709 -458 670 -450C601 -437 529 -424 479 -416C478 -489 478 -536 478 -565C503 -570 529 -575 553 -580C554 -559 557 -541 560 -503C561 -490 572 -477 578 -477C584 -477 588 -480 591 -486C633 -493 675 -501 708 -508C724 -511 726 -518 701 -541C697 -545 699 -573 705 -605C732 -608 759 -610 783 -611C858 -615 863 -631 844 -650C833 -661 808 -667 764 -655C747 -650 731 -646 713 -642C722 -683 733 -723 739 -732C756 -761 760 -775 705 -799C665 -817 653 -807 669 -779C678 -763 678 -701 671 -631C644 -625 616 -619 589 -613C588 -667 590 -696 593 -704C599 -719 595 -736 558 -753C509 -774 499 -763 521 -728C542 -697 551 -660 553 -606C528 -601 502 -596 478 -592C478 -601 479 -607 479 -611C481 -650 474 -657 438 -675C394 -697 384 -674 411 -645C426 -627 430 -618 435 -585C400 -579 372 -575 357 -575C325 -574 325 -561 346 -549C365 -539 382 -540 412 -549C419 -551 428 -554 439 -556C444 -502 439 -438 429 -424C417 -409 413 -397 428 -381C441 -367 446 -366 477 -384C488 -390 517 -397 554 -402C563 -381 567 -359 569 -320C493 -309 419 -300 373 -296C335 -293 333 -285 367 -268C385 -259 400 -257 450 -269C471 -274 495 -279 522 -283C468 -196 396 -130 304 -61C276 -40 279 -32 309 -42C414 -76 505 -169 571 -281C571 -261 571 -238 570 -209C569 -170 557 -57 550 -38C543 -15 545 28 560 50C577 78 585 76 596 51C611 18 613 -31 606 -180C605 -205 605 -237 606 -265C677 -183 710 -145 740 -109C780 -63 789 -59 941 -80ZM313 -355C338 -407 321 -415 291 -370C277 -349 243 -293 199 -214C178 -177 166 -168 148 -167C136 -166 132 -156 153 -99C182 -17 198 -23 211 -81C223 -133 282 -291 313 -355ZM668 -600C666 -582 663 -562 660 -544C656 -528 650 -524 593 -509C592 -540 591 -565 590 -587C615 -592 642 -596 668 -600Z"/>
</svg>