<svg xmlns="http://www.w3.org/2000/svg" viewBox="0 -1000 1000 1000">
	<path fill="#000000" d="M277 -659C270 -692 239 -719 187 -727C145 -733 145 -721 160 -702C182 -672 211 -634 233 -619C260 -601 284 -625 277 -659ZM851 -699C839 -714 803 -738 773 -752C742 -766 720 -767 698 -755C659 -733 478 -694 415 -690C379 -733 371 -729 369 -701C368 -682 359 -652 341 -619C330 -599 325 -581 337 -559C349 -538 359 -537 370 -552C392 -583 407 -634 411 -671C449 -665 482 -670 543 -683C632 -701 653 -705 699 -710C732 -714 736 -710 729 -689C723 -671 718 -660 706 -635C700 -623 711 -618 721 -624C765 -651 802 -663 833 -666C855 -668 865 -682 851 -699ZM751 -511C782 -530 783 -542 751 -564C684 -611 663 -611 627 -596C602 -584 468 -548 416 -542C375 -547 373 -536 390 -511C401 -495 435 -403 445 -372C451 -354 459 -336 470 -336C478 -336 482 -338 483 -344C576 -367 614 -372 626 -359C643 -340 650 -340 664 -353C678 -367 695 -398 707 -430C721 -468 742 -505 751 -511ZM200 -410C199 -443 161 -472 117 -478C76 -484 77 -472 90 -453C110 -423 136 -389 153 -378C179 -360 201 -377 200 -410ZM915 -268C913 -285 884 -306 826 -309C809 -310 740 -298 602 -268C608 -306 595 -319 546 -331C514 -340 506 -328 522 -308C533 -294 553 -275 568 -261C485 -245 317 -220 293 -220C256 -220 252 -206 277 -191C300 -177 320 -175 351 -186C392 -200 548 -227 599 -234C684 -244 774 -250 836 -244C900 -238 917 -250 915 -268ZM270 -339C291 -393 280 -398 251 -352C230 -316 202 -265 163 -197C153 -180 134 -160 116 -156C104 -153 105 -127 131 -74C168 0 182 -4 189 -63C196 -126 222 -214 270 -339ZM808 2C813 -61 771 -116 648 -164C627 -172 623 -164 633 -151C666 -109 719 -34 752 14C778 49 804 51 808 2ZM511 -114C528 -126 522 -140 488 -158C451 -177 440 -172 439 -146C438 -120 411 -56 310 39C292 56 298 66 328 51C375 28 425 -15 462 -60C481 -83 508 -112 511 -114ZM672 -524C668 -484 655 -422 650 -410C646 -399 641 -392 628 -392C591 -392 553 -385 481 -366C478 -389 473 -414 467 -439C498 -435 536 -441 597 -458C617 -464 621 -473 612 -482C603 -491 576 -491 560 -486C519 -475 494 -466 464 -455C459 -478 453 -500 448 -520C471 -523 499 -530 531 -540C560 -548 589 -555 618 -559C655 -564 675 -555 672 -524Z"/>
</svg>