<svg xmlns="http://www.w3.org/2000/svg" viewBox="0 -1000 1000 1000">
	<path fill="#000000" d="M300 -329C320 -371 303 -374 284 -341C233 -257 204 -212 169 -162C144 -125 135 -118 108 -116C93 -115 86 -98 120 -50C155 1 178 -4 185 -47C189 -74 216 -144 300 -329ZM239 -437C238 -469 205 -500 150 -506C113 -510 106 -503 124 -479C152 -444 181 -414 191 -405C217 -382 241 -398 239 -437ZM320 -654C317 -685 297 -709 238 -721C199 -729 192 -721 211 -694C233 -661 261 -628 273 -616C301 -588 324 -607 320 -654ZM456 -196C452 -219 447 -249 443 -279C489 -284 513 -287 546 -292C567 -295 569 -294 567 -278C562 -243 558 -229 553 -218C541 -213 526 -209 456 -196ZM429 -302C379 -317 362 -300 385 -279C393 -272 407 -231 412 -193C417 -162 427 -140 436 -135C443 -130 455 -141 459 -168C502 -176 558 -183 596 -187C622 -189 625 -208 601 -232C610 -252 624 -272 638 -283C654 -296 656 -307 621 -327C590 -344 577 -342 560 -333C537 -320 477 -305 429 -302ZM499 -493C497 -515 494 -543 491 -565C514 -567 540 -572 566 -578C584 -582 592 -578 591 -559C590 -541 587 -528 583 -519C572 -513 537 -503 499 -493ZM482 -587C428 -606 415 -589 429 -570C442 -552 454 -527 459 -504C466 -474 473 -457 477 -454C485 -449 497 -454 500 -471C550 -476 588 -482 621 -488C645 -493 647 -507 626 -522C632 -547 640 -561 659 -576C672 -586 670 -595 639 -613C618 -625 604 -624 580 -613C560 -604 513 -591 482 -587ZM699 -685C713 -669 718 -649 719 -607C720 -537 718 -518 714 -506C701 -463 704 -455 722 -437C567 -415 390 -395 327 -392C304 -390 302 -381 322 -368C349 -350 368 -348 406 -358C459 -370 597 -392 683 -397C698 -379 705 -339 709 -256C712 -199 712 -128 709 -103C700 -32 696 -30 619 -51C599 -57 593 -42 609 -29C642 -2 661 25 676 53C685 71 703 70 721 50C756 13 771 -27 767 -108C761 -247 761 -308 766 -324C777 -360 772 -373 725 -399C786 -401 857 -401 883 -400C953 -396 960 -414 927 -441C902 -462 888 -464 736 -439C745 -446 752 -458 762 -485C765 -495 771 -557 770 -587C769 -611 771 -628 776 -639C787 -661 783 -671 742 -689C774 -692 799 -694 807 -694C865 -696 869 -711 846 -729C821 -750 805 -752 724 -730C680 -719 465 -691 430 -693C403 -695 402 -683 429 -667C451 -653 471 -653 547 -668C563 -670 634 -678 699 -685Z"/>
</svg>