<svg xmlns="http://www.w3.org/2000/svg" viewBox="0 -1000 1000 1000">
	<path fill="#000000" d="M495 -172C514 -174 535 -177 574 -184C604 -191 608 -204 595 -221C587 -231 592 -261 616 -289C633 -307 633 -313 599 -337C578 -351 569 -352 539 -340C512 -329 495 -325 463 -321C420 -334 416 -320 433 -294C444 -276 457 -230 461 -181C464 -142 488 -139 495 -172ZM485 -296C547 -310 558 -306 558 -279C558 -240 554 -219 541 -214C527 -208 511 -204 495 -201C493 -231 490 -264 485 -296ZM711 -198C752 -203 781 -209 806 -217C839 -229 840 -237 828 -251C812 -269 823 -307 843 -320C865 -336 865 -350 828 -370C795 -387 780 -385 760 -372C744 -363 717 -354 690 -351C640 -368 630 -354 643 -334C652 -320 666 -271 676 -210C683 -168 702 -166 711 -198ZM699 -328C765 -338 775 -334 778 -315C783 -282 781 -263 770 -249C766 -244 746 -237 711 -229C706 -267 702 -299 699 -328ZM566 -433C596 -432 621 -435 697 -452C719 -457 721 -475 704 -491C694 -501 697 -519 734 -559C749 -576 749 -580 719 -600C690 -619 678 -620 654 -612C604 -593 585 -588 545 -583C486 -606 477 -594 497 -565C508 -548 514 -528 526 -451C534 -395 560 -393 566 -433ZM556 -554C590 -561 610 -566 642 -570C653 -572 661 -558 658 -523C654 -489 652 -481 629 -474C604 -467 588 -463 565 -459C562 -492 558 -528 556 -554ZM404 -682C336 -708 325 -694 348 -655C362 -631 368 -592 367 -409C365 -118 360 -90 339 -64C326 -47 324 -34 347 -9C357 3 373 2 388 -11C432 -44 697 -76 840 -62C922 -54 941 -79 919 -99C881 -132 854 -135 763 -120C668 -103 530 -86 403 -74C412 -446 416 -568 418 -654C491 -657 536 -661 614 -671C678 -679 745 -687 761 -689C824 -696 831 -713 815 -725C785 -750 757 -751 643 -723C538 -696 461 -684 404 -682ZM301 -328C320 -368 305 -374 285 -340C252 -285 215 -228 169 -159C145 -121 132 -114 107 -113C92 -112 85 -102 123 -45C158 7 178 1 185 -43C189 -70 210 -126 301 -328ZM212 -414C213 -443 182 -480 128 -490C91 -498 85 -488 102 -462C128 -424 155 -389 162 -385C194 -366 210 -374 212 -414ZM289 -623C289 -654 271 -680 213 -697C170 -711 165 -704 183 -673C205 -634 231 -595 239 -588C266 -564 289 -575 289 -623Z"/>
</svg>