<svg xmlns="http://www.w3.org/2000/svg" viewBox="0 -1000 1000 1000">
	<path fill="#000000" d="M271 -336C281 -361 264 -371 253 -348C147 -134 134 -120 113 -113C96 -109 89 -92 125 -43C160 4 179 0 181 -45C184 -80 194 -124 271 -336ZM227 -457C226 -489 201 -513 128 -536C106 -543 99 -528 113 -510C138 -473 156 -450 183 -420C204 -397 228 -408 227 -457ZM314 -661C308 -699 286 -715 214 -726C184 -731 179 -725 198 -701C223 -670 251 -644 271 -628C296 -610 318 -627 314 -661ZM675 -512C673 -541 656 -550 602 -562C585 -567 581 -560 594 -542C614 -511 627 -497 642 -487C657 -478 677 -487 675 -512ZM578 -629C539 -623 502 -616 476 -611C456 -607 454 -609 456 -615C463 -631 466 -640 470 -655C476 -678 471 -690 434 -709C412 -719 401 -713 408 -689C422 -645 415 -606 396 -598C372 -587 371 -581 385 -554C397 -531 404 -530 429 -547C459 -569 546 -593 762 -633C750 -585 754 -562 765 -562C779 -562 798 -581 807 -610C823 -660 832 -679 841 -691C853 -708 847 -723 805 -749C768 -772 759 -762 770 -732C776 -717 775 -697 767 -656C730 -653 677 -646 625 -638C631 -716 633 -733 640 -746C654 -773 648 -789 587 -812C560 -821 547 -811 566 -784C580 -762 582 -726 578 -629ZM453 -51C480 -38 496 -37 536 -44C644 -64 769 -72 811 -66C908 -51 917 -72 887 -100C864 -122 828 -128 776 -118C741 -110 706 -104 673 -99C674 -135 674 -167 674 -194C717 -199 742 -203 762 -209C804 -222 804 -239 768 -248C757 -251 743 -250 675 -236C675 -262 676 -291 677 -309C703 -313 722 -317 750 -327C803 -344 799 -356 767 -364C752 -367 730 -365 680 -351C681 -359 682 -368 683 -372C690 -395 688 -402 659 -419C720 -430 762 -439 783 -445C835 -459 834 -471 811 -485C801 -491 766 -489 733 -480C646 -455 561 -438 510 -433C481 -430 480 -416 511 -408C533 -402 571 -404 618 -412C625 -397 628 -380 629 -338C582 -327 540 -319 520 -317C494 -314 494 -307 521 -296C534 -290 571 -291 629 -300C629 -276 629 -248 629 -226C582 -215 530 -207 518 -207C495 -207 493 -197 512 -190C537 -180 570 -180 628 -188C627 -155 626 -125 625 -92C556 -83 497 -77 454 -75C457 -241 459 -311 461 -327C467 -366 464 -378 435 -408C460 -450 491 -488 502 -495C520 -508 514 -516 473 -547C453 -562 433 -551 443 -525C453 -502 377 -384 303 -313C274 -286 281 -273 312 -294C361 -326 390 -351 412 -379C424 -302 420 -152 398 -62C382 9 382 18 401 57C417 85 428 85 436 62C445 34 452 2 453 -51Z"/>
</svg>