<svg xmlns="http://www.w3.org/2000/svg" viewBox="0 -1000 1000 1000">
	<path fill="#000000" d="M374 -158C366 -180 354 -178 350 -155C343 -121 332 -87 320 -67C304 -42 297 -11 304 0C317 15 335 19 351 4C384 -28 392 -110 374 -158ZM924 -51C935 -87 903 -137 782 -178C764 -184 757 -174 771 -157C817 -98 836 -76 869 -39C898 -7 914 -15 924 -51ZM555 -72C560 -95 530 -134 487 -153C461 -164 455 -156 467 -131C482 -100 498 -77 514 -59C531 -40 550 -47 555 -72ZM710 -80C711 -112 678 -150 630 -165C602 -173 593 -165 610 -138C636 -99 658 -72 673 -62C693 -49 709 -56 710 -80ZM304 -340C340 -398 314 -409 279 -354C230 -278 195 -226 185 -212C162 -181 141 -167 119 -165C102 -162 101 -136 122 -91C156 -16 172 -18 183 -73C187 -96 282 -304 304 -340ZM232 -472C233 -506 173 -536 117 -536C104 -536 102 -533 111 -518C127 -489 173 -443 189 -434C214 -420 231 -430 232 -472ZM550 -580C549 -599 526 -620 501 -628C484 -633 475 -627 484 -610C491 -595 505 -578 515 -568C531 -552 551 -555 550 -580ZM619 -502C624 -596 626 -627 631 -638C640 -660 633 -676 595 -694C673 -705 719 -710 745 -711C794 -712 802 -707 794 -657C790 -641 779 -602 765 -568C740 -509 736 -510 716 -516C707 -519 673 -513 619 -502ZM487 -481C465 -549 441 -623 425 -674C470 -678 518 -683 567 -690C577 -661 580 -609 577 -493C551 -488 522 -484 487 -481ZM401 -701C351 -719 342 -703 366 -669C383 -645 418 -571 440 -491C453 -449 473 -433 487 -434C493 -435 495 -439 493 -454C520 -458 549 -463 577 -466L574 -384C535 -376 477 -367 462 -366C422 -364 420 -350 456 -339C472 -334 499 -336 573 -347L571 -271C433 -250 417 -248 404 -249C347 -252 345 -238 377 -218C397 -207 413 -208 454 -217C479 -224 565 -236 612 -240C679 -247 717 -251 805 -246C860 -243 867 -262 840 -284C818 -303 791 -305 752 -298C738 -295 693 -287 609 -276L612 -353C668 -362 696 -367 718 -372C763 -382 760 -408 714 -411C700 -412 675 -409 614 -395L617 -472C702 -487 718 -486 722 -481C741 -459 762 -463 783 -498C797 -520 813 -548 833 -586C853 -625 871 -653 877 -657C918 -683 921 -707 848 -746C813 -764 789 -764 741 -750C726 -745 661 -733 582 -722C524 -713 459 -705 401 -701ZM739 -621C753 -629 749 -647 706 -668C691 -675 683 -670 684 -650C685 -636 677 -615 649 -575C640 -561 646 -553 661 -562C676 -573 690 -583 704 -595C716 -607 731 -616 739 -621ZM315 -658C306 -708 268 -733 203 -737C186 -738 181 -728 189 -717C212 -682 260 -628 281 -621C301 -613 319 -636 315 -658Z"/>
</svg>