<svg xmlns="http://www.w3.org/2000/svg" viewBox="0 -1000 1000 1000">
	<path fill="#000000" d="M253 -353C271 -393 253 -401 232 -366C166 -253 147 -223 122 -187C96 -149 89 -146 66 -141C47 -137 43 -122 77 -74C117 -18 128 -22 137 -72C142 -99 171 -177 253 -353ZM170 -461C171 -489 151 -524 97 -535C61 -542 54 -535 70 -510C95 -473 124 -435 131 -431C159 -413 168 -421 170 -461ZM280 -670C280 -701 262 -726 204 -744C165 -755 158 -748 175 -719C194 -685 220 -645 230 -636C260 -609 280 -620 280 -670ZM446 -663C467 -680 464 -693 430 -722C399 -748 385 -743 390 -711C393 -691 375 -657 347 -613C321 -573 282 -525 255 -500C224 -471 230 -463 262 -480C313 -508 355 -547 400 -610C417 -634 434 -653 446 -663ZM688 -130C706 -156 721 -184 734 -217C740 -234 752 -257 765 -267C781 -280 783 -289 737 -313C708 -329 700 -329 678 -317C652 -304 617 -297 591 -297C593 -300 596 -302 598 -303C610 -311 607 -325 573 -345C547 -361 531 -356 537 -336C540 -327 532 -301 523 -280C494 -217 456 -163 396 -110C375 -93 378 -86 405 -97C462 -122 502 -162 535 -210C554 -198 573 -180 628 -126C582 -70 512 -28 427 0C395 10 398 26 432 20C525 7 603 -28 661 -93C680 -73 705 -49 733 -20C782 31 797 33 952 11C987 6 985 -6 950 -15C827 -41 770 -61 688 -130ZM549 -234C562 -256 569 -268 575 -276C601 -266 630 -267 667 -276C686 -281 692 -280 688 -259C683 -224 672 -193 652 -161C617 -191 590 -211 549 -234ZM578 -376C608 -380 631 -382 670 -386C692 -388 701 -387 708 -377C718 -362 740 -363 754 -416C785 -534 791 -553 801 -561C819 -577 819 -584 777 -607C744 -624 727 -624 710 -617C680 -603 605 -583 549 -577C508 -601 498 -590 509 -558C521 -527 531 -468 538 -387C539 -373 551 -363 564 -363C570 -363 576 -368 578 -376ZM562 -551C613 -561 662 -571 702 -578C722 -582 734 -574 731 -548C726 -507 718 -466 711 -436C707 -416 700 -412 690 -416C681 -419 658 -416 578 -403C576 -425 574 -447 571 -469C621 -469 651 -474 683 -484C708 -492 707 -509 682 -513C660 -517 646 -514 569 -487C567 -509 564 -531 562 -551ZM596 -687C614 -712 628 -727 636 -731C653 -741 647 -760 619 -779C579 -806 568 -802 571 -776C573 -760 564 -738 546 -707C523 -664 491 -625 445 -587C433 -575 439 -568 457 -577C503 -603 544 -633 577 -667C635 -655 676 -658 801 -686C837 -694 838 -714 809 -725C783 -734 762 -730 712 -713C656 -693 627 -685 596 -687ZM362 -339C376 -359 390 -379 401 -399C419 -429 430 -445 442 -455C458 -469 456 -481 427 -510C392 -545 381 -537 384 -506C385 -491 378 -465 357 -422C313 -334 261 -265 213 -216C190 -194 196 -184 220 -200C264 -228 304 -267 338 -308C349 -243 339 -114 319 -54C306 -19 305 -7 326 29C338 50 358 51 366 27C373 3 376 -23 377 -77C381 -201 382 -236 386 -263C390 -286 385 -300 362 -339Z"/>
</svg>