<svg xmlns="http://www.w3.org/2000/svg" viewBox="0 -1000 1000 1000">
	<path fill="#000000" d="M272 -334C289 -376 272 -381 253 -345C207 -260 184 -218 149 -161C122 -116 118 -114 95 -112C81 -111 73 -97 109 -46C146 3 164 -2 169 -47C171 -69 190 -128 272 -334ZM634 -302C668 -300 683 -304 710 -314C725 -320 724 -326 715 -332C701 -343 691 -345 635 -327C635 -355 636 -385 636 -414C673 -422 699 -428 730 -431C750 -433 754 -430 751 -377C749 -318 744 -267 735 -218C731 -199 726 -195 717 -204C707 -215 677 -215 632 -202C633 -232 634 -266 634 -302ZM493 -397C491 -327 489 -246 489 -188C460 -184 425 -177 390 -170C390 -203 390 -235 390 -266C423 -269 438 -272 459 -278C481 -284 480 -308 450 -311C438 -312 429 -309 390 -294C390 -324 390 -352 389 -381C435 -389 460 -393 493 -397ZM217 -436C217 -478 184 -511 112 -511C82 -511 81 -506 97 -487C125 -455 148 -437 175 -418C203 -399 217 -404 217 -436ZM309 -635C303 -680 268 -709 199 -714C168 -717 166 -714 188 -686C211 -657 242 -627 271 -605C294 -586 316 -596 309 -635ZM405 -683C352 -697 341 -682 362 -662C375 -650 395 -594 410 -518C416 -488 441 -485 447 -507C470 -513 481 -515 495 -515C495 -492 494 -461 493 -424C444 -419 419 -416 377 -409C320 -432 314 -420 333 -388C345 -368 353 -263 348 -190C344 -152 348 -132 357 -112C371 -84 381 -84 389 -136C437 -146 458 -149 489 -154C490 -49 514 -9 587 16C663 43 811 38 890 -2C944 -29 948 -45 931 -77C915 -104 903 -138 898 -199C896 -225 887 -226 884 -202C865 -74 854 -56 794 -36C738 -20 641 -17 591 -31C541 -46 525 -87 525 -223C525 -302 527 -398 530 -484C532 -536 538 -576 546 -591C557 -614 553 -622 511 -653C492 -667 486 -660 491 -648C497 -633 498 -611 496 -544C478 -542 463 -539 444 -535C438 -569 433 -609 429 -656C576 -680 646 -690 686 -694C725 -698 730 -691 721 -644C718 -625 713 -608 706 -581C691 -573 673 -568 641 -559C643 -584 646 -608 649 -619C656 -638 649 -650 614 -667C587 -679 583 -676 591 -657C599 -640 603 -617 602 -518C600 -315 595 -197 589 -146C583 -107 583 -97 596 -75C608 -54 614 -55 622 -74C628 -92 632 -123 632 -170C702 -187 706 -187 724 -162C744 -133 756 -131 769 -161C783 -195 793 -239 802 -343C804 -371 813 -401 822 -409C840 -425 837 -437 797 -458C756 -480 748 -480 727 -471C686 -453 665 -446 637 -444C638 -474 639 -503 640 -532C678 -539 703 -544 736 -548C769 -552 771 -565 745 -584C781 -644 791 -655 809 -665C831 -679 830 -693 791 -717C740 -749 726 -751 695 -738C661 -722 521 -694 405 -683Z"/>
</svg>