<svg xmlns="http://www.w3.org/2000/svg" viewBox="0 -1000 1000 1000">
	<path fill="#000000" d="M281 -326C299 -366 281 -373 260 -338C210 -250 187 -211 150 -150C127 -112 120 -106 92 -105C78 -104 75 -87 109 -34C143 16 159 15 169 -32C178 -68 251 -261 281 -326ZM219 -423C217 -452 187 -487 133 -492C92 -497 89 -490 109 -466C136 -431 162 -404 176 -392C200 -369 220 -384 219 -423ZM313 -634C307 -664 286 -686 225 -693C185 -698 181 -690 200 -664C225 -634 258 -599 269 -591C303 -571 321 -587 313 -634ZM519 -372C538 -355 551 -345 571 -334C580 -329 595 -338 597 -346C606 -378 576 -393 522 -389C509 -388 508 -380 519 -372ZM472 -164C473 -181 474 -199 475 -215C504 -213 526 -215 574 -227C593 -231 596 -238 592 -243C585 -252 578 -256 539 -246C516 -241 497 -238 477 -236C478 -249 479 -262 480 -272C501 -274 520 -277 544 -283C566 -289 584 -291 608 -293C626 -295 629 -292 628 -267C627 -247 621 -225 613 -206C608 -193 604 -190 584 -186C532 -173 505 -168 472 -164ZM598 -670C582 -654 588 -648 607 -658C627 -669 650 -684 675 -703C695 -717 730 -739 747 -746C775 -757 772 -772 725 -790C681 -808 665 -802 669 -776C672 -758 653 -728 598 -670ZM432 -724C443 -707 474 -673 493 -656C509 -642 528 -645 529 -668C530 -707 502 -732 444 -739C426 -741 424 -738 432 -724ZM537 -458C545 -475 554 -492 561 -510C595 -517 638 -524 690 -535C709 -539 711 -544 701 -552C685 -565 644 -564 575 -547C585 -575 589 -587 579 -600C634 -609 678 -616 705 -619C764 -627 766 -638 748 -651C733 -663 715 -668 626 -648C488 -617 452 -611 403 -607C377 -605 374 -600 397 -590C424 -579 458 -578 525 -590C529 -579 527 -562 520 -536C480 -528 452 -524 422 -521C402 -519 399 -514 412 -506C430 -496 444 -492 507 -502C500 -484 492 -467 484 -449C412 -439 371 -434 342 -433C305 -431 303 -422 330 -411C365 -397 398 -396 462 -411C410 -326 336 -246 252 -195C236 -186 245 -172 264 -180C322 -205 376 -244 426 -296C426 -292 427 -289 429 -284C434 -274 437 -217 434 -144C431 -77 418 -33 398 -18C385 -6 382 9 396 34C415 65 425 64 443 41C461 19 480 3 614 -75C656 -54 701 -25 748 7C806 46 818 36 809 2C800 -31 761 -67 659 -98C693 -122 720 -136 744 -146C776 -160 773 -169 730 -197C702 -214 693 -208 694 -184C695 -172 673 -140 638 -104C612 -111 583 -118 550 -124C522 -129 520 -116 544 -107C562 -101 581 -92 603 -81C555 -72 506 -58 464 -42C466 -66 468 -101 470 -139C492 -139 511 -141 534 -147C555 -153 576 -157 599 -160C609 -161 615 -161 617 -159C624 -152 630 -152 637 -163C645 -176 651 -190 660 -215C671 -251 684 -272 695 -279C709 -290 707 -301 669 -317C631 -334 623 -333 604 -326C583 -317 511 -300 470 -297C456 -305 444 -309 437 -309C467 -342 494 -380 518 -421C543 -425 570 -430 594 -433C660 -367 719 -310 752 -282C794 -246 808 -242 952 -261C972 -263 970 -275 944 -281C823 -309 755 -341 632 -439C653 -441 671 -443 679 -443C771 -443 784 -462 765 -475C738 -492 722 -495 611 -472C590 -468 565 -463 537 -458Z"/>
</svg>