<svg xmlns="http://www.w3.org/2000/svg" viewBox="0 -1000 1000 1000">
	<path fill="#000000" d="M950 -67C938 -99 932 -141 933 -184C932 -205 919 -205 914 -178C893 -69 890 -49 825 -42C749 -35 727 -47 721 -113C717 -148 730 -225 736 -234C749 -251 746 -266 706 -289C695 -297 681 -289 685 -280C690 -271 691 -233 687 -206C681 -125 680 -94 682 -76C687 -34 715 -3 756 9C820 31 900 16 943 -22C957 -32 959 -42 950 -67ZM650 -225C664 -242 656 -253 615 -277C602 -284 593 -279 596 -261C599 -248 579 -180 561 -152C538 -113 485 -55 443 -28C432 -21 435 -14 446 -18C521 -41 587 -97 630 -195C633 -202 643 -216 650 -225ZM307 -240C302 -250 298 -251 295 -243C280 -202 274 -191 259 -171C240 -146 239 -137 245 -112C251 -84 258 -83 274 -97C306 -126 325 -199 307 -240ZM241 -319C253 -347 238 -356 226 -335C125 -153 114 -139 94 -137C66 -134 62 -124 73 -94C108 9 129 12 137 -30C144 -63 154 -97 241 -319ZM531 -200C532 -223 506 -247 454 -253C442 -255 441 -250 448 -240C470 -211 484 -195 495 -181C512 -161 530 -168 531 -200ZM186 -425C183 -465 156 -486 96 -501C77 -505 69 -497 80 -481C102 -445 124 -416 147 -395C171 -371 190 -379 186 -425ZM601 -638C564 -660 546 -647 555 -626C564 -605 567 -579 571 -483C571 -447 567 -348 565 -324C563 -292 567 -283 578 -274C590 -266 595 -269 600 -294C677 -305 709 -309 743 -310C743 -301 745 -296 748 -290C762 -267 767 -266 778 -279C790 -293 797 -311 800 -358C803 -411 806 -475 808 -531C810 -577 815 -598 822 -608C841 -636 841 -642 804 -661C767 -681 753 -681 732 -673C698 -659 661 -649 601 -638ZM379 -478C387 -499 377 -527 335 -548C328 -552 325 -549 327 -535C331 -509 337 -488 344 -472C358 -450 368 -449 379 -478ZM416 -444C374 -432 323 -420 255 -410C240 -408 240 -394 260 -389C288 -383 315 -386 360 -397C372 -383 376 -368 378 -328C349 -319 305 -311 283 -309C263 -308 260 -303 272 -295C291 -282 325 -279 378 -292C378 -233 377 -146 373 -107C372 -94 366 -88 356 -89C342 -90 332 -92 315 -97C303 -99 300 -94 310 -85C328 -61 359 -16 363 -7C370 8 374 9 386 -5C415 -41 425 -74 421 -177C419 -236 419 -276 420 -301C450 -308 482 -316 497 -320C527 -329 528 -341 508 -351C493 -360 462 -355 421 -341C421 -347 421 -353 422 -360C425 -382 422 -389 401 -405C448 -415 490 -424 504 -428C550 -438 551 -451 536 -462C524 -469 506 -471 444 -452C464 -482 491 -513 504 -523C515 -532 514 -548 476 -576C460 -587 444 -574 451 -561C457 -549 447 -503 416 -444ZM609 -525C609 -549 608 -576 608 -608C640 -617 667 -622 726 -630C742 -633 751 -626 755 -599C759 -571 753 -386 749 -355C748 -349 747 -344 746 -340C716 -341 678 -336 603 -319C605 -349 606 -373 607 -399C640 -397 676 -401 718 -415C728 -419 726 -435 713 -440C691 -449 683 -449 608 -422C609 -444 609 -469 609 -499C645 -498 683 -505 716 -518C731 -526 730 -542 718 -546C694 -553 681 -553 609 -525ZM527 -637C510 -645 472 -643 417 -626C366 -611 329 -603 300 -601C286 -600 281 -585 294 -581C318 -574 350 -572 382 -578C435 -588 478 -598 497 -602C544 -613 543 -627 527 -637ZM263 -620C257 -653 234 -671 164 -691C144 -697 137 -686 148 -671C175 -631 191 -613 220 -584C244 -560 272 -570 263 -620ZM472 -713C466 -744 440 -760 375 -764C369 -764 368 -759 373 -750C389 -722 408 -703 436 -681C460 -662 481 -675 472 -713Z"/>
</svg>