<svg xmlns="http://www.w3.org/2000/svg" viewBox="0 -1000 1000 1000">
	<path fill="#000000" d="M160 -431C156 -480 151 -522 142 -569C162 -573 196 -579 219 -584C265 -594 271 -593 267 -549C264 -521 259 -499 254 -486C242 -457 231 -448 160 -431ZM121 -599C68 -623 56 -610 83 -567C101 -538 116 -482 123 -383C125 -359 135 -343 147 -343C155 -343 163 -367 162 -400C219 -410 270 -421 297 -430C329 -440 328 -457 295 -478C308 -521 323 -550 340 -570C359 -590 359 -602 329 -618C278 -647 267 -644 248 -630C222 -614 183 -602 121 -599ZM725 -366C739 -339 742 -283 739 -155C698 -146 661 -140 630 -136L632 -199C651 -196 692 -200 711 -208C724 -213 728 -233 711 -241C702 -245 691 -241 683 -236C670 -228 645 -219 633 -221L634 -277C662 -276 683 -278 705 -284C726 -291 726 -305 717 -309C706 -314 690 -317 674 -310C663 -305 646 -300 634 -298C633 -329 629 -342 621 -350C644 -352 677 -358 725 -366ZM453 -352C461 -320 464 -237 461 -166C424 -153 392 -142 365 -134L366 -180C391 -179 422 -188 439 -198C452 -205 448 -219 434 -223C428 -224 415 -221 406 -217C388 -210 377 -207 366 -205L367 -258C409 -260 427 -265 437 -271C448 -278 448 -292 438 -296C429 -300 421 -301 404 -293C394 -287 383 -283 367 -280C367 -308 365 -316 350 -333C376 -336 409 -342 453 -352ZM319 -331C328 -310 330 -272 325 -122C268 -105 242 -102 219 -103C198 -104 195 -96 218 -78C254 -51 263 -51 285 -61C313 -74 379 -103 460 -134C458 -99 454 -71 448 -59C441 -42 440 -3 454 24C463 43 482 45 487 29C495 -1 502 -76 497 -123C497 -125 497 -135 497 -149C561 -175 561 -186 544 -188C532 -190 519 -186 498 -178C499 -227 502 -290 505 -308C509 -334 507 -345 476 -358C500 -363 531 -369 543 -373C564 -380 565 -393 551 -401C542 -406 521 -407 489 -399C419 -379 310 -356 284 -354C257 -352 258 -343 281 -336C291 -333 303 -331 319 -331ZM650 -720C659 -704 661 -678 658 -611C656 -572 654 -540 654 -512C612 -505 567 -498 524 -490L525 -546C551 -544 584 -547 614 -556C644 -565 647 -580 628 -587C618 -590 597 -590 581 -584C558 -575 540 -570 526 -569L527 -620C557 -618 600 -623 625 -630C640 -635 644 -645 628 -653C611 -661 578 -657 562 -649C555 -646 540 -643 527 -641C527 -674 525 -688 514 -703C567 -709 602 -713 650 -720ZM473 -698C486 -669 489 -585 479 -484C424 -476 378 -471 363 -471C337 -471 335 -463 360 -447C386 -431 399 -430 424 -439C447 -448 557 -468 654 -480C656 -438 658 -409 661 -387C619 -379 583 -373 570 -372C544 -370 542 -360 582 -349C595 -325 596 -265 591 -131C571 -128 557 -127 546 -127C512 -127 510 -119 533 -105C559 -90 568 -90 593 -98C613 -105 674 -114 738 -122C736 -57 734 -25 735 33C736 64 749 68 756 50C774 6 782 -36 782 -126C821 -130 858 -132 885 -132C950 -132 953 -143 928 -164C904 -184 889 -187 850 -177C827 -172 804 -167 782 -163C783 -260 786 -315 790 -328C795 -343 791 -356 762 -373C780 -375 806 -378 834 -379C854 -380 856 -399 836 -410C816 -421 802 -420 770 -412C746 -406 716 -400 686 -394C694 -424 699 -457 701 -486C750 -491 794 -495 815 -491C872 -485 883 -508 868 -520C842 -541 810 -544 780 -537C765 -533 733 -526 701 -520C702 -570 707 -631 714 -680C716 -696 711 -708 695 -726C730 -731 761 -734 785 -738C808 -741 812 -758 788 -770C757 -784 740 -782 670 -765C607 -750 484 -731 417 -726C394 -725 391 -716 408 -709C428 -699 439 -696 473 -698Z"/>
</svg>