<svg xmlns="http://www.w3.org/2000/svg" viewBox="0 -1000 1000 1000">
	<path fill="#000000" d="M298 -12C295 -47 290 -78 284 -102C329 -112 371 -119 389 -120C405 -121 410 -115 409 -107C407 -83 404 -51 400 -37C398 -31 377 -27 298 -12ZM276 -123C272 -127 265 -130 259 -131C227 -137 224 -130 232 -112C244 -88 257 -30 262 20C265 54 298 59 299 13C345 7 407 0 440 -3C461 -5 462 -11 444 -28C436 -36 437 -62 470 -104C484 -120 482 -131 457 -144C426 -162 418 -162 399 -153C382 -144 319 -130 276 -123ZM571 -14C567 -36 564 -81 563 -116C599 -123 629 -126 683 -129C699 -130 704 -124 703 -110C700 -78 695 -47 691 -34C688 -27 674 -25 571 -14ZM551 -138C510 -158 499 -149 506 -132C516 -108 522 -86 533 -8C541 52 566 52 574 14C614 10 695 5 709 5C754 4 756 -8 746 -16C732 -27 730 -33 736 -46C755 -86 761 -95 772 -102C786 -110 782 -130 749 -148C715 -168 701 -169 682 -161C665 -153 612 -141 551 -138ZM842 -168C808 -205 744 -233 550 -259C523 -263 515 -253 544 -244C703 -194 715 -187 805 -141C848 -120 864 -144 842 -168ZM349 -430C349 -443 349 -456 348 -468C431 -477 556 -487 601 -490C634 -492 640 -484 640 -454C640 -432 629 -349 623 -329C614 -299 611 -300 598 -307C587 -313 559 -315 519 -309C503 -306 397 -297 350 -295C350 -307 350 -326 350 -347C408 -342 509 -347 574 -360C599 -365 603 -373 589 -380C580 -383 557 -385 516 -379C473 -371 399 -364 350 -363C350 -378 350 -395 350 -411C402 -406 464 -410 561 -423C588 -428 593 -439 577 -446C565 -451 545 -452 505 -445C435 -433 395 -430 349 -430ZM436 -553C436 -539 431 -520 418 -497C394 -493 354 -490 331 -488C286 -504 276 -493 286 -476C302 -446 314 -363 314 -311C314 -274 316 -268 320 -263C330 -248 342 -251 348 -267C364 -269 389 -271 403 -272C396 -264 389 -258 377 -250C285 -192 223 -168 103 -133C86 -128 89 -115 107 -118C187 -127 266 -147 406 -210C415 -214 424 -216 446 -222C458 -225 464 -239 423 -274C504 -283 555 -285 581 -284C603 -284 611 -280 616 -266C624 -249 640 -247 656 -273C670 -296 681 -337 693 -424C695 -440 703 -458 715 -471C728 -482 726 -496 683 -518C651 -535 638 -535 607 -522C596 -518 544 -511 452 -501C467 -514 475 -520 491 -531C504 -539 505 -546 490 -558C615 -568 718 -573 752 -571C835 -566 841 -581 814 -600C785 -619 750 -621 687 -612C537 -590 309 -565 200 -561C181 -560 178 -553 199 -543C229 -530 262 -526 296 -533C325 -539 385 -547 436 -553ZM316 -628C310 -652 307 -676 305 -703C331 -708 359 -711 404 -716C421 -718 423 -713 422 -706C420 -685 417 -669 410 -653C407 -646 375 -637 316 -628ZM294 -727C227 -747 217 -733 237 -715C253 -701 259 -686 278 -631C292 -588 314 -585 318 -606C351 -611 412 -619 443 -622C474 -625 476 -638 465 -648C456 -656 457 -664 461 -671C475 -691 484 -699 494 -705C511 -714 508 -727 474 -747C443 -764 435 -763 423 -754C408 -744 337 -729 294 -727ZM608 -653C603 -673 600 -696 599 -725C635 -730 687 -738 715 -741C725 -742 728 -738 725 -727C719 -711 712 -691 706 -678C701 -665 693 -664 608 -653ZM591 -747C577 -754 570 -755 554 -756C528 -757 524 -752 533 -739C551 -712 562 -690 574 -647C583 -615 603 -612 610 -631C635 -636 671 -639 742 -643C762 -644 767 -656 760 -660C749 -667 753 -680 800 -724C817 -742 815 -750 784 -764C740 -785 737 -785 727 -780C696 -764 634 -750 591 -747Z"/>
</svg>