<svg xmlns="http://www.w3.org/2000/svg" viewBox="0 -1000 1000 1000">
	<path fill="#000000" d="M251 -280C261 -307 247 -313 236 -295C157 -153 138 -128 122 -126C96 -123 92 -112 102 -85C135 12 155 15 163 -25C171 -69 194 -138 251 -280ZM199 -435C200 -467 168 -498 117 -509C95 -514 87 -506 98 -486C119 -448 141 -419 159 -398C176 -379 197 -386 199 -435ZM276 -648C276 -679 257 -703 183 -720C159 -726 153 -715 166 -696C200 -650 213 -635 234 -613C257 -590 278 -599 276 -648ZM778 -232C793 -240 791 -251 761 -273C736 -292 724 -284 726 -270C728 -258 717 -237 700 -215C667 -175 627 -138 592 -111C578 -101 587 -89 598 -95C649 -121 697 -155 735 -196C750 -211 769 -227 778 -232ZM757 -347C774 -356 772 -366 743 -388C721 -405 710 -399 713 -384C714 -378 711 -366 692 -335C677 -312 640 -263 621 -245C610 -234 613 -228 623 -232C668 -255 697 -278 733 -321C745 -337 751 -343 757 -347ZM824 -127C841 -134 845 -146 810 -179C782 -205 774 -199 773 -182C772 -159 751 -129 715 -90C650 -20 578 28 494 60C472 68 475 79 492 76C598 56 672 15 775 -89C799 -112 808 -119 824 -127ZM405 -272C413 -293 409 -302 381 -317C367 -324 365 -320 368 -311C376 -298 386 -281 391 -268C396 -258 401 -259 405 -272ZM555 -284C560 -312 553 -324 530 -329C515 -331 513 -325 516 -316C520 -305 526 -295 535 -284C545 -274 553 -275 555 -284ZM868 -564C864 -605 841 -619 779 -634C770 -636 768 -630 776 -619C799 -589 813 -572 837 -548C853 -531 870 -537 868 -564ZM715 -662C701 -617 676 -566 652 -528C644 -515 650 -508 661 -518C699 -554 725 -588 738 -628C735 -571 732 -558 727 -543C719 -520 721 -502 735 -487C747 -474 754 -475 759 -483C766 -501 767 -508 766 -545C765 -569 766 -633 767 -670C805 -679 821 -683 840 -689C862 -697 863 -705 847 -714C831 -723 822 -722 768 -704C771 -750 774 -762 778 -768C790 -784 787 -793 742 -814C724 -823 717 -814 722 -798C736 -759 739 -738 739 -695C716 -688 694 -682 682 -680C659 -676 658 -657 686 -659C697 -660 706 -661 715 -662ZM391 -696C358 -688 338 -685 323 -684C299 -683 298 -674 316 -668C332 -661 354 -658 372 -660C351 -618 296 -546 256 -515C247 -508 251 -496 267 -504C318 -530 360 -572 390 -626C388 -574 383 -532 377 -514C371 -493 372 -484 379 -471C393 -444 404 -445 410 -463C416 -476 419 -503 418 -531C417 -572 417 -585 419 -625C426 -607 439 -588 450 -577C456 -570 461 -570 467 -591C473 -613 465 -630 420 -648C420 -655 421 -661 421 -668C435 -671 453 -676 471 -682C490 -688 492 -701 482 -708C472 -716 462 -716 424 -706C428 -736 432 -757 437 -763C450 -777 442 -794 403 -807C371 -817 365 -808 375 -792C384 -779 390 -756 391 -696ZM615 -509C617 -476 627 -475 633 -486C641 -503 645 -516 652 -547C654 -554 656 -559 659 -566C663 -572 663 -579 656 -584C644 -590 638 -594 627 -599C615 -603 610 -598 617 -583C619 -576 621 -561 619 -549C618 -541 617 -534 616 -527C608 -536 602 -536 587 -531L593 -620C606 -622 623 -624 642 -627C679 -633 682 -643 672 -651C649 -667 633 -664 596 -652C597 -668 598 -675 599 -679C600 -684 599 -691 595 -698C618 -703 635 -706 645 -709C662 -714 662 -723 645 -732C632 -741 623 -741 598 -732C580 -726 561 -721 546 -718C563 -748 572 -763 580 -771C591 -780 589 -791 562 -805C539 -816 527 -811 530 -801C535 -785 533 -772 524 -747C509 -706 497 -679 485 -659C474 -643 479 -640 492 -650C508 -664 523 -680 535 -698C543 -696 551 -695 562 -695C563 -685 563 -671 562 -644C533 -638 506 -634 493 -633C476 -631 472 -625 487 -617C501 -609 519 -609 561 -616L557 -524C545 -522 533 -519 522 -517C523 -535 524 -547 528 -554C534 -566 532 -574 510 -585C493 -595 484 -592 490 -580C497 -565 494 -522 482 -513C478 -510 478 -506 486 -488C493 -472 501 -472 511 -482C523 -492 583 -510 615 -509ZM338 -407C351 -401 362 -401 377 -405C388 -408 396 -409 422 -413C547 -433 698 -442 790 -442C816 -442 824 -436 786 -370C778 -356 788 -347 803 -359C851 -397 874 -406 899 -411C931 -417 931 -434 880 -472C854 -491 844 -495 823 -487C791 -476 732 -468 654 -464C612 -462 551 -456 497 -449C421 -439 379 -435 338 -434C325 -477 314 -478 308 -448C304 -425 298 -414 274 -378C266 -366 265 -354 271 -330C279 -300 297 -297 314 -328C329 -356 336 -381 338 -407ZM423 -393C430 -375 437 -361 444 -353C453 -345 464 -353 464 -372C463 -389 452 -401 437 -407C422 -414 416 -410 423 -393ZM463 -321C443 -334 419 -347 386 -364C367 -372 361 -359 373 -351C389 -341 424 -313 443 -298C422 -270 405 -251 386 -229C374 -217 378 -209 392 -218C408 -230 426 -245 441 -260C444 -245 446 -224 446 -218C446 -207 464 -202 468 -209C487 -234 478 -252 450 -267C455 -272 460 -277 464 -281C481 -267 502 -248 509 -242C525 -226 536 -239 529 -253C521 -272 509 -289 485 -306C523 -356 528 -361 537 -363C548 -367 543 -380 526 -392C499 -405 496 -404 495 -388C494 -374 485 -352 463 -321ZM341 -136C350 -144 360 -147 379 -154C450 -174 494 -183 535 -189C566 -141 577 -143 587 -182C606 -266 614 -285 623 -293C632 -301 630 -316 598 -341C581 -353 569 -343 574 -332C579 -319 578 -296 562 -225C557 -201 553 -202 545 -210C537 -221 520 -219 369 -183C351 -179 349 -181 351 -191C355 -202 361 -229 363 -247C364 -257 365 -262 367 -266C373 -277 370 -283 336 -297C310 -307 302 -298 315 -277C331 -250 332 -197 310 -175C305 -170 304 -161 314 -145C325 -126 330 -124 341 -136ZM418 -85C434 -81 463 -87 516 -104C539 -111 536 -131 512 -134C498 -136 485 -133 464 -123C448 -114 435 -110 423 -109C428 -126 419 -136 381 -144C366 -147 363 -144 370 -128C375 -115 377 -94 376 -37C376 -19 370 -7 362 -1C355 5 356 14 368 30C387 52 392 53 400 44C426 14 454 -5 567 -76C583 -87 576 -100 562 -92C530 -73 515 -66 412 -23C413 -46 416 -69 418 -85Z"/>
</svg>