<svg xmlns="http://www.w3.org/2000/svg" viewBox="0 -1000 1000 1000">
	<path fill="#000000" d="M746 -728C783 -730 794 -750 728 -789C695 -809 684 -805 678 -785C671 -761 562 -715 470 -686C440 -677 445 -656 474 -661C560 -677 600 -687 680 -716C692 -720 729 -727 746 -728ZM628 -380C581 -396 566 -384 584 -364C602 -345 610 -333 615 -310C508 -296 455 -290 404 -287C358 -285 355 -279 395 -255C413 -243 433 -243 477 -253C531 -266 573 -274 621 -279C631 -204 625 -131 612 -84C603 -47 591 -42 521 -59C488 -66 484 -56 505 -40C538 -17 561 9 569 32C577 56 596 57 619 35C673 -14 695 -81 671 -284C770 -292 835 -293 882 -289C947 -283 950 -304 909 -335C882 -355 858 -354 816 -345C761 -333 718 -325 667 -317C663 -339 656 -359 648 -369C708 -424 736 -445 755 -453C786 -467 791 -477 742 -510C713 -530 702 -525 682 -515C645 -496 512 -472 461 -470C425 -469 424 -459 451 -442C473 -428 488 -427 512 -435C544 -445 612 -464 661 -472C681 -475 688 -466 680 -452C671 -437 654 -414 628 -380ZM581 -657C567 -663 558 -656 564 -638C572 -613 591 -585 603 -577C618 -566 636 -574 638 -600C640 -627 630 -639 581 -657ZM808 -673C774 -683 769 -680 764 -661C760 -646 735 -619 667 -556C650 -543 656 -538 673 -546C702 -558 728 -572 783 -604C803 -615 829 -626 837 -628C862 -636 866 -653 808 -673ZM464 -616C444 -626 436 -619 442 -600C453 -566 470 -544 485 -536C500 -527 520 -530 520 -552C520 -576 501 -596 464 -616ZM276 -485C286 -643 288 -669 299 -686C317 -713 314 -726 251 -760C204 -785 195 -770 215 -740C233 -711 236 -606 223 -412C211 -230 172 -128 63 -26C43 -5 53 6 75 -7C167 -64 221 -139 247 -244C267 -205 289 -175 319 -136C334 -115 356 -116 361 -148C368 -192 333 -226 252 -265C262 -313 270 -380 275 -455C355 -512 389 -534 398 -538C425 -547 431 -562 381 -596C358 -612 343 -606 344 -584C345 -562 326 -530 276 -485ZM157 -424C157 -457 131 -489 87 -510C76 -516 66 -511 70 -487C77 -457 92 -421 107 -405C134 -372 157 -381 157 -424Z"/>
</svg>