<svg xmlns="http://www.w3.org/2000/svg" viewBox="0 -1000 1000 1000">
	<path fill="#000000" d="M805 -196C800 -257 795 -329 789 -501C786 -581 788 -604 805 -629C824 -657 822 -666 772 -700C723 -733 710 -734 679 -724C648 -714 580 -706 332 -679C287 -674 263 -672 230 -674C176 -691 167 -679 186 -643C199 -618 205 -589 206 -405C206 -349 195 -199 183 -170C163 -122 165 -100 190 -42C201 -15 220 -17 234 -93C275 -83 305 -82 350 -87C416 -95 588 -107 630 -106C671 -105 680 -103 691 -73C704 -38 712 -9 722 19C732 46 745 43 759 22C800 -43 814 -97 805 -196ZM736 -135C727 -93 713 -92 700 -115C680 -151 642 -160 603 -155C399 -127 291 -119 238 -123C245 -190 260 -470 256 -643C275 -640 294 -642 323 -647C387 -658 602 -675 650 -673C713 -671 718 -668 725 -608C743 -460 749 -195 736 -135ZM647 -286C644 -336 607 -370 473 -423C481 -444 487 -464 491 -484C495 -504 509 -544 512 -549C526 -578 526 -587 482 -605C433 -625 421 -621 439 -574C447 -553 439 -478 423 -437C391 -353 340 -282 275 -224C251 -204 259 -191 283 -204C376 -256 434 -332 468 -412C522 -348 582 -281 598 -263C625 -231 649 -248 647 -286Z"/>
</svg>