<svg xmlns="http://www.w3.org/2000/svg" viewBox="0 -1000 1000 1000">
	<path fill="#000000" d="M350 -421C398 -443 423 -453 444 -462C476 -474 478 -478 446 -499C419 -516 411 -512 408 -493C406 -482 388 -463 355 -440C361 -461 365 -475 367 -481C373 -498 373 -505 326 -519C305 -524 294 -515 305 -501C316 -487 316 -458 310 -428C302 -381 269 -329 198 -283C188 -276 193 -264 209 -272C279 -305 325 -342 338 -380C364 -355 385 -339 408 -324C424 -313 440 -317 439 -335C438 -360 413 -382 342 -395C345 -404 348 -413 350 -421ZM247 -408C247 -443 240 -456 186 -474C162 -481 159 -476 168 -458C182 -436 195 -415 204 -403C224 -380 247 -386 247 -408ZM666 -436C734 -459 780 -477 801 -485C834 -498 838 -505 799 -526C766 -545 759 -544 754 -524C752 -514 716 -480 669 -453C676 -493 679 -512 684 -521C690 -531 686 -537 635 -556C616 -564 604 -551 621 -531C628 -522 633 -485 630 -471C612 -386 591 -350 540 -304C525 -291 533 -285 550 -294C603 -318 637 -354 656 -401C706 -362 745 -334 776 -315C799 -301 812 -319 809 -339C803 -366 769 -393 660 -413C663 -420 665 -429 666 -436ZM566 -424C569 -457 563 -473 507 -495C481 -503 478 -500 489 -480C498 -456 510 -435 521 -422C542 -398 564 -400 566 -424ZM537 -616C583 -591 641 -568 680 -554C710 -544 721 -555 712 -581C702 -609 673 -618 542 -631C520 -634 515 -627 537 -616ZM259 -707C280 -675 294 -657 316 -637C329 -624 349 -635 349 -659C349 -698 333 -713 279 -726C254 -732 248 -724 259 -707ZM481 -646C548 -665 590 -680 623 -695C654 -709 673 -714 700 -719C716 -721 720 -737 659 -772C642 -782 635 -779 626 -753C618 -733 560 -695 487 -663C495 -701 502 -723 516 -752C526 -771 519 -779 475 -789C430 -798 423 -792 442 -760C455 -741 442 -678 425 -641C403 -595 336 -558 242 -525C224 -519 224 -499 250 -506C397 -544 460 -587 481 -646ZM478 -223C479 -213 479 -203 479 -193C481 -111 477 -66 471 -36C461 15 478 69 498 69C515 69 534 27 528 -37C522 -100 521 -174 521 -224C567 -176 595 -152 697 -63C743 -23 753 -21 803 -22C840 -23 893 -29 947 -38C977 -43 973 -56 937 -62C773 -93 697 -129 555 -229C679 -238 774 -240 813 -236C863 -231 869 -255 820 -277C788 -293 770 -294 724 -284C708 -281 647 -273 521 -258C521 -280 523 -295 526 -302C536 -328 534 -334 488 -345C453 -354 445 -339 459 -325C467 -316 473 -292 476 -253C282 -232 192 -225 164 -227C117 -230 115 -222 153 -201C183 -184 191 -184 244 -195C266 -199 333 -208 407 -215C349 -140 237 -63 107 -9C74 4 78 17 108 11C248 -20 364 -85 475 -223Z"/>
</svg>