<svg xmlns="http://www.w3.org/2000/svg" viewBox="0 -1000 1000 1000">
	<path fill="#000000" d="M180 -388C181 -422 169 -448 123 -487C103 -504 97 -502 102 -462C107 -431 114 -399 126 -372C143 -336 178 -346 180 -388ZM282 -511C286 -628 288 -651 299 -672C316 -698 314 -708 247 -739C201 -759 186 -743 207 -720C232 -693 240 -588 231 -379C223 -189 183 -101 79 9C62 27 68 39 89 26C188 -41 240 -102 263 -224C280 -193 300 -161 329 -123C344 -102 366 -107 366 -142C365 -190 351 -210 266 -244C276 -308 281 -403 281 -483C351 -531 374 -545 398 -554C423 -565 425 -579 386 -611C363 -629 349 -625 348 -607C347 -586 330 -557 282 -511ZM504 -365C513 -333 525 -313 533 -304C546 -290 560 -291 564 -315C569 -345 565 -358 519 -374C506 -379 501 -377 504 -365ZM526 -558C542 -564 565 -568 599 -573C607 -558 611 -536 611 -510C569 -501 537 -495 493 -488C476 -486 474 -482 497 -473C523 -463 550 -463 608 -472L605 -429C491 -413 416 -408 363 -405C344 -404 339 -393 351 -386C387 -368 402 -366 432 -374C455 -380 616 -402 685 -409C691 -389 684 -361 659 -308C608 -296 532 -280 485 -273C462 -270 461 -267 481 -259C516 -244 535 -244 592 -257C597 -243 599 -224 599 -197C491 -181 437 -177 398 -177C368 -177 365 -163 391 -150C426 -134 433 -134 479 -144C511 -152 554 -159 599 -164C598 -122 597 -81 597 -11C597 47 597 56 601 71C606 93 616 93 624 68C632 37 637 14 643 -35C646 -58 649 -125 650 -170C726 -178 798 -182 833 -178C897 -171 900 -199 860 -221C833 -236 820 -239 767 -227C745 -222 705 -213 651 -205C652 -238 651 -258 649 -269C718 -283 743 -287 764 -291C786 -295 789 -313 760 -322C746 -327 730 -326 693 -316C714 -347 730 -363 747 -376C760 -384 762 -394 733 -412C821 -417 850 -417 905 -414C945 -412 952 -432 914 -453C889 -468 862 -471 815 -462C784 -455 715 -444 645 -434L649 -480C704 -489 737 -498 762 -506C780 -512 778 -527 761 -536C745 -543 732 -541 653 -520C656 -537 656 -546 658 -555C659 -566 658 -572 650 -579C659 -580 668 -581 677 -582C694 -584 701 -582 703 -579C712 -564 719 -561 739 -576C759 -590 784 -616 820 -653C833 -667 846 -680 862 -688C884 -699 882 -713 822 -749C794 -766 782 -765 755 -757C729 -749 639 -731 596 -726C556 -721 514 -717 482 -716C417 -730 405 -718 429 -694C445 -678 468 -624 482 -585C490 -565 508 -544 514 -546C520 -547 525 -552 526 -558ZM573 -594C558 -591 540 -588 521 -584C512 -613 501 -655 493 -689C507 -692 526 -694 548 -696C555 -659 562 -627 573 -594ZM685 -713C705 -715 725 -718 746 -721C765 -724 774 -716 771 -705C767 -688 745 -649 722 -618C714 -607 707 -607 702 -609C697 -611 687 -612 661 -609C674 -643 684 -662 701 -682C708 -691 708 -698 685 -713ZM632 -605C623 -603 610 -601 597 -599C600 -629 596 -661 572 -698C597 -702 623 -705 650 -708C654 -686 646 -644 632 -605Z"/>
</svg>