<svg xmlns="http://www.w3.org/2000/svg" viewBox="0 -1000 1000 1000">
	<path fill="#000000" d="M340 -463C339 -423 338 -387 338 -356C180 -322 112 -314 76 -316C43 -318 39 -308 69 -283C97 -261 112 -259 148 -272C167 -279 185 -285 199 -290C201 -205 159 -98 89 -35C70 -19 78 -9 101 -24C192 -81 218 -129 238 -209C246 -237 251 -253 257 -261C270 -277 268 -284 237 -302C266 -310 294 -316 337 -326C333 -163 327 -112 313 -75C299 -42 301 -23 324 17C339 44 354 42 361 20C370 -8 374 -30 375 -139C375 -221 379 -408 386 -553C389 -627 392 -648 402 -677C411 -704 409 -715 351 -741C313 -757 300 -743 320 -719C336 -699 343 -649 340 -490C315 -488 283 -483 239 -472C236 -522 242 -575 249 -587C258 -606 242 -623 187 -643C157 -653 148 -636 169 -617C211 -582 199 -489 177 -474C161 -464 162 -450 179 -428C195 -405 209 -404 221 -416C239 -435 266 -446 340 -463ZM484 -681C502 -646 513 -631 553 -601C566 -590 581 -596 583 -628C585 -663 570 -691 499 -705C476 -710 471 -703 484 -681ZM782 -771C730 -787 720 -777 730 -754C739 -731 717 -688 666 -610C651 -587 657 -582 676 -596C715 -626 736 -645 748 -659C777 -692 805 -718 818 -725C845 -739 844 -751 782 -771ZM610 -370C611 -345 612 -315 612 -277C527 -264 441 -251 409 -250C383 -249 382 -239 400 -230C439 -210 455 -207 511 -223C542 -231 576 -238 612 -244C612 -195 612 -137 610 -112C606 -38 608 35 615 66C622 96 638 95 644 68C656 18 659 -37 661 -106C663 -162 664 -217 663 -251C737 -262 813 -266 871 -262C942 -257 953 -272 924 -297C896 -321 864 -326 760 -304C732 -298 686 -290 662 -285C662 -312 661 -342 661 -378C690 -384 722 -394 768 -408C790 -415 791 -425 777 -434C752 -447 733 -447 662 -425C663 -439 664 -450 665 -456C670 -485 669 -500 651 -509C733 -524 796 -538 815 -545C844 -555 846 -564 837 -574C821 -589 790 -595 742 -579C677 -556 533 -523 477 -517C453 -514 454 -500 486 -495C509 -490 534 -490 596 -500C604 -487 607 -467 609 -410C572 -401 537 -393 501 -386C473 -381 471 -375 494 -365C510 -358 528 -358 610 -370Z"/>
</svg>