<svg xmlns="http://www.w3.org/2000/svg" viewBox="0 -1000 1000 1000">
	<path fill="#000000" d="M185 -470C191 -479 195 -487 199 -497C207 -513 220 -532 229 -541C245 -556 245 -569 213 -586C164 -612 149 -604 160 -573C163 -565 161 -549 142 -491C128 -451 106 -408 76 -368C55 -339 61 -332 89 -353C119 -378 149 -412 172 -450C211 -446 245 -447 285 -453C285 -406 284 -363 284 -325C157 -228 114 -207 89 -203C53 -197 53 -187 91 -164C131 -140 143 -140 163 -166C179 -186 219 -223 283 -278C279 -154 272 -90 264 -63C249 -11 252 11 271 46C292 83 309 80 315 43C326 -41 329 -136 324 -315C394 -376 407 -389 402 -395C396 -401 379 -399 324 -355C324 -392 324 -428 324 -462C345 -468 368 -474 395 -482C425 -491 424 -512 399 -519C384 -523 360 -520 325 -510C328 -611 335 -687 345 -710C360 -742 358 -753 306 -768C250 -786 238 -776 266 -741C282 -721 285 -691 285 -497C232 -480 204 -473 185 -470ZM546 -302C544 -334 515 -369 464 -386C447 -392 447 -397 459 -412C467 -423 474 -435 486 -451C499 -471 520 -505 531 -517C539 -525 539 -534 531 -542C516 -555 505 -564 487 -574C473 -580 462 -568 468 -559C484 -540 463 -463 436 -419C421 -396 420 -385 436 -373C467 -350 490 -326 513 -292C525 -273 547 -279 546 -302ZM676 -353C676 -380 663 -403 601 -429C594 -432 592 -437 603 -453C630 -491 645 -506 661 -518C674 -528 675 -537 668 -545C657 -557 639 -572 623 -581C609 -587 600 -576 604 -562C609 -542 606 -505 575 -458C562 -437 560 -424 570 -417C597 -397 618 -377 650 -337C663 -321 676 -329 676 -353ZM845 -353C844 -403 821 -428 750 -451C736 -456 736 -459 742 -468C779 -518 797 -536 819 -556C835 -571 834 -583 781 -621C763 -635 752 -626 759 -604C767 -575 744 -515 710 -470C700 -453 700 -445 716 -434C763 -405 789 -380 813 -339C824 -321 846 -329 845 -353ZM808 -680C834 -686 834 -708 799 -718C775 -725 761 -722 706 -707C588 -673 549 -665 489 -659C474 -658 474 -650 491 -643C528 -625 550 -623 659 -647C710 -658 748 -667 808 -680ZM651 -66C651 -111 656 -136 663 -160C668 -174 667 -180 640 -199C717 -210 757 -217 786 -224C809 -229 808 -243 784 -256C763 -267 724 -265 649 -244C602 -231 524 -216 487 -214C467 -213 466 -203 480 -197C503 -188 527 -183 596 -193C606 -170 608 -118 603 -60C499 -49 396 -39 360 -40C344 -40 341 -30 358 -18C394 8 406 10 456 -1C488 -8 527 -14 646 -28C717 -36 809 -36 910 -23C956 -17 961 -44 912 -74C882 -93 858 -97 813 -89C759 -78 710 -72 651 -66Z"/>
</svg>