<svg xmlns="http://www.w3.org/2000/svg" viewBox="0 -1000 1000 1000">
	<path fill="#000000" d="M497 -602C467 -591 434 -582 425 -581C412 -580 408 -567 425 -561C441 -556 456 -557 497 -566C496 -546 496 -526 495 -506C467 -496 438 -486 424 -482C412 -479 408 -467 424 -465C442 -462 454 -463 494 -472C493 -446 491 -422 490 -408C455 -398 393 -383 373 -381C349 -379 349 -369 370 -354C393 -339 400 -340 422 -352C426 -355 464 -369 487 -376C485 -351 486 -336 490 -329C505 -303 518 -304 523 -332C526 -346 527 -362 528 -390C559 -402 591 -415 597 -418C604 -422 606 -436 590 -437C582 -438 569 -436 529 -421C529 -439 530 -458 532 -482C548 -487 563 -492 577 -499C603 -510 600 -522 578 -527C568 -531 558 -528 534 -520C535 -537 536 -555 537 -573C562 -579 582 -585 604 -593C627 -602 626 -613 604 -620C589 -625 564 -624 540 -616C545 -682 548 -697 556 -715C565 -737 561 -750 512 -768C470 -785 462 -766 484 -744C494 -732 497 -709 497 -602ZM598 -226C767 -243 823 -246 865 -240C916 -233 930 -250 891 -279C863 -301 841 -303 789 -290C777 -286 743 -280 602 -258C605 -281 607 -292 609 -294C623 -316 621 -328 584 -338C538 -351 529 -344 544 -319C553 -305 555 -280 551 -249C469 -236 417 -229 362 -225C329 -223 326 -211 353 -199C383 -186 399 -187 426 -193C470 -203 512 -212 547 -218C534 -115 495 -56 355 16C342 23 340 38 361 34C480 8 573 -73 593 -190C638 -124 679 -70 744 7C768 36 784 44 945 28C971 25 968 10 945 3C838 -28 794 -47 745 -87C703 -120 658 -162 598 -226ZM701 -593C699 -557 680 -501 662 -469C637 -425 624 -407 599 -380C584 -364 588 -361 601 -366C646 -382 694 -439 715 -487C727 -513 741 -539 753 -551C767 -565 765 -575 731 -603C755 -610 779 -616 797 -620C811 -623 818 -619 815 -586C808 -511 798 -469 776 -429C766 -409 755 -405 716 -425C701 -434 693 -421 702 -411C728 -382 736 -363 737 -345C738 -333 752 -332 772 -346C801 -368 821 -410 836 -459C869 -576 873 -585 891 -599C902 -606 902 -616 884 -630C869 -643 859 -650 839 -660C823 -669 806 -668 791 -657C774 -646 719 -630 650 -618C630 -615 629 -608 647 -599C663 -590 680 -588 701 -593ZM251 -499C258 -479 264 -458 269 -437C215 -327 142 -242 48 -164C32 -150 36 -144 49 -148C130 -174 240 -291 281 -361C287 -296 284 -246 272 -118C267 -66 259 -59 187 -86C169 -93 164 -84 177 -69C204 -37 221 -10 231 18C239 41 250 42 273 22C306 -7 320 -42 326 -125C339 -297 325 -449 286 -537C305 -558 326 -583 351 -614C372 -641 386 -657 397 -667C416 -679 415 -696 376 -717C327 -744 314 -736 322 -713C329 -690 320 -654 262 -578C238 -609 194 -636 141 -658C130 -663 120 -664 118 -660C115 -656 118 -645 122 -643C170 -616 206 -583 231 -539C192 -491 148 -453 90 -413C72 -401 76 -390 94 -398C154 -419 193 -438 251 -499Z"/>
</svg>