<svg xmlns="http://www.w3.org/2000/svg" viewBox="0 -1000 1000 1000">
	<path fill="#000000" d="M519 -248C504 -251 487 -255 468 -258C456 -260 452 -249 464 -244C501 -228 567 -189 622 -154C644 -139 654 -147 647 -180C642 -204 619 -224 547 -241C565 -248 574 -252 588 -261C621 -282 627 -286 640 -290C665 -296 665 -311 630 -330C598 -346 589 -343 590 -331C591 -310 570 -280 519 -248ZM224 -677C157 -704 138 -690 159 -664C181 -638 185 -589 186 -410C186 -331 177 -174 166 -133C154 -81 156 -41 168 -16C192 33 203 33 221 -56C255 -52 295 -54 340 -59C426 -69 570 -76 621 -72C641 -70 656 -59 674 -35C698 -3 708 17 715 42C722 65 740 69 756 43C783 0 794 -32 796 -101C798 -148 796 -251 784 -514C780 -600 783 -622 799 -648C815 -676 814 -688 765 -717C715 -746 704 -749 672 -739C645 -729 583 -718 535 -713C494 -709 404 -697 355 -689C314 -683 283 -680 224 -677ZM225 -89C233 -264 238 -471 236 -642C268 -643 328 -649 393 -658C519 -677 605 -684 650 -684C696 -684 711 -678 718 -619C725 -568 733 -445 735 -365C736 -264 732 -190 720 -104C716 -72 700 -65 677 -92C649 -127 628 -132 520 -116C395 -99 295 -91 225 -89ZM484 -497L487 -548C558 -561 578 -567 591 -572C607 -580 603 -588 590 -592C566 -602 546 -601 491 -586C494 -602 497 -612 498 -614C504 -626 496 -641 459 -654C430 -664 418 -654 432 -637C441 -625 448 -604 451 -576C405 -564 389 -560 362 -557C355 -556 354 -550 359 -548C378 -539 401 -536 450 -542L447 -490C381 -481 332 -476 271 -470C262 -469 260 -461 268 -455C291 -441 314 -438 341 -445C381 -455 437 -466 466 -469C573 -479 627 -480 659 -476C688 -472 691 -498 671 -506C634 -522 615 -522 536 -506C521 -503 503 -500 484 -497ZM396 -321C400 -321 404 -322 408 -322C408 -302 322 -219 248 -177C238 -172 241 -163 255 -165C286 -170 370 -216 407 -258C410 -230 408 -194 403 -182C395 -165 401 -132 412 -116C421 -108 431 -108 435 -114C446 -129 448 -139 448 -161C447 -206 447 -231 447 -247C447 -261 445 -269 434 -278C440 -283 446 -287 452 -290C470 -298 470 -309 450 -327C495 -332 539 -338 557 -342C574 -346 575 -348 569 -364C565 -375 568 -383 601 -408C611 -416 606 -431 585 -440C553 -455 540 -455 524 -447C507 -439 420 -419 376 -414C333 -431 321 -418 333 -402C345 -386 353 -373 368 -332C375 -313 385 -306 396 -321ZM392 -392C462 -404 490 -408 503 -410C524 -413 530 -408 526 -392C521 -369 518 -364 500 -360C488 -358 454 -351 401 -344C398 -365 395 -379 392 -392Z"/>
</svg>