<svg xmlns="http://www.w3.org/2000/svg" viewBox="0 -1000 1000 1000">
	<path fill="#000000" d="M615 -644C596 -639 573 -634 546 -626C528 -621 518 -619 508 -619C491 -617 490 -614 508 -604C529 -592 551 -589 613 -601L609 -544C545 -531 518 -526 493 -524C471 -522 470 -513 487 -506C507 -496 519 -493 553 -501C630 -516 699 -525 736 -528C812 -535 814 -543 798 -556C773 -576 760 -578 652 -553L657 -609C682 -614 712 -621 748 -630C778 -639 785 -652 768 -660C745 -671 728 -670 661 -654C665 -686 673 -713 680 -731C691 -756 685 -764 617 -788C589 -797 574 -784 594 -763C605 -752 618 -705 615 -644ZM660 -214C694 -219 727 -225 743 -227C797 -234 800 -248 783 -257C755 -272 736 -272 697 -261C650 -247 499 -216 454 -210C431 -207 429 -200 444 -194C464 -187 485 -184 519 -190C501 -122 438 -52 336 -1C321 7 319 16 334 14C423 5 499 -51 550 -125C566 -147 573 -155 576 -158C585 -166 587 -173 560 -198C576 -201 602 -205 630 -209C637 -192 639 -172 637 -147C627 1 659 35 736 47C806 59 883 52 926 28C954 12 959 -4 950 -21C941 -37 934 -70 933 -126C932 -162 915 -163 910 -130C896 -46 877 -24 856 -16C819 -2 779 1 752 -2C709 -7 679 -28 677 -71C675 -115 678 -136 686 -159C697 -183 692 -195 660 -214ZM770 -359C773 -384 776 -405 779 -421C801 -424 823 -429 852 -436C876 -442 879 -454 871 -459C854 -471 841 -473 786 -462C788 -471 789 -476 791 -481C799 -502 797 -507 764 -518C729 -528 718 -518 733 -495C737 -488 738 -479 738 -452C687 -442 667 -440 657 -440C633 -440 630 -431 645 -422C665 -413 675 -411 736 -417C735 -397 732 -373 728 -351C686 -345 646 -340 621 -339C599 -338 596 -329 614 -317C631 -308 637 -307 668 -312C736 -325 821 -332 872 -333C910 -335 917 -346 900 -361C881 -376 867 -378 823 -369C804 -365 788 -362 770 -359ZM527 -326C528 -348 529 -367 530 -381C555 -390 581 -402 587 -405C605 -415 606 -430 588 -433C578 -435 563 -432 532 -421C533 -428 533 -432 534 -434C540 -455 536 -462 495 -475C468 -484 458 -471 475 -454C484 -447 490 -427 492 -406C461 -395 436 -387 430 -386C397 -382 398 -370 419 -365C439 -361 457 -362 493 -371L494 -317C469 -309 425 -296 377 -284C354 -279 354 -275 374 -259C397 -240 410 -240 429 -253C437 -260 500 -287 579 -317C604 -327 594 -339 574 -336C562 -334 548 -331 527 -326ZM259 -490C266 -472 272 -450 276 -425C218 -309 139 -215 39 -133C22 -120 25 -113 40 -118C132 -146 244 -268 286 -341C292 -251 289 -178 275 -100C266 -47 253 -41 179 -77C164 -85 154 -75 167 -61C204 -23 220 0 233 38C241 62 251 61 276 39C307 13 326 -25 334 -109C350 -268 333 -434 291 -525C312 -548 335 -575 361 -607C390 -643 398 -651 410 -660C430 -674 428 -690 389 -713C341 -741 328 -730 332 -707C336 -682 328 -648 266 -568C240 -599 193 -625 137 -649C126 -654 116 -655 113 -651C110 -647 114 -636 118 -634C170 -606 210 -575 237 -532C194 -482 147 -441 84 -400C64 -386 68 -376 88 -383C153 -406 194 -427 259 -490Z"/>
</svg>