<svg xmlns="http://www.w3.org/2000/svg" viewBox="0 -1000 1000 1000">
	<path fill="#000000" d="M808 -682C827 -702 826 -710 803 -729C786 -744 775 -752 748 -766C733 -774 720 -776 705 -768C663 -745 543 -716 447 -704C392 -722 390 -702 407 -679C424 -655 443 -610 475 -497C485 -460 490 -449 501 -449C506 -449 512 -455 515 -463C596 -482 625 -487 648 -490C656 -491 671 -487 684 -478C693 -472 711 -475 717 -485C740 -526 746 -541 765 -597C775 -628 797 -671 808 -682ZM389 -264C381 -274 364 -268 270 -220L278 -389C302 -396 327 -405 350 -418C376 -431 371 -447 347 -453C334 -456 320 -454 280 -439C284 -504 290 -524 294 -537C303 -560 303 -577 277 -593C311 -602 346 -613 363 -620C391 -634 384 -657 360 -664C335 -670 316 -667 261 -643C231 -630 174 -613 151 -610C127 -607 126 -597 147 -586C168 -576 201 -576 236 -582C242 -559 244 -515 242 -425C214 -418 170 -407 151 -403C135 -399 134 -389 168 -379C185 -375 210 -375 239 -380L231 -201C179 -177 126 -162 100 -159C74 -156 68 -143 97 -116C134 -84 142 -84 165 -102C188 -122 287 -189 355 -231C385 -251 393 -259 389 -264ZM950 -135C941 -160 936 -192 933 -222C929 -261 923 -261 913 -215C896 -137 883 -118 850 -109C816 -100 756 -89 710 -108C674 -122 660 -172 661 -225C661 -245 661 -260 662 -274C791 -330 802 -337 824 -346C844 -355 852 -372 811 -397C781 -415 770 -415 764 -391C757 -369 731 -337 663 -297C665 -335 668 -352 674 -367C689 -407 684 -413 647 -429C611 -445 603 -433 616 -410C624 -397 627 -369 626 -228C625 -121 632 -77 709 -50C756 -34 856 -39 892 -50C965 -74 966 -88 950 -135ZM571 -323C551 -331 524 -328 461 -300C470 -362 468 -366 427 -383C398 -394 388 -381 404 -351C415 -328 421 -286 420 -241C418 -146 414 -128 385 -105C369 -91 369 -80 381 -59C400 -26 410 -26 422 -44C444 -75 508 -123 566 -164C583 -176 576 -184 560 -179C535 -171 493 -151 451 -129C454 -188 458 -251 459 -281C493 -277 535 -282 570 -297C586 -304 586 -317 571 -323ZM710 -658C706 -604 702 -597 690 -544C684 -517 673 -513 668 -515C660 -519 631 -515 514 -483C510 -506 502 -540 495 -574C543 -574 609 -587 642 -600C666 -608 658 -621 640 -626C618 -632 589 -622 492 -588C484 -621 475 -655 467 -681C534 -691 636 -711 666 -717C705 -725 714 -717 710 -658Z"/>
</svg>