<svg xmlns="http://www.w3.org/2000/svg" viewBox="0 -1000 1000 1000">
	<path fill="#000000" d="M512 -646C549 -649 607 -657 695 -670C791 -683 808 -672 812 -572C821 -359 822 -279 820 -175C818 -62 808 -54 735 -72C707 -79 702 -63 720 -50C756 -24 790 8 802 29C814 51 830 52 847 26C877 -20 890 -71 880 -189C875 -250 872 -344 870 -519C870 -570 872 -617 884 -638C901 -664 902 -675 876 -692C864 -701 843 -711 828 -718C803 -729 788 -730 766 -720C718 -699 579 -681 488 -676C440 -695 429 -681 439 -663C455 -635 460 -572 457 -478C448 -252 411 -135 309 -12C279 25 295 33 325 9C424 -68 478 -182 498 -363C510 -479 514 -593 512 -646ZM596 -184C639 -187 698 -192 734 -195C748 -196 750 -208 739 -217C726 -228 729 -257 764 -293C779 -308 780 -321 742 -339C712 -352 699 -351 679 -342C657 -332 603 -319 565 -316C527 -333 518 -318 528 -302C538 -285 553 -243 559 -203C564 -169 571 -159 580 -159C590 -159 596 -166 596 -184ZM580 -294C608 -296 648 -301 672 -306C686 -309 701 -300 697 -276C695 -266 693 -258 690 -246C683 -224 677 -219 594 -211C591 -244 584 -276 580 -294ZM629 -510L627 -433C603 -428 576 -423 546 -420C524 -417 520 -407 544 -399C564 -393 591 -392 650 -400C731 -411 749 -415 768 -420C791 -427 794 -437 775 -446C757 -454 735 -455 668 -441L670 -516C709 -521 724 -524 741 -530C762 -536 762 -549 748 -555C733 -564 713 -564 672 -554C675 -579 677 -589 680 -596C691 -621 682 -636 652 -649C621 -663 604 -651 615 -634C626 -619 629 -600 629 -543C607 -538 583 -534 565 -532C546 -530 547 -517 565 -512C580 -507 602 -507 629 -510ZM280 -621C335 -633 362 -640 385 -648C415 -659 415 -679 382 -687C350 -695 330 -691 286 -675C238 -657 181 -644 145 -638C113 -633 114 -614 148 -609C173 -606 200 -607 228 -611C236 -590 239 -548 239 -455C180 -435 156 -427 136 -420C117 -414 116 -398 151 -397C170 -396 203 -400 239 -407V-232C160 -194 125 -182 97 -181C58 -180 54 -163 94 -135C134 -106 142 -107 157 -125C170 -140 223 -178 370 -259C404 -277 410 -295 407 -299C400 -307 369 -298 284 -255V-416C317 -424 348 -434 368 -443C396 -455 395 -480 372 -483C349 -486 324 -483 287 -472C292 -535 295 -562 296 -570C301 -601 299 -611 280 -621Z"/>
</svg>