<svg xmlns="http://www.w3.org/2000/svg" viewBox="0 -1000 1000 1000">
	<path fill="#000000" d="M535 -384C531 -400 528 -417 524 -447C592 -461 674 -472 688 -471C695 -471 698 -465 692 -437C687 -417 681 -412 663 -407C610 -394 583 -389 535 -384ZM508 -470C455 -482 451 -459 463 -449C477 -436 485 -422 499 -388C513 -354 519 -348 525 -349C532 -350 536 -353 538 -362C553 -363 569 -365 585 -367C591 -355 595 -333 596 -304C541 -292 510 -286 490 -284C468 -282 468 -279 489 -269C516 -256 534 -255 597 -269C597 -249 597 -226 597 -196C553 -192 504 -186 456 -179C473 -223 472 -241 446 -259C429 -270 423 -264 426 -244C430 -222 419 -191 391 -174C375 -165 373 -156 384 -140C399 -118 408 -115 428 -126C455 -140 506 -156 597 -167C596 -27 596 13 605 58C609 80 622 79 629 60C645 16 649 -34 647 -172C728 -179 788 -182 819 -179C906 -171 907 -192 875 -216C847 -238 816 -237 782 -228C743 -216 692 -207 647 -201C647 -237 647 -260 646 -279C677 -285 707 -291 739 -296C777 -302 779 -311 768 -321C753 -335 739 -337 699 -328C680 -324 663 -319 647 -316C656 -353 656 -355 633 -373C670 -378 702 -383 716 -386C745 -393 747 -399 740 -417C737 -425 739 -432 750 -443C759 -451 769 -458 780 -465C794 -472 793 -478 774 -489C730 -515 712 -517 700 -509C683 -500 632 -486 508 -470ZM539 -565C469 -554 394 -544 372 -544C352 -544 349 -538 372 -524C399 -509 412 -509 442 -518C459 -523 480 -526 641 -546C774 -562 822 -566 869 -561C935 -555 941 -578 917 -593C889 -612 868 -615 834 -609C797 -603 769 -598 724 -590C736 -618 753 -643 772 -658C795 -677 794 -683 771 -696C729 -722 710 -721 694 -709C687 -705 652 -694 610 -684C621 -722 628 -740 636 -752C647 -770 643 -784 617 -795C550 -824 536 -804 555 -789C568 -778 573 -740 562 -674C526 -667 493 -660 473 -659C446 -657 444 -651 463 -642C489 -629 506 -628 555 -640ZM601 -651C640 -659 668 -663 688 -665C701 -667 707 -656 685 -585C657 -581 622 -576 577 -570ZM264 -613C303 -620 338 -628 368 -638C391 -645 392 -664 362 -673C336 -680 310 -680 261 -660C217 -643 170 -630 128 -623C108 -620 108 -611 135 -602C156 -595 178 -595 206 -601C221 -585 226 -562 225 -443C179 -427 143 -414 128 -411C117 -408 117 -403 144 -393C157 -387 188 -389 225 -398L223 -239C133 -191 96 -180 74 -178C55 -176 46 -160 85 -135C117 -115 132 -118 144 -127C172 -152 212 -183 343 -278C387 -309 392 -319 388 -325C385 -329 378 -326 267 -265L270 -409C291 -414 321 -424 343 -434C368 -444 369 -459 338 -466C317 -470 300 -470 272 -461C273 -521 274 -542 276 -554C282 -592 280 -605 264 -613Z"/>
</svg>