<svg xmlns="http://www.w3.org/2000/svg" viewBox="0 -1000 1000 1000">
	<path fill="#000000" d="M838 2C838 -53 807 -83 676 -130C656 -137 649 -131 667 -110C707 -62 750 -16 776 9C821 50 838 45 838 2ZM547 -76C571 -85 569 -101 535 -124C498 -148 485 -147 482 -118C481 -101 468 -86 429 -49C397 -18 353 14 319 34C297 46 303 62 324 54C395 31 433 9 484 -32C522 -63 536 -72 547 -76ZM765 -214C770 -439 774 -465 784 -476C807 -504 804 -514 762 -537C721 -558 710 -558 675 -542C663 -536 635 -528 597 -521C606 -554 614 -583 622 -607C707 -617 729 -620 793 -635C834 -644 838 -665 810 -674C779 -683 754 -684 698 -669C680 -663 659 -658 636 -654C651 -697 662 -719 673 -733C688 -754 685 -768 646 -786C582 -815 571 -796 590 -763C597 -751 597 -709 584 -644C527 -634 469 -625 437 -623C407 -622 406 -605 433 -599C460 -592 490 -591 576 -602C570 -575 563 -546 555 -514C537 -511 516 -508 496 -506C445 -526 437 -516 450 -490C466 -462 474 -413 467 -178C419 -174 376 -172 352 -172C315 -172 313 -164 339 -147C367 -131 385 -128 425 -136C531 -157 808 -179 887 -169C967 -159 981 -189 925 -215C890 -233 864 -232 765 -214ZM511 -182C511 -207 512 -224 512 -243C558 -243 602 -248 646 -260C676 -267 678 -282 653 -291C642 -295 623 -293 513 -267C514 -287 514 -307 514 -326C557 -324 588 -327 643 -341C670 -348 671 -364 648 -370C632 -375 606 -372 514 -350C515 -368 515 -383 515 -400C564 -403 600 -408 639 -418C668 -425 669 -439 646 -449C632 -455 600 -452 515 -428C516 -447 516 -464 516 -481C546 -482 580 -487 661 -502C695 -508 707 -501 710 -473C718 -393 719 -322 713 -207C651 -199 577 -190 511 -182ZM248 -591C312 -606 333 -612 358 -623C388 -637 385 -653 351 -661C321 -669 310 -667 256 -647C207 -629 168 -619 134 -614C100 -609 100 -600 129 -589C155 -581 180 -579 209 -583C222 -565 224 -526 224 -409C189 -397 154 -388 128 -384C103 -380 104 -365 143 -359C160 -355 191 -359 224 -364V-195C154 -162 107 -144 78 -141C44 -138 38 -123 75 -94C110 -68 124 -68 139 -84C154 -98 271 -178 355 -224C390 -242 397 -257 391 -264C385 -271 366 -265 269 -217V-373C303 -380 335 -390 354 -401C382 -417 378 -432 352 -438C338 -441 309 -438 270 -425C271 -473 276 -518 282 -534C290 -555 287 -575 248 -591Z"/>
</svg>