<svg xmlns="http://www.w3.org/2000/svg" viewBox="0 -1000 1000 1000">
	<path fill="#000000" d="M803 -694C847 -699 846 -719 800 -732C777 -738 759 -736 727 -726C647 -704 507 -683 428 -678C404 -676 404 -664 425 -656C443 -648 480 -647 511 -652C557 -660 694 -681 803 -694ZM665 -757C665 -786 653 -800 599 -807C574 -810 565 -806 579 -786C590 -773 614 -746 632 -731C649 -717 665 -728 665 -757ZM459 -575C480 -577 508 -581 530 -586C538 -587 544 -582 543 -575C538 -552 535 -544 527 -541C514 -536 490 -528 472 -524C468 -539 463 -558 459 -575ZM476 -503C507 -509 548 -517 566 -522C581 -526 582 -534 576 -540C573 -543 576 -551 582 -561C592 -575 597 -583 602 -589C611 -596 611 -605 577 -617C553 -626 543 -625 533 -620C516 -609 479 -600 445 -594C398 -611 389 -598 404 -581C417 -568 432 -539 446 -507C451 -500 465 -484 470 -486C474 -488 476 -496 476 -503ZM566 -422C594 -427 624 -432 654 -437L649 -396C625 -392 595 -386 563 -380ZM558 -303L561 -349C582 -353 613 -359 645 -364L639 -315C612 -310 584 -306 558 -303ZM679 -613C703 -618 714 -621 753 -631C764 -635 770 -633 769 -624C765 -591 761 -585 749 -580C736 -574 714 -569 694 -565C691 -583 685 -601 679 -613ZM678 -195C623 -232 591 -255 559 -276C646 -290 755 -303 822 -304C860 -305 865 -325 842 -334C819 -343 799 -345 769 -339C740 -333 709 -327 676 -321L683 -370C714 -375 744 -379 765 -382C797 -386 796 -401 771 -412C760 -417 747 -417 688 -404L695 -443C729 -448 761 -452 783 -454C812 -457 808 -472 784 -486C777 -490 760 -491 700 -478C701 -490 704 -501 706 -507C710 -519 708 -526 688 -534C692 -536 694 -539 695 -543C729 -545 769 -552 804 -559C813 -561 816 -567 812 -572C809 -575 809 -586 811 -590C817 -602 827 -618 840 -626C852 -635 851 -644 809 -660C784 -671 773 -668 764 -662C747 -652 702 -637 661 -629C622 -643 614 -628 629 -612C644 -595 650 -582 670 -541C648 -547 641 -537 649 -522C657 -510 660 -486 658 -469C633 -464 601 -457 568 -452C570 -463 571 -474 572 -480C574 -491 568 -499 538 -506C514 -511 507 -506 515 -492C520 -485 525 -467 526 -446C497 -442 469 -438 445 -436C422 -433 421 -420 447 -412C464 -407 473 -407 526 -416L525 -375C501 -371 480 -368 464 -366C431 -362 436 -352 457 -344C476 -336 486 -337 524 -343L523 -298C474 -292 430 -287 401 -285C375 -284 372 -280 398 -262C416 -248 422 -251 526 -271C515 -250 495 -224 466 -195C416 -145 333 -90 294 -71C275 -63 281 -47 304 -55C361 -71 437 -114 501 -167C499 -65 493 -45 478 -36C461 -21 462 -9 476 17C493 45 507 48 516 31C529 8 548 -15 649 -108C660 -119 665 -126 662 -129C660 -132 650 -134 635 -124C619 -112 568 -78 542 -61C543 -98 546 -125 550 -156C551 -170 547 -177 529 -193C540 -204 558 -224 567 -236C664 -158 705 -124 773 -63C812 -28 827 -23 966 -53C991 -58 990 -74 969 -78C838 -103 777 -128 694 -184C720 -200 745 -213 753 -216C774 -225 788 -231 808 -241C831 -252 831 -263 796 -280C765 -295 756 -293 752 -276C748 -261 722 -232 678 -195ZM245 -603C290 -612 333 -624 358 -634C388 -645 384 -663 351 -672C329 -677 303 -674 259 -657C212 -640 164 -628 134 -625C98 -621 102 -610 129 -601C153 -592 179 -590 209 -595C221 -575 224 -526 224 -427C182 -411 154 -402 128 -398C107 -394 111 -382 143 -375C158 -372 191 -374 224 -380V-210C153 -174 107 -157 75 -155C42 -153 35 -136 72 -108C104 -83 119 -83 134 -98C149 -112 252 -181 348 -234C376 -249 385 -263 378 -270C370 -279 357 -277 265 -231V-389C298 -398 329 -409 348 -419C374 -435 369 -449 345 -454C332 -457 304 -454 265 -442C267 -502 270 -533 278 -545C288 -562 284 -585 245 -603Z"/>
</svg>