<svg xmlns="http://www.w3.org/2000/svg" viewBox="0 -1000 1000 1000">
	<path fill="#000000" d="M670 -420C669 -405 650 -377 597 -330C584 -318 590 -313 611 -320C622 -324 642 -335 658 -346C682 -365 707 -382 720 -387C730 -390 732 -397 690 -428C680 -435 670 -431 670 -420ZM746 -400C771 -373 798 -346 825 -322C838 -312 851 -315 852 -331C854 -366 840 -389 751 -413C735 -417 734 -412 746 -400ZM670 -442C698 -449 731 -453 760 -453C767 -453 773 -450 774 -446C777 -419 791 -415 806 -436C821 -456 823 -468 824 -514C828 -654 831 -673 842 -688C857 -709 855 -718 822 -734C789 -751 782 -751 769 -745C745 -732 706 -722 673 -715C636 -730 630 -720 642 -697C648 -685 654 -560 650 -513C648 -484 648 -466 650 -448C651 -435 661 -433 670 -442ZM691 -639C692 -660 691 -678 690 -692C711 -698 735 -703 753 -706C770 -708 780 -706 783 -684C787 -651 785 -578 779 -493C778 -482 776 -479 767 -480C756 -482 717 -478 683 -474C682 -490 683 -514 684 -539C713 -532 737 -532 760 -541C771 -546 769 -558 761 -561C745 -569 725 -568 685 -558C686 -578 687 -599 688 -616C716 -612 738 -613 757 -621C769 -625 769 -642 752 -647C744 -650 722 -648 691 -639ZM685 -230C676 -200 657 -163 630 -128C596 -140 561 -150 531 -158C515 -161 514 -166 521 -176C530 -191 539 -205 546 -216C600 -223 653 -228 685 -230ZM745 -269C740 -275 730 -282 717 -287C691 -300 688 -297 692 -264C647 -259 606 -255 571 -250C578 -260 584 -266 589 -269C600 -277 599 -291 570 -309C545 -325 525 -318 529 -305C534 -289 532 -271 521 -245C413 -235 382 -232 363 -232C335 -232 333 -226 354 -210C376 -194 395 -190 431 -200C440 -203 468 -207 502 -211C494 -198 485 -186 474 -173C463 -160 466 -148 485 -143C524 -132 566 -116 603 -97C553 -52 472 -20 384 -3C360 1 358 18 384 17C495 14 589 -25 643 -74C715 -32 757 -6 796 26C833 57 855 52 843 5C839 -12 802 -53 772 -67C745 -80 711 -96 675 -110C706 -155 731 -198 745 -233C802 -234 852 -232 881 -228C956 -217 971 -240 942 -262C911 -285 876 -290 842 -282C819 -277 784 -273 745 -269ZM512 -386C521 -368 530 -351 546 -332C556 -320 566 -326 571 -340C580 -369 565 -386 520 -402C511 -405 507 -397 512 -386ZM450 -428C478 -428 516 -430 531 -433C540 -434 546 -429 548 -418C550 -406 570 -403 575 -416C583 -438 590 -491 588 -537C583 -617 584 -657 598 -674C613 -692 610 -703 576 -718C553 -729 547 -728 533 -721C513 -711 479 -702 440 -694C403 -707 390 -696 407 -679C415 -672 426 -562 419 -455C418 -435 420 -420 427 -414C433 -408 444 -412 450 -428ZM456 -619C456 -636 455 -653 455 -671C477 -677 501 -682 522 -686C536 -689 542 -685 544 -665C548 -629 550 -526 545 -478C543 -461 540 -456 531 -458C528 -459 487 -454 454 -450C455 -469 456 -488 457 -510C475 -509 496 -511 519 -518C532 -522 530 -535 515 -543C503 -549 482 -546 457 -539C457 -555 457 -574 457 -593C482 -589 507 -591 521 -598C531 -602 535 -615 520 -624C504 -634 486 -633 456 -619ZM244 -606C287 -614 325 -626 349 -635C374 -644 372 -667 355 -671C326 -677 307 -676 279 -664C251 -653 158 -630 144 -628C98 -622 98 -616 120 -608C144 -599 170 -595 202 -599C211 -575 216 -530 215 -433C185 -423 146 -413 128 -409C100 -403 99 -396 135 -385C147 -382 173 -382 215 -388L213 -221C151 -188 103 -169 79 -165C40 -158 40 -149 77 -122C110 -98 127 -100 138 -112C155 -131 232 -188 326 -248C351 -264 365 -278 363 -282C366 -282 370 -283 374 -284C401 -294 426 -309 462 -342C477 -356 482 -362 488 -364C496 -367 494 -381 467 -404C459 -411 451 -409 447 -397C441 -375 424 -344 364 -298C358 -293 355 -287 356 -285C345 -285 320 -278 257 -244L260 -397C297 -406 324 -416 338 -422C355 -431 354 -445 335 -455C322 -464 304 -464 261 -448C263 -521 265 -548 268 -559C274 -579 270 -590 244 -606Z"/>
</svg>