<svg xmlns="http://www.w3.org/2000/svg" viewBox="0 -1000 1000 1000">
	<path fill="#000000" d="M857 -262C860 -310 836 -334 748 -364C711 -377 708 -368 727 -345C739 -330 811 -251 817 -245C831 -231 855 -234 857 -262ZM594 -282C563 -317 531 -360 496 -415C449 -487 431 -499 385 -505C389 -537 391 -553 393 -559C402 -590 400 -595 357 -626C415 -653 464 -675 477 -679C518 -690 533 -704 480 -734C430 -763 424 -762 419 -735C415 -711 354 -656 284 -613C213 -637 201 -630 217 -601C235 -568 236 -497 229 -409C216 -242 173 -122 81 -35C47 -3 57 2 87 -16C212 -90 255 -203 275 -396C286 -507 290 -558 290 -594C306 -602 322 -609 337 -617C350 -585 353 -549 348 -425C340 -191 332 -156 317 -141C291 -115 289 -99 300 -61C311 -22 321 -23 340 -57C353 -81 419 -155 470 -193C480 -176 489 -161 496 -152C517 -125 538 -128 533 -185C531 -212 518 -248 460 -277C438 -288 424 -290 436 -262C442 -247 451 -229 459 -212C423 -188 388 -165 371 -154C373 -269 376 -363 378 -407C380 -443 382 -471 384 -492C419 -466 464 -405 507 -336C567 -239 617 -167 671 -116C716 -73 731 -67 936 -81C972 -83 964 -97 927 -107C783 -145 696 -177 612 -264C670 -308 705 -365 718 -453C748 -459 800 -468 823 -470C879 -476 888 -498 862 -509C847 -515 823 -514 791 -503C777 -498 751 -490 722 -484C725 -511 727 -539 728 -568C781 -578 800 -583 819 -590C848 -601 848 -619 827 -624C815 -627 801 -624 730 -601C733 -672 740 -707 745 -720C758 -757 756 -763 724 -776C671 -797 662 -789 683 -749C692 -730 696 -680 692 -590C658 -582 622 -578 605 -582C617 -598 632 -613 638 -618C658 -634 658 -641 631 -660C599 -683 591 -672 594 -642C595 -628 582 -598 533 -540C510 -512 514 -503 538 -518C557 -530 576 -547 591 -564C621 -555 639 -554 690 -562C688 -531 685 -502 681 -476C642 -468 600 -462 566 -458C520 -453 515 -444 543 -434C567 -425 625 -432 676 -444C670 -391 633 -326 594 -282Z"/>
</svg>