<svg xmlns="http://www.w3.org/2000/svg" viewBox="0 -1000 1000 1000">
	<path fill="#000000" d="M608 -331C628 -312 640 -301 664 -282C683 -267 701 -276 697 -306C692 -334 661 -348 611 -354C614 -377 617 -402 621 -431C644 -434 668 -439 715 -451C740 -457 747 -450 738 -408C727 -356 715 -198 720 -145C726 -93 738 -64 763 -51C818 -20 880 -8 936 -21C961 -26 968 -42 955 -81C950 -99 947 -141 948 -194C949 -221 936 -219 930 -197C902 -85 892 -68 815 -89C788 -96 761 -135 763 -193C769 -346 785 -424 804 -439C830 -458 833 -473 797 -496C766 -515 756 -515 725 -498C701 -484 648 -468 625 -464C628 -480 635 -512 638 -522C648 -554 645 -576 609 -602C651 -609 732 -625 835 -650C894 -664 899 -679 881 -690C844 -714 827 -713 757 -687C665 -652 576 -629 516 -619C494 -615 492 -604 521 -595C533 -592 544 -591 576 -595C592 -558 592 -512 570 -359C541 -159 536 -137 509 -122C485 -107 482 -91 496 -62C511 -29 522 -29 539 -45C585 -88 623 -115 700 -159C715 -167 710 -178 695 -173C672 -166 625 -149 578 -131C591 -203 599 -256 608 -331ZM390 -734C384 -777 358 -784 285 -788C265 -789 262 -778 274 -764C303 -733 328 -716 358 -698C376 -687 395 -703 390 -734ZM229 -488C235 -522 239 -554 241 -583C261 -583 282 -586 342 -600C376 -607 381 -605 378 -585C372 -532 371 -523 335 -510C300 -497 263 -489 229 -488ZM326 -344C331 -329 333 -307 332 -272C316 -265 301 -259 285 -253C285 -279 285 -289 288 -298C293 -313 292 -324 279 -334C297 -339 313 -342 326 -344ZM209 -211C225 -212 240 -213 251 -215C250 -181 251 -164 255 -144C259 -126 268 -126 276 -147C284 -167 287 -196 286 -226C300 -231 318 -236 331 -240C329 -214 326 -166 324 -131C322 -92 334 -90 351 -124C361 -145 367 -197 367 -248C375 -250 384 -252 392 -253C431 -260 440 -274 411 -284C403 -287 389 -289 369 -284C371 -297 373 -308 375 -315C379 -330 376 -340 364 -352C378 -354 386 -355 394 -355C421 -356 434 -349 436 -327C440 -281 439 -216 432 -167C426 -124 415 -109 374 -122C354 -128 348 -120 365 -101C385 -80 400 -61 405 -51C413 -35 422 -31 438 -51C471 -90 481 -113 481 -180C481 -306 482 -318 493 -336C506 -359 501 -370 456 -393C425 -408 418 -409 381 -394C352 -382 265 -359 189 -343C203 -383 215 -424 224 -465C247 -458 258 -456 266 -458C308 -467 350 -476 412 -489C434 -493 439 -508 422 -516C413 -520 411 -525 417 -538C430 -569 441 -586 456 -598C475 -613 475 -624 437 -646C409 -661 399 -663 376 -650C339 -628 283 -613 237 -614C182 -650 170 -635 184 -606C195 -581 183 -449 153 -364C106 -226 73 -159 25 -100C13 -85 22 -75 43 -91C86 -123 131 -194 176 -309C180 -270 173 -205 161 -133C158 -115 164 -97 173 -78C182 -62 206 -67 207 -111C209 -146 209 -187 209 -211ZM210 -318C223 -321 235 -325 247 -327C251 -313 252 -299 251 -243C237 -240 223 -237 210 -235C212 -262 212 -290 210 -318Z"/>
</svg>