<svg xmlns="http://www.w3.org/2000/svg" viewBox="0 -1000 1000 1000">
	<path fill="#000000" d="M445 -747C457 -754 461 -771 445 -781C385 -819 379 -810 377 -789C374 -755 365 -732 311 -647C291 -617 298 -609 320 -632C411 -721 430 -738 445 -747ZM236 -649C244 -683 226 -704 181 -724C163 -732 158 -726 163 -710C172 -683 187 -646 199 -631C216 -609 228 -617 236 -649ZM496 -554C516 -575 516 -582 464 -613C431 -634 422 -634 386 -618C348 -602 202 -566 115 -556C75 -566 66 -561 82 -541C95 -527 106 -489 131 -380C139 -348 147 -339 156 -339C160 -339 163 -344 164 -352C202 -360 283 -376 346 -384C392 -390 400 -388 405 -377C415 -353 424 -352 438 -374C454 -401 458 -416 468 -481C474 -514 484 -542 496 -554ZM960 -73C956 -90 952 -146 953 -189C954 -217 941 -216 938 -192C934 -158 927 -128 920 -107C905 -61 885 -51 815 -69C760 -84 736 -146 736 -203C739 -329 750 -434 774 -450C805 -470 807 -490 768 -510C736 -528 729 -527 698 -506C682 -497 660 -485 635 -477C615 -471 605 -470 590 -470C593 -493 596 -511 600 -525C611 -567 610 -587 568 -613C583 -616 601 -620 621 -627C711 -651 749 -660 790 -670C846 -686 848 -696 832 -706C795 -733 782 -731 714 -705C609 -664 561 -647 502 -633C478 -628 476 -620 506 -611C515 -608 527 -607 545 -610C556 -582 558 -470 544 -363C525 -186 516 -144 493 -126C465 -104 465 -101 481 -63C495 -31 506 -32 523 -48C560 -84 618 -131 673 -166C692 -178 689 -187 667 -180C651 -173 597 -151 554 -131C561 -197 571 -276 578 -344C603 -319 632 -296 641 -289C659 -274 675 -283 671 -312C665 -344 630 -356 578 -360C583 -397 586 -424 587 -446C612 -449 633 -452 690 -470C713 -477 720 -470 712 -427C704 -374 696 -210 702 -153C707 -108 734 -57 776 -35C832 -9 897 2 946 -9C969 -13 974 -27 960 -73ZM436 -268C445 -281 443 -291 406 -310C376 -327 367 -327 346 -317C312 -302 248 -284 194 -279C158 -296 148 -291 157 -271C174 -230 182 -176 177 -91C174 -34 182 -7 195 -7C204 -7 210 -18 213 -48C241 -53 276 -58 320 -63C341 -65 345 -63 351 -42C371 39 378 40 403 -5C418 -34 424 -76 422 -204C422 -237 425 -252 436 -268ZM435 -572C437 -536 431 -491 416 -427C414 -416 408 -409 398 -411C385 -414 371 -414 289 -399C291 -450 293 -497 296 -514C300 -537 296 -542 265 -563C322 -578 380 -590 395 -591C429 -594 434 -590 435 -572ZM267 -394C240 -388 206 -380 164 -372C150 -461 141 -510 132 -539C166 -542 211 -550 247 -558C258 -530 262 -506 267 -394ZM373 -101C369 -65 361 -66 346 -79C329 -94 319 -94 291 -89C272 -84 254 -80 215 -74C217 -114 218 -143 217 -166C244 -157 287 -159 318 -175C336 -184 340 -196 317 -201C297 -206 267 -199 217 -176C217 -215 213 -237 206 -258C257 -270 312 -279 336 -281C360 -283 368 -275 371 -250C375 -208 378 -149 373 -101ZM385 -522C364 -541 350 -538 347 -525C344 -511 338 -499 325 -480C314 -462 316 -454 332 -464C358 -480 367 -487 379 -492C400 -501 402 -507 385 -522ZM222 -451C219 -473 212 -482 192 -488C176 -493 172 -487 181 -465C186 -453 192 -445 202 -436C213 -427 225 -433 222 -451Z"/>
</svg>