<svg xmlns="http://www.w3.org/2000/svg" viewBox="0 -1000 1000 1000">
	<path fill="#000000" d="M688 -760C684 -781 669 -798 625 -800C599 -802 596 -796 609 -782C626 -764 644 -749 658 -739C677 -727 693 -731 688 -760ZM606 -597C604 -611 592 -618 559 -628C542 -632 539 -628 547 -615C555 -603 567 -589 577 -580C596 -562 608 -578 606 -597ZM863 -590C834 -601 822 -599 770 -585C741 -578 705 -570 666 -561C696 -599 722 -630 741 -646C750 -654 749 -663 713 -684C739 -691 767 -700 793 -709C814 -717 813 -732 790 -738C781 -740 769 -739 645 -704C613 -695 551 -681 531 -680C505 -677 506 -665 535 -662C564 -658 622 -664 688 -679C693 -651 678 -617 648 -558C592 -546 541 -536 494 -529C452 -523 460 -516 476 -512C494 -506 514 -507 554 -515C575 -519 594 -524 612 -528C614 -510 614 -498 613 -466C580 -460 541 -453 509 -446C486 -441 483 -435 506 -428C527 -422 561 -428 615 -440C617 -398 618 -385 619 -378C622 -356 634 -356 644 -379C651 -394 654 -417 655 -450C692 -457 756 -462 788 -463C839 -464 826 -486 801 -494C781 -501 762 -500 655 -476C657 -503 657 -519 654 -536C733 -550 792 -556 847 -558C896 -560 893 -579 863 -590ZM474 -683C491 -692 484 -704 446 -721C416 -734 406 -734 389 -725C365 -711 322 -695 262 -689C210 -720 203 -707 212 -689C220 -673 231 -615 201 -527C174 -446 124 -364 62 -291C46 -272 49 -267 73 -283C128 -321 188 -396 229 -486C239 -440 247 -392 250 -358C251 -345 263 -330 272 -330C282 -330 286 -346 284 -368C329 -373 387 -387 423 -397C435 -400 433 -409 423 -415C414 -419 411 -426 413 -433C418 -451 433 -472 447 -483C463 -494 456 -512 418 -527C391 -537 384 -536 363 -527C331 -512 295 -500 246 -497L236 -502C246 -526 250 -537 256 -563C315 -567 361 -577 431 -596C440 -598 440 -610 435 -614C426 -621 423 -635 428 -643C440 -662 451 -671 474 -683ZM913 -4C903 -24 896 -57 892 -105C891 -120 880 -121 877 -106C871 -75 856 -37 845 -23C830 -4 794 12 728 9C612 4 596 -7 591 -49C585 -96 600 -179 626 -198C651 -217 652 -222 618 -239C583 -258 574 -259 558 -248C543 -239 494 -218 448 -209C424 -203 406 -201 384 -205C386 -215 388 -226 392 -232C400 -247 403 -274 380 -284C499 -304 614 -322 646 -325C703 -330 701 -349 675 -356C651 -365 642 -364 590 -351C480 -325 402 -309 304 -299C276 -295 276 -289 300 -281C317 -277 329 -277 348 -278C354 -256 347 -206 332 -135C319 -71 302 -35 268 -22C245 -12 244 0 249 21C256 48 263 50 289 36C329 14 368 0 489 -40C525 -52 512 -61 481 -56C440 -49 408 -43 366 -34C341 -29 339 -31 343 -45C356 -87 369 -139 378 -184C409 -179 432 -182 465 -189C485 -192 528 -202 543 -212C564 -225 575 -217 569 -189C553 -116 551 -59 557 -19C562 16 580 34 631 44C717 61 781 62 872 46C922 37 927 25 913 -4ZM494 -118C487 -138 456 -144 428 -143C408 -143 406 -137 420 -125C431 -116 450 -103 465 -96C484 -88 502 -95 494 -118ZM395 -676C388 -633 383 -613 374 -610C350 -602 299 -591 259 -586C268 -630 270 -647 270 -670C305 -675 338 -681 365 -687C389 -693 397 -688 395 -676ZM380 -486C380 -438 363 -413 355 -409C336 -399 312 -392 283 -388C282 -422 278 -456 271 -480C300 -487 323 -491 347 -496C372 -501 380 -495 380 -486Z"/>
</svg>