<svg xmlns="http://www.w3.org/2000/svg" viewBox="0 -1000 1000 1000">
	<path fill="#000000" d="M710 -433C680 -437 662 -433 538 -398C524 -394 521 -386 533 -382C565 -370 612 -368 701 -398C735 -409 733 -430 710 -433ZM564 -272C589 -278 617 -282 649 -286C660 -287 670 -282 669 -267C665 -202 659 -200 638 -194C625 -189 598 -183 576 -181C573 -222 569 -249 564 -272ZM577 -156C609 -158 653 -164 700 -171C722 -175 720 -194 701 -205C710 -239 717 -256 735 -276C749 -294 745 -304 708 -322C677 -338 671 -335 656 -326C625 -307 582 -297 542 -294C503 -310 495 -297 505 -281C523 -255 530 -235 540 -164C544 -136 553 -123 561 -123C568 -123 576 -134 577 -156ZM469 -464C498 -466 540 -473 688 -503C756 -516 773 -507 778 -470C791 -375 798 -160 790 -88C787 -56 776 -51 709 -71C685 -78 676 -63 693 -52C733 -24 759 5 770 35C780 61 804 56 818 31C850 -24 854 -57 850 -108C846 -165 841 -258 839 -335C837 -431 839 -459 850 -475C868 -500 862 -518 810 -543C771 -561 756 -560 732 -550C678 -527 542 -500 457 -495C413 -520 398 -509 408 -489C418 -471 420 -444 418 -347C415 -225 404 -155 385 -108C372 -80 374 -59 389 -26C399 -1 420 0 428 -24C439 -56 446 -86 452 -135C458 -204 467 -376 469 -464ZM237 -465C241 -504 227 -531 179 -561C157 -575 148 -572 153 -547C162 -508 175 -470 189 -442C207 -406 231 -410 237 -465ZM622 -743C614 -775 591 -791 518 -794C488 -795 481 -792 498 -775C529 -742 567 -708 590 -697C619 -683 631 -705 622 -743ZM288 -335C265 -214 199 -95 122 -7C81 39 88 47 129 17C222 -51 279 -131 321 -269C347 -353 364 -499 364 -587C392 -585 425 -588 462 -594C588 -614 745 -636 803 -640C841 -643 847 -667 806 -682C779 -692 762 -690 706 -676C537 -634 417 -618 344 -617C290 -648 274 -635 292 -604C307 -579 309 -484 293 -367C146 -289 119 -281 76 -279C40 -277 38 -267 87 -228C112 -208 127 -207 144 -222C171 -247 219 -284 288 -335Z"/>
</svg>