<svg xmlns="http://www.w3.org/2000/svg" viewBox="0 -1000 1000 1000">
	<path fill="#000000" d="M510 -114C561 -121 648 -131 672 -134C701 -138 709 -132 702 -104C691 -60 683 -52 662 -45C643 -40 585 -33 506 -27C508 -51 509 -81 510 -114ZM500 -345C446 -375 436 -366 453 -334C478 -282 470 -97 457 -57C440 -8 464 57 484 57C493 57 504 33 505 -2C541 1 585 1 624 -3C646 -5 687 -7 733 -8C765 -9 770 -23 741 -44C738 -47 751 -77 764 -91C772 -100 783 -111 791 -116C809 -128 808 -137 763 -167C731 -189 719 -190 686 -176C668 -169 589 -152 511 -143C512 -166 512 -189 511 -212C533 -211 567 -215 681 -230C704 -233 705 -245 687 -261C679 -268 697 -299 728 -322C742 -334 742 -346 709 -365C672 -385 664 -386 640 -374C615 -362 546 -346 500 -345ZM511 -238C511 -266 510 -293 509 -316C574 -327 601 -330 627 -334C647 -337 652 -334 649 -317C641 -267 634 -260 625 -257C613 -252 555 -243 511 -238ZM433 -453C421 -484 411 -488 403 -465C391 -429 376 -398 367 -383C360 -374 356 -345 360 -334C372 -304 379 -303 400 -333C421 -363 432 -393 438 -429C454 -428 478 -430 543 -440C578 -445 598 -447 741 -465C769 -468 775 -461 745 -415C728 -389 738 -381 762 -394C809 -417 839 -429 855 -431C887 -435 892 -447 828 -496C796 -519 787 -520 733 -503C680 -486 545 -463 433 -453ZM219 -454C228 -496 223 -522 168 -559C141 -578 133 -572 139 -545C149 -508 161 -468 176 -433C188 -403 209 -408 219 -454ZM622 -532C622 -565 611 -574 554 -585C521 -591 515 -581 529 -565C555 -532 568 -518 587 -502C608 -482 622 -488 622 -532ZM350 -623C291 -671 270 -657 289 -616C299 -593 293 -463 274 -356C147 -286 111 -276 70 -275C43 -274 41 -261 73 -225C95 -199 118 -200 138 -218C165 -244 201 -273 267 -321C239 -202 180 -84 85 13C59 40 69 50 102 28C232 -63 281 -173 314 -308C329 -373 351 -520 354 -599C448 -598 657 -616 781 -643C816 -650 812 -674 772 -684C749 -689 729 -688 692 -679C629 -663 462 -635 350 -623ZM609 -736C598 -778 569 -798 494 -801C469 -802 464 -795 476 -781C499 -754 519 -738 569 -704C592 -688 618 -703 609 -736Z"/>
</svg>