<svg xmlns="http://www.w3.org/2000/svg" viewBox="0 -1000 1000 1000">
	<path fill="#000000" d="M390 -346C383 -352 368 -350 264 -302L270 -462C300 -471 328 -481 339 -486C374 -501 376 -509 339 -520C324 -524 301 -525 272 -517C275 -610 280 -657 286 -677C293 -701 290 -712 245 -733C173 -769 165 -745 193 -711C212 -689 225 -641 225 -502C189 -490 132 -473 117 -468C92 -460 94 -449 119 -439C140 -430 149 -429 225 -450L223 -285C127 -242 98 -233 77 -229C36 -224 34 -218 74 -182C102 -156 118 -153 142 -174C174 -201 219 -230 359 -314C387 -331 394 -343 390 -346ZM905 -567C881 -587 850 -605 819 -618C799 -626 790 -627 768 -619C747 -612 707 -603 644 -591C647 -689 654 -761 659 -775C669 -804 664 -813 623 -829C559 -856 534 -843 567 -804C584 -784 589 -755 592 -582C546 -575 493 -566 430 -557C369 -580 352 -562 387 -529C410 -507 421 -439 439 -295C443 -260 459 -234 471 -234C477 -234 481 -239 483 -257C512 -261 559 -267 594 -272C592 -183 590 -88 589 -72C586 -15 588 58 594 86C601 116 613 116 624 88C634 62 637 47 639 -17C641 -78 642 -188 643 -279C679 -284 715 -286 733 -285C747 -284 750 -281 752 -269C753 -260 762 -252 768 -252C775 -252 785 -262 792 -276C811 -314 823 -349 836 -406C854 -483 872 -517 894 -533C913 -547 918 -556 905 -567ZM792 -545C788 -471 777 -410 760 -340C754 -317 751 -316 742 -318C722 -322 701 -321 643 -313C643 -362 643 -402 643 -421C678 -429 700 -436 715 -442C737 -450 741 -470 722 -477C704 -483 695 -486 643 -470C643 -501 643 -531 643 -560C684 -566 736 -572 754 -572C785 -572 793 -561 792 -545ZM596 -412C596 -390 595 -350 595 -304C554 -296 516 -291 482 -287C477 -349 465 -464 456 -530C485 -531 520 -537 593 -551C594 -523 594 -492 595 -457C571 -452 539 -446 517 -442C501 -439 501 -429 511 -421C522 -412 555 -407 596 -412Z"/>
</svg>