<svg xmlns="http://www.w3.org/2000/svg" viewBox="0 -1000 1000 1000">
	<path fill="#000000" d="M188 -270C214 -273 255 -278 328 -289C363 -294 369 -289 370 -255C374 -180 372 -152 367 -103C363 -54 353 -55 337 -73C323 -91 320 -92 201 -66C201 -103 200 -133 199 -158C229 -158 261 -162 307 -174C332 -179 337 -199 315 -207C303 -210 282 -207 263 -202C237 -194 216 -189 198 -186C196 -230 193 -252 188 -270ZM202 -297C190 -295 177 -293 162 -291C154 -293 144 -295 131 -297C119 -299 113 -287 123 -273C146 -245 157 -190 160 -57C161 -11 169 10 180 10C187 10 198 -5 200 -37C252 -44 276 -46 309 -46C334 -46 341 -40 351 -1C355 15 363 27 369 27C382 27 400 8 411 -31C422 -61 427 -92 427 -175C427 -242 432 -258 442 -270C460 -291 458 -299 422 -321C389 -341 373 -342 347 -332C328 -324 291 -314 235 -303C262 -336 291 -365 318 -385C331 -396 325 -407 291 -417C250 -431 237 -418 246 -397C250 -386 238 -350 202 -297ZM573 -304C601 -307 646 -313 728 -325C766 -330 772 -325 774 -287C778 -204 778 -168 774 -119C771 -80 768 -77 749 -88C726 -101 693 -100 590 -79C589 -123 588 -158 585 -186C614 -183 650 -187 717 -202C745 -209 750 -227 726 -235C713 -239 690 -236 668 -229C630 -218 604 -212 584 -209C581 -257 579 -272 573 -304ZM592 -333C578 -331 566 -329 551 -327C542 -330 529 -332 513 -334C500 -336 493 -324 505 -308C530 -277 542 -210 546 -67C547 -17 556 7 568 7C576 7 590 -11 591 -51C630 -56 683 -61 710 -62C734 -63 740 -58 755 2C764 34 771 40 776 40C789 40 810 12 823 -31C835 -64 840 -106 840 -199C840 -273 843 -292 854 -307C871 -327 870 -334 824 -360C790 -380 777 -384 748 -373C716 -361 676 -349 625 -339C658 -378 692 -409 716 -424C734 -436 733 -456 695 -468C648 -483 638 -468 646 -444C650 -435 637 -398 592 -333ZM317 -614C340 -616 372 -620 496 -641C591 -657 605 -650 600 -624C587 -552 576 -513 556 -470C535 -472 501 -469 360 -446C356 -475 350 -502 343 -527C378 -520 405 -523 507 -544C539 -550 542 -562 533 -571C521 -581 485 -583 463 -576C398 -555 364 -547 339 -544C332 -569 325 -592 317 -614ZM329 -640C320 -639 312 -637 303 -636C295 -640 280 -642 252 -644C228 -646 227 -635 239 -621C262 -596 295 -535 320 -448C327 -421 339 -406 348 -406C355 -406 361 -409 362 -418C536 -442 543 -442 551 -433C565 -418 582 -419 600 -445C614 -467 628 -490 644 -535C657 -569 677 -608 688 -616C718 -639 718 -657 665 -683C612 -708 595 -707 577 -695C561 -684 460 -662 368 -646C433 -708 490 -757 501 -764C526 -779 526 -792 474 -816C428 -835 420 -827 425 -804C430 -780 401 -722 329 -640Z"/>
</svg>