<svg xmlns="http://www.w3.org/2000/svg" viewBox="0 -1000 1000 1000">
	<path fill="#000000" d="M415 -312C410 -317 405 -316 286 -269L290 -431C319 -440 349 -450 370 -458C413 -476 411 -500 364 -503C347 -504 328 -500 291 -488C294 -583 302 -640 309 -658C320 -686 316 -702 265 -723C204 -749 190 -725 210 -703C232 -678 244 -601 245 -473C205 -461 161 -450 133 -445C109 -441 108 -428 133 -419C156 -411 180 -411 245 -422L244 -253C194 -235 122 -212 97 -209C62 -205 58 -200 96 -163C129 -130 144 -130 165 -151C178 -164 221 -190 383 -284C415 -303 420 -307 415 -312ZM980 -135C1005 -141 1003 -155 978 -159C822 -185 761 -206 636 -301C726 -361 773 -389 788 -396C812 -406 816 -420 773 -449C732 -475 716 -464 718 -446C720 -422 700 -389 619 -314C571 -352 525 -383 500 -394V-410C518 -412 537 -416 567 -423C579 -426 611 -428 620 -425C638 -419 649 -422 661 -441C676 -465 688 -496 694 -524C704 -570 716 -607 727 -629C736 -648 750 -671 762 -681C776 -694 773 -705 754 -718C732 -734 708 -749 685 -758C673 -763 656 -763 637 -749C607 -726 522 -689 466 -681C418 -696 413 -681 429 -658C448 -630 456 -593 459 -552C466 -464 467 -299 458 -190C452 -127 444 -98 434 -82C413 -48 414 -33 425 0C443 50 457 48 477 23C513 -22 587 -97 636 -147C654 -165 651 -175 628 -163C598 -147 530 -104 494 -82C499 -176 500 -262 500 -373C535 -347 584 -304 615 -271C659 -224 702 -180 746 -137C782 -102 809 -96 980 -135ZM655 -681C655 -647 650 -609 643 -571C637 -538 628 -493 617 -466C611 -452 603 -451 595 -455C585 -460 576 -458 500 -435C500 -468 501 -513 501 -545C533 -540 573 -548 597 -561C623 -575 615 -590 589 -593C574 -595 559 -592 501 -566C502 -612 500 -639 496 -659C515 -663 533 -670 550 -677C577 -688 614 -698 633 -700C650 -702 655 -694 655 -681Z"/>
</svg>