<svg xmlns="http://www.w3.org/2000/svg" viewBox="0 -1000 1000 1000">
	<path fill="#000000" d="M610 -364C627 -329 633 -273 630 -183C628 -116 626 -98 619 -70C614 -46 607 -43 528 -62C503 -67 498 -59 516 -45C577 0 593 17 601 41C608 62 625 64 642 45C674 10 685 -20 683 -100C680 -208 681 -269 687 -292C697 -330 691 -345 649 -369C724 -377 810 -381 858 -379C914 -377 919 -398 886 -421C859 -441 838 -443 790 -431C707 -408 556 -383 438 -377C409 -376 408 -367 419 -359C446 -336 461 -333 488 -340C527 -350 562 -358 610 -364ZM492 -584C478 -624 464 -625 458 -595C451 -564 444 -550 426 -519C418 -506 417 -485 422 -468C431 -436 445 -433 461 -456C478 -483 494 -532 495 -561C522 -555 540 -557 610 -572C626 -575 669 -582 751 -593C795 -600 796 -596 764 -530C748 -498 754 -492 783 -511C830 -541 850 -548 873 -552C913 -559 916 -579 868 -615C817 -653 798 -655 769 -639C745 -626 555 -587 492 -584ZM693 -695C692 -733 664 -753 598 -762C570 -766 565 -757 583 -736C623 -689 632 -680 650 -667C676 -648 694 -659 693 -695ZM172 -639C128 -658 115 -641 135 -608C145 -592 150 -561 152 -507C158 -366 150 -240 144 -213C135 -180 134 -142 151 -96C158 -74 171 -75 180 -100C183 -112 188 -141 189 -162C220 -159 262 -162 308 -170C302 -127 304 -116 315 -94C325 -67 336 -68 351 -100C363 -129 368 -157 367 -234C365 -512 374 -585 389 -605C405 -626 404 -637 359 -664C332 -681 321 -682 299 -668C269 -648 223 -639 172 -639ZM192 -468C192 -514 191 -547 189 -613C212 -613 240 -617 272 -625C307 -634 321 -624 322 -580C325 -452 322 -282 313 -200C282 -204 254 -202 191 -188C192 -213 193 -289 193 -319C227 -311 262 -313 283 -322C301 -330 304 -340 287 -351C272 -361 246 -360 193 -338C193 -375 193 -415 192 -452C218 -443 253 -442 283 -452C306 -461 309 -472 290 -482C274 -489 245 -487 192 -468Z"/>
</svg>