<svg xmlns="http://www.w3.org/2000/svg" viewBox="0 -1000 1000 1000">
	<path fill="#000000" d="M782 -664C784 -707 755 -728 690 -730C672 -731 668 -723 680 -708C704 -679 737 -650 751 -644C767 -636 781 -643 782 -664ZM429 -685C410 -700 370 -698 340 -688C230 -652 184 -638 157 -631C130 -624 131 -619 152 -610C175 -601 202 -600 250 -608C254 -564 238 -501 197 -416C159 -432 156 -423 175 -393C177 -390 178 -387 180 -382C136 -299 85 -228 25 -158C9 -140 14 -127 35 -142C98 -187 152 -255 192 -319C197 -281 200 -234 201 -188C202 -123 226 -115 235 -141C239 -152 243 -194 241 -228C288 -231 350 -240 393 -251C413 -256 414 -267 402 -273C376 -286 375 -291 383 -315C397 -354 410 -378 421 -388C431 -397 429 -411 392 -432C365 -448 352 -450 337 -442C297 -421 266 -411 239 -409C270 -475 301 -541 314 -565C322 -579 319 -589 283 -615C323 -623 365 -636 406 -652C431 -662 440 -676 429 -685ZM939 -195C914 -218 886 -222 851 -215C808 -207 772 -199 739 -193L741 -301C813 -313 837 -318 850 -324C862 -330 862 -340 845 -349C827 -358 808 -356 786 -350C775 -347 759 -343 742 -338C743 -373 744 -405 745 -419C776 -425 808 -432 826 -434C858 -439 860 -456 842 -465C828 -472 809 -470 776 -461C768 -459 758 -457 746 -454C747 -469 748 -483 750 -494C754 -513 752 -527 733 -540C776 -546 818 -556 847 -568C881 -582 880 -591 862 -602C853 -607 830 -606 786 -594C692 -568 641 -558 595 -553C568 -550 565 -542 596 -533C613 -528 641 -527 691 -533C700 -512 704 -489 703 -444C667 -437 629 -430 615 -428C587 -425 588 -416 608 -411C631 -405 667 -405 703 -410L701 -329C665 -321 628 -314 606 -311C588 -309 588 -300 603 -294C619 -288 652 -288 700 -295L697 -186C617 -172 574 -166 551 -168C552 -296 553 -435 555 -483C557 -532 555 -544 527 -569C546 -594 565 -620 581 -647C611 -698 623 -717 637 -733C645 -742 648 -756 641 -764C629 -777 611 -790 590 -802C572 -813 564 -805 566 -791C569 -772 565 -745 551 -702C529 -633 471 -546 398 -470C385 -456 388 -445 409 -457C440 -474 473 -506 506 -544C521 -443 510 -142 493 -71C483 -26 488 16 497 36C514 71 520 71 535 41C543 25 551 -41 551 -105C551 -119 551 -133 551 -148C582 -140 604 -139 627 -143C749 -166 817 -170 887 -162C949 -155 962 -174 939 -195ZM344 -337C340 -284 336 -274 311 -266C297 -261 271 -255 240 -250C237 -296 236 -338 234 -380C293 -398 311 -400 326 -400C346 -400 349 -396 344 -337Z"/>
</svg>