<svg xmlns="http://www.w3.org/2000/svg" viewBox="0 -1000 1000 1000">
	<path fill="#000000" d="M636 -194C654 -208 652 -217 616 -237C590 -251 579 -247 580 -226C581 -205 560 -149 531 -114C507 -87 512 -78 537 -94C564 -111 589 -136 606 -161C614 -174 627 -187 636 -194ZM805 -171C800 -198 781 -215 727 -234C684 -248 681 -242 700 -216C722 -183 739 -163 767 -140C789 -122 813 -134 805 -171ZM568 -298V-370C600 -370 640 -376 659 -384C683 -395 675 -421 638 -413C621 -410 595 -404 568 -395V-455C596 -455 638 -463 659 -471C685 -481 673 -505 634 -501C618 -499 593 -492 568 -482C568 -510 568 -533 569 -551C629 -561 672 -569 704 -575L700 -314C658 -308 611 -303 568 -298ZM450 -246C467 -234 472 -217 473 -172C474 -90 470 -64 450 -49C438 -40 436 -32 454 -1C464 16 478 22 492 11C509 -1 554 -11 605 -18C681 -27 763 -31 827 -29C890 -27 893 -49 848 -74C819 -91 802 -91 735 -77C688 -68 584 -52 505 -40C510 -136 518 -187 525 -203C533 -223 529 -233 487 -252C606 -273 829 -296 901 -293C960 -290 967 -310 926 -333C901 -347 882 -349 844 -339C823 -334 788 -328 746 -320L755 -584C777 -587 794 -590 812 -592C869 -601 871 -623 831 -637C814 -642 793 -642 757 -634C760 -689 762 -708 772 -727C783 -751 780 -762 732 -787C688 -810 673 -792 690 -767C704 -746 707 -696 705 -620C663 -609 613 -598 570 -587C571 -613 573 -625 575 -634C582 -659 579 -673 545 -685C493 -705 482 -695 500 -668C513 -647 522 -612 524 -578C505 -575 490 -572 477 -571C436 -567 435 -553 464 -547C482 -543 501 -542 525 -544V-293C469 -286 425 -283 409 -283C376 -283 375 -271 395 -261C416 -249 429 -245 450 -246ZM221 -339C247 -342 271 -347 306 -358C323 -363 330 -360 328 -329C324 -269 314 -251 295 -245C261 -233 247 -230 225 -227C225 -258 223 -297 221 -339ZM246 -557C248 -517 223 -452 185 -383C158 -395 146 -382 164 -346C125 -282 80 -223 39 -190C15 -171 21 -159 47 -173C94 -200 145 -246 180 -294C185 -267 186 -233 186 -167C186 -119 200 -115 214 -137C219 -144 223 -164 225 -195C263 -202 302 -210 359 -225C382 -231 383 -243 363 -262C379 -317 387 -336 405 -351C422 -365 422 -372 385 -394C353 -412 341 -411 325 -400C303 -384 264 -373 225 -367C278 -458 300 -493 314 -502C331 -512 326 -531 275 -562C317 -571 339 -576 386 -586C432 -596 435 -623 412 -629C384 -638 364 -637 317 -623C195 -590 166 -584 132 -584C108 -584 107 -570 127 -562C157 -551 197 -550 246 -557Z"/>
</svg>