<svg xmlns="http://www.w3.org/2000/svg" viewBox="0 -1000 1000 1000">
	<path fill="#000000" d="M975 -145C1009 -151 1005 -163 970 -171C825 -202 726 -241 587 -364C639 -367 697 -368 755 -368C812 -368 816 -378 802 -394C779 -420 752 -424 607 -405L614 -658C753 -676 757 -692 729 -708C709 -719 677 -719 616 -706C618 -740 622 -771 625 -778C637 -807 623 -817 572 -832C524 -846 514 -836 541 -801C554 -784 559 -748 561 -692C530 -686 459 -675 391 -664C391 -681 391 -704 392 -712C397 -746 381 -756 325 -764C296 -768 292 -758 313 -735C326 -722 335 -695 341 -656C300 -649 266 -646 254 -645C221 -644 221 -634 250 -622C259 -619 317 -619 345 -622C347 -598 348 -571 348 -540L349 -372C271 -362 206 -354 196 -354C163 -354 160 -348 190 -328C205 -319 222 -317 263 -324C280 -328 303 -332 328 -337C326 -317 304 -280 271 -235C229 -179 148 -114 95 -83C67 -67 71 -52 100 -61C194 -92 278 -161 324 -223C353 -261 371 -287 383 -295C398 -306 398 -317 358 -342C452 -355 476 -357 550 -363C610 -296 710 -194 752 -160C804 -118 819 -119 975 -145ZM751 -44C724 -70 653 -79 595 -64C581 -61 543 -57 497 -51L500 -143C525 -147 549 -151 561 -154C580 -158 602 -166 610 -175C619 -186 618 -198 601 -202C582 -206 549 -203 503 -192C505 -215 508 -239 511 -245C522 -267 515 -276 477 -289C439 -303 431 -293 440 -274C450 -252 454 -223 454 -182C422 -176 390 -173 367 -170C345 -167 344 -158 367 -146C383 -136 407 -134 454 -138L451 -46C369 -37 275 -27 242 -27C218 -26 214 -17 229 -6C260 15 279 19 304 12C338 4 431 -9 495 -13C574 -18 629 -17 663 -11C762 6 777 -19 751 -44ZM562 -399C512 -392 452 -386 395 -378L394 -454C434 -451 469 -453 511 -467C537 -476 537 -486 509 -494C494 -498 471 -494 394 -469L392 -547C432 -542 458 -545 507 -557C533 -564 533 -582 498 -584C481 -586 460 -582 392 -561L391 -629C443 -638 515 -647 561 -651Z"/>
</svg>