<svg xmlns="http://www.w3.org/2000/svg" viewBox="0 -1000 1000 1000">
	<path fill="#000000" d="M473 -536C473 -604 471 -626 464 -649C514 -682 560 -708 568 -711C612 -726 610 -733 571 -758C527 -786 515 -780 514 -754C513 -732 492 -701 450 -660C403 -676 400 -654 417 -629C423 -620 427 -591 427 -493C427 -383 426 -296 424 -230C385 -215 369 -211 338 -208C313 -206 309 -200 329 -179C354 -153 359 -152 423 -190C420 -119 416 -79 410 -66C400 -39 399 -16 416 20C428 47 451 44 456 17C464 -26 466 -54 469 -212C485 -218 503 -227 526 -237C567 -256 591 -270 589 -275C585 -281 565 -281 530 -270C508 -263 490 -256 469 -247C469 -280 470 -334 471 -385C503 -380 519 -382 555 -400C581 -412 580 -429 547 -431C537 -432 519 -425 471 -405C472 -447 472 -482 473 -510C496 -508 511 -511 555 -524C578 -532 575 -551 543 -558C531 -561 515 -557 473 -536ZM669 -673C744 -691 750 -688 746 -659C740 -617 741 -562 744 -536C747 -507 756 -499 797 -492C822 -488 867 -493 886 -503C906 -512 904 -526 884 -541C875 -547 868 -548 823 -538C793 -531 783 -551 787 -613C790 -652 797 -671 809 -683C831 -707 830 -715 793 -732C765 -746 753 -745 735 -730C712 -713 690 -703 660 -695C605 -713 600 -698 614 -673C641 -624 632 -515 592 -459C573 -435 581 -425 601 -440C662 -485 676 -525 669 -673ZM746 -206C767 -238 782 -278 795 -326C801 -349 812 -377 827 -392C841 -406 839 -413 804 -435C771 -455 756 -455 731 -440C714 -430 674 -416 629 -411C600 -408 601 -399 627 -386C644 -378 658 -377 708 -394C737 -403 752 -402 750 -370C746 -315 737 -273 716 -238C697 -262 676 -289 653 -319C639 -339 631 -344 598 -344C579 -344 579 -333 593 -327C609 -319 652 -268 694 -206C661 -168 610 -137 534 -103C518 -96 520 -85 539 -88C622 -103 678 -129 718 -170C737 -144 761 -114 783 -88C816 -50 828 -41 961 -65C986 -69 985 -79 957 -88C863 -118 804 -149 746 -206ZM195 -381C219 -387 255 -395 266 -396C292 -397 298 -382 293 -320C289 -276 281 -274 257 -266C247 -263 226 -258 206 -253C202 -299 198 -345 195 -381ZM160 -313C167 -278 176 -231 182 -187C185 -168 190 -159 200 -159C209 -159 213 -172 209 -223C241 -226 274 -233 340 -248C365 -255 365 -266 350 -276C331 -289 329 -296 333 -313C342 -348 352 -372 370 -395C382 -408 379 -415 341 -434C306 -451 297 -450 276 -439C253 -427 227 -417 207 -413C249 -503 266 -534 272 -541C295 -567 295 -578 260 -607C298 -616 339 -627 365 -638C394 -649 403 -662 394 -672C379 -686 350 -683 306 -669C225 -644 178 -633 133 -624C111 -621 110 -618 133 -608C150 -600 182 -595 215 -599C218 -564 204 -514 161 -407C138 -411 133 -403 146 -369C110 -283 85 -241 39 -175C22 -152 28 -146 46 -161C92 -198 119 -232 160 -313Z"/>
</svg>