<svg xmlns="http://www.w3.org/2000/svg" viewBox="0 -1000 1000 1000">
	<path fill="#000000" d="M702 -224C726 -235 725 -246 692 -269C665 -287 651 -282 652 -264C652 -251 644 -231 624 -203C591 -159 558 -131 515 -102C501 -92 504 -81 521 -88C551 -98 607 -128 643 -167C687 -215 694 -219 702 -224ZM772 -520C731 -511 707 -507 684 -505C716 -559 726 -573 736 -580C755 -594 754 -604 718 -624C692 -640 674 -627 683 -614C696 -596 665 -508 642 -501C632 -498 629 -490 641 -469C651 -450 668 -449 685 -462C703 -474 737 -488 780 -500C787 -484 795 -472 802 -463C813 -445 833 -450 838 -473C845 -507 828 -536 774 -562C766 -567 757 -564 762 -550C765 -540 768 -530 772 -520ZM667 -352C631 -382 617 -375 619 -354C621 -340 610 -325 581 -287C550 -248 530 -228 472 -189C454 -176 459 -167 479 -174C535 -195 564 -212 640 -285C652 -297 667 -311 674 -315C692 -322 694 -330 667 -352ZM765 -194C729 -224 715 -217 713 -195C711 -175 701 -157 677 -128C616 -54 557 0 443 53C425 63 426 70 444 67C537 53 640 -11 735 -109C762 -137 770 -144 778 -147C800 -156 800 -165 765 -194ZM635 -440C639 -449 634 -457 621 -469C593 -491 579 -486 583 -462C584 -453 555 -398 537 -374C474 -294 415 -244 353 -201C333 -187 338 -179 358 -188C451 -226 531 -286 623 -419C701 -353 731 -329 772 -295C809 -264 816 -262 949 -279C983 -283 983 -298 950 -303C883 -313 809 -337 726 -383C695 -401 662 -421 635 -440ZM532 -482C503 -473 497 -471 448 -456C496 -519 505 -532 519 -543C540 -561 539 -567 499 -595C474 -613 461 -600 469 -583C475 -570 473 -554 458 -520C443 -488 424 -466 404 -456C396 -452 395 -448 411 -421C423 -403 429 -403 441 -411C476 -436 493 -442 546 -461C548 -457 550 -454 554 -450C562 -440 588 -456 578 -483C572 -504 555 -516 530 -522C513 -526 511 -523 519 -508C523 -499 528 -490 532 -482ZM709 -676C623 -656 588 -652 555 -651C604 -711 638 -740 668 -760C682 -771 680 -782 641 -808C606 -831 592 -819 599 -799C604 -786 600 -762 578 -726C548 -676 533 -661 512 -655C497 -650 493 -641 512 -614C531 -589 541 -588 556 -599C573 -613 582 -617 721 -658C728 -651 733 -646 739 -640C751 -627 768 -633 769 -651C771 -688 755 -709 702 -724C687 -728 681 -721 688 -710C697 -695 703 -685 709 -676ZM226 -382C249 -388 263 -392 295 -399C324 -405 326 -402 321 -350C315 -293 309 -283 287 -275C263 -267 244 -263 230 -262C228 -320 227 -339 226 -382ZM246 -595C248 -558 234 -503 194 -421C161 -428 155 -419 163 -402C166 -395 169 -387 171 -378C144 -329 109 -278 55 -226C29 -200 36 -188 67 -209C120 -246 154 -277 183 -319C188 -284 189 -270 189 -235C189 -194 195 -183 211 -174C227 -165 234 -170 232 -230C291 -237 315 -241 366 -252C388 -258 390 -271 376 -279C362 -289 357 -297 365 -327C372 -354 379 -368 396 -387C411 -406 409 -415 378 -434C347 -453 341 -453 322 -443C293 -428 262 -420 240 -421C273 -487 295 -524 306 -536C324 -553 322 -570 286 -604C329 -612 369 -621 402 -629C443 -640 443 -652 425 -663C401 -678 386 -678 333 -662C231 -633 184 -624 129 -621C108 -620 106 -608 128 -601C160 -591 196 -588 246 -595Z"/>
</svg>