<svg xmlns="http://www.w3.org/2000/svg" viewBox="0 -1000 1000 1000">
	<path fill="#000000" d="M409 -432C407 -392 403 -359 398 -331C394 -307 395 -298 409 -277C417 -267 431 -267 435 -287C440 -311 441 -326 441 -414C463 -399 488 -382 498 -377C518 -367 529 -377 524 -398C518 -422 494 -433 441 -432C442 -446 443 -461 443 -471C464 -474 488 -478 509 -482C535 -487 538 -503 525 -509C502 -518 488 -516 446 -505C447 -517 450 -531 452 -536C460 -552 458 -562 438 -575C471 -585 489 -591 507 -595C527 -600 529 -608 493 -636C471 -653 456 -649 454 -633C452 -616 426 -602 333 -568C319 -562 321 -551 336 -552C348 -553 366 -553 399 -562C405 -546 409 -526 410 -495C376 -487 335 -481 304 -479C283 -478 280 -466 309 -458C329 -454 347 -453 389 -462C363 -418 320 -372 264 -332C241 -315 247 -303 270 -314C335 -347 371 -377 409 -432ZM693 -491C745 -502 795 -513 806 -516C845 -527 845 -537 825 -546C805 -555 780 -554 694 -530C695 -538 696 -544 697 -551C700 -566 696 -575 668 -589C693 -599 729 -610 751 -614C779 -619 778 -624 734 -655C710 -672 701 -668 698 -654C695 -638 675 -625 581 -584C566 -578 566 -568 583 -569C605 -571 626 -575 642 -579C650 -559 656 -541 657 -519C595 -502 587 -501 566 -500C545 -499 545 -485 566 -478C583 -472 596 -473 637 -481C611 -435 555 -381 502 -344C481 -331 488 -321 514 -331C565 -349 619 -393 659 -452C658 -407 654 -390 651 -383C643 -363 644 -343 660 -315C670 -298 682 -303 686 -325C691 -348 693 -372 692 -400C691 -422 692 -441 692 -456C726 -422 762 -388 794 -360C820 -336 831 -333 926 -346C963 -352 960 -365 927 -373C829 -396 790 -415 693 -491ZM297 -687C202 -725 191 -713 211 -683C226 -659 227 -526 196 -370C161 -190 136 -118 60 -14C42 11 50 20 77 -2C161 -73 216 -192 248 -390C261 -472 271 -551 283 -661C318 -655 368 -655 426 -660C473 -664 672 -686 722 -693C797 -704 800 -710 775 -727C749 -746 709 -744 654 -733C491 -703 387 -691 297 -687ZM450 -28C448 -53 445 -86 442 -114C467 -115 503 -120 546 -127C605 -136 635 -138 646 -136C664 -132 669 -126 657 -78C651 -59 641 -55 619 -49C597 -42 529 -34 450 -28ZM447 -234C445 -215 433 -196 392 -149C340 -92 278 -45 230 -21C195 -2 202 15 241 1C300 -21 337 -44 393 -95C398 -77 402 -56 405 -30C417 51 428 53 446 35C452 30 453 18 452 1C545 -3 577 -6 685 -18C728 -22 730 -33 698 -63C714 -93 727 -109 741 -119C763 -133 763 -147 714 -171C681 -187 673 -188 648 -178C632 -172 556 -158 444 -143C476 -173 489 -183 496 -187C515 -195 519 -207 486 -237C557 -244 633 -252 664 -257C754 -269 755 -277 730 -291C702 -306 668 -305 598 -287C551 -276 394 -258 350 -258C301 -258 297 -245 336 -234C354 -229 376 -226 447 -234Z"/>
</svg>