<svg xmlns="http://www.w3.org/2000/svg" viewBox="0 -1000 1000 1000">
	<path fill="#000000" d="M797 -694C817 -711 813 -719 793 -735C783 -744 768 -755 750 -763C728 -773 722 -774 700 -763C661 -744 586 -725 533 -724C466 -743 463 -736 480 -699C492 -673 501 -612 506 -542C511 -477 526 -464 534 -464C541 -464 546 -468 548 -475C576 -480 623 -486 648 -489C654 -490 671 -488 675 -482C684 -469 701 -472 711 -490C726 -517 730 -527 752 -612C763 -650 778 -678 797 -694ZM378 -317C374 -320 361 -319 287 -285L292 -453C313 -458 337 -464 353 -470C398 -485 396 -501 359 -509C341 -513 333 -513 294 -502C299 -567 308 -648 314 -661C326 -688 321 -698 277 -720C213 -753 202 -729 225 -702C247 -675 249 -638 245 -487C210 -477 173 -468 151 -463C128 -458 126 -448 153 -437C164 -432 169 -430 244 -444L240 -263C191 -241 131 -219 113 -221C79 -224 77 -206 116 -180C151 -157 167 -155 182 -169C197 -183 273 -236 366 -295C383 -306 385 -311 378 -317ZM982 -15C1007 -21 1006 -36 976 -39C806 -56 726 -82 637 -125L644 -254C683 -246 709 -247 768 -261C787 -266 793 -276 770 -291C754 -301 735 -301 714 -294C678 -282 665 -278 645 -276C647 -313 648 -325 650 -331C659 -354 654 -366 634 -387C693 -393 801 -399 838 -398C882 -397 886 -426 845 -441C806 -455 793 -456 738 -442C684 -427 457 -388 401 -384C347 -380 346 -373 380 -355C397 -346 405 -347 450 -357C487 -365 534 -374 584 -381C597 -364 601 -324 592 -150C553 -173 511 -199 470 -228C481 -246 500 -277 506 -287C519 -309 516 -313 491 -325C453 -343 445 -340 445 -313C445 -288 433 -251 393 -194C356 -142 311 -102 245 -51C216 -27 226 -22 256 -34C333 -63 402 -121 457 -204C640 -62 666 -44 744 2C781 23 802 29 982 -15ZM703 -679C700 -631 692 -581 683 -547C675 -517 670 -515 660 -517C648 -519 642 -518 548 -499C546 -519 545 -553 544 -588C576 -585 620 -590 654 -600C677 -607 677 -619 652 -627C632 -634 621 -632 543 -606C542 -640 540 -673 540 -696C560 -697 596 -701 675 -712C695 -715 705 -709 703 -679Z"/>
</svg>