<svg xmlns="http://www.w3.org/2000/svg" viewBox="0 -1000 1000 1000">
	<path fill="#000000" d="M654 -749C643 -775 614 -787 570 -785C551 -784 547 -779 559 -765C573 -748 602 -730 622 -721C651 -709 662 -730 654 -749ZM354 -691C356 -723 325 -750 259 -757C230 -760 228 -751 244 -733C262 -713 290 -680 309 -662C335 -638 352 -653 354 -691ZM792 -728C769 -735 750 -733 713 -722C658 -702 530 -672 441 -658C418 -654 419 -647 440 -637C448 -634 462 -634 517 -644C589 -661 718 -684 790 -694C818 -699 823 -715 792 -728ZM811 -610C821 -618 821 -630 792 -646C772 -658 764 -656 750 -648C736 -639 682 -625 637 -614C612 -622 608 -613 617 -600C627 -587 646 -554 653 -538C656 -532 668 -531 670 -539C697 -543 736 -548 767 -553C774 -554 776 -557 775 -566C774 -570 777 -579 783 -586C787 -591 799 -600 811 -610ZM583 -577C592 -587 592 -593 562 -604C549 -609 530 -608 524 -604C507 -595 463 -584 426 -578C394 -587 392 -577 403 -565C413 -551 434 -515 440 -499C442 -492 449 -490 454 -491C459 -491 462 -494 461 -500C495 -506 529 -515 551 -521C564 -523 567 -528 564 -533C562 -537 563 -543 568 -552C573 -562 577 -570 583 -577ZM371 -352C361 -381 341 -394 269 -392C329 -490 346 -511 360 -524C374 -537 372 -549 333 -565C301 -578 292 -576 284 -567C273 -555 240 -538 189 -522C168 -515 125 -506 93 -505C62 -504 54 -496 72 -482C94 -466 121 -457 151 -470C203 -492 246 -508 286 -519C278 -497 256 -453 235 -412C192 -327 111 -227 55 -168C36 -148 49 -146 66 -157C120 -192 180 -249 244 -350C248 -321 248 -280 242 -209C238 -162 230 -111 222 -84C217 -67 226 -18 238 2C251 24 261 23 266 0C272 -26 276 -71 277 -96C278 -131 280 -202 280 -226C281 -302 276 -346 261 -379C262 -381 264 -383 265 -386C293 -364 321 -342 336 -333C361 -318 380 -326 371 -352ZM953 -71C969 -73 972 -84 952 -88C827 -112 748 -139 678 -185C714 -218 737 -241 751 -253C760 -261 758 -270 732 -282C699 -296 690 -290 692 -276C695 -252 686 -230 666 -196C606 -242 573 -266 536 -281C623 -298 711 -310 814 -320C840 -323 842 -335 821 -347C803 -358 777 -356 731 -341C720 -338 692 -333 656 -325L658 -381C678 -383 698 -387 716 -390C757 -397 762 -409 745 -417C737 -421 717 -424 660 -405L662 -453C698 -462 732 -467 754 -471C777 -474 786 -490 763 -497C753 -501 726 -498 665 -480C666 -487 668 -494 669 -498C670 -507 668 -514 643 -518C615 -524 609 -516 621 -503C627 -496 629 -483 630 -469C608 -462 575 -455 544 -448C544 -454 544 -460 544 -463C544 -470 536 -476 520 -481C500 -486 493 -480 501 -471C506 -464 511 -452 514 -441C491 -437 470 -432 453 -429C435 -427 436 -421 451 -415C461 -411 487 -413 516 -420L517 -371C493 -366 472 -361 461 -360C431 -356 434 -348 452 -343C462 -340 483 -341 497 -344C503 -346 510 -348 518 -350L519 -297C454 -285 392 -272 360 -268C336 -265 342 -257 356 -251C373 -245 389 -244 430 -256C456 -264 480 -269 504 -274C496 -256 481 -235 451 -201C412 -158 350 -118 316 -94C302 -86 303 -80 322 -86C377 -101 465 -154 501 -202C508 -75 500 -50 476 -27C462 -16 463 -5 472 16C484 47 496 46 510 30C541 -5 591 -49 644 -89C656 -97 662 -102 659 -105C656 -108 650 -107 635 -99C613 -88 568 -67 534 -46C535 -81 537 -162 539 -195C540 -201 537 -212 516 -224C528 -243 538 -257 545 -267C571 -243 595 -218 621 -192C667 -142 715 -110 760 -77C800 -49 808 -47 953 -71ZM749 -615C750 -591 744 -580 737 -576C722 -568 694 -562 669 -557C667 -573 661 -591 655 -603C680 -610 710 -616 731 -621C740 -623 749 -620 749 -615ZM532 -568C532 -543 528 -537 523 -535C509 -531 481 -521 458 -516C455 -533 450 -550 444 -565C471 -570 497 -576 514 -579C523 -581 532 -575 532 -568ZM630 -397C607 -391 572 -383 542 -377L543 -427C571 -433 601 -440 630 -447ZM630 -319C604 -313 572 -307 542 -301V-357C570 -363 601 -369 630 -375Z"/>
</svg>