<svg xmlns="http://www.w3.org/2000/svg" viewBox="0 -1000 1000 1000">
	<path fill="#000000" d="M441 -536C423 -549 406 -546 332 -527C335 -553 339 -577 344 -593C357 -627 357 -640 304 -654C370 -680 420 -700 434 -703C466 -710 462 -729 418 -749C368 -771 362 -769 347 -745C336 -726 284 -689 167 -639C140 -627 142 -614 176 -618C201 -621 241 -633 280 -646C292 -627 295 -602 294 -519C207 -499 95 -477 63 -481C41 -483 31 -469 55 -452C91 -424 106 -425 140 -437C205 -459 241 -470 280 -479C228 -368 167 -286 57 -188C26 -161 32 -150 63 -166C150 -211 239 -302 293 -409C290 -262 286 -200 273 -155C258 -101 259 -95 275 -45C288 -4 306 -1 319 -41C328 -69 333 -128 331 -227C327 -372 325 -424 329 -490C352 -494 377 -499 418 -505C454 -510 461 -522 441 -536ZM907 -498C926 -510 932 -528 873 -560C832 -581 816 -579 802 -573C786 -566 736 -554 691 -546C697 -686 701 -712 707 -726C718 -755 712 -774 660 -788C600 -804 593 -789 616 -759C635 -732 639 -681 637 -539C579 -531 550 -528 508 -528C501 -532 496 -534 485 -538C462 -543 452 -534 464 -512C474 -492 490 -441 497 -360C501 -315 509 -292 518 -292C526 -292 532 -304 535 -320C570 -321 588 -323 633 -327C630 -223 626 28 629 50C636 112 656 113 668 38C676 -14 684 -132 684 -273C684 -291 684 -311 684 -332C765 -341 794 -343 819 -345C871 -348 872 -361 855 -378C836 -398 838 -407 850 -427C885 -483 892 -488 907 -498ZM441 -332C428 -372 409 -384 346 -385C324 -385 324 -381 344 -360C372 -331 390 -316 408 -304C436 -286 452 -298 441 -332ZM812 -487C807 -462 802 -437 796 -410C790 -384 783 -379 775 -379C772 -379 760 -378 685 -368C686 -419 688 -473 690 -517C816 -539 820 -531 812 -487ZM637 -508C636 -463 635 -408 634 -361C607 -358 575 -353 536 -348C533 -422 529 -466 523 -499C567 -499 607 -504 637 -508Z"/>
</svg>