<svg xmlns="http://www.w3.org/2000/svg" viewBox="0 -1000 1000 1000">
	<path fill="#000000" d="M512 -282C515 -296 519 -305 523 -314C530 -329 525 -337 486 -353C532 -370 557 -375 596 -382C644 -392 646 -408 595 -439C566 -456 549 -453 539 -432C528 -408 464 -378 353 -346C283 -326 283 -321 334 -322C366 -324 415 -332 452 -342C461 -327 465 -309 467 -278C338 -264 203 -250 183 -251C121 -252 119 -246 160 -221C187 -204 205 -203 261 -214C330 -229 372 -237 406 -242C354 -153 247 -61 159 -18C117 4 119 16 164 5C254 -19 382 -94 467 -243C467 -152 464 -88 454 -52C441 -6 442 13 461 41C478 67 495 68 503 41C512 12 514 -18 512 -52C511 -66 510 -105 510 -240C559 -190 622 -129 706 -49C735 -22 750 -17 913 -38C941 -42 942 -56 907 -63C766 -94 679 -139 532 -256C616 -261 734 -260 784 -255C876 -245 886 -269 833 -300C801 -318 783 -319 712 -307C690 -303 606 -293 512 -282ZM542 -662C557 -682 563 -692 575 -715C585 -733 594 -748 599 -753C615 -772 614 -778 565 -801C530 -819 516 -810 528 -783C536 -764 532 -739 518 -710C488 -649 466 -616 432 -580C409 -556 418 -551 447 -568C472 -580 503 -610 529 -644C560 -637 594 -640 641 -652C703 -669 711 -664 691 -617C673 -578 676 -575 706 -598C745 -626 772 -645 789 -650C828 -660 828 -680 762 -704C716 -719 706 -718 684 -704C659 -687 613 -672 542 -662ZM399 -572C396 -575 391 -573 331 -534C258 -485 219 -468 200 -470C173 -473 169 -457 211 -424C247 -396 252 -397 263 -413C273 -429 325 -487 350 -510C404 -561 404 -567 399 -572ZM357 -634C337 -684 308 -698 238 -697C214 -697 211 -688 235 -670C289 -628 306 -616 328 -608C348 -600 365 -614 357 -634ZM582 -522C665 -478 733 -437 757 -419C786 -398 808 -405 798 -434C779 -489 737 -509 591 -534C598 -543 605 -552 613 -557C631 -569 628 -581 582 -608C553 -625 541 -619 548 -593C555 -571 532 -493 446 -431C423 -413 433 -401 460 -414C509 -438 545 -472 582 -522Z"/>
</svg>