<svg xmlns="http://www.w3.org/2000/svg" viewBox="0 -1000 1000 1000">
	<path fill="#000000" d="M914 -262C876 -286 869 -288 749 -257C755 -448 760 -497 770 -513C784 -536 783 -540 744 -561C709 -580 698 -581 668 -564C660 -559 630 -550 579 -539C589 -574 598 -603 605 -627C689 -644 708 -648 771 -667C811 -678 811 -689 781 -704C756 -717 744 -715 619 -670C632 -711 641 -732 650 -746C666 -772 664 -775 625 -797C581 -821 572 -799 582 -771C589 -752 593 -727 580 -658C554 -651 517 -643 498 -640C476 -636 476 -626 495 -620C513 -615 534 -614 574 -621C569 -595 562 -565 553 -533C534 -529 516 -526 501 -524C459 -544 450 -533 468 -505C482 -484 490 -402 482 -217C423 -210 372 -204 348 -202C333 -201 329 -195 346 -185C374 -169 392 -167 427 -176C494 -193 560 -206 631 -215C712 -226 831 -229 893 -221C942 -214 953 -237 914 -262ZM401 -516C374 -532 364 -532 305 -512C308 -529 313 -545 317 -556C327 -583 324 -591 268 -615C286 -623 316 -639 339 -652C349 -658 384 -671 397 -675C421 -682 422 -697 386 -722C347 -749 340 -749 335 -724C331 -705 276 -650 170 -598C150 -588 152 -579 172 -583C215 -593 226 -596 251 -607C267 -584 273 -556 273 -502C208 -484 106 -461 91 -459C70 -457 68 -447 92 -435C120 -421 139 -422 175 -437C207 -450 220 -455 268 -468C240 -391 152 -256 67 -177C49 -161 52 -150 72 -162C159 -215 225 -285 268 -382C257 -169 254 -145 246 -121C231 -77 228 -38 237 -11C249 26 260 28 280 -9C284 -17 291 -84 290 -123C289 -148 297 -419 300 -476C329 -483 357 -489 379 -491C413 -495 419 -505 401 -516ZM392 -346C387 -374 362 -386 315 -389C296 -390 294 -384 309 -369C331 -347 342 -338 361 -324C376 -313 397 -318 392 -346ZM823 -49C824 -96 796 -120 693 -166C670 -176 668 -169 679 -152C712 -103 741 -61 777 -14C804 21 821 16 823 -49ZM561 -108C580 -119 583 -129 551 -153C515 -180 499 -173 502 -147C504 -134 492 -115 454 -76C443 -64 395 -24 368 -4C349 10 357 16 374 11C404 2 464 -34 486 -53C504 -69 548 -101 561 -108ZM706 -498C708 -476 708 -370 704 -247C661 -240 587 -231 515 -221C517 -242 517 -262 517 -282C561 -282 597 -287 632 -297C656 -303 658 -314 640 -320C627 -325 614 -326 518 -301C519 -322 519 -342 520 -361C565 -363 608 -370 640 -379C666 -386 669 -394 649 -402C634 -409 618 -407 521 -381C521 -399 522 -417 522 -433C567 -434 601 -440 640 -452C668 -461 669 -472 645 -477C626 -481 611 -478 522 -451C522 -471 521 -490 521 -507C550 -509 586 -515 664 -533C692 -539 704 -530 706 -498Z"/>
</svg>