<svg xmlns="http://www.w3.org/2000/svg" viewBox="0 -1000 1000 1000">
	<path fill="#000000" d="M592 -537C598 -565 580 -584 546 -600C526 -609 521 -607 526 -588C532 -566 538 -552 554 -523C562 -508 585 -510 592 -537ZM694 -744C686 -771 663 -784 595 -785C563 -785 560 -780 578 -763C606 -739 624 -725 656 -707C679 -693 703 -707 694 -744ZM600 -299L599 -247C576 -243 549 -238 518 -232C503 -314 497 -344 488 -380C515 -382 545 -385 592 -393C598 -373 600 -358 600 -332C572 -325 558 -321 540 -319C514 -316 516 -303 540 -300C560 -297 574 -296 600 -299ZM647 -344C647 -377 645 -387 635 -399C704 -409 716 -411 735 -412C762 -413 765 -407 761 -379C754 -338 742 -294 728 -264C724 -255 718 -255 704 -261C698 -263 679 -261 644 -255L645 -305C667 -308 674 -310 703 -319C731 -329 730 -344 706 -350C696 -352 679 -351 647 -344ZM637 -49L640 -123C674 -127 695 -130 724 -135C763 -142 764 -162 729 -168C705 -172 683 -171 641 -162L643 -227C699 -234 716 -235 720 -226C727 -212 744 -212 757 -231C777 -259 783 -270 793 -292C814 -346 827 -368 847 -385C867 -400 865 -412 819 -437C778 -459 769 -461 743 -451C715 -440 553 -410 473 -406C421 -431 405 -415 427 -386C444 -363 453 -339 484 -226C489 -208 496 -189 505 -187C518 -183 523 -190 522 -206C549 -212 573 -216 599 -219L598 -150C562 -143 549 -141 507 -137C484 -135 481 -124 511 -119C542 -113 571 -113 597 -116L596 -44C502 -35 445 -32 413 -32C369 -32 365 -23 391 -5C418 12 438 16 468 10C528 -3 577 -12 616 -16C713 -23 742 -23 876 -15C936 -10 941 -37 888 -62C862 -74 835 -77 794 -68C766 -62 722 -57 637 -49ZM685 -637C691 -608 682 -568 663 -522C534 -502 458 -492 422 -490C391 -488 390 -477 419 -463C441 -451 450 -451 477 -457C532 -470 596 -482 650 -488C767 -502 819 -505 893 -501C947 -498 953 -521 916 -543C889 -558 864 -558 818 -550C780 -542 736 -535 690 -526C712 -561 728 -581 748 -600C763 -612 759 -624 718 -642C739 -645 757 -648 776 -652C825 -662 824 -685 802 -690C776 -696 752 -697 724 -689C639 -665 554 -652 489 -646C455 -643 456 -634 479 -624C499 -617 514 -615 553 -619C605 -625 633 -628 685 -637ZM292 -500C295 -539 300 -576 308 -596C314 -612 307 -618 263 -635C330 -668 351 -677 392 -686C418 -691 423 -708 373 -732C322 -758 307 -754 307 -736C307 -705 248 -664 160 -624C131 -611 133 -598 170 -606C196 -611 216 -616 232 -621C246 -595 253 -553 252 -489C157 -464 102 -453 58 -451C27 -450 27 -442 51 -424C83 -401 100 -400 128 -411C156 -422 183 -433 219 -444C185 -346 122 -232 54 -156C27 -126 31 -113 68 -138C142 -188 210 -289 251 -403C246 -182 238 -115 225 -69C215 -36 217 -14 235 20C254 52 270 51 280 23C286 4 289 -33 288 -97C287 -145 287 -233 289 -372C302 -355 328 -330 350 -312C371 -295 387 -310 381 -338C372 -370 360 -384 289 -397C290 -424 290 -437 291 -465C313 -470 337 -474 378 -481C404 -485 401 -502 384 -509C363 -517 349 -515 322 -508C312 -505 305 -503 292 -500Z"/>
</svg>