<svg xmlns="http://www.w3.org/2000/svg" viewBox="0 -1000 1000 1000">
	<path fill="#000000" d="M248 -589C266 -588 289 -590 317 -595C453 -618 640 -638 716 -638C774 -638 777 -633 739 -570C725 -547 731 -541 762 -556C807 -579 841 -590 874 -594C906 -599 907 -611 846 -657C803 -689 791 -691 743 -683C683 -673 653 -669 248 -620C228 -667 219 -665 212 -637C205 -611 187 -584 155 -547C149 -540 147 -522 152 -498C156 -478 180 -476 205 -507C229 -536 238 -553 248 -589ZM430 -536C438 -540 437 -545 392 -571C362 -588 350 -580 349 -553C349 -541 313 -487 238 -422C212 -399 219 -390 256 -408C297 -428 351 -466 395 -509C412 -526 421 -532 430 -536ZM709 -495C709 -530 686 -557 575 -588C553 -594 545 -584 561 -570C592 -541 602 -532 670 -471C694 -449 709 -459 709 -495ZM558 -727C553 -763 535 -779 469 -786C424 -791 418 -782 440 -761C475 -729 489 -717 515 -692C537 -672 563 -691 558 -727ZM344 -39C394 -37 458 -41 543 -56C588 -64 604 -56 629 13C650 75 664 76 679 52C713 2 722 -40 712 -135C696 -283 698 -343 712 -363C734 -392 730 -405 684 -431C646 -450 633 -448 603 -439C569 -428 435 -407 337 -401C276 -422 269 -403 291 -377C308 -356 313 -258 301 -130C298 -96 293 -75 287 -62C270 -26 292 42 310 42C328 42 336 33 344 -39ZM354 -274C407 -270 456 -273 549 -293C583 -300 583 -319 549 -324C520 -328 496 -326 354 -293C354 -317 354 -342 353 -369C399 -373 443 -379 530 -394C622 -408 637 -398 640 -355C649 -213 651 -118 645 -81C641 -57 622 -55 598 -79C569 -109 534 -104 348 -66C350 -92 352 -126 353 -168C396 -162 432 -163 550 -187C582 -193 582 -212 556 -215C515 -221 471 -213 353 -187C354 -213 354 -242 354 -274Z"/>
</svg>