<svg xmlns="http://www.w3.org/2000/svg" viewBox="0 -1000 1000 1000">
	<path fill="#000000" d="M465 -123L463 -39C280 -24 205 -20 166 -21C138 -22 136 -9 156 5C190 30 220 34 268 20C290 14 402 0 472 -5C603 -15 694 -14 773 -1C862 13 869 -8 827 -44C797 -70 739 -78 657 -59C638 -55 599 -51 508 -43L510 -128C551 -133 599 -140 652 -150C678 -156 680 -176 656 -183C618 -195 592 -193 561 -183C548 -180 532 -176 513 -172C516 -198 518 -206 521 -213C532 -237 525 -247 488 -259C440 -273 429 -253 451 -230C460 -219 464 -199 465 -164C415 -156 362 -149 334 -148C310 -147 306 -138 333 -127C351 -120 388 -118 465 -123ZM466 -384V-304C338 -289 244 -279 221 -280C198 -281 193 -271 213 -259C242 -240 263 -235 315 -247C326 -250 411 -264 501 -275C591 -286 654 -291 726 -286C795 -282 799 -300 767 -322C739 -342 704 -347 637 -332C605 -325 558 -316 507 -309L511 -390C547 -396 593 -403 647 -411C676 -415 676 -433 653 -442C622 -455 605 -454 515 -434C518 -456 520 -466 524 -474C537 -499 531 -507 491 -517C439 -531 433 -513 450 -497C461 -485 465 -470 466 -424C401 -412 371 -408 331 -404C304 -401 302 -389 330 -381C355 -373 377 -372 466 -384ZM412 -545C425 -559 424 -568 395 -581C357 -599 347 -591 345 -567C344 -536 318 -500 253 -445C236 -433 242 -419 262 -429C306 -450 338 -473 385 -517C397 -528 405 -537 412 -545ZM679 -516C666 -565 636 -585 563 -600C545 -603 540 -592 550 -581C581 -547 617 -513 641 -497C671 -475 687 -488 679 -516ZM253 -634C231 -686 220 -684 213 -658C204 -628 192 -605 160 -554C152 -541 150 -522 156 -506C162 -486 186 -485 201 -507C223 -534 244 -572 252 -607C268 -606 313 -608 336 -611C484 -629 671 -647 708 -647C744 -647 746 -644 710 -572C701 -552 708 -546 732 -559C779 -585 804 -593 838 -596C874 -600 876 -625 810 -675C772 -704 744 -707 714 -696C670 -682 476 -653 253 -634ZM544 -723C536 -753 512 -774 442 -794C423 -800 417 -789 428 -773C476 -705 491 -688 507 -678C526 -664 554 -689 544 -723Z"/>
</svg>