<svg xmlns="http://www.w3.org/2000/svg" viewBox="0 -1000 1000 1000">
	<path fill="#000000" d="M525 -745C528 -781 507 -813 432 -812C415 -812 404 -805 419 -788C449 -753 466 -735 492 -720C507 -713 524 -719 525 -745ZM821 -634C850 -639 849 -658 797 -695C737 -737 732 -738 692 -725C674 -718 370 -680 250 -677C229 -713 222 -708 215 -690C206 -666 192 -645 159 -595C152 -584 146 -563 152 -546C159 -526 181 -524 200 -549C221 -576 240 -615 250 -653C291 -653 336 -656 462 -669C611 -685 662 -686 691 -684C721 -682 731 -673 681 -613C667 -595 670 -587 703 -601C750 -621 779 -629 821 -634ZM641 -561C642 -593 594 -623 528 -633C501 -635 498 -629 516 -613C546 -585 580 -555 602 -537C626 -519 640 -534 641 -561ZM387 -582C396 -588 397 -600 367 -614C340 -628 334 -627 330 -606C326 -589 290 -547 235 -504C214 -488 218 -478 242 -486C271 -494 310 -519 357 -560C364 -566 378 -576 387 -582ZM546 -396C563 -402 564 -412 543 -421C530 -427 507 -429 488 -422C458 -413 407 -404 381 -398C364 -395 363 -386 374 -380C389 -375 424 -375 454 -377C497 -381 530 -390 546 -396ZM952 -321C975 -325 968 -339 946 -343C738 -384 671 -408 471 -534C490 -555 487 -561 455 -575C430 -587 426 -582 421 -564C414 -537 374 -486 323 -434C244 -351 177 -307 65 -241C45 -229 49 -216 69 -223C163 -253 286 -316 408 -467C425 -486 444 -502 457 -516C528 -455 625 -385 739 -318C771 -300 798 -293 952 -321ZM555 -262C556 -270 548 -280 530 -288C503 -302 494 -294 504 -273C515 -249 516 -225 513 -205C507 -176 510 -158 518 -144C527 -127 542 -128 546 -141C552 -162 555 -183 554 -209C552 -223 553 -245 555 -262ZM460 -291C470 -303 470 -307 430 -329C409 -342 385 -338 366 -326C343 -312 323 -308 289 -309C266 -318 261 -312 263 -291C265 -271 265 -268 260 -225C251 -138 243 -111 232 -89C223 -72 222 -65 229 -36C235 -12 254 -12 267 -54C274 -79 281 -105 286 -135C323 -131 345 -131 367 -138C382 -143 380 -162 358 -163C343 -164 320 -161 288 -151C291 -172 294 -193 296 -217C329 -214 346 -214 367 -222C382 -227 380 -240 364 -243C349 -246 329 -242 298 -235C299 -251 300 -268 301 -286C317 -286 333 -287 348 -291C394 -303 399 -301 401 -273C408 -200 406 -140 400 -85C397 -66 388 -62 351 -70C336 -74 331 -66 347 -52C358 -43 373 -23 388 1C396 13 405 17 420 3C444 -21 457 -48 452 -134C451 -160 450 -191 448 -227C447 -271 448 -278 460 -291ZM672 -101C668 -124 665 -170 663 -220C662 -248 663 -272 670 -290C680 -317 669 -337 625 -356C603 -366 587 -362 600 -340C613 -317 617 -293 619 -247C624 -162 622 -127 614 -62C611 -40 592 -36 541 -50C528 -53 521 -48 533 -36C549 -21 588 21 601 39C613 55 626 56 637 43C667 6 680 -34 672 -101Z"/>
</svg>