<svg xmlns="http://www.w3.org/2000/svg" viewBox="0 -1000 1000 1000">
	<path fill="#000000" d="M589 -443C606 -416 615 -380 617 -295C621 -195 621 -168 609 -81C604 -44 592 -41 497 -62C477 -66 470 -54 487 -42C532 -11 555 12 576 47C589 69 607 70 626 50C669 4 685 -49 675 -190C668 -281 667 -344 679 -385C686 -410 679 -428 637 -446C764 -453 803 -454 840 -451C912 -445 921 -461 870 -496C838 -517 797 -518 728 -503C631 -481 213 -432 115 -433C95 -433 95 -427 104 -418C144 -387 176 -384 225 -398C267 -410 487 -435 589 -443ZM321 -164C370 -167 418 -172 470 -178C504 -182 505 -193 491 -210C481 -222 480 -229 486 -241C498 -269 508 -286 522 -297C546 -315 544 -330 504 -351C472 -369 460 -368 440 -359C415 -346 348 -332 294 -328C233 -351 223 -337 241 -312C254 -295 261 -272 282 -153C286 -127 294 -119 305 -121C315 -124 320 -132 321 -164ZM309 -300C345 -303 376 -306 409 -311C435 -316 446 -309 445 -296C443 -271 440 -257 432 -234C423 -208 411 -204 320 -194C316 -246 314 -266 309 -300ZM391 -540C390 -560 382 -573 332 -596C313 -606 305 -601 312 -581C319 -558 333 -532 350 -508C366 -485 393 -498 391 -540ZM728 -567C725 -596 703 -612 653 -618C636 -620 631 -609 641 -594C660 -570 680 -546 694 -535C718 -514 732 -521 728 -567ZM635 -680C652 -709 662 -722 672 -732C686 -746 683 -758 627 -784C597 -797 584 -786 592 -766C605 -728 574 -640 473 -544C447 -519 458 -509 489 -527C524 -548 579 -600 618 -655C644 -648 671 -646 700 -647C737 -649 769 -654 806 -664C837 -673 838 -689 804 -702C790 -707 768 -707 739 -697C697 -684 665 -680 635 -680ZM320 -655C335 -675 340 -681 366 -715C375 -727 374 -741 338 -757C286 -781 278 -772 290 -746C300 -724 244 -602 145 -509C124 -489 130 -480 158 -497C215 -530 257 -569 306 -635C336 -625 347 -622 355 -622C394 -623 441 -630 471 -642C503 -654 498 -675 467 -681C453 -684 443 -684 418 -674C394 -664 355 -657 320 -655Z"/>
</svg>