<svg xmlns="http://www.w3.org/2000/svg" viewBox="0 -1000 1000 1000">
	<path fill="#000000" d="M272 -350C275 -333 278 -310 273 -260C262 -101 257 -76 250 -65C238 -46 239 -25 258 19C268 44 289 46 297 23C305 1 310 -26 312 -52C317 -206 318 -257 320 -310C321 -347 318 -358 296 -376C319 -402 338 -424 345 -435C358 -450 362 -455 382 -473C397 -487 396 -502 357 -520C306 -544 297 -538 304 -517C312 -496 293 -452 257 -406C220 -358 149 -284 83 -232C62 -215 67 -205 92 -215C136 -235 201 -279 272 -350ZM540 -413C555 -435 576 -467 591 -488C607 -513 614 -522 619 -527C634 -540 630 -553 584 -564C542 -573 534 -566 537 -545C539 -530 528 -489 501 -442C471 -389 423 -329 382 -286C358 -263 367 -252 399 -273C453 -308 481 -335 525 -392C532 -390 541 -389 553 -388C561 -374 568 -343 569 -300C572 -165 567 -46 559 -23C551 1 551 20 569 56C579 76 599 76 607 58C618 33 622 -15 617 -136C640 -132 665 -132 706 -136C738 -139 782 -142 837 -146C867 -148 871 -165 841 -183C819 -197 796 -195 767 -188C714 -174 661 -167 617 -164C616 -204 615 -237 615 -264C639 -261 671 -261 701 -265C743 -269 775 -274 811 -280C841 -285 841 -307 818 -315C797 -324 773 -322 755 -316C720 -304 660 -294 615 -290C616 -320 617 -339 619 -345C623 -361 621 -372 592 -388C643 -393 783 -410 839 -418C874 -423 877 -443 854 -453C820 -469 788 -469 751 -456C704 -440 604 -420 540 -413ZM419 -585C413 -603 391 -619 347 -622C315 -624 310 -617 324 -601C341 -580 373 -553 386 -548C416 -536 429 -551 419 -585ZM744 -587C733 -615 703 -626 659 -627C625 -628 621 -621 636 -606C660 -581 678 -566 694 -556C736 -532 760 -551 744 -587ZM323 -674C330 -685 339 -697 350 -710C365 -730 364 -736 297 -760C271 -770 265 -762 271 -740C281 -708 250 -628 148 -511C128 -488 135 -478 169 -499C209 -522 269 -585 312 -656C335 -650 357 -647 366 -647C406 -648 439 -653 488 -664C523 -673 524 -687 486 -702C466 -709 454 -707 425 -697C383 -684 348 -677 323 -674ZM665 -703C678 -723 686 -734 694 -743C705 -757 704 -766 642 -786C618 -793 609 -787 617 -762C626 -737 584 -651 505 -574C480 -549 490 -540 522 -559C565 -586 621 -638 650 -678C672 -672 701 -670 715 -672C759 -676 835 -687 843 -690C880 -704 881 -717 844 -730C829 -736 810 -736 773 -726C694 -706 684 -704 665 -703Z"/>
</svg>