<svg xmlns="http://www.w3.org/2000/svg" viewBox="0 -1000 1000 1000">
	<path fill="#000000" d="M391 -559C385 -583 367 -593 325 -596C296 -599 290 -586 307 -571C336 -544 342 -540 358 -531C381 -517 399 -528 391 -559ZM727 -586C722 -607 676 -628 635 -628C610 -628 607 -620 626 -604C642 -589 666 -570 681 -557C711 -534 734 -549 727 -586ZM617 -693C627 -708 641 -726 647 -733C663 -748 657 -761 611 -775C572 -786 565 -776 571 -757C581 -729 544 -650 477 -559C461 -537 470 -531 492 -545C532 -572 579 -629 606 -676C641 -663 693 -663 727 -669C749 -672 788 -676 835 -681C863 -684 863 -708 838 -720C815 -731 794 -731 756 -720C692 -702 646 -694 617 -693ZM306 -658C318 -675 330 -691 343 -705C359 -721 355 -729 318 -745C278 -761 265 -754 271 -733C280 -707 229 -610 138 -500C124 -482 129 -476 152 -490C195 -516 246 -569 295 -640C325 -634 363 -631 382 -635C413 -638 450 -644 488 -656C509 -665 510 -680 491 -691C479 -697 456 -696 430 -687C375 -670 335 -660 306 -658ZM726 0C721 -61 673 -101 565 -119C543 -122 538 -113 556 -95C576 -73 637 -18 686 23C707 40 728 28 726 0ZM701 -217C692 -261 660 -276 579 -275C551 -275 549 -264 572 -248C608 -224 648 -200 662 -195C695 -182 706 -191 701 -217ZM385 -457C387 -488 354 -510 298 -515C273 -517 270 -511 287 -491C305 -469 331 -445 344 -437C371 -420 383 -427 385 -457ZM289 -345C290 -315 275 -275 241 -216C211 -163 157 -99 115 -62C81 -33 87 -25 131 -44C191 -70 261 -152 305 -236C309 -243 316 -253 322 -264C362 -247 374 -233 373 -209C371 -159 364 -127 342 -81C330 -56 315 -52 267 -79C248 -91 241 -84 255 -64C275 -33 288 -4 290 11C292 31 301 34 326 18C364 -6 389 -49 404 -110C429 -208 432 -216 441 -224C448 -230 452 -238 443 -249C476 -267 528 -317 565 -382C581 -411 594 -432 609 -454C636 -425 665 -396 752 -308C785 -275 799 -271 927 -286C961 -291 961 -302 927 -311C802 -346 733 -386 628 -479C647 -501 647 -511 592 -539C570 -549 562 -542 568 -522C573 -505 557 -456 528 -400C500 -345 464 -298 430 -264C415 -279 406 -281 386 -281C372 -281 354 -281 335 -283C356 -308 355 -325 310 -350C362 -364 418 -376 457 -383C500 -390 504 -409 484 -418C464 -425 440 -423 378 -405C274 -375 159 -356 118 -355C86 -354 84 -340 112 -321C144 -300 154 -299 188 -314C203 -321 233 -331 289 -345Z"/>
</svg>