<svg xmlns="http://www.w3.org/2000/svg" viewBox="0 -1000 1000 1000">
	<path fill="#000000" d="M779 -748C765 -750 742 -747 702 -737C658 -726 647 -725 629 -727C635 -734 642 -741 648 -747C664 -762 666 -770 612 -794C595 -802 589 -799 588 -780C586 -742 562 -694 495 -629C473 -608 476 -601 508 -617C543 -633 594 -679 617 -711C638 -701 661 -696 680 -697C720 -700 751 -705 776 -712C808 -720 811 -742 779 -748ZM489 -726C470 -730 455 -729 420 -717C408 -714 385 -709 358 -708C362 -715 367 -721 371 -727C379 -739 382 -748 348 -761C308 -777 304 -773 309 -747C315 -717 284 -649 212 -571C188 -546 191 -537 224 -556C266 -581 326 -641 349 -688C400 -674 427 -679 488 -695C512 -702 515 -721 489 -726ZM702 -611C700 -643 683 -654 632 -658C610 -660 609 -655 616 -645C633 -619 649 -604 679 -592C698 -586 703 -590 702 -611ZM411 -606C404 -633 396 -639 363 -646C339 -651 336 -644 347 -627C360 -608 368 -600 381 -589C400 -574 418 -578 411 -606ZM928 -393C902 -413 827 -431 746 -417C721 -412 618 -399 500 -385L505 -439C535 -443 570 -450 611 -458C638 -462 641 -475 626 -485C609 -495 595 -495 544 -482C534 -479 522 -477 508 -474L512 -518C551 -523 593 -532 637 -543C664 -550 664 -563 648 -573C635 -581 604 -579 561 -566C551 -563 535 -559 515 -555C515 -558 516 -561 516 -563C519 -577 515 -590 484 -600C450 -611 441 -608 458 -578C460 -573 463 -555 464 -545C422 -536 373 -528 328 -523C298 -521 299 -506 332 -502C356 -499 392 -501 466 -510L465 -466C425 -459 384 -454 362 -452C338 -450 340 -433 365 -430C387 -427 418 -428 463 -433L462 -380C223 -351 147 -342 92 -338C67 -336 66 -330 92 -313C119 -295 135 -291 178 -303C250 -324 365 -341 480 -353C631 -368 782 -374 839 -361C944 -338 967 -361 928 -393ZM675 -43C663 -230 664 -242 671 -252C686 -274 687 -282 643 -307C603 -331 593 -330 567 -318C549 -310 483 -300 382 -291C339 -300 333 -291 345 -268C360 -239 350 -144 318 -36C307 1 328 54 346 53C357 52 369 34 375 -18C379 -48 383 -72 385 -106C422 -98 474 -100 532 -116C561 -124 566 -136 542 -146C518 -155 485 -152 387 -125C388 -146 389 -174 389 -196C425 -183 487 -190 526 -203C561 -215 561 -226 540 -232C505 -241 479 -237 390 -210C390 -229 390 -248 390 -267C445 -275 508 -281 557 -283C592 -284 604 -266 608 -233C616 -176 618 -92 609 -44C602 -3 596 5 551 -6C515 -14 514 -9 539 19C554 35 578 71 591 94C599 110 612 110 629 90C666 48 678 7 675 -43Z"/>
</svg>