<svg xmlns="http://www.w3.org/2000/svg" viewBox="0 -1000 1000 1000">
	<path fill="#000000" d="M772 -754C754 -760 742 -761 713 -754C663 -741 642 -735 622 -735C627 -742 632 -750 637 -756C653 -776 653 -785 611 -803C592 -811 569 -810 574 -788C581 -759 568 -729 474 -614C464 -603 468 -590 491 -603C520 -620 573 -669 610 -719C645 -703 681 -703 770 -724C802 -731 797 -744 772 -754ZM470 -685C500 -691 498 -711 469 -719C448 -724 441 -723 420 -716C387 -707 369 -704 350 -704C354 -709 359 -716 365 -725C379 -743 374 -756 325 -768C304 -775 298 -768 298 -751C303 -724 272 -648 184 -571C163 -552 174 -545 203 -562C240 -582 297 -631 334 -680C367 -671 404 -671 470 -685ZM690 -639C684 -659 649 -676 605 -676C588 -676 583 -671 592 -659C602 -643 634 -617 650 -607C676 -591 699 -605 690 -639ZM390 -605C385 -623 367 -635 325 -645C311 -648 307 -642 311 -631C319 -609 343 -583 355 -578C375 -567 398 -577 390 -605ZM917 -440C881 -466 851 -470 769 -455C749 -451 682 -440 600 -425C649 -479 686 -516 695 -520C711 -529 711 -537 681 -561C651 -587 640 -582 634 -553C630 -532 600 -482 544 -419C522 -416 500 -413 477 -408L481 -485C507 -488 535 -492 570 -499C599 -505 602 -513 582 -523C564 -534 542 -535 509 -527C501 -525 494 -523 484 -522C487 -538 489 -551 491 -558C495 -576 487 -590 441 -592C413 -593 403 -587 414 -573C423 -558 431 -539 435 -512C396 -503 353 -495 323 -491C307 -491 306 -483 319 -478C345 -468 361 -465 436 -477V-401C299 -384 161 -363 106 -358C86 -358 88 -347 101 -340C146 -320 157 -321 186 -327C257 -346 417 -373 513 -387C479 -350 443 -316 407 -282C376 -299 362 -297 366 -280C368 -270 370 -261 370 -247C276 -164 184 -93 109 -51C88 -39 93 -29 117 -37C184 -57 266 -108 372 -198C372 -153 368 -104 362 -75C355 -39 369 -1 381 -1C394 -1 403 -9 407 -58C433 -53 468 -57 542 -65C572 -69 578 -63 594 -24C621 45 627 44 649 18C671 -11 681 -71 677 -107C666 -211 671 -242 687 -262C701 -277 703 -284 654 -309C620 -327 608 -330 585 -322C564 -312 540 -303 474 -295C504 -324 534 -356 568 -391C670 -403 790 -413 851 -406C939 -397 941 -423 917 -440ZM611 -100C606 -64 598 -62 586 -79C569 -104 563 -107 408 -77C409 -103 411 -135 411 -167C447 -162 496 -167 555 -179C578 -184 580 -202 561 -206C543 -212 530 -211 497 -202C468 -195 444 -192 412 -188C412 -203 412 -219 412 -234C424 -246 437 -257 450 -269C481 -275 512 -279 535 -281C582 -285 600 -281 604 -263C614 -216 617 -147 611 -100Z"/>
</svg>