<svg xmlns="http://www.w3.org/2000/svg" viewBox="0 -1000 1000 1000">
	<path fill="#000000" d="M808 -764C797 -770 777 -769 738 -759C667 -739 645 -736 625 -737C629 -744 633 -750 637 -757C649 -778 648 -779 606 -790C579 -797 571 -793 578 -769C582 -755 561 -692 504 -630C486 -611 492 -603 516 -618C546 -636 584 -677 613 -719C639 -710 709 -713 798 -730C828 -736 831 -751 808 -764ZM485 -727C476 -729 460 -727 419 -717C390 -709 379 -708 356 -708C361 -715 365 -719 371 -725C382 -738 382 -749 347 -763C315 -775 306 -769 310 -747C313 -728 299 -677 196 -566C178 -547 184 -537 208 -554C270 -597 313 -640 344 -690C372 -678 421 -680 482 -696C511 -704 508 -722 485 -727ZM717 -647C713 -669 684 -684 644 -684C612 -684 611 -681 633 -664C653 -647 663 -638 676 -629C702 -612 722 -622 717 -647ZM415 -632C409 -642 395 -650 357 -650C327 -650 325 -643 338 -631C350 -621 381 -601 392 -600C415 -597 426 -614 415 -632ZM902 -182C879 -199 844 -203 818 -198C804 -194 761 -190 695 -183C689 -269 693 -286 700 -297C709 -310 708 -321 674 -340C645 -355 632 -356 613 -348C604 -344 590 -340 513 -327C515 -341 516 -350 516 -354C516 -359 510 -369 478 -378C507 -382 535 -386 560 -389C659 -400 718 -401 782 -398C820 -396 830 -421 798 -436C767 -450 748 -449 571 -415L575 -472C612 -478 646 -483 664 -486C687 -489 689 -508 666 -513C649 -517 633 -515 577 -500C579 -527 580 -531 583 -548C628 -556 663 -560 676 -562C721 -568 727 -583 692 -593C679 -597 642 -593 588 -579L591 -587C595 -603 587 -614 564 -619C524 -628 520 -621 536 -600C541 -593 545 -582 545 -568C519 -563 484 -557 446 -550C445 -563 433 -575 408 -584C391 -591 383 -581 393 -568C397 -562 400 -555 404 -544C370 -539 335 -534 307 -531C268 -528 266 -522 304 -511C315 -507 365 -511 407 -518C409 -504 410 -494 410 -469C366 -462 329 -456 321 -456C286 -456 287 -441 321 -434C330 -432 382 -437 410 -441L409 -389C354 -381 293 -373 232 -366C196 -362 195 -358 214 -346C235 -332 265 -330 315 -344C359 -355 414 -367 464 -375C470 -363 474 -347 474 -321C442 -316 402 -310 353 -303C313 -316 305 -303 322 -277C330 -264 329 -193 323 -137C233 -123 169 -114 157 -114C90 -114 88 -107 124 -86C151 -70 177 -71 209 -84C232 -93 262 -100 319 -108C317 -99 314 -88 312 -80C303 -52 302 -13 306 0C320 45 347 43 357 -79C357 -91 359 -102 359 -114C491 -134 578 -144 651 -148C653 -122 653 -97 653 -76C653 -18 647 -14 590 -28C555 -37 551 -33 576 -8C592 7 613 42 624 61C633 79 651 80 671 57C696 29 709 -9 705 -65C703 -93 699 -129 697 -150C763 -150 818 -146 889 -137C934 -131 945 -150 902 -182ZM546 -543C547 -526 546 -516 545 -493C519 -487 479 -481 441 -474C441 -501 443 -512 445 -525C473 -530 510 -537 546 -543ZM543 -466L538 -408C510 -403 477 -398 441 -393V-447C470 -453 506 -460 543 -466ZM650 -180C611 -175 556 -169 502 -161L506 -218C532 -221 554 -224 573 -229C601 -236 602 -246 587 -254C579 -259 573 -258 509 -248C509 -269 511 -289 512 -305C542 -309 564 -310 587 -312C614 -314 632 -302 638 -279C643 -261 648 -222 650 -180ZM475 -158C432 -153 392 -148 361 -144C365 -197 366 -248 366 -284C411 -291 446 -297 474 -300V-241C457 -238 442 -235 422 -231C393 -225 391 -218 420 -210C424 -210 447 -209 474 -214Z"/>
</svg>