<svg xmlns="http://www.w3.org/2000/svg" viewBox="0 -1000 1000 1000">
	<path fill="#000000" d="M809 -741C796 -746 757 -745 740 -741C694 -728 667 -722 647 -721C655 -733 662 -744 667 -750C679 -767 675 -775 629 -785C599 -792 590 -787 597 -766C605 -745 575 -680 505 -602C487 -582 495 -576 517 -588C556 -612 600 -650 636 -707C661 -697 677 -692 690 -693C730 -695 777 -700 802 -707C840 -716 838 -726 809 -741ZM504 -674C535 -681 535 -703 502 -708C484 -711 456 -708 445 -704C414 -693 400 -688 380 -688C390 -705 399 -714 410 -728C430 -750 431 -762 368 -768C346 -770 338 -768 342 -749C349 -716 287 -620 186 -537C163 -518 170 -508 197 -522C280 -567 336 -619 369 -673C392 -666 404 -664 409 -664C439 -664 479 -668 504 -674ZM723 -607C710 -632 688 -647 642 -650C618 -652 617 -647 629 -632C657 -600 674 -586 690 -580C718 -567 735 -583 723 -607ZM440 -581C434 -600 411 -618 372 -618C342 -618 340 -615 354 -599C378 -571 397 -557 413 -550C434 -542 449 -550 440 -581ZM769 -231C761 -235 742 -234 716 -228C666 -218 650 -215 612 -213C612 -238 612 -271 612 -303C648 -292 682 -293 726 -305C757 -313 757 -333 739 -340C730 -343 724 -343 691 -333C670 -327 638 -320 612 -320C613 -350 614 -377 615 -393C648 -388 690 -390 742 -405C781 -416 790 -434 761 -445C753 -449 727 -446 700 -436C660 -421 647 -418 618 -414C620 -424 624 -434 627 -443C633 -460 628 -469 597 -479C564 -489 556 -482 569 -458C575 -449 580 -425 581 -388C584 -273 580 -218 570 -186C562 -158 568 -135 581 -111C592 -91 600 -94 607 -109C612 -120 613 -139 612 -195C661 -177 702 -178 760 -193C791 -200 790 -222 769 -231ZM503 -410C509 -426 506 -433 467 -449C441 -458 429 -450 444 -429C454 -418 457 -404 460 -381C433 -383 403 -379 349 -366C344 -365 345 -357 358 -351C376 -341 390 -339 412 -345C433 -351 445 -354 461 -358C463 -333 463 -309 463 -286C436 -291 425 -292 415 -289C391 -282 376 -280 357 -278C344 -277 340 -266 359 -256C370 -249 384 -248 419 -260C432 -264 443 -267 463 -269C463 -245 461 -223 459 -204C440 -204 424 -203 393 -196C375 -193 351 -189 333 -187C311 -185 309 -174 326 -162C344 -148 365 -148 383 -156C422 -172 438 -179 456 -183C455 -174 453 -166 450 -158C445 -141 444 -127 453 -109C460 -95 470 -96 479 -111C486 -123 491 -144 491 -172C491 -198 496 -338 496 -358C496 -373 500 -402 503 -410ZM827 -77C799 -91 773 -96 716 -91C541 -77 485 -77 282 -62C300 -317 303 -382 303 -471C343 -462 376 -467 520 -487C621 -502 668 -506 689 -508C743 -512 744 -536 706 -547C691 -551 650 -550 617 -543C463 -508 369 -492 290 -492C234 -516 222 -511 243 -480C256 -461 258 -358 251 -238C241 -70 240 -76 209 -46C200 -37 197 -25 207 -4C217 21 226 20 245 8C274 -11 299 -21 342 -26C507 -44 628 -44 794 -23C878 -12 873 -55 827 -77Z"/>
</svg>