<svg xmlns="http://www.w3.org/2000/svg" viewBox="0 -1000 1000 1000">
	<path fill="#000000" d="M596 -200C585 -199 574 -197 561 -194C533 -189 532 -177 561 -170C564 -170 578 -171 596 -172L597 -134C562 -130 529 -127 510 -125C510 -141 511 -184 511 -225C545 -231 572 -234 595 -237C596 -227 596 -211 596 -200ZM632 -207C632 -222 632 -233 632 -242C650 -244 666 -245 688 -247C710 -249 720 -241 722 -223C726 -199 729 -174 731 -146C681 -141 657 -139 632 -137V-177C644 -178 656 -180 666 -182C693 -188 693 -198 675 -209C672 -211 665 -212 632 -207ZM268 -331C268 -293 268 -259 267 -230C139 -181 112 -178 91 -179C58 -180 51 -157 86 -137C118 -121 125 -123 153 -137C163 -142 220 -170 266 -192C264 -112 261 -75 256 -45C254 -31 239 -29 197 -42C169 -52 162 -36 185 -23C200 -14 234 23 240 47C246 67 261 70 279 50C308 17 318 -28 309 -103C308 -116 308 -163 308 -212C401 -256 404 -262 397 -266C392 -270 373 -271 308 -246C309 -280 310 -310 310 -336C374 -343 389 -345 401 -348C426 -355 428 -372 402 -383C385 -392 356 -389 314 -380C320 -431 323 -451 327 -458C336 -477 333 -490 299 -502C244 -520 231 -504 251 -484C264 -471 268 -456 268 -371C225 -363 191 -358 150 -353C124 -351 122 -335 154 -326C170 -320 186 -320 268 -331ZM643 -338C622 -334 597 -330 572 -326L570 -372C600 -377 625 -381 646 -385ZM530 -439C532 -427 533 -412 534 -397C506 -392 494 -390 489 -390C453 -388 453 -371 489 -366C501 -364 519 -364 536 -367L538 -321C472 -312 448 -310 418 -308C386 -306 384 -298 405 -285C428 -273 439 -273 481 -283C518 -293 554 -299 588 -303C592 -292 594 -278 595 -262C575 -259 550 -256 501 -247C469 -265 456 -253 468 -222C471 -213 472 -189 470 -120C432 -114 408 -112 389 -111C345 -109 344 -101 361 -89C382 -74 395 -74 428 -84C438 -88 453 -90 468 -92C466 -74 464 -59 462 -51C455 -25 454 1 458 18C468 61 499 53 506 -50C507 -65 508 -80 509 -96C621 -108 678 -113 732 -115C733 -95 733 -74 733 -56C732 -17 726 -16 686 -26C657 -34 650 -25 678 0C696 15 711 38 717 54C724 70 739 72 753 54C772 31 783 -2 779 -47C776 -74 775 -97 773 -116C819 -116 855 -112 899 -105C935 -99 945 -115 915 -140C899 -154 880 -159 847 -154C833 -152 810 -149 771 -148C768 -209 770 -231 775 -238C782 -251 780 -262 755 -276C731 -291 722 -292 706 -283C701 -281 685 -277 636 -269C637 -271 639 -273 640 -275C645 -283 641 -295 615 -307C632 -309 647 -311 662 -313C732 -321 775 -321 821 -318C856 -315 864 -342 836 -354C813 -365 786 -365 680 -344L683 -390C707 -395 729 -397 753 -401C787 -406 785 -422 755 -431C744 -434 719 -433 685 -424C687 -438 688 -452 691 -465C721 -469 746 -471 763 -473C799 -477 799 -497 775 -505C768 -507 739 -507 696 -498C698 -509 700 -516 702 -519C708 -528 696 -539 664 -548C639 -555 631 -548 643 -527C646 -522 648 -507 648 -487C621 -482 592 -477 568 -474C572 -504 568 -509 526 -520C505 -526 502 -517 518 -498C521 -495 523 -483 526 -467C502 -463 474 -458 452 -456C424 -454 424 -441 447 -435C460 -432 484 -432 530 -439ZM649 -458C649 -448 648 -429 648 -415C635 -413 612 -409 569 -402C569 -418 568 -433 568 -445C593 -450 627 -455 649 -458ZM389 -548C388 -573 381 -580 330 -605C310 -614 303 -609 309 -589C317 -565 338 -526 348 -516C365 -498 391 -510 389 -548ZM724 -582C715 -612 698 -631 649 -637C622 -640 618 -634 629 -618C641 -600 669 -574 692 -560C714 -547 729 -561 724 -582ZM328 -655C350 -684 362 -701 375 -718C386 -731 381 -745 348 -760C296 -784 287 -775 299 -749C309 -727 253 -603 154 -512C130 -490 141 -480 165 -496C211 -524 261 -569 317 -641C350 -627 367 -623 377 -623C417 -624 464 -631 494 -643C522 -653 521 -676 490 -682C475 -685 465 -684 440 -675C409 -662 363 -655 328 -655ZM638 -684C653 -710 669 -736 675 -744C688 -761 683 -774 630 -787C598 -795 588 -789 595 -770C608 -731 577 -643 476 -547C451 -522 460 -513 492 -531C532 -552 591 -614 625 -662C649 -654 677 -649 698 -651C739 -654 789 -664 804 -671C834 -684 834 -698 800 -711C786 -716 764 -714 735 -705C694 -691 664 -685 638 -684Z"/>
</svg>