<svg xmlns="http://www.w3.org/2000/svg" viewBox="0 -1000 1000 1000">
	<path fill="#000000" d="M410 -586C408 -613 390 -628 336 -634C323 -635 320 -629 328 -619C342 -601 369 -579 386 -571C404 -561 411 -565 410 -586ZM739 -608C742 -634 719 -655 658 -658C634 -659 631 -653 644 -643C670 -619 688 -605 707 -591C726 -579 736 -581 739 -608ZM673 -714C682 -724 697 -740 701 -747C708 -758 705 -767 656 -789C631 -799 624 -793 630 -774C636 -754 606 -695 512 -599C498 -584 505 -576 525 -585C560 -603 602 -636 652 -690C691 -683 733 -684 841 -704C871 -708 871 -726 849 -737C825 -748 789 -746 751 -731C724 -721 696 -714 673 -714ZM362 -692C375 -708 381 -715 386 -721C403 -747 399 -756 344 -774C317 -782 313 -776 321 -759C332 -736 278 -649 173 -569C157 -556 161 -547 184 -555C234 -575 285 -611 339 -665C388 -659 437 -662 519 -676C546 -680 549 -691 538 -704C523 -719 497 -721 444 -706C410 -695 383 -691 362 -692ZM684 -286C681 -265 672 -242 648 -213C630 -211 607 -208 584 -205C594 -239 588 -255 563 -276C604 -280 669 -285 684 -286ZM522 -424C543 -429 554 -430 596 -436C604 -424 609 -410 609 -383C569 -379 503 -372 494 -371C469 -370 469 -363 489 -355C512 -346 534 -344 608 -351C608 -339 607 -321 606 -308C469 -294 400 -289 372 -290C344 -291 342 -280 366 -268C391 -256 398 -253 436 -260C468 -265 502 -270 537 -273C544 -244 550 -226 560 -202C524 -198 500 -196 475 -195C455 -194 453 -189 470 -181C501 -169 526 -167 599 -177C602 -170 603 -157 603 -132C518 -124 417 -116 398 -116C371 -116 370 -107 386 -97C415 -77 428 -75 465 -84C494 -90 512 -93 602 -101C597 8 597 35 604 66C608 89 619 95 630 72C642 44 647 14 652 -104C720 -108 794 -109 854 -104C901 -100 907 -118 882 -139C857 -161 834 -164 778 -153C763 -149 713 -143 653 -137C656 -162 652 -172 645 -182C679 -186 713 -189 726 -190C787 -193 793 -207 781 -217C769 -228 759 -231 684 -219C740 -264 743 -272 729 -289C782 -291 831 -291 866 -287C931 -282 935 -296 913 -311C875 -338 850 -343 748 -326C731 -322 683 -316 644 -312C646 -328 647 -342 647 -355C680 -360 720 -364 771 -370C806 -374 808 -385 783 -396C754 -405 738 -406 651 -389C652 -397 654 -401 656 -404C664 -418 661 -424 637 -441C676 -445 722 -449 737 -450C747 -451 754 -449 757 -443C766 -428 775 -427 814 -482C824 -498 844 -516 864 -533C880 -546 879 -554 843 -574C808 -592 801 -593 771 -582C752 -576 557 -546 476 -539C431 -549 421 -533 442 -513C444 -511 451 -501 479 -450C507 -402 516 -404 522 -424ZM577 -457C559 -454 540 -452 520 -449C511 -474 504 -497 498 -517C518 -518 541 -521 561 -523C563 -504 568 -481 577 -457ZM657 -468C640 -466 623 -464 603 -461C603 -483 597 -505 583 -525C605 -527 627 -531 669 -537C671 -520 666 -497 657 -468ZM698 -540C726 -544 749 -547 755 -547C778 -548 784 -545 780 -532C776 -518 769 -501 757 -482C752 -474 748 -474 741 -474C735 -475 715 -474 682 -470C688 -483 695 -493 704 -504C718 -520 717 -526 698 -540ZM281 -376C281 -350 280 -319 279 -291C196 -230 112 -187 81 -180C51 -174 47 -162 79 -141C121 -113 128 -115 146 -137C153 -146 209 -195 276 -250C273 -174 269 -115 266 -98C261 -70 254 -66 199 -78C179 -83 173 -70 186 -61C225 -33 248 -7 254 10C261 31 279 31 287 16C315 -29 323 -76 319 -139C317 -173 316 -230 317 -282C390 -338 393 -341 392 -348C391 -354 379 -356 371 -351C361 -345 342 -334 317 -317C318 -342 319 -366 319 -385C343 -393 369 -401 398 -411C420 -419 422 -430 402 -437C376 -446 362 -448 322 -435C324 -478 328 -503 332 -512C342 -533 334 -546 299 -560C256 -579 247 -566 259 -545C268 -530 276 -486 280 -421C234 -408 181 -397 143 -393C123 -390 122 -382 137 -375C169 -363 216 -363 281 -376Z"/>
</svg>