<svg xmlns="http://www.w3.org/2000/svg" viewBox="0 -1000 1000 1000">
	<path fill="#000000" d="M750 -649C783 -659 791 -678 721 -700C677 -714 670 -715 646 -698C612 -675 565 -660 519 -653C534 -674 548 -694 558 -714C568 -732 576 -746 581 -751C599 -772 600 -778 548 -798C514 -811 498 -809 509 -778C515 -762 511 -737 497 -709C474 -661 448 -618 419 -583C398 -558 405 -557 434 -573C458 -585 483 -609 505 -635C532 -626 548 -628 606 -646C665 -664 674 -660 655 -614C640 -578 642 -571 671 -595C708 -626 733 -644 750 -649ZM350 -629C331 -678 303 -692 235 -691C211 -691 207 -682 232 -664C281 -626 301 -612 322 -604C341 -596 358 -610 350 -629ZM774 -441C757 -474 728 -495 670 -506C604 -518 573 -524 549 -530C554 -536 557 -540 560 -543C573 -555 570 -571 525 -592C502 -603 486 -601 501 -574C511 -555 480 -473 392 -420C367 -405 376 -392 397 -402C470 -437 504 -466 540 -516C632 -475 692 -445 740 -420C770 -404 789 -413 774 -441ZM367 -551C364 -554 359 -552 301 -514C230 -467 202 -458 184 -460C154 -463 150 -443 188 -414C224 -385 231 -384 245 -405C255 -420 295 -469 319 -491C372 -541 372 -546 367 -551ZM655 -379C682 -387 683 -403 646 -416C600 -431 594 -429 589 -405C585 -385 577 -375 544 -343C530 -331 531 -321 555 -330C582 -339 609 -352 626 -363C640 -372 652 -378 655 -379ZM363 -309C361 -339 340 -351 291 -354C265 -356 258 -353 275 -335C308 -301 319 -291 326 -287C346 -278 365 -286 363 -309ZM914 -19C956 -27 952 -39 909 -45C765 -65 630 -126 478 -235C478 -236 478 -237 478 -238C573 -250 665 -258 720 -254C810 -249 806 -279 752 -301C734 -309 703 -308 639 -293C605 -285 545 -276 478 -266C479 -300 484 -345 488 -356C497 -383 493 -391 452 -403C427 -410 424 -406 436 -377C443 -361 446 -331 446 -261C337 -245 219 -232 175 -228C119 -223 118 -220 156 -200C178 -188 191 -187 237 -198C280 -208 333 -218 389 -227C329 -128 230 -41 117 20C90 35 93 50 122 39C267 -13 373 -96 439 -234C441 -234 444 -235 446 -235C445 -114 437 -57 423 -14C412 20 436 85 454 85C468 85 477 48 481 -9C485 -55 484 -103 479 -205C547 -141 654 -56 680 -36C739 11 751 12 914 -19Z"/>
</svg>