<svg xmlns="http://www.w3.org/2000/svg" viewBox="0 -1000 1000 1000">
	<path fill="#000000" d="M253 -434C271 -439 293 -446 320 -455C356 -468 351 -489 322 -495C304 -498 283 -496 253 -486C254 -593 256 -635 264 -654C278 -687 276 -693 214 -716C162 -734 148 -718 167 -697C192 -672 203 -614 205 -469C167 -454 137 -446 96 -439C68 -434 69 -420 92 -414C120 -406 139 -405 205 -420V-239C136 -199 101 -186 72 -182C31 -178 26 -169 65 -142C101 -118 116 -114 131 -129C169 -165 231 -208 347 -286C392 -317 383 -330 349 -314C324 -303 286 -284 253 -267ZM636 -688C641 -722 646 -737 656 -753C665 -768 662 -777 635 -788C569 -817 555 -801 575 -777C590 -759 593 -733 588 -675C536 -660 514 -656 495 -654C465 -651 464 -642 490 -634C505 -628 532 -628 585 -638C585 -624 585 -604 587 -572C587 -550 604 -547 610 -565C617 -585 624 -613 630 -646C660 -653 697 -661 741 -672C770 -679 769 -697 750 -704C727 -711 703 -708 636 -688ZM501 -523C501 -534 502 -546 506 -565C509 -577 503 -581 454 -594C420 -604 407 -588 425 -572C437 -560 445 -546 455 -517C425 -513 395 -509 365 -506C347 -504 344 -486 372 -478C401 -470 415 -471 464 -484C472 -457 478 -446 496 -431C502 -425 507 -427 508 -440C510 -456 509 -471 506 -493C570 -506 642 -517 688 -522C677 -496 667 -479 656 -461C651 -453 660 -446 672 -455C696 -472 716 -491 737 -527C798 -534 855 -536 897 -534C938 -532 941 -544 924 -561C896 -591 872 -590 831 -580C809 -575 788 -570 757 -565C766 -576 772 -586 777 -591C790 -608 779 -620 742 -635C709 -647 700 -634 705 -621C712 -606 711 -582 702 -554C644 -544 575 -533 501 -523ZM804 36C808 -28 783 -63 673 -111C656 -120 647 -109 653 -101C692 -51 730 3 762 49C779 74 802 68 804 36ZM562 -66C588 -80 588 -92 533 -110C504 -120 489 -113 493 -95C498 -69 438 -10 341 46C324 57 330 68 348 64C411 49 465 23 507 -19C532 -42 553 -61 562 -66ZM488 -407C442 -430 428 -422 440 -396C448 -377 455 -340 453 -280C451 -230 450 -209 446 -195C438 -160 438 -145 453 -116C460 -103 479 -104 488 -135C528 -136 563 -139 637 -147C683 -153 706 -154 720 -152C730 -127 734 -119 740 -105C746 -93 759 -93 766 -109C781 -146 784 -177 777 -263C771 -339 774 -381 782 -393C793 -407 787 -417 762 -431C714 -454 705 -454 678 -445C630 -428 538 -411 488 -407ZM719 -178C697 -189 678 -187 631 -179C594 -173 553 -169 493 -165C494 -181 495 -202 495 -223C554 -219 600 -223 651 -237C676 -244 679 -256 671 -262C657 -272 636 -273 592 -262C541 -249 518 -244 495 -243C495 -268 495 -289 495 -305C537 -302 591 -308 657 -327C677 -333 677 -340 666 -348C651 -359 638 -361 594 -349C537 -335 513 -330 495 -328C495 -352 495 -367 496 -380C588 -395 635 -401 677 -405C703 -407 711 -405 717 -363C729 -283 727 -215 719 -178Z"/>
</svg>