<svg xmlns="http://www.w3.org/2000/svg" viewBox="0 -1000 1000 1000">
	<path fill="#000000" d="M170 -43C180 -80 161 -118 100 -152C84 -160 80 -155 85 -135C97 -99 117 -51 128 -29C141 -7 164 -20 170 -43ZM272 -111C280 -156 264 -179 214 -194C197 -199 190 -193 195 -178C202 -158 219 -122 236 -101C250 -87 269 -93 272 -111ZM370 -159C378 -193 366 -227 309 -249C297 -255 293 -250 296 -236C304 -202 320 -170 335 -149C347 -134 366 -137 370 -159ZM288 -334C249 -320 207 -309 187 -305C310 -470 363 -535 376 -546C397 -560 400 -570 358 -612C334 -636 320 -627 322 -606C324 -585 317 -555 275 -488C241 -485 206 -484 177 -483C246 -610 268 -643 292 -672C310 -694 306 -719 257 -749C224 -768 214 -756 222 -737C231 -715 225 -674 199 -612C169 -539 147 -504 117 -492C104 -487 101 -477 110 -455C123 -420 130 -417 152 -427C195 -445 225 -454 257 -459C202 -374 161 -322 134 -308C120 -301 119 -292 136 -265C159 -230 164 -230 179 -244C198 -265 239 -290 296 -312C300 -302 305 -293 309 -285C319 -267 337 -271 342 -291C354 -334 347 -353 298 -384C283 -395 272 -392 276 -375C280 -363 284 -348 288 -334ZM671 -611C687 -569 692 -485 677 -274C657 -271 637 -269 624 -268C624 -351 627 -403 632 -425C638 -452 634 -469 609 -482C567 -504 559 -496 569 -470C584 -438 590 -390 587 -331C584 -293 578 -274 567 -268C557 -262 557 -255 569 -229C578 -210 590 -208 612 -219C635 -231 666 -240 704 -242C752 -245 803 -246 834 -243C886 -238 893 -260 856 -281C828 -298 802 -302 773 -293C762 -289 742 -284 719 -280L727 -450C762 -442 794 -445 848 -469C863 -475 863 -490 848 -497C820 -508 807 -507 728 -476C730 -534 732 -546 740 -571C748 -594 745 -603 704 -625C717 -631 733 -639 744 -646C759 -654 784 -665 818 -677C845 -686 844 -702 805 -728C766 -755 749 -749 749 -734C749 -708 706 -664 587 -604C568 -594 572 -584 590 -587C615 -591 642 -600 671 -611ZM496 -246C500 -261 504 -276 507 -292C518 -345 521 -358 529 -368C539 -380 534 -397 516 -407C488 -425 478 -427 452 -420C511 -552 521 -571 546 -590C566 -605 562 -620 529 -637C497 -652 492 -651 485 -645C463 -626 434 -613 411 -607C395 -603 394 -594 412 -587C434 -578 450 -578 465 -583C474 -586 478 -582 472 -560C454 -486 436 -455 407 -427C399 -419 398 -413 401 -401C407 -383 419 -379 440 -392C459 -403 470 -396 469 -361C468 -329 465 -306 458 -278C410 -319 395 -325 377 -324C352 -322 351 -306 367 -299C395 -287 416 -271 447 -241C422 -168 371 -97 287 -39C273 -30 278 -16 296 -25C395 -72 451 -127 484 -209C556 -145 619 -91 721 -8C745 10 756 13 937 -25C962 -30 962 -47 927 -52C765 -72 664 -109 496 -246Z"/>
</svg>