<svg xmlns="http://www.w3.org/2000/svg" viewBox="0 -1000 1000 1000">
	<path fill="#000000" d="M144 -96C153 -129 141 -172 68 -215C54 -224 51 -221 56 -198C67 -153 87 -102 106 -76C117 -59 133 -65 144 -96ZM593 -129C597 -152 589 -166 532 -196C514 -205 508 -202 514 -180C532 -123 539 -110 551 -99C570 -81 584 -87 593 -129ZM237 -181C242 -205 233 -227 172 -249C155 -256 152 -252 156 -240C167 -207 180 -188 204 -161C221 -143 230 -147 237 -181ZM324 -239C325 -268 314 -282 263 -295C241 -300 237 -296 242 -286C261 -253 270 -241 293 -219C313 -200 323 -204 324 -239ZM719 -668C708 -672 688 -674 665 -667C570 -638 546 -631 525 -627C513 -625 511 -619 523 -614C538 -606 581 -607 614 -614C644 -620 684 -629 714 -639C737 -646 739 -662 719 -668ZM732 -278C733 -287 734 -295 736 -300C745 -330 740 -334 701 -350C658 -369 647 -355 663 -334C668 -327 676 -299 679 -271C519 -252 464 -247 429 -246C410 -245 409 -239 424 -230C454 -207 464 -205 493 -212C538 -223 609 -232 681 -238C685 -182 683 -114 677 -72C673 -43 662 -40 584 -57C559 -62 557 -52 571 -41C613 -12 641 13 656 39C662 50 678 54 692 40C732 -4 741 -54 734 -128C731 -163 729 -209 730 -242C836 -248 878 -248 920 -243C943 -240 951 -258 936 -270C900 -298 882 -299 836 -294C807 -289 771 -283 732 -278ZM618 -525C660 -533 727 -547 782 -562C816 -572 815 -589 796 -593C773 -598 752 -596 709 -585C539 -540 507 -535 481 -536C490 -613 493 -657 493 -688C518 -686 531 -687 593 -698C727 -723 747 -727 769 -733C804 -744 803 -762 774 -772C748 -780 742 -780 683 -760C607 -734 539 -721 475 -719C432 -744 416 -733 426 -711C441 -678 443 -630 437 -568C416 -346 379 -242 291 -118C269 -88 279 -77 303 -101C394 -184 458 -313 480 -520C495 -514 507 -512 525 -513C530 -428 523 -388 506 -367C491 -347 490 -341 507 -316C522 -296 528 -294 547 -313C556 -322 575 -338 647 -392C659 -399 662 -405 660 -409C657 -413 648 -412 638 -407C603 -394 587 -388 562 -378C569 -466 568 -492 563 -516C571 -518 579 -519 589 -520C656 -456 704 -411 757 -364C797 -330 806 -325 947 -348C966 -351 966 -364 944 -368C844 -386 772 -416 728 -445C764 -471 791 -486 814 -496C834 -503 834 -517 816 -526C771 -550 764 -547 761 -531C756 -512 746 -490 711 -457C660 -496 637 -513 618 -525ZM292 -374C248 -363 219 -355 169 -346C322 -532 357 -573 362 -577C386 -598 386 -609 357 -633C320 -663 306 -656 310 -629C314 -610 305 -591 251 -507C214 -505 176 -504 149 -504C241 -654 279 -707 290 -716C309 -733 313 -748 270 -779C232 -809 216 -797 222 -774C228 -749 221 -711 199 -667C156 -576 119 -521 93 -512C66 -503 64 -491 80 -467C99 -436 104 -436 130 -448C158 -462 191 -472 232 -478C188 -413 135 -354 124 -351C100 -344 93 -331 106 -310C126 -275 137 -274 162 -293C176 -303 246 -334 304 -353C312 -344 318 -334 325 -324C335 -308 351 -312 357 -338C366 -376 360 -389 280 -437C271 -442 265 -437 268 -425C271 -413 278 -399 292 -374Z"/>
</svg>