<svg xmlns="http://www.w3.org/2000/svg" viewBox="0 -1000 1000 1000">
	<path fill="#000000" d="M191 -50C200 -87 182 -124 118 -158C101 -166 96 -160 102 -141C118 -96 133 -59 147 -35C157 -17 184 -22 191 -50ZM298 -112C306 -147 291 -178 239 -195C225 -200 218 -194 224 -175C233 -148 247 -123 265 -102C279 -88 294 -94 298 -112ZM410 -173C412 -203 403 -216 345 -242C330 -249 325 -245 330 -228C340 -195 358 -168 374 -149C388 -134 408 -142 410 -173ZM348 -331C300 -321 265 -315 211 -305C345 -466 384 -507 401 -519C424 -535 423 -549 386 -587C362 -612 342 -607 347 -583C350 -562 339 -533 306 -483C267 -481 224 -481 192 -482C268 -607 291 -639 316 -662C337 -682 335 -699 287 -739C252 -766 234 -754 246 -729C256 -707 249 -665 222 -610C173 -509 156 -493 129 -489C118 -487 114 -480 123 -456C134 -427 144 -419 168 -429C217 -446 251 -453 288 -456C202 -334 181 -316 152 -306C134 -300 133 -287 147 -261C162 -228 181 -227 198 -241C225 -263 286 -285 358 -305C377 -259 396 -257 403 -290C412 -328 401 -364 354 -392C334 -403 329 -400 332 -382C335 -367 341 -348 348 -331ZM878 30C875 -26 853 -49 722 -113C707 -122 701 -114 710 -102C743 -60 791 -2 835 47C858 74 880 73 878 30ZM539 -121C533 -93 466 -31 348 49C338 56 338 65 351 62C402 47 501 0 566 -53C569 -56 584 -66 604 -76C632 -92 632 -97 585 -128C557 -146 544 -143 539 -121ZM527 -157C545 -155 566 -156 630 -161C666 -164 717 -169 763 -173C778 -174 782 -172 787 -157C795 -135 807 -122 817 -116C823 -112 827 -113 833 -122C845 -141 851 -162 852 -266C852 -286 852 -385 852 -406C852 -427 856 -456 867 -467C879 -479 877 -496 846 -512C798 -538 787 -539 766 -528C743 -517 596 -495 524 -492C481 -514 474 -504 482 -480C492 -451 496 -406 495 -365C492 -270 490 -249 486 -227C480 -203 488 -166 495 -155C510 -130 516 -130 527 -157ZM539 -388C540 -422 540 -446 541 -463C612 -472 667 -477 735 -482C769 -485 776 -483 783 -453C798 -396 798 -265 787 -209C784 -190 778 -190 770 -196C752 -208 714 -211 663 -201C589 -187 562 -183 534 -183C535 -212 536 -240 536 -264C585 -261 691 -270 734 -287C755 -297 752 -312 728 -317C704 -322 676 -322 619 -305C602 -300 568 -295 537 -293C538 -320 538 -344 539 -366C591 -360 714 -374 736 -393C748 -403 743 -416 719 -418C699 -420 686 -420 539 -388ZM583 -568C654 -578 744 -584 770 -583C791 -583 795 -591 783 -609C777 -617 778 -624 788 -639C803 -658 817 -673 832 -682C851 -694 850 -706 802 -739C775 -757 755 -759 735 -748C704 -733 600 -713 532 -709C480 -723 474 -710 492 -689C503 -676 531 -621 543 -588C547 -579 557 -565 565 -556C573 -550 581 -552 583 -568ZM561 -679C651 -694 688 -699 731 -704C738 -704 743 -699 741 -684C740 -673 734 -648 730 -638C722 -624 717 -620 708 -618C679 -611 646 -605 579 -594C568 -648 564 -665 561 -679Z"/>
</svg>