<svg xmlns="http://www.w3.org/2000/svg" viewBox="0 -1000 1000 1000">
	<path fill="#000000" d="M272 -124C297 -172 287 -197 214 -221C201 -225 199 -222 203 -212C223 -158 235 -136 250 -119C257 -109 266 -110 272 -124ZM378 -162C403 -199 389 -242 312 -267C301 -270 298 -268 302 -258C314 -227 329 -196 349 -166C360 -148 368 -147 378 -162ZM150 -63C181 -114 163 -177 92 -209C79 -215 75 -212 78 -198C85 -164 104 -101 121 -65C130 -44 137 -42 150 -63ZM313 -360C272 -346 230 -335 192 -325C286 -444 368 -535 393 -553C413 -569 412 -585 376 -613C341 -640 328 -635 334 -609C338 -592 324 -559 286 -502C249 -499 213 -498 164 -495C260 -634 274 -652 321 -695C336 -710 334 -718 294 -758C260 -792 244 -781 252 -753C258 -733 247 -693 230 -664C166 -553 136 -517 111 -506C91 -498 84 -486 92 -466C104 -433 115 -430 141 -441C167 -452 216 -465 265 -472C189 -362 167 -338 147 -328C116 -312 113 -302 132 -279C158 -249 167 -247 192 -268C211 -283 260 -309 330 -334C358 -298 369 -302 375 -329C386 -369 367 -388 308 -413C293 -419 290 -416 296 -399C300 -384 306 -371 313 -360ZM729 -481C730 -513 704 -533 649 -532C630 -532 628 -524 643 -509C675 -477 684 -472 701 -466C719 -457 728 -461 729 -481ZM625 -607C563 -592 555 -590 541 -587C526 -583 520 -586 523 -608C530 -655 516 -671 495 -678C452 -692 445 -683 464 -653C482 -623 489 -590 475 -579C459 -566 457 -556 469 -532C475 -518 482 -517 522 -537C565 -558 627 -575 785 -610C776 -568 776 -555 784 -550C793 -545 804 -553 827 -595C855 -649 859 -658 866 -664C881 -679 884 -693 829 -726C801 -743 785 -732 797 -710C803 -697 803 -685 793 -640C730 -627 708 -623 669 -616C673 -691 680 -725 687 -738C704 -764 699 -777 638 -805C606 -819 594 -807 613 -771C622 -755 630 -692 625 -607ZM476 -368C488 -278 475 -62 458 -27C444 1 446 22 465 56C480 82 494 83 501 60C512 26 515 -2 516 -63C542 -54 558 -53 581 -57C668 -74 809 -87 846 -84C940 -75 943 -88 913 -116C885 -143 851 -144 801 -131C782 -126 763 -122 716 -113C717 -145 717 -171 717 -194C751 -202 773 -207 793 -213C830 -225 828 -235 801 -242C780 -247 771 -246 717 -231C718 -259 718 -278 719 -292C746 -298 774 -308 798 -316C839 -332 838 -347 804 -349C789 -350 778 -349 725 -332C735 -369 733 -377 704 -399C764 -413 789 -420 813 -428C860 -442 863 -446 846 -456C836 -463 801 -467 766 -454C703 -433 621 -410 580 -404C546 -399 548 -384 577 -380C591 -378 629 -382 664 -389C670 -376 672 -367 672 -315C643 -307 603 -297 584 -293C556 -286 556 -277 584 -273C602 -271 629 -273 672 -281C672 -256 672 -235 672 -218C643 -211 594 -201 580 -199C557 -195 560 -183 578 -179C598 -174 613 -174 671 -184C671 -157 670 -136 668 -105C619 -99 567 -93 516 -89C516 -227 519 -307 522 -333C527 -371 525 -384 503 -404C531 -444 546 -465 555 -471C572 -485 573 -493 537 -519C513 -536 498 -527 503 -508C509 -484 442 -381 381 -312C359 -289 370 -274 394 -293C428 -318 453 -341 476 -368Z"/>
</svg>