<svg xmlns="http://www.w3.org/2000/svg" viewBox="0 -1000 1000 1000">
	<path fill="#000000" d="M153 -60C162 -97 144 -134 80 -168C63 -176 58 -170 64 -152C79 -107 93 -72 109 -45C120 -25 147 -33 153 -60ZM265 -140C273 -172 253 -203 209 -214C193 -218 188 -213 193 -199C200 -178 214 -150 232 -130C246 -115 261 -122 265 -140ZM374 -175C385 -213 369 -243 310 -266C297 -271 293 -268 297 -252C306 -218 322 -189 337 -168C354 -146 368 -155 374 -175ZM299 -355C255 -341 207 -329 173 -321C319 -512 340 -539 351 -546C374 -562 377 -572 335 -612C310 -636 294 -627 298 -606C302 -585 290 -548 262 -504C236 -502 205 -501 157 -500C229 -627 254 -664 279 -688C298 -707 293 -722 242 -759C206 -786 190 -773 202 -749C213 -727 209 -688 183 -628C143 -536 123 -514 94 -507C83 -504 81 -493 89 -472C103 -436 115 -436 135 -445C175 -463 207 -472 245 -477C162 -351 146 -334 119 -325C102 -318 99 -310 117 -281C136 -249 144 -248 161 -265C181 -283 209 -297 307 -334C310 -327 315 -320 318 -314C333 -289 355 -292 359 -319C364 -354 354 -375 308 -401C289 -411 284 -408 288 -392C291 -379 295 -367 299 -355ZM681 -401C724 -408 756 -411 813 -414C832 -415 836 -433 815 -452C830 -484 840 -499 855 -509C874 -522 874 -531 833 -557C805 -576 793 -574 777 -566C753 -552 714 -542 660 -539C616 -561 597 -548 613 -522C626 -502 628 -496 645 -413C652 -380 674 -375 681 -401ZM674 -513C708 -520 741 -524 768 -525C783 -525 786 -523 783 -509C772 -457 766 -448 747 -443C729 -438 708 -434 681 -432C676 -472 675 -482 674 -513ZM441 -387C473 -395 506 -400 548 -405C569 -407 573 -420 554 -436C562 -464 571 -482 585 -493C599 -504 599 -512 565 -532C534 -549 527 -548 507 -538C487 -527 451 -518 405 -515C364 -533 347 -518 367 -492C376 -481 384 -463 404 -397C413 -367 431 -364 441 -387ZM423 -490C436 -493 443 -495 498 -504C514 -507 521 -505 520 -486C516 -443 512 -435 495 -429C475 -421 460 -417 440 -414C431 -447 425 -477 423 -490ZM572 -307C462 -294 412 -291 370 -291C342 -291 340 -284 367 -268C390 -253 401 -252 448 -263C467 -267 495 -270 528 -274C459 -169 415 -119 318 -46C288 -24 291 -15 323 -27C423 -67 509 -154 573 -262C573 -162 568 -81 561 -58C546 -10 546 9 566 41C583 68 596 69 607 30C615 -2 616 -24 615 -72C613 -152 612 -211 613 -256C666 -197 714 -142 748 -102C777 -68 791 -64 909 -79C952 -85 954 -97 913 -107C820 -131 771 -156 623 -282C700 -289 777 -292 807 -289C887 -280 897 -302 856 -327C833 -341 808 -345 748 -333C726 -328 675 -320 616 -312C617 -334 621 -347 624 -352C634 -369 634 -376 593 -392C550 -407 541 -399 560 -371C568 -358 571 -339 572 -307ZM550 -595C600 -604 674 -611 712 -613C738 -614 745 -634 725 -652C734 -687 745 -702 759 -710C782 -725 784 -739 738 -762C701 -781 691 -780 675 -771C649 -755 603 -743 499 -733C456 -752 438 -734 457 -714C475 -693 487 -672 510 -599C521 -566 539 -567 550 -595ZM521 -703C558 -709 600 -715 654 -723C679 -727 682 -726 679 -710C669 -651 667 -647 649 -643C632 -639 590 -630 545 -622C539 -647 529 -680 521 -703Z"/>
</svg>