<svg xmlns="http://www.w3.org/2000/svg" viewBox="0 -1000 1000 1000">
	<path fill="#000000" d="M145 -62C152 -97 125 -141 77 -162C65 -166 56 -158 60 -143C69 -111 85 -83 103 -55C120 -30 138 -31 145 -62ZM258 -144C260 -176 241 -195 196 -206C175 -211 169 -201 180 -187C195 -163 218 -133 232 -121C242 -111 257 -120 258 -144ZM527 -161C533 -191 529 -198 503 -209C476 -219 473 -211 482 -189C489 -172 489 -120 485 -80C481 -56 474 -38 456 -24C447 -18 445 -9 453 13C461 39 466 39 479 27C527 -17 553 -33 625 -74C643 -85 641 -93 621 -88C606 -85 553 -68 514 -55C516 -86 520 -114 523 -138C539 -133 563 -135 615 -150C632 -156 630 -171 622 -174C601 -183 590 -182 575 -176C563 -172 543 -166 527 -161ZM701 -152C702 -172 703 -188 705 -193C711 -209 707 -219 679 -237C652 -255 643 -247 651 -228C663 -204 666 -178 667 -67C668 -29 687 5 734 18C783 34 879 28 922 -5C943 -20 946 -29 940 -52C933 -73 930 -90 928 -137C928 -166 922 -169 913 -139C889 -61 881 -50 865 -41C834 -28 783 -19 750 -25C709 -33 702 -52 701 -85C701 -99 701 -113 701 -127C769 -150 806 -164 854 -182C874 -190 873 -197 847 -221C820 -245 807 -243 806 -225C803 -202 756 -172 701 -152ZM359 -191C359 -218 353 -233 295 -249C278 -253 272 -248 279 -234C290 -207 302 -194 331 -168C344 -157 359 -167 359 -191ZM690 -360C708 -364 719 -365 736 -367C759 -369 760 -362 756 -342C753 -326 750 -315 746 -301C745 -296 742 -295 725 -296C715 -297 705 -296 672 -287ZM642 -280C626 -277 603 -273 577 -269L580 -336C612 -343 636 -348 653 -352ZM622 -464C530 -443 487 -437 458 -435C403 -464 396 -448 409 -425C425 -399 412 -285 386 -171C370 -110 347 -56 294 17C276 41 285 48 312 27C383 -32 424 -112 450 -268C459 -324 464 -381 466 -413C485 -410 510 -413 559 -423C575 -427 595 -430 651 -438C657 -424 660 -404 658 -379C628 -373 603 -367 581 -363C582 -373 583 -380 584 -388C585 -399 583 -402 554 -412C539 -417 534 -411 542 -395C545 -386 549 -373 550 -358C530 -353 513 -351 500 -350C478 -348 477 -342 495 -333C508 -326 528 -326 551 -330L549 -265C521 -261 493 -258 475 -256C458 -253 457 -246 475 -240C506 -230 519 -231 551 -238C646 -259 675 -263 713 -267C734 -269 738 -266 742 -259C747 -248 753 -248 767 -265C779 -280 784 -290 793 -310C801 -331 812 -344 821 -351C831 -359 831 -370 801 -394C779 -411 772 -410 750 -401C738 -396 725 -395 696 -388C697 -395 699 -400 702 -405C708 -418 707 -427 678 -442C704 -445 736 -450 775 -455C804 -459 805 -471 786 -483C775 -491 753 -492 720 -485C690 -478 672 -474 651 -470C651 -502 638 -515 607 -522C590 -526 587 -520 590 -513C597 -497 607 -481 622 -464ZM513 -521C523 -540 522 -551 489 -583C478 -593 471 -588 476 -568C480 -549 488 -526 490 -519C493 -506 506 -505 513 -521ZM754 -549C762 -566 755 -587 724 -607C710 -615 705 -611 709 -596C716 -576 720 -559 728 -540C733 -527 746 -524 754 -549ZM426 -627C389 -640 384 -630 394 -615C404 -600 417 -534 417 -508C417 -497 421 -484 429 -475C439 -463 446 -466 450 -490C453 -511 450 -538 438 -605C480 -615 523 -623 538 -626C547 -628 551 -624 553 -612C555 -577 550 -554 544 -539C539 -525 540 -512 548 -490C553 -481 562 -480 570 -496C575 -505 579 -525 583 -553C590 -596 593 -609 603 -622C615 -638 614 -646 590 -658C567 -670 561 -670 545 -659C535 -653 477 -637 426 -627ZM663 -654C632 -671 622 -661 634 -641C639 -629 646 -578 645 -555C644 -536 647 -522 654 -512C663 -499 672 -500 675 -513C679 -531 679 -575 675 -630C720 -638 755 -644 782 -648C796 -650 799 -646 799 -629C800 -585 797 -557 791 -536C786 -515 786 -506 797 -485C801 -477 814 -477 824 -500C831 -513 834 -522 842 -583C845 -609 850 -624 859 -636C870 -649 868 -659 836 -676C815 -686 807 -687 787 -680C749 -667 699 -656 663 -654ZM234 -451C160 -329 150 -316 124 -302C108 -293 107 -289 119 -262C133 -233 146 -230 168 -250C188 -268 242 -292 305 -317C312 -307 317 -299 322 -294C334 -281 348 -285 352 -314C356 -345 338 -364 292 -390C280 -398 272 -392 278 -376C282 -364 289 -348 296 -334C257 -322 229 -315 182 -304C232 -395 322 -523 352 -547C371 -562 369 -576 339 -596C300 -623 292 -617 291 -590C290 -558 274 -519 249 -474C214 -473 173 -474 147 -474C181 -526 214 -586 237 -635C254 -668 257 -674 268 -684C283 -697 286 -716 257 -734C211 -764 192 -758 201 -737C214 -706 205 -663 182 -611C149 -536 130 -509 111 -497C82 -477 78 -466 83 -447C92 -415 102 -408 121 -419C145 -433 188 -446 234 -451ZM601 -740C580 -751 558 -751 545 -746C495 -727 450 -715 413 -712C404 -711 401 -698 418 -694C453 -685 479 -684 599 -717C609 -719 612 -733 601 -740ZM845 -762C827 -771 798 -768 771 -759C724 -744 680 -732 656 -730C635 -728 634 -723 654 -714C688 -698 721 -701 843 -736C858 -740 860 -755 845 -762Z"/>
</svg>