<svg xmlns="http://www.w3.org/2000/svg" viewBox="0 -1000 1000 1000">
	<path fill="#000000" d="M451 -324C395 -219 284 -119 173 -55C155 -43 161 -26 181 -35C318 -96 440 -207 496 -305C525 -256 532 -203 525 -89C522 -41 512 -37 445 -55C419 -62 417 -51 432 -39C474 -7 491 9 501 41C505 54 526 58 540 40C579 -5 592 -35 584 -148C578 -250 563 -295 515 -333C595 -344 670 -350 720 -351C749 -352 757 -338 707 -278C697 -266 703 -258 721 -267C766 -290 798 -300 844 -307C877 -312 882 -328 823 -372C785 -401 772 -401 747 -395C739 -393 727 -390 504 -360C230 -321 195 -317 166 -318C134 -319 132 -305 161 -292C200 -273 215 -272 262 -284C319 -300 385 -313 451 -324ZM523 -419C512 -427 493 -433 461 -437C439 -440 433 -431 444 -417C469 -388 491 -375 512 -368C530 -362 541 -369 533 -401C611 -455 653 -468 684 -475C717 -482 722 -498 677 -523C646 -542 627 -541 603 -530C578 -517 369 -492 307 -493C279 -493 273 -483 287 -474C320 -450 338 -447 384 -459C427 -471 489 -482 591 -495C611 -498 614 -490 523 -419ZM255 -708C199 -730 189 -718 207 -694C240 -653 264 -614 289 -559C300 -534 319 -531 322 -547C404 -561 528 -577 598 -580C628 -581 632 -580 639 -564C645 -549 656 -548 672 -562C697 -586 715 -604 735 -630C752 -654 767 -668 796 -683C818 -695 817 -713 755 -749C731 -764 714 -766 686 -758C673 -754 597 -743 459 -726C351 -713 321 -711 255 -708ZM393 -693C391 -655 395 -635 413 -588C383 -583 351 -579 319 -573C307 -619 293 -658 276 -686C300 -683 332 -685 393 -693ZM542 -603C558 -631 568 -649 577 -663C589 -681 588 -691 559 -712C597 -715 636 -717 672 -718C693 -719 704 -710 701 -694C697 -677 681 -646 656 -609C649 -601 643 -600 624 -606C617 -608 587 -608 542 -603ZM522 -709C528 -686 525 -651 512 -600C488 -598 460 -594 431 -590C444 -637 437 -660 412 -696C444 -702 467 -704 522 -709Z"/>
</svg>