<svg xmlns="http://www.w3.org/2000/svg" viewBox="0 -1000 1000 1000">
	<path fill="#000000" d="M321 -573C450 -595 547 -606 624 -610C662 -612 667 -608 676 -592C683 -580 694 -579 710 -594C719 -603 733 -623 745 -646C777 -704 781 -711 785 -713C811 -728 810 -743 757 -771C720 -790 712 -789 681 -780C669 -777 652 -774 484 -749C368 -731 316 -725 247 -722C198 -738 188 -722 213 -703C230 -689 242 -664 288 -571C302 -540 327 -550 321 -573ZM410 -616C365 -610 353 -608 314 -602C304 -636 293 -671 281 -694C312 -694 355 -697 394 -703C398 -669 404 -636 410 -616ZM585 -731C618 -734 646 -737 673 -738C702 -739 710 -729 706 -711C697 -667 691 -652 683 -642C676 -631 669 -630 649 -638C643 -640 616 -640 567 -635C584 -674 592 -686 603 -699C614 -712 613 -717 585 -731ZM533 -631C506 -628 474 -624 438 -620C448 -651 444 -676 419 -707C471 -717 514 -723 550 -727C553 -708 548 -675 533 -631ZM477 -286C417 -309 406 -289 446 -259C458 -250 467 -240 473 -230C419 -226 376 -223 245 -213C176 -208 150 -207 112 -207C74 -207 73 -199 112 -173C138 -156 154 -155 232 -170C295 -182 349 -189 486 -199C491 -171 494 -126 491 -102C479 -25 464 -9 363 -46C339 -56 335 -44 355 -28C395 5 415 26 434 51C466 94 481 96 523 23C550 -27 557 -116 536 -202C677 -210 750 -209 827 -198C894 -188 902 -210 855 -242C823 -264 787 -270 737 -257C728 -255 684 -249 525 -234C519 -245 510 -258 501 -267C585 -315 627 -334 647 -338C686 -345 686 -366 634 -395C599 -413 583 -415 557 -402C522 -384 326 -350 289 -355C250 -361 244 -348 274 -327C296 -312 322 -309 350 -317C401 -333 487 -356 547 -368C573 -373 576 -368 564 -353C557 -345 519 -314 477 -286ZM432 -501C411 -508 402 -500 410 -485C424 -461 434 -441 444 -425C457 -405 477 -411 481 -437C486 -467 474 -487 432 -501ZM710 -526C671 -549 661 -548 653 -532C646 -515 615 -489 539 -455C523 -448 527 -434 550 -440C678 -474 696 -476 718 -477C757 -479 760 -498 710 -526ZM264 -474C244 -479 239 -472 247 -459C265 -430 286 -407 300 -396C316 -383 334 -386 338 -408C344 -442 327 -459 264 -474ZM331 -517C313 -512 313 -501 331 -502C375 -504 457 -519 536 -541C558 -547 578 -550 599 -553C616 -556 616 -567 598 -577C587 -584 570 -593 556 -599C543 -603 538 -601 525 -589C507 -574 430 -544 331 -517Z"/>
</svg>