<svg xmlns="http://www.w3.org/2000/svg" viewBox="0 -1000 1000 1000">
	<path fill="#000000" d="M571 -399C562 -417 537 -422 511 -417C491 -413 489 -401 504 -390C518 -382 538 -372 556 -370C573 -368 580 -383 571 -399ZM779 -442C771 -454 745 -461 721 -453C700 -446 699 -434 711 -428C732 -417 746 -413 764 -411C785 -408 791 -421 779 -442ZM583 -481C574 -497 554 -506 528 -501C512 -498 509 -488 523 -475C533 -465 548 -457 566 -453C580 -450 593 -466 583 -481ZM766 -527C756 -540 733 -546 712 -540C688 -533 686 -520 700 -512C716 -501 726 -499 753 -499C771 -499 774 -517 766 -527ZM466 -166C491 -171 516 -175 540 -180C539 -133 542 -98 547 -76C551 -56 566 -58 573 -79C578 -96 582 -125 580 -188C607 -193 633 -197 656 -201C653 -153 652 -103 653 -52C653 -17 670 -15 681 -41C698 -79 706 -158 702 -208C728 -211 747 -214 759 -215C802 -219 815 -213 816 -186C818 -149 816 -129 805 -72C800 -49 788 -43 744 -58C726 -64 719 -54 731 -41C769 -1 777 10 783 27C789 44 799 44 814 29C845 -1 864 -35 871 -98C878 -165 882 -188 892 -200C910 -221 910 -230 863 -255C828 -273 819 -272 786 -259C776 -255 708 -240 599 -221C606 -232 613 -241 626 -258C638 -273 639 -280 618 -300C657 -307 702 -318 755 -334C796 -345 797 -358 788 -364C772 -375 742 -377 719 -369C663 -349 545 -318 500 -314C478 -312 477 -297 500 -292C518 -287 544 -287 580 -293C582 -268 577 -247 562 -213C528 -207 492 -201 453 -194C403 -214 393 -201 410 -174C422 -158 432 -111 434 -66C435 -32 437 -27 450 -12C457 -3 468 -4 472 -15C477 -28 480 -45 479 -67C478 -91 473 -129 466 -166ZM609 -683C617 -661 622 -635 622 -603C574 -593 527 -584 494 -579C474 -609 468 -609 463 -582C458 -552 446 -535 431 -513C424 -504 423 -485 433 -464C442 -445 453 -443 464 -455C476 -470 489 -502 496 -554C516 -552 536 -554 562 -559C582 -565 603 -569 622 -573C618 -445 621 -411 625 -400C636 -369 648 -372 656 -399C661 -417 665 -440 665 -467C665 -496 664 -554 664 -581C710 -590 746 -596 771 -600C811 -605 821 -595 798 -544C790 -528 796 -524 810 -535C848 -564 871 -572 899 -577C925 -582 925 -602 880 -630C841 -655 824 -657 797 -645C780 -638 726 -624 664 -611C665 -627 665 -634 666 -638C671 -668 668 -679 657 -690C699 -699 721 -706 762 -721C793 -733 793 -747 777 -757C762 -767 720 -766 693 -754C644 -732 576 -716 526 -710C504 -707 503 -693 527 -686C543 -681 574 -679 609 -683ZM263 -628C263 -658 239 -685 191 -696C158 -704 152 -694 168 -672C184 -650 203 -625 216 -613C242 -585 263 -598 263 -628ZM451 -718C476 -731 475 -744 438 -765C398 -789 383 -784 385 -753C386 -734 351 -678 308 -631C294 -615 300 -603 323 -618C349 -635 375 -657 397 -679C406 -688 437 -711 451 -718ZM261 -432C217 -419 206 -417 181 -413C149 -408 149 -396 179 -389C195 -386 230 -386 260 -390C259 -363 257 -330 255 -312C163 -284 97 -272 67 -273C34 -274 29 -260 62 -235C98 -208 108 -207 137 -225C163 -240 205 -257 249 -271C228 -159 179 -73 93 3C72 23 83 36 107 22C221 -49 284 -148 299 -287C318 -294 366 -309 378 -313C418 -327 418 -345 396 -348C376 -351 351 -344 302 -328C304 -355 306 -381 307 -402C349 -415 371 -423 389 -430C417 -440 416 -455 387 -464C373 -468 365 -466 312 -447C313 -457 314 -465 316 -470C324 -491 318 -505 284 -525C324 -536 378 -553 398 -561C437 -578 437 -592 415 -600C398 -606 383 -603 340 -588C281 -567 197 -543 152 -535C118 -528 119 -521 152 -512C169 -507 197 -508 247 -517C258 -504 261 -483 261 -432Z"/>
</svg>