<svg xmlns="http://www.w3.org/2000/svg" viewBox="0 -1000 1000 1000">
	<path fill="#000000" d="M537 -498C532 -521 512 -531 473 -526C448 -524 446 -520 459 -506C464 -500 499 -480 507 -477C532 -470 541 -478 537 -498ZM350 -536C402 -571 393 -584 332 -556C249 -518 236 -514 221 -513C182 -511 178 -500 207 -473C235 -448 245 -448 262 -470C275 -486 280 -489 350 -536ZM654 -596C688 -619 678 -634 638 -613C576 -581 548 -570 526 -570C506 -569 505 -555 530 -539C557 -520 568 -521 587 -542C597 -553 630 -580 654 -596ZM347 -620C338 -643 319 -650 276 -648C254 -647 252 -636 264 -625C275 -616 305 -600 315 -596C345 -587 358 -599 347 -620ZM481 -703C497 -717 496 -726 459 -749C431 -765 421 -764 397 -750C375 -737 259 -713 228 -714C206 -715 203 -703 226 -691C249 -680 266 -678 285 -684C303 -690 323 -694 387 -707C409 -711 412 -708 411 -686C410 -645 408 -614 405 -591C400 -552 399 -519 401 -513C408 -495 417 -493 428 -513C436 -524 445 -552 451 -595C460 -667 467 -689 481 -703ZM783 -719C799 -733 797 -749 747 -772C718 -783 709 -783 694 -775C673 -763 593 -746 537 -741C511 -739 508 -728 527 -719C553 -708 571 -705 588 -711C604 -718 650 -727 676 -730C705 -733 708 -731 707 -716C703 -667 702 -655 696 -620C686 -568 685 -546 688 -535C693 -518 705 -515 720 -541C729 -554 742 -591 750 -642C756 -686 763 -703 783 -719ZM638 -658C632 -682 613 -690 573 -685C548 -682 547 -678 560 -663C565 -658 601 -640 609 -637C634 -630 643 -639 638 -658ZM584 -197C573 -174 556 -149 515 -109C441 -125 407 -131 394 -133C388 -134 386 -138 392 -146C405 -166 412 -176 423 -187C482 -190 500 -191 584 -197ZM418 -349C426 -372 421 -388 392 -410C381 -418 364 -413 366 -398C369 -379 378 -361 388 -345C400 -328 409 -327 418 -349ZM585 -442C632 -448 664 -452 684 -455C712 -461 714 -479 683 -487C661 -493 639 -492 608 -483C583 -475 375 -443 300 -441C276 -440 275 -427 300 -420C329 -413 403 -416 554 -438C554 -403 543 -372 522 -336C349 -316 250 -310 149 -312C119 -313 116 -301 143 -286C176 -269 195 -267 237 -275C256 -278 263 -279 433 -294C433 -274 422 -245 398 -211C329 -205 256 -201 202 -200C173 -200 171 -191 197 -177C220 -166 231 -163 279 -169C316 -174 344 -178 376 -182C364 -169 341 -142 333 -133C326 -125 332 -115 366 -110C397 -105 446 -92 480 -79C416 -30 318 12 204 29C180 32 182 47 205 46C352 40 431 12 530 -60C630 -20 683 8 712 30C749 57 766 48 757 8C751 -33 721 -61 573 -96C591 -112 611 -136 635 -171C643 -182 647 -192 647 -201C717 -205 770 -206 795 -203C846 -197 852 -216 822 -239C801 -256 780 -258 722 -245C714 -243 674 -239 631 -235C612 -263 596 -261 592 -231C526 -224 498 -221 447 -215C464 -234 478 -250 491 -258C503 -265 496 -275 465 -298C553 -308 575 -310 599 -311C746 -318 807 -317 838 -313C908 -303 917 -327 887 -347C851 -372 819 -375 757 -364C738 -360 720 -358 557 -340C580 -371 594 -385 606 -392C625 -401 626 -416 585 -442Z"/>
</svg>