<svg xmlns="http://www.w3.org/2000/svg" viewBox="0 -1000 1000 1000">
	<path fill="#000000" d="M465 -250C482 -212 484 -181 477 -109C434 -127 393 -144 364 -158C389 -182 388 -194 361 -207C324 -227 312 -227 313 -203C314 -186 289 -143 250 -101C207 -55 147 -11 116 3C93 15 95 27 122 19C187 6 264 -45 306 -97C313 -105 329 -124 344 -138C368 -124 403 -105 674 32C721 56 738 58 903 13C936 4 936 -14 898 -15C746 -20 662 -36 523 -92C525 -119 527 -148 528 -161C560 -154 591 -156 668 -171C701 -178 697 -200 670 -208C654 -213 625 -212 593 -201C573 -195 549 -190 532 -189C540 -228 537 -244 511 -256C596 -264 663 -268 684 -267C820 -264 827 -280 782 -307C759 -321 732 -325 659 -309C601 -297 240 -252 187 -251C147 -250 147 -235 172 -226C207 -213 230 -213 296 -226C344 -235 411 -244 465 -250ZM405 -349C404 -362 403 -367 400 -397C455 -397 501 -404 532 -416C543 -418 546 -428 527 -435C505 -440 484 -437 399 -410C397 -428 395 -444 393 -456C451 -470 524 -481 557 -483C580 -484 587 -478 585 -459C580 -419 572 -390 564 -375C562 -369 557 -368 547 -370C535 -373 510 -369 405 -349ZM374 -482C328 -500 315 -485 332 -461C343 -445 357 -401 368 -339C373 -307 398 -303 404 -326C506 -339 550 -339 555 -332C562 -318 578 -316 591 -329C603 -340 613 -361 617 -372C640 -436 650 -456 664 -466C678 -476 678 -492 639 -512C604 -530 587 -531 568 -521C544 -510 443 -487 374 -482ZM343 -556C378 -572 375 -587 339 -578C327 -575 293 -565 267 -556C240 -548 195 -541 184 -543C162 -546 158 -533 178 -510C197 -487 210 -486 236 -505C249 -514 276 -526 343 -556ZM646 -593C677 -606 676 -624 644 -616C625 -611 587 -601 567 -596C540 -590 508 -586 496 -586C473 -586 467 -577 488 -556C505 -538 510 -537 543 -551C562 -560 607 -578 646 -593ZM319 -626C314 -642 299 -652 263 -655C241 -657 235 -644 247 -635C268 -615 280 -606 291 -600C309 -589 325 -605 319 -626ZM461 -692C478 -707 477 -721 439 -740C408 -755 397 -755 375 -745C349 -731 242 -709 207 -708C176 -707 173 -696 189 -685C214 -668 224 -668 247 -675C317 -696 338 -701 375 -703C399 -704 405 -694 385 -584C377 -547 378 -537 383 -527C390 -508 396 -507 406 -522C419 -542 424 -555 432 -606C439 -650 447 -681 461 -692ZM784 -703C810 -722 809 -737 765 -759C732 -776 718 -775 695 -761C676 -750 600 -737 537 -736C504 -734 501 -721 524 -708C540 -698 557 -697 571 -701C613 -711 658 -719 687 -723C706 -725 714 -720 712 -704C706 -646 695 -601 676 -575C671 -569 671 -561 677 -539C683 -517 700 -514 710 -528C724 -548 733 -570 749 -624C765 -676 773 -693 784 -703ZM609 -648C604 -663 589 -674 551 -676C523 -677 518 -663 533 -653C550 -642 565 -635 580 -627C600 -618 616 -627 609 -648Z"/>
</svg>