<svg xmlns="http://www.w3.org/2000/svg" viewBox="0 -1000 1000 1000">
	<path fill="#000000" d="M766 -454C793 -462 819 -467 830 -467C843 -467 848 -458 846 -420C842 -345 822 -213 803 -150C793 -115 782 -114 715 -133C704 -136 701 -131 708 -122C730 -93 745 -60 757 -28C765 -8 771 -5 795 -21C837 -49 864 -108 877 -228C896 -390 906 -432 922 -450C941 -470 941 -477 889 -507C863 -522 851 -521 825 -507C816 -501 797 -495 773 -488C801 -633 804 -644 809 -654C823 -681 822 -693 782 -713C722 -742 710 -729 730 -691C744 -664 741 -577 726 -477C694 -470 662 -464 639 -461C626 -458 626 -443 638 -439C665 -430 676 -429 719 -441C690 -276 636 -153 514 -22C498 -4 505 6 526 -9C651 -101 715 -209 766 -454ZM464 -598C427 -610 418 -600 433 -576C445 -557 452 -429 441 -175C413 -166 400 -163 377 -161C351 -159 347 -147 372 -124C395 -103 405 -101 431 -122C446 -134 480 -149 609 -202C645 -216 649 -228 647 -234C645 -238 633 -239 606 -231C619 -519 623 -553 631 -571C646 -603 645 -611 611 -629C587 -643 574 -642 559 -630C542 -619 509 -606 464 -598ZM482 -462C482 -504 482 -543 482 -577C497 -578 512 -581 534 -587C571 -600 575 -594 575 -562C575 -505 571 -348 566 -217C542 -208 505 -196 477 -188C478 -225 479 -268 480 -311C501 -306 522 -310 553 -322C567 -329 567 -349 543 -351C535 -352 521 -348 480 -332C481 -367 481 -404 482 -438C504 -436 516 -437 537 -444C564 -453 565 -473 550 -476C535 -480 526 -479 482 -462ZM275 -567C275 -543 275 -519 275 -497C236 -486 191 -476 186 -475C158 -471 158 -462 180 -455C197 -450 226 -452 274 -462C274 -438 274 -415 273 -395C176 -365 128 -358 74 -358C44 -358 42 -345 75 -318C92 -304 106 -305 146 -321C155 -325 196 -338 242 -350C192 -247 126 -152 53 -81C33 -63 42 -52 60 -63C155 -120 217 -197 271 -308C267 -180 260 -112 255 -95C240 -42 241 -25 258 17C271 52 293 52 299 24C307 -16 310 -66 308 -101C306 -140 305 -171 307 -310C323 -294 334 -279 359 -237C379 -202 400 -201 405 -240C409 -272 373 -310 307 -326C307 -339 307 -353 308 -369C340 -378 369 -385 383 -388C423 -398 426 -407 410 -418C398 -428 388 -430 308 -406C309 -428 309 -449 309 -469C343 -476 367 -484 389 -492C406 -500 403 -514 382 -519C365 -523 355 -522 312 -506C313 -531 314 -553 316 -575C354 -583 377 -590 406 -600C424 -606 426 -619 399 -626C374 -634 363 -631 319 -617C323 -679 328 -703 334 -720C342 -745 334 -760 293 -770C250 -780 240 -770 258 -748C269 -733 274 -698 275 -606C225 -591 160 -576 151 -575C134 -574 132 -567 153 -557C166 -551 190 -550 275 -567Z"/>
</svg>