<svg xmlns="http://www.w3.org/2000/svg" viewBox="0 -1000 1000 1000">
	<path fill="#000000" d="M205 -486C206 -544 205 -575 205 -625C232 -624 255 -627 279 -635C292 -639 301 -634 302 -612C306 -540 297 -171 292 -112C289 -78 273 -71 221 -85C199 -91 193 -77 209 -65C266 -21 278 -6 285 14C290 29 307 30 319 10C341 -29 349 -69 347 -128C343 -197 343 -378 348 -522C349 -556 356 -608 367 -623C385 -647 385 -656 349 -674C315 -690 304 -690 288 -680C257 -661 225 -652 192 -651C145 -675 133 -668 145 -639C160 -601 165 -489 157 -377C146 -228 107 -106 43 -11C22 19 34 31 57 8C127 -62 164 -145 193 -301C222 -296 246 -297 272 -308C287 -314 285 -340 259 -343C247 -345 237 -343 197 -327C200 -355 203 -403 205 -459C231 -454 252 -454 270 -463C285 -469 285 -489 265 -495C252 -498 233 -497 205 -486ZM613 -471C634 -454 640 -450 654 -437C682 -412 699 -432 688 -462C684 -473 671 -485 639 -505C658 -531 666 -543 671 -550C684 -570 681 -578 644 -598C630 -606 619 -598 624 -585C627 -575 618 -550 604 -522C589 -530 566 -537 533 -546C511 -551 507 -544 522 -536C536 -527 574 -501 585 -491C569 -466 547 -440 526 -422C508 -409 511 -396 535 -410C564 -428 595 -452 613 -471ZM502 -353C531 -351 557 -353 589 -360C667 -375 700 -374 711 -364C724 -352 733 -351 745 -367C757 -381 769 -406 794 -471C829 -561 834 -571 850 -583C867 -595 868 -612 833 -637C786 -670 776 -672 748 -661C706 -647 639 -633 543 -621C583 -675 610 -705 643 -738C659 -753 656 -767 614 -790C572 -814 562 -810 565 -778C569 -739 550 -681 510 -617C489 -615 466 -613 442 -610C394 -627 385 -614 396 -593C419 -561 444 -491 463 -387C471 -340 480 -331 489 -331C494 -329 500 -335 502 -353ZM463 -584C526 -593 592 -602 640 -607C686 -612 715 -615 742 -616C759 -617 768 -611 765 -590C755 -526 734 -447 717 -412C711 -398 701 -396 690 -399C667 -405 649 -405 603 -395C582 -389 537 -381 502 -376C493 -453 476 -538 463 -584ZM470 -214C471 -238 472 -248 475 -262C478 -275 475 -280 445 -295C410 -312 397 -297 413 -273C423 -260 427 -218 425 -176C421 -106 406 -67 393 -54C381 -41 382 -28 397 -5C418 25 425 24 442 4C458 -18 512 -70 564 -116C580 -131 576 -138 559 -131C533 -121 498 -100 457 -71C463 -138 465 -162 468 -191C502 -188 539 -192 565 -205C593 -219 588 -241 555 -241C542 -241 526 -239 470 -214ZM673 -210C675 -246 678 -269 685 -285C693 -302 688 -313 658 -329C621 -347 605 -337 622 -308C631 -292 636 -243 633 -196C624 -57 653 -9 728 12C755 20 804 20 862 6C944 -14 954 -31 944 -68C938 -89 927 -136 923 -188C921 -210 910 -209 906 -187C884 -77 875 -62 835 -53C788 -41 754 -39 736 -43C697 -52 675 -74 672 -187C744 -217 813 -246 843 -258C868 -267 866 -280 824 -319C803 -340 791 -336 787 -312C784 -295 730 -242 673 -210Z"/>
</svg>