<svg xmlns="http://www.w3.org/2000/svg" viewBox="0 -1000 1000 1000">
	<path fill="#000000" d="M220 -520C220 -568 220 -617 219 -670C244 -671 265 -675 298 -685C308 -688 319 -681 321 -658C326 -599 323 -257 317 -149C314 -103 307 -100 260 -111C228 -119 224 -105 244 -91C281 -63 297 -43 306 -21C314 -2 331 -1 347 -28C374 -77 377 -96 372 -171C370 -200 369 -268 369 -542C369 -631 371 -650 383 -668C400 -694 397 -703 365 -722C335 -741 327 -740 312 -730C278 -711 240 -702 201 -698C154 -728 136 -714 154 -675C169 -640 173 -544 164 -388C156 -244 125 -131 63 -22C46 9 57 17 78 -7C147 -85 184 -161 205 -329C230 -326 248 -327 283 -335C310 -341 309 -366 278 -374C265 -377 254 -376 209 -359C212 -382 214 -414 219 -486C244 -485 263 -488 286 -498C313 -509 310 -524 284 -533C273 -536 253 -534 220 -520ZM650 -564C617 -557 591 -552 556 -547C555 -555 556 -566 559 -579C563 -594 544 -602 510 -609C488 -613 486 -608 495 -592C506 -574 512 -558 516 -541C490 -538 465 -537 446 -537C428 -537 428 -526 442 -517C465 -503 474 -502 488 -505C497 -507 509 -510 524 -512C531 -478 535 -470 544 -461C549 -455 561 -458 562 -472C563 -492 562 -505 560 -518C587 -523 615 -527 644 -531C640 -511 637 -496 635 -486C632 -468 640 -465 649 -477C667 -501 678 -518 683 -536C719 -541 750 -543 766 -543C808 -542 816 -554 800 -568C778 -585 755 -587 696 -574C701 -585 704 -594 706 -596C715 -612 713 -621 694 -628C644 -645 639 -635 651 -614C657 -606 657 -595 650 -564ZM503 -369C503 -386 502 -403 502 -415C603 -433 642 -437 664 -437C684 -437 693 -431 695 -398C698 -333 698 -277 695 -241C662 -247 639 -244 596 -236C561 -230 527 -226 504 -224C504 -237 504 -255 504 -275C538 -271 582 -273 651 -291C664 -294 664 -302 654 -309C646 -318 629 -319 607 -314C537 -299 518 -296 505 -297C504 -313 504 -331 504 -347C541 -342 568 -344 638 -363C651 -366 652 -377 642 -384C633 -392 606 -388 585 -383C547 -373 520 -369 503 -369ZM658 -715C663 -755 643 -781 575 -790C547 -793 541 -784 555 -770C590 -730 615 -708 634 -697C643 -692 656 -696 658 -715ZM790 -103C793 -132 779 -149 721 -159C705 -162 700 -154 708 -140C729 -109 745 -89 767 -80C777 -76 789 -87 790 -103ZM652 -210C668 -212 681 -213 691 -213C700 -200 706 -194 717 -186C721 -182 727 -182 734 -194C746 -212 750 -235 747 -319C745 -370 748 -403 759 -419C770 -438 768 -451 733 -466C696 -480 685 -480 670 -474C644 -466 547 -447 491 -439C440 -456 433 -445 445 -423C452 -413 454 -405 458 -359C461 -322 462 -266 461 -245C460 -205 469 -181 481 -176C487 -174 493 -181 499 -198C505 -199 513 -199 522 -200C527 -175 502 -138 450 -86C412 -49 387 -27 351 -9C339 -4 342 10 359 5C435 -17 476 -45 529 -108C540 -122 556 -135 566 -143C574 -149 568 -173 538 -201C561 -203 588 -205 611 -207C616 -196 617 -184 616 -158C614 -92 622 -50 635 -27C659 13 720 36 822 25C862 20 900 6 937 -14C951 -21 952 -41 941 -61C935 -72 924 -104 918 -142C914 -173 902 -172 897 -141C882 -51 870 -39 790 -28C747 -22 715 -25 685 -41C653 -59 647 -141 661 -167C671 -187 670 -193 652 -210ZM462 -658C440 -683 431 -683 429 -673C421 -631 409 -608 397 -596C387 -587 384 -571 388 -553C393 -532 405 -528 419 -546C432 -565 443 -585 460 -629C489 -631 534 -637 633 -651C682 -657 741 -663 778 -664C793 -664 801 -652 763 -605C753 -593 763 -584 781 -595C818 -618 847 -626 879 -630C903 -634 908 -650 872 -677C819 -716 802 -719 778 -709C761 -702 722 -694 637 -682C535 -668 491 -661 462 -658Z"/>
</svg>