<svg xmlns="http://www.w3.org/2000/svg" viewBox="0 -1000 1000 1000">
	<path fill="#000000" d="M962 -291C988 -291 989 -308 959 -319C788 -384 742 -408 650 -501C626 -527 593 -566 546 -621C604 -628 655 -634 678 -635C741 -640 747 -663 712 -679C685 -691 645 -691 622 -684C564 -668 505 -654 444 -643C469 -698 493 -758 496 -762C518 -797 517 -804 465 -823C411 -842 406 -837 419 -798C426 -773 414 -701 383 -631C337 -625 293 -621 248 -618C206 -616 207 -608 243 -590C257 -583 297 -580 331 -587C339 -589 351 -591 364 -593C285 -438 206 -357 81 -266C49 -243 54 -228 89 -244C221 -299 341 -422 427 -602C456 -606 485 -612 515 -616C590 -514 694 -381 729 -338C766 -292 780 -288 962 -291ZM548 -487C522 -497 510 -495 479 -485C442 -472 410 -463 399 -462C365 -459 365 -447 394 -435C405 -430 444 -427 471 -432C506 -439 519 -442 539 -450C561 -459 569 -479 548 -487ZM652 -383C624 -395 582 -392 565 -388C522 -377 359 -347 264 -336C231 -331 231 -325 259 -310C268 -305 312 -305 337 -310C351 -313 365 -315 381 -318C384 -275 368 -243 315 -218C309 -215 301 -204 300 -185C299 -155 310 -147 325 -159C372 -192 381 -195 418 -203C472 -214 483 -213 523 -211C541 -210 555 -196 555 -184C554 -121 534 -59 516 -27C495 5 479 6 413 -20C391 -28 386 -20 402 -2C415 13 437 52 450 81C458 100 468 104 491 94C538 75 577 25 593 -57C614 -149 618 -162 622 -166C654 -199 651 -209 591 -244C561 -262 547 -261 521 -253C510 -250 435 -240 401 -238C441 -292 447 -301 424 -324C506 -335 597 -343 634 -340C698 -335 708 -359 652 -383Z"/>
</svg>