<svg xmlns="http://www.w3.org/2000/svg" viewBox="0 -1000 1000 1000">
	<path fill="#000000" d="M677 -485C693 -490 693 -504 669 -507C656 -509 639 -509 615 -500C591 -491 564 -485 535 -481C514 -478 515 -468 529 -462C542 -456 565 -457 592 -462C626 -468 661 -478 677 -485ZM472 -518C508 -518 540 -522 566 -529C600 -538 677 -548 738 -550C770 -551 771 -544 746 -502C733 -481 741 -477 762 -489C790 -506 809 -513 847 -518C881 -522 881 -540 811 -586C791 -600 784 -600 754 -590C722 -579 636 -564 471 -541C453 -569 443 -564 441 -540C439 -525 433 -511 416 -475C411 -462 410 -449 416 -435C426 -420 443 -418 451 -437C461 -461 467 -480 472 -518ZM565 -660C563 -683 563 -694 564 -702C568 -721 560 -729 521 -735C475 -742 474 -728 489 -716C505 -703 514 -690 525 -656C497 -652 468 -650 441 -648C413 -646 413 -636 432 -624C449 -613 456 -612 486 -620C498 -623 513 -626 533 -629C535 -621 538 -613 540 -603C553 -551 579 -565 572 -606C571 -616 569 -626 568 -634C594 -638 626 -642 668 -646C662 -622 660 -611 650 -589C644 -572 653 -567 666 -582C682 -600 694 -621 706 -650C751 -655 786 -656 805 -655C855 -653 860 -669 831 -688C815 -699 795 -703 769 -696C753 -692 736 -688 717 -685C727 -711 733 -724 742 -735C756 -752 755 -764 717 -781C677 -799 666 -785 677 -763C685 -748 686 -722 676 -677C640 -671 603 -665 565 -660ZM540 -373C535 -356 523 -345 505 -330C485 -313 460 -297 435 -283C412 -270 424 -255 446 -265C481 -280 510 -296 543 -319C546 -317 548 -316 551 -314C518 -252 482 -212 426 -170C406 -155 412 -147 429 -154C496 -180 518 -206 577 -290C584 -281 590 -270 596 -257C565 -187 489 -98 411 -46C391 -33 393 -20 413 -29C502 -68 552 -112 613 -208C633 -144 633 -101 626 -66C616 -19 599 -12 538 -34C523 -40 517 -30 533 -17C565 9 573 20 588 51C597 68 611 67 629 52C658 26 682 -42 677 -111C674 -158 667 -193 647 -239C657 -247 667 -253 675 -259C711 -210 743 -169 771 -131C808 -79 819 -76 952 -99C972 -102 972 -113 950 -118C846 -141 786 -177 694 -273C739 -305 754 -316 772 -321C791 -327 795 -340 768 -365C740 -392 728 -385 727 -365C726 -344 700 -311 638 -257C634 -264 630 -271 626 -278C608 -304 594 -316 561 -334C573 -343 583 -350 589 -355C596 -360 599 -365 574 -379C647 -393 687 -403 710 -411C738 -420 733 -434 713 -438C695 -442 682 -443 650 -432C599 -415 542 -401 490 -392C468 -388 471 -377 501 -372C512 -371 526 -371 540 -373ZM306 -472C302 -487 274 -498 257 -498C242 -498 235 -489 245 -477C260 -460 274 -451 283 -449C303 -444 310 -456 306 -472ZM315 -251C311 -266 283 -282 266 -284C251 -286 245 -280 254 -266C266 -248 282 -230 291 -228C311 -222 318 -236 315 -251ZM223 -594C284 -660 321 -693 343 -707C363 -719 362 -737 316 -762C288 -777 280 -771 281 -748C282 -714 245 -652 201 -599C159 -612 153 -600 161 -582C176 -548 186 -460 186 -364C99 -340 62 -336 35 -339C19 -341 12 -322 30 -305C57 -279 77 -276 93 -285C118 -300 156 -319 186 -330C183 -206 155 -119 83 -20C70 -2 75 3 94 -9C158 -51 227 -172 228 -345L330 -381C330 -286 329 -185 326 -148C321 -93 313 -91 262 -107C245 -113 239 -104 251 -91C269 -72 297 -38 304 -23C317 4 332 4 347 -20C367 -53 372 -89 369 -185C363 -382 367 -551 377 -563C400 -590 402 -599 362 -621C336 -636 322 -637 304 -624C277 -605 258 -599 223 -594ZM330 -405L228 -376C228 -446 225 -504 220 -570C249 -575 269 -580 286 -585C317 -594 324 -581 326 -553C329 -520 330 -465 330 -405Z"/>
</svg>