<svg xmlns="http://www.w3.org/2000/svg" viewBox="0 -1000 1000 1000">
	<path fill="#000000" d="M882 -665C851 -681 831 -683 784 -677C751 -672 707 -667 653 -659C672 -703 680 -717 690 -732C702 -751 704 -759 658 -783C612 -805 606 -795 611 -778C619 -753 611 -696 601 -654C543 -647 477 -639 401 -629C399 -663 398 -685 399 -700C400 -732 392 -739 325 -749C298 -753 290 -744 311 -721C328 -704 336 -693 352 -624C255 -613 191 -609 119 -609C93 -609 91 -599 120 -577C147 -556 170 -554 220 -567C248 -574 316 -587 359 -593C363 -574 368 -555 373 -528C378 -504 385 -493 393 -495C401 -497 408 -512 407 -532C405 -559 404 -579 402 -598C465 -606 536 -613 592 -616C583 -585 572 -558 565 -541C552 -510 561 -503 580 -524C599 -546 618 -575 637 -619C703 -620 806 -619 854 -612C918 -604 941 -635 882 -665ZM781 -206C804 -219 802 -230 741 -265C694 -292 674 -297 654 -288C636 -280 571 -270 497 -262L503 -383C562 -368 602 -373 710 -398C728 -402 728 -422 698 -435C678 -443 661 -440 639 -431C607 -419 565 -409 503 -399C506 -425 514 -464 519 -480C525 -499 524 -505 474 -521C433 -536 425 -525 440 -503C453 -483 460 -432 456 -257C398 -251 340 -246 303 -244C244 -269 227 -258 244 -233C265 -205 284 -146 307 -42C316 0 327 21 334 21C346 21 352 8 352 -17C441 -18 660 -27 702 -33C726 -36 729 -61 701 -71C689 -76 688 -82 700 -102C741 -170 763 -195 781 -206ZM667 -211C660 -115 642 -91 613 -82C585 -74 472 -59 349 -49C340 -104 329 -172 323 -213C406 -224 573 -242 604 -244C660 -247 669 -237 667 -211Z"/>
</svg>