<svg xmlns="http://www.w3.org/2000/svg" viewBox="0 -1000 1000 1000">
	<path fill="#000000" d="M488 -488C499 -496 495 -508 472 -508C460 -508 443 -504 380 -481C379 -500 379 -522 379 -547C406 -553 436 -562 447 -569C465 -579 465 -590 447 -598C434 -604 416 -602 379 -592C380 -612 380 -633 381 -654C416 -663 451 -674 471 -686C486 -695 483 -708 471 -712C452 -721 430 -720 384 -707C386 -728 388 -744 390 -750C400 -780 395 -789 346 -809C306 -827 288 -809 310 -784C325 -768 333 -733 335 -693C281 -677 229 -667 211 -666C197 -665 192 -653 209 -645C238 -629 267 -630 337 -645C337 -625 337 -603 337 -579C298 -569 252 -559 243 -558C232 -557 230 -545 241 -539C264 -526 278 -524 337 -537C337 -509 337 -482 337 -467C247 -437 214 -431 189 -432C170 -433 161 -422 187 -401C218 -377 226 -375 266 -396C272 -400 297 -410 337 -424C337 -401 339 -386 342 -375C348 -351 366 -352 372 -370C378 -385 383 -420 382 -442C430 -460 478 -481 488 -488ZM836 -682C826 -692 789 -715 767 -725C749 -733 739 -731 728 -720C717 -710 688 -701 630 -689C576 -677 532 -671 510 -671C489 -671 488 -656 503 -649C529 -638 546 -638 598 -651C607 -620 600 -583 564 -527C533 -483 504 -449 472 -419C459 -407 460 -400 476 -404C532 -418 618 -518 628 -547C631 -556 646 -587 651 -594C667 -615 671 -634 629 -659C679 -672 710 -677 736 -675C748 -674 753 -666 753 -644C753 -620 734 -544 701 -485C689 -463 673 -465 643 -479C619 -489 611 -483 622 -467C638 -442 651 -414 659 -397C665 -381 681 -378 697 -388C739 -416 763 -466 780 -526C802 -610 811 -629 826 -641C849 -658 852 -667 836 -682ZM900 -7C926 -11 929 -26 899 -35C751 -73 712 -87 656 -125C610 -158 589 -176 489 -271C640 -280 757 -283 800 -275C848 -266 878 -296 835 -322C799 -346 769 -350 699 -335C641 -322 608 -318 500 -305C505 -329 507 -336 510 -341C521 -358 519 -368 480 -385C438 -404 427 -397 442 -367C449 -352 449 -327 445 -299C186 -273 174 -272 158 -273C130 -274 126 -264 145 -249C176 -223 188 -219 235 -233C277 -245 370 -259 438 -267C429 -229 414 -191 401 -168C350 -85 310 -64 182 -11C166 -4 166 10 195 9C304 2 446 -72 477 -208C479 -218 481 -225 483 -236C551 -152 591 -108 675 -22C711 15 756 15 900 -7Z"/>
</svg>