<svg xmlns="http://www.w3.org/2000/svg" viewBox="0 -1000 1000 1000">
	<path fill="#000000" d="M881 -665C865 -689 822 -701 770 -691C750 -688 717 -683 676 -678C688 -710 696 -728 704 -741C715 -759 711 -776 664 -797C605 -824 596 -807 616 -774C625 -760 623 -729 610 -671C550 -666 482 -658 413 -653C412 -698 412 -723 414 -733C417 -749 410 -757 359 -770C297 -784 292 -766 328 -735C336 -727 346 -699 357 -648C282 -643 212 -639 160 -639C134 -639 127 -625 165 -601C187 -586 207 -583 250 -594C276 -600 316 -605 364 -611C368 -585 373 -556 379 -524C381 -509 392 -500 399 -500C411 -500 419 -520 418 -534C417 -566 415 -593 414 -616C473 -621 538 -627 601 -630C594 -602 585 -565 571 -527C563 -502 573 -494 586 -507C617 -542 635 -571 660 -632C724 -634 781 -634 814 -630C896 -620 900 -637 881 -665ZM336 -437C329 -477 299 -504 248 -510C223 -513 216 -504 232 -479C258 -442 276 -423 300 -409C324 -396 341 -411 336 -437ZM260 -305C258 -335 232 -367 169 -371C147 -372 138 -365 153 -343C177 -307 195 -290 214 -278C237 -264 262 -277 260 -305ZM891 -105C862 -134 837 -138 792 -132C730 -123 684 -120 601 -111C609 -287 611 -332 627 -353C633 -364 627 -380 589 -399C648 -408 726 -421 748 -426C796 -432 789 -450 752 -466C731 -473 707 -475 622 -453C573 -441 454 -424 437 -423C401 -421 397 -417 422 -404C443 -391 474 -385 549 -394C561 -354 566 -268 553 -105C435 -92 352 -83 331 -84C314 -85 310 -72 330 -58C357 -41 376 -37 397 -41C575 -74 706 -78 862 -60C913 -53 926 -72 891 -105ZM342 -281C366 -331 347 -337 319 -296C295 -262 238 -177 219 -152C190 -110 181 -104 161 -95C149 -90 143 -78 172 -22C207 47 227 39 235 -18C243 -70 285 -163 342 -281Z"/>
</svg>