<svg xmlns="http://www.w3.org/2000/svg" viewBox="0 -1000 1000 1000">
	<path fill="#000000" d="M406 -647C405 -661 405 -674 405 -686C405 -710 397 -720 353 -730C308 -741 291 -725 316 -704C327 -694 341 -672 354 -643C242 -634 218 -633 197 -634C159 -636 156 -623 187 -606C213 -591 223 -590 267 -598C303 -604 329 -607 366 -610C371 -593 374 -583 382 -556C386 -541 395 -527 405 -527C411 -527 421 -539 419 -553C415 -577 412 -598 410 -614C452 -619 543 -626 588 -628C577 -593 571 -571 565 -551C560 -533 569 -527 582 -541C596 -554 619 -590 638 -630C762 -636 787 -636 820 -634C873 -630 877 -653 834 -679C811 -692 784 -692 751 -685C731 -681 702 -677 659 -672C668 -686 677 -699 684 -708C702 -728 696 -745 647 -767C602 -789 593 -780 608 -746C611 -739 609 -712 597 -664C547 -659 485 -653 406 -647ZM603 -116C675 -43 695 -23 725 11C751 42 776 39 776 -3C776 -53 737 -91 617 -133C670 -194 678 -202 691 -210C714 -226 710 -239 673 -265C641 -287 628 -282 626 -253C624 -228 611 -203 545 -126C500 -72 429 -16 355 24C336 33 341 48 368 41C438 23 556 -52 603 -116ZM408 -425C402 -406 392 -385 375 -362C351 -325 312 -292 276 -281C261 -277 260 -271 266 -241C271 -215 279 -209 310 -221C353 -236 396 -244 488 -255C421 -170 281 -65 170 -16C145 -4 152 9 176 4C278 -17 408 -93 524 -226C590 -302 619 -330 631 -337C654 -352 653 -360 613 -389C580 -413 570 -408 568 -379C567 -366 559 -345 508 -281C448 -279 405 -278 349 -277C412 -349 445 -380 458 -387C480 -401 481 -410 462 -432C589 -447 722 -455 798 -451C887 -446 892 -466 862 -489C828 -515 787 -516 666 -490C607 -478 272 -439 189 -438C143 -437 139 -432 165 -414C198 -392 212 -392 287 -406C324 -413 331 -414 408 -425ZM455 -564C432 -566 429 -559 437 -550C459 -526 496 -495 510 -487C531 -477 542 -485 541 -512C540 -547 513 -557 455 -564Z"/>
</svg>