<svg xmlns="http://www.w3.org/2000/svg" viewBox="0 -1000 1000 1000">
	<path fill="#000000" d="M444 -479C390 -467 359 -463 323 -461C290 -458 291 -449 323 -442C342 -438 355 -437 445 -445C446 -430 446 -410 446 -388C360 -375 309 -369 270 -367C207 -388 201 -373 223 -348C226 -345 230 -337 262 -248C278 -205 313 -214 305 -258C299 -295 295 -319 290 -339C331 -341 419 -352 446 -356C446 -341 445 -326 445 -311C378 -210 266 -112 124 -43C88 -26 89 -16 132 -26C226 -49 360 -132 444 -237C442 -121 438 -85 425 -41C409 7 412 20 432 60C451 97 468 96 479 53C487 28 490 -2 489 -78C489 -109 488 -194 488 -248C537 -199 592 -150 712 -49C754 -12 774 -12 931 -42C966 -49 965 -63 928 -68C760 -95 669 -138 488 -284C488 -310 488 -336 488 -366C507 -371 538 -375 625 -383C666 -387 673 -382 669 -362C664 -336 658 -315 650 -299C642 -281 625 -282 593 -294C569 -302 561 -289 581 -272C608 -250 617 -239 622 -215C625 -195 638 -190 662 -210C677 -224 692 -246 710 -297C725 -335 732 -348 745 -361C761 -375 761 -385 714 -412C678 -433 663 -435 643 -424C632 -418 609 -414 488 -395C488 -417 488 -429 489 -451C526 -456 570 -463 625 -472C667 -479 668 -498 638 -505C611 -511 580 -509 493 -490C496 -503 500 -513 505 -523C516 -542 507 -551 468 -566C419 -583 406 -569 433 -536C438 -530 442 -513 444 -479ZM384 -640C382 -669 383 -682 386 -694C392 -719 388 -736 325 -751C282 -761 270 -748 297 -721C316 -703 325 -687 335 -636C236 -628 206 -627 179 -627C142 -628 137 -618 167 -599C195 -581 217 -580 255 -588C283 -594 312 -600 340 -605C343 -585 347 -562 351 -535C352 -523 364 -508 373 -508C383 -508 393 -545 386 -611C439 -618 500 -623 577 -627C567 -596 562 -585 548 -552C536 -522 541 -518 566 -542C595 -569 611 -592 628 -630C712 -634 752 -631 797 -625C858 -617 865 -641 830 -670C803 -691 774 -692 741 -684C719 -679 679 -673 644 -669C654 -694 660 -703 675 -720C692 -739 688 -756 642 -780C595 -804 585 -790 596 -771C608 -746 607 -717 589 -661C525 -654 455 -647 384 -640Z"/>
</svg>