<svg xmlns="http://www.w3.org/2000/svg" viewBox="0 -1000 1000 1000">
	<path fill="#000000" d="M478 -421C490 -429 486 -437 447 -450C435 -454 424 -450 423 -440C421 -421 407 -397 364 -347C355 -336 359 -329 372 -337C414 -364 432 -378 447 -394C462 -408 469 -414 478 -421ZM628 -400C628 -424 597 -449 548 -455C529 -457 524 -450 534 -440C558 -414 575 -395 600 -373C613 -362 628 -370 628 -400ZM649 -308C602 -301 573 -298 507 -291C513 -314 518 -330 525 -340C532 -351 523 -367 486 -378C461 -385 448 -377 457 -358C462 -347 461 -320 453 -285C418 -281 381 -277 345 -274C341 -309 333 -362 316 -459C361 -459 421 -466 468 -476C487 -480 556 -490 620 -497C669 -502 673 -493 670 -465C659 -368 654 -337 649 -308ZM417 -646C443 -631 486 -628 521 -641C553 -653 556 -647 543 -628C494 -559 469 -525 451 -502C400 -494 346 -487 300 -483C244 -508 226 -493 245 -468C264 -442 290 -368 309 -271C195 -260 150 -257 130 -258C99 -259 97 -251 126 -232C162 -209 179 -210 228 -222C265 -231 355 -244 444 -253C413 -154 322 -66 161 -3C125 11 127 24 158 18C338 -18 448 -111 490 -225C544 -154 613 -75 654 -34C703 15 729 21 894 4C925 1 925 -12 898 -20C782 -48 693 -89 622 -145C597 -165 557 -202 502 -259C630 -271 756 -279 783 -275C817 -271 851 -267 863 -268C907 -271 914 -291 865 -314C824 -334 803 -334 692 -315C708 -365 713 -382 724 -412C736 -443 745 -460 761 -473C786 -494 787 -505 740 -529C696 -552 682 -556 631 -540C603 -531 546 -518 485 -508C623 -630 630 -634 642 -638C678 -650 684 -664 633 -690C600 -707 594 -708 577 -698C540 -675 462 -658 428 -659C453 -686 487 -723 500 -736C520 -756 517 -765 470 -788C439 -803 427 -799 429 -773C432 -752 425 -737 390 -685C357 -636 295 -576 249 -544C232 -532 238 -524 254 -531C319 -560 376 -604 417 -646Z"/>
</svg>