<svg xmlns="http://www.w3.org/2000/svg" viewBox="0 -1000 1000 1000">
	<path fill="#000000" d="M979 -405C1001 -407 1000 -426 973 -432C833 -469 768 -497 581 -653C623 -657 667 -660 712 -662C784 -665 782 -690 743 -706C703 -723 681 -722 629 -707C602 -699 539 -687 471 -676C493 -719 511 -746 518 -757C534 -779 532 -791 490 -810C447 -828 430 -825 440 -794C447 -773 438 -723 410 -668C358 -660 305 -654 267 -653C231 -652 233 -641 260 -626C289 -611 298 -611 347 -620C361 -622 375 -624 388 -626C315 -502 218 -427 98 -361C76 -349 79 -335 108 -342C219 -369 362 -468 450 -637C485 -642 519 -646 553 -650C610 -587 703 -490 767 -436C819 -390 825 -389 979 -405ZM814 -363C796 -381 746 -390 693 -378C677 -375 639 -370 591 -364C632 -410 656 -436 665 -442C682 -456 679 -469 650 -490C623 -511 615 -509 611 -486C605 -454 585 -416 530 -357C518 -356 506 -354 494 -353L501 -430C517 -433 536 -438 558 -443C598 -452 600 -464 584 -473C568 -481 558 -483 504 -474C507 -496 509 -510 514 -524C524 -554 522 -559 468 -573C443 -578 432 -567 443 -552C453 -539 460 -520 459 -464C425 -458 402 -454 364 -449C350 -447 347 -437 357 -432C386 -420 409 -416 457 -423L454 -349C352 -338 248 -328 199 -325C181 -324 178 -314 189 -305C225 -278 238 -279 278 -289C303 -296 427 -318 502 -326C471 -293 438 -264 405 -236C363 -243 358 -238 364 -222C366 -218 367 -212 368 -206C301 -154 229 -108 149 -68C129 -58 134 -46 163 -52C215 -63 290 -96 375 -158C377 -125 377 -84 375 -40C373 -3 390 37 400 39C411 41 417 25 421 -3C462 -6 512 -10 550 -12C578 -13 589 -7 596 17C613 70 630 73 644 47C662 17 670 -37 669 -84C667 -176 671 -188 684 -204C696 -219 696 -225 649 -248C613 -266 597 -267 577 -260C555 -253 522 -246 473 -240C502 -267 531 -296 561 -329C623 -332 713 -334 744 -330C824 -325 836 -341 814 -363ZM608 -189C610 -158 610 -88 604 -52C601 -32 593 -26 580 -37C558 -57 546 -57 423 -32C424 -52 424 -81 424 -113C474 -107 510 -109 558 -123C578 -129 579 -150 560 -156C543 -160 524 -161 501 -154C475 -146 450 -141 424 -136C424 -157 424 -178 423 -196C428 -199 433 -203 437 -207C479 -214 544 -223 570 -224C596 -225 606 -213 608 -189Z"/>
</svg>