<svg xmlns="http://www.w3.org/2000/svg" viewBox="0 -1000 1000 1000">
	<path fill="#000000" d="M462 -203C462 -186 462 -165 462 -140C408 -135 343 -129 271 -124C236 -122 236 -109 266 -95C282 -87 296 -87 360 -99C371 -101 398 -104 462 -110C461 -44 460 -18 459 3C458 24 460 45 469 78C473 96 481 97 492 74C497 62 506 10 508 -36C509 -63 510 -90 511 -115C582 -121 638 -123 675 -121C739 -115 746 -133 712 -153C687 -168 662 -172 622 -162C606 -158 567 -152 511 -145C511 -172 511 -194 511 -208C549 -212 565 -214 593 -221C631 -229 631 -240 610 -247C592 -253 573 -252 553 -248C542 -246 528 -244 511 -241C512 -256 514 -265 516 -270C526 -292 522 -301 482 -312C432 -327 427 -316 447 -291C454 -284 458 -268 460 -234C430 -231 400 -227 381 -226C361 -224 359 -211 381 -206C402 -201 416 -199 462 -203ZM424 -501C420 -483 415 -465 407 -445C365 -440 327 -436 304 -436C282 -436 282 -422 301 -418C329 -411 341 -410 396 -416C390 -400 382 -382 373 -366C261 -352 213 -348 176 -347C148 -346 145 -340 168 -326C198 -309 216 -308 242 -313C290 -321 325 -328 355 -332C309 -257 234 -195 96 -131C77 -122 82 -109 102 -114C248 -152 355 -237 411 -341C447 -345 484 -349 541 -354C601 -300 686 -223 725 -190C765 -155 784 -152 938 -170C965 -173 963 -186 937 -191C780 -219 747 -235 575 -359C641 -365 684 -366 755 -365C817 -364 822 -384 796 -398C753 -419 733 -418 642 -402C587 -392 505 -381 427 -372C436 -389 443 -406 450 -421C521 -430 631 -447 660 -454C692 -462 693 -472 665 -479C646 -484 608 -482 587 -476C557 -469 510 -459 462 -452C468 -470 473 -486 478 -506C570 -517 667 -533 715 -543C744 -549 740 -567 712 -572C684 -577 657 -575 616 -567C567 -556 527 -549 489 -543C493 -554 497 -562 504 -571C515 -583 510 -593 467 -609C427 -623 420 -614 429 -592C434 -580 434 -559 431 -534C388 -528 342 -523 285 -518C260 -516 262 -505 283 -500C308 -492 331 -491 424 -501ZM570 -676C494 -667 453 -662 397 -656C396 -670 395 -677 396 -683C399 -716 391 -725 334 -738C293 -747 285 -728 312 -710C327 -699 336 -687 350 -651C280 -645 206 -640 192 -640C129 -643 126 -630 167 -607C186 -596 204 -594 238 -602C267 -608 310 -614 360 -621C377 -565 384 -558 391 -558C399 -558 407 -573 404 -594C402 -607 401 -617 400 -626C447 -631 510 -639 562 -642C557 -623 553 -604 547 -585C541 -564 549 -559 567 -578C588 -600 599 -618 607 -645C711 -649 743 -651 790 -646C837 -642 844 -663 802 -688C770 -707 744 -705 694 -692C683 -690 649 -686 622 -683C633 -709 639 -721 645 -725C668 -744 661 -761 615 -783C571 -805 559 -792 575 -764C585 -747 585 -734 570 -676Z"/>
</svg>