<svg xmlns="http://www.w3.org/2000/svg" viewBox="0 -1000 1000 1000">
	<path fill="#000000" d="M684 -758C708 -766 706 -780 652 -804C607 -824 597 -819 599 -788C600 -778 573 -745 525 -700C514 -690 525 -683 537 -689C629 -734 668 -752 684 -758ZM441 -712C440 -740 421 -761 369 -776C337 -785 330 -775 338 -762C358 -733 379 -705 395 -689C414 -671 442 -681 441 -712ZM908 -252C871 -278 836 -280 778 -270C751 -265 626 -254 492 -241C495 -250 498 -256 501 -261C512 -279 505 -290 455 -310C518 -317 570 -320 591 -320C626 -321 635 -317 642 -301C651 -284 664 -281 676 -296C694 -321 703 -349 705 -371C711 -453 716 -484 727 -497C747 -522 745 -530 709 -551C671 -574 661 -576 623 -563C614 -560 593 -556 564 -552C566 -572 570 -587 578 -602C585 -616 583 -625 553 -641C635 -649 703 -651 745 -650C827 -648 838 -665 825 -679C807 -698 767 -708 702 -695C572 -669 297 -637 210 -633C182 -631 180 -626 205 -608C217 -600 246 -597 274 -602C319 -610 366 -618 400 -622C414 -594 419 -565 417 -536C374 -531 337 -528 317 -528C280 -541 270 -527 292 -499C305 -482 311 -384 306 -343C302 -312 304 -298 318 -284C327 -275 338 -276 344 -296C372 -300 400 -303 427 -307C440 -292 446 -269 441 -237C300 -223 157 -213 102 -209C70 -207 73 -198 97 -180C115 -166 135 -162 183 -171C257 -185 345 -197 434 -207C410 -127 324 -47 189 7C159 20 161 33 199 27C328 5 445 -77 476 -188C515 -134 558 -76 598 -31C658 37 671 42 856 21C884 19 880 6 854 1C759 -19 685 -48 639 -81C584 -120 520 -176 495 -212C645 -223 778 -225 846 -214C939 -197 949 -224 908 -252ZM528 -548C506 -546 482 -544 457 -541C460 -559 461 -572 462 -577C465 -595 458 -606 429 -626C461 -630 491 -634 519 -637C532 -615 533 -596 528 -548ZM657 -498C656 -445 653 -405 647 -358C645 -347 638 -344 622 -348C601 -352 587 -352 347 -319C351 -374 352 -402 344 -504C368 -508 391 -512 415 -515C409 -482 393 -451 372 -431C360 -418 372 -409 387 -420C437 -457 447 -474 453 -519C476 -522 500 -525 527 -528C523 -458 537 -448 584 -448C618 -448 627 -454 627 -464C627 -473 617 -480 592 -480C568 -480 560 -491 562 -532C651 -542 658 -535 657 -498ZM575 -417C571 -420 542 -422 519 -417C500 -414 442 -402 415 -399C403 -398 403 -392 418 -384C436 -374 489 -373 562 -391C582 -396 587 -410 575 -417Z"/>
</svg>