<svg xmlns="http://www.w3.org/2000/svg" viewBox="0 -1000 1000 1000">
	<path fill="#000000" d="M839 -693C816 -704 768 -707 720 -697C697 -692 675 -689 646 -684C674 -730 681 -741 693 -754C708 -769 710 -785 668 -806C621 -829 613 -815 621 -794C628 -774 625 -742 598 -678C554 -672 497 -666 410 -658C406 -699 405 -718 405 -734C405 -758 401 -763 352 -773C312 -781 299 -764 322 -742C343 -721 352 -706 365 -654C251 -642 198 -639 166 -639C126 -639 126 -628 161 -610C185 -597 196 -594 248 -602C285 -608 334 -615 371 -621C374 -607 377 -591 380 -573C384 -547 402 -542 410 -563C415 -575 415 -605 413 -627C466 -633 525 -641 584 -646C573 -621 558 -592 548 -579C532 -555 542 -550 562 -563C578 -574 607 -616 626 -648C683 -650 763 -647 788 -645C881 -635 889 -669 839 -693ZM365 -340C363 -373 344 -388 286 -402C267 -407 264 -390 275 -377C295 -353 322 -328 337 -320C355 -311 366 -318 365 -340ZM703 -211C695 -243 668 -268 573 -306C649 -358 678 -373 692 -377C713 -383 719 -395 684 -415C647 -437 641 -428 635 -409C629 -390 617 -370 559 -312C542 -318 525 -324 506 -332C502 -368 499 -388 491 -400C618 -477 632 -485 667 -494C693 -501 700 -509 661 -537C623 -562 615 -564 595 -555C551 -536 380 -504 324 -510C275 -516 268 -500 305 -477C334 -459 350 -459 401 -474C503 -505 527 -511 564 -516C586 -519 588 -517 578 -505C557 -481 515 -444 477 -414C469 -419 459 -422 445 -426C429 -431 421 -415 434 -402C456 -381 471 -327 469 -258C467 -186 460 -181 410 -189C395 -191 395 -180 406 -171C424 -155 437 -141 448 -127C457 -118 466 -118 476 -126C502 -148 520 -191 507 -317C564 -277 603 -245 661 -197C695 -169 713 -174 703 -211ZM417 -287C441 -308 429 -313 405 -298C315 -244 293 -234 273 -231C241 -228 235 -212 259 -195C282 -178 294 -177 308 -190C326 -207 346 -224 417 -287ZM835 -246C848 -274 845 -292 800 -315C739 -346 729 -334 747 -299C765 -269 768 -246 759 -121C577 -114 416 -101 210 -80C223 -153 228 -204 226 -235C224 -268 220 -273 188 -292C150 -314 131 -291 148 -271C167 -249 174 -219 177 -154C179 -114 163 -89 135 -72C123 -64 122 -47 127 -31C140 9 148 10 172 -3C210 -25 230 -32 298 -43C493 -75 584 -86 755 -90C753 -72 750 -53 747 -38C735 28 756 48 772 35C799 12 801 4 816 -151C821 -202 826 -225 835 -246Z"/>
</svg>