<svg xmlns="http://www.w3.org/2000/svg" viewBox="0 -1000 1000 1000">
	<path fill="#000000" d="M402 -642C400 -675 400 -690 403 -701C410 -726 403 -739 340 -753C297 -762 289 -752 310 -729C326 -713 340 -680 352 -637C267 -628 186 -624 158 -624C121 -624 117 -614 143 -599C179 -577 196 -575 360 -602C364 -582 367 -561 370 -540C371 -530 384 -514 393 -515C406 -517 412 -551 404 -608C461 -615 549 -623 600 -627C583 -577 578 -564 571 -549C558 -522 570 -513 592 -535C609 -552 633 -586 652 -629C735 -633 795 -629 830 -625C892 -617 903 -647 850 -673C815 -690 793 -688 753 -682C731 -679 703 -675 670 -671C685 -708 691 -717 699 -729C713 -750 712 -760 668 -781C621 -804 606 -789 614 -772C623 -753 622 -711 610 -663C544 -656 470 -649 402 -642ZM334 -490C325 -502 301 -515 288 -521C268 -530 260 -525 260 -505C260 -474 239 -433 213 -401C204 -392 204 -379 214 -374C241 -356 271 -330 286 -308C302 -283 328 -286 329 -315C330 -345 322 -356 252 -382C241 -386 240 -392 254 -405C292 -441 312 -458 326 -467C338 -475 340 -484 334 -490ZM530 -511C520 -521 500 -534 486 -540C465 -548 457 -543 461 -519C464 -500 448 -455 420 -417C410 -405 410 -392 428 -382C462 -365 486 -343 501 -320C515 -299 534 -301 539 -328C544 -356 525 -375 460 -399C452 -402 450 -409 458 -419C478 -444 504 -470 527 -485C539 -493 539 -502 530 -511ZM763 -358C760 -387 745 -399 664 -423C646 -429 645 -435 656 -444C699 -481 727 -500 751 -511C767 -518 765 -534 733 -557C699 -582 684 -579 684 -551C684 -525 659 -486 617 -444C601 -427 604 -414 631 -404C668 -389 715 -353 726 -336C741 -312 767 -318 763 -358ZM519 -54C519 -84 519 -114 520 -139C556 -142 598 -146 624 -153C645 -158 644 -179 616 -186C603 -189 571 -188 520 -177C520 -189 523 -215 526 -224C529 -238 528 -246 516 -258C600 -271 633 -274 657 -275C696 -276 707 -266 707 -241C707 -196 698 -134 688 -101C670 -36 662 -35 644 -50C629 -62 578 -62 519 -54ZM295 -232C342 -235 402 -242 468 -251C471 -234 473 -209 474 -170C440 -166 394 -161 376 -159C349 -156 348 -142 364 -134C383 -125 409 -126 475 -135C475 -110 475 -81 474 -46C439 -42 376 -35 326 -30C321 -78 312 -148 295 -232ZM326 -1C355 -2 393 -5 434 -11C467 -17 547 -25 580 -26C619 -27 629 -20 636 2C650 47 656 54 661 54C669 54 685 46 706 15C728 -18 747 -78 766 -176C770 -198 779 -217 789 -231C809 -256 807 -266 791 -278C773 -293 754 -304 736 -312C703 -327 694 -326 659 -311C636 -302 372 -268 264 -261C214 -280 201 -262 226 -224C238 -205 264 -97 278 -15C283 18 295 37 307 37C315 37 324 20 326 -1Z"/>
</svg>