<svg xmlns="http://www.w3.org/2000/svg" viewBox="0 -1000 1000 1000">
	<path fill="#000000" d="M433 -671C432 -683 432 -690 432 -696C434 -723 429 -734 370 -751C337 -760 322 -747 345 -723C362 -707 370 -696 381 -665C313 -660 242 -655 228 -656C165 -659 162 -646 203 -622C222 -612 240 -609 274 -616C296 -621 309 -623 392 -634C394 -624 398 -614 401 -603C406 -585 416 -572 427 -572C435 -572 443 -586 440 -608C438 -620 437 -630 436 -639C490 -645 574 -653 632 -656C629 -640 624 -621 614 -586C609 -567 622 -562 634 -579C641 -589 660 -624 675 -658C811 -664 839 -665 876 -662C918 -659 926 -673 885 -703C865 -718 827 -720 773 -710C753 -707 724 -701 695 -698C706 -721 714 -733 720 -738C743 -756 738 -779 693 -799C650 -819 637 -813 648 -781C656 -760 651 -734 641 -691C607 -687 555 -682 433 -671ZM593 -589C584 -615 567 -628 511 -627C485 -627 484 -622 499 -607C521 -585 540 -569 561 -558C588 -546 602 -559 593 -589ZM702 -361C666 -355 622 -348 578 -342C579 -362 580 -381 581 -400C634 -410 652 -412 682 -414C699 -415 706 -409 709 -398C710 -394 708 -381 702 -361ZM575 -251C575 -267 575 -286 576 -314C614 -319 653 -325 693 -329C690 -318 686 -308 683 -296C678 -277 672 -271 658 -267C643 -263 611 -258 575 -251ZM434 -105C519 -118 626 -131 653 -132C682 -133 684 -128 681 -111C671 -55 668 -50 632 -41C615 -37 520 -23 452 -15C446 -46 440 -76 434 -105ZM370 -512C291 -551 271 -544 286 -514C297 -489 293 -424 270 -324C235 -166 193 -80 131 -1C98 41 107 50 144 19C218 -42 267 -127 304 -262C332 -363 347 -421 357 -488C395 -483 439 -485 515 -495C527 -476 531 -456 534 -421C499 -415 464 -410 436 -407C399 -403 398 -396 418 -384C440 -371 457 -372 535 -389C536 -376 536 -358 536 -336C453 -324 376 -313 360 -313C320 -312 320 -302 349 -289C368 -279 384 -279 417 -286C453 -295 493 -302 536 -308C536 -286 534 -264 534 -245C482 -237 429 -230 404 -229C371 -227 369 -218 394 -205C406 -198 423 -196 469 -206C480 -208 504 -213 533 -217C533 -189 534 -174 535 -167C537 -159 539 -153 542 -149C500 -143 453 -137 418 -135C362 -160 343 -146 360 -125C378 -103 396 -63 416 20C426 63 446 66 455 16C539 6 623 0 716 -5C738 -6 742 -25 734 -30C716 -41 715 -49 728 -65C748 -94 762 -109 775 -118C791 -128 791 -142 746 -166C704 -188 695 -187 670 -173C664 -169 617 -160 562 -152C569 -174 573 -195 574 -224C626 -232 682 -240 712 -241C744 -242 749 -260 733 -270C725 -275 724 -286 727 -296C729 -302 732 -309 745 -333C803 -338 875 -339 902 -338C942 -336 945 -355 916 -373C889 -388 846 -392 764 -371C772 -387 777 -394 785 -399C801 -410 799 -422 764 -446C728 -470 710 -469 685 -454C679 -450 636 -441 584 -431C585 -441 587 -448 588 -453C592 -474 584 -485 557 -501C618 -511 749 -533 761 -535C816 -546 814 -560 772 -571C750 -576 707 -574 669 -564C624 -550 577 -539 473 -521C435 -514 404 -512 370 -512Z"/>
</svg>