<svg xmlns="http://www.w3.org/2000/svg" viewBox="0 -1000 1000 1000">
	<path fill="#000000" d="M400 -656C400 -669 401 -675 401 -681C403 -708 398 -719 339 -736C306 -745 293 -731 317 -708C330 -694 337 -683 349 -651C232 -642 199 -640 184 -641C121 -644 118 -634 159 -610C178 -600 196 -596 230 -604C255 -609 282 -613 359 -622C362 -612 366 -601 370 -587C375 -570 385 -556 396 -556C404 -556 410 -569 407 -590C405 -606 404 -617 403 -627C451 -634 515 -639 567 -641C561 -623 554 -601 545 -575C539 -554 553 -551 565 -568C576 -582 589 -604 609 -643C750 -647 782 -648 821 -645C866 -642 872 -664 833 -686C807 -701 766 -699 718 -691C696 -687 659 -682 627 -677C640 -703 648 -716 656 -722C678 -741 673 -763 628 -784C585 -804 577 -795 588 -767C595 -747 593 -736 575 -671C534 -667 471 -661 400 -656ZM739 -18C737 -54 705 -90 597 -123C573 -130 567 -120 579 -108C609 -81 662 -21 682 7C718 56 743 47 739 -18ZM427 -84C454 -95 456 -103 413 -128C376 -149 363 -146 359 -120C356 -99 315 -41 181 24C156 35 159 43 202 33C264 17 333 -17 374 -46C399 -65 418 -79 427 -84ZM494 -194C304 -176 168 -168 151 -170C99 -175 93 -167 114 -152C138 -133 153 -129 184 -132C271 -147 448 -164 592 -171C680 -175 761 -172 810 -166C870 -158 875 -178 835 -204C804 -224 772 -226 690 -214C661 -211 600 -204 528 -197C541 -228 527 -250 470 -258C442 -261 437 -252 454 -235C466 -221 480 -208 494 -194ZM395 -266C480 -279 555 -283 573 -275C596 -266 603 -268 610 -276C617 -283 624 -295 639 -331C649 -355 665 -386 682 -401C706 -419 704 -431 678 -446C623 -478 605 -481 576 -472C545 -459 393 -437 331 -434C279 -446 272 -431 295 -411C316 -394 343 -334 355 -284C359 -266 373 -251 383 -251C390 -251 394 -258 395 -266ZM359 -410C395 -413 451 -419 519 -432C602 -446 610 -436 606 -401C603 -377 599 -364 584 -328C580 -317 570 -310 556 -310C515 -310 459 -303 392 -290C389 -305 384 -322 378 -341C417 -337 470 -342 537 -356C559 -362 564 -374 556 -379C544 -388 513 -387 494 -382C446 -373 407 -365 373 -359C369 -376 363 -394 359 -410ZM262 -499C307 -492 362 -496 446 -509C528 -521 577 -527 693 -538C732 -541 738 -536 731 -521C722 -504 713 -488 697 -466C688 -453 696 -446 714 -455C752 -475 788 -486 827 -490C853 -493 853 -507 836 -525C819 -543 807 -554 778 -576C759 -590 748 -591 702 -576C640 -555 332 -522 264 -521C251 -568 238 -568 229 -540C218 -508 200 -478 177 -454C162 -440 160 -431 165 -395C168 -372 189 -367 204 -387C230 -422 253 -463 262 -499Z"/>
</svg>