<svg xmlns="http://www.w3.org/2000/svg" viewBox="0 -1000 1000 1000">
	<path fill="#000000" d="M416 -150C413 -180 389 -197 349 -209C318 -218 313 -209 334 -181C352 -160 373 -135 383 -126C401 -107 418 -118 416 -150ZM677 -261C716 -266 753 -274 780 -283C807 -293 807 -309 779 -318C761 -325 731 -321 668 -304C642 -297 557 -281 524 -278C499 -276 499 -262 524 -256C541 -251 567 -249 623 -255C625 -242 626 -223 626 -181C573 -174 519 -168 468 -164C422 -160 421 -156 446 -140C478 -121 486 -121 521 -128C559 -136 594 -142 626 -147C626 -103 626 -69 625 -47C624 -8 626 33 631 59C637 91 651 91 661 59C669 29 672 7 675 -43C676 -66 677 -124 678 -155C753 -164 802 -167 862 -164C925 -161 928 -172 891 -202C870 -219 846 -222 796 -210C765 -203 725 -196 678 -189C679 -227 679 -247 677 -261ZM566 -340C585 -344 615 -348 678 -353C694 -354 710 -353 718 -350C737 -343 753 -347 770 -386C802 -464 814 -484 834 -500C852 -515 849 -532 787 -566C766 -578 752 -580 715 -566C698 -558 651 -549 530 -530C474 -558 459 -544 476 -511C497 -473 519 -405 527 -360C531 -338 540 -320 549 -320C558 -320 564 -326 566 -340ZM538 -503C597 -511 662 -520 702 -525C743 -532 755 -521 751 -497C747 -469 742 -449 733 -418C726 -394 721 -388 703 -386C645 -381 608 -376 564 -369C560 -392 557 -410 554 -427C600 -425 646 -432 682 -444C710 -453 708 -470 679 -476C665 -479 645 -475 624 -468C592 -457 574 -452 550 -448C546 -469 542 -486 538 -503ZM458 -399C473 -404 473 -421 434 -440C398 -457 388 -453 389 -418C389 -409 367 -373 340 -340C328 -325 332 -316 351 -328C369 -339 385 -349 415 -371C440 -389 451 -397 458 -399ZM337 -482C348 -507 342 -523 288 -541C249 -553 236 -537 268 -498C282 -481 287 -414 275 -265C268 -163 210 -79 115 -23C93 -9 101 4 123 -4C242 -52 302 -116 321 -256C325 -287 328 -329 328 -369C328 -418 333 -472 337 -482ZM230 -311C232 -342 214 -365 166 -380C147 -386 143 -383 149 -359C151 -350 184 -298 194 -289C210 -274 228 -279 230 -311ZM592 -674C541 -667 481 -659 418 -653C416 -685 415 -709 416 -715C422 -745 412 -757 363 -761C310 -766 307 -753 330 -733C347 -719 355 -699 368 -649C266 -640 234 -638 195 -638C159 -638 156 -623 189 -606C211 -594 231 -591 270 -602C287 -606 312 -610 377 -617C381 -606 384 -593 387 -580C393 -557 409 -542 417 -544C424 -546 427 -556 425 -574C423 -590 422 -607 420 -622C513 -633 555 -637 579 -639C571 -614 564 -594 557 -576C545 -548 558 -544 578 -567C599 -589 616 -614 630 -642C677 -644 734 -643 797 -639C853 -635 857 -658 814 -684C791 -697 757 -704 710 -693C702 -691 672 -686 647 -682C667 -723 672 -730 682 -741C699 -757 695 -772 651 -795C605 -820 589 -808 600 -781C610 -756 607 -719 592 -674Z"/>
</svg>