<svg xmlns="http://www.w3.org/2000/svg" viewBox="0 -1000 1000 1000">
	<path fill="#000000" d="M494 -60C490 -107 478 -135 391 -206C417 -254 453 -360 469 -428C473 -447 478 -465 486 -482C495 -504 491 -519 446 -548C420 -564 414 -556 417 -530C419 -512 419 -491 417 -467L309 -447C344 -595 369 -683 381 -707C391 -728 385 -742 373 -753C357 -768 333 -781 316 -789C293 -800 283 -788 289 -772C306 -724 302 -623 266 -439C130 -412 81 -406 48 -409C8 -413 6 -405 36 -368C65 -335 79 -332 113 -350C138 -361 195 -379 258 -398C254 -373 247 -347 241 -318C234 -288 235 -282 267 -256C289 -239 306 -220 325 -202C279 -144 211 -97 124 -55C91 -39 95 -26 134 -33C191 -41 278 -82 357 -165C383 -135 409 -95 445 -43C463 -16 497 -26 494 -60ZM877 -399C912 -428 913 -446 848 -485C806 -511 799 -512 770 -494C751 -482 645 -448 583 -447C519 -480 506 -461 519 -438C546 -391 561 -311 568 -194C571 -146 583 -123 595 -123C608 -123 616 -138 618 -174C688 -175 765 -186 830 -199C849 -203 851 -217 833 -230C818 -243 815 -251 824 -285C835 -327 864 -387 877 -399ZM414 -440C404 -371 381 -294 349 -240C333 -252 313 -266 293 -282C282 -291 277 -299 279 -309C287 -346 294 -378 301 -408ZM777 -408C780 -370 772 -285 762 -241C757 -222 754 -217 617 -203C609 -259 601 -341 596 -415C635 -420 686 -429 710 -437C764 -451 774 -445 777 -408Z"/>
</svg>