<svg xmlns="http://www.w3.org/2000/svg" viewBox="0 -1000 1000 1000">
	<path fill="#000000" d="M397 -680C396 -701 395 -715 395 -725C395 -756 393 -762 328 -773C303 -777 290 -761 310 -746C324 -736 335 -719 350 -675C232 -663 176 -659 161 -660C129 -661 125 -650 156 -633C180 -619 200 -618 256 -628C303 -638 335 -643 358 -646C362 -631 366 -616 371 -599C375 -584 385 -572 392 -574C400 -576 406 -586 404 -604C402 -621 401 -637 399 -650C439 -653 516 -660 567 -665C558 -638 553 -623 549 -612C541 -587 547 -583 564 -602C590 -629 603 -647 613 -670C701 -676 783 -678 811 -675C865 -669 870 -697 823 -722C798 -736 778 -737 729 -725C710 -721 671 -713 630 -707C640 -729 651 -750 660 -761C678 -790 674 -797 629 -815C582 -832 569 -819 583 -794C593 -779 593 -757 576 -699C528 -693 462 -686 397 -680ZM242 -9C280 -3 343 -5 611 -27C648 -30 654 -25 668 -3C681 18 693 38 702 60C712 82 727 81 754 37C774 5 787 -34 785 -74C781 -160 779 -257 776 -405C774 -479 777 -495 787 -516C799 -541 797 -552 759 -577C718 -603 697 -605 661 -592C631 -584 376 -546 241 -539C192 -560 178 -549 191 -531C207 -508 214 -468 212 -325C210 -168 206 -132 192 -74C181 -30 187 12 206 41C218 59 236 51 242 -9ZM252 -153C302 -172 343 -197 377 -230C377 -194 377 -172 377 -154C378 -106 403 -85 444 -78C498 -70 539 -72 595 -92C608 -97 614 -107 606 -122C599 -133 595 -152 594 -173C593 -196 580 -197 576 -176C569 -141 557 -126 528 -120C502 -113 473 -112 452 -115C427 -119 412 -130 411 -168C410 -193 411 -212 416 -235C438 -237 457 -240 477 -246C502 -253 509 -249 509 -233C509 -222 508 -213 503 -204C497 -192 489 -190 460 -199C447 -203 443 -194 455 -187C465 -180 475 -169 487 -152C494 -140 506 -139 514 -146C527 -158 536 -169 543 -191C553 -219 559 -233 563 -239C571 -252 569 -259 546 -272C524 -285 510 -285 496 -278C472 -267 441 -260 409 -259L406 -262C421 -280 433 -300 444 -322C466 -327 487 -330 506 -333C554 -280 571 -262 614 -221C629 -206 646 -201 728 -213C728 -111 725 -87 715 -37C711 -18 698 -14 680 -38C658 -70 648 -76 589 -67C516 -56 338 -40 246 -38C248 -69 250 -108 252 -153ZM425 -372C422 -362 418 -352 412 -342C363 -334 314 -328 286 -326C270 -325 269 -316 282 -310C303 -300 315 -297 340 -303C358 -307 377 -311 399 -314C366 -258 316 -207 253 -171C259 -366 260 -425 258 -510C317 -516 382 -523 441 -530C439 -526 439 -520 442 -515C452 -498 450 -459 434 -403C406 -398 382 -395 358 -393C347 -392 342 -380 354 -376C371 -370 390 -368 425 -372ZM478 -412C494 -475 497 -485 504 -491C514 -502 511 -510 457 -532C590 -546 638 -550 644 -550C698 -551 707 -545 714 -500C722 -450 728 -354 728 -229C658 -248 614 -268 531 -336C556 -340 584 -343 596 -343C670 -346 676 -364 647 -375C633 -381 605 -382 556 -369C535 -364 498 -355 456 -349C460 -359 463 -366 467 -379C494 -384 527 -392 568 -403C595 -410 599 -424 578 -433C570 -436 560 -436 478 -412ZM408 -451C405 -466 388 -480 363 -484C344 -487 340 -479 347 -468C356 -450 370 -433 383 -423C402 -409 416 -418 408 -451ZM633 -483C647 -485 646 -501 618 -517C594 -532 582 -527 579 -515C575 -498 560 -477 535 -458C514 -443 520 -434 547 -447C601 -473 619 -481 633 -483Z"/>
</svg>