<svg xmlns="http://www.w3.org/2000/svg" viewBox="0 -1000 1000 1000">
	<path fill="#000000" d="M198 -318C193 -380 190 -400 185 -438C206 -440 232 -443 250 -446C289 -453 298 -440 295 -412C292 -388 289 -375 279 -347C274 -336 251 -326 198 -318ZM157 -461C112 -478 106 -470 124 -439C137 -416 156 -340 157 -289C158 -249 173 -227 183 -227C190 -226 201 -243 200 -286C249 -293 295 -299 315 -302C352 -308 354 -320 332 -340C327 -345 323 -360 326 -369C334 -393 345 -414 360 -431C382 -454 382 -461 364 -474C318 -508 308 -509 273 -489C244 -473 198 -461 157 -461ZM661 -412C668 -402 671 -387 671 -348C629 -338 598 -330 575 -322C554 -315 555 -304 572 -302C594 -299 627 -303 671 -311L670 -249C648 -244 619 -239 574 -232C554 -229 551 -216 569 -211C589 -205 609 -203 670 -212L669 -125C600 -114 541 -109 490 -108C495 -199 497 -274 496 -318C495 -349 492 -365 471 -377C489 -405 504 -434 519 -465C534 -498 544 -508 555 -517C571 -533 567 -548 523 -569C484 -587 474 -580 486 -555C493 -540 490 -524 472 -481C435 -386 362 -267 291 -198C282 -189 287 -177 300 -187C357 -224 407 -278 452 -345C456 -310 457 -265 455 -207C453 -148 442 -86 430 -43C421 -10 422 12 444 50C454 66 468 65 473 50C481 27 485 3 489 -86C518 -76 554 -73 578 -77C685 -95 803 -103 857 -100C933 -96 937 -113 913 -137C896 -155 858 -159 817 -150C780 -143 745 -137 712 -131C713 -153 713 -187 714 -221C767 -230 785 -233 802 -237C836 -244 836 -260 817 -268C794 -278 775 -279 716 -262C717 -285 717 -307 718 -320C747 -327 793 -336 802 -340C824 -349 824 -363 807 -369C793 -374 777 -374 718 -361C718 -371 718 -380 719 -385C720 -394 716 -408 698 -419C776 -435 813 -442 838 -450C868 -461 868 -470 851 -480C838 -488 808 -488 780 -480C679 -450 640 -441 553 -424C529 -420 530 -409 554 -404C568 -401 597 -402 661 -412ZM739 -521C732 -547 711 -560 653 -565C638 -567 634 -556 643 -543C657 -525 697 -493 711 -491C730 -489 743 -503 739 -521ZM603 -683C556 -677 496 -670 411 -661C410 -688 410 -707 410 -716C410 -745 401 -750 350 -757C301 -764 299 -753 316 -739C334 -722 349 -694 360 -655C258 -643 221 -641 186 -642C152 -643 149 -634 176 -613C199 -594 213 -593 276 -607C294 -611 329 -616 369 -622C373 -605 376 -586 381 -566C383 -555 396 -540 401 -542C409 -544 418 -552 417 -569C415 -591 413 -611 412 -628C446 -633 498 -638 590 -646C582 -625 574 -606 567 -590C557 -569 569 -566 584 -581C598 -594 616 -619 633 -649C726 -655 787 -657 822 -654C877 -649 884 -679 827 -703C803 -713 782 -714 748 -708C716 -702 687 -696 654 -691C666 -711 679 -732 696 -753C710 -772 709 -779 664 -797C618 -816 604 -807 612 -789C621 -771 617 -728 603 -683Z"/>
</svg>