<svg xmlns="http://www.w3.org/2000/svg" viewBox="0 -1000 1000 1000">
	<path fill="#000000" d="M222 -162C220 -187 207 -188 199 -164C192 -142 184 -125 162 -89C153 -73 151 -53 153 -34C155 -17 172 -7 185 -19C217 -47 229 -86 222 -162ZM361 -75C365 -104 340 -139 301 -148C287 -152 284 -149 288 -139C292 -125 313 -76 322 -60C332 -40 356 -43 361 -75ZM487 -78C496 -116 465 -163 408 -162C397 -162 395 -159 400 -149C411 -128 435 -95 452 -78C467 -63 484 -64 487 -78ZM634 -94C645 -123 621 -170 544 -181C525 -184 524 -181 532 -168C547 -140 577 -103 604 -85C618 -74 627 -76 634 -94ZM546 -388C532 -393 521 -394 489 -386C430 -374 375 -366 344 -364C345 -375 345 -387 345 -408C383 -407 454 -413 502 -425C526 -432 530 -439 513 -449C501 -457 484 -459 424 -441C404 -435 386 -432 347 -427C348 -447 349 -458 349 -475C398 -482 481 -493 544 -501C568 -504 576 -499 575 -484C574 -454 557 -405 546 -388ZM385 -506C372 -504 359 -502 347 -500C275 -520 267 -513 280 -490C294 -463 300 -432 301 -370C302 -287 301 -262 298 -237C295 -212 294 -191 303 -166C310 -148 327 -154 337 -183C339 -189 343 -192 366 -196C410 -204 549 -221 672 -231C730 -236 741 -225 741 -187C740 -124 735 -96 714 -58C698 -27 684 -23 611 -47C592 -54 585 -41 599 -32C619 -18 652 31 661 56C667 74 676 77 698 65C752 34 778 -17 801 -120C809 -155 818 -184 831 -201C845 -219 843 -232 796 -257C750 -280 733 -281 706 -274C676 -265 429 -229 344 -223C343 -235 343 -249 343 -265C396 -268 533 -283 578 -293C605 -298 609 -310 592 -320C568 -334 528 -326 479 -312C442 -302 383 -291 343 -290C344 -305 344 -320 344 -335C396 -344 489 -359 532 -364C554 -337 574 -340 609 -406C635 -454 640 -464 656 -479C672 -496 671 -509 631 -528C592 -547 583 -548 554 -540C523 -532 476 -521 424 -512C444 -530 463 -541 479 -550C497 -560 494 -580 469 -592C431 -612 423 -611 424 -584C425 -568 415 -541 385 -506ZM364 -650C363 -668 364 -684 367 -705C370 -727 364 -737 300 -750C271 -756 260 -742 279 -724C296 -708 309 -682 322 -646C242 -638 192 -635 160 -636C117 -637 116 -621 143 -608C183 -587 196 -586 244 -601C254 -604 270 -607 331 -614C335 -600 338 -587 342 -573C345 -559 352 -552 363 -548C374 -544 384 -556 375 -586C372 -598 370 -608 368 -618C432 -624 474 -628 546 -635C538 -609 532 -590 524 -571C516 -554 527 -546 541 -558C560 -574 573 -596 592 -638C682 -644 754 -644 794 -638C835 -631 844 -652 825 -670C790 -703 763 -704 694 -691C671 -687 644 -683 610 -679C626 -714 630 -722 637 -734C652 -760 649 -767 600 -791C561 -810 548 -799 557 -780C568 -753 570 -722 558 -672C498 -664 429 -656 364 -650Z"/>
</svg>