<svg xmlns="http://www.w3.org/2000/svg" viewBox="0 -1000 1000 1000">
	<path fill="#000000" d="M698 -358C686 -376 668 -380 622 -373C597 -369 596 -363 616 -351C652 -332 666 -327 676 -326C701 -322 709 -339 698 -358ZM562 -224C575 -196 593 -162 609 -132C537 -91 485 -68 420 -49C399 -42 401 -30 427 -33C499 -42 559 -59 632 -97C676 -34 748 26 812 47C876 69 892 58 890 33C884 -26 882 -58 884 -94C885 -114 874 -115 866 -94C830 -2 814 1 762 -34C724 -59 702 -78 669 -119C692 -132 717 -148 744 -167C762 -178 770 -182 782 -189C809 -201 808 -214 773 -232C738 -249 727 -248 724 -229C720 -209 691 -181 643 -153C626 -179 612 -209 600 -236C650 -252 696 -269 716 -277C741 -287 741 -302 705 -305C679 -307 666 -303 584 -272C573 -299 564 -336 567 -347C571 -367 559 -379 519 -385C465 -394 460 -383 486 -366C501 -355 524 -314 546 -258C495 -239 429 -214 412 -210C390 -204 392 -193 415 -191C440 -188 470 -195 562 -224ZM327 -241C377 -294 384 -299 406 -314C422 -325 420 -339 377 -359C338 -377 331 -372 339 -348C344 -334 299 -270 263 -234C218 -190 193 -170 113 -123C89 -108 91 -98 124 -109C190 -131 245 -166 305 -222C310 -214 312 -204 310 -178C308 -100 301 -51 292 -30C281 -4 283 11 300 42C308 57 328 54 335 39C347 14 349 5 350 -28C352 -101 354 -157 355 -163C358 -188 351 -219 327 -241ZM212 -382C227 -378 241 -378 344 -388C519 -406 643 -413 740 -413C788 -413 799 -404 768 -360C750 -335 757 -325 793 -341C823 -355 866 -369 893 -371C925 -373 930 -402 841 -452C810 -470 796 -469 770 -456C762 -452 745 -450 647 -441C297 -409 262 -406 215 -404C205 -455 191 -455 182 -430C175 -409 164 -392 142 -363C124 -341 118 -316 122 -296C129 -261 145 -259 167 -286C184 -308 200 -340 212 -382ZM410 -489C385 -486 369 -484 327 -479C321 -506 312 -532 297 -560C327 -561 361 -564 386 -566C394 -534 400 -516 410 -489ZM569 -585C598 -586 619 -588 639 -589C672 -591 679 -585 671 -561C667 -551 657 -534 644 -513C635 -499 633 -499 607 -503C602 -504 579 -503 543 -501C553 -522 562 -538 573 -554C580 -565 580 -574 569 -585ZM519 -500C495 -498 466 -495 434 -491C441 -526 437 -542 410 -569C448 -574 461 -575 532 -582C533 -567 530 -546 519 -500ZM423 -706C422 -718 421 -728 424 -740C430 -762 422 -776 379 -783C331 -791 322 -778 345 -755C361 -741 367 -726 372 -703C302 -697 254 -695 236 -696C189 -698 187 -691 220 -671C245 -655 261 -654 307 -661C334 -665 359 -669 377 -671C390 -611 403 -600 411 -600C419 -600 427 -611 425 -675C462 -677 536 -681 570 -683C563 -656 560 -644 550 -614C520 -610 503 -609 478 -606C394 -595 333 -589 279 -585C229 -600 214 -589 236 -567C247 -556 279 -499 292 -456C296 -444 312 -432 322 -432C326 -432 331 -438 331 -451C403 -459 462 -465 570 -471C590 -472 618 -471 626 -465C642 -450 658 -450 678 -476C712 -518 742 -551 751 -555C780 -568 779 -578 760 -592C752 -598 738 -607 709 -621C691 -630 682 -631 639 -623C634 -622 627 -621 574 -616C588 -642 599 -661 611 -685C692 -690 752 -692 766 -691C829 -688 831 -709 791 -734C774 -746 745 -749 682 -734C670 -731 654 -728 635 -726C646 -745 657 -761 663 -768C676 -786 669 -801 621 -817C588 -827 577 -818 587 -790C592 -774 590 -753 580 -720C535 -715 481 -711 423 -706Z"/>
</svg>