<svg xmlns="http://www.w3.org/2000/svg" viewBox="0 -1000 1000 1000">
	<path fill="#000000" d="M428 -176C394 -73 308 -7 161 28C117 38 116 56 171 52C245 49 377 -4 426 -63C448 -90 464 -123 474 -154C594 -40 622 -16 652 10C712 60 720 64 872 41C920 34 918 23 862 10C721 -20 635 -65 481 -178V-180C671 -194 742 -194 782 -189C843 -183 846 -204 801 -235C780 -249 756 -252 658 -235C601 -226 555 -219 491 -213C507 -243 505 -248 466 -268C429 -287 417 -279 431 -250C436 -241 437 -226 434 -208C220 -188 193 -186 158 -187C119 -188 117 -177 143 -162C177 -141 185 -140 257 -153C339 -166 400 -174 428 -176ZM605 -316C598 -340 577 -356 539 -358C516 -359 515 -354 526 -342C547 -316 562 -304 583 -294C596 -287 611 -297 605 -316ZM500 -423C502 -453 504 -481 507 -487C515 -507 511 -515 484 -524C445 -537 439 -530 458 -498C462 -491 467 -455 468 -417C415 -407 394 -404 361 -403C332 -402 330 -387 351 -380C359 -377 373 -376 435 -383C421 -353 391 -321 349 -284C329 -268 336 -256 361 -267C403 -286 451 -331 469 -372C468 -363 467 -354 466 -347C459 -303 460 -298 464 -285C477 -259 494 -258 499 -289C503 -311 503 -325 501 -348C500 -360 499 -374 499 -390C540 -395 583 -401 596 -405C622 -413 622 -427 606 -431C582 -438 568 -439 559 -436C555 -434 537 -431 500 -423ZM419 -454C417 -470 394 -481 377 -483C358 -486 348 -480 359 -465C366 -453 377 -444 393 -435C406 -427 421 -434 419 -454ZM601 -480C630 -489 630 -497 597 -511C573 -521 565 -519 558 -502C551 -487 542 -476 530 -461C522 -450 529 -441 540 -449C564 -467 589 -476 601 -480ZM382 -549C350 -546 325 -543 295 -541C237 -558 228 -546 247 -522C263 -502 270 -395 258 -320C248 -268 249 -257 256 -242C274 -204 287 -205 295 -231C303 -256 306 -273 307 -307C310 -377 312 -470 308 -516C426 -532 559 -542 625 -543C645 -543 660 -534 661 -514C667 -411 666 -371 658 -339C650 -312 652 -295 662 -272C675 -239 685 -239 698 -261C711 -286 715 -307 715 -346C716 -491 718 -505 733 -521C747 -538 745 -549 699 -581C673 -598 651 -595 637 -590C611 -581 593 -578 419 -554C459 -581 479 -592 491 -598C508 -605 509 -620 453 -637C435 -642 421 -631 427 -618C430 -611 421 -591 382 -549ZM575 -708C523 -701 464 -692 402 -685C402 -707 403 -719 406 -728C413 -751 397 -770 340 -781C304 -788 298 -773 316 -757C335 -740 345 -718 357 -680C273 -674 231 -672 213 -673C166 -676 161 -664 192 -646C220 -629 233 -626 291 -639C310 -643 343 -648 365 -651C368 -642 370 -631 373 -620C379 -594 386 -586 393 -588C403 -591 407 -607 406 -621C405 -635 404 -646 403 -655C454 -661 511 -668 564 -673C559 -654 555 -645 546 -630C531 -602 546 -591 566 -612C590 -637 597 -648 610 -677C660 -681 712 -682 753 -679C836 -673 843 -693 807 -718C777 -739 748 -738 712 -730C693 -726 663 -721 628 -716C636 -733 646 -750 653 -758C671 -778 669 -793 617 -818C583 -834 572 -826 584 -791C589 -780 589 -758 575 -708Z"/>
</svg>