<svg xmlns="http://www.w3.org/2000/svg" viewBox="0 -1000 1000 1000">
	<path fill="#000000" d="M817 -665C857 -687 856 -695 793 -741C769 -759 756 -757 738 -744C705 -719 564 -695 510 -696C473 -697 469 -691 485 -674C492 -667 511 -658 521 -655C534 -651 544 -651 579 -660C636 -675 718 -701 733 -704C764 -710 767 -708 668 -564C653 -575 631 -584 596 -590C571 -594 570 -589 587 -565C601 -547 626 -518 644 -503C671 -483 683 -486 685 -521C686 -532 683 -544 676 -554C761 -628 793 -652 817 -665ZM443 -470C454 -497 446 -509 408 -527C385 -538 379 -532 382 -517C385 -500 386 -481 385 -460L288 -439C333 -653 346 -706 352 -714C371 -736 370 -747 352 -761C337 -775 320 -785 299 -793C276 -803 266 -797 272 -783C291 -731 293 -651 252 -432C181 -418 106 -411 81 -414C43 -419 35 -406 72 -373C98 -350 110 -349 142 -364C156 -369 195 -383 245 -398C242 -373 237 -349 231 -321C225 -294 229 -282 248 -269C270 -254 290 -237 309 -216C266 -153 200 -98 148 -68C115 -48 117 -41 151 -49C204 -63 281 -111 338 -186C356 -167 372 -146 383 -129C422 -75 443 -82 438 -130C435 -154 406 -188 364 -223C393 -276 418 -363 425 -401C428 -418 437 -454 443 -470ZM924 -423C968 -435 966 -453 897 -496C864 -515 847 -516 820 -506C766 -487 562 -449 480 -443C453 -441 449 -433 463 -423C470 -418 484 -410 492 -406C504 -401 515 -401 545 -412C570 -421 581 -424 616 -433C663 -373 670 -205 653 -104C643 -43 630 -40 551 -55C528 -60 526 -53 540 -40C569 -13 595 21 607 46C618 68 634 68 656 45C719 -21 729 -98 709 -227C701 -281 698 -346 700 -356C709 -397 707 -405 653 -442C716 -457 770 -466 799 -470C846 -478 850 -475 823 -405C805 -362 813 -358 835 -376C864 -399 896 -415 924 -423ZM383 -436C377 -375 358 -304 329 -250C310 -264 290 -276 270 -289C261 -294 259 -300 262 -314C269 -349 276 -379 281 -407Z"/>
</svg>