<svg xmlns="http://www.w3.org/2000/svg" viewBox="0 -1000 1000 1000">
	<path fill="#000000" d="M587 -212C617 -219 652 -226 673 -227C706 -229 722 -223 726 -205C730 -184 733 -110 730 -68C728 -42 715 -37 705 -46C687 -65 672 -71 644 -66C614 -61 591 -57 571 -53C572 -73 573 -98 573 -126C606 -124 636 -127 685 -143C704 -149 702 -164 684 -169C667 -175 656 -173 628 -164C608 -157 593 -154 573 -149C574 -166 574 -183 574 -200C578 -204 582 -208 587 -212ZM651 -432C668 -436 683 -442 699 -448C725 -459 724 -470 710 -476C695 -483 675 -484 653 -478C657 -497 662 -515 668 -532C673 -546 668 -552 636 -560C587 -574 579 -560 596 -537C603 -526 608 -496 609 -463C572 -451 544 -444 519 -440C505 -438 504 -433 515 -428C533 -419 559 -416 610 -424L609 -349C541 -339 476 -330 445 -328C417 -326 417 -314 436 -306C475 -290 492 -290 508 -297C526 -303 587 -315 639 -325C614 -296 589 -266 562 -238C519 -251 514 -248 530 -204C486 -162 442 -124 403 -95C386 -81 389 -68 408 -77C446 -94 485 -120 533 -162C534 -125 532 -69 528 -42C523 -6 534 16 545 16C558 16 565 6 569 -27C599 -29 634 -31 659 -34C687 -36 704 -26 717 11C734 56 745 57 757 37C777 6 786 -37 785 -83C783 -170 785 -197 797 -215C806 -230 803 -237 769 -258C738 -276 728 -277 700 -265C683 -258 652 -250 618 -244C644 -270 673 -300 704 -335C764 -342 823 -346 843 -345C925 -341 931 -367 898 -381C869 -395 843 -396 806 -386C788 -382 765 -377 737 -372C747 -384 752 -392 767 -412C777 -427 788 -440 811 -463C829 -480 827 -488 796 -502C748 -522 739 -518 744 -488C747 -472 737 -447 668 -360C662 -359 657 -358 650 -356ZM589 -659C542 -654 478 -648 421 -643C419 -656 419 -664 419 -671C421 -702 418 -716 357 -725C312 -732 303 -718 330 -697C341 -688 355 -670 368 -639C244 -627 202 -625 194 -625C129 -628 126 -621 167 -593C192 -577 202 -577 242 -586C258 -589 286 -593 382 -604C385 -593 389 -581 392 -569C397 -550 406 -538 418 -538C426 -538 434 -552 431 -574C429 -587 428 -599 426 -609C513 -618 537 -620 579 -622C573 -599 568 -581 560 -550C556 -535 566 -530 580 -549C591 -562 603 -587 621 -625C766 -631 820 -630 837 -629C885 -626 893 -650 848 -675C821 -689 787 -690 730 -680C707 -676 672 -671 641 -667C650 -683 661 -698 668 -708C694 -738 693 -746 640 -770C592 -791 583 -780 594 -751C601 -729 600 -706 589 -659ZM385 -249C366 -257 343 -257 321 -249C268 -232 209 -217 188 -214C172 -212 172 -206 189 -199C213 -191 276 -196 378 -226C397 -231 397 -244 385 -249ZM383 -337C367 -345 350 -346 309 -332C279 -321 217 -305 199 -302C185 -299 185 -290 195 -287C235 -277 286 -280 368 -306C404 -317 406 -326 383 -337ZM440 -429C429 -434 398 -434 378 -430C295 -410 170 -392 116 -394C86 -395 85 -384 101 -372C147 -339 155 -337 199 -351C230 -362 261 -369 423 -401C458 -408 457 -421 440 -429ZM362 -489C363 -514 349 -532 271 -542C251 -545 248 -538 257 -526C282 -499 306 -477 322 -469C344 -456 361 -463 362 -489ZM220 -112C254 -119 298 -126 313 -129C330 -133 338 -129 337 -112C336 -92 334 -72 331 -60C327 -49 306 -43 238 -32C231 -60 225 -89 220 -112ZM244 -5C288 -10 344 -20 383 -29C398 -33 401 -49 385 -58C372 -64 372 -67 379 -83C394 -114 401 -129 406 -133C417 -142 417 -149 385 -164C356 -176 349 -174 326 -163C310 -155 247 -142 196 -136C191 -137 185 -139 176 -141C152 -146 144 -138 157 -122C166 -110 170 -100 201 -8C207 9 215 24 225 30C235 36 245 28 244 -5Z"/>
</svg>