<svg xmlns="http://www.w3.org/2000/svg" viewBox="0 -1000 1000 1000">
	<path fill="#000000" d="M969 4C998 -1 997 -17 965 -23C833 -49 760 -81 672 -169C697 -204 718 -252 732 -296C739 -320 756 -356 764 -363C788 -386 788 -395 744 -415C718 -427 707 -425 689 -414C681 -409 667 -404 649 -398L658 -528C696 -539 746 -553 811 -571C844 -580 840 -599 808 -607C792 -611 761 -606 741 -599C723 -592 693 -582 660 -572C667 -651 678 -702 686 -718C700 -746 689 -759 634 -781C581 -803 575 -782 593 -755C609 -729 614 -673 612 -557C575 -546 538 -536 515 -530C487 -524 484 -521 508 -511C525 -504 545 -503 612 -517L608 -386C570 -376 524 -367 483 -362C457 -359 457 -348 483 -339C504 -331 531 -338 567 -348C690 -385 694 -382 688 -354C678 -309 659 -241 639 -203C623 -221 605 -242 587 -265C554 -304 545 -309 503 -310C471 -311 476 -297 503 -286C521 -279 551 -258 581 -224C594 -209 608 -193 621 -175C580 -122 508 -78 434 -50C403 -38 408 -31 432 -33C522 -41 596 -82 649 -141C674 -109 699 -77 723 -45C765 11 779 17 819 17C869 17 929 11 969 4ZM441 -440C452 -458 447 -469 411 -493C391 -506 378 -503 382 -479C384 -466 384 -444 381 -418L281 -394C328 -617 336 -649 341 -658C352 -678 353 -694 345 -701C329 -715 308 -729 286 -739C263 -749 247 -738 258 -717C275 -683 280 -603 243 -385C168 -368 93 -356 66 -359C26 -363 21 -345 49 -318C73 -297 83 -296 113 -308C132 -316 188 -336 237 -351C233 -326 229 -301 224 -275C217 -240 219 -227 237 -213C256 -199 276 -183 294 -167C258 -118 201 -68 138 -28C109 -10 111 0 144 -11C210 -34 273 -76 323 -141C342 -121 360 -102 373 -85C394 -56 408 -61 408 -96C408 -122 397 -141 346 -176C380 -234 413 -332 425 -389C428 -406 437 -433 441 -440ZM378 -391C369 -330 347 -256 314 -197C297 -208 278 -220 256 -234C249 -238 249 -244 254 -264C261 -299 268 -332 274 -362Z"/>
</svg>