<svg xmlns="http://www.w3.org/2000/svg" viewBox="0 -1000 1000 1000">
	<path fill="#000000" d="M520 -71C458 -98 415 -118 385 -132C415 -129 433 -129 521 -135C545 -137 559 -138 580 -138C594 -138 596 -133 585 -124C567 -105 546 -88 520 -71ZM341 -345C287 -360 281 -349 290 -334C304 -311 310 -289 310 -256C310 -209 312 -189 315 -179C322 -161 335 -158 342 -182C352 -183 365 -184 382 -186C372 -172 356 -157 319 -129C278 -97 202 -58 149 -35C124 -25 126 -16 149 -20C218 -32 299 -71 365 -119C408 -94 444 -74 485 -52C412 -16 286 15 206 26C190 28 191 39 210 39C313 42 410 22 526 -30C556 -15 588 3 626 23C697 60 709 63 886 35C914 31 915 14 881 11C749 0 657 -19 566 -54C590 -68 609 -86 631 -104C642 -113 657 -121 671 -126C694 -134 695 -144 658 -162C626 -177 608 -177 590 -171C571 -165 455 -149 403 -146C412 -153 425 -160 442 -168C437 -177 431 -183 422 -189C469 -191 530 -194 595 -197C621 -198 627 -199 631 -195C643 -182 647 -182 657 -194C668 -207 676 -232 684 -279C687 -296 703 -318 711 -325C726 -335 724 -348 683 -369C654 -383 645 -385 602 -376C566 -369 505 -361 341 -345ZM349 -298C349 -308 349 -316 348 -327C433 -337 553 -346 592 -347C625 -347 633 -344 635 -329C638 -304 636 -277 622 -235C615 -215 610 -214 598 -221C594 -223 421 -211 347 -205C348 -215 349 -225 349 -236C409 -234 501 -238 559 -247C581 -250 582 -259 565 -268C550 -275 512 -271 470 -263C454 -260 403 -256 350 -255C350 -264 350 -273 350 -282C420 -283 534 -292 560 -297C581 -302 580 -309 565 -314C541 -322 520 -320 455 -308C418 -301 376 -298 349 -298ZM462 -554C497 -550 530 -550 573 -554C550 -530 532 -513 489 -484C379 -473 307 -467 261 -463C192 -482 184 -469 195 -455C214 -433 225 -414 228 -404C233 -386 236 -377 246 -366C262 -344 279 -347 282 -369C284 -383 282 -404 278 -415C275 -420 273 -431 272 -441C319 -443 388 -448 454 -456C452 -452 447 -448 441 -441C419 -416 386 -396 348 -375C333 -367 336 -363 357 -367C402 -376 435 -394 472 -425C534 -400 556 -392 582 -383C606 -376 616 -387 606 -400C589 -422 557 -435 482 -434C490 -439 501 -444 508 -447C515 -450 516 -453 505 -463C567 -470 614 -473 698 -478C733 -480 742 -474 736 -461C716 -420 711 -412 697 -400C687 -392 699 -374 725 -387C743 -397 748 -401 773 -424C797 -446 804 -453 813 -456C835 -465 837 -481 785 -505C746 -523 724 -521 697 -514C661 -505 626 -499 527 -488C611 -535 640 -548 661 -553C679 -558 679 -569 634 -592C621 -600 608 -601 597 -595C574 -583 529 -573 482 -571C488 -574 493 -577 498 -579C511 -586 509 -595 463 -605C436 -610 423 -606 428 -593C432 -585 429 -582 395 -550C377 -534 359 -520 317 -497C298 -486 300 -480 319 -484C362 -495 427 -524 462 -554ZM614 -670C707 -674 740 -674 814 -669C856 -665 868 -692 825 -716C804 -728 781 -731 734 -723C704 -717 675 -712 630 -706C642 -732 652 -746 659 -751C681 -770 676 -792 631 -813C583 -834 578 -825 589 -794C597 -770 595 -748 582 -701C501 -692 469 -689 419 -684C419 -693 419 -701 420 -710C422 -737 417 -748 358 -764C325 -774 312 -760 335 -737C352 -720 361 -706 370 -679C302 -674 230 -669 216 -670C153 -673 150 -659 191 -636C210 -625 228 -622 262 -629C290 -636 332 -643 381 -649C383 -642 385 -636 389 -624C395 -607 403 -593 415 -593C423 -593 429 -600 426 -621C424 -635 423 -645 422 -654C463 -659 523 -664 573 -668C564 -634 561 -624 559 -614C555 -596 566 -590 578 -607C592 -625 602 -642 614 -670Z"/>
</svg>