<svg xmlns="http://www.w3.org/2000/svg" viewBox="0 -1000 1000 1000">
	<path fill="#000000" d="M562 -716C521 -712 464 -706 384 -698C383 -711 383 -722 383 -727C382 -747 376 -756 340 -767C299 -781 290 -764 306 -747C322 -730 333 -707 337 -694C182 -680 170 -680 159 -681C133 -684 130 -670 158 -652C177 -641 185 -638 233 -648C252 -652 264 -654 344 -663C350 -647 356 -630 359 -624C365 -610 377 -613 382 -629C384 -639 385 -654 385 -668C438 -673 497 -678 549 -682C539 -654 534 -643 527 -627C519 -610 530 -606 543 -619C561 -637 568 -645 591 -685C671 -690 722 -691 771 -686C809 -682 821 -701 793 -720C757 -742 728 -743 656 -728C646 -726 633 -724 611 -722C623 -740 632 -754 638 -760C651 -773 651 -782 614 -798C571 -817 561 -805 572 -784C577 -773 575 -753 562 -716ZM306 -129C302 -133 293 -133 272 -125C178 -88 132 -74 111 -74C77 -74 70 -63 98 -42C129 -18 135 -18 162 -37C176 -46 270 -100 283 -106C308 -119 310 -126 306 -129ZM644 -150C640 -154 627 -149 607 -141C501 -97 476 -90 448 -88C410 -86 408 -70 439 -50C471 -28 478 -28 501 -47C518 -62 600 -112 625 -125C646 -135 649 -146 644 -150ZM386 -64C379 -125 385 -196 393 -212C404 -235 400 -241 359 -260C330 -273 323 -271 289 -258C256 -245 224 -239 193 -238C160 -236 157 -227 176 -217C199 -205 223 -205 252 -214C264 -218 274 -221 299 -225C323 -229 328 -225 334 -186C339 -150 338 -85 335 -69C326 -27 317 -22 264 -37C249 -41 242 -27 258 -17C292 6 305 19 313 33C323 52 333 53 354 32C379 5 390 -22 386 -64ZM250 -156C247 -175 221 -196 182 -197C162 -198 159 -188 167 -177C186 -157 202 -143 221 -137C240 -130 252 -140 250 -156ZM575 -192C564 -211 528 -221 496 -211C472 -204 472 -199 487 -191C514 -175 536 -166 556 -165C577 -164 584 -175 575 -192ZM676 -293C639 -309 629 -308 597 -292C573 -279 496 -261 469 -259C445 -257 444 -249 456 -242C478 -227 485 -227 519 -239C541 -247 572 -253 617 -260C638 -263 645 -257 649 -219C657 -154 659 -89 651 -38C647 -12 641 -8 568 -28C554 -32 545 -19 561 -9C589 8 623 43 636 62C648 78 657 78 672 63C701 35 709 6 709 -23C709 -35 707 -119 706 -139C703 -193 704 -213 717 -240C729 -262 724 -271 676 -293ZM461 -375C453 -395 424 -405 386 -400C368 -398 367 -390 378 -383C395 -373 409 -365 441 -352C456 -346 467 -360 461 -375ZM572 -574C631 -589 647 -586 646 -578C645 -567 645 -536 646 -515C647 -505 656 -498 685 -496C720 -493 755 -496 771 -501C787 -506 789 -518 770 -527C746 -539 738 -542 718 -533C696 -521 682 -532 684 -552C686 -570 693 -582 710 -599C722 -610 721 -618 693 -629C662 -642 653 -640 636 -623C626 -613 598 -604 565 -599C516 -617 504 -609 522 -584C539 -560 534 -509 508 -475C487 -446 495 -444 522 -459C560 -484 574 -513 572 -574ZM630 -345C653 -332 669 -322 705 -300C750 -271 781 -270 880 -297C915 -306 915 -324 869 -324C798 -325 728 -337 657 -367C699 -427 705 -434 715 -440C728 -447 729 -458 694 -480C669 -495 658 -491 648 -483C638 -474 604 -464 560 -455C544 -452 542 -442 554 -440C581 -436 606 -438 641 -447C656 -451 661 -444 656 -432C647 -412 636 -396 622 -382C608 -388 595 -396 581 -403C555 -417 539 -424 526 -422C503 -419 502 -406 522 -401C540 -396 547 -394 600 -363C580 -349 558 -337 530 -326C509 -316 510 -302 538 -308C575 -316 607 -331 630 -345ZM244 -577C166 -599 159 -590 170 -571C183 -550 187 -498 185 -452C181 -366 177 -338 163 -313C155 -300 157 -293 168 -276C182 -258 193 -257 210 -269C218 -275 246 -280 287 -286C355 -297 383 -300 433 -300C460 -300 464 -317 437 -332C423 -340 397 -339 372 -333C310 -318 252 -311 218 -310C218 -346 219 -380 220 -413C259 -404 280 -404 324 -413C310 -383 288 -354 261 -337C241 -325 248 -313 268 -322C324 -348 350 -372 365 -421C404 -428 448 -436 464 -438C481 -441 491 -453 470 -462C455 -468 422 -466 373 -452C376 -465 379 -478 382 -492C400 -495 418 -499 436 -505C459 -514 458 -528 445 -534C429 -540 423 -539 404 -532C363 -517 342 -510 328 -508C334 -515 340 -521 343 -524C355 -536 354 -544 326 -551C302 -557 297 -554 296 -542C293 -513 281 -488 253 -459C247 -452 250 -445 265 -453C284 -464 299 -477 314 -492C324 -491 333 -490 343 -490C342 -475 339 -458 334 -442C287 -431 246 -424 221 -421C223 -476 226 -522 230 -554C293 -551 386 -567 445 -585C470 -593 470 -604 447 -611C431 -615 423 -614 392 -607C332 -592 287 -584 244 -577Z"/>
</svg>