<svg xmlns="http://www.w3.org/2000/svg" viewBox="0 -1000 1000 1000">
	<path fill="#000000" d="M396 -651C396 -671 397 -684 400 -693C406 -715 395 -726 334 -738C295 -745 288 -730 316 -710C328 -701 338 -683 350 -646C261 -637 187 -630 168 -630C126 -630 124 -621 160 -601C179 -590 198 -588 231 -595C287 -607 330 -614 358 -617C360 -609 362 -600 365 -589C369 -572 377 -554 389 -554C397 -554 404 -569 402 -584C400 -599 399 -609 397 -622C437 -626 518 -634 553 -636C539 -596 532 -580 525 -569C510 -544 520 -536 546 -561C560 -574 572 -592 595 -639C706 -644 727 -644 794 -640C838 -637 846 -660 807 -683C777 -701 757 -702 697 -689C672 -684 649 -681 614 -677C630 -707 636 -717 645 -724C668 -743 664 -756 619 -780C575 -804 561 -795 571 -767C577 -750 576 -725 562 -670C510 -663 453 -657 396 -651ZM384 -271C400 -274 412 -277 429 -283C441 -287 447 -283 446 -276C444 -262 445 -248 442 -235C440 -227 426 -216 393 -209C387 -242 386 -250 384 -271ZM263 -346C254 -344 254 -336 262 -334C289 -326 368 -335 431 -361C447 -368 448 -375 438 -383C424 -392 384 -390 367 -383C337 -370 300 -358 263 -346ZM230 -159H232C238 -136 235 -116 220 -91C181 -27 171 -19 121 25C110 34 113 40 126 35C175 17 225 -28 251 -67C266 -39 281 -18 293 -2C302 9 322 -1 321 -19C320 -50 317 -56 260 -83C271 -99 279 -107 283 -110C296 -123 292 -133 247 -164C274 -171 293 -174 309 -176C325 -178 328 -192 315 -206C322 -223 324 -229 339 -244C348 -252 341 -259 324 -270C296 -286 291 -284 279 -277C261 -268 240 -260 206 -256C180 -267 168 -258 177 -243C188 -225 197 -203 206 -164C213 -138 226 -138 230 -159ZM221 -234C238 -238 253 -241 266 -247C282 -253 287 -252 287 -240C287 -226 286 -216 284 -205C283 -200 276 -193 229 -183C227 -199 223 -217 221 -234ZM361 -486C415 -449 463 -420 486 -410C526 -392 535 -407 524 -434C515 -453 501 -462 456 -478C430 -487 409 -493 374 -503C398 -527 396 -536 367 -557C330 -585 316 -577 324 -549C328 -537 316 -503 288 -463C221 -365 159 -303 75 -240C58 -229 60 -223 84 -231C138 -248 271 -352 341 -459C345 -466 354 -477 361 -486ZM401 -188C408 -169 406 -139 398 -123C367 -57 344 -25 307 5C297 14 301 17 314 13C341 4 389 -35 420 -79C439 -51 452 -35 463 -23C470 -16 479 -11 486 -15C480 -11 474 -9 469 -6C447 4 453 15 475 10C536 -3 622 -58 662 -110C691 -71 714 -38 738 -5C754 17 763 20 918 12C941 11 942 -5 916 -12C818 -41 768 -60 683 -148C699 -180 710 -217 717 -260C722 -292 727 -315 734 -331C742 -348 742 -352 703 -375C767 -385 781 -388 849 -404C880 -411 884 -430 853 -438C828 -445 807 -446 771 -435C684 -408 642 -399 604 -395C621 -421 638 -452 654 -486C666 -510 674 -521 683 -528C699 -541 700 -547 647 -580C615 -601 603 -591 610 -570C615 -553 615 -538 606 -509C582 -434 550 -361 515 -311C503 -294 509 -285 528 -301C545 -315 574 -349 593 -377C621 -369 639 -367 669 -370C678 -327 669 -239 650 -186C636 -201 622 -217 605 -239C580 -271 571 -276 547 -275C525 -274 521 -261 538 -251C564 -238 581 -224 634 -149C602 -94 551 -52 488 -16C492 -19 495 -25 495 -33C496 -59 488 -76 431 -97C452 -128 457 -133 462 -137C473 -146 470 -156 410 -191C435 -198 448 -201 472 -205C486 -207 486 -224 474 -232C478 -248 487 -264 500 -273C513 -282 505 -293 480 -305C454 -318 446 -318 439 -313C423 -302 397 -293 373 -289C340 -295 331 -289 338 -275C352 -251 361 -228 372 -188C378 -167 392 -165 395 -186C397 -187 399 -187 401 -188Z"/>
</svg>