<svg xmlns="http://www.w3.org/2000/svg" viewBox="0 -1000 1000 1000">
	<path fill="#000000" d="M374 -93C371 -84 363 -72 349 -57C316 -22 269 7 210 32C190 40 195 56 218 50C299 32 353 -2 416 -64C430 -77 432 -85 416 -98C447 -102 481 -105 509 -108C547 -112 554 -99 539 -53C525 -5 507 1 462 -14C437 -22 430 -9 443 1C467 20 477 34 487 54C495 74 502 75 528 57C557 36 569 16 581 -18C593 -51 601 -70 611 -77C628 -89 633 -108 595 -130C565 -147 554 -145 541 -140C521 -132 373 -113 327 -113C299 -113 297 -106 312 -97C323 -90 333 -86 358 -91C363 -92 368 -93 374 -93ZM522 -222C540 -226 536 -239 511 -238C473 -236 440 -233 384 -225C367 -222 368 -212 386 -211C441 -208 476 -211 522 -222ZM503 -302C596 -309 606 -305 604 -271C603 -253 599 -234 591 -203C589 -196 585 -193 567 -195C544 -197 424 -193 313 -180C307 -222 304 -243 297 -276C320 -278 347 -281 382 -286C376 -266 360 -246 336 -232C325 -225 330 -219 350 -226C381 -235 408 -260 415 -291C436 -294 458 -297 475 -299C473 -262 484 -255 523 -255C560 -253 573 -256 573 -265C573 -274 560 -277 543 -276C505 -276 499 -279 503 -302ZM514 -343C560 -347 605 -351 660 -356C693 -362 694 -370 673 -376C650 -383 634 -383 589 -377C537 -371 462 -363 386 -355C337 -351 290 -347 247 -344C219 -343 220 -339 240 -333C258 -328 275 -327 378 -334C383 -322 385 -312 384 -303C348 -299 314 -297 288 -296C255 -307 242 -300 251 -283C266 -252 272 -228 282 -171C252 -138 144 -75 63 -45C45 -38 46 -24 68 -28C158 -49 247 -88 304 -130C312 -135 323 -141 331 -145C339 -148 339 -153 328 -164C427 -172 513 -175 564 -173C573 -173 582 -173 590 -174C626 -148 649 -132 720 -84C769 -51 783 -47 920 -70C948 -74 948 -89 919 -93C820 -108 780 -118 740 -132C696 -148 659 -164 615 -184C626 -193 632 -205 636 -223C641 -241 654 -268 664 -276C681 -294 680 -301 638 -319C608 -334 595 -334 506 -318C508 -328 511 -335 514 -343ZM406 -335C432 -337 455 -338 477 -340C478 -333 478 -326 477 -314C458 -311 437 -308 418 -306C419 -318 416 -326 406 -335ZM452 -465C451 -478 448 -490 444 -502C458 -506 466 -507 476 -509C491 -512 495 -507 493 -491C491 -475 486 -471 474 -468C468 -467 461 -466 452 -465ZM437 -516C421 -522 412 -521 421 -505C426 -496 433 -471 438 -444C440 -436 442 -431 450 -432C453 -433 454 -436 453 -448C465 -448 481 -450 502 -453C521 -455 525 -463 514 -473C510 -478 509 -481 512 -485C516 -492 522 -503 526 -509C530 -515 531 -519 520 -528C509 -537 500 -536 489 -530C475 -521 458 -517 437 -516ZM541 -421C496 -418 444 -414 398 -410C397 -463 395 -501 392 -541C389 -571 392 -577 405 -579C442 -584 489 -590 531 -595C555 -599 560 -594 560 -566C560 -539 555 -507 541 -421ZM505 -549C534 -556 528 -577 490 -571C473 -569 457 -566 434 -559C413 -553 413 -548 433 -543C448 -539 478 -542 505 -549ZM214 -542C205 -544 198 -545 190 -545C175 -545 175 -539 188 -522C207 -497 231 -444 247 -393C215 -388 195 -386 178 -387C161 -428 149 -427 145 -410C138 -384 113 -339 100 -324C91 -313 89 -306 89 -278C89 -251 108 -246 122 -264C148 -297 164 -329 176 -365C197 -362 214 -363 256 -371C323 -384 635 -408 732 -407C776 -407 778 -402 769 -385C760 -367 751 -354 736 -334C725 -319 730 -311 748 -320C800 -348 825 -354 855 -354C889 -354 897 -372 835 -421C807 -444 795 -445 767 -438C756 -436 727 -432 694 -430C730 -509 747 -540 769 -556C788 -570 789 -581 757 -605C734 -623 721 -626 704 -617C691 -610 672 -606 650 -605C631 -604 630 -593 645 -587C654 -584 664 -583 691 -584C712 -585 718 -579 707 -547C681 -548 658 -547 635 -545C622 -544 624 -540 632 -532C638 -525 644 -521 652 -522C670 -524 684 -527 700 -528C697 -518 693 -507 686 -493C662 -495 637 -493 614 -491C605 -490 603 -486 610 -478C617 -470 624 -468 632 -469C650 -471 664 -473 678 -474C673 -462 666 -446 658 -429C635 -428 607 -425 569 -423C588 -525 598 -557 613 -572C628 -584 627 -594 597 -612C571 -626 556 -628 526 -620C469 -606 401 -593 363 -596C334 -599 332 -592 341 -581C356 -562 367 -506 370 -407C334 -404 302 -400 278 -397C273 -408 270 -418 268 -428C290 -430 305 -432 323 -436C344 -442 345 -450 340 -456C334 -467 326 -467 310 -459C299 -454 285 -449 262 -444C258 -459 255 -472 252 -482C276 -484 292 -487 309 -492C333 -500 334 -509 328 -517C323 -524 315 -524 299 -517C288 -511 273 -506 248 -500C247 -504 246 -507 245 -511C242 -522 238 -528 231 -534C257 -549 275 -558 289 -562C309 -569 312 -577 279 -593C252 -606 246 -604 247 -590C248 -574 237 -557 214 -542ZM549 -709C512 -705 464 -699 400 -692C399 -703 399 -712 399 -716C398 -740 394 -749 353 -753C306 -758 304 -747 319 -733C341 -713 349 -702 353 -687C220 -674 183 -671 155 -671C128 -671 127 -659 155 -643C175 -631 192 -630 240 -641C261 -645 305 -652 361 -658C367 -642 374 -622 377 -616C384 -603 396 -605 400 -620C402 -628 403 -645 402 -663C444 -669 491 -673 537 -677C531 -660 525 -646 519 -636C509 -619 524 -615 537 -628C557 -648 562 -654 578 -680C661 -684 751 -683 782 -681C833 -678 838 -707 806 -720C772 -734 739 -737 669 -724C657 -722 637 -719 600 -715C609 -730 617 -742 624 -747C637 -758 637 -770 600 -785C559 -802 545 -790 554 -772C560 -757 557 -732 549 -709Z"/>
</svg>