<svg xmlns="http://www.w3.org/2000/svg" viewBox="0 -1000 1000 1000">
	<path fill="#000000" d="M561 -436C581 -435 627 -439 697 -450C753 -459 761 -452 750 -404C738 -344 734 -338 695 -329C643 -317 611 -312 557 -306C560 -365 561 -396 561 -436ZM553 -659C488 -693 473 -678 490 -650C511 -615 516 -554 512 -358C510 -208 497 -127 476 -108C456 -90 456 -84 467 -61C481 -31 490 -29 509 -43C539 -63 554 -70 593 -76C652 -87 814 -84 846 -77C928 -61 943 -90 908 -119C883 -139 858 -150 804 -143C732 -134 635 -123 549 -110C553 -167 555 -223 556 -277C612 -281 690 -285 780 -292C797 -293 802 -302 796 -313C784 -333 782 -349 787 -361C815 -417 827 -431 842 -439C870 -453 867 -471 816 -499C777 -520 766 -518 735 -502C713 -490 635 -472 562 -466C564 -543 564 -604 563 -634C617 -626 702 -636 823 -664C853 -672 855 -690 824 -702C794 -713 773 -714 734 -699C683 -682 625 -670 553 -659ZM297 -318C434 -347 435 -354 419 -369C412 -375 413 -390 417 -401C428 -437 436 -452 452 -465C474 -483 475 -500 429 -520C392 -537 379 -535 357 -521C345 -515 325 -507 300 -499C303 -602 309 -635 319 -649C333 -674 329 -689 266 -717C217 -739 209 -725 228 -696C247 -669 255 -616 255 -485C212 -474 176 -467 147 -463C93 -476 89 -467 99 -450C123 -416 147 -369 164 -312C171 -287 180 -272 187 -274C195 -276 201 -284 202 -300C221 -304 238 -307 255 -310V-191C133 -141 111 -133 78 -129C51 -126 46 -116 78 -88C112 -58 119 -59 150 -81C185 -108 286 -170 378 -218C384 -205 391 -193 397 -179C412 -147 435 -150 441 -193C447 -234 415 -267 363 -286C353 -291 352 -287 357 -271C361 -260 365 -248 369 -238L295 -207ZM255 -343C238 -339 220 -335 198 -330C188 -386 183 -405 171 -436C192 -439 217 -444 255 -453ZM300 -465C321 -470 345 -474 360 -475C374 -476 376 -474 376 -459C376 -437 374 -413 371 -395C368 -378 363 -371 298 -353Z"/>
</svg>