<svg xmlns="http://www.w3.org/2000/svg" viewBox="0 -1000 1000 1000">
	<path fill="#000000" d="M271 -340C398 -369 400 -375 385 -390C378 -397 379 -412 383 -422C395 -461 407 -480 421 -490C443 -509 442 -522 396 -542C352 -560 344 -557 327 -543C318 -535 298 -524 273 -516C275 -613 280 -641 291 -671C303 -702 296 -711 240 -734C192 -755 182 -738 200 -715C225 -685 230 -653 230 -502C196 -492 159 -485 126 -483C73 -501 64 -492 79 -472C102 -438 121 -397 137 -334C144 -309 155 -292 162 -294C172 -297 178 -310 179 -320C197 -325 202 -326 230 -331V-214C164 -187 122 -175 83 -171C42 -167 42 -159 83 -134C119 -112 136 -115 153 -128C194 -158 241 -184 349 -239C353 -230 358 -217 364 -202C379 -166 399 -171 406 -215C412 -255 401 -275 349 -305C335 -313 327 -308 333 -285C335 -276 337 -270 339 -262C318 -252 299 -245 269 -232ZM230 -365C214 -361 196 -355 175 -350C164 -397 155 -430 146 -456C170 -458 194 -463 230 -472ZM273 -483C304 -492 312 -493 324 -495C338 -496 343 -496 343 -479C343 -456 341 -437 338 -418C335 -400 332 -393 271 -376ZM687 -299C685 -328 677 -338 602 -353C580 -358 576 -348 592 -330C617 -298 638 -277 659 -267C678 -257 690 -271 687 -299ZM759 -455C760 -275 760 -159 760 -94C760 -49 755 -46 672 -75C650 -83 646 -74 663 -60C700 -26 721 0 740 39C751 65 763 65 781 39C818 -12 822 -32 817 -114C807 -273 803 -385 803 -462C871 -471 896 -473 918 -474C974 -476 975 -495 939 -514C915 -527 896 -532 853 -519C837 -514 820 -510 803 -505C805 -649 807 -682 812 -693C829 -736 825 -749 778 -766C711 -791 705 -781 727 -749C743 -725 757 -667 759 -493C705 -481 650 -470 595 -463C553 -456 550 -448 572 -437C594 -425 603 -424 660 -438C679 -442 716 -449 759 -455ZM489 -441C492 -420 494 -394 495 -347C496 -292 489 -144 484 -124C468 -59 466 -47 486 -9C502 23 518 20 525 -4C535 -40 538 -76 537 -166C534 -358 534 -393 535 -414C536 -435 532 -451 509 -474C524 -498 542 -531 567 -576C601 -639 609 -652 614 -658C631 -677 633 -684 593 -709C540 -741 529 -732 544 -684C549 -668 537 -624 504 -553C469 -478 443 -434 420 -404C386 -361 401 -358 444 -393C461 -406 471 -415 489 -441Z"/>
</svg>