<svg xmlns="http://www.w3.org/2000/svg" viewBox="0 -1000 1000 1000">
	<path fill="#000000" d="M975 -264C940 -301 889 -303 823 -284C810 -280 768 -270 728 -263L736 -570C758 -575 776 -579 786 -580C863 -589 868 -613 842 -625C825 -633 800 -632 737 -610C740 -672 747 -725 759 -749C770 -771 765 -782 698 -805C661 -818 653 -810 669 -783C684 -756 690 -693 688 -593C658 -584 601 -567 549 -553C549 -596 551 -627 558 -646C566 -668 562 -676 503 -699C467 -713 455 -699 472 -678C496 -649 506 -607 509 -542C481 -534 458 -528 449 -526C423 -520 422 -514 446 -506C453 -504 482 -506 511 -512L513 -222C427 -202 336 -184 318 -181C294 -177 291 -170 313 -154C337 -137 360 -138 398 -156C441 -176 538 -205 668 -224C752 -237 861 -239 882 -238C976 -235 985 -254 975 -264ZM408 -525C422 -538 419 -549 364 -569C341 -577 331 -576 305 -554C294 -545 276 -534 251 -524C253 -569 259 -632 264 -646C275 -676 269 -691 192 -708C163 -715 152 -703 178 -678C200 -657 214 -574 215 -511C184 -501 148 -493 110 -488C102 -490 91 -491 77 -492C57 -493 54 -482 67 -469C88 -447 111 -396 120 -365C127 -342 139 -319 148 -319C154 -319 159 -330 157 -351C178 -357 198 -362 215 -367L216 -251C101 -202 77 -195 57 -194C38 -193 36 -187 61 -159C89 -128 93 -128 121 -154C148 -179 225 -223 340 -282C349 -266 357 -251 362 -243C379 -214 394 -216 397 -254C400 -288 383 -336 330 -347C311 -351 308 -348 314 -334C317 -327 324 -314 331 -300L251 -266V-377C380 -414 380 -420 367 -432C360 -438 358 -454 363 -461C379 -485 397 -515 408 -525ZM582 -122C597 -132 590 -149 540 -166C523 -172 514 -164 514 -155C514 -141 508 -127 473 -79C441 -35 400 9 359 40C330 63 337 71 365 60C421 37 488 -23 524 -64C550 -94 570 -114 582 -122ZM841 23C862 -23 848 -75 724 -153C707 -164 698 -158 710 -138C728 -108 783 24 794 51C802 72 818 72 841 23ZM331 -496C322 -458 318 -442 301 -429C292 -422 275 -413 251 -403V-504C276 -512 297 -518 303 -519C328 -522 335 -514 331 -496ZM215 -390C197 -384 177 -378 154 -372C145 -424 140 -445 129 -469C156 -473 185 -481 215 -491ZM688 -559L681 -255C640 -248 584 -237 552 -231L551 -322C588 -321 624 -327 640 -333C663 -342 661 -350 639 -357C623 -362 605 -360 551 -338L550 -420C582 -420 605 -425 638 -435C658 -441 656 -454 630 -460C616 -463 601 -458 550 -439L549 -522C593 -535 644 -548 688 -559Z"/>
</svg>