<svg xmlns="http://www.w3.org/2000/svg" viewBox="0 -1000 1000 1000">
	<path fill="#000000" d="M259 -344C381 -371 383 -379 367 -394C362 -399 362 -414 365 -423C375 -452 387 -474 406 -491C419 -503 421 -513 376 -537C343 -554 328 -550 310 -538C300 -531 284 -522 262 -515C264 -575 273 -647 279 -660C291 -691 288 -702 231 -724C183 -744 172 -730 191 -705C215 -674 221 -623 222 -503C186 -493 170 -490 129 -484C78 -501 68 -486 76 -475C98 -443 121 -396 137 -341C146 -317 153 -308 160 -310C167 -312 171 -316 171 -327C190 -331 206 -334 222 -337V-228C110 -181 91 -178 59 -176C36 -175 31 -164 59 -138C92 -109 99 -110 131 -133C173 -163 257 -212 342 -257C348 -246 352 -236 358 -224C373 -191 396 -194 403 -239C407 -268 387 -305 344 -320C331 -326 322 -318 327 -304C330 -294 332 -285 335 -277L257 -243ZM222 -368C198 -362 189 -360 168 -353C156 -419 151 -440 144 -458C162 -462 186 -467 222 -475ZM261 -485C286 -491 298 -495 305 -496C327 -498 332 -496 332 -479C332 -465 329 -436 326 -418C323 -403 315 -395 259 -378ZM776 -639C760 -671 721 -681 668 -674C647 -671 647 -661 665 -647C703 -615 726 -603 752 -600C779 -596 789 -612 776 -639ZM672 -485C681 -465 684 -446 685 -397C653 -388 614 -379 583 -374C561 -371 562 -360 578 -353C598 -346 621 -346 686 -359C686 -335 686 -308 686 -281C641 -270 605 -264 582 -263C566 -262 565 -256 574 -247C585 -238 635 -236 685 -243C685 -205 684 -168 683 -137C621 -128 557 -120 516 -116C516 -394 518 -420 522 -471C523 -485 516 -497 500 -513C518 -541 529 -560 556 -610C580 -656 597 -681 611 -697C626 -714 623 -731 571 -756C537 -773 529 -763 536 -745C544 -723 542 -709 520 -650C488 -567 440 -479 383 -409C370 -394 376 -381 397 -397C427 -419 451 -443 473 -474C481 -331 476 -123 460 -69C450 -36 453 3 466 27C487 65 493 65 506 29C511 16 514 -16 516 -87C538 -84 554 -84 568 -86C735 -106 788 -110 842 -107C937 -102 941 -118 921 -141C904 -163 868 -168 822 -160C797 -155 765 -149 731 -144C732 -184 732 -213 732 -250C785 -260 812 -265 844 -273C867 -279 869 -293 847 -301C823 -310 784 -307 733 -294C733 -320 733 -337 734 -369C766 -375 808 -384 825 -389C858 -399 859 -412 837 -422C814 -433 796 -430 736 -411C737 -433 738 -446 740 -454C742 -466 734 -477 710 -491C759 -499 808 -510 837 -520C877 -534 877 -547 855 -557C842 -564 804 -562 768 -552C616 -510 598 -506 567 -501C544 -497 544 -484 569 -477C582 -473 598 -474 672 -485Z"/>
</svg>