<svg xmlns="http://www.w3.org/2000/svg" viewBox="0 -1000 1000 1000">
	<path fill="#000000" d="M955 -65C950 -79 941 -126 936 -163C931 -198 921 -198 915 -161C898 -55 883 -38 804 -34C741 -31 728 -50 720 -96C717 -113 717 -200 731 -249C741 -289 735 -298 693 -314C667 -325 659 -318 666 -299C677 -270 680 -253 677 -223C674 -189 673 -148 675 -92C677 -14 706 15 802 24C847 28 875 23 927 1C969 -17 969 -30 955 -65ZM625 -243C638 -257 636 -273 594 -294C563 -309 554 -305 557 -275C560 -249 542 -210 505 -158C462 -96 415 -53 365 -25C340 -10 345 5 376 -6C470 -41 539 -107 591 -198C602 -218 610 -229 625 -243ZM525 -351C522 -387 518 -419 513 -446C543 -445 565 -448 599 -461C616 -467 615 -485 595 -490C582 -493 564 -493 551 -488C527 -478 520 -475 509 -472C502 -519 495 -551 489 -569C611 -655 646 -678 666 -687C682 -694 685 -710 625 -739C590 -755 576 -749 580 -724C583 -703 542 -644 472 -579C407 -589 401 -574 423 -551C447 -525 468 -454 492 -316C498 -279 528 -283 528 -321C744 -354 751 -355 757 -344C772 -317 784 -319 799 -354C814 -390 822 -419 841 -507C847 -538 854 -558 866 -572C885 -594 882 -606 832 -633C802 -648 793 -647 773 -639C746 -627 731 -623 662 -609C645 -606 645 -592 657 -589C682 -581 693 -581 741 -589C773 -594 781 -589 781 -564C781 -549 780 -528 777 -508C764 -510 751 -511 735 -510C721 -509 690 -503 671 -498C654 -493 653 -479 665 -476C708 -465 718 -464 736 -470C745 -473 759 -476 774 -478C771 -453 767 -429 762 -407C756 -385 753 -380 730 -381C691 -383 661 -379 525 -351ZM278 -327C401 -354 401 -362 388 -375C382 -381 378 -400 382 -410C392 -448 396 -455 409 -468C433 -489 434 -502 396 -521C364 -538 351 -537 332 -526C321 -520 302 -512 281 -505C284 -576 293 -647 299 -658C313 -681 309 -699 248 -722C205 -738 193 -718 214 -694C235 -671 239 -647 239 -491C200 -481 168 -474 141 -471C99 -484 88 -472 101 -451C118 -424 136 -376 151 -319C158 -295 166 -285 171 -287C178 -290 184 -295 186 -306C205 -310 223 -314 239 -317V-202C168 -171 127 -159 81 -158C55 -158 53 -140 82 -120C120 -93 129 -94 153 -110C185 -132 240 -162 362 -225C366 -217 370 -209 375 -199C393 -165 418 -164 422 -213C425 -250 405 -272 349 -305C337 -312 330 -307 338 -280C341 -270 344 -262 349 -251L276 -218ZM239 -350C223 -346 204 -341 183 -336C177 -377 168 -415 160 -443C183 -445 201 -449 239 -459ZM281 -471C302 -477 316 -480 327 -482C340 -485 344 -483 344 -469C344 -446 342 -427 340 -408C337 -388 333 -379 279 -362C280 -396 280 -444 281 -471Z"/>
</svg>