<svg xmlns="http://www.w3.org/2000/svg" viewBox="0 -1000 1000 1000">
	<path fill="#000000" d="M286 -380L288 -488C320 -498 325 -499 332 -500C347 -501 351 -496 351 -479C351 -462 350 -451 347 -427C343 -404 336 -397 286 -380ZM197 -330C216 -334 233 -337 249 -340V-214C163 -181 126 -174 96 -174C68 -174 63 -158 94 -135C129 -109 136 -108 160 -124C210 -156 289 -201 354 -232C356 -224 359 -215 363 -207C381 -170 398 -172 405 -221C410 -258 396 -285 339 -314C334 -317 330 -314 334 -299C338 -282 341 -273 344 -259L284 -230L286 -348C407 -375 406 -381 391 -397C385 -403 382 -418 385 -429C399 -475 404 -485 418 -497C437 -513 437 -530 399 -546C363 -561 359 -561 345 -549C336 -541 314 -530 288 -520C291 -610 294 -637 307 -673C319 -703 312 -713 259 -737C212 -757 202 -744 220 -717C242 -683 249 -639 249 -508C223 -500 191 -493 147 -488C111 -512 91 -495 102 -478C128 -439 146 -395 161 -338C168 -313 177 -304 184 -306C193 -309 197 -316 197 -330ZM167 -462C189 -463 210 -467 249 -477V-369C233 -365 216 -360 194 -354C186 -404 178 -434 167 -462ZM678 -491C680 -528 660 -547 610 -551C594 -552 591 -548 598 -537C616 -508 631 -489 645 -476C660 -462 677 -466 678 -491ZM733 -457C670 -440 594 -423 558 -419C530 -416 532 -404 565 -397C579 -394 612 -396 673 -408C690 -385 696 -338 684 -257C642 -248 617 -242 590 -236C612 -309 613 -327 595 -338C562 -358 556 -354 561 -331C568 -298 557 -249 535 -236C518 -226 516 -215 527 -190C538 -161 551 -161 569 -174C589 -189 621 -202 678 -219C661 -124 619 -45 532 26C508 44 519 58 543 44C662 -23 711 -116 727 -233C759 -241 800 -251 833 -259C831 -232 831 -217 835 -196C839 -172 856 -167 870 -191C876 -201 881 -219 882 -245C883 -275 887 -307 893 -320C901 -336 897 -348 864 -362C816 -380 807 -368 818 -349C825 -338 831 -314 833 -286L731 -266C739 -330 742 -348 750 -368C759 -386 748 -397 704 -414C773 -428 816 -439 860 -454C887 -464 888 -477 868 -484C850 -490 824 -490 800 -480C789 -476 776 -471 762 -467C819 -544 827 -552 840 -566C857 -582 853 -591 812 -603C772 -614 767 -604 773 -582C778 -564 774 -544 733 -457ZM530 -618C459 -657 446 -644 465 -605C475 -583 475 -493 456 -380C428 -216 388 -126 319 -39C301 -17 309 -8 327 -23C413 -94 454 -167 493 -329C514 -419 525 -515 526 -591C630 -594 729 -608 846 -638C886 -648 889 -661 870 -671C852 -679 816 -680 779 -669C709 -648 619 -627 530 -618ZM728 -716C733 -754 722 -777 633 -796C617 -799 608 -790 618 -775C647 -734 665 -715 695 -688C708 -676 724 -683 728 -716Z"/>
</svg>