<svg xmlns="http://www.w3.org/2000/svg" viewBox="0 -1000 1000 1000">
	<path fill="#000000" d="M590 -277C591 -303 592 -330 593 -354C630 -360 676 -365 686 -366C731 -370 739 -366 742 -337C754 -225 759 -123 753 -68C751 -46 738 -37 692 -45C664 -51 659 -40 681 -23C718 6 733 23 744 50C751 69 769 67 787 38C819 -10 821 -33 813 -118C798 -265 795 -322 807 -359C813 -375 811 -381 784 -400C753 -421 740 -422 712 -411C679 -398 628 -385 587 -381C542 -413 528 -403 542 -359C556 -319 543 -133 522 -89C505 -55 506 -24 513 10C522 42 541 40 551 14C567 -25 577 -68 582 -138C622 -133 686 -139 701 -146C717 -156 716 -176 696 -181C680 -186 661 -183 584 -165C587 -188 588 -218 589 -251C630 -247 681 -255 705 -267C720 -274 715 -293 695 -298C683 -301 666 -298 590 -277ZM240 -386C227 -384 218 -382 193 -376C185 -421 178 -449 165 -484C185 -486 209 -491 240 -500ZM284 -512C302 -517 312 -518 327 -519C341 -520 347 -519 347 -504C347 -481 344 -461 341 -442C338 -421 335 -412 282 -397ZM284 -542C287 -600 295 -682 301 -696C313 -724 309 -736 251 -760C202 -781 192 -766 211 -741C234 -708 240 -660 240 -527C197 -516 175 -512 145 -509C100 -522 87 -508 93 -498C116 -464 137 -414 154 -358C161 -333 169 -324 177 -326C188 -330 195 -337 196 -349C212 -351 226 -354 240 -356V-240C151 -199 118 -190 86 -189C57 -188 52 -171 86 -144C122 -115 131 -119 156 -138C192 -167 272 -222 356 -266C361 -255 367 -240 375 -223C390 -191 409 -193 420 -238C428 -272 413 -302 354 -332C342 -337 334 -334 338 -316C340 -308 343 -300 347 -289L280 -258L281 -364C404 -387 409 -400 392 -416C383 -425 381 -433 384 -440C398 -478 407 -496 424 -512C444 -533 440 -544 399 -564C366 -579 355 -579 332 -565C322 -558 304 -550 284 -542ZM580 -590C596 -586 608 -587 628 -594C641 -599 649 -593 649 -581C649 -566 646 -525 643 -495C625 -491 605 -488 583 -485C582 -528 581 -561 580 -590ZM557 -727C508 -745 499 -736 518 -709C534 -684 544 -627 548 -481C532 -478 514 -476 496 -474C472 -512 464 -510 460 -479C457 -457 442 -421 432 -404C422 -387 423 -374 429 -348C436 -321 451 -319 463 -339C471 -352 489 -399 497 -440C589 -456 605 -459 624 -463C716 -475 786 -482 833 -481C849 -481 858 -473 831 -436C811 -409 817 -400 847 -414C874 -427 912 -433 945 -435C967 -436 971 -464 922 -506C883 -540 867 -540 834 -525C827 -522 809 -519 780 -514C808 -649 823 -686 845 -709C864 -728 860 -740 820 -763C785 -784 772 -785 755 -774C731 -757 622 -731 557 -727ZM740 -508C721 -505 700 -502 676 -499C685 -562 693 -590 702 -600C713 -611 712 -623 691 -636C675 -646 661 -647 653 -642C621 -622 602 -615 579 -615C578 -647 577 -673 575 -697C599 -701 635 -708 715 -723C754 -730 764 -725 763 -705C761 -652 752 -576 740 -508Z"/>
</svg>