<svg xmlns="http://www.w3.org/2000/svg" viewBox="0 -1000 1000 1000">
	<path fill="#000000" d="M416 -440C428 -456 424 -469 396 -489C362 -513 347 -506 353 -484C355 -480 356 -472 355 -463L277 -441C337 -676 341 -686 349 -696C363 -714 362 -722 347 -735C331 -750 312 -761 292 -769C267 -779 256 -768 266 -744C280 -705 280 -662 233 -428C140 -403 113 -401 83 -402C47 -403 43 -390 70 -366C97 -342 100 -342 138 -358C153 -364 177 -371 225 -388C220 -361 214 -330 207 -298C201 -271 205 -256 223 -244C239 -234 258 -218 276 -202C242 -155 193 -101 141 -59C117 -39 118 -25 146 -40C205 -69 265 -115 306 -174C327 -153 353 -122 367 -102C389 -69 407 -77 404 -112C401 -146 384 -174 328 -211C344 -244 374 -328 391 -390C394 -402 405 -424 416 -440ZM956 10C766 -62 747 -83 604 -274C606 -284 607 -296 609 -307C672 -319 737 -328 768 -329C793 -330 799 -323 795 -307C790 -289 783 -277 773 -264C763 -250 751 -247 731 -248C711 -249 708 -242 721 -226C729 -217 739 -203 745 -192C754 -176 761 -175 777 -188C798 -205 816 -231 837 -269C845 -283 861 -297 887 -315C895 -321 895 -332 884 -343C867 -359 860 -365 840 -374C827 -380 816 -381 793 -371C782 -366 738 -356 716 -352C706 -350 663 -342 611 -330C614 -357 616 -380 618 -400C647 -406 680 -411 740 -420C761 -423 761 -431 752 -445C750 -448 759 -465 770 -479C783 -495 790 -501 811 -513C822 -520 821 -526 808 -538C801 -544 793 -548 776 -555C751 -565 744 -563 723 -549C712 -541 685 -532 629 -522C632 -551 634 -575 636 -595C676 -602 747 -616 798 -628C834 -637 836 -652 817 -661C791 -674 752 -673 717 -660C701 -655 673 -646 640 -638C646 -696 651 -716 664 -742C676 -765 668 -780 621 -801C571 -824 560 -804 581 -776C591 -761 596 -719 594 -626C562 -618 529 -611 506 -607C476 -602 476 -590 498 -584C515 -580 539 -580 593 -588C592 -565 591 -541 589 -516C560 -512 525 -508 485 -504C462 -502 459 -493 478 -481C490 -473 522 -474 587 -488C585 -465 583 -442 580 -417C551 -413 521 -408 493 -405C457 -419 446 -411 453 -393C464 -367 459 -308 440 -289C421 -269 415 -253 420 -241C428 -222 436 -219 462 -242C492 -267 536 -289 565 -297C544 -170 484 -88 364 7C343 23 344 34 370 23C472 -20 560 -104 596 -240C655 -139 716 -47 743 -8C772 31 785 35 955 31C980 30 979 19 956 10ZM723 -475C716 -451 709 -446 685 -439C671 -435 647 -429 620 -424C623 -448 625 -471 627 -497C655 -503 687 -509 709 -512C730 -515 734 -510 723 -475ZM578 -392C575 -368 572 -345 569 -320C539 -314 510 -308 486 -302C492 -331 494 -350 496 -378C520 -382 554 -388 578 -392ZM350 -433C342 -383 322 -307 292 -235C277 -244 261 -253 242 -263C235 -267 234 -274 238 -290C249 -332 260 -370 268 -403Z"/>
</svg>