<svg xmlns="http://www.w3.org/2000/svg" viewBox="0 -1000 1000 1000">
	<path fill="#000000" d="M779 -622C794 -627 802 -638 762 -661C740 -675 728 -672 723 -655C717 -636 703 -617 671 -586C659 -573 667 -564 681 -572C752 -611 773 -620 779 -622ZM526 -552C525 -566 509 -584 474 -591C457 -595 454 -589 462 -573C468 -559 483 -533 490 -526C503 -513 528 -521 526 -552ZM947 -337C966 -341 968 -353 945 -357C780 -382 717 -405 610 -484C657 -491 710 -496 780 -500C811 -502 812 -517 804 -526C784 -545 748 -546 701 -533C670 -524 640 -516 611 -509C613 -536 616 -582 622 -600C630 -627 625 -639 589 -660C623 -669 655 -680 675 -689C681 -692 706 -700 716 -703C731 -707 733 -722 712 -735C699 -744 685 -751 670 -758C654 -766 647 -765 637 -743C630 -729 562 -687 454 -643C432 -635 433 -622 461 -626C487 -630 522 -638 560 -652C573 -634 578 -613 580 -501C526 -489 479 -480 446 -475C406 -469 404 -464 424 -453C444 -443 454 -444 477 -452C498 -459 518 -465 539 -470C502 -412 456 -359 388 -313C370 -300 372 -287 395 -295C464 -322 539 -391 579 -462C578 -437 577 -402 576 -394C570 -337 569 -325 575 -316C590 -293 597 -293 606 -312C611 -323 613 -342 608 -390C607 -396 608 -418 610 -460C650 -419 708 -370 757 -337C792 -313 818 -312 947 -337ZM405 -506C421 -519 427 -530 372 -553C345 -565 336 -562 312 -550C302 -545 285 -539 264 -535C267 -583 273 -663 277 -674C289 -709 286 -724 231 -740C192 -752 181 -744 200 -713C219 -681 223 -646 223 -526C191 -519 157 -514 130 -513C124 -517 114 -519 97 -521C79 -523 78 -510 89 -498C108 -478 115 -446 125 -363C128 -337 138 -318 147 -318C154 -318 160 -323 162 -335C184 -340 205 -344 223 -348V-217C122 -178 91 -168 76 -169C44 -171 43 -154 73 -132C108 -104 118 -105 140 -122C159 -136 248 -190 334 -238C338 -225 342 -215 344 -211C360 -180 371 -180 387 -219C393 -233 383 -266 328 -315C320 -323 313 -321 317 -302C320 -289 323 -274 327 -260L256 -231L259 -356C391 -388 387 -393 366 -409C355 -417 354 -422 361 -438C372 -464 393 -497 405 -506ZM810 -267C800 -278 772 -298 754 -306C737 -314 727 -315 704 -310C651 -298 499 -270 425 -258C390 -270 386 -262 402 -232C421 -193 435 -117 438 -21C439 4 456 28 465 26C474 24 477 15 473 -35C502 -33 524 -36 557 -41C600 -48 618 -48 655 -46C669 -45 674 -39 679 -14C693 55 694 61 705 64C713 66 733 51 751 16C774 -32 782 -59 790 -157C791 -176 801 -215 809 -228C823 -250 821 -256 810 -267ZM334 -493C334 -479 326 -440 321 -423C317 -405 314 -398 260 -384L264 -514C284 -518 300 -520 316 -520C330 -520 334 -518 334 -493ZM223 -375C206 -371 185 -366 162 -361C157 -438 154 -466 143 -492C167 -492 192 -496 223 -504ZM739 -254C744 -207 729 -92 718 -55C712 -33 703 -37 695 -51C681 -77 663 -84 632 -78C626 -77 617 -76 608 -74L609 -158C643 -164 676 -171 689 -176C701 -181 705 -192 695 -197C674 -209 657 -212 627 -201C624 -200 617 -198 609 -196C610 -205 611 -213 612 -217C617 -237 616 -246 598 -266C650 -277 685 -281 710 -281C729 -281 737 -274 739 -254ZM574 -70C539 -66 497 -63 472 -61C467 -148 456 -204 446 -242C475 -244 520 -252 562 -259C568 -242 571 -220 572 -187C551 -182 529 -177 517 -175C490 -170 491 -156 517 -150C523 -149 546 -150 572 -153Z"/>
</svg>