<svg xmlns="http://www.w3.org/2000/svg" viewBox="0 -1000 1000 1000">
	<path fill="#000000" d="M838 -517C858 -532 855 -546 816 -565C776 -584 765 -581 767 -564C772 -540 761 -507 718 -424C702 -394 710 -390 725 -404C746 -421 776 -453 803 -485C812 -496 828 -510 838 -517ZM499 -427C499 -455 477 -483 436 -503C425 -508 420 -506 422 -493C428 -459 440 -428 457 -409C474 -388 499 -399 499 -427ZM953 -94C944 -112 932 -163 928 -209C926 -237 916 -231 912 -211C896 -124 887 -102 863 -84C842 -67 775 -58 742 -67C677 -87 669 -122 679 -358C716 -318 765 -276 796 -251C820 -231 851 -246 833 -299C823 -329 745 -360 679 -368C683 -466 690 -561 699 -618C702 -638 713 -684 718 -696C727 -722 724 -733 668 -767C634 -786 619 -770 634 -749C655 -719 659 -685 643 -370C638 -272 636 -181 640 -141C649 -56 666 -19 752 -3C801 5 885 -7 926 -34C953 -51 962 -79 953 -94ZM388 -451C393 -470 390 -477 352 -502C331 -515 323 -506 327 -490C331 -475 332 -455 330 -428L247 -405C291 -623 298 -655 302 -665C313 -686 310 -695 257 -721C215 -743 199 -727 208 -711C241 -652 242 -586 209 -395C149 -380 79 -369 46 -367C19 -365 14 -356 42 -329C69 -304 82 -304 116 -321C133 -330 172 -347 203 -358C200 -338 196 -316 192 -294C186 -260 188 -252 206 -241C223 -229 242 -212 264 -188C233 -133 167 -74 111 -39C89 -24 90 -11 120 -23C182 -46 241 -90 289 -160C303 -144 319 -124 336 -103C370 -61 392 -73 387 -106C382 -141 370 -158 314 -202C338 -254 367 -344 374 -383C378 -403 383 -431 388 -451ZM588 -610C592 -629 582 -649 532 -675C506 -688 494 -674 510 -655C534 -625 544 -509 540 -359C455 -302 431 -290 396 -281C376 -276 376 -261 402 -245C432 -227 440 -228 457 -248C471 -265 504 -299 538 -327C530 -192 482 -99 371 -19C359 -8 360 2 375 -3C474 -36 553 -139 571 -254C579 -307 583 -425 583 -529C583 -562 585 -598 588 -610ZM328 -402C321 -351 306 -287 282 -227C268 -239 251 -251 232 -265C223 -271 221 -276 225 -294C230 -321 235 -348 240 -371C269 -382 306 -395 328 -402Z"/>
</svg>