<svg xmlns="http://www.w3.org/2000/svg" viewBox="0 -1000 1000 1000">
	<path fill="#000000" d="M491 -242C432 -261 425 -251 435 -228C455 -180 466 -128 471 -60C475 -19 476 -6 488 14C501 39 514 35 515 -6C531 -6 558 -9 630 -18C647 -20 667 -21 712 -22C741 -23 748 -20 757 15C769 58 778 59 796 37C827 1 832 -20 853 -184C854 -196 862 -216 875 -231C883 -240 882 -250 870 -257C838 -274 821 -283 809 -289C788 -297 779 -297 763 -290C742 -280 674 -267 491 -242ZM614 -123L612 -44C563 -38 555 -37 514 -34C513 -92 509 -152 501 -216C545 -223 581 -227 610 -231C614 -222 615 -202 614 -156C589 -150 566 -148 545 -147C524 -146 521 -136 541 -129C559 -123 581 -121 614 -123ZM659 -166C660 -179 662 -192 668 -211C670 -218 666 -227 654 -236C703 -242 727 -244 746 -245C776 -247 782 -244 785 -223C790 -180 787 -136 773 -55C771 -42 769 -40 750 -54C740 -61 727 -63 658 -52V-129C680 -132 699 -135 738 -143C755 -146 755 -163 738 -171C725 -177 703 -175 659 -166ZM571 -342C568 -367 563 -389 559 -417C608 -424 640 -432 671 -437C694 -441 699 -439 693 -401C688 -370 682 -364 663 -360C618 -350 594 -345 571 -342ZM553 -442C494 -458 484 -449 496 -431C505 -416 519 -383 532 -341C539 -318 544 -309 553 -301C561 -292 567 -294 571 -311C634 -321 703 -332 742 -337C759 -339 759 -355 744 -365C739 -369 738 -376 742 -384C746 -394 766 -415 779 -429C795 -442 785 -455 751 -469C708 -484 705 -484 690 -476C657 -459 611 -447 553 -442ZM226 -363C211 -359 193 -354 172 -350C160 -420 155 -443 145 -470C168 -472 192 -476 226 -484ZM268 -496C287 -500 299 -502 307 -503C323 -504 328 -500 328 -482C328 -459 326 -430 323 -411C321 -398 315 -387 267 -374ZM268 -526C270 -592 279 -669 288 -690C298 -715 293 -733 234 -755C187 -773 178 -761 195 -736C219 -701 226 -646 226 -513C201 -506 170 -500 124 -490C80 -504 76 -496 86 -480C103 -453 123 -406 143 -339C150 -315 154 -306 165 -308C171 -309 176 -315 176 -328C197 -331 211 -333 226 -335L225 -210C143 -169 99 -158 63 -156C42 -155 38 -144 64 -119C93 -90 106 -91 132 -112C166 -141 250 -193 347 -241C350 -234 353 -228 356 -221C370 -189 394 -194 400 -240C404 -271 389 -299 339 -318C327 -324 321 -318 325 -304C329 -290 333 -277 336 -267L266 -231L267 -342C387 -363 386 -373 365 -390C360 -396 360 -413 363 -423C373 -457 384 -478 395 -490C412 -510 411 -518 375 -536C344 -551 331 -551 305 -541C288 -534 281 -531 268 -526ZM542 -619C545 -655 529 -679 476 -697C451 -707 445 -701 454 -684C476 -639 497 -610 510 -600C525 -587 540 -595 542 -619ZM608 -561C572 -555 529 -548 477 -540C459 -585 444 -582 442 -564C440 -538 429 -504 411 -470C401 -447 402 -428 411 -407C421 -388 432 -388 444 -410C460 -436 473 -473 477 -511C508 -514 525 -517 649 -540C668 -543 743 -551 803 -555C833 -556 839 -547 799 -503C777 -479 780 -472 804 -483C850 -506 879 -512 904 -514C940 -517 946 -538 910 -565C856 -605 841 -607 816 -599C803 -594 775 -588 653 -569C653 -657 658 -691 672 -740C682 -773 678 -778 634 -796C576 -819 562 -800 580 -779C607 -745 612 -701 608 -561ZM851 -714C847 -721 820 -741 807 -749C786 -760 775 -756 777 -743C779 -732 766 -711 704 -652C682 -634 687 -629 709 -639C785 -672 823 -686 835 -688C857 -692 858 -698 851 -714Z"/>
</svg>