<svg xmlns="http://www.w3.org/2000/svg" viewBox="0 -1000 1000 1000">
	<path fill="#000000" d="M279 -405L281 -513C307 -520 324 -523 335 -524C350 -525 354 -520 354 -504C354 -492 353 -470 350 -451C347 -431 342 -424 279 -405ZM190 -354C209 -358 226 -361 241 -365V-239C156 -206 119 -199 89 -199C61 -199 56 -182 87 -160C122 -134 129 -133 153 -148C189 -171 272 -217 354 -256C358 -248 362 -240 366 -232C385 -195 401 -197 408 -245C413 -286 395 -311 338 -339C327 -345 323 -339 327 -324C331 -308 336 -295 341 -281L276 -253L279 -373C407 -402 407 -408 394 -421C388 -428 385 -443 388 -453C401 -498 404 -509 421 -521C440 -537 440 -555 402 -571C360 -588 354 -587 338 -574C328 -565 306 -554 281 -545C284 -640 288 -664 300 -697C312 -727 304 -738 252 -761C204 -782 195 -768 213 -742C235 -708 241 -663 241 -533C209 -522 171 -516 139 -513C103 -537 84 -519 95 -503C121 -464 138 -419 154 -363C161 -338 169 -329 177 -331C183 -333 190 -339 190 -354ZM160 -486C184 -487 207 -492 241 -502V-395C226 -390 207 -385 187 -379C179 -429 170 -458 160 -486ZM524 -375C531 -349 538 -330 551 -314C564 -300 577 -301 580 -326C585 -355 583 -367 537 -384C525 -389 521 -387 524 -375ZM544 -569C559 -573 581 -578 614 -583C621 -571 624 -553 624 -520C584 -510 554 -505 512 -499C497 -497 495 -492 516 -483C541 -473 567 -473 623 -482L621 -439C481 -419 469 -418 418 -415C396 -414 395 -403 406 -397C440 -378 456 -376 484 -384C499 -389 635 -412 698 -418C702 -400 697 -367 671 -318C632 -308 550 -291 505 -283C482 -280 481 -277 502 -269C535 -255 554 -255 607 -267C611 -255 613 -237 614 -212C509 -194 459 -188 419 -188C390 -188 387 -174 411 -162C445 -145 453 -145 497 -156C528 -163 570 -170 614 -176C613 -133 612 -92 612 -22C612 37 612 45 616 61C622 82 631 82 638 58C646 27 652 -5 657 -45C660 -68 663 -136 664 -182C736 -190 804 -194 839 -190C898 -182 905 -208 866 -231C839 -246 825 -248 774 -240C753 -237 706 -229 665 -222C666 -251 665 -269 663 -279C724 -293 753 -298 773 -301C795 -305 798 -324 769 -333C755 -337 740 -336 705 -327C726 -358 740 -373 756 -386C769 -395 771 -404 743 -422C814 -427 857 -428 908 -424C947 -422 953 -442 917 -464C893 -478 870 -482 822 -472C782 -463 726 -453 659 -444L663 -490C714 -500 747 -508 771 -516C788 -522 785 -538 770 -546C755 -553 729 -549 667 -531C669 -547 670 -555 671 -566C672 -576 671 -582 664 -589C672 -590 680 -591 690 -592C708 -594 712 -592 714 -589C724 -574 730 -572 749 -586C772 -604 786 -617 828 -663C847 -686 854 -691 867 -696C886 -705 887 -722 829 -759C802 -777 790 -776 765 -767C739 -759 653 -742 611 -737C573 -731 533 -727 502 -726C440 -742 433 -732 452 -705C465 -684 487 -639 501 -595C507 -576 528 -554 533 -556C538 -557 543 -562 544 -569ZM590 -605C575 -602 558 -599 539 -594C530 -626 520 -665 512 -699C531 -703 542 -704 566 -707C574 -655 580 -631 590 -605ZM698 -723C716 -725 735 -728 755 -731C774 -734 785 -726 782 -715C779 -698 757 -659 736 -628C729 -617 718 -617 713 -619C708 -621 699 -622 673 -619C686 -653 697 -673 712 -692C719 -702 719 -709 698 -723ZM646 -615C637 -613 626 -611 612 -609C616 -647 610 -673 589 -709C611 -711 636 -714 664 -718C668 -696 660 -654 646 -615Z"/>
</svg>