<svg xmlns="http://www.w3.org/2000/svg" viewBox="0 -1000 1000 1000">
	<path fill="#000000" d="M783 -727C772 -766 733 -787 667 -776C641 -772 640 -763 660 -749C696 -722 722 -704 748 -694C778 -683 792 -697 783 -727ZM946 -151C951 -184 941 -189 933 -171C922 -146 905 -107 892 -76C884 -56 873 -53 851 -68C798 -104 741 -174 698 -244C716 -278 733 -320 753 -375C768 -413 776 -429 783 -442C792 -458 790 -469 752 -492C711 -517 697 -515 705 -491C717 -454 707 -395 673 -288C630 -370 592 -484 574 -572C617 -580 683 -592 712 -596C755 -602 764 -629 727 -639C701 -645 676 -643 567 -615C547 -743 549 -776 555 -792C562 -809 553 -832 537 -837C518 -844 500 -848 477 -853C445 -860 436 -847 456 -826C472 -810 483 -788 491 -747C499 -701 509 -652 520 -604C350 -563 301 -558 269 -564C195 -602 187 -588 211 -549C220 -534 223 -479 217 -409C201 -236 174 -153 73 -31C46 2 53 8 85 -13C163 -65 212 -153 243 -268C265 -252 285 -251 360 -269C355 -253 349 -237 342 -218C335 -198 336 -194 360 -180C377 -170 392 -160 405 -150C372 -114 312 -76 238 -45C219 -37 223 -27 241 -31C310 -42 381 -72 434 -128C459 -108 481 -86 504 -58C529 -27 548 -41 546 -66C543 -91 518 -126 461 -161C482 -191 502 -229 513 -259C518 -272 526 -294 531 -302C541 -320 539 -330 509 -347C487 -359 479 -355 478 -323L406 -311C417 -339 427 -355 434 -363C445 -375 442 -384 404 -406C434 -410 469 -417 505 -428C525 -435 530 -447 517 -456C501 -466 472 -465 446 -457C419 -448 355 -432 322 -426C306 -423 303 -414 323 -406C334 -402 357 -401 385 -403C388 -385 384 -352 371 -305C301 -294 276 -292 249 -293C267 -374 278 -453 276 -534C320 -529 391 -536 530 -563C563 -430 603 -335 652 -244C633 -206 607 -170 570 -123C552 -102 560 -94 578 -106C619 -135 649 -163 676 -203C748 -82 838 18 901 40C936 53 949 44 944 18C935 -31 939 -102 946 -151ZM476 -297C472 -267 461 -229 427 -179C414 -185 400 -191 385 -197C377 -200 373 -208 376 -220C382 -242 388 -260 394 -277Z"/>
</svg>