<svg xmlns="http://www.w3.org/2000/svg" viewBox="0 -1000 1000 1000">
	<path fill="#000000" d="M248 -329C362 -351 362 -363 348 -377C340 -384 339 -396 348 -418C359 -449 365 -459 378 -472C393 -485 391 -498 350 -520C323 -536 313 -537 297 -528C286 -523 270 -517 252 -511C255 -615 256 -628 266 -655C279 -688 275 -702 219 -721C178 -736 168 -726 185 -701C210 -662 216 -611 214 -500C173 -490 159 -487 135 -484C90 -506 75 -491 90 -471C107 -448 122 -390 131 -340C137 -304 150 -290 162 -290C167 -290 171 -298 171 -315C186 -317 198 -319 211 -322L209 -187C149 -159 115 -146 90 -143C47 -138 47 -121 82 -103C121 -84 132 -85 148 -100C168 -121 206 -147 310 -210C314 -204 317 -197 320 -192C331 -172 350 -177 355 -202C363 -235 351 -257 307 -289C292 -300 283 -295 288 -278C293 -261 297 -246 302 -231L245 -203ZM211 -350C198 -347 185 -345 168 -342C163 -388 157 -428 150 -459C167 -462 197 -468 214 -473ZM252 -481C262 -483 274 -485 290 -487C303 -489 313 -487 310 -468C305 -416 303 -404 300 -393C296 -376 287 -368 249 -359ZM660 -137C666 -120 665 -93 651 -33C637 -31 623 -29 607 -27C616 -75 613 -90 588 -127C612 -130 636 -133 660 -137ZM751 -46C730 -43 703 -38 674 -36C683 -66 694 -93 702 -103C712 -114 712 -126 694 -143C755 -154 765 -146 764 -130C762 -101 760 -83 751 -46ZM492 -141C444 -158 437 -143 460 -116C470 -104 476 -87 496 -15C455 -10 416 -7 384 -6C363 -5 362 -2 378 11C401 31 415 35 450 26C511 10 771 -22 852 -11C944 0 952 -18 909 -47C888 -62 860 -63 787 -52C808 -101 818 -119 832 -130C846 -143 847 -148 817 -167C782 -188 767 -190 747 -182C715 -171 622 -153 492 -141ZM567 -125C568 -105 572 -83 587 -25C568 -22 549 -20 531 -19C527 -45 519 -83 508 -120C529 -121 548 -123 567 -125ZM510 -354C469 -366 465 -354 477 -335C489 -317 500 -289 511 -229C514 -213 520 -195 527 -179C536 -163 550 -164 550 -187C708 -215 725 -211 729 -199C735 -179 766 -180 780 -235C794 -283 807 -316 819 -329C835 -344 834 -355 802 -374C767 -395 757 -397 734 -387C714 -380 650 -370 510 -354ZM657 -303C658 -310 660 -315 662 -320C667 -333 666 -340 652 -349C683 -353 706 -355 719 -355C745 -356 761 -347 755 -314C749 -280 743 -255 739 -239C737 -233 729 -229 714 -234C707 -237 702 -237 651 -229C651 -246 652 -260 652 -271C670 -273 691 -277 714 -282C741 -290 744 -297 733 -306C721 -313 708 -315 686 -309C678 -307 668 -305 657 -303ZM619 -267L618 -224C600 -221 576 -216 548 -212C540 -264 536 -292 530 -334C560 -338 587 -342 610 -344C616 -322 619 -309 621 -297C602 -294 582 -291 561 -289C541 -286 543 -274 564 -271C581 -267 599 -266 619 -267ZM625 -689C625 -709 626 -716 630 -727C638 -752 631 -767 593 -777C551 -787 536 -771 564 -747C577 -736 584 -680 582 -592C540 -585 490 -577 455 -573C446 -580 436 -585 428 -588C390 -602 383 -588 397 -565C410 -542 417 -479 411 -409C397 -213 362 -116 288 -6C267 24 274 35 301 9C386 -74 421 -158 443 -304C454 -366 459 -419 464 -547C492 -551 541 -559 575 -565C579 -554 580 -540 577 -490C553 -483 527 -477 497 -471C477 -467 474 -456 494 -452C516 -448 536 -448 578 -459C585 -412 626 -394 699 -403C797 -415 807 -431 798 -446C787 -464 781 -487 778 -506C776 -519 769 -516 767 -507C753 -451 746 -447 686 -438C635 -430 619 -439 614 -470C637 -476 666 -484 701 -496C737 -507 743 -521 725 -526C705 -532 693 -531 656 -516C641 -510 627 -506 612 -501C613 -513 618 -524 629 -540C634 -548 625 -560 610 -571C699 -585 732 -589 783 -594C805 -596 808 -584 781 -536C775 -524 779 -513 796 -523C836 -548 856 -557 884 -560C913 -564 917 -580 887 -603C843 -637 823 -640 794 -631C741 -618 708 -612 624 -600L625 -663C658 -662 704 -664 763 -678C794 -685 797 -703 783 -711C768 -720 752 -721 719 -710C683 -697 645 -690 625 -689Z"/>
</svg>