<svg xmlns="http://www.w3.org/2000/svg" viewBox="0 -1000 1000 1000">
	<path fill="#000000" d="M646 -319C621 -314 593 -309 565 -303V-350C591 -356 618 -363 646 -368ZM530 -412C530 -399 530 -378 531 -370C506 -366 485 -362 469 -360C436 -355 436 -341 461 -333C470 -330 494 -331 507 -335C514 -337 523 -339 531 -342V-297C444 -281 423 -277 402 -274C379 -271 377 -258 399 -248C420 -239 436 -240 505 -262C471 -209 382 -116 284 -55C268 -44 273 -32 295 -39C352 -57 467 -141 508 -194C514 -65 507 -40 481 -23C468 -14 464 -4 479 26C495 57 506 57 521 39C554 1 599 -37 660 -78C687 -97 682 -115 649 -100C626 -88 592 -70 550 -50C550 -104 554 -154 559 -184C561 -196 557 -208 528 -224C540 -242 548 -256 556 -267C581 -242 616 -209 633 -191C670 -152 730 -95 772 -57C810 -22 825 -20 966 -44C985 -47 988 -62 965 -67C845 -91 770 -126 700 -181C740 -210 766 -228 782 -238C795 -246 794 -259 769 -274C737 -295 719 -293 724 -274C728 -252 716 -235 679 -199C618 -250 596 -268 578 -278C650 -293 736 -305 833 -314C869 -317 871 -338 842 -350C818 -361 794 -359 748 -343C737 -339 710 -333 679 -327L681 -375C700 -378 717 -381 733 -384C777 -393 780 -412 763 -420C751 -425 735 -427 683 -409L685 -449C719 -456 750 -463 771 -466C798 -470 807 -493 780 -502C770 -505 746 -502 688 -484C691 -491 692 -498 693 -502C695 -509 691 -515 666 -524C630 -538 619 -530 635 -506C641 -498 644 -484 645 -471C625 -464 596 -456 567 -449C567 -455 567 -461 567 -464C567 -476 560 -480 538 -486C513 -493 507 -481 514 -471C520 -465 524 -452 527 -440C502 -435 475 -429 462 -428C440 -425 441 -413 460 -406C469 -402 500 -405 530 -412ZM646 -440V-397C625 -392 595 -384 566 -377C566 -390 566 -409 566 -421C592 -428 619 -435 646 -440ZM468 -518C465 -535 460 -552 454 -567C482 -574 504 -578 521 -581C533 -583 540 -580 540 -570C540 -551 539 -546 534 -541C522 -534 492 -523 468 -518ZM433 -585C402 -592 398 -582 410 -566C423 -549 440 -515 447 -495C451 -486 458 -481 466 -483C470 -484 472 -489 471 -497C506 -504 541 -513 563 -519C584 -525 583 -534 573 -545C579 -557 585 -568 596 -579C609 -593 606 -602 573 -613C553 -620 544 -620 534 -614C518 -604 471 -591 433 -585ZM683 -562C680 -578 676 -594 671 -607C698 -613 726 -619 748 -623C757 -625 767 -622 767 -618C768 -599 763 -587 759 -582C743 -575 711 -568 683 -562ZM646 -625C624 -630 619 -619 630 -605C640 -590 657 -555 663 -538C666 -530 682 -528 685 -540C713 -544 756 -549 787 -553C809 -556 813 -567 797 -578C803 -587 813 -601 830 -615C843 -626 842 -634 812 -653C790 -667 780 -668 769 -661C756 -653 711 -639 646 -625ZM810 -732C789 -741 761 -739 728 -727C671 -708 518 -681 440 -672C417 -669 413 -657 439 -646C459 -637 472 -637 524 -650C559 -659 732 -687 807 -697C836 -701 842 -719 810 -732ZM668 -759C662 -781 645 -794 581 -798C561 -799 559 -790 570 -778C593 -755 615 -738 636 -729C660 -720 676 -732 668 -759ZM254 -367C298 -375 332 -382 350 -387C371 -394 372 -413 362 -418C354 -423 354 -425 361 -444C374 -477 385 -492 400 -506C418 -520 415 -534 362 -552C332 -562 322 -562 308 -553C300 -547 284 -540 261 -532C264 -605 271 -670 278 -690C287 -718 283 -728 229 -745C179 -760 173 -746 192 -719C211 -692 218 -650 216 -517C187 -510 153 -503 118 -498C77 -512 66 -498 79 -484C92 -469 110 -430 120 -387C129 -348 141 -329 148 -329C154 -329 161 -336 163 -350C181 -353 197 -356 213 -359L211 -221C149 -199 98 -186 72 -182C35 -178 32 -167 66 -145C109 -119 117 -119 135 -131C188 -166 249 -200 324 -236C330 -221 335 -205 340 -193C350 -172 369 -178 376 -222C381 -247 365 -287 326 -310C303 -324 298 -320 303 -298C305 -289 310 -275 316 -259L249 -235ZM213 -388C198 -385 182 -381 162 -378C158 -409 148 -449 137 -475C162 -478 187 -483 216 -490ZM259 -501C274 -504 289 -506 300 -508C314 -510 321 -507 322 -493C324 -471 320 -449 312 -428C308 -417 300 -409 255 -398Z"/>
</svg>