<svg xmlns="http://www.w3.org/2000/svg" viewBox="0 -1000 1000 1000">
	<path fill="#000000" d="M415 -677C432 -694 425 -708 391 -724C358 -741 346 -734 349 -718C354 -689 344 -656 300 -590C289 -573 294 -568 311 -579C330 -592 345 -605 363 -624C377 -639 400 -662 415 -677ZM238 -598C244 -626 223 -656 173 -672C151 -680 145 -675 158 -651C179 -612 196 -585 205 -574C218 -560 231 -566 238 -598ZM403 -552C384 -568 371 -567 323 -546C288 -531 223 -515 141 -501C111 -496 114 -482 153 -479C186 -475 219 -478 306 -500C363 -514 382 -519 402 -525C420 -530 418 -539 403 -552ZM402 -397C408 -425 381 -458 324 -469C294 -475 291 -470 306 -450C333 -412 349 -395 367 -381C382 -369 398 -371 402 -397ZM235 -398C249 -408 249 -414 221 -438C194 -462 181 -455 179 -430C176 -397 159 -369 86 -318C70 -307 71 -298 92 -305C113 -311 149 -329 164 -342C202 -373 221 -388 235 -398ZM877 -417C895 -439 894 -454 835 -480C798 -496 790 -496 771 -487C745 -475 723 -468 648 -458C608 -454 602 -451 585 -463C598 -478 603 -484 609 -488C625 -498 627 -502 581 -534C640 -544 679 -549 720 -552C734 -552 741 -551 748 -542C759 -529 767 -531 782 -553C797 -575 807 -595 818 -619C833 -653 841 -666 853 -674C876 -689 875 -694 835 -718C798 -739 788 -739 771 -732C758 -727 726 -721 650 -709C565 -696 534 -693 501 -695C461 -716 438 -710 455 -683C470 -661 482 -623 505 -538C514 -502 540 -502 541 -527C550 -529 558 -531 568 -532C566 -509 560 -502 533 -469C512 -443 479 -412 446 -384C436 -375 440 -364 455 -372C485 -385 533 -417 563 -447C609 -422 620 -421 647 -427C720 -440 752 -444 776 -443C799 -441 804 -432 807 -373C811 -280 800 -163 784 -101C763 -19 757 -18 682 -48C665 -54 659 -48 670 -36C716 13 726 30 734 54C739 71 754 74 768 61C840 -5 850 -36 858 -331C859 -378 865 -402 877 -417ZM730 -102C737 -139 730 -163 660 -200C646 -207 640 -201 646 -188C649 -183 657 -165 660 -160C648 -157 614 -148 585 -140L588 -217C622 -223 649 -227 679 -232C697 -235 698 -243 687 -253C677 -262 677 -280 726 -318C742 -330 742 -334 712 -349C675 -368 669 -367 653 -357C643 -351 620 -343 592 -336C593 -351 595 -360 597 -367C605 -392 601 -399 575 -406C545 -415 539 -407 547 -387C550 -380 553 -358 555 -328C527 -322 498 -318 476 -316C444 -326 436 -315 451 -298C463 -285 472 -265 486 -210C492 -187 505 -185 510 -202C527 -206 543 -209 557 -212L554 -132C492 -116 467 -112 446 -114C415 -117 410 -108 439 -79C462 -56 468 -56 486 -67C523 -88 572 -109 669 -142C681 -123 689 -109 698 -94C709 -75 725 -74 730 -102ZM445 -180C442 -188 419 -186 379 -174C402 -251 414 -282 423 -290C442 -307 442 -321 410 -336C378 -351 370 -351 355 -340C332 -323 203 -291 122 -279C90 -286 79 -280 98 -258C113 -241 120 -218 143 -113C97 -102 83 -100 52 -99C25 -98 18 -90 48 -62C80 -32 86 -33 105 -46C136 -67 258 -112 382 -144C439 -158 447 -174 445 -180ZM778 -674C773 -645 764 -619 752 -590C749 -582 744 -580 736 -581C723 -583 711 -583 677 -577C685 -601 695 -622 715 -653C724 -667 724 -672 702 -690C732 -694 756 -696 770 -696C779 -696 780 -691 778 -674ZM671 -686C677 -665 676 -655 661 -575C645 -572 635 -570 611 -565C622 -609 617 -631 600 -675C622 -679 641 -682 671 -686ZM594 -563C577 -560 558 -556 538 -551C522 -604 517 -635 513 -670C533 -666 556 -667 579 -672C581 -626 585 -602 594 -563ZM654 -293C645 -261 640 -258 623 -251C615 -247 602 -243 588 -239C589 -274 590 -293 591 -313C612 -318 630 -322 639 -322C657 -323 661 -321 654 -293ZM557 -233C541 -230 525 -227 510 -225C507 -249 503 -265 495 -296C517 -296 528 -297 556 -305C556 -280 557 -261 557 -233ZM367 -279C365 -252 360 -222 347 -166C327 -160 309 -154 290 -149C295 -179 301 -199 317 -243C323 -258 319 -272 295 -291C326 -298 341 -300 349 -301C363 -301 368 -299 367 -279ZM279 -287C284 -263 283 -230 271 -145C255 -140 246 -137 232 -133C242 -206 235 -232 213 -269C240 -276 260 -281 279 -287ZM215 -130C195 -126 183 -121 169 -118C165 -170 158 -216 147 -250C160 -254 171 -258 192 -265C202 -223 206 -199 215 -130Z"/>
</svg>