<svg xmlns="http://www.w3.org/2000/svg" viewBox="0 -1000 1000 1000">
	<path fill="#000000" d="M562 -556C560 -600 557 -636 553 -663C576 -665 597 -670 630 -678C649 -682 677 -685 694 -684C705 -683 712 -679 705 -647C698 -614 692 -598 683 -583C651 -573 612 -565 562 -556ZM533 -693C469 -718 460 -705 480 -674C498 -648 509 -612 523 -549C534 -496 549 -491 561 -526C642 -540 687 -546 720 -550C768 -556 769 -577 732 -592C753 -625 773 -645 796 -658C816 -671 813 -689 770 -718C736 -742 715 -742 695 -731C656 -712 596 -699 533 -693ZM553 -251C539 -174 471 -81 378 -18C348 3 351 16 389 2C497 -39 562 -112 599 -236C647 -163 678 -116 719 -47C751 6 760 11 921 -2C946 -4 947 -22 920 -30C782 -74 740 -107 617 -260C704 -270 831 -275 868 -271C941 -264 949 -284 906 -311C883 -326 847 -332 754 -308C786 -369 801 -394 812 -405C829 -420 827 -433 784 -461C754 -481 742 -479 726 -471C706 -462 682 -454 652 -447C575 -429 525 -419 481 -417C505 -472 504 -498 491 -512C482 -520 471 -531 462 -535C445 -542 435 -536 444 -517C457 -495 458 -431 434 -415C413 -402 411 -390 423 -375C440 -350 448 -351 475 -369C490 -378 506 -384 558 -395C569 -371 570 -336 560 -283C491 -275 422 -269 385 -267C352 -265 351 -253 373 -241C404 -225 418 -223 466 -235C487 -240 520 -246 553 -251ZM611 -289C616 -312 621 -326 632 -350C638 -363 633 -375 589 -401C619 -408 661 -415 713 -424C738 -430 748 -420 717 -302C685 -298 649 -293 611 -289ZM327 -406C320 -348 298 -264 273 -212C262 -219 250 -226 235 -233C221 -240 217 -249 220 -267C227 -308 234 -345 241 -377ZM204 -364C200 -337 196 -308 191 -276C186 -242 188 -228 209 -213C222 -204 237 -192 253 -177C217 -124 170 -84 109 -46C75 -26 80 -12 112 -25C181 -52 247 -95 286 -147C306 -126 327 -102 342 -79C361 -52 381 -62 379 -93C378 -129 361 -158 310 -191C331 -236 350 -297 363 -350C370 -379 379 -405 389 -421C399 -440 396 -453 352 -484C331 -499 319 -487 328 -467C331 -462 331 -448 330 -432L248 -410C284 -594 297 -636 313 -661C326 -684 324 -695 315 -703C289 -723 266 -736 252 -742C227 -752 215 -739 224 -723C244 -690 244 -636 210 -400C156 -387 114 -382 70 -381C34 -380 29 -371 59 -345C91 -317 103 -319 131 -333C148 -340 179 -354 204 -364Z"/>
</svg>