<svg xmlns="http://www.w3.org/2000/svg" viewBox="0 -1000 1000 1000">
	<path fill="#000000" d="M226 -757C202 -762 196 -752 209 -732C233 -694 255 -672 275 -655C298 -638 315 -640 318 -680C321 -720 305 -739 226 -757ZM315 -370C305 -374 294 -377 283 -380C280 -395 275 -406 270 -416C321 -497 337 -515 364 -531C394 -547 389 -562 351 -582C319 -599 305 -598 291 -584C281 -574 254 -566 192 -553C125 -540 111 -538 88 -539C60 -540 59 -534 75 -521C113 -490 126 -491 147 -500C158 -505 202 -516 290 -537C227 -414 160 -329 55 -232C39 -217 44 -206 63 -217C141 -261 189 -300 248 -383C250 -352 249 -304 246 -212C245 -173 235 -111 230 -90C223 -57 224 -30 242 8C253 30 265 30 276 10C284 -1 290 -65 290 -104C289 -131 288 -208 289 -228C292 -290 291 -335 285 -368C319 -338 339 -313 351 -287C360 -267 388 -273 384 -307C381 -332 366 -348 331 -364C353 -388 377 -408 397 -420C412 -430 410 -446 381 -472C360 -489 352 -485 355 -465C357 -451 350 -433 315 -370ZM596 -272C595 -244 595 -215 596 -187C547 -178 505 -171 474 -166C477 -194 482 -214 488 -226C496 -244 489 -258 457 -273C428 -287 409 -273 427 -252C446 -229 442 -181 415 -164C398 -154 395 -146 410 -124C427 -100 435 -98 454 -112C479 -133 506 -145 596 -154C599 19 600 34 603 53C609 96 623 93 632 51C641 10 646 -50 646 -158C716 -163 751 -162 791 -158C872 -148 881 -167 848 -194C817 -218 782 -218 698 -204C684 -202 667 -199 647 -195C647 -226 647 -256 648 -280C720 -291 742 -293 753 -297C770 -301 772 -310 756 -320C735 -335 716 -336 649 -318C651 -336 653 -345 659 -356C667 -375 659 -385 613 -402C573 -416 562 -405 579 -380C593 -362 596 -348 596 -305C570 -300 544 -297 498 -293C477 -291 476 -281 493 -274C513 -265 534 -264 596 -272ZM491 -558C512 -548 546 -526 590 -491C527 -421 473 -380 401 -343C378 -331 382 -319 408 -327C486 -347 570 -403 627 -462C672 -423 720 -384 765 -349C786 -333 801 -330 950 -358C975 -362 973 -378 945 -382C822 -400 761 -420 652 -490C667 -509 683 -534 705 -566C725 -595 741 -613 764 -627C786 -642 782 -652 743 -680C720 -696 704 -695 687 -685C659 -667 613 -656 580 -659C610 -703 621 -714 633 -725C652 -742 650 -752 610 -778C571 -804 558 -792 563 -773C569 -754 560 -726 541 -691C499 -612 448 -555 413 -525C395 -510 405 -500 427 -512C446 -523 469 -540 491 -558ZM568 -641C595 -628 624 -625 665 -640C678 -644 682 -638 676 -624C650 -573 635 -546 612 -517C556 -556 529 -572 510 -577C532 -598 551 -619 568 -641Z"/>
</svg>