<svg xmlns="http://www.w3.org/2000/svg" viewBox="0 -1000 1000 1000">
	<path fill="#000000" d="M407 -179C437 -198 458 -209 473 -217C536 -170 617 -110 706 -46C757 -9 769 -7 932 -45C958 -52 960 -66 931 -70C816 -85 750 -98 592 -181C614 -194 633 -205 666 -227C675 -233 703 -246 719 -250C751 -259 748 -278 696 -301C661 -316 656 -315 652 -290C650 -271 625 -240 567 -194C546 -205 525 -217 501 -231C521 -238 523 -251 487 -271C460 -285 446 -279 443 -267C440 -251 419 -235 307 -162C268 -136 172 -90 87 -59C64 -51 66 -40 100 -44C176 -55 272 -96 372 -158C371 -54 367 -41 349 -27C323 -6 322 7 337 24C364 52 372 54 389 36C407 15 419 4 526 -77C557 -100 550 -115 519 -101C499 -92 452 -69 411 -50C411 -110 413 -127 422 -145C428 -159 426 -169 407 -179ZM509 -717C271 -688 222 -683 215 -683C161 -683 152 -673 187 -655C214 -642 235 -641 312 -657C335 -662 378 -669 429 -675C415 -645 362 -601 233 -541C212 -531 222 -518 240 -524C278 -536 319 -551 355 -569C381 -538 399 -522 419 -514C441 -504 460 -520 453 -539C443 -560 427 -570 360 -571C389 -584 415 -599 434 -611C466 -606 529 -607 569 -616C608 -625 613 -615 597 -602C512 -532 451 -504 228 -437C204 -430 206 -418 228 -421C324 -437 426 -467 506 -501C503 -498 501 -492 500 -486C490 -462 432 -431 268 -377C246 -370 253 -354 273 -359C297 -363 359 -379 398 -392C420 -366 450 -344 469 -336C491 -327 510 -339 502 -361C492 -384 467 -393 405 -395C450 -408 473 -417 490 -425C526 -418 594 -417 644 -424C678 -430 681 -428 675 -423C567 -347 463 -308 150 -251C121 -246 124 -226 159 -229C396 -253 549 -298 705 -382C746 -405 763 -412 775 -415C799 -421 803 -431 769 -459C741 -483 727 -485 697 -473C662 -458 580 -446 528 -443C551 -454 558 -457 564 -459C587 -467 581 -483 519 -506C562 -525 599 -545 626 -566C659 -590 672 -598 687 -601C719 -608 718 -618 691 -641C664 -662 647 -667 617 -657C572 -645 510 -635 466 -633C476 -638 487 -643 493 -645C515 -652 515 -656 474 -680C585 -691 714 -699 751 -696C839 -689 842 -707 807 -733C783 -751 747 -754 678 -740C671 -738 610 -729 549 -721C554 -781 530 -797 462 -812C433 -818 424 -810 446 -783C472 -753 489 -736 509 -717Z"/>
</svg>