<svg xmlns="http://www.w3.org/2000/svg" viewBox="0 -1000 1000 1000">
	<path fill="#000000" d="M242 -736C201 -739 196 -731 219 -708C259 -667 291 -642 303 -637C332 -625 343 -629 341 -662C338 -706 313 -729 242 -736ZM347 -340C335 -344 323 -347 308 -351C306 -368 303 -381 299 -394C344 -469 357 -482 374 -493C407 -513 408 -525 366 -549C336 -566 324 -564 308 -552C286 -536 258 -526 207 -514C180 -507 130 -503 97 -504C69 -505 68 -493 83 -483C113 -461 137 -453 159 -461C212 -479 263 -493 303 -501C267 -414 184 -281 65 -172C47 -156 53 -143 75 -156C144 -196 214 -260 273 -351C274 -328 272 -290 267 -217C263 -165 254 -110 246 -84C236 -54 235 -28 262 23C272 42 285 43 294 26C300 13 310 -59 310 -98C310 -139 312 -303 309 -335C336 -309 367 -274 387 -250C406 -227 417 -236 415 -265C411 -299 405 -315 368 -332C399 -366 418 -385 431 -396C447 -409 446 -425 417 -446C394 -462 383 -455 386 -436C388 -419 377 -390 347 -340ZM749 -585C757 -607 769 -625 793 -647C806 -659 804 -670 781 -682C743 -702 729 -703 711 -695C699 -690 674 -683 643 -676C648 -704 658 -736 663 -747C669 -758 669 -764 635 -779C581 -800 563 -781 579 -766C594 -754 600 -719 597 -667C570 -661 539 -655 508 -651C485 -648 485 -644 501 -635C524 -622 533 -622 594 -636L588 -557C525 -547 475 -541 444 -538C405 -535 403 -525 427 -515C451 -505 471 -504 490 -509C521 -517 592 -534 654 -541C770 -554 843 -559 879 -556C950 -552 951 -571 927 -587C892 -612 869 -611 831 -602C823 -600 790 -593 749 -585ZM622 -564L637 -645C670 -651 692 -654 704 -655C719 -656 725 -643 705 -578C677 -573 648 -568 622 -564ZM565 -359C583 -364 602 -368 625 -373C632 -365 636 -351 637 -319C596 -312 562 -307 534 -305C511 -304 509 -297 529 -286C548 -276 565 -274 638 -284C638 -265 638 -241 638 -212C603 -208 562 -203 512 -197C535 -252 535 -260 512 -273C490 -287 475 -282 484 -261C493 -240 471 -190 436 -174C422 -168 419 -160 435 -139C448 -123 459 -123 473 -134C501 -156 568 -174 638 -182C637 -6 639 20 649 58C654 77 664 78 669 58C683 6 690 -88 687 -187C802 -196 857 -197 893 -194C921 -192 928 -205 903 -229C883 -248 842 -253 767 -234C751 -230 727 -226 686 -219C685 -248 685 -273 685 -292C721 -297 751 -300 785 -306C819 -312 825 -327 807 -338C793 -347 778 -349 686 -330C687 -339 688 -345 691 -348C696 -359 693 -369 674 -382C696 -385 721 -389 751 -394C784 -398 790 -408 780 -420C775 -427 791 -446 813 -461C829 -471 828 -486 797 -501C764 -516 757 -516 735 -509C700 -498 609 -478 538 -469C485 -480 477 -469 496 -452C503 -446 512 -428 530 -381C538 -360 544 -350 554 -351C559 -351 562 -353 565 -359ZM555 -444C626 -461 696 -473 717 -474C733 -475 737 -470 731 -447C726 -424 721 -418 704 -415C622 -399 585 -393 564 -392C561 -408 558 -429 555 -444Z"/>
</svg>