<svg xmlns="http://www.w3.org/2000/svg" viewBox="0 -1000 1000 1000">
	<path fill="#000000" d="M337 -704C346 -741 331 -782 249 -798C220 -804 216 -796 229 -779C244 -760 264 -727 277 -702C295 -667 327 -663 337 -704ZM845 -668C812 -689 786 -692 712 -673C726 -705 739 -729 748 -741C763 -761 764 -772 715 -792C669 -811 662 -804 674 -776C680 -761 679 -716 665 -662C627 -654 567 -642 513 -633C511 -656 511 -684 512 -693C514 -722 509 -727 469 -735C431 -743 419 -731 436 -712C456 -690 465 -674 476 -627C446 -622 420 -618 407 -617C372 -614 371 -607 394 -591C406 -583 416 -581 483 -598C486 -582 490 -562 495 -538C500 -512 519 -511 521 -533C524 -555 523 -568 517 -607C549 -612 609 -622 654 -628C643 -598 628 -565 622 -552C613 -533 623 -524 641 -541C659 -557 678 -589 696 -633C731 -636 766 -636 790 -634C862 -628 873 -651 845 -668ZM962 -297C998 -301 995 -316 959 -323C847 -344 757 -378 605 -502C623 -522 622 -528 588 -542C553 -557 545 -552 547 -527C549 -504 536 -466 495 -411C446 -345 401 -303 306 -236C290 -225 296 -214 312 -222C424 -274 500 -335 557 -429C566 -444 581 -468 591 -483C662 -399 709 -355 783 -306C817 -284 830 -282 962 -297ZM684 -351C665 -361 638 -361 582 -345C541 -333 513 -326 497 -324C481 -322 478 -312 490 -307C506 -300 546 -297 582 -301C636 -307 660 -314 683 -328C698 -337 696 -345 684 -351ZM378 -420C394 -429 396 -444 374 -458C351 -473 343 -471 338 -453C331 -430 316 -402 291 -371C281 -374 271 -374 257 -377C254 -389 248 -397 240 -407C313 -522 321 -531 352 -550C372 -562 375 -575 338 -590C306 -603 292 -600 283 -589C266 -570 248 -560 211 -550C167 -538 101 -527 81 -526C52 -525 51 -513 70 -499C99 -477 113 -476 140 -487C184 -505 221 -519 269 -534C209 -415 120 -310 46 -238C31 -223 39 -215 56 -224C113 -254 177 -309 223 -387C230 -371 229 -351 227 -289C223 -171 215 -118 205 -92C195 -66 197 -42 211 -7C220 15 234 17 241 1C250 -18 256 -58 258 -117C259 -144 261 -235 262 -259C264 -309 264 -339 261 -360C287 -340 305 -323 320 -306C336 -287 357 -288 355 -313C353 -336 342 -349 305 -363C332 -388 363 -411 378 -420ZM775 -176C799 -192 794 -198 747 -231C712 -256 688 -259 663 -246C642 -235 516 -211 459 -219C422 -234 417 -221 432 -199C448 -176 460 -107 461 -56C461 -37 463 -29 478 -10C492 8 503 5 501 -38C576 -39 707 -49 732 -54C756 -58 759 -76 738 -83C718 -90 716 -94 726 -113C739 -139 760 -166 775 -176ZM678 -159C670 -102 667 -96 643 -87C623 -80 574 -70 501 -64C500 -125 496 -154 483 -194C505 -193 526 -194 565 -201C602 -207 632 -208 653 -208C673 -208 683 -195 678 -159Z"/>
</svg>