<svg xmlns="http://www.w3.org/2000/svg" viewBox="0 -1000 1000 1000">
	<path fill="#000000" d="M224 -747C198 -754 192 -738 207 -719C232 -686 264 -651 276 -639C299 -617 320 -624 324 -660C328 -702 310 -723 224 -747ZM302 -318C294 -320 286 -322 275 -325C272 -338 268 -347 262 -356C319 -461 343 -495 363 -507C384 -519 383 -532 343 -557C319 -574 299 -570 289 -561C273 -549 248 -537 191 -518C156 -507 123 -501 96 -500C57 -499 53 -486 80 -468C113 -448 126 -447 146 -458C170 -473 203 -485 286 -512C250 -404 132 -217 57 -142C41 -126 45 -112 68 -130C137 -177 185 -223 242 -321C245 -294 244 -252 241 -182C239 -107 233 -67 224 -44C215 -24 219 9 242 46C256 67 270 63 276 42C288 0 289 -28 286 -66C284 -95 282 -173 283 -198C285 -246 284 -279 280 -303C305 -282 325 -257 343 -232C360 -210 383 -227 379 -259C377 -278 361 -298 321 -312C351 -344 369 -356 386 -366C405 -376 406 -389 363 -419C342 -433 324 -423 332 -403C340 -387 331 -364 302 -318ZM656 -305C668 -251 665 -189 644 -78C626 -76 606 -74 588 -72C598 -152 595 -209 572 -293C594 -297 637 -303 656 -305ZM751 -93C725 -89 697 -86 669 -81C696 -191 709 -230 716 -241C727 -257 727 -273 678 -308C698 -310 720 -312 746 -315C787 -319 795 -313 787 -264C780 -209 770 -162 751 -93ZM473 -277C499 -279 526 -283 547 -287C546 -222 553 -145 566 -70C544 -68 523 -65 503 -64C496 -144 487 -217 473 -277ZM472 -61C420 -56 376 -53 351 -53C313 -53 305 -44 341 -22C368 -4 384 -3 417 -12C465 -27 632 -46 722 -53C796 -58 852 -56 933 -46C976 -41 983 -70 949 -89C905 -113 880 -113 799 -99C838 -219 854 -256 874 -275C896 -296 889 -309 834 -346C804 -367 788 -368 762 -358C733 -347 559 -315 445 -305C394 -326 383 -307 407 -275C427 -250 453 -169 472 -61ZM544 -405C589 -407 613 -410 646 -417C676 -423 692 -418 695 -410C701 -393 727 -394 743 -423C755 -445 770 -477 780 -509C807 -594 815 -614 825 -624C849 -648 850 -665 788 -698C744 -722 737 -722 705 -707C693 -701 635 -685 589 -677C551 -670 525 -665 485 -660C424 -673 422 -664 444 -634C460 -613 486 -537 500 -448C507 -404 522 -381 533 -381C540 -381 544 -389 544 -405ZM527 -524C574 -516 624 -524 666 -540C701 -553 693 -570 665 -574C646 -577 631 -575 524 -539C519 -573 512 -605 505 -634C541 -637 571 -642 602 -650C632 -657 680 -665 701 -667C737 -668 745 -662 741 -624C738 -594 732 -555 725 -518C710 -447 703 -444 673 -448C653 -451 616 -447 542 -432C537 -463 532 -495 527 -524Z"/>
</svg>