<svg xmlns="http://www.w3.org/2000/svg" viewBox="0 -1000 1000 1000">
	<path fill="#000000" d="M214 -729C176 -734 172 -724 196 -699C242 -650 262 -633 274 -628C297 -621 309 -634 306 -660C301 -708 283 -719 214 -729ZM282 -335C278 -336 273 -337 268 -338C267 -362 264 -378 258 -394C300 -465 316 -482 333 -493C366 -513 365 -523 323 -547C293 -564 286 -564 267 -552C237 -535 219 -528 194 -522C157 -513 113 -509 83 -510C55 -511 53 -503 68 -491C98 -469 123 -462 145 -469C197 -487 226 -496 262 -503C209 -375 132 -270 49 -189C31 -171 36 -162 58 -174C127 -214 172 -255 232 -350C232 -327 230 -290 224 -217C220 -165 213 -110 204 -84C195 -54 194 -28 221 23C231 42 244 43 253 26C259 13 269 -59 269 -98C269 -131 269 -284 269 -313C283 -300 310 -268 325 -250C344 -227 355 -236 353 -265C351 -294 340 -315 302 -329C335 -369 351 -384 369 -396C383 -404 385 -425 355 -446C332 -462 321 -455 324 -436C326 -419 315 -388 282 -335ZM717 -110C734 -120 732 -130 698 -147C664 -165 648 -162 649 -147C650 -135 645 -116 626 -92C583 -39 554 -12 497 22C480 31 481 42 506 35C561 19 616 -15 676 -76C690 -91 704 -103 717 -110ZM913 -5C911 -63 884 -94 786 -148C770 -158 764 -149 771 -138C785 -115 834 -43 874 14C893 42 914 30 913 -5ZM675 -372C705 -372 748 -377 784 -389C796 -393 802 -408 790 -415C778 -421 754 -422 675 -399C675 -421 674 -441 674 -455C706 -463 740 -470 799 -480C821 -484 828 -479 830 -464C836 -418 837 -321 835 -260C834 -225 828 -224 820 -230C810 -239 793 -239 782 -236C755 -228 727 -222 672 -216C673 -233 674 -256 674 -282C716 -281 745 -285 783 -298C805 -305 803 -324 785 -328C773 -331 751 -328 674 -305C674 -327 674 -350 675 -372ZM673 -483C669 -482 664 -482 660 -481C616 -497 607 -486 615 -471C633 -440 639 -279 628 -230C623 -213 626 -193 639 -176C650 -161 659 -160 669 -191C702 -191 739 -195 807 -205C819 -207 827 -203 845 -160C851 -145 871 -145 878 -163C894 -204 899 -244 889 -318C881 -386 883 -440 897 -466C909 -489 908 -496 865 -515C831 -531 820 -531 807 -522C787 -510 745 -497 702 -488C726 -530 747 -561 754 -568C769 -579 770 -589 750 -609C801 -617 899 -636 913 -639C936 -644 940 -663 931 -671C910 -688 864 -686 839 -679C717 -642 671 -631 624 -628C605 -627 600 -616 617 -610C652 -598 667 -595 701 -601C706 -567 696 -531 673 -483ZM425 -246C447 -253 486 -265 507 -271C528 -275 532 -272 532 -249C532 -236 529 -211 527 -200C525 -190 520 -184 500 -176C479 -167 459 -160 436 -153C431 -179 426 -218 425 -246ZM440 -125C508 -140 553 -152 568 -158C591 -165 592 -180 582 -189C572 -197 571 -204 576 -225C581 -243 592 -261 598 -264C618 -273 616 -290 579 -308C549 -322 541 -325 529 -318C490 -297 455 -281 409 -272C353 -287 351 -269 367 -247C375 -236 382 -216 402 -134C407 -115 413 -102 419 -95C428 -84 439 -86 440 -125ZM484 -551C443 -535 420 -527 397 -524C370 -520 368 -511 393 -507C428 -502 453 -504 482 -511L480 -416C437 -400 419 -395 401 -393C381 -390 382 -380 396 -375C427 -365 440 -366 485 -378C530 -390 545 -395 584 -408C612 -417 613 -433 590 -438C568 -442 549 -441 522 -432L523 -521C544 -528 567 -537 604 -550C628 -558 625 -576 604 -580C579 -585 562 -584 523 -568C525 -648 532 -692 541 -712C551 -732 546 -748 504 -761C451 -780 441 -762 454 -748C476 -721 486 -658 484 -551Z"/>
</svg>