<svg xmlns="http://www.w3.org/2000/svg" viewBox="0 -1000 1000 1000">
	<path fill="#000000" d="M496 -311C460 -306 419 -301 376 -295C369 -335 365 -350 359 -364C402 -367 458 -373 498 -379C498 -350 497 -329 496 -311ZM540 -385C617 -399 638 -402 647 -403C669 -405 675 -396 669 -370C662 -342 658 -338 612 -328C605 -327 578 -322 539 -316C540 -341 540 -362 540 -385ZM501 -568C458 -562 421 -558 389 -554C385 -577 381 -595 377 -610C408 -615 455 -622 501 -628C501 -611 501 -591 501 -568ZM550 -636C592 -642 629 -646 648 -648C679 -651 686 -649 683 -627C680 -613 677 -600 674 -587C639 -583 596 -578 547 -573C549 -599 550 -619 550 -636ZM546 -545C593 -549 634 -553 666 -554C662 -540 657 -527 652 -516C646 -501 633 -487 627 -490C621 -493 602 -495 544 -486C545 -504 545 -523 546 -545ZM501 -481C475 -477 445 -473 409 -467C404 -487 400 -508 395 -527C430 -533 466 -537 501 -540C501 -518 501 -499 501 -481ZM609 -204C607 -179 593 -142 566 -106C528 -116 482 -127 429 -139C410 -143 407 -150 416 -161C427 -174 435 -184 441 -193C494 -197 571 -203 609 -204ZM668 -243C663 -247 656 -251 645 -257C618 -269 610 -269 610 -238C550 -232 503 -228 463 -224C471 -235 479 -245 485 -251C493 -260 494 -266 472 -282C559 -293 660 -302 675 -302C718 -301 725 -312 715 -320C707 -328 708 -337 712 -343C725 -361 742 -373 761 -384C777 -394 776 -406 729 -430C699 -444 687 -445 669 -437C657 -432 626 -425 541 -413C542 -425 542 -441 542 -456C571 -459 590 -463 604 -466C630 -471 640 -469 646 -462C657 -448 667 -447 680 -467C686 -476 708 -519 720 -556C805 -559 835 -558 842 -556C888 -550 902 -568 874 -587C851 -607 830 -608 730 -592C735 -607 742 -617 760 -631C781 -649 780 -658 739 -681C700 -703 690 -702 670 -692C652 -684 606 -674 553 -664C557 -707 559 -717 564 -727C578 -759 569 -770 525 -785C470 -805 460 -788 484 -759C495 -746 499 -731 501 -655C448 -648 395 -641 357 -638C337 -644 327 -647 317 -648C294 -649 287 -642 307 -618C316 -608 326 -587 338 -549C246 -539 216 -537 198 -538C167 -539 166 -533 199 -513C218 -501 240 -500 276 -507C298 -511 322 -516 348 -520C352 -504 357 -485 363 -464C367 -450 372 -440 376 -433C387 -415 404 -416 409 -442C437 -444 469 -447 500 -451C500 -435 499 -420 499 -407C448 -400 396 -393 342 -388C336 -392 326 -393 307 -395C286 -397 283 -385 293 -375C305 -363 321 -335 348 -275C363 -240 381 -245 379 -271C393 -273 408 -275 426 -277C428 -261 426 -248 408 -217C376 -214 348 -212 318 -209C185 -198 157 -197 142 -198C100 -201 92 -189 137 -167C165 -154 199 -149 271 -167C298 -174 340 -181 391 -187C385 -177 377 -166 369 -153C355 -131 357 -121 377 -118C405 -112 453 -99 534 -71C490 -36 389 4 267 22C236 26 235 39 268 39C413 39 532 -1 583 -55C645 -31 686 -7 731 24C769 50 786 41 776 0C769 -29 756 -42 682 -70C664 -77 641 -85 612 -93C637 -130 660 -173 670 -206C761 -209 837 -208 865 -204C947 -192 953 -213 915 -240C881 -264 865 -264 777 -255C737 -250 701 -247 668 -243Z"/>
</svg>