<svg xmlns="http://www.w3.org/2000/svg" viewBox="0 -1000 1000 1000">
	<path fill="#000000" d="M599 -475C596 -422 547 -311 456 -214C431 -188 435 -179 467 -201C533 -249 559 -278 597 -343C615 -375 639 -419 653 -447C660 -458 653 -469 633 -482C659 -490 681 -497 699 -500C710 -452 659 -317 611 -243C565 -170 528 -127 476 -88C446 -65 451 -54 479 -67C548 -99 588 -137 633 -203C665 -249 694 -299 731 -388C744 -420 752 -439 763 -449C771 -457 766 -473 730 -506C753 -510 768 -511 778 -511C801 -511 809 -505 808 -474C803 -350 768 -195 736 -131C716 -92 701 -94 650 -127C634 -136 626 -129 638 -111C661 -78 673 -47 679 -16C683 6 699 13 719 -3C757 -33 778 -65 797 -119C821 -189 838 -265 852 -372C859 -424 868 -458 880 -477C901 -508 898 -517 851 -546C813 -570 803 -571 785 -561C757 -548 658 -513 588 -506C612 -543 634 -584 651 -624C663 -649 672 -667 685 -688C704 -720 698 -729 643 -754C604 -771 596 -757 606 -731C629 -685 570 -528 461 -385C444 -364 457 -356 474 -371C505 -397 539 -436 571 -480C579 -477 590 -476 599 -475ZM318 -169C300 -175 281 -180 259 -184C238 -189 234 -194 241 -211C247 -223 252 -235 258 -247C287 -252 320 -260 354 -266C352 -237 339 -202 318 -169ZM340 -417C345 -464 349 -498 353 -524C376 -528 395 -532 402 -532C431 -533 435 -528 423 -480C410 -429 402 -421 387 -424C382 -425 367 -423 340 -417ZM238 -397C222 -394 205 -390 192 -388C184 -425 177 -456 168 -485C181 -487 200 -491 229 -499C232 -472 235 -439 238 -397ZM264 -507C282 -511 304 -516 317 -518C316 -489 313 -454 308 -411C296 -409 284 -406 269 -403C267 -448 265 -481 264 -507ZM206 -626C216 -607 221 -582 227 -526C196 -520 166 -515 143 -512C95 -522 86 -506 103 -490C119 -475 136 -441 161 -369C165 -356 178 -348 185 -349C192 -350 197 -354 197 -364C212 -367 229 -370 249 -373C250 -349 245 -317 230 -274C162 -264 102 -257 74 -256C51 -255 46 -242 69 -228C100 -209 112 -209 146 -219C163 -226 188 -232 218 -238C214 -229 211 -221 206 -211C195 -187 199 -175 227 -166C246 -160 268 -149 291 -135C256 -100 189 -66 103 -38C67 -26 68 -11 99 -16C211 -32 294 -74 330 -111C352 -96 370 -80 383 -67C420 -25 450 -42 427 -90C416 -114 395 -135 360 -153C390 -201 404 -237 412 -275C425 -276 437 -278 448 -279C492 -284 496 -293 469 -309C460 -315 446 -316 404 -308C364 -333 356 -329 355 -297C328 -291 301 -286 274 -281C286 -303 296 -321 300 -327C313 -342 308 -351 279 -379C297 -382 317 -385 338 -389C381 -397 389 -396 390 -390C395 -367 406 -367 424 -385C440 -403 451 -422 463 -451C475 -481 487 -498 497 -507C520 -526 519 -536 474 -562C454 -575 437 -576 412 -567C406 -565 386 -559 358 -553C362 -578 366 -594 371 -606C379 -623 374 -639 352 -653C401 -663 444 -675 459 -680C486 -691 485 -704 460 -713C434 -722 409 -721 367 -705C323 -687 211 -659 156 -654C125 -651 125 -645 147 -635C163 -626 177 -623 206 -626ZM316 -645C320 -626 321 -599 319 -544C301 -541 283 -537 264 -534C264 -560 265 -574 268 -584C274 -605 271 -615 245 -631C266 -636 291 -641 316 -645Z"/>
</svg>