<svg xmlns="http://www.w3.org/2000/svg" viewBox="0 -1000 1000 1000">
	<path fill="#000000" d="M963 -75C951 -87 945 -113 943 -156C941 -197 926 -198 919 -156C906 -77 889 -61 843 -57C764 -50 743 -64 737 -114C731 -165 738 -246 749 -260C760 -271 759 -276 720 -306C705 -318 698 -313 700 -297C702 -278 703 -261 701 -231C696 -163 695 -140 697 -112C702 -47 718 -15 780 -3C831 6 883 2 936 -20C977 -36 982 -58 963 -75ZM597 -302C600 -303 603 -304 607 -304C611 -291 610 -273 602 -248C568 -144 519 -74 433 1C415 17 418 33 440 19C536 -37 583 -96 642 -217C646 -227 661 -259 665 -265C675 -279 673 -285 632 -309C661 -314 710 -318 745 -318C757 -318 762 -315 768 -295C777 -261 793 -265 808 -294C817 -311 822 -329 823 -366C824 -384 825 -461 827 -565C828 -618 832 -639 840 -650C853 -669 849 -678 816 -695C774 -718 756 -716 733 -706C700 -690 642 -676 585 -664C544 -683 527 -665 542 -638C554 -619 560 -595 561 -557C564 -464 562 -408 558 -370C554 -335 555 -316 562 -295C568 -278 591 -280 597 -302ZM602 -542C602 -580 601 -614 601 -639C661 -650 709 -660 733 -668C754 -674 765 -670 769 -629C774 -581 773 -457 769 -398C765 -343 762 -340 752 -344C744 -349 682 -347 663 -343C642 -339 622 -335 600 -330C600 -351 601 -384 602 -419C639 -415 701 -424 733 -440C756 -451 756 -463 732 -469C716 -473 700 -473 691 -469C643 -451 622 -445 602 -444C602 -468 602 -491 602 -516C619 -514 646 -516 677 -524C685 -526 715 -536 729 -539C750 -544 751 -565 728 -571C715 -574 701 -574 686 -569C653 -556 626 -547 602 -542ZM308 -233C326 -239 337 -243 350 -247C374 -257 383 -253 381 -227C379 -211 377 -192 375 -175C369 -124 363 -107 355 -94C344 -76 341 -62 351 -43C365 -14 378 -11 394 -38C405 -57 425 -84 503 -163C530 -190 513 -200 488 -179C468 -164 436 -138 429 -133C407 -116 402 -119 407 -143C412 -169 420 -204 422 -219C423 -230 432 -252 443 -263C457 -274 455 -287 425 -303C402 -314 392 -312 376 -297C363 -283 350 -276 305 -262C249 -285 236 -273 257 -241C262 -233 260 -195 255 -172C238 -104 218 -73 160 -27C138 -9 144 -1 165 -9C245 -41 306 -113 308 -233ZM348 -590L351 -668C367 -664 387 -665 404 -669C453 -678 462 -681 477 -690C491 -698 491 -710 478 -716C464 -724 441 -722 403 -710C388 -705 368 -699 353 -698C354 -716 355 -726 358 -737C367 -761 358 -774 308 -783C275 -789 271 -782 286 -759C302 -731 304 -717 305 -580C247 -568 215 -562 195 -560C186 -566 173 -570 161 -573C138 -578 132 -570 150 -541C157 -527 168 -463 164 -382C157 -243 129 -109 64 -16C28 33 41 40 72 13C143 -47 188 -160 202 -300C217 -445 218 -503 213 -536C235 -537 259 -541 286 -548C297 -531 300 -509 301 -453C253 -431 242 -427 235 -424C222 -420 222 -414 232 -409C249 -401 258 -403 301 -418C303 -345 323 -327 392 -335C480 -345 491 -373 486 -384C480 -396 470 -422 469 -432C467 -446 458 -447 454 -432C444 -389 430 -377 383 -371C347 -366 339 -372 339 -433C378 -448 396 -455 402 -459C430 -476 429 -493 408 -497C396 -499 378 -492 340 -471C341 -484 342 -491 347 -501C355 -518 352 -527 309 -554C358 -567 403 -574 429 -577C446 -579 451 -572 429 -523C423 -509 431 -503 447 -515C493 -547 501 -553 519 -556C540 -560 545 -577 511 -602C476 -627 460 -628 432 -613C422 -607 405 -603 348 -590Z"/>
</svg>