<svg xmlns="http://www.w3.org/2000/svg" viewBox="0 -1000 1000 1000">
	<path fill="#000000" d="M221 -589C246 -583 272 -585 316 -593C280 -523 260 -489 242 -464C219 -459 194 -456 169 -454C122 -468 114 -461 125 -439C142 -407 139 -319 119 -168C113 -122 84 -44 60 -6C42 24 52 28 79 4C121 -33 147 -81 160 -160C176 -249 185 -370 182 -429C195 -428 212 -430 240 -434C245 -423 247 -410 247 -354C234 -351 222 -349 209 -348C193 -346 192 -334 203 -326C207 -322 227 -319 247 -320C247 -296 247 -273 246 -248C227 -244 215 -241 203 -239C190 -236 189 -230 202 -219C212 -213 222 -211 245 -213C240 -118 242 -85 249 -62C255 -39 262 -38 271 -61C276 -72 281 -103 282 -149C283 -175 283 -198 283 -218C306 -222 324 -227 341 -235C357 -242 353 -262 338 -265C331 -267 312 -265 284 -259C284 -285 285 -307 286 -324C305 -327 321 -332 334 -338C348 -344 345 -364 327 -368C321 -370 314 -369 288 -363C289 -370 289 -375 290 -377C299 -410 297 -419 271 -438C285 -440 298 -442 318 -445C347 -449 357 -445 360 -420C371 -319 371 -167 365 -104C361 -61 350 -57 312 -67C288 -73 281 -66 299 -51C320 -33 348 3 354 22C362 46 372 47 391 15C413 -23 419 -55 418 -113C417 -158 415 -219 411 -305C408 -397 413 -418 425 -432C437 -447 433 -455 392 -477C364 -492 358 -492 333 -483C325 -480 303 -475 276 -470C356 -564 372 -579 394 -589C422 -603 422 -612 385 -635C358 -651 344 -651 329 -641C305 -625 273 -614 239 -614C276 -665 286 -677 298 -692C315 -712 315 -719 269 -743C230 -762 220 -752 228 -729C234 -713 224 -684 197 -633C173 -587 147 -548 104 -500C86 -478 95 -468 114 -480C135 -495 184 -542 221 -589ZM951 -45C948 -54 938 -105 932 -150C927 -187 917 -182 912 -148C896 -38 879 -25 804 -21C743 -18 720 -36 713 -83C708 -111 712 -195 724 -237C734 -276 728 -285 686 -302C662 -312 653 -306 661 -286C670 -262 673 -233 671 -210C667 -168 666 -113 669 -78C676 10 709 35 802 35C845 35 897 24 924 11C959 -4 965 -12 951 -45ZM537 -346C533 -380 529 -412 525 -440C553 -439 574 -443 605 -454C623 -461 622 -479 601 -484C590 -487 571 -487 560 -482C539 -473 530 -469 521 -466C513 -513 505 -547 498 -565C612 -649 633 -661 654 -673C675 -683 677 -702 618 -730C584 -747 571 -741 575 -716C578 -695 540 -634 479 -574C420 -582 415 -567 434 -545C457 -521 474 -468 501 -311C506 -279 532 -282 538 -315C729 -345 744 -342 749 -332C762 -307 774 -304 789 -342C802 -372 811 -402 827 -495C830 -511 840 -543 852 -561C871 -589 865 -598 821 -620C788 -638 772 -637 754 -628C720 -613 703 -607 657 -596C640 -592 640 -583 651 -580C676 -572 686 -572 733 -580C765 -585 772 -577 772 -551C772 -537 771 -516 769 -496C755 -498 743 -499 728 -498C714 -497 683 -490 666 -485C649 -481 648 -467 660 -464C702 -452 715 -452 729 -457C737 -461 750 -464 766 -466C763 -441 759 -416 753 -395C747 -371 739 -366 722 -369C685 -375 666 -372 537 -346ZM619 -240C631 -250 626 -264 573 -289C557 -297 544 -290 550 -272C559 -249 549 -210 511 -134C494 -99 457 -45 417 -4C391 22 405 35 432 13C497 -37 538 -90 589 -188C604 -217 614 -235 619 -240Z"/>
</svg>