<svg xmlns="http://www.w3.org/2000/svg" viewBox="0 -1000 1000 1000">
	<path fill="#000000" d="M384 -330C366 -335 348 -334 314 -319C270 -299 242 -292 206 -286C178 -283 176 -274 202 -268C246 -259 284 -261 371 -291C412 -304 412 -320 384 -330ZM392 -443C374 -448 356 -447 320 -432C273 -412 249 -404 215 -400C186 -397 184 -387 210 -381C254 -372 292 -373 379 -403C422 -417 421 -434 392 -443ZM228 -149C262 -160 296 -168 316 -172C336 -176 343 -174 344 -160C345 -145 345 -122 341 -103C337 -87 321 -78 241 -51C235 -87 232 -114 228 -149ZM244 -22C298 -35 344 -46 393 -57C410 -61 412 -74 398 -86C385 -97 386 -102 391 -123C398 -149 402 -159 415 -170C430 -186 428 -193 396 -211C359 -233 347 -232 334 -223C310 -206 259 -187 215 -181C203 -189 193 -193 176 -197C149 -201 142 -188 155 -174C172 -157 178 -140 207 -4C218 44 236 49 242 18C245 8 245 -3 244 -22ZM434 -551C404 -560 382 -558 331 -546C193 -512 137 -507 85 -508C54 -509 51 -502 73 -485C120 -449 132 -450 158 -458C223 -481 334 -510 405 -522C457 -532 458 -542 434 -551ZM375 -636C373 -682 360 -696 275 -716C249 -722 240 -717 255 -695C281 -654 302 -634 336 -605C354 -590 376 -606 375 -636ZM537 -387C540 -441 544 -464 548 -481C554 -501 544 -512 506 -533C468 -553 454 -543 474 -507C484 -491 490 -449 490 -365C463 -352 441 -343 432 -341C402 -334 399 -315 427 -309C452 -303 468 -304 489 -318C487 -256 487 -169 493 -142C511 -56 551 -21 671 -3C714 3 760 -1 801 -10C937 -41 948 -63 936 -105C925 -140 920 -180 917 -239C915 -276 899 -270 893 -234C875 -113 863 -99 790 -79C736 -64 700 -60 657 -65C572 -75 548 -105 538 -150C531 -182 531 -232 535 -347C560 -361 591 -378 623 -395C617 -315 616 -238 618 -224C627 -168 645 -168 651 -207C657 -240 664 -340 665 -417C699 -435 730 -451 748 -462C768 -472 776 -471 774 -452C768 -403 760 -362 751 -334C741 -296 728 -290 704 -299C678 -309 669 -297 688 -274C704 -257 717 -237 722 -223C732 -198 745 -196 764 -221C782 -244 807 -310 817 -362C836 -455 840 -468 858 -487C869 -498 866 -508 830 -526C786 -547 776 -544 763 -524C754 -513 731 -496 665 -457C667 -559 678 -671 685 -687C698 -712 699 -732 651 -751C597 -773 588 -760 607 -729C614 -718 619 -689 623 -638C626 -583 627 -510 625 -435C595 -418 565 -402 537 -387Z"/>
</svg>