<svg xmlns="http://www.w3.org/2000/svg" viewBox="0 -1000 1000 1000">
	<path fill="#000000" d="M374 -346C356 -353 339 -351 304 -336C261 -316 233 -308 197 -303C168 -300 167 -291 193 -284C236 -274 274 -277 362 -307C403 -320 405 -334 374 -346ZM383 -459C365 -466 347 -465 310 -448C268 -430 247 -422 205 -416C177 -412 175 -404 200 -398C245 -388 283 -389 370 -419C412 -434 415 -449 383 -459ZM219 -166C253 -177 283 -184 306 -189C327 -192 334 -189 335 -176C336 -157 335 -135 332 -120C328 -100 313 -91 232 -67C226 -103 223 -131 219 -166ZM235 -39C288 -52 352 -66 384 -73C401 -77 403 -91 389 -102C377 -111 376 -119 382 -139C389 -166 393 -175 405 -187C421 -202 419 -209 387 -228C348 -250 339 -249 325 -239C301 -223 250 -203 205 -198C193 -205 184 -209 166 -213C139 -217 132 -204 146 -191C167 -169 171 -156 198 -21C207 28 227 33 233 2C235 -8 236 -18 235 -39ZM425 -568C395 -577 372 -575 322 -562C184 -528 124 -521 76 -524C52 -526 45 -515 63 -502C109 -468 123 -467 149 -475C214 -498 325 -526 396 -539C447 -548 448 -558 425 -568ZM366 -652C364 -701 349 -713 266 -732C239 -739 231 -733 246 -712C271 -671 293 -649 327 -621C344 -607 367 -618 366 -652ZM597 -487C594 -420 592 -360 591 -306C564 -298 533 -289 498 -278C515 -345 508 -379 474 -399C455 -410 444 -401 454 -380C468 -347 464 -287 436 -263C424 -251 421 -244 438 -216C453 -194 464 -195 486 -214C496 -224 533 -241 591 -265C591 -209 593 -165 596 -135C608 -28 658 14 788 11C847 10 900 -7 932 -34C953 -53 954 -61 946 -76C938 -93 926 -142 923 -193C921 -219 908 -217 905 -197C887 -73 855 -51 765 -50C691 -49 653 -76 640 -157C636 -180 634 -226 634 -282C663 -294 695 -304 730 -316C725 -286 730 -259 736 -256C743 -251 765 -268 778 -307C803 -381 813 -408 829 -423C840 -435 837 -448 779 -471C748 -483 738 -472 746 -455C754 -438 752 -399 739 -348C709 -340 676 -332 635 -319C636 -375 639 -438 643 -499C713 -517 768 -537 802 -551C836 -566 832 -584 796 -587C765 -590 742 -585 695 -566C688 -564 669 -556 648 -549C657 -640 666 -690 673 -703C692 -733 684 -750 602 -777C579 -784 570 -773 584 -753C603 -727 606 -672 599 -535C561 -523 520 -513 491 -507C473 -504 467 -491 489 -483C509 -475 549 -477 597 -487Z"/>
</svg>