<svg xmlns="http://www.w3.org/2000/svg" viewBox="0 -1000 1000 1000">
	<path fill="#000000" d="M350 -370C332 -376 313 -375 280 -360C232 -338 207 -330 184 -327C155 -322 153 -314 180 -308C223 -299 250 -301 337 -331C375 -343 383 -361 350 -370ZM358 -483C340 -488 322 -487 286 -472C222 -444 214 -442 192 -440C163 -437 161 -428 187 -421C231 -412 258 -413 345 -443C387 -456 389 -474 358 -483ZM209 -191C239 -201 262 -208 282 -212C302 -216 308 -213 310 -200C313 -181 312 -162 307 -143C301 -120 296 -114 226 -91C219 -140 215 -162 209 -191ZM228 -63C300 -83 333 -91 359 -97C376 -101 375 -114 362 -126C352 -134 350 -139 357 -163C364 -188 368 -199 381 -210C396 -226 394 -233 362 -251C325 -273 316 -273 300 -263C266 -240 227 -226 190 -222C175 -231 164 -235 153 -237C126 -242 119 -228 132 -214C154 -193 164 -168 192 -44C202 4 221 9 227 -22C228 -29 229 -52 228 -63ZM407 -594C377 -604 355 -601 304 -587C167 -551 123 -544 70 -545C39 -545 38 -538 58 -522C104 -487 116 -487 145 -498C219 -524 315 -552 379 -566C431 -576 431 -586 407 -594ZM341 -676C339 -727 327 -739 250 -756C222 -763 215 -757 229 -736C253 -698 269 -681 310 -645C326 -631 342 -643 341 -676ZM715 -403C808 -454 833 -464 864 -472C890 -479 888 -499 853 -535C827 -561 811 -554 810 -526C809 -509 790 -484 716 -432C722 -588 732 -651 741 -675C752 -704 747 -712 707 -730C643 -760 628 -752 663 -697C668 -689 671 -658 672 -603C672 -588 671 -466 669 -248C668 -130 678 -95 719 -71C762 -46 823 -42 901 -68C943 -83 951 -102 934 -135C924 -152 917 -190 917 -239C917 -279 903 -281 893 -241C870 -138 863 -123 835 -115C796 -105 777 -104 743 -121C716 -133 710 -154 712 -247C713 -298 714 -376 715 -403ZM450 -133C424 -124 418 -122 403 -120C375 -115 371 -110 393 -94C429 -66 438 -66 454 -79C466 -90 480 -98 585 -157C680 -209 676 -232 577 -187V-399C599 -398 619 -400 633 -407C665 -420 668 -438 641 -447C627 -451 614 -450 577 -431C577 -537 581 -561 591 -580C600 -600 595 -615 553 -631C499 -652 489 -638 520 -590C536 -566 542 -456 539 -170C522 -163 505 -156 484 -146C478 -252 482 -313 489 -329C496 -348 493 -355 455 -376C417 -397 404 -383 431 -343C440 -330 445 -280 450 -133Z"/>
</svg>