<svg xmlns="http://www.w3.org/2000/svg" viewBox="0 -1000 1000 1000">
	<path fill="#000000" d="M432 -491C442 -512 439 -519 398 -553C379 -568 367 -567 371 -543C373 -528 373 -509 371 -486L285 -468C333 -666 347 -711 353 -720C364 -736 363 -748 352 -759C337 -774 316 -786 294 -793C262 -803 251 -793 264 -770C284 -730 271 -592 244 -458C110 -428 80 -424 50 -427C23 -430 18 -409 44 -385C67 -365 81 -366 106 -376C125 -384 182 -406 237 -422C232 -394 225 -367 219 -341C211 -306 213 -300 234 -286C252 -273 272 -257 291 -239C260 -186 204 -133 156 -90C119 -60 130 -52 165 -70C223 -103 275 -149 317 -212C332 -196 347 -181 361 -166C381 -144 405 -143 407 -174C409 -193 397 -214 341 -253C367 -299 399 -379 413 -429C421 -458 428 -483 432 -491ZM893 -670C910 -681 910 -697 860 -723C816 -747 802 -743 781 -731C756 -717 661 -690 578 -686C517 -719 509 -711 520 -682C532 -651 527 -482 486 -330C441 -170 385 -79 309 6C271 50 275 67 334 17C412 -50 468 -128 507 -252C536 -345 557 -423 568 -502C603 -494 631 -495 669 -503C709 -511 777 -522 803 -523C848 -524 854 -542 839 -557C827 -568 823 -582 853 -628C867 -648 875 -659 893 -670ZM878 -365C896 -390 886 -397 850 -415C810 -436 800 -433 782 -426C752 -415 689 -399 613 -392C570 -410 563 -402 575 -377C590 -345 587 -200 566 -96C559 -63 558 -52 570 -9C578 17 602 21 608 -45C634 -45 661 -47 686 -50C776 -59 785 -55 792 -35C797 -22 805 8 810 26C820 65 835 66 860 16C879 -25 885 -53 874 -183C863 -320 868 -350 878 -365ZM803 -664C788 -570 784 -563 762 -557C740 -552 719 -547 697 -542C702 -579 707 -619 712 -634C717 -653 715 -659 695 -674C717 -679 741 -684 768 -690C804 -698 808 -693 803 -664ZM666 -537C634 -531 603 -527 571 -525C577 -568 580 -613 581 -660C606 -661 632 -664 662 -668C671 -651 672 -616 666 -537ZM367 -460C359 -407 338 -342 309 -274C296 -284 280 -294 262 -304C251 -311 249 -318 254 -337C263 -372 270 -404 277 -433ZM818 -106C814 -50 807 -58 791 -78C774 -99 764 -99 610 -70C613 -103 616 -136 618 -170C652 -166 682 -168 756 -178C793 -182 791 -198 763 -210C751 -214 735 -213 709 -207C680 -200 650 -195 619 -191C621 -215 622 -242 623 -267C664 -266 701 -269 752 -278C789 -285 790 -297 762 -309C750 -313 734 -313 708 -305C681 -298 652 -293 624 -289C625 -316 626 -344 627 -372C652 -372 674 -376 713 -382C797 -397 807 -391 811 -347C821 -237 822 -165 818 -106Z"/>
</svg>