<svg xmlns="http://www.w3.org/2000/svg" viewBox="0 -1000 1000 1000">
	<path fill="#000000" d="M826 -662C801 -677 775 -673 728 -659C731 -696 733 -715 736 -724C745 -759 744 -765 726 -776C713 -784 693 -792 677 -797C647 -806 634 -796 663 -761C673 -748 679 -719 678 -646C630 -635 583 -628 526 -621C525 -647 525 -665 526 -672C530 -702 528 -709 513 -716C503 -721 487 -726 471 -729C447 -734 439 -723 462 -698C473 -685 480 -661 485 -616C458 -613 437 -612 423 -612C387 -612 385 -600 406 -589C419 -582 454 -581 488 -584C492 -529 495 -481 499 -414C501 -381 513 -370 522 -370C529 -370 536 -379 538 -393C561 -394 583 -396 609 -401C635 -406 658 -400 665 -388C678 -365 689 -365 702 -395C712 -418 716 -462 717 -488C720 -541 722 -583 724 -616C748 -618 773 -621 797 -623C849 -628 844 -651 826 -662ZM394 -478C402 -505 398 -513 365 -534C344 -548 329 -545 334 -518C337 -505 337 -486 334 -465L248 -445C274 -594 286 -659 290 -667C299 -687 294 -703 283 -713C268 -726 255 -732 233 -742C207 -753 194 -743 213 -715C229 -692 227 -568 211 -437C122 -418 83 -410 74 -411C25 -416 16 -397 44 -376C73 -355 83 -355 114 -368C130 -375 158 -385 206 -399C202 -369 197 -340 192 -311C186 -281 188 -272 214 -255C222 -250 235 -236 249 -216C215 -171 155 -117 108 -85C83 -67 83 -56 111 -65C155 -79 223 -122 273 -186C290 -163 306 -138 319 -116C341 -80 365 -88 365 -121C365 -151 346 -184 299 -225C335 -282 356 -334 376 -415C381 -437 388 -457 394 -478ZM955 -58C984 -62 981 -76 948 -86C804 -132 771 -149 633 -283C698 -289 771 -292 838 -289C903 -286 902 -311 872 -331C854 -344 808 -346 777 -338C743 -329 686 -319 624 -309C625 -318 625 -323 626 -325C636 -352 633 -359 591 -369C574 -373 566 -361 577 -342C580 -338 582 -330 583 -303C508 -293 436 -285 412 -285C358 -285 352 -274 386 -255C404 -245 419 -244 461 -256C483 -263 516 -269 554 -274C510 -192 442 -119 343 -46C323 -31 318 -13 346 -25C448 -70 529 -140 585 -245C585 -226 585 -204 585 -177C585 -134 579 -72 575 -59C565 -27 567 -12 579 23C591 58 615 61 626 20C629 10 632 -23 631 -47C630 -74 629 -111 627 -150C625 -195 624 -235 624 -263C660 -216 702 -164 751 -102C790 -55 799 -51 864 -51C891 -51 918 -53 955 -58ZM677 -610C676 -577 674 -537 671 -487C667 -423 665 -421 644 -430C637 -435 621 -431 538 -413C536 -442 534 -470 532 -497C558 -491 587 -493 631 -504C662 -512 652 -529 626 -533C608 -537 597 -533 531 -512C530 -540 528 -567 527 -589C572 -598 623 -604 677 -610ZM330 -435C320 -374 297 -300 270 -250C261 -257 249 -265 238 -273C223 -283 221 -287 225 -311C231 -347 236 -379 241 -409Z"/>
</svg>