<svg xmlns="http://www.w3.org/2000/svg" viewBox="0 -1000 1000 1000">
	<path fill="#000000" d="M379 -347C362 -352 343 -351 309 -337C266 -316 238 -309 202 -304C173 -301 171 -292 198 -285C241 -276 280 -278 367 -308C409 -322 408 -338 379 -347ZM388 -461C369 -467 352 -465 316 -449C266 -428 245 -421 211 -417C182 -414 180 -404 205 -399C253 -388 298 -394 375 -420C417 -435 419 -451 388 -461ZM224 -167C247 -174 279 -182 312 -190C334 -195 340 -192 340 -177C340 -148 339 -134 337 -121C335 -106 323 -98 237 -68C231 -104 228 -132 224 -167ZM239 -39C322 -59 342 -64 389 -74C406 -78 408 -92 394 -103C384 -111 382 -120 387 -140C394 -167 398 -176 410 -188C426 -203 424 -210 392 -229C356 -249 343 -249 330 -240C302 -222 249 -203 209 -199C195 -206 179 -214 171 -214C145 -214 137 -205 151 -192C168 -174 172 -162 203 -22C215 31 233 30 238 1C239 -6 239 -14 239 -39ZM420 -569C390 -578 367 -576 317 -564C179 -530 133 -524 81 -525C52 -526 46 -520 68 -503C112 -470 124 -466 154 -476C219 -499 320 -527 391 -540C442 -549 443 -559 420 -569ZM365 -653C363 -705 344 -718 267 -736C239 -743 230 -734 245 -713C270 -672 292 -651 326 -622C343 -608 366 -623 365 -653ZM597 -173C624 -178 638 -182 676 -194C701 -201 702 -210 692 -224C683 -234 682 -251 700 -271C718 -293 716 -303 682 -318C653 -332 647 -331 632 -321C613 -310 594 -303 573 -299C529 -311 521 -303 534 -277C545 -255 555 -229 560 -200C571 -142 588 -138 597 -173ZM583 -278C635 -292 648 -283 649 -264C651 -231 651 -223 640 -217C628 -211 610 -206 595 -203C588 -241 585 -257 583 -278ZM782 -211C820 -219 847 -224 868 -229C898 -236 901 -248 886 -260C873 -270 884 -300 904 -316C922 -332 923 -345 897 -361C859 -382 847 -382 825 -369C802 -354 783 -349 754 -344C710 -358 701 -346 725 -307C730 -298 739 -266 744 -238C754 -182 775 -180 782 -211ZM766 -320C825 -333 839 -330 841 -308C844 -274 837 -259 821 -252C800 -244 793 -242 780 -240C772 -285 768 -306 766 -320ZM646 -409C694 -413 731 -418 762 -423C789 -429 795 -441 783 -456C777 -465 775 -473 783 -487C790 -500 804 -517 811 -522C830 -536 829 -548 788 -572C762 -587 744 -586 716 -574C687 -561 646 -549 611 -544C558 -555 549 -538 573 -510C587 -495 595 -472 605 -427C613 -393 622 -383 630 -381C639 -378 647 -384 646 -409ZM628 -519C676 -528 685 -531 718 -538C736 -542 743 -533 740 -495C737 -458 733 -454 704 -446C684 -441 666 -437 643 -432C638 -465 635 -483 628 -519ZM488 -634C433 -653 426 -644 446 -603C457 -581 466 -502 465 -362C464 -129 465 -98 438 -72C431 -65 431 -58 442 -26C452 -1 466 -2 497 -21C542 -50 688 -66 863 -61C940 -59 944 -81 920 -100C887 -127 854 -126 781 -112C725 -102 677 -95 501 -71C506 -245 507 -362 505 -607C542 -609 588 -614 672 -627C727 -636 786 -645 822 -652C864 -660 866 -678 843 -688C809 -704 760 -702 694 -676C651 -659 548 -639 488 -634Z"/>
</svg>