<svg xmlns="http://www.w3.org/2000/svg" viewBox="0 -1000 1000 1000">
	<path fill="#000000" d="M349 -370C329 -376 313 -374 279 -360C235 -339 207 -332 171 -327C143 -324 141 -314 167 -308C211 -299 249 -301 336 -331C377 -344 378 -361 349 -370ZM357 -483C337 -489 321 -487 285 -472C241 -453 218 -445 180 -440C151 -437 149 -428 175 -421C219 -412 259 -414 344 -443C386 -456 388 -474 357 -483ZM196 -191C220 -198 249 -205 281 -212C301 -216 308 -212 309 -200C310 -184 309 -158 306 -143C303 -128 291 -118 214 -91C206 -136 201 -164 196 -191ZM216 -62C295 -83 324 -90 358 -97C375 -101 377 -114 363 -126C352 -135 350 -140 356 -163C363 -189 367 -199 379 -210C395 -226 393 -233 361 -251C326 -272 312 -271 299 -263C275 -246 223 -226 178 -222C161 -231 157 -233 141 -237C114 -241 107 -228 120 -214C142 -193 152 -168 180 -44C190 4 211 9 215 -22C216 -30 216 -35 216 -62ZM398 -594C368 -604 345 -601 295 -587C158 -551 110 -544 59 -545C27 -545 25 -539 47 -522C92 -488 106 -487 133 -498C198 -521 299 -551 370 -566C422 -576 422 -586 398 -594ZM340 -676C338 -727 318 -739 240 -756C213 -763 205 -757 220 -736C240 -704 258 -682 301 -645C319 -630 341 -646 340 -676ZM606 -521C614 -530 625 -540 636 -550C645 -558 645 -570 619 -587C598 -602 581 -598 583 -584C585 -575 583 -565 575 -547C564 -522 544 -498 525 -478C505 -459 509 -452 534 -464C548 -470 560 -477 589 -505C605 -498 626 -495 649 -498C662 -500 664 -497 657 -482C649 -469 641 -455 632 -441C616 -448 598 -455 576 -463C551 -471 548 -463 566 -448C581 -436 596 -424 610 -412C587 -382 559 -354 531 -335C509 -319 513 -308 537 -319C576 -338 611 -363 637 -388C654 -374 673 -359 691 -342C710 -325 717 -335 713 -358C708 -384 695 -404 667 -422C679 -437 693 -455 701 -470C705 -477 717 -490 729 -497C738 -502 738 -511 717 -528C698 -545 687 -546 673 -537C659 -527 626 -521 606 -521ZM493 -589C549 -598 663 -612 712 -618C761 -624 768 -620 771 -586C774 -550 773 -411 766 -356C759 -297 753 -294 739 -302C707 -320 662 -317 581 -297C555 -291 522 -285 497 -284C499 -360 498 -416 493 -589ZM515 -620C500 -618 486 -617 474 -616C434 -635 420 -620 431 -599C441 -579 448 -548 451 -484C453 -411 453 -360 452 -337C450 -289 452 -271 459 -255C469 -230 484 -230 493 -258C546 -263 599 -267 706 -279C726 -281 741 -274 748 -255C755 -234 773 -234 785 -250C799 -269 807 -289 813 -330C821 -386 829 -466 829 -501C829 -553 832 -584 844 -601C859 -621 857 -630 818 -650C776 -672 759 -672 747 -665C735 -658 649 -639 549 -624C628 -705 644 -721 674 -738C705 -755 707 -768 652 -786C594 -805 590 -796 596 -777C605 -751 559 -672 515 -620ZM873 -31C838 -54 797 -102 772 -150C764 -167 753 -167 759 -148C765 -119 772 -88 779 -61C786 -37 785 -34 772 -33C670 -22 625 -33 584 -66C546 -97 526 -132 509 -196C504 -214 487 -214 490 -192C498 -95 545 -20 609 7C687 40 815 42 872 9C891 -2 892 -18 873 -31ZM444 -191C436 -209 428 -210 425 -193C417 -146 402 -108 383 -86C371 -72 368 -55 374 -30C383 4 397 8 421 -29C447 -70 463 -150 444 -191ZM941 -139C934 -192 910 -210 814 -226C784 -231 783 -225 805 -205C860 -155 877 -142 904 -124C931 -105 944 -115 941 -139ZM688 -148C686 -186 663 -213 600 -224C581 -227 578 -223 590 -203C602 -181 625 -150 649 -136C673 -123 691 -128 688 -148Z"/>
</svg>