<svg xmlns="http://www.w3.org/2000/svg" viewBox="0 -1000 1000 1000">
	<path fill="#000000" d="M412 -57C435 -70 430 -83 394 -97C362 -109 357 -105 351 -93C337 -66 263 -4 151 47C134 56 138 70 159 66C240 48 268 37 412 -57ZM682 32C682 -21 643 -54 519 -101C482 -114 479 -109 503 -85C561 -26 627 33 661 54C674 63 682 60 682 32ZM437 -651C438 -633 438 -611 438 -587C372 -485 253 -399 81 -303C67 -296 70 -286 94 -294C225 -335 358 -416 437 -518C433 -438 435 -424 452 -401C455 -397 460 -397 465 -409C475 -439 477 -449 475 -527C581 -455 627 -425 718 -367C740 -352 759 -349 922 -380C948 -385 946 -400 912 -404C756 -421 705 -435 536 -523C557 -533 578 -548 595 -564C609 -552 633 -539 687 -515C714 -504 727 -512 724 -523C712 -561 703 -568 605 -574C636 -614 644 -623 654 -630C671 -642 669 -651 642 -661C603 -676 597 -671 599 -656C604 -635 578 -585 523 -531C507 -538 492 -547 475 -556C475 -584 477 -622 479 -658C534 -668 571 -675 605 -683C650 -694 650 -708 635 -716C615 -726 576 -725 484 -704C486 -725 488 -743 490 -754C496 -785 494 -794 446 -807C406 -817 401 -807 416 -788C428 -773 434 -746 436 -692C391 -681 328 -669 284 -662C266 -660 265 -651 288 -644C310 -637 365 -639 437 -651ZM265 -528C279 -515 299 -498 318 -484C331 -475 342 -481 341 -501C340 -526 329 -533 279 -541C294 -555 309 -567 321 -574C343 -588 343 -601 298 -624C276 -636 269 -631 271 -617C274 -592 193 -499 147 -470C119 -452 124 -440 156 -452C196 -469 226 -491 265 -528ZM314 -123C368 -121 465 -126 546 -137C577 -141 584 -137 591 -126C600 -110 603 -106 609 -98C612 -94 617 -93 632 -109C641 -121 644 -169 640 -249C637 -310 636 -337 640 -344C652 -367 650 -378 617 -398C590 -414 575 -416 550 -410C496 -396 382 -381 315 -377C283 -386 275 -376 282 -368C288 -360 292 -328 289 -279C285 -216 280 -178 273 -156C267 -134 271 -113 285 -94C290 -87 302 -90 314 -123ZM333 -300C334 -315 333 -332 333 -350C398 -363 514 -374 544 -372C567 -371 574 -365 581 -315C588 -271 588 -235 583 -180C582 -162 577 -160 563 -165C553 -169 518 -174 472 -165C453 -161 374 -154 322 -150C325 -165 328 -182 329 -202C409 -198 476 -205 523 -221C541 -227 542 -242 530 -246C514 -251 489 -249 474 -245C436 -235 388 -228 331 -226C332 -241 333 -258 333 -275C385 -277 450 -281 507 -294C535 -301 539 -318 525 -322C507 -329 490 -328 464 -319C428 -312 367 -303 333 -300Z"/>
</svg>