<svg xmlns="http://www.w3.org/2000/svg" viewBox="0 -1000 1000 1000">
	<path fill="#000000" d="M176 -262C202 -261 223 -264 293 -277C314 -280 324 -276 329 -260C339 -229 356 -224 367 -249C373 -265 383 -307 384 -353C388 -615 392 -637 402 -654C417 -678 416 -692 399 -699C341 -726 332 -726 318 -719C267 -694 220 -681 176 -674C120 -697 104 -685 123 -659C131 -648 139 -618 141 -575C144 -449 141 -385 133 -327C128 -290 131 -266 146 -242C156 -226 166 -228 176 -262ZM184 -395C227 -396 252 -402 293 -417C312 -423 309 -436 290 -442C272 -446 255 -444 240 -439C218 -430 200 -423 184 -419C185 -448 186 -486 186 -514C233 -514 256 -520 297 -542C310 -548 310 -560 295 -564C278 -567 254 -565 245 -560C222 -552 206 -547 186 -541C186 -574 186 -616 186 -645C222 -651 245 -657 307 -674C327 -679 335 -674 335 -636C336 -543 335 -458 331 -365C329 -304 322 -301 315 -308C308 -314 270 -307 179 -284C181 -316 183 -361 184 -395ZM233 -176C250 -187 247 -199 212 -218C177 -238 166 -234 165 -217C164 -197 156 -180 137 -153C95 -90 74 -68 39 -41C26 -32 31 -22 43 -27C101 -55 118 -70 177 -127C209 -158 222 -169 233 -176ZM405 -88C409 -141 389 -173 297 -211C280 -218 274 -213 286 -195C309 -156 323 -134 369 -67C381 -51 403 -57 405 -88ZM600 -146C597 -180 591 -188 533 -212C509 -223 501 -219 508 -201C523 -163 542 -138 559 -122C577 -103 603 -112 600 -146ZM742 -311C743 -316 744 -321 745 -326C752 -350 743 -358 710 -366C662 -378 654 -365 676 -342C681 -337 686 -325 690 -302C579 -284 447 -267 413 -267C373 -267 373 -255 402 -241C426 -230 445 -228 479 -236C559 -253 651 -270 694 -275C699 -228 699 -153 692 -73C688 -39 674 -30 597 -50C576 -55 569 -44 585 -33C635 0 659 25 669 50C677 71 699 75 714 51C749 -2 756 -34 748 -157C744 -217 742 -256 741 -280C790 -284 872 -286 915 -284C970 -282 974 -299 945 -318C909 -343 888 -344 833 -330C812 -325 780 -318 742 -311ZM592 -642C593 -619 594 -599 594 -578C551 -569 506 -559 463 -552C418 -570 400 -558 417 -537C435 -513 450 -453 442 -382C440 -364 443 -355 456 -341C475 -318 489 -327 491 -354C495 -416 493 -476 485 -525C524 -534 562 -542 595 -548C595 -530 595 -512 595 -495C565 -486 549 -482 532 -479C505 -474 508 -464 530 -461C544 -458 568 -459 594 -463C594 -445 594 -431 594 -418C556 -407 543 -405 530 -403C503 -400 506 -387 528 -384C543 -382 567 -383 594 -386C595 -370 595 -363 596 -356C604 -301 617 -302 625 -338C628 -351 630 -371 632 -393C653 -397 675 -402 698 -407C727 -414 726 -430 699 -437C684 -441 661 -439 635 -432C636 -444 636 -452 637 -470C658 -474 678 -479 696 -484C724 -492 729 -506 701 -513C685 -517 667 -515 637 -507C637 -523 637 -540 637 -556C679 -565 711 -571 727 -573C757 -578 763 -575 763 -559C762 -521 750 -459 740 -431C733 -408 735 -392 743 -376C754 -354 768 -356 778 -378C793 -410 801 -433 807 -462C818 -516 825 -541 842 -559C857 -578 855 -586 806 -613C778 -628 765 -629 743 -617C734 -612 701 -602 637 -587C637 -610 637 -623 638 -650C675 -657 702 -664 746 -681C773 -691 768 -708 745 -711C721 -714 696 -711 639 -693C640 -732 642 -745 646 -754C654 -775 644 -784 598 -795C557 -806 546 -794 569 -770C581 -756 587 -739 590 -678C558 -668 528 -661 495 -656C469 -652 468 -645 493 -640C515 -635 548 -636 592 -642ZM880 -708C873 -740 843 -758 787 -759C756 -760 754 -756 777 -730C805 -699 820 -688 843 -678C871 -665 886 -682 880 -708Z"/>
</svg>