<svg xmlns="http://www.w3.org/2000/svg" viewBox="0 -1000 1000 1000">
	<path fill="#000000" d="M201 -238C214 -265 222 -280 229 -291C247 -313 247 -326 212 -345C177 -365 164 -358 170 -338C176 -322 170 -297 152 -248C125 -180 94 -126 33 -64C18 -49 23 -41 43 -51C96 -76 156 -143 189 -210C240 -184 300 -153 344 -129C431 -83 509 -43 613 3C698 40 719 41 925 -18C966 -29 962 -44 922 -43C700 -37 603 -59 319 -182L325 -298C348 -292 375 -293 406 -302C450 -314 448 -344 399 -342C372 -341 353 -336 327 -325C329 -351 330 -359 336 -371C347 -393 344 -403 321 -420C358 -429 398 -437 437 -443C460 -447 461 -463 437 -471C423 -476 368 -471 318 -458L321 -541C337 -546 354 -550 372 -556C412 -570 411 -583 387 -591C377 -594 349 -594 323 -590C327 -646 330 -672 336 -685C348 -712 341 -727 300 -742C249 -759 234 -747 260 -719C272 -706 279 -662 278 -577C247 -568 217 -560 187 -555C157 -550 156 -539 187 -528C202 -523 227 -523 276 -532L274 -447C200 -431 117 -417 80 -416C50 -415 47 -404 73 -386C103 -366 115 -365 154 -378C175 -385 221 -398 280 -411C286 -381 286 -320 281 -200C255 -211 228 -225 201 -238ZM569 -394C561 -421 557 -435 550 -455C571 -454 589 -456 629 -462C654 -465 681 -471 699 -477C720 -484 721 -496 701 -504C693 -507 657 -505 635 -498C603 -487 572 -479 544 -475C539 -493 534 -510 528 -527C546 -528 566 -531 580 -533C645 -544 717 -554 748 -557C768 -559 772 -550 767 -519C764 -501 751 -458 740 -432C734 -416 720 -414 706 -419C700 -421 677 -418 569 -394ZM492 -548C455 -559 445 -542 464 -523C479 -508 528 -417 538 -376C540 -367 550 -361 560 -363C567 -364 571 -367 572 -373C583 -373 604 -374 611 -375C617 -364 621 -345 623 -297C553 -287 487 -281 452 -281C423 -281 420 -271 435 -263C474 -241 489 -237 525 -246C551 -253 589 -261 624 -264C625 -241 625 -215 624 -195C621 -133 623 -105 631 -79C636 -63 645 -62 653 -83C670 -125 675 -171 675 -269C753 -274 816 -275 845 -272C904 -267 914 -283 887 -303C859 -324 816 -329 770 -319C741 -314 725 -311 676 -304C676 -313 677 -318 681 -330C686 -344 684 -355 645 -381C705 -395 721 -397 736 -388C747 -381 757 -381 767 -394C778 -408 793 -434 804 -462C821 -506 835 -527 852 -542C872 -557 871 -566 827 -591C791 -612 784 -612 749 -600C730 -592 703 -585 660 -576L664 -651C720 -648 755 -651 788 -661C821 -672 825 -681 808 -694C790 -708 770 -709 743 -699C719 -691 701 -686 666 -679C668 -702 669 -710 673 -724C678 -743 674 -752 616 -770C582 -780 573 -768 585 -750C607 -717 619 -667 619 -568C547 -553 514 -549 492 -548Z"/>
</svg>