<svg xmlns="http://www.w3.org/2000/svg" viewBox="0 -1000 1000 1000">
	<path fill="#000000" d="M437 -654C454 -669 455 -682 406 -709C363 -733 351 -733 331 -720C308 -704 271 -686 214 -680C152 -698 147 -681 162 -660C173 -644 209 -538 215 -516C226 -475 231 -470 238 -471C245 -472 251 -483 252 -494C255 -495 258 -495 262 -496C280 -469 289 -416 286 -215C260 -206 231 -199 202 -191C199 -273 197 -325 198 -345C200 -379 194 -387 140 -404C122 -409 109 -403 125 -378C154 -332 158 -320 166 -181C128 -172 98 -165 91 -167C43 -172 38 -161 70 -131C102 -100 120 -97 138 -109C178 -133 278 -178 403 -228C423 -237 428 -244 425 -248C420 -256 414 -256 324 -226L328 -356C348 -350 375 -353 411 -367C432 -374 442 -386 426 -397C409 -410 395 -408 329 -383C330 -410 332 -435 334 -447C339 -468 335 -476 294 -502C323 -508 356 -514 384 -520C416 -527 413 -534 393 -549C387 -553 388 -562 396 -580C416 -627 426 -644 437 -654ZM865 -296C893 -318 894 -332 834 -366C789 -391 780 -390 750 -372C719 -353 623 -325 547 -314C570 -354 594 -399 619 -446C648 -500 658 -519 662 -527C674 -547 672 -553 640 -580C716 -593 802 -611 836 -620C883 -635 889 -647 861 -667C835 -685 823 -685 763 -665C682 -639 553 -605 513 -601C449 -594 450 -579 503 -571C513 -569 557 -571 596 -575C592 -527 554 -422 532 -374C525 -359 516 -342 506 -325C479 -336 473 -322 487 -290C434 -200 362 -102 299 -47C257 -10 262 3 309 -25C386 -69 446 -144 507 -245C520 -209 528 -163 535 -119C547 -46 569 -35 579 -52C582 -58 586 -71 584 -100C644 -104 691 -111 814 -132C849 -138 843 -159 824 -165C797 -174 795 -177 828 -246C834 -259 861 -293 865 -296ZM354 -656C351 -577 342 -550 325 -543C305 -536 274 -528 249 -523C243 -562 231 -622 223 -657C247 -655 274 -660 300 -668C348 -684 355 -680 354 -656ZM762 -248C744 -174 743 -170 715 -159C683 -148 648 -140 580 -131C575 -171 557 -256 549 -291C575 -288 588 -290 637 -303C706 -321 729 -325 744 -326C774 -328 777 -312 762 -248Z"/>
</svg>