<svg xmlns="http://www.w3.org/2000/svg" viewBox="0 -1000 1000 1000">
	<path fill="#000000" d="M591 -646C632 -595 685 -535 733 -483C791 -420 799 -416 956 -429C993 -432 995 -450 961 -456C846 -479 760 -524 605 -673C618 -696 630 -711 647 -731C657 -743 654 -753 612 -778C572 -801 554 -794 564 -764C569 -749 565 -718 542 -672C484 -552 440 -495 360 -427C337 -407 345 -389 374 -408C469 -468 530 -535 591 -646ZM773 -207C785 -212 787 -224 750 -263C724 -292 706 -289 706 -265C706 -243 693 -222 657 -187C560 -92 446 -32 341 6C322 13 323 30 349 26C441 11 598 -58 695 -146C746 -193 756 -200 773 -207ZM701 -317C718 -327 720 -340 695 -373C673 -400 653 -396 654 -374C656 -355 646 -341 610 -306C568 -265 510 -225 457 -197C431 -184 435 -166 462 -175C502 -189 597 -237 653 -282C685 -308 695 -314 701 -317ZM659 -461C668 -465 668 -474 635 -499C606 -520 590 -514 593 -499C596 -483 589 -467 570 -443C535 -403 493 -368 450 -339C427 -325 433 -309 466 -322C515 -343 574 -381 617 -425C643 -452 649 -456 659 -461ZM221 -520C218 -567 212 -607 203 -637C217 -637 238 -641 271 -653C313 -669 327 -664 327 -648C328 -583 320 -559 305 -546C299 -541 264 -530 221 -520ZM265 -196C239 -186 216 -177 195 -170C190 -244 188 -307 196 -331C203 -350 198 -359 135 -377C108 -385 94 -369 117 -349C137 -332 154 -266 160 -160C123 -149 97 -144 80 -144C49 -144 42 -131 81 -105C118 -80 130 -83 152 -97C184 -120 254 -157 381 -215C421 -234 417 -250 384 -240C352 -230 328 -221 304 -210L305 -336C328 -334 350 -337 389 -351C404 -356 403 -376 385 -380C367 -384 348 -381 305 -366C305 -422 307 -440 317 -458C325 -476 320 -488 272 -502C303 -507 333 -514 369 -524C389 -530 392 -539 376 -549C369 -554 365 -564 369 -577C384 -626 390 -638 410 -654C425 -667 425 -680 387 -701C351 -720 334 -719 322 -710C297 -690 235 -669 188 -662C124 -682 116 -668 134 -645C154 -621 167 -576 177 -523C182 -488 195 -474 203 -475C211 -476 217 -481 220 -492C227 -493 234 -495 241 -496C257 -471 260 -446 265 -196Z"/>
</svg>