<svg xmlns="http://www.w3.org/2000/svg" viewBox="0 -1000 1000 1000">
	<path fill="#000000" d="M886 -24C854 -52 829 -54 768 -44C646 -26 458 -15 370 -15C327 -15 324 -7 349 8C393 36 407 39 473 24C526 11 741 -3 822 8C910 20 917 2 886 -24ZM518 -106C671 -125 685 -124 692 -115C708 -95 725 -95 741 -128C759 -162 772 -192 780 -213C797 -259 806 -277 819 -289C841 -307 839 -316 779 -350C740 -372 734 -372 700 -360C673 -350 565 -330 472 -321C428 -342 413 -326 430 -298C456 -253 461 -238 480 -142C489 -103 494 -90 501 -90C510 -90 515 -94 518 -106ZM510 -207C547 -206 593 -210 649 -222C698 -231 700 -244 675 -255C658 -262 613 -256 508 -228C503 -253 498 -275 491 -298C531 -302 593 -309 639 -316C718 -329 736 -325 733 -294C729 -246 721 -206 705 -162C700 -149 692 -148 680 -154C664 -161 642 -159 518 -134C514 -163 513 -180 510 -207ZM554 -576C514 -502 464 -435 397 -378C374 -359 379 -347 402 -359C488 -401 569 -484 595 -572C595 -507 592 -457 585 -425C579 -393 585 -359 608 -358C625 -356 637 -396 635 -435C633 -469 633 -503 634 -561C678 -507 708 -475 771 -411C795 -386 809 -383 940 -402C962 -405 960 -417 937 -423C817 -454 776 -468 636 -592C656 -595 693 -600 791 -610C837 -615 842 -638 806 -650C778 -659 747 -656 684 -640C669 -636 652 -631 634 -627C636 -686 642 -727 657 -757C666 -777 663 -789 618 -807C566 -827 554 -817 572 -787C585 -764 593 -723 595 -619C539 -608 481 -600 434 -596C403 -594 401 -586 429 -576C460 -565 477 -561 554 -576ZM213 -487C207 -553 204 -574 196 -605C215 -607 238 -613 262 -619C304 -629 315 -633 315 -616C316 -551 309 -526 295 -513C289 -508 245 -495 213 -487ZM255 -193C226 -180 201 -171 181 -163C176 -237 176 -272 183 -292C190 -311 181 -324 119 -342C92 -350 79 -335 103 -314C123 -299 136 -255 145 -149C104 -136 80 -132 58 -132C22 -132 15 -120 57 -95C97 -71 113 -70 128 -83C159 -107 193 -126 342 -198C416 -233 409 -245 345 -227C329 -222 310 -215 294 -208L295 -315C315 -314 341 -320 376 -333C390 -338 388 -353 373 -359C356 -365 336 -361 295 -344C295 -378 298 -404 304 -419C313 -439 304 -445 253 -467C280 -471 309 -477 356 -487C375 -491 377 -505 361 -516C354 -521 349 -534 352 -542C368 -590 376 -607 396 -622C415 -637 410 -652 372 -673C336 -691 326 -690 307 -678C274 -656 226 -639 177 -630C119 -648 111 -636 131 -612C148 -593 162 -557 172 -490C178 -455 187 -441 195 -442C202 -443 210 -448 212 -459C216 -461 220 -461 224 -462C246 -434 251 -398 255 -193Z"/>
</svg>