<svg xmlns="http://www.w3.org/2000/svg" viewBox="0 -1000 1000 1000">
	<path fill="#000000" d="M823 -102C819 -144 813 -207 812 -249C810 -336 811 -372 818 -392C827 -415 823 -421 760 -443C739 -450 726 -439 742 -421C755 -407 759 -396 764 -324C770 -236 771 -153 764 -77C761 -41 749 -34 686 -53C673 -57 666 -44 678 -34C735 13 743 23 751 46C757 64 780 61 793 42C820 0 830 -40 823 -102ZM699 -244C698 -262 698 -312 699 -337C700 -351 693 -366 673 -375C650 -386 643 -380 649 -364C653 -352 658 -327 658 -301C658 -267 658 -246 657 -234C652 -190 653 -176 662 -162C668 -149 680 -150 686 -168C692 -181 701 -224 699 -244ZM690 -492C709 -498 711 -508 688 -520C677 -527 660 -528 617 -518C595 -513 563 -505 538 -499C519 -495 518 -487 530 -481C554 -469 566 -467 605 -473C636 -478 677 -487 690 -492ZM606 -678C663 -614 685 -590 784 -487C813 -457 827 -453 965 -466C987 -468 989 -487 966 -493C843 -524 780 -559 621 -707C629 -721 636 -730 642 -739C651 -750 643 -767 603 -787C562 -808 548 -795 561 -771C568 -756 562 -727 541 -671C511 -587 437 -471 371 -411C352 -393 364 -384 385 -399C466 -455 535 -538 606 -678ZM459 -379C430 -392 420 -388 425 -366C431 -340 435 -281 433 -265C421 -155 412 -122 400 -104C388 -86 388 -71 395 -38C402 -3 421 -2 441 -74C445 -88 450 -113 457 -172C485 -166 503 -168 522 -176C533 -180 534 -192 519 -200C507 -206 489 -205 459 -195C461 -215 463 -238 464 -260C490 -259 509 -261 522 -267C535 -273 534 -293 516 -294C502 -296 490 -294 466 -289C467 -310 468 -334 468 -355C479 -358 491 -360 505 -363C539 -370 551 -367 553 -348C559 -169 557 -149 553 -95C550 -63 541 -56 499 -72C480 -79 472 -65 489 -52C518 -29 528 -20 539 4C548 23 556 24 568 8C600 -33 606 -58 600 -129C598 -154 597 -192 598 -270C599 -335 601 -345 609 -352C622 -364 618 -379 592 -396C564 -412 558 -412 537 -403C514 -393 485 -383 459 -379ZM211 -510C209 -558 203 -595 194 -637C206 -637 224 -639 267 -648C308 -657 323 -652 321 -634C317 -588 313 -560 304 -540C284 -531 242 -517 211 -510ZM175 -661C117 -678 108 -661 126 -641C146 -618 162 -581 169 -534C177 -485 188 -462 197 -461C202 -461 209 -473 211 -485C219 -487 226 -488 233 -489C248 -467 253 -419 246 -184C225 -177 207 -171 192 -165C183 -251 182 -294 183 -315C185 -350 183 -360 121 -376C98 -382 88 -371 103 -353C123 -332 144 -265 157 -153C104 -134 91 -131 76 -130C32 -128 27 -116 59 -89C89 -63 106 -61 134 -80C192 -120 248 -147 347 -189C387 -205 392 -211 388 -217C383 -224 366 -225 289 -200V-337C308 -332 331 -335 366 -349C386 -358 387 -370 374 -376C357 -385 338 -381 289 -358C289 -402 291 -427 294 -442C300 -470 298 -481 271 -496C300 -501 329 -506 350 -510C374 -515 377 -527 351 -549C365 -586 384 -620 408 -648C422 -663 418 -677 378 -695C339 -714 323 -712 303 -698C271 -678 229 -664 175 -661Z"/>
</svg>