<svg xmlns="http://www.w3.org/2000/svg" viewBox="0 -1000 1000 1000">
	<path fill="#000000" d="M646 -318C621 -313 592 -307 563 -301V-349C589 -356 618 -363 646 -368ZM527 -412L528 -370C504 -365 482 -362 469 -360C436 -355 436 -341 461 -333C474 -329 500 -331 528 -341L529 -294C471 -282 417 -273 386 -268C363 -265 361 -251 383 -242C399 -235 417 -235 459 -247C474 -251 490 -256 504 -260C471 -207 384 -119 292 -60C276 -50 280 -37 301 -44C359 -63 469 -141 511 -198C516 -66 505 -46 480 -23C468 -11 467 -4 479 26C493 59 504 60 521 41C540 18 562 -2 660 -80C671 -90 677 -103 674 -106C671 -108 665 -107 649 -100C626 -88 580 -64 550 -45C551 -84 555 -156 557 -191C558 -198 554 -207 528 -224C539 -242 548 -255 556 -266C579 -241 607 -214 633 -187C673 -142 733 -85 776 -53C817 -22 825 -18 966 -42C985 -45 988 -62 965 -67C846 -91 767 -124 697 -179C738 -209 766 -228 782 -238C796 -246 794 -259 769 -274C737 -295 728 -293 724 -274C717 -248 703 -218 682 -192C617 -244 593 -265 575 -276C652 -293 736 -305 833 -314C869 -317 871 -338 842 -350C818 -361 794 -359 748 -343C738 -339 720 -335 679 -326L681 -375C700 -378 717 -381 733 -384C777 -393 780 -412 763 -420C750 -427 730 -424 683 -409L685 -449C719 -456 751 -463 771 -466C798 -470 807 -493 780 -502C770 -505 746 -502 688 -484C691 -491 692 -498 693 -502C695 -509 688 -516 666 -524C630 -538 619 -530 635 -506C641 -498 644 -484 645 -471C625 -464 595 -455 565 -449C565 -455 565 -461 565 -464C565 -476 560 -480 538 -486C513 -493 504 -481 511 -471C516 -465 521 -451 524 -439C500 -435 478 -431 462 -428C440 -427 441 -413 460 -406C469 -402 498 -404 527 -412ZM646 -440V-398C624 -392 594 -384 564 -377V-421C590 -428 618 -434 646 -440ZM468 -518C465 -535 460 -552 455 -567C481 -573 507 -578 524 -581C536 -583 543 -580 543 -570C543 -551 541 -545 537 -541C525 -534 493 -523 468 -518ZM433 -585C402 -592 398 -582 410 -566C420 -553 441 -512 447 -495C451 -486 458 -481 466 -483C470 -484 472 -489 471 -497C506 -504 541 -513 563 -519C584 -525 583 -534 573 -545C579 -557 585 -568 596 -579C609 -593 606 -602 573 -613C553 -620 544 -620 534 -614C518 -604 471 -591 433 -585ZM683 -562C680 -578 676 -594 671 -607C698 -613 726 -619 748 -623C757 -625 767 -622 767 -618C768 -599 763 -587 759 -582C743 -575 711 -568 683 -562ZM646 -625C624 -630 619 -619 630 -605C640 -590 661 -555 667 -538C670 -530 683 -528 685 -540C713 -544 752 -549 783 -553C805 -556 809 -567 793 -578C799 -587 806 -593 830 -613C843 -624 842 -634 812 -653C790 -667 780 -668 769 -661C756 -653 711 -639 646 -625ZM810 -732C789 -741 760 -739 728 -727C677 -710 513 -679 442 -670C419 -667 417 -656 439 -646C460 -637 472 -637 524 -650C555 -658 721 -686 807 -697C840 -702 842 -719 810 -732ZM668 -759C662 -781 645 -794 581 -798C561 -799 558 -790 570 -778C589 -758 615 -738 636 -729C660 -720 676 -732 668 -759ZM210 -520C206 -566 201 -608 194 -636C213 -638 236 -644 258 -651C301 -665 312 -662 312 -648C313 -583 306 -560 292 -547C287 -542 240 -527 210 -520ZM176 -661C123 -676 113 -662 129 -643C146 -623 159 -589 169 -521C175 -486 188 -472 195 -473C202 -474 207 -478 210 -490C216 -491 222 -491 228 -492C244 -469 250 -429 246 -211C221 -201 198 -193 180 -186C175 -260 175 -292 177 -325C179 -358 175 -364 119 -381C94 -388 87 -377 103 -355C121 -333 138 -266 145 -172C111 -161 86 -155 61 -150C32 -145 31 -133 58 -115C96 -91 108 -90 127 -105C152 -125 199 -152 324 -212C351 -226 367 -243 364 -248C360 -255 344 -252 280 -226L289 -360C315 -353 344 -360 394 -381C419 -392 415 -419 390 -417C368 -415 345 -406 291 -377C296 -432 298 -443 301 -450C310 -473 305 -481 257 -498C288 -504 320 -510 356 -518C374 -522 377 -537 360 -547C349 -553 345 -560 348 -567C363 -612 372 -634 390 -654C407 -675 406 -680 365 -702C328 -721 317 -719 298 -707C269 -687 214 -668 176 -661Z"/>
</svg>