<svg xmlns="http://www.w3.org/2000/svg" viewBox="0 -1000 1000 1000">
	<path fill="#000000" d="M249 -567C250 -541 250 -517 250 -496C227 -490 172 -478 142 -472C102 -487 87 -476 100 -453C119 -423 134 -386 148 -322C159 -268 172 -247 185 -248C194 -249 198 -257 197 -272C207 -274 229 -280 251 -286C251 -259 251 -231 250 -200C161 -177 107 -168 64 -168C38 -168 32 -152 61 -133C94 -111 102 -110 129 -123C154 -134 189 -145 249 -163C247 -101 244 -72 230 -21C224 4 224 17 238 44C256 76 278 73 283 42C291 -7 293 -49 290 -174C343 -187 358 -190 391 -197C416 -202 423 -225 407 -229C383 -236 365 -234 290 -210C289 -233 289 -263 289 -296C326 -306 341 -306 349 -295C354 -283 372 -281 382 -297C391 -312 397 -326 406 -373C421 -444 426 -464 434 -474C446 -489 443 -499 409 -520C377 -540 366 -539 353 -530C347 -525 335 -520 289 -507C289 -534 289 -556 290 -575C321 -581 356 -589 387 -599C415 -607 413 -620 384 -631C373 -637 347 -634 291 -618C293 -669 296 -689 306 -712C316 -731 309 -746 260 -762C218 -777 201 -765 224 -737C241 -713 247 -694 249 -605C211 -592 186 -587 153 -584C137 -583 134 -570 154 -565C183 -558 202 -558 249 -567ZM288 -419C289 -439 289 -461 289 -479C315 -486 333 -490 351 -492C370 -495 372 -492 371 -466C370 -425 367 -397 357 -348C354 -330 348 -326 338 -330C331 -333 321 -332 288 -324C289 -342 289 -363 288 -382C303 -386 319 -390 335 -397C362 -407 361 -417 335 -423C322 -427 305 -424 288 -419ZM251 -374C252 -353 252 -334 251 -314C234 -309 216 -304 193 -298C183 -353 181 -364 161 -448C191 -453 222 -461 250 -468C251 -446 251 -424 251 -405C227 -397 209 -393 194 -389C178 -386 180 -376 193 -372C209 -368 228 -370 251 -374ZM938 -77C927 -92 923 -120 921 -173C920 -208 905 -209 898 -175C879 -83 872 -72 821 -61C747 -44 692 -45 650 -55C600 -66 599 -101 631 -156C650 -189 687 -233 715 -258C739 -279 766 -297 783 -303C813 -313 813 -331 762 -358C739 -370 726 -368 703 -354C687 -345 605 -325 564 -326C530 -327 525 -313 540 -303C567 -284 578 -282 598 -289C612 -294 635 -299 680 -307C700 -310 702 -305 690 -294C653 -260 629 -229 611 -202C545 -105 544 -44 607 -15C651 7 785 25 906 -21C949 -37 952 -57 938 -77ZM708 -704C711 -750 670 -775 597 -776C575 -776 573 -771 589 -752C615 -718 646 -687 674 -677C697 -669 706 -681 708 -704ZM526 -585C464 -611 455 -600 469 -574C484 -549 487 -502 473 -352C461 -212 412 -99 356 -20C333 11 341 20 372 -8C463 -93 510 -212 530 -419C557 -419 612 -425 640 -432C660 -436 728 -448 746 -449C780 -450 785 -471 768 -481C761 -485 760 -491 766 -505C783 -541 797 -560 813 -572C842 -591 839 -605 780 -630C752 -643 741 -643 721 -630C701 -617 664 -605 613 -595C583 -590 553 -586 526 -585ZM533 -452C537 -499 539 -538 538 -555C564 -557 590 -560 611 -566C636 -572 681 -580 697 -582C720 -585 728 -580 722 -553C712 -499 707 -490 675 -481C622 -466 583 -457 533 -452Z"/>
</svg>