<svg xmlns="http://www.w3.org/2000/svg" viewBox="0 -1000 1000 1000">
	<path fill="#000000" d="M896 -457C849 -481 819 -486 741 -472C704 -465 657 -459 552 -446C546 -493 541 -509 533 -519C660 -640 682 -656 704 -664C754 -682 751 -697 677 -738C640 -758 629 -757 592 -740C529 -710 366 -687 303 -692C271 -695 263 -682 299 -655C332 -629 350 -630 387 -645C439 -665 534 -692 579 -700C613 -706 622 -695 609 -673C577 -617 551 -580 511 -534C498 -539 482 -541 460 -543C431 -545 419 -528 461 -504C474 -496 485 -472 493 -439C339 -420 179 -403 107 -397C73 -394 70 -386 105 -368C141 -349 163 -347 210 -360C258 -373 382 -393 500 -402C515 -311 516 -205 499 -130C482 -52 469 -49 363 -73C338 -79 331 -71 356 -50C421 5 439 26 444 49C449 73 473 74 499 48C546 1 568 -65 571 -153C574 -236 569 -305 558 -406C695 -415 782 -415 846 -406C929 -394 952 -427 896 -457Z"/>
</svg>