<svg xmlns="http://www.w3.org/2000/svg" viewBox="0 -1000 1000 1000">
	<path fill="#000000" d="M194 -278C217 -282 232 -285 253 -291C253 -267 253 -245 252 -226C162 -205 118 -198 66 -193C25 -189 24 -183 52 -167C87 -145 99 -143 142 -158C179 -171 216 -182 251 -192C249 -111 244 -67 238 -44C229 -6 230 0 249 44C260 72 275 70 281 44C290 3 293 -40 292 -108C292 -116 292 -148 293 -202C342 -212 369 -216 404 -222C456 -229 458 -247 422 -258C405 -263 378 -262 364 -257C341 -249 319 -242 293 -236C293 -256 293 -279 294 -301C334 -311 342 -311 347 -306C358 -293 381 -292 392 -317C408 -355 419 -395 423 -428C427 -456 433 -472 445 -490C459 -511 456 -516 433 -526C390 -547 378 -547 349 -534C336 -527 319 -522 296 -517C297 -540 297 -559 297 -577C341 -589 367 -596 381 -604C409 -619 409 -630 386 -637C371 -641 344 -636 299 -620C301 -679 303 -697 309 -712C320 -736 313 -750 255 -766C221 -777 215 -765 237 -736C248 -721 253 -686 254 -607C207 -594 185 -588 162 -583C138 -578 137 -574 160 -566C181 -558 199 -556 255 -568C255 -550 255 -530 255 -507C209 -498 178 -491 133 -485C78 -500 75 -488 99 -456C115 -437 137 -375 148 -328C156 -287 172 -258 184 -260C189 -261 192 -267 194 -278ZM295 -429C295 -447 296 -467 296 -487C314 -492 334 -499 349 -502C372 -507 378 -502 378 -476C378 -436 374 -396 365 -365C358 -340 353 -336 329 -333C319 -331 307 -330 294 -327C294 -347 294 -367 295 -389C307 -393 320 -397 333 -402C354 -409 353 -428 336 -432C326 -434 319 -434 295 -429ZM254 -381C255 -360 255 -347 253 -319C234 -315 214 -310 192 -305C183 -351 167 -416 157 -459C190 -464 218 -468 255 -477C255 -456 255 -437 255 -417C240 -413 224 -408 205 -403C187 -398 188 -389 200 -384C216 -378 228 -377 254 -381ZM583 -183C607 -186 641 -191 722 -203C760 -209 771 -208 771 -182C771 -150 765 -113 757 -98C747 -75 733 -69 594 -46C592 -115 589 -150 583 -183ZM582 -474C576 -440 566 -401 554 -359C527 -355 503 -352 479 -350C455 -348 454 -343 473 -331C489 -320 509 -315 539 -318C498 -208 426 -115 349 -47C332 -33 337 -22 363 -35C417 -64 476 -120 524 -194C536 -156 543 -112 550 -30C555 16 563 34 572 35C583 36 594 26 595 -15C631 -16 693 -22 802 -37C831 -41 834 -59 817 -69C803 -77 803 -84 809 -96C833 -143 846 -166 863 -180C882 -199 880 -208 829 -236C785 -260 767 -260 746 -250C707 -233 619 -215 565 -212L543 -225C562 -257 578 -292 592 -329C662 -345 733 -358 782 -361C821 -363 825 -390 796 -399C769 -406 768 -410 772 -428C780 -462 787 -488 793 -510C863 -519 881 -520 898 -519C980 -513 985 -535 941 -559C915 -574 893 -572 856 -561C842 -557 823 -553 803 -548C815 -591 822 -604 839 -620C857 -639 858 -651 812 -677C777 -696 761 -695 740 -685C697 -664 615 -644 526 -640C499 -639 499 -627 519 -618C545 -606 562 -604 588 -607C594 -584 594 -551 588 -509C534 -501 487 -495 461 -493C445 -492 443 -482 452 -477C486 -455 497 -454 540 -465C553 -468 567 -471 582 -474ZM740 -503C735 -472 729 -439 721 -406C719 -396 712 -387 691 -383C659 -376 631 -371 604 -367C615 -403 624 -440 631 -483C666 -490 704 -497 740 -503ZM635 -517C639 -544 643 -552 652 -566C663 -580 659 -589 629 -615C650 -620 676 -627 710 -638C742 -647 754 -633 754 -613C754 -596 751 -570 746 -537C711 -530 672 -523 635 -517Z"/>
</svg>