<svg xmlns="http://www.w3.org/2000/svg" viewBox="0 -1000 1000 1000">
	<path fill="#000000" d="M263 -571C263 -548 263 -535 263 -502C222 -491 178 -482 144 -476C101 -488 87 -480 102 -457C129 -417 137 -390 152 -327C164 -272 175 -251 186 -252C195 -253 199 -261 199 -274C230 -283 240 -285 262 -291C262 -260 262 -232 261 -209C135 -177 97 -174 66 -176C38 -178 32 -167 61 -143C87 -123 102 -119 132 -131C173 -148 213 -163 260 -175C258 -112 255 -87 246 -43C239 -15 238 10 254 30C276 59 293 56 297 28C304 -23 305 -62 302 -186C336 -194 376 -202 424 -211C454 -217 460 -231 441 -241C425 -250 401 -247 301 -219C301 -237 301 -265 301 -299C349 -310 361 -311 367 -299C373 -287 392 -285 399 -301C410 -325 418 -346 424 -377C433 -422 447 -473 458 -486C469 -502 465 -509 433 -524C397 -542 386 -542 372 -534C364 -528 337 -520 303 -511C304 -536 304 -558 305 -579C321 -582 345 -588 395 -603C424 -611 423 -629 392 -641C381 -646 363 -643 306 -626C308 -690 314 -712 322 -730C332 -752 327 -772 275 -787C234 -799 225 -788 240 -767C259 -743 262 -716 263 -613C219 -602 181 -595 153 -593C136 -592 133 -574 155 -569C184 -562 213 -562 263 -571ZM302 -430C303 -449 303 -467 303 -484C329 -491 351 -495 367 -497C389 -499 391 -492 390 -470C389 -433 385 -401 374 -352C370 -334 364 -330 356 -334C349 -337 334 -336 301 -329C301 -347 301 -368 301 -389C319 -394 329 -396 348 -403C375 -413 372 -427 348 -432C333 -435 319 -435 302 -430ZM263 -382C263 -361 263 -339 262 -319C244 -314 222 -309 195 -302C185 -361 173 -413 164 -452C197 -457 233 -466 263 -473C264 -455 264 -435 263 -415C237 -406 216 -400 200 -396C184 -392 185 -384 199 -380C216 -376 238 -378 263 -382ZM609 -278C613 -283 618 -289 623 -292C631 -298 627 -304 600 -321C560 -347 549 -338 553 -313C556 -292 548 -271 526 -232C488 -163 429 -93 365 -49C338 -30 342 -19 373 -32C447 -65 512 -128 557 -194C587 -179 610 -163 671 -103C633 -52 567 -11 477 14C454 22 455 33 481 31C577 25 653 -16 705 -69C735 -39 755 -19 787 16C813 44 827 51 961 32C996 27 993 9 962 2C865 -20 804 -52 735 -105C751 -131 768 -170 776 -197C785 -226 796 -243 808 -253C828 -271 825 -280 783 -303C760 -316 741 -319 725 -310C688 -290 643 -275 609 -278ZM693 -138C628 -191 595 -210 570 -216C578 -232 589 -249 596 -260C629 -248 651 -247 679 -257C724 -270 732 -262 726 -235C718 -201 708 -167 693 -138ZM582 -360C628 -370 642 -372 669 -376C698 -380 705 -379 714 -368C725 -354 737 -358 745 -371C759 -393 767 -409 779 -451C801 -524 812 -547 828 -565C841 -579 838 -588 790 -613C755 -631 744 -630 726 -619C710 -610 595 -580 523 -569C471 -579 457 -564 480 -544C492 -535 510 -505 523 -455C547 -362 554 -345 560 -345C576 -345 582 -349 582 -360ZM542 -547C562 -547 608 -555 661 -570C731 -588 743 -586 740 -542C737 -495 732 -463 727 -442C718 -409 711 -401 703 -406C693 -412 665 -410 643 -402C623 -395 601 -390 579 -388C576 -409 570 -435 564 -462C602 -457 627 -461 679 -478C705 -486 706 -505 688 -512C679 -516 661 -514 633 -501C616 -491 591 -484 560 -479C555 -502 548 -525 542 -547ZM579 -685C623 -739 630 -747 637 -752C659 -768 658 -780 617 -800C568 -826 559 -819 568 -785C570 -779 567 -771 548 -731C522 -676 499 -641 440 -586C423 -570 430 -564 453 -576C508 -608 533 -627 562 -663C599 -655 645 -657 693 -668C728 -675 768 -684 822 -695C874 -706 874 -727 843 -737C808 -747 789 -746 742 -728C671 -703 614 -688 579 -685Z"/>
</svg>