<svg xmlns="http://www.w3.org/2000/svg" viewBox="0 -1000 1000 1000">
	<path fill="#000000" d="M626 -634C648 -636 669 -640 729 -659C753 -668 756 -664 747 -640C733 -602 693 -522 676 -496C668 -481 671 -469 686 -459C747 -421 797 -359 804 -314C811 -271 805 -266 686 -291C665 -295 664 -286 681 -276C736 -244 793 -203 817 -176C839 -153 847 -155 863 -189C909 -290 849 -406 712 -476C695 -485 695 -488 707 -504C802 -615 820 -634 853 -649C878 -660 881 -676 831 -708C793 -732 783 -730 769 -720C725 -686 661 -665 615 -659C553 -692 532 -674 556 -644C566 -630 568 -620 571 -519C577 -338 579 -214 578 -164C577 -47 578 32 579 53C581 86 593 88 605 58C617 26 638 -112 634 -221C629 -372 627 -512 626 -634ZM292 -184C306 -202 307 -211 274 -225C241 -238 235 -236 234 -211C233 -191 159 -100 78 -38C60 -26 64 -14 83 -22C159 -53 214 -94 292 -184ZM489 -77C496 -132 464 -166 363 -205C344 -212 340 -205 355 -186C382 -148 402 -122 451 -62C464 -45 485 -45 489 -77ZM222 -263C264 -258 305 -263 377 -276C388 -278 397 -272 407 -239C419 -202 430 -199 452 -233C459 -244 468 -270 467 -293C466 -310 465 -423 465 -555C465 -594 476 -633 487 -647C502 -669 497 -681 459 -702C418 -723 404 -727 379 -717C333 -696 266 -682 219 -677C168 -696 154 -682 169 -660C175 -653 182 -622 184 -575C189 -467 186 -381 176 -302C171 -270 173 -261 181 -240C193 -207 212 -206 222 -263ZM233 -543C233 -585 234 -624 233 -650C285 -660 329 -668 365 -672C389 -675 401 -671 405 -636C410 -590 416 -396 411 -340C408 -299 404 -297 390 -310C385 -315 376 -316 356 -310C339 -305 280 -296 225 -291C227 -312 228 -351 229 -398C276 -395 312 -398 357 -413C373 -418 374 -437 357 -442C341 -446 329 -447 315 -442C284 -432 255 -425 230 -422C231 -453 232 -487 232 -518C280 -514 317 -519 359 -535C378 -542 377 -560 358 -566C342 -570 331 -569 317 -564C286 -553 258 -547 233 -543Z"/>
</svg>