<svg xmlns="http://www.w3.org/2000/svg" viewBox="0 -1000 1000 1000">
	<path fill="#000000" d="M332 -415C328 -458 308 -497 289 -515C409 -616 425 -629 438 -635C470 -646 475 -667 436 -694C391 -726 370 -726 353 -715C336 -705 316 -694 276 -683C241 -673 183 -664 145 -664C117 -664 111 -648 151 -628C185 -611 197 -611 238 -629C295 -654 322 -663 334 -667C359 -673 369 -668 361 -653C335 -606 305 -564 272 -525C213 -551 196 -538 228 -514C263 -487 281 -450 285 -385C146 -299 101 -279 69 -278C35 -277 31 -261 67 -232C102 -204 111 -201 142 -233C159 -251 185 -269 287 -344C292 -224 289 -156 272 -105C260 -68 241 -67 178 -88C157 -95 150 -81 167 -67C205 -35 234 -7 242 14C251 34 257 35 276 17C304 -5 326 -50 332 -106C340 -183 340 -283 334 -378C430 -448 443 -464 438 -469C433 -474 416 -468 332 -415ZM900 -132C905 -177 868 -211 780 -247C757 -256 750 -249 765 -225C788 -188 822 -142 849 -113C873 -87 896 -93 900 -132ZM495 -227C490 -249 482 -246 468 -223C453 -196 439 -175 424 -153C413 -136 410 -109 413 -94C417 -77 425 -75 437 -84C473 -109 509 -178 495 -227ZM764 -370C700 -360 596 -346 540 -342C686 -462 760 -518 776 -526C809 -542 807 -555 783 -580C744 -617 736 -612 731 -584C727 -562 714 -546 676 -508C628 -504 575 -502 547 -502C615 -573 644 -596 666 -610C684 -621 683 -637 646 -677C667 -681 677 -684 703 -690C736 -698 767 -706 782 -707C814 -708 818 -725 780 -753C730 -790 717 -784 710 -761C703 -743 648 -715 529 -677C482 -662 490 -644 522 -649C542 -653 575 -660 610 -669C614 -646 609 -629 597 -612C551 -550 533 -531 511 -520C485 -508 477 -502 486 -470C494 -438 501 -434 523 -447C541 -458 575 -468 648 -480C569 -405 502 -356 473 -346C455 -339 446 -332 458 -294C464 -269 477 -265 501 -278C516 -287 542 -297 599 -311C613 -304 624 -287 628 -256C635 -201 636 -156 628 -99C625 -73 616 -61 542 -83C521 -89 514 -74 529 -64C561 -40 589 -20 610 18C621 36 631 35 643 22C684 -21 691 -50 685 -89C681 -128 679 -237 688 -265C697 -287 691 -302 643 -321C678 -330 724 -340 779 -351C790 -338 803 -326 816 -314C839 -296 860 -309 855 -344C849 -379 827 -403 770 -416C738 -423 732 -418 744 -398C750 -388 756 -379 764 -370Z"/>
</svg>