<svg xmlns="http://www.w3.org/2000/svg" viewBox="0 -1000 1000 1000">
	<path fill="#000000" d="M674 -625C698 -628 726 -635 753 -642C773 -647 776 -646 767 -615C754 -576 734 -518 726 -496C719 -480 718 -474 733 -464C772 -435 814 -376 825 -349C847 -300 846 -283 726 -302C704 -305 701 -292 724 -281C781 -255 815 -228 839 -200C855 -180 870 -178 889 -212C935 -291 897 -395 756 -476C746 -482 746 -488 753 -500C819 -608 832 -622 855 -637C886 -655 886 -668 841 -693C801 -716 789 -713 762 -688C746 -675 709 -661 657 -652C596 -673 591 -661 609 -625C623 -600 628 -570 629 -509C632 -344 633 -184 631 -139C629 -93 631 0 634 37C637 73 644 75 658 40C665 20 674 -59 678 -175C682 -276 678 -509 674 -625ZM474 -403C450 -430 423 -455 397 -476C373 -496 363 -484 378 -466C406 -431 434 -394 459 -356C436 -300 408 -255 367 -200C351 -177 355 -168 373 -181C421 -215 456 -256 487 -314C505 -284 522 -257 535 -231C560 -186 583 -193 580 -251C579 -270 549 -316 509 -365C523 -398 535 -436 547 -480C557 -514 564 -532 577 -542C596 -557 597 -572 567 -588C535 -606 520 -606 504 -595C478 -580 448 -570 373 -553C360 -550 356 -543 377 -532C399 -520 406 -520 490 -548C503 -552 511 -545 505 -518C495 -473 485 -436 474 -403ZM305 -642C312 -613 314 -586 314 -515C314 -427 313 -349 310 -287C269 -265 234 -246 206 -232L209 -343C230 -340 251 -343 275 -353C296 -362 297 -384 274 -388C257 -392 235 -385 210 -371L213 -481C236 -476 255 -478 281 -486C302 -491 302 -516 280 -519C264 -522 249 -520 213 -502C215 -543 218 -562 221 -571C227 -587 226 -600 199 -625C227 -627 251 -631 305 -642ZM166 -622C176 -592 178 -573 170 -213C119 -190 98 -181 75 -176C48 -171 47 -157 81 -137C109 -121 116 -123 145 -147C161 -161 224 -201 309 -251C307 -176 302 -130 299 -113C284 -42 287 -29 304 1C317 23 329 23 336 1C347 -32 349 -46 350 -275C395 -301 406 -318 404 -322C400 -330 384 -328 350 -310C351 -526 355 -567 361 -592C367 -620 365 -633 339 -649C381 -659 399 -663 434 -673C455 -678 455 -694 433 -705C408 -716 387 -713 349 -701C290 -681 189 -659 111 -649C93 -647 93 -634 114 -627C124 -624 138 -622 166 -622Z"/>
</svg>