<svg xmlns="http://www.w3.org/2000/svg" viewBox="0 -1000 1000 1000">
	<path fill="#000000" d="M415 -758C410 -786 395 -798 323 -799C312 -799 308 -793 317 -783C336 -760 371 -733 385 -727C404 -718 418 -733 415 -758ZM323 -576C322 -593 309 -611 285 -622C274 -627 269 -620 271 -609C274 -594 283 -569 295 -554C304 -540 323 -556 323 -576ZM554 -575C535 -582 513 -578 427 -558C441 -583 452 -598 474 -618C483 -626 480 -642 435 -662C469 -667 498 -674 515 -678C538 -683 542 -696 520 -705C498 -712 481 -711 427 -698C335 -676 268 -662 202 -656C190 -655 190 -648 206 -641C219 -633 260 -632 287 -637C316 -641 370 -650 417 -659C428 -633 426 -610 399 -551C293 -524 117 -498 62 -496C44 -495 44 -482 61 -472C88 -453 103 -453 136 -462C280 -506 453 -537 511 -537C593 -537 585 -564 554 -575ZM882 -221C919 -306 901 -370 765 -475C751 -485 750 -490 759 -501C820 -589 854 -619 874 -627C912 -645 907 -670 864 -691C825 -709 812 -706 783 -691C744 -670 687 -658 644 -656C586 -678 574 -662 594 -629C604 -617 608 -589 610 -521C614 -391 615 -301 612 -95C611 -36 612 46 615 58C623 90 630 89 642 57C653 30 658 -2 660 -129C662 -298 661 -473 658 -631C688 -634 723 -641 769 -655C793 -662 800 -656 789 -624C777 -590 748 -524 735 -500C725 -481 725 -476 738 -463C782 -420 818 -374 833 -326C844 -294 839 -285 736 -306C721 -309 720 -297 734 -288C770 -267 812 -240 837 -209C852 -194 872 -198 882 -221ZM543 -234C522 -241 507 -239 448 -224C433 -220 407 -215 376 -209C375 -255 372 -266 356 -278C414 -288 423 -287 429 -282C442 -272 452 -275 463 -287C473 -300 482 -315 490 -336C506 -375 512 -386 539 -411C552 -424 548 -444 515 -463C471 -488 463 -488 445 -484C419 -476 280 -445 220 -435C185 -445 171 -433 182 -416C197 -394 206 -377 227 -289C234 -256 238 -252 250 -252C256 -252 260 -255 262 -262C286 -267 307 -270 325 -273C330 -256 333 -233 335 -203C227 -183 85 -163 63 -165C47 -165 47 -155 62 -146C96 -121 104 -120 144 -134C200 -151 265 -167 336 -177C336 -132 331 -92 323 -57C315 -23 318 -3 335 15C347 26 357 27 363 14C376 -18 376 -39 376 -183C420 -190 468 -195 517 -201C558 -205 559 -226 543 -234ZM470 -433C464 -397 456 -375 436 -323C432 -313 428 -309 420 -309C406 -309 383 -306 263 -282C257 -304 252 -325 247 -346C284 -341 316 -344 396 -371C411 -376 416 -392 405 -395C389 -399 378 -401 362 -395C317 -378 285 -369 245 -363C241 -386 238 -402 235 -417C263 -419 289 -424 340 -439C380 -449 415 -454 446 -454C464 -454 472 -447 470 -433Z"/>
</svg>