<svg xmlns="http://www.w3.org/2000/svg" viewBox="0 -1000 1000 1000">
	<path fill="#000000" d="M640 -622C668 -625 700 -633 737 -642C756 -647 759 -645 750 -615C738 -573 725 -534 709 -496C703 -480 705 -472 716 -464C753 -437 798 -376 809 -349C831 -300 823 -287 709 -302C687 -305 684 -294 707 -283C752 -263 799 -232 822 -204C839 -184 854 -181 873 -216C910 -286 864 -407 740 -476C730 -481 730 -488 737 -500C797 -591 814 -615 841 -630C876 -650 875 -662 822 -692C783 -715 773 -714 745 -691C728 -677 685 -660 631 -650C565 -674 556 -663 575 -625C587 -604 594 -570 595 -509C598 -359 600 -194 597 -120C595 -73 594 24 600 52C606 80 612 80 624 56C633 36 640 -54 644 -156C648 -257 645 -499 640 -622ZM397 -520C387 -524 375 -524 365 -522C348 -520 316 -513 290 -505C270 -499 246 -492 229 -489C229 -508 230 -524 229 -539C253 -537 294 -541 336 -552C347 -555 361 -559 368 -560C382 -562 384 -579 369 -586C354 -593 325 -589 307 -582C291 -575 252 -564 229 -558C228 -583 228 -601 225 -613C242 -609 264 -608 281 -613C297 -618 362 -631 401 -638C417 -640 428 -633 427 -613C422 -579 410 -542 397 -520ZM246 -639C234 -638 224 -637 214 -636C170 -655 151 -645 168 -618C180 -602 188 -561 188 -488C188 -401 186 -380 182 -364C176 -340 177 -320 184 -306C196 -282 211 -284 223 -324C240 -327 258 -331 276 -334C285 -320 287 -305 288 -267C209 -249 133 -237 85 -234C65 -233 60 -223 74 -214C112 -190 123 -188 151 -199C177 -210 211 -219 256 -230C210 -166 165 -125 72 -61C52 -47 55 -34 75 -42C166 -80 229 -124 288 -207C286 -103 280 -57 269 -24C264 -6 266 5 276 31C287 54 308 52 317 38C326 25 328 1 327 -71C327 -94 326 -137 328 -197C378 -155 400 -136 452 -88C471 -71 490 -79 485 -113C480 -142 443 -171 329 -221C329 -230 330 -238 330 -245C368 -251 393 -256 444 -261C470 -263 477 -277 460 -286C436 -299 420 -302 395 -295C374 -289 353 -283 332 -277C333 -295 334 -302 336 -308C339 -320 339 -327 318 -342C397 -355 470 -367 489 -367C519 -367 522 -356 505 -282C495 -237 479 -229 445 -239C427 -245 419 -236 436 -223C458 -206 475 -192 479 -178C486 -160 500 -161 510 -172C529 -192 543 -214 557 -292C560 -312 572 -337 581 -346C597 -362 593 -373 559 -397C530 -416 522 -417 499 -409C467 -397 338 -372 226 -355C227 -369 227 -386 227 -404C265 -400 348 -412 410 -433C431 -440 429 -450 410 -458C398 -464 389 -465 355 -454C287 -435 254 -427 228 -423C228 -437 228 -452 229 -466C302 -478 331 -484 396 -497C410 -485 432 -488 441 -512C459 -555 480 -601 496 -613C515 -628 513 -641 467 -673C443 -689 425 -687 409 -679C383 -665 332 -652 279 -644C301 -677 321 -699 347 -722C362 -736 359 -743 308 -774C285 -788 275 -778 282 -752C287 -731 276 -699 246 -639Z"/>
</svg>