<svg xmlns="http://www.w3.org/2000/svg" viewBox="0 -1000 1000 1000">
	<path fill="#000000" d="M666 -620C694 -624 727 -630 760 -639C775 -643 780 -637 773 -612C764 -580 744 -528 730 -498C720 -478 720 -472 735 -462C783 -427 820 -374 832 -347C853 -298 836 -281 715 -300C694 -303 691 -290 713 -279C796 -241 821 -221 845 -193C863 -172 872 -172 889 -207C928 -287 903 -393 763 -474C751 -481 752 -486 760 -498C810 -581 842 -622 862 -634C899 -655 899 -667 847 -694C810 -714 796 -714 768 -689C752 -675 699 -659 647 -650C584 -671 579 -660 599 -622C607 -607 617 -559 618 -517C622 -367 622 -229 616 -127C612 -49 614 -3 619 49C623 85 642 87 649 52C661 -6 666 -61 670 -163C674 -264 670 -499 666 -620ZM405 -294C352 -285 274 -276 185 -266C149 -262 90 -261 69 -263C44 -266 42 -256 62 -241C100 -215 123 -214 164 -228C185 -234 288 -248 407 -263C410 -209 410 -163 403 -94C400 -67 392 -63 314 -79C298 -83 294 -73 306 -65C335 -46 371 -7 387 23C393 35 402 34 412 24C462 -30 468 -80 456 -210C455 -221 455 -245 455 -269C504 -274 538 -276 562 -276C613 -276 611 -293 571 -309C549 -318 516 -315 455 -302C459 -336 457 -341 429 -350C389 -364 379 -354 393 -337C398 -331 402 -315 405 -294ZM327 -145C333 -180 324 -196 256 -219C230 -229 223 -225 232 -206C249 -173 265 -148 280 -132C297 -112 322 -111 327 -145ZM413 -376C460 -382 512 -388 536 -390C554 -393 556 -404 542 -412C533 -417 534 -427 537 -431C551 -454 558 -463 566 -470C580 -483 581 -492 549 -510C522 -524 510 -524 493 -514C479 -506 417 -489 387 -486C350 -497 347 -482 358 -467C368 -449 376 -421 384 -377C388 -352 410 -359 413 -376ZM404 -462C428 -470 460 -477 479 -479C500 -481 504 -479 502 -466C500 -451 495 -432 493 -427C489 -416 484 -411 477 -410C466 -409 436 -405 412 -401C411 -423 408 -443 404 -462ZM229 -429C233 -407 233 -385 230 -356C196 -348 154 -342 144 -342C118 -342 112 -333 129 -319C158 -296 168 -298 185 -306C216 -320 286 -348 349 -366C369 -372 362 -387 342 -383C331 -381 292 -371 270 -366C271 -394 270 -419 269 -436C293 -441 309 -445 327 -451C340 -455 338 -472 320 -478C304 -482 287 -481 261 -472C235 -463 216 -457 160 -448C148 -446 148 -442 160 -437C182 -427 200 -424 229 -429ZM510 -567C495 -579 495 -584 500 -596C514 -635 532 -673 543 -682C565 -702 564 -711 519 -738C487 -756 476 -757 448 -745C419 -732 258 -702 217 -702C198 -702 193 -689 219 -678C249 -664 264 -664 284 -671C353 -690 396 -698 441 -704C462 -706 469 -698 467 -668C464 -630 462 -621 452 -584C447 -569 433 -564 415 -561C398 -559 314 -543 276 -535C258 -531 239 -527 221 -528C203 -530 201 -516 219 -509C247 -497 265 -496 280 -501C327 -515 463 -540 497 -539C526 -538 528 -553 510 -567ZM235 -613C223 -612 220 -608 236 -598C257 -585 270 -585 330 -594C365 -600 405 -607 421 -611C442 -616 445 -625 423 -637C405 -645 394 -646 364 -637C338 -628 272 -616 235 -613Z"/>
</svg>