<svg xmlns="http://www.w3.org/2000/svg" viewBox="0 -1000 1000 1000">
	<path fill="#000000" d="M91 -775C130 -746 153 -698 159 -673C166 -641 172 -634 183 -634C194 -634 215 -648 215 -676C215 -702 195 -737 99 -786ZM568 -644L531 -597H428V-784C457 -800 461 -802 461 -807C461 -809 458 -812 452 -815L386 -846V-597H295V-779C324 -798 328 -800 328 -805C328 -808 325 -811 319 -813L253 -840V-597H138C115 -597 90 -599 65 -601L93 -566C110 -573 139 -577 160 -577H608C619 -577 624 -578 624 -582C624 -584 621 -588 615 -594ZM545 -784C529 -755 480 -687 435 -626L444 -616C534 -699 568 -728 592 -737C599 -739 603 -742 603 -745C603 -747 601 -749 597 -752ZM184 -558C213 -539 233 -502 239 -477C243 -459 248 -449 261 -449C276 -449 290 -462 290 -484C290 -535 213 -561 188 -568ZM916 -699L949 -715C957 -719 961 -722 961 -725C961 -728 958 -731 951 -736L888 -779L857 -737H713L653 -789C655 -752 657 -686 657 -645V-157C657 -79 656 -13 654 44V55C654 70 656 76 663 76C668 76 674 74 684 70C700 63 703 61 703 46V37C700 -7 699 -81 699 -155V-716H864L760 -455C863 -350 901 -287 901 -210C901 -176 883 -148 814 -148C791 -148 761 -151 724 -159L722 -143C801 -123 819 -115 835 -81C838 -74 842 -71 846 -71C850 -71 954 -105 954 -203C954 -293 911 -352 782 -459ZM560 -270L526 -226H360V-311H547C557 -311 562 -312 562 -315C562 -318 559 -322 552 -329L503 -377L466 -332H360V-421H576C586 -421 592 -422 592 -426C592 -428 588 -433 581 -439L535 -480L504 -442H386C436 -501 456 -521 478 -532C485 -536 489 -539 489 -541C489 -543 486 -545 481 -547L427 -573C412 -535 391 -493 365 -442H150C127 -442 102 -444 77 -446L105 -410C122 -417 151 -421 172 -421H318V-332H182C159 -332 134 -334 109 -336L137 -301C154 -307 183 -311 204 -311H318V-226H116C93 -226 68 -228 43 -230L71 -195C88 -202 117 -205 138 -205H280C203 -102 140 -35 65 27L71 40C160 -15 225 -72 318 -178V-134C318 -78 317 -8 315 49V59C315 75 317 81 323 81C327 81 332 79 340 75C360 65 364 61 364 47V42C361 -3 360 -57 360 -132V-166C435 -135 479 -102 501 -72C526 -38 533 -33 542 -33C553 -33 565 -44 565 -64C565 -72 563 -82 558 -93C544 -121 497 -151 360 -182V-205H602C612 -205 618 -206 618 -209C618 -212 614 -216 607 -223Z"/>
</svg>