<svg xmlns="http://www.w3.org/2000/svg" viewBox="0 -1000 1000 1000">
	<path fill="#000000" d="M153 -656C154 -627 155 -588 155 -558V-469C155 -459 153 -406 153 -404C153 -398 154 -395 159 -395C163 -395 168 -397 176 -400C196 -408 196 -412 196 -438H515C515 -410 515 -407 520 -407C524 -407 530 -410 539 -415C555 -424 556 -428 556 -439C556 -447 555 -475 555 -516V-573L583 -586C589 -589 593 -591 593 -594C593 -597 589 -600 581 -606L534 -647L504 -609H206ZM403 -460H319V-587H403ZM280 -460H196V-587H280ZM443 -460V-587H515V-460ZM561 -342L530 -265L541 -257C598 -327 612 -337 642 -337C649 -337 653 -339 653 -342C653 -345 651 -348 646 -352L587 -403L557 -364H148C149 -377 149 -390 149 -404H135C119 -333 106 -315 70 -295C53 -286 46 -275 46 -267C46 -258 59 -245 78 -245C123 -245 140 -286 146 -342ZM457 -223C357 -53 271 7 72 62L74 77C283 35 388 -16 488 -181C499 -200 507 -206 525 -208C535 -209 540 -211 540 -215C540 -217 537 -221 531 -227L481 -278L452 -245H265C272 -253 279 -262 286 -272C293 -282 305 -290 319 -292C328 -293 333 -295 333 -298C333 -300 329 -304 320 -308L268 -333C206 -223 154 -159 65 -78L72 -67C127 -104 166 -134 208 -179C248 -159 268 -129 284 -94C292 -79 296 -74 303 -74C317 -74 330 -91 330 -113C330 -150 295 -168 218 -190C228 -200 237 -211 247 -223ZM662 -805C664 -768 666 -700 666 -659V-142C666 -66 665 4 663 59V66C663 83 665 89 673 89C677 89 682 87 689 84C709 74 713 70 713 58C713 1 710 -90 710 -147V-734H853L782 -460C875 -364 906 -295 906 -245C906 -184 883 -154 807 -154C787 -154 764 -156 736 -160V-146C812 -129 837 -115 845 -87C846 -83 848 -81 851 -81C861 -81 956 -123 956 -234C956 -296 914 -370 805 -467L879 -651C904 -714 908 -720 935 -732C941 -735 944 -737 944 -739C944 -741 941 -744 937 -747L874 -799L844 -756H723ZM281 -727V-777C312 -796 314 -796 314 -800C314 -803 310 -805 302 -809L233 -841C236 -792 236 -773 236 -727H126C104 -727 80 -729 56 -731L83 -696C99 -703 118 -707 138 -707H236C236 -696 235 -650 235 -640C235 -630 237 -626 242 -626C247 -626 283 -636 283 -651C283 -667 281 -691 281 -707H420C420 -697 419 -651 419 -642C419 -632 421 -627 428 -627C432 -627 438 -629 446 -631C463 -635 467 -638 467 -648C467 -653 465 -698 465 -707H610C619 -707 623 -709 623 -713C623 -717 620 -722 614 -728L563 -778L523 -727H465V-780C491 -795 493 -797 493 -802C493 -805 490 -809 483 -812L417 -842C420 -793 420 -774 420 -727Z"/>
</svg>