<svg xmlns="http://www.w3.org/2000/svg" viewBox="0 -1000 1000 1000">
	<path fill="#000000" d="M525 -812L483 -756H88C66 -756 42 -758 18 -760L44 -724C61 -731 89 -735 109 -735H221V-586H158L102 -642C104 -608 106 -544 106 -506V-145C106 -92 105 -8 103 47V56C103 71 105 77 112 77C122 77 151 68 151 48V-13H457V53C457 61 459 65 465 65C469 65 475 63 483 60C504 51 507 47 507 34V26C504 -19 502 -81 502 -157V-557C528 -572 531 -573 531 -577C531 -580 528 -582 522 -586L468 -620L443 -586H377V-735H574C585 -735 590 -736 590 -740C590 -743 587 -747 580 -754ZM151 -195V-237C243 -306 264 -367 264 -565H334V-373C334 -332 346 -313 407 -313C421 -313 437 -314 457 -316V-195ZM264 -586V-735H334V-586ZM377 -565H457V-357C441 -354 428 -353 417 -353C387 -353 377 -363 377 -378ZM151 -565H221C221 -369 210 -328 151 -259ZM151 -34V-174H457V-34ZM921 -628L880 -573H831V-771L858 -785C864 -788 868 -791 868 -793C868 -796 864 -798 856 -803L781 -846C783 -809 785 -751 785 -710V-573H616C594 -573 570 -575 546 -577L573 -541C589 -548 617 -552 637 -552H785V-30C785 -14 783 -4 750 -4C729 -4 695 -8 640 -17L638 -1C732 21 745 35 754 77C755 82 757 84 760 84C762 84 764 83 767 82C823 54 831 36 831 -24V-552H967C975 -552 979 -553 979 -557C979 -560 976 -565 970 -572ZM580 -436C619 -383 640 -326 645 -293C650 -259 656 -253 669 -253C686 -253 706 -280 706 -306C706 -344 667 -390 589 -446Z"/>
</svg>