<svg xmlns="http://www.w3.org/2000/svg" viewBox="0 -1000 1000 1000">
	<path fill="#000000" d="M391 -206H132V-253C211 -333 232 -409 233 -572H288V-360C288 -315 297 -295 346 -295C358 -295 373 -297 391 -299ZM194 -594H139L84 -643C86 -610 88 -549 88 -512V-158C88 -126 85 14 85 43C85 52 87 56 93 56C106 56 132 45 132 28V-25H391V10C391 19 392 23 397 23C401 23 407 21 417 17C438 8 441 4 441 -9V-17C438 -62 436 -124 436 -200V-555L463 -571C468 -574 470 -576 470 -578C470 -581 468 -583 463 -587L408 -630L384 -594H332V-733H494C503 -733 507 -734 507 -737C507 -739 504 -743 498 -749L444 -801L411 -755H108C85 -755 60 -757 35 -759L63 -722C80 -729 109 -733 130 -733H194ZM391 -184V-47H132V-184ZM132 -572H194C193 -405 178 -338 132 -274ZM391 -572V-337C376 -334 365 -333 357 -333C336 -333 332 -342 332 -362V-572ZM288 -594H233V-733H288ZM920 -183C913 -28 903 -12 836 -12C752 -12 745 -12 745 -70V-422L771 -440C775 -443 777 -445 777 -447C777 -450 774 -452 768 -455L696 -486C698 -458 699 -426 699 -367V-51C699 29 727 29 820 29C927 29 942 19 968 -24C969 -27 970 -29 970 -31C970 -34 968 -37 963 -41C944 -54 933 -73 934 -183ZM513 -683C516 -628 501 -582 469 -548C455 -533 450 -522 450 -513C450 -499 461 -492 473 -492C506 -492 539 -537 536 -620H640C613 -256 547 -92 401 69L413 82C585 -84 646 -219 685 -620H868L806 -500L818 -493C884 -583 913 -604 952 -607C957 -608 960 -609 960 -611C960 -613 958 -616 954 -620L892 -680L861 -642H687C691 -686 695 -734 699 -785L727 -800C733 -803 735 -805 735 -807C735 -809 733 -811 728 -813L649 -849C648 -776 645 -692 641 -642H534C533 -655 530 -669 527 -683Z"/>
</svg>