<svg xmlns="http://www.w3.org/2000/svg" viewBox="0 -1000 1000 1000">
	<path fill="#000000" d="M477 -814L429 -763H108C85 -763 60 -765 35 -767L63 -732C80 -739 109 -743 130 -743H210V-597H159L92 -648C94 -615 96 -553 96 -516V-144C96 -93 95 -16 93 37V45C93 59 95 64 102 64C106 64 112 63 120 60C137 55 139 52 139 38V-39H422V47C422 56 423 60 428 60C432 60 438 58 448 54C467 45 471 41 471 27V20C468 -25 466 -87 466 -163V-561L490 -574C495 -577 497 -579 497 -581C497 -583 495 -585 491 -587L435 -628L410 -597H353V-743H523C530 -743 534 -744 534 -746C534 -748 532 -751 528 -756ZM139 -211V-240C235 -321 250 -395 251 -577H312V-389C312 -342 326 -328 380 -328C392 -328 406 -329 422 -330V-211ZM251 -597V-743H312V-597ZM353 -577H422V-367C413 -366 404 -366 397 -366C358 -366 353 -376 353 -406ZM139 -577H210C210 -386 202 -333 139 -261ZM139 -59V-191H422V-59ZM845 -801L817 -762H624L565 -816C567 -785 568 -736 568 -712V-570C568 -541 565 -496 565 -467C565 -460 566 -456 570 -456C574 -456 579 -458 588 -463C607 -473 610 -476 610 -488V-527H826V-486C826 -476 827 -471 833 -471C833 -471 872 -481 872 -502C872 -512 868 -567 868 -579V-724L900 -740C904 -742 906 -744 906 -747C906 -748 904 -750 902 -752ZM610 -547V-742H826V-547ZM902 -52L855 1H732V-188H922C929 -188 932 -189 932 -192C932 -193 930 -196 927 -199L871 -259L830 -208H732V-365H937C943 -365 946 -366 946 -368C946 -370 944 -373 941 -376L886 -435L842 -385H574C551 -385 526 -387 501 -389L529 -354C546 -361 575 -365 596 -365H688V-208H605C582 -208 557 -210 532 -212L560 -178C577 -185 606 -188 627 -188H688V1H550C527 1 502 -1 477 -3L505 32C522 25 551 21 572 21H956C964 21 967 20 967 18C967 16 965 14 962 10Z"/>
</svg>