<svg xmlns="http://www.w3.org/2000/svg" viewBox="0 -1000 1000 1000">
	<path fill="#000000" d="M442 -823L405 -771H102C79 -771 54 -773 29 -775L57 -739C74 -746 103 -750 124 -750H200V-616H139L82 -667C84 -634 86 -573 86 -536V-144C86 -93 85 -12 83 41V50C83 65 85 70 92 70C101 70 130 61 130 42V-50H416V32C416 41 417 45 422 45C426 45 432 43 442 39C463 30 466 26 466 13V5C463 -40 461 -102 461 -178V-586C489 -603 492 -605 492 -609C492 -612 490 -615 484 -618L424 -659L400 -616H344V-750H490C499 -750 504 -752 504 -756C504 -759 501 -764 494 -771ZM130 -226V-256C208 -337 241 -426 242 -595H302V-393C302 -349 321 -334 384 -334C393 -334 404 -334 416 -335V-226ZM242 -616V-750H302V-616ZM344 -595H416V-373C404 -372 394 -371 386 -371C352 -371 344 -381 344 -402ZM130 -595H200C199 -441 183 -353 130 -285ZM130 -71V-205H416V-71ZM873 -845C771 -804 629 -758 504 -729L507 -716C612 -731 730 -755 830 -778C845 -781 867 -784 885 -784C890 -784 912 -781 916 -781C920 -781 921 -782 921 -784C921 -786 920 -789 917 -793ZM641 -689C677 -636 691 -590 691 -559C691 -530 698 -522 711 -522C726 -522 740 -544 740 -568C740 -612 689 -659 649 -695ZM858 -727C833 -656 776 -540 742 -479L755 -473L878 -653C890 -670 904 -679 920 -682C925 -683 927 -685 927 -686C927 -688 925 -691 920 -693ZM507 -654C547 -600 563 -542 567 -512C571 -482 575 -473 589 -473C606 -473 619 -495 619 -518C619 -565 536 -643 517 -661ZM569 -287C610 -232 614 -194 614 -160C614 -132 622 -126 633 -126C646 -126 670 -146 670 -179C670 -224 608 -274 579 -296ZM901 -417L866 -367H821V-441C840 -456 842 -458 842 -461C842 -464 839 -467 832 -470L775 -496C777 -462 777 -421 777 -367H544C521 -367 496 -369 471 -371L499 -335C516 -342 545 -346 566 -346H777V-29C777 -7 775 5 744 5C722 5 686 -1 627 -14L625 2C716 26 733 44 738 77C739 83 741 86 744 86C746 86 748 85 751 84C813 55 821 40 821 -12V-346H949C958 -346 962 -349 962 -353C962 -357 959 -362 953 -368Z"/>
</svg>