<svg xmlns="http://www.w3.org/2000/svg" viewBox="0 -1000 1000 1000">
	<path fill="#000000" d="M434 -815L400 -765H110C87 -765 62 -767 37 -769L65 -734C82 -741 111 -745 132 -745H198V-611H140L84 -658C86 -625 88 -564 88 -527V-130C88 -99 83 38 83 65C83 79 84 85 91 85C94 85 100 83 107 80C130 70 131 67 131 56V-26H404V23C404 32 404 37 410 37C413 37 420 35 430 30C450 22 453 18 453 5V-4C450 -49 448 -105 448 -181V-579L476 -595C480 -597 482 -599 482 -601C482 -603 479 -606 473 -610L417 -651L392 -611H333V-745H485C494 -745 500 -747 500 -750C500 -753 496 -758 489 -764ZM131 -223V-591H198C198 -442 186 -390 140 -306L142 -285C210 -356 240 -460 240 -591H291V-379C291 -347 308 -331 357 -331C370 -331 386 -332 404 -334V-223ZM240 -611V-745H291V-611ZM333 -591H404V-365C339 -364 333 -371 333 -389ZM131 -46V-203H404V-46ZM827 -348L797 -302H596L543 -351C545 -320 546 -272 546 -248V-77C546 -42 545 5 543 63V69C543 77 544 80 550 80C555 80 561 79 570 76C586 71 589 68 589 51V-22H812V64C812 72 813 77 819 77C822 77 828 75 838 71C857 63 860 60 860 46V37C857 -8 856 -37 856 -71V-266L886 -285C892 -288 894 -291 894 -294C894 -298 891 -302 883 -307ZM589 -42V-282H812V-42ZM627 -838C666 -807 686 -761 692 -730C695 -715 700 -709 711 -709C730 -709 746 -731 746 -754C746 -794 705 -818 633 -848ZM881 -756L845 -701H544C522 -701 497 -703 474 -705L501 -671C516 -677 545 -681 565 -681H935C943 -681 948 -682 948 -685C948 -688 944 -693 937 -700ZM562 -626C603 -572 620 -529 621 -497C622 -480 629 -469 641 -469C653 -469 673 -490 673 -520C673 -550 645 -586 569 -634ZM896 -479L857 -425H745L811 -564C826 -596 838 -608 856 -613C862 -615 865 -617 865 -619C865 -622 862 -625 855 -628L794 -658C779 -594 747 -487 722 -425H535C513 -425 488 -427 465 -429L492 -395C507 -401 536 -405 556 -405H947C957 -405 962 -406 962 -410C962 -413 959 -417 952 -424Z"/>
</svg>