<svg xmlns="http://www.w3.org/2000/svg" viewBox="0 -1000 1000 1000">
	<path fill="#000000" d="M409 -811L374 -764H105C82 -764 57 -766 32 -768L60 -733C77 -740 106 -744 127 -744H172V-596H124L71 -636C73 -603 75 -542 75 -505V-129C75 -66 74 13 71 56C71 62 70 66 70 70C70 81 72 86 79 86C83 86 89 84 98 80C116 72 117 68 117 57V-22H374V52C374 61 375 66 381 66C384 66 391 64 400 59C418 50 423 46 423 34C423 31 422 28 422 25C418 -20 417 -63 417 -158V-567C445 -583 448 -585 448 -589C448 -592 445 -595 440 -598L382 -635L354 -596H311V-744H445C455 -744 460 -745 460 -749C460 -752 458 -756 452 -762ZM117 -218V-265C183 -340 212 -415 213 -576H270V-380C270 -330 280 -314 374 -316V-218ZM213 -596V-744H270V-596ZM311 -576H374V-350C316 -348 311 -355 311 -384ZM117 -576H172C171 -420 157 -361 117 -288ZM117 -42V-198H374V-42ZM919 -46L888 -3H876V-256C906 -277 909 -279 909 -283C909 -287 905 -290 898 -295L846 -329L821 -291H540L494 -329C495 -307 497 -256 497 -231V-3C477 -4 455 -5 434 -7L462 28C479 21 508 17 529 17H950C959 17 964 15 964 12C964 9 962 5 958 1ZM646 -3V-271H722V-3ZM763 -3V-271H834V-3ZM538 -3V-271H605V-3ZM872 -771L833 -722H645C656 -741 667 -761 678 -782C687 -799 692 -802 711 -807C721 -810 726 -813 726 -816C726 -818 722 -821 716 -824L652 -852C636 -810 618 -766 597 -722H522C499 -722 474 -724 449 -726L477 -691C494 -698 523 -702 544 -702H588C542 -603 485 -504 422 -421L429 -408C462 -436 504 -489 554 -567V-438C554 -427 551 -369 551 -367C551 -360 553 -357 558 -357C561 -357 567 -358 574 -361C593 -368 595 -369 595 -390H805C805 -363 805 -360 810 -360C813 -360 818 -362 826 -366C844 -375 848 -377 848 -386C848 -397 846 -445 846 -455V-545C874 -562 877 -564 877 -567C877 -570 875 -572 870 -575L812 -614L790 -577H596L570 -593C591 -626 612 -662 634 -702H924C931 -702 935 -703 935 -706C935 -708 932 -712 927 -717ZM595 -410V-557H805V-410Z"/>
</svg>