<svg xmlns="http://www.w3.org/2000/svg" viewBox="0 -1000 1000 1000">
	<path fill="#000000" d="M174 -583H137L84 -630C86 -597 89 -536 89 -499V-155C89 -124 86 15 86 44C86 51 88 55 94 55C107 55 128 42 128 26V-40H337V11C337 20 338 24 344 24C347 24 353 22 362 18C379 10 383 5 383 -9C383 -29 379 -114 379 -132V-551C407 -566 411 -568 411 -573C411 -577 408 -580 403 -583L351 -617L331 -583H297V-732H417C426 -732 430 -733 430 -737C430 -740 427 -744 420 -751L376 -797L342 -752H113C90 -752 66 -754 41 -756L68 -721C85 -728 114 -732 134 -732H174ZM337 -205H128V-249C185 -327 211 -406 212 -563H258V-365C258 -319 262 -304 304 -304C313 -304 324 -305 337 -306ZM128 -60V-185H337V-60ZM128 -563H174C173 -422 158 -351 128 -284ZM337 -563V-341C331 -340 326 -340 322 -340C302 -340 297 -347 297 -367V-563ZM258 -583H212V-732H258ZM574 -484V-359H505L466 -408C465 -395 463 -374 461 -359L444 -237L408 -212L453 -171C455 -169 457 -168 458 -168C460 -168 462 -169 464 -172L483 -199H558C558 -142 545 -53 539 -37C532 -17 525 -6 504 -6C487 -6 461 -13 417 -26L414 -9C480 17 492 27 498 62C499 66 500 68 503 68C508 68 555 46 570 -10C579 -45 583 -68 592 -185L618 -196C622 -198 624 -199 624 -201C624 -203 623 -205 620 -207L576 -249L552 -221H479L493 -337H574V-298C574 -293 575 -291 578 -291C578 -291 610 -301 610 -319C610 -340 609 -368 609 -388V-472L631 -487C634 -489 635 -491 635 -493C635 -495 634 -497 631 -499L583 -540L562 -506H514C568 -566 601 -625 626 -700C633 -721 645 -734 660 -738C665 -739 668 -741 668 -743C668 -745 666 -748 663 -751L620 -801L593 -770H473C458 -770 436 -772 418 -774L444 -739C456 -744 471 -748 488 -748H599C566 -622 501 -521 405 -424L412 -411C443 -436 470 -460 493 -484ZM826 -271L799 -242H673C662 -242 641 -243 628 -245L651 -213C662 -217 674 -220 687 -220H804C793 -181 778 -147 761 -117C732 -139 697 -163 657 -189L649 -176C679 -152 712 -124 744 -91C697 -22 630 26 543 72L546 87C646 51 715 5 768 -66C815 -15 841 22 855 52C861 67 872 77 876 77C889 77 900 62 900 41C900 37 899 32 898 27C892 3 861 -38 788 -96C804 -121 818 -148 831 -179C838 -194 852 -209 870 -214C873 -215 875 -216 875 -218C875 -219 873 -222 871 -225ZM681 -834C710 -648 762 -548 893 -437C895 -435 897 -434 898 -434C900 -434 901 -436 902 -438C915 -455 932 -464 958 -464C963 -464 968 -464 974 -463L976 -476C901 -497 844 -534 801 -586L885 -656C897 -666 924 -674 934 -674C940 -674 944 -675 944 -677C944 -679 942 -681 938 -684L891 -722C859 -681 819 -633 789 -601C771 -626 756 -654 742 -684L823 -750C833 -760 850 -767 866 -767C870 -767 872 -768 872 -770C872 -772 871 -774 867 -776L817 -811C788 -769 760 -731 735 -702C719 -742 707 -787 697 -836ZM777 -483V-354C777 -315 786 -304 853 -304C867 -304 888 -305 926 -310C930 -311 931 -312 931 -314C931 -321 913 -340 896 -355C883 -343 871 -339 853 -339C822 -339 812 -341 812 -358V-472C813 -473 824 -482 824 -482C824 -484 823 -485 820 -488L780 -529L769 -505H716L672 -536C675 -360 659 -308 604 -264L609 -250C690 -305 705 -331 705 -483ZM439 -702C467 -679 491 -644 499 -617C504 -597 507 -591 515 -591C530 -591 541 -612 537 -634C534 -663 505 -687 447 -712Z"/>
</svg>