<svg xmlns="http://www.w3.org/2000/svg" viewBox="0 -1000 1000 1000">
	<path fill="#000000" d="M541 -752L495 -791C496 -762 497 -716 497 -693V-543C497 -530 496 -501 495 -485C495 -473 496 -469 501 -469C504 -469 509 -470 517 -474C534 -481 536 -485 536 -504H847C847 -478 847 -475 854 -475C858 -475 863 -477 872 -481C888 -488 891 -492 891 -502C891 -514 887 -588 887 -604V-717L915 -732C920 -735 922 -737 922 -739C922 -741 920 -743 916 -746L860 -787L836 -752H766V-802C791 -817 794 -818 794 -822C794 -824 791 -826 787 -828L725 -854C727 -827 728 -789 728 -752H649V-805C675 -819 678 -821 678 -824C678 -827 675 -829 670 -831L609 -858C609 -830 610 -791 610 -752ZM728 -731V-638H649V-731ZM728 -619V-523H649V-619ZM847 -731V-638H766V-731ZM847 -619V-523H766V-619ZM536 -638V-731H610V-638ZM536 -523V-619H610V-523ZM374 -221H144V-273C216 -350 241 -410 242 -587H288V-375C288 -330 295 -314 332 -314C343 -314 357 -315 374 -318ZM204 -609H151L99 -658C101 -625 103 -564 103 -527V-162C103 -130 100 10 100 39C100 48 102 52 108 52C118 52 144 43 144 24V-29H374V5C374 14 374 19 379 19C383 19 389 17 399 12C417 4 421 0 421 -15V-22C418 -67 416 -129 416 -205V-570L442 -586C447 -589 449 -591 449 -593C449 -596 447 -599 442 -602L390 -645L359 -609H326V-748H455C464 -748 468 -749 468 -752C468 -754 465 -758 459 -764L409 -816L375 -768H122C100 -768 76 -770 52 -772L79 -737C95 -744 123 -748 143 -748H204ZM374 -199V-51H144V-199ZM144 -587H204C203 -434 188 -360 144 -294ZM374 -587V-350C364 -348 355 -347 349 -347C329 -347 326 -357 326 -377V-587ZM288 -609H242V-748H288ZM833 -376L797 -330H596C575 -330 550 -332 526 -334L556 -299C574 -306 601 -310 621 -310H876C886 -310 890 -312 890 -316C890 -319 887 -323 882 -328ZM468 -468C471 -442 473 -382 473 -318C473 -65 453 -20 377 77L388 87C477 3 500 -37 509 -212H573V-28C573 -5 567 2 538 20L575 67C578 70 580 72 582 72C584 72 586 70 588 66C601 38 609 25 707 -54L702 -65L612 -19V-212H672C711 -94 761 -10 882 48C884 49 886 49 888 49C890 49 892 48 894 46C907 24 928 14 976 15V3C882 -6 811 -40 759 -99C853 -145 871 -150 898 -151C903 -151 905 -152 905 -154C905 -156 904 -158 900 -161L850 -197C806 -157 777 -134 748 -112C726 -140 708 -174 692 -212H952C961 -212 965 -213 965 -216C965 -219 962 -223 955 -230L905 -280L867 -232H510C512 -280 513 -337 514 -407H944C952 -407 956 -408 956 -411C956 -414 953 -419 947 -425L902 -471L866 -428H522Z"/>
</svg>