<svg xmlns="http://www.w3.org/2000/svg" viewBox="0 -1000 1000 1000">
	<path fill="#000000" d="M247 -852C213 -738 137 -582 33 -426L44 -416C77 -454 100 -483 129 -526H236V-373H118C99 -373 70 -374 45 -377L73 -340C90 -347 109 -351 132 -351H236V-47L47 -19L89 45C92 49 94 51 97 51C99 51 101 49 103 47C124 22 151 10 486 -68V-84L282 -54V-351H467C473 -351 477 -353 477 -356C477 -359 475 -363 469 -368L410 -423L373 -373H282V-526H423C431 -526 434 -528 434 -531C434 -534 432 -538 426 -543L371 -596L334 -548H144C179 -601 217 -666 264 -751C319 -718 375 -669 397 -627C405 -611 415 -602 426 -602C438 -602 453 -615 453 -634C453 -641 452 -647 448 -654C427 -694 386 -722 272 -766C283 -782 297 -790 317 -795C323 -797 326 -798 326 -801C326 -803 323 -806 318 -809ZM917 -550C924 -551 927 -553 927 -555C927 -558 924 -562 918 -568L852 -621L820 -558L642 -525C637 -582 630 -704 629 -770L658 -789C662 -791 664 -793 664 -795C664 -797 661 -799 656 -802L577 -843C584 -716 592 -582 598 -517L498 -498C478 -494 449 -492 420 -493L455 -455C472 -465 500 -475 523 -479L600 -493C611 -383 641 -240 680 -165C729 -70 764 -29 845 30C877 53 900 64 919 64C925 64 936 63 936 50C936 44 934 37 928 28C918 13 913 -14 913 -62C913 -93 915 -133 920 -185H904L874 -45C871 -33 868 -28 862 -28C858 -28 854 -30 848 -33C802 -61 779 -88 721 -186C687 -244 658 -371 644 -501ZM75 -259C112 -218 127 -186 135 -149C141 -121 149 -114 160 -114C175 -114 191 -132 191 -154C191 -193 148 -229 82 -269ZM388 -294C375 -255 334 -173 297 -111L310 -104C400 -220 422 -240 452 -248C456 -249 458 -250 458 -252C458 -254 456 -257 452 -259ZM666 -742C726 -698 751 -668 763 -636C770 -616 778 -611 788 -611C800 -611 815 -630 815 -651C815 -655 814 -660 813 -664C802 -697 763 -724 671 -751Z"/>
</svg>