<svg xmlns="http://www.w3.org/2000/svg" viewBox="0 -1000 1000 1000">
	<path fill="#000000" d="M269 -852C215 -726 142 -600 44 -464L56 -455C78 -477 103 -505 130 -539H232V-400H104C85 -400 56 -402 31 -404L59 -367C76 -374 95 -378 118 -378H232V-90L43 -54L72 -3C74 0 75 2 78 2C80 2 83 0 86 -2C102 -13 166 -36 443 -113L440 -129L279 -99V-378H438C445 -378 448 -380 448 -383C448 -385 447 -388 443 -392L384 -453L343 -400H279V-539H419C426 -539 430 -540 430 -543C430 -545 428 -548 425 -551L366 -610L330 -561H148C184 -609 227 -670 279 -752C328 -728 362 -695 385 -659C403 -631 411 -623 419 -623C432 -623 446 -640 446 -661C446 -665 445 -669 444 -673C438 -696 403 -727 288 -766C298 -781 302 -783 325 -791C332 -793 336 -795 336 -798C336 -800 333 -803 328 -807ZM930 -231C919 -21 915 -13 856 -13C808 -13 796 -20 796 -69V-721L829 -738C835 -741 838 -744 838 -747C838 -750 836 -753 832 -756L773 -806L742 -763H561L505 -813C507 -723 508 -636 508 -562C508 -118 482 -53 299 64L306 76C528 -38 544 -110 550 -492C601 -458 634 -410 644 -369C650 -345 656 -339 665 -339C681 -339 700 -353 700 -385C700 -413 670 -452 550 -507C551 -566 552 -641 553 -741H749V-51C749 16 778 29 861 29C933 29 964 12 986 -37C987 -39 987 -41 987 -42C987 -45 985 -47 982 -49C952 -63 944 -95 947 -230ZM387 -320C361 -276 334 -232 283 -158L294 -146C399 -256 411 -264 438 -270C444 -271 447 -273 447 -275C447 -277 444 -280 439 -283ZM75 -308C105 -274 127 -220 132 -183C136 -157 139 -147 153 -147C170 -147 186 -158 186 -188C186 -218 166 -251 85 -317Z"/>
</svg>