<svg xmlns="http://www.w3.org/2000/svg" viewBox="0 -1000 1000 1000">
	<path fill="#000000" d="M387 -308C369 -265 327 -185 299 -139L311 -130C408 -249 422 -259 440 -262C446 -263 449 -265 449 -267C449 -269 446 -271 442 -274ZM83 -280C125 -231 140 -201 143 -158C144 -141 150 -130 161 -130C177 -130 193 -153 193 -178V-182C191 -206 158 -244 93 -291ZM511 -400C488 -400 463 -402 438 -404L466 -367C483 -374 512 -378 533 -378H633C615 -173 539 -54 349 65L355 77C548 -14 649 -124 676 -352C699 -186 757 -67 852 28C855 31 857 32 860 32C863 32 866 31 870 27C895 5 944 8 967 9L968 -3C819 -52 739 -162 687 -378H939C949 -378 954 -379 954 -383C954 -386 951 -390 944 -397L885 -456L841 -400H680C687 -502 689 -540 690 -615H903C912 -615 916 -616 916 -619C916 -621 913 -625 907 -631L848 -690L805 -637H691C692 -684 693 -733 693 -787L720 -805C724 -808 727 -810 727 -813C727 -815 724 -817 719 -820L641 -857C643 -836 643 -800 643 -756C643 -720 643 -679 642 -637H537C514 -637 489 -639 464 -641L492 -604C509 -611 538 -615 559 -615H642C641 -533 638 -450 635 -400ZM253 -840C208 -717 120 -548 37 -436L48 -427C82 -465 111 -500 140 -539H235V-378H138C119 -378 90 -380 65 -382L93 -346C110 -353 129 -357 152 -357H235V-60L57 -21L98 33C101 36 103 38 105 38C107 38 110 36 113 33C131 15 167 -3 462 -95L460 -110L282 -71V-357H429C438 -357 443 -359 443 -363C443 -366 440 -370 435 -375L383 -426L348 -378H282V-539H400C407 -539 410 -541 410 -544C410 -547 408 -551 403 -556L356 -604L321 -560H155C189 -608 223 -664 264 -738C314 -711 359 -672 393 -633C404 -621 411 -616 417 -616C426 -616 437 -632 437 -650C437 -688 399 -705 273 -753C286 -774 300 -785 315 -789C321 -791 324 -792 324 -795C324 -797 321 -800 316 -803Z"/>
</svg>