<svg xmlns="http://www.w3.org/2000/svg" viewBox="0 -1000 1000 1000">
	<path fill="#000000" d="M411 -846C459 -808 485 -766 492 -730C496 -709 502 -702 515 -702C528 -702 550 -728 550 -763C550 -793 507 -824 414 -856ZM846 -736L814 -697H205C206 -712 207 -729 207 -747H192C182 -672 138 -615 110 -599C91 -588 85 -577 85 -567C85 -544 108 -543 116 -543C170 -543 196 -592 203 -675H821L753 -560L766 -554C842 -634 864 -652 896 -660C907 -663 913 -665 913 -670C913 -673 910 -678 903 -684ZM966 -94C761 -117 644 -217 564 -412H921C934 -412 940 -414 940 -418C940 -421 936 -426 928 -434L865 -494L821 -434H510V-567C538 -589 541 -591 541 -597C541 -601 536 -604 527 -608L460 -641C462 -604 464 -536 464 -495V-434H117C94 -434 69 -436 44 -438L72 -401C89 -408 118 -412 139 -412H412C335 -262 232 -122 31 13L39 25C254 -85 358 -215 464 -403V-141C464 -63 462 -3 460 45V60C460 77 462 83 469 83C473 83 479 81 486 78C510 68 514 64 514 50V44C511 -1 510 -63 510 -139V-412H549C589 -238 694 -122 841 -44C850 -39 855 -37 860 -37C865 -37 868 -40 873 -46C892 -70 924 -82 966 -82Z"/>
</svg>