<svg xmlns="http://www.w3.org/2000/svg" viewBox="0 -1000 1000 1000">
	<path fill="#000000" d="M675 -582L648 -541H546L487 -583C489 -552 490 -505 490 -481V-319C490 -311 487 -206 487 -185C487 -168 489 -160 496 -160C500 -160 506 -163 515 -168C533 -178 534 -181 534 -193V-236H663V-181C663 -172 664 -168 669 -168C673 -168 678 -170 687 -174C708 -183 711 -187 711 -200V-208C708 -253 707 -282 707 -316V-510L730 -523C735 -526 738 -528 738 -531C738 -534 735 -537 729 -542ZM534 -259V-519H663V-259ZM463 -128L279 -90V-374H429C435 -374 439 -376 439 -380C439 -383 436 -387 431 -392L376 -444L341 -396H279V-530H423C431 -530 434 -532 434 -535C434 -538 432 -542 426 -548L373 -602L339 -552H143C177 -604 218 -670 265 -757C318 -726 365 -683 389 -637C394 -628 404 -620 412 -620C424 -620 433 -640 433 -657C433 -697 380 -729 272 -769C284 -788 298 -801 311 -805C317 -807 321 -809 321 -812C321 -814 318 -817 312 -819L247 -849C195 -710 124 -566 41 -444L52 -435C76 -460 100 -490 128 -530H232V-396H131C112 -396 83 -398 58 -400L86 -363C103 -370 122 -374 145 -374H232V-81L51 -44L88 10C91 13 93 15 95 15C97 15 100 13 103 10C120 -7 143 -18 465 -115ZM896 -809L859 -751H477C458 -751 429 -753 404 -755L432 -718C449 -725 468 -729 491 -729H809V-27C809 -12 808 -4 778 -4C755 -4 714 -9 644 -18L642 -2C744 21 764 38 773 69C774 74 777 77 780 77C782 77 784 76 787 75C845 48 856 29 856 -13V-729H961C968 -729 972 -731 972 -734C972 -737 969 -741 963 -747ZM96 -317C127 -266 142 -219 146 -170C147 -153 153 -142 164 -142C185 -142 200 -172 200 -194C200 -219 169 -269 104 -327ZM388 -327C374 -296 326 -192 300 -146L311 -139L398 -254C406 -264 423 -273 438 -277C443 -279 446 -280 446 -282C446 -284 444 -286 441 -288Z"/>
</svg>