<svg xmlns="http://www.w3.org/2000/svg" viewBox="0 -1000 1000 1000">
	<path fill="#000000" d="M968 -14C846 -40 774 -76 713 -134C746 -174 773 -236 819 -393C825 -412 829 -418 856 -428C862 -430 865 -432 865 -435C865 -438 862 -441 855 -446L794 -491L765 -451H706V-644H849L797 -536L809 -531C873 -618 893 -631 929 -635C934 -636 937 -637 937 -640C937 -641 935 -644 932 -647L871 -704L840 -666H706V-799C736 -821 737 -821 737 -825C737 -828 733 -830 727 -833L655 -862C657 -827 659 -763 659 -724V-666H531L476 -705C477 -642 478 -584 478 -533C478 -182 455 -115 311 49L320 57C482 -76 514 -179 519 -429H563C582 -290 621 -180 659 -131C619 -87 538 -19 433 47L437 60C530 21 618 -36 685 -103C762 -26 868 37 874 37C877 37 878 35 880 33C896 9 925 -2 968 -1ZM519 -451C520 -501 521 -579 522 -644H659V-451ZM775 -429C748 -294 721 -226 684 -164C643 -214 604 -307 583 -429ZM252 -863C199 -753 139 -648 33 -493L45 -484C65 -506 83 -526 103 -551H226V-413H143C124 -413 95 -415 70 -417L98 -380C115 -387 134 -391 157 -391H226V-95L54 -63L91 -5C93 -1 95 0 98 0C100 0 103 -1 106 -4C146 -35 153 -39 403 -111L400 -128L273 -104V-391H429C435 -391 438 -392 438 -395C438 -398 436 -402 431 -408L381 -467L338 -413H273V-551H422C430 -551 434 -553 434 -557C434 -560 432 -564 427 -569L378 -623L339 -573H120C152 -615 194 -673 261 -772C333 -732 381 -688 404 -647C410 -636 419 -630 427 -630C440 -630 449 -644 449 -661C449 -712 380 -742 269 -783C282 -800 295 -810 313 -814C319 -816 323 -818 323 -821C323 -823 320 -826 314 -829ZM371 -336C358 -300 328 -239 286 -164L298 -155C338 -205 355 -225 389 -267C399 -279 409 -286 425 -291C429 -292 432 -294 432 -296C432 -298 430 -300 426 -302ZM79 -321C111 -280 134 -223 136 -191C137 -171 147 -158 158 -158C177 -158 191 -179 191 -200C191 -237 152 -281 84 -331Z"/>
</svg>