<svg xmlns="http://www.w3.org/2000/svg" viewBox="0 -1000 1000 1000">
	<path fill="#000000" d="M414 -836C465 -791 478 -768 490 -725C497 -700 505 -695 517 -695C525 -695 551 -712 551 -739C551 -763 534 -805 421 -847ZM857 -735L823 -692H210C210 -708 209 -725 207 -743H192C180 -665 154 -624 120 -596C97 -578 95 -573 95 -562C95 -553 107 -539 127 -539C190 -539 206 -630 209 -670H833L780 -578L790 -570C853 -637 885 -657 914 -663C925 -665 929 -668 929 -671C929 -673 927 -676 923 -679ZM708 -572L669 -517H281C258 -517 233 -519 208 -521L236 -484C253 -491 282 -495 303 -495H766C775 -495 780 -497 780 -501C780 -504 776 -509 770 -515ZM876 -407L835 -346H113C90 -346 65 -348 40 -350L68 -313C85 -320 114 -324 135 -324H488V-24C488 -2 482 10 452 10C428 10 390 3 329 -11L326 4C429 37 441 54 449 86C450 91 452 92 454 92C456 92 458 92 460 91C530 66 535 41 535 -13V-324H932C947 -324 953 -326 953 -331C953 -334 950 -339 944 -344ZM625 -223C759 -139 799 -104 837 -47C862 -9 868 -6 877 -6C890 -6 900 -21 900 -47C900 -101 878 -138 633 -236ZM294 -249C236 -154 152 -47 52 47L61 57C141 1 224 -77 320 -178C327 -186 342 -194 353 -196C361 -198 364 -200 364 -202C364 -205 362 -207 357 -210Z"/>
</svg>