<svg xmlns="http://www.w3.org/2000/svg" viewBox="0 -1000 1000 1000">
	<path fill="#000000" d="M389 -309C374 -271 329 -186 301 -140L313 -131C410 -250 424 -260 442 -263C447 -264 450 -266 450 -268C450 -270 448 -272 444 -275ZM85 -283C120 -242 143 -190 145 -161C146 -144 152 -133 163 -133C183 -133 196 -159 196 -181V-185C194 -209 164 -245 95 -294ZM255 -849C198 -694 113 -547 30 -437L41 -428C78 -466 112 -504 146 -552H235V-387H140C121 -387 92 -388 67 -391L95 -355C112 -362 131 -366 154 -366H235V-74L42 -30L83 24C86 27 88 29 90 29C92 29 95 27 98 24C116 6 162 -18 450 -108L448 -123L280 -84V-366H429C438 -366 443 -368 443 -372C443 -375 440 -379 435 -384L383 -435L348 -387H280V-552H410C417 -552 420 -554 420 -557C420 -560 418 -564 413 -569L366 -617L331 -573H161C192 -619 226 -674 264 -744C319 -718 369 -681 403 -640C413 -628 421 -623 427 -623C436 -623 447 -640 447 -657C447 -697 386 -723 273 -760C285 -780 301 -793 317 -798C323 -800 326 -801 326 -804C326 -806 323 -809 318 -812ZM793 -822C797 -751 798 -682 798 -613C798 -535 796 -458 793 -384C784 -166 725 -56 479 74L484 89C657 18 744 -62 791 -152C853 -104 886 -51 902 7C907 25 916 34 923 34C939 34 956 16 956 -10C956 -18 954 -26 951 -35C939 -68 894 -112 798 -166C821 -218 831 -281 839 -387C845 -461 851 -639 850 -754C879 -775 880 -776 880 -779C880 -782 876 -785 868 -788ZM487 -146C487 -102 476 -90 449 -70L495 -28C499 -25 501 -23 504 -23C506 -23 509 -25 512 -30C539 -72 592 -130 724 -251L713 -262L531 -121V-642L564 -664C567 -666 569 -668 569 -670C569 -673 566 -675 562 -677L484 -717C486 -680 487 -618 487 -577ZM546 -814C623 -755 656 -699 665 -638C668 -619 675 -611 688 -611C700 -611 719 -630 719 -658C719 -665 718 -672 715 -680C696 -732 654 -772 555 -827Z"/>
</svg>