<svg xmlns="http://www.w3.org/2000/svg" viewBox="0 -1000 1000 1000">
	<path fill="#000000" d="M910 -264L863 -203L823 -200V-751H951C961 -751 965 -753 965 -757C965 -760 962 -764 957 -771L908 -830L859 -776H475C452 -776 427 -778 402 -780L430 -740C446 -747 479 -751 500 -751V-178L417 -172C407 -171 396 -171 385 -171C372 -171 359 -171 346 -173L375 -138C392 -145 420 -150 440 -150L780 -173V-85C780 -60 778 49 778 72C778 82 779 86 784 86C788 86 794 83 804 79C824 70 828 68 828 52C828 37 823 -62 823 -83V-176L961 -185C970 -186 975 -187 975 -191C975 -195 972 -200 965 -207ZM547 -391V-562H780V-391ZM547 -584V-751H780V-584ZM547 -181V-368H780V-197ZM468 -126L264 -94V-388H434C440 -388 443 -389 443 -393C443 -395 441 -399 436 -405L387 -464L342 -410H264V-541H403C411 -541 414 -542 414 -545C414 -548 412 -553 406 -559L360 -611L318 -567H133C168 -619 207 -681 254 -769C310 -737 365 -678 391 -634C398 -623 410 -615 422 -615C435 -615 445 -627 445 -645C445 -696 394 -730 260 -779C269 -795 282 -804 300 -808C306 -809 310 -811 310 -813C310 -816 307 -819 301 -822L238 -858C202 -753 138 -623 26 -450L39 -441C65 -469 90 -501 118 -541H221V-410H110C91 -410 62 -412 37 -414L65 -377C82 -384 101 -388 124 -388H221V-86L39 -57L75 3C77 6 80 8 82 8C85 8 87 7 90 4C113 -19 133 -30 469 -110ZM65 -328C111 -267 122 -218 122 -188C122 -159 128 -148 143 -148C168 -148 182 -170 182 -200C182 -245 124 -301 75 -336ZM376 -336C359 -304 306 -219 274 -172L286 -160C325 -199 342 -218 378 -254C393 -269 410 -277 426 -280C431 -281 434 -283 434 -285C434 -287 432 -290 428 -293Z"/>
</svg>