<svg xmlns="http://www.w3.org/2000/svg" viewBox="0 -1000 1000 1000">
	<path fill="#000000" d="M254 -851C208 -734 145 -614 39 -450L50 -442C122 -520 174 -598 271 -763C323 -721 364 -666 379 -638C392 -612 398 -608 406 -608C420 -608 437 -628 437 -649C437 -690 369 -729 279 -775C289 -787 303 -797 314 -800C320 -802 324 -804 324 -807C324 -810 321 -813 315 -816ZM902 -167C898 15 893 20 812 20C754 20 745 15 745 -17V-375H942C953 -375 958 -376 958 -380C958 -383 954 -388 947 -396L898 -450L851 -396H694V-597H906C916 -597 921 -598 921 -601C921 -604 917 -609 909 -617L854 -671L808 -618H694V-778L722 -793C730 -797 734 -800 734 -803C734 -806 730 -809 721 -813L646 -849C648 -814 649 -790 649 -751V-618H529C539 -641 550 -667 562 -696C569 -712 577 -718 590 -721C598 -723 601 -725 601 -728C601 -731 598 -734 591 -738L529 -774C504 -673 471 -561 426 -450L440 -447C463 -481 486 -522 520 -597H649V-396H505C483 -396 458 -398 435 -400L462 -365C487 -375 522 -375 548 -375C555 -115 510 -36 301 78L307 92C554 -3 599 -106 599 -375H699V-19C699 47 702 63 811 63C928 63 942 54 961 4C962 1 963 -1 963 -3C963 -6 961 -8 955 -10C930 -19 918 -50 918 -167ZM467 -100L269 -80V-373H409C417 -373 421 -374 421 -377C421 -379 418 -384 412 -390L363 -445L322 -394H269V-527H413C421 -527 425 -528 425 -531C425 -533 422 -538 416 -544L367 -597L324 -548H215C192 -548 167 -550 142 -552L170 -516C184 -522 205 -525 224 -526V-394H127C104 -394 79 -396 54 -398L82 -362C99 -369 128 -373 149 -373H224V-76L28 -57L64 2C67 6 69 8 71 8C74 8 76 7 80 4C95 -8 119 -17 185 -30L468 -86ZM388 -328C371 -289 323 -205 283 -144L296 -132L399 -248C410 -261 424 -269 442 -271C449 -272 452 -273 452 -276C452 -278 450 -281 444 -285ZM69 -306C118 -247 132 -181 132 -157C132 -141 139 -132 151 -132C175 -132 194 -165 190 -193C186 -219 148 -264 79 -313Z"/>
</svg>