<svg xmlns="http://www.w3.org/2000/svg" viewBox="0 -1000 1000 1000">
	<path fill="#000000" d="M65 -274C96 -228 102 -197 102 -149C102 -125 110 -112 123 -112C141 -112 155 -128 155 -156C155 -190 137 -230 72 -281ZM218 -842C189 -738 126 -582 31 -425L44 -417C70 -446 92 -475 116 -515H201V-371H122C98 -371 73 -373 47 -375L75 -339C92 -346 122 -350 144 -350H201V-54L28 -19L61 35C63 38 65 39 67 39C70 39 73 38 76 34C99 6 125 -8 387 -75V-92L242 -62V-350H382C390 -350 394 -352 394 -355C394 -357 392 -361 387 -365L345 -409L311 -371H242V-515H372C381 -515 385 -517 385 -520C385 -522 383 -526 379 -530L334 -573L300 -536H129C158 -586 192 -653 235 -745C286 -718 329 -671 341 -641C350 -618 360 -612 372 -612C384 -612 395 -625 395 -641C395 -648 394 -706 242 -760C248 -779 251 -783 273 -786C285 -788 290 -790 290 -793C290 -795 287 -799 280 -803ZM788 -570V-453H526V-570ZM788 -433V-398C788 -391 788 -387 795 -387C798 -387 804 -388 814 -391C833 -396 838 -401 838 -416C838 -426 836 -467 836 -475V-547L878 -565C884 -568 886 -570 886 -572C886 -574 884 -577 878 -580L809 -627L778 -590H542L478 -649C480 -628 481 -596 481 -572V-466C481 -446 479 -413 477 -394C477 -392 476 -389 476 -388C476 -383 478 -381 483 -381C488 -381 496 -383 508 -388C524 -394 526 -396 526 -412V-433ZM342 -301C322 -258 294 -207 250 -129L266 -118C354 -236 373 -250 392 -254C398 -255 400 -257 400 -259C400 -260 399 -262 395 -265ZM900 -750L858 -698H448C429 -698 407 -699 385 -702L413 -670C427 -675 447 -678 468 -678H967C973 -678 976 -679 976 -681C976 -683 974 -685 970 -689ZM561 -836C610 -800 629 -769 634 -738C640 -714 647 -705 663 -705C683 -705 700 -724 700 -749C700 -803 616 -831 567 -845ZM681 -208C828 -299 848 -306 881 -307C889 -307 893 -308 893 -311C893 -314 890 -317 885 -322L823 -377L785 -341H479C453 -341 426 -343 398 -345L429 -310C448 -317 480 -321 503 -321H781L691 -235L633 -274C635 -251 635 -241 635 -159H439C414 -159 386 -161 358 -163L390 -128C408 -135 440 -139 463 -139H635V-26C635 -9 631 1 599 1C574 1 532 -5 462 -17L458 0C570 26 584 39 593 81C595 86 597 89 601 89C603 89 605 88 607 87C673 59 681 41 681 -13V-139H963C970 -139 973 -140 973 -143C973 -144 972 -147 968 -150L906 -209L859 -159H681Z"/>
</svg>