<svg xmlns="http://www.w3.org/2000/svg" viewBox="0 -1000 1000 1000">
	<path fill="#000000" d="M942 -736C951 -736 956 -738 956 -742C956 -745 953 -750 947 -757L894 -812L852 -758H461C438 -758 413 -759 388 -762L416 -725C433 -732 462 -736 483 -736H587V-517H506L454 -563C456 -532 456 -519 456 -467V-267L425 -242L463 -202C467 -198 471 -196 474 -196C477 -196 481 -199 484 -203L503 -229H585V11H412C389 11 364 10 339 7L367 44C384 37 413 33 434 33H952C962 33 967 32 967 27C967 24 963 19 956 11L903 -44L858 11H750V-234H844C844 -200 844 -196 850 -196C854 -196 861 -199 871 -204C889 -214 893 -218 893 -228V-232C890 -277 889 -299 889 -328V-477L918 -497C923 -500 926 -503 926 -506C926 -509 923 -511 917 -515L855 -551L831 -512H742V-736ZM763 -255L705 -303C707 -281 707 -267 707 -207V11H628V-222L655 -238C661 -242 664 -244 664 -247C664 -250 661 -253 656 -256L597 -294L571 -251H498V-496H587C587 -462 587 -458 594 -458C601 -458 632 -467 632 -485C632 -498 629 -555 629 -567V-736H702V-523L678 -500L719 -467C724 -463 727 -461 730 -461C733 -461 736 -463 739 -467L758 -490H844V-255ZM66 -271C101 -230 124 -178 126 -149C127 -132 133 -121 144 -121C164 -121 177 -147 177 -169V-173C175 -197 145 -233 76 -282ZM232 -835C187 -698 115 -563 30 -445L41 -436C74 -471 100 -502 126 -538H216V-373H133C114 -373 85 -375 60 -377L88 -341C105 -348 124 -352 147 -352H216V-54L42 -14L81 34C84 37 86 39 89 39C91 39 93 37 96 34C114 14 146 0 441 -90L439 -105L261 -64V-131L272 -123C376 -247 383 -252 401 -255C406 -256 409 -258 409 -260C409 -262 407 -264 403 -267L348 -301C335 -270 289 -180 261 -134V-352H408C417 -352 422 -354 422 -358C422 -361 419 -365 414 -370L362 -421L327 -373H261V-538H379C386 -538 389 -540 389 -543C389 -546 387 -550 382 -555L335 -603L300 -559H140C171 -603 202 -658 245 -737C299 -708 350 -663 383 -624C393 -611 400 -605 406 -605C414 -605 428 -619 428 -640C428 -678 394 -693 254 -752C266 -770 280 -780 294 -784C300 -786 303 -787 303 -790C303 -792 300 -795 295 -798Z"/>
</svg>