<svg xmlns="http://www.w3.org/2000/svg" viewBox="0 -1000 1000 1000">
	<path fill="#000000" d="M529 -308H660V-160H529ZM660 -92C660 -84 661 -80 667 -80C671 -80 677 -81 687 -85C702 -90 706 -94 706 -105C706 -117 702 -176 702 -190V-291C728 -307 731 -309 731 -313C731 -316 729 -319 724 -322L673 -363L649 -328H540L485 -380C487 -355 488 -313 488 -293V-170C488 -162 485 -81 485 -64C485 -53 487 -49 493 -49C497 -49 502 -50 508 -52C528 -59 529 -62 529 -74V-140H660ZM945 -418C956 -418 962 -419 962 -422C962 -425 958 -430 950 -438L898 -490L856 -438H482C459 -438 434 -440 409 -442L437 -407C454 -414 483 -418 504 -418H787V-22C787 9 784 23 752 23C730 23 696 17 640 6L639 21C724 41 746 57 754 86C755 91 757 93 760 93C762 93 764 92 767 91C828 62 832 56 832 -15V-418ZM896 -674C904 -674 908 -675 908 -678C908 -681 905 -685 899 -691L836 -752L795 -694H665C669 -718 673 -749 676 -783L700 -800C705 -803 707 -806 707 -808C707 -810 705 -812 701 -813L624 -848C625 -828 625 -808 625 -790C625 -751 623 -717 620 -694H517C494 -694 469 -696 444 -698L472 -663C489 -670 518 -674 539 -674H616C591 -564 569 -536 465 -460L473 -450C578 -504 625 -551 648 -617C738 -570 772 -542 801 -493C806 -484 813 -479 821 -479C831 -479 845 -490 845 -510C845 -560 797 -593 653 -631C657 -645 660 -659 662 -674ZM365 -282C355 -244 314 -167 277 -113L289 -104C393 -228 400 -233 418 -236C423 -237 426 -239 426 -241C426 -243 424 -245 420 -248ZM73 -266C108 -225 131 -173 133 -144C134 -127 140 -116 151 -116C171 -116 184 -142 184 -164V-168C182 -192 152 -228 83 -277ZM243 -849C200 -730 112 -566 27 -445L38 -436C74 -475 104 -510 134 -552H225V-378H128C109 -378 80 -380 55 -382L83 -346C100 -353 119 -357 142 -357H225V-46L47 -7L88 47C91 50 93 52 95 52C97 52 100 50 103 47C121 29 157 11 452 -81L450 -96L270 -56V-357H423C432 -357 437 -359 437 -363C437 -366 434 -370 429 -375L377 -426L342 -378H270V-552H390C397 -552 400 -554 400 -557C400 -560 398 -564 393 -569L346 -617L311 -573H149C190 -634 209 -666 255 -748C309 -722 356 -686 392 -647C403 -635 410 -631 416 -631C424 -631 433 -644 433 -660C433 -703 381 -725 264 -765C275 -781 290 -794 305 -798C311 -800 314 -801 314 -804C314 -806 311 -809 306 -812Z"/>
</svg>