<svg xmlns="http://www.w3.org/2000/svg" viewBox="0 -1000 1000 1000">
	<path fill="#000000" d="M972 -497C871 -517 776 -554 721 -678H917C926 -678 932 -680 932 -685C932 -688 929 -692 923 -697L861 -749L820 -700H610C624 -727 638 -755 653 -784C657 -791 662 -794 676 -798C688 -801 694 -804 694 -808C694 -811 690 -814 681 -819L618 -852C606 -805 587 -754 562 -700H492C469 -700 444 -702 419 -704L447 -667C464 -674 493 -678 514 -678H551C512 -597 458 -510 389 -427L399 -418C478 -484 539 -571 598 -678H700C736 -576 775 -526 876 -454C879 -452 881 -451 884 -451C887 -451 890 -453 893 -457C907 -473 927 -482 972 -484ZM780 -491L743 -451H663V-547L687 -558C693 -561 696 -564 696 -566C696 -568 693 -570 688 -572L615 -600C617 -567 618 -543 618 -509V-451H526C503 -451 478 -453 453 -455L481 -418C498 -425 527 -429 548 -429H618C618 -411 616 -332 616 -316C616 -304 618 -298 625 -298C629 -298 635 -300 643 -304C661 -312 666 -315 666 -325V-328C664 -347 663 -388 663 -429H820C829 -429 835 -431 835 -435C835 -438 832 -443 826 -448ZM437 -116L250 -83V-373H401C410 -373 415 -375 415 -379C415 -382 412 -387 407 -392L357 -442L324 -395H250V-541H383C392 -541 396 -543 396 -546C396 -549 394 -552 390 -556L340 -607L305 -563H135C171 -618 211 -685 255 -762C299 -734 342 -687 363 -655C376 -635 385 -625 393 -625C405 -625 417 -635 417 -653C417 -694 374 -722 260 -772C264 -778 267 -783 270 -789C274 -796 280 -800 291 -802C301 -804 306 -806 306 -810C306 -813 302 -816 295 -819L231 -849C196 -743 123 -592 30 -446L41 -438C63 -460 90 -495 120 -541H205V-395H126C103 -395 78 -397 53 -399L81 -362C98 -369 127 -373 148 -373H205V-75L34 -45L70 10C72 13 74 15 76 15C78 15 81 13 85 9C103 -9 183 -41 440 -100ZM364 -313C350 -283 310 -213 258 -142L267 -133C371 -244 395 -263 413 -265C419 -266 421 -267 421 -269C421 -271 420 -273 416 -276ZM58 -303C93 -253 115 -192 117 -167C119 -143 126 -136 135 -136C150 -136 167 -149 167 -180C167 -210 126 -265 65 -310ZM889 -281L853 -233H778V-321C802 -336 804 -338 804 -341C804 -343 802 -345 797 -347L730 -373C732 -340 733 -309 733 -269V-233H541C542 -258 542 -286 542 -318C569 -337 572 -339 572 -343C572 -345 569 -347 562 -350L498 -373C499 -326 499 -280 498 -233H445C422 -233 397 -235 372 -237L400 -200C417 -207 446 -211 467 -211H497C491 -60 456 -17 313 76L322 86C484 13 532 -47 540 -211H733V-76C733 -56 731 35 731 53C731 66 733 71 740 71C744 71 750 69 757 66C776 58 781 54 781 45C781 43 778 -44 778 -61V-211H941C951 -211 956 -213 956 -217C956 -221 953 -225 947 -230Z"/>
</svg>