<svg xmlns="http://www.w3.org/2000/svg" viewBox="0 -1000 1000 1000">
	<path fill="#000000" d="M270 -102C309 -73 333 -40 339 -20C344 -5 352 1 359 1C376 1 390 -14 390 -32C390 -65 348 -87 276 -111ZM979 -217C828 -220 720 -255 540 -375C544 -376 548 -376 551 -376C564 -376 566 -376 566 -378C566 -380 564 -382 560 -385L515 -424C378 -307 241 -231 21 -152L25 -137C137 -170 230 -204 311 -242L332 -217C349 -224 378 -227 399 -227H482V-135H224C201 -135 176 -136 151 -138L182 -106C199 -112 225 -116 246 -116H482V6H168C145 6 120 5 95 3L123 35C140 29 169 25 190 25H905C913 25 917 24 917 21C917 20 915 17 911 13L856 -43L810 6H637C692 -56 720 -73 737 -74C742 -75 745 -76 745 -78C745 -79 743 -81 738 -83L679 -109C664 -76 649 -49 612 6H528V-116H802C812 -116 816 -117 816 -120C816 -122 813 -125 808 -130L751 -180L719 -135H528V-227H660C669 -227 674 -229 674 -233C674 -236 671 -239 664 -244L611 -280L587 -246H377C360 -246 342 -247 324 -248C395 -282 464 -325 513 -362C515 -364 519 -366 522 -367C632 -267 747 -203 875 -170C878 -169 881 -169 883 -169C887 -169 889 -170 891 -173C906 -193 926 -204 979 -208ZM364 -758L208 -544C192 -522 180 -512 140 -512C122 -512 98 -514 64 -518L66 -502C150 -482 171 -469 171 -440C171 -434 170 -426 168 -418C162 -389 159 -369 159 -355C159 -332 166 -323 185 -323C207 -323 223 -342 223 -381C223 -391 217 -436 217 -445C217 -469 223 -491 239 -522C277 -595 297 -630 379 -750ZM77 -690C130 -663 148 -644 157 -616C165 -592 174 -580 183 -580C201 -580 216 -602 216 -622C216 -628 215 -633 212 -638C200 -660 164 -679 82 -701ZM143 -814C214 -778 233 -759 241 -728C244 -715 257 -699 272 -699C288 -699 299 -715 299 -732C299 -738 298 -743 296 -748C280 -782 249 -802 149 -828ZM370 -581C348 -581 323 -583 300 -584L329 -553C344 -557 371 -561 391 -561H505C481 -420 363 -374 261 -338L266 -322C395 -359 456 -389 507 -448C530 -475 544 -506 554 -561H674V-413C674 -355 703 -352 789 -352C882 -352 902 -357 929 -388C930 -389 930 -390 930 -392C930 -397 926 -404 921 -405C895 -412 885 -452 887 -515H870C858 -392 846 -392 802 -392C720 -392 720 -400 720 -413V-561H939C948 -561 952 -564 952 -568C952 -571 949 -576 944 -581L884 -638L847 -581H646V-692H876C885 -692 889 -694 889 -698C889 -702 886 -707 880 -712L815 -770L778 -712H646V-796L668 -808C675 -812 678 -815 678 -817C678 -819 674 -821 667 -824L598 -847C600 -829 601 -806 601 -785V-712H482C491 -722 499 -731 508 -742C520 -757 526 -760 542 -764C547 -765 549 -767 549 -769C549 -770 547 -772 544 -774L489 -808C460 -746 421 -684 365 -613L381 -608C413 -638 437 -661 465 -692H601V-581Z"/>
</svg>