<svg xmlns="http://www.w3.org/2000/svg" viewBox="0 -1000 1000 1000">
	<path fill="#000000" d="M616 -456C671 -422 713 -388 743 -355L272 -347C343 -395 416 -453 493 -522H818C826 -522 829 -523 829 -526C829 -529 827 -533 822 -538L763 -600L720 -544H240C218 -544 193 -546 170 -548L197 -512C212 -518 241 -522 261 -522H421C379 -467 326 -413 270 -372C253 -360 215 -351 178 -350L210 -297C213 -292 215 -290 219 -290C222 -290 226 -291 232 -294C240 -298 284 -307 358 -312L759 -337C774 -319 785 -303 792 -288C799 -274 809 -265 821 -265C831 -265 844 -280 844 -301C844 -352 758 -415 623 -467ZM854 -33L812 27H524V-136H810C818 -136 821 -137 821 -140C821 -143 819 -146 813 -152L750 -213L709 -158H524V-248L548 -262C553 -265 555 -267 555 -270C555 -272 553 -275 547 -278L476 -316C478 -281 479 -256 479 -217V-158H243C221 -158 196 -160 173 -162L200 -126C215 -132 244 -136 264 -136H479V27H121C98 27 72 25 48 23L76 59C92 53 122 49 143 49H926C932 49 935 47 935 44C935 42 933 39 929 35ZM411 -818C456 -781 479 -741 486 -714C492 -690 498 -686 514 -686C526 -686 546 -711 546 -737C546 -768 519 -794 417 -828ZM870 -721L838 -684H179C180 -698 180 -712 179 -728H164C148 -648 123 -618 92 -596C72 -582 62 -569 62 -557C62 -546 74 -533 95 -533C140 -533 170 -582 178 -662H846L807 -590L819 -581C864 -629 888 -639 927 -643C935 -644 938 -647 938 -651C938 -653 937 -656 934 -659Z"/>
</svg>