<svg xmlns="http://www.w3.org/2000/svg" viewBox="0 -1000 1000 1000">
	<path fill="#000000" d="M932 -35L890 8H873V-277L902 -295C909 -299 912 -302 912 -305C912 -308 909 -311 903 -315L847 -352L824 -322H488L445 -352C485 -386 535 -432 594 -490C599 -495 604 -497 623 -499C633 -500 638 -502 638 -505C638 -508 634 -512 628 -517L578 -556C553 -509 457 -398 384 -322L395 -314C406 -321 418 -330 431 -340C432 -316 433 -283 433 -265V8H366C343 8 318 6 293 4L321 41C338 34 367 30 388 30H963C972 30 976 28 976 24C976 21 974 17 969 11ZM610 8V-300H696V8ZM740 8V-300H829V8ZM476 8V-300H566V8ZM887 -666L845 -620H714C801 -755 823 -779 858 -784C864 -785 866 -786 866 -788C866 -790 865 -792 861 -794L794 -837C766 -767 727 -688 689 -620H497C474 -620 449 -622 424 -624L452 -587C469 -594 498 -598 519 -598H933C942 -598 947 -600 947 -605C947 -608 944 -612 939 -617ZM715 -530C780 -485 841 -420 863 -382C876 -359 889 -348 898 -348C912 -348 927 -358 927 -387C927 -431 870 -477 723 -542ZM421 -124L254 -85V-367H398C407 -367 411 -369 411 -373C411 -376 409 -380 404 -386L364 -437L326 -389H254V-530H388C396 -530 400 -532 400 -536C400 -539 397 -543 392 -548L345 -596L307 -552H125C160 -605 203 -674 252 -760C309 -717 346 -667 355 -641C365 -612 374 -605 385 -605C400 -605 413 -619 413 -640C413 -669 392 -704 259 -773C262 -777 264 -781 266 -785C270 -793 276 -796 292 -799C305 -802 310 -805 310 -808C310 -811 307 -815 300 -819L240 -860C206 -762 104 -570 22 -441L32 -434C52 -453 78 -485 110 -530H210V-389H114C91 -389 66 -391 41 -393L69 -356C86 -363 115 -367 136 -367H210V-75L31 -34L69 18C72 22 74 24 77 24C79 24 82 22 85 18C99 2 129 -15 421 -107ZM80 -298C112 -252 122 -196 122 -161C122 -136 127 -128 143 -128C158 -128 176 -148 176 -170C176 -199 153 -247 89 -307ZM495 -819C546 -765 562 -724 572 -683C580 -650 584 -644 597 -644C610 -644 633 -663 633 -692C633 -729 588 -779 503 -828ZM353 -319C334 -275 293 -194 263 -140L274 -134C367 -254 382 -266 402 -269C408 -270 411 -272 411 -274C411 -276 409 -278 405 -281Z"/>
</svg>