<svg xmlns="http://www.w3.org/2000/svg" viewBox="0 -1000 1000 1000">
	<path fill="#000000" d="M784 -690L758 -658H561L507 -708C509 -682 509 -641 509 -613V-529C509 -517 508 -464 508 -453C508 -443 510 -438 515 -438C519 -438 524 -440 532 -444C551 -453 554 -456 554 -469V-488H769V-459C769 -452 770 -449 774 -449C778 -449 783 -451 791 -454C812 -463 817 -467 817 -476V-479C815 -502 814 -528 814 -555V-617C842 -631 845 -633 845 -637C845 -639 842 -642 838 -646ZM554 -510V-636H769V-510ZM247 -870C217 -781 113 -573 30 -442L42 -433C61 -452 83 -477 117 -530H208V-394H113C90 -394 65 -396 40 -398L68 -361C85 -368 114 -372 135 -372H208V-75L41 -44L72 11C74 15 76 17 78 17C81 17 84 15 87 11C100 -3 107 -10 194 -36L396 -97L392 -110L253 -84V-372H395C404 -372 408 -373 408 -377C408 -380 406 -385 401 -391L358 -442L319 -394H253V-530H377C386 -530 391 -531 391 -535C391 -538 388 -542 384 -547L336 -601L293 -552H131C162 -602 202 -670 257 -769C309 -736 352 -691 374 -661C387 -643 398 -635 406 -635C418 -635 430 -645 430 -663C430 -669 429 -676 426 -683C416 -707 371 -742 266 -784C275 -806 282 -808 298 -811C309 -813 314 -815 314 -819C314 -821 310 -824 304 -829ZM73 -310C103 -264 114 -217 116 -176C118 -144 124 -139 138 -139C153 -139 170 -160 170 -185C170 -216 148 -259 83 -317ZM885 -826L842 -777H496C473 -777 448 -779 423 -781L451 -744C468 -751 497 -755 518 -755H928C937 -755 942 -757 942 -761C942 -764 939 -768 934 -774ZM532 -349C563 -314 570 -283 570 -252C570 -228 577 -220 587 -220C605 -220 619 -245 619 -263C619 -291 598 -325 539 -357ZM360 -323C349 -294 321 -238 260 -149L272 -142C373 -258 387 -268 406 -269C411 -269 414 -270 414 -272C414 -274 412 -276 408 -280ZM869 -440L836 -404H479L420 -453C421 -424 423 -369 423 -336V-124C423 -50 421 9 419 41V49C419 62 422 67 429 67C433 67 439 65 446 62C467 53 471 49 471 38V34C469 -2 468 -48 468 -122V-382H850V-24C850 -11 848 -4 826 -4C808 -4 777 -8 721 -17L718 -2C794 18 813 40 816 72C817 77 819 80 822 80C824 80 826 79 829 78C887 49 895 38 895 -10V-360L921 -373C926 -376 929 -378 929 -381C929 -384 927 -387 922 -391ZM775 -242L739 -195H672C746 -306 758 -316 780 -319C784 -320 786 -321 786 -322C786 -324 785 -325 782 -327L722 -364C714 -326 698 -287 653 -195H553C530 -195 505 -197 480 -199L508 -162C525 -169 554 -173 575 -173H626V-112C626 -90 624 5 624 25C624 36 626 41 633 41C637 41 642 40 650 36C670 27 674 24 674 13V9C672 -24 671 -66 671 -111V-173H809C818 -173 822 -175 822 -179C822 -182 820 -186 815 -192Z"/>
</svg>