<svg xmlns="http://www.w3.org/2000/svg" viewBox="0 -1000 1000 1000">
	<path fill="#000000" d="M782 -649L760 -622H542L480 -664C481 -644 481 -613 481 -598V-530C481 -518 480 -464 480 -453C480 -443 482 -438 488 -438C492 -438 497 -440 504 -443C525 -452 525 -455 525 -476H772C772 -444 772 -441 777 -441C782 -441 819 -452 819 -467C819 -483 817 -508 817 -524V-580L842 -594C847 -597 849 -599 849 -601C849 -604 847 -606 842 -609ZM525 -498V-600H772V-498ZM385 -108L231 -78V-379H366C374 -379 378 -380 378 -383C378 -385 375 -389 369 -396L330 -441L303 -400H231V-531H380C388 -531 392 -532 392 -535C392 -537 389 -541 383 -547L339 -590L312 -552H121C153 -606 189 -674 228 -759C277 -733 305 -697 332 -647C341 -631 349 -625 359 -625C372 -625 385 -640 385 -660C385 -703 347 -726 235 -772C246 -793 256 -801 269 -805C276 -808 280 -810 280 -812C280 -815 277 -818 270 -822L209 -854C179 -746 122 -607 26 -441L36 -435C60 -460 83 -491 108 -531H186V-400H122C99 -400 74 -402 49 -404L77 -368C94 -375 123 -379 144 -379H186V-69L29 -39L69 15C72 19 74 20 76 20C78 20 80 19 82 16C99 -4 121 -17 178 -33L386 -92ZM62 -309C90 -265 97 -219 97 -184C97 -165 107 -150 121 -150C138 -150 152 -168 152 -191C152 -215 135 -251 72 -316ZM710 -309L690 -282H579L521 -321C522 -301 522 -270 522 -255V-163C522 -149 521 -88 521 -76C521 -63 523 -58 529 -58C532 -58 537 -60 544 -63C564 -71 565 -75 565 -83V-115H703V-81C703 -76 704 -73 709 -73C710 -73 750 -83 750 -96C750 -108 747 -157 747 -167V-240L772 -254C776 -257 778 -259 778 -261C778 -263 776 -265 772 -267ZM565 -137V-260H703V-137ZM580 -845C612 -818 626 -791 634 -760C639 -741 646 -734 657 -734C674 -734 690 -757 690 -779C690 -814 622 -844 587 -857ZM881 -775L847 -729H459C436 -729 411 -731 386 -733L414 -696C431 -703 460 -707 481 -707H936C944 -707 948 -708 948 -710C948 -713 945 -717 938 -723ZM324 -331C311 -304 267 -227 238 -179L249 -172C276 -200 298 -224 329 -257C339 -268 354 -276 370 -281C376 -283 378 -284 378 -286C378 -288 376 -290 371 -294ZM852 -417L831 -391H455L390 -441C392 -408 394 -362 394 -325V-81C394 -45 393 -3 391 50V57C391 73 393 79 401 79C412 79 438 70 438 51V-369H846V-14C846 -1 843 7 819 7C802 7 774 3 728 -6L725 8C793 28 811 43 816 69C817 75 819 78 823 78C825 78 827 77 830 75C883 45 892 29 892 -21V-350L914 -365C919 -368 921 -370 921 -373C921 -375 919 -377 914 -380Z"/>
</svg>