<svg xmlns="http://www.w3.org/2000/svg" viewBox="0 -1000 1000 1000">
	<path fill="#000000" d="M855 -386L824 -355H483L422 -409C424 -381 425 -337 425 -315V-87C425 -25 424 22 422 59V71C422 83 424 87 430 87C434 87 440 85 448 82C468 74 470 71 470 59V5H836V55C836 64 837 69 843 69C847 69 853 66 862 62C882 52 887 48 887 37C887 34 886 31 886 28C883 -6 881 -50 881 -102V-315C914 -332 914 -332 914 -336C914 -339 912 -342 907 -345ZM669 -193V-334H836V-193ZM470 -193V-334H624V-193ZM669 -16V-172H836V-16ZM470 -16V-172H624V-16ZM881 -779L850 -745H674C651 -745 626 -747 601 -749L628 -713C655 -724 692 -724 703 -724C699 -547 674 -496 531 -383L538 -373C698 -459 739 -528 745 -724H863C860 -629 856 -578 850 -522C846 -483 836 -465 795 -465C776 -465 750 -468 716 -476L714 -461C783 -441 793 -431 804 -402C805 -398 807 -396 810 -396C812 -396 815 -397 819 -399C885 -436 892 -470 904 -703L936 -717C942 -720 944 -722 944 -725C944 -727 942 -731 936 -735ZM397 -122L232 -89V-380H369C378 -380 383 -382 383 -386C383 -389 380 -393 375 -399L330 -446L289 -401H232V-557H346C355 -557 359 -558 359 -562C359 -564 357 -567 353 -572L307 -622L268 -578H120C145 -622 175 -680 221 -772C273 -735 310 -691 326 -661C336 -642 342 -638 351 -638C367 -638 375 -648 375 -665C375 -671 374 -678 372 -685C363 -713 316 -750 229 -787C234 -801 240 -805 254 -807C265 -809 270 -811 270 -815C270 -817 267 -820 262 -824L207 -864C150 -704 98 -581 28 -475L40 -466C66 -495 85 -519 108 -557H187V-401H111C88 -401 63 -403 38 -405L65 -369C82 -376 111 -380 132 -380H187V-80L34 -49L69 5C72 9 74 11 76 11C78 11 80 9 83 5C92 -7 115 -17 176 -36L398 -106ZM65 -311C94 -262 102 -221 102 -179C102 -155 110 -144 122 -144C139 -144 155 -165 155 -192C155 -224 139 -255 74 -318ZM610 -839C558 -801 522 -777 460 -742L403 -791C405 -757 406 -696 406 -659V-505C406 -486 400 -476 377 -459L420 -420C423 -418 425 -417 427 -417C429 -417 431 -419 433 -423C438 -436 466 -477 481 -490L572 -573C575 -562 577 -550 578 -537C580 -517 587 -507 598 -507C616 -507 629 -521 629 -551C629 -583 607 -616 525 -680L516 -670C542 -637 558 -614 567 -591L451 -506V-717C492 -733 541 -753 599 -778C610 -783 624 -786 640 -786C643 -786 654 -785 657 -785C660 -785 662 -786 662 -788C662 -789 661 -792 658 -794ZM333 -316C316 -286 273 -217 244 -175L260 -168L349 -255C355 -261 361 -264 378 -267C388 -269 392 -271 392 -273C392 -276 389 -279 382 -284Z"/>
</svg>