<svg xmlns="http://www.w3.org/2000/svg" viewBox="0 -1000 1000 1000">
	<path fill="#000000" d="M837 5H477C457 5 434 3 412 1L437 36C452 29 478 25 497 25H837V68C837 77 838 81 844 81C848 81 853 79 862 75C879 66 882 63 882 48V41C879 -9 879 -55 879 -99V-249L907 -267C912 -271 914 -274 914 -277C914 -280 912 -283 908 -286L849 -331L820 -289H505C484 -289 462 -291 439 -293L465 -258C480 -265 506 -269 525 -269H837V-148H552C532 -148 509 -150 486 -152L512 -117C527 -124 553 -128 572 -128H837ZM525 -577H487C468 -577 445 -579 422 -581L448 -546C472 -557 501 -557 525 -557V-438H459C438 -438 416 -440 393 -442L418 -407C434 -414 460 -418 479 -418H525V-349C524 -339 525 -334 530 -334C533 -334 539 -336 547 -341C564 -351 567 -354 567 -367V-418H670C679 -418 683 -420 683 -423C683 -427 680 -432 674 -438L632 -485L597 -438H567V-557H650C659 -557 663 -559 663 -563C663 -566 660 -571 654 -577L618 -613L592 -577H567V-688H675C685 -688 690 -689 690 -693C690 -696 686 -701 679 -708L635 -752L603 -708H567V-789C588 -804 590 -806 590 -809C590 -811 588 -813 584 -815L523 -844C525 -803 525 -794 525 -708H474C454 -708 431 -710 408 -712L434 -677C449 -684 475 -688 494 -688H525ZM783 -578C747 -578 743 -578 697 -582L723 -547C738 -554 764 -558 783 -558V-439H745C724 -439 701 -441 679 -443L704 -408C728 -419 760 -419 783 -419V-351C783 -341 784 -336 789 -336C793 -336 827 -347 827 -364C827 -366 825 -410 825 -419H948C957 -419 962 -420 962 -424C962 -427 959 -432 952 -439L904 -488L871 -439H825V-558H917C925 -558 929 -560 929 -564C929 -568 926 -573 920 -579L882 -620L856 -578H825V-692H942C950 -692 955 -694 955 -698C955 -701 952 -706 946 -712L901 -758L862 -712H825V-781C847 -798 849 -800 849 -806C849 -809 847 -812 843 -814L780 -846C783 -783 783 -756 783 -712H749C729 -712 707 -714 684 -716L710 -681C734 -692 763 -692 783 -692ZM357 -295C344 -264 300 -172 274 -126L285 -117C384 -241 391 -246 408 -249C413 -250 415 -252 415 -254C415 -256 414 -258 410 -261ZM89 -279C122 -238 144 -186 146 -157C147 -140 152 -129 163 -129C185 -129 194 -154 194 -175C194 -205 166 -239 98 -290ZM246 -839C204 -716 120 -547 41 -435L52 -426C86 -462 115 -498 145 -542H225V-377H137C119 -377 92 -379 68 -381L94 -345C111 -352 129 -356 150 -356H225V-56L60 -20L99 34C102 37 104 39 106 39C108 39 110 37 113 34C130 16 151 5 429 -86L427 -101L270 -66V-356H405C414 -356 418 -358 418 -362C418 -365 416 -369 411 -374L361 -425L328 -377H270V-542H386C392 -542 395 -544 395 -547C395 -550 393 -554 389 -559L344 -607L311 -563H158C188 -608 219 -663 256 -735C307 -709 348 -668 381 -630C391 -618 398 -613 404 -613C414 -613 423 -630 423 -646C423 -688 375 -709 265 -751C277 -772 290 -783 305 -788C311 -790 314 -791 314 -794C314 -796 311 -799 306 -802Z"/>
</svg>