<svg xmlns="http://www.w3.org/2000/svg" viewBox="0 -1000 1000 1000">
	<path fill="#000000" d="M534 -410C536 -379 537 -347 537 -308V-233C537 -176 536 -141 534 -108C534 -102 533 -98 533 -94C533 -82 535 -77 541 -77C545 -77 550 -79 557 -82C573 -89 575 -92 575 -107V-131H649V-101C649 -92 650 -88 655 -88C658 -88 664 -90 673 -94C688 -101 692 -105 692 -121V-128C689 -173 688 -202 688 -236V-333C709 -348 712 -350 712 -355C712 -358 710 -361 705 -364L663 -398L641 -363H583ZM575 -153V-340H649V-153ZM858 -341V-153H779V-341ZM858 -131C858 -94 858 -94 864 -94C868 -94 874 -96 882 -100C897 -107 902 -111 902 -125C902 -131 897 -219 897 -237V-331C913 -339 924 -345 924 -348C924 -351 921 -355 914 -359L867 -394L847 -364H787L738 -412C740 -381 741 -349 741 -310V-211C741 -194 737 -117 737 -102C737 -90 739 -85 745 -85C749 -85 754 -87 761 -90C779 -98 779 -102 779 -131ZM584 -687C586 -661 587 -633 587 -606V-521C587 -508 582 -441 582 -437C582 -430 584 -427 588 -427C592 -427 599 -430 609 -434C626 -442 626 -445 626 -472H801C801 -438 801 -434 807 -434C811 -434 816 -436 825 -441C840 -449 843 -452 843 -464C843 -473 840 -515 840 -523V-613C868 -628 872 -630 872 -635C872 -638 869 -642 864 -645L815 -684L791 -650H628ZM626 -494V-628H801V-494ZM354 -302C343 -262 315 -198 278 -128L290 -120C384 -249 392 -255 408 -258C413 -260 415 -261 415 -263C415 -265 413 -268 409 -270ZM81 -285C114 -244 137 -192 138 -163C139 -146 145 -135 156 -135C175 -135 187 -161 187 -182C187 -215 146 -255 90 -296ZM240 -847C195 -718 113 -548 37 -441L47 -432C81 -468 106 -500 139 -548H222V-383H134C115 -383 88 -385 64 -387L90 -351C107 -358 125 -362 147 -362H222V-65L56 -26L95 28C98 31 100 33 102 33C105 33 107 31 110 28C127 10 150 -2 405 -92L403 -107L267 -75V-362H402C410 -362 415 -364 415 -368C415 -371 412 -375 407 -380L357 -431L324 -383H267V-548H385C392 -548 395 -550 395 -553C395 -556 393 -560 388 -565L343 -613L309 -569H152C181 -616 212 -671 251 -745C307 -713 337 -684 369 -636C377 -623 385 -619 391 -619C399 -619 411 -634 411 -653C411 -701 333 -734 260 -762C272 -781 285 -792 300 -796C306 -798 308 -799 308 -802C308 -804 306 -807 301 -810ZM435 -813C437 -746 439 -697 439 -650V-24L409 -1L456 37C459 40 462 41 465 41C470 41 472 38 489 14H933C946 14 952 13 952 8C952 5 949 0 943 -8L895 -66L857 -8H480V-738H912C922 -738 927 -740 927 -744C927 -748 924 -753 918 -760L866 -817L830 -760H487Z"/>
</svg>