<svg xmlns="http://www.w3.org/2000/svg" viewBox="0 -1000 1000 1000">
	<path fill="#000000" d="M766 -839C744 -727 720 -637 682 -520L657 -550L627 -511H599V-640H679C691 -640 696 -641 696 -644C696 -647 693 -651 686 -658L649 -695L616 -660H599V-769C629 -783 632 -785 632 -789C632 -792 629 -795 621 -798L559 -825C561 -805 561 -775 561 -704V-660H474V-767L501 -780C504 -782 506 -784 506 -786C506 -788 504 -790 499 -792L434 -823C436 -798 436 -775 436 -706V-660C404 -660 399 -660 351 -664L385 -629C403 -636 419 -640 436 -640V-511H404C385 -511 368 -512 348 -514C349 -516 346 -521 342 -525L299 -567L267 -530H127C155 -577 188 -640 228 -727C264 -695 282 -664 291 -642C299 -623 306 -611 318 -611C331 -611 343 -624 343 -641C343 -671 314 -693 235 -741C245 -767 248 -771 270 -773C281 -774 286 -776 286 -779C286 -782 282 -786 276 -790L218 -829C171 -666 128 -573 34 -425L45 -416C74 -450 87 -467 115 -510H201V-379H133C110 -379 86 -381 61 -382L88 -347C104 -354 133 -358 153 -358H201V-78L44 -38L78 13C80 16 82 17 83 17C86 17 89 15 92 11C107 -8 166 -38 364 -102L363 -118L242 -87V-358H355C362 -358 366 -360 366 -363C366 -365 364 -369 360 -373L320 -416L288 -379H242V-510H340L368 -480C385 -487 412 -491 433 -491H673C666 -468 658 -444 649 -418L659 -412C672 -432 691 -468 706 -503C705 -359 729 -218 763 -137C721 -54 695 -19 601 64L607 73C710 6 736 -19 783 -96C827 -13 878 54 886 54C888 54 891 53 893 50C905 35 922 23 965 27L967 17C905 -10 849 -62 807 -139C844 -219 877 -354 886 -595H953C964 -595 969 -596 969 -600C969 -603 965 -607 959 -614L915 -658L879 -615H751C767 -660 778 -692 794 -752C800 -774 806 -785 829 -793C835 -795 838 -797 838 -800C838 -802 834 -805 827 -809ZM86 -284C115 -238 121 -208 121 -161C121 -137 129 -125 142 -125C158 -125 172 -140 172 -168C172 -202 155 -239 93 -290ZM561 -511H474V-640H561ZM744 -595H844C839 -378 813 -259 785 -186C753 -264 727 -391 722 -540ZM395 -440C397 -404 399 -339 399 -300V-101C399 -94 396 13 396 34C396 53 399 60 406 60C411 60 439 47 439 29V-137H604V-45C604 -28 602 -20 574 -20C559 -20 538 -22 507 -26L506 -14C565 -1 581 10 588 34C590 41 594 44 598 44C600 44 603 43 605 41C637 19 644 7 644 -55V-367C668 -380 671 -381 671 -384C671 -386 668 -389 663 -392L612 -430L587 -398H452ZM604 -157H439V-260H604ZM439 -379H604V-280H439ZM312 -319C301 -275 283 -218 250 -138L265 -131C326 -246 346 -273 364 -280C369 -282 372 -283 372 -285C372 -286 370 -288 366 -290Z"/>
</svg>