<svg xmlns="http://www.w3.org/2000/svg" viewBox="0 -1000 1000 1000">
	<path fill="#000000" d="M164 -794C165 -762 166 -724 166 -697V-354H93C71 -354 47 -356 24 -358L50 -323C66 -329 94 -333 114 -333H248L136 -134C114 -96 106 -90 56 -86L90 -22C92 -19 95 -17 99 -17C102 -17 106 -19 110 -22C130 -39 154 -49 220 -67L402 -117C408 -99 412 -82 413 -63C414 -48 425 -37 438 -37C455 -37 469 -60 469 -82C469 -86 469 -89 468 -93C464 -119 438 -160 341 -237L332 -228C364 -189 384 -159 396 -131L142 -95C211 -192 242 -238 300 -333H516C524 -333 529 -335 529 -338C529 -341 526 -345 520 -351L469 -404L433 -354H211V-464H447C453 -464 457 -465 457 -469C457 -471 455 -473 452 -477L410 -525L375 -484H211V-597H447C453 -597 456 -598 456 -601C456 -603 454 -606 450 -609L404 -652L376 -617H211V-730H489C495 -730 498 -732 498 -735C498 -737 496 -741 492 -744L440 -793L411 -752H220ZM708 -426C740 -175 789 -59 881 42C883 44 888 46 892 46C897 46 903 44 907 40C918 29 928 24 960 24C968 24 978 24 990 25L988 11C870 -23 789 -117 726 -426H953C963 -426 968 -427 968 -430C968 -433 965 -436 960 -441L902 -506L867 -448H704C708 -511 709 -574 709 -719C740 -724 770 -730 813 -738C836 -742 853 -744 868 -744C874 -744 898 -741 902 -741C906 -741 907 -742 907 -744C907 -745 906 -748 903 -751L849 -807C724 -757 672 -743 487 -704L489 -689C572 -699 611 -704 664 -711C665 -612 664 -507 660 -448H509C486 -448 460 -448 436 -450L464 -416C480 -422 510 -426 531 -426H659C642 -208 588 -89 361 69L367 83C628 -68 684 -185 702 -426Z"/>
</svg>