<svg xmlns="http://www.w3.org/2000/svg" viewBox="0 -1000 1000 1000">
	<path fill="#000000" d="M422 -810L394 -775H176L111 -834C113 -797 115 -730 115 -689V-164C115 -107 114 -18 112 40V50C112 66 114 72 121 72C125 72 131 70 139 66C161 55 165 51 165 38V32C162 -12 162 -86 162 -162V-547H404C404 -518 404 -515 410 -515C411 -515 452 -527 452 -544C452 -551 449 -595 449 -605V-732L482 -750C486 -752 488 -754 488 -756C488 -758 487 -760 484 -762ZM162 -678V-753H404V-678ZM162 -567V-655H404V-567ZM868 -814L840 -771H636L579 -820C581 -789 582 -763 582 -740V-615C582 -583 582 -569 580 -545C579 -539 579 -535 579 -531C579 -520 582 -515 590 -515C594 -515 600 -517 608 -519C624 -524 627 -530 627 -548H851V-18C851 2 849 12 819 12C800 12 770 8 721 0L719 14C796 33 809 47 820 81C822 87 823 89 826 89C828 89 830 88 833 87C895 58 898 49 898 10V-729L926 -745C932 -749 935 -752 935 -755C935 -758 932 -761 927 -765ZM627 -678V-751H851V-678ZM627 -569V-655H851V-569ZM659 -477L633 -440H358L302 -494C303 -467 304 -377 304 -341V-96C304 -74 295 -58 261 -40L308 16C310 18 312 19 314 19C316 19 318 18 320 15C339 -13 372 -40 508 -109L504 -122L348 -64V-220H645C645 -211 647 -206 653 -206C657 -206 663 -208 670 -211C687 -219 690 -224 690 -238C690 -243 687 -314 687 -328V-405C693 -409 720 -424 720 -427C720 -429 718 -432 714 -435ZM348 -347V-419H645V-347ZM348 -243V-326H645V-243ZM459 -554C480 -529 493 -503 493 -480C493 -463 499 -457 513 -457C529 -457 541 -476 541 -494C541 -527 503 -547 466 -562ZM703 -220C663 -191 632 -172 571 -142C531 -162 484 -182 432 -202L427 -191C576 -100 621 -63 655 -17C666 -1 671 2 678 2C696 2 699 -22 699 -32C699 -43 696 -54 689 -62C671 -80 637 -105 591 -131C695 -167 715 -169 737 -169C745 -169 748 -170 748 -172C748 -174 747 -175 745 -177Z"/>
</svg>