<svg xmlns="http://www.w3.org/2000/svg" viewBox="0 -1000 1000 1000">
	<path fill="#000000" d="M622 -543C575 -527 504 -513 329 -485L271 -536C272 -509 273 -458 273 -422V-318C273 -300 271 -296 242 -279L266 -242C268 -239 270 -237 272 -237C274 -237 291 -250 292 -251C293 -230 293 -208 293 -193V-44C293 -34 289 12 289 21C289 31 291 34 297 34C300 34 305 33 311 31C332 23 333 20 333 8V-17H613V16C613 24 614 28 620 28C623 28 629 27 638 23C655 15 658 11 658 -4C658 -9 655 -81 655 -95V-204C668 -211 669 -212 669 -215C669 -218 668 -220 664 -223L653 -232C701 -201 748 -191 767 -191C775 -191 785 -192 785 -203C785 -208 783 -213 779 -218C766 -233 761 -250 761 -299C761 -311 761 -325 762 -342H748C737 -273 734 -261 725 -248C661 -259 609 -306 576 -381H780C789 -381 794 -383 794 -387C794 -391 791 -396 785 -403L743 -451L701 -403H568C560 -429 554 -459 552 -490C597 -495 619 -497 635 -497C640 -497 664 -493 669 -493C672 -493 673 -494 673 -496C673 -498 672 -501 668 -504ZM605 -662H848V-589H605ZM313 -468C369 -471 440 -477 511 -485C518 -451 524 -425 530 -403H313ZM605 -242H337L314 -254C338 -266 409 -289 501 -318L496 -332L313 -294V-381H537C555 -326 586 -286 619 -258ZM333 -221H613V-149H333ZM333 -127H613V-40H333ZM156 -660H388V-588H156ZM164 -777L110 -832C112 -796 114 -729 114 -689V-162C114 -105 113 -17 111 41V51C111 66 113 72 119 72C123 72 128 70 135 67C155 57 159 54 159 40V33C156 -11 156 -85 156 -160V-566H388V-539C388 -535 388 -532 391 -532C392 -532 434 -547 434 -562C434 -568 431 -612 431 -621V-739L457 -755C462 -757 464 -759 464 -762C464 -764 462 -766 459 -768L398 -813L372 -777ZM156 -754H388V-682H156ZM616 -777L561 -826C563 -796 564 -772 564 -749V-643C564 -612 564 -598 562 -573C561 -566 561 -561 561 -556C561 -546 563 -542 569 -542C573 -542 579 -544 587 -547C602 -553 605 -556 605 -567H848V-29C848 -11 846 -2 820 -2C800 -2 766 -7 709 -18L707 0C795 22 808 36 815 76C816 81 817 84 821 84C822 84 824 83 827 82C886 54 892 40 892 -1V-735L919 -750C925 -753 928 -756 928 -759C928 -762 925 -766 920 -770L864 -817L836 -777ZM605 -755H848V-684H605Z"/>
</svg>