<svg xmlns="http://www.w3.org/2000/svg" viewBox="0 -1000 1000 1000">
	<path fill="#000000" d="M825 -570C825 -491 821 -390 813 -304C811 -277 807 -264 776 -264C756 -264 727 -269 680 -279L676 -266C748 -241 758 -235 767 -196C768 -189 771 -186 775 -186C776 -186 778 -187 781 -188C839 -215 851 -233 855 -277C862 -367 867 -446 871 -554L903 -577C907 -580 909 -582 909 -585C909 -587 907 -590 903 -593L841 -643L809 -589L674 -554V-746L702 -763C708 -766 711 -769 711 -773C711 -776 707 -779 701 -783L628 -823C629 -780 630 -698 630 -542L485 -504V-628L511 -644C517 -648 520 -651 520 -654C520 -658 517 -661 511 -664L438 -703C440 -655 441 -567 441 -492L371 -474C351 -469 334 -465 313 -464L349 -431C367 -443 386 -449 441 -464V-59C441 20 451 32 573 37C612 39 648 40 680 40C717 40 750 39 777 37C898 31 923 27 952 -29C954 -33 955 -37 955 -39C955 -43 953 -46 948 -49C926 -63 920 -79 920 -145C920 -163 920 -184 921 -209H904C886 -15 878 -8 803 -5C749 -3 709 -2 671 -2C494 -2 485 -8 485 -59V-476L630 -516V-287C630 -229 630 -182 628 -140V-129C628 -114 630 -108 637 -108C640 -108 645 -110 652 -114C672 -126 676 -131 676 -149C676 -173 674 -278 674 -299V-528ZM99 -799C101 -759 103 -701 103 -653V-146C103 -89 102 -17 100 45V52C100 69 102 76 110 76C114 76 120 75 127 71C148 61 152 56 152 42V37C149 -8 148 -80 148 -156V-728H301L219 -494C295 -404 312 -355 312 -305C312 -249 303 -228 258 -228C239 -228 213 -232 179 -238V-223C243 -211 260 -198 266 -167C267 -161 270 -158 274 -158C280 -158 363 -189 363 -284C363 -347 335 -406 243 -500L313 -647C337 -697 353 -716 383 -729C388 -731 390 -734 390 -736C390 -739 389 -741 385 -744L322 -793L288 -750H161Z"/>
</svg>