<svg xmlns="http://www.w3.org/2000/svg" viewBox="0 -1000 1000 1000">
	<path fill="#000000" d="M973 -7C862 -22 771 -57 703 -122C759 -189 797 -272 832 -377C839 -399 847 -407 868 -413C874 -415 877 -417 877 -420C877 -422 875 -425 872 -428L811 -480L783 -446H694V-642H852L795 -539L808 -532C860 -603 902 -625 938 -625C943 -625 951 -625 951 -629C951 -631 950 -634 946 -637L880 -697L848 -664H694V-785L718 -803C725 -808 729 -812 729 -815C729 -818 725 -820 719 -823L644 -856C646 -820 648 -752 648 -710V-664H502L433 -717C434 -669 435 -608 435 -546C435 -196 412 -97 218 66L227 78C431 -72 473 -155 480 -424H540C564 -288 593 -195 649 -120C576 -39 475 17 332 71L339 85C497 37 600 -16 675 -91C748 -12 872 51 877 51C880 51 882 49 884 45C896 21 920 4 973 3ZM480 -446L486 -642H648V-446ZM788 -424C763 -308 727 -221 674 -151C619 -216 580 -305 559 -424ZM332 -802L298 -757H162L101 -806C103 -769 105 -700 105 -659V-159C105 -102 104 -12 102 47V57C102 73 104 79 111 79C115 79 121 77 129 73C150 64 154 61 154 46V39C151 -6 150 -81 150 -157V-735H306L218 -517C300 -438 315 -397 315 -304C315 -262 301 -238 236 -238C216 -238 192 -240 161 -245L159 -229C216 -215 237 -198 244 -173C246 -166 248 -162 251 -162C255 -162 357 -215 364 -293C365 -301 365 -310 365 -319C365 -371 347 -430 241 -520L311 -650C344 -712 352 -719 392 -730C398 -732 401 -733 401 -736C401 -738 398 -741 394 -745Z"/>
</svg>