<svg xmlns="http://www.w3.org/2000/svg" viewBox="0 -1000 1000 1000">
	<path fill="#000000" d="M804 -515V-386H524V-515ZM524 -364H804V-234H524ZM804 -28C804 -14 798 -3 761 -3C738 -3 703 -7 650 -18L647 -4C743 20 760 24 766 62C767 68 769 71 773 71C775 71 777 71 780 69C843 34 851 28 851 -15V-498L879 -512C885 -515 887 -518 887 -520C887 -523 885 -526 880 -530L817 -580L790 -537H512C530 -572 549 -611 567 -652H943C951 -652 956 -654 956 -658C956 -660 953 -664 948 -669L883 -727L844 -674H577C590 -702 604 -734 618 -769C626 -789 632 -795 652 -802C659 -805 663 -807 663 -811C663 -813 660 -817 653 -820L582 -857C570 -800 552 -738 528 -674H426C407 -674 378 -676 353 -678L381 -641C398 -648 417 -652 440 -652H520C477 -541 417 -424 349 -308L361 -300C401 -352 439 -406 477 -473V-99C477 -91 474 19 474 41C474 58 476 65 484 65C488 65 494 63 503 59C521 51 524 46 524 34V-212H804ZM97 -807C99 -775 101 -708 101 -661V-143C101 -86 100 -4 98 55V62C98 78 100 85 108 85C112 85 117 83 125 79C142 71 146 67 146 51V45C144 17 143 -51 143 -151V-738H290L201 -480C274 -401 298 -339 298 -256C298 -205 294 -169 237 -169C217 -169 192 -174 159 -182L157 -164C200 -151 227 -135 240 -113C243 -108 246 -105 250 -105C253 -105 255 -106 258 -107C289 -118 347 -139 347 -243C347 -308 316 -391 226 -483L303 -657C321 -698 337 -718 362 -731C367 -733 369 -736 369 -740C369 -742 368 -745 365 -748L309 -800L275 -756H157Z"/>
</svg>