<svg xmlns="http://www.w3.org/2000/svg" viewBox="0 -1000 1000 1000">
	<path fill="#000000" d="M461 -242V-320H799V-242ZM414 -480C416 -446 417 -385 417 -348V-222C417 -157 417 -128 414 -91V-80C414 -67 416 -63 422 -63C427 -63 433 -65 441 -68C461 -76 461 -81 461 -119H799V-86C799 -78 801 -74 809 -74C813 -74 819 -76 827 -79C844 -85 848 -90 848 -102C848 -105 847 -109 847 -113C844 -145 843 -162 843 -224V-388L875 -405C880 -408 882 -410 882 -412C882 -414 881 -417 877 -420L821 -469L792 -432H480ZM461 -138V-223H799V-138ZM461 -339V-413H799V-339ZM417 -790C419 -764 420 -748 420 -724V-648C420 -637 417 -591 417 -582C417 -570 420 -565 427 -565C431 -565 436 -566 443 -569C464 -578 464 -578 464 -607H613V-522H383C360 -522 336 -523 311 -525L339 -496C358 -502 376 -503 407 -503H945C954 -503 958 -504 958 -508C958 -511 955 -515 949 -522L899 -572L858 -522H656V-607H805V-577C805 -569 806 -564 813 -564C820 -564 852 -573 852 -592C852 -601 849 -643 849 -652V-708L880 -722C886 -725 889 -727 889 -731C889 -734 886 -737 881 -741L823 -784L794 -745H656V-787L685 -804C691 -807 694 -810 694 -813C694 -817 690 -819 684 -822L609 -856C611 -822 613 -803 613 -745H475ZM613 -626H464V-726H613ZM656 -626V-726H805V-626ZM534 -97C466 -34 374 22 272 76L278 88C349 64 398 43 547 -38C557 -43 567 -46 586 -45C590 -45 596 -45 596 -49C596 -51 594 -54 590 -57ZM96 -809C98 -772 100 -704 100 -663V-142C100 -80 99 -13 97 49V55C97 73 100 80 108 80C112 80 117 78 124 75C145 65 149 60 149 46V41C147 7 145 -62 145 -152V-738H282L200 -492C276 -402 297 -353 297 -303C297 -252 284 -229 229 -229C211 -229 188 -231 160 -236V-221C224 -209 239 -194 247 -165C249 -159 252 -156 257 -156C263 -156 346 -192 346 -288C346 -351 322 -400 222 -498L294 -657C318 -707 334 -726 364 -739C369 -741 371 -744 371 -746C371 -749 370 -751 366 -754L303 -803L269 -760H158ZM657 -77C753 -34 792 -8 852 52C875 75 880 79 888 79C903 79 914 69 914 52C914 46 912 39 909 31C892 -10 821 -47 661 -89Z"/>
</svg>