<svg xmlns="http://www.w3.org/2000/svg" viewBox="0 -1000 1000 1000">
	<path fill="#000000" d="M430 -405C432 -377 433 -350 433 -313V-240C433 -229 431 -181 431 -171C431 -159 433 -154 439 -154C443 -154 449 -155 456 -158C479 -166 479 -170 479 -197H784C784 -163 784 -159 792 -159C800 -159 833 -168 833 -183C833 -189 830 -235 830 -245V-328L853 -343C859 -346 861 -349 861 -352C861 -355 859 -358 854 -361L796 -402L768 -359H490ZM479 -217V-339H784V-217ZM360 5C339 5 316 4 294 1L319 36C334 30 361 26 380 26H938C946 26 950 24 950 20C950 17 947 12 942 7L886 -51L843 5H695C750 -81 778 -105 798 -112C804 -114 807 -116 807 -119C807 -121 804 -124 800 -127L739 -166C719 -102 695 -40 672 5ZM102 -813C103 -776 103 -713 103 -667V-146C103 -113 99 33 99 63C99 73 101 77 108 77C112 77 118 75 127 71C147 61 151 56 151 43V37C149 -8 148 -77 148 -159V-746H298L215 -516C280 -425 312 -362 312 -309C312 -255 292 -228 237 -228C217 -228 193 -231 163 -238L162 -224C221 -210 242 -194 249 -170C251 -163 254 -161 258 -161C259 -161 261 -161 263 -162C330 -187 361 -219 361 -286C361 -365 326 -420 236 -519L333 -706C339 -719 359 -732 382 -739C387 -741 390 -743 390 -746C390 -748 388 -751 385 -754L325 -810L293 -768H156ZM882 -526L842 -475H413C392 -475 369 -476 347 -479L372 -444C387 -450 414 -454 433 -454H928C937 -454 941 -456 941 -460C941 -462 938 -466 934 -471ZM480 -153C505 -115 526 -68 531 -33C533 -20 542 -11 549 -11C563 -11 582 -31 582 -59V-65C579 -93 545 -127 490 -162ZM458 -605V-713C492 -731 492 -731 492 -734C492 -737 489 -740 482 -743L411 -779C413 -750 414 -733 414 -710V-616L380 -588L435 -551C437 -549 439 -549 441 -549C444 -549 447 -550 449 -554L467 -584H814V-553C814 -548 815 -546 820 -546C827 -546 862 -553 862 -566C862 -581 860 -604 860 -619V-714C887 -728 890 -730 890 -733C890 -736 887 -739 880 -743L811 -779C813 -747 814 -730 814 -703V-605H659V-789L678 -802C686 -806 690 -810 690 -812C690 -816 685 -818 677 -822L610 -850C612 -821 613 -785 613 -747V-605Z"/>
</svg>