<svg xmlns="http://www.w3.org/2000/svg" viewBox="0 -1000 1000 1000">
	<path fill="#000000" d="M117 -808C118 -771 118 -708 118 -662V-141C118 -84 115 3 114 64C114 77 116 83 123 83C127 83 133 81 142 76C162 65 166 59 166 47V42C164 -3 163 -78 163 -154V-741H314L231 -511C296 -420 322 -357 322 -304C322 -254 306 -224 249 -224C231 -224 209 -227 182 -233L181 -219C238 -205 253 -193 260 -169C262 -162 265 -159 268 -159C270 -159 272 -160 274 -161C339 -198 368 -232 368 -281C368 -360 345 -415 255 -514L346 -695C352 -708 372 -721 395 -728C400 -730 403 -732 403 -735C403 -737 401 -740 398 -743L340 -803L312 -763H182ZM642 -3H404C383 -3 359 -4 338 -7L363 28C378 22 405 18 424 18H969C973 18 976 17 976 15C976 13 974 11 971 8L910 -49L876 -3H689V-230H909C914 -230 916 -231 916 -232C916 -234 915 -236 911 -240L850 -297L816 -251H488C467 -251 443 -252 422 -255L447 -220C462 -226 489 -230 508 -230H642ZM477 -704C609 -746 658 -757 684 -757C687 -757 700 -755 703 -755C708 -755 711 -757 711 -761C711 -764 709 -767 706 -770L654 -817C613 -787 546 -754 473 -727L429 -768C431 -739 432 -703 432 -637V-485C432 -442 431 -403 428 -356V-352C428 -344 430 -340 436 -340C442 -340 452 -343 467 -350C475 -354 477 -359 477 -392H839C839 -362 839 -359 847 -359C850 -359 888 -373 888 -389V-392C885 -421 884 -448 884 -502V-679L912 -694C917 -696 919 -699 919 -701C919 -704 917 -707 912 -711L857 -756L832 -718H713C693 -718 672 -720 651 -722L675 -686C689 -692 714 -696 732 -696H839V-566H733C713 -566 691 -567 671 -570L695 -534C709 -540 727 -544 752 -544H839V-414H477V-542H648C655 -542 658 -543 658 -546C658 -548 656 -551 653 -555L610 -602L581 -564H477Z"/>
</svg>