<svg xmlns="http://www.w3.org/2000/svg" viewBox="0 -1000 1000 1000">
	<path fill="#000000" d="M535 -666C571 -639 584 -613 588 -596C595 -565 598 -563 610 -563C623 -563 637 -574 637 -594C637 -632 605 -650 540 -675ZM615 -560C617 -527 618 -500 618 -475V-397C618 -387 617 -342 617 -332C617 -319 619 -314 626 -314C633 -314 659 -321 659 -337C659 -348 657 -397 657 -407V-508C680 -518 683 -520 683 -522C683 -524 680 -526 657 -538C719 -618 738 -635 754 -642C759 -644 762 -646 762 -648C762 -649 760 -651 757 -653L713 -683C686 -623 671 -594 643 -545ZM306 -780L276 -744H157L104 -789C105 -752 105 -689 105 -643V-142C105 -109 101 37 101 67C101 77 103 82 109 82C114 82 120 79 129 75C149 64 153 59 153 46V41C151 -4 150 -79 150 -155V-722H281L198 -512C263 -421 289 -358 289 -305C289 -250 275 -225 227 -225C210 -225 189 -228 164 -234L163 -220C204 -202 217 -194 224 -170C226 -163 229 -161 233 -161C234 -161 236 -161 238 -162C311 -189 334 -217 334 -292C334 -367 306 -419 219 -515L310 -676C319 -692 340 -704 362 -710L385 -680C402 -687 431 -691 452 -691H946C956 -691 961 -694 961 -699C961 -702 958 -707 952 -713L899 -764L859 -713H430C410 -713 390 -714 368 -716ZM811 -129H481C484 -157 486 -189 487 -227H811ZM488 -283C516 -302 519 -304 519 -307C519 -310 516 -312 509 -315L443 -344C444 -294 445 -255 445 -223C445 -58 424 3 285 78L291 91C407 44 458 6 478 -107H811V-11C811 0 810 50 810 60C810 74 813 81 821 81C823 81 857 73 857 57C857 50 853 -14 853 -27V-286C877 -302 880 -304 880 -308C880 -311 877 -314 872 -317L808 -352C810 -321 811 -275 811 -249H488ZM763 -402V-558C784 -564 801 -570 816 -574C823 -523 833 -483 849 -448ZM722 -611C724 -580 725 -547 725 -493V-420C725 -399 719 -386 695 -374L740 -332C742 -330 744 -329 746 -329C748 -329 750 -330 751 -333C760 -353 780 -381 855 -436C876 -397 909 -368 914 -368C916 -368 918 -369 919 -371C929 -383 941 -391 979 -391L980 -403C894 -429 860 -467 829 -578C876 -593 898 -597 914 -597C920 -597 923 -599 923 -602C923 -603 922 -606 919 -608L878 -645C837 -615 809 -598 767 -578ZM337 -340C415 -394 441 -450 447 -568H518C519 -544 519 -524 519 -507C519 -413 512 -406 480 -406C467 -406 450 -408 429 -413L424 -400C472 -385 482 -378 488 -360C490 -354 492 -351 497 -351C499 -351 502 -352 506 -354C550 -377 556 -385 556 -560C578 -575 581 -577 581 -580C581 -583 579 -585 575 -587L526 -617L503 -589H411C392 -589 368 -591 345 -594L372 -562C381 -564 393 -566 405 -567C408 -463 390 -414 329 -353ZM543 -845C574 -828 615 -782 620 -757C625 -732 631 -725 640 -725C660 -725 670 -738 670 -766C670 -803 627 -836 548 -855Z"/>
</svg>