<svg xmlns="http://www.w3.org/2000/svg" viewBox="0 -1000 1000 1000">
	<path fill="#000000" d="M602 -835C575 -725 522 -606 457 -501C458 -544 458 -596 459 -651C488 -670 491 -672 491 -676C491 -679 488 -681 482 -685L426 -719L400 -681H209C241 -749 259 -775 279 -780C289 -782 294 -785 294 -788C294 -791 291 -794 284 -798L225 -834C163 -666 108 -545 38 -422L49 -414C98 -482 136 -542 198 -660H415C415 -378 409 -185 397 -66C393 -30 380 -14 333 -14C307 -14 272 -19 223 -28L219 -13C306 5 328 27 334 56C335 61 337 64 341 64C343 64 346 63 350 61C411 32 441 -4 444 -57C450 -168 453 -279 456 -464C491 -506 524 -553 554 -605V-98C554 -46 553 -4 551 55V64C551 81 553 89 560 89C564 89 570 86 579 81C602 68 604 64 603 47L600 -13H957C965 -13 969 -14 969 -17C969 -20 966 -24 961 -29L904 -89L864 -35H780V-235H925C933 -235 937 -236 937 -239C937 -241 933 -245 927 -252L875 -311L838 -257H780V-436H924C932 -436 935 -437 935 -440C935 -442 933 -445 928 -450L869 -509L834 -458H780V-634H946C955 -634 959 -635 959 -638C959 -640 957 -644 952 -649L898 -709L856 -656H583C597 -682 611 -709 624 -736C642 -773 646 -777 656 -782C667 -787 672 -790 672 -793C672 -796 668 -798 662 -802ZM735 -257H599V-436H735ZM735 -458H599V-634H735ZM599 -35V-235H735V-35ZM129 -527C131 -496 132 -448 132 -424V-278C132 -243 131 -198 129 -155V-146C129 -133 131 -128 138 -128C143 -128 149 -130 157 -133C173 -140 175 -145 175 -160V-209H281C281 -176 281 -172 289 -172C293 -172 299 -174 308 -179C325 -188 330 -192 330 -204C330 -206 329 -209 329 -213C326 -241 325 -269 325 -318V-463C351 -481 354 -483 354 -486C354 -489 351 -492 344 -496L295 -527L271 -492H177ZM175 -230V-471H281V-230ZM704 -824C745 -786 758 -760 773 -695C776 -682 783 -676 794 -676C809 -676 824 -693 824 -721C824 -744 819 -777 710 -833Z"/>
</svg>