<svg xmlns="http://www.w3.org/2000/svg" viewBox="0 -1000 1000 1000">
	<path fill="#000000" d="M886 12H790V-188H951C954 -188 962 -188 962 -193C962 -201 914 -250 907 -258L870 -210H790V-397H951C954 -397 962 -397 962 -402C962 -410 915 -459 908 -467L869 -419H790V-592H959C962 -592 971 -592 971 -597C971 -604 922 -653 915 -661L879 -614H594V-620C621 -668 647 -716 672 -765C680 -780 705 -787 705 -793C705 -800 648 -833 639 -838C617 -748 525 -557 454 -427L467 -417C497 -458 524 -501 550 -545V-64C550 -42 547 53 547 72C547 79 548 88 556 88C561 88 566 86 570 84C591 76 595 69 595 56C595 51 594 43 594 34H970C973 34 981 34 981 29C981 22 934 -29 927 -37ZM594 -210V-397H746V-210ZM594 -419V-592H746V-419ZM594 12V-188H746V12ZM719 -791C745 -763 772 -712 777 -674C778 -665 782 -640 795 -640C817 -640 833 -661 833 -682C833 -731 763 -780 727 -801ZM385 -340H312V-487H438C441 -487 453 -487 453 -493C453 -502 404 -547 396 -555L364 -509H192C172 -509 151 -510 131 -513C191 -587 250 -665 298 -747C347 -707 392 -659 416 -599C422 -585 433 -567 450 -567C468 -567 473 -590 473 -605C473 -659 408 -702 309 -763C318 -773 327 -776 340 -778C342 -778 357 -780 357 -785C357 -792 296 -835 287 -841C219 -700 139 -565 46 -439L59 -430C85 -455 108 -484 131 -512L158 -476C177 -484 205 -487 225 -487H265V-340H134C114 -340 93 -341 73 -344L101 -307C120 -314 147 -318 168 -318H265V-25C265 5 250 8 222 8C183 8 143 1 105 -5L104 11C135 18 211 36 223 70C225 75 226 82 233 82C237 82 241 80 245 78C304 50 312 38 312 -27V-318H467C471 -318 480 -318 480 -325C480 -335 430 -381 421 -390ZM335 -246C376 -205 414 -156 429 -100C433 -85 442 -54 463 -54C483 -54 491 -76 491 -94C491 -162 392 -225 343 -256ZM56 2C118 -59 152 -118 198 -191C211 -212 246 -225 246 -230C246 -238 186 -266 177 -271C152 -185 96 -79 44 -7Z"/>
</svg>