<svg xmlns="http://www.w3.org/2000/svg" viewBox="0 -1000 1000 1000">
	<path fill="#000000" d="M463 -325H130C107 -325 82 -327 57 -329L85 -296C102 -303 131 -307 152 -307H463V-249H214C191 -249 166 -251 141 -253L169 -220C186 -227 215 -231 236 -231H388C370 -205 353 -184 328 -154H121C98 -154 73 -156 48 -158L76 -125C93 -132 122 -136 143 -136H312C295 -116 273 -93 246 -64C335 -55 414 -43 484 -29C399 8 303 33 99 70L101 84C322 62 437 31 543 -17C656 8 741 38 795 67C810 75 820 79 826 79C837 79 841 68 841 59C841 10 769 -10 589 -40C633 -63 669 -88 727 -136H934C943 -136 947 -137 947 -141C947 -143 944 -148 938 -154L882 -205L837 -154H383L412 -182L439 -190C444 -191 447 -193 447 -195C447 -197 445 -200 441 -204L410 -231H728C728 -200 728 -196 736 -196C738 -196 776 -205 776 -226V-229C774 -250 773 -281 773 -307H956C962 -307 966 -309 966 -312C966 -315 963 -319 957 -324L904 -372L866 -325H773V-365L800 -383C804 -385 806 -387 806 -390C806 -392 803 -395 799 -398L742 -437L714 -399H507V-454H895C902 -454 905 -455 905 -459C905 -461 903 -465 897 -471L843 -523L802 -472H507V-488C531 -505 533 -507 533 -511C533 -514 530 -516 523 -519L460 -545C462 -517 463 -497 463 -472H172C149 -472 124 -474 99 -476L127 -443C144 -450 173 -454 194 -454H463V-399H236C213 -399 185 -401 161 -404L191 -373C208 -377 237 -381 258 -381H463ZM507 -325V-381H728V-325ZM507 -249V-307H728V-249ZM365 -136H663C623 -102 596 -83 528 -49C467 -58 394 -68 306 -78ZM759 -550H576V-530H759ZM412 -552H222V-532H412ZM758 -624H572V-604H758ZM414 -625H223V-605H414ZM466 -698H160C160 -708 160 -719 159 -731H145C146 -678 129 -636 83 -605C63 -592 56 -580 56 -570C56 -551 72 -547 83 -547C92 -547 156 -547 160 -678H466C466 -659 465 -574 465 -557C465 -548 467 -543 472 -543C477 -543 483 -546 493 -550C510 -558 514 -561 514 -575C514 -591 512 -663 512 -678H849L795 -588L811 -582C881 -660 903 -669 928 -671C935 -672 938 -673 938 -676C938 -679 936 -682 931 -687L874 -740L842 -698H512V-758H798C808 -758 813 -760 813 -764C813 -768 810 -772 804 -778L751 -828L711 -778H232C211 -778 188 -779 166 -782L191 -748C206 -754 233 -758 252 -758H466Z"/>
</svg>