<svg xmlns="http://www.w3.org/2000/svg" viewBox="0 -1000 1000 1000">
	<path fill="#000000" d="M655 -295C710 -167 762 -77 834 -12C841 -6 847 -3 852 -3C857 -3 862 -6 866 -11C883 -32 901 -39 952 -39L953 -50C839 -66 750 -150 677 -295H905C917 -295 923 -297 923 -301C923 -305 920 -310 913 -317L860 -373L819 -317H642V-391C669 -412 672 -414 672 -420C672 -424 668 -428 659 -432L591 -462C594 -425 595 -388 595 -317H434C411 -317 386 -319 361 -321L389 -284C406 -291 435 -295 456 -295H548C465 -159 395 -89 263 15L271 28C416 -63 487 -130 595 -279V-62C595 -13 593 34 592 63C592 72 593 77 600 77C604 77 611 74 621 70C642 61 646 55 646 42V36C643 -9 642 -62 642 -88V-295ZM366 -367L234 -180C206 -140 189 -124 152 -124C133 -124 110 -128 78 -135L74 -121C109 -112 145 -100 159 -91C175 -81 182 -69 182 -51C182 -40 180 -28 175 -12C169 8 166 25 166 38C166 63 176 76 195 76C216 76 227 63 227 34C227 21 218 -33 218 -44C218 -74 228 -103 256 -151L379 -359ZM62 -323C120 -287 143 -262 152 -233C157 -217 166 -210 181 -210C191 -210 202 -226 202 -246C202 -286 162 -306 69 -332ZM146 -443C208 -409 237 -380 246 -361C256 -340 263 -334 275 -334C285 -334 296 -346 296 -364C296 -372 294 -380 290 -389C281 -409 225 -438 151 -454ZM401 -503H218V-483H401ZM793 -503H608V-483H793ZM399 -584H216V-563H399ZM794 -584H604V-563H794ZM476 -681H173C174 -693 174 -707 173 -721H158C151 -663 119 -607 84 -585C69 -576 63 -563 63 -553C63 -540 74 -533 87 -533C97 -533 161 -540 172 -659H476V-581C476 -565 474 -482 474 -481C474 -467 477 -461 485 -461C496 -461 526 -472 526 -494C526 -509 524 -575 524 -589V-659H872L828 -571L840 -565C890 -631 922 -653 952 -658C960 -659 963 -661 963 -664C963 -667 961 -670 956 -673L892 -717L863 -681H524V-754H820C828 -754 832 -757 832 -762C832 -765 830 -770 824 -776L764 -828L726 -776H239C218 -776 196 -778 174 -780L199 -744C214 -750 240 -754 259 -754H476Z"/>
</svg>