<svg xmlns="http://www.w3.org/2000/svg" viewBox="0 -1000 1000 1000">
	<path fill="#000000" d="M416 -782C437 -795 439 -797 439 -800C439 -803 436 -805 432 -807L373 -834C375 -800 375 -771 375 -701H208V-781C231 -796 234 -798 234 -801C234 -803 232 -805 228 -807L165 -836C167 -810 168 -770 168 -701H108C86 -701 62 -702 41 -705L66 -670C82 -677 109 -681 129 -681H168V-616C168 -603 167 -547 167 -536C167 -528 168 -525 173 -525C176 -525 181 -527 189 -530C208 -538 208 -538 208 -560H265V-448H155L105 -492C107 -466 108 -426 108 -406V-310C108 -300 106 -255 106 -246C106 -234 108 -230 113 -230C117 -230 121 -231 127 -233C150 -242 150 -242 150 -276H265V-151H104C80 -151 57 -152 36 -155L62 -119C78 -126 105 -130 124 -130H265V-79C265 -36 265 21 262 49C262 53 261 57 261 60C261 70 264 74 270 74C274 74 281 72 289 69C307 62 311 58 311 44V39C309 1 308 -41 308 -87V-130H507C514 -130 518 -132 518 -135C518 -138 515 -142 510 -147L464 -194L432 -151H308V-276H425C425 -251 425 -249 432 -249C439 -249 470 -256 470 -270C470 -276 467 -318 467 -327V-419C489 -434 492 -436 492 -440C492 -442 490 -445 485 -448L436 -482L413 -448H308V-560H375C375 -534 375 -531 381 -531C386 -531 419 -539 419 -554C419 -567 416 -626 416 -638V-681H515C522 -681 526 -684 526 -689C526 -692 524 -697 518 -702L476 -739L450 -701H416ZM265 -296H150V-428H265ZM308 -296V-428H425V-296ZM375 -580H208V-681H375ZM913 -715C922 -715 926 -717 926 -721C926 -725 923 -730 917 -735L858 -789L819 -736H588C565 -736 540 -737 515 -740L543 -704C560 -711 586 -715 610 -715H689V-386H548C525 -386 499 -387 475 -390L503 -352C520 -359 549 -363 570 -363H689V-157C689 -100 688 -13 684 58V66C684 79 687 86 695 86C698 86 740 72 740 50V45C737 -15 736 -92 736 -168V-363H959C967 -363 971 -366 971 -371C971 -375 968 -381 963 -386L909 -442L869 -386H736V-715Z"/>
</svg>