<svg xmlns="http://www.w3.org/2000/svg" viewBox="0 -1000 1000 1000">
	<path fill="#000000" d="M962 11C933 14 906 15 880 15C722 15 609 -33 532 -126H916C924 -126 928 -128 928 -132C928 -135 925 -140 918 -146L852 -204L810 -147H469C483 -175 493 -207 499 -241H701C701 -206 701 -202 709 -202C715 -202 752 -212 752 -231C752 -236 746 -297 746 -309V-437C775 -455 778 -457 778 -463C778 -466 774 -470 767 -475L712 -512L686 -476H274L217 -520C219 -489 220 -440 220 -416V-315C220 -288 216 -246 216 -219C216 -208 218 -203 225 -203C229 -203 236 -205 245 -209C263 -216 265 -217 265 -229V-241H448C444 -207 436 -175 421 -147H111C88 -147 63 -149 38 -151L66 -115C83 -122 112 -126 133 -126H409C352 -33 233 29 37 79L36 93C250 66 390 -5 458 -126H512C579 -16 678 40 856 80C862 81 866 82 870 82C877 82 880 79 884 71C896 48 910 36 962 23ZM265 -372V-455H701V-372ZM265 -262V-351H701V-262ZM398 -843C441 -815 471 -769 474 -759C479 -740 485 -733 499 -733C513 -733 525 -752 525 -772C525 -813 451 -844 403 -855ZM833 -768L806 -731H184C186 -745 187 -760 187 -776H176C153 -711 129 -693 95 -674C76 -663 70 -651 70 -641C70 -625 85 -619 99 -619C125 -619 165 -640 180 -710H813L771 -640L783 -634C828 -680 850 -698 890 -705C897 -706 901 -708 901 -711C901 -714 898 -718 891 -723ZM831 -640L794 -590H612V-649C634 -662 637 -663 637 -667C637 -671 633 -673 625 -677L564 -705C567 -656 567 -637 567 -590H405V-648C429 -660 431 -661 431 -665C431 -669 427 -672 419 -676L358 -705C360 -678 361 -661 361 -636V-590H157C134 -590 109 -592 84 -594L112 -558C129 -565 158 -569 179 -569H361C361 -560 360 -523 360 -515C360 -500 362 -494 369 -494C379 -494 407 -506 407 -520C407 -534 405 -555 405 -569H567C567 -561 566 -525 566 -517C566 -502 570 -495 578 -495C578 -495 614 -501 614 -520C614 -528 612 -562 612 -569H887C896 -569 900 -571 900 -574C900 -577 897 -582 889 -589Z"/>
</svg>