<svg xmlns="http://www.w3.org/2000/svg" viewBox="0 -1000 1000 1000">
	<path fill="#000000" d="M898 -314L854 -268H798V-391L827 -407C832 -410 835 -412 835 -414C835 -417 832 -419 827 -423L767 -466L739 -428H263L207 -475C208 -453 210 -402 210 -377V-268H97C74 -268 49 -270 24 -272L52 -235C69 -242 91 -246 119 -246H940C951 -246 956 -247 956 -251C956 -255 952 -260 944 -268ZM427 -268V-406H569V-268ZM613 -268V-406H753V-268ZM254 -268V-406H383V-268ZM892 -771L862 -739H165C165 -753 164 -768 162 -785H149C135 -701 124 -683 68 -643C57 -635 51 -627 51 -618C51 -615 53 -592 81 -592C116 -592 161 -629 165 -717H866L811 -641L825 -631C887 -686 904 -695 955 -700C961 -701 965 -702 965 -704C965 -707 962 -710 957 -714ZM456 -691C491 -669 513 -637 521 -612C528 -590 536 -583 547 -583C562 -583 577 -600 577 -620C577 -641 560 -677 461 -700ZM424 -850C466 -821 488 -787 494 -767C500 -747 505 -740 516 -740C535 -740 548 -759 548 -780C548 -787 547 -795 543 -802C534 -819 493 -845 430 -861ZM666 -655C663 -558 651 -544 611 -542C589 -541 548 -540 508 -540C381 -540 372 -542 372 -567V-622L396 -642C400 -645 402 -648 402 -650C402 -652 400 -654 396 -655L328 -679C329 -658 330 -621 330 -594V-551C330 -519 343 -509 383 -506C403 -504 457 -503 512 -503C685 -503 688 -508 715 -549C716 -551 717 -552 717 -554C717 -556 715 -559 712 -560C693 -567 680 -586 682 -655ZM725 -645C776 -614 812 -576 833 -539C848 -513 852 -509 863 -509C874 -509 888 -522 888 -547C888 -606 766 -647 731 -657ZM233 -663C221 -614 186 -579 133 -553C122 -548 116 -537 116 -528C116 -518 128 -504 146 -504C187 -504 238 -554 245 -660ZM825 -208L778 -156H180C157 -156 132 -158 107 -160L137 -123C154 -130 176 -134 204 -134H481V-17C481 -5 475 2 449 2C427 2 391 -3 333 -12L331 5C424 24 439 35 449 73C450 78 452 80 455 80C457 80 459 79 462 78C516 57 527 40 527 -7V-134H870C881 -134 887 -135 887 -139C887 -142 882 -147 874 -156Z"/>
</svg>