<svg xmlns="http://www.w3.org/2000/svg" viewBox="0 -1000 1000 1000">
	<path fill="#000000" d="M924 -165C920 12 912 15 844 15C770 15 763 13 763 -37V-326H860C860 -286 860 -286 866 -286C870 -286 876 -289 885 -294C900 -303 905 -307 905 -320C905 -323 904 -326 904 -329C901 -358 900 -385 900 -419V-517C925 -532 928 -534 928 -538C928 -541 926 -543 922 -546L871 -587L850 -553H714C811 -674 830 -688 848 -692C857 -694 861 -697 861 -700C861 -703 858 -707 852 -712L808 -751L783 -716H615C625 -732 635 -750 645 -768C657 -789 670 -801 686 -805C692 -807 695 -809 695 -811C695 -814 692 -817 687 -821L634 -861C596 -752 516 -594 434 -498L440 -489C464 -509 488 -533 512 -563V-382C512 -347 511 -324 509 -303C508 -297 508 -291 508 -287C508 -279 510 -275 514 -275C518 -275 524 -277 533 -282C552 -292 552 -295 552 -326H657C641 -243 613 -173 568 -113C500 -23 448 22 349 71L353 84C460 49 544 -24 602 -100C647 -158 678 -229 695 -326H721V-42C721 50 729 54 831 54C936 54 952 44 972 -12C973 -16 974 -18 974 -21C974 -24 972 -26 967 -29C948 -42 939 -61 936 -165ZM552 -348V-531H673C673 -463 670 -402 661 -348ZM698 -553H557L525 -580C550 -612 575 -651 602 -695H781ZM699 -348C708 -401 712 -461 713 -531H860V-348ZM476 -207L436 -153H287V-280H393V-243C393 -234 394 -229 400 -229C402 -229 438 -240 438 -255C438 -262 434 -323 434 -336V-419C464 -439 465 -439 465 -443C465 -445 462 -448 457 -452L404 -493L383 -453H287V-571H331C331 -530 331 -528 338 -528C343 -528 375 -537 375 -552C375 -555 374 -557 374 -560C372 -579 371 -603 371 -643V-688H494C505 -688 510 -689 510 -693C510 -696 508 -700 503 -706L460 -758L425 -709H371V-778C397 -795 400 -797 400 -801C400 -803 397 -805 392 -808L328 -844C330 -807 331 -776 331 -747V-709H202V-784C213 -791 233 -803 233 -805C233 -807 230 -809 225 -811L159 -843C161 -815 162 -772 162 -751V-709H109C86 -709 61 -711 36 -713L64 -677C81 -684 110 -688 131 -688H162V-611C162 -597 161 -537 161 -525C161 -517 162 -514 167 -514C170 -514 176 -516 185 -520C200 -526 202 -530 202 -541V-571H244V-453H145L96 -498C98 -470 99 -427 99 -406V-303C99 -291 95 -233 95 -225C95 -218 96 -215 101 -215C104 -215 110 -217 119 -221C137 -230 139 -233 139 -243V-280H244V-153H94C71 -153 46 -155 21 -157L49 -121C66 -128 95 -132 116 -132H244V-79C244 -37 243 3 240 56C240 62 239 67 239 71C239 83 241 88 247 88C251 88 257 85 266 81C287 71 290 68 290 56V49C287 9 287 -28 287 -77V-132H518C526 -132 530 -134 530 -137C530 -140 528 -144 524 -148ZM287 -301V-432H393V-301ZM139 -301V-432H244V-301ZM202 -592V-688H331V-592Z"/>
</svg>