<svg xmlns="http://www.w3.org/2000/svg" viewBox="0 -1000 1000 1000">
	<path fill="#000000" d="M382 -439L359 -406H268V-516H320C320 -492 320 -489 328 -489C335 -489 363 -496 363 -510C363 -523 360 -580 360 -592V-639H437C446 -639 452 -641 452 -646C452 -648 450 -652 446 -656L405 -698L384 -659H360V-790C384 -802 386 -803 386 -807C386 -810 384 -812 379 -814L318 -841C320 -808 320 -781 320 -756V-659H177V-781C203 -796 203 -797 203 -800C203 -802 201 -804 197 -806L135 -835C137 -809 138 -770 138 -750V-659C94 -659 72 -659 44 -663L69 -628C84 -635 116 -639 138 -639V-571C138 -559 137 -504 137 -493C137 -486 139 -482 144 -482C154 -482 177 -490 177 -506V-516H227V-406H131L81 -449C83 -424 84 -385 84 -365V-264C84 -254 82 -212 82 -203C82 -190 85 -185 92 -185C96 -185 100 -186 106 -188C126 -196 126 -199 126 -231H227V-111H95C73 -111 50 -112 28 -115L54 -81C69 -88 96 -91 114 -91H227C227 -67 224 38 224 60C224 78 227 84 235 84C239 84 244 83 251 80C267 74 271 69 271 56V51C268 -6 268 -51 268 -91H459C466 -91 469 -93 469 -96C469 -99 467 -103 462 -108L417 -154L386 -111H268V-231H373C373 -206 373 -204 378 -204C382 -204 387 -205 395 -208C412 -213 415 -215 415 -225C415 -229 412 -272 412 -281V-378C434 -392 437 -393 437 -398C437 -399 432 -404 429 -407C538 -482 573 -534 620 -654C645 -664 648 -665 648 -672C648 -675 646 -678 642 -682L597 -720L566 -685H523C500 -685 476 -686 451 -689L473 -654C490 -661 512 -665 532 -665H577C542 -543 508 -504 416 -416ZM227 -250H126V-387H227ZM268 -250V-387H373V-250ZM320 -535H177V-639H320ZM827 -306V-188H542V-306ZM827 -13V63C827 72 829 76 834 76C838 76 844 74 853 69C870 61 873 56 873 44C873 25 871 -60 871 -77V-293L898 -314C903 -318 905 -321 905 -324C905 -327 903 -330 898 -333L835 -374L811 -328H553L495 -372C498 -340 498 -318 498 -280V-54C498 -21 497 22 496 58V62C496 72 498 76 503 76C511 76 542 64 542 46V-13ZM827 -166V-35H542V-166ZM984 -453C879 -484 822 -511 772 -590C891 -671 901 -671 920 -673C927 -674 931 -675 931 -679C931 -682 929 -685 923 -690L876 -730C848 -686 808 -644 764 -603C746 -633 729 -670 710 -718V-786C731 -800 734 -802 734 -805C734 -808 731 -810 726 -813L662 -839C664 -803 666 -763 666 -715V-448C666 -435 664 -427 642 -427C624 -427 594 -432 542 -441V-426C610 -404 630 -391 636 -372C637 -367 639 -365 642 -365C643 -365 645 -366 647 -367C706 -394 710 -408 710 -441V-675C747 -559 785 -502 888 -420C891 -418 893 -417 895 -417C899 -417 901 -419 903 -421C916 -435 924 -441 983 -441Z"/>
</svg>