<svg xmlns="http://www.w3.org/2000/svg" viewBox="0 -1000 1000 1000">
	<path fill="#000000" d="M322 -779C343 -792 345 -794 345 -797C345 -800 342 -802 338 -804L279 -831C281 -798 281 -765 281 -701H164V-778C187 -793 190 -795 190 -798C190 -800 188 -802 184 -804L121 -833C123 -807 124 -770 124 -701C86 -701 62 -702 43 -705L68 -670C82 -676 105 -680 124 -681V-616C124 -604 123 -548 123 -537C123 -530 125 -526 130 -526C134 -526 139 -527 145 -530C164 -539 164 -539 164 -560H204V-448H135L86 -492C88 -466 89 -426 89 -406V-310C89 -300 87 -257 87 -248C87 -235 89 -230 96 -230C99 -230 103 -231 108 -233C129 -241 129 -243 129 -276H204V-148H100C78 -148 54 -149 32 -152L58 -115C74 -122 101 -126 120 -126H204V-72C204 -32 203 8 201 56V64C201 76 203 81 209 81C213 81 219 79 228 76C245 70 248 66 248 53V46C246 8 245 -30 245 -80V-126H400C407 -126 410 -128 410 -133C410 -136 408 -140 403 -145L357 -192L325 -148H245V-276H323C323 -252 323 -250 330 -250C339 -250 366 -256 366 -271C366 -275 363 -318 363 -327V-419C385 -434 388 -436 388 -440C388 -442 386 -445 381 -448L332 -482L309 -448H245V-560H281C281 -535 281 -533 290 -533C298 -533 324 -540 324 -556C324 -578 322 -615 322 -638V-681H409C416 -681 420 -682 420 -685C420 -688 417 -692 412 -698L376 -741L350 -701H322ZM204 -296H129V-428H204ZM245 -296V-428H323V-296ZM281 -580H164V-681H281ZM892 -653L855 -604H704C681 -604 654 -606 631 -608L659 -571C676 -578 705 -582 726 -582H946C953 -582 957 -583 957 -586C957 -589 954 -593 949 -599ZM647 -487C676 -403 692 -312 692 -240C692 -221 691 -203 689 -187C688 -182 688 -178 688 -174C688 -157 695 -150 704 -150C722 -150 744 -172 744 -217C744 -260 722 -381 657 -492ZM671 -813C713 -760 737 -706 739 -670C741 -643 747 -636 764 -636C777 -636 795 -660 795 -686C795 -722 751 -765 679 -820ZM656 -12C633 -12 608 -13 583 -16L611 21C628 14 657 10 678 10H951C960 10 965 8 965 4C965 1 962 -3 955 -9L892 -67L853 -12H768C811 -150 852 -298 880 -424C887 -455 897 -469 914 -475C920 -477 924 -481 924 -485C924 -489 921 -493 915 -495L849 -523C819 -343 789 -184 747 -12ZM499 -351L374 -267L415 -237C418 -235 420 -234 423 -234C425 -234 427 -236 429 -239C438 -256 457 -277 499 -312V-27C499 -6 497 4 472 4C453 4 422 -2 369 -12L367 0C443 21 462 41 465 65C466 72 468 75 472 75C474 75 477 74 480 72C532 46 542 34 542 -23V-348L632 -424L623 -435L542 -380V-568H639C644 -568 647 -569 647 -572C647 -574 645 -578 641 -582L594 -631L564 -590H542V-770L565 -785C569 -788 571 -790 571 -793C571 -796 568 -799 562 -802L495 -838C497 -801 499 -756 499 -715V-590H443C420 -590 395 -592 370 -594L398 -557C415 -564 444 -568 465 -568H499Z"/>
</svg>