<svg xmlns="http://www.w3.org/2000/svg" viewBox="0 -1000 1000 1000">
	<path fill="#000000" d="M902 -828L856 -773H463C440 -773 415 -775 390 -777L418 -740C435 -747 464 -751 485 -751H643C637 -704 628 -663 611 -609H535L477 -662C479 -631 480 -583 480 -559V-234C480 -177 478 -129 477 -108V-100C477 -83 479 -76 487 -76C491 -76 497 -78 505 -82C525 -91 527 -94 527 -107V-133H819V-103C819 -94 820 -89 826 -89C830 -89 836 -91 845 -96C865 -106 869 -109 869 -121V-126C867 -157 866 -177 866 -253V-573L902 -592C904 -593 906 -595 906 -597C906 -599 904 -601 901 -604L834 -654L801 -609H632C665 -665 688 -708 707 -751H951C961 -751 966 -752 966 -755C966 -758 962 -764 954 -772ZM527 -312V-443H819V-312ZM527 -155V-290H819V-155ZM527 -465V-587H819V-465ZM586 -100C500 -27 403 38 317 81L323 94C384 74 496 23 584 -26C602 -36 612 -39 631 -39C642 -39 647 -41 647 -44C647 -47 644 -50 638 -55ZM388 -483L343 -434H254V-701H389C399 -701 404 -702 404 -705C404 -708 400 -714 392 -722L344 -773L303 -723H107C84 -723 59 -725 34 -727L62 -690C79 -697 108 -701 129 -701H207V-434H91C68 -434 43 -436 18 -438L46 -401C63 -408 92 -412 113 -412H207V-167C207 -110 206 -20 204 39V48C204 65 206 71 213 71C218 71 225 69 234 65C255 56 258 52 258 39V31C255 -14 254 -89 254 -165V-412H429C438 -412 443 -413 443 -417C443 -420 439 -425 432 -433ZM690 -78C791 -31 843 4 895 64C909 80 919 86 925 86C938 86 948 66 948 45C948 34 945 23 939 14C911 -26 836 -55 697 -91Z"/>
</svg>