<svg xmlns="http://www.w3.org/2000/svg" viewBox="0 -1000 1000 1000">
	<path fill="#000000" d="M900 -835L851 -782H456C433 -782 408 -784 383 -786L411 -749C428 -756 457 -760 478 -760H653C647 -711 641 -680 626 -625H556L496 -669C498 -638 499 -590 499 -566V-261C499 -204 497 -157 495 -135C494 -128 494 -122 494 -118C494 -108 496 -104 502 -104C507 -104 514 -106 523 -109C543 -116 546 -121 546 -134V-167H825V-123C825 -114 826 -109 831 -109C835 -109 841 -111 850 -116C871 -126 875 -129 875 -141V-146C873 -177 872 -197 872 -273V-592L900 -610C903 -612 905 -614 905 -616C905 -618 903 -620 899 -623L837 -669L807 -625H648C680 -682 696 -716 713 -760H947C957 -760 962 -761 962 -764C962 -767 958 -773 950 -781ZM546 -340V-470H825V-340ZM546 -189V-318H825V-189ZM546 -492V-603H825V-492ZM613 -133C530 -55 431 27 344 79L350 92C408 69 491 22 610 -59C627 -71 636 -74 654 -74C664 -74 669 -75 669 -79C669 -81 666 -85 661 -90ZM176 -845C218 -797 239 -758 244 -726C251 -684 254 -674 270 -674C285 -674 309 -694 309 -724C309 -729 308 -733 307 -738C301 -763 272 -800 184 -854ZM411 -716L371 -665H97C74 -665 49 -667 24 -669L52 -632C69 -639 98 -643 119 -643H453C462 -643 466 -644 466 -648C466 -651 463 -656 456 -664ZM462 -260L349 -155V-474L373 -490C379 -494 381 -496 381 -499C381 -502 379 -505 373 -508L314 -548L288 -508H199L134 -557C136 -507 138 -419 138 -362C138 -94 113 -49 18 55L27 66C163 -43 187 -91 187 -486H302V-178C302 -128 301 -122 271 -92L317 -43C319 -41 321 -40 323 -40C326 -40 328 -42 329 -47C335 -70 359 -108 472 -249ZM710 -99C799 -51 857 0 889 46C902 65 910 69 919 69C932 69 946 48 946 27C946 18 944 9 938 1C917 -29 821 -79 716 -110Z"/>
</svg>