<svg xmlns="http://www.w3.org/2000/svg" viewBox="0 -1000 1000 1000">
	<path fill="#000000" d="M837 -339H577V-463H837ZM584 -622L529 -662C531 -638 532 -599 532 -580V-297C532 -231 531 -181 529 -133V-126C529 -113 531 -108 537 -108C541 -108 546 -110 554 -113C572 -120 577 -123 577 -136V-165H837V-129C837 -121 839 -117 845 -117C850 -117 856 -119 866 -123C886 -132 889 -135 889 -145V-150C886 -186 884 -236 884 -297V-582L914 -600C920 -604 923 -606 923 -609C923 -611 920 -614 915 -618L856 -662L826 -622H678C700 -668 730 -725 752 -764H944C953 -764 958 -766 958 -770C958 -773 954 -778 948 -784L894 -839L850 -785H563C540 -785 515 -787 490 -789L518 -753C535 -760 564 -764 585 -764H691C684 -724 669 -668 653 -622ZM577 -186V-318H837V-186ZM577 -601H837V-484H577ZM723 -116C828 -62 876 -10 905 33C918 52 925 56 934 56C947 56 961 36 961 14C961 5 958 -4 952 -12C925 -45 865 -84 729 -126ZM629 -138C578 -68 494 13 410 83L419 92C484 53 552 2 641 -75C649 -82 660 -84 675 -87C681 -88 684 -92 684 -96C684 -99 682 -102 679 -104ZM322 -593C385 -546 442 -479 452 -446C458 -425 464 -419 471 -419C489 -419 500 -436 500 -458C500 -510 443 -552 329 -602ZM197 -829C255 -782 262 -765 277 -699C280 -686 284 -681 290 -681C311 -681 332 -704 332 -732C332 -778 288 -804 204 -840ZM355 -457C335 -393 312 -333 286 -277C245 -310 199 -343 151 -374L142 -363C194 -318 236 -278 269 -243C207 -120 128 -20 31 63L40 75C156 -12 231 -86 301 -210C350 -156 380 -112 400 -70C415 -38 420 -34 427 -34C445 -34 460 -54 460 -79C460 -92 456 -107 446 -121C420 -158 376 -202 322 -248C340 -284 361 -326 378 -369C384 -385 397 -393 411 -398C418 -401 422 -404 422 -407C422 -409 419 -412 415 -415ZM193 -600C140 -488 102 -424 29 -317L41 -311C89 -362 126 -402 206 -516C219 -534 232 -541 253 -545C259 -546 262 -548 262 -550C262 -553 259 -556 252 -561ZM445 -725L406 -670H108C84 -670 59 -672 34 -674L62 -637C79 -644 109 -648 130 -648H503C510 -648 513 -649 513 -651C513 -653 511 -656 506 -661Z"/>
</svg>