<svg xmlns="http://www.w3.org/2000/svg" viewBox="0 -1000 1000 1000">
	<path fill="#000000" d="M848 -351H627V-471H848ZM636 -625L584 -671C586 -640 587 -591 587 -567V-301C587 -244 585 -197 583 -175V-163C583 -150 585 -145 592 -145C596 -145 601 -147 608 -149C627 -156 627 -160 627 -184H848C848 -146 848 -142 854 -142C861 -142 892 -153 892 -173V-179C890 -210 889 -230 889 -306V-592L919 -614C922 -616 923 -617 923 -619C923 -621 921 -623 917 -626L858 -666L835 -625H699C728 -680 743 -713 761 -765H931C941 -765 946 -766 946 -770C946 -773 942 -778 934 -785L891 -825L860 -784H612C589 -784 565 -786 540 -788L568 -754C584 -761 613 -765 633 -765H703C696 -704 691 -676 677 -625ZM848 -333V-202H627V-333ZM627 -607H848V-489H627ZM386 -483H344C321 -483 297 -485 272 -487L300 -450C325 -461 360 -461 386 -461V-210H322C300 -210 275 -212 251 -214L278 -177C295 -184 323 -188 344 -188H556C566 -188 571 -190 571 -194C571 -198 567 -203 560 -210L515 -257L483 -210H429V-461H529C539 -461 544 -463 544 -467C544 -470 540 -475 533 -483L493 -525L461 -483H429V-710C468 -724 485 -728 500 -728C503 -728 519 -727 522 -727C526 -727 528 -728 528 -730C528 -732 526 -735 522 -739L484 -779C434 -746 376 -719 284 -687L285 -671C321 -678 358 -687 386 -696ZM238 -485L215 -450H143L239 -678C249 -703 264 -714 279 -716C288 -717 292 -719 292 -722C292 -725 289 -729 285 -734L237 -778L210 -748H152C130 -748 105 -750 81 -752L108 -715C125 -722 153 -726 174 -726H216L126 -495C110 -464 97 -452 71 -438L100 -406C105 -401 109 -399 112 -399C116 -399 119 -401 122 -404L143 -428H222C217 -311 205 -229 180 -167C151 -207 127 -259 91 -361L78 -358C106 -249 128 -191 166 -136C127 -54 116 -37 44 59L51 69C110 11 149 -29 190 -105C253 -31 352 12 504 15C517 15 520 13 527 3C537 -14 546 -18 591 -30C562 6 534 37 500 72L509 83C561 45 592 17 690 -89C698 -98 708 -104 718 -107C725 -109 728 -111 728 -114C728 -116 725 -119 720 -122L670 -150C644 -103 632 -85 599 -42C561 -39 527 -37 495 -37C342 -37 266 -75 206 -137C233 -196 252 -276 265 -416C288 -435 291 -437 291 -441C291 -444 288 -447 284 -450ZM768 -129C823 -77 858 -21 869 12C879 44 893 61 903 61C912 61 927 48 927 21C927 -39 844 -95 776 -140Z"/>
</svg>