<svg xmlns="http://www.w3.org/2000/svg" viewBox="0 -1000 1000 1000">
	<path fill="#000000" d="M896 -835L850 -775H592C569 -775 544 -777 519 -779L547 -745C564 -752 593 -756 614 -756H704C702 -711 695 -674 681 -622H642L586 -665C588 -634 589 -586 589 -563V-261C589 -204 587 -158 585 -136C584 -128 584 -122 584 -118C584 -109 585 -105 590 -105C593 -105 598 -107 605 -111C625 -122 629 -126 629 -136V-153H843V-127C843 -118 843 -113 848 -113C851 -113 857 -115 866 -120C884 -129 887 -133 887 -144V-150C885 -180 884 -200 884 -275V-591L916 -609C919 -611 921 -613 921 -615C921 -617 919 -620 915 -622L848 -664L822 -622H701C724 -676 742 -716 758 -756H951C961 -756 966 -757 966 -761C966 -764 962 -768 954 -776ZM629 -323V-459H843V-323ZM629 -478V-602H843V-478ZM629 -172V-303H843V-172ZM500 -763L465 -717H402V-802L424 -815C430 -817 433 -820 433 -823C433 -826 429 -829 422 -832L360 -861C362 -828 363 -800 363 -775V-717H214V-798C240 -811 243 -813 243 -816C243 -819 239 -823 229 -827L171 -854C173 -821 174 -793 174 -768V-717H105C82 -717 57 -719 32 -721L60 -686C77 -693 106 -698 127 -698H174V-604C174 -593 173 -543 173 -533C173 -521 174 -516 180 -516C183 -516 189 -518 196 -521C214 -528 214 -532 214 -564H265V-460H140L88 -497C89 -453 90 -406 90 -378V-182C90 -126 89 -41 87 18V26C87 43 89 49 96 49C100 49 107 47 115 43C132 34 136 30 136 17V10C134 -18 133 -61 133 -109C157 -141 184 -190 206 -250C212 -224 215 -200 215 -183C215 -151 222 -147 230 -147C248 -147 258 -167 258 -193C258 -233 211 -331 174 -385L164 -377C172 -360 181 -337 189 -313C175 -238 154 -180 132 -140V-441H265V-186C265 -130 264 -41 262 18V29C262 43 263 49 271 49C275 49 282 47 291 43C308 36 311 31 311 19V10C308 -24 307 -74 307 -129C335 -166 370 -224 389 -266C396 -236 399 -206 399 -174C399 -142 406 -137 414 -137C433 -137 443 -159 443 -184C443 -224 406 -326 352 -394L342 -386C354 -363 364 -341 372 -319C359 -256 334 -202 307 -159V-441H457V-44C457 -31 455 -24 434 -24C419 -24 394 -28 352 -34L349 -19C392 -8 428 11 435 37C437 42 439 45 442 45C443 45 445 44 446 44C496 26 497 14 497 -53V-426L524 -450C527 -453 528 -455 528 -457C528 -459 527 -461 524 -462L460 -499L435 -460H307V-564H363C363 -526 363 -522 373 -522C373 -522 404 -528 404 -546C404 -556 402 -597 402 -606V-698H542C552 -698 558 -699 558 -703C558 -706 554 -711 546 -719ZM214 -582V-698H363V-582ZM748 -88C829 -40 866 -1 892 36C909 61 914 65 923 65C940 65 950 48 950 30C950 23 948 15 944 8C921 -34 860 -66 754 -100ZM668 -112C587 -31 537 11 439 79L445 91C503 66 562 30 665 -43C686 -58 692 -61 708 -63C716 -64 719 -66 719 -68C719 -71 717 -73 712 -77Z"/>
</svg>