<svg xmlns="http://www.w3.org/2000/svg" viewBox="0 -1000 1000 1000">
	<path fill="#000000" d="M665 -621L609 -667C611 -636 612 -587 612 -563V-297C612 -240 610 -193 608 -171C608 -166 607 -162 607 -158C607 -146 610 -142 618 -142C621 -142 627 -143 633 -145C651 -151 651 -154 651 -180H871C871 -142 871 -138 877 -138C881 -138 887 -140 896 -145C913 -153 916 -158 916 -169V-175C914 -206 913 -226 913 -302V-588L942 -608C945 -610 946 -612 946 -614C946 -617 945 -619 941 -622L881 -664L858 -621H734L783 -761H951C960 -761 965 -763 965 -768C965 -771 962 -775 956 -781L912 -821L880 -780H641C618 -780 593 -782 568 -784L596 -750C613 -757 642 -761 663 -761H728C725 -710 722 -676 712 -621ZM871 -347H651V-467H871ZM651 -603H871V-485H651ZM871 -329V-198H651V-329ZM123 -718C124 -698 123 -608 123 -590C123 -216 95 -100 24 38L35 48C119 -68 143 -180 157 -355H388C396 -355 400 -356 400 -359C400 -361 397 -364 393 -369L356 -411L328 -376H276V-503H362C371 -503 375 -505 375 -508C375 -511 372 -515 368 -519L329 -561L300 -523H276V-589C297 -604 299 -605 299 -609C299 -612 296 -614 290 -617L234 -641C236 -612 238 -561 238 -530V-376H159C163 -440 165 -533 167 -655H386C396 -483 414 -330 434 -233C392 -121 340 -30 274 56L284 63C357 -16 408 -90 449 -174C466 -116 488 -74 520 -38C533 -24 563 -11 580 -11C585 -11 594 -12 594 -21C594 -27 591 -35 584 -48C576 -63 570 -89 570 -156C570 -176 571 -199 572 -227H558L542 -121C540 -106 535 -97 529 -97C508 -97 472 -222 472 -230C500 -298 522 -374 543 -466C545 -476 560 -491 569 -495C573 -497 575 -499 575 -502C575 -504 573 -507 568 -510L513 -540C497 -451 479 -373 458 -303C440 -400 430 -528 425 -655H565C574 -655 579 -656 579 -660C579 -663 575 -668 568 -675L526 -715L495 -676H424C423 -713 422 -751 422 -791C445 -808 447 -810 447 -813C447 -816 444 -819 438 -822L379 -850C380 -785 382 -728 384 -676H182ZM448 -804C474 -783 483 -766 492 -743C500 -724 505 -721 511 -721C522 -721 533 -736 533 -752C533 -755 532 -759 531 -762C525 -780 500 -798 452 -813ZM250 -351C252 -327 254 -284 254 -260V-98C254 -72 251 -61 221 -61C208 -61 190 -63 165 -67L163 -54C218 -37 225 -31 232 -7C233 -3 235 -1 238 -1C240 -1 243 -1 246 -3C283 -22 291 -37 291 -97V-307L303 -312C307 -314 309 -317 309 -319C309 -322 306 -325 301 -327ZM132 -44C160 -90 180 -127 216 -206C225 -225 231 -231 236 -233C242 -236 245 -238 245 -241C245 -244 243 -246 238 -249L194 -270C169 -169 153 -124 119 -51ZM305 -257C331 -218 345 -185 348 -150C350 -130 354 -124 364 -124C377 -124 387 -140 387 -161C387 -206 350 -240 314 -265ZM526 87C579 49 611 21 711 -85C719 -94 729 -100 739 -103C746 -105 750 -107 750 -110C750 -112 747 -115 741 -118L690 -146C656 -82 604 -11 517 76ZM805 -125C857 -75 886 -32 906 18C918 49 927 57 936 57C951 57 964 41 964 20C964 -15 916 -70 813 -136Z"/>
</svg>