<svg xmlns="http://www.w3.org/2000/svg" viewBox="0 -1000 1000 1000">
	<path fill="#000000" d="M283 -489H229L183 -531C185 -506 185 -467 185 -448V-353C185 -336 183 -259 183 -244C183 -232 185 -228 192 -228C195 -228 199 -229 205 -231C223 -238 225 -241 225 -252V-273H283V-104L139 -86L167 -37C169 -34 171 -32 174 -32C177 -32 181 -34 186 -38C194 -45 241 -65 267 -71L424 -105C426 -98 427 -91 427 -84C427 -47 433 -42 446 -42C462 -42 476 -59 476 -85C476 -119 453 -154 390 -213L381 -205C398 -179 412 -150 420 -122L324 -109V-273H379C379 -246 379 -243 385 -243C386 -243 423 -254 423 -270C423 -285 419 -359 419 -376V-455L440 -471C444 -474 446 -477 446 -479C446 -481 444 -484 441 -486L390 -522L368 -489H324V-630C386 -645 397 -647 415 -647C418 -647 430 -645 433 -645C435 -645 436 -646 436 -648C436 -649 435 -651 433 -654L396 -697C335 -666 248 -635 166 -613L167 -595C205 -602 241 -610 283 -620ZM103 -812C103 -467 102 -267 100 -228C92 -82 77 -22 30 70L44 77C144 -53 144 -167 144 -745H461C461 -325 466 -237 480 -186C521 -31 685 64 908 64C957 64 973 56 973 46C973 42 970 37 965 32C942 7 939 -10 939 -149L922 -151C906 -11 901 2 890 11C885 15 873 17 855 17C744 17 551 -55 518 -204C507 -254 502 -382 502 -728L533 -746C537 -748 538 -751 538 -753C538 -756 536 -760 531 -764L479 -807L450 -767H152ZM627 -230V-425H839V-230ZM283 -295H225V-467H283ZM324 -295V-467H379V-295ZM582 -487C583 -464 585 -416 585 -389V-271C585 -234 584 -199 582 -162V-155C582 -143 583 -139 589 -139C593 -139 599 -141 607 -145C626 -154 627 -157 627 -175V-208H839V-171C839 -159 842 -153 850 -153C862 -153 886 -163 886 -183C886 -189 883 -239 883 -250V-408L911 -429C914 -431 916 -434 916 -436C916 -438 914 -440 910 -443L848 -484L824 -447H748V-596H943C953 -596 958 -597 958 -601C958 -605 954 -610 947 -617L892 -673L854 -618H748V-770C775 -788 779 -790 779 -794C779 -797 775 -800 768 -803L699 -838C701 -801 703 -733 703 -692V-447H644Z"/>
</svg>