<svg xmlns="http://www.w3.org/2000/svg" viewBox="0 -1000 1000 1000">
	<path fill="#000000" d="M880 -826L837 -773H572C549 -773 524 -775 499 -777L527 -742C544 -749 573 -753 594 -753H672C671 -708 666 -670 652 -617H609L550 -665C552 -634 553 -586 553 -562V-268C553 -211 551 -164 549 -142C548 -135 548 -129 548 -125C548 -115 550 -111 556 -111C561 -111 568 -113 577 -116C597 -123 597 -126 597 -150H827V-117C827 -108 828 -103 833 -103C837 -103 843 -105 852 -110C870 -119 874 -123 874 -135V-140C872 -171 871 -191 871 -267V-585L902 -605C905 -607 906 -609 906 -610C906 -612 905 -614 901 -617L837 -662L808 -617H674C699 -671 716 -711 732 -753H931C940 -753 944 -754 944 -758C944 -761 941 -765 934 -772ZM597 -327V-456H827V-327ZM597 -476V-597H827V-476ZM597 -170V-307H827V-170ZM425 -810L399 -771H168L112 -811C114 -782 115 -736 115 -713V-640C115 -590 114 -539 113 -523V-518C113 -510 115 -506 120 -506C123 -506 129 -508 137 -512C159 -522 159 -524 159 -542H231C252 -522 264 -503 272 -470C276 -455 280 -446 292 -446C312 -446 323 -464 323 -480C323 -503 307 -520 258 -542H411C411 -516 411 -513 418 -513C422 -513 430 -516 441 -521C454 -527 457 -531 457 -542V-549C456 -564 455 -611 455 -654V-739L483 -756C487 -758 489 -760 489 -762C489 -764 486 -767 482 -770ZM159 -669V-751H411V-669ZM159 -562V-649H411V-562ZM412 -388L386 -352H184L130 -389C132 -360 133 -314 133 -291V-244C133 -235 131 -196 131 -188C131 -180 132 -176 137 -176C140 -176 146 -178 154 -182C176 -192 176 -193 176 -214H274V-22C274 -2 265 8 229 8C210 8 183 5 145 0L143 15C216 32 239 42 247 77C248 84 250 87 254 87C256 87 258 86 261 84C312 49 318 44 318 -3V-214H401C401 -178 401 -177 408 -177C412 -177 420 -180 431 -185C444 -190 446 -195 446 -206C446 -225 444 -311 444 -328L463 -338C468 -340 470 -343 470 -345C470 -348 468 -350 462 -354ZM176 -234V-332H401V-234ZM470 -493L429 -445H102C79 -445 54 -447 29 -449L57 -414C74 -421 103 -425 124 -425H515C524 -425 528 -426 528 -430C528 -433 525 -437 518 -444ZM345 -153C402 -116 423 -81 435 -51C444 -28 451 -23 462 -23C477 -23 488 -44 488 -64C488 -112 414 -140 349 -164ZM172 -173C146 -116 86 -21 40 37L51 45C79 21 136 -40 187 -102C201 -119 214 -128 227 -131C232 -132 235 -134 235 -136C235 -138 232 -141 225 -145ZM745 -97C824 -47 878 17 890 44C898 62 908 68 915 68C933 68 944 47 944 27C944 19 943 11 939 4C923 -25 876 -62 751 -107ZM643 -120C595 -66 494 26 433 71L438 82C487 58 522 38 641 -43C658 -55 673 -62 686 -62C695 -62 700 -63 700 -66C700 -68 697 -72 691 -77Z"/>
</svg>