<svg xmlns="http://www.w3.org/2000/svg" viewBox="0 -1000 1000 1000">
	<path fill="#000000" d="M368 -273H165V-386H368ZM165 -514H368V-408H165ZM224 -848C199 -752 115 -561 24 -421L35 -411C64 -446 90 -481 122 -533V-63C122 -36 115 -24 83 2L127 51C131 55 133 57 136 57C138 57 140 55 142 52C162 20 193 -9 345 -121C364 -97 380 -72 388 -50C398 -25 402 -22 406 -22C420 -22 429 -35 429 -58C429 -108 398 -145 281 -199L274 -192C294 -178 315 -158 334 -135L165 -37V-251H368V-221C368 -214 370 -210 375 -210C378 -210 382 -212 388 -214C405 -222 410 -226 410 -240V-248C409 -260 408 -281 408 -359V-501L428 -518C432 -520 434 -522 434 -525C434 -528 431 -531 425 -536L381 -576L355 -536H170L139 -561C161 -598 184 -638 210 -687C240 -651 257 -625 262 -600C267 -573 272 -567 283 -567C299 -567 310 -582 310 -605C310 -624 301 -648 215 -698C226 -720 238 -743 250 -767C312 -740 378 -680 400 -644C415 -619 421 -615 431 -615C441 -615 449 -626 449 -643C449 -651 447 -662 442 -673C429 -701 367 -745 259 -781C266 -790 273 -796 280 -799C288 -802 292 -805 292 -808C292 -810 289 -813 283 -816ZM507 -466C496 -350 470 -302 433 -265C419 -251 414 -243 414 -235C414 -219 428 -215 443 -215C452 -215 461 -217 469 -222C503 -243 525 -336 521 -466ZM828 -462C870 -392 894 -340 902 -272C906 -237 910 -233 920 -233C938 -233 957 -260 957 -294C957 -297 957 -301 956 -305C952 -337 906 -402 838 -469ZM588 -831C649 -760 662 -713 670 -653C672 -638 681 -628 693 -628C708 -628 724 -652 724 -686C724 -731 646 -806 595 -840ZM610 -574C641 -591 641 -592 641 -595C641 -598 638 -602 631 -606L561 -653C563 -630 564 -590 564 -552V-144C482 -57 408 3 333 51L338 63C421 24 500 -32 564 -93V-47C564 20 576 27 704 27C826 27 849 19 877 -35C879 -39 880 -42 880 -44C880 -49 876 -52 869 -58C852 -71 847 -101 847 -215H832C823 -34 806 -21 761 -16C742 -14 718 -12 692 -12C616 -12 610 -20 610 -50V-141C744 -291 798 -414 855 -693C857 -702 864 -706 885 -715C889 -717 891 -719 891 -721C891 -723 889 -726 885 -728L813 -774C793 -527 723 -335 610 -197Z"/>
</svg>