<svg xmlns="http://www.w3.org/2000/svg" viewBox="0 -1000 1000 1000">
	<path fill="#000000" d="M319 -273H161V-396H319ZM161 -528H319V-418H161ZM213 -855C183 -744 110 -578 20 -435L36 -426C61 -460 89 -501 118 -548V-51C118 -24 111 -12 79 14L123 63C127 67 129 69 132 69C134 69 136 67 138 64C159 26 176 3 321 -102C332 -81 340 -60 346 -40C355 -12 359 -9 370 -9C385 -9 401 -27 401 -54C401 -58 401 -63 400 -68C394 -98 354 -139 254 -202L244 -192C281 -160 293 -147 309 -121L161 -25V-251H319V-221C319 -213 320 -209 325 -209C328 -209 333 -211 341 -214C359 -222 364 -226 364 -240V-248C363 -260 362 -295 362 -373V-515L392 -532C396 -534 398 -536 398 -539C398 -542 395 -545 389 -550L334 -590L308 -550H166L135 -576C159 -616 176 -645 196 -685C218 -656 229 -634 233 -612C238 -585 243 -579 254 -579C270 -579 281 -594 281 -617C281 -637 271 -658 205 -701C217 -724 230 -749 243 -775C286 -747 321 -713 337 -686C352 -661 358 -657 368 -657C379 -657 389 -669 389 -688C389 -696 387 -705 383 -715C374 -736 330 -759 250 -788C256 -799 265 -807 273 -811C280 -814 284 -817 284 -820C284 -822 281 -825 275 -828ZM337 82C521 33 617 -48 660 -181C702 -80 776 -2 888 49C892 51 895 52 897 52C900 52 902 50 904 47C919 25 933 15 986 11V-4C839 -14 745 -72 675 -190H941C952 -190 958 -192 958 -196C958 -199 954 -205 946 -212L887 -267L846 -212H669C673 -228 676 -242 680 -267C705 -283 708 -285 708 -289C708 -292 706 -294 701 -295L633 -319C633 -285 628 -241 622 -212H446C423 -212 398 -214 373 -216L401 -179C418 -186 447 -190 468 -190H616C585 -73 500 8 336 68ZM570 -592V-426C570 -413 569 -355 569 -343C569 -334 571 -330 576 -330C580 -330 585 -331 592 -334C612 -343 616 -347 616 -361C616 -382 614 -414 614 -434V-592H702V-440C702 -427 701 -369 701 -357C701 -348 703 -344 708 -344C712 -344 717 -345 724 -348C744 -357 748 -361 748 -375C748 -396 746 -428 746 -448V-592H842V-381C842 -361 836 -349 806 -349C792 -349 773 -352 746 -357L742 -345C798 -327 813 -312 816 -290C817 -286 820 -283 825 -283C828 -283 832 -284 836 -287C880 -316 886 -325 886 -375V-577L915 -591C920 -594 923 -596 923 -599C923 -601 920 -604 916 -608L854 -662L821 -614H589C616 -661 634 -692 663 -745H920C929 -745 934 -746 934 -749C934 -752 930 -757 924 -763L860 -828L811 -767H469C446 -767 421 -769 396 -771L424 -734C441 -741 470 -745 491 -745H603C597 -704 586 -667 566 -614H492L436 -662C438 -633 440 -599 440 -567V-377C440 -364 437 -298 437 -293C437 -286 438 -283 443 -283C448 -283 455 -285 466 -290C483 -298 488 -302 488 -315C488 -327 484 -379 484 -390V-592Z"/>
</svg>