<svg xmlns="http://www.w3.org/2000/svg" viewBox="0 -1000 1000 1000">
	<path fill="#000000" d="M907 -768L874 -722H815V-790C848 -808 849 -809 849 -813C849 -815 845 -818 838 -821L770 -853C772 -820 773 -792 773 -767V-722H579V-791C611 -810 611 -810 611 -814C611 -818 607 -821 599 -825L534 -856C536 -823 537 -795 537 -770V-722H499C476 -722 451 -724 426 -726L454 -689C481 -700 515 -700 537 -700V-621C537 -610 536 -561 536 -551C536 -537 538 -532 544 -532C547 -532 553 -534 560 -537C579 -546 579 -549 579 -577H652V-486H517L457 -534C459 -504 460 -472 460 -448V-347C460 -337 456 -291 456 -287C456 -281 458 -279 462 -279C466 -279 472 -281 481 -284C501 -291 503 -295 503 -308V-334H652V-243H476C453 -243 428 -245 403 -247L432 -210C449 -217 478 -221 499 -221H652V-123H523C500 -123 475 -125 450 -127L479 -90C496 -97 525 -101 546 -101H652V13H426C403 13 378 11 353 9L382 46C399 39 428 35 449 35H938C948 35 953 34 953 30C953 27 949 21 942 13L897 -38L858 13H696V-101H872C884 -101 890 -102 890 -106C890 -109 885 -115 876 -123L829 -166L797 -123H696V-221H920C932 -221 937 -222 937 -225C937 -229 933 -234 924 -243L880 -288L845 -243H696V-334H849C849 -304 849 -301 857 -301C867 -301 895 -311 895 -324C895 -336 892 -388 892 -399V-454L922 -474C926 -477 928 -479 928 -481C928 -484 925 -486 920 -489L857 -524L836 -486H696V-577H773C773 -555 773 -549 781 -549C790 -549 817 -560 817 -574C817 -584 815 -626 815 -635V-700H950C960 -700 966 -701 966 -706C966 -709 962 -714 954 -722ZM696 -356V-464H849V-356ZM503 -356V-464H652V-356ZM579 -599V-700H773V-599ZM239 -862C204 -736 109 -539 27 -409L40 -399C75 -441 104 -482 137 -537V-65C137 -23 131 -13 89 11L137 58C141 61 143 63 146 63C148 63 150 61 151 58C164 30 208 -10 339 -96C348 -82 354 -68 357 -57C365 -30 374 -23 382 -23C397 -23 412 -41 412 -64C412 -96 384 -138 266 -200L256 -189C286 -165 310 -138 328 -113L179 -32V-252H321C321 -216 321 -212 327 -212C331 -212 336 -215 346 -220C363 -229 366 -234 366 -246V-254C365 -276 364 -318 364 -379V-507L390 -521C395 -524 398 -526 398 -528C398 -531 395 -534 390 -538L336 -579L308 -543H182L153 -564C184 -617 218 -685 262 -774C311 -742 353 -704 369 -675C384 -649 388 -645 399 -645C412 -645 425 -661 425 -682C425 -723 386 -745 271 -790C278 -801 290 -811 301 -816C309 -819 312 -822 312 -825C312 -827 310 -830 304 -832ZM179 -408V-521H321V-408ZM179 -274V-386H321V-274ZM212 -670C244 -635 251 -618 256 -602C264 -577 268 -571 277 -571C293 -571 307 -590 307 -611C307 -638 291 -651 221 -687Z"/>
</svg>