<svg xmlns="http://www.w3.org/2000/svg" viewBox="0 -1000 1000 1000">
	<path fill="#000000" d="M229 -864C164 -693 86 -523 12 -401L24 -391C56 -432 89 -481 129 -548V-72C129 -21 126 -15 87 9L129 56C132 59 135 61 137 61C139 61 141 59 143 56C155 36 199 -9 312 -98C319 -86 323 -75 325 -67C330 -44 334 -41 345 -41C358 -41 374 -57 374 -81C374 -114 345 -144 260 -191L251 -182C273 -157 290 -134 303 -114L172 -32V-245H325C325 -210 325 -209 331 -209C334 -209 340 -211 350 -216C368 -225 371 -229 371 -241C371 -262 369 -356 369 -375V-512C380 -519 399 -531 399 -534C399 -537 396 -539 391 -543L338 -581L311 -544H177L145 -577C165 -611 186 -649 208 -691C228 -659 244 -626 248 -606C254 -580 260 -572 268 -572C289 -572 302 -593 302 -615C302 -632 279 -659 214 -703C226 -726 238 -748 250 -772C297 -733 333 -691 349 -658C358 -639 364 -630 378 -630C392 -630 404 -644 404 -665C404 -698 387 -723 257 -786C265 -799 275 -807 284 -809C292 -811 296 -813 296 -816C296 -819 293 -822 287 -826ZM172 -412V-523H325V-412ZM172 -266V-391H325V-266ZM901 -45L863 6H833L844 -278L873 -292C879 -295 882 -297 882 -300C882 -303 880 -306 875 -309L817 -356L788 -317H643C620 -317 595 -319 570 -321L591 -285C602 -289 617 -293 632 -294L627 -167H577C554 -167 529 -169 504 -171L536 -135C563 -146 597 -146 626 -146L619 6H477C454 6 429 4 404 2L444 38C461 31 490 27 511 27H952C961 27 966 26 966 23C966 20 963 16 958 11ZM797 -167H670L675 -296H801ZM791 6H662L669 -146H796ZM493 -830C534 -795 562 -753 567 -723C569 -711 576 -700 587 -700C606 -700 621 -721 621 -743C621 -779 573 -813 500 -840ZM903 -493L862 -442H605C614 -477 621 -510 627 -540H875C886 -540 892 -541 892 -545C892 -548 889 -552 882 -559L833 -609L796 -561H632C639 -599 646 -636 650 -672H933C944 -672 950 -673 950 -677C950 -680 947 -684 940 -691L889 -742L851 -693H710L775 -771C795 -795 802 -801 828 -810C834 -812 837 -814 837 -816C837 -818 835 -819 832 -821L762 -856C741 -800 718 -750 688 -693H484C461 -693 436 -695 411 -697L447 -661C464 -668 493 -672 514 -672H600C600 -643 595 -603 587 -561H493C470 -561 445 -563 420 -565L456 -529C473 -536 502 -540 523 -540H582C576 -506 569 -471 561 -442H451C428 -442 403 -444 378 -446L414 -410C431 -417 460 -421 481 -421H555C508 -257 441 -109 328 28L339 40C472 -84 558 -263 600 -421H947C958 -421 964 -422 964 -426C964 -429 961 -433 954 -440Z"/>
</svg>