<svg xmlns="http://www.w3.org/2000/svg" viewBox="0 -1000 1000 1000">
	<path fill="#000000" d="M739 -380L717 -352H291L231 -401C233 -367 234 -343 234 -306V-151C234 -135 230 -63 230 -47C230 -36 232 -32 238 -32C242 -32 248 -34 257 -38C277 -46 278 -52 278 -70H722C722 -51 722 -42 731 -42C735 -42 740 -44 749 -48C767 -55 772 -59 772 -73C772 -73 767 -159 767 -175V-313L789 -323C794 -326 797 -328 797 -330C797 -332 794 -335 789 -339ZM278 -272V-332H722V-272ZM278 -185V-252H722V-185ZM278 -90V-165H722V-90ZM404 -686L378 -648H219C196 -648 171 -650 146 -652L174 -617C201 -628 234 -628 268 -628V-550H202C179 -550 154 -552 129 -554L157 -519C174 -526 203 -530 224 -530H268V-451L65 -435L101 -387C102 -385 104 -384 106 -384C108 -384 110 -385 113 -387C128 -397 172 -409 224 -417L441 -449L440 -465L313 -455V-530H422C432 -530 438 -531 438 -535C438 -538 434 -542 428 -549L393 -587L366 -550H313V-628H439C451 -628 457 -629 457 -632C457 -635 453 -639 445 -647ZM382 -59C307 -11 143 47 39 77L41 89C128 79 185 63 378 0C384 -2 391 -3 398 -3C402 -3 418 -2 421 -2C425 -2 427 -3 427 -6C427 -8 426 -11 423 -14ZM890 -574L857 -529H708V-615H887C897 -615 902 -616 902 -620C902 -622 899 -626 892 -632L844 -672L817 -635H566C571 -640 575 -645 579 -650C596 -670 602 -673 618 -677C624 -679 628 -681 628 -683C628 -685 625 -688 619 -691L569 -717C546 -665 503 -600 464 -551L473 -543C502 -569 527 -594 547 -615H663V-529H525C502 -529 477 -531 452 -533L480 -498C485 -500 491 -501 497 -503C498 -494 498 -482 498 -474V-440L469 -424L513 -391C515 -390 516 -389 518 -389C522 -389 524 -391 542 -409H840V-371C840 -366 841 -364 846 -364C853 -364 884 -370 884 -381C884 -383 881 -413 881 -419V-454C898 -465 899 -467 899 -469C899 -472 897 -474 892 -476L838 -500C840 -486 840 -474 840 -460V-430H708V-509H935C947 -509 952 -510 952 -514C952 -517 949 -521 941 -528ZM538 -430V-471C552 -477 554 -478 554 -481C554 -483 552 -485 547 -487L500 -504C515 -507 533 -509 547 -509H663V-430ZM438 -854C469 -831 481 -807 490 -774C494 -759 504 -752 511 -752C530 -752 547 -769 547 -787C547 -815 503 -843 443 -863ZM886 -783L854 -747H163C163 -759 162 -773 161 -788H146C140 -730 105 -689 86 -676C66 -662 56 -652 56 -641C56 -632 65 -619 84 -619C93 -619 104 -622 115 -628C143 -643 159 -672 162 -727H855L825 -681L835 -673C883 -709 914 -721 942 -723C949 -724 952 -725 952 -728C952 -731 949 -735 942 -740ZM560 -18C729 5 833 46 866 67C880 76 892 82 903 82C911 82 920 78 920 62C920 50 913 33 893 18C872 1 775 -24 561 -31Z"/>
</svg>