<svg xmlns="http://www.w3.org/2000/svg" viewBox="0 -1000 1000 1000">
	<path fill="#000000" d="M151 -43V-169H342V-43ZM103 -370C105 -352 105 -323 105 -302V-79C105 -43 105 -18 102 7V14C102 22 104 25 109 25C117 25 151 15 151 -1V-21H342C342 8 342 11 349 11C353 11 387 1 387 -14V-17C384 -49 384 -74 384 -100V-289L412 -309C416 -312 418 -315 418 -319C418 -322 416 -325 412 -328L354 -368L327 -330H156ZM151 -191V-308H342V-191ZM496 -476C485 -360 459 -312 422 -275C408 -261 403 -253 403 -245C403 -229 417 -225 432 -225C441 -225 450 -227 458 -232C492 -253 514 -355 510 -476ZM829 -462C871 -392 895 -340 903 -272C907 -237 911 -233 921 -233C939 -233 958 -260 958 -294C958 -297 958 -301 957 -305C953 -337 907 -402 839 -469ZM600 -831C661 -760 674 -713 682 -653C684 -638 695 -628 705 -628C720 -628 736 -652 736 -686C736 -731 658 -806 607 -840ZM616 -574C647 -591 647 -592 647 -595C647 -598 644 -602 637 -606L567 -653C569 -630 570 -590 570 -552V-136C485 -45 424 7 351 53L358 65C437 28 509 -26 570 -85V-47C570 20 581 28 717 28C840 28 863 18 890 -35C892 -39 893 -42 893 -44C893 -49 889 -52 882 -58C865 -71 860 -101 860 -215H845C836 -34 819 -21 774 -16C756 -14 728 -12 700 -12C620 -12 616 -18 616 -50V-133C756 -287 810 -415 869 -693C871 -702 875 -705 899 -715C903 -717 905 -719 905 -721C905 -723 903 -726 899 -728L827 -774C806 -524 723 -317 616 -187ZM276 -592H458C466 -592 470 -594 470 -598C470 -601 467 -605 462 -610L413 -658L381 -612H276V-725C305 -731 334 -737 366 -744C376 -746 386 -747 395 -747C399 -747 416 -745 420 -745C422 -745 424 -746 424 -748C424 -750 422 -753 419 -758L384 -808C305 -771 192 -735 75 -710L78 -693C136 -700 185 -708 234 -717V-612H105C82 -612 57 -614 32 -616L60 -581C73 -587 103 -592 127 -592H226C172 -495 112 -426 22 -350L32 -341C129 -408 187 -459 234 -526V-493C234 -458 232 -424 227 -367C227 -363 226 -359 226 -356C226 -346 229 -342 234 -342C238 -342 244 -345 252 -350C274 -365 279 -370 279 -385C279 -395 276 -488 276 -508V-544C320 -518 362 -481 373 -454C382 -433 390 -427 398 -427C411 -427 422 -445 422 -464C422 -471 420 -478 417 -484C404 -509 364 -534 276 -561Z"/>
</svg>