<svg xmlns="http://www.w3.org/2000/svg" viewBox="0 -1000 1000 1000">
	<path fill="#000000" d="M110 -820C112 -789 113 -741 113 -717V-400C113 -381 111 -298 111 -281C111 -272 112 -268 117 -268C125 -268 157 -280 157 -301V-315H412C412 -235 407 -94 403 -63C397 -24 384 -8 331 -8C307 -8 276 -11 233 -17L231 -1C320 18 339 34 346 63C348 70 350 74 354 74C356 74 359 72 364 70C444 27 453 0 453 -300C479 -320 482 -322 482 -325C482 -328 479 -331 473 -336L427 -372L401 -337H314V-454H427C437 -454 442 -455 442 -459C442 -462 439 -466 433 -473L389 -523L354 -476H314V-598H445C456 -598 461 -599 461 -603C461 -606 458 -610 451 -617L404 -664L366 -620H314V-737H471C482 -737 488 -738 488 -741C488 -744 484 -749 477 -756L429 -804L387 -759H166ZM270 -476H157V-598H270ZM270 -454V-337H157V-454ZM270 -620H157V-737H270ZM300 -278C326 -235 338 -196 338 -158C338 -132 342 -125 354 -125C369 -125 386 -136 386 -167C386 -200 339 -258 308 -285ZM102 -243C102 -163 79 -115 60 -93C46 -77 40 -65 40 -56C40 -43 53 -33 66 -33C82 -33 126 -44 126 -149C126 -176 122 -209 115 -246ZM155 -240C165 -212 172 -182 172 -151C172 -142 168 -106 168 -99C168 -81 175 -75 187 -75C204 -75 221 -97 221 -121C221 -153 200 -190 165 -246ZM222 -259C248 -211 258 -171 258 -130C258 -110 264 -105 278 -105C291 -105 306 -124 306 -146C306 -173 278 -221 232 -266ZM559 -472C633 -386 657 -336 665 -274C669 -247 675 -240 688 -240C709 -240 725 -261 725 -290C725 -298 724 -306 721 -315C711 -349 659 -412 570 -485ZM842 -618C840 -373 829 -193 815 -97C807 -42 792 -19 735 -19C702 -19 655 -27 588 -41L585 -25C694 3 722 25 727 62C728 69 734 74 740 74C743 74 745 73 747 72C836 30 855 4 866 -100C876 -196 887 -382 890 -598L928 -623C932 -626 934 -628 934 -631C934 -633 932 -636 928 -639L859 -694L825 -641H598C613 -675 627 -712 642 -752C649 -770 658 -778 673 -783C682 -786 687 -789 687 -793C687 -797 684 -801 676 -805L609 -842C566 -666 516 -525 441 -382L458 -372C505 -443 552 -530 588 -618Z"/>
</svg>