<svg xmlns="http://www.w3.org/2000/svg" viewBox="0 -1000 1000 1000">
	<path fill="#000000" d="M183 -840C185 -818 186 -795 186 -766V-626C186 -572 185 -541 183 -523C182 -519 182 -515 182 -512C182 -503 185 -500 192 -500C203 -500 227 -504 229 -527H831C826 -478 819 -437 809 -402C803 -380 796 -370 766 -370C745 -370 712 -375 658 -385L655 -374C728 -352 750 -341 757 -318C760 -308 762 -304 766 -304C768 -304 770 -305 773 -306C829 -329 837 -340 847 -376C865 -442 872 -476 877 -511C910 -531 913 -534 913 -537C913 -539 911 -541 907 -544L849 -582L821 -546H521V-613H764C773 -613 777 -614 777 -617C777 -619 774 -623 769 -628L728 -668L692 -629H521V-696H758C767 -696 772 -697 772 -700C772 -703 769 -706 763 -711L717 -751L684 -716H521V-780H854C862 -780 866 -781 866 -784C866 -786 863 -790 858 -795L812 -839L775 -801H237ZM526 -109V-231H776V-109ZM477 -629H229V-696H477ZM477 -613V-546H229V-613ZM477 -716H229V-780H477ZM180 -304C182 -273 183 -227 183 -197V-149C183 -107 182 -85 180 -52V-45C180 -35 181 -31 187 -31C190 -31 196 -33 205 -37C225 -46 228 -49 228 -62V-87H479C479 -63 478 46 478 68C478 82 480 88 486 88C490 88 496 86 503 83C527 73 528 69 528 53C527 12 526 -26 526 -75V-87H776V-53C776 -45 777 -40 783 -40C787 -40 793 -42 803 -46C824 -55 827 -59 827 -72C827 -89 822 -164 822 -179V-220L838 -235C845 -240 849 -243 849 -247C849 -250 845 -254 837 -257L780 -288L761 -253H526V-326C556 -343 559 -344 559 -349C559 -352 555 -355 545 -360L476 -393C477 -359 479 -290 479 -253H240ZM479 -109H228V-231H479ZM150 -511C134 -445 116 -419 70 -389C54 -378 45 -367 45 -356C45 -343 61 -330 75 -330C86 -330 99 -336 118 -351C144 -371 158 -408 166 -510ZM607 -505C648 -476 661 -454 665 -426C667 -410 679 -404 691 -404C705 -404 714 -420 714 -442C714 -458 711 -480 617 -516ZM273 -495C289 -470 297 -441 297 -413C297 -407 294 -383 294 -378C294 -361 303 -354 317 -354C334 -354 353 -372 353 -403C353 -419 338 -446 286 -503ZM425 -501C462 -467 474 -444 477 -416C479 -396 490 -385 500 -385C514 -385 528 -402 528 -430C528 -448 507 -475 437 -514Z"/>
</svg>