<svg xmlns="http://www.w3.org/2000/svg" viewBox="0 -1000 1000 1000">
	<path fill="#000000" d="M239 -504H143V-615H239ZM98 -815C100 -784 101 -738 101 -715V-443C101 -424 99 -342 99 -325C99 -316 101 -311 106 -311C110 -311 116 -314 125 -318C140 -326 143 -330 143 -346H361C361 -287 357 -135 346 -68C340 -28 329 -11 282 -11C259 -11 227 -15 183 -22L181 -9C260 9 277 22 283 51C284 58 286 61 291 61C293 61 296 60 300 58C366 27 379 14 387 -65C393 -120 402 -264 402 -335L427 -350C432 -353 434 -356 434 -358C434 -361 432 -363 427 -366L375 -399L350 -366H281V-484H419C428 -484 432 -485 432 -488C432 -490 429 -494 424 -500L383 -548L350 -504H281V-615H420C429 -615 434 -616 434 -619C434 -622 431 -626 425 -631L381 -676L349 -635H281V-747H427C434 -747 438 -748 438 -751C438 -753 435 -757 429 -763L384 -809L351 -767H151ZM239 -484V-366H143V-484ZM239 -635H143V-747H239ZM85 -268C85 -184 65 -117 41 -90C34 -82 31 -74 31 -67C31 -50 47 -49 52 -49C55 -49 106 -49 106 -165C106 -196 103 -232 96 -268ZM136 -264C148 -233 155 -197 155 -166C155 -158 149 -122 149 -115C149 -102 154 -95 163 -95C184 -95 194 -115 194 -133C194 -173 182 -210 144 -267ZM190 -283C216 -242 229 -179 229 -151C229 -127 233 -118 243 -118C261 -118 271 -139 271 -155C271 -190 242 -239 198 -287ZM266 -291C290 -244 299 -209 299 -177C299 -156 302 -146 314 -146C330 -146 337 -162 337 -190C337 -210 315 -248 276 -297ZM507 -566C509 -545 509 -525 509 -498V-366C486 -366 455 -368 432 -370L460 -333C475 -339 491 -343 509 -344C509 -145 481 -76 371 58L382 66C506 -43 550 -122 551 -344H655C664 -344 668 -345 668 -349C668 -351 665 -356 659 -362L615 -408L582 -366H551C551 -406 553 -458 554 -498C579 -514 581 -516 581 -519C581 -521 579 -523 573 -527ZM492 73C592 15 666 -53 725 -137C758 -43 804 11 862 47C901 71 924 80 938 80C956 80 956 63 956 61C956 54 952 44 942 33C930 20 921 -11 921 -80C921 -105 923 -136 925 -172L911 -174L880 -6C829 -34 787 -85 756 -187C795 -254 827 -332 856 -426C864 -452 869 -458 888 -464C896 -467 899 -469 899 -471C899 -474 896 -476 891 -479L823 -517C803 -415 778 -326 741 -247C722 -339 711 -460 707 -602H939C948 -602 952 -604 952 -608C952 -611 949 -616 943 -622L891 -677L849 -624H707C706 -679 705 -738 706 -789L732 -804C736 -806 738 -808 738 -811C738 -813 735 -815 730 -818L658 -856C659 -822 662 -715 665 -624H519C496 -624 471 -624 446 -626L474 -591C491 -598 520 -602 541 -602H665C667 -559 668 -521 669 -499C676 -366 690 -264 710 -185C658 -94 586 -13 483 63ZM764 -797C811 -764 825 -745 838 -718C844 -706 848 -699 856 -699C870 -699 881 -712 881 -731C881 -743 877 -755 868 -765C853 -782 824 -796 769 -806Z"/>
</svg>