<svg xmlns="http://www.w3.org/2000/svg" viewBox="0 -1000 1000 1000">
	<path fill="#000000" d="M465 -825L424 -771H184L124 -824C126 -793 127 -745 127 -721V-403C127 -384 125 -298 125 -281C125 -272 126 -268 131 -268C131 -268 170 -280 170 -299V-323H422C422 -244 422 -110 416 -62C412 -28 398 -11 343 -11C318 -11 284 -14 239 -21L235 -6C314 12 338 29 345 55C348 65 350 69 354 69C356 69 359 68 362 66C425 38 445 21 456 -32C464 -70 468 -234 468 -303L495 -321C500 -324 502 -327 502 -329C502 -332 499 -335 493 -340L441 -380L415 -343H337V-467H472C482 -467 487 -469 487 -473C487 -476 485 -480 479 -486L432 -533L395 -487H337V-609H481C490 -609 495 -611 495 -614C495 -617 492 -621 487 -626L434 -679L396 -629H337V-751H517C526 -751 530 -753 530 -757C530 -760 528 -764 524 -768ZM170 -487V-609H294V-487ZM170 -629V-751H294V-629ZM170 -343V-467H294V-343ZM614 -39V-297H831V-39ZM784 -655C823 -613 856 -558 877 -514L567 -503C625 -595 675 -677 727 -768C736 -783 740 -785 760 -791C771 -794 776 -797 776 -800C776 -803 772 -807 763 -812L702 -851C649 -719 611 -637 569 -555C549 -517 533 -509 496 -501L532 -444C536 -438 538 -435 542 -435C545 -435 548 -437 553 -441C577 -458 648 -472 885 -496C891 -485 894 -474 897 -466C908 -429 912 -425 928 -425C943 -425 959 -442 959 -466C959 -513 873 -606 793 -665ZM846 -360L817 -319H626L566 -370C568 -339 569 -291 569 -267V-123C569 -52 568 2 565 39C564 45 564 50 564 54C564 64 566 68 571 68C575 68 581 65 591 59C613 46 614 43 614 34V-17H831V53C831 63 832 67 838 67C841 67 847 65 855 61C877 50 881 47 881 37V34C878 -12 876 -66 876 -138V-283L904 -298C910 -301 913 -304 913 -306C913 -309 910 -313 904 -317ZM309 -277C343 -228 358 -189 358 -163C358 -133 366 -128 377 -128C393 -128 406 -140 406 -164C406 -186 402 -216 319 -284ZM236 -257C263 -211 271 -173 271 -140C271 -109 273 -101 287 -101C310 -101 322 -126 322 -145C317 -175 291 -220 247 -264ZM166 -242C179 -210 185 -174 185 -142C185 -134 181 -99 181 -92C181 -77 186 -69 199 -69C221 -69 235 -88 235 -116C235 -147 218 -188 178 -247ZM119 -230C119 -165 92 -119 54 -81C41 -68 35 -57 35 -48C35 -37 45 -22 61 -22C70 -22 134 -32 134 -190C134 -203 134 -216 133 -230Z"/>
</svg>