<svg xmlns="http://www.w3.org/2000/svg" viewBox="0 -1000 1000 1000">
	<path fill="#000000" d="M496 -812L468 -768H192L134 -815C138 -751 140 -669 140 -583C140 -406 137 -182 27 8L37 17C139 -119 180 -254 186 -580H485C485 -556 485 -553 492 -553C496 -553 502 -555 512 -559C532 -567 537 -571 537 -583C537 -594 532 -646 532 -656V-732L560 -749C565 -752 568 -755 568 -759C568 -762 565 -765 559 -769ZM186 -602C187 -656 187 -701 187 -746H485V-602ZM915 -639L880 -591H846V-778C858 -785 878 -795 878 -798C878 -800 875 -802 869 -805L795 -836C797 -799 799 -731 799 -690V-591H633C610 -591 585 -593 560 -595L588 -558C605 -565 634 -569 655 -569H799V-36C799 -20 796 -11 762 -11C738 -11 700 -16 637 -25L633 -10C737 13 750 27 759 65C760 71 763 74 767 74C768 74 770 73 772 72C840 37 846 28 846 -44V-569H962C969 -569 973 -570 973 -573C973 -576 969 -580 963 -587ZM602 -457C638 -407 662 -333 662 -284C662 -259 670 -252 679 -252C705 -252 722 -275 722 -305C722 -340 683 -399 612 -465ZM492 -510L457 -467H306C283 -467 258 -469 233 -471L261 -434C278 -441 294 -445 323 -445H529C538 -445 542 -447 542 -452C542 -455 539 -461 533 -467ZM539 -384L502 -339H255C232 -339 207 -341 182 -343L210 -306C227 -313 243 -317 272 -317H362V-23C362 -10 360 -2 329 -2C309 -2 280 -5 233 -11L231 4C311 22 327 33 337 66C338 71 340 73 343 73C345 73 347 72 350 71C405 41 409 33 409 -23V-317H577C586 -317 590 -319 590 -324C590 -327 587 -333 581 -339ZM454 -215C508 -162 537 -115 551 -74C558 -55 564 -49 570 -49C587 -49 601 -70 601 -90C601 -135 558 -170 460 -225ZM257 -239C225 -146 184 -68 135 6L145 13C189 -42 232 -102 273 -166C285 -185 292 -190 307 -192C314 -193 318 -195 318 -198C318 -200 315 -204 308 -208Z"/>
</svg>