<svg xmlns="http://www.w3.org/2000/svg" viewBox="0 -1000 1000 1000">
	<path fill="#000000" d="M234 -587V-473H138V-587ZM277 -451H386C397 -451 402 -453 402 -457C402 -461 399 -466 393 -472L350 -519L313 -473H277V-587H388C398 -587 403 -588 403 -592C403 -595 400 -599 394 -606L342 -659L308 -609H277V-722H401C412 -722 417 -724 417 -728C417 -731 414 -736 408 -742L353 -799L313 -745H148L93 -802C95 -771 96 -739 96 -698V-397C96 -377 94 -291 94 -273C94 -264 95 -259 101 -259C105 -259 111 -262 119 -267C136 -276 138 -280 138 -300H340C341 -240 336 -155 327 -79C321 -28 297 -7 234 -7C213 -7 187 -9 155 -14L153 2C237 15 254 26 262 56C264 64 266 68 271 68C273 68 276 67 280 65C355 23 360 8 372 -92C379 -151 384 -220 387 -283L411 -297C417 -300 420 -303 420 -306C420 -309 416 -313 408 -319L360 -360L331 -322H277ZM234 -722V-609H138V-722ZM138 -451H234V-322H138ZM760 -791C800 -754 824 -721 831 -701C839 -679 844 -674 856 -674C869 -674 881 -693 881 -715C881 -725 879 -735 873 -744C861 -762 823 -785 766 -801ZM704 -342C707 -342 708 -343 708 -345C708 -346 708 -348 706 -350L670 -394L649 -364H632V-496C643 -502 660 -513 660 -515C660 -517 657 -519 652 -522L590 -556C591 -513 592 -474 592 -423V-364H514V-505C526 -513 546 -525 546 -527C546 -529 543 -530 538 -532L467 -556C472 -490 473 -454 473 -364C445 -364 438 -364 398 -368L421 -330C434 -337 452 -341 473 -342C472 -152 448 -75 362 24L375 33C492 -72 513 -152 514 -342H592V-201C592 -150 592 -107 589 -65V-59C589 -50 590 -46 596 -46C600 -46 606 -48 614 -52C631 -61 635 -64 635 -76V-82C633 -123 632 -171 632 -210V-342ZM534 75C644 4 717 -59 770 -144C802 -65 841 -8 888 29C921 55 941 64 952 64C959 64 963 60 963 53C963 49 962 43 956 32C942 3 934 -20 934 -65C934 -95 937 -136 945 -196L929 -199L899 -53C897 -41 894 -36 890 -36C887 -36 884 -38 881 -41C841 -80 824 -108 795 -188C825 -248 849 -319 871 -411C876 -433 883 -444 900 -449C908 -451 912 -453 912 -456C912 -458 909 -460 905 -463L842 -508C826 -400 806 -315 775 -243C749 -328 728 -438 723 -601H941C946 -601 948 -602 948 -604C948 -606 946 -609 943 -612L890 -671L851 -623H723C721 -702 720 -749 719 -796L745 -812C750 -815 752 -817 752 -819C752 -821 750 -822 744 -825L671 -860C678 -752 682 -682 683 -623H475C456 -623 434 -625 413 -627L437 -590C451 -597 476 -601 494 -601H683C687 -431 714 -303 752 -193C703 -98 632 -23 524 62ZM88 -239C92 -170 68 -104 42 -76C33 -67 29 -57 29 -48C29 -33 45 -25 54 -25C66 -25 77 -33 89 -47C103 -64 111 -94 111 -137C111 -165 108 -199 101 -239ZM126 -236C141 -210 148 -168 148 -140C148 -129 147 -121 145 -116C142 -110 141 -104 141 -98C141 -84 149 -73 159 -73C183 -73 194 -91 194 -125C194 -148 178 -192 137 -242ZM184 -243C205 -213 216 -171 216 -147C216 -115 226 -97 237 -97C255 -97 265 -112 265 -134C265 -162 251 -190 194 -250ZM241 -274C272 -241 285 -197 285 -163C285 -145 290 -132 300 -132C316 -132 328 -148 328 -176C328 -200 307 -236 250 -282Z"/>
</svg>