<svg xmlns="http://www.w3.org/2000/svg" viewBox="0 -1000 1000 1000">
	<path fill="#000000" d="M261 -523H150V-628H261ZM984 -9C935 -1 887 3 839 3C799 3 758 0 717 -5V-181H900C911 -181 916 -182 916 -186C916 -189 913 -193 907 -200L856 -255L817 -202H717V-355H962C970 -355 974 -356 974 -358C974 -360 971 -364 965 -371L916 -425L881 -375H513C495 -375 475 -376 456 -378C456 -380 454 -383 449 -386L396 -424L370 -391H304V-503H425C435 -503 439 -504 439 -507C439 -509 436 -513 430 -519L384 -567L354 -523H304V-628H422C432 -628 437 -629 437 -632C437 -635 433 -639 427 -644L382 -689L349 -648H304V-753H462C470 -753 474 -754 474 -756C474 -758 470 -762 464 -769L423 -815L389 -773H158L103 -821C105 -790 106 -744 106 -721V-461C106 -443 104 -366 104 -350C104 -341 106 -336 112 -336C116 -336 122 -339 131 -343C147 -351 149 -355 150 -371H383C379 -236 371 -156 349 -61C340 -21 326 -3 264 -3C237 -3 200 -6 151 -13L149 0C242 22 260 33 266 60C267 67 273 70 279 70C282 70 284 70 287 69C349 49 369 31 389 -58C408 -143 417 -221 423 -360L447 -370L468 -344C485 -351 514 -355 535 -355H672V-13C607 -26 564 -56 529 -122C540 -151 550 -183 561 -223C568 -247 572 -252 586 -260C593 -264 597 -268 597 -271C597 -275 593 -278 585 -282L530 -306C497 -115 470 -53 373 66L384 76C454 6 489 -35 520 -102C549 -33 589 7 661 29C715 45 790 55 877 58C887 58 891 56 897 48C910 30 917 25 984 10ZM261 -503V-391H150V-503ZM261 -648H150V-753H261ZM515 -824C517 -789 517 -743 517 -720V-530C517 -503 515 -460 515 -433C515 -426 516 -423 521 -423C525 -423 532 -425 543 -431C561 -440 561 -443 561 -454V-473H823V-433C823 -425 824 -421 829 -421C833 -421 840 -424 852 -430C869 -439 873 -443 873 -452V-456C871 -481 870 -504 870 -562V-738L888 -752C892 -754 894 -756 894 -759C894 -762 891 -766 885 -771L842 -817L812 -777H574ZM561 -638V-753H823V-638ZM561 -495V-616H823V-495ZM78 -293C72 -179 62 -148 32 -115C24 -106 20 -97 20 -89C20 -78 33 -72 45 -72C66 -72 99 -103 99 -181C99 -208 96 -244 89 -293ZM129 -289C142 -244 149 -215 149 -190C149 -181 142 -146 142 -138C142 -125 147 -118 157 -118C178 -118 189 -140 189 -158C189 -198 178 -227 139 -292ZM196 -298C224 -249 230 -204 230 -176C230 -152 234 -143 244 -143C263 -143 273 -162 273 -178C273 -199 263 -238 206 -304ZM267 -314C299 -267 307 -240 307 -206C307 -185 310 -175 322 -175C338 -175 348 -188 346 -217C344 -239 331 -271 277 -320Z"/>
</svg>