<svg xmlns="http://www.w3.org/2000/svg" viewBox="0 -1000 1000 1000">
	<path fill="#000000" d="M835 -184L809 -144H512V-211H795C803 -211 807 -212 807 -214C807 -216 804 -220 799 -225L754 -271L721 -227H512V-296H803C811 -296 815 -297 815 -300C815 -302 812 -305 807 -310L762 -354L729 -312H512V-382H849C857 -382 861 -383 861 -386C861 -388 858 -391 852 -396L806 -442L771 -398H253L198 -440C200 -420 202 -399 202 -373V-223C202 -185 201 -148 199 -114C199 -103 200 -99 206 -99C210 -99 215 -100 223 -102C240 -107 241 -113 241 -128H820C820 -96 808 -40 801 -19C793 5 785 16 756 16C737 16 709 11 665 2L663 12C727 33 748 46 749 65C750 74 751 77 756 77C757 77 759 77 762 76C825 53 839 48 855 -114L885 -126C890 -128 892 -130 892 -132C892 -134 890 -136 885 -140ZM241 -227V-296H474V-227ZM241 -312V-382H474V-312ZM241 -144V-211H474V-144ZM604 -113C632 -85 648 -61 653 -35C657 -17 660 -7 670 -7C685 -7 702 -25 702 -52C702 -68 675 -95 609 -120ZM886 -694L846 -649H648V-732H846C854 -732 858 -733 858 -736C858 -739 856 -742 851 -747L808 -789L774 -748H648V-797C674 -814 677 -816 677 -819C677 -821 674 -823 668 -826L605 -851C607 -824 609 -803 609 -781V-649H479V-770C506 -786 509 -788 509 -791C509 -794 506 -796 500 -798L437 -825C439 -797 441 -777 441 -755V-649H389C368 -649 346 -652 322 -654L346 -624C363 -630 391 -634 411 -634H608C610 -608 611 -583 611 -562V-503C520 -470 414 -445 328 -430L330 -420C522 -433 642 -475 814 -555C828 -561 835 -563 865 -564C871 -564 874 -565 874 -567C874 -569 872 -572 867 -576L821 -612C771 -577 700 -539 649 -518V-587C671 -599 674 -601 674 -602C674 -603 673 -604 670 -606L617 -630L618 -634H933C939 -634 942 -635 942 -637C942 -639 939 -642 934 -647ZM304 -814L278 -782H162L108 -830C110 -795 112 -740 112 -706V-575C112 -552 108 -443 108 -430C108 -417 110 -412 115 -412C119 -412 123 -414 130 -417C151 -428 154 -431 154 -446C152 -479 152 -515 152 -556V-767H284L232 -669C287 -618 294 -596 294 -567C294 -547 284 -536 240 -536C223 -536 202 -538 175 -541L173 -530C228 -522 250 -510 254 -487C256 -480 258 -476 261 -476C264 -476 337 -509 337 -556C337 -600 315 -624 249 -675L315 -746C320 -752 326 -755 345 -759C353 -761 357 -763 357 -766C357 -769 355 -772 350 -776ZM473 -617C420 -552 367 -503 318 -460L323 -453C388 -493 434 -524 482 -563C497 -574 503 -576 529 -579C534 -580 536 -581 536 -582C536 -583 534 -585 529 -587ZM441 -100C471 -69 489 -33 494 -5C498 15 501 21 511 21C523 21 545 4 545 -24C545 -44 509 -80 445 -106ZM282 -89C303 -58 309 -36 317 8C321 29 325 35 335 35C347 35 368 18 368 -10C368 -30 335 -65 290 -95ZM160 -105C150 -52 121 -12 94 3C77 14 69 24 69 33C69 44 87 52 99 52C111 52 124 46 136 38C160 19 174 -16 171 -105Z"/>
</svg>