<svg xmlns="http://www.w3.org/2000/svg" viewBox="0 -1000 1000 1000">
	<path fill="#000000" d="M862 -408L834 -370H558L502 -412C504 -383 506 -333 506 -311V-149C506 -25 503 17 500 46V51C500 59 501 62 506 62C510 62 517 59 528 54C545 45 548 42 548 32V-20H846V43C846 51 847 55 850 55C851 55 894 39 894 21V17C891 -8 888 -69 888 -123V-334L914 -350C920 -353 922 -356 922 -358C922 -361 920 -364 914 -368ZM716 -207V-351H846V-207ZM548 -207V-351H674V-207ZM716 -39V-188H846V-39ZM548 -39V-188H674V-39ZM400 -372L374 -334H312V-468H425C432 -468 435 -469 435 -473C435 -475 433 -479 428 -484L382 -534L348 -487H312V-616H435C443 -616 448 -618 448 -621C448 -624 445 -627 440 -632L393 -678L358 -635H312V-755H442C450 -755 454 -756 454 -759C454 -762 452 -766 447 -771L398 -824L361 -774H164L109 -827C111 -796 113 -750 113 -727V-405C113 -380 111 -311 110 -292C110 -280 111 -275 117 -275C120 -275 126 -277 134 -280C155 -289 155 -291 155 -315H386C386 -256 382 -150 375 -94C368 -35 355 -17 305 -17C281 -17 249 -21 205 -27L202 -14C280 2 305 14 311 44C313 52 315 56 319 56C321 56 324 54 329 52C394 18 403 -1 414 -105C420 -162 426 -238 426 -299L451 -314C456 -317 459 -320 459 -323C459 -325 456 -329 449 -334ZM155 -487V-616H270V-487ZM155 -635V-755H270V-635ZM155 -334V-468H270V-334ZM653 -826C638 -813 582 -774 532 -746L478 -788C480 -763 482 -742 482 -713V-545C482 -509 478 -502 459 -483L501 -447C503 -446 504 -445 506 -445C508 -445 509 -447 512 -452C525 -482 556 -519 630 -580C632 -569 634 -558 634 -546C634 -531 641 -522 648 -522C668 -522 683 -544 683 -563C683 -600 655 -636 593 -689L585 -684C608 -644 622 -619 628 -598L521 -523V-722C564 -740 614 -759 637 -769C651 -775 668 -779 686 -779C697 -779 708 -779 708 -781C708 -783 706 -785 702 -788ZM900 -790L873 -752H716C694 -752 670 -755 646 -757L672 -722C689 -728 717 -732 737 -732C737 -539 677 -468 595 -399L604 -389C739 -483 765 -541 779 -732H885C885 -671 880 -605 875 -542C872 -499 868 -482 836 -482C819 -482 794 -486 758 -494L754 -480C810 -469 829 -449 834 -427C836 -419 838 -417 842 -417C844 -417 846 -417 848 -418C899 -441 908 -468 914 -541C918 -595 925 -662 925 -711L954 -726C959 -729 962 -731 962 -734C962 -737 959 -740 954 -744ZM262 -295C300 -256 321 -214 321 -191C321 -169 327 -163 337 -163C345 -163 363 -173 363 -198C363 -225 341 -249 269 -302ZM197 -270C229 -234 247 -194 247 -167C247 -143 254 -137 264 -137C284 -137 290 -155 290 -175C290 -196 270 -222 204 -277ZM142 -248C157 -217 170 -173 170 -143C170 -140 169 -127 169 -124C169 -109 175 -100 183 -100C200 -100 213 -123 213 -141C213 -165 198 -197 153 -254ZM105 -250C104 -185 75 -127 53 -100C45 -90 41 -81 41 -74C41 -61 56 -55 65 -55C71 -55 121 -62 121 -170C121 -194 118 -221 114 -250Z"/>
</svg>