<svg xmlns="http://www.w3.org/2000/svg" viewBox="0 -1000 1000 1000">
	<path fill="#000000" d="M81 -829C83 -798 84 -750 84 -726V-409C84 -390 82 -308 82 -292C82 -282 84 -277 90 -277C94 -277 100 -280 109 -285C126 -295 126 -296 126 -324H358C358 -187 356 -118 350 -72C345 -29 337 -13 299 -13C279 -13 249 -18 206 -26L204 -10C283 9 300 25 306 54C307 61 309 64 312 64C315 64 318 63 322 61C368 40 383 12 390 -53C395 -95 398 -158 398 -309L421 -326C425 -329 427 -331 427 -334C427 -337 424 -340 418 -345L378 -381L355 -346H274V-463H375C384 -463 388 -464 388 -468C388 -471 386 -475 381 -482L342 -532L311 -485H274V-607H373C382 -607 387 -608 387 -612C387 -615 384 -619 378 -626L337 -673L303 -629H274V-746H399C408 -746 413 -748 413 -751C413 -754 410 -759 404 -765L361 -813L324 -768H133ZM233 -485H126V-607H233ZM233 -463V-346H126V-463ZM233 -629H126V-746H233ZM252 -282C278 -231 286 -200 286 -162C286 -136 289 -129 300 -129C313 -129 328 -140 328 -171C328 -215 286 -265 258 -289ZM717 -530H617V-650H717ZM906 -634C936 -652 939 -654 939 -659C939 -662 937 -665 932 -668L875 -711L847 -673H758V-771H933C942 -771 947 -773 947 -777C947 -781 944 -785 939 -790L886 -843L850 -793H485C462 -793 438 -794 413 -797L441 -760C457 -767 486 -771 506 -771H577V-673H483L434 -720C436 -694 437 -662 437 -634V-561C437 -548 434 -491 434 -481C434 -472 436 -468 441 -468C445 -468 451 -470 459 -474C479 -483 479 -486 479 -509H861C861 -493 861 -487 869 -487C873 -487 911 -500 911 -514C911 -516 910 -518 910 -520C908 -535 906 -558 906 -588ZM617 -771H717V-673H617ZM577 -530H479V-650H577ZM861 -650V-530H758V-650ZM517 -216V-297H819V-216ZM472 -462C474 -436 475 -404 475 -376V-269C475 -242 474 -205 472 -181V-172C472 -161 474 -157 480 -157C484 -157 490 -159 497 -162C517 -171 517 -172 517 -194H642V-98H471C448 -98 423 -99 398 -102L426 -65C443 -72 472 -76 493 -76H642C642 -52 640 53 640 75C640 88 642 94 649 94C653 94 659 92 667 88C687 80 693 75 693 62C693 60 692 57 692 54C689 21 688 -23 688 -76H963C972 -76 976 -78 976 -82C976 -85 974 -89 969 -95L920 -151L884 -98H688V-194H819C819 -165 819 -161 826 -161C829 -161 868 -173 868 -190C868 -192 867 -194 867 -196C865 -211 863 -242 863 -270V-380C892 -396 896 -398 896 -403C896 -406 893 -410 888 -414L830 -458L803 -424H522ZM517 -319V-402H819V-319ZM76 -247C76 -176 61 -124 39 -97C26 -81 20 -69 20 -60C20 -47 34 -37 44 -37C53 -37 64 -42 74 -54C87 -69 94 -95 94 -144C94 -172 92 -207 87 -250ZM123 -244C134 -208 138 -181 138 -156C138 -147 133 -110 133 -103C133 -85 141 -79 151 -79C166 -79 179 -101 179 -125C179 -157 165 -196 131 -250ZM186 -263C207 -220 218 -183 218 -146C218 -113 218 -109 236 -109C249 -109 261 -133 257 -158C252 -192 231 -230 194 -270Z"/>
</svg>