<svg xmlns="http://www.w3.org/2000/svg" viewBox="0 -1000 1000 1000">
	<path fill="#000000" d="M370 -148V-26C370 -8 369 1 347 1C331 1 305 -4 262 -12V4C320 20 335 34 341 63C342 69 344 71 347 71C349 71 351 70 354 69C408 39 415 27 415 -33V-380L441 -395C445 -397 448 -400 448 -403C448 -406 447 -408 443 -411L386 -456L359 -419H195L136 -463C137 -430 139 -384 139 -347V-81C139 -42 134 20 134 59C134 66 135 70 140 70C144 70 152 67 164 60C180 51 183 48 183 37V-148ZM183 -397H370V-295H183ZM370 -170H183V-273H370ZM382 -763V-528H303V-638C313 -644 329 -653 329 -655C329 -657 327 -659 322 -662L271 -695L252 -668H179V-763ZM113 -528C113 -542 112 -558 110 -575H96C91 -518 75 -483 40 -454C32 -447 27 -436 27 -427C27 -410 41 -406 49 -406C63 -406 107 -420 112 -506H471L436 -434L448 -426C489 -488 507 -500 536 -503C543 -504 547 -507 547 -511C547 -515 544 -518 539 -522L487 -559L464 -528H426V-746L454 -767C458 -770 460 -773 460 -775C460 -778 458 -780 454 -783L395 -828L373 -785H192L133 -831C134 -807 135 -764 135 -728V-528ZM260 -646V-528H179V-646ZM799 -459C771 -330 747 -281 706 -219C656 -286 630 -346 598 -440L583 -431C612 -319 634 -257 682 -184C611 -86 516 -8 419 42L423 57C545 9 628 -47 708 -148C789 -43 877 11 887 11C890 11 892 9 894 6C905 -12 930 -27 976 -26L975 -39C873 -58 807 -97 735 -184C772 -237 803 -293 831 -375C837 -392 840 -398 853 -401C864 -403 869 -406 869 -410C869 -413 866 -416 861 -419ZM635 -645C610 -581 552 -472 482 -372L492 -361C525 -395 581 -464 654 -568C663 -580 669 -583 687 -587C698 -589 703 -591 703 -594C703 -596 699 -600 693 -604ZM753 -627C836 -557 874 -504 893 -457C905 -428 910 -421 923 -421C936 -421 949 -442 949 -465C949 -472 948 -478 946 -485C933 -520 873 -575 762 -637ZM906 -760L866 -706H553C530 -706 504 -707 480 -710L508 -674C525 -681 554 -685 575 -685H958C966 -685 971 -687 971 -692C971 -695 968 -700 962 -706ZM642 -847C683 -810 700 -778 707 -751C713 -728 719 -714 738 -714C752 -714 763 -732 763 -755C763 -761 762 -769 760 -776C754 -795 721 -823 649 -858Z"/>
</svg>