<svg xmlns="http://www.w3.org/2000/svg" viewBox="0 -1000 1000 1000">
	<path fill="#000000" d="M462 -567L441 -538H405V-758L430 -777C434 -780 436 -782 436 -784C436 -787 434 -789 429 -792L372 -829L347 -792H185L135 -831C137 -805 138 -759 138 -720V-538H107C106 -550 105 -563 103 -577H90C81 -503 70 -483 36 -441C32 -436 30 -429 30 -423C30 -408 42 -400 52 -400C63 -400 76 -408 87 -421C102 -437 109 -469 108 -516H442L404 -446L415 -441C462 -498 486 -511 511 -515C519 -516 523 -518 523 -520C523 -522 520 -525 515 -529ZM299 -538V-650L321 -663C325 -665 326 -667 326 -669C326 -671 325 -673 321 -675L268 -710L246 -677H181V-770H361V-538ZM181 -538V-655H257V-538ZM349 -458L329 -426H188L131 -467C133 -431 136 -382 136 -342V-86C136 -48 135 -1 132 40C132 46 131 51 131 55C131 67 134 72 141 72C145 72 152 70 161 66C178 58 180 53 180 41V-159H345V-35C345 -19 342 -11 317 -11C302 -11 279 -14 245 -20L243 -7C302 11 321 24 326 52C327 59 331 63 336 63C338 63 340 62 342 61C382 41 390 25 390 -36V-396L405 -406C408 -409 410 -411 410 -413C410 -415 408 -417 405 -419ZM180 -306V-404H345V-306ZM180 -181V-284H345V-181ZM968 -298C884 -304 807 -328 720 -387C754 -422 787 -462 821 -510C836 -530 845 -535 864 -541C871 -543 874 -545 874 -549C874 -551 872 -554 868 -557L812 -601L793 -571H630C635 -580 639 -588 643 -596C652 -613 658 -618 680 -626C685 -628 688 -630 688 -633C688 -635 685 -637 681 -639L618 -665C584 -563 545 -467 486 -378L498 -372C529 -408 561 -455 590 -501C615 -457 638 -424 669 -390C602 -325 517 -269 416 -217L422 -205C540 -250 623 -296 695 -363C774 -290 878 -246 884 -246C887 -246 888 -247 889 -249C901 -272 923 -284 968 -286ZM787 -550C762 -499 729 -453 689 -411C660 -437 620 -481 599 -516C605 -528 612 -539 618 -550ZM794 -253L775 -223H571L528 -248C530 -217 530 -170 530 -146V-56C530 -21 529 14 526 58V68C526 79 528 84 534 84C539 84 547 81 558 76C571 71 574 68 574 56V2H793V64C793 70 794 74 799 74C803 74 809 71 820 65C838 55 843 51 843 39C843 36 838 -46 838 -62V-198L854 -209C858 -212 860 -215 860 -217C860 -219 858 -221 854 -223ZM574 -20V-201H793V-20ZM628 -845C665 -808 679 -773 683 -754C687 -734 694 -726 705 -726C722 -726 730 -748 730 -769C730 -774 730 -778 729 -782C727 -797 695 -827 633 -853ZM888 -754L866 -719H534C534 -734 534 -749 532 -766H521C507 -699 494 -670 460 -643C451 -636 445 -627 445 -618C445 -608 455 -597 468 -597C494 -597 524 -626 532 -697H872L840 -616L850 -611C897 -676 923 -692 954 -694C959 -695 960 -696 960 -698C960 -700 959 -702 957 -703Z"/>
</svg>