<svg xmlns="http://www.w3.org/2000/svg" viewBox="0 -1000 1000 1000">
	<path fill="#000000" d="M390 -319C451 -297 492 -265 509 -243C514 -237 518 -233 523 -230H140C117 -230 92 -231 67 -234L95 -198C112 -205 141 -209 162 -209H439C375 -156 223 -61 33 14L38 26C213 -21 429 -134 506 -209H530V3C530 21 529 30 504 30C485 30 453 25 397 15L395 27C465 44 490 59 497 87C498 91 500 93 503 93C505 93 508 92 513 90C567 63 575 48 575 17V-209H846L742 -99L752 -89C884 -185 903 -193 944 -193C951 -193 954 -194 954 -196C954 -198 952 -200 949 -203L882 -267L845 -230H549C555 -234 558 -246 557 -256C631 -296 738 -353 785 -353C802 -353 802 -353 802 -357C802 -359 801 -361 798 -364L734 -418L695 -385H258C235 -385 210 -386 185 -389L213 -353C230 -360 259 -364 280 -364H688L550 -274C534 -296 497 -312 394 -332ZM911 -583C859 -557 742 -509 547 -440L551 -427C646 -449 760 -482 884 -521C898 -526 912 -528 925 -528C932 -528 942 -525 949 -525C952 -525 954 -527 954 -529C954 -530 953 -533 951 -535ZM881 -715C851 -695 786 -660 605 -583L609 -572C667 -586 779 -622 862 -652C878 -658 893 -660 907 -660C910 -660 925 -659 928 -659C931 -659 933 -660 933 -662C933 -664 931 -667 927 -671ZM867 -847C783 -798 670 -743 560 -699L565 -687C656 -713 740 -743 849 -784C867 -791 878 -794 890 -794C893 -794 908 -792 912 -792C915 -792 916 -793 916 -795C916 -797 915 -799 912 -802ZM189 -839C190 -807 191 -769 191 -742V-577H125C103 -577 79 -579 56 -581L82 -546C98 -552 126 -556 146 -556H278C258 -537 219 -505 187 -484C164 -469 138 -461 114 -461L146 -411C148 -408 150 -406 153 -406C156 -406 158 -407 162 -409C181 -419 220 -430 283 -439L447 -463C453 -455 458 -445 465 -433C473 -418 479 -413 488 -413C500 -413 508 -428 508 -445C508 -487 458 -509 385 -534L380 -525C409 -507 425 -494 439 -475L172 -454C226 -484 273 -511 350 -556H596C604 -556 609 -558 609 -562C609 -564 606 -569 600 -574L557 -613L525 -577H236V-628H529C535 -628 538 -629 538 -631C538 -633 536 -637 532 -641L490 -689L455 -648H236V-703H527C533 -703 535 -704 535 -707C535 -709 534 -711 530 -715L484 -758L456 -723H236V-777H567C573 -777 575 -778 575 -781C575 -783 574 -785 570 -789L518 -838L489 -797H245Z"/>
</svg>