<svg xmlns="http://www.w3.org/2000/svg" viewBox="0 -1000 1000 1000">
	<path fill="#000000" d="M736 -275H280V-331H736ZM280 -411H736V-355H280ZM179 -835C181 -804 182 -777 182 -750V-595H123C103 -595 81 -597 60 -598L84 -567C98 -573 124 -576 143 -576H251C212 -525 170 -501 144 -503L174 -462C176 -459 179 -457 182 -457C184 -457 187 -458 190 -460C201 -467 211 -471 231 -475C232 -448 233 -410 233 -374V-301C233 -290 229 -239 229 -229C229 -222 231 -218 236 -218C240 -218 245 -220 253 -223C275 -232 279 -236 280 -251H736C736 -217 736 -214 741 -214C744 -214 747 -215 752 -217C781 -229 785 -233 785 -242C785 -251 781 -293 781 -301V-392L815 -416C819 -419 821 -422 821 -424C821 -427 819 -430 814 -433L750 -473L722 -436H294L242 -477C253 -479 267 -481 284 -484L452 -509C461 -498 467 -486 470 -474C474 -456 485 -448 495 -448C501 -448 518 -455 518 -475C518 -519 465 -549 399 -567L393 -557C406 -551 421 -541 435 -529L216 -507C255 -534 283 -554 311 -576H576C581 -576 584 -578 584 -581C584 -584 582 -587 579 -590L538 -630L508 -595H221V-642H504C509 -642 511 -644 511 -647C511 -649 510 -651 507 -654L472 -690L442 -661H221V-714H508C511 -714 512 -716 512 -719C512 -721 512 -723 510 -725L473 -763L446 -732H221V-778H540C545 -778 547 -781 547 -784C547 -786 546 -789 543 -792L503 -833L475 -797H223ZM244 95C461 40 611 -48 693 -167H830C823 -105 809 -62 795 -32C780 -1 764 14 729 14C701 14 663 5 607 -13L606 2C678 26 709 44 718 75C720 80 723 83 727 83C729 83 730 82 731 82C781 65 815 42 832 1C858 -62 870 -102 876 -139L918 -161C921 -162 922 -165 922 -167C922 -170 921 -172 917 -175L854 -227L821 -189H317C335 -206 347 -213 358 -214C365 -215 369 -217 369 -220C369 -222 366 -225 361 -227L306 -248C244 -169 179 -118 41 -33L49 -21C131 -57 254 -131 294 -167H432C344 -77 257 -28 126 27L129 38C267 -3 404 -70 488 -167H634C557 -61 435 11 237 82ZM907 -627C846 -589 733 -543 574 -501L579 -488C660 -498 736 -515 869 -560C893 -568 911 -571 926 -571C928 -571 938 -570 940 -570C944 -570 946 -572 946 -576C946 -578 945 -581 943 -584ZM865 -728C813 -696 743 -666 606 -617L610 -605C679 -619 714 -628 837 -667C856 -673 871 -676 883 -676C885 -676 895 -675 897 -675C900 -675 902 -676 902 -679C902 -681 900 -684 898 -687ZM848 -840C792 -803 690 -758 554 -712L557 -697C626 -709 678 -723 837 -779C845 -782 855 -784 866 -784C870 -784 888 -780 892 -780C894 -780 896 -782 896 -785C896 -787 894 -791 891 -794Z"/>
</svg>