<svg xmlns="http://www.w3.org/2000/svg" viewBox="0 -1000 1000 1000">
	<path fill="#000000" d="M930 -134C921 10 914 18 858 25C843 27 766 28 680 28C586 28 479 27 428 23C359 18 345 11 345 -12V-280C364 -293 367 -294 367 -297C367 -299 364 -301 358 -304L308 -324C311 -341 314 -358 316 -376H444C444 -356 444 -353 451 -353C455 -353 461 -355 470 -358C489 -365 492 -369 492 -382V-389C489 -431 488 -463 488 -499V-670C511 -689 513 -691 513 -694C513 -697 510 -699 505 -703L458 -737L428 -701H270C319 -777 338 -796 349 -798C353 -799 355 -801 355 -803C355 -805 353 -808 348 -810L289 -833C280 -784 269 -748 252 -701H192L131 -746C133 -717 134 -671 134 -648V-450C134 -403 134 -380 131 -343C130 -336 130 -330 130 -326C130 -317 132 -313 137 -313C141 -313 147 -315 157 -320C175 -329 177 -332 177 -344V-376H277C257 -196 145 -20 35 78L43 88C156 7 261 -126 302 -295V-14C302 40 327 57 406 60C500 64 671 67 778 67C880 67 938 67 968 19C971 15 972 12 972 10C972 7 970 5 965 3C951 -4 940 -30 940 -82C940 -97 941 -115 943 -134ZM328 -541C329 -579 330 -621 331 -680H444V-541ZM177 -397V-520H286C284 -472 282 -435 279 -397ZM177 -541V-680H289C289 -623 288 -578 287 -541ZM318 -397C322 -446 325 -482 327 -520H444V-397ZM910 -678L873 -632H701C706 -680 710 -724 712 -756C713 -776 716 -780 733 -790C740 -794 744 -797 744 -800C744 -803 739 -805 730 -808L666 -831C666 -755 663 -683 659 -632H586C563 -632 538 -634 513 -636L541 -600C558 -607 578 -611 621 -611H657C630 -345 599 -205 492 -50L503 -43C587 -137 635 -220 668 -395C700 -358 731 -312 755 -268C714 -186 655 -119 576 -50L582 -40C657 -86 723 -146 775 -233C798 -187 815 -144 820 -116C826 -84 834 -77 842 -77C857 -77 870 -100 870 -124C870 -130 869 -137 867 -143C859 -164 832 -215 794 -269C820 -322 842 -384 858 -457C860 -465 870 -475 881 -479C890 -482 895 -484 895 -487C895 -490 890 -494 882 -499L831 -532L806 -495H684C689 -532 694 -572 699 -611H948C958 -611 963 -612 963 -615C963 -619 959 -624 952 -632ZM815 -472C806 -407 791 -351 770 -301C740 -343 705 -384 671 -413C675 -432 678 -451 681 -472ZM770 -785C816 -744 829 -721 836 -694C840 -676 845 -671 858 -671C871 -671 881 -689 881 -707C881 -748 831 -771 774 -792ZM487 -253C500 -234 511 -203 513 -182L405 -170C423 -202 447 -245 466 -278C472 -288 477 -293 488 -299C494 -302 497 -304 497 -306C497 -309 493 -311 486 -315L450 -333C439 -279 393 -171 360 -165L384 -139C387 -135 390 -133 392 -133C395 -133 397 -135 399 -137C404 -142 415 -149 431 -152L513 -170C514 -154 520 -144 528 -144C540 -144 550 -163 550 -182C550 -209 523 -238 493 -260Z"/>
</svg>