<svg xmlns="http://www.w3.org/2000/svg" viewBox="0 -1000 1000 1000">
	<path fill="#000000" d="M106 -747C108 -713 109 -684 109 -649V-454C109 -434 107 -347 107 -329C107 -316 109 -310 115 -310C120 -310 126 -312 134 -317C154 -328 154 -331 154 -360H225C204 -200 155 -86 34 75L42 86C156 -16 242 -189 265 -360H367C367 -327 367 -323 375 -323C379 -323 384 -325 393 -328C408 -333 413 -338 413 -351C413 -370 411 -452 411 -469V-676L431 -694C434 -697 436 -699 436 -702C436 -704 434 -706 430 -709L375 -740L355 -706H228C264 -765 284 -787 303 -797C306 -799 308 -802 308 -805C308 -807 306 -810 303 -811L244 -839C236 -795 227 -759 210 -706H158ZM277 -540C280 -584 281 -633 282 -685H367V-540ZM154 -381V-519H237C235 -462 232 -420 228 -381ZM154 -540V-685H239C239 -627 238 -581 237 -540ZM267 -381C271 -417 274 -464 277 -519H367V-381ZM588 -817C564 -719 504 -572 433 -448L448 -440C477 -482 503 -522 526 -560V-196C526 -147 525 -102 523 -52V-43C523 -29 524 -24 529 -24C532 -24 537 -26 543 -30C568 -44 573 -47 573 -57C573 -74 571 -101 571 -118H912C920 -118 924 -119 924 -122C924 -124 921 -127 916 -133L855 -200L814 -140H743V-297H893C902 -297 907 -298 907 -301C907 -303 904 -307 898 -312L834 -372L795 -319H743V-456H888C896 -456 900 -457 900 -459C900 -461 897 -464 893 -468L831 -529L792 -478H743V-616H903C915 -616 920 -617 920 -620C920 -623 918 -626 913 -631L857 -694L815 -638H569C580 -657 589 -676 597 -695C619 -746 629 -764 640 -767C647 -769 651 -773 651 -777C651 -782 646 -787 635 -793ZM699 -319H570V-456H699ZM699 -478H570V-616H699ZM570 -140V-297H699V-140ZM429 -194C441 -174 450 -156 455 -141L347 -122C369 -155 389 -188 408 -227C415 -241 424 -250 436 -258C440 -261 442 -263 442 -264C442 -266 440 -268 437 -269L388 -287C388 -285 360 -152 321 -117V-284C343 -298 346 -299 346 -302C346 -305 344 -307 339 -309L275 -336C276 -313 278 -265 278 -225V-6C278 36 316 56 382 60C427 63 591 64 714 64C775 64 825 64 845 63C917 61 951 39 972 -4C974 -7 975 -10 975 -12C975 -15 973 -18 968 -21C951 -32 943 -49 943 -97C943 -113 944 -132 946 -155L932 -156C922 0 907 11 842 22C821 26 737 27 647 27C542 27 428 25 399 23C342 19 321 11 321 -14V-102C342 -87 344 -85 348 -85C350 -85 352 -86 353 -88C360 -99 370 -108 389 -112L458 -127C459 -121 459 -115 459 -109C459 -93 461 -78 475 -78C489 -78 502 -93 502 -118C502 -137 488 -165 441 -202ZM659 -806C697 -764 716 -731 722 -698C726 -677 729 -674 740 -674C756 -674 773 -697 773 -719C773 -725 771 -731 768 -737C756 -759 722 -787 666 -813Z"/>
</svg>