<svg xmlns="http://www.w3.org/2000/svg" viewBox="0 -1000 1000 1000">
	<path fill="#000000" d="M227 -850C186 -736 107 -585 18 -439L29 -430C56 -461 81 -493 107 -530V-295C107 -246 106 -198 105 -183C105 -180 104 -177 104 -174C104 -166 106 -162 113 -162C117 -162 123 -164 132 -167C150 -173 152 -177 152 -200H398C398 -185 400 -179 409 -179C413 -179 418 -180 425 -182C443 -187 447 -192 447 -208V-216C445 -258 444 -293 444 -328V-381L468 -361C484 -371 511 -377 531 -379L631 -394V-70C631 31 639 42 720 47C762 50 788 51 814 51C890 51 939 50 965 -13C966 -15 966 -18 966 -20C966 -25 964 -30 958 -34C943 -45 935 -71 935 -173H921C904 -3 899 2 846 6C829 7 813 8 796 8C771 8 745 6 711 4C682 2 678 -3 678 -73V-401L940 -439C949 -440 953 -443 953 -446C953 -450 949 -454 939 -461L873 -506L836 -447L678 -424V-718C714 -727 752 -737 794 -750C813 -756 827 -758 840 -758C845 -758 866 -755 871 -755C874 -755 876 -756 876 -758C876 -760 873 -764 868 -769L823 -818C696 -760 611 -728 458 -687L463 -672C529 -684 581 -695 631 -706V-417L505 -398C486 -396 464 -393 444 -392V-517L472 -535C477 -539 480 -541 480 -544C480 -547 477 -550 472 -554L419 -595L390 -554H295C359 -657 375 -670 405 -680C416 -684 421 -686 421 -690C421 -692 419 -694 415 -698L361 -750L332 -713H218C229 -732 240 -752 251 -773C257 -785 272 -797 286 -802C291 -804 294 -805 294 -808C294 -810 292 -812 288 -814ZM256 -396H152V-533H256ZM256 -221H152V-375H256ZM300 -396V-533H398V-396ZM300 -221V-375H398V-221ZM158 -554L133 -569C152 -598 166 -622 207 -692H337L274 -554ZM124 -147C116 -66 96 -30 46 11C38 18 34 27 34 35C34 57 58 61 66 61C100 61 142 16 142 -96C142 -112 141 -129 139 -147ZM191 -137C204 -100 208 -78 208 -52C208 -44 206 -10 206 -3C206 16 212 21 226 21C242 21 260 -3 260 -27C260 -62 230 -107 204 -144ZM285 -146C314 -106 318 -89 318 -50C318 -2 318 3 338 3C356 3 370 -8 370 -33C370 -82 332 -119 295 -153ZM391 -164C422 -125 430 -85 430 -50C430 -21 440 -15 453 -15C468 -15 484 -33 484 -59C484 -68 482 -77 478 -87C469 -109 455 -123 401 -172Z"/>
</svg>