<svg xmlns="http://www.w3.org/2000/svg" viewBox="0 -1000 1000 1000">
	<path fill="#000000" d="M118 -311C118 -262 117 -214 116 -199V-191C116 -181 118 -177 123 -177C133 -177 160 -190 160 -205V-209H391C391 -189 391 -183 398 -183C402 -183 409 -186 419 -191C434 -199 437 -203 437 -218C437 -236 432 -320 432 -337V-534C465 -548 466 -549 466 -553C466 -555 464 -558 459 -562L410 -608L382 -572H295C378 -672 403 -689 433 -694C441 -695 445 -696 445 -699C445 -702 442 -706 435 -712L383 -758L353 -724H219C247 -768 254 -779 279 -784C287 -786 291 -787 291 -790C291 -792 287 -796 280 -801L226 -841C184 -737 103 -601 26 -491L38 -482C68 -516 97 -551 118 -578ZM255 -403H160V-552H255ZM255 -383V-229H160V-383ZM294 -403V-552H391V-403ZM294 -229V-383H391V-229ZM357 -704L273 -572H172L135 -601C156 -629 176 -657 206 -704ZM258 -163C295 -114 307 -78 307 -37C307 -16 315 -9 329 -9C346 -9 358 -27 358 -49C358 -92 308 -137 269 -170ZM347 -169C386 -126 402 -95 410 -61C415 -37 420 -33 429 -33C447 -33 462 -52 462 -73C462 -78 461 -83 459 -88C451 -109 416 -143 355 -177ZM794 -809C798 -811 800 -813 800 -815C800 -817 798 -819 794 -821L731 -850C745 -670 785 -552 892 -426C895 -423 897 -422 898 -422C900 -422 901 -423 903 -425C915 -440 950 -452 988 -448L989 -459C861 -508 788 -629 764 -796ZM598 -778C557 -609 500 -484 447 -381L457 -373C519 -463 579 -559 634 -705C640 -722 646 -726 666 -735C674 -739 678 -741 678 -743C678 -746 674 -748 668 -750ZM797 -381C798 -288 793 -192 788 -114C784 -50 776 -24 733 -24C710 -24 677 -31 630 -44L627 -30C706 -6 725 15 729 45C730 49 731 50 734 50C736 50 739 50 742 48C822 13 832 -3 836 -93C839 -154 844 -284 843 -363L874 -380C879 -383 882 -385 882 -387C882 -389 879 -392 875 -395L812 -443L785 -403H570C547 -403 522 -405 497 -407L525 -370C541 -376 557 -380 600 -381C592 -165 550 -58 372 68L381 80C589 -46 630 -135 650 -381ZM121 -151C117 -82 96 -36 65 -5C52 8 47 16 47 23C47 32 60 49 81 49C114 49 138 0 138 -80C138 -101 137 -125 133 -150ZM178 -147C194 -112 200 -81 200 -47C200 -41 199 -15 199 -9C199 11 205 18 216 18C240 18 253 -4 250 -39C248 -61 229 -101 188 -154Z"/>
</svg>