<svg xmlns="http://www.w3.org/2000/svg" viewBox="0 -1000 1000 1000">
	<path fill="#000000" d="M103 -301C103 -282 101 -199 101 -182C101 -173 103 -170 109 -170C112 -170 117 -171 123 -173C140 -179 143 -183 143 -195V-222H374C374 -195 374 -192 381 -192C385 -192 390 -194 397 -197C414 -205 419 -209 419 -221C419 -224 418 -227 418 -231C414 -276 413 -308 413 -343V-521C439 -536 442 -538 442 -542C442 -545 440 -548 436 -551L392 -588L358 -557H287C344 -658 363 -677 393 -683C403 -685 407 -687 407 -690C407 -693 404 -696 399 -701L344 -748L316 -712H208C223 -745 240 -781 260 -785C269 -787 273 -788 273 -791C273 -793 270 -796 264 -800L206 -837C174 -732 112 -590 22 -446L29 -436C55 -464 83 -499 103 -530ZM238 -403H143V-537H238ZM143 -242V-383H238V-242ZM277 -242V-383H374V-242ZM277 -403V-537H374V-403ZM319 -692L265 -557H146L128 -569C150 -605 175 -649 197 -692ZM501 -466C493 -348 476 -302 447 -265C433 -247 428 -239 428 -233C428 -218 445 -213 456 -213C508 -213 516 -303 516 -396C516 -417 516 -440 515 -466ZM245 -169C281 -118 294 -78 294 -33C294 -8 303 -1 314 -1C332 -1 346 -22 346 -43C346 -53 342 -98 255 -177ZM330 -184C373 -127 388 -79 389 -53C390 -36 396 -24 408 -24C427 -24 439 -42 439 -65C439 -99 411 -133 339 -194ZM112 -155C112 -77 79 -19 39 10C28 18 24 28 24 36C24 49 36 62 53 62C77 62 129 34 129 -105C129 -121 128 -138 127 -156ZM168 -160C186 -119 192 -82 192 -52C192 -44 187 -8 187 -1C187 16 193 23 204 23C224 23 243 3 243 -25C243 -52 222 -108 178 -168ZM828 -462C870 -392 894 -340 902 -272C906 -237 910 -233 920 -233C938 -233 957 -260 957 -294C957 -297 957 -301 956 -305C952 -337 906 -402 838 -469ZM588 -831C645 -760 662 -727 670 -653C672 -638 683 -628 693 -628C708 -628 724 -652 724 -686C724 -731 646 -806 595 -840ZM621 -574C652 -591 652 -592 652 -595C652 -598 649 -602 642 -606L574 -653C576 -630 577 -590 577 -552V-155C476 -47 412 7 333 57L338 69C426 27 510 -35 577 -103V-47C577 19 588 27 715 27C832 27 855 18 882 -35C884 -38 885 -41 885 -44C885 -48 882 -52 874 -58C857 -71 852 -101 852 -215H837C828 -34 811 -21 766 -16C749 -14 725 -12 701 -12C626 -12 621 -20 621 -50V-151C745 -291 794 -415 855 -693C857 -703 863 -711 885 -715C889 -716 891 -718 891 -720C891 -723 889 -726 885 -728L813 -774C794 -540 726 -345 621 -208Z"/>
</svg>