<svg xmlns="http://www.w3.org/2000/svg" viewBox="0 -1000 1000 1000">
	<path fill="#000000" d="M427 -593L400 -558H290C359 -647 395 -676 430 -685C440 -688 445 -690 445 -693C445 -696 442 -700 436 -705L385 -753L351 -715H222C235 -737 249 -760 263 -784C270 -796 274 -799 297 -808C305 -811 308 -814 308 -816C308 -818 306 -821 300 -824L239 -860C205 -759 93 -561 25 -465L36 -455C60 -482 86 -512 114 -550V-311C114 -292 112 -208 112 -191C112 -182 114 -178 120 -178C124 -178 130 -180 138 -183C159 -191 159 -192 159 -213H406C406 -180 406 -177 413 -177C417 -177 423 -179 433 -183C450 -190 454 -193 454 -209V-217C451 -262 451 -294 451 -329V-516L483 -533C489 -536 492 -538 492 -541C492 -544 489 -547 483 -552ZM159 -404V-538H258V-404ZM303 -404V-538H406V-404ZM303 -233V-384H406V-233ZM159 -233V-384H258V-233ZM267 -558H178L138 -584C160 -616 184 -653 210 -695H352ZM121 -163C106 -89 91 -56 51 -14C39 -1 35 7 35 18C35 33 43 43 61 43C88 43 135 17 135 -139V-164ZM888 -493L848 -441H725V-631H931C939 -631 943 -632 943 -635C943 -637 940 -641 934 -646L870 -701L833 -651H725V-774L753 -790C762 -795 766 -798 766 -801C766 -804 761 -807 752 -812L677 -850C680 -818 680 -791 680 -752V-651H573C551 -651 526 -652 503 -655L530 -621C545 -627 574 -631 594 -631H680V-441H541C519 -441 494 -442 471 -445L498 -411C513 -417 542 -421 562 -421H942C950 -421 953 -422 953 -425C953 -427 951 -430 945 -436ZM892 -45L849 11H717V-214H908C915 -214 919 -215 919 -218C919 -220 916 -224 911 -229L858 -288L815 -234H717V-345L745 -361C750 -364 753 -367 753 -369C753 -371 750 -373 745 -376L669 -413C671 -378 672 -354 672 -315V-234H564C542 -234 517 -235 494 -238L521 -204C536 -210 565 -214 585 -214H672V11H478C456 11 431 10 408 7L435 41C450 35 479 31 499 31H949C957 31 960 30 960 27C960 25 958 22 952 16ZM363 -172C408 -128 423 -93 431 -54C436 -30 443 -25 453 -25C471 -25 482 -44 482 -65C482 -71 481 -78 479 -84C469 -110 437 -140 371 -182ZM269 -170C299 -121 320 -69 320 -42C320 -17 325 -10 340 -10C364 -10 372 -31 372 -50C372 -84 342 -121 279 -178ZM176 -160C194 -127 205 -83 205 -51C205 -46 201 -22 201 -17C201 1 211 9 221 9C238 9 259 -9 259 -35C259 -60 233 -112 189 -166Z"/>
</svg>