<svg xmlns="http://www.w3.org/2000/svg" viewBox="0 -1000 1000 1000">
	<path fill="#000000" d="M118 -292C118 -274 115 -194 115 -178C115 -170 117 -167 123 -167C127 -167 135 -170 147 -174C159 -179 162 -183 162 -210H377C377 -185 377 -182 384 -182C388 -182 394 -185 404 -189C423 -198 427 -203 427 -217V-223C424 -268 422 -303 422 -345V-509L449 -528C452 -530 453 -532 453 -535C453 -538 451 -541 447 -544L389 -586L360 -547H285C366 -652 396 -676 420 -677C428 -678 432 -680 432 -684C432 -687 429 -690 423 -695L362 -744L332 -708H227C242 -731 256 -753 269 -776C283 -799 296 -810 311 -811C318 -812 321 -813 321 -816C321 -818 319 -821 313 -823L246 -853C203 -743 125 -607 31 -456L43 -449C69 -483 90 -510 118 -548ZM162 -388V-526H248V-388ZM162 -231V-367H248V-231ZM377 -367V-231H292V-367ZM377 -526V-388H292V-526ZM338 -687L263 -547H166L133 -569C162 -609 198 -662 214 -687ZM609 -634V-130C609 -98 606 41 606 70C606 81 608 86 615 86C619 86 626 84 635 80C656 71 660 67 660 53V46C657 1 656 -56 656 -148V-187H933C941 -187 944 -188 944 -191C944 -194 942 -198 936 -204L878 -266L835 -209H656V-409H898C908 -409 913 -410 913 -415C913 -418 909 -423 902 -431L853 -484L806 -432H656V-634H946C955 -634 960 -637 960 -641C960 -645 957 -650 951 -656L897 -710L856 -656H585C604 -689 619 -717 638 -754C648 -773 666 -793 677 -796C684 -798 688 -801 688 -804C688 -806 685 -810 678 -813L611 -846C584 -744 525 -606 430 -439L441 -431C485 -489 526 -549 573 -634ZM126 -153C118 -72 98 -36 48 5C40 12 36 21 36 29C36 51 60 55 68 55C102 55 144 10 144 -102C144 -118 143 -135 141 -153ZM177 -161C197 -124 205 -87 205 -45C205 -39 204 -14 204 -9C204 10 210 15 224 15C240 15 258 -9 258 -33C258 -59 233 -109 188 -168ZM268 -168C297 -126 307 -95 307 -46C307 -12 307 -3 327 -3C344 -3 361 -20 361 -45C361 -61 352 -107 278 -175ZM370 -171C398 -136 413 -87 413 -47C413 -21 420 -12 436 -12C451 -12 467 -30 467 -56C467 -65 465 -74 461 -84C452 -106 434 -130 380 -179Z"/>
</svg>