<svg xmlns="http://www.w3.org/2000/svg" viewBox="0 -1000 1000 1000">
	<path fill="#000000" d="M103 -307C103 -288 100 -202 100 -185C100 -177 102 -173 107 -173C116 -173 143 -186 143 -201V-205H383C382 -187 384 -179 391 -179C395 -179 402 -182 411 -187C426 -195 429 -200 429 -214C429 -233 424 -316 424 -333V-530C457 -544 458 -545 458 -549C458 -551 456 -554 451 -558L402 -604L374 -568H274C357 -672 376 -685 406 -690C414 -691 418 -692 418 -695C418 -698 415 -702 408 -708L356 -754L326 -720H217C253 -776 258 -783 282 -788C290 -790 294 -791 294 -794C294 -796 290 -800 283 -805L227 -845C185 -741 110 -605 29 -495L41 -486C62 -507 84 -532 103 -556ZM244 -400H143V-548H244ZM244 -380V-225H143V-380ZM284 -400V-548H383V-400ZM284 -225V-380H383V-225ZM330 -700L254 -568H149L124 -584C140 -605 173 -652 204 -700ZM647 -373H497C475 -373 449 -375 426 -377L453 -341C469 -347 498 -351 518 -351H649C628 -279 593 -205 543 -124C488 -35 475 -26 450 -24L480 31C484 37 487 40 491 40C494 40 497 38 500 36C513 26 545 18 584 12L848 -14C850 -7 851 -1 852 5C856 46 868 53 878 53C897 53 912 28 912 0C912 -6 911 -12 910 -18C900 -62 851 -125 754 -211L744 -201C789 -146 825 -81 843 -31L510 -25C581 -121 621 -177 676 -267C687 -285 701 -301 715 -304C724 -306 728 -308 728 -312C728 -314 725 -317 721 -320L669 -351H949C959 -351 965 -353 965 -357C965 -360 961 -365 954 -372L900 -428L861 -373H691V-593H892C902 -593 907 -595 907 -600C907 -604 903 -609 897 -615L845 -667L807 -615H691V-769L718 -787C723 -791 726 -793 726 -795C726 -798 723 -800 718 -802L644 -842C646 -807 647 -783 647 -744V-615H535C513 -615 488 -617 464 -619L491 -583C507 -589 536 -593 556 -593H647ZM344 -164C382 -122 399 -91 407 -56C412 -32 417 -28 426 -28C444 -28 459 -47 459 -68C459 -73 458 -78 456 -83C448 -104 413 -138 352 -172ZM111 -146C107 -76 86 -31 55 0C42 13 37 24 37 31C37 42 49 57 67 57C98 57 129 9 129 -78C129 -99 127 -122 123 -145ZM162 -150C179 -114 186 -79 186 -41C186 -35 185 -10 185 -4C185 16 191 23 202 23C224 23 240 4 240 -26V-34C238 -59 215 -104 172 -157ZM241 -162C280 -109 294 -70 294 -32C294 -11 302 -4 316 -4C333 -4 347 -23 347 -45C347 -48 347 -52 346 -56C338 -88 310 -120 252 -169Z"/>
</svg>