<svg xmlns="http://www.w3.org/2000/svg" viewBox="0 -1000 1000 1000">
	<path fill="#000000" d="M106 -205C106 -195 108 -191 113 -191C118 -191 150 -202 148 -223H376C375 -205 376 -197 383 -197C388 -197 394 -200 404 -205C419 -213 422 -218 422 -232V-239C419 -284 418 -318 418 -351V-548C450 -562 452 -563 452 -566C452 -569 449 -572 444 -576L395 -622L367 -586H274C357 -690 375 -703 406 -708C414 -709 418 -710 418 -713C418 -716 415 -720 408 -726L356 -772L326 -738H216C244 -782 251 -793 276 -798C284 -800 288 -801 288 -804C288 -806 284 -810 277 -815L221 -855C179 -751 108 -619 31 -509L43 -500C65 -522 86 -546 108 -577V-325C108 -276 107 -228 106 -213ZM244 -418H148V-566H244ZM284 -418V-566H376V-418ZM244 -398V-243H148V-398ZM284 -243V-398H376V-243ZM254 -586H156L127 -604C155 -643 167 -661 203 -718H330ZM429 -193C510 -283 583 -391 647 -514V-203C647 -185 645 -108 645 -92C645 -77 647 -71 654 -71C658 -71 664 -73 672 -77C693 -87 694 -90 694 -107C694 -129 693 -173 693 -207V-498C718 -514 720 -516 720 -521C720 -525 717 -527 710 -530L663 -546C690 -602 715 -660 738 -720H933C944 -720 949 -721 949 -725C949 -728 945 -733 938 -740L880 -795L839 -741H517C498 -741 479 -742 458 -744L482 -711C496 -716 517 -720 534 -720H682C613 -518 548 -391 418 -204ZM716 -472C793 -404 850 -331 873 -284C890 -249 893 -246 901 -246C916 -246 926 -271 926 -293C926 -352 865 -397 723 -482ZM342 -194C386 -142 397 -121 405 -86C411 -62 415 -58 424 -58C442 -58 457 -77 457 -98C457 -103 456 -108 454 -113C446 -134 411 -168 350 -202ZM238 -190C281 -130 291 -96 291 -60C291 -41 297 -32 313 -32C330 -32 344 -51 344 -73C344 -113 293 -160 249 -197ZM157 -178C174 -136 182 -104 182 -70C182 -64 179 -36 179 -31C179 -12 187 -5 197 -5C219 -5 235 -24 235 -54C235 -93 192 -154 167 -185ZM107 -174C103 -105 82 -59 51 -28C38 -15 33 -4 33 3C33 14 45 29 63 29C96 29 125 -26 125 -106C125 -127 123 -149 119 -173ZM871 -9H451C432 -9 414 -10 395 -11L419 22C432 16 451 12 468 12H966C974 12 978 10 978 6C978 3 975 -2 970 -7L914 -64Z"/>
</svg>