<svg xmlns="http://www.w3.org/2000/svg" viewBox="0 -1000 1000 1000">
	<path fill="#000000" d="M452 -170C452 -151 449 -120 449 -101C449 -97 451 -95 456 -95C462 -95 492 -101 492 -110V-113H838C838 -97 842 -90 851 -90C868 -90 883 -99 883 -116V-121C879 -151 878 -167 878 -185V-283C909 -298 910 -298 910 -302C910 -306 906 -309 897 -314L848 -342L828 -316H675C745 -369 756 -371 776 -373C788 -374 794 -379 794 -384C794 -388 791 -392 786 -396L734 -436L704 -403H583C606 -422 615 -427 621 -428C640 -431 648 -435 648 -439C648 -442 645 -445 641 -448L595 -483C503 -383 447 -332 369 -279L375 -267C398 -279 426 -295 452 -311ZM645 -222H492V-297H645ZM645 -205V-131H492V-205ZM685 -222V-297H838V-222ZM685 -131V-205H838V-131ZM708 -383L652 -316H489L471 -323C510 -349 536 -367 557 -383ZM447 -73C424 -22 401 -3 357 15C347 19 342 27 342 36C342 48 351 62 373 62C409 62 456 22 467 -73ZM798 -709C760 -662 723 -626 661 -583C613 -617 571 -659 533 -709ZM827 -768L793 -732H541C554 -750 560 -759 571 -775C590 -802 595 -807 604 -810C612 -813 616 -816 616 -820C616 -823 612 -827 604 -831L547 -857C513 -762 471 -678 367 -554L377 -545C446 -607 467 -630 519 -701C551 -647 588 -601 631 -563C557 -515 463 -471 346 -431L352 -416C491 -458 595 -500 662 -538C756 -468 863 -440 869 -440C874 -440 877 -442 879 -447C886 -461 908 -469 962 -472L963 -485C854 -493 767 -519 697 -560C743 -590 783 -624 815 -660C831 -678 852 -694 879 -697C885 -698 888 -699 888 -703C888 -706 885 -710 879 -715ZM821 -66C862 -34 887 9 895 34C901 52 916 59 924 59C939 59 951 43 951 25C951 -14 895 -50 833 -79ZM701 -63C729 -29 743 4 745 22C747 38 761 44 773 44C785 44 794 32 794 14C794 -11 785 -27 710 -73ZM552 -73C570 -47 575 -20 575 1V16C575 35 586 45 601 45C615 45 626 30 626 -1C626 -41 575 -71 562 -79ZM294 -684C296 -651 297 -617 297 -554V-298C297 -247 295 -199 294 -146C294 -133 296 -127 303 -127C307 -127 313 -129 322 -133C341 -141 345 -144 345 -158V-163C342 -204 341 -238 341 -307V-619L363 -634C368 -638 371 -641 371 -643C371 -647 367 -650 360 -653ZM164 -105C164 -53 163 4 161 63V68C161 80 164 85 171 85C176 85 183 83 193 79C208 73 212 66 212 51V45C209 0 208 -51 208 -113V-543C228 -562 231 -564 231 -568C231 -571 228 -574 222 -577L195 -591C219 -642 243 -699 269 -766C275 -780 285 -791 299 -797C307 -801 311 -803 311 -806C311 -809 307 -813 299 -817L234 -850C210 -717 122 -498 7 -305L17 -296C77 -375 120 -445 164 -527Z"/>
</svg>