<svg xmlns="http://www.w3.org/2000/svg" viewBox="0 -1000 1000 1000">
	<path fill="#000000" d="M404 -613L376 -574H274C340 -660 366 -677 397 -684C404 -686 407 -687 407 -690C407 -692 405 -695 400 -700L349 -752L320 -716H203C215 -737 227 -759 240 -784C245 -793 261 -807 275 -810C281 -812 284 -813 284 -815C284 -817 282 -820 277 -823L216 -862C177 -748 118 -622 34 -481L44 -471C70 -499 94 -532 125 -581V-323C125 -303 122 -217 122 -199C122 -190 124 -186 129 -186C132 -186 137 -188 145 -192C166 -203 168 -206 168 -217V-233H388C388 -192 388 -191 395 -191C399 -191 405 -193 415 -198C432 -207 436 -211 436 -225C436 -244 431 -327 431 -344V-538L458 -554C463 -557 465 -559 465 -562C465 -565 462 -568 456 -573ZM168 -418V-554H252V-418ZM295 -418V-554H388V-418ZM295 -253V-398H388V-253ZM168 -253V-398H252V-253ZM255 -574H180L141 -608C156 -634 173 -663 192 -697H322ZM837 -413L809 -374H591L530 -416C532 -388 533 -364 533 -307V-71C533 -18 532 45 529 72V75C529 79 530 82 534 82C538 82 547 79 561 72C575 66 577 63 577 53V-125H824V-20C824 0 820 12 784 12C763 12 731 8 684 -1L681 16C769 38 782 53 789 88C790 93 792 96 796 96C798 96 800 95 804 93C859 68 868 51 868 -6V-337L898 -353C903 -356 906 -358 906 -361C906 -364 903 -367 897 -371ZM577 -262V-354H824V-262ZM577 -145V-242H824V-145ZM916 -526L876 -478H720V-575H916C926 -575 930 -576 930 -578C930 -581 927 -584 920 -590L857 -645L817 -595H720V-692H949C959 -692 963 -693 963 -695C963 -698 960 -701 953 -707L891 -760L851 -712H720V-791L750 -809C757 -813 760 -816 760 -819C760 -821 757 -824 750 -827L674 -863C676 -835 677 -811 677 -752V-712H527C506 -712 481 -713 455 -716L483 -681C500 -688 529 -692 550 -692H677V-595H555C534 -595 509 -596 483 -599L511 -564C528 -571 557 -575 578 -575H677V-478H519C498 -478 473 -479 447 -482L475 -447C492 -454 521 -458 542 -458H975C983 -458 987 -459 987 -461C987 -464 984 -467 977 -473ZM349 -183C392 -132 406 -96 410 -57C410 -33 417 -27 429 -27C448 -27 461 -49 461 -71C461 -76 461 -81 459 -86C451 -113 418 -149 357 -192ZM255 -178C285 -127 294 -85 295 -43C296 -16 302 -12 313 -12C340 -12 350 -35 350 -55C350 -94 293 -157 266 -184ZM158 -167C171 -132 179 -95 179 -64C179 -51 177 -38 174 -28C173 -23 172 -19 172 -15C172 2 184 8 195 8C213 8 230 -13 230 -41C230 -58 220 -106 167 -174ZM113 -158C104 -89 86 -59 43 -13C32 -2 27 6 27 14C27 22 37 43 54 43C64 43 76 36 92 21C119 -5 131 -73 127 -157Z"/>
</svg>