<svg xmlns="http://www.w3.org/2000/svg" viewBox="0 -1000 1000 1000">
	<path fill="#000000" d="M416 -605L391 -568H295C361 -655 386 -676 414 -681C423 -683 427 -684 427 -688C427 -691 424 -695 417 -701L370 -747L340 -714H224C234 -731 245 -750 256 -770C266 -787 273 -791 292 -795C300 -797 303 -799 303 -801C303 -804 301 -807 295 -811L240 -854C202 -747 133 -620 49 -489L59 -480C83 -507 106 -536 132 -572V-325C132 -276 131 -228 130 -213V-204C130 -196 132 -192 138 -192C142 -192 148 -193 156 -197C176 -205 176 -207 176 -230H402C402 -211 402 -204 409 -204C411 -204 451 -220 451 -243V-247C448 -292 447 -325 447 -360V-534L468 -547C473 -550 475 -552 475 -555C475 -558 473 -560 468 -564ZM176 -417V-547H265V-417ZM309 -417V-547H402V-417ZM309 -251V-396H402V-251ZM176 -251V-396H265V-251ZM276 -568H189L151 -599C170 -626 190 -657 211 -693H344ZM848 -804L816 -763H584L527 -810C529 -783 530 -748 530 -698V-559C530 -510 529 -462 528 -447V-439C528 -430 530 -426 536 -426C540 -426 547 -427 555 -431C575 -439 575 -441 575 -457H830V-421C830 -411 831 -406 837 -406C843 -406 879 -420 879 -442V-447C877 -482 876 -505 876 -560V-727C912 -746 912 -747 912 -752C912 -755 909 -759 903 -763ZM575 -628V-742H830V-628ZM575 -478V-607H830V-478ZM928 -158C922 -2 911 9 841 9C778 9 769 -7 769 -34V-180C805 -206 873 -253 904 -274C919 -284 934 -289 948 -290C960 -291 965 -292 965 -295C965 -297 963 -300 959 -303L912 -343C858 -282 805 -231 769 -203V-359C803 -379 803 -379 803 -383C803 -386 800 -389 793 -392L725 -426C727 -386 728 -356 728 -297V-31C728 34 741 47 844 47C933 47 956 35 977 -7C978 -9 979 -11 979 -13C979 -17 976 -19 969 -24C951 -36 945 -68 945 -158ZM656 -304L623 -257H557V-347C588 -367 589 -368 589 -371C589 -374 586 -377 578 -380L511 -408C513 -370 514 -336 514 -283V-29C514 -14 500 0 480 7L520 48C523 51 525 52 528 52C531 52 534 50 538 45C562 15 589 -6 699 -74L691 -88L557 -24V-235H697C706 -235 710 -236 710 -239C710 -242 707 -246 701 -253ZM368 -191C406 -149 422 -113 422 -73C422 -52 429 -43 442 -43C458 -43 475 -58 475 -81C475 -131 404 -182 376 -202ZM283 -185C310 -139 317 -106 317 -69C317 -25 317 -17 336 -17C356 -17 369 -32 369 -55C369 -76 358 -120 292 -193ZM196 -176C209 -144 215 -113 215 -86C215 -69 213 -54 209 -40C207 -32 206 -26 206 -20C206 -6 213 1 228 1C247 1 262 -20 262 -57C262 -83 243 -128 207 -181ZM140 -171C140 -80 119 -48 62 -5C52 3 47 12 47 20C47 37 67 43 78 43C121 43 158 -15 158 -112C158 -131 156 -151 153 -171Z"/>
</svg>