<svg xmlns="http://www.w3.org/2000/svg" viewBox="0 -1000 1000 1000">
	<path fill="#000000" d="M409 -637L381 -601H289C339 -678 367 -707 391 -710C399 -711 403 -713 403 -716C403 -719 401 -722 397 -726L352 -770L326 -739H210C251 -812 253 -816 271 -820C277 -822 279 -823 279 -826C279 -828 277 -830 272 -833L218 -866C181 -759 113 -632 28 -496L39 -487C67 -518 92 -550 120 -591V-357C120 -338 118 -252 118 -235C118 -225 119 -221 124 -221C125 -221 164 -232 164 -253V-268H390C390 -246 390 -240 398 -240C402 -240 409 -243 417 -247C435 -256 441 -261 441 -273C441 -275 440 -278 440 -281C436 -321 435 -358 435 -393V-569L459 -581C465 -584 467 -586 467 -589C467 -592 465 -595 459 -599ZM164 -450V-580H257V-450ZM301 -450V-580H390V-450ZM301 -289V-429H390V-289ZM164 -289V-429H257V-289ZM268 -601H177L143 -627C160 -653 178 -683 198 -718H327ZM884 -805L855 -766H564L502 -817C505 -777 506 -717 506 -630V-397C506 -146 492 -62 346 81L357 93C526 -46 550 -104 550 -443L568 -419C585 -426 614 -430 635 -430H866V-38C866 -12 863 0 832 0C811 0 777 -6 723 -17L720 -2C804 21 821 41 823 71C824 76 826 79 830 79C832 79 833 78 835 78C903 55 912 32 912 -46V-725L943 -742C950 -746 953 -748 953 -751C953 -754 950 -758 943 -762ZM807 -495L774 -452H728V-570H846C853 -570 856 -571 856 -574C856 -576 854 -579 849 -584L801 -634L769 -591H728V-674C753 -688 755 -689 755 -693C755 -695 752 -698 746 -701L680 -733C682 -714 683 -686 683 -622V-591H628C607 -591 582 -592 556 -595L584 -559C601 -566 630 -570 651 -570H683V-452H612C591 -452 572 -453 550 -455V-744H866V-439ZM761 -352L736 -320H654L596 -370C599 -341 599 -308 599 -245V-172C599 -143 596 -97 596 -69C596 -59 598 -55 604 -55C608 -55 614 -57 622 -61C639 -68 642 -73 642 -85V-128H742V-88C742 -78 743 -74 749 -74C753 -74 759 -76 767 -80C785 -88 790 -92 790 -104C790 -107 789 -110 789 -113C787 -138 786 -165 786 -206V-290C813 -305 816 -307 816 -311C816 -314 813 -317 808 -320ZM642 -149V-299H742V-149ZM327 -232C368 -188 384 -155 389 -122C393 -93 400 -86 413 -86C429 -86 441 -103 441 -125C441 -163 408 -193 335 -241ZM247 -215C281 -167 288 -136 288 -91C288 -66 296 -55 308 -55C327 -55 341 -73 341 -97C341 -145 280 -201 256 -223ZM165 -207C181 -170 187 -138 187 -111C187 -96 185 -83 182 -70C180 -63 179 -57 179 -52C179 -36 187 -30 200 -30C220 -30 234 -43 234 -78V-88C232 -117 207 -168 176 -214ZM112 -202C105 -128 79 -74 48 -46C41 -39 36 -31 36 -23C36 -8 50 -1 64 -1C126 -1 130 -108 130 -146C130 -164 129 -183 127 -202Z"/>
</svg>