<svg xmlns="http://www.w3.org/2000/svg" viewBox="0 -1000 1000 1000">
	<path fill="#000000" d="M372 -619L345 -583H273C321 -661 356 -698 390 -707C399 -710 403 -711 403 -714C403 -717 400 -720 394 -725L339 -770L312 -735H209C219 -752 227 -769 236 -786C243 -800 252 -806 270 -810C277 -812 280 -813 280 -815C280 -817 277 -820 271 -824L211 -864C174 -756 100 -592 11 -448L21 -438C47 -469 77 -513 109 -563V-334C109 -315 107 -229 107 -212C107 -202 108 -198 113 -198C118 -198 124 -201 133 -206C150 -215 150 -218 150 -247H357C357 -229 357 -224 364 -224C368 -224 374 -226 384 -231C400 -239 403 -243 403 -258C403 -277 398 -360 398 -377V-547L418 -557C424 -560 426 -562 426 -565C426 -568 424 -571 418 -576ZM150 -427V-563H231V-427ZM272 -427V-563H357V-427ZM272 -267V-407H357V-267ZM150 -267V-407H231V-267ZM251 -583H149L132 -599C154 -637 177 -677 199 -716H318ZM109 -165C109 -98 88 -44 53 -8C42 4 38 12 38 19C38 30 49 41 66 41C78 41 91 35 103 24C121 6 128 -29 128 -84C128 -107 127 -134 125 -164ZM976 -25C837 -63 762 -145 720 -247H937C945 -247 949 -248 949 -251C949 -254 945 -258 939 -263L886 -311L849 -267H685V-369H887C897 -369 902 -370 902 -373C902 -376 898 -380 890 -387L834 -433L803 -389H536V-648H634V-584C634 -540 633 -489 631 -464V-461C631 -455 633 -452 638 -452C642 -452 647 -453 655 -456C672 -462 675 -466 675 -478V-501H790V-470C790 -464 792 -461 797 -461C799 -461 835 -471 835 -485C835 -486 834 -488 834 -490C832 -502 831 -519 831 -583V-648H964C972 -648 976 -649 976 -652C976 -655 972 -659 966 -664L918 -710L882 -668H831V-794C863 -814 863 -814 863 -818C863 -821 860 -824 853 -828L787 -862C789 -833 790 -784 790 -709V-668H675V-804C705 -819 708 -821 708 -824C708 -827 704 -830 697 -834L631 -869C633 -827 634 -791 634 -699V-668H536V-748C566 -767 569 -769 569 -774C569 -777 566 -780 559 -784L492 -821C494 -774 495 -739 495 -668H448C424 -668 401 -669 378 -672L405 -638C430 -648 464 -648 495 -648V-407L455 -383L506 -342C510 -339 513 -338 516 -338C519 -338 521 -339 524 -343L543 -369H643V-267H493C469 -267 446 -268 423 -271L450 -237C465 -243 494 -247 514 -247H589C529 -141 427 -31 316 57L328 69C453 -14 566 -119 643 -247V-61C643 8 642 52 641 73V76C641 83 643 86 649 86C653 86 659 84 667 81C685 73 690 70 690 60C690 58 689 56 689 53C686 29 685 -1 685 -46V-247H703C730 -145 775 -70 873 8C877 12 881 14 884 14C888 14 891 12 895 8C912 -7 932 -12 976 -12ZM675 -521V-648H790V-521ZM324 -198C363 -146 376 -116 382 -85C387 -61 393 -57 403 -57C419 -57 433 -77 433 -99C433 -129 394 -168 332 -207ZM242 -181C272 -127 280 -97 286 -54C290 -27 293 -24 304 -24C329 -24 340 -48 340 -65C340 -78 332 -113 254 -189ZM167 -169C179 -130 184 -95 184 -67C184 -59 180 -26 180 -19C180 -5 186 3 197 3C213 3 237 -23 237 -53C237 -73 226 -110 176 -176Z"/>
</svg>