<svg xmlns="http://www.w3.org/2000/svg" viewBox="0 -1000 1000 1000">
	<path fill="#000000" d="M102 -307C102 -288 99 -202 99 -185C99 -177 101 -173 106 -173C109 -173 114 -175 122 -179C139 -188 143 -191 142 -205H355C355 -185 355 -179 362 -179C366 -179 372 -182 382 -187C397 -195 400 -199 400 -214C400 -232 395 -316 395 -333V-530C428 -544 429 -545 429 -549C429 -551 427 -554 422 -558L373 -604L345 -568H264C347 -672 366 -685 396 -690C404 -691 408 -692 408 -695C408 -698 405 -702 398 -708L346 -754L316 -720H209C244 -773 248 -779 272 -784C280 -786 284 -788 284 -791C284 -794 280 -798 273 -803L217 -843C175 -739 98 -609 29 -509L41 -500C63 -523 82 -545 102 -569ZM230 -401H142V-548H230ZM230 -381V-225H142V-381ZM270 -401V-548H355V-401ZM270 -225V-381H355V-225ZM320 -700L244 -568H154L121 -594C134 -611 141 -620 196 -700ZM513 -262C515 -239 516 -209 516 -181V-40C516 -32 513 47 513 64C513 72 515 76 521 76C526 76 532 74 542 71C558 66 561 63 561 46V4H796V57C796 65 797 69 802 69C806 69 812 68 820 64C841 55 845 52 845 37V30C842 -15 841 -44 841 -78V-189L871 -209C875 -211 877 -214 877 -216C877 -218 875 -221 870 -224L804 -265L780 -222H568ZM561 -18V-200H796V-18ZM223 -172C260 -123 276 -83 276 -42C276 -21 284 -10 298 -10C315 -10 329 -32 329 -55C329 -94 280 -140 234 -179ZM312 -174C351 -131 367 -100 375 -66C380 -42 385 -38 394 -38C412 -38 427 -57 427 -78C427 -83 426 -88 424 -93C416 -114 381 -148 320 -182ZM104 -156C100 -93 80 -42 48 -10C35 3 29 13 29 21C29 31 45 42 61 42C94 42 123 -3 123 -82C123 -104 121 -129 116 -155ZM148 -160C165 -124 172 -86 172 -49C172 -43 171 -19 171 -14C171 6 177 13 188 13C210 13 226 -6 226 -36C226 -75 183 -136 158 -167ZM721 -604C791 -552 838 -499 853 -463C860 -447 864 -445 878 -445C889 -445 898 -467 898 -486C898 -536 786 -592 727 -616ZM599 -843C643 -799 658 -772 663 -729C665 -713 671 -705 685 -705C700 -705 718 -727 718 -749C718 -773 689 -811 606 -852ZM608 -626C576 -565 505 -481 445 -421L454 -410C525 -460 574 -504 614 -551C626 -566 635 -572 656 -576C663 -577 666 -579 666 -582C666 -584 664 -587 659 -590ZM965 -283C884 -289 801 -337 711 -484C715 -487 739 -493 739 -497C739 -499 736 -502 731 -506L682 -543C629 -440 541 -337 424 -226L432 -214C557 -310 622 -368 698 -471C785 -284 870 -241 872 -241C874 -241 877 -243 880 -246C895 -261 914 -269 965 -270ZM491 -744C486 -684 470 -641 441 -622C428 -613 421 -598 421 -587C421 -577 433 -565 448 -565C488 -565 509 -612 509 -675H868L826 -598L837 -591C889 -648 921 -660 951 -663C958 -664 962 -665 962 -667C962 -670 959 -673 953 -679L896 -736L862 -697H509C508 -711 507 -727 505 -744Z"/>
</svg>