<svg xmlns="http://www.w3.org/2000/svg" viewBox="0 -1000 1000 1000">
	<path fill="#000000" d="M214 -843C178 -727 101 -571 21 -432L32 -423C59 -458 86 -495 114 -542V-301C114 -252 113 -204 112 -189C112 -185 111 -182 111 -180C111 -172 113 -168 119 -168C123 -168 129 -170 137 -173C153 -179 155 -186 155 -206H366C366 -193 368 -188 375 -188C378 -188 383 -189 389 -191C407 -196 412 -200 412 -215C412 -218 411 -221 411 -225C409 -251 408 -299 408 -337V-523C436 -545 437 -546 437 -552C437 -555 435 -559 430 -562L379 -595L358 -560H284C345 -653 357 -666 380 -673C396 -678 404 -682 404 -688C404 -692 399 -698 388 -705L338 -740L311 -706H204C214 -725 224 -745 234 -766C240 -778 255 -790 269 -795C274 -797 277 -800 277 -803C277 -806 275 -809 271 -811ZM242 -402H155V-539H242ZM242 -227H155V-381H242ZM282 -402V-539H366V-402ZM282 -227V-381H366V-227ZM162 -560L135 -578C154 -609 174 -645 193 -685H320L265 -560ZM836 -90C836 -56 836 -52 844 -52C847 -52 879 -64 879 -78V-81C878 -91 877 -126 877 -163V-377L903 -393C907 -396 909 -398 909 -400C909 -403 907 -405 904 -408L850 -451L818 -412H557L501 -457C503 -429 504 -390 504 -348V-162C504 -110 503 -80 502 -64V-62C502 -58 504 -55 508 -55C512 -55 519 -58 529 -64C542 -72 545 -76 545 -90ZM836 -214H545V-292H836ZM836 -192V-112H545V-192ZM545 -390H836V-314H545ZM613 -76C548 -24 458 33 361 82L367 94C422 78 504 43 610 -12C616 -15 624 -17 632 -17C636 -17 650 -14 653 -14C658 -14 661 -16 661 -19C661 -22 659 -25 656 -28ZM715 -42C789 -26 860 8 907 60C918 73 929 79 937 79C944 79 956 70 956 52C956 41 951 26 940 11C918 -19 813 -52 716 -58ZM668 -616H540C524 -616 499 -617 477 -620L501 -584C518 -591 542 -595 563 -595H668V-504H495C476 -504 452 -506 431 -508L454 -471C471 -478 496 -482 516 -482H953C961 -482 964 -483 964 -486C964 -488 962 -492 957 -497L909 -549L865 -504H712V-595H902C907 -595 910 -596 910 -599C910 -601 908 -604 905 -607L853 -662L815 -616H712V-700H949C956 -700 959 -702 959 -705C959 -708 957 -712 952 -716L897 -767L862 -721H712V-783L737 -801C742 -804 745 -807 745 -809C745 -811 742 -813 737 -816L667 -852C667 -826 668 -768 668 -721H507C489 -721 466 -722 443 -725L468 -689C484 -696 509 -700 530 -700H668ZM119 -153C111 -72 92 -36 46 5C39 12 36 21 36 29C36 52 56 55 65 55C85 55 136 27 136 -109C136 -123 135 -137 134 -153ZM170 -161C187 -122 194 -84 194 -45C194 -40 193 -14 193 -9C193 10 199 15 213 15C229 15 243 -8 243 -32C243 -55 225 -105 181 -168ZM262 -168C289 -125 297 -94 297 -47C297 -18 297 -3 317 -3C331 -3 347 -20 347 -45C347 -56 340 -105 272 -175ZM363 -170C387 -129 397 -91 397 -56C397 -35 405 -21 417 -21C432 -21 445 -39 445 -66C445 -74 444 -83 441 -93C434 -115 420 -135 372 -178Z"/>
</svg>