<svg xmlns="http://www.w3.org/2000/svg" viewBox="0 -1000 1000 1000">
	<path fill="#000000" d="M747 -316L722 -281H536C571 -312 604 -332 637 -337C645 -338 649 -340 649 -343C649 -344 647 -347 644 -349L591 -387L560 -361H332C342 -368 353 -373 359 -375C364 -377 366 -379 366 -381C366 -383 364 -385 360 -387L307 -412C266 -353 197 -275 65 -160L74 -149C135 -190 177 -222 224 -262V-164C224 -147 221 -71 221 -56C221 -48 223 -45 228 -45C232 -45 237 -47 246 -51C264 -60 265 -61 265 -72V-85H734C734 -59 734 -56 742 -56C746 -56 752 -58 761 -61C779 -68 784 -72 784 -81C784 -85 783 -89 782 -95C778 -126 778 -144 778 -185V-249L799 -260C805 -264 808 -267 808 -270C808 -273 805 -276 799 -280ZM265 -198V-262H478V-198ZM503 -281H267L253 -289C270 -305 287 -323 307 -343H554ZM522 -198V-262H734V-198ZM522 -104V-179H734V-104ZM265 -104V-179H478V-104ZM474 -789L445 -751H306V-795C331 -810 334 -812 334 -815C334 -818 331 -820 323 -823L259 -846C261 -818 262 -782 262 -751H116C93 -751 68 -752 43 -754L71 -721C88 -728 117 -732 138 -732H262V-673H161C138 -673 113 -675 88 -677L116 -644C133 -651 162 -654 183 -654H262V-599H108C85 -599 60 -601 35 -603L63 -569C80 -576 109 -580 130 -580H200C180 -486 148 -440 42 -367L48 -354C142 -394 197 -446 226 -514H402C395 -476 392 -453 344 -453C325 -453 299 -457 260 -463L257 -451C326 -432 333 -427 340 -406C342 -401 344 -399 349 -399C395 -399 431 -440 443 -499C470 -510 473 -511 473 -514C473 -517 470 -520 465 -523L418 -557L395 -533H234C240 -548 243 -563 247 -580H496C504 -580 508 -581 508 -584C508 -587 505 -591 499 -598L466 -637L430 -599H306V-654H474C483 -654 487 -656 487 -659C487 -662 484 -666 478 -672L438 -710L405 -673H306V-732H510C518 -732 522 -733 522 -736C522 -739 519 -743 513 -750ZM971 -452C872 -456 793 -478 729 -522C770 -562 804 -617 834 -686H929C938 -686 943 -687 943 -691C943 -693 940 -698 933 -704L880 -752L845 -705H616C625 -723 634 -743 645 -764C656 -788 661 -792 674 -796C682 -799 686 -802 686 -805C686 -808 682 -812 674 -816L618 -843C579 -709 540 -612 495 -534L510 -530C539 -567 561 -600 590 -653C606 -608 629 -564 669 -523C613 -473 536 -437 430 -409V-395C543 -411 630 -440 699 -495C768 -437 875 -392 882 -392C884 -392 885 -393 886 -395C899 -421 917 -435 971 -437ZM778 -686C758 -633 732 -586 695 -548C658 -580 627 -621 599 -671C601 -675 603 -681 606 -686ZM524 -49C563 -17 581 24 586 43C593 71 596 75 607 75C624 75 643 60 643 36C643 10 602 -27 530 -60ZM316 -51C353 -11 366 22 368 51C369 70 378 76 386 76C399 76 423 59 423 38C423 3 372 -34 323 -60ZM190 -66C171 -8 141 13 90 35C77 40 72 46 72 55C72 86 101 86 105 86C148 86 196 37 203 -65ZM728 -32C776 -8 830 40 841 57C855 78 865 85 872 85C887 85 899 68 899 49C899 12 857 -10 732 -45Z"/>
</svg>