<svg xmlns="http://www.w3.org/2000/svg" viewBox="0 -1000 1000 1000">
	<path fill="#000000" d="M819 -826L789 -779H235L173 -822C174 -800 175 -765 175 -728V-464C175 -229 163 -121 45 51L58 60C203 -119 226 -161 226 -604H809C809 -573 809 -569 815 -569C820 -569 826 -571 837 -576C856 -584 860 -587 860 -597C860 -618 856 -652 856 -673V-738L887 -759C892 -762 894 -764 894 -767C894 -769 892 -772 887 -775ZM911 -172C902 -48 892 -18 868 -16C811 -11 760 -8 707 -8C587 -8 556 -11 556 -43V-181L945 -224C950 -225 953 -226 953 -228C953 -230 951 -233 946 -237L873 -295L840 -236L556 -204V-318L859 -351C865 -352 867 -353 867 -356C867 -359 865 -362 860 -366L789 -418L756 -362L556 -341V-456C600 -463 639 -470 732 -488C758 -493 777 -495 795 -495C798 -495 813 -494 816 -494C821 -494 823 -495 823 -497C823 -499 821 -502 816 -506L761 -551C694 -512 459 -462 273 -434L274 -421C341 -426 390 -431 509 -449V-336L320 -316C291 -313 276 -311 251 -311L290 -280C306 -288 321 -293 340 -295L509 -313V-199L280 -174C256 -171 238 -170 210 -169L244 -139C262 -146 276 -151 297 -153L509 -176V-45C509 5 533 30 578 32C614 34 652 35 691 35C756 35 825 32 896 23C939 17 961 -38 961 -40C961 -43 958 -47 952 -51C927 -68 925 -85 925 -171ZM226 -626V-756H809V-626Z"/>
</svg>