<svg xmlns="http://www.w3.org/2000/svg" viewBox="0 -1000 1000 1000">
	<path fill="#000000" d="M876 -749L847 -718H757V-785C783 -798 786 -799 786 -804C786 -807 783 -810 777 -813L711 -844C713 -811 715 -757 715 -718H638V-796C663 -809 666 -810 666 -815C666 -818 663 -820 656 -823L592 -850C594 -817 596 -758 596 -718H535L473 -764C475 -736 476 -690 476 -667V-482C476 -472 474 -429 474 -420C474 -412 475 -408 480 -408C484 -408 490 -410 499 -414C519 -422 519 -423 519 -449H855C855 -411 855 -411 862 -411C868 -411 903 -423 903 -441C903 -450 899 -520 899 -535V-676C929 -690 932 -691 932 -696C932 -699 930 -702 925 -706ZM638 -601V-697H715V-601ZM638 -469V-581H715V-469ZM757 -601V-697H855V-601ZM757 -469V-581H855V-469ZM519 -601V-697H596V-601ZM519 -469V-581H596V-469ZM372 -609L345 -578H269C347 -674 367 -685 403 -691C409 -692 412 -694 412 -696C412 -699 410 -701 406 -705L351 -754L326 -729H205C214 -743 222 -758 231 -773C240 -788 258 -800 274 -803C279 -804 281 -806 281 -809C281 -811 280 -814 276 -816L216 -853C167 -735 120 -644 31 -487L44 -480C63 -505 82 -531 104 -564V-335C104 -316 101 -230 101 -213C101 -205 103 -201 108 -201C112 -201 118 -203 127 -207C146 -216 147 -219 147 -229V-251H358C358 -219 358 -216 364 -216C368 -216 374 -218 384 -222C403 -230 408 -234 408 -246C408 -249 407 -252 407 -256C403 -301 402 -339 402 -381V-543L420 -550C426 -553 429 -555 429 -558C429 -561 426 -565 420 -570ZM147 -430V-557H234V-430ZM277 -430V-557H358V-430ZM277 -272V-409H358V-272ZM147 -272V-409H234V-272ZM247 -578H159L126 -599C146 -630 168 -665 193 -708H325ZM811 -316L785 -286H566L507 -334C509 -305 509 -293 509 -270V-157C509 -151 507 -123 507 -117C507 -109 508 -105 514 -105C521 -105 539 -114 544 -117C573 -90 579 -70 590 -28C595 -7 597 -4 612 -4C626 -4 639 -25 639 -44C639 -49 638 -55 635 -60C624 -80 596 -101 552 -125C553 -128 553 -130 553 -151H795C795 -117 795 -114 801 -114C805 -114 810 -115 818 -119C837 -128 841 -131 841 -142C841 -148 839 -177 839 -183V-246L866 -259C870 -260 873 -262 873 -265C873 -267 870 -270 865 -274ZM553 -171V-265H795V-171ZM909 -413L870 -374H497C476 -374 453 -376 431 -378L456 -343C471 -349 498 -353 517 -353H944C955 -353 960 -355 960 -359C960 -363 957 -367 950 -374ZM344 -191C383 -145 394 -113 394 -79C394 -50 402 -43 417 -43C430 -43 445 -58 445 -82C445 -92 442 -103 436 -116C422 -145 397 -169 352 -199ZM260 -178C284 -137 290 -108 290 -57C290 -29 296 -22 309 -22C326 -22 341 -43 341 -68C341 -107 296 -158 272 -184ZM173 -162C184 -133 189 -112 189 -90C189 -79 182 -32 182 -22C182 -5 188 2 201 2C217 2 240 -18 240 -48C240 -65 230 -110 185 -166ZM105 -160C105 -99 89 -61 45 -7C40 0 37 8 37 17C37 33 46 42 63 42C90 42 128 6 128 -82C128 -106 125 -132 118 -160ZM892 -30L852 15H721C781 -64 786 -68 813 -76C818 -78 820 -79 820 -81C820 -83 818 -85 815 -87L756 -116C738 -67 725 -36 701 15H443C422 15 399 13 377 11L402 46C417 40 444 37 463 37H934C943 37 948 35 948 32C948 28 945 24 938 17Z"/>
</svg>