<svg xmlns="http://www.w3.org/2000/svg" viewBox="0 -1000 1000 1000">
	<path fill="#000000" d="M644 -844C565 -726 492 -647 395 -567L353 -607L325 -571H245C328 -675 347 -688 377 -693C385 -694 389 -695 389 -698C389 -701 386 -705 379 -711L327 -757L297 -723H185C204 -758 214 -777 243 -783C251 -785 255 -787 255 -790C255 -793 251 -797 244 -802L188 -840C142 -718 91 -612 18 -504L30 -495C50 -518 69 -541 89 -571V-310C89 -261 88 -213 87 -198V-190C87 -181 89 -177 94 -177C101 -177 129 -187 129 -208H335C335 -189 335 -183 343 -183C354 -183 381 -197 381 -215C381 -217 380 -221 380 -224C377 -258 375 -310 375 -336V-533C408 -547 409 -548 409 -551C409 -553 408 -554 407 -556C445 -576 478 -600 509 -626L532 -594C549 -601 578 -605 599 -605H790C798 -605 803 -606 803 -610C803 -613 801 -617 796 -622L754 -670L722 -627H511C562 -670 607 -721 673 -802C722 -701 789 -634 898 -579C899 -578 901 -578 902 -578C905 -578 907 -579 910 -583C922 -603 937 -615 981 -619L979 -633C858 -634 785 -669 688 -808C703 -808 710 -810 710 -813C710 -815 707 -818 701 -820ZM212 -403H129V-551H212ZM212 -383V-228H129V-383ZM252 -403V-551H335V-403ZM252 -228V-383H335V-228ZM301 -703L225 -571H141L107 -598C126 -626 148 -660 173 -703ZM440 -572C442 -550 442 -531 442 -497V-365C442 -352 440 -292 440 -280C440 -272 442 -268 448 -268C451 -268 456 -270 462 -273C485 -284 485 -288 485 -315H845C845 -280 845 -277 853 -277C856 -277 893 -288 893 -307V-311C891 -330 890 -353 890 -390V-499C911 -512 913 -513 913 -517C913 -519 911 -521 907 -524L854 -567L828 -534H496ZM485 -337V-512H642V-337ZM845 -512V-337H684V-512ZM778 -482C759 -446 736 -413 696 -362L707 -354C782 -418 802 -431 826 -431C831 -431 833 -432 833 -434C833 -435 832 -437 829 -439ZM487 -284C489 -259 490 -220 490 -201V-54C490 0 489 42 488 62V67C488 77 490 81 496 81C499 81 505 79 512 76C531 68 533 64 533 51V15H793V62C793 73 795 78 801 78C803 78 843 65 843 48V44C840 19 839 -23 839 -73V-206C867 -219 870 -221 870 -225C870 -228 868 -231 863 -235L809 -280L781 -245H543ZM793 -7H533V-107H793ZM533 -223H793V-129H533ZM224 -172C261 -123 277 -83 277 -42C277 -21 285 -14 299 -14C316 -14 330 -33 330 -55C330 -95 279 -142 235 -179ZM313 -174C352 -131 368 -100 376 -66C381 -42 386 -38 395 -38C413 -38 428 -57 428 -78C428 -83 427 -88 425 -93C417 -114 382 -148 321 -182ZM105 -156C101 -87 80 -41 49 -10C36 3 31 14 31 21C31 32 43 47 61 47C94 47 123 -8 123 -88C123 -109 121 -131 117 -155ZM149 -160C166 -124 173 -86 173 -49C173 -43 172 -19 172 -14C172 6 178 13 189 13C211 13 227 -6 227 -36C227 -75 184 -136 159 -167ZM497 -480C533 -449 555 -415 559 -387C561 -373 569 -367 576 -367C591 -367 601 -379 601 -397C601 -402 600 -407 599 -412C592 -439 562 -465 502 -490Z"/>
</svg>