<svg xmlns="http://www.w3.org/2000/svg" viewBox="0 -1000 1000 1000">
	<path fill="#000000" d="M230 -851C190 -735 109 -583 25 -446L36 -437C65 -473 93 -510 122 -553V-296C122 -277 120 -193 120 -176C120 -167 122 -163 128 -163C132 -163 138 -165 147 -168C164 -174 167 -180 167 -201H378C378 -186 380 -180 389 -180C393 -180 398 -181 405 -183C421 -188 426 -193 426 -206C426 -209 425 -213 425 -217C423 -242 422 -283 422 -329V-518C453 -535 456 -536 456 -540C456 -543 453 -547 448 -551L397 -594L370 -555H294C357 -658 367 -671 397 -681C408 -685 413 -687 413 -691C413 -693 411 -695 407 -699L353 -751L324 -714H221C255 -779 262 -793 291 -803C296 -805 299 -806 299 -809C299 -811 297 -813 293 -815ZM250 -397H167V-534H250ZM250 -222H167V-376H250ZM292 -397V-534H378V-397ZM292 -222V-376H378V-222ZM166 -555L137 -576C160 -610 184 -648 209 -693H329L272 -555ZM471 -566C473 -543 474 -519 474 -489V-391C474 -380 471 -325 471 -324C471 -316 473 -312 478 -312C480 -312 514 -321 514 -339V-357H631C631 -336 631 -334 637 -334C637 -334 672 -343 672 -361C672 -373 670 -430 670 -441V-495C680 -502 695 -513 695 -515C695 -517 694 -518 692 -520L641 -562L620 -527H519ZM514 -379V-505H631V-379ZM726 -564C728 -541 729 -517 729 -487V-408C729 -397 726 -345 726 -338C726 -332 727 -329 733 -329C744 -329 767 -340 767 -358H879C879 -336 879 -333 885 -333C889 -333 920 -346 920 -362C920 -370 918 -411 918 -414V-494C941 -510 944 -512 944 -516C944 -518 942 -520 940 -522L885 -565L867 -528H773ZM767 -380V-506H879V-380ZM545 -824C546 -793 547 -753 547 -725V-654C547 -643 545 -590 545 -587C545 -581 546 -578 551 -578C555 -578 561 -580 570 -585C585 -593 588 -599 588 -612H805C805 -591 805 -586 812 -586C814 -586 848 -595 848 -610V-612C846 -629 845 -653 845 -690V-748L866 -763C872 -766 874 -768 874 -771C874 -773 872 -775 868 -778L812 -821L790 -782H594ZM588 -634V-760H805V-634ZM128 -147C120 -67 100 -29 50 11C42 18 38 27 38 35C38 56 63 59 69 59C103 59 144 10 144 -98C144 -113 143 -130 141 -147ZM178 -149C198 -111 206 -72 206 -33C206 -28 205 -4 205 1C205 18 211 25 224 25C240 25 257 9 257 -19C257 -58 217 -118 188 -155ZM272 -163C302 -119 310 -88 310 -42C310 -17 310 1 329 1C347 1 363 -15 363 -39C363 -54 356 -98 280 -168ZM363 -165C394 -126 406 -79 406 -41C406 -17 413 -6 429 -6C444 -6 457 -26 457 -51C457 -94 423 -127 373 -173ZM712 -286C734 -301 737 -302 737 -306C737 -307 735 -309 732 -311L668 -343C670 -316 671 -286 671 -242H511C496 -242 478 -243 461 -245L482 -211C492 -217 512 -220 528 -220H625C569 -120 505 -35 417 43L426 53C536 -24 593 -81 671 -209V-41C671 -23 666 54 666 70C666 80 668 85 672 85C674 85 715 69 715 50V47C713 23 712 -15 712 -53V-220H720C791 -44 864 16 869 16C871 16 873 15 874 12C888 -10 906 -19 954 -17L955 -29C876 -41 823 -89 739 -220H943C951 -220 955 -221 955 -224C955 -226 952 -229 948 -234L895 -291L865 -242H712Z"/>
</svg>