<svg xmlns="http://www.w3.org/2000/svg" viewBox="0 -1000 1000 1000">
	<path fill="#000000" d="M904 -522L874 -489H818L841 -728L875 -746C879 -748 881 -750 881 -752C881 -755 878 -758 870 -764L817 -804L793 -766H706C683 -766 658 -767 633 -770L661 -736C678 -743 707 -747 728 -747H800L794 -679H716C693 -679 668 -680 643 -683L671 -649C688 -656 717 -660 738 -660H792L785 -583H707C684 -583 659 -584 634 -587L662 -553C679 -560 708 -564 729 -564H783L776 -489H262L259 -570H416C423 -570 426 -571 426 -574C426 -577 423 -581 417 -587L374 -630L340 -589H258L255 -665H403C411 -665 415 -668 415 -672C415 -675 414 -678 410 -682L367 -723L339 -684H254L252 -740C344 -765 376 -773 396 -773C401 -773 421 -768 425 -768C427 -768 428 -768 428 -770C428 -771 426 -774 423 -779L387 -827C361 -806 300 -779 260 -764L203 -800C206 -761 210 -703 212 -659L219 -489H166C166 -509 164 -532 161 -557L146 -556C138 -487 125 -453 78 -418C68 -411 64 -402 64 -394C64 -383 74 -366 94 -366C113 -366 160 -387 165 -469H376C320 -398 201 -303 74 -209L80 -195C125 -219 187 -258 254 -306V-191C254 -175 251 -92 251 -91C251 -81 253 -77 261 -77C262 -77 292 -79 298 -89H755C755 -77 757 -72 765 -72C774 -72 805 -78 805 -95C805 -97 804 -100 804 -103C802 -118 801 -134 801 -162V-275C833 -294 833 -294 833 -297C833 -300 831 -302 826 -305L769 -344L746 -311H561C608 -351 635 -364 661 -367C675 -369 681 -371 681 -374C681 -377 678 -380 673 -385L626 -428L593 -402H374C393 -421 418 -443 445 -443C450 -443 453 -444 453 -445C453 -447 450 -450 443 -454L415 -469H876L818 -364L831 -356C882 -423 917 -448 959 -448C968 -448 973 -449 973 -452C973 -455 969 -459 963 -465ZM300 -212V-291H503V-212ZM300 -109V-192H503V-109ZM549 -212V-291H755V-212ZM549 -109V-192H755V-109ZM531 -311H316L284 -328C307 -345 329 -363 352 -383H594ZM369 -74C398 -26 406 1 406 35C406 55 414 65 427 65C446 65 463 42 463 18C463 -14 431 -43 380 -82ZM596 -836C580 -820 557 -797 532 -774C506 -788 475 -802 441 -815L435 -804C464 -787 490 -770 511 -754C480 -726 449 -699 434 -686L443 -678C477 -696 503 -711 537 -735C558 -718 573 -703 580 -692C588 -679 601 -671 607 -671C620 -671 625 -682 625 -694C625 -721 593 -740 566 -756C592 -775 615 -793 639 -796C648 -798 652 -799 652 -802C652 -803 650 -805 645 -808ZM575 -670C561 -655 543 -639 523 -620C498 -636 471 -652 443 -665L436 -653C456 -638 479 -620 501 -600C470 -574 435 -546 396 -517L404 -506C443 -527 484 -551 524 -578C546 -556 564 -535 573 -520C583 -504 588 -500 598 -500C612 -500 619 -514 619 -527C619 -549 591 -574 555 -599C589 -622 605 -629 618 -630C626 -631 629 -631 629 -633C629 -635 627 -637 622 -640ZM572 -70C610 -25 621 -3 628 32C632 54 639 59 650 59C670 59 682 43 682 21C682 16 681 10 680 5C674 -20 644 -50 582 -78ZM239 -64C212 -19 186 5 145 26C127 35 121 45 121 54C121 70 137 79 154 79C163 79 172 76 180 71C216 47 233 18 253 -62ZM785 -55C832 -8 847 20 855 56C859 75 869 84 882 84C899 84 911 69 911 46C911 40 910 33 908 26C902 3 855 -38 794 -64Z"/>
</svg>