<svg xmlns="http://www.w3.org/2000/svg" viewBox="0 -1000 1000 1000">
	<path fill="#000000" d="M161 -629V-718H402V-629ZM161 -516V-607H402V-516ZM174 -740L113 -790C115 -759 116 -711 116 -687V-381C116 -360 113 -255 113 -249C113 -238 115 -233 123 -233C127 -233 134 -234 143 -238C161 -245 161 -248 161 -278H463C453 -156 443 -83 432 -43C425 -18 413 -5 376 -5C351 -5 314 -11 260 -23L257 -6C348 16 365 32 371 70C372 76 374 79 378 79C380 79 383 78 387 76C443 43 470 15 477 -27C488 -93 498 -161 509 -260L538 -275C543 -278 546 -279 546 -282C546 -284 543 -287 538 -291L483 -340L453 -300H161V-380H531C540 -380 544 -381 544 -384C544 -387 541 -391 536 -397L487 -455L444 -402H161V-494H402C402 -467 402 -464 409 -464C412 -464 418 -466 428 -470C446 -478 450 -483 450 -497C450 -500 446 -569 446 -582V-703L476 -720C481 -723 484 -725 484 -727C484 -730 481 -732 476 -736L417 -779L391 -740H237C273 -787 292 -796 307 -799C317 -801 322 -805 322 -810C322 -814 319 -819 312 -822L249 -853C239 -809 229 -778 213 -740ZM163 -217C179 -177 185 -149 185 -117V-94C185 -70 191 -61 201 -61C222 -62 239 -84 239 -107C239 -121 226 -166 175 -223ZM247 -231C273 -189 283 -159 288 -126C293 -94 296 -90 304 -90C324 -90 339 -109 339 -131C339 -161 298 -203 260 -240ZM100 -206C100 -153 88 -108 66 -78C55 -64 51 -53 51 -44C51 -26 74 -24 78 -24C89 -24 100 -30 112 -43C123 -54 129 -77 129 -109C129 -136 124 -169 114 -207ZM333 -251C362 -211 374 -183 378 -153C382 -126 387 -118 397 -118C412 -118 426 -135 426 -156C426 -184 405 -215 345 -260ZM917 -211C903 -36 893 -17 844 -10C822 -7 792 -6 760 -6C611 -6 590 -18 590 -64C590 -80 594 -100 603 -125C681 -355 730 -460 837 -656C856 -690 874 -706 908 -709C913 -710 916 -711 916 -714C916 -716 914 -719 911 -722L851 -780L816 -739H574C557 -739 538 -740 519 -743L548 -708C560 -713 574 -716 592 -716H818C696 -491 626 -328 559 -127C549 -98 544 -73 544 -53C544 18 596 34 783 34C907 34 932 32 969 -34C970 -36 971 -37 971 -39C971 -42 968 -44 963 -47C939 -59 934 -83 934 -211Z"/>
</svg>