<svg xmlns="http://www.w3.org/2000/svg" viewBox="0 -1000 1000 1000">
	<path fill="#000000" d="M214 -595V-754H798V-595ZM161 -823C163 -794 165 -736 165 -697V-461C165 -173 143 -55 41 71L52 83C173 -48 213 -153 214 -573H798C798 -541 798 -537 805 -537C809 -537 815 -539 825 -543C845 -552 848 -555 848 -564V-569C846 -593 845 -622 845 -658V-743C876 -763 880 -765 880 -769C880 -772 877 -775 871 -778L809 -817L779 -776H226ZM803 11C803 21 806 26 814 26C815 26 852 20 852 -2C852 -20 850 -47 850 -64V-420C880 -438 881 -438 881 -442C881 -444 877 -447 871 -450L800 -483C802 -447 803 -428 803 -398V-46H334V-415C362 -431 365 -433 365 -437C365 -440 362 -442 356 -445L288 -477C290 -452 291 -423 291 -395V-54L259 -29L299 8C301 10 303 11 306 11C313 11 316 7 343 -24H803ZM734 -354C744 -354 750 -355 750 -359C750 -362 746 -367 740 -373L693 -421L654 -376H589V-475C621 -498 621 -498 621 -501C621 -504 616 -506 608 -510L542 -541C544 -508 545 -489 545 -463V-376H458C435 -376 410 -378 385 -380L413 -343C430 -350 459 -354 480 -354H545V-183H424C401 -183 376 -185 351 -187L379 -151C396 -158 425 -162 446 -162H776C786 -162 791 -163 791 -167C791 -170 788 -174 782 -180L732 -235L691 -183H589V-354Z"/>
</svg>