<svg xmlns="http://www.w3.org/2000/svg" viewBox="0 -1000 1000 1000">
	<path fill="#000000" d="M831 -813L801 -771H231L167 -823C169 -800 170 -737 170 -695V-456C170 -205 139 -88 27 53L39 62C173 -69 217 -177 217 -524V-576H816C816 -550 816 -547 823 -547C827 -547 833 -549 842 -553C860 -560 865 -564 865 -575C865 -578 864 -581 864 -584C862 -599 862 -611 862 -635V-730L895 -753C900 -756 903 -759 903 -762C903 -765 900 -767 895 -771ZM217 -599V-748H816V-599ZM300 -506C356 -461 383 -406 391 -378C394 -367 400 -361 408 -361C419 -361 438 -379 438 -406C438 -449 380 -484 307 -514ZM976 -64C818 -64 688 -181 630 -304H925C934 -304 938 -305 938 -309C938 -311 936 -314 931 -319L866 -382L822 -326H672C714 -369 754 -408 792 -446C801 -455 817 -462 828 -463C832 -463 834 -464 834 -467C834 -469 832 -472 826 -475L765 -512C742 -462 693 -385 650 -326H584V-498L607 -511C610 -513 612 -515 612 -517C612 -519 610 -521 605 -524L534 -564C536 -527 538 -459 538 -418V-326H304C284 -326 257 -328 231 -331L259 -293C281 -299 306 -304 326 -304H452C397 -189 275 -58 141 23L144 36C297 -26 435 -167 511 -304H538V-122C538 -93 536 34 536 60C536 72 538 78 544 78C549 78 555 76 563 72C584 63 588 59 588 45V38C585 -7 584 -66 584 -142V-304H616C659 -169 747 -81 869 -13C873 -11 876 -9 879 -9C881 -9 883 -11 886 -14C902 -34 926 -45 976 -52Z"/>
</svg>