<svg xmlns="http://www.w3.org/2000/svg" viewBox="0 -1000 1000 1000">
	<path fill="#000000" d="M579 -731L519 -781C521 -750 522 -702 522 -678V-372C522 -322 521 -283 519 -245V-239C519 -228 521 -224 528 -224C532 -224 539 -225 548 -229C566 -236 566 -239 566 -269H872C867 -160 857 -50 851 -30C844 -4 835 10 798 10C775 10 740 4 687 -6L686 7C777 29 790 39 796 77C797 83 799 86 803 86C805 86 808 85 812 83C873 57 889 37 896 -14C902 -58 911 -152 918 -251L947 -266C952 -269 955 -270 955 -273C955 -275 952 -278 947 -282L892 -331L862 -291H566V-371H940C949 -371 954 -373 954 -376C954 -379 951 -384 945 -390L894 -444L853 -393H566V-485H821C821 -458 821 -455 828 -455C831 -455 837 -457 847 -461C865 -469 869 -474 869 -488C869 -491 865 -560 865 -573V-694L895 -711C900 -714 903 -716 903 -718C903 -721 900 -723 895 -727L836 -770L810 -731H675C721 -790 734 -801 749 -802C757 -803 762 -804 762 -808C762 -810 758 -814 751 -819L695 -856C687 -829 668 -772 653 -731ZM566 -620V-709H821V-620ZM566 -507V-598H821V-507ZM46 85C176 4 236 -88 267 -214C337 -172 364 -131 394 -70C401 -56 406 -52 415 -52C428 -52 442 -72 442 -97C442 -136 412 -167 270 -230C286 -303 290 -428 291 -654H471C480 -654 485 -655 485 -658C485 -660 481 -664 474 -671L423 -723L383 -676H291V-787L321 -805C327 -809 330 -812 330 -814C330 -816 327 -818 321 -821L244 -855C245 -789 245 -703 245 -676H97C76 -676 54 -677 31 -680L56 -644C71 -650 98 -654 117 -654H245C245 -413 241 -326 234 -276C211 -122 155 -29 39 73ZM116 -596C102 -465 73 -319 41 -232L51 -225C76 -263 99 -316 132 -432C159 -399 170 -370 175 -334C175 -321 181 -316 190 -316C207 -316 221 -336 221 -358C221 -389 191 -418 137 -452C142 -469 150 -501 157 -528C160 -541 164 -545 177 -553C185 -558 189 -561 189 -564C189 -567 185 -569 178 -572ZM659 -218C682 -181 690 -153 696 -113C701 -81 703 -75 714 -75C734 -75 746 -96 746 -118C746 -150 719 -177 668 -227ZM570 -208C586 -168 592 -140 592 -108V-85C592 -61 598 -52 608 -52C629 -53 646 -78 646 -101C646 -116 633 -157 582 -214ZM509 -202C507 -116 485 -75 454 -45C440 -32 435 -21 435 -12C435 4 455 10 463 10C483 10 529 -10 529 -123C529 -146 528 -172 523 -201ZM745 -231C774 -191 786 -163 790 -133C794 -106 799 -98 809 -98C824 -98 838 -115 838 -136C838 -164 811 -196 755 -240ZM386 -595C371 -510 333 -356 296 -274L308 -268C326 -291 352 -338 385 -422C416 -380 428 -344 432 -306C433 -296 436 -290 447 -290C470 -290 484 -315 484 -337C484 -343 482 -350 480 -355C469 -379 440 -410 392 -441C402 -468 412 -496 420 -525C423 -536 427 -541 442 -547C453 -552 458 -555 458 -558C458 -560 455 -562 450 -565Z"/>
</svg>