<svg xmlns="http://www.w3.org/2000/svg" viewBox="0 -1000 1000 1000">
	<path fill="#000000" d="M958 -382C958 -384 956 -388 952 -392L891 -450L858 -400H658C706 -439 750 -478 790 -514C805 -528 812 -530 840 -535C846 -536 849 -538 849 -540C849 -543 847 -545 843 -549L797 -590C734 -520 670 -458 601 -400H534V-505H679C685 -505 688 -506 688 -509C688 -511 686 -514 683 -518L634 -569L602 -527H534V-598C554 -615 557 -617 557 -620C557 -623 554 -625 550 -627L486 -651H818C818 -621 818 -617 825 -617C831 -617 868 -626 868 -639V-642C866 -663 865 -685 865 -716V-758L890 -775C896 -779 898 -782 898 -785C898 -788 896 -791 890 -794L828 -830L805 -796H226L163 -837C166 -775 169 -678 169 -570C169 -202 151 -75 39 58L51 67C209 -79 211 -214 216 -651H486C489 -599 489 -588 489 -527H386C364 -527 339 -528 316 -531L343 -495C358 -501 387 -505 407 -505H489V-400H297C274 -400 248 -401 224 -404L252 -368C268 -374 298 -378 319 -378H574C533 -345 490 -313 444 -281H431L379 -310C381 -282 382 -261 382 -239C322 -201 258 -164 188 -125L192 -113C256 -139 320 -171 382 -207V-81C382 -73 379 32 379 53C379 70 381 76 388 76C393 76 400 74 409 70C425 63 427 59 427 45V1H772V56C772 64 774 68 780 68C784 68 790 67 798 63C818 55 824 50 824 37C824 35 823 32 823 29C820 8 819 -26 819 -79V-243L845 -257C849 -259 851 -261 851 -264C851 -266 849 -269 846 -271L787 -317L759 -281H499C545 -312 589 -345 630 -378H948C955 -378 958 -379 958 -382ZM772 -156H427V-234C440 -242 453 -250 466 -259H772ZM772 -21H427V-134H772ZM818 -673H216C217 -705 217 -738 218 -774H818Z"/>
</svg>