<svg xmlns="http://www.w3.org/2000/svg" viewBox="0 -1000 1000 1000">
	<path fill="#000000" d="M618 -729L557 -779C559 -748 560 -700 560 -676V-365C560 -315 559 -263 557 -238V-231C557 -221 559 -217 566 -217C571 -217 578 -218 587 -222C605 -229 605 -232 605 -262H882C877 -153 867 -43 861 -23C854 3 845 16 808 16C785 16 750 11 697 1L696 14C787 36 804 44 810 82C811 88 813 91 817 91C819 91 822 90 826 88C887 62 899 44 906 -7C912 -51 921 -145 928 -244L957 -259C962 -262 965 -263 965 -266C965 -268 962 -271 957 -275L902 -324L872 -284H605V-364H965C974 -364 978 -365 978 -368C978 -371 975 -375 970 -381L921 -439L878 -386H605V-478H841C841 -451 841 -448 848 -448C852 -448 858 -450 867 -454C885 -462 889 -467 889 -481C889 -484 885 -553 885 -566V-692L915 -709C920 -712 923 -714 923 -716C923 -719 920 -721 915 -725L856 -768L839 -729H672C718 -791 728 -801 743 -802C751 -803 756 -804 756 -808C756 -810 752 -814 745 -819L689 -856C677 -811 662 -767 647 -729ZM605 -616V-707H841V-616ZM605 -500V-594H841V-500ZM126 -817C128 -786 128 -755 128 -733V-591C128 -575 125 -499 125 -489C125 -477 127 -472 133 -472C137 -472 169 -482 171 -497H403C403 -470 403 -467 410 -467C416 -467 451 -480 451 -499C451 -502 450 -505 450 -509C448 -535 447 -559 447 -590V-736L477 -754C482 -757 484 -759 484 -762C484 -764 482 -766 477 -769L416 -807L389 -768H180ZM403 -517H171V-625H403ZM171 -748H403V-645H171ZM672 -211C698 -169 708 -139 713 -106C718 -74 720 -68 731 -68C751 -68 764 -84 764 -104C764 -138 712 -191 681 -218ZM585 -201C601 -161 607 -133 607 -101V-78C607 -54 613 -45 623 -45C644 -46 659 -67 659 -90C659 -105 645 -151 595 -207ZM523 -195C523 -142 511 -97 489 -67C478 -53 474 -42 474 -33C474 -15 499 -13 502 -13C534 -13 549 -55 549 -100C549 -126 545 -158 537 -196ZM763 -220C792 -180 804 -152 808 -122C812 -95 817 -87 827 -87C842 -87 856 -104 856 -125C856 -148 843 -171 771 -229ZM283 -336C247 -255 208 -182 157 -112L168 -106C214 -155 238 -183 278 -240C313 -220 340 -197 354 -166C365 -143 370 -140 376 -140C387 -140 401 -152 401 -170C401 -202 365 -227 287 -253C292 -259 296 -266 300 -272C308 -285 319 -292 331 -294C336 -295 339 -297 339 -299C339 -301 337 -304 332 -307ZM174 -488C137 -408 85 -324 42 -262L50 -251C68 -270 86 -289 104 -310C106 -280 107 -259 107 -217V-91L76 -66L129 -36C134 -33 137 -32 139 -32C142 -32 143 -33 145 -36L160 -61H398C404 -61 407 -62 407 -64C407 -67 404 -70 399 -76L352 -128L318 -81H150V-263C160 -270 176 -281 176 -283C176 -285 174 -287 171 -288L109 -316C116 -324 128 -338 155 -371H430C428 -237 423 -134 416 -59C413 -22 398 -2 345 -2C322 -2 292 -6 252 -14L249 0C328 19 355 35 360 62C361 68 363 70 366 70C368 70 369 70 371 69C431 37 453 3 458 -50C467 -140 472 -243 475 -357L507 -367C512 -369 514 -370 514 -373C514 -375 512 -378 508 -381L441 -436L415 -391H170C177 -400 184 -409 191 -419C204 -437 212 -443 231 -446C238 -447 241 -449 241 -452C241 -454 238 -457 232 -460Z"/>
</svg>