<svg xmlns="http://www.w3.org/2000/svg" viewBox="0 -1000 1000 1000">
	<path fill="#000000" d="M600 -731L539 -781C541 -750 542 -702 542 -678V-372C542 -322 541 -283 539 -245V-240C539 -229 541 -224 549 -224C553 -224 560 -225 569 -229C587 -236 587 -239 587 -269H883C878 -160 868 -49 862 -30C855 -5 849 6 817 6C794 6 758 0 700 -10L697 7C788 29 805 45 811 83C812 89 814 92 818 92C820 92 823 91 827 89C888 63 900 37 907 -14C913 -58 922 -152 929 -251L958 -266C963 -269 966 -270 966 -273C966 -275 963 -278 958 -282L903 -331L873 -291H587V-371H961C970 -371 974 -372 974 -375C974 -378 971 -382 966 -388L917 -446L874 -393H587V-485H832C832 -458 832 -455 839 -455C843 -455 849 -457 858 -461C876 -469 880 -474 880 -488C880 -491 876 -560 876 -573V-694L906 -711C911 -714 914 -716 914 -718C914 -721 911 -723 906 -727L847 -770L821 -731H686C733 -798 743 -803 758 -804C766 -805 771 -806 771 -810C771 -812 767 -816 760 -821L704 -858C691 -815 675 -769 661 -731ZM587 -620V-709H832V-620ZM587 -507V-598H832V-507ZM425 -333C427 -228 420 -121 413 -74C408 -39 395 -22 348 -22C327 -22 300 -25 264 -32L262 -17C340 2 363 22 364 44C364 48 366 50 369 50C370 50 373 49 375 48C427 21 441 -1 450 -45C459 -90 468 -203 469 -320C479 -326 495 -335 495 -338C495 -339 494 -341 491 -343L435 -385L413 -355H206C216 -365 226 -376 236 -388C254 -408 267 -420 285 -422C289 -423 291 -423 291 -424C291 -426 289 -427 286 -429L234 -459C179 -377 117 -301 27 -207L36 -196C63 -217 89 -239 115 -263V-158L84 -143L129 -102C131 -101 132 -100 134 -100C136 -100 150 -115 159 -125H225C211 -38 176 -3 53 63L60 76C206 23 244 -24 261 -125H337V-100C337 -95 338 -93 343 -93C352 -93 379 -99 379 -112C379 -126 377 -149 377 -163V-235L404 -249C406 -250 408 -252 408 -253C408 -254 406 -255 403 -257L335 -286C336 -263 337 -234 337 -207V-147H264C270 -189 272 -228 272 -268L294 -285C296 -286 297 -288 297 -289C297 -291 295 -293 292 -294L230 -317C232 -259 230 -185 227 -147H155V-247C164 -254 178 -264 178 -266C178 -268 177 -269 174 -270L138 -285C153 -300 169 -316 185 -333ZM434 -726C434 -621 431 -557 423 -510C417 -476 405 -461 366 -461C350 -461 329 -464 303 -468L300 -454C354 -444 375 -427 384 -406C385 -402 387 -400 390 -400C390 -400 443 -415 458 -484C464 -511 469 -571 474 -709L500 -730C504 -733 506 -735 506 -738C506 -740 504 -742 500 -745L443 -785L416 -748H210C218 -758 227 -769 235 -780C251 -802 264 -813 280 -814C284 -814 286 -815 286 -816C286 -817 284 -819 281 -821L226 -852C179 -766 124 -690 33 -579L43 -569C72 -596 96 -618 117 -639V-559L81 -540L131 -511C133 -510 135 -509 136 -509C139 -509 141 -511 143 -513L157 -531H219C202 -488 148 -437 42 -386L46 -373C169 -412 242 -477 257 -531H338C338 -508 338 -506 344 -506C353 -506 380 -512 380 -525C380 -539 378 -562 378 -576V-633C396 -645 398 -647 398 -649C398 -651 396 -653 393 -655L336 -682C337 -659 338 -633 338 -606V-553H261C268 -590 271 -628 271 -668C280 -675 296 -686 296 -688C296 -690 294 -691 290 -692L232 -713C233 -692 233 -673 233 -655C233 -611 231 -577 225 -553H158V-626C166 -631 178 -640 178 -642C178 -644 177 -645 174 -646L137 -660C156 -680 174 -701 194 -726ZM591 -208C609 -163 614 -140 614 -112C614 -108 613 -89 613 -85C613 -61 619 -52 629 -52C650 -53 667 -75 667 -99C667 -112 657 -153 603 -214ZM675 -218C701 -176 711 -146 716 -113C721 -81 723 -75 734 -75C754 -75 767 -94 767 -116C767 -149 722 -194 688 -227ZM540 -202C538 -130 516 -75 485 -45C471 -32 466 -21 466 -12C466 4 486 10 494 10C509 10 561 -4 561 -120C561 -144 559 -172 554 -203ZM767 -227C796 -187 808 -159 812 -129C816 -102 821 -94 831 -94C848 -94 863 -115 859 -140C856 -163 839 -191 779 -236Z"/>
</svg>