<svg xmlns="http://www.w3.org/2000/svg" viewBox="0 -1000 1000 1000">
	<path fill="#000000" d="M446 -728L411 -685H184C197 -709 211 -735 227 -764C235 -778 241 -782 258 -785C267 -787 272 -789 272 -792C272 -795 268 -799 262 -803L204 -841C151 -702 112 -616 20 -449L31 -442C69 -492 101 -540 136 -600V-394C136 -342 135 -285 133 -226V-218C133 -201 135 -195 142 -195C146 -195 152 -197 160 -200C177 -207 178 -212 178 -240H485C494 -240 499 -241 499 -244C499 -247 495 -252 487 -260L440 -307L404 -262H347V-379H476C485 -379 490 -380 490 -383C490 -386 486 -391 478 -399L434 -444L400 -401H347V-523H471C480 -523 485 -524 485 -527C485 -530 481 -535 473 -543L429 -588L395 -545H347V-663H489C498 -663 503 -664 503 -667C503 -670 499 -675 491 -683ZM178 -401V-523H303V-401ZM178 -545V-663H303V-545ZM178 -262V-379H303V-262ZM910 -437L872 -391H584V-475H821C821 -441 821 -437 828 -437C833 -437 839 -439 849 -443C866 -450 869 -453 869 -468C869 -470 865 -549 865 -564V-697L895 -715C900 -718 902 -720 902 -722C902 -725 900 -728 895 -731L836 -776L809 -732H652C707 -806 715 -811 735 -817C744 -820 749 -822 749 -825C749 -828 745 -830 739 -833L676 -859C662 -818 648 -781 629 -732H590L538 -777C540 -746 541 -698 541 -674V-378C541 -325 540 -291 538 -253V-239C538 -226 540 -221 547 -221C552 -221 559 -223 569 -227C582 -232 584 -241 584 -257H866C863 -123 859 -74 853 -39C848 -11 835 0 799 0C775 0 740 -5 690 -13L686 3C777 22 801 42 807 73C808 79 810 81 813 81C815 81 818 80 821 79C897 42 902 19 910 -245L939 -266C944 -269 946 -272 946 -275C946 -277 944 -279 939 -282L876 -321L850 -279H584V-369H956C965 -369 970 -370 970 -373C970 -376 966 -381 958 -389ZM584 -612V-710H821V-612ZM584 -497V-590H821V-497ZM738 -221C772 -187 789 -150 797 -121C803 -101 808 -94 819 -94C830 -94 846 -112 846 -132C846 -158 820 -183 746 -231ZM271 -827C311 -790 326 -761 331 -732C335 -710 337 -706 348 -706C366 -706 386 -724 386 -751C386 -791 321 -823 275 -838ZM648 -215C671 -184 686 -143 693 -116C699 -92 705 -82 717 -82C726 -82 746 -95 746 -119C746 -146 717 -178 657 -223ZM365 -207C405 -160 421 -120 425 -96C429 -69 434 -60 448 -60C465 -60 476 -82 476 -103C476 -146 405 -196 374 -216ZM569 -201C586 -153 592 -126 592 -94C592 -67 598 -58 608 -58C626 -58 646 -76 646 -99C646 -130 602 -182 580 -208ZM280 -195C307 -156 320 -94 320 -74C320 -50 324 -39 339 -39C354 -39 373 -55 373 -86C373 -109 340 -155 289 -203ZM514 -202C514 -113 481 -58 467 -42C457 -31 454 -22 454 -16C454 -4 466 3 478 3C497 3 540 -9 540 -109C540 -136 536 -167 527 -202ZM191 -177C208 -132 215 -100 215 -68C215 -64 214 -45 214 -41C214 -21 220 -9 229 -9C249 -9 269 -27 269 -56C269 -92 225 -155 203 -184ZM134 -174C128 -97 100 -35 81 -18C60 0 55 10 55 17C55 23 61 41 82 41C97 41 115 32 132 13C146 -2 154 -34 154 -83C154 -109 152 -139 147 -174Z"/>
</svg>