<svg xmlns="http://www.w3.org/2000/svg" viewBox="0 -1000 1000 1000">
	<path fill="#000000" d="M830 -487C830 -448 830 -447 836 -447C840 -447 846 -449 854 -453C870 -460 875 -464 875 -477C875 -508 870 -556 870 -586V-712L900 -726C906 -729 909 -731 909 -733C909 -736 906 -739 901 -744L847 -791L820 -748H714C754 -801 769 -813 790 -814C794 -814 796 -816 796 -819C796 -821 794 -825 790 -827L732 -861C726 -834 711 -796 690 -748H638L585 -803C587 -772 588 -724 588 -700V-361C588 -345 585 -277 585 -263C585 -250 587 -245 592 -245C596 -245 602 -247 610 -251C625 -258 628 -263 629 -276H896C890 -170 884 -105 878 -68C870 -19 861 1 823 1C798 1 759 -8 699 -23L695 -6C789 24 809 39 812 70C813 75 814 77 818 77C820 77 823 76 828 74C891 43 911 24 919 -34C926 -85 936 -182 939 -257L971 -275C976 -278 978 -280 978 -282C978 -285 976 -288 971 -291L914 -336L886 -296H629V-378H961C968 -378 973 -380 973 -383C973 -386 970 -390 965 -395L913 -446L878 -398H629V-487ZM830 -604V-508H629V-604ZM830 -727V-625H629V-727ZM709 -247C741 -192 748 -161 748 -123C748 -107 755 -94 764 -94C785 -94 796 -116 796 -142C796 -168 770 -208 718 -256ZM781 -247C816 -199 827 -157 827 -133C827 -117 838 -102 847 -102C861 -102 871 -122 871 -148C871 -172 845 -223 790 -255ZM270 -305C273 -301 276 -298 280 -298C284 -298 287 -300 292 -303C309 -314 340 -324 377 -328L504 -343C507 -334 510 -324 512 -312C514 -303 523 -290 534 -290C543 -290 560 -303 560 -331C560 -346 560 -371 462 -436L454 -428C475 -404 488 -386 496 -364L320 -352C367 -387 416 -429 506 -511C515 -519 520 -521 539 -523C548 -524 553 -526 553 -528C553 -530 550 -532 545 -536L495 -574C475 -544 453 -515 428 -486L326 -491C354 -516 378 -540 400 -568C406 -576 414 -583 427 -583C437 -583 441 -583 441 -588C441 -590 439 -594 434 -598L392 -632C374 -594 337 -538 320 -519C309 -506 275 -495 251 -495L281 -446C283 -443 285 -442 288 -442C291 -442 296 -443 302 -446C322 -456 373 -465 411 -467C384 -438 353 -409 318 -379C300 -363 262 -355 238 -355ZM519 -747C505 -702 499 -687 450 -598L464 -590C538 -689 556 -700 568 -702C574 -703 577 -705 577 -707C577 -709 575 -711 571 -714ZM590 -231C584 -147 569 -126 534 -89C527 -81 522 -71 522 -62C522 -44 544 -42 548 -42C571 -42 615 -77 615 -140C615 -165 610 -194 602 -231ZM240 -627L162 -348C138 -254 131 -236 66 -236C55 -236 44 -236 30 -237L28 -222C125 -209 133 -193 133 -121C133 -105 131 -87 128 -69C122 -36 119 -12 119 4C119 38 130 44 149 44C173 44 184 30 184 -5C184 -27 180 -56 172 -95C169 -109 167 -130 167 -153C167 -191 171 -237 180 -280L256 -623ZM30 -586C86 -537 108 -500 112 -473C114 -460 125 -450 133 -450C147 -450 163 -470 163 -495C163 -538 120 -565 35 -597ZM95 -805C145 -765 171 -730 181 -696C188 -673 193 -666 205 -666C217 -666 234 -685 234 -709C234 -760 149 -795 103 -814ZM548 -188C556 -188 561 -190 561 -195C561 -198 558 -202 552 -208L505 -253L470 -210H408C410 -223 412 -238 413 -253C440 -274 443 -276 443 -279C443 -281 440 -282 434 -285L372 -311C370 -273 368 -239 364 -210H275C252 -210 227 -211 202 -214L230 -177C247 -184 276 -188 297 -188H361C343 -76 305 -26 222 37L225 52C322 -6 367 -46 391 -124C437 -85 451 -50 457 -14C459 -1 469 10 481 10C493 10 510 -9 510 -35C510 -38 509 -40 509 -43C505 -70 476 -101 396 -141C399 -155 402 -171 405 -188ZM264 -709C292 -674 303 -634 303 -618C303 -602 311 -592 322 -592C336 -592 346 -607 346 -625C346 -657 321 -684 271 -716ZM367 -729C399 -689 406 -670 408 -640C409 -621 416 -616 428 -616C440 -616 451 -630 451 -651C451 -683 431 -701 375 -736ZM526 -833C453 -802 397 -785 249 -753L251 -738C372 -751 405 -756 486 -771C510 -776 524 -778 536 -778C540 -778 559 -775 563 -775C566 -775 568 -776 568 -778C568 -780 566 -783 562 -787ZM649 -232C662 -193 667 -158 667 -132C667 -125 663 -97 663 -91C663 -78 669 -68 674 -68C700 -68 718 -90 718 -113C718 -132 696 -186 659 -237Z"/>
</svg>