<svg xmlns="http://www.w3.org/2000/svg" viewBox="0 -1000 1000 1000">
	<path fill="#000000" d="M157 -784C158 -740 158 -592 156 -468C152 -202 130 -95 44 67L55 76C173 -88 193 -156 204 -527H819C819 -509 819 -505 826 -505C834 -505 863 -515 863 -529C863 -538 861 -576 861 -584V-615C886 -631 888 -633 888 -638C888 -641 886 -644 882 -647L828 -680L809 -648H647V-722H909C916 -722 921 -724 921 -729C921 -732 919 -736 913 -742L862 -793L827 -743H213ZM427 -548V-627H604V-548ZM204 -548C205 -572 206 -599 206 -627H384V-548ZM604 -648H427V-722H604ZM384 -648H206C207 -676 207 -702 207 -722H384ZM819 -627V-548H647V-627ZM325 -317C351 -332 419 -351 548 -374L544 -387L346 -362V-429H528C537 -429 541 -431 541 -436C541 -439 538 -444 532 -450L495 -489L466 -449H346V-479C367 -494 369 -496 369 -499C369 -501 368 -502 364 -503L303 -524C304 -507 305 -469 305 -443V-384C305 -366 302 -360 273 -347L301 -310C303 -307 306 -306 309 -306C313 -306 317 -309 323 -316C325 -278 327 -213 327 -173V13H241C218 13 193 11 168 9L196 46C213 39 242 35 263 35H946C953 35 957 34 957 30C957 27 954 23 949 17L890 -49L840 13H792V-225L823 -244C828 -247 831 -250 831 -253C831 -256 828 -259 823 -263L764 -311L728 -272H383ZM373 -81V-152H746V-81ZM373 13V-59H746V13ZM373 -174V-250H746V-174ZM622 -473C644 -486 646 -487 646 -492C646 -494 644 -497 639 -499L579 -524C580 -508 581 -469 581 -452V-387C581 -343 598 -330 645 -330C727 -330 807 -330 844 -331C895 -332 910 -341 930 -374C931 -376 932 -378 932 -380C932 -384 929 -387 924 -390C910 -398 906 -405 906 -473H890C883 -376 875 -365 824 -363C793 -362 742 -361 700 -361C624 -361 622 -361 622 -410C744 -429 791 -436 816 -436C819 -436 836 -434 840 -434C844 -434 846 -435 846 -438C846 -441 844 -445 840 -450L812 -485C773 -465 689 -440 622 -428ZM453 -846C486 -822 504 -797 512 -774C521 -749 526 -746 536 -746C552 -746 566 -759 566 -785C566 -805 534 -837 457 -854Z"/>
</svg>