<svg xmlns="http://www.w3.org/2000/svg" viewBox="0 -1000 1000 1000">
	<path fill="#000000" d="M870 -533C862 -432 851 -423 797 -422C776 -422 753 -421 730 -421C623 -421 621 -421 621 -463C668 -468 723 -474 775 -481C801 -485 814 -486 822 -486C826 -486 842 -482 845 -482C849 -482 851 -483 851 -485C851 -488 848 -492 843 -497L811 -529C761 -510 696 -491 621 -478V-528C639 -539 641 -540 641 -544C641 -547 638 -549 634 -551L601 -564H825C825 -541 825 -538 832 -538C842 -538 869 -547 869 -561C869 -574 867 -627 867 -638C887 -648 889 -649 889 -653C889 -656 886 -659 881 -663L837 -694L819 -667H652V-736H917C927 -736 932 -738 932 -742C932 -745 928 -750 921 -757L865 -810L830 -760H570C576 -766 580 -773 580 -788C580 -810 535 -839 461 -851L459 -843C496 -828 521 -798 531 -771C532 -767 535 -764 540 -760H199L143 -799C144 -772 145 -688 145 -609C145 -194 118 -96 28 77L39 84C158 -84 182 -186 189 -564H298C299 -545 300 -513 300 -490V-442C300 -416 296 -408 275 -402L294 -364C296 -361 298 -360 301 -360C303 -360 306 -361 309 -364C326 -381 367 -396 522 -424L520 -438L340 -417V-476H518C524 -476 527 -477 527 -480C527 -482 524 -487 518 -494L487 -533L462 -495H340V-528C349 -531 363 -536 363 -538C363 -540 360 -543 351 -547L312 -564H578C579 -545 580 -515 580 -501V-440C580 -388 619 -388 754 -388C862 -388 885 -389 906 -428C907 -430 908 -432 908 -434C908 -437 906 -440 902 -443C891 -449 883 -465 883 -533ZM421 -584V-647H610V-584ZM189 -584C189 -606 190 -627 190 -647H378V-584ZM190 -667C191 -692 191 -715 191 -736H378V-667ZM421 -667V-736H610V-667ZM652 -584V-647H825V-584ZM801 -165H655V-240H801ZM612 -51L574 -48C551 -46 522 -46 497 -47L525 -11C544 -18 563 -21 596 -24L801 -45C801 -26 799 58 799 75C799 87 801 92 807 92C812 92 819 90 829 85C845 78 850 73 850 60C850 57 849 54 849 51C848 42 845 3 844 -49L941 -59C950 -60 955 -63 955 -66C955 -69 952 -73 947 -77L891 -124L863 -73L844 -71V-329H941C948 -329 951 -331 951 -334C951 -338 949 -342 943 -347L897 -396L863 -351H602C579 -351 554 -353 529 -355L557 -318C571 -324 590 -328 612 -329ZM801 -143V-68L655 -55V-143ZM801 -262H655V-329H801ZM319 -245L268 -291C268 -269 268 -243 263 -217L253 -155L211 -127L266 -93C268 -92 270 -91 272 -91C275 -91 278 -93 280 -96L300 -119H436C416 1 403 3 372 3C346 3 306 -5 237 -23L234 -7C307 21 328 36 334 61C335 68 337 70 341 70C343 70 345 70 348 69C420 47 439 32 461 -33C467 -50 475 -72 479 -106L501 -118C506 -119 509 -123 509 -127C509 -130 507 -133 503 -135L449 -168L425 -139H293L305 -225H445V-199C445 -193 446 -190 450 -190C453 -190 458 -192 465 -195C488 -204 492 -208 492 -219C492 -225 489 -269 489 -278V-306C516 -324 520 -326 520 -330C520 -332 517 -335 512 -338L457 -379L429 -343H298C275 -343 250 -345 225 -347L253 -310C270 -317 299 -321 320 -321H445V-245Z"/>
</svg>