<svg xmlns="http://www.w3.org/2000/svg" viewBox="0 -1000 1000 1000">
	<path fill="#000000" d="M490 -266L317 -254V-346H470C478 -346 482 -347 482 -351C482 -354 479 -358 473 -365L434 -407L398 -367H317V-481H431C431 -464 431 -458 438 -458C439 -458 479 -469 479 -488C479 -490 478 -492 478 -494C475 -516 474 -537 474 -564V-741C495 -757 497 -759 497 -761C497 -764 495 -767 489 -771L437 -807L418 -775H168L110 -818C112 -789 113 -743 113 -720V-555C113 -539 110 -456 110 -454C110 -446 111 -442 116 -442C120 -442 126 -444 134 -448C155 -457 155 -459 155 -481H274V-367H138C115 -367 90 -369 65 -371L93 -335C110 -342 139 -346 160 -346H274V-251L27 -234L50 -197C53 -193 55 -191 59 -191C61 -191 63 -192 66 -193C87 -201 115 -206 490 -251ZM317 -502V-754H431V-502ZM155 -502V-754H274V-502ZM372 -711C364 -659 351 -615 329 -555L339 -552L377 -620C398 -657 408 -666 418 -670C423 -672 426 -674 426 -676C426 -678 423 -680 418 -683ZM168 -697C196 -646 202 -607 202 -574C202 -547 207 -542 217 -542C229 -542 246 -566 246 -588C246 -592 246 -595 245 -598C240 -619 224 -650 176 -705ZM859 -582L833 -549H607L552 -594C554 -563 555 -518 555 -494V-411C555 -376 553 -324 552 -314C551 -306 551 -300 551 -295C551 -285 553 -281 559 -281C564 -281 571 -284 581 -288C598 -295 598 -299 598 -327H700V-12C700 3 695 12 667 12C647 12 615 7 565 -4L564 9C639 29 660 47 663 74C664 82 665 85 669 85C671 85 673 84 677 82C736 56 744 39 744 0V-327H849C849 -300 849 -298 855 -298C857 -298 898 -311 898 -331C898 -333 897 -335 897 -338C895 -353 892 -381 892 -406V-515L914 -531C918 -534 920 -537 920 -539C920 -542 918 -545 913 -548ZM598 -348V-528H849V-348ZM661 -837C690 -800 704 -758 707 -725C708 -707 713 -697 725 -697C740 -697 761 -714 761 -743C761 -770 747 -795 667 -845ZM901 -735L866 -683H572C549 -683 524 -685 499 -687L527 -651C544 -658 573 -662 594 -662H950C961 -662 966 -663 966 -667C966 -669 962 -674 956 -680ZM373 -181C412 -134 424 -105 431 -78C438 -52 441 -47 450 -47C463 -47 473 -67 473 -85C473 -124 409 -169 380 -189ZM792 -208C854 -143 880 -90 901 -17C907 4 917 9 924 9C938 9 953 -7 953 -33C953 -87 896 -140 799 -217ZM274 -166C307 -111 321 -77 321 -50C321 -20 328 -11 342 -11C355 -11 366 -30 366 -50C366 -83 326 -134 281 -174ZM583 -234C549 -152 490 -51 415 62L427 67C478 17 525 -48 603 -166C611 -178 628 -191 640 -195C648 -198 652 -201 652 -204C652 -207 648 -210 639 -213ZM177 -158C200 -108 205 -70 205 -19C205 -3 211 8 222 8C238 8 253 -9 253 -36C253 -71 224 -123 185 -164ZM105 -162C96 -74 87 -42 51 2C42 13 36 24 36 33C36 46 48 52 60 52C97 52 126 10 126 -72C126 -98 123 -128 119 -162Z"/>
</svg>