<svg xmlns="http://www.w3.org/2000/svg" viewBox="0 -1000 1000 1000">
	<path fill="#000000" d="M335 -513V-767H460V-513ZM532 -290L335 -277V-361H517C523 -361 526 -362 526 -365C526 -367 524 -370 521 -374L474 -426L439 -382H335V-492H460C460 -457 460 -453 468 -453C472 -453 478 -455 487 -459C503 -466 506 -470 506 -480V-487C504 -512 504 -542 504 -596V-758L525 -776C528 -779 530 -781 530 -783C530 -786 527 -789 523 -791L464 -821L445 -788H176L125 -832C127 -803 128 -765 128 -734V-558C128 -542 125 -466 125 -457C125 -450 126 -447 132 -447C135 -447 141 -448 149 -451C172 -459 172 -462 172 -492H291V-382H159C136 -382 111 -384 86 -386L114 -350C131 -357 160 -361 181 -361H291V-275L45 -259L69 -216C71 -213 72 -212 75 -212C76 -212 78 -213 81 -214C95 -221 114 -226 188 -234L532 -273ZM172 -513V-767H291V-513ZM186 -709C217 -655 227 -610 227 -581C227 -554 232 -549 242 -549C254 -549 268 -567 268 -590C268 -595 267 -599 266 -604C261 -625 244 -657 194 -717ZM887 -382L861 -345H676C697 -373 717 -403 738 -436C743 -444 749 -448 772 -456C777 -458 779 -459 779 -461C779 -463 777 -465 774 -467L724 -496C791 -549 851 -612 895 -677C903 -689 906 -692 934 -702C939 -704 941 -706 941 -709C941 -712 940 -714 936 -717L879 -759L853 -728H673C688 -747 703 -768 719 -789C726 -799 730 -801 754 -808C759 -810 761 -811 761 -813C761 -815 759 -817 756 -819L696 -854C653 -760 598 -675 511 -570L518 -562C552 -591 581 -619 608 -649C642 -629 662 -590 665 -563C667 -546 671 -543 682 -543C692 -543 703 -557 703 -579C703 -610 683 -632 618 -661C631 -676 643 -691 656 -707H857C789 -582 696 -495 525 -398L530 -387C595 -410 659 -446 718 -491C674 -407 606 -294 527 -192L534 -185C562 -209 587 -235 613 -264C650 -231 674 -182 676 -159C677 -143 681 -134 695 -134C710 -134 718 -156 718 -175C718 -212 669 -246 621 -273C635 -289 648 -306 661 -324H866C838 -256 762 -152 723 -118C624 -32 531 32 418 82L422 94C536 56 632 4 738 -84C800 -136 857 -209 907 -296C915 -310 920 -314 945 -324C949 -326 951 -327 951 -329C951 -331 949 -333 945 -336ZM411 -209C450 -162 470 -124 472 -88C474 -61 481 -53 492 -53C506 -53 521 -75 521 -97C521 -128 474 -176 418 -217ZM303 -196C330 -158 346 -116 346 -78C346 -51 353 -39 367 -39C380 -39 394 -60 394 -82C394 -122 324 -191 310 -204ZM195 -186C225 -132 230 -82 230 -48C230 -32 233 -22 246 -22C262 -22 276 -39 276 -65C276 -109 226 -167 201 -191ZM132 -190C123 -102 107 -74 65 -32C55 -22 50 -11 50 -2C50 13 66 19 74 19C85 19 96 11 111 -4C134 -29 145 -84 145 -145C145 -160 144 -175 143 -190ZM402 -718C387 -665 371 -620 342 -556L348 -546C408 -639 431 -670 445 -680C449 -683 450 -685 450 -687C450 -689 449 -691 446 -692Z"/>
</svg>