<svg xmlns="http://www.w3.org/2000/svg" viewBox="0 -1000 1000 1000">
	<path fill="#000000" d="M712 -679C757 -562 802 -503 891 -436C893 -434 895 -433 898 -433C900 -433 903 -435 905 -438C913 -449 923 -455 948 -455C956 -455 966 -454 977 -453V-465C866 -504 802 -554 736 -679H943C950 -679 954 -681 954 -685C954 -688 952 -692 946 -697L886 -754L853 -703H642C656 -726 670 -750 683 -775C692 -792 696 -795 709 -797C717 -798 721 -800 721 -803C721 -806 717 -810 710 -814L653 -850C631 -788 618 -757 590 -703H515C492 -703 457 -705 432 -707L460 -668C477 -675 516 -679 537 -679H578C524 -578 466 -501 385 -405L368 -423L342 -385H269V-490H363C363 -462 363 -459 370 -459C376 -459 410 -468 410 -485C410 -487 409 -490 409 -493C406 -518 405 -540 405 -573V-713C432 -728 435 -730 435 -734C435 -736 432 -740 426 -744L369 -785L346 -747H139L86 -787C88 -758 89 -719 89 -689V-552C89 -536 86 -453 86 -451C86 -443 87 -439 92 -439C96 -439 102 -441 110 -445C127 -452 130 -455 130 -468V-490H227V-385H152C129 -385 106 -387 81 -389L109 -352C126 -359 153 -363 174 -363H227V-258L42 -236L62 -189C65 -183 68 -180 72 -180C76 -180 81 -183 86 -187C98 -196 112 -201 142 -207L438 -266L439 -283L269 -263V-363H405C413 -363 417 -364 417 -367C417 -370 415 -372 397 -392C426 -420 459 -454 478 -475C479 -455 480 -433 480 -411V-233C480 -213 478 -124 478 -106C478 -100 480 -97 484 -97C496 -97 521 -110 521 -128V-150H633V-21C633 40 649 53 791 53C917 53 928 33 951 -6C953 -9 953 -11 953 -13C953 -15 952 -17 948 -19C926 -31 921 -46 919 -158H901C901 -12 894 8 795 8C677 8 676 -7 676 -33V-150H788C788 -125 788 -122 796 -122C800 -122 806 -124 814 -128C831 -137 835 -141 835 -152V-158C833 -187 832 -224 832 -268V-428C848 -434 855 -441 855 -447C855 -451 852 -454 847 -457L793 -489L775 -460H676V-514C699 -524 702 -525 702 -529C702 -531 699 -534 693 -537L630 -567C632 -532 633 -503 633 -460H522L487 -485C542 -547 581 -600 629 -679ZM269 -512V-725H363V-666L325 -689L280 -548L289 -543C346 -648 353 -656 363 -657V-512ZM227 -512H130V-725H227ZM633 -323H521V-440H633ZM676 -323V-440H788V-323ZM676 -300H788V-170H676ZM521 -300H633V-170H521ZM137 -670C166 -618 174 -595 174 -573C174 -553 181 -546 189 -546C201 -547 210 -560 210 -579C210 -605 196 -632 144 -678ZM263 -169C288 -118 296 -87 296 -49C296 -23 305 -19 319 -19C331 -19 343 -32 343 -59C343 -81 331 -113 271 -176ZM344 -183C379 -142 393 -116 400 -75C405 -47 411 -43 421 -43C435 -43 445 -59 445 -81C445 -133 398 -163 352 -192ZM113 -142C101 -61 86 -36 56 -9C44 1 41 11 41 19C41 32 52 43 68 43C80 43 94 37 108 22C123 5 130 -21 130 -64C130 -86 128 -111 125 -142ZM177 -155C190 -115 197 -83 197 -51C197 -45 194 -20 194 -14C194 2 201 8 210 8C226 8 243 -10 243 -33C243 -64 231 -102 186 -160Z"/>
</svg>