<svg xmlns="http://www.w3.org/2000/svg" viewBox="0 -1000 1000 1000">
	<path fill="#000000" d="M924 -195L901 -58C898 -40 894 -32 888 -32C883 -32 876 -37 866 -46C787 -117 734 -208 713 -352H931C943 -352 949 -354 949 -357C949 -360 945 -365 938 -371L868 -433L827 -374H710C701 -444 699 -502 699 -570H809V-537C809 -526 810 -521 815 -521C821 -521 858 -536 858 -557V-563C855 -594 855 -622 855 -658V-745L882 -763C887 -766 890 -770 890 -773C890 -777 887 -780 881 -785L824 -828L796 -782H519L465 -826C467 -803 467 -753 467 -698V-76C467 -29 460 -18 422 3L468 48C472 52 475 54 477 54C480 54 482 51 486 46C508 13 554 -30 675 -120L668 -132L512 -40V-352H670C714 -40 924 62 954 62C961 62 968 59 968 53C968 47 964 37 953 24C941 9 934 -30 934 -86C934 -117 936 -153 940 -193ZM512 -592V-760H809V-592ZM512 -374V-570H653C655 -506 659 -446 668 -374ZM325 -633C327 -598 329 -535 329 -496V-175L254 -159V-779C277 -795 286 -800 286 -803C286 -806 282 -808 274 -812L205 -846C207 -809 209 -741 209 -700V-149L133 -132V-569C157 -586 160 -588 160 -592C160 -595 157 -597 151 -600L86 -636C88 -599 90 -547 90 -490V-155C90 -128 79 -116 52 -107L92 -66C95 -62 98 -60 101 -60C105 -60 109 -64 115 -71C129 -87 197 -119 329 -160V-92C329 -83 330 -78 335 -78C337 -78 376 -96 376 -113V-117C373 -158 372 -216 372 -287V-572L389 -583C395 -587 398 -590 398 -593C398 -596 394 -599 386 -603Z"/>
</svg>