<svg xmlns="http://www.w3.org/2000/svg" viewBox="0 -1000 1000 1000">
	<path fill="#000000" d="M275 -488V-737H385V-488ZM82 -799C84 -770 85 -731 85 -701V-528C85 -512 82 -429 82 -427C82 -419 83 -415 88 -415C92 -415 98 -417 106 -421C124 -429 126 -432 126 -444V-466H233V-346H150C127 -346 102 -348 77 -350L105 -313C122 -320 151 -324 172 -324H233V-221L40 -210L66 -175C70 -169 73 -166 77 -166C79 -166 83 -168 88 -171C97 -176 120 -182 132 -183L433 -216L434 -233L275 -224V-324H420C428 -324 432 -325 432 -328C432 -330 429 -335 423 -341L383 -384L357 -346H275V-466H385C385 -429 385 -425 392 -425C398 -425 432 -434 432 -451C432 -453 431 -456 431 -459C428 -484 427 -516 427 -549V-725L448 -739C454 -742 457 -745 457 -748C457 -750 454 -754 448 -758L391 -797L368 -759H136ZM233 -488H126V-737H233ZM141 -662C170 -618 178 -593 178 -565C178 -549 183 -538 193 -538C205 -539 214 -552 214 -571C214 -597 200 -624 148 -670ZM780 -518V-414H585V-518ZM540 -273H482C446 -273 424 -274 402 -276L438 -243C449 -248 463 -250 490 -251V-10L455 19L509 53C511 54 513 55 515 55C518 55 521 53 524 49L542 25H923C930 25 933 24 933 22C933 20 931 17 927 13L867 -44L833 3H535V-251H959C966 -251 969 -252 969 -255C969 -257 967 -259 963 -263L905 -318L875 -273H826V-645H937C947 -645 951 -646 951 -649C951 -650 949 -653 946 -656L889 -714L855 -667H826V-762L851 -778C855 -780 857 -782 857 -784C857 -786 855 -788 850 -790L777 -827C779 -790 780 -736 780 -667H585V-762L609 -778C613 -780 615 -782 615 -784C615 -786 613 -788 608 -791L537 -830C539 -799 540 -738 540 -667H500C475 -667 452 -668 433 -670L471 -638C484 -644 503 -645 540 -645ZM780 -392V-273H585V-392ZM780 -540H585V-645H780ZM260 -144C283 -101 293 -58 293 -20C293 6 298 10 312 10C324 10 336 -3 336 -30C336 -52 315 -100 268 -151ZM341 -161C376 -120 388 -88 395 -47C400 -19 406 -15 416 -15C429 -15 439 -29 439 -49C439 -88 409 -121 347 -170ZM110 -145C104 -74 81 -27 53 -2C39 11 33 22 33 29C33 35 42 46 55 46C64 46 125 36 125 -88C125 -107 124 -126 120 -145ZM174 -138C185 -104 190 -78 190 -49C190 -40 185 1 185 10C185 24 190 29 199 29C215 29 232 11 232 -12C232 -49 220 -87 181 -143ZM335 -681L290 -540L299 -535C356 -638 361 -645 368 -647C373 -648 375 -650 375 -653C375 -655 373 -658 367 -662ZM646 -217C626 -162 578 -73 545 -28L554 -21C661 -154 679 -171 693 -173C700 -175 704 -177 704 -180C704 -182 701 -185 696 -188ZM737 -207C786 -161 805 -120 811 -80C813 -65 818 -53 830 -53C845 -53 859 -75 859 -98C859 -103 859 -109 857 -114C848 -141 813 -176 744 -216Z"/>
</svg>