<svg xmlns="http://www.w3.org/2000/svg" viewBox="0 -1000 1000 1000">
	<path fill="#000000" d="M296 -696C351 -654 372 -603 386 -557C390 -545 396 -541 405 -541C421 -541 443 -559 443 -588C443 -621 407 -660 302 -708ZM694 -571L645 -516H518C598 -622 645 -671 665 -675C675 -677 680 -679 680 -682C680 -684 675 -688 666 -694L611 -729C591 -685 539 -591 492 -516H263C240 -516 215 -518 190 -520L218 -483C235 -490 264 -494 285 -494H465C466 -472 467 -457 467 -438V-148H340V-344C372 -365 373 -366 373 -369C373 -372 369 -374 362 -378L293 -413C295 -384 296 -367 296 -344V-171L248 -136L316 -93C318 -91 320 -91 322 -91C325 -91 327 -92 330 -96L352 -126H656V-80C656 -71 657 -67 662 -67C663 -67 702 -78 702 -95C702 -109 700 -132 700 -146V-343C729 -360 733 -361 733 -365C733 -368 729 -371 722 -375L653 -414C655 -382 656 -365 656 -338V-148H511V-435C545 -451 546 -452 546 -454C546 -457 541 -460 533 -465L485 -494H748C758 -494 763 -495 763 -498C763 -501 759 -506 751 -514ZM836 -816L802 -770H193L127 -831C129 -794 131 -726 131 -685V-161C131 -104 130 -14 128 45V56C128 71 129 77 136 77C140 77 146 75 155 71C176 62 180 58 180 44V37C177 -8 176 -83 176 -159V-748H819V-34C819 -10 817 1 780 1C757 1 719 -3 660 -11L657 7C762 28 777 41 788 79C790 85 791 88 795 88C797 88 800 87 804 85C862 58 864 48 864 -30V-730L896 -749C903 -753 907 -756 907 -759C907 -762 903 -765 896 -771Z"/>
</svg>