<svg xmlns="http://www.w3.org/2000/svg" viewBox="0 -1000 1000 1000">
	<path fill="#000000" d="M136 -296C138 -271 139 -254 139 -230V-192C139 -181 135 -131 135 -121C135 -113 137 -109 142 -109C147 -109 154 -111 164 -116C179 -122 182 -126 183 -143H418C418 -128 418 -124 425 -124C432 -124 464 -130 464 -142C464 -145 462 -189 462 -198V-235C485 -249 488 -250 488 -254C488 -257 486 -259 482 -262L433 -293L413 -263H187ZM183 -165V-241H418V-165ZM885 -239C889 -241 891 -243 891 -245C891 -248 889 -250 885 -253L833 -293L813 -263H725V-374H932C941 -374 945 -375 945 -378C945 -381 942 -384 938 -389L893 -437L859 -395H725V-456C749 -471 752 -472 752 -475C752 -478 749 -480 743 -482L703 -498C712 -504 714 -507 714 -513V-519C712 -537 711 -569 711 -592H919C927 -592 932 -594 932 -597C932 -600 929 -604 923 -610L872 -666L830 -614H711V-644C736 -655 739 -657 739 -660C739 -663 737 -665 733 -667L665 -708C667 -674 667 -648 667 -614H309C310 -623 310 -633 309 -641C332 -659 334 -661 334 -664C334 -667 331 -669 325 -672L265 -698C266 -662 265 -640 263 -614H120C97 -614 72 -616 47 -618L75 -581C92 -588 121 -592 142 -592H261C252 -531 221 -497 143 -465L148 -451C242 -480 296 -526 306 -592H667C667 -577 665 -509 665 -495C665 -487 667 -483 671 -483C673 -483 676 -484 679 -485C680 -446 681 -425 681 -395H575C553 -395 528 -397 505 -399L532 -364C548 -370 576 -374 597 -374H681V-263H592C569 -263 545 -265 520 -267L548 -230C556 -234 567 -237 579 -239C604 -166 628 -118 672 -73C613 -28 535 15 427 61L431 72C533 47 626 7 700 -47C777 16 888 47 892 47C895 47 897 45 898 41C902 26 927 3 973 2L974 -11C872 -17 798 -38 735 -76C786 -118 824 -166 854 -223ZM814 -241C787 -187 750 -138 703 -98C655 -135 621 -183 595 -240C602 -241 609 -241 615 -241ZM51 4L84 55C86 58 87 59 89 59C91 59 93 58 95 56C103 47 126 38 201 24L494 -28V-45L363 -31C400 -77 417 -88 431 -91C435 -92 437 -94 437 -97C437 -99 435 -102 431 -104L377 -130C367 -86 358 -61 342 -28ZM522 -777C533 -785 552 -799 552 -802C552 -804 549 -806 543 -809L475 -843C477 -811 477 -794 477 -753H241C218 -753 193 -755 168 -757L196 -720C213 -727 242 -731 263 -731H477C477 -687 477 -669 475 -647V-641C475 -633 477 -630 482 -630C485 -630 524 -643 524 -655C523 -672 522 -692 522 -731H809C818 -731 822 -733 822 -736C822 -740 819 -744 812 -750L761 -800L726 -753H522ZM197 -120C222 -96 233 -67 233 -50C233 -27 238 -23 251 -23C266 -23 275 -40 275 -56C275 -90 252 -105 203 -129ZM283 -337H169C146 -337 121 -338 99 -341L126 -306C141 -312 170 -316 190 -316H475C482 -316 486 -317 486 -320C486 -323 484 -326 480 -330L435 -373L401 -337H327V-407H493C499 -407 502 -409 502 -412C502 -414 500 -418 496 -422L454 -465L423 -428H327V-465C352 -483 355 -485 355 -489C355 -492 351 -494 345 -496L280 -516C283 -473 283 -456 283 -428H131C109 -428 84 -429 61 -432L88 -397C103 -403 132 -407 152 -407H283Z"/>
</svg>