<svg xmlns="http://www.w3.org/2000/svg" viewBox="0 -1000 1000 1000">
	<path fill="#000000" d="M369 -102L282 -31V-389C301 -402 303 -403 303 -406C303 -408 300 -410 296 -412L240 -442C241 -415 242 -378 242 -342V-26C242 -7 239 -1 216 18L257 56C259 57 260 58 262 58C264 58 266 57 267 53C275 35 290 11 306 -8L377 -93ZM162 -236C178 -199 184 -170 184 -144C184 -113 184 -109 199 -109C212 -109 221 -120 221 -146C221 -168 218 -179 168 -242ZM166 -408C177 -383 182 -358 182 -326C182 -322 181 -302 181 -297C181 -287 187 -279 195 -279C208 -279 217 -295 217 -314C217 -318 217 -322 216 -326C210 -357 197 -383 172 -413ZM409 75C523 29 604 -18 693 -123C751 -50 806 0 871 33C873 34 875 35 877 35C880 35 883 33 886 29C900 10 930 1 979 1V-15C880 -23 816 -50 722 -159C791 -254 824 -371 838 -602H961C971 -602 975 -603 975 -607C975 -610 972 -615 965 -623L910 -684L866 -623H523C500 -623 475 -624 450 -627L478 -591C495 -598 526 -603 549 -602C552 -422 599 -253 669 -155C599 -60 517 -2 406 60ZM787 -602C787 -409 758 -291 695 -192C630 -277 582 -436 575 -602ZM215 -85L133 -24V-365C157 -379 159 -380 159 -384C159 -386 157 -388 152 -390L90 -418C92 -375 92 -352 92 -327V-34C92 -12 83 6 62 24L99 61C101 63 103 64 104 64C107 64 108 62 110 58C116 42 133 20 157 -6L223 -77ZM485 -237L457 -138C454 -129 451 -125 449 -125C439 -125 427 -200 427 -290C427 -315 428 -344 429 -379C451 -393 454 -395 454 -399C454 -401 452 -403 448 -405L390 -431C389 -402 389 -376 389 -351C389 -149 411 -66 460 -13C471 -1 478 3 483 3C486 3 496 -1 496 -9C496 -14 494 -21 490 -32C486 -43 483 -57 483 -79C483 -109 488 -156 500 -236ZM303 -238C323 -202 328 -177 328 -139C328 -121 331 -117 341 -117C355 -117 366 -134 366 -155C366 -175 356 -201 311 -245ZM585 -817C636 -774 659 -740 664 -696C668 -663 675 -647 689 -647C711 -647 724 -665 724 -695C724 -747 705 -780 591 -829ZM310 -400C327 -359 331 -330 331 -289C331 -272 334 -268 345 -268C358 -268 368 -285 368 -319C368 -336 351 -367 317 -405ZM89 -781C91 -749 93 -690 93 -655V-547C93 -535 90 -467 90 -452C90 -440 92 -435 98 -435C102 -435 108 -437 116 -441C132 -448 134 -452 134 -476H392C392 -445 392 -441 398 -441C401 -441 407 -443 416 -447C434 -455 438 -458 438 -471V-477C435 -518 434 -552 434 -603V-718C457 -736 460 -738 460 -741C460 -743 458 -746 454 -748L401 -782L381 -747H337C319 -747 299 -749 279 -751L301 -718C315 -724 338 -727 355 -727H392V-623H343C325 -623 305 -624 285 -627L307 -594C321 -600 344 -603 361 -603H392V-496H134V-597H254C259 -597 262 -598 262 -601C262 -603 261 -606 258 -609L217 -655L185 -617H134V-722C212 -764 235 -773 256 -773C266 -773 271 -773 271 -776C271 -778 270 -780 268 -782L225 -824C202 -797 173 -768 139 -744Z"/>
</svg>