<svg xmlns="http://www.w3.org/2000/svg" viewBox="0 -1000 1000 1000">
	<path fill="#000000" d="M357 -97L270 -26V-397C289 -410 291 -411 291 -414C291 -416 289 -417 284 -420L228 -450C229 -423 230 -386 230 -350V-21C230 -2 227 4 204 23L245 61C247 63 248 63 250 63C252 63 254 62 255 58C263 40 278 16 294 -3L365 -88ZM283 -249C303 -213 308 -188 308 -150C308 -138 309 -128 321 -128C337 -128 346 -149 346 -168C346 -190 330 -218 291 -256ZM159 -416C170 -391 175 -366 175 -334C175 -330 174 -309 174 -305C174 -295 180 -287 186 -287C199 -287 210 -307 210 -326C210 -327 210 -367 165 -421ZM290 -423C307 -382 311 -353 311 -312C311 -300 318 -291 325 -291C338 -291 348 -308 348 -342C348 -359 331 -390 297 -428ZM152 -244C169 -205 177 -175 177 -149C177 -126 177 -117 192 -117C206 -117 213 -133 213 -166C213 -175 191 -209 158 -250ZM822 -426C804 -321 784 -254 739 -175C719 -214 679 -302 645 -426ZM455 83C525 -24 578 -158 611 -426H625C641 -334 684 -211 717 -138C665 -57 610 1 498 75L500 89C605 38 673 -21 738 -102C802 -1 878 53 885 53C889 53 892 50 895 45C902 34 923 25 978 26L979 13C892 -7 812 -75 764 -137C798 -187 836 -270 867 -387C872 -405 882 -414 897 -419C907 -423 912 -425 912 -429C912 -432 907 -436 898 -443L841 -484L816 -447H613C619 -495 624 -542 629 -595H947C957 -595 962 -596 962 -600C962 -603 958 -608 952 -616L903 -674L853 -616H631C635 -655 639 -696 643 -743C645 -761 652 -771 664 -776C675 -781 681 -784 681 -788C681 -791 676 -794 667 -799L596 -837C595 -771 592 -711 585 -616H515C492 -616 467 -618 442 -620L470 -584C487 -591 507 -595 550 -595H584C559 -271 529 -136 483 -20C479 -34 477 -47 477 -67C477 -95 481 -135 492 -207L477 -208L449 -109C446 -100 444 -96 441 -96C434 -96 408 -170 408 -321C408 -342 408 -365 409 -390C431 -404 434 -406 434 -410C434 -412 432 -414 428 -416L370 -439C369 -412 369 -388 369 -364C369 -131 400 -49 452 -3C460 4 465 8 470 10C461 31 451 52 441 73ZM207 -86L125 -25V-373C149 -387 152 -388 152 -391C152 -394 149 -396 144 -398L82 -426C84 -383 84 -360 84 -335V-35C84 -13 77 3 54 23L91 60C93 62 95 63 97 63C99 63 100 61 102 57C108 41 125 19 149 -7L215 -78ZM87 -781C89 -749 91 -690 91 -655V-547C91 -535 88 -467 88 -452C88 -440 90 -435 96 -435C100 -435 106 -437 114 -441C130 -448 132 -452 132 -473H390C390 -445 390 -442 397 -442C407 -442 436 -452 436 -473V-477C433 -518 432 -552 432 -603V-728C455 -746 458 -748 458 -751C458 -753 456 -756 452 -758L399 -792L379 -757H327C309 -757 289 -759 269 -761L291 -728C305 -734 328 -737 345 -737H390V-622H312C294 -622 274 -624 254 -626L276 -593C290 -599 313 -602 330 -602H390V-493H132V-600H234C239 -600 242 -601 242 -604C242 -606 241 -609 238 -612L197 -658L165 -620H132V-724C208 -765 234 -775 263 -775C276 -775 278 -775 278 -778C278 -780 277 -782 275 -784L232 -826C209 -799 173 -769 137 -745ZM703 -787C751 -750 779 -711 785 -678C788 -660 795 -650 809 -650C824 -650 837 -669 837 -692C837 -728 812 -755 711 -797Z"/>
</svg>