<svg xmlns="http://www.w3.org/2000/svg" viewBox="0 -1000 1000 1000">
	<path fill="#000000" d="M348 -93L261 -22V-382C280 -395 282 -396 282 -399C282 -401 280 -402 275 -405L219 -435C220 -408 221 -371 221 -335V-17C221 2 218 8 195 27L236 65C238 67 240 68 241 68C243 68 244 66 246 62C254 44 269 20 285 1L356 -84ZM140 -232C156 -195 162 -166 162 -140C162 -113 162 -105 177 -105C191 -105 198 -121 198 -154C198 -163 179 -197 146 -238ZM283 -234C303 -198 308 -173 308 -135C308 -123 309 -113 321 -113C337 -113 346 -134 346 -153C346 -175 330 -203 291 -241ZM143 -401C154 -376 159 -351 159 -319C159 -315 158 -294 158 -290C158 -280 164 -272 170 -272C183 -272 194 -292 194 -311C194 -312 194 -352 149 -406ZM288 -408C305 -367 309 -338 309 -297C309 -285 316 -273 323 -273C336 -273 346 -293 346 -327C346 -344 329 -375 295 -413ZM196 -78L114 -17V-358C138 -372 141 -373 141 -376C141 -379 138 -381 133 -383L71 -411C73 -368 73 -345 73 -320V-27C73 -5 66 11 43 31L80 68C82 70 84 71 86 71C88 71 89 69 91 65C97 49 114 27 138 1L204 -70ZM76 -766C78 -734 80 -675 80 -640V-532C80 -520 77 -452 77 -437C77 -425 79 -420 85 -420C89 -420 95 -422 103 -426C119 -433 121 -437 121 -458H389C389 -430 389 -427 396 -427C399 -427 405 -428 413 -432C432 -440 435 -443 435 -455V-462C432 -503 431 -537 431 -588V-713C454 -731 457 -733 457 -736C457 -738 455 -741 451 -743L398 -777L378 -742H331C313 -742 293 -744 273 -746L295 -713C309 -719 332 -722 349 -722H389V-597H319C301 -597 281 -599 261 -601L283 -568C297 -574 320 -577 337 -577H389V-478H121V-577H253C258 -577 261 -578 261 -581C261 -583 260 -586 257 -589L216 -635L184 -597H121V-707C197 -748 223 -758 252 -758C265 -758 267 -758 267 -761C267 -763 266 -765 264 -767L221 -809C199 -783 163 -752 127 -729ZM466 -180L438 -81C435 -71 432 -66 430 -66C421 -66 397 -168 397 -308C397 -326 397 -345 398 -364C420 -378 423 -380 423 -384C423 -386 421 -388 417 -390L359 -416C358 -389 358 -364 358 -341C358 -104 389 -2 441 44C453 55 460 59 465 59C474 59 475 51 475 46C475 41 474 33 471 25C466 12 464 -2 464 -23C464 -53 469 -99 481 -179ZM528 -246C580 -196 597 -154 602 -126C605 -110 613 -98 624 -98C641 -98 657 -114 657 -139C657 -175 626 -211 534 -255ZM975 -289C981 -289 984 -290 984 -292C984 -294 982 -296 978 -300L912 -366L874 -311H789V-398C800 -406 818 -419 818 -422C818 -424 815 -426 810 -428L740 -458C742 -424 744 -386 744 -347V-311H512C489 -311 463 -313 439 -315L467 -279C483 -285 513 -289 534 -289H744V-35C744 -8 743 3 709 3C687 3 649 -2 586 -12L584 1C677 23 694 41 702 73C703 79 706 82 709 82C711 82 713 81 715 80C786 49 789 40 789 -8V-289ZM653 -487H524C501 -487 475 -489 451 -491L479 -455C495 -461 525 -465 546 -465H941C947 -465 950 -466 950 -468C950 -470 948 -473 944 -477L882 -539L844 -487H697V-644H868C874 -644 877 -645 877 -647C877 -649 875 -651 872 -654L807 -720L766 -666H697V-756L725 -774C732 -778 735 -781 735 -783C735 -786 732 -788 726 -790L650 -828C652 -793 653 -772 653 -733V-666H566C544 -666 519 -668 496 -670L523 -634C538 -640 567 -644 587 -644H653Z"/>
</svg>