<svg xmlns="http://www.w3.org/2000/svg" viewBox="0 -1000 1000 1000">
	<path fill="#000000" d="M97 -481C98 -452 99 -425 99 -395V-277C99 -268 97 -230 97 -222C97 -216 99 -213 104 -213C107 -213 113 -215 121 -218C138 -225 138 -226 138 -251H374C374 -226 374 -221 381 -221C389 -221 414 -231 414 -250C414 -259 413 -300 413 -308V-417C434 -435 436 -436 436 -440C436 -442 435 -444 432 -446L384 -475L367 -451H140ZM240 -270H138V-341H240ZM138 -432H240V-358H138ZM279 -432H374V-358H279ZM374 -270H279V-341H374ZM344 -605H181V-661H344ZM179 -760L138 -797C140 -767 141 -737 141 -701V-575C141 -560 136 -487 136 -482C136 -477 138 -474 143 -474C157 -474 181 -482 181 -502V-507H344C344 -482 344 -479 350 -479C354 -479 360 -481 370 -485C385 -491 389 -494 389 -505C389 -518 384 -576 384 -589V-728C408 -744 410 -746 410 -749C410 -751 408 -753 404 -756L357 -791L333 -760H245L268 -788C283 -807 294 -812 303 -812C310 -812 313 -815 313 -818C313 -821 312 -823 308 -825L262 -847C253 -819 242 -793 225 -760ZM181 -526V-586H344V-526ZM181 -741H344V-680H181ZM696 -600H817C817 -585 817 -579 825 -579C834 -579 853 -585 853 -595C853 -605 852 -649 852 -658C861 -664 876 -674 876 -676C876 -677 875 -679 872 -681L828 -713L810 -685H696V-733H926C934 -733 938 -735 938 -738C938 -741 936 -745 932 -749L878 -800L845 -751H696V-803C721 -818 724 -820 724 -822C724 -824 721 -826 717 -828L656 -855C657 -830 658 -783 658 -751H514C492 -751 469 -753 445 -755L479 -722C494 -730 524 -733 544 -733H658V-685H558L511 -716C514 -688 514 -677 514 -636C514 -620 511 -595 511 -579C511 -575 513 -574 516 -574C518 -574 522 -575 527 -577C546 -586 549 -590 549 -600H658V-551H472C472 -560 471 -570 470 -581L462 -582C452 -534 441 -518 421 -499C412 -490 407 -483 407 -477C407 -468 419 -460 429 -460C431 -460 469 -460 472 -534H908L885 -494L896 -487C923 -516 944 -524 960 -526C966 -527 969 -528 969 -531C969 -533 966 -535 962 -539L924 -575L902 -551H696ZM658 -615H549V-670H658ZM696 -615V-670H817V-615ZM632 -248V-309H734V-248ZM632 -172V-231H734V-172ZM944 -154C951 -154 954 -156 954 -159C954 -162 952 -165 947 -170L906 -209L873 -172H770V-231H885C896 -231 900 -232 900 -235C900 -238 897 -241 892 -246L854 -282L825 -248H770V-309H911C921 -309 926 -311 926 -314C926 -317 923 -320 918 -325L878 -364L846 -327H770V-351C785 -360 787 -361 787 -364C787 -366 784 -368 778 -370L732 -388C733 -370 734 -356 734 -327H632V-358C647 -368 649 -369 649 -371C649 -373 646 -374 642 -376L593 -395C594 -377 595 -357 595 -327H527C504 -327 483 -329 459 -331L492 -298C510 -305 530 -309 555 -309H595V-248H560C538 -248 507 -249 480 -253L513 -220C539 -231 578 -231 595 -231V-172H515C493 -172 468 -174 444 -176L468 -144C496 -152 514 -154 537 -154H615C566 -92 503 -35 390 31L392 42C450 24 518 -18 572 -62V0C572 18 568 26 543 37L578 73C580 75 582 76 584 76C586 76 587 75 589 72C603 49 620 37 728 -21L724 -30L607 11V-93C622 -106 654 -140 666 -154H692C733 -57 780 5 883 60C885 61 886 61 888 61C891 61 893 60 895 58C914 34 931 28 977 27V17C881 5 829 -11 784 -54C843 -93 864 -98 882 -99C887 -99 890 -101 890 -104C890 -106 888 -108 885 -111L844 -144C824 -119 802 -95 772 -65C756 -83 730 -117 706 -154ZM707 -514C709 -488 709 -477 709 -420C709 -415 707 -392 707 -387C707 -384 708 -382 712 -382C719 -382 737 -388 740 -397H825C825 -384 825 -377 833 -377C841 -377 860 -383 860 -392C860 -403 859 -449 859 -458C862 -460 882 -473 882 -474C882 -475 880 -477 878 -478L833 -510L817 -489H755ZM741 -412V-475H825V-412ZM499 -517C500 -491 500 -474 500 -450V-418C500 -398 500 -382 499 -373C498 -371 498 -369 498 -368C498 -365 499 -364 502 -364C504 -364 508 -365 512 -367C532 -376 532 -378 532 -398H623C623 -390 625 -386 632 -386C641 -386 658 -391 658 -400C658 -410 657 -456 657 -465C670 -479 672 -481 672 -483C672 -485 671 -486 670 -487L638 -514L622 -490H538ZM532 -413V-476H623V-413ZM298 -38C298 5 297 29 296 64C296 74 297 78 303 78C307 78 313 76 322 73C339 67 343 64 343 52V48C341 14 340 -11 340 -46V-153H439C445 -153 448 -154 448 -157C448 -159 447 -162 443 -166L409 -208L373 -171H122C99 -171 74 -173 49 -175L77 -142C94 -149 123 -153 144 -153H174C167 -31 138 8 30 71L31 82C176 22 201 -18 217 -153H298Z"/>
</svg>