<svg xmlns="http://www.w3.org/2000/svg" viewBox="0 -1000 1000 1000">
	<path fill="#000000" d="M133 -489C156 -507 159 -509 159 -513C159 -516 155 -518 148 -521L93 -545C95 -508 97 -440 97 -399V-75C97 -39 86 -29 56 -19L98 33C101 36 103 37 106 37C108 37 111 36 113 33C131 13 160 5 451 -58C451 -33 451 -33 450 -9V1C450 15 451 20 457 20C460 20 464 18 471 15C488 7 491 3 491 -12V-19C489 -53 488 -67 488 -166V-483C518 -498 518 -498 518 -502C518 -504 515 -507 507 -511L447 -544C449 -504 451 -441 451 -380V-322H133ZM451 -75L133 -31V-300H451ZM219 -289C201 -219 172 -147 139 -82L150 -73C185 -121 196 -138 226 -201C241 -186 250 -168 254 -149C258 -127 261 -123 269 -123C281 -123 293 -136 293 -155C293 -173 275 -190 232 -213C234 -216 236 -220 238 -224C246 -241 249 -245 261 -250C268 -253 272 -255 272 -258C272 -260 269 -262 264 -264ZM351 -293C333 -223 301 -138 272 -81L284 -74C306 -101 328 -134 352 -184C376 -163 389 -135 393 -116C397 -93 405 -90 412 -90C423 -90 435 -107 435 -125C435 -151 409 -174 358 -198C362 -206 366 -215 370 -224C377 -241 382 -245 393 -249C402 -252 406 -255 406 -257C406 -259 403 -262 397 -265ZM225 -556C204 -483 170 -391 147 -344L158 -337C172 -355 199 -400 230 -464C243 -448 251 -425 252 -414C254 -391 260 -388 267 -388C277 -388 293 -399 293 -417C293 -433 281 -450 237 -478C240 -483 242 -488 245 -494C252 -509 256 -513 267 -519C274 -523 278 -525 278 -528C278 -530 275 -532 270 -534ZM357 -556C342 -492 304 -402 274 -350L288 -342C309 -369 331 -400 352 -441C370 -423 381 -404 385 -389C391 -367 396 -362 404 -362C419 -362 429 -374 429 -392C429 -407 410 -433 360 -457C366 -468 371 -479 377 -491C384 -506 388 -511 396 -514C405 -518 408 -520 408 -523C408 -525 406 -527 401 -530ZM333 -779L363 -798C367 -801 370 -803 370 -805C370 -808 366 -811 358 -814L292 -845C294 -803 295 -760 295 -725V-586H180V-708L204 -726C210 -730 212 -733 212 -736C212 -739 210 -741 204 -743L139 -770C141 -736 142 -707 142 -657V-586H94C71 -586 46 -587 21 -590L49 -553C66 -560 95 -564 116 -564H549C558 -564 563 -565 563 -568C563 -570 559 -574 552 -581L501 -629L471 -586H333V-687H502C511 -687 516 -688 516 -691C516 -693 512 -698 506 -704L458 -752L423 -709H333ZM804 -438H603L644 -585L671 -597C676 -599 678 -601 678 -604C678 -606 676 -609 671 -611L612 -643C608 -622 603 -596 596 -563L561 -441L531 -417L578 -386C581 -384 584 -383 587 -383C590 -383 592 -384 594 -388L605 -416H736C667 -230 619 -143 490 21L500 31C643 -119 704 -209 788 -416H804V-23C804 -10 799 -1 765 -1C743 -1 708 -5 654 -15L652 -1C749 28 762 40 768 67C769 72 772 75 775 75C777 75 779 74 782 73C843 43 845 35 845 -28V-416H973C983 -416 988 -418 988 -422C988 -426 985 -431 978 -437L919 -492L889 -438H845V-725H960C969 -725 973 -727 973 -732C973 -735 970 -741 963 -747L905 -799L869 -747H593C570 -747 545 -749 520 -751L548 -714C565 -721 594 -725 615 -725H804Z"/>
</svg>