<svg xmlns="http://www.w3.org/2000/svg" viewBox="0 -1000 1000 1000">
	<path fill="#000000" d="M906 -384L867 -331H630V-541H884C894 -541 899 -542 899 -546C899 -549 895 -555 888 -563L836 -619L795 -563H286V-711C486 -727 656 -745 725 -755C745 -758 760 -759 773 -759C792 -759 806 -756 823 -750C829 -748 833 -747 836 -747C839 -747 840 -748 840 -750C840 -753 838 -757 834 -764L797 -823C685 -793 548 -765 302 -731L236 -784C238 -747 240 -679 240 -638V-331H105C82 -331 57 -333 32 -335L60 -298C77 -305 106 -309 127 -309H957C967 -309 973 -311 973 -315C973 -318 969 -324 961 -331ZM775 -239C777 -207 778 -190 778 -163V-1H532V-236C564 -257 568 -259 568 -262C568 -265 563 -268 555 -272L483 -302C485 -273 486 -256 486 -233V-1H238V-176L261 -190C268 -194 272 -197 272 -200C272 -203 268 -207 260 -210L190 -244C192 -215 193 -198 193 -175V-16L152 9L213 58C215 59 216 60 218 60C220 60 223 59 226 55L257 21H778V67C778 73 779 76 783 76C788 76 826 65 826 54C826 39 824 16 824 1V-169L848 -184C854 -188 858 -191 858 -193C858 -196 854 -198 847 -202ZM286 -331V-541H584V-331Z"/>
</svg>