<svg xmlns="http://www.w3.org/2000/svg" viewBox="0 -1000 1000 1000">
	<path fill="#000000" d="M131 -459C155 -475 158 -477 158 -481C158 -484 155 -487 149 -490L90 -522C92 -485 93 -426 93 -376V-54C93 -25 83 -11 55 0L89 51C90 53 92 54 94 54C96 54 99 53 104 50C131 35 166 21 425 -25C425 -12 423 47 423 59C423 70 424 75 428 75C432 75 436 72 443 68C463 55 467 51 467 39V34C465 -5 464 -43 464 -135V-451C490 -469 493 -471 493 -475C493 -478 490 -480 484 -483L421 -514C423 -475 425 -413 425 -350V-307H131ZM425 -42L131 -9V-285H425ZM333 -548C318 -486 278 -384 254 -335L262 -326C284 -358 296 -379 330 -440C343 -418 354 -390 354 -376C354 -351 358 -346 372 -346C384 -346 392 -360 392 -379C392 -396 381 -418 339 -456C344 -464 349 -473 354 -483C361 -498 366 -502 375 -505C385 -508 389 -511 389 -514C389 -517 386 -520 379 -523ZM806 -232H714V-506H806ZM848 -747L879 -765C883 -767 886 -769 886 -771C886 -774 883 -776 878 -779L802 -823C804 -786 806 -718 806 -677V-528H714V-754C718 -757 744 -775 744 -777C744 -779 741 -781 737 -783L670 -824C672 -787 673 -711 673 -670V-528H593V-702L619 -719C624 -723 626 -725 626 -727C626 -730 624 -732 620 -734L551 -777C553 -740 554 -665 554 -624V-528H513C489 -528 464 -529 438 -532L467 -495C494 -506 530 -506 554 -506V-29L524 -4L575 38C579 41 581 42 584 42C587 42 589 40 592 36L614 7H933C942 7 947 5 947 0C947 -3 944 -8 938 -13L874 -72L835 -18H593V-506H673V-357C673 -222 673 -163 671 -131V-118C671 -106 672 -101 678 -101C682 -101 688 -104 696 -108C711 -116 714 -120 714 -133V-209H806V-138C806 -126 808 -120 813 -120C817 -120 824 -124 834 -131C848 -140 851 -144 851 -157V-165C849 -196 848 -235 848 -365V-506H966C976 -506 981 -508 981 -511C981 -515 978 -519 971 -526L915 -585L885 -528H848ZM325 -273C308 -196 284 -123 251 -51L264 -44C282 -74 312 -131 328 -168C341 -158 349 -145 359 -114C366 -93 369 -87 378 -87C389 -87 399 -101 399 -117C399 -134 383 -161 336 -187C354 -228 358 -236 369 -240C374 -242 377 -245 377 -248C377 -251 374 -253 368 -256ZM200 -275C183 -205 163 -141 137 -71L149 -62C165 -90 185 -130 206 -179C213 -168 217 -154 217 -135C217 -113 222 -108 229 -108C244 -108 255 -120 255 -141C255 -155 248 -173 215 -200C217 -204 219 -209 221 -214C228 -232 234 -238 242 -242C247 -245 250 -248 250 -251C250 -254 247 -257 242 -259ZM213 -547C195 -467 170 -397 148 -351L159 -343C171 -362 196 -406 216 -445C224 -434 227 -421 229 -404C231 -384 239 -379 246 -379C254 -379 266 -397 266 -412C266 -428 251 -447 226 -466C245 -508 245 -509 256 -514C263 -517 267 -519 267 -521C267 -523 263 -525 257 -528ZM308 -776C321 -784 342 -796 342 -799C342 -802 339 -804 332 -807L266 -839C267 -797 268 -759 268 -712V-576H173V-701C201 -716 204 -717 204 -721C204 -724 201 -726 196 -729L132 -766C134 -750 135 -711 135 -652V-576H99C77 -576 52 -577 28 -580L55 -545C68 -551 98 -556 120 -556H509C518 -556 523 -557 523 -560C523 -562 520 -565 516 -570L465 -623L431 -576H308V-674H481C490 -674 494 -675 494 -678C494 -680 491 -684 486 -689L436 -741L402 -697H308Z"/>
</svg>