<svg xmlns="http://www.w3.org/2000/svg" viewBox="0 -1000 1000 1000">
	<path fill="#000000" d="M537 -811C539 -782 540 -738 540 -713V-532C540 -500 539 -444 537 -413C537 -402 538 -397 544 -397C548 -397 553 -399 561 -402C578 -408 580 -411 580 -425V-458H688V-354H562L506 -399C508 -362 509 -290 508 -249L507 -48C507 -20 506 19 504 50V59C504 71 506 77 513 77C513 77 554 65 554 38V34C553 20 552 -23 552 -60V-332H688V-170L575 -157L604 -109C608 -104 610 -101 613 -101C616 -101 619 -104 623 -109C631 -118 654 -130 707 -141L807 -168C812 -153 815 -137 815 -128C816 -108 826 -101 834 -101C847 -101 861 -116 861 -139C861 -184 813 -230 775 -267L769 -258C780 -240 788 -222 803 -182L728 -174V-332H871V-29C871 -12 870 -3 848 -3C833 -3 806 -8 762 -17L759 -1C819 16 832 23 838 55C839 63 841 67 845 67C848 67 851 65 856 63C906 39 915 25 915 -30V-312L944 -325C949 -327 951 -330 951 -332C951 -335 949 -338 943 -343L890 -388L863 -354H728V-458H843V-431C843 -421 844 -416 848 -416C852 -416 857 -419 866 -424C883 -434 886 -437 886 -447V-452C884 -477 883 -496 883 -576V-735L906 -749C911 -752 914 -754 914 -757C914 -760 911 -763 906 -767L852 -809L829 -772H585ZM688 -480H580V-602H688ZM688 -624H580V-750H688ZM728 -624V-750H843V-624ZM728 -480V-602H843V-480ZM409 -49L141 -17V-70C164 -104 176 -122 203 -182C215 -168 223 -152 226 -135C229 -113 232 -109 240 -109C251 -109 263 -122 263 -141C263 -158 247 -175 209 -196C212 -201 214 -205 216 -210C224 -227 227 -231 238 -236C245 -239 249 -241 249 -244C249 -246 246 -248 241 -250L198 -275C184 -219 165 -162 141 -109V-289H409ZM202 -542C185 -482 163 -415 141 -360V-475C162 -493 165 -495 165 -499C165 -502 162 -504 155 -507L97 -531C99 -494 101 -426 101 -385V-61C101 -25 93 -13 65 -5L104 47C107 50 109 51 112 51C114 51 117 50 119 47C136 27 166 14 409 -26C409 -14 408 41 408 52C408 66 410 72 415 72C418 72 423 70 429 67C449 57 453 52 453 39V33C450 -17 450 -46 450 -136V-469C480 -484 480 -484 480 -488C480 -490 477 -493 469 -497L405 -530C407 -490 409 -427 409 -366V-310H141V-327C158 -352 179 -390 206 -449C217 -433 223 -411 224 -400C226 -377 233 -372 240 -372C250 -372 262 -387 262 -409C262 -424 245 -441 212 -461C229 -494 231 -498 242 -505C249 -509 252 -511 252 -514C252 -516 250 -518 245 -520ZM324 -279C307 -209 276 -124 249 -67L260 -60C281 -87 303 -121 326 -172C346 -153 355 -128 358 -110C361 -87 369 -84 376 -84C387 -84 398 -102 398 -118C398 -143 376 -166 333 -188C336 -195 339 -202 342 -210C348 -227 353 -231 364 -235C372 -238 376 -240 376 -243C376 -245 373 -248 367 -251ZM327 -542C313 -478 277 -388 249 -336L258 -330C280 -355 304 -393 323 -431C342 -411 351 -390 354 -375C358 -353 364 -344 376 -344C387 -344 398 -359 398 -376C398 -399 376 -423 330 -444C336 -455 341 -466 346 -477C350 -486 361 -493 370 -496C379 -499 383 -502 383 -504C383 -507 380 -509 375 -512ZM323 -771L349 -788C355 -792 358 -795 358 -798C358 -801 354 -803 348 -806L279 -837C281 -795 282 -746 282 -711V-572H194V-694L218 -712C222 -715 224 -718 224 -720C224 -723 221 -726 214 -729L150 -756C152 -722 153 -693 153 -643V-572H106C84 -572 61 -573 37 -576L63 -539C80 -546 107 -550 127 -550H494C501 -550 504 -552 504 -555C504 -558 502 -561 497 -566L452 -614L416 -572H323V-673H464C472 -673 476 -675 476 -679C476 -682 474 -686 468 -692L422 -738L389 -695H323Z"/>
</svg>