<svg xmlns="http://www.w3.org/2000/svg" viewBox="0 -1000 1000 1000">
	<path fill="#000000" d="M804 -317L775 -275H215L163 -311C164 -282 166 -227 166 -194V-50C166 2 165 33 163 57C163 62 162 67 162 70C162 80 164 84 169 84C173 84 179 82 187 78C206 69 208 67 208 58V-128H367V-50C367 -36 366 24 366 36C366 47 367 52 372 52C374 52 412 36 412 20C412 1 410 -30 410 -49V-128H575V-57C575 -43 574 18 574 30C574 42 575 47 580 47C580 47 620 32 620 14C620 -6 618 -37 618 -56V-128H794V-17C794 2 791 14 767 14C747 14 714 6 656 -11L652 2C740 28 759 44 762 75C763 84 764 88 768 88C770 88 774 87 778 84C831 56 838 42 838 -14V-243L860 -259C865 -262 867 -265 867 -267C867 -270 865 -273 859 -277ZM410 -150V-253H575V-150ZM618 -150V-253H794V-150ZM208 -150V-253H367V-150ZM566 -551L544 -519H455L408 -553C410 -531 411 -496 411 -480V-409C411 -398 408 -341 408 -338C408 -331 410 -328 414 -328C418 -328 450 -338 450 -352V-373H555V-346C555 -340 556 -336 560 -336C563 -336 568 -338 576 -342C592 -350 596 -353 596 -362C596 -373 594 -420 594 -430V-491C616 -506 619 -508 619 -511C619 -513 617 -515 613 -518ZM450 -395V-499H555V-395ZM818 -550L794 -518H703L658 -551C660 -529 661 -494 661 -478V-409C661 -398 658 -341 658 -338C658 -331 660 -328 664 -328C668 -328 700 -338 700 -352V-372H807V-338C807 -332 807 -328 811 -328C816 -328 850 -340 850 -353C850 -364 848 -413 848 -423V-487L865 -500C869 -503 872 -506 872 -508C872 -510 869 -512 864 -516ZM700 -394V-498H807V-394ZM309 -550L288 -517H187L149 -542C151 -520 152 -485 152 -469V-405C152 -394 149 -337 149 -334C149 -327 151 -324 155 -324C159 -324 191 -334 191 -348V-371H299V-337C299 -331 300 -327 304 -327C307 -327 312 -329 320 -333C337 -341 340 -344 340 -352C340 -363 338 -410 338 -420V-492L353 -502C357 -505 359 -507 359 -509C359 -511 357 -513 353 -516ZM191 -393V-497H299V-393ZM479 -854C413 -752 185 -583 17 -494L25 -481C208 -566 355 -670 513 -805C621 -637 864 -550 882 -550C887 -550 889 -552 891 -555C901 -575 926 -590 980 -596L981 -608C857 -606 638 -668 527 -814C552 -814 555 -814 555 -818C555 -821 552 -824 547 -826ZM592 -661L559 -620H372C349 -620 324 -622 299 -624L327 -588C344 -595 373 -599 394 -599H632C643 -599 648 -601 648 -604C648 -607 645 -611 639 -616Z"/>
</svg>