<svg xmlns="http://www.w3.org/2000/svg" viewBox="0 -1000 1000 1000">
	<path fill="#000000" d="M187 -313V-490H473V-313ZM473 -289C473 -256 473 -252 480 -252C486 -252 522 -263 522 -280V-285C520 -303 518 -323 518 -364V-475L544 -491C547 -493 549 -495 549 -498C549 -500 547 -503 543 -506L484 -550L456 -512H347V-655H575C583 -655 587 -657 587 -660C587 -663 584 -668 579 -673L517 -732L477 -678H347V-779L378 -798C381 -800 383 -803 383 -805C383 -808 381 -811 377 -813L303 -845C305 -812 306 -769 306 -678H148C125 -678 100 -679 75 -682L103 -644C120 -651 149 -655 170 -655H306V-512H196L141 -557C143 -526 144 -477 144 -453V-334C144 -320 140 -258 140 -246C140 -240 141 -237 146 -237C150 -237 157 -239 168 -244C185 -251 187 -254 187 -266V-289H241C226 -88 168 -5 33 78L38 92C187 26 269 -74 286 -289H373V-18C373 46 384 57 448 59C525 61 597 63 669 63C741 63 813 61 891 58C953 55 975 -1 975 -3C975 -5 973 -7 970 -9C943 -24 937 -51 940 -161H926C911 5 903 16 857 19C810 22 749 24 683 24C611 24 534 22 463 19C422 17 417 14 417 -16V-289ZM764 -757L795 -782C799 -785 801 -787 801 -790C801 -792 799 -794 795 -796L719 -840C721 -794 721 -746 721 -693V-484H628C599 -484 576 -486 549 -491L581 -454C595 -460 609 -462 649 -462H721V-195C721 -120 720 -85 717 -25C717 -18 716 -13 716 -8C716 5 718 11 723 11C724 11 765 -6 765 -27C765 -55 764 -178 764 -203V-462H955C961 -462 964 -463 964 -466C964 -468 962 -472 957 -477L898 -541L851 -484H764Z"/>
</svg>