<svg xmlns="http://www.w3.org/2000/svg" viewBox="0 -1000 1000 1000">
	<path fill="#000000" d="M835 -292C835 -257 835 -253 842 -253C846 -253 852 -255 859 -259C878 -269 882 -273 882 -285C882 -305 881 -394 881 -412V-589L906 -606C911 -610 914 -612 914 -615C914 -617 911 -620 906 -623L851 -666L824 -628H593L534 -671C536 -643 537 -600 537 -578V-386C537 -343 536 -302 535 -263C535 -254 537 -250 543 -250C547 -250 551 -251 557 -254C583 -266 583 -269 583 -292H686V-162H572C549 -162 524 -164 499 -166L527 -129C544 -136 573 -140 594 -140H686V9H502C479 9 454 7 429 5L457 43C474 36 503 32 524 32H959C967 32 971 30 971 26C971 23 968 19 963 14L908 -41L873 9H731V-140H917C925 -140 929 -142 929 -145C929 -148 926 -152 921 -157L866 -212L831 -162H731V-292ZM686 -314H583V-450H686ZM583 -606H686V-472H583ZM731 -606H835V-472H731ZM835 -314H731V-450H835ZM44 -85C110 -177 164 -274 211 -383V-141C211 -84 209 -19 206 39V53C206 66 208 71 214 71C219 71 226 69 235 65C254 57 258 54 258 38C258 9 256 -123 256 -150V-411C292 -380 315 -353 329 -317C335 -302 345 -296 353 -296C367 -296 377 -313 377 -332C377 -342 374 -353 367 -362C350 -385 316 -405 256 -428V-484H415C420 -484 423 -485 423 -487C423 -489 421 -492 417 -496L361 -556L326 -506H256V-789L285 -804C289 -806 291 -808 291 -810C291 -812 288 -814 282 -817L207 -854C209 -817 211 -757 211 -716V-506H111C88 -506 63 -508 38 -510L68 -473C85 -480 108 -484 133 -484H205C156 -343 107 -237 30 -94ZM65 -734C106 -672 124 -609 124 -583C124 -559 130 -551 142 -551C158 -551 176 -568 176 -597C176 -637 139 -685 75 -742ZM437 -800C439 -692 436 -469 429 -349C418 -156 370 -50 266 73L274 83C411 -39 459 -155 471 -329C477 -416 483 -641 482 -731H955C965 -731 971 -733 971 -738C971 -741 968 -745 962 -750L899 -804L860 -753H499ZM351 -746C322 -666 301 -614 273 -552L284 -545C380 -693 384 -697 411 -699C416 -700 419 -701 419 -702C419 -704 416 -706 412 -709Z"/>
</svg>