<svg xmlns="http://www.w3.org/2000/svg" viewBox="0 -1000 1000 1000">
	<path fill="#000000" d="M564 -273V-156H424V-273ZM380 -134C380 -112 378 -15 378 5C378 19 379 25 385 25C389 25 394 22 402 18C423 6 425 3 425 -11C424 -47 424 -89 424 -134H564C564 -114 562 -26 562 -7C562 8 564 14 570 14C574 14 580 11 588 7C606 -3 610 -6 610 -18C610 -36 608 -117 608 -134H757V-25C757 1 752 13 721 13C702 13 675 9 634 0L635 14C702 36 732 53 737 75C738 80 740 82 744 82C746 82 748 82 751 81C794 65 804 48 804 6V-251L837 -272C843 -276 846 -279 846 -282C846 -285 843 -288 837 -292L774 -338L741 -295H250L190 -353C192 -319 193 -259 193 -222V-57C193 -31 192 20 190 45C189 52 189 57 189 62C189 74 191 79 197 79C202 79 209 75 220 69C241 57 242 54 242 38C241 5 240 -33 240 -75V-134ZM757 -273V-156H608V-273ZM380 -273V-156H240V-273ZM539 -586C545 -588 548 -590 548 -592C548 -594 546 -596 542 -599L512 -619H768V-584C768 -579 769 -576 775 -576C784 -576 817 -583 817 -599C817 -616 815 -642 815 -659V-747C845 -765 846 -765 846 -769C846 -771 842 -774 836 -777L765 -810C767 -774 768 -755 768 -725V-641H522V-778C549 -798 553 -800 553 -803C553 -807 549 -809 541 -813L473 -844C475 -811 476 -792 476 -766V-641H238V-736C265 -752 268 -753 268 -757C268 -761 265 -764 260 -766L189 -798C191 -773 192 -744 192 -716V-649L156 -624L210 -593C212 -591 215 -590 217 -590C221 -590 224 -593 246 -619H477C354 -494 242 -408 53 -304L58 -289C137 -325 203 -358 264 -396L284 -369C301 -376 330 -380 351 -380H720C730 -380 735 -382 735 -386C735 -391 732 -394 706 -420C755 -392 850 -347 862 -347C866 -347 869 -348 871 -352C889 -382 909 -393 962 -398L961 -411C818 -414 709 -454 513 -576ZM633 -402H329C313 -402 295 -403 278 -404C356 -453 425 -504 498 -564C557 -516 611 -476 668 -441Z"/>
</svg>