<svg xmlns="http://www.w3.org/2000/svg" viewBox="0 -1000 1000 1000">
	<path fill="#000000" d="M552 -332L516 -289H416L450 -342C456 -351 470 -356 486 -356C490 -356 492 -357 492 -359C492 -360 491 -361 490 -362L437 -404L414 -372H288C265 -372 242 -373 217 -376L239 -346C256 -353 286 -356 307 -356H415L376 -289H251C228 -289 204 -290 179 -293L202 -262C218 -268 246 -272 267 -272V-50L144 -32L171 12C173 15 174 17 177 17C179 17 181 16 184 13C199 -1 221 -8 278 -20L452 -56C452 -39 448 35 448 49C448 62 451 67 457 67C461 67 466 65 473 62C490 55 493 50 493 35V28C491 1 490 -26 490 -64L612 -89L610 -101L490 -83V-272H590C573 -239 552 -202 528 -159L536 -153C571 -199 600 -235 623 -268C646 -189 670 -133 702 -88C658 -28 592 20 501 59L508 69C604 38 673 -4 722 -62C781 7 885 54 888 54C891 54 893 53 895 51C907 33 932 17 975 17L976 9C889 6 832 -18 749 -97C783 -150 805 -215 816 -294H932C937 -294 940 -296 940 -299C940 -301 938 -304 935 -307L879 -357L842 -312H653C662 -327 671 -343 678 -359C683 -369 689 -375 706 -380C714 -382 717 -385 717 -388C717 -390 715 -392 710 -395L669 -416H962C969 -416 973 -418 973 -422C973 -425 970 -429 966 -433L913 -487L871 -437H178L124 -479C126 -443 126 -384 126 -333C126 -50 77 30 45 81L57 89C122 24 156 -73 162 -211C164 -258 166 -330 169 -416H649C637 -374 619 -332 595 -282ZM306 -144V-196H452V-144ZM306 -211V-272H452V-211ZM306 -56V-129H452V-78ZM774 -294C768 -229 752 -172 724 -122C689 -162 653 -230 635 -284C637 -287 639 -291 641 -294ZM547 -644C548 -617 548 -596 548 -575V-507C548 -500 545 -469 545 -463C545 -457 547 -455 552 -455C565 -455 585 -463 585 -479V-489H772C772 -455 772 -451 778 -451C784 -451 813 -461 813 -476C813 -495 809 -526 809 -545V-579C838 -596 841 -598 841 -602C841 -604 839 -606 836 -608L781 -636L764 -611H599ZM585 -505V-595H772V-505ZM205 -648L222 -670H801V-635C801 -630 802 -627 808 -627C816 -627 848 -634 848 -648C848 -665 846 -693 846 -710V-750C876 -768 877 -768 877 -772C877 -774 873 -777 867 -780L798 -813C800 -777 801 -758 801 -728V-692H532V-792C564 -815 564 -815 564 -818C564 -821 559 -823 551 -827L485 -858C487 -825 488 -806 488 -780V-692H212V-749C240 -765 243 -767 243 -771C243 -774 240 -776 234 -779L165 -811C168 -774 168 -745 168 -700L132 -675L196 -641C197 -623 197 -612 197 -595V-508C197 -500 194 -466 194 -459C194 -453 196 -451 201 -451C204 -451 211 -453 220 -456C234 -461 234 -464 234 -487H417C417 -457 417 -453 423 -453C429 -453 458 -462 458 -478C458 -480 457 -483 457 -486C456 -494 454 -520 454 -547V-581L487 -597C490 -599 492 -600 492 -602C492 -604 490 -606 487 -608L428 -645L404 -610H250ZM234 -503V-594H417V-503Z"/>
</svg>