<svg xmlns="http://www.w3.org/2000/svg" viewBox="0 -1000 1000 1000">
	<path fill="#000000" d="M852 -699L821 -647H661V-769L693 -794C697 -797 699 -799 699 -801C699 -803 697 -804 693 -806L614 -846V-647H451L388 -694C390 -671 390 -650 390 -602V-369C390 -270 389 -212 385 -158V-156C385 -153 386 -151 388 -151C392 -151 399 -155 413 -163C436 -178 437 -180 437 -192V-230H614V-121C614 -63 612 15 609 73V76C609 81 610 84 614 84C618 84 665 63 665 49V46C662 1 661 -57 661 -119V-230H842V-184C842 -177 843 -174 847 -174C849 -174 892 -191 892 -207V-211C890 -237 889 -282 889 -323V-608L923 -633C926 -635 927 -637 927 -639C927 -641 925 -644 921 -647ZM661 -453V-625H842V-453ZM437 -453V-625H614V-453ZM661 -252V-431H842V-252ZM437 -252V-431H614V-252ZM275 -840C212 -646 136 -479 39 -326L50 -319C119 -403 149 -446 200 -542V-166C200 -104 196 4 192 72C192 75 193 77 195 77C199 77 206 73 222 64C244 51 248 46 248 36V31C246 -10 246 -67 246 -129V-533L268 -554C272 -558 274 -561 274 -563C274 -565 272 -566 269 -568L224 -591C246 -633 271 -684 302 -750C311 -768 314 -771 339 -780C346 -783 350 -785 350 -787C350 -789 347 -791 343 -794Z"/>
</svg>