<svg xmlns="http://www.w3.org/2000/svg" viewBox="0 -1000 1000 1000">
	<path fill="#000000" d="M400 -841C448 -811 481 -768 498 -716C504 -699 510 -691 521 -691C540 -691 557 -711 557 -738C557 -747 555 -757 551 -767C539 -795 484 -829 406 -851ZM876 -745L834 -682H107C84 -682 60 -683 34 -686L69 -652C85 -658 103 -660 135 -660H480V-506H256L189 -558C191 -534 192 -503 192 -426V-257C192 -177 191 -122 189 -81V-67C189 -54 190 -49 196 -49C197 -49 242 -63 242 -83V-88C240 -127 239 -176 239 -256V-484H480V-130C480 -39 479 17 478 56V66C478 81 479 88 485 88C486 88 531 73 531 53V48C528 9 527 -60 527 -128V-484H765V-147C765 -127 764 -117 739 -117C718 -117 680 -123 613 -136L609 -122C706 -94 724 -78 733 -44C735 -37 737 -34 740 -34C742 -34 745 -35 748 -37C804 -67 812 -79 812 -111V-461L845 -480C852 -484 855 -486 855 -489C855 -491 853 -494 849 -497L779 -552L744 -506H527V-660H943C954 -660 960 -661 960 -664C960 -667 956 -672 948 -679Z"/>
</svg>