<svg xmlns="http://www.w3.org/2000/svg" viewBox="0 -1000 1000 1000">
	<path fill="#000000" d="M383 -672L352 -632H262V-768L290 -784C296 -787 299 -790 299 -793C299 -796 296 -799 289 -803L213 -852C215 -818 216 -740 216 -703V-632H150L89 -678C90 -646 91 -588 91 -553V-359C91 -310 90 -233 88 -183V-174C88 -161 90 -155 96 -155C101 -155 107 -157 116 -161C134 -169 138 -172 138 -184V-190C136 -229 135 -292 135 -358V-610H216V-132C216 -35 215 20 214 54V62C214 78 216 84 223 84C228 84 234 82 243 78C262 69 266 67 266 53V46C264 8 262 -62 262 -130V-610H365V-247C365 -222 363 -212 340 -212C326 -212 305 -216 272 -222L271 -207C318 -196 334 -180 346 -146C348 -141 350 -138 353 -138C355 -138 358 -139 361 -141C402 -166 411 -183 411 -230V-589L444 -607C448 -609 450 -611 450 -613C450 -616 448 -618 445 -621ZM881 -668L844 -615H689V-774L716 -792C723 -796 726 -799 726 -802C726 -805 721 -808 714 -812L640 -850C642 -813 644 -744 644 -703V-356H551L487 -412C488 -383 490 -322 490 -288V-80C490 -34 489 10 487 57V64C487 78 489 84 495 84C500 84 506 81 515 77C532 69 533 66 533 51V-13H810V59C810 67 811 71 817 71C821 71 827 70 836 66C857 57 861 54 861 41V35C859 7 858 -46 858 -78V-315L889 -338C893 -341 895 -343 895 -345C895 -348 892 -350 887 -354L825 -402L795 -356H689V-593H939C948 -593 952 -594 952 -597C952 -600 949 -605 941 -612ZM533 -35V-334H810V-35Z"/>
</svg>