<svg xmlns="http://www.w3.org/2000/svg" viewBox="0 -1000 1000 1000">
	<path fill="#000000" d="M849 -394L820 -354H496L438 -398C440 -370 441 -327 441 -305V-49C441 -20 440 21 438 55C438 60 437 64 437 68C437 77 439 82 444 82C448 82 454 79 463 75C482 66 484 62 484 52V-1H834V57C834 65 835 69 840 69C844 69 850 67 860 62C880 52 883 49 883 39V34C880 -10 879 -68 879 -89V-312L912 -330C917 -333 920 -335 920 -338C920 -341 917 -344 911 -349ZM677 -196V-332H834V-196ZM484 -196V-332H633V-196ZM677 -23V-174H834V-23ZM484 -23V-174H633V-23ZM795 -672L769 -635H556L500 -677C502 -648 503 -601 503 -578V-508C503 -473 501 -440 499 -424C499 -421 498 -418 498 -416C498 -410 500 -408 504 -408C508 -408 514 -410 525 -415C544 -424 546 -427 546 -438V-463H783C783 -422 783 -421 790 -421C790 -421 831 -434 831 -454V-458C829 -481 828 -516 828 -543V-596L852 -612C857 -615 860 -618 860 -621C860 -624 857 -627 851 -632ZM546 -485V-613H783V-485ZM880 -803L846 -751H473C450 -751 425 -753 400 -755L428 -718C445 -725 474 -729 495 -729H934C945 -729 950 -730 950 -734C950 -737 946 -742 938 -749ZM341 -672L316 -635H240V-781C274 -804 275 -804 275 -808C275 -811 270 -814 262 -818L192 -853C194 -819 195 -788 195 -706V-635H129L73 -679C74 -647 75 -588 75 -553V-338C75 -289 75 -210 72 -162C72 -157 71 -153 71 -149C71 -138 73 -133 79 -133C84 -133 122 -151 122 -165V-168C120 -207 119 -271 119 -337V-613H195V-121C195 -70 194 3 191 55V68C191 81 193 87 199 87C203 87 210 83 220 78C239 67 243 64 243 52V46C241 7 240 -51 240 -119V-613H333V-221C333 -204 330 -196 303 -196C291 -196 276 -197 254 -200L252 -188C296 -174 307 -160 311 -137C312 -131 314 -128 318 -128C320 -128 323 -129 326 -131C367 -155 378 -166 378 -206V-598L400 -610C405 -613 408 -615 408 -617C408 -619 405 -622 400 -626Z"/>
</svg>