<svg xmlns="http://www.w3.org/2000/svg" viewBox="0 -1000 1000 1000">
	<path fill="#000000" d="M877 -820L850 -776H441L382 -827C384 -796 385 -738 385 -680V-163C385 -107 384 -18 382 41V52C382 66 383 72 390 72C395 72 401 70 410 66C425 60 427 56 427 41V-2H867V65C867 74 868 79 873 79C877 79 884 77 894 72C909 66 911 61 911 51V40C909 -5 907 -67 907 -143V-745L934 -760C938 -762 941 -764 941 -767C941 -769 938 -772 933 -776ZM427 -23V-755H867V-618L822 -653L792 -623H711C711 -646 712 -670 712 -697C737 -714 740 -716 740 -719C740 -722 737 -723 733 -725L671 -749C671 -704 672 -662 673 -623H502C479 -623 454 -625 429 -627L457 -591C474 -598 503 -602 524 -602H674C679 -443 688 -347 708 -271C675 -202 629 -143 564 -71L574 -62C639 -115 684 -160 721 -228C755 -129 811 -67 836 -67C840 -67 845 -69 845 -76C845 -81 842 -90 835 -107C831 -116 829 -126 829 -147C829 -166 831 -194 835 -240L820 -243L800 -157C780 -179 759 -222 745 -275C767 -326 786 -386 807 -465C812 -483 815 -489 826 -494C832 -497 835 -500 835 -502C835 -504 833 -506 829 -508L777 -538C766 -453 752 -388 732 -332C719 -408 712 -477 711 -602H867V-23ZM755 -732C778 -705 787 -691 795 -674C801 -662 805 -658 811 -658C823 -658 833 -676 833 -688C833 -698 823 -718 760 -740ZM608 -531L583 -496H538L482 -544C484 -518 484 -500 484 -476V-334C484 -324 483 -277 483 -268C483 -263 484 -260 488 -260C491 -260 496 -262 503 -265C524 -274 524 -278 524 -305H594C594 -273 594 -270 600 -270C607 -270 634 -278 634 -294C633 -309 633 -334 633 -352V-465L654 -475C659 -477 661 -480 661 -482C661 -485 659 -488 654 -492ZM524 -325V-476H594V-325ZM295 -690L271 -650H218V-788C251 -804 251 -805 251 -808C251 -811 248 -814 242 -817L173 -857C175 -823 176 -762 176 -725V-650H124L65 -701C66 -669 67 -611 67 -576V-356C67 -307 66 -230 64 -180V-174C64 -159 66 -153 74 -153C78 -153 84 -155 92 -158C109 -165 112 -168 112 -179V-187C110 -226 109 -289 109 -355V-629H176V-134C176 -103 174 33 174 61C174 75 176 81 183 81C187 81 192 79 200 76C219 67 222 63 222 51V44C219 5 218 -64 218 -132V-629H285V-229C285 -216 283 -210 267 -210C258 -210 244 -212 224 -215L222 -198C256 -187 264 -181 273 -155C275 -149 277 -146 281 -146C283 -146 285 -147 288 -149C318 -167 325 -183 325 -212V-622L351 -638C356 -641 358 -643 358 -645C358 -647 356 -649 351 -652ZM645 -212L429 -170L460 -126C462 -123 464 -121 466 -121C469 -121 471 -123 474 -127C484 -140 502 -150 539 -162L647 -201Z"/>
</svg>