<svg xmlns="http://www.w3.org/2000/svg" viewBox="0 -1000 1000 1000">
	<path fill="#000000" d="M905 -44L870 5H671V-103H900C909 -103 913 -105 913 -108C913 -112 910 -116 904 -123L856 -174L818 -123H671V-218H823C823 -191 823 -188 830 -188C834 -188 841 -190 850 -195C866 -203 869 -207 869 -221V-229C867 -259 866 -287 866 -328V-432C894 -449 897 -451 897 -454C897 -457 894 -461 888 -465L837 -502L810 -464H507L451 -503C454 -471 454 -456 454 -417V-304C454 -267 453 -232 451 -192V-184C451 -178 452 -175 456 -175C459 -175 464 -176 471 -179C494 -189 494 -193 494 -218H629V-123H485C462 -123 437 -125 412 -127L440 -92C457 -99 486 -103 507 -103H629V5H390C367 5 342 3 317 1L345 36C362 29 391 25 412 25H960C967 25 971 23 971 20C971 17 968 14 963 9ZM671 -353V-444H823V-353ZM494 -353V-444H629V-353ZM671 -238V-333H823V-238ZM494 -238V-333H629V-238ZM583 -848C617 -823 639 -795 647 -765C651 -749 658 -737 667 -737C682 -737 697 -758 697 -779C697 -782 696 -784 696 -787C692 -812 661 -838 591 -857ZM877 -790L837 -736H486C463 -736 438 -738 413 -740L441 -705C458 -712 487 -716 508 -716H927C936 -716 942 -718 942 -721C942 -725 938 -729 931 -736ZM506 -680C546 -645 562 -613 569 -579C571 -569 576 -565 582 -565C594 -565 608 -581 608 -598C608 -622 571 -660 510 -691ZM909 -610L870 -558H708C768 -628 795 -647 808 -650C814 -651 817 -653 817 -655C817 -657 814 -661 808 -665L767 -696C744 -647 718 -600 690 -558H451C428 -558 403 -560 378 -562L406 -527C423 -534 452 -538 473 -538H961C971 -538 977 -539 977 -543C977 -546 973 -551 965 -558ZM331 -702L303 -663H233V-795C258 -808 261 -809 261 -813C261 -816 257 -819 249 -823L188 -855C190 -821 191 -760 191 -723V-663H128L73 -709C74 -677 75 -619 75 -584V-357C75 -308 74 -231 72 -181V-171C72 -159 73 -154 79 -154C83 -154 88 -156 96 -159C114 -167 118 -169 118 -182V-188C116 -227 115 -290 115 -356V-643H191V-136C191 -85 190 -3 188 50V60C188 74 189 79 196 79C200 79 205 77 213 74C232 65 236 61 236 48V42C233 3 233 -66 233 -134V-643H316V-250C316 -226 312 -218 281 -218C271 -218 258 -219 242 -220V-207C281 -199 294 -183 301 -162C303 -155 305 -153 308 -153C310 -153 312 -154 315 -156C353 -181 358 -194 358 -233V-628L386 -644C390 -645 392 -647 392 -650C392 -652 390 -655 386 -658Z"/>
</svg>