<svg xmlns="http://www.w3.org/2000/svg" viewBox="0 -1000 1000 1000">
	<path fill="#000000" d="M875 -602L830 -546H522V-684H831C843 -684 849 -686 849 -691C849 -694 844 -700 836 -708L781 -760L741 -706H522V-788L548 -805C554 -809 557 -811 557 -814C557 -818 552 -822 543 -826L471 -859C473 -824 474 -800 474 -761V-706H231C209 -706 184 -708 161 -710L188 -674C203 -680 232 -684 252 -684H474V-546H117C95 -546 70 -548 47 -550L74 -514C89 -520 118 -524 138 -524H926C939 -524 945 -526 945 -531C945 -535 941 -540 933 -548ZM278 -493C316 -465 353 -413 366 -371C370 -358 377 -346 390 -346C405 -346 419 -364 419 -386C419 -410 410 -441 285 -504ZM889 -227L843 -167H519V-311H867C880 -311 886 -312 886 -317C886 -320 881 -326 872 -335L819 -385L776 -333H573C664 -437 677 -449 699 -456C708 -459 712 -461 712 -464C712 -467 709 -469 704 -473L651 -508L552 -333H202C180 -333 155 -335 132 -337L159 -301C174 -307 203 -311 223 -311H471V-167H107C85 -167 60 -169 37 -171L64 -135C79 -141 108 -145 128 -145H471V-109C471 -61 470 -6 468 53V62C468 79 470 85 477 85C482 85 489 83 498 79C519 70 523 66 523 52V45C520 0 519 -46 519 -107V-145H936C948 -145 955 -147 955 -151C955 -155 951 -161 943 -169Z"/>
</svg>