<svg xmlns="http://www.w3.org/2000/svg" viewBox="0 -1000 1000 1000">
	<path fill="#000000" d="M389 -711C378 -689 365 -670 333 -628L185 -627C216 -658 281 -733 308 -767C324 -788 328 -790 347 -794C357 -796 362 -798 362 -801C362 -803 358 -806 352 -811L300 -847C249 -753 223 -714 182 -658C164 -634 150 -627 112 -627L135 -575C136 -572 138 -570 140 -570C142 -570 144 -571 147 -573C162 -584 178 -589 209 -594L322 -612C278 -555 233 -504 212 -483C178 -448 170 -444 122 -441L144 -389C146 -384 148 -382 151 -382C153 -382 155 -383 158 -385C177 -399 199 -405 254 -413L389 -434C391 -425 392 -416 392 -407C392 -378 395 -372 412 -372C428 -372 447 -394 447 -418C447 -455 388 -512 355 -535L345 -525C361 -506 376 -478 385 -450L207 -444C289 -524 369 -603 403 -639C413 -649 420 -655 441 -662C450 -665 454 -667 454 -670C454 -671 452 -673 448 -676ZM917 -165L877 11C799 -2 729 -26 672 -77C711 -101 752 -129 798 -162C816 -175 834 -181 856 -181C866 -181 870 -182 870 -184C870 -186 867 -188 861 -193L804 -237C754 -190 694 -142 643 -107C611 -145 585 -196 565 -262H949C961 -262 967 -263 967 -266C967 -270 962 -275 953 -284L898 -336L859 -284H560C549 -336 539 -453 539 -638C539 -685 540 -737 541 -793C553 -800 572 -813 572 -815C572 -817 570 -819 564 -822L486 -856C490 -539 498 -367 515 -284H306C307 -302 308 -322 308 -342C313 -345 339 -357 339 -360C339 -362 336 -364 330 -367L260 -401C261 -390 261 -374 261 -356C261 -332 261 -305 260 -284H97C74 -284 50 -285 24 -288L52 -251C69 -258 98 -262 119 -262H259C249 -111 199 -18 59 61L69 74C204 14 271 -47 296 -195C348 -165 399 -120 410 -99C418 -85 431 -73 441 -73C455 -73 464 -86 464 -105C464 -112 463 -120 460 -128C451 -152 408 -185 299 -213C301 -229 303 -245 304 -262H520C540 -187 566 -128 603 -82C502 -20 382 29 283 56V71C418 50 514 18 631 -52C733 46 909 74 933 74C949 74 958 71 958 63C958 58 954 52 947 43C934 28 927 -6 927 -62C927 -90 929 -124 933 -163ZM803 -547C818 -532 838 -501 854 -468L659 -456C729 -524 808 -602 837 -633C857 -654 860 -656 880 -659C893 -661 899 -664 899 -666C899 -669 896 -671 891 -674L836 -710C825 -692 809 -672 775 -628H633C656 -651 729 -732 752 -760C769 -780 772 -782 791 -786C803 -789 808 -791 808 -794C808 -796 805 -799 798 -804L744 -840C703 -765 672 -715 631 -659C613 -635 604 -628 566 -628L593 -578C595 -574 597 -572 599 -572C601 -572 603 -573 605 -575C620 -586 633 -591 664 -596L762 -611C719 -555 687 -518 666 -495C634 -460 624 -457 582 -451L608 -401C610 -396 612 -394 615 -394C617 -394 619 -395 622 -397C638 -409 666 -420 711 -427L861 -451C865 -441 868 -431 871 -421C878 -392 882 -387 891 -387C907 -387 925 -409 925 -433C925 -475 843 -539 813 -557ZM669 -401C696 -380 723 -344 729 -325C735 -305 742 -295 751 -295C766 -295 779 -309 779 -329C779 -332 779 -336 778 -339C774 -359 746 -390 677 -410Z"/>
</svg>