<svg xmlns="http://www.w3.org/2000/svg" viewBox="0 -1000 1000 1000">
	<path fill="#000000" d="M815 -782L786 -737H494L423 -793C425 -762 426 -728 426 -690V-356C426 -288 425 -233 423 -174V-163C423 -148 425 -142 432 -142C436 -142 443 -144 452 -148C471 -156 474 -161 474 -173V-241H800V-168C800 -160 801 -155 807 -155C811 -155 817 -157 827 -161C848 -170 852 -174 852 -188V-195C849 -240 847 -302 847 -378V-691L880 -718C884 -722 887 -725 887 -727C887 -730 884 -732 879 -736ZM474 -509V-715H800V-509ZM474 -263V-487H800V-263ZM283 -838C224 -646 129 -449 28 -294L41 -284C94 -347 147 -429 194 -512V-141C194 -89 193 -34 191 27V36C191 53 193 59 200 59C205 59 212 57 221 53C241 45 245 40 245 25V19C243 -13 241 -68 241 -139V-528L262 -550C264 -552 265 -554 265 -556C265 -558 264 -560 261 -561L226 -572C259 -633 288 -693 312 -746C319 -762 327 -769 348 -776C356 -779 360 -781 360 -784C360 -786 356 -789 350 -793ZM887 -86L855 -31H370C347 -31 322 -33 297 -35L325 2C342 -5 371 -9 392 -9H952C961 -9 966 -11 966 -15C966 -19 963 -23 956 -29Z"/>
</svg>