<svg xmlns="http://www.w3.org/2000/svg" viewBox="0 -1000 1000 1000">
	<path fill="#000000" d="M457 -837C491 -811 520 -774 530 -745C536 -728 545 -713 554 -713C570 -713 585 -736 585 -760C585 -809 501 -839 462 -847ZM869 -770L822 -708H231L160 -762C164 -645 166 -548 166 -467C166 -184 138 -87 35 50L46 58C157 -39 198 -176 205 -297C211 -397 214 -543 214 -685H928C941 -685 947 -686 947 -690C947 -694 942 -699 934 -707ZM971 -81C790 -128 687 -256 627 -450H911C923 -450 930 -452 930 -456C930 -460 926 -465 918 -472L855 -529L814 -472H588V-590C612 -605 614 -606 614 -610C614 -614 610 -616 602 -620L535 -649C537 -612 539 -549 539 -508V-472H335C312 -472 287 -474 262 -476L290 -439C307 -446 336 -450 357 -450H489C418 -288 339 -171 164 -12L172 0C356 -124 440 -251 539 -440V-141C539 -65 538 -4 536 47V62C536 77 538 83 545 83C550 83 558 80 568 76C586 69 592 63 592 46V42C589 -3 588 -65 588 -141V-450H606C643 -291 707 -163 864 -41C871 -35 876 -33 880 -33C883 -33 885 -34 888 -38C905 -60 937 -70 972 -70Z"/>
</svg>