<svg xmlns="http://www.w3.org/2000/svg" viewBox="0 -1000 1000 1000">
	<path fill="#000000" d="M470 -845C516 -810 532 -784 543 -754C549 -738 555 -731 565 -731C575 -731 593 -748 593 -772C593 -805 559 -829 477 -854ZM887 -783L844 -727H220L166 -772C168 -714 169 -650 169 -587C169 -178 154 -114 29 56L39 64C118 -4 186 -101 202 -239C209 -298 216 -488 216 -705H940C950 -705 956 -706 956 -711C956 -714 952 -719 944 -727ZM980 4C799 -19 677 -104 631 -245H808C808 -205 808 -201 814 -201C818 -201 824 -203 835 -209C853 -218 856 -222 856 -235V-243C855 -269 853 -327 853 -403V-533C878 -552 881 -554 881 -558C881 -561 878 -564 872 -568L821 -605L796 -571H725C702 -571 677 -573 652 -575L680 -538C697 -545 726 -549 747 -549H808V-417H735C712 -417 687 -419 662 -421L690 -384C707 -391 736 -395 757 -395H808V-267H594C603 -331 608 -442 608 -636C637 -653 637 -653 637 -656C637 -659 634 -661 627 -664L560 -695C562 -633 562 -577 562 -526C562 -417 559 -332 549 -267H372V-392H503C511 -392 515 -394 515 -398C515 -401 513 -404 509 -409L471 -450L444 -414H372V-538C453 -559 483 -566 502 -566C506 -566 521 -563 524 -563C527 -563 528 -564 528 -566C528 -568 526 -570 523 -574L485 -615C455 -595 411 -571 379 -556L325 -597C327 -562 328 -506 328 -468V-376C328 -349 326 -228 326 -204C326 -188 328 -181 334 -181C338 -181 345 -184 354 -189C370 -197 372 -200 372 -213V-245H545C516 -91 383 -8 179 76L183 90C391 33 554 -53 590 -245H613C647 -115 703 -39 886 56C889 58 892 59 894 59C897 59 899 57 902 53C916 32 933 21 980 16Z"/>
</svg>