<svg xmlns="http://www.w3.org/2000/svg" viewBox="0 -1000 1000 1000">
	<path fill="#000000" d="M488 -684L460 -647H338V-794C347 -801 363 -811 363 -814C363 -816 360 -818 355 -820L291 -853C293 -827 294 -777 294 -748V-647H149L100 -681C102 -662 104 -628 104 -607V-413C104 -396 102 -319 102 -303C102 -293 104 -288 109 -288C114 -288 148 -302 148 -316C147 -338 147 -373 147 -412V-625H294V-482C294 -458 293 -349 293 -327C293 -315 295 -309 301 -309C304 -309 310 -312 318 -316C337 -326 339 -329 339 -340C338 -372 338 -426 338 -481V-625H474V-376C474 -361 471 -353 452 -353C437 -353 414 -358 375 -366L372 -351C426 -337 450 -323 456 -295C457 -290 459 -289 462 -289H465C514 -305 518 -316 518 -379V-617L541 -632C545 -635 547 -637 547 -638C547 -640 545 -642 542 -644ZM345 -544C373 -521 400 -476 407 -451C413 -428 417 -425 424 -425C438 -425 453 -442 453 -461C453 -491 406 -529 349 -557ZM947 -656C953 -656 957 -658 957 -662C957 -665 955 -669 949 -674L895 -724L861 -678H647C664 -710 678 -742 689 -770C698 -793 705 -797 730 -802C739 -804 743 -806 743 -808C743 -810 741 -812 736 -814L667 -849C647 -765 574 -588 521 -495L529 -488C560 -525 596 -581 627 -639C638 -572 664 -496 706 -436C668 -393 622 -356 522 -303L525 -289C560 -301 594 -316 623 -332C624 -313 625 -289 625 -258V-188H388C390 -210 391 -233 392 -258L417 -273C421 -276 423 -278 423 -279C423 -281 421 -283 418 -284L347 -317C346 -265 345 -223 341 -188H107C84 -188 59 -190 34 -192L62 -155C79 -162 108 -166 129 -166H338C322 -55 284 10 68 77L71 93C304 43 368 -30 386 -166H625V-68C625 -10 625 42 623 68V73C623 79 624 82 629 82C633 82 639 80 649 75C669 65 673 62 673 48C673 41 669 -45 669 -63V-166H913C923 -166 928 -169 928 -173C928 -177 925 -181 919 -187L864 -239L828 -188H669V-287C691 -301 693 -302 693 -305C693 -307 691 -309 687 -311L634 -338C675 -361 708 -385 731 -406C780 -354 872 -296 880 -296C882 -296 883 -297 884 -299C894 -319 917 -337 964 -336L966 -348C874 -354 817 -378 759 -436C795 -481 822 -541 847 -656ZM797 -656C784 -567 767 -516 731 -466C696 -509 666 -568 643 -656ZM477 -810C456 -777 416 -725 365 -670L372 -662C484 -754 509 -768 526 -770C530 -771 532 -772 532 -774C532 -775 530 -777 527 -779ZM105 -790C154 -749 170 -724 179 -696C185 -676 193 -668 202 -668C214 -668 228 -691 228 -710C228 -714 227 -718 226 -722C219 -739 181 -769 112 -800ZM227 -567C214 -521 188 -461 155 -401L163 -393C229 -491 246 -514 267 -530C271 -533 273 -536 273 -538C273 -541 271 -543 267 -545Z"/>
</svg>