<svg xmlns="http://www.w3.org/2000/svg" viewBox="0 -1000 1000 1000">
	<path fill="#000000" d="M975 -24C867 -24 756 -75 683 -167C724 -187 808 -225 840 -238C853 -243 869 -245 882 -246C889 -247 893 -248 893 -251C893 -253 891 -256 887 -259L841 -304C809 -276 738 -226 671 -182C636 -231 611 -289 593 -345H932C939 -345 943 -347 943 -351C943 -354 940 -358 935 -363L880 -413L842 -367H517V-482H853C862 -482 866 -483 866 -487C866 -489 863 -494 856 -500L799 -552L762 -505H517V-620H853C862 -620 867 -621 867 -625C867 -628 863 -632 856 -638L799 -687L764 -642H517V-751H903C912 -751 916 -752 916 -755C916 -758 913 -763 906 -769L851 -821L812 -774H533L471 -832C472 -800 473 -737 473 -710V-367H419C397 -367 373 -369 350 -371L376 -335C403 -345 435 -345 459 -345V-33C459 -4 444 14 416 30L465 84C467 86 469 87 471 87C473 87 474 85 476 82C485 62 502 38 532 19L664 -65L658 -78L503 -12V-345H575C606 -181 684 -59 872 37C876 39 878 40 880 40C882 40 884 38 886 34C903 4 926 -9 975 -9ZM313 -816L287 -772H112C89 -772 64 -774 39 -776L67 -740C84 -747 113 -751 134 -751H301V-561H172L121 -620C120 -598 118 -570 116 -546L98 -360L58 -331L113 -297C116 -295 118 -294 120 -294C123 -294 125 -296 128 -300L145 -324H280C277 -249 268 -94 261 -66C251 -27 238 -9 196 -9C170 -9 134 -16 82 -29L78 -12C167 15 179 27 189 63C191 70 193 72 197 72C198 72 200 72 203 71C266 47 298 7 306 -79C312 -145 321 -245 323 -306L356 -325C359 -327 361 -329 361 -332C361 -335 359 -338 354 -341L293 -381L268 -345H140L159 -540H301V-500C301 -495 302 -492 307 -492C310 -492 314 -493 321 -496C345 -506 349 -511 349 -521V-526C347 -548 346 -577 346 -604V-738L375 -753C380 -756 383 -759 383 -761C383 -764 380 -768 374 -772Z"/>
</svg>