<svg xmlns="http://www.w3.org/2000/svg" viewBox="0 -1000 1000 1000">
	<path fill="#000000" d="M828 -626C852 -607 869 -590 881 -571L729 -564C756 -590 815 -651 859 -699C872 -714 881 -720 898 -725C904 -727 907 -729 907 -731C907 -733 904 -735 899 -738L856 -766C844 -744 825 -716 804 -688L698 -687C722 -717 740 -737 783 -781C789 -787 803 -798 820 -803C826 -805 828 -806 828 -808C828 -810 826 -812 821 -815L774 -844C744 -788 721 -750 692 -709C685 -699 662 -687 643 -688L666 -652C668 -648 670 -647 673 -647C675 -647 677 -647 680 -649C692 -656 714 -662 790 -669C719 -571 700 -561 662 -561L681 -522C683 -517 686 -515 689 -515C691 -515 694 -516 697 -518C713 -527 779 -542 891 -554C895 -545 898 -536 901 -525C904 -514 910 -501 918 -501C932 -501 949 -513 949 -536C949 -569 920 -593 836 -637ZM586 -690L560 -657H408C385 -657 360 -659 335 -661L363 -626C380 -633 409 -637 430 -637H629C633 -637 635 -638 635 -640C635 -641 634 -643 631 -646ZM841 -499C874 -462 893 -420 895 -404C898 -382 905 -376 912 -376C929 -376 941 -396 941 -419V-426C940 -435 902 -477 849 -507ZM571 -531L549 -496H421L371 -534C373 -518 374 -493 374 -481V-436C374 -411 374 -386 372 -373C372 -371 371 -368 371 -367C371 -362 373 -359 377 -359C385 -359 417 -369 417 -381V-390H560V-361C560 -356 561 -352 567 -352C571 -352 605 -363 605 -374C605 -383 603 -425 603 -433V-473L619 -483C623 -485 624 -488 624 -490C624 -493 623 -496 619 -498ZM417 -410V-476H560V-410ZM425 -839C463 -811 481 -779 484 -766C487 -754 492 -742 502 -742C517 -742 531 -761 531 -782C531 -809 511 -825 432 -848ZM619 -781L589 -740H393C370 -740 345 -742 320 -744L348 -709C365 -716 394 -720 415 -720H669C673 -720 675 -721 675 -723C675 -725 673 -727 671 -729ZM253 -619C271 -600 283 -582 291 -566L150 -557C175 -582 219 -627 263 -674C280 -692 287 -698 304 -703C310 -705 313 -707 313 -709C313 -711 310 -713 305 -716L262 -740C252 -724 241 -705 229 -687L111 -683C134 -705 167 -739 206 -785C213 -793 228 -802 245 -807C251 -809 254 -811 254 -813C254 -815 251 -817 246 -820L197 -848C168 -792 143 -750 105 -703C96 -692 74 -684 54 -682L74 -642C76 -639 78 -637 80 -637C82 -637 85 -638 88 -640C104 -649 134 -660 217 -669C181 -617 134 -550 78 -550L96 -510C98 -507 100 -505 102 -505C104 -505 107 -506 110 -508C136 -523 192 -539 298 -548C300 -541 302 -534 303 -527C306 -506 310 -501 318 -501C330 -501 347 -515 347 -535C347 -564 308 -600 261 -627ZM593 -609L566 -576H415C392 -576 367 -578 342 -580L370 -545C387 -552 416 -556 437 -556H635C639 -556 641 -557 641 -559C641 -561 639 -563 637 -565ZM749 -492C774 -454 783 -422 783 -405C783 -385 786 -377 799 -377C817 -377 830 -394 830 -412C830 -415 830 -419 829 -422C824 -440 805 -464 757 -501ZM692 -492C682 -440 678 -433 656 -409C642 -394 638 -386 638 -381C638 -373 645 -363 661 -363C705 -363 709 -411 709 -438C709 -454 707 -472 704 -492ZM259 -487C288 -448 301 -409 301 -391C301 -369 305 -363 317 -363C331 -363 345 -380 345 -399C345 -429 302 -471 268 -494ZM173 -486C189 -454 197 -424 197 -401C197 -397 194 -377 194 -373C194 -359 201 -353 212 -353C228 -353 242 -369 242 -390C242 -405 229 -447 182 -493ZM113 -483C109 -425 82 -384 66 -375C48 -365 48 -356 48 -350C51 -337 62 -330 74 -330C97 -330 129 -355 129 -438C129 -451 128 -466 127 -482ZM783 -164L755 -131H256L293 -214H704V-187C704 -182 705 -179 711 -179C712 -179 749 -186 749 -200C749 -209 747 -251 747 -259V-298C770 -312 772 -314 772 -317C772 -319 770 -322 766 -325L713 -361L692 -328H240C217 -328 192 -329 167 -332L195 -297C212 -304 241 -308 262 -308H704V-234H309L269 -277C266 -261 261 -246 253 -226L221 -150L175 -137L225 -83C226 -81 227 -81 229 -81C231 -81 234 -82 238 -86L264 -111H764C754 -60 733 -21 719 -4C708 9 696 17 671 17C646 17 608 9 545 -11L541 4C609 31 632 50 635 77C636 85 637 88 643 88C754 88 795 -52 808 -97L841 -109C846 -111 848 -112 848 -114C848 -116 847 -118 843 -121Z"/>
</svg>