<svg xmlns="http://www.w3.org/2000/svg" viewBox="0 -1000 1000 1000">
	<path fill="#000000" d="M855 -826C783 -698 698 -571 615 -489L623 -477C727 -562 798 -649 865 -745C873 -757 889 -765 904 -768C909 -769 912 -770 912 -773C912 -775 910 -777 906 -781ZM627 -645L594 -598H532V-788L556 -805C559 -807 561 -810 561 -812C561 -814 559 -816 555 -819L483 -861C485 -824 487 -756 487 -715V-598C439 -598 436 -598 386 -602L414 -565C418 -567 441 -576 487 -576C446 -421 371 -256 301 -154L309 -147C387 -238 448 -352 487 -460V-196C487 -109 486 -38 484 22V28C484 39 486 44 491 44C495 44 502 41 513 35C529 25 534 21 534 7V2C532 -43 532 -118 532 -194V-461C573 -429 595 -391 603 -363C612 -331 615 -324 624 -324C638 -324 650 -342 650 -366C650 -372 650 -378 648 -384C643 -405 588 -452 532 -480V-576H674C680 -576 683 -577 683 -580C683 -582 681 -586 677 -590ZM261 -583H367C375 -583 379 -585 379 -588C379 -590 376 -594 372 -598L319 -650L287 -605H261V-785L287 -801C292 -804 295 -807 295 -810C295 -813 292 -815 286 -819L214 -858C216 -821 218 -753 218 -712V-605H124C101 -605 76 -607 51 -609L79 -572C96 -579 125 -583 146 -583H218C184 -422 105 -229 39 -116L48 -109C117 -192 173 -312 218 -461V-180C218 -93 218 -36 215 37V43C215 55 217 60 222 60C226 60 233 57 242 52C258 42 263 36 263 22V18C261 -27 261 -102 261 -178V-474C303 -441 329 -407 336 -385C344 -361 353 -351 363 -351C373 -351 385 -367 385 -386C385 -425 320 -468 261 -491ZM860 -550C771 -411 713 -337 600 -237L608 -226C716 -298 773 -356 871 -478C880 -489 893 -498 911 -501C915 -502 918 -503 918 -505C918 -507 916 -509 913 -511ZM890 -324C769 -113 680 -22 510 82L515 95C690 22 791 -85 895 -239C906 -255 920 -261 936 -263C942 -264 945 -266 945 -268C945 -270 943 -272 939 -276Z"/>
</svg>