<svg xmlns="http://www.w3.org/2000/svg" viewBox="0 -1000 1000 1000">
	<path fill="#000000" d="M567 -849C487 -815 219 -746 80 -724L81 -710C232 -726 350 -746 546 -787C558 -790 574 -792 588 -792C591 -792 608 -789 612 -789C615 -789 617 -791 617 -792C617 -794 616 -795 614 -797ZM842 -837C771 -728 679 -619 570 -524L579 -514C681 -585 754 -656 858 -766C863 -772 879 -780 891 -780C904 -780 905 -780 905 -783C905 -784 903 -787 900 -790ZM284 -717C327 -657 341 -624 342 -593C343 -565 351 -555 364 -555C380 -555 399 -574 399 -601C399 -638 370 -671 294 -722ZM541 -737C524 -686 472 -553 445 -496L456 -490C577 -683 583 -690 604 -690C608 -690 610 -692 610 -694C610 -695 609 -697 606 -699ZM119 -670C172 -601 191 -547 198 -517C204 -492 210 -486 220 -486C235 -486 252 -512 252 -537C252 -570 209 -618 126 -678ZM865 -566C759 -429 683 -352 560 -249L569 -237C698 -323 752 -369 872 -488C880 -496 895 -503 908 -503C910 -503 917 -502 919 -502C922 -502 924 -503 924 -505C924 -507 923 -510 919 -513ZM557 -466L514 -410H368V-462C378 -469 395 -480 395 -482C395 -483 394 -484 390 -486L318 -519C320 -483 322 -452 322 -410H132C109 -410 84 -412 59 -414L87 -377C104 -384 133 -388 154 -388H319C264 -275 171 -137 41 1L49 12C164 -90 252 -193 322 -313V-102C322 -58 321 -13 319 45V53C319 70 321 77 329 77C333 77 339 75 348 71C369 62 372 58 372 44V37C369 -8 368 -50 368 -100V-388H621C627 -388 630 -389 630 -391C630 -392 628 -395 624 -399ZM377 -292C457 -235 500 -192 517 -159C534 -126 544 -120 552 -120C562 -120 572 -137 572 -158C572 -214 504 -253 384 -300ZM902 -309C757 -113 629 -18 404 77L409 91C600 36 749 -57 908 -226C915 -234 930 -242 943 -242C945 -242 954 -240 956 -240C960 -240 962 -241 962 -244C962 -246 960 -249 956 -253Z"/>
</svg>