<svg xmlns="http://www.w3.org/2000/svg" viewBox="0 -1000 1000 1000">
	<path fill="#000000" d="M528 -494H426L377 -540C376 -515 375 -491 372 -463L357 -341L321 -316L371 -274C374 -272 376 -271 377 -271C380 -271 382 -273 401 -297H518C499 -145 424 -23 253 78L260 90C368 43 443 -19 478 -71C529 -147 555 -199 566 -297H672V-137C672 -106 670 31 670 59C670 73 671 78 677 78C682 78 688 75 697 71C719 61 723 57 723 47V42C720 -3 718 -78 718 -154V-297H874C873 -230 868 -184 862 -151C857 -124 853 -113 821 -113C803 -113 777 -116 739 -122L738 -109C796 -96 813 -76 818 -50C819 -44 821 -41 824 -41C827 -41 830 -42 835 -45C903 -82 910 -93 922 -276L949 -293C954 -296 957 -299 957 -302C957 -305 954 -308 950 -311L889 -353L864 -319H718V-472H828V-433C828 -425 829 -422 832 -422C834 -422 878 -441 878 -457C878 -478 875 -513 875 -534V-635L902 -651C907 -654 910 -657 910 -659C910 -662 907 -665 902 -668L840 -713L814 -671H718V-796C743 -814 746 -816 746 -820C746 -823 742 -825 733 -829L669 -856C671 -820 672 -759 672 -671H574V-796C586 -804 606 -816 606 -819C606 -821 603 -823 598 -825L525 -853C527 -830 528 -767 528 -725V-671H441C418 -671 393 -673 368 -675L396 -638C413 -645 452 -649 473 -649H528ZM672 -319H568C572 -361 575 -412 574 -472H672ZM672 -494H574V-649H672ZM398 -319L418 -472H528C528 -411 526 -360 521 -319ZM718 -494V-649H828V-494ZM204 -113C204 -57 203 5 201 64V70C201 81 203 86 209 86C214 86 220 84 229 80C249 71 253 67 253 53V46C252 22 250 -43 250 -122V-461C265 -482 281 -506 299 -533C311 -551 321 -558 339 -564C345 -566 348 -569 348 -571C348 -573 346 -575 343 -578L288 -616C215 -477 140 -363 46 -242L56 -231C117 -294 158 -338 204 -398ZM307 -831C225 -717 179 -667 55 -556L63 -545C183 -633 225 -666 316 -755C323 -762 332 -765 354 -767C360 -768 362 -769 362 -771C362 -773 361 -775 358 -778Z"/>
</svg>