<svg xmlns="http://www.w3.org/2000/svg" viewBox="0 -1000 1000 1000">
	<path fill="#000000" d="M774 -588L742 -545H664C748 -648 759 -655 772 -655C783 -655 788 -657 788 -660C788 -662 785 -666 779 -670L730 -708C699 -644 677 -601 641 -545H517C494 -545 469 -547 444 -549L472 -512C489 -519 514 -523 537 -523H808C819 -523 825 -524 825 -529C825 -531 823 -535 818 -540ZM861 -806L836 -761H433L372 -809C374 -772 376 -704 376 -663V-159C376 -102 375 -12 373 47V59C373 74 374 79 381 79C385 79 392 77 401 73C421 65 425 60 425 45V39C422 -6 421 -81 421 -157V-739H850V-26C850 4 849 17 819 17C798 17 763 11 704 -1L701 13C792 39 807 59 809 87C810 94 811 97 816 97C818 97 822 96 826 94C885 70 895 49 895 -12V-722L921 -744C925 -747 927 -750 927 -753C927 -756 924 -759 919 -763ZM118 -623C112 -527 91 -488 55 -449C43 -435 37 -427 37 -419C37 -415 39 -395 64 -395C76 -395 90 -401 104 -413C127 -434 139 -471 139 -534C139 -559 137 -589 133 -623ZM230 -783C261 -802 261 -802 261 -806C261 -809 258 -813 250 -817L181 -858C183 -823 185 -758 185 -719V-147C185 -93 184 -7 182 49V58C182 74 184 80 191 80C195 80 201 78 210 74C230 65 234 61 234 47V41C231 -1 230 -73 230 -145V-627C267 -598 294 -559 304 -535C313 -514 319 -511 328 -511C340 -511 350 -529 350 -548C350 -557 348 -565 344 -573C333 -589 297 -615 230 -642ZM478 -690C527 -654 546 -623 555 -595C561 -576 564 -571 573 -571C586 -571 601 -585 601 -607C601 -645 550 -678 484 -700ZM565 -500C596 -476 616 -444 626 -416C633 -397 637 -392 646 -392C658 -392 674 -404 674 -433C674 -459 632 -488 572 -509ZM754 -418L723 -374H503C480 -374 455 -376 430 -378L458 -341C474 -348 497 -352 528 -352V-175L496 -149L543 -119C547 -116 550 -115 553 -115C557 -115 559 -118 576 -143H775C782 -143 786 -144 786 -148C786 -150 784 -154 779 -159L735 -207L700 -165H571V-352H792C803 -352 809 -354 809 -358C809 -361 806 -364 802 -369Z"/>
</svg>