<svg xmlns="http://www.w3.org/2000/svg" viewBox="0 -1000 1000 1000">
	<path fill="#000000" d="M858 -745L835 -701H498C513 -724 526 -749 539 -773C548 -790 551 -793 574 -798C581 -800 584 -801 584 -804C584 -806 581 -809 576 -812L519 -850C469 -731 402 -598 319 -474L330 -466C378 -520 434 -596 485 -679H587C538 -550 480 -451 340 -336L349 -325C479 -401 582 -535 637 -679H722C690 -484 619 -371 402 -263L409 -251C641 -340 727 -451 770 -679H844C844 -584 838 -475 833 -411C828 -348 822 -323 770 -323C748 -323 716 -328 672 -336L668 -321C745 -298 760 -285 766 -260C768 -253 770 -250 774 -250C776 -250 779 -251 782 -252C867 -289 872 -303 878 -418C882 -490 887 -594 890 -668L920 -688C925 -691 927 -694 927 -696C927 -699 925 -701 920 -704ZM123 -607C117 -517 93 -481 66 -457C47 -439 40 -430 40 -422C40 -416 47 -400 67 -400C79 -400 94 -406 111 -421C131 -438 141 -475 141 -545C141 -563 140 -584 139 -607ZM241 -793C265 -807 267 -809 267 -812C267 -815 265 -817 260 -820L191 -857C193 -820 195 -754 195 -713V-159C195 -102 194 -14 192 45V56C192 71 194 77 201 77C205 77 212 75 221 71C241 63 244 59 244 46V37C242 -7 241 -62 241 -157V-649C275 -631 300 -604 310 -587C317 -576 329 -565 336 -565C348 -565 357 -578 357 -594C357 -630 330 -651 241 -666ZM574 -273C606 -238 624 -205 632 -154C634 -139 644 -133 655 -133C668 -133 685 -153 685 -177C685 -204 667 -227 581 -281ZM823 -184C872 -131 900 -86 908 -54C915 -26 926 -9 936 -9C951 -9 967 -28 967 -62C967 -93 920 -141 830 -194ZM764 -148C761 -14 756 -1 714 2C689 4 647 5 613 5C521 5 516 1 516 -31V-168C541 -178 544 -179 544 -182C544 -185 542 -188 538 -190L469 -230C470 -209 471 -166 471 -139V-8C471 37 494 42 590 42H721C776 42 801 29 816 -11C818 -15 819 -19 819 -21C819 -25 816 -28 811 -31C790 -45 782 -69 777 -148ZM380 -196C370 -121 340 -70 301 -42C289 -33 284 -21 284 -13C284 -5 290 9 309 9C348 9 394 -31 394 -160C394 -171 394 -183 393 -195Z"/>
</svg>