<svg xmlns="http://www.w3.org/2000/svg" viewBox="0 -1000 1000 1000">
	<path fill="#000000" d="M113 -619C113 -534 83 -481 62 -453C47 -434 42 -424 42 -417C42 -407 53 -397 70 -397C81 -397 95 -402 108 -415C123 -431 134 -467 134 -532C134 -557 132 -586 129 -619ZM237 -790C265 -807 269 -809 269 -812C269 -815 264 -818 256 -822L188 -856C190 -821 192 -756 192 -717V-145C192 -91 191 -5 189 51V60C189 76 191 82 198 82C202 82 208 80 217 76C237 67 241 63 241 49V43C238 1 237 -71 237 -143V-637C261 -617 288 -584 300 -555C310 -531 317 -525 326 -525C339 -525 351 -542 351 -562C351 -608 291 -631 237 -652ZM807 -801C809 -769 810 -752 810 -725V-595H661V-797C685 -813 688 -814 688 -817C688 -820 685 -822 679 -825L612 -857C614 -828 615 -811 615 -788V-595H469V-733C494 -749 497 -751 497 -754C497 -757 494 -759 488 -762L422 -796C424 -767 425 -750 425 -727V-609L394 -581L444 -544C447 -542 449 -541 451 -541C454 -541 456 -543 459 -547L476 -573H810V-533C810 -528 811 -525 817 -525C821 -525 826 -526 835 -529C853 -535 857 -538 857 -546C857 -560 855 -584 855 -599V-743L874 -758C879 -762 881 -764 881 -767C881 -769 878 -771 872 -774ZM892 -516L849 -465H372C349 -465 324 -467 299 -469L327 -432C344 -439 373 -443 394 -443H590C585 -403 573 -361 554 -315H428L373 -362C374 -330 375 -272 375 -237V-127C375 -78 374 -1 372 49V57C372 71 374 77 381 77C385 77 391 75 400 71C419 63 423 60 423 47V42C421 3 420 -60 420 -126V-293H525V-146C525 -91 524 -66 522 -7V2C522 19 524 25 532 25C537 25 545 23 555 19C571 13 574 10 574 -7V-15C571 -60 570 -91 570 -144V-293H681V-160C681 -105 680 -80 678 -21V-13C678 4 680 11 688 11C693 11 700 9 710 5C727 -2 730 -6 730 -21V-29C727 -74 726 -105 726 -158V-293H838V-4C838 10 836 17 812 17C797 17 771 14 731 9L728 22C797 43 810 51 818 84C819 89 821 91 825 91C827 91 829 90 832 89C877 66 883 57 883 2V-277C916 -300 917 -300 917 -305C917 -308 913 -311 907 -316L854 -355L825 -315H579C603 -361 634 -413 654 -443H940C949 -443 954 -444 954 -448C954 -450 951 -455 945 -461Z"/>
</svg>