<svg xmlns="http://www.w3.org/2000/svg" viewBox="0 -1000 1000 1000">
	<path fill="#000000" d="M879 -791L835 -737H492C501 -751 510 -766 518 -781C527 -797 531 -800 551 -803C561 -805 566 -806 566 -809C566 -811 562 -814 554 -820L500 -860C450 -743 355 -569 301 -495L312 -486C340 -512 382 -567 428 -636C429 -608 430 -576 430 -558V-446C430 -389 429 -368 427 -346C426 -339 426 -334 426 -330C426 -323 427 -320 432 -320C436 -320 443 -323 453 -327C470 -335 474 -339 475 -355H802C802 -320 802 -316 810 -316C814 -316 820 -318 829 -323C847 -332 852 -335 852 -346C852 -350 852 -354 851 -359C848 -385 847 -416 847 -434V-587L874 -605C880 -610 883 -612 883 -615C883 -618 880 -620 874 -624L814 -664L789 -620H479L439 -652C452 -672 466 -693 479 -715H930C943 -715 949 -716 949 -720C949 -723 944 -729 935 -737ZM475 -498V-598H802V-498ZM475 -377V-476H802V-377ZM111 -620C105 -521 91 -488 49 -436C42 -427 39 -422 39 -417C39 -415 41 -397 62 -397C79 -397 103 -409 118 -432C127 -447 134 -474 134 -519C134 -545 132 -579 126 -620ZM238 -793C249 -801 267 -814 267 -817C267 -819 264 -821 259 -824L188 -857C190 -822 192 -757 192 -718V-148C192 -115 188 32 188 62C188 77 190 84 197 84C201 84 208 81 217 77C237 67 241 64 241 49V44C238 2 238 -74 238 -146V-661C263 -643 283 -612 289 -593C296 -570 303 -566 314 -566C326 -566 334 -583 334 -600C334 -644 276 -664 238 -675ZM970 1C876 -8 772 -28 685 -71C718 -99 753 -140 793 -189C812 -214 826 -228 838 -231C850 -234 855 -236 855 -239C855 -242 851 -246 844 -252L800 -290L771 -260H513C526 -276 542 -291 555 -295C565 -298 570 -300 570 -303C570 -306 566 -310 558 -315L512 -344C443 -222 358 -114 286 -36L293 -26C357 -75 432 -153 492 -232C522 -176 565 -117 620 -71C521 0 414 45 283 78V93C405 80 548 29 653 -45C735 10 868 58 873 58C877 58 879 55 882 50C895 28 919 19 970 14ZM768 -238C732 -185 685 -127 646 -92C592 -128 544 -183 508 -238Z"/>
</svg>