<svg xmlns="http://www.w3.org/2000/svg" viewBox="0 -1000 1000 1000">
	<path fill="#000000" d="M897 -585L857 -531H430C444 -546 459 -562 473 -578C482 -588 491 -592 505 -593C511 -594 514 -595 514 -598C514 -601 511 -605 505 -610L457 -651C432 -610 400 -567 371 -531H107C84 -531 59 -533 34 -535L62 -498C79 -505 108 -509 129 -509H353C260 -399 154 -304 40 -219L46 -209C123 -250 199 -305 282 -381V-317C282 -310 279 -225 279 -207C279 -194 281 -189 288 -189C293 -189 299 -191 308 -194C325 -200 327 -205 327 -215V-242H718V-202C718 -195 719 -191 724 -191C728 -191 735 -193 745 -197C763 -204 767 -208 767 -221C767 -235 765 -298 765 -311V-375L791 -392C796 -395 799 -398 799 -401C799 -404 796 -407 791 -411L734 -455L703 -414H316C347 -443 377 -474 410 -509H942C953 -509 958 -511 958 -514C958 -517 955 -521 950 -527ZM327 -264V-392H718V-264ZM871 -758L829 -703H675V-778C701 -795 704 -797 704 -801C704 -805 701 -808 694 -811L626 -841C628 -808 629 -775 629 -750V-703H373V-779C401 -799 404 -801 404 -805C404 -808 400 -811 393 -814L324 -845C326 -812 327 -779 327 -754V-703H158C135 -703 110 -705 85 -707L113 -670C130 -677 159 -681 180 -681H327C327 -669 326 -613 326 -602C326 -589 327 -583 333 -583C337 -583 343 -586 352 -590C371 -599 375 -602 375 -610C375 -621 373 -671 373 -681H629C629 -668 628 -613 628 -601C628 -588 630 -582 636 -582C640 -582 646 -584 654 -588C673 -597 677 -600 677 -608C677 -620 675 -671 675 -681H921C928 -681 931 -682 931 -686C931 -689 928 -694 922 -701ZM425 -213C481 -167 501 -128 512 -87C516 -70 521 -64 530 -64C544 -64 567 -88 567 -114C567 -143 528 -182 431 -223ZM767 -152C829 -107 864 -42 872 -5C877 21 883 25 897 25C912 25 931 5 931 -34C931 -60 890 -106 773 -164ZM189 -174C172 -81 149 -52 90 -17C73 -7 65 4 65 13C65 20 75 42 101 42C109 42 119 40 130 34C178 8 201 -46 201 -173ZM701 -124C691 6 688 17 630 22C609 24 575 25 538 25C495 25 447 24 408 22C357 20 351 16 351 -16V-103C377 -121 380 -123 380 -126C380 -129 378 -131 374 -133L304 -170C305 -149 306 -105 306 -78V15C306 63 306 68 553 68C717 68 720 66 752 15C754 12 755 9 755 6C755 3 753 1 749 -1C724 -11 714 -33 715 -124Z"/>
</svg>