<svg xmlns="http://www.w3.org/2000/svg" viewBox="0 -1000 1000 1000">
	<path fill="#000000" d="M974 -611C827 -625 670 -687 542 -813C545 -813 558 -812 560 -812C567 -812 570 -814 570 -816C570 -819 567 -822 560 -825L489 -855C417 -767 216 -610 28 -494L32 -481C89 -508 136 -531 187 -561V-308C187 -267 186 -239 183 -197V-192C183 -186 184 -183 188 -183C192 -183 198 -186 207 -191C232 -204 233 -207 233 -219V-322H434V-260C434 -242 431 -234 405 -234C389 -234 363 -237 323 -244V-230C391 -217 409 -202 415 -175C416 -171 417 -170 420 -170C422 -170 424 -170 428 -172C477 -195 480 -207 480 -261V-499C490 -506 507 -518 507 -521C507 -524 505 -526 501 -529L447 -569L416 -534H238L194 -566C273 -614 364 -681 527 -808C616 -696 737 -615 881 -552C883 -551 886 -550 888 -550C891 -550 893 -552 895 -554C906 -572 927 -594 975 -597ZM233 -437V-512H434V-437ZM233 -344V-415H434V-344ZM614 -671L575 -627H363C345 -627 328 -628 304 -629L332 -596C349 -602 364 -605 385 -605H673C679 -605 682 -606 682 -609C682 -611 680 -614 675 -619ZM588 -552C590 -525 591 -507 591 -477V-387C591 -372 589 -308 589 -295C589 -290 590 -288 594 -288C596 -288 639 -303 639 -316V-320C637 -336 637 -358 637 -386V-492L661 -509C665 -512 667 -514 667 -516C667 -518 664 -520 659 -522ZM753 -557C755 -527 757 -473 757 -440V-266C757 -242 754 -232 715 -232C699 -232 677 -234 647 -237L645 -222C720 -209 730 -194 736 -173C738 -167 740 -164 743 -164C745 -164 748 -165 751 -167C802 -196 803 -203 803 -244V-492L830 -509C834 -511 836 -513 836 -515C836 -517 833 -519 829 -521ZM459 -176C495 -141 511 -100 515 -76C517 -63 526 -57 539 -57C552 -57 567 -80 567 -100C567 -141 515 -165 469 -186ZM673 -125C669 -7 657 13 609 15C584 16 547 17 508 17C468 17 426 16 389 14C349 12 344 2 344 -17V-100L375 -116C379 -119 381 -121 381 -122C381 -124 379 -126 375 -128L296 -171C297 -150 298 -115 298 -80V2C298 57 298 57 507 57C694 57 703 55 728 7C729 5 729 4 729 2C729 -1 727 -4 722 -6C702 -14 686 -31 688 -125ZM179 -148C165 -69 122 -35 81 -14C62 -4 53 7 53 20C53 37 68 48 86 48C96 48 106 46 119 39C151 22 193 -12 193 -147ZM754 -131C837 -75 859 -17 866 11C870 25 881 44 893 44C895 44 929 37 929 -2C929 -8 928 -14 927 -20C923 -44 882 -92 760 -142Z"/>
</svg>