<svg xmlns="http://www.w3.org/2000/svg" viewBox="0 -1000 1000 1000">
	<path fill="#000000" d="M799 -568C823 -553 848 -524 863 -493L666 -489C735 -574 770 -608 793 -614C798 -615 800 -616 800 -618C800 -619 798 -621 794 -622L731 -647C715 -608 701 -581 676 -540C658 -511 653 -505 625 -495L656 -444C658 -440 659 -438 661 -438C663 -438 664 -439 667 -441C679 -448 718 -458 752 -462L871 -476C874 -469 876 -461 878 -454C883 -433 887 -429 895 -429C908 -429 926 -440 926 -472C926 -496 907 -526 807 -580ZM972 -300C825 -302 708 -347 635 -431C638 -432 652 -433 652 -436C652 -437 650 -439 647 -441L595 -467C498 -371 389 -292 257 -221L264 -209C385 -254 482 -314 619 -423C682 -341 749 -292 879 -242C882 -241 884 -240 886 -240C888 -240 890 -242 891 -244C903 -267 930 -284 972 -287ZM685 -772C732 -746 766 -717 792 -685L457 -681C567 -772 618 -800 649 -804C657 -805 660 -806 660 -808C660 -810 658 -812 653 -814L585 -852C549 -802 511 -761 456 -711C430 -687 414 -682 359 -681L397 -629C399 -626 401 -624 404 -624C406 -624 408 -625 410 -627C420 -636 461 -643 542 -649L805 -667C813 -657 819 -645 825 -634C835 -614 840 -613 849 -613C864 -613 875 -628 875 -650C875 -698 822 -737 692 -783ZM512 -569C536 -542 559 -509 561 -484L379 -482C472 -577 499 -594 522 -598C527 -599 529 -600 529 -602C529 -603 528 -605 524 -608L476 -641C447 -596 415 -556 376 -512C359 -492 340 -482 295 -474L336 -431C339 -429 341 -428 342 -428C344 -428 346 -429 347 -430C364 -443 393 -451 428 -455L564 -471C568 -462 581 -461 582 -461C590 -461 605 -475 605 -498C605 -517 588 -541 520 -578ZM110 -628C106 -539 84 -497 51 -465C36 -450 30 -438 30 -428C30 -413 42 -405 56 -405C77 -405 133 -423 133 -555C133 -577 131 -601 127 -628ZM227 -777L260 -797C265 -800 267 -802 267 -804C267 -806 265 -808 260 -810L180 -850C182 -815 183 -745 183 -706V-136C183 -105 178 33 178 61C178 77 180 83 187 83C191 83 197 81 206 77C227 68 229 63 229 44C228 3 227 -62 227 -134V-633C274 -594 291 -573 299 -542C304 -523 309 -516 322 -516C334 -516 346 -534 346 -555C346 -595 302 -622 227 -649ZM614 -338C542 -259 453 -201 331 -140L336 -125C417 -150 509 -200 592 -259C636 -291 652 -296 666 -297C670 -297 672 -298 672 -299C672 -301 670 -303 666 -305ZM711 -258C636 -183 478 -84 343 -34L347 -19C476 -56 593 -111 689 -182C722 -206 741 -213 756 -213C768 -213 768 -213 768 -215C768 -217 766 -219 762 -222ZM822 -203C709 -69 542 29 307 75L311 91C500 67 658 2 786 -104C827 -138 854 -149 873 -149C878 -149 883 -149 883 -152C883 -154 881 -156 876 -160Z"/>
</svg>