<svg xmlns="http://www.w3.org/2000/svg" viewBox="0 -1000 1000 1000">
	<path fill="#000000" d="M295 -619C340 -580 367 -530 373 -508C385 -467 389 -459 402 -459C418 -459 433 -482 433 -506C433 -561 316 -622 302 -630ZM915 -206C898 -21 885 -17 840 -12C814 -9 791 -7 764 -7C695 -7 689 -11 689 -64V-371C748 -341 813 -285 829 -260C846 -233 852 -230 862 -230C876 -230 884 -247 884 -268C884 -283 879 -300 868 -312C842 -341 788 -363 689 -391V-474L859 -584C872 -592 894 -601 906 -602C914 -603 918 -604 918 -606C918 -609 915 -612 909 -616L846 -660C802 -601 756 -556 689 -501V-763L717 -786C722 -790 724 -793 724 -796C724 -800 721 -803 714 -806L640 -838C642 -804 643 -757 643 -705V-66C643 22 645 38 775 38C799 38 820 36 843 34C915 28 932 23 961 -27C965 -33 966 -37 966 -40C966 -44 964 -47 958 -51C938 -66 930 -85 930 -152C930 -168 930 -185 931 -206ZM263 -845C221 -679 142 -483 31 -312L44 -304C96 -363 143 -438 184 -516V-128C184 -76 183 -19 181 40V50C181 66 183 72 190 72C194 72 200 70 209 66C230 57 233 53 233 40V32C230 -13 229 -64 229 -126V-533C238 -541 254 -554 254 -557C254 -559 252 -560 249 -562L216 -579C244 -639 269 -699 291 -754C300 -777 306 -784 326 -792C334 -795 338 -798 338 -801C338 -804 334 -807 326 -812ZM476 -824C479 -754 481 -684 481 -614C481 -537 479 -461 477 -388L254 -270L306 -227C311 -223 314 -221 317 -221C319 -221 321 -223 323 -227C334 -253 363 -278 475 -356C466 -136 411 -48 255 66L263 78C391 3 493 -74 515 -280C524 -363 530 -530 530 -757L554 -776C559 -780 561 -782 561 -785C561 -787 558 -789 552 -792Z"/>
</svg>