<svg xmlns="http://www.w3.org/2000/svg" viewBox="0 -1000 1000 1000">
	<path fill="#000000" d="M882 -33L843 13H629V-78H867C882 -78 883 -78 883 -80C883 -82 879 -85 871 -93L823 -137L789 -94H629V-189H796C796 -155 796 -151 803 -151C808 -151 814 -153 824 -157C841 -164 845 -167 845 -183V-190C842 -232 841 -261 841 -297V-378C851 -384 872 -399 872 -402C872 -405 869 -408 862 -413L809 -451L783 -411H629V-493H928C941 -493 944 -493 944 -495C944 -497 940 -501 932 -509L880 -559L846 -509H629V-590C677 -593 724 -597 782 -603C789 -604 795 -604 801 -604C819 -604 831 -601 840 -597C846 -595 850 -593 853 -593C856 -593 857 -595 857 -597C857 -600 855 -605 851 -612L820 -651C743 -632 549 -608 361 -597V-584C458 -585 524 -586 583 -588V-509H356C333 -509 308 -511 283 -513L311 -483C328 -489 357 -493 377 -493H583V-411H428L371 -456C373 -427 374 -381 374 -359V-283C374 -237 373 -209 371 -172V-159C371 -147 373 -142 379 -142C383 -142 390 -144 399 -148C418 -155 418 -158 418 -189H583V-94H407C384 -94 360 -96 335 -98L363 -67C379 -74 408 -78 429 -78H583V13H343C320 13 295 11 270 9L298 40C315 33 344 29 365 29H932C946 29 947 29 947 28C947 26 943 22 935 15ZM629 -309V-395H796V-309ZM418 -309V-395H583V-309ZM629 -205V-293H796V-205ZM418 -205V-293H583V-205ZM108 -627C102 -520 86 -486 50 -437C47 -433 45 -424 45 -417C45 -403 55 -397 69 -397C91 -397 132 -413 132 -519C132 -549 129 -585 121 -627ZM222 -789C249 -804 252 -806 252 -810C252 -813 248 -816 241 -820L171 -857C173 -822 175 -757 175 -719V-135C175 -82 174 4 172 59V69C172 84 174 90 181 90C186 90 192 88 202 84C222 75 226 71 226 57V51C223 9 222 -62 222 -133V-643C255 -620 270 -600 283 -570C291 -551 300 -545 310 -545C323 -545 332 -559 332 -577C332 -619 288 -638 222 -657ZM880 -775L841 -727H730V-787C757 -805 757 -805 757 -808C757 -811 754 -813 747 -816L682 -844C684 -818 685 -796 685 -776V-727H532V-792C559 -809 562 -811 562 -815C562 -817 558 -819 551 -822L485 -850C487 -817 488 -789 488 -764V-727H350C327 -727 302 -729 277 -731L305 -701C322 -708 351 -712 371 -712H488C488 -702 487 -656 487 -647C487 -634 489 -629 495 -629C500 -629 534 -639 534 -653C534 -662 532 -704 532 -712H685C685 -705 684 -672 684 -666C684 -655 686 -651 693 -651C700 -651 731 -658 731 -670C731 -677 730 -706 730 -712H924C937 -712 939 -712 939 -713C939 -715 935 -718 928 -726Z"/>
</svg>