<svg xmlns="http://www.w3.org/2000/svg" viewBox="0 -1000 1000 1000">
	<path fill="#000000" d="M898 -573L861 -528L770 -525V-766H920C927 -766 931 -767 931 -771C931 -774 928 -779 923 -786L882 -839L840 -787H393C370 -787 345 -789 320 -791L348 -755C365 -762 394 -766 415 -766H461V-514L369 -511C346 -510 321 -511 296 -512L325 -477C342 -485 371 -490 392 -490L728 -502V-451C728 -441 728 -436 734 -436C735 -436 773 -447 773 -462C773 -464 772 -466 772 -468C770 -477 770 -489 770 -504L938 -510C945 -511 949 -512 949 -515C949 -518 946 -523 940 -529ZM502 -609V-679H728V-609ZM502 -700V-766H728V-700ZM502 -515V-588H728V-523ZM921 -150L889 -103L859 -101V-388H954C961 -388 965 -389 965 -392C965 -395 962 -400 956 -406L913 -453L874 -409H681C658 -409 633 -411 608 -413L636 -377C639 -378 643 -380 647 -381V-85C608 -82 605 -82 561 -80L592 -48C608 -57 638 -64 658 -66L819 -78V50C819 73 819 81 826 81C829 81 834 79 841 76C857 68 861 65 861 49C861 30 859 -60 859 -81L961 -89C967 -89 971 -91 971 -94C971 -97 967 -102 960 -109ZM685 -204V-289H819V-204ZM685 -310V-388H819V-310ZM685 -88V-183H819V-98ZM623 -134L542 -120V-390H597C603 -390 607 -391 607 -394C607 -397 604 -401 599 -408L564 -450L534 -411H315C292 -411 267 -413 242 -415L270 -379C297 -390 334 -390 346 -390V-86L255 -71L290 -28C292 -25 294 -24 296 -24C297 -24 299 -25 300 -27C309 -37 334 -48 394 -63L502 -89C502 -66 500 37 500 58C500 73 501 79 508 79C511 79 517 77 525 73C540 66 543 63 543 47C543 24 542 -78 542 -99L626 -119ZM383 -205V-290H502V-205ZM383 -311V-390H502V-311ZM383 -92V-184H502V-113ZM116 -647C112 -549 86 -508 62 -481C51 -468 47 -459 47 -451C47 -445 53 -426 71 -426C82 -426 94 -431 107 -443C121 -456 135 -498 135 -570C135 -594 133 -621 130 -651ZM227 -786L251 -801C256 -804 259 -807 259 -810C259 -813 256 -816 249 -820L180 -861C182 -826 184 -761 184 -722V-146C184 -70 183 -17 181 39V50C181 66 182 73 188 73C192 73 198 70 207 64C226 51 230 46 230 34V30C227 -25 227 -72 227 -144V-664C271 -635 294 -601 302 -576C310 -550 313 -547 324 -547C337 -547 352 -564 352 -585C352 -593 350 -601 345 -609C333 -628 301 -649 227 -678Z"/>
</svg>