<svg xmlns="http://www.w3.org/2000/svg" viewBox="0 -1000 1000 1000">
	<path fill="#000000" d="M555 -191L511 -145H339V-246H480V-218C480 -210 480 -205 486 -205C490 -205 495 -207 505 -211C524 -219 527 -223 527 -237V-245C524 -290 523 -319 523 -353V-465C551 -482 554 -484 554 -488C554 -491 552 -494 546 -497L488 -535L467 -504H170L110 -541C112 -510 113 -462 113 -438V-347C113 -339 110 -232 110 -211C110 -196 111 -190 118 -190C122 -190 128 -192 136 -196C155 -204 155 -208 155 -246H297V-145H89C66 -145 41 -147 16 -149L44 -113C61 -120 90 -124 111 -124H297C297 -69 296 1 294 55V66C294 81 295 86 301 86C305 86 310 84 318 81C338 72 341 70 341 57C341 41 339 -30 339 -45V-124H602C611 -124 615 -125 615 -127C615 -130 612 -134 605 -141ZM339 -388V-483H480V-388ZM155 -388V-483H297V-388ZM339 -267V-367H480V-267ZM155 -267V-367H297V-267ZM520 -799L499 -768H404C405 -768 352 -808 352 -808C355 -779 355 -751 355 -727V-662C355 -643 355 -600 353 -573C353 -569 352 -566 352 -563C352 -556 354 -553 358 -553C362 -553 369 -555 378 -559C397 -567 397 -569 397 -592H509C509 -571 509 -569 515 -569C522 -569 554 -578 554 -594C554 -605 552 -657 552 -668V-736L573 -748C578 -751 580 -753 580 -755C580 -758 578 -760 573 -763ZM397 -613V-747H509V-613ZM251 -801L228 -769H143L84 -815C87 -786 87 -758 87 -734V-655C87 -636 87 -593 85 -566C85 -562 84 -559 84 -556C84 -549 86 -546 90 -546C94 -546 101 -548 110 -552C129 -560 129 -563 129 -593H240C240 -565 240 -562 246 -562C253 -562 284 -570 284 -586C284 -598 282 -650 282 -661V-734L306 -747C312 -750 315 -753 315 -755C315 -758 311 -761 305 -765ZM129 -614V-748H240V-614ZM751 -760C797 -729 820 -695 839 -653C845 -640 850 -638 861 -638C868 -638 890 -657 890 -681C890 -685 889 -690 887 -695C876 -723 814 -753 755 -771ZM930 -163L894 -5C839 -23 782 -94 750 -170C793 -241 846 -360 867 -422C873 -424 904 -437 904 -440C904 -442 901 -445 895 -448L830 -483C811 -399 773 -296 733 -224C714 -295 704 -392 699 -517L951 -551C961 -553 966 -554 966 -557C966 -560 961 -564 953 -570L896 -614L860 -559L698 -537C696 -617 695 -698 696 -778L727 -795C732 -798 735 -800 735 -802C735 -805 731 -807 724 -810L647 -848C649 -733 652 -626 656 -532L615 -526C592 -523 564 -520 540 -518L578 -487C600 -501 625 -506 657 -512C665 -357 678 -238 702 -173C636 -75 559 -5 460 56L468 69C557 29 651 -37 722 -128C767 -37 814 14 882 49C908 63 938 76 953 76C960 76 966 71 966 65C966 58 962 50 953 35C946 23 939 -4 939 -57C939 -84 941 -118 945 -160Z"/>
</svg>