<svg xmlns="http://www.w3.org/2000/svg" viewBox="0 -1000 1000 1000">
	<path fill="#000000" d="M835 -438L811 -399H357L300 -441C301 -409 302 -351 302 -316V-120C302 -69 301 6 299 56V62C299 79 301 86 309 86C313 86 320 83 330 77C345 68 349 63 349 49V-200H470C470 -143 469 -62 467 -7V1C467 20 469 28 476 28C481 28 488 24 497 18C515 7 519 2 519 -10V-15C517 -57 517 -128 517 -200H642C642 -145 641 -80 639 -24V-15C639 3 641 11 648 11C652 11 659 7 669 2C687 -8 691 -11 691 -26V-32C689 -76 689 -127 689 -200H822V-11C822 3 820 11 795 11C778 11 750 8 706 0L703 14C774 33 796 48 799 80C800 85 802 88 806 88C809 88 812 87 816 85C864 62 869 50 869 3V-359L894 -378C898 -381 901 -384 901 -387C901 -390 898 -393 892 -397ZM517 -222V-377H642V-222ZM689 -222V-377H822V-222ZM349 -222V-377H470V-222ZM817 -748L791 -703H240L177 -753C178 -730 179 -710 179 -664C179 -225 169 -124 38 76L47 85C176 -40 219 -189 228 -526H805C805 -485 805 -484 812 -484C816 -484 823 -486 832 -492C850 -502 855 -505 855 -517C855 -528 852 -580 852 -590V-664L885 -688C891 -692 893 -695 893 -697C893 -700 891 -703 885 -706ZM229 -548C230 -599 231 -652 231 -681H805V-548ZM429 -840C483 -805 510 -770 519 -741C527 -715 533 -710 544 -710C557 -710 574 -728 574 -749C574 -787 508 -828 435 -849Z"/>
</svg>