<svg xmlns="http://www.w3.org/2000/svg" viewBox="0 -1000 1000 1000">
	<path fill="#000000" d="M807 -757L782 -712H228L164 -761C166 -738 168 -680 168 -630C168 -222 160 -109 38 70L48 80C188 -77 207 -184 218 -549H793V-517C793 -510 794 -506 798 -506C801 -506 842 -521 842 -537C842 -541 838 -599 838 -611V-674L869 -694C875 -698 878 -701 878 -703C878 -706 875 -709 869 -713ZM218 -569C219 -614 220 -662 221 -692H793V-569ZM423 -845C473 -811 503 -769 509 -743C513 -725 518 -720 530 -720C545 -720 562 -743 562 -766C562 -802 536 -825 429 -855ZM437 -528C439 -496 440 -434 440 -397H318C295 -397 270 -399 245 -401L273 -366C290 -373 319 -377 340 -377H440V-264H316C293 -264 268 -266 243 -268L271 -233C288 -240 317 -244 338 -244H440V-116H278C255 -116 230 -118 205 -120L233 -85C250 -92 279 -96 300 -96H440C440 -38 438 55 437 66V72C437 80 438 84 443 84C447 84 453 81 463 75C486 62 488 58 488 48C487 25 487 12 487 -12V-469L508 -480C512 -482 514 -484 514 -485C514 -487 512 -489 507 -492ZM885 -167L845 -114H653V-247H891C900 -247 904 -248 904 -251C904 -254 901 -258 895 -263L838 -315L801 -267H653V-377H913C924 -377 929 -378 929 -381C929 -383 925 -387 919 -393L859 -447L821 -397H653V-463L680 -478C684 -480 686 -482 686 -484C686 -486 683 -488 679 -490L603 -525C605 -492 606 -451 606 -415V-120C606 -23 605 61 604 71V77C604 85 605 88 610 88C612 88 656 74 656 59V55C654 33 653 -39 653 -94H943C953 -94 958 -95 958 -98C958 -100 954 -104 948 -110Z"/>
</svg>