<svg xmlns="http://www.w3.org/2000/svg" viewBox="0 -1000 1000 1000">
	<path fill="#000000" d="M440 -479L268 -408V-593H410C419 -593 424 -594 424 -598C424 -601 420 -606 414 -613L361 -669L323 -615H268V-769C299 -789 302 -791 302 -795C302 -799 298 -803 290 -807L218 -842C220 -804 222 -735 222 -693V-615H118C95 -615 70 -617 45 -619L73 -582C90 -589 119 -593 140 -593H222V-389L31 -310L71 -258C73 -255 75 -254 77 -254C79 -254 81 -256 84 -260C96 -277 128 -303 222 -351V-18C222 2 216 12 187 12C166 12 133 7 81 -5L78 9C162 35 177 50 183 81C184 86 186 88 188 88C190 88 192 87 195 86C264 51 268 45 268 -10V-375L447 -467ZM889 -83L849 -25H686V-641H904C914 -641 919 -643 919 -647C919 -650 916 -655 910 -661L857 -716L817 -663H510C487 -663 461 -665 437 -667L465 -631C481 -637 511 -641 532 -641H639V-25H409C386 -25 360 -27 336 -29L364 7C380 1 410 -3 431 -3H943C953 -3 958 -5 958 -10C958 -13 955 -18 948 -25Z"/>
</svg>