<svg xmlns="http://www.w3.org/2000/svg" viewBox="0 -1000 1000 1000">
	<path fill="#000000" d="M974 1C877 -10 755 -55 673 -124C723 -180 762 -254 795 -343C808 -377 822 -386 844 -395C852 -398 856 -400 856 -403C856 -406 852 -409 846 -413L780 -458L752 -419H511C488 -419 463 -421 438 -423L466 -386C474 -390 483 -392 491 -394C511 -301 555 -203 617 -129C534 -47 416 14 283 62L289 78C430 42 561 -19 646 -98C738 -6 867 51 869 51C872 51 874 50 875 48C890 25 921 13 974 14ZM760 -397C738 -309 700 -221 641 -154C580 -219 532 -309 508 -397ZM784 -730L821 -752C825 -754 826 -756 826 -757C826 -759 825 -761 821 -763L753 -813L721 -770H570L505 -820C506 -787 506 -758 506 -731C506 -539 483 -494 372 -397L381 -389C527 -483 542 -527 558 -748H737V-552C737 -500 755 -480 834 -480C868 -480 954 -483 954 -493C954 -499 926 -523 905 -538C881 -524 866 -520 833 -520C793 -520 784 -528 784 -568ZM355 -677L315 -624H254V-788L284 -807C288 -810 291 -812 291 -814C291 -816 288 -817 283 -820L204 -859C206 -822 208 -754 208 -713V-624H116C93 -624 68 -626 43 -628L71 -591C88 -598 117 -602 138 -602H208V-412L31 -310L73 -265C75 -263 77 -261 79 -261C82 -261 84 -264 87 -269C98 -289 108 -299 208 -371V-44C208 -25 206 -16 180 -16C160 -16 126 -22 67 -32L63 -16C147 6 163 21 171 54C172 60 174 63 177 63C179 63 181 62 184 61C248 27 254 20 254 -46V-404L380 -495L372 -506L254 -438V-602H413C420 -602 424 -603 424 -605C424 -607 421 -611 417 -615Z"/>
</svg>