<svg xmlns="http://www.w3.org/2000/svg" viewBox="0 -1000 1000 1000">
	<path fill="#000000" d="M535 -33V-298H838V-33ZM864 -784L834 -740H473C450 -740 425 -741 400 -744L428 -707C445 -714 474 -718 495 -718H582C576 -544 529 -416 356 -298L363 -284C558 -400 603 -481 634 -718H848C844 -654 838 -581 832 -531C825 -472 819 -448 773 -448C749 -448 715 -454 664 -465L660 -450C750 -421 763 -407 768 -376C769 -371 771 -368 774 -368C777 -368 781 -370 786 -372C862 -412 865 -417 877 -516C883 -565 891 -655 894 -700L925 -720C931 -724 934 -727 934 -730C934 -733 931 -736 925 -741ZM850 -364L819 -320H545L486 -363C488 -332 489 -284 489 -260V-78C489 -70 486 35 486 56C486 73 488 79 495 79C500 79 507 77 516 73C533 66 535 62 535 48V-11H838V54C838 62 839 67 845 67C848 67 854 65 864 61C885 52 889 48 889 33V27C886 -18 885 -47 885 -81V-290L909 -305C914 -308 917 -311 917 -314C917 -317 914 -320 909 -323ZM379 -674L341 -621H280V-780C312 -799 313 -799 313 -803C313 -805 310 -808 304 -811L231 -852C233 -815 235 -747 235 -706V-621H116C93 -621 68 -623 43 -625L71 -588C88 -595 117 -599 138 -599H235V-383L40 -285L83 -238C85 -236 87 -234 89 -234C92 -234 94 -237 97 -242C109 -261 116 -269 235 -343V-25C235 -3 230 8 203 8C182 8 147 1 91 -13L89 1C169 32 187 49 195 77C197 83 199 86 202 86C203 86 205 85 208 84C278 56 280 52 280 -14V-371L422 -460L415 -473L280 -405V-599H434C443 -599 447 -600 447 -603C447 -606 444 -610 438 -616Z"/>
</svg>