<svg xmlns="http://www.w3.org/2000/svg" viewBox="0 -1000 1000 1000">
	<path fill="#000000" d="M885 -672L842 -613H658V-778L687 -796C694 -800 698 -803 698 -805C698 -808 694 -811 687 -814L606 -854C608 -817 610 -748 610 -707V-339H493L429 -395C430 -366 432 -305 432 -271V-28C432 -12 428 58 428 72C428 82 430 87 437 87C441 87 449 84 460 80C473 75 475 73 475 62V-8H812V59C812 67 814 71 820 71C824 71 829 69 838 66C862 56 866 53 866 40C866 26 861 -71 861 -92V-303L894 -325C899 -329 902 -331 902 -334C902 -336 900 -338 896 -341L824 -389L792 -339H658V-591H945C956 -591 962 -592 962 -596C962 -599 957 -605 949 -612ZM411 -666L370 -611H271V-783C301 -802 301 -802 301 -806C301 -809 298 -811 291 -815L221 -854C223 -817 225 -749 225 -708V-611H128C105 -611 80 -613 55 -615L83 -578C100 -585 129 -589 150 -589H225V-374L49 -288L96 -241C99 -238 100 -237 102 -237C105 -237 107 -239 110 -245C121 -263 141 -281 225 -332V-31C225 -9 223 2 197 2C176 2 141 -4 81 -17L78 -3C165 23 185 45 193 78C194 84 196 87 199 87C201 87 203 86 206 85C267 51 271 44 271 -40V-360L435 -459L427 -473L271 -397V-589H471C478 -589 482 -590 482 -593C482 -596 479 -600 472 -607ZM475 -30V-317H812V-30Z"/>
</svg>