<svg xmlns="http://www.w3.org/2000/svg" viewBox="0 -1000 1000 1000">
	<path fill="#000000" d="M257 -840C217 -692 130 -490 29 -337L41 -327C83 -379 131 -450 178 -534V-134C178 -82 177 -25 175 34V43C175 60 177 66 184 66C189 66 196 64 205 60C225 52 228 48 228 35V26C225 -19 224 -70 224 -132V-531C231 -541 244 -558 244 -561C244 -564 242 -567 237 -569L206 -586C233 -636 260 -689 285 -744C296 -768 302 -774 323 -782C328 -784 330 -786 330 -788C330 -791 327 -794 320 -799ZM973 -37C883 -28 808 -24 747 -24C709 -24 675 -26 646 -29V-260H912C921 -260 926 -261 926 -264C926 -267 922 -272 915 -279L856 -336L815 -281H646V-475H783V-437C783 -428 784 -424 790 -424C795 -424 801 -426 812 -430C831 -438 835 -441 835 -457V-464C832 -509 830 -540 830 -598V-711L859 -726C865 -729 867 -732 867 -735C867 -737 865 -741 860 -745L800 -797L767 -756H463L402 -805C404 -774 405 -726 405 -702V-525C405 -509 402 -439 402 -424C402 -411 404 -406 411 -406C415 -406 422 -408 432 -412C449 -419 452 -423 452 -437V-475H599V-37C526 -55 488 -97 442 -189C451 -221 459 -257 467 -298C492 -315 495 -317 495 -320C495 -322 492 -324 488 -326L414 -361C405 -142 367 -34 230 76L238 86C348 14 397 -42 434 -163C485 -50 533 -2 612 10C664 17 798 32 866 32C874 32 877 30 883 22C897 2 925 -14 973 -25ZM452 -497V-734H783V-497Z"/>
</svg>