<svg xmlns="http://www.w3.org/2000/svg" viewBox="0 -1000 1000 1000">
	<path fill="#000000" d="M377 -676L336 -620H260V-775C293 -796 294 -797 294 -801C294 -804 290 -807 282 -811L211 -848C213 -811 215 -743 215 -702V-620H105C82 -620 57 -622 32 -624L60 -587C77 -594 106 -598 127 -598H215V-373L28 -298L70 -254C74 -249 77 -247 80 -247C82 -247 85 -249 87 -253C98 -268 129 -292 215 -337V-26C215 -6 213 5 186 5C167 5 136 0 84 -12L80 2C161 26 172 42 178 75C179 80 181 83 185 83C186 83 188 82 191 81C257 55 260 43 260 -34V-360L417 -438L412 -452L260 -391V-598H427C436 -598 440 -599 440 -603C440 -606 437 -610 431 -617ZM900 -566L856 -510H673L680 -727C728 -735 773 -743 809 -750C820 -752 832 -754 843 -754C848 -754 871 -749 876 -749C880 -749 882 -751 882 -753C882 -756 879 -761 872 -768L823 -812C732 -779 598 -742 417 -703L421 -690C476 -696 555 -707 634 -719L625 -510H438C415 -510 390 -512 365 -514L393 -477C410 -484 439 -488 460 -488H624L616 -299H488L426 -347C428 -316 429 -268 429 -244V-78C429 -70 426 35 426 56C426 73 428 79 435 79C440 79 447 77 456 73C473 66 475 62 475 48V-8H814V63C814 71 815 75 821 75C824 75 830 74 839 70C861 61 865 57 865 43V36C862 -9 861 -38 861 -72V-266L887 -280C892 -283 895 -285 895 -288C895 -291 892 -293 887 -297L826 -344L795 -299H666L672 -488H957C967 -488 971 -489 971 -493C971 -496 968 -500 961 -506ZM475 -30V-277H814V-30Z"/>
</svg>