<svg xmlns="http://www.w3.org/2000/svg" viewBox="0 -1000 1000 1000">
	<path fill="#000000" d="M486 -574L452 -530H332V-618H497C505 -618 509 -621 509 -626C509 -629 507 -632 504 -635L452 -683L422 -639H332V-726H512C521 -726 525 -728 525 -732C525 -735 523 -739 519 -743L472 -791L441 -747H332V-791C357 -806 360 -807 360 -811C360 -814 357 -817 351 -820L282 -856C284 -824 285 -799 285 -747H134C115 -747 95 -749 75 -751L98 -715C111 -722 134 -726 151 -726H285V-639H172C153 -639 133 -641 113 -643L136 -607C149 -614 172 -618 189 -618H285V-530H116C97 -530 77 -532 57 -534L80 -498C93 -505 116 -509 133 -509H285C285 -432 285 -418 282 -398C281 -394 281 -391 281 -389C281 -383 283 -381 287 -381C291 -381 298 -384 309 -389C330 -399 334 -403 334 -414C334 -440 332 -483 332 -509H527C535 -509 539 -512 539 -516C539 -519 537 -523 534 -526ZM861 -777L834 -738H606C587 -738 567 -740 547 -742L570 -706C583 -713 607 -717 623 -717H664C648 -570 598 -496 448 -402L453 -389C648 -487 685 -567 713 -717H846C841 -620 835 -566 829 -537C822 -505 814 -491 773 -491C753 -491 725 -494 686 -501L682 -487C747 -472 767 -456 772 -433C774 -423 777 -420 781 -420C783 -420 785 -421 788 -422C865 -457 873 -467 889 -704L912 -717C918 -720 921 -722 921 -725C921 -728 918 -731 913 -735ZM881 -182L840 -134H530V-222H841C849 -222 853 -224 853 -228C853 -232 850 -236 844 -241L785 -293L743 -243H530V-331C560 -333 694 -347 721 -347C735 -347 746 -345 761 -342C766 -341 769 -341 772 -341C776 -341 778 -342 778 -344C778 -346 776 -350 772 -355L731 -402C614 -374 433 -352 150 -329V-315C272 -316 363 -318 483 -327V-243H226C203 -243 178 -245 153 -247L181 -211C198 -218 227 -222 248 -222H483V-134H121C98 -134 73 -136 48 -138L76 -102C93 -109 122 -113 143 -113H483V-21C483 -1 481 10 446 10C425 10 393 6 343 -2L341 13C415 29 445 48 450 83C451 87 453 89 456 89C457 89 459 89 461 88C527 59 530 53 530 -8V-113H935C943 -113 948 -115 948 -119C948 -122 945 -126 938 -132Z"/>
</svg>