<svg xmlns="http://www.w3.org/2000/svg" viewBox="0 -1000 1000 1000">
	<path fill="#000000" d="M819 -581L792 -539H493L434 -582C436 -551 437 -506 437 -482V-402C437 -367 435 -315 434 -305C433 -297 433 -290 433 -285C433 -275 435 -271 440 -271C445 -271 452 -274 463 -279C483 -288 483 -292 483 -324H621V-6C621 9 616 17 588 17C568 17 537 13 489 5L487 18C567 42 586 58 591 83C592 90 594 93 597 93C599 93 601 92 604 91C665 64 668 52 668 6V-324H808V-276C808 -267 809 -262 814 -262C818 -262 822 -264 829 -267C855 -279 861 -283 861 -295C861 -298 855 -377 855 -392V-500L880 -515C886 -519 889 -521 889 -524C889 -527 886 -530 880 -534ZM483 -346V-517H808V-346ZM575 -840C622 -799 632 -759 636 -723C639 -699 643 -695 655 -695C671 -695 691 -715 691 -744C691 -749 690 -754 689 -760C684 -779 667 -811 580 -849ZM893 -733L852 -678H454C431 -678 406 -680 381 -682L409 -645C426 -652 455 -656 476 -656H949C957 -656 961 -658 961 -661C961 -665 958 -669 952 -675ZM346 -672L307 -617H250V-781C279 -800 282 -802 282 -805C282 -808 279 -810 273 -813L199 -847C201 -810 203 -742 203 -701V-617H111C88 -617 63 -619 38 -621L66 -584C83 -591 112 -595 133 -595H203V-383L46 -297L86 -254C89 -251 92 -249 94 -249C97 -249 99 -251 101 -255C111 -271 142 -301 203 -343V-21C203 -10 199 -3 179 -3C161 -3 129 -9 74 -22L72 -6C148 17 168 35 177 63C178 68 180 70 184 70C186 70 189 69 193 68C236 49 250 30 250 -9V-374L391 -468L382 -482L250 -409V-595H393C403 -595 408 -597 408 -601C408 -604 406 -608 400 -614ZM741 -217C815 -153 863 -83 882 -27C889 -6 898 -2 905 -2C921 -2 935 -26 935 -54C935 -67 932 -80 924 -93C901 -129 858 -163 748 -226ZM496 -250C458 -178 383 -59 293 36L303 44C349 12 420 -60 522 -181C531 -192 546 -200 559 -202C568 -204 572 -206 572 -209C572 -212 568 -216 561 -219Z"/>
</svg>