<svg xmlns="http://www.w3.org/2000/svg" viewBox="0 -1000 1000 1000">
	<path fill="#000000" d="M979 -246C870 -278 801 -334 723 -458H923C932 -458 936 -459 936 -462C936 -465 933 -469 927 -475L872 -531L832 -480H568C578 -504 588 -535 599 -569H849C858 -569 863 -570 863 -573C863 -575 860 -579 854 -585L797 -643L762 -591H606C615 -621 623 -654 631 -687H901C909 -687 912 -688 912 -691C912 -693 910 -696 905 -701L844 -764L801 -709H636C640 -727 644 -745 647 -762C650 -780 655 -784 675 -794C684 -798 688 -801 688 -803C688 -806 684 -809 675 -812L601 -844C598 -802 594 -758 585 -709H425C402 -709 377 -711 352 -713L380 -676C397 -683 426 -687 447 -687H581C575 -656 567 -625 558 -591H462C439 -591 414 -593 389 -595L417 -558C434 -565 463 -569 484 -569H552C543 -537 532 -508 521 -480H411C388 -480 363 -482 338 -484L366 -447C383 -454 412 -458 433 -458H511C470 -373 407 -301 283 -196L291 -186C410 -253 498 -338 558 -458H702C763 -298 891 -209 896 -209C898 -209 900 -210 902 -213C918 -231 935 -236 979 -234ZM333 -672L295 -622H239V-781C269 -799 271 -800 271 -803C271 -806 268 -808 261 -811L188 -848C190 -811 192 -743 192 -702V-622H98C75 -622 50 -624 25 -626L53 -589C70 -596 99 -600 120 -600H192V-424L29 -327L70 -279C73 -276 75 -274 76 -274C78 -274 80 -277 82 -281C88 -295 112 -321 192 -382V-35C192 -17 190 -8 168 -8C149 -8 117 -15 59 -27L56 -14C130 9 151 26 159 58C160 64 162 67 166 67C167 67 169 66 172 65C236 39 239 36 239 -21V-417L376 -521L371 -531L239 -452V-600H377C387 -600 391 -601 391 -604C391 -607 388 -610 384 -615ZM820 -187L784 -135H650V-246H792C799 -246 802 -247 802 -250C802 -252 799 -256 793 -263L748 -310L718 -268H650V-347C660 -354 676 -366 676 -369C676 -372 673 -373 669 -375L599 -403C601 -367 603 -309 603 -268H515C492 -268 467 -270 442 -272L470 -235C487 -242 516 -246 537 -246H603V-135H439C416 -135 391 -137 366 -139L394 -102C411 -109 440 -113 461 -113H603C603 -11 602 19 600 54C600 60 599 64 599 68C599 78 601 82 606 82C610 82 617 79 627 74C651 63 655 59 655 46V41C652 3 650 -45 650 -113H875C883 -113 887 -114 887 -117C887 -119 884 -123 879 -128Z"/>
</svg>