<svg xmlns="http://www.w3.org/2000/svg" viewBox="0 -1000 1000 1000">
	<path fill="#000000" d="M823 -415L791 -376H419L358 -427C360 -393 361 -333 361 -296V-136C361 -24 360 15 358 50V62C358 75 360 80 366 80C371 80 377 78 386 74C405 65 408 62 408 50C408 31 406 -53 406 -70V-186H507V-109C507 -86 505 15 505 35C505 50 507 55 513 55C517 55 523 53 532 49C551 40 555 38 555 26V20C553 -20 552 -58 552 -107V-186H653V-138C653 -115 651 -12 651 8C651 22 652 27 658 27C662 27 669 25 678 20C696 10 700 8 700 -4C700 -25 698 -117 698 -136V-186H812V-8C812 -1 810 3 792 3C778 3 755 1 716 -5L713 11C769 25 786 40 792 77C793 82 794 85 797 85C799 85 802 84 805 82C853 58 857 48 857 23V-343L878 -356C884 -360 887 -363 887 -365C887 -368 884 -371 877 -376ZM552 -208V-354H653V-208ZM698 -208V-354H812V-208ZM406 -208V-354H507V-208ZM982 -504C830 -523 703 -668 646 -817C650 -818 655 -819 661 -820C666 -821 669 -822 669 -823C669 -825 666 -827 661 -829L591 -861C523 -701 422 -527 278 -400L289 -388C408 -477 500 -584 623 -796C626 -801 629 -805 632 -808C706 -568 888 -454 897 -454C900 -454 902 -455 904 -459C917 -479 936 -487 982 -491ZM723 -553L681 -507H501C478 -507 453 -509 428 -511L456 -474C473 -481 502 -485 523 -485H761C769 -485 773 -486 773 -490C773 -494 770 -499 764 -506ZM343 -672L299 -623H228V-782C260 -801 263 -803 263 -807C263 -810 260 -814 252 -819L179 -864C181 -827 183 -759 183 -718V-623H96C73 -623 48 -625 23 -627L51 -590C68 -597 97 -601 118 -601H183V-443L22 -347L68 -303C71 -301 73 -299 75 -299C78 -299 80 -303 84 -311C91 -328 106 -343 183 -400V-24C183 -7 181 1 153 1C133 1 101 -3 49 -11L46 5C129 24 148 43 155 78C156 83 157 85 161 85C162 85 164 85 166 84C210 66 228 53 228 18V-433L350 -521L341 -537L228 -470V-601H384C393 -601 398 -602 398 -606C398 -609 395 -613 389 -620Z"/>
</svg>