<svg xmlns="http://www.w3.org/2000/svg" viewBox="0 -1000 1000 1000">
	<path fill="#000000" d="M851 -486L819 -440H480L418 -485C420 -457 421 -414 421 -392V-122C421 -71 419 -5 415 48V61C415 73 416 78 423 78C428 78 436 74 449 67C465 58 467 54 467 40V-1H840V70C840 80 841 85 847 85C850 85 894 68 894 48V44C890 -1 888 -50 888 -112V-405L916 -422C922 -426 925 -428 925 -431C925 -434 922 -437 916 -441ZM677 -238V-418H840V-238ZM467 -238V-418H630V-238ZM677 -23V-216H840V-23ZM467 -23V-216H630V-23ZM903 -722L861 -664H778V-790C802 -807 805 -809 805 -813C805 -816 801 -818 794 -822L728 -854C730 -821 731 -793 731 -768V-664H576V-787L597 -805C601 -808 602 -811 602 -813C602 -816 599 -818 595 -820L526 -851C528 -818 529 -790 529 -765V-664H460C437 -664 412 -666 387 -668L415 -633C432 -640 461 -644 482 -644H529V-581C529 -566 525 -499 525 -485C525 -477 527 -473 532 -473C535 -473 577 -490 577 -504C577 -515 576 -568 576 -579V-644H731V-575C731 -563 730 -508 730 -497C730 -487 731 -483 737 -483C739 -483 781 -495 781 -513C781 -516 778 -564 778 -573V-644H954C965 -644 970 -645 970 -649C970 -652 967 -656 961 -662ZM331 -673L296 -623H238V-780C266 -801 269 -803 269 -807C269 -810 264 -814 255 -819L188 -856C190 -819 192 -761 192 -711V-623H115C92 -623 67 -625 42 -627L70 -590C87 -597 116 -601 137 -601H192V-383L26 -304L68 -260C70 -258 73 -256 75 -256C78 -256 80 -259 83 -264C90 -275 108 -290 192 -342V-32C192 -9 191 3 167 3C149 3 118 -4 65 -17L63 -4C136 23 149 36 160 73C162 79 163 81 166 81C168 81 170 80 173 79C233 50 238 41 238 -40V-370L375 -454L368 -467L238 -405V-601H376C387 -601 392 -603 392 -607C392 -610 388 -616 380 -623Z"/>
</svg>