<svg xmlns="http://www.w3.org/2000/svg" viewBox="0 -1000 1000 1000">
	<path fill="#000000" d="M791 -367L768 -325H566C613 -392 627 -406 646 -412C652 -414 655 -415 655 -417C655 -419 653 -421 649 -423L592 -451C580 -409 564 -368 545 -325H493L434 -374C436 -339 437 -274 437 -236V-59C437 -11 436 28 433 62V71C433 81 435 86 440 86C445 86 451 83 460 78C481 67 483 63 483 51V3H784V66C784 74 785 78 790 78C794 78 801 75 812 70C830 61 835 56 835 44C835 41 834 38 834 34C831 6 830 -29 830 -88V-287L853 -301C859 -304 862 -307 862 -310C862 -313 859 -316 852 -321ZM483 -185V-303H784V-185ZM483 -19V-163H784V-19ZM916 -611C912 -471 904 -462 811 -462C718 -462 718 -471 718 -511V-602C875 -699 898 -706 915 -706C922 -706 926 -707 926 -710C926 -712 924 -714 920 -718L873 -760C815 -702 763 -654 718 -620V-792L743 -809C747 -812 749 -814 749 -817C749 -819 747 -821 743 -823L670 -856C671 -822 672 -776 672 -729V-499C672 -428 686 -422 812 -422C929 -422 943 -439 967 -490C968 -492 968 -494 968 -495C968 -499 966 -502 962 -503C938 -513 929 -524 930 -611ZM582 -716L546 -665H464V-780L492 -798C494 -799 496 -801 496 -802C496 -804 494 -805 491 -807L416 -844C418 -810 418 -770 418 -706V-500C418 -471 416 -467 383 -447L432 -404C434 -402 436 -401 438 -401C440 -401 442 -403 444 -406C455 -427 478 -449 629 -529L623 -543L464 -471V-643H632C639 -643 643 -644 643 -647C643 -650 641 -653 637 -657ZM326 -675L291 -626H240V-787C244 -790 273 -808 273 -810C273 -813 270 -815 265 -817L190 -859C192 -822 194 -754 194 -713V-626H110C87 -626 62 -628 37 -630L65 -593C82 -600 111 -604 132 -604H194V-400L36 -324L77 -279C80 -276 82 -275 84 -275C86 -275 88 -277 91 -283C99 -300 123 -317 194 -360V-29C194 -8 191 1 162 1C144 1 115 -3 69 -10L66 4C134 25 155 35 163 68C164 74 166 77 169 77C171 77 173 76 176 75C239 44 240 34 240 -37V-388L371 -470L364 -482L240 -422V-604H373C382 -604 386 -605 386 -608C386 -610 383 -614 378 -620Z"/>
</svg>