<svg xmlns="http://www.w3.org/2000/svg" viewBox="0 -1000 1000 1000">
	<path fill="#000000" d="M908 -193L874 -138L823 -135V-483H954C961 -483 964 -484 964 -487C964 -489 962 -492 957 -497L898 -556L861 -505H410C387 -505 362 -507 337 -509L365 -472C369 -474 392 -483 438 -483V-111L366 -107C356 -106 319 -105 283 -106L317 -72C332 -79 349 -83 393 -86L777 -111C777 -84 775 33 775 57C775 74 777 80 784 80C789 80 796 78 805 74C825 66 828 62 828 49C828 33 823 -66 823 -88V-114L970 -123C977 -124 980 -125 980 -128C980 -130 978 -133 972 -138ZM483 -262V-360H777V-262ZM483 -382V-483H777V-382ZM483 -114V-240H777V-132ZM786 -815L760 -773H492L434 -824C436 -798 437 -775 437 -751V-658C437 -623 436 -600 434 -575C433 -569 433 -564 433 -559C433 -548 436 -543 442 -543C447 -543 454 -545 463 -549C480 -556 482 -559 482 -566V-595H774V-559C774 -552 775 -548 781 -548C785 -548 791 -550 801 -554C822 -563 825 -565 825 -574C825 -575 821 -643 821 -656V-731L852 -753C856 -756 858 -758 858 -761C858 -763 855 -766 851 -769ZM482 -617V-751H774V-617ZM334 -668L295 -617H224V-780L247 -799C250 -801 251 -804 251 -806C251 -809 249 -813 243 -816L176 -852C178 -815 180 -747 180 -706V-617H107C84 -617 60 -618 34 -621L62 -584C79 -591 108 -595 129 -595H180V-381L22 -308L65 -261C67 -258 69 -257 71 -257C73 -257 75 -259 78 -264C88 -281 105 -295 180 -340V-30C180 -12 179 -3 157 -3C140 -3 110 -8 59 -18L56 -4C127 21 147 37 153 66C154 71 156 73 159 73C161 73 163 72 166 71C223 43 224 39 224 -26V-366L374 -454L366 -468L224 -402V-595H387C392 -595 394 -596 394 -599C394 -601 393 -604 389 -608Z"/>
</svg>