<svg xmlns="http://www.w3.org/2000/svg" viewBox="0 -1000 1000 1000">
	<path fill="#000000" d="M895 -750L856 -698H773V-796L802 -814C806 -816 808 -819 808 -821C808 -823 806 -824 802 -826L728 -856C729 -823 729 -794 729 -765V-698H549V-794C574 -811 577 -813 577 -816C577 -818 575 -819 571 -821L502 -851C503 -818 503 -793 503 -764V-698H428C410 -698 390 -700 370 -702L392 -665C406 -672 429 -676 446 -676H503C503 -663 502 -607 502 -596C502 -587 503 -583 509 -583C510 -583 550 -593 550 -612C550 -622 549 -667 549 -676H729C729 -650 728 -608 728 -582C728 -574 729 -570 734 -570C742 -570 774 -582 774 -598C774 -610 773 -665 773 -676H960C967 -676 970 -677 970 -679C970 -681 967 -684 962 -688ZM974 -387C832 -401 724 -473 645 -569C653 -575 665 -580 675 -582C681 -583 684 -585 684 -586C684 -588 682 -590 678 -592L616 -624C523 -475 443 -378 302 -268L310 -258C438 -332 516 -410 633 -558C688 -472 757 -403 876 -338C878 -337 879 -337 881 -337C883 -337 885 -338 887 -340C900 -361 931 -372 974 -374ZM328 -664L289 -612H239V-781L264 -798C269 -801 272 -804 272 -806C272 -807 270 -809 267 -810L188 -846C190 -809 192 -741 192 -700V-612H108C85 -612 60 -614 35 -616L63 -579C80 -586 109 -590 130 -590H192V-389L27 -305L79 -258C82 -255 83 -254 85 -254C88 -254 90 -256 93 -262C105 -284 120 -301 192 -348V-24C192 2 189 13 159 13C140 13 111 8 64 -1L62 11C140 35 160 56 166 79C168 85 169 88 172 88C174 88 176 87 179 86C237 59 239 54 239 -32V-378L382 -470L374 -482L239 -413V-590H385C393 -590 397 -591 397 -593C397 -595 395 -598 390 -603ZM813 -331L771 -279H665V-368C669 -371 691 -386 691 -388C691 -390 690 -392 686 -393L616 -423C618 -388 619 -343 619 -279H464C445 -279 425 -281 405 -283L428 -245C441 -252 464 -256 481 -256H619V-9C619 7 618 16 597 16C577 16 542 9 476 -4L474 10C572 41 583 53 590 83C591 89 593 91 596 91C597 91 599 91 600 90C663 69 665 59 665 -1V-256H877C884 -256 887 -257 887 -259C887 -261 885 -264 880 -268ZM723 -179C799 -128 843 -73 858 -40C877 1 884 10 895 10C911 10 923 -7 923 -29C923 -47 915 -70 894 -89C858 -123 818 -151 728 -189ZM481 -198C433 -116 366 -37 296 36L306 44C385 -19 444 -75 515 -148C521 -154 530 -160 545 -161C552 -162 556 -163 556 -166C556 -167 553 -169 549 -171Z"/>
</svg>