<svg xmlns="http://www.w3.org/2000/svg" viewBox="0 -1000 1000 1000">
	<path fill="#000000" d="M271 -848C217 -680 124 -475 19 -312L33 -303C80 -356 132 -434 191 -544V-110C191 -58 190 -1 188 58V69C188 84 189 90 196 90C201 90 207 87 217 83C238 74 241 70 241 57V49C238 4 237 -47 237 -109V-535L260 -551C264 -554 265 -556 265 -558C265 -560 264 -562 260 -564L214 -588C239 -636 265 -690 293 -750C305 -775 308 -780 329 -788C337 -791 341 -793 341 -796C341 -799 337 -803 329 -808ZM717 -450C769 -413 810 -375 840 -334L431 -323C523 -381 713 -509 804 -579C820 -591 837 -595 863 -595C867 -595 869 -596 869 -599C869 -601 867 -604 861 -608L809 -648C787 -623 724 -572 650 -519L433 -526C599 -658 615 -668 640 -674C647 -676 650 -677 650 -680C650 -682 647 -684 643 -687L603 -715C657 -723 716 -733 780 -745C809 -750 827 -753 842 -753C857 -753 868 -750 883 -745C886 -744 888 -743 890 -743C893 -743 894 -744 894 -746C894 -748 892 -752 888 -757L849 -806C745 -777 510 -731 306 -702L308 -686C400 -690 490 -698 593 -713C426 -541 409 -533 347 -525L376 -478C381 -471 383 -467 387 -467C390 -467 392 -468 395 -470C431 -488 462 -494 627 -500C415 -329 396 -327 329 -321L359 -266C363 -258 368 -255 372 -255C374 -255 376 -256 379 -258C399 -274 455 -285 618 -297V-19C618 -5 614 3 583 3C559 3 520 -2 455 -12L452 3C559 36 577 46 584 82C585 90 588 93 592 93C594 93 596 92 599 91C654 64 664 46 664 15V-301L853 -315C861 -302 868 -288 874 -274C884 -250 892 -245 904 -245C920 -245 934 -262 934 -285C934 -330 881 -390 726 -462ZM713 -213C818 -118 860 -38 877 10C882 23 888 29 901 29C918 29 931 13 931 -11C931 -19 930 -29 926 -39C914 -73 857 -137 721 -223ZM475 -235C438 -158 354 -46 274 35L284 52C351 -7 449 -104 485 -148C511 -179 524 -187 538 -188C541 -188 543 -190 543 -192C543 -194 541 -198 535 -201Z"/>
</svg>