<svg xmlns="http://www.w3.org/2000/svg" viewBox="0 -1000 1000 1000">
	<path fill="#000000" d="M527 -751L503 -713H435C471 -795 482 -810 499 -816C504 -818 506 -819 506 -821C506 -823 504 -825 500 -827L444 -854C441 -812 433 -765 420 -713H383L341 -744C343 -712 343 -651 343 -608V-412C307 -412 291 -412 263 -416L289 -386C305 -393 319 -394 343 -394C343 -138 327 -66 213 84L221 94C345 -35 385 -110 386 -394H521V-55C521 -34 519 -25 495 -25C478 -25 449 -29 402 -39L399 -25C470 -3 482 4 496 40C497 44 499 46 503 46C504 46 506 45 509 44C561 20 564 9 564 -41V-685L581 -697C584 -699 586 -702 586 -704C586 -707 584 -709 580 -712ZM414 -336C438 -292 447 -245 447 -201C447 -177 452 -172 463 -172C482 -172 496 -193 496 -215C496 -247 462 -297 425 -343ZM386 -412V-695H521V-412ZM409 -608C431 -576 446 -522 446 -501C446 -466 451 -462 465 -462C477 -462 492 -477 492 -501C492 -505 492 -509 491 -514C487 -532 477 -553 418 -615ZM975 5C889 -20 825 -55 769 -120C808 -182 831 -254 855 -345C860 -365 868 -379 884 -387C890 -390 893 -392 893 -395C893 -398 890 -401 884 -405L829 -444L808 -403H631C615 -403 600 -404 583 -406L609 -377C615 -381 624 -384 634 -384C654 -282 678 -188 724 -117C672 -34 619 18 546 72L554 84C635 32 696 -14 747 -85C789 -31 880 44 891 44C893 44 896 43 898 40C913 21 929 17 975 17ZM816 -385C800 -297 779 -214 745 -152C700 -217 672 -302 652 -385ZM832 -727C855 -743 857 -745 857 -749C857 -752 855 -755 852 -758L803 -798L776 -761H701L657 -798C658 -754 659 -718 659 -686C659 -544 642 -502 578 -419L586 -411C683 -500 693 -553 701 -743H789V-567C789 -508 803 -502 873 -502C918 -502 943 -506 954 -511C956 -512 957 -514 957 -516C957 -521 931 -545 925 -550C889 -538 865 -538 863 -538C841 -538 832 -547 832 -571ZM316 -491L214 -437V-603H310C318 -603 323 -605 323 -608C323 -611 320 -615 314 -621L270 -664L241 -621H214V-783C235 -802 237 -805 237 -808C237 -811 234 -814 228 -817L167 -848C169 -811 171 -743 171 -702V-621H95C72 -621 51 -623 26 -625L54 -592C71 -599 93 -603 118 -603H171V-414L31 -341L69 -290C70 -288 71 -287 73 -287C75 -287 77 -289 79 -294C86 -307 101 -321 171 -371V-33C171 -20 168 -13 145 -13C128 -13 100 -17 54 -23L51 -11C132 13 138 22 146 54C147 60 149 62 152 62C154 62 156 61 159 60C207 35 214 22 214 -14V-402L323 -479Z"/>
</svg>