<svg xmlns="http://www.w3.org/2000/svg" viewBox="0 -1000 1000 1000">
	<path fill="#000000" d="M891 -467L850 -414H468V-495H766C766 -460 766 -456 773 -456C777 -456 783 -458 793 -462C811 -470 817 -474 817 -487C817 -490 816 -493 816 -496C813 -532 812 -567 812 -627V-702L846 -719C851 -722 854 -724 854 -726C854 -728 851 -731 846 -734L779 -781L749 -736H565C606 -801 627 -817 649 -819C654 -820 657 -821 657 -823C657 -825 654 -828 649 -831L584 -865C572 -822 556 -778 540 -736H478L421 -791C422 -770 423 -712 423 -684V-400C423 -345 422 -296 420 -259V-255C420 -248 421 -245 426 -245C430 -245 437 -247 448 -253C464 -262 468 -265 468 -281H854C853 -176 844 -59 835 -28C828 -5 816 8 778 8C755 8 722 3 675 -7L672 9C752 28 774 45 784 79C785 84 787 87 789 87C791 87 793 86 795 85C847 64 864 44 877 6C885 -17 895 -151 900 -266L937 -279C941 -280 943 -282 943 -284C943 -286 940 -289 936 -292L875 -342L843 -302H468V-393H938C950 -393 955 -394 955 -398C955 -401 952 -405 946 -411ZM468 -627V-715H766V-627ZM468 -516V-606H766V-516ZM333 -679L295 -626H235V-784C249 -791 271 -802 271 -806C271 -808 268 -811 260 -816L185 -860C187 -823 189 -755 189 -714V-626H104C81 -626 56 -628 31 -630L59 -593C76 -600 105 -604 126 -604H189V-394L28 -321L78 -270C81 -267 83 -266 85 -266C87 -266 89 -268 92 -274C105 -298 111 -304 189 -352V-30C189 -12 186 -3 156 -3C138 -3 109 -7 63 -13L59 4C140 23 158 38 165 75C166 82 168 85 171 85C173 85 175 84 178 82C233 49 235 45 235 -38V-381L373 -468L364 -482L235 -417V-604H376C385 -604 389 -606 389 -610C389 -614 386 -619 380 -626ZM695 -230C697 -198 698 -181 698 -154V-75H561V-223C566 -228 583 -243 583 -245C583 -247 580 -249 575 -251L515 -272C517 -243 518 -226 518 -203V-75H386V-171C411 -187 414 -189 414 -192C414 -194 411 -196 406 -198L340 -230C342 -201 343 -184 343 -161V-93L308 -67L361 -23C364 -21 366 -20 367 -20C370 -20 372 -22 375 -26L395 -53H698C698 -26 698 -23 704 -23C708 -23 713 -25 721 -29C738 -37 742 -40 742 -51C742 -58 741 -92 741 -99V-170L761 -184C766 -187 768 -190 768 -192C768 -194 766 -196 760 -199Z"/>
</svg>