<svg xmlns="http://www.w3.org/2000/svg" viewBox="0 -1000 1000 1000">
	<path fill="#000000" d="M969 3C806 -14 724 -68 660 -167H935C944 -167 949 -169 949 -173C949 -176 946 -180 941 -185L876 -241L840 -188H615C624 -226 633 -264 637 -300H797C797 -269 797 -266 805 -266C811 -266 848 -276 848 -295C848 -298 848 -301 847 -305C844 -328 842 -359 842 -404V-527C869 -544 872 -545 872 -550C872 -554 869 -557 862 -562L807 -599L785 -561H477L419 -593C421 -562 422 -513 422 -489V-374C422 -348 418 -306 418 -279C418 -267 421 -263 427 -263C431 -263 437 -265 445 -268C465 -276 467 -277 467 -300H585C583 -263 577 -227 566 -188H363C342 -188 322 -189 299 -191L329 -159C344 -164 362 -167 377 -167H560C525 -61 428 11 265 78L269 91C441 42 570 -33 609 -167H642C683 -70 739 -11 861 51C870 56 875 58 879 58C882 58 885 56 887 52C906 24 926 15 969 15ZM467 -445V-540H797V-445ZM467 -321V-424H797V-321ZM870 -759L837 -708H743V-786C769 -798 772 -799 772 -804C772 -808 768 -812 760 -816L695 -851C697 -818 698 -790 698 -765V-708H561V-783C585 -796 588 -798 588 -803C588 -806 584 -810 576 -814L513 -849C515 -816 516 -788 516 -763V-708H411C393 -708 375 -708 349 -711L377 -679C395 -685 410 -687 425 -687H516C516 -677 515 -635 515 -626C515 -612 517 -606 524 -606C529 -606 536 -609 546 -613C561 -619 565 -622 565 -630C565 -632 561 -678 561 -687H698C698 -677 697 -633 697 -624C697 -610 699 -604 706 -604C711 -604 718 -607 728 -611C743 -617 747 -620 747 -628C747 -629 743 -678 743 -687H924C935 -687 941 -689 941 -693C941 -697 937 -702 929 -709ZM341 -662L303 -616H233V-786C261 -804 264 -806 264 -810C264 -814 259 -818 249 -823L186 -856C188 -836 188 -817 188 -797V-616H107C90 -616 58 -617 34 -620L62 -583C79 -590 108 -595 129 -595H188V-401L30 -322L67 -276C71 -272 74 -269 77 -269C80 -269 83 -272 85 -276C93 -290 115 -311 188 -360V-35C188 -13 182 -3 149 -3C129 -3 98 -7 53 -15L50 -1C129 19 147 33 154 67C155 74 158 77 163 77C164 77 166 77 168 76C225 52 233 34 233 -13V-390C270 -414 316 -443 374 -479L367 -491L233 -424V-595H380C393 -595 399 -597 399 -601C399 -605 395 -610 388 -617Z"/>
</svg>