<svg xmlns="http://www.w3.org/2000/svg" viewBox="0 -1000 1000 1000">
	<path fill="#000000" d="M894 -674L853 -620H712V-805L740 -820C747 -824 751 -826 751 -829C751 -831 747 -833 741 -836L667 -870C669 -841 669 -787 669 -746V-620H574V-799C610 -820 610 -820 610 -824C610 -827 607 -830 600 -833L529 -870C531 -841 531 -787 531 -746V-620H460C437 -620 412 -622 387 -624L423 -587C440 -594 469 -598 490 -598H941C952 -598 958 -600 958 -604C958 -607 955 -611 948 -618ZM841 -810C784 -734 769 -716 720 -656L732 -645L817 -713C848 -738 881 -755 899 -755C905 -755 908 -757 908 -759C908 -761 906 -763 903 -766ZM352 -792C400 -753 427 -708 431 -685C436 -658 440 -652 451 -652C468 -652 487 -667 487 -696C487 -724 461 -758 360 -802ZM459 -566C496 -538 510 -521 521 -488C529 -465 532 -460 543 -460C557 -460 574 -477 574 -499C574 -527 539 -553 465 -578ZM371 -503L235 -432V-601H360C370 -601 375 -602 375 -606C375 -609 371 -615 364 -623L318 -675L279 -623H235V-804C271 -821 274 -822 274 -826C274 -828 269 -831 260 -836L188 -871C190 -834 192 -766 192 -725V-623H108C85 -623 60 -625 35 -627L63 -590C80 -597 109 -601 130 -601H192V-409L30 -324L81 -272C83 -270 86 -268 88 -268C90 -268 93 -271 95 -276C103 -297 127 -324 192 -367V-32C192 -17 191 -10 169 -10C151 -10 119 -15 62 -25L59 -9C144 17 160 34 162 73C163 79 165 82 168 82C170 82 172 81 175 80C230 54 235 37 235 -54V-395L379 -488ZM981 11C836 -9 723 -52 669 -173H941C952 -173 958 -175 958 -179C958 -182 955 -186 948 -193L894 -249L844 -195H626C631 -225 635 -261 637 -300H858C869 -300 875 -302 875 -306C875 -309 872 -313 865 -320L813 -374L775 -322H638C640 -355 642 -390 642 -427H883C894 -427 900 -428 900 -432C900 -435 897 -440 890 -447L842 -497L799 -449H675L724 -500C741 -517 763 -532 782 -534C789 -535 792 -536 792 -538C792 -540 790 -542 786 -545L727 -583C699 -527 683 -499 653 -449H423C400 -449 375 -451 350 -453L386 -416C403 -423 432 -427 453 -427H591C591 -384 590 -350 589 -322H432C409 -322 384 -324 359 -326L395 -289C412 -296 441 -300 462 -300H589C587 -246 584 -219 578 -195H370C347 -195 322 -197 297 -199L333 -162C350 -169 379 -173 400 -173H572C540 -62 440 22 289 65L292 83C483 49 597 -57 622 -173H646C682 -64 745 -1 870 67C873 68 875 69 877 69C879 69 881 68 882 65C893 42 923 26 981 27Z"/>
</svg>