<svg xmlns="http://www.w3.org/2000/svg" viewBox="0 -1000 1000 1000">
	<path fill="#000000" d="M902 -624L858 -578H717V-677H896C906 -677 910 -678 910 -682C910 -685 907 -690 900 -697L857 -742L815 -699H717V-782C746 -798 749 -800 749 -805C749 -808 746 -811 741 -814L670 -853C672 -818 673 -794 673 -755V-699H558C537 -699 514 -701 492 -703L517 -667C532 -673 559 -677 578 -677H673V-578H511C490 -578 467 -580 445 -582L470 -546C485 -552 512 -556 531 -556H946C956 -556 960 -558 960 -561C960 -565 957 -569 950 -576ZM334 -768C387 -717 400 -676 400 -647C400 -625 406 -612 423 -612C439 -612 456 -631 456 -654C456 -682 423 -729 344 -778ZM540 -539C577 -513 599 -466 600 -456C602 -439 607 -427 620 -427C632 -427 651 -445 651 -467C651 -469 651 -472 650 -475C645 -493 624 -514 550 -548ZM314 -657L274 -609H224V-777C254 -794 258 -796 258 -800C258 -804 254 -807 246 -812L175 -855C177 -818 179 -750 179 -709V-609H111C88 -609 63 -611 38 -613L66 -576C83 -583 112 -587 133 -587H179V-411L26 -329L75 -289C77 -287 79 -285 81 -285C84 -285 86 -288 89 -293C99 -310 121 -330 179 -370V-47C179 -21 178 -10 149 -10C130 -10 98 -15 47 -24L44 -8C124 15 148 31 152 64C153 71 155 74 157 74C158 74 160 73 162 72C219 39 224 21 224 -55V-401L355 -490L348 -503L224 -436V-587H351C360 -587 364 -589 364 -592C364 -596 361 -600 356 -607ZM885 -224L840 -179H713V-273H886C896 -273 901 -275 901 -279C901 -282 898 -286 893 -291L846 -337L809 -295H713V-387H920C931 -387 936 -388 936 -391C936 -394 933 -398 926 -405L880 -452L837 -409H720C791 -488 804 -494 836 -501C841 -502 844 -504 844 -505C844 -507 842 -509 838 -511L778 -546C758 -505 745 -483 699 -409H549C528 -409 505 -411 483 -413L508 -377C523 -383 550 -387 569 -387H666V-295H561C540 -295 517 -297 495 -299L520 -263C535 -269 562 -273 581 -273H666V-179H515C494 -179 471 -181 449 -183L474 -147C489 -153 516 -157 535 -157H666C666 -138 664 -54 664 -37C664 -22 666 -16 673 -16C677 -16 684 -18 693 -22C713 -30 717 -33 717 -47V-53C714 -92 713 -107 713 -157H927C937 -157 942 -159 942 -162C942 -165 939 -169 933 -175ZM975 -4C879 9 775 13 667 13C639 13 612 12 584 12C503 11 431 -52 431 -101V-356L458 -370C463 -373 466 -376 466 -379C466 -382 463 -386 457 -390L406 -428L375 -391H301C291 -391 276 -391 262 -393L289 -364C298 -369 309 -371 320 -371H386V-85L260 12L296 41C300 45 304 47 307 47C311 47 314 44 317 39C345 -11 398 -75 410 -75C415 -75 419 -69 424 -57C454 7 506 46 578 51C668 58 778 62 880 64C890 64 893 61 896 54C904 34 928 21 975 10Z"/>
</svg>