<svg xmlns="http://www.w3.org/2000/svg" viewBox="0 -1000 1000 1000">
	<path fill="#000000" d="M823 -492L795 -455H696L640 -492C642 -461 642 -424 642 -395V-325C642 -311 641 -251 641 -238C641 -227 642 -223 648 -223C651 -223 655 -224 662 -227C684 -236 684 -239 684 -253H806C806 -222 806 -219 813 -219C822 -219 852 -229 852 -247V-253C849 -276 849 -295 849 -326V-418L878 -435C882 -437 884 -440 884 -442C884 -444 882 -447 878 -450ZM684 -272V-436H806V-272ZM536 -487L512 -453H414L367 -490C369 -459 370 -424 370 -393V-307C370 -280 369 -257 366 -228C365 -223 365 -218 365 -215C365 -207 367 -203 372 -203C375 -203 381 -205 389 -209C408 -218 411 -222 411 -230V-250H523C523 -236 523 -230 530 -230C534 -230 541 -232 551 -237C564 -243 566 -248 566 -263V-416L585 -428C590 -431 593 -434 593 -436C593 -439 590 -442 585 -446ZM411 -269V-434H523V-269ZM959 -597C817 -615 678 -704 615 -810C621 -815 627 -817 636 -819C644 -821 648 -823 648 -825C648 -827 644 -829 638 -833L575 -869C490 -689 376 -570 285 -487L294 -477C430 -568 505 -668 603 -798C665 -653 856 -550 868 -550C872 -550 876 -552 879 -556C894 -572 914 -580 959 -584ZM701 -618L659 -569H505C482 -569 457 -571 432 -573L460 -538C477 -545 506 -549 527 -549H748C758 -549 763 -550 763 -553C763 -556 759 -560 753 -566ZM311 -677L272 -621H234V-792C247 -800 269 -813 269 -816C269 -818 265 -820 258 -823L187 -852C190 -820 191 -764 191 -706V-621H95C72 -621 47 -623 22 -625L50 -588C67 -595 96 -599 117 -599H191V-390L37 -304L80 -260C85 -255 89 -252 92 -252C95 -252 97 -255 100 -261C109 -281 137 -308 191 -347V-57C191 -28 187 -16 154 -16C134 -16 104 -20 57 -28L52 -13C136 13 148 28 151 51C152 61 154 64 158 64C160 64 162 63 165 62C224 35 234 24 234 -46V-378L356 -465L349 -478L234 -414V-599H362C372 -599 376 -600 376 -603C376 -606 373 -611 365 -619ZM466 -238C441 -144 352 10 306 63L316 72C368 27 421 -44 472 -132C503 -102 521 -72 541 -32C547 -19 553 -16 561 -16C575 -16 589 -33 589 -53C589 -89 534 -122 479 -143C496 -173 504 -187 518 -193C527 -197 531 -200 531 -203C531 -205 529 -206 526 -208ZM726 -237C693 -146 604 3 542 73L553 80C605 38 651 -19 722 -123C785 -72 818 -22 840 29C845 41 856 52 866 52C879 52 896 35 896 9C896 2 895 -5 893 -12C886 -35 846 -79 729 -134C740 -150 764 -187 777 -191C787 -195 792 -197 792 -200C792 -202 789 -205 783 -208Z"/>
</svg>