<svg xmlns="http://www.w3.org/2000/svg" viewBox="0 -1000 1000 1000">
	<path fill="#000000" d="M901 -500L859 -448H418V-624H941C946 -624 948 -625 948 -628C948 -630 947 -632 945 -635L888 -699L842 -646H669C736 -704 767 -721 798 -727C805 -728 809 -730 809 -732C809 -733 807 -735 804 -738L747 -793L716 -759H519C549 -804 551 -806 580 -818C585 -820 588 -822 588 -825C588 -827 586 -829 582 -831L520 -862C472 -757 388 -629 302 -526L310 -514C333 -535 355 -556 376 -579C376 -264 373 -208 355 -140C331 -49 292 20 228 75L238 86C305 44 366 -30 397 -144C410 -192 418 -258 418 -426H948C953 -426 956 -428 956 -431C956 -433 955 -436 952 -439ZM647 -646H434C456 -672 478 -702 503 -737H720ZM821 -199L793 -161H545L492 -209C494 -198 495 -183 495 -175V-1C495 17 494 54 492 73V77C492 82 493 84 497 84C501 84 508 81 520 76C537 69 540 65 540 55V10H805V56C805 71 806 76 813 76C817 76 823 74 832 71C849 65 852 63 852 53C852 40 851 -18 851 -30V-121L886 -142C888 -144 889 -145 889 -147C889 -148 888 -150 886 -151ZM540 -12V-139H805V-12ZM729 -590C768 -564 792 -533 813 -494C819 -482 826 -478 833 -478C848 -478 861 -493 861 -513C861 -542 828 -567 736 -600ZM569 -614C535 -564 494 -511 453 -466L462 -455C574 -553 597 -574 623 -578C626 -579 627 -580 627 -582C627 -583 626 -585 623 -586ZM621 -548C655 -526 670 -502 675 -477C677 -466 685 -459 696 -459C709 -459 722 -475 722 -495C722 -526 697 -537 628 -558ZM300 -677L258 -628H225V-796C237 -802 256 -811 256 -813C256 -814 254 -816 249 -819L176 -858C178 -821 180 -753 180 -712V-628H94C71 -628 46 -630 21 -632L49 -595C66 -602 95 -606 116 -606H180V-394L35 -306L80 -265C83 -263 85 -262 87 -262C90 -262 92 -264 94 -269C103 -288 115 -302 180 -352V-55C180 -35 174 -26 143 -26C123 -26 94 -29 51 -35L48 -20C142 4 153 14 162 53C163 59 165 62 168 62C170 62 172 61 175 60C218 39 225 27 225 -63V-385L339 -471L331 -486L225 -421V-606H338C347 -606 351 -608 351 -612C351 -615 348 -620 342 -627ZM829 -393L793 -351H527C502 -351 484 -352 461 -353L491 -322C509 -327 526 -329 545 -329H877C881 -329 884 -331 884 -333C884 -335 882 -338 880 -340ZM829 -296L792 -253H535C512 -253 493 -253 461 -255L491 -223C508 -229 525 -231 549 -231H875C881 -231 883 -233 883 -236C883 -238 882 -240 880 -242Z"/>
</svg>