<svg xmlns="http://www.w3.org/2000/svg" viewBox="0 -1000 1000 1000">
	<path fill="#000000" d="M880 -787L847 -746H578C555 -746 530 -748 505 -750L533 -716C550 -723 579 -727 600 -727H922C931 -727 935 -729 935 -732C935 -735 932 -739 926 -745ZM586 -711C613 -682 618 -666 620 -636C621 -619 626 -614 633 -614C648 -614 663 -634 663 -653C663 -672 649 -695 593 -719ZM788 -721C773 -691 759 -665 731 -610L743 -607C792 -665 814 -684 829 -684C835 -684 838 -686 838 -688C838 -690 836 -692 832 -695ZM425 -811L406 -780H203L152 -820C153 -803 154 -770 154 -734C154 -577 140 -482 43 -363L54 -354C144 -446 177 -494 191 -645H413C413 -619 413 -616 420 -616C424 -616 431 -618 441 -623C457 -629 461 -632 461 -645C461 -654 458 -696 458 -704V-746L474 -757C480 -761 482 -764 482 -767C482 -769 480 -772 474 -776ZM193 -665C196 -693 198 -725 199 -760H413V-665ZM422 -584L401 -552H254L200 -591C201 -579 203 -556 203 -541V-444C203 -436 201 -400 201 -393C201 -387 202 -384 208 -384C212 -384 218 -386 227 -389C246 -396 246 -399 246 -429H407C407 -403 407 -400 413 -400C415 -400 455 -409 455 -422C455 -429 452 -459 452 -465V-519L478 -536C480 -537 481 -539 481 -541C481 -543 479 -545 476 -547ZM246 -449V-532H407V-449ZM629 -849C669 -818 678 -796 686 -770C691 -754 695 -749 703 -749C717 -749 731 -764 731 -784C731 -824 689 -843 634 -857ZM892 -644L863 -602H568C545 -602 520 -604 495 -606L523 -571C540 -578 569 -582 590 -582H683V-500H591C568 -500 543 -502 518 -504L546 -469C563 -476 592 -480 613 -480H683C683 -469 682 -419 682 -409C682 -397 683 -393 689 -393C694 -393 729 -403 729 -418C729 -435 727 -463 727 -480H906C916 -480 920 -482 920 -486C920 -489 917 -494 910 -500L863 -543L835 -500H727V-582H940C949 -582 954 -584 954 -588C954 -591 951 -596 944 -601ZM884 -178L848 -130H536V-210H806C814 -210 818 -212 818 -216C818 -219 815 -224 809 -230L760 -279L723 -232H536V-315C598 -317 660 -320 733 -324C745 -325 753 -325 760 -325C767 -325 796 -320 802 -320C806 -320 808 -321 808 -323C808 -326 806 -329 803 -334L773 -377C659 -357 556 -347 165 -324L166 -309C303 -310 399 -311 490 -313V-232H249C226 -232 201 -234 176 -236L204 -199C221 -206 250 -210 271 -210H490V-130H106C83 -130 58 -132 33 -134L61 -97C78 -104 107 -108 128 -108H490V-30C490 -3 486 9 454 9C432 9 398 4 344 -6L340 6C432 36 445 48 455 82C456 86 458 88 461 88C463 88 464 88 466 87C529 62 536 45 536 -8V-108H940C950 -108 954 -109 954 -113C954 -116 951 -120 943 -127Z"/>
</svg>