<svg xmlns="http://www.w3.org/2000/svg" viewBox="0 -1000 1000 1000">
	<path fill="#000000" d="M526 -798L502 -763H379L323 -813C325 -777 327 -711 327 -671V-150C327 -95 326 -8 324 49V57C324 73 326 79 334 79C338 79 343 77 351 74C372 64 376 59 376 47V42C373 -2 372 -75 372 -149V-544H513C513 -509 513 -505 520 -505C528 -505 560 -515 560 -533C560 -544 556 -611 556 -626V-730C582 -747 585 -748 585 -751C585 -753 583 -755 580 -758ZM372 -666V-743H513V-666ZM372 -565V-646H513V-565ZM863 -801L831 -763H705L649 -809C651 -779 652 -755 652 -731V-611C652 -580 652 -567 650 -542C649 -535 649 -530 649 -526C649 -516 651 -511 657 -511C661 -511 667 -513 675 -517C695 -525 695 -528 695 -545H854V-20C854 -3 849 7 818 7C800 7 773 3 733 -4L731 13C803 31 817 42 828 74C830 79 832 82 836 82C838 82 840 81 843 80C896 52 899 45 899 -5V-732L916 -741C923 -745 926 -747 926 -750C926 -753 923 -757 916 -762ZM695 -668V-743H854V-668ZM695 -566V-648H854V-566ZM768 -498L729 -463H621V-502C635 -510 640 -512 640 -517C640 -519 637 -522 631 -525L580 -552C582 -523 583 -487 583 -463H454C431 -463 406 -465 381 -467L409 -432C426 -439 455 -442 476 -442H583V-374H482L430 -419C432 -389 433 -356 433 -333V-215C433 -207 431 -171 431 -163C431 -157 432 -154 437 -154C440 -154 446 -156 456 -160C472 -166 472 -168 472 -191H559C527 -138 452 -56 386 -4L395 8C457 -31 531 -97 583 -160V-40C583 -27 582 31 582 43C582 54 583 58 588 58C591 58 623 48 623 35C623 24 621 -28 621 -38V-144C674 -121 714 -94 732 -66C744 -47 753 -40 761 -40C766 -40 783 -44 783 -67C783 -111 733 -133 621 -160V-191H732C732 -160 732 -157 738 -157C742 -157 747 -158 755 -162C769 -168 772 -172 772 -183C772 -187 770 -247 770 -258V-344C797 -359 800 -361 800 -364C800 -367 797 -369 793 -372L742 -406L717 -374H621V-442H800C807 -442 811 -444 811 -448C811 -451 809 -454 805 -459ZM621 -212V-353H732V-212ZM472 -212V-353H583V-212ZM304 -450L206 -403V-590H293C302 -590 307 -591 307 -596C307 -599 304 -604 298 -612L263 -662L227 -611H206V-787C228 -801 231 -802 231 -806C231 -810 227 -813 220 -817L157 -852C159 -815 161 -747 161 -706V-611H99C76 -611 51 -613 26 -615L54 -579C71 -586 100 -590 121 -590H161V-381L34 -319L69 -271C72 -268 73 -267 75 -267C78 -267 80 -269 83 -275C94 -293 108 -308 161 -342V-14C161 5 159 13 132 13C115 13 89 10 48 4L47 21C117 39 133 50 143 83C145 89 147 92 150 92C152 92 154 91 156 90C203 60 206 56 206 8V-370L312 -436ZM481 -329C499 -310 517 -276 521 -257C525 -242 529 -237 537 -237C550 -237 560 -253 560 -269C560 -289 531 -312 488 -336ZM683 -341C676 -320 661 -283 634 -227L646 -221C700 -291 707 -298 715 -301C720 -303 723 -306 723 -308C723 -310 722 -311 720 -312Z"/>
</svg>