<svg xmlns="http://www.w3.org/2000/svg" viewBox="0 -1000 1000 1000">
	<path fill="#000000" d="M953 -600C961 -600 965 -600 965 -603C965 -604 962 -608 957 -613L893 -675L858 -622H625C642 -667 658 -712 673 -758C679 -775 685 -785 710 -792C718 -794 722 -796 722 -799C722 -802 719 -806 710 -811L642 -857C599 -657 551 -507 474 -330L488 -324C522 -382 557 -456 591 -536C611 -371 637 -262 676 -183C613 -92 517 -17 351 79L361 94C519 18 632 -56 701 -141C757 -55 864 37 870 37C872 37 875 35 877 33C892 16 909 8 937 8C945 8 954 9 964 10L967 0C859 -44 797 -95 730 -183C786 -272 822 -387 841 -600ZM787 -600C776 -425 749 -308 703 -226C671 -289 631 -407 603 -566C607 -577 612 -588 616 -600ZM205 -819C263 -773 270 -756 285 -691C288 -678 292 -673 298 -673C318 -673 339 -695 339 -723C339 -770 293 -796 212 -830ZM484 -716L445 -662H117C94 -662 69 -664 44 -666L72 -629C89 -636 118 -640 139 -640H541C548 -640 551 -641 551 -643C551 -645 549 -648 544 -653ZM329 -586C392 -539 440 -479 450 -446C456 -425 462 -419 469 -419C487 -419 498 -436 498 -458C498 -510 449 -545 336 -595ZM201 -593C149 -482 109 -410 37 -306L47 -300C82 -330 135 -396 214 -509C227 -527 238 -534 261 -538C267 -539 270 -541 270 -543C270 -546 267 -549 260 -554ZM362 -453C344 -398 323 -341 297 -284C258 -315 213 -347 166 -377L157 -366C208 -324 248 -286 282 -252C227 -141 150 -31 41 66L50 76C181 -22 254 -111 314 -218C358 -169 386 -126 406 -84C421 -52 426 -48 433 -48C453 -48 466 -68 466 -92C466 -106 461 -121 452 -134C426 -170 385 -212 333 -255C351 -289 368 -325 385 -364C392 -380 398 -386 417 -393C424 -396 427 -398 427 -401C427 -403 425 -406 421 -409Z"/>
</svg>