<svg xmlns="http://www.w3.org/2000/svg" viewBox="0 -1000 1000 1000">
	<path fill="#000000" d="M950 -592C960 -592 966 -593 966 -598C966 -601 962 -606 954 -614L900 -667L860 -614H650C669 -661 688 -712 706 -765C713 -785 723 -796 732 -798C743 -800 747 -803 747 -806C747 -808 744 -811 739 -814L673 -855C644 -688 578 -496 496 -328L508 -321C538 -366 570 -426 602 -498C617 -360 644 -248 690 -170C624 -79 518 -5 343 83L351 94C511 38 642 -42 715 -130C774 -47 869 29 873 29C875 29 878 27 880 25C896 9 915 0 948 0C954 0 961 0 968 1L970 -12C876 -35 807 -79 744 -169C795 -247 825 -348 847 -592ZM797 -592C789 -420 762 -291 717 -212C678 -277 643 -370 616 -530C624 -550 633 -571 642 -592ZM387 -776C435 -750 461 -714 467 -693C472 -676 480 -670 489 -670C500 -670 516 -686 516 -708C516 -758 435 -779 391 -786ZM96 -525C144 -469 159 -425 163 -386C166 -357 171 -349 183 -349C200 -349 218 -372 218 -397C218 -404 217 -410 214 -417C203 -444 167 -486 104 -534ZM512 -670L478 -621H326V-776C351 -793 354 -795 354 -799C354 -802 351 -805 344 -809L276 -848C278 -811 280 -743 280 -702V-621H129C106 -621 81 -623 56 -625L84 -588C101 -595 130 -599 151 -599H280V-350L32 -159L72 -119C76 -115 79 -113 81 -113C85 -113 87 -117 91 -126C97 -141 119 -168 145 -193L280 -327V-28C280 -10 278 0 252 0C233 0 201 -5 146 -15L144 -1C231 25 249 39 250 70C250 80 252 83 256 83C258 83 261 83 264 81C325 53 326 48 326 -30V-327C425 -255 466 -208 482 -155C487 -139 499 -134 512 -134C526 -134 538 -150 538 -171C538 -181 536 -191 530 -201C509 -236 419 -300 326 -345L464 -466C470 -471 485 -478 494 -480C503 -482 507 -484 507 -487C507 -491 503 -496 493 -503L454 -532C418 -477 374 -421 326 -364V-599H558C568 -599 573 -601 573 -605C573 -608 569 -614 562 -621Z"/>
</svg>