<svg xmlns="http://www.w3.org/2000/svg" viewBox="0 -1000 1000 1000">
	<path fill="#000000" d="M522 -590L492 -551H413C449 -594 483 -639 515 -684C525 -698 529 -701 546 -706C554 -708 558 -711 558 -715C558 -718 554 -723 545 -729L502 -759C461 -688 415 -619 362 -551H306V-676H415C427 -676 433 -677 433 -681C433 -684 429 -689 420 -698L384 -734L353 -698H306V-796C332 -813 334 -815 334 -819C334 -822 330 -825 323 -829L258 -861C260 -826 261 -802 261 -763V-698H167C145 -698 120 -700 97 -702L124 -666C139 -672 168 -676 188 -676H261V-551H116C94 -551 69 -553 46 -555L73 -519C88 -525 117 -529 137 -529H345C319 -497 292 -465 262 -433H164C145 -433 130 -434 104 -436L137 -406C152 -411 168 -413 183 -413H243C181 -349 112 -286 33 -225L39 -212C130 -269 213 -338 288 -413H418L339 -314L293 -339C295 -304 296 -280 296 -241V-209C223 -197 147 -184 68 -172L109 -113C128 -132 154 -142 219 -158L296 -177V-29C296 -12 291 -2 265 -2C244 -2 211 -8 157 -21L154 -6C230 14 255 32 262 62C263 69 266 72 269 72C271 72 273 71 275 70C327 41 340 22 340 -9V-188L533 -237L529 -252C470 -241 407 -229 340 -217V-278C362 -291 365 -292 365 -296C365 -299 361 -303 351 -308C405 -360 446 -389 476 -400C489 -405 495 -409 495 -414C495 -417 492 -421 486 -425L443 -458L416 -433H308C337 -464 366 -496 394 -529H553C565 -529 571 -531 571 -535C571 -539 568 -544 561 -551ZM940 -605C950 -605 956 -607 956 -611C956 -614 952 -620 944 -627L894 -675L854 -627H660C675 -665 691 -710 711 -764C719 -785 723 -789 744 -796C753 -799 757 -802 757 -805C757 -807 755 -809 751 -812L679 -859C654 -723 617 -597 518 -346L529 -339C559 -392 581 -433 610 -503C619 -375 645 -249 685 -171C623 -79 517 -2 354 80L358 93C518 35 632 -39 708 -132C770 -36 863 42 869 42C871 42 873 40 875 38C888 21 897 15 933 15C942 15 953 15 966 16L967 3C873 -31 808 -72 737 -172C792 -261 822 -426 844 -605ZM793 -605C777 -437 761 -313 710 -214C675 -280 636 -402 623 -533C632 -554 641 -578 651 -605Z"/>
</svg>