<svg xmlns="http://www.w3.org/2000/svg" viewBox="0 -1000 1000 1000">
	<path fill="#000000" d="M508 -658L470 -608H366L405 -731L436 -745C441 -747 443 -749 443 -751C443 -753 441 -756 437 -760L388 -807L355 -771H191C168 -771 143 -773 118 -775L146 -738C163 -745 192 -749 213 -749H364L321 -608H104C81 -608 56 -610 31 -612L59 -575C86 -586 119 -586 150 -586V-122L30 -101L65 -47C68 -42 71 -40 73 -40C77 -40 80 -43 86 -50C93 -59 108 -66 254 -103L381 -135V-90C381 -67 379 36 379 57C379 75 381 82 388 82C393 82 399 79 409 74C427 64 430 61 430 48V41C428 1 427 -38 427 -88V-147L550 -179L548 -193L427 -171V-586H556C564 -586 569 -587 569 -590C569 -593 565 -598 558 -606ZM196 -310V-443H381V-310ZM196 -465V-586H381V-465ZM196 -130V-288H381V-163ZM971 6C872 -26 790 -82 733 -171C795 -276 819 -413 843 -592H946C956 -592 961 -593 961 -597C961 -601 957 -606 949 -614L900 -662L865 -615H640C659 -664 676 -714 691 -760C697 -779 703 -784 717 -790C729 -795 735 -798 735 -802C735 -806 729 -810 719 -816L658 -853C614 -655 537 -416 477 -304L489 -295C523 -343 565 -430 604 -525C619 -377 640 -255 683 -171C625 -76 559 -12 448 75L456 89C567 14 646 -48 706 -130C750 -59 801 -11 865 40C869 44 872 47 875 47C878 47 880 45 884 41C905 20 927 15 971 16ZM631 -592H792C779 -440 759 -320 707 -216C663 -308 638 -437 619 -562Z"/>
</svg>