<svg xmlns="http://www.w3.org/2000/svg" viewBox="0 -1000 1000 1000">
	<path fill="#000000" d="M978 11C894 -17 820 -62 755 -157C806 -246 833 -379 853 -596H958C967 -596 972 -598 972 -601C972 -604 969 -608 964 -613L909 -670L867 -618H670C686 -662 700 -706 712 -747C721 -776 733 -792 746 -796C754 -798 758 -800 758 -803C758 -805 755 -807 750 -810L683 -848C655 -673 590 -482 532 -339L546 -332C574 -384 602 -443 627 -505C643 -349 663 -238 704 -156C656 -77 585 -10 470 81L479 93C597 21 675 -45 727 -115C789 -21 875 47 878 47C880 47 882 45 884 43C900 27 910 21 939 21C949 21 962 21 978 23ZM801 -596C790 -406 768 -285 728 -201C696 -264 667 -368 642 -543C649 -561 656 -578 662 -596ZM481 -571L450 -528H216C225 -540 233 -548 242 -549C249 -550 253 -551 253 -553C253 -555 250 -558 245 -560L188 -586C146 -485 95 -394 14 -280L24 -271C62 -308 87 -336 128 -395C129 -366 130 -331 130 -311V-208C130 -151 129 -117 127 -84V-69C127 -56 128 -50 135 -50C139 -50 146 -53 155 -58C172 -67 176 -71 176 -83V-139H310V-96C310 -86 311 -82 316 -82C320 -82 327 -84 337 -89C354 -97 359 -101 359 -112C359 -139 355 -181 355 -207V-331C386 -348 390 -350 390 -353C390 -355 387 -358 381 -362L320 -406L293 -368H183L136 -407C154 -434 175 -466 202 -506H466C466 -369 463 -221 457 -113C452 -27 449 0 394 0C370 0 335 -5 287 -13L284 1C370 23 387 37 394 67C396 75 398 78 402 78C404 78 406 77 410 75C488 32 493 26 500 -80C506 -170 510 -289 514 -488C543 -507 546 -509 546 -513C546 -516 544 -519 538 -524ZM176 -161V-346H310V-161ZM540 -740L501 -691H426V-780C431 -783 456 -799 456 -802C456 -805 454 -807 449 -809L376 -842C378 -809 379 -781 379 -756V-691H244V-789C249 -791 274 -805 274 -807C274 -809 272 -811 267 -813L194 -853C196 -820 197 -792 197 -767V-691H106C83 -691 58 -693 33 -695L60 -660C77 -667 106 -671 127 -671H197C197 -663 196 -626 196 -618C196 -605 198 -600 206 -600C210 -600 216 -601 224 -604C242 -609 246 -611 246 -623C246 -630 244 -664 244 -671H379C379 -660 378 -614 378 -604C378 -590 380 -584 386 -584C386 -584 428 -594 428 -611C428 -620 426 -662 426 -671H584C593 -671 598 -673 598 -676C598 -679 595 -683 589 -689Z"/>
</svg>