<svg xmlns="http://www.w3.org/2000/svg" viewBox="0 -1000 1000 1000">
	<path fill="#000000" d="M981 -282C876 -291 779 -348 707 -455H945C955 -455 959 -456 959 -459C959 -462 956 -466 949 -473L892 -527L856 -477H552C564 -500 575 -530 586 -564H861C871 -564 875 -565 875 -568C875 -571 872 -576 865 -582L808 -636L776 -586H593C603 -617 612 -650 621 -684H931C940 -684 944 -685 944 -688C944 -690 941 -694 936 -699L878 -755L839 -706H625C631 -726 635 -745 639 -764C643 -785 646 -790 666 -800C673 -803 676 -806 676 -808C676 -811 673 -813 666 -816L597 -848C594 -810 586 -757 576 -706H405C382 -706 357 -708 332 -710L360 -673C377 -680 406 -684 427 -684H572C565 -648 556 -613 549 -586H433C410 -586 385 -588 360 -590L388 -553C405 -560 434 -564 455 -564H542C533 -534 521 -505 507 -477H351C328 -477 303 -479 278 -481L306 -444C323 -451 352 -455 373 -455H496C439 -347 352 -256 257 -192L263 -183C381 -238 473 -337 540 -455H684C764 -297 887 -231 891 -231C893 -231 896 -233 899 -237C916 -260 945 -270 981 -270ZM277 -843C223 -649 139 -457 38 -309L48 -301C87 -337 140 -417 186 -506V-119C186 -67 185 -22 182 37V52C182 67 183 74 189 74C191 74 235 56 235 33V28C233 -4 232 -55 232 -117V-517C242 -524 259 -536 259 -538C259 -540 256 -541 251 -543L211 -555C242 -617 272 -680 307 -759C314 -775 319 -780 340 -786C347 -788 351 -790 351 -792C351 -795 347 -798 339 -803ZM840 -191L808 -143H639V-253H788C796 -253 799 -254 799 -257C799 -259 797 -262 791 -268L741 -317L712 -275H639V-371C643 -374 663 -389 663 -392C663 -394 661 -395 657 -397L589 -429C593 -355 593 -325 593 -275H504C481 -275 456 -277 431 -279L459 -242C476 -249 505 -253 526 -253H593V-143H402C379 -143 354 -145 329 -147L357 -110C374 -117 403 -121 424 -121H593C593 -92 591 36 591 62C591 75 592 81 598 81C602 81 608 78 618 72C640 60 644 56 644 44V39C641 1 639 -55 639 -121H893C904 -121 910 -122 910 -125C910 -128 905 -133 897 -140Z"/>
</svg>