<svg xmlns="http://www.w3.org/2000/svg" viewBox="0 -1000 1000 1000">
	<path fill="#000000" d="M568 -720C608 -686 640 -640 652 -595C657 -577 661 -571 672 -571C683 -571 702 -594 702 -619C702 -667 613 -713 574 -729ZM306 -856C226 -696 144 -569 24 -419L33 -408C132 -502 220 -622 319 -767C401 -706 448 -648 476 -601C491 -576 497 -573 510 -573C520 -573 530 -589 530 -611C530 -622 527 -635 520 -647C497 -687 430 -733 328 -780C336 -788 347 -794 356 -796C367 -798 372 -800 372 -804C372 -808 368 -812 358 -819ZM547 -510C588 -474 618 -424 625 -392C631 -366 640 -359 650 -359C665 -359 678 -385 678 -408C678 -453 609 -490 554 -520ZM901 -345L866 -290L808 -284V-771C837 -789 840 -791 840 -794C840 -797 835 -800 826 -805L757 -841C759 -804 761 -736 761 -695V-280L558 -260C539 -258 510 -257 485 -257L516 -221C533 -230 562 -237 582 -239L761 -256V-160C761 -126 757 26 757 57C757 74 759 82 765 82C770 82 777 78 787 72C808 60 812 55 812 43V38C809 -7 808 -82 808 -158V-261L959 -276C969 -277 974 -279 974 -283C974 -286 970 -290 962 -297ZM474 -413L436 -364H326V-514H471C483 -514 488 -515 488 -519C488 -522 484 -528 475 -536L429 -581L397 -536H237C214 -536 189 -538 164 -540L192 -503C219 -514 253 -514 282 -514V-364H127C104 -364 79 -366 54 -368L82 -331C99 -338 128 -342 149 -342H282V-57C282 -17 277 -1 238 -1C219 -1 190 -6 148 -13L146 -1C219 21 237 38 244 63C247 72 249 76 254 76C256 76 260 75 264 73C319 47 326 31 326 -57V-342H521C532 -342 538 -343 538 -347C538 -350 534 -356 525 -364ZM376 -244C430 -199 469 -124 474 -85C476 -68 481 -62 494 -62C508 -62 526 -87 526 -115C526 -157 476 -198 382 -252ZM184 -269C151 -195 72 -51 18 13L28 21C105 -59 146 -112 210 -203C215 -210 227 -220 232 -221C240 -223 243 -225 243 -227C243 -230 240 -233 232 -238Z"/>
</svg>