<svg xmlns="http://www.w3.org/2000/svg" viewBox="0 -1000 1000 1000">
	<path fill="#000000" d="M783 -423L753 -379H476L410 -431C412 -394 414 -326 414 -285V-87C414 -79 411 33 411 55C411 71 413 78 419 78C423 78 428 75 436 71C459 58 461 56 461 41V-131H773V-34C773 -12 771 -2 743 -2C723 -2 690 -7 636 -17V-1C725 21 748 37 753 69C754 77 756 80 760 80C762 80 765 79 768 77C816 47 820 41 820 -6V-340C852 -361 852 -361 852 -365C852 -368 850 -370 845 -374ZM461 -266V-357H773V-266ZM461 -153V-244H773V-153ZM896 -538L859 -489H638V-571H866C875 -571 880 -573 880 -578C880 -581 877 -586 870 -593L823 -643L784 -593H638V-690H918C927 -690 931 -692 931 -697C931 -701 928 -706 922 -712L871 -764L835 -712H638V-789L663 -807C667 -810 670 -813 670 -815C670 -817 667 -819 661 -822L589 -855C591 -819 593 -765 593 -712H388C365 -712 340 -714 315 -716L343 -679C360 -686 389 -690 410 -690H593V-593H420C397 -593 372 -595 347 -597L375 -560C392 -567 421 -571 442 -571H593V-489H339C316 -489 291 -491 266 -493L294 -456C311 -463 340 -467 361 -467H944C953 -467 958 -469 958 -474C958 -478 955 -483 948 -489ZM254 -839C206 -643 121 -448 29 -319L42 -311C92 -370 134 -432 179 -518V-124C179 -72 178 -15 176 44V53C176 70 178 76 185 76C190 76 197 74 206 70C225 61 229 59 229 43V36C226 -9 225 -60 225 -122V-543C242 -558 244 -560 244 -563C244 -566 242 -567 238 -569L210 -580C233 -628 257 -682 284 -746C294 -770 298 -775 316 -782C324 -785 329 -788 329 -791C329 -794 325 -797 317 -802Z"/>
</svg>