<svg xmlns="http://www.w3.org/2000/svg" viewBox="0 -1000 1000 1000">
	<path fill="#000000" d="M462 -739L422 -693H308V-791C337 -810 340 -812 340 -815C340 -818 337 -820 331 -823L260 -857C263 -801 264 -779 264 -693H106C84 -693 59 -695 36 -697L63 -661C78 -667 107 -671 127 -671H264V-566H167L102 -620C104 -589 105 -541 105 -517V-380C105 -345 105 -314 102 -255C102 -248 101 -241 101 -237C101 -227 103 -222 108 -222C112 -222 119 -225 129 -229C146 -236 148 -242 148 -254V-292H264V-168H85C63 -168 38 -170 15 -172L42 -136C57 -142 86 -146 106 -146H264C264 -115 260 24 260 52C260 67 262 73 269 73C273 73 278 71 286 68C307 59 311 55 311 41V34C308 -8 308 -75 308 -146H511C519 -146 524 -147 524 -150C524 -153 521 -156 516 -162L469 -213L431 -168H308V-292H420V-264C420 -256 421 -251 427 -251C430 -251 436 -253 446 -257C465 -265 468 -269 468 -283V-291C465 -336 464 -360 464 -394V-536L489 -551C495 -554 498 -557 498 -560C498 -563 495 -566 487 -571L432 -607L405 -566H308V-671H517C526 -671 530 -672 530 -675C530 -677 527 -681 521 -686ZM308 -444V-544H420V-444ZM148 -444V-544H264V-444ZM308 -314V-422H420V-314ZM148 -314V-422H264V-314ZM897 -527L858 -474H612C614 -534 617 -626 617 -695C695 -712 734 -722 830 -750C850 -756 875 -758 891 -758C894 -758 908 -756 910 -756C914 -756 916 -757 916 -760C916 -762 914 -764 911 -767L855 -818C789 -786 704 -748 624 -719L566 -779C568 -710 569 -636 569 -560C569 -161 557 -73 388 80L396 91C594 -54 602 -120 612 -452H763V-133C763 -76 762 -8 760 51V63C760 78 761 83 768 83C772 83 779 81 788 77C809 68 813 64 813 50V43C810 -2 809 -55 809 -131V-452H946C955 -452 960 -453 960 -456C960 -459 957 -463 951 -469Z"/>
</svg>