<svg xmlns="http://www.w3.org/2000/svg" viewBox="0 -1000 1000 1000">
	<path fill="#000000" d="M512 -301L473 -250H435V-654H555C561 -654 564 -655 564 -657C564 -659 562 -662 557 -667L506 -718L470 -676H435V-779C447 -786 466 -796 466 -799C466 -801 464 -803 460 -805L385 -850C389 -776 389 -705 389 -676H218V-778L246 -796C250 -799 252 -801 252 -803C252 -805 250 -806 247 -808L169 -849C172 -791 173 -734 173 -676H133C110 -676 85 -678 60 -680L88 -643C115 -654 149 -654 173 -654V-250H102C79 -250 54 -252 29 -254L57 -217C74 -224 103 -228 124 -228H564C573 -228 577 -229 577 -232C577 -234 575 -236 571 -240ZM218 -405V-528H389V-405ZM218 -550V-654H389V-550ZM218 -250V-383H389V-250ZM902 -539L863 -485H647C648 -546 649 -633 649 -703L856 -759C868 -762 880 -763 891 -763C896 -763 916 -759 921 -759C923 -759 924 -760 924 -762C924 -763 922 -767 918 -771L867 -827C798 -787 724 -753 651 -726L597 -772C600 -690 602 -606 602 -518C602 -160 589 -106 381 75L390 86C615 -74 641 -140 647 -463H789V-136C789 -79 788 -16 786 43V54C786 69 788 75 795 75C799 75 806 73 815 69C835 61 839 56 839 41V35C836 -10 835 -58 835 -134V-463H955C964 -463 968 -464 968 -467C968 -469 965 -472 961 -476ZM347 -179C396 -132 416 -79 419 -56C422 -30 429 -20 441 -20C455 -20 474 -46 474 -65C474 -100 448 -135 355 -189ZM219 -196C177 -114 125 -18 41 73L50 86C121 26 177 -41 238 -119C251 -136 260 -140 281 -145C288 -147 292 -148 292 -150C292 -153 288 -156 281 -160Z"/>
</svg>