<svg xmlns="http://www.w3.org/2000/svg" viewBox="0 -1000 1000 1000">
	<path fill="#000000" d="M846 -758L809 -706H135C112 -706 87 -708 62 -710L90 -673C107 -680 136 -684 157 -684H910C918 -684 922 -685 922 -688C922 -691 919 -695 913 -700ZM300 -649C330 -627 362 -590 367 -569C376 -529 380 -521 392 -521C411 -521 425 -541 425 -563C425 -611 349 -646 307 -659ZM868 -554L843 -518H593L662 -592C667 -597 673 -601 699 -604C709 -605 714 -607 714 -610C714 -612 711 -615 705 -619L645 -658C625 -618 595 -563 570 -518H179C179 -531 179 -546 178 -562H165C157 -510 134 -462 93 -434C82 -427 75 -416 75 -406C75 -392 94 -380 108 -380C120 -380 134 -386 148 -400C168 -420 178 -442 179 -496H847L796 -396L809 -391C868 -463 899 -482 935 -486C942 -487 946 -489 946 -492C946 -495 943 -498 936 -503ZM417 -474C458 -448 485 -407 490 -380C495 -353 502 -348 512 -348C528 -348 545 -367 545 -390C545 -397 544 -404 541 -411C531 -434 492 -462 423 -485ZM399 -841C437 -820 473 -780 484 -753C499 -716 504 -712 518 -712C533 -712 548 -731 548 -755C548 -800 498 -826 405 -850ZM864 -388L829 -342H128C105 -342 80 -344 55 -346L83 -309C100 -316 129 -320 150 -320H377C366 -210 357 -182 330 -129C280 -32 198 20 48 85L53 98C231 52 363 -44 404 -186H696C687 -109 681 -74 673 -36C668 -12 656 2 618 2C592 2 555 -4 501 -17L495 -2C588 27 598 37 611 81C613 87 614 90 617 90C619 90 621 89 624 88C715 52 716 47 744 -167L780 -185C785 -188 787 -190 787 -192C787 -195 785 -198 780 -201L716 -250L686 -208H409C417 -241 423 -279 428 -320H917C928 -320 934 -322 934 -326C934 -329 929 -334 921 -341Z"/>
</svg>