<svg xmlns="http://www.w3.org/2000/svg" viewBox="0 -1000 1000 1000">
	<path fill="#000000" d="M300 -752L275 -717H148L89 -763C91 -732 92 -684 92 -660V-205C92 -153 91 -114 89 -55V-46C89 -30 91 -24 98 -24C102 -24 107 -26 115 -29C133 -36 137 -39 137 -51V-129H286V-94C286 -86 287 -82 292 -82C296 -82 302 -84 311 -89C330 -99 336 -103 336 -115C336 -117 335 -120 335 -123C333 -146 331 -185 331 -250V-680L358 -699C363 -703 366 -705 366 -707C366 -709 363 -711 357 -715ZM137 -452V-697H286V-452ZM137 -149V-432H286V-149ZM811 -392L783 -351H511L454 -394C456 -368 456 -335 456 -309V-87C456 -63 452 42 452 63C452 74 453 79 460 79C469 79 500 71 500 54V-7H797V63C797 70 798 74 804 74C808 74 813 72 821 69C842 61 846 58 846 46C846 37 842 -47 842 -65V-309L877 -332C880 -334 881 -336 881 -338C881 -340 880 -342 876 -345ZM500 -194V-331H797V-194ZM500 -27V-174H797V-27ZM580 -841C629 -796 637 -783 650 -727C652 -718 658 -713 666 -713C683 -713 701 -735 701 -762C701 -796 676 -814 587 -850ZM880 -755L842 -702H453C434 -702 407 -704 387 -706L417 -672C430 -679 453 -682 470 -682H934C941 -682 945 -683 945 -686C945 -688 942 -692 937 -697ZM475 -645C530 -590 542 -561 551 -514C553 -504 558 -500 566 -500C584 -500 600 -525 600 -550C600 -588 564 -614 483 -655ZM899 -521L858 -468H709L800 -589C808 -600 813 -603 832 -610C837 -612 839 -614 839 -616C839 -619 837 -621 833 -624L776 -659C755 -601 721 -528 690 -468H405C387 -468 366 -470 347 -472L372 -438C386 -445 404 -448 423 -448H955C961 -448 964 -449 964 -452C964 -454 962 -458 958 -462Z"/>
</svg>