<svg xmlns="http://www.w3.org/2000/svg" viewBox="0 -1000 1000 1000">
	<path fill="#000000" d="M247 -770L223 -737H132L72 -784C74 -753 75 -705 75 -681V-285C75 -228 74 -177 72 -118V-109C72 -93 74 -87 81 -87C84 -87 90 -89 97 -92C118 -101 120 -104 120 -116V-201H237V-140C237 -133 238 -129 244 -129C247 -129 253 -131 262 -134C282 -142 287 -146 287 -160V-168C283 -213 282 -241 282 -312V-705L302 -720C305 -722 307 -724 307 -727C307 -729 305 -731 301 -734ZM120 -482V-716H237V-482ZM120 -223V-460H237V-223ZM568 -821L543 -791H429L368 -834C370 -797 372 -748 372 -705V-165C372 -106 371 -35 369 24V34C369 50 371 56 378 56C382 56 388 54 397 50C415 42 418 39 418 28V-218H605C611 -218 615 -219 615 -222C615 -225 613 -228 609 -232L563 -285L528 -240H418V-383H565C570 -383 572 -385 572 -387C572 -389 571 -392 568 -395L523 -444L492 -405H418V-551H549C549 -523 549 -520 555 -520C559 -520 565 -522 575 -526C593 -534 598 -537 598 -549C598 -552 597 -555 597 -559C595 -578 594 -604 594 -647V-749L619 -764C624 -767 626 -770 626 -772C626 -775 624 -777 620 -780ZM418 -573V-769H549V-573ZM963 -16C882 -42 809 -85 757 -140C787 -183 824 -265 848 -350C853 -369 868 -387 889 -395C893 -396 894 -398 894 -400C894 -402 893 -405 890 -407L834 -451L809 -418H649C626 -418 601 -419 576 -422L604 -385C610 -387 617 -389 624 -391C638 -291 659 -211 705 -141C650 -74 567 -14 456 47L462 60C572 17 669 -39 730 -106C772 -56 862 20 872 20C875 20 878 18 881 15C896 1 913 -5 963 -5ZM815 -396C792 -293 762 -224 729 -174C688 -231 659 -295 643 -394C653 -395 662 -396 671 -396ZM833 -826L807 -790H698C675 -790 651 -791 625 -794L653 -757C670 -764 699 -768 720 -768H822V-574H705C682 -574 657 -575 632 -578L660 -541C677 -548 706 -552 727 -552H822C822 -519 822 -519 828 -519C832 -519 839 -521 849 -525C867 -533 872 -536 872 -548C872 -549 867 -630 867 -646V-754L894 -769C898 -771 900 -774 900 -776C900 -779 897 -782 893 -785Z"/>
</svg>