<svg xmlns="http://www.w3.org/2000/svg" viewBox="0 -1000 1000 1000">
	<path fill="#000000" d="M970 -605C824 -605 633 -686 523 -823C527 -824 534 -825 543 -826C550 -827 553 -828 553 -831C553 -832 551 -835 546 -837L481 -871C373 -743 214 -612 33 -496L40 -482C86 -502 136 -529 189 -564V-334C189 -324 187 -280 187 -271C187 -263 188 -259 194 -259C198 -259 204 -261 214 -265C233 -273 235 -277 235 -290V-320H768C768 -283 768 -283 775 -283C779 -283 785 -285 795 -289C814 -297 818 -301 818 -313C818 -320 814 -392 814 -407V-514C833 -526 836 -528 836 -530C836 -532 834 -534 830 -536L773 -569L750 -543H248L208 -576C306 -640 411 -722 508 -815C632 -622 876 -544 879 -544C882 -544 884 -546 887 -550C903 -575 921 -586 970 -591ZM519 -341V-522H768V-341ZM235 -341V-522H473V-341ZM288 -487C324 -454 352 -419 357 -398C363 -373 366 -369 379 -369C395 -369 406 -390 406 -411C406 -443 383 -462 296 -498ZM706 -279L677 -243H315L255 -293C257 -268 258 -229 258 -210V-52C258 4 257 33 255 69V78C255 86 257 90 263 90C268 90 275 88 286 84C303 78 305 76 305 64V21H695V67C695 78 696 83 702 83C707 83 714 81 725 76C743 68 748 65 748 56C748 54 747 51 747 49C744 24 742 -15 742 -76V-212L768 -228C773 -231 776 -233 776 -236C776 -238 773 -240 768 -243ZM305 -126V-222H695V-126ZM305 0V-105H695V0ZM596 -676L562 -636H377C354 -636 329 -638 304 -640L332 -604C349 -611 378 -615 399 -615H635C645 -615 649 -616 649 -620C649 -622 646 -626 641 -632ZM651 -502L555 -358L566 -350C656 -436 676 -452 707 -454C711 -454 713 -455 713 -457C713 -458 712 -460 710 -461Z"/>
</svg>