<svg xmlns="http://www.w3.org/2000/svg" viewBox="0 -1000 1000 1000">
	<path fill="#000000" d="M896 -660L855 -602H792V-772L827 -802C829 -804 830 -805 830 -806C830 -808 828 -810 824 -812L742 -850C744 -813 746 -745 746 -704V-602H565C542 -602 517 -604 492 -606L520 -569C537 -576 566 -580 587 -580H720C641 -389 521 -219 358 -58L367 -50C544 -198 660 -357 746 -534V-30C746 -8 741 3 708 3C682 3 641 -3 574 -16L571 -2C664 21 685 38 699 77C701 82 703 85 707 85C709 85 711 84 714 83C789 51 792 34 792 -10V-580H953C959 -580 962 -581 962 -583C962 -585 960 -589 956 -593ZM302 -580H448C454 -580 458 -581 458 -584C458 -585 456 -588 452 -592L393 -653L355 -602H302V-780L332 -804C336 -807 338 -810 338 -812C338 -815 335 -817 330 -819L253 -851C255 -814 257 -746 257 -705V-602H133C110 -602 85 -604 60 -606L88 -569C105 -576 134 -580 155 -580H257C213 -433 135 -285 37 -134L45 -128C150 -262 215 -362 257 -469V-112C257 -55 255 -6 252 52C252 58 251 63 251 67C251 79 253 84 260 84C264 84 271 82 280 78C301 69 304 65 304 52V44C302 -1 302 -34 302 -110V-455C362 -418 398 -371 409 -339C415 -322 421 -313 432 -313C449 -313 459 -332 459 -352C459 -361 457 -371 453 -379C440 -405 402 -437 302 -474Z"/>
</svg>