<svg xmlns="http://www.w3.org/2000/svg" viewBox="0 -1000 1000 1000">
	<path fill="#000000" d="M954 -59C790 -53 631 -161 556 -300H746V-268C746 -258 747 -253 753 -253C755 -253 799 -267 799 -288C799 -290 798 -292 798 -295C795 -315 793 -351 793 -390V-546L825 -560C831 -562 834 -565 834 -568C834 -571 831 -574 825 -579L767 -629L734 -586H520V-689H930C940 -689 944 -691 944 -695C944 -699 941 -704 934 -711L880 -766L836 -711H520V-791L548 -808C555 -812 559 -816 559 -819C559 -822 554 -826 545 -830L469 -867C471 -831 473 -768 473 -711H110C87 -711 62 -713 37 -715L65 -678C82 -685 111 -689 132 -689H473V-586H258L196 -648C198 -617 199 -569 199 -545V-399C199 -350 198 -306 196 -286C195 -278 195 -271 195 -266C195 -257 197 -252 203 -252C207 -252 214 -255 224 -259C246 -268 246 -269 246 -300H397C346 -208 249 -80 41 42L47 57C246 -29 374 -172 460 -300H473V-158C473 -84 472 -17 469 48V62C469 75 471 80 478 80C482 80 489 78 499 74C520 65 524 61 524 47V40C521 -5 520 -80 520 -156V-300H537C601 -105 834 5 848 5C852 5 855 3 857 0C873 -22 903 -42 954 -42ZM520 -453V-564H746V-453ZM246 -453V-564H473V-453ZM520 -322V-431H746V-322ZM246 -322V-431H473V-322Z"/>
</svg>