<svg xmlns="http://www.w3.org/2000/svg" viewBox="0 -1000 1000 1000">
	<path fill="#000000" d="M959 -339C783 -369 616 -506 558 -638H905C918 -638 924 -640 924 -644C924 -647 920 -653 913 -660L851 -722L801 -660H523V-766C550 -787 554 -789 554 -794C554 -798 549 -802 540 -806L472 -836C474 -799 476 -768 476 -727V-660H159C136 -660 111 -662 86 -664L114 -627C131 -634 160 -638 181 -638H444C348 -496 214 -359 43 -250L51 -238C225 -325 357 -452 476 -602V-440C476 -364 475 -299 473 -252V-237C473 -223 475 -217 482 -217C486 -217 493 -219 502 -223C523 -232 527 -236 527 -250V-257C524 -302 523 -364 523 -440V-638H537C596 -501 664 -420 840 -302C848 -297 854 -294 858 -294C863 -294 867 -297 872 -303C884 -317 906 -325 959 -325ZM519 -168C563 -118 594 -58 597 -7C598 15 602 24 618 24C636 24 656 0 656 -28C656 -64 607 -124 527 -180ZM326 -172C366 -110 380 -52 380 -4C380 27 388 34 404 34C424 34 440 5 440 -20C440 -47 410 -110 337 -179ZM717 -167C785 -121 843 -22 849 9C854 37 865 47 878 47C892 47 905 27 905 -1C905 -13 903 -26 897 -40C882 -75 817 -134 726 -180ZM205 -190C194 -95 153 -32 97 2C81 12 74 23 74 33C74 50 94 59 106 59C134 59 217 11 222 -190Z"/>
</svg>