<svg xmlns="http://www.w3.org/2000/svg" viewBox="0 -1000 1000 1000">
	<path fill="#000000" d="M823 -675L789 -624H523V-767L554 -790C561 -795 565 -799 565 -802C565 -806 561 -809 553 -813L469 -857C471 -820 473 -752 473 -711V-624H207L135 -672C137 -641 138 -593 138 -569V-397C138 -355 137 -303 135 -270V-256C135 -243 137 -238 143 -238C148 -238 155 -240 164 -244C183 -252 185 -255 185 -269V-319H473V-154C473 -97 472 -7 470 52V61C470 78 472 85 480 85C485 85 492 82 502 78C523 69 527 65 527 51V44C524 -1 523 -76 523 -152V-319H812V-269C812 -261 813 -256 819 -256C823 -256 829 -258 839 -262C861 -271 865 -275 865 -289V-296C862 -341 860 -379 860 -435V-585L891 -607C897 -611 900 -614 900 -617C900 -620 897 -623 890 -628ZM523 -341V-602H812V-341ZM185 -341V-598L190 -602H473V-341Z"/>
</svg>