<svg xmlns="http://www.w3.org/2000/svg" viewBox="0 -1000 1000 1000">
	<path fill="#000000" d="M880 -591C875 -469 868 -433 828 -430C799 -428 773 -427 748 -427C629 -427 629 -436 629 -469V-565C738 -621 805 -659 840 -682C860 -695 875 -700 889 -700C893 -700 907 -698 910 -698C913 -698 914 -699 914 -701C914 -703 912 -706 908 -710L856 -762C804 -713 730 -657 629 -588V-786L655 -803C660 -806 662 -809 662 -810C662 -812 660 -814 655 -816L579 -851C581 -817 582 -767 582 -720V-464C582 -386 623 -386 768 -386C880 -386 901 -386 931 -461C932 -462 932 -464 932 -465C932 -468 930 -471 926 -473C907 -483 893 -501 896 -591ZM539 -493L388 -472V-634H527C535 -634 538 -635 538 -637C538 -639 536 -642 531 -647L481 -698L449 -656H388V-778C399 -786 418 -799 418 -801C418 -802 415 -804 410 -806L338 -840C340 -805 341 -784 341 -745V-465L220 -448V-674C251 -695 251 -695 251 -699C251 -701 249 -703 243 -706L170 -742C172 -710 173 -682 173 -617V-441L46 -423L84 -379C87 -375 90 -373 93 -373C96 -373 98 -374 100 -376C113 -387 129 -391 216 -409L542 -478ZM965 -30C800 -44 652 -116 565 -254H929C935 -254 938 -255 938 -257C938 -259 936 -262 932 -266L870 -328L828 -276H520V-339C525 -342 546 -358 546 -360C546 -362 544 -364 539 -366L469 -392C471 -358 473 -315 473 -276H123C100 -276 75 -278 50 -280L78 -243C95 -250 124 -254 145 -254H425C327 -144 180 -28 31 45L35 60C222 -16 336 -103 473 -231V-92C473 -35 472 6 468 62V73C468 82 469 86 475 86C479 86 486 84 497 79C518 70 522 66 522 52C522 29 520 -70 520 -90V-254H544C606 -131 715 -37 867 27C870 28 872 29 874 29C877 29 879 27 880 25C892 5 907 -12 965 -17Z"/>
</svg>