<svg xmlns="http://www.w3.org/2000/svg" viewBox="0 -1000 1000 1000">
	<path fill="#000000" d="M892 -620L849 -564H688C753 -660 791 -690 827 -698C834 -700 837 -702 837 -705C837 -707 835 -710 831 -714L768 -766L735 -728H569C610 -789 617 -793 633 -796C640 -797 644 -799 644 -802C644 -804 641 -808 634 -812L573 -847C522 -728 443 -583 356 -477L366 -467C393 -495 420 -525 449 -561C449 -220 446 -72 277 90L285 102C454 -45 489 -124 494 -541H948C957 -541 961 -543 961 -547C961 -550 958 -555 951 -562ZM666 -564H504L467 -584C493 -618 521 -657 554 -706H740ZM356 -663L319 -613H260V-770L286 -790C293 -796 297 -799 297 -803C297 -806 293 -809 285 -812L212 -847C214 -810 216 -742 216 -701V-613H136C113 -613 88 -615 63 -617L91 -580C108 -587 137 -591 158 -591H216C216 -577 164 -358 36 -157L46 -149C119 -250 178 -357 216 -456V-160C216 -103 214 -12 211 46C211 51 210 56 210 60C210 73 213 78 219 78C223 78 229 76 238 72C259 63 262 59 262 46V38C260 -7 260 -82 260 -158V-458C301 -423 330 -378 339 -353C345 -335 351 -330 359 -330C373 -330 385 -345 385 -368C385 -402 365 -435 260 -477V-591H397C404 -591 408 -593 408 -597C408 -600 405 -605 400 -611ZM919 -164C913 25 909 25 759 25C622 25 616 13 616 -20V-391H809C806 -285 801 -232 796 -216C791 -199 784 -188 756 -188C737 -188 709 -192 665 -203L662 -190C730 -168 746 -152 753 -125C754 -118 757 -115 762 -115C764 -115 767 -115 770 -117C840 -150 846 -178 851 -368L882 -384C887 -387 890 -389 890 -391C890 -393 887 -396 883 -400L828 -446L802 -413H631L569 -461C571 -438 571 -419 571 -371V-12C571 55 607 64 749 64C914 64 948 63 967 -14V-17C967 -20 966 -23 961 -26C939 -40 934 -65 934 -163Z"/>
</svg>