<svg xmlns="http://www.w3.org/2000/svg" viewBox="0 -1000 1000 1000">
	<path fill="#000000" d="M874 -338L832 -283H549L577 -324L610 -338C616 -341 619 -343 619 -345C619 -347 617 -350 613 -352L551 -387C537 -355 519 -320 499 -283H350C327 -283 302 -285 277 -287L305 -250C322 -257 351 -261 372 -261H486C464 -223 440 -183 415 -146C499 -122 548 -107 606 -85C508 -8 381 45 282 69L283 83C371 74 554 16 652 -66C717 -38 790 4 825 33C853 56 865 63 871 63C876 63 886 52 886 35C886 17 876 -6 856 -23C835 -41 762 -74 684 -97C716 -132 734 -167 774 -261H926C934 -261 939 -263 939 -267C939 -270 936 -275 930 -281ZM534 -261H716C700 -200 674 -148 636 -111C575 -129 527 -141 464 -156ZM973 -423C832 -436 753 -480 684 -586H907C915 -586 920 -588 920 -592C920 -595 917 -600 911 -606L857 -660L819 -608H629V-738C673 -744 717 -750 760 -757C778 -760 792 -761 805 -761C811 -761 838 -758 844 -758C849 -758 851 -759 851 -762C851 -764 849 -767 845 -771L799 -824C712 -782 493 -739 358 -727L357 -712C407 -712 490 -720 583 -732V-608H372C349 -608 324 -610 299 -612L327 -575C344 -582 373 -586 394 -586H511C460 -502 372 -400 255 -323L262 -313C363 -359 449 -433 570 -586H583C583 -508 582 -482 578 -425V-411C578 -398 580 -393 586 -393C591 -393 598 -395 607 -399C628 -408 631 -412 631 -425V-433C629 -477 629 -513 629 -586H661C709 -484 757 -431 869 -373C873 -371 875 -370 878 -370C880 -370 882 -371 884 -375C900 -401 923 -408 973 -413ZM260 -842C214 -655 102 -428 23 -320L33 -311C79 -357 136 -446 185 -536V-126C185 -74 184 -17 182 42V53C182 68 184 74 191 74C195 74 202 72 211 68C232 59 235 55 235 42V34C232 -11 231 -62 231 -124V-550C250 -565 252 -566 252 -570C252 -573 249 -575 245 -577L215 -592C242 -644 271 -705 297 -762L323 -778C330 -782 333 -784 333 -787C333 -789 331 -792 326 -795Z"/>
</svg>