<svg xmlns="http://www.w3.org/2000/svg" viewBox="0 -1000 1000 1000">
	<path fill="#000000" d="M936 -185L886 -237L850 -185H769V-434H902C922 -434 923 -439 906 -456L863 -498L832 -456H769V-694C790 -699 812 -704 833 -709C863 -716 892 -720 908 -718C924 -716 926 -720 916 -731L876 -774C811 -745 733 -716 581 -673L582 -658C625 -664 673 -673 723 -684V-456H660C637 -456 612 -458 587 -460L615 -423C632 -430 661 -434 682 -434H723V-185H630C607 -185 582 -187 557 -189L585 -152C602 -159 631 -163 652 -163H932C948 -163 951 -171 936 -185ZM368 -606L329 -650L295 -608H240V-777L261 -792C274 -802 274 -806 260 -812L191 -845C193 -808 195 -740 195 -699V-608H119C96 -608 71 -610 46 -612L74 -575C91 -582 120 -586 141 -586H195C162 -448 92 -288 23 -182L34 -175C78 -223 142 -336 195 -467V-160C195 -103 193 -12 190 46C188 81 190 85 218 72C242 61 243 57 242 38C240 -7 240 -82 240 -158V-466C273 -437 290 -394 295 -369C299 -349 302 -343 312 -343C328 -343 344 -381 332 -406C319 -431 291 -457 240 -484V-586H365C380 -586 382 -591 368 -606ZM973 -12V-22C722 12 558 -25 472 -121C507 -184 534 -263 552 -397L571 -409C581 -415 580 -419 571 -427L524 -468L495 -428H432L514 -653C523 -678 530 -684 552 -693C564 -698 566 -704 551 -716L504 -756L474 -717H409C386 -717 361 -719 336 -721L364 -684C381 -691 410 -695 431 -695H484L411 -486C400 -454 388 -443 358 -427L399 -386C405 -380 409 -379 415 -386L433 -406H508C502 -300 477 -209 449 -150C426 -182 398 -231 369 -287L355 -282C378 -223 403 -167 435 -123C392 -49 339 7 271 64L280 75C354 25 414 -29 457 -96C535 -7 640 35 879 48C892 49 895 47 900 36C909 18 925 1 973 -12Z"/>
</svg>