<svg xmlns="http://www.w3.org/2000/svg" viewBox="0 -1000 1000 1000">
	<path fill="#000000" d="M890 -798L843 -750H527V-808C562 -827 564 -828 564 -832C564 -835 559 -837 551 -841L480 -874C482 -842 483 -790 484 -750H133C110 -750 85 -752 60 -754L88 -717C105 -724 134 -728 155 -728H484V-644H278L223 -685C226 -665 226 -653 226 -630V-574C226 -566 223 -532 223 -525C223 -522 224 -520 227 -520C230 -520 236 -522 246 -527C264 -535 266 -538 266 -548V-622H484V-614C414 -547 219 -450 72 -400L75 -386C221 -417 391 -491 484 -562C484 -548 482 -484 482 -471C482 -463 483 -460 488 -460C492 -460 498 -462 506 -465C523 -472 528 -478 528 -494C528 -513 527 -543 527 -562C677 -522 815 -452 848 -417C854 -410 862 -407 869 -407C884 -407 888 -425 888 -436C888 -493 757 -526 527 -581V-622H755V-532C755 -526 759 -521 767 -521C773 -521 803 -530 803 -539C803 -550 800 -566 800 -576V-613L827 -627C833 -630 835 -632 835 -634C835 -636 833 -639 828 -642L770 -682L745 -644H527V-728H939C948 -728 953 -729 953 -732C953 -735 950 -739 944 -745ZM523 -234H755V-97C755 -89 756 -84 763 -84C765 -84 802 -94 802 -105C802 -107 800 -144 800 -151V-220L828 -235C833 -238 836 -240 836 -242C836 -245 833 -248 827 -252L773 -291L747 -256H523V-340H926C935 -340 939 -341 939 -343C939 -345 936 -349 930 -355L885 -401L842 -362H523V-393C547 -409 549 -411 549 -414C549 -417 545 -419 538 -421L480 -442C482 -410 483 -387 483 -362H155C132 -362 107 -364 82 -366L110 -329C127 -336 156 -340 177 -340H483V-256H272L221 -293C224 -273 224 -261 224 -238V-146C224 -138 221 -105 221 -98C221 -94 222 -93 225 -93C228 -93 234 -95 244 -99C262 -106 264 -110 264 -120V-234H483V-225C416 -143 239 -7 49 59L50 74C192 45 394 -69 483 -163V-65C483 -44 481 48 481 67C481 75 482 78 487 78C491 78 497 76 505 73C519 67 524 60 524 44C524 27 523 -48 523 -63V-199C633 -33 871 43 871 43C875 43 877 41 879 37C893 13 921 3 972 3L974 -10C774 -31 627 -100 523 -223Z"/>
</svg>