<svg xmlns="http://www.w3.org/2000/svg" viewBox="0 -1000 1000 1000">
	<path fill="#000000" d="M976 -71C843 -96 742 -171 694 -293H830V-263C830 -254 831 -250 837 -250C841 -250 848 -252 857 -256C876 -265 882 -270 882 -281C882 -283 882 -286 881 -290C878 -310 876 -346 876 -385V-541L902 -557C907 -560 909 -562 909 -565C909 -568 907 -571 901 -576L844 -620L816 -580H668V-682H928C938 -682 942 -684 942 -688C942 -692 939 -697 932 -704L872 -761L836 -704H668V-797L694 -812C701 -816 705 -820 705 -822C705 -825 701 -827 695 -830L619 -864C621 -828 623 -763 623 -704H433C410 -704 385 -706 360 -708L388 -671C405 -678 434 -682 455 -682H623V-580H476L415 -626C417 -595 418 -547 418 -523V-385C418 -336 417 -292 415 -272C414 -263 413 -256 413 -251C413 -242 415 -238 421 -238C425 -238 432 -241 442 -245C464 -255 464 -259 464 -293H573C530 -210 437 -94 273 16L280 28C443 -49 539 -158 623 -281V-158C623 -84 622 -17 619 48V62C619 75 621 80 628 80C632 80 639 78 649 74C668 66 672 61 672 47V40C669 -5 668 -80 668 -156V-293H678C705 -191 751 -114 873 -33C875 -32 876 -31 878 -31C881 -31 883 -32 886 -35C900 -49 922 -57 954 -57C961 -57 968 -57 976 -56ZM668 -452V-558H830V-452ZM464 -452V-558H623V-452ZM668 -315V-430H830V-315ZM464 -315V-430H623V-315ZM332 -676L297 -627H240V-795C272 -811 275 -813 275 -817C275 -820 272 -823 266 -826L190 -867C192 -830 194 -764 194 -706V-627H109C86 -627 61 -629 36 -631L64 -594C81 -601 110 -605 131 -605H191C158 -461 97 -307 25 -164L39 -156C97 -244 149 -342 194 -475V-167C194 -93 193 -26 190 39C190 45 189 50 189 54C189 67 191 72 198 72C203 72 209 70 219 65C240 54 244 51 244 37V31C241 -14 240 -89 240 -165V-481C278 -452 305 -416 313 -393C321 -370 332 -361 342 -361C353 -361 367 -374 367 -396C367 -436 326 -464 240 -502V-605H374C384 -605 389 -606 389 -610C389 -613 385 -619 378 -627Z"/>
</svg>