<svg xmlns="http://www.w3.org/2000/svg" viewBox="0 -1000 1000 1000">
	<path fill="#000000" d="M901 -236L863 -181H695V-264C719 -280 721 -282 721 -286C721 -288 719 -290 715 -292L646 -319C648 -286 649 -256 649 -219V-181H425C518 -236 571 -286 603 -355H823V-307C823 -298 824 -293 830 -293C834 -293 840 -296 849 -301C867 -312 871 -316 871 -329C871 -349 869 -440 869 -458V-671L901 -693C905 -695 907 -698 907 -701C907 -704 904 -707 900 -710L829 -757L804 -711H556C620 -792 632 -801 651 -809C659 -812 663 -814 663 -817C663 -819 659 -822 653 -825L592 -856C582 -820 568 -784 533 -711H442L384 -756C386 -728 387 -685 387 -663V-438C387 -416 385 -319 385 -299C385 -291 387 -286 392 -286C396 -286 401 -289 410 -294C430 -306 432 -309 432 -320V-355H555C523 -286 474 -235 399 -181H334C311 -181 286 -183 261 -185L289 -148C306 -155 335 -159 356 -159H649V-96C649 -70 648 44 648 68C648 79 650 84 655 84C659 84 698 68 698 52V48C696 7 695 -26 695 -95V-159H958C967 -159 972 -162 972 -166C972 -170 969 -175 962 -181ZM645 -538C650 -584 654 -632 655 -689H823V-538ZM432 -538V-689H606C605 -632 603 -582 598 -538ZM612 -377C626 -416 635 -461 642 -516H823V-377ZM432 -377V-516H596C589 -462 579 -416 564 -377ZM250 -842C206 -646 117 -460 30 -323L42 -314C102 -386 146 -458 194 -552V-125C194 -73 193 -16 191 43V52C191 70 193 77 199 77C203 77 209 74 218 69C237 57 241 52 241 38V32C238 -13 238 -61 238 -123V-516C248 -526 264 -542 264 -546C264 -548 262 -550 258 -552L206 -578C230 -628 256 -684 284 -750C294 -773 297 -777 317 -789C322 -792 325 -795 325 -798C325 -801 321 -804 315 -807Z"/>
</svg>