<svg xmlns="http://www.w3.org/2000/svg" viewBox="0 -1000 1000 1000">
	<path fill="#000000" d="M888 -95L847 -44H721V-234H911C919 -234 923 -235 923 -237C923 -239 920 -243 915 -248L855 -308L820 -256H721V-435H913C921 -435 925 -436 925 -439C925 -441 923 -444 918 -449L860 -507L822 -457H721V-618H928C937 -618 941 -619 941 -622C941 -624 938 -627 934 -632L877 -691L838 -640H508C527 -674 545 -710 562 -745C578 -777 581 -781 597 -790C606 -795 610 -798 610 -801C610 -804 606 -807 598 -811L542 -839C504 -706 435 -557 356 -435L368 -428C397 -462 426 -503 454 -548V-122C454 -70 453 -16 451 43V55C451 70 452 77 459 77C463 77 469 74 478 69C498 58 502 54 502 41C502 31 499 -13 499 -22H944C953 -22 957 -23 957 -26C957 -28 954 -31 949 -36ZM498 -256V-435H674V-256ZM498 -457V-618H674V-457ZM499 -44C498 -67 498 -92 498 -120V-234H674V-44ZM651 -829C693 -784 715 -732 720 -702C724 -679 732 -675 742 -675C761 -675 777 -696 777 -721C777 -772 687 -823 659 -837ZM345 -663L310 -617H255V-794C281 -815 282 -815 282 -818C282 -821 278 -823 269 -827L207 -853C209 -816 210 -768 210 -709V-617H113C73 -617 56 -617 38 -618L66 -588C79 -594 92 -595 135 -595H199C164 -448 109 -297 36 -169L50 -159C118 -261 172 -373 210 -485V-161C210 -79 208 -7 205 45V59C205 72 206 77 213 77C217 77 224 75 233 71C254 62 257 59 257 45C257 13 255 -130 255 -159V-441C297 -403 314 -378 325 -349C330 -334 336 -321 350 -321C363 -321 375 -340 375 -360C375 -410 307 -440 255 -459V-595H388C398 -595 402 -596 402 -599C402 -602 399 -605 394 -611Z"/>
</svg>