<svg xmlns="http://www.w3.org/2000/svg" viewBox="0 -1000 1000 1000">
	<path fill="#000000" d="M876 -354L846 -313H686V-437H827C827 -400 827 -398 834 -398C838 -398 845 -401 856 -407C872 -415 877 -419 877 -430C877 -433 876 -435 876 -438C873 -468 872 -491 872 -538V-697L897 -712C901 -715 904 -717 904 -720C904 -722 902 -724 899 -727L841 -776L812 -737H616L657 -789C666 -800 680 -810 690 -813C695 -815 698 -817 698 -819C698 -821 696 -823 692 -825L631 -857C622 -821 609 -780 592 -737H529L479 -774C480 -744 481 -708 481 -676V-542C481 -500 481 -463 479 -432C479 -426 478 -420 478 -416C478 -403 480 -398 486 -398C491 -398 498 -401 509 -407C524 -415 524 -417 524 -437H641V-313H487L427 -353C428 -328 429 -281 429 -253V-166C429 -127 428 -65 426 -25V-20C426 -7 428 -2 434 -2C435 -2 477 -18 477 -38C476 -69 475 -112 475 -165V-291H641V-84C641 -43 640 18 638 65V72C638 85 640 91 645 91C649 91 655 88 663 84C686 72 688 69 688 58C687 29 686 -28 686 -83V-291H862V-86C862 -76 860 -69 834 -69C817 -69 788 -72 742 -80L738 -66C809 -46 824 -34 831 -4C832 1 834 3 837 3C839 3 841 2 843 1C900 -28 909 -43 909 -62V-283L936 -294C940 -296 942 -298 942 -300C942 -302 940 -305 936 -308ZM524 -595V-715H827V-595ZM524 -459V-573H827V-459ZM363 -671L329 -621H268V-791L293 -807C298 -810 301 -813 301 -815C301 -818 298 -820 292 -823L221 -859C223 -822 225 -754 225 -713V-621H137C114 -621 89 -623 64 -625L92 -588C109 -595 138 -599 159 -599H214C188 -475 127 -314 49 -177L62 -170C141 -288 193 -391 225 -488V-161C225 -104 223 -13 220 45V59C220 73 222 79 227 79C231 79 237 76 246 71C266 59 270 55 270 42V37C268 -8 268 -83 268 -159V-468C306 -447 337 -413 354 -378C367 -351 372 -348 380 -348C395 -348 406 -368 406 -389C406 -398 404 -407 400 -415C388 -440 338 -468 268 -484V-599H417C423 -599 426 -600 426 -603C426 -605 424 -609 420 -613Z"/>
</svg>