<svg xmlns="http://www.w3.org/2000/svg" viewBox="0 -1000 1000 1000">
	<path fill="#000000" d="M905 -191L870 -136L821 -132V-465H941C948 -465 952 -466 952 -468C952 -471 949 -474 944 -479L885 -537L848 -486H413C396 -486 366 -487 340 -490L368 -454C395 -465 430 -465 449 -465V-102L358 -95C348 -94 311 -91 275 -91L310 -58C325 -66 341 -71 385 -75L774 -107C774 -62 772 11 772 56C772 73 774 80 782 80C787 80 794 78 803 74C822 66 827 62 827 50C827 47 826 44 826 40C821 -7 821 -74 821 -111L967 -123C974 -124 977 -125 977 -128C977 -130 975 -133 969 -138ZM496 -252V-343H774V-252ZM496 -364V-465H774V-364ZM496 -106V-231H774V-128ZM784 -810L755 -769H513L458 -812C460 -781 461 -757 461 -722V-651C461 -616 460 -587 458 -562C458 -557 457 -553 457 -550C457 -540 459 -536 466 -536C471 -536 478 -538 489 -542C506 -548 508 -551 508 -560V-587H769V-556C769 -550 770 -547 775 -547C779 -547 785 -549 796 -553C816 -561 819 -565 819 -574V-581C817 -602 816 -616 816 -650V-734L841 -750C847 -754 850 -757 850 -759C850 -762 847 -765 841 -769ZM508 -608V-748H769V-608ZM342 -657L305 -609H241V-785L263 -799C267 -801 269 -804 269 -806C269 -808 266 -811 262 -813L190 -846C192 -809 194 -741 194 -700V-609H95C72 -609 47 -611 22 -613L50 -577C67 -584 96 -588 117 -588H185C151 -447 92 -316 18 -176L31 -169C97 -267 147 -360 194 -490V-163C194 -106 192 -15 189 43V56C189 70 191 75 198 75C203 75 210 73 219 69C240 60 243 56 243 43V35C241 1 241 -70 241 -161V-471C277 -438 305 -398 312 -378C320 -353 325 -347 338 -347C352 -347 364 -364 364 -390C364 -414 357 -440 241 -492V-588H397C404 -588 407 -589 407 -592C407 -594 405 -597 400 -602Z"/>
</svg>