<svg xmlns="http://www.w3.org/2000/svg" viewBox="0 -1000 1000 1000">
	<path fill="#000000" d="M578 -497L551 -463H424L371 -495C373 -458 375 -394 375 -353V-83C375 -22 374 11 370 69V74C370 81 371 85 376 85C380 85 387 82 397 77C420 66 421 63 421 52V-167H566V-18C566 2 561 13 534 13C518 13 495 9 461 3L459 16C516 35 531 44 538 71C539 75 541 77 544 77C546 77 548 77 551 75C603 48 612 37 612 -31V-438L630 -449C634 -451 635 -453 635 -455C635 -457 634 -459 630 -461ZM421 -326V-441H566V-326ZM421 -189V-304H566V-189ZM987 -559C873 -581 740 -662 642 -793C648 -796 658 -797 669 -797C676 -797 679 -799 679 -802C679 -804 677 -808 671 -811L607 -851C546 -746 446 -615 298 -483L307 -473C390 -527 493 -624 631 -784C719 -617 900 -510 907 -510C910 -510 912 -512 914 -514C927 -531 948 -543 987 -547ZM685 -622L653 -575H518C495 -575 469 -576 445 -578L473 -542C490 -549 519 -553 540 -553H741C748 -553 751 -554 751 -557C751 -559 749 -561 745 -565ZM309 -666L274 -618H227V-789C254 -806 257 -808 257 -810C257 -813 254 -815 249 -817L178 -847C180 -810 182 -742 182 -701V-618H93C70 -618 45 -620 20 -622L48 -585C65 -592 94 -596 115 -596H172C151 -455 86 -259 15 -119L27 -113C92 -202 141 -318 182 -461V-156C182 -99 180 -8 177 50C177 56 176 61 176 65C176 77 178 82 185 82C189 82 196 80 205 76C226 67 229 63 229 50V42C227 -3 227 -78 227 -154V-459C266 -424 284 -390 294 -359C302 -333 307 -327 317 -327C331 -327 345 -345 345 -371C345 -375 345 -379 344 -384C338 -416 296 -450 227 -477V-596H368C375 -596 378 -597 378 -599C378 -601 376 -605 371 -609ZM691 -451C693 -418 694 -394 694 -357V-189C694 -159 693 -129 690 -83V-77C690 -71 691 -68 695 -68C699 -68 740 -83 740 -97V-101C738 -120 738 -152 738 -188V-394L760 -407C763 -409 764 -410 764 -412C764 -414 762 -416 757 -418ZM822 -496C824 -459 826 -391 826 -350V-15C826 7 822 18 795 18C776 18 747 13 701 3L698 16C764 38 781 50 786 76C787 82 789 85 792 85C794 85 796 84 800 83C863 58 872 43 872 -14V-441L890 -454C893 -456 895 -458 895 -460C895 -462 893 -464 888 -466Z"/>
</svg>