<svg xmlns="http://www.w3.org/2000/svg" viewBox="0 -1000 1000 1000">
	<path fill="#000000" d="M820 -116C820 -87 820 -84 828 -84C832 -84 838 -85 847 -89C866 -97 870 -103 870 -117V-123C868 -156 867 -195 867 -238V-469L901 -485C908 -488 911 -491 911 -494C911 -497 908 -500 901 -505L840 -554L808 -509H510L444 -566C446 -532 447 -471 447 -434V-225C447 -172 446 -139 444 -109V-97C444 -85 446 -81 452 -81C456 -81 462 -83 470 -86C489 -95 492 -99 493 -116ZM820 -250V-138H493V-250ZM820 -370V-272H493V-370ZM820 -487V-392H493V-487ZM579 -111C526 -59 404 21 314 68L319 82C406 48 524 -8 577 -44C586 -50 597 -53 610 -53C613 -53 627 -52 630 -52C634 -52 637 -53 637 -56C637 -58 634 -62 629 -67ZM629 -605H434C412 -605 387 -606 364 -609L391 -574C406 -580 435 -584 455 -584H953C964 -584 970 -585 970 -589C970 -593 966 -598 958 -606L905 -661L863 -605H676V-758H851C863 -758 869 -759 869 -763C869 -766 865 -771 857 -778L800 -834L762 -780H512C489 -780 463 -781 439 -784L467 -748C483 -754 513 -758 534 -758H629ZM246 -615H375C381 -615 384 -617 384 -620C384 -622 382 -625 379 -629L333 -680L299 -635H246V-789C271 -804 274 -806 274 -810C274 -812 272 -815 267 -817L196 -853C198 -816 200 -748 200 -707V-635H116C93 -635 67 -636 43 -639L71 -604C88 -611 117 -615 138 -615H195C171 -491 123 -359 37 -195L50 -187C114 -278 162 -376 200 -477V-118C200 -91 198 -11 195 58V65C195 77 197 83 203 83C207 83 214 80 224 75C244 65 248 60 248 46V41C246 -4 246 -79 246 -155V-467C287 -435 317 -394 326 -356C331 -333 340 -323 351 -323C371 -323 383 -338 383 -360C383 -417 312 -461 246 -487ZM696 -76C800 -30 854 12 887 48C902 64 914 71 924 71C928 71 932 69 936 66C943 60 946 52 946 43C946 28 937 11 921 -3C880 -38 811 -67 700 -90Z"/>
</svg>