<svg xmlns="http://www.w3.org/2000/svg" viewBox="0 -1000 1000 1000">
	<path fill="#000000" d="M893 -519L852 -468H660V-556H868C876 -556 882 -557 882 -561C882 -564 879 -567 874 -572L827 -620L788 -575H660V-675H927C935 -675 941 -676 941 -680C941 -683 938 -686 933 -692L879 -747L838 -695H684L760 -770C783 -794 794 -799 817 -801C821 -802 823 -803 823 -805C823 -806 821 -808 818 -810L753 -851C735 -808 705 -756 664 -695H443C420 -695 395 -697 371 -699L398 -665C415 -671 444 -675 465 -675H617V-575H479C457 -575 432 -577 407 -579L435 -545C452 -552 480 -556 501 -556H617V-468H418C395 -468 371 -470 346 -471L374 -437C390 -444 419 -448 440 -448H942C950 -448 955 -450 955 -454C955 -456 953 -460 948 -465ZM540 -432C597 -408 623 -386 635 -371C644 -359 656 -351 666 -351C678 -351 687 -363 687 -378C687 -384 686 -389 683 -395C673 -415 632 -434 541 -444ZM463 -830C511 -791 534 -750 538 -729C542 -707 549 -700 559 -700C573 -700 592 -717 592 -745C592 -770 582 -791 470 -841ZM343 -649L300 -599H240V-782L264 -795C271 -799 274 -802 274 -804C274 -807 271 -809 265 -813L191 -856C193 -819 195 -752 195 -711V-599H107C84 -599 60 -601 35 -603L63 -569C79 -575 108 -579 129 -579H191C175 -470 116 -288 31 -133L44 -124C99 -195 146 -283 195 -433V-150C195 -93 193 -3 190 54V68C190 81 192 86 198 86C203 86 210 84 219 80C239 72 242 68 242 55V46C240 2 240 -73 240 -148V-447C275 -421 307 -377 314 -352C321 -328 330 -318 339 -318C355 -318 369 -334 369 -356C369 -363 367 -372 363 -380C353 -401 311 -435 240 -467V-579H382C389 -579 393 -580 393 -584C393 -586 391 -590 386 -596ZM980 -27C879 -37 793 -92 732 -197C782 -230 813 -251 844 -274C857 -284 881 -293 905 -294C910 -294 912 -295 912 -297C912 -299 910 -301 906 -304L848 -344C814 -304 763 -251 723 -211C709 -238 696 -267 685 -299C689 -301 692 -304 692 -306C692 -309 689 -311 684 -315L628 -356L602 -318H473C450 -318 425 -320 400 -322L428 -287C445 -294 473 -298 494 -298H620V-10C620 6 618 14 592 14C573 14 538 9 480 -2L477 14C567 34 585 47 594 81C595 86 597 88 601 88C603 88 605 88 608 87C656 69 663 51 663 21V-287L670 -290C731 -77 872 26 887 26C889 26 891 25 893 22C911 -3 931 -15 981 -15ZM516 -239L489 -205H376C354 -205 329 -207 304 -209L332 -175C349 -181 377 -185 398 -185H490C473 -136 409 -30 282 48L288 62C401 12 464 -50 533 -163C538 -171 549 -177 565 -182C572 -185 576 -187 576 -190C576 -192 573 -195 568 -199Z"/>
</svg>