<svg xmlns="http://www.w3.org/2000/svg" viewBox="0 -1000 1000 1000">
	<path fill="#000000" d="M319 -678L277 -628H223V-785L255 -801C261 -804 263 -806 263 -809C263 -811 261 -813 257 -815L174 -862C176 -825 178 -757 178 -716V-628H90C73 -628 57 -629 32 -632L60 -597C77 -604 93 -608 112 -608H173C140 -457 99 -328 24 -183L36 -175C84 -238 122 -312 178 -471V-132C178 -54 177 -2 174 56C174 61 173 65 173 68C173 79 175 83 181 83C186 83 192 81 201 77C222 68 225 64 225 51V43C223 -2 223 -54 223 -130V-471C261 -446 289 -396 297 -372C305 -348 310 -342 319 -342C330 -342 350 -359 350 -385C350 -389 349 -393 348 -398C342 -421 305 -456 223 -489V-608H368C375 -608 379 -609 379 -612C379 -614 377 -617 373 -621ZM988 -288C868 -294 752 -369 705 -470H949C954 -470 956 -471 956 -473C956 -475 954 -478 950 -482L888 -542L845 -490H538C551 -519 563 -549 574 -582H875C882 -582 885 -583 885 -586C885 -588 883 -591 878 -595L817 -651L775 -602H580C589 -631 598 -661 606 -697H931C938 -697 942 -698 942 -701C942 -703 939 -706 934 -711L873 -769L830 -717H611C617 -739 622 -763 628 -789L665 -808C668 -810 670 -811 670 -813C670 -815 668 -817 665 -818L587 -858C579 -805 571 -759 562 -717H413C393 -717 372 -719 347 -721L374 -686C391 -693 413 -697 434 -697H558C551 -663 542 -631 533 -602H454C433 -602 415 -603 390 -606L418 -571C435 -578 455 -582 476 -582H526C515 -550 503 -520 489 -490H368C345 -490 325 -491 300 -494L328 -459C345 -466 369 -470 390 -470H480C417 -341 346 -255 251 -180L259 -167C312 -198 366 -243 415 -297V-52C415 -32 413 56 413 74C413 80 414 83 418 83C422 83 428 81 438 76C456 67 459 64 459 54V14H778V65C778 72 779 75 784 75C790 75 826 65 826 49V43C823 6 822 -11 822 -62V-268C828 -272 830 -274 830 -276C830 -278 829 -279 827 -280L777 -311L766 -297H683C671 -297 654 -297 633 -300L659 -270C673 -275 686 -277 702 -277H778V-169H694C674 -169 653 -171 632 -173L656 -139C670 -145 695 -149 713 -149H778V-6H459V-150H602C609 -150 612 -151 612 -154C612 -156 611 -158 608 -161L562 -211L519 -170H459V-273C523 -284 551 -289 571 -289C583 -289 593 -287 605 -284C607 -284 609 -283 610 -283C612 -283 612 -284 612 -285C612 -286 611 -288 609 -291L567 -345C537 -326 505 -311 466 -295L433 -319C469 -363 502 -414 529 -470H685C744 -311 906 -243 912 -243C915 -243 918 -244 920 -248C930 -263 948 -272 988 -275Z"/>
</svg>