<svg xmlns="http://www.w3.org/2000/svg" viewBox="0 -1000 1000 1000">
	<path fill="#000000" d="M795 -693L767 -656H585L531 -707C533 -682 533 -650 533 -623V-529C533 -515 532 -453 532 -440C532 -429 534 -424 539 -424C543 -424 547 -426 553 -428C573 -435 573 -439 573 -469H781V-439C781 -428 782 -423 788 -423C792 -423 797 -425 806 -429C821 -436 824 -439 824 -450C824 -465 822 -532 822 -546V-618L846 -630C852 -633 854 -635 854 -638C854 -641 852 -644 846 -648ZM573 -491V-634H781V-491ZM857 -405L833 -372H768L712 -416C714 -399 714 -392 714 -332V-160C714 -128 713 -100 712 -79V-75C712 -70 713 -68 716 -68C719 -68 725 -70 734 -74C753 -82 754 -85 754 -110V-137H844V-88C844 -80 845 -76 850 -76C859 -76 887 -89 887 -105C887 -113 885 -164 885 -175V-339L906 -348C910 -350 912 -352 912 -354C912 -356 910 -359 905 -363ZM754 -159V-349H844V-159ZM624 -406L600 -374H528L478 -421C480 -404 480 -397 480 -337V-143C480 -129 478 -69 478 -57C478 -53 479 -51 482 -51C485 -51 491 -53 500 -57C519 -65 520 -68 520 -93V-137H611V-80C611 -72 612 -68 617 -68C624 -68 652 -78 652 -97C652 -108 651 -157 651 -167V-336L674 -348C678 -350 680 -352 680 -354C680 -356 678 -359 673 -363ZM520 -159V-351H611V-159ZM896 -48L851 1H402V-757H929C939 -757 945 -758 945 -762C945 -765 941 -771 933 -779L888 -827L841 -779H413L357 -827C358 -790 361 -714 361 -664V-19L319 10L379 51C384 54 386 56 389 56C392 56 394 53 398 49L420 23H939C949 23 955 22 955 18C955 15 951 9 943 1ZM227 -603H326C335 -603 339 -604 339 -607C339 -610 336 -615 329 -623L299 -659L270 -625H227V-778C240 -786 263 -801 263 -802C263 -804 258 -805 248 -810L182 -845C184 -808 186 -740 186 -699V-625H106C83 -625 58 -627 33 -629L61 -592C78 -599 107 -603 128 -603H183C160 -456 95 -263 19 -154L29 -145C79 -194 136 -295 186 -439V-95C186 12 186 24 184 57C184 64 183 70 183 74C183 84 185 88 189 88C192 88 197 86 205 82C225 71 229 67 229 54C229 31 227 -73 227 -94V-459C269 -425 287 -395 295 -364C301 -339 306 -334 315 -334C329 -334 346 -352 346 -376C346 -414 306 -445 227 -477Z"/>
</svg>