<svg xmlns="http://www.w3.org/2000/svg" viewBox="0 -1000 1000 1000">
	<path fill="#000000" d="M768 -657L743 -618H477L417 -659C419 -631 420 -614 420 -585V-534C420 -503 419 -477 417 -454V-446C417 -439 418 -435 424 -435C428 -435 434 -437 443 -441C460 -448 463 -453 463 -471H755V-442C755 -433 756 -428 762 -428C766 -428 772 -430 783 -435C799 -442 803 -448 803 -462C803 -475 801 -530 801 -541V-580L824 -594C830 -598 832 -601 832 -604C832 -608 830 -611 824 -615ZM463 -493V-596H755V-493ZM251 -849C202 -656 113 -454 24 -320L35 -312C90 -378 138 -450 183 -540V-119C183 -90 178 61 178 61C178 76 179 81 186 81C190 81 197 79 206 75C227 66 230 62 230 49C230 33 228 -34 228 -48V-539C257 -564 257 -564 257 -567C257 -570 254 -572 249 -575L209 -596C230 -643 251 -694 272 -751C281 -775 290 -784 312 -792C320 -795 324 -797 324 -800C324 -803 320 -807 312 -812ZM900 -421L869 -385H364C363 -404 360 -424 355 -444L342 -441C344 -371 330 -331 291 -303C270 -288 263 -280 263 -271C263 -258 272 -247 291 -247C324 -247 363 -277 365 -363H873L829 -288L812 -303L779 -258H439C416 -258 391 -260 366 -262L394 -225C411 -232 440 -236 461 -236H604V-26C604 -1 601 11 571 11C547 11 504 3 431 -13L427 0C536 34 557 46 564 80C565 88 569 91 574 91C576 91 578 90 581 89C646 58 651 45 651 -34V-236H858C869 -236 874 -238 874 -242C874 -248 870 -251 841 -277C894 -334 922 -355 958 -357C965 -358 969 -359 969 -362C969 -365 965 -369 959 -374ZM513 -843C556 -818 588 -774 592 -747C594 -733 604 -722 615 -722C638 -722 649 -739 649 -758C649 -796 594 -833 516 -852ZM874 -767L838 -719H378C355 -719 330 -721 305 -723L333 -686C350 -693 379 -697 400 -697H931C940 -697 946 -699 946 -704C946 -708 943 -713 935 -719Z"/>
</svg>