<svg xmlns="http://www.w3.org/2000/svg" viewBox="0 -1000 1000 1000">
	<path fill="#000000" d="M338 -788C379 -755 408 -706 414 -681C421 -654 429 -644 440 -644C453 -644 471 -659 471 -686C471 -708 459 -740 346 -798ZM914 -661L872 -610H718V-795L746 -811C752 -814 754 -817 754 -819C754 -821 750 -824 744 -827L673 -860C675 -831 675 -777 675 -736V-610H563V-794C597 -817 599 -818 599 -823C599 -826 595 -828 587 -831L518 -858C520 -829 520 -775 520 -734V-610H439C416 -610 391 -612 366 -614L402 -577C419 -584 442 -588 469 -588H953C964 -588 969 -589 969 -593C969 -596 966 -601 960 -608ZM854 -798C810 -732 783 -692 738 -628L748 -620L836 -706C869 -738 887 -749 906 -753C912 -754 916 -756 916 -758C916 -760 914 -762 910 -764ZM462 -562C492 -542 518 -507 523 -479C527 -455 531 -450 542 -450C557 -450 574 -465 574 -491C574 -521 554 -540 468 -571ZM231 -596H357C366 -596 371 -597 371 -600C371 -603 367 -608 360 -616L315 -667L275 -618H231V-785L260 -802C268 -807 273 -810 273 -813C273 -816 268 -819 259 -824L184 -860C186 -823 188 -755 188 -714V-618H96C73 -618 48 -620 23 -622L51 -585C68 -592 97 -596 118 -596H188V-573C147 -419 98 -301 21 -169L32 -159C88 -222 147 -328 188 -437V-162C188 -105 186 -14 183 44V58C183 73 184 78 190 78C194 78 200 75 209 70C229 58 233 54 233 41V36C231 -9 231 -84 231 -160V-468C271 -441 303 -392 310 -368C317 -344 321 -336 334 -336C348 -336 366 -357 366 -381C366 -427 265 -471 231 -485ZM972 4C821 -2 715 -54 656 -179H941C952 -179 958 -180 958 -184C958 -187 955 -192 948 -199L895 -256L849 -201H635C639 -232 642 -261 644 -300H861C872 -300 877 -301 877 -305C877 -308 874 -313 868 -320L825 -370L784 -322H645C646 -350 647 -384 647 -426H893C904 -426 909 -427 909 -431C909 -434 906 -439 900 -446L856 -496L816 -448H685L729 -499C748 -521 767 -535 780 -537C786 -538 789 -539 789 -541C789 -543 787 -545 783 -547L726 -583C705 -529 691 -499 663 -448H434C411 -448 386 -450 361 -452L397 -415C414 -422 443 -426 464 -426H599C599 -381 599 -349 598 -322H456C433 -322 408 -324 383 -326L419 -289C436 -296 465 -300 486 -300H597C596 -265 594 -238 589 -201H385C362 -201 337 -203 312 -205L348 -168C365 -175 383 -179 415 -179H586C570 -87 485 4 283 64L286 79C488 37 605 -35 632 -179H636C667 -71 736 -2 864 61C868 63 871 64 873 64C876 64 877 62 879 60C895 34 916 21 972 19Z"/>
</svg>