<svg xmlns="http://www.w3.org/2000/svg" viewBox="0 -1000 1000 1000">
	<path fill="#000000" d="M609 -414H467L405 -462C407 -434 408 -398 408 -376V-240C408 -178 407 -142 405 -113V-109C405 -100 407 -96 414 -96C418 -96 423 -97 430 -100C454 -110 454 -114 454 -147H808C808 -111 808 -107 814 -107C818 -107 823 -110 833 -115C854 -126 858 -131 858 -143V-149C854 -194 853 -219 853 -247V-376C881 -394 884 -396 884 -400C884 -403 881 -406 876 -409L819 -451L795 -414H655V-501H953C964 -501 969 -503 969 -508C969 -511 965 -517 958 -523L902 -577L864 -523H391C369 -523 344 -525 321 -527L348 -491C363 -497 392 -501 412 -501H609ZM609 -169H454V-273H609ZM454 -392H609V-295H454ZM655 -392H808V-295H655ZM808 -169H655V-273H808ZM716 -615H539V-704H716ZM763 -787C795 -805 795 -805 795 -809C795 -813 791 -816 782 -820L713 -850C715 -816 716 -780 716 -726H539V-784C571 -799 575 -801 575 -805C575 -809 570 -812 561 -816L489 -848C493 -814 494 -781 494 -726H421C396 -726 372 -727 348 -730L376 -694C392 -700 422 -704 443 -704H494V-645C494 -632 491 -577 491 -566C491 -553 493 -547 501 -547C512 -547 539 -557 539 -578V-593H716C716 -573 716 -567 724 -567C731 -567 764 -576 764 -592C764 -604 763 -656 763 -667V-703H935C946 -703 951 -705 951 -709C951 -712 947 -718 940 -725L884 -780L850 -725H763ZM542 -104C474 -36 370 33 280 78L284 92C388 52 466 12 543 -31C558 -39 574 -43 590 -44C598 -45 602 -46 602 -50C602 -52 600 -55 596 -58ZM679 -81C769 -35 815 -2 867 50C891 74 897 78 903 78C913 78 921 68 921 49C921 -9 881 -36 684 -93ZM50 -153C109 -264 155 -375 190 -487V-82C190 -58 185 49 185 71C185 80 187 85 193 85C197 85 203 82 212 78C232 69 236 64 236 50V44C235 19 234 -25 234 -96V-459C270 -425 298 -385 305 -357C309 -342 321 -330 331 -330C344 -330 355 -344 355 -363C355 -371 353 -380 349 -389C338 -412 300 -443 234 -477V-598H366C373 -598 377 -600 377 -604C377 -608 375 -612 369 -618L318 -671L281 -620H234V-783C259 -797 261 -799 261 -803C261 -807 258 -810 250 -814L186 -851C188 -814 190 -746 190 -705V-620H107C84 -620 59 -621 34 -624L62 -587C79 -594 108 -598 129 -598H178C149 -452 103 -302 37 -160Z"/>
</svg>