<svg xmlns="http://www.w3.org/2000/svg" viewBox="0 -1000 1000 1000">
	<path fill="#000000" d="M840 -402C799 -364 742 -316 672 -268C645 -321 604 -364 552 -400C569 -416 583 -433 596 -450H821C822 -439 824 -434 830 -434C834 -434 840 -436 849 -440C866 -447 871 -451 871 -460C871 -463 870 -465 870 -468C868 -481 866 -507 866 -527V-595C891 -612 894 -614 894 -617C894 -620 891 -623 886 -626L830 -662L805 -623H659C708 -692 738 -715 764 -721C779 -724 785 -727 785 -731C785 -734 781 -738 775 -742L719 -781L689 -745H539C581 -800 586 -806 603 -810C609 -812 612 -814 612 -817C612 -819 608 -823 601 -827L555 -852C507 -766 448 -681 384 -605L327 -657L296 -615H232V-782C253 -799 255 -801 255 -804C255 -807 251 -810 243 -813L184 -838C186 -801 188 -733 188 -692V-615H92C69 -615 44 -617 19 -619L47 -582C64 -589 93 -593 114 -593H180C150 -462 97 -306 30 -171L44 -164C109 -263 153 -359 188 -464V-157C188 -78 186 -9 183 49C183 54 182 59 182 63C182 76 185 81 191 81C195 81 201 79 210 75C231 66 234 62 234 49V41C232 -4 232 -79 232 -155V-479C272 -447 292 -422 306 -391C314 -374 320 -367 329 -367C342 -367 355 -380 355 -401C355 -444 310 -469 232 -500V-593H374C358 -574 341 -556 324 -538L332 -529C362 -553 390 -578 417 -605V-485C417 -475 415 -431 415 -422C415 -414 416 -411 421 -411C427 -411 460 -421 460 -435V-450H551C500 -384 426 -318 330 -261L339 -250C426 -298 489 -341 538 -386C552 -373 565 -360 576 -347C513 -273 451 -221 329 -142L338 -131C450 -189 528 -244 604 -312C617 -293 628 -274 636 -254C567 -174 455 -84 308 3L317 17C435 -39 561 -124 653 -207C659 -181 663 -155 663 -128C663 17 622 17 593 17C566 17 527 9 473 -6L468 8C548 30 569 45 578 75C580 81 582 84 587 84C590 84 594 82 600 80C682 47 708 7 708 -103C708 -160 698 -209 679 -252C696 -259 717 -273 735 -282C758 -177 805 -104 879 -35C884 -30 888 -27 891 -27C893 -27 896 -29 899 -32C917 -51 936 -59 975 -58L976 -69C868 -95 803 -160 750 -290C781 -307 811 -321 840 -336C854 -343 868 -346 880 -346C888 -346 892 -348 892 -351C892 -354 890 -357 885 -361ZM636 -623H447L439 -627C467 -657 495 -689 523 -725H691ZM460 -472V-601H630C619 -559 597 -516 567 -472ZM611 -472C637 -511 658 -552 675 -601H821V-472Z"/>
</svg>