<svg xmlns="http://www.w3.org/2000/svg" viewBox="0 -1000 1000 1000">
	<path fill="#000000" d="M822 -444L796 -408H573C658 -444 739 -481 807 -515C837 -530 851 -536 873 -536C886 -536 893 -537 893 -540C893 -543 888 -547 879 -554L833 -587C785 -553 723 -516 660 -484V-603H829C837 -603 841 -604 841 -607C841 -610 838 -614 833 -620L789 -671L745 -622H510C487 -622 462 -624 437 -626L465 -592C482 -599 511 -603 532 -603H616V-463C594 -452 500 -408 493 -408L434 -454C435 -431 437 -404 437 -382C368 -354 308 -331 259 -315V-300C316 -314 377 -333 438 -356V-208C438 -150 437 -108 434 -74C434 -70 433 -66 433 -63C433 -53 435 -49 442 -49C446 -49 452 -51 460 -54C483 -63 483 -63 483 -92H808C808 -55 808 -54 814 -54C818 -54 825 -56 836 -62C853 -70 857 -74 857 -85V-89C855 -113 854 -147 854 -202V-370L879 -382C884 -385 887 -387 887 -390C887 -393 884 -396 877 -402ZM483 -214V-294H808V-214ZM483 -112V-195H808V-112ZM483 -313V-372C497 -377 511 -383 525 -389H808V-313ZM556 -68C492 -20 382 41 285 81L290 95C388 68 472 34 556 -3C569 -9 583 -12 602 -12C611 -12 615 -13 615 -16C615 -19 612 -23 605 -28ZM553 -841C604 -814 632 -770 638 -751C643 -735 649 -733 658 -733C674 -733 689 -753 689 -775C689 -780 688 -786 686 -791C676 -818 625 -841 558 -853ZM902 -766L869 -730H454C453 -748 450 -768 445 -787H431C431 -715 407 -685 391 -671C380 -660 367 -643 367 -631C367 -621 380 -608 393 -608C403 -608 454 -621 454 -710H875L840 -654L852 -648C892 -681 924 -693 950 -693C967 -693 969 -693 969 -696C969 -699 966 -703 959 -710ZM488 -582C456 -540 416 -491 353 -443L362 -431C445 -480 462 -492 501 -522C509 -528 523 -532 537 -534C545 -535 549 -537 549 -540C549 -542 546 -546 539 -550ZM290 -673L249 -622H226V-781L256 -797C263 -801 267 -804 267 -807C267 -810 263 -813 255 -817L180 -859C182 -822 184 -742 184 -701V-622H106C83 -622 58 -624 33 -626L62 -591C79 -598 108 -602 129 -602H184C152 -457 99 -309 27 -194L39 -186C111 -275 149 -357 184 -462V-161C184 -59 182 -11 180 38V53C180 67 181 72 187 72C192 72 198 69 208 64C225 55 228 51 228 34V24C226 -20 226 -83 226 -159V-490C260 -467 287 -423 290 -408C296 -380 300 -375 312 -375C326 -375 342 -392 342 -419C342 -465 261 -497 226 -509V-602H333C343 -602 348 -604 348 -607C348 -610 346 -613 342 -617ZM683 -50C786 -12 857 31 876 52C887 64 910 83 920 83C932 83 943 69 943 51C943 -12 815 -38 689 -62Z"/>
</svg>