<svg xmlns="http://www.w3.org/2000/svg" viewBox="0 -1000 1000 1000">
	<path fill="#000000" d="M891 -777L855 -727H759V-796C769 -802 787 -812 787 -815C787 -817 784 -819 779 -821L711 -850C713 -817 714 -789 714 -764V-727H577V-800C601 -811 603 -812 603 -816C603 -818 601 -820 595 -823L530 -852C532 -819 533 -791 533 -766V-727H421C398 -727 373 -728 348 -731L376 -694C393 -701 422 -705 443 -705H533C533 -697 532 -662 532 -655C532 -640 535 -634 543 -634C554 -634 579 -645 579 -659C579 -666 577 -698 577 -705H714C714 -696 713 -655 713 -646C713 -631 717 -624 725 -624C725 -624 761 -630 761 -649C761 -654 759 -696 759 -705H946C952 -705 956 -707 956 -710C956 -713 954 -716 950 -720ZM906 -640L877 -609H422C422 -619 421 -629 419 -639H406C399 -583 390 -557 349 -521C339 -512 335 -504 335 -498C335 -490 342 -477 360 -477C423 -477 423 -572 423 -587H882L838 -522L849 -513C894 -559 923 -571 959 -572C964 -572 967 -574 967 -576C967 -578 965 -581 963 -583ZM740 -549L706 -503H539C516 -503 491 -504 466 -507L494 -470C511 -477 540 -481 561 -481H786C796 -481 801 -483 801 -487C801 -491 797 -496 790 -503ZM312 -665L281 -622H248V-794C258 -802 273 -815 273 -819C273 -821 270 -824 264 -826L200 -851C202 -814 204 -748 204 -707V-622H110C87 -622 63 -623 37 -626L65 -589C82 -596 111 -600 132 -600H193C152 -435 97 -291 31 -169L42 -160C111 -262 164 -373 204 -497V-160C204 -103 202 -12 199 46C199 52 198 57 198 61C198 73 200 78 206 78C211 78 217 76 226 72C247 63 250 59 250 46V38C248 -2 248 -82 248 -158V-456C273 -434 288 -407 300 -377C306 -361 311 -355 320 -355C329 -355 344 -368 344 -392C344 -426 320 -446 248 -476V-600H355C364 -600 368 -601 368 -604C368 -607 365 -611 360 -616ZM968 -56C893 -70 794 -112 734 -247L822 -289C838 -297 857 -299 870 -299C887 -299 887 -299 887 -302C887 -304 886 -307 882 -310L831 -354C761 -298 713 -264 669 -235C653 -261 617 -302 580 -331C601 -346 621 -361 638 -377H927C936 -377 942 -379 942 -382C942 -386 938 -390 931 -397L875 -449L838 -399H446C423 -399 398 -400 373 -403L401 -366C418 -373 447 -377 468 -377H567C526 -332 452 -281 325 -222L329 -209C422 -240 500 -279 565 -321C572 -313 580 -306 586 -298C508 -220 428 -158 293 -86L297 -74C412 -114 526 -193 611 -265C621 -251 630 -235 638 -218C559 -139 449 -60 295 28L301 39C442 -21 569 -102 655 -174C662 -154 665 -133 665 -110C665 17 618 22 588 22C563 22 530 15 485 2L481 14C559 43 569 55 573 84C574 89 576 92 580 92C582 92 584 91 587 90C682 57 705 15 705 -92C705 -136 698 -170 676 -220L716 -238C765 -122 811 -61 880 -13C883 -11 886 -9 889 -9C892 -9 894 -11 897 -15C909 -32 931 -40 971 -43Z"/>
</svg>