<svg xmlns="http://www.w3.org/2000/svg" viewBox="0 -1000 1000 1000">
	<path fill="#000000" d="M848 -693L819 -654H659C712 -702 755 -726 785 -729C796 -730 802 -732 802 -735C802 -738 799 -742 793 -747L741 -795L704 -762H532C562 -805 562 -805 594 -811C604 -813 609 -816 609 -818C609 -821 605 -824 599 -827L534 -858C497 -779 394 -632 319 -537L327 -529C343 -543 373 -575 407 -613V-487C407 -453 406 -425 405 -416C405 -413 404 -411 404 -409C404 -404 406 -402 410 -402C420 -402 443 -409 446 -421H836C836 -404 836 -395 844 -395C847 -395 886 -406 886 -421C886 -423 885 -425 885 -427C882 -452 881 -495 881 -522V-620L908 -634C914 -638 917 -640 917 -643C917 -645 914 -648 908 -652ZM448 -549V-632H619V-549ZM662 -549V-632H836V-549ZM662 -441V-527H836V-441ZM448 -441V-527H619V-441ZM635 -654H443C468 -683 493 -714 515 -742H706ZM410 -392C400 -339 382 -312 340 -284C328 -276 321 -265 321 -255C321 -245 329 -232 348 -232C412 -232 424 -325 423 -391ZM802 -286L777 -248H496L446 -294C448 -265 448 -217 448 -194V-66C448 -5 446 46 444 64C443 70 443 74 443 77C443 82 444 84 447 84C451 84 457 81 469 74C487 63 490 59 490 44V13H789V66C789 76 789 80 794 80C797 80 803 78 814 72C832 63 835 59 835 48V42C833 18 832 -17 832 -55V-215L861 -230C867 -233 870 -235 870 -238C870 -240 867 -243 862 -246ZM490 -135V-228H789V-135ZM490 -11V-111H789V-11ZM223 -603H335C342 -603 346 -604 346 -607C346 -610 343 -614 338 -621L304 -663L275 -624H223V-795C252 -811 255 -812 255 -817C255 -820 251 -823 243 -827L176 -864C178 -827 179 -738 179 -697V-624H97C74 -624 48 -626 23 -628L52 -593C69 -600 98 -603 119 -603H175C159 -500 76 -294 22 -217L34 -206C86 -263 143 -375 179 -475V-135C179 -57 178 4 175 55V68C175 81 176 87 182 87C186 87 193 84 202 78C221 67 225 63 225 50V44C223 -1 223 -57 223 -133V-493C260 -464 293 -418 299 -398C308 -365 313 -360 324 -360C339 -360 357 -374 357 -399C357 -432 332 -463 223 -512ZM650 -400C683 -368 700 -325 702 -307C705 -278 707 -273 721 -273C736 -273 755 -288 755 -313V-317C753 -347 708 -382 658 -410ZM496 -399C526 -366 540 -326 540 -301C540 -274 546 -267 560 -267C579 -267 595 -283 595 -309C595 -334 562 -374 507 -409ZM815 -379C857 -346 892 -300 900 -274C910 -240 913 -237 926 -237C943 -237 958 -253 958 -276C958 -279 958 -282 957 -286C950 -322 894 -359 822 -389Z"/>
</svg>