<svg xmlns="http://www.w3.org/2000/svg" viewBox="0 -1000 1000 1000">
	<path fill="#000000" d="M479 -705L454 -668H326L267 -715C269 -689 269 -671 269 -647V-524C269 -508 267 -483 267 -468C267 -463 268 -461 271 -461C274 -461 279 -463 286 -466C305 -475 310 -478 310 -488V-507H462C462 -476 462 -472 469 -472C472 -472 505 -483 505 -497C505 -508 503 -526 503 -537V-629L531 -647C534 -649 536 -651 536 -652C536 -654 534 -656 532 -658ZM310 -529V-646H462V-529ZM544 -435L526 -405H471L422 -446C424 -420 424 -402 424 -378V-238C424 -223 422 -144 422 -141C422 -136 423 -134 427 -134C427 -134 465 -145 465 -161V-200H529C529 -156 529 -155 535 -155C538 -155 572 -166 572 -180C572 -183 570 -246 570 -259V-371L594 -388C597 -390 599 -392 599 -394C599 -396 597 -398 595 -399ZM465 -222V-382H529V-222ZM329 -436L307 -406H258L209 -450C211 -424 211 -406 211 -382V-184C211 -169 209 -144 209 -128C209 -123 210 -121 214 -121C214 -121 252 -132 252 -148V-199H313V-162C313 -151 314 -146 319 -146C322 -146 356 -157 356 -171C356 -182 354 -200 354 -211V-372L375 -386C378 -388 379 -390 379 -392C379 -394 378 -396 376 -397ZM252 -221V-383H313V-221ZM901 -684L868 -642H678C697 -684 714 -726 728 -763C741 -798 744 -803 769 -814C774 -816 776 -819 776 -821C776 -823 775 -825 771 -827L701 -861C670 -725 629 -599 570 -465L582 -459C602 -487 636 -551 668 -620H876L809 -470L822 -463C899 -591 929 -610 955 -610C962 -610 965 -611 965 -614C965 -616 964 -618 961 -621ZM766 -522C770 -524 772 -526 772 -527C772 -529 770 -531 766 -532L692 -556C687 -295 677 -147 579 -39C578 -42 575 -46 570 -51L524 -99L493 -52H153V-751H580C591 -751 596 -752 596 -756C596 -759 592 -764 584 -772L534 -822L499 -773H167L107 -824C108 -787 111 -711 111 -661V-65L73 -37L130 -2C134 1 138 2 140 2C144 2 146 -1 165 -30H572C544 -1 508 30 458 69L466 82C685 -42 722 -165 730 -507L733 -508C737 -213 775 -130 883 4C885 6 886 7 888 7C890 7 893 6 895 4C908 -7 921 -14 943 -14C953 -14 964 -12 978 -10L980 -23C835 -92 756 -210 741 -512Z"/>
</svg>