<svg xmlns="http://www.w3.org/2000/svg" viewBox="0 -1000 1000 1000">
	<path fill="#000000" d="M912 -625L878 -583H837V-670L866 -688C868 -689 869 -691 869 -692C869 -695 867 -697 863 -700L806 -739L780 -703H681V-781L708 -800C711 -802 712 -804 712 -805C712 -808 710 -809 706 -811L635 -844C637 -808 637 -744 637 -703H533C515 -703 496 -704 477 -706L506 -674C519 -678 533 -681 548 -681H637V-583H495C476 -583 456 -585 435 -587L463 -552C477 -557 496 -561 513 -561H637V-463H547C530 -463 512 -465 493 -467L516 -432C530 -438 548 -441 565 -441H637V-342H537C518 -342 498 -344 478 -346L500 -309C515 -316 538 -320 555 -320H637V-218H513C494 -218 473 -220 452 -222L475 -185C489 -192 513 -196 531 -196H637C637 -175 635 -72 635 -61C635 -50 637 -45 642 -45C646 -45 652 -47 661 -52C680 -63 684 -67 684 -77V-81C681 -125 681 -156 681 -196H915C922 -196 926 -197 926 -200C926 -202 923 -205 918 -209L854 -265L822 -218H681V-320H890C895 -320 897 -321 897 -323C897 -325 895 -328 891 -331L831 -386L796 -342H681V-441H793C793 -413 793 -410 799 -410C803 -410 808 -411 815 -414C837 -423 840 -427 840 -442C838 -475 837 -495 837 -524V-561H968C973 -561 976 -562 976 -564C976 -566 974 -569 970 -572ZM681 -583V-681H793V-583ZM681 -463V-561H793V-463ZM240 -832C191 -654 111 -474 20 -318L31 -309C78 -370 112 -421 150 -494V-96C150 -44 149 -4 147 26V40C147 53 149 58 155 58C160 58 166 56 175 52C192 44 197 41 197 25V20C196 3 194 -32 194 -94V-493L220 -515C223 -517 224 -519 224 -521C224 -523 222 -525 217 -527L177 -549C201 -600 228 -660 261 -738C271 -762 280 -774 297 -780C304 -783 308 -785 308 -787C308 -790 305 -792 299 -796ZM947 -36C852 -25 774 -19 708 -19C541 -19 459 -57 391 -135C416 -196 432 -260 450 -388L474 -402C477 -404 479 -406 479 -409C479 -411 478 -413 475 -416L429 -460L401 -424H337L415 -616C427 -645 439 -652 462 -658C467 -659 470 -661 470 -663C470 -665 468 -668 464 -672L414 -722L384 -683H307C288 -683 267 -685 246 -687L270 -650C283 -657 308 -661 325 -661H391L303 -440L262 -417L309 -380C312 -378 314 -377 316 -377C320 -377 321 -379 335 -402H410C398 -283 385 -224 366 -167C330 -215 302 -263 274 -329L261 -324C276 -268 319 -177 352 -132C321 -56 283 -5 205 72L213 81C293 18 345 -35 377 -103C482 10 543 25 852 31C860 31 862 29 864 23C872 0 888 -12 947 -25Z"/>
</svg>