<svg xmlns="http://www.w3.org/2000/svg" viewBox="0 -1000 1000 1000">
	<path fill="#000000" d="M970 10C848 -14 762 -44 696 -89C759 -143 814 -215 873 -322C889 -352 897 -359 909 -362C915 -364 918 -366 918 -369C918 -372 916 -375 912 -378L849 -422L817 -382H491C468 -382 443 -383 418 -386L446 -349C461 -356 478 -359 493 -360C531 -234 566 -152 626 -88C544 -29 437 18 291 66L296 79C458 36 567 1 656 -59C734 9 869 62 872 62C875 62 877 61 878 59C893 36 917 22 969 25ZM828 -360C786 -255 735 -178 661 -116C596 -172 553 -250 514 -360ZM49 -219C104 -294 140 -354 170 -422C199 -391 219 -359 223 -329C227 -296 236 -284 248 -284C263 -284 281 -306 281 -332C281 -382 201 -426 177 -439C188 -466 199 -495 209 -528H362C329 -270 259 -120 42 43L51 55C283 -86 368 -240 409 -515L436 -528C439 -529 441 -531 441 -534C441 -536 439 -539 435 -542L376 -587L346 -549H216C225 -577 243 -639 266 -725H471C477 -725 480 -726 480 -728C480 -730 478 -733 475 -736L411 -800L369 -747H118C95 -747 72 -748 45 -751L73 -714C90 -721 119 -725 140 -725H211C179 -547 124 -369 38 -226ZM746 -432C796 -523 835 -597 874 -668C888 -693 899 -705 918 -710C926 -712 931 -716 931 -721C931 -724 929 -727 924 -731L856 -782L820 -735H605C607 -750 609 -766 611 -783C645 -803 645 -803 645 -808C645 -811 641 -814 632 -817L565 -840C552 -618 528 -556 423 -438L431 -428C541 -512 579 -578 602 -714H833L729 -441Z"/>
</svg>