<svg xmlns="http://www.w3.org/2000/svg" viewBox="0 -1000 1000 1000">
	<path fill="#000000" d="M913 -365L880 -319H850V-598L881 -620C885 -623 888 -626 888 -629C888 -632 885 -635 880 -638L814 -678L789 -638H668C671 -683 672 -722 673 -784L699 -802C703 -805 705 -808 705 -810C705 -813 703 -815 699 -817L622 -850C623 -811 624 -774 624 -739C624 -704 623 -671 622 -638H501L444 -680C445 -658 447 -607 447 -582V-319H411C388 -319 363 -321 338 -323L366 -286C383 -293 412 -297 433 -297H599C566 -104 426 -8 257 81L261 93C465 21 614 -93 645 -297H655C678 -137 749 -48 858 42C860 44 862 45 865 45C868 45 871 43 874 40C891 23 917 10 961 12L964 -2C820 -29 712 -147 671 -297H961C971 -297 975 -300 975 -304C975 -308 973 -312 967 -317ZM648 -319C658 -402 664 -519 667 -616H803V-319ZM493 -319V-616H622C621 -518 614 -399 603 -319ZM366 -771L334 -727H112C89 -727 64 -729 39 -731L67 -694C84 -701 113 -705 134 -705H186C145 -481 120 -382 31 -205L41 -198C82 -252 120 -318 150 -395C181 -360 194 -331 199 -304C203 -283 207 -274 218 -274C233 -274 247 -290 247 -314C247 -329 247 -358 156 -409C167 -439 178 -470 187 -503H314C285 -240 205 -87 35 76L43 85C288 -78 335 -326 361 -488C391 -504 395 -506 395 -510C395 -513 392 -516 388 -520L331 -567L302 -524H193C209 -583 223 -640 235 -705H417C426 -705 431 -707 431 -712C431 -715 428 -720 421 -725Z"/>
</svg>