<svg xmlns="http://www.w3.org/2000/svg" viewBox="0 -1000 1000 1000">
	<path fill="#000000" d="M420 -688L392 -648H194C194 -678 195 -703 195 -726L418 -779C430 -782 441 -783 450 -783C455 -783 476 -779 480 -779C482 -779 483 -780 483 -781C483 -783 480 -786 475 -791L422 -841C355 -805 281 -771 209 -744L146 -796C147 -724 148 -627 148 -543C148 -164 134 -75 26 74L35 82C135 -21 172 -118 184 -266H388C383 -191 375 -130 366 -97C358 -70 350 -57 312 -57C291 -57 260 -61 215 -69L214 -55C290 -34 302 -21 310 11C311 18 314 20 318 20C319 20 321 20 324 19C410 -16 413 -26 435 -252L464 -271C467 -273 469 -275 469 -276C469 -278 467 -280 464 -283L403 -329L376 -288H186C188 -318 189 -350 190 -385H403C403 -359 403 -356 410 -356C414 -356 419 -358 426 -361C449 -372 453 -375 453 -385C453 -406 450 -439 450 -460V-614L479 -631C483 -634 485 -636 485 -638C485 -640 483 -642 479 -645ZM192 -529C193 -565 194 -597 194 -626H403V-529ZM190 -407C191 -444 192 -477 192 -507H403V-407ZM977 -12C876 -35 795 -68 733 -123C789 -192 813 -251 844 -334C851 -352 865 -365 886 -372C891 -374 894 -376 894 -378C894 -380 892 -383 888 -386L826 -438L795 -396H572C549 -396 524 -398 499 -400L527 -363C542 -370 560 -373 577 -374C600 -276 626 -188 676 -121C611 -48 504 19 377 70L382 83C516 47 631 -13 704 -89C768 -22 875 36 879 36C882 36 885 35 886 33C901 10 920 3 977 1ZM803 -374C784 -300 755 -224 702 -154C655 -209 620 -289 598 -374ZM832 -734L863 -754C868 -757 869 -760 869 -762C869 -764 868 -766 865 -768L803 -817L773 -775H661L605 -824C609 -550 590 -503 472 -431L479 -420C629 -489 649 -535 653 -753H785V-557C785 -494 793 -481 864 -481C881 -481 966 -482 966 -494C966 -500 952 -521 929 -540C910 -525 900 -522 869 -522C842 -522 832 -528 832 -571Z"/>
</svg>