<svg xmlns="http://www.w3.org/2000/svg" viewBox="0 -1000 1000 1000">
	<path fill="#000000" d="M441 -696L416 -667H290L238 -709C240 -683 240 -665 240 -641V-526C240 -517 238 -468 238 -468C238 -464 239 -462 243 -462C244 -462 281 -471 281 -488V-499H431C431 -466 431 -462 438 -462C441 -462 474 -473 474 -486C474 -501 472 -524 472 -539V-632C498 -645 500 -647 500 -650C500 -652 499 -654 496 -656ZM281 -521V-645H431V-521ZM495 -419L476 -389H426L381 -426C383 -400 383 -382 383 -358V-175C383 -157 381 -129 381 -111C381 -106 382 -103 387 -103C390 -103 395 -105 402 -107C422 -114 424 -119 424 -131V-174H484V-129C484 -118 485 -113 490 -113C493 -113 527 -124 527 -138C527 -153 525 -178 525 -194V-361L546 -375C550 -377 552 -379 552 -381C552 -383 550 -385 546 -387ZM424 -196V-366H484V-196ZM301 -416L282 -389H234L188 -425C190 -399 190 -381 190 -357V-177C190 -157 189 -108 188 -101V-97C188 -92 189 -90 193 -90C196 -90 200 -91 207 -95C229 -106 231 -109 231 -123V-173H291V-131C291 -120 292 -115 297 -115C299 -115 334 -125 334 -140C334 -150 332 -193 332 -202V-358L352 -371C355 -373 357 -375 357 -377C357 -379 355 -381 352 -383ZM231 -195V-366H291V-195ZM961 -16C877 -28 803 -62 738 -130C780 -190 809 -262 830 -352C836 -376 839 -380 859 -385C868 -387 872 -390 872 -393C872 -396 869 -399 864 -403L804 -448L775 -408H619C596 -408 571 -410 546 -412L582 -375L597 -381C618 -258 645 -185 689 -128C639 -62 566 -1 461 56L467 69C577 24 656 -28 714 -97C774 -28 872 35 875 35C877 35 879 33 881 31C892 14 921 -3 961 -3ZM787 -386C776 -303 754 -229 711 -161C664 -220 634 -287 613 -384C620 -385 627 -386 634 -386ZM824 -739L857 -754C862 -756 865 -759 865 -761C865 -764 862 -767 856 -772L801 -813L770 -777H656L603 -814C604 -777 605 -744 605 -715C605 -542 579 -506 498 -448L505 -435C628 -508 649 -535 647 -755H783V-577C783 -512 787 -509 869 -509C890 -509 959 -510 959 -520C959 -522 946 -546 906 -563C890 -553 874 -548 855 -548C830 -548 824 -553 824 -586ZM505 -84L467 -33H135V-753H542C553 -753 558 -754 558 -757C558 -760 554 -766 546 -774L500 -822L465 -775H144L89 -820C90 -783 93 -707 93 -657V-46L56 -20L114 19C117 21 120 22 122 22C124 22 126 21 128 18L148 -11H539C552 -11 558 -12 558 -16C558 -19 554 -24 548 -32Z"/>
</svg>