<svg xmlns="http://www.w3.org/2000/svg" viewBox="0 -1000 1000 1000">
	<path fill="#000000" d="M912 -293L871 -245H763C764 -281 766 -322 767 -373L800 -391C805 -394 808 -396 808 -398C808 -401 805 -404 801 -407L737 -455L705 -413H322L271 -459C268 -436 266 -414 258 -369L236 -245H95C72 -245 47 -247 22 -249L50 -212C67 -219 96 -223 117 -223H232L211 -103L171 -76L228 -37C232 -34 235 -33 237 -33C242 -33 244 -36 264 -60H707C702 -5 694 14 648 14C625 14 591 9 542 1L538 13C621 37 646 56 651 84C652 88 653 89 656 89C658 89 660 89 664 87C734 57 744 36 751 -60H925C931 -60 934 -61 934 -64C934 -66 932 -69 929 -73L876 -130L834 -82H753C757 -130 759 -171 762 -223H962C969 -223 973 -225 973 -228C973 -230 971 -233 967 -237ZM281 -245L307 -391H719C719 -333 718 -286 717 -245ZM252 -82L277 -223H716C714 -173 712 -131 709 -82ZM454 -367C477 -341 490 -309 493 -283C495 -263 503 -256 513 -256C530 -256 542 -275 542 -294C542 -314 528 -341 460 -375ZM431 -204C465 -175 477 -146 484 -120C489 -102 495 -96 504 -96C519 -96 536 -111 531 -140C527 -161 512 -181 437 -212ZM892 -559L856 -513H526V-600H803C810 -600 814 -601 814 -604C814 -606 812 -609 808 -613L751 -669L712 -622H526V-715H889C896 -715 900 -716 900 -719C900 -721 897 -725 893 -729L835 -786L796 -737H526V-795L552 -811C557 -814 560 -817 560 -819C560 -821 557 -823 551 -826L474 -860C476 -824 478 -777 478 -737H159C136 -737 111 -739 86 -741L114 -704C131 -711 160 -715 181 -715H478V-622H247C224 -622 199 -624 174 -626L202 -589C219 -596 248 -600 269 -600H478V-513H116C93 -513 68 -515 43 -517L71 -480C88 -487 117 -491 138 -491H944C951 -491 954 -492 954 -495C954 -497 952 -501 948 -505Z"/>
</svg>