<svg xmlns="http://www.w3.org/2000/svg" viewBox="0 -1000 1000 1000">
	<path fill="#000000" d="M469 -404L434 -364H398L404 -534L432 -554C436 -557 438 -559 438 -562C438 -565 436 -568 431 -571L376 -610L351 -574H191L146 -611C140 -565 137 -539 134 -515L115 -364C78 -364 56 -364 21 -368L49 -331C65 -338 92 -342 113 -342L89 -152L54 -125L99 -93C102 -91 104 -90 107 -90C112 -90 114 -92 135 -113H349C345 -37 339 -15 286 -15C265 -15 237 -18 200 -23L198 -11C272 8 288 20 295 46C297 53 300 55 303 55C304 55 305 55 307 54C373 19 388 -2 392 -113H491C497 -113 500 -114 500 -117C500 -119 498 -123 494 -127L448 -176L418 -135H392C394 -200 396 -269 397 -342H512C517 -342 519 -343 519 -346C519 -348 518 -351 514 -355ZM156 -364L180 -552H362L359 -364ZM127 -135L153 -342H358C356 -268 353 -200 350 -135ZM614 -843C653 -800 662 -774 668 -745C673 -721 675 -717 689 -717C704 -717 722 -734 722 -755C722 -776 703 -809 621 -851ZM410 -757L372 -707H195C207 -727 219 -748 231 -770C240 -786 245 -789 267 -800C272 -802 274 -805 274 -808C274 -811 272 -814 266 -817L210 -847C158 -718 103 -607 30 -497L40 -489C82 -533 132 -603 182 -685H457C463 -685 466 -686 466 -689C466 -691 464 -695 460 -699ZM904 -764L864 -715H553C530 -715 506 -716 480 -719L508 -682C525 -689 554 -693 575 -693H651C599 -606 579 -577 530 -517C517 -501 503 -493 472 -493L503 -446C506 -442 508 -440 512 -440C515 -440 519 -441 525 -444C557 -459 593 -467 837 -487C841 -476 845 -465 848 -453C854 -431 861 -423 874 -423C891 -423 902 -444 902 -464C902 -507 842 -562 752 -624L745 -615C789 -568 814 -534 831 -500L530 -490L664 -628C674 -638 680 -642 704 -650C710 -652 713 -654 713 -656C713 -659 710 -662 705 -665L664 -693H955C961 -693 965 -694 965 -697C965 -699 963 -702 959 -706ZM220 -531C241 -501 249 -465 249 -437C249 -410 249 -401 263 -401C282 -401 297 -418 297 -442C297 -462 268 -510 227 -539ZM932 -149C922 -11 917 -9 856 -9C836 -9 827 -14 827 -41V-363C848 -377 850 -378 850 -382C850 -385 847 -387 841 -390L783 -413C785 -382 786 -345 786 -301V-43C786 12 791 29 878 29C918 29 951 20 968 -14C970 -17 970 -19 970 -21C970 -25 968 -27 964 -31C949 -43 946 -59 946 -149ZM531 -412C533 -387 534 -355 534 -317V-187C534 -89 495 -1 373 79L379 89C461 51 542 -16 565 -108C574 -145 578 -209 578 -357L595 -371C598 -373 599 -375 599 -377C599 -380 596 -382 593 -384ZM656 -410C658 -373 659 -339 659 -296V-127C659 -103 657 1 657 22C657 38 659 44 667 44C671 44 677 43 686 39C701 33 704 31 704 17C703 -13 700 -59 700 -126V-362L714 -371C719 -374 722 -377 722 -379C722 -382 718 -384 711 -387ZM211 -304C232 -268 239 -231 239 -204C239 -180 239 -165 254 -165C269 -165 287 -182 286 -213C285 -239 252 -281 219 -310Z"/>
</svg>