<svg xmlns="http://www.w3.org/2000/svg" viewBox="0 -1000 1000 1000">
	<path fill="#000000" d="M903 -189L884 -3C706 -35 599 -152 563 -339H936C946 -339 951 -340 951 -344C951 -348 947 -353 939 -360L871 -421L830 -362H559C550 -417 547 -486 547 -546H746V-509C746 -499 747 -494 753 -494C757 -494 764 -496 774 -502C793 -512 798 -516 798 -527C798 -529 797 -532 797 -536C794 -567 793 -594 793 -630V-727L823 -745C829 -748 832 -751 832 -754C832 -757 829 -760 823 -764L762 -810L732 -765H243L182 -818C184 -795 185 -745 185 -690V-62C185 -15 177 -6 140 17L185 60C189 64 192 67 195 67C199 67 202 63 207 55C222 31 292 -14 494 -126L487 -138L231 -25V-339H517C559 -113 678 5 892 57C918 63 934 66 945 66C951 66 963 65 963 53C963 46 958 39 947 25C931 6 919 -41 919 -189ZM231 -568V-743H746V-568ZM231 -362V-546H497C498 -488 503 -420 513 -362Z"/>
</svg>