<svg xmlns="http://www.w3.org/2000/svg" viewBox="0 -1000 1000 1000">
	<path fill="#000000" d="M625 -781C691 -748 723 -710 733 -677C741 -650 744 -646 757 -646C774 -646 789 -669 789 -695C789 -706 786 -717 781 -727C766 -755 707 -778 630 -793ZM148 -525C217 -456 239 -401 246 -364C252 -331 259 -320 275 -320C293 -320 310 -343 310 -373C310 -382 309 -391 306 -400C296 -431 228 -494 158 -535ZM962 -91C825 -117 721 -188 637 -325L801 -472C808 -478 817 -482 828 -482C839 -482 845 -483 845 -488C845 -492 840 -499 831 -509L792 -552C752 -491 684 -406 627 -342C601 -389 555 -490 522 -589V-607H923C935 -607 940 -609 940 -613C940 -616 936 -621 927 -629L868 -679L828 -629H522V-769C554 -789 558 -792 558 -796C558 -800 553 -803 543 -808L471 -843C473 -806 475 -738 475 -697V-629H125C102 -629 77 -631 52 -633L80 -596C97 -603 126 -607 147 -607H475V-337L49 -125L103 -75C106 -72 109 -70 112 -70C115 -70 118 -73 124 -81C139 -104 168 -130 200 -149L475 -317V-29C475 -7 469 5 432 5C407 5 368 0 307 -12L305 3C405 33 428 45 433 80C435 91 438 95 444 95C445 95 447 95 449 94C517 69 522 63 522 -12V-537C594 -279 689 -155 844 -39C849 -36 852 -34 855 -34C858 -34 861 -37 865 -41C890 -70 906 -78 962 -78Z"/>
</svg>