<svg xmlns="http://www.w3.org/2000/svg" viewBox="0 -1000 1000 1000">
	<path fill="#000000" d="M891 -659L845 -602H622V-780L657 -802C661 -805 664 -807 664 -810C664 -812 661 -814 655 -817L572 -858C574 -821 576 -753 576 -712V-347H449L386 -400C387 -371 389 -310 389 -276V-95C389 -49 388 -5 386 42V52C386 66 387 72 394 72C398 72 406 69 417 63C432 55 434 52 434 41V-27H769V67C769 75 770 79 776 79C780 79 786 77 795 74C818 65 822 62 822 49C822 38 819 -27 819 -41V-306L851 -328C856 -332 859 -335 859 -338C859 -340 856 -343 852 -346L783 -392L755 -347H622V-580H944C954 -580 959 -582 959 -586C959 -589 955 -595 948 -602ZM434 -49V-325H769V-49ZM141 -801C218 -756 237 -730 256 -688C266 -666 277 -657 289 -657C298 -657 315 -678 315 -702C315 -754 240 -785 147 -813ZM41 -582C123 -538 146 -504 162 -463C168 -448 181 -441 187 -441C200 -441 215 -461 215 -484C215 -541 127 -571 46 -595ZM417 -742L205 -287C186 -246 164 -228 97 -228C84 -228 69 -229 53 -230V-213C154 -197 184 -176 184 -122C184 -104 181 -81 175 -53C168 -21 165 3 165 21C165 51 174 61 188 61C215 61 232 45 232 -1C232 -16 230 -33 227 -54C219 -102 216 -135 216 -160C216 -190 221 -208 230 -230C327 -471 379 -602 431 -734Z"/>
</svg>