<svg xmlns="http://www.w3.org/2000/svg" viewBox="0 -1000 1000 1000">
	<path fill="#000000" d="M864 -593L836 -547H679V-785L706 -799C711 -802 714 -805 714 -808C714 -810 711 -813 705 -816L631 -858C633 -824 634 -784 634 -726V-547H484L421 -597C423 -560 425 -493 425 -452V-96C425 -88 422 22 422 44C422 61 424 67 431 67C435 67 441 65 449 62C468 54 471 51 471 37V-218H844V-32C844 -8 838 4 800 4C777 4 741 -1 688 -10L685 5C787 32 803 45 811 80C812 86 814 88 818 88C820 88 822 87 825 86C887 58 891 53 891 -40V-507L922 -525C928 -528 931 -531 931 -534C931 -536 928 -539 924 -543ZM471 -401V-525H844V-401ZM471 -240V-379H844V-240ZM148 -795C204 -757 226 -723 240 -677C247 -654 253 -648 267 -648C280 -648 299 -670 299 -695C299 -703 297 -710 293 -718C280 -743 234 -777 154 -805ZM410 -774C465 -728 480 -690 493 -640C499 -616 505 -611 513 -611C528 -611 554 -624 554 -656C554 -701 488 -750 418 -784ZM860 -807C826 -733 765 -641 715 -576L727 -564L877 -725C883 -731 894 -736 906 -739C915 -741 920 -744 920 -747C920 -750 918 -753 913 -757ZM43 -573C119 -526 148 -499 161 -457C167 -439 176 -434 183 -434C195 -434 213 -455 213 -482C213 -541 109 -570 47 -583ZM362 -716L194 -265C182 -232 158 -227 62 -227V-213C88 -212 111 -208 145 -199C177 -191 190 -179 190 -111C190 -93 184 -13 184 3C184 42 197 57 220 57C232 57 257 49 257 11C257 3 256 -6 254 -17C239 -80 232 -123 232 -164C232 -210 241 -253 260 -316L376 -709Z"/>
</svg>