<svg xmlns="http://www.w3.org/2000/svg" viewBox="0 -1000 1000 1000">
	<path fill="#000000" d="M821 -746L791 -696H532C580 -761 613 -792 651 -803C656 -805 658 -806 658 -808C658 -809 656 -811 651 -813L580 -847C564 -801 536 -741 512 -696H425L364 -741C366 -712 367 -666 367 -643V-423C367 -403 364 -313 364 -295C364 -282 366 -276 372 -276C376 -276 382 -280 392 -285C410 -295 412 -298 412 -309V-354H560C514 -155 425 -22 256 69L264 83C461 -8 566 -153 603 -354H814C814 -325 814 -322 822 -322C826 -322 831 -324 840 -327C860 -336 863 -340 863 -353V-360C860 -402 859 -432 859 -468V-665L890 -686C895 -689 897 -692 897 -694C897 -697 895 -700 890 -702ZM623 -535C626 -573 629 -618 631 -675H814V-535ZM412 -535V-675H583C583 -616 582 -571 581 -535ZM607 -376C613 -413 618 -453 622 -513H814V-376ZM412 -376V-513H581C578 -453 573 -419 564 -376ZM250 -830C194 -637 120 -457 39 -301L52 -293C86 -337 126 -407 189 -540V-117C189 -65 188 -11 186 48V60C186 76 187 83 194 83C198 83 205 79 216 74C234 64 238 61 238 46V40C235 -5 234 -53 234 -115V-526L261 -544C265 -546 266 -548 266 -550C266 -552 264 -553 261 -555L209 -584C229 -627 252 -676 277 -732C288 -756 293 -763 314 -771C321 -774 324 -776 324 -779C324 -781 321 -784 315 -788ZM797 -220C815 -197 828 -175 834 -158L708 -146C721 -166 749 -209 778 -252C788 -267 795 -272 810 -277C816 -279 820 -281 820 -284C820 -286 817 -288 811 -290L750 -309C743 -264 721 -202 703 -176C692 -160 683 -153 666 -150L694 -107C697 -103 699 -101 701 -101C703 -101 705 -103 706 -106C710 -114 723 -121 758 -127L839 -142C840 -139 840 -136 840 -134C840 -109 846 -98 855 -98C865 -98 885 -114 885 -137C885 -153 875 -186 803 -228ZM924 -193C909 -25 897 -6 857 1C832 5 764 9 724 9C655 9 653 0 653 -42V-271L678 -285C681 -287 683 -289 683 -290C683 -292 681 -294 677 -296L608 -334C609 -307 610 -266 610 -184V-34C610 42 630 45 761 45C920 45 935 38 964 -18C966 -21 967 -23 967 -25C967 -28 965 -31 960 -34C945 -43 934 -60 934 -115C934 -135 936 -161 939 -193Z"/>
</svg>