<svg xmlns="http://www.w3.org/2000/svg" viewBox="0 -1000 1000 1000">
	<path fill="#000000" d="M696 -420L670 -381H555L498 -423C500 -395 501 -352 501 -330V-226C501 -219 498 -135 498 -118C498 -105 500 -99 507 -99C512 -99 518 -101 526 -104C542 -110 544 -113 544 -124V-165H687V-116C687 -108 688 -104 693 -104C696 -104 702 -106 710 -109C732 -117 736 -121 736 -134V-140C733 -180 732 -207 732 -237V-344C738 -348 763 -366 763 -370C763 -372 760 -374 756 -377ZM544 -187V-359H687V-187ZM100 -784C181 -740 212 -703 227 -666C236 -643 242 -637 256 -637C265 -637 277 -654 277 -676C277 -685 275 -694 270 -704C256 -732 190 -770 103 -795ZM345 -770C422 -711 458 -655 472 -610C479 -587 487 -581 501 -581C510 -581 522 -600 522 -623C522 -677 430 -741 352 -779ZM832 -784C788 -711 733 -627 678 -552L689 -540C752 -604 796 -650 836 -693C855 -714 868 -717 887 -717C895 -717 899 -719 899 -722C899 -725 895 -731 886 -738ZM40 -571C118 -524 145 -485 154 -451C159 -432 163 -427 174 -427C185 -427 199 -446 199 -466C199 -506 126 -551 44 -582ZM864 -571L831 -523H642V-781L669 -796C677 -801 680 -804 680 -807C680 -810 677 -812 670 -815L592 -855C594 -821 595 -780 595 -721V-523H412L349 -578C351 -545 353 -484 353 -447V-137C353 -106 351 29 351 57C351 73 353 79 360 79C365 79 372 76 382 72C399 65 403 62 403 48V41C401 7 399 -57 399 -135V-501H853V-29C853 -4 852 7 813 7C789 7 750 3 688 -4L685 11C786 32 809 46 813 83C814 88 815 90 819 90C821 90 823 89 826 88C896 58 898 50 898 -22V-489L927 -511C932 -515 935 -517 935 -520C935 -522 932 -524 928 -527ZM337 -672L180 -256C169 -226 157 -215 108 -215C92 -215 73 -216 48 -218L47 -202C159 -195 175 -182 175 -123C175 -102 159 -9 159 10C159 53 175 63 196 63C217 63 230 49 230 11C230 -5 228 -27 222 -54C213 -96 210 -125 210 -150C210 -173 213 -191 217 -211C236 -300 283 -456 356 -665Z"/>
</svg>