<svg xmlns="http://www.w3.org/2000/svg" viewBox="0 -1000 1000 1000">
	<path fill="#000000" d="M619 -837C657 -816 689 -790 701 -762C713 -735 719 -730 726 -730C743 -730 756 -742 756 -767C756 -810 715 -833 623 -846ZM132 -799C164 -780 200 -741 217 -698C228 -670 233 -663 245 -663C260 -663 275 -681 275 -700C275 -753 207 -786 140 -809ZM916 -589L888 -470C885 -455 879 -446 860 -446C850 -446 737 -461 653 -535C683 -552 712 -569 739 -587C776 -611 803 -619 833 -619C838 -619 841 -620 841 -622C841 -624 839 -626 835 -629L781 -668C738 -636 683 -601 622 -566C600 -590 580 -621 563 -655L937 -718C943 -719 945 -721 945 -723C945 -726 943 -729 938 -733L874 -786L838 -724L554 -674C537 -712 523 -753 513 -795L533 -822C536 -826 537 -829 537 -831C537 -834 534 -836 525 -837L444 -849C470 -772 492 -713 513 -667L400 -647C377 -643 360 -641 336 -638L368 -614C381 -621 393 -626 412 -629L522 -648C543 -605 563 -574 586 -546C492 -495 386 -447 290 -416L292 -402C388 -417 508 -462 615 -515C705 -428 848 -388 934 -388C956 -388 965 -393 965 -401C965 -405 961 -411 956 -416C937 -435 927 -451 927 -500C927 -522 929 -550 933 -588ZM44 -599C84 -577 130 -513 138 -491C145 -472 156 -462 165 -462C180 -462 196 -476 196 -502C196 -535 150 -579 49 -611ZM572 -439C611 -408 627 -383 637 -345C642 -326 650 -315 661 -315C681 -315 690 -338 690 -356C690 -391 645 -427 577 -447ZM334 -723L178 -285C165 -248 150 -235 82 -235C70 -235 56 -235 40 -236V-218C66 -218 112 -211 138 -197C155 -188 163 -154 163 -113C163 -84 159 -52 152 -21C150 -11 149 -1 149 7C149 33 159 50 182 50C206 50 219 23 219 -7C219 -12 219 -17 218 -22C207 -94 201 -140 201 -177C201 -207 205 -232 213 -259L351 -718ZM919 -179L890 -31C887 -15 879 -4 856 -4C844 -4 710 -23 622 -106C664 -130 706 -158 748 -188C776 -208 798 -216 821 -218C828 -219 831 -220 831 -223C831 -225 828 -228 824 -231L767 -269C734 -235 676 -186 595 -135C571 -167 550 -209 533 -255L937 -308C942 -309 945 -310 945 -312C945 -315 942 -318 938 -321L867 -377L835 -318L527 -275C517 -307 509 -341 505 -373L532 -397C536 -400 537 -403 537 -404C537 -407 535 -408 530 -409L444 -432C455 -371 469 -316 484 -269L337 -248C318 -245 297 -243 272 -241L301 -217C316 -224 329 -228 345 -230L491 -249C512 -189 536 -143 558 -113C477 -66 377 -19 257 19L258 34C348 20 463 -19 583 -84C676 8 841 55 922 55C955 55 969 51 969 42C969 38 966 33 960 26C939 0 930 -21 930 -74C930 -100 932 -132 936 -176Z"/>
</svg>