<svg xmlns="http://www.w3.org/2000/svg" viewBox="0 -1000 1000 1000">
	<path fill="#000000" d="M804 -441L774 -403H386L325 -461C327 -427 328 -367 328 -330V-148C328 -63 327 10 325 38C324 45 324 50 324 55C324 66 326 71 331 71C333 71 375 56 375 36C375 17 373 -65 373 -82V-205H482C482 -178 480 -60 480 -36C480 -20 482 -13 488 -13C491 -13 529 -27 529 -44V-49C527 -87 527 -156 527 -205H623C623 -179 621 -63 621 -40C621 -26 622 -21 628 -21C633 -21 670 -33 670 -51V-57C668 -91 668 -147 668 -205H790V-17C790 -3 787 4 764 4C747 4 719 0 673 -9L670 7C744 29 758 42 764 78C765 84 767 87 770 87C772 87 774 86 776 85C822 65 835 49 835 14V-362L860 -376C866 -380 869 -382 869 -385C869 -388 866 -391 860 -396ZM527 -227V-381H623V-227ZM668 -227V-381H790V-227ZM373 -227V-381H482V-227ZM101 -796C157 -756 183 -715 195 -680C203 -656 211 -651 225 -651C235 -651 256 -671 256 -697C256 -746 176 -788 107 -806ZM959 -548C793 -567 677 -653 608 -805C633 -809 636 -810 636 -812C636 -814 633 -817 627 -820L564 -855C497 -709 415 -586 273 -458L287 -447C409 -528 490 -627 594 -797C640 -665 713 -573 859 -494C863 -492 865 -491 868 -491C871 -491 874 -494 878 -499C894 -522 911 -530 959 -535ZM674 -577L636 -531H482C459 -531 427 -533 402 -535L437 -498C454 -505 483 -509 504 -509H710C719 -509 724 -510 724 -514C724 -517 720 -522 714 -530ZM18 -579C80 -547 104 -510 121 -468C128 -451 136 -444 144 -444C163 -444 177 -465 177 -491C177 -541 124 -569 22 -591ZM326 -713L149 -305C131 -263 110 -247 21 -251L19 -233C121 -221 142 -215 142 -128C142 -97 138 -61 130 -20C127 -6 126 6 126 15C126 45 138 56 156 56C183 56 198 37 198 1C198 -9 196 -20 194 -33C179 -110 173 -164 173 -204C173 -240 178 -266 187 -291L343 -705Z"/>
</svg>