<svg xmlns="http://www.w3.org/2000/svg" viewBox="0 -1000 1000 1000">
	<path fill="#000000" d="M900 -559L858 -505H577C587 -520 596 -535 604 -548C615 -566 625 -572 642 -575C650 -577 655 -578 655 -581C655 -584 651 -587 643 -592L587 -626C572 -587 551 -546 528 -505H387C364 -505 339 -507 314 -509L342 -472C359 -479 388 -483 409 -483H516C440 -353 338 -224 267 -149L275 -141C335 -188 400 -262 460 -339V-83C460 -49 459 10 457 54V62C457 74 458 79 463 79C464 79 506 65 506 45V-142H785V-20C785 -1 783 7 750 7C729 7 695 4 640 -3L638 11C720 29 743 43 750 71C753 82 755 87 760 87C763 87 767 86 772 83C825 58 832 41 832 -17V-356C864 -376 867 -378 867 -382C867 -386 864 -389 856 -394L800 -433L772 -392H500C523 -423 544 -454 563 -483H949C960 -483 966 -484 966 -488C966 -491 961 -496 953 -505ZM506 -275V-370H785V-275ZM506 -164V-253H785V-164ZM112 -791C188 -747 209 -716 224 -677C233 -655 239 -649 253 -649C264 -649 281 -668 281 -692C281 -751 183 -783 117 -801ZM810 -849C761 -810 708 -772 655 -737C596 -761 522 -785 428 -810L424 -799C497 -777 565 -747 623 -716C531 -657 442 -609 378 -582L386 -570C484 -605 567 -643 661 -695C733 -654 786 -613 809 -588C822 -574 830 -569 838 -569C848 -569 863 -577 863 -597C863 -612 854 -631 833 -645C799 -667 758 -692 701 -718C733 -736 767 -756 803 -778C813 -785 832 -792 842 -792C864 -792 866 -792 866 -795C866 -797 862 -802 855 -808ZM32 -567C111 -525 134 -476 147 -442C153 -426 159 -423 170 -423C185 -423 197 -441 197 -462C197 -470 196 -477 193 -485C181 -517 129 -549 37 -578ZM357 -730L188 -283C174 -245 161 -231 118 -231C104 -231 86 -232 64 -235L61 -221C160 -198 169 -180 169 -123C169 -103 159 -15 159 3C159 51 173 64 192 64C214 64 225 54 225 21C225 5 222 -17 217 -46C211 -79 207 -113 207 -148C207 -181 211 -214 220 -244C256 -361 326 -582 371 -723Z"/>
</svg>