<svg xmlns="http://www.w3.org/2000/svg" viewBox="0 -1000 1000 1000">
	<path fill="#000000" d="M822 -425L799 -381H421L360 -430C362 -392 363 -351 363 -302V-18C363 -5 361 52 361 64C361 75 363 80 368 80C372 80 378 77 387 72C406 61 408 58 408 39V-13H808V71C808 79 809 84 815 84C819 84 824 82 833 78C853 69 857 66 857 55C857 45 853 -25 853 -40V-346L881 -368C886 -372 889 -375 889 -378C889 -381 887 -383 883 -385ZM633 -221V-359H808V-221ZM408 -221V-359H588V-221ZM633 -35V-199H808V-35ZM408 -35V-199H588V-35ZM132 -787C195 -753 229 -705 235 -678C240 -654 248 -647 265 -647C276 -647 293 -668 293 -692C293 -742 205 -778 137 -797ZM833 -846C794 -762 765 -709 718 -634C797 -568 824 -520 825 -490C826 -451 835 -436 850 -436C873 -436 885 -457 885 -480C885 -487 884 -493 882 -500C872 -538 830 -585 739 -638L854 -777L889 -785C895 -786 898 -788 898 -791C898 -793 896 -796 892 -799ZM656 -850C618 -765 590 -709 543 -634C613 -549 627 -514 628 -452C628 -433 634 -422 647 -422C664 -422 687 -438 687 -469C687 -505 654 -564 563 -633L681 -783L711 -791C717 -793 720 -795 720 -797C720 -800 718 -802 714 -805ZM480 -843C446 -757 423 -709 369 -624C431 -546 447 -499 451 -433C452 -417 457 -409 466 -409C480 -409 507 -426 507 -463C507 -468 506 -473 505 -478C499 -502 472 -547 392 -625L510 -780L535 -785C542 -786 545 -788 545 -791C545 -793 543 -796 538 -799ZM43 -585C117 -549 142 -512 153 -476C158 -459 165 -450 173 -450C189 -450 203 -471 203 -494C203 -557 110 -583 46 -599ZM308 -604L196 -288C177 -233 165 -219 112 -219C97 -219 77 -220 53 -222V-203C120 -195 149 -188 160 -178C175 -164 182 -126 182 -88C182 -66 180 -44 176 -26C173 -13 172 -1 172 9C172 47 188 68 205 68C225 68 241 44 241 10C241 1 240 -9 237 -19C221 -88 213 -132 213 -169C213 -197 218 -221 226 -249L328 -595Z"/>
</svg>