<svg xmlns="http://www.w3.org/2000/svg" viewBox="0 -1000 1000 1000">
	<path fill="#000000" d="M871 -457L830 -404H479V-519H765C765 -490 765 -486 771 -486C775 -486 817 -499 817 -515C817 -517 816 -520 816 -523C812 -551 811 -564 811 -586V-626C816 -629 839 -644 839 -647C839 -650 836 -653 830 -658L781 -694L758 -659H479V-764H884C893 -764 897 -765 897 -769C897 -772 894 -777 887 -783L834 -834L795 -786H489L430 -828C432 -791 434 -751 434 -701V-418L401 -396L452 -361C456 -358 458 -357 461 -357C464 -357 482 -377 486 -382H926C936 -382 940 -383 940 -386C940 -389 937 -394 930 -400ZM479 -541V-637H765V-541ZM154 -831C211 -790 230 -763 237 -741C244 -720 254 -712 263 -712C272 -712 285 -728 285 -751C285 -756 285 -761 283 -767C278 -784 233 -817 160 -842ZM74 -700C131 -655 154 -622 163 -598C169 -581 178 -572 188 -572C197 -572 210 -585 210 -607C210 -613 208 -620 206 -628C200 -647 153 -682 80 -710ZM382 -732L238 -527C217 -498 199 -487 160 -487C142 -487 119 -489 90 -493L89 -479C174 -460 197 -438 197 -402C197 -391 189 -343 189 -333C189 -306 199 -297 217 -297C233 -297 242 -305 242 -338C242 -348 237 -393 237 -402C237 -438 249 -472 276 -519L395 -724ZM960 -30C825 -29 677 -97 569 -223H911C920 -223 925 -224 925 -228C925 -231 922 -235 915 -241L854 -295L814 -245H519V-293C542 -310 544 -312 544 -315C544 -318 540 -320 532 -323L469 -345C472 -294 472 -270 472 -245H121C98 -245 73 -247 48 -249L76 -212C93 -219 122 -223 143 -223H409C313 -115 210 -38 48 54L56 67C230 -9 354 -92 472 -221V-69C472 -49 469 40 469 59C469 77 471 85 479 85C483 85 489 82 498 79C519 71 524 67 524 55C524 55 519 -48 519 -67V-223H546C653 -41 857 28 860 28C863 28 866 26 869 23C889 -2 915 -17 960 -17Z"/>
</svg>