<svg xmlns="http://www.w3.org/2000/svg" viewBox="0 -1000 1000 1000">
	<path fill="#000000" d="M900 -780L855 -732H643V-792C680 -813 681 -813 681 -817C681 -821 676 -824 667 -828L595 -861C597 -825 599 -773 599 -732H365C342 -732 317 -734 292 -736L320 -699C337 -706 366 -710 387 -710H599V-629H444L382 -678C384 -653 385 -620 385 -602V-463C385 -432 384 -393 382 -368C382 -364 381 -361 381 -359C381 -350 384 -346 390 -346C399 -346 429 -352 429 -367V-394H599V-298L301 -279L332 -230C333 -228 335 -227 337 -227C339 -227 342 -228 345 -230C359 -241 390 -248 446 -254L845 -294C857 -283 867 -272 874 -261C885 -244 891 -239 897 -239C907 -239 921 -255 921 -276C921 -297 912 -332 758 -367L752 -356C779 -342 803 -328 823 -312L643 -301V-394H818C818 -363 818 -360 825 -360C829 -360 835 -361 845 -365C862 -371 866 -374 866 -391V-397C864 -431 863 -462 863 -505V-596C892 -610 895 -611 895 -616C895 -619 892 -622 886 -626L829 -665L804 -629H643V-710H947C955 -710 959 -711 959 -715C959 -718 955 -724 947 -732ZM643 -529V-607H818V-529ZM429 -529V-607H599V-529ZM643 -416V-507H818V-416ZM429 -416V-507H599V-416ZM913 -224L874 -177H798V-218C810 -225 829 -236 829 -238C829 -240 827 -241 822 -243L749 -277C751 -252 752 -213 752 -177H328C305 -177 280 -179 255 -181L283 -144C300 -151 329 -155 350 -155H753V-20C753 0 749 10 715 10C693 10 659 6 607 -2L602 13C694 37 711 50 718 82C719 88 722 90 726 90C727 90 729 90 731 89C791 65 798 50 798 -28V-155H958C966 -155 970 -156 970 -159C970 -162 966 -166 960 -173ZM436 -141C482 -85 491 -45 492 -15C493 -4 500 3 509 3C523 3 547 -13 547 -42C547 -71 521 -107 446 -147ZM268 -855C208 -669 130 -509 28 -352L41 -342C83 -388 134 -465 183 -550V-128C183 -76 180 -15 176 43V55C176 68 178 73 185 73C189 73 197 70 207 66C228 57 231 53 231 40V32C228 -13 227 -64 227 -126V-543L253 -559C257 -561 259 -563 259 -564C259 -566 256 -567 252 -569L203 -586C235 -644 265 -704 288 -758C297 -779 301 -783 328 -792C336 -795 340 -797 340 -800C340 -803 336 -807 328 -812Z"/>
</svg>