<svg xmlns="http://www.w3.org/2000/svg" viewBox="0 -1000 1000 1000">
	<path fill="#000000" d="M552 -736L524 -697H442V-799L469 -813C475 -816 478 -818 478 -820C478 -823 475 -825 468 -828L396 -864C400 -812 400 -743 400 -697H304C281 -697 256 -698 231 -701L259 -664C276 -671 305 -675 326 -675H400V-583H324L267 -626C269 -603 270 -579 270 -528V-330C270 -295 269 -263 267 -245V-239C267 -235 268 -233 272 -233C277 -233 314 -245 314 -263V-289H400V-170H273C250 -170 225 -171 200 -174L228 -137C245 -144 274 -148 295 -148H400C400 -39 399 10 397 55V69C397 83 398 89 404 89C408 89 414 86 422 81C441 70 444 66 444 54V47C442 18 442 -44 442 -148H591C602 -148 607 -149 607 -152C607 -155 603 -160 597 -167L552 -220L510 -170H442V-289H526C526 -259 526 -255 531 -255C533 -255 573 -273 573 -288V-291C571 -312 569 -360 569 -388V-543C579 -549 596 -560 596 -563C596 -565 594 -567 590 -570L538 -606L517 -583H442V-675H598C611 -675 617 -676 617 -680C617 -683 613 -687 604 -694ZM442 -446V-561H526V-446ZM314 -446V-561H400V-446ZM442 -311V-424H526V-311ZM314 -311V-424H400V-311ZM81 -790C129 -752 147 -714 159 -680C165 -664 168 -658 182 -658C194 -658 215 -677 215 -702C215 -742 173 -767 87 -800ZM32 -560C79 -523 95 -490 99 -459C101 -447 113 -436 121 -436C136 -436 152 -456 152 -481C152 -529 97 -551 37 -570ZM898 -540L854 -489H691C692 -553 693 -625 693 -696L818 -734C855 -745 881 -750 904 -750H924C930 -750 933 -750 933 -752C933 -754 930 -757 925 -762L875 -807C825 -776 757 -740 700 -717L647 -764C648 -719 649 -669 649 -617C649 -488 646 -344 642 -221C642 -98 611 -27 479 69L486 80C638 -3 674 -64 682 -219C684 -255 688 -349 690 -467H787V57C787 69 788 75 793 75C797 75 803 71 813 65C833 52 837 46 837 34V30C834 -7 832 -71 832 -124V-467H942C953 -467 958 -468 958 -471C958 -474 955 -479 948 -486ZM226 -652L133 -282C125 -250 120 -239 78 -239C67 -239 55 -240 39 -241L37 -226C107 -214 128 -205 128 -133C128 -111 120 -17 120 2C120 44 128 55 145 55C171 55 184 35 184 -2C184 -17 182 -35 178 -55C167 -115 160 -161 160 -203C160 -224 162 -245 166 -266L241 -645Z"/>
</svg>