<svg xmlns="http://www.w3.org/2000/svg" viewBox="0 -1000 1000 1000">
	<path fill="#000000" d="M884 -248L835 -195H694V-320H813V-289C813 -280 814 -276 820 -276C824 -276 831 -278 840 -282C858 -290 861 -293 861 -304C861 -315 857 -385 857 -400V-557L885 -573C891 -576 894 -579 894 -581C894 -584 892 -586 887 -590L832 -635L803 -599H694V-703H912C921 -703 925 -705 925 -709C925 -713 922 -718 916 -725L871 -776L825 -725H694V-789C727 -807 728 -807 728 -811C728 -814 724 -816 717 -820L645 -855C647 -818 649 -766 649 -725H493C470 -725 445 -727 420 -729L448 -692C465 -699 494 -703 515 -703H649V-599H543L486 -650C488 -621 489 -573 489 -550V-341C489 -331 487 -287 487 -278C487 -270 488 -266 493 -266C497 -266 503 -268 512 -272C532 -281 533 -284 533 -297V-320H649V-195H477C454 -195 429 -197 404 -199L432 -162C449 -169 478 -173 499 -173H649C649 -164 646 -72 646 -53C646 -37 648 -31 655 -31C659 -31 665 -33 673 -36C694 -45 698 -49 698 -63V-70C695 -109 694 -143 694 -173H926C936 -173 940 -176 940 -180C940 -184 938 -189 932 -195ZM694 -470V-577H813V-470ZM533 -470V-577H649V-470ZM694 -342V-448H813V-342ZM533 -342V-448H649V-342ZM85 -782C139 -749 159 -698 166 -675C173 -651 180 -644 194 -644C205 -644 225 -663 225 -688C225 -736 155 -770 93 -795ZM286 -769C334 -725 353 -679 353 -655C357 -623 368 -616 381 -616C396 -616 414 -635 414 -663C414 -720 318 -767 293 -778ZM34 -556C86 -522 102 -471 106 -453C110 -435 121 -428 129 -428C145 -428 162 -450 162 -474C162 -515 107 -549 40 -569ZM269 -694L136 -317C113 -251 107 -246 24 -243L23 -229C43 -228 65 -223 97 -213C118 -207 130 -166 130 -112C130 -87 127 -60 122 -31C118 -12 117 4 117 16C117 49 129 57 147 57C164 57 185 47 185 5C185 -5 184 -16 181 -30C164 -116 155 -160 155 -199C155 -238 164 -272 183 -336L284 -689ZM960 -35C876 -15 763 -4 658 -4C561 -4 384 -4 384 -138V-405L415 -423C419 -425 420 -427 420 -430C420 -432 419 -435 416 -437L357 -482L327 -442H285C270 -442 249 -442 220 -445L246 -413C259 -418 279 -422 299 -422H340V-110L209 10L253 49C255 51 258 53 260 53C262 53 264 51 265 47C288 -16 336 -94 357 -94C364 -94 370 -86 379 -71C419 -4 456 18 553 30C623 39 692 43 791 43C818 43 848 43 880 42C888 42 890 40 891 35C896 9 909 -3 960 -21Z"/>
</svg>