<svg xmlns="http://www.w3.org/2000/svg" viewBox="0 -1000 1000 1000">
	<path fill="#000000" d="M796 -428L767 -388H442L379 -430C381 -393 383 -325 383 -284V-83C383 -75 380 36 380 58C380 76 382 83 389 83C393 83 398 81 406 77C425 68 429 63 429 50V-141H777V-19C777 -4 772 5 736 5C712 5 675 2 618 -7L616 5C715 28 729 46 734 78C735 84 736 87 740 87C742 87 745 86 748 85C811 60 823 46 823 7V-352L851 -368C856 -371 859 -373 859 -376C859 -379 856 -382 851 -386ZM429 -275V-367H777V-275ZM429 -162V-254H777V-162ZM95 -787C169 -751 203 -701 208 -683C212 -670 218 -661 226 -661C245 -661 259 -679 259 -700C259 -745 204 -769 99 -797ZM974 -502C876 -526 827 -581 777 -679H936C942 -679 945 -681 945 -684C945 -686 943 -689 939 -693L884 -748L843 -700H754V-803C776 -816 778 -817 778 -821C778 -824 776 -826 770 -828L705 -854C708 -827 709 -793 709 -752V-700C686 -700 677 -700 627 -704L655 -668C666 -673 682 -676 697 -678C673 -624 630 -555 541 -449L552 -441C630 -515 663 -555 709 -631V-569C709 -514 709 -488 708 -443C708 -437 709 -433 713 -433C716 -433 756 -447 756 -467C755 -498 754 -529 754 -573V-679H761C786 -590 817 -545 888 -469C892 -464 895 -462 898 -462C901 -462 904 -464 907 -467C923 -484 944 -489 974 -489ZM581 -741L545 -698H497V-791C521 -807 524 -808 524 -812C524 -814 522 -817 517 -819L450 -856C452 -819 454 -792 454 -751V-698H382C359 -698 334 -700 309 -702L337 -666C354 -673 383 -677 404 -677H443C416 -618 385 -572 280 -431L288 -421C357 -492 419 -571 454 -625V-568C454 -513 454 -487 453 -442C453 -434 454 -430 458 -430C462 -430 467 -433 477 -439C495 -450 499 -456 499 -466C498 -497 497 -528 497 -572V-644C536 -618 551 -588 555 -572C560 -555 564 -546 575 -546C586 -546 601 -558 601 -585C601 -618 570 -635 497 -659V-677H625C631 -677 633 -678 633 -681C633 -683 632 -686 628 -690ZM32 -577C96 -539 126 -488 133 -461C137 -445 140 -441 149 -441C165 -441 183 -466 183 -488C183 -536 102 -567 35 -588ZM298 -671L182 -316C153 -227 149 -226 48 -224L46 -209C89 -207 120 -201 142 -189C157 -181 165 -148 165 -109C165 -87 162 -63 158 -40C153 -15 151 3 151 17C151 52 164 59 187 59C207 59 222 38 222 1C222 -11 220 -25 217 -40C205 -93 199 -133 199 -175C199 -223 207 -272 226 -342L313 -665Z"/>
</svg>