<svg xmlns="http://www.w3.org/2000/svg" viewBox="0 -1000 1000 1000">
	<path fill="#000000" d="M807 -236C807 -208 807 -205 813 -205C818 -205 853 -223 853 -241V-244C851 -285 850 -320 850 -354H955C962 -354 966 -356 966 -360C966 -362 963 -366 958 -371L905 -419L872 -375H850V-456C872 -470 875 -472 875 -476C875 -479 872 -482 867 -486L822 -520L797 -483H710V-569H912C919 -569 923 -572 923 -576C923 -579 921 -583 916 -587L864 -633L832 -590H693C741 -650 759 -669 784 -674C789 -675 792 -677 792 -679C792 -681 790 -683 788 -685L754 -713H928C935 -713 938 -715 938 -718C938 -721 936 -725 931 -730L878 -786L840 -734H396L344 -783C346 -690 346 -567 346 -428C346 -223 309 -59 198 78L207 89C316 -16 379 -174 388 -354H529V-257H456C433 -257 408 -259 383 -261L411 -225C428 -232 457 -236 478 -236H520C475 -160 362 -21 293 41L302 52C379 -6 461 -98 529 -180V-124C529 -46 528 4 527 62V69C527 79 528 84 533 84C537 84 544 80 556 72C573 61 577 56 577 42V36C575 -10 574 -54 574 -122V-236H665V-122C665 -44 664 6 663 64V69C663 79 665 84 670 84C675 84 681 80 692 74C709 64 713 58 713 45V38C711 -8 710 -52 710 -120V-224C755 -85 869 13 879 13C882 13 885 10 889 6C902 -8 922 -14 966 -14L967 -27C863 -57 782 -116 724 -236ZM468 -590C445 -590 420 -592 395 -594L423 -558C440 -565 469 -569 490 -569H529V-483H473C450 -483 425 -485 400 -487L428 -451C445 -458 474 -462 495 -462H529V-375H388C391 -478 391 -622 390 -713H734C719 -681 698 -637 671 -590ZM574 -483V-569H665V-483ZM574 -375V-462H665V-375ZM710 -375V-462H807V-375ZM710 -257V-354H807V-257ZM574 -257V-354H665V-257ZM478 -703C513 -678 535 -644 542 -624C551 -598 554 -595 564 -595C581 -595 590 -609 590 -627C590 -632 589 -638 588 -643C581 -667 554 -690 484 -710ZM535 -845C575 -822 606 -798 617 -769C626 -746 629 -740 641 -740C657 -740 668 -754 668 -771C668 -816 618 -835 541 -855ZM93 -793C163 -757 192 -718 204 -692C216 -666 221 -661 233 -661C243 -661 256 -681 256 -703C256 -712 254 -721 250 -729C237 -754 199 -778 100 -805ZM33 -572C95 -542 125 -505 138 -472C145 -453 152 -449 160 -449C175 -449 189 -469 189 -490C189 -532 127 -568 38 -582ZM292 -684L174 -309C156 -248 144 -228 103 -228C86 -228 65 -231 37 -236L34 -220C120 -196 140 -186 140 -127C140 -103 136 -71 129 -29C127 -16 126 -4 126 6C126 42 139 56 157 56C182 56 194 43 194 8C194 -1 193 -12 191 -25C185 -67 181 -102 181 -137C181 -176 186 -215 199 -263L306 -680Z"/>
</svg>