<svg xmlns="http://www.w3.org/2000/svg" viewBox="0 -1000 1000 1000">
	<path fill="#000000" d="M925 -291L885 -249H849V-369L876 -384C882 -388 885 -390 885 -393C885 -396 882 -399 876 -403L822 -444L793 -408H407L349 -453C350 -431 352 -380 352 -355V-249H271C248 -249 223 -251 198 -253L226 -216C243 -223 265 -227 293 -227H962C973 -227 978 -228 978 -232C978 -236 974 -241 966 -249ZM543 -249V-386H650V-249ZM693 -249V-386H806V-249ZM395 -249V-386H500V-249ZM523 -849C557 -826 587 -789 593 -769C600 -746 606 -741 624 -741C640 -741 654 -759 654 -778C654 -824 580 -846 529 -859ZM107 -801C151 -771 175 -731 191 -688C199 -667 203 -662 218 -662C233 -662 250 -685 250 -709C250 -751 194 -782 114 -811ZM878 -775L844 -739H389C387 -753 385 -767 382 -783H367C368 -722 347 -670 322 -649C308 -637 302 -626 302 -618C302 -602 320 -594 334 -594C357 -594 398 -615 391 -717H851L806 -637L821 -629C874 -681 899 -695 939 -698C946 -699 949 -700 949 -703C949 -705 947 -709 941 -714ZM559 -680C593 -654 605 -634 616 -592C622 -570 630 -561 641 -561C656 -561 673 -578 673 -602C673 -643 629 -668 565 -689ZM782 -623C829 -580 851 -544 861 -518C868 -500 878 -488 891 -488C903 -488 919 -501 919 -527C919 -553 907 -580 789 -632ZM725 -617C716 -495 712 -495 603 -495C530 -495 525 -501 525 -535V-598L550 -614C554 -617 556 -619 556 -621C556 -624 554 -625 550 -627L481 -655C482 -634 483 -597 483 -570V-533C483 -468 500 -460 581 -460C734 -460 739 -467 767 -505C769 -507 769 -509 769 -510C769 -513 768 -515 764 -517C748 -528 740 -542 740 -584C740 -593 740 -604 741 -617ZM405 -625C394 -573 368 -547 331 -526C318 -519 312 -509 312 -498C312 -483 323 -474 339 -474C377 -474 419 -515 419 -599C419 -607 419 -615 418 -624ZM42 -577C88 -539 104 -511 119 -458C123 -444 134 -433 142 -433C160 -433 179 -455 179 -481C179 -532 103 -569 48 -588ZM265 -682L155 -270C143 -223 137 -209 98 -209C83 -209 63 -211 36 -214L34 -199C135 -176 145 -168 145 -114C145 -92 141 -62 134 -22C131 -7 130 6 130 16C130 46 140 62 159 62C183 62 200 49 200 8C200 -8 197 -28 191 -54C185 -81 181 -112 181 -145C181 -177 185 -212 192 -248L281 -680ZM841 -201L800 -155H357C334 -155 309 -157 284 -159L318 -122C335 -129 357 -133 385 -133H589V-12C589 -1 587 6 565 6C546 6 513 1 455 -12L451 4C536 29 552 45 558 80C559 86 561 89 564 89C566 89 568 88 571 87C626 64 633 55 633 5V-133H883C894 -133 900 -134 900 -138C900 -141 895 -147 887 -155Z"/>
</svg>