<svg xmlns="http://www.w3.org/2000/svg" viewBox="0 -1000 1000 1000">
	<path fill="#000000" d="M886 -721L841 -662H373C383 -699 392 -737 402 -777L432 -792C436 -794 438 -796 438 -798C438 -801 436 -803 431 -806L355 -850C350 -792 338 -729 324 -662H111C88 -662 63 -664 38 -666L66 -629C83 -636 112 -640 133 -640H319C261 -385 146 -94 27 65L39 73C167 -73 265 -254 367 -640H943C952 -640 956 -643 956 -647C956 -651 953 -656 947 -662ZM428 -454C421 -387 383 -324 349 -297C331 -283 323 -271 323 -262C323 -252 334 -241 354 -241C371 -241 391 -249 404 -267C426 -298 442 -355 442 -455ZM805 -402C827 -420 838 -425 859 -428C865 -429 868 -430 868 -432C868 -434 865 -437 860 -440L795 -478C750 -413 705 -354 653 -296C630 -365 615 -445 608 -542L633 -552C639 -555 642 -557 642 -559C642 -562 639 -564 633 -567L560 -605C539 -339 522 -246 479 -170C422 -70 344 2 188 75L194 89C555 -40 572 -241 595 -509C608 -252 674 -86 836 40C840 43 842 44 844 44C846 44 848 43 849 41C863 21 882 15 908 15C919 15 932 16 946 18L947 7C819 -28 716 -115 658 -281Z"/>
</svg>