<svg xmlns="http://www.w3.org/2000/svg" viewBox="0 -1000 1000 1000">
	<path fill="#000000" d="M894 -567L859 -518H672C734 -587 779 -643 822 -700C834 -715 849 -725 861 -727C866 -728 869 -730 869 -732C869 -734 867 -737 864 -739L813 -778C795 -748 775 -718 754 -688L696 -737L663 -697H586V-786L612 -806C615 -808 617 -811 617 -813C617 -815 615 -817 611 -819L538 -854C540 -819 541 -795 541 -756V-697H456C434 -697 409 -699 386 -701L413 -665C428 -671 457 -675 477 -675H541V-518H411C388 -518 362 -520 338 -522L366 -486C382 -492 412 -496 433 -496H599C502 -391 412 -311 322 -241L329 -230C396 -270 455 -311 513 -360H613L576 -249L537 -224L590 -186C593 -184 595 -183 597 -183C600 -183 602 -185 604 -187L620 -210H795C789 -147 776 -78 768 -51C757 -17 745 1 699 1C673 1 635 -5 580 -17L577 -3C655 16 688 37 692 74C693 79 695 82 699 82C701 82 704 81 707 80C773 53 795 35 810 -15C819 -47 833 -127 840 -188L877 -210C880 -212 882 -214 882 -216C882 -218 880 -220 877 -222L811 -271L785 -232H617L661 -360H930C937 -360 940 -362 940 -365C940 -368 938 -372 933 -376L875 -429L838 -382H538C576 -416 613 -453 652 -496H951C958 -496 962 -497 962 -500C962 -503 959 -506 954 -511ZM586 -518V-675H745C710 -626 670 -575 619 -518ZM129 -604C124 -510 101 -463 77 -441C61 -426 53 -415 53 -405C53 -396 61 -380 81 -380C95 -380 112 -388 127 -408C142 -428 149 -464 149 -508C149 -537 146 -569 141 -604ZM370 -647C334 -588 298 -533 266 -491C268 -559 271 -648 273 -773L299 -789C303 -791 305 -794 305 -796C305 -798 303 -800 298 -803L223 -845C225 -810 225 -758 225 -698C225 -583 223 -442 218 -356C208 -173 160 -42 45 81L56 91C177 -17 226 -110 246 -233C300 -186 335 -120 342 -89C347 -63 356 -49 367 -49C381 -49 397 -64 397 -92C397 -102 395 -113 391 -125C380 -156 332 -199 248 -249C256 -307 261 -356 265 -464L375 -571C389 -585 398 -589 421 -595C425 -596 427 -598 427 -600C427 -602 426 -604 422 -607Z"/>
</svg>