<svg xmlns="http://www.w3.org/2000/svg" viewBox="0 -1000 1000 1000">
	<path fill="#000000" d="M964 -360C845 -384 753 -421 683 -478C728 -526 764 -577 803 -637C820 -663 824 -666 856 -676C862 -678 865 -680 865 -683C865 -685 863 -688 858 -692L797 -741L765 -701H551C562 -719 573 -738 585 -757C602 -785 605 -787 629 -793C636 -795 639 -796 639 -799C639 -801 636 -804 630 -808L566 -851C512 -714 440 -568 364 -452L375 -443C415 -491 466 -565 525 -660C555 -585 585 -529 625 -480C548 -400 453 -331 322 -259L327 -245C476 -307 565 -364 654 -449C732 -372 865 -307 868 -307C871 -307 874 -309 875 -312C885 -331 912 -347 965 -349ZM764 -679C734 -616 698 -561 650 -507C610 -548 570 -608 537 -679ZM787 -318L760 -277H523L467 -307C469 -282 469 -253 469 -218V-77C469 -55 465 45 465 64C465 79 467 85 474 85C479 85 486 82 496 77C515 70 516 64 516 53V-16H771V63C771 71 772 76 778 76C782 76 788 74 797 70C818 61 822 56 822 43C822 31 818 -56 818 -74V-241L847 -258C852 -261 855 -263 855 -266C855 -268 852 -271 847 -274ZM516 -38V-255H771V-38ZM129 -617C129 -511 92 -453 70 -435C55 -422 48 -410 48 -400C48 -388 59 -374 74 -374C84 -374 150 -381 150 -528C150 -556 148 -586 143 -618ZM366 -679C335 -622 295 -563 257 -513C258 -579 258 -666 258 -782L287 -803C290 -805 292 -807 292 -809C292 -812 290 -813 286 -815L207 -848C209 -754 211 -671 211 -590C211 -238 201 -129 38 75L48 84C168 -22 219 -117 242 -257C293 -203 326 -146 334 -108C341 -75 348 -61 358 -61C374 -61 396 -80 396 -110C396 -120 393 -131 388 -143C376 -168 329 -218 245 -276C252 -322 255 -372 256 -488L365 -592C389 -615 393 -617 417 -620C421 -621 423 -622 423 -624C423 -626 421 -629 418 -632Z"/>
</svg>