<svg xmlns="http://www.w3.org/2000/svg" viewBox="0 -1000 1000 1000">
	<path fill="#000000" d="M823 -395C785 -355 724 -295 669 -257C647 -317 609 -363 550 -405C559 -416 567 -427 575 -438H814C814 -411 814 -408 821 -408C825 -408 832 -410 842 -415C859 -422 864 -426 864 -435C864 -438 863 -440 863 -443C860 -467 859 -482 859 -509V-568L886 -584C892 -588 894 -591 894 -593C894 -596 892 -599 887 -602L828 -644L799 -605H627C699 -681 725 -699 756 -704C767 -706 772 -708 772 -712C772 -716 768 -720 760 -726L709 -763L675 -727H504C552 -786 558 -792 579 -798C584 -799 586 -801 586 -804C586 -807 583 -810 577 -815L531 -849C471 -738 348 -585 250 -491L258 -481C296 -510 330 -540 362 -570V-469C362 -459 360 -415 360 -406C360 -398 361 -395 366 -395C370 -395 375 -396 384 -400C405 -409 405 -412 405 -438H528C477 -366 393 -298 262 -225L268 -214C390 -262 476 -322 536 -389C550 -378 563 -366 575 -351C506 -267 416 -191 288 -113L295 -101C400 -148 489 -211 602 -311C610 -297 617 -283 623 -269C561 -177 423 -53 265 18L270 30C394 -9 535 -98 640 -218C647 -190 650 -163 650 -137C650 10 609 10 579 10C551 10 510 1 452 -12L449 0C546 30 568 42 577 72C580 82 582 86 588 86C591 86 596 84 603 81C670 45 692 -5 692 -100C692 -154 687 -200 674 -240C692 -251 707 -260 723 -270C745 -169 788 -96 869 -24C875 -19 879 -17 882 -17C885 -17 887 -18 889 -21C909 -45 924 -53 975 -50L976 -61C864 -83 790 -144 736 -278C765 -295 793 -311 829 -332C836 -336 847 -338 859 -338C866 -338 870 -340 870 -343C870 -345 868 -349 864 -353ZM607 -605H415L405 -614C432 -643 459 -673 487 -706H673ZM405 -460V-583H590C583 -539 567 -499 542 -460ZM588 -460C612 -499 628 -540 638 -583H814V-460ZM254 -827C211 -660 126 -467 25 -315L37 -307C81 -354 131 -430 177 -516V-120C177 -92 172 33 172 59C172 74 174 80 181 80C185 80 192 78 201 74C222 65 225 61 225 48V40C223 7 223 -29 223 -91V-523C248 -546 250 -549 250 -553C250 -556 248 -558 244 -560L209 -578C235 -629 260 -682 281 -733C291 -757 302 -767 317 -773C325 -776 329 -779 329 -782C329 -785 325 -789 317 -793Z"/>
</svg>