<svg xmlns="http://www.w3.org/2000/svg" viewBox="0 -1000 1000 1000">
	<path fill="#000000" d="M336 -760L307 -726H193L138 -775C140 -744 141 -696 141 -672V-439C141 -382 140 -294 138 -235V-224C138 -209 139 -203 146 -203C151 -203 157 -205 166 -209C182 -216 184 -221 184 -234V-263H318C318 -225 318 -221 325 -221C329 -221 335 -223 345 -227C364 -235 367 -238 367 -252V-261C364 -306 362 -367 362 -443V-689L384 -701C391 -704 394 -706 394 -709C394 -712 391 -715 386 -719ZM184 -510V-704H318V-510ZM184 -285V-488H318V-285ZM687 -576L661 -538H533L481 -579C483 -548 484 -500 484 -476V-398C484 -363 483 -323 481 -293V-280C481 -266 483 -261 490 -261C494 -261 500 -263 509 -267C525 -274 527 -278 527 -292V-328H676C676 -292 676 -288 683 -288C687 -288 693 -290 703 -294C720 -301 724 -305 724 -320V-328C721 -373 720 -402 720 -436V-507L740 -520C745 -524 748 -526 748 -529C748 -531 745 -534 740 -537ZM527 -350V-516H676V-350ZM858 -746L829 -697H546C558 -716 571 -737 585 -760C594 -775 602 -781 615 -782C625 -783 629 -784 629 -787C629 -789 626 -792 621 -796L564 -840C498 -689 448 -604 375 -497L386 -487C441 -547 482 -598 532 -675H847C847 -463 843 -347 836 -288C832 -253 820 -236 774 -236C749 -236 714 -241 664 -251L662 -239C746 -215 765 -203 772 -172C773 -165 775 -162 780 -162C782 -162 785 -162 789 -164C857 -189 876 -225 880 -278C887 -374 892 -516 893 -665L917 -680C925 -685 929 -689 929 -692C929 -696 925 -700 917 -705ZM544 -135C590 -78 608 -11 608 17C608 48 615 58 630 58C647 58 667 34 667 4C667 -34 637 -74 552 -143ZM320 -135C357 -76 368 -34 368 8C368 12 367 26 367 29C367 46 375 58 385 58C398 58 429 39 429 2C429 -25 396 -88 330 -142ZM180 -130C170 -41 126 -1 90 17C65 29 57 41 57 51C57 64 72 79 92 79C109 79 126 69 140 56C174 24 191 -17 194 -130ZM756 -114C825 -51 860 8 868 41C874 68 882 76 892 76C910 76 925 51 925 25C925 -27 853 -72 764 -124Z"/>
</svg>