<svg xmlns="http://www.w3.org/2000/svg" viewBox="0 -1000 1000 1000">
	<path fill="#000000" d="M758 -828L734 -789H522L470 -831C472 -800 473 -756 473 -732V-661C473 -650 470 -595 470 -594C470 -588 471 -585 476 -585C479 -585 485 -587 494 -592C515 -602 515 -605 515 -630H749C749 -592 749 -591 756 -591C759 -591 765 -593 773 -597C792 -605 796 -608 796 -616V-619C794 -636 793 -660 793 -697V-755C798 -758 825 -775 825 -778C825 -780 823 -782 819 -785ZM515 -652V-767H749V-652ZM854 -572L834 -535H725L673 -571C675 -548 676 -524 676 -494V-415C676 -404 673 -354 673 -345C673 -339 675 -336 679 -336C684 -336 692 -339 703 -344C714 -349 718 -352 718 -365H847C847 -343 847 -340 853 -340C859 -340 892 -352 892 -369C892 -377 890 -420 890 -421V-501C916 -518 918 -520 918 -523C918 -525 917 -527 914 -529ZM718 -387V-513H847V-387ZM554 -569L531 -534H425L374 -573C376 -550 377 -526 377 -496V-398C377 -387 374 -332 374 -331C374 -323 376 -319 381 -319C382 -319 419 -326 419 -346V-364H542C542 -342 542 -339 547 -339C551 -339 587 -351 587 -368C587 -380 585 -437 585 -448V-502C610 -518 613 -520 613 -522C613 -524 612 -525 609 -527ZM419 -386V-512H542V-386ZM112 -601C114 -508 86 -448 58 -416C48 -404 43 -395 43 -386C43 -379 46 -363 68 -363C133 -363 136 -461 136 -500C136 -532 133 -566 127 -601ZM345 -661C309 -594 277 -540 245 -498C247 -574 249 -668 251 -782L276 -799C280 -802 282 -804 282 -806C282 -809 280 -811 276 -813L203 -854C204 -806 205 -763 205 -719C205 -631 202 -538 197 -383C191 -196 147 -54 50 71L60 80C156 -13 208 -139 228 -263C277 -206 304 -160 316 -109C321 -90 329 -79 338 -79C358 -79 369 -98 369 -123C369 -168 334 -206 231 -278C236 -314 240 -376 244 -470L357 -585C371 -599 380 -603 400 -606C404 -607 407 -608 407 -609C407 -611 405 -613 401 -616ZM937 -227C947 -227 951 -228 951 -230C951 -232 948 -235 942 -241L879 -298L845 -249H647V-293C655 -298 674 -309 674 -312C674 -315 672 -317 669 -318L600 -350C602 -323 603 -291 603 -249H369C352 -249 333 -251 315 -252L336 -218C348 -224 370 -227 386 -227H553C478 -119 401 -43 270 49L277 62C414 -9 511 -100 603 -216V-61C603 -41 598 46 598 63C598 73 600 78 605 78C606 78 650 63 650 43V40C648 6 647 -22 647 -60V-227H663C739 -65 867 21 871 21C873 21 875 20 877 17C891 -5 910 -16 962 -14L963 -26C838 -43 765 -104 682 -227Z"/>
</svg>