<svg xmlns="http://www.w3.org/2000/svg" viewBox="0 -1000 1000 1000">
	<path fill="#000000" d="M986 -608C871 -608 730 -685 636 -819C646 -821 665 -826 665 -831C665 -833 662 -836 656 -837L581 -854C504 -735 388 -598 241 -485L247 -472C284 -493 322 -517 362 -549V-378C362 -364 360 -297 360 -291C360 -284 361 -280 366 -280C369 -280 374 -282 382 -286C404 -297 407 -298 407 -323H817V-290C817 -281 818 -276 824 -276C826 -276 867 -289 867 -305C867 -307 866 -309 866 -311C863 -336 862 -364 862 -401V-503C881 -515 884 -517 884 -519C884 -522 882 -524 878 -527L824 -569L804 -541H412L382 -566C451 -623 528 -701 619 -807C697 -656 889 -548 897 -548C899 -548 901 -549 903 -553C913 -573 932 -588 986 -594ZM629 -344V-520H817V-344ZM407 -344V-520H584V-344ZM734 -491C710 -454 678 -410 652 -377L663 -368C748 -440 763 -446 788 -446C793 -446 795 -447 795 -449C795 -451 794 -452 791 -454ZM758 -286L731 -247H458L403 -294C405 -269 406 -230 406 -211V-50C406 31 406 45 404 66V74C404 82 405 86 410 86C414 86 420 84 428 80C449 71 452 68 452 55V7H745V65C745 77 746 83 752 83C755 83 795 65 795 50V47C792 22 791 -9 791 -70V-215C823 -234 824 -235 824 -238C824 -241 822 -243 817 -246ZM452 -133V-226H745V-133ZM452 -14V-112H745V-14ZM696 -670L664 -630H532C509 -630 484 -632 459 -634L487 -598C504 -605 533 -609 554 -609H734C743 -609 747 -611 747 -615C747 -617 745 -621 740 -626ZM99 -611C99 -497 72 -445 58 -424C44 -403 39 -390 39 -382C39 -369 52 -360 66 -360C79 -360 95 -368 108 -391C119 -409 124 -442 124 -486C124 -521 121 -564 113 -612ZM304 -728C275 -671 249 -629 221 -591C222 -654 223 -718 223 -776L251 -792C257 -796 260 -798 260 -801C260 -803 257 -805 252 -808L176 -848C178 -800 179 -640 179 -387C179 -190 165 -80 36 54L45 66C158 -23 211 -124 215 -249C259 -204 285 -159 294 -117C299 -90 308 -75 316 -75C336 -75 349 -100 349 -126C349 -161 327 -195 215 -264C216 -314 219 -434 221 -561L320 -658C326 -664 330 -666 351 -668C359 -669 364 -670 364 -673C364 -675 361 -678 356 -683ZM424 -479C460 -452 476 -423 485 -376C488 -360 490 -356 497 -356C515 -356 531 -379 531 -400C531 -404 531 -408 529 -412C517 -440 494 -459 431 -488Z"/>
</svg>