<svg xmlns="http://www.w3.org/2000/svg" viewBox="0 -1000 1000 1000">
	<path fill="#000000" d="M674 -736L648 -700H592L626 -776C631 -788 640 -803 659 -809C665 -811 668 -813 668 -815C668 -816 666 -818 662 -820L603 -852C595 -797 586 -753 571 -700L517 -740C519 -724 520 -695 520 -661V-469C520 -441 519 -383 517 -354V-349C517 -340 519 -335 524 -335C527 -335 560 -349 560 -364V-385H661V-351C661 -343 662 -338 666 -338C671 -338 705 -355 705 -364V-367C702 -396 701 -436 701 -485V-673L723 -685C727 -687 729 -689 729 -691C729 -694 727 -696 723 -699ZM560 -552V-681H661V-552ZM560 -404V-533H661V-404ZM842 -492C863 -465 876 -434 882 -404L752 -398C799 -478 844 -554 885 -623C894 -639 898 -643 916 -651C922 -654 924 -656 924 -658C924 -660 922 -662 917 -665L872 -693C860 -663 844 -626 826 -588L747 -585C775 -641 796 -683 832 -753C839 -766 843 -770 868 -778C874 -780 877 -782 877 -785C877 -787 874 -790 869 -792L812 -824C792 -750 768 -680 742 -621C733 -602 725 -591 703 -579L725 -544C728 -539 731 -537 734 -537C736 -537 738 -538 741 -540C755 -553 780 -561 817 -567C796 -522 774 -478 758 -448C742 -418 739 -414 709 -398L740 -354C743 -350 745 -348 747 -348C749 -348 751 -350 754 -352C776 -368 791 -375 885 -390C886 -381 887 -373 887 -365C887 -346 891 -341 901 -341C921 -341 933 -363 933 -389C933 -414 906 -453 853 -499ZM917 -227C928 -227 933 -228 933 -232C933 -235 929 -241 921 -249L879 -293L839 -247H623V-297C637 -304 659 -316 659 -319C659 -321 656 -323 649 -326L581 -355C582 -324 583 -284 583 -247H342C319 -247 294 -249 269 -251L297 -216C314 -223 343 -227 364 -227H518C463 -131 359 -30 220 62L228 75C356 14 462 -68 583 -227V-7C583 6 582 66 582 78C582 89 584 94 589 94C592 94 596 93 601 90C621 80 625 78 625 67C625 47 623 14 623 -6V-227H637C673 -125 736 -50 868 37C871 39 873 40 876 40C879 40 881 38 885 33C903 10 917 3 967 -2L968 -15C855 -19 725 -96 656 -227ZM97 -611C98 -598 98 -585 98 -574C98 -504 83 -459 54 -419C46 -408 42 -399 42 -391C42 -378 57 -367 70 -367C82 -367 96 -375 107 -391C119 -408 126 -442 126 -486C126 -523 121 -567 111 -613ZM295 -621C305 -636 309 -639 326 -645C331 -647 333 -648 333 -650C333 -651 331 -653 327 -656L286 -687C265 -639 247 -602 227 -570C228 -607 228 -640 230 -768L260 -784C265 -787 268 -789 268 -792C268 -794 266 -796 260 -799L190 -835C189 -690 187 -539 184 -365C181 -179 136 -54 22 62L33 74C144 -28 191 -93 211 -234C247 -200 275 -138 282 -89C285 -70 292 -62 301 -62C320 -62 334 -84 334 -107C334 -148 267 -218 213 -253C222 -322 225 -411 227 -529ZM417 -489C432 -467 442 -436 446 -404L344 -396C391 -476 428 -546 461 -614C468 -629 470 -633 492 -643C498 -646 500 -648 500 -650C500 -652 498 -655 493 -657L446 -684C433 -648 420 -614 403 -573L340 -570C365 -639 387 -701 412 -770C417 -785 420 -790 443 -800C449 -803 451 -805 451 -807C451 -809 449 -812 444 -814L383 -848C374 -773 355 -689 332 -610C326 -589 315 -576 286 -568L310 -528C312 -524 314 -522 316 -522C318 -522 321 -524 324 -526C340 -537 362 -546 394 -553C381 -521 365 -487 346 -446C334 -420 318 -403 290 -394L322 -350C325 -346 327 -344 330 -344C332 -344 334 -346 336 -348C348 -361 384 -377 448 -389C449 -381 449 -373 449 -366C449 -350 453 -340 463 -340C482 -340 497 -358 497 -382C497 -403 472 -450 428 -495Z"/>
</svg>