<svg xmlns="http://www.w3.org/2000/svg" viewBox="0 -1000 1000 1000">
	<path fill="#000000" d="M593 -822C704 -770 775 -709 795 -683C809 -665 818 -657 826 -657C835 -657 849 -671 849 -692C849 -749 755 -786 598 -832ZM356 -851C285 -761 203 -684 92 -599L99 -587C174 -630 228 -669 367 -783C377 -792 395 -797 410 -799C414 -800 415 -801 415 -803C415 -805 414 -807 411 -809ZM964 -506C796 -510 627 -552 511 -621C547 -648 580 -674 607 -696C615 -703 627 -706 642 -707C648 -708 651 -709 651 -711C651 -713 649 -715 646 -718L599 -760C566 -724 524 -685 473 -646C423 -681 383 -719 355 -752L345 -743C370 -705 403 -664 449 -628C342 -552 176 -468 36 -411L40 -397C195 -441 377 -527 486 -603C585 -537 687 -495 857 -445C859 -444 861 -444 863 -444C867 -444 869 -446 872 -451C886 -475 903 -486 964 -493ZM645 -477L611 -450H425C439 -461 453 -472 467 -484C478 -493 496 -501 508 -503C514 -504 517 -506 517 -509C517 -511 515 -513 511 -516L466 -548C392 -470 294 -390 181 -314L186 -301C236 -325 287 -354 336 -386C356 -359 367 -340 369 -328C374 -300 382 -294 398 -294C406 -294 415 -308 415 -325C415 -352 395 -367 347 -393C365 -404 382 -416 398 -429H608C465 -312 335 -245 119 -170L126 -157C335 -210 484 -280 646 -399C657 -407 670 -410 691 -412C698 -413 701 -414 701 -417C701 -420 700 -422 696 -426ZM773 -245L737 -216H532C552 -230 571 -244 589 -258C605 -270 624 -278 640 -283C646 -285 649 -287 649 -290C649 -292 647 -295 642 -298L597 -327C487 -223 359 -136 188 -48L195 -37C273 -64 361 -108 441 -157C472 -127 488 -95 493 -76C498 -56 503 -49 512 -49C521 -49 537 -67 537 -87C537 -115 500 -141 451 -163C468 -173 485 -184 501 -195H735C569 -39 384 28 127 76V89C411 61 577 3 771 -162C783 -172 802 -180 816 -181C823 -182 826 -184 826 -187C826 -189 824 -192 821 -195Z"/>
</svg>