<svg xmlns="http://www.w3.org/2000/svg" viewBox="0 -1000 1000 1000">
	<path fill="#000000" d="M822 -335V-31H467V-335ZM822 -9V66C822 76 823 81 828 81C832 81 837 78 846 73C867 60 869 55 869 42C868 13 867 -14 867 -77V-313L894 -328C901 -332 904 -334 904 -338C904 -341 901 -345 895 -350L844 -396L812 -357H481L421 -408C423 -377 424 -329 424 -305V-150C424 -32 423 10 420 48C419 55 419 60 419 64C419 74 421 78 426 78C430 78 437 75 447 70C465 61 467 57 467 46V-9ZM702 -241V-141H589V-241ZM702 -119C702 -97 704 -89 711 -89C713 -89 745 -97 745 -111C745 -113 744 -114 744 -116C742 -126 742 -149 742 -176V-226C764 -241 767 -243 767 -246C767 -249 765 -251 761 -254L718 -287L698 -263H592L546 -295C548 -269 548 -257 548 -242V-166C548 -154 546 -101 546 -90C546 -86 547 -84 551 -84C554 -84 559 -86 567 -89C587 -97 589 -100 589 -119ZM496 -687C467 -620 421 -531 383 -476L394 -468C419 -494 448 -529 489 -586C514 -563 534 -529 541 -504C545 -488 550 -484 554 -484C569 -484 584 -499 584 -517C584 -523 583 -530 579 -536C573 -546 546 -571 497 -598C503 -605 508 -612 513 -620C522 -633 526 -636 545 -643C551 -645 553 -647 553 -649C553 -652 551 -655 545 -658ZM797 -683C763 -610 724 -545 680 -485L688 -478C712 -497 745 -533 784 -581C816 -562 837 -531 846 -504C849 -495 853 -491 860 -491C872 -491 881 -508 881 -527C881 -531 880 -536 879 -541C874 -554 842 -578 795 -596C803 -605 811 -615 818 -625C823 -632 830 -637 844 -639C850 -640 853 -642 853 -644C853 -646 851 -649 846 -652ZM615 -455H397C377 -455 354 -456 333 -459V-767C365 -783 369 -785 369 -788C369 -790 365 -793 358 -796L284 -832C286 -795 288 -740 288 -699V-524H170V-732C193 -745 196 -746 196 -750C196 -752 193 -755 188 -758L122 -798C125 -771 125 -759 125 -722V-535L100 -510L140 -475C142 -473 145 -472 147 -472C150 -472 153 -473 155 -476L180 -504H288V-341H106C85 -341 62 -342 40 -345L65 -310C90 -320 120 -320 155 -320C152 -166 130 -64 40 68L57 74C154 -36 192 -145 207 -320H288V-135C288 -78 287 -12 285 47V54C285 71 287 77 295 77C299 77 305 75 314 71C334 62 337 58 337 44V35C334 -10 333 -77 333 -153V-454L356 -424C371 -430 398 -434 417 -434H953C964 -434 969 -435 969 -439C969 -441 966 -445 960 -451L903 -506L865 -455H659V-708H905C916 -708 921 -709 921 -713C921 -715 918 -719 912 -725L855 -780L817 -729H659V-790C694 -810 695 -811 695 -815C695 -818 690 -820 681 -824L612 -850C614 -817 615 -767 615 -729H439C418 -729 395 -730 373 -733L398 -698C413 -704 440 -708 459 -708H615Z"/>
</svg>