<svg xmlns="http://www.w3.org/2000/svg" viewBox="0 -1000 1000 1000">
	<path fill="#000000" d="M912 -494L876 -450H714V-510C735 -524 737 -525 737 -528C737 -531 734 -533 727 -536L666 -564C668 -530 669 -504 669 -450H463V-571H847C847 -557 848 -551 854 -551C854 -551 891 -561 891 -579C891 -594 889 -619 889 -634V-690C915 -705 918 -707 918 -711C918 -714 916 -717 910 -720L857 -755L834 -720H471L417 -761C419 -738 420 -681 420 -639V-399C420 -171 399 -66 327 58L338 66C424 -51 463 -207 463 -337V-430H669V-344H554L504 -379C506 -345 507 -287 507 -250V-59C507 -7 506 29 503 64V75C503 86 504 91 510 91C510 91 552 79 552 61V56C550 29 550 -19 550 -61V-101H669C669 -45 669 25 667 55V67C667 78 669 83 674 83C678 83 685 80 694 75C715 63 716 60 716 45C715 5 714 -30 714 -101H849V-2C849 12 843 21 815 21C801 21 780 18 752 13L750 24C807 39 822 52 830 82C832 88 834 91 837 91C839 91 842 90 846 88C885 66 892 51 892 29V-312C912 -330 915 -332 915 -335C915 -338 913 -340 908 -343L853 -379L829 -344H714V-430H953C963 -430 969 -431 969 -435C969 -438 965 -443 957 -451ZM714 -238V-324H849V-238ZM550 -238V-324H669V-238ZM714 -121V-218H849V-121ZM550 -121V-218H669V-121ZM463 -589V-700H847V-589ZM760 -541C791 -517 803 -489 806 -475C809 -461 816 -456 827 -456C840 -456 847 -469 847 -483C847 -514 817 -527 764 -547ZM582 -841C620 -813 638 -783 646 -756C651 -738 662 -727 673 -727C689 -727 698 -746 698 -764C698 -810 617 -839 588 -850ZM361 -568L331 -527H307V-767C330 -780 333 -781 333 -785C333 -787 330 -790 325 -793L261 -833C263 -799 264 -739 264 -702V-527H167V-721C177 -728 194 -741 194 -743C194 -745 193 -747 189 -749L121 -788C123 -765 124 -730 124 -666V-346C124 -150 106 -55 33 76L43 80C135 -35 165 -160 167 -322H267V-53C267 -34 265 52 265 69C265 77 266 80 270 80C274 80 282 77 294 70C312 61 315 57 315 44V36C313 -6 312 -45 312 -77V-311C336 -324 339 -325 339 -328C339 -331 336 -334 331 -338L282 -377L257 -342H167V-507H395C402 -507 406 -508 406 -511C406 -514 403 -518 398 -524Z"/>
</svg>