<svg xmlns="http://www.w3.org/2000/svg" viewBox="0 -1000 1000 1000">
	<path fill="#000000" d="M878 -591L852 -555H439L383 -597C385 -578 386 -556 386 -530V-460C386 -450 383 -403 383 -399C383 -393 384 -390 390 -390C393 -390 397 -391 404 -393C423 -400 425 -402 425 -412V-429H861C861 -395 861 -392 868 -392C876 -392 907 -402 907 -419C907 -425 902 -475 902 -485V-520C930 -536 933 -537 933 -542C933 -545 931 -547 928 -550ZM582 -448V-535H697V-448ZM737 -448V-535H861V-448ZM425 -448V-535H542V-448ZM813 -395L788 -358H502L441 -400C443 -370 444 -335 444 -301V-186C444 -144 444 -97 442 -67V-57C442 -46 444 -42 451 -42C454 -42 458 -43 463 -44C487 -49 487 -51 487 -78H798C798 -52 798 -49 806 -49C810 -49 816 -51 825 -55C842 -62 847 -65 847 -77C847 -79 846 -82 846 -86C843 -113 842 -144 842 -197V-325L865 -338C870 -341 872 -343 872 -346C872 -349 869 -353 864 -357ZM487 -186V-253H798V-186ZM487 -97V-166H798V-97ZM487 -273V-338H798V-273ZM562 -75C515 -33 398 49 341 78L345 91C400 70 481 32 568 -15C576 -19 586 -20 596 -20C612 -20 613 -20 613 -24C613 -26 611 -29 608 -32ZM895 -780L855 -738H662V-794C686 -811 689 -812 689 -817C689 -821 685 -824 677 -827L614 -855C616 -823 617 -776 617 -738H398C375 -738 349 -740 325 -742L353 -709C369 -715 399 -719 420 -719H617V-644H454C432 -644 407 -646 384 -648L425 -615C440 -621 455 -625 475 -625H869C878 -625 882 -627 882 -631C882 -634 880 -638 874 -643L835 -682L803 -644H662V-719H932C942 -719 947 -721 947 -726C947 -729 944 -734 937 -740ZM339 -557L316 -527H304V-783C308 -785 335 -800 335 -802C335 -805 331 -808 323 -812L260 -848C262 -815 263 -755 263 -719V-527H153V-743C182 -761 186 -763 186 -767C186 -769 183 -772 178 -775L109 -813C110 -660 111 -477 111 -337C111 -141 80 -5 29 71L40 78C114 -7 152 -132 153 -325H261V-51C261 -34 259 43 259 59C259 65 260 68 264 68C268 68 274 65 285 60C303 52 307 48 307 34V27C304 -17 303 -44 303 -75V-316C328 -335 331 -337 331 -342C331 -345 329 -348 325 -350L269 -387L248 -346H153V-505H363C370 -505 373 -507 373 -511C373 -513 372 -516 369 -520ZM676 -43C780 -3 830 25 873 61C884 71 897 77 904 77C911 77 918 67 918 51C918 1 850 -24 682 -53Z"/>
</svg>