<svg xmlns="http://www.w3.org/2000/svg" viewBox="0 -1000 1000 1000">
	<path fill="#000000" d="M893 -58L857 -6H663V-195H870C877 -195 881 -198 881 -202C881 -205 879 -209 875 -213L820 -268L784 -217H663V-375H815C815 -340 815 -336 823 -336C827 -336 832 -338 839 -342C857 -352 862 -358 862 -371V-378C860 -397 860 -407 860 -499V-723C893 -743 893 -744 893 -749C893 -752 890 -756 883 -761L829 -804L804 -765H488L428 -807C430 -779 431 -723 431 -701V-482C431 -431 431 -390 428 -347V-342C428 -333 430 -329 435 -329C439 -329 445 -331 453 -335C474 -346 474 -347 474 -375H618V-217H480C457 -217 432 -219 407 -221L435 -184C452 -191 481 -195 502 -195H618V-6H389C366 -6 341 -8 316 -10L344 27C361 20 390 16 411 16H947C954 16 958 13 958 9C958 6 956 2 951 -2ZM663 -586V-743H815V-586ZM474 -586V-743H618V-586ZM663 -397V-564H815V-397ZM474 -397V-564H618V-397ZM322 -829C290 -783 250 -734 202 -683C172 -725 130 -765 78 -801L68 -789C113 -755 152 -706 180 -660C138 -617 90 -572 36 -527L46 -513C92 -546 146 -588 196 -630C212 -598 225 -561 236 -520C190 -426 127 -326 32 -202L44 -193C139 -294 191 -358 251 -454C263 -390 270 -320 270 -254C270 -230 269 -207 267 -185C258 -68 246 -29 189 -29C161 -29 123 -38 70 -52L67 -38C152 -9 180 9 181 45C181 50 182 52 186 52C189 52 192 51 197 49C283 12 313 -24 313 -246C313 -413 281 -554 222 -652C263 -687 300 -720 328 -749C341 -763 350 -767 372 -771C380 -773 384 -775 384 -778C384 -780 382 -783 377 -787Z"/>
</svg>