<svg xmlns="http://www.w3.org/2000/svg" viewBox="0 -1000 1000 1000">
	<path fill="#000000" d="M803 -411L771 -370H498L443 -412C445 -375 447 -307 447 -266V-77C447 -69 444 43 444 66C444 82 445 89 451 89C455 89 461 86 469 81C491 68 493 64 493 51V-127H790V-23C790 1 786 12 755 12C736 12 707 8 662 1L659 16C732 34 754 50 761 77C763 83 765 86 769 86C771 86 773 85 776 84C830 55 836 46 836 2V-336L861 -351C865 -354 867 -356 867 -358C867 -361 866 -363 863 -365ZM493 -260V-349H790V-260ZM493 -148V-239H790V-148ZM900 -531L854 -478H668V-572H864C873 -572 877 -574 877 -578C877 -582 874 -587 868 -593L819 -642L780 -593H668V-693H914C923 -693 927 -695 927 -699C927 -702 924 -707 918 -714L865 -772L821 -714H668V-789C679 -797 697 -810 697 -813C697 -815 694 -817 690 -819L619 -851C621 -817 623 -756 623 -714H444C421 -714 396 -716 371 -718L399 -682C416 -689 445 -693 466 -693H623V-593H471C448 -593 423 -595 398 -597L426 -561C443 -568 472 -572 493 -572H623V-478H416C393 -478 368 -480 343 -482L371 -446C388 -453 417 -457 438 -457H943C954 -457 959 -459 959 -463C959 -467 956 -472 950 -478ZM321 -818C280 -753 247 -704 216 -663C183 -702 140 -735 86 -768L79 -758C129 -718 164 -683 197 -638C155 -584 111 -539 45 -475L55 -465C111 -504 164 -549 217 -604C228 -583 238 -556 246 -526C172 -371 132 -307 41 -185L50 -174C133 -260 182 -321 262 -454C274 -385 280 -310 280 -250C280 -226 279 -204 277 -186C264 -58 257 -14 201 -14C173 -14 135 -24 79 -40L75 -25C178 11 192 24 196 58C197 63 198 66 202 66C205 66 207 66 211 64C307 25 322 -27 322 -207C322 -435 291 -555 241 -630C270 -662 300 -698 329 -738C339 -752 346 -757 366 -760C377 -762 382 -764 382 -768C382 -772 378 -776 370 -782Z"/>
</svg>