<svg xmlns="http://www.w3.org/2000/svg" viewBox="0 -1000 1000 1000">
	<path fill="#000000" d="M964 -39C842 -66 739 -160 680 -285H932C939 -285 943 -287 943 -292C943 -295 940 -300 935 -306L885 -365L836 -307H657V-435H802C802 -412 802 -409 810 -409C814 -409 819 -411 827 -415C846 -425 850 -430 850 -441V-446C849 -472 848 -503 848 -549V-735L874 -756C878 -759 880 -763 880 -766C880 -769 878 -772 874 -775L812 -823L782 -775H467L414 -824C416 -793 417 -769 417 -745V-521C417 -505 415 -432 415 -418C415 -405 418 -399 425 -399C429 -399 434 -401 441 -405C458 -415 463 -420 463 -435H610V-307H411C388 -307 363 -309 338 -311L366 -274C383 -281 412 -285 433 -285H544C510 -190 391 -28 276 50L285 61C433 -29 547 -171 604 -285H610V-92C610 -67 609 42 609 64C609 76 611 82 617 82C617 82 660 68 660 44V40C658 5 657 -40 657 -90V-285H662C713 -148 777 -72 864 3C867 6 869 7 872 7C874 7 876 6 878 3C888 -12 916 -28 964 -26ZM657 -612V-753H802V-612ZM463 -612V-753H610V-612ZM657 -457V-590H802V-457ZM463 -457V-590H610V-457ZM320 -816C293 -775 258 -727 214 -674C176 -724 136 -760 80 -787L70 -777C117 -739 158 -694 191 -647C149 -598 100 -546 44 -490L52 -478C118 -532 167 -574 211 -616C225 -590 236 -555 244 -513C198 -416 130 -307 35 -178L44 -168C131 -251 188 -330 255 -438C261 -384 264 -325 264 -269C264 -218 262 -169 257 -128C250 -62 243 -27 175 -27C152 -27 121 -31 80 -40L79 -26C154 -2 176 15 182 45C183 50 185 52 189 52C191 52 194 51 198 50C276 17 289 -22 301 -116C308 -170 311 -226 311 -281C311 -427 287 -564 237 -641C268 -671 297 -702 331 -738C347 -756 354 -760 374 -764C379 -765 382 -766 382 -769C382 -771 379 -774 373 -779Z"/>
</svg>