<svg xmlns="http://www.w3.org/2000/svg" viewBox="0 -1000 1000 1000">
	<path fill="#000000" d="M817 -821L788 -780H471L416 -823C418 -797 419 -762 419 -730V-566C419 -515 418 -472 416 -433V-420C416 -408 417 -403 424 -403C428 -403 434 -406 444 -410C461 -418 464 -421 464 -433V-455H800V-425C800 -416 801 -411 805 -411C809 -411 815 -414 825 -420C847 -433 851 -437 851 -447V-453C847 -498 846 -515 846 -554V-740L878 -757C884 -760 886 -763 886 -766C886 -769 884 -772 879 -775ZM655 -623V-758H800V-623ZM464 -623V-758H609V-623ZM655 -477V-601H800V-477ZM464 -477V-601H609V-477ZM316 -810C291 -773 256 -724 213 -671C171 -728 121 -772 58 -808L51 -797C112 -752 159 -699 192 -645C145 -588 92 -529 37 -478L47 -467C101 -508 157 -559 211 -612C225 -583 236 -549 245 -511C177 -369 115 -270 41 -183L50 -174C123 -239 175 -302 260 -436C267 -387 271 -337 271 -292C271 -274 270 -256 269 -240C259 -67 248 -15 173 -15C146 -15 109 -22 60 -33L57 -18C152 9 164 19 175 56C176 61 178 63 180 63C182 63 185 62 188 60C269 17 314 -35 314 -266C314 -407 286 -551 236 -638C266 -669 294 -700 321 -730C331 -741 347 -747 358 -747C369 -747 374 -749 374 -752C374 -754 372 -757 368 -760ZM972 -23C846 -42 753 -82 688 -149C806 -219 848 -233 869 -233H881C885 -233 887 -234 887 -236C887 -238 885 -241 881 -245L833 -293C801 -260 737 -203 677 -160C638 -204 608 -260 586 -329H949C958 -329 962 -331 962 -335C962 -339 959 -344 952 -351L898 -404L860 -351H402C379 -351 354 -353 329 -355L357 -318C377 -326 396 -329 432 -329V-41C432 -8 428 1 396 22L435 67C437 70 440 71 442 71C444 71 446 70 448 66C461 43 496 9 651 -80L644 -92L478 -16V-329H567C616 -154 674 -75 857 21C861 23 864 24 867 24C870 24 872 23 874 20C887 1 922 -14 972 -11Z"/>
</svg>