<svg xmlns="http://www.w3.org/2000/svg" viewBox="0 -1000 1000 1000">
	<path fill="#000000" d="M918 -303L884 -259H845V-372L872 -389C877 -393 880 -395 880 -398C880 -401 877 -404 872 -407L818 -444L795 -406H435L380 -456C381 -434 383 -383 383 -358V-259C346 -259 341 -259 291 -263L319 -226C336 -233 358 -237 386 -237H956C967 -237 972 -238 972 -242C972 -245 968 -250 960 -259ZM562 -259V-384H664V-259ZM706 -259V-384H802V-259ZM425 -259V-384H520V-259ZM549 -843C579 -818 601 -783 607 -762C613 -740 618 -735 628 -735C646 -735 660 -757 660 -778C660 -811 611 -835 555 -853ZM887 -770L859 -733H404C403 -745 402 -756 399 -768H387C380 -714 361 -680 331 -661C312 -649 304 -640 304 -632C304 -625 315 -609 335 -609C375 -609 401 -659 404 -711H863L813 -627C804 -632 794 -637 784 -642L776 -633C820 -593 846 -555 863 -515C871 -495 877 -488 887 -488C902 -488 915 -503 915 -524C915 -544 902 -576 829 -618C885 -684 907 -701 940 -701C946 -701 950 -702 950 -704C950 -706 947 -710 942 -715ZM577 -678C602 -651 613 -621 615 -594C616 -579 626 -568 637 -568C653 -568 665 -584 665 -605C665 -620 664 -644 583 -687ZM424 -640C416 -585 392 -558 357 -535C347 -529 341 -519 341 -512C341 -504 348 -493 366 -493C396 -493 437 -520 437 -606C437 -617 436 -628 435 -640ZM734 -612C731 -515 725 -512 689 -508C661 -505 632 -503 604 -503C522 -503 522 -507 522 -543V-606C545 -619 547 -620 547 -623C547 -625 545 -627 540 -629L478 -658C479 -637 480 -600 480 -573V-536C480 -478 480 -468 613 -468C748 -468 757 -476 781 -514C782 -515 783 -517 783 -518C783 -521 781 -523 777 -524C759 -532 749 -546 750 -612ZM285 -831C267 -791 237 -740 191 -678C162 -721 125 -758 73 -799L62 -785C112 -736 140 -701 168 -647C128 -596 78 -537 16 -470L26 -460C73 -495 121 -541 185 -612C199 -579 210 -540 218 -495C175 -401 113 -302 8 -175L17 -164C101 -238 163 -314 229 -418C235 -362 238 -300 238 -229C238 -60 230 -11 156 -11C132 -11 102 -16 62 -25L59 -10C142 16 156 25 166 60C167 65 169 67 172 67C173 67 176 66 179 64C256 19 281 1 281 -243C281 -402 259 -555 213 -644C239 -674 268 -708 300 -748C315 -767 324 -774 341 -779C349 -781 352 -783 352 -785C352 -787 350 -789 346 -792ZM839 -206L801 -165H409C386 -165 361 -167 336 -169L371 -132C388 -139 410 -143 438 -143H594V-14C594 1 586 8 558 8C536 8 502 4 451 -4L447 9C537 37 548 47 554 77C555 83 557 86 560 86C562 86 564 85 567 84C625 55 637 45 637 -3V-143H876C887 -143 893 -144 893 -148C893 -151 889 -157 880 -165Z"/>
</svg>