<svg xmlns="http://www.w3.org/2000/svg" viewBox="0 -1000 1000 1000">
	<path fill="#000000" d="M897 -332L859 -290H688V-371H879C888 -371 892 -373 892 -377C892 -380 889 -385 883 -391L845 -429L813 -391H688V-460H881C891 -460 896 -462 896 -466C896 -469 892 -473 886 -479L843 -519L811 -480H688V-561H928C937 -561 942 -562 942 -566C942 -568 939 -572 934 -577L887 -622L852 -581H499C513 -601 520 -605 532 -611C541 -614 545 -617 545 -620C545 -623 542 -625 536 -628L487 -655C462 -593 388 -485 307 -380L314 -367C345 -397 382 -434 425 -486V-315C425 -301 422 -239 422 -226C422 -219 424 -215 429 -215C433 -215 440 -217 449 -221C468 -230 470 -233 470 -246V-270H935C945 -270 949 -272 949 -276C949 -279 947 -282 942 -287ZM470 -391V-460H642V-391ZM470 -480V-542C475 -548 479 -555 484 -561H642V-480ZM470 -290V-371H642V-290ZM960 0C840 0 745 -18 666 -52C706 -78 744 -109 781 -143C800 -161 817 -170 837 -173C844 -174 847 -176 847 -178C847 -180 845 -182 841 -185L780 -231L748 -199H408C385 -199 360 -200 335 -202L363 -169C380 -175 409 -178 430 -178H463C499 -124 541 -84 590 -51C511 -3 411 40 285 69L290 86C420 65 530 30 628 -28C723 23 863 62 865 62C868 62 870 60 873 56C885 35 903 20 960 16ZM743 -178C712 -143 672 -107 623 -73C572 -101 527 -136 486 -178ZM886 -781L846 -732H741V-804L763 -817C770 -821 773 -824 773 -826C773 -829 770 -831 764 -833L693 -860C695 -827 696 -805 696 -780V-732H536V-802C564 -818 567 -820 567 -824C567 -827 564 -829 558 -831L489 -860C491 -827 492 -806 492 -781V-732H393C370 -732 345 -734 320 -736L348 -702C365 -709 394 -712 415 -712H492C492 -706 491 -678 491 -672C491 -665 493 -661 499 -661C506 -661 537 -668 537 -679C537 -681 536 -707 536 -712H696C696 -704 695 -667 695 -660C695 -652 697 -648 703 -648C703 -648 743 -656 743 -674C743 -676 741 -709 741 -712H927C935 -712 940 -714 940 -718C940 -721 937 -725 931 -732ZM597 -680C619 -658 641 -625 646 -602C648 -592 656 -585 664 -585C680 -585 693 -597 693 -617C693 -648 668 -662 603 -688ZM291 -825C270 -783 239 -734 205 -682C176 -725 137 -762 78 -801L69 -790C118 -745 155 -700 182 -649C130 -575 70 -500 16 -442L26 -432C82 -475 141 -536 202 -609C215 -579 225 -546 233 -509C197 -418 121 -279 14 -160L25 -150C110 -220 178 -312 246 -435C254 -369 258 -308 258 -253C258 -178 251 -117 241 -76C231 -35 218 -16 173 -16C148 -16 114 -22 66 -32L63 -15C154 7 168 23 173 54C174 59 175 61 177 61C179 61 182 60 186 58C271 18 302 -10 302 -239C302 -375 281 -544 228 -642C252 -672 276 -704 300 -737C314 -757 330 -768 348 -768C354 -768 357 -769 357 -771C357 -773 355 -776 351 -779Z"/>
</svg>