<svg xmlns="http://www.w3.org/2000/svg" viewBox="0 -1000 1000 1000">
	<path fill="#000000" d="M897 -516L865 -473H777V-576H921C928 -576 932 -577 932 -580C932 -582 929 -585 925 -589L879 -635L848 -595H777V-657C803 -670 806 -671 806 -674C806 -677 802 -680 794 -684L746 -711H940C948 -711 953 -712 953 -715C953 -718 949 -722 942 -729L896 -776L864 -730H431L375 -784C376 -751 376 -702 376 -665L377 -465C379 -134 361 -69 250 60L257 69C392 -56 411 -116 416 -455H654V-366H542L490 -414C492 -385 493 -342 493 -320V-142C493 -132 491 -88 491 -79C491 -72 492 -69 497 -69C500 -69 505 -71 513 -74C532 -83 532 -85 532 -108H823C823 -79 823 -76 828 -76C834 -76 865 -87 865 -105C865 -115 862 -173 862 -186V-338L887 -349C892 -352 895 -354 895 -356C895 -358 893 -361 888 -363L835 -400L809 -366H694V-455H947C955 -455 959 -456 959 -459C959 -461 957 -464 952 -467ZM602 -595V-657C612 -664 629 -675 629 -678C629 -680 626 -683 620 -686L568 -711H735C736 -683 737 -633 737 -595ZM416 -473L419 -711H560C561 -683 562 -633 562 -595H496C474 -595 450 -597 427 -599L452 -565C469 -572 497 -576 518 -576H562V-473ZM602 -473V-576H737V-473ZM694 -245V-348H823V-245ZM532 -245V-348H654V-245ZM694 -127V-226H823V-127ZM532 -127V-226H654V-127ZM573 -839C618 -815 646 -780 650 -769C660 -741 662 -737 674 -737C690 -737 701 -750 701 -769C701 -779 698 -789 693 -801C684 -819 629 -837 577 -848ZM293 -812C270 -770 239 -720 205 -669C177 -713 133 -762 84 -806L77 -797C126 -739 157 -693 183 -638C144 -584 100 -529 50 -472L55 -464C113 -511 152 -547 199 -601C208 -574 217 -540 223 -502C171 -392 124 -325 29 -222L35 -214C98 -258 164 -329 232 -431C237 -377 239 -320 239 -268C239 -69 218 -42 153 -42C131 -42 103 -46 66 -53L62 -39C143 -17 158 -7 164 30C165 34 166 37 170 37C172 37 175 36 179 34C267 -16 281 -80 281 -282C281 -427 263 -552 225 -634C243 -657 264 -684 287 -715C301 -734 324 -752 339 -756C345 -758 347 -760 347 -762C347 -763 346 -765 345 -766ZM587 -86C547 -48 422 32 334 72L339 84C418 56 525 8 581 -21C613 -38 621 -42 632 -43C636 -44 639 -44 639 -46C639 -47 637 -49 634 -51ZM706 -59C784 -37 862 21 882 43C902 67 906 70 915 70C925 70 936 55 936 38C936 27 932 15 921 4C887 -30 817 -54 707 -69Z"/>
</svg>