<svg xmlns="http://www.w3.org/2000/svg" viewBox="0 -1000 1000 1000">
	<path fill="#000000" d="M895 -491L866 -459H794V-671L821 -685C827 -688 829 -690 829 -693C829 -695 827 -697 822 -700L765 -738L740 -703H566L611 -766H916C925 -766 929 -768 929 -771C929 -774 926 -777 922 -782L877 -837L831 -784H369C347 -784 323 -786 299 -788L325 -755C342 -762 370 -766 391 -766H556C555 -748 551 -725 544 -703H449L403 -744C405 -713 406 -667 406 -644V-459H329C329 -473 328 -490 326 -509L314 -508C313 -456 286 -415 265 -401C249 -391 242 -381 242 -371C242 -356 250 -345 266 -345C291 -345 325 -375 328 -441L868 -440L834 -378L843 -373C895 -421 918 -428 953 -429C956 -429 958 -430 958 -432C958 -433 957 -434 955 -436ZM445 -542V-602H753V-542ZM445 -459V-524H753V-459ZM445 -620V-685H753V-620ZM235 -860C188 -715 130 -566 2 -358L11 -351C62 -409 111 -483 158 -567V-115C158 -63 157 -6 155 53V62C155 78 157 84 163 84C167 84 172 82 180 78C200 69 203 65 203 52V45C200 0 199 -51 199 -113V-553C225 -566 227 -568 227 -571C227 -573 225 -575 222 -577L176 -603C205 -659 234 -719 262 -781C265 -789 269 -794 289 -798C298 -800 303 -802 303 -805C303 -808 300 -811 294 -815ZM547 -424C575 -395 583 -375 583 -352C583 -329 588 -326 599 -326C612 -326 630 -340 630 -359C630 -380 602 -409 554 -431ZM963 5C837 9 723 -11 631 -50C669 -76 709 -109 753 -147C762 -155 772 -158 791 -160C805 -162 811 -164 811 -168C811 -171 808 -174 803 -178L752 -221L723 -193H472C480 -202 486 -206 498 -209C507 -211 512 -213 512 -216C512 -218 509 -220 503 -223L454 -246C414 -175 340 -82 252 6L259 16C322 -31 395 -100 452 -167C476 -121 513 -82 564 -49C486 -1 391 40 262 74L265 86C403 63 496 35 598 -29C708 28 868 66 869 66C872 66 874 64 876 60C886 41 911 24 963 16ZM713 -175C677 -136 639 -100 593 -68C540 -95 495 -133 462 -175ZM709 -388C703 -302 696 -293 656 -290C633 -289 592 -288 558 -288C504 -288 490 -288 490 -314V-358C500 -363 516 -370 516 -373C516 -374 514 -376 511 -378L449 -417C450 -401 450 -378 450 -360V-312C450 -283 458 -256 498 -255H553C701 -255 727 -255 751 -295C752 -297 753 -298 753 -299C753 -301 751 -303 749 -304C731 -311 725 -322 725 -388ZM753 -385C792 -360 826 -312 836 -280C843 -258 850 -249 859 -249C877 -249 887 -265 887 -286C887 -291 886 -296 885 -302C878 -330 804 -376 759 -396ZM377 -389C367 -345 346 -314 317 -302C298 -293 291 -281 291 -271C291 -258 302 -248 316 -248C319 -248 387 -253 387 -389Z"/>
</svg>