<svg xmlns="http://www.w3.org/2000/svg" viewBox="0 -1000 1000 1000">
	<path fill="#000000" d="M870 -647C832 -594 744 -498 657 -424C634 -479 595 -532 525 -602C577 -647 626 -697 672 -751H886C894 -751 898 -752 898 -755C898 -757 895 -761 890 -766L831 -824L794 -773H455C435 -773 417 -773 399 -776L432 -742C442 -748 459 -751 478 -751H608C543 -660 432 -553 346 -490L314 -527L280 -479H229V-708H374C382 -708 386 -709 386 -712C386 -714 383 -718 378 -723L328 -781L291 -730H80C52 -730 42 -731 24 -733L53 -701C63 -706 82 -708 103 -708H183V-479H95C71 -479 59 -480 41 -482L70 -449C80 -455 93 -458 118 -458H183V-184L23 -138L59 -89C61 -86 64 -84 66 -84C69 -84 72 -86 75 -90C86 -103 102 -114 135 -127L377 -224L375 -240L229 -197V-458H357C365 -458 368 -459 368 -461C368 -466 360 -474 356 -478C408 -509 459 -546 508 -587C529 -567 548 -543 565 -517C540 -481 507 -443 469 -404C451 -420 429 -435 405 -450L397 -443C416 -423 432 -402 445 -380C405 -340 360 -301 312 -263L320 -252C364 -279 412 -315 459 -352C466 -338 471 -324 474 -311C481 -282 486 -276 493 -276C512 -276 524 -294 524 -314C524 -324 518 -350 492 -380C528 -412 562 -445 590 -477C609 -443 623 -409 630 -383C526 -224 362 -96 232 -10L240 2C393 -80 533 -188 642 -320C649 -274 653 -226 653 -181C653 -4 592 -4 564 -4C538 -4 503 -10 455 -23L451 -9C548 23 563 41 566 71C567 75 568 77 572 77C574 77 578 76 584 73C665 37 699 -14 699 -143C699 -148 698 -316 664 -407C681 -420 703 -437 726 -454C741 -280 771 -180 882 -66C885 -63 888 -61 891 -61C893 -61 896 -62 898 -65C912 -81 942 -95 980 -93L982 -104C853 -151 780 -230 742 -466C786 -500 830 -534 852 -552C882 -577 912 -589 923 -589C929 -589 933 -589 933 -591C933 -593 929 -597 921 -604Z"/>
</svg>