<svg xmlns="http://www.w3.org/2000/svg" viewBox="0 -1000 1000 1000">
	<path fill="#000000" d="M339 -765L306 -718H116C93 -718 68 -720 43 -722L71 -685C88 -692 117 -696 138 -696H195V-454H126C104 -454 80 -456 56 -458L83 -423C99 -429 126 -433 146 -433H195V-188L38 -128L79 -83C81 -81 82 -80 84 -80C85 -80 88 -82 91 -86C101 -100 119 -113 153 -130L369 -239L362 -252L241 -206V-433H365C373 -433 377 -434 377 -437C377 -439 374 -443 368 -449L319 -496L288 -454H241V-696H383C392 -696 396 -697 396 -701C396 -704 392 -709 385 -717ZM884 -659L852 -624H667V-715H872C883 -715 888 -716 888 -719C888 -722 884 -727 876 -735L830 -781L794 -737H667V-798C694 -814 697 -815 697 -820C697 -823 693 -826 685 -830L619 -856C621 -819 622 -776 622 -735V-624H471L420 -661C426 -228 399 -124 224 53L231 66C418 -82 466 -189 466 -602H615C616 -583 617 -558 617 -541V-484L553 -477C526 -474 506 -473 482 -472L511 -442C525 -450 546 -455 577 -459L617 -464V-408C617 -358 625 -346 766 -346C858 -346 881 -353 899 -396C900 -399 901 -402 901 -404C901 -406 900 -408 896 -409C876 -416 868 -439 869 -498L855 -499C848 -389 844 -385 772 -385C662 -385 662 -391 662 -424V-470L811 -489C819 -490 823 -492 823 -494C823 -497 820 -500 813 -505L761 -542L737 -498L662 -489V-558C675 -565 686 -572 686 -575C686 -578 683 -580 678 -583L637 -602H856L816 -531L826 -524C868 -571 912 -592 938 -592C947 -592 952 -594 952 -597C952 -599 949 -603 943 -608ZM908 -150C905 2 902 2 837 2C762 2 762 -4 762 -48V-219C791 -236 795 -237 795 -242C795 -245 792 -249 786 -253L734 -293L708 -257H598L549 -293C554 -81 531 -25 385 74L392 87C549 -2 589 -49 593 -235H717V-42C717 31 728 42 828 42C907 42 939 38 960 -21C962 -27 960 -31 954 -34C931 -45 927 -58 922 -150Z"/>
</svg>