<svg xmlns="http://www.w3.org/2000/svg" viewBox="0 -1000 1000 1000">
	<path fill="#000000" d="M874 -176C866 -14 858 -2 757 7C711 11 636 13 558 13C450 13 336 9 284 3C230 -3 225 -20 225 -78V-178H741V-143C741 -134 743 -130 749 -130C751 -130 791 -144 791 -164C791 -175 788 -223 788 -233V-341L821 -363C825 -366 827 -369 827 -372C827 -375 824 -378 819 -382L757 -426L725 -381H228L176 -419C178 -384 179 -352 179 -311V-83C179 9 184 38 268 47C326 53 410 55 497 55C594 55 693 53 759 50C856 46 898 37 926 -33C927 -35 927 -37 927 -39C927 -42 926 -43 923 -44C899 -51 890 -70 890 -176ZM506 -200V-359H741V-200ZM225 -200V-359H459V-200ZM877 -560L836 -508H716V-623H885C893 -623 897 -625 897 -629C897 -633 894 -638 888 -644L840 -692L803 -645H716V-761H909C918 -761 923 -765 923 -770C923 -773 920 -777 916 -781L857 -838L817 -783H582C559 -783 534 -785 509 -787L537 -750C554 -757 583 -761 604 -761H669V-645H598C575 -645 550 -647 525 -649L553 -612C570 -619 599 -623 620 -623H669V-508H596C573 -508 548 -510 523 -512L551 -475C568 -482 597 -486 618 -486H928C936 -486 939 -489 939 -494C939 -498 937 -503 931 -508ZM444 -559L403 -507H313V-621H473C481 -621 485 -624 485 -628C485 -632 482 -637 476 -642L421 -690L388 -643H313V-760H477C485 -760 489 -762 489 -767C489 -770 486 -775 480 -781L424 -832L388 -782H148C125 -782 100 -784 75 -786L103 -749C120 -756 149 -760 170 -760H267V-643H163C140 -643 115 -645 90 -647L118 -610C135 -617 164 -621 185 -621H267V-507H126C103 -507 78 -509 53 -511L81 -474C98 -481 127 -485 148 -485H495C503 -485 507 -488 507 -492C507 -496 504 -501 498 -507Z"/>
</svg>