<svg xmlns="http://www.w3.org/2000/svg" viewBox="0 -1000 1000 1000">
	<path fill="#000000" d="M632 -355C638 -393 644 -443 647 -506H811V-355ZM822 -735L790 -691H557C605 -780 617 -791 645 -798C651 -800 654 -801 654 -804C654 -805 651 -808 646 -810L579 -842C572 -803 554 -738 535 -691H461L404 -733C406 -704 407 -658 407 -635V-413C407 -393 405 -304 405 -286C405 -274 406 -268 412 -268C417 -268 423 -271 433 -276C450 -285 452 -289 452 -300V-334H581C544 -154 453 -67 212 76L218 89C477 -32 587 -141 627 -334H811C811 -307 811 -303 817 -303C821 -303 828 -306 838 -312C857 -322 860 -327 860 -338V-345C857 -387 856 -415 856 -451V-661L885 -680C888 -682 889 -683 889 -685C889 -687 888 -689 884 -691ZM452 -527V-670H606C605 -609 604 -563 603 -527ZM648 -527C651 -569 652 -617 654 -670H811V-527ZM452 -355V-506H602C600 -438 595 -405 586 -355ZM917 -151C912 7 904 21 859 24C842 25 802 26 768 26C687 26 670 22 670 -12V-257L693 -272C696 -274 697 -276 697 -277C697 -279 695 -281 692 -282L624 -315C625 -288 625 -205 625 -161V-14C625 55 644 65 779 65C913 65 935 63 968 -3C969 -5 970 -8 970 -9C970 -13 968 -15 964 -17C940 -30 932 -42 932 -151ZM385 -218L229 -179V-434H353C361 -434 365 -436 365 -440C365 -443 362 -448 356 -454L311 -499L277 -455H229V-688H363C372 -688 376 -690 376 -693C376 -697 373 -701 366 -708L318 -756L279 -709H110C87 -709 62 -711 37 -713L65 -677C82 -684 111 -688 132 -688H184V-455H125C103 -455 79 -457 55 -459L82 -424C98 -430 125 -434 145 -434H184V-168L25 -128L67 -77C69 -75 70 -74 72 -74C74 -74 76 -76 78 -79C86 -93 123 -112 147 -120L392 -203ZM801 -202C816 -181 826 -160 831 -140L718 -130C731 -150 758 -185 788 -226C804 -247 810 -252 823 -255C828 -256 831 -258 831 -260C831 -262 829 -264 824 -266L768 -289C760 -254 741 -201 719 -163C710 -147 696 -137 678 -131L705 -90C708 -85 711 -83 714 -83C717 -83 719 -85 722 -88C727 -94 753 -104 764 -107L835 -126C837 -116 838 -106 838 -96C838 -80 847 -72 856 -72C875 -72 880 -96 880 -107C880 -124 870 -156 809 -208Z"/>
</svg>