<svg xmlns="http://www.w3.org/2000/svg" viewBox="0 -1000 1000 1000">
	<path fill="#000000" d="M796 -826L764 -780H228L166 -831C168 -803 169 -760 169 -738V-429C169 -378 168 -297 166 -243V-234C166 -220 168 -214 174 -214C178 -214 184 -217 192 -220C212 -228 216 -232 216 -243V-310H470V-171C470 -114 468 -23 465 35V48C465 62 467 67 474 67C479 67 486 65 495 61C516 52 519 48 519 35V27C518 1 517 -83 517 -169V-310H784V-267C784 -259 785 -254 791 -254C795 -254 801 -256 810 -260C830 -268 836 -272 836 -289V-294C833 -339 831 -401 831 -477V-741L863 -760C868 -763 870 -766 870 -768C870 -771 868 -774 863 -777ZM517 -560V-758H784V-560ZM216 -560V-758H470V-560ZM517 -332V-538H784V-332ZM216 -332V-538H470V-332Z"/>
</svg>