<svg xmlns="http://www.w3.org/2000/svg" viewBox="0 -1000 1000 1000">
	<path fill="#000000" d="M968 -319C841 -318 720 -372 631 -475H928C936 -475 940 -476 940 -480C940 -483 937 -487 930 -494L869 -554L828 -497H414C443 -534 470 -574 495 -617C581 -621 657 -625 739 -628C743 -623 747 -617 750 -612C761 -593 778 -577 788 -577C801 -577 812 -592 812 -613C812 -670 730 -718 583 -772L576 -761C627 -733 684 -693 723 -649L270 -648C358 -708 428 -752 472 -780C494 -794 510 -800 526 -801C536 -802 541 -804 541 -807C541 -809 539 -811 534 -814L471 -855C429 -806 380 -761 272 -681C251 -666 214 -653 185 -651L218 -595C220 -591 223 -589 226 -589C229 -589 232 -590 236 -593C249 -601 295 -609 434 -615C411 -573 387 -534 358 -497H134C111 -497 86 -499 61 -501L89 -464C106 -471 135 -475 156 -475H341C266 -384 167 -304 26 -227L35 -213C99 -240 163 -275 223 -317C224 -303 224 -289 224 -280V-65C224 -5 223 19 221 61V69C221 77 222 81 227 81C231 81 237 79 247 74C268 64 270 60 270 41V10H730V53C730 62 731 68 737 68C741 68 747 65 756 60C776 49 779 44 779 33V26C777 -4 776 -36 776 -77V-286C787 -295 788 -296 788 -300C788 -302 786 -304 782 -307L732 -340L714 -323H290L253 -339C304 -378 352 -423 396 -475H605C676 -379 743 -324 875 -271C879 -269 882 -268 885 -268C888 -268 891 -270 894 -274C910 -295 934 -308 968 -309ZM525 -172V-301H730V-172ZM270 -172V-301H479V-172ZM525 -12V-150H730V-12ZM270 -12V-150H479V-12Z"/>
</svg>