<svg xmlns="http://www.w3.org/2000/svg" viewBox="0 -1000 1000 1000">
	<path fill="#000000" d="M750 -323L721 -281H276L213 -329C215 -300 216 -254 216 -231V-104C216 -92 214 -30 214 -28C214 -20 215 -17 220 -17C224 -17 230 -19 239 -23C258 -32 262 -34 262 -49H740C740 -11 740 -11 747 -11C752 -11 759 -13 769 -18C786 -25 791 -29 791 -38C791 -41 790 -43 790 -46C787 -71 786 -92 786 -136V-245L813 -261C818 -264 821 -267 821 -270C821 -272 818 -275 814 -278ZM523 -177V-262H740V-177ZM262 -177V-262H477V-177ZM523 -68V-157H740V-68ZM262 -68V-157H477V-68ZM906 -694L864 -649H782V-708L811 -725C817 -729 820 -731 820 -734C820 -736 817 -739 811 -743L748 -783L720 -742H525V-795L551 -810C557 -814 559 -816 559 -818C559 -821 557 -823 551 -825L475 -862C477 -828 479 -781 479 -742H231C208 -742 183 -744 158 -746L186 -712C203 -719 232 -723 253 -723H479V-649H110C87 -649 62 -651 37 -653L64 -618C81 -625 110 -629 131 -629H479V-553H233C210 -553 185 -555 160 -557L187 -522C204 -529 233 -533 254 -533H479V-461H209C186 -461 161 -463 136 -465L163 -430C180 -437 209 -441 230 -441H479V-370H139C116 -370 91 -372 66 -374L93 -339C110 -346 139 -350 160 -350H922C931 -350 936 -352 936 -355C936 -358 933 -362 927 -368L875 -415L836 -370H525V-441H872C881 -441 886 -443 886 -447C886 -450 883 -454 877 -459L823 -506L783 -461H525V-533H736C736 -501 736 -497 743 -497C747 -497 753 -499 763 -503C781 -511 786 -514 786 -525C786 -527 785 -530 785 -534C782 -568 782 -582 782 -629H953C962 -629 966 -631 966 -634C966 -637 963 -641 957 -647ZM525 -649V-723H736V-649ZM525 -553V-629H736V-553ZM875 -17L832 29H118C95 29 70 27 45 25L72 60C89 53 118 49 139 49H922C932 49 937 47 937 43C937 40 934 35 927 29Z"/>
</svg>