<svg xmlns="http://www.w3.org/2000/svg" viewBox="0 -1000 1000 1000">
	<path fill="#000000" d="M918 -539C927 -539 932 -540 932 -544C932 -547 928 -552 921 -559L860 -620L818 -561H626C728 -674 747 -684 774 -690C780 -691 783 -693 783 -695C783 -698 781 -700 777 -703L717 -741C692 -692 656 -636 600 -561H522V-755C577 -761 635 -768 693 -776C716 -779 745 -780 769 -780C776 -780 807 -778 813 -778C818 -778 821 -779 821 -781C821 -783 819 -786 816 -789L769 -838C655 -804 326 -763 118 -747L117 -735C137 -734 158 -733 181 -733C263 -733 365 -740 476 -750V-561H116C93 -561 68 -563 43 -565L71 -528C88 -535 117 -539 138 -539H363C294 -462 200 -371 29 -266L37 -253C104 -283 165 -317 219 -355C220 -326 221 -289 221 -269V-91C221 -67 219 38 219 59C219 67 220 71 225 71C229 71 235 69 244 65C266 55 268 53 268 40V0H731V49C731 57 732 62 739 62C743 62 749 60 758 56C777 48 781 45 781 33V28C779 -1 777 -43 777 -104V-284L801 -298C806 -301 809 -304 809 -306C809 -309 806 -312 802 -315L739 -363L715 -322H270L226 -360C302 -414 368 -475 428 -539H476C476 -487 475 -431 473 -378V-369C473 -353 475 -347 482 -347C486 -347 493 -349 502 -353C522 -362 526 -364 526 -379V-386C523 -427 522 -471 522 -539H580C645 -443 741 -378 874 -321C878 -319 880 -318 883 -318C885 -318 886 -319 888 -322C903 -346 921 -359 967 -364L968 -376C822 -386 685 -444 602 -539ZM521 -188V-300H731V-188ZM268 -188V-300H476V-188ZM521 -22V-166H731V-22ZM268 -22V-166H476V-22ZM239 -702C287 -663 314 -624 323 -596C327 -584 333 -578 344 -578C356 -578 374 -600 374 -623C374 -666 288 -696 246 -711Z"/>
</svg>