<svg xmlns="http://www.w3.org/2000/svg" viewBox="0 -1000 1000 1000">
	<path fill="#000000" d="M891 -243C886 -49 873 -35 837 -30C797 -25 763 -23 725 -23C645 -23 607 -23 607 -61V-437H743V-386C743 -378 744 -373 750 -373C754 -373 760 -375 770 -379C791 -388 797 -392 797 -404C797 -407 796 -410 796 -413C793 -444 791 -478 791 -527V-712L826 -735C831 -738 834 -741 834 -744C834 -747 831 -750 826 -754L758 -808L727 -762H278L208 -814C210 -783 211 -735 211 -711V-533C211 -511 204 -403 204 -396C204 -381 208 -375 216 -375C226 -375 258 -385 258 -406V-437H362C362 -157 306 -63 47 54L51 67C343 -31 409 -140 411 -437H561V-53C561 12 578 22 730 22C881 22 915 15 948 -46C951 -51 952 -55 952 -59C952 -64 949 -67 942 -71C916 -85 908 -131 908 -243ZM258 -459V-740H743V-459Z"/>
</svg>