<svg xmlns="http://www.w3.org/2000/svg" viewBox="0 -1000 1000 1000">
	<path fill="#000000" d="M966 -9C834 -15 712 -39 620 -97C658 -132 705 -184 749 -248C759 -262 777 -274 797 -281C802 -283 805 -285 805 -287C805 -289 802 -292 797 -296L733 -345L707 -313H417C394 -313 369 -315 344 -317L372 -280C395 -291 415 -291 432 -291C457 -211 499 -144 555 -95C477 -29 361 29 191 77L194 91C375 60 496 7 588 -69C656 -20 752 18 874 55C876 56 878 56 880 56C883 56 885 54 886 51C895 32 910 13 966 4ZM712 -291C671 -217 631 -167 584 -121C523 -169 482 -220 452 -291ZM479 -849C522 -820 552 -778 562 -751C572 -723 579 -718 592 -718C604 -718 617 -735 617 -757C617 -762 616 -768 614 -774C606 -799 558 -832 483 -858ZM40 -664C89 -605 104 -555 108 -520C112 -489 118 -475 129 -475C143 -475 162 -497 162 -528C162 -580 85 -647 49 -672ZM740 -549L772 -569C777 -572 779 -574 779 -576C779 -579 777 -581 774 -583L708 -630L681 -590H515L458 -633C459 -617 459 -602 459 -588C459 -440 422 -397 279 -328L284 -316C466 -382 491 -417 511 -568H693V-444C693 -392 712 -376 791 -376C827 -376 930 -378 930 -391C930 -393 924 -408 890 -434C866 -421 850 -417 790 -417C750 -417 740 -431 740 -467ZM895 -768L850 -712H278L207 -773C208 -739 210 -692 210 -654V-427L20 -295L66 -255C70 -252 72 -250 74 -250C77 -250 79 -253 80 -258C85 -279 91 -288 210 -404C208 -196 171 -86 25 61L32 73C246 -99 262 -202 262 -690H958C965 -690 968 -691 968 -693C968 -694 966 -697 962 -701Z"/>
</svg>