<svg xmlns="http://www.w3.org/2000/svg" viewBox="0 -1000 1000 1000">
	<path fill="#000000" d="M976 -418C839 -435 688 -514 624 -628C628 -630 651 -630 651 -634C651 -637 648 -640 641 -645L585 -684C524 -589 395 -449 274 -339L281 -330C379 -394 497 -501 592 -604C599 -612 605 -617 610 -621C660 -482 870 -362 884 -362C887 -362 889 -363 890 -365C909 -390 936 -403 976 -406ZM886 -766L844 -708H276L213 -760C214 -726 215 -682 215 -644L217 -415L32 -297L72 -250C76 -246 79 -244 81 -244C84 -244 86 -247 88 -252C93 -266 112 -295 128 -310L217 -394C214 -203 172 -100 25 63L37 72C211 -88 263 -177 265 -462L267 -685H943C950 -685 955 -687 955 -692C955 -695 952 -700 946 -706ZM469 -848C515 -814 541 -781 555 -745C565 -719 573 -713 587 -713C598 -713 612 -729 612 -753C612 -796 567 -827 472 -858ZM57 -646C91 -596 101 -531 101 -498C101 -470 108 -461 117 -461C132 -461 158 -484 158 -515C158 -551 114 -606 66 -653ZM608 -480C554 -410 403 -280 301 -206L310 -197C398 -243 564 -358 611 -404C623 -415 634 -421 647 -423C656 -425 661 -427 661 -430C661 -433 658 -437 651 -443ZM705 -346C639 -273 455 -145 338 -82L343 -68C463 -117 633 -220 704 -274C714 -282 727 -287 739 -288C751 -289 757 -292 757 -296C757 -299 754 -303 747 -309ZM820 -226C675 -78 463 25 221 80L226 93C428 72 646 -17 816 -146C824 -152 845 -157 860 -158C871 -159 876 -161 876 -165C876 -169 872 -174 865 -181Z"/>
</svg>