<svg xmlns="http://www.w3.org/2000/svg" viewBox="0 -1000 1000 1000">
	<path fill="#000000" d="M70 -627C108 -560 112 -531 112 -477C112 -462 118 -446 131 -446C147 -446 166 -471 166 -493C166 -511 145 -569 76 -632ZM891 -774L848 -712H280L214 -759C216 -724 218 -669 218 -631V-422L36 -288L79 -250C82 -247 85 -246 87 -246C90 -246 91 -248 92 -253C94 -269 107 -291 126 -308L218 -399C217 -200 178 -79 42 73L52 83C221 -59 265 -185 265 -469V-690H951C961 -690 966 -691 966 -694C966 -697 963 -701 957 -707ZM497 -843C540 -813 566 -765 571 -742C576 -720 580 -714 592 -714C611 -714 627 -726 627 -762C627 -788 590 -826 503 -852ZM910 -199C901 -24 895 -15 859 -11C839 -9 822 -8 806 -8C734 -8 727 -14 727 -60V-314C800 -371 846 -407 876 -433C907 -459 930 -465 948 -465C961 -465 963 -465 963 -467C963 -469 960 -472 955 -476L891 -528C837 -456 789 -399 727 -339V-602L753 -617C758 -621 761 -623 761 -625C761 -627 758 -628 753 -630L677 -661C679 -627 680 -577 680 -530V-50C680 33 716 34 822 34C917 34 944 24 964 -30C965 -32 965 -34 965 -35C965 -39 963 -41 959 -42C932 -54 925 -76 925 -199ZM602 -429L564 -378H525V-583L552 -601C556 -604 559 -606 559 -608C559 -609 556 -611 551 -613L475 -645C477 -610 478 -589 478 -550V-87L381 -61V-452L404 -468C409 -471 411 -474 411 -476C411 -478 409 -480 404 -481L331 -513C333 -481 334 -454 334 -389V-48L237 -22L267 29C270 33 272 35 274 35C277 35 279 33 281 30C293 14 312 4 406 -29L648 -115L643 -130L525 -99V-356H652C658 -356 661 -357 661 -359C661 -361 660 -364 657 -367Z"/>
</svg>