<svg xmlns="http://www.w3.org/2000/svg" viewBox="0 -1000 1000 1000">
	<path fill="#000000" d="M739 -675L710 -632H431L368 -683C370 -652 371 -608 371 -584V-496C371 -478 368 -398 368 -382C368 -368 370 -363 377 -363C381 -363 387 -365 396 -369C418 -378 418 -382 418 -412H719V-382C719 -374 720 -369 726 -369C729 -369 735 -371 745 -375C766 -384 771 -388 771 -399C771 -401 770 -404 770 -407C767 -436 766 -473 766 -507V-595L795 -612C801 -616 804 -618 804 -621C804 -624 801 -627 796 -631ZM418 -531V-610H719V-531ZM418 -434V-509H719V-434ZM37 -629C72 -580 86 -542 86 -508C86 -473 92 -466 105 -466C126 -466 142 -481 142 -512C142 -541 133 -569 47 -638ZM882 -779L842 -730H566C580 -735 593 -752 593 -772C593 -817 539 -838 466 -860L457 -849C498 -821 522 -788 534 -754C539 -740 543 -733 548 -730H222L165 -790C166 -755 166 -708 166 -652C166 -585 166 -504 164 -419L8 -313L58 -273C60 -271 63 -270 64 -270C67 -270 69 -272 70 -277C73 -288 85 -309 112 -337L164 -390C157 -158 116 -59 20 70L30 81C194 -99 212 -185 212 -707H929C936 -707 941 -709 941 -712C941 -715 938 -719 933 -724ZM881 -390L844 -338H290C267 -338 242 -340 217 -342L245 -306C262 -313 291 -317 312 -317H383C350 -254 238 -116 141 -30L148 -19C221 -66 292 -130 360 -208H487C452 -132 353 -30 191 40L198 54C377 -7 478 -88 545 -208H656C618 -101 511 14 336 75L341 92C551 33 638 -56 717 -208H808C806 -146 798 -85 787 -42C781 -17 772 -5 741 -5C718 -5 684 -11 630 -23L626 -7C707 17 725 36 732 69C733 74 735 77 739 77C740 77 742 76 745 75C798 54 818 32 831 -18C839 -49 852 -143 855 -191L887 -205C893 -208 896 -210 896 -213C896 -215 893 -218 888 -222L826 -266L798 -229H378C400 -257 423 -286 444 -317H929C936 -317 940 -319 940 -323C940 -327 937 -331 932 -337Z"/>
</svg>