<svg xmlns="http://www.w3.org/2000/svg" viewBox="0 -1000 1000 1000">
	<path fill="#000000" d="M836 -381L813 -346H601C626 -389 640 -393 649 -395C657 -397 660 -399 660 -401C660 -404 657 -407 649 -411L603 -439C587 -405 571 -375 556 -346H400L346 -382C347 -350 348 -292 348 -257V-51C348 -32 346 54 346 72C346 79 347 83 352 83C356 83 362 80 373 74C390 65 393 60 393 51C393 35 392 -36 392 -50V-328H546C512 -271 473 -218 421 -166L428 -158C498 -212 542 -264 588 -328H823V-18C823 6 822 17 788 17C769 17 741 13 697 7L696 20C774 36 795 52 802 79C803 85 805 87 809 87C811 87 814 86 817 85C862 64 869 48 869 2V-307L898 -330C901 -332 902 -335 902 -337C902 -339 901 -341 897 -343ZM561 -645L540 -611H444C452 -660 456 -664 479 -673C482 -674 483 -675 483 -677C483 -679 481 -681 477 -683L415 -711C413 -675 411 -648 404 -611H335C310 -611 289 -612 266 -614L294 -589C309 -593 327 -595 355 -595H401C386 -510 358 -446 253 -343L261 -333C385 -419 427 -503 442 -595H548C547 -551 545 -510 538 -481C535 -467 528 -458 496 -458C483 -458 465 -460 443 -463L441 -453C495 -439 503 -431 506 -411C507 -406 508 -404 511 -404C513 -404 516 -405 520 -408C566 -432 572 -440 579 -476C584 -503 587 -539 588 -575L621 -596C623 -597 624 -598 624 -600C624 -601 622 -603 619 -605ZM589 -232C546 -156 494 -81 425 -2L433 5C486 -36 523 -72 581 -143C653 -111 684 -83 713 -45C721 -35 729 -27 736 -27C745 -27 754 -38 754 -54C754 -106 686 -133 591 -155C617 -187 623 -189 634 -190C643 -191 647 -192 647 -195C647 -197 643 -200 636 -204ZM67 -645C94 -588 99 -556 99 -505C99 -472 106 -465 118 -465C134 -465 154 -482 154 -521C154 -551 122 -597 76 -651ZM897 -788L857 -736H255L195 -781C197 -747 199 -695 199 -665V-438L32 -304L81 -268C85 -265 88 -264 90 -264C93 -264 94 -266 94 -270C94 -286 106 -309 129 -335L199 -414C197 -185 161 -61 64 82L75 89C205 -52 245 -158 245 -490V-719H953C960 -719 963 -720 963 -723C963 -725 961 -728 958 -731ZM862 -654L840 -623H721L669 -660C670 -643 671 -629 671 -604V-512C671 -499 669 -437 669 -428C669 -422 670 -419 675 -419C679 -419 685 -421 694 -425C711 -432 713 -435 713 -445V-465H851C851 -432 851 -429 859 -429C862 -429 898 -439 898 -454C898 -459 895 -509 895 -519V-585L918 -603C921 -606 923 -608 923 -609C923 -611 921 -613 918 -615ZM713 -482V-606H851V-482ZM497 -848C540 -815 563 -779 569 -761C574 -747 586 -738 598 -738C616 -738 625 -756 625 -773C625 -822 544 -845 503 -856ZM598 -285C679 -247 730 -204 742 -180C748 -169 758 -162 765 -162C773 -162 781 -172 781 -187C781 -198 777 -212 767 -227C754 -246 694 -277 602 -294Z"/>
</svg>