<svg xmlns="http://www.w3.org/2000/svg" viewBox="0 -1000 1000 1000">
	<path fill="#000000" d="M668 -408L643 -373H311L254 -410C256 -379 257 -346 257 -315V-242C257 -227 253 -161 253 -146C253 -133 256 -128 262 -128C266 -128 272 -130 281 -134C299 -142 302 -145 302 -159V-184H660C660 -151 660 -147 667 -147C674 -147 711 -157 711 -176C711 -182 707 -232 707 -243V-340L730 -354C734 -356 736 -359 736 -361C736 -363 734 -366 729 -369ZM302 -206V-351H660V-206ZM964 -398C852 -424 754 -466 675 -548L809 -643C820 -651 841 -656 858 -657C863 -657 865 -659 865 -661C865 -663 864 -665 862 -667L809 -715C777 -673 718 -611 663 -561C638 -591 614 -624 593 -663L715 -753C724 -759 743 -765 758 -765C771 -765 773 -765 773 -768C773 -770 771 -772 767 -776L720 -823C676 -770 633 -723 585 -679C562 -724 541 -780 526 -834L510 -830C556 -601 642 -478 861 -352C864 -350 867 -348 869 -348C871 -348 873 -350 876 -353C895 -375 914 -385 964 -385ZM118 -654C170 -610 194 -563 203 -533C211 -508 214 -504 222 -504C235 -504 250 -521 250 -546C250 -551 250 -555 249 -560C244 -584 216 -618 125 -663ZM413 -798L388 -765H152C139 -765 113 -766 94 -768L116 -735C129 -741 157 -745 178 -745H387C335 -584 239 -436 32 -295L40 -284C239 -393 331 -505 437 -716C442 -726 458 -736 471 -741C477 -743 479 -745 479 -748C479 -750 477 -753 472 -756ZM572 -546L539 -501H384C365 -501 345 -503 325 -505L347 -469C361 -475 385 -479 402 -479H614C621 -479 625 -480 625 -483C625 -485 623 -489 618 -494ZM845 -30L798 22H559L625 -68C634 -80 649 -91 661 -95C666 -97 668 -99 668 -101C668 -103 666 -105 663 -107L605 -141C585 -86 562 -31 534 22H401C417 13 426 -13 426 -27C426 -47 402 -91 324 -138L317 -128C352 -97 369 -58 372 -7C373 5 373 17 380 22H120C101 22 80 21 59 18L83 54C97 48 121 44 138 44H900C907 44 911 43 911 41C911 39 908 35 904 31Z"/>
</svg>