<svg xmlns="http://www.w3.org/2000/svg" viewBox="0 -1000 1000 1000">
	<path fill="#000000" d="M312 -709L287 -667H198L251 -778C257 -792 273 -807 288 -812C294 -814 297 -816 297 -818C297 -819 295 -821 291 -823L220 -857C214 -801 200 -730 181 -667H143L92 -709C95 -679 95 -661 95 -611V-250C95 -196 94 -111 92 -55V-46C92 -30 94 -24 101 -24C105 -24 111 -26 120 -30C138 -38 140 -40 140 -54V-101H296V-55C296 -47 297 -42 303 -42C306 -42 312 -44 322 -48C342 -56 345 -60 345 -73V-82C342 -127 341 -189 341 -265V-631L372 -649C377 -652 380 -654 380 -657C380 -659 377 -662 372 -665ZM140 -414V-645H296V-414ZM140 -123V-392H296V-123ZM575 -839C622 -800 636 -753 638 -729C640 -704 646 -693 656 -693C682 -693 699 -722 699 -745C699 -765 685 -804 580 -849ZM877 -725L844 -686H472C471 -700 470 -713 467 -727H453C458 -669 425 -626 397 -594C389 -585 385 -577 385 -571C385 -562 395 -552 409 -552C422 -552 436 -558 448 -569C465 -584 473 -621 473 -664H853L798 -575L809 -567C873 -635 911 -654 937 -654C944 -654 947 -655 947 -658C947 -661 944 -665 937 -671ZM788 -567L750 -519H522C499 -519 474 -521 449 -523L477 -486C494 -493 523 -497 544 -497H838C846 -497 850 -498 850 -502C850 -505 847 -509 842 -514ZM900 -165C892 -9 884 -1 854 1C840 2 804 2 781 2C723 2 723 -10 723 -37V-333H915C923 -333 928 -335 928 -339C928 -342 925 -347 917 -355L865 -407L829 -355H443C420 -355 395 -357 370 -359L398 -322C415 -329 444 -333 465 -333H530C524 -90 485 -25 270 79L275 90C523 9 569 -79 579 -333H676V-28C676 23 676 44 771 44C927 44 931 40 958 -12C959 -14 960 -15 960 -17C960 -20 957 -23 951 -26C926 -40 917 -57 915 -165Z"/>
</svg>