<svg xmlns="http://www.w3.org/2000/svg" viewBox="0 -1000 1000 1000">
	<path fill="#000000" d="M425 -13V-274H567V-13ZM898 -66L861 -13H814V-258L845 -275C850 -278 853 -281 853 -284C853 -286 850 -290 845 -294L784 -341L752 -297H249L190 -343C191 -321 193 -270 193 -245V-13H105C82 -13 57 -15 32 -17L60 20C77 13 106 9 127 9H950C958 9 961 8 961 5C961 2 959 -1 953 -7ZM612 -13V-274H769V-13ZM238 -13V-274H380V-13ZM850 -660L809 -601H530V-758H836C843 -758 846 -759 846 -762C846 -765 844 -768 840 -772L775 -839L737 -780H221C199 -780 174 -782 151 -784L178 -748C193 -754 222 -758 242 -758H483V-601H130C108 -601 83 -603 60 -605L87 -569C102 -575 131 -579 151 -579H483V-428C483 -409 479 -400 448 -400C426 -400 390 -405 331 -414L329 -401C422 -378 444 -367 452 -334C453 -328 455 -326 458 -326C460 -326 463 -327 466 -328C524 -355 530 -370 530 -406V-579H912C919 -579 923 -580 923 -583C923 -585 920 -589 916 -593Z"/>
</svg>