<svg xmlns="http://www.w3.org/2000/svg" viewBox="0 -1000 1000 1000">
	<path fill="#000000" d="M894 -54L855 -1H814V-218L840 -235C845 -239 848 -241 848 -244C848 -247 845 -250 840 -253L781 -298L753 -257H248L189 -303C190 -277 192 -235 192 -205V-1H107C84 -1 59 -3 34 -5L62 32C79 25 108 21 129 21H953C960 21 964 19 964 16C964 14 962 10 957 6ZM430 -1V-235H574V-1ZM619 -1V-235H769V-1ZM237 -1V-235H385V-1ZM830 -680L799 -640H682L733 -753L763 -764C768 -766 770 -767 770 -770C770 -772 768 -775 764 -778L710 -822L682 -786H149C133 -786 115 -786 93 -788L117 -754C133 -761 159 -766 175 -766H298C287 -548 246 -426 50 -273L56 -262C138 -300 223 -382 275 -472C313 -540 338 -643 345 -766H692L650 -657L611 -636L656 -596C659 -593 662 -592 665 -592C667 -592 670 -593 673 -597L694 -622H807C807 -559 805 -514 800 -458C795 -403 785 -377 738 -377C717 -377 688 -383 648 -393L645 -381C709 -361 728 -347 736 -321C738 -315 741 -312 745 -312C747 -312 749 -312 752 -313C820 -333 849 -362 849 -597L882 -614C887 -617 889 -619 889 -621C889 -623 887 -626 883 -630ZM561 -651L535 -621H384C363 -621 349 -621 333 -622L356 -594C367 -598 376 -599 396 -599H541C526 -560 508 -525 484 -492C443 -512 397 -528 355 -535L349 -524C387 -510 427 -488 462 -464C412 -405 345 -354 255 -300L263 -288C369 -338 440 -385 492 -443C521 -421 545 -399 559 -382C575 -362 582 -358 591 -358C602 -358 611 -369 611 -384C611 -420 571 -449 519 -476C542 -507 562 -541 581 -581C609 -593 612 -594 612 -597C612 -599 610 -602 607 -605Z"/>
</svg>