<svg xmlns="http://www.w3.org/2000/svg" viewBox="0 -1000 1000 1000">
	<path fill="#000000" d="M885 -43L844 9H807V-218L837 -238C843 -242 845 -244 845 -247C845 -249 843 -252 837 -255L771 -299L743 -257H259L217 -288C373 -351 414 -446 440 -562H662C662 -502 659 -451 655 -417C651 -385 639 -367 590 -367C565 -367 529 -372 480 -383L477 -367C560 -348 584 -329 591 -300C592 -295 594 -293 597 -293C599 -293 601 -294 604 -295C663 -319 690 -342 697 -399C703 -449 706 -503 706 -544L736 -563C740 -566 742 -568 742 -570C742 -572 740 -574 736 -577L673 -623L650 -584H309C286 -584 261 -586 236 -588L264 -551C281 -558 310 -562 331 -562H391C370 -396 253 -319 50 -256L51 -242C112 -254 163 -268 206 -284V9H110C87 9 62 7 37 5L65 42C82 35 111 31 132 31H941C949 31 952 30 952 27C952 25 950 22 944 16ZM442 9V-234H568V9ZM620 9V-234H756V9ZM255 9V-234H391V9ZM967 -570C843 -581 686 -655 632 -774C640 -782 653 -796 653 -798C653 -801 650 -803 643 -805L569 -830C652 -661 743 -596 861 -519C865 -517 868 -515 870 -515C872 -515 874 -517 875 -519C888 -538 926 -556 967 -555ZM387 -825C308 -710 147 -561 36 -488L43 -477C151 -527 267 -621 399 -749C405 -755 414 -759 438 -759C447 -759 451 -761 451 -764C451 -767 448 -771 442 -776Z"/>
</svg>