<svg xmlns="http://www.w3.org/2000/svg" viewBox="0 -1000 1000 1000">
	<path fill="#000000" d="M320 -783L295 -743H150L93 -792C95 -761 96 -728 96 -689V-206C96 -149 95 -59 93 0V10C93 26 95 32 102 32C106 32 112 30 120 26C140 18 142 15 142 1V-73H305V-2C305 6 306 11 312 11C316 11 322 9 332 5C353 -4 357 -8 357 -22V-29C354 -74 352 -136 352 -212V-705L379 -719C385 -722 387 -725 387 -727C387 -730 385 -734 379 -738ZM142 -319V-507H305V-319ZM142 -529V-721H305V-529ZM142 -95V-297H305V-95ZM846 -831C754 -792 630 -756 407 -706L409 -694C506 -708 607 -726 782 -762C819 -770 843 -773 861 -773C866 -773 887 -770 891 -770C895 -770 897 -771 897 -773C897 -775 895 -778 891 -782ZM566 -685C618 -632 636 -590 638 -571C642 -532 648 -527 658 -527C675 -527 693 -550 693 -576C693 -583 692 -590 689 -597C681 -617 656 -648 574 -693ZM963 -35C865 -20 808 -16 753 -16C646 -16 586 -23 513 -87C509 -91 507 -94 507 -98C507 -100 508 -103 511 -106C596 -189 676 -278 803 -425C812 -436 838 -447 862 -451C871 -452 875 -454 875 -457C875 -460 872 -463 868 -467L809 -528L770 -492H468C438 -492 410 -493 381 -495L415 -458C436 -464 462 -468 486 -468H773C691 -350 597 -225 488 -110C460 -102 414 -76 359 -34L391 0C395 4 398 6 400 6C403 6 405 4 408 -2C417 -18 456 -81 481 -81C497 -81 514 -65 546 -31C577 2 625 21 732 32C776 36 828 38 870 38C885 38 889 36 891 29C898 10 914 -5 964 -24Z"/>
</svg>