<svg xmlns="http://www.w3.org/2000/svg" viewBox="0 -1000 1000 1000">
	<path fill="#000000" d="M308 -783L280 -742H157L96 -788C98 -757 99 -709 99 -685V-203C99 -146 98 -56 96 3V10C96 27 98 34 106 34C115 34 145 24 145 4V-87H291V-22C291 -14 292 -9 298 -9C302 -9 308 -11 318 -15C339 -24 342 -28 342 -41V-49C339 -94 337 -156 337 -232V-704C367 -722 370 -724 370 -729C370 -733 368 -736 363 -740ZM145 -325V-507H291V-325ZM145 -529V-720H291V-529ZM145 -109V-303H291V-109ZM712 -744C776 -697 820 -650 846 -608L453 -604C491 -634 552 -688 637 -764C649 -775 657 -779 674 -783C683 -785 687 -788 687 -791C687 -795 684 -799 677 -805L631 -845C575 -761 496 -665 455 -635C434 -620 415 -615 391 -615L422 -564C427 -555 431 -552 435 -552C437 -552 440 -553 443 -555C457 -564 475 -569 504 -571L856 -590C863 -576 868 -563 871 -551C876 -535 881 -529 891 -529C905 -529 918 -551 918 -577C918 -585 917 -593 914 -601C902 -637 844 -689 717 -754ZM888 -272L844 -219H679V-368H890C901 -368 907 -369 907 -373C907 -376 902 -381 893 -390L839 -442L795 -391H679V-495C707 -514 710 -516 710 -520C710 -523 705 -527 696 -532L628 -570C630 -533 632 -465 632 -424V-391H482C491 -404 500 -418 509 -433C520 -451 526 -457 542 -464C552 -469 556 -472 556 -476C556 -479 552 -483 543 -488L494 -515C469 -444 418 -346 366 -263L376 -253C415 -296 441 -329 467 -368H632V-219H465C442 -219 417 -221 392 -223L420 -186C437 -193 466 -197 487 -197H632V-99C632 -35 630 31 629 64C629 72 630 77 637 77C641 77 648 75 658 70C679 61 683 57 683 43V36C680 -9 679 -33 679 -109V-197H937C948 -197 953 -198 953 -202C953 -206 949 -211 941 -219Z"/>
</svg>