<svg xmlns="http://www.w3.org/2000/svg" viewBox="0 -1000 1000 1000">
	<path fill="#000000" d="M738 -374L708 -333H272L220 -374C222 -347 222 -313 222 -271V-128C222 -71 221 -14 219 45V53C219 70 221 76 227 76C231 76 236 74 243 71C263 61 266 58 266 46V19H724V61C724 71 726 76 731 76C735 76 742 73 752 68C773 57 777 52 777 40V34C774 -11 772 -69 772 -145V-302L797 -317C801 -319 804 -322 804 -324C804 -327 801 -329 796 -333ZM266 -118V-208H724V-118ZM266 -230V-311H724V-230ZM266 -3V-96H724V-3ZM971 -423C890 -440 794 -470 733 -527C782 -576 808 -618 853 -720L886 -737C892 -740 894 -742 894 -745C894 -747 892 -750 887 -753L826 -798L799 -758H610C571 -758 554 -758 540 -760L567 -731C574 -733 583 -735 601 -736C618 -647 642 -583 683 -529C627 -478 551 -431 446 -382L454 -370C570 -412 647 -451 707 -502C765 -439 876 -376 885 -376C887 -376 889 -376 890 -378C905 -399 931 -414 971 -411ZM807 -736C790 -666 759 -608 708 -553C673 -595 646 -643 618 -736ZM502 -671L466 -632H326V-720H502C508 -720 511 -721 511 -723C511 -725 509 -728 505 -732L452 -786L420 -741H326V-787C349 -803 351 -805 351 -808C351 -811 348 -813 342 -816L280 -845C282 -821 282 -799 282 -746V-632H127C104 -632 79 -633 58 -635L86 -604C101 -609 119 -610 148 -610H282V-478C282 -437 281 -406 279 -375V-370C279 -364 280 -361 285 -361C288 -361 294 -363 302 -366C326 -375 328 -379 328 -393C327 -413 326 -443 326 -479V-610H547C557 -610 562 -611 562 -614C562 -616 558 -620 552 -626ZM364 -561C416 -534 461 -495 477 -464C483 -452 489 -445 496 -445C511 -445 519 -465 519 -484C519 -489 519 -495 517 -500C509 -520 461 -548 369 -574ZM193 -566C160 -517 86 -437 27 -380L36 -372C98 -417 154 -461 184 -490C207 -512 221 -519 238 -522C245 -523 248 -524 248 -526C248 -528 247 -529 244 -531Z"/>
</svg>