<svg xmlns="http://www.w3.org/2000/svg" viewBox="0 -1000 1000 1000">
	<path fill="#000000" d="M420 -600V-756H586V-600ZM800 -579V-538C800 -525 801 -519 806 -519C806 -519 847 -535 847 -553V-558C845 -583 844 -609 844 -636V-734L886 -757C890 -759 893 -762 893 -765C893 -768 890 -771 885 -775L814 -821L785 -778H230L163 -832C165 -803 166 -770 166 -734V-607C166 -576 165 -559 163 -542V-536C163 -532 164 -530 167 -530C171 -530 178 -533 189 -539C208 -550 210 -552 210 -563V-579ZM800 -756V-600H630V-756ZM376 -756V-600H210V-756ZM487 -356H113C91 -356 66 -358 43 -360L70 -324C85 -330 114 -334 134 -334H641C628 -294 611 -261 586 -219H205C183 -219 158 -221 135 -223L162 -187C177 -193 206 -197 226 -197H484V-101H116C94 -101 69 -103 46 -105L73 -69C88 -75 117 -79 137 -79H484C484 -34 483 12 481 52V66C481 79 483 84 489 84C494 84 501 82 510 78C529 70 533 65 533 50C533 36 529 -59 529 -79H937C950 -79 957 -81 957 -86C957 -89 953 -95 944 -103L894 -152L852 -101H529V-197H852C866 -197 873 -199 873 -203C873 -207 868 -212 859 -221L813 -265L777 -219H608C659 -273 679 -287 695 -292C702 -294 706 -297 706 -300C706 -302 703 -305 699 -308L657 -334H940C952 -334 958 -336 958 -341C958 -345 954 -350 946 -358L893 -406L857 -356H532V-448H817C831 -448 838 -450 838 -454C838 -458 834 -464 825 -472L774 -520L741 -470H532V-512C551 -528 553 -529 553 -533C553 -536 550 -538 545 -540L484 -566C486 -533 487 -506 487 -470H234C212 -470 187 -472 164 -474L191 -438C206 -444 235 -448 255 -448H487ZM305 -322C343 -285 363 -264 369 -244C374 -228 380 -223 389 -223C402 -223 415 -238 415 -256C415 -262 413 -269 410 -275C401 -294 375 -313 311 -329Z"/>
</svg>