<svg xmlns="http://www.w3.org/2000/svg" viewBox="0 -1000 1000 1000">
	<path fill="#000000" d="M306 -788L278 -747H155L97 -793C99 -762 100 -714 100 -690V-208C100 -151 99 -64 97 -5V7C97 22 98 28 104 28C108 28 114 26 123 21C143 11 145 8 145 -4V-108H292V-58C292 -49 293 -44 299 -44C303 -44 309 -46 319 -51C339 -60 342 -64 342 -77V-85C339 -130 337 -190 337 -266V-708L367 -726C371 -728 373 -730 373 -732C373 -734 370 -737 365 -741ZM145 -345V-525H292V-345ZM145 -547V-725H292V-547ZM145 -130V-323H292V-130ZM908 -179C899 4 889 4 808 4C733 4 733 -4 733 -39V-343H813V-304C813 -296 814 -291 820 -291C824 -291 830 -293 840 -297C860 -306 863 -310 863 -323V-331C860 -376 858 -434 858 -510V-712L887 -727C893 -730 896 -733 896 -736C896 -739 893 -743 887 -747L826 -795L795 -751H718C695 -751 670 -753 645 -755L673 -718C690 -725 719 -729 740 -729H813V-552H739C716 -552 691 -554 666 -556L694 -520C711 -527 740 -531 761 -531H813V-365H473V-527H621C628 -527 632 -528 632 -531C632 -534 628 -539 622 -546L583 -588L546 -548H473V-711C586 -777 608 -789 620 -789C622 -789 629 -787 630 -787C634 -787 636 -789 636 -791C636 -792 634 -795 631 -798L581 -845C554 -812 516 -770 474 -734L425 -783C427 -748 428 -682 428 -644V-444C428 -421 426 -321 426 -301C426 -286 427 -280 434 -280C438 -280 444 -282 453 -286C471 -294 473 -298 473 -310V-343H553C552 -121 463 -16 267 74L271 86C458 32 587 -62 600 -343H687V-21C687 33 696 44 812 44C917 44 923 43 959 -24C960 -26 961 -28 961 -30C961 -33 958 -35 952 -38C926 -51 922 -63 923 -179Z"/>
</svg>