<svg xmlns="http://www.w3.org/2000/svg" viewBox="0 -1000 1000 1000">
	<path fill="#000000" d="M891 -443L856 -392H795V-562H917C927 -562 932 -563 932 -566C932 -569 928 -573 920 -581L862 -634L826 -582H647V-724C690 -730 730 -736 765 -743C792 -748 815 -751 834 -751C847 -751 858 -749 867 -747C871 -746 874 -745 876 -745C878 -745 879 -746 879 -747C879 -749 877 -753 873 -759L839 -806C729 -768 520 -727 395 -713L397 -699C459 -703 533 -710 602 -718V-582H422C401 -582 378 -584 355 -586L381 -551C405 -562 438 -562 461 -562V-392H399C378 -392 355 -394 332 -396L358 -361C373 -368 400 -372 420 -372H461V-175H412C391 -175 368 -177 345 -179L371 -144C386 -151 413 -155 433 -155H602V1H433C412 1 389 -1 366 -3L392 32C407 25 434 21 454 21H887C896 21 901 19 901 15C901 12 897 7 890 0L835 -54L796 1H647V-155H918C928 -155 932 -156 932 -159C932 -162 929 -167 921 -175L870 -229L828 -175H795V-372H941C951 -372 955 -373 955 -376C955 -379 952 -383 944 -391ZM647 -392V-562H751V-392ZM505 -392V-562H602V-392ZM647 -175V-372H751V-175ZM505 -175V-372H602V-175ZM288 -776L259 -735H148L91 -784C93 -754 94 -708 94 -685V-195C94 -140 93 -54 91 3V15C91 28 92 34 99 34C108 34 139 24 139 4V-87H276V-35C276 -27 277 -23 283 -23C287 -23 293 -25 302 -28C322 -37 326 -41 326 -55V-61C323 -104 321 -164 321 -237V-698L347 -714C353 -718 355 -720 355 -723C355 -726 353 -729 347 -733ZM139 -322V-508H276V-322ZM139 -528V-715H276V-528ZM139 -107V-302H276V-107Z"/>
</svg>