<svg xmlns="http://www.w3.org/2000/svg" viewBox="0 -1000 1000 1000">
	<path fill="#000000" d="M262 -768L236 -732H144L87 -780C89 -749 90 -714 90 -677V-215C90 -158 89 -68 87 -9V2C87 17 88 22 95 22C99 22 104 20 112 17C132 9 134 6 134 -8V-86H247V-36C247 -25 249 -20 254 -20C258 -20 264 -23 274 -29C293 -40 297 -44 297 -57V-63C294 -108 292 -170 292 -246V-696L311 -708C316 -711 318 -713 318 -715C318 -718 316 -721 310 -726ZM134 -324V-511H247V-324ZM134 -532V-711H247V-532ZM134 -107V-303H247V-107ZM666 -213L569 -186V-596H646C653 -596 657 -597 657 -600C657 -603 654 -608 648 -615L613 -657L585 -617H510L555 -744L582 -755C588 -758 591 -760 591 -762C591 -765 588 -768 582 -772L531 -810L510 -782H409C386 -782 361 -784 336 -786L364 -750C381 -757 410 -761 431 -761H519L471 -617H375C352 -617 327 -619 302 -621L328 -587C344 -593 357 -596 371 -596V-130L302 -111L333 -69C336 -64 339 -62 341 -62C345 -62 348 -65 354 -72C363 -82 378 -90 525 -145V-98C525 -74 523 30 523 51C523 68 525 75 531 75C535 75 541 72 550 67C568 56 572 53 572 39V33C570 -7 569 -46 569 -96V-162L668 -199ZM415 -325V-452H525V-325ZM415 -473V-596H525V-473ZM415 -142V-304H525V-173ZM940 -597C950 -597 955 -598 955 -602C955 -605 951 -610 943 -618L896 -666L860 -618H720C740 -666 756 -712 767 -751C772 -770 778 -777 790 -781C801 -785 806 -787 806 -791C806 -794 802 -797 794 -803L740 -841C716 -692 644 -502 584 -387L595 -377C623 -414 655 -472 684 -534C686 -381 698 -277 736 -184C698 -104 645 -38 575 34L585 43C660 -21 714 -77 754 -144C792 -70 866 20 874 20C876 20 878 19 881 16C890 9 903 5 922 5C933 5 946 6 961 9L963 -2C877 -44 817 -106 776 -187C819 -281 841 -402 854 -597ZM809 -597C806 -436 789 -323 756 -232C719 -323 703 -435 698 -566C703 -576 707 -587 711 -597Z"/>
</svg>