<svg xmlns="http://www.w3.org/2000/svg" viewBox="0 -1000 1000 1000">
	<path fill="#000000" d="M991 -435C907 -456 846 -490 801 -537C872 -596 896 -607 922 -609C927 -609 929 -610 929 -612C929 -614 927 -617 921 -621L872 -657C857 -632 817 -582 789 -551C755 -591 732 -640 716 -696H951C956 -696 958 -697 958 -700C958 -702 957 -704 954 -707L895 -767L849 -717H637C645 -735 652 -754 660 -773C666 -789 680 -799 699 -803C704 -804 706 -805 706 -807C706 -809 703 -812 697 -816L632 -854C620 -807 606 -761 588 -717H457C438 -717 424 -718 391 -720L424 -691C445 -695 457 -696 475 -696H580C561 -650 539 -605 515 -562C514 -587 488 -616 417 -644L408 -633C433 -617 453 -590 468 -546C473 -531 485 -525 495 -528C449 -453 397 -386 343 -328L351 -318C396 -353 438 -396 479 -447V-311C479 -293 475 -216 475 -200C475 -191 477 -187 485 -187C490 -187 497 -189 508 -193C519 -197 522 -199 522 -206V-236H628V-19C628 -4 622 4 589 4C569 4 537 0 489 -7L486 10C568 26 589 40 600 73C603 81 604 84 608 84C609 84 612 83 615 81C666 53 673 38 673 -5V-236H789V-198C789 -191 791 -187 795 -187C800 -187 836 -207 836 -215V-217C832 -241 831 -266 831 -304V-455C842 -445 896 -395 907 -395C909 -395 911 -396 912 -398C924 -414 947 -421 991 -421ZM522 -384V-488H789V-384ZM524 -509C561 -563 595 -625 628 -696H696C707 -630 734 -569 781 -509ZM522 -257V-363H789V-257ZM306 -776L279 -733H164L107 -781C109 -750 110 -702 110 -678V-220C110 -163 109 -73 107 -14V-4C107 12 109 17 115 17C123 17 155 8 155 -13V-112H291V-48C291 -39 292 -35 298 -35C302 -35 307 -37 316 -41C336 -51 341 -55 341 -66C341 -69 340 -72 340 -75C336 -121 336 -182 336 -258V-692L367 -713C372 -716 375 -719 375 -722C375 -725 372 -728 367 -732ZM155 -335V-513H291V-335ZM155 -535V-711H291V-535ZM155 -134V-313H291V-134ZM726 -146C812 -94 859 -40 889 7C897 20 911 34 919 34C936 34 945 17 945 -3C945 -79 775 -141 731 -157ZM508 -178C470 -128 339 10 287 52L301 63C357 27 410 -16 513 -109C526 -120 548 -128 568 -130C572 -130 574 -131 574 -133C574 -135 571 -137 566 -141Z"/>
</svg>