<svg xmlns="http://www.w3.org/2000/svg" viewBox="0 -1000 1000 1000">
	<path fill="#000000" d="M830 -826L806 -794H607L559 -838C561 -807 562 -759 562 -735V-625C562 -568 561 -549 559 -490V-479C559 -465 560 -460 567 -460C570 -460 575 -461 582 -464C602 -472 604 -475 604 -488H813V-457C813 -449 814 -445 820 -445C823 -445 828 -447 835 -450C855 -459 858 -463 858 -476V-484C856 -529 855 -549 855 -625V-758L878 -770C882 -772 884 -775 884 -778C884 -781 882 -785 878 -788ZM604 -608V-684H813V-608ZM604 -703V-775H813V-703ZM604 -507V-589H813V-507ZM490 -491C521 -447 539 -409 541 -389C543 -373 547 -369 554 -369C569 -369 585 -387 585 -409C585 -443 533 -479 497 -498ZM425 -830L403 -797H214L162 -842C164 -811 165 -763 165 -739V-592C165 -573 162 -478 162 -457C162 -441 164 -435 171 -435C174 -435 179 -437 185 -439C205 -447 207 -450 207 -464V-492H412V-460C412 -452 413 -448 419 -448C422 -448 427 -450 434 -453C454 -462 457 -466 457 -479V-487C455 -532 454 -552 454 -628V-763L473 -775C478 -778 481 -781 481 -784C481 -787 478 -790 473 -794ZM207 -612V-688H412V-612ZM207 -707V-778H412V-707ZM207 -511V-593H412V-511ZM891 -84L855 -36H570V-131H836C848 -131 853 -132 853 -136C853 -139 849 -144 840 -152L788 -198L752 -151H570V-243H835C847 -243 852 -245 852 -249C852 -252 848 -257 839 -265L786 -308L751 -263H570V-344H890C902 -344 907 -346 907 -350C907 -353 903 -358 894 -366L844 -409L809 -364H291C333 -410 343 -418 360 -424C367 -426 370 -429 370 -432C370 -435 366 -440 358 -446L315 -477C247 -373 147 -256 40 -149L48 -139C106 -181 158 -227 219 -288V-127C219 -75 218 -18 216 41V49C216 66 218 72 225 72C229 72 234 70 242 67C263 58 266 54 266 41C266 32 263 -8 263 -16H936C946 -16 951 -18 951 -22C951 -25 947 -30 940 -37ZM262 -151V-243H525V-151ZM262 -263V-333L272 -344H525V-263ZM262 -36V-131H525V-36Z"/>
</svg>