<svg xmlns="http://www.w3.org/2000/svg" viewBox="0 -1000 1000 1000">
	<path fill="#000000" d="M636 -727C675 -697 713 -654 739 -619L242 -612C333 -675 412 -731 462 -767C479 -779 488 -783 505 -783C522 -783 524 -783 524 -787C524 -790 521 -794 515 -799L463 -848C388 -754 329 -699 247 -640C228 -627 184 -616 154 -614L189 -553C191 -549 193 -547 196 -547C198 -547 201 -548 206 -551C221 -560 271 -569 358 -575L749 -604C758 -589 765 -576 768 -567C777 -538 789 -525 803 -525C816 -525 830 -548 830 -575C830 -580 829 -586 828 -592C821 -620 752 -676 645 -739ZM949 17C772 -9 608 -85 543 -239H918C927 -239 931 -242 931 -246C931 -250 928 -255 922 -261L860 -320L817 -261H502C514 -306 523 -357 528 -416H797C805 -416 810 -419 810 -423C810 -426 807 -431 801 -436L739 -494L697 -436H291C300 -445 308 -455 317 -465C333 -483 349 -493 361 -496C371 -498 376 -501 376 -504C376 -506 374 -509 368 -512L305 -552C275 -487 234 -424 137 -298L147 -290C194 -334 233 -373 273 -416H473C470 -357 463 -307 452 -261H122C99 -261 74 -263 49 -265L77 -228C94 -235 123 -239 144 -239H445C401 -100 297 -17 74 74L79 86C314 17 439 -61 495 -239H525C566 -98 665 -11 835 71C837 72 840 73 842 73C845 73 848 71 850 68C862 46 899 25 949 28Z"/>
</svg>