<svg xmlns="http://www.w3.org/2000/svg" viewBox="0 -1000 1000 1000">
	<path fill="#000000" d="M375 -812L337 -761H103C80 -761 55 -763 30 -765L58 -728C75 -735 104 -739 125 -739H213C176 -584 100 -392 21 -264L32 -255C77 -310 104 -354 146 -438V-175C146 -131 145 -98 143 -57V-41C143 -28 144 -22 150 -22C155 -22 161 -25 171 -31C188 -41 191 -46 191 -56V-135H306V-60C306 -51 308 -46 314 -46C318 -46 324 -48 333 -53C353 -64 357 -69 357 -81V-87C354 -132 352 -182 352 -233V-471L374 -486C378 -489 381 -491 381 -494C381 -496 378 -499 372 -503L317 -538L293 -504H177C215 -587 247 -670 268 -739H425C434 -739 439 -741 439 -746C439 -750 436 -755 429 -761ZM191 -157V-482H306V-157ZM899 -527L869 -483H822L838 -739L871 -755C875 -757 877 -760 877 -763C877 -766 875 -770 871 -773L814 -824L783 -783H530C507 -783 482 -785 457 -787L485 -750C502 -757 531 -761 552 -761H799L789 -632H542C519 -632 494 -634 469 -636L497 -599C514 -606 543 -610 564 -610H788L778 -483H476C453 -483 428 -485 403 -487L431 -450C448 -457 477 -461 498 -461H643V-272L384 -138L431 -101C433 -100 435 -99 437 -99C440 -99 443 -101 446 -105C454 -118 478 -140 515 -166L643 -256V-33C643 -15 641 -6 615 -6C595 -6 561 -11 501 -23L498 -10C579 12 604 33 608 62C609 67 611 69 614 69C616 69 618 68 621 67C678 37 689 22 689 -16V-461H943C952 -461 956 -463 956 -467C956 -470 953 -475 946 -482ZM434 -405C488 -348 505 -315 513 -284C519 -259 522 -255 529 -255C546 -255 561 -272 561 -295C561 -348 480 -394 440 -413ZM857 -330C871 -339 883 -344 895 -344C909 -344 912 -344 912 -348C912 -350 909 -354 904 -359L860 -402C824 -356 797 -327 751 -284C733 -324 721 -362 706 -421L693 -420C718 -232 783 -136 873 -50C876 -48 878 -46 880 -46C882 -46 884 -48 886 -50C897 -63 927 -80 968 -75L971 -86C872 -112 806 -172 759 -267Z"/>
</svg>