<svg xmlns="http://www.w3.org/2000/svg" viewBox="0 -1000 1000 1000">
	<path fill="#000000" d="M361 -778L328 -734H104C81 -734 56 -736 31 -738L59 -701C76 -708 105 -712 126 -712H198C170 -563 108 -384 32 -255L44 -247C71 -286 105 -338 140 -408V-119C140 -75 139 -50 136 -26C135 -21 135 -16 135 -13C135 -7 136 -4 140 -4C144 -4 151 -7 162 -14C179 -25 183 -29 183 -41V-133H294V-80C294 -67 295 -62 300 -62C304 -62 310 -65 319 -70C339 -81 343 -87 343 -101V-107C341 -141 340 -174 340 -208V-441C350 -448 366 -459 366 -462C366 -465 364 -467 358 -472L308 -511L283 -472H170C206 -556 236 -646 253 -712H404C414 -712 420 -714 420 -718C420 -721 416 -727 408 -734ZM183 -155V-450H294V-155ZM827 -794C829 -762 830 -745 830 -718V-618H685V-790C707 -805 709 -807 709 -810C709 -812 706 -815 699 -819L636 -855C638 -826 639 -809 639 -786V-618H499V-739C504 -742 528 -755 528 -758C528 -761 524 -763 518 -767L453 -803C455 -774 456 -757 456 -734V-632L424 -605L477 -570C482 -567 485 -565 488 -565C491 -565 493 -568 510 -596H830V-559C830 -551 831 -546 836 -546C840 -546 879 -559 879 -574V-576C877 -594 876 -614 876 -639V-728L893 -740C899 -744 902 -747 902 -750C902 -753 898 -756 892 -759ZM876 -510L836 -455H561C568 -475 574 -497 581 -519C609 -534 612 -536 612 -540C612 -543 609 -546 603 -550L542 -587C535 -544 527 -500 515 -455H455C432 -455 407 -457 382 -459L410 -422C427 -429 456 -433 477 -433H509C466 -272 390 -102 269 40L279 51C391 -54 470 -174 554 -433H928C938 -433 943 -435 943 -439C943 -442 939 -448 932 -455ZM571 -330C566 -259 549 -216 523 -194C509 -182 504 -173 504 -165C504 -162 506 -148 522 -148C536 -148 556 -158 569 -179C581 -198 587 -227 587 -275C587 -291 587 -310 585 -331ZM838 -246C865 -268 873 -271 890 -272C897 -273 900 -274 900 -277C900 -279 898 -283 893 -287L847 -330C822 -283 786 -236 744 -190C729 -234 719 -282 713 -335C713 -338 714 -341 714 -344L741 -363C747 -367 750 -370 750 -373C750 -376 747 -379 740 -381L673 -404C671 -177 640 -29 367 81L372 93C625 12 680 -103 706 -278C730 -92 786 -17 863 56C866 59 869 61 872 61C875 61 878 59 881 55C892 42 907 34 939 34C948 34 958 35 970 36L971 25C857 -6 789 -76 750 -174Z"/>
</svg>