<svg xmlns="http://www.w3.org/2000/svg" viewBox="0 -1000 1000 1000">
	<path fill="#000000" d="M222 -577V-709H411V-577ZM426 -767L399 -731H289C317 -788 336 -804 353 -808C357 -809 360 -811 360 -813C360 -815 358 -817 354 -819L296 -851L268 -731H235L176 -774C177 -757 179 -734 179 -718V-577H106C85 -577 67 -578 46 -581L72 -545C89 -552 105 -555 130 -555H179C178 -443 141 -379 52 -296L62 -287C170 -359 219 -440 222 -555H411V-402C411 -392 409 -386 389 -386C372 -386 342 -390 290 -400L287 -386C354 -368 366 -360 378 -326C379 -322 381 -320 385 -320C387 -320 390 -321 393 -322C451 -347 455 -358 455 -398V-699L478 -713C481 -715 483 -717 483 -720C483 -723 481 -726 477 -729ZM268 -547C295 -509 304 -486 305 -463C306 -436 310 -432 321 -432C334 -432 353 -450 353 -472C353 -496 332 -519 278 -553ZM963 -371C878 -375 793 -389 726 -419C761 -449 786 -479 811 -512C821 -525 830 -533 844 -536C849 -537 852 -539 852 -542C852 -544 850 -546 848 -549L807 -593L783 -569H586C567 -569 551 -570 533 -572L557 -540L567 -543C595 -495 634 -446 668 -419C608 -374 531 -337 452 -307L457 -294C555 -320 633 -348 699 -398C764 -357 876 -316 882 -316C886 -316 889 -318 890 -321C903 -343 921 -355 963 -361ZM785 -547C761 -508 733 -474 691 -437C651 -462 609 -503 584 -546C590 -547 596 -547 604 -547ZM832 -303L802 -265H167C144 -265 119 -267 94 -269L122 -232C139 -239 168 -243 189 -243H365C293 -156 169 -52 39 23L45 36C134 -3 217 -53 296 -118V-20C296 13 295 48 292 75V81C292 86 293 88 297 88C301 88 309 85 321 79C338 70 340 67 340 55V20H743V76C743 85 745 90 751 90C754 90 759 89 766 85C785 76 790 71 790 59V52C788 30 787 7 787 -22V-113C815 -128 818 -130 818 -135C818 -138 816 -142 811 -145L751 -185L724 -148H332C366 -178 407 -216 434 -243H875C882 -243 886 -247 886 -252C886 -256 884 -260 879 -264ZM340 -2V-126H743V-2ZM794 -744C818 -757 821 -759 821 -762C821 -764 819 -766 816 -768L766 -805L739 -771H627L581 -810C581 -661 572 -627 476 -560L483 -549C572 -589 620 -632 624 -749H750V-663C750 -618 762 -604 854 -604C881 -604 956 -606 956 -616C956 -621 932 -647 924 -655C901 -647 869 -642 836 -642C805 -642 794 -651 794 -667ZM263 -697C284 -674 298 -647 302 -625C306 -603 310 -599 317 -599C329 -599 344 -615 344 -636C344 -639 344 -642 343 -646C339 -665 325 -679 272 -706Z"/>
</svg>