<svg xmlns="http://www.w3.org/2000/svg" viewBox="0 -1000 1000 1000">
	<path fill="#000000" d="M685 -471L659 -430H514L455 -469C457 -438 458 -416 458 -374V-215C458 -201 454 -138 454 -126C454 -117 456 -113 462 -113C472 -113 503 -123 503 -144V-189H668V-138C668 -128 670 -123 675 -123C679 -123 686 -126 695 -131C712 -141 716 -145 716 -157V-163C714 -194 713 -215 713 -252V-392L742 -410C746 -413 748 -415 748 -418C748 -420 746 -423 742 -426ZM503 -211V-408H668V-211ZM172 -830C231 -779 245 -747 252 -711C258 -681 261 -678 274 -678C285 -678 312 -693 312 -724C312 -764 279 -797 179 -839ZM738 -641L700 -586H466C443 -586 418 -588 393 -590L421 -553C438 -560 467 -564 488 -564H797C804 -564 808 -565 808 -567C808 -570 805 -573 800 -578ZM864 -805L830 -757H493C470 -757 445 -758 420 -761L448 -724C465 -731 494 -735 515 -735H845V-35C845 -13 843 -4 804 -4C781 -4 746 -7 693 -12V4C786 22 804 33 815 71C817 77 819 80 823 80C825 80 827 79 830 78C891 51 892 42 892 -11V-721L925 -740C930 -743 933 -745 933 -748C933 -750 930 -753 925 -757ZM277 -459C295 -488 314 -519 334 -554C346 -574 358 -583 375 -591C382 -594 385 -597 385 -599C385 -602 383 -604 378 -608L324 -653L293 -612H118C95 -612 70 -614 45 -616L73 -576C90 -583 119 -587 140 -587H296C229 -452 149 -325 44 -207L52 -196C128 -262 181 -318 234 -394V-130C234 -77 233 -17 231 42V50C231 67 233 74 240 74C245 74 251 72 259 68C276 61 279 56 279 42V35C277 -10 277 -59 277 -128V-425C328 -396 354 -355 370 -323C379 -306 383 -303 391 -303C403 -303 415 -320 415 -341C415 -387 362 -412 277 -440Z"/>
</svg>