<svg xmlns="http://www.w3.org/2000/svg" viewBox="0 -1000 1000 1000">
	<path fill="#000000" d="M624 -847C584 -749 449 -534 338 -433L346 -424C454 -502 515 -577 644 -769C647 -774 651 -779 657 -783C693 -650 766 -550 880 -463C885 -460 889 -458 892 -458C895 -458 898 -460 901 -464C917 -483 932 -493 973 -496L974 -507C837 -532 727 -640 669 -792C676 -796 683 -799 690 -801C698 -803 701 -805 701 -808C701 -810 698 -813 693 -815ZM583 -612C626 -564 631 -538 636 -496C637 -484 643 -477 656 -477C669 -477 687 -497 687 -520C687 -558 637 -592 589 -619ZM762 -484L732 -450L517 -447C495 -447 483 -448 457 -451L489 -414C504 -421 517 -424 548 -425L732 -428L638 -276L690 -271C727 -337 746 -368 770 -403C776 -412 798 -426 814 -429C821 -431 826 -433 826 -435C826 -438 823 -441 816 -446ZM370 -610L335 -563H264V-737C281 -741 356 -757 372 -757C384 -757 397 -756 407 -753C410 -752 412 -752 414 -752C417 -752 418 -753 418 -755C418 -757 416 -761 412 -767L377 -816C312 -790 255 -771 64 -721L67 -708C128 -716 175 -722 218 -729V-563H137C114 -563 89 -565 64 -567L92 -530C109 -537 138 -541 159 -541H218V-526C175 -385 108 -260 26 -139L37 -131C109 -220 169 -315 218 -423V-157C218 -100 216 -13 213 45V59C213 72 215 77 221 77C226 77 233 75 242 71C263 62 266 58 266 45V37C264 -8 264 -79 264 -155V-424C305 -390 324 -356 336 -322C342 -307 349 -297 359 -297C372 -297 384 -314 384 -335C384 -377 325 -412 264 -441V-541H407C415 -541 419 -542 419 -546C419 -548 417 -552 412 -558ZM601 -246C640 -196 653 -147 656 -113C657 -97 662 -92 676 -92C693 -92 707 -110 707 -132C707 -135 707 -139 706 -142C701 -167 677 -202 609 -255ZM788 -227C863 -159 889 -117 900 -78C906 -59 910 -53 922 -53C933 -53 949 -74 949 -101C949 -143 916 -177 794 -235ZM397 -211C389 -125 356 -82 330 -60C321 -52 317 -44 317 -36C317 -21 330 -15 343 -15C385 -15 413 -61 413 -161C413 -176 412 -193 411 -210ZM781 -143C781 -18 771 -1 731 3C712 5 668 7 635 7C538 7 538 -10 538 -25V-196C569 -214 573 -216 573 -219C573 -222 569 -225 561 -229L490 -261C492 -234 493 -214 493 -168V-22C493 43 517 44 654 44C807 44 815 30 837 -13C839 -16 839 -18 839 -20C839 -22 837 -25 833 -27C809 -40 795 -67 795 -143Z"/>
</svg>