<svg xmlns="http://www.w3.org/2000/svg" viewBox="0 -1000 1000 1000">
	<path fill="#000000" d="M904 -163L867 -112H654V-206H893C899 -206 901 -207 901 -209C901 -210 900 -212 896 -216L843 -267L804 -224H654V-317H745V-285C745 -279 746 -275 750 -275C755 -275 794 -288 794 -306V-309C791 -343 790 -373 790 -408V-510C814 -527 817 -529 817 -533C817 -536 815 -539 811 -542L758 -588L730 -552H274L225 -583C228 -559 228 -525 228 -481V-372C228 -360 225 -306 225 -295C225 -285 227 -280 233 -280C233 -280 271 -288 271 -306V-317H365V-224H166C147 -224 126 -226 107 -228L130 -197C142 -203 166 -206 183 -206H365V-112H99C80 -112 59 -114 40 -116L63 -85C75 -91 99 -94 116 -94H960C965 -94 967 -94 967 -96C967 -97 966 -99 963 -102ZM529 -335V-425H745V-335ZM271 -335V-425H487V-335ZM407 -224V-317H612V-224ZM529 -443V-534H745V-443ZM271 -443V-534H487V-443ZM407 -112V-206H612V-112ZM921 -737C904 -660 897 -653 852 -644C831 -640 767 -638 673 -638C631 -638 621 -647 621 -657V-705L850 -748C857 -749 867 -750 878 -750C882 -750 897 -749 901 -749C904 -749 906 -750 906 -752C906 -754 904 -756 902 -759L866 -800C807 -777 695 -741 621 -722V-798L644 -813C648 -816 651 -818 651 -821C651 -823 648 -825 643 -827L574 -853C576 -832 577 -808 577 -779V-654C577 -614 598 -603 659 -603C685 -603 826 -608 854 -609C948 -614 959 -653 959 -655C959 -658 957 -661 953 -663C938 -672 933 -686 933 -737ZM385 -848C386 -827 387 -806 387 -781V-748H151C128 -748 103 -750 78 -752L106 -719C123 -726 152 -730 173 -730H387V-665L59 -623L88 -581C90 -578 92 -576 95 -576C98 -576 101 -578 105 -580C120 -590 144 -600 158 -603L387 -651V-591C387 -586 388 -583 393 -583C397 -583 402 -585 411 -588C429 -595 433 -598 433 -607V-610C432 -622 431 -637 431 -678V-795L451 -807C455 -810 457 -812 457 -813C457 -815 455 -817 451 -819ZM598 -53C719 -24 811 16 862 60C883 78 887 80 892 80C905 80 913 67 913 51C913 37 907 20 894 9C867 -15 791 -40 602 -66ZM394 -78C300 -4 159 52 73 81L76 93C181 67 286 30 384 -17C397 -23 417 -27 435 -28C439 -28 441 -30 441 -32C441 -34 440 -36 438 -38Z"/>
</svg>