<svg xmlns="http://www.w3.org/2000/svg" viewBox="0 -1000 1000 1000">
	<path fill="#000000" d="M837 -454L811 -420H465C442 -420 417 -422 392 -424L420 -388C437 -394 466 -397 487 -397H821V-317H496C473 -317 448 -319 423 -321L451 -287C466 -293 483 -293 518 -293H821V-222H447C424 -222 399 -224 374 -226L402 -188C419 -195 448 -199 469 -199H821V-172C821 -165 822 -161 828 -161C832 -161 838 -163 847 -166C864 -172 867 -176 867 -186V-193C865 -224 864 -264 864 -297V-382L892 -396C898 -399 900 -401 900 -403C900 -406 898 -409 892 -413ZM557 -187C590 -157 612 -123 617 -91C622 -62 626 -57 636 -57C655 -57 672 -72 672 -99C672 -112 672 -146 567 -197ZM858 -830C760 -808 544 -777 422 -765L424 -752C507 -752 723 -768 786 -774C805 -776 822 -777 837 -777C859 -777 879 -775 902 -770C908 -769 912 -768 914 -768C916 -768 917 -768 917 -769C917 -771 915 -773 910 -778ZM596 -741C619 -713 630 -677 630 -650C630 -631 636 -619 646 -619C663 -619 682 -639 682 -661C682 -682 666 -715 605 -748ZM429 -724C459 -702 481 -669 487 -646C493 -623 498 -612 508 -612C525 -612 538 -625 538 -647C538 -669 532 -697 437 -734ZM904 -541L868 -500H659V-575H903C913 -575 917 -577 917 -580C917 -584 914 -589 906 -596L864 -636L831 -598H730C814 -689 841 -712 869 -721C876 -724 879 -725 879 -727C879 -729 876 -731 870 -733L813 -759C781 -705 737 -637 709 -598H500C477 -598 452 -600 427 -602L455 -564C472 -571 501 -575 522 -575H616V-500H416C393 -500 368 -502 343 -504L371 -466C388 -473 417 -477 438 -477H947C957 -477 962 -479 962 -482C962 -486 958 -491 950 -499ZM353 -829C254 -792 212 -779 51 -743L54 -730C109 -735 150 -739 195 -746V-561H109C86 -561 61 -563 36 -565L64 -531C81 -538 110 -542 131 -542H190C165 -429 86 -244 28 -150L40 -139C99 -210 154 -314 195 -413V-172C195 -115 193 -24 190 34C190 40 189 45 189 49C189 61 191 66 198 66C202 66 209 64 218 60C237 52 240 48 240 35V26C238 -19 238 -94 238 -170V-452C273 -426 298 -387 307 -360C315 -335 323 -328 332 -328C349 -328 361 -350 361 -367C361 -384 345 -427 238 -467V-542H381C391 -542 396 -543 396 -546C396 -549 392 -553 385 -560L339 -602L305 -561H238V-754C251 -757 339 -774 356 -774C367 -774 377 -773 385 -770C390 -768 394 -767 396 -767C397 -767 398 -767 398 -768C398 -771 395 -775 390 -782ZM392 -161C377 -96 355 -60 310 -30C296 -21 291 -10 291 -1C291 16 305 26 322 26C329 26 338 24 346 19C379 1 405 -47 406 -158ZM793 -133C842 -96 880 -40 889 -6C895 17 899 24 909 24C927 24 945 12 945 -27V-30C944 -61 899 -100 799 -144ZM756 -114C746 0 738 10 707 13C687 15 670 16 649 16C628 16 603 15 566 13C511 10 502 5 502 -18V-115L531 -133C536 -136 538 -138 538 -140C538 -142 536 -144 531 -145L459 -170C460 -149 461 -112 461 -85V-11C461 32 473 43 522 46C597 50 660 51 709 51C775 51 784 46 805 1C807 -2 807 -4 807 -6C807 -9 805 -11 801 -12C778 -20 771 -31 773 -114Z"/>
</svg>