<svg xmlns="http://www.w3.org/2000/svg" viewBox="0 -1000 1000 1000">
	<path fill="#000000" d="M757 -609L728 -575H556C541 -575 524 -576 507 -578L525 -546C537 -551 557 -554 571 -554H738V-470H558C543 -470 526 -472 509 -474L528 -442C539 -447 559 -449 573 -449H738V-356H224V-447H465C471 -447 474 -448 474 -451C474 -453 472 -456 468 -460L419 -511L381 -468H224V-528C428 -573 455 -579 468 -579C475 -579 478 -579 478 -581C478 -582 477 -584 475 -586L431 -629C395 -606 287 -564 229 -548L177 -579C179 -552 180 -502 180 -472V-397C180 -385 178 -330 178 -319C178 -309 180 -305 187 -305C190 -305 194 -306 200 -307C224 -312 224 -316 224 -335H738C738 -315 738 -313 743 -313C747 -313 787 -324 787 -339V-342C785 -377 784 -406 784 -449V-541L814 -553C818 -555 819 -556 819 -558C819 -560 818 -562 814 -565ZM565 -305C590 -289 620 -249 630 -225C638 -205 643 -201 650 -201C665 -201 678 -219 678 -237C678 -246 675 -255 668 -263C655 -278 617 -300 572 -315ZM281 -302C320 -277 340 -243 342 -233C347 -206 353 -198 363 -198C380 -198 392 -217 392 -237C392 -246 389 -255 383 -262C373 -274 337 -297 287 -312ZM411 -73L224 -10V-254C245 -267 247 -268 247 -271C247 -273 244 -275 239 -277L180 -299V-19C180 -11 168 2 141 17L178 62C181 65 183 67 185 67C187 67 189 65 192 62C212 39 245 19 415 -59ZM894 -793L856 -753H175C175 -768 174 -784 172 -803H159C155 -741 133 -705 86 -674C73 -666 67 -657 67 -649C67 -642 76 -624 97 -624C109 -624 124 -630 138 -642C162 -662 174 -686 175 -732H861L812 -672L825 -665C881 -702 925 -717 952 -717C954 -717 963 -716 965 -716C967 -716 967 -716 967 -717C967 -718 966 -721 963 -724ZM377 -717C295 -664 201 -621 57 -564L59 -552C176 -582 291 -622 400 -667C412 -672 424 -673 437 -673C439 -673 440 -674 440 -675C440 -676 439 -677 437 -679ZM581 -695C750 -636 790 -613 838 -570C851 -558 861 -552 869 -552C879 -552 890 -564 890 -580C890 -594 883 -610 864 -622C830 -645 730 -682 583 -707ZM419 -862C456 -837 483 -808 492 -778C498 -758 503 -754 516 -754C538 -754 550 -774 550 -793C550 -834 503 -853 425 -873ZM251 -187C292 -158 309 -138 316 -117C324 -94 328 -85 337 -85C355 -85 368 -107 368 -126C368 -160 319 -177 258 -198ZM535 -182C582 -150 604 -122 608 -105C612 -86 619 -81 627 -81C645 -81 657 -97 657 -116C657 -152 623 -169 541 -194ZM707 -66L502 -6V-268C513 -274 532 -283 532 -285C532 -287 529 -289 522 -292L456 -321V-27C456 -9 445 6 420 18L455 65C457 67 459 69 461 69C463 69 466 67 468 65C488 44 524 23 545 15L711 -49ZM935 -164L896 4C798 -25 761 -114 767 -258L793 -272C796 -273 797 -275 797 -277C797 -279 796 -280 792 -282L714 -316C720 -55 773 -7 857 38C897 59 925 67 943 67C958 67 965 61 965 52C965 48 963 43 960 38C951 26 940 1 940 -54C940 -82 943 -117 950 -161Z"/>
</svg>