<svg xmlns="http://www.w3.org/2000/svg" viewBox="0 -1000 1000 1000">
	<path fill="#000000" d="M516 -278L481 -238H345C352 -243 355 -252 355 -261C355 -285 327 -301 302 -315H448C449 -285 450 -282 455 -282C459 -282 465 -284 473 -288C490 -296 496 -300 496 -312C496 -331 492 -362 492 -381V-499C517 -510 520 -512 520 -515C520 -517 518 -519 514 -522L463 -563L435 -527H300L343 -568C349 -573 366 -577 382 -578C386 -578 387 -580 387 -581C387 -583 386 -586 383 -587L336 -622C319 -592 298 -556 275 -527H208L173 -558C224 -579 286 -606 365 -641C379 -647 406 -652 430 -654C435 -655 437 -656 437 -657C437 -659 435 -661 431 -663L373 -700C306 -656 170 -580 53 -529L57 -516C87 -526 119 -538 156 -552C157 -532 159 -508 159 -491V-360C159 -348 154 -288 154 -282C154 -277 156 -275 160 -275C164 -275 171 -277 181 -281C202 -290 202 -292 202 -315H273C297 -291 306 -275 308 -258C309 -249 309 -242 311 -238H108C86 -238 62 -240 38 -242L64 -209C81 -216 108 -220 129 -220H233C222 -107 200 -19 40 70L45 82C181 23 233 -40 262 -132H429C410 -7 385 -6 359 -6C339 -6 311 -12 267 -24L262 -11C323 9 342 25 346 60C347 65 348 68 351 68C353 68 411 54 436 -1C452 -36 462 -75 471 -113L509 -128C512 -129 514 -131 514 -133C514 -135 512 -137 509 -139L450 -181L420 -149H268C273 -170 277 -195 282 -220H559C567 -220 571 -222 571 -225C571 -228 568 -232 562 -238ZM202 -433V-509H448V-433ZM202 -334V-414H448V-334ZM958 -439C962 -439 964 -440 964 -441C964 -443 962 -445 958 -449L900 -502L865 -456H631C646 -485 660 -515 671 -539C676 -550 689 -558 705 -562C709 -563 710 -565 710 -567C710 -569 709 -571 706 -572L645 -606C613 -507 561 -372 521 -295L533 -288C552 -315 578 -355 602 -400C613 -280 633 -195 685 -121C630 -47 536 21 418 63L421 78C548 42 636 -3 709 -88C773 -18 881 43 886 43C890 43 893 41 896 36C906 19 934 7 978 7L980 -6C903 -13 804 -56 736 -124C777 -186 809 -285 820 -439ZM773 -439C765 -303 741 -219 707 -158C662 -223 634 -318 615 -429C617 -432 618 -436 620 -439ZM416 -838C468 -816 496 -783 502 -761C506 -744 511 -736 520 -736C541 -736 555 -754 555 -775C555 -820 506 -837 420 -847ZM885 -768L854 -732H185C185 -746 185 -763 183 -781H171C159 -706 139 -685 103 -654C88 -642 82 -635 82 -627C82 -617 93 -601 112 -601C143 -601 178 -635 184 -713H862L816 -639L826 -635C880 -683 904 -694 947 -697C951 -698 954 -699 954 -701C954 -703 952 -705 949 -708ZM581 -662C682 -635 788 -588 818 -559C849 -530 857 -525 863 -525C875 -525 883 -539 883 -555C883 -565 879 -577 870 -585C838 -614 732 -653 585 -673Z"/>
</svg>