<svg xmlns="http://www.w3.org/2000/svg" viewBox="0 -1000 1000 1000">
	<path fill="#000000" d="M738 -475L710 -430H287L226 -483C228 -455 229 -412 229 -390V-149C229 -74 228 -17 226 37V43C226 60 229 66 237 66C241 66 248 64 257 60C272 54 276 49 276 37V-29H725V53C725 61 726 66 732 66C736 66 742 64 751 60C771 52 777 48 777 31V26C774 -19 772 -81 772 -157V-392L802 -410C808 -414 810 -416 810 -419C810 -421 808 -424 802 -428ZM276 -188V-285H725V-188ZM276 -305V-410H725V-305ZM276 -49V-168H725V-49ZM663 -719L626 -665H332C309 -665 284 -666 259 -669L287 -634C304 -641 333 -645 354 -645H722C731 -645 735 -646 735 -649C735 -652 732 -656 726 -662ZM823 -835L790 -784H205L148 -828C150 -799 151 -753 151 -730V-572C151 -549 149 -511 149 -488C149 -480 150 -476 155 -476C159 -476 165 -478 173 -482C192 -490 198 -494 198 -507V-764H814V-489C814 -481 815 -476 822 -476C826 -476 832 -478 841 -482C860 -490 865 -493 865 -506C865 -516 861 -585 861 -600V-752L892 -771C899 -775 902 -778 902 -781C902 -783 899 -786 892 -790ZM679 -602L645 -550H332C309 -550 284 -551 259 -554L287 -519C304 -526 333 -530 354 -530H735C742 -530 745 -531 745 -534C745 -536 743 -539 738 -544Z"/>
</svg>