<svg xmlns="http://www.w3.org/2000/svg" viewBox="0 -1000 1000 1000">
	<path fill="#000000" d="M885 -767L846 -707H601C614 -726 625 -745 636 -762C643 -774 653 -779 673 -786C679 -788 682 -791 682 -793C682 -795 680 -798 675 -800L612 -831C589 -762 517 -629 457 -536L469 -531C500 -561 546 -624 587 -686H655C687 -646 697 -618 710 -572C715 -554 723 -547 732 -547C745 -547 763 -564 763 -587C763 -621 731 -650 682 -686H950C956 -686 960 -687 960 -690C960 -692 957 -696 952 -701ZM454 -762L415 -708H232C243 -724 253 -740 263 -756C277 -778 286 -785 302 -792C309 -795 312 -798 312 -800C312 -803 309 -806 303 -808L242 -831C205 -737 119 -594 38 -483L51 -476C105 -530 165 -610 218 -687H266C295 -646 307 -621 318 -576C323 -558 328 -548 334 -548C353 -548 368 -572 368 -597C368 -623 355 -645 294 -687H505C511 -687 514 -688 514 -691C514 -694 512 -697 508 -702ZM791 -465L754 -416H301C278 -416 253 -418 228 -420L256 -383C273 -388 302 -394 323 -394H507V-268H328C306 -268 282 -270 258 -272L285 -236C301 -242 328 -246 348 -246H507V-101H300C278 -101 254 -103 230 -105L257 -68C273 -74 300 -78 320 -78H821C828 -78 832 -79 832 -82C832 -84 830 -87 826 -91L768 -152L732 -101H554V-246H786C793 -246 796 -247 796 -250C796 -252 794 -256 790 -260L736 -317L699 -268H554V-394H848C856 -394 860 -396 860 -399C860 -402 857 -405 853 -409ZM862 -39L818 20H190V-506H900C907 -506 911 -507 911 -510C911 -513 908 -516 903 -521L837 -584L798 -528H200L141 -577C142 -537 143 -465 143 -415V4L97 31L159 68C163 70 166 72 169 72C172 72 175 70 178 66L197 42H927C935 42 938 41 938 38C938 36 936 32 931 28Z"/>
</svg>