<svg xmlns="http://www.w3.org/2000/svg" viewBox="0 -1000 1000 1000">
	<path fill="#000000" d="M515 -149L480 -103H344V-185H470V-163C470 -158 471 -155 474 -155C478 -155 485 -158 496 -164C514 -174 517 -179 517 -190V-197C514 -239 513 -269 513 -305V-389C539 -402 542 -403 542 -408C542 -410 540 -413 535 -416L480 -455L455 -416H344V-494H558C566 -494 570 -495 570 -498C570 -501 566 -505 559 -512L506 -564L469 -516H344V-548C370 -566 372 -568 372 -572C372 -575 369 -578 362 -581L297 -611C299 -587 300 -547 301 -516H137C114 -516 90 -516 65 -518L92 -483C109 -490 138 -494 159 -494H301V-416H190L132 -458C134 -429 135 -383 135 -360V-285C135 -238 134 -209 132 -172V-160C132 -147 134 -142 140 -142C144 -142 150 -144 158 -148C178 -157 178 -160 178 -185H301V-103H101C78 -103 53 -105 28 -107L56 -70C73 -77 102 -81 123 -81H301C301 -36 299 27 296 69V81C296 93 297 98 302 98C305 98 346 80 346 65V62C344 29 344 -25 344 -81H563C571 -81 575 -82 575 -85C575 -87 572 -91 567 -96ZM344 -314V-394H470V-314ZM178 -314V-394H301V-314ZM344 -207V-292H470V-207ZM178 -207V-292H301V-207ZM908 -782L864 -727H613C626 -743 638 -759 649 -774C659 -788 669 -794 689 -798C697 -800 701 -801 701 -804C701 -806 697 -809 691 -812L628 -849C596 -779 508 -642 430 -548L443 -539C476 -568 539 -635 595 -705H663C706 -664 724 -624 727 -591C729 -573 734 -569 746 -569C767 -569 781 -591 781 -619C781 -635 768 -653 691 -705H959C968 -705 972 -706 972 -710C972 -713 969 -718 962 -725ZM468 -774L432 -728H246C255 -739 264 -751 274 -764C286 -779 290 -781 319 -789C327 -791 331 -793 331 -796C331 -798 328 -801 322 -805L264 -850C204 -742 125 -622 33 -513L44 -504C90 -541 133 -586 229 -706H281C324 -671 350 -633 359 -597C361 -587 368 -581 377 -581C390 -581 409 -600 409 -623C409 -657 337 -691 304 -706H512C521 -706 526 -708 526 -712C526 -715 523 -719 518 -724ZM914 -166C911 -2 906 10 861 15C843 17 814 18 785 18C673 18 655 12 655 -23V-506H819V-364C819 -269 818 -242 765 -242C746 -242 720 -246 685 -251L683 -235C758 -217 769 -211 778 -170C779 -164 782 -161 785 -161C786 -161 788 -162 790 -163C851 -203 863 -231 863 -327V-487L893 -507C898 -510 900 -514 900 -517C900 -521 897 -524 892 -528L831 -570L803 -528H663L608 -587C610 -547 611 -496 611 -468V-29C611 54 618 54 826 54C922 54 948 43 971 -5C973 -8 973 -11 973 -13C973 -18 970 -20 964 -23C939 -34 935 -53 931 -166Z"/>
</svg>