<svg xmlns="http://www.w3.org/2000/svg" viewBox="0 -1000 1000 1000">
	<path fill="#000000" d="M831 -328L803 -290H284L231 -331C232 -310 234 -263 234 -234V-81C234 -58 230 45 230 66C230 79 232 85 239 85C240 85 279 76 279 58V-129H429C429 -105 428 2 428 24C428 41 430 49 437 49C438 49 478 38 478 13V9C476 -16 476 -69 476 -129H616C616 -106 615 -3 615 19C615 35 618 42 626 42C630 42 636 40 644 36C661 28 665 24 665 11V6C663 -18 663 -70 663 -129H823V-15C823 -1 821 6 797 6C779 6 751 2 704 -4V11C770 28 784 41 791 69C792 75 795 78 798 78C800 78 802 77 804 76C868 45 870 41 870 -11V-257L893 -272C897 -275 899 -278 899 -280C899 -283 897 -285 893 -288ZM476 -151V-268H616V-151ZM663 -151V-268H823V-151ZM279 -151V-268H429V-151ZM794 -576L767 -542H240L184 -580C186 -557 186 -528 186 -496C186 -275 169 -148 32 24L42 33C174 -97 207 -190 224 -380H783C783 -356 783 -353 792 -353C797 -353 804 -355 816 -360C829 -365 832 -370 832 -381C832 -386 830 -427 830 -436V-506L854 -519C860 -522 862 -524 862 -526C862 -528 859 -530 854 -534ZM226 -402C230 -441 233 -485 235 -520H783V-402ZM897 -791L860 -737H606C660 -801 671 -810 684 -815C689 -817 692 -819 692 -821C692 -823 690 -825 686 -827L629 -854C606 -801 560 -721 499 -642C482 -650 461 -658 434 -666L428 -655C474 -625 495 -593 507 -568C513 -555 521 -548 530 -548C542 -548 556 -570 556 -588C556 -605 539 -621 514 -635C542 -663 570 -694 588 -715H677C705 -682 717 -651 723 -619C727 -597 733 -588 742 -588C756 -588 774 -609 774 -637C774 -654 769 -673 706 -715H952C959 -715 963 -716 963 -719C963 -721 961 -724 957 -728ZM467 -787L431 -736H246C279 -788 287 -794 303 -801C310 -804 313 -806 313 -809C313 -812 311 -814 305 -817L251 -846C214 -751 146 -634 62 -517L73 -509C112 -552 186 -645 231 -714H277C307 -680 325 -642 333 -613C338 -594 345 -586 354 -586C367 -586 382 -604 382 -627C382 -648 368 -670 303 -714H512C520 -714 524 -716 524 -719C524 -722 522 -725 518 -730Z"/>
</svg>