<svg xmlns="http://www.w3.org/2000/svg" viewBox="0 -1000 1000 1000">
	<path fill="#000000" d="M701 -490L677 -456H321L268 -498C270 -475 271 -458 271 -435V-377C271 -367 269 -322 269 -313C269 -305 270 -301 276 -301C280 -301 286 -303 295 -307C314 -315 316 -320 316 -330H686C686 -300 686 -296 694 -296C698 -296 704 -298 713 -302C729 -309 734 -311 734 -322C734 -324 733 -326 733 -329C731 -346 731 -356 731 -382V-421L755 -432C760 -434 762 -436 762 -438C762 -441 760 -443 756 -446ZM316 -351V-435H686V-351ZM619 -212L597 -181H370L318 -219C319 -198 321 -181 321 -158V-87C321 -77 319 -33 319 -24C319 -16 320 -12 326 -12C330 -12 336 -14 345 -18C366 -28 366 -31 366 -55H609C609 -19 609 -19 616 -19C621 -19 656 -28 656 -43C656 -61 654 -88 654 -105V-147L677 -159C681 -161 683 -163 683 -165C683 -168 681 -170 677 -173ZM366 -77V-159H609V-77ZM870 -783L836 -729H600C609 -741 618 -753 627 -766C639 -782 644 -786 667 -793C672 -795 675 -796 675 -798C675 -800 672 -802 667 -804L606 -835C583 -777 553 -715 504 -631L518 -624C536 -645 558 -674 583 -707H678C702 -674 718 -629 719 -609C720 -584 723 -577 731 -577C750 -577 769 -593 769 -625C769 -647 756 -669 700 -707H926C937 -707 942 -708 942 -711C942 -714 938 -719 929 -727ZM449 -783L417 -732H248C258 -745 268 -758 278 -772C291 -790 294 -792 313 -797C320 -799 324 -801 324 -803C324 -805 320 -808 314 -811L252 -844C216 -760 176 -689 84 -561L94 -553C127 -584 174 -637 231 -710H296C318 -669 326 -633 326 -602C326 -583 330 -574 339 -574C356 -574 377 -599 377 -622C377 -644 358 -674 318 -710H499C509 -710 513 -711 513 -715C513 -718 510 -722 502 -730ZM421 -647C452 -627 474 -582 478 -563C482 -547 488 -540 499 -540C513 -540 526 -558 526 -577C526 -619 430 -655 425 -657ZM882 -589L849 -538H126C103 -538 78 -540 53 -542L81 -505C98 -512 127 -516 148 -516H932C941 -516 946 -517 946 -521C946 -524 942 -529 936 -535ZM818 -303L789 -264H205L145 -313C148 -278 149 -259 149 -224V-119C149 -56 148 -10 146 44V53C146 69 148 75 155 75C159 75 165 73 174 69C193 60 197 57 197 43V37C195 -5 194 -58 194 -118V-243H805V-8C805 5 802 13 770 13C749 13 715 10 661 2L659 17C739 36 758 49 768 79C770 84 772 87 775 87C777 87 779 86 782 85C846 56 851 47 851 -1V-226L875 -238C881 -241 883 -243 883 -246C883 -249 881 -252 875 -256Z"/>
</svg>