<svg xmlns="http://www.w3.org/2000/svg" viewBox="0 -1000 1000 1000">
	<path fill="#000000" d="M969 -62C814 -78 684 -127 601 -228H952C963 -228 962 -229 954 -236L883 -303L844 -246H419C443 -270 467 -298 485 -319H716C716 -285 716 -281 722 -281C726 -281 733 -283 743 -288C760 -295 764 -300 764 -311V-316C762 -351 761 -374 761 -412V-547C793 -563 793 -564 793 -567C793 -569 791 -571 788 -573L726 -617L707 -589H285L234 -630C236 -599 237 -548 237 -524V-389C237 -374 233 -305 233 -292C233 -283 235 -279 240 -279C244 -279 250 -282 260 -287C276 -295 280 -303 281 -319H415C400 -297 379 -270 357 -246H104C81 -246 66 -248 41 -250L69 -217C86 -224 107 -228 126 -228H340C269 -155 162 -70 30 7L36 20C178 -39 309 -140 401 -228H574C672 -81 858 -8 867 -8C871 -8 874 -10 878 -16C892 -38 922 -47 969 -49ZM281 -424V-489H716V-424ZM281 -507V-571H716V-507ZM281 -337V-406H716V-337ZM867 -791L827 -737H608C621 -752 633 -768 647 -785C652 -791 669 -801 679 -804C685 -805 687 -807 687 -809C687 -810 685 -812 680 -814L620 -842C587 -774 526 -675 474 -602L489 -595C515 -625 549 -668 590 -719H683C706 -692 721 -662 727 -641C731 -625 736 -619 743 -619C761 -619 773 -633 773 -659C773 -674 755 -694 712 -719H927C933 -719 936 -719 936 -720C936 -722 934 -724 930 -728ZM467 -783L430 -738H248C260 -754 271 -769 279 -782C283 -788 301 -801 317 -802C323 -803 326 -804 326 -806C326 -808 323 -811 318 -814L260 -847C216 -756 155 -659 73 -552L84 -544C117 -575 182 -656 231 -720H309C326 -687 336 -653 338 -636C340 -616 346 -606 355 -606C370 -606 386 -631 386 -650C386 -666 364 -692 332 -720H519C529 -720 530 -720 523 -727ZM546 -82C594 -46 621 -20 640 4L317 16C367 -20 423 -69 474 -117C483 -126 500 -137 516 -139C527 -141 532 -143 532 -146C532 -148 529 -152 522 -156L470 -189C417 -112 372 -58 322 -17C299 2 279 11 240 18L274 59C279 66 283 69 289 69C294 69 300 67 310 62C326 55 427 40 651 19C660 32 667 45 674 58C684 77 692 85 699 85C712 85 724 67 724 44C724 1 685 -37 553 -92Z"/>
</svg>