<svg xmlns="http://www.w3.org/2000/svg" viewBox="0 -1000 1000 1000">
	<path fill="#000000" d="M886 -785L848 -733H608C655 -805 656 -805 680 -810C685 -811 688 -813 688 -815C688 -817 686 -820 681 -822L622 -854C593 -786 525 -657 468 -571L482 -564C509 -595 547 -644 593 -711H704C738 -669 749 -633 751 -607C753 -588 758 -583 768 -583C785 -583 797 -602 797 -625C797 -664 759 -692 726 -711H938C948 -711 953 -712 953 -716C953 -719 949 -724 941 -732ZM461 -778L425 -732H239C251 -749 263 -766 276 -783C291 -803 296 -808 307 -810C315 -811 319 -813 319 -816C319 -818 316 -820 311 -823L256 -853C214 -760 149 -652 70 -539L81 -532C113 -568 164 -631 222 -710H292C319 -676 334 -643 337 -612C339 -589 345 -583 354 -583C371 -583 382 -608 382 -625C382 -639 363 -677 313 -710H504C514 -710 518 -711 518 -715C518 -718 515 -723 507 -731ZM189 -631C231 -586 248 -547 252 -523C255 -505 259 -498 269 -498C286 -498 297 -521 297 -543C297 -578 258 -607 196 -640ZM859 -564L822 -512H570C583 -530 595 -547 606 -564C615 -577 624 -585 637 -588C644 -590 647 -592 647 -595C647 -597 644 -601 637 -604L589 -631C546 -537 499 -452 443 -363L455 -356C485 -393 521 -443 556 -492H911C922 -492 927 -493 927 -497C927 -500 923 -505 915 -512ZM411 -535L378 -490H117C94 -490 69 -492 44 -494L72 -458C89 -465 118 -469 139 -469H182C182 -144 158 -74 33 71L43 80C179 -44 206 -111 222 -300C223 -312 224 -325 224 -338H339C339 -202 333 -103 328 -79C323 -55 314 -43 286 -43C267 -43 240 -48 200 -59L196 -46C258 -19 269 -10 278 20C280 26 282 29 285 29C287 29 289 28 291 27C349 2 364 -16 371 -66C375 -96 378 -151 381 -323L404 -336C409 -339 411 -341 411 -343C411 -346 409 -349 404 -352L350 -392L324 -359H225C227 -395 228 -431 227 -469H453C462 -469 466 -470 466 -474C466 -477 463 -482 456 -489ZM968 11C850 -10 746 -77 713 -197H933C944 -197 949 -198 949 -202C949 -206 945 -211 937 -219L889 -266L851 -219H689C698 -255 703 -296 706 -348H874C885 -348 890 -350 890 -354C890 -357 886 -362 879 -368L828 -413L794 -368H584C594 -381 603 -393 612 -406C621 -418 625 -421 643 -425C650 -427 653 -428 653 -430C653 -432 651 -435 645 -438L595 -467C562 -391 536 -344 478 -254L491 -245C517 -277 543 -312 570 -348H659C656 -300 651 -257 642 -219H492C469 -219 444 -221 419 -223L447 -186C464 -193 493 -197 514 -197H637C600 -68 518 6 348 80L350 94C486 58 633 -9 683 -197H694C723 -62 780 -5 871 54C873 55 876 56 878 56C881 56 883 55 885 54C909 32 920 26 969 24Z"/>
</svg>