<svg xmlns="http://www.w3.org/2000/svg" viewBox="0 -1000 1000 1000">
	<path fill="#000000" d="M698 -584L632 -517H278C306 -537 349 -567 373 -584ZM731 -642L700 -606H403C422 -622 439 -628 451 -628C463 -628 469 -632 469 -637C469 -641 467 -645 461 -649L417 -680C318 -585 169 -473 31 -386L38 -372C93 -400 142 -428 199 -464C196 -124 186 -45 37 63L47 77C216 -32 229 -85 243 -342L263 -318C280 -324 309 -328 330 -328H941C948 -328 953 -331 953 -336C953 -340 950 -344 945 -349L891 -393L852 -347H308C287 -347 265 -348 243 -350C245 -392 247 -440 249 -496H943C951 -496 955 -498 955 -503C955 -506 952 -511 946 -517L888 -570L842 -517H662C758 -578 775 -584 787 -585C794 -586 797 -590 797 -594C797 -597 796 -600 792 -602ZM464 -494C407 -454 353 -420 275 -377L280 -365C398 -416 492 -451 508 -451C515 -451 520 -451 520 -454C520 -456 518 -458 514 -460ZM327 -140C329 -110 330 -98 330 -74V12C330 21 326 62 326 70C326 79 329 83 335 83C339 83 344 81 352 77C373 66 375 63 375 53V32H776C776 68 776 72 783 72C783 72 825 62 825 44C825 40 821 -4 821 -13V-61L849 -76C854 -78 856 -81 856 -85C856 -88 854 -91 848 -95L786 -136L758 -95H391ZM375 13V-77H776V13ZM233 -862C189 -756 162 -706 69 -589L78 -579C167 -667 188 -690 221 -736H299C320 -713 329 -692 332 -662C334 -647 343 -639 352 -639C364 -639 378 -656 378 -676C378 -703 359 -720 329 -736H528C535 -736 539 -737 539 -741C539 -743 537 -745 534 -749L473 -806L440 -758H237C266 -801 268 -804 293 -813C301 -816 305 -819 305 -822C305 -825 302 -828 296 -831ZM635 -855C588 -739 570 -701 531 -636L542 -629C575 -664 598 -693 627 -737H722C751 -705 760 -685 764 -653C766 -637 770 -628 783 -628C797 -628 808 -640 808 -657C808 -675 797 -702 745 -737H958C967 -737 972 -738 972 -742C972 -744 969 -748 964 -753L905 -811L867 -759H641C665 -802 672 -807 696 -814C701 -816 704 -818 704 -820C704 -822 702 -825 697 -827ZM531 -441C561 -423 581 -394 583 -378C585 -361 591 -355 599 -355C620 -355 632 -370 632 -385C632 -402 621 -421 540 -453ZM639 -469C712 -447 756 -422 788 -394C804 -380 812 -378 824 -378C833 -378 839 -387 839 -398C839 -437 773 -455 642 -479ZM792 -229L753 -183H387C364 -183 339 -184 314 -187L343 -157C360 -162 389 -166 410 -166H843C850 -166 854 -168 854 -172C854 -176 851 -180 846 -185ZM796 -310L757 -264H381C358 -264 333 -265 308 -268L336 -235C353 -242 382 -246 403 -246H846C853 -246 857 -250 857 -255C857 -258 855 -262 850 -266Z"/>
</svg>