<svg xmlns="http://www.w3.org/2000/svg" viewBox="0 -1000 1000 1000">
	<path fill="#000000" d="M317 -646C253 -570 203 -528 36 -408L43 -397C72 -412 99 -427 122 -442V-330C122 -321 121 -282 121 -274C121 -267 123 -264 128 -264C131 -264 136 -265 142 -268C143 -245 144 -215 144 -195V-100C144 -79 142 16 142 36C142 45 143 48 148 48C151 48 155 47 161 44C185 34 187 31 187 23C186 -6 184 -52 184 -99V-121H269C269 -103 268 -25 268 -8C268 5 270 11 276 11C281 11 287 9 296 5C307 0 309 -5 309 -17V-121H383C383 -105 382 -36 382 -22C382 -8 384 -2 390 -2C393 -2 399 -4 406 -8C418 -13 421 -17 421 -31C421 -45 420 -108 420 -121H501V-11C501 5 500 12 470 12C458 12 439 11 413 8L412 21C463 35 473 45 482 71C483 75 485 77 488 77C489 77 491 76 492 75C536 47 541 38 541 -4V-211C560 -219 562 -219 562 -223C562 -225 560 -228 556 -231L513 -268L494 -240H190L153 -274C157 -276 157 -278 157 -289V-305H208C208 -276 208 -273 214 -273C218 -273 245 -286 245 -295C245 -298 242 -335 242 -343V-394C251 -398 264 -404 264 -407C264 -408 263 -410 261 -411L221 -448L201 -422H162L133 -449C196 -487 252 -526 334 -592C444 -544 505 -508 532 -476C543 -463 553 -455 564 -455C570 -455 579 -464 579 -479C579 -531 476 -565 347 -600C366 -608 370 -609 370 -612C370 -614 366 -617 359 -621ZM309 -140V-219H383V-140ZM420 -140V-219H501V-140ZM184 -140V-219H269V-140ZM157 -323V-404H208V-323ZM907 -652L874 -603H645C621 -603 598 -603 567 -606L591 -577C608 -582 630 -584 649 -584H733C732 -555 725 -524 715 -493H686L636 -539C638 -508 638 -478 638 -434V-247C638 -194 637 -155 635 -119V-111C635 -103 636 -99 640 -99C643 -99 647 -101 652 -103C678 -114 678 -116 678 -128V-138H848V-108C848 -98 849 -93 855 -93C860 -93 892 -108 892 -121V-125C890 -154 889 -192 889 -238V-467L913 -478C917 -480 918 -481 918 -483C918 -485 917 -488 913 -490L865 -526L841 -493H736L785 -584H959C963 -584 966 -585 966 -587C966 -589 964 -592 960 -595ZM678 -268V-365H848V-268ZM678 -385V-473H848V-385ZM678 -158V-249H848V-158ZM539 -445L522 -421H479L440 -461C441 -446 441 -423 441 -412V-345C441 -336 440 -298 440 -290C440 -283 441 -280 446 -280C449 -280 455 -282 464 -286C476 -291 476 -294 476 -309H526C526 -281 526 -278 532 -278C536 -278 563 -291 563 -300C563 -303 560 -340 560 -348V-393L577 -399C579 -400 580 -401 580 -403C580 -405 579 -407 576 -410ZM406 -533L384 -501H294C271 -501 247 -502 223 -504L250 -470C267 -477 296 -481 314 -481H450C453 -481 454 -482 454 -484C454 -486 453 -489 450 -492ZM476 -327V-403H526V-327ZM387 -450L364 -421H328L287 -460C288 -445 288 -422 288 -411V-340C288 -331 287 -293 287 -285C287 -278 288 -275 293 -275C296 -275 302 -277 310 -281C323 -287 323 -288 323 -309H373C373 -276 373 -272 379 -272C384 -272 409 -282 409 -293C409 -296 406 -333 406 -341V-397L425 -405C427 -406 428 -407 428 -409C428 -410 427 -412 426 -413ZM323 -327V-403H373V-327ZM880 -781L842 -731H606C616 -744 626 -757 637 -772C644 -782 653 -790 671 -799C675 -801 677 -803 677 -805C677 -807 675 -809 672 -811L619 -846C587 -778 541 -689 485 -603L497 -597C526 -630 553 -662 592 -712H683C714 -677 727 -655 730 -638C733 -616 742 -609 750 -609C764 -609 778 -624 778 -645C778 -663 762 -681 709 -712H929C938 -712 942 -714 942 -717C942 -720 939 -725 932 -731ZM477 -780L442 -733H263C306 -789 314 -795 333 -805C340 -809 343 -812 343 -814C343 -816 339 -818 333 -821L278 -844C229 -746 160 -658 59 -545L69 -535C133 -588 183 -638 247 -714H328C358 -679 365 -665 371 -642C376 -623 383 -616 392 -616C404 -616 417 -633 417 -648C417 -665 400 -686 353 -714H519C527 -714 531 -716 531 -719C531 -723 528 -727 522 -733ZM778 -85C841 -27 864 5 891 52C899 66 905 71 913 71C925 71 937 53 937 34C937 -3 880 -40 785 -94ZM699 -100C650 -34 608 15 544 76L552 88C611 46 649 16 693 -24C714 -44 717 -46 740 -51C747 -53 750 -54 750 -57C750 -59 747 -62 741 -67Z"/>
</svg>