<svg xmlns="http://www.w3.org/2000/svg" viewBox="0 -1000 1000 1000">
	<path fill="#000000" d="M73 -735C121 -667 136 -611 136 -574C136 -550 144 -542 151 -542C170 -542 189 -558 189 -589C189 -636 130 -697 81 -743ZM394 -553L358 -503H271V-792C300 -809 303 -811 303 -814C303 -818 300 -820 294 -823L222 -858C224 -821 226 -753 226 -712V-503H107C84 -503 59 -505 34 -507L62 -470C79 -477 108 -481 129 -481H217C180 -344 106 -215 19 -78L32 -69C102 -160 176 -281 226 -393V-121C226 -48 226 8 223 57V67C223 79 225 84 231 84C236 84 242 81 251 76C269 65 273 61 273 47V42C271 -4 271 -47 271 -119V-385C331 -341 356 -303 367 -275C378 -246 384 -238 398 -238C411 -238 423 -253 423 -273C423 -325 347 -369 271 -402V-481H443C452 -481 458 -484 458 -489C458 -492 455 -496 450 -501ZM592 -836C630 -791 652 -723 652 -686C652 -658 660 -648 674 -648C690 -648 710 -676 710 -704C710 -740 655 -803 599 -846ZM391 -757C362 -677 331 -608 299 -549L312 -540L407 -678C419 -695 425 -698 446 -704C451 -705 453 -707 453 -709C453 -711 451 -713 447 -716ZM866 -678L827 -623H519C496 -623 471 -624 446 -627L474 -590C491 -597 520 -601 541 -601H925C934 -601 939 -603 939 -607C939 -610 936 -614 929 -620ZM495 -516C544 -409 566 -267 566 -200C566 -193 563 -160 563 -154C563 -128 570 -122 583 -122C605 -122 620 -148 620 -197C620 -276 571 -412 506 -524ZM895 -86L855 -30H691C729 -161 778 -330 804 -423C815 -462 830 -489 848 -498C853 -500 856 -502 856 -504C856 -507 853 -509 847 -512L778 -545C747 -364 711 -199 669 -30H410C387 -30 362 -31 337 -34L365 4C382 -3 411 -7 432 -7H957C966 -7 971 -9 971 -13C971 -16 968 -21 961 -27Z"/>
</svg>