<svg xmlns="http://www.w3.org/2000/svg" viewBox="0 -1000 1000 1000">
	<path fill="#000000" d="M871 -839L834 -788H142C119 -788 94 -790 69 -792L97 -755C114 -762 143 -766 164 -766H383V-655H242L181 -697C183 -668 184 -622 184 -599V-504C184 -475 183 -451 181 -433C181 -429 180 -426 180 -423C180 -416 182 -413 186 -413C192 -413 227 -428 227 -447V-463H801C801 -435 801 -432 809 -432C811 -432 849 -445 849 -461C849 -473 846 -527 846 -539V-618L874 -638C880 -642 882 -645 882 -648C882 -651 880 -654 874 -657L811 -697L783 -655H637V-766H926C934 -766 938 -768 938 -772C938 -775 935 -780 929 -785ZM428 -485V-633H592V-485ZM428 -655V-766H592V-655ZM637 -485V-633H801V-485ZM227 -485V-633H383V-485ZM251 -413C291 -381 317 -348 329 -305C335 -284 338 -276 352 -276C362 -276 377 -299 377 -319C377 -341 359 -379 256 -422ZM974 -38C802 -52 667 -133 584 -246H943C951 -246 955 -248 955 -252C955 -255 952 -259 946 -265L889 -319L854 -268H626L724 -366C736 -378 743 -379 765 -384C772 -386 775 -387 775 -390C775 -392 772 -395 766 -399L709 -434C685 -386 639 -312 604 -268H527V-391C550 -410 552 -412 552 -417C552 -421 549 -424 543 -426L475 -451C477 -414 479 -347 479 -306V-268H116C93 -268 68 -270 43 -272L71 -235C88 -242 117 -246 138 -246H394C314 -133 178 -23 40 48L45 60C192 4 317 -83 462 -246H479V-99C479 -42 477 5 473 59V66C473 76 475 80 481 80C486 80 493 77 503 72C525 60 528 55 528 38C527 -2 527 -46 527 -97V-246H564C655 -78 865 19 877 19C880 19 883 18 885 14C900 -8 933 -25 975 -24Z"/>
</svg>