<svg xmlns="http://www.w3.org/2000/svg" viewBox="0 -1000 1000 1000">
	<path fill="#000000" d="M765 -803C631 -757 369 -713 92 -683L94 -669C255 -676 410 -693 713 -729C749 -733 770 -735 785 -735C799 -735 808 -733 819 -731C822 -730 824 -730 826 -730C829 -730 831 -731 831 -733C831 -735 829 -739 825 -743ZM385 -647C452 -589 471 -560 478 -538C491 -499 497 -494 511 -494C521 -494 541 -511 541 -540C541 -583 510 -608 392 -657ZM967 -59C832 -40 701 -34 596 -34C413 -34 364 -43 247 -121C242 -125 239 -127 239 -130C239 -133 242 -135 247 -138C412 -226 567 -314 736 -418C753 -429 784 -437 808 -441C817 -442 822 -444 822 -447C822 -450 818 -454 811 -459L734 -515L688 -473L172 -465C147 -465 118 -466 81 -469L118 -430C139 -440 161 -444 191 -444L675 -451C492 -308 408 -258 224 -154C151 -114 100 -85 31 -45L79 10C82 14 85 15 87 15C90 15 93 13 96 7C99 0 158 -111 202 -111C228 -111 260 -88 321 -42C374 -2 438 9 509 13C613 19 714 22 849 24C864 24 867 21 869 12C874 -7 905 -31 968 -46Z"/>
</svg>