<svg xmlns="http://www.w3.org/2000/svg" viewBox="0 -1000 1000 1000">
	<path fill="#000000" d="M84 -747C146 -694 177 -637 182 -607C187 -579 197 -567 210 -567C225 -567 245 -590 245 -619C245 -682 134 -738 93 -758ZM971 -460C786 -494 667 -625 597 -783C618 -793 621 -794 621 -797C621 -799 619 -800 616 -801L530 -837C465 -605 346 -422 243 -323L251 -313C391 -418 519 -648 572 -771L580 -775C630 -637 692 -540 854 -415C857 -413 859 -412 861 -412C864 -412 865 -413 867 -415C889 -439 918 -448 971 -448ZM517 -546C549 -509 574 -445 574 -417C574 -397 585 -381 597 -381C615 -381 631 -398 631 -420C631 -448 602 -502 526 -556ZM325 -701L176 -315C155 -260 140 -249 34 -253L33 -239C127 -231 156 -223 156 -154C156 -132 144 -34 144 -14C144 23 155 32 171 32C183 32 212 22 212 -27C212 -36 211 -46 209 -57C203 -92 198 -130 198 -170C198 -194 200 -218 203 -243C208 -284 234 -366 343 -695ZM762 -351L726 -310L406 -301C388 -301 370 -302 346 -304L376 -270C390 -275 418 -278 442 -279L732 -288C700 -232 641 -138 595 -74C556 -99 501 -127 425 -155L418 -143C528 -80 604 0 627 49C636 69 645 82 662 82C674 82 687 70 687 45C687 11 669 -23 613 -63C671 -132 750 -227 773 -249C788 -263 811 -272 832 -275C836 -276 838 -277 838 -278C838 -280 836 -282 834 -284Z"/>
</svg>