<svg xmlns="http://www.w3.org/2000/svg" viewBox="0 -1000 1000 1000">
	<path fill="#000000" d="M891 -121L840 -57H692V-251H911C920 -251 923 -252 923 -255C923 -257 922 -259 919 -263L862 -332L817 -274H692V-451H903C914 -451 919 -452 919 -455C919 -457 917 -461 913 -465L859 -528L812 -474H692V-634H926C935 -634 939 -635 939 -638C939 -640 937 -644 932 -649L872 -714L826 -657H465C478 -684 490 -711 503 -741C515 -768 518 -773 544 -786C551 -789 554 -792 554 -794C554 -797 550 -800 542 -805L483 -837C443 -695 363 -500 256 -340L269 -331C329 -406 374 -477 413 -552V-125C413 -46 412 -2 409 40C409 47 408 52 408 56C408 67 410 72 416 72C420 72 426 70 435 66C456 57 460 54 460 40C460 32 458 -22 458 -34H946C954 -34 958 -35 958 -37C958 -40 956 -43 951 -49ZM458 -274V-451H646V-274ZM458 -474V-634H646V-474ZM458 -57V-251H646V-57ZM625 -831C659 -799 682 -736 686 -704C689 -680 692 -676 704 -676C719 -676 741 -696 741 -727C741 -734 740 -742 737 -750C728 -779 681 -816 634 -842ZM87 -766C146 -715 174 -660 182 -628C190 -594 196 -587 210 -587C225 -587 241 -602 241 -631C241 -659 241 -705 94 -778ZM332 -738L182 -382C148 -301 137 -293 45 -293L44 -279C136 -265 150 -252 150 -187C150 -167 138 -77 138 -59C138 -17 150 -7 163 -7C187 -7 203 -27 203 -71C203 -82 202 -95 200 -109C195 -145 191 -181 191 -217C191 -261 197 -306 213 -355C240 -434 281 -550 347 -732Z"/>
</svg>