<svg xmlns="http://www.w3.org/2000/svg" viewBox="0 -1000 1000 1000">
	<path fill="#000000" d="M831 -433L799 -390H458L400 -450C402 -416 403 -356 403 -319V-147C403 -35 403 5 401 40C401 46 400 51 400 55C400 65 402 70 408 70C412 70 418 67 427 63C445 54 449 51 449 38C449 19 447 -64 447 -81V-188H537V-129C537 -106 535 -4 535 16C535 30 536 35 542 35C546 35 551 33 559 29C579 19 581 15 581 1C580 -39 579 -78 579 -127V-188H670V-127C670 -104 668 -2 668 19C668 32 669 37 675 37C679 37 684 35 692 31C710 22 714 19 714 7C714 -14 712 -106 712 -125V-188H815V-8C815 6 813 12 792 12C779 12 759 10 728 6L725 23C766 36 787 49 793 83C794 90 796 94 800 94C802 94 804 93 807 91C857 65 858 50 858 -14V-349L889 -364C896 -367 899 -369 899 -372C899 -375 896 -379 889 -384ZM579 -210V-368H670V-210ZM712 -210V-368H815V-210ZM447 -210V-368H537V-210ZM972 -526C834 -540 711 -660 660 -793C689 -800 692 -801 692 -805C692 -807 689 -810 682 -813L611 -848C540 -699 467 -589 310 -436L322 -428C427 -494 550 -642 644 -784C719 -574 871 -481 876 -481C878 -481 881 -483 884 -486C903 -504 933 -511 972 -510ZM326 -711C307 -668 280 -616 250 -564L107 -560C139 -607 188 -681 236 -757C244 -770 252 -777 279 -782C287 -784 291 -786 291 -788C291 -791 288 -794 282 -798L219 -843C196 -782 139 -656 114 -611C97 -580 77 -570 39 -566L65 -510C68 -504 70 -501 73 -501C76 -501 79 -503 83 -506C104 -521 150 -534 238 -544C200 -481 160 -419 126 -371C106 -342 94 -327 50 -322L81 -261C84 -256 86 -253 89 -253C92 -253 95 -255 100 -258C123 -273 157 -284 187 -289L325 -312C327 -303 328 -294 328 -287C328 -270 339 -260 347 -260C365 -260 379 -277 379 -301C379 -340 328 -400 279 -448L267 -440C288 -412 310 -367 321 -330L114 -318C181 -399 277 -530 342 -627C351 -641 356 -645 375 -649C386 -652 391 -654 391 -657C391 -660 388 -664 381 -669ZM737 -561L701 -518H520C497 -518 472 -520 447 -522L475 -485C492 -492 521 -496 542 -496H773C783 -496 787 -497 787 -500C787 -503 784 -508 777 -516ZM273 -238C307 -195 322 -137 322 -91C322 -46 322 -41 343 -41C362 -41 376 -62 376 -91C376 -149 303 -229 285 -247ZM179 -231C200 -187 208 -141 208 -103C208 -95 204 -59 204 -51C204 -35 211 -27 225 -27C239 -27 262 -46 262 -80C262 -118 229 -185 190 -239ZM115 -218C115 -124 91 -79 52 -36C43 -26 38 -16 38 -7C38 9 52 19 66 19C74 19 134 17 134 -141C134 -166 133 -192 130 -219Z"/>
</svg>