<svg xmlns="http://www.w3.org/2000/svg" viewBox="0 -1000 1000 1000">
	<path fill="#000000" d="M902 -560L853 -507H708C765 -577 812 -643 838 -685C852 -708 865 -713 886 -713C894 -713 898 -715 898 -718C898 -720 896 -723 892 -727L837 -779C818 -744 797 -707 774 -672L713 -727L674 -680H608V-796L635 -814C642 -819 645 -821 645 -824C645 -829 561 -865 560 -865C562 -831 563 -807 563 -769V-680H473C452 -680 428 -682 406 -684L431 -650C446 -656 474 -660 494 -660H563V-507H395C374 -507 350 -509 328 -511L353 -477C368 -483 396 -487 416 -487H641C610 -448 577 -407 541 -367L491 -406C493 -379 494 -340 494 -316C455 -276 415 -235 370 -194L376 -184C415 -210 454 -241 493 -277L494 -70C494 -23 493 6 491 43V55C491 67 493 72 499 72C504 72 510 70 519 66C537 58 539 55 539 43V-22H800V55C800 62 802 66 808 66C812 66 818 65 826 61C845 52 849 49 849 35V29C846 -13 845 -43 845 -79V-322L876 -338C881 -340 883 -343 883 -345C883 -348 880 -351 875 -355L817 -402L786 -363H580C619 -404 657 -447 690 -487H946C956 -487 961 -488 961 -491C961 -494 957 -499 950 -507ZM539 -213V-322C547 -329 554 -336 560 -343H800V-213ZM539 -42V-193H800V-42ZM608 -507V-660H766C734 -611 698 -558 658 -507ZM292 -452C318 -420 340 -375 348 -346L122 -335C201 -433 271 -520 353 -621C362 -632 369 -636 386 -636C404 -636 406 -636 406 -640C406 -642 402 -647 394 -653L340 -698C312 -650 285 -609 256 -565L99 -571C158 -654 188 -697 246 -776C255 -789 262 -795 285 -798C293 -799 297 -801 297 -804C297 -806 293 -810 284 -815L225 -852C188 -769 149 -688 99 -609C87 -590 78 -582 39 -575L67 -516C69 -512 71 -510 73 -510C75 -510 77 -511 81 -514C101 -526 146 -539 245 -548C213 -500 178 -447 133 -383C111 -351 94 -341 57 -336L89 -275C92 -269 94 -267 97 -267C99 -267 102 -268 105 -272C122 -290 163 -307 350 -332C353 -295 360 -282 369 -282C391 -282 404 -299 404 -327C404 -358 373 -400 303 -459ZM298 -247C339 -185 351 -139 351 -88C351 -56 351 -34 370 -34C394 -34 407 -55 407 -86C407 -128 384 -180 306 -254ZM197 -221C216 -183 223 -138 223 -103C223 -82 220 -64 217 -53C214 -44 213 -36 213 -29C213 -15 219 -6 231 -6C272 -6 273 -51 273 -64C273 -95 260 -153 208 -227ZM117 -207C109 -100 83 -53 58 -23C47 -10 41 -2 41 6C41 14 51 31 69 31C74 31 135 31 135 -116C135 -142 133 -173 129 -208Z"/>
</svg>