<svg xmlns="http://www.w3.org/2000/svg" viewBox="0 -1000 1000 1000">
	<path fill="#000000" d="M483 -346L446 -301H430V-744C444 -751 467 -762 467 -765C467 -768 464 -771 457 -776L406 -816L380 -782H193L138 -839C140 -808 141 -761 141 -737V-301H100C77 -301 53 -303 28 -305L56 -269C72 -276 101 -279 122 -279H263V-44C263 -32 261 -25 238 -25C219 -25 187 -29 132 -39L130 -25C213 -4 230 10 237 49C238 54 240 56 243 56C245 56 248 55 251 54C304 29 309 17 309 -30V-279H516C524 -279 527 -280 527 -284C527 -287 525 -292 519 -300ZM185 -545V-645H387V-545ZM185 -427V-524H387V-427ZM185 -667V-760H387V-667ZM185 -301V-406H387V-301ZM773 -443C809 -411 839 -379 857 -347L593 -340C659 -396 742 -475 842 -575C857 -591 865 -595 878 -598C884 -600 886 -601 886 -603C886 -605 884 -607 878 -610L824 -643C801 -609 776 -576 751 -543L564 -541C625 -604 644 -623 697 -670C714 -685 723 -691 736 -693C742 -694 744 -695 744 -697C744 -699 742 -702 736 -706L700 -737C819 -764 858 -773 884 -773C888 -773 909 -770 914 -770C918 -770 920 -771 920 -773C920 -775 918 -778 914 -783L872 -834C783 -796 584 -735 471 -712L472 -697C516 -702 612 -719 685 -735C621 -636 600 -612 555 -568C541 -555 518 -540 488 -537L522 -490C526 -484 529 -482 532 -482C533 -482 535 -483 536 -484C564 -504 587 -511 737 -525C689 -464 644 -411 614 -383C593 -363 580 -356 537 -344L568 -287C570 -283 572 -280 575 -280C577 -280 580 -282 585 -285C599 -296 632 -305 689 -312V-23C689 -14 685 -7 658 -7C637 -7 604 -11 549 -21L547 -7C637 16 655 37 661 73C662 78 664 80 667 80C669 80 672 79 675 78C727 53 733 38 733 -10V-316L867 -330C873 -320 877 -310 879 -301C887 -274 890 -272 904 -272C919 -272 932 -288 932 -308C932 -368 822 -431 780 -454ZM332 -227C380 -194 408 -151 421 -122C427 -108 438 -97 447 -97C458 -97 474 -111 474 -133C474 -175 422 -204 339 -238ZM781 -220C849 -163 886 -82 892 -53C898 -24 907 -15 923 -15C936 -15 952 -33 952 -59C952 -113 877 -175 789 -231ZM578 -245C538 -173 493 -99 405 20L415 28C467 -25 529 -94 589 -170C601 -185 610 -188 628 -192C634 -193 637 -195 637 -198C637 -200 634 -203 629 -207ZM158 -246C130 -168 74 -50 30 24L40 32C83 -22 113 -65 178 -172C186 -186 193 -190 210 -196C216 -198 219 -200 219 -202C219 -204 217 -207 212 -210Z"/>
</svg>