<svg xmlns="http://www.w3.org/2000/svg" viewBox="0 -1000 1000 1000">
	<path fill="#000000" d="M972 10C833 -9 742 -72 683 -178H926C936 -178 941 -179 941 -183C941 -187 938 -192 931 -199L888 -248L841 -200H649V-289H817C817 -259 817 -256 824 -256C828 -256 864 -269 864 -282V-286C862 -306 861 -337 861 -395V-497C866 -500 890 -515 890 -518C890 -520 887 -523 882 -527L831 -568L806 -537H467L408 -580C410 -551 411 -499 411 -476V-353C411 -306 409 -274 408 -260V-256C408 -249 409 -246 414 -246C419 -246 426 -248 437 -253C455 -261 455 -264 455 -289H606V-200H412C389 -200 364 -202 339 -204L367 -167C384 -174 413 -178 434 -178H545C488 -103 391 6 247 74L254 85C401 31 499 -59 601 -178H606V-117C606 -86 604 50 604 78C604 90 605 96 611 96C613 96 652 80 652 64V57C650 17 649 -43 649 -121V-178H666C710 -63 782 3 875 50C881 53 884 54 888 54C892 54 895 52 899 48C917 31 934 25 972 25ZM649 -422V-514H817V-422ZM455 -422V-514H606V-422ZM649 -311V-400H817V-311ZM455 -311V-400H606V-311ZM842 -846L755 -688C807 -649 837 -612 848 -585C857 -564 868 -556 877 -556C889 -556 902 -570 902 -590C902 -593 901 -598 900 -602C895 -620 872 -651 778 -690C809 -727 831 -750 854 -772C864 -781 869 -783 891 -788C899 -790 902 -792 902 -794C902 -797 900 -799 895 -803ZM678 -832L589 -687C627 -649 642 -617 646 -582C646 -559 660 -553 669 -553C684 -553 699 -570 699 -591C699 -609 689 -638 609 -689C685 -767 700 -772 726 -780C735 -783 739 -785 739 -787C739 -790 735 -793 728 -798ZM510 -836L407 -681C459 -640 480 -604 491 -576C500 -553 506 -549 515 -549C529 -549 542 -565 542 -584C542 -589 541 -594 539 -599C532 -619 507 -646 427 -683C456 -713 483 -739 512 -763C528 -777 534 -780 554 -785C562 -787 566 -789 566 -792C566 -794 563 -797 556 -802ZM265 -449C292 -416 308 -376 314 -339L119 -325C169 -388 277 -535 321 -598C334 -616 338 -618 359 -624C370 -627 376 -630 376 -633C376 -636 372 -640 365 -645L312 -685C307 -668 275 -610 239 -548L96 -550C137 -603 187 -676 226 -742C244 -771 249 -777 267 -783C277 -786 282 -789 282 -792C282 -795 278 -798 271 -804L215 -848C194 -783 157 -686 116 -616C89 -569 81 -563 37 -551L66 -497C69 -491 72 -488 75 -488C78 -488 81 -491 86 -495C101 -509 160 -522 229 -530C119 -341 108 -337 54 -328L80 -276C84 -268 87 -265 91 -265C93 -265 97 -267 101 -269C128 -284 193 -301 317 -322C318 -315 318 -308 318 -302C318 -279 326 -270 339 -270C358 -270 376 -287 376 -315C376 -362 310 -430 276 -457ZM267 -252C303 -195 312 -148 312 -119C312 -78 317 -72 334 -72C349 -72 367 -86 367 -112C367 -154 329 -205 278 -261ZM180 -227C196 -181 202 -147 202 -119C202 -98 199 -81 195 -64C193 -56 192 -49 192 -44C192 -27 200 -21 214 -21C226 -21 254 -30 254 -71C254 -106 242 -149 191 -234ZM102 -217C102 -131 82 -77 54 -40C40 -22 33 -8 33 2C33 15 45 28 60 28C88 28 126 -2 126 -120C126 -152 123 -186 116 -218Z"/>
</svg>