<svg xmlns="http://www.w3.org/2000/svg" viewBox="0 -1000 1000 1000">
	<path fill="#000000" d="M837 -635L808 -594H181L123 -643C125 -606 127 -557 127 -498V-148C127 -85 126 -20 124 39V49C124 66 126 73 132 73C136 73 143 70 152 65C173 54 177 50 177 37V31C174 -14 173 -70 173 -146V-572H453V-129C453 -58 451 0 447 51C446 57 446 62 446 66C446 75 448 79 453 79C457 79 464 76 475 70C496 59 498 56 498 40V-572H826V-21C826 -3 824 5 790 5C771 5 740 2 693 -3V12C776 32 797 47 804 75C805 81 807 84 811 84C813 84 817 83 821 81C863 61 871 45 871 6V-558L898 -572C903 -575 906 -577 906 -579C906 -581 903 -584 898 -587ZM711 -198C727 -177 738 -159 744 -140L676 -132V-268H731V-241C731 -235 732 -232 736 -232C743 -232 770 -239 770 -255C770 -258 770 -262 769 -267C766 -289 766 -309 766 -328V-407C786 -417 789 -418 789 -421C789 -423 787 -426 783 -429L741 -466L718 -435H676V-503C700 -517 703 -519 703 -522C703 -525 700 -527 694 -531L636 -564C638 -525 640 -486 640 -435H595L543 -478C546 -448 546 -413 546 -389V-302C546 -289 543 -231 543 -219C543 -205 545 -200 550 -200C558 -200 583 -211 583 -232V-268H640V-127L520 -113L543 -71C545 -68 546 -67 549 -67C551 -67 553 -68 556 -70C567 -78 591 -86 623 -94L748 -124C749 -115 750 -107 750 -98C750 -75 756 -68 775 -68C784 -68 795 -84 795 -102C795 -117 787 -151 720 -207ZM676 -287V-416H731V-287ZM583 -287V-416H640V-287ZM349 -326C368 -299 377 -281 380 -259L256 -255C294 -302 360 -383 380 -408C389 -419 395 -423 406 -428C416 -432 421 -435 421 -438C421 -440 418 -442 413 -445L367 -474C358 -451 342 -422 326 -392L234 -390C271 -436 307 -484 319 -504C324 -512 330 -517 341 -521C348 -524 351 -526 351 -528C351 -530 349 -532 345 -534L297 -560C279 -508 260 -462 232 -417C222 -402 211 -393 186 -386L205 -347C207 -342 210 -340 213 -340C216 -340 218 -341 222 -343C239 -353 258 -361 281 -366L315 -374C248 -264 247 -264 206 -256L228 -212C230 -207 232 -205 236 -205C238 -205 240 -206 244 -208C261 -218 316 -231 339 -235L382 -242C384 -216 392 -210 402 -210C419 -210 427 -228 427 -249C423 -277 405 -295 358 -334ZM361 -178C377 -154 385 -121 385 -91C385 -87 384 -71 384 -68C384 -54 392 -47 401 -47C418 -47 427 -62 427 -83C427 -113 410 -146 371 -186ZM286 -173C300 -146 304 -119 304 -98C304 -83 302 -71 300 -64C299 -61 299 -59 299 -57C299 -46 306 -40 315 -40C333 -40 346 -63 346 -75C346 -104 334 -136 297 -180ZM232 -177C233 -169 233 -161 233 -154C233 -108 221 -65 212 -50C201 -33 197 -24 197 -18C197 -14 198 -3 212 -3C259 -3 259 -63 259 -84C259 -109 256 -139 247 -180ZM889 -789L840 -731H615V-800C648 -821 649 -821 649 -825C649 -828 644 -831 636 -834L568 -861C570 -838 571 -804 571 -775V-731H387V-797C420 -814 421 -815 421 -818C421 -821 418 -824 411 -827L340 -865C342 -846 343 -826 343 -779V-731H94C71 -731 46 -732 21 -735L49 -698C66 -705 95 -709 116 -709H343C343 -696 342 -639 342 -628C342 -614 344 -609 350 -609C355 -609 389 -619 389 -634C389 -646 387 -698 387 -709H571C571 -695 570 -635 570 -622C570 -609 572 -603 578 -603C582 -603 588 -605 596 -609C613 -617 617 -620 617 -629V-633C615 -649 615 -675 615 -709H933C943 -709 947 -710 947 -714C947 -717 944 -722 937 -731Z"/>
</svg>