<svg xmlns="http://www.w3.org/2000/svg" viewBox="0 -1000 1000 1000">
	<path fill="#000000" d="M872 -822L839 -780H463L409 -831C411 -802 412 -755 412 -732V-634C412 -621 410 -557 410 -550C410 -544 411 -541 415 -541C418 -541 424 -543 433 -547C452 -555 454 -559 454 -572V-595H857V-567C857 -559 858 -554 863 -554C869 -554 904 -564 904 -581C904 -583 903 -585 903 -588C900 -612 899 -651 899 -678V-741L933 -758C940 -761 943 -764 943 -767C943 -769 940 -773 934 -777ZM607 -616V-757H710V-616ZM754 -616V-757H857V-616ZM454 -616V-757H563V-616ZM260 -430C286 -399 302 -365 311 -336L131 -330C167 -378 278 -536 332 -619C339 -629 344 -631 362 -635C376 -638 382 -640 382 -644C382 -647 378 -650 371 -655L315 -691C303 -660 279 -615 246 -562L116 -558C163 -645 193 -698 239 -778C244 -787 248 -790 265 -797C276 -801 280 -805 280 -808C280 -811 277 -813 271 -816L209 -843C186 -765 158 -697 114 -610C99 -580 94 -571 42 -563L71 -508C73 -504 75 -502 78 -502C81 -502 83 -503 87 -506C103 -517 126 -528 234 -541C202 -481 164 -420 133 -376C114 -349 101 -338 66 -332L95 -272C97 -268 99 -266 102 -266C104 -266 106 -268 110 -270C133 -286 172 -300 316 -317C317 -308 318 -299 318 -291C318 -269 327 -261 339 -261C356 -261 371 -275 371 -305C371 -332 354 -367 272 -439ZM270 -256C314 -201 323 -130 323 -99C323 -81 331 -73 341 -73C358 -73 377 -89 377 -117C377 -147 354 -199 281 -265ZM909 -419L863 -375H671V-466H875C884 -466 889 -467 889 -471C889 -474 887 -478 882 -483L833 -536L794 -488H671V-541C697 -556 700 -557 700 -560C700 -563 697 -564 693 -566L623 -594C625 -558 626 -524 626 -488H500C477 -488 452 -490 427 -492L455 -455C472 -462 501 -466 522 -466H626V-375H440C417 -375 392 -377 367 -379L395 -342C412 -349 441 -353 462 -353H493C528 -321 542 -292 551 -255C556 -234 559 -231 568 -231C584 -231 598 -251 598 -270C598 -295 577 -321 518 -353H742C729 -323 701 -267 680 -230H483C460 -230 435 -232 410 -234L438 -197C455 -204 484 -208 505 -208H630V-106H451C428 -106 403 -108 378 -110L406 -73C423 -80 452 -84 473 -84H630C630 -33 629 15 627 57V68C627 82 629 88 636 88C639 88 644 86 651 83C671 75 677 70 677 57C677 55 676 52 676 49C673 17 672 -27 672 -84H931C940 -84 945 -86 945 -90C945 -94 942 -98 937 -104L891 -156L850 -106H672V-208H885C894 -208 899 -210 899 -214C899 -218 896 -222 891 -228L846 -279L805 -230H702C759 -299 779 -309 801 -312C806 -313 808 -314 808 -316C808 -318 806 -321 803 -323L762 -353H947C956 -353 961 -355 961 -359C961 -361 958 -365 954 -370ZM171 -234C194 -189 203 -139 203 -98C203 -85 202 -73 200 -63C200 -46 204 -33 217 -33C237 -33 256 -48 256 -82C256 -112 242 -155 184 -242ZM97 -220C98 -207 99 -195 99 -183C99 -116 81 -60 53 -30C46 -22 43 -13 43 -5C43 12 56 22 70 22C94 22 131 -11 131 -100C131 -135 125 -177 112 -223Z"/>
</svg>