<svg xmlns="http://www.w3.org/2000/svg" viewBox="0 -1000 1000 1000">
	<path fill="#000000" d="M440 -493L401 -440H292V-648H453C461 -648 465 -649 465 -652C465 -655 462 -658 457 -664L406 -719L369 -670H181C195 -699 211 -729 226 -759C237 -781 242 -784 264 -794C271 -797 275 -800 275 -803C275 -806 271 -808 263 -812L199 -841C159 -711 104 -575 51 -476L65 -469C90 -504 128 -570 169 -648H247V-440H108C85 -440 60 -442 35 -444L63 -407C80 -414 109 -418 130 -418H247V-113L139 -96V-299C169 -315 173 -317 173 -320C173 -323 170 -326 164 -329L92 -367C94 -330 96 -262 96 -221V-117C96 -97 92 -90 59 -75L94 -35C98 -31 100 -29 103 -29C106 -29 110 -31 114 -36C124 -48 141 -59 181 -69L396 -124V-59C396 -49 397 -44 401 -44C405 -44 411 -47 420 -52C441 -63 445 -66 445 -78V-84C442 -125 441 -155 441 -196V-294C445 -297 470 -312 470 -314C470 -317 466 -320 458 -324L392 -359C394 -324 396 -276 396 -237V-137L292 -120V-418H489C498 -418 502 -419 502 -423C502 -425 499 -430 493 -436ZM956 15C810 -46 722 -161 693 -332H944C954 -332 958 -334 958 -337C958 -340 955 -344 950 -349L897 -406L864 -354H835V-600L868 -618C876 -622 880 -625 880 -628C880 -631 876 -634 870 -638L806 -682L775 -641H657C658 -683 659 -730 659 -785L686 -802C691 -805 693 -808 693 -811C693 -813 691 -816 685 -819L611 -859C611 -776 611 -704 610 -641H558C535 -641 510 -643 485 -645L513 -607C530 -614 559 -618 580 -618H610C609 -499 606 -414 601 -354H542C519 -354 494 -356 469 -358L497 -321C514 -328 543 -332 564 -332H598C577 -140 509 -36 285 84L292 97C526 2 623 -127 644 -332H671C692 -158 755 -55 844 36C849 41 853 44 856 44C858 44 861 42 863 40C873 30 891 25 917 25C928 25 941 26 956 28ZM646 -354C651 -416 655 -485 657 -618H788V-354Z"/>
</svg>