<svg xmlns="http://www.w3.org/2000/svg" viewBox="0 -1000 1000 1000">
	<path fill="#000000" d="M815 -828L791 -782H209L144 -829C146 -800 147 -754 147 -731V-619C147 -609 145 -564 145 -555C145 -547 146 -544 151 -544C154 -544 160 -546 169 -550C188 -558 190 -562 190 -575V-611H807C807 -581 807 -577 815 -577C819 -577 825 -579 834 -583C851 -590 854 -594 854 -605C854 -615 850 -677 850 -690V-747L881 -766C887 -770 889 -772 889 -774C889 -777 887 -779 882 -782ZM404 -631V-762H576V-631ZM619 -631V-762H807V-631ZM190 -631V-762H361V-631ZM820 -569C822 -540 824 -485 824 -453V-30C824 -17 819 -9 779 -9C755 -9 719 -12 665 -18L662 -2C762 22 775 29 789 67C792 75 795 77 798 77C800 77 801 77 803 76C860 44 867 28 867 -10V-506L886 -517C894 -522 898 -525 898 -528C898 -531 894 -534 885 -538ZM428 -214L404 -175H198L138 -215C140 -184 141 -136 141 -112V-74C141 -25 140 19 138 39C137 47 137 53 137 58C137 67 139 71 145 71C149 71 156 69 165 66C184 60 186 56 186 46V-1H416V48C416 58 417 62 422 62C426 62 433 60 443 55C462 46 467 43 467 32C467 29 467 25 466 21C463 1 461 -35 461 -74V-140L488 -159C492 -162 494 -165 494 -167C494 -170 492 -172 488 -175ZM186 -21V-155H416V-21ZM245 -597C275 -572 296 -532 297 -513C298 -495 305 -486 321 -486C336 -486 352 -505 352 -528C352 -559 327 -579 254 -608ZM519 -527L478 -477H101C78 -477 53 -479 28 -481L56 -446C73 -453 102 -457 123 -457H581C585 -457 587 -458 587 -460C587 -462 585 -465 582 -468ZM447 -429L409 -383H177C154 -383 129 -385 104 -387L132 -352C149 -359 178 -363 199 -363H504C508 -363 510 -364 510 -366C510 -368 508 -371 505 -374ZM634 -529C635 -502 637 -454 637 -424V-271C637 -250 634 -160 634 -141C634 -130 636 -124 642 -124C643 -124 684 -136 684 -151V-155C681 -188 680 -215 680 -270V-464L704 -476C711 -479 715 -482 715 -485C715 -488 711 -491 703 -495ZM449 -326L410 -282H167C144 -282 119 -284 94 -286L122 -251C139 -258 168 -262 189 -262H503C507 -262 508 -263 508 -265C508 -267 507 -270 504 -273Z"/>
</svg>