<svg xmlns="http://www.w3.org/2000/svg" viewBox="0 -1000 1000 1000">
	<path fill="#000000" d="M146 -647C116 -647 98 -648 73 -651L101 -613C118 -620 147 -624 168 -624H290V-546C290 -535 289 -480 289 -475C289 -462 293 -456 300 -456C310 -456 335 -467 335 -480C335 -490 334 -535 334 -544V-774C361 -790 365 -791 365 -796C365 -799 362 -801 357 -803L288 -833C290 -814 290 -801 290 -747V-647ZM919 -624C928 -624 933 -627 933 -632C933 -636 930 -642 923 -650L860 -721L818 -648H710V-760L731 -772C739 -776 743 -778 743 -781C743 -784 739 -788 730 -792L663 -825C665 -795 666 -764 666 -739V-479C666 -465 667 -459 673 -459C678 -459 711 -470 711 -486C711 -496 710 -538 710 -547V-624ZM477 -822C479 -803 479 -790 479 -736V-584C479 -573 478 -519 478 -513C478 -500 482 -494 490 -494C499 -494 520 -503 520 -516C520 -526 519 -573 519 -582V-763L542 -776C547 -779 550 -782 550 -785C550 -788 547 -790 542 -792ZM512 -341H854C865 -341 871 -342 871 -346C871 -349 867 -354 859 -362L807 -417L763 -363H512V-425C540 -441 543 -443 543 -447C543 -450 540 -452 535 -454L464 -484C466 -465 466 -452 466 -398V-363H182C159 -363 134 -364 109 -367L137 -330C154 -337 183 -341 204 -341H466V-167H109C86 -167 60 -169 33 -175L64 -130C81 -137 110 -141 131 -141H466C466 -62 465 8 463 64V72C463 85 464 90 470 90C475 90 481 87 490 83C511 74 515 70 515 57V49C513 16 512 -44 512 -141H959C970 -141 976 -144 976 -148C976 -153 971 -159 963 -167L909 -222L867 -167H512Z"/>
</svg>