<svg xmlns="http://www.w3.org/2000/svg" viewBox="0 -1000 1000 1000">
	<path fill="#000000" d="M836 -787L794 -738H553C532 -738 509 -740 487 -742L512 -706C527 -712 554 -716 573 -716H889C897 -716 902 -718 902 -721C902 -724 899 -728 893 -733ZM415 -461L378 -415H278V-535H432C441 -535 445 -537 445 -540C445 -543 442 -547 437 -553L395 -599L361 -556H278V-676H451C460 -676 465 -678 465 -682C465 -684 462 -689 457 -694L407 -746L368 -697H278V-794C312 -817 312 -818 312 -820C312 -823 309 -825 301 -829L228 -862C230 -826 232 -768 232 -697H113C92 -697 69 -699 47 -701L72 -666C87 -672 114 -676 133 -676H232V-556H121C100 -556 77 -558 55 -560L80 -525C95 -531 122 -535 141 -535H232V-415H95C74 -415 51 -417 29 -419L54 -383C69 -389 96 -393 115 -393H221C179 -258 121 -130 37 -16L45 -6C127 -95 178 -187 232 -312V-156C232 -99 231 -9 228 50C228 56 227 61 227 65C227 77 229 82 236 82C241 82 247 80 257 76C278 67 282 63 282 49V42C279 -3 278 -56 278 -154V-305C338 -259 361 -229 372 -202C383 -174 391 -168 400 -168C414 -168 428 -188 428 -210C428 -219 425 -229 418 -237C402 -256 355 -289 278 -323V-393H458C466 -393 471 -395 471 -399C471 -402 468 -406 463 -411ZM894 -515L853 -465H514C493 -465 470 -467 448 -469L473 -433C488 -439 515 -443 534 -443H636C596 -323 541 -197 503 -118C477 -65 463 -56 418 -56L460 5C463 9 465 10 467 10C469 10 471 9 474 6C487 -7 528 -22 605 -33L838 -67C847 -44 852 -23 856 -2C862 31 873 38 883 38C903 38 916 16 916 -15C916 -26 915 -38 911 -51C900 -87 817 -190 741 -262L732 -252C778 -192 811 -135 832 -83L491 -57C527 -103 624 -285 668 -376C671 -382 676 -387 698 -397C705 -400 708 -403 708 -405C708 -408 705 -411 699 -414L647 -443H948C956 -443 961 -445 961 -448C961 -451 958 -455 952 -460Z"/>
</svg>