<svg xmlns="http://www.w3.org/2000/svg" viewBox="0 -1000 1000 1000">
	<path fill="#000000" d="M830 -798L796 -746H217C197 -746 170 -748 148 -750L174 -713C189 -719 217 -724 237 -724H813C810 -529 801 -272 790 -170C781 -82 767 -47 697 -47C663 -47 616 -55 549 -70L545 -52C649 -23 671 -11 686 37C687 42 690 44 693 44C695 44 697 44 699 43C797 3 829 -36 835 -135C848 -340 855 -495 862 -698L904 -725C908 -728 910 -730 910 -733C910 -735 908 -738 904 -741ZM737 -574C481 -425 305 -326 86 -216L152 -166C156 -163 159 -162 161 -162C165 -162 167 -165 171 -170C195 -207 285 -267 746 -559Z"/>
</svg>