<svg xmlns="http://www.w3.org/2000/svg" viewBox="0 -1000 1000 1000">
	<path fill="#000000" d="M360 -801L327 -758H191L126 -808C128 -774 129 -715 129 -667V-416C129 -117 120 -72 36 76L46 87C145 -30 175 -146 176 -306H345V-25C345 -8 344 1 315 1C296 1 265 -3 214 -11L211 3C300 27 314 36 324 75C325 81 327 84 330 84C331 84 333 83 336 82C387 57 391 49 391 9V-716L422 -736C429 -740 432 -743 432 -746C432 -749 429 -753 422 -757ZM176 -538V-736H345V-538ZM176 -328V-516H345V-328ZM889 -74L845 -16H697V-461H904C914 -461 919 -464 919 -468C919 -472 916 -477 909 -483L851 -540L807 -483H697V-774L726 -795C732 -799 735 -802 735 -805C735 -809 731 -812 722 -816L644 -857C646 -822 648 -758 648 -719V-483H528C506 -483 481 -485 458 -487L485 -451C500 -457 529 -461 549 -461H648V-16H496C473 -16 447 -18 423 -20L451 17C467 11 497 7 518 7H942C951 7 956 5 956 0C956 -3 953 -8 947 -14Z"/>
</svg>