<svg xmlns="http://www.w3.org/2000/svg" viewBox="0 -1000 1000 1000">
	<path fill="#000000" d="M918 -191C904 -43 896 -26 857 -19C828 -14 760 -11 693 -11C551 -11 535 -14 535 -63V-405H822V-369C822 -361 823 -356 829 -356C832 -356 838 -358 848 -362C869 -371 872 -375 872 -388V-396C869 -441 867 -488 867 -539V-717L898 -735C903 -738 906 -741 906 -744C906 -747 903 -750 898 -754L838 -804L808 -762H542L487 -808C489 -768 490 -717 490 -689V-60C490 33 516 33 715 33C931 33 940 21 968 -29C970 -31 970 -33 970 -35C970 -39 968 -41 964 -43C942 -53 933 -67 933 -130C933 -147 934 -167 935 -191ZM702 -425V-740H822V-425ZM535 -425V-740H657V-425ZM352 -819L322 -778H196L138 -821C140 -787 141 -728 141 -680V-429C141 -144 131 -99 40 63L53 72C155 -50 184 -168 185 -328H337V-40C337 -22 335 -13 312 -13C293 -13 262 -19 208 -29L206 -14C291 11 301 22 311 61C312 67 314 70 317 70C319 70 321 69 323 68C377 41 383 32 383 -11V-739L413 -759C418 -762 421 -765 421 -768C421 -771 418 -773 413 -777ZM185 -567V-756H337V-567ZM185 -350V-545H337V-350Z"/>
</svg>