<svg xmlns="http://www.w3.org/2000/svg" viewBox="0 -1000 1000 1000">
	<path fill="#000000" d="M892 -568L847 -513H448C456 -525 464 -537 471 -549C483 -569 487 -572 504 -576C516 -579 521 -582 521 -585C521 -588 517 -592 507 -598L453 -631C435 -591 413 -552 390 -513H123C100 -513 75 -515 50 -517L78 -480C95 -487 124 -491 145 -491H377C286 -345 166 -209 38 -101L46 -89C146 -158 230 -238 301 -319V-132C301 -53 299 15 296 63C296 68 295 72 295 75C295 85 297 89 302 89C306 89 313 86 323 81C345 70 347 67 347 48V-135H720V-17C720 -3 718 5 690 5C670 5 639 1 587 -7L585 8C671 31 690 40 697 74C699 83 701 86 705 86C708 86 711 85 716 82C761 56 766 38 766 -14V-353L791 -367C797 -370 801 -373 801 -376C801 -379 797 -382 790 -388L735 -430L705 -389H359C387 -424 412 -459 434 -491H942C953 -491 958 -492 958 -496C958 -500 954 -505 946 -513ZM347 -273V-367H720V-273ZM347 -157V-251H720V-157ZM709 -856C664 -820 592 -772 528 -736C440 -759 338 -779 214 -795L212 -781C312 -760 403 -736 482 -711C358 -648 226 -593 116 -555L122 -543C245 -570 388 -623 532 -695C639 -659 720 -621 766 -588C788 -573 795 -568 801 -568C809 -568 819 -577 819 -596C819 -612 811 -631 794 -639C733 -669 664 -696 582 -721C621 -741 660 -762 698 -785C713 -793 731 -798 741 -798C743 -798 752 -797 754 -797C759 -797 762 -798 762 -801C762 -804 758 -809 752 -815Z"/>
</svg>