<svg xmlns="http://www.w3.org/2000/svg" viewBox="0 -1000 1000 1000">
	<path fill="#000000" d="M844 -796L810 -751H634L568 -801C570 -767 571 -708 571 -660V-377C571 -134 518 -73 293 82L298 95C527 -17 611 -136 617 -297H826V-48C826 -23 825 -13 796 -13C776 -13 743 -17 688 -26L684 -11C771 10 793 28 800 65C801 71 804 74 807 74C808 74 809 73 811 72C862 44 873 29 873 -35V-706L901 -723C907 -726 909 -729 909 -732C909 -736 906 -739 901 -744ZM617 -535V-729H826V-535ZM617 -319V-513H826V-319ZM444 -681L406 -627H305V-775C339 -796 339 -796 339 -800C339 -803 335 -806 327 -810L255 -847C257 -813 258 -782 258 -745V-627H115C92 -627 67 -629 42 -631L70 -594C87 -601 116 -605 137 -605H258V-397H177L122 -441C124 -410 125 -362 125 -338V-181C125 -173 122 -67 122 -45C122 -30 124 -24 131 -24C135 -24 142 -26 151 -30C168 -37 170 -43 170 -55V-127H383V-81C383 -73 384 -68 390 -68C393 -68 399 -70 409 -74C430 -83 433 -87 433 -100C433 -113 430 -169 430 -180V-365C456 -385 456 -385 456 -389C456 -392 453 -395 447 -399L391 -438L363 -397H305V-605H496C505 -605 510 -607 510 -612C510 -616 507 -621 500 -627ZM170 -149V-375H383V-149Z"/>
</svg>