<svg xmlns="http://www.w3.org/2000/svg" viewBox="0 -1000 1000 1000">
	<path fill="#000000" d="M292 -800L267 -760H174L119 -801C121 -767 122 -708 122 -660V-404C122 -202 105 -61 36 78L51 85C125 -19 163 -184 166 -308H280V-45C280 -28 275 -18 250 -18C233 -18 206 -22 164 -33L162 -20C224 -4 247 10 255 39C257 46 259 49 262 49C265 49 269 48 274 45C318 22 325 3 325 -31V-728L348 -742C353 -745 356 -748 356 -750C356 -753 353 -755 348 -759ZM166 -546V-738H280V-546ZM166 -330V-524H280V-330ZM652 -361C686 -311 698 -270 698 -239C698 -214 704 -210 716 -210C728 -210 753 -227 753 -255C753 -288 724 -317 659 -370ZM922 -521L892 -481H858V-601C868 -606 885 -615 885 -617C885 -619 883 -621 878 -624L809 -659C811 -624 813 -545 813 -481H711C688 -481 663 -483 638 -485L666 -448C683 -455 712 -459 733 -459H813V-23C813 -4 809 7 780 7C760 7 730 2 682 -7L678 6C750 21 773 38 780 67C782 77 785 80 789 80C791 80 794 80 797 78C854 51 858 34 858 -13V-459H965C972 -459 975 -460 975 -463C975 -465 973 -468 968 -473ZM601 -848C643 -807 657 -770 661 -741C662 -729 669 -722 678 -722C692 -722 713 -744 713 -770C713 -774 713 -779 711 -784C706 -799 688 -823 607 -856ZM905 -766L872 -719H472L420 -763C421 -729 423 -685 423 -647V-546C423 -207 417 -77 313 84L324 92C456 -61 468 -229 468 -523V-697H951C961 -697 965 -698 965 -701C965 -704 962 -708 954 -716ZM621 -673C585 -571 537 -464 470 -353L475 -338C499 -367 522 -398 545 -432V-101C545 -49 544 -7 540 49C539 56 539 62 539 67C539 78 541 83 547 83C552 83 559 80 570 74C588 64 592 61 592 47C592 24 590 -78 590 -99V-503C607 -532 624 -563 641 -596C651 -616 655 -620 669 -624C677 -626 681 -628 681 -630C681 -632 678 -635 672 -639Z"/>
</svg>