<svg xmlns="http://www.w3.org/2000/svg" viewBox="0 -1000 1000 1000">
	<path fill="#000000" d="M325 -814L295 -771H184L121 -827C123 -793 124 -734 124 -686L123 -462C121 -115 95 -30 29 75L43 84C135 -38 152 -83 160 -309H307V-43C307 -23 300 -12 269 -12C248 -12 214 -17 163 -29L160 -12C248 12 263 26 272 62C273 68 275 70 279 70C280 70 282 70 284 69C340 48 353 25 353 -35V-733L383 -751C388 -754 391 -757 391 -759C391 -762 388 -765 383 -769ZM167 -550L172 -749H307V-550ZM161 -331L166 -528H307V-331ZM969 -4C863 -21 776 -61 704 -143C755 -177 823 -219 848 -232C856 -237 874 -240 889 -242C896 -243 899 -245 899 -247C899 -249 897 -252 892 -255L832 -294C799 -258 753 -212 692 -156C661 -195 627 -262 610 -326H931C939 -326 943 -328 943 -331C943 -334 940 -338 935 -343L872 -402L831 -348H536V-472H846C854 -472 858 -473 858 -476C858 -478 855 -482 849 -488L790 -547L748 -495H536V-613H848C856 -613 861 -614 861 -617C861 -619 857 -623 850 -630L789 -687L749 -635H536V-745H903C913 -745 919 -746 919 -749C919 -752 915 -756 908 -763L850 -819L808 -768H552L490 -828C491 -796 492 -733 492 -706V-348H425C403 -348 379 -350 356 -352L382 -316C409 -326 442 -326 473 -326V-43C473 -18 464 2 433 25L476 76C478 79 480 80 483 80C485 80 487 79 489 76C508 48 523 34 576 -4L671 -72L663 -87L517 -10V-326H591C624 -159 692 -47 863 45C866 47 869 47 871 47C874 47 876 45 878 43C894 21 915 10 969 10Z"/>
</svg>