<svg xmlns="http://www.w3.org/2000/svg" viewBox="0 -1000 1000 1000">
	<path fill="#000000" d="M887 -838L849 -785H451C428 -785 403 -787 378 -789L406 -754C423 -761 452 -765 473 -765H548V-637H460L405 -675C407 -646 408 -600 408 -577V-455C408 -445 406 -401 406 -392C406 -384 408 -381 412 -381C416 -381 422 -382 430 -386C449 -394 451 -398 451 -411V-433H843C843 -400 843 -396 851 -396C855 -396 861 -398 870 -402C887 -409 892 -413 892 -426C892 -436 888 -505 888 -520V-608L910 -623C914 -626 916 -628 916 -631C916 -634 913 -637 907 -641L852 -678L826 -637H736V-765H940C949 -765 953 -767 953 -771C953 -775 950 -779 944 -785ZM593 -453V-617H691V-453ZM593 -637V-765H691V-637ZM736 -453V-617H843V-453ZM451 -453V-617H548V-453ZM293 -823L269 -781H180L121 -824C123 -790 124 -731 124 -683V-437C124 -164 99 -63 28 81L41 88C117 -11 165 -154 168 -319H283V-45C283 -23 282 -14 249 -14C233 -14 208 -17 170 -21L168 -7C239 8 253 24 262 50C264 56 265 58 268 58C270 58 272 57 275 56C314 37 328 18 328 -16V-751L346 -762C352 -766 355 -769 355 -772C355 -775 352 -779 346 -783ZM168 -565V-761H283V-565ZM168 -339V-545H283V-339ZM896 -344L856 -293H575L618 -379C648 -389 651 -390 651 -393C651 -395 649 -397 643 -400L592 -428C573 -385 551 -338 530 -293H418C395 -293 370 -295 345 -297L373 -263C390 -270 419 -274 440 -274H522C495 -218 471 -168 455 -137C516 -122 575 -103 628 -83C566 -29 471 17 314 65L315 77C495 45 602 1 674 -65C746 -35 804 -3 840 28C864 49 877 57 885 57C894 57 905 44 905 28C905 -25 817 -59 703 -95C745 -143 774 -202 799 -274H947C957 -274 962 -275 962 -279C962 -282 959 -286 951 -293ZM565 -274H742C722 -209 698 -156 656 -110C610 -123 558 -137 503 -150Z"/>
</svg>