<svg xmlns="http://www.w3.org/2000/svg" viewBox="0 -1000 1000 1000">
	<path fill="#000000" d="M648 -225V-365H760V-225ZM922 -88L889 -48H802V-209H939C943 -209 945 -210 945 -211C945 -212 944 -213 942 -215L898 -263L864 -225H802V-365H932C937 -365 939 -366 939 -367C939 -369 938 -370 935 -373L893 -422L863 -381H802V-515H933C938 -515 940 -516 940 -517C940 -519 939 -520 936 -523L894 -569L864 -531H651C665 -556 679 -584 693 -611C701 -627 706 -630 719 -634C723 -635 725 -637 725 -638C725 -640 724 -641 721 -643L672 -676C637 -569 598 -474 543 -377L553 -369C570 -393 589 -422 608 -455V-130C608 -74 607 -13 605 45V56C605 70 606 75 611 75C614 75 619 73 625 70C645 59 648 58 648 45V-32H966C970 -32 972 -32 972 -33C972 -34 970 -36 968 -38ZM648 -381V-515H760V-381ZM648 -48V-209H760V-48ZM531 -573C515 -540 500 -505 484 -472L374 -454C403 -493 435 -548 471 -609C480 -624 487 -632 501 -635C506 -637 508 -638 508 -641C508 -642 507 -645 503 -648L461 -681C439 -619 414 -556 392 -511C370 -468 361 -461 332 -454L356 -415C357 -413 359 -411 361 -411C363 -411 365 -412 367 -414C380 -422 397 -431 418 -438L476 -455C445 -392 416 -333 392 -294C375 -269 361 -258 333 -251L362 -210C363 -207 366 -206 369 -206C370 -206 371 -206 372 -207C389 -217 405 -226 424 -232L498 -256C478 -114 436 -35 322 60L327 69C473 -20 526 -141 539 -279C543 -319 549 -329 559 -333C563 -335 564 -336 564 -338C564 -340 563 -342 560 -343L508 -369C507 -337 504 -303 500 -267L377 -248C429 -316 487 -412 537 -500C549 -522 557 -530 578 -534C582 -535 584 -536 584 -538C584 -540 582 -541 579 -543ZM293 -786L268 -752H166L117 -792C119 -758 120 -702 120 -655V-382C120 -195 102 -62 29 73L40 79C115 -28 160 -167 162 -314H280V-45C280 -22 279 -12 252 -12C235 -12 210 -16 170 -23L167 -12C220 3 248 18 254 50C255 55 257 57 260 57C261 57 263 56 265 55C314 31 322 16 322 -31V-722L341 -735C345 -738 347 -740 347 -742C347 -744 345 -747 341 -749ZM162 -552V-737H280V-552ZM162 -332V-535H280V-332ZM883 -759L845 -711H405C387 -711 368 -713 349 -715L370 -684C383 -691 405 -695 421 -695H939C943 -695 945 -696 945 -698C945 -699 944 -701 941 -704ZM749 -658C772 -631 780 -601 786 -564C788 -554 793 -550 800 -550C808 -550 828 -561 828 -586C828 -618 772 -653 756 -662ZM582 -848C616 -814 627 -786 632 -754C637 -727 642 -724 654 -724C669 -724 685 -742 685 -765C685 -795 657 -823 589 -852Z"/>
</svg>