<svg xmlns="http://www.w3.org/2000/svg" viewBox="0 -1000 1000 1000">
	<path fill="#000000" d="M902 -415L870 -370H715V-437H904C910 -437 913 -438 913 -441C913 -443 911 -445 907 -449L857 -494L830 -455H715V-514H901C907 -514 909 -516 909 -518C909 -520 908 -523 904 -526L853 -572L825 -532H715V-594H937C943 -594 945 -596 945 -598C945 -600 944 -603 940 -606L881 -658L848 -612H524C533 -624 542 -637 550 -649C561 -666 565 -669 575 -670C581 -671 584 -672 584 -675C584 -678 581 -681 575 -686L538 -716C499 -637 436 -541 370 -461L379 -453C417 -483 452 -520 483 -559V-433C483 -393 483 -361 481 -334V-326C481 -314 483 -310 489 -310C493 -310 498 -312 504 -315C524 -326 524 -328 524 -352H956C962 -352 965 -353 965 -356C965 -358 963 -361 959 -364ZM524 -455V-514H672V-455ZM524 -532V-594H672V-532ZM524 -370V-437H672V-370ZM779 -317L758 -280H391L333 -316C335 -279 337 -237 337 -196V-49C337 -15 336 32 334 67V73C334 82 335 86 341 86C345 86 350 84 359 80C376 72 380 68 380 56V-100H772V-15C772 6 768 17 735 17C713 17 679 12 626 2L623 16C705 37 724 51 730 76C731 82 734 85 737 85C739 85 741 84 744 83C810 59 816 44 816 10V-247L834 -262C839 -266 841 -269 841 -272C841 -275 839 -277 834 -280ZM380 -197V-262H772V-197ZM380 -118V-179H772V-118ZM635 -704C668 -674 677 -659 682 -642C689 -620 692 -615 699 -615C715 -615 726 -632 726 -650C726 -676 708 -694 641 -716ZM870 -799L826 -741H207L148 -787C151 -679 153 -503 153 -398C153 -166 115 -52 30 68L40 77C157 -36 193 -155 197 -384C199 -503 201 -632 203 -723H927C934 -723 938 -725 938 -728C938 -731 935 -735 930 -740ZM464 -845C496 -822 517 -789 522 -770C527 -750 532 -745 541 -745C560 -745 575 -766 575 -786C575 -816 542 -835 470 -856ZM384 -712C347 -632 287 -552 211 -471L219 -461C257 -492 288 -521 319 -555V-442C319 -426 317 -347 317 -340C317 -326 319 -321 325 -321C328 -321 333 -322 338 -325C358 -334 362 -338 362 -351C362 -360 360 -430 360 -445V-601C407 -661 407 -661 428 -665C434 -666 437 -668 437 -671C437 -674 434 -677 428 -681Z"/>
</svg>