<svg xmlns="http://www.w3.org/2000/svg" viewBox="0 -1000 1000 1000">
	<path fill="#000000" d="M436 -779C432 -708 415 -680 387 -659C374 -649 368 -638 368 -628C368 -614 380 -605 395 -605C410 -605 430 -614 444 -641L471 -601C488 -608 517 -612 538 -612H620V-475C584 -458 549 -441 514 -426L466 -465C467 -446 468 -426 468 -405C423 -387 379 -370 335 -355L336 -335C367 -341 412 -355 469 -375V-208C469 -166 468 -118 466 -88V-78C466 -66 468 -61 475 -61C478 -61 482 -62 487 -64C511 -72 511 -74 511 -95H809C809 -70 809 -67 815 -67C815 -67 856 -80 856 -98C856 -101 855 -103 855 -106C852 -133 851 -165 851 -219V-388C879 -402 883 -404 883 -408C883 -411 880 -415 875 -418L821 -456L792 -420H579C639 -446 707 -477 782 -514C831 -539 859 -549 876 -552C881 -553 883 -555 883 -556C883 -558 881 -561 877 -563L830 -595C806 -573 736 -534 662 -498V-612H826C835 -612 839 -614 839 -619C839 -623 836 -626 827 -635C883 -695 912 -711 950 -716C956 -717 959 -719 959 -721C959 -723 956 -726 951 -730L892 -777L858 -740H456C455 -753 453 -766 450 -779ZM511 -303H809V-225H511ZM511 -391C516 -394 522 -396 527 -398H809V-324H511ZM511 -203H809V-116H511ZM863 -718L817 -644L787 -674L748 -638H516C493 -638 469 -640 444 -642C452 -659 458 -684 457 -718ZM174 -765L114 -818C116 -784 117 -724 117 -677V-337C117 -144 106 -28 34 75L48 84C135 -17 160 -102 160 -317H280V-45C280 -28 276 -17 246 -17C228 -17 201 -21 160 -29L158 -13C232 7 246 20 254 47C256 54 258 57 262 57C263 57 266 56 269 54C320 28 324 14 324 -60V-727L352 -741C358 -744 361 -746 361 -749C361 -752 358 -755 353 -759L299 -805L270 -765ZM160 -743H280V-556H160ZM160 -534H280V-343H160ZM564 -845C611 -815 632 -782 637 -766C641 -753 649 -743 660 -743C678 -743 692 -759 692 -780C692 -817 663 -833 571 -854ZM517 -584C475 -540 398 -481 348 -449L356 -436C401 -457 470 -494 505 -516C525 -529 543 -536 561 -537C567 -538 570 -539 570 -541C570 -543 568 -546 563 -549ZM573 -87C521 -39 401 43 326 77L335 88C419 60 505 18 555 -13C580 -28 598 -34 617 -36C623 -37 626 -38 626 -41C626 -43 623 -46 619 -50ZM698 -58C796 -16 863 45 877 62C895 84 899 85 908 85C920 85 931 71 931 51C931 42 929 32 923 21C914 4 851 -32 704 -70Z"/>
</svg>