<svg xmlns="http://www.w3.org/2000/svg" viewBox="0 -1000 1000 1000">
	<path fill="#000000" d="M919 -270L879 -216H840L864 -712L900 -731C906 -734 908 -736 908 -738C908 -741 906 -744 900 -748L841 -794L812 -757H772C749 -757 734 -758 713 -760L741 -730C761 -736 773 -736 822 -736L814 -572H762C739 -572 714 -574 689 -576L717 -540C744 -551 776 -551 813 -551L806 -397H760C737 -397 712 -399 687 -401L715 -365C742 -376 776 -376 805 -376L798 -216H682V-757L716 -775C720 -777 722 -779 722 -781C722 -784 720 -786 716 -789L655 -831L627 -789H392L332 -844C334 -813 335 -765 335 -741V-216H203L198 -379H308C318 -379 323 -380 323 -383C323 -387 319 -392 311 -402L276 -442L247 -400H198L194 -552H312C321 -552 326 -553 326 -556C326 -559 323 -564 317 -572L282 -620L250 -573H193L189 -724C256 -744 288 -751 306 -751C308 -751 319 -749 321 -749C325 -749 327 -750 327 -753C327 -755 325 -758 322 -763L292 -808C258 -782 229 -765 200 -752L144 -796C147 -767 149 -748 149 -724L162 -216H95C72 -216 47 -218 22 -220L50 -184C67 -191 96 -195 117 -195H963C974 -195 979 -196 979 -200C979 -203 975 -208 967 -217ZM377 -216V-768H640V-216ZM562 -579L539 -544H483L429 -591C430 -561 431 -516 431 -493V-430C431 -409 429 -301 429 -300C429 -286 430 -281 436 -281C440 -281 445 -283 452 -286C471 -295 472 -298 472 -310V-343H549V-302C549 -294 550 -289 556 -289C565 -289 595 -299 595 -318C595 -321 594 -324 594 -328C591 -358 590 -377 590 -423V-511L617 -528C622 -531 625 -533 625 -535C625 -537 622 -540 617 -543ZM472 -364V-523H549V-364ZM371 -162C260 -64 150 12 48 62L56 77C138 52 267 -16 388 -94C402 -103 414 -107 437 -108C447 -109 452 -110 452 -113C452 -115 448 -119 438 -124ZM560 -129C661 -89 793 -4 827 31C865 70 871 75 881 75C894 75 907 62 907 41C907 27 902 9 887 -12C863 -46 724 -104 566 -143ZM560 -705L531 -667H463C440 -667 415 -669 390 -671L417 -635C434 -642 463 -646 484 -646H600C609 -646 613 -647 613 -650C613 -652 610 -656 603 -663Z"/>
</svg>