<svg xmlns="http://www.w3.org/2000/svg" viewBox="0 -1000 1000 1000">
	<path fill="#000000" d="M883 -792L844 -736H658V-792L685 -809C692 -813 695 -816 695 -818C695 -821 691 -823 683 -826L608 -854C610 -821 611 -793 611 -768V-736H382V-801C414 -820 417 -822 417 -825C417 -828 412 -830 403 -834L333 -860C335 -827 336 -800 336 -775V-736H98C75 -736 50 -738 25 -740L53 -705C70 -712 99 -716 120 -716H336C336 -696 336 -679 334 -651C332 -653 329 -655 325 -658L283 -686C143 -480 111 -440 26 -345L37 -333C85 -374 143 -435 208 -510V-391C208 -371 207 -281 207 -262C207 -247 209 -241 216 -241C220 -241 224 -243 231 -246C247 -252 250 -261 251 -289H900C911 -289 917 -290 917 -293C917 -296 912 -301 903 -310L854 -357L817 -309H550V-382H810C822 -382 827 -383 827 -386C827 -389 823 -394 814 -402L764 -446L730 -401H550V-479H826C838 -479 843 -480 843 -483C843 -486 839 -491 830 -499L782 -545L745 -499H550V-570H879C891 -570 896 -571 896 -574C896 -577 892 -583 883 -591L833 -638L797 -590H275C279 -594 282 -599 286 -603C305 -626 307 -629 334 -642C335 -640 338 -639 341 -639C341 -639 383 -646 383 -666C383 -674 382 -709 382 -716H611C611 -705 610 -658 610 -648C610 -632 615 -625 624 -625C625 -625 660 -631 660 -650C660 -661 658 -707 658 -716H932C941 -716 946 -717 946 -721C946 -723 943 -728 937 -734ZM251 -499V-561C253 -564 256 -567 258 -570H505V-499ZM251 -401V-479H505V-401ZM251 -309V-382H505V-309ZM446 -689C487 -659 495 -645 503 -606C503 -599 509 -595 518 -595C542 -595 550 -618 550 -638C545 -668 513 -686 452 -699ZM766 -257L742 -220H600C577 -220 552 -222 527 -224L555 -189C572 -196 601 -200 622 -200H758V-114H613C590 -114 565 -116 540 -118L568 -83C585 -90 614 -94 635 -94H758V-1H230V-92H469C477 -92 481 -94 481 -98C481 -102 478 -106 472 -112L424 -156L391 -112H230V-184C287 -190 380 -200 412 -204C432 -206 444 -208 454 -208C466 -208 474 -206 484 -202C486 -201 489 -200 490 -200C493 -200 495 -202 495 -204C495 -206 494 -208 491 -211L453 -256C414 -240 310 -214 230 -202L182 -239C184 -204 185 -140 185 -102V0C185 27 183 61 181 77V83C181 88 182 91 187 91C196 91 230 81 230 60V19H758V71C758 79 759 84 765 84C772 84 810 73 810 55C810 52 810 48 809 44C806 28 805 10 805 -17V-187L832 -202C837 -205 840 -207 840 -210C840 -212 837 -214 832 -217Z"/>
</svg>