<svg xmlns="http://www.w3.org/2000/svg" viewBox="0 -1000 1000 1000">
	<path fill="#000000" d="M407 -744L377 -702H270C309 -772 325 -793 345 -803C351 -806 354 -809 354 -811C354 -813 351 -815 345 -817L285 -839C278 -787 262 -735 249 -702H209L155 -747C157 -715 158 -653 158 -610V-401H114C91 -401 66 -403 41 -405L69 -368C96 -379 130 -379 158 -379C158 -145 143 -70 59 90L70 98C182 -43 200 -149 200 -379H396V-34C396 -10 395 0 362 0C342 0 308 -4 254 -12L252 2C338 24 347 33 358 69C360 76 362 78 365 78C368 78 370 77 374 75C439 42 440 29 440 -20V-667L469 -684C473 -686 475 -688 475 -690C475 -693 473 -695 469 -698ZM247 -322C272 -267 280 -236 280 -188C280 -163 286 -155 298 -155C312 -155 330 -179 330 -204C330 -240 281 -299 257 -327ZM200 -401V-680H396V-401ZM255 -613C273 -560 280 -524 281 -490C282 -464 288 -455 299 -455C316 -455 331 -479 331 -500C331 -504 330 -508 329 -512C320 -538 307 -559 264 -618ZM876 -632C878 -600 879 -579 879 -552V-51L754 -48V-771L780 -790C786 -794 789 -797 789 -799C789 -802 786 -805 779 -808L707 -843C709 -814 710 -775 710 -752V-47L583 -44V-556C594 -564 613 -577 613 -580C613 -582 610 -584 605 -587L536 -627C538 -598 539 -581 539 -558V-56L506 -30L555 2C560 5 563 7 566 7C569 7 571 5 573 2L593 -22L879 -29V52C879 64 880 70 885 70C889 70 894 67 902 63C924 52 928 47 928 39C928 29 923 -30 923 -43V-560L947 -573C952 -576 955 -579 955 -581C955 -584 952 -586 946 -590Z"/>
</svg>