<svg xmlns="http://www.w3.org/2000/svg" viewBox="0 -1000 1000 1000">
	<path fill="#000000" d="M673 -386L644 -345H575V-474H629C629 -443 629 -440 635 -440C636 -440 671 -448 671 -467C671 -487 669 -520 669 -541V-595L694 -608C699 -611 701 -613 701 -615C701 -617 699 -620 694 -623L651 -658L627 -626H576V-741H708C717 -741 722 -742 722 -745C722 -747 719 -751 713 -757L664 -805L633 -763H473L411 -813C414 -768 414 -737 414 -660V-363L382 -339L432 -303C436 -300 439 -299 441 -299C445 -299 447 -301 464 -323H718C728 -323 732 -324 732 -327C732 -329 729 -332 724 -337ZM456 -496V-604H629V-496ZM456 -626V-741H536V-626ZM456 -345V-474H535V-345ZM321 -753L294 -718H215C259 -790 262 -795 281 -804C287 -807 289 -809 289 -811C289 -813 287 -816 281 -819L232 -848L194 -718H172L115 -771C117 -740 118 -679 118 -637V-437C81 -437 59 -437 26 -441L54 -404C67 -410 94 -414 118 -415C118 -125 104 -47 32 48L41 57C138 -27 160 -112 160 -415H293V-63C293 -31 291 -18 261 -18C243 -18 216 -22 173 -30L170 -13C249 5 260 19 267 52C268 57 270 59 273 59C275 59 277 58 280 57C324 35 336 18 336 -49V-679L368 -696C373 -698 375 -700 375 -702C375 -705 373 -707 369 -710ZM189 -349C215 -302 219 -265 219 -228C219 -198 223 -192 238 -192C256 -192 268 -216 268 -241C268 -281 218 -335 199 -355ZM160 -437V-696H293V-437ZM193 -625C217 -575 223 -551 223 -526C223 -500 229 -490 244 -490C257 -490 271 -507 271 -529C271 -533 270 -538 269 -542C263 -564 251 -580 202 -632ZM895 -42L862 2H842V-213L868 -225C873 -227 876 -229 876 -232C876 -234 873 -237 867 -242L815 -285L791 -252H476L415 -299C416 -273 418 -231 418 -202V2C395 2 363 0 341 -2L367 34C384 27 413 24 434 24H943C950 24 954 23 954 20C954 18 951 14 946 8ZM587 2V-230H675V2ZM717 2V-230H799V2ZM458 2V-230H547V2ZM890 -675L858 -627H782C794 -661 806 -697 818 -738C824 -757 827 -760 846 -768C855 -773 859 -776 859 -779C859 -781 856 -784 850 -788L790 -826C762 -697 724 -552 683 -437L696 -430C721 -474 748 -531 775 -607H938C947 -607 951 -608 951 -611C951 -614 948 -618 944 -623ZM784 -522C822 -466 836 -415 837 -378C838 -340 843 -334 853 -334C868 -334 891 -354 891 -386C891 -391 891 -395 890 -400C884 -431 853 -475 795 -531Z"/>
</svg>