<svg xmlns="http://www.w3.org/2000/svg" viewBox="0 -1000 1000 1000">
	<path fill="#000000" d="M956 -3C776 -6 631 -45 542 -90C592 -131 632 -170 682 -242C691 -254 714 -269 735 -275C741 -277 744 -279 744 -281C744 -284 741 -288 735 -293L671 -345L639 -303H274C251 -303 226 -305 201 -307L229 -270C246 -278 264 -281 281 -281H318C348 -201 401 -139 469 -89C382 -25 247 33 73 80L75 94C264 62 403 15 508 -63C580 -18 684 25 847 60H851C854 60 857 59 858 57C873 34 900 14 957 12ZM643 -281C600 -207 569 -171 500 -113C425 -160 373 -213 334 -281ZM880 -784L835 -728H653V-798L683 -816C687 -818 689 -820 689 -822C689 -824 686 -827 680 -829L604 -859C606 -826 607 -798 607 -773V-728H392V-793L424 -813C427 -815 428 -817 428 -819C428 -820 427 -822 423 -823L343 -853C345 -820 346 -799 346 -774V-728H137C114 -728 89 -730 64 -732L92 -695C109 -702 138 -706 159 -706H346C346 -694 343 -642 343 -632C343 -627 344 -625 348 -625C352 -625 360 -628 372 -633C391 -641 393 -645 393 -655C392 -671 392 -688 392 -706H607C607 -695 606 -647 606 -637C606 -631 607 -628 611 -628C612 -628 655 -641 655 -657C655 -659 653 -698 653 -706H945C950 -706 952 -707 952 -709C952 -711 950 -714 946 -718ZM658 -533L691 -549C696 -551 698 -554 698 -556C698 -558 696 -561 693 -563L630 -609L601 -572H389L334 -608C335 -414 302 -373 49 -288L52 -276C327 -334 364 -389 381 -550H612V-441C612 -384 622 -374 733 -374C780 -374 950 -380 950 -397C950 -404 925 -428 898 -442C874 -425 832 -414 732 -414C685 -414 658 -419 658 -455Z"/>
</svg>