<svg xmlns="http://www.w3.org/2000/svg" viewBox="0 -1000 1000 1000">
	<path fill="#000000" d="M901 -793L858 -735H659V-794L694 -814C697 -816 698 -817 698 -818C698 -820 696 -821 692 -823L609 -857C611 -824 612 -796 612 -771V-735H391V-803L422 -818C427 -820 429 -822 429 -824C429 -826 427 -828 423 -829L341 -865C343 -832 344 -805 344 -780V-735H106C83 -735 58 -737 33 -739L61 -704C78 -711 107 -715 128 -715H344C344 -671 344 -668 340 -604V-599C340 -590 341 -586 347 -586C352 -586 359 -589 370 -594C388 -602 393 -607 393 -616C393 -628 391 -679 391 -689V-715H612C612 -698 611 -622 611 -607C611 -600 613 -597 617 -597C620 -597 661 -609 661 -626C661 -636 659 -678 659 -687V-715H962C969 -715 972 -716 972 -718C972 -720 970 -723 966 -727ZM888 -392L845 -338H267C268 -382 270 -444 272 -491L717 -531C740 -533 757 -534 772 -534C797 -534 814 -531 835 -527C838 -526 840 -526 842 -526C845 -526 846 -527 846 -528C846 -530 844 -533 841 -537L789 -599C702 -570 510 -537 291 -514L222 -571C225 -142 207 -68 25 83L32 95C198 -8 253 -90 265 -316H578V-69C578 -53 575 47 575 69C575 86 577 93 585 93C589 93 595 91 604 87C625 78 631 74 631 62C631 60 630 57 630 54C627 22 626 -16 626 -67V-316H949C955 -316 958 -317 958 -319C958 -321 956 -324 951 -329Z"/>
</svg>