<svg xmlns="http://www.w3.org/2000/svg" viewBox="0 -1000 1000 1000">
	<path fill="#000000" d="M177 -786C238 -734 260 -683 266 -655C270 -635 278 -619 292 -619C310 -619 327 -645 327 -669C327 -711 257 -765 184 -799ZM696 -795C655 -719 632 -685 574 -606L589 -597L697 -705C726 -734 735 -739 758 -743C763 -744 766 -745 766 -747C766 -749 763 -751 759 -754ZM972 -250C817 -252 713 -283 590 -426H934C943 -426 947 -428 947 -432C947 -436 944 -440 938 -446L880 -502L837 -448H384C404 -483 421 -523 438 -566H868C877 -566 881 -568 881 -572C881 -575 878 -580 872 -586L814 -643L774 -588H446C463 -637 479 -689 493 -745C498 -767 501 -774 530 -791C535 -794 537 -796 537 -799C537 -801 534 -803 528 -806L452 -841C439 -745 422 -662 396 -588H155C132 -588 107 -590 82 -592L110 -555C127 -562 156 -566 177 -566H388C373 -524 355 -485 334 -448H101C78 -448 53 -450 28 -452L56 -415C73 -422 102 -426 123 -426H321C254 -317 161 -229 31 -143L39 -129C208 -220 305 -314 371 -426H563C668 -249 870 -182 878 -182C883 -182 885 -184 888 -189C903 -220 928 -235 972 -237ZM671 -283L649 -260H316C294 -260 270 -262 246 -264L273 -228C289 -235 317 -239 337 -239H378C345 -61 280 6 71 85L77 99C315 40 393 -53 431 -239H658C658 -176 653 -95 646 -46C642 -14 628 5 584 5C559 5 523 -1 474 -14L470 0C561 31 571 42 579 80C580 83 581 85 584 85C585 85 587 84 589 83C674 40 686 27 693 -25C699 -67 705 -163 706 -210L728 -223C733 -226 736 -229 736 -232C736 -234 733 -237 727 -242Z"/>
</svg>