<svg xmlns="http://www.w3.org/2000/svg" viewBox="0 -1000 1000 1000">
	<path fill="#000000" d="M844 -524L817 -481H665L602 -527C604 -503 605 -467 605 -449V-127C605 -84 604 -17 602 27V34C602 48 604 54 610 54C614 54 621 51 630 46C650 36 651 33 651 17V-54H835V29C835 37 836 41 842 41C846 41 853 39 862 36C882 29 886 25 886 14V9C883 -25 881 -84 881 -141V-438L914 -460C918 -462 920 -465 920 -467C920 -469 918 -471 914 -474ZM651 -76V-459H835V-76ZM904 -767L863 -710H665V-778L698 -799C702 -802 704 -804 704 -806C704 -808 702 -809 698 -811L616 -844C618 -811 619 -783 619 -758V-710H403V-781L429 -796C434 -799 437 -802 437 -804C437 -807 434 -809 429 -811L354 -844C356 -811 357 -783 357 -758V-710H116C93 -710 68 -712 43 -714L71 -679C88 -686 117 -690 138 -690H357C357 -672 355 -594 355 -578C355 -570 356 -566 361 -566C367 -566 405 -578 405 -594C405 -606 403 -657 403 -667V-690H619C619 -658 617 -607 617 -575C617 -567 618 -563 623 -563C629 -563 667 -575 667 -591C667 -603 665 -654 665 -664V-690H969C976 -690 979 -691 979 -693C979 -695 977 -697 973 -701ZM443 -484L414 -438H278C281 -537 287 -540 316 -552C320 -554 322 -556 322 -558C322 -560 320 -563 314 -566L237 -607C237 -559 235 -491 234 -438H129C106 -438 81 -439 56 -441L84 -407C101 -413 119 -416 151 -416H233C221 -174 171 -59 29 71L39 82C207 -44 262 -156 277 -416H430C431 -306 425 -157 410 -75C406 -54 396 -40 361 -40C337 -40 300 -47 245 -61L243 -47C335 -16 353 3 357 30C358 37 361 41 366 41C369 41 372 40 376 38C437 10 453 -22 459 -70C469 -151 476 -288 477 -399L512 -424C515 -426 517 -429 517 -431C517 -434 515 -437 510 -440Z"/>
</svg>