<svg xmlns="http://www.w3.org/2000/svg" viewBox="0 -1000 1000 1000">
	<path fill="#000000" d="M892 -772L850 -714H645V-784C672 -802 675 -804 675 -811C675 -815 672 -819 667 -821L595 -851C597 -818 598 -790 598 -765V-714H396V-781C423 -798 426 -799 426 -805C426 -808 423 -811 416 -814L346 -843C348 -810 349 -782 349 -757V-714H106C83 -714 58 -716 33 -718L61 -681C78 -688 107 -692 128 -692H349C349 -679 348 -619 348 -607C348 -594 350 -589 358 -589C358 -589 398 -596 398 -615C398 -627 396 -681 396 -692H598C598 -678 597 -616 597 -603C597 -591 599 -585 606 -585C616 -585 648 -598 648 -611V-614C646 -639 645 -669 645 -692H949C958 -692 963 -695 963 -699C963 -703 960 -708 953 -714ZM898 -198C882 -16 877 4 813 8C742 13 641 14 542 14C468 14 395 13 337 12C274 10 268 -10 268 -36V-207H517C517 -171 517 -170 523 -170C531 -170 565 -183 565 -204C565 -228 564 -249 564 -282V-361L595 -382C599 -385 600 -387 600 -390C600 -393 597 -396 593 -399L532 -439L507 -401H275L228 -444L282 -516H747C747 -400 743 -303 736 -222C731 -158 721 -133 670 -133C645 -133 612 -139 564 -149L562 -135C650 -114 669 -100 676 -70C677 -66 678 -65 681 -65C683 -65 686 -65 689 -67C761 -103 774 -133 781 -212C788 -298 793 -394 795 -490L830 -510C835 -513 837 -516 837 -520C837 -523 835 -527 830 -530L767 -574L735 -538H299C308 -549 318 -557 343 -562C348 -563 351 -566 351 -569C351 -572 348 -575 343 -579L288 -615C225 -494 146 -375 23 -237L34 -228C102 -291 163 -361 219 -433C220 -407 221 -379 221 -344V-30C221 32 249 49 312 51C378 52 470 53 564 53C657 53 753 52 827 51C886 50 924 35 948 -14C950 -17 950 -20 950 -22C950 -25 949 -27 946 -29C919 -44 913 -62 913 -198ZM268 -229V-379H517V-229Z"/>
</svg>