<svg xmlns="http://www.w3.org/2000/svg" viewBox="0 -1000 1000 1000">
	<path fill="#000000" d="M589 -398L561 -357H316L258 -406C260 -375 261 -340 261 -303V-200C261 -165 261 -134 258 -75V-61C258 -48 260 -43 267 -43C271 -43 278 -45 288 -49C305 -56 307 -60 307 -74V-117H577V-79C577 -71 578 -66 584 -66C588 -66 594 -68 604 -72C622 -79 627 -83 627 -96C627 -99 626 -102 626 -106C623 -151 622 -180 622 -214V-312L654 -334C660 -338 664 -341 664 -344C664 -347 660 -350 652 -355ZM307 -139V-335H577V-139ZM903 -772L857 -713H659V-788C690 -808 691 -809 691 -812C691 -815 688 -817 680 -820L609 -849C611 -816 612 -788 612 -763V-713H412V-785C445 -805 446 -806 446 -810C446 -813 443 -815 435 -818L362 -846C364 -814 365 -786 365 -761V-713H118C95 -713 70 -715 45 -717L72 -682C89 -689 118 -693 139 -693H365C365 -666 364 -624 364 -597C364 -584 366 -578 373 -578C377 -578 382 -580 390 -583C410 -591 414 -593 414 -603C414 -614 412 -666 412 -677V-693H612C612 -678 611 -612 611 -598C611 -586 612 -581 619 -581C623 -581 629 -583 637 -586C657 -594 661 -596 661 -606C661 -616 659 -659 659 -668V-693H954C965 -693 970 -694 970 -698C970 -702 966 -707 958 -715ZM844 -571L812 -523H280C283 -527 286 -532 289 -536C306 -561 312 -564 331 -565C341 -566 346 -567 346 -571C346 -573 343 -577 336 -581L272 -623C243 -550 163 -419 37 -252L48 -242C132 -326 188 -392 265 -501H828C828 -364 824 -214 818 -106C814 -31 801 3 720 3C690 3 649 -2 596 -11L593 3C696 29 719 42 733 73C736 80 739 83 743 83C745 83 749 82 753 80C834 44 859 17 865 -76C870 -163 875 -279 879 -479L909 -501C916 -506 919 -509 919 -512C919 -515 916 -518 908 -524Z"/>
</svg>