<svg xmlns="http://www.w3.org/2000/svg" viewBox="0 -1000 1000 1000">
	<path fill="#000000" d="M881 -778L839 -720H664V-783L691 -802C695 -805 697 -807 697 -809C697 -811 694 -812 690 -814L616 -844C618 -811 618 -786 618 -757V-720H379V-787C412 -806 413 -807 413 -810C413 -813 410 -815 404 -817L330 -851C332 -818 332 -793 332 -764V-720H118C95 -720 70 -722 45 -724L73 -686C90 -693 119 -697 140 -697H332C332 -671 330 -629 330 -602C330 -594 331 -591 336 -591C340 -591 381 -603 381 -620C381 -631 379 -677 379 -686V-697H618V-667C618 -655 616 -604 616 -594C616 -587 617 -583 622 -583C632 -583 666 -596 666 -611C666 -622 664 -668 664 -677V-697H943C952 -697 956 -698 956 -701C956 -703 953 -707 947 -713ZM968 -393C821 -406 638 -452 525 -606C531 -607 537 -607 547 -608C554 -609 557 -610 557 -613C557 -614 555 -616 551 -618L482 -652C351 -502 236 -406 35 -278L42 -269C204 -338 340 -439 511 -597C591 -463 713 -399 863 -334C866 -332 869 -332 871 -332C874 -332 876 -333 877 -336C891 -364 918 -379 968 -379ZM730 -352L688 -304H520V-388L554 -408C558 -410 560 -412 560 -414C560 -415 558 -416 554 -418L470 -458C472 -422 474 -388 474 -304H260C237 -304 212 -306 187 -308L215 -270C232 -277 261 -281 282 -281H474V-32C474 -8 472 4 444 4C422 4 382 -4 313 -19L310 -5C414 28 427 42 434 78C435 84 437 87 441 87C442 87 444 86 447 85C519 54 520 46 520 -18V-281H788C796 -281 800 -282 800 -285C800 -287 797 -290 792 -295ZM606 -193C719 -125 787 -62 807 -28C833 16 844 25 851 25C867 25 879 8 879 -14C879 -93 727 -160 611 -207ZM323 -233C237 -127 169 -58 47 40L56 51C167 -16 244 -76 345 -165C350 -170 366 -176 384 -177C392 -178 396 -179 396 -181C396 -183 394 -185 389 -188Z"/>
</svg>