<svg xmlns="http://www.w3.org/2000/svg" viewBox="0 -1000 1000 1000">
	<path fill="#000000" d="M857 -794L815 -737H659V-800C688 -816 691 -818 691 -823C691 -826 687 -829 678 -833L610 -862C612 -829 613 -801 613 -776V-737H381V-788C409 -807 412 -809 412 -813C412 -816 409 -819 401 -822L332 -850C334 -817 334 -795 334 -737H109C86 -737 61 -739 36 -741L64 -704C81 -711 110 -715 131 -715H334C334 -699 333 -631 333 -617C333 -603 335 -598 341 -598C343 -598 383 -607 383 -624C383 -635 381 -686 381 -696V-715H613C613 -700 612 -636 612 -623C612 -609 614 -603 620 -603C623 -603 661 -613 661 -630V-632C659 -654 659 -660 659 -715H914C923 -715 927 -718 927 -722C927 -726 924 -731 918 -737ZM276 -514C244 -424 160 -288 97 -209L110 -199C143 -229 175 -267 266 -392C302 -365 325 -325 338 -284C342 -271 347 -265 359 -265C369 -265 388 -282 388 -308C388 -351 310 -389 274 -404C283 -416 291 -427 300 -440C305 -447 316 -454 333 -457C339 -458 343 -460 343 -463C343 -465 340 -468 335 -472ZM961 -72C830 -72 691 -136 582 -263C623 -302 663 -344 704 -391C747 -358 787 -304 799 -267C804 -252 807 -248 819 -248C832 -248 848 -269 848 -293C848 -322 819 -352 714 -403C726 -417 739 -432 751 -447C757 -455 766 -458 778 -459C784 -460 788 -462 788 -465C788 -468 785 -472 779 -475L721 -507C710 -476 655 -382 572 -275C553 -299 534 -326 517 -354V-525H888C897 -525 902 -527 902 -532C902 -535 899 -540 892 -546L830 -599L785 -546H517V-617C550 -635 551 -635 551 -640C551 -643 548 -646 541 -649L468 -686C470 -651 472 -587 472 -546H113C90 -546 65 -548 40 -550L68 -514C85 -521 114 -525 135 -525H472V-379C382 -229 210 -81 27 28L35 40C186 -22 378 -172 472 -305V-162C472 -105 471 -15 469 44V54C469 70 471 76 478 76C482 76 488 74 496 70C517 59 521 56 521 42V36C518 -9 517 -84 517 -160V-320C590 -188 695 -81 854 -10C858 -8 861 -7 863 -7C866 -7 867 -8 869 -11C886 -40 905 -53 961 -57Z"/>
</svg>