<svg xmlns="http://www.w3.org/2000/svg" viewBox="0 -1000 1000 1000">
	<path fill="#000000" d="M965 34C874 18 790 -43 722 -154C770 -228 822 -376 844 -476L877 -495C883 -499 885 -501 885 -504C885 -506 883 -509 878 -512L814 -558L787 -517H584C545 -517 527 -518 513 -520L542 -491C552 -494 562 -496 586 -496C599 -383 627 -268 680 -160C621 -78 515 12 379 83L385 95C511 52 638 -51 699 -123C768 -3 854 72 860 72C863 72 864 71 866 68C876 54 903 44 939 44C947 44 956 45 965 46ZM796 -496C776 -373 745 -270 701 -193C651 -284 623 -370 606 -496ZM888 -772L849 -714H664V-790C693 -808 697 -810 697 -812C697 -815 693 -817 686 -820L615 -852C618 -827 618 -809 618 -765V-714H396V-785C409 -792 430 -803 430 -806C430 -809 426 -811 418 -815L347 -849C349 -825 350 -804 350 -763V-714H129C106 -714 76 -715 56 -718L81 -683C98 -690 120 -692 151 -692H350C350 -671 349 -647 349 -626C349 -606 350 -598 357 -598C367 -598 397 -611 397 -625C397 -636 396 -682 396 -692H618C618 -678 617 -615 617 -602C617 -589 619 -583 625 -583C629 -583 635 -585 643 -589C663 -598 666 -601 666 -609C666 -619 664 -662 664 -671V-692H952C960 -692 963 -693 963 -695C963 -698 960 -702 953 -709ZM496 -389L461 -342H310V-467H492C498 -467 501 -468 501 -470C501 -472 498 -475 494 -479L439 -534L407 -489H310V-550C336 -565 339 -567 339 -571C339 -574 334 -577 325 -581L262 -610C264 -584 264 -554 264 -510V-342H118C95 -342 69 -343 48 -345L73 -313C88 -318 105 -320 139 -320H545C553 -320 557 -321 557 -324C557 -326 554 -329 549 -335ZM392 -225C447 -177 467 -133 479 -88C483 -73 489 -66 496 -66C517 -66 530 -90 530 -112C530 -149 490 -184 399 -235ZM184 -255C163 -197 91 -78 30 1L41 9C89 -38 140 -99 199 -176C212 -194 228 -203 238 -205C244 -206 246 -207 246 -209C246 -211 244 -213 240 -216ZM293 -318C294 -284 296 -261 296 -215V-22C296 -2 293 8 267 8C247 8 215 2 161 -9L158 4C227 22 257 47 261 70C262 77 264 79 268 79C270 79 273 79 276 77C336 48 342 38 342 -24V-261L362 -270C367 -272 370 -274 370 -276C370 -278 367 -280 361 -283Z"/>
</svg>