<svg xmlns="http://www.w3.org/2000/svg" viewBox="0 -1000 1000 1000">
	<path fill="#000000" d="M882 -768L845 -712H643V-788L663 -801C670 -805 673 -808 673 -810C673 -813 670 -815 663 -818L593 -848C595 -815 596 -787 596 -762V-712H391V-784C420 -802 422 -803 422 -806C422 -809 418 -811 410 -815L341 -847C343 -814 344 -786 344 -761V-712H112C89 -712 64 -714 39 -716L67 -679C84 -686 113 -690 134 -690H344C344 -679 343 -633 343 -623C343 -609 345 -603 351 -603C351 -603 393 -613 393 -630C393 -639 391 -681 391 -690H596C596 -677 595 -620 595 -608C595 -595 597 -589 603 -589C607 -589 613 -592 621 -595C641 -604 645 -607 645 -615C645 -627 643 -679 643 -690H936C946 -690 951 -692 951 -696C951 -700 948 -704 942 -710ZM237 -444C271 -408 295 -362 302 -335C306 -319 312 -312 318 -312C333 -312 347 -336 347 -359C347 -363 347 -366 346 -370C341 -391 310 -423 243 -454ZM813 -594L785 -547H258C279 -578 281 -582 298 -583C309 -584 315 -586 315 -590C315 -592 311 -596 304 -600L248 -633C213 -550 145 -440 40 -312L51 -303C107 -353 187 -447 243 -525H800C801 -407 801 -323 801 -261C801 -118 799 -95 795 -55C791 -15 780 5 724 5C699 5 665 1 618 -7L614 8C700 27 727 44 737 76C739 83 741 86 745 86C748 86 751 85 756 83C815 57 838 23 842 -52C844 -96 845 -181 845 -295C845 -358 845 -429 844 -508L872 -524C880 -529 884 -532 884 -535C884 -538 881 -541 875 -546ZM684 -342L651 -292H548C643 -405 667 -420 684 -421C691 -422 694 -423 694 -426C694 -428 692 -431 688 -434L636 -476C607 -420 579 -372 527 -292H475V-439C504 -454 507 -456 507 -459C507 -462 504 -464 497 -466L426 -496C428 -459 430 -391 430 -350V-292H193C170 -292 145 -294 120 -296L145 -259C162 -266 191 -270 212 -270H355C304 -186 177 -57 75 22L85 34C204 -37 342 -171 412 -270H430V-155C430 -98 428 -23 425 35V49C425 62 427 67 434 67C438 67 445 65 455 61C473 54 477 51 477 35V27C475 -18 475 -77 475 -153V-193C553 -164 602 -128 635 -87C642 -78 651 -69 663 -69C677 -69 684 -82 684 -98C684 -164 579 -188 475 -209V-270H729C740 -270 745 -272 745 -275C745 -278 742 -283 736 -289Z"/>
</svg>