<svg xmlns="http://www.w3.org/2000/svg" viewBox="0 -1000 1000 1000">
	<path fill="#000000" d="M701 -530L677 -496H308L255 -535C256 -515 257 -498 257 -476V-407C257 -397 255 -353 255 -344C255 -336 256 -333 262 -333C266 -333 272 -334 281 -337C302 -344 302 -345 302 -365H686C686 -338 686 -335 693 -335C697 -335 704 -337 714 -341C731 -348 734 -351 734 -360C734 -376 732 -403 732 -420V-463C744 -469 763 -479 763 -481C763 -483 760 -486 756 -489ZM302 -387V-474H686V-387ZM619 -231L599 -198H373L322 -237C323 -215 324 -194 324 -171V-91C324 -77 322 -47 322 -33C322 -20 323 -15 330 -15C334 -15 340 -17 349 -20C370 -27 370 -30 370 -58H606C606 -23 606 -19 613 -19C617 -19 623 -21 633 -25C649 -31 654 -34 654 -45C654 -45 652 -102 652 -112V-164L677 -176C682 -178 684 -180 684 -182C684 -185 682 -187 678 -190ZM370 -80V-176H606V-80ZM853 -794L815 -744H661V-794C687 -814 690 -816 690 -819C690 -821 687 -823 681 -826L611 -855C614 -803 614 -782 614 -744H372V-796C398 -810 401 -812 401 -816C401 -818 398 -821 391 -824L323 -854C326 -805 326 -783 326 -744H133C110 -744 85 -746 60 -748L88 -711C105 -718 134 -722 155 -722H326C326 -711 325 -662 325 -652C325 -638 327 -632 333 -632C334 -632 374 -641 374 -659C374 -669 372 -713 372 -722H614C614 -713 613 -672 613 -663C613 -648 616 -642 623 -642C627 -642 633 -644 640 -647C659 -656 663 -659 663 -668C663 -677 661 -714 661 -722H909C917 -722 921 -723 921 -727C921 -729 918 -734 911 -740ZM428 -683C461 -657 479 -623 484 -604C488 -590 495 -585 506 -585C519 -585 536 -602 536 -620C536 -651 475 -681 434 -692ZM871 -632L832 -583H112C89 -583 64 -585 39 -587L67 -550C84 -557 113 -561 134 -561H920C929 -561 934 -562 934 -565C934 -568 930 -573 924 -579ZM811 -336L786 -296H188L134 -339C137 -303 138 -283 138 -248V-122C138 -57 137 -10 135 44V54C135 70 137 76 144 76C148 76 154 74 163 70C183 61 186 57 186 45C186 19 184 -97 184 -121V-274H797V-8C797 8 791 17 760 17C740 17 709 13 662 5L660 19C745 41 758 52 766 83C767 88 769 91 772 91C774 91 776 90 780 88C835 60 844 44 844 -1V-259L869 -273C875 -277 878 -279 878 -282C878 -285 875 -288 869 -292Z"/>
</svg>