<svg xmlns="http://www.w3.org/2000/svg" viewBox="0 -1000 1000 1000">
	<path fill="#000000" d="M785 -242L760 -205H482L425 -246C427 -215 428 -177 428 -153V-47C428 -30 424 47 424 63C424 75 426 80 433 80C438 80 444 78 454 74C471 67 473 64 473 49V11H773V72C773 80 774 85 780 85C784 85 790 83 799 79C818 71 822 68 822 54V47C819 2 819 -21 819 -55V-162L848 -180C853 -183 856 -186 856 -188C856 -191 852 -195 845 -200ZM473 -11V-183H773V-11ZM901 -780L865 -731H677V-784C705 -802 709 -804 709 -807C709 -810 705 -812 698 -815L627 -845C630 -796 630 -777 630 -731H401V-786C404 -788 433 -808 433 -810C433 -813 430 -815 424 -817L352 -850C354 -817 355 -789 355 -764V-731H131C108 -731 83 -733 58 -735L86 -698C103 -705 132 -709 153 -709H355C355 -686 354 -661 352 -649C351 -644 351 -640 351 -636C351 -630 353 -627 358 -627C365 -627 403 -637 403 -651C403 -667 401 -693 401 -709H630C630 -700 629 -660 629 -651C629 -638 631 -633 639 -633C643 -633 649 -634 657 -637C676 -643 679 -646 679 -655C679 -664 677 -701 677 -709H951C963 -709 969 -710 969 -714C969 -717 964 -723 955 -731ZM542 -649C585 -612 599 -584 605 -561C609 -547 620 -541 628 -541C645 -541 654 -556 654 -575C654 -608 629 -629 545 -659ZM850 -580L814 -534H423C401 -534 376 -536 353 -538L380 -502C395 -508 424 -512 444 -512H900C909 -512 914 -514 914 -517C914 -521 910 -526 902 -533ZM449 -474C489 -437 504 -403 513 -369C518 -349 523 -347 530 -347C543 -347 560 -369 560 -393C560 -423 534 -448 456 -483ZM894 -370L858 -323H684L749 -410C760 -424 786 -443 796 -444C803 -445 806 -446 806 -449C806 -451 804 -454 798 -458L743 -494C720 -435 706 -404 663 -323H365C343 -323 318 -325 295 -327L322 -291C337 -297 366 -301 386 -301H939C950 -301 956 -302 956 -307C956 -310 952 -315 944 -323ZM285 -642C212 -470 133 -352 29 -207L40 -197C107 -273 161 -340 207 -407V-119C207 -67 206 -10 204 49V60C204 75 206 81 213 81C217 81 224 79 233 75C254 66 257 62 257 49V41C254 -4 253 -55 253 -117V-407C279 -420 280 -421 280 -423C280 -425 277 -427 271 -429L233 -446C255 -479 275 -513 294 -548C309 -576 315 -579 336 -582C345 -583 350 -584 350 -587C350 -590 345 -595 336 -602Z"/>
</svg>