<svg xmlns="http://www.w3.org/2000/svg" viewBox="0 -1000 1000 1000">
	<path fill="#000000" d="M796 -648L773 -611H232L171 -655C173 -626 174 -605 174 -582V-464C174 -454 172 -411 172 -402C172 -397 173 -395 177 -395C181 -395 187 -397 197 -401C217 -410 220 -413 220 -423V-442H783C783 -421 783 -416 790 -416C794 -416 800 -418 810 -423C829 -432 832 -436 832 -445C832 -454 829 -507 829 -519V-574L858 -591C864 -595 867 -597 867 -600C867 -602 864 -605 859 -608ZM413 -463V-590H570V-463ZM614 -463V-590H783V-463ZM220 -463V-590H369V-463ZM883 -783L842 -730H653V-788C682 -807 686 -809 686 -813C686 -816 681 -818 673 -822L605 -852C607 -819 608 -791 608 -766V-730H391V-790L412 -804C420 -808 424 -811 424 -814C424 -817 420 -820 411 -824L343 -856C345 -823 346 -795 346 -770V-730H125C102 -730 77 -732 52 -734L80 -698C97 -705 126 -709 147 -709H346C346 -699 345 -655 345 -646C345 -635 346 -630 352 -630C355 -630 393 -643 393 -653C393 -662 391 -701 391 -709H608C608 -699 607 -655 607 -646C607 -637 609 -633 614 -633C618 -633 654 -649 654 -660V-663C653 -672 653 -688 653 -709H936C947 -709 952 -711 952 -715C952 -718 948 -723 940 -730ZM636 -405C675 -385 703 -368 710 -350C714 -340 722 -333 732 -333C748 -333 758 -344 758 -358C758 -394 704 -409 640 -416ZM917 -121C911 -62 901 -22 881 18C844 23 729 -17 658 -86C705 -117 741 -146 777 -178C791 -190 798 -191 815 -193C824 -194 828 -196 828 -199C828 -201 825 -204 821 -207L765 -247C730 -204 680 -154 630 -118C594 -165 567 -227 554 -299H934C943 -299 948 -300 948 -303C948 -306 944 -311 938 -317L885 -370L847 -320H551C549 -336 548 -352 547 -369C560 -375 581 -386 581 -388C581 -391 577 -393 569 -397L494 -430C497 -390 501 -353 507 -320H241L181 -367C183 -333 184 -302 184 -274C184 -98 144 -12 27 77L35 88C173 7 218 -68 228 -214C294 -182 332 -149 347 -122C356 -106 366 -97 376 -97C383 -97 398 -104 398 -126C398 -141 391 -158 382 -167C356 -193 291 -220 229 -232C230 -253 230 -275 230 -299H511C529 -205 558 -140 595 -94C479 -20 370 23 232 62L234 77C388 45 493 15 623 -64C707 15 790 52 876 71C906 78 927 82 941 82C951 82 959 79 959 74C959 71 956 66 949 57C939 45 928 25 928 -36C928 -58 930 -85 933 -119Z"/>
</svg>