<svg xmlns="http://www.w3.org/2000/svg" viewBox="0 -1000 1000 1000">
	<path fill="#000000" d="M960 -416C846 -416 745 -429 652 -469C687 -489 728 -515 764 -539C804 -566 818 -571 829 -572C838 -573 843 -574 843 -577C843 -579 839 -583 832 -590L790 -628L759 -597H505C528 -620 536 -628 552 -632C561 -635 566 -637 566 -640C566 -642 563 -644 557 -647L504 -671C449 -588 405 -539 297 -430L307 -421C354 -456 406 -499 476 -568C512 -525 548 -494 583 -472C501 -430 396 -387 289 -356L292 -340C411 -366 525 -407 618 -452C719 -398 870 -364 873 -364C877 -364 879 -366 882 -371C891 -386 909 -398 960 -406ZM745 -575C708 -546 659 -513 613 -488C578 -509 526 -544 493 -575ZM898 -788L855 -734H664V-791L687 -805C693 -809 696 -811 696 -814C696 -817 692 -819 684 -822L617 -847C620 -798 620 -780 620 -734H385V-790C397 -797 416 -810 416 -812C416 -814 414 -816 408 -819L338 -849C340 -816 341 -789 341 -764V-734H114C91 -734 66 -736 41 -738L69 -702C86 -709 115 -713 136 -713H341C341 -699 340 -640 340 -627C340 -616 341 -611 347 -611C352 -611 387 -622 387 -637C387 -649 385 -702 385 -713H620C620 -701 619 -650 619 -640C619 -628 621 -623 626 -623C628 -623 666 -634 666 -646C666 -657 664 -703 664 -713H957C965 -713 968 -714 968 -717C968 -719 966 -722 960 -728ZM128 -608C175 -567 195 -527 205 -487C209 -471 214 -467 223 -467C238 -467 251 -487 251 -511C251 -547 218 -579 136 -619ZM830 -179L796 -134H629V-214H808C814 -214 816 -215 816 -217C816 -219 815 -222 811 -226L768 -273L736 -235H629V-305H827C836 -305 840 -306 840 -309C840 -311 837 -315 831 -321L788 -363L760 -326H629V-356C638 -364 653 -376 653 -379C653 -381 651 -382 647 -384L585 -409C587 -378 587 -360 587 -326H429C406 -326 381 -328 356 -330L384 -294C401 -301 430 -305 451 -305H587V-235H460C437 -235 412 -237 387 -239L415 -203C432 -210 461 -214 482 -214H587V-134H390C367 -134 342 -136 317 -138L345 -102C362 -109 391 -113 412 -113H587C587 -99 583 -39 583 -26C583 -16 585 -12 590 -12C593 -12 598 -15 606 -19C627 -31 631 -35 631 -45C631 -50 629 -102 629 -113H878C887 -113 891 -114 891 -117C891 -119 888 -123 882 -129ZM971 -8C765 13 623 22 525 22C455 22 406 17 373 9C328 -2 236 -60 236 -80V-308C263 -325 266 -327 266 -330C266 -332 264 -334 260 -338L207 -386L182 -345H102C79 -345 54 -347 29 -349L55 -313C72 -320 101 -324 122 -324H194V-94L44 -2L84 32C88 35 90 37 92 37C95 37 97 35 100 30C108 17 167 -64 202 -64C217 -64 233 -53 255 -30C328 47 402 65 617 65C680 65 762 63 880 60C887 60 889 59 892 53C902 30 917 19 971 4Z"/>
</svg>