<svg xmlns="http://www.w3.org/2000/svg" viewBox="0 -1000 1000 1000">
	<path fill="#000000" d="M926 -584L880 -536H808V-597C838 -612 841 -614 841 -617C841 -620 838 -623 832 -627L779 -663L753 -630H531V-653C535 -655 564 -672 564 -674C564 -676 561 -679 555 -682L485 -718C487 -687 489 -662 489 -630H251C228 -630 203 -632 178 -634L206 -602C223 -608 252 -611 273 -611H489V-536H105C82 -536 57 -538 32 -540L60 -505C77 -512 106 -516 127 -516H489V-445H250C227 -445 202 -447 177 -449L205 -414C222 -421 251 -425 272 -425H489V-217H219V-288H343C343 -242 343 -242 352 -242C358 -242 386 -248 386 -262C386 -269 385 -299 385 -305V-361C412 -377 412 -377 412 -380C412 -382 410 -384 405 -386L342 -415C343 -399 343 -374 343 -362V-308H219V-349C250 -369 250 -369 250 -372C250 -375 247 -377 241 -380L177 -415C179 -392 180 -373 180 -335V-220C180 -77 158 -9 41 81L49 94C149 45 193 -19 209 -97H336V50C336 59 338 63 343 63C348 63 354 61 364 56C377 50 380 46 380 35C380 25 378 -18 378 -27V-89C383 -92 408 -105 408 -108C408 -111 405 -113 398 -117L349 -149L325 -116H213C216 -141 218 -168 219 -196H489V-142C489 -88 488 -8 486 48V57C486 73 488 79 495 79C499 79 505 77 514 73C531 65 535 60 535 47V40C532 -2 531 -68 531 -140V-196H803V-116H684L632 -161C633 -145 633 -120 633 -108V-18C633 0 633 16 632 46C632 61 633 66 640 66C643 66 647 65 653 63C672 57 673 53 673 46V-96H803C803 -44 802 -4 800 51V61C800 77 802 83 809 83C813 83 819 81 827 77C845 69 849 64 849 50V43C846 -2 845 -44 845 -105V-329C858 -336 879 -348 879 -351C879 -353 876 -355 869 -358L800 -389C802 -356 803 -340 803 -307H678V-359C682 -361 707 -376 707 -378C707 -380 705 -382 699 -384L634 -415C636 -386 637 -378 637 -355V-318L599 -297L652 -263C655 -261 658 -260 660 -260C663 -260 674 -277 681 -287H803V-217H531V-425H766C766 -398 766 -394 774 -394C778 -394 784 -396 793 -399C808 -404 811 -408 811 -419V-426C809 -453 808 -474 808 -516H967C977 -516 982 -517 982 -520C982 -523 978 -528 970 -536ZM531 -536V-611H766V-536ZM531 -445V-516H766V-445ZM902 -805L857 -750H676V-798C708 -817 712 -819 712 -822C712 -825 707 -827 699 -831L631 -861C634 -812 634 -792 634 -750H393V-798L420 -813C427 -817 431 -820 431 -823C431 -826 427 -828 419 -831L348 -862C351 -813 351 -793 351 -750H123C100 -750 75 -752 50 -754L78 -720C95 -727 124 -731 145 -731H351C351 -721 350 -679 350 -670C350 -655 354 -648 362 -648C373 -648 395 -659 395 -671C395 -681 393 -722 393 -731H634C634 -721 633 -679 633 -671C633 -657 635 -651 642 -651C649 -651 678 -660 678 -675C678 -684 676 -723 676 -731H946C956 -731 960 -732 960 -735C960 -738 957 -743 950 -750Z"/>
</svg>