<svg xmlns="http://www.w3.org/2000/svg" viewBox="0 -1000 1000 1000">
	<path fill="#000000" d="M925 -139L895 1C847 -19 786 -88 755 -162C777 -200 809 -271 854 -397C859 -412 864 -417 876 -421C884 -424 888 -426 888 -429C888 -432 884 -435 877 -438L819 -463C793 -345 766 -265 740 -211C722 -284 710 -399 709 -553H938C948 -553 953 -554 953 -559C953 -562 949 -568 942 -576L899 -624L859 -573H709C709 -591 710 -610 710 -629C730 -641 732 -642 732 -646C732 -648 729 -650 724 -653L667 -681V-573H290L242 -606C243 -559 244 -498 243 -442H151V-555C177 -571 180 -573 180 -576C180 -578 178 -580 172 -583L107 -617C109 -588 110 -572 110 -549V-450L84 -427L131 -397C134 -395 136 -394 138 -394C141 -394 143 -396 146 -400L162 -422H243C243 -377 243 -334 242 -304H98C75 -304 50 -306 25 -308L53 -274C64 -279 92 -285 124 -285C124 -143 88 -50 18 24L27 33C123 -50 159 -133 167 -285H242C236 -113 206 -27 100 82L107 93C234 -6 278 -103 282 -284C285 -389 287 -453 288 -553H667C671 -340 686 -239 713 -162C688 -123 663 -92 631 -58L585 -109L549 -71H523V-213H567V-191C567 -187 568 -185 572 -185C577 -185 610 -193 610 -206C610 -215 608 -257 608 -266V-316L633 -328C637 -330 639 -332 639 -334C639 -336 637 -338 633 -341L583 -381L562 -352H523V-452H635C644 -452 649 -453 649 -457C649 -460 646 -465 639 -472L600 -513L567 -472H392L344 -508C345 -482 348 -428 348 -393V-76L316 -52L370 -27C374 -25 377 -24 379 -24C381 -24 383 -25 385 -27L407 -52H625C593 -18 553 18 496 65L502 76C606 11 658 -35 728 -124C778 -17 889 75 945 75C949 75 957 75 957 66C957 61 954 54 945 37C938 25 934 7 934 -39C934 -63 935 -95 938 -137ZM390 -233V-332H567V-233ZM390 -352V-452H481V-352ZM390 -71V-213H481V-71ZM889 -791L845 -738H617V-805C642 -822 645 -824 645 -827C645 -830 641 -832 635 -834L572 -857C574 -824 575 -799 575 -774V-738H396V-790L423 -806C430 -810 433 -813 433 -816C433 -819 429 -821 422 -823L351 -845C353 -812 354 -794 354 -769V-738H131C108 -738 83 -740 58 -742L86 -707C103 -714 132 -718 153 -718H354C354 -705 353 -649 353 -637C353 -626 354 -621 361 -621C364 -621 370 -623 378 -626C395 -633 398 -636 398 -644C398 -656 396 -707 396 -718H575C575 -706 574 -655 574 -644C574 -632 575 -627 581 -627C584 -627 590 -629 597 -632C615 -641 619 -644 619 -652C619 -663 617 -709 617 -718H934C943 -718 948 -719 948 -723C948 -726 944 -731 938 -738ZM736 -701C766 -680 794 -644 800 -626C806 -608 813 -598 824 -598C832 -598 845 -612 845 -630C845 -677 743 -709 742 -709Z"/>
</svg>