<svg xmlns="http://www.w3.org/2000/svg" viewBox="0 -1000 1000 1000">
	<path fill="#000000" d="M303 -840C329 -815 346 -777 354 -723C356 -707 362 -701 378 -701C388 -701 409 -724 409 -750C409 -787 353 -830 311 -849ZM579 -729L553 -694H172C173 -711 172 -729 169 -746H157C157 -679 115 -621 79 -596C73 -592 65 -580 65 -574C65 -561 77 -546 94 -546C119 -546 162 -579 171 -672H557L503 -585L515 -577C586 -648 612 -661 644 -663C648 -663 650 -664 650 -666C650 -668 649 -670 646 -672ZM700 -694C701 -661 703 -600 703 -563V-351C703 -300 702 -253 700 -200C700 -179 701 -171 710 -171C714 -171 720 -173 728 -177C747 -186 751 -189 751 -201V-207C748 -248 747 -281 747 -350V-631L764 -648C769 -653 772 -655 772 -658C772 -661 768 -663 761 -666ZM843 -850C845 -813 846 -745 846 -704V-59C846 -15 844 3 804 3C782 3 749 -2 699 -11L695 6C773 26 791 39 801 69C803 77 805 80 809 80C812 80 816 78 822 75C883 41 891 27 891 -49V-767L919 -787C926 -792 929 -795 929 -798C929 -801 926 -804 920 -807ZM318 -531L293 -495H222C229 -511 236 -527 243 -545C251 -563 255 -568 272 -574C278 -576 282 -578 282 -581C282 -583 279 -586 273 -590L220 -624C196 -523 116 -334 49 -216L62 -208C96 -254 122 -296 147 -341C174 -311 185 -273 189 -244C190 -231 199 -222 207 -222C218 -222 238 -241 238 -266C238 -310 190 -336 154 -354C174 -390 193 -429 213 -474H304C269 -191 195 -60 44 70L52 81C227 -39 290 -141 340 -436C342 -451 354 -465 371 -471C376 -473 378 -474 378 -477C378 -479 376 -481 373 -484ZM621 -139L438 -23V-486H553C554 -421 552 -361 548 -294C546 -254 541 -244 498 -244C486 -244 471 -245 452 -246L450 -234C500 -219 509 -209 514 -191C515 -186 516 -183 520 -183C522 -183 525 -184 530 -187C580 -217 586 -233 589 -301C591 -349 592 -411 592 -467L619 -487C624 -491 627 -493 627 -496C627 -498 625 -501 620 -504L565 -544L540 -508H448L392 -553C394 -504 395 -473 395 -422V-43C395 -16 384 2 361 20L404 65C408 69 410 71 412 71C415 71 417 68 421 62C435 40 460 12 484 -8L629 -128Z"/>
</svg>