<svg xmlns="http://www.w3.org/2000/svg" viewBox="0 -1000 1000 1000">
	<path fill="#000000" d="M902 -424C891 -316 883 -306 840 -303C828 -302 798 -302 767 -302C701 -302 691 -302 691 -333V-403C840 -473 880 -487 902 -487C911 -487 915 -488 915 -491C915 -493 913 -495 910 -498L864 -538C806 -493 750 -459 691 -426V-531L714 -545C720 -549 723 -552 723 -554C723 -556 720 -558 714 -561L644 -596C646 -562 647 -503 647 -466V-327C647 -266 659 -261 789 -261C887 -261 916 -261 944 -310C946 -313 946 -315 946 -316C946 -319 944 -321 940 -324C920 -337 916 -347 915 -424ZM301 -589C304 -540 304 -520 304 -479H152C129 -479 104 -481 79 -483L107 -446C124 -453 153 -457 174 -457H304V-355L66 -301L103 -258C106 -255 108 -254 110 -254C111 -254 113 -255 115 -257C132 -274 161 -291 197 -302L304 -336V-285C304 -272 305 -267 310 -267C315 -267 352 -279 352 -293C352 -304 350 -355 350 -365V-530L368 -543C376 -548 380 -552 380 -554C380 -557 376 -559 367 -563ZM518 -612H954C960 -612 964 -613 964 -615C964 -617 961 -620 956 -624L882 -689L842 -634H518V-758C589 -765 647 -772 682 -778C705 -782 723 -784 739 -784C747 -784 783 -780 786 -780C790 -780 791 -781 791 -783C791 -785 789 -789 784 -795L740 -846C634 -812 348 -770 126 -748L127 -734C246 -738 368 -746 471 -754V-634H100C77 -634 52 -636 27 -638L55 -601C72 -608 101 -612 122 -612H471V-414C387 -250 213 -86 25 17L30 30C234 -63 387 -198 471 -336V-158C471 -101 469 -10 466 48V62C466 75 468 80 474 80C479 80 486 78 495 74C517 65 521 61 521 46V40C519 -5 518 -80 518 -156V-350C584 -220 670 -115 846 11C849 13 851 14 853 14C855 14 858 12 861 9C880 -10 904 -18 943 -18C952 -18 961 -18 971 -17L972 -29C756 -74 601 -222 518 -393Z"/>
</svg>