<svg xmlns="http://www.w3.org/2000/svg" viewBox="0 -1000 1000 1000">
	<path fill="#000000" d="M802 -170L776 -136H532C536 -147 539 -159 540 -167C564 -179 566 -181 566 -184C566 -186 563 -188 557 -191L512 -211H778C778 -184 778 -181 784 -181C787 -181 792 -182 800 -186C819 -195 823 -198 823 -206C823 -220 821 -281 821 -293V-382C833 -390 852 -403 852 -406C852 -409 850 -412 844 -416L788 -457L764 -422H359L298 -472C300 -443 301 -397 301 -374V-242C301 -233 297 -189 297 -183C297 -178 299 -176 303 -176C307 -176 313 -178 322 -181C344 -188 344 -191 344 -211H494C495 -190 490 -160 484 -136H270C247 -136 222 -138 197 -140L225 -104C242 -111 271 -115 292 -115H478C436 -10 332 42 154 78L153 90C358 74 473 20 526 -115H783C783 -84 775 -47 767 -24C760 -2 745 9 705 9C679 9 641 4 587 -6L584 11C671 33 687 42 697 72C699 78 701 81 705 81C706 81 708 80 711 79C785 51 813 41 829 -92L856 -106C864 -110 868 -113 868 -116C868 -119 865 -122 859 -126ZM580 -331V-401H778V-331ZM344 -331V-401H537V-331ZM580 -232V-310H778V-232ZM344 -232V-310H537V-232ZM797 -609C790 -519 782 -512 744 -508C723 -506 673 -505 632 -505C523 -505 523 -508 523 -560L747 -575C757 -576 762 -578 762 -581C762 -584 759 -589 752 -594L701 -636L671 -591L523 -581V-612C545 -625 547 -627 547 -629C547 -631 544 -632 539 -634L479 -655C481 -627 481 -607 481 -578L297 -566C274 -565 249 -565 225 -566L258 -530C273 -538 298 -544 322 -546L481 -557V-519C481 -468 542 -468 623 -468C804 -468 818 -478 842 -510C845 -514 846 -516 846 -518C846 -521 844 -522 841 -524C819 -536 813 -552 813 -609ZM912 -710L884 -677H524V-748H858C867 -748 872 -749 872 -753C872 -756 869 -761 862 -767L804 -821L766 -769H524V-800C552 -820 556 -822 556 -825C556 -828 552 -830 546 -833L479 -862C481 -830 481 -814 481 -779V-677H212L150 -734C154 -650 156 -538 156 -442C156 -170 144 -80 17 58L26 67C129 -9 181 -103 191 -243C196 -314 198 -419 202 -656H887L841 -569L854 -563C904 -624 918 -638 964 -642C971 -643 975 -644 975 -647C975 -649 973 -652 969 -655Z"/>
</svg>