<svg xmlns="http://www.w3.org/2000/svg" viewBox="0 -1000 1000 1000">
	<path fill="#000000" d="M347 -197C364 -170 378 -144 388 -119L269 -96V-313H358V-280C358 -268 359 -263 365 -263C369 -263 375 -266 385 -271C404 -281 407 -286 407 -299V-307C404 -352 403 -390 403 -446V-591C423 -609 426 -611 426 -615C426 -617 423 -620 418 -623L367 -658L346 -624H269V-782C295 -805 297 -807 297 -811C297 -814 294 -816 288 -819L221 -853C223 -816 224 -794 224 -707V-624H153L90 -665C92 -634 93 -586 93 -562V-386C93 -344 92 -292 90 -259V-245C90 -231 92 -226 98 -226C102 -226 108 -228 117 -233C136 -243 138 -246 138 -258V-313H224V-88L31 -52L67 -1C70 2 72 4 74 4C76 4 78 2 80 0C91 -13 142 -36 213 -55L394 -104C402 -81 407 -59 409 -38C411 -16 417 -6 434 -6C444 -6 463 -24 463 -50C463 -57 462 -64 459 -71C445 -107 412 -150 356 -205ZM269 -335V-602H358V-335ZM138 -335V-602H224V-335ZM912 -653L868 -598H845V-769L871 -784C878 -788 881 -791 881 -794C881 -797 877 -799 869 -803L797 -837C799 -800 800 -731 800 -690V-598H572V-763L598 -779C604 -783 608 -786 608 -788C608 -791 604 -794 596 -799L524 -843C526 -812 527 -767 527 -665V-598C486 -598 482 -598 432 -602L460 -563C476 -570 506 -574 527 -574V-140C527 -34 526 5 523 63C523 69 522 74 522 77C522 87 524 91 529 91C533 91 540 89 549 84C570 74 572 71 572 61V-12H800V65C800 76 801 81 805 81C809 81 815 78 824 72C845 58 849 53 849 41V35C846 -10 845 -62 845 -138V-574H953C961 -574 965 -575 965 -578C965 -581 962 -585 958 -591ZM572 -339V-574H800V-339ZM572 -34V-317H800V-34Z"/>
</svg>