<svg xmlns="http://www.w3.org/2000/svg" viewBox="0 -1000 1000 1000">
	<path fill="#000000" d="M671 -90C719 -65 757 -41 785 -20L511 -14V-154H753C753 -124 753 -121 760 -121C765 -121 772 -123 782 -128C798 -135 803 -139 803 -150C803 -153 802 -156 802 -160C800 -179 799 -198 799 -254V-302C825 -321 828 -323 828 -327C828 -330 826 -333 820 -336L762 -372L740 -340H511V-409C539 -428 542 -430 542 -435C542 -438 538 -441 529 -445L461 -473C463 -438 465 -411 465 -340H263L200 -386C201 -366 202 -332 202 -316V-202C202 -187 199 -121 199 -108C199 -99 202 -95 208 -95C212 -95 217 -97 225 -99C247 -106 249 -108 249 -118V-154H465V-12L61 -3L100 58C102 61 104 62 106 62C108 62 110 61 113 58C123 47 159 36 182 35L805 -4C822 10 835 24 844 36C861 60 872 68 881 68C895 68 904 52 904 35C904 27 902 19 897 10C876 -27 798 -67 674 -100ZM511 -176V-318H753V-176ZM249 -176V-318H465V-176ZM969 -521C864 -509 792 -503 712 -503C660 -503 605 -506 536 -510V-627H788C797 -627 802 -630 802 -634C802 -637 799 -642 794 -647L746 -694L710 -648H536V-772H816L778 -709L791 -702C845 -751 862 -761 892 -765C900 -766 904 -768 904 -771C904 -774 901 -777 897 -781L843 -831L815 -794H175C152 -794 127 -796 102 -798L130 -761C147 -768 176 -772 197 -772H489V-514C424 -525 343 -559 280 -612C293 -634 307 -657 320 -683L353 -697C358 -699 360 -701 360 -703C360 -705 358 -707 355 -709L287 -747C268 -691 205 -505 32 -391L39 -381C125 -420 198 -480 270 -596C388 -474 549 -453 869 -453C884 -453 887 -455 889 -461C898 -486 921 -499 969 -508Z"/>
</svg>