<svg xmlns="http://www.w3.org/2000/svg" viewBox="0 -1000 1000 1000">
	<path fill="#000000" d="M325 -209C352 -172 368 -146 377 -125L266 -103V-307H358V-274C358 -266 359 -261 365 -261C368 -261 374 -263 384 -267C402 -274 407 -278 407 -290C407 -293 406 -296 406 -300C404 -321 402 -353 402 -409V-580C428 -601 430 -603 430 -608C430 -612 428 -614 424 -617L362 -657L338 -616H266V-762C299 -782 300 -783 300 -786C300 -789 297 -792 290 -795L217 -829C219 -792 221 -748 221 -707V-616H133L85 -652C87 -621 88 -595 88 -556V-399C88 -357 87 -308 85 -275C85 -270 84 -265 84 -261C84 -248 87 -243 93 -243C97 -243 103 -245 112 -249C129 -256 131 -260 131 -271V-307H221V-95L37 -59L73 -7C75 -4 77 -2 79 -2C81 -2 83 -4 86 -7C92 -15 120 -30 160 -43L382 -113C387 -98 389 -86 390 -74C393 -38 398 -27 416 -27C431 -27 442 -47 442 -75C442 -108 414 -160 332 -216ZM131 -329V-594H221V-329ZM266 -329V-594H358V-329ZM876 -796L837 -744H490C468 -744 443 -746 420 -748L447 -712C462 -718 491 -722 511 -722H924C932 -722 936 -723 936 -727C936 -729 934 -733 929 -738ZM745 -607C788 -566 824 -515 843 -478L502 -467C552 -535 593 -585 654 -653C665 -666 675 -674 685 -677C689 -679 692 -680 692 -682C692 -684 690 -686 686 -688L632 -717C591 -640 524 -532 498 -500C480 -478 467 -471 433 -467L477 -415C479 -412 482 -411 484 -411C487 -411 490 -412 493 -414C513 -426 544 -432 570 -435L850 -463C855 -452 858 -443 859 -436C864 -409 872 -403 883 -403C894 -403 908 -422 908 -447C908 -489 867 -539 753 -618ZM891 -43L848 13H686V-204H907C914 -204 917 -205 917 -208C917 -210 915 -213 910 -218L853 -278L812 -226H686V-364L710 -380C714 -383 717 -386 717 -388C717 -391 714 -393 709 -396L638 -429C640 -394 641 -370 641 -331V-226H512C490 -226 465 -228 442 -230L469 -194C484 -200 513 -204 533 -204H641V13H417C394 13 368 11 344 9L372 45C388 39 418 35 439 35H943C950 35 954 34 954 30C954 28 952 24 947 19Z"/>
</svg>