<svg xmlns="http://www.w3.org/2000/svg" viewBox="0 -1000 1000 1000">
	<path fill="#000000" d="M532 -357C534 -327 535 -308 535 -283V-153C535 -143 533 -97 533 -87C533 -80 534 -76 540 -76C544 -76 549 -78 557 -81C575 -89 577 -92 577 -103V-132H692V-4L507 14L539 63C541 67 544 68 547 68C549 68 552 68 554 66C567 56 601 46 633 40L855 -1C863 13 871 30 878 48C882 58 896 65 904 65C912 65 925 54 925 32C925 25 924 17 920 9C907 -20 866 -53 795 -86L789 -77C811 -59 829 -40 843 -19L735 -8V-132H854C854 -109 854 -107 860 -107C861 -107 898 -117 898 -131C898 -140 896 -183 896 -192V-279C925 -295 928 -296 928 -302C928 -306 925 -310 920 -313L862 -349L841 -318H735V-389C758 -403 761 -404 761 -407C761 -410 758 -412 752 -414L689 -437C691 -411 692 -390 692 -352V-318H582ZM692 -150H577V-299H692ZM735 -150V-299H854V-150ZM105 -361C107 -331 108 -312 108 -287V-157C108 -147 106 -102 106 -92C106 -84 108 -80 115 -80C119 -80 125 -81 134 -85C149 -91 150 -95 150 -107V-136H255V0L51 18L84 73C86 77 89 78 91 78C93 78 96 77 98 76C112 67 142 56 185 48L419 5C426 19 433 34 439 48C443 56 452 63 462 63C482 63 484 39 484 30C484 -8 438 -53 359 -90L352 -81C372 -66 392 -41 409 -13L298 -4V-136H407C407 -113 407 -111 413 -111C414 -111 451 -121 451 -135C451 -152 449 -179 449 -196V-283L473 -297C478 -300 480 -302 480 -304C480 -307 477 -309 473 -313L426 -357L395 -322H298V-409C316 -420 323 -425 323 -430C323 -432 320 -434 314 -436L251 -457C253 -431 255 -395 255 -372V-322H157ZM255 -154H150V-303H255ZM298 -154V-303H407V-154ZM430 -694C460 -706 464 -708 464 -712C464 -715 459 -717 451 -721L381 -751C384 -723 385 -709 385 -674V-583H133C110 -583 85 -585 60 -587L88 -550C105 -557 134 -561 155 -561H385V-514C385 -494 381 -398 381 -386C381 -374 383 -369 390 -369C394 -369 401 -371 410 -375C430 -383 435 -387 435 -400C435 -402 434 -405 434 -409C432 -429 430 -469 430 -512V-561H661C673 -561 679 -563 679 -567C679 -570 675 -574 669 -580L613 -632L580 -583H430ZM894 -594L876 -430C875 -422 871 -417 861 -417C857 -417 853 -418 848 -419C765 -435 726 -507 726 -652C726 -677 728 -705 730 -735L758 -753C762 -756 765 -758 765 -761C765 -764 762 -767 755 -771L697 -809L667 -776H218C200 -776 174 -777 150 -779L186 -743C197 -750 219 -754 239 -754H683C682 -733 682 -713 682 -694C682 -471 728 -390 877 -369C887 -368 895 -367 902 -367C925 -367 936 -373 936 -381C936 -392 933 -400 928 -404C917 -414 912 -439 912 -519C912 -540 912 -564 913 -592Z"/>
</svg>