<svg xmlns="http://www.w3.org/2000/svg" viewBox="0 -1000 1000 1000">
	<path fill="#000000" d="M276 -213C299 -182 313 -150 321 -118L234 -101V-317H305C305 -294 305 -291 311 -291C314 -291 319 -293 327 -297C347 -307 351 -311 351 -326V-331C349 -358 349 -383 349 -439V-586C367 -600 370 -601 370 -605C370 -607 368 -609 365 -611L314 -644L294 -615H234V-778L256 -792C260 -794 262 -797 262 -799C262 -801 260 -803 255 -806L186 -844C188 -807 190 -738 190 -697V-615H125L73 -655C75 -624 76 -584 76 -552V-406C76 -364 75 -315 73 -286C72 -279 72 -274 72 -270C72 -259 74 -255 80 -255C84 -255 91 -257 100 -261C115 -267 120 -271 120 -283V-317H190V-92L26 -60L57 -10C59 -7 61 -5 63 -5C65 -5 67 -6 69 -9C82 -25 109 -39 134 -47L324 -106C328 -91 330 -76 331 -63C333 -30 338 -26 351 -26C361 -26 380 -40 380 -72C380 -106 346 -169 287 -221ZM234 -339V-593H305V-339ZM120 -339V-593H190V-339ZM630 -703C660 -674 677 -615 678 -589C679 -573 686 -563 699 -563C712 -563 725 -577 725 -598C725 -639 677 -684 638 -711ZM620 -468C668 -427 680 -392 686 -361C690 -340 699 -334 710 -334C720 -334 734 -348 734 -367C734 -396 711 -434 625 -477ZM892 -325L863 -272L833 -266V-778C857 -793 859 -795 859 -798C859 -800 857 -802 853 -804L784 -837C786 -800 788 -748 788 -690V-258L623 -227C596 -222 576 -219 549 -218L580 -187C597 -196 620 -204 642 -208L788 -235V-97C788 -41 787 7 785 53V68C785 81 787 87 793 87C798 87 805 84 815 79C831 71 834 67 834 54V45C833 24 833 -14 833 -101V-243L961 -267C965 -268 967 -269 967 -272C967 -274 965 -277 961 -279ZM619 -803C536 -768 467 -748 339 -720V-707C386 -712 433 -719 480 -726V-542H426C403 -542 378 -544 353 -546L381 -509C398 -516 427 -520 448 -520H480C457 -420 400 -289 332 -190L341 -183C397 -250 441 -322 480 -412V-157C480 -100 478 -9 475 49C475 55 474 60 474 64C474 76 476 81 482 81C486 81 492 79 501 75C522 66 525 62 525 49V41C523 -4 523 -79 523 -155V-401C561 -363 582 -319 593 -288C598 -275 603 -270 611 -270C622 -270 636 -286 636 -304C636 -340 559 -394 523 -417V-520H649C655 -520 658 -521 658 -524C658 -526 656 -528 653 -532L614 -580L581 -542H523V-733C572 -744 608 -751 632 -751C636 -751 651 -749 654 -749C657 -749 658 -751 658 -753C658 -754 657 -756 655 -759Z"/>
</svg>