<svg xmlns="http://www.w3.org/2000/svg" viewBox="0 -1000 1000 1000">
	<path fill="#000000" d="M711 -719C712 -686 714 -631 714 -594V-350C714 -299 713 -251 711 -198C711 -177 712 -169 720 -169C724 -169 730 -171 738 -175C757 -183 761 -186 761 -199V-205C758 -246 757 -280 757 -349V-663L777 -678C782 -682 784 -684 784 -687C784 -689 781 -690 777 -692ZM634 -542C582 -498 548 -473 509 -449V-530C518 -537 533 -549 533 -551C533 -554 530 -555 526 -557L462 -579C464 -545 465 -501 465 -464V-347C465 -293 475 -285 544 -285C611 -285 655 -295 674 -333C675 -335 676 -337 676 -339C676 -342 674 -344 670 -347C653 -358 648 -372 650 -438H637C622 -328 617 -323 556 -323C514 -323 509 -327 509 -353V-428C629 -488 651 -494 669 -495C677 -496 681 -497 681 -499C681 -501 679 -503 676 -506ZM213 -587C215 -554 216 -526 216 -501V-466H119C96 -466 85 -467 61 -470L89 -433C106 -440 120 -444 141 -444H216V-368L64 -301L98 -263C102 -260 104 -258 106 -258C108 -258 109 -260 110 -262C118 -279 135 -296 160 -313L216 -351V-276C216 -266 217 -261 223 -261C226 -261 261 -270 261 -285C261 -296 259 -346 259 -356V-522L281 -540C286 -544 288 -547 288 -549C288 -552 286 -554 281 -556ZM857 -845C859 -808 861 -740 861 -699V-51C861 -25 856 -9 817 -9C793 -9 755 -15 697 -29L695 -12C782 12 804 27 815 68C816 74 819 76 822 76C824 76 826 75 829 74C901 37 906 20 906 -33V-773L929 -789C934 -792 936 -795 936 -797C936 -799 934 -801 929 -804ZM605 -692L565 -639H396V-750C435 -754 470 -758 504 -762C529 -765 559 -767 580 -767H598C602 -767 604 -767 604 -769C604 -771 602 -775 597 -781L561 -828C455 -796 248 -760 106 -741L108 -724C207 -732 284 -739 350 -745V-639H136C113 -639 88 -641 63 -643L91 -606C108 -613 137 -617 158 -617H350V-338C279 -218 182 -120 44 9L55 22C187 -78 275 -166 350 -262V-143C350 -86 348 -10 345 48V62C345 75 347 80 353 80C358 80 365 78 374 74C395 65 398 61 398 48V40C396 -5 396 -65 396 -141V-241C466 -205 535 -131 550 -105C571 -70 579 -66 586 -66C598 -66 614 -80 614 -102C614 -113 611 -125 602 -138C582 -169 525 -212 396 -262V-617H665C672 -617 675 -618 675 -620C675 -622 673 -625 669 -629Z"/>
</svg>