<svg xmlns="http://www.w3.org/2000/svg" viewBox="0 -1000 1000 1000">
	<path fill="#000000" d="M277 -216C298 -183 310 -159 319 -129L235 -106V-334H311V-297C311 -288 312 -283 317 -283C321 -283 327 -285 337 -290C355 -299 358 -303 358 -316V-324C355 -368 353 -406 353 -461V-605C377 -620 380 -622 380 -626C380 -629 377 -633 372 -636L324 -676L297 -639H235V-779C256 -792 263 -796 263 -802C263 -805 259 -808 251 -813L189 -850C191 -814 193 -746 193 -706V-639H133L78 -688C80 -657 81 -610 81 -586V-409C81 -367 80 -316 78 -283C78 -276 77 -271 77 -266C77 -255 79 -251 85 -251C89 -251 95 -253 104 -257C123 -265 124 -270 124 -282V-334H193V-94L38 -53L71 -12C74 -9 76 -7 78 -7C80 -7 82 -9 84 -11C95 -25 116 -37 151 -48L324 -110C327 -99 329 -87 332 -74C337 -48 343 -44 355 -44C366 -44 381 -69 381 -94C381 -140 315 -198 286 -223ZM235 -350V-623H311V-350ZM124 -350V-623H193V-350ZM894 -689L860 -654H677V-748H862C871 -748 875 -749 875 -752C875 -755 872 -758 868 -762L819 -815L781 -765H505C482 -765 458 -767 433 -769L461 -737C477 -744 506 -748 527 -748H633V-654H462C463 -659 462 -682 462 -687H448C446 -651 426 -614 407 -594C389 -575 381 -563 381 -554C381 -544 392 -540 402 -540C442 -540 457 -576 461 -637H633V-532C633 -516 632 -445 632 -430C632 -415 635 -409 642 -409C645 -409 650 -411 657 -414C676 -422 679 -426 679 -435V-441C677 -465 677 -492 677 -530V-637H868L835 -563L847 -558C886 -605 909 -621 946 -629C952 -631 955 -633 955 -636C955 -638 952 -642 947 -647ZM839 -549H724V-533H839ZM587 -548H469V-532H587ZM840 -462H727V-445H840ZM588 -462H470V-445H588ZM889 -423L852 -370H445C422 -370 397 -372 372 -374L400 -342C417 -349 446 -353 466 -353H600C594 -323 584 -291 569 -256H477L423 -304C425 -270 426 -219 426 -180V-70C426 -30 425 14 423 49C423 55 422 60 422 64C422 74 424 78 429 78C433 78 439 76 448 72C466 63 470 59 470 47V41C468 8 467 -29 467 -70V-240H564V-74C564 -58 561 11 561 25C561 36 562 40 567 40C570 40 609 27 609 12C609 -11 606 -49 606 -72V-240H693V-97C693 -82 690 -16 690 -2C690 12 692 17 699 17C700 17 739 7 739 -9C739 -11 736 -81 736 -95V-240H834V-6C834 8 830 15 810 15C797 15 775 12 742 5L740 19C790 37 808 50 813 77C814 83 816 86 819 86C821 86 824 85 827 83C871 55 878 46 878 12V-224C904 -237 907 -239 907 -244C907 -247 904 -251 897 -255L840 -294L818 -256H594C615 -289 636 -322 654 -353H937C946 -353 950 -354 950 -357C950 -359 948 -362 943 -367Z"/>
</svg>