<svg xmlns="http://www.w3.org/2000/svg" viewBox="0 -1000 1000 1000">
	<path fill="#000000" d="M879 -722L832 -671H691V-779L720 -798C724 -801 726 -803 726 -805C726 -807 724 -809 719 -811L647 -849C649 -814 650 -776 650 -737V-671H484C464 -671 445 -672 422 -675L449 -639C464 -645 485 -649 505 -649H650V-476H509C487 -476 469 -477 446 -480L473 -444C488 -450 510 -454 530 -454H895C901 -454 904 -455 904 -457C904 -459 902 -461 898 -465L839 -521L796 -476H691V-649H936C942 -649 944 -650 944 -652C944 -654 943 -657 939 -661ZM354 -858C356 -825 357 -781 357 -756V-652H207V-767L235 -783C239 -785 241 -787 241 -789C241 -790 239 -792 235 -794L163 -830C165 -810 166 -784 166 -760V-666L131 -637L183 -603C185 -602 187 -601 189 -601C191 -601 192 -602 194 -605L210 -630H357V-537H97C83 -537 63 -538 36 -540L66 -506C82 -512 100 -515 114 -515H194C191 -424 153 -388 26 -324L29 -311C191 -361 239 -409 243 -515H357V-453C357 -436 356 -362 356 -347C356 -337 357 -333 363 -333C366 -333 372 -335 381 -340C400 -350 404 -354 404 -365V-369C402 -390 401 -419 401 -455V-791L430 -811C432 -812 434 -814 434 -815C434 -817 432 -818 429 -820ZM442 -426C484 -385 496 -363 504 -332C509 -312 511 -310 524 -310C539 -310 557 -327 557 -352C557 -383 527 -402 450 -436ZM971 -14C828 -19 716 -51 633 -112C786 -191 813 -203 837 -203C844 -203 850 -203 850 -206C850 -207 849 -209 845 -211L781 -252C737 -214 674 -167 614 -127C567 -167 531 -217 504 -279H933C939 -279 943 -280 943 -282C943 -284 940 -287 935 -292L869 -354L825 -301H119C96 -301 71 -303 46 -305L74 -268C91 -275 120 -279 141 -279H425C335 -190 156 -62 35 -1L41 15C139 -23 239 -79 328 -142V-22C328 11 325 15 282 33L328 87C330 90 332 91 334 91C337 91 339 89 341 86C365 50 405 23 551 -69L545 -83L372 -1V-174C414 -206 452 -238 485 -271C548 -89 650 -27 855 44C858 45 860 46 862 46C865 46 866 44 867 42C881 14 905 8 971 2Z"/>
</svg>