<svg xmlns="http://www.w3.org/2000/svg" viewBox="0 -1000 1000 1000">
	<path fill="#000000" d="M900 -412L854 -358H530V-436H736V-407C736 -399 737 -395 742 -395C746 -395 751 -397 760 -401C780 -411 784 -415 784 -427C784 -440 783 -499 783 -511V-617C809 -634 812 -636 812 -640C812 -643 810 -646 805 -650L753 -691L728 -654H286L223 -698C225 -667 226 -648 226 -624V-491C226 -454 225 -425 223 -404V-401C223 -395 224 -392 229 -392C233 -392 240 -394 251 -399C273 -409 273 -412 273 -436H483V-358H129C106 -358 81 -360 56 -362L84 -327C101 -334 130 -340 151 -340H396C325 -286 189 -204 41 -136L46 -124C213 -184 362 -264 464 -340H483C483 -328 480 -268 480 -267C480 -260 482 -257 489 -257C492 -257 532 -264 532 -278V-280C531 -285 531 -293 531 -302C707 -268 806 -223 846 -192C870 -173 881 -169 888 -169C895 -169 900 -176 900 -186C900 -198 894 -214 876 -232C855 -253 721 -288 530 -316V-340H943C950 -340 953 -342 953 -345C953 -347 952 -350 948 -354ZM530 -554V-636H736V-554ZM273 -554V-636H483V-554ZM530 -454V-536H736V-454ZM273 -454V-536H483V-454ZM431 -846C473 -816 485 -798 497 -765C504 -746 510 -740 519 -740C533 -740 548 -756 548 -779C548 -816 522 -835 435 -854ZM870 -783L836 -739H145C122 -739 97 -741 72 -743L100 -710C117 -717 146 -721 167 -721H920C927 -721 930 -722 930 -724C930 -726 928 -729 923 -734ZM970 6C796 -5 685 -42 604 -95C700 -151 736 -165 749 -165C756 -165 761 -167 761 -170C761 -172 758 -174 753 -177L707 -207C679 -177 643 -146 590 -104C547 -135 512 -171 479 -211C487 -216 495 -217 504 -218C509 -219 511 -221 511 -223C511 -225 510 -228 506 -230L459 -259C384 -175 193 -35 30 41L34 55C120 23 212 -22 320 -93V4C320 29 316 34 287 50L325 87C328 90 331 92 334 92C336 92 338 91 340 89C360 68 399 47 550 -21L548 -32L364 26V-124C398 -148 433 -174 469 -203C578 -49 673 2 862 58C865 59 867 59 869 59C872 59 875 58 877 55C894 31 929 18 970 18Z"/>
</svg>