<svg xmlns="http://www.w3.org/2000/svg" viewBox="0 -1000 1000 1000">
	<path fill="#000000" d="M913 -165C908 -10 897 1 871 4C856 6 841 7 829 7C789 7 772 -1 772 -31V-271H841C841 -236 841 -236 846 -236C849 -236 890 -250 890 -266V-271C888 -302 887 -332 887 -388V-723L922 -740C927 -742 930 -744 930 -747C930 -749 926 -753 919 -758L857 -801L825 -760H622L562 -819C564 -788 565 -739 565 -715V-380C565 -324 565 -288 563 -265C563 -261 562 -258 562 -255C562 -249 564 -246 568 -246C572 -246 578 -248 586 -251C607 -258 610 -262 610 -271H727V-13C727 35 744 48 841 48C928 48 947 41 973 -10C974 -13 975 -15 975 -17C975 -20 972 -23 966 -26C939 -40 933 -62 930 -165ZM610 -444V-583H841V-444ZM610 -603V-741H841V-603ZM610 -291V-424H841V-291ZM615 -258C600 -84 536 -20 338 74L341 87C546 21 616 -43 653 -181C659 -202 661 -205 677 -214C684 -218 687 -220 687 -223C687 -226 683 -228 674 -232ZM412 -434L378 -396H183L123 -452C125 -424 126 -382 126 -359V-297C126 -269 125 -242 123 -227C123 -225 122 -223 122 -221C122 -216 124 -214 129 -214C133 -214 138 -215 146 -218C166 -225 169 -228 170 -239H393C393 -222 393 -217 400 -217C404 -217 439 -226 439 -239C439 -248 437 -290 437 -299V-363C468 -377 472 -378 472 -381C472 -384 469 -387 463 -392ZM170 -260V-374H393V-260ZM422 -775C424 -744 425 -733 425 -706V-627H313V-790C347 -808 348 -809 348 -813C348 -816 343 -819 335 -823L267 -852C269 -824 269 -802 269 -779V-627H158V-726C190 -743 191 -744 191 -747C191 -750 188 -752 181 -755L111 -789C113 -760 114 -733 114 -710V-635L73 -610L131 -576C136 -573 139 -571 142 -571C146 -571 149 -574 152 -578L172 -605H425V-578C425 -573 426 -571 429 -571C431 -571 470 -583 470 -594V-596C468 -610 468 -623 468 -644V-720L492 -733C499 -737 502 -740 502 -742C502 -745 498 -748 488 -751ZM477 -554L429 -508H97C74 -508 49 -510 24 -512L52 -476C69 -483 98 -487 119 -487H518C529 -487 534 -488 534 -492C534 -495 530 -500 522 -508ZM162 -205C183 -169 190 -136 190 -101C190 -92 203 -82 209 -82C222 -82 242 -104 242 -126C242 -138 236 -170 172 -213ZM492 -94L323 -79C378 -169 382 -171 402 -179C411 -183 415 -185 415 -188C415 -191 411 -194 404 -198L351 -226C337 -183 312 -117 294 -76L46 -55L76 1C79 6 81 9 84 9C86 9 89 7 92 5C107 -6 159 -23 239 -36L492 -76Z"/>
</svg>