<svg xmlns="http://www.w3.org/2000/svg" viewBox="0 -1000 1000 1000">
	<path fill="#000000" d="M483 -759L447 -710H416V-786C447 -804 447 -804 447 -808C447 -811 443 -814 436 -818L370 -853C373 -810 373 -775 373 -710H221V-785L247 -797C252 -800 255 -802 255 -804C255 -806 252 -808 247 -811L176 -852C178 -815 179 -793 179 -757V-710H110C87 -710 62 -712 37 -714L65 -679C82 -686 111 -690 132 -690H179V-636C179 -623 177 -561 177 -556C177 -549 178 -546 184 -546C188 -546 193 -547 201 -549C220 -554 221 -557 221 -565V-581H266V-491H159L110 -538C112 -509 113 -467 113 -444V-389C113 -375 111 -306 111 -303C111 -297 112 -294 116 -294C119 -294 125 -296 133 -300C155 -310 155 -313 155 -325V-347H266V-253H141C118 -253 93 -255 68 -257L96 -222C113 -229 142 -233 163 -233H266V-149H148C125 -149 100 -151 75 -153L103 -118C120 -125 149 -129 170 -129H266V-42L41 -10L74 36C76 38 77 39 78 39C82 39 86 32 93 28C109 18 143 18 228 0L509 -60L507 -76L308 -48V-129H472C483 -129 488 -130 488 -133C488 -136 484 -141 476 -149L437 -190L400 -149H308V-233H489C500 -233 505 -234 505 -237C505 -240 501 -245 493 -253L454 -293L418 -253H308V-347H429C429 -311 429 -311 435 -311C439 -311 473 -322 473 -335C471 -356 471 -374 471 -393V-456C477 -459 505 -472 505 -476C505 -478 502 -481 497 -485L443 -525L421 -491H308V-581H373C373 -555 373 -552 380 -552C383 -552 388 -553 394 -555C417 -561 418 -564 418 -574C417 -606 416 -631 416 -651V-690H526C536 -690 541 -691 541 -694C541 -697 538 -702 531 -709ZM308 -368V-470H429V-368ZM155 -368V-470H266V-368ZM221 -602V-690H373V-602ZM917 -161C909 18 907 18 836 18C793 18 776 18 776 -21V-283H826C826 -251 826 -247 832 -247C836 -247 843 -249 853 -253C869 -259 872 -261 872 -273V-282C870 -310 869 -337 869 -416V-730L901 -748C907 -751 910 -754 910 -757C910 -760 906 -763 898 -769L845 -808L817 -773H612L552 -826C554 -795 554 -736 554 -712V-374C554 -317 553 -284 551 -261C551 -257 550 -254 550 -252C550 -245 552 -241 556 -241C560 -241 566 -244 574 -248C596 -259 596 -261 596 -272V-283H633C623 -84 585 -14 367 75L371 90C634 19 664 -76 682 -283H733V-13C733 46 744 55 795 59C931 59 947 49 973 4C976 0 977 -3 977 -6C977 -10 973 -13 967 -16C942 -29 935 -54 936 -161ZM596 -457V-591H826V-457ZM596 -611V-753H826V-611ZM596 -303V-437H826V-303Z"/>
</svg>