<svg xmlns="http://www.w3.org/2000/svg" viewBox="0 -1000 1000 1000">
	<path fill="#000000" d="M428 -607L407 -573H297C362 -665 390 -695 422 -701C433 -703 438 -705 438 -709C438 -711 436 -714 432 -718L376 -772L351 -737H232C240 -751 248 -766 256 -781C264 -796 282 -806 296 -808C306 -810 310 -812 310 -814C310 -816 307 -819 301 -821L228 -851C185 -721 113 -581 30 -447L40 -440C73 -478 101 -515 135 -568V-399C135 -129 107 -30 35 66L46 75C126 -14 159 -91 170 -241H273V-122C273 -67 272 -36 270 -2V3C270 10 271 14 275 14C280 14 287 10 300 3C316 -6 320 -11 320 -22C320 -39 318 -111 318 -126V-241H427V-26C427 -9 426 -1 408 -1C396 -1 376 -4 344 -11L339 4C395 22 404 36 405 63C405 68 406 71 410 71C412 71 415 71 418 69C470 44 472 31 472 -24V-546L492 -559C496 -561 497 -563 497 -565C497 -567 495 -569 490 -572ZM175 -422V-551H273V-422ZM318 -422V-551H427V-422ZM318 -263V-400H427V-263ZM172 -263C174 -303 175 -348 175 -400H273V-263ZM275 -573H178L151 -593C171 -627 194 -666 221 -715H354ZM859 -800L830 -760H552C536 -760 519 -761 501 -762L524 -731C536 -735 556 -738 571 -738H649C632 -630 586 -543 492 -465L501 -457C622 -540 656 -590 701 -738H843C838 -676 834 -644 827 -603C822 -574 815 -558 782 -558C764 -558 738 -563 700 -573L695 -562C764 -539 776 -522 780 -497C780 -494 781 -492 785 -492C786 -492 788 -492 791 -493C851 -514 860 -540 868 -589C876 -636 881 -670 888 -722L922 -745C926 -748 928 -750 928 -752C928 -754 926 -756 922 -759ZM897 -254L860 -205H766V-333H931C938 -333 941 -334 941 -336C941 -338 939 -341 935 -345L878 -404L839 -355H766V-438C787 -451 789 -452 789 -455C789 -457 787 -459 782 -461L716 -490C718 -464 720 -417 720 -388V-355H602C615 -378 627 -403 639 -429C643 -437 652 -444 661 -447C666 -449 668 -450 668 -452C668 -454 667 -455 663 -457L606 -481C583 -394 565 -343 523 -246L533 -239C554 -271 573 -301 591 -333H720V-205H538C522 -205 505 -206 487 -207L510 -176C522 -180 542 -183 557 -183H720V-85C720 -45 719 13 717 54V60C717 73 719 78 726 78C730 78 737 76 746 72C764 64 768 60 768 49V45C766 14 766 -31 766 -84V-183H951C959 -183 963 -184 963 -187C963 -189 960 -193 955 -198Z"/>
</svg>