<svg xmlns="http://www.w3.org/2000/svg" viewBox="0 -1000 1000 1000">
	<path fill="#000000" d="M726 -288L694 -245H302L239 -294C241 -263 242 -215 242 -191V-68C242 -33 241 18 239 54V64C239 74 240 78 246 78C250 78 257 75 267 70C285 60 288 56 288 46V-14H714V62C714 71 716 76 721 76C725 76 731 74 739 69C761 56 765 52 765 40V36C763 6 762 -39 762 -73V-204L787 -223C793 -227 795 -230 795 -233C795 -236 793 -239 787 -243ZM288 -36V-223H714V-36ZM425 -841C474 -807 491 -771 498 -739C506 -701 511 -698 524 -698C539 -698 558 -720 558 -746C558 -785 511 -817 433 -851ZM875 -747L833 -689H114C91 -689 66 -691 41 -693L69 -656C86 -663 115 -667 136 -667H937C946 -667 951 -670 951 -674C951 -678 948 -683 941 -689ZM756 -591L720 -541H265C242 -541 217 -543 192 -545L220 -508C237 -515 266 -519 287 -519H809C818 -519 823 -521 823 -526C823 -529 819 -535 812 -541ZM758 -445L720 -393H261C238 -393 213 -395 188 -397L216 -360C233 -367 262 -371 283 -371H814C824 -371 829 -373 829 -377C829 -381 825 -386 817 -393Z"/>
</svg>