<svg xmlns="http://www.w3.org/2000/svg" viewBox="0 -1000 1000 1000">
	<path fill="#000000" d="M361 -290L330 -252H181L120 -309C122 -278 123 -246 123 -207V-96C123 -48 122 -4 120 29C120 35 119 40 119 44C119 56 121 61 127 61C132 61 138 59 147 55C164 48 166 45 166 30V-39H342V35C342 44 343 49 348 49C352 49 358 47 368 42C387 33 391 29 391 15V8C388 -33 387 -64 387 -98V-213L415 -226C421 -229 423 -231 423 -234C423 -236 421 -240 415 -244ZM166 -61V-230H342V-61ZM165 -841C217 -789 233 -756 244 -713C250 -689 258 -683 270 -683C285 -683 304 -704 304 -731C304 -768 274 -802 174 -850ZM428 -698L387 -651H107C84 -651 59 -653 34 -655L62 -618C79 -625 108 -629 129 -629H466C476 -629 480 -630 480 -634C480 -637 478 -642 472 -648ZM380 -566L344 -519H149C126 -519 101 -521 76 -523L104 -486C121 -493 150 -497 171 -497H423C434 -497 439 -499 439 -502C439 -505 435 -510 429 -516ZM380 -434L340 -389H149C126 -389 101 -391 76 -393L104 -356C121 -363 150 -367 171 -367H420C431 -367 436 -368 436 -372C436 -375 432 -379 426 -386ZM848 -642C850 -605 852 -537 852 -496V-35L716 -31V-770L749 -789C755 -793 759 -796 759 -799C759 -802 755 -805 748 -809L670 -853C672 -824 673 -795 673 -763V-31L542 -27V-539L568 -555C575 -559 578 -563 578 -566C578 -569 575 -571 568 -575L494 -616C497 -587 497 -555 497 -519V-42L455 -22L511 26C514 28 516 30 518 30C521 30 523 28 525 25L549 -6L852 -14V63C852 72 853 76 858 76C862 76 867 74 876 70C897 61 901 57 901 43V36C898 -9 897 -71 897 -147V-559L925 -573C934 -577 938 -581 938 -585C938 -589 934 -593 924 -599Z"/>
</svg>