<svg xmlns="http://www.w3.org/2000/svg" viewBox="0 -1000 1000 1000">
	<path fill="#000000" d="M101 -329C103 -298 104 -261 104 -222V-70C104 -22 103 32 101 65V71C101 82 103 86 109 86C114 86 120 85 128 81C145 74 147 71 147 56V-27H343V46C343 56 344 60 349 60C353 60 359 58 369 53C388 44 392 40 392 26V19C389 -26 388 -55 388 -89V-226L416 -242C422 -246 424 -248 424 -251C424 -254 422 -257 416 -261L353 -307L323 -266H157ZM147 -49V-244H343V-49ZM367 -574L326 -523H153C130 -523 106 -524 80 -527L108 -491C125 -498 154 -502 175 -502H411C422 -502 427 -503 427 -507C427 -509 423 -514 417 -520ZM386 -704L349 -651H110C87 -651 63 -652 37 -655L65 -618C82 -625 111 -629 132 -629H432C442 -629 447 -630 447 -634C447 -637 444 -641 438 -648ZM169 -827C216 -788 229 -753 236 -708C240 -683 244 -676 258 -676C276 -676 293 -693 293 -717C293 -766 243 -799 178 -837ZM608 -416L482 -398C461 -395 438 -393 416 -392L360 -449L319 -401H155C132 -401 107 -402 82 -405L110 -368C127 -375 156 -379 177 -379H404C413 -379 418 -380 419 -383L445 -361C461 -371 488 -377 508 -379L608 -393V-82C608 19 616 30 697 35C743 38 776 39 806 39C890 39 939 39 965 -25C966 -27 966 -30 966 -32C966 -37 964 -42 958 -46C943 -57 935 -83 935 -185H921C904 -15 899 -10 846 -6C825 -5 801 -4 776 -4C748 -4 718 -5 688 -8C659 -11 655 -15 655 -85V-400L935 -439C944 -440 948 -443 948 -446C948 -450 944 -454 934 -461L868 -506L831 -447L655 -422V-720C711 -732 738 -738 785 -750C802 -754 816 -756 828 -756C834 -756 859 -752 864 -752C868 -752 870 -753 870 -755C870 -758 867 -761 862 -767L819 -817C691 -762 593 -734 439 -699L444 -683C506 -693 558 -702 608 -711Z"/>
</svg>