<svg xmlns="http://www.w3.org/2000/svg" viewBox="0 -1000 1000 1000">
	<path fill="#000000" d="M340 -308L311 -268H172L111 -327C113 -296 114 -264 114 -225V-104C114 -56 113 -12 111 21V35C111 48 113 53 119 53C124 53 130 51 139 47C155 40 157 37 157 22V-50H321V11C321 21 322 26 327 26C331 26 338 23 348 18C367 8 371 5 371 -9V-16C368 -57 367 -87 367 -121V-228L397 -245C403 -249 405 -251 405 -254C405 -256 403 -259 398 -263ZM157 -72V-246H321V-72ZM160 -842C216 -789 233 -755 238 -720C242 -695 249 -684 263 -684C283 -684 305 -704 305 -734C305 -771 275 -807 167 -854ZM382 -713L338 -660H114C91 -660 66 -662 41 -664L69 -627C86 -634 115 -638 136 -638H425C435 -638 439 -640 439 -644C439 -647 437 -651 431 -657ZM344 -576L304 -531H141C118 -531 93 -533 68 -535L96 -499C113 -506 142 -510 163 -510H384C394 -510 399 -512 399 -515C399 -518 396 -522 390 -528ZM355 -459L309 -409H134C111 -409 86 -411 61 -413L89 -376C106 -383 135 -387 156 -387H396C406 -387 410 -388 410 -392C410 -395 408 -400 402 -406ZM872 -678L843 -633H700C702 -666 704 -704 705 -745C706 -773 708 -777 729 -790C739 -796 743 -800 743 -804C743 -808 739 -811 729 -816L657 -855C658 -783 657 -698 655 -633H522L456 -691C458 -654 460 -586 460 -545V-173C460 -116 459 -26 457 33V40C457 58 459 64 467 64C471 64 477 62 485 59C506 50 510 46 510 32V25C507 -20 506 -95 506 -171V-611H655C648 -413 618 -339 510 -208L521 -198C598 -265 655 -341 678 -436C733 -368 759 -306 767 -265C774 -231 781 -222 796 -222C807 -222 826 -236 826 -266C826 -317 769 -382 684 -460C689 -490 695 -540 699 -611H860V-39C860 -11 859 0 822 0C799 0 764 -4 707 -11L705 6C796 28 814 37 821 80C822 86 824 89 827 89C829 89 832 88 836 86C901 55 905 44 905 -38V-592L933 -608C940 -612 944 -615 944 -619C944 -622 940 -626 934 -631Z"/>
</svg>