<svg xmlns="http://www.w3.org/2000/svg" viewBox="0 -1000 1000 1000">
	<path fill="#000000" d="M981 -13C867 -23 769 -61 704 -116C751 -172 786 -241 817 -324C823 -341 830 -347 857 -359C866 -363 870 -366 870 -369C870 -371 867 -373 863 -377L796 -427L765 -384H512C489 -384 464 -386 439 -388L467 -351C490 -362 506 -362 540 -362C560 -263 591 -188 646 -121C584 -55 483 7 352 62L357 78C492 35 601 -12 677 -87C760 -7 883 47 887 47C889 47 891 46 892 44C906 22 931 5 981 3ZM770 -362C745 -263 713 -202 670 -149C618 -208 586 -274 563 -362ZM375 -332L344 -291H185L121 -352C123 -322 124 -273 124 -249V-121C124 -67 124 -36 121 10C121 16 120 20 120 24C120 37 122 42 128 42C132 42 139 40 148 35C169 25 171 23 171 11V-71H355V-6C355 4 356 9 361 9C363 9 405 -4 405 -23V-28C403 -57 402 -86 402 -123V-249L441 -269C446 -272 449 -273 449 -275C449 -277 446 -280 442 -283ZM171 -93V-269H355V-93ZM178 -853C216 -813 240 -769 244 -736C248 -706 253 -698 267 -698C283 -698 307 -716 307 -749C307 -752 306 -756 306 -759C302 -789 261 -828 185 -862ZM438 -731L398 -677H106C83 -677 58 -679 33 -681L63 -644C80 -651 109 -655 130 -655H487C496 -655 501 -656 501 -659C501 -662 499 -666 494 -671ZM794 -730L833 -751C838 -754 841 -756 841 -759C841 -761 838 -764 833 -768L766 -817L738 -772H609L549 -830C551 -783 552 -743 552 -708C552 -541 526 -489 444 -425L453 -411C575 -492 599 -517 601 -750H747V-567C747 -494 755 -489 846 -489C861 -489 981 -492 981 -503C981 -511 957 -537 933 -551C905 -534 883 -528 841 -528C802 -528 794 -535 794 -570ZM384 -601L346 -552H142C119 -552 94 -554 69 -556L97 -519C114 -526 143 -530 164 -530H430C439 -530 444 -531 444 -534C444 -537 441 -540 436 -546ZM378 -470L346 -424H143C120 -424 95 -426 70 -428L98 -391C115 -398 144 -402 165 -402H416C425 -402 429 -403 429 -406C429 -409 427 -412 422 -418Z"/>
</svg>