<svg xmlns="http://www.w3.org/2000/svg" viewBox="0 -1000 1000 1000">
	<path fill="#000000" d="M704 -463L677 -418H554L500 -464C502 -433 503 -385 503 -361V-195C503 -158 503 -121 501 -100C500 -92 500 -86 500 -82C500 -72 502 -68 507 -68C514 -68 547 -78 547 -99V-165H692V-127C692 -117 693 -112 698 -112C702 -112 709 -115 719 -120C735 -128 740 -131 740 -143C740 -146 739 -149 739 -152C737 -174 736 -203 736 -230V-384L767 -402C770 -404 772 -406 772 -408C772 -411 769 -414 763 -419ZM547 -185V-398H692V-185ZM351 -325L325 -282H180L123 -326C125 -295 126 -247 126 -223V-72C126 -56 124 20 124 28C124 39 125 43 130 43C134 43 140 41 148 37C167 29 170 24 170 12V-58H335V-9C335 -1 336 4 342 4C346 4 352 2 362 -2C379 -9 383 -12 383 -25C383 -28 382 -32 382 -37C379 -73 379 -111 379 -136V-242L409 -261C415 -265 417 -267 417 -270C417 -273 414 -276 409 -280ZM170 -78V-262H335V-78ZM168 -853C215 -811 237 -768 241 -720C243 -696 249 -690 263 -690C289 -690 305 -718 305 -744C305 -784 261 -821 177 -863ZM410 -718L366 -668H76C59 -668 46 -668 18 -670L47 -640C62 -646 75 -648 94 -648H455C460 -648 463 -651 463 -654C463 -656 462 -659 460 -661ZM761 -642L715 -587H486C472 -587 461 -588 436 -590L464 -560C479 -565 489 -567 504 -567H809C816 -567 820 -568 820 -572C820 -574 818 -577 814 -582ZM370 -589L333 -538H121C105 -538 94 -538 68 -540L95 -511C110 -516 122 -518 139 -518H421C427 -518 429 -520 429 -522C429 -525 428 -528 424 -532ZM390 -459L344 -411H121C105 -411 95 -411 63 -413L91 -384C110 -390 117 -391 139 -391H433C440 -391 443 -393 443 -397C443 -399 441 -402 438 -406ZM869 -818L836 -770H487C468 -770 456 -770 427 -772L458 -740C476 -748 487 -750 505 -750H855V-37C855 -20 854 -11 822 -11C799 -11 760 -16 693 -27L691 -7C790 20 814 37 819 74C820 81 821 84 824 84C826 84 828 83 831 81C895 46 899 38 899 -22V-733L932 -751C937 -754 939 -756 939 -759C939 -762 937 -765 933 -768Z"/>
</svg>