<svg xmlns="http://www.w3.org/2000/svg" viewBox="0 -1000 1000 1000">
	<path fill="#000000" d="M352 -317L324 -277H169L112 -319C114 -288 115 -240 115 -216V-64C115 -49 111 29 111 47C111 58 113 63 120 63C124 63 132 61 143 56C160 49 162 46 162 31V-44H337V14C337 22 338 27 344 27C348 27 354 25 364 21C385 12 388 8 388 -5V-13C385 -58 384 -87 384 -121V-242L406 -256C411 -260 414 -262 414 -265C414 -268 411 -271 406 -275ZM162 -65V-256H337V-65ZM180 -849C222 -802 236 -767 242 -723C245 -699 249 -692 263 -692C288 -692 304 -718 304 -742C304 -784 251 -824 189 -859ZM495 -832C534 -797 558 -751 569 -706C577 -674 582 -667 592 -667C613 -667 631 -691 631 -719C631 -756 595 -791 504 -843ZM391 -710L356 -667H106C83 -667 58 -669 33 -671L61 -635C78 -642 107 -646 128 -646H428C437 -646 441 -647 441 -650C441 -653 438 -657 431 -665ZM377 -579L339 -534H153C130 -534 105 -536 80 -538L108 -502C125 -509 154 -513 175 -513H422C432 -513 437 -514 437 -516C437 -519 433 -524 425 -532ZM391 -452L347 -404H151C128 -404 103 -406 78 -408L106 -372C123 -379 152 -383 173 -383H433C442 -383 447 -384 447 -387C447 -390 443 -395 436 -403ZM911 -292L859 -235H691V-421H887C898 -421 903 -422 903 -426C903 -429 899 -435 891 -443L844 -495L797 -442H691V-620H931C941 -620 946 -621 946 -624C946 -628 942 -633 935 -642L890 -697L841 -641H720C828 -793 834 -797 853 -799C862 -800 867 -801 867 -804C867 -806 863 -810 855 -815L796 -854C775 -802 737 -720 695 -641H517C496 -641 473 -643 451 -645L476 -610C491 -616 518 -620 537 -620H644V-442H520C499 -442 476 -444 454 -446L479 -411C494 -417 521 -421 540 -421H644V-235H472C451 -235 428 -237 406 -239L431 -204C446 -210 473 -214 492 -214H644V-153C644 -99 643 -13 641 43V52C641 67 643 73 650 73C654 73 661 71 670 67C691 59 695 55 695 40V35C692 -8 691 -79 691 -151V-214H954C964 -214 969 -215 969 -219C969 -222 965 -227 958 -236Z"/>
</svg>