<svg xmlns="http://www.w3.org/2000/svg" viewBox="0 -1000 1000 1000">
	<path fill="#000000" d="M361 -315L331 -270H172L108 -327C110 -296 111 -264 111 -225V-93C111 -45 111 -1 109 32V46C109 59 111 64 117 64C122 64 128 62 137 58C153 51 157 48 157 33V-31H344V40C344 50 345 55 350 55C354 55 361 52 371 47C391 36 395 33 395 19V13C392 -28 391 -58 391 -92V-236L424 -255C429 -258 431 -260 431 -263C431 -265 429 -267 425 -270ZM157 -51V-250H344V-51ZM839 -324L807 -282H562L501 -337C503 -306 504 -274 504 -235V-72C504 -24 504 20 502 53V67C502 80 504 85 510 85C515 85 521 83 530 79C546 72 550 69 550 54V-16H815V64C815 74 816 79 821 79C825 79 832 76 842 71C862 60 866 57 866 43V37C863 -4 862 -34 862 -68V-239L900 -259C905 -262 907 -264 907 -266C907 -269 905 -271 901 -274ZM550 -36V-262H815V-36ZM184 -847C228 -812 250 -767 254 -735C258 -707 265 -697 278 -697C299 -697 317 -717 317 -745C317 -782 289 -812 190 -857ZM418 -724L366 -674H113C90 -674 65 -676 40 -678L68 -643C85 -650 114 -654 135 -654H463C473 -654 477 -655 477 -659C477 -661 475 -665 469 -671ZM920 -685L871 -629H711V-784L739 -798C747 -802 751 -806 751 -809C751 -813 747 -816 738 -820L662 -857C664 -822 665 -798 665 -759V-629H510C487 -629 462 -630 437 -633L465 -598C482 -605 511 -609 532 -609H665V-428H550C527 -428 502 -430 477 -432L505 -397C522 -404 551 -408 572 -408H924C934 -408 938 -409 938 -412C938 -415 936 -419 930 -425L876 -486L833 -428H711V-609H965C975 -609 979 -610 979 -613C979 -616 976 -620 971 -626ZM372 -591L330 -543H163C140 -543 115 -545 90 -547L118 -512C135 -519 164 -523 185 -523H414C424 -523 429 -524 429 -527C429 -530 426 -534 420 -540ZM387 -455L345 -407H161C138 -407 113 -409 88 -411L116 -376C133 -383 162 -387 183 -387H431C441 -387 445 -388 445 -392C445 -394 443 -398 437 -404Z"/>
</svg>