<svg xmlns="http://www.w3.org/2000/svg" viewBox="0 -1000 1000 1000">
	<path fill="#000000" d="M325 -320L296 -280H161L100 -338C102 -307 103 -259 103 -235V-81C103 -46 103 -11 100 15C99 22 99 27 99 32C99 43 101 47 108 47C113 47 120 45 129 41C146 34 148 28 148 16V-41H311V19C311 27 312 32 318 32C321 32 327 30 337 26C355 18 359 13 359 -1V-8C356 -53 356 -79 356 -113V-248L382 -264C387 -267 389 -269 389 -271C389 -273 387 -275 383 -278ZM148 -63V-258H311V-63ZM151 -858C196 -822 221 -765 225 -739C230 -705 236 -699 250 -699C275 -699 290 -731 290 -750C286 -790 244 -824 159 -868ZM365 -730L328 -679H100C77 -679 52 -681 27 -683L55 -646C72 -653 101 -657 122 -657H413C420 -657 423 -658 423 -660C423 -663 420 -666 415 -672ZM973 -451C846 -487 777 -553 718 -674H924C934 -674 938 -675 938 -678C938 -681 936 -685 930 -691L877 -746L834 -696H609C622 -720 634 -745 646 -771C660 -801 666 -807 688 -812C699 -814 704 -817 704 -820C704 -822 701 -825 695 -828L621 -868C607 -816 584 -756 557 -696H495C474 -696 451 -698 429 -700L454 -664C469 -670 496 -674 515 -674H547C492 -556 421 -435 351 -355L366 -346C404 -382 440 -424 475 -472H752C760 -472 764 -473 764 -476C764 -478 762 -482 757 -488L715 -540L671 -494H491C528 -547 563 -607 598 -674H698C742 -519 874 -412 877 -412C880 -412 882 -414 884 -416C901 -433 919 -439 973 -439ZM340 -602L300 -553H136C113 -553 88 -555 63 -557L91 -520C108 -527 137 -531 158 -531H388C396 -531 399 -532 399 -534C399 -536 397 -540 392 -545ZM327 -459L300 -420H135C112 -420 87 -422 62 -424L90 -387C107 -394 136 -398 157 -398H361C369 -398 373 -398 373 -400C373 -402 369 -405 364 -412ZM822 -410L779 -360H461C440 -360 417 -362 395 -364L420 -328C435 -334 462 -338 481 -338H563L526 -243L481 -224L532 -178C534 -176 536 -174 539 -174C541 -174 544 -176 547 -180L574 -210H771C766 -165 759 -128 747 -77C735 -24 724 -4 681 -4C655 -4 617 -12 559 -23L555 -6C651 16 662 37 672 70C674 75 676 78 680 78C681 78 682 77 683 77C767 45 785 9 816 -193L852 -206C857 -208 859 -210 859 -212C859 -215 857 -217 853 -220L792 -269L764 -232H567L608 -338H865C874 -338 879 -339 879 -342C879 -344 876 -348 870 -355Z"/>
</svg>