<svg xmlns="http://www.w3.org/2000/svg" viewBox="0 -1000 1000 1000">
	<path fill="#000000" d="M392 -718L347 -666H116C93 -666 68 -668 43 -670L71 -634C88 -641 117 -645 138 -645H436C446 -645 451 -646 451 -649C451 -652 448 -656 442 -663ZM899 -720L852 -662H612C621 -695 630 -730 639 -768C643 -787 647 -793 665 -801C674 -805 679 -809 679 -813C679 -817 675 -821 668 -825L605 -864C595 -795 582 -727 566 -662H531C508 -662 483 -664 458 -666L486 -629C513 -640 550 -640 561 -640C520 -483 465 -345 406 -246L421 -237C493 -336 553 -454 606 -640H945C955 -640 959 -641 959 -645C959 -648 957 -653 951 -659ZM339 -314L312 -276H178L120 -329C122 -298 123 -266 123 -227V-86C123 -38 123 6 121 39C121 45 120 50 120 54C120 66 122 71 128 71C133 71 139 69 148 65C164 58 166 55 166 40V-50H326V10C326 20 327 25 332 25C336 25 343 22 353 17C371 8 374 4 374 -9V-17C371 -58 371 -88 371 -122V-246C398 -259 401 -260 401 -264C401 -266 399 -269 395 -272ZM166 -72V-254H326V-72ZM182 -839C226 -796 241 -765 245 -725C246 -710 257 -690 270 -690C288 -690 311 -709 311 -737C311 -774 269 -811 189 -849ZM368 -586L326 -538H155C132 -538 107 -540 82 -542L110 -506C127 -513 156 -517 177 -517H408C418 -517 423 -518 423 -521C423 -524 420 -528 414 -535ZM361 -450L321 -402H153C130 -402 105 -404 80 -406L108 -369C125 -376 154 -380 175 -380H402C412 -380 416 -382 416 -386C416 -389 414 -393 408 -399ZM576 -422C568 -348 551 -314 515 -278C504 -267 499 -257 499 -248C499 -233 514 -226 529 -226C549 -226 593 -239 593 -348C593 -369 592 -393 589 -422ZM883 -464C838 -396 792 -334 747 -285C729 -352 718 -430 712 -519C715 -528 719 -532 730 -537C741 -542 747 -546 747 -550C747 -554 742 -557 733 -561L665 -592C671 -179 625 -66 388 73L395 87C564 21 657 -102 677 -195C688 -248 698 -339 705 -437C718 -194 766 -76 886 44C901 28 915 20 945 20C955 20 968 21 983 23L985 12C864 -40 793 -129 753 -264C803 -305 842 -341 885 -380C900 -394 909 -398 926 -399C936 -400 940 -402 940 -406C940 -409 938 -413 932 -418Z"/>
</svg>