<svg xmlns="http://www.w3.org/2000/svg" viewBox="0 -1000 1000 1000">
	<path fill="#000000" d="M331 -323L303 -281H167L111 -332C113 -301 114 -269 114 -230V-86C114 -38 114 6 112 39V53C112 66 114 71 120 71C125 71 131 69 140 65C156 58 157 55 157 40V-55H319V5C319 15 320 20 325 20C329 20 336 17 346 12C364 2 368 -1 368 -15V-22C365 -63 364 -93 364 -127V-248C391 -263 395 -265 395 -268C395 -271 393 -273 389 -276ZM157 -77V-259H319V-77ZM165 -852C213 -803 226 -761 226 -722C226 -697 235 -688 249 -688C267 -688 290 -708 290 -738C290 -786 238 -826 173 -861ZM391 -724L346 -672H94C71 -672 46 -674 21 -676L49 -639C66 -646 95 -650 116 -650H435C445 -650 450 -651 450 -654C450 -657 447 -661 441 -668ZM642 -876C575 -684 493 -554 391 -433L401 -424C493 -501 583 -628 663 -792C667 -800 670 -806 673 -810C716 -680 781 -587 866 -512C872 -507 876 -505 879 -505C882 -505 885 -507 888 -510C900 -522 928 -532 972 -530L975 -544C860 -571 756 -664 688 -820C692 -822 713 -828 713 -832C713 -835 709 -838 702 -842ZM342 -594L294 -546H136C113 -546 88 -548 63 -550L91 -514C108 -521 137 -525 158 -525H382C392 -525 397 -526 397 -530C397 -533 394 -537 388 -543ZM341 -462L300 -411H136C113 -411 88 -413 63 -415L91 -378C108 -385 137 -389 158 -389H380C390 -389 394 -390 394 -394C394 -397 392 -402 386 -408ZM879 -70L831 -14H683V-243H868C878 -243 883 -244 883 -248C883 -251 880 -255 874 -262L824 -318L782 -265H683V-452H831C841 -452 846 -454 846 -457C846 -460 843 -465 837 -471L788 -525L745 -474H532C509 -474 484 -476 459 -478L487 -441C504 -448 533 -452 554 -452H638V-265H530C507 -265 482 -267 457 -269L485 -232C502 -239 531 -243 552 -243H638V-14H474C451 -14 426 -16 401 -18L429 19C446 12 475 8 496 8H926C936 8 941 7 941 3C941 1 938 -4 932 -11Z"/>
</svg>