<svg xmlns="http://www.w3.org/2000/svg" viewBox="0 -1000 1000 1000">
	<path fill="#000000" d="M982 -43C849 -75 762 -165 703 -285H958C967 -285 972 -286 972 -289C972 -291 969 -295 963 -302L908 -364L860 -307H673V-434H815V-394C815 -386 816 -381 822 -381C825 -381 831 -383 841 -387C862 -396 865 -400 865 -413C865 -432 860 -513 860 -529V-734L904 -754C909 -756 912 -758 912 -761C912 -763 909 -766 903 -770L838 -819L804 -779H509L451 -840C453 -809 454 -761 454 -737V-540C454 -518 452 -422 452 -403C452 -388 453 -383 460 -383C464 -383 471 -385 480 -389C499 -397 499 -401 499 -434H628V-307H446C423 -307 398 -309 373 -311L401 -274C418 -281 447 -285 468 -285H559C517 -177 415 -50 298 47L307 62C446 -32 528 -122 619 -285H628V-157C628 -100 627 -12 624 46C624 53 623 58 623 62C623 73 625 77 630 77C634 77 641 74 651 70C672 61 675 57 675 44V36C673 -9 673 -79 673 -155V-285H686C746 -91 881 1 883 1C886 1 888 0 890 -3C907 -24 926 -29 982 -29ZM673 -614V-757H815V-614ZM499 -614V-757H628V-614ZM673 -456V-592H815V-456ZM499 -456V-592H628V-456ZM297 -323L272 -284H154L98 -343C100 -312 101 -264 101 -240V-91C101 -56 101 -21 98 5C97 12 97 17 97 22C97 33 99 37 106 37C111 37 118 35 127 31C144 24 146 18 146 6V-50H285V-8C285 0 286 5 292 5C295 5 301 3 311 -1C329 -9 333 -14 333 -28V-35C330 -80 330 -106 330 -140V-254L356 -265C362 -268 365 -270 365 -272C365 -274 362 -277 357 -280ZM146 -72V-262H285V-72ZM137 -849C182 -813 204 -774 212 -734C218 -702 223 -694 236 -694C259 -694 276 -720 276 -745C276 -785 240 -817 145 -860ZM374 -719L329 -671H96C73 -671 48 -673 23 -675L51 -638C68 -645 97 -649 118 -649H417C426 -649 431 -651 431 -654C431 -657 428 -662 422 -668ZM335 -594L294 -547H129C106 -547 81 -549 56 -551L84 -514C101 -521 130 -525 151 -525H381C389 -525 392 -526 392 -528C392 -530 390 -534 385 -539ZM331 -469L291 -424H132C109 -424 84 -426 59 -428L87 -391C104 -398 133 -402 154 -402H373C382 -402 386 -403 386 -406C386 -408 384 -412 379 -417Z"/>
</svg>