<svg xmlns="http://www.w3.org/2000/svg" viewBox="0 -1000 1000 1000">
	<path fill="#000000" d="M906 -635L866 -584H818V-686L849 -700C854 -702 856 -704 856 -706C856 -708 854 -710 850 -713L792 -761L760 -722H620L628 -800L657 -814C663 -817 666 -819 666 -821C666 -824 663 -826 657 -830L587 -872C587 -851 586 -830 581 -782L575 -722H517C494 -722 469 -724 444 -726L472 -689C489 -696 518 -700 539 -700H573L562 -584H463C441 -584 416 -586 393 -588L420 -552C435 -558 464 -562 484 -562H945C954 -562 958 -563 958 -567C958 -570 956 -574 951 -579ZM607 -584L618 -700H774V-584ZM902 -167L855 -115H702V-229H913C922 -229 926 -231 926 -235C926 -239 924 -244 918 -250L874 -302L829 -251H702V-345H797C797 -308 797 -304 804 -304C808 -304 814 -306 824 -310C842 -317 847 -321 847 -329C847 -331 846 -333 846 -336C843 -359 843 -374 843 -404V-455C876 -471 879 -472 879 -476C879 -479 876 -482 871 -485L812 -523L785 -488H522L468 -545C471 -514 471 -473 471 -449V-369C471 -352 469 -325 469 -308C469 -301 470 -298 476 -298C480 -298 487 -300 498 -304C515 -310 517 -313 517 -324V-345H656V-251H456C434 -251 409 -253 386 -255L413 -219C428 -225 457 -229 477 -229H656V-115H489L518 -171C521 -176 525 -179 544 -183C551 -185 555 -187 555 -189C555 -191 552 -194 547 -197L497 -227C494 -218 490 -209 479 -189L446 -126L403 -109L463 -62C465 -61 466 -60 468 -60C470 -60 472 -61 474 -65L495 -93H656C656 -9 655 19 653 47V60C653 74 655 79 662 79C667 79 674 77 683 73C702 65 705 62 705 48V39C703 8 702 -27 702 -93H947C954 -93 957 -94 957 -97C957 -100 955 -103 952 -107ZM517 -367V-466H797V-367ZM314 -307L288 -268H166L109 -329C111 -298 112 -251 112 -227V-81C112 -22 111 8 109 44C109 49 108 54 108 58C108 71 111 76 117 76C121 76 127 74 136 70C155 62 158 59 158 45V-36H302V22C302 31 303 36 308 36C312 36 318 34 328 29C347 20 352 16 352 4C352 2 351 -1 351 -5C349 -23 348 -41 348 -97V-234C375 -251 378 -253 378 -257C378 -259 375 -262 369 -266ZM158 -58V-246H302V-58ZM148 -850C192 -811 210 -771 216 -726C220 -698 225 -689 240 -689C257 -689 279 -712 279 -741C279 -778 244 -817 156 -862ZM366 -722L320 -665H110C87 -665 62 -667 37 -669L65 -632C82 -639 111 -643 132 -643H409C419 -643 423 -645 423 -649C423 -652 421 -657 415 -663ZM326 -580L287 -534H142C119 -534 94 -536 69 -538L97 -501C114 -508 143 -512 164 -512H365C374 -512 379 -514 379 -519C379 -522 376 -526 371 -532ZM336 -454L296 -404H140C117 -404 92 -406 67 -408L95 -371C112 -378 141 -382 162 -382H377C386 -382 391 -384 391 -388C391 -391 388 -396 383 -402Z"/>
</svg>