<svg xmlns="http://www.w3.org/2000/svg" viewBox="0 -1000 1000 1000">
	<path fill="#000000" d="M724 -645C700 -451 633 -395 448 -285L454 -269C478 -280 500 -290 520 -301C521 -276 522 -254 522 -233V-80C522 -32 522 12 520 45C520 51 519 56 519 60C519 72 521 77 527 77C532 77 538 75 547 71C563 64 565 61 565 46V-14H809V54C809 64 810 69 816 69C820 69 826 66 836 61C854 51 858 48 858 34V27C855 -14 854 -44 854 -78V-238L880 -253C885 -256 888 -259 888 -262C888 -265 886 -267 882 -270L821 -319L789 -274H580L532 -307C671 -380 721 -442 753 -557C755 -563 756 -569 758 -573C782 -448 808 -399 900 -325C905 -321 908 -319 911 -319C914 -319 917 -321 920 -325C937 -344 958 -351 994 -351L997 -362C873 -390 802 -446 772 -594C782 -598 786 -602 786 -605C786 -608 783 -611 777 -615ZM565 -36V-252H809V-36ZM328 -314L300 -275H175L112 -330C114 -299 115 -267 115 -228V-105C115 -57 115 -13 113 20V33C113 47 115 52 121 52C126 52 132 50 140 46C156 39 158 36 158 21V-35H316V22C316 32 317 37 322 37C326 37 333 35 343 29C361 20 366 16 366 4C366 1 365 -2 365 -5C362 -38 361 -68 361 -110V-239L388 -257C393 -260 395 -263 395 -265C395 -268 393 -270 388 -273ZM158 -57V-253H316V-57ZM163 -851C217 -795 231 -758 231 -728C231 -698 240 -688 253 -688C275 -688 293 -710 293 -742C293 -768 283 -798 172 -862ZM897 -735L869 -700H699L742 -774C747 -783 756 -790 766 -794C772 -797 776 -799 776 -802C776 -805 773 -808 768 -811L716 -846C681 -747 626 -628 570 -539L583 -531C618 -575 651 -624 685 -678H872L821 -568L834 -561C888 -639 906 -654 944 -661C954 -663 958 -665 958 -669C958 -672 956 -676 951 -681ZM434 -800C479 -758 495 -720 495 -693C495 -674 501 -666 513 -666C526 -666 546 -683 546 -709C546 -753 473 -795 441 -812ZM596 -738L510 -592C489 -558 479 -544 459 -544C446 -544 430 -549 405 -557L402 -544C453 -525 471 -518 471 -466C471 -454 458 -401 458 -390C458 -370 467 -363 481 -363C500 -363 514 -373 514 -400C514 -410 512 -422 508 -437C505 -447 504 -460 504 -472C504 -483 505 -493 507 -503C514 -533 546 -602 609 -731ZM383 -726L337 -673H107C84 -673 59 -675 34 -677L62 -640C79 -647 108 -651 129 -651H430C440 -651 445 -652 445 -656C445 -659 442 -663 436 -670ZM335 -597L303 -553H141C118 -553 93 -555 68 -557L96 -521C113 -528 142 -532 163 -532H371C381 -532 386 -533 386 -537C386 -540 383 -544 377 -550ZM345 -471L308 -426H143C120 -426 95 -427 70 -430L98 -393C115 -400 144 -404 165 -404H381C391 -404 396 -405 396 -409C396 -411 393 -416 387 -423Z"/>
</svg>