<svg xmlns="http://www.w3.org/2000/svg" viewBox="0 -1000 1000 1000">
	<path fill="#000000" d="M830 -829L799 -785H543L484 -840C486 -809 487 -761 487 -737V-594C487 -578 483 -505 483 -490C483 -479 485 -475 491 -475C495 -475 502 -477 511 -481C531 -489 531 -496 531 -509H811C811 -479 811 -476 818 -476C822 -476 828 -478 838 -482C857 -490 861 -495 861 -509V-516C858 -561 856 -592 856 -650V-743L890 -761C895 -764 898 -766 898 -769C898 -771 895 -775 890 -779ZM531 -658V-765H811V-658ZM531 -529V-638H811V-529ZM324 -330L298 -293H176L120 -347C122 -316 123 -284 123 -245V-123C123 -75 123 -31 121 2V16C121 29 123 34 129 34C134 34 140 32 149 28C165 21 167 18 167 3V-79H312V-18C312 -8 313 -3 319 -3C323 -3 329 -6 339 -11C357 -20 360 -24 360 -37V-45C357 -86 356 -116 356 -150V-260C381 -275 384 -277 384 -281C384 -283 382 -286 379 -288ZM167 -99V-273H312V-99ZM175 -848C217 -806 230 -779 238 -734C243 -704 246 -700 257 -700C281 -700 299 -728 299 -751C299 -790 254 -818 184 -858ZM407 -737L362 -681H118C95 -681 70 -683 45 -685L73 -650C90 -657 119 -661 140 -661H453C464 -661 469 -662 469 -666C469 -668 466 -673 459 -680ZM356 -614L314 -562H138C115 -562 90 -564 65 -566L93 -531C110 -538 139 -542 160 -542H400C409 -542 413 -543 413 -547C413 -549 411 -553 406 -559ZM363 -474L321 -424H138C115 -424 90 -426 65 -428L93 -393C110 -400 139 -404 160 -404H405C415 -404 419 -405 419 -408C419 -411 417 -415 411 -421ZM684 -365C649 -290 625 -253 527 -124L537 -114C571 -144 630 -209 669 -256C718 -236 744 -216 778 -176C792 -159 799 -153 806 -153C818 -153 830 -168 830 -186C830 -235 747 -255 679 -269C705 -308 710 -309 722 -313C730 -316 734 -319 734 -322C734 -325 731 -328 726 -332ZM884 -433L853 -388H541C550 -398 560 -409 569 -420C588 -442 595 -446 611 -448C621 -449 626 -451 626 -455C626 -457 623 -461 617 -466L572 -505C520 -410 446 -322 382 -251L390 -242C428 -274 474 -316 523 -368H866C864 -260 858 -150 851 -52C848 -17 842 -2 801 -2C777 -2 740 -7 686 -17L684 -1C779 25 797 34 808 76C809 81 812 84 815 84C817 84 819 83 822 82C877 51 892 27 897 -23C901 -72 906 -227 909 -344L943 -363C948 -366 951 -369 951 -372C951 -375 949 -378 945 -382ZM756 -137L713 -85H514V-253C542 -270 545 -271 545 -276C545 -279 542 -282 537 -284L471 -311V-104L433 -81L486 -35C489 -32 492 -31 495 -31C498 -31 500 -32 502 -36L521 -65H796C808 -65 813 -67 813 -72C813 -75 810 -79 805 -85Z"/>
</svg>