<svg xmlns="http://www.w3.org/2000/svg" viewBox="0 -1000 1000 1000">
	<path fill="#000000" d="M877 -819L846 -772H493L427 -836C429 -807 430 -761 430 -738V-581C430 -534 429 -505 427 -468C427 -462 426 -458 426 -454C426 -443 428 -438 434 -438C438 -438 445 -440 454 -444C475 -453 475 -453 475 -479H861C861 -448 861 -445 869 -445C873 -445 878 -447 887 -450C907 -459 910 -463 910 -476V-483C907 -525 906 -555 906 -591V-735L940 -752C946 -755 949 -757 949 -759C949 -762 946 -764 940 -769ZM685 -633V-750H861V-633ZM475 -633V-750H640V-633ZM685 -501V-611H861V-501ZM475 -501V-611H640V-501ZM837 -422L806 -385H532L471 -443C473 -410 475 -364 475 -327V-75C475 -62 472 30 472 50C472 65 474 71 481 71C485 71 491 69 499 66C519 57 520 54 520 43V-128H821V-18C821 -5 816 2 790 2C769 2 735 -3 680 -13L677 2C767 30 775 42 785 81C786 86 788 88 791 88C793 88 795 87 798 86C859 62 866 43 866 0V-344L901 -364C906 -367 908 -369 908 -371C908 -374 906 -376 901 -379ZM520 -269V-363H821V-269ZM520 -150V-247H821V-150ZM335 -327L304 -283H181L124 -341C126 -310 127 -262 127 -238V-94C127 -80 124 -3 124 15C124 28 125 33 132 33C136 33 143 30 153 26C170 19 172 16 172 1V-57H318V-9C318 -1 319 4 325 4C329 4 335 2 345 -2C364 -10 367 -14 367 -27V-36C364 -81 363 -110 363 -144V-246L392 -262C398 -265 401 -268 401 -270C401 -273 398 -277 392 -281ZM172 -79V-261H318V-79ZM170 -834C206 -800 226 -743 226 -713C226 -682 235 -674 248 -674C265 -674 290 -693 290 -727C290 -748 283 -783 177 -844ZM375 -711L333 -665H115C92 -665 67 -667 42 -669L70 -632C87 -639 116 -643 137 -643H415C424 -643 429 -644 429 -647C429 -650 425 -655 417 -664ZM336 -585L294 -537H138C115 -537 90 -539 65 -541L93 -504C110 -511 139 -515 160 -515H374C384 -515 389 -516 389 -519C389 -522 385 -527 378 -536ZM346 -459L305 -415H144C121 -415 96 -417 71 -419L99 -382C116 -389 145 -393 166 -393H386C395 -393 399 -394 399 -398C399 -401 396 -406 388 -414Z"/>
</svg>