<svg xmlns="http://www.w3.org/2000/svg" viewBox="0 -1000 1000 1000">
	<path fill="#000000" d="M984 -32C874 -62 789 -148 734 -269H818V-235C818 -226 819 -222 825 -222C831 -222 867 -233 867 -250C867 -253 862 -338 862 -354V-405H965C973 -405 978 -407 978 -411C978 -415 975 -420 969 -427L927 -478L884 -427H862V-525L895 -544C900 -547 903 -550 903 -553C903 -556 901 -559 896 -562L835 -607L805 -563H713V-680H941C950 -680 954 -682 954 -686C954 -689 951 -695 945 -702L900 -757L854 -702H686C764 -793 783 -808 814 -813C820 -814 823 -816 823 -818C823 -820 821 -822 817 -825L755 -869C737 -824 700 -757 662 -702H483C460 -702 435 -704 410 -706L438 -669C454 -676 475 -680 509 -680V-563H454C431 -563 406 -565 381 -567L409 -530C426 -537 455 -541 476 -541H509V-427H464C441 -427 416 -429 391 -431L419 -394C446 -405 480 -405 509 -405V-291H457C434 -291 409 -293 384 -295L412 -258C439 -269 473 -269 499 -269C433 -145 325 -16 237 54L250 65C359 -9 436 -91 509 -197V-158C509 -101 508 -11 506 48V57C506 73 508 79 515 79C519 79 524 77 532 74C553 65 557 61 557 46V40C554 -5 553 -80 553 -156V-269H668V-163C668 -106 667 -16 665 43V49C665 68 668 75 675 75C679 75 685 73 692 69C712 58 717 52 717 39V35C714 -10 713 -85 713 -161V-266C756 -150 806 -71 883 7C886 10 889 12 891 12C893 12 896 10 898 8C915 -9 946 -17 984 -17ZM553 -427V-541H668V-427ZM713 -427V-541H818V-427ZM713 -291V-405H818V-291ZM553 -291V-405H668V-291ZM553 -563V-680H668V-563ZM299 -330L275 -296H162L109 -349C111 -322 112 -288 112 -246V-90C112 -40 111 -9 108 19V25C108 31 110 35 115 35C120 35 127 32 137 27C153 19 156 15 156 5V-66H287C287 -38 287 -35 294 -35C295 -35 335 -47 335 -66C335 -68 331 -131 331 -143V-260L353 -272C358 -275 361 -277 361 -280C361 -283 358 -286 353 -290ZM156 -88V-274H287V-88ZM459 -847C495 -819 529 -772 540 -747C551 -721 557 -714 568 -714C582 -714 600 -728 600 -750C600 -757 598 -765 594 -773C583 -796 539 -828 465 -860ZM138 -854C180 -819 205 -776 210 -742C214 -716 217 -706 230 -706C253 -706 275 -725 275 -761C275 -790 231 -827 148 -862ZM348 -737L305 -685H109C86 -685 61 -687 36 -689L64 -652C81 -659 110 -663 131 -663H390C398 -663 402 -664 402 -668C402 -671 399 -676 393 -683ZM316 -606L275 -561H136C113 -561 88 -563 63 -565L91 -528C108 -535 137 -539 158 -539H356C364 -539 368 -540 368 -543C368 -546 365 -551 359 -558ZM319 -483L282 -434H139C116 -434 91 -436 66 -438L94 -401C111 -408 140 -412 161 -412H361C370 -412 374 -414 374 -418C374 -421 371 -425 366 -431Z"/>
</svg>