<svg xmlns="http://www.w3.org/2000/svg" viewBox="0 -1000 1000 1000">
	<path fill="#000000" d="M923 -199L882 -153H860V-345L886 -360C890 -362 892 -364 892 -367C892 -370 889 -373 883 -378L830 -419L798 -379H668V-468H956C965 -468 969 -469 969 -472C969 -475 966 -479 960 -486L914 -538L873 -489H761V-585H898C906 -585 910 -586 910 -589C910 -592 907 -596 902 -603L863 -651L823 -606H761V-702H937C946 -702 950 -703 950 -707C950 -709 948 -712 944 -717L896 -772L854 -723H761V-792C790 -808 794 -810 794 -813C794 -816 789 -818 780 -822L714 -850C716 -818 717 -778 717 -723H573V-786C606 -804 606 -804 606 -808C606 -811 602 -814 593 -818L526 -851C528 -818 529 -774 529 -723H455C430 -723 407 -724 382 -727L410 -691C427 -698 456 -702 477 -702H529V-606H466C443 -606 418 -607 393 -610L421 -574C438 -581 467 -585 488 -585H529V-489H412C389 -489 364 -490 339 -493L367 -457C384 -464 413 -468 434 -468H624V-379H500L442 -436C444 -399 446 -330 446 -289V-153H411C388 -153 363 -154 338 -157L366 -122C393 -133 428 -133 446 -133C446 -65 445 -13 443 43V51C443 68 445 75 452 75C457 75 464 73 473 68C491 59 494 56 494 43V35C491 -8 490 -48 490 -133H815V-16C815 5 813 14 780 14C760 14 728 11 678 4L677 20C754 33 775 52 787 87C789 93 791 96 795 96C797 96 800 95 803 94C858 67 860 61 860 -18V-133H965C972 -133 976 -134 976 -137C976 -140 973 -144 967 -151ZM668 -270V-358H815V-270ZM490 -270V-358H624V-270ZM668 -153V-249H815V-153ZM490 -153V-249H624V-153ZM573 -606V-702H717V-606ZM573 -489V-585H717V-489ZM304 -325L277 -283H173L117 -342C120 -312 120 -283 120 -241V-92C120 -27 119 3 116 24C115 31 114 36 114 40C114 47 116 50 121 50C125 50 132 47 142 43C162 34 164 31 164 18V-50H290V14C290 24 291 29 297 29C299 29 338 15 338 2V-2C335 -32 334 -57 334 -88V-246L359 -259C365 -262 368 -265 368 -268C368 -271 365 -274 359 -279ZM164 -72V-261H290V-72ZM146 -842C188 -803 212 -756 212 -727C212 -700 217 -688 232 -688C250 -688 276 -709 276 -739C276 -787 206 -827 153 -851ZM350 -718L310 -674H110C87 -674 62 -675 37 -678L65 -641C82 -648 111 -652 132 -652H389C400 -652 405 -653 405 -656C405 -659 402 -663 396 -669ZM315 -588L275 -544H131C108 -544 83 -545 58 -548L86 -511C103 -518 132 -522 153 -522H355C367 -522 372 -523 372 -526C372 -529 369 -533 362 -540ZM315 -465L274 -415H133C110 -415 85 -416 60 -419L88 -382C105 -389 134 -393 155 -393H353C364 -393 369 -394 369 -398C369 -400 366 -405 361 -411Z"/>
</svg>