<svg xmlns="http://www.w3.org/2000/svg" viewBox="0 -1000 1000 1000">
	<path fill="#000000" d="M301 -329L275 -291H167L111 -342C113 -311 114 -263 114 -239V-108C114 -43 114 -15 112 18C112 23 111 27 111 30C111 39 113 43 118 43C122 43 128 41 137 37C157 28 159 25 159 12V-55H287V7C287 18 288 23 293 23C296 23 335 6 335 -8V-11C333 -39 332 -75 332 -111V-255C365 -274 365 -274 365 -278C365 -281 363 -284 358 -287ZM159 -77V-269H287V-77ZM166 -840C203 -801 224 -755 224 -721C224 -689 228 -685 238 -685C261 -685 283 -706 283 -738C283 -773 233 -815 174 -849ZM677 -726C713 -703 732 -673 734 -653C737 -626 744 -618 755 -618C771 -618 785 -640 785 -664C785 -691 743 -719 683 -736ZM423 -726C462 -696 484 -664 488 -648C496 -618 499 -614 511 -614C529 -614 540 -636 540 -663C540 -681 508 -712 429 -735ZM364 -715L324 -662H103C80 -662 55 -664 30 -666L58 -629C75 -636 104 -640 125 -640H412C421 -640 426 -641 426 -645C426 -648 422 -654 415 -661ZM867 -826L838 -787H661L608 -826L582 -786H450C427 -786 402 -788 377 -790L405 -753C422 -760 451 -764 472 -764H596V-619L405 -517L449 -485C451 -484 453 -483 454 -483C458 -483 461 -486 465 -492C474 -507 521 -544 596 -596V-498C596 -493 597 -490 602 -490C605 -490 609 -491 616 -494C640 -504 644 -509 644 -519V-524C642 -546 641 -572 641 -599V-750L662 -765H849V-639L662 -555L700 -524C703 -522 706 -520 708 -520C712 -520 715 -523 719 -528C728 -540 773 -572 849 -617V-477C849 -471 850 -467 854 -467C857 -467 897 -481 897 -499V-503C895 -525 894 -551 894 -578V-747L923 -762C929 -765 932 -768 932 -771C932 -774 929 -778 924 -782ZM337 -594L300 -545H155C132 -545 107 -547 82 -549L110 -512C127 -519 156 -523 177 -523H377C387 -523 392 -525 392 -528C392 -531 389 -536 383 -542ZM334 -469L296 -420H140C117 -420 92 -422 67 -424L95 -387C112 -394 141 -398 162 -398H378C388 -398 393 -399 393 -403C393 -406 389 -410 383 -417ZM986 -310C882 -314 756 -374 698 -463C722 -470 724 -471 724 -474C724 -476 721 -479 715 -482L665 -513C583 -410 432 -286 344 -228L349 -216C455 -260 602 -381 679 -455C724 -372 794 -314 893 -260C897 -258 900 -257 902 -257C906 -257 908 -259 911 -263C925 -283 949 -298 986 -298ZM669 -361C582 -267 516 -217 408 -150L413 -139C522 -187 595 -235 677 -301C686 -309 691 -310 710 -312C718 -313 722 -315 722 -317C722 -320 718 -323 712 -328ZM738 -269C659 -180 511 -83 404 -35L406 -23C502 -44 658 -137 742 -206C752 -214 757 -216 777 -217C787 -218 792 -219 792 -222C792 -224 789 -227 784 -231ZM835 -184C739 -74 546 24 377 79L379 92C483 80 716 -16 838 -114C848 -122 854 -124 875 -124C885 -124 890 -125 890 -128C890 -131 887 -134 882 -139Z"/>
</svg>