<svg xmlns="http://www.w3.org/2000/svg" viewBox="0 -1000 1000 1000">
	<path fill="#000000" d="M819 -359L789 -319H543L487 -374C489 -344 490 -295 490 -271V-89C490 -48 490 -17 487 42V54C487 67 489 72 495 72C499 72 505 70 513 67C533 59 536 55 536 43V3H802V57C802 67 803 72 808 72C810 72 852 58 852 41V36C849 -4 848 -32 848 -60V-282L879 -299C884 -302 887 -304 887 -307C887 -309 884 -312 879 -316ZM536 -172V-297H802V-172ZM536 -19V-150H802V-19ZM919 -483L882 -432H765V-675H943C952 -675 956 -677 956 -680C956 -683 954 -686 949 -691L901 -739L865 -697H742L788 -755C817 -791 835 -805 854 -808C859 -809 862 -810 862 -812C862 -814 860 -816 857 -818L798 -859C772 -799 745 -742 717 -697H499C476 -697 451 -699 426 -701L454 -664C471 -671 500 -675 521 -675H584V-432H482C459 -432 434 -434 409 -436L437 -399C454 -406 483 -410 504 -410H968C977 -410 982 -411 982 -414C982 -417 979 -421 974 -426ZM630 -432V-675H719V-432ZM320 -334L291 -297H165L106 -358C108 -328 109 -279 109 -255V-119C109 -78 109 -47 106 12V24C106 37 108 42 114 42C118 42 124 40 132 37C152 29 155 25 155 13V-50H300V0C300 10 301 15 306 15C308 15 350 1 350 -16V-21C347 -61 346 -89 346 -117V-259L375 -273C381 -276 383 -278 383 -280C383 -283 381 -286 375 -290ZM155 -72V-275H300V-72ZM524 -848C554 -818 585 -770 589 -747C594 -718 597 -712 612 -712C625 -712 647 -732 647 -758C647 -763 647 -768 645 -773C639 -790 588 -831 531 -857ZM165 -855C199 -826 229 -769 229 -744C229 -713 236 -705 251 -705C264 -705 287 -725 287 -751C287 -795 227 -834 172 -863ZM366 -746L328 -697H120C97 -697 72 -699 47 -701L77 -664C94 -671 123 -675 144 -675H408C417 -675 422 -676 422 -680C422 -682 420 -686 415 -691ZM346 -613L309 -567H149C126 -567 101 -569 76 -571L104 -534C121 -541 150 -545 171 -545H390C399 -545 404 -546 404 -550C404 -552 401 -556 396 -561ZM881 -638C844 -577 812 -533 769 -478L779 -469L845 -531C892 -575 913 -587 933 -589C938 -590 941 -591 941 -593C941 -595 939 -597 936 -599ZM419 -626C459 -584 480 -541 486 -509C491 -483 498 -473 512 -473C532 -473 544 -493 544 -520C544 -547 503 -594 426 -635ZM341 -484L303 -437H144C121 -437 96 -439 71 -441L99 -404C116 -411 145 -415 166 -415H383C392 -415 397 -416 397 -419C397 -422 394 -426 389 -431Z"/>
</svg>