<svg xmlns="http://www.w3.org/2000/svg" viewBox="0 -1000 1000 1000">
	<path fill="#000000" d="M808 -311L782 -266H620L562 -305C564 -274 565 -226 565 -202V-39C565 -25 559 55 559 73C559 84 561 89 568 89C573 89 580 86 590 82C607 75 611 71 611 57V6H800V73C800 81 801 85 807 85C811 85 817 84 826 80C846 71 850 67 850 53V46C847 1 846 -14 846 -48V-236L869 -253C873 -256 875 -258 875 -261C875 -263 873 -266 868 -269ZM611 -15V-246H800V-15ZM382 -262L355 -223H175L117 -264C119 -233 120 -185 120 -161V-50C120 -32 114 46 114 62C114 73 116 78 123 78C128 78 135 75 145 71C162 64 164 61 164 46V-7H371V58C371 66 372 70 378 70C382 70 388 69 397 65C417 56 421 52 421 38V31C418 -14 417 -29 417 -63V-189L437 -203C441 -206 443 -208 443 -210C443 -212 440 -215 435 -219ZM164 -27V-203H371V-27ZM207 -845C243 -817 261 -791 270 -756C275 -737 280 -733 291 -733C309 -733 321 -750 321 -775C321 -800 308 -818 213 -854ZM735 -795C801 -740 848 -667 865 -617C871 -601 876 -594 890 -594C901 -594 915 -620 915 -641C915 -662 887 -721 741 -806ZM473 -755L449 -724H134C134 -736 133 -750 131 -765H120C108 -690 85 -665 57 -639C47 -629 43 -621 43 -614C43 -600 57 -598 64 -598C105 -598 130 -640 133 -704H451L415 -638L426 -632C465 -676 501 -695 524 -695C536 -695 539 -695 539 -699C539 -702 536 -706 528 -712ZM637 -804C604 -721 556 -629 501 -541L511 -534C555 -588 623 -687 658 -742C665 -752 676 -760 690 -765C697 -768 700 -770 700 -772C700 -774 697 -776 690 -779ZM453 -400L423 -358H298V-446H458C464 -446 467 -447 467 -450C467 -452 465 -455 461 -459L416 -505L388 -466H298V-559H456C463 -559 467 -560 467 -562C467 -564 465 -567 461 -572L415 -624L382 -579H298V-644C301 -646 324 -662 324 -664C324 -666 322 -667 319 -669L251 -700C254 -665 254 -634 254 -579H153C130 -579 110 -580 85 -584L116 -552C131 -556 150 -559 171 -559H254V-466H170C147 -466 126 -466 102 -469L132 -437C147 -442 167 -446 188 -446H254V-358H94C71 -358 51 -359 26 -361L56 -330C71 -335 86 -338 112 -338H254C254 -326 251 -271 251 -260C251 -248 253 -244 259 -244C263 -244 269 -246 277 -249C294 -256 299 -261 299 -277C299 -287 298 -329 298 -338H496C503 -338 507 -339 507 -342C507 -344 505 -347 501 -351ZM701 -650C644 -494 590 -399 465 -233L475 -226C581 -327 645 -418 729 -582C762 -452 813 -368 887 -298C890 -295 892 -294 895 -294C897 -294 898 -295 900 -296C921 -315 944 -320 976 -320L978 -331C864 -375 798 -448 741 -595C746 -599 753 -603 759 -604C765 -605 768 -607 768 -610C768 -612 767 -613 764 -615Z"/>
</svg>