<svg xmlns="http://www.w3.org/2000/svg" viewBox="0 -1000 1000 1000">
	<path fill="#000000" d="M215 -806C257 -768 279 -729 288 -699C295 -675 302 -667 311 -667C330 -667 341 -692 341 -711C341 -748 278 -789 221 -815ZM967 -352C865 -357 741 -391 627 -505H935C944 -505 948 -507 948 -510C948 -513 945 -518 939 -524L882 -579L844 -527H389C413 -558 435 -592 457 -631H869C878 -631 882 -632 882 -635C882 -638 879 -642 873 -648L814 -706L774 -653H613L669 -709C715 -755 741 -771 762 -771C769 -771 772 -773 772 -775C772 -777 770 -780 766 -782L702 -815C662 -752 623 -696 588 -653H469C488 -689 507 -730 526 -778C529 -785 536 -790 562 -798C568 -800 571 -802 571 -804C571 -807 568 -809 563 -812L495 -849C474 -775 450 -711 420 -653H178C155 -653 130 -655 105 -657L133 -620C150 -627 179 -631 200 -631H408C388 -595 365 -561 339 -527H105C82 -527 57 -529 32 -531L60 -494C77 -501 106 -505 127 -505H321C253 -425 163 -349 36 -261L41 -250C186 -325 289 -403 372 -505H605C710 -367 874 -295 881 -295C884 -295 886 -297 888 -300C902 -321 922 -335 967 -339ZM739 -341C696 -306 616 -254 552 -220C531 -261 499 -300 452 -335C479 -352 502 -369 524 -385H651C661 -385 666 -387 666 -390C666 -393 663 -397 658 -402L609 -450L580 -407H382C359 -407 334 -409 309 -411L337 -374C354 -381 383 -385 404 -385H452C363 -312 258 -253 160 -207L164 -193C272 -232 363 -279 438 -326C450 -315 461 -303 471 -290C382 -219 280 -158 148 -93L153 -82C280 -126 417 -197 493 -258C503 -243 511 -227 517 -211C428 -133 254 -28 109 32L114 44C207 21 382 -58 532 -167C537 -145 539 -122 539 -101C539 6 498 12 462 12C438 12 406 7 363 -3L359 12C438 36 459 50 464 80C465 86 467 89 470 89C473 89 476 88 481 86C560 51 583 -5 583 -92C583 -131 576 -170 559 -206C562 -208 564 -209 567 -210C686 -147 763 -77 794 -36C813 -11 826 0 833 0C846 0 853 -13 853 -30C853 -39 851 -50 847 -60C835 -91 754 -152 578 -215C732 -280 756 -289 777 -289C787 -289 795 -289 795 -292C795 -294 793 -297 789 -300Z"/>
</svg>