<svg xmlns="http://www.w3.org/2000/svg" viewBox="0 -1000 1000 1000">
	<path fill="#000000" d="M989 -388C878 -388 769 -435 700 -491C750 -542 793 -599 834 -663C840 -673 850 -677 871 -680C879 -681 882 -683 882 -686C882 -688 880 -692 875 -697L820 -754L787 -717H600C611 -734 621 -751 632 -769C642 -786 651 -790 665 -794C673 -796 677 -798 677 -801C677 -803 674 -806 667 -809L606 -839C578 -760 537 -680 446 -534L457 -528C496 -569 529 -611 560 -655C578 -597 609 -536 643 -494C570 -425 474 -361 340 -299L344 -286C417 -304 506 -347 570 -386C570 -354 568 -320 563 -273H468C447 -273 425 -275 402 -276L427 -241C443 -247 469 -251 488 -251H560C543 -119 494 -29 328 71L334 84C510 -2 577 -69 604 -251H775C772 -123 767 -61 758 -31C753 -13 743 -3 712 -3C689 -3 655 -8 602 -19L600 -2C690 20 697 31 706 70C707 75 709 77 712 77C714 77 799 48 805 -10C815 -96 818 -146 819 -231L850 -251C855 -255 858 -257 858 -260C858 -262 855 -265 850 -268L788 -313L764 -273H607C613 -310 615 -331 617 -349C645 -364 648 -366 648 -368C648 -370 646 -372 640 -375L587 -398C617 -418 645 -440 671 -463C753 -389 890 -329 894 -329C897 -329 899 -331 901 -335C914 -357 940 -372 989 -375ZM790 -695C760 -633 722 -575 669 -520C634 -559 598 -616 571 -672C576 -679 581 -687 586 -695ZM402 -791L369 -755H144C121 -755 96 -757 71 -759L99 -722C116 -729 145 -733 166 -733H372L283 -599C252 -628 201 -657 145 -678L138 -666C202 -626 244 -579 259 -530C266 -508 274 -500 286 -500C302 -500 315 -517 315 -540C315 -555 311 -570 294 -588C397 -701 416 -717 453 -724C461 -726 465 -727 465 -730C465 -732 461 -736 454 -743ZM415 -530L389 -496H102C79 -496 54 -498 29 -500L57 -463C74 -470 103 -474 124 -474H246C202 -353 132 -238 31 -111L41 -104C124 -182 154 -217 245 -370V-40C245 -31 232 -24 201 -24C176 -24 141 -28 91 -40L88 -24C190 7 202 14 209 54C210 59 211 61 214 61C216 61 218 60 221 59C275 34 289 14 289 -20V-474H394L334 -335L346 -330C423 -448 443 -465 467 -468C475 -469 480 -470 480 -473C480 -476 477 -480 469 -486Z"/>
</svg>