<svg xmlns="http://www.w3.org/2000/svg" viewBox="0 -1000 1000 1000">
	<path fill="#000000" d="M554 -704L505 -654H356V-768C402 -774 441 -778 460 -782C471 -784 487 -785 503 -785C515 -785 534 -783 546 -783C549 -783 551 -784 551 -787C551 -788 550 -790 548 -792L500 -846C408 -815 210 -771 84 -753V-738C133 -741 229 -752 312 -763V-654H93C72 -654 48 -656 24 -658L50 -623C67 -630 94 -634 115 -634H312V-546H184L126 -591C128 -561 129 -515 129 -492V-376C129 -328 128 -289 126 -270C125 -263 125 -257 125 -252C125 -243 127 -239 132 -239C136 -239 142 -241 151 -245C168 -252 172 -255 172 -269V-293H312V-189H156C134 -189 110 -191 86 -193L112 -158C129 -165 157 -169 178 -169H312V-67L61 -27L85 17C87 20 88 22 91 22C92 22 94 21 97 19C124 1 147 -6 214 -20L555 -90L554 -105L356 -74V-169H560C569 -169 573 -171 573 -175C573 -178 570 -183 563 -189L512 -239L464 -189H356V-293H490C490 -264 490 -261 497 -261C497 -261 540 -273 540 -292C540 -295 539 -298 539 -301C536 -321 534 -357 534 -395V-508L560 -524C565 -527 568 -530 568 -532C568 -535 565 -538 560 -542L504 -581L476 -546H356V-634H603C612 -634 616 -636 616 -640C616 -643 613 -648 606 -654ZM356 -436V-526H490V-436ZM172 -436V-526H312V-436ZM356 -313V-416H490V-313ZM172 -313V-416H312V-313ZM874 -630L843 -589H723C726 -641 731 -732 734 -788L768 -810C771 -812 773 -814 773 -816C773 -818 771 -820 767 -822L682 -861C683 -777 680 -678 677 -589H612C590 -589 567 -591 543 -593L569 -556C585 -563 613 -567 634 -567H676C656 -202 609 -63 408 63L414 74C634 -29 693 -167 722 -567H858C856 -434 845 -216 838 -128C832 -61 817 -34 764 -34C736 -34 697 -42 643 -55L639 -44C723 -16 757 8 761 41C762 46 763 48 766 48C768 48 770 48 772 47C843 23 862 4 877 -75C884 -110 899 -425 899 -546L939 -568C942 -569 944 -571 944 -573C944 -575 942 -577 939 -579Z"/>
</svg>