<svg xmlns="http://www.w3.org/2000/svg" viewBox="0 -1000 1000 1000">
	<path fill="#000000" d="M380 -820L349 -773H176L114 -832C116 -798 117 -737 117 -700V-378C117 -310 117 -245 114 -192C114 -187 113 -182 113 -178C113 -166 115 -161 121 -161C126 -161 132 -164 141 -168C161 -177 161 -181 161 -210H362C362 -173 362 -169 371 -169C375 -169 381 -171 389 -175C407 -183 411 -187 411 -203V-209C408 -254 407 -301 407 -377V-734L438 -751C444 -754 447 -757 447 -760C447 -763 444 -767 439 -771ZM161 -404V-565H362V-404ZM161 -587V-751H362V-587ZM161 -232V-382H362V-232ZM860 -822C772 -782 581 -726 439 -701L443 -686C566 -698 676 -715 854 -756C862 -758 872 -759 882 -759C886 -759 905 -757 909 -757C913 -757 916 -758 916 -761C916 -763 914 -766 910 -770ZM591 -666C641 -615 652 -588 658 -534C659 -521 668 -510 677 -510C695 -510 717 -532 717 -560C717 -589 691 -630 600 -676ZM988 -34C903 -21 836 -15 782 -15C699 -15 650 -29 623 -50C603 -66 585 -79 538 -111C636 -212 730 -314 826 -421C836 -433 856 -442 877 -447C887 -449 892 -452 892 -456C892 -459 888 -464 882 -470L831 -520L794 -484H517C492 -484 455 -484 443 -485L471 -448C488 -455 517 -459 538 -459H788C707 -345 600 -213 519 -127C500 -107 461 -89 418 -74L447 -37C450 -34 452 -32 455 -32C457 -32 460 -34 463 -38C480 -60 501 -88 523 -88C534 -88 546 -84 557 -72C617 -10 643 11 694 22C742 32 813 38 894 38C908 38 910 36 914 27C921 9 942 -9 988 -21ZM289 -153C348 -82 379 -13 381 20C382 33 393 44 402 44C418 44 433 29 433 5C433 -47 342 -130 297 -162ZM199 -177C155 -98 75 19 18 85L26 97C79 51 161 -37 210 -96C220 -108 228 -113 245 -118C255 -121 260 -124 260 -127C260 -130 257 -134 251 -138Z"/>
</svg>