<svg xmlns="http://www.w3.org/2000/svg" viewBox="0 -1000 1000 1000">
	<path fill="#000000" d="M709 -470L693 -459H295L244 -482C246 -465 247 -437 247 -423V-199C247 -167 244 -117 244 -82C244 -67 245 -60 252 -60C253 -60 293 -70 293 -86V-103H706C706 -80 706 -78 713 -78C719 -78 758 -92 758 -103C755 -129 753 -164 753 -208V-417L761 -424C763 -426 764 -428 764 -429C764 -431 763 -432 761 -434ZM293 -351V-437H706V-351ZM293 -240V-329H706V-240ZM293 -125V-218H706V-125ZM932 -594L913 -500C909 -481 905 -475 883 -475C775 -475 669 -538 604 -640L938 -678C947 -679 951 -681 951 -683C951 -686 948 -690 940 -695L865 -747L831 -691L590 -663C571 -699 555 -741 545 -789L574 -812C576 -814 577 -816 577 -817C577 -820 575 -822 571 -823L476 -851C495 -775 518 -711 545 -658L344 -635C320 -633 296 -632 270 -633L301 -598C318 -605 346 -611 367 -613L558 -635C633 -505 739 -446 883 -421C904 -417 925 -416 941 -416C973 -416 973 -419 973 -429C973 -436 970 -445 962 -456C952 -470 945 -491 945 -539C945 -554 946 -570 947 -590ZM400 -80C317 -22 179 37 61 72L65 86C182 63 293 29 395 -12C407 -17 424 -19 439 -19C446 -19 449 -20 449 -24C449 -26 447 -30 442 -35ZM641 -824C694 -793 724 -756 733 -733C740 -716 744 -710 756 -710C769 -710 784 -729 784 -752C784 -790 742 -813 647 -836ZM309 -847C252 -738 157 -598 34 -467L43 -454C106 -505 158 -556 209 -616V-542C209 -532 208 -486 208 -476C208 -471 209 -468 213 -468C218 -468 253 -484 253 -499C252 -514 252 -531 252 -551V-669C273 -696 295 -725 317 -756C339 -787 345 -792 367 -800C374 -803 377 -805 377 -807C377 -809 375 -812 369 -815ZM569 -58C702 -20 808 22 853 52C880 70 892 76 899 76C904 76 918 72 918 53C918 36 907 14 888 4C842 -20 755 -45 570 -70Z"/>
</svg>