<svg xmlns="http://www.w3.org/2000/svg" viewBox="0 -1000 1000 1000">
	<path fill="#000000" d="M337 -819L309 -780H167L110 -834C112 -802 113 -771 113 -729V-276C113 -260 110 -190 110 -175C110 -162 112 -156 117 -156C121 -156 127 -159 135 -163C152 -172 154 -175 154 -188V-222H326C326 -181 326 -181 333 -181C340 -181 370 -192 370 -212C370 -230 367 -259 367 -277V-740L393 -757C400 -761 403 -764 403 -767C403 -770 400 -773 394 -776ZM154 -427V-579H326V-427ZM154 -601V-758H326V-601ZM154 -244V-405H326V-244ZM642 -829C677 -809 715 -775 728 -750C737 -733 741 -726 752 -726C770 -726 779 -739 779 -762C779 -794 753 -813 647 -841ZM908 -577L883 -466C879 -449 870 -441 851 -441C836 -441 735 -458 669 -524C705 -543 743 -565 785 -590C815 -608 833 -615 844 -616C859 -617 865 -619 865 -621C865 -623 862 -625 858 -627L800 -659C764 -629 708 -591 644 -555C625 -582 610 -615 596 -657L925 -714C937 -716 943 -718 943 -721C943 -724 938 -728 928 -735L869 -775L841 -722L589 -678C580 -712 571 -751 563 -796C590 -818 593 -820 593 -824C593 -827 589 -829 581 -832L506 -856C520 -777 534 -718 547 -671L441 -652C417 -648 393 -645 369 -643L404 -611C420 -621 447 -630 467 -634L554 -649C569 -602 588 -562 608 -534C534 -493 454 -456 384 -432L386 -417C474 -438 549 -464 632 -505C698 -435 799 -394 908 -385H918C936 -385 948 -390 948 -399C948 -403 946 -408 941 -413C927 -430 920 -444 920 -503C920 -522 921 -545 922 -574ZM620 -428C657 -397 674 -373 682 -342C687 -323 694 -311 702 -311C722 -311 736 -333 736 -352C736 -390 696 -413 626 -440ZM910 -164L887 -15C885 1 880 10 863 10C854 10 740 -9 665 -86C707 -114 748 -146 790 -182C809 -198 833 -210 844 -211C855 -212 860 -213 860 -215C860 -217 857 -220 851 -223L795 -258C763 -216 708 -168 637 -119C614 -153 594 -194 579 -248L937 -303C945 -304 949 -306 949 -308C949 -311 945 -314 937 -319L875 -358L847 -311L574 -269C565 -302 559 -340 554 -382L578 -401C582 -404 585 -407 585 -409C585 -412 581 -415 572 -418L501 -445C507 -385 518 -321 533 -263L457 -251C433 -248 409 -246 385 -245L419 -212C435 -221 462 -230 482 -233L539 -242C555 -182 576 -129 599 -93C525 -45 435 2 337 44L343 59C455 24 543 -13 625 -61C710 24 861 67 928 67C949 67 960 60 960 51C960 46 957 41 952 35C933 13 923 -11 923 -80C923 -102 924 -129 926 -162ZM260 -160C306 -128 350 -72 366 -30C373 -12 381 -1 388 -1C407 -1 422 -19 422 -40C422 -81 369 -125 266 -172ZM181 -172C126 -80 77 -12 12 60L21 71C83 22 150 -48 196 -105C209 -121 224 -133 233 -135C238 -136 241 -138 241 -140C241 -142 238 -144 231 -147Z"/>
</svg>