<svg xmlns="http://www.w3.org/2000/svg" viewBox="0 -1000 1000 1000">
	<path fill="#000000" d="M451 -565L418 -519H320V-660H487C494 -660 498 -661 498 -663C498 -665 496 -668 492 -672L436 -728L401 -682H320V-782L352 -803C356 -806 358 -808 358 -810C358 -812 356 -813 352 -815L273 -851C275 -817 276 -796 276 -757V-682H181C159 -682 134 -684 111 -686L138 -650C153 -656 182 -660 202 -660H276V-519H119C96 -519 70 -521 46 -523L74 -487C90 -493 120 -497 141 -497H223C228 -175 185 -84 48 57L59 68C238 -88 266 -171 265 -497H349V-44C349 -19 347 -8 316 -8C296 -8 266 -12 217 -20L215 -7C291 15 301 24 309 55C310 61 312 63 316 63C318 63 320 62 323 61C392 25 392 16 392 -34V-376C421 -328 432 -290 437 -253C440 -227 444 -222 451 -222C465 -222 480 -241 480 -266C480 -270 480 -274 479 -278C473 -306 446 -344 392 -403V-497H502C509 -497 513 -498 513 -500C513 -502 510 -506 506 -510ZM902 -563L868 -515H726V-661H908C913 -661 916 -662 916 -664C916 -665 914 -668 911 -671L855 -727L819 -683H726V-786L757 -806C761 -809 763 -811 763 -813C763 -814 761 -816 757 -818L679 -851C681 -817 682 -796 682 -757V-683H591C569 -683 544 -685 521 -687L548 -651C563 -657 592 -661 612 -661H682V-515H599C576 -515 550 -517 526 -519L554 -483C581 -493 619 -493 631 -493C628 -162 605 -80 422 82L428 93C651 -57 669 -150 675 -493H751V-23C751 2 750 13 718 13C698 13 666 9 613 0L611 13C694 36 706 46 714 77C715 83 717 85 721 85C723 85 725 84 728 83C794 53 795 37 795 -13V-383C840 -322 866 -263 887 -178C894 -152 897 -147 906 -147C920 -147 938 -167 938 -195C938 -241 871 -331 795 -404V-493H952C961 -493 965 -494 965 -497C965 -499 962 -503 957 -508ZM138 -421C110 -313 78 -207 36 -109L48 -102C82 -158 114 -228 165 -352C172 -369 178 -375 196 -380C202 -382 206 -383 206 -386C206 -388 203 -391 196 -394ZM538 -404C512 -296 479 -194 435 -96L448 -90C482 -146 516 -218 567 -339C574 -356 577 -363 593 -367C599 -369 602 -371 602 -373C602 -376 599 -379 593 -381Z"/>
</svg>