<svg xmlns="http://www.w3.org/2000/svg" viewBox="0 -1000 1000 1000">
	<path fill="#000000" d="M762 -776C796 -747 812 -718 819 -699C825 -683 832 -671 845 -671C853 -671 867 -686 867 -705C867 -711 865 -718 862 -725C851 -749 820 -769 767 -784ZM902 -671L867 -625H702C700 -671 699 -721 699 -776C711 -784 730 -797 730 -800C730 -803 727 -805 721 -808L652 -845C656 -756 658 -684 661 -625H555L499 -675C501 -642 502 -600 502 -543V-258C502 -231 494 -218 468 -198L512 -165C515 -163 517 -162 520 -162C523 -162 525 -164 528 -169C544 -196 570 -224 661 -303L655 -313L548 -243V-603H663C673 -436 687 -369 723 -282C662 -188 589 -117 499 -48L506 -37C605 -94 679 -158 741 -242C789 -145 865 -77 924 -77C932 -77 936 -80 936 -88C936 -96 932 -108 922 -126C915 -138 912 -157 912 -185C912 -211 915 -247 920 -295L906 -298C894 -235 888 -211 872 -152C827 -173 795 -221 768 -281C803 -335 835 -397 867 -470C871 -478 874 -481 894 -488C900 -490 903 -492 903 -494C903 -497 900 -499 895 -502L836 -532C812 -452 783 -386 750 -327C727 -397 711 -485 703 -603H949C957 -603 961 -604 961 -607C961 -610 958 -614 951 -621ZM968 -11C842 2 727 8 629 8C484 8 375 -6 317 -33V-265H457C465 -265 468 -266 468 -269C468 -272 466 -276 460 -283L418 -334L383 -287H317V-453H460C469 -453 473 -454 473 -458C473 -461 470 -466 463 -473L418 -522L384 -475H296V-644H449C457 -644 461 -645 461 -649C461 -652 458 -656 452 -663L407 -713L376 -666H296V-787C322 -804 325 -806 325 -809C325 -812 322 -814 315 -818L247 -853C249 -819 250 -788 250 -721V-666H148C125 -666 100 -668 75 -670L103 -633C120 -640 149 -644 170 -644H250V-475H118C95 -475 70 -477 45 -479L73 -442C90 -449 119 -453 140 -453H271V-64C225 -100 190 -141 160 -189C169 -230 176 -275 181 -324C209 -344 212 -346 212 -350C212 -352 209 -354 202 -357L136 -384C136 -200 101 -48 21 80L32 89C91 23 130 -59 155 -166C208 -55 307 18 420 37C522 53 727 60 871 60C885 60 887 58 890 50C898 28 913 14 970 -1Z"/>
</svg>