<svg xmlns="http://www.w3.org/2000/svg" viewBox="0 -1000 1000 1000">
	<path fill="#000000" d="M556 -779L522 -733H439V-797C448 -805 467 -820 467 -822C467 -824 464 -826 459 -828L390 -854C392 -821 393 -793 393 -768V-733H230V-801C254 -818 256 -819 256 -823C256 -825 254 -827 250 -829L184 -856C186 -823 186 -795 186 -770V-733H95C78 -733 59 -735 40 -737L65 -700C78 -707 100 -711 115 -711H186V-655C186 -642 184 -587 184 -575C184 -569 186 -566 190 -566C194 -566 198 -567 205 -570C225 -578 230 -582 230 -600H283V-510H170L120 -545C122 -522 122 -507 122 -484V-386C122 -377 120 -333 120 -328C120 -324 121 -322 125 -322C129 -322 135 -324 146 -328C165 -335 165 -338 165 -365H283V-276H117C100 -276 80 -277 62 -280L89 -244C102 -251 122 -254 138 -254H283V-163H145C128 -163 109 -165 91 -167L120 -131C132 -138 153 -141 169 -141H283V-44L56 -19L88 35C91 39 93 42 96 42C99 42 103 39 108 35C126 21 154 13 231 0L540 -54L538 -71L329 -49V-141H519C525 -141 527 -142 527 -144C527 -146 526 -148 522 -152L469 -208L431 -163H329V-254H555C559 -254 561 -255 561 -256C561 -258 559 -261 556 -265L507 -323L469 -276H329V-365H475C475 -344 475 -338 483 -338C486 -338 490 -340 496 -342C517 -350 523 -354 523 -364C523 -367 520 -407 520 -415V-480C545 -498 547 -500 547 -504C547 -507 545 -509 541 -511L485 -547L457 -510H329V-600H393C393 -570 393 -567 401 -567C404 -567 410 -568 418 -572C438 -581 441 -584 441 -592C441 -602 439 -648 439 -657V-711H602C608 -711 611 -712 611 -715C611 -717 609 -720 605 -724ZM329 -387V-488H475V-387ZM165 -387V-488H283V-387ZM230 -622V-711H393V-622ZM878 -634L847 -588L723 -582C725 -641 728 -716 729 -777L756 -798C761 -802 763 -804 763 -806C763 -809 760 -811 755 -813L678 -849C679 -744 678 -662 677 -580L582 -575C559 -574 536 -575 510 -577L540 -542C557 -549 570 -550 604 -552L677 -556C671 -162 626 -62 374 84L381 98C685 -53 708 -162 722 -558L863 -566C863 -433 857 -150 849 -103C840 -52 827 -28 769 -28C744 -28 711 -33 665 -42L663 -27C755 -1 765 14 773 43C774 49 777 51 781 51C783 51 785 50 788 49C871 5 887 -29 893 -88C899 -149 904 -320 910 -541L945 -565C950 -568 952 -570 952 -573C952 -575 950 -578 945 -582Z"/>
</svg>