<svg xmlns="http://www.w3.org/2000/svg" viewBox="0 -1000 1000 1000">
	<path fill="#000000" d="M398 -357L362 -308H300V-518H348C348 -501 348 -496 355 -496C359 -496 365 -498 375 -503C390 -510 395 -514 395 -528C395 -531 393 -600 393 -613V-733L419 -753C424 -757 426 -760 426 -764C426 -767 424 -771 419 -774L362 -818L337 -776H189L135 -822C137 -791 138 -743 138 -719V-586C138 -548 138 -520 136 -489V-480C136 -471 137 -467 143 -467C147 -467 152 -469 161 -473C181 -482 181 -486 181 -518H256V-67L155 -36V-339C182 -356 185 -358 185 -363C185 -366 182 -369 176 -372L107 -409C109 -372 111 -320 111 -279V-22L30 3L62 50C65 55 68 57 71 57C73 57 75 56 77 53C87 40 111 24 152 8L437 -108L435 -122L300 -81V-288H442C447 -288 451 -290 451 -295C451 -298 449 -301 445 -306ZM181 -540V-754H348V-540ZM907 -171C901 -3 896 2 853 11C832 15 720 20 666 20C553 20 553 4 553 -38V-289H688C688 -265 688 -262 694 -262C698 -262 704 -264 713 -269C731 -278 736 -282 736 -293C736 -306 734 -363 734 -375V-470L758 -488C762 -491 764 -494 764 -496C764 -500 761 -503 757 -506L702 -548L680 -509H561L505 -555C507 -524 508 -490 508 -446V-40C508 59 527 59 679 59C916 59 929 56 964 -17C965 -20 966 -22 966 -24C966 -27 964 -29 961 -31C931 -50 922 -70 922 -171ZM553 -311V-487H688V-311ZM859 -733L833 -692H577C589 -714 600 -736 612 -760C620 -775 624 -781 648 -792C653 -794 656 -797 656 -799C656 -801 653 -803 648 -806L584 -843C542 -719 477 -568 390 -415L401 -406C468 -498 517 -579 567 -672H848C848 -491 845 -378 839 -265C836 -219 828 -200 781 -200C759 -200 727 -204 683 -212L679 -197C757 -180 772 -169 785 -134C787 -129 789 -126 793 -126C795 -126 797 -127 799 -128C875 -170 880 -180 884 -266C889 -368 892 -466 892 -653L922 -673C926 -675 928 -678 928 -681C928 -684 925 -687 921 -690Z"/>
</svg>