<svg xmlns="http://www.w3.org/2000/svg" viewBox="0 -1000 1000 1000">
	<path fill="#000000" d="M460 -661L424 -620H315V-714H488C497 -714 501 -715 501 -719C501 -721 498 -726 492 -731L449 -775L414 -734H315V-792C340 -807 343 -808 343 -812C343 -816 339 -819 332 -822L270 -851C273 -800 273 -783 273 -734H157C135 -734 110 -736 87 -738L113 -704C129 -710 158 -714 179 -714H273V-620H116C94 -620 69 -622 46 -624L72 -590C88 -596 117 -600 138 -600H504C512 -600 516 -601 516 -604C516 -606 513 -610 507 -615ZM361 -562C417 -534 451 -502 467 -478C479 -460 486 -453 494 -453C504 -453 514 -466 514 -482C514 -493 510 -506 499 -517C484 -533 440 -555 366 -573ZM197 -582C152 -524 108 -480 48 -426L56 -416C124 -463 182 -505 210 -527C224 -537 230 -540 242 -541C247 -542 250 -542 250 -544C250 -545 247 -548 242 -551ZM417 -476L380 -436H315V-503C325 -507 340 -513 340 -515C340 -517 338 -519 334 -521L270 -554C273 -503 273 -486 273 -436H180C158 -436 133 -438 110 -440L136 -406C152 -412 181 -416 202 -416H273V-322L69 -294L100 -245C102 -241 103 -240 105 -240C106 -240 107 -241 108 -242C123 -254 155 -265 224 -281L446 -332L445 -345L315 -329V-416H454C463 -416 467 -417 467 -421C467 -423 464 -427 458 -433ZM932 -445C926 -409 909 -338 897 -304C850 -320 790 -360 790 -547C790 -571 791 -598 793 -627L824 -640C829 -642 832 -645 832 -647C832 -650 829 -653 823 -658L767 -705L736 -667L651 -663C654 -700 657 -742 659 -784L685 -799C690 -802 692 -805 692 -807C692 -809 690 -811 686 -813L614 -848C612 -765 611 -707 608 -662L573 -659C551 -658 525 -659 501 -661L530 -629C546 -636 561 -637 607 -640C604 -585 599 -553 591 -520C566 -536 541 -550 519 -561L512 -551C540 -527 564 -506 583 -487C551 -379 488 -314 361 -246L366 -234C390 -242 412 -252 433 -262C428 -239 424 -216 418 -196H189C167 -196 143 -198 119 -200L145 -163C162 -170 190 -174 211 -174H411C365 -33 277 18 65 73L70 85C271 56 406 1 461 -174H722C701 -10 682 2 620 2C596 2 564 -2 521 -9L517 5C616 31 631 38 638 73C639 78 641 80 644 80C646 80 647 80 649 79C720 47 726 26 742 -34C752 -71 763 -121 769 -155L801 -175C807 -178 810 -181 810 -184C810 -188 807 -191 801 -195L742 -237L708 -196H468C471 -206 473 -218 475 -228C485 -233 500 -242 500 -244C500 -246 498 -248 494 -250L453 -272C529 -316 583 -380 612 -454C639 -423 653 -397 660 -370C666 -349 677 -337 687 -337C702 -337 713 -351 713 -372C713 -411 683 -449 625 -494C636 -534 643 -585 649 -642L745 -647C740 -368 781 -304 896 -246C919 -234 939 -228 952 -228C958 -228 962 -230 965 -232C967 -234 968 -236 968 -239C968 -243 965 -250 958 -261C948 -277 939 -302 939 -353C939 -377 941 -406 946 -442Z"/>
</svg>