<svg xmlns="http://www.w3.org/2000/svg" viewBox="0 -1000 1000 1000">
	<path fill="#000000" d="M531 -356C533 -325 534 -288 534 -256V-158C534 -118 533 -94 531 -74C530 -68 530 -63 530 -59C530 -49 532 -45 538 -45C543 -45 549 -47 557 -50C577 -58 578 -61 578 -78V-110H719C719 -72 719 -72 726 -72C730 -72 736 -74 746 -78C763 -85 768 -89 768 -102C768 -116 763 -174 763 -186V-275L786 -290C790 -293 793 -295 793 -298C793 -301 790 -304 785 -308L732 -349L707 -311H590ZM578 -132V-289H719V-132ZM494 -585C495 -631 496 -684 497 -745H824V-585ZM824 -563C824 -538 824 -536 830 -536C834 -536 841 -538 851 -542C868 -549 873 -553 873 -563C873 -565 872 -568 872 -572C870 -592 869 -614 869 -641V-732C899 -747 903 -749 903 -752C903 -755 900 -758 894 -763L839 -806L813 -767H506L446 -820C447 -782 448 -730 448 -673C448 -326 448 -131 273 69L283 79C469 -86 480 -271 488 -420H871C872 -365 873 -315 873 -270C873 -183 870 -113 863 -62C858 -28 851 -13 811 -13C786 -13 748 -19 689 -30L686 -15C776 8 797 22 806 59C807 67 810 72 815 72C818 72 821 70 826 68C888 37 900 19 907 -50C913 -114 917 -235 917 -398C951 -417 954 -419 954 -424C954 -428 951 -431 946 -435L887 -478L859 -443H490C492 -476 493 -516 494 -563ZM109 -812C111 -781 112 -765 112 -735V-602C112 -586 110 -516 110 -501C110 -490 112 -486 117 -486C122 -486 128 -488 137 -493C151 -501 153 -505 153 -517V-543H222V-128L134 -105V-370C160 -387 163 -389 163 -393C163 -396 161 -399 155 -402L88 -437C90 -400 92 -332 92 -291V-94L33 -79L59 -25C60 -23 62 -21 63 -21C65 -21 68 -23 71 -27C78 -36 98 -51 135 -64L382 -153L378 -168L265 -139V-331H388C396 -331 399 -333 399 -337C399 -340 397 -343 394 -347L351 -396L321 -352H265V-543H323C323 -513 323 -510 329 -510C333 -510 338 -512 347 -517C363 -525 366 -529 366 -543C366 -557 365 -617 365 -629V-744C387 -758 390 -760 390 -764C390 -767 388 -770 384 -773L337 -807L315 -775H157ZM153 -563V-755H323V-563Z"/>
</svg>