<svg xmlns="http://www.w3.org/2000/svg" viewBox="0 -1000 1000 1000">
	<path fill="#000000" d="M558 -277L533 -243H414V-318H520C520 -288 520 -285 526 -285C530 -285 536 -286 544 -290C562 -298 566 -301 566 -313C566 -323 562 -392 562 -407V-503C585 -519 587 -521 587 -525C587 -527 585 -530 580 -533L528 -570L503 -537H278L222 -581C224 -553 225 -507 225 -484V-364C225 -354 223 -311 223 -302C223 -294 224 -290 230 -290C234 -290 240 -292 249 -296C264 -302 267 -306 267 -318H372V-243H250L191 -296C193 -267 194 -222 194 -199V0C194 10 192 53 192 61C192 69 194 73 199 73C203 73 208 71 215 68C234 59 236 56 236 43V-222H372V-133L257 -121L289 -76C291 -73 293 -71 295 -71C297 -71 299 -72 302 -74C321 -87 335 -92 379 -104L474 -130C476 -120 476 -109 477 -94C478 -63 480 -61 495 -61C508 -61 525 -84 525 -103C525 -110 518 -146 457 -200L448 -191C461 -170 468 -158 471 -144L414 -138V-222H551V-28C551 -8 549 2 523 2C505 2 474 -3 423 -12L420 2C498 26 510 37 517 65C519 72 521 75 524 75C526 75 528 74 531 73C587 45 593 33 593 6V-211C623 -230 623 -230 623 -233C623 -236 621 -238 617 -240ZM414 -440V-516H520V-440ZM267 -440V-516H372V-440ZM414 -339V-419H520V-339ZM267 -339V-419H372V-339ZM603 -687L564 -645H489V-695C511 -708 514 -710 514 -713C514 -715 511 -717 506 -719L444 -745C447 -696 447 -681 447 -645H348V-692C374 -707 377 -709 377 -712C377 -714 374 -716 369 -718L303 -748C306 -699 306 -692 306 -645H222C202 -645 181 -646 160 -648C161 -682 163 -719 164 -752H639C650 -752 656 -754 656 -759C656 -762 653 -766 647 -772L597 -821L561 -773H175L113 -827C114 -794 114 -753 114 -707C114 -614 113 -503 110 -408C101 -107 86 -57 26 47L35 54C127 -49 148 -107 157 -537C158 -565 159 -599 159 -635L177 -613C194 -620 223 -624 244 -624H306C306 -615 304 -576 304 -568C304 -558 306 -554 313 -554C324 -554 350 -565 350 -579C350 -586 348 -618 348 -624H447C447 -614 445 -571 445 -563C445 -553 447 -549 454 -549C465 -549 491 -560 491 -574C491 -582 489 -617 489 -624H643C652 -624 656 -625 656 -629C656 -631 653 -636 647 -642ZM877 -605L848 -561L762 -558C764 -618 768 -711 768 -770C799 -790 803 -792 803 -797C803 -800 799 -803 792 -806L722 -838C721 -793 720 -596 719 -556L657 -553C634 -553 610 -553 584 -555L612 -520C629 -527 658 -530 679 -531L719 -533C713 -115 687 -41 576 92L586 100C729 -39 749 -96 762 -535L866 -540C866 -323 861 -141 855 -80C849 -22 842 1 801 1C781 1 753 -4 714 -13L711 1C777 20 791 31 801 60C804 69 807 74 813 74C815 74 818 73 822 71C879 41 891 21 897 -69C902 -138 907 -337 907 -523L934 -541C942 -546 945 -550 945 -553C945 -557 942 -560 934 -565Z"/>
</svg>