<svg xmlns="http://www.w3.org/2000/svg" viewBox="0 -1000 1000 1000">
	<path fill="#000000" d="M900 -590L867 -539H809V-603C831 -617 833 -618 833 -622C833 -625 831 -628 826 -630L762 -659C765 -623 765 -596 765 -539H629V-600C653 -617 656 -619 656 -623C656 -626 654 -628 649 -630L582 -659C585 -617 585 -588 585 -539C541 -539 539 -539 489 -543L516 -507C532 -514 564 -518 585 -518V-430C585 -417 584 -358 584 -346C584 -338 585 -335 590 -335C594 -335 599 -336 606 -339C626 -347 629 -350 629 -360V-380H765C765 -343 765 -342 773 -342C777 -342 783 -344 791 -347C807 -353 810 -356 810 -368C810 -383 809 -449 809 -463V-518H960C967 -518 971 -519 971 -522C971 -524 968 -527 964 -531ZM629 -401V-518H765V-401ZM355 -381L325 -335H269V-517H320C320 -490 320 -487 327 -487C331 -487 337 -489 346 -493C363 -500 368 -504 368 -515C368 -518 367 -520 367 -524C365 -545 364 -565 364 -608V-714L393 -732C397 -734 399 -737 399 -739C399 -742 397 -745 393 -748L332 -792L306 -751H166L111 -800C113 -769 114 -738 114 -697V-589C114 -573 111 -504 111 -489C111 -476 113 -471 119 -471C123 -471 129 -473 137 -476C154 -483 157 -485 157 -496V-517H226V-108L147 -80V-336C175 -353 178 -355 178 -359C178 -362 175 -365 168 -369L100 -403C102 -366 104 -314 104 -259V-66L24 -37L59 14C61 17 63 18 65 18C67 18 70 17 72 14C80 4 102 -15 139 -33L383 -150L378 -163L269 -124V-314H403C409 -314 412 -316 412 -319C412 -321 410 -325 406 -329ZM157 -538V-730H320V-538ZM976 0C867 -7 778 -46 724 -85C760 -121 799 -174 831 -232C845 -257 849 -261 866 -268C871 -270 874 -273 874 -276C874 -278 872 -281 868 -283L807 -319L780 -284H581C558 -284 533 -286 508 -288L534 -254C546 -259 557 -262 570 -263C587 -204 619 -139 670 -86C617 -36 524 25 388 76L392 88C542 47 626 0 697 -60C751 -12 800 22 878 55C880 56 881 56 882 56C886 56 888 54 890 50C904 28 923 16 976 13ZM783 -263C765 -204 739 -161 694 -110C642 -158 614 -207 588 -263ZM621 -845C667 -798 685 -766 688 -741C691 -719 696 -709 706 -709C721 -709 742 -727 742 -757C742 -762 741 -767 740 -773C735 -794 689 -833 628 -853ZM891 -757L852 -701H502L438 -753C439 -719 441 -670 441 -632V-450C441 -168 415 -83 262 78L269 88C374 8 430 -68 455 -169C473 -243 487 -387 487 -518V-680H955C962 -680 965 -681 965 -684C965 -687 963 -690 958 -695Z"/>
</svg>