<svg xmlns="http://www.w3.org/2000/svg" viewBox="0 -1000 1000 1000">
	<path fill="#000000" d="M897 -187L845 -127H518V-255H740V-224C740 -214 741 -209 747 -209C751 -209 758 -211 767 -216C787 -226 791 -229 791 -239V-243C788 -275 786 -304 786 -358V-543L822 -563C826 -565 828 -567 828 -569C828 -571 826 -574 822 -577L760 -628L725 -584H518V-695H912C919 -695 922 -696 922 -698C922 -700 920 -702 917 -705L846 -776L797 -717H518V-794L550 -815C554 -818 556 -820 556 -822C556 -825 553 -827 548 -830L467 -872C470 -834 471 -785 471 -717H119C96 -717 71 -719 46 -721L74 -684C91 -691 120 -695 141 -695H471V-584H259L197 -639C199 -619 200 -585 200 -553V-360C200 -315 198 -249 195 -219V-212C195 -205 196 -201 202 -201C206 -201 212 -203 221 -207C244 -216 245 -219 245 -228V-255H471V-127H87C64 -127 39 -129 14 -131L42 -94C59 -101 88 -105 109 -105H471C471 -61 470 -15 468 41V52C468 67 470 73 477 73C481 73 488 71 497 67C518 58 522 54 522 40V33C519 -10 518 -64 518 -105H960C965 -105 968 -106 968 -108C968 -110 966 -113 963 -116ZM518 -433V-562H740V-433ZM245 -433V-562H471V-433ZM518 -277V-411H740V-277ZM245 -277V-411H471V-277Z"/>
</svg>