<svg xmlns="http://www.w3.org/2000/svg" viewBox="0 -1000 1000 1000">
	<path fill="#000000" d="M490 -757L446 -706H315V-792C346 -810 349 -812 349 -815C349 -818 345 -821 338 -824L267 -857C269 -823 271 -772 271 -706H105C82 -706 57 -708 32 -710L60 -673C77 -680 106 -684 127 -684H271V-581H163L110 -630C112 -603 113 -556 113 -514V-352C113 -313 111 -279 108 -250V-245C108 -238 110 -235 116 -235C121 -235 128 -237 139 -242C155 -249 157 -254 157 -264V-289H271V-174H99C76 -174 51 -176 26 -178L54 -141C71 -148 100 -152 121 -152H271C271 -52 270 28 268 64C268 70 267 74 267 78C267 91 269 96 275 96C279 96 285 94 293 90C315 79 319 74 319 61V56C317 28 315 -46 315 -152H536C544 -152 549 -153 549 -157C549 -159 546 -163 541 -169L486 -229L441 -174H315V-289H431C431 -256 431 -252 438 -252C446 -252 479 -261 479 -279V-285C477 -303 475 -340 475 -384V-544L503 -559C509 -562 511 -564 511 -567C511 -569 509 -572 503 -576L446 -619L416 -581H315V-684H537C545 -684 549 -686 549 -689C549 -692 546 -696 542 -701ZM315 -448V-559H431V-448ZM157 -448V-559H271V-448ZM315 -311V-426H431V-311ZM157 -311V-426H271V-311ZM880 -662L847 -620H632C653 -675 672 -728 686 -772C690 -783 700 -790 722 -796C728 -797 731 -800 731 -803C731 -806 728 -810 722 -813L647 -854C614 -701 560 -515 498 -372L514 -366C550 -422 589 -510 623 -598H854L794 -464L810 -457C878 -559 892 -576 942 -588C948 -590 951 -592 951 -595C951 -597 949 -600 945 -603ZM673 -545C652 -141 620 -81 369 74L375 88C655 -34 696 -150 711 -471C712 -478 713 -484 717 -489C724 -230 758 -81 875 46C878 49 880 50 883 50C886 50 888 49 891 47C905 36 922 30 950 30C959 30 969 31 981 32L983 19C843 -38 754 -159 731 -500C733 -501 750 -510 750 -512C750 -515 747 -517 742 -519Z"/>
</svg>