<svg xmlns="http://www.w3.org/2000/svg" viewBox="0 -1000 1000 1000">
	<path fill="#000000" d="M960 -517C951 -516 942 -516 933 -516C860 -516 770 -538 707 -610H926C936 -610 941 -611 941 -614C941 -616 938 -619 933 -625L886 -675L841 -630H659C669 -655 673 -684 678 -716H877C887 -716 892 -717 892 -720C892 -722 889 -725 884 -731L839 -779L801 -736H681C684 -756 686 -781 687 -798C714 -812 717 -814 717 -817C717 -820 713 -823 705 -827L641 -858C641 -818 640 -771 637 -736H558C537 -736 514 -738 492 -740L517 -706C532 -712 559 -716 578 -716H634C631 -685 625 -655 614 -630H566C545 -630 522 -632 500 -634L525 -600C550 -610 582 -610 603 -610C573 -559 520 -516 421 -472L428 -462C444 -467 459 -472 474 -477C475 -455 475 -440 475 -424H186C165 -424 142 -426 120 -428L145 -394C160 -400 187 -404 206 -404H475V-332H278L219 -385C221 -356 222 -310 222 -287V-190C222 -162 220 -123 218 -107C218 -104 217 -102 217 -100C217 -94 219 -92 224 -92C228 -92 234 -94 243 -97C266 -106 266 -109 266 -139H475V-60H121C100 -60 77 -62 55 -64L80 -30C95 -36 122 -40 141 -40H475C475 -22 472 57 472 74C472 88 474 94 481 94C489 94 524 83 524 61C524 58 523 55 523 52C521 32 520 0 520 -40H938C948 -40 953 -41 953 -44C953 -46 950 -50 945 -56L891 -118L837 -60H520V-139H727C727 -107 727 -103 734 -103C739 -103 776 -115 776 -130V-134C773 -159 771 -189 771 -242V-294L799 -308C804 -310 807 -313 807 -315C807 -318 804 -321 798 -326L743 -366L713 -332H520V-404H852C863 -404 868 -405 868 -408C868 -410 865 -414 859 -420L813 -467L775 -424H520V-441C538 -454 540 -456 540 -458C540 -461 537 -463 531 -465L485 -481C578 -516 624 -557 650 -610H683C731 -540 779 -498 859 -463C864 -461 868 -460 871 -460C875 -460 878 -462 882 -467C898 -488 919 -498 960 -500ZM520 -244V-312H727V-244ZM266 -244V-312H475V-244ZM520 -159V-224H727V-159ZM266 -159V-224H475V-159ZM433 -670L398 -626H284C289 -644 294 -679 297 -714H466C476 -714 481 -715 481 -718C481 -720 478 -723 473 -729L428 -778L389 -734H299C301 -754 302 -774 302 -790C332 -805 336 -807 336 -810C336 -813 333 -816 326 -819L258 -855C259 -812 257 -770 254 -734H137C116 -734 93 -736 71 -738L96 -702C111 -708 138 -714 157 -714H253C250 -676 245 -644 241 -626H108C87 -626 64 -628 42 -630L67 -596C82 -602 109 -606 128 -606H233C203 -537 158 -488 37 -419L42 -406C175 -461 233 -504 271 -590C320 -561 349 -528 367 -499C371 -492 381 -484 389 -484C398 -484 414 -495 414 -515C414 -521 413 -529 408 -537C395 -560 354 -582 277 -606H478C489 -606 495 -607 495 -610C495 -612 492 -616 486 -621Z"/>
</svg>