<svg xmlns="http://www.w3.org/2000/svg" viewBox="0 -1000 1000 1000">
	<path fill="#000000" d="M407 -743L364 -693H279V-797C306 -812 309 -813 309 -818C309 -821 306 -824 299 -827L229 -862C231 -832 233 -780 233 -747V-693H108C85 -693 61 -693 36 -695L63 -660C80 -667 109 -671 130 -671H233V-568H152L94 -620C96 -591 97 -545 97 -522V-385C97 -338 96 -309 94 -272C94 -267 93 -262 93 -259C93 -248 95 -244 101 -244C105 -244 110 -246 118 -249C139 -256 139 -259 139 -285H233V-169H103C80 -169 55 -171 30 -173L58 -136C75 -143 104 -147 125 -147H233V-105C233 -60 231 13 228 60V71C228 83 230 89 236 89C239 89 281 73 281 56V53C279 17 279 -43 279 -104V-147H438C445 -147 448 -148 448 -151C448 -154 446 -157 441 -162L392 -214L350 -169H279V-285H375V-256C375 -251 376 -248 379 -248C383 -248 389 -251 401 -257C419 -267 422 -272 422 -283V-290C419 -332 418 -362 418 -398V-533C449 -547 452 -549 452 -554C452 -557 450 -560 445 -564L391 -608L363 -568H279V-671H448C457 -671 461 -673 461 -677C461 -680 459 -684 454 -689ZM279 -444V-547H375V-444ZM139 -444V-547H233V-444ZM279 -306V-423H375V-306ZM139 -306V-423H233V-306ZM863 -405L833 -364H528L473 -415C475 -384 476 -348 476 -314V-71C476 -50 471 51 471 64C471 75 473 79 479 79C483 79 487 78 494 75C518 65 519 61 519 43V-13H850V68C850 78 851 82 856 82C859 82 866 79 877 74C894 66 897 63 897 49C897 38 893 -51 893 -70V-325L922 -341C927 -344 930 -347 930 -350C930 -353 927 -356 921 -361ZM701 -208V-342H850V-208ZM519 -208V-342H658V-208ZM701 -35V-186H850V-35ZM519 -35V-186H658V-35ZM811 -674L783 -636H589L533 -690C535 -662 536 -619 536 -598V-519C536 -508 534 -460 534 -450C534 -438 535 -435 542 -435C545 -435 549 -436 555 -437C578 -443 578 -445 578 -470H796C796 -435 796 -431 803 -431C807 -431 813 -433 822 -436C838 -441 842 -444 842 -455C842 -462 839 -508 839 -518V-598L866 -614C870 -616 873 -619 873 -622C873 -625 870 -629 865 -633ZM578 -491V-615H796V-491ZM885 -805L844 -753H519C496 -753 472 -753 447 -755L474 -720C491 -727 520 -731 541 -731H937C945 -731 949 -733 949 -736C949 -739 946 -744 941 -749Z"/>
</svg>