<svg xmlns="http://www.w3.org/2000/svg" viewBox="0 -1000 1000 1000">
	<path fill="#000000" d="M917 -237L870 -183H823L862 -675L894 -692C900 -695 903 -697 903 -700C903 -703 900 -705 895 -709L834 -753L806 -714H756C733 -714 708 -716 683 -718L711 -681C728 -688 757 -692 778 -692H821L808 -525H755C732 -525 707 -527 682 -529L710 -492C737 -503 769 -503 806 -503L794 -352H756C733 -352 708 -354 683 -356L711 -319C738 -330 773 -330 793 -330L781 -183H526V-279H685C696 -279 701 -281 701 -285C701 -288 698 -292 693 -297L650 -340L609 -301H526V-385H622C622 -360 622 -357 629 -357C634 -357 667 -366 667 -382V-386C665 -412 664 -452 664 -480V-582L690 -593C695 -595 698 -597 698 -600C698 -602 695 -606 689 -610L635 -651L608 -615H526V-690H659C668 -690 672 -691 672 -695C672 -698 669 -702 664 -708L620 -753L590 -712H526V-787L553 -801C560 -805 563 -807 563 -810C563 -813 560 -815 554 -818L481 -856C483 -820 485 -753 485 -712H406C383 -712 358 -714 333 -716L361 -679C378 -686 407 -690 428 -690H485V-615H399L346 -664C348 -633 348 -595 348 -571V-477C348 -425 347 -401 345 -377V-371C345 -362 346 -358 352 -358C355 -358 360 -359 367 -362C388 -371 390 -374 390 -385H485V-301H396C373 -301 348 -303 323 -305L351 -268C368 -275 397 -279 418 -279H485V-183H214L207 -328H326C334 -328 338 -330 338 -333C338 -336 336 -339 332 -344L290 -392L258 -350H206L198 -507H320C329 -507 333 -508 333 -512C333 -514 330 -518 326 -523L283 -574L248 -529H197L188 -696C310 -739 334 -744 368 -744C374 -744 377 -745 377 -747C377 -749 375 -752 371 -756L322 -799C298 -781 243 -746 199 -723L139 -776C143 -744 146 -705 148 -661L173 -183H108C85 -183 60 -185 35 -187L63 -150C80 -157 109 -161 130 -161H961C970 -161 975 -163 975 -167C975 -170 973 -174 968 -179ZM526 -509V-594H622V-509ZM390 -509V-594H485V-509ZM526 -406V-488H622V-406ZM390 -406V-488H485V-406ZM367 -142C266 -59 149 17 48 69L55 85C142 54 255 -5 375 -72C381 -75 386 -77 396 -77C399 -77 414 -76 417 -76C424 -76 428 -77 428 -80C428 -83 425 -87 419 -93ZM585 -110C682 -73 785 -10 822 24C854 53 863 61 874 61C887 61 899 49 899 30C899 17 893 0 876 -18C848 -48 732 -93 588 -123Z"/>
</svg>