<svg xmlns="http://www.w3.org/2000/svg" viewBox="0 -1000 1000 1000">
	<path fill="#000000" d="M682 -849C736 -804 749 -770 754 -748C758 -731 764 -718 778 -718C792 -718 809 -737 809 -761C809 -766 808 -771 807 -776C801 -796 778 -824 690 -859ZM157 -845C209 -800 219 -766 226 -734C229 -722 238 -707 248 -707C262 -707 280 -727 280 -753C280 -757 280 -761 279 -765C274 -787 251 -818 165 -855ZM900 -751L862 -702H653C631 -702 607 -704 583 -706L610 -670C626 -676 653 -680 673 -680H948C959 -680 964 -682 964 -686C964 -689 961 -694 954 -700ZM367 -744L330 -698H105C83 -698 59 -700 35 -702L62 -666C78 -672 105 -676 125 -676H408C419 -676 424 -677 424 -681C424 -684 421 -689 414 -696ZM102 -636C144 -587 155 -538 155 -506C155 -477 163 -469 175 -469C194 -469 211 -486 211 -518V-526C209 -550 183 -591 113 -645ZM662 -629C699 -578 707 -537 707 -503C707 -475 715 -470 725 -470C739 -470 760 -486 760 -515V-519C758 -543 736 -580 671 -636ZM575 -615L549 -580H482C484 -650 487 -723 489 -779L516 -799C522 -803 525 -806 525 -809C525 -813 521 -816 515 -819L441 -856C442 -754 442 -664 439 -580C408 -580 402 -580 352 -584L380 -545C395 -551 419 -555 439 -556C427 -187 400 -92 204 63L214 77C424 -57 471 -155 482 -556H563C562 -411 555 -215 548 -113C544 -63 534 -43 489 -43C469 -43 444 -46 411 -53L407 -38C476 -19 500 3 504 33C505 39 506 42 509 42C512 42 515 40 519 37C564 6 581 -22 588 -97C596 -184 601 -408 602 -542L633 -557C640 -560 643 -563 643 -565C643 -568 640 -571 634 -575ZM910 -482L872 -435H804C830 -482 859 -540 876 -576C884 -592 890 -596 904 -601C911 -604 915 -607 915 -611C915 -614 912 -618 905 -622L848 -655C834 -594 808 -499 784 -435H680C658 -435 635 -436 610 -439L637 -403C653 -409 680 -413 700 -413H749V-254H693C671 -254 648 -255 623 -258L650 -222C666 -228 693 -232 713 -232H749V-121C749 -69 748 -12 746 47V57C746 73 748 79 755 79C759 79 765 77 774 73C794 65 798 60 798 45V39C795 -6 794 -57 794 -119V-232H938C949 -232 954 -233 954 -237C954 -240 951 -245 944 -252L899 -300L863 -254H794V-413H958C969 -413 974 -415 974 -419C974 -422 971 -427 964 -433ZM367 -484L328 -438H253C280 -490 309 -549 325 -584C330 -596 335 -601 348 -606C355 -609 359 -612 359 -614C359 -617 355 -621 347 -625L295 -655C279 -581 253 -491 233 -438H97C75 -438 51 -440 27 -442L54 -406C70 -412 97 -416 117 -416H197C198 -380 199 -348 199 -318C199 -299 199 -282 198 -265H105C83 -265 59 -267 35 -269L62 -233C78 -239 105 -243 125 -243H197C189 -95 151 -22 41 73L48 88C192 -9 229 -81 239 -243H375C384 -243 389 -244 389 -248C389 -251 386 -256 379 -263L337 -308L302 -265H240C243 -309 244 -359 244 -416H404C415 -416 420 -417 420 -421C420 -424 416 -429 410 -436Z"/>
</svg>