<svg xmlns="http://www.w3.org/2000/svg" viewBox="0 -1000 1000 1000">
	<path fill="#000000" d="M882 -240L833 -188H635V-301H795C795 -269 795 -265 802 -265C806 -265 812 -267 822 -271C839 -278 843 -282 843 -293C843 -304 839 -374 839 -389V-539L870 -555C876 -558 878 -560 878 -563C878 -565 876 -568 871 -572L811 -621L781 -579H635V-683H909C918 -683 922 -685 922 -690C922 -694 919 -699 913 -705L862 -756L818 -705H635V-781L663 -795C669 -798 673 -800 673 -803C673 -806 669 -808 662 -812L586 -851C590 -777 590 -735 590 -705H360C337 -705 312 -707 287 -709L315 -672C332 -679 361 -683 382 -683H590V-579H445L384 -632C386 -603 387 -555 387 -532V-324C387 -314 385 -269 385 -260C385 -252 386 -249 391 -249C395 -249 401 -251 410 -255C429 -263 431 -267 431 -280V-301H590V-188H341C318 -188 293 -190 268 -192L296 -155C313 -162 342 -166 363 -166H590C590 -157 587 -61 587 -41C587 -24 589 -18 597 -18C601 -18 606 -20 614 -23C635 -32 639 -36 639 -50V-57C636 -99 635 -128 635 -166H925C935 -166 940 -168 940 -173C940 -177 937 -182 931 -188ZM635 -457V-557H795V-457ZM431 -457V-557H590V-457ZM635 -323V-435H795V-323ZM431 -323V-435H590V-323ZM99 -778C157 -731 189 -678 196 -626C198 -609 208 -600 218 -600C234 -600 259 -627 259 -654C253 -710 192 -750 106 -788ZM963 -14C820 4 671 11 558 11C471 11 405 7 381 1C300 -17 234 -97 234 -122V-388L268 -408C274 -412 276 -414 276 -417C276 -419 274 -421 269 -424L203 -465L179 -426H93C78 -426 62 -426 38 -428L63 -397C72 -402 89 -404 107 -404H190V-107C159 -86 75 -11 33 30L86 67C89 69 91 70 93 70C96 70 97 68 99 65C107 51 188 -92 212 -92C220 -92 228 -82 241 -62C281 -1 356 47 428 51C522 56 676 58 861 58C869 58 871 56 873 51C885 24 901 14 963 1Z"/>
</svg>