<svg xmlns="http://www.w3.org/2000/svg" viewBox="0 -1000 1000 1000">
	<path fill="#000000" d="M566 -801L540 -764H423L361 -809C363 -772 365 -719 365 -677V-306C365 -249 364 -159 362 -100V-90C362 -74 364 -68 371 -68C375 -68 381 -70 390 -74C407 -81 410 -85 410 -97V-248H587C593 -248 595 -250 595 -252C595 -254 594 -257 590 -261L535 -316L501 -269H410V-413H585C590 -413 593 -415 593 -418C593 -420 592 -422 589 -425L536 -478L505 -434H410V-573H551C551 -546 551 -543 557 -543C561 -543 568 -545 578 -549C594 -555 599 -559 599 -570C599 -573 598 -576 598 -579C596 -598 595 -617 595 -650V-734L620 -750C623 -752 624 -754 624 -756C624 -758 623 -760 619 -763ZM410 -594V-743H551V-594ZM121 -782C178 -713 197 -673 203 -637C209 -602 215 -590 228 -590C245 -590 264 -609 264 -642C264 -710 157 -775 128 -791ZM833 -806L805 -767H714C691 -767 666 -768 641 -771L669 -735C686 -742 715 -746 736 -746H817V-590H708C685 -590 660 -591 635 -594L663 -558C680 -565 709 -569 730 -569H817C817 -539 817 -535 824 -535C832 -535 865 -545 865 -562C865 -564 864 -566 864 -569C861 -596 861 -624 861 -647V-731L888 -747C892 -750 894 -752 894 -754C894 -757 892 -759 889 -762ZM836 -480L808 -445H684C661 -445 637 -446 611 -449L639 -413C656 -420 685 -424 706 -424H812C796 -368 781 -329 758 -290C717 -317 671 -344 623 -366L615 -352C657 -327 701 -294 740 -261C691 -191 611 -130 513 -73L521 -59C636 -111 722 -172 769 -235C809 -199 839 -164 848 -142C864 -104 876 -90 889 -90C900 -90 914 -104 914 -128C914 -171 867 -213 791 -268C814 -305 831 -340 853 -389C859 -403 871 -416 888 -424C894 -427 897 -429 897 -432C897 -435 895 -438 890 -441ZM970 -14C840 -1 684 10 545 10C499 10 454 8 413 6C310 0 237 -96 237 -129V-426L270 -445C274 -447 275 -449 275 -451C275 -454 274 -456 270 -459L211 -506L181 -468H104C81 -468 56 -469 31 -472L57 -436C74 -443 97 -447 124 -447H192V-124L34 18L88 49C91 51 93 52 95 52C99 52 101 49 105 40C133 -19 186 -107 209 -107C217 -107 224 -99 232 -84C285 12 349 53 473 53C600 56 685 57 782 57H877C884 57 887 55 891 47C901 26 926 10 972 -1Z"/>
</svg>