<svg xmlns="http://www.w3.org/2000/svg" viewBox="0 -1000 1000 1000">
	<path fill="#000000" d="M845 -480L820 -450H452L411 -468C415 -495 417 -523 419 -552H815C815 -531 815 -526 824 -526C829 -526 835 -528 845 -532C861 -539 864 -542 864 -551C864 -561 862 -608 862 -619V-669L884 -687C887 -690 889 -692 889 -695C889 -697 887 -700 883 -703L825 -744L799 -703H432L374 -748C376 -718 378 -680 378 -637C378 -374 330 -252 235 -145L246 -135C328 -198 380 -296 404 -426C405 -408 405 -387 405 -366V-204C405 -160 404 -120 402 -83V-73C402 -62 404 -58 412 -58C417 -58 425 -60 435 -63C449 -68 451 -71 451 -81V-273H543C543 -252 542 -160 542 -141C542 -127 544 -121 551 -121C556 -121 562 -123 572 -127C587 -133 590 -137 590 -150C590 -169 589 -255 589 -273H681C681 -253 680 -163 680 -145C680 -131 682 -126 689 -126C693 -126 700 -128 709 -131C725 -137 728 -141 728 -155C728 -174 727 -256 727 -273H830V-126C830 -113 824 -105 800 -105C786 -105 766 -108 738 -114L736 -101C788 -89 804 -69 809 -47C810 -43 812 -40 815 -40C817 -40 820 -41 824 -43C865 -64 876 -81 876 -119V-414L900 -429C904 -432 906 -434 906 -436C906 -439 904 -441 900 -444ZM589 -295V-428H681V-295ZM727 -295V-428H830V-295ZM451 -295V-428H543V-295ZM420 -574C421 -604 422 -649 422 -681H815V-574ZM541 -843C574 -816 606 -763 610 -739C614 -717 618 -710 631 -710C645 -710 663 -732 663 -757C663 -794 601 -832 548 -853ZM105 -775C156 -733 187 -663 187 -634C187 -603 198 -597 211 -597C221 -597 245 -619 245 -649C245 -700 191 -741 111 -783ZM966 -15C822 4 672 13 541 13C488 13 438 12 393 9C300 3 228 -72 228 -112V-419L259 -440C264 -443 266 -445 266 -448C266 -450 264 -452 260 -455L196 -501L172 -466H99C80 -466 61 -467 33 -470L68 -435C83 -441 103 -446 123 -446H180V-127L32 12L92 42C94 43 96 44 97 44C100 44 102 41 104 35C119 -18 170 -97 194 -97C201 -97 208 -90 216 -76C275 22 326 45 395 52C454 58 559 62 702 62C754 62 811 61 873 60C882 60 886 58 888 52C898 26 918 11 969 -2Z"/>
</svg>