<svg xmlns="http://www.w3.org/2000/svg" viewBox="0 -1000 1000 1000">
	<path fill="#000000" d="M885 -784L843 -727H354C331 -727 306 -729 281 -731L309 -695C326 -702 355 -706 376 -706H700C688 -669 665 -618 642 -572H409L350 -624C352 -585 353 -542 353 -503V-231C353 -175 352 -137 350 -88C350 -82 349 -77 349 -73C349 -60 351 -54 357 -54C361 -54 367 -57 375 -61C393 -71 398 -75 398 -89C398 -96 396 -166 396 -180V-551H815V-114C815 -104 814 -98 787 -98C770 -98 743 -100 700 -105L697 -90C776 -68 785 -64 794 -26C795 -22 796 -21 799 -21C800 -21 803 -21 806 -23C846 -45 859 -61 859 -90V-534L890 -550C895 -553 898 -555 898 -558C898 -560 895 -564 888 -569L833 -613L803 -572H662C732 -664 738 -669 758 -673C764 -674 767 -676 767 -678C767 -680 764 -683 759 -686L726 -706H938C948 -706 953 -707 953 -711C953 -714 950 -719 942 -727ZM739 -481L702 -440H616L619 -500C641 -512 644 -514 644 -517C644 -519 641 -521 634 -524L579 -548C581 -522 581 -501 580 -480L578 -440H474C451 -440 426 -442 401 -444L429 -408C446 -415 475 -419 496 -419H578L574 -319H542L487 -364C489 -347 489 -340 489 -281V-206C489 -175 489 -150 487 -129C487 -126 486 -124 486 -122C486 -117 488 -114 493 -114C497 -114 503 -117 513 -121C530 -128 532 -131 532 -142V-173H670V-129C670 -122 671 -118 676 -118C677 -118 714 -127 714 -146C714 -157 713 -205 713 -215V-292C734 -306 737 -308 737 -311C737 -313 735 -316 730 -319L679 -353L659 -319H610L615 -419H776C784 -419 788 -420 788 -423C788 -426 785 -430 779 -437ZM446 -690C485 -659 497 -642 509 -602C515 -582 519 -579 528 -579C544 -579 559 -594 559 -614C559 -646 531 -675 452 -698ZM532 -193V-298H670V-193ZM515 -843C561 -815 581 -789 591 -749C595 -733 601 -729 616 -729C632 -729 648 -745 648 -766C648 -808 602 -830 520 -854ZM118 -793C161 -751 187 -698 188 -644C188 -626 199 -613 210 -613C232 -613 254 -634 254 -662C254 -704 197 -761 127 -802ZM981 -12C856 0 757 1 442 1C343 1 292 -21 234 -97V-419L270 -439C274 -441 276 -443 276 -446C276 -448 274 -451 271 -453L208 -501L178 -462H99C76 -462 51 -464 26 -466L54 -430C71 -437 100 -441 121 -441H191V-130L35 -14L78 34C80 36 81 38 83 38C85 38 87 36 89 32C112 -8 174 -102 193 -102C204 -102 215 -88 232 -59C273 10 324 36 456 42C564 47 668 50 878 54C885 54 888 52 892 46C907 22 919 17 981 2Z"/>
</svg>