<svg xmlns="http://www.w3.org/2000/svg" viewBox="0 -1000 1000 1000">
	<path fill="#000000" d="M461 -832L431 -787H153C130 -787 105 -789 80 -791L108 -754C125 -761 154 -765 175 -765H240C240 -694 238 -623 237 -558H140C117 -558 92 -560 67 -562L95 -525C112 -532 141 -536 162 -536H236C234 -462 231 -397 228 -353H123C100 -353 75 -355 50 -357L78 -320C95 -327 124 -331 145 -331H226C213 -216 162 -82 47 31L57 41C173 -45 250 -187 266 -331H444V-192C444 -110 438 -74 372 -74C346 -74 312 -79 266 -89L263 -73C353 -50 363 -33 371 -2C372 3 374 5 377 5C379 5 381 4 384 3C477 -41 491 -68 491 -199V-738L531 -762C535 -764 536 -766 536 -767C536 -769 535 -771 531 -774ZM280 -558C283 -617 285 -685 288 -765H444V-558ZM268 -353C273 -407 276 -466 279 -536H444V-353ZM882 -816L852 -776H679L620 -830C622 -793 624 -725 624 -684V-172C624 -115 623 -25 621 34V45C621 60 623 66 630 66C634 66 641 64 650 60C671 51 675 47 675 33V26C672 -19 671 -94 671 -170V-754H866L747 -499C828 -416 888 -303 888 -253C888 -194 870 -164 801 -164C777 -164 745 -168 706 -176L705 -161C779 -141 798 -122 806 -94C808 -87 811 -85 814 -85C816 -85 818 -85 820 -86C918 -126 941 -184 941 -232C941 -291 906 -370 774 -506L881 -682C909 -728 928 -743 949 -751C955 -754 958 -756 958 -758C958 -760 956 -763 951 -766Z"/>
</svg>