<svg xmlns="http://www.w3.org/2000/svg" viewBox="0 -1000 1000 1000">
	<path fill="#000000" d="M579 -663L545 -622H510V-741L542 -760C547 -763 550 -765 550 -768C550 -770 547 -773 542 -777L481 -825L450 -780H173C150 -780 125 -782 100 -784L128 -747C145 -754 174 -758 195 -758H249C249 -721 246 -673 241 -622H115C92 -622 67 -624 42 -626L70 -589C87 -596 116 -600 137 -600H239C234 -553 228 -505 220 -462H152C129 -462 104 -464 79 -466L108 -429C125 -436 153 -440 174 -440H215C194 -346 157 -257 47 -124L58 -113C128 -184 172 -237 203 -297C204 -280 204 -265 204 -255V-126C204 -69 203 -42 201 -1C201 5 200 9 200 13C200 26 202 32 209 32C213 32 219 29 228 25C249 15 251 12 251 0V-65H463V-10C463 0 464 5 469 5C473 5 480 2 490 -3C511 -13 516 -17 516 -28C516 -31 515 -34 515 -37C511 -81 510 -110 510 -169V-275L536 -293C541 -297 544 -299 544 -302C544 -305 541 -308 536 -312L478 -355L450 -313H253L223 -339C236 -370 246 -402 255 -440H463C463 -414 463 -411 469 -411C473 -411 480 -413 490 -418C511 -427 515 -431 515 -444V-452C512 -497 510 -526 510 -570V-600H627C635 -600 638 -601 638 -604C638 -606 636 -610 630 -615ZM284 -622C289 -673 293 -722 295 -758H463V-622ZM260 -462C268 -501 276 -550 282 -600H463V-462ZM251 -87V-291H463V-87ZM898 -704C912 -731 929 -745 951 -750C958 -752 962 -754 962 -756C962 -759 959 -761 955 -765L889 -821L862 -778H716L655 -824C657 -787 659 -719 659 -678V-177C659 -120 658 -30 656 29V39C656 56 658 62 665 62C669 62 676 60 686 55C706 45 710 42 710 28V21C707 -24 706 -99 706 -175V-756H869L775 -507C879 -409 906 -330 906 -274C906 -227 888 -205 828 -205C803 -205 771 -209 730 -216L728 -202C817 -182 829 -164 836 -136C837 -129 840 -125 844 -125C846 -125 848 -126 851 -127C928 -157 955 -198 955 -269C955 -335 928 -410 798 -511Z"/>
</svg>