<svg xmlns="http://www.w3.org/2000/svg" viewBox="0 -1000 1000 1000">
	<path fill="#000000" d="M446 -344L418 -303H212L154 -351C156 -320 157 -272 157 -248L158 -102C158 -94 155 10 155 31C155 46 157 52 164 52C168 52 175 50 184 46C202 39 203 36 203 21V-52H430V17C430 25 431 30 437 30C440 30 446 28 456 24C477 15 480 11 480 -2V-10C477 -55 476 -84 476 -118V-260L504 -276C508 -278 510 -281 510 -283C510 -286 508 -289 502 -294ZM203 -74V-281H430V-74ZM240 -844C287 -809 313 -760 318 -729C319 -719 325 -712 334 -712C353 -712 368 -734 368 -756C368 -790 337 -817 246 -853ZM526 -757L490 -706H144C122 -706 97 -708 74 -710L101 -674C116 -680 145 -684 165 -684H576C586 -684 592 -685 592 -689C592 -693 588 -698 580 -705ZM149 -640C192 -594 216 -533 216 -508C216 -484 224 -479 236 -479C251 -479 272 -499 272 -529C272 -532 271 -536 271 -539C268 -558 239 -595 158 -649ZM554 -497L509 -439H380L458 -572C466 -586 488 -603 502 -605C509 -606 513 -609 513 -612C513 -614 510 -618 504 -621L436 -656C407 -566 384 -503 356 -439H111C89 -439 64 -441 41 -443L68 -407C83 -413 112 -417 132 -417H600C610 -417 616 -418 616 -422C616 -426 612 -431 605 -439ZM881 -667C889 -684 918 -713 935 -717C941 -719 944 -721 944 -723C944 -725 942 -728 938 -732L875 -790L842 -742H698L635 -790C637 -753 639 -685 639 -644V-149C639 -92 638 -5 636 54V65C636 80 638 86 645 86C649 86 656 84 665 80C686 71 690 68 690 53V46C687 1 686 -71 686 -147V-720H853L767 -467C860 -376 900 -301 900 -242C900 -142 850 -142 825 -142C799 -142 764 -148 716 -160L714 -147C806 -122 820 -115 826 -86C827 -79 830 -77 834 -77C842 -77 954 -117 954 -223C954 -295 917 -369 790 -474Z"/>
</svg>