<svg xmlns="http://www.w3.org/2000/svg" viewBox="0 -1000 1000 1000">
	<path fill="#000000" d="M435 -831L407 -796H132C109 -796 84 -798 59 -800L88 -763C104 -770 130 -773 151 -774V-457L49 -438L80 -394C84 -388 87 -386 91 -386C94 -386 97 -388 100 -393C108 -405 118 -409 165 -422L328 -466C328 -437 328 -423 326 -401C325 -394 325 -388 325 -383C325 -373 327 -369 333 -369C337 -369 344 -371 353 -375C370 -383 375 -386 375 -399C375 -402 374 -405 374 -409C372 -429 371 -448 371 -478L433 -495L431 -508L371 -497V-774H464C473 -774 477 -775 477 -778C477 -780 474 -784 470 -789ZM193 -576V-661H328V-576ZM193 -683V-774H328V-683ZM193 -464V-554H328V-489ZM593 -306C563 -270 526 -232 472 -186C448 -201 420 -217 388 -234V-334C411 -336 518 -346 531 -346C544 -346 550 -344 558 -341C564 -339 567 -337 570 -337C572 -337 573 -339 573 -341C573 -342 573 -345 571 -348L543 -398C449 -368 294 -345 107 -338V-326C129 -324 155 -323 186 -323C226 -323 277 -325 345 -330V-91C345 -68 343 36 343 57C343 73 345 79 352 79C356 79 362 77 370 73C389 65 394 61 394 49C394 46 393 43 393 39C389 -1 388 -39 388 -89V-218C469 -166 556 -76 581 -30C595 -4 602 1 609 1C621 1 629 -12 629 -29C629 -41 626 -54 617 -67C601 -91 568 -127 485 -178C590 -248 604 -256 620 -256C634 -256 637 -256 637 -260C637 -262 636 -265 632 -268ZM618 -780L594 -751H477C454 -751 429 -753 404 -755L432 -718C449 -725 478 -729 499 -729H591C576 -682 558 -638 536 -595C501 -620 460 -646 412 -670L406 -659C454 -629 492 -598 523 -570C490 -513 450 -460 400 -411L407 -402C456 -437 501 -480 546 -548C580 -513 602 -481 615 -457C629 -429 635 -423 645 -423C656 -423 663 -436 663 -453C663 -492 626 -527 563 -576C584 -613 605 -656 626 -709C629 -717 640 -725 649 -727C655 -729 658 -731 658 -734C658 -736 656 -740 651 -745ZM903 -804L877 -766H740L677 -816C679 -779 681 -711 681 -670V-167C681 -110 680 -22 678 37V46C678 63 680 69 687 69C692 69 699 67 708 63C727 55 730 51 730 37V29C727 -16 726 -89 726 -165V-744H878L786 -478C890 -363 910 -304 910 -254C910 -194 895 -165 839 -165C818 -165 792 -169 758 -177L755 -161C818 -145 836 -125 841 -100C842 -92 845 -89 848 -89C850 -89 852 -90 854 -91C922 -126 953 -157 953 -247C953 -299 927 -362 812 -482L909 -688C924 -721 937 -733 951 -737C958 -739 962 -741 962 -744C962 -746 960 -749 956 -753ZM254 -317C203 -260 122 -185 43 -129L51 -119C102 -146 164 -187 249 -253C258 -260 271 -265 283 -266C290 -267 294 -268 294 -271C294 -274 292 -277 288 -281ZM290 -206C231 -134 132 -38 31 36L36 46C116 4 219 -75 289 -141C297 -148 309 -154 323 -154C328 -154 331 -155 331 -158C331 -160 329 -163 325 -168Z"/>
</svg>