<svg xmlns="http://www.w3.org/2000/svg" viewBox="0 -1000 1000 1000">
	<path fill="#000000" d="M894 -730L855 -675H602L682 -774C695 -790 710 -799 728 -800C733 -800 736 -802 736 -804C736 -806 732 -810 725 -814L663 -851C624 -762 610 -732 582 -675H107C84 -675 59 -677 34 -679L62 -642C79 -649 108 -653 129 -653H412V-524H254L200 -572C202 -539 204 -478 204 -441V-132C204 -81 203 0 201 53V62C201 77 203 83 210 83C215 83 221 81 230 77C247 70 249 67 249 54V-16H787V68C787 77 788 81 793 81C797 81 803 79 813 75C835 66 839 62 839 47V41C836 -4 834 -66 834 -142V-482L866 -506C871 -510 874 -513 874 -516C874 -519 871 -521 866 -525L798 -571L768 -524H616V-653H948C957 -653 963 -655 963 -660C963 -663 959 -668 952 -675ZM249 -184V-502H412C409 -391 364 -312 260 -246L262 -230C390 -285 455 -381 459 -502H569V-346C569 -291 606 -280 667 -280C685 -280 781 -284 781 -300C781 -308 770 -325 759 -334C720 -324 690 -319 667 -319C632 -319 616 -331 616 -353V-502H787V-184ZM459 -524V-653H569V-524ZM249 -38V-162H787V-38ZM298 -824C360 -785 387 -740 393 -712C396 -698 404 -689 414 -689C428 -689 445 -706 445 -728C445 -768 360 -816 306 -835Z"/>
</svg>