<svg xmlns="http://www.w3.org/2000/svg" viewBox="0 -1000 1000 1000">
	<path fill="#000000" d="M426 -819L387 -769H110C87 -769 62 -771 37 -773L65 -736C82 -743 111 -747 132 -747H196V-598H144L91 -645C93 -612 95 -551 95 -514V-139C95 -88 94 -7 92 46V55C92 70 94 76 101 76C105 76 111 74 119 70C135 63 137 59 137 47V-27H400V34C400 43 401 48 406 48C410 48 416 45 426 41C445 32 448 28 448 15V7C445 -38 443 -100 443 -176V-557C476 -577 477 -577 477 -582C477 -585 474 -588 469 -592L419 -635L391 -598H338V-747H472C481 -747 487 -749 487 -753C487 -757 483 -762 476 -769ZM137 -210V-252C208 -320 234 -388 235 -576H298V-385C298 -320 305 -311 400 -314V-210ZM235 -598V-747H298V-598ZM338 -576H400V-351C386 -349 375 -347 366 -347C342 -347 338 -358 338 -387ZM137 -576H196C195 -401 182 -344 137 -279ZM137 -49V-188H400V-49ZM629 -853C674 -809 694 -769 698 -745C703 -717 709 -712 721 -712C738 -712 751 -732 751 -754C751 -761 750 -767 748 -773C739 -799 698 -831 636 -861ZM884 -759L847 -709H551C528 -709 503 -711 478 -713L506 -676C523 -683 552 -687 573 -687H932C944 -687 949 -688 949 -692C949 -696 945 -701 936 -709ZM807 -648C771 -543 742 -477 678 -365L692 -359C735 -417 766 -464 793 -509C824 -485 853 -450 872 -411C885 -385 888 -380 898 -380C911 -380 922 -398 922 -419C922 -460 887 -485 802 -524C837 -590 841 -598 857 -603C865 -605 868 -607 868 -610C868 -612 866 -614 861 -617ZM603 -659C564 -553 524 -469 463 -355L475 -347C524 -417 555 -464 588 -526C615 -492 629 -464 639 -426C644 -408 650 -401 660 -401C671 -401 686 -418 686 -441C686 -473 655 -501 596 -540C628 -604 632 -610 652 -614C657 -615 660 -617 660 -619C660 -621 658 -624 653 -627ZM894 -285L855 -234H725V-303C736 -309 755 -319 755 -322C755 -324 752 -326 746 -329L677 -358C679 -325 680 -297 680 -272V-234H537C514 -234 489 -236 464 -238L492 -201C509 -208 538 -212 559 -212H680V-37C680 -23 678 49 678 65C678 79 680 85 686 85C690 85 697 82 706 78C723 70 728 66 728 57C728 42 725 -22 725 -35V-212H945C956 -212 962 -214 962 -218C962 -221 957 -227 949 -234Z"/>
</svg>