<svg xmlns="http://www.w3.org/2000/svg" viewBox="0 -1000 1000 1000">
	<path fill="#000000" d="M843 -820L816 -782H472L420 -831C422 -806 422 -775 422 -748V-648C422 -633 420 -569 420 -556C420 -545 421 -541 426 -541C430 -541 436 -544 445 -548C464 -557 465 -561 465 -587H832C832 -560 832 -557 839 -557C839 -557 876 -565 876 -583C876 -597 874 -660 874 -673V-748L902 -763C907 -766 909 -768 909 -771C909 -774 906 -777 901 -781ZM594 -608V-759H687V-608ZM730 -608V-759H832V-608ZM465 -608V-759H553V-608ZM79 -669C123 -621 136 -578 136 -548C136 -527 145 -520 155 -520C168 -520 183 -535 183 -560C183 -592 162 -625 89 -682ZM367 -525L331 -479H262V-754C287 -760 349 -772 375 -772C379 -772 397 -770 401 -770C406 -770 408 -771 408 -773C408 -775 406 -778 402 -782L360 -827C272 -796 173 -767 61 -744L63 -730C105 -732 161 -739 219 -747V-479H108C85 -479 62 -481 37 -483L65 -446C80 -453 109 -457 130 -457H201C161 -313 108 -192 31 -70L41 -61C96 -124 153 -211 219 -376V-159C219 -82 216 -18 214 38V50C214 65 215 71 221 71C225 71 231 68 240 62C260 50 264 46 264 34V29C262 -23 262 -80 262 -157V-371C305 -336 322 -305 333 -269C341 -244 345 -238 355 -238C369 -238 381 -257 381 -278C381 -304 358 -349 262 -390V-457H412C421 -457 426 -458 426 -462C426 -465 422 -470 415 -477ZM346 -709C330 -661 292 -581 264 -528L278 -520C348 -622 374 -659 400 -667C404 -668 406 -670 406 -672C406 -674 405 -675 402 -677ZM893 -425L863 -380H663V-466H875C884 -466 889 -468 889 -471C889 -474 886 -479 880 -485L833 -534L801 -487H663V-532C687 -547 690 -548 690 -552C690 -555 686 -557 679 -560L617 -585C619 -556 619 -530 619 -487H505C482 -487 458 -489 434 -491L462 -456C476 -462 506 -466 527 -466H619V-380H418C395 -380 371 -382 347 -384L373 -348C389 -354 419 -358 440 -358H940C949 -358 953 -359 953 -362C953 -365 950 -369 944 -375ZM478 -338C521 -305 534 -281 541 -252C546 -231 550 -225 560 -225C571 -225 589 -241 589 -264C589 -301 550 -326 482 -350ZM902 -163L865 -115H664V-201H884C894 -201 899 -203 899 -206C899 -209 896 -214 890 -220L845 -268L809 -223H683C746 -288 766 -305 792 -313C800 -315 803 -317 803 -319C803 -320 801 -322 796 -324L740 -355C713 -308 683 -264 660 -223H445C422 -223 396 -225 372 -227L400 -191C416 -197 446 -201 467 -201H618V-115H379C358 -115 332 -117 308 -119L336 -84C352 -90 380 -93 401 -93H618C618 -42 617 2 615 56V68C615 83 616 88 623 88C627 88 634 86 643 82C666 72 666 68 666 48C664 12 664 -24 664 -93H950C959 -93 963 -94 963 -98C963 -101 960 -106 955 -112Z"/>
</svg>