<svg xmlns="http://www.w3.org/2000/svg" viewBox="0 -1000 1000 1000">
	<path fill="#000000" d="M745 -142C745 -115 745 -112 752 -112C758 -112 790 -123 790 -142C790 -145 788 -200 788 -210V-289L816 -308C820 -311 823 -313 823 -316C823 -319 820 -323 814 -327L755 -368L729 -329H352L302 -364C304 -341 305 -309 305 -287V-204C305 -190 303 -115 303 -112C303 -103 305 -99 312 -99C316 -99 320 -100 327 -103C348 -112 348 -117 348 -142H531V-73H336C313 -73 288 -75 263 -77L291 -43C308 -50 337 -54 358 -54H531V19H233C210 19 185 17 160 15L188 49C205 42 234 38 255 38H926C933 38 937 35 937 31C937 28 935 24 931 20L876 -32L840 19H575V-54H861C868 -54 871 -56 871 -59C871 -62 869 -66 865 -70L814 -121L780 -73H575V-142ZM745 -225V-161H575V-225ZM348 -161V-225H531V-161ZM745 -310V-244H575V-310ZM348 -244V-310H531V-244ZM595 -858C559 -715 544 -677 478 -562L489 -555C524 -600 555 -647 579 -692C607 -626 631 -590 668 -553C623 -507 549 -466 418 -426L424 -415C554 -439 637 -475 695 -529C741 -492 786 -472 867 -446C871 -445 874 -444 877 -444C880 -444 882 -445 883 -447C898 -467 914 -480 953 -487V-497C839 -501 773 -520 719 -554C760 -601 790 -664 804 -710H915C924 -710 928 -711 928 -714C928 -717 925 -721 918 -728L868 -777L830 -731H599C606 -744 614 -763 619 -777C628 -802 638 -812 649 -816C657 -819 660 -821 660 -824C660 -826 657 -828 652 -831ZM153 -445C156 -412 158 -374 158 -329C158 -146 127 -50 33 65L43 76C163 -29 199 -133 200 -381H897C905 -381 909 -383 909 -387C909 -390 906 -394 900 -399L846 -445L811 -403H207ZM754 -710C736 -651 722 -619 687 -576C652 -605 623 -643 587 -708C587 -709 588 -709 588 -710ZM48 -409C135 -459 204 -513 271 -599V-514C271 -499 268 -435 268 -422C268 -416 270 -413 274 -413C278 -413 285 -416 296 -423C309 -430 312 -433 312 -443C312 -465 310 -501 310 -524V-569C363 -542 399 -513 419 -486C430 -472 435 -467 443 -467C449 -467 458 -477 458 -493C458 -535 415 -556 310 -580V-616H477C485 -616 490 -618 490 -621C490 -624 487 -628 481 -634L434 -681L397 -638H310V-721H460C468 -721 473 -724 473 -728C473 -731 470 -735 465 -740L420 -780L392 -742H310V-799C330 -815 332 -817 332 -821C332 -824 330 -825 326 -827L268 -856C269 -823 271 -768 271 -742H157C135 -742 110 -744 86 -746L113 -710C130 -717 158 -721 178 -721H271V-638H125C103 -638 78 -640 54 -642L81 -606C98 -612 126 -616 146 -616H236C192 -548 152 -509 43 -420Z"/>
</svg>