<svg xmlns="http://www.w3.org/2000/svg" viewBox="0 -1000 1000 1000">
	<path fill="#000000" d="M539 -758C541 -724 543 -670 543 -614V-181C543 -151 539 -16 539 10C539 22 541 27 547 27C551 27 557 25 565 21C586 13 589 7 589 -6V-105H838V-8C838 1 839 6 845 6C850 6 856 3 867 -1C886 -9 890 -14 890 -26V-31C887 -78 885 -121 885 -201V-667L917 -685C924 -689 927 -691 927 -694C927 -697 924 -701 918 -705L851 -753L821 -708H606ZM589 -127V-686H838V-127ZM89 -282C128 -237 149 -197 157 -164C164 -136 169 -125 182 -125C196 -125 212 -144 212 -166C212 -215 140 -263 96 -292ZM419 -301C405 -266 359 -182 322 -121L335 -113C444 -240 449 -243 474 -248C482 -250 486 -252 486 -255C486 -257 483 -261 476 -265ZM283 -852C239 -742 151 -578 41 -428L52 -418C78 -445 108 -480 138 -520H255V-374H138C119 -374 90 -375 65 -378L93 -341C110 -348 129 -352 152 -352H255V-57L53 -28L95 36C98 40 100 42 103 42C105 42 107 40 109 38C130 13 167 -3 494 -75V-91L302 -64V-352H490C496 -352 500 -354 500 -357C500 -360 498 -364 492 -369L439 -424L402 -374H302V-520H457C465 -520 468 -522 468 -525C468 -528 466 -532 460 -537L409 -590L372 -542H155C199 -602 247 -673 294 -754C344 -727 413 -663 443 -619C452 -606 456 -603 463 -603C480 -603 489 -622 489 -638C489 -643 488 -649 486 -654C475 -681 433 -718 301 -766C313 -784 326 -792 347 -797C353 -799 356 -800 356 -803C356 -805 353 -808 348 -811Z"/>
</svg>