<svg xmlns="http://www.w3.org/2000/svg" viewBox="0 -1000 1000 1000">
	<path fill="#000000" d="M798 -442L769 -401H402L351 -441C352 -417 352 -391 352 -365V-182C352 -164 350 -85 350 -69C350 -55 353 -48 360 -48C370 -48 392 -58 392 -71V-258H495C495 -239 494 -156 494 -139C494 -123 496 -115 503 -115C507 -115 512 -118 520 -123C533 -132 536 -135 536 -147C536 -164 535 -242 535 -258H633C633 -240 632 -161 632 -145C632 -130 634 -125 640 -125C644 -125 650 -127 658 -130C671 -135 674 -139 674 -153C674 -170 673 -243 673 -258H786V-152C786 -133 783 -122 749 -122C734 -122 712 -124 681 -129L680 -115C732 -103 742 -91 751 -59C752 -55 754 -52 758 -52C760 -52 763 -53 766 -55C822 -87 827 -102 827 -148V-362L855 -379C859 -382 862 -384 862 -387C862 -390 860 -392 856 -395ZM535 -278V-381H633V-278ZM673 -278V-381H786V-278ZM392 -278V-381H495V-278ZM877 -65L831 -5H169V-757H917C925 -757 929 -759 929 -762C929 -765 926 -769 921 -774L853 -840L810 -777H183L118 -832C120 -794 122 -719 122 -669V-36L83 0L135 48C138 51 141 52 144 52C147 52 150 51 153 47L180 15H943C952 15 956 14 956 11C956 8 953 4 947 -1ZM493 -743C532 -707 539 -689 541 -666C543 -648 548 -641 553 -641C571 -641 588 -661 588 -689C588 -703 578 -722 499 -752ZM762 -681L733 -633H368L310 -681C312 -657 313 -623 313 -587C313 -391 301 -266 174 -117L183 -107C292 -203 343 -304 355 -496H751C751 -469 751 -466 758 -466C763 -466 795 -475 795 -490C795 -507 794 -533 794 -550V-600L820 -618C824 -621 826 -624 826 -626C826 -629 824 -632 820 -635ZM355 -516C356 -542 357 -576 358 -613H751V-516Z"/>
</svg>