<svg xmlns="http://www.w3.org/2000/svg" viewBox="0 -1000 1000 1000">
	<path fill="#000000" d="M932 -642L892 -590H847V-772L873 -787C880 -791 884 -794 884 -797C884 -800 880 -803 871 -808L798 -849C800 -812 802 -744 802 -703V-590H561V-776L586 -790C594 -795 599 -798 599 -802C599 -805 594 -808 585 -813L512 -853C514 -816 516 -748 516 -707V-590C493 -590 484 -590 434 -594L462 -557C476 -563 497 -566 516 -568V-163C516 -106 515 -16 513 43V51C513 69 515 76 523 76C527 76 534 74 543 69C560 60 561 56 561 44V-27H802V58C802 67 802 71 807 71C811 71 817 69 826 65C847 56 851 52 851 38V31C848 -14 847 -76 847 -152V-568H975C984 -568 989 -569 989 -573C989 -576 986 -580 981 -586ZM561 -330V-568H802V-330ZM561 -49V-308H802V-49ZM428 -457L386 -408H292V-554H434C439 -554 442 -555 442 -558C442 -560 440 -563 437 -566L387 -623L346 -576H163C197 -626 234 -688 277 -762C346 -728 394 -686 411 -659C426 -635 434 -629 442 -629C455 -629 471 -641 471 -661C471 -667 470 -673 467 -679C456 -702 411 -734 284 -774C294 -789 302 -796 313 -800C319 -802 322 -804 322 -807C322 -809 319 -812 314 -815L256 -849C228 -757 135 -580 50 -455L63 -446C91 -476 119 -511 148 -554H245V-408H136C113 -408 88 -410 63 -412L91 -375C108 -382 137 -386 158 -386H245V-66L56 -32L100 27C101 29 103 30 105 30C107 30 109 29 112 26C133 3 198 -25 465 -88L463 -106L292 -75V-386H470C479 -386 483 -388 483 -391C483 -394 481 -398 476 -404ZM99 -300C135 -249 144 -214 144 -186C144 -182 143 -167 143 -164C143 -147 149 -136 162 -136C177 -136 202 -153 202 -186C202 -217 179 -254 108 -308ZM401 -323C381 -284 340 -214 303 -158L315 -150C403 -244 426 -265 450 -269C454 -270 457 -272 457 -274C457 -277 455 -279 452 -282Z"/>
</svg>