<svg xmlns="http://www.w3.org/2000/svg" viewBox="0 -1000 1000 1000">
	<path fill="#000000" d="M858 -793L827 -748H513L460 -798C462 -748 463 -702 463 -642V-344C463 -325 461 -239 461 -221C461 -211 462 -207 467 -207C470 -207 508 -222 508 -238V-291H655V-125C655 -33 655 6 653 48V62C653 75 655 80 661 80C666 80 672 78 681 74C701 66 706 62 706 49C706 47 705 44 705 40C701 0 700 -38 700 -88V-291H849V-239C849 -228 850 -223 855 -223C859 -223 866 -226 876 -232C895 -243 899 -248 899 -260V-266C896 -311 894 -365 894 -407V-713L921 -730C926 -733 928 -735 928 -737C928 -740 925 -743 919 -747ZM700 -524V-726H849V-524ZM508 -524V-726H655V-524ZM700 -313V-502H849V-313ZM508 -313V-502H655V-313ZM448 -134L273 -98V-379H428C437 -379 442 -380 442 -383C442 -386 438 -390 431 -397L375 -452L336 -400H273V-537H389C398 -537 403 -538 403 -541C403 -543 399 -547 392 -554L338 -606L307 -557H143C183 -613 227 -682 273 -763C326 -725 360 -683 381 -649C390 -634 398 -627 407 -627C421 -627 432 -640 432 -659C432 -665 430 -673 427 -680C417 -703 355 -744 280 -775C289 -789 293 -794 306 -799C316 -804 321 -807 321 -811C321 -814 318 -816 312 -820L259 -854C212 -742 109 -545 36 -447L48 -437C72 -463 99 -496 129 -537H228V-400H139C116 -400 91 -402 66 -404L94 -368C111 -375 140 -379 161 -379H228V-89L54 -53L85 -4C89 2 92 5 96 5C100 5 104 3 110 -3C123 -16 155 -29 216 -47L450 -117ZM378 -345C357 -294 318 -209 283 -155L293 -147C317 -171 369 -239 395 -275C404 -287 415 -296 431 -299C435 -300 438 -301 438 -302C438 -304 435 -306 430 -310ZM79 -319C120 -263 136 -229 142 -193C146 -170 153 -160 167 -160C181 -160 194 -179 194 -202C194 -248 137 -291 87 -326Z"/>
</svg>