<svg xmlns="http://www.w3.org/2000/svg" viewBox="0 -1000 1000 1000">
	<path fill="#000000" d="M540 -313V-531H710V-313ZM500 -588C512 -613 525 -642 540 -678H861C863 -533 861 -349 855 -264C850 -194 841 -171 780 -171C756 -171 726 -174 685 -180L683 -164C768 -147 783 -135 797 -105C799 -101 801 -99 805 -99C807 -99 810 -99 813 -101C874 -135 897 -166 900 -259C904 -366 907 -526 906 -658L939 -679C942 -681 944 -683 944 -686C944 -688 942 -691 938 -694L875 -741L845 -700H549C559 -723 567 -742 581 -776C586 -788 591 -792 616 -800C622 -802 624 -804 624 -807C624 -810 622 -813 616 -816L548 -857C510 -686 472 -580 390 -439L404 -429C443 -482 466 -518 493 -573C495 -544 495 -531 495 -485V-55C495 47 537 51 761 51C906 51 944 51 983 -23C984 -25 985 -27 985 -29C985 -32 983 -34 979 -35C960 -42 943 -65 947 -188L931 -189C918 -1 913 5 843 8C823 9 799 9 770 9C549 9 540 1 540 -53V-291H710V-250C710 -242 712 -237 718 -237C721 -237 759 -251 759 -270C759 -274 757 -338 757 -351V-517C782 -533 785 -535 785 -539C785 -542 782 -545 777 -549L724 -589L699 -553H549ZM369 -305C355 -274 309 -182 281 -136L293 -127C397 -251 404 -256 422 -259C427 -260 430 -262 430 -264C430 -266 428 -268 424 -271ZM73 -289C108 -248 131 -196 133 -167C134 -150 140 -139 151 -139C171 -139 184 -165 184 -187V-191C182 -215 152 -251 83 -300ZM243 -849C208 -730 123 -575 27 -445L38 -436C74 -472 108 -512 136 -552H225V-387H128C110 -387 85 -388 55 -391L83 -355C100 -362 119 -366 142 -366H225V-69L47 -30L88 24C91 27 93 29 95 29C97 29 100 27 103 24C121 6 157 -12 452 -104L450 -119L272 -80V-366H419C428 -366 433 -368 433 -372C433 -375 430 -379 425 -384L373 -435L338 -387H272V-552H390C397 -552 400 -554 400 -557C400 -560 398 -564 393 -569L346 -617L311 -573H150C181 -618 214 -673 253 -746C309 -719 362 -678 397 -640C408 -628 415 -623 421 -623C430 -623 441 -639 441 -657C441 -697 404 -710 262 -761C275 -782 288 -793 305 -798C311 -800 314 -801 314 -804C314 -806 311 -809 306 -812Z"/>
</svg>