<svg xmlns="http://www.w3.org/2000/svg" viewBox="0 -1000 1000 1000">
	<path fill="#000000" d="M643 -850C584 -661 508 -502 433 -388L444 -378C529 -481 573 -552 672 -775C707 -607 771 -513 872 -419C875 -417 877 -415 879 -415C881 -415 884 -417 886 -419C904 -436 916 -442 977 -442L979 -454C852 -490 745 -587 686 -790C690 -793 716 -801 716 -806C716 -808 713 -812 707 -815ZM597 -537C635 -499 648 -435 648 -404C648 -388 658 -377 668 -377C689 -377 706 -398 706 -422C706 -468 665 -505 605 -547ZM483 -85L280 -54V-341H428C437 -341 441 -343 441 -347C441 -350 438 -355 432 -363L390 -413L347 -363H280V-509H419C428 -509 433 -511 433 -515C433 -518 430 -523 424 -529L381 -578L341 -531H149C184 -584 221 -648 274 -746C318 -721 380 -663 400 -619C408 -601 419 -593 428 -593C440 -593 455 -609 455 -629C455 -675 392 -715 281 -759C295 -785 299 -790 318 -795C328 -798 332 -800 332 -804C332 -806 329 -810 322 -814L263 -852C228 -747 106 -504 27 -397L40 -388C77 -432 105 -468 134 -509H233V-363H108C87 -363 64 -365 42 -367L67 -331C82 -337 109 -341 128 -341H233V-47L43 -18L85 39C86 41 87 42 89 42C91 42 93 40 97 37C113 23 147 8 235 -12L485 -69ZM391 -294C360 -234 337 -194 284 -107L295 -102C414 -237 420 -241 439 -246C446 -248 449 -250 449 -252C449 -255 446 -258 441 -261ZM84 -281C117 -230 130 -171 130 -145C130 -124 136 -101 154 -101C175 -101 189 -124 189 -148C189 -152 188 -155 188 -158C184 -184 157 -228 91 -289ZM773 -343L744 -309H518C505 -309 483 -310 462 -312L488 -278C502 -284 517 -287 533 -287H752L650 -83C615 -113 570 -144 519 -169L513 -158C591 -94 665 1 682 57C688 78 701 91 709 91C732 91 744 72 744 41C744 19 715 -24 664 -70C790 -260 795 -266 832 -279C841 -282 846 -286 846 -290C846 -294 842 -298 836 -302Z"/>
</svg>