<svg xmlns="http://www.w3.org/2000/svg" viewBox="0 -1000 1000 1000">
	<path fill="#000000" d="M981 -364C864 -373 778 -396 708 -460C755 -516 792 -580 829 -657C840 -680 851 -686 865 -691C873 -694 877 -696 877 -700C877 -703 874 -706 868 -710L803 -755L773 -711H586C622 -779 627 -788 648 -794C657 -797 661 -799 661 -802C661 -804 657 -808 650 -812L585 -845C545 -726 499 -620 422 -469L435 -463C476 -517 515 -580 560 -662C590 -574 614 -510 653 -459C600 -395 533 -339 450 -283L461 -270C482 -281 502 -292 521 -304V-48C521 -33 521 -10 518 50C518 56 517 61 517 65C517 77 519 83 526 83C531 83 538 80 548 76C565 69 566 64 566 52V-8H794V68C794 76 795 81 801 81C804 81 810 79 820 75C841 67 846 63 846 50C846 48 845 45 845 41C841 5 841 -19 841 -53V-239C853 -248 873 -262 873 -265C873 -268 871 -270 865 -274L802 -318L772 -274H579L535 -313C594 -350 641 -387 680 -429C750 -355 885 -305 888 -305C891 -305 894 -307 896 -310C908 -331 934 -345 981 -351ZM782 -690C761 -623 727 -555 678 -490C639 -537 604 -599 571 -683C573 -685 575 -688 575 -690ZM566 -30V-252H794V-30ZM249 -849C210 -730 127 -552 37 -422L50 -413C118 -481 201 -613 267 -748C328 -710 376 -649 395 -615C404 -599 411 -593 421 -593C434 -593 447 -612 447 -634C447 -681 377 -721 275 -765C286 -784 295 -791 309 -795C318 -798 322 -800 322 -803C322 -805 318 -809 311 -813ZM469 -100L277 -75V-355H462C471 -355 475 -356 475 -359C475 -361 472 -365 466 -372L411 -428L368 -376H277V-505H419C428 -505 432 -506 432 -509C432 -512 429 -516 422 -523L369 -579L332 -526H218C195 -526 170 -528 145 -530L173 -494C188 -500 212 -504 232 -505V-376H115C92 -376 67 -378 42 -380L70 -344C87 -351 116 -355 137 -355H232V-69L37 -43L79 17C82 21 84 23 86 23C88 23 90 22 93 19C107 4 124 -5 210 -24L472 -83ZM78 -298C124 -222 141 -182 143 -151C145 -124 150 -117 162 -117C178 -117 200 -141 200 -167C200 -198 170 -232 88 -306ZM378 -295C365 -257 327 -183 294 -135L306 -124C330 -151 353 -177 393 -223C404 -236 419 -243 434 -245C441 -246 445 -247 445 -250C445 -252 442 -254 436 -258Z"/>
</svg>