<svg xmlns="http://www.w3.org/2000/svg" viewBox="0 -1000 1000 1000">
	<path fill="#000000" d="M888 -364L862 -332H690V-481H842V-447C842 -442 843 -439 848 -439C851 -439 857 -441 867 -446C887 -455 890 -458 890 -468C890 -480 888 -537 888 -548V-628C918 -643 922 -645 922 -648C922 -651 919 -654 914 -658L861 -701L834 -666H725L798 -752C812 -769 831 -781 854 -786C860 -787 862 -788 862 -790C862 -792 860 -795 855 -798L793 -840C769 -783 731 -711 702 -666H534C511 -666 486 -668 461 -670L489 -634C506 -641 535 -645 556 -645H644V-502H527L478 -553C478 -531 476 -504 473 -480L458 -353L423 -336L477 -299C479 -298 481 -297 483 -297C487 -297 488 -298 496 -311H603C536 -178 443 -87 317 12L325 23C478 -65 555 -145 644 -285V-151C644 -94 643 -4 641 55V65C641 81 643 89 650 89C654 89 661 87 669 82C690 70 694 67 694 52V47C691 2 690 -73 690 -149V-311H870C870 -235 867 -190 863 -169C857 -142 849 -128 815 -128C795 -128 764 -133 719 -143L716 -127C780 -106 799 -92 805 -58C806 -50 809 -48 813 -48C814 -48 817 -48 819 -49C895 -80 910 -98 913 -288L948 -306C953 -309 955 -311 955 -313C955 -315 953 -317 950 -319ZM690 -502V-645H842V-502ZM497 -332L516 -481H644V-332ZM435 -141L276 -101V-384H424C431 -384 435 -386 435 -389C435 -391 433 -394 429 -398L380 -447L346 -405H276V-539H432C439 -539 442 -540 442 -543C442 -545 440 -548 437 -551L390 -605L348 -560H157C184 -606 219 -670 272 -771C329 -731 364 -679 371 -653C375 -638 386 -632 393 -632C406 -632 421 -649 421 -669C421 -696 395 -736 279 -783C286 -795 293 -804 309 -810C315 -812 318 -814 318 -816C318 -818 315 -821 310 -824L252 -858C213 -732 115 -535 44 -429L55 -422C90 -460 112 -486 145 -539H229V-405H144C125 -405 96 -407 71 -409L99 -373C116 -380 135 -384 158 -384H229V-89L56 -46L91 2C93 5 95 7 97 7C100 7 102 5 105 2C125 -17 142 -24 438 -126ZM87 -327C124 -282 135 -233 135 -199C135 -196 134 -181 134 -178C134 -163 143 -150 156 -150C177 -150 193 -174 193 -199C193 -230 156 -288 96 -336ZM520 -819C564 -784 586 -748 592 -712C596 -688 605 -682 615 -682C631 -682 649 -695 649 -724C649 -761 624 -785 527 -829ZM387 -340C365 -295 331 -231 292 -172L305 -161C408 -285 412 -288 435 -292C441 -293 443 -295 443 -297C443 -299 441 -302 436 -305Z"/>
</svg>