<svg xmlns="http://www.w3.org/2000/svg" viewBox="0 -1000 1000 1000">
	<path fill="#000000" d="M390 -446L344 -397H271V-529H399C406 -529 410 -530 410 -533C410 -535 408 -538 404 -542L350 -595L313 -550H156C197 -609 240 -680 286 -763C321 -739 358 -695 389 -648C400 -631 410 -624 420 -624C434 -624 445 -635 445 -652C445 -695 391 -730 293 -775C302 -787 317 -798 330 -801C335 -802 338 -804 338 -806C338 -809 335 -812 328 -816L269 -853C228 -745 140 -571 51 -440L63 -431C88 -458 115 -491 142 -529H228V-397H123C113 -397 103 -397 75 -399L99 -373C114 -375 129 -376 145 -376H228V-74L49 -40L79 14C82 19 84 21 87 21C90 21 92 20 95 18C121 -1 149 -14 195 -27L431 -96L429 -113L271 -83V-376H438C444 -376 447 -377 447 -380C447 -382 445 -385 442 -388ZM85 -301C120 -256 136 -212 138 -166C139 -143 147 -136 158 -136C175 -136 197 -158 194 -191C192 -215 165 -258 95 -310ZM840 -255C855 -265 873 -270 900 -272C906 -273 909 -274 909 -276C909 -278 907 -281 904 -284L856 -335C818 -293 760 -232 717 -192C696 -238 683 -292 675 -359C682 -367 689 -374 696 -382H946C955 -382 959 -383 959 -386C959 -389 957 -392 953 -396L898 -450L855 -403H688V-523H903C908 -523 911 -524 911 -527C911 -529 909 -532 906 -535L850 -589L810 -544H688V-659H939C945 -659 948 -660 948 -663C948 -665 947 -668 944 -671L892 -729L849 -680H688V-777L715 -792C721 -795 724 -798 724 -801C724 -804 720 -807 712 -811L641 -847C643 -812 644 -788 644 -749V-680H510C500 -680 489 -680 460 -683L481 -655C495 -658 516 -659 532 -659H644V-544H510C497 -544 485 -544 454 -547L478 -518C495 -522 506 -523 522 -523H644V-403H489C476 -403 464 -403 433 -405L456 -380C469 -382 485 -382 501 -382H630C560 -287 486 -214 359 -115L367 -104C424 -135 469 -164 515 -202V-16C515 12 504 20 473 39L513 92C515 95 517 96 519 96C521 96 523 95 525 91C549 54 569 37 712 -48L705 -63L557 3V-240C586 -268 619 -300 656 -339C667 -155 735 -56 862 38C867 42 870 44 873 44C876 44 879 42 883 38C905 19 927 17 972 17L974 4C846 -38 769 -90 724 -178ZM386 -317C375 -297 324 -214 281 -155L291 -146L398 -249C404 -255 419 -262 432 -264C436 -265 438 -266 438 -267C438 -269 436 -272 433 -275Z"/>
</svg>