<svg xmlns="http://www.w3.org/2000/svg" viewBox="0 -1000 1000 1000">
	<path fill="#000000" d="M329 -422L297 -382H235V-526H344C353 -526 357 -528 357 -531C357 -534 355 -537 351 -542L309 -587L279 -548H140C165 -598 193 -662 227 -752C268 -729 291 -703 304 -682C318 -660 325 -653 336 -653C351 -653 362 -665 362 -682C362 -718 316 -742 232 -768C235 -775 238 -783 241 -791C244 -799 249 -803 265 -809C276 -813 281 -816 281 -820C281 -822 277 -825 270 -829L210 -859C185 -757 125 -568 33 -407L42 -399C72 -435 99 -472 128 -526H191V-382H124C101 -382 76 -384 51 -386L79 -349C96 -356 125 -360 146 -360H191V-68L52 -38L79 10C81 14 83 16 86 16C88 16 90 14 92 12C109 -6 151 -22 331 -81L330 -98L235 -78V-360H362C371 -360 375 -362 375 -366C375 -369 373 -373 368 -379ZM74 -290C104 -253 120 -199 120 -161C120 -130 127 -123 140 -123C155 -123 176 -140 173 -171C170 -200 151 -244 82 -299ZM421 -828C451 -805 473 -760 480 -717C484 -693 488 -685 499 -685C516 -685 535 -700 535 -725C535 -760 503 -799 429 -838ZM918 -718L875 -673H683C700 -704 716 -736 732 -770C736 -779 740 -784 757 -791C767 -795 771 -798 771 -801C771 -804 768 -807 761 -811L704 -843C695 -810 671 -735 624 -630C623 -632 621 -634 619 -637L581 -682L540 -640H411C388 -640 363 -642 338 -644L366 -607C376 -611 390 -614 404 -616C405 -592 405 -566 405 -540C405 -459 401 -371 395 -288C387 -181 358 -75 263 60L275 68C401 -74 433 -167 444 -432H532C527 -334 518 -182 511 -112C507 -80 501 -61 467 -61C452 -61 434 -64 408 -71L405 -58C450 -39 465 -29 467 1C468 8 469 11 473 11C475 11 478 10 481 8C531 -20 539 -31 549 -110C554 -147 565 -314 570 -413C600 -429 603 -431 603 -435C603 -438 601 -441 596 -444L544 -481L522 -454H445C446 -505 448 -571 449 -618H613C616 -618 618 -618 620 -619C604 -582 585 -542 564 -499L576 -493C597 -519 633 -578 671 -651H957C965 -651 969 -653 969 -657C969 -659 966 -663 962 -668ZM977 22C848 -25 804 -125 777 -276H927C935 -276 940 -278 940 -282C940 -286 937 -290 932 -297L896 -342L857 -298H771C775 -335 780 -411 782 -465H915C924 -465 928 -467 928 -470C928 -473 926 -476 922 -481L877 -531L843 -487H708C716 -503 724 -521 733 -540C737 -549 741 -553 753 -558C762 -562 766 -565 766 -568C766 -570 763 -573 756 -577L704 -608C688 -546 656 -446 603 -331L614 -324C639 -355 664 -397 697 -465H738C737 -393 734 -337 729 -298H648C625 -298 600 -300 575 -302L603 -265C620 -272 649 -276 670 -276H727C707 -119 658 -27 519 68L525 79C672 6 738 -75 764 -240C782 -120 814 -17 891 51C896 55 899 57 902 57C905 57 908 55 912 51C927 37 940 33 977 33ZM326 -301C306 -254 286 -215 249 -148L259 -140C337 -239 356 -257 375 -260C380 -261 382 -263 382 -265C382 -266 380 -268 377 -270Z"/>
</svg>