<svg xmlns="http://www.w3.org/2000/svg" viewBox="0 -1000 1000 1000">
	<path fill="#000000" d="M332 -457L294 -411H216V-541H344C352 -541 357 -542 357 -546C357 -549 355 -553 350 -559L310 -610L272 -567H115C151 -626 188 -692 221 -760C268 -731 298 -696 317 -660C329 -638 335 -634 343 -634C356 -634 367 -652 367 -672C367 -676 367 -680 366 -684C359 -709 329 -740 227 -773C230 -778 232 -782 234 -787C236 -792 242 -796 261 -800C270 -802 275 -804 275 -808C275 -810 272 -813 266 -817L205 -855C168 -742 87 -560 17 -443L30 -433C47 -453 73 -492 103 -541H175V-411H102C79 -411 54 -413 29 -415L57 -378C74 -385 103 -389 124 -389H175V-86L38 -64L64 -17C67 -11 69 -8 73 -8C75 -8 78 -10 82 -13C99 -27 128 -40 370 -103V-118L216 -93V-389H368C377 -389 382 -391 382 -395C382 -398 379 -402 374 -408ZM51 -306C77 -273 89 -216 89 -187C89 -169 89 -144 110 -144C127 -144 144 -168 144 -189C144 -222 132 -251 61 -316ZM884 -754L852 -721H708C718 -741 729 -762 740 -784C743 -790 752 -797 764 -800C773 -803 778 -805 778 -808C778 -811 774 -814 768 -817L711 -847C671 -722 610 -594 562 -517V-784C588 -800 591 -802 591 -805C591 -807 588 -810 583 -812L519 -844C521 -807 523 -739 523 -698V-538H429V-728C453 -742 456 -744 456 -747C456 -749 454 -751 449 -753L386 -784C388 -755 389 -719 389 -691V-539L361 -519L411 -492C414 -490 416 -490 418 -490C421 -490 423 -491 425 -495L440 -517H523V-356H393C370 -356 345 -358 320 -360L348 -317C361 -323 383 -326 401 -327C402 -302 402 -278 402 -256C402 -110 378 -29 275 48L282 59C435 -32 443 -110 443 -328H523V-152C523 -119 520 29 520 59C520 77 523 83 530 83C533 83 537 82 541 80C562 71 566 67 566 53V46C563 1 562 -74 562 -150V-490C578 -509 594 -529 611 -551C632 -537 648 -515 658 -482C665 -460 670 -456 679 -456C691 -456 702 -469 702 -486C702 -521 655 -546 620 -564C638 -590 655 -619 673 -653C700 -640 715 -625 732 -592C745 -567 751 -563 759 -563C771 -563 781 -573 781 -589C781 -620 756 -639 680 -667C686 -677 691 -688 697 -700H855C819 -584 763 -482 618 -371L627 -359C758 -436 822 -510 893 -667C896 -674 903 -679 924 -683C935 -685 941 -688 941 -692C941 -695 938 -699 932 -705ZM312 -332C291 -275 259 -207 226 -150L238 -141C327 -265 342 -275 365 -279C371 -280 373 -282 373 -284C373 -285 372 -287 368 -290ZM919 -392L879 -343H842V-423C868 -440 870 -442 870 -445C870 -447 868 -449 862 -452L795 -480C798 -444 799 -397 799 -343H646C623 -343 598 -345 573 -347L601 -307C618 -314 647 -318 668 -318H799V-19C799 -6 797 1 774 1C755 1 723 -3 666 -12L662 3C750 28 763 36 770 78C771 82 772 85 776 85C778 85 781 84 784 82C836 53 842 33 842 -9V-318H953C962 -318 967 -320 967 -325C967 -329 965 -334 960 -340ZM613 -257C638 -239 659 -180 662 -147C664 -123 669 -114 683 -114C699 -114 719 -127 719 -159C719 -185 674 -240 621 -267Z"/>
</svg>