<svg xmlns="http://www.w3.org/2000/svg" viewBox="0 -1000 1000 1000">
	<path fill="#000000" d="M686 2H596V-230H686ZM337 34C359 26 381 24 411 24H958C965 24 969 23 969 20C969 17 966 13 961 8L913 -42L876 2H856V-213L883 -225C888 -227 890 -229 890 -232C890 -234 888 -237 882 -242L829 -285L804 -252H483L421 -299C422 -272 424 -230 424 -201V2C369 2 338 2 310 -2ZM729 2V-230H812V2ZM555 -230V2H464V-230ZM639 -604V-496H462V-604ZM417 -813C420 -768 420 -736 420 -658V-363L387 -339L438 -303C442 -300 445 -299 447 -299C450 -299 463 -314 471 -323H730C738 -323 742 -323 742 -326C742 -328 738 -332 732 -339L690 -388L654 -345H584V-474H639C639 -443 639 -440 645 -440C651 -440 682 -450 682 -467C682 -487 680 -520 680 -540V-595L705 -608C710 -611 712 -613 712 -615C712 -617 710 -620 705 -623L661 -658L637 -626H585V-741H718C727 -741 732 -743 732 -747C732 -750 729 -755 723 -761L679 -805L643 -763H480ZM543 -474V-345H462V-474ZM544 -626H462V-741H544ZM89 -280C119 -234 125 -203 125 -155C125 -131 133 -118 146 -118C163 -118 177 -134 177 -162C177 -200 156 -238 96 -287ZM240 -838C202 -724 129 -580 37 -423L49 -415C67 -436 94 -471 124 -516H204V-377H125C102 -377 78 -378 52 -381L79 -345C96 -352 125 -356 146 -356H204V-67L46 -37L78 17C80 20 82 21 84 21C86 21 89 20 92 16C111 -6 127 -15 394 -85V-102L247 -74V-356H382C389 -356 393 -357 393 -360C393 -362 391 -366 387 -371L344 -423L305 -377H247V-516H370C378 -516 381 -518 381 -521C381 -524 378 -528 373 -533L327 -580L290 -537H138C174 -594 215 -664 255 -742C291 -714 321 -671 330 -645C338 -621 345 -616 360 -616C372 -616 383 -631 383 -652C383 -701 309 -734 260 -753C271 -776 275 -779 294 -782C305 -784 310 -786 310 -789C310 -791 307 -795 300 -799ZM337 -305C321 -262 294 -207 250 -131L263 -122C349 -240 367 -254 385 -258C391 -259 393 -261 393 -263C393 -264 392 -266 388 -269ZM799 -528C838 -471 852 -420 853 -383C854 -348 859 -340 868 -340C886 -340 908 -361 908 -393C908 -430 873 -478 810 -537ZM803 -826C775 -696 736 -553 694 -437L707 -430C733 -475 760 -531 788 -607H954C963 -607 967 -609 967 -612C967 -615 964 -619 960 -623L907 -675L872 -627H796C808 -660 820 -696 832 -737C838 -756 840 -759 860 -768C869 -772 874 -775 874 -778C874 -781 871 -783 865 -787Z"/>
</svg>