<svg xmlns="http://www.w3.org/2000/svg" viewBox="0 -1000 1000 1000">
	<path fill="#000000" d="M410 -806L386 -766H184L120 -825C122 -788 124 -722 124 -682V-142C124 -86 123 -2 121 55V65C121 81 123 88 130 88C135 88 141 85 150 81C170 71 173 68 173 55V48C170 3 169 -65 169 -140V-562H397C397 -524 397 -523 404 -523C407 -523 413 -526 422 -530C440 -538 443 -541 443 -550V-556C440 -588 440 -622 440 -672V-730L467 -749C471 -752 473 -754 473 -756C473 -758 471 -761 467 -764ZM169 -674V-745H397V-674ZM169 -583V-653H397V-583ZM862 -810L835 -766H626L568 -819C570 -788 571 -741 571 -718V-629C571 -617 567 -560 567 -556C567 -549 569 -546 575 -546C578 -546 607 -551 613 -561H852V-21C852 -1 850 10 821 10C801 10 768 5 715 -5L713 11C801 34 810 42 818 76C820 83 824 86 828 86C830 86 832 85 834 84C888 54 897 44 897 18V-732L928 -751C931 -753 933 -755 933 -757C933 -758 931 -760 929 -762ZM615 -675V-745H852V-675ZM615 -582V-654H852V-582ZM446 -258L424 -223H337L294 -249C299 -273 301 -296 301 -316H433C433 -288 433 -285 439 -285C443 -285 450 -288 463 -293C476 -296 479 -299 479 -308C479 -313 476 -358 476 -368V-439C486 -445 502 -454 502 -457C502 -459 501 -461 497 -463L446 -498L422 -464H315L262 -501C263 -484 263 -460 263 -435V-358C263 -229 237 -132 184 -34L192 -24C234 -67 272 -148 290 -225V-88C290 -66 290 -33 289 -11C289 -2 290 2 295 2C297 2 332 -10 332 -18V-59H436V-28C436 -22 437 -18 442 -18C445 -18 482 -27 482 -39C481 -55 479 -78 479 -107V-196L501 -214C503 -216 504 -217 504 -218C504 -219 503 -220 501 -221ZM301 -336V-444H433V-336ZM332 -78V-203H436V-78ZM587 -533C607 -508 616 -485 619 -463C621 -452 627 -444 634 -444C651 -444 664 -464 664 -481C664 -503 642 -521 596 -538ZM740 -481L708 -440H557C545 -440 526 -440 504 -442L532 -415C547 -421 560 -422 573 -422H786C790 -422 792 -423 792 -425C792 -426 790 -429 786 -433ZM533 -392C555 -373 576 -329 578 -307C579 -295 586 -289 593 -289C611 -289 624 -308 624 -325C624 -347 595 -377 542 -401ZM762 -319L730 -278H665L719 -358C727 -369 732 -373 743 -377C749 -379 752 -382 752 -384C752 -385 750 -387 747 -388L693 -415L647 -278H523C509 -278 490 -278 470 -280L496 -250C511 -256 526 -258 539 -258H618V-157H537C523 -157 504 -157 484 -159L510 -131C525 -137 540 -138 552 -138H618C618 -87 618 -39 616 14C616 36 617 44 624 44C628 44 633 42 641 39C662 30 666 27 666 13V6C663 -36 662 -70 662 -138H793C797 -138 799 -139 799 -141C799 -143 797 -146 793 -150L747 -199L711 -157H662V-258H810C813 -258 814 -259 814 -261C814 -263 813 -266 810 -270Z"/>
</svg>