<svg xmlns="http://www.w3.org/2000/svg" viewBox="0 -1000 1000 1000">
	<path fill="#000000" d="M321 -477C364 -442 387 -407 394 -386C405 -354 408 -351 419 -351C433 -351 446 -371 446 -392C446 -437 372 -469 327 -486ZM893 -757L847 -693H522V-791L555 -810C560 -813 563 -816 563 -818C563 -820 559 -823 552 -826L472 -863C474 -828 475 -804 475 -765V-693H99C76 -693 50 -695 26 -697L54 -661C70 -667 100 -671 121 -671H475V-540H214L154 -588C156 -551 158 -483 158 -442V-166C158 -109 157 -19 155 40V52C155 67 156 72 163 72C167 72 174 70 183 66C204 57 207 53 207 40V32C204 -13 203 -88 203 -164V-518H808V-42C808 -21 806 -8 769 -8C744 -8 701 -14 631 -28L630 -14C736 14 757 33 763 63C764 70 766 73 770 73C772 73 775 72 779 70C846 43 855 21 855 -39V-500L887 -522C894 -527 897 -530 897 -534C897 -537 894 -540 887 -544L822 -587L791 -540H522V-671H962C969 -671 973 -672 973 -675C973 -677 970 -681 964 -687ZM704 -236L668 -186H518V-301H731C738 -301 742 -302 742 -304C742 -306 739 -310 735 -314L677 -371L643 -323H531C626 -436 632 -441 665 -451C671 -453 674 -454 674 -457C674 -459 671 -462 665 -465L603 -498C583 -453 543 -376 512 -323H321C300 -323 277 -325 255 -327L280 -291C295 -297 322 -301 341 -301H472V-186H293C272 -186 249 -188 227 -190L252 -154C267 -160 294 -164 313 -164H472C472 -110 471 -32 469 20V29C469 44 471 50 478 50C482 50 489 48 498 44C518 36 522 32 522 18V12C519 -30 518 -53 518 -164H756C763 -164 766 -165 766 -168C766 -170 764 -174 759 -179Z"/>
</svg>