<svg xmlns="http://www.w3.org/2000/svg" viewBox="0 -1000 1000 1000">
	<path fill="#000000" d="M890 -222L853 -164H533V-292H744V-250C744 -243 745 -240 749 -240C753 -240 796 -255 796 -269C796 -274 790 -330 790 -342V-419L818 -438C824 -442 826 -444 826 -447C826 -450 824 -453 819 -456L760 -498L733 -459H269V-564H727V-539C727 -533 728 -530 733 -530C736 -530 742 -532 752 -536C773 -546 777 -550 777 -559C777 -570 774 -621 774 -631V-698L801 -718C806 -722 809 -725 809 -727C809 -730 806 -733 801 -737L740 -783L709 -739H453C495 -797 508 -807 530 -812C536 -814 540 -816 540 -818C540 -820 537 -823 531 -826L465 -861C453 -809 444 -778 428 -739H279L219 -786C221 -755 222 -716 222 -683V-406C222 -349 221 -323 218 -264V-251C218 -236 220 -231 226 -231C231 -231 238 -233 247 -238C268 -248 269 -251 269 -263V-292H486V-164H93C72 -164 49 -166 27 -168L52 -132C67 -138 94 -142 113 -142H486C486 -86 485 11 483 64V73C483 87 484 93 490 93C495 93 501 89 512 83C533 71 537 66 537 54V48C534 6 533 -72 533 -142H955C964 -142 968 -143 968 -146C968 -149 965 -153 958 -159ZM269 -586V-717H727V-586ZM269 -314V-437H744V-314Z"/>
</svg>