<svg xmlns="http://www.w3.org/2000/svg" viewBox="0 -1000 1000 1000">
	<path fill="#000000" d="M964 -470C860 -469 734 -506 671 -547C724 -591 771 -637 806 -683C821 -703 833 -709 853 -711C860 -712 863 -713 863 -715C863 -717 861 -720 858 -724L803 -780L761 -739H550C556 -747 562 -755 568 -764C584 -786 590 -790 609 -796C618 -799 622 -801 622 -804C622 -807 619 -810 612 -813L552 -844C489 -709 439 -633 352 -524L362 -518C414 -567 451 -606 514 -691C543 -635 577 -589 619 -549C549 -492 463 -438 370 -393L378 -377C471 -410 565 -464 646 -526C739 -451 874 -411 879 -411C883 -411 886 -413 887 -416C898 -440 911 -451 964 -460ZM766 -717C740 -668 698 -617 642 -569C600 -604 560 -653 529 -711C531 -713 533 -715 534 -717ZM325 -820L287 -774H156L89 -828C91 -791 93 -723 93 -682V-174C93 -117 92 -27 90 32V42C90 57 92 63 98 63C102 63 108 61 117 57C138 48 141 45 141 32V24C138 -21 138 -83 138 -173V-752H298L202 -532C288 -435 300 -381 300 -320C300 -271 288 -245 233 -245C213 -245 186 -249 151 -256L149 -239C223 -222 241 -212 249 -184C251 -177 254 -173 258 -173C267 -173 348 -224 348 -301C348 -371 333 -427 228 -533L302 -666C323 -705 351 -736 376 -742C381 -743 385 -745 385 -747C385 -750 383 -753 378 -758ZM865 -208L824 -155H666V-312H885C891 -312 894 -313 894 -316C894 -317 892 -320 889 -323L827 -385L789 -334H666V-407L691 -423C695 -425 697 -427 697 -429C697 -431 694 -433 690 -435L616 -468C618 -435 620 -375 620 -334H448C425 -334 406 -336 381 -338L409 -301C426 -308 445 -312 470 -312H620V-155H446L480 -224L505 -235C508 -237 510 -238 510 -240C510 -242 509 -244 506 -246L454 -288L416 -189C410 -173 383 -154 357 -147L415 -105C419 -103 421 -101 423 -101C425 -101 427 -103 428 -105L450 -132H620C620 -77 620 -12 617 43V57C617 70 619 75 625 75C630 75 637 73 646 69C667 60 670 56 670 43V35C667 -8 666 -61 666 -132H923C929 -132 931 -133 931 -136C931 -138 930 -140 926 -144Z"/>
</svg>