<svg xmlns="http://www.w3.org/2000/svg" viewBox="0 -1000 1000 1000">
	<path fill="#000000" d="M604 -850C543 -724 445 -587 328 -462L339 -452C461 -555 539 -656 627 -776C631 -781 638 -786 646 -789C702 -648 772 -575 860 -509C865 -506 868 -504 871 -504C875 -504 879 -507 884 -513C896 -528 917 -534 966 -534L967 -545C844 -576 725 -657 662 -794C673 -797 678 -800 678 -803C678 -806 675 -809 667 -814ZM332 -814L295 -770H166L99 -825C101 -788 103 -720 103 -679V-171C103 -114 102 -24 100 35V45C100 62 102 69 109 69C113 69 120 66 130 61C149 52 152 48 152 35V27C149 -18 148 -57 148 -169V-748H303L211 -529C292 -444 317 -370 317 -324C317 -271 292 -244 236 -244C216 -244 191 -247 160 -253L159 -239C217 -227 247 -204 250 -180C251 -170 253 -165 258 -165C269 -165 364 -213 364 -303C364 -368 350 -429 232 -530L332 -693C354 -729 357 -731 395 -740C401 -742 404 -743 404 -746C404 -748 402 -751 397 -755ZM861 -372L818 -320H652V-468H801C813 -468 818 -469 818 -473C818 -477 814 -482 805 -490L756 -539L721 -490H509C486 -490 461 -492 436 -494L464 -457C481 -464 510 -468 531 -468H605V-320H448C425 -320 400 -322 375 -324L403 -287C420 -294 449 -298 470 -298H605V-34C605 -12 601 1 562 1C539 1 505 -3 452 -13L451 0C532 21 564 44 570 73C572 82 573 86 578 86C581 86 586 83 593 79C643 50 652 32 652 -23V-298H908C919 -298 924 -299 924 -303C924 -307 920 -312 912 -320ZM707 -210C812 -129 835 -82 867 -15C877 7 883 15 894 15C906 15 923 -6 923 -35C923 -82 878 -130 715 -220ZM464 -248C435 -170 338 -29 263 48L274 56C331 10 429 -96 486 -171C491 -178 504 -186 517 -189C527 -191 532 -194 532 -197C532 -200 529 -203 522 -208Z"/>
</svg>