<svg xmlns="http://www.w3.org/2000/svg" viewBox="0 -1000 1000 1000">
	<path fill="#000000" d="M815 -325L786 -279H513L451 -323C453 -292 454 -244 454 -220V-80C454 -72 451 31 451 52C451 69 453 75 461 75C466 75 473 73 482 70C499 64 501 61 501 45V-9H807V64C807 72 808 76 814 76C818 76 824 75 833 71C854 62 858 59 858 45V37C855 -8 854 -37 854 -71V-238L882 -258C887 -261 889 -264 889 -267C889 -270 887 -273 882 -277ZM501 -31V-257H807V-31ZM577 -834C621 -793 637 -745 639 -716C640 -697 649 -689 662 -689C681 -689 695 -710 695 -734C695 -740 695 -746 693 -752C685 -778 654 -811 583 -843ZM875 -737L832 -682H455C433 -682 408 -684 385 -686L412 -650C427 -656 456 -660 476 -660H927C935 -660 939 -661 939 -664C939 -667 936 -672 930 -678ZM491 -620C530 -568 543 -507 543 -476C543 -452 554 -444 566 -444C583 -444 597 -466 597 -494C597 -499 597 -504 596 -509C591 -536 570 -572 498 -630ZM889 -480L848 -427H715L793 -545C806 -564 823 -579 846 -585C852 -586 855 -588 855 -590C855 -593 851 -595 845 -599L784 -634C765 -584 723 -487 693 -427H426C404 -427 379 -429 356 -431L383 -395C398 -401 427 -405 447 -405H937C947 -405 953 -407 953 -411C953 -415 949 -420 942 -427ZM333 -815L300 -771H180L114 -818C116 -781 118 -713 118 -672V-159C118 -102 115 -10 112 49C112 54 111 59 111 63C111 73 113 78 119 78C123 78 129 76 138 72C161 62 163 59 163 45V-749H310L232 -508C315 -401 340 -348 340 -305C340 -292 338 -281 335 -269C326 -238 306 -213 241 -213C223 -213 201 -215 175 -219L174 -201C234 -189 251 -175 261 -148C264 -141 266 -138 269 -138C273 -138 364 -187 380 -245C385 -264 388 -279 388 -295C388 -343 358 -390 256 -513L337 -687C353 -721 365 -732 395 -742C400 -744 403 -746 403 -748C403 -751 400 -754 396 -758Z"/>
</svg>