<svg xmlns="http://www.w3.org/2000/svg" viewBox="0 -1000 1000 1000">
	<path fill="#000000" d="M976 -31C827 -49 720 -182 692 -301H827V-258C827 -249 828 -245 833 -245C836 -245 879 -259 879 -273V-275C875 -308 873 -363 873 -417V-532L906 -549C910 -551 912 -553 912 -555C912 -558 910 -560 906 -563L843 -614L815 -576H661V-671H962C968 -671 971 -672 971 -674C971 -676 970 -678 967 -681L898 -748L852 -693H661V-789L690 -807C694 -810 696 -812 696 -813C696 -815 694 -817 690 -819L615 -860C617 -822 617 -769 617 -693H412C394 -693 374 -695 354 -697L379 -661C393 -667 413 -671 430 -671H617V-576H460L407 -611C409 -591 410 -555 410 -523V-400C410 -378 406 -279 406 -258C406 -251 407 -248 413 -248C416 -248 422 -250 431 -254C455 -265 456 -269 456 -280V-301H563C499 -180 393 -61 245 40L251 51C415 -31 516 -134 617 -288V-107C617 -60 615 -1 612 57C612 62 611 66 611 69C611 78 613 82 619 82C623 82 631 79 644 73C658 66 663 62 663 48C663 24 661 -83 661 -105V-301H675C699 -164 758 -68 876 14C879 16 881 16 883 16C885 16 887 15 889 12C898 -4 922 -21 976 -18ZM661 -455V-554H827V-455ZM456 -455V-554H617V-455ZM661 -323V-433H827V-323ZM456 -323V-433H617V-323ZM329 -804L299 -768H172L113 -832C115 -795 116 -759 116 -685V-164C116 -107 115 -17 113 42V55C113 69 114 74 120 74C124 74 130 72 138 68C158 59 162 55 162 41V35C159 -10 159 -86 159 -162V-746H303L219 -512C292 -431 313 -350 313 -300C313 -260 301 -239 246 -239C226 -239 201 -242 169 -247L167 -234C242 -219 255 -200 258 -173C259 -166 261 -164 264 -164C265 -164 266 -164 268 -165C338 -191 359 -229 359 -290C359 -370 332 -422 238 -517L342 -710C352 -729 360 -735 386 -742C391 -744 394 -745 394 -747C394 -749 392 -752 388 -755Z"/>
</svg>