<svg xmlns="http://www.w3.org/2000/svg" viewBox="0 -1000 1000 1000">
	<path fill="#000000" d="M959 -501C833 -509 745 -531 674 -568C711 -597 746 -628 783 -664C805 -686 822 -696 835 -699C845 -701 850 -703 850 -707C850 -709 847 -713 841 -717L781 -762L746 -728H518C532 -744 545 -762 560 -781C592 -796 596 -798 596 -802C596 -805 593 -808 588 -810L528 -841C476 -734 421 -651 340 -549L350 -538C396 -581 441 -631 496 -700C531 -645 566 -602 609 -568C534 -513 443 -468 316 -424L323 -409C462 -445 557 -488 641 -545C697 -507 768 -478 869 -444C871 -443 873 -443 874 -443C877 -443 880 -445 882 -448C894 -469 905 -478 959 -489ZM754 -706C716 -663 679 -625 637 -590C592 -621 554 -659 516 -706ZM300 -808L266 -769H145L84 -815C86 -778 88 -710 88 -669V-166C88 -109 87 -19 85 40V49C85 66 87 72 93 72C97 72 103 70 110 66C131 55 135 50 135 38V32C132 -13 131 -88 131 -164V-227C192 -217 216 -202 222 -176C224 -169 227 -166 231 -166C237 -166 332 -212 332 -304C332 -361 296 -455 219 -525L301 -687C313 -710 329 -727 361 -738C367 -740 370 -742 370 -745C370 -747 368 -750 363 -754ZM131 -748H276L197 -523C268 -444 291 -355 287 -313C282 -260 264 -237 202 -237C183 -237 159 -239 131 -243ZM765 -467L732 -421H496C475 -421 452 -423 430 -425L455 -390C470 -396 497 -400 516 -400H808C817 -400 822 -402 822 -406C822 -409 818 -414 812 -420ZM868 -48L823 5H652V-129H846C855 -129 859 -131 859 -135C859 -138 856 -143 850 -149L804 -197L763 -150H652V-251H877C886 -251 891 -253 891 -258C891 -262 888 -267 881 -273L834 -317L794 -273H652V-343C673 -360 675 -362 675 -365C675 -368 673 -369 669 -371L605 -398C608 -346 608 -330 608 -273H458C468 -287 477 -302 487 -318C511 -329 514 -331 514 -334C514 -336 511 -338 507 -340L453 -363C426 -288 390 -212 327 -119L344 -112C383 -162 414 -205 444 -251H608V-150H479C458 -150 435 -152 413 -154L438 -119C453 -125 480 -129 499 -129H608V5H350C329 5 306 3 284 1L309 36C324 30 351 26 370 26H916C925 26 930 24 930 20C930 17 927 12 920 5Z"/>
</svg>