<svg xmlns="http://www.w3.org/2000/svg" viewBox="0 -1000 1000 1000">
	<path fill="#000000" d="M847 -549L820 -512H471L413 -561C416 -531 416 -508 416 -484V-205C416 -185 412 -99 412 -82C412 -77 413 -75 416 -75C420 -75 428 -78 441 -83C458 -90 460 -95 460 -108V-136H835C835 -105 835 -102 841 -102C845 -102 851 -104 861 -108C880 -116 883 -119 883 -126C883 -145 880 -242 880 -248V-471L908 -487C913 -490 915 -492 915 -495C915 -498 912 -501 906 -505ZM460 -278V-373H835V-278ZM460 -395V-490H835V-395ZM460 -158V-256H835V-158ZM804 -813L779 -774H523L463 -824C466 -794 466 -771 466 -747V-631C466 -618 463 -549 463 -547C463 -541 464 -539 469 -539C474 -539 480 -541 490 -545C507 -552 510 -557 510 -570V-610H794V-575C794 -566 795 -562 800 -562C804 -562 810 -564 820 -568C837 -575 841 -578 841 -586C841 -586 839 -624 839 -631V-740L865 -756C870 -759 872 -761 872 -763C872 -766 870 -768 865 -771ZM510 -632V-752H794V-632ZM330 -820L295 -778H158L102 -833C104 -796 106 -728 106 -687V-156C106 -99 105 -9 103 50V60C103 76 105 81 111 81C115 81 121 79 129 76C149 67 152 64 152 51C152 32 150 -48 150 -65V-756H299L209 -523C298 -414 314 -348 314 -304C314 -258 293 -240 235 -240C216 -240 194 -242 167 -245L164 -230C226 -217 245 -203 252 -172C253 -167 255 -164 258 -164C259 -164 261 -165 263 -166C324 -194 362 -230 362 -291C362 -346 327 -426 229 -529L318 -690C335 -720 357 -736 385 -744C391 -746 394 -748 394 -750C394 -752 393 -754 390 -757ZM542 -115C471 -55 392 4 254 73L260 85C376 48 461 2 538 -43C550 -50 568 -56 598 -57C606 -58 610 -59 610 -61C610 -63 607 -65 603 -69ZM666 -74C818 -16 876 20 910 51C924 63 932 68 940 68C949 68 961 62 961 42C961 -30 843 -60 669 -88Z"/>
</svg>