<svg xmlns="http://www.w3.org/2000/svg" viewBox="0 -1000 1000 1000">
	<path fill="#000000" d="M883 -526L843 -470H494V-659H853C861 -659 865 -660 865 -663C865 -665 861 -669 855 -675L790 -734L752 -680H494V-783L524 -801C528 -803 531 -806 531 -809C531 -812 528 -814 523 -817L443 -856C445 -819 447 -751 447 -710V-470H111C88 -470 63 -472 38 -474L66 -437C83 -444 112 -448 133 -448H436C437 -412 439 -356 439 -323V-133C439 -82 438 -1 436 52V60C436 75 438 82 446 82C449 82 490 69 490 52V49C487 6 485 -49 485 -133V-331C644 -274 736 -209 777 -161C799 -135 804 -133 814 -133C823 -133 832 -149 832 -171C832 -186 827 -205 814 -222C792 -251 686 -302 485 -348V-391L509 -409C513 -412 515 -414 515 -417C515 -419 512 -422 507 -424L458 -448H946C955 -448 959 -449 959 -453C959 -455 956 -460 950 -465Z"/>
</svg>