<svg xmlns="http://www.w3.org/2000/svg" viewBox="0 -1000 1000 1000">
	<path fill="#000000" d="M824 -450L799 -413H447C424 -413 399 -415 374 -417L401 -384C418 -391 447 -395 468 -395H818V-318H476C453 -318 428 -320 403 -322L429 -289C446 -296 475 -300 496 -300H818V-226H469C446 -226 421 -228 396 -230L422 -197C439 -204 468 -208 489 -208H818C818 -173 818 -169 826 -169C836 -169 865 -179 865 -193C865 -195 864 -197 864 -200C861 -220 860 -247 860 -284V-384C887 -400 890 -402 890 -405C890 -407 888 -410 883 -413ZM582 -184C616 -145 627 -117 627 -87C627 -68 634 -60 643 -60C661 -60 677 -76 677 -105C677 -126 658 -151 590 -192ZM851 -835C757 -811 606 -787 388 -759V-747C470 -746 531 -749 789 -776C809 -778 825 -779 840 -779C858 -779 872 -777 885 -773C888 -772 890 -772 891 -772C894 -772 895 -772 895 -774C895 -775 894 -777 892 -780ZM564 -733C591 -712 613 -663 615 -635C616 -616 619 -612 629 -612C647 -612 663 -630 663 -648C663 -658 657 -688 575 -742ZM405 -712C436 -688 452 -664 457 -629C460 -610 466 -607 474 -607C491 -607 505 -626 505 -643C505 -655 499 -689 412 -723ZM897 -544L861 -499H654V-581H884C894 -581 899 -583 899 -586C899 -589 897 -593 892 -598L849 -643L811 -600H727L814 -693C822 -702 839 -710 857 -712C861 -713 862 -714 862 -715C862 -717 861 -719 858 -720L799 -750L708 -600H462C439 -600 414 -602 389 -604L416 -570C433 -577 462 -581 483 -581H612V-499H387C364 -499 339 -501 314 -503L341 -469C358 -476 387 -480 408 -480H938C948 -480 953 -482 953 -485C953 -488 951 -492 946 -497ZM306 -816L278 -774H171L113 -825C115 -789 117 -721 117 -681V-153C117 -97 115 0 113 38V50C113 64 115 70 122 70C126 70 132 68 140 64C158 55 162 51 162 37V30C160 -13 159 -76 159 -151V-756H287L222 -512C280 -429 307 -367 307 -318C307 -270 296 -247 250 -247C230 -247 204 -251 170 -259L167 -243C237 -223 247 -214 251 -185C252 -179 253 -176 257 -176C258 -176 260 -176 262 -177C328 -202 353 -238 353 -297C353 -362 320 -427 240 -510L333 -732C335 -737 340 -742 350 -745C363 -749 370 -752 370 -756C370 -760 366 -764 360 -769ZM799 -154C841 -130 888 -61 898 -21C904 3 909 8 918 8C939 8 953 -9 953 -32C953 -37 952 -43 951 -48C945 -72 907 -112 806 -165ZM359 -177C359 -116 334 -65 291 -28C277 -17 272 -7 272 0C272 12 290 23 302 23C313 23 326 17 343 3C363 -13 376 -64 376 -125C376 -141 375 -158 373 -175ZM764 -130C759 -17 753 -7 713 -4C683 -2 642 -1 606 -1C513 -1 510 -4 510 -38V-126C521 -133 539 -144 539 -147C539 -149 536 -151 532 -153L467 -185C469 -169 469 -136 469 -110V-18C469 21 489 33 535 34C575 34 610 35 642 35C778 35 785 35 810 -12C812 -15 812 -17 812 -19C812 -21 811 -22 808 -22C788 -26 781 -36 779 -130Z"/>
</svg>