<svg xmlns="http://www.w3.org/2000/svg" viewBox="0 -1000 1000 1000">
	<path fill="#000000" d="M891 -169C887 -21 876 -5 845 2C811 9 735 12 665 12C527 12 513 11 513 -41V-118H743V-91C743 -86 744 -82 748 -82C753 -82 760 -85 772 -90C792 -99 797 -103 797 -115C797 -117 796 -120 796 -123C792 -153 790 -188 790 -225V-353L827 -374C830 -376 832 -378 832 -379C832 -381 830 -382 827 -384L752 -426L724 -384H250L186 -433C188 -418 189 -395 189 -384V-173C189 -156 184 -79 184 -65C184 -56 185 -51 191 -51C196 -51 203 -55 214 -61C232 -71 235 -75 235 -86V-118H467V-25C467 44 489 54 640 54C720 54 818 50 849 47C914 40 923 34 945 -2C948 -6 949 -10 949 -14C949 -19 946 -24 941 -26C917 -39 907 -56 908 -169ZM513 -267V-362H743V-267ZM235 -267V-362H467V-267ZM513 -140V-245H743V-140ZM235 -140V-245H467V-140ZM898 -723L861 -680H515V-766H856C863 -766 866 -767 866 -769C866 -771 864 -774 859 -779L795 -839L746 -788H204C185 -788 167 -789 144 -790L168 -759C178 -764 202 -766 219 -766H468V-680H160C160 -696 159 -713 157 -731H141C141 -667 118 -623 76 -592C63 -583 57 -573 57 -565C57 -552 74 -538 94 -538C120 -538 160 -568 160 -658H468V-574C468 -568 465 -463 465 -443C465 -426 467 -420 474 -420C479 -420 486 -422 495 -426C516 -435 519 -439 519 -452V-460C516 -505 515 -539 515 -572V-658H870L811 -568L822 -561C891 -629 911 -641 954 -643C962 -644 966 -645 966 -648C966 -650 964 -653 960 -657ZM789 -583H588V-561H789ZM409 -581H187V-559H409ZM787 -490H585V-468H787ZM405 -489H183V-467H405Z"/>
</svg>