<svg xmlns="http://www.w3.org/2000/svg" viewBox="0 -1000 1000 1000">
	<path fill="#000000" d="M878 -738L851 -699H529V-771H825C832 -771 836 -774 836 -779C836 -783 834 -787 829 -792L772 -844L735 -793H249C228 -793 205 -795 183 -797L208 -761C223 -767 250 -771 269 -771H481V-699H164C164 -712 163 -727 161 -742H149C144 -677 118 -637 84 -607C72 -597 68 -590 68 -582C68 -561 79 -558 91 -558C139 -558 163 -606 164 -677H481V-609C481 -591 480 -514 480 -498C480 -485 482 -479 489 -479C492 -479 531 -492 531 -515C531 -529 529 -594 529 -607V-677H858L810 -593L823 -586C877 -651 912 -668 937 -668C944 -668 947 -670 947 -673C947 -675 945 -679 940 -683ZM773 -615H588V-593H773ZM893 -177C882 -15 876 -2 781 1C704 3 560 5 460 5C300 5 269 1 269 -39V-158H520C520 -118 520 -117 527 -117C528 -117 567 -130 567 -150C567 -163 565 -219 565 -231V-287C589 -303 592 -305 592 -309C592 -312 589 -315 585 -318L529 -355L508 -316H274L221 -340C223 -309 223 -276 223 -232V-44C223 16 266 41 330 42C384 43 458 44 536 44C636 44 741 43 812 40C873 37 910 28 940 -27C942 -30 943 -32 943 -35C943 -38 940 -41 935 -44C913 -56 908 -80 908 -177ZM269 -180V-294H520V-180ZM424 -614H226V-592H424ZM779 -532H583V-510H779ZM422 -531H222V-509H422ZM743 -465L720 -425H291C307 -444 323 -454 334 -456C341 -457 345 -460 345 -464C345 -466 344 -469 340 -471L291 -505C225 -396 149 -306 38 -183L48 -172C131 -243 198 -312 273 -403H733C734 -321 733 -260 731 -206C729 -155 720 -136 674 -136C655 -136 631 -140 598 -145L596 -130C666 -114 679 -108 689 -75C690 -72 693 -70 696 -70C699 -70 703 -71 708 -74C765 -106 771 -118 774 -195C776 -249 777 -315 777 -384L806 -405C809 -407 810 -410 810 -413C810 -416 808 -420 804 -423Z"/>
</svg>