<svg xmlns="http://www.w3.org/2000/svg" viewBox="0 -1000 1000 1000">
	<path fill="#000000" d="M870 -730L846 -700H531V-774H843C850 -774 853 -775 853 -778C853 -780 851 -783 847 -788L789 -848L749 -795H237C216 -795 193 -798 171 -800L196 -764C211 -770 238 -774 257 -774H485V-700H174C174 -714 173 -729 171 -743L156 -742C156 -692 128 -641 95 -619C81 -609 73 -593 73 -581C73 -567 85 -560 96 -560C104 -560 114 -563 125 -569C149 -582 168 -627 172 -679H485V-608C485 -568 484 -536 483 -511C483 -490 485 -481 493 -481C498 -481 503 -483 511 -487C530 -497 533 -500 533 -517C531 -541 531 -568 531 -606V-679H854L809 -593L821 -587C876 -657 902 -668 934 -670C942 -671 946 -672 946 -675C946 -677 943 -680 937 -685ZM776 -607H611V-586H776ZM418 -606H243V-585H418ZM777 -522H610V-501H777ZM415 -521H243V-500H415ZM749 -378L711 -330H329C308 -330 285 -332 263 -335L288 -299C303 -306 329 -309 348 -309H796C804 -309 808 -310 808 -313C808 -316 806 -320 801 -325ZM956 -10C812 -16 707 -45 626 -98C723 -143 759 -156 783 -156C785 -156 796 -155 798 -155C803 -155 805 -156 805 -158C805 -160 803 -163 798 -168L748 -208C702 -170 667 -143 611 -108C568 -138 531 -176 500 -219H930C939 -219 943 -220 943 -223C943 -225 941 -229 936 -234L880 -292L839 -240H216C222 -289 225 -346 225 -412H898C904 -412 907 -413 907 -415C907 -417 905 -420 901 -424L843 -482L803 -433H233L177 -473C180 -427 181 -391 181 -361C181 -134 119 -12 44 82L54 91C149 -3 194 -83 213 -219H324V-57C324 -4 320 0 282 26L321 72C324 75 326 76 328 76C331 76 333 74 336 71C356 44 391 19 550 -55L545 -67L370 -6V-219H482C563 -80 656 -16 858 48C860 48 862 49 863 49C866 49 868 48 869 45C880 22 889 8 956 -1Z"/>
</svg>