<svg xmlns="http://www.w3.org/2000/svg" viewBox="0 -1000 1000 1000">
	<path fill="#000000" d="M817 -477L778 -427H189C168 -427 145 -429 123 -431L148 -397C163 -403 190 -407 209 -407H864C873 -407 878 -409 878 -413C878 -416 874 -421 868 -427ZM307 -399C347 -371 362 -339 368 -314C372 -297 377 -293 388 -293C398 -293 414 -305 414 -329C414 -376 335 -398 312 -404ZM897 -342L854 -291H590C665 -354 677 -359 693 -361C700 -362 703 -363 703 -366C703 -368 701 -370 697 -373L650 -405C630 -372 609 -342 571 -291H94C73 -291 50 -293 28 -295L53 -261C68 -267 95 -271 114 -271H421C400 -238 378 -207 351 -176H143C122 -176 99 -178 77 -180L102 -146C117 -152 144 -156 163 -156H333C313 -132 290 -107 264 -81C358 -72 452 -56 516 -39C430 16 296 48 74 72L76 84C303 89 492 32 568 -24C659 4 744 40 780 61C805 76 819 82 829 82C842 82 847 69 847 57C847 45 842 31 831 23C810 7 750 -13 596 -49C632 -82 659 -117 683 -156H890C899 -156 904 -157 904 -161C904 -164 901 -169 894 -176L840 -229L799 -176H402L448 -224L471 -231C477 -233 479 -234 479 -236C479 -238 477 -241 472 -245L438 -271H946C955 -271 959 -273 959 -277C959 -280 956 -285 950 -291ZM383 -156H625C604 -119 580 -86 546 -60C471 -77 393 -88 324 -94ZM895 -742L863 -700H533V-769H819C828 -769 833 -771 833 -774C833 -778 830 -782 823 -789L769 -845L727 -789H253C232 -789 209 -791 187 -793L212 -759C227 -765 254 -769 273 -769H487V-700H182C181 -710 181 -721 180 -733H166C167 -683 151 -643 104 -607C85 -593 77 -583 77 -571C77 -558 85 -551 100 -551C129 -551 176 -581 181 -680H487C487 -660 486 -573 486 -555C486 -539 488 -533 494 -533C499 -533 505 -536 514 -540C531 -548 535 -551 535 -564C535 -579 533 -645 533 -659V-680H870L816 -590L828 -584C899 -661 920 -673 949 -675C955 -676 958 -677 958 -680C958 -682 956 -685 952 -689ZM435 -616H244V-596H435ZM779 -615H593V-595H779ZM433 -533H243V-513H433ZM780 -531H597V-511H780ZM460 -511C482 -495 498 -467 502 -451C507 -433 511 -429 520 -429C536 -429 549 -443 549 -459C549 -478 536 -492 465 -520Z"/>
</svg>