<svg xmlns="http://www.w3.org/2000/svg" viewBox="0 -1000 1000 1000">
	<path fill="#000000" d="M815 -420L793 -385H522L460 -428C462 -391 464 -323 464 -282V-86C464 -78 461 33 461 55C461 72 463 79 469 79C473 79 478 77 486 72C505 61 508 56 508 42V-138H808V-18C808 3 804 14 765 14C742 14 707 10 653 2L649 17C751 44 767 55 775 85C777 91 779 94 783 94C784 94 787 93 789 92C849 59 851 52 851 1V-340L881 -363C885 -366 887 -369 887 -371C887 -373 885 -375 881 -378ZM508 -272V-364H808V-272ZM508 -159V-251H808V-159ZM160 -822C204 -762 215 -717 218 -686C221 -652 228 -645 242 -645C260 -645 278 -669 278 -696C278 -716 267 -762 170 -830ZM901 -534L866 -483H682V-583H891C899 -583 903 -584 903 -588C903 -591 900 -595 893 -602L841 -654L802 -603H682V-705H936C944 -705 949 -707 949 -711C949 -713 946 -718 940 -723L880 -779L842 -726H682V-793L714 -811C718 -814 720 -816 720 -818C720 -820 718 -822 714 -824L634 -861C636 -828 638 -768 638 -726H466C443 -726 418 -728 393 -730L421 -694C438 -701 467 -705 488 -705H638V-603H523C500 -603 475 -605 450 -607L478 -572C495 -579 524 -583 545 -583H638V-483H433C410 -483 385 -485 360 -487L388 -451C405 -458 434 -462 455 -462H958C967 -462 971 -464 971 -467C971 -470 968 -474 962 -480ZM371 -673L333 -619H94C71 -619 46 -621 21 -623L49 -587C66 -594 92 -598 116 -598H421C429 -598 434 -599 434 -603C434 -605 431 -610 425 -616ZM89 -526C136 -420 148 -364 148 -298C148 -264 156 -244 173 -244C188 -244 203 -257 203 -295C203 -350 173 -433 99 -532ZM423 -234L247 -185C273 -261 319 -400 342 -474C350 -498 357 -506 378 -513C384 -515 387 -518 387 -521C387 -523 385 -525 381 -527L312 -560C297 -471 250 -268 224 -178L35 -125L75 -74C78 -70 80 -68 82 -68C84 -68 87 -70 89 -74C100 -91 106 -97 208 -135L428 -218Z"/>
</svg>