<svg xmlns="http://www.w3.org/2000/svg" viewBox="0 -1000 1000 1000">
	<path fill="#000000" d="M910 -360L871 -317H239C222 -317 205 -318 184 -320L207 -289C223 -294 241 -298 261 -298H487L465 -221H313L261 -266C263 -239 264 -210 264 -173V-9C264 3 261 58 261 69C261 74 262 76 265 76C268 76 273 74 281 70C298 63 299 64 299 52V29H818V65C818 72 819 76 823 76C826 76 861 67 861 51V45C858 20 857 0 857 -26V-192L886 -210C888 -211 888 -212 888 -213C888 -213 888 -214 887 -215L826 -256L803 -221H487L541 -298H968C971 -298 972 -299 972 -301C972 -302 971 -304 969 -305ZM466 -152V-202H635V-152ZM672 10V-202H818V10ZM466 -74V-136H635V-74ZM299 10V-202H429V10ZM466 10V-57H635V10ZM518 -584L504 -561H286L242 -587C244 -569 244 -553 244 -528V-406C244 -396 242 -353 242 -344C242 -341 243 -340 245 -340C250 -340 280 -347 280 -359V-428H511V-404C511 -391 509 -384 486 -384C471 -384 448 -386 413 -392L411 -383C468 -367 478 -360 485 -337C486 -334 487 -332 489 -332C490 -332 490 -332 491 -333C541 -357 548 -373 548 -402V-538C551 -539 566 -548 566 -549C566 -550 565 -551 564 -552ZM280 -504V-544H511V-504ZM280 -444V-488H511V-444ZM502 -756L481 -730H320L267 -764C268 -747 269 -732 269 -710V-640C269 -626 267 -603 267 -589C267 -586 268 -584 272 -584C280 -584 300 -588 303 -595H491C492 -592 493 -591 496 -591C502 -591 530 -597 530 -610C530 -612 528 -643 528 -649V-702L554 -717C556 -718 557 -719 557 -720C557 -721 556 -722 554 -723ZM894 -832L857 -789H196L143 -834C144 -799 144 -761 144 -718C144 -249 140 -119 26 47L33 53C163 -93 186 -204 185 -772H948C952 -772 953 -773 953 -774C953 -776 952 -778 949 -781ZM304 -671V-713H491V-671ZM304 -612V-654H491V-612ZM785 -732C815 -708 832 -683 839 -669C847 -652 853 -645 861 -645C873 -645 882 -658 882 -674C882 -686 882 -721 788 -737ZM897 -639L863 -601H718C720 -629 720 -662 722 -697C722 -705 728 -712 748 -723C751 -724 752 -725 752 -726C752 -727 750 -728 747 -730L682 -760C682 -697 681 -643 679 -601H619C601 -601 585 -602 563 -604L587 -576C601 -581 621 -584 641 -584H678C670 -437 640 -400 547 -337L552 -330C675 -394 704 -432 716 -584H741C761 -490 790 -438 864 -369C867 -367 869 -365 871 -365C872 -365 874 -366 875 -368C887 -383 894 -388 941 -388L943 -397C837 -427 789 -485 755 -584H944C949 -584 951 -585 951 -587C951 -588 949 -591 946 -594Z"/>
</svg>