<svg xmlns="http://www.w3.org/2000/svg" viewBox="0 -1000 1000 1000">
	<path fill="#000000" d="M444 -741L411 -695H381V-781C405 -798 408 -800 408 -804C408 -807 404 -810 398 -812L333 -839C335 -802 336 -771 336 -742V-695H197V-783C208 -791 226 -804 226 -807C226 -809 224 -811 220 -813L150 -844C152 -816 153 -773 153 -752V-695H103C80 -695 55 -697 30 -699L58 -662C85 -673 117 -673 153 -673V-635C153 -615 151 -529 151 -511C151 -503 153 -499 160 -499C171 -499 197 -507 197 -524V-552H243V-442H149L103 -474C105 -446 106 -413 106 -392V-312C106 -301 104 -253 104 -243C104 -230 106 -225 112 -225C116 -225 121 -226 127 -229C149 -239 149 -242 149 -265H243V-147H101C78 -147 53 -149 28 -151L56 -114C73 -121 102 -125 123 -125H243V-72C243 -50 241 49 241 69C241 85 243 93 251 93C253 93 292 81 292 59V55C289 15 288 -21 288 -70V-125H475C482 -125 486 -127 486 -131C486 -135 483 -139 478 -144L421 -196L386 -147H288V-265H381C381 -228 381 -224 388 -224C392 -224 427 -234 427 -249C427 -257 424 -312 424 -324V-409C456 -429 456 -429 456 -434C456 -437 454 -440 448 -443L392 -479L372 -442H288V-552H336C336 -517 336 -513 345 -513C355 -513 384 -521 384 -540V-545C381 -578 381 -628 381 -673H494C501 -673 506 -675 506 -679C506 -682 503 -686 497 -692ZM960 -294C971 -294 977 -296 977 -300C977 -303 973 -308 966 -314L912 -362L879 -316H851V-579L883 -601C888 -604 890 -607 890 -610C890 -613 888 -616 882 -619L817 -662L788 -619H699C701 -671 702 -725 703 -784C733 -802 736 -804 736 -808C736 -810 734 -813 729 -815L656 -851C656 -775 655 -692 654 -619H542L492 -654C493 -632 495 -581 495 -556V-316C475 -317 455 -318 434 -320L462 -283C479 -290 508 -294 529 -294H640C623 -113 510 6 363 89L368 100C564 13 660 -102 679 -294H687C711 -140 769 -36 867 51C869 52 871 53 874 53C877 53 880 52 883 49C898 35 920 29 965 29L967 19C829 -27 746 -128 702 -294ZM681 -316C689 -396 694 -471 699 -597H806V-316ZM540 -316V-597H654C652 -502 649 -400 642 -316ZM288 -287V-420H381V-287ZM149 -287V-420H243V-287ZM197 -574V-673H336V-574Z"/>
</svg>