<svg xmlns="http://www.w3.org/2000/svg" viewBox="0 -1000 1000 1000">
	<path fill="#000000" d="M470 -750L438 -707H400V-789C424 -806 426 -808 426 -812C426 -814 423 -817 417 -820L351 -851C353 -814 354 -782 354 -753V-707H214V-792C235 -806 238 -808 238 -812C238 -816 234 -819 228 -823L168 -855C170 -827 171 -797 171 -763V-707H132C109 -707 84 -709 59 -711L87 -678C118 -689 148 -689 171 -689V-618C171 -604 170 -544 170 -532C170 -524 171 -521 176 -521C179 -521 185 -523 194 -527C212 -534 214 -537 214 -548V-568H253V-440H170L108 -492C110 -464 111 -438 111 -400V-308C111 -297 109 -248 109 -238C109 -226 110 -222 116 -222C119 -222 124 -223 131 -226C154 -234 154 -238 154 -265H253V-158H125C102 -158 77 -160 52 -162L80 -129C97 -136 126 -140 147 -140H253V-79C253 -37 252 2 250 55V64C250 79 252 85 259 85C263 85 269 83 278 79C297 71 301 67 301 54V48C298 8 297 -28 297 -77V-140H467C477 -140 482 -141 482 -143C482 -145 479 -149 473 -155L427 -200L394 -158H297V-265H395C395 -240 395 -237 402 -237C406 -237 412 -239 421 -242C439 -248 443 -250 443 -260C443 -268 440 -314 440 -324V-405C466 -418 469 -420 469 -425C469 -428 467 -431 462 -435L408 -475L384 -440H297V-568H354C354 -530 354 -526 362 -526C368 -526 404 -535 404 -551C404 -554 403 -556 403 -559C401 -578 400 -607 400 -647V-689H502C515 -689 520 -690 520 -693C520 -695 517 -698 512 -704ZM297 -283V-422H395V-283ZM154 -283V-422H253V-283ZM214 -586V-689H354V-586ZM880 -560L852 -525H747V-779L774 -798C779 -801 782 -804 782 -807C782 -809 779 -812 773 -815L698 -847C700 -813 701 -752 701 -715V-525H592L531 -570C533 -533 535 -466 535 -425V-76C535 -67 532 47 532 70C532 83 533 88 539 88C546 88 581 78 581 57V-177H865V-10C865 11 864 20 839 20C820 20 789 15 736 6V22C805 40 829 56 833 79C834 85 836 87 840 87C842 87 844 86 847 85C907 55 912 46 912 -18V-483L939 -499C945 -502 948 -505 948 -508C948 -511 945 -513 939 -517ZM581 -363V-507H865V-363ZM581 -195V-345H865V-195ZM524 -758C572 -708 595 -655 601 -614C605 -589 616 -579 627 -579C640 -579 653 -592 653 -619C653 -672 587 -732 531 -768ZM894 -762C867 -702 831 -640 787 -570L799 -562L912 -697C920 -706 932 -714 945 -717C950 -719 953 -720 953 -723C953 -725 950 -728 945 -731Z"/>
</svg>