<svg xmlns="http://www.w3.org/2000/svg" viewBox="0 -1000 1000 1000">
	<path fill="#000000" d="M639 -556C679 -512 707 -435 707 -398C707 -364 711 -356 725 -356C741 -356 765 -383 765 -417C765 -462 714 -511 648 -565ZM845 -770L814 -729H623L558 -779C560 -742 562 -674 562 -633V-157C562 -100 561 -15 559 44V52C559 69 561 76 569 76C573 76 579 74 588 70C609 61 613 57 613 43V36C611 5 609 -66 609 -155V-707H826V-203C826 -189 819 -180 795 -180C770 -180 728 -189 656 -208L653 -194C752 -161 774 -140 781 -113C783 -104 786 -100 791 -100C794 -100 797 -101 800 -103C858 -132 871 -155 871 -194V-682L904 -697C910 -700 912 -702 912 -704C912 -707 910 -710 905 -714ZM219 -602C250 -564 268 -499 268 -463C268 -459 266 -443 266 -439C266 -418 274 -412 285 -412C301 -412 325 -436 325 -471C325 -516 285 -559 226 -610ZM459 -846C385 -810 311 -779 193 -738L128 -779C130 -742 132 -683 132 -633V-279C132 -249 130 -245 87 -222L136 -168C139 -165 141 -163 143 -163C147 -163 149 -166 152 -172C166 -197 209 -232 375 -305C371 -160 298 -44 40 60L45 72C311 -15 393 -105 409 -290C413 -337 420 -500 421 -606L449 -627C452 -629 454 -632 454 -635C454 -638 451 -641 447 -643L371 -680C375 -608 377 -461 375 -323L178 -252V-713C261 -734 350 -756 446 -782C453 -784 471 -786 490 -786C494 -786 513 -785 514 -785C519 -785 521 -786 521 -789C521 -791 519 -794 515 -798Z"/>
</svg>