<svg xmlns="http://www.w3.org/2000/svg" viewBox="0 -1000 1000 1000">
	<path fill="#000000" d="M395 -375L372 -338H193L134 -388C136 -357 137 -309 137 -285V-156C137 -99 136 -13 134 46V57C134 72 135 78 142 78C147 78 153 76 162 72C179 65 180 59 180 47V-8H386V42C386 50 387 55 393 55C397 55 403 53 413 49C431 41 435 36 435 22V15C432 -30 430 -92 430 -168V-302L455 -325C459 -329 461 -332 461 -334C461 -337 459 -339 454 -342ZM180 -190V-318H386V-190ZM180 -28V-170H386V-28ZM857 -343L832 -303H617L558 -348C560 -317 561 -269 561 -245V-67C561 -56 558 47 558 69C558 84 559 90 566 90C571 90 577 88 586 84C603 77 604 73 604 59V8H847V75C847 83 848 88 854 88C857 88 863 86 873 82C891 74 895 69 895 55V48C892 3 891 -26 891 -60V-269L916 -285C921 -288 923 -291 923 -294C923 -297 921 -300 915 -304ZM604 -12V-283H847V-12ZM206 -834C249 -808 268 -780 283 -742C293 -718 298 -712 310 -712C322 -712 338 -724 338 -747C338 -752 338 -757 336 -763C330 -787 298 -820 209 -844ZM442 -755L406 -704H139C118 -704 95 -705 73 -708L98 -672C113 -678 140 -682 159 -682H490C497 -682 500 -683 500 -686C500 -688 498 -692 494 -696ZM139 -636C178 -599 197 -546 206 -502C210 -482 219 -478 228 -478C242 -478 257 -503 257 -523C257 -549 213 -598 147 -645ZM886 -778L856 -742H585C562 -742 539 -743 512 -746L540 -711C557 -718 586 -722 607 -722H661C654 -521 618 -451 483 -315L492 -305C655 -422 692 -521 710 -722H870C866 -647 862 -589 857 -546C847 -469 842 -440 802 -440C780 -440 748 -449 698 -464L694 -452C769 -425 785 -408 788 -379C789 -374 791 -371 795 -371C798 -371 802 -372 806 -374C873 -401 884 -421 896 -528C902 -578 908 -649 911 -700L941 -715C947 -718 950 -720 950 -723C950 -726 947 -729 940 -735ZM481 -505L442 -458H334C396 -573 409 -594 439 -608C443 -610 444 -612 444 -614C444 -616 442 -618 438 -620L377 -647C363 -585 340 -513 317 -458H117C96 -458 73 -459 51 -462L76 -426C91 -432 118 -436 137 -436H528C534 -436 537 -438 537 -441C537 -443 535 -445 533 -448Z"/>
</svg>