<svg xmlns="http://www.w3.org/2000/svg" viewBox="0 -1000 1000 1000">
	<path fill="#000000" d="M892 -841L849 -784H495C472 -784 447 -786 422 -788L450 -753C467 -760 496 -764 517 -764H649C649 -724 644 -682 632 -627H582L521 -670C523 -639 524 -591 524 -567V-242C524 -220 521 -122 521 -101C521 -90 523 -86 529 -86C533 -86 538 -88 545 -90C565 -97 568 -102 568 -115V-145H828V-113C828 -104 828 -99 833 -99C836 -99 842 -101 851 -106C872 -116 876 -119 876 -131V-136C874 -167 873 -199 873 -275V-595L905 -613C908 -615 910 -617 910 -619C910 -621 907 -624 903 -627L839 -671L809 -627H653C678 -687 693 -722 710 -764H947C957 -764 962 -765 962 -769C962 -772 958 -777 950 -785ZM568 -320V-461H828V-320ZM568 -481V-607H828V-481ZM568 -165V-300H828V-165ZM355 -370L328 -330H172L111 -373C113 -344 114 -298 114 -275V-105C114 -55 113 -4 112 12V17C112 25 113 29 118 29C121 29 127 27 135 23C152 15 157 11 157 -2V-81H341V-39C341 -29 343 -25 349 -25C353 -25 360 -27 370 -32C384 -38 387 -43 387 -54C387 -61 385 -164 385 -185V-296L416 -314C421 -317 424 -319 424 -321C424 -323 421 -326 416 -329ZM157 -101V-310H341V-101ZM426 -705L386 -653H272V-794L300 -810C308 -814 312 -817 312 -820C312 -823 308 -826 299 -831L224 -870C226 -835 227 -799 227 -760V-653H105C82 -653 56 -655 32 -657L60 -623C76 -629 106 -633 127 -633H227V-474H123C100 -474 74 -476 50 -478L78 -444C94 -450 124 -454 145 -454H447C457 -454 463 -455 463 -459C463 -462 459 -467 452 -474L401 -527L360 -474H272V-633H479C490 -633 496 -634 496 -638C496 -641 492 -646 484 -653ZM616 -110C547 -48 469 5 347 71L353 82C425 59 491 30 611 -39C628 -49 646 -56 665 -57C674 -58 678 -59 678 -61C678 -64 675 -67 668 -72ZM732 -78C832 -28 876 13 898 43C913 63 923 72 930 72C946 72 958 52 958 31C958 22 956 14 952 7C941 -13 891 -47 737 -92Z"/>
</svg>