<svg xmlns="http://www.w3.org/2000/svg" viewBox="0 -1000 1000 1000">
	<path fill="#000000" d="M894 -834L855 -785H547C524 -785 499 -787 474 -789L502 -752C519 -759 548 -763 569 -763H676C672 -728 664 -687 648 -636H591L527 -693C529 -659 530 -597 530 -560V-314C530 -232 529 -184 527 -131V-121C527 -108 529 -103 536 -103C540 -103 545 -104 553 -107C575 -115 577 -117 577 -128V-142H824V-110C824 -102 825 -98 830 -98C834 -98 840 -101 851 -107C872 -119 876 -123 876 -136V-141C873 -186 871 -234 871 -310V-595L900 -612C905 -615 907 -617 907 -620C907 -623 905 -626 899 -630L843 -674L811 -636H667C692 -674 719 -725 737 -763H950C956 -763 960 -765 960 -768C960 -770 958 -773 954 -776ZM577 -330V-467H824V-330ZM577 -489V-614H824V-489ZM577 -164V-308H824V-164ZM367 -656L342 -615H174L109 -672C111 -641 112 -593 112 -569V-454C112 -438 109 -368 109 -353C109 -340 111 -335 117 -335C122 -335 129 -337 138 -341C158 -349 158 -353 158 -387H356V-355C356 -347 358 -342 365 -342C369 -342 375 -344 385 -348C404 -356 407 -360 407 -374V-382C404 -427 402 -451 402 -509V-582L425 -598C431 -602 434 -605 434 -608C434 -611 431 -613 425 -617ZM158 -409V-593H356V-409ZM409 -820L363 -773H95C72 -773 47 -775 22 -777L50 -740C67 -747 96 -751 117 -751H462C468 -751 472 -752 472 -755C472 -757 470 -760 466 -764ZM130 -294C164 -254 174 -202 174 -173C174 -168 172 -148 172 -143C172 -118 182 -114 190 -114C206 -114 232 -129 232 -163C232 -188 228 -226 139 -305ZM469 -136L294 -95C318 -140 343 -187 379 -257C384 -266 388 -269 408 -278C414 -281 416 -283 416 -285C416 -287 414 -289 409 -291L346 -319C323 -234 297 -155 270 -89L24 -32L65 17C68 21 71 22 73 22C76 22 79 20 83 15C93 3 118 -10 180 -28L475 -118ZM618 -112C554 -55 425 41 336 83L343 97C409 77 497 32 632 -47C644 -54 651 -55 676 -59C684 -61 687 -63 687 -65C687 -68 684 -71 679 -74ZM717 -80C796 -42 865 20 889 60C900 78 908 83 917 83C933 83 944 59 944 38C944 28 941 18 936 12C909 -20 853 -55 722 -94Z"/>
</svg>