<svg xmlns="http://www.w3.org/2000/svg" viewBox="0 -1000 1000 1000">
	<path fill="#000000" d="M892 -830L847 -777H562C539 -777 514 -779 489 -781L517 -744C534 -751 563 -755 584 -755H680C679 -717 666 -664 651 -611H595L543 -656C544 -622 545 -561 545 -524V-307C545 -210 544 -165 542 -135V-124C542 -110 544 -104 551 -104C555 -104 562 -107 571 -111C588 -119 591 -123 591 -144H839V-113C839 -107 840 -104 844 -104C848 -104 854 -106 865 -110C886 -118 889 -121 889 -134V-142C886 -187 885 -202 885 -278V-571L920 -590C924 -592 926 -594 926 -596C926 -598 924 -600 921 -603L854 -653L824 -611H672C689 -652 720 -714 744 -755H942C952 -755 956 -757 956 -761C956 -764 954 -768 948 -774ZM591 -322V-451H839V-322ZM591 -473V-589H839V-473ZM591 -166V-300H839V-166ZM410 -601L381 -567H224C253 -617 257 -623 273 -632C280 -636 284 -639 284 -642C284 -644 281 -646 275 -648L218 -671C188 -581 115 -451 51 -362L62 -352C90 -379 126 -420 163 -472C208 -456 251 -437 288 -418C210 -330 111 -249 27 -191L34 -176C76 -199 116 -224 155 -250V-89C155 -81 152 25 152 47C152 62 154 68 161 68C165 68 172 66 181 62C198 55 201 49 201 37V-30H387V18C387 27 388 31 394 31C398 31 404 29 413 25C434 16 437 12 437 -1V-9C434 -54 433 -83 433 -117V-241C458 -257 461 -258 461 -261C461 -263 459 -265 455 -268L399 -307L376 -272H185C236 -310 283 -352 325 -398C385 -364 425 -334 438 -319C458 -296 466 -287 478 -287C490 -287 500 -298 500 -314C500 -361 431 -397 353 -429C376 -455 397 -483 416 -512C424 -525 427 -526 460 -533C466 -535 469 -536 469 -539C469 -542 467 -545 462 -550ZM380 -546C362 -512 338 -479 311 -445C270 -460 224 -475 174 -488C187 -506 200 -526 212 -546ZM201 -52V-250H387V-52ZM205 -846C256 -818 284 -779 292 -754C299 -732 310 -727 317 -727C333 -727 352 -747 352 -769C352 -811 285 -841 212 -855ZM482 -750L453 -717H161C159 -733 157 -750 152 -767L138 -766C134 -686 106 -649 83 -632C67 -620 60 -609 60 -599C60 -586 72 -575 91 -575C147 -575 160 -659 161 -695H457L420 -620L431 -613C481 -671 499 -679 540 -687C548 -689 551 -690 551 -692C551 -694 548 -698 541 -703ZM724 -89C814 -44 878 20 893 43C910 68 918 75 931 75C945 75 956 58 956 37C956 -30 851 -68 730 -102ZM635 -113C576 -55 485 21 399 74L406 87C474 58 564 6 646 -49C658 -57 662 -57 688 -59C696 -60 699 -61 699 -63C699 -65 696 -69 688 -74Z"/>
</svg>