<svg xmlns="http://www.w3.org/2000/svg" viewBox="0 -1000 1000 1000">
	<path fill="#000000" d="M411 -815L381 -771H127C105 -771 81 -773 57 -775L94 -740C121 -751 152 -751 187 -751V-641H138L87 -682C89 -653 90 -609 90 -587V-485C90 -475 88 -431 88 -422C88 -414 89 -411 94 -411C98 -411 103 -413 112 -417C127 -425 130 -428 130 -441V-463H387C387 -427 387 -427 394 -427C402 -427 429 -435 429 -454C429 -469 427 -536 427 -550V-606L452 -622C456 -624 458 -626 458 -629C458 -631 455 -635 448 -639L402 -670L380 -641H322V-751H452C462 -751 467 -752 467 -756C467 -759 463 -763 455 -771ZM226 -483V-621H285V-483ZM226 -641V-751H285V-641ZM322 -483V-621H387V-483ZM130 -483V-621H187V-483ZM716 -175C740 -131 749 -110 754 -87L686 -80V-283H736V-241C736 -233 737 -229 743 -229C751 -229 778 -237 778 -256C778 -271 776 -338 776 -352V-476C779 -478 802 -492 802 -494C802 -496 799 -498 792 -503L746 -533L726 -505H686V-631C715 -636 742 -641 755 -641C765 -641 773 -640 779 -639C784 -638 788 -637 790 -637C794 -637 796 -638 796 -640C796 -643 793 -647 789 -652L759 -690C724 -674 646 -647 556 -620L560 -612C597 -618 624 -621 647 -625V-505H609L560 -543C562 -514 563 -470 563 -448V-298C563 -288 561 -244 561 -235C561 -227 562 -224 567 -224C571 -224 576 -226 585 -230C600 -238 602 -241 602 -254V-283H647V-75L502 -57L534 -13C536 -10 538 -8 540 -8C543 -8 545 -10 548 -13C558 -23 576 -31 622 -41L757 -70C765 -11 769 -6 784 -6C796 -6 808 -19 808 -41C808 -51 806 -64 799 -77C786 -103 761 -139 724 -182ZM686 -303V-485H736V-303ZM602 -303V-485H647V-303ZM944 -178C939 -140 922 -49 915 -25C875 -72 854 -127 859 -339L869 -728L907 -750C911 -752 913 -754 913 -756C913 -759 911 -761 907 -764L846 -812L816 -772H540L492 -820C492 -169 473 -101 327 54L332 62C512 -77 522 -179 531 -752H829L821 -325C817 -87 838 -11 940 55C946 59 951 61 955 61C961 61 964 57 964 50C964 46 963 41 960 35C953 20 949 4 949 -34C949 -64 952 -107 957 -173ZM366 -417L335 -383H170C148 -383 124 -385 100 -387L137 -351C154 -358 175 -362 203 -362H397C407 -362 411 -364 411 -367C411 -371 407 -376 400 -382ZM301 -208C334 -179 362 -131 369 -114C379 -90 383 -86 394 -86C406 -86 414 -101 414 -117C414 -156 361 -189 305 -215ZM392 -320L362 -281H102C80 -281 56 -283 32 -285L68 -250C85 -257 106 -261 134 -261H237V-49C237 -30 233 -19 204 -19C186 -19 159 -23 118 -31L115 -18C175 -3 194 8 204 42C206 47 207 50 210 50C211 50 213 49 215 48C266 25 279 -2 279 -38V-261H428C438 -261 443 -262 443 -265C443 -268 439 -273 431 -281ZM136 -222C116 -160 66 -57 34 -4L39 1C65 -22 86 -48 161 -166C166 -174 175 -182 188 -188C194 -191 196 -194 196 -196C196 -198 194 -200 189 -201Z"/>
</svg>