<svg xmlns="http://www.w3.org/2000/svg" viewBox="0 -1000 1000 1000">
	<path fill="#000000" d="M274 -856C220 -718 112 -534 23 -409L35 -400C72 -439 110 -488 149 -544V-50C149 -20 143 -6 103 15L148 62C152 66 155 68 157 68C160 68 162 65 165 61C180 36 211 7 391 -87C398 -75 403 -64 408 -53C421 -24 426 -20 436 -20C455 -20 467 -37 467 -58C467 -112 399 -150 321 -189L312 -180C343 -150 365 -126 381 -103L192 -23V-242H391C391 -214 391 -211 398 -211C401 -211 407 -213 417 -217C434 -224 439 -229 439 -240C439 -243 438 -247 438 -251C435 -280 434 -316 434 -354V-514L462 -532C467 -536 470 -538 470 -541C470 -543 467 -545 463 -548L404 -587L382 -550H198L168 -572C209 -632 249 -699 289 -766C354 -727 405 -682 431 -643C443 -625 452 -618 460 -618C474 -618 485 -633 485 -654C485 -662 484 -671 480 -680C469 -704 409 -740 298 -779C307 -789 321 -799 335 -802C342 -804 346 -805 346 -808C346 -810 343 -813 337 -817ZM192 -411V-529H391V-411ZM192 -263V-390H391V-263ZM254 -674C278 -644 292 -611 295 -593C300 -566 305 -561 315 -561C330 -561 349 -577 349 -598C349 -637 296 -665 261 -683ZM863 -658L837 -617H603C624 -667 644 -721 663 -777C665 -784 672 -789 684 -793C700 -798 706 -802 706 -807C706 -810 701 -814 692 -819L626 -852C599 -735 525 -499 463 -364L480 -357C514 -416 554 -498 594 -596H848L783 -444L799 -437C878 -563 897 -579 950 -583C954 -583 956 -584 956 -586C956 -588 955 -590 951 -593ZM640 -556C635 -196 618 -68 352 83L360 97C503 34 597 -40 646 -179C662 -225 674 -297 685 -490L691 -492C709 -181 759 -73 869 46C873 49 875 51 878 51C880 51 883 49 885 46C896 30 920 21 947 21C956 21 965 22 974 24L976 10C829 -30 733 -177 708 -500C718 -503 729 -507 729 -512C729 -515 725 -518 717 -522Z"/>
</svg>