<svg xmlns="http://www.w3.org/2000/svg" viewBox="0 -1000 1000 1000">
	<path fill="#000000" d="M258 -860C179 -671 107 -537 28 -420L40 -409C75 -447 112 -496 152 -558V-72C152 -49 143 -32 101 -9L152 41C156 45 158 46 160 46C162 46 164 45 166 42C185 10 218 -17 370 -106C382 -86 390 -68 394 -52C400 -30 408 -24 416 -24C434 -24 448 -43 448 -68C448 -110 403 -152 302 -211L292 -200C320 -173 343 -146 360 -121L195 -52V-263H388V-228C388 -220 389 -216 394 -216C398 -216 403 -217 410 -221C430 -231 434 -234 434 -248V-255C433 -277 431 -319 431 -380V-530L456 -543C461 -546 463 -548 463 -550C463 -553 461 -555 457 -558L395 -602L375 -563H202L171 -588C205 -642 241 -704 280 -776C337 -748 378 -710 412 -664C426 -645 431 -643 440 -643C452 -643 464 -657 464 -677C464 -718 418 -746 288 -789C295 -797 305 -805 316 -810C324 -813 328 -816 328 -819C328 -822 325 -824 319 -827ZM195 -427V-541H388V-427ZM195 -285V-405H388V-285ZM886 -718L843 -664H594C610 -698 626 -735 641 -772C648 -789 655 -795 681 -805C688 -808 692 -810 692 -813C692 -815 689 -817 684 -820L613 -859C558 -678 511 -552 456 -451L472 -442C501 -483 541 -555 583 -642H936C946 -642 952 -643 952 -648C952 -651 948 -656 940 -664ZM248 -690C283 -652 289 -636 293 -615C298 -590 306 -582 315 -582C329 -582 345 -597 345 -624C345 -649 321 -672 255 -701ZM860 -475L828 -431H680C682 -466 683 -504 684 -545L715 -564C720 -567 723 -569 723 -571C723 -574 719 -575 713 -578L635 -611C635 -543 634 -483 632 -431H531C508 -431 483 -433 458 -435L486 -397C503 -404 532 -408 553 -408H631C615 -115 548 -35 343 78L354 91C599 -19 660 -99 679 -408H845C845 -289 835 -128 824 -67C818 -35 803 -20 763 -20C737 -20 701 -26 651 -38L647 -20C734 5 752 17 760 58C761 65 763 68 766 68C768 68 770 67 773 66C844 30 862 10 873 -51C878 -79 884 -199 890 -393L927 -416C932 -419 935 -422 935 -424C935 -427 932 -429 928 -432Z"/>
</svg>