<svg xmlns="http://www.w3.org/2000/svg" viewBox="0 -1000 1000 1000">
	<path fill="#000000" d="M784 -714L752 -672H418L354 -717C356 -686 357 -664 357 -614V-513C357 -495 354 -412 354 -397C354 -382 355 -376 362 -376C365 -376 371 -378 379 -382C401 -392 401 -396 401 -426H767C767 -389 767 -385 774 -385C778 -385 784 -387 794 -392C811 -400 815 -403 815 -419V-426C812 -471 812 -496 812 -526V-629L841 -648C847 -652 850 -655 850 -658C850 -661 847 -665 840 -670ZM401 -562V-651H767V-562ZM401 -447V-541H767V-447ZM885 -833L846 -778H242L167 -833C168 -799 168 -757 168 -719L165 -453C162 -163 134 -79 40 54L48 62C178 -64 206 -180 214 -463L223 -757H937C946 -757 951 -758 951 -762C951 -766 947 -771 940 -778ZM892 -219L851 -167H607V-194C784 -282 840 -297 877 -297C895 -297 897 -297 897 -300C897 -303 893 -308 885 -315L832 -367L790 -336H354C331 -336 306 -338 281 -340L309 -304C326 -311 355 -315 376 -315H770L620 -220L559 -260C561 -218 561 -213 561 -167H287C264 -167 239 -169 214 -171L242 -135C259 -142 288 -146 309 -146H561V-35C561 -15 556 -4 525 -4C502 -4 463 -10 399 -24L397 -11C496 14 517 28 525 67C526 73 529 76 532 76C534 76 536 75 538 74C606 39 607 36 607 -29V-146H935C948 -146 955 -147 955 -152C955 -156 949 -163 939 -173Z"/>
</svg>