<svg xmlns="http://www.w3.org/2000/svg" viewBox="0 -1000 1000 1000">
	<path fill="#000000" d="M229 -859C202 -754 132 -570 26 -389L36 -380C72 -426 106 -480 140 -541C142 -518 142 -487 142 -458V-47C142 -11 131 6 98 27L142 68C145 71 148 73 150 73C154 73 157 70 161 64C182 35 228 -11 335 -89C345 -71 351 -55 353 -42C357 -19 361 -14 375 -14C387 -14 404 -35 404 -59C404 -101 340 -152 282 -188L274 -178C295 -153 313 -128 326 -106L185 -22V-252H330V-217C330 -211 331 -208 334 -208C337 -208 376 -222 376 -235V-238C374 -267 373 -299 373 -340V-495C385 -501 403 -512 403 -515C403 -517 401 -520 396 -524L344 -566L321 -536H189L155 -568C172 -601 189 -636 207 -672C235 -642 252 -610 261 -578C265 -564 274 -557 281 -557C295 -557 312 -573 312 -596C312 -629 278 -657 216 -690C227 -714 238 -739 249 -765C305 -731 349 -690 359 -670C364 -660 376 -652 387 -652C396 -652 407 -662 407 -682C407 -725 374 -745 256 -781C263 -795 270 -801 292 -808C299 -811 303 -813 303 -815C303 -817 300 -819 295 -822ZM185 -404V-514H330V-404ZM185 -274V-382H330V-274ZM756 -757C810 -721 841 -665 845 -649C849 -631 857 -620 874 -620C885 -620 900 -642 900 -665C900 -710 841 -742 762 -769ZM945 -154L901 2C842 -34 799 -96 768 -205C809 -256 849 -315 888 -385C894 -395 898 -396 921 -405C926 -407 929 -409 929 -411C929 -413 926 -415 920 -418L854 -452C833 -382 798 -315 757 -254C748 -308 738 -414 733 -504H949C957 -504 960 -506 960 -509C960 -511 958 -514 954 -518L891 -572L857 -526H732C730 -573 726 -725 727 -786L753 -804C758 -808 761 -811 761 -813C761 -816 758 -819 753 -821L681 -855C683 -752 688 -601 692 -526H580V-721C588 -726 595 -732 603 -737C619 -748 635 -754 654 -757C660 -758 663 -759 663 -761C663 -763 660 -766 655 -769L604 -802C580 -776 507 -711 409 -641L417 -630C444 -642 489 -665 537 -694V-526H470C456 -526 442 -527 417 -528L449 -499C458 -503 469 -504 488 -504H537V-332L401 -258L438 -221C442 -217 445 -214 448 -214C451 -214 455 -218 460 -225C471 -239 491 -256 537 -289V-51C537 -25 535 -14 507 -14C489 -14 461 -18 416 -26L414 -11C486 4 502 28 509 55C511 62 512 64 515 64C517 64 519 63 522 61C577 24 580 16 580 -57V-320L675 -389L667 -402L580 -355V-504H693C700 -386 711 -266 723 -207C679 -149 631 -99 588 -59L592 -40C642 -74 689 -115 734 -165C764 -73 813 1 888 50C924 74 950 86 963 86C967 86 974 84 974 78C974 72 969 62 956 40C951 32 947 19 947 -14C947 -42 950 -84 959 -150Z"/>
</svg>