<svg xmlns="http://www.w3.org/2000/svg" viewBox="0 -1000 1000 1000">
	<path fill="#000000" d="M267 -695C310 -653 327 -613 329 -586C330 -570 338 -555 348 -555C366 -555 381 -572 381 -595C381 -636 338 -669 273 -704ZM875 -574L842 -533H694C712 -576 729 -619 742 -656C745 -665 752 -669 765 -673C772 -676 777 -678 777 -681C777 -684 774 -687 767 -690L703 -722C691 -628 646 -476 578 -336L588 -329C615 -362 652 -435 685 -512H847L802 -372L813 -364C870 -473 887 -494 928 -500C939 -502 943 -504 943 -506C943 -508 941 -511 937 -514ZM875 -823L839 -766H212L146 -816C147 -768 147 -707 147 -644C147 -191 130 -84 30 60L41 71C147 -63 176 -136 188 -390C193 -490 196 -636 196 -744H940C948 -744 953 -745 953 -749C953 -752 949 -757 942 -763ZM571 -584L539 -539H451C523 -650 529 -653 553 -658C561 -660 565 -662 565 -664C565 -667 562 -670 556 -673L496 -707C476 -649 460 -606 428 -539H270C247 -539 222 -541 197 -543L225 -507C242 -514 271 -518 292 -518H388C389 -483 389 -446 389 -410C389 -352 388 -296 387 -255H311V-403C335 -419 337 -421 337 -423C337 -426 335 -428 330 -430L266 -460C268 -423 268 -383 268 -342V-262L236 -239L288 -204C292 -201 295 -200 298 -200C301 -200 304 -203 309 -209L327 -234H385C377 -127 298 -6 183 64L187 76C314 15 406 -91 421 -234H512V-197C512 -187 513 -183 517 -183C519 -183 557 -200 557 -212C557 -217 555 -274 555 -286V-411C577 -425 579 -427 579 -430C579 -433 576 -435 571 -437L509 -461C511 -428 512 -394 512 -376V-255H423C427 -312 430 -399 430 -518H619C629 -518 633 -520 633 -523C633 -525 630 -529 625 -534ZM688 -456C679 -162 613 -58 398 69L407 82C618 -25 702 -116 724 -358C743 -171 793 -61 874 17C878 20 880 22 883 22C885 22 887 20 889 18C899 6 914 -1 941 -1C951 -1 962 0 975 2L977 -8C839 -43 757 -208 732 -397C758 -414 760 -416 760 -419C760 -421 757 -423 749 -427Z"/>
</svg>