<svg xmlns="http://www.w3.org/2000/svg" viewBox="0 -1000 1000 1000">
	<path fill="#000000" d="M423 -822L383 -769H152L90 -821C92 -784 94 -726 94 -694V-431C94 -377 93 -329 91 -286V-281C91 -271 93 -266 99 -266C103 -266 110 -269 121 -273C139 -280 139 -284 139 -313H398C398 -235 395 -127 390 -78C385 -22 380 -1 336 -1C312 -1 276 -8 222 -18L218 -3C305 19 327 41 333 73C334 79 336 81 339 81C341 81 344 80 347 79C401 53 422 24 429 -25C438 -85 442 -237 442 -300L470 -317C475 -320 477 -322 477 -325C477 -327 475 -329 471 -332L408 -373L386 -335H300V-462H454C462 -462 465 -463 465 -466C465 -468 463 -472 458 -477L405 -532L370 -484H300V-598H467C475 -598 478 -599 478 -602C478 -605 476 -608 471 -613L423 -665L384 -620H300V-747H472C480 -747 483 -749 483 -752C483 -755 481 -759 476 -764ZM139 -484V-598H255V-484ZM139 -620V-747H255V-620ZM139 -335V-462H255V-335ZM671 -766C673 -729 675 -662 675 -621V-280C675 -223 674 -154 672 -95V-86C672 -69 674 -63 681 -63C686 -63 693 -65 702 -69C720 -77 724 -82 724 -96V-103C721 -148 720 -202 720 -278V-696L742 -709C748 -713 750 -715 750 -718C750 -721 748 -723 742 -726ZM826 -840C828 -803 830 -735 830 -694V-162C830 -105 829 -15 827 44V55C827 70 828 76 835 76C839 76 845 74 854 70C875 61 879 57 879 43V36C876 -9 875 -84 875 -160V-766L897 -780C903 -784 905 -786 905 -789C905 -791 903 -794 897 -797ZM527 -830C529 -807 530 -744 530 -702V-339C530 -114 511 -41 417 74L429 84C552 -28 575 -92 575 -425V-762C602 -779 605 -781 605 -784C605 -786 602 -789 596 -792ZM288 -281C321 -225 331 -172 331 -157C331 -144 339 -135 352 -135C365 -135 378 -154 378 -185C378 -206 357 -240 297 -288ZM215 -263C241 -218 247 -165 247 -140C247 -109 250 -97 263 -97C276 -97 302 -117 302 -139C302 -157 276 -217 228 -269ZM141 -244C158 -201 163 -165 163 -137C163 -121 161 -108 159 -99C158 -93 157 -88 157 -84C157 -69 165 -65 172 -65C192 -65 212 -85 212 -118C212 -150 188 -201 154 -250ZM84 -241C84 -167 47 -102 27 -81C20 -74 17 -64 17 -54C17 -32 36 -30 42 -30C68 -30 108 -54 108 -151C108 -176 105 -206 99 -241Z"/>
</svg>