<svg xmlns="http://www.w3.org/2000/svg" viewBox="0 -1000 1000 1000">
	<path fill="#000000" d="M443 -822L405 -770H157L100 -826C102 -789 104 -721 104 -680V-488C104 -431 103 -361 101 -302V-292C101 -275 103 -268 110 -268C113 -268 117 -270 123 -272C148 -282 149 -287 149 -299V-323H416C416 -246 410 -126 404 -83C395 -15 389 10 340 10C314 10 277 3 221 -8L217 8C308 29 332 44 342 83C344 89 345 92 349 92C351 92 353 91 357 89C435 51 440 35 450 -79C454 -125 462 -246 462 -308L492 -328C497 -331 499 -334 499 -336C499 -339 497 -342 493 -344L432 -389L404 -345H310V-466H447C456 -466 460 -469 460 -473C460 -477 457 -482 452 -488L409 -538L376 -488H310V-605H444C453 -605 458 -607 458 -612C458 -615 455 -620 449 -627L406 -676L372 -627H310V-748H491C500 -748 505 -750 505 -755C505 -758 502 -763 495 -770ZM149 -488V-605H265V-488ZM149 -627V-748H265V-627ZM149 -345V-466H265V-345ZM615 -838C662 -801 678 -765 689 -725C697 -695 703 -692 715 -692C738 -692 750 -715 750 -740C750 -746 750 -752 748 -758C741 -784 689 -823 623 -850ZM895 -716L860 -680H549C547 -695 543 -712 538 -731L526 -729C526 -652 499 -623 476 -597C463 -583 458 -573 458 -566C458 -553 477 -546 489 -546C525 -546 554 -600 551 -658H868L810 -542L824 -533C888 -626 921 -640 959 -643C965 -644 968 -645 968 -648C968 -650 965 -653 961 -657ZM893 -185C886 -22 885 -10 838 -5C815 -3 785 -2 754 -2C626 -2 621 -3 621 -79V-245C703 -296 796 -363 853 -407C870 -420 876 -422 908 -428C914 -429 918 -431 918 -434C918 -437 916 -440 912 -443L854 -487C799 -421 701 -328 621 -265V-512C651 -532 654 -534 654 -539C654 -543 650 -546 642 -549L570 -578C572 -544 574 -483 574 -446V-58C574 23 585 41 724 41C925 41 933 23 955 -26C956 -29 957 -31 957 -32C957 -35 955 -37 950 -39C921 -50 911 -82 911 -185ZM301 -277C333 -233 349 -188 349 -159C349 -147 355 -135 371 -135C385 -135 400 -152 400 -177C400 -199 374 -233 311 -284ZM228 -262C254 -216 263 -175 263 -150C263 -112 267 -104 281 -104C298 -104 315 -126 315 -152C311 -182 280 -229 241 -269ZM158 -237C171 -200 176 -167 176 -139C176 -131 171 -93 171 -86C171 -69 182 -61 189 -61C205 -61 229 -84 229 -113C229 -139 206 -194 169 -243ZM96 -239C96 -158 70 -108 47 -84C35 -71 28 -62 28 -51C28 -50 30 -24 53 -24C62 -24 123 -31 123 -137C123 -164 119 -197 111 -239Z"/>
</svg>