<svg xmlns="http://www.w3.org/2000/svg" viewBox="0 -1000 1000 1000">
	<path fill="#000000" d="M407 -385L377 -347H301V-471H455C462 -471 465 -471 465 -474C465 -475 463 -478 460 -482L403 -541L361 -492H301V-610H447C454 -610 457 -612 457 -615C457 -617 455 -620 451 -624L394 -678L356 -631H301V-758H459C464 -758 467 -759 467 -762C467 -764 465 -768 461 -772L397 -834L355 -779H147L93 -835C95 -796 96 -757 96 -718V-386C96 -369 94 -296 94 -281C94 -273 95 -270 100 -270C103 -270 109 -272 119 -277C138 -287 140 -292 140 -326H387C387 -266 385 -163 377 -87C372 -43 366 -25 313 -25C288 -25 255 -29 207 -35L204 -20C298 1 314 13 321 53C322 58 323 61 326 61C327 61 330 60 333 58C399 23 413 0 422 -100C427 -158 434 -247 434 -310L462 -325C466 -327 467 -329 467 -332C467 -334 466 -337 463 -339ZM140 -492V-610H257V-492ZM140 -631V-758H257V-631ZM140 -347V-471H257V-347ZM965 -10C860 -22 756 -52 672 -127C698 -180 708 -257 708 -403H839V-356C839 -347 839 -341 845 -341C848 -341 888 -355 888 -370C888 -385 885 -450 885 -463V-624L916 -643C922 -646 924 -648 924 -651C924 -653 922 -656 917 -660L855 -707L825 -662H708V-783L736 -796C744 -800 747 -802 747 -805C747 -808 744 -811 737 -814L660 -856C662 -833 663 -770 663 -728V-662H545L489 -712C491 -688 491 -678 491 -592V-454C491 -420 491 -392 489 -368C488 -362 488 -357 488 -353C488 -346 489 -343 493 -343C497 -343 503 -347 514 -353C535 -366 535 -370 535 -403H663C663 -268 658 -198 641 -158C599 -206 559 -276 539 -343L527 -339C536 -264 569 -190 623 -126C571 -45 521 1 409 70L416 83C516 37 599 -20 652 -94C749 3 869 48 871 48C875 48 878 46 882 40C900 17 921 4 965 4ZM708 -424V-641H839V-424ZM535 -424V-641H663V-424ZM282 -289C315 -243 323 -183 323 -170C323 -149 330 -135 342 -135C354 -135 371 -149 371 -173C371 -214 332 -257 291 -296ZM201 -267C229 -231 241 -174 241 -160C240 -154 240 -148 240 -143C240 -119 247 -112 254 -112C272 -112 290 -129 290 -153C286 -184 263 -228 213 -275ZM137 -251C147 -225 150 -194 150 -169C150 -147 147 -129 144 -121C140 -111 138 -103 138 -96C138 -86 143 -80 151 -80C180 -80 198 -94 198 -130C198 -149 177 -214 149 -257ZM80 -250C80 -167 45 -110 30 -94C26 -89 19 -76 19 -65C19 -49 36 -45 44 -45C57 -45 104 -52 104 -153C104 -180 101 -212 94 -250Z"/>
</svg>