<svg xmlns="http://www.w3.org/2000/svg" viewBox="0 -1000 1000 1000">
	<path fill="#000000" d="M492 -557L470 -524H437V-752L463 -771C468 -775 470 -777 470 -779C470 -782 468 -784 463 -786L406 -822L382 -788H207L151 -831C152 -805 153 -759 153 -720V-524H116C116 -538 115 -553 113 -570H100C94 -500 74 -478 45 -449C36 -440 33 -432 33 -425C33 -409 47 -404 58 -404C108 -404 114 -482 115 -502H474L444 -450L458 -443C498 -489 516 -497 549 -499C555 -500 557 -501 557 -504C557 -506 556 -508 552 -511ZM319 -524V-633L340 -648C343 -650 344 -652 344 -654C344 -655 343 -657 340 -659L290 -696L272 -668H199V-766H392V-524ZM199 -524V-646H277V-524ZM399 -454L377 -420H220L153 -469C155 -432 157 -401 157 -359V-89C157 -48 156 -14 153 43V56C153 70 155 75 162 75C167 75 174 73 183 69C202 61 204 58 204 47V-151H390V-31C390 -13 387 -4 360 -4C343 -4 316 -8 274 -15L271 -3C345 20 357 32 364 64C365 69 367 71 370 71C372 71 374 70 377 69C427 46 435 29 435 -20V-385L459 -405C463 -408 465 -410 465 -412C465 -415 462 -417 458 -420ZM204 -299V-398H390V-299ZM204 -173V-277H390V-173ZM976 -368C879 -387 797 -425 731 -486C770 -533 799 -579 839 -649C847 -663 851 -667 882 -682C888 -685 891 -688 891 -690C891 -693 889 -695 885 -698L826 -742L806 -712H623C636 -733 647 -753 655 -769C665 -790 672 -796 696 -809C702 -812 705 -814 705 -817C705 -819 702 -821 696 -823L634 -846C601 -752 565 -670 510 -574L520 -567C541 -591 569 -628 594 -666C618 -594 645 -537 682 -487C626 -419 555 -358 447 -285L453 -273C572 -334 642 -386 706 -458C778 -377 889 -322 892 -322C894 -322 897 -324 899 -327C911 -345 930 -356 976 -357ZM610 -691H806C772 -618 746 -572 703 -515C664 -560 631 -616 606 -685ZM807 -318L783 -281H614L556 -324C557 -290 558 -264 558 -225V-82C558 -61 556 31 556 50C556 65 558 71 564 71C568 71 574 69 583 65C600 58 603 53 603 42V-15H796V51C796 61 797 66 803 66C806 66 812 63 822 59C843 50 848 46 848 33C848 31 847 28 847 24C844 -1 843 -27 843 -84V-249L864 -266C868 -270 870 -273 870 -276C870 -279 868 -281 863 -284ZM603 -37V-259H796V-37Z"/>
</svg>