<svg xmlns="http://www.w3.org/2000/svg" viewBox="0 -1000 1000 1000">
	<path fill="#000000" d="M923 -668L888 -622H868V-695L894 -708C899 -710 901 -713 901 -715C901 -718 899 -720 894 -724L840 -766L814 -727H689V-806C716 -821 719 -823 719 -827C719 -829 716 -832 710 -834L643 -865C645 -830 647 -767 647 -727H527L473 -766C475 -737 476 -693 476 -671L475 -622C441 -622 436 -622 388 -626L414 -593C430 -599 455 -603 475 -604L476 -552C476 -542 474 -498 474 -489C474 -481 475 -478 480 -478C487 -478 520 -487 520 -506H647V-423H521L471 -459V-328C471 -311 468 -285 468 -268C468 -259 470 -256 476 -256C479 -256 485 -258 493 -261C513 -270 513 -271 513 -301H621C602 -263 586 -228 571 -201H444C422 -201 398 -203 374 -205L400 -172C417 -179 445 -183 466 -183H560C541 -149 526 -118 509 -91C558 -78 604 -64 643 -50C589 -7 516 30 383 68L387 79C488 70 604 29 688 -34C769 -3 831 31 874 66C883 74 890 78 895 78C902 78 911 65 911 50C911 1 837 -24 717 -59C740 -82 776 -130 807 -183H942C951 -183 955 -185 955 -189C955 -192 952 -197 945 -203L893 -250L857 -201H618L648 -253C678 -264 682 -266 682 -270C682 -273 679 -275 674 -278L636 -301H827C827 -274 827 -271 832 -271C833 -271 873 -281 873 -298C873 -301 873 -305 872 -309C870 -323 870 -342 870 -359V-398C893 -411 896 -413 896 -416C896 -418 894 -421 889 -423L833 -455L813 -423H689V-506H825C825 -478 825 -475 832 -475C836 -475 842 -477 852 -481C868 -488 872 -491 872 -503C872 -510 868 -588 868 -604H962C969 -604 972 -606 972 -609C972 -612 970 -616 964 -622ZM689 -622V-709H825V-622ZM520 -622V-709H647V-622ZM689 -524V-604H825V-524ZM520 -524V-604H647V-524ZM689 -319V-405H827V-319ZM513 -319V-405H647V-319ZM606 -183H751C733 -140 704 -104 668 -71C636 -80 599 -91 558 -101ZM407 -542L387 -514H376V-735L401 -751C406 -754 409 -756 409 -759C409 -761 406 -764 401 -767L345 -806L320 -766H169L115 -809C116 -785 117 -744 117 -709V-514H96C95 -525 92 -536 89 -549L78 -548C73 -483 64 -463 32 -423C29 -419 27 -414 27 -410C27 -401 38 -391 49 -391C73 -391 100 -426 100 -474C100 -481 100 -488 99 -496H393L364 -437L375 -432C415 -472 430 -483 456 -491C461 -493 463 -494 463 -496C463 -498 461 -500 458 -502ZM271 -514V-622C293 -637 298 -639 298 -642C298 -644 296 -647 292 -649L242 -684L223 -654H159V-747H334V-514ZM159 -514V-635H230V-514ZM330 -438L310 -407H169L113 -445C115 -412 117 -367 117 -331V-82C117 -69 114 24 114 44C114 58 116 65 123 65C127 65 132 63 140 59C157 51 159 47 159 36V-154H324V-17C324 -1 322 8 291 8C275 8 251 5 216 1L215 14C279 27 292 37 301 72C302 76 304 78 307 78C309 78 311 77 314 76C359 51 366 38 366 -5V-377L389 -393C392 -394 393 -396 393 -398C393 -399 391 -401 388 -403ZM159 -295V-389H324V-295ZM159 -172V-277H324V-172Z"/>
</svg>