<svg xmlns="http://www.w3.org/2000/svg" viewBox="0 -1000 1000 1000">
	<path fill="#000000" d="M824 -402L794 -361H596L542 -403C544 -376 545 -333 545 -268C545 -40 522 -6 371 88L380 100C540 21 565 -10 580 -123H816V-16C816 -1 813 8 783 8C763 8 730 3 678 -6L675 8C764 36 774 46 781 78C782 83 783 84 785 84C786 84 788 84 790 83C852 60 862 44 862 10V-327L890 -343C895 -346 898 -348 898 -351C898 -353 895 -356 890 -359ZM589 -251V-339H816V-251ZM583 -144C586 -170 588 -204 589 -230H816V-144ZM503 -584L471 -539H195V-604H490C496 -604 500 -605 500 -609C500 -612 498 -616 492 -622L451 -665L422 -626H195V-680H487C493 -680 496 -681 496 -685C496 -688 494 -692 489 -698L453 -741L422 -702H195V-758H517C522 -758 525 -759 525 -762C525 -765 522 -769 516 -776L474 -826L442 -780H206L149 -831C150 -800 151 -737 151 -711V-539H99C77 -539 53 -541 30 -543L56 -508C72 -514 100 -518 120 -518H222C194 -468 159 -427 96 -423L138 -382C141 -379 144 -378 147 -378C149 -378 152 -379 154 -380C177 -392 221 -403 263 -409C264 -376 265 -333 265 -301H108C86 -301 61 -303 38 -305L65 -269C80 -275 109 -279 129 -279H265V-193H196L140 -242C142 -219 142 -182 142 -163V-106C142 -82 140 23 140 45C140 56 141 60 147 60C147 60 187 51 187 37V-20H386C386 17 386 21 395 21C405 21 435 11 435 -5C435 -7 434 -10 434 -13C432 -34 432 -53 432 -76V-160C455 -172 457 -174 457 -178C457 -180 456 -183 452 -185L399 -225L380 -193H310V-279H490C499 -279 503 -282 503 -287C503 -291 501 -296 495 -301L442 -347L410 -301H310V-358C321 -365 340 -377 340 -380C340 -383 337 -385 331 -389L289 -413L433 -431C440 -423 444 -413 447 -405C451 -390 462 -379 475 -379C485 -379 496 -390 496 -406C496 -443 446 -479 378 -505L372 -497C390 -482 407 -465 420 -449L178 -429L285 -518H540C547 -518 552 -519 552 -523C552 -525 549 -529 544 -535ZM187 -41V-171H386V-41ZM823 -838C752 -787 629 -720 509 -667L512 -651C618 -687 712 -724 834 -777C850 -784 861 -786 875 -786C884 -786 888 -787 888 -789C888 -791 886 -793 882 -796ZM837 -688C771 -641 680 -591 559 -537L566 -523C668 -556 752 -589 855 -633C860 -635 869 -637 880 -637C887 -637 897 -637 897 -639C897 -640 894 -643 888 -648ZM894 -563C824 -516 692 -454 557 -411L563 -397C679 -425 780 -457 901 -505C911 -509 922 -511 931 -511H944C948 -511 950 -511 950 -513C950 -516 946 -520 938 -527Z"/>
</svg>