<svg xmlns="http://www.w3.org/2000/svg" viewBox="0 -1000 1000 1000">
	<path fill="#000000" d="M964 -46C854 -38 662 -110 537 -222C628 -322 688 -462 763 -696L807 -719C812 -721 814 -723 814 -726C814 -729 811 -732 805 -738L735 -799L694 -748H196C173 -748 148 -750 123 -752L151 -715C168 -722 197 -726 224 -726H287C310 -491 383 -320 474 -219C375 -126 229 -42 38 27L44 44C209 3 398 -89 504 -188C634 -66 847 20 854 20C857 20 859 19 861 16C875 -7 892 -27 964 -32ZM708 -726C670 -531 594 -352 507 -252C418 -346 333 -516 311 -726ZM431 -653C475 -584 482 -551 486 -514C490 -479 498 -472 512 -472C527 -472 544 -503 544 -533C544 -540 543 -547 541 -553C529 -588 504 -618 441 -662Z"/>
</svg>