<svg xmlns="http://www.w3.org/2000/svg" viewBox="0 -1000 1000 1000">
	<path fill="#000000" d="M791 -697L758 -651H536C604 -703 649 -724 677 -728C684 -729 688 -731 688 -733C688 -735 685 -739 681 -743L628 -798L586 -761H345C385 -801 394 -804 413 -808C423 -810 428 -812 428 -815C428 -817 424 -820 416 -824L357 -852C306 -770 153 -615 42 -523L51 -510C84 -530 136 -570 194 -620V-485C194 -433 191 -390 189 -371V-364C189 -358 191 -355 197 -355C202 -355 210 -356 221 -360C241 -367 241 -370 241 -398H780C781 -388 782 -383 788 -383C792 -383 798 -385 807 -389C826 -397 830 -399 830 -410V-415C828 -440 827 -492 827 -519V-624L852 -638C858 -642 861 -644 861 -647C861 -649 858 -652 852 -656ZM241 -533V-630H479V-533ZM241 -419V-512H479V-419ZM526 -419V-512H780V-419ZM526 -533V-630H780V-533ZM508 -651H229C260 -680 293 -710 324 -740H587ZM540 -386C572 -358 587 -333 593 -309C600 -281 607 -275 618 -275C636 -275 649 -292 649 -309C649 -334 609 -369 547 -396ZM296 -382C345 -351 362 -320 371 -287C375 -272 380 -265 389 -265C408 -265 420 -284 420 -301C420 -347 353 -373 304 -392ZM164 -384C150 -314 112 -282 76 -268C57 -261 50 -250 50 -240C50 -228 60 -214 84 -214C94 -214 105 -217 115 -222C152 -242 174 -282 178 -383ZM718 -291L687 -251H307L255 -299C257 -270 257 -221 257 -198V-70C257 -9 255 55 253 73C252 77 252 81 252 84C252 90 254 93 258 93C263 93 270 89 283 83C302 73 304 71 304 53V21H704V71C704 81 705 86 711 86C714 86 757 67 757 53C757 51 756 49 756 47C753 23 751 -14 751 -55V-220L778 -234C784 -237 787 -240 787 -242C787 -245 784 -248 779 -251ZM304 -131V-230H704V-131ZM304 0V-110H704V0ZM746 -368C813 -333 862 -288 876 -259C885 -241 896 -234 903 -234C917 -234 930 -250 930 -270C930 -273 930 -277 929 -280C922 -314 869 -349 750 -381Z"/>
</svg>