<svg xmlns="http://www.w3.org/2000/svg" viewBox="0 -1000 1000 1000">
	<path fill="#000000" d="M799 -560L762 -519H637L725 -703C736 -726 737 -728 773 -745C777 -747 779 -749 779 -752C779 -754 777 -757 774 -760L715 -815L676 -770H181C158 -770 133 -771 108 -774L136 -737C153 -744 182 -748 203 -748H334C319 -255 171 -69 39 47L47 56C308 -127 347 -417 366 -588C408 -386 483 -242 569 -154C485 -79 365 -17 184 48L185 63C362 17 510 -48 600 -125C662 -70 723 -34 842 28C845 30 848 30 849 30C852 30 853 29 854 26C862 4 898 -13 963 -13L964 -28C853 -31 730 -85 634 -158C702 -228 751 -309 809 -449C817 -468 822 -475 855 -485C860 -487 862 -488 862 -490C862 -492 861 -494 858 -497ZM691 -748L605 -550L558 -524L606 -473C608 -471 610 -470 612 -470C614 -470 615 -471 617 -472L651 -499H769C725 -349 664 -251 601 -185C503 -273 419 -427 374 -667C377 -695 379 -722 380 -748Z"/>
</svg>