<svg xmlns="http://www.w3.org/2000/svg" viewBox="0 -1000 1000 1000">
	<path fill="#000000" d="M397 -616L369 -576H276C346 -677 372 -705 399 -706C404 -706 407 -707 407 -710C407 -712 405 -714 402 -717L348 -765L318 -730H215C227 -749 238 -769 249 -789C255 -800 263 -804 280 -809C284 -810 286 -812 286 -814C286 -817 284 -820 279 -823L219 -860C192 -768 92 -576 27 -484L38 -476C55 -489 84 -525 118 -574V-330C118 -281 117 -233 116 -218C116 -214 115 -211 115 -209C115 -201 117 -197 123 -197C133 -197 161 -205 161 -224V-238H381C381 -221 381 -214 389 -214C393 -214 399 -216 408 -221C425 -231 429 -236 429 -250V-255C426 -300 424 -354 424 -396V-541L448 -553C453 -556 456 -558 456 -561C456 -564 453 -568 448 -572ZM161 -422V-554H247V-422ZM290 -422V-554H381V-422ZM290 -260V-400H381V-260ZM161 -260V-400H247V-260ZM259 -576H165L134 -598C156 -631 180 -669 203 -708H323ZM878 -808L846 -767H569L510 -817C512 -788 513 -742 513 -719V-455C513 -408 512 -379 510 -342V-330C510 -317 512 -311 518 -311C519 -311 556 -321 556 -342V-368H862V-335C862 -327 864 -322 870 -322C874 -322 880 -323 888 -328C905 -338 909 -343 909 -356V-361C906 -403 905 -433 905 -469V-724L938 -740C942 -742 944 -744 944 -747C944 -750 942 -753 936 -758ZM725 -584V-745H862V-584ZM556 -584V-745H682V-584ZM725 -390V-562H862V-390ZM556 -390V-562H682V-390ZM659 -319C690 -277 709 -217 709 -188C709 -161 715 -152 730 -152C746 -152 763 -168 763 -193C763 -237 720 -282 668 -329ZM833 -253C892 -176 909 -133 915 -78C919 -44 921 -40 940 -40C955 -40 973 -59 973 -85C973 -125 938 -178 842 -262ZM323 -208C351 -175 372 -133 376 -108C380 -82 383 -76 396 -76C409 -76 425 -89 425 -110C425 -113 424 -115 424 -118C420 -145 388 -179 330 -216ZM232 -199C259 -163 278 -104 281 -81C285 -52 292 -43 302 -43C315 -43 336 -56 336 -79C336 -114 275 -177 243 -205ZM508 -232C508 -148 484 -92 446 -58C433 -46 428 -38 428 -30C428 -22 438 -5 456 -5C465 -5 475 -9 484 -15C514 -37 529 -77 529 -153C529 -176 528 -203 525 -233ZM809 -153C805 6 802 11 704 11C653 11 626 -1 626 -24V-197L650 -213C654 -215 656 -218 656 -220C656 -222 654 -224 649 -227L580 -264C582 -247 583 -217 583 -176V-31C583 25 591 49 696 49C827 49 839 36 864 -3C866 -6 867 -9 867 -11C867 -14 865 -16 862 -18C836 -33 831 -54 826 -153ZM164 -177C180 -138 184 -104 184 -76C184 -70 183 -45 183 -40C183 -22 190 -10 203 -10C224 -10 236 -27 236 -53C236 -80 208 -137 173 -181ZM120 -170C112 -99 97 -50 58 -14C48 -4 43 5 43 14C43 24 52 40 69 40C91 40 137 13 137 -103C137 -123 135 -146 132 -170Z"/>
</svg>