<svg xmlns="http://www.w3.org/2000/svg" viewBox="0 -1000 1000 1000">
	<path fill="#000000" d="M364 -615L336 -578H263C332 -676 349 -688 384 -698C390 -700 393 -702 393 -704C393 -706 391 -709 387 -712L328 -757L305 -729H192C228 -796 230 -800 253 -805C258 -806 261 -808 261 -810C261 -812 259 -815 255 -817L194 -856C170 -784 109 -639 20 -469L33 -463C51 -486 68 -512 92 -551V-326C92 -307 89 -221 89 -204C89 -195 91 -191 96 -191C101 -191 107 -193 117 -198C136 -207 137 -210 137 -220V-242H351C351 -214 351 -211 358 -211C362 -211 369 -213 379 -217C398 -225 403 -229 403 -241C403 -244 402 -247 402 -251C398 -296 397 -334 397 -376V-551L415 -560C421 -563 424 -566 424 -569C424 -572 421 -575 415 -579ZM137 -425V-557H219V-425ZM263 -425V-557H351V-425ZM263 -263V-404H351V-263ZM137 -263V-404H219V-263ZM243 -578H140L115 -591C133 -623 155 -660 181 -708H309ZM880 -834L844 -785H476C453 -785 428 -787 403 -789L431 -752C448 -759 477 -763 498 -763H587V-644H512L457 -690C459 -661 460 -615 460 -592V-482C460 -472 458 -428 458 -419C458 -411 459 -407 464 -407C468 -407 474 -409 483 -413C505 -422 505 -425 505 -457H844C844 -425 844 -421 852 -421C856 -421 862 -423 871 -427C890 -436 894 -440 894 -450C894 -460 890 -530 890 -545V-610C918 -630 919 -630 919 -634C919 -637 916 -639 912 -642L853 -683L831 -644H755V-763H934C943 -763 949 -765 949 -770C949 -774 945 -779 938 -785ZM632 -478V-623H710V-478ZM632 -644V-763H710V-644ZM755 -478V-623H844V-478ZM505 -478V-623H587V-478ZM820 -399L781 -355H552C529 -355 504 -357 479 -359L507 -322C524 -329 553 -333 574 -333H863C872 -333 876 -336 876 -340C876 -344 873 -349 867 -355ZM348 -192C379 -152 397 -98 397 -83C401 -54 404 -48 418 -48C431 -48 445 -70 445 -93C445 -127 407 -163 356 -199ZM263 -192C288 -137 295 -98 295 -61C295 -36 295 -23 308 -23C329 -23 345 -42 345 -68C345 -99 314 -152 273 -198ZM911 -291L863 -237H498C475 -237 450 -239 425 -241L453 -204C470 -211 499 -215 520 -215H658V-22C658 -5 657 3 631 3C613 3 585 -1 538 -7L536 9C614 27 626 36 636 70C637 75 640 78 644 78C646 78 648 77 651 76C699 51 702 45 702 -8V-215H954C963 -215 967 -217 967 -221C967 -225 964 -230 958 -237ZM174 -180C186 -148 191 -116 191 -88C191 -73 190 -59 187 -47C185 -38 184 -30 184 -25C184 -10 190 -5 203 -5C219 -5 242 -27 242 -55C242 -65 239 -102 187 -185ZM104 -166C104 -91 83 -43 55 -17C42 -5 36 5 36 13C36 26 54 35 67 35C122 35 127 -39 127 -80C127 -106 124 -135 119 -166ZM754 -148C822 -95 860 -37 879 9C885 23 890 30 900 30C918 30 933 13 933 -9C933 -58 831 -125 760 -158ZM541 -183C495 -104 430 -16 369 51L381 62C430 22 498 -48 556 -114C572 -132 578 -136 593 -140C598 -142 601 -143 601 -145C601 -147 599 -149 595 -151Z"/>
</svg>