<svg xmlns="http://www.w3.org/2000/svg" viewBox="0 -1000 1000 1000">
	<path fill="#000000" d="M449 -844C497 -809 518 -761 519 -740C520 -720 530 -708 539 -708C557 -708 576 -729 576 -754C576 -800 505 -835 455 -853ZM857 -756L818 -701H200L136 -753C137 -723 137 -701 137 -539C137 -233 117 -102 25 71L36 79C164 -91 181 -235 185 -570C186 -613 187 -644 188 -679H909C916 -679 920 -681 920 -684C920 -686 918 -690 914 -694ZM977 -113C824 -183 765 -327 735 -468H910C915 -468 918 -469 918 -472C918 -473 916 -476 913 -480L862 -535L825 -490H707V-610C711 -613 730 -628 730 -631C730 -633 727 -636 719 -639L657 -665C659 -628 662 -561 662 -520V-490H626C603 -490 579 -491 553 -494L581 -457C595 -463 622 -468 649 -468C611 -333 511 -157 444 -69L452 -59C521 -132 603 -249 662 -390V-155C662 -98 660 -7 657 51V65C657 78 659 83 665 83C670 83 677 81 686 77C706 69 709 65 709 52V43C707 -2 707 -77 707 -153V-468H717C743 -309 784 -195 887 -83C891 -79 893 -78 896 -78C898 -78 901 -79 904 -82C918 -95 937 -105 959 -105C965 -105 971 -104 977 -103ZM499 -528L466 -486H398V-597C422 -614 425 -616 425 -620C425 -623 423 -626 417 -628L350 -658C354 -584 354 -513 354 -486H269C246 -486 221 -488 196 -490L224 -453C241 -460 270 -464 291 -464H354C318 -338 216 -170 151 -77L159 -67C235 -155 306 -250 354 -359V-155C354 -98 352 -7 349 51C349 57 348 62 348 66C348 78 350 83 356 83C361 83 367 81 376 77C397 68 400 64 400 51V43C398 -2 398 -77 398 -153V-388C439 -367 468 -330 482 -294C490 -273 497 -264 507 -264C521 -264 535 -278 535 -303C535 -346 487 -375 398 -402V-464H537C543 -464 546 -465 546 -468C546 -470 544 -473 541 -477Z"/>
</svg>