<svg xmlns="http://www.w3.org/2000/svg" viewBox="0 -1000 1000 1000">
	<path fill="#000000" d="M455 -832C503 -800 520 -778 527 -760C536 -738 542 -734 547 -734C559 -734 574 -753 574 -772C574 -781 573 -824 459 -841ZM883 -573C889 -573 892 -574 892 -577C892 -579 891 -582 888 -586L841 -644L806 -595H697V-666C719 -680 721 -681 721 -684C721 -686 719 -688 715 -690L674 -707H897C903 -707 906 -709 906 -712C906 -714 904 -718 900 -722L837 -784L802 -729H194L135 -770C138 -658 140 -431 140 -414C140 -176 102 -35 35 77L45 85C163 -63 186 -189 186 -494C186 -612 186 -647 187 -707H352C353 -687 354 -670 354 -647V-591H294C271 -591 246 -593 221 -595L249 -558C266 -565 295 -569 316 -569H347C310 -506 262 -444 201 -380L211 -372C265 -416 317 -470 354 -521V-480C354 -461 352 -377 352 -360C352 -355 353 -352 357 -352C361 -352 368 -354 378 -359C397 -368 400 -371 400 -384V-392C399 -408 398 -428 398 -478V-535C433 -521 459 -499 466 -481C473 -464 482 -458 491 -458C501 -458 507 -469 507 -481C507 -510 485 -538 398 -548V-569H529C535 -569 538 -570 538 -573C538 -575 536 -579 532 -584L489 -635L456 -591H398V-658C407 -665 422 -676 422 -679C422 -681 420 -682 416 -684L368 -707H651C652 -688 653 -671 653 -649V-595H622C599 -595 574 -596 549 -599L577 -562C592 -568 617 -572 637 -573C602 -523 544 -463 456 -389L464 -380C549 -437 607 -491 653 -541V-499C653 -480 651 -396 651 -379C651 -374 652 -371 656 -371C660 -371 667 -373 677 -378C696 -387 699 -390 699 -403V-411C698 -427 697 -447 697 -497V-573H710C737 -510 774 -459 876 -391C882 -387 886 -385 889 -385C893 -385 896 -388 900 -393C912 -409 926 -416 958 -415L959 -427C874 -442 779 -496 728 -573ZM864 -98C855 16 850 19 771 24C734 26 700 27 666 27C549 27 531 26 531 -13V-82L889 -116C896 -117 899 -118 899 -121C899 -124 896 -128 891 -133L841 -182L809 -130L531 -104V-182L783 -206C790 -207 794 -208 794 -211C794 -214 791 -217 786 -221L732 -266L703 -220L531 -204V-287C605 -295 673 -305 717 -312C730 -314 742 -315 753 -315C758 -315 784 -311 789 -311C793 -311 796 -313 796 -315C796 -317 794 -321 790 -325L753 -367C662 -343 500 -312 240 -277L242 -263C310 -266 400 -273 485 -282V-200L313 -184C290 -182 256 -181 229 -182L260 -147C276 -155 295 -160 325 -163L485 -178V-100L256 -79C233 -77 199 -76 172 -77L211 -42C227 -50 246 -55 276 -58L485 -78V2C485 66 531 66 688 66C858 66 880 56 907 10C910 6 911 3 911 1C911 -2 909 -4 904 -6C882 -18 876 -38 878 -98Z"/>
</svg>