<svg xmlns="http://www.w3.org/2000/svg" viewBox="0 -1000 1000 1000">
	<path fill="#000000" d="M297 -492V-755H424V-492ZM520 -243L297 -231V-336H457C464 -336 468 -337 468 -341C468 -343 466 -345 463 -349L416 -403L384 -358H297V-470H424C424 -444 424 -441 431 -441C436 -441 442 -444 451 -448C468 -456 472 -459 472 -471C472 -483 468 -551 468 -566V-744C501 -763 502 -764 502 -767C502 -769 499 -772 494 -775L437 -813L413 -777H145L91 -816C93 -787 94 -741 94 -718V-538C94 -510 93 -459 91 -443V-436C91 -429 92 -426 97 -426C101 -426 107 -428 115 -432C136 -441 136 -444 136 -470H253V-358H134C111 -358 86 -360 61 -362L89 -325C106 -332 135 -336 156 -336H253V-228L38 -217L71 -169C73 -166 74 -165 77 -165C79 -165 82 -166 85 -168C115 -185 176 -194 524 -226ZM136 -492V-755H253V-492ZM149 -684C174 -642 184 -596 184 -565C184 -545 187 -537 199 -537C215 -537 224 -548 224 -580C224 -604 194 -654 158 -693ZM677 -841C623 -663 549 -497 477 -378L488 -371C546 -440 593 -517 710 -769C732 -627 772 -528 868 -406C870 -404 872 -403 874 -403C875 -403 877 -404 879 -405C892 -415 911 -424 939 -424C946 -424 954 -423 962 -422L965 -433C833 -496 764 -616 720 -782C726 -786 733 -790 738 -792C746 -795 751 -797 751 -800C751 -803 747 -805 740 -809ZM634 -512C666 -472 684 -426 684 -393C684 -362 691 -350 703 -350C719 -350 738 -371 738 -398C738 -446 667 -500 641 -519ZM796 -322L771 -293H592C574 -293 544 -295 519 -297L547 -260C564 -267 590 -271 614 -271H781L660 80L714 66L817 -247L848 -265C854 -269 858 -271 858 -274C858 -277 855 -279 850 -283ZM387 -157C432 -99 452 -42 456 -17C461 17 467 20 475 20C491 20 505 3 505 -19C505 -67 437 -127 394 -165ZM280 -142C313 -103 326 -42 326 -9C326 18 331 29 340 29C355 29 373 9 373 -14C373 -48 358 -75 288 -149ZM175 -135C193 -94 202 -58 202 -23C202 -16 198 18 198 24C198 41 204 50 215 50C230 50 249 34 249 6C249 -28 235 -75 184 -141ZM109 -146C102 -66 81 -23 42 22C34 31 31 39 31 47C31 57 38 68 53 68C64 68 77 63 89 49C108 27 123 -15 123 -101C123 -115 123 -130 122 -146ZM368 -699L314 -542L324 -538L384 -648C388 -655 393 -658 405 -660C411 -661 414 -663 414 -665C414 -667 412 -670 408 -672Z"/>
</svg>