<svg xmlns="http://www.w3.org/2000/svg" viewBox="0 -1000 1000 1000">
	<path fill="#000000" d="M325 -259V-361H481C489 -361 493 -362 493 -366C493 -368 490 -373 484 -380L443 -427L411 -382H325V-477H446C446 -453 446 -450 454 -450C458 -450 464 -452 473 -456C490 -463 494 -467 494 -479C494 -490 490 -559 490 -574V-749C501 -758 520 -773 520 -776C520 -779 518 -781 514 -784L457 -823L430 -783H173L119 -819C121 -790 122 -744 122 -721V-547C122 -531 119 -448 119 -446C119 -438 120 -434 125 -434C129 -434 135 -436 143 -440C165 -449 165 -452 165 -477H282V-382H155C133 -382 109 -384 85 -386L112 -350C129 -357 156 -361 177 -361H282V-256L52 -241L79 -198C81 -195 83 -194 85 -194C87 -194 89 -195 91 -196C107 -204 115 -206 522 -255L524 -272ZM325 -498V-762H446V-498ZM165 -498V-762H282V-498ZM179 -694C202 -649 211 -607 211 -572C211 -549 217 -543 224 -543C232 -543 253 -554 253 -587C253 -612 239 -642 187 -701ZM873 -737C874 -705 876 -642 876 -606V-459H769V-796C790 -812 793 -814 793 -817C793 -820 790 -822 784 -825L723 -855C724 -825 726 -768 726 -734V-459H629V-677C653 -690 656 -692 656 -695C656 -697 652 -699 646 -702L582 -733C584 -700 586 -636 586 -600V-467L557 -451L607 -411C609 -409 611 -408 613 -408C616 -408 619 -410 622 -413L645 -438H726V-25L601 -23V-277C626 -294 627 -295 627 -298C627 -301 623 -303 615 -307L554 -336C556 -303 558 -241 558 -204V-42L523 -15L574 26C577 28 579 30 581 30C583 30 586 28 589 24L611 -1L879 -5V62C879 70 880 74 885 74C889 74 894 73 903 69C922 60 926 56 926 44V38C923 -3 922 -31 922 -100V-278C945 -292 947 -294 947 -297C947 -300 943 -303 935 -307L876 -334C877 -301 879 -239 879 -202V-27L769 -26V-438H876V-409C876 -401 877 -397 881 -397C885 -397 891 -399 900 -404C919 -411 923 -415 923 -427V-433C920 -476 919 -502 919 -572V-676L939 -689C944 -692 946 -694 946 -696C946 -699 944 -701 938 -704ZM392 -178C434 -121 449 -81 449 -40C449 -21 455 -15 470 -15C483 -15 499 -27 499 -52C499 -91 463 -133 398 -189ZM291 -164C325 -115 335 -78 336 -30C336 -14 342 -4 354 -4C369 -4 388 -19 388 -46C388 -49 387 -53 387 -56C383 -84 356 -124 298 -172ZM209 -159C219 -127 223 -99 223 -74C223 -57 221 -41 217 -25C216 -22 216 -19 216 -16C216 0 226 10 240 10C255 10 268 -14 268 -51C268 -82 256 -112 218 -166ZM141 -169C132 -98 114 -59 72 -18C64 -10 58 3 58 13C58 28 74 32 82 32C118 32 160 -23 155 -169ZM395 -705L331 -539L340 -533L410 -646C421 -664 426 -669 433 -672C438 -674 440 -676 440 -678C440 -680 438 -682 435 -684Z"/>
</svg>