<svg xmlns="http://www.w3.org/2000/svg" viewBox="0 -1000 1000 1000">
	<path fill="#000000" d="M769 -811L742 -776H584C561 -776 536 -778 511 -780L539 -743C556 -750 585 -754 606 -754H757V-650H579C556 -650 531 -652 506 -654L534 -617C551 -624 580 -628 601 -628H757V-520H217V-628H456C462 -628 465 -629 465 -631C465 -633 463 -635 460 -639L412 -694L375 -650H217V-750C361 -779 409 -788 435 -788C440 -788 462 -783 467 -783C469 -783 470 -783 470 -785C470 -786 468 -788 466 -791L421 -846C364 -819 294 -791 231 -769L169 -814C171 -779 172 -714 172 -676V-553C172 -542 170 -491 170 -481C170 -467 172 -462 179 -462C183 -462 189 -464 197 -467C217 -475 217 -479 217 -498H757C757 -460 757 -459 765 -459C769 -459 775 -461 784 -466C804 -476 807 -481 807 -491C807 -503 802 -578 802 -594V-735L835 -756C840 -759 842 -761 842 -763C842 -766 840 -768 834 -772ZM917 -152C906 -101 892 -46 876 2C783 -53 744 -143 744 -331C744 -355 745 -381 746 -408C771 -427 774 -429 774 -432C774 -435 771 -437 765 -439L700 -463C702 -63 757 -7 892 69C907 77 923 81 935 81C940 81 945 80 947 78C948 77 949 75 949 72C949 67 947 61 942 54C928 36 920 1 920 -46C920 -76 923 -110 930 -149ZM253 -402C306 -371 329 -340 344 -310C351 -296 357 -292 364 -292C377 -292 383 -308 383 -325C383 -333 381 -342 378 -349C371 -365 334 -392 254 -411ZM525 -399C569 -370 607 -322 615 -306C621 -295 628 -289 635 -289C648 -289 656 -302 656 -317C656 -337 644 -380 528 -407ZM639 -109L485 -29V-417L515 -434C517 -436 519 -437 519 -438C519 -440 516 -442 512 -444L438 -476C439 -449 440 -410 440 -370V-55C440 -26 436 -15 409 5L450 54C452 56 453 57 455 57C457 57 459 55 461 52C471 34 494 6 526 -16L646 -100ZM238 -260C296 -215 312 -194 323 -164C329 -147 338 -143 347 -143C360 -143 366 -158 366 -174C366 -225 295 -253 242 -269ZM512 -257C568 -218 592 -186 603 -160C613 -137 624 -137 629 -137C642 -137 648 -147 648 -163C648 -208 615 -235 514 -263ZM373 -104L201 -19V-394L230 -412C234 -414 236 -417 236 -419C236 -421 234 -422 230 -424L155 -449C157 -406 157 -383 157 -358V-40C157 -19 153 -10 118 13L157 60C159 62 161 63 163 63C166 63 169 61 172 57C191 33 220 7 257 -16L378 -92Z"/>
</svg>