<svg xmlns="http://www.w3.org/2000/svg" viewBox="0 -1000 1000 1000">
	<path fill="#000000" d="M498 -468L481 -444H163L119 -473C121 -445 121 -417 121 -395V-274C121 -265 119 -218 119 -217C119 -212 120 -210 125 -210C128 -210 133 -211 141 -213C163 -220 163 -220 163 -243H488C488 -218 488 -215 494 -215C499 -215 534 -226 534 -240C534 -252 531 -304 531 -315V-412L547 -423C554 -428 557 -431 557 -433C557 -436 554 -439 547 -442ZM346 -351V-424H488V-351ZM163 -351V-424H303V-351ZM346 -263V-331H488V-263ZM163 -263V-331H303V-263ZM463 -798L439 -764H280C301 -792 331 -818 342 -821C350 -823 354 -825 354 -827C354 -830 350 -832 343 -835L296 -854C292 -833 278 -799 261 -764H201L155 -797C157 -769 157 -741 157 -719V-541C157 -532 155 -486 155 -484C155 -479 156 -476 161 -476C165 -476 170 -477 178 -480C197 -487 200 -489 200 -507H450C450 -486 450 -481 456 -481C460 -481 497 -492 497 -506C497 -519 494 -578 494 -590V-731C498 -734 525 -752 525 -755C525 -757 522 -760 517 -763ZM200 -606V-662H450V-606ZM200 -682V-744H450V-682ZM200 -527V-586H450V-527ZM903 -444L861 -390H766V-723H941C951 -723 955 -724 955 -728C955 -730 952 -735 945 -742L896 -793L857 -743H629C606 -743 581 -745 556 -747L584 -712C601 -719 630 -723 651 -723H721V-390H611C588 -390 563 -392 538 -394L566 -359C583 -366 612 -370 633 -370H721V-146C721 -47 720 20 717 67C717 72 716 76 716 80C716 89 718 94 724 94C728 94 735 91 746 86C766 77 770 75 770 64V59C767 14 766 -61 766 -137V-370H947C957 -370 962 -371 962 -375C962 -378 958 -383 951 -391ZM541 -211L509 -169H116C93 -169 68 -171 43 -173L71 -139C88 -146 117 -150 138 -150H222C221 -46 183 11 36 85L39 95C214 40 250 -22 267 -150H400V-25C400 -10 398 56 398 69C398 81 400 86 406 86C410 86 416 84 424 81C445 72 448 69 448 58C448 36 445 0 445 -23V-150H581C591 -150 596 -152 596 -156C596 -159 593 -163 586 -170Z"/>
</svg>