<svg xmlns="http://www.w3.org/2000/svg" viewBox="0 -1000 1000 1000">
	<path fill="#000000" d="M883 -701L856 -658H646C658 -692 670 -727 682 -763C689 -784 692 -788 722 -802C727 -804 730 -807 730 -809C730 -812 726 -815 719 -819L648 -859C640 -758 573 -550 519 -421L532 -414C549 -443 566 -473 582 -506C583 -486 583 -465 583 -453V-305C583 -278 581 -158 581 -133C581 -118 583 -112 588 -112C589 -112 622 -123 622 -145V-191H732V-131C732 -122 734 -117 738 -117C742 -117 776 -134 776 -149V-153C773 -190 772 -238 772 -299V-456L804 -475C808 -477 810 -480 810 -482C810 -484 808 -487 804 -490L742 -533L718 -491H634L592 -527C608 -561 623 -598 638 -636H869C869 -456 862 -221 850 -66C847 -24 836 -5 790 -5C765 -5 728 -11 676 -22L673 -6C761 18 787 35 795 72C796 79 798 82 802 82C804 82 806 82 810 80C866 56 890 21 894 -38C905 -221 909 -454 912 -619L946 -638C950 -640 952 -643 952 -646C952 -650 950 -653 946 -656ZM622 -213V-469H732V-213ZM457 -561C459 -528 461 -467 461 -430V-326H146V-493L174 -510C176 -512 178 -513 178 -515C178 -518 175 -520 168 -524L100 -559C103 -538 105 -510 105 -472V-59C105 -37 103 -32 63 -18L104 26C108 31 112 33 115 33C119 33 122 32 127 29C164 9 188 4 461 -30V18C461 26 462 30 467 30C471 30 476 28 483 24C502 15 505 12 505 1V-6C503 -47 502 -103 502 -171V-506L521 -518C527 -522 530 -525 530 -527C530 -530 526 -532 520 -535ZM146 -24V-304H461V-49ZM505 -646L468 -603H335V-699H498C504 -699 507 -700 507 -703C507 -705 505 -708 502 -712L453 -765L417 -721H335V-791C368 -808 369 -809 369 -812C369 -815 365 -818 357 -822L292 -854C294 -822 295 -764 295 -729V-603H194V-725C227 -742 228 -743 228 -746C228 -749 224 -752 216 -756L150 -788C152 -756 153 -698 153 -663V-603H94C77 -603 51 -604 29 -606L52 -575C67 -580 86 -581 102 -581H547C554 -581 557 -582 557 -585C557 -587 555 -590 551 -594ZM239 -576C221 -500 195 -423 161 -359L173 -351C194 -380 217 -419 242 -469C256 -456 267 -436 268 -424C270 -404 274 -398 283 -398C296 -398 306 -412 306 -429C306 -444 291 -463 248 -481C254 -493 259 -504 265 -517C270 -527 274 -531 297 -542C299 -543 300 -544 300 -545C300 -547 297 -550 290 -553ZM363 -571C345 -503 315 -418 279 -346L292 -341C309 -362 320 -380 356 -449C376 -433 388 -410 393 -390C397 -372 403 -367 409 -367C420 -367 434 -381 434 -399C434 -419 416 -439 365 -466C372 -479 379 -493 387 -509C392 -519 396 -522 419 -531C423 -532 425 -534 425 -535C425 -537 422 -540 416 -543ZM239 -295C213 -217 178 -119 149 -67L162 -60C186 -98 211 -140 238 -191C248 -179 256 -165 258 -153C262 -132 266 -128 275 -128C286 -128 298 -135 298 -154C298 -171 292 -182 246 -208C252 -219 257 -230 263 -241C267 -250 272 -254 293 -264C295 -265 296 -266 296 -267C296 -269 294 -272 288 -274ZM366 -293C340 -216 307 -139 265 -73L276 -64C301 -91 326 -127 354 -178C387 -147 398 -126 400 -113C402 -100 409 -92 415 -92C427 -92 442 -108 442 -128C442 -142 429 -160 362 -191L384 -229C391 -241 394 -245 418 -255C420 -256 421 -257 421 -258C421 -260 419 -262 413 -266Z"/>
</svg>