<svg xmlns="http://www.w3.org/2000/svg" viewBox="0 -1000 1000 1000">
	<path fill="#000000" d="M882 -335C859 -311 796 -249 753 -209C732 -260 717 -320 704 -387H840C840 -362 840 -359 847 -359C850 -359 855 -361 862 -364C883 -374 887 -378 887 -392C887 -408 882 -502 882 -523V-726L918 -749C924 -753 926 -755 926 -758C926 -761 924 -764 918 -768L855 -811L830 -770H634L573 -824C575 -784 575 -720 575 -669V-44C575 -15 569 -5 533 22L574 67C577 70 579 72 581 72C583 72 585 70 587 67C605 32 625 13 746 -65L738 -79L617 -19V-387H681C703 -191 760 -69 879 32C884 36 887 38 890 38C892 38 895 37 898 34C917 16 939 10 984 10L986 -2C872 -31 805 -96 760 -192C879 -270 898 -280 928 -286C936 -288 939 -289 939 -292C939 -294 937 -296 932 -300ZM617 -592V-748H840V-592ZM617 -409V-570H840V-409ZM416 -525C418 -484 420 -425 420 -362V-329H127V-473C155 -490 158 -492 158 -496C158 -499 155 -502 148 -505L82 -540C84 -498 86 -444 86 -394V-77C86 -39 81 -31 48 -19L89 30C91 32 93 34 95 34C98 34 100 32 104 29C120 16 166 1 420 -35C420 -22 418 39 418 49C418 61 420 67 425 67C426 67 465 53 465 31V26C463 -13 462 -51 462 -143V-463L483 -475C490 -479 493 -482 493 -484C493 -487 490 -489 483 -492ZM127 -28V-307H420V-51ZM500 -643L461 -598H336V-698H505C513 -698 517 -699 517 -702C517 -704 514 -708 508 -714L451 -768L417 -720H336V-797L363 -810C369 -813 373 -815 373 -818C373 -820 369 -823 361 -828L291 -868C293 -833 294 -794 294 -741V-598H178V-729C210 -745 214 -747 214 -750C214 -752 210 -755 204 -758L134 -794C137 -768 137 -739 137 -680V-598H97C74 -598 49 -599 24 -602L52 -565C69 -572 98 -576 119 -576H543C553 -576 557 -577 557 -580C557 -583 554 -588 547 -595ZM229 -574C212 -515 174 -427 138 -353L151 -346C167 -371 201 -427 225 -468C237 -455 245 -438 251 -415C256 -396 263 -390 269 -390C277 -390 290 -408 290 -421C290 -434 280 -455 231 -480C235 -486 238 -492 241 -497C253 -519 257 -522 267 -527C276 -531 281 -534 281 -537C281 -540 278 -542 272 -546ZM348 -568C333 -506 298 -417 258 -347L269 -340C293 -369 317 -401 343 -450C361 -431 369 -414 373 -391C377 -373 382 -367 392 -367C405 -367 410 -383 410 -401C410 -421 396 -441 352 -467C358 -478 364 -489 370 -502C380 -522 384 -527 391 -531C401 -536 405 -539 405 -542C405 -544 402 -546 395 -549ZM211 -297C198 -239 165 -157 135 -93L147 -84C168 -114 194 -156 218 -201C230 -186 237 -170 240 -154C243 -134 246 -129 252 -129C266 -129 278 -144 278 -162C278 -183 269 -195 226 -217C241 -247 246 -250 259 -257C266 -261 269 -264 269 -267C269 -269 266 -272 261 -274ZM335 -295C323 -242 280 -138 241 -67L252 -60C284 -104 307 -140 332 -184C347 -168 357 -148 362 -126C368 -101 372 -98 380 -98C392 -98 405 -116 405 -130C405 -152 384 -176 339 -198C344 -207 349 -217 354 -227C362 -242 366 -246 380 -254C385 -257 388 -260 388 -262C388 -264 385 -266 379 -270Z"/>
</svg>