<svg xmlns="http://www.w3.org/2000/svg" viewBox="0 -1000 1000 1000">
	<path fill="#000000" d="M260 -261H748V-176H260ZM797 -61C795 -89 794 -132 794 -168V-243C823 -260 827 -261 827 -265C827 -268 824 -272 818 -276L766 -314L741 -282H260L211 -319C213 -288 214 -253 214 -219V-134C214 -92 213 -64 211 -33C211 -28 210 -24 210 -20C210 -9 213 -4 219 -4C223 -4 227 -6 234 -8C258 -17 260 -21 260 -48H748C748 -24 748 -22 756 -22C760 -22 767 -24 776 -28C793 -36 797 -40 797 -55ZM260 -155H748V-69H260ZM318 -592C320 -567 321 -529 321 -510V-467C321 -457 319 -415 319 -407C319 -400 320 -397 325 -397C329 -397 335 -399 344 -402C362 -408 364 -411 364 -421V-443H644V-412C644 -406 645 -402 651 -402C653 -402 690 -410 690 -424C690 -427 688 -468 688 -476V-514L712 -527C716 -529 718 -531 718 -533C718 -535 716 -537 712 -540L658 -580L639 -552H369ZM364 -464V-532H644V-464ZM159 -677C161 -646 162 -610 162 -576V-457C162 -415 161 -367 159 -336C159 -331 158 -326 158 -322C158 -311 160 -307 166 -307C170 -307 174 -308 181 -311C205 -321 207 -326 207 -351H803C803 -322 803 -319 810 -319C814 -319 821 -320 831 -324C849 -330 853 -334 853 -351C853 -362 849 -450 849 -469V-593C874 -609 877 -610 877 -616C877 -619 875 -624 869 -628L818 -670L790 -634H207ZM207 -374V-611H803V-374ZM879 -30L847 27H115C94 27 71 25 49 23L74 58C89 52 116 48 135 48H944C954 48 960 45 960 40C960 36 957 31 948 24ZM874 -780L838 -727H140C119 -727 96 -728 74 -731L103 -700C118 -704 138 -706 160 -706H929C937 -706 941 -708 941 -712C941 -715 938 -719 933 -724ZM425 -835C466 -811 493 -781 505 -752C512 -735 519 -730 530 -730C544 -730 559 -745 559 -768C559 -773 558 -778 557 -783C552 -804 528 -821 430 -847Z"/>
</svg>