<svg xmlns="http://www.w3.org/2000/svg" viewBox="0 -1000 1000 1000">
	<path fill="#000000" d="M975 -438C825 -453 633 -605 534 -771C539 -773 564 -781 564 -784C564 -787 560 -790 553 -794L478 -834C381 -645 218 -465 24 -323L33 -312C200 -417 329 -518 504 -748C508 -753 512 -757 517 -761C603 -599 704 -480 867 -385C870 -383 873 -382 875 -382C877 -382 879 -384 881 -387C897 -415 930 -427 975 -424ZM831 -25L787 36H520V-349H746C753 -349 757 -351 757 -355C757 -359 754 -364 747 -370L686 -424L647 -371H285C262 -371 237 -373 212 -375L240 -338C257 -345 286 -349 307 -349H471V36H179C157 36 133 34 109 32L136 68C152 62 179 58 199 58H898C906 58 910 56 910 51C910 48 907 43 901 37Z"/>
</svg>