<svg xmlns="http://www.w3.org/2000/svg" viewBox="0 -1000 1000 1000">
	<path fill="#000000" d="M356 -783L332 -739H173L112 -790C114 -759 115 -722 115 -687V-323C115 -298 112 -188 112 -165C112 -151 114 -146 121 -146C125 -146 131 -148 140 -152C157 -159 160 -163 160 -177V-269H345V-176C345 -168 346 -163 352 -163C356 -163 362 -165 372 -169C392 -178 395 -182 395 -195V-203C392 -248 391 -310 391 -386V-697L420 -720C425 -724 428 -728 428 -731C428 -734 425 -736 420 -740ZM832 -798L803 -754H613L551 -799C553 -762 555 -694 555 -653V-165C555 -108 554 -18 552 41V51C552 67 554 73 561 73C565 73 571 71 580 67C602 58 606 54 606 39V33C603 -8 602 -65 602 -163V-732H821V-213C821 -197 816 -187 783 -187C760 -187 723 -192 664 -203L660 -188C755 -162 768 -151 776 -119C778 -110 780 -106 786 -106C788 -106 791 -107 795 -109C863 -140 867 -147 867 -200V-715L898 -738C904 -742 907 -746 907 -749C907 -752 904 -754 898 -758ZM160 -291V-717H345V-291Z"/>
</svg>