<svg xmlns="http://www.w3.org/2000/svg" viewBox="0 -1000 1000 1000">
	<path fill="#000000" d="M675 -721C683 -721 686 -723 686 -727C686 -729 684 -733 679 -738L630 -786L592 -743H368C345 -743 320 -745 295 -747L323 -710C336 -715 353 -718 368 -720V-437H314C291 -437 264 -439 239 -441L267 -404C284 -411 315 -415 336 -415H368C367 -155 350 -79 222 44L231 54C388 -70 412 -144 413 -415H526V-182C526 -149 523 -5 523 24C523 35 524 39 531 39C535 39 541 37 551 33C572 24 575 20 575 7V-1C572 -46 571 -109 571 -190V-415H687C693 -415 696 -416 696 -419C696 -421 694 -425 690 -429L640 -481L603 -437H571V-721ZM413 -437V-721H526V-437ZM153 -122C153 -70 152 -23 150 36V45C150 62 152 68 159 68C164 68 171 66 180 62C199 54 202 50 202 38V28C199 -17 198 -68 198 -130V-512C222 -537 222 -538 222 -541C222 -544 220 -546 216 -548L178 -567C205 -619 233 -679 265 -752C276 -778 283 -786 295 -789C304 -791 308 -793 308 -796C308 -800 304 -804 295 -809L241 -846C183 -653 113 -511 25 -357L36 -349C78 -399 115 -452 153 -520ZM836 -836C838 -799 839 -730 839 -689V-53C839 -28 832 -14 795 -14C771 -14 735 -20 680 -32L678 -17C769 10 789 24 798 61C799 67 801 70 804 70C806 70 809 69 813 67C876 34 884 19 884 -43V-770L904 -784C911 -789 914 -792 914 -796C914 -800 909 -803 902 -806ZM708 -719C711 -687 711 -625 711 -588V-350C711 -299 709 -251 708 -198C708 -186 710 -180 718 -180C722 -180 728 -182 736 -185C755 -193 759 -196 759 -210V-215C756 -256 755 -290 755 -359V-657L772 -673C776 -677 778 -679 778 -682C778 -685 775 -688 768 -691Z"/>
</svg>