<svg xmlns="http://www.w3.org/2000/svg" viewBox="0 -1000 1000 1000">
	<path fill="#000000" d="M173 -107C173 -55 172 -2 170 57V63C170 75 172 81 177 81C182 81 189 77 200 71C220 59 224 53 224 41V37C221 -8 220 -59 220 -121V-539C242 -562 244 -565 244 -569C244 -572 242 -574 236 -576L203 -587C227 -634 249 -683 279 -758C288 -780 296 -791 315 -797C323 -799 327 -802 327 -806C327 -809 323 -813 315 -818L257 -854C187 -641 134 -516 20 -327L31 -319C94 -397 134 -454 173 -527ZM975 18C833 -26 752 -73 695 -190C825 -268 839 -273 864 -274C871 -274 875 -275 875 -278C875 -280 873 -283 869 -287L820 -335C774 -284 730 -243 687 -208C664 -259 646 -321 629 -401C651 -414 654 -416 654 -420C654 -423 651 -426 645 -428L575 -457C572 -200 571 -63 250 70L252 83C391 52 504 -19 561 -109C593 -158 611 -231 618 -366C662 -102 714 -38 865 57C871 61 879 63 882 55C889 39 900 32 934 32C946 32 959 33 976 34ZM462 -328C432 -240 408 -218 375 -196C355 -183 347 -165 347 -151C347 -132 360 -122 373 -122C384 -122 399 -129 418 -145C444 -166 460 -199 479 -327ZM660 -793C665 -796 668 -799 668 -801C668 -805 665 -807 659 -810L580 -843C570 -514 521 -468 293 -356L300 -339C485 -414 559 -465 596 -584C714 -511 768 -468 832 -386C842 -374 854 -368 865 -368C881 -368 886 -383 886 -395C886 -455 740 -532 670 -568C807 -638 844 -654 870 -654C885 -654 888 -654 888 -659C888 -661 887 -664 883 -668L830 -720C773 -668 732 -634 648 -580C634 -590 619 -597 601 -604C610 -639 621 -702 628 -777ZM436 -729C415 -627 403 -606 362 -584C346 -575 337 -559 337 -545C337 -532 350 -520 362 -520C372 -520 385 -527 402 -541C435 -569 448 -604 453 -729Z"/>
</svg>