<svg xmlns="http://www.w3.org/2000/svg" viewBox="0 -1000 1000 1000">
	<path fill="#000000" d="M367 -402C369 -374 370 -331 370 -309V-58C370 -29 369 23 367 46C367 51 366 54 366 57C366 66 368 69 373 69C377 69 383 67 393 63C411 56 413 52 413 37V-17H829V39C829 50 830 55 835 55C835 55 881 39 881 21C881 19 880 17 880 14C875 -29 874 -50 874 -89V-319L901 -335C906 -338 909 -341 909 -344C909 -346 906 -349 900 -354L841 -398L813 -358H425ZM601 -39H413V-178H601ZM413 -336H601V-200H413ZM645 -336H829V-200H645ZM829 -39H645V-178H829ZM429 -689C431 -660 432 -644 432 -591V-521C432 -483 431 -454 429 -438C429 -435 428 -432 428 -430C428 -424 430 -420 435 -420C439 -420 445 -422 454 -426C475 -434 475 -438 475 -469H779V-437C779 -427 780 -423 786 -423C790 -423 796 -425 806 -430C823 -438 827 -441 827 -453V-458C825 -483 824 -503 824 -556V-610L853 -631C858 -635 861 -637 861 -640C861 -642 858 -644 852 -648L789 -687L764 -649H483ZM475 -491V-627H779V-491ZM169 -96C169 -41 167 25 165 62V72C165 83 167 87 174 87C178 87 185 85 195 81C214 73 218 68 218 54V47C216 16 215 -28 215 -111V-525C242 -542 245 -544 245 -548C245 -552 242 -556 236 -558L193 -576C226 -633 259 -696 298 -775C325 -786 328 -787 328 -792C328 -795 325 -798 320 -801L262 -840C209 -674 119 -499 15 -351L27 -341C81 -404 125 -463 169 -536ZM874 -804L838 -756H403C380 -756 356 -757 330 -760L358 -723C375 -730 404 -734 425 -734H921C931 -734 936 -735 936 -739C936 -742 932 -747 925 -754Z"/>
</svg>