<svg xmlns="http://www.w3.org/2000/svg" viewBox="0 -1000 1000 1000">
	<path fill="#000000" d="M172 -97C172 -45 171 8 169 67V73C169 85 171 91 176 91C181 91 188 87 199 81C219 69 223 65 223 53V47C220 2 219 -49 219 -111V-541C242 -565 244 -568 244 -571C244 -574 241 -576 235 -578L196 -590C222 -639 247 -693 269 -746C279 -770 286 -779 305 -785C313 -787 317 -790 317 -794C317 -797 313 -801 305 -806L247 -842C187 -649 122 -508 20 -347L31 -339C86 -410 133 -479 172 -547ZM352 -724C407 -672 423 -635 423 -610C423 -583 434 -571 446 -571C464 -571 480 -587 480 -611C480 -656 438 -685 360 -733ZM808 -763C792 -714 766 -665 720 -586L735 -576C828 -695 844 -708 864 -711C870 -712 873 -715 873 -718C873 -721 870 -724 866 -727ZM546 -745C585 -711 609 -677 614 -645C618 -620 624 -613 634 -613C653 -613 668 -625 668 -647C668 -683 636 -716 552 -752ZM843 -830C757 -810 594 -789 334 -766V-752C462 -748 606 -758 712 -770C757 -775 790 -777 817 -777C840 -777 858 -776 875 -772C878 -771 880 -771 881 -771C884 -771 886 -772 886 -774C886 -776 884 -779 881 -783ZM340 -269C342 -265 346 -263 349 -263C352 -263 354 -263 357 -265C380 -277 484 -297 591 -307C591 -278 587 -250 577 -203H324C297 -203 278 -204 254 -207L281 -171C296 -177 325 -181 345 -181H570C534 -78 449 -13 253 64L258 78C492 7 579 -60 617 -181H640C682 -82 751 -14 872 42C874 43 875 44 877 44C881 44 884 41 887 36C897 16 925 11 973 11V-3C808 -27 754 -61 658 -181H952C961 -181 965 -184 965 -188C965 -192 963 -196 957 -202L896 -255L862 -203H623C635 -247 646 -268 656 -271C663 -273 668 -278 668 -283C668 -287 665 -290 658 -293L611 -309L804 -328C809 -315 812 -302 813 -290C815 -268 830 -261 840 -261C854 -261 866 -277 866 -299C866 -327 849 -375 742 -431L736 -421C766 -392 785 -367 797 -343L414 -324C548 -381 656 -430 754 -485C788 -504 802 -507 821 -507C828 -507 832 -509 832 -512C832 -515 829 -519 825 -523L781 -566C735 -528 688 -497 623 -461L412 -462C449 -477 491 -498 558 -534C576 -544 603 -552 619 -552C631 -552 634 -552 634 -556C634 -558 632 -562 627 -566L580 -604C543 -575 492 -538 446 -508C391 -472 374 -467 331 -462L365 -412C367 -409 369 -408 371 -408C374 -408 376 -409 379 -411C390 -419 428 -427 511 -434L585 -440C546 -417 512 -399 445 -367C361 -326 352 -323 310 -320Z"/>
</svg>