<svg xmlns="http://www.w3.org/2000/svg" viewBox="0 -1000 1000 1000">
	<path fill="#000000" d="M775 -489L744 -449H600L541 -500C543 -469 544 -446 544 -416V-274C544 -260 542 -193 542 -188C542 -180 543 -177 548 -177C552 -177 557 -179 565 -182C585 -190 586 -194 586 -204V-236H765V-182C765 -174 767 -171 771 -171C774 -171 779 -172 786 -175C807 -184 812 -187 812 -197C812 -200 809 -250 809 -260V-413L836 -427C841 -430 844 -431 844 -433C844 -435 841 -438 837 -441ZM586 -258V-426H765V-258ZM397 -482L368 -447H230L173 -498C175 -467 176 -444 176 -414V-276C176 -260 174 -191 174 -177C174 -170 175 -167 180 -167C183 -167 189 -169 198 -173C218 -181 220 -184 220 -195V-234H389V-187C389 -179 390 -176 394 -176C398 -176 434 -186 434 -202C434 -205 430 -256 430 -266V-412L454 -424C459 -427 462 -429 462 -431C462 -433 460 -435 457 -437ZM220 -256V-424H389V-256ZM470 -867C354 -711 188 -564 10 -442L19 -427C165 -503 311 -621 490 -796C496 -802 504 -807 513 -811C594 -669 691 -596 876 -518C880 -516 883 -515 884 -515C887 -515 888 -517 889 -519C901 -546 925 -553 976 -562L978 -578C822 -567 624 -667 532 -818C551 -821 556 -823 556 -825C556 -826 553 -828 549 -830ZM637 -630L591 -584H319C296 -584 284 -584 261 -587L286 -553C303 -560 320 -562 341 -562H687C692 -562 694 -563 694 -565C694 -567 692 -569 689 -573ZM638 -226C592 -125 499 3 402 75L410 88C482 49 558 -19 631 -115C739 -61 800 -7 833 39C843 53 852 59 858 59C873 59 886 47 886 24C886 -26 819 -71 643 -131C650 -140 656 -148 662 -157C670 -168 686 -176 707 -179C712 -180 714 -181 714 -183C714 -185 712 -187 708 -189ZM289 -225C242 -115 146 12 65 74L74 88C138 53 225 -33 294 -133C347 -99 387 -53 404 -21C410 -10 414 -8 421 -8C435 -8 450 -26 450 -46C450 -86 401 -110 304 -146C321 -170 330 -174 348 -179C352 -180 355 -182 355 -184C355 -186 353 -188 349 -190Z"/>
</svg>