<svg xmlns="http://www.w3.org/2000/svg" viewBox="0 -1000 1000 1000">
	<path fill="#000000" d="M893 -616L856 -564H738C742 -631 744 -705 745 -783C768 -803 770 -805 770 -808C770 -811 767 -813 760 -816L701 -844C702 -809 702 -775 702 -741C702 -680 701 -620 699 -564C663 -564 658 -564 608 -568L635 -531C651 -538 678 -542 698 -542C686 -187 643 -79 495 74L505 82C684 -74 717 -180 737 -542H943C951 -542 954 -544 954 -547C954 -550 952 -554 947 -559ZM922 -186C917 -19 914 -13 866 -13C813 -13 807 -15 807 -72V-446C830 -461 832 -463 832 -466C832 -468 830 -469 825 -472L762 -505C764 -465 765 -414 765 -386V-67C765 14 783 26 856 26C933 26 948 16 972 -35C974 -38 974 -41 974 -43C974 -46 972 -48 968 -50C947 -58 934 -84 937 -186ZM548 -592L520 -556H379L329 -597C330 -569 331 -526 331 -504V-429C331 -411 329 -334 329 -318C329 -306 330 -301 337 -301C341 -301 348 -303 357 -308C371 -315 371 -318 371 -346H435V-33C435 -23 433 -18 419 -18C403 -18 373 -24 314 -37L312 -24C388 -2 401 16 408 43C410 50 411 52 414 52C416 52 418 52 421 50C466 25 475 16 475 -33V-346H539C539 -307 539 -303 546 -303C551 -303 558 -306 570 -312C581 -317 583 -320 583 -329V-335C581 -355 580 -366 580 -406V-524L597 -537C601 -540 603 -542 603 -545C603 -547 601 -550 596 -554ZM371 -368V-534H539V-368ZM381 -838C421 -797 443 -741 445 -717C447 -699 450 -696 459 -696C474 -696 492 -718 492 -740C492 -769 455 -806 386 -846ZM797 -776C849 -729 866 -697 875 -668C881 -649 885 -644 895 -644C904 -644 918 -662 918 -687C918 -723 896 -743 806 -784ZM588 -721L550 -669H331C308 -669 283 -671 258 -673L285 -636C302 -643 331 -647 352 -647H641C649 -647 653 -648 653 -651C653 -654 650 -658 645 -663ZM241 -845C195 -667 124 -488 24 -334L35 -326C88 -395 129 -460 170 -540V-123C170 -71 169 -14 167 45V54C167 71 169 77 176 77C181 77 188 75 197 71C212 65 216 63 216 49C216 46 215 42 215 37C212 -8 211 -59 211 -121V-537C234 -554 237 -555 237 -558C237 -561 234 -563 228 -566L192 -585C217 -639 243 -699 272 -770C275 -778 284 -785 300 -792C307 -795 311 -797 311 -800C311 -802 307 -805 301 -809ZM491 -261C539 -224 568 -171 574 -150C578 -134 585 -128 592 -128C605 -128 618 -144 618 -166C618 -205 578 -231 498 -271ZM341 -259C324 -200 264 -73 229 -24L241 -17C274 -57 299 -92 369 -201C373 -207 378 -211 388 -214C395 -216 399 -218 399 -221C399 -224 397 -226 391 -230Z"/>
</svg>