<svg xmlns="http://www.w3.org/2000/svg" viewBox="0 -1000 1000 1000">
	<path fill="#000000" d="M426 -241V-320H802V-241ZM380 -480C382 -446 383 -414 383 -377V-219C383 -169 382 -135 380 -93C380 -88 379 -83 379 -80C379 -68 381 -63 387 -63C391 -63 397 -66 406 -70C422 -78 426 -84 426 -114H802C802 -96 805 -90 813 -90C817 -90 822 -91 829 -94C846 -101 850 -104 850 -116C850 -120 849 -123 849 -128C846 -160 845 -187 845 -235V-400C851 -403 880 -421 880 -424C880 -426 878 -428 874 -431L812 -471L787 -434H442ZM426 -132V-223H802V-132ZM426 -338V-415H802V-338ZM368 -780C370 -751 371 -733 371 -710V-616C371 -609 369 -579 369 -573C369 -565 370 -561 376 -561C384 -561 414 -571 414 -590V-607H590V-523H350C327 -523 302 -524 277 -527L305 -494C322 -501 351 -505 372 -505H962C968 -505 971 -506 971 -510C971 -512 969 -516 963 -522L907 -577L863 -523H633V-607H818C818 -569 818 -569 825 -569C829 -569 835 -571 845 -575C860 -581 863 -584 863 -594C863 -603 861 -644 861 -652V-708C894 -728 895 -728 895 -732C895 -735 893 -737 889 -739L828 -779L801 -742H633V-787C662 -804 665 -806 665 -810C665 -814 661 -818 652 -822L586 -856C589 -823 590 -803 590 -742H423ZM590 -625H414V-723H590ZM633 -625V-723H818V-625ZM520 -89C455 -33 347 31 258 72L263 85C338 62 408 35 522 -22C547 -35 560 -39 580 -37C586 -36 589 -38 589 -41C589 -44 587 -46 583 -49ZM181 -109C181 -57 180 -4 178 55V61C178 73 180 79 185 79C190 79 197 75 208 69C228 57 232 53 232 41V35C229 -10 228 -61 228 -123V-516C250 -532 253 -534 253 -538C253 -542 250 -545 244 -547L206 -562C240 -624 271 -688 297 -750C307 -774 314 -783 333 -789C341 -791 345 -794 345 -798C345 -801 341 -805 333 -810L275 -846C219 -653 124 -468 22 -317L33 -309C86 -369 136 -442 181 -517ZM674 -69C785 -22 842 11 876 48C898 71 904 73 912 73C926 73 938 54 938 35C938 29 937 23 934 18C915 -20 859 -44 678 -81Z"/>
</svg>