<svg xmlns="http://www.w3.org/2000/svg" viewBox="0 -1000 1000 1000">
	<path fill="#000000" d="M178 -109C178 -57 177 -4 175 55V61C175 73 177 79 182 79C187 79 194 75 205 69C225 57 229 53 229 41V35C226 -10 225 -61 225 -123V-551C246 -573 249 -576 249 -580C249 -586 245 -587 215 -596C243 -649 268 -704 291 -760C301 -784 308 -793 327 -799C335 -801 339 -804 339 -808C339 -811 335 -815 327 -820L269 -856C209 -661 129 -494 29 -337L39 -327C89 -387 136 -455 178 -527ZM706 -140C774 -102 827 -54 852 -6C869 26 878 34 889 34C900 34 912 18 912 -4C912 -13 911 -22 907 -31C896 -58 826 -108 711 -153ZM449 -172C390 -88 338 -32 238 58L247 67C328 13 361 -14 442 -88C463 -108 486 -119 504 -120C511 -121 515 -123 515 -126C515 -128 513 -131 510 -133ZM562 -412C619 -478 661 -531 715 -612V-509C715 -499 711 -415 711 -398C711 -390 712 -386 717 -386C718 -386 759 -399 759 -421C759 -438 758 -512 758 -527V-672C796 -570 828 -517 882 -458C884 -456 886 -454 889 -454C891 -454 893 -455 894 -457C904 -471 924 -478 968 -476L970 -487C894 -504 824 -562 772 -678H931C937 -678 940 -679 940 -682C940 -684 938 -687 934 -691L882 -741L848 -699H758V-786C762 -789 786 -804 786 -806C786 -808 784 -810 779 -813L712 -848C714 -826 715 -800 715 -762V-699H664C646 -699 626 -700 606 -703L630 -669C648 -678 657 -678 710 -678C667 -587 624 -519 550 -420ZM282 -405C348 -466 402 -534 443 -608V-504C443 -469 442 -425 439 -390V-386C439 -377 441 -373 445 -373C449 -373 488 -391 488 -407V-410C486 -435 486 -467 486 -512V-611C524 -588 543 -565 549 -546C554 -528 564 -523 571 -523C580 -523 589 -539 589 -555C589 -599 507 -621 486 -627V-677H597C603 -677 605 -678 605 -680C605 -682 604 -684 600 -688L554 -735L524 -698H486V-779C491 -782 514 -796 514 -799C514 -801 511 -802 506 -805L441 -841C442 -819 443 -793 443 -755V-698H359C341 -698 322 -699 301 -702L323 -666C337 -673 360 -677 377 -677H438C396 -584 354 -516 272 -413ZM803 -388L770 -343H427C409 -343 385 -344 364 -347L392 -311C404 -317 428 -321 444 -321H861C866 -321 869 -322 869 -324C869 -326 867 -328 863 -332ZM589 -13C589 8 584 20 558 20C537 20 502 12 445 -6L442 6C528 34 548 53 553 84C554 88 556 90 559 90C560 90 561 90 562 89C627 61 635 45 635 -11V-207H959C965 -207 968 -208 968 -210C968 -212 966 -215 961 -220L902 -279L859 -229H337C319 -229 293 -231 274 -233L301 -197C314 -203 338 -207 355 -207H589Z"/>
</svg>