<svg xmlns="http://www.w3.org/2000/svg" viewBox="0 -1000 1000 1000">
	<path fill="#000000" d="M386 -463C387 -441 389 -391 389 -366V-258H342C319 -258 294 -260 269 -262L297 -225C314 -232 336 -236 364 -236H947C958 -236 962 -239 962 -243C962 -247 959 -252 952 -258L906 -303L868 -258H845V-389L875 -401C881 -404 884 -406 884 -409C884 -412 881 -416 875 -420L818 -463L792 -427H440ZM662 -258H567V-405H662ZM525 -258H431V-405H525ZM704 -258V-405H802V-258ZM398 -782C393 -721 374 -691 344 -660C330 -646 324 -636 324 -629C324 -620 336 -610 352 -610C390 -610 414 -653 416 -717H844L794 -641L808 -634C861 -689 884 -700 923 -700C930 -700 934 -701 934 -704C934 -707 931 -711 925 -716L868 -774L835 -739H416C417 -752 416 -766 413 -782ZM580 -689C616 -650 626 -626 628 -600C630 -576 633 -571 646 -571C663 -571 680 -591 680 -613C680 -644 641 -672 587 -698ZM430 -636C423 -584 409 -557 373 -532C361 -524 356 -515 356 -507C356 -500 364 -479 383 -479C391 -479 400 -482 409 -488C433 -504 445 -538 445 -596C445 -608 444 -621 443 -636ZM774 -619C822 -572 843 -538 847 -518C853 -491 856 -484 869 -484C881 -484 900 -499 900 -524C900 -551 880 -583 783 -628ZM548 -847C583 -820 603 -793 608 -775C614 -753 617 -745 627 -745C642 -745 661 -758 661 -780C661 -825 593 -846 554 -856ZM601 -13C601 9 599 18 566 18C546 18 515 14 465 8L463 23C556 44 564 48 570 81C571 87 573 90 577 90C579 90 581 89 584 88C638 64 644 55 644 -3V-138H876C887 -138 893 -140 893 -145C893 -148 890 -152 884 -158L831 -209L789 -160H401C378 -160 353 -162 328 -164L360 -127C377 -134 399 -138 427 -138H601ZM735 -616C730 -517 729 -516 612 -516C544 -516 539 -518 539 -556V-604C549 -608 570 -618 570 -620C570 -623 568 -626 562 -629L497 -663C498 -642 499 -613 499 -586V-548C499 -485 504 -479 610 -479C752 -479 760 -489 784 -519C786 -522 787 -524 787 -525C787 -528 785 -530 781 -531C757 -537 750 -549 751 -616ZM182 -111C182 -59 181 -6 179 53V59C179 71 181 77 187 77C191 77 199 73 210 67C230 56 233 51 233 40V33C230 -12 228 -63 228 -125V-533C251 -556 253 -558 253 -562C253 -565 250 -568 245 -570L213 -585C244 -639 272 -695 298 -754C309 -778 317 -784 338 -791C346 -793 350 -796 350 -800C350 -803 345 -807 337 -811L279 -847C214 -661 132 -499 27 -338L39 -329C93 -395 140 -462 182 -532Z"/>
</svg>