<svg xmlns="http://www.w3.org/2000/svg" viewBox="0 -1000 1000 1000">
	<path fill="#000000" d="M361 -177V-277H530V-177ZM317 -462C319 -427 320 -403 320 -364V-51C320 -1 319 25 316 59V69C316 79 317 83 322 83C326 83 332 80 341 74C362 62 363 58 363 45C362 12 361 -23 361 -65V-156H530V-28C530 -7 528 1 502 1C486 1 460 -2 418 -9L415 6C476 22 493 32 506 61C508 66 510 68 514 68C516 68 518 67 521 66C570 39 574 30 574 -29V-386C598 -401 600 -403 600 -405C600 -408 598 -410 593 -413L537 -450L517 -416H367ZM361 -299V-394H530V-299ZM155 -100C155 -45 153 21 151 58V68C151 79 153 83 160 83C164 83 171 81 181 77C200 69 203 65 203 51V43C201 -2 201 -53 201 -115V-527C223 -545 225 -547 225 -553C225 -557 222 -561 216 -564L186 -577C215 -636 244 -703 275 -782C301 -795 303 -797 303 -801C303 -803 301 -806 295 -810L234 -845C191 -677 118 -496 21 -341L33 -332C79 -392 118 -451 155 -518ZM574 -768L541 -726H347C324 -726 303 -727 277 -730L305 -694C322 -701 348 -705 369 -705H615C621 -705 625 -706 625 -709C625 -712 622 -717 615 -724ZM833 -427C833 -422 834 -419 837 -419C841 -419 879 -435 879 -445C879 -456 877 -473 877 -484V-572C906 -586 909 -588 909 -592C909 -594 906 -597 900 -601L846 -638L825 -605H703V-705H926C934 -705 937 -706 937 -709C937 -712 935 -715 929 -721L880 -771L846 -727H703V-794L727 -810C731 -813 733 -815 733 -817C733 -820 730 -822 725 -824L660 -853C662 -818 663 -796 663 -757V-608L632 -585L687 -558C690 -556 692 -555 694 -555C696 -555 698 -558 714 -583H833V-473H707L655 -514C657 -483 658 -422 658 -393V-38C658 39 670 52 806 52C933 52 948 34 966 -2C968 -6 969 -9 969 -12C969 -15 967 -17 965 -18C939 -32 932 -54 932 -128H918C912 12 912 12 802 12C703 12 702 7 702 -56V-119H883C891 -119 895 -120 895 -123C895 -125 892 -129 887 -135L841 -186L808 -141H702V-229H879C887 -229 891 -230 891 -233C891 -236 888 -240 883 -245L840 -288L806 -251H702V-338H911C919 -338 923 -339 923 -342C923 -345 920 -349 915 -354L866 -401L839 -360H702V-452H833ZM327 -522C304 -522 281 -523 254 -526L282 -489C299 -496 328 -500 349 -500H636C644 -500 647 -501 647 -504C647 -506 645 -510 640 -515L596 -563L562 -522H500C559 -631 562 -635 588 -643C596 -646 600 -648 600 -651C600 -654 597 -657 589 -661L533 -692C521 -643 500 -576 480 -522ZM330 -678C362 -640 378 -606 378 -574C378 -545 383 -537 396 -537C418 -537 429 -564 429 -582C429 -618 380 -659 339 -686ZM385 -843C425 -805 437 -784 442 -757C445 -741 453 -734 464 -734C475 -734 493 -749 493 -771C493 -774 493 -778 492 -781C488 -800 470 -822 393 -851Z"/>
</svg>