<svg xmlns="http://www.w3.org/2000/svg" viewBox="0 -1000 1000 1000">
	<path fill="#000000" d="M906 -542L869 -491H823V-575L850 -593C854 -596 856 -598 856 -600C856 -603 854 -605 850 -607L787 -647L761 -610H610V-698H923C934 -698 939 -699 939 -703C939 -706 935 -712 927 -720L873 -773L836 -720H610V-791C615 -795 641 -815 641 -818C641 -821 637 -823 630 -826L562 -854C563 -816 564 -779 564 -720H349C326 -720 301 -722 276 -724L304 -687C321 -694 350 -698 371 -698H564V-610H408C385 -610 360 -611 335 -613L363 -581C380 -586 409 -588 430 -588H564V-491H360C337 -491 312 -493 287 -495L315 -458C332 -465 361 -469 382 -469H564V-365H383C360 -365 335 -367 310 -369L338 -332C355 -339 384 -343 405 -343H777V-313C777 -304 779 -300 785 -300C789 -300 795 -302 804 -305C824 -312 828 -315 828 -325V-329C824 -367 823 -422 823 -469H951C960 -469 965 -471 965 -475C965 -479 962 -484 955 -491ZM610 -491V-588H777V-491ZM610 -365V-469H777V-365ZM873 -279L832 -227H499L550 -294C577 -304 580 -306 580 -310C580 -312 578 -314 573 -316L520 -339C489 -289 467 -254 449 -227H306C283 -227 258 -229 233 -231L261 -194C278 -201 307 -205 328 -205H435C413 -173 395 -150 367 -115C448 -99 518 -82 577 -64C479 0 379 39 201 74L202 90C397 67 514 30 626 -49C728 -16 797 19 843 58C853 67 863 70 870 70C883 70 890 56 890 41C890 28 885 12 873 2C850 -17 779 -46 661 -77C689 -102 721 -140 762 -205H918C927 -205 931 -207 931 -212C931 -215 928 -220 922 -227ZM482 -205H698C672 -156 638 -115 609 -89C555 -102 493 -115 423 -127ZM61 -752C121 -708 155 -650 165 -619C178 -581 184 -577 197 -577C211 -577 224 -600 224 -626C224 -633 223 -641 221 -648C210 -683 136 -734 68 -763ZM289 -666L162 -337C142 -287 132 -272 83 -272C70 -272 54 -273 34 -275L33 -261C138 -243 138 -228 138 -196C138 -173 132 -136 120 -75C118 -65 117 -55 117 -47C117 -18 129 -1 149 -1C172 -1 189 -14 189 -57C189 -71 187 -89 183 -111C179 -132 176 -151 176 -174C176 -244 202 -351 304 -661Z"/>
</svg>