<svg xmlns="http://www.w3.org/2000/svg" viewBox="0 -1000 1000 1000">
	<path fill="#000000" d="M424 -305C428 -338 430 -370 430 -400H768V-305ZM431 -422C433 -452 434 -481 433 -508H768V-422ZM576 -849C499 -706 393 -588 271 -471L278 -458C314 -482 348 -508 384 -540C386 -508 386 -482 386 -454C386 -145 345 -85 215 38L223 50C355 -43 409 -117 423 -283H768V-256C768 -250 769 -247 773 -247C777 -247 783 -250 793 -255C816 -266 820 -271 820 -279V-283C816 -314 815 -339 815 -367V-494L837 -505C840 -506 841 -508 841 -509C841 -511 839 -513 836 -515L772 -556L752 -530H435L400 -555C458 -609 521 -680 605 -785C607 -788 611 -791 615 -793C680 -670 738 -601 882 -522C884 -521 886 -520 887 -520C890 -520 893 -522 894 -525C904 -545 930 -558 974 -560V-572C811 -593 721 -673 636 -799C641 -800 646 -801 651 -801C658 -802 662 -803 662 -806C662 -808 659 -811 654 -813ZM437 -232C439 -198 439 -172 439 -136V-20C439 13 438 43 436 78V81C436 85 437 87 441 87C445 87 452 85 464 78C483 68 484 64 484 50V8H769V73C769 80 770 84 775 84C779 84 785 82 793 78C815 68 820 63 820 54V51C817 25 816 12 816 -18V-142L848 -161C852 -163 854 -165 854 -167C854 -169 851 -171 847 -173L783 -215L755 -181H495ZM484 -14V-159H769V-14ZM547 -660C583 -633 601 -596 604 -559C605 -549 612 -543 625 -543C638 -543 657 -560 657 -585C657 -630 591 -657 553 -669ZM311 -710L175 -375C144 -298 130 -290 43 -288V-268C118 -264 144 -254 144 -174C144 -145 139 -106 129 -56C127 -48 127 -41 127 -34C127 -6 139 16 157 16C184 16 201 -8 201 -47C201 -54 200 -62 199 -70C188 -142 183 -191 183 -227C183 -257 186 -277 192 -294L329 -702ZM68 -757C114 -731 143 -692 160 -641C172 -605 182 -594 194 -594C210 -594 226 -615 226 -643C226 -651 225 -659 222 -667C211 -703 163 -740 73 -770Z"/>
</svg>