<svg xmlns="http://www.w3.org/2000/svg" viewBox="0 -1000 1000 1000">
	<path fill="#000000" d="M445 -374H227V-540H445ZM181 -153L47 -124L83 -66C85 -63 87 -61 89 -61C91 -61 94 -63 96 -65C116 -86 140 -100 216 -121L445 -183V-82C445 -59 443 41 443 62C443 73 445 78 452 78C456 78 463 76 472 72C490 64 494 61 494 45V38C492 -2 491 -40 491 -90V-195L605 -226L603 -244L491 -220V-733H589C596 -733 600 -734 600 -737C600 -739 598 -742 594 -746L539 -808L503 -755H140C117 -755 92 -757 67 -759L95 -722C122 -733 156 -733 181 -733ZM445 -352V-210L227 -163V-352ZM445 -562H227V-733H445ZM837 -832C839 -794 841 -748 841 -686V-21C841 1 835 14 797 14C775 14 743 10 697 1L694 17C783 43 794 56 800 81C801 87 803 89 807 89C809 89 812 88 815 87C878 59 888 42 888 -11V-759L914 -775C919 -778 922 -781 922 -784C922 -787 919 -790 912 -794ZM652 -704C653 -671 655 -628 655 -591V-336C655 -299 653 -241 653 -204C653 -189 655 -183 661 -183C668 -183 701 -196 701 -216C701 -236 699 -327 699 -345V-639L722 -653C726 -655 729 -658 729 -660C729 -663 726 -666 720 -669Z"/>
</svg>