<svg xmlns="http://www.w3.org/2000/svg" viewBox="0 -1000 1000 1000">
	<path fill="#000000" d="M387 -582H472C481 -582 486 -584 486 -587C486 -590 483 -595 477 -601L434 -647L401 -604H387V-776L413 -791C419 -795 422 -797 422 -800C422 -802 419 -805 413 -807L338 -841C340 -810 342 -762 342 -695V-604H217V-766L247 -783C254 -787 257 -790 257 -793C257 -795 254 -798 248 -800L169 -835C171 -800 172 -749 172 -707V-604H126C103 -604 78 -606 53 -608L81 -571C108 -582 141 -582 172 -582V-334H114C91 -334 66 -336 41 -338L69 -302C86 -309 115 -313 136 -313H172C171 -129 147 -13 25 73L31 86C176 6 215 -111 217 -313H342V-176C342 -113 341 -40 339 12V18C339 30 341 36 347 36C352 36 358 33 368 28C386 19 391 14 391 -1V-6C388 -51 387 -108 387 -184V-313H507C516 -313 521 -315 521 -320C521 -323 518 -328 512 -334L464 -383L421 -334H387ZM217 -582H342V-334H217ZM559 -586C561 -488 542 -455 499 -419C490 -412 485 -404 485 -396C485 -387 493 -371 512 -371C531 -371 587 -397 587 -493C587 -520 583 -552 576 -592ZM837 -697C837 -520 810 -159 795 -95C783 -43 767 -20 714 -20C689 -20 656 -25 611 -34L609 -19C695 5 711 19 719 51C720 57 723 59 727 59C729 59 731 58 734 57C813 15 829 -18 839 -80C846 -123 857 -227 866 -350C896 -311 906 -285 917 -247C927 -209 932 -203 943 -203C959 -203 976 -225 976 -253C976 -299 936 -335 869 -383C876 -479 882 -581 884 -672L919 -696C924 -699 926 -701 926 -704C926 -706 924 -709 919 -713L852 -765L821 -720H567C544 -719 521 -720 495 -722L525 -687C542 -694 555 -697 589 -697H667C636 -227 565 -93 369 70L376 84C597 -63 677 -220 713 -697Z"/>
</svg>