<svg xmlns="http://www.w3.org/2000/svg" viewBox="0 -1000 1000 1000">
	<path fill="#000000" d="M181 -626V-745H526V-626ZM133 -817C136 -785 138 -730 138 -688V-496C138 -164 114 -71 33 66L45 76C149 -57 180 -135 181 -478H335C319 -441 287 -391 258 -355C249 -344 226 -331 200 -327L229 -280C232 -275 235 -273 239 -273C242 -273 246 -274 250 -277C269 -289 377 -308 521 -328C527 -317 530 -307 530 -301C530 -272 541 -261 553 -261C567 -261 581 -275 581 -295C581 -318 554 -374 465 -437L457 -427C482 -402 501 -372 513 -347L262 -327C303 -367 353 -423 391 -478H602C612 -478 616 -479 616 -482C616 -484 614 -487 610 -491L553 -546L522 -500H181V-604H526C526 -568 526 -564 532 -564C535 -564 539 -565 546 -569C567 -580 572 -584 572 -594C572 -599 566 -678 566 -694V-733L596 -752C601 -755 604 -758 604 -760C604 -763 601 -766 595 -770L534 -811L508 -767H195ZM374 -22L150 6L183 54C187 60 190 63 194 63C196 63 198 61 201 59C216 44 241 36 357 13L603 -36L600 -51L418 -28V-145H584C593 -145 598 -146 598 -149C598 -152 594 -156 588 -162L536 -213L502 -167H418V-238L442 -250C447 -253 450 -255 450 -257C450 -259 447 -261 442 -263L371 -291C373 -266 374 -234 374 -167H274C253 -167 228 -168 202 -171L230 -134C247 -141 276 -145 297 -145H374ZM844 -846C847 -808 848 -762 848 -700V-43C848 -21 842 -8 804 -8C782 -8 750 -12 704 -21L701 -5C790 21 801 34 807 59C808 65 810 67 814 67C816 67 819 66 822 65C885 37 894 20 894 -33V-773L920 -789C925 -792 928 -795 928 -798C928 -801 925 -804 918 -808ZM670 -685C674 -649 676 -609 676 -572V-325C676 -288 674 -230 674 -193C674 -178 676 -172 682 -172C686 -172 692 -174 701 -179C720 -189 722 -195 722 -209C721 -248 720 -288 720 -334V-620L743 -634C747 -636 750 -639 750 -641C750 -644 747 -647 741 -650Z"/>
</svg>