<svg xmlns="http://www.w3.org/2000/svg" viewBox="0 -1000 1000 1000">
	<path fill="#000000" d="M306 -186H242C219 -186 194 -188 169 -190L197 -153C214 -160 243 -164 264 -164H306V-78H211C188 -78 163 -80 138 -82L166 -45C183 -52 212 -56 233 -56H306V37C306 43 307 47 311 47C312 47 351 34 351 17V12C349 -16 349 -45 349 -102V-306C370 -320 372 -322 372 -326C372 -329 370 -331 366 -333L302 -359C305 -332 306 -315 306 -287H239C216 -287 191 -289 166 -291L194 -254C211 -261 240 -265 261 -265H306ZM166 -376C209 -413 234 -440 265 -490C265 -469 263 -377 263 -358C263 -350 264 -346 268 -346C272 -346 278 -348 288 -353C303 -360 306 -364 306 -378C306 -392 305 -457 305 -470V-508C330 -493 346 -479 352 -468C358 -457 367 -451 373 -451C379 -451 390 -462 390 -473C390 -478 390 -509 305 -522V-547H387C392 -547 394 -549 394 -551C394 -553 393 -556 390 -559L348 -604L320 -570H305V-639C322 -651 324 -653 324 -655C324 -657 322 -658 318 -660L262 -683C264 -660 265 -637 265 -611V-570C219 -570 200 -570 167 -574L194 -536C210 -543 231 -547 256 -547C224 -479 201 -442 159 -385ZM486 -316C507 -329 509 -331 509 -334C509 -337 507 -339 503 -341L439 -371C441 -334 443 -266 443 -225V-55C443 -40 441 30 441 41C441 51 442 55 447 55C451 55 457 53 465 50C483 43 486 37 486 25V-57H661C668 -57 671 -58 671 -61C671 -63 669 -67 665 -71L617 -124L585 -79H486V-165H644C650 -165 654 -167 654 -170C654 -173 652 -175 648 -178L586 -226L555 -187H486V-265H635C641 -265 644 -266 644 -268C644 -270 642 -273 639 -277L589 -330L556 -287H486ZM846 -833C849 -796 850 -763 850 -687V-52C850 -21 845 -6 806 -6C781 -6 742 -12 682 -24L681 -10C773 17 790 30 800 65C802 71 804 74 808 74C810 74 813 73 816 71C887 34 895 21 895 -41V-756L920 -773C926 -777 928 -780 928 -783C928 -787 926 -790 920 -793ZM700 -711C702 -678 703 -643 703 -580V-325C703 -288 701 -242 697 -188C697 -184 696 -181 696 -178C696 -171 698 -168 702 -168C706 -168 711 -170 720 -174C742 -184 747 -189 747 -202C746 -247 745 -296 745 -341V-638L771 -655C776 -658 778 -662 778 -665C778 -669 775 -673 767 -677ZM341 -371C400 -411 440 -444 473 -496C473 -426 473 -402 471 -372V-368C471 -363 472 -360 476 -360C481 -360 517 -371 517 -389C517 -392 517 -396 516 -401C513 -425 513 -453 513 -507C548 -483 574 -454 585 -426C591 -413 599 -405 605 -405C611 -405 625 -418 625 -435C625 -441 623 -447 621 -453C608 -476 573 -503 513 -526V-549H628C633 -549 635 -550 635 -553C635 -555 634 -557 631 -561L592 -608L561 -572H513V-638C530 -650 532 -651 532 -655C532 -657 530 -659 526 -660L470 -682C472 -659 473 -636 473 -610V-572C448 -572 424 -572 391 -576L418 -538C435 -546 446 -548 462 -548C427 -479 397 -441 334 -378ZM105 -761C108 -667 111 -498 111 -438C111 -182 89 -75 38 54L49 61C99 -14 153 -97 153 -626C153 -651 153 -675 152 -699H668C673 -699 675 -700 675 -701C675 -703 674 -705 671 -708L618 -766L579 -717H161ZM303 -845C351 -815 375 -772 382 -752C390 -730 398 -724 407 -724C424 -724 437 -741 437 -763C437 -770 435 -777 432 -785C422 -810 385 -836 309 -856Z"/>
</svg>