<svg xmlns="http://www.w3.org/2000/svg" viewBox="0 -1000 1000 1000">
	<path fill="#000000" d="M441 -446L415 -415H184L129 -457C131 -429 132 -386 132 -364V-165C132 -90 131 -33 129 21V27C129 44 132 50 140 50C144 50 151 48 160 44C175 38 177 33 177 21V-15H427C427 17 427 21 434 21C438 21 444 19 453 15C473 7 477 3 477 -13V-19C474 -64 472 -126 472 -202V-370L499 -389C503 -392 505 -395 505 -397C505 -399 503 -402 500 -404ZM177 -170V-269H427V-170ZM177 -291V-393H427V-291ZM177 -37V-148H427V-37ZM377 -694L350 -661H248C227 -661 204 -663 182 -665L207 -629C222 -635 249 -639 268 -639H417C424 -639 427 -640 427 -642C427 -644 425 -647 421 -651ZM481 -820L455 -780H158L96 -827C98 -798 99 -752 99 -729V-547C99 -524 97 -486 97 -463C97 -455 98 -451 103 -451C107 -451 113 -453 121 -457C140 -465 143 -469 143 -482V-758H472V-481C472 -473 473 -468 480 -468C484 -468 490 -470 499 -474C516 -481 521 -485 521 -498C521 -508 517 -577 517 -592V-738L543 -759C548 -763 550 -766 550 -769C550 -772 548 -775 543 -778ZM380 -581L356 -546H246C225 -546 202 -547 180 -550L205 -514C220 -520 247 -524 266 -524H418C428 -524 432 -525 432 -528C432 -531 429 -534 424 -539ZM865 -622L839 -581H708C710 -639 712 -715 713 -768L744 -795C747 -798 749 -800 749 -803C749 -806 747 -808 742 -811L666 -850C666 -753 665 -655 663 -581H606C583 -581 558 -583 533 -585L561 -548C578 -555 607 -559 628 -559H663C654 -179 632 -103 454 67L462 79C674 -77 696 -181 708 -559H852C855 -421 846 -235 835 -134C827 -64 818 -38 768 -38C746 -38 717 -43 677 -51L674 -37C731 -19 760 0 769 24C773 34 776 38 781 38C783 38 787 37 791 35C857 3 871 -28 881 -127C889 -205 898 -418 900 -538L931 -564C936 -568 938 -571 938 -574C938 -576 936 -579 931 -581Z"/>
</svg>