<svg xmlns="http://www.w3.org/2000/svg" viewBox="0 -1000 1000 1000">
	<path fill="#000000" d="M319 -698C320 -680 321 -651 321 -630V-478C321 -446 320 -423 318 -402V-395C318 -387 320 -383 326 -383C335 -383 365 -391 365 -410V-430H481C462 -391 446 -362 429 -335H292C267 -335 239 -337 211 -339L242 -302C261 -309 293 -313 317 -313H415C395 -281 375 -252 342 -210C426 -194 493 -179 547 -163C475 -114 377 -82 217 -41L218 -23C401 -60 510 -92 593 -148C666 -123 717 -93 765 -53C778 -42 788 -38 795 -38C804 -38 816 -46 816 -62C816 -74 810 -88 797 -99C766 -128 728 -149 628 -175C670 -211 706 -255 744 -313H914C922 -313 926 -314 926 -317C926 -320 923 -323 918 -328L848 -393L806 -335H480C492 -351 502 -365 513 -381L539 -392C546 -395 550 -399 550 -402C550 -404 548 -406 544 -409L506 -430H737C737 -401 737 -398 744 -398C749 -398 786 -412 786 -424V-426C784 -454 783 -489 783 -529V-623L811 -637C816 -640 818 -643 818 -646C818 -649 816 -653 811 -656L749 -696L722 -658H371ZM365 -454V-531H737V-454ZM365 -555V-636H737V-555ZM682 -313C651 -261 619 -221 580 -188C532 -201 471 -214 396 -228C425 -262 445 -288 464 -313ZM120 -818C122 -780 124 -705 124 -655V-18L87 10L137 54C140 57 143 58 146 58C149 58 152 57 155 53L180 17H951C960 17 965 14 965 8C965 4 962 -1 955 -7L881 -69L843 -5H169V-740H931C940 -740 945 -742 945 -746C945 -749 942 -754 935 -760L869 -822L832 -763H183Z"/>
</svg>