<svg xmlns="http://www.w3.org/2000/svg" viewBox="0 -1000 1000 1000">
	<path fill="#000000" d="M100 -744C102 -726 102 -708 102 -642V-318C102 -261 101 -207 99 -162V-155C99 -144 101 -139 107 -139C117 -139 146 -148 146 -169V-258H271V-208C271 -200 272 -196 277 -196C285 -196 319 -208 319 -230V-235C316 -276 315 -318 315 -374V-658L342 -676C347 -679 349 -682 349 -685C349 -688 347 -692 342 -695L286 -738L256 -700H153ZM146 -280V-678H271V-280ZM663 -379C691 -393 695 -395 695 -398C695 -401 691 -404 684 -408L614 -445C616 -411 617 -359 617 -313V-36C557 -56 483 -131 449 -213C457 -241 463 -273 468 -309L493 -319C503 -323 507 -327 507 -330C507 -333 504 -335 498 -338L424 -373C402 -143 365 -62 228 67L235 77C356 -19 408 -72 441 -182C471 -103 540 -22 602 3C652 23 699 35 857 45H861C871 45 875 42 878 34C886 11 902 3 975 -7L976 -21C931 -16 884 -14 837 -14C774 -14 714 -18 663 -26V-257H883C892 -257 897 -258 897 -262C897 -265 893 -270 886 -277L828 -334L786 -279H663ZM610 -469H394C371 -469 346 -471 321 -473L349 -436C366 -443 395 -447 416 -447H957C968 -447 974 -448 974 -452C974 -455 970 -460 963 -467L905 -525L864 -469H656V-644H868C879 -644 884 -645 884 -649C884 -652 880 -657 873 -664L820 -717L778 -666H656V-787C685 -804 689 -805 689 -810C689 -813 685 -815 678 -819L607 -855C609 -821 610 -780 610 -723V-666H460C437 -666 412 -668 387 -670L415 -633C432 -640 461 -644 482 -644H610Z"/>
</svg>