<svg xmlns="http://www.w3.org/2000/svg" viewBox="0 -1000 1000 1000">
	<path fill="#000000" d="M836 -571V-207H428V-571H538C538 -398 528 -339 441 -263L445 -248C568 -328 583 -405 583 -571H671V-381C671 -330 683 -309 790 -309H820C825 -309 828 -311 828 -314C828 -316 805 -347 797 -357C781 -353 767 -350 756 -350C726 -350 715 -367 715 -391V-571ZM538 -593H433L381 -647C383 -614 384 -554 384 -517V-96C384 -33 383 12 380 55V62C380 72 381 77 387 77C391 77 397 74 407 69C426 59 428 55 428 46V-34H836V46C836 57 837 63 842 63C846 63 852 60 862 54C882 42 886 38 886 25V19C883 -26 881 -86 881 -162V-565L909 -583C916 -587 919 -590 919 -593C919 -597 915 -600 907 -605L845 -644L813 -593H715V-750H938C948 -750 953 -752 953 -757C953 -760 949 -765 943 -771L885 -823L844 -772H407C384 -772 359 -774 334 -776L362 -739C379 -746 408 -750 429 -750H538ZM428 -56V-185H836V-56ZM671 -593H583V-750H671ZM91 -723C93 -705 93 -687 93 -621V-283C93 -226 92 -172 90 -127V-116C90 -96 93 -88 102 -88C106 -88 110 -90 116 -92C133 -99 138 -105 138 -134V-223H259V-173C259 -165 260 -161 265 -161C273 -161 307 -173 307 -195V-200C304 -241 303 -283 303 -339V-637L330 -655C334 -658 336 -661 336 -664C336 -667 334 -671 330 -674L274 -717L244 -679H144ZM138 -245V-657H259V-245Z"/>
</svg>