<svg xmlns="http://www.w3.org/2000/svg" viewBox="0 -1000 1000 1000">
	<path fill="#000000" d="M244 -731L217 -692H121L66 -737C68 -706 69 -658 69 -634V-313C69 -256 68 -164 66 -105V-95C66 -79 68 -73 75 -73C79 -73 85 -75 94 -79C111 -86 113 -89 113 -104V-227H232V-152C232 -144 232 -139 237 -139C241 -139 246 -141 256 -145C277 -154 281 -158 281 -172V-179C278 -224 276 -276 276 -352V-654L303 -674C306 -676 308 -679 308 -681C308 -683 306 -686 302 -689ZM113 -249V-670H232V-249ZM588 -474L462 -409V-601H588C595 -601 598 -602 598 -605C598 -607 596 -610 593 -613L548 -664L507 -623H462V-792L487 -809C491 -812 493 -814 493 -816C493 -818 490 -820 485 -823L413 -865C415 -828 417 -763 417 -722V-623H369C346 -623 320 -624 296 -627L324 -590C351 -601 384 -601 417 -601V-386L291 -322L321 -282C323 -280 325 -278 327 -278C329 -278 332 -281 335 -287C340 -297 354 -311 417 -351V-58C417 -37 413 -26 383 -26C362 -26 329 -31 276 -41L273 -26C359 0 373 12 383 45C385 51 386 54 389 54C391 54 393 53 395 52C459 18 462 11 462 -57V-378L593 -458ZM913 -568L875 -518H668V-710C742 -727 801 -740 852 -752C862 -754 871 -756 880 -756C888 -756 929 -748 932 -748C935 -748 936 -749 936 -751C936 -753 935 -756 932 -759L887 -815C807 -775 751 -753 679 -733L622 -773C623 -695 624 -623 624 -555C624 -244 624 -89 449 75L456 88C625 -37 668 -153 668 -496H790V-129C790 -72 789 -4 787 55V65C787 81 789 87 796 87C800 87 806 85 815 81C836 72 840 68 840 54V47C837 2 836 -51 836 -127V-496H966C971 -496 974 -498 974 -500C974 -502 972 -505 969 -508Z"/>
</svg>