<svg xmlns="http://www.w3.org/2000/svg" viewBox="0 -1000 1000 1000">
	<path fill="#000000" d="M80 -760C82 -742 82 -724 82 -658V-273C82 -216 81 -162 79 -117V-109C79 -98 80 -94 86 -94C95 -94 126 -103 126 -124V-213H260V-163C260 -155 261 -151 266 -151C274 -151 306 -162 306 -183V-190C303 -231 302 -273 302 -329V-674C329 -695 332 -697 332 -701C332 -704 330 -706 325 -709L269 -750L245 -716H133ZM126 -235V-694H260V-235ZM433 -652C435 -633 436 -605 436 -580V-524C436 -490 435 -458 433 -440V-430C433 -421 434 -417 441 -417C445 -417 452 -419 462 -423C482 -430 482 -437 482 -461H767C767 -433 767 -430 774 -430C779 -430 785 -432 796 -436C812 -441 815 -446 815 -456V-460C813 -485 812 -509 812 -543V-582C836 -595 839 -597 839 -602C839 -605 836 -609 831 -613L780 -653L753 -616H484ZM482 -483V-594H767V-483ZM966 -173C975 -173 980 -175 980 -180C980 -183 977 -188 970 -195L911 -250L870 -193H652V-225C669 -239 670 -239 670 -242C670 -244 668 -246 665 -248C771 -320 817 -334 849 -334C867 -334 869 -334 869 -338C869 -341 867 -344 862 -349L809 -403L773 -372H455C432 -372 413 -373 388 -376L416 -339C433 -346 456 -350 477 -350H776L650 -256L604 -279C605 -260 606 -226 606 -193H365C344 -193 330 -194 307 -197L330 -163C346 -169 366 -173 385 -173H606V-21C606 1 602 11 572 11C550 11 513 5 452 -8L449 5C550 33 562 46 568 82C569 87 571 90 574 90C576 90 578 89 580 88C643 60 652 45 652 -13V-173ZM524 -840C576 -811 612 -775 622 -736C626 -721 632 -716 644 -716C661 -716 675 -735 675 -760C675 -819 586 -841 528 -850ZM869 -766L832 -712H422C399 -712 377 -714 352 -716L380 -679C397 -686 423 -690 444 -690H927C935 -690 940 -692 940 -696C940 -699 937 -703 931 -709Z"/>
</svg>