<svg xmlns="http://www.w3.org/2000/svg" viewBox="0 -1000 1000 1000">
	<path fill="#000000" d="M86 -753C88 -735 88 -717 88 -651V-297C88 -240 87 -186 85 -141V-134C85 -123 87 -118 93 -118C102 -118 133 -127 133 -148V-237H257V-187C257 -179 258 -175 264 -175C272 -175 306 -187 306 -209V-214C303 -255 302 -297 302 -353V-667L329 -685C334 -688 336 -691 336 -694C336 -697 334 -701 329 -704L273 -747L243 -709H140ZM133 -259V-687H257V-259ZM978 7C877 2 778 -34 706 -79C748 -119 786 -167 833 -243C845 -263 858 -273 874 -277C880 -279 883 -281 883 -283C883 -285 881 -288 876 -292L825 -332L794 -292H510C487 -292 462 -294 437 -296L465 -259C479 -266 495 -270 520 -270C549 -198 598 -125 646 -78C571 -17 478 30 340 69L344 84C470 58 602 2 675 -54C738 -4 788 27 877 61C879 62 880 62 882 62C885 62 887 61 889 58C904 37 927 22 978 20ZM793 -270C764 -200 728 -152 674 -102C635 -136 579 -204 539 -270ZM745 -406H598V-529H745ZM790 -622C816 -636 819 -637 819 -641C819 -643 817 -645 812 -647L742 -680C744 -645 745 -624 745 -595V-551H598V-625C622 -639 625 -640 625 -643C625 -646 622 -648 618 -650L550 -683C552 -655 553 -634 553 -603V-551H508C485 -551 460 -553 435 -555L463 -518C490 -529 524 -529 553 -529V-424C553 -411 552 -351 552 -339C552 -331 553 -327 558 -327C562 -327 568 -329 576 -333C595 -341 598 -343 598 -354V-384H745V-349C745 -339 746 -334 753 -334C756 -334 762 -335 769 -338C787 -345 791 -349 791 -361C791 -375 790 -441 790 -454V-529H936C943 -529 946 -530 946 -533C946 -535 944 -538 939 -543L881 -600L841 -551H790ZM380 -761C382 -727 383 -679 383 -641V-420C383 -160 330 -23 224 79L237 88C367 -13 428 -137 428 -427V-685H956C963 -685 966 -686 966 -689C966 -691 964 -695 959 -699L893 -761L851 -707H446ZM556 -840C607 -817 636 -782 648 -742C653 -727 662 -716 671 -716C689 -716 702 -738 702 -758C702 -764 701 -771 697 -776C672 -810 626 -837 560 -850Z"/>
</svg>