<svg xmlns="http://www.w3.org/2000/svg" viewBox="0 -1000 1000 1000">
	<path fill="#000000" d="M447 -259C449 -228 450 -180 450 -156V-49C450 -31 444 47 444 62C444 72 446 76 452 76C457 76 464 74 475 69C493 62 494 59 494 42V-7H796V50C796 58 797 62 803 62C807 62 813 61 822 57C842 48 845 44 845 31C845 30 841 -55 841 -71V-178L870 -195C873 -197 875 -199 875 -202C875 -204 873 -207 869 -210L808 -250L781 -216H499ZM494 -29V-194H796V-29ZM83 -724C85 -694 85 -658 85 -622V-274C85 -217 84 -163 82 -118V-111C82 -100 84 -96 90 -96C94 -96 100 -97 108 -100C125 -106 129 -109 129 -125V-214H263V-164C263 -156 264 -152 270 -152C278 -152 312 -164 312 -186V-191C309 -232 308 -274 308 -330V-638L335 -656C339 -659 341 -662 341 -665C341 -668 339 -672 335 -675L279 -718L249 -680H139ZM129 -236V-658H263V-236ZM567 -846C604 -815 625 -781 628 -743C629 -724 635 -717 646 -717C664 -717 681 -740 681 -770C681 -791 650 -820 573 -855ZM430 -759C425 -694 405 -664 373 -640C360 -630 354 -617 354 -606C354 -593 365 -586 378 -586C382 -586 442 -589 446 -683H874L836 -619L847 -610C891 -657 926 -679 949 -679C956 -679 960 -679 960 -683C960 -686 957 -690 951 -696L900 -743L869 -705H447C447 -721 446 -739 444 -759ZM620 -451H477C454 -451 433 -452 409 -454L440 -420C455 -425 475 -429 496 -429H620V-335H410C387 -335 367 -336 342 -338L372 -305C387 -311 402 -313 428 -313H620C620 -303 618 -257 618 -248C618 -236 620 -231 626 -231C630 -231 636 -233 645 -237C662 -244 666 -249 666 -264C666 -272 665 -306 665 -313H950C957 -313 961 -314 961 -318C961 -320 959 -323 955 -328L897 -391L857 -335H665V-429H870C875 -429 879 -430 879 -433C879 -436 877 -439 872 -444L819 -502L779 -451H665V-537H867C874 -537 878 -538 878 -541C878 -544 876 -547 872 -552L816 -607L782 -559H665V-611C674 -618 688 -629 688 -632C688 -634 687 -635 683 -637L617 -674C619 -641 620 -605 620 -559H472C449 -559 429 -560 404 -564L435 -530C450 -534 469 -537 490 -537H620Z"/>
</svg>