<svg xmlns="http://www.w3.org/2000/svg" viewBox="0 -1000 1000 1000">
	<path fill="#000000" d="M460 -138V-246H801V-138ZM411 -566C413 -532 414 -471 414 -434V-231C414 -185 413 -139 411 -109V-97C411 -85 413 -80 419 -80C423 -80 429 -82 437 -86C457 -95 460 -99 460 -116H801C801 -86 801 -83 808 -83C812 -83 818 -85 827 -89C846 -97 850 -101 850 -116V-123C848 -156 847 -190 847 -238V-469L881 -485C888 -488 892 -490 892 -493C892 -496 888 -500 881 -505L820 -554L788 -509H477ZM801 -268H460V-368H801ZM460 -487H801V-390H460ZM540 -111C495 -63 402 2 275 68L280 82C389 38 471 -4 538 -44C550 -51 565 -54 586 -52C591 -52 598 -52 598 -56C598 -58 595 -62 590 -67ZM79 -741C81 -710 82 -662 82 -638V-276C82 -221 81 -179 78 -128C78 -123 77 -119 77 -116C77 -105 79 -101 84 -101C89 -101 125 -114 125 -134V-245H261V-175C261 -164 263 -159 268 -159C273 -159 279 -162 288 -168C305 -180 309 -184 309 -198V-204C307 -247 306 -298 306 -351V-650L339 -671C344 -674 346 -677 346 -680C346 -683 344 -687 339 -690L278 -737L246 -691H136ZM125 -267V-669H261V-267ZM688 -78C795 -35 855 7 881 41C893 57 905 64 915 64C926 64 939 54 939 37C939 -38 764 -76 692 -92ZM653 -758H861C873 -758 879 -759 879 -763C879 -766 875 -771 867 -778L810 -834L772 -780H463C440 -780 414 -782 390 -784L418 -748C434 -754 464 -758 485 -758H606V-612H393C371 -612 346 -613 323 -616L350 -581C365 -587 394 -591 414 -591H953C964 -591 970 -592 970 -596C970 -600 966 -605 958 -613L905 -668L863 -612H653Z"/>
</svg>