<svg xmlns="http://www.w3.org/2000/svg" viewBox="0 -1000 1000 1000">
	<path fill="#000000" d="M798 -723L773 -685H538L486 -726C487 -697 488 -652 488 -630V-548C488 -538 487 -494 487 -485C487 -477 488 -474 492 -474C496 -474 502 -476 512 -481C533 -489 533 -492 533 -526H783V-494C783 -485 784 -480 790 -480C795 -480 801 -483 810 -487C827 -493 831 -496 831 -510C831 -521 828 -582 828 -596V-649L854 -665C859 -668 862 -671 862 -673C862 -676 859 -679 854 -682ZM533 -548V-663H783V-548ZM285 -752L260 -710H163L107 -757C109 -728 110 -681 110 -658V-365C110 -310 109 -224 107 -167V-155C107 -142 108 -136 115 -136C124 -136 155 -146 155 -166V-289H271V-243C271 -235 272 -230 278 -230C282 -230 288 -232 297 -236C318 -245 322 -249 322 -263V-269C319 -314 317 -374 317 -449V-674L343 -689C348 -692 350 -694 350 -696C350 -699 348 -701 342 -706ZM155 -311V-688H271V-311ZM889 -833L853 -784H449C426 -784 401 -786 376 -788L405 -751C421 -758 450 -762 471 -762H946C955 -762 960 -763 960 -766C960 -768 956 -772 950 -778ZM517 -373C543 -350 569 -304 576 -271C581 -248 586 -245 595 -245C612 -245 625 -260 625 -280C625 -324 557 -365 524 -380ZM869 -466L844 -423H458L397 -469C399 -433 401 -368 401 -328V-149C401 -95 400 -9 398 47V56C398 72 400 78 407 78C411 78 417 76 426 72C446 63 449 59 449 47C449 16 447 -120 447 -148V-401H863V-45C863 -21 860 -11 829 -11C811 -11 783 -14 741 -20L738 -7C814 15 826 28 830 56C831 61 832 64 836 64C838 64 840 63 843 62C902 36 908 16 908 -48V-393L931 -407C937 -410 940 -413 940 -416C940 -419 937 -421 931 -425ZM783 -261L753 -217H673C748 -315 760 -326 783 -329C786 -329 788 -330 788 -331C788 -333 786 -335 782 -338L728 -374C704 -316 683 -270 654 -217H539C516 -217 490 -219 465 -221L494 -184C510 -190 542 -195 561 -195H629V-116C629 -96 627 -10 627 8C627 24 629 30 636 30C640 30 646 28 655 24C672 16 676 14 676 0V-6C675 -27 674 -49 674 -114V-195H826C835 -195 839 -197 839 -200C839 -203 836 -207 831 -212Z"/>
</svg>