<svg xmlns="http://www.w3.org/2000/svg" viewBox="0 -1000 1000 1000">
	<path fill="#000000" d="M142 -297C144 -266 145 -214 145 -190V-53C145 -27 144 10 142 28C142 32 141 36 141 39C141 49 144 53 150 53C154 53 160 51 167 47C189 35 192 32 192 20V-18H397V14C397 22 398 27 404 27C404 27 448 17 448 -3C448 -11 444 -80 444 -94V-206L476 -226C481 -229 484 -232 484 -234C484 -237 481 -241 475 -245L417 -289L385 -245H209ZM192 -40V-223H397V-40ZM819 -355C797 -252 771 -185 731 -128C678 -194 646 -266 633 -355ZM976 9C877 -2 823 -27 759 -95C799 -148 830 -215 870 -335L906 -353C912 -356 914 -358 914 -361C914 -363 912 -366 907 -369L841 -416L814 -377H595C579 -377 565 -378 540 -380L569 -349C578 -352 595 -354 612 -355C626 -241 654 -157 703 -92C634 -11 572 27 457 67V81C574 58 659 16 729 -60C772 -10 805 20 872 57C874 58 876 59 878 59C881 59 883 57 885 55C897 34 919 23 975 23ZM415 -414L373 -370H191C169 -370 144 -371 121 -374L148 -338C163 -344 192 -348 212 -348H459C467 -348 472 -350 472 -354C472 -357 469 -361 463 -367ZM98 -533C98 -472 83 -444 49 -412C37 -401 32 -390 32 -382C32 -369 45 -358 60 -358C96 -358 122 -400 120 -470H480L448 -399L461 -393C506 -451 525 -465 557 -474C564 -476 567 -478 567 -481C567 -483 564 -486 558 -490L498 -528L466 -492H119C117 -506 114 -521 110 -535ZM280 -591H155C133 -591 108 -593 85 -595L112 -559C127 -565 156 -569 176 -569H513C522 -569 527 -570 527 -574C527 -577 523 -582 517 -588L469 -635L427 -591H326V-698H538C548 -698 554 -699 554 -703C554 -706 550 -710 543 -717L495 -762L457 -720H326V-782C331 -785 360 -804 360 -807C360 -810 357 -812 351 -816L277 -857C279 -825 280 -807 280 -759V-720H116C93 -720 67 -722 43 -724L71 -688C87 -694 117 -698 138 -698H280ZM794 -745V-532C794 -466 821 -466 897 -466C906 -466 978 -466 978 -475C978 -482 943 -523 936 -523C934 -523 932 -522 929 -521C910 -513 892 -510 877 -510C854 -510 839 -519 839 -536V-733L874 -752C879 -755 881 -757 881 -759C881 -761 879 -763 875 -765L810 -807L782 -767H676L618 -811C619 -782 619 -755 619 -731C619 -524 588 -471 516 -396L520 -385C614 -448 661 -495 666 -745Z"/>
</svg>