<svg xmlns="http://www.w3.org/2000/svg" viewBox="0 -1000 1000 1000">
	<path fill="#000000" d="M877 -847L840 -795H434C411 -795 386 -797 361 -799L389 -762C406 -769 435 -773 456 -773H614C608 -745 600 -716 589 -680H497L449 -724C451 -694 452 -649 452 -626V-500C452 -446 450 -394 448 -360V-347C448 -334 450 -329 456 -329C463 -329 494 -339 496 -356H806C806 -326 806 -323 812 -323C816 -323 822 -325 831 -329C852 -338 856 -342 856 -356V-363C853 -406 851 -457 851 -509V-646C885 -666 885 -666 885 -671C885 -674 883 -677 877 -681L819 -721L793 -680H612C631 -711 649 -738 672 -773H929C938 -773 942 -776 942 -781C942 -784 939 -790 933 -795ZM496 -481V-555H806V-481ZM496 -577V-658H806V-577ZM496 -378V-459H806V-378ZM283 -762L259 -723H155L100 -763C102 -732 103 -684 103 -660V-390C103 -333 102 -243 100 -184V-175C100 -158 102 -151 109 -151C114 -151 120 -154 128 -158C145 -167 148 -171 148 -183V-284H270V-233C270 -224 271 -219 278 -219C282 -219 288 -221 297 -226C316 -237 320 -242 320 -255V-260C317 -305 315 -367 315 -443V-683L342 -701C346 -704 348 -707 348 -710C348 -714 346 -717 342 -720ZM148 -306V-701H270V-306ZM962 -17C862 -22 768 -41 683 -88C716 -118 769 -172 804 -212C822 -233 834 -241 848 -244C856 -246 860 -248 860 -250C860 -252 857 -255 852 -258L796 -297L767 -266H547C572 -295 580 -302 595 -304C604 -305 609 -307 609 -310C609 -311 607 -314 602 -316L545 -349C469 -231 385 -124 283 -30L293 -22C355 -63 422 -121 507 -220C544 -165 578 -124 618 -90C532 -24 420 26 242 73L245 85C381 71 558 6 653 -63C730 -8 861 43 863 43C867 43 870 41 871 38C882 14 914 0 962 -4ZM763 -244C726 -193 689 -149 644 -111C599 -142 557 -181 517 -232C521 -236 524 -240 528 -244Z"/>
</svg>