<svg xmlns="http://www.w3.org/2000/svg" viewBox="0 -1000 1000 1000">
	<path fill="#000000" d="M365 -379C366 -357 368 -306 368 -281V-12H316C293 -12 267 -13 243 -16L271 20C288 13 317 9 338 9H971C980 9 984 8 984 5C984 3 982 -1 977 -7L934 -61L892 -12H882V-295L910 -311C916 -314 919 -316 919 -319C919 -322 916 -324 911 -328L851 -371L826 -334H416ZM682 -12H563V-313H682ZM521 -12H410V-313H521ZM724 -12V-313H839V-12ZM417 -824C419 -793 420 -760 420 -721V-566C420 -524 419 -481 417 -452C417 -447 416 -442 416 -438C416 -427 418 -422 424 -422C428 -422 433 -425 441 -428C462 -437 463 -439 463 -462H794C794 -426 794 -423 801 -423C804 -423 810 -424 819 -428C839 -436 844 -440 844 -452C844 -455 843 -458 843 -462C839 -507 838 -526 838 -567V-738C866 -752 869 -754 869 -759C869 -762 866 -766 861 -770L809 -813L783 -775H474ZM794 -483H463V-607H794ZM463 -754H794V-628H463ZM90 -756C92 -738 92 -720 92 -654V-305C92 -248 91 -194 89 -149V-142C89 -131 91 -126 97 -126C106 -126 137 -135 137 -156V-245H257V-195C257 -187 258 -183 264 -183C272 -183 306 -195 306 -217V-222C303 -263 302 -305 302 -361V-670L329 -688C334 -692 337 -694 337 -697C337 -700 334 -703 329 -707L273 -750L243 -712H144ZM137 -267V-690H257V-267Z"/>
</svg>