<svg xmlns="http://www.w3.org/2000/svg" viewBox="0 -1000 1000 1000">
	<path fill="#000000" d="M871 -708L844 -673H735V-770H922C930 -770 935 -772 935 -776C935 -779 932 -783 927 -789L881 -840L840 -792H407C384 -792 359 -794 334 -796L362 -759C379 -766 408 -770 429 -770H542V-673H439L386 -724C388 -698 389 -655 389 -635V-491C389 -482 387 -442 387 -434C387 -427 388 -424 393 -424C397 -424 402 -426 411 -429C430 -436 432 -438 432 -448V-465H855C855 -429 855 -429 862 -429C866 -429 873 -431 884 -436C900 -443 903 -447 903 -458C903 -469 899 -539 899 -554V-634L927 -650C932 -653 934 -655 934 -658C934 -661 932 -664 928 -667ZM585 -487V-651H692V-487ZM585 -673V-770H692V-673ZM735 -487V-651H855V-487ZM432 -487V-651H542V-487ZM271 -757L248 -724H152L101 -773C103 -742 104 -694 104 -670V-358C104 -301 103 -213 101 -154V-143C101 -128 102 -122 109 -122C114 -122 120 -124 129 -128C147 -136 148 -140 148 -153V-245H256V-205C256 -197 257 -193 262 -193C266 -193 272 -196 283 -201C303 -211 306 -215 306 -228V-235C303 -280 301 -339 301 -415V-682L327 -698C333 -702 335 -704 335 -707C335 -709 333 -712 327 -716ZM148 -267V-702H256V-267ZM814 -400L774 -354H459C436 -354 411 -356 386 -358L414 -321C431 -328 460 -332 481 -332H850C858 -332 862 -334 862 -338C862 -342 860 -346 855 -352ZM906 -292L862 -247H408C385 -247 360 -249 335 -251L363 -214C380 -221 409 -225 430 -225H613V-34C613 -18 612 -10 588 -10C568 -10 534 -15 474 -25L472 -10C557 13 574 30 583 64C584 70 586 72 590 72C592 72 594 71 597 70C657 42 660 35 660 -23V-225H948C955 -225 958 -226 958 -229C958 -231 956 -235 950 -242ZM722 -153C818 -92 859 -47 885 -3C899 20 901 23 908 23C923 23 940 7 940 -18C940 -72 872 -111 728 -163ZM471 -186C407 -105 357 -54 237 43L246 55C347 -8 364 -21 482 -119C493 -128 501 -133 516 -137C525 -139 529 -142 529 -145C529 -148 527 -150 523 -152Z"/>
</svg>