<svg xmlns="http://www.w3.org/2000/svg" viewBox="0 -1000 1000 1000">
	<path fill="#000000" d="M728 -822L698 -774H309L242 -826C244 -795 245 -743 245 -719V-545C245 -519 244 -482 242 -464C242 -460 241 -456 241 -453C241 -443 244 -439 250 -439C254 -439 260 -441 267 -445C289 -457 292 -460 292 -472V-510H716V-478C716 -470 717 -465 723 -465C723 -465 767 -475 767 -495C767 -503 763 -572 763 -586V-735L795 -755C800 -758 803 -761 803 -763C803 -766 800 -770 794 -774ZM873 -56L826 6H525V-182H832C841 -182 846 -183 846 -186C846 -189 842 -193 836 -199L772 -261L730 -204H525V-361H892C899 -361 903 -362 903 -364C903 -366 901 -370 896 -375L834 -442L790 -383H160C137 -383 112 -385 87 -387L115 -350C132 -357 161 -361 182 -361H478V-204H220C197 -204 172 -206 147 -208L175 -171C192 -178 221 -182 242 -182H478V6H119C96 6 71 4 46 2L74 39C91 32 120 28 141 28H938C946 28 949 27 949 24C949 22 947 19 942 14ZM292 -532V-752H716V-532Z"/>
</svg>