<svg xmlns="http://www.w3.org/2000/svg" viewBox="0 -1000 1000 1000">
	<path fill="#000000" d="M551 -600H459L403 -640C405 -607 406 -546 406 -509V-347C406 -326 402 -235 402 -217C402 -210 403 -207 408 -207C412 -207 417 -208 424 -211C446 -219 448 -223 448 -236V-263H821V-231C821 -224 822 -221 828 -221C831 -221 836 -222 844 -225C865 -233 869 -236 869 -252V-259C866 -304 865 -323 865 -399V-561L891 -576C896 -579 899 -582 899 -584C899 -587 896 -590 892 -593L839 -633L814 -600H710V-687H929C937 -687 941 -689 941 -693C941 -696 938 -701 931 -707L879 -760L845 -708H696C756 -785 777 -800 792 -801C799 -802 802 -803 802 -806C802 -808 800 -811 794 -814L739 -848C726 -808 714 -782 676 -708H403C386 -708 367 -710 348 -712L374 -678C388 -685 404 -687 419 -687H551ZM821 -579V-376H448V-400C557 -444 592 -504 594 -579H668V-500C668 -459 677 -436 750 -436C753 -436 819 -438 819 -448C819 -452 800 -478 797 -484C786 -474 777 -470 753 -470C721 -470 710 -477 710 -502V-579ZM668 -600H594V-687H668ZM448 -284V-355H821V-284ZM448 -579H551C550 -506 532 -465 448 -415ZM452 -119C497 -91 524 -57 533 -20C538 0 546 8 553 8C570 8 583 -8 583 -29C583 -76 541 -101 457 -129ZM746 -7C746 13 740 24 710 24C689 24 656 18 605 6L602 19C679 40 695 54 702 81C704 88 707 90 711 90C712 90 714 90 717 89C776 67 788 48 788 15V-140H957C966 -140 970 -141 970 -145C970 -148 967 -154 960 -161L906 -218L867 -161H788V-192C795 -201 807 -217 807 -219C807 -222 805 -223 801 -225L746 -246V-161H358C340 -161 322 -163 303 -165L324 -129C337 -136 358 -140 374 -140H746ZM103 -753C103 -723 104 -675 104 -650V-301C104 -278 102 -177 102 -157C102 -145 105 -140 112 -140C115 -140 120 -141 127 -144C146 -152 149 -156 149 -174V-280H269V-217C269 -209 270 -205 275 -205C279 -205 286 -207 296 -212C313 -220 316 -224 316 -237C316 -244 314 -319 314 -334V-674C342 -691 345 -693 345 -697C345 -700 342 -703 337 -707L283 -748L258 -706H159ZM149 -302V-684H269V-302ZM474 -829C514 -797 537 -764 543 -740C547 -724 557 -715 570 -715C584 -715 592 -728 592 -743C592 -788 506 -829 482 -841Z"/>
</svg>