<svg xmlns="http://www.w3.org/2000/svg" viewBox="0 -1000 1000 1000">
	<path fill="#000000" d="M95 -761C97 -743 97 -725 97 -659V-299C97 -242 96 -188 94 -143V-136C94 -125 96 -120 102 -120C111 -120 142 -129 142 -150V-239H270V-189C270 -181 271 -177 277 -177C285 -177 318 -189 318 -210V-216C315 -257 314 -299 314 -355V-679C344 -695 347 -697 347 -702C347 -705 345 -708 340 -712L286 -755L256 -717H149ZM142 -261V-695H270V-261ZM505 -164H391C368 -164 342 -166 318 -168L346 -136C362 -142 392 -146 413 -146H951C959 -146 964 -148 964 -152C964 -155 961 -159 955 -164L902 -210L868 -164H762V-304H905C915 -304 921 -305 921 -308C921 -311 917 -315 909 -322L860 -365L829 -322H762V-379C783 -395 786 -397 786 -400C786 -403 782 -406 777 -408L715 -435C717 -402 718 -359 718 -322H549V-382C571 -395 574 -397 574 -399C574 -402 570 -404 564 -407L502 -434C504 -402 505 -359 505 -322H439C416 -322 390 -324 366 -326L394 -294C410 -300 440 -304 461 -304H505ZM718 -164H549V-304H718ZM559 -616C559 -593 559 -591 567 -591C577 -591 605 -599 605 -618C605 -629 603 -675 603 -685V-749C623 -765 625 -767 625 -770C625 -773 623 -775 619 -778L569 -811L547 -779H436L392 -813C394 -784 395 -744 395 -717V-497C395 -450 409 -442 523 -442C590 -442 613 -449 629 -481C631 -485 632 -488 632 -490C632 -493 631 -494 628 -495C613 -502 607 -519 601 -574H589C587 -491 565 -477 509 -477C448 -477 437 -481 437 -502V-616ZM559 -763V-632H437V-763ZM846 -615C846 -588 846 -585 855 -585C857 -585 892 -593 892 -614C892 -625 890 -674 890 -684V-741C915 -757 918 -759 918 -762C918 -764 916 -767 912 -771L863 -812L837 -778H723L677 -812C679 -783 680 -743 680 -716V-496C680 -453 694 -438 788 -438C908 -438 930 -444 948 -487C949 -490 950 -492 950 -495C950 -498 948 -501 943 -505C928 -516 921 -539 921 -589H905C904 -478 898 -476 788 -476C734 -476 724 -485 724 -501V-615ZM846 -762V-631H724V-762ZM679 -95C774 -48 827 9 850 47C861 65 874 70 881 70C895 70 906 54 906 34C906 22 902 7 892 -6C872 -32 819 -66 685 -107ZM517 -126C474 -73 412 -16 301 72L310 85C530 -63 548 -70 569 -74C574 -75 577 -77 577 -79C577 -81 575 -84 571 -87Z"/>
</svg>