<svg xmlns="http://www.w3.org/2000/svg" viewBox="0 -1000 1000 1000">
	<path fill="#000000" d="M239 -722L216 -686H137L82 -739C84 -714 85 -676 85 -657V-284C85 -239 84 -195 82 -164V-156C82 -149 83 -146 87 -146C89 -146 128 -160 128 -177V-279H222V-232C222 -223 224 -219 229 -219C231 -219 269 -232 269 -249V-253C267 -289 265 -339 265 -400V-649L293 -665C297 -667 299 -669 299 -671C299 -673 296 -676 292 -679ZM128 -301V-664H222V-301ZM845 -603L818 -574H664C659 -588 654 -603 649 -618L634 -615C680 -436 749 -354 881 -256C883 -255 885 -254 887 -254C889 -254 891 -255 892 -256C912 -276 921 -281 964 -286L965 -296C891 -308 813 -350 750 -424C832 -518 864 -540 890 -540C902 -540 903 -540 903 -543C903 -545 902 -547 899 -550ZM743 -433C716 -467 692 -507 672 -553H823ZM535 -842C579 -810 598 -780 608 -745C614 -725 618 -720 633 -720C647 -720 656 -737 656 -756C656 -796 618 -822 540 -851ZM867 -752L834 -717H398C399 -722 398 -745 398 -750H385C383 -696 362 -663 337 -643C327 -635 319 -624 319 -614C319 -609 322 -599 336 -599C365 -599 392 -626 397 -696H841L780 -608L789 -600C850 -664 884 -685 915 -685C925 -685 930 -685 930 -688C930 -690 928 -693 922 -699ZM425 -496C443 -483 457 -454 462 -430C467 -406 471 -403 479 -403C490 -403 501 -414 501 -430C501 -433 500 -437 499 -441C494 -460 471 -481 430 -503ZM583 -601L561 -574H452C479 -617 482 -622 501 -624C506 -625 509 -626 509 -629C509 -631 507 -633 502 -635L443 -660C405 -553 367 -472 301 -370L311 -364C354 -415 382 -456 440 -553H569C505 -369 427 -285 231 -162L238 -152C432 -246 523 -343 595 -508C603 -527 618 -540 630 -543C636 -545 639 -547 639 -549C639 -551 637 -553 635 -555ZM371 -415C386 -399 394 -371 394 -349C394 -329 400 -321 412 -321C423 -321 434 -330 434 -346C434 -370 408 -400 377 -420ZM684 -391L650 -345H565C547 -345 527 -347 509 -349L531 -314C543 -320 566 -324 582 -324H729C737 -324 740 -325 740 -328C740 -330 738 -332 735 -336ZM780 -269L744 -223H456C438 -223 418 -225 400 -227L422 -192C434 -198 457 -202 473 -202H596V-5C596 11 594 20 571 20C551 20 518 14 460 2L457 17C542 42 552 57 560 89C561 92 562 94 564 94C566 94 568 93 570 92C631 65 640 52 640 2V-202H833C841 -202 845 -203 845 -205C845 -207 842 -210 838 -214ZM688 -131C766 -75 815 -19 843 27C853 43 860 47 867 47C880 47 891 32 891 12C891 -40 824 -79 694 -142ZM460 -156C409 -87 355 -30 259 57L268 66C336 17 384 -20 463 -88C479 -102 493 -107 512 -108C518 -108 522 -109 522 -112C522 -114 519 -117 513 -121Z"/>
</svg>