<svg xmlns="http://www.w3.org/2000/svg" viewBox="0 -1000 1000 1000">
	<path fill="#000000" d="M180 -611V-633H408C408 -606 408 -603 414 -603C415 -603 456 -614 456 -631C456 -632 455 -634 455 -636C452 -657 451 -675 451 -699V-739L477 -757C482 -761 485 -763 485 -766C485 -769 482 -772 476 -776L420 -816L398 -778H197L130 -830C132 -799 133 -747 133 -723V-692C133 -666 132 -629 130 -611C130 -607 129 -603 129 -600C129 -590 132 -586 138 -586C146 -586 173 -601 178 -609C179 -571 179 -498 179 -449V-258L146 -228L192 -187C195 -184 198 -182 200 -182C203 -182 206 -185 211 -191L232 -216H938C945 -216 949 -217 949 -219C949 -222 946 -225 941 -230L873 -297L833 -238H547V-329H773V-298C773 -290 774 -286 780 -286C786 -286 822 -296 822 -314C822 -317 822 -321 821 -325C816 -361 816 -370 816 -416L849 -436C855 -439 858 -442 858 -445C858 -448 855 -451 849 -455L785 -497L758 -456H546V-536H895C902 -536 905 -537 905 -539C905 -541 903 -544 899 -548L836 -612C840 -613 844 -614 850 -617C870 -627 874 -631 874 -640C874 -641 870 -700 870 -711V-741L902 -761C907 -764 909 -767 909 -770C909 -773 907 -776 901 -780L843 -818L813 -780H618L555 -832C558 -786 558 -727 558 -696C558 -670 557 -633 555 -615C555 -611 554 -607 554 -604C554 -594 557 -590 563 -590C567 -590 573 -592 580 -596C601 -608 601 -609 601 -635H825C825 -616 825 -610 831 -610L795 -558H236ZM226 -351V-434H773V-351ZM502 -238H226V-329H502ZM501 -456H226V-536H501ZM601 -657V-758H825V-657ZM180 -655V-756H408V-655ZM553 -192C555 -161 556 -109 556 -85V-32C556 -6 555 31 553 49C553 53 552 57 552 60C552 70 555 74 561 74C565 74 571 72 578 68C600 56 601 53 601 41V25H841V57C841 65 842 70 848 70C848 70 892 60 892 40C892 32 888 -37 888 -51V-101L916 -113C921 -115 923 -117 923 -120C923 -124 921 -127 915 -132L859 -178L833 -140H618ZM601 3V-118H841V3ZM105 -196C107 -165 108 -113 108 -89V-24C108 2 107 39 105 57C105 61 104 65 104 68C104 78 107 82 113 82C117 82 123 80 130 76C152 64 153 61 153 49V21H397V53C397 61 398 65 404 65C407 65 413 63 422 59C442 49 446 45 446 36C446 28 442 -41 442 -55V-105L468 -121C473 -124 476 -127 476 -129C476 -132 473 -136 467 -140L411 -184L385 -144H170ZM153 -1V-122H397V-1Z"/>
</svg>