<svg xmlns="http://www.w3.org/2000/svg" viewBox="0 -1000 1000 1000">
	<path fill="#000000" d="M473 -469C475 -441 476 -398 476 -377V-281C476 -270 474 -223 474 -214C474 -201 476 -196 483 -196C486 -196 490 -197 496 -199C514 -206 516 -210 516 -226H791C791 -216 792 -211 799 -211C813 -211 834 -218 834 -234C834 -241 831 -287 831 -297V-388C862 -406 862 -406 862 -410C862 -413 860 -416 854 -420L801 -457L777 -426H524ZM632 -320V-245H516V-320ZM632 -339H516V-407H632ZM672 -339V-407H791V-339ZM672 -245V-320H791V-245ZM439 -203C441 -174 442 -128 442 -105V18H381C360 18 337 16 315 14L340 47C355 41 382 37 401 37H954C964 37 969 36 969 33C969 31 965 27 959 20L917 -24L883 18H852V-123C881 -142 884 -144 884 -148C884 -151 882 -154 877 -157L827 -193L803 -161H487ZM603 18V-142H685V18ZM563 18H482V-142H563ZM812 -142V18H725V-142ZM89 -739C91 -708 92 -660 92 -636V-341C92 -284 91 -194 89 -135V-127C89 -110 91 -104 98 -104C102 -104 108 -106 116 -109C133 -116 136 -122 136 -134V-264H243V-176C243 -168 244 -163 250 -163C254 -163 260 -165 268 -169C286 -178 290 -182 290 -196V-203C287 -248 285 -294 285 -358V-654L310 -670C315 -673 318 -676 318 -679C318 -682 315 -685 310 -689L257 -731L235 -696H141ZM136 -286V-674H243V-286ZM875 -596C866 -520 858 -512 829 -509C794 -505 761 -504 730 -504C616 -504 613 -511 613 -551L771 -567C780 -568 784 -569 784 -572C784 -574 781 -578 774 -583L732 -617L707 -579L613 -570V-602C628 -612 630 -613 630 -616C630 -619 627 -621 622 -623L571 -639C573 -620 573 -615 573 -566L485 -557C458 -554 433 -552 408 -551L436 -520C452 -529 479 -537 501 -540L573 -547C574 -476 588 -472 750 -472C882 -472 892 -477 908 -498C910 -500 910 -503 910 -505C910 -508 909 -511 905 -514C893 -524 889 -537 889 -566C889 -574 889 -584 890 -596ZM611 -801C640 -816 644 -817 644 -822C644 -825 640 -827 634 -830L567 -856C570 -819 571 -789 571 -731V-661H411L355 -708C357 -671 357 -630 357 -582C357 -172 339 -110 189 56L201 63C369 -74 400 -158 400 -642H852L805 -559L817 -552C865 -610 890 -628 922 -631C928 -632 931 -633 931 -635C931 -637 929 -640 925 -644L873 -689L847 -661H611V-735H856C866 -735 870 -737 870 -741C870 -744 868 -748 862 -754L818 -800L785 -754H611Z"/>
</svg>