<svg xmlns="http://www.w3.org/2000/svg" viewBox="0 -1000 1000 1000">
	<path fill="#000000" d="M556 -556C556 -535 556 -533 562 -533C569 -533 600 -540 600 -556C600 -561 595 -644 595 -661V-731L620 -748C624 -751 626 -753 626 -755C626 -757 624 -760 621 -762L565 -804L542 -768H401L345 -822C347 -785 349 -728 349 -687V-162C349 -105 348 -24 346 35V45C346 61 348 67 355 67C359 67 365 65 374 61C390 55 394 51 394 34V27C391 -18 390 -84 390 -160V-556ZM556 -746V-670H390V-746ZM556 -651V-578H390V-651ZM669 -817C671 -786 672 -738 672 -714V-623C672 -588 671 -565 669 -538C669 -535 668 -532 668 -529C668 -522 670 -518 676 -518C680 -518 686 -520 695 -523C711 -529 711 -533 711 -557H869V-44C869 -13 864 0 836 0C818 0 792 -5 752 -15L748 4C820 30 832 38 835 67C836 72 838 74 842 74C844 74 847 73 850 72C901 53 911 36 911 -21V-726L948 -741C952 -742 954 -744 954 -746C954 -749 952 -752 947 -756L891 -805L861 -766H723ZM711 -670V-747H869V-670ZM711 -579V-651H869V-579ZM80 -754C80 -724 81 -676 81 -651V-299C81 -276 79 -173 79 -153C79 -142 81 -138 86 -138C90 -138 94 -139 101 -142C120 -150 123 -154 123 -172V-278H237V-215C237 -207 238 -203 243 -203C247 -203 254 -205 264 -210C281 -218 284 -222 284 -235C284 -242 282 -317 282 -332V-675C310 -692 313 -694 313 -698C313 -701 310 -704 305 -708L251 -749L226 -707H133ZM123 -300V-685H237V-300ZM466 -365C489 -388 509 -410 530 -437H701L648 -343L663 -339C728 -410 746 -415 768 -419C774 -420 778 -423 778 -426C778 -428 776 -431 773 -434L718 -486L691 -459H547C565 -483 571 -489 588 -493C596 -495 599 -499 599 -502C599 -505 597 -508 592 -510L538 -536C508 -471 471 -412 393 -314L405 -306C428 -325 446 -342 462 -361C464 -327 465 -283 465 -247V-133C465 -118 462 -48 462 -41C462 -29 465 -23 472 -23C476 -23 481 -25 489 -28C503 -34 505 -38 505 -55V-90H758V-49C758 -41 759 -36 764 -36C768 -36 774 -38 783 -42C799 -48 803 -52 803 -64C803 -67 802 -71 802 -76C799 -105 798 -128 798 -162V-289L822 -302C826 -304 828 -306 828 -308C828 -311 826 -313 822 -316L772 -360L747 -327H716C693 -327 669 -328 643 -329L669 -298C696 -307 732 -307 758 -307V-216H709C686 -216 661 -217 636 -220L662 -185C689 -196 715 -196 758 -196V-110H505V-201H619C625 -201 629 -202 629 -205C629 -207 627 -211 621 -217L584 -258L554 -223H505V-313C569 -329 585 -332 598 -332C620 -332 624 -332 624 -337C624 -340 622 -343 619 -346L588 -378C565 -360 545 -348 515 -336Z"/>
</svg>