<svg xmlns="http://www.w3.org/2000/svg" viewBox="0 -1000 1000 1000">
	<path fill="#000000" d="M197 -148L25 -71L73 -22C75 -20 77 -19 79 -19C82 -19 84 -21 86 -25C94 -40 107 -55 149 -80L393 -222L388 -233L243 -168V-535H402C409 -535 412 -536 412 -539C412 -541 411 -543 408 -547L357 -607L322 -556H243V-772C273 -790 276 -792 276 -795C276 -798 272 -801 265 -804L193 -838C196 -793 197 -754 197 -692V-556H109C87 -556 63 -558 39 -560L66 -525C82 -531 109 -535 129 -535H197ZM473 -450V-702C547 -708 608 -716 669 -727C671 -609 674 -496 677 -450ZM425 -767C426 -732 427 -690 427 -637V-79C427 -28 415 -9 378 18L427 68C432 73 436 75 440 75C445 75 449 72 455 65C481 34 518 6 715 -106L709 -119L473 -15V-428H678C703 -146 777 -28 885 42C911 59 935 67 949 67C965 67 965 55 965 54C965 48 961 42 954 35C943 25 937 15 937 -22C937 -53 941 -102 951 -187L934 -193L899 -44C895 -27 890 -18 883 -18C875 -18 864 -30 847 -51C780 -136 743 -200 725 -428H966C976 -428 980 -429 980 -433C980 -436 977 -440 970 -447L903 -512L866 -450H723C719 -517 714 -640 715 -735C747 -741 779 -748 813 -757C835 -763 857 -765 877 -765C883 -765 909 -762 914 -762C920 -762 923 -764 923 -768C923 -771 921 -775 917 -780L872 -830C756 -784 642 -754 488 -725Z"/>
</svg>