<svg xmlns="http://www.w3.org/2000/svg" viewBox="0 -1000 1000 1000">
	<path fill="#000000" d="M570 64C569 67 568 69 568 71C568 75 571 77 577 77C579 77 620 76 630 54C644 21 661 -14 691 -74L784 -260L820 -271C829 -274 834 -276 834 -280C834 -283 830 -288 823 -295L772 -346L737 -310H462C439 -310 414 -312 389 -314L417 -277C434 -284 463 -288 484 -288H748ZM187 -167L32 -104L76 -51C78 -48 81 -47 83 -47C86 -47 89 -49 92 -54C100 -69 118 -87 160 -111L375 -228L368 -240L234 -186V-519H391C398 -519 401 -521 401 -524C401 -526 399 -529 396 -533L340 -593L300 -540H234V-789C264 -807 267 -809 267 -812C267 -815 263 -818 256 -821L183 -855C185 -810 187 -756 187 -709V-540H106C84 -540 60 -542 36 -544L63 -509C79 -515 106 -519 126 -519H187ZM601 -843C550 -688 435 -510 295 -361L305 -351C451 -478 542 -603 632 -771C672 -628 727 -533 859 -418C863 -415 866 -413 868 -413C870 -413 872 -414 874 -416C896 -440 915 -445 965 -445L966 -456C827 -489 691 -624 646 -787C653 -793 661 -797 670 -800C678 -803 682 -805 682 -807C682 -810 678 -813 671 -816ZM543 -538C585 -498 612 -442 617 -411C621 -382 629 -373 641 -373C659 -373 675 -402 675 -428C675 -435 674 -441 671 -447C654 -481 632 -501 549 -547Z"/>
</svg>