<svg xmlns="http://www.w3.org/2000/svg" viewBox="0 -1000 1000 1000">
	<path fill="#000000" d="M409 -689C410 -667 412 -616 412 -591V-333H342C319 -333 294 -335 269 -337L297 -300C314 -307 343 -311 364 -311H587C571 -155 483 -49 269 76L275 88C496 -1 616 -133 634 -301C687 -100 744 -29 875 46C877 47 880 48 882 48C884 48 887 47 889 43C903 19 916 13 979 11L982 -2C811 -33 725 -103 649 -311H968C978 -311 982 -313 982 -317C982 -321 979 -325 974 -331L922 -387L890 -333H844V-604L874 -622C878 -624 881 -627 881 -630C881 -633 878 -636 873 -640L813 -688L785 -645H645C646 -691 646 -738 645 -784C673 -799 677 -801 677 -804C677 -807 675 -810 670 -812L598 -844C599 -778 599 -711 598 -645H468ZM458 -333V-623H598C597 -504 594 -410 589 -333ZM637 -333C642 -415 645 -517 645 -623H797V-333ZM188 -162L27 -102L65 -50C70 -45 74 -42 76 -42C78 -42 80 -43 81 -45C93 -61 107 -76 134 -90L380 -218L374 -232L234 -179V-514H370C378 -514 382 -516 382 -520C382 -523 380 -527 375 -533L328 -588L294 -535H234V-764C260 -780 263 -781 263 -786C263 -790 260 -795 253 -798L184 -833C186 -798 188 -734 188 -695V-535H92C71 -535 48 -537 26 -539L51 -504C66 -510 93 -514 112 -514H188Z"/>
</svg>