<svg xmlns="http://www.w3.org/2000/svg" viewBox="0 -1000 1000 1000">
	<path fill="#000000" d="M181 -206L32 -146L76 -95C78 -92 80 -91 82 -91C85 -91 87 -93 89 -98C97 -115 110 -127 152 -151L363 -265L356 -277L228 -225V-523H364C371 -523 374 -525 374 -530C374 -533 372 -538 366 -543L313 -592L280 -544H228V-772C258 -790 261 -792 261 -795C261 -798 257 -801 250 -804L177 -838C179 -793 181 -739 181 -692V-544H104C82 -544 58 -546 34 -548L61 -513C77 -519 104 -523 124 -523H181ZM606 -607C618 -658 628 -715 636 -782L664 -799C668 -801 671 -804 671 -807C671 -810 668 -813 661 -816L587 -851C582 -751 573 -674 560 -607H455C432 -607 407 -609 382 -611L410 -574C427 -581 456 -585 477 -585H555C546 -544 535 -506 520 -470H389C366 -470 341 -472 316 -474L344 -437C361 -444 390 -448 411 -448H511C463 -337 379 -247 274 -165L281 -153C347 -192 405 -241 453 -293C454 -265 454 -237 454 -219V-41C454 23 466 50 513 51C555 52 601 52 644 52C730 52 804 51 816 48C860 39 881 22 901 -20C901 -21 902 -22 902 -23C902 -27 899 -30 891 -34C869 -45 863 -60 863 -118C863 -132 863 -148 864 -168H848C837 -6 832 2 778 8C741 12 683 14 630 14C500 14 500 10 500 -43V-290H702L700 -178C700 -153 694 -141 659 -141C640 -141 613 -145 573 -152L572 -137C643 -117 655 -107 662 -78C664 -70 668 -67 672 -67C675 -67 677 -68 680 -69C726 -91 740 -116 741 -165L743 -273C772 -286 775 -288 775 -293C775 -296 773 -299 768 -303L720 -341L697 -312H502L479 -324C511 -364 537 -407 556 -448H672C717 -372 771 -302 866 -251C869 -249 871 -248 873 -248C877 -248 880 -251 885 -256C898 -270 920 -279 967 -283L968 -297C839 -309 765 -362 696 -448H919C929 -448 935 -449 935 -454C935 -457 931 -462 923 -470L865 -525L825 -470H565C580 -504 591 -542 601 -585H888C898 -585 904 -586 904 -591C904 -594 900 -599 892 -607L837 -663L798 -607H688C794 -733 806 -739 827 -739C834 -739 838 -741 838 -745C838 -748 835 -752 829 -757L774 -799C742 -734 709 -674 667 -607ZM380 -777C413 -742 439 -703 448 -663C455 -634 459 -627 471 -627C491 -627 507 -652 506 -676C504 -706 465 -740 388 -786Z"/>
</svg>