<svg xmlns="http://www.w3.org/2000/svg" viewBox="0 -1000 1000 1000">
	<path fill="#000000" d="M814 -829L786 -787H519L470 -824C471 -797 472 -773 472 -738V-597C472 -557 471 -527 469 -485V-479C469 -466 471 -461 478 -461C482 -461 488 -463 495 -466C513 -473 517 -477 517 -488H801C801 -457 801 -454 807 -454C810 -454 816 -456 825 -461C845 -471 849 -474 849 -485V-489C847 -521 846 -548 846 -594V-747L875 -766C879 -769 881 -771 881 -774C881 -776 879 -779 875 -782ZM517 -644V-765H801V-644ZM517 -510V-622H801V-510ZM355 -616L324 -562H256V-791L283 -805C289 -808 292 -811 292 -814C292 -816 289 -819 283 -822L206 -858C208 -823 210 -785 210 -746V-562H112C91 -562 68 -564 46 -566L71 -530C86 -536 113 -540 132 -540H210V-258L37 -165L76 -116C79 -113 81 -111 83 -111C86 -111 89 -114 91 -119C96 -130 119 -152 156 -177L401 -343L393 -356L256 -282V-540H413C420 -540 423 -541 423 -544C423 -546 421 -549 417 -553ZM883 -410L852 -364H517L547 -400C558 -413 562 -415 580 -419C587 -421 591 -423 591 -425C591 -427 587 -430 581 -433L520 -462C483 -384 382 -257 280 -153L290 -143C371 -212 436 -272 498 -342H600C549 -221 469 -132 282 -9L289 2C484 -94 570 -182 651 -342H735C700 -173 626 -68 388 67L395 80C642 -26 733 -137 785 -342H863C857 -272 848 -193 838 -130C823 -31 812 1 752 1C727 1 693 -4 646 -13L643 1C724 24 741 36 751 66C754 76 757 80 762 80C764 80 768 79 772 77C840 48 867 -3 881 -107C891 -183 901 -254 909 -321L942 -342C946 -344 947 -346 947 -349C947 -351 946 -354 942 -357Z"/>
</svg>