<svg xmlns="http://www.w3.org/2000/svg" viewBox="0 -1000 1000 1000">
	<path fill="#000000" d="M577 -638C577 -606 578 -558 578 -535V-330C578 -296 577 -146 577 -115C577 -100 579 -93 586 -93C591 -93 598 -96 609 -102C619 -107 621 -113 621 -163H823V-116C823 -108 824 -103 830 -103C834 -103 839 -105 848 -109C866 -118 870 -121 870 -136V-143C867 -188 866 -250 866 -325V-552L893 -575C898 -579 900 -582 900 -585C900 -588 898 -590 893 -594L835 -637L811 -594H631ZM823 -185H621V-371H823ZM621 -572H823V-393H621ZM353 -577C345 -486 331 -450 302 -418C289 -404 283 -392 283 -383C283 -371 295 -357 307 -357C317 -357 328 -364 340 -379C358 -401 367 -436 367 -511C367 -531 366 -552 365 -577ZM449 -776C472 -786 474 -787 474 -790C474 -792 471 -795 465 -800L405 -845C407 -808 408 -739 408 -697V-151C408 -116 406 37 406 68C406 83 408 89 414 89C417 89 422 87 430 83C448 73 452 69 452 52V46C450 2 449 -93 449 -169V-586C480 -558 499 -528 508 -489C509 -482 516 -478 523 -478C538 -478 552 -496 552 -515C552 -538 528 -574 449 -605ZM909 -58L871 -4H553C532 -4 510 -5 487 -8L513 29C528 22 554 18 573 18H957C967 18 972 17 972 13C972 10 968 6 961 -2ZM887 -798L850 -746H583C562 -746 539 -747 517 -750L542 -713C557 -720 583 -724 602 -724H933C942 -724 946 -725 946 -729C946 -732 943 -737 937 -744ZM158 -167L33 -114L67 -63C69 -60 70 -59 72 -59C74 -59 76 -61 79 -65C87 -77 116 -100 161 -126L345 -233L338 -244L202 -186V-501H312C319 -501 323 -502 323 -505C323 -507 321 -510 317 -514L269 -570L240 -521H202V-768L226 -781C231 -784 234 -786 234 -789C234 -792 231 -794 225 -798L154 -838C156 -803 158 -747 158 -700V-521H100C79 -521 56 -523 34 -525L59 -491C74 -497 101 -501 120 -501H158Z"/>
</svg>