<svg xmlns="http://www.w3.org/2000/svg" viewBox="0 -1000 1000 1000">
	<path fill="#000000" d="M839 -561L807 -522H467L410 -568C412 -534 413 -473 413 -436V-308C413 -240 413 -175 410 -122V-110C410 -98 412 -93 418 -93C423 -93 428 -95 436 -98C455 -106 457 -111 457 -127V-152H819C819 -114 819 -109 827 -109C831 -109 837 -111 846 -115C862 -121 867 -128 867 -144V-149C864 -194 863 -242 863 -318V-484L891 -499C896 -501 898 -504 898 -507C898 -510 895 -514 890 -518ZM457 -296V-386H819V-296ZM457 -408V-500H819V-408ZM457 -174V-274H819V-174ZM791 -826L763 -787H509L454 -831C456 -800 457 -765 457 -728V-689C457 -673 453 -601 453 -587C453 -575 455 -570 462 -570C466 -570 473 -572 482 -576C499 -583 499 -586 499 -614H776C776 -596 776 -591 783 -591C789 -591 822 -599 822 -615C822 -617 818 -671 818 -681V-753L843 -764C849 -767 851 -769 851 -772C851 -775 849 -779 843 -783ZM499 -636V-765H776V-636ZM397 -257L236 -213V-544H382C394 -544 400 -546 400 -550C400 -553 397 -559 390 -566L344 -619L312 -566H236V-788C262 -803 265 -804 265 -809C265 -811 262 -814 256 -817L189 -854C191 -819 193 -750 193 -711V-566H103C82 -566 59 -568 37 -570L62 -534C77 -540 104 -544 123 -544H193V-201L31 -156L69 -111C72 -107 75 -106 77 -106C80 -106 82 -107 85 -110C97 -123 121 -139 165 -155L401 -241ZM683 -95C799 -43 855 -1 871 19C892 46 904 55 915 55C925 55 938 45 938 24C938 9 931 -8 916 -19C883 -43 826 -71 687 -106ZM549 -127C488 -75 352 21 262 68L266 79C343 52 413 17 527 -52C541 -60 569 -71 589 -76C599 -79 603 -81 603 -85C603 -88 600 -91 593 -96Z"/>
</svg>