<svg xmlns="http://www.w3.org/2000/svg" viewBox="0 -1000 1000 1000">
	<path fill="#000000" d="M470 -790C415 -734 375 -698 339 -672C344 -710 347 -746 349 -782C378 -799 381 -800 381 -806C381 -809 377 -813 371 -816L300 -852C301 -830 301 -809 301 -790C301 -585 266 -508 156 -417L163 -402C253 -458 296 -502 320 -577C359 -556 402 -517 422 -474C434 -448 442 -444 452 -444C463 -444 478 -462 478 -486C478 -527 436 -554 324 -590C328 -607 332 -626 335 -647L471 -724C485 -732 495 -734 511 -737C520 -739 525 -740 525 -743C525 -746 522 -749 517 -753ZM893 -423L853 -382H151C151 -398 149 -416 147 -436H131C123 -359 112 -324 80 -297C64 -285 58 -274 58 -265C58 -252 68 -239 86 -239C95 -239 107 -243 121 -253C137 -265 149 -297 151 -354H858L800 -272L815 -263C871 -325 906 -345 946 -348C956 -349 960 -350 960 -354C960 -357 957 -362 950 -369ZM552 -758C554 -704 512 -651 478 -634C465 -628 460 -617 460 -608C460 -592 478 -585 490 -585C541 -585 570 -660 570 -732C570 -741 570 -749 569 -758ZM184 -761C188 -687 141 -631 119 -617C105 -608 100 -595 100 -586C100 -571 117 -560 130 -560C142 -560 155 -566 170 -577C187 -588 206 -639 206 -699C206 -719 204 -740 199 -761ZM832 -776C794 -737 719 -678 674 -646C680 -684 685 -730 690 -784C723 -802 726 -804 726 -810C726 -813 723 -816 715 -819L636 -850C636 -566 613 -494 442 -407L447 -389C581 -448 633 -483 660 -580C726 -546 790 -485 811 -451C820 -436 831 -426 840 -426C850 -426 869 -441 869 -465C869 -507 825 -542 664 -598C666 -606 668 -614 670 -623L816 -697C839 -709 860 -716 878 -720C886 -722 890 -724 890 -727C890 -730 887 -733 881 -738ZM844 -50L801 8H523V-164H794C804 -164 809 -167 809 -171C809 -175 806 -180 799 -186L739 -241L694 -187H523V-279L548 -295C554 -299 557 -302 557 -305C557 -308 553 -311 546 -314L477 -348C479 -313 480 -289 480 -251V-187H233C211 -187 186 -189 163 -191L190 -154C205 -160 234 -164 254 -164H480V8H96C74 8 49 6 26 4L53 41C68 35 97 31 117 31H910C921 31 927 28 927 24C927 20 923 15 915 9Z"/>
</svg>