<svg xmlns="http://www.w3.org/2000/svg" viewBox="0 -1000 1000 1000">
	<path fill="#000000" d="M448 -425C450 -394 451 -361 451 -330V-243C451 -231 446 -173 446 -170C446 -163 448 -160 453 -160C457 -160 463 -161 471 -165C492 -174 492 -177 492 -205H754C754 -183 754 -180 761 -180C769 -180 799 -189 799 -206C799 -209 798 -212 798 -216C796 -232 795 -253 795 -276V-350L820 -369C823 -371 824 -374 824 -376C824 -378 823 -380 819 -383L761 -422L736 -384H500ZM492 -227V-362H754V-227ZM647 -832C672 -626 713 -533 867 -420C871 -417 873 -416 876 -416C878 -416 881 -418 884 -422C900 -442 915 -448 964 -448V-460C894 -470 815 -515 765 -571C879 -649 892 -654 914 -654C920 -654 922 -655 922 -658C922 -659 921 -661 919 -664L880 -704C856 -677 800 -621 755 -583C740 -603 724 -632 705 -683C822 -757 835 -762 853 -762C858 -762 860 -763 860 -766C860 -768 859 -770 857 -772L818 -812C787 -778 738 -732 699 -699C685 -741 670 -795 662 -836ZM473 -153C502 -123 518 -85 518 -41C518 -18 523 -13 536 -13C557 -13 573 -36 573 -57C573 -96 536 -129 478 -161ZM571 -803L547 -768H396C380 -768 366 -769 345 -771L370 -738C383 -743 405 -748 422 -748H551C506 -606 413 -477 306 -383L316 -372C437 -460 518 -551 592 -716C597 -727 611 -740 623 -746C627 -748 629 -751 629 -753C629 -755 628 -758 625 -760ZM373 -686C405 -654 420 -624 429 -581C433 -563 438 -559 446 -559C457 -559 472 -576 472 -600C472 -628 456 -648 380 -694ZM728 -176C710 -126 680 -57 650 2H347C328 2 308 0 288 -2L310 34C324 28 348 24 365 24H947C954 24 957 23 957 20C957 18 955 15 951 11L893 -46L855 2H671C752 -116 759 -123 780 -131C784 -133 787 -134 787 -137C787 -139 785 -141 781 -143ZM720 -540L692 -505H542C523 -505 503 -507 483 -509L505 -475C519 -481 543 -485 560 -485H755C760 -485 762 -486 762 -489C762 -491 760 -494 757 -498ZM194 -159L33 -99L71 -55C76 -50 80 -47 82 -47C84 -47 86 -48 87 -50C97 -64 124 -84 140 -91L386 -215L380 -229L240 -176V-518H376C384 -518 388 -520 388 -524C388 -528 386 -532 381 -537L336 -586L300 -539H240V-769C267 -785 270 -787 270 -791C270 -795 266 -799 259 -803L190 -838C192 -803 194 -739 194 -700V-539H96C75 -539 52 -541 30 -543L55 -508C70 -514 97 -518 116 -518H194Z"/>
</svg>