<svg xmlns="http://www.w3.org/2000/svg" viewBox="0 -1000 1000 1000">
	<path fill="#000000" d="M406 -552C407 -521 407 -473 407 -449V-323C407 -291 406 -241 404 -207V-200C404 -191 405 -188 410 -188C415 -188 450 -200 450 -215V-238H613V-139H350C328 -139 304 -141 280 -143L307 -109C323 -115 350 -119 370 -119H613C613 -59 612 -1 610 54V67C610 83 612 90 619 90C625 90 633 86 645 80C655 74 658 70 658 55V46C656 2 656 -47 656 -119H959C968 -119 972 -120 972 -124C972 -126 970 -128 967 -132L903 -202L853 -139H656V-238H822V-203C822 -198 823 -196 827 -196C829 -196 833 -197 838 -199C865 -210 869 -213 869 -225C868 -250 866 -280 866 -323V-471L899 -489C901 -490 903 -492 903 -494C903 -496 901 -498 897 -501L835 -545L805 -507H465ZM613 -258H450V-364H613ZM450 -487H613V-384H450ZM822 -258H656V-364H822ZM656 -487H822V-384H656ZM552 -751V-630H405V-751ZM552 -610V-569C552 -564 553 -562 557 -562C560 -562 598 -574 598 -585C596 -605 595 -622 595 -639V-736L629 -752C631 -753 632 -754 632 -755C632 -757 631 -758 628 -761L572 -809L545 -771H417L360 -821C361 -790 362 -742 362 -718V-626C362 -617 360 -580 360 -572C360 -561 362 -556 370 -556C375 -556 382 -559 393 -563C403 -567 405 -570 405 -577V-610ZM876 -752V-625H722V-752ZM876 -605V-563C876 -558 877 -556 881 -556C883 -556 923 -568 923 -577C923 -589 920 -640 920 -650V-738L950 -754C953 -756 955 -758 955 -760C955 -762 953 -764 949 -767L889 -808L863 -772H732L677 -818C678 -787 679 -739 679 -715V-638C679 -627 677 -579 677 -569C677 -563 679 -559 684 -559C686 -559 722 -567 722 -582V-605ZM170 -194L30 -120L74 -79C81 -72 86 -69 89 -69C92 -69 94 -71 95 -75C102 -91 138 -124 170 -146L378 -289L372 -300L211 -215V-513H350C358 -513 362 -515 362 -519C362 -522 359 -527 353 -533L309 -580L274 -534H211V-776L243 -793C248 -796 251 -798 251 -801C251 -803 248 -805 242 -808L166 -846C168 -811 170 -749 170 -710V-534H102C81 -534 59 -536 37 -538L60 -503C75 -509 103 -513 122 -513H170Z"/>
</svg>