<svg xmlns="http://www.w3.org/2000/svg" viewBox="0 -1000 1000 1000">
	<path fill="#000000" d="M186 -208L31 -150L69 -106C74 -101 78 -98 80 -98C82 -98 84 -99 85 -101C95 -115 112 -129 138 -142L384 -266L378 -280L232 -225V-538H376C384 -538 388 -540 388 -544C388 -548 386 -552 381 -557L336 -606L300 -559H232V-783C259 -799 262 -801 262 -805C262 -809 258 -813 251 -817L182 -852C184 -817 186 -753 186 -714V-559H97C76 -559 54 -561 31 -563L56 -528C71 -534 98 -538 117 -538H186ZM474 -563C510 -527 529 -497 534 -479C541 -455 545 -448 557 -448C572 -448 583 -470 583 -489C583 -520 535 -546 479 -573ZM383 -776C429 -729 445 -699 450 -676C456 -651 462 -644 472 -644C486 -644 500 -661 500 -683C500 -725 453 -753 392 -784ZM918 -179C930 -179 935 -181 935 -184C935 -187 932 -192 925 -199L872 -250L837 -201H632C638 -228 643 -262 647 -304H852C863 -304 868 -306 868 -310C868 -313 865 -318 859 -324L816 -367L781 -326H649C651 -354 653 -385 654 -418H886C897 -418 902 -419 902 -423C902 -427 899 -432 891 -439L846 -481L814 -440H689C744 -509 757 -521 775 -527C785 -530 789 -533 789 -536C789 -539 786 -542 779 -546L731 -574C713 -530 706 -515 670 -440H435C412 -440 387 -442 362 -444L390 -407C407 -414 436 -418 457 -418H606C606 -380 605 -350 603 -326H478C455 -326 430 -328 405 -330L433 -293C450 -300 479 -304 500 -304H602C598 -267 593 -238 586 -201H416C393 -201 368 -203 343 -205L371 -168C388 -175 417 -179 438 -179H581C555 -87 478 -13 278 75L282 89C484 32 591 -57 626 -179H643C699 -60 747 -9 871 62C875 64 877 66 879 66C882 66 884 64 886 60C900 35 924 21 972 21V10C844 3 757 -44 667 -179ZM584 -786C613 -802 616 -804 616 -807C616 -810 613 -812 606 -815L536 -848C538 -811 540 -765 540 -724V-605H427C404 -605 379 -607 354 -609L382 -572C399 -579 428 -583 449 -583H934C945 -583 950 -585 950 -589C950 -592 947 -597 941 -603L889 -656L848 -605H722V-788C749 -805 752 -807 752 -810C752 -813 749 -815 742 -818L675 -850C677 -813 679 -768 679 -727V-605H584ZM840 -801C821 -755 803 -721 751 -639L762 -632C858 -738 870 -747 888 -750C897 -752 901 -754 901 -757C901 -759 897 -763 890 -768Z"/>
</svg>