<svg xmlns="http://www.w3.org/2000/svg" viewBox="0 -1000 1000 1000">
	<path fill="#000000" d="M390 -581H563V-491H390ZM390 -603V-695H563V-603ZM396 -716L345 -758C347 -728 348 -683 348 -660V-515C348 -501 343 -434 343 -430C343 -423 345 -420 349 -420C353 -420 360 -423 370 -427C390 -436 390 -439 390 -469H563C563 -459 564 -454 570 -454C574 -454 580 -456 589 -461C605 -469 608 -472 608 -485C608 -497 605 -549 605 -560V-682C629 -697 632 -699 632 -702C632 -704 630 -706 626 -709L577 -748L554 -716H462C499 -794 509 -807 526 -815C530 -817 532 -820 532 -822C532 -824 531 -826 528 -827L471 -856C464 -811 455 -769 441 -716ZM430 -458C452 -427 460 -403 460 -375C460 -363 465 -357 477 -357C494 -357 505 -374 505 -390C505 -416 463 -445 436 -464ZM736 -840C695 -639 657 -515 609 -418L621 -411C647 -453 668 -492 687 -537C691 -359 708 -266 752 -173C700 -86 617 -7 469 82L474 93C625 28 711 -42 772 -132C828 -28 895 30 900 30C902 30 905 28 907 26C929 4 940 1 978 2V-8C886 -46 846 -84 796 -170C847 -259 870 -365 880 -608H965C969 -608 972 -609 972 -611C972 -613 970 -615 967 -618L908 -681L873 -630H724C736 -662 749 -699 763 -741C774 -773 781 -780 793 -784C803 -787 807 -790 807 -793C807 -795 804 -797 800 -800ZM834 -608C828 -396 812 -294 773 -213C738 -289 710 -417 703 -573C707 -584 712 -596 716 -608ZM169 -191L32 -145L62 -97C64 -93 67 -91 70 -91C73 -91 76 -93 79 -97C90 -113 114 -131 169 -157L334 -234L328 -245L213 -206V-530H327C334 -530 338 -531 338 -534C338 -536 336 -539 332 -543L284 -599L247 -550H213V-774L237 -787C242 -790 245 -792 245 -795C245 -798 242 -800 236 -804L165 -844C167 -809 169 -753 169 -706V-550H102C81 -550 58 -552 36 -554L61 -520C76 -526 103 -530 122 -530H169ZM639 -332C647 -332 651 -333 651 -336C651 -338 649 -341 645 -344L588 -399L556 -354H323C302 -354 279 -356 257 -358L282 -322C297 -328 324 -332 343 -332H385C381 -134 335 -38 226 58L236 67C354 -16 394 -80 417 -226H541C540 -172 535 -127 526 -97C518 -70 510 -56 483 -56C467 -56 445 -61 413 -69L410 -57C466 -35 477 -23 480 2C481 6 483 9 486 9C487 9 489 9 490 8C548 -23 570 -35 581 -211L610 -223C613 -224 614 -225 614 -227C614 -229 613 -232 609 -235L553 -279L531 -249H420C424 -274 427 -302 430 -332Z"/>
</svg>