<svg xmlns="http://www.w3.org/2000/svg" viewBox="0 -1000 1000 1000">
	<path fill="#000000" d="M279 -739L246 -696H151L92 -744C94 -713 95 -665 95 -641V-327C95 -245 93 -202 89 -162C88 -155 88 -149 88 -144C88 -133 90 -129 96 -129C101 -129 108 -132 118 -136C136 -144 139 -148 139 -161V-287H263V-221C263 -213 264 -208 270 -208C274 -208 280 -210 290 -214C309 -222 314 -226 314 -239C314 -241 313 -244 313 -248C309 -293 308 -336 308 -390V-660L340 -678C346 -681 348 -683 348 -685C348 -688 346 -690 340 -694ZM961 -92C841 -122 728 -219 664 -427H917C923 -427 927 -428 927 -431C927 -434 924 -438 918 -444L855 -505L811 -449H619V-632H863C870 -632 875 -633 875 -637C875 -640 872 -644 865 -650L801 -711L761 -654H619V-778C651 -798 652 -798 652 -802C652 -804 648 -807 640 -812L568 -854C570 -819 572 -755 572 -654H436C413 -654 388 -655 363 -658L391 -621C408 -628 437 -632 458 -632H572V-449H392C369 -449 345 -450 319 -453L347 -416C364 -423 393 -427 414 -427H526C446 -274 368 -158 160 11L168 22C352 -93 449 -196 572 -406V-160C572 -126 568 25 568 55C568 72 570 78 578 78C582 78 589 76 599 72C619 63 623 60 623 45V38C620 -7 619 -82 619 -158V-427H644C682 -249 747 -145 850 -52C854 -49 856 -47 859 -47C861 -47 863 -49 865 -51C883 -70 898 -79 936 -79C943 -79 952 -79 961 -78ZM139 -309V-674H263V-309Z"/>
</svg>