<svg xmlns="http://www.w3.org/2000/svg" viewBox="0 -1000 1000 1000">
	<path fill="#000000" d="M531 -752V-675H370V-752ZM531 -560C531 -539 531 -537 537 -537C541 -537 547 -538 557 -542C571 -547 576 -551 576 -562C576 -567 572 -649 572 -665V-735C604 -751 605 -751 605 -754C605 -756 603 -759 600 -762L544 -808L517 -772L381 -771L326 -820C328 -783 330 -732 330 -691V-157C330 -100 329 -19 327 40V47C327 65 329 71 337 71C341 71 347 69 355 66C371 60 374 56 374 40V32C371 -13 370 -79 370 -155V-560ZM531 -654V-579H370V-654ZM665 -817C667 -786 670 -738 670 -714V-623C670 -588 669 -565 667 -538C667 -535 666 -532 666 -529C666 -522 668 -518 674 -518C678 -518 684 -520 693 -523C709 -529 709 -534 709 -555H869V-43C869 -12 864 3 836 3C818 3 790 -3 748 -15L746 2C814 26 824 38 827 67C828 72 831 74 836 74C839 74 842 73 846 72C899 53 912 30 912 -21V-726L944 -741C948 -742 950 -744 950 -746C950 -749 948 -752 943 -756L887 -805L857 -769H721ZM709 -670V-747H869V-670ZM709 -576V-651H869V-576ZM160 -179L24 -123L56 -72C58 -69 59 -68 61 -68C63 -68 66 -70 69 -75C81 -90 103 -107 146 -130L315 -226L312 -242L204 -197V-508H312C319 -508 322 -509 322 -512C322 -514 321 -516 318 -520L277 -572L244 -529H204V-753C234 -771 237 -773 237 -776C237 -779 233 -782 226 -785L156 -819C158 -774 160 -720 160 -673V-529H98C76 -529 52 -531 28 -533L55 -498C71 -504 98 -508 118 -508H160ZM455 -360C478 -383 498 -407 521 -436H692L633 -345L646 -339C719 -412 733 -418 755 -421C764 -422 768 -425 768 -429C768 -432 766 -435 762 -438L701 -486L680 -459H540C556 -478 568 -487 583 -493C590 -496 593 -499 593 -502C593 -504 591 -506 587 -508L537 -536C507 -471 460 -404 388 -310L398 -302C418 -321 434 -338 449 -354C451 -320 452 -277 452 -243V-129C452 -115 450 -47 450 -41C450 -26 453 -20 460 -20C463 -20 468 -21 474 -24C488 -30 490 -33 490 -51V-86H747V-41C747 -33 748 -29 754 -29C757 -29 763 -30 772 -34C788 -40 792 -44 792 -56C792 -59 791 -63 791 -68C788 -97 787 -124 787 -158V-286L811 -299C815 -301 817 -303 817 -305C817 -308 815 -310 811 -313L761 -357L736 -324H697C674 -324 649 -326 624 -328L650 -293C677 -304 727 -304 747 -304V-211H690C667 -211 642 -212 617 -215L643 -180C660 -187 684 -191 711 -191H747V-107H490V-188H610C617 -188 620 -189 620 -192C620 -195 618 -198 615 -202L575 -248L545 -209H490V-309C547 -323 570 -328 589 -328C611 -328 613 -328 613 -332C613 -334 612 -336 610 -338L575 -378C554 -361 532 -346 501 -330Z"/>
</svg>