<svg xmlns="http://www.w3.org/2000/svg" viewBox="0 -1000 1000 1000">
	<path fill="#000000" d="M906 -406L864 -349H778V-568L812 -591C819 -596 822 -599 822 -602C822 -605 819 -609 813 -613L746 -663L716 -620H497L500 -768L537 -794C543 -798 545 -801 545 -803C545 -806 543 -808 537 -810L449 -854C450 -815 450 -778 450 -745C450 -699 450 -658 449 -620H236C213 -620 188 -622 163 -624L191 -586C208 -593 237 -597 258 -597H448C445 -491 437 -417 425 -349H130C107 -349 82 -351 57 -353L85 -316C102 -323 131 -327 152 -327H421C386 -160 294 -48 54 68L60 82C340 -31 432 -142 470 -327H515C648 -9 849 46 853 46C857 46 860 44 862 39C876 13 896 5 964 5V-8C766 -27 644 -122 535 -327H958C968 -327 974 -328 974 -332C974 -335 970 -340 962 -348ZM474 -349C483 -401 491 -485 496 -597H730V-349Z"/>
</svg>