<svg xmlns="http://www.w3.org/2000/svg" viewBox="0 -1000 1000 1000">
	<path fill="#000000" d="M438 -614C370 -525 306 -466 170 -379L181 -364C248 -398 293 -424 329 -449C367 -422 389 -394 399 -362C404 -347 410 -342 416 -342C429 -342 443 -352 443 -372C443 -402 431 -428 345 -460C360 -471 374 -482 387 -493H657C619 -445 586 -422 536 -390C436 -325 324 -277 149 -222L152 -206C441 -274 611 -370 695 -462C703 -471 718 -481 737 -486C743 -488 746 -490 746 -493C746 -496 743 -499 739 -502L678 -546L647 -515H412C426 -527 440 -540 455 -555C465 -564 481 -568 499 -568C504 -568 507 -570 507 -572C507 -575 505 -578 500 -580ZM523 -329C455 -250 343 -166 183 -86L192 -74C268 -105 330 -135 383 -165C427 -135 453 -107 469 -70C475 -55 480 -50 486 -50C500 -50 514 -59 514 -77C514 -108 504 -136 400 -175C419 -186 437 -197 454 -208H778C760 -184 697 -134 649 -105C542 -40 352 16 87 54L92 72C353 50 548 2 660 -63C729 -103 782 -144 816 -177C825 -185 836 -193 862 -205C867 -208 870 -210 870 -213C870 -216 868 -218 864 -221L803 -269L768 -230H485C505 -244 523 -258 541 -272C553 -281 559 -283 580 -287C586 -288 589 -290 589 -292C589 -294 586 -296 581 -299ZM472 -855C443 -802 412 -753 376 -707H137C114 -707 89 -709 64 -711L92 -674C109 -681 138 -685 159 -685H359C276 -582 171 -492 26 -399L33 -386C190 -472 309 -562 418 -685H604C658 -581 719 -517 879 -420C880 -419 882 -418 883 -418C885 -418 887 -420 890 -424C905 -449 941 -462 977 -462V-475C848 -490 716 -560 626 -685H941C949 -685 952 -686 952 -690C952 -692 950 -696 944 -701L882 -762L837 -707H437C455 -727 472 -749 489 -771C506 -793 514 -802 537 -809C543 -811 546 -813 546 -816C546 -818 544 -821 539 -823Z"/>
</svg>