<svg xmlns="http://www.w3.org/2000/svg" viewBox="0 -1000 1000 1000">
	<path fill="#000000" d="M253 -509V-577H750V-509ZM270 -685L206 -723C208 -693 209 -659 209 -610V-448C209 -430 209 -404 205 -370C205 -366 204 -363 204 -360C204 -352 206 -349 212 -349C216 -349 223 -351 232 -355C250 -363 253 -367 253 -379V-400H421C414 -367 397 -333 378 -307H94C71 -307 46 -309 21 -311L49 -274C66 -281 95 -285 116 -285H360C296 -215 210 -165 39 -103L43 -88C162 -119 256 -157 327 -206C329 -26 295 7 130 77L133 93C329 29 358 -2 382 -165L407 -180C411 -183 413 -185 413 -186C413 -188 411 -190 408 -191L346 -220C372 -240 394 -262 413 -285H618C700 -197 781 -142 869 -111C871 -110 872 -110 874 -110C877 -110 880 -112 881 -115C891 -140 915 -149 982 -152V-164C865 -161 769 -191 645 -285H958C972 -285 977 -288 977 -292C977 -296 973 -302 966 -309L914 -361L870 -307H429C448 -333 458 -349 466 -364C498 -368 502 -368 502 -376C502 -380 498 -385 489 -387L448 -400H750V-370C750 -361 752 -356 758 -356C762 -356 768 -358 776 -363C797 -375 801 -379 801 -392C801 -405 796 -475 796 -491V-649C822 -665 825 -667 825 -673C825 -676 823 -679 818 -682L760 -720L735 -685H444C461 -713 472 -729 494 -762H940C948 -762 953 -765 953 -770C953 -774 950 -778 944 -784L887 -838L848 -784H122C99 -784 74 -786 49 -788L77 -751C94 -758 123 -762 144 -762H439C435 -734 431 -711 426 -685ZM253 -599V-663H750V-599ZM253 -487H750V-422H253ZM647 -215C649 -195 650 -168 650 -129V-32C650 26 650 52 648 78V80C648 88 651 92 657 92C662 92 669 90 679 85C699 75 703 72 703 58C703 51 699 -35 699 -53V-158L718 -170C721 -172 723 -174 723 -176C723 -178 721 -180 717 -182Z"/>
</svg>