<svg xmlns="http://www.w3.org/2000/svg" viewBox="0 -1000 1000 1000">
	<path fill="#000000" d="M307 -745L279 -705H163L101 -756C103 -726 104 -692 104 -658V-357C104 -303 103 -218 101 -161V-151C101 -138 102 -133 109 -133C113 -133 119 -135 127 -138C145 -145 147 -148 147 -160V-280H295C295 -242 295 -237 302 -237C306 -237 312 -239 320 -242C339 -249 344 -252 344 -266C344 -270 343 -273 343 -278C340 -320 338 -374 338 -446V-669L364 -686C369 -690 372 -692 372 -695C372 -698 369 -701 364 -704ZM147 -302V-683H295V-302ZM850 -813L810 -753H427C408 -753 389 -754 368 -756L391 -725C404 -729 427 -732 444 -732H654C577 -521 423 -281 282 -143L292 -132C400 -219 504 -341 599 -509C600 -484 600 -457 600 -438V-177C600 -158 598 -76 598 -59C598 -45 599 -39 606 -39C610 -39 616 -41 624 -45C643 -54 647 -57 647 -69C647 -75 645 -121 645 -131V-513C666 -526 669 -528 669 -531C669 -533 666 -536 659 -539L625 -556C653 -610 681 -669 708 -732H906C916 -732 922 -733 922 -737C922 -740 918 -745 911 -752ZM707 -470C793 -386 837 -316 863 -259C878 -226 881 -222 891 -222C909 -222 922 -252 922 -275C922 -336 804 -421 714 -480ZM881 -62L836 -7H327C307 -7 289 -8 268 -9L291 23C304 19 328 16 345 16H935C946 16 951 14 951 10C951 7 947 2 940 -5Z"/>
</svg>