<svg xmlns="http://www.w3.org/2000/svg" viewBox="0 -1000 1000 1000">
	<path fill="#000000" d="M334 -643L305 -603L209 -597C222 -665 233 -729 242 -780L267 -795C271 -797 274 -800 274 -802C274 -805 271 -808 266 -811L195 -852C188 -778 176 -687 162 -593L103 -590C78 -588 55 -588 30 -589L61 -554C77 -562 102 -567 127 -569L159 -571C141 -455 119 -335 96 -240C147 -217 190 -192 224 -164C177 -79 119 -21 28 51L37 62C136 3 205 -58 255 -136C273 -118 288 -98 300 -77C309 -61 317 -52 327 -52C336 -52 345 -68 345 -89C345 -124 322 -149 278 -177C326 -274 351 -399 361 -563L391 -581C395 -583 397 -586 397 -588C397 -590 395 -593 391 -596ZM974 -89C852 -124 761 -243 719 -399H943C953 -399 958 -400 958 -403C958 -406 954 -411 946 -419L883 -482L843 -421H678V-604H881C891 -604 896 -605 896 -608C896 -611 892 -616 884 -624L826 -681L786 -626H678V-793C708 -813 709 -813 709 -817C709 -819 705 -822 698 -825L626 -858C629 -821 630 -785 630 -712V-626H509C515 -641 520 -657 526 -675C534 -700 536 -702 548 -709C556 -712 560 -715 560 -718C560 -721 557 -724 549 -727L485 -754C477 -663 462 -579 418 -471L430 -464C461 -514 481 -555 501 -604H630V-421H450C427 -421 402 -423 377 -425L405 -388C422 -395 451 -399 472 -399H587C533 -255 433 -103 297 16L304 28C459 -77 563 -227 630 -388V-159C630 -102 629 -12 627 47V57C627 73 629 80 637 80C642 80 650 77 661 72C678 65 682 59 682 44V38C679 -7 678 -82 678 -158V-399H697C735 -234 786 -140 873 -51C878 -45 882 -43 885 -43C887 -43 889 -44 890 -45C909 -65 931 -76 974 -78ZM314 -582C307 -423 289 -299 242 -198C214 -213 180 -228 139 -244C160 -337 184 -460 205 -574Z"/>
</svg>