<svg xmlns="http://www.w3.org/2000/svg" viewBox="0 -1000 1000 1000">
	<path fill="#000000" d="M42 72C237 64 442 23 561 -57C665 -25 747 11 799 46C816 58 830 63 839 63C851 63 858 51 858 39C858 24 849 6 833 -8C812 -27 727 -59 601 -89C643 -128 683 -178 719 -243H941C949 -243 955 -246 955 -251C955 -254 953 -259 947 -264L885 -323L843 -265H438C451 -280 463 -296 475 -312L505 -323C510 -325 513 -327 513 -329C513 -331 511 -334 506 -336L448 -368C428 -329 409 -299 384 -265H127C102 -265 74 -267 46 -269L77 -232C96 -239 128 -243 152 -243H368C342 -208 311 -170 270 -121C356 -108 436 -92 507 -72C404 -9 274 27 41 58ZM658 -243C633 -189 594 -137 548 -100C480 -115 402 -128 318 -137C359 -175 391 -208 420 -243ZM383 -591H203C180 -591 155 -593 130 -595L158 -560C175 -567 204 -571 225 -571H383V-459H160C137 -459 112 -461 87 -463L115 -428C132 -435 161 -439 182 -439H383C383 -414 381 -375 381 -351C381 -343 382 -339 386 -339C390 -339 396 -342 405 -347C428 -360 430 -362 430 -374C429 -397 429 -434 429 -463V-781C462 -802 463 -803 463 -806C463 -809 459 -811 453 -814L380 -845C382 -813 383 -777 383 -716H170C147 -716 122 -718 97 -720L125 -685C142 -692 171 -696 192 -696H383ZM631 -784L660 -804C664 -807 666 -809 666 -811C666 -813 664 -814 660 -816L582 -848C584 -815 585 -774 585 -738V-434C585 -409 584 -368 584 -343C584 -334 585 -330 590 -330C590 -330 633 -345 633 -364C632 -386 631 -417 631 -441H929C936 -441 940 -442 940 -445C940 -448 937 -452 932 -457L880 -510L839 -461H631V-572H871C877 -572 880 -573 880 -575C880 -577 878 -580 873 -585L824 -638L786 -592H631V-696H923C930 -696 934 -697 934 -700C934 -703 931 -707 926 -712L870 -769L830 -716H631Z"/>
</svg>