<svg xmlns="http://www.w3.org/2000/svg" viewBox="0 -1000 1000 1000">
	<path fill="#000000" d="M679 -241C711 -131 778 -41 881 28C885 31 889 32 892 32C895 32 897 31 899 28C910 13 931 -4 976 -5V-17C848 -41 741 -128 696 -241H961C968 -241 972 -242 972 -245C972 -247 970 -250 966 -254L910 -312L869 -263H667V-373H896C903 -373 906 -375 906 -377C906 -380 904 -382 900 -386L840 -442L805 -395H494V-640H597V-527C597 -514 596 -455 596 -443C596 -436 597 -433 602 -433C605 -433 609 -434 614 -436C638 -446 639 -449 639 -457V-494H751C751 -455 751 -450 759 -450C767 -450 797 -458 797 -474C797 -477 796 -479 796 -482C794 -501 794 -533 794 -570V-640H944C951 -640 954 -641 954 -644C954 -646 952 -649 947 -654L893 -708L858 -662H794V-792C815 -802 817 -803 817 -806C817 -808 815 -811 811 -813L748 -849C750 -812 751 -781 751 -752V-662H639V-781C650 -789 668 -801 668 -804C668 -806 666 -808 662 -810L594 -849C596 -821 597 -793 597 -754V-662H494V-739C518 -755 521 -757 521 -761C521 -763 519 -765 514 -768L447 -808C450 -774 451 -711 451 -662C405 -662 390 -662 357 -666L385 -629C400 -635 430 -640 451 -640V-399L430 -380L466 -351C469 -349 471 -347 474 -347C479 -347 481 -350 503 -373H622V-263H418C396 -263 371 -265 348 -267L375 -231C390 -237 419 -241 439 -241H565C506 -143 393 -25 273 56L282 67C392 10 523 -93 622 -239V-94C622 -27 621 11 619 60V65C619 76 621 81 628 81C633 81 639 79 648 75C664 68 669 63 669 46V41C667 11 667 -25 667 -105V-241ZM312 -591C307 -395 284 -297 239 -204C212 -218 181 -232 145 -245C167 -337 188 -449 210 -583ZM391 -596C396 -599 399 -602 399 -605C399 -608 396 -611 392 -614L331 -653L302 -610L213 -604C222 -659 231 -718 240 -781L275 -799C279 -801 281 -803 281 -805C281 -807 279 -809 275 -811L203 -851C194 -768 183 -684 171 -601L121 -598C98 -597 69 -597 45 -598L80 -566C106 -577 135 -578 168 -580C150 -460 129 -345 107 -243C154 -219 193 -196 223 -173C184 -100 121 -28 22 49L31 60C116 15 196 -61 253 -149C296 -113 320 -80 332 -54C341 -35 348 -29 360 -29C371 -29 383 -45 383 -68C383 -77 381 -88 376 -99C364 -125 331 -154 274 -186C316 -266 342 -371 364 -580ZM639 -640H751V-516H639Z"/>
</svg>