<svg xmlns="http://www.w3.org/2000/svg" viewBox="0 -1000 1000 1000">
	<path fill="#000000" d="M467 -618L442 -589H119C96 -589 70 -591 46 -593L74 -557C91 -564 115 -568 141 -568H258C212 -481 142 -395 29 -314L37 -303C158 -369 248 -470 310 -568H326V-370C326 -355 321 -346 295 -346C277 -346 248 -351 203 -362L200 -351C268 -330 287 -319 293 -291C294 -286 296 -283 300 -283C301 -283 303 -284 305 -285C354 -309 370 -329 370 -362V-568H446L414 -492L423 -487C476 -552 490 -566 513 -569C520 -570 524 -572 524 -574C524 -576 521 -578 517 -581ZM861 -282L826 -234H410L473 -326L502 -334C507 -335 509 -336 509 -338C509 -340 507 -343 502 -347L452 -389C421 -331 392 -284 359 -234H109C86 -234 61 -235 36 -238L64 -201C81 -208 110 -212 131 -212H345C323 -179 299 -143 271 -103C359 -86 431 -70 491 -55C395 11 211 60 50 65V80C232 86 429 50 542 -41C657 -8 723 26 779 75C793 87 803 92 811 92C823 92 830 81 830 69C830 54 821 35 803 17C783 -3 697 -38 573 -69C604 -101 635 -144 672 -212H923C931 -212 935 -214 935 -217C935 -220 932 -224 925 -229ZM462 -807L431 -773H155C132 -773 106 -775 82 -777L110 -740C127 -747 151 -751 177 -751H427L346 -651C329 -671 296 -691 232 -713L228 -703C273 -678 302 -641 308 -613C311 -599 315 -593 327 -593C346 -593 357 -606 357 -622C357 -628 356 -633 353 -639C451 -732 480 -748 509 -751C516 -752 520 -753 520 -756C520 -758 518 -761 514 -764ZM395 -212H616C587 -156 559 -113 523 -80C464 -93 399 -105 329 -115ZM970 -364C889 -364 795 -401 740 -450C783 -503 811 -567 830 -653H933C939 -653 942 -654 942 -657C942 -659 940 -662 936 -666L879 -726L839 -675H635C679 -783 685 -797 701 -802C707 -804 710 -806 710 -808C710 -810 707 -813 702 -815L644 -844C605 -699 579 -612 511 -495L521 -488C559 -531 585 -571 614 -632C630 -553 657 -495 693 -448C654 -403 599 -360 514 -311L519 -300C601 -333 666 -371 715 -421C769 -367 871 -313 883 -313C886 -313 888 -315 890 -318C903 -337 921 -349 970 -354ZM781 -653C767 -580 749 -525 714 -476C682 -516 649 -579 625 -653Z"/>
</svg>