<svg xmlns="http://www.w3.org/2000/svg" viewBox="0 -1000 1000 1000">
	<path fill="#000000" d="M525 -647V-765H798V-647ZM525 -510V-625H798V-510ZM477 -837C479 -813 480 -779 480 -733V-552C480 -518 479 -484 477 -465C476 -458 476 -452 476 -447C476 -437 478 -433 484 -433C490 -433 501 -437 517 -445C525 -449 525 -453 525 -488H798C798 -456 798 -452 805 -452C809 -452 815 -454 825 -459C844 -468 849 -472 849 -484C849 -487 848 -490 848 -493C844 -538 843 -564 843 -622V-744L871 -760C877 -763 880 -765 880 -768C880 -771 877 -774 872 -778L815 -825L787 -787H542ZM398 -604C403 -607 406 -610 406 -613C406 -616 403 -619 399 -622L338 -661L309 -618L215 -611C224 -663 234 -718 244 -777L275 -795C279 -798 281 -800 281 -801C281 -803 279 -805 275 -807L203 -847C194 -766 183 -687 171 -608L112 -605C88 -604 60 -603 36 -604L71 -572C87 -579 110 -583 137 -585L167 -587C149 -468 127 -354 103 -251C161 -221 202 -196 233 -172C189 -94 129 -40 20 48L25 61C125 2 212 -74 262 -147C288 -122 303 -100 314 -75C321 -61 329 -56 338 -56C351 -56 364 -65 364 -83C364 -123 333 -157 285 -184C329 -264 352 -372 371 -588ZM319 -596C308 -376 296 -296 250 -203C219 -220 180 -238 131 -257C158 -345 184 -455 210 -589ZM639 -17C574 -32 535 -71 485 -164C494 -190 502 -219 510 -253L537 -264C543 -266 545 -269 545 -271C545 -274 542 -277 534 -280L471 -306C439 -109 416 -63 263 73L270 85C390 4 441 -49 475 -135C540 24 632 40 879 56H887C896 56 898 55 900 49C905 33 924 22 982 12V-2C930 1 885 3 845 3C780 3 730 -1 685 -8V-190H894C902 -190 906 -191 906 -195C906 -198 903 -202 898 -208L843 -267L798 -212H685V-351H970C978 -351 982 -352 982 -354C982 -356 979 -360 975 -364L915 -427L872 -373H441C411 -373 387 -373 368 -376L405 -345C416 -349 433 -351 459 -351H639Z"/>
</svg>