<svg xmlns="http://www.w3.org/2000/svg" viewBox="0 -1000 1000 1000">
	<path fill="#000000" d="M527 -855C507 -791 449 -684 362 -565L375 -557C410 -596 459 -653 502 -716H869C869 -644 866 -560 862 -514C857 -463 851 -448 793 -448C774 -448 749 -449 718 -452L717 -439C791 -426 806 -418 814 -398C816 -393 818 -391 822 -391C824 -391 826 -392 828 -393C885 -418 894 -440 900 -503C904 -547 908 -640 908 -694L940 -711C945 -714 947 -716 947 -718C947 -720 945 -723 940 -727L887 -769L857 -735H515C526 -751 537 -768 547 -785C553 -795 574 -813 583 -815C588 -817 591 -819 591 -821C591 -823 589 -825 585 -827ZM790 -606C814 -618 816 -620 816 -623C816 -625 813 -627 807 -630L748 -657C750 -625 751 -615 751 -588V-537H649C653 -561 656 -605 656 -643C667 -649 684 -659 684 -662C684 -664 681 -666 675 -669L615 -695C616 -678 617 -662 617 -645C617 -601 613 -561 606 -537H503V-594C528 -610 530 -612 530 -615C530 -617 527 -619 521 -622L462 -647C464 -618 464 -608 464 -585V-545L429 -525L475 -491C477 -489 479 -489 481 -489C486 -489 488 -491 508 -517H599C569 -455 484 -404 356 -362L357 -349C429 -364 489 -385 536 -410C503 -358 416 -255 330 -166L340 -157C375 -186 415 -221 457 -262V-145L422 -123L467 -92C471 -89 474 -88 476 -88C479 -88 482 -90 501 -112H600C588 -51 526 5 366 71L370 84C562 27 625 -29 642 -112H753V-72C753 -67 754 -65 759 -65C762 -65 767 -66 774 -68C792 -74 793 -77 793 -88C793 -102 792 -114 792 -135V-218L816 -235C818 -237 820 -239 820 -241C820 -242 818 -244 815 -245L750 -273C752 -241 753 -229 753 -202V-132H645C650 -171 653 -218 653 -254C677 -267 680 -269 680 -271C680 -273 678 -274 674 -276L607 -305C608 -289 608 -273 608 -257C608 -214 606 -170 602 -132H496V-217C520 -234 522 -236 522 -239C522 -242 519 -243 513 -246L463 -268C482 -286 502 -306 521 -327H864C866 -253 864 -146 860 -93C855 -17 850 6 784 6C759 6 726 3 681 -2L680 13C774 29 786 40 793 70C794 76 796 79 800 79C802 79 805 78 808 76C884 37 890 26 900 -83C905 -141 909 -248 908 -309L937 -329C941 -332 944 -334 944 -336C944 -339 941 -342 935 -346L879 -388L851 -346H538C544 -353 564 -376 583 -383C588 -385 591 -386 591 -389C591 -391 589 -393 585 -395L550 -418C599 -447 631 -481 644 -517H751C751 -490 751 -487 757 -487C766 -487 791 -493 791 -507C791 -515 790 -550 790 -557ZM250 -795C257 -798 260 -801 260 -804C260 -807 257 -810 249 -814L176 -852C167 -754 160 -694 145 -605L109 -604C84 -603 60 -603 34 -605L64 -571C90 -584 118 -584 142 -584C118 -436 106 -367 85 -273C129 -244 172 -212 207 -178C164 -99 110 -41 17 31L23 45C121 -16 189 -73 236 -149C269 -114 293 -78 303 -45C310 -23 318 -15 328 -15C344 -15 356 -33 356 -56C356 -98 318 -137 257 -185C299 -267 318 -351 338 -568L366 -582C371 -585 374 -587 374 -590C374 -592 371 -596 366 -600L312 -647L284 -608L189 -606C199 -660 210 -717 221 -780ZM292 -588C286 -413 268 -302 224 -210C193 -234 158 -258 123 -278C146 -386 165 -481 185 -585Z"/>
</svg>