<svg xmlns="http://www.w3.org/2000/svg" viewBox="0 -1000 1000 1000">
	<path fill="#000000" d="M449 -680V-742C473 -755 476 -756 476 -760C476 -762 473 -764 467 -767L403 -793C405 -775 405 -766 405 -749V-690L373 -676L417 -639C421 -635 424 -634 427 -634C431 -634 433 -636 451 -658H482C454 -586 410 -518 328 -420C333 -458 338 -502 343 -551L368 -568C372 -571 374 -573 374 -575C374 -578 372 -580 368 -583L312 -625L289 -592L204 -588C214 -644 224 -700 233 -757L258 -773C261 -775 263 -777 263 -779C263 -781 261 -783 257 -785L188 -825C184 -767 174 -680 159 -586L111 -584C88 -583 64 -582 39 -583L69 -549C98 -562 125 -563 156 -564C139 -453 118 -336 97 -243C145 -220 185 -192 219 -163C183 -95 111 -15 27 57L36 68C129 6 203 -62 247 -137C274 -111 296 -84 314 -58C328 -37 338 -33 344 -33C352 -33 362 -47 362 -67C362 -106 333 -133 267 -176C294 -233 311 -299 325 -393C355 -419 388 -451 418 -484V-404C418 -362 417 -342 415 -303V-300C415 -293 417 -290 423 -290C427 -290 432 -291 440 -293C459 -298 459 -301 459 -322H907C917 -322 922 -323 922 -327C922 -329 918 -334 912 -341L871 -385L835 -342H688V-395H852C860 -395 864 -397 864 -399C864 -402 861 -405 857 -409L816 -451L786 -414H688V-468H849C858 -468 862 -469 862 -472C862 -475 859 -478 855 -482L814 -523L784 -488H688V-543H874C884 -543 889 -545 889 -548C889 -551 886 -554 881 -559L834 -608L800 -567H676C683 -572 687 -581 687 -591C687 -595 686 -599 685 -603C681 -617 659 -636 603 -651L599 -641C630 -616 637 -604 642 -579C643 -574 645 -570 647 -567H485C494 -579 501 -590 507 -600C509 -606 543 -609 543 -615C543 -617 541 -621 535 -625L491 -658H843C843 -624 843 -620 851 -620C855 -620 859 -621 866 -624C888 -632 890 -636 890 -650C890 -670 889 -681 889 -694V-739C919 -753 922 -754 922 -758C922 -761 919 -763 913 -766L841 -800C842 -783 842 -765 843 -738V-680H674V-784C701 -800 704 -801 704 -805C704 -807 701 -810 694 -813L627 -841C629 -825 629 -806 629 -785V-680ZM864 -251V-23C864 -3 860 7 828 7C811 7 787 4 751 -1L747 13C818 35 832 47 838 73C839 79 841 82 845 82C847 82 849 81 852 80C903 53 907 41 907 -10V-231L933 -244C938 -247 941 -249 941 -251C941 -253 938 -256 934 -260L886 -304L854 -269H445L389 -309C392 -287 392 -269 392 -240V5C392 15 391 61 391 70C391 79 392 83 398 83C402 83 408 81 417 77C433 70 435 65 435 39V-251ZM645 -414H459V-468H645ZM459 -342V-395H645V-342ZM645 -488H459V-532C462 -536 465 -539 468 -543H645ZM517 -60C517 -50 516 -4 516 5C516 14 517 19 523 19C527 19 533 16 543 12C560 4 560 1 560 -26H749C749 -13 749 -10 755 -10C758 -10 784 -18 784 -32C784 -40 782 -76 782 -81V-110C804 -119 807 -120 807 -123C807 -126 805 -129 800 -132L751 -167L733 -140H562L523 -159L560 -183C575 -193 586 -198 598 -201C612 -204 617 -207 617 -211C617 -212 616 -214 613 -216L569 -246C526 -192 489 -158 446 -129L455 -115L514 -153C516 -135 517 -116 517 -92ZM297 -570C288 -391 272 -289 234 -197C206 -213 173 -230 137 -245C159 -347 180 -456 200 -566ZM560 -44V-122H749V-44ZM697 -232C748 -204 785 -172 798 -152C809 -132 814 -130 827 -130C837 -130 844 -142 844 -155C844 -161 843 -166 840 -172C827 -201 789 -222 701 -242Z"/>
</svg>