<svg xmlns="http://www.w3.org/2000/svg" viewBox="0 -1000 1000 1000">
	<path fill="#000000" d="M380 -659C403 -673 405 -675 405 -680C405 -683 402 -686 395 -689L333 -712C336 -679 337 -651 336 -615H217C196 -615 168 -617 144 -619L172 -586C189 -593 218 -597 239 -597H336V-506H250C227 -506 202 -508 177 -510L205 -477C222 -484 251 -488 272 -488H336V-399H125C102 -399 77 -401 52 -403L80 -370C97 -377 126 -381 147 -381H310C249 -295 178 -222 36 -124L42 -112C133 -157 205 -207 280 -281V-61C280 41 291 41 554 41C638 41 724 39 756 35C806 29 821 11 849 -36C850 -39 851 -41 851 -43C851 -46 849 -49 843 -51C815 -61 809 -76 807 -187L791 -188C788 -25 771 -13 739 -10C677 -5 539 -2 458 -2C327 -2 327 -13 327 -59V-256H618L604 -158C601 -137 594 -126 569 -126C547 -126 513 -134 456 -149L453 -136C528 -110 549 -98 553 -71C554 -61 558 -58 563 -58C565 -58 567 -58 569 -59C629 -81 642 -95 650 -144L664 -229L694 -244C699 -247 702 -249 702 -252C702 -254 700 -257 695 -262L640 -313L609 -278H344L308 -310C328 -331 349 -355 371 -381H608C670 -288 743 -225 878 -168C881 -167 883 -166 884 -166C889 -166 891 -169 894 -173C911 -196 932 -208 974 -209V-222C832 -225 701 -294 630 -381H918C926 -381 930 -383 930 -386C930 -389 927 -394 922 -399L872 -449L831 -399H633V-488H784C793 -488 797 -490 797 -493C797 -496 794 -500 788 -506L738 -552L707 -506H633V-597H803C813 -597 818 -598 818 -601C818 -604 815 -608 807 -615L759 -658L722 -615H633V-657C658 -671 661 -672 661 -676C661 -679 658 -681 652 -684L586 -713C588 -680 589 -650 589 -615H380ZM380 -506V-597H589V-506ZM380 -399V-488H589V-399ZM411 -843C451 -816 466 -796 477 -768C483 -752 490 -746 499 -746C514 -746 529 -762 529 -782C529 -809 506 -826 416 -853ZM167 -779C151 -707 137 -691 106 -673C90 -664 83 -654 83 -644C83 -633 94 -619 113 -619C122 -619 174 -626 182 -719H838L807 -651L818 -645C868 -703 891 -718 913 -718C924 -718 927 -718 927 -722C927 -724 924 -728 917 -734L859 -781L829 -737H183C183 -750 183 -764 182 -779Z"/>
</svg>