<svg xmlns="http://www.w3.org/2000/svg" viewBox="0 -1000 1000 1000">
	<path fill="#000000" d="M477 -411V-356H268L220 -381C222 -351 223 -328 223 -304V-270C223 -261 219 -223 219 -215C219 -210 221 -207 226 -207C229 -207 235 -209 244 -212C265 -219 265 -221 265 -243H423C415 -228 402 -212 372 -177H120C97 -177 72 -179 47 -181L74 -147C92 -155 122 -158 143 -158H354C336 -137 312 -111 280 -77C365 -64 438 -52 500 -40C409 6 239 57 83 75L84 89C253 83 445 33 557 -28C696 3 773 34 827 69C839 77 848 80 855 80C870 80 872 61 872 55C872 36 859 15 840 5C799 -16 713 -38 602 -56C646 -87 689 -129 707 -158H934C944 -158 949 -161 949 -165C949 -169 946 -173 940 -179L888 -228L845 -177H427L453 -205L484 -212C489 -213 492 -215 492 -217C492 -218 490 -220 486 -222L442 -243H730C730 -221 730 -218 737 -218C745 -218 776 -227 776 -237C776 -242 773 -278 773 -286V-321L800 -336C802 -337 803 -339 803 -341C803 -343 802 -345 800 -347L745 -381L719 -356H519V-411H729C729 -396 729 -392 735 -392C742 -392 775 -402 775 -419C775 -432 772 -486 772 -497H938C948 -497 953 -499 953 -503C953 -506 950 -510 944 -516L891 -563L856 -516H772V-563L795 -574C798 -576 800 -578 800 -580C800 -582 798 -584 796 -586L745 -627L724 -603H519V-637C546 -652 549 -654 549 -657C549 -659 547 -661 543 -663L475 -698C477 -672 477 -639 477 -603H279L218 -639C221 -616 221 -594 221 -566V-516H118C95 -516 70 -519 45 -521L74 -486C91 -493 120 -497 141 -497H221C221 -459 221 -455 218 -413C218 -408 217 -403 217 -400C217 -389 220 -386 228 -386C232 -386 237 -387 244 -388C264 -392 265 -396 265 -411ZM519 -516V-586H729V-516ZM519 -497H729V-429H519ZM477 -497V-429H265V-497ZM477 -586V-516H265V-586ZM519 -339H730V-261H519ZM477 -339V-261H265V-339ZM408 -158H644C627 -131 589 -96 544 -65C483 -75 415 -83 344 -89ZM168 -773C160 -703 132 -658 94 -633C71 -618 64 -607 64 -599C64 -586 76 -579 92 -579C133 -579 175 -607 183 -704H865L812 -612L822 -604C896 -686 912 -691 947 -691C954 -691 958 -693 958 -697C958 -700 956 -704 950 -710L892 -767L857 -726H184C185 -741 185 -756 184 -773ZM422 -842C472 -811 488 -796 503 -755C512 -737 516 -732 525 -732C545 -732 552 -751 552 -768C552 -774 551 -781 549 -788C541 -812 510 -827 425 -851Z"/>
</svg>