<svg xmlns="http://www.w3.org/2000/svg" viewBox="0 -1000 1000 1000">
	<path fill="#000000" d="M506 -757H778V-572H506ZM185 -757H459V-572H185ZM778 -515C778 -506 780 -502 786 -502C788 -502 828 -516 828 -536C828 -547 825 -595 825 -605V-739L858 -761C862 -764 864 -767 864 -770C864 -773 861 -776 856 -780L794 -824L762 -779H188L136 -817C138 -782 139 -750 139 -709V-471C139 -366 152 -347 228 -341C285 -337 396 -334 515 -334C611 -334 712 -336 792 -339C901 -343 931 -356 959 -421C960 -423 960 -425 960 -426C960 -429 959 -431 956 -432C932 -439 923 -458 923 -564H907C899 -402 891 -389 790 -380C742 -376 653 -374 559 -374C435 -374 302 -377 244 -384C194 -390 185 -401 185 -466V-550H778ZM186 -14V-209L211 -226C217 -230 220 -233 220 -235C220 -237 216 -239 210 -242L136 -274C138 -237 139 -191 139 -150V-26L100 5L161 45C165 47 167 49 170 49C172 49 174 47 177 43L201 8H805V62C805 72 806 77 811 77C815 77 821 75 831 69C852 57 857 53 857 43C857 41 856 38 856 35C853 7 852 -14 852 -40V-200L878 -218C883 -222 886 -224 886 -227C886 -229 882 -231 876 -234L803 -264C805 -233 805 -220 805 -194V-14H516V-257L546 -275C551 -278 553 -280 553 -283C553 -285 551 -287 545 -290L466 -325C468 -288 469 -242 469 -201V-14Z"/>
</svg>