<svg xmlns="http://www.w3.org/2000/svg" viewBox="0 -1000 1000 1000">
	<path fill="#000000" d="M977 -369C886 -363 808 -359 741 -359C558 -359 453 -385 375 -449C413 -500 462 -585 498 -660L534 -674C540 -677 543 -679 543 -681C543 -683 541 -686 537 -689L475 -739L442 -699H270C284 -723 298 -747 312 -773C317 -783 330 -792 347 -795C356 -797 361 -799 361 -801C361 -804 357 -808 348 -812L279 -845C235 -699 151 -544 49 -411L60 -401C107 -451 167 -530 231 -634C251 -566 282 -497 320 -451C255 -373 165 -295 30 -208L38 -195C154 -252 281 -339 351 -418C446 -333 588 -306 884 -298C895 -298 898 -301 900 -306C907 -326 927 -343 978 -358ZM450 -678C422 -607 390 -543 342 -479C299 -526 269 -589 243 -653C248 -661 253 -670 258 -678ZM709 -287L677 -240H327L264 -288C266 -257 267 -209 267 -185V-54C267 -19 266 20 264 54V66C264 80 266 86 274 86C279 86 286 84 295 80C312 73 314 69 314 55V2H691V61C691 71 693 77 700 77C705 77 713 74 725 68C738 62 741 58 741 48C741 45 738 -23 738 -36V-198L766 -215C773 -220 777 -222 777 -225C777 -229 773 -232 766 -238ZM314 -20V-218H691V-20ZM672 -782C678 -786 705 -803 705 -806C705 -808 701 -811 694 -814L621 -850C622 -817 624 -756 624 -719V-597C624 -572 621 -459 621 -436C621 -421 623 -415 630 -415C635 -415 642 -417 653 -422C671 -430 676 -433 676 -447V-452C673 -493 672 -527 672 -596V-682C760 -639 815 -596 844 -560C860 -540 875 -530 881 -530C892 -530 902 -543 902 -562C902 -625 816 -661 672 -702Z"/>
</svg>