<svg xmlns="http://www.w3.org/2000/svg" viewBox="0 -1000 1000 1000">
	<path fill="#000000" d="M253 -739L191 -786C193 -755 194 -716 194 -683V-406C194 -382 190 -260 190 -255C190 -246 192 -242 199 -242C204 -242 210 -244 219 -248C238 -257 240 -261 240 -273V-302H797V-260C797 -253 798 -250 803 -250C806 -250 847 -264 847 -281C847 -286 842 -341 842 -352V-444L870 -463C876 -467 878 -469 878 -472C878 -475 876 -478 871 -481L813 -523L786 -484H240V-574H760V-549C760 -543 761 -540 766 -540C766 -540 809 -550 809 -568C809 -580 806 -631 806 -641V-698L833 -718C838 -722 840 -725 840 -728C840 -731 838 -734 834 -737L773 -783L742 -739H439C479 -794 492 -803 513 -808C519 -810 523 -812 523 -814C523 -816 520 -819 514 -822L448 -857C438 -810 428 -780 412 -739ZM181 -28V-169L206 -186C212 -190 215 -193 215 -195C215 -197 211 -199 205 -202L131 -234C133 -197 134 -161 134 -120V-40L95 -9L156 31C160 34 163 35 165 35C168 35 169 33 172 29L196 -6H816V41C816 51 817 56 822 56C826 56 832 54 842 48C863 36 868 32 868 22C868 20 867 17 867 14C864 -14 863 -35 863 -61V-161L889 -179C894 -183 897 -185 897 -188C897 -190 893 -192 887 -195L814 -225C816 -194 816 -181 816 -155V-28H519V-221L549 -239C554 -242 556 -244 556 -247C556 -249 554 -251 548 -254L469 -289C471 -252 472 -208 472 -167V-28ZM797 -462V-324H240V-462ZM240 -596V-717H760V-596Z"/>
</svg>