<svg xmlns="http://www.w3.org/2000/svg" viewBox="0 -1000 1000 1000">
	<path fill="#000000" d="M892 -562L850 -507H615C619 -513 622 -520 625 -526C637 -551 643 -557 665 -567C673 -570 678 -573 678 -576C678 -579 673 -582 663 -587L611 -613C600 -580 586 -544 569 -507H452C429 -507 404 -509 379 -511L407 -474C424 -481 453 -485 474 -485H559C513 -391 452 -291 392 -204L400 -195C436 -234 471 -278 503 -324V-83C503 -41 497 27 497 69C497 79 499 83 504 83C509 83 516 80 527 74C545 65 546 62 546 51V-147H814V-25C814 -7 810 2 785 2C766 2 734 -3 682 -14L679 -1C769 29 780 42 786 72C787 78 789 81 792 81C795 81 798 80 803 77C853 49 857 39 857 -12V-361C869 -370 889 -385 889 -388C889 -392 886 -395 879 -400L826 -442L797 -397H552C571 -428 588 -458 603 -485H942C953 -485 958 -486 958 -490C958 -493 954 -498 946 -507ZM546 -285V-375H814V-285ZM546 -169V-263H814V-169ZM792 -845C751 -806 713 -771 671 -739C612 -760 542 -781 470 -797L464 -785C533 -761 592 -738 640 -715C585 -674 520 -632 434 -582L439 -572C515 -599 603 -649 677 -697C738 -665 780 -634 805 -603C816 -590 824 -584 833 -584C845 -584 855 -596 855 -612C855 -657 796 -689 715 -722C745 -743 771 -762 791 -778C804 -788 812 -793 825 -793C828 -793 842 -791 845 -791C850 -791 853 -792 853 -794C853 -798 848 -803 838 -810ZM326 -662C328 -627 330 -564 330 -525V-205L251 -187V-787L275 -801C280 -804 283 -806 283 -809C283 -812 280 -814 273 -818L203 -853C205 -816 207 -748 207 -707V-176L125 -157V-605C135 -612 152 -624 152 -626C152 -628 149 -630 144 -633L80 -667C82 -630 83 -560 83 -519V-181C83 -154 78 -142 44 -128L88 -88C91 -85 93 -83 95 -83C98 -83 100 -85 103 -89C123 -114 152 -136 330 -190V-125C330 -115 331 -110 336 -110C340 -110 345 -113 354 -118C374 -130 378 -134 378 -145V-150C375 -191 374 -249 374 -320V-603L397 -616C402 -619 405 -621 405 -623C405 -626 401 -628 395 -631Z"/>
</svg>