<svg xmlns="http://www.w3.org/2000/svg" viewBox="0 -1000 1000 1000">
	<path fill="#000000" d="M307 -492C365 -456 387 -420 394 -389C396 -379 404 -373 413 -373C425 -373 442 -387 442 -411C442 -452 412 -469 313 -502ZM815 -576L789 -543H200L139 -593C141 -556 143 -488 143 -447V-139C143 -82 142 -7 140 52V60C140 77 142 83 149 83C153 83 159 81 166 78C187 69 191 65 191 51V44C188 -1 187 -61 187 -137V-521H804V-33C804 -4 804 9 766 9C743 9 706 4 648 -4L645 10C747 36 757 46 764 83C765 89 767 92 771 92C773 92 776 91 780 89C841 63 849 49 849 -29V-503L871 -516C877 -520 880 -523 880 -525C880 -528 877 -531 871 -536ZM758 -831C760 -799 761 -782 761 -755V-668H511V-801C543 -819 545 -819 545 -823C545 -825 541 -828 532 -832L464 -863C466 -834 467 -817 467 -794V-668H224V-759C250 -772 253 -773 253 -777C253 -780 250 -782 243 -786L177 -822C179 -793 180 -776 180 -753V-673L147 -647L199 -617C202 -615 205 -614 207 -614C210 -614 212 -616 214 -619L233 -646H761V-598C761 -590 762 -586 768 -586C769 -586 808 -596 808 -612C808 -627 806 -650 806 -664V-761L834 -778C840 -782 844 -784 844 -787C844 -789 840 -791 833 -795ZM703 -409L664 -357H544C606 -439 626 -458 646 -461C653 -462 656 -464 656 -466C656 -468 653 -472 648 -476L594 -518C575 -467 552 -415 522 -357H289C266 -357 241 -359 216 -361L244 -324C261 -331 290 -335 311 -335H472V-119H349V-231C377 -247 381 -248 381 -252C381 -255 376 -257 368 -261L302 -290C304 -261 305 -244 305 -221V-126L265 -101L321 -66C325 -64 327 -62 329 -62C331 -62 333 -64 335 -67L357 -97H650V-61C650 -52 651 -48 656 -48C657 -48 696 -59 696 -76C696 -90 694 -113 694 -127V-238C721 -253 724 -255 724 -258C724 -261 720 -263 713 -266L647 -297C649 -265 650 -248 650 -221V-119H516V-335H756C767 -335 772 -336 772 -339C772 -342 768 -347 760 -354Z"/>
</svg>