<svg xmlns="http://www.w3.org/2000/svg" viewBox="0 -1000 1000 1000">
	<path fill="#000000" d="M544 -414V-526H762V-414ZM118 -91V-519L145 -533C147 -534 149 -536 149 -538C149 -540 147 -542 144 -544L71 -583C73 -546 75 -487 75 -440V-113C75 -86 73 -84 39 -72L74 -29C76 -26 78 -25 80 -25C83 -25 86 -26 90 -30C107 -45 131 -58 323 -105V-50C323 -41 324 -37 329 -37C332 -37 338 -39 346 -43C366 -52 369 -56 369 -68V-75C365 -157 365 -218 365 -271L385 -250C394 -253 408 -254 440 -255V7L402 34L456 66C461 69 464 71 467 71C471 71 473 68 476 64L490 42H930C936 42 939 41 939 38C939 36 937 33 933 29L875 -31L835 21H484V-255H959C966 -255 969 -256 969 -258C969 -260 967 -263 963 -267L902 -329L862 -276H808V-658H930C938 -658 942 -660 942 -663C942 -665 940 -667 938 -670L885 -728L847 -679H808V-771C820 -779 841 -792 841 -795C841 -797 838 -798 832 -801L759 -832C761 -802 762 -740 762 -679H544V-763C555 -771 572 -785 572 -788C572 -791 569 -793 564 -795L495 -825C497 -790 498 -736 498 -679H450C423 -679 397 -679 384 -681L413 -652C426 -658 454 -658 498 -658V-276H432C394 -276 379 -276 365 -277V-524L390 -537C394 -539 396 -541 396 -542C396 -544 394 -546 391 -547L319 -585C321 -550 323 -495 323 -448V-121L241 -109V-727C252 -735 270 -747 270 -750C270 -752 267 -754 263 -756L194 -791C197 -739 198 -690 198 -649V-103ZM544 -276V-393H762V-276ZM762 -547H544V-658H762ZM590 -211C566 -148 541 -101 492 -16L506 -7C602 -144 624 -166 644 -172C650 -173 653 -175 653 -178C653 -180 651 -183 646 -185ZM707 -196C758 -141 784 -98 792 -71C801 -39 806 -31 819 -31C834 -31 852 -53 847 -84C843 -109 806 -149 715 -208Z"/>
</svg>