<svg xmlns="http://www.w3.org/2000/svg" viewBox="0 -1000 1000 1000">
	<path fill="#000000" d="M846 -520H571C581 -535 610 -579 627 -586C631 -588 638 -590 638 -595C638 -604 587 -633 579 -638H795V-603C795 -598 796 -595 802 -595C814 -595 844 -603 844 -618C844 -636 842 -655 842 -673V-754C847 -757 873 -770 873 -776C873 -783 803 -812 792 -817C793 -791 795 -765 795 -739V-660H522V-785C527 -788 553 -806 553 -811C553 -818 484 -846 473 -851C475 -826 476 -801 476 -776V-660H215V-743C220 -746 246 -759 246 -765C246 -773 177 -800 166 -805C168 -779 169 -753 169 -727V-668L133 -643C141 -638 187 -610 194 -610C202 -610 218 -632 223 -638H577C530 -527 485 -440 421 -338L431 -329C477 -383 518 -438 557 -498H934C937 -498 950 -498 950 -503C950 -512 891 -566 884 -573ZM919 -192C919 -18 908 -4 844 0C799 3 753 5 708 5C565 5 555 1 555 -38V-242L664 -276V-134C664 -117 663 -99 663 -81C663 -76 664 -71 671 -71C682 -71 710 -83 710 -98C710 -120 708 -142 708 -165V-289L834 -328V-198C834 -171 829 -157 800 -157C776 -157 751 -164 728 -169L726 -154C794 -136 800 -117 807 -91C808 -87 810 -84 814 -84C817 -84 819 -85 821 -86C876 -121 880 -142 880 -205V-315C885 -320 908 -336 908 -342C908 -351 853 -382 843 -388L819 -347L708 -313V-428C713 -431 733 -443 733 -449C733 -456 672 -481 662 -486C663 -449 664 -411 664 -374V-299L555 -266V-333C560 -336 580 -347 580 -353C580 -361 517 -386 507 -391C509 -355 510 -318 510 -282V-252C471 -240 433 -229 393 -221L432 -194C454 -210 484 -219 510 -228V-36C510 45 549 45 709 45C760 45 811 44 861 41C918 38 947 36 972 -20C973 -23 974 -25 974 -28C974 -34 971 -36 967 -39C935 -63 935 -127 935 -192ZM224 -613C245 -583 254 -567 254 -530C254 -512 262 -501 281 -501C300 -501 306 -523 306 -538C306 -582 265 -605 231 -623ZM384 -493H109C85 -493 60 -495 36 -497L64 -461C83 -469 111 -472 131 -472H179C178 -388 179 -302 173 -218C165 -94 109 -12 35 84L45 90C194 -58 217 -131 222 -342H350C350 -252 345 -158 330 -69C325 -39 320 -22 285 -22C256 -22 226 -30 197 -36L194 -21C255 0 276 9 276 39C276 47 276 52 283 52C286 52 289 51 292 50C346 24 369 -8 378 -67C390 -149 394 -245 394 -328C399 -331 422 -345 422 -351C422 -358 371 -392 363 -398L340 -363H222C224 -399 225 -436 225 -472H467C471 -472 480 -472 480 -478C480 -488 429 -533 420 -541Z"/>
</svg>