<svg xmlns="http://www.w3.org/2000/svg" viewBox="0 -1000 1000 1000">
	<path fill="#000000" d="M290 -655C292 -620 294 -557 294 -518V-193L223 -181V-781C234 -789 252 -801 252 -804C252 -806 249 -808 245 -810L176 -845C178 -808 180 -744 180 -703V-173L109 -161V-589L136 -605C139 -607 140 -608 140 -610C140 -611 138 -612 135 -614L62 -653C64 -616 66 -551 66 -510V-183C66 -156 64 -154 30 -142L65 -99C67 -96 69 -95 71 -95C74 -95 77 -96 81 -100C99 -116 158 -140 294 -177V-120C294 -111 295 -107 300 -107C303 -107 309 -109 317 -113C337 -122 340 -126 340 -138V-145C337 -186 336 -244 336 -315V-594L361 -607C365 -609 367 -611 367 -612C367 -614 365 -616 362 -617ZM904 -442C891 -330 888 -328 831 -328C789 -328 784 -335 784 -370V-444C889 -498 910 -504 928 -504C943 -504 945 -504 945 -508C945 -509 943 -512 940 -515L901 -553C862 -514 822 -484 784 -459V-547C792 -554 807 -566 807 -568C807 -569 805 -571 801 -572L739 -594C741 -560 742 -518 742 -481V-364C742 -305 758 -293 823 -293C906 -293 915 -297 940 -339C941 -341 942 -343 942 -344C942 -347 940 -350 936 -353C919 -364 916 -376 918 -442ZM497 -597C500 -548 500 -527 500 -488H442C419 -488 394 -490 369 -492L397 -455C414 -462 443 -466 464 -466H500V-381L342 -312L371 -286C374 -283 377 -282 378 -282C381 -282 383 -284 384 -287C388 -296 405 -311 424 -322C424 -322 498 -364 500 -364V-310C500 -302 501 -298 505 -298C509 -298 544 -317 544 -332C544 -340 542 -377 542 -384V-551L558 -560C561 -562 563 -564 563 -565C563 -567 561 -568 557 -570ZM972 -86C830 -129 723 -228 670 -404V-624H941C948 -624 951 -625 951 -627C951 -629 949 -632 944 -636L875 -697L839 -646H670V-763C694 -765 801 -778 822 -778C840 -778 858 -775 872 -770C877 -768 881 -767 883 -767C885 -767 886 -768 886 -769C886 -771 884 -774 880 -779L833 -836C727 -804 550 -777 398 -761L399 -749C474 -750 553 -754 626 -760V-646H446C423 -646 398 -648 373 -650L401 -613C418 -620 447 -624 468 -624H626V-405C546 -239 451 -125 269 20L278 31C458 -88 542 -181 626 -326V-142C626 -85 624 -9 621 49C621 55 620 60 620 64C620 76 622 81 629 81C633 81 640 79 649 75C669 67 672 63 672 50V41C670 -4 670 -64 670 -140V-353C720 -206 779 -132 878 -49C880 -47 882 -47 884 -47C886 -47 888 -48 890 -50C906 -69 940 -76 972 -75Z"/>
</svg>