<svg xmlns="http://www.w3.org/2000/svg" viewBox="0 -1000 1000 1000">
	<path fill="#000000" d="M121 -134V-590L148 -606C150 -607 151 -609 151 -610C151 -612 149 -614 147 -615L74 -654C76 -617 78 -562 78 -515V-156C78 -133 72 -126 42 -115L77 -72C79 -69 81 -68 83 -68C86 -68 89 -69 93 -73C110 -89 149 -109 297 -149V-93C297 -84 298 -80 303 -80C306 -80 312 -82 320 -86C340 -95 343 -99 343 -111V-118C341 -159 339 -217 339 -288V-595L364 -608C367 -610 368 -612 368 -613C368 -615 367 -617 365 -618L293 -656C295 -621 297 -568 297 -521V-165L230 -153V-772L253 -788C256 -790 257 -792 257 -794C257 -797 255 -799 252 -801L183 -836C186 -784 187 -735 187 -694V-146ZM560 -682C544 -516 482 -413 349 -303L357 -293C498 -385 560 -461 600 -644C604 -664 607 -667 630 -677C636 -680 638 -682 638 -685C638 -688 636 -692 630 -696L578 -739L552 -703H475C484 -722 493 -743 502 -766C510 -785 517 -792 537 -799C543 -801 545 -803 545 -805C545 -808 543 -810 537 -813L478 -845C444 -713 401 -608 344 -503L357 -494C384 -529 405 -563 428 -605C444 -581 452 -552 452 -526C452 -522 451 -504 451 -500C451 -487 455 -479 463 -479C481 -479 500 -503 500 -531C500 -553 486 -577 437 -622C446 -640 456 -660 466 -682ZM658 -342C684 -357 687 -359 687 -363C687 -366 683 -368 677 -372L610 -409C614 -341 614 -314 614 -272H439C416 -272 391 -273 366 -276L394 -239C411 -246 440 -250 461 -250H566C495 -134 411 -46 273 46L281 57C440 -30 506 -74 614 -236V-110C614 -81 611 45 611 71C611 82 614 86 621 86C632 86 660 78 660 58C660 28 658 -102 658 -129V-250H676C707 -138 757 -64 865 16C868 18 871 19 873 19C875 19 877 18 879 16C901 -7 915 -11 971 -11V-25C834 -45 742 -123 694 -250H924C933 -250 937 -251 937 -255C937 -258 934 -262 927 -269L875 -320L839 -272H658ZM937 -680C945 -680 949 -681 949 -684C949 -687 946 -691 941 -697L894 -747L862 -702H819V-783C839 -795 841 -797 841 -801C841 -804 838 -808 832 -811L771 -844C773 -810 775 -775 775 -738V-702H710C687 -702 662 -703 637 -706L665 -669C682 -676 711 -680 732 -680H775V-512H666L687 -580C712 -588 715 -589 715 -592C715 -594 712 -597 708 -601L662 -641C661 -625 658 -610 650 -586L631 -526L596 -505L643 -470C646 -468 648 -468 650 -468C653 -468 655 -470 674 -491H775C775 -451 774 -398 772 -346V-340C772 -325 774 -320 781 -320C785 -320 791 -322 799 -325C818 -334 822 -336 822 -350V-356C820 -388 819 -436 819 -491H955C965 -491 969 -492 969 -495C969 -498 966 -502 958 -510L910 -559L877 -512H819V-680Z"/>
</svg>