<svg xmlns="http://www.w3.org/2000/svg" viewBox="0 -1000 1000 1000">
	<path fill="#000000" d="M132 -346C134 -311 136 -258 136 -219V-77C136 -71 133 33 133 54C133 69 135 75 142 75C145 75 150 73 157 70C176 62 177 58 177 47V-113H388V-41C388 -12 385 -1 349 -1C331 -1 305 -4 266 -9L264 6C326 20 344 30 354 57C356 63 359 65 361 65C363 65 365 65 368 63C426 32 431 26 431 -32V-274C459 -286 462 -288 462 -291C462 -294 460 -296 455 -300L407 -340L377 -309H182ZM388 -133H177V-206H388ZM177 -290H388V-225H177ZM144 -493C171 -468 183 -445 187 -425C193 -398 196 -393 209 -393C222 -393 239 -408 239 -428C239 -433 238 -437 236 -442C228 -461 199 -482 153 -501ZM109 -389C87 -389 64 -390 40 -392L65 -359C82 -365 110 -369 131 -369H499C509 -369 514 -370 514 -374C514 -377 511 -381 505 -387L458 -436L421 -389H331C365 -432 393 -457 413 -466C420 -469 423 -472 423 -474C423 -477 420 -479 414 -482L370 -505H483C492 -505 497 -507 497 -510C497 -513 494 -517 489 -522L445 -567L413 -526H129C107 -526 86 -527 63 -530L88 -494C105 -501 130 -505 151 -505H359C350 -469 335 -431 310 -389ZM223 -669V-752C251 -768 254 -770 254 -774C254 -777 251 -779 245 -782L174 -814C176 -789 177 -760 177 -732V-677L141 -652L195 -621C200 -618 204 -616 207 -616C213 -616 215 -619 231 -647H777V-612C777 -607 778 -604 784 -604C793 -604 826 -611 826 -627C826 -644 824 -670 824 -687V-763C851 -778 854 -779 854 -783C854 -786 851 -790 845 -793L774 -826C776 -790 777 -771 777 -741V-669H520V-790C548 -808 552 -810 552 -814C552 -818 547 -821 539 -825L471 -856C473 -823 474 -804 474 -778V-669ZM601 -579C621 -590 623 -591 623 -594C623 -597 620 -599 615 -601L559 -623V-472L527 -450L574 -418C578 -415 581 -414 583 -414C586 -414 588 -416 603 -433H810V-356H586L541 -386C542 -359 543 -327 543 -293V-48C543 34 548 42 698 42C744 42 792 40 831 37C904 32 917 26 939 -10C941 -13 942 -16 942 -18C942 -22 940 -25 935 -28C915 -40 910 -53 912 -119L894 -121C889 -20 881 -6 828 -1C793 1 736 3 681 3C599 3 589 3 588 -75H853C863 -75 868 -77 868 -81C868 -84 865 -88 860 -93L816 -137L780 -96H588V-165H841C851 -165 855 -166 855 -170C855 -173 852 -177 846 -183L807 -223L777 -186H588V-247H847C857 -247 862 -248 862 -252C862 -254 858 -259 852 -265L810 -304L780 -268H588V-336H810C810 -325 812 -319 818 -319C820 -319 854 -328 854 -343C854 -347 852 -365 852 -369V-422C878 -435 880 -436 880 -439C880 -442 878 -445 873 -448L824 -484L800 -453H601V-523H889C895 -523 899 -525 899 -530C899 -533 896 -537 891 -542L840 -590L804 -543H601ZM220 -626C258 -589 269 -570 271 -553C273 -536 282 -530 291 -530C307 -530 321 -547 317 -575C314 -595 299 -610 226 -635Z"/>
</svg>