<svg xmlns="http://www.w3.org/2000/svg" viewBox="0 -1000 1000 1000">
	<path fill="#000000" d="M655 -396H508V-724H655ZM699 -396V-724H839V-396ZM460 -797C462 -762 463 -724 463 -683V-56C463 44 498 44 681 44C905 44 931 37 959 -35C960 -37 960 -39 960 -41C960 -44 959 -45 956 -46C930 -54 915 -73 915 -189H900C896 -18 887 -11 823 -4C773 1 727 4 677 4C539 4 508 -3 508 -60V-376H839V-330C839 -322 841 -317 847 -317C851 -317 856 -319 864 -323C883 -333 887 -338 887 -350V-354C885 -383 884 -415 884 -451V-708L916 -726C921 -729 923 -732 923 -735C923 -739 921 -742 916 -746L854 -795L822 -747H522ZM215 -632V-122C215 -71 214 11 213 64C213 77 215 83 222 83C225 83 231 81 238 78C259 69 264 64 264 50V46C262 7 260 -62 260 -130V-632H347V-240C347 -216 342 -205 320 -205C310 -205 296 -208 277 -212L275 -199C315 -188 326 -178 328 -156C329 -150 331 -147 335 -147C337 -147 340 -148 343 -150C386 -176 393 -195 393 -244V-621L419 -637C423 -639 425 -642 425 -644C425 -646 423 -649 419 -652L360 -693L336 -655H260V-785C286 -799 289 -800 289 -805C289 -809 285 -813 277 -817L212 -853C214 -819 215 -758 215 -721V-655H144L90 -699C91 -667 92 -609 92 -574V-346C92 -317 89 -191 89 -165C89 -157 91 -153 96 -153C100 -153 106 -155 114 -158C135 -167 139 -171 139 -182V-187C137 -226 136 -289 136 -355V-632Z"/>
</svg>