<svg xmlns="http://www.w3.org/2000/svg" viewBox="0 -1000 1000 1000">
	<path fill="#000000" d="M211 -801C265 -762 292 -723 305 -690C313 -668 317 -663 326 -663C346 -663 357 -687 357 -705C357 -734 324 -771 217 -812ZM746 -249V-79C746 -66 743 -59 720 -59C702 -59 672 -63 621 -74L618 -61C680 -40 714 -21 718 12C719 17 720 20 723 20C726 20 729 19 733 17C778 -5 790 -20 790 -55V-229L819 -249C823 -252 825 -255 825 -258C825 -261 822 -264 817 -268L753 -311L728 -271H520V-344C545 -357 547 -358 547 -363C547 -365 545 -368 540 -371L469 -410C471 -377 472 -327 472 -271H271L226 -303C315 -359 377 -421 407 -478H595C727 -318 870 -279 882 -279C886 -279 889 -281 892 -287C900 -303 926 -316 973 -318V-334C864 -330 727 -385 625 -478H933C940 -478 944 -480 944 -484C944 -486 941 -491 937 -496L886 -556L839 -500H418C438 -544 452 -581 465 -624H875C883 -624 886 -626 886 -629C886 -632 884 -636 879 -641L825 -696L783 -646H611C718 -762 727 -768 750 -772C757 -773 761 -776 761 -779C761 -782 758 -786 753 -789L688 -826C665 -766 634 -715 584 -646H471C481 -679 490 -716 499 -761C503 -783 516 -798 537 -803C542 -804 545 -808 545 -811C545 -815 543 -819 538 -821L462 -857C451 -766 439 -709 422 -646H181C158 -646 133 -648 108 -650L136 -613C153 -620 182 -624 203 -624H416C403 -577 386 -536 367 -500H120C97 -500 72 -502 47 -504L75 -467C92 -474 121 -478 142 -478H354C296 -381 204 -311 29 -223L33 -210C100 -233 159 -262 210 -293C211 -277 211 -262 211 -238V-130C211 -81 209 -48 204 -9C204 -5 203 -2 203 0C203 9 206 13 211 13C216 13 222 10 230 6C256 -7 259 -11 259 -21C258 -51 257 -84 257 -144V-249H472V-60C472 -38 470 62 470 82C470 93 472 97 477 97C482 97 523 79 523 63C523 42 520 -51 520 -70V-249Z"/>
</svg>