<svg xmlns="http://www.w3.org/2000/svg" viewBox="0 -1000 1000 1000">
	<path fill="#000000" d="M236 -628H319V-237C319 -215 317 -205 294 -205C282 -205 263 -208 236 -213ZM194 -628V-116C194 -46 193 4 190 58V67C190 81 193 87 200 87C204 87 210 85 218 81C236 71 239 67 239 57V49C237 11 236 -30 236 -127V-198C280 -181 293 -168 297 -145C298 -139 300 -136 304 -136C306 -136 309 -137 312 -139C350 -158 361 -178 361 -213V-612L390 -627C394 -629 396 -631 396 -633C396 -635 394 -638 390 -641L331 -693L304 -650H236V-774L261 -792C267 -796 270 -800 270 -803C270 -806 266 -810 259 -814L191 -854C193 -820 194 -759 194 -722V-650H127L73 -695C74 -663 75 -605 75 -570V-337C75 -270 74 -214 71 -165V-154C71 -144 72 -140 77 -140C78 -140 120 -153 120 -173V-178C118 -226 118 -285 118 -346V-628ZM478 -357V-587H809V-357ZM488 -609L428 -656C430 -625 431 -577 431 -553V-449C431 -427 426 -323 426 -308C426 -299 427 -295 433 -295C438 -295 445 -298 456 -302C478 -311 478 -313 478 -335H544C534 -102 493 -36 265 68L272 82C522 0 582 -85 587 -335H682V-26C682 16 685 46 787 46C809 46 835 44 864 41C922 35 944 24 967 -23C969 -28 970 -32 970 -35C970 -41 968 -45 963 -47C937 -61 931 -76 929 -182H913C906 -19 896 -10 857 -2C838 2 819 4 801 4C728 4 728 -9 728 -40V-335H809C809 -299 809 -295 816 -295C820 -295 826 -297 836 -301C856 -309 862 -314 862 -327C862 -329 861 -332 861 -335C858 -373 856 -419 856 -466V-567L883 -583C887 -585 889 -589 889 -592C889 -596 887 -599 884 -602L826 -655L789 -609H675C809 -770 815 -772 838 -777C845 -779 849 -781 849 -785C849 -788 846 -791 841 -794L775 -837C750 -778 694 -672 654 -609ZM438 -813C505 -759 535 -713 546 -667C552 -641 559 -632 569 -632C583 -632 604 -649 604 -678C604 -687 602 -696 598 -705C581 -742 519 -788 447 -822Z"/>
</svg>