<svg xmlns="http://www.w3.org/2000/svg" viewBox="0 -1000 1000 1000">
	<path fill="#000000" d="M253 -629H339V-236C339 -212 326 -202 294 -202C283 -202 269 -204 253 -206ZM209 -629V-112C209 -61 208 21 207 74C207 87 209 93 215 93C219 93 224 91 231 88C252 79 257 74 257 60V56C255 17 253 -52 253 -120V-191C296 -178 314 -169 320 -152C322 -146 325 -144 328 -144C330 -144 332 -145 335 -146C378 -172 383 -191 383 -240V-617L409 -633C413 -636 415 -638 415 -640C415 -643 413 -645 409 -648L352 -689L328 -651H253V-781C279 -795 282 -796 282 -801C282 -805 278 -808 270 -813L206 -849C208 -815 209 -754 209 -717V-651H135L81 -695C82 -663 83 -605 83 -570V-342C83 -313 80 -187 80 -161C80 -153 82 -149 87 -149C91 -149 97 -151 105 -154C126 -163 130 -167 130 -178V-183C128 -222 127 -285 127 -351V-629ZM628 -395C664 -368 683 -341 692 -312C698 -293 701 -290 708 -290C725 -290 739 -303 739 -325C739 -349 721 -371 634 -406ZM655 -802C695 -777 724 -749 738 -719C747 -699 755 -693 763 -693C779 -693 788 -713 788 -731C788 -772 753 -791 658 -814ZM344 37C422 23 526 -10 630 -66C699 16 822 69 933 69C961 69 973 63 973 55C973 51 969 45 963 40C944 23 936 5 936 -74C936 -96 937 -123 938 -157L921 -159L894 -10C891 7 883 15 863 15C853 15 741 0 667 -86C702 -107 748 -137 774 -156C808 -181 830 -189 855 -192C863 -193 867 -196 867 -200C867 -202 865 -205 861 -207L808 -244C766 -202 707 -160 643 -119C622 -152 607 -191 594 -236L938 -282C946 -283 950 -286 950 -289C950 -292 947 -296 942 -300L878 -348L845 -293L589 -258C581 -293 576 -331 571 -373C576 -376 605 -395 605 -398C605 -400 601 -402 593 -404L518 -424C524 -369 534 -309 548 -253C503 -247 467 -241 419 -240L458 -207C488 -223 528 -228 554 -231C569 -179 586 -131 607 -97C527 -49 442 -10 341 24ZM604 -804C610 -809 613 -813 613 -816C613 -819 610 -821 603 -823L528 -845C539 -750 551 -683 565 -632L516 -625C494 -622 456 -619 427 -619L469 -587C486 -595 508 -602 536 -606L572 -611C585 -571 601 -542 621 -514C554 -481 501 -460 409 -432L414 -418C493 -434 557 -454 643 -487C707 -415 826 -363 912 -364C930 -364 939 -368 939 -375C939 -379 935 -385 929 -391C916 -404 907 -431 907 -487C907 -506 908 -529 910 -556L894 -557L873 -444C870 -429 863 -420 846 -420C823 -420 735 -448 681 -502C717 -517 763 -537 790 -551C808 -561 827 -566 853 -568C863 -569 868 -571 868 -574C868 -576 865 -579 861 -582L810 -620C775 -593 718 -560 657 -531C640 -554 626 -582 615 -617L935 -662C944 -663 948 -665 948 -668C948 -671 945 -675 938 -680L874 -728L842 -673L608 -638C597 -679 588 -727 580 -784Z"/>
</svg>