<svg xmlns="http://www.w3.org/2000/svg" viewBox="0 -1000 1000 1000">
	<path fill="#000000" d="M946 -408C954 -408 958 -410 958 -413C958 -416 955 -421 950 -426L905 -470L866 -427H496C498 -484 499 -544 499 -612H934C942 -612 946 -614 946 -617C946 -620 943 -624 939 -628L890 -674L853 -628H695C776 -706 790 -714 821 -720C827 -721 830 -723 830 -726C830 -728 828 -731 824 -735L774 -778L742 -747H574C613 -792 615 -795 634 -797C644 -798 649 -801 649 -805C649 -808 646 -811 640 -815L590 -847C517 -731 481 -682 377 -563L389 -552C413 -573 433 -593 454 -615C460 -201 435 -77 325 68L335 78C473 -54 485 -200 495 -408ZM328 -624V-237C328 -216 321 -207 295 -207C284 -207 269 -209 250 -212V-624ZM207 -624V-119C207 -49 206 1 203 55V65C203 78 205 84 212 84C216 84 222 82 230 78C249 67 253 64 253 52V46C251 7 250 -62 250 -130V-197C291 -182 302 -168 306 -146C307 -140 309 -138 313 -138C315 -138 318 -139 321 -140C359 -157 369 -176 369 -213V-608L398 -623C402 -625 404 -627 404 -629C404 -631 402 -634 398 -637L344 -683L311 -646H250V-768L275 -786C281 -790 284 -793 284 -797C284 -800 280 -804 273 -808L204 -848C206 -814 207 -753 207 -716V-646H141L87 -691C88 -659 89 -601 89 -566V-337C89 -270 88 -214 85 -165V-154C85 -144 86 -140 91 -140C92 -140 134 -153 134 -173V-178C132 -226 132 -285 132 -346V-624ZM677 -628H499L477 -639C499 -662 524 -690 555 -725H744ZM548 -185C549 -170 551 -137 551 -120V-3C551 9 547 60 547 70C547 75 549 78 553 78C557 78 563 76 573 71C590 63 593 60 593 46V13H833V62C833 71 834 75 840 75C846 75 878 67 878 53C878 50 875 9 875 1V-101L904 -121C907 -123 909 -126 909 -128C909 -130 907 -133 903 -136L846 -178L820 -138H603ZM593 -5V-117H833V-5ZM523 -452C627 -538 650 -555 662 -559C669 -561 672 -563 672 -565C672 -567 670 -569 667 -571L625 -601C597 -557 576 -533 513 -465ZM740 -579C773 -564 817 -523 834 -486C841 -470 848 -466 857 -466C869 -466 877 -480 877 -496C877 -543 815 -568 746 -590ZM650 -522C677 -501 695 -477 704 -450C709 -435 716 -429 724 -429C736 -429 746 -445 746 -460C746 -489 710 -506 656 -530ZM817 -331H602C579 -331 554 -332 529 -335L557 -301C574 -308 603 -312 624 -312H880C890 -312 896 -314 896 -318C896 -322 892 -327 885 -333L848 -367ZM819 -238H601C578 -238 553 -240 528 -242L556 -208C573 -215 602 -218 623 -218H890C898 -218 902 -220 902 -224C902 -227 900 -231 895 -235L853 -274Z"/>
</svg>