<svg xmlns="http://www.w3.org/2000/svg" viewBox="0 -1000 1000 1000">
	<path fill="#000000" d="M464 -718C472 -718 477 -721 477 -725C477 -728 474 -733 468 -738L415 -784L384 -738H142C121 -738 98 -739 76 -742L101 -708C116 -714 143 -718 162 -718H267C268 -687 268 -655 268 -622C268 -552 266 -480 263 -410H112C91 -410 68 -411 46 -414L71 -380C86 -386 113 -390 132 -390H262C260 -364 259 -339 257 -314C244 -139 190 -45 58 67L67 77C294 -65 301 -228 308 -390H464C473 -390 478 -392 478 -396C478 -400 474 -405 467 -412L410 -465L371 -410H309C313 -501 315 -570 315 -634C315 -663 315 -690 314 -718ZM666 -409H546C525 -409 502 -410 480 -413L505 -379C520 -385 547 -389 566 -389H666V-153C666 -103 663 -19 659 48V57C659 67 661 71 667 71C672 71 680 68 692 62C712 52 715 48 715 37V30C713 -2 712 -52 712 -167V-389H941C950 -389 954 -391 954 -395C954 -399 951 -404 945 -409L889 -460L855 -409H712V-721H903C911 -721 915 -724 915 -728C915 -732 913 -736 907 -741L851 -790L813 -741H558C537 -741 514 -742 492 -745L517 -711C532 -717 559 -721 578 -721H666Z"/>
</svg>