<svg xmlns="http://www.w3.org/2000/svg" viewBox="0 -1000 1000 1000">
	<path fill="#000000" d="M965 -12C801 -26 687 -52 600 -101C651 -150 688 -199 732 -286C746 -313 758 -320 783 -327C791 -329 794 -333 794 -336C794 -340 792 -343 787 -347L725 -395L687 -356H585V-502H904C914 -502 919 -504 919 -508C919 -512 916 -517 909 -524L849 -583L807 -524H585V-601C613 -620 616 -622 616 -626C616 -629 613 -632 607 -635L534 -671C536 -635 538 -566 538 -524H304C281 -524 256 -526 231 -528L259 -491C276 -498 305 -502 326 -502H538V-356H354C331 -356 306 -357 281 -360L309 -323C324 -330 346 -334 378 -334C413 -228 470 -149 534 -98C450 -25 325 32 181 75L184 89C336 60 475 7 569 -73C685 5 851 43 858 43C864 43 868 41 872 36C886 19 919 2 966 2ZM694 -334C660 -243 615 -178 562 -125C489 -177 437 -245 403 -334ZM460 -839C507 -802 528 -769 539 -739C547 -716 553 -710 564 -710C578 -710 595 -730 595 -749C595 -764 585 -801 465 -852ZM881 -765L837 -706H234L164 -760C165 -726 167 -682 167 -644V-445C167 -169 147 -87 32 52L40 63C185 -65 216 -162 216 -471V-684H942C949 -684 954 -686 954 -691C954 -694 951 -699 945 -705Z"/>
</svg>