<svg xmlns="http://www.w3.org/2000/svg" viewBox="0 -1000 1000 1000">
	<path fill="#000000" d="M802 -173H334V-435H472C470 -357 430 -290 340 -225L342 -209C464 -272 514 -351 516 -435H633V-335C633 -274 646 -257 802 -261ZM472 -455H341L288 -495C290 -462 292 -401 292 -364V-144C292 -81 291 -2 288 41V47C288 56 290 61 296 61C300 61 306 59 315 55C332 47 334 43 334 32V-17H802V39C802 48 803 53 809 53C815 53 851 40 851 20C851 18 850 15 850 12C846 -33 845 -60 845 -135V-426C874 -443 877 -444 877 -452C877 -456 874 -460 868 -463L804 -498L782 -455H675V-585H902C912 -585 918 -587 918 -592C918 -595 915 -600 909 -605L856 -656L817 -607H320C297 -607 272 -609 247 -611L275 -574C292 -581 321 -585 342 -585H472ZM334 -37V-153H802V-37ZM802 -435V-303C784 -302 768 -302 755 -302C681 -302 675 -314 675 -339V-435ZM633 -455H516V-585H633ZM143 -764C145 -741 146 -719 146 -683V-389C146 -161 106 -37 19 69L29 77C138 -28 192 -168 192 -404V-696H919C927 -696 931 -698 931 -702C931 -706 928 -711 922 -717L862 -776L818 -717H201ZM441 -839C488 -803 502 -778 509 -746C513 -728 521 -719 530 -719C546 -719 564 -738 564 -764C564 -769 563 -774 562 -779C557 -797 535 -822 447 -848Z"/>
</svg>