<svg xmlns="http://www.w3.org/2000/svg" viewBox="0 -1000 1000 1000">
	<path fill="#000000" d="M610 -651C663 -612 686 -585 705 -548C709 -540 715 -537 723 -537C737 -537 748 -551 748 -570C748 -611 717 -632 616 -661ZM141 -765C142 -731 144 -687 144 -649V-387C144 -174 127 -69 30 70L39 78C148 -25 191 -156 191 -394V-691H913C921 -691 926 -693 926 -698C926 -701 923 -705 918 -710L856 -770L815 -713H205ZM458 -849C511 -812 533 -767 537 -746C541 -723 546 -719 556 -719C579 -719 592 -743 592 -766C592 -801 551 -827 464 -860ZM542 -494V-80C483 -52 414 -22 329 13L333 28C419 0 486 -24 543 -47C551 25 597 25 679 25C879 25 888 23 919 -27C921 -30 922 -33 922 -36C922 -41 919 -45 914 -47C894 -55 888 -77 891 -175H875C861 -37 854 -22 800 -19C778 -18 742 -17 706 -17C600 -17 589 -17 586 -65C671 -102 738 -140 826 -199C840 -208 857 -212 868 -212C870 -212 878 -211 880 -211C886 -211 889 -214 889 -217C889 -220 887 -223 883 -227L837 -268C756 -201 686 -153 586 -102V-200C646 -222 686 -243 744 -275C761 -285 773 -288 784 -288C786 -288 796 -286 798 -286C804 -286 807 -289 807 -293C807 -296 806 -299 803 -302L766 -345C715 -300 655 -261 586 -224V-316C648 -342 684 -360 740 -394C754 -403 774 -406 786 -406C803 -406 804 -406 804 -411C804 -414 802 -417 799 -421L758 -464C703 -416 665 -387 586 -337V-494H900C909 -494 914 -496 914 -500C914 -503 911 -507 904 -514L846 -570L808 -516H455C459 -556 462 -589 464 -617C491 -628 494 -629 494 -633C494 -637 490 -641 483 -644L415 -679C416 -630 414 -578 409 -516H304C281 -516 256 -518 231 -520L259 -483C276 -490 305 -494 326 -494H406C366 -176 332 -90 117 45L123 58C355 -60 416 -156 453 -494Z"/>
</svg>