<svg xmlns="http://www.w3.org/2000/svg" viewBox="0 -1000 1000 1000">
	<path fill="#000000" d="M895 -320L861 -274H600V-348H866C872 -348 875 -349 875 -351C875 -353 873 -355 870 -358L815 -407L783 -368H600V-442H792C793 -430 794 -425 800 -425C800 -425 838 -433 838 -448C838 -459 837 -505 837 -515V-607C861 -625 864 -627 864 -629C864 -632 862 -635 856 -638L803 -671L781 -642H383L327 -677C329 -648 330 -620 330 -597V-485C330 -475 328 -426 328 -422C328 -414 329 -410 334 -410C338 -410 344 -412 352 -416C369 -423 372 -426 373 -442H556V-368H392C369 -368 344 -370 319 -372L347 -337C364 -344 393 -348 414 -348H556V-274H292C269 -274 244 -276 219 -278L247 -243C264 -250 293 -254 314 -254H947C953 -254 957 -255 957 -257C957 -259 954 -263 949 -268ZM600 -552V-622H792V-552ZM373 -552V-622H556V-552ZM600 -462V-532H792V-462ZM373 -462V-532H556V-462ZM430 -235C355 -175 297 -137 177 -65L183 -54C248 -80 322 -116 420 -171C438 -181 447 -182 471 -182C478 -182 482 -183 482 -185C482 -187 481 -189 478 -191ZM483 -838C529 -809 554 -776 561 -757C567 -740 576 -734 585 -734C597 -734 609 -752 609 -773C609 -810 551 -832 487 -847ZM880 -783L839 -731H216L148 -787C149 -753 151 -709 151 -671V-417C151 -144 128 -68 36 62L47 71C176 -51 197 -148 197 -433V-711H942C950 -711 953 -712 953 -714C953 -716 951 -719 946 -723ZM684 -214C788 -173 847 -132 875 -102C886 -90 898 -83 904 -83C914 -83 916 -101 916 -108C916 -163 858 -193 688 -225ZM866 -28L825 25H595V-72H774C782 -72 785 -73 785 -75C785 -77 783 -80 778 -85L727 -136L693 -92H595V-173C618 -190 621 -192 621 -195C621 -197 618 -198 613 -201L548 -235C551 -199 552 -162 552 -92H411C388 -92 363 -94 338 -96L366 -61C383 -68 412 -72 433 -72H552V25H275C252 25 227 23 202 21L230 56C247 49 276 45 297 45H923C930 45 933 44 933 42C933 40 931 37 927 33Z"/>
</svg>