<svg xmlns="http://www.w3.org/2000/svg" viewBox="0 -1000 1000 1000">
	<path fill="#000000" d="M633 -393V-458H813V-393ZM594 -694C595 -675 595 -657 595 -631V-470C595 -451 594 -369 594 -352C594 -343 595 -339 601 -339C603 -339 607 -340 612 -342C633 -350 633 -352 633 -373H813C813 -355 813 -353 820 -353C827 -353 856 -361 856 -377C856 -388 852 -467 852 -484V-618C855 -620 880 -637 880 -639C880 -641 878 -644 873 -647L827 -685L805 -652H640ZM813 -477H633V-545H813ZM633 -633H813V-565H633ZM670 -357C639 -324 581 -271 528 -233L536 -225C575 -242 649 -283 681 -309C687 -314 695 -314 703 -314C713 -314 717 -316 717 -319C717 -322 715 -324 711 -327ZM297 -392V-459H477V-392ZM258 -693C260 -674 260 -652 260 -630V-463C260 -445 258 -355 258 -347C258 -336 260 -332 266 -332C269 -332 272 -333 277 -335C295 -342 297 -344 297 -353V-372H477C477 -346 477 -343 484 -343C487 -343 492 -344 499 -346C518 -354 520 -357 520 -370C518 -397 516 -444 516 -473V-614L541 -630C545 -631 547 -633 547 -635C547 -637 545 -640 540 -643L490 -680L472 -652H307ZM477 -478H297V-547H477ZM297 -632H477V-567H297ZM336 -362C319 -340 247 -277 181 -230L186 -220C226 -238 317 -291 352 -313C357 -316 365 -318 371 -318C378 -318 382 -320 382 -323C382 -325 380 -328 376 -331ZM175 84C326 80 493 37 588 -27C684 2 781 38 818 62C835 73 845 77 852 77C861 77 870 69 870 56C870 44 864 29 852 19C826 -1 741 -26 619 -50C659 -84 691 -124 713 -165H941C950 -165 954 -167 954 -170C954 -172 952 -176 947 -180L888 -233L848 -184H459L476 -210C496 -219 499 -220 499 -223C499 -225 497 -227 495 -228L441 -255C431 -234 418 -209 406 -184H234C214 -184 192 -186 170 -188L194 -154C209 -161 235 -165 254 -165H395C376 -127 355 -90 340 -67C408 -59 489 -47 541 -37C463 10 329 54 173 71ZM446 -165H654C636 -125 608 -89 572 -58C510 -68 429 -77 390 -79ZM403 -342C453 -314 471 -296 497 -259C506 -246 513 -241 519 -241C526 -241 543 -253 543 -271C543 -307 498 -327 407 -349ZM750 -340C794 -312 826 -282 847 -250C858 -236 862 -234 867 -234C879 -234 890 -248 890 -265C890 -288 879 -304 756 -349ZM126 -801C130 -673 131 -585 131 -510C131 -156 102 -35 32 77L42 86C177 -72 182 -284 182 -715H931C939 -715 944 -718 944 -722C944 -726 941 -730 935 -736L872 -793L832 -736H560C567 -743 571 -754 571 -767C571 -818 499 -842 457 -849L452 -840C497 -804 511 -780 519 -750C521 -744 522 -739 524 -736H192Z"/>
</svg>