<svg xmlns="http://www.w3.org/2000/svg" viewBox="0 -1000 1000 1000">
	<path fill="#000000" d="M464 -612L436 -581H336C346 -595 356 -610 368 -627C373 -634 378 -637 396 -640C404 -641 408 -643 408 -645C408 -647 405 -649 401 -652L344 -686C305 -602 240 -482 188 -415L194 -405C207 -416 223 -432 247 -461V-266C247 -237 244 -190 244 -160C244 -153 246 -149 251 -149C255 -149 261 -151 269 -155C281 -160 285 -167 285 -181H505C505 -158 505 -156 512 -156C520 -156 547 -164 547 -182C547 -184 542 -269 542 -285V-430C545 -432 575 -448 575 -450C575 -452 572 -454 568 -457L516 -491L495 -459H397C481 -551 495 -561 522 -561C526 -561 527 -562 527 -564C527 -565 527 -567 525 -568ZM374 -328H285V-440H374ZM285 -201V-308H374V-201ZM413 -328V-440H505V-328ZM413 -201V-308H505V-201ZM262 -480C279 -501 298 -527 322 -561H438L381 -459H292ZM259 -130C245 -67 218 -27 171 1C160 8 155 18 155 27C155 47 182 47 186 47C239 47 274 -24 271 -130ZM608 -657C647 -624 667 -584 674 -552C679 -530 684 -522 695 -522C713 -522 726 -536 726 -560C726 -564 726 -569 725 -574C720 -601 682 -635 617 -666ZM925 -482C931 -482 935 -484 935 -487C935 -490 933 -494 927 -499L881 -544L847 -501H777C841 -604 867 -630 898 -633C902 -634 905 -635 905 -637C905 -639 903 -641 900 -642L830 -675C813 -629 783 -556 757 -501H643C622 -501 600 -502 575 -505L601 -471C617 -478 644 -482 664 -482H723V-351H647C626 -351 603 -352 579 -355L604 -321C621 -328 648 -332 668 -332H723V-206H633C611 -206 588 -207 564 -210L590 -176C606 -183 634 -187 653 -187H723V-117C723 -61 721 -2 718 46V59C718 72 720 77 726 77C731 77 737 75 746 71C763 63 766 58 766 45C766 20 764 -92 764 -115V-187H945C951 -187 955 -189 955 -192C955 -195 952 -199 946 -204L900 -251L860 -206H764V-332H906C912 -332 916 -334 916 -337C916 -340 914 -344 908 -349L863 -398L829 -351H764V-482ZM311 -126C324 -92 329 -55 329 -27C329 -21 326 6 326 11C326 23 332 29 341 29C360 29 379 12 379 -10C379 -56 339 -109 322 -132ZM408 -132C430 -95 441 -50 444 -16C447 11 450 14 463 14C479 14 495 -6 495 -31C495 -55 483 -84 418 -139ZM506 -133C537 -87 551 -55 554 -26C558 -2 562 4 573 4C592 4 603 -17 603 -40C603 -68 586 -96 513 -139ZM437 -845C476 -818 497 -791 508 -755C514 -736 524 -729 538 -729C556 -729 568 -741 568 -761C568 -801 538 -821 446 -856ZM128 -776C130 -197 130 -115 17 70L25 78C157 -85 171 -128 175 -699H937C946 -699 950 -701 950 -705C950 -709 947 -714 940 -720L882 -775L842 -724H179Z"/>
</svg>