<svg xmlns="http://www.w3.org/2000/svg" viewBox="0 -1000 1000 1000">
	<path fill="#000000" d="M402 -823C404 -792 405 -752 405 -728V-638C405 -623 402 -555 402 -546C402 -535 404 -530 410 -530C411 -530 444 -532 444 -562V-573H568C568 -552 568 -550 574 -550C578 -550 584 -552 593 -556C607 -562 610 -565 610 -581C610 -594 607 -653 607 -665V-755C630 -766 633 -767 633 -771C633 -773 631 -775 628 -778L581 -817L559 -788H446ZM568 -652H444V-706H568ZM444 -585V-640H568V-585ZM444 -775H568V-718H444ZM686 -826C688 -795 689 -773 689 -731V-647C689 -634 686 -572 686 -564C686 -554 688 -550 695 -550C713 -550 726 -560 728 -575H856C856 -551 856 -549 862 -549C866 -549 871 -551 881 -557C895 -565 899 -569 899 -580C899 -583 898 -586 898 -590C896 -613 895 -644 895 -671V-760C915 -771 917 -772 917 -776C917 -779 914 -783 909 -787L867 -821L844 -789H729ZM856 -654H728V-706H856ZM728 -587V-642H856V-587ZM728 -775H856V-718H728ZM650 -379V-319H477V-379ZM438 -295C438 -279 435 -204 435 -196C435 -184 437 -178 442 -178C446 -178 453 -182 462 -187C474 -194 477 -198 477 -220H941C949 -220 953 -222 953 -226C953 -229 951 -232 947 -235L898 -281L863 -237H690V-302H892C899 -302 903 -304 903 -308C903 -310 901 -314 897 -318L856 -359L825 -319H690V-379H876C884 -379 889 -381 889 -385C889 -388 887 -391 882 -396L843 -434L813 -396H690V-459H919C924 -459 927 -461 927 -464C927 -466 925 -469 923 -471L877 -517L845 -476H497C523 -506 537 -516 549 -518C556 -519 559 -521 559 -523C559 -525 557 -527 553 -530L505 -564C471 -499 422 -425 359 -344L369 -335C393 -359 417 -383 438 -407ZM650 -459V-396H477V-451C480 -454 482 -456 484 -459ZM650 -302V-237H477V-302ZM785 -202L755 -171H463C440 -171 415 -172 390 -175L416 -143C433 -150 467 -154 491 -154C523 -104 557 -65 602 -35C524 4 420 36 276 66L277 79C444 60 548 34 637 -14C697 18 775 41 888 61C891 62 894 62 895 62C899 62 901 60 902 57C912 36 935 19 979 15V3C960 4 941 4 923 4C832 4 753 -7 677 -38C714 -61 749 -89 787 -122C807 -139 821 -145 836 -146C846 -147 850 -149 850 -153C850 -155 848 -158 844 -161ZM752 -154C723 -116 687 -84 639 -55C598 -77 542 -119 511 -154ZM624 -558C640 -535 649 -512 651 -498C653 -484 657 -480 664 -480C680 -480 691 -493 691 -510C691 -522 691 -538 631 -563ZM168 -552L113 -598C113 -577 111 -549 109 -525L95 -369L54 -346L114 -306C117 -304 119 -303 122 -303C124 -303 126 -305 129 -308L149 -333H278C279 -252 266 -118 250 -71C236 -29 222 -9 182 -9C155 -9 116 -19 58 -37L52 -22C130 7 151 25 159 60C161 67 163 70 168 70C169 70 171 70 173 69C251 43 283 4 300 -83C313 -148 323 -236 325 -317L353 -334C357 -336 358 -338 358 -340C358 -342 357 -344 353 -347L295 -392L265 -353H136L154 -532H292V-492C292 -487 293 -484 297 -484C300 -484 305 -485 312 -488C336 -498 340 -503 340 -513V-518C338 -540 337 -566 337 -593V-730L367 -748C371 -751 373 -753 373 -755C373 -758 371 -760 367 -763L307 -807L279 -769H125C101 -769 78 -770 52 -773L80 -736C97 -743 126 -747 147 -747H292V-552Z"/>
</svg>