<svg xmlns="http://www.w3.org/2000/svg" viewBox="0 -1000 1000 1000">
	<path fill="#000000" d="M390 -491V-581H563V-491ZM577 -748L554 -716H462C498 -794 509 -807 526 -815C531 -818 533 -820 533 -822C533 -823 531 -825 528 -827L471 -856C466 -813 457 -766 443 -716H396L345 -758C347 -728 348 -683 348 -660V-515C348 -501 343 -434 343 -430C343 -423 345 -420 349 -420C353 -420 360 -423 370 -427C390 -436 390 -439 390 -469H563C563 -459 564 -454 570 -454C574 -454 580 -456 589 -461C605 -469 608 -472 608 -485C608 -497 605 -549 605 -560V-682C629 -697 632 -699 632 -702C632 -704 630 -706 626 -709ZM390 -603V-695H563V-603ZM430 -458C455 -423 460 -401 460 -375C460 -363 465 -357 477 -357C494 -357 505 -374 505 -390C505 -416 463 -445 436 -464ZM978 -8C880 -49 839 -95 796 -170C855 -276 871 -392 880 -608H971C976 -608 978 -609 978 -611C978 -613 976 -615 973 -618L908 -681L873 -630H725C736 -662 749 -698 763 -741C774 -773 781 -780 793 -784C803 -787 807 -790 807 -793C807 -795 805 -797 800 -800L736 -840C695 -639 657 -515 609 -418L621 -411C647 -454 668 -493 687 -536C691 -359 709 -266 752 -173C700 -86 617 -7 469 82L474 93C625 28 712 -44 772 -132C829 -27 894 29 900 29C902 29 905 28 907 26C929 4 940 1 978 2ZM834 -608C830 -436 817 -311 773 -213C737 -290 709 -413 701 -568C706 -581 712 -594 717 -608ZM269 -842C221 -763 151 -674 51 -564L60 -555C152 -635 206 -688 277 -768C284 -776 297 -783 310 -783C322 -783 325 -783 325 -787C325 -789 323 -792 318 -796ZM269 -623C190 -477 128 -385 34 -260L44 -252C102 -313 139 -354 174 -399V-139C174 -83 173 -21 171 38V47C171 63 173 69 180 69C184 69 189 67 197 64C218 55 222 51 222 37V30C219 -15 218 -62 218 -138V-457C236 -481 255 -508 278 -541C288 -555 298 -567 317 -569C323 -570 326 -571 326 -573C326 -574 324 -576 321 -579ZM588 -399L556 -354H323C302 -354 279 -356 257 -358L282 -322C297 -328 324 -332 343 -332H395C391 -129 341 -35 236 58L246 67C363 -15 404 -79 427 -226H541C540 -172 535 -127 526 -97C518 -71 511 -56 481 -56C466 -56 444 -60 413 -69L410 -57C466 -35 477 -23 480 2C481 6 483 9 486 9C487 9 489 9 490 8C548 -23 570 -35 581 -211L610 -223C613 -224 614 -225 614 -227C614 -229 613 -232 609 -235L553 -279L531 -249H430C434 -274 437 -302 440 -332H639C647 -332 651 -333 651 -336C651 -338 649 -341 645 -344Z"/>
</svg>