<svg xmlns="http://www.w3.org/2000/svg" viewBox="0 -1000 1000 1000">
	<path fill="#000000" d="M319 -222C321 -192 322 -178 322 -141V-86C322 -71 320 11 320 12C320 23 322 27 328 27C332 27 338 25 347 21C363 14 365 12 365 -3V-28H536C536 7 536 11 544 11C552 11 586 0 586 -20C586 -21 581 -82 581 -94V-148C607 -160 610 -162 610 -167C610 -171 607 -174 601 -178L545 -216L522 -184H370ZM365 -49V-163H536V-49ZM751 -843C715 -664 670 -518 619 -384L632 -376C652 -412 668 -444 685 -483C687 -364 707 -252 743 -166C687 -63 636 -4 534 72L541 85C661 10 715 -39 764 -122C810 -40 889 36 895 36C897 36 900 34 902 32C913 20 936 10 980 13V3C896 -34 822 -107 788 -166C835 -258 870 -373 881 -584H959C964 -584 967 -585 967 -588C967 -590 965 -593 962 -597L904 -657L867 -606H732C746 -647 763 -695 782 -754C790 -778 799 -787 817 -793C825 -796 829 -798 829 -800C829 -802 825 -805 818 -809ZM835 -584C830 -426 798 -285 766 -211C734 -289 712 -396 701 -522C708 -540 715 -561 724 -584ZM548 -324L512 -280H371C348 -280 323 -281 298 -283L326 -248C343 -255 372 -259 393 -259H592C602 -259 606 -261 606 -265C606 -268 604 -272 598 -277ZM557 -407L520 -365H359C336 -365 311 -367 286 -369L314 -335C331 -342 360 -345 381 -345H597C606 -345 610 -347 610 -351C610 -354 608 -357 603 -362ZM571 -499L534 -453H327C304 -453 280 -454 254 -457L282 -423C299 -430 328 -434 349 -434H618C626 -434 630 -436 630 -440C630 -443 628 -446 624 -450ZM408 -558C431 -533 441 -514 446 -488C450 -470 453 -464 465 -464C491 -464 491 -487 491 -494C491 -523 482 -540 413 -565ZM350 -600V-704L371 -718C375 -720 376 -722 376 -724C376 -726 374 -728 370 -730L306 -761C308 -732 308 -714 308 -691V-611L290 -595L333 -567C335 -566 336 -565 338 -565C340 -565 341 -566 353 -578H569C569 -552 569 -549 575 -549C580 -549 613 -558 613 -571C613 -586 611 -609 611 -624V-715C621 -720 638 -729 638 -731C638 -733 636 -735 632 -737L566 -773C568 -741 569 -724 569 -697V-600H479V-783L503 -797C506 -799 507 -801 507 -802C507 -804 506 -806 502 -808L432 -845C434 -816 435 -799 435 -776V-600ZM154 -105C154 -49 153 -2 151 57V62C151 73 153 78 160 78C164 78 169 76 177 73C198 64 201 60 201 47V39C198 -6 197 -38 197 -114V-461C212 -486 230 -514 247 -545C259 -567 269 -575 281 -578C287 -580 289 -581 289 -583C289 -585 288 -586 285 -588L232 -621C168 -481 112 -381 33 -256L45 -247C87 -297 120 -340 154 -393ZM223 -835C160 -708 121 -643 40 -533L48 -525C120 -600 172 -665 237 -760C246 -772 258 -777 270 -779C278 -780 282 -782 282 -784C282 -786 280 -789 276 -792Z"/>
</svg>