<svg xmlns="http://www.w3.org/2000/svg" viewBox="0 -1000 1000 1000">
	<path fill="#000000" d="M116 -618C116 -539 89 -468 60 -445C43 -432 37 -420 37 -409C37 -399 41 -387 61 -387C75 -387 93 -394 106 -411C124 -435 135 -474 135 -541C135 -563 134 -589 131 -618ZM229 -780C257 -800 261 -802 261 -805C261 -808 258 -810 252 -813L181 -853C183 -818 185 -762 185 -723V-135C185 -81 184 -5 182 51V59C182 75 184 81 191 81C194 81 200 79 207 76C228 67 233 63 233 48V43C231 1 229 -71 229 -143V-622C263 -594 282 -564 292 -528C300 -502 311 -494 323 -494C335 -494 345 -514 345 -536C345 -579 301 -609 229 -644ZM861 -567C853 -319 847 -212 829 -116C819 -58 809 -35 763 -35C739 -35 705 -42 655 -53L651 -39C741 -9 764 7 770 31C773 42 775 47 780 47C784 47 788 45 793 42C845 11 857 -20 873 -116C885 -187 896 -317 903 -549L928 -571C935 -577 939 -580 939 -584C939 -588 935 -591 927 -596L867 -636L842 -591L740 -587C746 -669 749 -724 750 -773C784 -793 784 -793 784 -798C784 -801 781 -804 775 -807L705 -847C705 -752 702 -665 698 -586C648 -586 642 -586 617 -589L645 -553C658 -558 678 -562 697 -563C673 -183 635 -93 407 73L415 85C671 -70 712 -165 738 -564ZM344 -133C348 -126 351 -123 355 -123C358 -123 361 -124 365 -128C373 -135 394 -147 413 -153L564 -197C563 -158 569 -142 583 -142C605 -142 616 -154 616 -193C616 -226 589 -277 522 -346L514 -337C546 -277 561 -235 564 -211L384 -181C452 -274 514 -387 602 -595C606 -604 616 -615 624 -618C634 -621 639 -624 639 -628C639 -630 636 -633 630 -637L577 -669C558 -612 539 -558 519 -507L381 -487C427 -572 457 -636 507 -759C510 -766 519 -773 529 -773C547 -773 555 -778 555 -784C555 -787 552 -790 548 -792L478 -830C450 -729 413 -616 376 -528C369 -511 344 -482 325 -475L352 -441C357 -434 361 -430 365 -430C369 -430 373 -434 381 -443C388 -451 434 -469 512 -489C473 -392 430 -304 379 -217C364 -192 349 -182 319 -173Z"/>
</svg>