<svg xmlns="http://www.w3.org/2000/svg" viewBox="0 -1000 1000 1000">
	<path fill="#000000" d="M703 -151C694 -15 686 -3 648 -1C605 1 561 2 519 2C473 2 429 1 392 -2C355 -5 349 -13 349 -44V-191L376 -208C379 -210 381 -212 381 -213C381 -215 379 -217 374 -219L298 -251C299 -230 300 -192 300 -160V-27C300 17 310 39 368 42C420 45 468 46 517 46C561 46 605 45 652 42C723 38 733 28 753 -13C755 -16 755 -19 755 -21C755 -24 754 -27 750 -29C728 -44 716 -66 717 -151ZM197 -218C167 -119 150 -100 92 -63C76 -52 68 -41 68 -31C68 -17 81 -5 103 -5C111 -5 120 -7 129 -11C184 -35 206 -84 211 -216ZM746 -208C810 -155 852 -94 865 -48C871 -28 883 -22 895 -22C911 -22 924 -43 924 -68C924 -116 883 -148 754 -219ZM444 -256C496 -202 506 -181 514 -133C518 -111 529 -107 547 -107C561 -107 579 -125 579 -145C579 -147 579 -150 578 -152C569 -190 531 -227 451 -265ZM276 -635C280 -381 264 -362 84 -251L93 -236C288 -326 318 -367 327 -570L352 -586C357 -589 359 -592 359 -595C359 -598 356 -600 352 -602ZM708 -565C743 -582 747 -584 747 -589C747 -592 743 -595 736 -598L660 -628C662 -591 664 -523 664 -482L663 -368C663 -304 663 -284 834 -284C877 -284 942 -292 942 -300C942 -305 912 -334 895 -347C871 -334 839 -327 812 -327C708 -327 708 -345 708 -371ZM650 -816C702 -780 716 -764 727 -726C733 -705 745 -695 757 -695C775 -695 783 -711 783 -728C783 -738 780 -750 773 -761C757 -788 740 -802 655 -829ZM519 -785L548 -806C551 -808 553 -811 553 -813C553 -816 551 -818 545 -821L468 -855C470 -818 472 -757 472 -709V-672H170C147 -672 122 -673 97 -676L125 -639C142 -646 171 -650 192 -650H472V-476C472 -419 470 -362 467 -304V-290C467 -277 469 -272 475 -272C480 -272 487 -274 496 -278C517 -287 524 -292 524 -307V-313C521 -346 519 -402 519 -484V-650H920C926 -650 929 -652 929 -655C929 -657 927 -660 924 -663L851 -736L809 -672H519Z"/>
</svg>