<svg xmlns="http://www.w3.org/2000/svg" viewBox="0 -1000 1000 1000">
	<path fill="#000000" d="M510 -618C512 -587 513 -539 513 -515V-325C513 -298 512 -237 510 -200V-193C510 -181 512 -176 517 -176C521 -176 526 -179 535 -184C555 -196 557 -200 557 -216V-256H698V-220C698 -211 699 -206 705 -206C711 -206 746 -219 746 -240V-247C743 -292 742 -321 742 -355V-538C769 -556 772 -558 772 -562C772 -565 770 -568 764 -572L712 -611L684 -569H563ZM557 -278V-547H698V-278ZM840 -736V-53H425V-736ZM840 -31V45C840 55 841 60 846 60C850 60 891 44 891 24V18C888 -27 886 -89 886 -165V-718L914 -741C919 -745 922 -748 922 -751C922 -754 919 -757 914 -760L848 -804L821 -758H440L376 -809C378 -778 379 -719 379 -661V-162C379 -129 376 19 376 49C376 62 378 68 385 68C390 68 396 65 405 60C424 50 425 47 425 33V-31ZM122 -621C117 -532 91 -475 55 -443C43 -432 36 -422 36 -414C36 -401 51 -396 63 -396C123 -396 139 -470 139 -540C139 -563 138 -590 135 -621ZM230 -789L258 -806C263 -809 266 -811 266 -814C266 -817 262 -819 256 -822L180 -855C182 -820 184 -755 184 -716V-127C184 -95 181 45 181 74C181 85 183 90 190 90C194 90 200 88 209 84C230 75 234 71 234 56V51C231 -13 230 -81 230 -145V-640C262 -611 281 -588 297 -549C306 -527 313 -522 324 -522C338 -522 348 -536 348 -556C348 -615 281 -638 230 -655Z"/>
</svg>