<svg xmlns="http://www.w3.org/2000/svg" viewBox="0 -1000 1000 1000">
	<path fill="#000000" d="M598 -824L568 -779H377C359 -779 339 -781 319 -783L341 -746C355 -753 378 -757 395 -757H437C438 -686 438 -616 436 -545H381C363 -545 343 -547 323 -549L345 -512C359 -519 382 -523 399 -523H436C434 -448 431 -385 427 -350H380C362 -350 342 -352 322 -354L344 -317C366 -328 390 -328 424 -328C399 -171 342 -69 181 65L190 74C381 -51 448 -187 464 -328H579C578 -298 578 -267 577 -235C573 -97 559 -55 494 -55C470 -55 439 -61 399 -70L395 -58C464 -36 483 -20 489 11C490 16 492 19 496 19C498 19 500 18 504 16C595 -29 613 -49 617 -242C621 -434 623 -642 623 -743L657 -761C661 -763 662 -764 662 -766C662 -769 661 -771 657 -774ZM476 -545C478 -605 479 -672 479 -757H583C583 -697 583 -624 582 -545ZM466 -350C470 -405 473 -459 475 -523H582L579 -350ZM287 -758L262 -722H169L120 -770C122 -739 123 -713 123 -667V-345C123 -288 122 -237 120 -178V-167C120 -152 121 -146 128 -146C132 -146 138 -148 146 -152C165 -160 167 -164 167 -177V-295H267V-248C267 -239 268 -234 274 -234C278 -234 284 -237 294 -241C313 -250 317 -253 317 -268C317 -286 312 -371 312 -382V-683L337 -698C342 -701 344 -704 344 -707C344 -710 342 -713 337 -717ZM167 -317V-700H267V-317ZM897 -685C913 -726 925 -735 954 -746C959 -748 961 -750 961 -752C961 -755 959 -758 954 -762L897 -815L872 -775H754L700 -829C702 -792 703 -728 703 -687V-147C703 -90 702 -24 699 29V42C699 57 701 63 708 63C713 63 719 60 729 55C749 44 753 41 753 26V21C751 -24 750 -69 750 -145V-753H876L802 -470C872 -384 910 -300 910 -247C910 -199 895 -172 831 -172C812 -172 789 -175 760 -180V-168C828 -147 839 -138 846 -110C847 -104 850 -101 853 -101C855 -101 856 -101 857 -102C933 -141 962 -183 962 -234C962 -293 938 -340 823 -475Z"/>
</svg>