<svg xmlns="http://www.w3.org/2000/svg" viewBox="0 -1000 1000 1000">
	<path fill="#000000" d="M408 -363C410 -343 411 -314 411 -295V-194C411 -168 410 -136 408 -116V-112C408 -106 410 -103 416 -103C426 -103 457 -110 457 -124V-146H606V-7L307 6L345 63C347 65 348 66 350 66C353 66 355 65 358 63C378 49 408 42 470 36L827 1C841 19 850 36 857 53C866 75 873 82 882 82C908 82 912 42 912 34C912 0 873 -40 728 -105L721 -96C763 -67 793 -40 814 -16L651 -9V-146H797C797 -115 797 -111 804 -111C808 -111 814 -113 823 -116C844 -123 848 -126 848 -136V-140C845 -168 844 -186 844 -221V-286L868 -302C871 -304 873 -306 873 -308C873 -310 871 -312 868 -314L810 -354L784 -320H651V-389C674 -404 677 -406 677 -410C677 -413 674 -416 669 -418L602 -452C606 -400 606 -351 606 -320H459ZM606 -168H457V-298H606ZM651 -168V-298H797V-168ZM865 -733C872 -736 875 -739 875 -743C875 -745 873 -748 869 -752L814 -803L780 -764H432C409 -764 384 -765 359 -768L387 -731C400 -736 416 -740 432 -741C465 -643 521 -566 590 -513C512 -453 412 -398 280 -345L287 -331C428 -375 534 -424 623 -490C674 -460 749 -431 863 -400C865 -399 866 -399 867 -399C871 -399 873 -401 877 -407C892 -431 906 -436 965 -440L966 -455C830 -463 738 -481 660 -519C724 -574 780 -639 833 -721ZM561 -722C596 -680 604 -661 607 -621C608 -607 612 -598 620 -598C637 -598 654 -626 654 -647C654 -674 614 -704 568 -728ZM788 -742C744 -666 692 -599 622 -539C558 -578 501 -640 449 -742ZM109 -603C109 -524 82 -453 53 -430C36 -417 30 -405 30 -394C30 -380 39 -371 57 -371C78 -371 129 -383 129 -508C129 -534 127 -565 124 -603ZM228 -775C240 -783 259 -796 259 -800C259 -803 256 -805 251 -808L180 -848C182 -813 184 -747 184 -708V-122C184 -68 183 8 181 64V73C181 89 183 95 190 95C194 95 200 93 209 89C229 80 232 76 232 63V56C230 14 228 -58 228 -130V-621C272 -589 304 -547 316 -508C324 -482 331 -474 343 -474C357 -474 372 -495 372 -519C372 -528 369 -538 364 -547C347 -575 299 -611 228 -639Z"/>
</svg>