<svg xmlns="http://www.w3.org/2000/svg" viewBox="0 -1000 1000 1000">
	<path fill="#000000" d="M465 -215V-292H817V-215ZM869 -540H780C784 -549 788 -557 797 -562C800 -563 806 -566 806 -570C806 -577 748 -592 738 -595C736 -577 734 -558 731 -540C706 -540 682 -541 657 -543L682 -508C697 -513 713 -516 728 -517C710 -428 673 -390 600 -340L604 -326C702 -368 750 -413 774 -518H876C874 -490 870 -457 858 -431C850 -414 845 -402 824 -402C803 -402 780 -410 760 -415L758 -402C784 -391 807 -381 815 -352C816 -349 817 -342 821 -342L804 -314H471L416 -353C418 -317 420 -281 420 -246V-68C420 -30 417 9 417 47C417 55 417 71 428 71C444 71 465 60 465 42V-91H817V-31C817 -6 794 -6 774 -6C739 -6 702 -11 667 -16L664 2C690 7 751 18 769 40C774 46 775 51 777 58C778 61 779 68 784 68C785 68 787 68 789 67C853 42 861 30 861 -38V-275C866 -278 890 -290 890 -295C890 -302 832 -337 823 -342C901 -362 906 -426 919 -493C927 -497 956 -507 956 -516C956 -526 905 -560 895 -567ZM465 -113V-193H817V-113ZM835 -755H637C641 -768 645 -782 648 -796C654 -800 684 -814 684 -822C684 -831 618 -853 607 -858C605 -823 601 -788 588 -755H427C405 -755 383 -756 361 -758L386 -723C404 -730 428 -733 447 -733H577C524 -637 455 -606 352 -581L357 -568C393 -574 430 -581 465 -593C462 -574 458 -554 454 -535C418 -535 382 -535 346 -538L371 -503C397 -513 423 -513 448 -513C419 -415 359 -366 277 -310L284 -295C391 -345 453 -400 492 -514H591C585 -441 565 -411 529 -411C510 -411 490 -415 471 -419L469 -406C484 -401 521 -392 527 -375C530 -369 529 -363 530 -357C531 -350 532 -348 539 -348C540 -348 620 -365 635 -499C640 -501 668 -512 668 -518C668 -524 616 -561 609 -567L588 -536H500C504 -547 510 -564 520 -571C522 -573 527 -575 527 -579C527 -586 487 -597 480 -599C551 -626 590 -667 626 -733H842C839 -708 834 -689 822 -666C811 -645 792 -645 770 -645C729 -645 687 -651 647 -656L643 -642C678 -636 752 -626 774 -593C776 -590 779 -585 783 -585C785 -585 787 -585 788 -586C856 -610 870 -654 888 -719C895 -722 924 -735 924 -742C924 -751 867 -779 857 -784ZM231 -785C237 -789 259 -800 259 -808C259 -818 196 -848 185 -854C187 -813 188 -771 188 -730V-107C188 -47 184 13 184 72C184 78 184 86 192 86C198 86 206 83 211 80C227 72 233 68 233 50C233 -6 231 -62 231 -118V-630C252 -613 281 -582 290 -556C295 -542 298 -525 316 -525C333 -525 343 -551 343 -565C343 -611 266 -639 231 -653ZM109 -615C105 -556 95 -508 53 -464C45 -456 34 -445 34 -432C34 -418 46 -409 60 -409C77 -409 92 -419 103 -430C126 -453 130 -513 130 -543C130 -567 128 -591 125 -615Z"/>
</svg>