<svg xmlns="http://www.w3.org/2000/svg" viewBox="0 -1000 1000 1000">
	<path fill="#000000" d="M277 -731L254 -693H168L108 -744C110 -713 111 -665 111 -641V-358C111 -301 110 -231 108 -172V-164C108 -147 110 -141 118 -141C128 -141 158 -151 158 -171V-270H267V-222C267 -214 268 -210 274 -210C277 -210 283 -211 292 -215C313 -224 317 -228 317 -242V-249C314 -294 312 -341 312 -395V-661L332 -674C336 -677 338 -679 338 -681C338 -684 336 -686 331 -690ZM158 -292V-671H267V-292ZM777 -756C819 -722 842 -678 853 -649C861 -629 864 -624 877 -624C890 -624 904 -643 904 -665C904 -705 855 -734 783 -765ZM926 -175C916 -103 904 -42 894 -5C852 -26 792 -104 756 -206C803 -261 841 -316 875 -371C884 -386 892 -392 913 -397C921 -399 925 -400 925 -403C925 -406 922 -409 915 -415L863 -458C836 -389 796 -317 744 -246C732 -297 722 -398 716 -508H944C949 -508 952 -510 952 -513C952 -515 950 -518 947 -522L894 -577L856 -529H715C714 -568 713 -623 713 -677C713 -710 713 -743 714 -772C720 -776 746 -792 746 -796C746 -798 743 -801 737 -804L667 -841C669 -744 672 -630 675 -529H529V-711C595 -736 609 -737 615 -737C617 -737 627 -735 629 -735C632 -735 634 -736 634 -738C634 -740 632 -743 629 -746L590 -787C530 -748 470 -719 361 -674L364 -661C400 -671 443 -683 483 -696V-529H406C383 -529 358 -530 333 -533L361 -497C378 -504 407 -508 428 -508H483V-332L338 -270L377 -232C378 -231 380 -230 381 -230C384 -230 386 -232 389 -237C395 -247 408 -258 483 -300V-37C483 -18 478 -6 443 -6C422 -6 391 -10 344 -19L341 -5C422 16 436 29 444 63C445 69 447 72 450 72C452 72 454 71 457 70C525 34 529 29 529 -40V-325L638 -385L633 -397L529 -352V-508H676C682 -351 695 -260 712 -204C668 -149 617 -95 560 -46L568 -35C629 -80 680 -125 724 -171C786 -10 905 82 948 82C955 82 956 80 956 75C956 66 949 45 942 31C938 24 934 3 934 -44C934 -75 936 -118 941 -175Z"/>
</svg>