<svg xmlns="http://www.w3.org/2000/svg" viewBox="0 -1000 1000 1000">
	<path fill="#000000" d="M562 -469V-633H666V-469ZM518 -655H422L368 -694C370 -668 371 -626 371 -606V-499C371 -462 370 -431 367 -409V-402C367 -396 368 -393 373 -393C377 -393 384 -395 393 -399C412 -408 416 -411 416 -421V-447H817C817 -408 817 -408 824 -408C828 -408 835 -410 846 -416C862 -424 865 -427 865 -438C865 -449 861 -519 861 -534V-620C891 -636 894 -637 894 -643C894 -646 891 -650 885 -654L826 -691L800 -655H710V-755H930C938 -755 943 -757 943 -762C943 -765 940 -770 933 -777L881 -829L840 -777H376C353 -777 328 -779 303 -781L331 -744C348 -751 377 -755 398 -755H518ZM416 -469V-633H518V-469ZM817 -633V-469H710V-633ZM666 -655H562V-755H666ZM699 -161C788 -103 836 -42 853 0C864 26 872 32 881 32C898 32 912 17 912 -8C912 -62 858 -104 704 -173ZM789 -399L753 -358H443C420 -358 395 -360 370 -362L398 -325C415 -332 444 -336 465 -336H825C835 -336 841 -338 841 -342C841 -345 837 -350 830 -357ZM942 -226C952 -226 957 -228 957 -232C957 -235 954 -240 947 -247L896 -298L858 -248H351C328 -248 303 -250 278 -252L306 -215C323 -222 352 -226 373 -226H590V-32C590 -11 586 -1 554 -1C534 -1 502 -5 453 -13L451 3C531 21 550 37 560 70C561 75 564 78 567 78C569 78 571 77 574 76C628 53 635 42 635 -13V-226ZM451 -179C384 -90 344 -44 251 36L258 48C342 -10 384 -45 457 -108C471 -120 479 -124 498 -127C508 -129 512 -131 512 -135C512 -137 510 -140 505 -143ZM109 -613C103 -529 83 -492 53 -462C40 -449 35 -438 35 -430C35 -420 41 -407 60 -407C73 -407 88 -413 103 -428C119 -444 130 -483 130 -541C130 -563 128 -587 125 -613ZM229 -783C255 -799 258 -801 258 -806C258 -809 256 -812 250 -815L183 -852C185 -816 186 -763 186 -713V-114C186 -84 182 47 182 74C182 84 184 88 190 88C194 88 200 86 209 82C226 74 231 69 231 54V49C229 6 229 -59 229 -130V-637C265 -608 289 -575 298 -554C309 -528 313 -523 324 -523C338 -523 350 -542 350 -563C350 -572 348 -582 341 -591C322 -615 288 -633 229 -655Z"/>
</svg>