<svg xmlns="http://www.w3.org/2000/svg" viewBox="0 -1000 1000 1000">
	<path fill="#000000" d="M925 -178C936 -178 942 -179 942 -183C942 -185 939 -189 933 -195L879 -249L841 -198H556L582 -229C593 -242 606 -253 626 -253C632 -253 635 -256 635 -260C635 -263 632 -267 626 -270L592 -285H818C818 -252 818 -249 826 -249C829 -249 835 -250 843 -252C862 -257 866 -261 866 -273C866 -280 863 -328 863 -339V-388C891 -403 894 -404 894 -408C894 -410 891 -413 885 -417L833 -450L809 -419H645V-507H813C813 -479 813 -476 820 -476C824 -476 830 -478 840 -481C857 -486 861 -490 861 -503V-509C859 -533 858 -561 858 -613H955C963 -613 967 -615 967 -618C967 -621 965 -625 960 -630L914 -678L877 -633H858V-706C868 -712 892 -725 892 -728C892 -730 889 -733 884 -737L827 -778L801 -740H645V-795C657 -803 677 -815 677 -818C677 -821 673 -823 666 -827L601 -862C604 -810 604 -793 604 -740H459L399 -788C401 -759 402 -713 402 -690V-633C365 -633 357 -633 309 -637L336 -604C355 -611 380 -613 402 -613V-545C402 -535 400 -490 400 -481C400 -474 402 -471 408 -471C412 -471 417 -472 425 -474C445 -479 445 -480 445 -507H604V-419H445L387 -463C389 -434 390 -388 390 -365V-320C390 -310 388 -266 388 -256C388 -250 389 -246 395 -246C398 -246 404 -248 413 -251C433 -258 433 -258 433 -285H565C551 -263 528 -231 503 -198H351C329 -198 304 -200 281 -202L308 -168C323 -174 352 -178 372 -178H488C462 -143 435 -109 418 -89C492 -76 555 -64 610 -50C536 0 430 41 286 71L290 85C432 72 567 33 660 -36C748 -10 816 21 884 64C895 71 902 74 907 74C915 74 924 61 924 48C924 -6 800 -38 692 -62C722 -89 744 -118 780 -178ZM604 -613V-527H445V-613ZM604 -633H445V-720H604ZM645 -633V-720H813V-633ZM645 -527V-613H813V-527ZM604 -305H433V-399H604ZM645 -305V-399H818V-305ZM539 -178H725C708 -140 681 -105 641 -73C591 -83 535 -92 474 -100ZM116 -599C109 -510 83 -459 49 -427C37 -415 30 -405 30 -397C30 -386 47 -376 63 -376C92 -376 133 -398 133 -518C133 -541 132 -568 129 -599ZM229 -783L257 -800C262 -803 264 -805 264 -808C264 -811 261 -813 255 -816L179 -849C181 -814 183 -749 183 -710V-121C183 -89 180 51 180 80C180 91 182 96 189 96C193 96 199 94 208 90C229 81 233 77 233 62V57C230 -7 229 -75 229 -139V-612C259 -586 273 -566 295 -523C306 -502 311 -496 322 -496C336 -496 347 -515 347 -535C347 -572 315 -595 229 -632Z"/>
</svg>