<svg xmlns="http://www.w3.org/2000/svg" viewBox="0 -1000 1000 1000">
	<path fill="#000000" d="M901 -778L856 -719H109C86 -719 61 -721 36 -723L64 -686C81 -693 110 -697 131 -697H950C960 -697 965 -698 965 -702C965 -706 961 -711 954 -719ZM301 -667C342 -638 364 -608 374 -573C378 -558 384 -549 396 -549C408 -549 427 -565 427 -590C427 -626 399 -650 305 -677ZM626 -336L600 -298H416L358 -334C360 -306 361 -263 361 -241V-167C361 -160 358 -64 358 -45C358 -31 360 -26 367 -26C371 -26 378 -28 387 -31C404 -38 406 -41 406 -54V-87H616V-55C616 -47 617 -43 623 -43C627 -43 633 -45 642 -48C663 -56 666 -60 666 -72V-79C663 -119 662 -146 662 -176V-261L684 -278C689 -282 691 -285 691 -287C691 -290 689 -292 684 -295ZM406 -109V-276H616V-109ZM432 -842C475 -806 497 -772 502 -744C505 -728 510 -721 523 -721C538 -721 555 -738 555 -763C555 -800 520 -826 438 -852ZM571 -457C649 -411 706 -345 713 -330C723 -308 729 -303 738 -303C748 -303 760 -320 760 -342C760 -398 690 -431 576 -468ZM411 -483C360 -398 292 -318 229 -272L237 -259C318 -316 372 -365 419 -410C429 -420 439 -426 459 -429C467 -430 472 -432 472 -435C472 -438 468 -442 460 -447ZM826 -588L796 -542H603L678 -621C686 -631 696 -636 706 -638C716 -640 720 -642 720 -646C720 -649 717 -653 710 -657L655 -689C637 -646 616 -603 580 -542H223L160 -590C162 -557 164 -496 164 -459V-130C164 -79 163 2 161 55V64C161 79 163 85 171 85C175 85 182 83 191 79C212 71 215 67 215 55V48C212 8 211 -27 211 -128V-520H812V-33C812 -9 811 1 780 1C759 1 724 -4 666 -13L663 3C753 26 774 44 779 73C780 79 782 82 786 82C788 82 792 81 796 79C847 55 861 36 861 -18V-502L890 -521C896 -525 899 -528 899 -531C899 -534 896 -537 890 -541Z"/>
</svg>