<svg xmlns="http://www.w3.org/2000/svg" viewBox="0 -1000 1000 1000">
	<path fill="#000000" d="M676 -451H562V-604H676ZM520 -626H427L369 -667C371 -638 372 -593 372 -570V-493C372 -467 371 -427 369 -406C369 -403 368 -400 368 -397C368 -391 370 -389 374 -389C378 -389 384 -391 393 -395C415 -405 415 -409 415 -429H831C831 -402 831 -399 838 -399C841 -399 847 -400 856 -404C873 -411 877 -415 877 -426C877 -439 875 -499 875 -511V-589C904 -609 907 -611 907 -616C907 -620 904 -623 899 -627L844 -666L816 -626H718V-739H923C931 -739 936 -741 936 -746C936 -749 933 -754 926 -760L864 -815L824 -761H418C395 -761 365 -762 340 -765L373 -728C390 -735 419 -739 440 -739H520ZM520 -451H415V-604H520ZM718 -451V-604H831V-451ZM676 -626H562V-739H676ZM938 -210C945 -210 950 -212 950 -216C950 -219 947 -223 942 -228L885 -284L849 -232H700C799 -321 816 -331 840 -334C846 -335 849 -337 849 -340C849 -342 847 -345 842 -348L783 -383C755 -336 712 -274 678 -232H635V-355L658 -371C663 -374 665 -377 665 -380C665 -382 663 -384 657 -387L586 -417C588 -380 590 -317 590 -276V-232H354C331 -232 306 -233 281 -236L309 -199C326 -206 355 -210 376 -210H542C467 -100 366 -10 264 51L269 63C382 13 485 -68 590 -199V-79C590 -12 589 18 585 70V77C585 85 587 89 592 89C596 89 602 86 610 82C632 71 636 66 636 48C635 6 635 -36 635 -87V-210H651C691 -107 741 -38 863 29C867 31 870 33 873 33C876 33 878 31 880 28C898 2 927 -7 970 -7V-18C820 -35 725 -105 671 -210ZM396 -370C435 -337 462 -297 469 -271C475 -251 479 -244 493 -244C507 -244 515 -270 515 -292C511 -318 496 -338 401 -380ZM108 -609C102 -525 82 -488 52 -458C39 -445 34 -434 34 -426C34 -416 40 -403 59 -403C72 -403 87 -409 102 -424C118 -440 129 -479 129 -537C129 -559 127 -583 124 -609ZM225 -779C251 -795 254 -797 254 -802C254 -805 251 -809 246 -811L179 -848C181 -812 182 -759 182 -709V-110C182 -80 178 52 178 78C178 87 180 92 186 92C190 92 196 90 205 86C223 78 227 73 227 59V53C225 10 225 -55 225 -126V-633C262 -602 287 -565 294 -550C305 -524 309 -519 320 -519C334 -519 346 -538 346 -559C346 -597 301 -621 225 -651Z"/>
</svg>