<svg xmlns="http://www.w3.org/2000/svg" viewBox="0 -1000 1000 1000">
	<path fill="#000000" d="M504 -496C506 -462 507 -413 507 -365V-258C507 -97 499 -73 424 -5L430 7C517 -45 541 -69 546 -194H726V-131C726 -98 723 -83 696 -83C679 -83 653 -89 612 -100L609 -86C672 -60 689 -45 689 -28C689 -26 687 -18 687 -16C687 -13 689 -12 692 -12C694 -12 696 -12 698 -13C756 -36 767 -58 767 -115V-402L798 -424C803 -427 805 -430 805 -432C805 -434 803 -437 798 -439L733 -476L714 -444H562ZM726 -216H547C548 -242 548 -273 548 -308H726ZM548 -422H726V-330H548ZM354 -829C356 -792 358 -724 358 -683V-153C358 -119 355 29 355 59C355 76 358 83 366 83C369 83 374 82 379 79C398 70 403 65 403 50V45C401 17 400 -39 400 -151V-536H546C546 -505 546 -501 553 -501C556 -501 562 -503 570 -507C587 -514 591 -518 591 -530C591 -543 587 -634 587 -654V-733L618 -747C623 -749 625 -751 625 -753C625 -755 623 -757 620 -760L562 -812L534 -772H410ZM546 -554H400V-643H546ZM400 -754H546V-661H400ZM869 -643V-556H718V-643ZM869 -755V-661H718V-755ZM869 -538V-42C869 -11 866 3 830 3C811 3 783 -1 740 -8L739 8C816 27 833 37 840 66C841 72 844 75 848 75C850 75 852 74 855 73C904 55 913 42 913 0V-737C945 -755 945 -755 945 -759C945 -762 941 -765 935 -770L880 -815L852 -773H732L672 -824C675 -794 676 -768 676 -744V-628C676 -611 672 -529 672 -520C672 -506 676 -498 686 -498C690 -498 694 -499 699 -501C718 -508 718 -511 718 -538ZM93 -605C93 -526 66 -455 38 -432C21 -419 15 -407 15 -396C15 -383 23 -373 41 -373C63 -373 113 -386 113 -510C113 -536 111 -567 108 -605ZM222 -777L245 -793C250 -797 253 -799 253 -802C253 -805 250 -807 245 -810L171 -850C173 -815 175 -749 175 -710V-124C175 -70 174 6 172 62V71C172 87 174 93 181 93C185 93 191 91 200 87C221 78 226 74 226 59V54C223 12 222 -60 222 -132V-601C252 -573 274 -541 283 -510C291 -484 298 -476 310 -476C324 -476 338 -497 338 -521C338 -530 335 -540 330 -549C316 -574 278 -604 222 -630Z"/>
</svg>