<svg xmlns="http://www.w3.org/2000/svg" viewBox="0 -1000 1000 1000">
	<path fill="#000000" d="M707 -166C704 -16 696 -9 612 -4C583 -2 530 0 484 0C354 0 354 -17 354 -37V-160L385 -166C389 -167 391 -168 391 -170C391 -172 389 -175 385 -177L304 -230C306 -208 306 -176 306 -148V-24C306 42 341 44 483 44C546 44 605 42 659 39C722 36 736 30 758 -12C760 -16 761 -20 761 -22C761 -26 759 -27 756 -28C732 -35 725 -58 726 -163ZM55 -214C171 -307 239 -369 287 -431V-278C286 -255 287 -246 296 -246C301 -246 308 -248 317 -252C332 -258 338 -262 338 -275C338 -278 338 -282 337 -286C332 -330 330 -371 330 -416V-449C410 -397 431 -364 447 -332C460 -306 468 -299 477 -299C490 -299 503 -313 503 -337C503 -371 482 -404 330 -470V-694H537C546 -694 551 -695 551 -698C551 -701 548 -705 542 -711L492 -764L452 -716H330V-780L359 -799C366 -804 369 -807 369 -810C369 -812 366 -814 361 -816L283 -848C286 -815 287 -786 287 -716H132C109 -716 84 -718 59 -720L87 -683C104 -690 133 -694 154 -694H287V-503C227 -408 169 -344 44 -225ZM729 -796C766 -767 788 -736 796 -712C805 -683 808 -681 818 -681C833 -683 847 -699 847 -720C847 -726 846 -732 843 -739C834 -760 792 -787 734 -806ZM493 -251C624 -346 661 -415 680 -586C710 -455 755 -352 831 -278C833 -276 836 -274 839 -274C841 -274 843 -275 844 -277C857 -292 870 -298 892 -298C902 -298 914 -297 928 -295V-311C825 -339 757 -429 694 -605H914C922 -605 925 -606 925 -609C925 -611 923 -614 917 -620L861 -677L820 -626H685C689 -669 695 -754 694 -787C716 -807 719 -809 719 -813C719 -815 716 -818 711 -820L643 -848C644 -832 644 -813 644 -793C644 -732 641 -658 639 -626H579C556 -626 531 -628 506 -630L534 -594C551 -601 580 -605 601 -605H637C621 -441 586 -354 485 -266ZM189 -195C168 -107 148 -79 76 -37C65 -30 59 -18 59 -8C59 6 71 18 91 18C100 18 110 16 120 10C172 -18 194 -60 202 -195ZM746 -213C819 -162 859 -104 870 -65C877 -41 885 -30 899 -30C917 -30 932 -52 932 -79C932 -84 931 -89 930 -94C924 -124 868 -173 751 -222ZM441 -236C501 -201 529 -171 553 -114C558 -102 565 -97 576 -97C588 -97 602 -119 602 -141C602 -187 523 -229 447 -248ZM443 -664C417 -604 390 -560 338 -487L349 -479C384 -514 407 -537 431 -565C458 -534 470 -510 472 -485C473 -465 477 -460 489 -460C507 -460 521 -476 521 -497C521 -525 500 -549 444 -582C449 -588 454 -595 459 -602C466 -612 470 -613 489 -618C498 -619 503 -621 503 -625C503 -627 500 -630 495 -633ZM185 -671C159 -593 123 -527 62 -432L74 -425C112 -470 149 -515 181 -563C200 -535 206 -509 208 -492C211 -466 221 -463 230 -463C243 -463 258 -479 258 -498C258 -535 213 -566 192 -581C198 -590 204 -600 209 -610C214 -620 223 -626 238 -629C246 -631 250 -633 250 -636C250 -638 247 -641 242 -643Z"/>
</svg>