<svg xmlns="http://www.w3.org/2000/svg" viewBox="0 -1000 1000 1000">
	<path fill="#000000" d="M567 -389V-298C567 -282 565 -211 565 -196C565 -186 567 -181 574 -181C581 -181 612 -190 612 -205V-210C610 -236 610 -266 610 -307V-389H758V-307C758 -287 753 -277 722 -277C704 -277 678 -280 640 -286L637 -272C714 -256 725 -248 733 -205C734 -202 735 -200 738 -200C739 -200 740 -200 742 -201C795 -227 801 -242 801 -292V-373L837 -391C841 -393 842 -394 842 -396C842 -398 841 -400 837 -402L774 -451L743 -410H610V-483H877L836 -410L848 -405C899 -449 920 -462 956 -462C962 -462 964 -464 964 -466C964 -469 963 -472 959 -476L903 -536L872 -503H331C331 -509 331 -516 330 -523H312C309 -461 297 -438 244 -411C231 -405 225 -395 225 -385C225 -373 233 -360 252 -360C253 -360 332 -365 332 -478V-483H567V-410H439L383 -460C384 -442 385 -406 385 -384V-289C385 -279 382 -236 382 -227C382 -218 384 -214 391 -214C395 -214 400 -215 408 -217C425 -221 428 -225 428 -236C428 -247 425 -296 425 -306V-389ZM455 -201C518 -164 542 -135 563 -81C568 -69 575 -64 586 -64C602 -64 612 -82 612 -103C612 -109 611 -114 610 -120C601 -153 543 -192 461 -213ZM610 -599H533V-681H610ZM423 -759C451 -779 454 -781 454 -785C454 -787 452 -789 447 -791L379 -815C381 -793 382 -763 382 -741V-702H332C309 -702 287 -703 261 -706L288 -671C311 -681 344 -681 382 -681C380 -616 354 -573 249 -539L253 -524C385 -555 420 -598 423 -681H490V-643C490 -628 489 -563 489 -550C489 -540 491 -536 497 -536C501 -536 507 -538 517 -542C530 -547 533 -552 533 -578H610C610 -540 610 -535 618 -535C623 -535 630 -539 640 -545C651 -551 655 -555 655 -568V-576C651 -615 651 -644 651 -681H718V-615C718 -555 726 -548 804 -548C872 -548 883 -551 903 -590C905 -593 905 -595 905 -596C905 -599 903 -601 899 -602C881 -608 873 -621 871 -669H857C852 -592 847 -583 802 -583C766 -583 760 -587 760 -614V-681H910C921 -681 927 -684 927 -690C927 -695 924 -700 917 -707L875 -750L827 -702H760V-764C788 -777 791 -779 791 -782C791 -784 789 -787 783 -789L716 -822C718 -798 718 -771 718 -745V-702H651V-777C676 -793 679 -795 679 -800C679 -802 677 -804 675 -805L606 -833C610 -785 610 -749 610 -702H533V-776C558 -794 561 -796 561 -799C561 -801 559 -803 555 -804L488 -832C490 -805 490 -795 490 -702H423ZM257 -681L186 -508C170 -465 156 -449 115 -449C98 -449 77 -451 49 -456L47 -445C69 -441 98 -433 126 -424C143 -420 151 -404 151 -373C151 -352 137 -264 137 -246C137 -213 147 -201 164 -201C188 -201 199 -209 199 -237C199 -252 196 -272 191 -300C187 -322 185 -341 185 -359C185 -392 191 -422 203 -459L270 -678ZM62 -663C115 -620 131 -595 140 -557C144 -542 149 -536 158 -536C168 -536 185 -563 185 -584C185 -622 124 -650 68 -670ZM112 -806C155 -779 177 -754 187 -723C193 -705 198 -697 210 -697C224 -697 234 -716 234 -735C234 -780 183 -796 117 -815ZM193 -180C168 -92 152 -68 84 -25C73 -18 67 -6 67 4C67 17 78 30 98 30C107 30 116 27 126 22C178 -7 198 -41 206 -180ZM739 -154C730 -15 717 -8 654 -2C606 2 563 4 523 4C482 4 444 2 404 0C346 -4 338 -7 338 -34V-153L367 -171C370 -173 372 -175 372 -177C372 -179 370 -181 367 -182L292 -221C294 -200 294 -186 294 -141V-14C294 26 314 40 370 43C431 47 479 50 532 50C578 50 628 48 693 43C751 39 776 28 796 -10C798 -14 799 -17 799 -20C799 -23 797 -25 791 -26C760 -34 751 -48 752 -154ZM776 -179C847 -127 876 -91 886 -39C891 -12 901 -5 915 -5C932 -5 946 -25 946 -50C946 -99 896 -140 783 -188Z"/>
</svg>