<svg xmlns="http://www.w3.org/2000/svg" viewBox="0 -1000 1000 1000">
	<path fill="#000000" d="M509 -688L452 -736C454 -709 455 -675 455 -633V-452H408C410 -465 410 -479 409 -495H396C385 -444 372 -423 336 -402C316 -390 306 -377 306 -366C306 -359 313 -342 334 -342C382 -342 401 -406 405 -431H589C614 -405 627 -377 628 -356C629 -338 638 -330 648 -330C663 -330 676 -345 676 -364C676 -394 647 -416 617 -431H884L849 -363L863 -355C903 -411 925 -418 961 -419C967 -419 970 -420 970 -423C970 -425 968 -428 964 -431L906 -485L882 -452H829V-646L852 -659C856 -661 859 -664 859 -667C859 -670 856 -673 850 -678L802 -718L777 -688H607C621 -711 644 -744 659 -765H931C938 -765 942 -767 942 -770C942 -773 939 -777 935 -781L880 -837L841 -787H429C408 -787 383 -789 360 -791L386 -754C403 -761 430 -765 451 -765H598C597 -738 592 -710 584 -688ZM496 -532V-593H787V-532ZM496 -614V-666H787V-614ZM496 -452V-511H787V-452ZM767 -166C746 -118 705 -75 665 -49C621 -70 567 -123 534 -166ZM335 83C492 71 588 43 668 -4C715 25 761 44 862 74C864 74 865 75 867 75C871 75 874 72 877 68C891 48 909 34 962 28V13C877 16 792 1 709 -31C752 -61 774 -88 796 -131C803 -144 828 -156 851 -157C856 -157 858 -158 858 -161C858 -163 857 -166 853 -170L801 -221L771 -186H541C557 -199 570 -202 582 -203C587 -204 589 -205 589 -208C589 -210 587 -213 582 -217L532 -254C471 -161 429 -116 328 -28L334 -16C415 -63 463 -102 512 -156C552 -103 600 -47 632 -28C553 18 447 54 335 67ZM120 -599C120 -520 93 -449 64 -426C47 -413 41 -401 41 -390C41 -376 50 -367 68 -367C89 -367 140 -379 140 -504C140 -530 138 -561 135 -599ZM234 -775C262 -795 266 -797 266 -800C266 -803 263 -805 257 -808L186 -848C188 -813 190 -747 190 -708V-132C190 -78 189 -2 187 54V61C187 78 189 84 196 84C200 84 205 82 212 79C233 70 238 66 238 51V46C235 4 234 -68 234 -140V-617C277 -586 298 -555 308 -512C313 -489 324 -478 337 -478C349 -478 364 -488 364 -514C364 -524 362 -536 356 -547C340 -580 304 -607 234 -635ZM440 -386C429 -339 400 -305 377 -296C362 -290 354 -280 354 -270C354 -256 367 -245 385 -245C404 -245 451 -260 458 -386ZM763 -381C798 -351 823 -309 831 -279C836 -259 844 -248 854 -248C871 -248 882 -268 882 -290C882 -294 882 -299 881 -303C873 -335 811 -372 768 -390ZM730 -385C726 -293 720 -288 676 -288C641 -288 598 -288 567 -289C537 -290 533 -293 533 -315V-359C557 -373 560 -375 560 -378C560 -381 557 -384 552 -387L489 -420C491 -411 492 -391 492 -375V-305C492 -272 507 -256 539 -255C582 -254 650 -253 692 -253C731 -253 750 -258 773 -291C774 -293 775 -295 775 -297C775 -300 773 -302 769 -304C750 -313 745 -327 745 -385Z"/>
</svg>