<svg xmlns="http://www.w3.org/2000/svg" viewBox="0 -1000 1000 1000">
	<path fill="#000000" d="M348 -491C350 -462 351 -430 351 -399V-294C351 -285 347 -246 347 -238C347 -232 349 -229 353 -229C357 -229 363 -231 372 -235C394 -245 394 -247 394 -270H583V-199H404C381 -199 357 -201 332 -203L359 -168C376 -175 405 -179 426 -179H583V-116H327C293 -116 286 -117 262 -120L288 -85C305 -92 328 -96 349 -96H973C975 -96 977 -97 977 -99C977 -100 975 -103 972 -106L918 -159L879 -116H626V-179H903C905 -179 906 -180 906 -182C906 -183 905 -186 902 -188L852 -233L819 -199H626V-270H821C821 -249 821 -247 827 -247C833 -247 868 -256 868 -271C868 -271 864 -325 864 -335V-419L892 -431C895 -432 897 -434 897 -436C897 -438 895 -440 890 -443L831 -479L807 -445H398ZM583 -290H394V-425H583ZM626 -290V-425H821V-290ZM425 -405C453 -388 482 -339 482 -325C482 -307 488 -301 498 -301C517 -301 528 -317 528 -333C528 -375 441 -407 429 -411ZM396 -84C386 -29 362 1 322 26C306 36 299 43 299 50C299 54 304 73 328 73C339 73 353 68 366 57C388 38 402 6 409 -82ZM798 -76C837 -49 866 -10 876 33C881 57 885 62 894 62C914 62 930 42 930 20C930 9 926 -1 918 -11C904 -27 855 -64 804 -85ZM658 -78C681 -43 690 -8 690 21C690 44 698 50 710 50C727 50 741 33 741 11C741 4 740 -4 736 -12C727 -32 697 -61 665 -83ZM507 -74C517 -49 522 -31 522 -9C522 -4 519 24 519 26C519 36 526 44 534 44C553 44 571 30 571 5C571 -25 538 -58 516 -80ZM430 -642C432 -622 432 -606 432 -583V-533C432 -505 431 -488 429 -471C429 -469 428 -467 428 -465C428 -461 430 -459 433 -459C437 -459 442 -461 451 -464C473 -473 475 -474 475 -496H750C750 -469 750 -466 757 -466C764 -466 796 -477 796 -491C796 -497 793 -524 793 -530V-572C819 -586 821 -587 821 -590C821 -592 820 -594 816 -596L759 -630L735 -597H479ZM475 -515V-577H750V-515ZM734 -413C711 -372 701 -356 670 -308L680 -301C736 -357 763 -373 780 -372C786 -371 789 -372 789 -373C789 -375 787 -376 784 -379ZM388 -676C387 -687 386 -699 384 -712H372C370 -646 355 -615 319 -588C311 -582 307 -572 307 -565C307 -556 315 -542 332 -542C338 -542 345 -544 352 -549C377 -565 390 -597 389 -656H893L840 -568L850 -560C910 -631 938 -647 968 -647C973 -647 978 -647 978 -653C978 -656 976 -659 973 -662L910 -709L880 -676H714C788 -748 803 -759 830 -759C836 -759 844 -759 844 -761C844 -762 844 -763 842 -764L780 -811C751 -758 724 -719 694 -676H627V-786L654 -800C660 -803 663 -805 663 -807C663 -809 660 -811 654 -814L582 -847C584 -813 584 -801 584 -764V-676ZM219 -769L250 -785C256 -788 260 -791 260 -794C260 -797 256 -799 249 -803L171 -844C173 -807 175 -739 175 -698V-148C175 -114 172 34 172 64C172 76 174 81 180 81C184 81 190 79 198 74C219 63 223 59 223 46V40C220 -5 219 -66 219 -156V-587C245 -562 261 -534 272 -494C276 -474 280 -465 293 -465C309 -465 324 -488 324 -511C324 -518 323 -524 320 -530C309 -551 275 -579 219 -608ZM404 -799C435 -776 456 -747 467 -714C475 -690 480 -686 490 -686C507 -686 517 -700 517 -718C517 -759 455 -790 408 -807ZM106 -609C102 -506 79 -461 57 -436C40 -417 33 -407 33 -399C33 -394 38 -372 63 -372C120 -372 128 -463 128 -517C128 -544 126 -575 122 -609Z"/>
</svg>