<svg xmlns="http://www.w3.org/2000/svg" viewBox="0 -1000 1000 1000">
	<path fill="#000000" d="M570 -478L537 -429H86C64 -429 48 -431 28 -433L52 -399C64 -404 86 -407 106 -407H611C620 -407 624 -408 624 -411C624 -413 621 -417 617 -422ZM457 -610C478 -579 489 -557 494 -530L362 -524C384 -552 392 -563 447 -648C455 -661 470 -672 483 -677C488 -679 491 -681 491 -684C491 -687 489 -689 486 -691L431 -723C423 -678 411 -644 374 -580C357 -550 345 -539 313 -528L343 -481C345 -478 348 -475 352 -475C353 -475 355 -476 357 -477C377 -492 393 -495 496 -513C498 -485 505 -475 514 -475C518 -475 541 -477 541 -509C541 -541 524 -569 465 -617ZM217 -613C239 -580 250 -557 255 -528L126 -521C148 -549 156 -560 211 -645C219 -658 234 -669 247 -674C252 -676 255 -678 255 -681C255 -684 253 -686 250 -688L195 -720C187 -675 175 -641 138 -577C121 -547 109 -536 77 -525L107 -478C109 -475 112 -472 116 -472C117 -472 119 -473 121 -474C146 -492 159 -495 256 -512C259 -487 266 -478 274 -478C277 -478 301 -479 301 -512C301 -544 284 -572 225 -620ZM472 55C595 -7 674 -60 734 -135C781 -42 815 4 868 51C893 73 926 85 938 85C942 85 943 84 943 79C943 70 939 54 933 41C927 27 923 2 923 -47C923 -77 924 -117 928 -168L913 -169L885 -32C883 -19 880 -14 875 -14C868 -14 803 -73 764 -175C802 -231 834 -300 868 -391C873 -403 886 -417 899 -421C905 -423 907 -424 907 -426C907 -428 905 -430 900 -432L839 -462C814 -369 785 -292 747 -227C731 -287 716 -385 702 -537L961 -571C969 -572 972 -574 972 -577C972 -579 970 -581 966 -585L909 -636L878 -587L700 -564C695 -620 691 -672 691 -725C691 -746 692 -766 693 -787L717 -802C722 -805 724 -807 724 -810C724 -812 722 -814 717 -816L639 -848C644 -725 651 -614 656 -558L626 -554C601 -551 578 -550 552 -551L579 -514C595 -522 615 -527 658 -531C673 -367 698 -237 716 -178C655 -91 574 -24 463 41ZM144 -382C145 -353 146 -304 146 -281V-73C146 -55 142 29 142 43C142 50 143 54 148 54C152 54 158 52 168 47C187 38 189 32 189 19V-29H443V5C443 15 445 20 450 20C453 20 489 6 489 -13V-19C487 -44 486 -75 486 -109V-301L507 -315C511 -318 513 -320 513 -322C513 -324 511 -327 508 -330L468 -369L440 -338H194ZM189 -197V-316H443V-197ZM189 -51V-175H443V-51ZM502 -796L469 -755H142C124 -755 104 -757 84 -759L106 -722C120 -729 143 -733 160 -733H543C549 -733 553 -734 553 -737C553 -740 551 -743 547 -747ZM760 -750C802 -721 819 -697 828 -671C833 -657 840 -650 853 -650C862 -650 873 -667 873 -685C873 -693 871 -701 866 -708C852 -728 819 -746 767 -762Z"/>
</svg>