<svg xmlns="http://www.w3.org/2000/svg" viewBox="0 -1000 1000 1000">
	<path fill="#000000" d="M212 -388L34 -309L81 -262C83 -260 85 -259 87 -259C90 -259 92 -261 95 -266C105 -284 127 -299 212 -348V-35C212 -16 208 -6 181 -6C162 -6 131 -11 81 -21L77 -8C162 21 169 33 174 61C175 67 177 70 180 70C182 70 184 69 187 68C251 40 258 28 258 -11V-374L402 -455L394 -469L258 -408V-597H408C415 -597 419 -599 419 -604C419 -607 416 -612 411 -617L360 -669L325 -619H258V-776C283 -795 286 -798 286 -801C286 -804 283 -807 279 -809L211 -847C212 -780 212 -752 212 -700V-619H109C86 -619 62 -621 36 -623L64 -586C81 -593 110 -597 131 -597H212ZM901 -720C911 -720 916 -721 916 -725C916 -728 912 -733 905 -741L852 -798L806 -741H491C463 -741 443 -742 418 -745L446 -709C463 -716 492 -720 513 -720H625V-416H429C406 -416 381 -417 356 -420L384 -383C401 -390 430 -394 451 -394H625V-127C625 -70 623 -9 620 50V64C620 76 621 81 628 81C633 81 640 79 650 74C672 64 676 61 676 48V43C674 -2 673 -69 673 -145V-394H954C965 -394 971 -395 971 -399C971 -402 966 -407 958 -416L902 -476L856 -416H673V-720Z"/>
</svg>