<svg xmlns="http://www.w3.org/2000/svg" viewBox="0 -1000 1000 1000">
	<path fill="#000000" d="M210 -367L37 -289L84 -242C86 -240 88 -239 90 -239C93 -239 95 -241 98 -246C111 -268 130 -284 210 -329V-24C210 -5 206 5 179 5C160 5 129 0 79 -10L75 3C158 32 167 44 172 72C173 78 175 81 178 81C180 81 182 80 185 79C243 53 255 33 255 -4V-355L386 -429L378 -443L255 -387V-579H380C387 -579 391 -581 391 -585C391 -588 388 -592 383 -597L330 -645L297 -601H255V-777C280 -796 283 -799 283 -802C283 -805 280 -808 276 -810L209 -848C210 -784 210 -753 210 -701V-601H120C93 -601 72 -602 47 -605L75 -568C92 -575 121 -579 142 -579H210ZM899 -178C900 12 889 12 810 12C725 12 710 7 710 -47V-394L746 -415C751 -418 753 -421 753 -424C753 -427 750 -430 744 -433L663 -464C664 -431 666 -385 666 -344V-33C666 51 688 54 811 54C920 54 928 46 960 -4C962 -7 963 -10 963 -12C963 -17 960 -21 953 -25C928 -39 917 -67 915 -178ZM432 -686C436 -629 417 -564 391 -534C378 -519 372 -506 372 -497C372 -486 380 -476 397 -476C439 -476 460 -538 455 -614H594C570 -229 467 -92 281 61L288 72C514 -59 612 -234 641 -614H859L803 -501L816 -494C885 -584 907 -601 945 -604C952 -605 956 -608 956 -612C956 -616 954 -620 948 -625L882 -679L846 -636H642C646 -678 648 -721 649 -768L678 -783C683 -786 686 -788 686 -790C686 -792 684 -794 680 -796L600 -843C600 -767 598 -698 595 -636H453C452 -652 449 -671 445 -686Z"/>
</svg>