<svg xmlns="http://www.w3.org/2000/svg" viewBox="0 -1000 1000 1000">
	<path fill="#000000" d="M814 -764L772 -709H497C476 -709 453 -711 431 -713L456 -677C471 -683 498 -687 517 -687H869C879 -687 883 -688 883 -692C883 -694 880 -699 873 -706ZM953 -436C963 -436 967 -437 967 -441C967 -443 964 -448 957 -455L895 -514L850 -458H438C417 -458 397 -459 372 -462L397 -426C412 -432 439 -436 458 -436H615C578 -313 506 -163 465 -99C441 -62 413 -44 368 -32L414 18C417 22 420 24 424 24C427 24 430 22 435 19C452 8 498 -4 568 -12L846 -33C852 -15 856 0 858 14C863 45 874 56 884 56C900 56 922 34 922 -3C922 -13 920 -24 916 -34C897 -84 834 -163 738 -252L725 -241C776 -177 816 -109 838 -52L463 -46C508 -110 602 -266 645 -360C648 -367 660 -375 679 -380C688 -382 692 -385 692 -388C692 -391 689 -393 685 -397L636 -436ZM218 -349L45 -269L92 -222C94 -220 96 -219 98 -219C101 -219 103 -221 106 -226C119 -248 139 -264 218 -309V-35C218 -16 214 -6 187 -6C168 -6 137 -11 87 -21L83 -8C168 21 175 33 180 61C181 67 183 70 186 70C188 70 190 69 193 68C257 40 264 28 264 -11V-336L394 -413L386 -427L264 -370V-579H400C407 -579 411 -581 411 -585C411 -588 408 -592 403 -597L350 -645L317 -601H264V-763C293 -783 297 -786 297 -791C297 -796 293 -800 285 -804L217 -842C218 -775 218 -754 218 -695V-601H126C103 -601 78 -603 53 -605L81 -568C98 -575 127 -579 148 -579H218Z"/>
</svg>