<svg xmlns="http://www.w3.org/2000/svg" viewBox="0 -1000 1000 1000">
	<path fill="#000000" d="M206 -374L34 -269L83 -227C87 -224 90 -222 92 -222C95 -222 96 -224 97 -228C103 -250 117 -267 206 -332V-42C206 -17 202 -4 170 -4C148 -4 112 -10 56 -22L53 -8C141 20 156 33 161 65C162 71 164 74 168 74C170 74 172 73 175 72C239 38 252 20 252 -50V-365L382 -459L373 -475L252 -401V-583H393C402 -583 406 -585 406 -590C406 -593 404 -597 399 -602L350 -655L311 -605H252V-776L278 -794C283 -798 285 -801 285 -805C285 -809 281 -814 274 -817L202 -854C204 -817 206 -749 206 -708V-605H110C87 -605 64 -606 37 -609L65 -572C82 -579 111 -583 132 -583H206ZM755 -750L656 -530L610 -501L659 -457C662 -455 664 -453 666 -453C668 -453 670 -455 672 -457L697 -480H798C773 -361 729 -251 683 -185C598 -286 540 -446 505 -671C507 -699 508 -726 509 -750ZM975 -32C862 -56 770 -101 712 -155C762 -221 796 -300 836 -429C843 -453 847 -459 880 -474C884 -476 886 -477 886 -480C886 -482 884 -484 880 -487L819 -536L791 -500H689L793 -717C800 -732 806 -738 836 -744C842 -745 845 -747 845 -750C845 -752 843 -755 840 -758L779 -810L748 -772H422C399 -772 380 -773 349 -776L377 -739C401 -750 421 -750 461 -750C460 -645 451 -506 446 -456C420 -195 383 -94 219 65L227 77C416 -71 474 -162 500 -577C531 -373 581 -242 657 -152C583 -71 494 -12 329 65L334 78C497 26 611 -41 684 -121C774 -31 870 18 875 18C878 18 880 17 882 13C896 -6 923 -18 975 -18Z"/>
</svg>