<svg xmlns="http://www.w3.org/2000/svg" viewBox="0 -1000 1000 1000">
	<path fill="#000000" d="M192 -394L34 -318L81 -271C83 -269 85 -268 87 -268C90 -268 92 -270 95 -275C107 -296 125 -311 192 -350V-38C192 -19 188 -9 162 -9C143 -9 113 -14 66 -24L62 -11C137 15 148 24 154 58C155 64 157 67 160 67C162 67 164 66 167 65C231 37 238 25 238 -14V-377L363 -458L353 -472L238 -416V-593H353C360 -593 364 -595 364 -598C364 -601 361 -606 356 -611L309 -663L270 -615H238V-779C263 -798 266 -801 266 -804C266 -807 263 -810 259 -812L188 -850C191 -783 192 -749 192 -703V-615H117C94 -615 69 -617 44 -619L72 -582C89 -589 118 -593 139 -593H192ZM426 -742C429 -673 406 -632 374 -605C359 -592 351 -582 351 -572C351 -564 357 -546 381 -546C409 -546 450 -572 450 -671H822L756 -563L769 -556C846 -643 861 -651 913 -655C920 -656 923 -657 923 -660C923 -663 920 -667 915 -672L851 -736L813 -693H449C448 -710 446 -727 442 -744ZM542 -851C590 -812 610 -782 621 -737C627 -714 631 -710 645 -710C665 -710 680 -723 680 -748C680 -784 657 -819 547 -861ZM461 -537C462 -507 463 -479 463 -451C463 -384 460 -322 454 -260C440 -104 398 -33 234 72L239 83C421 2 485 -90 500 -256C508 -344 511 -402 513 -466H703V-75C703 11 714 32 823 32C935 32 954 21 975 -24C978 -30 979 -34 979 -37C979 -42 977 -44 973 -46C947 -58 939 -74 939 -209H923C921 -19 912 -11 823 -11C764 -11 750 -23 750 -70V-451L784 -470C790 -474 793 -476 793 -479C793 -482 790 -485 785 -488L722 -535L691 -489H525Z"/>
</svg>