<svg xmlns="http://www.w3.org/2000/svg" viewBox="0 -1000 1000 1000">
	<path fill="#000000" d="M827 -830L798 -784H536L472 -837C474 -808 475 -759 475 -736V-494C475 -484 473 -439 473 -430C473 -422 474 -419 479 -419C483 -419 489 -421 498 -425C522 -436 522 -439 522 -466H813C813 -435 813 -431 821 -431C822 -431 864 -443 864 -463C864 -473 860 -543 860 -558V-746L890 -765C895 -768 897 -771 897 -774C897 -776 895 -779 891 -782ZM522 -640V-762H813V-640ZM522 -488V-618H813V-488ZM871 -398L841 -355H485L423 -403C425 -374 426 -332 426 -309V-50C426 -20 423 27 423 56C423 64 424 68 429 68C430 68 473 57 473 36V-27H855V26C855 46 856 54 864 54C868 54 873 52 881 48C900 38 904 35 904 25C904 10 902 -53 902 -66V-314L932 -331C938 -334 940 -336 940 -339C940 -341 938 -344 933 -348ZM473 -200V-333H855V-200ZM473 -49V-178H855V-49ZM300 -753L272 -710H170L105 -763C107 -732 108 -684 108 -660V-351C108 -294 107 -230 105 -171V-162C105 -145 107 -138 114 -138C118 -138 124 -141 132 -145C152 -155 154 -158 154 -170V-274H283V-215C283 -205 284 -200 290 -200C294 -200 300 -202 310 -208C330 -219 333 -224 333 -236V-242C330 -287 329 -309 329 -380V-669L362 -688C367 -691 370 -694 370 -697C370 -700 367 -703 362 -707ZM154 -296V-688H283V-296Z"/>
</svg>