<svg xmlns="http://www.w3.org/2000/svg" viewBox="0 -1000 1000 1000">
	<path fill="#000000" d="M199 -369L36 -283L76 -236C78 -233 80 -232 82 -232C84 -232 87 -234 90 -240C102 -260 128 -283 199 -331V-28C199 -11 196 0 166 0C146 0 117 -5 70 -14L67 0C140 26 153 36 161 69C162 75 164 78 167 78C169 78 171 77 174 76C236 46 244 34 244 -32V-361L359 -436L351 -451L244 -394V-580H363C373 -580 379 -581 379 -586C379 -589 375 -594 369 -601L324 -651L291 -602H244V-778L271 -793C276 -796 278 -799 278 -801C278 -805 275 -808 268 -811L195 -847C197 -813 199 -750 199 -701V-602H105C82 -602 58 -603 32 -606L60 -569C77 -576 106 -580 127 -580H199ZM437 -122C437 -69 436 -11 434 49V57C434 75 436 82 444 82C449 82 455 79 464 75C482 66 485 62 485 49V41C483 -5 482 -68 482 -131V-521C511 -566 538 -613 566 -668H951C959 -668 963 -670 963 -674C963 -677 960 -682 954 -688L896 -746L858 -690H577C589 -714 602 -740 615 -767C626 -791 640 -804 653 -806C661 -807 665 -810 665 -814C665 -818 661 -823 652 -826L592 -850C571 -791 549 -738 527 -690H413C392 -690 370 -692 347 -694L372 -657C388 -664 414 -668 433 -668H517C467 -561 407 -463 295 -303L310 -296C360 -354 401 -405 437 -455ZM769 -358C793 -372 796 -374 796 -378C796 -384 789 -387 770 -397C867 -501 891 -508 920 -508C925 -508 928 -509 928 -512C928 -514 926 -517 923 -521L873 -579L834 -543H623C603 -543 577 -544 558 -547L583 -510C598 -517 624 -521 643 -521H836L752 -406L724 -420C725 -402 725 -375 725 -285H575C554 -285 532 -286 509 -289L534 -252C550 -259 576 -263 595 -263H725V-30C725 -9 720 2 688 2C667 2 634 -3 583 -12V3C661 20 675 35 682 72C683 77 686 80 690 80C692 80 695 79 697 78C766 39 769 32 769 -9V-263H953C960 -263 964 -265 964 -269C964 -272 962 -276 957 -281L905 -338L867 -285H769Z"/>
</svg>