<svg xmlns="http://www.w3.org/2000/svg" viewBox="0 -1000 1000 1000">
	<path fill="#000000" d="M919 -633L879 -579H844V-715L872 -733C877 -737 880 -739 880 -742C880 -744 877 -747 873 -750L808 -798L778 -753H448C425 -753 400 -755 375 -757L403 -720C420 -727 449 -731 470 -731H539C539 -687 537 -634 533 -579H417C394 -579 369 -581 344 -583L372 -546C389 -553 418 -557 439 -557H531C526 -509 521 -461 512 -418H421C398 -418 373 -420 348 -422L376 -385C393 -392 422 -396 443 -396H507C482 -281 434 -178 279 -12L288 -3C380 -72 446 -147 491 -230V-71C491 -14 490 14 488 55C488 61 487 66 487 70C487 82 489 87 495 87C500 87 506 85 515 81C536 72 537 69 537 56V-8H815V59C815 69 816 73 821 73C825 73 832 71 842 66C863 57 868 53 868 41C868 39 867 36 867 32C863 -12 862 -42 862 -101V-231C874 -237 893 -247 893 -250C893 -253 890 -255 884 -260L823 -305L794 -265H547L519 -291C533 -325 544 -359 552 -396H797V-359C797 -349 798 -344 804 -344C808 -344 814 -347 824 -352C844 -362 850 -366 850 -378C850 -380 849 -383 849 -386C845 -431 844 -456 844 -504V-557H969C979 -557 984 -558 984 -562C984 -565 981 -569 975 -575ZM578 -579C584 -637 588 -694 588 -731H797V-579ZM557 -418C564 -456 570 -506 576 -557H797V-418ZM537 -30V-243H815V-30ZM342 -658L303 -610H240V-782C251 -791 269 -807 269 -810C269 -813 266 -815 258 -818L190 -847C192 -810 194 -742 194 -701V-610H109C86 -610 61 -612 36 -614L64 -577C81 -584 110 -588 131 -588H194V-390L23 -305L65 -260C67 -258 69 -256 71 -256C74 -256 76 -259 79 -264C88 -279 109 -297 163 -331L194 -351V-4C194 6 192 12 173 12C156 12 128 8 77 -3L74 11C141 30 165 55 169 83C170 89 171 91 174 91C176 91 179 90 182 89C234 66 240 54 240 -12V-380L374 -464L367 -476L240 -413V-588H383C393 -588 398 -590 398 -594C398 -596 396 -600 391 -605Z"/>
</svg>