<svg xmlns="http://www.w3.org/2000/svg" viewBox="0 -1000 1000 1000">
	<path fill="#000000" d="M807 -324L777 -279H505L442 -330C444 -299 445 -251 445 -227V-79C445 -71 442 36 442 57C442 73 444 79 450 79C454 79 460 76 468 73C490 64 492 61 492 49V-13H796V48C796 57 797 62 802 62C806 62 812 60 822 55C843 45 847 42 847 28V21C844 -24 843 -53 843 -87V-243L869 -259C875 -263 877 -265 877 -268C877 -271 875 -274 869 -278ZM492 -35V-257H796V-35ZM571 -840C620 -798 633 -754 637 -725C637 -708 644 -703 655 -703C672 -703 694 -727 694 -751C694 -777 664 -813 578 -849ZM874 -744L831 -687H453C431 -687 406 -689 383 -691L410 -655C425 -661 454 -665 474 -665H925C933 -665 938 -666 938 -670C938 -673 934 -678 927 -686ZM480 -612C523 -563 540 -514 543 -468C544 -451 553 -439 565 -439C583 -439 598 -461 598 -487C598 -526 566 -567 488 -622ZM899 -478L857 -421H696L781 -552C793 -570 813 -584 826 -586C834 -587 838 -589 838 -592C838 -594 835 -597 829 -601L771 -640C754 -590 706 -480 675 -421H431C409 -421 384 -423 361 -425L388 -389C403 -395 432 -399 452 -399H949C958 -399 963 -401 963 -405C963 -408 960 -413 953 -420ZM346 -673L310 -618H246V-784C283 -804 283 -804 283 -808C283 -811 279 -814 270 -819L196 -860C198 -823 200 -755 200 -714V-618H105C82 -618 57 -620 32 -622L60 -585C77 -592 106 -596 127 -596H200V-402L29 -309L71 -266C73 -263 75 -262 77 -262C80 -262 83 -264 86 -270C95 -285 121 -310 200 -362V-50C200 -26 197 -14 169 -14C150 -14 118 -20 67 -32L64 -18C137 3 160 25 168 58C169 64 171 67 174 67C176 67 178 66 181 65C239 38 246 20 246 -11V-392L390 -486L382 -500L246 -426V-596H395C405 -596 410 -597 410 -601C410 -604 406 -609 399 -617Z"/>
</svg>