<svg xmlns="http://www.w3.org/2000/svg" viewBox="0 -1000 1000 1000">
	<path fill="#000000" d="M975 12C830 -32 756 -74 700 -187C839 -249 879 -261 904 -262C911 -262 915 -263 915 -266C915 -268 913 -271 909 -275L854 -331C800 -281 749 -244 691 -207C669 -257 650 -321 629 -401C651 -414 654 -416 654 -420C654 -423 651 -426 645 -428L575 -457C569 -90 536 -49 250 70L252 83C555 -2 603 -64 619 -370C671 -101 710 -50 873 55C880 59 887 60 890 53C899 36 915 27 976 28ZM460 -318C430 -230 407 -205 373 -186C351 -174 338 -156 338 -141C338 -122 352 -117 368 -117C382 -117 399 -122 416 -135C442 -156 458 -189 477 -317ZM666 -793C671 -796 674 -799 674 -802C674 -805 671 -807 665 -810L586 -843C590 -524 567 -486 309 -356L316 -339C507 -418 583 -472 615 -582C733 -512 780 -471 840 -392C849 -380 862 -374 872 -374C888 -374 894 -388 894 -400C894 -468 749 -540 680 -573C820 -644 840 -648 871 -650C880 -651 884 -653 884 -656C884 -658 882 -661 879 -664L826 -716C772 -665 733 -634 658 -584C646 -590 633 -596 620 -602C631 -649 636 -705 638 -777ZM472 -725C447 -621 425 -595 392 -572C376 -562 368 -545 368 -533C368 -517 384 -507 398 -507C410 -507 425 -513 440 -527C471 -555 488 -604 489 -725ZM191 -375L30 -306L75 -253C76 -251 78 -250 79 -250C82 -250 85 -252 89 -257C101 -270 125 -289 191 -326V-34C191 -15 187 -5 160 -5C141 -5 110 -10 60 -20L56 -7C139 21 148 34 153 62C154 68 156 71 159 71C161 71 163 70 166 69C230 41 237 29 237 -10V-353L381 -438L373 -454L237 -395V-579H359C367 -579 370 -581 370 -585C370 -588 368 -592 362 -597L309 -645L276 -601H237V-778L266 -790C269 -791 271 -794 271 -796C271 -799 269 -802 264 -805L190 -843C191 -776 191 -754 191 -702V-601H99C76 -601 51 -603 26 -605L54 -568C71 -575 100 -579 121 -579H191Z"/>
</svg>