<svg xmlns="http://www.w3.org/2000/svg" viewBox="0 -1000 1000 1000">
	<path fill="#000000" d="M389 -131L298 -105L328 -66C331 -62 334 -60 337 -60C339 -60 342 -62 345 -65C356 -77 371 -86 408 -98L558 -154V-85C558 -31 558 -4 557 53C557 69 557 76 564 76C570 76 607 65 607 47C607 44 606 42 606 38C681 -23 737 -81 778 -151C822 -68 890 10 896 10C898 10 901 8 904 5C911 -3 923 -8 946 -8C956 -8 968 -7 982 -5L986 -15C919 -43 849 -123 804 -200C855 -310 878 -450 891 -665L926 -683C929 -684 930 -686 930 -688C930 -690 929 -693 925 -696L867 -747L839 -708H694C673 -708 649 -710 625 -712L652 -676C662 -680 677 -683 691 -684C687 -455 707 -310 758 -193C719 -113 671 -46 605 16C602 -20 601 -43 601 -93V-171L674 -198L671 -213L601 -193V-753H690C697 -753 700 -755 700 -758C700 -761 698 -765 692 -771L645 -820L605 -775H383C361 -775 338 -777 314 -779L341 -742C353 -747 372 -751 389 -752ZM558 -375H431V-556H558ZM558 -353V-180L431 -143V-353ZM558 -578H431V-753H558ZM847 -686C841 -467 816 -339 781 -246C742 -334 715 -464 710 -686ZM200 -397L34 -322L80 -275C82 -273 84 -272 86 -272C88 -272 90 -274 93 -279C105 -301 125 -320 200 -361V-37C200 -18 196 -8 169 -8C150 -8 120 -13 71 -23L66 -10C147 18 157 31 161 59C162 65 164 68 168 68C169 68 172 67 175 66C237 38 244 26 244 -13V-386L365 -454L357 -468L244 -417V-616H363C371 -616 374 -617 374 -620C374 -623 372 -628 366 -634L322 -684L283 -638H244V-785C271 -799 274 -800 274 -806C274 -810 271 -814 264 -817L197 -849C200 -810 200 -786 200 -702V-638H114C92 -638 69 -639 43 -642L71 -605C88 -612 115 -616 137 -616H200Z"/>
</svg>