<svg xmlns="http://www.w3.org/2000/svg" viewBox="0 -1000 1000 1000">
	<path fill="#000000" d="M628 -352L603 -316H455L403 -358C405 -334 406 -295 406 -276V-169C406 -162 403 -84 403 -68C403 -56 405 -51 411 -51C415 -51 420 -53 427 -55C448 -61 450 -64 450 -74V-120H615V-74C615 -65 616 -61 622 -61C626 -61 632 -63 642 -67C658 -73 663 -76 663 -88C663 -91 662 -94 662 -98C660 -126 659 -161 659 -188V-279L683 -295C688 -298 690 -301 690 -304C690 -306 688 -309 683 -312ZM450 -141V-295H615V-141ZM840 -747L802 -696H647C653 -725 658 -755 663 -792C689 -807 692 -808 692 -812C692 -815 690 -817 687 -818L617 -850C618 -786 613 -736 604 -696H465C442 -696 417 -698 392 -700L420 -664C437 -671 466 -675 487 -675H600C577 -588 536 -531 425 -467L434 -456C573 -518 618 -574 642 -675H887C897 -675 902 -677 902 -682C902 -685 899 -690 892 -697ZM650 -620C736 -571 759 -547 786 -499C791 -489 799 -484 806 -484C819 -484 832 -501 832 -520C832 -530 829 -540 822 -548C797 -577 751 -600 654 -632ZM361 -663L323 -611H252V-773C283 -792 285 -793 285 -797C285 -800 281 -803 273 -807L203 -843C205 -806 207 -738 207 -697V-611H108C85 -611 60 -613 35 -615L63 -579C80 -586 109 -590 130 -590H207V-413L32 -318L72 -273C74 -270 76 -269 78 -269C80 -269 83 -271 87 -277C102 -298 122 -317 207 -373V-21C207 -6 204 3 180 3C161 3 127 -3 70 -16L67 -2C146 22 167 39 174 70C175 76 177 79 180 79C182 79 184 78 187 77C246 56 252 44 252 -8V-403L388 -492L378 -506L252 -438V-590H408C419 -590 424 -591 424 -595C424 -599 420 -604 412 -612ZM886 -495L851 -444H415C392 -444 367 -446 342 -448L370 -412C387 -419 416 -423 437 -423H780V-17C780 2 776 13 750 13C728 13 692 6 630 -8L628 9C718 34 734 49 743 81C744 86 746 88 750 88C752 88 754 88 756 87C824 59 826 49 826 5V-423H936C946 -423 951 -425 951 -429C951 -433 948 -438 941 -444Z"/>
</svg>