<svg xmlns="http://www.w3.org/2000/svg" viewBox="0 -1000 1000 1000">
	<path fill="#000000" d="M423 -535C425 -504 426 -485 426 -455V-381C426 -371 424 -320 424 -316C424 -307 426 -302 433 -302C436 -302 442 -304 449 -308C469 -318 471 -322 471 -339H761V-309C761 -302 763 -298 769 -298C771 -298 809 -309 809 -329C809 -340 808 -387 808 -397V-457C831 -472 834 -474 834 -478C834 -481 831 -483 827 -486L769 -524L748 -489H480ZM471 -361V-467H761V-361ZM771 -249C793 -263 795 -264 795 -267C795 -269 793 -271 789 -273L723 -306C725 -286 726 -259 726 -220V-186H534C535 -204 536 -224 536 -245L561 -260C565 -263 567 -265 567 -266C567 -268 565 -270 562 -271L489 -304C489 -254 488 -216 487 -186H347C323 -186 298 -188 274 -190L302 -153C319 -160 348 -164 369 -164H485C472 -28 407 21 262 64L265 80C425 44 511 -9 531 -164H726V-43C726 15 726 41 724 67V71C724 78 725 81 730 81C735 81 741 79 751 74C771 64 775 61 775 47C775 40 771 -46 771 -64V-164H957C967 -164 972 -166 972 -171C972 -174 969 -179 963 -185L912 -237L872 -186H771ZM186 -373L32 -306L79 -259C81 -257 83 -256 85 -256C88 -256 90 -258 93 -263C105 -283 122 -298 186 -335V-20C186 -1 182 9 155 9C136 9 105 4 55 -6L51 7C133 35 143 48 148 76C149 82 151 85 154 85C156 85 158 84 161 83C225 55 232 43 232 4V-362L355 -430L347 -444L232 -393V-583H356C363 -583 367 -585 367 -588C367 -591 364 -596 359 -601L310 -649L273 -605H232V-773L259 -791C262 -793 264 -796 264 -798C264 -801 261 -804 257 -806L185 -844C186 -777 186 -749 186 -697V-605H115C92 -605 66 -607 42 -609L70 -572C87 -579 116 -583 137 -583H186ZM973 -604C851 -609 748 -675 640 -786C645 -790 677 -798 677 -800C677 -802 674 -804 669 -807L605 -846C531 -712 434 -612 326 -523L332 -512C444 -584 526 -654 626 -770C725 -630 869 -550 878 -550C881 -550 884 -551 886 -554C908 -583 931 -591 973 -591ZM733 -626L700 -582H520C497 -582 472 -584 447 -586L475 -551C492 -558 521 -562 542 -562H780C789 -562 793 -564 793 -568C793 -570 791 -574 785 -579Z"/>
</svg>