<svg xmlns="http://www.w3.org/2000/svg" viewBox="0 -1000 1000 1000">
	<path fill="#000000" d="M798 -121V-19H509V-121ZM798 -237V-144H509V-237ZM798 5V69C798 77 799 81 803 81C807 81 813 79 823 74C842 65 847 61 847 49C847 46 846 43 846 39C844 11 843 -15 843 -64V-225L869 -242C873 -244 874 -246 874 -248C874 -250 873 -252 869 -254L806 -295L782 -260H512L461 -303C463 -283 464 -253 464 -237V-68C464 -18 463 24 461 64V71C461 82 462 86 469 86C473 86 479 84 489 80C507 72 509 70 509 58V5ZM201 -403L28 -325L75 -278C77 -276 79 -275 81 -275C84 -275 86 -277 89 -282C102 -304 122 -320 201 -365V-29C201 -10 198 0 170 0C151 0 120 -5 70 -15L66 -2C151 27 158 39 163 67C164 73 166 76 169 76C171 76 173 75 176 74C240 46 247 34 247 -5V-392L377 -465L369 -479L247 -424V-594H377C385 -594 389 -595 389 -599C389 -602 386 -606 380 -612L329 -664L294 -616H247V-775L276 -793C280 -795 281 -798 281 -800C281 -803 279 -805 274 -808L200 -846C201 -781 201 -751 201 -699V-616H111C88 -616 62 -617 38 -620L66 -583C83 -590 112 -594 133 -594H201ZM814 -520C738 -485 664 -455 558 -424V-479C596 -504 635 -530 672 -558H932C940 -558 944 -559 944 -563C944 -565 941 -569 936 -575L888 -627L846 -578H699C750 -616 800 -657 848 -699C867 -715 880 -722 899 -724C906 -725 909 -727 909 -730C909 -733 907 -736 902 -740L855 -777C802 -715 728 -648 639 -578H625V-696H757C765 -696 769 -698 769 -701C769 -704 767 -708 762 -713L719 -757L682 -716H625V-792C648 -808 651 -810 651 -814C651 -817 647 -820 640 -824L578 -855C580 -823 581 -794 581 -753V-716H489C466 -716 443 -717 416 -720L444 -685C461 -692 490 -696 511 -696H581V-578H443C420 -578 396 -579 370 -582L398 -547C415 -554 438 -558 465 -558H613C589 -540 565 -522 538 -504L512 -522C513 -512 514 -499 514 -487C451 -443 382 -400 309 -357L315 -342C382 -374 448 -410 514 -451V-392C514 -323 526 -318 697 -318C873 -318 913 -329 933 -379C934 -381 934 -382 934 -383C934 -387 932 -389 928 -391C906 -403 898 -426 900 -496H886C878 -371 871 -363 820 -360C777 -357 730 -355 685 -355C564 -355 559 -360 558 -409C609 -417 670 -431 784 -459C806 -465 819 -467 828 -467C831 -467 846 -463 849 -463C851 -463 853 -464 853 -466C853 -468 851 -471 847 -476Z"/>
</svg>