<svg xmlns="http://www.w3.org/2000/svg" viewBox="0 -1000 1000 1000">
	<path fill="#000000" d="M198 -364L35 -266L84 -226C88 -223 91 -221 93 -221C96 -221 97 -223 98 -227C104 -247 123 -265 198 -320V-46C198 -22 194 -10 161 -10C139 -10 104 -15 49 -26L46 -12C134 16 149 35 154 67C155 73 157 76 161 76C163 76 165 75 168 74C232 40 243 18 243 -54V-355L361 -446L354 -458L243 -391V-583H349C358 -583 362 -586 362 -590C362 -594 360 -598 355 -602L302 -653L267 -605H243V-770L269 -788C274 -792 276 -795 276 -799C276 -803 272 -808 265 -811L194 -848C196 -811 198 -743 198 -702V-605H111C88 -605 64 -607 38 -609L66 -572C83 -579 112 -583 133 -583H198ZM504 -847C483 -788 412 -647 335 -538L347 -529C395 -583 428 -623 477 -702H868C868 -628 861 -539 856 -496C851 -454 848 -440 805 -440C785 -440 756 -443 714 -448L710 -434C779 -419 796 -411 803 -387C805 -380 807 -377 811 -377C813 -377 817 -378 821 -380C878 -403 887 -420 895 -485C901 -531 909 -628 910 -684L937 -698C942 -701 945 -703 945 -706C945 -709 942 -712 937 -716L882 -762L857 -723H490C528 -783 546 -800 560 -803C567 -805 570 -806 570 -808C570 -810 567 -813 560 -816ZM727 -475C727 -467 727 -463 731 -463C734 -463 770 -474 770 -488C770 -503 768 -526 768 -541V-590C795 -606 798 -608 798 -611C798 -614 794 -617 787 -620L724 -647C726 -615 727 -598 727 -571V-513H612C622 -550 627 -591 628 -638C653 -652 656 -654 656 -657C656 -659 652 -661 646 -664L581 -690C582 -663 583 -641 583 -620C583 -570 579 -537 570 -513H476V-579L501 -595C505 -598 507 -600 507 -602C507 -605 504 -607 497 -610L436 -639C437 -610 437 -594 437 -571V-532L400 -509L449 -473C454 -470 457 -468 459 -468C462 -468 475 -482 483 -491H560C534 -448 464 -405 338 -353L348 -338C425 -363 483 -387 523 -410C492 -354 401 -250 317 -178L327 -168C361 -189 397 -216 431 -244V-152L395 -133L442 -93C444 -92 445 -91 447 -91C449 -91 452 -92 455 -96L475 -119H571C557 -43 487 4 297 56L300 75C519 27 592 -14 613 -119H740V-68C740 -60 741 -56 746 -56C748 -56 786 -66 786 -80C786 -89 785 -126 785 -134V-215C810 -230 813 -232 813 -236C813 -239 809 -241 803 -244L737 -274C739 -243 740 -224 740 -197V-141H617C622 -175 625 -219 625 -259C629 -262 650 -275 650 -278C650 -280 647 -281 641 -284L578 -311C580 -247 578 -187 573 -141H472V-226L494 -236C500 -239 503 -241 503 -243C503 -246 500 -248 493 -251L457 -268C478 -288 498 -308 513 -326H871C871 -250 861 -117 852 -64C844 -17 835 0 780 0C756 0 722 -3 674 -9L671 6C760 27 779 37 788 63C791 73 794 76 799 76C802 76 805 75 810 73C870 43 887 17 895 -53C902 -111 912 -244 914 -310L946 -325C951 -328 954 -330 954 -332C954 -335 952 -337 947 -341L890 -386L858 -347H530C550 -374 559 -380 571 -383C580 -385 584 -387 584 -390C584 -392 581 -395 575 -399L539 -420C574 -443 595 -466 605 -491H727Z"/>
</svg>