<svg xmlns="http://www.w3.org/2000/svg" viewBox="0 -1000 1000 1000">
	<path fill="#000000" d="M620 -662H429C428 -675 427 -689 425 -704H412C403 -645 391 -616 366 -587C353 -572 348 -563 348 -557C348 -551 356 -538 376 -538C412 -538 429 -586 429 -641H620V-543C620 -527 618 -455 618 -441C618 -432 620 -427 626 -427C630 -427 635 -429 643 -432C660 -440 663 -443 663 -455V-462C662 -478 662 -506 662 -551V-641H887L843 -570L854 -564C912 -623 929 -633 966 -638C971 -639 974 -640 974 -642C974 -645 972 -647 968 -650L907 -697L880 -662H662V-761H875C883 -761 887 -762 887 -765C887 -768 884 -772 879 -777L830 -827L793 -782H465C447 -782 429 -783 410 -786L431 -751C443 -757 466 -761 481 -761H620ZM857 -554H711V-534H857ZM575 -467H439V-447H575ZM584 -554H441V-534H584ZM186 -392L29 -309L71 -260C73 -257 75 -256 77 -256C79 -256 82 -258 85 -264C96 -283 126 -309 186 -350V-22C186 -5 181 5 151 5C132 5 103 1 57 -8L54 6C133 32 145 40 152 71C153 77 155 80 158 80C160 80 162 79 165 78C227 48 231 36 231 -26V-380L362 -468L354 -481L231 -416V-609H342C350 -609 355 -611 355 -615C355 -619 352 -623 346 -629L297 -677L264 -631H231V-784C259 -801 262 -803 262 -807C262 -810 259 -814 253 -817L182 -853C184 -819 186 -756 186 -707V-631H107C78 -631 60 -632 34 -635L62 -598C79 -605 104 -609 129 -609H186ZM956 -245C962 -245 965 -246 965 -249C965 -251 963 -254 960 -258L906 -316L871 -266H391C369 -266 344 -268 320 -270L347 -234C364 -241 392 -245 412 -245H526L500 -174L464 -153L510 -114C513 -111 515 -110 518 -110C522 -110 524 -113 544 -137H782C761 13 736 16 706 16C679 16 638 7 570 -13L566 2C662 34 673 44 679 80C680 86 681 88 685 88C687 88 689 88 691 87C786 52 794 39 823 -113L853 -129C857 -131 860 -133 860 -136C860 -138 858 -141 855 -144L801 -191L775 -157H537L570 -245ZM829 -414L795 -368H458C435 -368 412 -369 387 -372L414 -336C431 -343 459 -347 479 -347H876C883 -347 886 -348 886 -351C886 -353 884 -357 879 -362ZM857 -471H715V-451H857Z"/>
</svg>