<svg xmlns="http://www.w3.org/2000/svg" viewBox="0 -1000 1000 1000">
	<path fill="#000000" d="M525 -684H415L363 -726C365 -697 366 -662 366 -628V-553C366 -543 364 -493 364 -489C364 -482 366 -479 371 -479C375 -479 380 -481 388 -484C409 -493 409 -496 409 -524H851C851 -492 851 -488 859 -488C866 -488 899 -498 899 -515C899 -525 896 -569 896 -578V-653C921 -668 924 -670 924 -674C924 -676 922 -679 917 -682L862 -724L837 -684H734V-768H946C956 -768 962 -770 962 -774C962 -778 958 -783 950 -790L894 -839L859 -790H385C357 -790 336 -791 312 -794L340 -757C357 -764 380 -768 407 -768H525ZM568 -547V-662H691V-547ZM525 -547H409V-662H525ZM851 -662V-547H734V-662ZM691 -684H568V-768H691ZM602 -229V-122H376C353 -122 328 -124 303 -126L331 -88C348 -95 377 -99 398 -99H602C602 -45 601 11 599 67V73C599 84 601 89 608 89C613 89 620 87 629 83C650 74 653 70 653 57V49C650 6 649 -28 649 -99H952C963 -99 968 -100 968 -104C968 -108 964 -113 956 -121L902 -172L874 -122H649V-229H800V-199C800 -190 801 -185 806 -185C810 -185 816 -187 825 -192C844 -201 847 -205 847 -218C847 -232 845 -293 845 -306V-415C850 -420 868 -438 868 -442C868 -445 866 -447 861 -450L811 -478L787 -447H456L409 -482C410 -455 411 -431 411 -402V-306C411 -290 409 -221 409 -206C409 -198 410 -195 416 -195C419 -195 424 -196 431 -199C449 -207 454 -212 455 -229ZM800 -425V-351H455V-425ZM800 -328V-251H455V-328ZM178 -383L33 -308L71 -259C73 -257 75 -256 77 -256C81 -256 85 -258 87 -263C94 -276 120 -299 178 -339V-39C178 -26 174 -18 150 -18C133 -18 105 -22 59 -31L58 -17C139 7 145 16 153 48C154 54 156 56 159 56C161 56 163 55 166 54C214 29 221 16 221 -20V-369L334 -448L324 -460L221 -406V-581H331C339 -581 344 -583 344 -586C344 -589 341 -593 335 -599L289 -646L262 -602H221V-781L251 -796C258 -799 261 -803 261 -806C261 -810 258 -813 253 -815L174 -848C176 -812 178 -743 178 -702V-602H102C79 -602 58 -603 33 -606L61 -570C78 -577 100 -581 125 -581H178Z"/>
</svg>