<svg xmlns="http://www.w3.org/2000/svg" viewBox="0 -1000 1000 1000">
	<path fill="#000000" d="M264 -732L237 -688H138L87 -736C89 -705 90 -657 90 -633V-311C90 -254 89 -208 87 -149V-139C87 -123 89 -117 95 -117C99 -117 105 -119 113 -123C131 -131 134 -136 134 -148V-265H252V-195C252 -187 253 -182 259 -182C263 -182 269 -184 278 -188C297 -197 301 -201 301 -215V-222C298 -267 297 -300 297 -348V-650L323 -667C328 -671 331 -674 331 -677C331 -680 328 -683 324 -686ZM134 -287V-666H252V-287ZM549 -836C583 -799 598 -764 609 -722C611 -714 615 -712 624 -712C639 -712 653 -733 653 -756C653 -790 623 -812 554 -844ZM839 -767L798 -709H428C407 -709 384 -711 362 -713L387 -677C402 -683 429 -687 448 -687H904C912 -687 915 -688 915 -692C915 -694 913 -698 907 -703ZM476 -653C507 -622 520 -593 533 -537C536 -524 540 -521 549 -521C561 -521 576 -541 576 -570C576 -587 571 -613 484 -662ZM885 -551L855 -508H672C754 -614 757 -617 782 -623C786 -624 788 -626 788 -629C788 -631 786 -634 782 -636L718 -670C698 -611 678 -563 651 -508H422C422 -519 421 -532 420 -545H406C397 -482 383 -455 338 -415C330 -408 327 -401 327 -392C327 -380 339 -372 354 -372C389 -372 420 -408 422 -486H863L818 -396L828 -390C888 -460 910 -474 948 -481C952 -482 954 -484 954 -486C954 -488 952 -491 949 -494ZM806 -363L781 -322H643V-406C648 -408 674 -423 674 -425C674 -428 672 -430 667 -432L592 -464C594 -428 596 -377 596 -322H462L406 -366C408 -334 410 -286 410 -255V-137C410 -96 409 -66 407 -23V-14C407 -3 408 2 415 2C419 2 425 0 434 -3C455 -10 458 -13 458 -23V-29C456 -63 455 -101 455 -136V-300H596V-133C596 -76 595 -10 593 49V58C593 75 595 81 602 81C607 81 614 79 623 75C641 67 645 63 645 54V50C643 3 643 -42 643 -130V-300H801V-88C801 -74 799 -67 773 -67C754 -67 723 -71 670 -79L667 -66C741 -45 757 -28 763 6C764 11 765 13 768 13C770 13 772 12 775 11C836 -18 848 -31 848 -69V-293L871 -308C876 -311 878 -314 878 -316C878 -319 875 -322 870 -325Z"/>
</svg>