<svg xmlns="http://www.w3.org/2000/svg" viewBox="0 -1000 1000 1000">
	<path fill="#000000" d="M573 -288H385V-403H573ZM385 -530H573V-425H385ZM463 -552H395L344 -598C346 -569 346 -524 346 -501V-370C346 -348 344 -250 344 -230C344 -220 345 -216 350 -216C355 -216 385 -226 385 -247V-266H458V-142H335C316 -142 299 -142 273 -146L297 -109C312 -116 336 -120 354 -120H458C458 -56 457 9 455 62V68C455 79 457 83 462 83C466 83 472 81 480 77C497 69 502 65 502 49V45C500 4 499 -49 499 -120H670C678 -120 682 -121 682 -124C682 -128 679 -132 672 -140L628 -191L594 -142H499V-266H573C573 -231 573 -231 579 -231C582 -231 588 -234 597 -238C612 -246 615 -250 615 -264C615 -286 611 -382 611 -401V-491L636 -463C663 -481 683 -484 720 -491C730 -323 739 -232 759 -163C702 -72 626 1 526 60L530 74C639 26 715 -39 774 -120C804 -35 829 2 886 48C918 74 948 86 961 86C969 86 969 79 969 77C969 72 966 64 958 48C950 34 946 9 946 -40C946 -68 948 -105 951 -152L937 -154L913 -26C910 -9 906 -3 901 -3C873 -3 831 -74 800 -160C839 -222 876 -304 899 -371C906 -392 914 -400 930 -405C936 -407 939 -409 939 -412C939 -414 936 -417 932 -419L875 -452C853 -366 822 -280 786 -211C774 -272 765 -360 760 -499L965 -537C969 -538 971 -539 971 -541C971 -543 969 -546 965 -549L906 -601L880 -543L759 -521C757 -601 754 -684 754 -765L779 -785C783 -788 785 -790 785 -792C785 -795 783 -797 779 -799L712 -840C712 -667 714 -602 719 -514L671 -505C641 -499 631 -498 611 -496V-515C635 -534 637 -536 637 -540C637 -543 635 -546 629 -550L580 -587L559 -552H503V-659H654C662 -659 666 -660 666 -664C666 -667 664 -671 659 -677L618 -729L584 -681H503V-775C526 -794 528 -796 528 -800C528 -803 526 -806 520 -809L461 -846C463 -810 463 -787 463 -738V-681H368C348 -681 328 -682 304 -685L329 -648C343 -655 370 -659 388 -659H463ZM170 -391L36 -321L74 -270C75 -268 76 -267 78 -267C80 -267 82 -269 84 -274C91 -287 117 -309 170 -347V-16C170 -3 167 4 142 4C125 4 97 1 53 -6L50 6C128 29 137 39 145 71C146 77 148 79 151 79C153 79 155 78 158 77C206 52 213 39 213 3V-378L328 -459L321 -471L213 -414V-589H315C323 -589 328 -591 328 -594C328 -597 325 -601 319 -607L275 -650L246 -607H213V-774C234 -793 236 -796 236 -799C236 -802 233 -805 227 -808L166 -839C168 -804 170 -734 170 -693V-607H100C77 -607 57 -608 31 -611L59 -578C76 -585 98 -589 123 -589H170ZM794 -752C829 -717 854 -670 857 -648C861 -619 867 -609 876 -609C889 -609 902 -631 902 -657C902 -664 901 -672 898 -680C890 -702 842 -740 802 -760Z"/>
</svg>