<svg xmlns="http://www.w3.org/2000/svg" viewBox="0 -1000 1000 1000">
	<path fill="#000000" d="M881 -499V-41C881 -24 877 -14 848 -14C827 -14 793 -19 738 -30L735 -16C827 9 842 27 848 65C849 70 850 73 854 73C855 73 857 72 860 71C913 47 927 22 927 -1V-728L956 -743C960 -745 963 -747 963 -750C963 -752 960 -755 955 -759L898 -804L871 -766H746L686 -819C688 -792 689 -758 689 -716V-575C689 -525 688 -494 685 -466V-461C685 -454 687 -450 693 -450C698 -450 705 -453 716 -458C734 -467 734 -470 734 -499ZM881 -623V-521H734V-623ZM881 -745V-644H734V-745ZM544 -747V-644H407V-747ZM544 -498V-465C544 -456 546 -451 551 -451C552 -451 591 -465 591 -483V-486C589 -509 587 -551 587 -599V-730L615 -743C619 -745 622 -747 622 -750C622 -753 619 -756 614 -760L561 -805L534 -768H417L361 -824C363 -788 365 -719 365 -678V-166C365 -109 364 -19 362 40V46C362 65 365 71 371 71C375 71 380 69 386 66C407 55 411 50 411 37V32C408 -12 407 -88 407 -164V-498ZM544 -623V-519H407V-623ZM180 -369L37 -296L75 -245C76 -243 77 -242 79 -242C81 -242 83 -244 85 -249C92 -262 119 -285 180 -327V-26C180 -13 177 -6 154 -6C137 -6 109 -10 63 -16L60 -4C141 20 147 29 155 61C156 67 158 69 161 69C163 69 165 68 168 67C216 42 223 29 223 -7V-356L337 -434L330 -446L223 -391V-596H336C344 -596 349 -598 349 -601C349 -604 346 -608 340 -614L296 -657L267 -614H223V-779C244 -798 246 -801 246 -804C246 -807 243 -810 237 -813L176 -844C179 -804 180 -756 180 -698V-614H104C81 -614 60 -616 35 -618L63 -585C80 -592 102 -596 127 -596H180ZM619 -257H564C542 -257 518 -258 494 -261L521 -229C537 -235 564 -239 584 -239H619V-109H526C504 -109 482 -111 456 -113L483 -80C499 -87 521 -90 546 -90H823C830 -90 834 -91 834 -95C834 -98 831 -103 825 -110L786 -155L743 -109H661V-239H781C789 -239 793 -241 793 -245C793 -248 790 -253 784 -259L745 -299L710 -257H661V-368H801C809 -368 813 -370 813 -373C813 -377 810 -381 804 -388L764 -431L726 -388H545C514 -388 484 -389 460 -392L502 -358C518 -364 545 -368 565 -368H619Z"/>
</svg>