<svg xmlns="http://www.w3.org/2000/svg" viewBox="0 -1000 1000 1000">
	<path fill="#000000" d="M571 -364L548 -333H421L385 -361C391 -405 394 -453 395 -506H557L558 -467C558 -459 559 -455 564 -455C568 -455 574 -457 583 -461C602 -469 607 -473 607 -485C607 -493 601 -571 601 -587V-726L627 -741C632 -743 634 -746 634 -748C634 -751 632 -754 627 -757L571 -796L546 -764H407L354 -811C355 -783 357 -689 357 -623C356 -300 335 -193 223 -28L231 -20C305 -95 351 -176 375 -292L376 -147C376 -101 375 -33 373 14V21C373 35 375 41 381 41C385 41 391 38 400 34C414 27 416 25 416 15V-51H556V16C556 25 558 29 563 29C567 29 572 27 580 24C600 16 604 14 604 1V-5C601 -41 599 -91 599 -152V-298L627 -313C631 -315 632 -317 632 -319C632 -321 631 -323 627 -325ZM395 -527C397 -576 399 -669 401 -744H557V-527ZM416 -72V-313H556V-72ZM717 -846C754 -800 767 -775 771 -739C775 -709 780 -704 791 -704C809 -704 828 -725 828 -747C828 -771 812 -808 723 -853ZM915 -741L873 -692H691C669 -692 645 -694 621 -696L647 -661C664 -668 692 -672 713 -672H952C961 -672 965 -674 965 -677C965 -680 963 -684 958 -690ZM667 -624C695 -577 707 -536 707 -500C707 -496 706 -480 706 -477C706 -461 712 -456 721 -456C740 -456 761 -473 761 -499C761 -518 749 -557 673 -629ZM325 -495L214 -433V-607H319C328 -607 332 -608 332 -612C332 -615 329 -619 323 -626L284 -672L252 -627H214V-790L239 -800C246 -803 250 -806 250 -808C250 -811 246 -814 239 -818L168 -855C170 -818 172 -749 172 -709V-627H105C83 -627 59 -629 35 -631L61 -596C78 -603 106 -607 127 -607H172V-408L30 -325L66 -277C68 -274 70 -272 71 -272C74 -272 76 -275 78 -280C86 -299 96 -309 172 -366V-56C172 -23 167 -9 135 -9C116 -9 89 -13 49 -21L46 -9C124 17 134 26 142 63C143 69 145 72 147 72C149 72 151 71 153 69C211 31 213 17 213 -64V-399L330 -485ZM910 -466L869 -420H812C882 -591 886 -598 900 -604C908 -607 912 -611 912 -614C912 -616 909 -618 905 -620L850 -643C831 -557 815 -501 790 -420H653C631 -420 607 -422 583 -424L609 -389C626 -396 654 -400 675 -400H757V-237H687C665 -237 641 -239 617 -241L643 -206C660 -213 688 -217 709 -217H757V-154C757 -97 756 -10 754 49V58C754 74 756 80 762 80C767 80 773 78 781 74C801 65 805 62 805 48V41C802 -4 800 -76 800 -152V-217H938C945 -217 948 -218 948 -221C948 -223 946 -227 940 -233L894 -287L855 -237H800V-400H955C960 -400 962 -401 962 -403C962 -406 960 -410 955 -415Z"/>
</svg>