<svg xmlns="http://www.w3.org/2000/svg" viewBox="0 -1000 1000 1000">
	<path fill="#000000" d="M863 -516L836 -481H824V-743L852 -758C857 -760 859 -762 859 -765C859 -767 857 -770 851 -775L798 -817L771 -780H564L508 -825C509 -803 511 -752 511 -727V-481H486L433 -532C435 -499 437 -453 437 -416V-233C437 -201 436 -157 433 -102V-87C433 -72 435 -66 441 -66C445 -66 451 -68 458 -72C480 -83 481 -86 481 -101V-459H842V-147C842 -124 840 -114 811 -114C793 -114 764 -118 718 -124L715 -109C800 -88 814 -77 819 -48C820 -43 820 -41 823 -41C824 -41 826 -42 829 -43C883 -72 886 -79 886 -129V-443L914 -457C920 -460 922 -462 922 -464C922 -467 920 -470 914 -474ZM690 -481V-612L713 -627C718 -630 720 -632 720 -635C720 -637 718 -640 713 -644L666 -684L641 -652H556V-758H779V-481ZM556 -481V-631H647V-481ZM731 -405L705 -372H613L560 -417C561 -397 561 -366 561 -351V-258C561 -244 560 -182 560 -169C560 -158 561 -153 567 -153C570 -153 575 -155 582 -158C603 -167 604 -170 604 -178V-205H713V-171C713 -166 714 -163 718 -163C719 -163 759 -173 759 -187C759 -198 756 -248 756 -258V-339L781 -352C786 -354 788 -356 788 -359C788 -361 786 -364 780 -368ZM604 -226V-351H713V-226ZM297 -784C347 -726 360 -693 360 -656C360 -630 366 -623 383 -623C398 -623 414 -643 414 -669C414 -710 375 -744 306 -791ZM278 -673L237 -623H194V-790C222 -803 225 -805 225 -808C225 -811 221 -814 213 -819L145 -856C147 -819 149 -751 149 -710V-623H94C71 -623 46 -625 21 -627L49 -591C66 -598 95 -602 116 -602H149V-420L14 -339L53 -282C57 -276 59 -274 60 -274C61 -274 62 -278 64 -283C79 -310 91 -327 149 -372V-43C149 -24 146 -16 123 -16C105 -16 76 -21 28 -29L25 -12C97 3 118 19 121 56C122 62 123 64 125 64C127 64 129 64 132 62C191 30 194 24 194 -25V-407L319 -506L311 -518L194 -447V-602H316C326 -602 331 -603 331 -607C331 -610 327 -615 320 -624ZM965 -23C870 -9 736 -3 627 -3C535 -3 461 -7 446 -15C407 -35 357 -86 357 -106V-373L384 -385C389 -388 392 -390 392 -392C392 -394 389 -397 384 -401L333 -441L306 -407H265C247 -407 227 -409 207 -411L227 -375C241 -382 264 -386 281 -386H313V-87L211 -17L244 27C246 30 248 32 250 32C252 32 255 29 258 23C270 3 314 -72 338 -72C347 -72 355 -66 364 -53C414 17 441 31 506 33C589 36 705 40 874 43C886 43 891 40 895 32C904 14 920 1 965 -9Z"/>
</svg>