<svg xmlns="http://www.w3.org/2000/svg" viewBox="0 -1000 1000 1000">
	<path fill="#000000" d="M662 -403H477V-473H662ZM495 -677C455 -591 403 -506 324 -399L336 -391C377 -433 408 -469 437 -508V-396C437 -329 437 -303 434 -262C434 -258 433 -254 433 -252C433 -244 435 -241 439 -241C443 -241 449 -243 457 -247C475 -254 477 -258 477 -284H947C956 -284 961 -286 961 -289C961 -293 958 -297 951 -304L906 -349L873 -304H705V-383H901C910 -383 915 -385 915 -389C915 -392 911 -397 905 -403L864 -444L831 -403H705V-473H899C910 -473 915 -474 915 -478C915 -481 911 -486 903 -493L861 -533L832 -493H705V-562H916C927 -562 932 -563 932 -567C932 -570 928 -576 920 -583L879 -626L848 -583H489C493 -588 496 -594 500 -600C517 -627 527 -635 536 -638C543 -640 547 -642 547 -645C547 -647 544 -650 539 -653ZM477 -304V-383H662V-304ZM662 -493H477V-562H662ZM975 -16C845 -20 752 -34 678 -64C723 -94 766 -131 811 -177C819 -186 835 -194 845 -194C853 -194 857 -196 857 -199C857 -202 854 -205 848 -208L797 -243L775 -220H440C417 -220 392 -222 367 -224L395 -189C422 -200 455 -200 489 -200C528 -137 559 -95 603 -63C520 -13 423 21 275 64L278 78C428 51 539 20 640 -40C722 6 881 46 883 46C888 46 892 43 895 39C908 18 926 2 975 -3ZM768 -200C724 -152 683 -115 637 -84C587 -112 547 -150 510 -200ZM205 -409L24 -297L73 -257C77 -254 80 -252 82 -252C85 -252 86 -254 87 -258C94 -279 112 -297 205 -368V-52C205 -27 202 -15 169 -15C147 -15 112 -21 56 -32L53 -18C138 8 156 28 161 61C162 67 164 70 168 70C170 70 172 69 175 68C239 34 252 14 252 -50V-405L364 -491L357 -503L252 -438V-583H393C402 -583 406 -586 406 -590C406 -594 404 -598 399 -602L346 -653L311 -605H252V-776L278 -794C283 -798 285 -801 285 -805C285 -809 281 -814 274 -817L201 -854C203 -817 205 -749 205 -708V-605H110C87 -605 63 -606 37 -609L65 -572C82 -579 111 -583 132 -583H205ZM612 -686C640 -658 660 -628 667 -609C673 -593 678 -588 687 -588C705 -588 716 -605 716 -621C716 -654 658 -680 617 -695ZM711 -717C711 -709 710 -674 710 -667C710 -659 711 -655 716 -655C720 -655 725 -657 732 -660C750 -668 754 -671 754 -680C754 -686 753 -712 753 -717H938C949 -717 954 -718 954 -722C954 -725 950 -730 942 -737L888 -784L855 -737H753V-791L775 -805C779 -807 780 -809 780 -812C780 -814 778 -817 772 -819L709 -843C711 -816 711 -795 711 -773V-737H558V-791L579 -806C582 -808 584 -811 584 -813C584 -815 581 -818 576 -820L514 -843C516 -816 516 -794 516 -772V-737H427C404 -737 378 -738 354 -741L382 -706C399 -713 428 -717 449 -717H516C516 -711 515 -685 515 -680C515 -673 517 -670 523 -670C533 -670 559 -676 559 -692C559 -696 558 -713 558 -717Z"/>
</svg>