<svg xmlns="http://www.w3.org/2000/svg" viewBox="0 -1000 1000 1000">
	<path fill="#000000" d="M894 -55L855 -5H690V-112H878C887 -112 891 -113 891 -117C891 -120 888 -124 881 -130L839 -172L803 -130H690V-226H879C887 -226 891 -228 891 -231C891 -234 888 -238 882 -244L841 -282L811 -244H690V-338H912C921 -338 926 -339 926 -343C926 -346 922 -350 915 -356L869 -400L833 -356H458V-360C464 -367 470 -375 477 -383C497 -408 505 -415 518 -419C525 -421 528 -423 528 -426C528 -428 526 -430 521 -432L473 -457C427 -367 371 -288 289 -176L297 -170C336 -214 373 -254 417 -308V-74C417 -12 417 18 414 64C414 68 413 71 413 74C413 81 415 85 419 85C423 85 428 82 437 78C454 69 458 64 458 48V13H946C953 13 957 12 957 9C957 6 954 2 948 -4ZM458 -130V-226H646V-130ZM458 -244V-338H646V-244ZM458 -5V-112H646V-5ZM900 -716L875 -688H658V-763H875C883 -763 887 -764 887 -768C887 -771 884 -775 878 -781L827 -831L790 -781H483C463 -781 441 -783 420 -785L443 -753C458 -759 484 -763 503 -763H615V-688H411C411 -700 410 -712 409 -725L398 -726C393 -665 378 -623 356 -604C335 -587 330 -578 330 -571C330 -563 340 -554 353 -554C395 -554 411 -602 411 -670H615V-610C615 -593 614 -520 614 -505C614 -491 616 -486 623 -486C627 -486 632 -487 640 -490C657 -496 660 -500 660 -513C660 -528 658 -594 658 -608V-670H883L854 -589L862 -585C896 -638 925 -654 958 -660C963 -661 966 -662 966 -664C966 -666 963 -669 959 -672ZM847 -594H715V-576H847ZM580 -593H434V-575H580ZM854 -509H714V-491H854ZM581 -507H434V-489H581ZM604 -458C629 -441 650 -411 656 -384C660 -367 664 -361 681 -361C690 -361 703 -374 703 -391C703 -421 662 -447 610 -468ZM359 -497L248 -440V-605H326C334 -605 338 -607 338 -610C338 -613 334 -617 329 -623L300 -656L271 -623H248V-781C272 -796 275 -798 275 -802C275 -805 272 -808 266 -811L202 -845C204 -808 205 -741 205 -701V-623H120C98 -623 74 -625 50 -627L76 -594C93 -601 121 -605 142 -605H205V-416L45 -331L82 -287C84 -284 86 -283 87 -283C89 -283 91 -286 94 -291C103 -308 121 -321 180 -362L205 -378V-43C205 -17 204 -4 172 -4C151 -4 119 -9 66 -18L63 -6C154 22 170 38 175 71C176 77 178 79 180 79C182 79 184 78 187 77C245 44 248 34 248 -24V-409L364 -488Z"/>
</svg>