<svg xmlns="http://www.w3.org/2000/svg" viewBox="0 -1000 1000 1000">
	<path fill="#000000" d="M292 -384V-492H704V-384ZM714 -554L689 -512H303L245 -556C247 -539 248 -519 248 -495V-407C248 -396 246 -343 246 -338C246 -327 248 -322 255 -322C260 -322 267 -324 276 -328C292 -335 292 -337 292 -364H704V-334C704 -326 705 -322 711 -322C718 -322 754 -332 754 -350C754 -352 754 -355 753 -358C751 -371 749 -399 749 -419V-475L779 -492C785 -495 787 -498 787 -501C787 -504 784 -507 778 -511ZM335 -343C364 -319 381 -295 387 -270C392 -248 394 -244 405 -244C420 -244 433 -265 433 -284C433 -314 395 -335 341 -349ZM737 -182L707 -142H284L224 -189C226 -172 227 -152 227 -128V-13C227 1 225 72 225 76C225 87 227 93 235 93C239 93 246 91 255 87C270 81 273 76 273 64V35H720V76C720 84 721 88 728 88C735 88 772 78 772 60C772 58 772 55 771 52C769 39 767 11 767 -9V-99L800 -118C805 -121 807 -124 807 -127C807 -130 805 -133 799 -137ZM273 15V-122H720V15ZM887 -788L847 -731H527V-793C558 -814 558 -814 558 -818C558 -821 555 -823 549 -826L478 -856C481 -804 481 -788 481 -731H130C107 -731 81 -733 57 -735L85 -701C101 -707 131 -711 152 -711H481V-615H211C189 -615 164 -617 141 -619L168 -585C183 -591 212 -595 232 -595H847C856 -595 860 -598 860 -602C860 -606 858 -610 852 -615L798 -661L759 -615H527V-711H941C950 -711 954 -713 954 -718C954 -721 952 -725 946 -731ZM900 -291L859 -242H599C644 -294 659 -306 677 -310C683 -311 686 -313 686 -316C686 -318 684 -321 681 -323L627 -360C612 -319 597 -287 574 -242H98C76 -242 51 -244 28 -246L55 -212C70 -218 99 -222 119 -222H951C960 -222 964 -225 964 -230C964 -234 962 -238 956 -243Z"/>
</svg>