<svg xmlns="http://www.w3.org/2000/svg" viewBox="0 -1000 1000 1000">
	<path fill="#000000" d="M644 -854C614 -683 560 -484 496 -350L507 -342C541 -399 562 -437 589 -504C604 -363 641 -229 681 -154C620 -64 512 15 385 74L391 88C516 45 627 -14 706 -115C763 -32 860 39 867 39C870 39 872 38 874 36C888 23 905 16 927 16C939 16 953 18 969 22L973 6C880 -24 792 -76 733 -155C786 -239 824 -370 844 -608H957C964 -608 968 -609 968 -612C968 -614 966 -618 961 -623L908 -681L872 -629H635C648 -667 663 -712 681 -765C685 -777 698 -794 706 -798C715 -802 720 -806 720 -809C720 -811 717 -813 712 -816ZM795 -608C777 -402 754 -291 706 -196C665 -270 630 -382 605 -545C612 -564 620 -584 628 -608ZM59 -371C125 -450 158 -505 243 -715C248 -727 254 -732 273 -741C281 -745 285 -749 285 -752C285 -755 282 -758 277 -761L212 -792C170 -632 120 -496 49 -377ZM420 -436C418 -324 409 -215 399 -130C392 -67 381 -43 335 -43C313 -43 284 -48 244 -57L241 -42C308 -15 328 -2 334 20C335 26 340 29 344 29C346 29 347 29 349 28C416 -4 432 -28 443 -120C456 -227 463 -332 465 -422L492 -444C496 -447 498 -449 498 -452C498 -454 496 -457 491 -460L430 -499L405 -458H207C184 -458 162 -459 134 -462L162 -425C176 -431 197 -434 216 -435C214 -204 168 -71 32 47L40 60C187 -46 262 -166 264 -436ZM345 -806C418 -707 462 -611 470 -552C476 -506 483 -502 499 -502C512 -502 531 -528 531 -561C531 -573 528 -586 522 -600C490 -666 437 -736 355 -815Z"/>
</svg>