<svg xmlns="http://www.w3.org/2000/svg" viewBox="0 -1000 1000 1000">
	<path fill="#000000" d="M173 -396H103C80 -396 54 -397 30 -400L58 -365C75 -372 104 -376 125 -376H543C552 -376 557 -378 557 -383C557 -386 554 -390 549 -395L499 -443L460 -396H425L456 -558L489 -576C495 -579 497 -582 497 -584C497 -587 495 -590 490 -593L427 -635L399 -594H256L285 -733H501C511 -733 515 -735 515 -739C515 -742 513 -746 507 -752L452 -805L414 -753H131C108 -753 85 -754 58 -757L86 -722C103 -729 132 -733 153 -733H241L213 -594H150C127 -594 101 -595 77 -598L104 -563C121 -570 150 -574 171 -574H209ZM216 -396L253 -574H412L381 -396ZM126 -301C128 -270 129 -228 129 -204V-64C129 -14 128 16 126 43C126 48 125 52 125 55C125 66 127 70 134 70C137 70 143 68 151 65C171 57 173 54 173 40V-12H405V31C405 42 409 48 417 48C431 48 452 35 452 12V4C450 -17 449 -33 449 -66V-218L484 -232C491 -235 494 -237 494 -240C494 -243 492 -245 487 -249L425 -299L392 -256H186ZM173 -32V-236H405V-32ZM647 -829C614 -663 584 -571 517 -441L528 -433C560 -478 585 -519 606 -561C615 -431 669 -257 711 -178C646 -72 548 18 457 69L461 83C570 35 662 -43 733 -143C781 -71 867 23 876 23C878 23 881 21 883 19C898 5 918 -4 951 -4C960 -4 969 -3 980 -2L982 -14C881 -49 825 -83 760 -183C805 -259 844 -388 859 -618H954C962 -618 967 -621 967 -625C967 -629 964 -633 958 -639L905 -691L869 -639H641C655 -674 668 -711 682 -752C688 -770 697 -781 707 -785C717 -789 721 -793 721 -796C721 -799 718 -801 713 -803ZM810 -618C804 -412 775 -302 736 -222C686 -311 640 -452 624 -599C627 -605 630 -612 632 -618Z"/>
</svg>