<svg xmlns="http://www.w3.org/2000/svg" viewBox="0 -1000 1000 1000">
	<path fill="#000000" d="M366 -643L340 -607H240L182 -654C184 -629 184 -597 184 -570V-485C184 -470 183 -405 183 -392C183 -380 184 -374 189 -374C193 -374 199 -378 208 -383C229 -395 230 -398 230 -416V-436H351V-399C351 -391 352 -387 357 -387C357 -387 400 -401 400 -419V-422C397 -458 397 -483 397 -510V-573L420 -586C425 -588 427 -591 427 -593C427 -596 424 -599 419 -603ZM230 -458V-585H351V-458ZM801 -642L774 -607H663L607 -655C609 -630 609 -598 609 -571V-479C609 -465 608 -401 608 -388C608 -375 609 -370 615 -370C619 -370 624 -373 633 -377C653 -387 655 -391 655 -410V-435H787V-391C787 -383 788 -380 792 -380C796 -380 802 -382 812 -387C832 -397 836 -400 836 -410V-414C833 -450 833 -475 833 -502V-575L859 -589C864 -591 866 -594 866 -596C866 -598 863 -601 858 -605ZM655 -457V-585H787V-457ZM906 -379L864 -325H529V-695H920C930 -695 935 -696 935 -700C935 -703 931 -708 922 -716L868 -767L822 -717H529V-791L556 -805C564 -809 567 -812 567 -815C567 -818 563 -822 555 -826L480 -866C482 -832 483 -792 483 -755V-717H137C114 -717 89 -719 64 -721L92 -684C109 -691 138 -695 159 -695H483V-325H103C80 -325 55 -327 30 -329L58 -292C75 -299 104 -303 125 -303H243V-39C243 0 239 4 197 26L239 80C241 83 242 85 244 85C246 85 248 82 251 77C268 47 287 26 487 -67L480 -83L289 -14V-303H409C449 -216 495 -153 554 -103C674 -3 853 50 862 50C865 50 868 48 869 45C884 17 894 11 965 2V-12C834 -11 669 -66 589 -123C659 -154 718 -181 765 -202C801 -218 812 -222 828 -222C831 -222 845 -221 848 -221C853 -221 855 -222 855 -224C855 -226 853 -229 848 -233L792 -283C750 -250 674 -197 573 -136C515 -183 468 -236 427 -303H963C974 -303 979 -305 979 -309C979 -312 975 -318 967 -325Z"/>
</svg>