<svg xmlns="http://www.w3.org/2000/svg" viewBox="0 -1000 1000 1000">
	<path fill="#000000" d="M353 -804C355 -773 356 -747 356 -716V-469L330 -448L373 -409C376 -407 378 -406 380 -406C382 -406 385 -408 387 -411L409 -439H486V-275H414L357 -312C361 -269 361 -243 361 -202V-128L269 -106V-240C297 -256 300 -257 300 -262C300 -265 296 -268 290 -272L232 -306L212 -275H145V-438H233C233 -408 233 -405 240 -405C244 -405 248 -406 255 -409C272 -416 276 -419 276 -436C276 -451 273 -514 273 -527V-735C304 -748 307 -750 307 -755C307 -758 304 -762 298 -766L250 -803L228 -770H136L94 -801C96 -770 97 -738 97 -711V-641C97 -597 96 -578 94 -555V-547C94 -541 95 -537 101 -537C105 -537 112 -539 122 -544C139 -552 140 -555 140 -564V-581H233V-463H148L99 -509C101 -481 101 -442 101 -402V-291L60 -268L114 -223C117 -221 119 -220 121 -220C126 -220 128 -223 150 -249H227V-96L42 -51L72 8C74 12 76 14 79 14C82 14 85 12 89 10C117 -8 137 -18 216 -44L581 -166L578 -181L403 -138V-252H486C486 -224 486 -221 491 -221C494 -221 497 -222 502 -224C528 -236 533 -239 533 -251V-254C531 -275 530 -302 530 -329V-425C560 -443 561 -444 561 -447C561 -450 558 -452 553 -456L497 -493L479 -462H397V-581H494V-551C494 -546 495 -543 499 -543C501 -543 505 -545 511 -547C535 -558 539 -562 539 -572V-577C537 -598 536 -643 536 -670V-727C565 -744 568 -746 568 -750C568 -753 566 -756 560 -758L498 -797L478 -762H400ZM140 -604V-747H233V-604ZM397 -604V-741H494V-604ZM610 -785C613 -720 614 -650 614 -579C614 -218 613 -83 439 84L451 94C622 -57 643 -109 660 -474H798V-135C798 -78 797 -10 795 49V57C795 67 796 71 802 71C806 71 813 69 822 65C843 56 847 52 847 38V31C845 -8 843 -71 843 -143V-474H977C984 -474 987 -475 987 -479C987 -481 985 -485 980 -490L921 -554L887 -498H661C662 -545 663 -642 663 -715C822 -747 874 -754 906 -754C938 -754 939 -754 939 -759C939 -763 936 -768 930 -773L878 -817C831 -794 779 -775 670 -741Z"/>
</svg>