<svg xmlns="http://www.w3.org/2000/svg" viewBox="0 -1000 1000 1000">
	<path fill="#000000" d="M525 -563C526 -524 526 -499 526 -469C526 -158 526 -85 319 72L328 85C524 -32 565 -119 571 -321H731V-132C731 -75 730 -2 728 57V64C728 74 729 79 734 79C738 79 745 75 757 68C779 55 783 50 783 38V34C780 -11 778 -64 778 -140V-321H952C961 -321 965 -322 965 -325C965 -328 962 -332 957 -337L895 -399L852 -343H571C573 -387 575 -427 576 -491C769 -535 829 -548 862 -548C876 -548 884 -545 896 -542C899 -541 901 -541 902 -541C905 -541 907 -542 907 -544C907 -546 905 -549 902 -553L855 -612C755 -568 676 -539 587 -512ZM621 -830C567 -701 517 -629 411 -511L421 -501C477 -551 532 -608 574 -657H931C939 -657 943 -659 943 -663C943 -666 940 -671 934 -677L876 -731L839 -679H593C619 -709 635 -730 648 -753C660 -774 668 -782 690 -790C698 -793 702 -796 702 -799C702 -802 699 -804 694 -806ZM36 80C157 -55 191 -177 201 -452H354C351 -244 343 -120 330 -74C324 -51 315 -41 285 -41C267 -41 240 -45 200 -53L197 -39C267 -21 287 -2 291 29C292 36 294 39 297 39C299 39 301 38 304 36C354 7 370 -21 377 -72C388 -148 394 -246 401 -441L428 -457C432 -460 434 -462 434 -464C434 -467 432 -469 428 -472L366 -515L342 -474H202C204 -535 206 -576 207 -638H478C486 -638 489 -639 489 -642C489 -645 487 -648 482 -653L422 -713L386 -660H104C81 -660 53 -661 31 -664L59 -627C76 -634 105 -638 126 -638H159C159 -167 110 -66 23 72ZM194 -839C241 -801 263 -756 263 -724C263 -699 270 -690 282 -690C299 -690 321 -718 321 -745C321 -751 320 -757 317 -763C305 -789 270 -819 200 -849Z"/>
</svg>