<svg xmlns="http://www.w3.org/2000/svg" viewBox="0 -1000 1000 1000">
	<path fill="#000000" d="M316 -788L283 -748H147L88 -794C90 -763 91 -715 91 -691V-299C91 -211 90 -143 87 -84V-71C87 -60 88 -55 93 -55C97 -55 105 -59 116 -66C136 -78 138 -81 138 -97V-181H301V-127C301 -118 302 -113 307 -113C311 -113 317 -116 327 -122C348 -134 352 -138 352 -148V-153C349 -198 347 -265 347 -337V-712L375 -729C381 -733 383 -735 383 -738C383 -740 381 -743 375 -747ZM138 -487V-726H301V-487ZM138 -203V-465H301V-203ZM878 -486L836 -428H682V-728H884C894 -728 899 -729 899 -732C899 -735 895 -740 888 -748L834 -806L792 -749H495C472 -749 447 -751 422 -753L450 -717C467 -724 496 -728 517 -728H635V-428H439C416 -428 391 -430 366 -432L394 -395C411 -402 440 -406 461 -406H635V-157C635 -100 633 -30 630 29V43C630 56 631 61 638 61C642 61 649 58 660 53C681 43 685 39 685 27V22C683 -23 682 -72 682 -148V-406H929C940 -406 946 -407 946 -411C946 -414 941 -419 933 -428Z"/>
</svg>