<svg xmlns="http://www.w3.org/2000/svg" viewBox="0 -1000 1000 1000">
	<path fill="#000000" d="M94 -780C96 -749 97 -711 97 -677V-267C97 -185 94 -114 89 -58C89 -54 88 -50 88 -47C88 -38 90 -34 96 -34C101 -34 109 -37 122 -44C140 -54 142 -57 142 -70V-171H309V-116C309 -104 310 -98 315 -98C317 -98 359 -117 359 -137V-143C356 -175 354 -225 354 -301V-691L381 -712C386 -716 388 -718 388 -721C388 -724 385 -727 379 -731L324 -769L297 -731H158ZM309 -193H142V-456H309ZM142 -709H309V-478H142ZM558 -838C610 -794 645 -738 653 -696C656 -679 662 -675 677 -675C688 -675 707 -698 707 -719C707 -763 618 -817 565 -848ZM283 72C476 -40 554 -170 581 -420H794C792 -287 783 -174 771 -99C761 -34 748 -4 699 -4C670 -4 628 -15 566 -36L560 -20C646 11 672 34 676 66C677 70 680 73 685 73C687 73 689 73 692 72C773 45 800 13 815 -75C828 -150 836 -250 838 -399L878 -420C883 -423 885 -425 885 -428C885 -431 883 -434 878 -437L811 -489L776 -441H583C591 -523 596 -587 597 -634H939C948 -634 953 -636 953 -640C953 -644 950 -649 942 -656L884 -713L838 -655H453C430 -655 407 -656 380 -659L408 -623C425 -630 454 -634 475 -634H545C543 -242 479 -100 275 61Z"/>
</svg>