<svg xmlns="http://www.w3.org/2000/svg" viewBox="0 -1000 1000 1000">
	<path fill="#000000" d="M304 -798L278 -761H148L95 -807C97 -776 98 -728 98 -704V-336C98 -279 97 -197 95 -138V-127C95 -112 96 -106 103 -106C107 -106 113 -108 122 -112C142 -121 144 -124 144 -137V-217H292V-168C292 -158 293 -153 298 -153C302 -153 309 -156 319 -161C340 -171 343 -175 343 -188V-195C340 -240 338 -298 338 -374V-724L365 -744C371 -748 373 -751 373 -753C373 -755 371 -758 365 -761ZM144 -510V-740H292V-510ZM144 -239V-488H292V-239ZM823 -826L793 -783H519L452 -832C453 -807 454 -775 454 -707V-517C454 -223 426 -88 252 57L261 68C401 -30 436 -81 467 -188C487 -256 502 -453 502 -566H807C807 -528 807 -524 814 -524C818 -524 824 -526 834 -531C852 -540 857 -543 857 -555C857 -564 853 -617 853 -629V-743L883 -763C889 -767 891 -769 891 -772C891 -775 889 -778 883 -782ZM502 -588V-761H807V-588ZM902 -219C898 -61 891 -40 847 -34C814 -30 774 -27 737 -27C638 -27 632 -35 633 -87V-228C727 -290 775 -322 863 -383C875 -391 900 -400 912 -400C921 -400 925 -401 925 -404C925 -406 923 -409 918 -413L864 -457C796 -386 721 -322 633 -253V-458C665 -478 666 -479 666 -482C666 -485 663 -487 657 -490L584 -525C586 -501 587 -467 587 -409V-84C587 3 593 12 743 12C910 12 935 -5 956 -53C957 -56 958 -58 958 -60C958 -64 955 -66 950 -69C931 -78 920 -112 919 -219Z"/>
</svg>