<svg xmlns="http://www.w3.org/2000/svg" viewBox="0 -1000 1000 1000">
	<path fill="#000000" d="M82 -780C84 -749 85 -706 85 -677V-241C85 -159 83 -94 77 -32C77 -28 76 -24 76 -21C76 -12 78 -8 84 -8C89 -8 97 -11 110 -18C128 -28 130 -31 130 -44V-145H282V-90C282 -78 283 -72 288 -72C289 -72 331 -88 331 -112V-117C328 -149 326 -199 326 -275V-691L353 -712C358 -716 360 -719 360 -722C360 -725 358 -727 352 -731L295 -767L270 -731H146ZM282 -167H130V-441H282ZM130 -709H282V-463H130ZM429 -659C430 -627 431 -579 431 -556V-307C431 -214 430 -165 427 -127C427 -122 426 -118 426 -115C426 -102 429 -96 437 -96C443 -96 452 -99 464 -105C474 -110 477 -115 477 -166H799V-119C799 -111 800 -106 806 -106C810 -106 816 -108 826 -112C847 -121 851 -124 851 -139V-146C848 -191 846 -248 846 -328V-573L876 -596C881 -600 884 -603 884 -606C884 -609 881 -611 876 -615L812 -658L785 -615H489ZM799 -188H477V-391H799ZM477 -593H799V-413H477ZM900 -53L858 1H362C339 1 314 0 289 -3L317 34C334 27 363 23 384 23H953C964 23 969 22 969 19C969 15 965 11 957 3ZM891 -821L850 -769H422C399 -769 374 -770 349 -773L377 -736C394 -743 423 -747 444 -747H942C952 -747 957 -748 957 -752C957 -755 953 -760 946 -767Z"/>
</svg>