<svg xmlns="http://www.w3.org/2000/svg" viewBox="0 -1000 1000 1000">
	<path fill="#000000" d="M82 -770C84 -739 85 -693 85 -667V-239C85 -157 82 -86 77 -30C77 -26 76 -22 76 -19C76 -10 78 -6 84 -6C89 -6 97 -9 110 -16C127 -25 130 -29 130 -42V-143H269V-78C269 -66 271 -60 276 -60C278 -60 319 -79 319 -100V-105C316 -137 314 -187 314 -263V-681L341 -702C345 -705 347 -708 347 -711C347 -714 345 -717 339 -721L282 -757L257 -721H146ZM269 -165H130V-426H269ZM130 -699H269V-448H130ZM770 -565L727 -510H484C461 -510 436 -512 411 -514L439 -477C456 -484 485 -488 506 -488H824C832 -488 836 -489 836 -493C836 -496 833 -500 828 -505ZM916 -327C924 -327 929 -329 929 -333C929 -336 925 -341 918 -349L863 -408L815 -349H414C391 -349 366 -350 341 -353L369 -316C386 -323 415 -327 436 -327H500C496 -109 456 -47 254 66L260 79C485 -16 539 -93 548 -327H688V-28C688 43 698 50 793 50C933 50 955 21 976 -19C977 -21 978 -22 978 -24C978 -28 975 -31 969 -33C947 -41 935 -69 935 -189H920C914 -27 907 -10 867 1C849 6 828 8 808 8C745 8 734 -4 734 -37V-327ZM428 -730C422 -678 401 -639 381 -625C362 -611 353 -597 353 -586C353 -572 369 -568 379 -568C434 -568 439 -658 440 -667H849L804 -588L818 -581C861 -636 898 -658 929 -658C943 -658 947 -658 947 -664C947 -667 944 -672 937 -677L872 -729L840 -689H441C441 -702 440 -716 438 -730ZM534 -840C570 -813 595 -772 603 -737C608 -714 616 -703 629 -703C646 -703 662 -726 662 -747C662 -751 662 -755 661 -758C652 -789 632 -806 539 -849Z"/>
</svg>