<svg xmlns="http://www.w3.org/2000/svg" viewBox="0 -1000 1000 1000">
	<path fill="#000000" d="M96 -771C98 -740 99 -695 99 -668V-240C99 -158 96 -87 91 -31C91 -27 90 -23 90 -20C90 -11 92 -7 98 -7C103 -7 111 -10 124 -17C141 -26 144 -30 144 -43V-144H269V-89C269 -77 271 -71 276 -71C279 -71 319 -90 319 -112V-116C316 -148 314 -198 314 -274V-682L341 -703C345 -706 347 -709 347 -712C347 -715 345 -718 339 -722L282 -758L257 -722H160ZM269 -166H144V-432H269ZM144 -700H269V-454H144ZM430 -531C432 -502 432 -464 432 -441V-388C432 -367 430 -333 430 -311C430 -304 431 -301 436 -301C438 -301 477 -313 477 -326V-344H788C788 -311 788 -308 795 -308C799 -308 836 -322 836 -335C836 -344 833 -386 833 -396V-457L862 -474C867 -477 869 -479 869 -482C869 -484 866 -488 859 -492L803 -529L776 -495H488ZM477 -366V-473H788V-366ZM792 -676L823 -695C828 -698 831 -701 831 -703C831 -706 828 -709 824 -713L769 -758L740 -716H578L591 -787L619 -801C625 -804 628 -807 628 -809C628 -812 625 -814 618 -818L555 -850C549 -798 542 -752 535 -716H459C436 -716 411 -718 386 -720L414 -683C431 -690 460 -694 481 -694H531L512 -588H399C376 -588 356 -589 325 -593L354 -555C371 -562 400 -566 421 -566H944C954 -566 959 -567 959 -571C959 -573 955 -578 949 -584L893 -640L858 -588H785ZM574 -694H751L742 -588H554ZM619 -107H453L473 -150L498 -159C504 -161 507 -163 507 -165C507 -167 504 -170 500 -173L455 -206C452 -199 446 -187 441 -176L413 -114L374 -99L415 -69C421 -65 425 -63 428 -63C431 -63 434 -65 436 -67L454 -85H619C619 -62 617 41 617 62C617 79 619 85 626 85C630 85 637 83 646 78C664 68 668 63 668 51V46C666 5 665 -30 665 -85H917C926 -85 931 -87 931 -91C931 -94 928 -99 922 -105L864 -161L825 -107H665V-220H926C936 -220 940 -222 940 -226C940 -229 937 -234 930 -240L873 -290L827 -242H665V-292C686 -307 688 -309 688 -312C688 -315 685 -317 678 -319L616 -341C618 -309 619 -277 619 -242H399C376 -242 351 -243 326 -246L354 -209C371 -216 400 -220 421 -220H619Z"/>
</svg>