<svg xmlns="http://www.w3.org/2000/svg" viewBox="0 -1000 1000 1000">
	<path fill="#000000" d="M455 -832C457 -801 458 -753 458 -729V-583C458 -536 457 -510 455 -479V-473C455 -464 457 -459 464 -459C468 -459 474 -461 483 -464C501 -470 501 -474 501 -506H808C808 -471 808 -467 815 -467C819 -467 825 -469 834 -473C853 -482 858 -486 858 -499V-507C855 -536 854 -567 854 -601V-742L882 -758C888 -762 891 -764 891 -767C891 -770 888 -773 883 -777L822 -820L795 -776H516ZM501 -650V-754H808V-650ZM501 -528V-628H808V-528ZM87 -763C89 -732 90 -684 90 -660V-232C90 -150 87 -79 82 -23C81 -18 81 -14 81 -11C81 -3 83 1 88 1C93 1 101 -2 113 -9C130 -18 133 -22 133 -35V-136H276V-81C276 -69 277 -63 282 -63C286 -63 293 -67 303 -74C318 -84 324 -92 324 -110C324 -117 323 -126 321 -137C404 -207 437 -239 464 -276H578C538 -180 465 -110 331 -16L338 -4C473 -69 556 -144 624 -276H730C673 -117 602 -38 430 57L437 71C643 -16 704 -90 780 -276H858C850 -155 841 -95 826 -31C820 -5 812 8 782 8C760 8 726 1 670 -14L665 0C752 31 766 52 772 78C773 83 776 85 779 85C781 85 784 84 787 83C845 55 861 33 872 -22C884 -82 894 -150 904 -257L935 -276C940 -279 943 -282 943 -284C943 -287 940 -290 935 -293L874 -338L844 -298H479C496 -324 513 -355 532 -396H957C964 -396 969 -398 969 -402C969 -406 966 -410 960 -416L908 -464L875 -418H403C380 -418 355 -419 330 -422L358 -385C375 -392 404 -396 425 -396H478C443 -305 414 -260 320 -158C318 -193 318 -226 318 -266V-674L345 -695C350 -699 352 -702 352 -704C352 -707 349 -710 343 -714L289 -750L264 -714H149ZM276 -158H133V-424H276ZM133 -692H276V-446H133Z"/>
</svg>