<svg xmlns="http://www.w3.org/2000/svg" viewBox="0 -1000 1000 1000">
	<path fill="#000000" d="M93 -786C95 -755 96 -722 96 -683V-255C96 -173 93 -102 88 -46C88 -42 87 -38 87 -35C87 -26 89 -22 95 -22C100 -22 108 -25 119 -32C137 -42 139 -45 139 -58V-159H260V-104C260 -92 262 -86 267 -86C268 -86 308 -102 308 -127V-131C305 -163 303 -213 303 -289V-697L330 -718C335 -722 337 -725 337 -727C337 -730 334 -733 328 -737L273 -773L248 -737H155ZM260 -181H139V-447H260ZM139 -715H260V-469H139ZM584 -312C605 -340 627 -371 651 -408H935C945 -408 949 -410 949 -414C949 -417 946 -422 939 -429L887 -485L843 -430H666C675 -444 685 -460 695 -476C700 -486 713 -494 726 -496C733 -497 737 -499 737 -503C737 -506 734 -510 727 -514L675 -548C657 -502 643 -471 620 -430H499C477 -430 452 -432 428 -434L455 -397C472 -404 500 -408 521 -408H607C563 -329 519 -270 443 -174L454 -163C496 -206 529 -242 563 -285V-175C563 -157 560 -78 560 -60C560 -52 562 -48 570 -48C574 -48 579 -49 586 -52C603 -58 605 -63 605 -73V-118H792V-76C792 -69 794 -65 799 -65C803 -65 809 -67 817 -71C836 -80 839 -84 839 -100C838 -137 837 -158 837 -185V-269C866 -289 866 -289 866 -294C866 -297 864 -300 859 -304L805 -341L777 -308H599ZM605 -140V-286H792V-140ZM613 -663C632 -680 634 -682 634 -687C634 -691 630 -693 624 -695L569 -716C571 -683 572 -660 572 -635V-600H520C497 -600 473 -602 448 -604L476 -567C493 -574 521 -578 542 -578H572C573 -564 571 -505 571 -493C571 -484 572 -480 578 -480C585 -480 615 -489 615 -506C615 -511 612 -567 613 -578H752C753 -565 751 -508 751 -496C751 -487 753 -483 759 -483C761 -483 796 -491 796 -508C796 -512 793 -567 794 -578H900C910 -578 915 -580 915 -584C915 -587 911 -592 904 -599L853 -650L817 -600H794V-663C816 -680 819 -682 819 -685C819 -688 816 -690 809 -693L749 -719C751 -686 752 -659 752 -634V-600H613ZM374 -815C376 -777 378 -701 378 -651V-25L338 11L392 55C397 59 400 61 403 61C406 61 408 59 411 55L434 25H948C955 25 959 24 959 20C959 17 956 12 949 5L896 -53L845 3H422V-740H928C938 -740 944 -741 944 -746C944 -749 940 -754 932 -762L880 -815L840 -762H439Z"/>
</svg>