<svg xmlns="http://www.w3.org/2000/svg" viewBox="0 -1000 1000 1000">
	<path fill="#000000" d="M527 -673H421L364 -719C366 -690 367 -655 367 -621V-558C367 -548 365 -499 365 -495C365 -487 366 -484 371 -484C375 -484 380 -485 389 -489C410 -498 410 -499 410 -523H856C856 -506 856 -501 864 -501C872 -501 905 -512 905 -530C905 -534 902 -581 902 -591V-634L929 -650C934 -653 936 -656 936 -659C936 -661 934 -664 930 -667L870 -711L842 -673H734V-771H940C950 -771 956 -773 956 -777C956 -780 952 -786 944 -793L892 -843L851 -793H398C375 -793 350 -795 325 -797L353 -760C370 -767 399 -771 420 -771H527ZM569 -544V-650H691V-544ZM527 -544H410V-650H527ZM856 -650V-544H734V-650ZM691 -673H569V-771H691ZM611 -216V-122H408C385 -122 361 -123 335 -126L363 -89C380 -96 409 -100 430 -100H611C611 -45 610 7 608 64V69C608 80 610 86 618 86C622 86 629 84 638 80C658 72 662 67 662 52V46C659 2 658 -26 658 -100H949C960 -100 965 -101 965 -105C965 -109 961 -114 953 -122L898 -173L859 -122H658V-216H809C809 -185 809 -182 815 -182C819 -182 825 -184 834 -189C853 -198 856 -202 856 -215C856 -228 854 -287 854 -299V-396L883 -418C888 -422 891 -424 891 -427C891 -430 888 -433 883 -436L824 -480L795 -440H461L410 -478C413 -451 413 -426 413 -398V-290C413 -274 408 -197 408 -188C408 -181 409 -178 415 -178C419 -178 425 -180 433 -183C456 -192 456 -193 456 -216ZM809 -418V-340H456V-418ZM809 -318V-238H456V-318ZM80 -771C82 -740 83 -692 83 -668V-261C83 -179 80 -108 75 -52C75 -48 74 -44 74 -41C74 -32 76 -28 82 -28C87 -28 95 -31 108 -38C126 -48 128 -51 128 -64V-162H247V-109C247 -97 248 -91 253 -91C255 -91 297 -109 297 -132V-136C294 -168 292 -218 292 -294V-682L319 -703C324 -707 326 -710 326 -712C326 -715 323 -718 317 -722L260 -758L235 -722H144ZM247 -184H128V-434H247ZM128 -700H247V-456H128Z"/>
</svg>