<svg xmlns="http://www.w3.org/2000/svg" viewBox="0 -1000 1000 1000">
	<path fill="#000000" d="M381 -669L343 -617H262V-776L290 -797C297 -802 300 -806 300 -809C300 -812 296 -815 289 -818L213 -853C215 -816 217 -748 217 -707V-617H116C93 -617 68 -619 43 -621L71 -584C88 -591 117 -595 138 -595H211C167 -422 108 -287 37 -156L50 -148C113 -243 174 -370 217 -490V-159C217 -102 215 -11 212 47V62C212 76 213 81 220 81C224 81 231 78 241 73C260 62 264 59 264 45V39C262 -6 262 -81 262 -157V-443C310 -400 337 -361 348 -333C361 -297 367 -295 377 -295C388 -295 403 -313 403 -337C403 -386 324 -438 262 -463V-595H427C436 -595 440 -596 440 -599C440 -602 437 -607 430 -615ZM893 -465L851 -408H691V-712H893C903 -712 907 -713 907 -717C907 -720 904 -725 897 -732L842 -790L803 -733H515C492 -733 467 -735 442 -737L470 -701C487 -708 516 -712 537 -712H644V-408H487C464 -408 439 -410 414 -412L442 -375C459 -382 488 -386 509 -386H644V-134C644 -77 642 -7 639 52V66C639 79 640 85 646 85C651 85 658 82 669 76C690 65 694 61 694 51V45C692 0 691 -49 691 -125V-386H940C950 -386 956 -387 956 -391C956 -394 952 -399 944 -408Z"/>
</svg>