<svg xmlns="http://www.w3.org/2000/svg" viewBox="0 -1000 1000 1000">
	<path fill="#000000" d="M657 -852C659 -821 661 -762 661 -727V-466C661 -418 660 -340 658 -290V-282C658 -268 660 -262 667 -262C672 -262 678 -264 688 -268C708 -276 712 -280 712 -292V-297C709 -335 708 -400 708 -465V-779L730 -797C737 -802 740 -805 740 -808C740 -810 737 -812 730 -815ZM763 -629C838 -575 894 -504 907 -465C916 -438 923 -427 935 -427C950 -427 963 -451 963 -476C963 -488 960 -501 953 -511C930 -543 878 -589 774 -639ZM536 -672C502 -530 460 -399 401 -270L416 -263C475 -363 513 -450 568 -589C572 -599 585 -608 599 -610C608 -612 613 -613 613 -616C613 -619 608 -623 600 -628ZM372 -664L332 -611H278V-779L303 -798C309 -803 313 -806 313 -809C313 -812 309 -814 302 -818L228 -856C230 -819 232 -751 232 -710V-611H120C97 -611 72 -613 47 -615L75 -578C92 -585 121 -589 142 -589H221C187 -444 117 -270 45 -155L57 -148C134 -253 191 -373 232 -498V-162C232 -105 230 -14 227 44V58C227 71 229 76 235 76C240 76 247 74 256 70C277 61 280 57 280 44V36C278 -9 278 -84 278 -160V-467C322 -437 347 -404 360 -376C368 -358 375 -348 385 -348C398 -348 409 -370 409 -392C409 -400 407 -408 403 -415C389 -437 340 -467 278 -485V-589H423C432 -589 437 -590 437 -594C437 -597 433 -602 426 -609ZM846 -416C714 -125 569 -33 320 78L325 92C638 -10 752 -150 860 -322C869 -336 885 -345 902 -347C909 -348 912 -350 912 -353C912 -356 909 -361 902 -366Z"/>
</svg>