<svg xmlns="http://www.w3.org/2000/svg" viewBox="0 -1000 1000 1000">
	<path fill="#000000" d="M887 -693L858 -655H758L698 -699C700 -668 701 -619 701 -595V-168C701 -74 700 -24 696 21V30C696 39 697 43 702 43C707 43 715 40 726 34C745 25 747 21 747 9V-79H876V7C876 15 877 20 883 20C887 20 893 18 903 14C923 5 926 2 926 -10V-17C923 -62 922 -102 922 -178V-617C951 -638 951 -638 951 -642C951 -644 950 -646 947 -648ZM747 -101V-633H876V-101ZM605 -659L573 -619H491C493 -685 494 -746 495 -776L521 -796C525 -799 526 -801 526 -803C526 -805 524 -807 518 -809L448 -836C449 -764 449 -691 448 -619C418 -619 395 -620 371 -623L399 -586C412 -591 428 -595 448 -596C446 -253 419 -105 265 43L277 51C426 -73 477 -176 488 -511C489 -539 490 -568 490 -597H587C588 -430 585 -223 575 -110C571 -63 564 -44 526 -44C506 -44 478 -49 437 -59L434 -46C497 -26 521 -8 529 18C531 25 533 28 537 28C539 28 543 26 548 24C606 -5 610 -23 617 -105C623 -173 627 -338 628 -585L657 -600C662 -603 665 -605 665 -608C665 -611 662 -615 655 -620ZM250 -594H358C364 -594 366 -595 366 -596C366 -598 365 -600 362 -603L313 -657L281 -616H250V-784L274 -803C277 -806 279 -808 279 -810C279 -813 276 -815 270 -818L202 -848C204 -811 206 -743 206 -702V-616H121C98 -616 73 -618 48 -620L76 -583C93 -590 122 -594 143 -594H200C162 -448 119 -333 48 -191L62 -184C125 -291 170 -381 206 -483V-161C206 -104 204 -13 201 45V58C201 72 203 77 210 77C214 77 220 75 229 71C248 63 252 58 252 43V37C250 -8 250 -83 250 -159V-477C294 -437 319 -397 327 -373C334 -352 342 -347 348 -347C364 -347 376 -367 376 -389C376 -431 334 -455 250 -495Z"/>
</svg>