<svg xmlns="http://www.w3.org/2000/svg" viewBox="0 -1000 1000 1000">
	<path fill="#000000" d="M232 -786C257 -801 260 -803 260 -807C260 -809 258 -812 253 -814L184 -850C186 -813 188 -745 188 -704V-622H115C92 -622 65 -623 42 -626L70 -591C87 -598 116 -602 137 -602H188C160 -468 114 -355 27 -195L40 -187C102 -278 148 -363 188 -470V-129C188 -102 186 -22 183 47V54C183 66 185 72 191 72C195 72 202 69 212 64C230 55 235 51 235 35V30C233 -15 232 -90 232 -166V-483C271 -451 302 -402 309 -360C311 -349 318 -341 326 -341C338 -341 354 -357 354 -380C354 -416 319 -464 232 -503V-602H379C386 -602 389 -603 389 -606C389 -608 387 -612 383 -616L329 -668L297 -622H232ZM674 -812C676 -775 678 -707 678 -666V-149C678 -73 677 -3 675 52V59C675 76 677 82 685 82C689 82 694 80 701 77C721 67 725 63 725 51C725 18 722 -125 722 -154V-741H848L778 -467C869 -371 900 -302 900 -252C900 -191 877 -161 803 -161C783 -161 760 -163 733 -167V-153C809 -138 832 -122 840 -94C841 -90 843 -88 846 -88C854 -88 949 -130 949 -241C949 -303 907 -377 801 -474L873 -658C898 -721 905 -729 928 -739C934 -742 937 -744 937 -746C937 -748 934 -751 930 -754L868 -806L839 -763H735ZM630 -690C641 -690 647 -691 647 -695C647 -698 643 -703 636 -711L585 -767L544 -711H398C375 -711 350 -712 327 -715L354 -680C374 -686 408 -690 419 -690H471V-190L314 -143L362 -82C363 -80 365 -79 367 -79C369 -79 371 -81 374 -84C394 -106 427 -130 494 -158L665 -229L660 -246L515 -203V-690Z"/>
</svg>