<svg xmlns="http://www.w3.org/2000/svg" viewBox="0 -1000 1000 1000">
	<path fill="#000000" d="M891 -788L853 -736H441C418 -736 393 -738 368 -740L396 -703C413 -710 442 -714 463 -714H571V-537H482L417 -581C419 -550 420 -502 420 -478V-159C420 -102 419 -12 417 47V56C417 72 419 78 425 78C433 78 463 68 463 48V-4H865V63C865 72 866 76 873 76C877 76 883 74 893 70C911 62 915 57 915 43V36C912 -9 910 -71 910 -147V-500L935 -517C940 -521 943 -524 943 -527C943 -530 940 -533 935 -536L876 -576L848 -537H750V-714H939C948 -714 952 -716 952 -721C952 -725 949 -730 943 -736ZM463 -26V-124C584 -229 613 -310 614 -515H707V-285C707 -225 714 -209 789 -209C809 -209 834 -210 865 -212V-26ZM614 -537V-714H707V-537ZM750 -515H865V-224C855 -235 841 -249 831 -258C810 -251 794 -248 782 -248C757 -248 750 -263 750 -288ZM463 -515H571C570 -330 553 -248 463 -146ZM349 -656L315 -605H252V-782C283 -803 287 -805 287 -809C287 -812 284 -815 278 -817L203 -851C205 -814 207 -746 207 -705V-605H125C102 -605 77 -607 52 -609L80 -572C97 -579 126 -583 147 -583H200C161 -439 114 -313 39 -184L51 -176C113 -259 167 -363 207 -477V-152C207 -95 205 -4 202 54V67C202 81 204 87 211 87C215 87 222 84 231 80C250 71 254 66 254 52V46C252 1 252 -74 252 -150V-441C292 -409 319 -368 332 -338C340 -319 348 -313 358 -313C371 -313 384 -336 384 -357C384 -401 307 -437 252 -460V-583H393C401 -583 404 -585 404 -589C404 -592 402 -597 396 -603Z"/>
</svg>