<svg xmlns="http://www.w3.org/2000/svg" viewBox="0 -1000 1000 1000">
	<path fill="#000000" d="M972 2C860 0 757 -29 668 -91C713 -130 738 -159 776 -218C794 -244 812 -257 830 -263C836 -265 838 -267 838 -269C838 -272 836 -275 831 -279L775 -322L748 -288H462C449 -288 433 -289 412 -290L438 -262C445 -265 451 -267 457 -267C460 -267 463 -267 466 -266C510 -195 556 -140 605 -92C531 -32 422 24 282 71L285 85C424 56 551 1 636 -65C695 -11 766 27 865 56C869 57 873 58 875 58C879 58 881 56 883 52C892 32 913 21 972 15ZM743 -266C711 -200 679 -158 633 -116C574 -164 531 -206 489 -266ZM422 -461C418 -414 395 -374 367 -354C355 -345 349 -332 349 -321C349 -312 352 -298 368 -298C378 -298 428 -304 437 -401H865L818 -322L829 -313C888 -374 912 -388 944 -392C951 -393 954 -395 954 -398C954 -401 951 -404 946 -409L888 -460L857 -423H438C439 -437 438 -448 435 -461ZM245 -781C273 -799 276 -801 276 -805C276 -809 272 -812 263 -816L195 -847C197 -810 199 -742 199 -701V-610H113C89 -610 64 -612 38 -614L67 -577C84 -584 114 -588 135 -588H188C156 -447 108 -319 25 -167L37 -160C112 -271 164 -378 199 -486V-137C199 -80 197 2 194 59V65C194 77 196 83 202 83C207 83 214 80 224 75C242 66 247 60 247 46V41C245 -4 245 -69 245 -145V-494C282 -470 310 -438 324 -403C331 -386 336 -383 347 -383C359 -383 371 -402 371 -422C371 -430 370 -439 365 -446C351 -469 316 -490 245 -514V-588H396C405 -588 410 -590 410 -594C410 -597 406 -602 399 -608L349 -654L316 -610H245ZM809 -534H494C470 -534 445 -536 419 -538L448 -501C465 -508 495 -512 516 -512H809C809 -473 809 -472 815 -472C819 -472 824 -474 832 -478C855 -488 860 -493 860 -505V-512C856 -556 855 -572 855 -624V-732L882 -747C888 -750 890 -753 890 -756C890 -759 888 -762 882 -766L821 -810L793 -769H495C471 -769 446 -771 420 -773L449 -736C467 -745 496 -749 517 -749H809V-655H531C508 -655 482 -657 457 -659L485 -622C503 -629 532 -633 554 -633H809Z"/>
</svg>