<svg xmlns="http://www.w3.org/2000/svg" viewBox="0 -1000 1000 1000">
	<path fill="#000000" d="M402 -813C404 -785 404 -776 404 -709V-131C404 -97 394 -69 362 -42L402 -7C404 -6 406 -5 408 -5C411 -5 413 -6 415 -8C428 -30 457 -62 491 -86L585 -152C592 -132 597 -111 602 -86C608 -54 614 -50 623 -50C641 -50 654 -77 654 -105C654 -114 653 -122 650 -130C637 -170 595 -223 535 -280L524 -271C549 -239 566 -207 580 -168L446 -92V-351H594C594 -323 594 -320 602 -320C606 -320 611 -322 618 -325C638 -334 642 -340 642 -351V-355C639 -392 638 -426 638 -514V-731C661 -741 664 -742 664 -747C664 -749 663 -752 660 -754L605 -802L582 -768H455ZM594 -373H446V-550H594ZM446 -746H594V-572H446ZM245 -595H378C387 -595 392 -597 392 -602C392 -605 390 -609 385 -614L335 -666L294 -615H245V-774L275 -790C281 -793 285 -796 285 -799C285 -803 281 -806 274 -810L199 -852C201 -815 203 -750 203 -693V-615H106C83 -615 58 -616 33 -619L62 -584C79 -591 108 -595 129 -595H191C150 -417 91 -296 29 -189L41 -181C103 -258 158 -353 203 -477V-140C203 -55 202 -5 199 45V60C199 74 200 79 206 79C211 79 217 76 227 71C243 62 247 56 247 38V31C245 -14 245 -78 245 -154V-480C286 -447 316 -399 322 -372C327 -347 333 -340 344 -340C358 -340 373 -359 373 -386C373 -414 357 -443 245 -499ZM702 -803C704 -779 706 -735 706 -693V-138C706 -81 705 -4 703 55V62C703 79 706 86 714 86C718 86 724 84 731 81C750 73 754 68 754 54V47C752 12 750 -63 750 -149V-733H864V-217C864 -194 863 -184 837 -184C823 -184 800 -187 766 -193L765 -181C823 -164 834 -149 842 -126C844 -121 847 -118 851 -118C853 -118 855 -119 857 -120C905 -149 908 -158 908 -227V-712L938 -729C943 -732 945 -734 945 -737C945 -740 943 -743 938 -747L885 -793L854 -755H756Z"/>
</svg>