<svg xmlns="http://www.w3.org/2000/svg" viewBox="0 -1000 1000 1000">
	<path fill="#000000" d="M813 70C813 78 816 83 822 83C826 83 832 81 840 77C861 66 865 61 865 48V43C862 5 860 -44 860 -95V-307L886 -324C891 -327 893 -330 893 -333C893 -336 891 -339 887 -342L824 -386L798 -344H504L444 -391C446 -361 447 -316 447 -293V-94C447 -44 446 -2 444 50V57C444 70 446 76 452 76C459 76 494 63 494 43V9H813ZM813 -322V-187H494V-322ZM494 -165H813V-13H494ZM771 -641H907C915 -641 918 -643 918 -646C918 -649 916 -653 910 -659L858 -712L827 -663H771V-791C793 -807 795 -809 795 -812C795 -816 792 -819 786 -822L722 -852C724 -817 726 -753 726 -714V-663H576V-784C599 -799 602 -801 602 -805C602 -809 598 -812 592 -815L527 -847C529 -812 531 -748 531 -709V-663H468C445 -663 420 -664 395 -667L423 -630C440 -637 464 -641 490 -641H531V-477H427C404 -477 379 -478 354 -481L382 -444C399 -451 423 -455 449 -455H964C971 -455 974 -457 974 -461C974 -464 972 -468 967 -473L914 -531L875 -477H771ZM576 -641H726V-477H576ZM245 -785L270 -803C275 -806 277 -809 277 -812C277 -816 274 -819 269 -821L198 -853C200 -817 200 -792 200 -707V-601H99C76 -601 51 -603 26 -605L54 -568C71 -575 100 -579 121 -579H184C132 -398 101 -318 22 -156L35 -147C113 -272 153 -354 200 -498V-51C200 -8 198 42 195 81V85C195 93 197 96 201 96C205 96 210 94 217 90C241 76 245 69 245 56V-482C298 -416 318 -377 326 -341C331 -318 341 -308 359 -308C373 -308 385 -323 385 -343C385 -396 320 -447 245 -504V-579H404C412 -579 416 -581 416 -585C416 -588 413 -593 407 -599L355 -648L322 -601H245Z"/>
</svg>