<svg xmlns="http://www.w3.org/2000/svg" viewBox="0 -1000 1000 1000">
	<path fill="#000000" d="M898 -445L858 -394H704V-497C734 -517 738 -520 738 -522C738 -525 735 -527 728 -530L655 -563C657 -526 658 -466 658 -425V-394H480C483 -438 486 -495 487 -571H832C832 -546 832 -543 839 -543C843 -543 849 -545 859 -549C877 -557 882 -561 882 -573C882 -576 881 -579 881 -583C878 -613 877 -626 877 -662V-737C905 -755 908 -756 908 -759C908 -762 905 -764 899 -768L844 -806L819 -769H503L442 -811C443 -762 443 -713 443 -665C443 -311 426 -138 279 29L290 38C360 -24 465 -159 478 -373H658V-220H569L514 -259C516 -228 517 -181 517 -157V-44C517 -6 516 27 514 55C514 61 513 66 513 70C513 82 515 87 522 87C526 87 533 85 542 81C559 74 561 71 561 56V2H832V64C832 73 833 77 839 77C843 77 850 75 859 71C876 63 880 60 880 44C880 26 876 -64 876 -84V-191C886 -199 903 -211 903 -214C903 -216 901 -219 896 -222L842 -262L815 -220H704V-373H943C951 -373 955 -375 955 -378C955 -381 953 -385 948 -390ZM487 -592C488 -637 488 -689 488 -748H832V-592ZM561 -19V-199H832V-19ZM357 -662L321 -615H254V-784C259 -787 286 -806 286 -809C286 -812 282 -814 276 -817L206 -851C208 -814 210 -745 210 -704V-615H125C102 -615 77 -617 52 -619L80 -583C97 -590 126 -594 147 -594H202C168 -446 99 -256 42 -151L53 -145C114 -238 166 -352 210 -479V-163C210 -106 208 -15 205 43V57C205 70 207 75 213 75C218 75 225 73 234 69C252 61 256 58 256 42V35C254 -10 254 -85 254 -161V-462C299 -428 323 -395 332 -371C339 -354 346 -350 353 -350C367 -350 378 -370 378 -391C378 -400 376 -409 372 -417C363 -435 325 -461 254 -481V-594H396C404 -594 408 -596 408 -599C408 -602 406 -606 401 -612Z"/>
</svg>