<svg xmlns="http://www.w3.org/2000/svg" viewBox="0 -1000 1000 1000">
	<path fill="#000000" d="M825 -821L796 -776H469L410 -828C412 -797 413 -749 413 -725V-498C413 -441 412 -370 410 -311V-301C410 -285 412 -279 419 -279C423 -279 429 -281 438 -285C459 -294 459 -294 459 -321H812C812 -288 812 -284 819 -284C823 -284 829 -286 839 -290C860 -299 864 -303 864 -317V-324C861 -369 859 -408 859 -484V-741L886 -755C892 -758 895 -761 895 -764C895 -766 892 -770 886 -774ZM459 -343V-754H812V-343ZM283 -765L255 -720H157L99 -769C101 -738 102 -690 102 -666V-422C102 -365 101 -280 99 -221V-213C99 -196 101 -190 108 -190C113 -190 118 -192 126 -195C146 -203 148 -206 148 -220V-297H271V-245C271 -236 272 -232 278 -232C282 -232 288 -234 298 -238C318 -247 322 -251 322 -265V-272C319 -317 317 -370 317 -446V-690L338 -706C343 -710 346 -713 346 -716C346 -719 343 -722 338 -725ZM148 -319V-698H271V-319ZM580 -278C618 -232 634 -203 645 -150C648 -136 655 -129 665 -129C682 -129 696 -149 696 -170C696 -211 635 -255 588 -286ZM802 -218C860 -158 879 -106 888 -71C891 -60 898 -46 910 -46C926 -46 940 -66 940 -88C940 -138 877 -182 809 -227ZM375 -226C355 -131 325 -95 275 -63C266 -57 260 -48 260 -38C260 -21 281 -14 295 -14C319 -14 384 -35 386 -224ZM763 -154C764 -18 752 -4 700 -2C680 -1 650 -1 622 -1C525 -1 521 -3 521 -34V-180C526 -183 550 -196 550 -198C550 -200 548 -202 544 -204L474 -244C475 -223 476 -180 476 -153V-30C476 37 491 38 630 38C773 38 789 29 815 -23C817 -26 817 -29 817 -31C817 -34 816 -37 812 -39C792 -50 778 -63 778 -154ZM736 -645L706 -606H645C648 -623 650 -642 651 -662C652 -682 656 -689 671 -693C679 -695 683 -697 683 -700C683 -703 680 -706 673 -710L614 -741C613 -688 611 -643 605 -606H552C530 -606 505 -608 482 -610L509 -574C534 -584 568 -584 602 -584C586 -496 550 -443 474 -376L481 -368C560 -417 603 -461 627 -524C669 -499 704 -460 717 -432C725 -416 735 -407 743 -407C755 -407 763 -419 763 -437C763 -441 763 -446 762 -450C756 -476 714 -508 631 -536C635 -551 639 -567 642 -584H768C778 -584 783 -586 783 -590C783 -593 779 -598 773 -605Z"/>
</svg>