<svg xmlns="http://www.w3.org/2000/svg" viewBox="0 -1000 1000 1000">
	<path fill="#000000" d="M390 -656C431 -608 462 -549 467 -511C471 -479 476 -473 484 -473C503 -473 519 -494 519 -521C519 -526 518 -531 517 -536C511 -564 480 -606 399 -664ZM567 -685C611 -638 633 -589 636 -542C637 -531 640 -527 644 -527C661 -527 684 -542 684 -571C684 -599 665 -632 575 -693ZM304 33C448 -81 546 -191 623 -348V-99C623 -55 622 -16 620 42V48C620 65 623 72 631 72C635 72 641 70 649 67C669 58 673 53 673 39V32C670 -13 669 -54 669 -104V-352H690C725 -199 780 -93 863 -12C866 -9 868 -8 871 -8C873 -8 876 -9 878 -11C897 -27 915 -34 941 -34C950 -34 960 -34 971 -32L973 -43C830 -86 762 -202 711 -352H952C957 -352 959 -354 959 -357C959 -359 958 -361 955 -364L890 -429L845 -374H669V-442L692 -454C696 -456 698 -458 698 -460C698 -462 697 -464 694 -465L619 -503C622 -470 623 -444 623 -374H424C405 -374 384 -375 363 -377C352 -407 316 -447 255 -486V-593H386C393 -593 397 -596 397 -600C397 -603 394 -608 389 -613L337 -662L304 -615H255V-779L280 -797C284 -799 286 -803 286 -806C286 -809 283 -813 279 -815L211 -847C213 -811 213 -786 213 -701V-615H110C87 -615 62 -617 37 -619L65 -582C82 -589 111 -593 132 -593H208C175 -452 114 -311 28 -162L41 -153C122 -259 177 -356 213 -466V-66C213 -23 211 27 208 66V70C208 78 210 81 214 81C218 81 223 79 230 75C251 62 255 56 255 41V-463C288 -429 306 -393 316 -346C321 -324 330 -313 341 -313C356 -313 368 -332 367 -357L379 -341C396 -348 425 -352 446 -352H571C526 -241 434 -119 295 23ZM841 -706C822 -652 770 -547 725 -475L738 -466C866 -638 877 -647 900 -649C906 -650 909 -651 909 -653C909 -655 907 -657 903 -660ZM845 -818C760 -788 543 -741 371 -715L372 -701C474 -707 637 -726 823 -757C836 -759 847 -760 857 -760C869 -760 880 -759 889 -756C891 -755 893 -755 894 -755C897 -755 899 -756 899 -758C899 -760 898 -762 896 -764Z"/>
</svg>