<svg xmlns="http://www.w3.org/2000/svg" viewBox="0 -1000 1000 1000">
	<path fill="#000000" d="M532 -853C502 -756 453 -655 362 -513L375 -506C420 -557 448 -596 490 -665H870C870 -288 862 -120 853 -81C842 -30 830 -8 784 -8C757 -8 719 -15 662 -29L658 -14C748 12 762 25 770 55C771 61 775 65 781 65C783 65 785 64 788 63C864 29 892 -9 898 -78C908 -190 915 -427 916 -647C949 -665 953 -667 953 -674C953 -678 949 -682 943 -687L884 -734L849 -687H503C518 -709 533 -734 549 -765C562 -790 574 -800 591 -805C598 -807 602 -809 602 -812C602 -815 598 -818 592 -821ZM249 -780L274 -798C279 -801 281 -804 281 -807C281 -810 278 -813 273 -816L205 -848C207 -829 207 -814 207 -702V-616H118C95 -616 70 -617 45 -620L73 -583C90 -590 113 -594 140 -594H193C156 -443 109 -319 25 -152L39 -143C109 -246 171 -378 207 -507V-75C207 -32 205 18 202 57V61C202 69 204 72 208 72C212 72 217 70 224 66C246 53 249 47 249 32V-462C289 -430 316 -390 322 -363C327 -340 336 -330 347 -330C364 -330 378 -347 378 -369C378 -405 340 -451 249 -483V-594H379C387 -594 390 -596 390 -600C390 -604 388 -608 382 -614L330 -663L297 -616H249ZM829 -342C838 -342 842 -345 842 -349C842 -352 840 -356 835 -361L783 -413L742 -364H606V-573C625 -585 627 -587 627 -590C627 -593 625 -596 621 -598L557 -631C559 -594 561 -526 561 -485V-364H460C437 -364 412 -366 387 -368L415 -331C432 -338 461 -342 482 -342H523C481 -257 419 -163 305 -37L317 -29C396 -93 494 -214 561 -324V-182C561 -125 559 -58 556 0V12C556 25 558 31 565 31C570 31 577 29 586 25C603 18 608 10 608 -6C608 -35 606 -163 606 -189V-281C668 -238 713 -185 724 -155C731 -135 738 -129 752 -129C766 -130 775 -144 775 -163C775 -209 713 -249 606 -296V-342ZM653 -381C718 -474 754 -508 776 -512C783 -513 787 -516 787 -519C787 -521 785 -524 781 -527L730 -567C705 -508 675 -447 642 -389ZM414 -528C445 -491 460 -453 462 -419C463 -405 471 -395 479 -395C496 -395 509 -416 509 -442C509 -457 508 -476 421 -537Z"/>
</svg>