<svg xmlns="http://www.w3.org/2000/svg" viewBox="0 -1000 1000 1000">
	<path fill="#000000" d="M243 -771L268 -789C273 -792 275 -795 275 -798C275 -801 272 -804 267 -807L199 -839C201 -803 201 -778 201 -693V-611H112C89 -611 64 -613 39 -615L67 -578C84 -585 113 -589 134 -589H192C152 -427 97 -296 21 -154L34 -145C99 -239 160 -357 201 -473V-75C201 -32 199 18 196 57V61C196 69 198 72 202 72C206 72 211 70 218 66C240 53 243 48 243 32V-462C278 -434 309 -392 316 -363C321 -340 330 -330 341 -330C359 -330 372 -348 372 -370C372 -420 296 -462 243 -483V-589H381C388 -589 391 -591 391 -595C391 -597 389 -602 384 -607L336 -660L299 -611H243ZM462 -659C509 -671 564 -686 588 -686C608 -686 609 -686 609 -691C609 -694 607 -698 603 -702L563 -740C534 -720 492 -696 462 -681L416 -719C418 -689 419 -644 419 -621V-408C419 -354 417 -299 416 -277C416 -272 415 -267 415 -263C415 -251 417 -246 424 -246C434 -246 462 -256 462 -276V-310H618C601 -147 513 -29 313 66L321 79C543 2 643 -127 661 -300C716 -79 849 44 865 44C869 44 874 41 879 35C893 18 915 10 960 6V-6C820 -30 746 -122 675 -310H836V-272C836 -264 838 -260 844 -260C848 -260 854 -261 863 -265C881 -272 885 -276 885 -293V-299C882 -344 880 -398 880 -474V-655C917 -672 918 -672 918 -677C918 -680 915 -683 909 -688L854 -733L823 -693H758C735 -693 717 -694 698 -697L724 -664C742 -670 759 -673 780 -673H836V-505H753C730 -505 712 -506 695 -509L719 -476C736 -483 754 -485 775 -485H836V-330H664C668 -401 672 -528 672 -751C672 -779 675 -784 691 -792C701 -797 706 -801 706 -804C706 -807 702 -811 694 -815L626 -851C628 -755 628 -676 628 -609C628 -477 625 -395 620 -330H462V-477H590C600 -477 604 -479 604 -482C604 -485 601 -489 596 -494L548 -543L518 -497H462Z"/>
</svg>