<svg xmlns="http://www.w3.org/2000/svg" viewBox="0 -1000 1000 1000">
	<path fill="#000000" d="M232 -783C257 -798 260 -800 260 -804C260 -806 258 -809 253 -811L185 -847C187 -810 189 -742 189 -701V-619H98C75 -619 50 -621 25 -623L53 -588C70 -595 99 -599 120 -599H176C141 -460 108 -365 26 -185L39 -177C111 -301 148 -380 189 -504V-119C189 -92 187 -12 184 57V64C184 76 186 82 192 82C196 82 203 79 213 74C230 65 234 61 234 47V40C232 -1 232 -80 232 -156V-479C280 -429 294 -407 299 -355C300 -344 312 -336 326 -336C340 -336 350 -348 350 -377C350 -409 324 -445 232 -502V-599H356C362 -599 365 -601 365 -604C365 -606 363 -609 360 -613L306 -671L274 -619H232ZM745 -204H666V-506C684 -520 686 -522 686 -526C686 -529 683 -532 679 -534L622 -560C624 -527 624 -492 624 -453V-218L593 -187L643 -149C646 -147 648 -146 651 -146C654 -146 657 -148 660 -153L675 -182H935C944 -182 949 -185 949 -189C949 -193 945 -198 938 -204L882 -252L847 -204H789V-463H947C958 -463 963 -466 963 -471C963 -475 960 -479 954 -485L895 -538L865 -485H789V-719C854 -738 879 -744 899 -744C904 -744 926 -740 931 -740C936 -740 938 -742 938 -745C938 -748 936 -753 931 -759L893 -806C800 -760 731 -734 590 -694L593 -679C662 -690 704 -698 745 -708ZM328 -294C349 -215 382 -154 420 -111C377 -38 335 9 249 77L259 87C346 35 403 -17 446 -84C537 2 632 36 869 50H873C884 50 889 46 892 38C898 17 907 8 971 -9V-22C905 -14 847 -11 795 -11C632 -11 531 -47 462 -111C505 -186 529 -252 557 -390C584 -411 587 -414 587 -418C587 -421 585 -424 580 -428L529 -466L507 -432H438L524 -651C538 -686 543 -692 559 -697C566 -699 570 -703 570 -707C570 -710 568 -713 564 -716L508 -757L490 -724H421C398 -724 373 -726 348 -728L376 -691C393 -698 422 -702 443 -702H499L416 -479C400 -437 393 -432 367 -427L398 -385C402 -380 406 -377 410 -377C417 -377 419 -380 435 -410H521C499 -277 473 -208 436 -138C402 -177 370 -226 341 -302Z"/>
</svg>