<svg xmlns="http://www.w3.org/2000/svg" viewBox="0 -1000 1000 1000">
	<path fill="#000000" d="M256 -781L282 -799C286 -802 288 -805 288 -808C288 -812 285 -815 281 -818L211 -851C212 -824 213 -776 213 -700V-618H118C95 -618 71 -619 46 -622L74 -586C90 -593 119 -597 140 -597H202C168 -438 125 -308 40 -150L51 -141C120 -239 171 -336 213 -471V-80C213 -35 210 24 207 56V61C207 68 210 73 215 73C219 73 225 70 232 66C253 52 256 47 256 31V-458C291 -424 307 -395 314 -361C319 -335 327 -327 338 -327C352 -327 366 -346 366 -371C366 -423 312 -455 256 -481V-597H402C409 -597 413 -599 413 -602C413 -605 410 -609 405 -614L353 -666L321 -618H256ZM978 -494C819 -552 734 -643 666 -796C674 -802 682 -805 691 -806C698 -807 702 -809 702 -811C702 -813 699 -816 693 -819L624 -855C577 -718 470 -548 366 -439L376 -430C480 -514 521 -557 644 -768C647 -774 650 -778 653 -782C687 -666 750 -571 875 -465C879 -462 882 -461 885 -461C888 -461 890 -462 894 -466C909 -480 922 -486 942 -486C951 -486 963 -485 977 -482ZM794 -143C787 -16 775 0 748 2C710 5 678 6 652 6C555 6 555 -5 555 -28V-196C577 -213 580 -215 580 -220C580 -223 576 -226 569 -229L505 -256C507 -227 508 -197 508 -172V-25C508 32 516 38 586 41C621 43 650 44 677 44C794 44 812 38 838 -16C839 -19 840 -21 840 -23C840 -26 838 -29 834 -32C816 -44 808 -69 809 -143ZM410 -249C400 -155 377 -110 334 -73C321 -63 316 -55 316 -47C316 -37 326 -20 343 -20C352 -20 363 -25 374 -34C409 -63 424 -111 424 -250ZM808 -245C864 -186 883 -135 895 -79C899 -59 905 -54 917 -54C930 -54 951 -74 951 -102C951 -146 905 -197 815 -254ZM603 -281C648 -223 652 -196 652 -154C652 -139 657 -134 668 -134C687 -134 703 -158 703 -184C703 -212 678 -243 612 -291ZM764 -479L731 -443L512 -440C491 -440 474 -441 456 -443L491 -408C510 -416 525 -418 548 -418L741 -421L666 -284L705 -273C728 -316 747 -350 776 -398C781 -407 790 -412 815 -418C823 -420 826 -422 826 -424C826 -427 824 -430 818 -435ZM596 -620C628 -577 638 -539 638 -496C638 -484 645 -477 655 -477C669 -477 690 -498 690 -523C690 -526 689 -530 688 -534C681 -560 655 -593 604 -627Z"/>
</svg>