<svg xmlns="http://www.w3.org/2000/svg" viewBox="0 -1000 1000 1000">
	<path fill="#000000" d="M397 -461C399 -427 400 -367 400 -330V-78C400 -38 400 -6 398 29V40C398 52 400 58 407 58C417 58 447 47 447 25C447 6 445 -75 445 -92V-199H540V-102C540 -85 538 -10 538 6C538 18 540 24 546 24C550 24 556 22 563 18C582 8 585 3 585 -10C584 -50 583 -89 583 -138V-199H677V-100C677 -84 675 -11 675 3C675 18 678 25 685 25C689 25 694 23 700 20C718 11 722 7 722 -4C722 -25 720 -117 720 -136V-199H824V-19C824 -5 822 1 800 1C787 1 766 -1 735 -5L732 12C777 26 794 46 799 72C800 79 802 83 806 83C808 83 810 82 813 80C865 54 869 44 869 -25V-360L900 -375C905 -378 908 -381 908 -384C908 -387 905 -391 900 -395L841 -444L808 -401H457ZM677 -221H583V-379H677ZM540 -221H445V-379H540ZM720 -221V-379H824V-221ZM744 -584L707 -541H520C497 -541 471 -543 445 -545L474 -508C492 -515 516 -519 543 -519H781C789 -519 793 -521 793 -525C793 -528 790 -533 785 -539ZM614 -859C537 -714 470 -626 316 -475L329 -467C459 -558 551 -654 648 -795C724 -587 882 -492 887 -492C889 -492 892 -494 895 -497C915 -515 940 -522 986 -521V-537C844 -551 717 -671 665 -804C695 -811 698 -812 698 -816C698 -818 694 -821 687 -824ZM228 -601H358C367 -601 372 -602 372 -606C372 -609 368 -614 362 -621L321 -666L284 -623H228V-802C259 -819 263 -821 263 -824C263 -826 259 -829 253 -832L179 -867C181 -830 183 -765 183 -724V-623H111C88 -623 62 -625 36 -627L65 -590C83 -597 112 -601 134 -601H183C183 -570 108 -309 25 -170L38 -164C98 -241 147 -334 183 -444V-151C183 -94 181 -11 178 47V60C178 73 180 79 187 79C191 79 197 77 206 73C225 65 230 60 230 44C230 11 228 -133 228 -162V-473C272 -438 295 -399 300 -369C302 -356 308 -347 318 -347C332 -347 347 -367 347 -395C343 -430 315 -456 228 -493Z"/>
</svg>