<svg xmlns="http://www.w3.org/2000/svg" viewBox="0 -1000 1000 1000">
	<path fill="#000000" d="M273 -748L245 -705H137L76 -755C78 -724 79 -676 79 -652V-351C79 -300 78 -253 76 -200V-191C76 -176 78 -171 85 -171C89 -171 95 -173 104 -176C123 -183 125 -186 125 -199V-291H258V-209C258 -202 259 -198 265 -198C268 -198 275 -199 284 -203C305 -211 309 -215 309 -228V-234C306 -274 304 -333 304 -384V-671L332 -687C338 -691 341 -693 341 -696C341 -699 338 -702 332 -706ZM125 -313V-683H258V-313ZM881 -497L839 -444H469V-562H769V-529C769 -521 770 -516 776 -516C779 -516 785 -518 795 -522C813 -529 819 -535 819 -552C819 -553 815 -621 815 -634V-707L847 -727C853 -731 856 -734 856 -736C856 -739 853 -741 847 -745L782 -788L758 -742H567C617 -814 628 -822 652 -830C658 -832 661 -834 661 -836C661 -838 658 -840 652 -843L588 -878C575 -832 559 -781 543 -742H480L421 -791C423 -760 424 -712 424 -688V-402C424 -349 423 -313 421 -275V-262C421 -249 423 -244 430 -244C434 -244 441 -246 450 -249C469 -256 469 -259 469 -285H851C847 -199 840 -123 833 -71C828 -33 819 -19 770 -19C743 -19 705 -23 649 -30L645 -12C750 6 771 23 778 61C779 68 782 70 785 70C786 70 788 70 790 69C854 34 869 11 876 -44C885 -112 890 -162 897 -272L931 -295C936 -299 939 -301 939 -303C939 -305 936 -307 931 -310L862 -353L835 -307H469V-422H931C940 -422 945 -423 945 -426C945 -429 941 -434 933 -442ZM469 -584V-720H769V-584ZM681 -239C711 -206 739 -156 742 -141C747 -116 754 -106 765 -106C782 -106 798 -122 798 -144C798 -179 743 -223 688 -250ZM557 -229C596 -182 608 -140 608 -123C608 -97 619 -90 630 -90C652 -90 664 -112 664 -130C664 -152 649 -191 567 -239ZM441 -215C463 -173 472 -132 472 -99C472 -68 478 -63 491 -63C510 -63 530 -88 530 -107C530 -128 515 -164 454 -224ZM354 -226C360 -152 322 -94 299 -72C283 -56 277 -46 277 -37C277 -31 282 -11 307 -11C339 -11 383 -43 383 -123C383 -150 379 -183 371 -227Z"/>
</svg>