<svg xmlns="http://www.w3.org/2000/svg" viewBox="0 -1000 1000 1000">
	<path fill="#000000" d="M777 -594V-491H476V-594ZM777 -469C777 -431 777 -427 785 -427C790 -427 796 -429 805 -433C820 -440 825 -446 825 -461C825 -473 823 -528 823 -539V-578C851 -595 854 -597 854 -602C854 -606 852 -609 846 -613L790 -655L765 -616H490L430 -657C432 -638 433 -612 433 -583V-532C433 -501 432 -475 430 -452V-444C430 -437 431 -433 437 -433C441 -433 447 -435 456 -439C473 -446 476 -451 476 -469ZM614 -35C614 -12 612 0 582 0C557 0 515 -8 441 -22L435 -5C555 31 569 44 574 71C575 79 579 82 584 82C586 82 588 81 591 80C656 49 661 38 661 -43V-224H854C864 -224 870 -226 870 -230C870 -234 866 -239 858 -246L808 -291L775 -246H458C435 -246 410 -247 385 -250L413 -213C430 -220 459 -224 480 -224H614ZM379 -435C363 -349 353 -328 316 -301C298 -288 292 -277 292 -267C292 -251 301 -242 317 -242C335 -242 381 -260 393 -357H882L836 -273L848 -263C914 -336 927 -343 957 -343C965 -343 970 -348 970 -354C970 -359 967 -364 962 -368L897 -417L872 -379H395C396 -394 395 -408 394 -436ZM530 -843C573 -818 605 -774 609 -747C611 -733 621 -722 632 -722C655 -722 666 -739 666 -758C666 -782 649 -822 533 -854ZM877 -775L841 -719H393C363 -719 345 -720 320 -723L348 -686C365 -693 394 -697 415 -697H934C944 -697 949 -699 949 -703C949 -707 945 -712 938 -719ZM228 -782C253 -801 255 -803 255 -807C255 -810 253 -812 249 -814L179 -845C181 -808 183 -740 183 -699V-616H103C80 -616 55 -617 30 -620L58 -584C75 -591 104 -595 125 -595H175C148 -482 97 -325 35 -203L46 -196C97 -276 145 -374 183 -478V-167C183 -110 181 -3 178 55V67C178 79 179 84 184 84C187 84 230 63 230 42V38C228 -7 228 -19 228 -178V-517C264 -483 273 -462 282 -413C286 -392 293 -384 312 -384C328 -384 338 -406 338 -429C334 -461 315 -491 228 -542V-595H345C351 -595 354 -597 354 -601C354 -603 352 -607 349 -610L301 -662L270 -616H228Z"/>
</svg>