<svg xmlns="http://www.w3.org/2000/svg" viewBox="0 -1000 1000 1000">
	<path fill="#000000" d="M824 -775L798 -734H590C621 -793 640 -812 657 -817C661 -818 664 -820 664 -822C664 -824 662 -826 658 -828L602 -859C595 -827 586 -787 572 -734H506L449 -777C450 -745 451 -697 451 -673V-472C451 -435 450 -377 448 -337V-331C448 -320 450 -316 457 -316C468 -316 498 -323 498 -337V-350H811C811 -322 811 -319 819 -319C823 -319 829 -321 839 -325C858 -333 863 -337 863 -349C863 -352 862 -355 862 -359C859 -393 858 -441 858 -494V-695L889 -713C893 -716 895 -718 895 -721C895 -723 893 -726 889 -729ZM498 -497V-596H811V-497ZM498 -618V-712H811V-618ZM498 -372V-475H811V-372ZM303 -742L277 -701H164L106 -747C108 -716 109 -668 109 -644V-378C109 -321 108 -231 106 -172V-161C106 -146 107 -140 114 -140C123 -140 156 -150 156 -171V-264H287V-203C287 -195 288 -190 294 -190C298 -190 304 -192 314 -196C335 -205 339 -209 339 -223V-230C336 -275 334 -337 334 -413V-664L358 -679C363 -682 366 -685 366 -688C366 -691 363 -694 358 -698ZM156 -286V-679H287V-286ZM700 -315C741 -285 757 -262 766 -236C770 -225 777 -219 788 -219C803 -219 813 -233 813 -249C813 -279 781 -301 705 -324ZM960 22C828 1 733 -48 663 -181H939C948 -181 953 -182 953 -186C953 -189 950 -193 943 -200L887 -255L852 -203H632L638 -236C642 -265 644 -267 661 -274C667 -276 670 -279 670 -281C670 -283 667 -285 661 -288L594 -320C593 -271 590 -240 582 -203H430C407 -203 382 -205 357 -207L385 -170C402 -177 431 -181 452 -181H577C547 -64 477 -4 256 82L259 93C475 48 586 -39 626 -181H644C696 -64 729 -20 862 69C865 71 867 72 868 72C870 72 872 70 874 67C892 41 910 35 960 35Z"/>
</svg>