<svg xmlns="http://www.w3.org/2000/svg" viewBox="0 -1000 1000 1000">
	<path fill="#000000" d="M985 1C890 -20 819 -62 769 -124C804 -176 830 -232 858 -336C863 -356 871 -368 895 -380C900 -383 903 -385 903 -388C903 -390 901 -392 897 -395L840 -440L808 -399H674C651 -399 626 -400 601 -403L629 -366C633 -369 637 -370 642 -370C655 -269 678 -188 719 -121C663 -46 586 10 456 67L459 81C592 44 678 -10 743 -88C797 -16 884 45 892 45C895 45 897 44 898 42C915 22 940 14 983 14ZM743 -158C705 -216 677 -287 660 -374C672 -377 682 -377 817 -377C801 -284 773 -209 743 -158ZM418 -563V-743H543V-563ZM369 -812C371 -780 373 -724 373 -683V-157C373 -124 370 23 370 53C370 66 373 71 380 71C391 71 418 62 418 42V-194H604C610 -194 613 -195 613 -198C613 -201 611 -205 606 -210L559 -262L519 -216H418V-379H576C582 -379 585 -381 585 -384C585 -386 583 -389 580 -393L533 -446L497 -401H418V-541H543V-499C543 -492 544 -488 549 -488C557 -488 591 -498 591 -516C591 -519 590 -522 590 -525C588 -547 587 -577 587 -615V-731L611 -750C614 -753 616 -756 616 -758C616 -761 614 -764 610 -767L554 -806L525 -765H431ZM233 -594H356C363 -594 367 -596 367 -599C367 -602 364 -606 359 -611L309 -661L272 -614H233V-772L263 -788C269 -791 273 -794 273 -797C273 -801 269 -804 262 -808L187 -850C189 -813 191 -732 191 -691V-614H106C83 -614 58 -615 33 -618L62 -583C79 -590 108 -594 129 -594H183C145 -447 95 -316 27 -189L39 -181C96 -263 151 -370 191 -479V-138C191 -32 190 -3 187 47V58C187 74 189 80 196 80C201 80 207 77 215 73C232 64 235 58 235 41V33C234 6 233 -36 233 -152V-477C263 -453 279 -423 282 -400C286 -375 293 -368 304 -368C319 -368 337 -389 337 -414C337 -438 314 -466 233 -498ZM696 -558C673 -558 648 -559 623 -562L651 -525C668 -532 694 -536 718 -536H824V-495C824 -489 825 -485 831 -485C835 -485 841 -487 851 -491C868 -498 872 -502 872 -514V-520C870 -542 869 -571 869 -612V-727L896 -745C901 -748 904 -751 904 -754C904 -757 901 -760 896 -764L839 -809L805 -763H711C688 -763 663 -764 638 -767L666 -730C683 -737 710 -741 733 -741H824V-558Z"/>
</svg>