<svg xmlns="http://www.w3.org/2000/svg" viewBox="0 -1000 1000 1000">
	<path fill="#000000" d="M979 -580C860 -587 723 -635 633 -807C637 -808 641 -808 645 -808C649 -808 651 -810 651 -812C651 -814 649 -817 645 -819L585 -861C509 -723 414 -606 294 -481L304 -470C333 -492 363 -518 394 -547C397 -508 398 -459 398 -410C398 -247 398 -132 200 56L213 65C343 -28 422 -135 438 -269H766C766 -238 766 -235 773 -235C773 -235 817 -248 817 -267C817 -268 813 -330 813 -342V-487C840 -502 844 -504 844 -508C844 -510 841 -513 837 -516L779 -560L752 -516H455L404 -557C482 -634 560 -725 614 -797C677 -663 747 -593 876 -526C879 -524 881 -524 884 -524C887 -524 889 -525 891 -528C907 -551 928 -559 980 -564ZM445 -400C446 -425 446 -456 446 -495H766V-400ZM440 -291C443 -317 444 -343 445 -378H766V-291ZM258 -727L231 -689H132L73 -742C75 -715 76 -652 76 -602V-324C76 -248 74 -187 71 -158V-152C71 -146 73 -143 79 -143C84 -143 92 -145 105 -150C121 -156 123 -162 123 -172V-275H244V-199C244 -190 245 -185 250 -185C252 -185 295 -198 295 -216V-219C293 -237 291 -300 291 -351V-655L321 -671C325 -673 327 -675 327 -677C327 -680 324 -683 320 -686ZM123 -297V-667H244V-297ZM786 -219L762 -180H487L430 -217C432 -192 432 -171 432 -127V-26C432 12 430 46 427 75V81C427 87 429 90 435 90C439 90 446 88 456 85C477 77 479 73 479 61V2H777V60C777 69 778 73 784 73C786 73 828 61 828 42C828 40 824 -21 824 -33V-150L850 -169C855 -172 857 -175 857 -178C857 -181 854 -184 849 -187ZM479 -19V-158H777V-19ZM535 -666C573 -633 590 -600 595 -565C598 -552 608 -547 620 -547C638 -547 656 -570 656 -593C656 -625 611 -652 540 -678Z"/>
</svg>