<svg xmlns="http://www.w3.org/2000/svg" viewBox="0 -1000 1000 1000">
	<path fill="#000000" d="M798 -242C769 -176 734 -128 684 -84C632 -121 592 -171 560 -242ZM469 -512C446 -512 421 -514 396 -516L424 -479C441 -486 470 -490 491 -490H561C554 -451 548 -415 539 -382H450C427 -382 402 -384 377 -386L405 -347C422 -354 451 -358 472 -358H533C486 -186 410 -70 270 61L279 71C421 -50 488 -131 537 -242C572 -155 605 -106 657 -62C586 -9 492 31 363 66L365 79C506 51 610 15 687 -37C761 13 868 53 875 53C879 53 882 51 884 47C897 21 924 11 964 11V-2C864 -10 784 -28 720 -62C767 -100 803 -145 831 -200C843 -224 860 -235 880 -238C888 -239 891 -241 891 -243C891 -246 889 -249 883 -253L824 -297L795 -264H547C558 -293 569 -324 579 -358H957C965 -358 969 -359 969 -362C969 -365 966 -370 960 -376L906 -434L863 -382H586C595 -415 603 -450 611 -490H917C925 -490 929 -491 929 -494C929 -497 926 -502 920 -508L870 -562L831 -512H758C866 -675 872 -680 902 -687C906 -688 908 -689 908 -691C908 -693 905 -695 901 -697L830 -732C805 -660 771 -580 737 -512ZM419 -689C462 -653 482 -624 489 -578C493 -553 503 -545 512 -545C528 -545 540 -564 540 -584C540 -600 530 -646 425 -699ZM586 -706C618 -673 634 -642 646 -590C651 -567 657 -562 668 -562C686 -562 695 -572 695 -593C695 -631 678 -661 595 -715ZM869 -834C748 -799 576 -770 378 -749L379 -734C527 -741 604 -748 783 -768C812 -771 836 -773 855 -773C878 -773 895 -771 910 -766C912 -765 914 -765 916 -765C917 -765 918 -766 918 -767C918 -769 917 -771 915 -774ZM253 -781L278 -799C283 -802 285 -805 285 -808C285 -811 282 -814 277 -817L205 -849C210 -813 211 -780 211 -703V-613H119C96 -613 71 -615 46 -617L74 -578C91 -585 120 -589 141 -589H193C166 -440 113 -319 22 -156L33 -147C99 -239 168 -363 211 -484V-58C211 -15 209 35 206 74V78C206 86 208 89 212 89C216 89 221 87 228 83C251 69 253 65 253 49V-465C285 -432 309 -390 313 -361C316 -338 324 -326 335 -326C353 -326 367 -341 367 -364C367 -399 331 -447 253 -488V-589H399C406 -589 410 -592 410 -596C410 -600 407 -604 402 -609L350 -658L317 -613H253Z"/>
</svg>