<svg xmlns="http://www.w3.org/2000/svg" viewBox="0 -1000 1000 1000">
	<path fill="#000000" d="M565 -603L517 -644C518 -631 519 -593 519 -577V-400C519 -380 517 -292 517 -274C517 -265 519 -260 525 -260C529 -260 536 -262 545 -268C565 -198 598 -135 635 -93C609 -36 567 8 445 79L449 92C578 32 623 -5 660 -68C752 21 885 60 890 60C893 60 895 58 896 56C900 41 924 31 978 29V17C866 11 764 -26 679 -104C697 -144 710 -204 718 -304H840V-265C840 -257 841 -253 846 -253C847 -253 887 -267 887 -285V-288C885 -321 884 -362 884 -417V-565C909 -583 912 -585 912 -588C912 -590 910 -593 908 -595L855 -645L828 -603H724V-727H933C940 -727 943 -729 943 -732C943 -735 942 -738 939 -741L889 -805L850 -749H551C532 -749 512 -750 492 -753L515 -716C528 -723 551 -727 568 -727H680C681 -682 681 -641 681 -603ZM562 -326V-447H680C680 -400 679 -360 678 -326ZM562 -581H681C681 -539 681 -500 680 -469H562ZM840 -326H719C722 -355 723 -401 724 -447H840ZM840 -581V-469H724C725 -502 725 -541 724 -581ZM677 -304C673 -209 665 -168 651 -131C620 -165 584 -215 557 -275C562 -277 562 -280 562 -304ZM390 -125C390 -97 388 28 388 54C388 65 390 71 397 71C401 71 408 68 419 63C432 57 436 50 436 33V28C434 -19 433 -71 433 -135V-532C436 -535 452 -556 452 -558C452 -561 450 -562 446 -564L411 -578C430 -620 450 -671 479 -748C488 -772 495 -781 510 -788C517 -791 520 -794 520 -798C520 -801 517 -804 512 -807L464 -839C417 -672 389 -589 309 -430C293 -442 273 -453 248 -463V-594H365C373 -594 376 -595 376 -598C376 -600 374 -604 369 -609L321 -661L290 -615H248V-781C274 -801 277 -803 277 -806C277 -809 274 -811 269 -813L200 -844C202 -807 204 -739 204 -698V-615H114C91 -615 66 -617 41 -619L69 -583C86 -590 115 -594 136 -594H184C158 -480 106 -344 33 -196L44 -189C121 -308 165 -394 204 -503V-160C204 -103 202 4 199 62V73C199 86 200 91 206 91C209 91 250 72 250 48V45C248 0 248 -95 248 -171V-445C273 -420 297 -380 302 -357C307 -336 314 -328 324 -328C337 -328 350 -345 350 -370C350 -389 339 -405 320 -421C350 -467 371 -500 390 -535Z"/>
</svg>