<svg xmlns="http://www.w3.org/2000/svg" viewBox="0 -1000 1000 1000">
	<path fill="#000000" d="M513 -500C515 -469 516 -423 516 -396V-100C516 -48 515 -9 513 50V56C513 67 515 71 522 71C533 71 562 62 562 41V-7H832V52C832 60 833 65 839 65C843 65 849 63 859 59C879 51 885 46 885 33C885 31 884 28 884 25C881 -7 879 -40 879 -116V-413L907 -429C911 -431 913 -434 913 -436C913 -439 911 -441 906 -445L846 -489L818 -449H692L702 -573H959C966 -573 969 -574 969 -577C969 -579 967 -583 961 -588L898 -647L860 -594H704L710 -665C739 -679 742 -681 742 -685C742 -688 740 -690 737 -692L671 -732C670 -696 666 -635 663 -594H540C517 -594 492 -596 467 -598L495 -562C512 -569 541 -573 562 -573H661L651 -449H571ZM832 -181H562V-297H832ZM562 -28V-160H832V-28ZM562 -428H832V-318H562ZM251 -779L276 -797C281 -800 283 -803 283 -806C283 -810 280 -813 275 -815L207 -847C209 -811 209 -786 209 -701V-621H119C96 -621 71 -623 46 -625L74 -588C91 -595 120 -599 141 -599H199C169 -458 121 -321 36 -153L49 -145C115 -241 172 -366 209 -487V-94C209 -51 207 -1 204 38V42C204 50 206 53 210 53C214 53 219 51 226 47C247 34 251 29 251 13V-460C287 -425 313 -378 317 -350C321 -322 330 -315 340 -315C354 -315 368 -332 368 -355C368 -384 348 -430 251 -480V-599H380C386 -599 389 -602 389 -605C389 -609 387 -613 383 -617L331 -668L298 -621H251ZM860 -833C775 -801 596 -759 468 -740L411 -794C413 -757 414 -713 414 -662V-502C414 -217 365 -72 251 67L260 75C387 -39 460 -205 460 -504V-724C569 -732 647 -741 813 -768C829 -771 845 -772 861 -772C876 -772 891 -771 904 -768C906 -768 907 -767 908 -767C911 -767 912 -768 912 -770C912 -772 911 -775 908 -778Z"/>
</svg>