<svg xmlns="http://www.w3.org/2000/svg" viewBox="0 -1000 1000 1000">
	<path fill="#000000" d="M267 -387H734V-289H267ZM962 -22C784 -27 691 -62 572 -170H920C927 -170 930 -171 930 -174C930 -176 927 -180 921 -187L862 -250L827 -193H521V-265H734C734 -240 734 -237 741 -237C751 -237 777 -250 777 -266C777 -275 776 -315 776 -323V-385C797 -398 799 -400 799 -403C799 -406 797 -409 793 -412L746 -444L717 -411H269L255 -418C424 -455 515 -500 559 -563C721 -507 768 -480 796 -442C808 -426 823 -415 831 -415C844 -415 853 -428 853 -444C853 -495 777 -530 569 -578C581 -598 589 -617 598 -645L624 -665C627 -667 628 -669 628 -671C628 -673 626 -675 622 -676L560 -690C530 -557 460 -494 234 -428L223 -433C224 -416 225 -398 225 -386V-292C225 -283 223 -245 223 -237C223 -232 224 -229 228 -229C229 -229 267 -241 267 -258V-265H479V-193H156C137 -193 124 -194 86 -199L112 -156C129 -165 155 -170 178 -170H416C344 -88 234 -10 49 53L52 68C239 17 385 -65 479 -170V-79C479 -8 479 19 477 53C477 58 476 63 476 67C476 79 478 84 484 84C488 84 494 81 503 76C519 68 523 63 523 47C523 26 521 -70 521 -89V-170H545C624 -74 694 -23 863 44C866 45 869 46 871 46C875 46 878 44 879 41C893 10 915 -4 962 -12ZM493 -852C435 -732 419 -707 300 -553L310 -543C366 -599 418 -656 467 -717H812L757 -629L765 -624C821 -684 860 -706 889 -709C895 -710 898 -711 898 -713C898 -714 896 -716 893 -719L829 -776L802 -739H484C496 -754 508 -769 519 -784C524 -791 539 -801 549 -803C555 -804 558 -806 558 -808C558 -811 556 -813 551 -816ZM360 -768L196 -614C173 -592 148 -583 112 -583C95 -583 75 -585 52 -589L47 -573C141 -549 141 -541 141 -519C141 -507 129 -456 129 -445C129 -422 140 -411 156 -411C176 -411 187 -421 187 -446C187 -456 179 -501 179 -510C179 -536 190 -555 216 -584L371 -758ZM95 -814C146 -793 195 -754 204 -731C210 -716 219 -711 228 -711C241 -711 252 -726 252 -744C252 -750 251 -756 248 -762C237 -784 187 -812 101 -824Z"/>
</svg>