<svg xmlns="http://www.w3.org/2000/svg" viewBox="0 -1000 1000 1000">
	<path fill="#000000" d="M117 -828C118 -807 119 -763 119 -732V-400C119 -369 111 -365 84 -348L122 -300C124 -297 126 -296 129 -296C132 -296 135 -298 138 -303C147 -316 193 -351 213 -362L348 -433C365 -413 378 -392 387 -370C393 -355 399 -352 412 -352C425 -352 433 -368 433 -386C433 -435 333 -488 275 -510L269 -500C293 -483 314 -467 332 -449L161 -377V-545H370C370 -512 370 -509 376 -509C381 -509 418 -521 418 -537C418 -558 415 -652 415 -671V-750L441 -768C445 -771 447 -773 447 -776C447 -779 444 -782 440 -785L389 -818L362 -780H176ZM370 -564H161V-653H370ZM161 -761H370V-672H161ZM522 -278C527 -281 548 -297 548 -299C548 -301 546 -303 541 -305L471 -331C475 -264 475 -257 475 -231H125C102 -231 77 -233 52 -235L80 -196C97 -203 126 -207 147 -207H384C307 -110 169 -15 33 48L39 61C204 4 325 -71 449 -207H475V-80C475 -23 473 18 470 74V78C470 85 471 88 476 88C481 88 488 86 499 81C520 72 524 68 524 54C524 31 522 -68 522 -88V-207H561C629 -87 707 -28 863 30C867 32 870 32 873 32C877 32 880 31 882 28C894 8 913 -7 967 -14V-27C804 -38 666 -97 583 -207H931C937 -207 940 -208 940 -211C940 -214 938 -217 934 -221L872 -283L830 -231H522ZM888 -759C895 -759 899 -761 899 -765C899 -768 896 -772 890 -778L842 -823L803 -778H549C526 -778 501 -780 476 -782L504 -748C521 -755 550 -759 571 -759H668C665 -670 654 -624 637 -582H529L559 -676L581 -685C585 -687 586 -688 586 -690C586 -692 585 -694 581 -696L531 -723C529 -710 525 -692 519 -675L491 -593L457 -580L503 -537C505 -536 508 -535 510 -535C512 -535 514 -536 516 -538L532 -561H629C585 -457 512 -382 385 -311L394 -298C547 -375 625 -439 672 -561H919C925 -561 928 -563 928 -566C928 -569 926 -572 922 -576L869 -630L833 -582H679C695 -623 707 -673 712 -759ZM890 -495C890 -469 886 -432 885 -409C883 -373 873 -364 783 -364C726 -364 719 -369 719 -401V-487C743 -501 746 -503 746 -507C746 -511 743 -514 738 -516L677 -536C678 -520 678 -504 678 -479V-411C678 -335 684 -328 789 -328C902 -328 914 -332 938 -384C939 -386 940 -388 940 -389C940 -392 938 -394 934 -397C911 -410 908 -422 904 -495Z"/>
</svg>