<svg xmlns="http://www.w3.org/2000/svg" viewBox="0 -1000 1000 1000">
	<path fill="#000000" d="M949 -232C955 -232 958 -234 958 -237C958 -239 956 -243 952 -248L910 -293L877 -253H473C455 -253 431 -254 415 -256C430 -371 434 -486 434 -602H585C586 -583 587 -552 587 -533V-490L524 -481C497 -477 477 -476 453 -476L482 -446C495 -454 520 -459 548 -463L587 -468V-424C587 -367 596 -363 777 -363C866 -363 890 -369 908 -412C909 -415 910 -417 910 -419C910 -422 908 -424 905 -425C883 -432 875 -443 876 -498L862 -499C857 -401 848 -401 769 -401C735 -401 693 -402 673 -403C636 -406 628 -412 628 -440V-473L820 -497C828 -498 832 -500 832 -503C832 -505 828 -509 822 -513L770 -550L746 -512L628 -496V-550C641 -557 652 -564 652 -567C652 -570 649 -572 644 -575L589 -602H871L831 -531L841 -524C891 -577 919 -593 943 -593C945 -593 957 -591 959 -591C964 -591 967 -593 967 -596C967 -599 964 -603 958 -608L899 -659L867 -624H666V-715H881C892 -715 897 -716 897 -720C897 -723 893 -727 885 -735L839 -781L803 -737H666V-786C693 -802 696 -803 696 -808C696 -811 692 -814 684 -818L618 -844C620 -807 621 -764 621 -723V-624H439L388 -661C395 -207 357 -72 263 70L276 83C355 -11 393 -95 414 -250L438 -221C448 -227 480 -232 499 -232H533C567 -156 594 -118 658 -53C595 -6 493 41 384 69L387 81C504 63 612 22 685 -33C758 20 889 69 893 69C898 69 901 66 902 60C907 38 923 24 971 19V5C876 5 790 -13 714 -58C769 -111 808 -170 832 -232ZM787 -232C770 -177 730 -114 686 -76C638 -112 595 -159 555 -232ZM615 -343C647 -323 656 -309 657 -294C659 -269 666 -259 680 -259C696 -259 708 -270 708 -289C708 -323 674 -343 622 -357ZM241 -782C267 -802 270 -804 270 -807C270 -810 267 -812 262 -814L192 -845C194 -808 196 -740 196 -699V-616H101C78 -616 53 -617 28 -620L56 -584C73 -591 102 -595 123 -595H184C149 -454 108 -341 29 -191L40 -184C108 -281 155 -371 196 -489V-167C196 -110 194 -3 191 55V68C191 79 192 85 197 85C201 85 243 63 243 41V38C241 -7 241 -102 241 -178V-443C264 -418 285 -382 290 -361C295 -340 302 -332 312 -332C329 -333 338 -345 338 -369C338 -394 331 -426 241 -465V-595H352C360 -595 363 -596 363 -599C363 -601 361 -605 356 -610L308 -662L277 -616H241Z"/>
</svg>