<svg xmlns="http://www.w3.org/2000/svg" viewBox="0 -1000 1000 1000">
	<path fill="#000000" d="M227 -780C253 -800 256 -802 256 -805C256 -807 253 -809 248 -812L179 -843C181 -806 183 -738 183 -697V-614H101C78 -614 54 -616 29 -618L57 -582C74 -589 102 -593 123 -593H160C137 -478 83 -321 28 -201L39 -194C91 -278 145 -393 183 -501V-169C183 -112 181 -5 178 53V65C178 77 179 83 185 83C187 83 229 62 229 39V36C227 -9 227 -104 227 -180V-455C253 -431 277 -390 283 -366C287 -345 294 -337 304 -337C319 -337 330 -352 330 -376C330 -414 297 -443 227 -473V-593H337C343 -593 346 -594 346 -597C346 -600 344 -603 340 -608L293 -660L263 -614H227ZM561 -682C524 -481 467 -412 315 -299L323 -289C480 -371 545 -443 600 -644C604 -658 613 -669 630 -677C636 -680 638 -682 638 -685C638 -688 636 -692 630 -696L578 -739L553 -703H454C462 -722 471 -743 481 -766C488 -785 496 -792 516 -799C522 -801 524 -803 524 -805C524 -808 522 -810 516 -813L458 -845C420 -707 384 -623 312 -499L325 -490C356 -529 380 -563 402 -601C420 -577 430 -546 430 -519C430 -488 430 -478 442 -478C459 -478 477 -501 477 -527C477 -549 467 -572 412 -618C423 -637 433 -658 444 -682ZM649 -342C675 -357 678 -359 678 -363C678 -366 674 -368 668 -372L602 -409C604 -375 606 -332 606 -296V-266H416C393 -266 368 -267 344 -270L371 -233C388 -240 417 -244 437 -244H556C486 -130 404 -44 270 46L278 57C443 -35 489 -72 606 -237V-110C606 -81 603 47 603 73C603 82 605 87 612 87C622 87 651 78 651 58C651 29 649 -102 649 -129V-244H669C700 -136 749 -62 853 16C856 18 859 19 861 19C863 19 865 18 867 16C888 -6 903 -11 958 -11V-25C825 -44 735 -120 687 -244H918C926 -244 930 -245 930 -249C930 -252 927 -257 921 -263L869 -314L834 -266H649ZM924 -677C932 -677 936 -678 936 -681C936 -684 933 -688 928 -694L882 -744L851 -699H809V-783C831 -797 834 -798 834 -802C834 -804 830 -807 822 -811L763 -844C765 -810 767 -775 767 -738V-699H710C687 -699 662 -700 638 -703L665 -666C682 -673 711 -677 731 -677H767V-510H657L678 -578C703 -586 706 -587 706 -590C706 -592 703 -595 699 -599L653 -639C652 -623 648 -601 642 -584L623 -524L588 -503L635 -468C637 -467 638 -466 640 -466C645 -466 647 -469 665 -489H767C767 -448 766 -391 764 -340V-332C764 -319 766 -314 771 -314C775 -314 780 -316 788 -319C808 -328 812 -333 812 -345V-350C810 -382 809 -434 809 -489H942C952 -489 956 -490 956 -493C956 -496 953 -500 945 -508L898 -557L865 -510H809V-677Z"/>
</svg>