<svg xmlns="http://www.w3.org/2000/svg" viewBox="0 -1000 1000 1000">
	<path fill="#000000" d="M893 -710L865 -675H665V-761H874C882 -761 886 -762 886 -765C886 -767 884 -770 879 -775L824 -829L789 -782H459C441 -782 422 -784 403 -786L424 -751C437 -757 460 -761 476 -761H621V-675H432C432 -688 430 -702 428 -717H415C406 -658 393 -629 368 -600C354 -584 349 -576 349 -570C349 -563 359 -551 378 -551C407 -551 433 -580 433 -654H621V-563C621 -546 619 -470 619 -457C619 -442 621 -437 627 -437C631 -437 637 -439 645 -442C663 -450 666 -453 666 -465V-472C665 -488 665 -516 665 -561V-654H872L827 -583L838 -577C898 -636 916 -646 954 -651C959 -652 962 -653 962 -655C962 -658 960 -660 956 -663ZM584 -567H437V-547H584ZM871 -566H720V-546H871ZM871 -483H724V-463H871ZM575 -480H435V-460H575ZM236 -599H342C348 -599 351 -600 351 -603C351 -604 349 -607 346 -611L300 -667L264 -620H236V-790L260 -804C264 -806 267 -809 267 -811C267 -813 264 -815 259 -818L188 -854C190 -817 192 -763 192 -708V-620H103C80 -620 55 -622 30 -624L58 -588C75 -595 104 -599 125 -599H192C150 -440 99 -308 27 -166L39 -159C104 -261 153 -365 192 -472V-164C192 -107 190 -28 187 42C187 47 186 52 186 56C186 69 189 74 195 74C199 74 205 72 214 68C235 59 238 55 238 42V34C236 -11 236 -86 236 -162V-474C275 -447 294 -420 312 -386C323 -365 325 -362 331 -362C346 -362 358 -380 358 -400C358 -442 310 -465 236 -491ZM826 -414L791 -368H454C431 -368 406 -370 381 -372L409 -336C426 -343 455 -347 476 -347H868C872 -347 875 -348 875 -351C875 -353 873 -355 871 -358ZM893 -313L857 -263H385C362 -263 337 -265 312 -267L340 -231C357 -238 386 -242 407 -242H524L497 -171L460 -150L508 -111C511 -108 513 -107 516 -107C520 -107 522 -110 543 -134H782C775 -91 766 -53 756 -22C749 0 739 14 703 14C675 14 632 6 563 -14L561 1C656 33 670 47 676 83C677 89 678 91 682 91C684 91 686 91 688 90C783 56 796 43 824 -110L855 -126C859 -128 862 -130 862 -133C862 -135 861 -138 857 -141L802 -188L775 -154H536L570 -242H940C946 -242 949 -243 949 -246C949 -248 947 -251 944 -255Z"/>
</svg>