<svg xmlns="http://www.w3.org/2000/svg" viewBox="0 -1000 1000 1000">
	<path fill="#000000" d="M659 -81H893C902 -81 907 -83 907 -87C907 -90 903 -95 897 -101L843 -151L805 -101H659V-197H821C821 -166 821 -163 828 -163C832 -163 839 -165 848 -170C865 -178 870 -183 870 -199V-204C868 -234 867 -262 867 -303V-414L894 -433C899 -437 902 -440 902 -443C902 -446 899 -450 892 -454L835 -492L811 -452H455L397 -493C399 -467 400 -439 400 -407V-282C400 -245 399 -193 397 -170V-165C397 -156 399 -153 404 -153C408 -153 413 -154 420 -157C439 -164 443 -169 443 -197H615V-101H450C427 -101 402 -102 377 -105L405 -70C422 -77 451 -81 472 -81H615V28H381C358 28 339 27 308 24L336 59C353 52 382 48 403 48H957C963 48 966 46 966 42C966 40 964 36 960 32L900 -25L859 28H659ZM821 -432V-336H659V-432ZM443 -336V-432H615V-336ZM821 -318V-217H659V-318ZM443 -217V-318H615V-217ZM856 -757L818 -710H433C410 -710 385 -711 360 -714L388 -678C405 -685 434 -689 455 -689H908C917 -689 922 -690 922 -693C922 -695 918 -699 912 -705ZM471 -670C499 -640 522 -601 526 -572C528 -561 539 -552 549 -552C559 -552 576 -572 576 -590C576 -596 574 -634 480 -675ZM246 -780C271 -795 274 -797 274 -801C274 -803 272 -806 267 -808L198 -844C201 -796 202 -750 202 -698V-616H123C100 -616 75 -617 50 -620L78 -585C95 -592 124 -596 145 -596H185C146 -445 115 -358 33 -182L46 -174C116 -282 161 -374 202 -496V-122C202 -95 200 -15 197 54V61C197 73 199 79 205 79C209 79 216 76 226 71C244 62 248 58 248 44V37C247 16 246 -41 246 -159V-471C282 -441 306 -400 310 -367C312 -356 321 -346 333 -346C345 -346 356 -356 356 -378C356 -433 293 -471 246 -491V-596H373C379 -596 383 -598 383 -601C383 -604 381 -607 377 -610L323 -662L291 -616H246ZM752 -681C732 -633 711 -593 681 -549H423C400 -549 375 -551 350 -553L378 -520C395 -527 424 -531 445 -531H954C964 -531 970 -532 970 -535C970 -538 966 -542 958 -549L905 -600L867 -549H706C761 -607 786 -625 800 -627C809 -628 813 -632 813 -637C813 -640 811 -644 805 -648ZM548 -836C595 -804 619 -771 631 -732C633 -725 637 -721 648 -721C660 -721 681 -736 681 -762C681 -802 637 -831 552 -847Z"/>
</svg>