<svg xmlns="http://www.w3.org/2000/svg" viewBox="0 -1000 1000 1000">
	<path fill="#000000" d="M398 -455C400 -424 401 -376 401 -352V-228C401 -189 400 -156 398 -102V-96C398 -87 400 -82 406 -82C416 -82 441 -90 441 -111V-124H623C623 -100 623 -97 630 -97C642 -97 665 -109 665 -128C665 -148 663 -239 663 -258V-386L689 -399C692 -401 694 -403 694 -405C694 -407 692 -409 689 -411L631 -449L609 -417H449ZM441 -307H623V-240H441ZM441 -329V-395H623V-329ZM623 -146H441V-218H623ZM241 -769L266 -787C271 -791 274 -794 274 -797C274 -800 271 -802 265 -805L197 -837C199 -801 199 -776 199 -691V-609H102C79 -609 54 -610 29 -613L57 -576C74 -583 103 -587 124 -587H197C157 -439 110 -320 23 -154L36 -145C112 -262 160 -349 199 -456V-73C199 -30 197 20 194 59V63C194 71 196 74 200 74C204 74 209 72 216 68C235 57 241 48 241 34V-453C268 -427 281 -402 292 -365C300 -340 306 -332 317 -332C335 -332 348 -350 348 -372C348 -377 347 -384 345 -390C335 -419 300 -449 241 -479V-587H369C376 -587 379 -590 379 -594C379 -598 377 -602 372 -607L320 -656L287 -609H241ZM475 -94C440 -39 387 18 319 77L326 90C389 49 446 6 475 -23C495 -43 506 -49 518 -50C525 -51 529 -53 529 -56C529 -58 527 -60 523 -63ZM568 -83C622 -43 654 -8 672 31C682 52 688 58 698 58C711 58 722 41 722 21C722 -21 671 -54 574 -95ZM659 -539L627 -500H421C399 -500 378 -501 354 -504L386 -469C403 -476 431 -480 452 -480H698C706 -480 711 -481 711 -485C711 -487 708 -491 703 -496ZM630 -630L598 -587H465C442 -587 417 -588 393 -591L424 -558C441 -565 469 -569 490 -569H669C678 -569 683 -570 683 -574C683 -576 680 -580 675 -585ZM813 -822C843 -794 855 -778 863 -751C868 -734 874 -728 885 -728C901 -728 910 -745 910 -761C910 -787 876 -809 820 -832ZM925 -171L894 -32C893 -25 890 -23 887 -23C885 -23 882 -24 880 -26C814 -86 784 -221 776 -658H955C965 -658 970 -659 970 -663C970 -667 966 -672 959 -680L910 -729L874 -680H776V-790C808 -811 812 -814 812 -817C812 -820 807 -822 799 -826L728 -857C730 -793 731 -734 732 -680H407C385 -680 360 -682 336 -684L366 -647C383 -654 411 -658 432 -658H732C749 -217 756 -63 883 44C915 71 939 80 952 80C962 80 964 75 964 70C964 64 960 54 950 36C942 22 937 -6 937 -59C937 -87 938 -124 942 -169Z"/>
</svg>