<svg xmlns="http://www.w3.org/2000/svg" viewBox="0 -1000 1000 1000">
	<path fill="#000000" d="M871 -640L835 -595H637V-698H857C867 -698 871 -699 871 -702C871 -705 869 -708 864 -714L819 -769L781 -718H637V-792L663 -807C670 -811 673 -814 673 -816C673 -819 669 -822 661 -826L592 -859C594 -824 595 -801 595 -762V-718H449C428 -718 405 -720 383 -722L410 -688C425 -694 450 -698 469 -698H595V-595H430C408 -595 383 -597 360 -599L387 -565C402 -571 431 -575 451 -575H910C922 -575 928 -576 928 -579C928 -582 924 -587 916 -595ZM890 -387L851 -342H771V-455H920C930 -455 934 -456 934 -459C934 -461 932 -465 927 -470L882 -518L842 -474H771V-522C795 -536 797 -537 797 -541C797 -543 794 -545 787 -548L724 -572C726 -540 727 -509 727 -474H682C661 -474 645 -476 623 -478L648 -447C668 -455 687 -455 727 -455V-342H638C617 -342 601 -344 579 -346L604 -313C619 -319 639 -323 658 -323H922C932 -323 937 -324 937 -327C937 -329 935 -333 930 -338ZM609 -373L491 -347V-454H603C614 -454 619 -455 619 -458C619 -460 617 -464 612 -470L575 -516L535 -473H491V-522C514 -533 517 -534 517 -537C517 -539 514 -541 508 -544L446 -573C448 -541 449 -508 449 -473H371C350 -473 334 -475 312 -477L337 -446C352 -452 372 -454 391 -454H449V-337L314 -307L351 -267C354 -263 357 -261 360 -261C363 -261 366 -264 370 -269C377 -277 403 -290 462 -310L615 -362ZM227 -587H339C350 -587 356 -588 356 -592C356 -595 353 -599 348 -605L304 -655L267 -608H227V-786L254 -801C260 -804 263 -807 263 -809C263 -811 260 -813 253 -817L179 -858C181 -821 183 -740 183 -699V-608H90C67 -608 42 -610 17 -612L46 -576C63 -583 92 -587 113 -587H183C183 -558 119 -336 14 -162L27 -153C86 -223 149 -339 183 -433V-148C183 -45 182 23 181 42C181 49 180 54 180 59C180 73 182 79 188 79C191 79 197 76 205 71C225 59 228 54 228 40C228 26 227 -31 227 -43V-463C269 -433 288 -409 304 -357C309 -340 313 -339 326 -339C339 -339 353 -356 353 -379C353 -417 311 -447 227 -481ZM900 -160C893 -22 890 -11 858 -2C846 1 816 3 789 3C725 3 710 -4 710 -31V-210H920C931 -210 936 -211 936 -215C936 -217 933 -221 928 -226L877 -276L838 -230H357C336 -230 320 -232 298 -234L323 -200C338 -206 358 -210 377 -210H499C498 -59 459 -8 263 62L264 77C437 36 543 -7 545 -210H667V-26C667 39 693 42 791 42C906 42 928 36 951 -3C954 -8 956 -12 956 -15C956 -19 953 -21 946 -24C927 -33 918 -59 916 -160Z"/>
</svg>