<svg xmlns="http://www.w3.org/2000/svg" viewBox="0 -1000 1000 1000">
	<path fill="#000000" d="M479 -268V-347H801V-268ZM434 -516C436 -485 437 -437 437 -413V-331C437 -296 436 -259 434 -232C434 -227 433 -223 433 -220C433 -209 435 -204 441 -204C446 -204 452 -206 460 -210C479 -218 479 -221 479 -248H801V-208C801 -200 803 -196 809 -196C812 -196 818 -197 826 -201C843 -208 847 -217 847 -230C847 -236 843 -324 843 -342V-428L871 -442C877 -445 879 -447 879 -450C879 -452 877 -455 872 -459L817 -504L790 -466H505ZM479 -366V-447H801V-366ZM579 -227C617 -190 635 -153 640 -111C642 -93 646 -89 660 -89C677 -89 693 -105 693 -133C693 -176 621 -218 587 -234ZM814 -720H432C411 -720 386 -722 363 -724L388 -690C405 -697 432 -700 453 -700H890C901 -700 906 -702 906 -706C906 -709 903 -713 898 -718L855 -767ZM479 -681C517 -648 529 -629 543 -588C546 -578 549 -571 552 -566H410C388 -566 364 -568 340 -570L366 -536C383 -543 410 -546 431 -546H914C923 -546 928 -548 928 -552C928 -555 926 -559 921 -564L878 -613L836 -566H693L754 -636C759 -641 764 -644 779 -647C788 -649 793 -650 793 -653C793 -655 790 -658 785 -662L732 -699C719 -663 700 -622 671 -566H582C591 -571 597 -583 597 -597C597 -630 562 -655 487 -691ZM542 -835C588 -806 602 -778 604 -756C605 -741 617 -727 631 -727C650 -727 665 -747 665 -766C665 -806 606 -828 547 -847ZM244 -765L269 -783C274 -786 276 -789 276 -792C276 -796 273 -799 268 -801L200 -833C202 -797 202 -772 202 -687V-605H113C90 -605 58 -607 40 -609L68 -572C85 -579 114 -583 135 -583H194C165 -450 125 -340 40 -167L53 -158C117 -256 164 -352 202 -466V-62C202 -19 200 31 197 70V74C197 82 199 85 203 85C207 85 212 83 219 79C241 66 244 61 244 45V-460C284 -426 310 -385 316 -352C320 -329 330 -319 341 -319C356 -319 372 -337 372 -360C372 -376 365 -424 244 -477V-583H355C362 -583 365 -586 365 -590C365 -594 363 -598 358 -603L306 -652L273 -605H244ZM535 -119L563 -137C568 -140 570 -143 570 -145C570 -147 567 -148 562 -150L491 -178C492 -157 493 -115 493 -89V-5C493 52 529 59 645 59C778 59 801 52 822 9C824 6 824 4 824 2C824 -1 823 -3 819 -5C798 -14 788 -28 790 -123L775 -126C762 1 754 10 709 15C671 19 641 21 614 21C535 21 535 12 535 -9ZM828 -152C880 -107 896 -65 904 -10C908 14 915 19 927 19C942 19 960 -3 960 -36C960 -66 938 -110 834 -162ZM417 -158C406 -81 387 -56 343 -27C330 -19 325 -12 325 -4C325 11 337 23 357 23C364 23 373 21 380 17C414 -3 431 -29 431 -108C431 -122 430 -138 429 -156Z"/>
</svg>