<svg xmlns="http://www.w3.org/2000/svg" viewBox="0 -1000 1000 1000">
	<path fill="#000000" d="M908 -548L864 -496H794C838 -557 877 -618 909 -672C916 -683 920 -686 944 -691C955 -693 960 -695 960 -699C960 -702 957 -707 950 -713L899 -760C871 -692 811 -589 750 -496H744V-648H827C834 -648 837 -649 837 -652C837 -654 835 -658 831 -663L798 -709L765 -670H744V-788L773 -802C781 -806 785 -809 785 -811C785 -814 780 -817 772 -821L696 -861C698 -826 699 -785 699 -746V-670H655C632 -670 607 -672 582 -674L611 -637C638 -648 672 -648 699 -648V-496H606C583 -496 558 -498 533 -500L562 -463C579 -470 608 -474 629 -474H736C710 -437 682 -398 653 -362L613 -393C614 -371 615 -340 615 -315C583 -277 553 -244 530 -221L534 -206C558 -224 588 -249 615 -276V-68C615 -2 614 24 613 44C613 49 612 53 612 57C612 68 614 73 620 73C624 73 630 71 638 66C656 56 658 53 658 39V-2H839V70C839 73 839 76 843 76C846 76 853 73 866 66C881 58 884 55 884 41C884 19 882 -78 882 -98V-314C912 -332 916 -334 916 -338C916 -342 912 -346 904 -351L850 -385L822 -349H681C715 -388 748 -431 779 -474H955C962 -474 966 -475 966 -478C966 -480 964 -484 959 -489ZM658 -195V-323L662 -327H839V-195ZM658 -24V-173H839V-24ZM494 -312L469 -278H371L317 -331C319 -300 320 -249 320 -225V-122C320 -57 320 -24 318 4C318 9 317 14 317 17C317 27 319 32 323 32C327 32 333 29 342 23C362 10 363 7 363 -2V-45H480V-1C480 11 481 16 486 16C488 16 525 3 525 -14V-19C523 -47 523 -83 523 -119V-247L546 -261C551 -264 554 -266 554 -269C554 -272 551 -274 545 -278ZM363 -67V-256H480V-67ZM369 -848C402 -812 420 -767 420 -733C420 -706 425 -696 441 -696C457 -696 476 -713 476 -740C476 -783 437 -816 380 -856ZM516 -710L484 -670H390C367 -670 342 -672 317 -674L346 -637C363 -644 392 -648 413 -648H551C558 -648 562 -649 562 -652C562 -654 559 -658 554 -664ZM512 -579L475 -536H373C350 -536 325 -538 300 -540L329 -503C346 -510 375 -514 396 -514H550C557 -514 561 -515 561 -518C561 -521 559 -524 554 -530ZM496 -450L461 -406H394C371 -406 346 -408 321 -410L350 -373C367 -380 396 -384 417 -384H536C543 -384 547 -385 547 -388C547 -391 545 -394 540 -400ZM294 -666L264 -626H217V-797C252 -814 253 -814 253 -818C253 -821 249 -825 242 -829L170 -875C172 -838 174 -757 174 -716V-626H112C89 -626 64 -628 39 -630L68 -593C85 -600 114 -604 135 -604H174V-588C140 -445 72 -278 22 -197L34 -186C99 -275 142 -364 174 -460V-152C174 -49 174 2 172 38V53C172 66 173 72 178 72C182 72 189 68 198 61C215 49 219 46 219 28C219 0 217 -125 217 -150V-492C244 -468 264 -438 270 -416C276 -392 280 -384 290 -384C304 -384 320 -402 320 -427C320 -458 288 -481 217 -511V-604H328C339 -604 344 -606 344 -610C344 -612 342 -616 337 -621Z"/>
</svg>