<svg xmlns="http://www.w3.org/2000/svg" viewBox="0 -1000 1000 1000">
	<path fill="#000000" d="M449 -737V-54H133V-737ZM449 -32V19C449 27 450 32 456 32C460 32 466 30 475 26C494 18 499 14 499 1C499 -1 498 -4 498 -8C495 -42 494 -62 494 -113V-715L531 -736C535 -739 537 -741 537 -743C537 -746 535 -748 531 -751L462 -799L436 -759H135L85 -799C88 -762 88 -734 88 -686V-67C88 -22 87 10 83 55C83 59 82 62 82 65C82 73 84 77 90 77C94 77 101 74 111 70C131 61 133 57 133 40V-32ZM147 -93C215 -162 262 -225 289 -341C323 -302 354 -245 370 -180C375 -159 382 -151 398 -151C410 -151 419 -169 419 -191C419 -235 367 -306 294 -366C301 -401 306 -440 309 -489H430C435 -489 438 -490 438 -492C438 -494 436 -497 432 -501L379 -556L342 -511H311C312 -552 313 -592 313 -629L335 -651C338 -654 339 -656 339 -659C339 -661 337 -664 333 -666L269 -699C270 -653 270 -557 269 -511H214C193 -511 170 -512 148 -515L173 -479C188 -485 215 -489 234 -489H268C258 -299 224 -220 138 -103ZM759 -521C762 -523 763 -524 763 -526C763 -528 761 -530 758 -531L685 -559C685 -115 598 -39 466 71L474 84C580 21 673 -77 699 -220C713 -296 722 -374 726 -458C735 -221 775 -97 861 31C864 35 867 37 869 37C871 37 873 36 875 34C886 23 900 17 923 17C936 17 952 19 972 23V10C839 -45 771 -215 735 -503ZM871 -611L806 -464L818 -459C885 -569 925 -602 964 -605C970 -606 972 -607 972 -609C972 -611 971 -613 967 -616L895 -676L862 -632H640C653 -664 666 -697 680 -738C690 -767 702 -784 725 -789C730 -790 732 -792 732 -794C732 -796 730 -799 726 -801L659 -840C627 -681 565 -528 517 -445L527 -439C573 -504 604 -554 630 -611Z"/>
</svg>