<svg xmlns="http://www.w3.org/2000/svg" viewBox="0 -1000 1000 1000">
	<path fill="#000000" d="M420 -413L401 -381H201L145 -424C147 -398 147 -365 147 -339V-112C147 -89 143 15 143 36C143 49 145 54 152 54C161 54 192 46 192 29V-43H409V10C409 15 410 19 414 19C418 19 424 17 434 12C454 2 458 -1 458 -11C458 -12 454 -104 454 -122V-341L478 -362C481 -365 483 -367 483 -369C483 -372 480 -374 476 -377ZM192 -237V-360H409V-237ZM192 -64V-216H409V-64ZM238 -838C278 -802 287 -789 303 -729C305 -720 313 -714 324 -714C340 -714 352 -733 352 -756C352 -793 317 -822 243 -849ZM486 -750L445 -699H138C119 -699 99 -701 79 -703L102 -667C115 -674 138 -678 155 -678H541C547 -678 550 -679 550 -681C550 -683 548 -686 544 -690ZM899 -674L870 -634H658C673 -669 689 -709 707 -755C720 -790 724 -794 751 -805C756 -807 758 -810 758 -812C758 -815 756 -818 750 -820L681 -852C655 -749 608 -610 564 -495L511 -546L482 -500H362L432 -596C439 -606 445 -609 468 -616C473 -618 475 -620 475 -622C475 -624 473 -627 469 -629L410 -663C387 -603 368 -557 342 -500H82C64 -500 44 -502 24 -504L46 -468C60 -475 81 -479 100 -479H558C544 -444 531 -412 518 -384L531 -377C568 -436 602 -499 650 -613H877L815 -453L827 -447C901 -574 926 -606 958 -612C965 -613 968 -615 968 -618C968 -620 966 -623 961 -626ZM166 -641C193 -618 213 -585 226 -537C229 -525 236 -520 243 -520C259 -520 270 -538 270 -560C270 -566 270 -572 268 -578C261 -602 222 -631 169 -651ZM771 -509C774 -511 775 -513 775 -515C775 -517 773 -519 769 -521L694 -552C674 -163 620 -83 415 79L426 92C666 -61 703 -176 734 -460C740 -217 792 -100 888 32C890 34 892 35 894 35C896 35 898 34 900 32C912 19 924 14 945 14C955 14 966 15 981 17L984 6C842 -64 768 -219 750 -494Z"/>
</svg>