<svg xmlns="http://www.w3.org/2000/svg" viewBox="0 -1000 1000 1000">
	<path fill="#000000" d="M162 -279C197 -217 209 -167 209 -136C209 -111 215 -104 225 -104C242 -104 255 -125 255 -155C255 -183 237 -211 169 -289ZM421 -116C517 -224 543 -242 560 -251C566 -254 569 -257 569 -260C569 -262 566 -266 561 -270L515 -300C497 -252 451 -182 421 -144V-287C439 -303 441 -304 441 -307C441 -310 438 -313 430 -316L376 -340C378 -306 379 -245 379 -208V-54L311 -40V-291C330 -306 332 -307 332 -311C332 -314 329 -316 324 -319L266 -347C269 -313 269 -286 269 -215V-31L128 -2L172 42C174 44 175 44 177 44C179 44 181 43 184 40C193 31 211 21 249 10L547 -76L542 -87L421 -62ZM673 -559C673 -428 668 -302 654 -231C630 -111 556 -20 402 83L411 93C549 26 666 -95 689 -220C705 -307 714 -398 717 -497L722 -501C732 -235 760 -110 851 26C854 30 857 32 859 32C861 32 863 31 865 29C876 18 890 12 913 12C926 12 942 14 962 18V5C828 -51 770 -213 733 -509C750 -522 752 -523 752 -526C752 -528 751 -530 748 -531ZM861 -611L796 -464L808 -459C895 -571 924 -595 954 -599C960 -600 963 -602 963 -606C963 -609 961 -612 957 -616L881 -678L852 -632H641C656 -664 674 -704 696 -757C710 -791 718 -799 739 -809C744 -811 746 -813 746 -815C746 -817 744 -819 740 -821L665 -856C626 -700 588 -597 518 -458L534 -449C579 -515 605 -558 631 -611ZM328 -781C353 -794 355 -795 355 -799C355 -801 353 -804 348 -806L280 -840C283 -818 284 -792 284 -761V-618H158L100 -669C102 -597 103 -531 103 -459C103 -208 103 -75 29 72L41 80C119 -41 134 -120 143 -322C147 -411 150 -517 150 -596H285V-490L236 -479C211 -474 184 -471 164 -470L201 -442C218 -452 229 -457 250 -461L285 -468V-437C285 -376 303 -363 402 -363C463 -363 486 -376 505 -402C508 -406 509 -408 509 -411C509 -414 507 -417 502 -421C496 -426 493 -431 493 -451C493 -460 494 -473 495 -490L483 -491C467 -406 461 -399 402 -399C332 -399 327 -404 328 -435V-477L444 -501C452 -502 456 -504 456 -507C456 -510 452 -513 444 -519L405 -548L383 -511L328 -499V-555C345 -570 346 -572 346 -575C346 -578 343 -581 337 -583L301 -596H492L456 -524L468 -518C511 -571 537 -590 551 -592C560 -593 564 -596 564 -599C564 -601 561 -604 557 -607L512 -646L487 -618H328V-698H503C515 -698 520 -699 520 -703C520 -706 517 -711 511 -718L469 -765L433 -720H328Z"/>
</svg>