<svg xmlns="http://www.w3.org/2000/svg" viewBox="0 -1000 1000 1000">
	<path fill="#000000" d="M91 -804C92 -775 93 -749 93 -718V-601C93 -591 91 -543 91 -538C91 -532 93 -530 98 -530C104 -530 113 -533 128 -541C131 -542 133 -547 134 -564H451C451 -531 451 -531 457 -531C460 -531 465 -533 473 -537C491 -545 497 -550 497 -558C497 -561 493 -612 493 -622V-739L517 -755C519 -757 521 -758 521 -760C521 -762 519 -763 516 -766L459 -805L438 -771H138ZM330 -587H250V-748H330ZM212 -587H134V-748H212ZM368 -587V-748H451V-587ZM362 -202C362 -176 362 -173 368 -173C374 -173 403 -188 403 -200C403 -200 401 -239 401 -247V-319L421 -329C423 -330 424 -332 424 -333C424 -335 423 -337 421 -338L379 -371L358 -347H280V-394C288 -399 301 -407 301 -410C301 -412 299 -413 296 -415L238 -444C239 -400 240 -366 240 -347H146L112 -368C113 -349 114 -336 114 -313V-218C114 -209 113 -168 113 -160C113 -156 115 -153 119 -153C123 -153 130 -156 141 -164C151 -171 154 -176 154 -202H240V-108L59 -89L83 -42C84 -39 86 -38 88 -38C91 -38 94 -39 98 -42C105 -47 129 -54 178 -64L368 -102C372 -94 375 -86 376 -78C378 -57 383 -52 394 -52C402 -52 414 -70 414 -90C414 -128 363 -155 320 -174L315 -165C334 -149 347 -135 357 -121L280 -112V-202ZM154 -220V-329H240V-220ZM362 -329V-220H280V-329ZM453 -446C454 -271 448 -159 438 -75C435 -44 424 -30 381 -30C361 -30 334 -33 298 -39L295 -26C370 -5 386 4 389 27C390 33 391 36 395 36C397 36 401 34 406 32C458 8 474 -16 479 -61C488 -139 493 -236 497 -433L523 -453C526 -455 528 -458 528 -460C528 -462 526 -464 522 -467L468 -504L445 -469H187C212 -504 223 -516 232 -516C238 -516 241 -517 241 -520C241 -522 239 -525 233 -528L182 -556C142 -464 112 -415 51 -325L59 -316C118 -378 145 -410 171 -446ZM663 -579C663 -448 652 -306 637 -235C607 -87 572 -29 413 78L421 92C646 -33 686 -94 709 -518C727 -205 761 -108 869 28C872 32 876 34 878 34C880 34 882 33 884 31C896 20 906 14 929 14C940 14 954 15 973 18V1C823 -67 758 -193 724 -528C743 -543 745 -544 745 -547C745 -548 744 -549 740 -551ZM857 -611L807 -460L822 -453C904 -589 918 -604 949 -609C955 -610 958 -613 958 -617C958 -620 956 -623 952 -626L883 -682L850 -635H636C651 -674 664 -714 677 -758C688 -793 694 -803 713 -817C716 -820 718 -822 718 -824C718 -826 715 -828 712 -829L640 -851C619 -704 591 -588 534 -441L548 -437C579 -498 604 -554 627 -611Z"/>
</svg>