<svg xmlns="http://www.w3.org/2000/svg" viewBox="0 -1000 1000 1000">
	<path fill="#000000" d="M372 -514C374 -483 375 -451 375 -419V-340C375 -326 373 -256 373 -253C373 -241 375 -236 381 -236C385 -236 390 -238 396 -241C415 -249 415 -252 415 -283H514V-238C514 -231 515 -228 520 -228C524 -228 529 -230 537 -233C553 -239 557 -243 557 -257C557 -262 555 -312 555 -322V-432C583 -444 586 -445 586 -449C586 -451 584 -453 580 -456L552 -478C587 -526 607 -557 634 -608H881L816 -461L828 -456C895 -566 935 -599 974 -602C980 -603 982 -604 982 -606C982 -608 981 -610 977 -613L905 -673L872 -629H645C652 -642 671 -681 702 -746C718 -779 726 -788 747 -797C752 -799 754 -801 754 -803C754 -805 752 -807 748 -809L683 -848C654 -739 599 -604 539 -488L526 -498L503 -468H427ZM415 -305V-445H514V-305ZM125 -512C127 -481 128 -449 128 -417V-339C128 -324 126 -245 126 -241C126 -230 128 -225 133 -225C137 -225 142 -227 148 -230C165 -237 167 -241 167 -255V-284H263V-253C263 -246 264 -243 269 -243C273 -243 278 -245 286 -248C302 -254 305 -256 305 -270C305 -281 303 -330 303 -337V-431C329 -443 332 -444 332 -448C332 -450 330 -452 327 -455L279 -499L254 -467H181ZM167 -306V-444H263V-306ZM681 -559C681 -117 589 -10 458 86L467 96C605 17 668 -74 695 -220C711 -307 720 -398 723 -497L728 -501C739 -235 780 -110 871 26C874 30 877 32 879 32C881 32 883 31 885 29C896 18 910 12 933 12C946 12 962 14 982 18V5C848 -51 776 -213 739 -509C757 -523 759 -524 759 -527C759 -528 758 -529 754 -531ZM436 -257C393 -135 322 -21 225 64L233 76C309 22 355 -25 425 -129C463 -98 500 -53 509 -22C513 -9 521 0 531 0C544 0 559 -16 559 -38C559 -81 492 -116 435 -143C469 -202 478 -203 490 -205C497 -206 501 -208 501 -211C501 -214 498 -217 492 -221ZM209 -262C167 -155 83 -7 31 53L42 60C79 29 120 -21 204 -152C237 -126 261 -86 265 -59C267 -45 276 -37 286 -37C302 -37 312 -54 312 -74C312 -111 271 -136 213 -165C219 -177 242 -216 257 -218C265 -219 268 -222 268 -225C268 -228 266 -231 260 -234ZM332 -857C275 -746 136 -574 25 -476L35 -466C78 -493 126 -532 186 -595L209 -565C226 -572 255 -576 276 -576H492C501 -576 505 -578 505 -583C505 -586 502 -591 496 -598L456 -640L417 -598H254C234 -598 213 -599 192 -601C247 -659 287 -703 346 -777C435 -727 498 -661 520 -617C529 -600 538 -591 548 -591C558 -591 575 -604 575 -625C575 -676 506 -726 355 -789C368 -803 375 -806 388 -808C396 -809 399 -812 399 -815C399 -818 397 -821 391 -824Z"/>
</svg>