<svg xmlns="http://www.w3.org/2000/svg" viewBox="0 -1000 1000 1000">
	<path fill="#000000" d="M920 -62L887 -14H848V-731L878 -754C884 -759 887 -763 887 -766C887 -770 883 -773 875 -778L814 -814L786 -770H560L495 -817C497 -780 499 -712 499 -671V-14H393C370 -14 345 -16 320 -18L348 19C365 12 394 8 415 8H958C968 8 973 7 973 3C973 0 969 -6 962 -14ZM545 -289V-503H802V-289ZM545 -525V-748H802V-525ZM545 -14V-267H802V-14ZM403 -822L364 -774H98C75 -774 50 -776 25 -778L53 -741C70 -748 99 -752 120 -752H211C185 -594 120 -402 31 -227L43 -221C90 -284 126 -350 158 -422C192 -388 210 -359 217 -326C223 -297 230 -289 239 -289C254 -289 268 -311 268 -333C268 -371 224 -402 164 -436C179 -471 192 -507 205 -544H352C306 -284 242 -127 23 56L31 68C271 -85 329 -238 397 -507C400 -521 413 -535 431 -547C437 -551 439 -553 439 -556C439 -559 437 -562 431 -565L370 -606L341 -566H213C233 -625 251 -686 269 -752H448C457 -752 462 -753 462 -757C462 -760 458 -765 451 -772Z"/>
</svg>