<svg xmlns="http://www.w3.org/2000/svg" viewBox="0 -1000 1000 1000">
	<path fill="#000000" d="M881 -827C771 -799 573 -768 446 -753L449 -738C536 -740 723 -754 849 -769C851 -769 855 -770 859 -770C876 -770 906 -766 916 -763C919 -762 922 -761 924 -761C927 -761 928 -762 928 -764C928 -766 926 -770 921 -776ZM594 -704C631 -651 645 -615 648 -584C651 -555 654 -544 665 -544C679 -544 701 -564 701 -592C701 -616 687 -643 602 -712ZM838 -731C800 -649 780 -611 724 -514L738 -507C830 -640 866 -675 885 -677C894 -678 899 -679 899 -682C899 -684 895 -687 889 -692ZM451 -680C483 -636 499 -600 502 -560C504 -531 509 -525 522 -525C539 -525 556 -548 556 -572C556 -579 554 -586 552 -592C543 -616 514 -648 459 -688ZM368 -787L331 -743H107C84 -743 59 -745 34 -747L62 -710C79 -717 108 -721 129 -721H197C178 -590 109 -380 30 -241L43 -234C80 -280 115 -339 145 -408C179 -382 201 -348 205 -320C208 -300 213 -295 220 -295C236 -295 255 -312 255 -337C255 -370 220 -395 152 -424C167 -458 181 -494 194 -531H321C301 -313 234 -137 48 47L57 56C263 -101 332 -265 369 -512L399 -526C403 -528 405 -530 405 -532C405 -535 403 -538 398 -542L342 -589L311 -552H201C220 -607 235 -664 250 -721H415C423 -721 427 -722 427 -725C427 -727 424 -731 419 -736ZM906 -318L862 -269H694V-313C712 -327 714 -328 714 -331C714 -334 710 -337 700 -342C818 -432 840 -443 873 -445C880 -446 884 -447 884 -449C884 -451 881 -454 876 -458L818 -509L789 -481H502C479 -481 454 -483 429 -485L457 -448C474 -455 503 -459 524 -459H789L687 -349L643 -370C644 -351 647 -310 647 -269H431C408 -269 383 -271 358 -273L386 -236C403 -243 432 -247 453 -247H647V-50C647 -22 644 -9 612 -9C592 -9 560 -14 509 -25L506 -12C584 13 603 31 610 62C612 70 613 74 617 74C619 74 621 73 625 71C688 41 694 32 694 -17V-247H958C965 -247 969 -248 969 -251C969 -253 966 -257 962 -261Z"/>
</svg>