<svg xmlns="http://www.w3.org/2000/svg" viewBox="0 -1000 1000 1000">
	<path fill="#000000" d="M483 -599H805V-496H483ZM483 -475H805V-371H483ZM491 -733L434 -776C435 -744 436 -696 436 -672V-423C436 -401 433 -305 433 -285C433 -279 435 -276 443 -276C448 -276 454 -277 462 -279C481 -284 483 -287 483 -296V-350H805V-316C805 -308 806 -303 812 -303C816 -303 822 -305 832 -309C851 -317 856 -321 856 -333C856 -336 855 -339 855 -343C853 -369 851 -412 851 -478V-696L883 -716C888 -719 890 -721 890 -723C890 -726 887 -728 882 -732L818 -777L790 -733H606C637 -784 658 -801 672 -805C678 -807 680 -809 680 -812C680 -815 678 -819 673 -821L609 -851C603 -819 591 -776 576 -733ZM483 -712H805V-620H483ZM688 -329C733 -301 749 -278 762 -240C766 -229 774 -222 784 -222C799 -222 809 -243 809 -262C809 -267 808 -272 806 -277C797 -299 767 -318 693 -339ZM585 -343C583 -291 576 -245 566 -209H392C370 -209 346 -211 322 -213L349 -177C365 -184 393 -188 413 -188H560C525 -81 454 -6 272 73L276 89C473 27 571 -62 608 -188H631C683 -79 739 -22 869 54C872 56 874 57 876 57C879 57 881 55 883 53C898 28 917 14 973 14V1C830 -11 729 -68 651 -188H949C958 -188 963 -190 963 -194C963 -197 960 -201 954 -206L892 -263L859 -209H614C618 -224 621 -240 623 -256C627 -283 631 -289 647 -295C651 -297 653 -300 653 -304C653 -308 651 -312 647 -314ZM311 -512C267 -215 223 -130 38 62L46 75C234 -76 305 -193 359 -502L385 -517C389 -519 391 -521 391 -524C391 -526 388 -529 383 -533L332 -568L299 -533H196C211 -592 223 -649 232 -704H393C402 -704 406 -705 406 -709C406 -713 403 -718 396 -725L351 -773L312 -725H110C87 -725 63 -726 37 -729L65 -693C82 -700 111 -704 132 -704H183C167 -553 118 -359 44 -216L55 -208C86 -249 115 -302 140 -365C164 -340 178 -307 181 -287C185 -253 191 -245 203 -245C217 -245 233 -263 233 -287C233 -334 171 -370 147 -382C163 -421 176 -459 190 -512Z"/>
</svg>