<svg xmlns="http://www.w3.org/2000/svg" viewBox="0 -1000 1000 1000">
	<path fill="#000000" d="M461 -653C463 -622 464 -573 464 -549V-447C464 -414 462 -381 460 -365V-358C460 -351 462 -347 468 -347C472 -347 478 -349 487 -353C504 -361 509 -365 509 -380H624C621 -340 618 -321 610 -286H463C431 -286 415 -286 384 -288L418 -253C433 -259 460 -265 477 -265H604C576 -174 516 -123 380 -49L386 -38C522 -91 600 -141 641 -231C725 -183 757 -150 792 -94C808 -68 813 -65 821 -65C832 -65 842 -82 842 -103C842 -162 771 -200 648 -249L654 -265H924C932 -265 936 -267 936 -270C936 -274 932 -279 924 -286L874 -340L835 -286H660C667 -314 673 -347 676 -380H795C795 -353 795 -350 802 -350C809 -350 846 -361 846 -380C846 -384 840 -438 840 -449V-576C865 -593 868 -595 868 -600C868 -604 865 -608 858 -613L805 -649L784 -613H520ZM795 -401H509V-487H795ZM509 -592H795V-508H509ZM713 -714C713 -704 712 -662 712 -653C712 -644 713 -640 719 -640C729 -640 760 -650 760 -666C760 -679 757 -701 757 -714H932C939 -714 943 -716 943 -720C943 -724 940 -729 933 -736L877 -789L837 -735H757V-788C782 -804 785 -806 785 -811C785 -815 781 -818 772 -821L710 -841C712 -822 713 -807 713 -787V-735H584V-787C607 -799 609 -800 609 -805C609 -809 605 -812 596 -816L537 -841C539 -824 540 -799 540 -767V-735H447C422 -735 405 -735 378 -737L408 -704C422 -710 444 -714 461 -714H540C540 -703 539 -657 539 -647C539 -638 540 -634 546 -634C556 -634 588 -645 588 -659C588 -661 584 -705 584 -714ZM191 -513L97 -488C76 -482 57 -479 34 -477L65 -451C81 -461 98 -467 119 -472L191 -491V-299L89 -274C69 -269 45 -265 25 -263L57 -238C70 -246 87 -252 110 -258L191 -278V-67C191 -1 212 16 269 20C342 25 448 27 555 27C656 27 758 25 834 21C930 16 945 9 964 -31C965 -34 966 -36 966 -39C966 -43 963 -45 958 -48C942 -57 935 -83 937 -184H922C910 -32 899 -24 827 -20C738 -15 634 -13 530 -13C445 -13 361 -14 285 -17C250 -18 239 -27 239 -77V-290L437 -340C443 -342 445 -343 445 -345C445 -348 443 -350 438 -353L376 -393L345 -337L239 -311V-503L406 -548C415 -550 419 -553 419 -556C419 -559 416 -562 410 -565L353 -596L324 -548L239 -525V-717C267 -730 290 -741 305 -749C337 -765 352 -770 366 -770C368 -770 376 -769 377 -769C381 -769 383 -770 383 -772C383 -774 381 -776 378 -779L334 -818C264 -769 165 -711 54 -650L62 -640C105 -658 150 -677 191 -695Z"/>
</svg>