<svg xmlns="http://www.w3.org/2000/svg" viewBox="0 -1000 1000 1000">
	<path fill="#000000" d="M121 -763C125 -732 125 -715 125 -667V-619C82 -619 75 -619 29 -623L56 -589C59 -590 81 -600 125 -600V-551C125 -540 122 -493 122 -483C122 -476 124 -473 128 -473C135 -473 168 -484 168 -502H292V-419H172L119 -455V-325C119 -316 117 -275 117 -266C117 -256 119 -252 125 -252C129 -252 134 -254 142 -257C158 -263 160 -268 161 -295H264C248 -259 234 -231 219 -201H100C79 -201 56 -202 32 -205L58 -171C73 -178 101 -182 120 -182H209C195 -154 180 -126 161 -91C241 -71 265 -64 304 -51C238 -4 164 33 40 68L44 79C147 62 255 24 344 -36C399 -13 437 11 469 40C477 48 484 52 490 52C499 52 506 36 506 22C506 -30 419 -54 382 -64C418 -92 444 -118 477 -162C489 -178 495 -183 505 -185C512 -187 517 -190 517 -194C517 -198 513 -202 506 -207L457 -237L431 -201H263L292 -253C321 -264 324 -265 324 -270C324 -273 323 -274 290 -295H457C457 -271 457 -268 463 -268C469 -268 503 -279 503 -296C503 -299 503 -302 502 -306C501 -311 499 -333 499 -357V-395C522 -405 525 -407 525 -411C525 -414 523 -416 519 -419L469 -453L445 -419H334V-502H455C455 -474 455 -471 462 -471C472 -471 503 -483 503 -499C503 -500 502 -503 502 -505C499 -532 498 -554 497 -600H576C582 -600 585 -602 585 -605C585 -608 583 -612 577 -618L536 -659L505 -619H497V-692C527 -706 530 -707 530 -711C530 -714 528 -717 524 -720L472 -762L446 -723H334V-786C359 -801 362 -803 362 -806C362 -809 359 -811 353 -814L289 -845C291 -811 292 -771 292 -723H174ZM292 -600V-520H168V-600ZM292 -619H168V-705H292ZM334 -619V-705H455V-619ZM334 -520V-600H455V-520ZM457 -400V-314H334V-400ZM161 -314V-400H292V-314ZM432 -182C408 -139 382 -110 337 -75C303 -83 274 -89 207 -101L252 -182ZM690 -501L620 -487C597 -482 574 -478 546 -473L577 -448C597 -456 626 -465 646 -469L690 -478V-282L605 -265C584 -261 558 -257 534 -255L568 -224C585 -234 611 -242 634 -246L690 -257V-47C690 41 695 50 809 50C934 50 948 35 968 -1C970 -5 971 -8 971 -11C971 -15 969 -18 965 -20C937 -35 934 -64 929 -176H915C914 -9 907 2 871 6C850 8 830 9 811 9C742 9 735 7 735 -45V-266L946 -309C953 -310 956 -313 956 -316C956 -319 952 -323 946 -327L884 -369L857 -316L735 -291V-487L924 -524C932 -526 936 -528 936 -531C936 -534 932 -538 924 -543L859 -584L831 -530L735 -510V-727C767 -736 803 -747 847 -761C854 -764 867 -766 879 -766C882 -766 897 -764 900 -764C905 -764 908 -766 908 -769C908 -771 907 -773 904 -776L855 -821C797 -785 699 -745 552 -697L555 -681C603 -691 644 -701 690 -714Z"/>
</svg>