<svg xmlns="http://www.w3.org/2000/svg" viewBox="0 -1000 1000 1000">
	<path fill="#000000" d="M691 -60L649 -11H497V-147H628V-104C628 -98 628 -96 631 -96C634 -96 639 -98 648 -102C665 -110 669 -114 669 -126V-132C666 -164 666 -183 666 -215V-296C678 -303 697 -315 697 -317C697 -320 694 -322 688 -326L633 -358L610 -326H499V-440H679C687 -440 691 -442 691 -446C691 -449 688 -453 683 -458L631 -512L595 -462H164C141 -462 116 -464 91 -466L119 -429C136 -436 165 -440 186 -440H303V-326H195L145 -374C148 -338 149 -302 149 -261V-179L109 -153L164 -118C167 -116 169 -116 171 -116C173 -116 175 -117 177 -120L191 -147H300V-11H103C80 -11 55 -13 30 -15L58 22C75 15 104 11 125 11H744C753 11 756 9 756 6C756 3 754 -1 749 -5ZM506 -168L449 -214C451 -179 453 -144 453 -103V-11H343V-136C354 -143 372 -155 372 -158C372 -160 370 -162 366 -165L316 -200L294 -169H186V-305H303V-270C303 -262 304 -258 309 -258C312 -258 318 -261 327 -266C348 -278 350 -282 350 -290C349 -313 348 -346 348 -385V-440H454V-333L419 -318L473 -277C475 -275 477 -275 479 -275C482 -275 484 -276 486 -280L505 -304H628V-168ZM737 -704L698 -661H284C261 -661 236 -663 211 -665L239 -628C256 -635 285 -639 306 -639H780C789 -639 793 -641 793 -645C793 -648 790 -653 785 -658ZM839 -802L795 -751H264C270 -759 275 -767 281 -776C291 -791 297 -796 320 -803C330 -806 334 -808 334 -811C334 -814 331 -817 325 -820L265 -853C228 -764 135 -608 38 -487L48 -476C99 -521 156 -588 250 -729H891C901 -729 906 -731 906 -735C906 -739 902 -744 895 -751ZM925 -194L886 -27C807 -67 775 -154 775 -373C775 -417 777 -466 779 -520L807 -541C813 -545 815 -548 815 -551C815 -554 813 -557 808 -560L744 -605L717 -562H222C199 -562 174 -564 149 -566L177 -529C194 -536 223 -540 244 -540H731C730 -497 730 -458 730 -423C730 -147 753 -77 840 7C871 37 917 58 937 58C946 58 952 54 952 46C952 41 950 35 945 28C934 11 928 -14 928 -56C928 -90 932 -134 939 -194Z"/>
</svg>