<svg xmlns="http://www.w3.org/2000/svg" viewBox="0 -1000 1000 1000">
	<path fill="#000000" d="M703 -769C755 -722 782 -687 791 -656C798 -631 803 -624 815 -624C831 -624 846 -646 846 -670C846 -715 784 -746 708 -778ZM637 -803C641 -806 643 -808 643 -810C643 -813 641 -815 636 -817L555 -850C557 -730 554 -624 549 -533H424C401 -533 376 -534 351 -537L379 -500C396 -507 417 -511 446 -511H547C538 -374 520 -269 494 -193C465 -109 399 -27 270 80L279 91C488 -35 574 -177 595 -511H635C656 -236 701 -127 844 23C848 26 851 28 853 28C856 28 859 26 861 24C873 10 891 0 922 0C932 0 944 1 957 3L960 -9C793 -67 702 -193 652 -511H932C943 -511 948 -513 948 -517C948 -520 944 -526 936 -533L876 -589L835 -533H596C602 -635 607 -738 607 -785ZM362 -672L197 -288C176 -237 166 -225 94 -225C82 -225 68 -225 52 -226V-211C79 -209 106 -204 139 -193C166 -185 177 -158 177 -109C177 -91 168 -11 168 5C168 42 180 55 197 55C221 55 234 39 234 3C234 -8 233 -22 230 -38C221 -84 216 -122 216 -158C216 -195 222 -229 235 -265L379 -664ZM57 -583C125 -535 153 -496 157 -471C162 -443 170 -433 180 -433C196 -433 212 -454 212 -480C212 -540 139 -570 62 -592ZM141 -803C213 -765 244 -722 252 -694C259 -670 267 -662 282 -662C296 -662 311 -680 311 -705C311 -713 309 -722 305 -731C295 -757 250 -787 147 -813Z"/>
</svg>