<svg xmlns="http://www.w3.org/2000/svg" viewBox="0 -1000 1000 1000">
	<path fill="#000000" d="M818 -494L789 -456H472L418 -491C420 -460 421 -412 421 -388V-217C421 -160 419 -112 418 -91V-82C418 -67 420 -61 426 -61C430 -61 434 -63 440 -65C463 -74 463 -78 463 -109H805V-79C805 -72 806 -68 811 -68C817 -68 849 -77 849 -96V-102C848 -132 847 -153 847 -229V-419L876 -439C879 -441 881 -443 881 -445C881 -447 878 -450 874 -453ZM463 -243V-331H805V-243ZM463 -129V-223H805V-129ZM463 -351V-436H805V-351ZM545 -77C443 -17 358 23 241 70L247 84C319 67 369 51 537 -12C548 -16 560 -18 572 -18C594 -18 596 -18 596 -22C596 -25 593 -29 588 -34ZM280 -733L252 -692H155L98 -736C100 -705 101 -657 101 -633V-377C101 -320 100 -230 98 -171V-162C98 -146 100 -140 106 -140C113 -140 143 -150 143 -170V-263H268V-188C268 -178 269 -173 274 -173C278 -173 285 -176 295 -181C312 -190 315 -194 315 -208V-215C312 -260 310 -322 310 -398V-661L337 -678C341 -680 343 -682 343 -684C343 -686 341 -688 337 -691ZM143 -283V-672H268V-283ZM873 -782L828 -736H659V-803C691 -823 691 -823 691 -827C691 -830 688 -833 682 -835L614 -865C616 -832 617 -804 617 -779V-736H441C418 -736 393 -738 368 -740L396 -705C413 -712 442 -716 463 -716H617C617 -701 616 -635 616 -621C616 -607 618 -601 624 -601C626 -601 661 -610 661 -625C661 -635 659 -702 659 -716H918C927 -716 931 -718 931 -722C931 -726 928 -730 922 -736ZM912 -625L870 -580H791V-649C817 -664 820 -666 820 -669C820 -671 818 -673 814 -674L746 -704C748 -671 749 -643 749 -618V-580H505V-637C533 -655 534 -655 534 -658C534 -660 532 -662 528 -663L460 -697C462 -664 463 -636 463 -611V-580H387C364 -580 339 -582 314 -584L342 -549C359 -556 388 -560 409 -560H463C463 -552 462 -515 462 -507C462 -492 465 -486 472 -486C478 -486 507 -495 507 -509C507 -513 505 -552 505 -560H749C749 -552 748 -516 748 -509C748 -494 750 -488 757 -488C767 -488 793 -499 793 -510C793 -514 791 -552 791 -560H952C961 -560 965 -562 965 -566C965 -569 962 -574 956 -580ZM655 -53C765 -14 831 17 888 58C911 75 918 77 925 77C937 77 946 66 946 50C946 -7 884 -28 660 -66Z"/>
</svg>