<svg xmlns="http://www.w3.org/2000/svg" viewBox="0 -1000 1000 1000">
	<path fill="#000000" d="M835 -347L808 -310H441L390 -354C392 -336 393 -295 393 -266V-32C393 2 393 28 390 64V74C390 83 391 86 396 86C400 86 407 84 416 79C437 69 437 63 437 16H819C819 65 819 76 829 76C832 76 866 64 866 48C866 45 863 -7 863 -17V-267L896 -285C900 -287 902 -289 902 -291C902 -293 900 -295 896 -298ZM652 -157V-289H819V-157ZM437 -157V-289H607V-157ZM652 -5V-136H819V-5ZM437 -5V-136H607V-5ZM757 -564L743 -540H520L468 -581C470 -563 471 -534 471 -519V-458C471 -442 469 -371 469 -357C469 -349 470 -345 476 -345C480 -345 486 -347 495 -351C510 -358 514 -362 515 -382H742C742 -364 744 -358 751 -358C752 -358 789 -366 789 -384C789 -386 787 -439 787 -449V-502L811 -516C815 -519 817 -521 817 -522C817 -524 815 -526 813 -527ZM515 -403V-519H742V-403ZM288 -746L262 -704H150L98 -754C100 -723 101 -675 101 -651V-386C101 -329 100 -239 98 -180V-168C98 -153 99 -148 106 -148C110 -148 117 -150 126 -154C143 -161 145 -164 145 -180V-273H275V-213C275 -204 276 -200 281 -200C285 -200 290 -202 299 -206C319 -217 323 -220 323 -234V-241C320 -286 319 -347 319 -423V-671L346 -689C351 -692 354 -695 354 -697C354 -700 351 -702 346 -706ZM145 -294V-683H275V-294ZM419 -792C469 -757 492 -711 497 -693C501 -678 512 -665 524 -665C539 -665 552 -680 552 -699C552 -708 550 -717 544 -726C529 -750 484 -778 426 -802ZM905 -681L878 -649H743C800 -711 824 -735 839 -744C845 -748 857 -752 866 -753C874 -754 878 -755 878 -758C878 -760 874 -764 866 -770L814 -809C784 -751 753 -698 720 -649H664V-791C696 -810 699 -812 699 -816C699 -820 694 -822 685 -826L616 -854C619 -828 620 -786 620 -758V-649H441C442 -660 442 -671 442 -682H426C418 -631 390 -578 369 -562C356 -553 348 -541 348 -529C348 -513 360 -506 373 -506C418 -506 434 -560 440 -627H880L831 -533L842 -522C880 -574 916 -601 949 -605C959 -606 964 -608 964 -611C964 -613 962 -617 958 -621Z"/>
</svg>