<svg xmlns="http://www.w3.org/2000/svg" viewBox="0 -1000 1000 1000">
	<path fill="#000000" d="M348 -546C365 -553 394 -557 415 -557H531C525 -491 518 -445 512 -418H421C398 -418 373 -420 348 -422L376 -385C393 -392 422 -396 443 -396H507C474 -253 405 -150 255 -4L264 5C362 -68 439 -150 491 -241V-61C491 -28 490 24 488 65V71C488 82 490 87 496 87C500 87 506 85 515 81C535 73 537 69 537 56V-8H815V59C815 69 816 73 821 73C825 73 832 71 842 66C863 57 868 53 868 41C868 39 867 36 867 32C865 7 862 -42 862 -101V-231L885 -243C890 -245 892 -248 892 -250C892 -253 890 -256 884 -260L823 -305L794 -265H547L517 -293C532 -327 544 -361 552 -396H798V-359C798 -349 799 -344 804 -344C809 -344 850 -359 850 -379C850 -381 849 -383 849 -386C845 -431 844 -456 844 -504V-557H959C969 -557 974 -558 974 -562C974 -565 971 -569 965 -575L909 -633L869 -579H844V-715L872 -733C877 -737 880 -739 880 -742C880 -744 877 -747 873 -750L808 -798L778 -753H448C425 -753 400 -755 375 -757L403 -720C420 -727 449 -731 470 -731H539C539 -687 537 -634 533 -579H393C371 -579 347 -580 323 -583L345 -653L329 -661L185 -285C165 -234 155 -222 85 -222C73 -222 59 -222 43 -223V-208C69 -206 96 -201 128 -190C148 -183 158 -165 158 -129C158 -105 153 -73 145 -31C142 -15 140 -1 140 10C140 45 154 58 171 58C194 58 206 42 206 3C206 -8 205 -20 203 -35C199 -68 197 -95 197 -120C197 -168 205 -208 222 -262L322 -580ZM557 -418C564 -456 568 -485 576 -557H798V-418ZM578 -579C583 -629 586 -671 588 -731H798V-579ZM537 -30V-243H815V-30ZM56 -578C122 -530 150 -491 154 -466C159 -438 166 -428 176 -428C192 -428 208 -450 208 -475C208 -535 137 -565 61 -587ZM138 -798C209 -760 239 -717 247 -689C254 -665 262 -657 276 -657C290 -657 304 -675 304 -700C304 -708 303 -717 299 -726C289 -752 245 -782 144 -808Z"/>
</svg>