<svg xmlns="http://www.w3.org/2000/svg" viewBox="0 -1000 1000 1000">
	<path fill="#000000" d="M843 -606C843 -583 843 -580 851 -580C855 -580 861 -582 871 -586C889 -593 894 -597 894 -609C894 -617 890 -671 890 -683V-747C917 -764 920 -766 920 -770C920 -774 917 -777 911 -781L857 -818L829 -779H468L404 -826C405 -800 406 -769 406 -714V-467C406 -177 376 -96 243 70L254 80C428 -99 449 -163 452 -606ZM843 -757V-628H452C452 -662 453 -703 453 -757ZM337 -652L193 -280C172 -227 147 -216 41 -220V-205C77 -202 104 -198 136 -185C156 -177 166 -168 166 -136C166 -116 152 -30 152 -12C152 24 165 39 182 39C205 39 219 24 219 -12C219 -24 217 -38 214 -54C208 -82 206 -107 206 -130C206 -175 216 -213 230 -257L353 -644ZM62 -601C128 -553 156 -514 160 -489C165 -462 175 -451 188 -451C202 -451 216 -461 216 -487C216 -552 161 -583 67 -610ZM132 -809C203 -771 233 -728 241 -700C248 -676 256 -668 270 -668C288 -668 299 -683 299 -706C299 -753 274 -784 138 -819ZM632 -333L517 -319C495 -316 481 -315 456 -316L488 -287C501 -293 512 -296 537 -299L632 -310V-187L488 -169C459 -165 442 -165 424 -166L461 -135C476 -141 490 -145 514 -148L632 -163V-36C632 49 640 49 779 49C820 49 867 48 908 46C952 44 976 -10 976 -14C976 -17 974 -20 970 -22C943 -39 940 -54 940 -142H926C917 -9 911 1 882 5C856 8 809 10 767 10C689 10 677 10 677 -34V-169L962 -205C970 -206 974 -207 974 -211C974 -213 971 -217 965 -222L905 -272L869 -217L677 -193V-315L905 -342C911 -343 915 -344 915 -347C915 -350 912 -354 906 -358L843 -406L811 -355L677 -339V-462C723 -473 769 -485 809 -497C824 -501 858 -506 870 -506C880 -506 886 -506 886 -510C886 -512 883 -516 878 -520L827 -558C762 -521 619 -471 469 -432L470 -421C516 -426 573 -437 632 -451Z"/>
</svg>