<svg xmlns="http://www.w3.org/2000/svg" viewBox="0 -1000 1000 1000">
	<path fill="#000000" d="M746 -822L721 -786H511L455 -830C457 -799 458 -754 458 -730V-649C458 -638 455 -583 455 -583C455 -576 457 -573 461 -573C465 -573 471 -575 480 -580C498 -589 502 -593 502 -603V-628H735C735 -590 735 -589 742 -589C745 -589 751 -591 759 -595C778 -603 782 -606 782 -614V-617C780 -639 780 -657 780 -694V-754C809 -772 809 -772 809 -775C809 -777 807 -779 803 -782ZM502 -648V-766H735V-648ZM254 -751L226 -710H140L89 -755C91 -724 92 -679 92 -655V-373C92 -316 91 -253 89 -194V-184C89 -168 91 -163 97 -163C101 -163 107 -165 115 -168C132 -175 135 -177 135 -186V-282H239V-197C239 -189 240 -184 246 -184C249 -184 255 -186 265 -190C286 -199 289 -203 289 -216C289 -235 284 -319 284 -336V-675L311 -691C315 -693 317 -696 317 -699C317 -702 315 -705 310 -709ZM135 -302V-690H239V-302ZM841 -577L820 -542H719L666 -587C668 -564 669 -540 669 -510V-407C669 -396 666 -349 666 -340C666 -334 668 -331 673 -331C677 -331 683 -332 691 -336C709 -343 711 -344 711 -365H829V-334C829 -326 830 -322 835 -322C838 -322 876 -334 876 -349V-352C874 -384 873 -411 873 -436V-508L897 -524C900 -526 902 -528 902 -530C902 -532 901 -533 899 -535ZM711 -385V-522H829V-385ZM535 -575L514 -539H426L374 -580C376 -557 377 -533 377 -503V-374C377 -363 374 -308 374 -306C374 -299 376 -295 381 -295C390 -295 419 -306 419 -322V-363H527C527 -327 527 -323 533 -323C534 -323 574 -335 574 -351C574 -364 571 -425 571 -437V-510C573 -511 599 -527 599 -528C599 -530 597 -532 594 -534ZM419 -383V-519H527V-383ZM965 -40C824 -69 733 -131 675 -230H928C938 -230 943 -231 943 -234C943 -236 940 -240 935 -245L875 -303L833 -250H636V-306C660 -317 663 -318 663 -321C663 -322 660 -324 656 -326L589 -357C590 -329 591 -294 591 -250H367C350 -250 331 -252 313 -253L334 -221C346 -227 368 -230 384 -230H517C458 -139 366 -49 230 43L239 54C390 -29 487 -115 578 -230H591V-59C591 -26 589 20 586 55V65C586 74 587 79 593 79C600 79 639 64 639 46V42C637 8 636 -20 636 -58V-230H656C702 -126 759 -66 867 4C869 5 870 6 872 6C874 6 877 5 879 2C894 -18 920 -27 965 -24Z"/>
</svg>