<svg xmlns="http://www.w3.org/2000/svg" viewBox="0 -1000 1000 1000">
	<path fill="#000000" d="M575 -588H410L354 -643C356 -612 357 -564 357 -540V-363C357 -326 356 -269 354 -250C353 -245 353 -241 353 -238C353 -230 355 -226 360 -226C365 -226 371 -229 381 -233C399 -241 404 -245 404 -259V-282H531C446 -138 353 -40 218 51L224 64C373 -12 472 -108 575 -257V-136C575 -62 573 34 571 70V75C571 87 573 92 580 92C585 92 592 90 602 86C621 78 626 73 626 57V52C623 7 622 -32 622 -144V-279C662 -156 737 -80 873 3C876 5 879 6 881 6C884 6 886 4 888 1C904 -22 930 -39 980 -39V-54C826 -68 701 -155 641 -282H801V-231C801 -222 802 -218 809 -218C813 -218 820 -220 829 -224C848 -233 854 -238 854 -249C854 -251 854 -254 853 -258C850 -278 848 -314 848 -353V-552L876 -570C881 -573 884 -575 884 -578C884 -582 881 -585 875 -589L811 -631L785 -588H622V-695H939C949 -695 954 -697 954 -701C954 -704 950 -710 943 -717L886 -773L840 -717H622V-772L650 -787C656 -790 659 -793 659 -796C659 -799 656 -801 650 -805L571 -849C573 -817 574 -783 575 -717H338C320 -717 290 -719 265 -721L293 -684C310 -691 339 -695 360 -695H575ZM404 -445V-566H575V-445ZM801 -566V-445H622V-566ZM404 -304V-423H575V-304ZM801 -423V-304H622V-423ZM310 -647L172 -303C153 -256 143 -239 98 -239C82 -239 61 -241 34 -245L32 -233C56 -228 90 -219 122 -208C139 -203 146 -181 146 -147C146 -124 143 -95 137 -62C133 -39 131 -19 131 -4C131 34 142 51 162 51C187 51 200 39 200 1C200 -15 198 -35 193 -61C186 -96 183 -127 183 -156C183 -191 188 -221 197 -247L328 -638ZM46 -561C113 -514 135 -482 145 -439C149 -422 155 -415 166 -415C178 -415 197 -446 197 -469C197 -517 96 -554 52 -569ZM90 -790C149 -760 179 -728 192 -686C199 -663 204 -657 218 -657C231 -657 245 -681 245 -704C245 -711 244 -718 241 -724C228 -749 195 -769 95 -801Z"/>
</svg>