<svg xmlns="http://www.w3.org/2000/svg" viewBox="0 -1000 1000 1000">
	<path fill="#000000" d="M798 -304V-187H465V-304ZM798 -19V45C798 54 799 59 805 59C809 59 815 57 824 52C841 43 844 38 844 26C844 7 842 -79 842 -97V-291L870 -312C875 -316 877 -319 877 -322C877 -325 875 -328 870 -331L806 -373L781 -326H477L417 -371C419 -345 420 -316 420 -277V-70C420 -36 419 8 418 45V50C418 60 420 64 425 64C433 64 465 51 465 32V-19ZM798 -165V-41H465V-165ZM975 -439C888 -458 807 -499 737 -589C855 -669 875 -682 894 -682C907 -682 908 -682 908 -685C908 -688 906 -691 901 -696L856 -740C820 -694 773 -646 727 -603C707 -630 695 -649 671 -697V-781C693 -796 696 -797 696 -801C696 -803 693 -805 687 -808L622 -835C625 -784 626 -757 626 -708V-439C626 -425 621 -416 599 -416C582 -416 555 -421 512 -432L508 -417C575 -396 587 -386 596 -358C597 -353 599 -351 602 -351C603 -351 605 -352 607 -353C665 -380 671 -391 671 -429V-660C705 -563 767 -473 878 -405C881 -403 883 -402 885 -402C888 -402 890 -403 893 -406C906 -420 926 -427 976 -425ZM311 -609L186 -285C171 -243 158 -225 111 -225C92 -225 68 -228 36 -233L32 -215C151 -198 166 -184 166 -117C166 -96 153 -5 153 14C153 52 164 69 184 69C209 69 222 57 222 19C222 3 220 -17 215 -43C207 -88 202 -122 202 -152C202 -179 205 -203 213 -229L329 -602ZM50 -571C117 -528 139 -496 149 -453C153 -436 159 -429 170 -429C182 -429 201 -460 201 -483C201 -531 100 -568 56 -583ZM131 -782C190 -752 220 -722 233 -680C240 -657 245 -651 259 -651C272 -651 286 -675 286 -698C286 -736 246 -760 136 -795ZM534 -720L502 -685H416C385 -685 368 -686 343 -689L371 -653C388 -660 417 -664 438 -664H513C464 -529 439 -489 302 -368L307 -358C458 -461 502 -521 557 -653C584 -667 587 -669 587 -673C587 -675 585 -678 580 -682Z"/>
</svg>