<svg xmlns="http://www.w3.org/2000/svg" viewBox="0 -1000 1000 1000">
	<path fill="#000000" d="M774 -716L742 -591H457L501 -716ZM602 -234L293 -119L338 -72C342 -68 345 -66 347 -66C350 -66 352 -68 355 -73C368 -92 387 -107 446 -137L602 -215V-24C602 -4 597 6 561 6C537 6 501 2 445 -6L443 9C552 33 564 46 566 76C566 81 568 83 571 83C573 83 576 82 579 81C641 54 648 44 648 -11V-423C687 -239 741 -147 859 -37C862 -35 865 -33 867 -33C869 -33 871 -35 872 -37C882 -52 902 -60 938 -60C947 -60 957 -60 968 -59V-72C865 -95 811 -143 747 -235C846 -320 861 -327 882 -327C890 -327 894 -328 894 -331C894 -334 892 -338 887 -343L842 -390C805 -332 780 -300 736 -252C703 -302 678 -373 658 -450H943C952 -450 956 -451 956 -454C956 -457 953 -461 947 -467L890 -525L849 -471H755L813 -689L854 -707C859 -709 861 -712 861 -714C861 -717 859 -720 855 -724L794 -781L762 -738H509L524 -782L556 -798C561 -801 564 -803 564 -805C564 -807 561 -809 556 -812L497 -849C494 -828 488 -808 477 -779L419 -613L370 -592L424 -548C426 -546 428 -546 430 -546C435 -546 437 -548 458 -569H736L711 -471H374C351 -471 326 -472 301 -475L329 -439C346 -446 375 -450 396 -450H602ZM360 -387C415 -344 442 -303 448 -272C454 -247 459 -241 470 -241C491 -241 500 -265 500 -284C500 -332 447 -363 366 -398ZM337 -731L181 -317C152 -239 139 -229 32 -229L30 -214C141 -204 147 -186 147 -133C147 -108 144 -73 136 -26C135 -19 134 -12 134 -6C134 27 148 49 164 49C187 49 200 30 200 -3C200 -13 199 -23 197 -35C191 -65 189 -91 189 -116C189 -150 193 -183 202 -223C215 -284 231 -338 353 -725ZM36 -585C93 -554 123 -518 134 -475C141 -450 148 -443 155 -443C176 -443 191 -460 191 -481C191 -543 126 -569 41 -595ZM108 -799C174 -761 201 -728 217 -687C225 -667 232 -659 241 -659C258 -659 272 -676 272 -699C272 -709 270 -720 264 -731C248 -761 212 -783 114 -809Z"/>
</svg>