<svg xmlns="http://www.w3.org/2000/svg" viewBox="0 -1000 1000 1000">
	<path fill="#000000" d="M463 4C463 57 500 57 612 57C768 57 795 54 825 -5C827 -9 828 -11 828 -14C828 -17 826 -20 821 -23C797 -38 791 -60 786 -146H773C768 1 759 13 726 17C700 20 662 21 625 21C523 21 508 19 508 -14V-211C531 -224 533 -225 533 -228C533 -231 531 -233 525 -236L461 -268C462 -247 463 -204 463 -177ZM571 -673C535 -563 483 -503 352 -393L359 -381C499 -466 569 -539 621 -673H717C660 -481 615 -419 440 -303L447 -292C637 -383 699 -460 764 -673H834C831 -565 826 -509 816 -440C805 -365 797 -338 744 -338C721 -338 688 -343 642 -352L639 -339C724 -312 739 -298 745 -272C747 -264 749 -261 753 -261C755 -261 757 -262 761 -264C835 -301 848 -333 859 -430C868 -508 874 -582 878 -660L911 -677C916 -680 919 -682 919 -684C919 -687 916 -690 911 -693L848 -738L820 -693H484C500 -715 523 -747 536 -767C544 -780 552 -786 570 -790C576 -792 580 -793 580 -796C580 -798 577 -801 572 -804L513 -843C463 -726 428 -657 341 -530L349 -522C380 -555 434 -623 470 -673ZM367 -212C354 -145 332 -94 284 -56C268 -44 262 -36 262 -29C262 -26 268 1 290 1C300 1 314 -5 329 -18C356 -40 380 -111 380 -184C380 -193 380 -202 379 -211ZM803 -205C870 -139 908 -78 914 -34C916 -13 922 -5 931 -5C935 -5 966 -12 966 -48C966 -87 924 -159 809 -214ZM577 -280C621 -242 648 -194 657 -148C662 -127 672 -120 681 -120C688 -120 713 -124 713 -159C713 -207 666 -243 584 -287ZM335 -672L230 -386C173 -231 153 -219 32 -224L30 -208C142 -195 166 -187 166 -139C166 -117 147 -21 147 -1C147 37 162 50 178 50C201 49 215 31 215 -10C215 -27 212 -48 207 -73C203 -92 201 -113 201 -137C201 -169 206 -206 219 -247L356 -665ZM38 -564C103 -529 140 -493 155 -455C160 -441 170 -432 179 -432C188 -432 212 -445 212 -475C212 -500 182 -555 42 -575ZM123 -794C180 -765 218 -728 230 -688C237 -664 244 -657 259 -657C272 -658 287 -679 287 -702C287 -710 285 -719 281 -727C263 -759 219 -787 129 -804Z"/>
</svg>