<svg xmlns="http://www.w3.org/2000/svg" viewBox="0 -1000 1000 1000">
	<path fill="#000000" d="M776 -106V-21C776 -3 774 8 745 8C724 8 687 2 624 -12L623 8C712 35 730 50 734 77C735 81 736 83 741 83C743 83 746 83 749 82C802 65 824 39 824 -21V-339L849 -355C855 -359 857 -361 857 -364C857 -367 855 -370 850 -373L792 -417L762 -378H455L404 -416C407 -359 408 -311 408 -270V-112C408 -47 407 2 405 47V61C405 74 407 79 413 79C418 79 424 77 433 73C450 66 452 63 452 48V-106ZM452 -352H776V-250H452ZM776 -132H452V-226H776ZM850 -751L811 -700H416C397 -700 377 -701 357 -704L380 -667C393 -674 416 -678 433 -678H908C914 -678 917 -679 917 -682C917 -684 915 -687 911 -691ZM446 -650C496 -594 506 -578 513 -525C516 -507 520 -493 537 -493C554 -493 565 -517 565 -542C565 -582 541 -603 452 -659ZM522 -845C571 -800 598 -766 605 -734C609 -715 620 -703 627 -703C644 -703 657 -718 657 -743C657 -775 646 -808 529 -854ZM376 -484C358 -484 338 -485 318 -488L340 -451C354 -458 375 -462 394 -462H949C955 -462 958 -464 958 -466C958 -468 956 -471 952 -475L888 -538L846 -484H693C769 -579 786 -596 815 -606C821 -608 824 -610 824 -613C824 -615 821 -618 817 -620L750 -657C734 -600 711 -553 670 -484ZM343 -652L192 -278C170 -223 158 -215 46 -216V-202C155 -184 166 -182 166 -123C166 -101 153 18 153 18C153 46 166 64 188 64C211 64 225 43 225 13C225 7 224 0 223 -7C214 -63 209 -103 209 -138C209 -185 218 -222 236 -276L358 -646ZM40 -567C100 -532 134 -493 145 -457C152 -433 162 -423 172 -423C185 -423 204 -438 204 -469C204 -475 203 -482 201 -489C192 -520 135 -556 46 -579ZM125 -790C198 -752 226 -721 235 -685C242 -659 253 -648 265 -648C283 -648 296 -667 296 -692C296 -702 294 -712 289 -723C273 -760 216 -787 130 -801Z"/>
</svg>