<svg xmlns="http://www.w3.org/2000/svg" viewBox="0 -1000 1000 1000">
	<path fill="#000000" d="M408 -521C411 -494 413 -449 413 -428V-365C413 -354 411 -306 411 -296C411 -283 412 -278 418 -278C422 -278 427 -280 434 -283C455 -293 458 -297 458 -305V-339H782C782 -310 782 -306 790 -306C794 -306 829 -318 829 -331C829 -337 826 -384 826 -394V-452C852 -468 855 -470 855 -475C855 -477 853 -480 849 -483L795 -521L770 -486H464ZM458 -361V-464H782V-361ZM601 -780C632 -798 636 -800 636 -805C636 -808 633 -811 627 -814L562 -848C560 -813 557 -780 549 -716H454C428 -716 406 -717 381 -720L409 -683C426 -690 455 -694 476 -694H546L529 -580H408C385 -580 360 -582 335 -584L363 -547C380 -554 409 -558 430 -558H946C956 -558 960 -560 960 -564C960 -567 957 -573 950 -580L902 -632L864 -580H792L799 -682L826 -697C832 -701 835 -703 835 -706C835 -709 832 -712 826 -716L773 -753L749 -716H592ZM571 -580L588 -694H759L751 -580ZM322 -678L187 -291C171 -244 158 -229 94 -229C77 -229 57 -230 33 -232V-217C64 -213 109 -203 130 -196C151 -189 161 -173 161 -136C161 -113 157 -81 150 -37C147 -22 146 -9 146 2C146 38 159 52 176 52C199 52 211 36 211 -1C211 -12 210 -26 208 -41C203 -75 200 -103 200 -129C200 -174 208 -213 224 -268L338 -670ZM46 -591C112 -543 139 -506 144 -479C149 -451 156 -441 166 -441C182 -441 198 -463 198 -488C198 -548 127 -578 51 -600ZM128 -811C199 -773 227 -740 237 -702C243 -680 256 -670 269 -670C283 -670 297 -680 297 -704C297 -748 272 -785 134 -821ZM650 -290C673 -304 676 -305 676 -308C676 -311 673 -313 667 -315L602 -337C603 -307 604 -278 604 -245H356C333 -245 313 -246 293 -249L311 -212C328 -219 357 -223 378 -223H604V-99H415L430 -141L457 -155C461 -157 463 -159 463 -161C463 -163 461 -166 457 -168L403 -199C400 -184 398 -178 396 -172L372 -110L340 -93L382 -55C385 -52 387 -51 389 -51C392 -51 405 -67 412 -77H604V-18C604 34 604 56 603 70V79C603 90 604 94 609 94C613 94 618 92 626 88C648 77 652 73 652 63C652 60 650 -4 650 -17V-77H930C938 -77 943 -79 943 -82C943 -85 940 -90 934 -96L875 -155L838 -99H650V-223H918C928 -223 933 -225 933 -229C933 -233 929 -238 922 -245L873 -295L836 -245H650Z"/>
</svg>