<svg xmlns="http://www.w3.org/2000/svg" viewBox="0 -1000 1000 1000">
	<path fill="#000000" d="M948 -413C956 -413 960 -415 960 -418C960 -421 957 -425 952 -431L895 -492L854 -435H593C609 -464 623 -490 643 -531C648 -542 656 -548 673 -551C680 -552 684 -556 684 -560C684 -564 681 -569 673 -572L606 -601C586 -537 573 -505 539 -435H389C366 -435 341 -436 316 -439L344 -402C361 -409 390 -413 411 -413H529C470 -287 378 -155 270 -44L280 -32C348 -86 406 -146 464 -225V-72C464 -51 461 39 461 58C461 71 463 77 470 77C475 77 482 74 492 69C508 61 510 56 510 44V-12H791V47C791 56 792 61 798 61C802 61 808 59 818 54C838 44 842 41 842 27V20C839 -25 838 -54 838 -88V-231L869 -248C874 -251 876 -253 876 -255C876 -258 874 -261 869 -265L807 -318L775 -277H499C517 -302 542 -343 581 -413ZM510 -34V-255H791V-34ZM341 -625L193 -277C170 -222 159 -211 51 -215V-200C77 -198 104 -193 136 -182C162 -174 173 -147 173 -99C173 -81 164 -1 164 15C164 53 176 66 193 66C216 66 229 50 229 14C229 3 228 -11 225 -27C217 -72 212 -111 212 -146C212 -184 218 -218 230 -254L357 -617ZM52 -570C118 -522 146 -483 150 -458C155 -430 162 -420 172 -420C188 -420 204 -442 204 -467C204 -527 133 -557 57 -579ZM134 -790C205 -752 235 -709 243 -681C250 -657 258 -649 272 -649C286 -649 300 -667 300 -692C300 -740 253 -771 140 -800ZM530 -779C535 -783 556 -802 556 -805C556 -808 553 -810 547 -813L482 -839C484 -806 485 -780 485 -755V-683H402C379 -683 354 -684 329 -687L357 -650C374 -657 403 -661 424 -661H485C485 -642 484 -561 484 -544C484 -535 486 -530 491 -530C496 -530 502 -533 512 -537C528 -544 532 -547 532 -557V-561C531 -576 530 -598 530 -661H726C726 -587 725 -566 725 -553C725 -540 727 -534 734 -534C744 -534 772 -545 772 -561V-565C771 -579 770 -620 770 -661H944C953 -661 957 -663 957 -666C957 -669 955 -673 950 -678L897 -735L850 -683H770V-773L797 -791C800 -793 802 -795 802 -797C802 -800 800 -802 795 -804L723 -839C725 -806 726 -778 726 -753V-683H530Z"/>
</svg>