<svg xmlns="http://www.w3.org/2000/svg" viewBox="0 -1000 1000 1000">
	<path fill="#000000" d="M493 -318C495 -289 496 -255 496 -230V-129C496 -125 494 -77 494 -67C494 -58 496 -54 502 -54C506 -54 512 -56 519 -59C537 -67 540 -70 540 -85V-105H708C708 -63 708 -63 716 -63C720 -63 727 -65 737 -69C754 -76 757 -80 757 -93V-100C754 -126 753 -153 753 -182V-242C778 -258 781 -260 781 -264C781 -266 778 -269 773 -272L722 -309L703 -278H544ZM540 -127V-256H708V-127ZM450 -654C452 -629 452 -598 452 -575V-496C452 -486 450 -442 450 -433C450 -425 451 -421 457 -421C461 -421 467 -423 477 -427C498 -437 498 -440 498 -465H746C746 -436 746 -433 754 -433C758 -433 764 -435 774 -439C791 -446 794 -449 794 -462C794 -475 791 -528 791 -539V-582C816 -598 818 -599 818 -603C818 -605 816 -608 811 -611L759 -647L737 -615H498ZM498 -487V-593H746V-487ZM349 -656L177 -272C154 -221 140 -209 73 -209C62 -209 49 -209 35 -210V-195C61 -193 88 -188 120 -177C145 -168 157 -146 157 -96C157 -77 148 4 148 20C148 58 160 71 177 71C200 71 213 55 213 19C213 8 212 -6 209 -22C200 -69 196 -106 196 -139C196 -180 203 -214 216 -249L365 -648ZM46 -562C112 -514 140 -475 144 -450C149 -422 156 -412 166 -412C182 -412 198 -434 198 -459C198 -517 125 -550 51 -571ZM128 -785C197 -747 227 -711 237 -676C244 -652 252 -644 266 -644C280 -644 294 -662 294 -687C294 -735 247 -766 134 -795ZM538 -840C581 -811 605 -775 613 -744C618 -722 624 -714 635 -714C653 -714 669 -729 669 -755C669 -763 667 -772 664 -781C657 -800 604 -833 542 -850ZM849 -361V-30C849 -13 846 -4 819 -4C800 -4 767 -9 712 -19L710 -4C813 27 821 36 826 72C827 78 828 81 832 81C834 81 836 80 840 78C887 56 896 43 896 -26V-352C902 -356 925 -373 925 -376C925 -379 922 -382 916 -386L858 -426L832 -383H407L357 -420C359 -385 361 -328 361 -290V-135C361 -104 358 34 358 62C358 74 360 79 367 79C372 79 378 77 387 73C406 65 410 61 410 47V42C408 -3 407 -71 407 -143V-361ZM874 -763L837 -712H408C377 -712 360 -713 335 -716L363 -679C380 -686 409 -690 430 -690H928C938 -690 942 -691 942 -695C942 -698 939 -703 932 -709Z"/>
</svg>