<svg xmlns="http://www.w3.org/2000/svg" viewBox="0 -1000 1000 1000">
	<path fill="#000000" d="M844 -20C844 -2 840 7 813 7C794 7 762 2 711 -9L709 4C784 26 802 42 808 73C809 78 811 80 815 80C816 80 818 80 820 79C878 54 887 40 887 -16V-349L911 -361C915 -363 917 -365 917 -368C917 -370 915 -373 911 -376L855 -423L825 -380H653C638 -380 627 -380 600 -382L633 -352C649 -357 658 -358 673 -358H844V-207L616 -117L647 -73C648 -71 650 -71 652 -71C654 -71 658 -72 660 -76C672 -91 695 -107 720 -120L844 -186ZM531 -20C531 -1 529 8 503 8C484 8 453 3 401 -7L399 6C475 29 492 43 500 73C502 78 504 81 507 81C508 81 509 80 510 80C567 55 573 40 573 -16V-350L598 -363C602 -365 604 -367 604 -369C604 -371 602 -374 597 -378L546 -421L517 -380H361C346 -380 336 -380 308 -382L341 -352C357 -357 367 -358 381 -358H531V-191L288 -105L331 -52C333 -50 334 -49 337 -49C340 -49 344 -52 346 -58C354 -77 372 -92 400 -106L531 -171ZM672 -594C691 -576 714 -545 731 -516L468 -503C502 -530 546 -573 605 -640C624 -662 636 -668 652 -668C663 -668 668 -670 668 -673C668 -676 665 -679 660 -682L605 -718C575 -659 557 -634 502 -567C464 -521 448 -513 407 -506L436 -461C439 -456 441 -454 445 -454C447 -454 449 -455 451 -456C477 -467 519 -476 573 -481L742 -496C748 -485 752 -476 754 -467C759 -442 770 -432 781 -432C794 -432 808 -447 808 -471C808 -520 722 -578 679 -602ZM346 -306C383 -270 400 -246 405 -224C410 -202 419 -195 427 -195C438 -195 448 -210 448 -229C448 -267 418 -287 354 -315ZM663 -306C695 -274 708 -255 715 -232C722 -211 727 -203 735 -203C751 -203 761 -212 761 -227C761 -273 719 -296 671 -315ZM505 -833C475 -756 430 -678 336 -551L346 -539C395 -590 453 -660 532 -770C542 -784 547 -788 556 -790C562 -791 566 -794 566 -797C566 -801 562 -805 554 -809ZM975 -589C840 -610 755 -679 705 -787C729 -807 732 -809 732 -812C732 -815 729 -817 723 -819L665 -838C690 -726 752 -634 872 -547C875 -545 878 -543 880 -543C883 -543 886 -545 889 -548C909 -571 923 -577 976 -577ZM331 -664L220 -354C185 -255 169 -230 96 -230C80 -230 61 -231 38 -233L36 -217C151 -202 172 -195 172 -137C172 -115 156 -19 156 1C156 38 168 51 184 51C207 51 222 32 222 -12C222 -29 220 -48 216 -71C212 -91 210 -114 210 -140C210 -175 214 -213 226 -253L345 -657ZM46 -573C110 -537 136 -507 149 -471C154 -457 164 -448 170 -448C186 -448 208 -463 208 -489C208 -499 204 -510 197 -519C171 -552 139 -567 50 -584ZM125 -799C176 -772 202 -741 215 -697C221 -676 227 -669 239 -669C261 -669 273 -696 273 -714C273 -722 271 -730 267 -738C248 -770 221 -790 131 -809Z"/>
</svg>