<svg xmlns="http://www.w3.org/2000/svg" viewBox="0 -1000 1000 1000">
	<path fill="#000000" d="M874 -712L848 -675H655V-763H847C857 -763 862 -764 862 -768C862 -771 859 -775 853 -781L799 -834L762 -784H480C457 -784 432 -786 407 -788L435 -752C452 -759 481 -763 502 -763H610V-675H429C429 -686 428 -697 427 -709H413C410 -658 386 -627 363 -610C343 -596 337 -582 337 -572C337 -561 347 -556 358 -556C383 -556 421 -582 428 -654H610V-560C610 -544 609 -471 609 -456C609 -441 611 -436 618 -436C622 -436 627 -438 635 -441C653 -449 657 -452 657 -464C657 -479 655 -545 655 -558V-654H858L826 -596L837 -588C881 -634 906 -647 931 -649C938 -650 941 -651 941 -654C941 -657 939 -660 934 -664ZM846 -572H697V-551H846ZM268 -746L247 -711H152L98 -758C100 -727 101 -679 101 -655V-396C101 -298 100 -249 98 -190V-180C98 -164 100 -158 107 -158C111 -158 117 -160 126 -164C143 -171 146 -177 146 -189V-283H255V-179C255 -170 256 -165 262 -165C267 -165 273 -167 282 -172C301 -182 305 -185 305 -199V-206C302 -251 300 -296 300 -372V-673L325 -688C330 -691 333 -694 333 -697C333 -700 330 -704 325 -707ZM146 -304V-690H255V-304ZM575 -571H416V-550H575ZM847 -487H699V-466H847ZM573 -486H417V-465H573ZM890 -444L850 -394H391C368 -394 343 -396 318 -398L346 -362C363 -369 392 -373 413 -373H575C572 -334 562 -291 552 -264H433L379 -311C381 -277 382 -225 382 -186V-77C382 -35 381 9 379 44V58C379 70 380 75 387 75C391 75 398 72 407 68C426 59 430 55 430 42V36C428 3 427 -34 427 -76V-243H528V-112C528 -97 525 -30 525 -16C525 -2 527 3 534 3C534 3 576 -7 576 -24C576 -48 573 -86 573 -110V-243H669V-130C669 -115 666 -48 666 -34C666 -20 668 -15 675 -15C675 -15 717 -25 717 -42C717 -66 714 -104 714 -128V-243H825V-25C825 -6 824 2 802 2C788 2 764 -1 727 -8L725 6C787 27 802 41 805 66C806 71 807 74 811 74C813 74 815 73 819 71C866 41 871 28 871 -7V-229C898 -249 902 -251 902 -257C902 -261 899 -264 893 -268L837 -308L808 -264H574C597 -315 610 -341 632 -373H941C952 -373 957 -375 957 -378C957 -381 953 -385 947 -391Z"/>
</svg>