<svg xmlns="http://www.w3.org/2000/svg" viewBox="0 -1000 1000 1000">
	<path fill="#000000" d="M941 2C951 2 955 0 955 -4C955 -7 952 -12 945 -18L887 -74L847 -20H687V-155H890C899 -155 903 -157 903 -160C903 -163 900 -167 894 -172L833 -226L799 -177H687V-301H886C896 -301 900 -302 900 -306C900 -309 897 -314 890 -320L834 -372L800 -323H687V-448H930C939 -448 943 -449 943 -453C943 -455 940 -460 934 -465L876 -521L839 -470H461C500 -525 501 -527 518 -530C527 -532 531 -534 531 -537C531 -539 527 -543 520 -548L469 -584C400 -443 334 -344 256 -243L265 -231C311 -274 343 -307 399 -383V-107C399 -55 398 2 396 61V66C396 80 398 86 405 86C410 86 417 83 426 79C444 71 446 68 446 54V2ZM641 -301V-177H446V-301ZM641 -448V-323H446V-448ZM641 -155V-20H446V-155ZM596 -595C631 -562 652 -524 656 -499C660 -476 665 -472 675 -472C693 -472 706 -486 706 -506C706 -548 657 -581 603 -604ZM319 -613L173 -287C150 -236 138 -224 70 -224C59 -224 46 -224 31 -225V-210C57 -208 84 -203 116 -192C142 -184 153 -157 153 -109C153 -91 144 -11 144 5C144 43 156 56 173 56C196 56 209 40 209 4C209 -7 208 -21 205 -37C197 -83 192 -121 192 -157C192 -194 197 -228 210 -264L335 -605ZM54 -572C120 -530 148 -485 152 -460C157 -432 164 -422 174 -422C190 -422 206 -444 206 -469C206 -525 141 -556 59 -583ZM124 -789C195 -751 223 -710 233 -676C240 -652 248 -644 262 -644C276 -644 289 -664 289 -689C289 -735 245 -764 130 -801ZM441 -630V-731C467 -748 470 -750 470 -754C470 -758 466 -760 457 -764L393 -792C395 -771 396 -746 396 -718V-652L363 -629L409 -586C411 -584 412 -583 414 -583C419 -583 421 -586 442 -608H827V-569C827 -560 829 -556 836 -556C840 -556 846 -558 854 -562C872 -572 876 -575 876 -587C876 -604 874 -631 874 -648V-725C904 -745 904 -746 904 -749C904 -752 901 -754 894 -757L824 -786C826 -762 827 -741 827 -711V-630H650V-785C680 -808 680 -808 680 -812C680 -815 677 -817 670 -820L601 -847C604 -814 604 -795 604 -769V-630Z"/>
</svg>