<svg xmlns="http://www.w3.org/2000/svg" viewBox="0 -1000 1000 1000">
	<path fill="#000000" d="M580 -669C582 -649 583 -616 583 -566V-222C583 -202 582 -169 580 -116V-111C580 -99 582 -93 589 -93C596 -93 629 -105 629 -125V-156H863C863 -119 863 -115 870 -115C874 -115 880 -117 889 -121C909 -130 913 -135 913 -150V-156C910 -208 909 -246 909 -260V-585L940 -603C945 -606 947 -608 947 -611C947 -614 945 -617 940 -621L877 -669L845 -623H716C743 -682 766 -726 791 -767H954C964 -767 968 -768 968 -772C968 -775 965 -780 957 -787L899 -844L854 -788H599C576 -788 551 -789 526 -792L554 -756C571 -763 600 -767 621 -767H725C721 -728 710 -681 692 -623H644ZM863 -328H629V-458H863ZM629 -177V-307H863V-177ZM629 -602H863V-479H629ZM673 -126C621 -65 544 3 448 67L454 79C540 36 595 5 679 -56C689 -63 702 -66 721 -65C729 -64 734 -67 734 -72C734 -76 731 -80 725 -85ZM298 -633L179 -299C158 -241 144 -233 36 -237V-222C62 -220 89 -215 121 -204C147 -196 158 -169 158 -121C158 -103 149 -23 149 -7C149 31 161 44 178 44C201 44 214 28 214 -8C214 -19 213 -33 210 -49C202 -96 197 -133 197 -169C197 -204 202 -237 213 -276L314 -625ZM39 -568C115 -515 141 -485 145 -460C150 -432 157 -422 167 -422C183 -422 197 -442 197 -467C197 -520 144 -548 44 -577ZM109 -792C180 -754 211 -716 220 -683C227 -659 235 -651 249 -651C262 -651 274 -667 274 -690C274 -699 272 -709 268 -719C258 -745 216 -776 115 -802ZM761 -91C859 -44 897 -11 917 35C925 54 941 63 950 63C965 63 973 47 973 30C973 -39 861 -78 768 -106ZM400 -205L259 -157L297 -109C301 -104 304 -102 307 -102C309 -102 312 -104 314 -107C325 -122 345 -138 389 -160L552 -241L550 -255L446 -220V-681H568C578 -681 582 -683 582 -688C582 -691 580 -695 575 -700L525 -752L484 -702H348C327 -702 301 -703 282 -706L307 -671C322 -677 349 -681 368 -681H400Z"/>
</svg>