<svg xmlns="http://www.w3.org/2000/svg" viewBox="0 -1000 1000 1000">
	<path fill="#000000" d="M795 -71C795 -41 795 -38 803 -38C804 -38 842 -46 842 -63C842 -75 840 -125 840 -135V-253L864 -267C868 -269 870 -271 870 -274C870 -276 868 -278 863 -282L812 -320L785 -290H437L381 -338C383 -309 384 -260 384 -237V-118C384 -106 382 -48 382 -40C382 -31 384 -27 390 -27C394 -27 399 -29 406 -32C424 -40 426 -45 426 -71ZM795 -93H634V-170H795ZM634 -269H795V-190H634ZM589 -170V-93H426V-170ZM589 -269V-190H426V-269ZM595 -557H473C450 -557 425 -558 400 -561L427 -523C444 -530 473 -534 494 -534H595V-467H440C417 -467 392 -468 367 -471L394 -433C411 -440 440 -444 461 -444H595V-373H391C368 -373 343 -374 318 -377L345 -341C362 -348 391 -352 412 -352H938C947 -352 951 -353 951 -357C951 -359 948 -364 941 -370L891 -417L858 -373H640V-444H865C874 -444 879 -446 879 -450C879 -453 876 -458 870 -463L823 -506L797 -467H640V-534H797C797 -509 797 -506 806 -506C818 -506 842 -516 842 -531C842 -557 840 -599 840 -625H955C963 -625 967 -627 967 -631C967 -634 965 -638 960 -643L911 -694L877 -647H840V-711L866 -723C871 -726 874 -728 874 -730C874 -733 871 -736 866 -739L812 -778L785 -741H640V-784L666 -801C672 -805 675 -808 675 -810C675 -813 672 -815 666 -818L592 -851C594 -810 595 -780 595 -741H473C450 -741 425 -742 400 -745L428 -708C445 -715 474 -719 495 -719H595V-647H427C404 -647 379 -648 354 -651L381 -614C398 -621 426 -625 448 -625H595ZM797 -557H640V-625H797ZM640 -719H797V-647H640ZM911 -34L876 11H379C348 11 331 10 306 7L333 47C350 40 379 36 400 36H954C963 36 968 34 968 30C968 27 965 22 959 16ZM341 -704L231 -387C184 -251 170 -226 88 -226C73 -226 57 -227 39 -228L37 -212C152 -197 173 -190 173 -132C173 -110 157 -14 157 6C157 43 169 56 185 56C208 56 223 37 223 -7C223 -24 221 -43 217 -66C213 -84 211 -107 211 -131C211 -169 216 -211 227 -248L355 -697ZM42 -583C106 -547 145 -510 157 -472C162 -456 177 -446 189 -446C204 -446 215 -465 215 -488C215 -555 100 -582 46 -594ZM119 -812C176 -782 213 -741 224 -704C231 -680 238 -673 253 -673C267 -673 282 -694 282 -718C282 -726 280 -734 276 -742C257 -777 213 -801 125 -822Z"/>
</svg>