<svg xmlns="http://www.w3.org/2000/svg" viewBox="0 -1000 1000 1000">
	<path fill="#000000" d="M650 -632V-713H832V-632ZM610 -255H389C390 -280 391 -309 390 -335H494V-302C494 -293 495 -289 501 -289C503 -289 535 -296 535 -310C535 -317 534 -349 534 -355V-444C559 -460 562 -462 562 -466C562 -469 559 -471 554 -473L493 -499C494 -483 494 -458 494 -446V-354H390V-435C415 -452 418 -454 418 -457C418 -460 415 -462 409 -465L346 -495C349 -475 349 -453 349 -415V-346C349 -73 315 -15 201 75L211 90C307 26 354 -29 375 -130H481V55C481 62 483 66 489 66C494 66 500 64 509 61C520 57 523 52 523 39C523 30 521 -13 521 -22V-113L549 -131C554 -134 556 -137 556 -139C556 -142 554 -145 549 -148L497 -187L473 -148H379C383 -174 386 -203 388 -236H610V-131C610 -51 609 0 607 56V64C607 80 609 86 616 86C620 86 625 84 633 81C650 74 654 68 654 54V48C652 21 650 -57 650 -129V-236H860V-150H777L724 -192C725 -176 725 -158 725 -139V-22C725 -11 724 37 724 47C724 57 726 62 733 62C740 62 765 55 765 42V-131H860C860 -94 860 -2 857 50V62C857 76 859 81 865 81C869 81 875 79 882 76C900 68 904 63 904 48V42C901 -3 900 -53 900 -106V-428C925 -444 928 -445 928 -448C928 -451 925 -453 920 -455L857 -482C859 -454 860 -435 860 -394V-350H759V-446C781 -463 784 -465 784 -469C784 -471 782 -473 777 -474L717 -496C718 -484 719 -466 719 -436V-354L687 -338L736 -305C739 -303 741 -302 744 -302C746 -302 749 -304 751 -308L765 -331H860V-255H650V-514H832C832 -485 832 -482 840 -482C844 -482 875 -483 875 -508V-513C873 -542 872 -581 872 -612H969C980 -612 986 -614 986 -618C986 -622 981 -629 972 -638L931 -681L889 -632H872V-697L907 -715C913 -718 916 -721 916 -723C916 -726 913 -730 907 -734L847 -777L820 -732H650V-791L678 -806C685 -810 689 -812 689 -815C689 -818 685 -820 678 -823L606 -856C610 -815 610 -783 610 -732H418C395 -732 370 -733 345 -736L373 -704C390 -710 419 -713 440 -713H610V-632H368C345 -632 320 -634 295 -636L323 -601C340 -608 369 -612 390 -612H610V-534H412C381 -534 364 -535 339 -538L367 -503C384 -509 413 -514 434 -514H610ZM650 -612H832V-534H650ZM290 -608L175 -281C157 -230 147 -218 77 -218C64 -218 50 -218 33 -219V-204C59 -202 86 -197 118 -186C141 -178 154 -162 154 -123C154 -100 149 -69 140 -27C136 -11 135 3 135 15C135 49 149 62 166 62C189 62 202 46 202 10C202 -1 201 -15 198 -31C192 -67 188 -98 188 -127C188 -174 197 -214 212 -258L306 -600ZM34 -574C100 -526 128 -487 132 -462C137 -434 144 -424 154 -424C170 -424 186 -446 186 -471C186 -477 185 -484 183 -490C172 -526 127 -558 39 -583ZM116 -794C187 -756 217 -713 225 -685C232 -661 240 -653 254 -653C268 -653 282 -671 282 -696C282 -704 281 -713 277 -722C267 -748 223 -778 122 -804Z"/>
</svg>