<svg xmlns="http://www.w3.org/2000/svg" viewBox="0 -1000 1000 1000">
	<path fill="#000000" d="M469 -176H335C312 -176 286 -177 262 -180L290 -145C306 -151 336 -155 357 -155H959C967 -155 971 -157 971 -161C971 -164 968 -168 963 -173L910 -219L876 -176H728V-313H890C900 -313 905 -314 905 -318C905 -321 901 -325 894 -331L845 -374L814 -331H728V-384C749 -400 752 -402 752 -405C752 -408 748 -411 743 -413L681 -440C683 -405 684 -370 684 -331H513V-383C535 -396 538 -398 538 -400C538 -403 534 -405 528 -408L466 -435C468 -401 469 -368 469 -331H396C373 -331 347 -333 323 -335L351 -303C367 -309 397 -313 418 -313H469ZM684 -176H513V-313H684ZM539 -625C539 -604 539 -600 548 -600C558 -600 585 -608 585 -627V-631C584 -658 583 -684 583 -694V-758L598 -770C603 -773 606 -775 606 -778C606 -781 603 -784 599 -787L549 -820L527 -788H412L359 -822C361 -793 362 -753 362 -726V-506C362 -465 381 -446 479 -446C573 -446 598 -455 615 -490C617 -494 618 -497 618 -499C618 -502 617 -503 614 -504C599 -511 593 -528 587 -583H575C573 -495 567 -485 463 -485C414 -485 406 -493 406 -511V-625ZM539 -772V-643H406V-772ZM835 -624C835 -597 835 -594 844 -594C853 -594 881 -604 881 -623C881 -634 879 -683 879 -693V-750C904 -766 907 -767 907 -771C907 -774 905 -777 901 -780L852 -821L826 -787H693L647 -821C649 -792 650 -752 650 -725V-505C650 -463 669 -449 799 -449C897 -449 916 -456 933 -496C934 -499 935 -501 935 -504C935 -507 933 -510 928 -514C916 -523 910 -538 906 -598H890C889 -496 882 -487 792 -487C703 -487 694 -495 694 -516V-624ZM835 -771V-642H694V-771ZM323 -719L175 -309C159 -263 145 -247 102 -247C83 -247 59 -250 27 -255L25 -237C65 -229 85 -223 119 -208C136 -201 144 -173 144 -134C144 -110 141 -82 136 -52C132 -29 130 -9 130 6C130 44 141 61 161 61C186 61 197 49 197 10C197 -6 195 -26 192 -51C188 -85 186 -114 186 -141C186 -184 191 -220 200 -253L337 -714ZM42 -599C99 -546 113 -524 123 -473C125 -459 135 -449 147 -449C149 -449 180 -452 180 -484C180 -533 149 -555 48 -611ZM105 -806C168 -772 189 -746 202 -704C208 -683 220 -675 231 -675C247 -675 263 -688 263 -713C263 -762 212 -785 112 -819ZM657 -100C752 -53 805 -2 828 36C838 53 854 59 861 59C870 59 884 50 884 28C884 17 880 4 870 -9C850 -35 767 -87 663 -114ZM495 -135C454 -90 370 -13 275 63L286 76C512 -72 526 -79 547 -83C552 -84 555 -86 555 -88C555 -90 553 -93 549 -96Z"/>
</svg>