<svg xmlns="http://www.w3.org/2000/svg" viewBox="0 -1000 1000 1000">
	<path fill="#000000" d="M352 -555C353 -544 353 -500 353 -452V-326C353 -307 351 -223 351 -206C351 -196 352 -191 358 -191C363 -191 370 -195 382 -201C394 -207 396 -211 396 -230H589V-133H336C314 -133 290 -135 266 -137L293 -103C309 -109 333 -113 356 -113H589C589 -57 588 0 586 58V66C586 85 588 93 597 93C601 93 607 90 616 86C630 79 634 74 634 56V49C633 26 632 -18 632 -113H961C969 -113 973 -116 973 -119C973 -121 972 -124 969 -126L910 -187L861 -133H632V-230H814C814 -201 814 -197 820 -197C820 -197 860 -206 860 -231C860 -246 858 -310 858 -323V-477L891 -495C893 -496 894 -498 894 -500C894 -502 893 -504 889 -507L826 -553L797 -513H407ZM589 -250H396V-364H589ZM396 -493H589V-384H396ZM814 -250H632V-364H814ZM632 -493H814V-384H632ZM856 -753V-629H689V-753ZM856 -609V-567C856 -563 858 -560 862 -560C864 -560 903 -572 903 -582C903 -593 900 -644 900 -654V-737L934 -751C937 -752 938 -753 938 -755C938 -757 936 -760 932 -763L870 -811L843 -773H699L644 -819C645 -788 646 -740 646 -716V-639C646 -629 644 -578 644 -575C644 -565 646 -561 652 -561C658 -561 667 -565 683 -572C688 -574 689 -578 689 -609ZM540 -753V-630H376V-753ZM540 -610V-579C540 -570 541 -565 546 -565C548 -565 585 -577 585 -592V-595C584 -608 583 -634 583 -673V-742L617 -759C618 -759 619 -761 619 -762C619 -764 618 -766 616 -768L558 -815L528 -773H389L331 -823C332 -792 333 -744 333 -720V-651C333 -614 332 -590 331 -581C331 -577 330 -574 330 -571C330 -563 332 -560 338 -560C342 -560 349 -562 359 -566C374 -572 376 -576 376 -585V-610ZM301 -660L177 -308C160 -260 149 -242 107 -242C90 -242 68 -245 39 -250L37 -238C61 -233 92 -225 127 -213C147 -207 157 -179 157 -136C157 -116 154 -93 150 -67C146 -44 144 -24 144 -9C144 29 155 46 175 46C200 46 213 34 213 -4C213 -20 211 -40 206 -66C198 -110 193 -147 193 -180C193 -206 196 -230 202 -252L315 -655ZM38 -596C105 -549 127 -517 137 -474C141 -457 147 -450 158 -450C170 -450 189 -481 189 -504C189 -552 88 -589 44 -604ZM109 -807C168 -777 198 -745 211 -703C218 -680 223 -674 237 -674C250 -674 264 -698 264 -721C264 -728 263 -735 260 -741C247 -766 214 -786 114 -818Z"/>
</svg>