<svg xmlns="http://www.w3.org/2000/svg" viewBox="0 -1000 1000 1000">
	<path fill="#000000" d="M574 -275C600 -218 609 -177 609 -141C609 -106 615 -99 629 -99C648 -99 661 -119 661 -147C661 -199 623 -243 586 -281ZM670 -300C705 -251 720 -215 725 -159C727 -129 734 -114 749 -114C766 -114 779 -136 779 -164C779 -225 700 -291 678 -309ZM325 -701L167 -267C146 -210 133 -201 25 -205V-190C51 -188 78 -183 110 -172C136 -164 147 -137 147 -89C147 -71 138 9 138 25C138 63 150 76 167 76C190 76 203 60 203 24C203 13 202 -1 199 -17C191 -62 186 -98 186 -132C186 -169 192 -204 204 -244L337 -695ZM28 -560C96 -506 114 -481 122 -448C129 -420 138 -410 148 -410C164 -410 176 -429 176 -453C176 -512 118 -540 33 -569ZM100 -814C169 -766 193 -733 201 -705C208 -681 224 -673 238 -673C252 -673 266 -691 266 -716C266 -764 219 -795 106 -824ZM392 -239C382 -149 366 -122 338 -93C321 -76 314 -63 314 -52C314 -40 328 -22 348 -22C381 -22 409 -62 409 -156C409 -179 407 -207 404 -240ZM467 -250C483 -210 489 -180 489 -151C489 -143 486 -108 486 -101C486 -78 494 -69 508 -69C525 -69 539 -92 539 -119C539 -144 521 -196 479 -256ZM862 -342C861 -200 851 -117 836 -58C827 -24 818 -8 780 -8C756 -8 720 -14 665 -26L660 -14C763 16 775 29 778 64C779 71 783 75 790 75C793 75 797 74 801 72C853 44 869 17 882 -39C898 -111 907 -198 910 -316L939 -338C944 -342 946 -345 946 -348C946 -351 944 -354 939 -357L874 -405L849 -368H439C452 -384 469 -404 479 -419C489 -433 496 -438 513 -444C520 -447 525 -450 525 -453C525 -456 522 -459 515 -462L457 -490C390 -369 340 -290 250 -176L257 -166C304 -209 353 -260 419 -342ZM373 -816C375 -785 376 -743 376 -714V-592C376 -574 373 -496 373 -477C373 -461 375 -455 382 -455C394 -455 417 -466 417 -492V-497H830V-462C830 -454 831 -450 838 -450C842 -450 847 -452 856 -455C873 -461 878 -469 878 -484V-488C876 -524 875 -561 875 -608V-738L906 -760C912 -764 914 -767 914 -770C914 -773 912 -776 906 -780L846 -822L822 -790H718C695 -790 670 -792 645 -795L673 -753C690 -760 719 -764 740 -764H830V-655H730C701 -655 682 -656 657 -660L685 -619C702 -628 731 -633 752 -633H830V-524H417V-630H595C606 -630 611 -632 611 -636C611 -640 607 -645 598 -654L555 -697L525 -651H417V-746C540 -783 574 -792 589 -792C591 -792 601 -790 603 -790C608 -790 610 -792 610 -795C610 -798 608 -802 603 -808L570 -845C528 -817 468 -786 417 -764Z"/>
</svg>