<svg xmlns="http://www.w3.org/2000/svg" viewBox="0 -1000 1000 1000">
	<path fill="#000000" d="M661 -333V-249H515L458 -296C460 -265 461 -219 461 -196V-53C461 -11 460 15 458 48V60C458 73 460 78 466 78C473 78 502 69 502 49V-230H661V-131C615 -126 573 -123 530 -120L563 -72C565 -70 566 -68 569 -68C570 -68 572 -69 575 -71C595 -86 613 -93 687 -110L780 -132C786 -117 790 -101 794 -82C798 -64 802 -60 812 -60C822 -60 835 -77 835 -98C835 -127 800 -163 752 -206L745 -200C758 -179 768 -161 775 -143C749 -140 725 -137 702 -135V-230H868V-14C868 4 866 14 840 14C821 14 790 9 738 -3L736 10C805 31 825 43 832 75C833 82 836 84 839 84C840 84 842 84 844 83C896 55 909 38 909 -1V-213L933 -232C936 -235 938 -237 938 -239C938 -242 935 -245 931 -248L881 -284L854 -249H702V-333H828C828 -299 828 -295 836 -295C844 -295 871 -303 871 -322V-326C869 -349 869 -363 869 -419V-502L896 -516C900 -518 902 -520 902 -523C902 -525 900 -528 895 -532L845 -573L821 -534H553L496 -594C498 -563 499 -517 499 -494V-437C499 -395 498 -369 496 -336V-324C496 -311 498 -306 504 -306C512 -306 538 -316 540 -333ZM828 -352H702V-425H828ZM702 -515H828V-444H702ZM661 -425V-352H540V-425ZM661 -515V-444H540V-515ZM333 -681L181 -299C160 -245 147 -233 39 -237V-222C65 -220 92 -215 124 -204C147 -197 156 -176 156 -139C156 -115 152 -84 145 -45C142 -29 140 -15 140 -4C140 31 154 44 171 44C194 44 206 28 206 -11C206 -22 205 -34 203 -49C198 -89 196 -120 196 -148C196 -194 203 -230 218 -276L349 -673ZM45 -592C111 -544 139 -505 143 -480C148 -452 155 -442 165 -442C181 -442 197 -464 197 -489C197 -549 126 -579 50 -601ZM127 -812C198 -774 228 -731 236 -703C243 -679 251 -671 265 -671C279 -671 293 -689 293 -714C293 -762 246 -793 133 -822ZM793 -699C814 -709 816 -710 816 -714C816 -716 815 -718 811 -720L750 -748C752 -716 752 -702 752 -650H622V-698L640 -708C642 -709 643 -711 643 -713C643 -715 641 -718 637 -720L576 -749C581 -710 581 -692 581 -650H515C493 -650 469 -652 445 -654L471 -620C488 -627 516 -631 537 -631H581C581 -622 580 -580 580 -571C580 -557 582 -551 589 -551C597 -551 623 -563 623 -576C623 -584 622 -623 622 -631H752C752 -622 751 -580 751 -572C751 -565 754 -561 761 -561C767 -561 794 -568 794 -580C794 -588 793 -624 793 -631H950C956 -631 960 -632 960 -634C960 -636 957 -639 952 -644L903 -693L870 -650H793ZM366 -825C367 -791 367 -742 367 -689C367 -211 355 -52 222 84L229 93C371 -24 402 -133 408 -496L412 -755H930C940 -755 944 -756 944 -759C944 -761 942 -764 937 -769L891 -819L857 -774H425Z"/>
</svg>