<svg xmlns="http://www.w3.org/2000/svg" viewBox="0 -1000 1000 1000">
	<path fill="#000000" d="M796 -459L775 -431H501L441 -478C443 -449 444 -404 444 -381V-281C444 -271 442 -227 442 -218C442 -212 443 -209 447 -209C455 -209 480 -219 481 -231H786C786 -208 786 -205 792 -205C795 -205 800 -207 807 -210C824 -217 828 -221 828 -233C828 -243 824 -312 824 -327V-397C851 -414 854 -416 854 -419C854 -422 851 -425 846 -428ZM653 -340V-413H786V-340ZM482 -340V-413H615V-340ZM653 -248V-322H786V-248ZM482 -248V-322H615V-248ZM911 -21L869 21H839V-115L864 -128C870 -131 873 -133 873 -136C873 -139 870 -142 864 -146L817 -184L797 -157H454L401 -200C402 -178 404 -128 404 -103V21H365C342 21 317 19 292 17L320 50C337 43 366 39 387 39H945C954 39 958 38 958 34C958 32 955 27 949 21ZM572 21V-140H663V21ZM701 21V-140H801V21ZM442 21V-140H534V21ZM94 -794C147 -756 176 -716 189 -680C196 -662 205 -654 215 -654C230 -654 247 -676 247 -698C247 -733 189 -775 99 -803ZM876 -600C870 -521 864 -511 829 -510C804 -509 773 -508 740 -508C717 -508 693 -509 670 -509C609 -510 609 -513 609 -550L786 -562C795 -563 800 -565 800 -569C800 -572 796 -578 787 -585L748 -619L714 -577L609 -569V-610C627 -620 629 -621 629 -624C629 -626 626 -628 621 -630L569 -648C571 -632 571 -626 571 -606V-567L463 -559C449 -558 435 -557 420 -557C411 -557 402 -557 392 -558L420 -529C433 -537 440 -539 487 -542L571 -548C571 -488 573 -474 651 -474H737C890 -474 892 -474 920 -507C923 -510 924 -513 924 -515C924 -518 922 -521 918 -524C898 -540 890 -551 890 -600ZM40 -590C82 -562 111 -519 119 -482C123 -466 131 -457 140 -457C157 -457 173 -478 173 -501C173 -549 102 -577 45 -599ZM880 -694L851 -668H618V-737H883C892 -737 896 -738 896 -742C896 -745 893 -749 887 -756L848 -799L805 -754H618V-803C647 -819 650 -821 650 -826C650 -829 646 -832 638 -835L578 -856C580 -820 580 -794 580 -753V-668H384L326 -725C327 -693 327 -659 327 -624C327 -122 299 -63 176 69L187 78C322 -32 357 -100 364 -400C365 -459 369 -577 370 -650H860L812 -588L824 -577C863 -617 888 -631 922 -635C931 -636 935 -638 935 -640C935 -642 932 -645 928 -649ZM291 -706L148 -319C135 -283 123 -271 88 -271C74 -271 56 -273 33 -276L31 -263C124 -247 130 -229 130 -180C130 -153 125 -114 115 -58C111 -35 109 -18 109 -5C109 23 117 28 136 28C159 28 174 9 174 -27C174 -33 174 -40 173 -47C166 -105 162 -151 162 -187C162 -224 166 -252 173 -274L303 -700Z"/>
</svg>