<svg xmlns="http://www.w3.org/2000/svg" viewBox="0 -1000 1000 1000">
	<path fill="#000000" d="M887 -569L852 -528L767 -527V-776H897C905 -776 910 -777 910 -781C910 -784 907 -788 899 -795L849 -840L816 -797H397C374 -797 349 -799 324 -801L360 -765C377 -772 406 -776 427 -776H461V-526L355 -525C332 -525 311 -525 286 -526L315 -493C333 -499 355 -502 376 -503L725 -505C725 -497 724 -459 724 -452C724 -439 726 -434 731 -434C735 -434 739 -435 746 -438C765 -446 769 -449 769 -461C769 -468 767 -499 767 -505L930 -506C940 -506 945 -507 945 -511C945 -514 941 -519 934 -526ZM502 -624V-686H725V-624ZM502 -707V-776H725V-707ZM502 -526V-603H725V-527ZM622 -121L547 -112V-404H580C588 -404 592 -405 592 -409C592 -412 590 -416 584 -422L551 -461L525 -425H357C334 -425 309 -427 284 -429L309 -393C320 -397 335 -401 350 -402V-88L225 -72L258 -31C260 -28 262 -27 264 -27C266 -27 267 -28 270 -29C285 -37 319 -48 353 -54L507 -83C507 -40 505 28 505 70C505 86 507 92 513 92C516 92 521 90 528 87C546 79 550 75 550 62V56C548 20 547 -41 547 -90L623 -104ZM388 -214V-299H507V-214ZM388 -320V-404H507V-320ZM388 -92V-193H507V-107ZM916 -154L886 -111L862 -108V-399H943C951 -399 956 -401 956 -404C956 -408 952 -413 945 -420L910 -455L880 -420H678C655 -420 630 -422 605 -424L626 -388C634 -391 645 -394 656 -396V-86C640 -85 569 -78 555 -77L591 -47C607 -55 631 -60 652 -62L820 -80C820 -38 819 30 819 72C819 85 821 90 826 90C830 90 834 89 841 86C860 78 865 74 865 60V56C863 18 862 -36 862 -85L958 -95C967 -96 972 -98 972 -102C972 -105 968 -110 961 -116ZM695 -216V-301H820V-216ZM695 -322V-399H820V-322ZM695 -91V-195H820V-104ZM249 -745L224 -706H135L75 -766C77 -735 78 -687 78 -663V-360C78 -303 77 -213 75 -154V-144C75 -128 77 -122 84 -122C88 -122 94 -124 103 -128C120 -135 122 -141 122 -153V-270H237V-191C237 -183 238 -178 244 -178C247 -178 253 -180 263 -184C279 -191 282 -196 282 -210V-217C279 -262 278 -325 278 -401V-671L304 -686C310 -690 312 -692 312 -695C312 -697 310 -700 304 -704ZM122 -292V-684H237V-292Z"/>
</svg>