<svg xmlns="http://www.w3.org/2000/svg" viewBox="0 -1000 1000 1000">
	<path fill="#000000" d="M828 -626V-585C828 -578 829 -574 835 -574C840 -574 877 -585 877 -602V-606C874 -631 873 -648 873 -675V-748L900 -766C905 -769 907 -772 907 -775C907 -777 905 -780 901 -783L841 -825L814 -786H409L355 -831C357 -802 358 -766 358 -733V-652C358 -642 356 -598 356 -589C356 -581 357 -577 362 -577C366 -577 372 -579 381 -583C402 -592 402 -594 402 -626ZM551 -647V-763H667V-647ZM402 -647V-763H508V-647ZM828 -763V-647H711V-763ZM103 -809C160 -779 197 -738 208 -701C215 -677 222 -670 237 -670C251 -670 266 -691 266 -715C266 -743 244 -790 109 -819ZM318 -678L216 -380C169 -244 155 -219 73 -219C58 -219 42 -220 24 -221L22 -205C137 -190 158 -183 158 -125C158 -103 142 -7 142 13C142 50 154 63 170 63C193 63 208 44 208 0C208 -17 206 -36 202 -59C198 -78 196 -100 196 -124C196 -159 201 -200 212 -241L332 -671ZM333 -593C335 -504 333 -368 328 -279C320 -128 299 -61 227 59L237 68C333 -45 364 -122 373 -286C377 -359 380 -465 380 -521H550C551 -509 551 -497 551 -486C551 -395 530 -333 502 -305C464 -269 431 -247 388 -225L393 -208C507 -260 543 -292 569 -345C617 -322 646 -295 672 -259C677 -252 685 -248 694 -248C707 -248 718 -253 718 -269C718 -315 630 -346 575 -360L578 -368C671 -408 694 -414 708 -414C716 -414 721 -417 721 -422C721 -424 720 -427 716 -430L678 -461C648 -435 625 -417 585 -394C590 -411 593 -436 595 -464C624 -477 628 -479 628 -483C628 -486 625 -489 618 -492L556 -521H952C959 -521 963 -522 963 -525C963 -528 960 -532 955 -538L891 -611L859 -545H397ZM40 -566C100 -524 114 -504 129 -469C135 -454 142 -446 151 -446C170 -446 185 -472 185 -494C185 -542 86 -567 44 -577ZM844 -468C847 -432 848 -398 848 -322V-45C848 -13 838 0 802 0C785 0 762 -3 731 -8L730 6C768 18 782 30 794 72C795 77 798 80 803 80C805 80 807 80 810 78C881 41 889 31 889 -34V-391L914 -408C920 -412 922 -415 922 -418C922 -422 920 -425 914 -428ZM484 -457C466 -410 456 -398 414 -381C403 -377 399 -367 399 -359C399 -344 419 -339 427 -339C434 -339 443 -341 453 -348C482 -367 497 -395 502 -455ZM748 -399C750 -366 751 -323 751 -286V-202C751 -165 748 -133 745 -116C744 -112 744 -109 744 -106C744 -100 746 -96 751 -96C756 -96 762 -98 770 -102C789 -111 792 -117 792 -130C791 -160 790 -194 790 -212V-326L816 -343C821 -346 823 -350 823 -353C823 -357 820 -361 812 -365ZM553 -276C550 -147 533 -99 491 -63C441 -21 400 7 308 52L312 61C430 20 516 -27 556 -84C605 -60 638 -34 664 7C671 19 681 25 692 25C706 25 717 18 717 4C717 -20 667 -72 564 -97C567 -102 569 -106 571 -111C674 -146 703 -152 716 -152C724 -152 729 -155 729 -159C729 -161 728 -163 725 -165L679 -199C641 -168 611 -148 579 -131C586 -153 593 -186 600 -230C619 -237 621 -238 621 -242C621 -244 620 -246 616 -248ZM477 -203C473 -159 447 -131 408 -115C392 -108 385 -99 385 -92C385 -81 404 -71 418 -71C435 -71 494 -96 494 -174C494 -183 493 -193 492 -203Z"/>
</svg>