<svg xmlns="http://www.w3.org/2000/svg" viewBox="0 -1000 1000 1000">
	<path fill="#000000" d="M476 -520H545V-67L476 -59ZM588 -72V-160H717C727 -160 731 -161 731 -164C731 -166 728 -171 722 -177L679 -223L641 -180H588V-280H711C719 -280 722 -281 722 -284C722 -286 720 -289 714 -295L666 -342L634 -300H588V-395H701C709 -395 712 -396 712 -399C712 -401 710 -404 704 -410L658 -458L628 -415H588V-520H730C738 -372 755 -232 767 -177C751 -145 734 -116 715 -88ZM936 -520C944 -520 948 -521 948 -524C948 -527 944 -532 935 -540L887 -587L850 -542H771C768 -629 765 -694 764 -783L789 -799C794 -802 796 -805 796 -807C796 -809 794 -811 789 -813L719 -848C723 -719 726 -619 729 -542H368C346 -542 319 -543 296 -546L325 -510C340 -516 369 -520 389 -520H432V-415H363C336 -415 315 -416 290 -419L318 -384C335 -391 364 -395 385 -395H432V-300H358C331 -300 310 -301 285 -304L313 -269C330 -276 359 -280 380 -280H432V-180H347C320 -180 299 -181 274 -184L302 -149C319 -156 348 -160 369 -160H432V-53L238 -29L274 24C276 27 278 28 280 28C283 28 286 26 289 23C299 13 325 2 404 -13L702 -70C664 -17 622 28 575 69L585 80C666 28 731 -39 784 -128C832 -11 922 75 956 75C957 75 968 75 968 65C968 57 965 43 958 30C954 21 948 -1 948 -46C948 -75 951 -114 957 -165L941 -167L903 -26C863 -64 835 -109 812 -181C841 -241 866 -309 887 -389C892 -407 896 -413 910 -420C919 -425 924 -428 924 -431C924 -435 919 -439 910 -444L860 -475C846 -385 824 -307 796 -239C783 -299 775 -395 771 -520ZM299 -686L158 -268C147 -235 124 -219 34 -218V-203C136 -193 144 -170 144 -119C144 -94 140 -60 133 -15C131 0 130 12 130 22C130 56 142 68 160 68C182 68 195 51 195 11C195 0 194 -14 192 -29C187 -61 185 -94 185 -127C185 -181 192 -236 207 -292L318 -682ZM41 -569C92 -536 119 -505 130 -464C134 -448 141 -437 153 -437C170 -437 184 -458 184 -480C184 -488 182 -495 179 -502C167 -528 131 -553 46 -579ZM99 -790C170 -746 190 -725 206 -688C216 -666 223 -662 235 -662C249 -662 261 -680 261 -700C261 -756 175 -781 105 -800ZM602 -837C582 -760 546 -669 499 -559L511 -552C539 -592 564 -636 590 -687C612 -664 627 -640 636 -608C641 -590 645 -583 658 -583C672 -583 682 -600 682 -617C682 -636 668 -669 597 -702C607 -722 617 -744 627 -767C632 -778 637 -781 649 -785C658 -788 662 -791 662 -794C662 -796 660 -799 655 -802ZM432 -841C403 -742 379 -674 331 -567L344 -560C379 -613 408 -666 427 -704C446 -682 456 -651 458 -624C459 -605 466 -595 478 -595C493 -595 506 -617 506 -636C506 -645 505 -681 434 -719C443 -738 451 -756 458 -774C462 -783 469 -791 483 -798C489 -801 492 -804 492 -807C492 -810 488 -813 480 -817ZM798 -771C842 -738 865 -696 874 -666C879 -649 885 -639 897 -639C912 -639 929 -657 929 -678C929 -684 927 -689 925 -695C912 -726 876 -750 806 -779Z"/>
</svg>