<svg xmlns="http://www.w3.org/2000/svg" viewBox="0 -1000 1000 1000">
	<path fill="#000000" d="M897 -643L864 -594H76C53 -594 28 -596 3 -598L31 -562C48 -569 77 -573 98 -573H425C426 -555 420 -536 409 -510H275L215 -548C217 -515 218 -455 218 -418V-337C218 -321 215 -252 215 -237C215 -225 217 -221 223 -221C227 -221 233 -223 241 -226C258 -233 261 -239 261 -257H724C724 -239 724 -234 732 -234C736 -234 742 -236 751 -240C767 -247 770 -251 770 -265V-274C768 -306 767 -339 767 -383V-480L792 -492C799 -496 802 -498 802 -501C802 -503 799 -506 792 -510L733 -547L712 -510H434C448 -530 462 -549 481 -573H950C962 -573 968 -574 968 -577C968 -580 963 -585 954 -593ZM261 -354V-414H724V-354ZM261 -278V-334H724V-278ZM261 -435V-489H724V-435ZM582 -224C729 -191 849 -149 886 -123C907 -108 927 -101 933 -101C940 -101 945 -112 945 -123C945 -173 836 -199 585 -237ZM792 -813L771 -782H592L540 -812C541 -797 541 -772 541 -760V-702C541 -684 541 -669 540 -639C540 -624 542 -619 549 -619C553 -619 557 -620 563 -622C582 -628 583 -632 583 -639V-655H780V-624C780 -619 781 -616 786 -616C792 -616 824 -623 824 -636C824 -644 822 -683 822 -691V-747L848 -759C853 -762 856 -764 856 -766C856 -768 853 -771 848 -774ZM583 -675V-761H780V-675ZM392 -814L368 -779H209L154 -812C155 -797 155 -772 155 -760V-691C155 -674 155 -658 154 -628C154 -614 156 -609 164 -609C167 -609 171 -610 177 -611C196 -617 197 -621 197 -628V-654H377V-623C377 -618 378 -615 383 -615C389 -615 421 -622 421 -635C421 -643 419 -682 419 -690V-748L443 -759C448 -762 451 -763 451 -765C451 -768 448 -770 443 -774ZM197 -674V-758H377V-674ZM403 -169L384 -141H229C271 -158 321 -179 362 -198C373 -203 391 -207 408 -208C417 -209 425 -208 425 -211C425 -212 421 -214 412 -219L358 -253C315 -215 165 -140 25 -77L27 -65C83 -83 129 -99 171 -116V-5C171 13 171 29 170 58C170 73 172 78 179 78C183 78 187 77 193 75C212 69 213 65 213 58V10H392V62C392 67 393 70 398 70C404 70 436 63 436 50C436 50 434 4 434 -5V-110L455 -119C461 -121 464 -123 464 -126C464 -128 460 -131 454 -135ZM213 -11V-120H392V-11ZM780 -159L768 -141H590L535 -163C536 -148 536 -123 536 -111V-10C536 8 536 24 535 53C535 68 537 73 544 73C548 73 552 72 558 70C577 64 578 60 578 53V7H774V65C774 70 775 73 780 73C786 73 818 66 818 53C818 45 816 6 816 -2V-106L831 -115C836 -117 838 -119 838 -121C838 -124 835 -126 830 -129ZM578 -14V-120H774V-14Z"/>
</svg>