<svg xmlns="http://www.w3.org/2000/svg" viewBox="0 -1000 1000 1000">
	<path fill="#000000" d="M776 -846C736 -808 691 -768 643 -729C595 -747 533 -766 453 -787L449 -774C512 -747 566 -724 610 -702C545 -651 474 -601 399 -555L407 -544C486 -579 568 -625 650 -682C713 -651 754 -624 774 -602C791 -584 808 -575 818 -575C829 -575 834 -593 834 -602C834 -619 823 -639 799 -654C771 -673 738 -691 690 -711C715 -730 740 -750 765 -771C787 -790 800 -794 813 -796C821 -797 824 -799 824 -802C824 -804 822 -807 817 -811ZM112 -612C112 -519 97 -477 68 -443C48 -419 41 -408 41 -400C41 -392 51 -375 72 -375C87 -375 104 -383 116 -400C129 -418 134 -450 134 -494C134 -527 131 -566 125 -612ZM894 -538L853 -488H578C587 -500 594 -511 602 -523C614 -542 631 -552 645 -555C651 -557 655 -558 655 -561C655 -564 652 -567 647 -572L598 -614C574 -569 549 -527 523 -488H381C358 -488 333 -490 308 -492L336 -455C353 -462 382 -466 403 -466H509C452 -378 389 -298 313 -209C289 -234 259 -260 231 -280C237 -325 240 -394 243 -496L362 -605C378 -620 387 -624 403 -625C410 -626 414 -627 414 -630C414 -632 412 -635 407 -640L364 -682C331 -631 291 -578 244 -522C246 -592 247 -676 248 -778L275 -798C279 -801 281 -803 281 -806C281 -808 279 -810 275 -812L199 -853C201 -799 202 -743 202 -686C202 -586 199 -482 194 -372C186 -188 161 -54 42 75L52 85C173 -19 212 -124 229 -261C282 -204 312 -136 320 -85C324 -58 329 -53 338 -53C358 -53 372 -77 372 -106C372 -128 369 -149 322 -199C364 -236 404 -276 441 -316V-177C441 -128 440 -80 438 -46V-35C438 -23 440 -19 445 -19C449 -19 454 -21 461 -24C482 -33 489 -37 489 -50V-53C487 -92 486 -135 486 -176V-304H620V-124C620 -73 619 17 617 46V56C617 70 620 75 627 75C631 75 637 73 645 70C666 61 670 57 670 44V38C667 -1 666 -54 666 -122V-304H811V-99C811 -79 809 -69 779 -69C763 -69 738 -72 700 -78L698 -64C769 -45 786 -30 792 0C793 5 796 8 800 8C802 8 804 7 807 6C856 -14 857 -29 857 -94V-290C888 -308 892 -309 892 -314C892 -317 889 -320 884 -324L824 -366L795 -327H666V-376C690 -392 693 -394 693 -397C693 -399 690 -401 686 -403L617 -434C619 -403 620 -372 620 -327H488L463 -341C500 -382 533 -424 563 -466H947C956 -466 961 -469 961 -473C961 -477 958 -482 951 -488Z"/>
</svg>