<svg xmlns="http://www.w3.org/2000/svg" viewBox="0 -1000 1000 1000">
	<path fill="#000000" d="M760 -521H623V-660H760ZM671 -376H915C923 -376 927 -377 927 -380C927 -383 924 -387 919 -392L862 -448L823 -397H484V-660H580V-550C580 -537 578 -478 578 -467C578 -459 580 -455 584 -455C590 -455 623 -465 623 -483V-500H760C760 -457 760 -456 767 -456C774 -456 807 -465 807 -482C807 -484 806 -486 806 -489C804 -506 804 -527 804 -577V-660H958C965 -660 969 -661 969 -665C969 -667 967 -671 962 -676L909 -731L874 -681H804V-790L827 -803C832 -806 834 -808 834 -810C834 -812 832 -815 827 -817L757 -858C759 -821 760 -790 760 -761V-681H623V-786C633 -794 650 -806 650 -810C650 -812 648 -814 643 -816L577 -848C579 -820 580 -783 580 -756V-681H484V-753L509 -771C513 -774 515 -776 515 -778C515 -780 512 -782 508 -784L436 -822C438 -787 440 -729 440 -681C393 -681 390 -681 340 -685L368 -649C372 -650 395 -660 440 -660V-415L403 -393L453 -354C457 -351 460 -350 463 -350C466 -350 469 -351 471 -354L490 -376H627V-262H400C378 -262 353 -263 330 -266L357 -231C372 -237 401 -241 421 -241H567C500 -131 377 -18 242 59L249 70C401 -1 552 -125 618 -241H627V-72C627 -17 626 29 624 71V76C624 88 626 93 633 93C638 93 645 91 654 87C669 80 673 75 673 59V53C671 21 671 -6 671 -80V-241H696C743 -69 883 32 893 32C895 32 897 30 898 28C913 6 933 -2 983 -2V-14C871 -31 767 -127 718 -241H974C980 -241 983 -242 983 -245C983 -247 982 -250 978 -255L928 -315L891 -262H671ZM117 -582C104 -480 84 -440 59 -420C40 -405 32 -395 32 -385C32 -382 34 -362 56 -362C69 -362 88 -370 105 -390C124 -411 133 -451 133 -519C133 -538 133 -559 131 -583ZM239 -780L266 -797C270 -799 272 -801 272 -803C272 -805 270 -807 265 -810L191 -849C192 -705 191 -566 189 -395C186 -173 155 -97 16 71L26 81C149 -32 200 -117 223 -251C268 -204 288 -162 295 -126C302 -90 307 -85 316 -85C335 -85 354 -110 354 -140C354 -182 314 -219 227 -272C232 -304 236 -377 237 -452L357 -587C365 -596 373 -601 389 -604C394 -605 397 -607 397 -609C397 -611 395 -613 392 -615L338 -655C302 -583 269 -525 237 -483C238 -595 239 -685 239 -744Z"/>
</svg>