<svg xmlns="http://www.w3.org/2000/svg" viewBox="0 -1000 1000 1000">
	<path fill="#000000" d="M423 -829C425 -801 426 -770 426 -735V-610C426 -566 425 -544 422 -504V-494C422 -481 424 -475 431 -475C436 -475 442 -477 450 -481C468 -489 472 -494 472 -522H806C806 -496 806 -493 813 -493C817 -493 822 -495 830 -499C851 -509 856 -515 856 -527V-533C852 -577 851 -597 851 -641V-745L880 -762C886 -765 888 -768 888 -771C888 -774 886 -777 880 -781L815 -827L783 -784H489ZM806 -544H472V-647H806ZM472 -762H806V-669H472ZM122 -599C112 -508 91 -460 56 -424C47 -414 43 -403 43 -395C43 -382 52 -376 66 -376C126 -376 138 -455 138 -518C138 -541 137 -567 134 -598ZM271 -794C275 -797 277 -799 277 -800C277 -802 275 -804 271 -806L189 -848C193 -769 195 -686 195 -599C195 -263 195 -111 20 70L30 80C149 -22 202 -109 224 -247C267 -200 296 -139 306 -92C312 -63 317 -57 326 -57C343 -57 360 -78 360 -108C360 -117 358 -127 355 -137C347 -159 297 -215 227 -266C233 -309 236 -357 238 -459C367 -608 376 -613 393 -617C398 -618 400 -620 400 -622C400 -623 398 -626 394 -628L335 -667C305 -596 271 -534 239 -488C240 -553 240 -650 240 -776ZM410 -442C445 -402 469 -357 471 -332C473 -310 478 -304 491 -304C504 -304 520 -324 520 -347C520 -389 459 -427 417 -450ZM648 -281V-456C675 -470 678 -472 678 -476C678 -479 674 -482 666 -485L596 -516C599 -481 600 -457 600 -418V-281H397C373 -281 347 -283 320 -285L350 -248C368 -255 398 -259 421 -259H530C514 -81 460 -9 257 76L261 88C492 21 558 -58 580 -259H669V-42C669 45 677 49 798 49C904 49 934 44 959 -20C960 -22 960 -23 960 -24C960 -28 958 -31 954 -33C925 -49 917 -73 912 -159L897 -158C897 8 895 8 805 8C720 8 717 8 717 -45V-259H952C962 -259 968 -261 968 -265C968 -269 964 -274 956 -281L901 -334L861 -281H717C815 -393 832 -408 846 -409C854 -410 858 -411 858 -414C858 -416 856 -418 852 -421L794 -458C767 -397 729 -331 694 -281Z"/>
</svg>