<svg xmlns="http://www.w3.org/2000/svg" viewBox="0 -1000 1000 1000">
	<path fill="#000000" d="M119 -578C110 -478 84 -442 55 -422C36 -409 28 -399 28 -389C28 -386 31 -361 59 -361C73 -361 91 -368 107 -386C126 -407 135 -447 135 -515C135 -534 135 -555 133 -579ZM272 -799C276 -801 278 -803 278 -805C278 -807 276 -809 271 -812L196 -851C197 -707 196 -562 194 -391C191 -181 150 -80 22 75L32 85C156 -28 205 -116 228 -249C276 -201 299 -154 306 -120C312 -89 318 -79 327 -79C346 -79 365 -104 365 -134C365 -183 303 -225 231 -269C236 -301 241 -366 242 -447L350 -569C359 -580 368 -585 382 -586C387 -587 390 -588 390 -591C390 -593 388 -595 385 -597L331 -637C301 -575 273 -524 242 -479C245 -626 245 -728 245 -782ZM372 -408C410 -371 429 -345 435 -321C440 -300 447 -284 458 -284C475 -284 492 -302 492 -319C492 -327 482 -377 381 -417ZM544 -111C544 -57 543 4 541 52V62C541 77 543 84 549 84C554 84 560 81 569 77C586 69 589 64 589 51V44C587 2 586 -70 586 -142V-242H766C776 -242 780 -244 780 -248C780 -251 778 -255 773 -260L724 -309L692 -264H586V-404C611 -423 614 -425 614 -428C614 -431 611 -433 605 -435L540 -464C542 -429 544 -391 544 -340V-264H435C412 -264 384 -266 359 -268L390 -231C407 -238 436 -242 457 -242H518C495 -186 397 -63 283 42L293 54C400 -29 480 -108 544 -200ZM689 -428C660 -370 632 -324 601 -281L611 -272C702 -363 717 -373 735 -377C743 -379 746 -381 746 -383C746 -386 743 -389 736 -394ZM952 -163C918 -19 915 -13 908 -10C831 -74 831 -268 831 -332C831 -366 832 -402 834 -443L864 -460C870 -463 873 -465 873 -468C873 -471 870 -473 866 -477L812 -524L780 -488H420C397 -488 372 -490 347 -492L375 -457C392 -464 421 -467 442 -467H791C789 -421 789 -383 789 -351C789 -50 853 7 904 48C937 75 957 84 966 84C974 84 974 73 974 69C974 63 972 55 968 47C958 28 953 7 953 -27C953 -58 957 -99 966 -161ZM938 -697C947 -697 952 -698 952 -701C952 -704 949 -709 942 -716L893 -767L855 -718H504C511 -730 517 -743 524 -756C536 -779 548 -791 565 -795C572 -797 576 -799 576 -802C576 -805 573 -808 567 -812L507 -850C476 -737 418 -615 361 -518L374 -507C426 -583 461 -638 493 -697ZM821 -648L783 -599H529C506 -599 481 -600 456 -603L484 -567C501 -574 530 -578 551 -578H866C876 -578 881 -579 881 -583C881 -586 878 -590 871 -597ZM595 -176C657 -136 689 -95 701 -61C710 -36 724 -23 732 -23C746 -23 757 -39 757 -61C757 -75 753 -91 741 -108C724 -132 682 -155 600 -188Z"/>
</svg>