<svg xmlns="http://www.w3.org/2000/svg" viewBox="0 -1000 1000 1000">
	<path fill="#000000" d="M599 -474V-619H700V-474ZM555 -641H461L407 -679C409 -653 410 -610 410 -590V-477C410 -468 408 -428 408 -420C408 -413 409 -410 414 -410C418 -410 424 -412 432 -415C451 -422 453 -424 453 -435V-452H847C847 -424 847 -421 854 -421C858 -421 865 -424 876 -429C891 -436 896 -440 896 -449C896 -451 895 -454 895 -457C892 -482 891 -513 891 -540V-607L914 -623C920 -627 922 -629 922 -632C922 -634 920 -637 916 -639L860 -676L833 -641H744V-744H937C948 -744 954 -745 954 -749C954 -753 949 -758 941 -766L886 -818L849 -766H427C404 -766 380 -767 354 -770L382 -733C399 -740 428 -744 449 -744H555ZM453 -474V-619H555V-474ZM847 -619V-474H744V-619ZM700 -641H599V-744H700ZM736 -128C816 -71 849 -36 878 16C891 40 895 42 900 42C916 42 929 21 929 -1C929 -65 784 -122 742 -138ZM806 -393L770 -346H499C476 -346 451 -348 426 -350L454 -313C471 -320 500 -324 521 -324H850C858 -324 862 -325 862 -329C862 -332 860 -336 854 -342ZM946 -213C953 -213 956 -214 956 -218C956 -220 954 -225 948 -231L894 -286L859 -235H423C400 -235 375 -237 350 -239L378 -202C395 -209 424 -213 445 -213H619V-18C619 2 615 12 586 12C567 12 538 8 491 -1L489 13C562 34 583 51 590 79C591 85 593 87 597 87C599 87 601 86 604 85C660 58 666 48 666 -4V-213ZM481 -157C414 -63 391 -39 287 56L295 69C380 11 406 -10 485 -82C496 -92 505 -97 520 -101C529 -103 533 -105 533 -108C533 -110 531 -113 527 -116ZM131 -607C121 -516 100 -468 65 -432C56 -422 52 -411 52 -403C52 -390 61 -384 75 -384C135 -384 147 -463 147 -526C147 -549 146 -575 143 -606ZM248 -784L279 -802C283 -805 285 -807 285 -808C285 -810 283 -812 279 -814L198 -856C202 -777 204 -694 204 -607C204 -534 202 -458 200 -378C195 -217 155 -71 25 64L35 74C154 -27 213 -137 233 -256C276 -208 305 -147 315 -100C321 -71 326 -65 335 -65C352 -65 369 -86 369 -116C369 -125 367 -135 364 -145C356 -167 306 -223 236 -274C242 -319 246 -355 247 -463C372 -620 379 -625 399 -630C404 -631 406 -633 406 -635C406 -636 404 -639 400 -641L339 -678C311 -605 278 -539 248 -492Z"/>
</svg>