<svg xmlns="http://www.w3.org/2000/svg" viewBox="0 -1000 1000 1000">
	<path fill="#000000" d="M790 -364L763 -327H598C629 -380 652 -408 659 -411C667 -414 670 -416 670 -419C670 -421 668 -423 662 -425L611 -447C606 -408 599 -373 584 -327H485L427 -375C429 -345 430 -300 430 -277V-111C430 -84 426 47 426 59C426 72 428 78 435 78C439 78 446 76 454 72C472 64 476 60 476 48V9H777V69C777 77 778 82 784 82C787 82 793 80 803 76C824 67 828 63 828 49V42C825 -1 823 -52 823 -104V-282L847 -297C852 -300 854 -303 854 -307C854 -310 852 -313 847 -317ZM476 -172V-305H777V-172ZM476 -13V-150H777V-13ZM654 -681C687 -649 700 -620 703 -594C706 -570 712 -561 725 -561C734 -561 754 -577 754 -601C754 -631 718 -667 661 -691ZM395 -688C427 -649 437 -610 437 -587C437 -569 447 -556 462 -556C473 -556 487 -571 487 -592C487 -630 435 -674 403 -697ZM852 -802L825 -762H712C700 -762 664 -764 639 -766L667 -729C684 -736 713 -740 734 -740H838V-582L631 -496L665 -450C667 -447 668 -446 670 -446C672 -446 674 -448 677 -452C686 -467 705 -482 741 -504L838 -561V-422C838 -414 840 -410 846 -410C850 -410 855 -412 863 -415C883 -424 887 -428 887 -442C887 -453 883 -548 883 -568V-724L911 -740C915 -742 917 -745 917 -747C917 -750 914 -753 910 -756ZM571 -794L549 -766H389C377 -766 341 -768 316 -770L344 -733C361 -740 390 -744 411 -744H557V-556L325 -455L368 -413C371 -410 373 -409 376 -409C378 -409 380 -411 382 -414C390 -430 403 -444 432 -462L557 -540V-426C557 -418 558 -412 565 -412C569 -412 574 -414 582 -417C602 -426 605 -430 605 -443V-450C603 -483 602 -512 602 -551V-724L626 -738C630 -740 632 -742 632 -745C632 -747 629 -750 625 -753ZM109 -617C109 -520 87 -470 64 -434C50 -412 44 -400 44 -389C44 -384 47 -366 65 -366C79 -366 98 -377 113 -398C125 -414 132 -453 132 -505C132 -538 129 -577 122 -617ZM341 -638C317 -602 275 -546 239 -505C240 -582 242 -674 243 -776L272 -792C277 -794 279 -797 279 -799C279 -802 276 -804 271 -807L198 -843C198 -696 196 -554 192 -379C188 -187 167 -81 46 58L56 68C153 -11 208 -111 227 -246C280 -198 300 -145 311 -105C316 -86 323 -79 336 -79C352 -79 366 -98 366 -120C366 -129 364 -137 360 -146C346 -174 309 -209 229 -262C233 -294 236 -370 238 -476L361 -581L391 -588C396 -589 398 -591 398 -594C398 -596 397 -599 393 -601Z"/>
</svg>