<svg xmlns="http://www.w3.org/2000/svg" viewBox="0 -1000 1000 1000">
	<path fill="#000000" d="M523 -548H414C392 -548 367 -550 344 -552L371 -516C386 -522 415 -526 435 -526H626V-439H485L431 -477C433 -449 434 -413 434 -391V-240C434 -178 433 -139 431 -113V-109C431 -99 434 -94 440 -94C444 -94 450 -96 457 -100C481 -113 481 -113 481 -149H821V-107C821 -98 823 -94 828 -94C832 -94 838 -96 846 -100C868 -112 873 -117 873 -129V-134C869 -179 868 -208 868 -261V-403L893 -416C897 -418 900 -421 900 -423C900 -426 897 -430 891 -434L836 -476L810 -439H673V-526H960C967 -526 972 -528 972 -531C972 -534 969 -538 964 -543L910 -595L872 -548H773V-675H924C932 -675 936 -676 936 -680C936 -683 933 -688 925 -695L871 -744L835 -697H773V-787C798 -803 801 -804 801 -808C801 -811 798 -813 793 -816L725 -849C727 -814 728 -785 728 -697H568V-779C593 -792 596 -794 596 -798C596 -800 593 -803 588 -806L520 -840C522 -807 523 -774 523 -697H465C442 -697 418 -698 392 -701L420 -665C436 -671 466 -675 487 -675H523ZM626 -171H481V-285H626ZM481 -417H626V-307H481ZM673 -417H821V-307H673ZM821 -171H673V-285H821ZM728 -548H568V-675H728ZM124 -596C116 -509 95 -457 56 -421C47 -412 42 -402 42 -393C42 -374 60 -373 66 -373C129 -373 141 -453 141 -516C141 -538 140 -564 137 -595ZM245 -768L277 -786C281 -789 283 -791 283 -792C283 -794 281 -796 277 -798L193 -840C198 -735 200 -645 200 -553C200 -242 193 -109 27 75L38 85C158 -21 208 -110 229 -245C273 -197 303 -136 314 -89C320 -60 325 -54 334 -54C352 -54 369 -75 369 -105C369 -114 368 -124 364 -134C356 -156 304 -212 232 -263C238 -308 241 -349 244 -459C363 -593 378 -606 397 -610C402 -611 404 -612 404 -614C404 -616 402 -618 398 -621L337 -660C305 -586 276 -533 245 -487ZM559 -108C491 -41 384 35 295 80L301 92C382 64 455 25 557 -37C570 -45 585 -51 602 -53C607 -54 610 -56 610 -59C610 -61 609 -64 605 -67ZM684 -95C763 -53 827 1 863 52C883 80 888 82 892 82C904 82 915 71 915 46C915 40 914 33 913 26C905 -17 846 -54 690 -106Z"/>
</svg>