<svg xmlns="http://www.w3.org/2000/svg" viewBox="0 -1000 1000 1000">
	<path fill="#000000" d="M409 -562C410 -531 410 -483 410 -459V-314C410 -282 409 -232 407 -198V-193C407 -183 409 -179 414 -179C417 -179 453 -191 453 -206V-229H617V-135H392C373 -135 352 -136 331 -138C325 -183 289 -232 217 -285C225 -342 229 -398 231 -496C325 -597 341 -609 355 -613C361 -615 364 -616 364 -619C364 -621 361 -623 357 -626L310 -658C270 -586 253 -557 232 -524C234 -630 236 -711 238 -786L262 -804C266 -807 268 -809 268 -811C268 -814 265 -817 258 -820L188 -858C189 -819 189 -776 189 -731C189 -300 179 -123 32 62L42 72C143 -20 189 -118 214 -266C256 -218 275 -154 277 -131C280 -85 286 -79 298 -79C311 -79 330 -98 331 -127L349 -104C365 -110 392 -114 412 -114H617C617 -55 616 2 614 57V70C614 86 616 93 624 93C629 93 637 89 649 83C659 77 662 72 662 57V49C660 6 660 -43 660 -114H964C972 -114 976 -116 976 -120C976 -122 975 -125 972 -128L908 -198L858 -135H660V-229H822V-194C822 -190 823 -187 827 -187C830 -187 869 -198 869 -214V-216C867 -242 866 -271 866 -314V-481L899 -499C901 -500 903 -502 903 -504C903 -506 901 -508 897 -511L835 -555L805 -517H468ZM617 -250H453V-364H617ZM453 -497H617V-384H453ZM822 -250H660V-364H822ZM660 -497H822V-384H660ZM876 -605V-563C876 -558 877 -556 881 -556C883 -556 923 -568 923 -578C923 -589 920 -640 920 -650V-743L950 -759C953 -761 955 -763 955 -765C955 -767 953 -769 949 -772L889 -813L863 -777H736L681 -823C682 -792 683 -744 683 -720V-638C683 -627 681 -580 681 -570C681 -563 683 -560 688 -560C693 -560 726 -568 726 -582V-605ZM876 -757V-625H726V-757ZM560 -756V-630H415V-756ZM560 -610V-569C560 -564 561 -562 565 -562C570 -562 606 -576 606 -585C604 -605 603 -622 603 -639V-741L637 -757C639 -758 640 -759 640 -760C640 -762 639 -763 636 -766L580 -814L553 -776H427L370 -826C371 -795 372 -747 372 -723V-626C372 -617 370 -580 370 -572C370 -561 372 -556 380 -556C381 -556 415 -561 415 -577V-610ZM106 -612C104 -506 82 -460 48 -428C35 -415 30 -404 30 -395C30 -381 42 -375 56 -375C113 -375 126 -448 126 -514C126 -543 123 -576 118 -612Z"/>
</svg>