<svg xmlns="http://www.w3.org/2000/svg" viewBox="0 -1000 1000 1000">
	<path fill="#000000" d="M828 -342L800 -303H462L401 -344C403 -315 404 -269 404 -246V-85C404 -62 402 42 402 63C402 71 403 75 408 75C412 75 418 73 427 69C447 61 447 57 447 24H816V65C816 73 817 78 823 78C827 78 833 76 842 72C860 64 864 60 864 49V44C862 15 860 -27 860 -88V-266L884 -280C889 -283 892 -285 892 -288C892 -290 889 -293 885 -296ZM657 -153V-281H816V-153ZM447 -153V-281H613V-153ZM657 2V-131H816V2ZM447 2V-131H613V2ZM980 -361C865 -381 763 -443 710 -530H949C958 -530 963 -531 963 -535C963 -538 959 -543 952 -550L898 -601L863 -552H725C828 -659 840 -667 853 -667C862 -667 866 -669 866 -672C866 -675 863 -679 856 -683L806 -716C763 -641 735 -596 703 -552H659V-735C688 -737 816 -754 842 -754C855 -754 864 -753 871 -751C875 -750 879 -749 881 -749C885 -749 887 -751 887 -753C887 -756 885 -760 880 -766L843 -811C728 -781 554 -756 380 -737V-722C459 -722 533 -724 616 -731V-552H418C395 -552 370 -554 345 -556L373 -519C390 -526 419 -530 440 -530H540C469 -438 382 -361 284 -291L292 -278C406 -341 508 -420 603 -530H616C616 -476 615 -414 613 -359V-350C613 -335 615 -329 621 -329C625 -329 630 -331 638 -334C659 -343 663 -347 663 -360V-367C660 -409 659 -460 659 -530H689C734 -441 785 -385 888 -318C892 -315 895 -314 898 -314C900 -314 902 -315 905 -319C915 -334 939 -348 980 -349ZM439 -689C477 -645 492 -612 498 -587C502 -569 509 -562 519 -562C535 -562 550 -580 550 -602C550 -643 500 -670 446 -698ZM127 -604C124 -502 98 -460 70 -428C56 -412 49 -401 49 -391C49 -381 58 -367 77 -367C96 -367 149 -385 149 -511C149 -538 146 -569 141 -604ZM352 -667C313 -592 278 -529 246 -484C248 -559 250 -655 252 -779L282 -797C287 -800 289 -802 289 -805C289 -808 286 -810 282 -812L206 -854C206 -650 204 -541 198 -378C191 -197 155 -49 32 86L42 95C158 -3 206 -100 230 -260C281 -208 299 -158 310 -107C315 -84 322 -78 332 -78C351 -78 363 -94 363 -123C363 -172 329 -215 232 -276C237 -314 241 -370 245 -457L363 -588C378 -604 386 -609 406 -610C413 -610 417 -612 417 -614C417 -617 414 -620 409 -624Z"/>
</svg>