<svg xmlns="http://www.w3.org/2000/svg" viewBox="0 -1000 1000 1000">
	<path fill="#000000" d="M801 -669C823 -683 826 -685 826 -688C826 -690 824 -691 820 -693L767 -718H953C961 -718 965 -719 965 -722C965 -724 962 -728 958 -732L899 -793L859 -739H453L396 -788C399 -759 401 -733 401 -698V-382C401 -160 377 -83 236 65L245 78C401 -57 445 -144 445 -342V-465H674V-384H571L516 -423C518 -392 519 -344 519 -320V-207C519 -190 516 -102 516 -97C516 -87 517 -82 523 -82C527 -82 533 -84 541 -88C558 -95 561 -101 561 -123H829C829 -97 830 -88 839 -88C843 -88 848 -90 856 -93C872 -99 875 -103 875 -116V-122C872 -167 871 -195 871 -244V-353L897 -366C901 -368 903 -370 903 -372C903 -374 900 -377 895 -381L839 -420L810 -384H716V-465H967C975 -465 980 -466 980 -470C980 -472 977 -477 971 -483L918 -540L874 -486H801V-589H932C940 -589 944 -590 944 -594C944 -596 941 -600 936 -605L885 -653L849 -610H801ZM561 -144V-252H674V-144ZM674 -273H561V-363H674ZM716 -273V-363H829V-273ZM716 -144V-252H829V-144ZM579 -486H445V-718H579V-610H527C505 -610 480 -612 457 -614L484 -579C499 -585 528 -589 548 -589H579ZM621 -668L643 -680C647 -682 649 -684 649 -686C649 -688 647 -690 642 -692L589 -718H759V-610H621ZM759 -486H621V-589H759ZM122 -610C112 -513 93 -473 56 -435C47 -425 43 -414 43 -406C43 -393 52 -387 66 -387C126 -387 138 -466 138 -529C138 -552 137 -578 134 -609ZM239 -777L270 -795C274 -798 276 -800 276 -801C276 -803 274 -805 270 -807L189 -849C193 -770 195 -687 195 -600C195 -527 193 -451 191 -371C187 -224 155 -63 25 72L35 82C153 -19 204 -129 224 -248C265 -203 283 -167 293 -120C299 -91 304 -85 313 -85C330 -85 347 -106 347 -136C347 -145 345 -155 342 -165C334 -187 297 -220 227 -267C233 -314 236 -352 238 -470C347 -597 364 -610 385 -615C390 -616 392 -617 392 -619C392 -621 390 -623 386 -626L327 -665C294 -595 268 -547 239 -502ZM605 -106C556 -52 475 9 364 76L369 89C443 59 544 1 596 -34C615 -46 635 -53 654 -56C660 -57 663 -59 663 -61C663 -62 661 -64 658 -66ZM731 -78C811 -39 855 -8 883 32C902 60 911 66 920 66C935 66 948 50 948 29C948 16 942 1 929 -9C892 -38 820 -69 736 -89ZM593 -843C634 -821 657 -798 661 -767C663 -747 672 -741 686 -741C703 -741 714 -757 714 -776C714 -784 712 -792 708 -800C695 -823 649 -847 598 -853Z"/>
</svg>