<svg xmlns="http://www.w3.org/2000/svg" viewBox="0 -1000 1000 1000">
	<path fill="#000000" d="M693 -520V-425H308V-520ZM693 -404C693 -371 693 -367 701 -367C705 -367 712 -369 721 -374C738 -383 741 -387 741 -400C741 -411 739 -457 739 -466V-504L764 -521C770 -525 772 -528 772 -531C772 -534 770 -537 764 -540L700 -580L674 -541H313L261 -584C264 -536 264 -520 264 -463C264 -447 262 -379 262 -365C262 -358 263 -355 269 -355C272 -355 277 -356 285 -359C305 -367 308 -374 308 -404ZM625 -181V-16C625 0 619 11 581 11C559 11 525 7 474 -3L473 12C565 34 583 53 590 82C591 87 594 90 597 90C599 90 601 89 604 88C664 61 674 49 674 -2V-181H935C944 -181 949 -184 949 -188C949 -192 946 -197 940 -202L878 -261L835 -203H674V-311H848C858 -311 863 -313 863 -318C863 -321 859 -327 852 -333L795 -384L757 -333H165C142 -333 119 -334 92 -337L120 -300C137 -307 166 -311 187 -311H625V-203H234L260 -242L284 -247C289 -248 292 -250 292 -252C292 -254 289 -257 285 -261L241 -305C234 -284 224 -264 205 -238L180 -203L146 -190L190 -152C193 -149 197 -147 200 -147C205 -147 210 -150 216 -157L237 -181H517C394 -76 302 -19 102 55L107 67C333 -4 441 -55 594 -181ZM222 -784C281 -743 308 -714 318 -687C326 -664 334 -656 346 -656C372 -656 379 -683 379 -696C379 -742 333 -763 226 -794ZM174 -640C176 -653 176 -667 175 -683H157C138 -597 120 -577 67 -545C53 -537 48 -527 48 -518C48 -502 61 -492 78 -492C89 -492 158 -507 171 -618H868L817 -530L832 -522C908 -601 917 -607 945 -608C952 -608 957 -612 957 -616C957 -620 954 -624 949 -628L885 -678L853 -640H621C722 -724 748 -737 773 -742C779 -743 782 -746 782 -750C782 -753 779 -758 772 -762L714 -799C672 -732 643 -692 602 -640H530V-782C546 -793 559 -801 559 -805C559 -808 556 -811 549 -814L481 -849C483 -815 484 -788 484 -751V-640Z"/>
</svg>