<svg xmlns="http://www.w3.org/2000/svg" viewBox="0 -1000 1000 1000">
	<path fill="#000000" d="M976 -7C875 -29 828 -66 777 -125C812 -177 835 -235 864 -336C870 -357 878 -368 901 -380C905 -382 908 -385 908 -388C908 -390 906 -392 903 -395L846 -440L814 -399H680C657 -399 632 -401 607 -403L635 -366C639 -368 644 -369 649 -370C662 -269 687 -193 727 -124C662 -42 587 5 456 67L459 81C592 35 684 -14 749 -89C804 -9 870 37 879 37C881 37 883 36 885 34C907 13 927 4 976 4ZM823 -377C806 -279 781 -210 751 -159C711 -217 686 -288 667 -374C679 -376 691 -377 702 -377ZM421 -563V-743H560V-563ZM371 -812C373 -780 375 -724 375 -683V-157C375 -123 372 25 372 55C372 67 374 73 381 73C391 73 421 63 421 42V-194H616C622 -194 625 -195 625 -198C625 -200 623 -203 618 -208L569 -258L536 -216H421V-379H590C597 -379 600 -381 600 -384C600 -386 598 -389 594 -393L545 -442L514 -401H421V-541H560V-499C560 -493 562 -489 568 -489C571 -489 577 -491 585 -494C603 -502 608 -507 608 -516C608 -519 607 -522 607 -525C605 -547 604 -577 604 -615V-731L628 -750C632 -753 635 -756 635 -758C635 -761 632 -763 627 -767L571 -806L542 -765H433ZM111 -728C89 -582 71 -504 36 -387L49 -383C81 -444 103 -500 124 -569H203V-342L30 -267L76 -223C78 -221 80 -220 82 -220C85 -220 87 -222 89 -225C96 -241 115 -259 203 -307V-144C203 -87 202 -7 200 52V59C200 77 202 84 210 84C214 84 221 82 229 78C247 70 253 65 253 48V44C250 -1 249 -76 249 -152V-331L342 -382L336 -400L249 -362V-569H351C361 -569 366 -571 366 -576C366 -579 362 -584 356 -590L309 -636L274 -591H249V-786C273 -799 276 -800 276 -805C276 -808 273 -811 268 -814L199 -846C201 -809 203 -741 203 -700V-591H131C150 -669 152 -678 171 -684C176 -686 178 -688 178 -690C178 -692 177 -694 173 -696ZM704 -558C681 -558 656 -559 631 -562L659 -525C676 -532 702 -536 726 -536H832V-495C832 -489 834 -485 839 -485C843 -485 850 -487 859 -491C876 -498 880 -503 880 -514V-520C878 -542 877 -571 877 -612V-727L904 -745C909 -748 912 -751 912 -754C912 -757 909 -760 904 -764L847 -809L813 -763H719C696 -763 671 -765 646 -767L674 -730C691 -737 718 -741 741 -741H832V-558Z"/>
</svg>