<svg xmlns="http://www.w3.org/2000/svg" viewBox="0 -1000 1000 1000">
	<path fill="#000000" d="M293 -834C259 -691 147 -456 43 -299L54 -289C106 -348 159 -429 207 -512V-134C207 -82 206 -25 204 34V44C204 60 206 66 213 66C217 66 223 64 232 60C250 52 254 47 254 33V26C251 -19 250 -70 250 -132V-518C277 -535 280 -537 280 -541C280 -543 278 -545 274 -547L237 -566C271 -628 300 -688 321 -737C331 -761 338 -767 359 -775C367 -778 371 -781 371 -784C371 -787 367 -791 359 -795ZM872 -493L836 -447H733L787 -664C794 -691 798 -697 832 -711C837 -713 839 -715 839 -718C839 -720 838 -722 834 -725L770 -778L734 -732H415C392 -732 367 -734 342 -736L370 -699C387 -706 410 -710 437 -710H489C489 -427 484 -297 455 -200C416 -67 345 15 279 68L287 80C383 23 462 -81 495 -191C525 -289 538 -413 541 -710H752L694 -471L641 -446L697 -390C699 -388 701 -386 703 -386C705 -386 707 -388 710 -391L739 -425H851C850 -307 843 -189 827 -112C814 -48 793 -21 727 -21C695 -21 652 -27 594 -39L590 -25C697 2 719 17 725 59C726 64 727 66 730 66C733 66 736 65 741 62C844 7 860 -18 877 -125C885 -175 895 -297 899 -403L937 -425C941 -428 943 -430 943 -432C943 -434 942 -436 939 -438Z"/>
</svg>