<svg xmlns="http://www.w3.org/2000/svg" viewBox="0 -1000 1000 1000">
	<path fill="#000000" d="M725 -690C786 -631 827 -583 852 -544L428 -530C490 -587 585 -693 646 -779C651 -786 658 -788 682 -795C689 -797 692 -800 692 -802C692 -804 690 -807 686 -809L621 -850C556 -718 514 -662 454 -587C428 -555 409 -544 370 -537L410 -477C413 -472 416 -470 419 -470C421 -470 424 -471 427 -473C445 -482 496 -493 560 -499L863 -526C870 -514 875 -502 879 -492C891 -463 897 -457 904 -457C918 -457 932 -476 932 -505C932 -552 888 -601 733 -700ZM356 -825C319 -772 281 -724 236 -675C206 -712 165 -751 108 -789L98 -778C145 -738 183 -693 211 -648C164 -600 110 -550 41 -493L50 -481C115 -522 172 -565 230 -615C247 -582 260 -549 268 -519C224 -435 148 -322 36 -201L47 -191C133 -265 209 -351 281 -450C287 -407 291 -361 291 -321C291 -94 288 -31 204 -31C177 -31 141 -37 95 -47L92 -33C175 -7 194 5 199 37C200 43 202 46 206 46C209 46 212 45 217 43C315 -1 336 -28 336 -288C336 -438 315 -550 259 -641C296 -675 334 -712 374 -754C379 -760 393 -764 407 -764C419 -764 420 -764 420 -767C420 -768 419 -771 415 -774ZM907 -197C898 -30 895 -23 827 -23C742 -23 738 -28 738 -75V-397C749 -405 768 -418 768 -421C768 -423 765 -425 759 -428L688 -462C691 -412 692 -385 692 -320V-80C692 12 697 18 820 18C918 18 935 6 957 -54C959 -58 959 -61 959 -63C959 -66 957 -68 953 -69C929 -76 921 -93 921 -197ZM517 -452C518 -431 518 -410 518 -390C518 -112 480 -55 262 74L269 87C416 22 503 -42 538 -146C556 -199 564 -318 564 -399L586 -413C590 -416 593 -418 593 -420C593 -422 590 -424 585 -426Z"/>
</svg>