<svg xmlns="http://www.w3.org/2000/svg" viewBox="0 -1000 1000 1000">
	<path fill="#000000" d="M490 -565V-743H813V-565ZM441 -814C442 -771 444 -734 444 -692V-505C444 -182 394 -54 247 61L257 75C449 -67 488 -152 490 -543H813C813 -500 813 -496 825 -496C829 -496 834 -497 840 -500C857 -508 862 -513 862 -526C862 -530 857 -585 857 -596V-723L888 -741C895 -745 898 -747 898 -750C898 -754 894 -758 886 -764L825 -810L797 -765H506ZM37 -184C129 -268 193 -343 265 -453C277 -394 283 -328 283 -266C283 -215 279 -167 270 -128C256 -65 247 -40 190 -40C162 -40 122 -46 63 -57L61 -42C159 -18 169 -9 180 33C181 38 184 40 188 40C191 40 193 39 196 38C282 -1 305 -47 318 -127C326 -175 330 -222 330 -269C330 -420 291 -558 237 -642C269 -675 300 -709 330 -745C338 -755 351 -761 365 -761C377 -761 380 -761 380 -765C380 -767 379 -770 375 -773L317 -824C291 -779 257 -729 213 -676C178 -721 132 -766 76 -803L66 -791C120 -742 160 -699 192 -649C151 -600 104 -548 51 -493L61 -484C113 -525 163 -569 211 -616C227 -586 240 -553 250 -516C202 -421 129 -318 29 -194ZM636 -430L667 -447C672 -450 675 -453 675 -456C675 -459 672 -461 666 -465L587 -505C589 -479 591 -453 591 -431V-56C591 30 603 32 759 32C907 32 915 28 952 -28C954 -31 956 -33 956 -36C956 -39 952 -42 945 -46C929 -55 920 -79 920 -191H904C897 -44 881 -17 838 -14C809 -12 778 -11 750 -11C642 -11 635 -15 636 -59V-207C722 -259 758 -283 848 -350C858 -357 880 -364 899 -364C907 -364 911 -366 911 -368C911 -371 908 -374 904 -377L845 -422C762 -336 711 -287 636 -229Z"/>
</svg>