<svg xmlns="http://www.w3.org/2000/svg" viewBox="0 -1000 1000 1000">
	<path fill="#000000" d="M791 -286L763 -246H509L449 -293C451 -262 452 -214 452 -190V-55C452 -20 451 15 449 52V57C449 69 451 75 458 75C462 75 468 72 477 68C496 58 499 54 499 44V-17H779V62C779 72 781 77 786 77C789 77 795 74 804 69C826 56 830 52 830 40V36C828 6 827 -29 827 -63V-211L847 -225C852 -229 855 -232 855 -236C855 -239 852 -243 847 -246ZM499 -39V-224H779V-39ZM572 -839C608 -801 632 -750 635 -711C636 -690 643 -683 655 -683C668 -683 689 -709 689 -736C689 -766 660 -797 581 -847ZM874 -727L840 -676H447C424 -676 399 -678 374 -680L402 -643C419 -650 448 -654 469 -654H927C936 -654 942 -657 942 -662C942 -665 938 -671 931 -677ZM791 -574L759 -526H513C490 -526 465 -528 440 -530L468 -493C485 -500 514 -504 535 -504H841C850 -504 855 -507 855 -511C855 -515 852 -520 845 -526ZM795 -438L762 -388H513C490 -388 465 -390 440 -392L468 -355C485 -362 514 -366 535 -366H847C856 -366 862 -368 862 -373C862 -377 858 -382 851 -388ZM351 -808C321 -767 282 -720 237 -673C191 -728 143 -762 87 -797L77 -783C133 -740 171 -702 213 -647C161 -594 104 -541 50 -501L60 -488C121 -528 179 -572 234 -618C246 -596 256 -563 263 -524C205 -415 136 -301 34 -170L45 -158C141 -262 204 -348 274 -450C279 -402 281 -350 281 -298C281 -230 277 -162 269 -106C260 -44 249 -17 196 -17C172 -17 139 -22 93 -33L91 -17C169 5 193 28 199 53C200 59 202 61 206 61C208 61 211 60 214 59C302 21 324 -16 324 -268C324 -450 300 -576 261 -641C291 -667 320 -695 348 -723C362 -737 378 -744 398 -747C406 -748 409 -750 409 -753C409 -755 407 -758 402 -762Z"/>
</svg>