<svg xmlns="http://www.w3.org/2000/svg" viewBox="0 -1000 1000 1000">
	<path fill="#000000" d="M612 -325V-129C612 -115 606 -108 582 -108C568 -108 549 -110 523 -114V-325ZM391 -784C367 -687 339 -617 277 -507L291 -501C339 -564 356 -589 377 -625H478V-486H362C341 -486 318 -488 296 -490L321 -454C336 -460 359 -464 382 -464H478V-348H402L344 -389C345 -357 346 -303 346 -268V-171C346 -131 345 -104 343 -66V-55C343 -43 345 -39 351 -39C355 -39 361 -41 369 -44C390 -53 394 -56 394 -68V-73C393 -94 392 -128 392 -180V-325H478V-148C478 -91 477 -10 475 49V60C475 75 477 81 484 81C488 81 495 79 504 75C524 67 527 63 527 50C527 27 523 -74 523 -95C564 -83 583 -68 586 -43C587 -37 589 -34 592 -34C595 -34 598 -35 601 -37C654 -67 660 -79 660 -115V-303L690 -322C695 -325 697 -327 697 -330C697 -333 694 -336 687 -341L627 -388L596 -348H523V-464H696C703 -464 707 -466 707 -469C707 -471 705 -475 701 -479L647 -536L604 -486H523V-625H678C683 -625 686 -626 686 -629C686 -631 684 -633 681 -637L625 -700L586 -647H523V-760L550 -775C556 -778 559 -781 559 -784C559 -787 555 -789 549 -793L474 -836C476 -799 478 -737 478 -690V-647H389C404 -674 411 -689 422 -713C428 -725 438 -731 455 -735C460 -736 463 -738 463 -741C463 -743 460 -746 456 -749ZM855 -843C857 -806 859 -738 859 -697V-35C859 -17 852 -5 818 -5C798 -5 767 -10 723 -19L721 -4C794 15 811 27 820 64C822 72 827 75 833 75C836 75 839 74 841 73C895 45 903 32 903 -25V-767L930 -788C935 -792 937 -795 937 -798C937 -801 934 -803 928 -806ZM727 -711C729 -655 730 -617 730 -580V-356C730 -305 729 -270 727 -214V-206C727 -189 729 -182 736 -182C740 -182 746 -184 753 -187C770 -194 774 -201 774 -216V-221C773 -247 772 -269 772 -365V-636L796 -659C800 -663 801 -665 801 -668C801 -671 799 -673 793 -676ZM54 -168C120 -242 160 -305 223 -423C230 -364 235 -299 235 -225C235 -77 224 -15 139 -15C118 -15 93 -18 62 -25L58 -11C138 10 151 19 158 53C159 59 161 62 164 62C167 62 170 61 174 58C251 13 277 -48 277 -225C277 -401 248 -553 200 -645C226 -674 251 -706 277 -746C285 -758 298 -766 308 -766C310 -766 318 -764 320 -764C325 -764 327 -767 327 -770C327 -773 326 -776 322 -779L266 -823C236 -762 213 -723 181 -677C149 -724 119 -756 65 -797L54 -787C100 -739 134 -693 158 -648C127 -608 95 -572 40 -512L48 -503C112 -556 137 -578 174 -616C191 -578 203 -541 211 -500C157 -364 103 -263 44 -177Z"/>
</svg>