<svg xmlns="http://www.w3.org/2000/svg" viewBox="0 -1000 1000 1000">
	<path fill="#000000" d="M407 -764C409 -736 410 -693 410 -671V-476C410 -423 409 -385 407 -343V-340C407 -331 409 -326 416 -326C420 -326 425 -328 432 -332C452 -343 454 -347 454 -358V-381H588C555 -316 505 -260 428 -198L435 -188C551 -262 608 -320 634 -381H858V-336C858 -328 859 -323 865 -323C869 -323 874 -325 882 -329C901 -339 905 -344 905 -353V-357C903 -389 902 -422 902 -487V-685L930 -704C933 -706 935 -709 935 -712C935 -715 933 -718 929 -721L873 -760L846 -724H595C642 -802 659 -820 675 -824C679 -825 680 -826 680 -828C680 -830 678 -833 672 -836L616 -866C606 -816 593 -773 573 -724H464ZM454 -703H639C640 -621 639 -598 635 -563H454ZM454 -402V-542H633C626 -488 615 -443 597 -402ZM858 -402H642C658 -444 669 -484 677 -542H858ZM858 -703V-563H679C682 -600 684 -646 685 -703ZM42 -153C156 -266 215 -337 276 -433C278 -406 279 -377 279 -346C279 -300 277 -250 272 -194C262 -70 245 -26 178 -26C149 -26 110 -34 58 -48L55 -35C136 -9 157 9 165 40C166 45 168 47 172 47C174 47 176 46 179 45C295 1 322 -48 322 -312C322 -469 301 -571 249 -653C268 -671 304 -706 339 -741C353 -755 357 -757 376 -759C383 -760 387 -761 387 -764C387 -766 384 -768 380 -772L331 -810C301 -764 270 -726 229 -681C197 -723 155 -759 102 -795L90 -784C138 -742 176 -700 204 -655C159 -607 107 -558 43 -502L53 -491C124 -542 166 -576 221 -627C240 -591 256 -547 265 -502C222 -409 140 -284 33 -163ZM691 -283L715 -297C718 -299 720 -301 720 -303C720 -305 718 -307 714 -309L644 -342C646 -309 647 -279 647 -242V-170H404C381 -170 357 -171 331 -174L359 -138C376 -145 405 -149 426 -149H647V-70C647 29 647 50 645 79V84C645 93 647 98 652 98C656 98 694 83 694 67V64C692 23 691 -10 691 -79V-149H969C977 -149 981 -151 981 -156C981 -160 978 -165 973 -171L924 -228L877 -170H691Z"/>
</svg>