<svg xmlns="http://www.w3.org/2000/svg" viewBox="0 -1000 1000 1000">
	<path fill="#000000" d="M686 -601L711 -615C716 -618 718 -620 718 -622C718 -625 715 -628 708 -633L654 -673L632 -638H520V-761H788V-445H686ZM520 -615H641V-445H520ZM867 -423V-16C867 -2 863 5 836 5C816 5 785 1 735 -7L736 7C812 29 823 40 823 64C823 72 823 78 830 78C832 78 835 77 838 76C899 55 914 36 914 3V-404L941 -419C948 -423 952 -426 952 -429C952 -433 948 -436 941 -441L883 -484L861 -445H832V-746L862 -761C868 -764 871 -766 871 -769C871 -772 868 -775 863 -779L805 -826L777 -784H531L472 -842C473 -820 475 -754 475 -727V-445H447L387 -504C389 -470 390 -410 390 -373V-111C390 -18 389 35 387 66V73C387 81 388 84 393 84C396 84 402 82 411 78C433 69 437 65 437 54V48C435 20 435 4 435 -125V-423ZM524 -367C526 -336 527 -288 527 -264V-176C527 -158 525 -67 525 -64C525 -56 527 -53 532 -53C536 -53 542 -55 551 -59C570 -68 573 -71 573 -84V-121H718C718 -85 718 -84 725 -84C728 -84 734 -86 742 -89C763 -97 766 -100 766 -111C766 -114 764 -179 764 -192V-276C776 -284 795 -296 795 -300C795 -302 793 -305 787 -309L736 -347L713 -314H577ZM573 -143V-292H718V-143ZM43 -214C137 -278 202 -337 267 -422C272 -381 275 -336 275 -290C275 -240 271 -188 264 -135C252 -50 228 -16 166 -16C139 -16 103 -23 58 -35V-18C144 4 155 15 157 52C157 56 158 58 163 58C165 58 168 57 173 56C256 32 297 -19 308 -114C314 -169 317 -223 317 -274C317 -424 292 -555 247 -644C263 -662 287 -690 309 -718C335 -751 348 -757 361 -760C367 -761 370 -763 370 -765C370 -767 368 -770 365 -773L316 -816C294 -774 265 -730 226 -680C198 -722 150 -773 97 -814L86 -803C143 -741 172 -701 201 -648C153 -589 98 -529 42 -475L50 -468C121 -522 169 -562 219 -613C235 -580 248 -536 257 -485C203 -391 131 -308 35 -223Z"/>
</svg>