<svg xmlns="http://www.w3.org/2000/svg" viewBox="0 -1000 1000 1000">
	<path fill="#000000" d="M643 -81H874C883 -81 888 -82 888 -86C888 -89 884 -94 878 -101L830 -152L792 -101H643V-196H797C797 -169 797 -166 804 -166C808 -166 815 -168 824 -173C840 -181 843 -185 843 -199V-207C841 -237 840 -265 840 -306V-410C868 -427 871 -429 871 -432C871 -435 868 -439 862 -443L811 -480L784 -442H453L397 -481C399 -460 400 -438 400 -395V-282C400 -245 399 -210 397 -170V-164C397 -156 398 -153 403 -153C406 -153 410 -154 417 -157C440 -167 440 -171 440 -196H599V-101H431C408 -101 383 -103 358 -105L386 -70C399 -76 425 -81 453 -81H599V27H360C337 27 312 25 287 23L315 58C329 52 358 47 382 47H958C965 47 969 45 969 42C969 39 966 36 961 31L903 -22L868 27H643ZM797 -422V-326H643V-422ZM440 -326V-422H599V-326ZM797 -306V-216H643V-306ZM440 -216V-306H599V-216ZM444 -662C481 -630 497 -603 505 -567C509 -551 518 -541 528 -541C530 -541 555 -542 555 -572C555 -590 553 -620 452 -671ZM856 -768L816 -714H412C389 -714 364 -716 339 -718L367 -683C384 -690 412 -694 434 -694H906C916 -694 920 -695 920 -699C920 -702 917 -707 910 -714ZM555 -836C592 -809 612 -781 619 -753C623 -737 632 -725 643 -725C659 -725 670 -735 670 -758C670 -778 670 -816 563 -845ZM744 -678C706 -601 691 -575 667 -539H377C354 -539 329 -541 304 -543L332 -505C349 -512 378 -516 399 -516H945C956 -516 961 -517 961 -521C961 -524 957 -529 949 -536L893 -588L854 -539H691C758 -612 780 -629 793 -632C799 -633 802 -635 802 -637C802 -639 799 -643 793 -647ZM38 -132C129 -233 166 -282 228 -393C236 -330 241 -266 241 -193C241 -36 230 17 151 17C129 17 102 13 68 6L64 20C147 42 157 50 164 84C165 90 167 93 170 93C173 93 176 92 180 89C259 42 283 -16 283 -207C283 -371 259 -512 199 -623C234 -662 262 -696 292 -736C302 -750 313 -757 327 -757C337 -757 343 -757 343 -762C343 -765 341 -768 337 -771L281 -815C255 -768 227 -725 179 -657C149 -703 114 -739 59 -785L48 -775C100 -715 131 -674 157 -628C118 -578 83 -536 36 -484L44 -475C92 -515 130 -550 174 -596C192 -557 204 -522 215 -472C160 -347 106 -252 28 -141Z"/>
</svg>