<svg xmlns="http://www.w3.org/2000/svg" viewBox="0 -1000 1000 1000">
	<path fill="#000000" d="M65 -184C154 -257 213 -324 285 -432C290 -382 293 -329 293 -277C293 -241 292 -206 289 -173C280 -63 269 -24 206 -24C178 -24 140 -32 88 -44L85 -29C170 -1 185 12 196 49C197 54 200 56 205 56C207 56 209 55 212 54C317 12 338 -35 338 -270C338 -461 313 -590 264 -666C290 -690 320 -718 354 -752C362 -760 368 -763 388 -765C397 -766 401 -768 401 -771C401 -773 399 -776 395 -779L336 -825C305 -777 270 -731 240 -698C209 -736 168 -772 108 -813L99 -803C144 -763 172 -731 216 -671C164 -617 123 -580 54 -523L64 -512C152 -570 175 -587 236 -641C252 -611 265 -563 275 -505C219 -395 151 -294 55 -194ZM493 -563C527 -530 546 -495 550 -474C555 -449 558 -445 565 -445C580 -445 596 -467 596 -489C596 -524 543 -554 499 -571ZM406 -771C445 -732 466 -696 471 -673C477 -644 481 -639 488 -639C505 -639 522 -660 522 -682C522 -712 485 -744 414 -779ZM925 -172C936 -172 941 -174 941 -178C941 -181 938 -185 932 -192L879 -248L843 -194H647C652 -218 654 -242 656 -293H850C861 -293 866 -295 866 -299C866 -302 863 -307 857 -313L807 -363L772 -315H657C658 -342 659 -374 660 -414H895C906 -414 912 -416 912 -420C912 -423 909 -427 902 -434L853 -483L818 -436H699C763 -509 776 -521 792 -528C803 -532 808 -536 808 -539C808 -543 804 -546 797 -550L749 -576C734 -535 716 -500 679 -436H476C453 -436 428 -438 403 -440L431 -403C448 -410 476 -414 498 -414H614C614 -374 614 -342 613 -315H505C482 -315 457 -317 432 -319L460 -282C477 -289 506 -293 527 -293H613C611 -258 607 -219 602 -194H443C420 -194 395 -196 370 -198L398 -161C413 -167 441 -172 465 -172H597C573 -81 507 -12 297 72L300 87C532 27 608 -47 642 -172H663C706 -64 756 -10 872 57C875 59 878 60 880 60C883 60 886 58 888 54C900 33 920 20 964 14V3C845 -2 743 -57 682 -172ZM734 -789C758 -805 761 -807 761 -810C761 -812 758 -814 753 -817L687 -850C689 -813 691 -768 691 -727V-603H606V-786C632 -799 634 -801 634 -804C634 -806 632 -809 626 -812L559 -848C561 -811 563 -766 563 -725V-603H425C402 -603 377 -605 352 -607L380 -570C396 -577 422 -581 447 -581H936C947 -581 952 -583 952 -587C952 -590 949 -594 943 -601L894 -652L856 -603H734ZM852 -800C832 -756 818 -731 763 -642L774 -634C863 -742 878 -750 899 -753C907 -754 911 -756 911 -759C911 -761 907 -764 901 -768Z"/>
</svg>