<svg xmlns="http://www.w3.org/2000/svg" viewBox="0 -1000 1000 1000">
	<path fill="#000000" d="M613 -278C639 -221 648 -173 648 -144C648 -109 654 -102 668 -102C682 -102 698 -124 698 -153C698 -191 674 -227 625 -284ZM713 -293C748 -234 758 -206 762 -162C764 -132 771 -117 786 -117C803 -117 816 -134 816 -160C816 -215 754 -277 723 -304ZM26 -174C118 -270 158 -321 228 -432C235 -382 238 -328 238 -267C238 -30 211 -12 151 -12C130 -12 103 -15 70 -21L68 -11C153 19 159 23 166 57C167 63 170 66 175 66C178 66 182 65 186 62C266 15 284 -71 284 -212C284 -384 256 -551 199 -652C225 -679 260 -719 293 -759C303 -772 313 -778 328 -778C338 -778 344 -778 344 -783C344 -786 342 -789 338 -792L282 -836C243 -772 207 -718 180 -682C149 -730 111 -772 61 -810L50 -800C99 -753 134 -707 161 -657C142 -633 92 -577 41 -523L49 -514C97 -554 137 -590 176 -628C192 -592 205 -554 214 -512C151 -383 107 -310 16 -183ZM429 -242C427 -180 411 -126 385 -96C368 -77 362 -64 362 -54C362 -42 374 -26 393 -26C451 -26 451 -113 451 -134C451 -163 447 -199 441 -243ZM510 -253C526 -212 532 -176 532 -149C532 -141 529 -110 529 -104C529 -81 537 -72 551 -72C568 -72 585 -98 585 -126C585 -166 548 -222 522 -259ZM868 -342C867 -200 857 -124 842 -65C833 -31 824 -15 786 -15C762 -15 726 -21 671 -33L666 -21C769 9 781 22 784 57C785 64 790 67 797 67C800 67 804 67 807 65C855 40 874 14 888 -46C904 -117 913 -212 916 -316L945 -338C950 -342 953 -345 953 -348C953 -351 950 -354 945 -357L880 -405L855 -368H465C471 -375 476 -382 482 -390C496 -408 512 -416 528 -419C536 -421 540 -424 540 -427C540 -430 537 -434 530 -437L472 -467C427 -382 377 -297 293 -189L302 -177C364 -241 384 -265 445 -342ZM392 -789C394 -752 395 -716 395 -687V-565C395 -547 392 -465 392 -448C392 -432 394 -426 400 -426C405 -426 411 -429 420 -433C440 -443 440 -452 440 -470H833V-435C833 -427 834 -423 841 -423C845 -423 851 -425 860 -428C877 -434 882 -440 882 -456V-461C880 -497 879 -527 879 -581V-711L910 -733C915 -737 918 -740 918 -743C918 -747 915 -750 910 -753L850 -791L826 -759H751C728 -759 703 -761 678 -764L706 -726C723 -733 752 -737 773 -737H833V-631H753C730 -631 705 -633 680 -636L708 -597C725 -606 751 -611 775 -611H833V-497H440V-608H601C611 -608 616 -610 616 -614C616 -618 612 -624 604 -632L555 -679L531 -629H440V-719C549 -751 578 -759 594 -759C597 -759 612 -757 615 -757C618 -757 620 -758 620 -760C620 -763 617 -768 612 -775L573 -824C533 -790 489 -760 440 -737Z"/>
</svg>