<svg xmlns="http://www.w3.org/2000/svg" viewBox="0 -1000 1000 1000">
	<path fill="#000000" d="M536 -688L479 -736C481 -709 482 -675 482 -633V-452H437C439 -465 439 -479 438 -495H426C415 -444 402 -423 367 -402C347 -390 338 -377 338 -366C338 -360 344 -342 365 -342C410 -342 431 -404 435 -431H604C628 -405 643 -377 647 -358C651 -340 657 -332 665 -332C681 -332 696 -348 696 -368C696 -378 696 -402 637 -431H904L870 -363L883 -355C923 -411 943 -418 979 -419C984 -419 987 -420 987 -423C987 -425 985 -428 982 -431L926 -485L902 -452H850V-646C876 -661 879 -662 879 -667C879 -670 876 -673 871 -678L824 -718L799 -688H638C650 -711 670 -744 682 -765H945C953 -765 956 -767 956 -770C956 -773 954 -777 949 -781L895 -837L858 -787H470C437 -787 418 -788 403 -791L428 -754C446 -761 471 -765 492 -765H624C623 -730 618 -705 613 -688ZM524 -532V-593H809V-532ZM524 -614V-666H809V-614ZM524 -452V-511H809V-452ZM778 -174C753 -130 714 -84 674 -52C630 -77 562 -132 529 -174ZM348 90C495 69 600 33 675 -11C730 23 787 46 885 76C887 76 888 77 889 77C893 77 896 74 899 70C918 44 932 36 983 30V15C889 19 801 4 711 -35C745 -61 786 -103 810 -139C822 -157 835 -162 864 -165C869 -166 871 -167 871 -169C871 -171 869 -174 866 -178L815 -229L784 -195H534C550 -211 561 -217 573 -219C577 -220 579 -221 579 -224C579 -226 576 -229 571 -233L528 -263C495 -207 432 -121 345 -22L352 -11C409 -58 461 -109 507 -164C546 -114 597 -64 642 -32C566 13 467 51 340 76ZM463 -386C456 -337 426 -305 403 -296C385 -288 379 -280 379 -271C379 -255 393 -245 409 -245C438 -245 474 -277 481 -386ZM786 -387C819 -357 846 -313 853 -285C858 -263 864 -254 875 -254C892 -254 903 -275 903 -297C903 -301 903 -305 902 -309C894 -341 833 -378 791 -396ZM752 -385C748 -293 742 -288 699 -288C663 -288 624 -288 592 -289C564 -290 560 -293 560 -315V-359C583 -373 585 -374 585 -378C585 -381 583 -384 579 -387L517 -420C519 -411 520 -391 520 -375V-305C520 -272 535 -256 566 -255C608 -254 672 -253 713 -253C753 -253 770 -258 794 -291C795 -293 796 -295 796 -297C796 -300 794 -302 790 -304C770 -313 765 -327 765 -385ZM35 -166C150 -275 203 -333 269 -425C272 -394 274 -360 274 -323C274 -275 271 -222 266 -167C255 -47 237 3 169 3C141 3 104 -6 55 -21L52 -8C127 16 146 32 153 67C154 71 156 74 160 74C162 74 165 73 168 72C290 28 314 -47 314 -291C314 -448 294 -556 243 -642C267 -665 295 -694 331 -730C342 -741 355 -747 370 -748C378 -749 381 -750 381 -753C381 -755 379 -757 374 -761L322 -799C294 -758 261 -717 221 -674C187 -721 142 -761 83 -801L75 -790C128 -746 169 -700 198 -649C155 -604 101 -553 42 -501L53 -490C128 -543 165 -569 216 -616C235 -578 249 -536 258 -491C210 -402 131 -288 26 -176Z"/>
</svg>