<svg xmlns="http://www.w3.org/2000/svg" viewBox="0 -1000 1000 1000">
	<path fill="#000000" d="M971 -414C765 -449 601 -614 518 -784C524 -788 531 -790 540 -792C548 -794 552 -796 552 -798C552 -801 549 -804 542 -807L468 -843C392 -666 210 -458 29 -336L37 -325C241 -434 397 -620 499 -767C501 -769 502 -771 504 -773C573 -602 680 -481 846 -373C850 -371 852 -369 855 -369C857 -369 860 -371 863 -375C882 -397 902 -405 971 -403ZM393 -542C444 -498 476 -446 482 -414C487 -388 496 -371 511 -371C529 -371 546 -393 546 -420C546 -477 482 -511 399 -553ZM668 -326L627 -285H236C213 -285 188 -287 163 -289L191 -252C208 -259 237 -263 258 -263H646L447 83H507L682 -238L722 -254C729 -257 733 -259 733 -262C733 -264 730 -268 726 -272Z"/>
</svg>