<svg xmlns="http://www.w3.org/2000/svg" viewBox="0 -1000 1000 1000">
	<path fill="#000000" d="M176 -450H124C102 -450 78 -452 54 -454L81 -418C97 -424 124 -428 144 -428H176V-136L38 -96L78 -32C80 -30 82 -28 84 -28C86 -28 88 -30 91 -33C103 -47 127 -65 163 -80L379 -180L373 -192L221 -149V-428H331C339 -428 343 -430 343 -435C343 -438 340 -443 334 -449L285 -494L250 -450H221V-715H349C357 -715 362 -718 362 -723C362 -726 359 -731 354 -736L307 -785L278 -737H110C87 -737 62 -739 37 -741L65 -704C80 -710 106 -715 132 -715H176ZM729 -330L689 -226L650 -204L699 -163C704 -159 708 -157 711 -157C718 -157 720 -160 739 -189H829C827 -141 823 -113 811 -57C803 -21 781 -2 736 -2C708 -2 670 -9 622 -24L619 -9C713 19 730 32 736 65C737 70 739 73 743 73C745 73 747 72 749 71C835 26 850 15 870 -169C908 -187 909 -188 909 -193C909 -196 906 -200 900 -204L850 -245L819 -212H727L766 -312C803 -329 808 -331 808 -336C808 -339 804 -344 796 -350L749 -389L716 -350H452C425 -350 411 -350 390 -351L420 -321C432 -326 453 -330 468 -330H506C493 -127 448 -57 242 69L248 83C470 -29 536 -101 554 -330ZM946 -583C957 -583 963 -585 963 -588C963 -592 959 -596 952 -603L894 -660L851 -605H647V-732C674 -735 791 -754 815 -754C827 -754 838 -753 847 -750C850 -749 852 -749 854 -749C857 -749 858 -750 858 -752C858 -754 856 -758 852 -763L812 -814C704 -778 596 -755 387 -724L389 -710C476 -713 543 -718 603 -726V-605H396C373 -605 348 -607 323 -609L351 -572C368 -579 397 -583 418 -583H528C470 -481 388 -405 266 -316L274 -306C375 -355 514 -471 591 -583H603V-482C603 -465 600 -378 600 -375C600 -360 602 -354 609 -354C613 -354 619 -356 628 -360C647 -368 651 -372 651 -385V-391C648 -431 647 -456 647 -490V-583H687C756 -413 881 -359 889 -359C893 -359 895 -361 898 -365C909 -379 930 -392 976 -392V-406C870 -418 744 -502 707 -583Z"/>
</svg>