<svg xmlns="http://www.w3.org/2000/svg" viewBox="0 -1000 1000 1000">
	<path fill="#000000" d="M856 -819L824 -778H451C452 -794 452 -810 450 -824H436C430 -757 403 -716 374 -694C354 -680 347 -666 347 -654C347 -637 358 -630 372 -630C416 -630 446 -676 450 -756H833L782 -661L794 -653C863 -730 886 -746 918 -751C928 -753 932 -755 932 -758C932 -761 929 -765 922 -771ZM677 -653C753 -591 795 -522 807 -493C818 -466 823 -460 831 -460C847 -460 861 -477 861 -500C861 -509 859 -519 854 -529C839 -560 791 -608 684 -663ZM549 -687C514 -620 457 -546 342 -422L352 -413C414 -460 510 -552 561 -612C572 -625 581 -629 598 -631C606 -632 611 -634 611 -637C611 -640 607 -644 599 -650ZM391 -258L229 -210V-462H364C373 -462 377 -464 377 -468C377 -471 374 -476 367 -482L316 -531L279 -483H229V-727H369C377 -727 381 -728 381 -731C381 -734 378 -738 372 -745L322 -797L283 -749H102C79 -749 54 -751 29 -753L57 -716C74 -723 103 -727 124 -727H183V-483H112C90 -483 66 -485 42 -487L69 -452C85 -458 112 -462 132 -462H183V-197L30 -152L62 -103C65 -99 68 -97 70 -97C73 -97 76 -99 79 -103C90 -116 102 -122 165 -148L396 -245ZM912 -342C921 -342 926 -343 926 -346C926 -349 922 -354 915 -362L864 -415L825 -364H647V-472C671 -489 674 -491 674 -495C674 -498 670 -500 664 -503L597 -537C600 -479 601 -422 601 -364H404C381 -364 356 -366 331 -368L359 -331C376 -338 405 -342 426 -342H551C486 -234 353 -94 227 -3L235 9C380 -68 513 -204 601 -332V-178C601 -121 600 -31 598 28V39C598 54 600 60 607 60C611 60 618 58 627 54C647 45 651 41 651 27V20C648 -25 647 -78 647 -176V-342H655C687 -220 748 -135 865 -39C870 -35 873 -33 877 -33C879 -33 882 -34 884 -37C896 -52 917 -62 969 -63L971 -75C826 -116 732 -202 673 -342Z"/>
</svg>