<svg xmlns="http://www.w3.org/2000/svg" viewBox="0 -1000 1000 1000">
	<path fill="#000000" d="M433 -475C435 -444 436 -396 436 -372V-203C436 -168 435 -124 433 -91V-84C433 -74 435 -70 442 -70C453 -70 482 -79 482 -100V-127H798C798 -92 798 -88 805 -88C808 -88 814 -90 824 -94C845 -103 849 -107 849 -121V-128C846 -173 845 -202 845 -236V-393L868 -408C873 -411 876 -414 876 -417C876 -420 872 -425 864 -431L813 -470L787 -433H494ZM482 -292V-411H798V-292ZM482 -149V-270H798V-149ZM188 -446H119C94 -446 76 -448 49 -450L76 -415C92 -421 119 -425 139 -425H188V-163L32 -108L68 -61C73 -55 76 -52 79 -52C81 -52 83 -54 85 -56C112 -81 137 -96 179 -116L386 -215L380 -230L233 -179V-425H351C357 -425 361 -427 361 -431C361 -433 359 -437 353 -442L311 -488L280 -446H233V-691H376C383 -691 387 -693 387 -697C387 -700 384 -704 379 -709L328 -757L295 -713H107C86 -713 58 -715 34 -717L62 -680C79 -687 105 -691 129 -691H188ZM903 -56L863 0H378C355 0 330 -2 305 -4L333 33C350 26 379 22 400 22H956C967 22 972 21 972 18C972 15 969 11 962 4ZM875 -602L838 -550H456C433 -550 408 -552 383 -554L411 -517C428 -524 453 -528 478 -528H917C930 -528 936 -530 936 -534C936 -537 932 -543 925 -550ZM861 -679L820 -595L831 -590C892 -656 908 -665 936 -669C942 -670 946 -672 946 -675C946 -678 943 -681 938 -686L882 -737L854 -701H453C452 -716 451 -732 449 -751H435C420 -673 411 -655 376 -624C360 -610 355 -603 355 -597C355 -587 370 -576 389 -576C404 -576 453 -588 453 -679ZM572 -833C615 -794 621 -779 626 -736C628 -719 638 -709 656 -709C675 -709 687 -721 687 -746C687 -775 665 -801 578 -841Z"/>
</svg>