<svg xmlns="http://www.w3.org/2000/svg" viewBox="0 -1000 1000 1000">
	<path fill="#000000" d="M523 -187V-335H614V-187ZM476 -413C479 -373 480 -340 480 -300V-203C480 -169 479 -148 476 -116V-107C476 -98 478 -94 483 -94C488 -94 494 -96 504 -101C522 -110 523 -113 523 -130V-165H614V-131C614 -120 614 -115 619 -115C622 -115 660 -131 660 -148C660 -156 656 -199 656 -208V-319L681 -334C685 -336 688 -338 688 -341C688 -343 685 -346 680 -350L630 -391L604 -357H531ZM186 -424H117C95 -424 81 -425 47 -428L74 -393C90 -399 117 -403 137 -403H186V-154L32 -98L66 -59C71 -53 74 -50 77 -50C79 -50 81 -52 83 -54C117 -85 128 -91 169 -110L371 -207L365 -220L231 -171V-403H344C350 -403 354 -405 354 -409C354 -411 352 -415 346 -420L304 -466L273 -424H231V-675H362C369 -675 373 -677 373 -681C373 -684 370 -688 365 -693L314 -741L281 -697H107C88 -697 58 -699 34 -701L62 -664C79 -671 105 -675 129 -675H186ZM646 -541L616 -496H503C477 -496 459 -497 437 -500L462 -464C477 -470 504 -474 523 -474H687C695 -474 699 -475 699 -478C699 -480 696 -485 690 -491ZM704 -621C711 -436 724 -295 744 -207C687 -106 599 -23 475 53L483 65C601 12 687 -53 758 -154C803 -2 913 87 953 87C958 87 964 86 964 78C964 72 960 60 950 36C946 26 943 10 943 -14C943 -46 947 -91 958 -157L940 -158L901 -11C900 -6 898 -4 896 -4C894 -4 828 -51 788 -203C825 -270 855 -353 880 -445C885 -463 888 -467 911 -478C919 -482 923 -485 923 -488C923 -491 919 -494 912 -498L847 -535C827 -425 804 -339 774 -269C757 -367 749 -518 749 -621H964C974 -621 979 -622 979 -625C979 -628 975 -632 969 -638L907 -700L858 -643H749C749 -682 750 -726 751 -781C762 -789 781 -803 781 -806C781 -808 778 -811 771 -815L702 -853C701 -781 702 -710 703 -643H447L382 -700C384 -595 384 -484 384 -395C384 -141 384 -81 228 74L235 85C387 -31 419 -109 423 -249C428 -395 428 -527 428 -621ZM791 -809C826 -785 846 -758 855 -729C857 -721 864 -714 874 -714C886 -714 900 -729 900 -747C900 -752 899 -756 897 -761C887 -786 850 -806 796 -818Z"/>
</svg>