<svg xmlns="http://www.w3.org/2000/svg" viewBox="0 -1000 1000 1000">
	<path fill="#000000" d="M907 -649L872 -597H799L806 -685L837 -704C842 -707 845 -710 845 -712C845 -715 842 -718 838 -722L783 -767L754 -725H598L611 -796L639 -810C645 -813 648 -816 648 -818C648 -821 645 -823 638 -827L575 -859C571 -821 562 -763 555 -725H485C462 -725 437 -727 412 -729L440 -692C457 -699 486 -703 507 -703H551L532 -597H408C385 -597 360 -599 335 -601L363 -564C380 -571 409 -575 430 -575H958C968 -575 973 -576 973 -580C973 -582 969 -587 963 -593ZM756 -597H574L594 -703H765ZM817 -538L790 -504H502L444 -540C446 -511 446 -473 446 -450V-397C446 -376 444 -342 444 -320C444 -313 445 -310 450 -310C452 -310 491 -322 491 -335V-353H802C802 -320 802 -317 809 -317C812 -317 850 -330 850 -343C850 -352 847 -395 847 -405V-466L876 -483C881 -486 883 -488 883 -491C883 -493 880 -497 873 -501ZM491 -375V-482H802V-375ZM351 -784L317 -735H117C94 -735 69 -737 44 -739L72 -702C89 -709 118 -713 139 -713H188V-458H124C101 -458 76 -460 51 -462L79 -425C96 -432 125 -436 146 -436H188V-153L37 -103L77 -51C80 -47 82 -45 85 -45C87 -45 90 -48 94 -53C102 -64 125 -81 147 -91L383 -201L377 -215L234 -168V-436H380C390 -436 394 -437 394 -441C394 -445 391 -450 384 -457L336 -507L303 -458H234V-713H394C404 -713 408 -715 408 -719C408 -722 405 -727 398 -734ZM887 -299L841 -251H685V-301C706 -316 708 -318 708 -321C708 -324 705 -326 698 -328L636 -350C638 -318 639 -286 639 -251H446C423 -251 398 -253 373 -255L401 -218C418 -225 447 -229 468 -229H639V-128H467L487 -171L512 -180C518 -182 521 -184 521 -186C521 -188 518 -191 514 -194L469 -227L427 -135L388 -120L429 -90C435 -86 439 -84 442 -84C445 -84 447 -85 450 -88L468 -106H639C639 -79 637 41 637 65C637 80 638 87 644 87C649 87 656 84 666 78C684 68 688 65 688 52V46C685 3 685 -49 685 -106H931C940 -106 945 -108 945 -112C945 -115 942 -120 936 -126L878 -182L839 -128H685V-229H940C950 -229 954 -231 954 -235C954 -238 951 -243 944 -249Z"/>
</svg>