<svg xmlns="http://www.w3.org/2000/svg" viewBox="0 -1000 1000 1000">
	<path fill="#000000" d="M472 -648C473 -626 475 -575 475 -550V-161H415C392 -161 367 -163 342 -165L370 -128C387 -135 416 -139 437 -139H963C972 -139 976 -140 976 -144C976 -147 973 -152 966 -159L914 -209L875 -161H848V-572L876 -592C880 -595 882 -597 882 -600C882 -603 879 -605 875 -608L816 -647L790 -608H671L680 -705H938C948 -705 953 -706 953 -711C953 -714 949 -719 942 -727L891 -779L854 -725H682L689 -800C716 -817 720 -819 720 -822C720 -824 717 -826 711 -829L646 -859C645 -841 640 -760 637 -725H470C447 -725 422 -727 397 -729L425 -694C442 -701 471 -705 492 -705H636L629 -608H526ZM520 -391V-476H803V-391ZM520 -281V-371H803V-281ZM520 -496V-588H803V-496ZM520 -161V-259H803V-161ZM567 -111C512 -56 408 23 314 86L324 97C402 59 438 41 568 -41C579 -48 593 -53 604 -54C613 -55 619 -56 619 -60C619 -63 615 -68 606 -76ZM694 -85C781 -39 830 1 871 51C893 78 898 81 904 81C917 81 926 65 926 46C926 35 923 23 916 12C895 -21 829 -60 698 -96ZM193 -460H132C110 -460 86 -462 62 -464L89 -429C105 -435 132 -439 152 -439H193V-157L39 -107L79 -50C81 -48 83 -47 84 -47C87 -47 89 -49 91 -51C101 -65 131 -85 182 -108L418 -213L411 -228L240 -172V-439H383C390 -439 394 -442 394 -446C394 -449 391 -454 386 -459L330 -513L294 -460H240V-704H386C393 -704 397 -705 397 -707C397 -710 393 -714 387 -721L333 -779L295 -725H113C90 -725 65 -727 40 -729L68 -693C85 -700 114 -704 135 -704H193Z"/>
</svg>