<svg xmlns="http://www.w3.org/2000/svg" viewBox="0 -1000 1000 1000">
	<path fill="#000000" d="M875 -276L830 -225H714V-328H829V-304C829 -299 829 -297 832 -297C836 -297 874 -311 874 -323V-325C871 -350 868 -404 868 -431V-575L896 -592C901 -595 903 -597 903 -600C903 -602 901 -604 897 -607L839 -649L811 -609H714V-702H912C922 -702 928 -704 928 -708C928 -712 924 -717 917 -724L860 -777L823 -724H714V-798C745 -818 746 -819 746 -822C746 -824 743 -826 737 -828L669 -855C671 -824 672 -762 672 -724H535C512 -724 487 -726 462 -728L490 -691C507 -698 536 -702 557 -702H672V-609H573L518 -649C520 -620 521 -568 521 -545V-417C521 -386 520 -330 518 -300V-293C518 -287 519 -284 523 -284C526 -284 532 -287 543 -292C562 -301 562 -302 562 -328H672V-225H523C500 -225 475 -227 450 -229L478 -192C495 -199 524 -203 545 -203H672C672 -179 670 -72 670 -50C670 -37 673 -32 679 -32C681 -32 719 -42 719 -63V-67C716 -103 714 -139 714 -203H921C931 -203 937 -205 937 -209C937 -212 933 -218 926 -225ZM714 -486V-587H829V-486ZM562 -486V-587H672V-486ZM714 -350V-464H829V-350ZM562 -350V-464H672V-350ZM347 -766C386 -702 395 -671 395 -606C395 -580 405 -574 418 -574C434 -574 458 -597 458 -627C458 -662 426 -715 356 -774ZM300 -519L265 -464H222V-711H324C334 -711 338 -712 338 -716C338 -719 335 -724 328 -732L284 -782L247 -732H90C67 -732 42 -734 17 -736L45 -700C62 -707 91 -711 112 -711H179V-464H107C84 -464 59 -466 34 -468L62 -432C79 -439 108 -443 129 -443H179V-156L26 -109L66 -54C70 -49 72 -46 75 -46C79 -46 82 -51 87 -60C91 -68 124 -93 206 -129L348 -192L342 -206L222 -169V-443H347C357 -443 362 -444 362 -448C362 -452 359 -456 352 -464ZM980 -25C829 -12 691 -12 586 -12C497 -12 424 -75 424 -138V-365L451 -381C457 -385 459 -387 459 -390C459 -392 457 -395 452 -399L399 -442L373 -400H343C320 -400 304 -401 279 -403L305 -373C321 -379 328 -380 349 -380H381V-117L236 -10L277 26C281 30 285 32 287 32C290 32 293 29 296 21C312 -18 373 -98 396 -98C405 -98 412 -89 424 -71C463 -12 501 26 594 31C684 36 747 38 879 39C891 39 894 37 899 27C905 13 941 -7 980 -11Z"/>
</svg>