<svg xmlns="http://www.w3.org/2000/svg" viewBox="0 -1000 1000 1000">
	<path fill="#000000" d="M901 -754L862 -706H791V-782C802 -789 821 -800 821 -802C821 -804 819 -806 814 -808L744 -840C746 -807 747 -779 747 -754V-706H539V-779C564 -799 567 -802 567 -804C567 -806 565 -807 561 -809L492 -838C494 -805 495 -777 495 -752V-706H424C407 -706 388 -707 369 -710L400 -677C414 -683 428 -686 451 -686H495V-619C495 -606 492 -549 492 -537C492 -530 494 -527 498 -527C502 -527 507 -529 514 -532C539 -543 539 -545 539 -571H621V-479H468L411 -515C413 -488 413 -477 413 -454V-336C413 -327 411 -283 411 -277C411 -273 412 -270 416 -270C423 -270 456 -282 456 -299V-320H621V-231H427C410 -231 390 -232 372 -235L399 -201C412 -208 432 -211 448 -211H621V-114H457C440 -114 421 -116 403 -118L432 -84C444 -91 465 -94 481 -94H621V14H329C312 14 292 13 274 10L301 46C314 39 334 36 350 36H951C957 36 959 35 959 33C959 31 958 29 954 25L890 -38L855 14H667V-94H870C876 -94 879 -95 879 -97C879 -99 877 -102 873 -106L819 -160L787 -114H667V-211H923C928 -211 931 -212 931 -214C931 -216 929 -218 925 -222L865 -280L832 -231H667V-320H832C832 -296 832 -293 838 -293C842 -293 877 -304 877 -320C877 -322 875 -376 875 -386V-451L902 -464C905 -466 906 -467 906 -469C906 -470 905 -472 903 -473L845 -511L818 -479H667V-571H747C747 -535 747 -531 754 -531C764 -531 793 -543 793 -556C793 -566 791 -611 791 -621V-686H953C960 -686 963 -687 963 -689C963 -691 961 -694 957 -698ZM667 -340V-459H832V-340ZM456 -340V-459H621V-340ZM539 -591V-686H747V-591ZM352 -210L237 -173V-429H352C359 -429 363 -430 363 -432C363 -434 360 -437 354 -443L302 -494L269 -449H237V-686H346C351 -686 354 -687 354 -689C354 -691 352 -694 348 -698L293 -754L262 -706H118C95 -706 70 -708 45 -710L73 -675C90 -682 119 -686 140 -686H193V-449H119C97 -449 73 -451 49 -453L76 -419C92 -425 119 -429 139 -429H193V-159L30 -107L71 -61C72 -59 74 -58 76 -58C78 -58 80 -60 83 -63C94 -76 117 -88 151 -103L355 -195Z"/>
</svg>