<svg xmlns="http://www.w3.org/2000/svg" viewBox="0 -1000 1000 1000">
	<path fill="#000000" d="M849 -765L817 -718H594C643 -782 657 -794 677 -799C682 -800 684 -801 684 -803C684 -805 682 -807 677 -809L624 -840C609 -794 596 -761 574 -718H501L443 -766C444 -736 445 -681 445 -626V-464C445 -434 443 -302 443 -275C443 -261 444 -255 451 -255C460 -255 488 -265 488 -284V-293H836C836 -261 836 -258 842 -258C846 -258 852 -260 862 -264C882 -273 886 -277 886 -291V-297C883 -340 881 -384 881 -457V-689C892 -698 910 -713 910 -716C910 -719 908 -721 905 -723ZM488 -313V-698H836V-313ZM401 -228L257 -175V-425H400C407 -425 411 -426 411 -429C411 -432 408 -436 402 -442L348 -497L310 -446H257V-699H406C414 -699 418 -700 418 -703C418 -706 415 -710 408 -717L349 -776L312 -721H135C112 -721 87 -723 62 -725L90 -688C107 -695 136 -699 157 -699H212V-446H130C108 -446 84 -448 60 -450L87 -415C103 -421 130 -425 150 -425H212V-159L47 -99L86 -50C88 -47 90 -46 92 -46C94 -46 96 -48 98 -52C102 -60 112 -68 156 -90L408 -218ZM601 -259C638 -206 649 -181 658 -116C660 -105 666 -99 680 -99C696 -99 712 -122 712 -145C712 -168 694 -208 610 -268ZM806 -196C859 -134 894 -76 900 -47C906 -19 910 -12 922 -12C937 -12 958 -35 958 -62C958 -112 841 -190 816 -206ZM425 -180C415 -98 394 -75 354 -35C345 -26 342 -19 342 -11C342 -6 345 14 366 14C378 14 391 8 402 -6C425 -35 437 -73 437 -180ZM765 -117C757 16 749 20 712 25C693 27 674 28 654 28C549 28 549 23 549 -27V-164C558 -172 573 -187 573 -190C573 -192 572 -193 569 -194L504 -226C505 -205 506 -163 506 -136V-4C506 53 508 68 649 68C777 68 794 52 816 12C818 9 818 7 818 5C818 2 816 0 812 -2C793 -10 783 -35 783 -117ZM753 -620L732 -594H614C648 -650 653 -652 663 -654C670 -655 673 -656 673 -658C673 -660 670 -663 663 -666L621 -689C589 -610 535 -509 504 -465L512 -459C544 -493 569 -526 601 -574H731C717 -542 699 -511 676 -481C652 -495 623 -509 589 -521L584 -512C616 -492 639 -475 658 -458C622 -416 577 -376 522 -344L528 -334C590 -359 642 -394 683 -435C704 -412 719 -388 736 -358C742 -347 747 -342 755 -342C760 -342 772 -352 772 -372C772 -399 757 -425 708 -461C728 -485 746 -510 760 -536C772 -558 776 -561 789 -566C796 -569 799 -571 799 -574C799 -576 797 -579 792 -583Z"/>
</svg>