<svg xmlns="http://www.w3.org/2000/svg" viewBox="0 -1000 1000 1000">
	<path fill="#000000" d="M421 -592C423 -563 424 -535 424 -512V-333C424 -323 422 -274 422 -270C422 -264 423 -260 428 -260C432 -260 437 -262 445 -265C464 -273 468 -278 468 -299H623V-211H397C374 -211 349 -213 324 -215L352 -178C369 -185 398 -189 419 -189H568C511 -109 409 -26 240 64L246 73C399 18 521 -63 623 -183V-127C623 -95 620 46 620 74C620 82 622 86 629 86C633 86 640 84 649 80C669 71 673 68 673 58V53C670 10 669 -62 669 -135V-189H687C729 -80 769 -22 882 37C885 39 887 39 889 39C892 39 894 37 896 35C909 15 921 7 973 3L976 -6C850 -22 765 -83 705 -189H967C975 -189 979 -190 979 -193C979 -195 976 -200 970 -206L924 -258L886 -211H669V-299H820C820 -280 821 -273 829 -273C831 -273 867 -282 867 -296C867 -307 865 -353 865 -363V-524C873 -531 887 -543 887 -545C887 -547 885 -550 881 -553L832 -592L810 -562H472ZM623 -416V-321H468V-416ZM623 -438H468V-540H623ZM669 -438V-540H820V-438ZM669 -321V-416H820V-321ZM498 -850C471 -793 449 -759 408 -704C447 -659 459 -638 472 -603C480 -581 484 -578 495 -578C508 -578 521 -595 521 -614C521 -648 481 -675 429 -707C517 -789 535 -801 556 -804C559 -805 561 -806 561 -808C561 -809 560 -811 557 -813ZM192 -414H119C97 -414 73 -416 49 -418L76 -382C92 -388 119 -392 139 -392H192V-105L34 -55L74 -5C76 -3 78 -1 80 -1C82 -1 84 -3 87 -6C98 -19 117 -32 153 -47L397 -157L391 -169L238 -120V-392H359C367 -392 371 -394 371 -399C371 -402 368 -407 362 -413L313 -458L278 -414H238V-679H379C387 -679 391 -682 391 -687C391 -691 389 -695 384 -700L327 -753L292 -701H101C78 -701 53 -703 28 -705L56 -668C73 -675 102 -679 123 -679H192ZM659 -848C634 -797 614 -763 577 -711C620 -684 652 -641 663 -607C668 -593 673 -583 682 -583C697 -583 709 -602 709 -622C709 -661 672 -681 598 -714C687 -802 696 -806 714 -808C718 -809 720 -810 720 -812C720 -814 718 -816 714 -818ZM851 -851C811 -772 785 -731 761 -699C813 -660 836 -633 853 -599C864 -577 871 -571 879 -571C891 -571 904 -588 904 -607C904 -614 902 -621 899 -627C889 -647 856 -670 783 -701C876 -799 884 -804 907 -807C910 -808 912 -809 912 -810C912 -812 910 -814 908 -815Z"/>
</svg>