<svg xmlns="http://www.w3.org/2000/svg" viewBox="0 -1000 1000 1000">
	<path fill="#000000" d="M959 -394C885 -391 815 -408 753 -440C784 -467 812 -499 836 -533C847 -549 862 -555 875 -556C883 -557 888 -562 888 -568C888 -573 885 -578 878 -583L828 -618L806 -585L609 -582C586 -581 562 -582 537 -584L564 -551C571 -554 577 -556 583 -558C614 -508 651 -466 697 -432C646 -390 588 -356 528 -334L529 -318C600 -338 665 -369 722 -414C796 -365 877 -340 884 -340C887 -340 890 -341 891 -344C901 -367 915 -378 959 -383ZM802 -565C788 -528 760 -490 724 -456C680 -484 640 -519 606 -561ZM116 -829C118 -792 120 -755 120 -705V-391L91 -363L139 -330C142 -328 145 -327 147 -327C155 -327 157 -330 178 -362H537C546 -362 551 -363 551 -367C551 -370 548 -375 541 -382L494 -428L462 -382H163V-765H510C520 -765 525 -767 525 -771C525 -774 522 -777 517 -782L462 -832L427 -785H170ZM275 -748C252 -687 230 -643 198 -590L209 -583C229 -605 245 -625 266 -654H342C341 -617 337 -586 329 -559H247C224 -559 199 -561 174 -563L202 -529C219 -536 248 -540 269 -540H323C303 -486 267 -447 204 -400L211 -389C276 -423 318 -458 345 -505C383 -485 425 -450 436 -432C446 -416 452 -411 461 -411C477 -411 480 -430 480 -438C480 -447 477 -457 471 -463C450 -483 406 -504 351 -517C355 -524 358 -532 361 -540H511C521 -540 525 -541 525 -545C525 -547 523 -551 517 -557L473 -600L444 -559H368C377 -587 383 -618 388 -654H497C507 -654 512 -656 512 -660C512 -663 509 -666 504 -671L457 -714L426 -673H280C301 -702 314 -711 321 -713C328 -715 332 -717 332 -719C332 -722 328 -725 321 -728ZM603 -824C604 -806 605 -789 605 -774C605 -686 585 -648 522 -596L527 -586C617 -639 643 -677 648 -768H768V-685C768 -646 776 -636 852 -636C895 -636 943 -647 943 -653C943 -655 931 -672 904 -689C881 -676 867 -673 851 -673C813 -673 809 -678 809 -704V-758L835 -774C841 -777 843 -779 843 -782C843 -785 841 -788 835 -791L780 -826L753 -787H653ZM619 -114C671 -88 689 -65 697 -30C702 -11 712 -3 723 -3C725 -3 754 -4 754 -31C754 -38 752 -46 748 -55C736 -83 702 -105 629 -127ZM474 -162H236C213 -162 188 -164 163 -166L191 -129C208 -136 237 -140 258 -140H474V10H122C99 10 74 8 49 6L77 43C94 36 123 32 144 32H903C914 32 920 30 920 25C920 22 917 17 911 11L855 -44L815 10H521V-140H829C837 -140 841 -143 841 -148C841 -152 839 -156 834 -161L781 -213L745 -162H521V-262H870C878 -262 882 -265 882 -270C882 -274 880 -278 875 -283L819 -337L783 -284H191C168 -284 143 -286 118 -288L146 -251C163 -258 189 -262 213 -262H474Z"/>
</svg>