<svg xmlns="http://www.w3.org/2000/svg" viewBox="0 -1000 1000 1000">
	<path fill="#000000" d="M521 -247C522 -222 523 -184 523 -164V-118C523 -104 521 -42 521 -30C521 -22 523 -19 529 -19C533 -19 539 -21 548 -23C564 -27 565 -31 565 -42V-63H706V-35C706 -29 707 -27 712 -27C715 -27 720 -28 728 -30C748 -36 751 -39 751 -49V-55C748 -86 747 -108 747 -131V-198C765 -209 767 -210 767 -213C767 -216 765 -219 760 -222L720 -250L702 -221H564ZM850 -378V-25C850 -8 848 0 826 0C809 0 780 -5 732 -14L731 -2C801 21 815 39 820 69C821 74 822 76 826 76C828 76 830 75 833 74C888 46 894 36 894 -15V-361L923 -378C928 -381 930 -383 930 -386C930 -388 928 -391 923 -395L866 -440L836 -399H444L382 -436C384 -406 385 -377 385 -325V-109C385 -38 384 15 382 55V59C382 67 384 71 391 71C395 71 402 69 411 66C429 59 432 56 432 45V38C429 3 428 -46 428 -116V-378ZM565 -82V-202H706V-82ZM802 -817L766 -790H485C463 -790 438 -792 414 -794L441 -758C458 -765 485 -769 507 -769H770L677 -683C649 -703 596 -723 549 -731L545 -719C606 -690 638 -660 648 -640H427C405 -640 380 -642 356 -644L383 -608C400 -615 428 -619 449 -619H580C523 -563 456 -513 331 -446L297 -477L262 -434H226V-705H360C368 -705 372 -708 372 -713C372 -716 369 -721 364 -726L309 -778L274 -727H106C83 -727 59 -729 34 -731L62 -695C78 -701 107 -705 127 -705H182V-434H117C96 -434 72 -436 49 -438L75 -403C91 -408 117 -412 137 -412H182V-134L31 -93L71 -38C72 -35 74 -34 76 -34C78 -34 80 -35 83 -39C94 -52 113 -65 148 -79L358 -169L352 -181L226 -146V-412H342C350 -412 354 -415 354 -419C354 -423 351 -428 344 -433C465 -485 570 -551 637 -619H643V-496C643 -483 639 -477 620 -477C606 -477 582 -481 544 -489L543 -474C597 -458 617 -443 621 -422C622 -416 625 -413 628 -413C629 -413 630 -414 632 -415C679 -440 685 -454 685 -501V-619H852L783 -514L796 -506C868 -582 887 -596 931 -600C939 -601 943 -602 943 -605C943 -608 940 -612 934 -617L872 -671L845 -640H692C694 -644 695 -649 695 -655C695 -660 694 -665 692 -669C784 -730 816 -740 854 -741C861 -741 865 -743 865 -746C865 -749 863 -753 858 -758ZM683 -335C734 -297 770 -259 780 -242C791 -222 799 -219 806 -219C816 -219 827 -234 827 -249C827 -293 723 -332 689 -344ZM558 -354C523 -295 492 -253 441 -201L452 -190C510 -242 527 -257 562 -288C575 -301 588 -306 600 -308C609 -309 613 -311 613 -314C613 -316 609 -320 599 -327Z"/>
</svg>