<svg xmlns="http://www.w3.org/2000/svg" viewBox="0 -1000 1000 1000">
	<path fill="#000000" d="M354 -220C331 -220 308 -222 283 -224L311 -191C328 -198 355 -202 376 -202H521C445 -113 335 -34 198 48L205 60C290 24 377 -26 464 -94V5C464 27 458 36 427 48L465 87C468 90 470 91 472 91C474 91 476 89 478 86C484 74 535 34 647 -35L641 -48L507 14V-129C535 -152 561 -175 588 -202H603C653 -77 717 -4 851 62C853 63 855 64 857 64C860 64 863 61 865 56C870 44 901 28 956 24V13C841 2 778 -18 715 -71C808 -116 846 -125 873 -127C881 -128 886 -131 886 -135C886 -138 883 -142 877 -146L828 -180C806 -158 742 -110 701 -83C679 -105 648 -153 622 -202H971C975 -202 978 -203 978 -204C978 -205 976 -207 973 -210L918 -261L884 -220H727V-298H904C908 -298 910 -299 910 -300C910 -301 909 -303 906 -306L858 -354L824 -314H727V-389H911C916 -389 919 -390 919 -393C919 -394 917 -397 914 -400L865 -451L826 -406H727V-435C749 -449 752 -451 752 -454C752 -457 750 -459 745 -461L689 -485C695 -491 697 -497 698 -510H813C813 -483 813 -480 819 -480C827 -480 856 -489 856 -507C856 -521 854 -544 854 -559V-604C881 -618 884 -620 884 -623C884 -626 881 -629 876 -632L831 -664L810 -635H696L656 -663C658 -637 658 -618 658 -595V-552C658 -533 655 -501 655 -482C655 -476 657 -473 661 -473C665 -473 671 -475 680 -479C682 -456 683 -432 683 -406H538V-427C562 -441 565 -443 565 -446C565 -449 563 -451 558 -453L491 -481C494 -455 495 -434 495 -406H423C400 -406 377 -408 352 -410L380 -378C397 -385 424 -389 445 -389H495V-314H429C406 -314 383 -316 358 -318L386 -287C403 -294 430 -298 451 -298H495V-220ZM683 -298V-220H538V-298ZM683 -389V-314H538V-389ZM698 -524V-621H813V-524ZM378 -669C380 -643 380 -624 380 -601V-542C380 -523 378 -493 378 -474C378 -465 381 -461 387 -461C391 -461 394 -462 399 -464C419 -472 422 -475 422 -485V-508H538C538 -481 538 -478 544 -478C549 -478 581 -487 581 -500C581 -515 579 -540 579 -555V-605C599 -618 601 -619 601 -623C601 -625 599 -628 595 -631L550 -663L534 -634H425ZM422 -522V-620H538V-522ZM540 -842C574 -815 591 -777 595 -751C598 -733 602 -728 614 -728C632 -728 647 -749 647 -769C647 -785 638 -819 545 -850ZM885 -778L847 -724H403C380 -724 360 -726 335 -728L363 -696C380 -703 404 -707 425 -707H939C946 -707 949 -708 949 -711C949 -714 947 -717 942 -722ZM160 -414H110C88 -414 64 -416 40 -418L67 -382C83 -388 110 -392 130 -392H160V-103L16 -58L52 -10C54 -8 56 -6 58 -6C60 -6 62 -8 65 -11C76 -24 95 -37 131 -52L355 -150L349 -162L201 -116V-392H318C326 -392 330 -394 330 -399C330 -402 327 -407 321 -413L272 -458L245 -414H201V-697H328C336 -697 340 -700 340 -705C340 -709 338 -713 333 -718L284 -765L255 -719H100C77 -719 52 -721 27 -723L55 -686C72 -693 99 -697 122 -697H160Z"/>
</svg>