<svg xmlns="http://www.w3.org/2000/svg" viewBox="0 -1000 1000 1000">
	<path fill="#000000" d="M359 -739L332 -700H152L86 -750C88 -722 89 -679 89 -657V-261C89 -210 88 -129 86 -75V-66C86 -52 88 -46 95 -46C99 -46 106 -48 115 -52C132 -59 134 -63 134 -75V-152H348V-96C348 -88 349 -83 355 -83C359 -83 365 -85 374 -89C395 -98 398 -101 398 -115V-123C395 -168 393 -230 393 -306V-660L418 -677C421 -679 423 -682 423 -684C423 -687 421 -690 416 -694ZM264 -446V-678H348V-446ZM134 -446V-678H219V-446ZM264 -174V-424H348V-174ZM134 -174V-424H219V-174ZM965 -511C842 -535 722 -635 674 -788C678 -791 701 -796 701 -800C701 -803 698 -806 692 -810L625 -849C590 -730 503 -563 405 -437L414 -426C505 -516 540 -575 661 -776C704 -586 859 -473 868 -473C870 -473 872 -474 873 -476C887 -492 909 -500 965 -500ZM653 -544C607 -462 521 -349 428 -268L436 -258C522 -317 629 -424 672 -477C676 -482 687 -487 698 -490C706 -492 711 -495 711 -498C711 -502 706 -507 696 -514ZM734 -406C672 -307 566 -190 438 -102L445 -90C564 -156 669 -251 741 -329C748 -337 756 -341 767 -342C779 -343 784 -345 784 -350C784 -353 781 -358 775 -364ZM815 -280C730 -137 589 -12 367 75L372 88C537 53 716 -68 820 -194C827 -203 841 -209 856 -213C867 -216 872 -218 872 -222C872 -225 869 -229 863 -235Z"/>
</svg>