<svg xmlns="http://www.w3.org/2000/svg" viewBox="0 -1000 1000 1000">
	<path fill="#000000" d="M382 -613L339 -558H253V-785L281 -800C286 -802 288 -805 288 -807C288 -809 286 -812 280 -815L204 -855C206 -818 208 -750 208 -709V-558H109C86 -558 61 -560 36 -562L64 -526C81 -533 110 -537 131 -537H208V-208L34 -155L78 -109C81 -106 84 -104 86 -104C89 -104 91 -106 94 -109C105 -122 115 -130 154 -146L386 -243L381 -261L253 -222V-537H440C448 -537 452 -538 452 -541C452 -543 449 -547 444 -552ZM894 -781L847 -723H434C411 -723 386 -725 361 -727L389 -691C406 -698 435 -702 456 -702H624C546 -452 407 -220 223 -40L234 -28C385 -153 493 -293 602 -519V-116C602 -71 601 -17 597 54V61C597 72 599 77 605 77C610 77 617 74 629 69C650 59 654 56 654 42V35C651 -6 650 -63 650 -116V-486C660 -493 677 -505 677 -508C677 -510 674 -512 669 -515L613 -542C640 -601 663 -651 682 -702H954C961 -702 964 -703 964 -706C964 -708 962 -712 958 -716ZM704 -407C813 -305 862 -220 874 -173C886 -128 895 -124 903 -124C920 -124 938 -146 938 -176C938 -189 934 -205 925 -221C904 -258 859 -304 713 -419Z"/>
</svg>