<svg xmlns="http://www.w3.org/2000/svg" viewBox="0 -1000 1000 1000">
	<path fill="#000000" d="M75 -633C112 -572 118 -523 118 -486C118 -464 126 -452 140 -452C156 -452 179 -475 179 -506C179 -530 161 -579 82 -641ZM892 -764L849 -702H293L229 -757C230 -723 232 -679 232 -641V-388L33 -269L81 -225C84 -221 87 -219 89 -219C91 -219 92 -222 94 -227C98 -241 119 -271 142 -291L232 -370C229 -135 160 -39 54 74L64 83C207 -34 277 -153 277 -370V-680H948C958 -680 962 -681 962 -684C962 -687 959 -693 951 -701ZM490 -830C541 -793 556 -760 568 -727C574 -710 578 -706 590 -706C605 -706 622 -720 622 -744C622 -782 587 -809 495 -840ZM524 -633C568 -594 587 -553 594 -515C596 -503 604 -494 613 -494C628 -494 647 -514 647 -541C647 -577 616 -604 529 -642ZM888 -60L845 0H624V-236H851C860 -236 865 -237 865 -241C865 -245 862 -250 855 -258L805 -318L760 -258H624V-463H899C909 -463 913 -464 913 -468C913 -472 910 -477 903 -486L854 -547L803 -485H372C349 -485 324 -487 299 -489L327 -452C344 -459 373 -463 394 -463H577V-258H416C393 -258 368 -260 343 -262L371 -225C388 -232 417 -236 438 -236H577V0H286C263 0 238 -2 213 -4L241 33C258 26 287 22 308 22H941C951 22 957 21 957 17C957 14 953 9 945 0Z"/>
</svg>