<svg xmlns="http://www.w3.org/2000/svg" viewBox="0 -1000 1000 1000">
	<path fill="#000000" d="M422 -643C469 -593 475 -576 489 -532C496 -509 502 -503 515 -503C527 -503 540 -525 540 -548C540 -592 482 -626 428 -652ZM890 -755L848 -699H283L211 -759C213 -717 214 -662 214 -600C214 -538 213 -469 211 -399L28 -289L72 -248C75 -245 78 -243 80 -243C82 -243 83 -245 85 -250C90 -262 103 -281 115 -292L211 -378C204 -175 174 -57 36 76L46 85C189 -21 240 -146 253 -320C263 -454 266 -542 267 -677H955C961 -677 964 -678 964 -680C964 -682 962 -684 958 -688ZM510 -841C548 -809 573 -762 578 -738C585 -708 589 -703 597 -703C612 -703 632 -720 632 -745C632 -784 564 -828 516 -849ZM68 -625C102 -556 107 -519 107 -475C107 -450 116 -435 128 -435C142 -435 161 -450 161 -489C161 -515 134 -569 77 -631ZM874 -215L835 -163H618V-309H872C878 -309 881 -310 881 -312C881 -314 879 -317 875 -320L813 -378L776 -330H618V-473H927C934 -473 937 -474 937 -477C937 -479 935 -482 930 -486L865 -545L827 -494H652C735 -586 752 -596 778 -599C783 -600 786 -601 786 -602C786 -604 784 -606 780 -609L723 -655C680 -573 658 -535 632 -494H374C353 -494 330 -496 308 -498L333 -463C348 -469 375 -473 394 -473H571V-330H400C379 -330 356 -332 334 -334L359 -299C374 -305 401 -309 420 -309H571V-163H319C298 -163 275 -165 253 -167L278 -132C293 -138 320 -142 339 -142H571V-104C571 -60 570 8 568 53V59C568 72 570 78 578 78C583 78 590 76 599 72C619 66 622 63 622 53V47C620 16 618 -41 618 -102V-142H941C944 -142 946 -143 946 -145C946 -146 945 -148 942 -151Z"/>
</svg>