<svg xmlns="http://www.w3.org/2000/svg" viewBox="0 -1000 1000 1000">
	<path fill="#000000" d="M911 -334L872 -287H790V-414L816 -428C820 -430 823 -433 823 -435C823 -438 820 -440 815 -444L763 -481L734 -445H539L571 -563H863C870 -563 873 -564 873 -567C873 -570 871 -574 866 -579L818 -629L776 -584H377C354 -584 329 -585 304 -588L332 -552C349 -559 378 -563 399 -563H525L494 -445H426C403 -445 378 -446 353 -449L381 -413C398 -420 427 -424 448 -424H489L453 -287H342C319 -287 294 -288 269 -291L297 -255C314 -262 343 -266 364 -266H960C968 -266 971 -267 971 -270C971 -273 969 -276 964 -281ZM496 -287L533 -424H746V-287ZM788 -222L758 -181H454L391 -217C393 -186 394 -152 394 -128V-43C394 -25 390 52 390 68C390 80 392 85 399 85C403 85 410 83 419 79C438 71 438 67 438 31H776C776 68 776 72 783 72C790 72 825 62 825 45C825 42 824 39 824 36C822 18 821 -15 821 -49V-151L848 -170C852 -173 854 -175 854 -178C854 -180 851 -183 846 -186ZM438 10V-160H776V10ZM483 -838C530 -804 556 -775 565 -736C572 -707 580 -703 591 -703C606 -703 620 -725 620 -751C620 -757 620 -763 618 -769C612 -790 569 -821 489 -850ZM51 -640C103 -575 118 -533 120 -499C122 -471 132 -459 142 -459C157 -459 174 -475 174 -509C174 -537 169 -569 60 -649ZM892 -759L842 -700H275L212 -746C216 -699 219 -536 217 -404L27 -296L68 -245C71 -241 73 -239 75 -239C78 -239 80 -242 82 -248C86 -260 96 -272 118 -292L217 -379C211 -189 173 -71 35 75L46 83C234 -78 272 -170 265 -679H952C959 -679 963 -681 963 -684C963 -687 960 -692 955 -697Z"/>
</svg>