<svg xmlns="http://www.w3.org/2000/svg" viewBox="0 -1000 1000 1000">
	<path fill="#000000" d="M233 86C395 55 518 4 610 -61C673 -13 748 20 855 51C857 52 859 52 861 52C865 52 867 50 870 45C885 20 905 8 962 -1V-11C833 -11 732 -33 642 -85C692 -126 732 -171 764 -221C772 -233 795 -249 813 -252C817 -253 820 -254 820 -257C820 -259 818 -261 815 -264L760 -315L727 -281H536C553 -307 568 -318 587 -322C593 -323 596 -326 596 -329C596 -332 594 -334 590 -337L539 -369C469 -255 386 -153 295 -72L302 -63C358 -100 407 -141 472 -207C509 -157 544 -118 579 -87C496 -26 383 27 230 72ZM731 -260C702 -205 661 -154 606 -108C564 -138 524 -175 484 -220L519 -260ZM697 -589C751 -559 785 -534 807 -506L419 -502C479 -541 528 -575 586 -618C594 -624 620 -635 633 -637C637 -638 639 -639 639 -640C639 -642 637 -644 634 -646L575 -685C538 -633 523 -618 417 -536C390 -515 362 -502 319 -494L349 -450C353 -445 355 -442 358 -442C361 -442 363 -444 368 -447C386 -460 415 -468 485 -474L820 -488C824 -482 828 -475 831 -468C844 -441 850 -435 858 -435C871 -435 882 -453 882 -475C882 -485 880 -495 876 -504C859 -540 803 -571 702 -602ZM221 -772C223 -706 224 -652 224 -598C224 -544 223 -490 221 -422L27 -315L65 -266C68 -263 71 -261 73 -261C75 -261 77 -263 79 -266C96 -293 117 -317 140 -336L221 -402C214 -172 170 -87 28 59L37 71C234 -88 272 -183 272 -605C272 -634 272 -662 271 -692H921C928 -692 932 -694 932 -699C932 -702 930 -707 924 -713L862 -773L820 -714H284ZM494 -450C432 -384 349 -312 276 -259L284 -248C360 -287 439 -342 499 -388C512 -398 530 -404 544 -405C548 -405 551 -406 551 -408C551 -410 549 -412 546 -414ZM681 -440C763 -403 818 -354 848 -310C862 -289 868 -283 877 -283C890 -283 899 -295 899 -311C899 -381 747 -432 684 -452ZM59 -666C100 -601 118 -559 121 -515C123 -488 131 -478 140 -478C157 -478 178 -501 178 -531C178 -564 155 -597 68 -675ZM452 -827C507 -806 538 -784 561 -750C576 -728 586 -722 598 -722C609 -722 618 -734 618 -751C618 -760 615 -772 606 -783C589 -805 530 -832 454 -840Z"/>
</svg>