<svg xmlns="http://www.w3.org/2000/svg" viewBox="0 -1000 1000 1000">
	<path fill="#000000" d="M253 -729L193 -774C195 -735 197 -697 197 -658V-431L30 -297C37 -292 82 -257 88 -257C92 -257 92 -261 92 -263C92 -285 113 -312 127 -328L197 -407C196 -212 176 -73 62 89L73 96C205 -47 243 -156 243 -483V-708H915C918 -708 931 -708 931 -715C931 -723 874 -773 865 -781L825 -729ZM65 -638C90 -585 97 -557 97 -498C97 -481 97 -458 116 -458C143 -458 152 -493 152 -514C152 -551 97 -618 74 -644ZM478 -844C508 -820 535 -793 550 -757C555 -745 565 -734 579 -734C598 -734 606 -753 606 -769C606 -819 521 -842 484 -852ZM924 -486C926 -486 931 -486 931 -489C931 -495 882 -541 875 -548L837 -504H745V-634C749 -637 767 -647 767 -652C767 -660 706 -685 696 -690C699 -642 701 -593 701 -545V-504H650C626 -504 601 -505 577 -508L605 -475C630 -486 665 -486 683 -486C646 -332 598 -197 515 -61L528 -54C608 -154 662 -265 701 -387V-136C701 -76 699 -17 696 43C696 48 695 53 695 58C695 64 695 75 704 75C710 75 719 71 724 69C739 63 747 59 747 41C747 0 745 -42 745 -83V-486H754C775 -353 801 -213 871 -96C872 -94 875 -89 878 -89C883 -89 893 -109 930 -109C937 -109 945 -108 952 -107V-117C849 -183 797 -375 771 -486ZM564 -486C567 -486 570 -487 570 -490C570 -497 527 -539 520 -546L488 -504H456V-630C460 -633 479 -646 479 -651C479 -657 420 -681 410 -686C412 -637 414 -588 414 -539V-504H353C329 -504 304 -506 280 -508L308 -475C327 -483 355 -486 375 -486H406C374 -342 315 -199 235 -76L246 -66C324 -164 373 -241 414 -360V-135C414 -81 409 6 409 61C409 68 411 77 419 77C429 77 458 67 458 48C458 6 456 -61 456 -103V-380C518 -334 532 -296 542 -270C546 -261 551 -255 561 -255C578 -255 584 -268 584 -284C584 -349 507 -382 456 -403V-486Z"/>
</svg>