<svg xmlns="http://www.w3.org/2000/svg" viewBox="0 -1000 1000 1000">
	<path fill="#000000" d="M899 -772L863 -721H268L202 -768C203 -734 205 -690 205 -652V-547C205 -499 205 -456 204 -417L20 -302L61 -261C65 -257 68 -255 70 -255C73 -255 75 -258 77 -263C88 -292 110 -318 203 -399C196 -162 161 -89 33 66L44 74C199 -63 241 -161 249 -433L257 -699H946C953 -699 958 -701 958 -706C958 -709 955 -714 949 -720ZM982 8C811 -15 713 -80 650 -221H822C822 -190 822 -187 828 -187C832 -187 839 -190 849 -195C867 -204 870 -208 870 -221V-229C868 -261 867 -300 867 -344V-509C879 -517 898 -530 898 -534C898 -537 895 -540 888 -546L835 -588L805 -547H729C706 -547 681 -549 656 -551L684 -514C701 -521 730 -525 751 -525H822V-399H719C696 -399 671 -401 646 -403L674 -366C691 -373 720 -377 741 -377H822V-243H611C619 -313 622 -437 622 -608C649 -623 652 -625 652 -628C652 -631 649 -634 641 -637L573 -668C576 -589 578 -524 578 -468C578 -372 573 -303 565 -243H383V-376H516C525 -376 529 -377 529 -381C529 -383 527 -387 523 -392L483 -442L450 -398H383V-521C464 -546 501 -553 521 -553C525 -553 543 -549 546 -549C549 -549 551 -551 551 -553C551 -554 549 -557 547 -560L510 -607C473 -582 440 -562 393 -540L334 -584C336 -549 337 -484 337 -446V-354C337 -327 335 -208 335 -183C335 -168 337 -161 343 -161C348 -161 354 -164 363 -168C382 -177 383 -181 383 -192V-221H562C534 -80 385 18 198 90L201 104C425 41 578 -63 607 -221H625C678 -89 728 -27 875 56C880 59 884 61 887 61C890 61 893 59 896 54C910 34 936 23 982 20ZM487 -843C543 -811 569 -777 581 -752C593 -728 596 -725 607 -725C621 -725 636 -741 636 -764C636 -811 591 -831 492 -852ZM64 -635C96 -577 99 -536 99 -494C99 -467 107 -455 115 -455C132 -455 156 -469 156 -513C156 -543 132 -585 74 -640Z"/>
</svg>