<svg xmlns="http://www.w3.org/2000/svg" viewBox="0 -1000 1000 1000">
	<path fill="#000000" d="M381 -322C383 -296 383 -263 383 -237V-77C383 -31 382 10 379 63V68C379 75 381 79 387 79C401 79 428 69 428 54V10H770V51C770 59 771 63 776 63C780 63 786 61 795 57C814 50 819 46 819 34V30C816 -9 815 -34 815 -77V-244L842 -265C845 -268 847 -270 847 -273C847 -275 845 -277 841 -280L776 -321L752 -280H440ZM770 -12H428V-131H770ZM428 -258H770V-153H428ZM206 -778C208 -744 210 -692 210 -662V-412L39 -275L88 -239C92 -236 95 -235 97 -235C100 -235 101 -237 101 -241C101 -255 109 -276 136 -306L210 -390C208 -182 160 -60 51 85L62 92C200 -57 254 -171 254 -487V-716H946C957 -716 962 -717 962 -721C962 -723 960 -726 955 -730L896 -785L856 -733H266ZM528 -694C564 -662 577 -640 582 -601C585 -580 590 -572 601 -572C619 -572 634 -584 634 -608C634 -645 606 -671 534 -706ZM65 -632C96 -578 99 -558 99 -502C99 -473 112 -462 124 -462C142 -462 154 -474 154 -504C154 -547 140 -572 74 -638ZM421 -518C457 -485 477 -449 483 -422C486 -409 490 -401 502 -401C518 -401 527 -414 527 -434C527 -467 501 -494 426 -528ZM831 -621L793 -570H372C353 -570 333 -572 313 -574L336 -537C349 -544 372 -548 389 -548H889C895 -548 898 -549 898 -552C898 -554 896 -557 892 -561ZM722 -526C702 -479 686 -449 649 -387H322C306 -387 299 -387 264 -391L286 -354C300 -361 321 -365 340 -365H960C967 -365 971 -366 971 -369C971 -371 968 -375 964 -379L901 -441L860 -387H665C743 -467 759 -478 777 -481C782 -482 784 -483 784 -485C784 -487 782 -490 778 -492ZM496 -845C536 -813 559 -783 568 -758C573 -744 585 -735 597 -735C615 -735 624 -753 624 -770C624 -779 622 -788 617 -795C599 -820 564 -837 502 -853Z"/>
</svg>