<svg xmlns="http://www.w3.org/2000/svg" viewBox="0 -1000 1000 1000">
	<path fill="#000000" d="M850 -732H248L188 -777C190 -740 192 -702 192 -665V-438L27 -306C34 -300 79 -263 85 -263C89 -263 89 -268 89 -270C89 -293 110 -319 124 -335L192 -410C191 -210 173 -80 57 86L68 93C200 -50 238 -159 238 -486V-713H410C412 -676 413 -640 413 -603C366 -603 309 -603 271 -607L294 -572C309 -580 330 -583 347 -583H413V-489C374 -489 337 -489 299 -493L322 -458C336 -466 359 -469 375 -469H413V-357C362 -357 302 -357 261 -361L284 -326C298 -334 321 -337 337 -337H413C413 -321 412 -253 412 -239C412 -234 413 -226 419 -226C430 -226 457 -240 457 -254C457 -273 456 -293 456 -312V-337H581C585 -337 593 -338 593 -344C593 -352 550 -391 542 -399L510 -357H456V-469H568C570 -469 580 -469 580 -474C580 -480 538 -523 532 -530L499 -489H456V-583H586C588 -583 598 -583 598 -587C598 -595 556 -637 550 -644L520 -603H456V-655C461 -658 479 -665 479 -671C479 -680 420 -708 410 -713H940C943 -713 953 -713 953 -719C953 -727 898 -776 890 -784ZM58 -647C81 -599 92 -554 92 -501C92 -475 92 -461 111 -461C138 -461 147 -496 147 -517C147 -555 91 -626 67 -653ZM496 -846C530 -821 548 -798 564 -759C569 -748 577 -736 591 -736C608 -736 613 -756 613 -769C613 -826 544 -842 502 -854ZM833 -621H663C643 -621 624 -623 604 -625L627 -590C648 -601 672 -601 691 -601C682 -383 660 -326 546 -247L522 -257C518 -224 514 -192 505 -160H316C294 -160 271 -162 249 -163L278 -132C296 -137 315 -139 334 -139H499C466 -39 392 2 217 72L221 86C429 26 505 -23 546 -139H572C645 -20 691 13 822 63C823 63 825 64 826 64C829 64 830 62 832 59C849 30 888 22 919 21V10C773 2 688 -28 591 -139H892C894 -139 907 -139 907 -144C907 -152 855 -202 847 -210L805 -160H553C557 -175 560 -189 564 -204C569 -207 591 -219 591 -225C591 -231 568 -238 564 -239C694 -307 721 -360 735 -601H848C845 -525 843 -424 829 -349C824 -321 819 -299 785 -299C759 -299 722 -310 697 -317L695 -301C724 -292 769 -279 779 -246C780 -242 781 -233 787 -233C789 -233 791 -234 793 -235C856 -260 859 -276 869 -341C882 -424 885 -509 889 -593C895 -596 921 -605 921 -612C921 -620 870 -658 862 -664Z"/>
</svg>