<svg xmlns="http://www.w3.org/2000/svg" viewBox="0 -1000 1000 1000">
	<path fill="#000000" d="M876 -659L835 -611H356C333 -611 308 -613 283 -615L311 -579C328 -586 357 -590 378 -590H514V-503H411L356 -544C358 -523 359 -490 359 -474V-372C359 -365 357 -331 357 -328C357 -322 359 -320 364 -320C367 -320 372 -321 379 -323C399 -330 400 -332 400 -340V-359H834C834 -330 834 -327 841 -327C845 -327 851 -328 861 -332C877 -338 880 -341 880 -349C880 -355 876 -411 876 -423V-469L907 -484C911 -486 913 -488 913 -490C913 -492 911 -495 908 -497L848 -539L822 -503H715V-590H917C925 -590 929 -592 929 -596C929 -599 926 -604 920 -611ZM557 -380V-482H672V-380ZM557 -503V-590H672V-503ZM715 -380V-482H834V-380ZM400 -380V-482H514V-380ZM55 -631C100 -572 113 -515 113 -482C113 -457 126 -449 134 -449C153 -449 178 -465 178 -501C178 -529 148 -576 64 -640ZM908 -775L865 -720H281L216 -774C217 -740 219 -696 219 -658V-421L35 -302L71 -260C73 -258 75 -256 77 -256C80 -256 82 -258 84 -262C93 -278 120 -311 141 -329L219 -396C219 -143 191 -69 51 85L62 97C214 -12 265 -169 265 -432V-699H955C962 -699 966 -701 966 -705C966 -708 963 -713 958 -718ZM503 -846C552 -816 579 -779 586 -748C591 -727 596 -724 604 -724C625 -724 643 -741 643 -765C643 -810 581 -839 506 -854ZM829 -314L791 -270H431C408 -270 383 -272 358 -274L386 -238C403 -245 432 -249 453 -249H864C873 -249 878 -250 878 -254C878 -257 875 -262 869 -269ZM907 -219L866 -173H335C312 -173 287 -175 262 -177L290 -141C307 -148 336 -152 357 -152H598V-9C598 8 594 17 561 17C539 17 504 12 449 4L448 21C546 43 560 56 569 89C570 95 572 98 575 98C577 98 580 97 583 95C637 64 641 54 641 10V-152H944C953 -152 958 -154 958 -158C958 -161 955 -165 949 -172ZM694 -88C782 -41 841 -1 875 42C890 61 895 62 901 62C911 62 924 49 924 27C924 -16 899 -39 698 -102ZM439 -121C363 -47 317 -11 198 70L206 83C307 34 372 -5 452 -61C467 -71 479 -75 494 -76C501 -77 505 -78 505 -80C505 -82 502 -85 497 -88Z"/>
</svg>