<svg xmlns="http://www.w3.org/2000/svg" viewBox="0 -1000 1000 1000">
	<path fill="#000000" d="M970 19C810 9 684 -41 627 -138H951C959 -138 963 -140 963 -143C963 -147 959 -152 951 -159L895 -213L856 -159H576C584 -187 590 -214 595 -245H781C781 -218 781 -215 788 -215C795 -215 832 -226 832 -245C832 -247 826 -303 826 -314V-434C852 -451 855 -453 855 -458C855 -462 851 -466 844 -471L791 -507L770 -471H406L350 -511C352 -480 353 -431 353 -407V-322C353 -296 349 -254 349 -227C349 -215 352 -211 358 -211C366 -211 398 -220 398 -241V-245H546C543 -214 535 -183 529 -159H297C279 -159 259 -159 228 -161L262 -132C280 -136 294 -138 311 -138H523C487 -37 372 27 151 87L153 98C414 55 529 -17 570 -138H605C672 16 870 78 882 78C886 78 888 77 889 75C909 47 920 38 970 31ZM398 -370V-450H781V-370ZM398 -266V-349H781V-266ZM63 -655C94 -602 105 -521 105 -490C105 -465 114 -460 124 -460C138 -460 159 -480 159 -528C159 -545 134 -590 72 -662ZM887 -774L847 -719H268L202 -772C203 -738 205 -694 205 -656V-405L28 -302L66 -263C69 -260 72 -258 74 -258C78 -258 80 -261 83 -267C91 -283 106 -301 128 -320L205 -386C204 -183 155 -60 50 64L61 72C192 -45 249 -181 249 -408V-698H946C955 -698 960 -700 960 -703C960 -707 956 -712 949 -719ZM477 -847C526 -809 549 -766 553 -747C557 -730 566 -721 575 -721C591 -721 609 -738 609 -762C609 -811 526 -843 483 -856ZM874 -644L836 -590H703V-643C728 -659 731 -660 731 -665C731 -670 726 -673 718 -676L656 -696C658 -677 659 -662 659 -642V-590H506V-642C529 -654 531 -655 531 -660C531 -664 527 -667 518 -671L459 -696C462 -672 462 -647 462 -622V-590H345C327 -590 307 -590 276 -592L310 -563C328 -567 342 -569 359 -569H462C462 -559 461 -517 461 -508C461 -495 462 -489 469 -489C474 -489 481 -492 491 -496C506 -502 510 -505 510 -513C510 -515 506 -560 506 -569H659C659 -560 658 -522 658 -514C658 -501 659 -495 666 -495C671 -495 678 -498 688 -502C703 -508 707 -511 707 -519C707 -527 703 -562 703 -569H931C939 -569 944 -571 944 -574C944 -577 940 -582 932 -589Z"/>
</svg>