<svg xmlns="http://www.w3.org/2000/svg" viewBox="0 -1000 1000 1000">
	<path fill="#000000" d="M590 -297L534 -348C536 -317 537 -272 537 -249V-99C537 -45 535 6 531 60V63C531 69 532 72 537 72C541 72 549 69 562 62C580 52 580 48 580 11H871V43C871 51 872 55 877 55C878 55 918 44 918 27C916 -12 915 -55 915 -106V-263L943 -286C947 -289 949 -292 949 -294C949 -297 947 -300 942 -303L884 -345L853 -297H687C731 -351 746 -363 768 -371C774 -373 777 -376 777 -379C777 -382 774 -385 768 -387L713 -407C700 -365 689 -339 663 -297ZM276 -722L218 -775C220 -744 221 -697 221 -673V-560C221 -506 219 -455 215 -401V-397C215 -391 216 -388 221 -388C226 -388 234 -391 247 -398C266 -407 266 -412 266 -450H757V-418C757 -409 758 -405 763 -405C764 -405 806 -416 806 -434C804 -473 803 -517 803 -567V-686L831 -709C835 -713 837 -716 837 -719C837 -722 835 -725 830 -728L765 -771L736 -722H459C505 -781 522 -798 547 -804C554 -806 557 -809 557 -812C557 -815 554 -819 547 -822L486 -849C473 -805 460 -777 432 -722ZM871 -9H580V-141H871ZM580 -278H871V-162H580ZM266 -599V-701H757V-599ZM266 -472V-576H757V-472ZM411 -9H138V-141H411ZM138 -278H411V-162H138ZM148 -297L92 -348C94 -317 95 -272 95 -249V-99C95 -45 93 6 89 60V63C89 69 90 72 95 72C99 72 107 69 120 62C138 52 138 48 138 11H411V43C411 51 412 55 417 55C418 55 458 44 458 27C456 -12 455 -64 455 -106V-263L483 -286C487 -289 489 -292 489 -294C489 -297 487 -300 482 -303L424 -339L395 -297H256C295 -349 318 -367 340 -375C346 -377 349 -380 349 -383C349 -386 346 -389 340 -391L285 -414C270 -369 256 -340 231 -297Z"/>
</svg>