<svg xmlns="http://www.w3.org/2000/svg" viewBox="0 -1000 1000 1000">
	<path fill="#000000" d="M818 -351L798 -319H481L430 -355C432 -326 433 -280 433 -257V-83C433 -59 431 46 431 67C431 75 432 78 438 78C442 78 448 76 458 72C476 64 478 60 478 47V17H805V67C805 76 806 81 812 81C816 81 822 79 832 74C850 66 854 63 854 51V46C852 17 850 -22 850 -83V-281C857 -286 882 -302 882 -305C882 -307 879 -309 875 -312ZM668 -167V-299H805V-167ZM478 -167V-299H623V-167ZM668 -3V-147H805V-3ZM478 -3V-147H623V-3ZM285 -689L263 -648H190L235 -772C241 -788 247 -797 266 -803C272 -805 275 -807 275 -809C275 -810 273 -812 269 -814L201 -848C194 -772 183 -706 168 -648H136L84 -685C86 -655 87 -611 87 -588V-211C87 -157 86 -74 84 -18V-7C84 7 85 13 92 13C96 13 102 11 111 7C129 -1 131 -3 131 -17V-99H274V-35C274 -27 275 -22 281 -22C284 -22 290 -24 300 -28C319 -36 323 -39 323 -55V-62C320 -107 318 -169 318 -245V-613L346 -636C350 -639 352 -641 352 -643C352 -646 350 -648 345 -651ZM131 -396V-628H274V-396ZM131 -119V-376H274V-119ZM438 -689C484 -657 500 -621 508 -598C512 -586 518 -580 527 -580C541 -580 553 -601 553 -622C553 -666 501 -683 444 -699ZM962 -395C855 -408 765 -456 697 -540H932C941 -540 945 -542 945 -546C945 -549 942 -554 935 -560L881 -611L841 -560H724C819 -667 833 -677 844 -677C853 -677 858 -678 858 -682C858 -684 854 -688 847 -693L799 -725C773 -674 735 -607 704 -560H663V-753C689 -755 802 -765 825 -765C844 -765 859 -763 871 -760C875 -759 878 -758 881 -758C884 -758 885 -759 885 -762C885 -764 883 -768 880 -774L846 -827C730 -801 561 -774 392 -753L393 -739C468 -741 539 -744 618 -749V-560H427C404 -560 379 -562 354 -564L382 -529C399 -536 428 -540 449 -540H564C494 -451 420 -382 327 -312L334 -299C436 -365 524 -440 616 -540C616 -420 616 -406 615 -379V-370C615 -355 617 -349 623 -349C627 -349 632 -351 640 -354C663 -364 667 -367 667 -381V-387C664 -429 663 -471 663 -540H676C721 -456 777 -400 877 -346C882 -343 885 -342 888 -342C891 -342 892 -344 894 -347C903 -366 922 -379 962 -382Z"/>
</svg>