<svg xmlns="http://www.w3.org/2000/svg" viewBox="0 -1000 1000 1000">
	<path fill="#000000" d="M305 -790L277 -748H159L101 -800C103 -769 104 -721 104 -697V-238C104 -181 103 -91 101 -32V-22C101 -6 103 -1 109 -1C116 -1 148 -10 148 -31V-100H290C290 -64 290 -64 296 -64C300 -64 306 -65 314 -69C335 -78 339 -82 339 -96V-103C336 -148 334 -210 334 -286V-709L359 -726C364 -729 367 -732 367 -736C367 -738 365 -740 362 -743ZM148 -339V-518H290V-339ZM148 -540V-726H290V-540ZM148 -122V-317H290V-122ZM922 -455C930 -455 934 -456 934 -459C934 -462 932 -465 927 -470L864 -533L824 -477H653V-778L677 -798C681 -801 684 -804 684 -807C684 -810 681 -812 676 -815L603 -853C605 -816 607 -748 607 -707V-477H437C413 -477 391 -479 364 -481L392 -444C403 -450 423 -455 459 -455H566C511 -282 432 -136 322 -6L331 4C450 -100 542 -264 607 -438V-116C607 -48 606 -8 604 45V55C604 71 606 78 613 78C618 78 625 75 634 71C654 62 657 58 657 45V37C654 -8 653 -47 653 -114V-455H675C708 -269 761 -162 850 -60C854 -56 857 -54 860 -54C862 -54 864 -55 865 -57C874 -68 895 -76 923 -76C933 -76 945 -75 958 -72L961 -82C821 -138 738 -271 693 -455ZM818 -747C777 -668 720 -567 695 -530L709 -523L839 -675C846 -683 857 -689 868 -692C874 -694 877 -696 877 -698C877 -700 875 -703 871 -706ZM404 -731C453 -670 472 -603 476 -567C478 -546 487 -539 497 -539C514 -539 532 -564 532 -591C532 -630 481 -683 413 -741Z"/>
</svg>