<svg xmlns="http://www.w3.org/2000/svg" viewBox="0 -1000 1000 1000">
	<path fill="#000000" d="M335 -754L309 -712H156L96 -763C98 -732 99 -684 99 -660V-136C99 -68 98 -33 95 24V37C95 50 96 56 102 56C104 56 144 40 144 18V-62H325V-19C325 -7 327 -1 332 -1C333 -1 373 -17 373 -42V-46C371 -92 370 -128 370 -204V-670L399 -689C403 -692 405 -695 405 -698C405 -702 403 -705 399 -708ZM144 -303V-486H325V-303ZM144 -508V-690H325V-508ZM144 -84V-281H325V-84ZM858 -498L815 -440H683V-629H890C899 -629 904 -631 904 -635C904 -638 901 -643 894 -650L832 -707L791 -651H683V-768L709 -786C714 -790 717 -793 717 -796C717 -799 713 -802 707 -805L634 -846C636 -811 637 -787 637 -748V-651H493C470 -651 444 -653 420 -655L448 -619C464 -625 494 -629 515 -629H637V-440H462C439 -440 413 -442 389 -444L417 -408C433 -414 463 -418 484 -418H919C928 -418 934 -420 934 -424C934 -428 930 -433 923 -440ZM883 -44L842 12H683V-211H887C895 -211 899 -213 899 -217C899 -220 896 -225 890 -231L831 -286L792 -233H683V-332C712 -348 715 -350 715 -355C715 -359 712 -362 706 -365L634 -409C636 -374 637 -350 637 -311V-233H490C467 -233 441 -235 417 -237L445 -201C461 -207 491 -211 512 -211H637V12H421C398 12 372 10 348 8L376 44C392 38 422 34 443 34H941C950 34 955 32 955 27C955 24 951 19 945 13Z"/>
</svg>