<svg xmlns="http://www.w3.org/2000/svg" viewBox="0 -1000 1000 1000">
	<path fill="#000000" d="M763 -792C802 -765 828 -735 842 -694C847 -680 853 -673 863 -673C875 -673 889 -684 889 -706C889 -739 868 -767 769 -802ZM314 -585L281 -542H221V-770C251 -788 254 -790 254 -793C254 -796 250 -799 243 -802L170 -836C172 -799 174 -731 174 -690V-542H97C75 -542 51 -544 27 -546L54 -511C70 -517 97 -521 117 -521H174V-195L31 -136L75 -83C77 -80 79 -79 81 -79C83 -79 85 -81 88 -86C96 -101 109 -115 151 -139L354 -255L347 -267L221 -215V-521H349C356 -521 359 -522 359 -525C359 -527 358 -529 355 -533ZM898 -671L863 -623H704C703 -661 703 -689 703 -714C703 -739 703 -760 704 -784L730 -803C734 -806 736 -808 736 -810C736 -812 734 -814 730 -816L655 -852C656 -772 657 -719 660 -623H432L371 -671C372 -637 374 -594 374 -556V-388C374 -154 333 -55 169 82L179 93C365 -42 409 -97 417 -417H548C549 -340 547 -244 539 -164C536 -132 527 -115 485 -115C467 -115 442 -119 408 -125L406 -112C468 -94 489 -85 498 -55C500 -48 503 -45 507 -45C509 -45 512 -46 515 -48C569 -79 578 -102 583 -157C590 -234 592 -305 592 -404L622 -424C626 -427 628 -430 628 -432C628 -435 626 -437 622 -440L559 -482L533 -439H418C420 -486 420 -540 420 -600H660C668 -381 683 -253 711 -164C651 -77 573 -1 471 66L478 76C591 17 668 -47 727 -121C776 -17 894 71 937 71C947 71 951 67 951 59C951 54 949 47 942 37C935 27 932 7 932 -25C932 -60 936 -109 943 -172L929 -176L888 -12C827 -49 786 -94 758 -164C804 -231 837 -306 871 -392C881 -418 894 -424 909 -427C915 -428 918 -429 918 -431C918 -433 916 -435 912 -438L845 -486C822 -384 789 -294 742 -213C719 -302 708 -424 704 -600H955C961 -600 964 -601 964 -603C964 -605 962 -608 958 -612Z"/>
</svg>