<svg xmlns="http://www.w3.org/2000/svg" viewBox="0 -1000 1000 1000">
	<path fill="#000000" d="M762 13V57C762 65 763 69 769 69C773 69 779 67 788 63C806 55 812 51 812 39C812 37 811 34 811 31C808 -2 806 -55 806 -109V-311L833 -330C837 -333 838 -335 838 -337C838 -339 837 -342 833 -344L777 -386L751 -347H256L193 -396C195 -367 196 -322 196 -300V-114C196 -62 195 -9 193 39V48C193 63 195 68 202 68C207 68 214 66 224 62C239 56 240 52 240 13ZM762 -126H240V-213H762ZM762 -103V-11H240V-103ZM240 -325H762V-235H240ZM627 -783L653 -800C658 -803 660 -806 660 -808C660 -811 658 -813 653 -815L579 -850C581 -816 582 -766 582 -719V-485C582 -411 606 -406 753 -406C918 -406 926 -416 949 -482C949 -483 950 -484 950 -485C950 -489 947 -492 944 -494C925 -504 916 -529 915 -612H898C892 -478 881 -456 846 -453C817 -451 785 -450 755 -450C627 -450 627 -458 627 -492V-571C736 -624 803 -658 838 -681C858 -694 873 -699 887 -699C890 -699 904 -697 906 -697C910 -697 912 -698 912 -700C912 -702 910 -705 906 -709L854 -761C798 -712 735 -665 627 -593ZM525 -633C533 -633 536 -635 536 -639C536 -642 534 -646 529 -650L479 -697L447 -655H386V-771L409 -787C413 -790 416 -792 416 -795C416 -797 413 -799 408 -801L336 -835C338 -800 339 -777 339 -738V-479L211 -456V-673C242 -694 242 -694 242 -698C242 -700 240 -702 234 -705L163 -741C165 -699 166 -666 166 -616V-448L45 -427L83 -378C86 -374 89 -372 92 -372C95 -372 97 -373 99 -375C114 -390 148 -405 225 -422L536 -493L533 -513L386 -487V-633Z"/>
</svg>