<svg xmlns="http://www.w3.org/2000/svg" viewBox="0 -1000 1000 1000">
	<path fill="#000000" d="M95 -794C97 -763 98 -715 98 -691V-190C98 -133 97 -85 95 -26V-21C95 -10 97 -5 105 -5C109 -5 115 -7 123 -10C138 -16 142 -20 142 -35V-112H294V-56C294 -47 295 -43 301 -43C305 -43 310 -45 319 -49C340 -60 344 -65 344 -77V-81C340 -126 339 -160 339 -236V-716C365 -730 368 -732 368 -736C368 -739 367 -741 363 -744L304 -790L277 -749H152ZM294 -358H142V-534H294ZM142 -134V-336H294V-134ZM142 -727H294V-556H142ZM742 -751L711 -718H557C563 -726 571 -737 580 -750C600 -779 617 -792 629 -795C637 -798 641 -800 641 -803C641 -806 638 -809 631 -813L575 -848C519 -729 423 -583 360 -510L368 -501C391 -520 413 -541 436 -566V-372C436 -337 435 -314 433 -293C432 -288 432 -284 432 -280C432 -271 434 -267 439 -267C444 -267 451 -271 462 -277C479 -287 481 -291 481 -302V-326H609C569 -124 460 -30 271 73L276 86C393 44 486 -19 551 -94C600 -150 634 -220 654 -326H664V-43C664 22 688 45 795 45C924 45 938 41 971 -9C974 -13 975 -16 975 -18C975 -21 973 -23 968 -25C942 -36 938 -44 938 -173H921C912 -2 909 4 805 4C723 4 710 -10 710 -36V-326H827C827 -294 827 -291 833 -291C837 -291 877 -306 877 -325C877 -328 876 -331 876 -335C873 -365 872 -388 872 -422V-510L901 -526C907 -529 909 -531 909 -534C909 -536 907 -539 902 -543L843 -589L814 -548H652C745 -668 770 -682 796 -685C804 -686 808 -688 808 -691C808 -693 805 -697 799 -702ZM481 -348V-526H626C626 -462 622 -403 613 -348ZM447 -578C476 -610 506 -648 542 -697H718L630 -548H487ZM658 -348C666 -399 671 -457 672 -526H827V-348Z"/>
</svg>