<svg xmlns="http://www.w3.org/2000/svg" viewBox="0 -1000 1000 1000">
	<path fill="#000000" d="M83 -772C85 -741 86 -693 86 -669V-187C86 -151 84 7 84 39C84 50 85 54 90 54C93 54 98 51 106 46C127 32 130 27 130 15V-72H258V-14C258 -2 259 4 264 4C269 4 304 -11 304 -35C304 -65 302 -197 302 -224V-679L330 -698C334 -701 336 -704 336 -707C336 -710 334 -714 330 -717L270 -765L243 -723H139ZM258 -311H130V-491H258ZM130 -94V-289H258V-94ZM130 -701H258V-513H130ZM574 -835C607 -806 621 -779 636 -726C641 -707 647 -698 661 -698C674 -698 688 -719 688 -742C688 -785 625 -825 580 -845ZM653 -528C655 -488 656 -439 656 -409V-26C656 58 668 58 762 58C808 58 862 57 877 56C914 54 932 43 956 -4C957 -6 958 -8 958 -9C958 -12 956 -15 952 -18C925 -34 918 -48 912 -143H897C894 1 891 8 856 14C844 16 820 18 793 18C708 18 700 16 700 -29V-460H832C831 -390 828 -257 826 -236C824 -213 818 -201 777 -201C760 -201 737 -203 706 -207V-192C767 -175 781 -160 784 -144C786 -135 788 -131 792 -131C794 -131 796 -132 799 -133C852 -159 869 -179 870 -224C871 -265 872 -382 873 -450L897 -470C903 -475 905 -477 905 -480C905 -482 903 -484 898 -486L839 -520L816 -482H710ZM561 -450C523 -188 455 -64 255 76L261 89C478 -31 546 -137 600 -413C606 -444 614 -455 629 -459C635 -460 638 -463 638 -465C638 -468 635 -472 628 -476L574 -510L550 -471H456C462 -488 470 -511 478 -535C482 -546 492 -555 512 -559C516 -560 519 -562 519 -564C519 -566 517 -569 513 -571L452 -605C425 -491 372 -337 316 -226L327 -220C354 -261 374 -291 390 -320C419 -294 434 -271 442 -239C446 -224 451 -221 460 -221C474 -221 489 -239 489 -261C489 -291 465 -311 399 -338C416 -369 430 -402 448 -450ZM414 -749C402 -674 387 -646 356 -622C345 -613 339 -604 339 -597C339 -588 351 -581 365 -581C405 -581 425 -623 429 -669H858L804 -579L815 -571C882 -645 908 -662 943 -666C950 -667 955 -668 955 -671C955 -674 951 -677 944 -683L881 -732L851 -691H431C431 -708 430 -728 428 -749Z"/>
</svg>