<svg xmlns="http://www.w3.org/2000/svg" viewBox="0 -1000 1000 1000">
	<path fill="#000000" d="M88 -779C90 -748 91 -700 91 -676V-226C91 -191 89 -35 89 -3C89 9 92 15 98 15C98 15 140 1 140 -24V-111H297V-53C297 -41 298 -35 303 -35C307 -35 313 -38 322 -44C339 -54 343 -60 343 -73C343 -103 341 -236 341 -263V-686L369 -705C373 -708 375 -711 375 -714C375 -717 373 -721 369 -724L309 -772L282 -730H148ZM297 -340H140V-520H297ZM140 -133V-318H297V-133ZM140 -708H297V-542H140ZM979 13C849 -43 786 -89 738 -193C854 -263 875 -270 901 -273C908 -274 912 -276 912 -280C912 -283 910 -287 906 -291L854 -342C818 -293 789 -262 730 -212C710 -264 692 -329 674 -416C700 -424 703 -425 703 -428C703 -430 700 -433 694 -435L624 -467C624 -125 587 -64 324 71L327 86C596 -18 658 -87 667 -367C696 -128 737 -67 875 51C883 58 890 57 892 50C897 33 905 26 931 26C943 26 958 27 979 30ZM515 -342C496 -263 475 -241 444 -219C418 -200 407 -185 407 -174C407 -161 424 -151 441 -151C454 -151 467 -156 480 -166C509 -189 528 -235 532 -341ZM699 -794C705 -797 707 -800 707 -803C707 -806 704 -809 696 -812L624 -842C624 -575 599 -522 366 -382L369 -367C542 -453 612 -507 643 -598C773 -519 820 -477 857 -426C867 -412 878 -405 888 -405C900 -405 914 -418 914 -438C914 -494 797 -548 729 -578C850 -669 861 -673 888 -677C896 -678 899 -682 899 -686C899 -690 897 -694 892 -697L833 -735C797 -681 774 -648 712 -585C693 -594 672 -603 648 -613C661 -657 666 -710 670 -778ZM502 -736C481 -643 469 -624 427 -594C414 -585 405 -572 405 -561C405 -550 415 -534 434 -534C444 -534 456 -538 469 -546C500 -564 515 -600 521 -736Z"/>
</svg>