<svg xmlns="http://www.w3.org/2000/svg" viewBox="0 -1000 1000 1000">
	<path fill="#000000" d="M96 -797C98 -767 99 -734 99 -698V-208C99 -153 98 -67 96 -10V-2C96 15 98 21 105 21C109 21 115 19 123 15C141 6 144 2 144 -19V-100H285V-48C285 -40 286 -36 292 -36C296 -36 302 -38 311 -41C331 -50 335 -54 335 -68V-74C332 -117 330 -177 330 -250V-711L356 -727C362 -731 364 -733 364 -736C364 -739 362 -742 356 -746L297 -789L268 -748H153ZM285 -335H144V-521H285ZM144 -120V-315H285V-120ZM144 -728H285V-541H144ZM404 -372C450 -336 473 -300 480 -270C485 -246 495 -237 505 -237C522 -237 533 -252 533 -273C533 -301 524 -338 410 -380ZM524 -621C501 -621 477 -622 451 -625L479 -588C496 -595 525 -599 546 -599H781L775 -475H424C401 -475 377 -476 351 -479L379 -442C396 -449 425 -453 446 -453H630V-272L366 -89L411 -53C415 -50 418 -48 421 -48C423 -48 426 -50 428 -54C439 -73 463 -100 501 -131L630 -250V-22C630 1 626 11 594 11C573 11 538 7 484 -2L482 12C561 31 581 48 587 76C588 81 590 83 594 83C596 83 598 82 600 81C668 51 675 39 675 -5V-405C712 -243 763 -141 877 -42C879 -40 882 -39 884 -39C886 -39 888 -40 890 -42C901 -58 920 -67 957 -67C964 -67 971 -67 979 -66L982 -80C873 -114 824 -153 764 -246C867 -316 886 -325 913 -330C922 -332 926 -334 926 -337C926 -339 923 -343 918 -348L874 -392C838 -346 804 -309 755 -261C729 -307 703 -377 683 -453H956C965 -453 969 -454 969 -458C969 -460 966 -465 960 -471L906 -526L867 -475H821L833 -732L868 -751C873 -753 875 -756 875 -759C875 -761 873 -764 868 -768L807 -818L772 -774H495C472 -774 447 -775 422 -778L450 -741C467 -748 496 -752 517 -752H788L782 -621Z"/>
</svg>