<svg xmlns="http://www.w3.org/2000/svg" viewBox="0 -1000 1000 1000">
	<path fill="#000000" d="M888 -111L850 -57H729V-247H908C917 -247 921 -248 921 -251C921 -253 918 -257 911 -263L849 -321L810 -270H729V-434H901C910 -434 915 -435 915 -438C915 -440 912 -444 906 -450L847 -509L809 -457H729V-613H926C935 -613 939 -614 939 -617C939 -619 936 -623 930 -629L868 -694L828 -636H520V-656C538 -687 553 -716 565 -739C582 -771 587 -775 603 -782C611 -786 615 -788 615 -791C615 -795 611 -799 602 -805L550 -845C509 -712 417 -519 358 -413L368 -404C395 -441 435 -507 474 -574V-119C474 -67 473 -14 471 45V56C471 73 472 80 478 80C479 80 524 63 524 42C524 30 521 -23 521 -34H947C954 -34 958 -35 958 -37C958 -40 955 -43 949 -49ZM520 -270V-434H683V-270ZM520 -457V-613H683V-457ZM520 -57V-247H683V-57ZM307 -783L279 -739H151L96 -790C98 -757 99 -731 99 -687V-86C99 -52 98 21 96 40V43C96 48 97 51 100 51C102 51 147 33 147 15V11C145 -7 145 -31 145 -80H291V-17C291 -3 292 3 297 3C299 3 340 -17 340 -33V-36C338 -58 337 -80 337 -108V-703L367 -721C371 -723 373 -725 373 -727C373 -730 370 -733 364 -737ZM145 -331V-503H291V-331ZM145 -525V-717H291V-525ZM145 -102V-309H291V-102ZM648 -836C700 -779 720 -729 721 -691C721 -673 729 -669 738 -669C757 -669 772 -691 772 -719C772 -726 771 -733 769 -740C762 -766 720 -807 655 -844Z"/>
</svg>