<svg xmlns="http://www.w3.org/2000/svg" viewBox="0 -1000 1000 1000">
	<path fill="#000000" d="M95 -809C97 -778 98 -730 98 -706V-205C98 -148 97 -100 95 -41V-36C95 -25 97 -20 105 -20C109 -20 115 -22 123 -25C138 -31 142 -35 142 -50V-127H294V-71C294 -62 295 -58 301 -58C305 -58 310 -60 319 -64C340 -75 344 -79 344 -91V-96C341 -141 339 -175 339 -251V-731C366 -746 369 -747 369 -751C369 -754 367 -756 363 -759L304 -805L277 -764H152ZM294 -373H142V-549H294ZM142 -149V-351H294V-149ZM142 -742H294V-571H142ZM500 -647V-765H783V-647ZM500 -510V-625H783V-510ZM452 -837C454 -813 455 -779 455 -733V-552C455 -518 454 -484 452 -465C451 -457 451 -451 451 -446C451 -437 453 -433 459 -433C465 -433 475 -437 492 -445C500 -449 500 -453 500 -488H783C783 -456 783 -452 790 -452C794 -452 800 -454 810 -459C830 -469 835 -472 835 -483C835 -486 834 -489 834 -493C830 -538 829 -564 829 -622V-744L857 -760C863 -763 865 -765 865 -768C865 -771 863 -774 857 -778L800 -825L772 -787H517ZM627 -17C560 -33 518 -70 466 -173C474 -197 482 -223 490 -253C516 -265 519 -267 519 -272C519 -274 516 -277 510 -280L445 -306C425 -130 396 -65 247 61L254 73C373 -1 420 -49 457 -150C530 27 608 39 869 56H877C886 56 888 55 890 49C895 33 916 20 978 6V-8C913 -2 859 0 811 0C757 0 712 -3 673 -9V-190H896C906 -190 910 -191 910 -194C910 -197 907 -201 900 -208L843 -269L806 -212H673V-351H960C968 -351 972 -352 972 -354C972 -356 969 -360 965 -364L905 -427L862 -373H421C391 -373 377 -373 358 -376L387 -343C398 -347 413 -351 439 -351H627Z"/>
</svg>