<svg xmlns="http://www.w3.org/2000/svg" viewBox="0 -1000 1000 1000">
	<path fill="#000000" d="M201 -500C203 -469 204 -423 204 -396V-120C204 -68 203 -23 201 36V42C201 53 203 57 210 57C214 57 220 56 229 52C246 45 248 39 248 27V-29H424C424 5 424 8 430 8C433 8 439 7 447 3C467 -5 473 -10 473 -23C473 -25 472 -28 472 -31C469 -63 467 -98 467 -148V-413L495 -429C499 -431 502 -434 502 -436C502 -439 499 -441 494 -445L434 -489L406 -449H343L356 -573H498C505 -573 508 -574 508 -577C508 -579 506 -583 500 -588L437 -647L399 -594H358L366 -665C395 -680 399 -681 399 -685C399 -688 397 -690 393 -692L321 -730C322 -684 321 -638 317 -594H233C210 -594 185 -595 160 -598L188 -562C205 -569 234 -573 255 -573H314L302 -449H257ZM424 -189H248V-301H424ZM248 -48V-168H424V-48ZM248 -428H424V-322H248ZM823 -423C805 -307 778 -223 742 -165C693 -246 667 -301 635 -423ZM982 10C899 -9 815 -73 768 -129C802 -179 842 -271 868 -384C872 -402 881 -410 898 -416C908 -420 912 -422 912 -426C912 -429 908 -434 899 -440L842 -481L817 -444H637C645 -489 651 -539 656 -595H933C943 -595 948 -596 948 -600C948 -603 944 -608 938 -616L889 -674L839 -616H658C661 -643 665 -696 667 -743C668 -761 672 -769 688 -776C699 -781 705 -784 705 -788C705 -791 700 -794 691 -799L616 -837C617 -755 616 -698 610 -616H553C538 -616 519 -617 494 -620L522 -584C550 -595 558 -595 609 -595C586 -298 519 -56 433 68L444 80C532 -28 580 -144 625 -379C647 -279 685 -185 719 -130C654 -38 584 15 483 68L489 82C600 37 672 -11 743 -97C807 -11 879 44 888 44C891 44 895 42 898 37C906 26 921 21 946 21C956 21 968 22 981 23ZM730 -787C778 -750 803 -711 809 -678C813 -658 819 -654 829 -654C845 -654 864 -673 864 -697C864 -728 837 -754 735 -797ZM460 -835C363 -796 260 -763 159 -746L103 -800C105 -763 106 -719 106 -668V-502C106 -149 88 -36 25 73L40 81C125 -33 151 -174 151 -504V-726C235 -732 307 -745 413 -765C430 -768 445 -770 460 -770C476 -770 490 -768 504 -765C506 -765 507 -764 508 -764C511 -764 512 -765 512 -767C512 -769 511 -772 508 -775Z"/>
</svg>