<svg xmlns="http://www.w3.org/2000/svg" viewBox="0 -1000 1000 1000">
	<path fill="#000000" d="M281 -746L254 -707H136L79 -752C81 -721 82 -673 82 -649V-174C82 -117 81 -74 78 -27V-21C78 -13 79 -9 85 -9C89 -9 96 -11 105 -15C124 -23 126 -26 126 -40V-144H269V-70C269 -61 270 -56 277 -56C281 -56 287 -58 296 -63C314 -72 317 -76 317 -89V-97C314 -142 313 -182 313 -258V-671L337 -688C342 -692 345 -695 345 -698C345 -701 342 -704 336 -708ZM126 -340V-502H269V-340ZM126 -522V-687H269V-522ZM126 -164V-320H269V-164ZM964 4C833 -9 739 -30 660 -72C711 -111 759 -160 804 -223C813 -236 835 -251 858 -259C864 -261 866 -263 866 -265C866 -267 865 -269 861 -272L799 -317L765 -285H646V-403H800V-367C800 -358 801 -353 807 -353C812 -353 849 -365 849 -383C849 -385 848 -387 848 -390C845 -417 844 -437 844 -462V-693L879 -712C883 -714 886 -716 886 -718C886 -720 884 -722 880 -724L815 -767L792 -729H725C702 -729 689 -730 672 -733L700 -697C717 -704 729 -708 747 -708H800V-579H739C716 -579 700 -581 675 -583L703 -548C720 -555 740 -559 761 -559H800V-423H646V-781L674 -800C678 -803 679 -804 679 -806C679 -808 678 -810 674 -812L598 -866C600 -829 602 -778 602 -721V-423H449V-559H566C573 -559 576 -560 576 -562C576 -564 574 -567 569 -572L524 -617L494 -579H449V-705C509 -728 539 -733 557 -733C560 -733 571 -732 574 -732C577 -732 578 -732 578 -734C578 -735 577 -737 575 -739L533 -787C502 -759 477 -742 448 -727L403 -760C405 -726 406 -703 406 -665V-454C406 -421 405 -385 403 -358V-354C403 -347 404 -344 409 -344C413 -344 419 -346 427 -350C447 -360 449 -363 449 -375V-403H602V-285H406C383 -285 359 -286 336 -288L364 -256C380 -261 401 -265 426 -265C478 -182 527 -120 590 -71C507 -14 397 32 237 79L239 93C392 62 517 27 625 -46C688 -3 764 29 864 60H867C870 60 873 59 875 56C893 26 906 18 964 17ZM767 -265C727 -196 681 -142 621 -94C559 -135 506 -189 448 -265Z"/>
</svg>