<svg xmlns="http://www.w3.org/2000/svg" viewBox="0 -1000 1000 1000">
	<path fill="#000000" d="M803 -591V-560C803 -552 804 -548 809 -548C814 -548 852 -560 852 -577V-581C849 -606 848 -623 848 -650V-742L875 -760C880 -763 882 -766 882 -769C882 -772 880 -775 876 -777L816 -819L789 -780H239L184 -825C186 -796 187 -760 187 -727V-627C187 -617 185 -571 185 -564C185 -556 186 -552 191 -552C195 -552 201 -554 210 -558C231 -567 231 -572 231 -591ZM440 -613V-757H593V-613ZM231 -613V-757H396V-613ZM803 -757V-613H638V-757ZM294 -211V-305H715V-211ZM500 -189C611 -47 705 16 861 64C864 65 867 66 869 66C873 66 875 64 878 59C894 31 911 20 971 15V1C853 0 756 -20 669 -70C791 -120 829 -132 854 -132C858 -132 874 -130 877 -130C880 -130 882 -131 882 -133C882 -134 880 -137 877 -140L823 -190C777 -158 697 -108 646 -83C602 -110 560 -145 520 -189H715C715 -167 715 -165 721 -165C726 -165 767 -176 767 -192C767 -197 762 -248 762 -258V-294L789 -311C795 -315 797 -317 797 -319C797 -322 795 -324 790 -327L724 -369L694 -327H308L244 -373C246 -344 247 -304 247 -275V-228C247 -218 245 -174 245 -164C245 -156 246 -152 252 -152C256 -152 263 -155 273 -159C292 -167 294 -169 294 -189H420C312 -106 207 -53 33 7L40 20C145 -4 234 -33 318 -77V-33C318 -3 305 23 277 38L323 83C326 86 329 88 332 88C335 88 337 86 341 82C367 54 396 36 570 -47L565 -60L365 8V-102C408 -128 451 -156 493 -189ZM485 -407H133C111 -407 86 -409 63 -411L90 -375C105 -381 134 -385 154 -385H940C951 -385 956 -386 956 -390C956 -393 952 -398 945 -406L893 -461L847 -407H531V-477H843C853 -477 858 -479 858 -482C858 -486 855 -490 848 -497L798 -549L759 -501H531V-512L560 -529C566 -532 569 -536 569 -539C569 -542 565 -545 559 -548L482 -579C484 -553 485 -529 485 -501H229C206 -501 180 -503 156 -505L184 -467C200 -473 230 -477 251 -477H485Z"/>
</svg>