<svg xmlns="http://www.w3.org/2000/svg" viewBox="0 -1000 1000 1000">
	<path fill="#000000" d="M403 12C403 41 403 44 410 44C414 44 420 42 429 38C447 30 453 26 453 14C453 12 452 9 452 6C449 -27 447 -60 447 -114V-267L474 -286C478 -289 479 -291 479 -293C479 -295 478 -298 474 -300L418 -342L392 -303H188L125 -352C127 -323 128 -278 128 -256V-94C128 -42 127 -9 125 39V48C125 62 127 68 134 68C139 68 146 66 156 62C171 56 172 52 172 12ZM403 -107H172V-184H403ZM403 -88V-7H172V-88ZM172 -284H403V-203H172ZM800 -355C778 -252 751 -184 711 -127C659 -193 623 -267 611 -355ZM975 11C877 0 803 -31 741 -94C781 -146 811 -212 851 -335L887 -353C893 -356 895 -358 895 -361C895 -363 893 -366 888 -369L822 -416L795 -377H572C556 -377 542 -378 517 -380L546 -349C555 -352 572 -354 589 -355C604 -240 635 -154 682 -91C627 -28 554 19 400 79V93C497 82 640 12 710 -59C775 9 871 61 877 61C880 61 882 59 884 57C896 36 918 25 974 25ZM398 -446L356 -402H201C179 -402 154 -404 131 -406L158 -370C173 -376 202 -380 222 -380H442C451 -380 456 -381 456 -385C456 -388 452 -393 446 -399ZM108 -537C108 -476 93 -448 59 -416C47 -405 42 -394 42 -386C42 -373 55 -362 70 -362C110 -362 133 -413 130 -480H492L460 -409L473 -403C517 -460 533 -473 563 -484C569 -487 573 -489 573 -492C573 -494 570 -497 564 -500L510 -530L488 -502H128C126 -514 124 -527 120 -539ZM776 -745V-532C776 -467 805 -467 879 -467C906 -467 936 -468 958 -470C964 -471 966 -472 966 -475C966 -483 930 -523 925 -523C923 -523 920 -522 917 -521C899 -514 880 -510 865 -510C840 -510 822 -519 822 -536V-733L857 -752C862 -755 864 -757 864 -759C864 -761 862 -763 858 -765L793 -807L765 -767H659L601 -811C602 -770 603 -733 603 -701C603 -506 580 -469 515 -404L519 -393C625 -462 645 -503 649 -745ZM277 -596H147C125 -596 99 -597 77 -600L104 -564C119 -570 148 -574 168 -574H515C524 -574 529 -575 529 -579C529 -582 525 -587 519 -593L471 -640L429 -596H323V-692H540C550 -692 556 -693 556 -697C556 -700 552 -704 545 -711L497 -756L459 -714H323V-782C328 -785 357 -804 357 -807C357 -810 354 -812 348 -816L274 -857C276 -822 277 -798 277 -759V-714H108C85 -714 65 -715 35 -718L63 -682C79 -688 109 -692 130 -692H277Z"/>
</svg>