<svg xmlns="http://www.w3.org/2000/svg" viewBox="0 -1000 1000 1000">
	<path fill="#000000" d="M87 -787C89 -756 90 -708 90 -684V-202C90 -166 88 -8 88 24C88 35 89 39 94 39C97 39 102 36 110 31C131 17 134 12 134 0V-87H278V-29C278 -17 279 -11 284 -11C289 -11 324 -26 324 -50V-55C322 -98 322 -156 322 -239V-694L350 -713C355 -716 357 -719 357 -722C357 -725 355 -728 350 -732L290 -780L263 -738H142ZM278 -326H134V-506H278ZM134 -109V-304H278V-109ZM134 -716H278V-528H134ZM467 -234V-323H811V-234ZM421 -480C423 -446 424 -414 424 -377V-219C424 -169 423 -124 421 -93C421 -88 420 -83 420 -80C420 -68 422 -63 428 -63C432 -63 438 -66 447 -70C464 -78 467 -84 467 -116H811C812 -97 814 -90 822 -90C826 -90 831 -91 838 -94C854 -100 859 -104 859 -117C859 -120 858 -124 858 -128C855 -160 854 -192 854 -235V-400C860 -403 889 -421 889 -424C889 -426 887 -428 883 -431L821 -471L796 -433H484ZM467 -132V-218H811V-132ZM467 -339V-417H811V-339ZM400 -780C402 -751 403 -733 403 -710V-616C403 -609 401 -579 401 -573C401 -565 402 -561 408 -561C412 -561 418 -563 427 -567C446 -576 446 -579 446 -607H613V-523H420C397 -523 372 -524 347 -527L375 -493C392 -500 421 -504 442 -504H957C966 -504 970 -507 970 -511C970 -515 968 -519 962 -524L902 -577L858 -523H656V-607H827C827 -573 827 -570 835 -570C839 -570 845 -571 854 -575C869 -581 872 -584 872 -595C872 -597 870 -641 870 -650V-708C903 -728 904 -728 904 -732C904 -735 902 -737 898 -739L837 -779L810 -741H656V-793C685 -810 688 -812 688 -816C688 -820 684 -824 675 -828L609 -862C611 -828 613 -780 613 -741H457ZM613 -625H446V-723H613ZM656 -625V-723H827V-625ZM552 -87C487 -30 379 33 290 74L295 87C370 64 440 37 554 -20C579 -33 592 -37 612 -35C618 -34 621 -36 621 -39C621 -42 619 -44 615 -47ZM683 -73C794 -26 851 7 885 44C907 67 913 69 921 69C935 69 947 50 947 31C947 25 946 19 943 14C924 -24 868 -48 687 -85Z"/>
</svg>