<svg xmlns="http://www.w3.org/2000/svg" viewBox="0 -1000 1000 1000">
	<path fill="#000000" d="M461 -359C468 -367 473 -374 479 -382C499 -407 507 -414 520 -418C528 -421 531 -423 531 -425C531 -427 529 -429 523 -432L476 -457C430 -370 404 -329 321 -223V-702C347 -716 350 -718 350 -722C350 -725 349 -727 345 -730L286 -776L259 -735H139L82 -780C84 -749 85 -701 85 -677V-176C85 -119 84 -71 82 -12V-7C82 4 84 9 92 9C96 9 102 7 110 4C125 -2 129 -6 129 -21V-98H276V-42C276 -33 277 -29 283 -29C287 -29 292 -31 301 -35C322 -46 326 -49 326 -62V-67C323 -110 321 -138 321 -207C359 -243 389 -274 420 -310V-74C420 -12 420 17 417 63C417 67 416 71 416 73C416 81 418 85 422 85C426 85 432 82 440 78C458 69 461 63 461 47V13H947C956 13 960 12 960 8C960 5 957 1 950 -5L897 -55L858 -5H693V-112H879C889 -112 893 -113 893 -116C893 -119 890 -123 883 -130L842 -172L806 -130H693V-226H880C889 -226 894 -228 894 -231C894 -235 890 -239 884 -245L844 -282L814 -244H693V-338H913C923 -338 928 -339 928 -343C928 -345 924 -350 917 -357L872 -400L836 -356H461ZM276 -340H129V-520H276ZM129 -120V-318H276V-120ZM129 -713H276V-542H129ZM649 -130H461V-226H649ZM461 -5V-112H649V-5ZM649 -244H461V-338H649ZM618 -688H412C412 -700 411 -713 410 -726L399 -727C394 -665 379 -624 357 -605C336 -587 331 -578 331 -571C331 -563 340 -555 354 -555C402 -555 412 -615 412 -670H618V-610C618 -565 618 -529 617 -513V-506C617 -491 619 -485 627 -485C631 -485 636 -487 643 -489C658 -494 663 -500 663 -514V-518C662 -532 661 -562 661 -607V-670H886L857 -587L866 -585C900 -638 923 -652 960 -659C966 -660 969 -661 969 -664C969 -666 967 -668 962 -672L904 -716L878 -688H661V-763H877C886 -763 890 -764 890 -767C890 -770 887 -774 880 -781L830 -831L793 -781H486C465 -781 444 -782 422 -785L447 -753C462 -759 487 -763 506 -763H618ZM850 -594H718V-576H850ZM584 -507H437V-489H584ZM583 -593H437V-575H583ZM607 -459C634 -441 653 -413 659 -386C663 -368 666 -363 684 -363C695 -363 707 -371 707 -387C707 -414 660 -452 614 -470ZM857 -509H717V-491H857Z"/>
</svg>