<svg xmlns="http://www.w3.org/2000/svg" viewBox="0 -1000 1000 1000">
	<path fill="#000000" d="M495 -677C453 -584 424 -532 369 -459L380 -453C403 -475 421 -493 437 -512V-396C437 -330 436 -288 434 -258V-250C434 -241 435 -238 441 -238C444 -238 450 -240 457 -243C476 -251 477 -255 477 -284H947C956 -284 961 -286 961 -289C961 -293 958 -297 951 -304L906 -349L873 -304H705V-383H901C910 -383 915 -385 915 -389C915 -392 911 -397 905 -403L864 -444L831 -403H705V-473H899C910 -473 915 -474 915 -478C915 -481 911 -486 903 -493L861 -533L832 -493H705V-562H916C927 -562 932 -563 932 -567C932 -570 928 -576 920 -583L879 -626L848 -583H489C493 -588 497 -595 500 -600C509 -619 527 -635 536 -638C543 -640 547 -642 547 -645C547 -647 544 -650 539 -653ZM662 -403H477V-473H662ZM477 -304V-383H662V-304ZM662 -493H477V-562H662ZM802 -243L780 -220H445C422 -220 397 -221 372 -224L400 -189C427 -200 460 -200 491 -200C530 -137 561 -95 607 -62C524 -13 425 22 280 64L283 78C432 51 543 20 643 -39C696 -9 768 14 880 45C882 45 884 46 885 46C890 46 894 43 897 39C910 18 928 2 977 -3V-16C848 -20 755 -34 683 -63C727 -94 771 -131 816 -177C824 -186 842 -193 850 -194C858 -195 862 -196 862 -199C862 -201 859 -204 853 -208ZM773 -200C728 -152 687 -115 640 -83C590 -111 550 -149 512 -200ZM711 -725C711 -717 710 -682 710 -675C710 -667 711 -663 716 -663C720 -663 725 -665 732 -668C750 -676 754 -679 754 -688C754 -694 753 -720 753 -725H938C949 -725 954 -726 954 -730C954 -733 950 -738 942 -745L888 -792L855 -745H753V-791L775 -805C779 -807 780 -809 780 -812C780 -814 778 -817 772 -819L709 -843C711 -816 711 -802 711 -745H558V-789L579 -804C582 -806 584 -808 584 -811C584 -813 581 -816 576 -818L514 -841C516 -814 516 -798 516 -745H451C428 -745 403 -747 378 -749L406 -714C423 -721 452 -725 473 -725H516C516 -719 515 -693 515 -688C515 -681 517 -678 522 -678C533 -678 559 -684 559 -700C559 -704 558 -721 558 -725ZM612 -686C646 -658 664 -631 667 -609C669 -594 676 -588 687 -588C705 -588 716 -605 716 -621C716 -654 658 -680 617 -695ZM184 -849C160 -723 104 -559 36 -440L49 -432C83 -476 123 -545 167 -642H215C215 -558 214 -479 212 -401H107C84 -401 63 -402 34 -405L62 -368C79 -375 108 -379 129 -379H212C205 -204 150 -74 26 57L37 67C166 -48 211 -107 245 -270C300 -210 323 -152 330 -92C333 -65 338 -59 347 -59C366 -59 383 -83 383 -111C383 -127 379 -193 249 -287C253 -310 256 -342 258 -379H403C411 -379 415 -380 415 -383C415 -386 413 -390 408 -395L355 -453L313 -401H259C262 -466 264 -549 264 -642H386C393 -642 397 -643 397 -646C397 -648 395 -651 391 -656L336 -718L297 -664H176C191 -697 205 -732 220 -770C225 -782 238 -793 251 -798C255 -800 257 -802 257 -804C257 -805 256 -807 253 -809Z"/>
</svg>