<svg xmlns="http://www.w3.org/2000/svg" viewBox="0 -1000 1000 1000">
	<path fill="#000000" d="M164 -121V-424H290V-121ZM28 -266C64 -308 94 -349 120 -398V-128C120 -84 119 -48 117 -10V2C117 16 119 21 126 21C130 21 136 20 144 16C161 9 164 3 164 -9V-99H290V-38C290 -28 292 -22 297 -22C301 -22 308 -25 317 -31C335 -42 339 -46 339 -59V-65C337 -110 336 -160 336 -211V-407C348 -414 366 -426 366 -429C366 -432 364 -435 358 -439L304 -481L279 -446H159L147 -452C197 -559 226 -627 247 -695H381C388 -695 391 -697 391 -701C391 -703 389 -707 385 -712L336 -764L300 -717H105C82 -717 57 -718 32 -721L60 -684C77 -691 106 -695 127 -695H192C153 -538 99 -411 18 -275ZM401 -721C447 -690 461 -654 469 -609C473 -585 479 -574 496 -574C514 -574 526 -591 526 -612C526 -618 526 -689 408 -731ZM541 -550L516 -513H401C385 -513 363 -514 344 -518L370 -478C382 -486 398 -491 417 -491H511C475 -259 439 -154 363 -23L377 -6C467 -130 509 -233 544 -418C549 -445 562 -462 584 -475C593 -480 597 -484 597 -488C597 -491 595 -495 591 -499ZM980 -99C907 -125 851 -181 757 -430C794 -475 846 -535 888 -579C904 -596 913 -602 928 -602C931 -602 940 -601 942 -601C946 -601 948 -603 948 -606C948 -608 947 -612 943 -616L884 -678C845 -605 792 -519 748 -453C713 -549 695 -601 677 -699V-767C699 -791 701 -794 701 -799C701 -804 697 -808 690 -812L628 -847C631 -801 634 -735 634 -685V-66C634 -30 623 -9 574 -9C555 -9 530 -12 498 -19L496 -4C562 12 588 30 593 65C594 71 597 74 603 74C607 74 613 72 620 68C659 46 677 21 677 -58V-605C722 -370 789 -198 867 -81C871 -75 876 -72 880 -72C884 -72 887 -74 891 -77C899 -84 914 -89 934 -89C946 -89 959 -87 973 -84Z"/>
</svg>