<svg xmlns="http://www.w3.org/2000/svg" viewBox="0 -1000 1000 1000">
	<path fill="#000000" d="M966 -415C849 -422 773 -454 710 -505C755 -553 777 -587 822 -670C837 -697 853 -713 870 -717C878 -719 882 -721 882 -724C882 -727 879 -730 873 -736L818 -789L787 -750H548C520 -750 497 -751 475 -754L503 -717C526 -728 546 -728 564 -728C586 -618 614 -550 655 -504C585 -430 549 -406 429 -341L433 -327C560 -375 611 -404 682 -476C729 -431 774 -404 859 -364C861 -363 863 -362 865 -362C868 -362 870 -364 872 -366C888 -391 907 -398 966 -403ZM796 -728C754 -631 719 -576 680 -531C637 -578 607 -645 584 -728ZM446 -741L419 -705H277L316 -794C328 -801 346 -812 346 -815C346 -818 344 -820 338 -823L280 -856C264 -799 249 -751 233 -705H120C93 -705 69 -706 47 -710L78 -676C97 -683 123 -686 144 -686H226C208 -637 188 -587 162 -525C230 -511 278 -496 316 -480C261 -421 181 -371 56 -320L60 -308C193 -344 300 -404 354 -461C380 -446 399 -431 420 -411C437 -395 447 -387 455 -387C465 -387 475 -400 475 -418C475 -459 433 -479 382 -496C413 -538 432 -571 463 -646C470 -664 482 -677 494 -680C502 -682 506 -684 506 -687C506 -690 503 -693 497 -698ZM426 -686C403 -609 378 -558 341 -510C302 -521 256 -532 206 -541L269 -686ZM339 -22V-163H740V-22ZM51 3C138 -37 209 -85 295 -155V-43C295 -10 294 25 291 52V58C291 63 292 65 296 65C300 65 308 62 320 56C337 47 339 44 339 32V0H740V43C740 53 742 58 748 58C752 58 758 56 765 52C785 42 790 38 790 27C790 25 789 22 789 19C787 0 786 -26 786 -55V-150L810 -165C815 -168 817 -170 817 -173C817 -176 815 -178 810 -182L756 -224L727 -185H339V-193C366 -219 398 -252 432 -289H893C900 -289 903 -290 903 -294C903 -296 901 -300 895 -306L846 -356L808 -311H179C156 -311 131 -313 106 -315L134 -278C151 -285 180 -289 201 -289H372C285 -187 174 -90 45 -10Z"/>
</svg>