<svg xmlns="http://www.w3.org/2000/svg" viewBox="0 -1000 1000 1000">
	<path fill="#000000" d="M312 -787L282 -753H113C90 -753 65 -755 40 -757L68 -720C85 -727 114 -731 135 -731H205C176 -579 112 -390 41 -262L53 -254C83 -294 115 -350 141 -407V-133C141 -89 140 -56 138 -15C138 -9 137 -4 137 0C137 12 139 17 146 17C150 17 157 15 166 11C183 4 186 -2 186 -14V-101H283V-51C283 -42 284 -38 290 -38C294 -38 300 -40 310 -44C328 -52 332 -57 332 -71V-78C329 -122 329 -173 329 -224V-441C337 -449 350 -463 350 -466C350 -469 348 -471 344 -473L295 -502L268 -468H167C209 -573 238 -659 258 -731H347C353 -731 355 -732 355 -734C355 -736 354 -739 350 -743ZM186 -123V-446H283V-123ZM679 -797L641 -754H445C422 -754 397 -756 372 -758L400 -721C409 -725 422 -728 435 -730V-447C413 -447 387 -449 363 -451L391 -414C402 -419 419 -422 435 -424C435 -176 419 -65 269 79L278 89C425 -27 480 -118 480 -425H580V-181C580 -124 579 -41 577 18V30C577 45 578 50 585 50C589 50 596 48 605 44C626 35 629 31 629 18V10C626 -35 625 -98 625 -179V-425H723C729 -425 732 -426 732 -429C732 -431 730 -435 726 -439L676 -491L639 -447H625V-732H732C740 -732 743 -733 743 -735C743 -737 741 -741 736 -745ZM480 -447V-732H580V-447ZM740 -700C741 -667 743 -608 743 -571V-355C743 -304 742 -256 740 -203V-193C740 -179 741 -173 748 -173C752 -173 759 -176 769 -180C786 -188 789 -191 789 -203V-210C787 -250 787 -285 787 -354V-644L810 -660C812 -661 813 -663 813 -664C813 -666 811 -668 808 -670ZM872 -843C874 -806 875 -757 875 -696V-32C875 -7 872 5 833 5C812 5 779 1 730 -6L728 8C828 27 843 40 848 72C849 78 852 80 855 80C857 80 860 80 863 78C917 52 920 42 920 -15V-782L937 -792C941 -794 943 -797 943 -799C943 -801 941 -803 936 -806Z"/>
</svg>