<svg xmlns="http://www.w3.org/2000/svg" viewBox="0 -1000 1000 1000">
	<path fill="#000000" d="M300 76C454 -36 485 -122 486 -536H964C970 -536 973 -538 973 -541C973 -544 971 -547 967 -551L902 -616L863 -559H695C778 -663 796 -677 839 -680C846 -681 849 -682 849 -685C849 -687 847 -690 843 -694L788 -749L753 -713H547C590 -774 603 -784 621 -790C631 -793 636 -796 636 -798C636 -801 632 -804 625 -808L563 -844C511 -723 456 -631 353 -500L363 -490C391 -516 415 -542 440 -572C443 -162 436 -71 290 65ZM754 -691L665 -559H501L454 -590C478 -619 503 -651 531 -691ZM183 -164V-463H292V-164ZM31 -239C65 -282 88 -322 139 -428V-155C139 -111 138 -75 136 -37V-25C136 -11 138 -6 145 -6C149 -6 155 -7 163 -11C181 -19 183 -22 183 -36V-142H292V-55C292 -45 294 -39 299 -39C303 -39 310 -42 319 -48C334 -57 337 -62 337 -74V-82C335 -127 334 -177 334 -228V-446C346 -453 365 -465 365 -468C365 -471 363 -474 357 -478L306 -520L281 -485H166C216 -593 245 -666 259 -721H408C415 -721 418 -723 418 -727C418 -729 416 -733 412 -738L363 -790L327 -743H122C95 -743 72 -744 49 -747L77 -710C94 -717 123 -721 144 -721H205C169 -576 116 -428 21 -248ZM815 -406C815 -300 812 -244 808 -229C805 -217 797 -210 771 -210C752 -210 722 -214 675 -223L671 -210C742 -188 761 -173 767 -147C768 -141 770 -138 774 -138C776 -138 778 -139 781 -140C856 -173 856 -189 858 -388C888 -405 892 -407 892 -412C892 -415 889 -418 884 -422L825 -467L797 -428H636L573 -476C575 -454 575 -425 575 -381V-28C575 27 590 44 756 44C898 44 937 39 966 -24C967 -26 967 -28 967 -29C967 -33 965 -36 958 -39C938 -50 931 -76 933 -179L917 -180C909 -20 891 -10 843 -1C819 3 783 5 749 5C641 5 620 -7 620 -38V-406Z"/>
</svg>