<svg xmlns="http://www.w3.org/2000/svg" viewBox="0 -1000 1000 1000">
	<path fill="#000000" d="M875 -605L844 -562H701C780 -659 816 -684 849 -688C856 -689 859 -690 859 -693C859 -695 857 -697 853 -702L800 -760L761 -722H598C611 -739 625 -757 640 -777C646 -785 662 -794 677 -797C684 -798 687 -800 687 -803C687 -805 685 -807 682 -810L619 -861C566 -742 491 -629 390 -507L400 -497C434 -527 459 -552 490 -587C491 -543 491 -500 491 -461C491 -136 491 -50 296 81L303 96C461 13 523 -73 531 -226H667V-117C667 -62 666 -31 664 3V8C664 15 665 19 670 19C671 19 715 5 715 -15C715 -32 713 -106 713 -121V-226H860V-23C860 -7 858 1 836 1C819 1 788 -4 735 -14L733 1C807 24 823 45 830 72C831 77 834 80 837 80C839 80 841 79 843 78C903 51 906 44 906 -29V-526L936 -541C940 -543 942 -545 942 -547C942 -550 940 -552 937 -555ZM535 -404C536 -446 537 -488 538 -540H667V-404ZM713 -404V-540H860V-404ZM713 -248V-382H860V-248ZM531 -248C533 -300 534 -342 535 -382H667V-248ZM676 -562H544L502 -600C524 -626 550 -658 583 -701H765ZM400 -777L356 -722H127C104 -722 79 -724 54 -726L82 -689C99 -696 128 -700 149 -700H224C194 -528 131 -369 51 -240L61 -231C100 -281 133 -328 174 -411V-161C174 -117 173 -84 171 -43C171 -37 170 -32 170 -28C170 -16 172 -11 179 -11C183 -11 190 -13 199 -17C216 -24 218 -30 218 -42V-140H338V-79C338 -70 339 -65 345 -65C350 -65 356 -67 365 -72C384 -82 389 -86 389 -97C389 -100 388 -103 388 -106C384 -150 383 -174 383 -225V-443L408 -458C411 -460 413 -462 413 -464C413 -466 411 -468 407 -472L350 -521L322 -479H218V-506C240 -559 259 -616 282 -700H460C467 -700 471 -701 471 -703C471 -705 468 -709 464 -713ZM218 -162V-457H338V-162Z"/>
</svg>