<svg xmlns="http://www.w3.org/2000/svg" viewBox="0 -1000 1000 1000">
	<path fill="#000000" d="M847 -760L820 -724H598C646 -802 663 -820 679 -824C683 -825 684 -826 684 -828C684 -830 682 -833 676 -836L620 -866C612 -826 600 -780 577 -724H483L427 -764C429 -736 430 -693 430 -671V-476C430 -423 429 -385 427 -343V-340C427 -331 429 -326 436 -326C440 -326 445 -328 452 -332C472 -343 474 -347 474 -358V-381H592C564 -320 517 -276 441 -214L448 -204C559 -272 603 -312 635 -381H832V-336C832 -328 833 -323 839 -323C843 -323 848 -325 856 -329C875 -339 879 -344 879 -353V-357C876 -399 876 -441 876 -487V-685L904 -704C907 -706 909 -709 909 -712C909 -715 907 -718 903 -721ZM672 -563C675 -602 678 -648 679 -703H832V-563ZM474 -563V-703H633C633 -657 633 -623 629 -563ZM644 -402C656 -434 664 -478 670 -542H832V-402ZM474 -402V-542H627C623 -484 614 -440 601 -402ZM356 -590L316 -536H249V-767L276 -781C282 -784 285 -787 285 -791C285 -794 281 -798 274 -802L200 -841C202 -806 204 -742 204 -703V-536H105C84 -536 61 -538 39 -540L64 -506C79 -512 106 -516 125 -516H204V-173L47 -95L87 -46C92 -40 96 -37 99 -37C102 -37 104 -40 106 -45C112 -60 123 -75 138 -84L394 -251L387 -263L249 -195V-516H402C410 -516 414 -519 414 -523C414 -527 412 -531 406 -537ZM899 -233L852 -175H696V-283L720 -297C723 -299 725 -301 725 -303C725 -306 722 -308 719 -309L649 -342C651 -309 652 -279 652 -242V-175H423C400 -175 375 -177 350 -179L378 -143C395 -150 424 -154 445 -154H652V-80C652 -29 651 26 650 79C650 92 652 98 658 98C660 98 699 83 699 67V64C697 23 696 -10 696 -79V-154H944C952 -154 956 -156 956 -161C956 -165 953 -170 948 -176Z"/>
</svg>