<svg xmlns="http://www.w3.org/2000/svg" viewBox="0 -1000 1000 1000">
	<path fill="#000000" d="M358 -782C363 -439 343 -398 225 -295L231 -284C342 -349 391 -441 399 -565H439C475 -506 518 -458 593 -416C517 -372 423 -332 325 -306L327 -291C429 -307 540 -350 628 -398C723 -352 863 -317 873 -317C881 -317 886 -321 890 -327C906 -348 930 -359 969 -366V-377C862 -375 758 -388 666 -421C721 -454 762 -487 782 -514C803 -543 814 -552 835 -559C840 -561 843 -563 843 -565C843 -568 841 -571 837 -574L787 -618L758 -587H652V-712H845L812 -652L822 -644C869 -692 900 -711 923 -714C930 -715 933 -717 933 -720C933 -722 931 -724 927 -727L869 -771L838 -734H652V-797C678 -813 681 -815 681 -818C681 -821 679 -823 675 -825L602 -860C604 -833 606 -776 606 -734H420ZM29 21C117 -18 199 -68 278 -131V-32C278 1 277 36 274 63V69C274 74 275 76 279 76C283 76 291 73 303 67C320 58 322 55 322 43V18H768V64C768 73 770 78 776 78C779 78 784 77 791 73C810 64 815 59 815 47V40C813 18 812 -5 812 -34V-131C840 -146 843 -148 843 -153C843 -156 841 -160 836 -163L776 -203L749 -166H319C349 -194 388 -228 413 -253H951C959 -253 964 -256 964 -260C964 -264 961 -268 955 -273L908 -313L878 -275H106C83 -275 58 -277 33 -279L61 -242C78 -249 107 -253 128 -253H344C272 -167 151 -66 23 8ZM762 -565C742 -525 694 -479 627 -436C561 -467 503 -509 458 -565ZM606 -587H400C402 -626 404 -676 405 -712H606ZM322 -4V-144H768V-4ZM329 -720L198 -502C185 -481 176 -470 154 -470C138 -470 114 -476 78 -487L74 -473C146 -450 157 -436 157 -399C157 -388 149 -340 149 -330C149 -302 162 -293 177 -293C198 -293 207 -307 207 -329C207 -339 199 -382 199 -391C199 -418 208 -444 231 -490L342 -712ZM70 -700C111 -666 133 -624 139 -605C147 -580 152 -573 164 -573C179 -573 193 -590 193 -612C193 -619 192 -626 188 -634C177 -656 137 -685 76 -710ZM175 -824C217 -784 232 -755 236 -734C241 -708 246 -699 257 -699C274 -699 288 -716 288 -740C288 -746 287 -752 285 -758C279 -780 250 -805 182 -834Z"/>
</svg>