<svg xmlns="http://www.w3.org/2000/svg" viewBox="0 -1000 1000 1000">
	<path fill="#000000" d="M975 -149C841 -161 720 -230 659 -330H953C963 -330 967 -332 967 -336C967 -339 964 -344 957 -351L897 -413L851 -352H709V-678H945C954 -678 959 -680 959 -684C959 -687 956 -692 949 -699L889 -761L845 -700H709V-775C735 -791 738 -793 738 -798C738 -801 734 -804 726 -808L657 -841C659 -805 661 -741 661 -700H347V-771C373 -788 376 -790 376 -794C376 -798 372 -800 364 -804L296 -834C298 -798 300 -741 300 -700H134C111 -700 86 -702 61 -704L89 -667C106 -674 135 -678 156 -678H300V-352H109C86 -352 61 -354 36 -356L64 -319C81 -326 110 -330 131 -330H348C283 -244 167 -145 27 -60L32 -46C185 -119 315 -220 415 -330H640C687 -234 753 -166 876 -97C880 -95 883 -94 885 -94C888 -94 889 -96 890 -99C901 -121 921 -135 975 -136ZM347 -470V-564H661V-470ZM347 -586V-678H661V-586ZM347 -352V-448H661V-352ZM836 -42L793 13H528V-131H724C734 -131 739 -133 739 -137C739 -140 735 -146 728 -153L679 -203L641 -153H528V-234C555 -251 558 -253 558 -257C558 -261 554 -264 546 -268L476 -303C478 -266 480 -232 480 -191V-153H318C295 -153 270 -155 245 -157L273 -120C290 -127 319 -131 340 -131H480V13H172C149 13 124 11 99 9L127 46C144 39 173 35 194 35H888C899 35 904 34 904 30C904 26 900 21 892 13Z"/>
</svg>