<svg xmlns="http://www.w3.org/2000/svg" viewBox="0 -1000 1000 1000">
	<path fill="#000000" d="M317 -21V-151H752V-21ZM31 11C116 -27 196 -74 272 -135V-24C272 9 271 44 268 71V77C268 82 269 84 273 84C277 84 285 81 297 75C314 66 317 63 317 51V1H752V51C752 61 754 66 760 66C764 66 770 64 778 60C797 51 802 46 802 34V27C800 5 799 -18 799 -47V-138C828 -154 831 -155 831 -160C831 -163 828 -167 823 -170L763 -210L733 -173H317C347 -200 381 -235 406 -263H947C955 -263 960 -265 960 -270C960 -273 957 -278 951 -284L896 -337L852 -285H129C106 -285 80 -286 56 -289L84 -252C101 -259 130 -263 151 -263H340C269 -177 156 -79 25 -2ZM317 -635V-762H681V-635ZM271 -817C273 -801 274 -790 274 -771V-628C274 -619 272 -582 272 -574C272 -568 274 -565 280 -565C284 -565 289 -566 296 -568C314 -574 317 -577 317 -591V-616H681V-580C681 -573 682 -569 687 -569C691 -569 697 -571 706 -575C723 -582 727 -585 727 -592C727 -593 725 -627 725 -634V-745L750 -764C753 -767 755 -769 755 -770C755 -772 753 -774 750 -776L695 -815L675 -783H325ZM812 -368C812 -342 812 -339 819 -339C823 -339 828 -341 837 -345C854 -353 858 -357 858 -365C858 -378 856 -400 856 -413V-496L881 -513C884 -515 886 -517 886 -519C886 -521 884 -523 881 -525L824 -563L802 -530H606L554 -572C556 -558 557 -541 557 -528V-402C557 -393 556 -352 556 -343C556 -333 558 -329 564 -329C568 -329 572 -331 578 -333C599 -341 599 -344 599 -368ZM812 -510V-387H599V-510ZM405 -373C405 -347 405 -345 412 -345C415 -345 421 -346 430 -350C447 -357 450 -360 450 -368C450 -374 449 -401 449 -406V-502L475 -518C478 -520 480 -522 480 -524C480 -525 478 -527 475 -529L420 -566L395 -532H198L146 -572C149 -557 149 -547 149 -531V-386C149 -378 147 -339 147 -333C147 -325 148 -322 153 -322C157 -322 163 -324 171 -327C191 -335 192 -338 192 -349V-373ZM405 -512V-392H192V-512Z"/>
</svg>