<svg xmlns="http://www.w3.org/2000/svg" viewBox="0 -1000 1000 1000">
	<path fill="#000000" d="M192 -135V-425H321V-135ZM43 -230C85 -278 116 -323 148 -379V-149C148 -105 147 -61 145 -20V-15C145 -4 147 1 153 1C161 1 192 -9 192 -30V-113H321V-45C321 -35 322 -30 328 -30C331 -30 337 -33 346 -38C365 -49 368 -53 368 -64V-71C366 -98 365 -138 365 -193V-414C394 -431 397 -433 397 -437C397 -440 395 -443 389 -447L331 -489L303 -447H185C227 -528 257 -604 278 -680H421C429 -680 433 -681 433 -683C433 -685 430 -689 423 -695L368 -756L329 -702H105C79 -702 54 -703 32 -706L60 -669C77 -676 106 -680 127 -680H223C190 -520 132 -396 33 -240ZM482 -247C484 -216 485 -168 485 -144V-48C485 -30 480 49 480 64C480 75 482 79 487 79C492 79 499 76 510 70C527 61 529 57 529 42V1H812V65C812 73 813 77 819 77C827 77 863 67 863 46C863 44 862 41 862 38C859 6 858 -25 858 -56V-167L885 -182C889 -184 891 -186 891 -188C891 -191 888 -194 883 -198L827 -239L799 -204H542ZM529 -21V-182H812V-21ZM601 -838C638 -806 653 -779 665 -729C668 -714 672 -709 684 -709C698 -709 714 -729 714 -750C714 -790 674 -818 610 -848ZM479 -740C473 -688 456 -652 422 -622C407 -609 402 -600 402 -592C402 -577 414 -570 427 -570C436 -570 446 -574 457 -582C478 -599 491 -624 493 -678H865L827 -620L840 -611C882 -655 917 -671 942 -671C957 -671 959 -671 959 -674C959 -677 955 -681 948 -688L895 -735L864 -700H494C494 -712 494 -725 493 -740ZM655 -441H546C523 -441 503 -442 478 -444L509 -410C524 -415 544 -419 565 -419H655V-320H458C435 -320 415 -321 390 -323L420 -290C435 -295 450 -298 476 -298H655C655 -289 653 -248 653 -240C653 -228 655 -223 661 -223C666 -223 672 -225 680 -228C698 -236 702 -239 702 -254C702 -261 701 -292 701 -298H953C960 -298 964 -299 964 -303C964 -305 962 -308 958 -313L904 -372L864 -320H701V-419H871C876 -419 879 -420 879 -423C879 -425 877 -429 873 -434L829 -485L790 -441H701V-539H901C908 -539 912 -540 912 -544C912 -546 910 -549 906 -554L860 -605L825 -561H701V-618C722 -632 725 -633 725 -635C725 -638 723 -639 719 -641L653 -671C655 -638 655 -610 655 -561H543C514 -561 497 -561 476 -563L505 -534C521 -537 537 -539 561 -539H655Z"/>
</svg>