<svg xmlns="http://www.w3.org/2000/svg" viewBox="0 -1000 1000 1000">
	<path fill="#000000" d="M166 -167V-474H257V-167ZM737 -844C715 -726 672 -595 608 -453L584 -476L550 -432H486V-542H614C622 -542 626 -545 626 -549C626 -553 624 -557 619 -562L575 -605L541 -562H486V-667H639C647 -667 652 -670 652 -674C652 -677 649 -682 644 -687L600 -732L564 -687H486V-778C510 -795 513 -797 513 -803C513 -807 509 -810 502 -813L443 -848C445 -817 445 -789 445 -750V-687H362C340 -687 315 -688 292 -691L319 -657C334 -663 363 -667 383 -667H445V-562H388C366 -562 341 -563 318 -566L345 -532C360 -538 389 -542 409 -542H445V-432H365C344 -432 320 -433 298 -436V-463L324 -479C329 -482 331 -485 331 -488C331 -491 329 -495 324 -497L269 -530L242 -496H147C184 -590 201 -643 222 -729H335C341 -729 343 -730 343 -732C343 -734 342 -737 338 -741L300 -785L270 -751H117C94 -751 69 -753 44 -755L72 -718C89 -725 118 -729 139 -729H183C140 -554 103 -453 31 -314L43 -306C73 -347 96 -382 121 -435V-167C121 -129 120 -84 118 -49V-43C118 -32 120 -27 126 -27C130 -27 137 -29 146 -33C163 -40 166 -46 166 -58V-145H257V-95C257 -87 258 -83 263 -83C270 -83 301 -92 301 -114V-122C299 -142 298 -210 298 -268V-432L322 -402C347 -412 383 -412 402 -412C396 -176 351 -84 183 69L190 82C346 -37 409 -124 434 -286H570C559 -180 552 -137 538 -94C530 -71 523 -59 496 -59C477 -59 448 -65 402 -78L397 -65C468 -39 481 -28 488 6C489 8 490 10 494 10C496 10 501 9 507 6C563 -18 580 -25 610 -279C640 -293 644 -294 644 -300C644 -303 641 -306 636 -310L584 -347L560 -309H438C441 -340 444 -374 446 -412H625C633 -412 638 -415 638 -419C638 -425 634 -428 619 -442C637 -472 654 -503 670 -536C688 -365 710 -254 743 -174C702 -83 637 -25 518 72L525 84C644 2 715 -54 761 -134C812 -40 902 22 908 22C910 22 912 21 913 19C923 7 930 2 948 2C958 2 972 3 990 6V-8C892 -56 828 -99 783 -177C820 -264 838 -380 857 -571H943C949 -571 952 -574 952 -578C952 -581 950 -585 946 -589L895 -636L860 -591H696C719 -642 742 -699 765 -763C769 -773 782 -787 794 -791C801 -794 805 -796 805 -799C805 -802 801 -806 792 -811ZM687 -571H814C799 -408 786 -302 761 -223C729 -299 706 -405 684 -565Z"/>
</svg>