<svg xmlns="http://www.w3.org/2000/svg" viewBox="0 -1000 1000 1000">
	<path fill="#000000" d="M633 -566H449C427 -566 403 -568 379 -570L405 -535C422 -542 450 -546 470 -546H580C519 -452 456 -382 369 -306L375 -293C402 -312 427 -330 451 -349C453 -320 454 -279 454 -257V-83C454 -59 452 44 452 66C452 74 454 78 459 78C464 78 470 76 479 72C495 65 498 60 498 47V17H812V67C812 76 813 81 818 81C822 81 828 79 838 74C856 66 861 62 861 50V46C859 19 857 -22 857 -83V-281L885 -297C889 -300 891 -302 891 -305C891 -307 889 -309 886 -312L829 -355L805 -319H501L455 -352C521 -404 577 -460 633 -535C633 -482 632 -424 630 -371V-362C630 -347 632 -341 638 -341C641 -341 646 -343 653 -346C676 -356 680 -359 680 -373V-379C677 -422 676 -473 676 -546H691C734 -462 786 -400 882 -346C886 -343 888 -342 891 -342C893 -342 895 -344 897 -347C906 -366 925 -379 963 -382V-395C860 -409 776 -465 710 -546H934C942 -546 946 -548 946 -552C946 -555 943 -560 936 -566L885 -617L846 -566H739C826 -667 839 -677 849 -677C858 -677 863 -678 863 -682C863 -684 859 -688 852 -693L806 -725C783 -676 748 -613 719 -566H676V-754C694 -756 821 -767 838 -767C857 -767 870 -765 882 -762C886 -761 889 -760 891 -760C894 -760 895 -761 895 -764C895 -766 893 -770 890 -776L857 -829C746 -798 592 -774 431 -755L432 -741C501 -743 563 -746 633 -751ZM638 -3H498V-147H638ZM498 -299H638V-167H498ZM680 -299H812V-167H680ZM812 -3H680V-147H812ZM186 -121V-455H309V-121ZM36 -264C78 -313 111 -354 143 -409V-139C143 -95 142 -51 140 -10V-5C140 6 142 11 148 11C157 11 186 1 186 -20V-99H309V-35C309 -25 310 -20 316 -20C320 -20 326 -23 336 -28C355 -39 358 -43 358 -54V-61C355 -106 355 -132 355 -183V-444C384 -461 387 -463 387 -467C387 -470 385 -473 379 -477L321 -519L293 -477H179C220 -559 248 -634 270 -710H411C416 -710 419 -711 419 -714C419 -716 417 -720 413 -725L366 -786L327 -732H117C94 -732 69 -733 44 -736L72 -699C89 -706 118 -710 139 -710H215C178 -550 120 -422 26 -274ZM461 -697C499 -669 520 -642 529 -606C532 -595 539 -588 547 -588C560 -588 572 -609 572 -630C572 -638 570 -646 566 -653C554 -674 532 -689 467 -707Z"/>
</svg>