<svg xmlns="http://www.w3.org/2000/svg" viewBox="0 -1000 1000 1000">
	<path fill="#000000" d="M140 -837C142 -803 143 -759 143 -721V-519C143 -155 124 -75 27 79L40 87C155 -40 188 -163 188 -526V-754H938C945 -754 950 -756 950 -761C950 -764 947 -769 941 -775L888 -829L844 -776H203ZM692 -555H632C609 -555 584 -557 559 -559L587 -524C614 -535 648 -535 671 -535C644 -481 578 -393 488 -321L495 -311C584 -368 648 -430 692 -495C692 -467 690 -342 690 -316C690 -302 691 -297 697 -297C700 -297 705 -299 712 -302C732 -312 736 -316 736 -334V-343C734 -385 733 -462 734 -535H739C764 -453 792 -406 847 -361C853 -356 857 -354 860 -354C862 -354 863 -355 865 -357C879 -373 906 -381 943 -379V-393C844 -417 805 -447 757 -535H899C908 -535 913 -537 913 -541C913 -544 910 -549 903 -555L853 -602L812 -555H734V-648C800 -661 830 -663 854 -663C859 -663 883 -661 888 -661C892 -661 894 -662 894 -664C894 -666 892 -670 887 -675L849 -717C782 -693 681 -666 560 -639L562 -624L692 -641ZM275 -554C252 -554 226 -555 202 -558L230 -523C247 -530 276 -534 297 -534H357C335 -486 274 -403 203 -337L213 -325C283 -378 343 -442 388 -505C387 -474 382 -339 382 -311C382 -300 384 -296 389 -296C393 -296 399 -298 408 -302C428 -310 431 -314 431 -331V-344C429 -376 429 -426 429 -480C455 -460 473 -441 486 -421C496 -405 506 -400 517 -400C526 -400 537 -418 537 -433C537 -458 481 -481 429 -496V-534H545C553 -534 558 -536 558 -539C558 -543 555 -547 549 -554L515 -593L483 -554H429V-648C459 -655 482 -659 504 -659C508 -659 528 -657 533 -657C537 -657 539 -658 539 -660C539 -662 537 -666 532 -671L494 -714C427 -684 360 -664 239 -634L243 -622C300 -629 344 -635 388 -642V-554ZM128 30C215 -8 296 -57 374 -119V-26C374 7 373 42 370 69V75C370 80 371 82 375 82C379 82 387 79 399 73C416 64 418 61 418 49V4H804V54C804 63 806 68 812 68C815 68 820 67 827 63C846 54 851 49 851 37V30C849 8 848 -15 848 -44V-119C876 -134 879 -136 879 -141C879 -144 877 -148 872 -151L812 -191L785 -154H415C452 -186 489 -220 515 -249H941C950 -249 955 -251 955 -255C955 -259 951 -264 945 -270L898 -317L858 -271H261C238 -271 213 -273 188 -275L216 -238C233 -245 262 -249 283 -249H446C374 -162 253 -58 122 17ZM418 -18V-132H804V-18Z"/>
</svg>