<svg xmlns="http://www.w3.org/2000/svg" viewBox="0 -1000 1000 1000">
	<path fill="#000000" d="M640 -653V-537C640 -521 639 -450 639 -435C639 -426 641 -422 646 -422C650 -422 656 -424 665 -428C682 -435 686 -439 686 -450C686 -465 684 -532 684 -545V-653H884L847 -593L857 -586C907 -634 930 -646 958 -650C966 -651 970 -653 970 -655C970 -658 968 -661 963 -665L909 -714L879 -675H684V-762H886C894 -762 898 -763 898 -766C898 -769 895 -774 889 -780L837 -833L801 -783H511C488 -783 463 -785 438 -787L466 -751C483 -758 512 -762 533 -762H640V-675H458C457 -685 456 -695 454 -706H441C437 -656 423 -621 404 -599C388 -580 380 -571 380 -563C380 -556 388 -545 405 -545C438 -545 459 -585 459 -653ZM858 -571H729V-550H858ZM173 -147V-475H295V-147ZM24 -280C66 -328 97 -373 129 -429V-161C129 -117 128 -73 126 -32V-27C126 -16 128 -11 134 -11C142 -11 173 -21 173 -42V-125H295V-57C295 -47 296 -42 302 -42C306 -42 312 -45 322 -50C341 -61 344 -65 344 -76V-83C341 -128 341 -154 341 -205V-464C370 -481 373 -483 373 -487C373 -490 371 -493 365 -497L307 -539L279 -497H166C207 -578 235 -654 256 -730H399C407 -730 411 -730 411 -732C411 -735 407 -738 401 -745L350 -798L325 -752H101C78 -752 53 -754 28 -756L56 -719C73 -726 102 -730 123 -730H199C166 -570 113 -446 14 -290ZM602 -568H479V-547H602ZM571 -257V-110C571 -92 568 -12 568 4C568 12 569 15 574 15C577 15 582 13 589 10C612 -1 617 -4 617 -14V-17C615 -43 614 -79 614 -128V-257H709V-143C709 -123 706 -30 706 -20C706 -11 708 -6 713 -6C715 -6 755 -21 755 -36V-39C754 -59 752 -95 752 -152V-257H855V-7C855 8 852 16 826 16C811 16 787 13 751 7L750 18C806 35 825 51 828 78C829 82 830 84 833 84C835 84 837 83 840 82C891 58 900 45 900 8V-246C927 -262 930 -264 930 -268C930 -272 927 -275 921 -280L865 -319L841 -278H613C629 -308 647 -337 668 -369H954C964 -369 968 -370 968 -374C968 -377 966 -381 960 -387L905 -443L866 -390H439C416 -390 391 -392 366 -394L394 -358C411 -365 440 -369 461 -369H609C602 -326 596 -302 588 -278H473L423 -318C425 -284 426 -233 426 -194V-62C426 -11 425 31 423 60V67C423 77 425 80 430 80C435 80 441 78 450 74C468 66 471 62 471 50V42C469 9 468 -22 468 -70V-257ZM599 -481H475V-460H599ZM873 -483H728V-462H873Z"/>
</svg>