<svg xmlns="http://www.w3.org/2000/svg" viewBox="0 -1000 1000 1000">
	<path fill="#000000" d="M335 -16V-146H721V-16ZM729 -284H260C245 -284 228 -285 212 -286C265 -323 318 -364 358 -405H677C703 -365 726 -335 753 -309ZM165 -799C169 -770 172 -728 174 -689L187 -423H110C87 -423 62 -425 37 -427L64 -394C81 -401 110 -405 131 -405H294C240 -345 125 -256 23 -196L29 -185C73 -203 135 -235 196 -276L215 -251C232 -258 261 -262 282 -262H357C272 -170 176 -91 48 -21L54 -8C141 -50 213 -90 291 -150V-34C291 -1 290 34 287 61V67C287 72 288 74 292 74C296 74 304 71 316 65C333 56 335 53 335 41V6H721V62C721 71 723 76 729 76C732 76 737 74 744 71C763 62 768 58 768 45V38C766 16 765 -7 765 -36V-133C793 -148 796 -150 796 -155C796 -158 794 -162 789 -165L729 -205L702 -168H314C348 -193 386 -225 421 -262H811C860 -232 893 -218 896 -218C899 -218 902 -220 904 -225C914 -246 923 -255 977 -258V-268C847 -275 766 -326 698 -405H958C968 -405 972 -407 972 -411C972 -414 969 -418 964 -423L918 -468L884 -423H836L856 -738L887 -750C894 -753 897 -755 897 -758C897 -761 895 -763 890 -767L834 -812L803 -776H723C700 -776 678 -777 653 -780L679 -747C696 -754 724 -758 745 -758H815L808 -651H726C703 -651 681 -652 656 -655L682 -622C699 -629 727 -633 748 -633H807L801 -536H719C696 -536 671 -537 646 -540L672 -507C689 -514 717 -518 741 -518H800L794 -423H604V-591C607 -593 629 -608 629 -610C629 -612 627 -615 622 -618L577 -649L556 -622H461L474 -733H615C623 -733 627 -734 627 -737C627 -739 624 -742 620 -747L580 -792L546 -751H476L480 -783L503 -791C508 -793 511 -795 511 -797C511 -798 509 -800 506 -802L446 -839C444 -817 441 -796 438 -767L424 -638L399 -624L442 -588C445 -585 447 -584 449 -584C453 -584 454 -586 467 -604H563V-423H457V-540C478 -550 481 -551 481 -554C481 -556 479 -558 474 -560L414 -591C416 -561 416 -537 416 -503V-423H227L223 -513H354C362 -513 366 -515 366 -518C366 -521 364 -524 360 -528L320 -571L287 -531H222L217 -633H348C355 -633 359 -635 359 -638C359 -641 357 -644 353 -649L317 -690L284 -651H216L212 -734C308 -749 340 -752 360 -752C376 -752 377 -752 377 -755C377 -757 376 -760 372 -764L337 -806C309 -789 278 -776 219 -758Z"/>
</svg>