<svg xmlns="http://www.w3.org/2000/svg" viewBox="0 -1000 1000 1000">
	<path fill="#000000" d="M303 67C393 7 465 -80 517 -220C546 -298 570 -444 580 -735H773L713 -512L672 -487L726 -448C729 -446 732 -444 735 -444C738 -444 740 -446 743 -449L762 -471H860C855 -325 836 -168 825 -114C812 -48 788 -17 726 -17C691 -17 644 -27 579 -46L575 -31C682 3 697 19 705 52C706 55 707 57 711 57C714 57 717 56 721 55C830 21 854 -6 873 -126C886 -205 902 -335 907 -446L940 -465C943 -467 945 -470 945 -472C945 -474 944 -476 942 -478L883 -531L850 -493H752L808 -689C814 -711 823 -721 850 -735C854 -737 857 -739 857 -742C857 -744 855 -746 852 -749L789 -800L761 -757H447C424 -757 399 -759 374 -761L402 -724C419 -731 448 -735 469 -735H528C525 -343 494 -132 293 59ZM218 -126C218 -70 217 -11 214 45V53C214 65 216 71 223 71C227 71 234 68 244 62C261 52 265 47 265 34V28C263 -5 263 -57 263 -134V-421C319 -388 353 -358 366 -324C374 -303 380 -297 394 -297C405 -297 417 -317 417 -338C417 -349 414 -361 406 -370C383 -396 340 -419 263 -439V-464C286 -494 313 -534 342 -577C355 -596 365 -603 387 -609C392 -611 395 -613 395 -616C395 -618 393 -622 388 -626L333 -675L298 -631H125C102 -631 77 -633 52 -635L80 -595C97 -602 126 -606 147 -606H302C232 -485 147 -355 31 -235L39 -225C108 -280 162 -333 218 -405ZM149 -846C200 -798 225 -746 227 -717C229 -689 239 -678 257 -678C271 -678 285 -700 285 -728C285 -735 284 -743 282 -751C274 -777 221 -824 156 -854Z"/>
</svg>