<svg xmlns="http://www.w3.org/2000/svg" viewBox="0 -1000 1000 1000">
	<path fill="#000000" d="M894 -649L858 -595H684L689 -778L715 -795C721 -799 724 -802 724 -804C724 -807 720 -810 714 -813L639 -852C642 -815 642 -758 641 -712L638 -595H475C452 -595 427 -597 402 -599L430 -562C447 -569 476 -573 497 -573H637L631 -344H521L464 -396C465 -364 466 -313 466 -287V-86C466 -64 464 32 464 55C464 71 466 77 474 77C478 77 484 75 493 72C510 66 512 62 512 46V-13H805V57C805 65 806 69 811 69C815 69 821 68 829 64C855 52 855 50 855 30C852 -16 851 -44 851 -78V-303L879 -323C884 -327 887 -330 887 -332C887 -335 884 -337 879 -341L818 -387L791 -344H678L683 -573H953C963 -573 968 -575 968 -579C968 -582 964 -587 957 -593ZM512 -35V-322H805V-35ZM160 -836C205 -794 230 -753 237 -711C241 -686 246 -681 261 -681C272 -681 298 -699 298 -728C298 -784 205 -830 165 -846ZM329 -660L298 -623H98C75 -623 50 -625 25 -627L53 -590C70 -597 99 -601 120 -601H302C229 -464 148 -359 20 -233L29 -223C109 -284 164 -332 218 -396V-140C218 -87 217 -21 215 38V47C215 64 217 70 224 70C229 70 236 68 245 64C265 56 268 52 268 39V30C265 -15 264 -69 264 -138V-408C310 -379 346 -331 355 -306C363 -284 368 -280 381 -280C390 -280 408 -300 408 -325C408 -374 329 -407 264 -425V-454C287 -485 312 -520 340 -561C352 -579 357 -583 387 -594C393 -597 396 -599 396 -602C396 -604 394 -607 389 -611Z"/>
</svg>