<svg xmlns="http://www.w3.org/2000/svg" viewBox="0 -1000 1000 1000">
	<path fill="#000000" d="M915 -353L874 -298H793V-669H964C969 -669 971 -670 971 -671C971 -673 969 -676 965 -680L909 -742L867 -691H793V-772L820 -788C825 -791 827 -793 827 -795C827 -796 826 -797 823 -798L744 -833C746 -807 747 -781 747 -691H515V-763L546 -784C548 -785 549 -787 549 -788C549 -790 547 -791 543 -793L466 -827C467 -794 469 -754 469 -691H374C338 -691 325 -691 309 -692L337 -661C348 -666 362 -669 401 -669H469V-298H358C314 -298 301 -298 284 -300L314 -268C333 -276 349 -276 395 -276V1L360 33L414 67C418 69 420 71 423 71C425 71 427 69 429 66L452 36H939C945 36 948 35 948 33C948 31 946 28 942 24L888 -41L843 14H441V-276H972C979 -276 982 -277 982 -279C982 -281 980 -284 976 -288ZM515 -433V-541H747V-433ZM515 -563V-669H747V-563ZM515 -298V-411H747V-298ZM328 -574L288 -518H231V-752L259 -769C263 -772 265 -774 265 -775C265 -777 263 -779 260 -780L181 -824C183 -784 184 -744 184 -678V-518H89C68 -518 41 -518 23 -520L52 -490C65 -496 71 -497 109 -497H184V-155L31 -91L67 -46C73 -38 77 -35 80 -35C81 -35 82 -36 83 -38C94 -59 107 -72 131 -85L361 -215L355 -226L231 -174V-497H377C385 -497 388 -498 388 -501C388 -503 386 -507 381 -512ZM708 -223C778 -167 809 -110 825 -66C829 -55 836 -49 845 -49C854 -49 872 -61 872 -87C872 -140 795 -194 713 -230ZM601 -231C575 -176 507 -63 478 -19L488 -12C522 -51 570 -107 590 -131C616 -161 642 -179 652 -180C660 -181 665 -182 665 -185C665 -187 662 -190 657 -193Z"/>
</svg>