<svg xmlns="http://www.w3.org/2000/svg" viewBox="0 -1000 1000 1000">
	<path fill="#000000" d="M758 -547V-441H516V-547ZM471 -454C471 -441 470 -382 470 -370C470 -362 472 -359 477 -359C480 -359 485 -360 492 -363C513 -372 516 -375 516 -384V-419H758V-375C758 -368 760 -365 766 -365C771 -365 806 -374 806 -388C806 -408 803 -439 803 -458V-669H923C937 -669 943 -671 943 -676C943 -680 940 -685 934 -691L888 -740L856 -691H803V-792C823 -806 826 -807 826 -810C826 -813 822 -815 816 -818L755 -842C757 -812 758 -765 758 -691H516V-783C539 -799 542 -801 542 -805C542 -808 539 -811 532 -814L468 -844C470 -816 471 -763 471 -691H435C412 -691 387 -693 362 -695L390 -658C407 -665 441 -669 471 -669ZM758 -569H516V-669H758ZM670 -238C711 -126 770 -42 870 22C877 26 881 28 884 28C887 28 890 26 892 23C911 1 933 -8 970 -8V-19C843 -35 747 -118 694 -238H937C951 -238 957 -239 957 -244C957 -247 954 -252 947 -260L896 -316L857 -260H655V-341C680 -354 683 -356 683 -362C683 -366 678 -370 669 -374L605 -401C606 -365 608 -303 608 -260H409C386 -260 361 -262 336 -264L364 -227C381 -234 410 -238 431 -238H558C497 -130 373 0 262 63L270 76C404 10 519 -94 608 -231V-83C608 -32 606 16 605 69C605 82 607 88 616 88C620 88 627 86 637 82C655 74 659 71 659 58V52C656 11 655 -23 655 -92V-238ZM193 -142C193 -89 192 -23 190 36V43C190 55 191 59 198 59C202 59 209 57 220 52C239 44 243 40 243 25V18C240 -27 239 -77 239 -150V-428C274 -405 296 -378 311 -344C321 -320 326 -316 337 -316C349 -316 361 -334 361 -354C361 -399 305 -424 248 -444C276 -486 306 -534 339 -590C347 -603 364 -617 373 -621C380 -624 384 -627 384 -629C384 -631 381 -634 376 -637L319 -672L295 -636H128C105 -636 80 -638 55 -640L83 -603C100 -610 129 -614 150 -614H298C225 -461 150 -351 27 -212L39 -202C95 -252 143 -302 193 -366ZM142 -838C195 -797 217 -766 226 -722C230 -702 236 -695 254 -695C264 -695 283 -722 283 -747C283 -753 282 -759 279 -764C261 -795 229 -817 149 -848Z"/>
</svg>