<svg xmlns="http://www.w3.org/2000/svg" viewBox="0 -1000 1000 1000">
	<path fill="#000000" d="M416 -812C417 -783 418 -738 418 -715V-426C418 -379 417 -358 415 -323V-318C415 -311 416 -307 421 -307C427 -307 438 -311 456 -320C464 -324 465 -329 465 -367H828V-331C828 -324 829 -320 835 -320C840 -320 879 -331 879 -347C879 -349 878 -352 878 -355C876 -397 875 -427 875 -463V-730L907 -749C909 -750 911 -752 911 -754C911 -756 909 -758 906 -761L841 -806L813 -767H473ZM623 -556V-390H465V-556ZM669 -390V-556H828V-390ZM623 -579H465V-742H623ZM669 -579V-742H828V-579ZM292 -661L268 -625H116C93 -625 68 -627 43 -629L71 -592C88 -599 117 -603 138 -603H271C202 -457 154 -397 29 -251L41 -241C97 -294 138 -334 181 -387V-113C181 -60 180 6 178 65V72C178 83 180 88 186 88C191 88 198 85 208 81C227 73 231 69 231 54V47C228 2 227 -48 227 -121V-444C269 -423 295 -385 303 -345C307 -324 315 -315 323 -315C329 -315 352 -326 352 -356C352 -413 261 -452 236 -461C259 -494 283 -530 312 -579C320 -592 337 -606 346 -610C353 -613 357 -616 357 -618C357 -620 354 -623 349 -626ZM802 -145C798 -6 784 8 754 16C739 20 695 22 653 22C527 22 527 11 527 -20V-207C538 -213 556 -223 556 -226C556 -227 555 -228 551 -230L481 -260C482 -239 482 -203 482 -169V-13C482 58 492 63 664 63C804 63 817 59 853 5C856 1 858 -2 858 -4C858 -8 855 -10 850 -12C829 -22 817 -51 816 -145ZM384 -211C377 -136 345 -80 301 -47C292 -40 287 -32 287 -23C287 -8 297 1 314 1C325 1 338 -3 350 -13C391 -47 404 -97 400 -210ZM828 -229C882 -170 907 -104 910 -73C912 -53 919 -44 934 -44C950 -44 967 -66 967 -100C967 -131 925 -178 837 -236ZM601 -318C642 -255 653 -220 655 -175C656 -158 662 -149 674 -149C698 -149 709 -176 709 -199C709 -230 694 -263 613 -326ZM112 -840C165 -799 187 -768 196 -724C200 -704 206 -697 224 -697C234 -697 253 -724 253 -749C253 -755 252 -761 249 -766C231 -797 199 -819 119 -850Z"/>
</svg>