<svg xmlns="http://www.w3.org/2000/svg" viewBox="0 -1000 1000 1000">
	<path fill="#000000" d="M881 -843C781 -808 532 -755 406 -735L408 -721C520 -727 698 -750 862 -778C865 -779 869 -779 874 -779C888 -779 907 -777 917 -774C922 -773 926 -772 928 -772C930 -772 932 -773 932 -774C932 -777 929 -781 924 -788ZM838 -732C803 -652 786 -618 741 -543L755 -534C861 -670 872 -678 893 -683C900 -685 904 -686 904 -689C904 -691 900 -695 893 -699ZM612 -705C644 -651 658 -615 658 -579C658 -546 667 -539 678 -539C689 -539 715 -554 715 -583C715 -626 672 -671 622 -714ZM443 -686C487 -635 505 -596 512 -567C519 -536 522 -531 531 -531C543 -531 563 -549 563 -582C563 -618 527 -650 450 -695ZM388 -592L348 -546H262V-741C300 -749 336 -756 365 -764C383 -769 395 -771 409 -771C430 -771 432 -771 432 -774C432 -776 429 -780 424 -785L379 -830C304 -787 146 -741 46 -721L48 -706C93 -712 155 -721 216 -732V-546H93C70 -546 45 -548 20 -550L48 -513C65 -520 94 -524 115 -524H209C174 -392 102 -253 21 -127L31 -118C89 -175 167 -303 216 -412V-168C216 -111 214 -20 211 38V53C211 67 212 73 218 73C223 73 230 70 240 64C261 52 264 48 264 37V30C262 -15 262 -90 262 -166V-443C306 -410 334 -365 341 -338C346 -318 351 -313 361 -313C373 -313 388 -329 388 -353C388 -395 353 -421 262 -459V-524H432C442 -524 446 -525 446 -527C446 -530 444 -533 439 -538ZM907 -332L868 -274H693V-330C723 -345 723 -345 723 -348C723 -351 720 -354 712 -358C841 -447 866 -457 898 -457C911 -457 916 -457 916 -461C916 -463 914 -466 909 -471L847 -532L807 -496H508C485 -496 460 -498 435 -500L463 -463C480 -470 509 -474 530 -474H806L698 -365L644 -391C645 -371 647 -321 647 -274H459C436 -274 411 -276 386 -278L414 -241C431 -248 460 -252 481 -252H647V-28C647 -10 643 0 610 0C586 0 546 -5 482 -16L480 -2C567 23 595 41 601 68C603 77 605 81 609 81C611 81 614 80 617 78C681 49 693 36 693 -15V-252H961C970 -252 974 -253 974 -257C974 -259 971 -263 966 -269Z"/>
</svg>