<svg xmlns="http://www.w3.org/2000/svg" viewBox="0 -1000 1000 1000">
	<path fill="#000000" d="M784 -496V-365H545V-496ZM462 -669C439 -669 413 -670 389 -673L417 -636C444 -647 478 -647 501 -647V-203H421C398 -203 372 -204 348 -207L376 -170C393 -177 422 -181 443 -181H956C965 -181 970 -182 970 -186C970 -190 967 -195 960 -202L912 -255L868 -203H829V-647H934C944 -647 949 -648 949 -652C949 -655 946 -659 939 -666L889 -716L853 -669H829V-781C856 -800 859 -802 859 -806C859 -809 855 -812 848 -816L780 -851C782 -814 784 -751 784 -710V-669H545V-776C551 -780 579 -800 579 -803C579 -806 575 -809 568 -813L497 -852C499 -815 501 -751 501 -710V-669ZM784 -647V-518H545V-647ZM784 -343V-203H545V-343ZM706 -130C795 -68 839 -19 873 48C882 65 889 69 899 69C908 69 926 51 926 23C926 -42 802 -105 711 -141ZM555 -149C478 -66 445 -39 306 73L312 83C415 27 478 -13 555 -71C568 -81 581 -85 598 -87C608 -88 612 -90 612 -93C612 -95 610 -98 606 -102ZM230 -549H107C84 -549 58 -550 34 -553L62 -516C79 -523 108 -527 129 -527H220C166 -369 129 -283 38 -134L49 -126C121 -212 184 -321 230 -431V-123C230 -66 228 -1 225 57V63C225 74 227 79 234 79C238 79 245 77 254 73C272 65 277 60 277 44V39C275 -6 274 -55 274 -131V-426C328 -378 350 -338 359 -299C364 -275 370 -269 382 -269C397 -269 411 -290 411 -314C411 -373 336 -414 274 -445V-527H427C433 -527 436 -529 436 -533C436 -535 434 -539 430 -543L377 -599L338 -549H274V-740C295 -743 319 -747 348 -752C361 -754 371 -755 380 -755C385 -755 406 -751 411 -751C414 -751 416 -752 416 -754C416 -757 414 -760 410 -765L370 -811C288 -781 238 -764 70 -732L71 -717C145 -723 185 -727 230 -733Z"/>
</svg>