<svg xmlns="http://www.w3.org/2000/svg" viewBox="0 -1000 1000 1000">
	<path fill="#000000" d="M906 -209L867 -159H848V-572L876 -592C880 -595 882 -597 882 -600C882 -603 879 -605 875 -608L816 -647L790 -608H671L680 -705H938C948 -705 953 -706 953 -711C953 -714 949 -719 942 -727L891 -779L854 -725H682L689 -800C716 -817 720 -819 720 -822C720 -824 717 -826 711 -829L646 -859C645 -841 640 -760 637 -725H490C467 -725 442 -727 417 -729L445 -694C462 -701 491 -705 512 -705H636L629 -608H518L464 -648C465 -626 467 -575 467 -550V-159H392C369 -159 344 -161 319 -163L347 -128C364 -135 393 -139 414 -139H955C964 -139 968 -141 968 -144C968 -147 965 -152 958 -159ZM512 -391V-476H803V-391ZM512 -279V-371H803V-279ZM512 -496V-588H803V-496ZM512 -159V-259H803V-159ZM368 -821C268 -777 163 -742 52 -714L57 -698C122 -709 175 -720 224 -730V-548H104C81 -548 56 -550 31 -552L59 -516C76 -523 105 -527 126 -527H217C160 -336 113 -227 30 -95L43 -87C117 -188 170 -286 224 -423V-157C224 -122 220 54 220 64C220 76 222 81 228 81C232 81 238 79 247 75C267 66 269 62 269 41V-424C304 -397 330 -370 348 -337C355 -324 360 -318 372 -318C380 -318 390 -329 390 -349C390 -382 366 -407 269 -444V-527H409C418 -527 422 -529 422 -532C422 -536 419 -540 413 -547L365 -596L332 -548H269V-740C297 -746 325 -752 353 -759C362 -761 372 -762 383 -762C388 -762 410 -760 415 -760C418 -760 420 -761 420 -763C420 -765 418 -768 414 -772ZM694 -85C781 -39 830 1 871 51C893 78 898 81 904 81C917 81 926 65 926 46C926 35 923 23 916 12C895 -21 829 -60 698 -96ZM567 -111C510 -54 399 29 314 86L324 97C411 55 480 15 568 -41C579 -48 593 -53 604 -54C614 -55 619 -56 619 -60C619 -64 614 -69 606 -76Z"/>
</svg>