<svg xmlns="http://www.w3.org/2000/svg" viewBox="0 -1000 1000 1000">
	<path fill="#000000" d="M654 -75H886C895 -75 900 -76 900 -79C900 -81 896 -85 890 -91L836 -141L798 -97H654V-191H814C814 -154 814 -153 821 -153C825 -153 832 -155 841 -160C858 -168 863 -173 863 -189V-194C861 -224 860 -252 860 -293V-404L887 -423C892 -427 895 -430 895 -433C895 -436 892 -440 885 -444L828 -482L804 -448H456L407 -483C409 -457 410 -429 410 -397V-272C410 -235 409 -200 407 -160V-155C407 -146 409 -143 414 -143C418 -143 423 -144 430 -147C453 -156 453 -157 453 -191H610V-97H452C429 -97 402 -98 379 -101L407 -64C424 -71 453 -75 474 -75H610V22H391C368 22 343 20 318 18L346 55C363 48 392 44 413 44H957C963 44 966 43 966 41C966 39 964 36 960 32L900 -25L859 22H654ZM814 -426V-330H654V-426ZM453 -330V-425L457 -426H610V-330ZM814 -308V-213H654V-308ZM453 -213V-308H610V-213ZM856 -747L818 -697H443C420 -697 395 -699 370 -701L398 -664C415 -671 444 -675 465 -675H908C917 -675 922 -677 922 -681C922 -684 918 -689 912 -695ZM479 -652C507 -622 522 -593 530 -564C533 -553 543 -544 553 -544C563 -544 580 -564 580 -582C580 -597 564 -632 484 -661ZM192 -581H87C64 -581 39 -582 14 -585L42 -548C55 -554 85 -559 109 -559H192C192 -553 163 -417 33 -186L45 -177C106 -260 156 -341 192 -431V-78C192 -37 189 13 185 61V70C185 81 187 86 192 86C196 86 202 83 210 78C232 64 236 58 236 44C236 22 234 -73 234 -93V-465C277 -435 303 -393 311 -365C316 -347 325 -336 336 -336C342 -336 358 -342 358 -365C358 -420 316 -457 234 -481V-559H373C381 -559 385 -562 385 -566C385 -570 382 -574 377 -579L328 -627L296 -581H234V-735C263 -741 293 -748 326 -756C335 -758 345 -759 354 -759C358 -759 376 -757 380 -757C382 -757 384 -758 384 -760C384 -762 382 -765 379 -770L344 -818C249 -777 168 -747 47 -716L50 -703C103 -710 148 -718 192 -726ZM738 -669C719 -624 696 -581 670 -539H409C386 -539 361 -541 336 -543L364 -508C381 -515 410 -519 431 -519H954C964 -519 970 -520 970 -524C970 -527 966 -532 958 -539L905 -590L867 -539H694C749 -600 772 -616 786 -619C791 -620 794 -621 794 -624C794 -626 791 -629 785 -634ZM538 -828C585 -796 609 -761 621 -724C625 -713 632 -704 641 -704C652 -704 675 -715 671 -754C667 -794 627 -823 542 -839Z"/>
</svg>