<svg xmlns="http://www.w3.org/2000/svg" viewBox="0 -1000 1000 1000">
	<path fill="#000000" d="M897 -427C894 -452 893 -494 893 -522V-620L919 -634C925 -638 927 -640 927 -643C927 -645 925 -648 919 -652L861 -693L833 -654H677C729 -702 770 -726 800 -729C811 -730 816 -732 816 -735C816 -738 813 -742 807 -747L757 -795L721 -762H553C561 -772 567 -780 574 -790C581 -800 588 -806 614 -811C624 -813 629 -816 629 -818C629 -821 625 -824 619 -827L556 -858C512 -776 440 -668 373 -578L349 -603L310 -561H253V-748C260 -749 349 -765 356 -765C361 -765 383 -760 387 -760C393 -760 397 -763 397 -767C397 -769 396 -771 394 -774L355 -824C265 -788 186 -765 52 -742L53 -725C113 -729 161 -734 210 -741V-561H105C82 -561 58 -562 34 -565L61 -526C77 -533 105 -537 126 -537H194C159 -406 114 -295 28 -140L37 -131C110 -222 157 -311 210 -446V-181C210 -124 208 -33 205 25V38C205 52 207 58 213 58C217 58 223 56 232 51C251 40 256 34 256 21V17C254 -28 253 -123 253 -199V-478C292 -443 315 -410 324 -376C329 -360 333 -351 343 -351C358 -351 370 -371 370 -393C370 -430 337 -458 253 -494V-537H392C399 -537 403 -538 403 -542C403 -546 401 -548 383 -566C401 -583 418 -601 433 -620V-487C433 -453 432 -425 431 -416C431 -414 430 -412 430 -410C430 -405 432 -402 437 -402C438 -402 472 -408 472 -421H849C849 -405 849 -395 857 -395C858 -395 897 -405 897 -422ZM473 -632H639V-549H473ZM680 -632H849V-549H680ZM473 -527H639V-441H473ZM680 -527H849V-441H680ZM723 -742L654 -654H464C489 -682 515 -713 537 -742ZM436 -392C426 -339 409 -312 368 -284C356 -276 349 -265 349 -255C349 -246 356 -232 376 -232C429 -232 449 -303 448 -391ZM471 -294C473 -266 473 -233 473 -194V-66C473 -5 471 46 469 64C468 69 468 72 468 75C468 81 469 84 473 84C477 84 483 80 493 74C510 63 513 59 513 44V13H803V66C803 75 804 80 809 80C813 80 819 77 828 72C845 63 848 59 848 48V42C846 18 845 -17 845 -55V-215L873 -230C879 -233 882 -235 882 -238C882 -240 879 -243 874 -246L816 -286L792 -248H520ZM513 -135V-228H803V-135ZM513 -11V-111H803V-11ZM829 -379C869 -346 903 -300 911 -274C921 -242 925 -237 936 -237C953 -237 967 -253 967 -275C967 -279 967 -282 966 -286C960 -322 905 -359 835 -389ZM519 -399C548 -366 562 -326 562 -301C562 -274 568 -267 581 -267C600 -267 615 -283 615 -309C615 -334 583 -374 530 -409ZM669 -400C701 -368 717 -325 719 -307C722 -278 726 -273 737 -273C753 -273 772 -289 770 -317C768 -347 725 -382 676 -410Z"/>
</svg>