<svg xmlns="http://www.w3.org/2000/svg" viewBox="0 -1000 1000 1000">
	<path fill="#000000" d="M152 -778C142 -708 121 -661 89 -640C74 -629 67 -618 67 -610C67 -600 80 -586 99 -586C156 -586 167 -672 168 -709H865L814 -627L825 -617C886 -677 914 -691 952 -693C959 -694 963 -696 963 -699C963 -702 960 -706 956 -710L891 -773L857 -731H168C168 -746 167 -762 164 -778ZM354 -678C288 -625 193 -565 57 -493L65 -483C166 -518 275 -569 355 -614C365 -619 380 -623 393 -623C404 -623 408 -623 408 -628C408 -630 406 -632 403 -635ZM809 -527L762 -469H185C162 -469 135 -470 112 -473L140 -436C157 -443 186 -447 207 -447H869C876 -447 879 -449 879 -452C879 -455 877 -459 872 -463ZM595 -413C723 -337 755 -308 815 -228C829 -209 840 -209 846 -209C857 -209 868 -230 868 -248C868 -289 793 -354 601 -424ZM555 -652C689 -612 769 -574 799 -548C824 -526 833 -522 844 -522C854 -522 863 -533 863 -548C863 -563 855 -581 832 -596C783 -628 704 -646 560 -664ZM404 -838C443 -814 473 -784 487 -759C498 -740 504 -733 513 -733C531 -733 546 -750 546 -770C546 -798 523 -821 409 -847ZM922 -14C767 -15 632 -44 526 -113C563 -150 595 -189 639 -254C648 -267 663 -276 683 -276C691 -276 695 -279 695 -282C695 -285 692 -289 687 -292L620 -335C571 -243 532 -185 488 -140C426 -190 380 -251 346 -310L330 -303C362 -234 401 -172 463 -116C381 -42 279 4 62 68L64 81C255 48 403 -5 498 -87C575 -25 639 4 809 47C811 48 813 48 815 48C819 48 821 46 824 42C837 20 857 6 921 -3ZM357 -429C281 -326 209 -248 116 -164L126 -155C195 -203 244 -239 365 -352C379 -365 397 -373 415 -378C422 -380 426 -382 426 -384C426 -386 422 -389 416 -393ZM430 -613C466 -578 484 -549 495 -502C498 -489 506 -483 517 -483C534 -483 545 -505 545 -527C545 -533 545 -539 543 -544C536 -566 497 -596 438 -623Z"/>
</svg>