<svg xmlns="http://www.w3.org/2000/svg" viewBox="0 -1000 1000 1000">
	<path fill="#000000" d="M368 -676C292 -606 203 -549 53 -456L59 -444C132 -474 298 -560 376 -607C388 -614 400 -619 414 -619C431 -619 432 -619 432 -622C432 -624 430 -627 426 -630ZM188 -775H176C165 -704 135 -667 104 -637C88 -621 79 -609 79 -598C79 -590 85 -576 101 -576C111 -576 124 -581 141 -595C168 -617 182 -643 186 -697H844L809 -623L821 -614C893 -682 908 -692 933 -695C938 -696 941 -697 941 -699C941 -701 939 -703 936 -706L878 -763L840 -719H188ZM357 -226C472 -251 564 -283 637 -322C719 -274 839 -247 846 -247C852 -247 855 -249 857 -252C867 -271 878 -279 941 -284V-293C834 -294 749 -310 675 -344C713 -368 745 -394 772 -423C784 -437 806 -448 823 -451C831 -453 835 -455 835 -459C835 -461 833 -463 829 -466L771 -507L744 -475H548C567 -499 575 -505 598 -511C608 -513 613 -516 613 -520C613 -522 610 -525 605 -528L554 -560C488 -452 463 -420 381 -329L390 -319C440 -359 476 -393 513 -434C544 -398 572 -369 604 -344C542 -307 467 -277 354 -241ZM743 -455C707 -418 672 -390 635 -365C597 -387 561 -415 526 -449L531 -455ZM550 -646C685 -612 778 -571 830 -524C851 -505 866 -498 876 -498C893 -498 897 -520 897 -526C897 -541 887 -555 860 -575C825 -602 731 -630 554 -657ZM424 -848C464 -819 485 -791 497 -753C504 -730 511 -721 522 -721C543 -721 556 -739 556 -761C556 -799 521 -827 427 -858ZM490 -149C447 -76 415 -42 339 34L346 46C415 -4 446 -28 507 -86C516 -94 526 -98 539 -99C545 -100 548 -101 548 -104C548 -107 546 -110 541 -113ZM297 -399C299 -364 299 -311 299 -272V-132C299 -119 298 -59 298 -47C298 -35 299 -30 304 -30C309 -30 342 -47 342 -61V-64C341 -76 340 -101 340 -131V-332L363 -346C368 -349 371 -352 371 -354C371 -356 368 -358 364 -360ZM648 -237C674 -253 677 -255 677 -260C677 -263 675 -265 672 -267L604 -298C606 -278 606 -236 606 -197H452C432 -197 407 -198 386 -201L411 -165C426 -171 453 -175 473 -175H606V-25C606 4 601 15 564 15C545 15 519 12 482 8L480 21C560 41 573 47 575 76C576 82 578 84 581 84C582 84 583 84 584 83C635 59 648 47 648 14V-175H878C887 -175 891 -177 891 -182C891 -185 889 -190 883 -196L838 -245L802 -197H648ZM176 -113C176 -62 175 -6 173 52V63C173 80 174 87 180 87C184 87 190 83 199 78C218 66 222 62 222 49V44C219 0 218 -50 218 -111V-314C237 -328 239 -329 239 -334C239 -336 237 -338 233 -340L196 -357C233 -384 269 -414 321 -459C330 -467 338 -472 359 -472C371 -473 377 -475 377 -479C377 -483 374 -487 368 -492L318 -535C210 -410 184 -386 39 -262L44 -252C101 -290 140 -316 176 -342ZM711 -133C774 -85 814 -41 839 16C846 31 856 39 864 39C873 39 890 28 890 2C890 -4 889 -11 887 -18C876 -55 842 -84 718 -144Z"/>
</svg>