<svg xmlns="http://www.w3.org/2000/svg" viewBox="0 -1000 1000 1000">
	<path fill="#000000" d="M765 -272L737 -224H469L406 -268C408 -237 409 -189 409 -165V-61C409 -26 408 14 406 49V63C406 76 408 82 416 82C421 82 428 79 439 75C456 68 458 62 458 50V2H759V61C759 69 760 74 766 74C769 74 775 72 785 68C806 59 810 55 810 41V34C807 -11 806 -40 806 -74V-191L834 -213C839 -217 841 -220 841 -223C841 -226 839 -228 834 -231ZM458 -20V-202H759V-20ZM891 -760L848 -701H753V-782L782 -801C787 -804 789 -807 789 -809C789 -811 786 -813 780 -816L703 -845C705 -812 706 -784 706 -759V-701H518V-785C547 -805 550 -807 550 -811C550 -813 547 -816 541 -818L468 -850C470 -817 471 -789 471 -764V-701H361C338 -701 313 -703 288 -705L316 -668C333 -675 362 -679 383 -679H471C471 -663 470 -594 470 -579C470 -564 472 -558 479 -558C483 -558 488 -561 496 -564C516 -573 520 -576 520 -585V-588C518 -609 518 -642 518 -679H706C706 -664 705 -597 705 -583C705 -568 707 -562 714 -562C718 -562 723 -565 731 -568C751 -577 755 -580 755 -589V-592C753 -612 753 -644 753 -679H946C953 -679 956 -680 956 -683C956 -685 954 -689 950 -694ZM982 -385C827 -397 715 -464 637 -579C641 -581 666 -583 666 -587C666 -589 664 -591 660 -593L599 -626C533 -521 424 -419 280 -314L290 -298C439 -390 532 -464 625 -571C684 -464 752 -396 886 -326C888 -325 890 -324 892 -324C895 -324 897 -325 899 -328C912 -351 943 -370 982 -371ZM329 -595L288 -543H221V-768L250 -788C256 -792 259 -795 259 -798C259 -801 255 -803 248 -807L171 -845C173 -810 175 -746 175 -707V-543H89C68 -543 45 -545 23 -547L48 -512C63 -518 90 -522 109 -522H175V-156L23 -98L67 -41C69 -39 71 -37 73 -37C76 -37 79 -40 81 -44C87 -60 108 -79 149 -101L369 -218L364 -229L221 -174V-522H376C383 -522 386 -523 386 -526C386 -529 384 -533 379 -538ZM730 -401L691 -352H492C469 -352 444 -354 419 -356L447 -321C464 -328 493 -332 514 -332H775C782 -332 785 -333 785 -336C785 -339 783 -342 779 -347Z"/>
</svg>