<svg xmlns="http://www.w3.org/2000/svg" viewBox="0 -1000 1000 1000">
	<path fill="#000000" d="M585 -472V-362H414V-472ZM53 87C213 46 354 -15 399 -189H585V-130C585 -73 584 0 582 59V65C582 81 585 88 592 88C597 88 603 85 612 81C630 72 634 70 634 54V47C631 2 629 -73 629 -149V-189H849C834 -56 823 -45 785 -45C765 -45 735 -51 693 -64L689 -49C758 -25 780 -8 787 16C789 22 791 24 794 24C796 24 799 24 802 22C846 3 883 -14 895 -174L924 -186C929 -188 932 -191 932 -193C932 -196 929 -199 924 -203L870 -251L838 -211H629V-340H796V-308C796 -302 797 -298 801 -298C805 -298 848 -317 848 -330C848 -331 847 -332 847 -334C844 -356 843 -382 843 -409V-462L874 -480C879 -483 882 -485 882 -488C882 -490 879 -493 874 -496L811 -541L780 -494H629V-545L656 -561C662 -564 665 -567 665 -570C665 -572 662 -575 655 -578L582 -614C584 -579 585 -537 585 -494H414V-551C419 -554 446 -574 446 -576C446 -578 443 -580 437 -583L373 -611C379 -619 382 -628 382 -638C382 -661 357 -688 312 -712H495C502 -712 505 -713 505 -716C505 -718 504 -721 501 -725L453 -783L419 -734H239C248 -747 256 -760 265 -773C275 -788 281 -792 302 -800C310 -803 314 -806 314 -809C314 -812 311 -815 305 -818L242 -849C201 -754 128 -621 49 -504L58 -494C95 -530 150 -601 225 -712H282C309 -683 323 -656 329 -618C331 -603 340 -595 349 -595C355 -595 360 -597 365 -601C366 -576 367 -532 367 -494H194C171 -494 148 -496 123 -498L151 -461C168 -468 197 -472 218 -472H367L366 -362H229L174 -411C174 -387 169 -352 163 -328L139 -232L94 -207L153 -159C155 -157 157 -156 159 -156C161 -156 164 -158 167 -162L192 -189H351C342 -154 330 -125 313 -101C269 -36 185 21 48 73ZM629 -362V-472H796V-362ZM585 -340V-211H404C410 -245 414 -285 414 -340ZM181 -211L213 -340H366C366 -287 364 -251 356 -211ZM620 -842C591 -770 533 -651 478 -561L489 -554C520 -590 560 -644 605 -713H684C707 -680 723 -641 723 -611C723 -595 733 -584 742 -584C762 -584 773 -610 773 -626C773 -646 752 -677 709 -713H939C948 -713 953 -714 953 -718C953 -720 950 -724 945 -729L890 -792L852 -735H619C626 -746 633 -757 640 -769C651 -787 658 -794 681 -801C686 -803 689 -805 689 -807C689 -809 687 -812 682 -814Z"/>
</svg>