<svg xmlns="http://www.w3.org/2000/svg" viewBox="0 -1000 1000 1000">
	<path fill="#000000" d="M843 -496L812 -453H659L593 -501C595 -477 596 -441 596 -423V-128C596 -85 595 -18 593 26V31C593 46 596 52 603 52C603 52 642 43 642 21V-41H829V23C829 31 830 35 835 35C839 35 845 32 856 28C875 20 879 18 879 8V4C877 -30 876 -56 876 -113V-412L910 -433C914 -435 916 -437 916 -439C916 -441 914 -443 910 -446ZM642 -63V-431H829V-63ZM484 -765L444 -711H261L299 -770C309 -786 322 -794 333 -797C342 -800 346 -802 346 -805C346 -807 342 -810 335 -813L269 -842C225 -737 173 -636 65 -475L77 -466C146 -545 198 -617 246 -689H331C369 -641 383 -591 384 -571C385 -545 393 -533 403 -533C418 -533 437 -551 437 -586V-593C436 -609 414 -643 359 -689H545C552 -689 555 -690 555 -692C555 -694 553 -696 549 -700ZM903 -767L867 -712H650C662 -733 674 -755 687 -779C695 -794 702 -798 715 -802C721 -804 724 -805 724 -808C724 -810 722 -812 716 -814L646 -841C595 -693 540 -583 479 -482L492 -474C548 -542 588 -605 637 -690H688C737 -643 758 -587 760 -565C762 -545 774 -530 784 -530C801 -530 813 -557 813 -585C813 -609 792 -641 715 -690H970C974 -690 976 -691 976 -692C976 -694 974 -696 971 -699ZM454 -440L422 -401H295L298 -447C300 -474 304 -484 334 -499C338 -501 340 -503 340 -504C340 -507 337 -509 331 -512L253 -549C253 -509 251 -442 250 -401H143C120 -401 95 -403 70 -404L98 -370C115 -376 136 -379 165 -379H248C232 -141 177 -49 32 71L42 82C237 -54 273 -143 293 -379H440C441 -280 434 -129 428 -84C424 -51 414 -35 378 -35C353 -35 316 -43 259 -56L256 -41C347 -17 371 16 371 34C371 41 373 44 377 44C379 44 382 43 386 41C453 4 469 -29 473 -74C482 -181 485 -251 487 -361L521 -379C525 -381 527 -383 527 -385C527 -387 524 -390 519 -394Z"/>
</svg>