<svg xmlns="http://www.w3.org/2000/svg" viewBox="0 -1000 1000 1000">
	<path fill="#000000" d="M893 -783L853 -724H629C672 -788 677 -796 703 -803C710 -805 713 -807 713 -809C713 -811 710 -814 704 -817L636 -850C598 -752 550 -653 492 -566L505 -557C541 -600 568 -636 614 -702H675C714 -657 731 -617 735 -586C738 -565 744 -558 757 -558C774 -558 788 -587 788 -610C788 -632 772 -655 705 -702H947C956 -702 960 -703 960 -707C960 -710 957 -715 950 -722ZM471 -780L437 -724H228C241 -742 254 -762 269 -783C276 -794 286 -801 312 -808C320 -810 324 -812 324 -815C324 -817 321 -820 314 -824L251 -859C202 -758 128 -636 38 -522L50 -513C105 -564 149 -615 212 -702H298C322 -673 337 -638 346 -597C351 -573 357 -569 371 -569C385 -569 400 -594 400 -613C400 -637 384 -660 323 -702H524C533 -702 538 -703 538 -707C538 -710 534 -715 527 -723ZM858 -522L815 -468H338C373 -512 380 -519 393 -523C401 -526 404 -528 404 -531C404 -534 401 -538 393 -543L347 -575C249 -412 176 -311 63 -201L74 -190C173 -271 224 -323 321 -446H439V-96C439 -50 438 16 436 63V72C436 86 438 92 444 92C448 92 455 89 465 84C486 74 490 70 490 61V56C487 20 486 -34 486 -94V-127H899C909 -127 913 -128 913 -132C913 -135 910 -140 903 -147L842 -205L799 -149H486V-287H829C839 -287 844 -288 844 -292C844 -295 840 -300 834 -306L771 -367L730 -309H486V-446H910C920 -446 926 -447 926 -451C926 -454 922 -459 914 -467Z"/>
</svg>