<svg xmlns="http://www.w3.org/2000/svg" viewBox="0 -1000 1000 1000">
	<path fill="#000000" d="M553 -379L524 -337H278L213 -382C215 -351 216 -303 216 -279V-187C216 -152 216 -121 213 -62C213 -56 212 -50 212 -46C212 -34 214 -29 221 -29C226 -29 233 -32 243 -36C260 -43 262 -45 262 -61V-120H544V-63C544 -55 545 -50 551 -50C555 -50 561 -52 571 -56C589 -64 595 -67 595 -81C595 -83 594 -86 594 -90C592 -112 591 -144 591 -198V-299L617 -316C624 -320 627 -323 627 -326C627 -329 624 -332 616 -337ZM262 -142V-315H544V-142ZM887 -760L849 -703H607C625 -730 641 -758 657 -785C663 -795 672 -799 686 -801C695 -802 700 -804 700 -808C700 -810 696 -814 687 -818L618 -849C579 -740 517 -616 456 -524L470 -516C510 -561 553 -619 593 -681H646C689 -647 713 -607 728 -570C737 -550 746 -539 753 -539C768 -539 782 -553 782 -584C782 -615 747 -643 676 -681H943C953 -681 957 -683 957 -687C957 -690 954 -694 949 -699ZM464 -757L428 -703H223C242 -728 259 -753 275 -776C283 -788 295 -795 312 -798C321 -800 327 -802 327 -806C327 -809 323 -812 314 -816L243 -847C188 -726 120 -617 39 -505L51 -496C104 -549 159 -616 207 -681H286C327 -651 350 -612 356 -582C360 -561 367 -552 373 -552C393 -552 406 -572 406 -597C406 -623 386 -654 317 -681H512C521 -681 525 -683 525 -686C525 -689 522 -693 517 -699ZM812 -532L782 -493H256C266 -505 277 -518 288 -532C299 -546 307 -549 324 -550C333 -551 338 -553 338 -556C338 -559 334 -562 327 -566L261 -601C214 -513 145 -407 36 -277L47 -267C99 -313 152 -367 238 -471H794C796 -272 794 -183 787 -86C782 -22 772 6 700 6C670 6 631 2 577 -7L573 9C667 30 688 44 696 78C697 85 699 88 703 88C706 88 709 87 714 85C807 45 827 21 834 -60C842 -158 844 -276 842 -448L874 -464C883 -469 887 -472 887 -475C887 -478 884 -482 876 -487Z"/>
</svg>