<svg xmlns="http://www.w3.org/2000/svg" viewBox="0 -1000 1000 1000">
	<path fill="#000000" d="M902 -762L864 -706H606C623 -730 640 -753 653 -772C663 -786 673 -792 693 -797C698 -798 700 -800 700 -802C700 -804 698 -806 694 -809L631 -847C590 -755 509 -617 436 -512L449 -504C459 -515 475 -535 494 -559C495 -531 496 -501 497 -461C422 -449 345 -438 274 -431L225 -480L208 -383L194 -307L153 -279L200 -242C207 -237 211 -234 215 -234C220 -234 224 -237 229 -243L251 -267H435C384 -199 197 -46 37 28L43 42C236 -26 441 -187 497 -266V-153C497 -96 496 -6 494 53V61C494 78 496 85 504 85C508 85 515 83 524 79C544 70 548 66 548 52V45C545 0 544 -75 544 -151V-267H832C833 -221 828 -170 819 -137C812 -111 800 -97 767 -97C741 -97 703 -105 644 -122L640 -106C720 -78 745 -62 748 -30C749 -25 751 -22 755 -22C763 -22 854 -55 863 -106C869 -140 875 -196 878 -246L907 -261C913 -264 915 -267 915 -270C915 -274 913 -277 908 -281L848 -327L820 -289H544V-436C629 -446 713 -456 772 -466C781 -467 790 -468 799 -468C811 -468 823 -467 835 -464C840 -463 844 -462 847 -462C851 -462 853 -463 853 -466C853 -469 850 -474 845 -480L809 -526C758 -509 657 -488 544 -469V-517C564 -530 566 -531 566 -534C566 -537 564 -539 559 -542L503 -570C529 -604 560 -645 589 -684H696C725 -649 740 -610 743 -570C745 -544 750 -538 763 -538C782 -538 798 -559 798 -590C798 -616 782 -638 723 -684H946C954 -684 958 -685 958 -689C958 -692 955 -697 949 -704ZM473 -753L438 -707H263C274 -724 286 -742 297 -760C307 -776 315 -781 332 -786C342 -789 347 -792 347 -795C347 -798 344 -801 338 -805L278 -845C241 -753 175 -632 73 -475L85 -467C120 -503 182 -585 248 -685H288C317 -646 330 -609 334 -565C336 -542 340 -534 354 -534C369 -534 389 -556 389 -579C389 -611 378 -633 309 -685H509C518 -685 522 -686 522 -690C522 -693 519 -698 512 -706ZM236 -289L257 -411C310 -413 402 -421 497 -431V-289Z"/>
</svg>