<svg xmlns="http://www.w3.org/2000/svg" viewBox="0 -1000 1000 1000">
	<path fill="#000000" d="M882 -767L843 -712H627C635 -726 643 -741 652 -756C670 -788 687 -807 706 -813C712 -814 714 -816 714 -818C714 -820 712 -822 707 -824L639 -857C595 -739 522 -584 477 -512L490 -505C522 -540 561 -599 614 -690H668C699 -646 718 -604 720 -574C722 -550 729 -535 740 -535C759 -535 776 -555 776 -587C776 -613 756 -641 688 -690H933C944 -690 950 -691 950 -694C950 -698 945 -703 936 -712ZM475 -764L436 -710H237C247 -726 256 -742 266 -758C282 -785 300 -804 317 -809C324 -811 327 -813 327 -815C327 -817 324 -819 317 -822L251 -855C207 -743 126 -588 45 -471L57 -462C97 -506 160 -590 223 -688H296C325 -645 344 -583 345 -556C346 -536 354 -524 363 -524C382 -524 401 -548 401 -579V-581C400 -607 369 -645 316 -688H523C534 -688 539 -689 539 -693C539 -696 535 -701 527 -709ZM511 -205L314 -165V-444H486C497 -444 502 -445 502 -448C502 -451 499 -456 492 -463L443 -516L405 -465H167C144 -465 119 -467 96 -469L123 -434C139 -440 167 -444 188 -444H268V-156L56 -113L97 -61C99 -59 101 -58 102 -58C105 -58 107 -59 110 -62C120 -72 147 -85 261 -117L516 -188ZM828 -410C842 -432 876 -459 899 -463C905 -464 908 -466 908 -469C908 -471 905 -474 901 -478L841 -530L813 -495H622L555 -546C557 -510 559 -445 559 -406V-147C559 -92 558 -5 556 51V60C556 76 558 83 565 83C569 83 575 81 584 77C607 67 608 63 608 43C606 0 605 -67 605 -145V-473H818L734 -304C822 -238 852 -187 852 -150C852 -104 838 -79 788 -79C758 -79 717 -87 659 -105L656 -92C761 -55 774 -40 780 -11C781 -6 783 -4 787 -4C793 -4 905 -46 905 -130C905 -188 875 -240 758 -305Z"/>
</svg>