<svg xmlns="http://www.w3.org/2000/svg" viewBox="0 -1000 1000 1000">
	<path fill="#000000" d="M382 -379C383 -357 385 -306 385 -281V-12H355C332 -12 306 -13 282 -16L310 20C327 13 356 9 377 9H974C982 9 986 8 986 4C986 2 984 -2 980 -7L937 -61L895 -12H883V-295L911 -311C917 -314 920 -316 920 -319C920 -322 917 -324 912 -328L852 -371L827 -334H433ZM689 -12H577V-313H689ZM535 -12H427V-313H535ZM731 -12V-313H840V-12ZM437 -822C439 -791 440 -758 440 -719V-564C440 -522 439 -479 437 -450C437 -445 436 -440 436 -437C436 -425 438 -421 444 -421C448 -421 453 -423 461 -426C482 -435 483 -438 483 -460H799C799 -424 799 -421 806 -421C809 -421 815 -422 824 -426C844 -434 849 -438 849 -450C849 -453 848 -456 848 -460C844 -505 843 -524 843 -565V-736C870 -750 874 -752 874 -757C874 -760 871 -764 866 -768L814 -811L788 -773H494ZM799 -481H483V-605H799ZM483 -752H799V-626H483ZM184 -149L36 -95L74 -51C79 -46 83 -43 85 -43C87 -43 89 -44 90 -46C100 -60 127 -80 143 -87L374 -202L368 -216L230 -166V-482H356C364 -482 368 -484 368 -488C368 -492 366 -496 361 -501L316 -550L280 -503H230V-761C257 -777 260 -778 260 -784C260 -788 256 -792 249 -795L180 -830C182 -795 184 -731 184 -692V-503H108C87 -503 64 -504 42 -507L67 -472C84 -478 109 -482 128 -482H184Z"/>
</svg>