<svg xmlns="http://www.w3.org/2000/svg" viewBox="0 -1000 1000 1000">
	<path fill="#000000" d="M254 -771C264 -786 271 -793 291 -801C299 -804 303 -807 303 -810C303 -813 300 -816 294 -819L231 -850C182 -730 138 -660 56 -543L65 -533C102 -568 161 -638 215 -713H278C305 -687 323 -657 330 -621C333 -607 347 -592 359 -592C368 -592 380 -600 380 -623C380 -671 337 -696 302 -713H519C526 -713 530 -717 530 -721C530 -725 528 -728 525 -732L479 -784L442 -735H230ZM622 -843C588 -758 548 -685 488 -588L499 -581C533 -614 566 -652 607 -714H678C706 -680 721 -650 725 -624C727 -608 741 -597 750 -597C762 -597 775 -609 775 -626C775 -645 762 -674 701 -714H927C936 -714 941 -715 941 -719C941 -721 938 -725 933 -730L874 -793L836 -736H621C628 -747 635 -758 642 -770C653 -788 660 -795 683 -802C688 -804 691 -806 691 -808C691 -810 689 -813 684 -815ZM486 -463H279C256 -463 230 -464 206 -467L234 -430C251 -437 280 -441 301 -441H486V-351H154C131 -351 105 -352 81 -355L109 -318C126 -325 155 -329 176 -329H908C917 -329 921 -331 921 -334C921 -337 918 -342 912 -347L848 -407L804 -351H532V-441H812C820 -441 825 -443 825 -448C825 -451 822 -455 816 -460L758 -508L725 -463H532V-554H852C860 -554 864 -556 864 -560C864 -564 861 -568 856 -573L799 -623L765 -576H235C212 -576 186 -577 162 -580L190 -543C207 -550 236 -554 257 -554H486ZM657 -97C658 -41 657 6 653 51C652 58 652 63 652 68C652 79 654 83 661 83C665 83 672 81 682 77C702 68 706 65 706 50C706 26 704 -79 704 -101V-164H958C966 -164 970 -166 970 -170C970 -173 967 -177 962 -182L897 -247L851 -186H704V-250C729 -269 732 -272 732 -275C732 -278 729 -280 722 -282L654 -305C657 -265 657 -228 657 -186H355C357 -215 358 -229 358 -248C383 -268 386 -270 386 -274C386 -277 383 -280 378 -282L308 -307C310 -267 312 -222 310 -186H107C84 -186 58 -187 34 -190L62 -153C79 -160 105 -164 129 -164H308C299 -53 255 -2 83 74L90 90C287 24 339 -33 353 -164H657Z"/>
</svg>