<svg xmlns="http://www.w3.org/2000/svg" viewBox="0 -1000 1000 1000">
	<path fill="#000000" d="M896 -169C880 1 874 4 813 10C783 13 757 14 735 14C622 14 622 -4 622 -26V-185H740V-152C740 -143 741 -139 747 -139C751 -139 757 -141 767 -145C788 -154 791 -157 791 -167V-173C787 -214 785 -240 785 -270V-511L812 -528C815 -530 817 -532 817 -533C817 -535 815 -537 811 -540L752 -581L735 -552H279L222 -607C224 -576 225 -557 225 -504V-267C225 -237 222 -182 219 -153V-146C219 -140 220 -138 224 -138C228 -138 235 -141 247 -147C270 -158 270 -159 270 -185H387C385 -38 337 1 69 73L76 89C359 32 420 -4 437 -185H577V-15C577 52 621 52 749 52C889 52 908 49 944 -7C946 -10 947 -12 947 -14C947 -16 945 -18 943 -19C920 -30 910 -51 910 -119C910 -134 910 -150 911 -169ZM270 -332V-422H740V-332ZM270 -444V-530H740V-444ZM270 -207V-310H740V-207ZM876 -785L836 -728H619C632 -747 644 -767 656 -786C665 -801 673 -807 693 -812C699 -814 701 -815 701 -817C701 -819 699 -821 694 -824L633 -861C602 -781 540 -656 475 -566L489 -556C526 -598 567 -651 604 -706H662C699 -674 721 -636 728 -603C731 -588 740 -585 749 -585C766 -585 780 -605 780 -622C780 -655 726 -687 691 -706H940C948 -706 951 -707 951 -710C951 -712 949 -716 943 -721ZM484 -784L442 -728H245C266 -762 291 -803 320 -811C326 -813 328 -814 328 -816C328 -817 326 -819 322 -821L252 -853C212 -749 152 -648 50 -512L61 -501C123 -561 173 -621 230 -706H293C330 -666 351 -617 354 -590C355 -579 363 -572 370 -572C385 -572 402 -588 402 -614C402 -636 382 -662 315 -706H540C547 -706 550 -707 550 -709C550 -712 548 -715 543 -720Z"/>
</svg>