<svg xmlns="http://www.w3.org/2000/svg" viewBox="0 -1000 1000 1000">
	<path fill="#000000" d="M236 -440C237 -419 238 -368 238 -332V-289L50 -221L87 -174C88 -172 90 -171 92 -171C94 -171 97 -173 99 -176C108 -190 123 -202 167 -222L238 -255V-47C238 -25 234 -14 205 -14C186 -14 154 -19 104 -30L101 -17C182 10 195 22 202 53C203 57 204 59 207 59C208 59 210 58 212 57C275 27 283 12 283 -34V-276L413 -336L408 -350L283 -305V-383L305 -395C307 -396 309 -398 309 -400C309 -403 306 -404 285 -415C369 -509 383 -516 421 -524C426 -525 429 -526 429 -529C429 -530 427 -533 424 -536L369 -590L337 -552H167C144 -552 119 -554 94 -556L122 -519C139 -526 164 -530 189 -530H339L270 -422ZM593 -49C593 -26 579 -9 558 1L594 45C596 48 598 49 600 49C602 49 604 47 606 44C616 25 649 0 728 -46C735 -27 738 -12 738 -3C738 32 745 41 758 41C774 41 789 22 789 -4C789 -57 718 -129 688 -159L678 -153C697 -121 712 -90 722 -62L638 -28V-509C671 -514 701 -520 727 -526C741 -245 778 -111 865 28C867 32 870 34 873 34C875 34 877 33 879 31C892 20 918 14 949 17V6C849 -55 777 -219 746 -531C771 -537 791 -543 805 -548C823 -554 841 -557 859 -557C866 -557 877 -555 885 -555C888 -555 890 -557 890 -559C890 -561 889 -563 886 -566L835 -612C739 -567 640 -536 519 -511L463 -556C464 -525 465 -494 465 -463C465 -151 439 -42 270 74L277 86C405 23 478 -75 492 -209C502 -306 508 -412 508 -490C537 -494 566 -498 593 -502ZM233 -859C191 -766 120 -652 33 -540L41 -530C80 -563 138 -628 209 -723H265C289 -696 302 -670 313 -636C318 -621 324 -613 333 -613C350 -613 360 -636 360 -658C360 -675 342 -698 295 -723H491C498 -723 501 -724 501 -727C501 -729 500 -732 497 -736L447 -794L413 -745H225C234 -757 243 -769 252 -782C263 -796 269 -800 291 -807C300 -810 304 -813 304 -816C304 -819 301 -822 295 -825ZM613 -856C582 -784 536 -699 473 -616L484 -608C520 -640 555 -679 587 -724H663C692 -696 708 -670 722 -635C728 -621 733 -613 742 -613C757 -613 768 -631 768 -650C768 -678 744 -702 692 -724H929C938 -724 943 -725 943 -729C943 -731 940 -735 935 -740L876 -803L838 -746H603C611 -757 619 -768 628 -781C641 -799 648 -805 671 -810C677 -812 680 -814 680 -816C680 -818 678 -821 673 -823Z"/>
</svg>