<svg xmlns="http://www.w3.org/2000/svg" viewBox="0 -1000 1000 1000">
	<path fill="#000000" d="M139 -594C141 -565 142 -489 142 -466V-198C142 -109 140 -34 138 3V9C138 20 139 24 144 24C147 24 186 9 186 -9V-85H339V-38C339 -27 340 -22 345 -22C349 -22 355 -25 365 -32C384 -44 388 -48 388 -59V-64C385 -107 383 -167 383 -240V-516C414 -535 417 -537 417 -541C417 -544 414 -546 408 -550L348 -590L323 -553H194ZM339 -259H186V-387H339ZM186 -106V-238H339V-106ZM186 -532H339V-408H186ZM239 -851C198 -756 125 -623 46 -506L55 -496C92 -532 149 -605 222 -714H280C303 -688 321 -658 332 -622C337 -607 343 -599 352 -599C367 -599 379 -618 379 -638C379 -670 338 -697 304 -714H520C527 -714 530 -715 530 -718C530 -720 529 -723 526 -727L472 -785L438 -736H236C245 -749 253 -762 262 -775C272 -790 278 -794 299 -802C307 -805 311 -808 311 -811C311 -814 308 -817 302 -820ZM617 -844C588 -772 515 -642 451 -547L462 -540C499 -577 554 -645 601 -715H696C725 -676 746 -632 750 -605C752 -589 760 -578 769 -578C791 -578 798 -608 798 -620C798 -641 772 -681 719 -715H940C949 -715 954 -716 954 -720C954 -722 951 -726 946 -731L887 -794L849 -737H615C623 -748 630 -760 637 -771C648 -789 655 -796 678 -803C683 -805 686 -807 686 -809C686 -811 684 -814 679 -816ZM629 -623C631 -587 632 -520 632 -481V-331C632 -241 631 -202 629 -171V-166C629 -159 630 -155 635 -155C637 -155 680 -168 680 -187V-191C678 -226 677 -280 677 -338V-556L698 -568C702 -570 705 -573 705 -575C705 -578 702 -581 697 -584ZM810 -329C727 -101 575 0 281 68L283 81C559 40 698 -33 828 -233C836 -246 842 -252 863 -257C876 -260 882 -262 882 -265C882 -268 879 -271 872 -277ZM503 -513C476 -392 440 -284 390 -189L401 -183C451 -249 480 -308 532 -422C541 -441 550 -448 561 -451C568 -453 571 -455 571 -458C571 -461 568 -464 563 -468ZM742 -505C827 -431 863 -376 876 -329C881 -311 891 -296 905 -296C921 -296 930 -314 930 -336C930 -349 927 -362 921 -375C900 -418 862 -451 749 -514Z"/>
</svg>