<svg xmlns="http://www.w3.org/2000/svg" viewBox="0 -1000 1000 1000">
	<path fill="#000000" d="M578 6H432V-162H578ZM194 -231C195 -209 197 -158 197 -133V6H105C82 6 57 5 32 2L60 39C77 32 106 28 127 28H969C977 28 980 26 980 23C980 20 978 16 972 10L918 -44L880 6H809V-144L838 -159C843 -162 846 -164 846 -167C846 -170 843 -174 838 -177L777 -223L753 -185H251ZM389 6H242V-162H389ZM621 6V-162H763V6ZM624 -839C597 -771 560 -690 512 -608L484 -624C486 -591 487 -565 487 -530H225C203 -530 178 -532 155 -534L182 -499C197 -505 226 -509 246 -509H487V-419H141C118 -419 92 -420 68 -423L96 -387C112 -393 142 -397 163 -397H409C351 -354 264 -300 182 -297L213 -239C216 -234 220 -231 225 -231C229 -231 233 -233 237 -235C262 -250 331 -260 778 -284C784 -275 791 -265 797 -253C809 -231 818 -220 826 -220C838 -220 856 -237 856 -260C856 -302 807 -333 684 -378L678 -366C713 -344 746 -319 759 -306L277 -293C361 -326 423 -356 492 -397H929C937 -397 941 -399 941 -402C941 -405 938 -409 933 -414L873 -472L834 -419H533V-509H858C866 -509 869 -511 869 -514C869 -517 867 -521 861 -527L810 -579L767 -530H533V-551C558 -569 561 -571 561 -575C561 -581 558 -583 527 -600C554 -633 578 -666 608 -710H688C711 -678 723 -646 727 -620C729 -604 737 -593 746 -593C768 -593 775 -622 775 -636C775 -655 758 -679 714 -710H947C956 -710 960 -711 960 -715C960 -717 958 -721 953 -726L898 -785L856 -732H622C655 -784 659 -790 685 -798C690 -800 693 -802 693 -804C693 -806 691 -809 686 -811ZM252 -846C211 -751 160 -650 81 -533L94 -525C135 -568 174 -617 235 -709H292C316 -683 334 -653 345 -617C350 -602 356 -594 365 -594C380 -594 392 -613 392 -633V-639C389 -660 363 -686 321 -709H519C528 -709 533 -711 533 -715C533 -718 530 -722 525 -728L477 -780L437 -731H250C258 -743 266 -756 275 -770C285 -785 291 -789 312 -797C320 -800 324 -803 324 -806C324 -809 321 -812 315 -815Z"/>
</svg>