<svg xmlns="http://www.w3.org/2000/svg" viewBox="0 -1000 1000 1000">
	<path fill="#000000" d="M894 -181C888 -9 881 -3 826 3C810 4 784 5 765 5C710 5 703 -8 703 -25V-209H795C795 -179 795 -175 804 -175C809 -175 817 -178 829 -184C842 -190 845 -194 845 -204C845 -207 842 -275 842 -288V-420C847 -423 877 -441 877 -443C877 -446 874 -448 868 -452L806 -494L781 -455H463L408 -493C410 -462 411 -414 411 -390V-321C411 -286 410 -247 408 -213C408 -207 407 -202 407 -198C407 -186 409 -181 416 -181C420 -181 427 -183 436 -187C454 -194 457 -199 457 -209H521C513 -43 454 -2 227 80L233 95C499 26 540 -35 569 -209H657V-30C657 45 664 46 789 46C895 46 916 46 952 -17C954 -20 955 -23 955 -25C955 -28 953 -29 949 -31C921 -43 912 -71 908 -181ZM457 -341V-435H795V-341ZM457 -228V-321H795V-228ZM861 -776L822 -724H439C418 -724 395 -726 373 -728L398 -694C413 -700 440 -704 459 -704H912C921 -704 925 -706 925 -710C925 -713 922 -717 916 -723ZM474 -685C511 -651 529 -610 531 -582C532 -568 541 -560 552 -560C570 -560 580 -586 580 -610C580 -635 530 -675 477 -693ZM558 -844C593 -823 624 -785 637 -750C643 -734 649 -728 657 -728C671 -728 686 -748 686 -771C686 -821 597 -847 560 -853ZM903 -597L859 -544H697C753 -624 771 -642 795 -646C803 -647 807 -650 807 -653C807 -655 804 -658 799 -661L738 -690C719 -635 702 -595 674 -544H467C446 -544 423 -546 401 -548L426 -514C441 -520 468 -524 487 -524H955C963 -524 967 -527 967 -531C967 -534 965 -539 959 -544ZM349 -620L320 -575H249V-777C255 -780 282 -798 282 -801C282 -804 279 -806 273 -809L198 -847C200 -812 202 -751 202 -709V-575H99C78 -575 55 -577 33 -579L58 -545C73 -551 100 -555 119 -555H202V-238L48 -170L89 -117C92 -113 94 -111 96 -111C99 -111 101 -114 103 -118C111 -138 133 -155 166 -174L376 -299L368 -312L249 -259V-555H380C388 -555 392 -556 392 -559C392 -561 390 -565 386 -570Z"/>
</svg>