<svg xmlns="http://www.w3.org/2000/svg" viewBox="0 -1000 1000 1000">
	<path fill="#000000" d="M761 -596L735 -558H442C468 -594 481 -606 499 -613C505 -616 508 -618 508 -620C508 -622 506 -624 501 -626L450 -651C444 -626 436 -606 416 -558H235L181 -601C183 -573 184 -528 184 -506V-425C184 -405 181 -317 181 -299C181 -285 183 -279 191 -279C195 -279 201 -281 210 -284C225 -289 229 -292 229 -301H746C746 -275 746 -272 753 -272C758 -272 764 -273 773 -276C792 -282 796 -285 796 -297V-303C793 -339 791 -388 791 -449V-518L820 -532C825 -534 827 -536 827 -539C827 -541 825 -544 821 -547ZM229 -323V-536H746V-323ZM635 -526C590 -501 546 -478 498 -455C442 -470 375 -486 284 -505L281 -492C350 -470 408 -451 456 -435C397 -407 330 -379 247 -346L252 -335C330 -354 378 -368 501 -419C578 -390 624 -369 647 -350C656 -343 665 -340 672 -340C680 -340 686 -344 688 -351C689 -356 690 -360 690 -364C690 -392 671 -402 551 -440C567 -446 584 -453 602 -461C626 -471 651 -476 666 -476C682 -476 684 -476 684 -480C684 -482 682 -484 678 -488ZM884 -783L844 -728H591C639 -791 645 -798 654 -800C662 -802 666 -805 666 -808C666 -810 662 -814 656 -817L606 -843C567 -762 545 -720 501 -640L515 -634C536 -659 553 -679 574 -706H663C684 -674 694 -649 704 -610C708 -594 715 -586 724 -586C740 -586 755 -607 755 -626C755 -637 748 -669 689 -706H941C950 -706 954 -708 954 -712C954 -715 951 -720 944 -726ZM464 -778L428 -728H216C225 -740 234 -753 243 -767C258 -789 263 -794 275 -797C283 -799 287 -801 287 -804C287 -806 284 -809 277 -813L218 -843C174 -739 103 -612 33 -510L45 -502C79 -537 128 -600 201 -706H270C299 -665 309 -643 317 -605C321 -587 327 -581 335 -581C352 -581 368 -605 368 -625C368 -657 332 -685 297 -706H508C515 -706 519 -708 519 -713C519 -716 517 -721 511 -727ZM879 -124C877 -11 863 13 834 17C801 21 761 23 723 23C681 23 640 21 610 17C563 12 558 6 558 -20V-92C756 -156 787 -165 841 -165C859 -165 861 -165 861 -168C861 -169 860 -172 857 -175L812 -228C759 -199 705 -175 558 -114V-235C582 -249 585 -250 585 -254C585 -257 582 -259 577 -261L510 -294C512 -260 513 -199 513 -162V-4C513 56 533 66 707 66C893 66 899 55 929 5C930 3 931 1 931 0C931 -4 928 -7 925 -8C908 -17 896 -34 895 -124ZM464 -60L215 11V-136H459C467 -136 472 -138 472 -142C472 -146 469 -151 463 -157L415 -210L378 -158H215V-212C241 -227 244 -228 244 -232C244 -234 242 -236 237 -238L167 -277C169 -259 170 -226 170 -187V0C170 17 163 26 137 34L176 79C179 82 181 84 184 84C186 84 188 82 191 79C201 66 214 55 470 -48Z"/>
</svg>