<svg xmlns="http://www.w3.org/2000/svg" viewBox="0 -1000 1000 1000">
	<path fill="#000000" d="M238 -856C197 -761 124 -628 45 -511L54 -501C64 -511 76 -524 90 -541L110 -517C127 -524 156 -528 177 -528H285V-444H179C156 -444 131 -446 106 -448L134 -414C151 -421 180 -425 201 -425H285V-335H124C101 -335 76 -337 51 -339L79 -304C96 -311 125 -316 146 -316H285C285 -307 284 -269 284 -261C284 -251 285 -246 290 -246C294 -246 300 -249 308 -253C327 -263 330 -266 330 -279V-316H487C494 -316 498 -317 498 -320C498 -323 495 -327 489 -333L448 -375L415 -335H330V-425H461C471 -425 476 -426 476 -430C476 -433 472 -438 465 -444L425 -479L397 -444H330V-528H481C491 -528 496 -529 496 -533C496 -536 492 -540 485 -547L447 -583L417 -547H330V-583L349 -597C354 -600 356 -603 356 -606C356 -608 354 -611 349 -613L282 -640C284 -604 285 -580 285 -547H155C137 -547 118 -548 98 -550C140 -602 158 -626 220 -719H305C328 -693 346 -663 357 -627C362 -612 368 -604 377 -604C392 -604 404 -623 404 -643C404 -669 378 -696 333 -719H509C516 -719 519 -720 519 -723C519 -725 518 -728 515 -732L463 -790L423 -741H235C244 -754 252 -767 261 -780C271 -795 277 -799 298 -807C306 -810 310 -813 310 -816C310 -819 307 -822 301 -825ZM603 -849C574 -767 521 -659 469 -570L480 -563C517 -607 549 -649 591 -720H695C721 -691 737 -661 744 -634C747 -619 755 -609 764 -609C773 -609 790 -619 790 -650C790 -668 782 -690 723 -720H926C935 -720 940 -721 940 -725C940 -727 937 -731 932 -736L875 -795L835 -742H604C634 -796 635 -799 664 -808C669 -810 672 -812 672 -814C672 -816 670 -819 665 -821ZM675 -444H600C577 -444 552 -446 527 -448L555 -414C572 -421 601 -425 622 -425H675V-336H570C547 -336 522 -338 497 -340L525 -306C542 -313 571 -317 592 -317H675C675 -307 673 -265 673 -257C673 -249 674 -246 679 -246C682 -246 688 -248 697 -253C716 -263 719 -266 719 -279V-317H934C943 -317 948 -318 948 -321C948 -324 944 -328 938 -334L890 -379L850 -336H719V-425H861C869 -425 873 -426 873 -429C873 -432 870 -436 864 -443L826 -485L791 -444H719V-530H893C902 -530 907 -532 907 -536C907 -539 904 -543 897 -549L851 -589L820 -549H719V-571C743 -589 745 -590 745 -594C745 -598 743 -601 738 -603L672 -631C674 -599 675 -582 675 -549H575C552 -549 527 -551 502 -553L530 -519C547 -526 576 -530 597 -530H675ZM763 -1H203C180 -1 155 -3 130 -5L158 30C175 23 204 19 225 19H763V63C763 72 764 77 770 77C774 77 780 74 790 70C807 62 811 58 811 43V36C809 7 808 -31 808 -59V-189L833 -206C839 -210 842 -212 842 -216C842 -218 839 -221 834 -225L778 -264L751 -228H230C207 -228 182 -230 157 -232L185 -196C202 -203 231 -207 252 -207H763V-115H257C234 -115 209 -117 184 -119L212 -84C229 -91 258 -95 279 -95H763Z"/>
</svg>