<svg xmlns="http://www.w3.org/2000/svg" viewBox="0 -1000 1000 1000">
	<path fill="#000000" d="M737 -368L710 -335H304L245 -380C247 -346 248 -298 248 -263V-122C248 -98 247 -76 244 -35V-31C244 -26 245 -23 249 -23C252 -23 258 -25 267 -29C290 -39 290 -42 290 -66H722V-41C722 -33 723 -30 727 -30C731 -30 737 -32 747 -37C765 -46 769 -48 769 -61C769 -73 765 -126 765 -137V-299L798 -314C803 -316 805 -318 805 -320C805 -322 803 -325 799 -327ZM290 -166V-231H722V-166ZM290 -85V-146H722V-85ZM290 -251V-315H722V-251ZM395 -51C302 3 189 53 78 86L81 97C155 86 245 58 361 18C395 6 433 -2 450 -2C454 -2 456 -3 456 -4C456 -5 454 -7 450 -10ZM456 -780L413 -736H240C253 -751 267 -769 279 -784C290 -797 305 -805 322 -810C327 -811 330 -813 330 -814C330 -816 327 -818 322 -819L255 -842C206 -754 136 -665 44 -557L51 -550C104 -593 164 -652 222 -717H268C301 -684 319 -652 322 -624C324 -604 328 -593 340 -593C358 -593 375 -611 375 -633C375 -642 375 -671 297 -717H498C502 -717 504 -718 504 -720C504 -721 503 -724 500 -727ZM897 -786L851 -736H581C595 -751 611 -769 627 -787C638 -799 657 -806 675 -809C679 -810 681 -811 681 -812C681 -813 679 -815 675 -817L610 -852C573 -788 507 -701 430 -612L439 -605C454 -616 468 -627 481 -639V-583H179C159 -583 141 -585 120 -587L145 -553C160 -559 180 -563 199 -563H481V-500H214C194 -500 176 -502 155 -504L180 -471C195 -476 215 -480 234 -480H481V-418H81C61 -418 43 -420 22 -422L47 -389C62 -395 82 -399 101 -399H946C952 -399 955 -400 955 -402C955 -403 953 -406 949 -409L893 -464L850 -418H522V-480H836C841 -480 843 -481 843 -482C843 -484 841 -486 837 -489L782 -538L747 -500H522V-563H898C906 -563 909 -564 909 -566C909 -568 907 -570 903 -574L848 -626L809 -583H522V-617C525 -619 547 -629 547 -631C547 -632 546 -633 543 -634L495 -652C518 -672 539 -694 561 -717H637C683 -686 711 -647 715 -635C723 -612 728 -605 735 -605C750 -605 766 -624 766 -649C766 -668 738 -695 673 -717H953C959 -717 962 -718 962 -720C962 -722 960 -724 956 -728ZM565 -21C673 -6 788 40 816 59C849 83 858 87 868 87C878 87 889 76 889 60C889 52 886 41 877 31C857 5 722 -29 565 -33Z"/>
</svg>