<svg xmlns="http://www.w3.org/2000/svg" viewBox="0 -1000 1000 1000">
	<path fill="#000000" d="M594 -841C559 -760 520 -700 448 -618L458 -607C464 -612 471 -617 477 -623C478 -605 479 -591 479 -571H171C148 -571 123 -573 98 -575L126 -539C143 -546 172 -550 193 -550H479V-490H251L206 -530C208 -499 209 -459 209 -427V-376C209 -361 206 -293 206 -279C206 -269 208 -264 214 -264C218 -264 224 -266 233 -270C253 -278 253 -281 253 -308H479V-231L100 -223L138 -174C142 -169 146 -167 150 -167C154 -167 158 -168 162 -170C193 -184 232 -191 291 -194L809 -219C814 -214 819 -209 823 -203C843 -176 851 -170 863 -170C874 -170 884 -182 884 -198C884 -253 781 -276 691 -295L688 -286C737 -265 773 -246 786 -237L524 -232V-308H760C760 -295 760 -291 767 -291C771 -291 777 -292 786 -296C804 -303 807 -306 807 -320C807 -331 805 -379 805 -389V-448L831 -463C837 -467 839 -469 839 -472C839 -474 837 -477 831 -481L773 -524L747 -490H524V-550H895C903 -550 907 -553 907 -558C907 -561 904 -566 899 -571L844 -622L807 -571H524V-593C547 -608 550 -610 550 -614C550 -617 546 -619 541 -621L494 -637C532 -672 550 -691 569 -714H633C651 -685 655 -663 656 -634C657 -605 669 -593 684 -593C701 -593 713 -609 713 -635C713 -661 699 -685 658 -714H907C914 -714 918 -715 918 -717C918 -719 915 -722 910 -727L852 -785L814 -738H589C599 -749 608 -762 618 -775C628 -789 640 -797 656 -801C662 -803 665 -804 665 -807C665 -808 662 -811 657 -813ZM479 -331H253V-388H479ZM479 -411H253V-468H479ZM524 -411V-468H760V-411ZM524 -331V-388H760V-331ZM704 -151C730 -163 732 -165 732 -168C732 -170 730 -173 725 -175L654 -206C655 -183 656 -150 656 -120H112C89 -120 67 -122 42 -124L68 -83C85 -90 113 -94 134 -94H260C305 -63 312 -41 320 12C322 26 329 32 336 32C354 32 374 11 374 -16C374 -51 350 -68 292 -94H656V-9C656 6 652 13 618 13C595 13 559 10 501 4L499 19C597 39 613 53 621 90C622 93 623 95 625 95C627 95 628 95 630 94C690 68 704 52 704 1V-94H940C946 -94 949 -96 949 -99C949 -102 947 -105 943 -109L881 -169L845 -120H704ZM241 -839C184 -738 140 -676 37 -565L50 -555C110 -608 157 -652 211 -714H271C292 -685 304 -649 306 -614C307 -597 317 -589 328 -589C342 -589 358 -609 358 -630C358 -640 354 -672 297 -714H491C499 -714 503 -714 503 -716C503 -718 500 -721 494 -727L435 -787L401 -738H232C262 -776 273 -790 300 -796C309 -798 314 -801 314 -805C314 -807 311 -810 305 -813Z"/>
</svg>