<svg xmlns="http://www.w3.org/2000/svg" viewBox="0 -1000 1000 1000">
	<path fill="#000000" d="M427 -376V-470H582V-376ZM382 -492H231L170 -538C172 -509 173 -464 173 -441V-381C173 -371 171 -329 171 -320C171 -313 172 -310 177 -310C181 -310 188 -312 197 -315C218 -323 218 -326 218 -354H787C787 -334 787 -332 793 -332C798 -332 805 -334 816 -339C834 -347 837 -350 837 -361C837 -371 833 -415 833 -424V-452L861 -471C866 -474 868 -477 868 -480C868 -483 866 -486 862 -488L799 -530L773 -492H627V-566H889C898 -566 902 -568 902 -572C902 -576 899 -581 892 -588L840 -639L803 -588H188C165 -588 140 -590 115 -592L143 -555C160 -562 189 -566 210 -566H382ZM218 -376V-470H382V-376ZM787 -470V-376H627V-470ZM582 -492H427V-566H582ZM940 -162C950 -162 955 -163 955 -167C955 -170 952 -175 945 -182L892 -235L848 -184H127C104 -184 79 -186 54 -188L82 -151C99 -158 128 -162 149 -162H484V-18C484 -2 481 6 451 6C431 6 399 3 347 -5L345 8C428 30 450 45 457 77C458 83 460 86 463 86C465 86 468 85 471 83C530 52 534 44 534 -6V-162ZM618 -122C743 -64 800 -20 824 16C835 33 848 39 853 39C865 39 878 28 878 9C878 -3 873 -19 858 -37C836 -64 773 -95 624 -132ZM298 -140C233 -69 156 -9 43 65L51 76C136 38 211 -4 305 -71C324 -84 337 -90 352 -91C360 -92 365 -94 365 -97C365 -99 362 -102 356 -106ZM767 -325L732 -282H258C235 -282 210 -284 185 -286L213 -249C230 -256 259 -260 280 -260H818C827 -260 832 -262 832 -266C832 -270 829 -274 823 -279ZM231 -862C190 -767 113 -639 38 -531L47 -521C85 -557 150 -634 217 -731H296C319 -705 337 -675 348 -639C353 -624 359 -616 368 -616C383 -616 395 -635 395 -655C395 -682 366 -710 320 -731H507C515 -731 520 -735 520 -741C520 -744 518 -747 515 -750L465 -800L427 -753H232C240 -764 247 -775 254 -786C264 -801 270 -805 291 -813C299 -816 303 -819 303 -822C303 -825 300 -828 294 -831ZM620 -855C592 -782 545 -691 490 -604L501 -597C540 -636 571 -673 611 -732H687C710 -700 722 -668 726 -642C728 -626 736 -615 745 -615C766 -615 774 -642 774 -658C774 -679 761 -700 711 -732H943C952 -732 957 -733 957 -737C957 -739 954 -743 949 -748L890 -809L852 -754H625C631 -763 636 -772 642 -781C653 -799 664 -809 681 -814C686 -816 689 -818 689 -820C689 -822 687 -825 682 -827Z"/>
</svg>