<svg xmlns="http://www.w3.org/2000/svg" viewBox="0 -1000 1000 1000">
	<path fill="#000000" d="M243 -859C201 -766 136 -667 46 -561L54 -551C80 -571 107 -596 142 -633C144 -604 145 -565 145 -515V-106C145 -46 144 8 142 64V70C142 80 144 85 150 85C154 85 161 83 170 79C187 72 191 67 191 55V24H813V69C813 77 814 80 820 80C823 80 829 78 838 75C859 66 863 63 863 49V43C860 0 858 -40 858 -105V-547L884 -565C889 -568 891 -571 891 -574C891 -577 890 -579 886 -582L822 -625L798 -587H209L147 -638C168 -661 193 -690 218 -723H275C298 -697 313 -670 323 -636C327 -621 334 -613 343 -613C357 -613 372 -630 372 -648C372 -667 351 -696 303 -723H491C498 -723 501 -724 501 -727C501 -729 500 -732 497 -736L447 -794L413 -745H235C244 -757 253 -769 262 -782C273 -796 279 -800 301 -807C310 -810 314 -813 314 -816C314 -819 311 -822 305 -825ZM620 -538C657 -526 670 -510 680 -496C690 -481 698 -479 709 -479C715 -479 720 -490 720 -503C720 -539 688 -543 621 -548ZM547 -567C545 -525 545 -486 545 -452H282C259 -452 235 -454 210 -456L238 -421C255 -427 283 -431 304 -431H545C548 -312 560 -242 585 -190C537 -134 472 -85 379 -31L388 -19C489 -67 553 -103 603 -153C652 -71 751 -31 773 -31C778 -31 782 -32 782 -38C782 -43 779 -50 770 -64C757 -87 749 -117 749 -180C749 -197 750 -217 751 -239L733 -240L717 -132C715 -119 713 -112 707 -112C706 -112 664 -127 633 -186C662 -223 687 -267 715 -327C721 -341 727 -346 745 -351C750 -353 753 -355 753 -357C753 -359 751 -361 747 -364L690 -401C669 -331 646 -276 613 -227C594 -273 586 -335 587 -431H778C785 -431 788 -433 788 -436C788 -438 786 -442 782 -447L742 -493L706 -452H587C587 -471 588 -491 589 -513C598 -521 613 -533 613 -536C613 -538 611 -540 606 -543L560 -567H813V3H191V-567ZM276 -408C277 -389 277 -360 277 -346V-271C277 -261 276 -219 276 -210C276 -203 278 -200 283 -200C290 -200 319 -208 319 -223V-240H440C440 -214 440 -211 445 -211C450 -211 485 -221 485 -233C485 -240 482 -273 482 -280V-327L509 -344C513 -346 515 -349 515 -351C515 -353 513 -355 508 -358L451 -394L429 -363H329ZM319 -260V-343H440V-260ZM529 -194L212 -122L244 -74C246 -71 248 -70 250 -70C253 -70 256 -72 259 -76C271 -90 292 -100 357 -123L533 -183ZM623 -856C590 -780 546 -705 483 -622L494 -614C530 -646 558 -673 597 -724H674C701 -698 720 -674 732 -637C737 -624 743 -615 752 -615C767 -615 778 -633 778 -652C778 -669 768 -696 702 -724H926C935 -724 940 -725 940 -729C940 -731 937 -735 932 -740L878 -797L838 -746H613C621 -757 629 -768 638 -781C651 -799 658 -805 681 -810C687 -812 690 -814 690 -816C690 -818 688 -821 683 -823Z"/>
</svg>