<svg xmlns="http://www.w3.org/2000/svg" viewBox="0 -1000 1000 1000">
	<path fill="#000000" d="M242 -856C204 -733 144 -631 64 -522L71 -513C146 -589 162 -610 225 -706H307C327 -669 335 -636 337 -611C339 -587 346 -576 354 -576C370 -576 386 -598 386 -620C386 -644 359 -677 329 -706H541C551 -706 555 -709 555 -713C555 -717 552 -721 547 -727L496 -782L462 -728H238C250 -747 262 -769 269 -782C277 -797 283 -801 304 -809C309 -811 311 -813 311 -816C311 -819 309 -821 306 -823ZM643 -854C609 -753 581 -691 518 -590L532 -581C573 -630 601 -666 622 -701H700C726 -665 741 -627 746 -601C750 -581 755 -573 765 -573C779 -573 792 -594 792 -615C792 -630 792 -644 724 -701H955C962 -701 965 -704 965 -708C965 -712 963 -716 958 -721L898 -780L864 -723H635C646 -740 657 -758 670 -782C680 -800 683 -807 706 -811C711 -812 713 -814 713 -817C713 -820 709 -823 704 -826ZM382 -52V-234C403 -245 405 -246 405 -249C405 -251 402 -253 396 -256L334 -282C336 -252 338 -198 338 -165V-45L265 -32L304 22C307 24 309 25 310 25C312 25 314 24 316 22C331 9 373 -9 408 -19L668 -91L665 -101L518 -76V-205H648C660 -205 665 -206 665 -210C665 -213 662 -217 655 -224L609 -269L581 -224H518V-331H668C679 -331 684 -332 684 -336C684 -338 681 -342 676 -347L629 -392L601 -353H518V-494H641C652 -494 658 -496 658 -501C658 -504 654 -509 648 -516L610 -556L583 -516H421C460 -581 464 -588 485 -593C490 -595 492 -597 492 -599C492 -600 491 -602 487 -604L422 -634C388 -533 362 -472 300 -380L310 -373C353 -420 380 -455 407 -494H474V-353H349C326 -353 301 -355 276 -357L304 -322C321 -328 350 -331 371 -331H474V-68ZM683 -561C684 -532 686 -481 686 -450V-92C686 -67 683 42 683 64C683 76 685 82 693 82C697 82 703 80 711 77C730 70 734 67 734 55V50C732 26 730 -35 730 -98V-504H850V-151C850 -130 846 -119 805 -119C791 -119 771 -120 746 -123L744 -111C799 -99 819 -89 824 -73C826 -66 829 -63 834 -63C837 -63 840 -64 843 -65C888 -85 894 -95 894 -141V-484C920 -496 923 -497 923 -501C923 -503 920 -507 913 -512L863 -552L838 -523H735ZM163 -73C163 -15 162 24 160 68V73C160 81 162 85 168 85C172 85 178 83 187 80C208 73 212 70 212 58V53C209 17 208 -20 208 -80V-349C231 -376 256 -407 283 -442C295 -457 300 -461 319 -462C324 -463 326 -465 326 -468C326 -471 324 -474 321 -476L263 -510C173 -359 134 -306 19 -171L29 -164C74 -205 116 -245 163 -297ZM242 -626C180 -532 122 -459 51 -385L59 -376C143 -445 192 -489 257 -571C268 -584 273 -587 289 -590C296 -591 299 -593 299 -595C299 -596 297 -598 292 -601Z"/>
</svg>