<svg xmlns="http://www.w3.org/2000/svg" viewBox="0 -1000 1000 1000">
	<path fill="#000000" d="M695 -171C695 -148 695 -145 701 -145C705 -145 712 -147 723 -151C740 -157 743 -162 743 -175C743 -185 741 -240 741 -252V-380C829 -312 878 -300 884 -300C887 -300 890 -301 891 -303C905 -325 933 -339 973 -341L974 -351C896 -354 829 -372 756 -416C825 -452 834 -454 854 -455C861 -456 864 -457 864 -459C864 -462 862 -464 858 -468L813 -507C792 -483 758 -449 734 -429C695 -455 656 -487 615 -526H891C899 -526 903 -528 903 -532C903 -535 901 -538 896 -542L850 -585L813 -547H485C493 -557 500 -567 507 -577C515 -589 524 -597 539 -598C548 -599 552 -601 552 -604C552 -608 549 -612 542 -616L488 -651C470 -610 450 -574 431 -547H201C179 -547 154 -549 131 -551L158 -518C173 -524 202 -526 222 -526H415C343 -432 193 -328 32 -269L38 -257C115 -279 191 -309 262 -350V-239C262 -208 261 -174 259 -154V-151C259 -144 261 -141 268 -141C272 -141 277 -142 285 -145C304 -152 306 -155 307 -171H488V-22C488 2 485 14 458 14C439 14 407 8 354 -5L351 9C435 39 450 52 457 85C458 89 460 91 464 91C465 91 467 90 469 89C523 63 534 49 534 8V-171ZM307 -303V-378C313 -382 318 -386 324 -390H695V-303ZM307 -192V-282H695V-192ZM352 -411C399 -448 433 -482 468 -526H595C627 -484 665 -445 703 -411ZM173 -482C213 -462 227 -446 240 -409C243 -402 247 -398 254 -398C262 -398 278 -404 278 -425C278 -475 220 -487 177 -495ZM242 -863C204 -766 134 -639 54 -529L66 -521C115 -572 175 -645 227 -728H292C327 -691 339 -666 349 -630C356 -606 364 -596 373 -596C386 -596 399 -610 399 -634C399 -682 363 -708 326 -728H510C519 -728 523 -730 523 -735C523 -739 520 -744 514 -750L466 -799L431 -750H241C276 -805 284 -810 299 -816C304 -818 307 -820 307 -823C307 -825 305 -827 301 -829ZM613 -859C587 -789 553 -720 506 -651L518 -645C552 -681 590 -723 595 -731H703C736 -692 749 -658 755 -627C759 -602 766 -591 777 -591C793 -591 804 -611 804 -638C804 -667 792 -689 730 -731H945C953 -731 958 -734 958 -738C958 -742 955 -747 949 -753L897 -806L856 -753H609C632 -789 649 -809 665 -818C671 -822 674 -825 674 -828C674 -830 672 -832 668 -834ZM300 -124C234 -52 148 11 57 62L64 73C153 38 217 4 313 -65C321 -71 334 -74 345 -75C352 -76 355 -78 355 -80C355 -82 353 -85 350 -87ZM641 -104C748 -60 798 -20 834 34C836 38 844 53 857 53C874 53 885 38 885 19C885 6 880 -8 869 -22C846 -52 791 -82 645 -115Z"/>
</svg>