<svg xmlns="http://www.w3.org/2000/svg" viewBox="0 -1000 1000 1000">
	<path fill="#000000" d="M140 -493C117 -493 92 -495 67 -497L94 -460C111 -467 141 -471 162 -471H343C275 -394 174 -324 45 -252L53 -240C158 -288 249 -343 325 -406C326 -398 326 -391 326 -382V-321C326 -313 324 -279 324 -272C324 -264 325 -261 331 -261C334 -261 338 -262 344 -264C367 -272 367 -272 367 -296H632C632 -266 632 -262 639 -262C640 -262 678 -271 678 -284C678 -291 674 -317 674 -323V-370C696 -381 699 -382 699 -387C699 -389 697 -391 693 -394L642 -435L619 -411H362L341 -420C360 -436 379 -454 394 -471H654C690 -393 738 -342 859 -278C865 -275 869 -274 873 -274C877 -274 880 -276 884 -280C903 -303 920 -309 964 -309V-320C817 -340 726 -384 674 -471H899C910 -471 915 -473 915 -478C915 -481 911 -487 905 -493L851 -548L809 -493H415C433 -513 449 -535 464 -556C540 -560 633 -566 710 -572C718 -573 725 -573 732 -573C740 -573 773 -569 780 -569C786 -569 789 -570 789 -573C789 -575 787 -577 785 -579L752 -617C633 -598 526 -584 129 -563L131 -550C203 -548 312 -550 404 -554C392 -533 378 -512 362 -493ZM627 -851C598 -779 555 -693 499 -604L510 -597C551 -642 590 -691 611 -722H695C724 -696 742 -672 752 -643C757 -628 766 -621 774 -621C780 -621 796 -628 796 -657C796 -681 790 -697 724 -722H934C943 -722 948 -723 948 -727C948 -729 945 -733 940 -738L881 -801L843 -744H625C632 -754 640 -766 647 -778C658 -796 665 -803 688 -810C693 -812 696 -814 696 -816C696 -818 694 -821 689 -823ZM367 -318V-389H632V-318ZM338 -199C340 -182 340 -169 340 -153V-57C340 -49 338 -14 338 -7C338 0 339 4 344 4C347 4 352 2 358 0C378 -7 381 -10 381 -22V-43H606C606 -10 606 -6 613 -6C614 -6 652 -15 652 -28C652 -35 648 -61 648 -67V-125C652 -127 675 -139 675 -142C675 -144 673 -146 670 -150L620 -189L597 -160H387ZM381 -63V-140H606V-63ZM241 -848C200 -753 129 -630 48 -513L57 -503C95 -539 156 -617 226 -721H285C311 -693 327 -668 336 -629C340 -614 347 -606 356 -606C371 -606 383 -625 383 -645C383 -665 368 -694 315 -721H508C516 -721 520 -724 520 -729C520 -731 519 -734 516 -738L474 -792L432 -743H241C249 -754 256 -766 264 -778C274 -793 280 -797 301 -805C310 -808 314 -811 314 -815C314 -817 311 -820 304 -823ZM781 -215V-19C781 2 779 12 747 12C729 12 701 9 658 3L656 18C729 37 747 44 751 73C752 82 754 86 759 86C761 86 764 85 768 83C821 57 826 45 826 -25V-199C852 -214 855 -216 855 -220C855 -223 853 -226 848 -230L798 -268L774 -237H223L169 -282C171 -248 172 -199 172 -162V-86C172 -14 171 36 170 53C170 59 169 63 169 67C169 78 171 82 176 82C180 82 185 80 192 77C215 67 219 64 219 51V45C217 12 216 -25 216 -67V-215Z"/>
</svg>