<svg xmlns="http://www.w3.org/2000/svg" viewBox="0 -1000 1000 1000">
	<path fill="#000000" d="M485 -809L464 -768H210L146 -815C148 -787 149 -744 149 -722V-598C149 -581 147 -505 147 -490C147 -479 148 -474 154 -474C158 -474 165 -477 175 -482C193 -492 193 -495 193 -522H314V-424H171C148 -424 123 -426 98 -428L126 -392C143 -399 172 -403 193 -403H314V-308L77 -288L105 -242C108 -237 111 -235 114 -235C117 -235 120 -236 124 -239C138 -250 176 -261 261 -273L543 -313L541 -328L357 -312V-403H535C544 -403 548 -405 548 -409C548 -413 545 -418 539 -424L492 -471L455 -424H357V-522H480C480 -496 480 -493 487 -493C491 -493 497 -495 506 -499C522 -506 527 -510 527 -524V-532C525 -557 524 -585 524 -625V-729L545 -748C551 -753 554 -756 554 -759C554 -763 551 -765 544 -770ZM357 -653V-747H480V-653ZM193 -653V-747H314V-653ZM357 -543V-632H480V-543ZM193 -543V-632H314V-543ZM862 -789L831 -756H645C622 -756 597 -758 572 -760L601 -725C618 -732 646 -735 667 -735H829L749 -637C728 -658 708 -669 649 -698L642 -687C692 -643 712 -616 725 -578C730 -563 735 -556 746 -556C758 -556 769 -576 769 -597C769 -607 766 -617 760 -626C854 -712 874 -722 910 -728C917 -729 921 -731 921 -734C921 -737 918 -740 913 -745ZM896 -585L867 -552H614C591 -552 566 -554 541 -556L569 -520C586 -527 615 -531 636 -531H711V-331C711 -310 708 -300 680 -300C662 -300 634 -304 590 -312L588 -300C652 -279 666 -271 676 -245C679 -236 684 -232 690 -232C691 -232 692 -233 693 -233C747 -257 754 -265 754 -312V-531H873L818 -428L830 -420C878 -487 924 -515 954 -520C960 -521 963 -523 963 -526C963 -529 960 -533 953 -538ZM883 -42L843 13H523V-130H834C844 -130 849 -133 849 -137C849 -140 845 -145 839 -151L786 -202L744 -151H523V-225C557 -243 557 -243 557 -247C557 -250 553 -253 546 -256L474 -285C476 -250 477 -226 477 -187V-151H239C217 -151 192 -153 169 -155L196 -120C211 -126 240 -130 260 -130H477V13H113C90 13 64 11 40 9L68 44C84 38 114 34 135 34H939C948 34 952 31 952 26C952 22 950 18 944 13Z"/>
</svg>