<svg xmlns="http://www.w3.org/2000/svg" viewBox="0 -1000 1000 1000">
	<path fill="#000000" d="M516 -87H251V-158H516ZM279 -367C212 -265 117 -160 26 -82L36 -70C99 -116 142 -150 207 -214V-60C207 2 206 33 204 65C204 69 203 72 203 74C203 82 205 86 210 86C214 86 220 84 229 80C251 71 251 68 251 32H920C928 32 932 30 932 25C932 22 929 17 924 12L874 -39L833 12H560V-67H829C838 -67 843 -68 843 -72C843 -75 839 -80 833 -87L789 -136L752 -87H560V-158H823C829 -158 833 -159 833 -163C833 -165 830 -169 825 -175L778 -225L743 -178H560V-248H871C878 -248 882 -251 882 -255C882 -258 879 -263 873 -268L818 -318L780 -268H258C297 -312 306 -314 326 -318C334 -320 338 -322 338 -325C338 -327 336 -330 331 -333ZM251 12V-67H516V12ZM516 -178H251V-248H516ZM233 -859C191 -766 132 -668 45 -556L53 -546C92 -579 142 -633 209 -723H277C296 -705 305 -687 313 -657C317 -642 324 -634 333 -634C348 -634 361 -651 361 -669C361 -690 343 -707 312 -723H481C488 -723 491 -724 491 -727C491 -729 490 -732 487 -736L447 -794L413 -745H225C234 -757 243 -769 252 -782C263 -796 269 -800 291 -807C300 -810 304 -813 304 -816C304 -819 301 -822 295 -825ZM613 -856C581 -782 541 -709 489 -638L500 -630C532 -658 557 -685 587 -724H672C695 -705 708 -685 715 -661C720 -646 726 -639 734 -639C749 -639 760 -654 760 -671C760 -679 759 -703 714 -724H929C939 -724 943 -725 943 -728C943 -731 940 -735 935 -740L876 -803L838 -746H603C611 -757 619 -768 628 -781C641 -799 648 -805 671 -810C677 -812 680 -814 680 -816C680 -818 678 -821 673 -823ZM459 -366C494 -342 513 -319 524 -296C534 -275 539 -272 550 -272C563 -272 576 -288 576 -307C576 -339 549 -353 465 -376ZM424 -394H232V-374H424ZM795 -395H589V-375H795ZM422 -466H237V-446H422ZM780 -466H591V-446H780ZM486 -539H172C173 -551 172 -565 171 -579H159C143 -509 130 -489 101 -474C73 -460 67 -449 67 -436C67 -413 92 -411 98 -411C130 -411 165 -450 171 -519H486C486 -501 485 -423 485 -407C485 -396 488 -391 495 -391C499 -391 506 -393 514 -397C531 -405 534 -409 534 -421C534 -437 532 -505 532 -519H867L824 -428L835 -420C885 -485 902 -500 938 -503C946 -504 950 -505 950 -508C950 -510 947 -514 941 -519L882 -572L858 -539H532V-602H845C854 -602 858 -605 858 -609C858 -613 856 -617 851 -622L803 -669L764 -622H257C236 -622 213 -624 191 -626L216 -592C231 -598 258 -602 277 -602H486Z"/>
</svg>