<svg xmlns="http://www.w3.org/2000/svg" viewBox="0 -1000 1000 1000">
	<path fill="#000000" d="M815 -503C783 -360 753 -271 700 -185C646 -262 604 -379 584 -503ZM487 -769C489 -715 489 -654 489 -595C489 -248 474 -101 337 48L347 60C489 -71 521 -164 531 -503H562C586 -343 621 -229 675 -147C613 -62 526 9 399 79L407 93C568 15 636 -37 699 -113C768 -23 870 46 877 46C880 46 882 44 884 41C895 24 926 11 977 12V-1C874 -30 795 -75 728 -151C785 -232 825 -330 860 -461C866 -485 881 -506 895 -509C904 -511 908 -513 908 -516C908 -519 905 -522 900 -526L839 -570L807 -525H531C532 -575 533 -633 533 -696C638 -713 730 -730 825 -749C861 -756 881 -759 893 -759C896 -759 909 -757 912 -757C916 -757 917 -758 917 -760C917 -762 916 -765 912 -769L867 -819C779 -780 673 -747 549 -721ZM51 -86C132 -183 193 -277 235 -387V-102C235 -45 233 32 231 60V70C231 82 233 87 239 87C240 87 281 73 281 49C281 23 279 -92 279 -115V-389C320 -352 347 -306 360 -267C367 -247 373 -240 387 -240C400 -240 412 -256 412 -277C412 -285 410 -295 406 -304C396 -327 361 -361 279 -406V-464H443C452 -464 456 -466 456 -471C456 -474 453 -479 448 -484L396 -537L363 -486H279V-762C311 -784 312 -785 312 -789C312 -792 308 -795 299 -800L231 -836C233 -798 235 -731 235 -690V-486H107C84 -486 59 -487 34 -490L62 -453C79 -460 108 -464 129 -464H221C184 -348 119 -216 39 -96ZM389 -740C369 -676 337 -591 308 -529L319 -522L409 -658C426 -684 433 -689 449 -693C455 -695 457 -697 457 -699C457 -701 455 -704 450 -706ZM67 -717C120 -644 133 -601 135 -561C136 -541 143 -532 156 -532C173 -532 189 -549 189 -574C189 -578 188 -582 187 -587C180 -617 165 -648 75 -725Z"/>
</svg>