<svg xmlns="http://www.w3.org/2000/svg" viewBox="0 -1000 1000 1000">
	<path fill="#000000" d="M532 -386L556 -404C560 -407 562 -409 562 -410C562 -412 559 -414 555 -416L482 -449C484 -412 486 -368 486 -339V-237H141C118 -237 93 -239 68 -241L96 -204C113 -211 142 -215 163 -215H419C337 -122 179 -14 39 54L44 65C200 12 365 -91 486 -211V-61C486 -38 482 64 482 84C482 92 483 96 488 96C492 96 500 93 511 88C530 80 534 75 534 61C534 41 532 -47 532 -65V-215H543C649 -60 699 -9 847 40C851 41 853 42 855 42C858 42 860 40 861 38C871 17 887 8 971 0V-14C785 -29 724 -47 565 -215H957C965 -215 968 -216 968 -219C968 -221 966 -225 961 -230L907 -291L870 -237H532ZM586 -771L616 -789C622 -793 625 -796 625 -799C625 -801 622 -804 617 -807L536 -849C538 -825 539 -780 539 -734V-503C539 -440 545 -429 706 -429C877 -429 890 -434 917 -486C918 -489 919 -491 919 -493C919 -496 916 -499 910 -501C890 -508 880 -536 877 -630H862C854 -490 848 -483 814 -478C785 -474 731 -471 686 -471C612 -471 586 -478 586 -506V-586C781 -674 821 -692 845 -692C846 -692 854 -691 855 -691C859 -691 862 -692 862 -695C862 -697 860 -700 857 -703L805 -756C753 -706 681 -657 586 -605ZM725 -411C693 -352 662 -302 624 -249L634 -243C746 -354 759 -361 781 -363C786 -364 788 -365 788 -367C788 -369 786 -371 782 -373ZM245 -397C284 -365 310 -320 320 -275C322 -265 329 -257 335 -257C353 -257 368 -276 368 -298C368 -331 331 -363 255 -406ZM245 -773L274 -789C279 -792 282 -794 282 -797C282 -800 279 -802 273 -806L196 -849C198 -813 199 -769 199 -730V-494C199 -477 189 -468 153 -456L193 -402C195 -399 197 -398 200 -398C203 -398 207 -400 211 -404C228 -423 273 -448 492 -526L488 -540L245 -473V-642H502C510 -642 514 -643 514 -647C514 -650 511 -655 505 -662L458 -715L425 -664H245Z"/>
</svg>