<svg xmlns="http://www.w3.org/2000/svg" viewBox="0 -1000 1000 1000">
	<path fill="#000000" d="M367 28C466 -46 550 -127 658 -295V-71C658 -14 657 23 655 61V64C655 73 658 77 665 77C666 77 706 69 706 47V43C704 24 702 -37 702 -79V-299H720C755 -183 799 -105 884 -19C890 -13 893 -11 896 -11C899 -11 901 -13 903 -15C915 -27 934 -35 960 -35C965 -35 970 -35 976 -34V-45C863 -95 789 -185 736 -299H948C957 -299 961 -301 961 -305C961 -308 958 -313 953 -318L903 -370L862 -321H702V-448H830C830 -414 830 -411 837 -411C838 -411 878 -421 878 -442V-446C875 -492 874 -531 874 -581V-749C901 -768 904 -770 904 -774C904 -777 902 -780 896 -783L839 -819L816 -783H536L483 -825C485 -794 486 -770 486 -746V-549C486 -497 485 -461 482 -416C482 -412 481 -409 481 -407C481 -399 483 -395 488 -395C490 -395 530 -405 530 -427V-448H658V-321H511C488 -321 463 -323 438 -325L466 -288C483 -295 512 -299 533 -299H607C553 -201 450 -70 356 19ZM658 -470H530V-602H658ZM530 -761H658V-624H530ZM830 -470H702V-602H830ZM702 -761H830V-624H702ZM36 -130C127 -237 192 -329 238 -414V-108C238 -81 234 45 234 61C234 75 236 81 242 81C246 81 252 78 260 73C283 58 285 54 285 38C284 3 283 -67 283 -121V-413C329 -372 359 -325 373 -286C380 -264 387 -259 397 -259C412 -259 425 -271 425 -292C425 -337 371 -377 283 -429V-490H448C455 -490 459 -493 459 -497C459 -500 456 -505 451 -510L397 -559L368 -512H283V-779C312 -798 315 -800 315 -805C315 -809 311 -813 303 -817L234 -853C236 -815 238 -748 238 -707V-512H115C92 -512 67 -513 42 -516L70 -479C87 -486 116 -490 137 -490H227C178 -382 110 -262 24 -140ZM78 -743C127 -674 144 -627 146 -587C147 -567 154 -558 167 -558C187 -558 198 -580 198 -607C198 -640 182 -669 88 -753ZM390 -758C370 -694 336 -611 307 -549L320 -546L406 -678C423 -704 430 -709 446 -713C451 -715 454 -718 454 -722C454 -725 452 -728 447 -730Z"/>
</svg>