<svg xmlns="http://www.w3.org/2000/svg" viewBox="0 -1000 1000 1000">
	<path fill="#000000" d="M864 -721V-56C864 -30 860 -18 825 -18C800 -18 759 -24 694 -36L691 -21C783 2 810 20 818 55C820 63 824 67 828 67C830 67 832 66 834 65C905 24 908 17 908 -82V-698L939 -717C944 -720 947 -724 947 -727C947 -731 944 -735 939 -739L878 -790L843 -743H492L431 -799C433 -762 435 -684 435 -643V-108C435 -51 434 -10 432 49V54C432 66 434 72 442 72C447 72 453 70 462 65C474 59 478 53 478 37V31C476 -5 476 -55 476 -123V-721ZM289 -227C330 -167 339 -129 339 -81C339 -50 343 -44 356 -44C374 -44 388 -58 388 -83C388 -87 388 -91 387 -95C382 -128 359 -174 300 -235ZM102 -241C105 -236 108 -233 111 -233C114 -233 118 -236 124 -241C138 -254 194 -274 334 -312C337 -298 339 -283 339 -269C339 -250 345 -242 357 -242C372 -242 386 -261 386 -283C386 -294 385 -350 295 -424L287 -417C306 -392 323 -355 330 -330L140 -296C204 -383 277 -491 335 -586C347 -606 357 -614 374 -619C383 -622 387 -624 387 -627C387 -630 383 -634 376 -640L324 -680C315 -653 286 -591 245 -514L114 -518C153 -578 209 -685 231 -737C242 -763 260 -778 274 -782C284 -785 288 -787 288 -790C288 -793 285 -796 278 -800L216 -834C202 -773 147 -626 118 -566C103 -536 86 -530 52 -525L76 -472C78 -467 81 -464 86 -464C89 -464 93 -466 98 -469C114 -479 170 -490 236 -498C206 -443 174 -387 148 -344C132 -318 107 -303 71 -299ZM735 -508V-267H601V-508ZM735 -247V-177C735 -169 737 -165 742 -165C745 -165 750 -167 757 -170C771 -176 776 -183 776 -198C776 -206 774 -264 774 -276V-490C801 -506 804 -508 804 -513C804 -517 802 -520 797 -524L745 -567L715 -528H612L559 -570C561 -542 562 -525 562 -496V-252C562 -221 561 -195 559 -172V-165C559 -157 561 -153 567 -153C572 -153 601 -156 601 -192V-247ZM199 -198C214 -164 221 -136 221 -106C221 -86 218 -65 211 -40C211 -38 210 -36 210 -34C210 -22 217 -10 226 -10C265 -10 270 -56 270 -62C270 -89 253 -144 212 -207ZM118 -197C110 -105 91 -69 54 -20C46 -10 43 0 43 9C43 30 62 39 74 39C91 39 139 24 139 -117C139 -144 137 -172 133 -200Z"/>
</svg>