<svg xmlns="http://www.w3.org/2000/svg" viewBox="0 -1000 1000 1000">
	<path fill="#000000" d="M556 -28V-290H815V-28ZM336 -237C394 -157 401 -114 401 -75C401 -35 405 -27 420 -27C436 -27 458 -45 458 -81C458 -112 449 -151 349 -247ZM738 -673C787 -620 836 -548 866 -492L498 -482C550 -548 604 -635 680 -765C692 -785 695 -788 713 -797C723 -802 728 -806 728 -810C728 -813 724 -817 716 -821L655 -854C622 -755 561 -627 516 -552C488 -505 464 -492 420 -486L461 -427C465 -421 468 -419 472 -419C475 -419 479 -420 485 -423C515 -437 599 -448 876 -473C884 -456 890 -441 893 -430C900 -405 905 -400 918 -400C935 -400 951 -417 951 -445C951 -452 950 -459 948 -467C940 -500 880 -576 748 -684ZM322 -439C350 -405 377 -364 390 -329L146 -324C192 -375 299 -508 392 -632C403 -646 406 -649 429 -656C440 -659 445 -662 445 -666C445 -669 441 -673 433 -680L381 -723C362 -680 326 -617 281 -547L111 -556C151 -609 209 -685 259 -757C272 -776 283 -785 305 -794C314 -798 319 -800 319 -804C319 -806 315 -810 308 -815L252 -855C223 -788 182 -708 136 -637C95 -574 83 -568 39 -561L71 -497C74 -492 76 -490 79 -490C82 -490 86 -492 92 -496C108 -508 165 -521 268 -528C137 -336 124 -333 70 -323L101 -263C105 -257 107 -254 111 -254C114 -254 117 -255 122 -258C163 -282 220 -292 396 -311C399 -303 400 -295 400 -288C401 -255 408 -247 423 -247C441 -247 457 -268 457 -296C457 -301 457 -306 456 -311C451 -336 420 -381 331 -449ZM831 -354L801 -312H567L506 -370C508 -339 509 -291 509 -267V-105C509 -34 508 38 506 57C505 63 505 68 505 72C505 80 507 83 512 83C516 83 522 81 531 77C554 67 556 64 556 52V-6H815V65C815 75 816 79 822 79C823 79 866 66 866 50V46C863 0 862 -53 862 -131V-271L894 -290C900 -294 902 -296 902 -299C902 -301 900 -304 894 -308ZM220 -218C247 -173 258 -105 258 -66C258 -59 253 -29 253 -23C253 -6 262 1 273 1C298 1 314 -35 314 -58C314 -92 287 -155 232 -227ZM135 -214C136 -205 136 -196 136 -187C136 -110 109 -45 78 -10C61 8 55 20 55 30C55 41 66 52 80 52C98 52 121 38 133 17C149 -9 159 -58 159 -120C159 -149 157 -181 152 -215Z"/>
</svg>