<svg xmlns="http://www.w3.org/2000/svg" viewBox="0 -1000 1000 1000">
	<path fill="#000000" d="M884 -508C836 -472 780 -437 726 -406C700 -434 677 -469 655 -512H810C810 -496 810 -492 816 -492C819 -492 825 -494 835 -499C853 -508 857 -512 857 -525V-531C854 -573 853 -612 853 -658V-741L882 -756C888 -759 891 -762 891 -765C891 -768 888 -771 882 -776L829 -820L794 -779H561L512 -823C513 -796 514 -707 514 -670V-347C514 -317 511 -313 474 -288L521 -248C523 -247 525 -246 527 -246C529 -246 531 -247 533 -249C562 -278 580 -292 698 -356L691 -370L558 -318V-512H637C676 -394 723 -345 871 -247C874 -245 875 -245 877 -245C880 -245 882 -246 884 -249C900 -269 915 -278 969 -278L971 -291C866 -308 795 -337 738 -394C771 -407 812 -424 880 -451C890 -455 902 -457 928 -457C935 -457 939 -458 939 -460C939 -462 937 -465 933 -468ZM558 -655V-758H810V-655ZM558 -533V-634H810V-533ZM421 -721C336 -651 233 -591 69 -518L73 -507C146 -524 209 -548 294 -592C299 -586 303 -579 307 -572C249 -510 178 -458 72 -405L76 -392C168 -423 251 -468 326 -534C331 -523 336 -510 341 -496C272 -406 202 -354 82 -291L89 -278C195 -320 268 -362 357 -446C364 -418 367 -392 367 -370C367 -285 325 -279 269 -279C251 -279 229 -280 203 -282V-269C275 -252 294 -240 301 -216C302 -210 305 -208 309 -208C315 -208 413 -243 413 -351C413 -421 392 -510 306 -599C338 -616 372 -636 410 -659C431 -672 438 -674 465 -676C472 -677 476 -678 476 -680C476 -682 473 -684 468 -688ZM860 -57L821 1H521V-125H817C827 -125 832 -126 832 -130C832 -132 828 -137 822 -143L762 -201L722 -147H521V-186L543 -201C547 -204 549 -206 549 -208C549 -211 546 -213 539 -216L472 -246C474 -212 476 -184 476 -147H236C214 -147 189 -149 166 -151L193 -115C208 -121 237 -125 257 -125H476V1H121C98 1 72 -1 48 -3L76 33C92 27 122 23 143 23H923C933 23 938 21 938 18C938 15 935 11 929 6ZM387 -849C306 -792 188 -741 77 -694L83 -683C107 -689 131 -696 155 -703C181 -674 188 -657 194 -629C197 -613 202 -604 215 -604C225 -604 235 -616 235 -632C235 -664 198 -690 167 -707C200 -718 233 -730 268 -744C284 -726 297 -703 303 -680C307 -666 314 -659 323 -659C331 -659 347 -668 347 -683C347 -701 321 -727 283 -750C315 -763 349 -778 385 -794C394 -799 412 -803 424 -803C438 -803 439 -803 439 -806C439 -808 436 -811 432 -814Z"/>
</svg>