<svg xmlns="http://www.w3.org/2000/svg" viewBox="0 -1000 1000 1000">
	<path fill="#000000" d="M642 -365V-469H786V-365ZM598 -490H392C369 -490 344 -492 319 -494L347 -458C364 -465 393 -469 414 -469H598V-365H466C443 -365 418 -367 393 -369L421 -332C438 -339 467 -343 488 -343H786V-313C786 -304 788 -300 794 -300C798 -300 804 -302 813 -305C833 -312 837 -315 837 -325C837 -339 832 -418 832 -436V-469H954C963 -469 968 -470 968 -474C968 -477 965 -481 958 -488L909 -540L872 -490H832V-575L859 -593C863 -596 865 -598 865 -600C865 -603 863 -605 859 -607L796 -647L770 -610H642V-698H932C943 -698 948 -699 948 -703C948 -706 944 -712 936 -720L882 -773L845 -720H642V-791C647 -795 673 -815 673 -818C673 -821 669 -823 662 -826L596 -854C597 -816 598 -779 598 -720H426C403 -720 378 -722 353 -724L381 -687C398 -694 427 -698 448 -698H598V-610H465C442 -610 417 -611 392 -613L420 -581C434 -585 462 -588 487 -588H598ZM642 -490V-588H786V-490ZM287 86C477 50 556 21 667 -58C757 -27 811 7 870 56C880 65 890 68 897 68C915 68 920 46 920 37C920 -26 746 -72 699 -84C730 -113 758 -150 791 -205H937C947 -205 952 -206 952 -209C952 -212 949 -216 943 -223L892 -277L851 -227H577L631 -292C658 -302 661 -304 661 -307C661 -309 659 -312 654 -314L599 -339C568 -291 545 -256 524 -227H422C399 -227 374 -229 349 -231L377 -194C394 -201 423 -205 444 -205H508C486 -174 465 -147 439 -115C511 -100 594 -80 618 -73C525 -9 458 29 286 70ZM559 -205H734C707 -156 680 -122 649 -96C605 -106 554 -116 495 -127ZM107 -215C111 -149 84 -82 49 -36C38 -21 33 -10 33 -2C33 12 53 19 63 19C76 19 90 11 104 -7C119 -27 128 -77 128 -135C128 -162 126 -190 122 -218ZM186 -220C199 -183 205 -154 205 -124C205 -103 202 -82 196 -58C196 -56 195 -54 195 -52C195 -40 202 -28 211 -28C249 -28 255 -71 255 -82C255 -111 240 -163 197 -225ZM276 -243C310 -185 326 -139 326 -99C326 -68 330 -62 343 -62C362 -62 379 -78 379 -106C379 -158 327 -214 287 -253ZM92 -265C95 -259 97 -256 101 -256C104 -256 108 -259 114 -265C127 -277 172 -292 307 -309C308 -303 308 -297 308 -291C308 -272 314 -264 326 -264C341 -264 359 -289 359 -312C359 -337 332 -390 277 -437L267 -430C288 -395 301 -363 305 -328L134 -320C160 -355 237 -474 316 -604C328 -624 338 -632 355 -637C364 -640 368 -642 368 -645C368 -648 364 -652 357 -658L305 -698C295 -670 271 -617 231 -538L105 -536C146 -600 196 -687 224 -749C236 -775 251 -790 265 -794C275 -797 279 -799 279 -802C279 -805 276 -808 269 -812L207 -846C193 -785 136 -644 105 -584C90 -554 71 -546 37 -541L61 -488C63 -483 67 -480 71 -480C74 -480 78 -481 83 -485C99 -497 140 -509 222 -520C195 -467 165 -414 138 -370C122 -344 97 -327 61 -323Z"/>
</svg>