<svg xmlns="http://www.w3.org/2000/svg" viewBox="0 -1000 1000 1000">
	<path fill="#000000" d="M461 -779C487 -795 490 -797 490 -802C490 -805 487 -809 482 -811L415 -848C417 -812 418 -759 418 -709V-121C418 -91 414 40 414 66C414 76 416 81 423 81C427 81 433 79 441 75C459 66 463 62 463 48V42C461 -1 461 -66 461 -137V-621C494 -590 512 -559 517 -537C523 -512 529 -503 542 -503C557 -503 572 -524 572 -546C572 -586 524 -613 461 -638ZM263 -256C294 -211 304 -169 304 -126C304 -87 308 -79 324 -79C339 -79 356 -96 356 -126C356 -174 319 -220 273 -266ZM370 -617C364 -533 344 -496 314 -466C301 -453 296 -442 296 -434C296 -424 302 -411 321 -411C334 -411 349 -417 364 -432C378 -446 388 -495 388 -565C388 -581 387 -599 386 -617ZM626 -267C676 -229 688 -211 698 -178C703 -162 709 -156 718 -156C739 -156 746 -176 746 -191C746 -228 716 -250 627 -279ZM663 -436C707 -411 735 -376 741 -345C745 -328 752 -323 762 -323C779 -323 788 -342 788 -360C788 -410 707 -437 666 -447ZM536 -8C513 -8 488 -10 463 -12L491 25C508 18 537 14 558 14H965C974 14 979 13 979 9C979 6 975 2 968 -5L905 -64L865 -8H791L890 -511L926 -535C930 -538 932 -540 932 -542C932 -544 930 -547 926 -551L864 -598L830 -550H672L713 -720H945C954 -720 958 -722 958 -725C958 -728 955 -733 948 -739L889 -798L849 -742H592C569 -742 544 -744 519 -746L547 -709C564 -716 593 -720 614 -720H667L573 -309C561 -255 541 -197 516 -132C513 -126 512 -121 512 -117C512 -110 516 -107 526 -107C565 -107 568 -124 571 -136C576 -158 604 -264 608 -281L667 -528H847L743 -8ZM96 -229C96 -140 83 -84 59 -45C47 -25 41 -11 41 -1C41 13 52 21 64 21C95 21 128 -23 128 -97C128 -130 123 -173 109 -232ZM174 -232C191 -192 197 -154 197 -123C197 -114 191 -72 191 -64C191 -46 198 -38 212 -38C225 -38 248 -59 248 -93C248 -125 236 -155 184 -239ZM81 -301C84 -295 87 -293 90 -293C93 -293 96 -294 100 -297C126 -312 174 -325 269 -339C271 -331 273 -324 274 -317C276 -294 283 -284 296 -284C312 -284 322 -301 322 -321C322 -327 321 -334 319 -340C314 -357 288 -391 239 -432L229 -425C244 -404 256 -379 264 -356L125 -347C216 -470 273 -551 310 -610C317 -621 331 -629 343 -632C349 -634 352 -637 352 -640C352 -643 348 -648 339 -652L288 -676C275 -642 256 -604 230 -559L104 -554C166 -640 193 -682 226 -737C241 -762 249 -772 265 -779C273 -782 277 -784 277 -787C277 -789 273 -792 267 -796L216 -826C197 -770 167 -712 130 -645C89 -572 78 -561 43 -551L70 -514C74 -509 77 -506 81 -506C83 -506 86 -508 91 -510C113 -522 151 -533 221 -544C198 -505 171 -461 140 -412C107 -358 99 -354 54 -347Z"/>
</svg>