<svg xmlns="http://www.w3.org/2000/svg" viewBox="0 -1000 1000 1000">
	<path fill="#000000" d="M447 -437L393 -486C395 -453 397 -411 397 -374V-132C397 -63 395 3 393 46V52C393 67 395 73 402 73C406 73 412 70 420 66C440 56 442 52 442 37V-414H870V-24C870 -5 865 4 830 4C809 4 777 1 727 -7L726 7C816 26 828 41 836 72C837 77 840 79 844 79C845 79 848 78 850 77C908 46 914 35 914 -10V-400L944 -414C949 -416 951 -418 951 -420C951 -423 949 -426 944 -429L893 -472L866 -437H842V-738L876 -755C881 -757 883 -759 883 -762C883 -764 880 -767 875 -771L820 -815L789 -776H518L463 -835C464 -813 466 -765 466 -740V-437ZM799 -753V-437H700V-593L726 -608C730 -610 733 -612 733 -615C733 -617 730 -620 725 -624L673 -664L649 -628H509V-753ZM656 -606V-437H509V-606ZM279 -230C314 -165 323 -124 323 -76C323 -45 326 -38 341 -38C358 -38 376 -58 376 -86C376 -89 376 -93 375 -96C370 -129 342 -175 287 -237ZM79 -253C81 -246 83 -243 87 -243C91 -243 95 -245 102 -250C120 -262 178 -280 316 -294C317 -288 317 -282 317 -276C317 -250 319 -242 338 -242C353 -242 370 -262 370 -289C370 -320 336 -373 285 -417L274 -409C296 -379 310 -348 314 -312L135 -308C173 -355 285 -507 347 -598C360 -617 370 -625 387 -629C397 -631 402 -634 402 -637C402 -641 398 -645 391 -651L340 -694C325 -659 286 -588 243 -516L106 -520C145 -580 196 -668 234 -741C247 -765 262 -781 276 -785C287 -788 292 -791 292 -794C292 -797 288 -801 280 -805L217 -839C203 -778 139 -635 104 -567C89 -538 73 -532 40 -527L65 -473C67 -467 71 -464 76 -464C79 -464 84 -466 89 -469C104 -480 159 -491 234 -500C202 -447 165 -390 142 -356C125 -331 87 -315 51 -313ZM738 -295V-147H562V-295ZM738 -127C738 -89 739 -79 747 -79C750 -79 754 -80 759 -82C778 -89 783 -92 783 -106C783 -118 780 -174 780 -185V-282L805 -296C805 -296 809 -300 809 -304C809 -306 808 -308 805 -310L754 -348L732 -314H573L518 -366C519 -346 519 -319 519 -304V-169C519 -147 519 -117 518 -79C518 -69 520 -65 525 -65C531 -65 562 -75 562 -90V-127ZM189 -204C203 -171 210 -143 210 -113C210 -91 206 -67 199 -41C199 -39 198 -37 198 -35C198 -23 205 -10 215 -10C256 -10 260 -57 260 -62C260 -90 243 -145 201 -209ZM112 -199C112 -129 91 -49 56 -16C45 -6 40 7 40 17C40 39 66 39 66 39C79 39 94 31 109 11C124 -10 133 -59 133 -116C133 -144 131 -173 126 -202Z"/>
</svg>