<svg xmlns="http://www.w3.org/2000/svg" viewBox="0 -1000 1000 1000">
	<path fill="#000000" d="M803 -357L771 -318H519L460 -373C462 -345 462 -292 462 -269V-46C462 7 460 48 459 62V67C459 75 460 79 466 79C470 79 475 77 484 73C504 64 507 61 507 49V17H785V85C785 91 786 94 790 94C796 94 834 83 834 67V62C832 38 830 12 830 -43V-274L863 -291C868 -293 870 -295 870 -298C870 -301 867 -305 860 -310ZM507 -163V-297H785V-163ZM507 -4V-143H785V-4ZM900 -505L861 -454H741V-753H928C937 -753 941 -754 941 -757C941 -760 938 -764 931 -771L878 -824L837 -774H455C432 -774 407 -776 382 -778L410 -743C427 -749 456 -753 477 -753H555V-454H403C380 -454 355 -456 330 -458L358 -423C375 -430 404 -434 425 -434H952C961 -434 965 -435 965 -438C965 -440 962 -445 955 -451ZM602 -454V-753H694V-454ZM392 -674C427 -635 445 -598 452 -564C460 -528 468 -517 480 -517C495 -517 511 -538 511 -562C511 -569 509 -577 506 -584C492 -614 448 -653 399 -685ZM858 -686C838 -635 802 -554 765 -492L777 -484L884 -618C893 -629 897 -631 915 -636C922 -638 926 -640 926 -642C926 -644 923 -646 918 -649ZM278 -440C300 -416 315 -380 324 -347L140 -334C191 -391 282 -511 334 -590C343 -604 347 -608 369 -616C380 -620 385 -622 385 -626C385 -628 381 -631 375 -636L320 -677C304 -634 280 -588 255 -544L120 -539C168 -613 211 -678 254 -746C268 -768 276 -776 294 -783C304 -787 309 -790 309 -794C309 -797 306 -800 300 -804L239 -845C218 -780 174 -674 135 -603C113 -563 86 -547 48 -542L76 -485C78 -481 80 -478 83 -478C86 -478 90 -480 95 -484C111 -496 169 -511 243 -523C135 -343 114 -341 66 -335L97 -274C100 -269 102 -267 105 -267C108 -267 111 -268 116 -272C137 -287 211 -309 328 -328C330 -317 331 -306 331 -298C331 -271 338 -264 353 -264C371 -264 385 -292 385 -310C385 -327 375 -373 289 -448ZM286 -246C316 -193 328 -149 328 -115C328 -81 328 -50 352 -50C372 -50 389 -73 389 -99C389 -129 361 -178 297 -253ZM182 -222C200 -187 208 -146 208 -114C208 -105 202 -65 202 -57C202 -35 211 -27 222 -27C239 -27 263 -39 263 -76C263 -115 242 -167 193 -230ZM106 -213C110 -121 93 -64 67 -33C53 -17 48 -4 48 6C48 21 65 33 79 33C98 33 139 11 139 -84C139 -120 133 -164 120 -214Z"/>
</svg>