<svg xmlns="http://www.w3.org/2000/svg" viewBox="0 -1000 1000 1000">
	<path fill="#000000" d="M529 -650C531 -626 532 -587 532 -568V-285C532 -219 531 -169 529 -121V-115C529 -102 531 -96 538 -96C542 -96 547 -98 554 -101C572 -108 573 -111 573 -124V-148H852V-112C852 -103 853 -99 859 -99C862 -99 869 -102 878 -106C898 -115 901 -118 901 -128V-133C898 -169 896 -219 896 -280V-565L926 -583C932 -587 935 -589 935 -592C935 -594 932 -597 927 -601L868 -645L838 -605H661C695 -676 713 -712 736 -751H949C958 -751 963 -753 963 -757C963 -760 959 -765 953 -771L896 -828L852 -772H527C504 -772 479 -774 454 -776L482 -740C499 -747 528 -751 549 -751H673C670 -716 663 -686 638 -605H588ZM852 -322H573V-446H852ZM573 -169V-301H852V-169ZM573 -584H852V-467H573ZM635 -122C573 -61 473 18 384 71L391 81C454 57 528 17 648 -59C656 -64 663 -66 683 -68C690 -69 694 -72 694 -75C694 -78 692 -81 689 -83ZM336 -185C395 -118 405 -100 412 -62C415 -44 426 -33 439 -33C450 -33 465 -41 465 -64C465 -108 422 -144 344 -196ZM164 -198C128 -126 98 -84 34 -16L43 -6C104 -54 134 -80 164 -114C189 -143 197 -149 210 -151C218 -152 221 -155 221 -158C221 -161 219 -164 214 -167ZM740 -99C851 -23 871 9 900 52C913 71 920 75 929 75C942 75 956 55 956 33C956 24 953 15 947 7C920 -26 880 -51 746 -109ZM169 -760C198 -779 202 -781 202 -784C202 -787 199 -789 194 -791L125 -826C127 -786 128 -737 128 -709V-568C128 -518 147 -515 270 -515C250 -489 229 -468 186 -431C148 -398 119 -392 82 -393L116 -339C118 -336 120 -334 122 -334C125 -334 127 -336 131 -338C148 -349 164 -354 252 -368L305 -376C290 -367 274 -357 254 -344C137 -270 110 -263 67 -262L95 -206C97 -202 99 -201 102 -201C105 -201 107 -202 110 -203C134 -213 157 -221 260 -235V-52C260 -23 256 -10 234 -10C217 -10 189 -17 145 -31L143 -17C209 11 217 19 217 47C217 51 219 53 222 53C224 53 226 53 228 52C289 36 302 13 302 -38V-240L426 -256C436 -242 441 -229 445 -214C449 -194 461 -185 472 -185C479 -185 497 -191 497 -212C497 -220 494 -231 489 -243C479 -269 461 -293 373 -335L364 -323C386 -302 402 -286 414 -272L145 -261C214 -289 250 -306 366 -367C389 -379 404 -383 420 -383C432 -383 439 -383 439 -389C439 -392 436 -396 431 -400L384 -436C367 -421 351 -409 333 -396L156 -386C197 -409 222 -425 259 -454C279 -470 293 -475 310 -478C319 -479 325 -483 325 -488C325 -490 323 -493 319 -496L294 -515C436 -515 446 -527 463 -566C464 -568 464 -569 464 -571C464 -574 462 -575 459 -576C443 -580 428 -583 423 -673L409 -674C409 -575 401 -558 360 -554C344 -553 307 -551 267 -551C178 -551 169 -553 169 -586V-649C373 -719 395 -724 416 -724C423 -724 428 -726 428 -730C428 -731 427 -733 424 -736L375 -784C336 -756 254 -707 169 -668Z"/>
</svg>