<svg xmlns="http://www.w3.org/2000/svg" viewBox="0 -1000 1000 1000">
	<path fill="#000000" d="M532 -688L477 -736C479 -709 480 -675 480 -633V-452H448C450 -465 450 -479 449 -495H436C427 -444 409 -417 391 -406C372 -394 363 -381 363 -370C363 -360 374 -345 389 -345C418 -345 439 -395 445 -431H604C626 -407 641 -377 645 -358C649 -340 654 -332 663 -332C678 -332 692 -348 692 -369C692 -399 663 -417 635 -431H885L852 -363L866 -355C903 -411 923 -418 958 -419C964 -419 967 -420 967 -423C967 -425 965 -428 961 -431L906 -485L883 -452H833V-646C860 -662 863 -664 863 -671C863 -676 861 -680 855 -684L808 -718L784 -688H625C646 -723 664 -752 673 -765H925C932 -765 936 -767 936 -770C936 -773 933 -777 929 -781L877 -837L841 -787H457C437 -787 414 -789 392 -791L417 -754C432 -761 458 -765 478 -765H617C616 -738 611 -710 603 -688ZM521 -532V-593H794V-532ZM521 -614V-666H794V-614ZM521 -452V-511H794V-452ZM552 -250C520 -194 458 -108 373 -9L380 2C441 -51 471 -80 519 -136C554 -88 596 -46 629 -24C557 16 464 48 369 67V83C481 71 586 43 665 -3C723 30 789 56 865 74C867 74 868 75 870 75C874 75 876 72 878 68C892 48 911 36 949 28V13C854 17 786 8 702 -26C736 -50 776 -88 803 -127C815 -143 828 -153 848 -153C861 -153 861 -153 861 -157C861 -159 860 -162 856 -166L807 -217L779 -184H560C575 -199 585 -204 596 -206C600 -207 602 -208 602 -211C602 -213 599 -216 594 -220ZM775 -162C756 -130 704 -73 661 -44C617 -68 563 -109 534 -154C537 -157 539 -159 541 -162ZM473 -386C467 -337 438 -305 416 -296C399 -288 393 -280 393 -271C393 -256 405 -245 421 -245C448 -245 484 -276 491 -386ZM195 -185C211 -150 219 -122 219 -92C219 -72 215 -51 209 -27C208 -23 208 -20 208 -17C208 1 223 4 230 4C255 4 266 -34 266 -51C266 -79 252 -133 210 -194ZM281 -214C324 -154 333 -122 333 -74C333 -35 343 -31 353 -31C375 -31 388 -51 388 -72C388 -86 379 -136 292 -222ZM772 -387C804 -357 828 -315 836 -285C841 -265 848 -254 857 -254C873 -254 884 -274 884 -296C884 -300 884 -305 883 -309C875 -341 817 -378 777 -396ZM745 -385C742 -293 736 -288 695 -288C661 -288 622 -288 592 -289C564 -290 560 -293 560 -315V-359C583 -373 585 -375 585 -378C585 -381 583 -384 578 -387L519 -420C521 -411 522 -391 522 -375V-305C522 -272 535 -256 566 -255C606 -254 670 -253 710 -253C746 -253 764 -258 786 -291C787 -293 788 -295 788 -297C788 -300 786 -302 782 -304C764 -313 759 -327 759 -385ZM118 -184C122 -118 99 -47 62 -1C52 12 46 24 46 33C46 46 60 50 68 50C80 50 94 43 111 22C127 0 139 -52 139 -113C139 -137 138 -162 133 -187ZM101 -234C104 -229 106 -227 109 -227C112 -227 116 -229 123 -234C148 -253 194 -266 314 -284C315 -277 315 -271 315 -264C315 -245 321 -237 333 -237C350 -237 366 -257 366 -278C366 -308 329 -357 278 -404L270 -397C294 -368 306 -337 312 -303L139 -289C175 -335 273 -478 333 -573C345 -593 357 -601 374 -606C383 -609 387 -611 387 -614C387 -617 383 -621 376 -627L322 -667C314 -645 287 -586 253 -521L114 -525C155 -585 213 -686 235 -738C246 -764 266 -779 280 -783C290 -786 294 -788 294 -791C294 -794 291 -797 284 -801L220 -835C206 -774 149 -633 118 -573C103 -543 84 -537 50 -532L74 -479C76 -474 79 -471 84 -471C87 -471 92 -473 98 -476C114 -486 171 -497 245 -505C214 -446 179 -384 149 -337C131 -311 106 -296 68 -292Z"/>
</svg>