<svg xmlns="http://www.w3.org/2000/svg" viewBox="0 -1000 1000 1000">
	<path fill="#000000" d="M858 -445H158C158 -460 157 -475 156 -490H144C216 -519 294 -558 324 -635C369 -609 396 -582 419 -535C427 -519 432 -511 451 -511C465 -511 470 -537 470 -547C470 -557 468 -566 462 -574C440 -605 363 -635 328 -647C340 -695 350 -745 353 -795C359 -798 386 -810 386 -817C386 -826 319 -844 307 -848C307 -634 290 -579 79 -481L85 -469C104 -475 123 -483 142 -490C134 -432 130 -417 83 -384C74 -378 61 -368 61 -355C61 -342 79 -332 91 -332C103 -332 114 -337 123 -344C148 -362 154 -394 157 -423H866L813 -345L824 -337C862 -376 892 -401 947 -409C950 -409 956 -410 956 -415C956 -422 900 -475 892 -483ZM852 -184H533V-299H822C825 -299 833 -299 833 -304C833 -311 770 -365 761 -373L718 -321H305C319 -332 332 -344 345 -356C359 -369 367 -369 384 -371C386 -371 392 -372 392 -376C392 -383 334 -409 326 -413C279 -345 217 -282 151 -232L162 -222C201 -246 240 -271 276 -299H484V-184H110C88 -184 65 -185 43 -188L71 -151C91 -159 117 -162 138 -162H484V9H243V-79C249 -82 276 -95 276 -102C276 -106 272 -108 269 -110L195 -148C197 -122 198 -96 198 -70V-2L160 27C168 33 212 69 219 69C226 69 248 38 253 32H761V75C761 80 761 88 767 88C774 88 785 82 791 79C802 74 814 70 814 56C814 32 810 9 810 -15V-73C815 -76 839 -89 839 -95C839 -103 769 -139 758 -145C760 -115 761 -85 761 -55V9H533V-162H957C959 -162 966 -162 966 -166C966 -173 908 -227 900 -235ZM455 -454C545 -484 652 -526 685 -624C796 -573 816 -540 837 -505C842 -497 849 -487 860 -487C875 -487 884 -513 884 -525C884 -582 731 -627 690 -640L692 -648C726 -664 848 -723 886 -723C900 -723 904 -723 904 -728C904 -736 855 -777 847 -784C803 -737 750 -700 695 -666C704 -710 709 -755 714 -799C720 -802 740 -810 740 -818C740 -827 672 -850 661 -855C661 -609 638 -555 449 -467ZM566 -792C566 -744 543 -698 507 -666C501 -661 493 -653 493 -644C493 -632 509 -623 520 -623C533 -623 544 -631 552 -640C579 -668 582 -715 582 -752C582 -765 582 -778 581 -791ZM365 -654C402 -683 452 -724 498 -737C499 -737 508 -739 508 -742C508 -746 462 -779 456 -783C426 -740 392 -701 355 -664ZM195 -774C195 -725 176 -681 135 -652C128 -647 117 -640 117 -630C117 -614 132 -610 145 -610C205 -610 214 -699 214 -742C214 -753 214 -763 213 -774Z"/>
</svg>