<svg xmlns="http://www.w3.org/2000/svg" viewBox="0 -1000 1000 1000">
	<path fill="#000000" d="M410 -624V-756H581V-624ZM800 -603C800 -588 801 -581 806 -581C810 -581 847 -600 847 -613C847 -620 844 -673 844 -684V-748L872 -763C877 -766 879 -769 879 -772C879 -775 877 -778 871 -781L812 -817L785 -778H203L153 -818C155 -789 156 -756 156 -720V-627C156 -610 155 -579 153 -562V-556C153 -552 154 -550 157 -550C161 -550 168 -553 179 -559C198 -570 200 -572 200 -583V-603ZM800 -756V-624H625V-756ZM366 -756V-624H200V-756ZM198 -451C239 -417 254 -396 260 -370C266 -345 273 -337 283 -337C295 -337 313 -356 313 -378C313 -410 278 -430 204 -462ZM433 -466C465 -435 477 -409 483 -387C492 -353 494 -346 506 -346C521 -346 536 -361 536 -384C536 -418 506 -442 439 -477ZM811 -569C594 -535 389 -515 132 -502V-485C388 -491 588 -499 780 -515H784C798 -515 820 -511 829 -504C834 -500 838 -499 841 -499C845 -499 848 -502 848 -506C848 -509 847 -512 845 -516ZM493 -249C494 -235 494 -205 494 -163H110C87 -163 62 -165 37 -167L65 -130C82 -137 111 -141 132 -141H494V-17C494 4 491 14 461 14C438 14 401 8 339 -3L336 12C438 42 450 53 452 75C453 82 454 84 458 84C460 84 462 84 465 83C531 64 542 43 542 -4V-141H947C955 -141 959 -143 959 -147C959 -150 957 -154 952 -159L896 -219L851 -163H542V-188L565 -200C571 -202 574 -205 574 -208C574 -210 573 -212 570 -214C755 -273 813 -287 843 -287C845 -287 856 -286 858 -286C865 -286 869 -288 869 -292C869 -295 867 -299 863 -303L814 -357L775 -327H641C738 -422 757 -433 786 -436C793 -437 796 -439 796 -442C796 -445 794 -448 789 -451L734 -488L617 -327H233C205 -327 185 -328 159 -332L188 -294C205 -301 230 -305 255 -305H756L548 -224Z"/>
</svg>