<svg xmlns="http://www.w3.org/2000/svg" viewBox="0 -1000 1000 1000">
	<path fill="#000000" d="M195 -465C197 -440 198 -414 198 -393V-264C198 -255 196 -210 196 -208C196 -200 198 -197 203 -197C207 -197 213 -199 222 -202C241 -209 245 -215 245 -231H479V-168H111C88 -168 66 -169 39 -171L65 -137C81 -143 110 -147 131 -147H382C301 -62 217 -9 39 68L44 82C250 22 330 -29 443 -147H479V-97C479 -69 476 52 476 77C476 87 479 92 488 92C492 92 497 91 504 89C525 83 530 79 530 65V61C528 25 526 -43 526 -114V-147H574C649 -47 738 16 877 53C880 54 882 54 884 54C887 54 889 53 891 50C904 29 926 17 976 11V1C808 -3 691 -50 597 -147H943C954 -147 959 -150 959 -154C959 -157 956 -161 950 -166L890 -215L850 -168H526V-231H761C761 -211 761 -204 769 -204C777 -204 809 -214 809 -225C809 -235 807 -276 807 -285V-396L834 -410C837 -412 839 -414 839 -415C839 -417 837 -420 832 -423L791 -451C793 -455 795 -459 795 -464C795 -495 770 -503 670 -529C739 -569 760 -580 777 -580C779 -580 787 -579 789 -579C794 -579 797 -581 797 -584C797 -586 796 -589 793 -591L749 -627C716 -589 695 -570 637 -527C707 -495 732 -477 746 -457C752 -448 757 -444 762 -441L751 -429H250ZM479 -320V-251H245V-320ZM479 -340H245V-407H479ZM526 -340V-407H761V-340ZM526 -251V-320H761V-251ZM806 -770V-652H623V-770ZM806 -631C806 -609 806 -606 812 -606C817 -606 855 -618 855 -635V-639C852 -664 851 -681 851 -708V-755L878 -773C883 -776 885 -779 885 -782C885 -785 883 -788 879 -790L819 -832L792 -793H206L151 -838C153 -809 154 -773 154 -740V-657C154 -647 152 -603 152 -594C152 -586 153 -582 158 -582C162 -582 168 -584 177 -588C198 -597 198 -600 198 -631ZM420 -652V-770H578V-652ZM198 -652V-770H376V-652ZM521 -628C494 -593 472 -573 429 -537C478 -509 502 -485 512 -467C519 -454 530 -446 540 -446C548 -446 563 -454 563 -471C563 -503 529 -517 466 -538C525 -578 548 -585 570 -586C577 -586 581 -589 581 -592C581 -593 579 -595 576 -597ZM287 -620C261 -586 243 -570 192 -531C253 -501 268 -486 285 -460C296 -443 303 -440 311 -440C325 -440 336 -452 336 -466C336 -471 334 -477 331 -482C317 -503 288 -517 230 -533C291 -567 307 -573 328 -576C334 -577 337 -579 337 -582C337 -584 336 -586 334 -587Z"/>
</svg>