<svg xmlns="http://www.w3.org/2000/svg" viewBox="0 -1000 1000 1000">
	<path fill="#000000" d="M45 87C177 51 273 0 332 -67C352 -89 367 -116 378 -145H592V-88C592 -31 591 0 589 59V66C589 81 591 88 598 88C603 88 609 85 618 81C639 71 643 68 643 54V47C640 -2 638 -55 638 -107V-145H849C837 -71 826 -46 788 -46C767 -46 738 -53 697 -64L693 -49C760 -27 776 -10 783 14C785 20 787 22 791 22C793 22 795 21 798 20C858 -6 876 -30 897 -127L928 -139C934 -142 937 -145 937 -149C937 -152 935 -156 930 -160L870 -208L838 -168H638V-267H796V-234C796 -227 797 -224 801 -224C803 -224 848 -242 848 -255C848 -257 847 -258 847 -260C844 -282 843 -305 843 -332V-363L874 -381C879 -384 882 -386 882 -389C882 -391 879 -394 874 -397L811 -442L780 -395H638V-428L665 -445C671 -449 674 -452 674 -455C674 -457 671 -460 664 -463L590 -501C592 -466 592 -428 592 -395H406V-440L431 -457C436 -460 439 -463 439 -465C439 -467 436 -469 430 -472L356 -504C359 -470 359 -414 359 -395H196C173 -395 148 -397 123 -399L151 -362C168 -369 197 -373 218 -373H359V-329C359 -316 359 -302 358 -289H230L176 -335C176 -311 172 -289 165 -265L143 -189L96 -164L155 -116C157 -114 159 -113 161 -113C163 -113 166 -115 169 -119L194 -145H328C321 -128 314 -113 306 -101C262 -37 171 21 40 73ZM592 -267V-168H386C394 -196 401 -231 404 -267ZM592 -373V-289H405C406 -302 406 -316 406 -330V-373ZM638 -289V-373H796V-289ZM183 -168L215 -267H356C352 -231 345 -197 336 -168ZM188 -718C167 -718 144 -720 122 -722L148 -686C163 -692 190 -696 209 -696H476V-625H255C234 -625 211 -627 189 -629L215 -593C230 -599 257 -603 276 -603H476V-528H130C109 -528 86 -530 64 -532L90 -496C105 -502 132 -506 151 -506H935C943 -506 948 -508 948 -512C948 -516 945 -520 939 -526L888 -583L847 -528H523V-603H799C808 -603 813 -604 813 -607C813 -610 809 -615 802 -622L754 -675L716 -625H523V-696H863C870 -696 874 -697 874 -700C874 -703 871 -707 865 -712L812 -765L776 -718H635C683 -787 702 -804 728 -807C733 -808 736 -809 736 -811C736 -812 734 -815 729 -817L664 -851C649 -805 636 -773 609 -718ZM267 -837C301 -808 318 -785 320 -759C322 -734 331 -723 343 -723C362 -723 373 -742 373 -761C373 -766 373 -771 371 -775C362 -798 330 -821 273 -847Z"/>
</svg>