<svg xmlns="http://www.w3.org/2000/svg" viewBox="0 -1000 1000 1000">
	<path fill="#000000" d="M403 -240L377 -207H222L167 -260C169 -224 169 -190 169 -141V-57C169 -23 168 2 166 26C165 33 165 38 165 42C165 49 166 52 171 52C174 52 180 50 189 46C211 37 213 33 213 15V-35H389V11C389 21 390 25 395 25C402 25 435 16 435 -2C435 -17 433 -82 433 -95V-170C459 -181 462 -182 462 -186C462 -189 460 -192 455 -196ZM213 -55V-186H389V-55ZM857 -795L811 -739H525V-786C560 -807 561 -808 561 -812C561 -816 557 -819 548 -822L476 -850C478 -816 479 -781 479 -739H154C131 -739 106 -741 81 -743L109 -709C126 -715 155 -719 175 -719H479V-658H241C218 -658 193 -660 169 -662L196 -627C213 -634 242 -638 263 -638H812C822 -638 827 -639 827 -642C827 -645 823 -650 815 -658L773 -701L735 -658H525V-719H908C918 -719 922 -720 922 -724C922 -727 919 -732 912 -739ZM880 -607L844 -565H110C87 -565 63 -567 38 -569L66 -534C82 -541 111 -545 132 -545H855L813 -469L825 -461C881 -523 901 -539 937 -543C943 -544 946 -545 946 -547C946 -550 943 -554 937 -559ZM734 -434L699 -392H515V-468H707C716 -468 721 -469 721 -473C721 -476 718 -481 711 -488L670 -531L636 -488H269C247 -488 222 -490 197 -492L225 -457C242 -464 270 -468 291 -468H469V-392H211C188 -392 164 -394 139 -396L167 -361C183 -368 212 -372 233 -372H775C784 -372 789 -374 789 -377C789 -381 785 -385 778 -392ZM885 -360L845 -306H95C72 -306 48 -308 23 -310L51 -275C68 -282 96 -286 117 -286H929C938 -286 943 -287 943 -290C943 -293 939 -298 933 -306ZM897 -239L857 -192H787V-221C812 -236 815 -238 815 -241C815 -244 811 -247 801 -251L739 -279C741 -246 742 -228 742 -192H559C536 -192 511 -194 486 -196L514 -161C531 -168 560 -172 580 -172H742V-32C742 -7 741 3 713 3C694 3 665 -1 617 -9L613 4C694 29 709 36 716 69C718 76 721 79 725 79C726 79 727 78 728 78C784 54 787 45 787 -42V-172H936C945 -172 950 -173 950 -177C950 -180 946 -185 940 -192ZM518 -155C550 -118 565 -88 570 -58C574 -32 577 -30 587 -30C598 -30 621 -45 621 -72C621 -97 605 -115 526 -162Z"/>
</svg>