<svg xmlns="http://www.w3.org/2000/svg" viewBox="0 -1000 1000 1000">
	<path fill="#000000" d="M870 -828L829 -771H493C472 -771 454 -772 431 -775L456 -739C471 -745 494 -749 513 -749H940C944 -749 946 -750 946 -752C946 -753 944 -756 941 -759ZM104 -829C146 -791 166 -736 170 -707C174 -678 179 -674 193 -674C212 -674 228 -704 228 -725C228 -761 182 -798 115 -840ZM827 -728C801 -668 769 -609 726 -533C778 -485 814 -423 826 -369C832 -342 836 -339 846 -339C862 -339 878 -356 878 -388C878 -421 843 -465 748 -534C795 -598 814 -620 858 -667L881 -670C884 -671 886 -672 886 -673C886 -675 885 -676 883 -678ZM686 -730C664 -668 634 -605 589 -529C636 -468 653 -425 661 -359C664 -332 668 -325 680 -325C696 -325 713 -343 713 -372C713 -411 689 -458 607 -530C654 -594 679 -625 723 -672L745 -676C748 -677 749 -678 749 -679C749 -681 748 -682 746 -684ZM533 -731C499 -644 471 -582 433 -509C492 -442 503 -410 503 -344C503 -329 511 -312 527 -312C543 -312 560 -330 560 -359C560 -398 530 -448 451 -510C500 -584 528 -626 571 -678L593 -682C598 -683 600 -684 600 -686C600 -687 598 -689 595 -691ZM392 -706L360 -658H288C381 -788 403 -804 425 -807C430 -808 433 -809 433 -811C433 -813 431 -815 427 -817L357 -857C337 -807 322 -771 267 -658H105C84 -658 66 -659 43 -662L68 -626C83 -632 106 -636 125 -636H224C224 -582 224 -532 223 -487H127C106 -487 83 -489 61 -491L86 -455C101 -461 128 -465 147 -465H222C221 -406 220 -354 217 -308H91C70 -308 47 -310 25 -312L50 -276C65 -282 92 -286 111 -286H215C204 -131 166 -69 31 55L41 68C205 -57 245 -116 259 -286H434C440 -286 443 -287 443 -289C443 -291 440 -294 435 -299L370 -360L336 -308H261C264 -355 266 -407 268 -465H416C420 -465 422 -466 422 -468C422 -469 421 -471 418 -474L357 -534L322 -487H269C271 -533 272 -582 272 -636H449C453 -636 456 -637 456 -638C456 -640 454 -642 451 -645ZM890 -77L847 -21H682V-245H898C903 -245 905 -246 905 -248C905 -250 903 -252 899 -256L828 -323L788 -267H515C493 -267 468 -269 445 -271L472 -235C487 -241 516 -245 536 -245H635V-21H428C406 -21 381 -23 358 -25L385 11C400 5 429 1 449 1H956C962 1 965 0 965 -2C965 -4 963 -7 959 -11Z"/>
</svg>