<svg xmlns="http://www.w3.org/2000/svg" viewBox="0 -1000 1000 1000">
	<path fill="#000000" d="M478 -698H464C460 -644 428 -609 423 -604C403 -584 397 -572 397 -564C397 -552 409 -550 418 -550C429 -550 442 -554 449 -560C463 -573 474 -601 477 -647H643V-533C643 -517 642 -448 642 -434C642 -424 644 -419 651 -419C658 -419 689 -429 689 -447C689 -473 687 -515 687 -541V-647H878L845 -573L857 -568C897 -615 920 -630 951 -637C961 -639 966 -643 966 -647C966 -650 963 -654 956 -658L890 -699L870 -664H687V-758H869C879 -758 883 -759 883 -763C883 -765 880 -769 875 -775L829 -825L791 -775H521C498 -775 474 -777 449 -779L477 -747C494 -754 525 -758 546 -758H643V-664H478ZM598 -472H480V-455H598ZM597 -561H479V-542H597ZM579 -246V-81C579 -66 576 14 576 15C576 26 577 30 583 30C586 30 592 28 600 24C620 14 624 10 624 1C624 -24 621 -64 621 -89V-246H711V-104C711 -89 708 -9 708 -9C708 2 710 7 716 7C719 7 725 5 733 1C750 -7 754 -11 754 -22C754 -47 751 -85 751 -109V-246H849V-14C849 -2 845 6 824 6C810 6 789 2 757 -5L755 9C806 27 823 40 828 68C829 74 831 76 834 76C836 76 839 75 843 73C888 44 893 33 893 4V-234C920 -247 923 -248 923 -253C923 -257 920 -260 914 -264L855 -304L833 -266H609C629 -299 644 -322 669 -363H947C956 -363 960 -364 960 -367C960 -370 957 -373 953 -377L899 -433L862 -380H465C442 -380 415 -382 390 -384L418 -352C435 -359 466 -363 487 -363H615C609 -334 599 -302 584 -266H492L438 -314C440 -280 441 -227 441 -188V-87C441 -64 438 37 438 57C438 65 439 68 444 68C448 68 455 66 465 61C482 53 485 49 485 36C485 29 482 -76 482 -97V-246ZM850 -472H737V-455H850ZM849 -562H734V-543H849ZM102 -640C81 -640 59 -641 38 -644L61 -609C76 -615 103 -619 120 -619H208C208 -575 207 -529 206 -474H129C109 -474 87 -475 65 -478L90 -443C105 -449 130 -452 149 -452H206C205 -397 203 -327 200 -288H96C75 -288 54 -289 32 -292L57 -258C70 -263 97 -267 114 -267H198C189 -150 144 -48 23 60L31 72C163 -21 224 -126 240 -267H415C422 -267 426 -268 426 -271C426 -274 423 -277 419 -282L363 -337L325 -288H242C244 -329 246 -390 248 -452H384C391 -452 395 -453 395 -456C395 -458 393 -461 389 -465L333 -521L298 -474H249C250 -527 250 -580 250 -619H410C417 -619 420 -620 420 -623C420 -625 418 -628 414 -633L359 -691L321 -640H272C351 -754 370 -767 391 -772C394 -773 396 -775 396 -776C396 -778 394 -780 391 -782L331 -817C309 -763 282 -703 252 -640ZM82 -806C119 -770 148 -720 151 -695C155 -664 162 -656 171 -656C188 -656 204 -678 204 -702C204 -711 202 -720 197 -728C180 -758 147 -785 89 -814Z"/>
</svg>