<svg xmlns="http://www.w3.org/2000/svg" viewBox="0 -1000 1000 1000">
	<path fill="#000000" d="M683 -186C628 -128 584 -91 527 -57C462 -89 411 -132 370 -186ZM56 91C159 2 213 -53 299 -186H342C396 -117 438 -72 489 -36C407 5 305 35 155 68V84C329 56 431 32 525 -15C589 19 682 43 829 67C836 68 840 69 844 69C849 69 851 67 853 64C865 42 885 25 948 19V4C920 5 892 6 866 6C744 6 647 -9 569 -39C618 -67 665 -102 720 -148C735 -161 754 -170 778 -173C783 -173 787 -174 787 -177C787 -180 783 -184 775 -191L721 -241L684 -208H313C328 -232 344 -259 362 -289H906C918 -289 923 -291 923 -295C923 -299 920 -303 913 -309L850 -361L808 -311H375C410 -368 427 -389 441 -394C448 -396 452 -400 452 -404C452 -407 450 -410 445 -412L379 -442C362 -401 348 -371 319 -311H130C106 -311 83 -311 58 -313L93 -281C100 -287 113 -289 148 -289H308C228 -133 142 -12 44 82ZM859 -749L891 -769C895 -771 896 -773 896 -775C896 -777 895 -780 891 -782L825 -830L796 -784H585C562 -784 537 -786 512 -788L540 -753C557 -760 586 -764 607 -764H813V-627C813 -570 811 -505 808 -447V-441C808 -430 810 -425 817 -425C821 -425 828 -427 837 -431C855 -439 861 -444 861 -461C861 -488 859 -610 859 -635ZM550 -437C604 -410 635 -375 647 -344C654 -327 660 -323 668 -323C683 -323 699 -341 699 -363C699 -405 649 -427 553 -448ZM782 -621L483 -540L524 -484C525 -482 526 -481 528 -481C529 -481 531 -483 533 -487C541 -503 577 -523 643 -549L788 -606ZM408 -460C408 -451 410 -446 417 -446C421 -446 428 -448 437 -452C455 -460 461 -465 461 -482C461 -503 459 -597 459 -616V-746C470 -753 488 -764 488 -766C488 -768 486 -770 482 -772L423 -813L396 -781H162C139 -781 114 -783 89 -785L117 -750C134 -757 163 -761 184 -761H413V-618L68 -518L112 -465C113 -464 114 -463 115 -463C117 -463 119 -464 121 -468C128 -480 176 -512 252 -541L413 -603C413 -549 411 -505 408 -468ZM573 -727C602 -701 622 -671 630 -640C637 -612 641 -603 659 -603C674 -603 686 -625 686 -646C686 -684 617 -721 578 -736ZM172 -724C199 -696 221 -660 228 -632C235 -604 241 -599 254 -599C270 -599 282 -612 282 -631C282 -637 281 -643 279 -649C274 -665 236 -706 177 -733Z"/>
</svg>