<svg xmlns="http://www.w3.org/2000/svg" viewBox="0 -1000 1000 1000">
	<path fill="#000000" d="M320 -166C322 -147 323 -132 323 -111V-47C323 -38 321 4 321 9C321 16 322 20 328 20C332 20 338 18 347 15C368 6 368 3 368 -22H631C631 7 631 10 638 10C647 10 678 0 678 -12C678 -27 676 -52 676 -67V-102C702 -113 705 -115 705 -118C705 -120 703 -123 699 -125L641 -160L619 -132H372ZM368 -42V-112H631V-42ZM262 -395C264 -374 265 -359 265 -339V-297C265 -288 263 -246 263 -240C263 -233 264 -230 270 -230C274 -230 280 -232 289 -235C308 -242 310 -245 310 -255H707C707 -228 707 -225 715 -225C721 -225 755 -233 755 -248C755 -248 752 -293 752 -302V-326C779 -337 782 -339 782 -341C782 -343 780 -346 777 -348L722 -388L698 -358H315ZM310 -274V-339H707V-274ZM848 -747L878 -766C882 -768 883 -770 883 -772C883 -774 882 -776 878 -778L820 -813L785 -778H572C549 -778 524 -779 499 -780L527 -751C544 -756 573 -760 593 -760H804V-579C804 -568 801 -489 801 -473C801 -464 802 -460 808 -460C812 -460 818 -462 827 -466C847 -473 851 -476 851 -489C851 -504 848 -578 848 -586ZM781 -633L491 -562L532 -517C533 -515 534 -514 536 -514C537 -514 539 -516 541 -519C550 -534 596 -557 652 -575L785 -618ZM397 -469C397 -460 398 -456 404 -456C408 -456 414 -458 423 -462C443 -469 447 -472 447 -485C447 -500 444 -574 444 -582V-744L469 -756C473 -759 475 -760 475 -762C475 -764 473 -765 469 -767L410 -803L383 -775H151C128 -775 103 -777 78 -778L106 -747C123 -753 152 -756 173 -756H400V-623L69 -537L110 -492C111 -491 113 -490 115 -490C116 -490 118 -491 120 -493C132 -510 166 -530 252 -557L400 -604C400 -557 400 -536 397 -475ZM568 -731C596 -708 622 -682 630 -655C637 -631 641 -624 659 -624C672 -624 681 -638 681 -654C681 -686 656 -706 573 -738ZM167 -714C193 -689 215 -658 222 -634C229 -609 235 -606 248 -606C264 -606 276 -616 276 -633C276 -671 202 -709 172 -721ZM453 -533C475 -509 488 -482 494 -453C497 -438 504 -433 515 -433C529 -433 542 -449 542 -466C542 -497 483 -530 457 -541ZM826 -187V1C826 13 823 21 789 21C768 21 734 18 682 11L680 24C760 41 779 53 789 80C791 85 793 87 796 87C798 87 800 86 803 85C867 59 872 51 872 8V-173C901 -185 904 -186 904 -190C904 -192 902 -195 896 -199L839 -240L810 -206H199L139 -250C142 -218 143 -201 143 -171V-89C143 -32 142 9 140 57V62C140 71 142 76 148 76C153 76 159 74 168 70C187 63 191 60 191 48V42C189 4 188 -43 188 -96V-187ZM894 -476L861 -430H138C115 -430 90 -432 65 -434L93 -400C110 -407 139 -411 160 -411H944C953 -411 958 -412 958 -415C958 -417 954 -421 948 -427Z"/>
</svg>