<svg xmlns="http://www.w3.org/2000/svg" viewBox="0 -1000 1000 1000">
	<path fill="#000000" d="M792 -740L758 -705H410C434 -727 457 -750 480 -774C489 -783 495 -785 524 -792C529 -793 531 -795 531 -797C531 -799 530 -802 526 -804L461 -842C381 -737 276 -621 98 -476L105 -465C175 -503 264 -572 356 -655C404 -615 443 -547 447 -524C450 -504 455 -495 466 -495C483 -495 500 -514 500 -539C500 -577 462 -607 367 -665C373 -671 380 -677 387 -683H757C688 -598 581 -519 482 -470C362 -410 176 -348 63 -323L64 -310C179 -319 348 -367 489 -431C592 -477 716 -565 809 -651C820 -661 825 -663 857 -670C864 -672 867 -673 867 -676C867 -678 865 -681 860 -685ZM860 -365L823 -325H499C515 -339 531 -353 546 -367C556 -377 560 -379 598 -387C603 -388 606 -390 606 -393C606 -395 604 -397 601 -399L539 -440C439 -312 297 -205 104 -78L111 -67C181 -100 295 -168 400 -247C446 -207 466 -143 466 -114C466 -89 470 -84 484 -84C503 -84 522 -105 522 -129C522 -169 455 -227 413 -257C433 -272 453 -287 472 -303H822C763 -215 654 -127 555 -77C432 -15 291 32 56 70L57 83C547 57 740 -139 871 -271C880 -280 885 -282 920 -289C925 -290 928 -293 928 -296C928 -298 926 -301 924 -303Z"/>
</svg>