<svg xmlns="http://www.w3.org/2000/svg" viewBox="0 -1000 1000 1000">
	<path fill="#000000" d="M925 -309L894 -260H875V-630C902 -651 905 -653 905 -656C905 -660 902 -662 896 -666L834 -709L808 -668H692V-790L715 -807C719 -810 721 -812 721 -815C721 -817 719 -819 714 -821L643 -855C645 -818 647 -750 647 -709V-668H527L471 -716C473 -679 475 -611 475 -570V-260C432 -260 428 -260 378 -264L406 -227C423 -234 449 -238 475 -238V-162C477 -102 472 -5 472 55C472 70 473 76 480 76C485 76 491 74 500 70C521 61 524 57 524 44V36C521 -9 520 -84 520 -160V-238H829V-37C829 -11 827 1 799 1C779 1 746 -5 690 -18L687 -3C777 27 787 38 795 68C797 75 800 78 804 78C806 78 809 77 813 75C873 46 875 42 875 -37V-238H962C972 -238 977 -239 977 -243C977 -246 973 -251 966 -260ZM692 -469V-646H829V-469ZM520 -469V-646H647V-469ZM692 -260V-447H829V-260ZM520 -260V-447H647V-260ZM418 -798L379 -750H111C88 -750 63 -752 38 -754L66 -717C82 -723 108 -727 128 -728V-140L17 -115L48 -72C53 -65 56 -62 61 -62C65 -62 69 -64 75 -69C86 -77 111 -89 136 -97L318 -156V-83C318 -60 316 44 316 65C316 81 318 87 325 87C329 87 335 85 344 81C365 72 368 68 368 55C368 39 363 -60 363 -81V-170L444 -197L441 -211L363 -193V-728H456C464 -728 468 -730 468 -733C468 -736 466 -740 461 -746ZM173 -388V-549H318V-388ZM173 -571V-728H318V-571ZM173 -150V-366H318V-183Z"/>
</svg>