<svg xmlns="http://www.w3.org/2000/svg" viewBox="0 -1000 1000 1000">
	<path fill="#000000" d="M116 -804C118 -773 119 -717 119 -672V-417C119 -134 104 -56 36 68L47 77C147 -67 163 -132 163 -314H305V-68C305 -50 301 -41 270 -41C250 -41 220 -45 172 -53L169 -40C255 -16 264 -6 273 29C274 35 277 38 280 38C281 38 283 37 285 36C339 10 351 -5 351 -34V-716L378 -735C384 -740 387 -743 387 -746C387 -749 384 -752 378 -756L320 -797L288 -756H180ZM305 -336H163V-524H305ZM163 -734H305V-546H163ZM942 -628C952 -628 957 -630 957 -634C957 -637 953 -642 946 -649L893 -700L845 -649H683C685 -689 687 -732 689 -779L720 -802C725 -806 728 -809 728 -811C728 -813 725 -815 720 -817L641 -852C642 -778 641 -710 640 -649H464C441 -649 416 -651 391 -653L419 -617C436 -624 465 -628 486 -628H639C631 -380 604 -226 562 -143C521 -64 474 -8 318 75L327 87C611 -28 649 -167 672 -474C702 -178 739 -72 866 55C869 57 871 59 873 59C875 59 878 57 880 55C892 43 915 35 950 35C956 35 964 35 971 36L973 24C813 -34 764 -166 737 -247C761 -289 784 -337 809 -397C858 -359 886 -313 897 -271C901 -257 909 -249 918 -249C937 -249 953 -272 953 -293C953 -331 883 -382 815 -410C826 -434 836 -460 847 -486C855 -506 863 -514 875 -517C885 -519 890 -522 890 -525C890 -528 886 -531 879 -535L817 -570C799 -484 765 -370 729 -275C709 -348 694 -438 679 -565C680 -585 681 -606 682 -628ZM488 -568C467 -475 424 -332 380 -231L393 -226C422 -262 454 -329 483 -398C511 -364 531 -319 535 -285C536 -274 540 -270 549 -270C564 -270 581 -293 581 -317C577 -348 536 -382 489 -413C500 -439 510 -466 519 -491C526 -511 535 -519 547 -522C558 -524 563 -527 563 -530C563 -533 559 -535 553 -538Z"/>
</svg>