<svg xmlns="http://www.w3.org/2000/svg" viewBox="0 -1000 1000 1000">
	<path fill="#000000" d="M134 -798C135 -775 136 -722 136 -674V-382C136 -111 114 -44 25 72L35 80C143 -31 177 -102 178 -300H316V-37C316 -20 312 -10 285 -10C266 -10 235 -15 187 -26L184 -12C275 11 284 23 292 54C293 60 295 63 298 63C299 63 301 62 304 61C348 39 360 20 360 -34V-718C392 -740 392 -741 392 -746C392 -749 390 -752 384 -756L327 -797L300 -755H187ZM316 -322H178V-522H316ZM178 -733H316V-544H178ZM503 -301C546 -243 560 -199 562 -157C564 -126 570 -115 586 -115C598 -115 621 -135 621 -172V-179C619 -203 592 -246 511 -308ZM444 -646C482 -588 495 -535 497 -490C499 -451 506 -440 521 -440C537 -440 553 -466 553 -494C553 -498 553 -503 552 -507C546 -537 517 -587 455 -655ZM844 -725C818 -654 757 -512 723 -451L737 -442C852 -639 868 -661 898 -674C904 -677 907 -679 907 -681C907 -684 904 -687 899 -690ZM602 -684C628 -640 642 -583 642 -540C642 -505 647 -490 662 -490C680 -490 698 -516 698 -542C698 -547 698 -552 696 -557C685 -590 656 -636 612 -692ZM864 -836C597 -749 508 -726 407 -704L410 -689C496 -700 575 -715 813 -768C827 -771 847 -773 867 -773C873 -773 900 -771 905 -771C909 -771 911 -772 911 -774C911 -776 910 -780 906 -784ZM811 -425C835 -440 838 -441 838 -445C838 -448 834 -450 828 -453L761 -481C763 -449 764 -403 765 -364H442C419 -364 394 -365 369 -368L397 -331C414 -338 443 -342 464 -342H765V-34C765 -15 763 -5 734 -5C714 -5 682 -9 630 -19L628 -3C710 20 724 30 730 65C731 71 733 74 736 74C738 74 740 73 743 72C804 42 811 32 811 -24V-342H963C972 -342 977 -344 977 -349C977 -353 974 -358 967 -364L922 -406L889 -364H811Z"/>
</svg>