<svg xmlns="http://www.w3.org/2000/svg" viewBox="0 -1000 1000 1000">
	<path fill="#000000" d="M689 -265H515V-447H689ZM736 -242H910C920 -242 924 -243 924 -246C924 -247 922 -250 918 -254L855 -319L815 -265H736V-447H911C920 -447 924 -448 924 -451C924 -453 921 -457 916 -462L856 -525L818 -470H736V-646H928C938 -646 942 -647 942 -650C942 -652 940 -656 935 -661L871 -726L831 -669H518C532 -694 545 -720 558 -747C565 -763 577 -777 597 -789C607 -795 611 -799 611 -802C611 -805 608 -808 601 -812L542 -847C512 -747 445 -598 371 -463L382 -454C407 -486 445 -542 470 -584V-94C470 -42 469 2 467 61V72C467 89 469 96 475 96C479 96 486 92 495 87C515 76 519 70 519 58C519 58 516 -3 516 -14H951C960 -14 964 -15 964 -18C964 -20 961 -24 956 -29L897 -94L856 -37H736ZM515 -646H689V-470H515ZM515 -242H689V-37H515ZM319 -297V-47C319 -32 314 -23 291 -23C274 -23 247 -28 206 -39L204 -25C268 -6 285 5 291 41C292 47 294 50 297 50C298 50 300 49 303 48C351 24 364 7 364 -22V-722C393 -740 396 -742 396 -747C396 -750 393 -753 386 -757L333 -797L305 -756H177L121 -805C123 -771 124 -712 124 -664V-307C124 -158 108 -61 38 74L47 81C137 -46 167 -157 169 -297ZM169 -735H319V-541H169ZM319 -318H169V-520H319ZM630 -825C674 -787 695 -752 701 -715C704 -697 709 -692 721 -692C735 -692 748 -709 748 -732C748 -770 710 -799 638 -834Z"/>
</svg>