<svg xmlns="http://www.w3.org/2000/svg" viewBox="0 -1000 1000 1000">
	<path fill="#000000" d="M298 -800L269 -761H165L117 -800C119 -766 120 -707 120 -659V-414C120 -139 98 -47 38 84L50 94C119 -21 148 -100 158 -306H287V-41C287 -19 286 -9 261 -9C244 -9 215 -13 168 -22L167 -9C236 11 253 21 264 58C266 64 268 67 271 67C272 67 274 66 276 65C327 38 331 25 331 -12V-732C336 -735 359 -749 359 -751C359 -753 358 -754 355 -756ZM163 -555V-740H287V-555ZM159 -327C162 -385 163 -454 163 -535H287V-327ZM511 -462C541 -434 560 -397 567 -367C571 -351 575 -344 580 -344C596 -344 611 -369 611 -388C611 -391 611 -394 610 -397C604 -417 578 -441 517 -471ZM891 -733L853 -680H670L674 -795L700 -810C704 -812 707 -814 707 -816C707 -818 704 -819 699 -822L631 -854C631 -822 631 -802 630 -756L628 -680H429C406 -680 380 -682 356 -684L384 -649C400 -655 430 -659 451 -659H627L624 -539H467L417 -576C419 -539 421 -471 421 -430V-159C421 -102 420 -19 418 40V51C418 66 419 72 426 72C430 72 436 70 445 66C466 57 469 53 469 40V32C466 -13 465 -81 465 -157V-518H849V-21C849 -7 847 0 823 0C805 0 775 -4 723 -13L721 1C806 21 821 37 826 64C827 70 829 73 833 73C835 73 837 72 840 71C893 42 893 33 893 -17V-506C906 -514 927 -526 927 -529C927 -531 924 -534 918 -538L860 -580L831 -539H666L669 -659H947C953 -659 956 -660 956 -662C956 -664 954 -667 950 -671ZM775 -233L743 -191H663V-301H805C813 -301 817 -302 817 -305C817 -307 814 -310 809 -315L762 -359L736 -322H672C748 -427 753 -430 777 -433C785 -434 788 -436 788 -439C788 -442 786 -445 781 -448L724 -484C698 -414 675 -362 655 -322H553C532 -322 509 -324 487 -326L512 -291C527 -297 554 -301 573 -301H620V-191H545C524 -191 501 -192 479 -195L504 -160C519 -166 546 -170 565 -170H620C620 -61 619 -21 617 34V43C617 58 619 64 625 64C629 64 635 62 644 58C663 50 667 47 667 31V23C664 -19 663 -66 663 -170H817C825 -170 829 -171 829 -174C829 -176 827 -180 822 -185Z"/>
</svg>