<svg xmlns="http://www.w3.org/2000/svg" viewBox="0 -1000 1000 1000">
	<path fill="#000000" d="M292 -808L272 -767H182L121 -819C123 -785 124 -726 124 -678V-416C124 -175 96 -30 25 86L36 96C116 -14 152 -102 164 -308H280V-36C280 -10 279 1 254 1C237 1 210 -4 166 -12L164 1C242 19 255 44 257 67C258 73 259 76 263 76C264 76 266 75 269 74C321 48 325 29 325 -28V-740C330 -743 354 -758 354 -761C354 -764 352 -766 348 -768ZM169 -554V-747H280V-554ZM165 -328C168 -387 169 -455 169 -534H280V-328ZM796 -339L771 -297H512L459 -335C461 -306 462 -252 462 -229V-101C462 -91 460 -42 460 -38C460 -31 461 -27 467 -27C470 -27 476 -29 484 -32C503 -39 506 -43 506 -60H784C784 -28 784 -24 790 -24C797 -24 832 -36 832 -55C832 -65 828 -129 828 -143V-268L851 -281C855 -283 857 -285 857 -287C857 -290 855 -292 850 -296ZM506 -192V-277H784V-192ZM506 -80V-172H784V-80ZM852 -685L829 -644H468L411 -684C413 -655 413 -629 413 -598V-411C413 -400 409 -348 409 -344C409 -338 411 -336 415 -336C419 -336 425 -338 435 -342C455 -350 457 -354 457 -367H840C840 -348 840 -342 847 -342C851 -342 858 -344 869 -350C885 -358 888 -362 888 -371C888 -378 884 -433 884 -445V-613L908 -632C912 -635 914 -637 914 -639C914 -641 912 -643 908 -646ZM457 -387V-624H840V-387ZM729 -598L708 -567H582L535 -599C536 -586 537 -571 537 -555V-442C537 -437 536 -414 536 -414C536 -411 537 -409 540 -409C544 -409 549 -411 558 -414C578 -421 578 -425 578 -455H713V-430C713 -426 714 -423 718 -423C719 -423 755 -429 755 -446C755 -451 754 -474 754 -479V-541L775 -552C777 -553 779 -554 779 -555C779 -557 777 -559 773 -562ZM578 -475V-547H713V-475ZM587 -842C619 -811 629 -785 634 -760C638 -741 642 -735 653 -735C674 -735 685 -759 685 -778C685 -810 653 -832 593 -854ZM893 -777L860 -729H437C414 -729 389 -731 364 -733L392 -698C409 -705 438 -709 459 -709H948C952 -709 955 -710 955 -712C955 -714 953 -716 949 -720ZM897 -40L857 17H421C398 17 373 15 348 13L376 48C393 41 422 37 443 37H961C966 37 969 36 969 34C969 32 966 29 962 25Z"/>
</svg>