<svg xmlns="http://www.w3.org/2000/svg" viewBox="0 -1000 1000 1000">
	<path fill="#000000" d="M526 -677C482 -587 428 -499 362 -409L373 -403C401 -430 433 -464 457 -493V-396C457 -313 456 -279 454 -258C454 -254 453 -250 453 -248C453 -240 455 -237 459 -237C463 -237 469 -239 477 -243C496 -251 497 -255 497 -284H939C949 -284 953 -285 953 -289C953 -292 950 -297 943 -304L898 -349L865 -304H706V-383H893C902 -383 907 -385 907 -389C907 -392 903 -397 897 -403L856 -444L823 -403H706V-473H891C902 -473 907 -474 907 -477C907 -480 903 -485 895 -493L853 -533L824 -493H706V-562H908C919 -562 924 -563 924 -567C924 -570 920 -576 912 -583L871 -626L840 -583H520C543 -619 552 -633 567 -638C574 -641 578 -643 578 -646C578 -648 575 -650 570 -653ZM663 -403H497V-473H663ZM663 -493H497V-547C500 -552 504 -557 507 -562H663ZM497 -304V-383H663V-304ZM118 -814C120 -783 121 -727 121 -682V-417C121 -134 102 -76 24 66L35 75C132 -45 163 -141 164 -314H304V-68C304 -50 300 -41 269 -41C249 -41 219 -45 171 -53L168 -40C254 -16 263 -6 272 29C273 35 275 38 278 38C280 38 282 37 284 36C338 10 350 -5 350 -34V-726L377 -745C383 -750 386 -753 386 -756C386 -759 383 -762 377 -766L319 -807L287 -766H181ZM164 -744H304V-554H164ZM304 -336H164V-532H304ZM773 -220H474C451 -220 426 -222 401 -224L429 -189C456 -200 490 -200 514 -200C551 -137 577 -95 614 -63C541 -13 453 21 307 64L310 78C459 50 556 20 647 -39C695 -9 762 15 873 45C875 45 877 46 878 46C883 46 887 43 890 39C903 18 921 2 970 -3V-16C839 -20 752 -35 685 -66C725 -96 765 -132 809 -177C817 -186 835 -193 843 -194C851 -195 855 -197 855 -200C855 -202 852 -205 846 -208L795 -243ZM766 -200C723 -153 686 -118 647 -87C604 -114 570 -151 535 -200ZM930 -725C941 -725 946 -726 946 -730C946 -733 942 -738 934 -745L880 -792L847 -745H773V-791L795 -805C799 -807 800 -809 800 -812C800 -814 798 -817 792 -819L729 -843C731 -816 731 -802 731 -745H554V-789L575 -804C578 -806 580 -809 580 -811C580 -813 577 -816 572 -818L510 -841C512 -814 512 -798 512 -745H468C445 -745 420 -747 395 -749L423 -714C450 -725 484 -725 512 -725C512 -719 511 -693 511 -687C511 -680 512 -677 518 -677C530 -677 555 -684 555 -700C555 -704 554 -721 554 -725H731C731 -708 729 -681 729 -664C729 -655 731 -651 736 -651C736 -651 776 -660 776 -677C776 -680 773 -717 773 -725ZM613 -686C647 -658 665 -631 668 -609C670 -592 679 -588 688 -588C706 -588 717 -605 717 -621C717 -654 659 -680 618 -695Z"/>
</svg>