<svg xmlns="http://www.w3.org/2000/svg" viewBox="0 -1000 1000 1000">
	<path fill="#000000" d="M134 -519H381V-292H134ZM139 -543L89 -585C91 -554 92 -506 92 -482V-354C92 -319 91 -265 89 -239V-231C89 -221 91 -216 97 -216C101 -216 107 -218 116 -223C134 -233 134 -236 134 -268H216V-37H105C82 -37 57 -39 32 -41L60 -4C77 -11 106 -15 127 -15H381V18C381 23 382 26 386 26C389 26 394 25 401 22C425 12 429 7 429 -3V-8C427 -27 426 -56 426 -83V-715L456 -733C460 -736 462 -738 462 -740C462 -743 460 -745 456 -748L396 -792L368 -754H129C106 -754 81 -756 56 -758L84 -721C101 -728 130 -732 151 -732H216V-543ZM381 -37H259V-268H381ZM381 -732V-543H259V-732ZM567 -284V-514H839V-284ZM522 -807C523 -770 523 -728 523 -684V-41L483 -10L533 28C534 29 536 30 537 30C542 30 544 27 563 2H952C961 2 965 1 965 -2C965 -4 963 -7 958 -12L902 -68L864 -20H761V-261H839C839 -235 839 -232 846 -232C850 -232 856 -234 865 -239C882 -248 885 -251 885 -264C885 -271 882 -362 882 -381V-500C905 -520 907 -522 907 -526C907 -529 905 -532 900 -535L850 -569L829 -537H763V-731H923C930 -731 934 -732 934 -734C934 -736 931 -740 926 -745L873 -801L839 -753H581ZM718 -261V-20H567V-261ZM719 -537H567V-731H719Z"/>
</svg>