<svg xmlns="http://www.w3.org/2000/svg" viewBox="0 -1000 1000 1000">
	<path fill="#000000" d="M179 -642H401V-537H179ZM180 -663L134 -703C136 -673 137 -627 137 -604V-566C137 -552 134 -487 134 -480C134 -471 136 -466 142 -466C146 -466 152 -468 161 -473C179 -481 179 -485 179 -516H249V-403H141C118 -403 93 -405 68 -407L96 -371C113 -378 142 -382 163 -382H401C401 -356 401 -353 406 -353C411 -353 449 -363 449 -380C449 -390 446 -445 446 -457V-743L476 -760C480 -763 482 -765 482 -767C482 -769 480 -771 476 -774L416 -816L388 -780H154C131 -780 106 -782 81 -784L109 -748C126 -755 136 -759 154 -759H249V-663ZM401 -403H292V-516H401ZM401 -759V-663H292V-759ZM577 -533V-634H825V-533ZM532 -828C533 -792 533 -752 533 -710V-420L499 -394L539 -353C541 -351 542 -350 544 -350C549 -350 552 -353 575 -379H929C938 -379 942 -381 942 -385C942 -388 940 -392 935 -396L879 -450L841 -400H743V-512H825C825 -487 825 -484 832 -484C836 -484 842 -486 851 -491C868 -500 871 -503 871 -515C871 -525 868 -575 868 -586V-619C880 -629 893 -641 893 -645C893 -647 891 -650 886 -653L836 -686L815 -655H745V-755H902C909 -755 913 -756 913 -758C913 -760 910 -763 905 -768L852 -822L818 -776H591ZM701 -512V-400H577V-512ZM702 -655H577V-755H702ZM604 -273C656 -199 714 -162 869 -103H872C875 -103 878 -104 880 -107C895 -132 931 -145 967 -145V-158C830 -160 706 -208 630 -273H947C955 -273 958 -274 958 -278C958 -280 956 -284 950 -289L888 -350L843 -295H473C483 -305 492 -309 509 -314C515 -316 518 -318 518 -321C518 -323 516 -326 511 -328L450 -358C437 -336 421 -315 402 -295H121C98 -295 73 -297 48 -299L76 -262C93 -269 122 -273 143 -273H380C296 -198 171 -144 28 -104L31 -87C151 -109 244 -138 315 -173C315 -124 312 -91 302 -47C291 0 257 30 130 76L136 92C327 42 348 1 364 -121C366 -135 371 -145 381 -150C390 -155 395 -159 395 -163C395 -166 391 -170 383 -173L345 -189C383 -210 422 -238 453 -273ZM652 -185C654 -159 656 -112 656 -83V-34C656 6 655 31 653 72V76C653 84 655 88 660 88C664 88 707 73 707 59V56C704 25 703 10 703 -43V-121L727 -136C732 -139 734 -142 734 -144C734 -147 731 -149 725 -152Z"/>
</svg>