<svg xmlns="http://www.w3.org/2000/svg" viewBox="0 -1000 1000 1000">
	<path fill="#000000" d="M333 -267L460 -278C464 -271 467 -265 469 -259C477 -237 484 -234 492 -234C508 -234 519 -249 519 -266C519 -310 454 -348 375 -381L370 -372C407 -346 433 -319 450 -294L161 -282L320 -403H532C538 -403 541 -404 541 -407C541 -409 539 -412 534 -417L479 -473L445 -424H149C127 -424 102 -426 79 -428L106 -393C121 -399 150 -403 170 -403H259C218 -356 175 -315 151 -295C139 -285 115 -276 100 -275L126 -226C128 -222 131 -220 134 -220C137 -220 139 -221 142 -223C182 -246 211 -257 229 -259L288 -264V-157H179C157 -157 132 -159 109 -161L136 -126C151 -132 180 -136 200 -136H288V-43L61 -10L97 40C100 43 102 45 104 45C106 45 108 43 111 41C128 27 155 19 531 -63V-78L333 -49V-136H500C506 -136 509 -137 509 -140C509 -142 507 -145 503 -149L452 -203L418 -157H333ZM710 -743C761 -694 776 -673 801 -610C806 -598 816 -589 823 -589C839 -589 855 -612 855 -637C855 -675 819 -704 716 -755ZM438 78C552 2 614 -46 679 -121C722 -50 779 4 861 45C901 65 926 74 940 74C956 74 956 63 956 62C956 56 950 45 933 23C921 7 916 -22 916 -176L898 -178L879 -37C877 -19 874 -11 866 -11C856 -11 761 -64 709 -158C747 -207 785 -266 832 -346C839 -357 848 -362 870 -367C878 -369 882 -371 882 -374C882 -376 879 -379 873 -383L810 -426C778 -347 736 -267 690 -201C662 -279 649 -367 642 -506H935C944 -506 949 -507 949 -511C949 -514 945 -518 938 -525L880 -579L839 -528H641C639 -599 637 -684 637 -773L669 -796C673 -800 675 -803 675 -805C675 -808 672 -811 667 -813L587 -850C590 -751 593 -624 596 -528H344V-652H522C533 -652 538 -653 538 -657C538 -660 534 -666 526 -674L476 -727L436 -674H344V-777L370 -792C376 -796 378 -798 378 -801C378 -803 376 -806 370 -808L294 -845C298 -771 298 -701 298 -674H175C152 -674 127 -676 102 -678L130 -641C147 -648 176 -652 197 -652H298V-528H107C84 -528 59 -530 34 -532L62 -495C79 -502 108 -506 129 -506H596C602 -359 629 -230 658 -158C602 -85 525 -8 431 68Z"/>
</svg>