<svg xmlns="http://www.w3.org/2000/svg" viewBox="0 -1000 1000 1000">
	<path fill="#000000" d="M473 -590H124C101 -590 76 -592 51 -594L79 -559C96 -566 125 -570 146 -570H473V-39H202V-224H413C420 -224 423 -226 423 -229C423 -231 422 -233 419 -236L363 -291L329 -244H202V-393C346 -434 389 -446 414 -446C418 -446 434 -444 437 -444C443 -444 447 -446 447 -449C447 -452 445 -455 442 -458L387 -513C333 -473 297 -454 205 -413L153 -456C155 -421 156 -382 156 -318V-135C156 -105 154 27 154 54C154 68 156 73 163 73C167 73 173 71 181 67C199 58 202 54 202 43V-19H807V45C807 55 809 60 814 60C819 60 826 57 836 52C854 43 858 37 858 23C858 15 854 -96 854 -118V-384L886 -401C890 -403 891 -405 891 -406C891 -408 890 -410 886 -412L819 -458L793 -420H599C585 -420 572 -420 555 -422L581 -393C590 -398 603 -400 621 -400H807V-244H635C610 -244 598 -244 574 -247L602 -216C619 -222 636 -224 657 -224H807V-39H519V-570H938C947 -570 951 -571 951 -574C951 -576 948 -580 943 -585L883 -648L846 -590H519V-734C590 -740 663 -748 743 -758C750 -759 757 -759 765 -759C774 -759 810 -755 817 -755C823 -755 826 -757 826 -759C826 -762 824 -765 818 -769L760 -814C643 -782 520 -763 141 -730V-713C269 -716 369 -721 473 -730Z"/>
</svg>