<svg xmlns="http://www.w3.org/2000/svg" viewBox="0 -1000 1000 1000">
	<path fill="#000000" d="M464 -766C466 -738 467 -698 467 -662V-413C467 -383 464 -249 464 -222C464 -212 466 -208 472 -208C475 -208 480 -209 487 -212C509 -221 513 -225 513 -235V-280H661V-129C661 -79 659 -1 656 57V70C656 84 658 89 665 89C670 89 677 87 686 83C707 74 710 70 710 57V49C709 28 708 -25 708 -147V-280H864V-234C864 -226 865 -222 870 -222C874 -222 879 -224 887 -227C912 -237 916 -241 916 -255V-261C913 -306 911 -368 911 -444V-684L941 -702C946 -705 949 -707 949 -710C949 -712 946 -715 941 -719L876 -769L844 -723H523ZM661 -302H513V-488H661ZM513 -701H661V-510H513ZM864 -302H708V-488H864ZM708 -701H864V-510H708ZM185 -714L127 -759C129 -688 131 -568 131 -430C92 -430 87 -430 37 -434L65 -397C82 -404 110 -408 131 -408C131 -172 120 -101 41 65L52 73C145 -59 173 -137 174 -408H356V-51C356 -26 352 -14 317 -14C297 -14 267 -18 223 -25L221 -12C303 12 312 19 322 49C324 55 327 57 330 57C333 57 335 56 338 55C387 31 401 16 401 -41V-675C427 -693 430 -695 430 -700C430 -702 428 -705 424 -708L366 -754L339 -714H238C277 -792 290 -809 309 -818C313 -820 315 -823 315 -825C315 -827 313 -829 309 -831L248 -854C241 -815 235 -790 217 -714ZM212 -629C237 -583 249 -554 250 -522C251 -496 258 -489 272 -489C285 -489 300 -510 300 -534C300 -568 274 -592 220 -638ZM218 -347C243 -296 254 -248 254 -212C254 -180 262 -172 275 -172C291 -172 308 -199 308 -229C308 -256 293 -285 230 -352ZM174 -692H356V-430H174Z"/>
</svg>