<svg xmlns="http://www.w3.org/2000/svg" viewBox="0 -1000 1000 1000">
	<path fill="#000000" d="M387 -733L360 -695H265C312 -787 325 -804 349 -816C355 -819 358 -821 358 -823C358 -825 355 -827 349 -829L285 -855C277 -802 261 -744 244 -695H208L152 -739C157 -648 157 -529 156 -421H121C98 -421 73 -423 48 -425L76 -390C103 -401 131 -401 156 -401C153 -113 138 -62 55 91L69 99C181 -56 191 -104 197 -401H376V-35C376 -17 373 -8 346 -8C327 -8 294 -13 240 -24L237 -9C318 15 327 21 338 56C340 62 343 64 346 64C349 64 351 63 354 62C411 37 422 24 422 -21V-660L444 -673C448 -676 450 -678 450 -681C450 -683 448 -686 444 -689ZM245 -342C267 -285 274 -239 274 -197C274 -181 278 -169 292 -169C308 -169 325 -193 325 -216C325 -249 307 -287 255 -347ZM197 -421C199 -516 199 -600 199 -674H376V-421ZM240 -625C264 -576 272 -533 273 -506C274 -481 281 -473 291 -473C301 -473 322 -490 322 -528C322 -554 305 -578 248 -632ZM879 -586L850 -549H735V-797C763 -817 764 -818 764 -821C764 -824 761 -826 755 -829L687 -860C689 -826 690 -765 690 -728V-549H577L520 -589C522 -552 524 -485 524 -444V-85C524 -77 521 35 521 58C521 73 522 79 529 79C537 79 570 69 570 48V-209H867V-30C867 -11 865 -1 834 -1C812 -1 775 -6 715 -15L713 -1C804 25 820 33 827 66C828 72 830 74 834 74C836 74 838 73 841 72C908 42 913 31 913 -38V-512L940 -526C946 -529 949 -532 949 -534C949 -537 946 -540 940 -544ZM570 -388V-528H867V-388ZM570 -230V-367H867V-230ZM488 -776C543 -721 568 -672 577 -638C581 -623 593 -612 599 -612C610 -612 627 -632 627 -658C627 -706 556 -753 494 -785ZM877 -794C844 -717 818 -667 777 -597L790 -590L893 -717C902 -728 916 -736 928 -741C935 -744 939 -746 939 -750C939 -753 935 -756 929 -760Z"/>
</svg>