<svg xmlns="http://www.w3.org/2000/svg" viewBox="0 -1000 1000 1000">
	<path fill="#000000" d="M179 -724L130 -764C132 -732 133 -671 133 -628V-443H94C71 -443 46 -445 21 -447L49 -410C76 -421 110 -421 133 -421C132 -163 108 -68 20 66L32 75C139 -50 177 -165 178 -421H332V-76C332 -55 330 -44 304 -44C284 -44 249 -51 189 -64L186 -51C267 -26 287 -11 295 14C297 20 299 23 302 23C304 23 307 22 311 20C371 -15 375 -24 375 -67V-685L401 -701C405 -704 407 -706 407 -708C407 -710 405 -713 401 -716L352 -760L325 -724H243C278 -804 289 -817 303 -824C309 -827 312 -829 312 -831C312 -833 309 -834 303 -837L253 -858L226 -724ZM178 -702H332V-443H178ZM211 -647C234 -603 239 -569 239 -521C239 -497 242 -493 255 -493C268 -493 287 -514 287 -538C287 -571 258 -609 220 -652ZM215 -361C234 -319 242 -286 242 -252C242 -247 240 -224 240 -220C240 -207 246 -202 258 -202C272 -202 289 -230 288 -256C287 -275 263 -319 224 -367ZM768 -532H659V-651H768ZM694 -373H901C909 -373 913 -374 913 -377C913 -380 910 -384 905 -389L851 -443L809 -395H530V-651H615V-562C615 -549 612 -490 612 -478C612 -470 614 -467 619 -467C622 -467 627 -468 634 -471C658 -481 659 -484 659 -492V-510H768C768 -479 768 -475 775 -475C778 -475 784 -477 792 -480C811 -487 814 -491 814 -502C814 -504 812 -581 812 -596V-651H951C958 -651 961 -652 961 -655C961 -657 959 -660 954 -665L903 -721L868 -673H812V-781C837 -797 840 -798 840 -803C840 -806 836 -809 830 -812L765 -844C767 -807 768 -776 768 -747V-673H659V-787C684 -802 686 -804 686 -808C686 -810 684 -812 680 -814L612 -846C614 -818 615 -775 615 -754V-673H530V-735L554 -748C557 -750 559 -752 559 -754C559 -756 557 -758 553 -760L483 -793C484 -759 486 -718 486 -673C447 -673 442 -673 392 -677L420 -640C436 -647 462 -651 486 -651V-408L454 -383L503 -349C506 -347 508 -346 510 -346C514 -346 526 -363 534 -373H648V-259H457C435 -259 410 -261 387 -263L414 -227C429 -233 458 -237 478 -237H588C537 -136 452 -38 312 57L319 69C468 -8 560 -99 639 -237H648V-73C648 -19 647 17 645 64V70C645 81 647 86 654 86C658 86 665 84 675 80C692 73 696 68 696 53V47C695 26 694 -13 694 -81V-237H711C741 -120 796 -56 887 8C889 9 891 10 892 10C895 10 897 9 900 5C915 -14 939 -26 980 -26V-38C864 -55 770 -124 727 -237H960C967 -237 970 -238 970 -241C970 -243 968 -246 963 -251L907 -308L865 -259H694Z"/>
</svg>