<svg xmlns="http://www.w3.org/2000/svg" viewBox="0 -1000 1000 1000">
	<path fill="#000000" d="M335 -744L307 -700H214C253 -785 266 -805 286 -812C290 -814 292 -815 292 -817C292 -819 290 -821 286 -823L228 -858L195 -700H166L112 -746C114 -714 116 -653 116 -611V-425C79 -425 65 -425 22 -430L50 -393C66 -400 82 -403 116 -403C116 -129 100 -36 26 70L37 80C142 -38 156 -132 156 -403H322V-59C322 -36 321 -27 291 -27C272 -27 242 -31 192 -38L189 -21C282 -1 293 9 300 45C301 49 302 51 305 51C307 51 308 51 310 50C363 28 368 7 368 -46V-674L389 -688C393 -691 395 -693 395 -695C395 -697 393 -700 389 -703ZM189 -345C217 -291 223 -258 223 -222C223 -190 226 -185 241 -185C263 -185 275 -207 275 -230C275 -260 244 -304 200 -352ZM156 -425V-678H322V-425ZM181 -618C207 -574 219 -537 221 -504C222 -482 229 -474 240 -474C258 -474 275 -494 270 -525C266 -552 244 -578 190 -623ZM872 -546L834 -494H677V-585H872C878 -585 880 -586 880 -588C880 -590 879 -592 876 -595L818 -655L780 -607H677V-692H924C929 -692 931 -693 931 -695C931 -696 930 -698 927 -701L862 -765L818 -714H702C771 -783 791 -800 816 -801C821 -801 824 -802 824 -803C824 -805 821 -807 817 -810L758 -845C737 -808 707 -755 680 -714H461C440 -714 421 -716 400 -718L424 -683C439 -688 462 -692 481 -692H632V-607H488C468 -607 449 -608 426 -611L453 -576C468 -582 489 -585 508 -585H632V-494H434C413 -494 396 -496 375 -498L399 -463C413 -469 435 -473 454 -473H934C941 -473 945 -474 945 -476C945 -478 943 -480 940 -483ZM883 -339L846 -292H721C718 -339 717 -381 718 -414C728 -420 744 -429 744 -431C744 -433 742 -435 738 -437L676 -469C677 -410 681 -335 684 -292H565V-383C596 -391 604 -393 615 -393C620 -393 642 -388 647 -388C649 -388 651 -388 651 -390C651 -391 649 -394 647 -397L611 -443C543 -412 471 -388 406 -370L410 -355C452 -360 486 -365 524 -374V-292H440C419 -292 397 -294 376 -296L400 -261C414 -267 441 -271 460 -271H524V-181L377 -141L409 -93C410 -91 411 -90 413 -90C415 -90 417 -92 419 -94C425 -103 459 -125 524 -152V-31C524 -15 521 -6 497 -6C480 -6 452 -10 409 -19L406 -3C473 14 485 27 489 57C490 63 491 65 495 65C496 65 498 65 500 64C554 41 565 30 565 -32V-166L677 -210L673 -224L565 -193V-271H686C693 -205 705 -152 722 -106C683 -68 636 -27 573 23L581 35C636 3 686 -31 738 -76C786 5 882 57 927 57C938 57 945 54 945 44C945 39 943 32 939 27C929 13 922 -8 922 -64C922 -87 923 -116 926 -154L911 -156L880 -2C828 -27 792 -58 767 -102C792 -126 817 -153 844 -182C858 -198 877 -203 888 -204C895 -205 898 -206 898 -208C898 -210 896 -212 892 -215L842 -254C812 -209 784 -172 751 -137C737 -173 728 -218 723 -271H941C947 -271 951 -272 951 -274C951 -276 948 -279 943 -284ZM484 -830C529 -795 547 -769 558 -744C568 -722 570 -720 581 -720C595 -720 610 -735 610 -754C610 -795 544 -820 491 -840ZM761 -424C802 -401 822 -379 832 -358C838 -347 844 -343 855 -343C869 -343 879 -357 879 -372C879 -411 820 -423 767 -434Z"/>
</svg>