<svg xmlns="http://www.w3.org/2000/svg" viewBox="0 -1000 1000 1000">
	<path fill="#000000" d="M771 -592C771 -587 772 -584 778 -584C787 -584 820 -591 820 -607C820 -624 818 -650 818 -667V-743C848 -761 849 -761 849 -765C849 -767 845 -770 839 -773L768 -806C770 -770 771 -751 771 -721V-649H523V-771L550 -794C554 -798 556 -800 556 -803C556 -806 553 -808 547 -811L472 -849C474 -809 476 -773 476 -751V-649H229V-732C257 -748 260 -750 260 -754C260 -757 257 -759 251 -762L182 -794C184 -769 185 -740 185 -712V-657L159 -634L201 -601C203 -599 206 -598 208 -598C211 -598 214 -600 218 -605L237 -627H476C476 -607 473 -521 473 -503C473 -495 475 -491 481 -491C485 -491 491 -493 500 -497C522 -506 527 -511 527 -526C527 -542 523 -616 523 -627H771ZM859 -215V-180C859 -175 860 -172 866 -172C875 -172 908 -179 908 -195C908 -199 906 -246 906 -255V-417C936 -435 937 -435 937 -439C937 -441 933 -444 927 -447L856 -480C858 -444 859 -425 859 -395V-237H741V-483L768 -506C772 -510 774 -512 774 -515C774 -518 771 -520 765 -523L691 -561C693 -524 695 -463 695 -413V-237H576V-406C604 -422 607 -424 607 -428C607 -431 604 -433 598 -436L528 -468C530 -443 531 -414 531 -386V-255L504 -231L548 -189C550 -187 552 -186 554 -186C559 -186 561 -189 584 -215H695V-165C695 -66 694 -13 692 46V49C692 58 694 62 701 62C705 62 712 60 721 56C742 47 746 43 746 29V22C744 -14 741 -101 741 -179V-215ZM154 -239V-408C182 -424 185 -426 185 -430C185 -433 182 -435 176 -438L106 -470C108 -445 109 -416 109 -388V-257L82 -233L126 -191C128 -189 130 -188 132 -188C137 -188 139 -191 162 -217H250C237 -98 192 -34 62 71L70 86C225 -17 282 -101 297 -217H401V-186C401 -181 402 -178 407 -178C413 -178 447 -185 447 -201C447 -204 445 -252 445 -261V-396C475 -414 476 -414 476 -418C476 -420 472 -423 466 -426L398 -459C400 -423 401 -404 401 -374V-239H299C300 -256 301 -273 301 -291V-488L327 -509C332 -513 334 -516 334 -518C334 -521 332 -523 326 -525L252 -551C254 -528 255 -485 255 -428V-323C255 -292 254 -264 252 -239Z"/>
</svg>