<svg xmlns="http://www.w3.org/2000/svg" viewBox="0 -1000 1000 1000">
	<path fill="#000000" d="M250 -405V-551H763V-405ZM201 -628C203 -601 204 -542 204 -500V-380C204 -167 169 -60 44 75L52 84C204 -30 249 -149 250 -383H763V-350C763 -341 764 -337 770 -337C774 -337 780 -339 790 -343C810 -352 815 -356 815 -366C815 -371 810 -427 810 -439V-531L842 -548C849 -552 853 -555 853 -558C853 -561 849 -564 843 -569L781 -618L747 -573H262ZM379 -721V-786C414 -806 416 -807 416 -812C416 -815 411 -818 402 -822L330 -855C332 -822 333 -794 333 -769V-721H111C88 -721 63 -723 38 -725L66 -690C83 -697 112 -699 133 -699H333C333 -673 332 -645 332 -623C332 -611 333 -606 340 -606C340 -606 381 -615 381 -633C381 -642 379 -689 379 -699H624C624 -687 623 -631 623 -620C623 -611 625 -607 631 -607C632 -607 672 -616 672 -633C672 -643 670 -690 670 -699H940C949 -699 954 -702 954 -706C954 -709 951 -714 946 -719L887 -779L846 -721H670V-786L694 -801C701 -806 705 -809 705 -812C705 -815 701 -817 693 -821L621 -854C623 -821 624 -793 624 -768V-721ZM429 -291L454 -308C460 -312 464 -316 464 -318C464 -321 460 -324 453 -327L380 -361C381 -330 382 -286 382 -242V-46C382 41 403 41 628 41C676 41 732 40 794 39C863 38 884 24 912 -38C913 -41 914 -43 914 -45C914 -49 911 -51 904 -54C879 -64 868 -96 871 -197H853C852 -28 834 -10 784 -5C737 -1 669 2 607 2C551 2 499 0 471 -5C435 -11 429 -16 429 -49V-107C550 -154 628 -187 749 -243C762 -249 797 -257 810 -258C818 -258 821 -259 821 -261C821 -263 819 -266 814 -271L766 -322C687 -263 603 -211 429 -128Z"/>
</svg>