<svg xmlns="http://www.w3.org/2000/svg" viewBox="0 -1000 1000 1000">
	<path fill="#000000" d="M891 -774L852 -716H667V-794C697 -812 700 -814 700 -818C700 -821 696 -823 688 -827L617 -858C619 -825 620 -800 620 -775V-716H366V-784C400 -807 400 -807 400 -811C400 -814 396 -817 389 -820L317 -850C319 -817 320 -790 320 -765V-716H104C81 -716 56 -718 31 -720L59 -683C76 -690 105 -694 126 -694H320C320 -676 319 -597 319 -580C319 -567 321 -561 327 -561C333 -561 368 -572 368 -587V-591C366 -614 366 -647 366 -694H620C620 -675 619 -593 619 -576C619 -563 620 -557 627 -557C631 -557 638 -560 647 -564C665 -572 669 -575 669 -584C669 -601 667 -678 667 -694H948C959 -694 964 -695 964 -699C964 -703 960 -708 952 -716ZM851 -530L810 -474H510V-568C540 -588 543 -590 543 -595C543 -598 539 -601 530 -606L459 -642C461 -605 463 -536 463 -495V-282H253L189 -333C190 -310 192 -265 192 -237V-36C192 1 191 33 189 71V78C189 88 190 93 197 93C201 93 208 91 218 87C235 81 236 78 236 64V-1H734V71C734 79 735 83 741 83C745 83 751 81 761 77C781 70 784 66 784 55C784 47 781 -13 781 -26V-243L814 -267C818 -270 820 -272 820 -275C820 -277 818 -280 813 -283L746 -329L716 -282H510V-452H903C912 -452 917 -454 917 -459C917 -462 914 -467 907 -474ZM236 -23V-260H734V-23Z"/>
</svg>