<svg xmlns="http://www.w3.org/2000/svg" viewBox="0 -1000 1000 1000">
	<path fill="#000000" d="M894 -57L847 5H741V-516L766 -534C772 -538 775 -542 775 -546C775 -550 772 -553 766 -558L707 -601L675 -555H321L256 -607C258 -570 260 -502 260 -461V5H94C71 5 46 3 21 1L49 38C66 31 95 27 116 27H948C955 27 959 26 959 23C959 20 957 16 951 9ZM307 -207V-365H694V-207ZM307 -387V-533H694V-387ZM307 5V-185H694V5ZM900 -777L861 -722H657V-781L683 -799C689 -803 693 -807 693 -809C693 -812 689 -815 682 -818L608 -852C610 -819 611 -791 611 -766V-722H389V-779L414 -796C418 -799 421 -801 421 -804C421 -807 418 -810 411 -813L340 -844C342 -811 343 -783 343 -758V-722H102C79 -722 54 -724 29 -726L57 -689C74 -696 103 -700 124 -700H343C343 -674 342 -631 342 -605C342 -591 344 -586 351 -586C358 -586 391 -594 391 -609C391 -621 389 -673 389 -684V-700H611C611 -686 610 -622 610 -609C610 -597 612 -592 618 -592C623 -592 628 -594 637 -597C655 -604 659 -607 659 -615C659 -624 657 -667 657 -676V-700H953C962 -700 967 -702 967 -707C967 -710 964 -715 957 -722Z"/>
</svg>