<svg xmlns="http://www.w3.org/2000/svg" viewBox="0 -1000 1000 1000">
	<path fill="#000000" d="M794 -532V-25H214V-532ZM794 -3V70C794 78 796 82 802 82C806 82 812 81 820 77C841 68 845 64 845 50V43C842 -2 840 -50 840 -126V-512L878 -533C883 -536 885 -538 885 -540C885 -543 883 -545 879 -548L806 -601L770 -554H234L166 -609C168 -578 169 -521 169 -463V-151C169 -56 168 -7 166 52V58C166 74 168 80 176 80C180 80 186 78 194 75C211 68 214 62 214 48V-3ZM479 -505C479 -282 423 -192 235 -80L243 -67C400 -140 471 -208 506 -313C582 -262 632 -204 658 -154C678 -117 685 -108 697 -108C708 -108 718 -126 718 -150C718 -166 714 -184 703 -201C686 -229 618 -274 511 -331C520 -360 526 -392 530 -428C531 -434 537 -441 546 -446C554 -451 559 -454 559 -458C559 -461 554 -465 544 -470ZM676 -788C707 -806 710 -808 710 -813C710 -816 706 -820 699 -823L627 -855C629 -822 629 -794 629 -769V-710H381V-778L405 -792C413 -796 417 -799 417 -802C417 -805 413 -808 404 -812L332 -848C333 -819 334 -776 334 -762V-710H113C90 -710 65 -711 40 -714L68 -677C85 -684 114 -688 135 -688H334C334 -664 333 -627 333 -603C333 -589 335 -584 342 -584C343 -584 383 -595 383 -613C383 -615 381 -676 381 -688H629C629 -663 628 -624 628 -599C628 -591 630 -587 635 -587C640 -587 678 -600 678 -617C678 -628 676 -678 676 -688H947C957 -688 962 -690 962 -694C962 -697 958 -701 952 -707L896 -763L853 -710H676Z"/>
</svg>