<svg xmlns="http://www.w3.org/2000/svg" viewBox="0 -1000 1000 1000">
	<path fill="#000000" d="M753 -509V-48C753 34 759 47 847 47C921 47 948 47 977 -14C978 -16 979 -18 979 -20C979 -23 977 -26 972 -29C951 -39 945 -57 938 -173H921C921 0 910 2 870 2C807 2 800 0 800 -42V-488L830 -503C836 -506 839 -509 839 -512C839 -515 835 -519 829 -524L774 -571L744 -531H554L495 -577C497 -532 497 -490 497 -451C497 -158 448 -36 256 80L264 93C489 -16 548 -158 544 -509ZM547 -327C613 -280 640 -248 655 -206C664 -182 671 -173 683 -173C695 -173 708 -192 708 -214C708 -222 706 -230 703 -238C691 -266 642 -302 552 -339ZM445 -477C455 -477 461 -478 461 -482C461 -485 457 -490 450 -498L402 -549L363 -499H143C119 -499 93 -500 69 -503L97 -467C114 -473 143 -477 165 -477H240V-138L45 -88L88 -32C91 -29 93 -27 95 -27C97 -27 99 -29 103 -32C124 -52 154 -70 195 -84L441 -171L436 -188L286 -150V-477ZM352 -784C380 -801 383 -803 383 -808C383 -811 380 -814 372 -817L302 -846C304 -813 305 -768 305 -715H106C83 -715 58 -717 33 -719L61 -682C78 -689 107 -693 128 -693H305C305 -677 304 -608 304 -594C304 -581 306 -576 314 -576C314 -576 354 -583 354 -602C354 -617 352 -680 352 -693H637C637 -676 636 -604 636 -589C636 -576 638 -571 644 -571C649 -571 655 -573 663 -577C682 -585 686 -589 686 -597C686 -612 683 -679 683 -693H949C959 -693 964 -695 964 -699C964 -703 960 -708 953 -715L892 -773L850 -715H683V-785C710 -803 713 -805 713 -812C713 -816 710 -820 705 -822L634 -852C637 -806 638 -745 637 -715H352Z"/>
</svg>