<svg xmlns="http://www.w3.org/2000/svg" viewBox="0 -1000 1000 1000">
	<path fill="#000000" d="M970 -468C811 -472 694 -545 596 -670H899C906 -670 910 -671 910 -674C910 -677 907 -680 903 -685L841 -751L798 -692H455C466 -711 479 -739 490 -761C496 -774 498 -776 524 -784C528 -785 531 -787 531 -790C531 -792 529 -795 525 -797L457 -837C442 -788 421 -736 398 -692H132C110 -692 86 -694 62 -696L89 -660C105 -666 132 -670 152 -670H386C309 -532 201 -440 29 -340L38 -329C218 -405 349 -521 442 -670H576C656 -530 738 -469 864 -411C867 -409 870 -409 872 -409C875 -409 878 -410 880 -414C901 -443 927 -454 970 -454ZM813 -361L765 -305H516V-421H703C708 -421 711 -422 711 -425C711 -427 709 -430 706 -433L651 -490L615 -443H516V-515L542 -533C547 -536 549 -539 549 -541C549 -544 546 -546 541 -548L466 -580C468 -545 470 -496 470 -443H342C320 -443 296 -445 272 -447L299 -411C315 -417 342 -421 362 -421H470V-305H173C151 -305 127 -307 103 -309L130 -273C146 -279 173 -283 193 -283H875C883 -283 886 -284 886 -287C886 -289 884 -293 878 -298ZM866 -42L818 16H520V-120H780C786 -120 788 -121 788 -124C788 -126 787 -128 783 -132L715 -200L674 -142H520V-211L544 -230C548 -233 550 -236 550 -238C550 -241 547 -243 543 -245L470 -273C472 -240 474 -188 474 -142H261C239 -142 215 -144 191 -146L218 -110C234 -116 261 -120 281 -120H474V16H120C98 16 74 14 50 12L77 48C93 42 120 38 140 38H932C941 38 945 37 945 34C945 31 942 27 936 22Z"/>
</svg>