<svg xmlns="http://www.w3.org/2000/svg" viewBox="0 -1000 1000 1000">
	<path fill="#000000" d="M199 -569C245 -532 276 -480 293 -417C300 -393 307 -384 317 -384C337 -384 347 -401 347 -436C347 -457 347 -497 207 -581ZM527 -559L552 -581C556 -585 558 -589 558 -592C558 -596 555 -600 549 -603L476 -644C478 -607 480 -539 480 -498V-356H118C95 -356 70 -358 45 -360L73 -323C90 -330 119 -334 140 -334H374C364 -95 326 -32 67 71L74 88C337 7 414 -65 421 -334H574V-54C574 15 591 38 731 38C771 38 818 35 858 31C919 24 934 15 963 -45C964 -48 965 -50 965 -52C965 -56 962 -58 957 -61C927 -77 916 -99 916 -189H900C900 -38 890 -20 834 -13C800 -9 751 -7 709 -7C654 -7 621 -8 621 -59V-334H947C958 -334 963 -337 963 -341C963 -345 960 -350 953 -356L887 -417L842 -356H607C678 -422 714 -459 741 -493C770 -529 781 -538 803 -542C810 -543 813 -545 813 -548C813 -550 811 -553 807 -555L742 -594C703 -515 651 -434 581 -356H527ZM368 -717V-791C380 -798 401 -810 401 -813C401 -815 397 -817 391 -820L320 -851C322 -818 323 -790 323 -765V-717H118C97 -717 73 -719 49 -721L76 -687C92 -693 119 -697 139 -697H323C323 -682 322 -614 322 -600C322 -591 325 -587 332 -587C336 -587 341 -588 348 -591C366 -598 370 -601 370 -611C370 -624 368 -685 368 -697H630C630 -682 629 -615 629 -601C629 -592 631 -588 637 -588C641 -588 647 -590 655 -593C673 -601 677 -604 677 -613C677 -626 675 -685 675 -697H932C940 -697 943 -698 943 -701C943 -704 941 -707 935 -713L872 -773L827 -717H675V-788L701 -804C706 -807 708 -809 708 -812C708 -814 706 -816 700 -819L627 -850C629 -817 630 -789 630 -764V-717Z"/>
</svg>