<svg xmlns="http://www.w3.org/2000/svg" viewBox="0 -1000 1000 1000">
	<path fill="#000000" d="M314 -299C316 -268 317 -220 317 -196V-79C317 -44 316 0 314 59V64C314 74 316 78 322 78C326 78 333 76 342 72C360 64 363 61 363 47V-20H769V49C769 57 770 62 777 62C781 62 787 60 797 56C817 48 821 43 821 28V22C818 -23 817 -52 817 -86V-207L851 -228C857 -232 859 -234 859 -237C859 -240 857 -243 851 -247L783 -295L752 -251H376ZM363 -42V-229H769V-42ZM678 -781C709 -799 712 -801 712 -806C712 -809 708 -813 701 -816L629 -848C631 -815 631 -787 631 -762V-703H373V-771C406 -790 407 -791 407 -795C407 -798 404 -801 396 -805L324 -841C325 -812 326 -782 326 -755V-703H115C92 -703 67 -704 42 -707L70 -670C87 -677 116 -681 137 -681H326C326 -642 325 -597 325 -590V-584C325 -570 327 -565 334 -565C337 -565 342 -567 349 -570C370 -580 375 -586 375 -596C374 -619 373 -657 373 -681H631C631 -665 630 -595 630 -580C630 -572 632 -568 637 -568C640 -568 680 -579 680 -600C679 -623 678 -657 678 -681H955C964 -681 969 -685 969 -691C969 -695 966 -700 960 -706L896 -764L855 -703H678ZM808 -589C647 -554 452 -525 236 -506L175 -561C176 -527 178 -483 178 -445V-290C178 -138 158 -36 42 76L52 84C199 -32 227 -126 227 -328V-365H927C936 -365 941 -366 941 -370C941 -372 938 -377 932 -383L870 -449L823 -387H227V-483C442 -495 593 -507 768 -529C774 -530 780 -530 786 -530C806 -530 826 -527 839 -522C845 -520 850 -519 853 -519C856 -519 857 -520 857 -522C857 -524 855 -528 851 -533Z"/>
</svg>