<svg xmlns="http://www.w3.org/2000/svg" viewBox="0 -1000 1000 1000">
	<path fill="#000000" d="M313 -209C322 -223 342 -261 353 -287H707C707 -254 707 -250 713 -250C718 -250 724 -253 734 -259C755 -270 759 -274 759 -287C759 -303 754 -391 754 -411H945C955 -411 960 -413 960 -417C960 -419 958 -423 954 -427L899 -481L859 -433H754V-519C781 -536 784 -537 784 -541C784 -545 781 -548 775 -553L719 -593L693 -554H233C210 -554 185 -556 160 -558L188 -521C205 -528 234 -532 255 -532H363C361 -504 355 -465 349 -433H104C81 -433 56 -435 31 -437L59 -400C76 -407 105 -411 126 -411H343C334 -371 320 -327 313 -309H186C163 -309 138 -311 113 -313L141 -276C158 -283 187 -287 208 -287H305C262 -179 185 -80 57 15L65 29C173 -38 237 -95 289 -170V-63C289 -30 288 27 286 63V69C286 81 288 86 294 86C298 86 304 84 313 79C334 68 336 65 336 54V8H756V63C756 73 757 78 762 78C766 78 773 75 783 70C803 60 808 56 808 45C808 43 807 40 807 37C804 16 803 -15 803 -59V-149L827 -170C831 -173 833 -176 833 -178C833 -181 831 -183 826 -186L763 -222L740 -187H343ZM398 -433C405 -467 411 -501 414 -532H707V-433ZM362 -309C374 -338 385 -374 393 -411H707V-309ZM336 -165H756V-14H336ZM684 -771C715 -789 718 -791 718 -796C718 -799 715 -803 707 -806L635 -838C637 -805 637 -777 637 -752V-707H364V-770L388 -784C396 -788 400 -791 400 -794C400 -797 396 -800 387 -804L315 -840C316 -811 317 -768 317 -754V-707H112C89 -707 64 -708 39 -711L67 -674C84 -681 113 -685 134 -685H317C317 -663 316 -628 316 -606C316 -592 318 -587 325 -587C326 -587 366 -598 366 -616C366 -627 364 -675 364 -685H637C637 -672 636 -614 636 -602C636 -594 638 -590 643 -590C648 -590 686 -603 686 -620V-622C684 -640 684 -656 684 -685H952C961 -685 966 -689 966 -695C966 -699 963 -704 957 -710L893 -768L852 -707H684Z"/>
</svg>