<svg xmlns="http://www.w3.org/2000/svg" viewBox="0 -1000 1000 1000">
	<path fill="#000000" d="M880 -697L842 -642H692V-791L717 -810C724 -815 727 -818 727 -821C727 -824 724 -827 717 -830L646 -862C648 -831 648 -812 648 -720V-642H515C494 -642 471 -642 449 -645L471 -615C488 -619 501 -620 535 -620H648V-419H534C509 -419 485 -421 467 -423L492 -392C509 -396 520 -397 554 -397H900C907 -397 911 -398 911 -401C911 -403 908 -407 902 -414L846 -475L805 -419H692V-620H937C946 -620 950 -621 950 -624C950 -626 947 -630 940 -637ZM377 -851C379 -819 379 -790 379 -712V-648H227V-760C253 -776 256 -777 256 -781C256 -783 252 -786 244 -789L182 -816C184 -798 185 -783 185 -758V-663L152 -636L197 -606C201 -603 204 -602 207 -602C210 -602 213 -604 217 -608L236 -629H379V-531H131C102 -531 80 -532 59 -533L83 -503C100 -507 119 -509 153 -509H216C204 -404 181 -361 39 -287L44 -276C201 -325 247 -380 263 -509H379C379 -434 378 -367 377 -338V-327C377 -311 378 -304 384 -304C388 -304 394 -307 402 -312C421 -323 423 -327 423 -337V-791L445 -806C450 -809 452 -812 452 -814C452 -816 449 -818 443 -821ZM965 -3C812 -7 668 -46 574 -205H929C940 -205 945 -206 945 -209C945 -212 942 -216 935 -223L872 -286L832 -227H513C517 -244 521 -262 524 -282C558 -301 560 -302 560 -305C560 -308 556 -310 549 -313L478 -344C476 -300 472 -262 464 -227H128C105 -227 78 -228 54 -231L85 -197C100 -203 118 -205 150 -205H458C415 -59 301 15 70 82L75 92C351 49 469 -63 507 -205H553C624 -60 689 -8 843 59C849 62 853 63 856 63C859 63 860 62 861 60C875 32 909 16 965 11Z"/>
</svg>