<svg xmlns="http://www.w3.org/2000/svg" viewBox="0 -1000 1000 1000">
	<path fill="#000000" d="M872 -788L823 -732H658V-785L682 -798C689 -802 692 -805 692 -807C692 -810 688 -812 682 -815L609 -845C612 -796 612 -776 612 -732H392V-790C427 -811 428 -811 428 -814C428 -817 424 -819 415 -823L343 -852C345 -819 346 -791 346 -766V-732H116C93 -732 68 -734 43 -736L71 -701C88 -708 117 -712 138 -712H346C346 -696 345 -625 345 -611C345 -597 347 -592 353 -592C358 -592 364 -594 372 -597C390 -604 394 -606 394 -616C394 -631 392 -698 392 -712H612C612 -696 611 -624 611 -610C611 -596 613 -591 620 -591C626 -591 660 -600 660 -616C660 -624 658 -697 658 -712H916C926 -712 930 -713 930 -717C930 -720 927 -725 920 -732ZM443 -671C474 -642 484 -622 490 -575C492 -558 504 -551 513 -551C531 -551 545 -570 545 -591C545 -626 500 -659 452 -681ZM876 -584L845 -549H197C196 -563 195 -578 193 -594H177C179 -536 150 -488 117 -469C104 -462 95 -444 95 -434C95 -422 105 -412 121 -412C131 -412 144 -416 157 -427C182 -446 195 -477 197 -527H845L793 -433L805 -427C857 -485 887 -503 921 -508C933 -510 937 -512 937 -515C937 -517 936 -520 932 -524ZM457 -409L431 -380H287C294 -392 300 -403 306 -414C320 -440 329 -446 352 -450C356 -451 359 -453 359 -455C359 -457 356 -460 350 -464L292 -499C260 -403 180 -262 92 -130L102 -122C134 -151 183 -216 229 -286C261 -257 277 -220 280 -178C282 -151 294 -142 304 -142C323 -142 335 -158 335 -180C335 -232 272 -279 237 -298C250 -318 263 -339 275 -359H437C392 -127 302 -30 71 76L76 88C298 13 414 -76 475 -321C478 -334 490 -350 504 -354C512 -356 516 -358 516 -361C516 -364 513 -367 507 -371ZM900 -169C894 -3 890 5 851 7C805 10 770 11 731 11C701 11 670 10 631 9C596 8 590 -4 590 -56V-364H756C755 -307 754 -290 748 -223C746 -196 743 -185 713 -185C695 -185 666 -189 621 -197L619 -183C687 -167 704 -151 713 -118C715 -111 717 -108 721 -108C723 -108 726 -109 730 -111C784 -141 794 -151 799 -345C832 -363 835 -365 835 -370C835 -374 832 -377 827 -381L772 -423L744 -386H601L541 -438C543 -411 544 -377 544 -337V-58C544 31 554 45 619 48C664 50 703 51 745 51C904 51 923 48 958 -10C960 -13 960 -15 960 -17C960 -19 959 -21 956 -23C924 -41 917 -53 917 -169Z"/>
</svg>