<svg xmlns="http://www.w3.org/2000/svg" viewBox="0 -1000 1000 1000">
	<path fill="#000000" d="M973 -519C819 -528 704 -572 611 -700H921C932 -700 938 -700 938 -703C938 -705 934 -708 927 -715L866 -774L819 -718H417C431 -736 444 -754 457 -772C467 -786 473 -789 494 -794C500 -796 503 -798 503 -800C503 -802 501 -805 496 -808L436 -850C415 -803 390 -759 362 -718H138C115 -718 89 -719 65 -722L93 -690C109 -696 139 -700 160 -700H350C262 -576 148 -477 34 -397L42 -386C115 -420 177 -464 234 -513L254 -490C269 -496 298 -500 318 -500H428V-382H152C129 -382 103 -383 79 -386L107 -354C123 -360 153 -364 174 -364H495C448 -330 395 -294 344 -263H338L298 -288C299 -268 300 -252 301 -237C221 -193 134 -150 36 -107L42 -94C135 -127 220 -164 301 -205V-68C301 -60 298 45 298 66C298 83 300 89 307 89C312 89 319 87 328 83C344 76 346 72 346 58V9H684V75C684 83 685 88 691 88C694 88 700 86 710 82C731 73 735 69 735 55V48C732 3 731 -26 731 -60V-223L757 -242C762 -246 765 -249 765 -251C765 -254 762 -256 757 -260L693 -306L664 -263H406C457 -293 511 -329 561 -364H902C911 -364 915 -364 915 -366C915 -368 912 -372 906 -378L842 -442L788 -382H587C620 -406 653 -431 687 -457C699 -466 706 -469 736 -473C743 -474 746 -476 746 -479C746 -481 744 -483 740 -486L689 -527C633 -473 577 -425 520 -382H472V-500H618C625 -500 628 -500 628 -502C628 -504 627 -506 624 -509L579 -563L540 -518H472V-586C478 -590 500 -606 500 -610C500 -612 497 -615 492 -617L425 -642C428 -590 428 -579 428 -518H297C280 -518 260 -519 242 -520C301 -574 356 -638 404 -700H587C675 -570 748 -513 873 -464C878 -462 882 -461 885 -461C890 -461 893 -463 897 -469C915 -493 925 -499 973 -507ZM346 -141V-229C353 -233 366 -241 374 -245H684V-141ZM346 -9V-123H684V-9Z"/>
</svg>