<svg xmlns="http://www.w3.org/2000/svg" viewBox="0 -1000 1000 1000">
	<path fill="#000000" d="M958 7C938 8 918 9 899 9C742 9 617 -36 535 -145H930C939 -145 945 -147 945 -151C945 -154 941 -159 934 -166L878 -219L831 -166H520C515 -173 511 -180 507 -188C514 -210 519 -214 528 -218C536 -221 541 -224 541 -227C541 -229 537 -232 529 -236L490 -255H754C754 -239 754 -235 761 -235C765 -235 771 -237 780 -241C802 -250 806 -254 806 -269V-275C803 -320 801 -382 801 -458V-559L828 -578C834 -582 836 -585 836 -588C836 -591 834 -594 828 -597L771 -636L742 -599H588V-684H912C921 -684 927 -686 927 -690C927 -693 923 -698 916 -705L858 -764L810 -705H576L645 -778C659 -793 674 -802 694 -804C702 -805 706 -807 706 -809C706 -812 703 -815 696 -819L638 -855C602 -782 587 -757 553 -705H131C108 -705 83 -707 58 -709L86 -673C103 -680 132 -684 153 -684H390V-599H252L197 -632C199 -599 201 -538 201 -501V-416C201 -365 200 -306 198 -253V-244C198 -228 200 -222 207 -222C211 -222 218 -225 228 -229C247 -237 247 -241 247 -255H466C463 -222 458 -192 450 -166H123C100 -166 75 -168 50 -170L78 -134C95 -141 124 -145 145 -145H443C397 -21 285 29 59 77L58 92C343 67 450 -20 493 -145H513C577 -28 693 41 861 75C864 76 866 76 868 76C872 76 875 74 877 69C889 43 906 29 958 20ZM247 -378V-578H389C384 -514 347 -470 256 -422L258 -408C382 -453 432 -510 436 -578H542V-518C542 -484 546 -450 649 -450C659 -450 734 -454 734 -465C734 -468 733 -471 718 -497C689 -491 664 -488 644 -488C609 -488 588 -496 588 -512V-578H754V-378ZM436 -599V-684H542V-599ZM247 -276V-357H754V-276ZM291 -831C348 -801 375 -767 389 -732C395 -716 401 -711 410 -711C423 -711 438 -728 438 -748C438 -790 338 -830 295 -843Z"/>
</svg>