<svg xmlns="http://www.w3.org/2000/svg" viewBox="0 -1000 1000 1000">
	<path fill="#000000" d="M203 -469L143 -518C145 -489 146 -472 146 -422V-151C146 -120 143 16 143 44C143 55 146 60 154 60C158 60 164 58 172 55C190 47 192 44 192 31V-52H403V19C403 28 404 32 409 32C413 32 419 30 428 26C450 17 454 13 454 -2V-7C451 -51 449 -112 449 -187V-430L482 -451C487 -454 490 -456 490 -459C490 -461 487 -463 482 -466L420 -514L388 -469H269C313 -532 327 -550 347 -555C354 -557 357 -559 357 -561C357 -564 354 -567 346 -571L290 -599C274 -537 264 -510 245 -469ZM403 -74H192V-246H403ZM192 -449H403V-268H192ZM670 -785C700 -803 704 -805 704 -810C704 -813 700 -816 693 -819L622 -851C624 -818 624 -791 624 -767V-709H379V-775L403 -789C410 -792 414 -795 414 -798C414 -802 410 -805 402 -809L331 -844C332 -816 333 -773 333 -760V-709H117C94 -709 70 -710 45 -713L72 -676C89 -683 118 -687 138 -687H333C333 -663 332 -626 332 -602C332 -588 334 -583 341 -583C343 -583 381 -595 381 -612C381 -618 379 -675 379 -687H624C624 -675 623 -620 623 -608C623 -600 625 -596 630 -596C635 -596 672 -610 672 -625C672 -635 670 -678 670 -687H934C943 -687 948 -691 948 -697C948 -701 945 -706 939 -712L876 -768L836 -709H670ZM581 -340C630 -290 654 -241 664 -193C668 -174 673 -169 688 -169C701 -169 716 -189 716 -216C716 -224 714 -233 711 -242C702 -269 667 -306 588 -349ZM836 -442C833 -283 824 -183 812 -87C805 -29 798 -4 751 -4C725 -4 689 -11 634 -24L633 -9C722 15 745 29 755 63C758 71 760 74 764 74C765 74 767 74 769 73C845 30 850 1 860 -90C869 -174 876 -245 881 -422L912 -441C918 -445 920 -447 920 -450C920 -453 918 -456 912 -460L850 -510L822 -463H621C627 -476 633 -491 640 -506C651 -533 659 -541 670 -543C681 -545 686 -547 686 -551C686 -555 681 -559 671 -564L613 -594C576 -455 536 -339 471 -219L482 -213C538 -294 557 -323 611 -442Z"/>
</svg>