<svg xmlns="http://www.w3.org/2000/svg" viewBox="0 -1000 1000 1000">
	<path fill="#000000" d="M408 -476C385 -476 360 -477 335 -480L363 -443C380 -450 409 -454 430 -454H461V-241H365C342 -241 317 -242 292 -245L320 -208C337 -215 366 -219 387 -219H461C458 -97 406 -16 263 82L270 94C432 15 501 -86 506 -219H708V-132C708 -101 707 34 707 61C707 77 709 84 715 84C720 84 727 81 737 75C754 65 758 62 758 47V41C755 -4 754 -67 754 -143V-219H944C951 -219 954 -220 954 -223C954 -226 952 -229 947 -234L885 -296L841 -241H754V-454H907C914 -454 918 -456 918 -459C918 -462 915 -466 910 -471L852 -529L813 -476H683C769 -572 788 -587 810 -588C814 -588 817 -591 817 -594C817 -596 815 -598 813 -600L750 -639C718 -570 690 -525 657 -476ZM506 -241V-454H708V-241ZM385 -623C437 -583 459 -549 476 -504C480 -495 486 -486 493 -486C507 -486 518 -496 518 -527C518 -551 518 -583 391 -634ZM313 -503L196 -227C182 -194 165 -181 122 -181C107 -181 90 -182 69 -185L67 -170C170 -149 170 -116 170 -88C170 -68 157 18 157 36C157 68 168 80 186 80C210 80 220 64 220 29C220 17 218 1 216 -17C211 -50 209 -75 209 -99C209 -146 219 -184 243 -251L330 -499ZM59 -468C110 -435 137 -404 148 -363C152 -347 159 -336 171 -336C188 -336 202 -357 202 -379C202 -421 155 -452 64 -478ZM121 -626C192 -582 212 -561 228 -524C238 -502 245 -498 257 -498C271 -498 283 -516 283 -536C283 -592 197 -617 127 -636ZM354 -784C381 -801 384 -802 384 -808C384 -811 381 -814 374 -817L304 -846C306 -813 307 -785 307 -760V-724H106C83 -724 58 -726 33 -728L61 -691C78 -698 107 -702 128 -702H307C307 -688 306 -627 306 -614C306 -601 308 -596 316 -596C316 -596 356 -603 356 -622V-625C354 -641 354 -665 354 -702H635C635 -687 634 -623 634 -609C634 -597 636 -591 643 -591C653 -591 685 -604 685 -617C685 -631 682 -690 682 -702H949C958 -702 963 -705 963 -709C963 -713 960 -718 953 -724L892 -782L850 -724H682V-785C709 -803 712 -805 712 -812C712 -816 709 -820 704 -822L632 -852C634 -819 635 -791 635 -766V-724H354Z"/>
</svg>