<svg xmlns="http://www.w3.org/2000/svg" viewBox="0 -1000 1000 1000">
	<path fill="#000000" d="M624 -364H464C441 -364 416 -366 391 -368L419 -331C436 -338 465 -342 486 -342H623L620 -214H505L445 -262C447 -231 448 -183 448 -159V-77C448 -57 445 34 445 52C445 64 448 70 455 70C460 70 466 68 475 64C488 59 492 53 492 39V3H815V54C815 62 816 66 821 66C825 66 830 64 838 61C860 52 864 48 864 33V27C861 -18 860 -47 860 -81V-181L886 -195C891 -198 894 -200 894 -203C894 -206 891 -208 886 -212L825 -259L794 -214H665L668 -342H932C942 -342 946 -343 946 -346C946 -349 943 -353 936 -360L875 -420L831 -364H668L671 -508C709 -515 746 -522 781 -530C794 -533 805 -534 815 -534C820 -534 842 -530 846 -530C851 -530 853 -531 853 -534C853 -538 851 -542 844 -548L795 -592C706 -555 624 -530 434 -489L438 -476C495 -482 561 -490 628 -501ZM492 -19V-192H815V-19ZM665 -774C696 -792 699 -794 699 -799C699 -802 695 -806 688 -809L616 -841C618 -808 618 -780 618 -755V-706H381V-770L405 -784C413 -788 417 -791 417 -794C417 -797 413 -800 404 -804L332 -840C333 -811 334 -768 334 -754V-706H116C93 -706 68 -707 43 -710L71 -673C88 -680 117 -684 138 -684H334C334 -660 333 -623 333 -599C333 -585 335 -580 342 -580C343 -580 383 -591 383 -609C383 -621 381 -673 381 -684H618C618 -639 618 -616 617 -602V-595C617 -587 619 -583 624 -583C629 -583 667 -596 667 -613V-615C665 -632 665 -648 665 -684H936C945 -684 950 -688 950 -694C950 -698 947 -703 941 -709L877 -767L836 -706H665ZM225 -252L58 -185L100 -141C104 -136 107 -134 110 -134C112 -134 115 -136 117 -140C125 -152 157 -176 225 -213V-31C225 -11 222 0 196 0C177 0 145 -5 94 -17L90 -3C171 21 182 37 188 70C189 75 191 78 195 78C196 78 198 77 201 76C263 52 268 43 268 -39V-236L402 -307L397 -321L268 -269V-417H404C413 -417 418 -418 418 -421C418 -424 415 -428 408 -435L363 -485L322 -438H268V-533C301 -554 302 -555 302 -559C302 -562 298 -565 290 -569L221 -606C225 -532 225 -462 225 -438H134C111 -438 86 -440 61 -442L89 -406C106 -413 135 -417 156 -417H225Z"/>
</svg>