<svg xmlns="http://www.w3.org/2000/svg" viewBox="0 -1000 1000 1000">
	<path fill="#000000" d="M408 -364L383 -341H203C184 -341 164 -342 144 -344L167 -309C180 -315 204 -319 220 -319H384L337 -258L297 -275C299 -244 301 -218 301 -194L56 -151L84 -108C86 -105 88 -104 91 -104C95 -104 99 -105 104 -108C127 -123 204 -146 301 -168V-28C301 -8 297 2 271 2C252 2 219 -4 165 -17L162 -2C241 20 254 41 260 66C261 71 263 74 267 74C270 74 274 73 279 70C334 42 346 27 346 -22V-177L560 -223L556 -238L346 -201V-226C362 -235 367 -237 367 -242C367 -245 365 -246 354 -252C420 -301 428 -303 453 -304C460 -304 464 -306 464 -310C464 -313 461 -317 456 -322ZM338 -525H532C540 -525 544 -527 544 -530C544 -532 541 -536 537 -540L486 -598L448 -547H338V-587C370 -607 371 -607 371 -611C371 -613 367 -615 360 -618L287 -646C289 -614 290 -582 291 -547H142C124 -547 91 -549 71 -551L101 -517C113 -522 132 -525 160 -525H291V-439H138C138 -450 137 -462 136 -475H123C120 -406 100 -378 69 -357C55 -348 48 -339 48 -329C48 -313 57 -305 70 -305C79 -305 90 -309 103 -319C122 -333 136 -363 138 -417H482L443 -351L454 -344C507 -395 518 -402 546 -405C553 -406 557 -408 557 -411C557 -414 555 -417 552 -420L507 -470L476 -439H338ZM378 -740V-794C407 -811 410 -813 410 -816C410 -818 407 -820 401 -823L330 -854C333 -805 333 -786 333 -740H118C97 -740 73 -742 49 -744L76 -710C92 -716 119 -720 139 -720H333C333 -708 332 -654 332 -643C332 -634 335 -630 342 -630C346 -630 351 -631 358 -634C376 -641 380 -644 380 -654C380 -656 378 -709 378 -720H620C620 -708 619 -655 619 -644C619 -635 621 -631 627 -631C636 -631 653 -639 662 -645C663 -626 663 -601 663 -574C663 -540 663 -503 661 -471H601C578 -471 553 -473 528 -475L556 -438C573 -445 602 -449 623 -449H659C638 -159 565 -42 357 75L369 86C580 -13 667 -106 705 -449H842C842 -318 834 -159 820 -79C811 -29 791 -6 739 -6C712 -6 676 -12 627 -24L625 -9C711 12 740 30 749 56C752 65 756 69 762 69C764 69 767 68 771 66C836 31 858 -4 867 -67C877 -135 887 -286 890 -426L924 -449C930 -453 932 -455 932 -458C932 -461 930 -464 925 -468L858 -517L825 -471H707C711 -514 713 -557 714 -580L744 -599C749 -602 751 -605 751 -608C751 -611 749 -615 743 -617L667 -652C667 -663 665 -710 665 -720H932C940 -720 943 -721 943 -724C943 -727 941 -730 935 -736L872 -796L827 -740H665V-791L691 -807C696 -810 698 -812 698 -815C698 -817 696 -819 690 -822L617 -853C620 -804 620 -784 620 -740Z"/>
</svg>