<svg xmlns="http://www.w3.org/2000/svg" viewBox="0 -1000 1000 1000">
	<path fill="#000000" d="M902 -302L860 -248H713V-536H891C898 -536 901 -537 901 -539C901 -542 899 -545 894 -550L839 -611L800 -558H713V-597C742 -615 745 -616 745 -619C745 -621 743 -622 739 -624L664 -660C666 -638 667 -607 667 -558H344V-595C371 -611 374 -613 374 -616C374 -618 372 -620 367 -622L295 -660C297 -635 298 -616 298 -558H184C149 -558 135 -558 118 -560L150 -529C162 -534 174 -536 211 -536H298V-248H110C66 -248 53 -249 35 -251L64 -221C76 -225 85 -226 132 -226H195V-9L160 20L220 59C224 61 226 63 228 63C230 63 232 61 234 59L256 29H872C879 29 883 28 883 26C883 24 880 21 876 17L814 -46L775 7H240V-226H959C964 -226 966 -227 966 -229C966 -230 964 -234 959 -239ZM344 -367V-443H667V-367ZM344 -465V-536H667V-465ZM344 -248V-345H667V-248ZM891 -780L850 -724H647V-797C677 -816 678 -816 678 -819C678 -821 675 -823 670 -825L598 -855C600 -834 601 -816 601 -769V-724H398V-794C423 -810 426 -812 426 -815C426 -817 423 -819 417 -822L349 -853C351 -824 352 -806 352 -769V-724H115C83 -724 65 -724 43 -726L76 -697C94 -701 112 -702 137 -702H352C352 -694 349 -654 349 -653C349 -648 350 -646 354 -646C359 -646 399 -655 399 -669C399 -674 398 -697 398 -702H601C601 -675 601 -661 600 -652V-649C600 -644 602 -642 606 -642C610 -642 617 -644 627 -648C645 -656 649 -659 649 -668C649 -673 647 -697 647 -702H945C951 -702 954 -703 954 -705C954 -708 951 -711 946 -717ZM454 -199C427 -164 388 -123 282 -38L290 -26C365 -75 469 -140 504 -147C513 -149 517 -150 517 -153C517 -155 514 -157 510 -160ZM588 -174C652 -135 688 -92 703 -67C717 -43 724 -38 737 -38C744 -38 758 -51 758 -73C758 -80 757 -88 753 -96C741 -124 695 -152 593 -185Z"/>
</svg>