<svg xmlns="http://www.w3.org/2000/svg" viewBox="0 -1000 1000 1000">
	<path fill="#000000" d="M772 -244L744 -211H255L198 -258C200 -228 201 -192 201 -158V-64C201 -23 200 25 198 55V67C198 79 200 84 206 84C209 84 214 83 220 80C244 69 245 66 245 49V17H755V54C755 64 756 68 761 68C765 68 772 66 783 60C800 52 803 50 803 36C803 25 799 -63 799 -82V-170L825 -183C830 -185 833 -188 833 -190C833 -193 830 -197 824 -202ZM528 -109V-189H755V-109ZM245 -109V-189H485V-109ZM528 -4V-88H755V-4ZM245 -4V-88H485V-4ZM840 -339L797 -294H550V-371H771C783 -371 789 -372 789 -375C789 -378 786 -382 778 -390L737 -431L702 -391H550V-458H764C776 -458 782 -459 782 -462C782 -465 778 -470 771 -477L732 -516L701 -478H550V-543H743C755 -543 761 -544 761 -548C761 -551 758 -555 751 -562L710 -603L683 -563H343C350 -571 357 -578 363 -586C375 -601 380 -604 405 -614C412 -617 415 -619 415 -621C415 -623 412 -625 407 -628L355 -656C320 -591 216 -464 93 -357L103 -344C147 -376 198 -418 247 -464V-353C247 -339 245 -272 245 -262C245 -250 246 -246 253 -246C256 -246 262 -247 269 -250C288 -257 290 -265 290 -274H879C891 -274 897 -275 897 -279C897 -282 894 -286 886 -294ZM290 -391V-458H507V-391ZM290 -478V-506C302 -518 314 -531 325 -543H507V-478ZM290 -294V-371H507V-294ZM912 -718C922 -718 927 -719 927 -723C927 -726 924 -730 918 -737L867 -790L820 -738H387C399 -751 411 -766 424 -782C433 -793 437 -796 470 -803C476 -805 480 -806 480 -809C480 -811 477 -814 472 -817L409 -856C384 -815 358 -775 328 -738H118C95 -738 70 -739 45 -741L73 -707C90 -714 119 -718 140 -718H310C239 -633 149 -551 25 -455L33 -442C153 -518 259 -596 368 -718H607C672 -635 748 -577 864 -530C871 -527 876 -525 880 -525C883 -525 885 -527 887 -530C902 -554 917 -565 972 -569L973 -583C818 -592 720 -632 631 -718ZM462 -672C494 -645 507 -626 512 -603C517 -580 525 -571 537 -571C553 -571 571 -589 571 -611C571 -631 561 -658 469 -683Z"/>
</svg>