<svg xmlns="http://www.w3.org/2000/svg" viewBox="0 -1000 1000 1000">
	<path fill="#000000" d="M461 -553C440 -511 424 -488 376 -427C442 -381 459 -363 469 -330C478 -301 483 -297 493 -297C509 -297 520 -312 520 -329C520 -369 477 -393 401 -425C451 -481 484 -503 512 -510C518 -512 521 -514 521 -517C521 -519 519 -522 515 -524ZM303 -73L53 -47L87 10C89 14 91 16 94 16C96 16 99 14 102 12C128 -6 154 -14 201 -22L556 -82V-99L350 -78V-223H544C552 -223 556 -226 556 -230C556 -234 553 -239 547 -244L495 -291L459 -245H160C137 -245 112 -247 87 -249L115 -212C132 -219 161 -223 182 -223H303ZM368 -740V-794C374 -797 399 -812 399 -816C399 -818 397 -820 391 -823L320 -854C323 -805 323 -786 323 -740H116C95 -740 71 -742 47 -744L74 -710C90 -716 117 -720 137 -720H323C323 -706 322 -644 322 -631C322 -622 325 -618 332 -618C336 -618 341 -619 348 -622C366 -629 370 -632 370 -642V-646C369 -659 368 -679 368 -720H622C622 -708 621 -655 621 -644C621 -635 623 -631 629 -631C633 -631 639 -633 647 -636C665 -644 669 -647 669 -656C669 -666 667 -711 667 -720H942C950 -720 953 -721 953 -724C953 -727 951 -730 945 -736L882 -796L837 -740H667V-791L693 -807C698 -810 700 -812 700 -815C700 -817 698 -819 692 -822L619 -853C622 -804 622 -784 622 -740ZM188 -550C167 -503 148 -475 96 -411C149 -367 166 -346 172 -318C180 -285 187 -278 203 -278C220 -278 226 -290 226 -308C226 -349 183 -380 117 -411C189 -489 205 -498 241 -505C249 -507 254 -510 254 -514C254 -517 251 -520 246 -523ZM327 -551C309 -509 289 -478 246 -419C302 -362 314 -349 321 -317C327 -288 332 -279 346 -279C363 -279 372 -299 372 -319C372 -342 348 -371 269 -418C328 -485 349 -502 379 -511C386 -513 389 -516 389 -518C389 -520 387 -523 382 -525ZM767 -613C771 -616 772 -618 772 -620C772 -622 770 -624 765 -626L681 -664C688 -577 689 -527 688 -476H628C605 -476 580 -478 555 -480L583 -443C600 -450 629 -454 650 -454H688C678 -171 619 -64 409 70L416 84C665 -50 720 -180 731 -454H852C852 -313 841 -180 832 -100C826 -48 812 -28 755 -28C731 -28 699 -31 656 -38L652 -23C738 2 750 13 762 46C766 56 769 60 773 60C779 60 867 31 876 -73C888 -218 894 -312 896 -438L932 -458C938 -462 941 -465 941 -469C941 -472 938 -476 931 -480L866 -522L837 -476H731C732 -521 732 -563 731 -589ZM498 -643L459 -591H140C117 -591 92 -593 67 -595L95 -558C112 -565 141 -569 162 -569H554C563 -569 567 -570 567 -573C567 -575 564 -579 558 -585Z"/>
</svg>