<svg xmlns="http://www.w3.org/2000/svg" viewBox="0 -1000 1000 1000">
	<path fill="#000000" d="M142 -596C144 -566 145 -522 145 -498V-264C145 -244 141 -148 141 -137C141 -132 142 -129 147 -129C151 -129 159 -132 172 -137C187 -144 189 -147 189 -168H433V-137C433 -128 434 -124 439 -124C443 -124 449 -126 459 -130C478 -138 481 -141 481 -148V-152C479 -190 478 -220 478 -275V-502L508 -521C515 -525 518 -528 518 -531C518 -535 515 -538 508 -543L450 -589L420 -547H204ZM189 -314V-406H433V-314ZM189 -428V-525H433V-428ZM189 -190V-292H433V-190ZM690 -796C721 -814 724 -816 724 -821C724 -824 720 -828 713 -831L641 -863C643 -830 643 -802 643 -777V-713H378V-786L402 -800C410 -804 414 -807 414 -810C414 -813 410 -816 401 -820L329 -856C330 -827 331 -784 331 -770V-713H115C81 -713 64 -714 42 -717L70 -680C89 -687 116 -691 137 -691H331C331 -676 330 -608 330 -594C330 -580 332 -575 339 -575C340 -575 380 -586 380 -604V-606C379 -622 378 -641 378 -691H643C643 -675 642 -605 642 -590C642 -582 644 -578 649 -578C654 -578 692 -591 692 -608V-610C690 -627 690 -647 690 -691H945C954 -691 959 -695 959 -701C959 -705 956 -710 950 -716L886 -774L845 -713H690ZM229 -142C174 -61 122 -10 29 66L38 75C115 36 168 -2 238 -71C248 -81 264 -88 281 -91C288 -92 292 -95 292 -98C292 -101 290 -103 286 -106ZM342 -117C415 -62 443 -25 460 22C465 36 479 45 491 45C504 45 516 35 516 17C516 -48 420 -98 348 -128ZM798 -621C800 -584 802 -516 802 -475V-46C802 -22 796 -10 759 -10C732 -10 690 -16 624 -28L622 -11C739 19 750 26 761 69C762 74 765 77 769 77C771 77 774 76 776 75C836 51 847 33 847 -36V-536L877 -554C884 -558 888 -562 888 -565C888 -569 884 -572 877 -576ZM615 -518C616 -485 618 -424 618 -387V-296C618 -245 617 -209 615 -156C615 -135 616 -127 625 -127C629 -127 635 -129 643 -133C660 -141 664 -144 664 -157V-163C663 -188 662 -226 662 -295V-440L690 -455C697 -459 701 -462 701 -465C701 -469 697 -472 688 -477Z"/>
</svg>