<svg xmlns="http://www.w3.org/2000/svg" viewBox="0 -1000 1000 1000">
	<path fill="#000000" d="M896 -165L857 -106L728 -97V-388H929C936 -388 939 -390 939 -393C939 -395 937 -399 933 -403L872 -466L833 -410H146C126 -410 98 -411 73 -414L101 -377C118 -384 147 -388 168 -388H259V-66L117 -56C90 -54 69 -54 33 -55L67 -21C82 -28 107 -33 148 -36L682 -73C682 -53 680 36 680 54C680 71 682 77 689 77C694 77 701 75 710 71C729 63 734 59 734 46C734 44 733 41 733 37C730 11 728 -20 728 -76L961 -92C968 -93 971 -94 971 -97C971 -99 968 -103 963 -107ZM305 -199V-287H682V-199ZM305 -309V-388H682V-309ZM305 -69V-177H682V-94ZM705 -653L680 -615H300L245 -657C247 -637 248 -615 248 -589V-526C248 -512 246 -451 246 -438C246 -431 247 -428 253 -428C257 -428 264 -430 274 -434C293 -441 293 -444 293 -472H694C694 -440 694 -437 700 -437C706 -437 741 -446 741 -462C741 -464 739 -519 739 -530V-581L761 -597C768 -602 772 -606 772 -609C772 -612 768 -615 761 -619ZM293 -494V-593H694V-494ZM869 -778L834 -720H645V-790C674 -809 677 -811 677 -814C677 -817 674 -819 668 -822L597 -851C599 -822 600 -806 600 -781V-720H391V-796C422 -813 425 -815 425 -818C425 -821 421 -824 414 -827L343 -859C345 -830 346 -814 346 -789V-720H107C88 -720 60 -721 34 -724L62 -687C79 -694 101 -698 129 -698H346C346 -690 345 -655 345 -647C345 -639 346 -635 352 -635C356 -635 362 -637 371 -641C388 -648 393 -651 393 -660C393 -660 391 -692 391 -698H600C600 -690 599 -655 599 -648C599 -640 600 -636 606 -636C610 -636 616 -638 625 -642C642 -649 647 -652 647 -661C647 -662 645 -691 645 -698H931C938 -698 941 -699 941 -702C941 -705 939 -708 934 -713Z"/>
</svg>