<svg xmlns="http://www.w3.org/2000/svg" viewBox="0 -1000 1000 1000">
	<path fill="#000000" d="M698 -173C672 -131 629 -96 565 -61C507 -88 452 -125 398 -173ZM848 -374C856 -374 860 -375 860 -379C860 -382 857 -386 851 -392L792 -449L751 -396H636C729 -479 746 -490 769 -493C775 -494 778 -496 778 -499C778 -501 776 -504 771 -507L713 -540C683 -487 658 -451 612 -396H209C186 -396 161 -398 136 -400L164 -363C181 -370 204 -374 231 -374H369C362 -344 354 -318 346 -293H131C108 -293 83 -295 58 -297L86 -260C103 -267 132 -271 153 -271H338C289 -145 212 -68 49 35L55 49C186 -16 275 -81 336 -173H376C424 -117 471 -75 527 -41C431 5 301 45 146 71L150 85C319 66 469 29 571 -17C639 15 723 40 838 64C841 65 844 65 846 65C850 65 852 63 855 58C863 42 896 25 947 17L946 4C928 5 911 5 894 5C791 5 700 -8 616 -40C666 -66 705 -97 732 -130C748 -150 765 -160 784 -162C791 -163 795 -164 795 -167C795 -170 791 -174 784 -181L730 -230L699 -196H350C364 -219 376 -244 387 -271H931C940 -271 945 -272 945 -276C945 -278 941 -283 934 -289L868 -347L831 -293H396C405 -318 414 -345 421 -374ZM803 -617C676 -588 531 -570 125 -540V-525C362 -527 565 -539 732 -555C748 -557 762 -557 774 -557C801 -557 819 -553 838 -545C841 -544 843 -543 845 -543C847 -543 849 -545 849 -547C849 -548 848 -550 846 -553ZM670 -781C701 -799 704 -801 704 -806C704 -809 700 -813 693 -816L621 -848C623 -815 623 -787 623 -762V-713H376V-771L400 -785C408 -789 412 -792 412 -795C412 -798 408 -801 399 -805L327 -841C328 -812 329 -784 329 -755V-713H117C94 -713 69 -714 44 -717L72 -680C89 -687 118 -691 139 -691H329C329 -678 328 -618 328 -606C328 -588 332 -581 339 -581C347 -581 378 -594 378 -615V-617C377 -630 376 -639 376 -691H623C623 -680 622 -632 622 -622C622 -613 624 -608 630 -608C634 -608 672 -621 672 -638C672 -639 670 -683 670 -691H949C958 -691 963 -695 963 -701C963 -705 960 -710 954 -716L890 -774L849 -713H670ZM229 -507C271 -478 293 -450 303 -420C307 -408 312 -404 320 -404C340 -404 346 -423 346 -435C346 -475 284 -498 234 -516ZM439 -515C478 -478 490 -457 493 -433C497 -407 505 -402 515 -402C530 -402 545 -418 545 -436C545 -441 544 -446 542 -451C532 -471 505 -494 446 -523Z"/>
</svg>