<svg xmlns="http://www.w3.org/2000/svg" viewBox="0 -1000 1000 1000">
	<path fill="#000000" d="M601 -642C557 -588 523 -559 441 -500C409 -477 395 -470 352 -465L390 -413C395 -406 398 -404 402 -404C405 -404 408 -405 412 -408C450 -431 485 -439 821 -455C830 -443 833 -438 835 -429C842 -403 850 -399 860 -399C870 -399 881 -421 881 -443C881 -493 833 -527 696 -579L689 -568C744 -536 776 -511 805 -475L437 -465C498 -505 542 -534 598 -568C610 -575 625 -579 641 -579C649 -579 654 -580 654 -583C654 -586 652 -589 648 -593ZM948 -10C858 -13 763 -38 667 -95C705 -126 738 -159 765 -194C780 -214 797 -224 815 -227C824 -229 829 -232 829 -236C829 -239 826 -242 822 -246L768 -296L726 -263H553C570 -285 589 -300 607 -300C616 -301 621 -302 621 -306C621 -308 618 -312 612 -316L559 -356C494 -252 412 -163 322 -90L330 -78C393 -121 451 -165 498 -209C532 -169 569 -132 607 -100C529 -36 430 16 288 73L291 84C433 47 551 -9 639 -73C748 16 839 49 847 49C850 49 854 47 856 44C869 22 889 9 948 0ZM699 -407C777 -367 825 -319 847 -275C860 -249 868 -244 876 -244C888 -244 900 -263 900 -285C900 -346 774 -400 702 -419ZM738 -243C706 -197 671 -156 630 -120C588 -150 556 -176 511 -221L533 -243ZM895 -769L853 -715H678V-782C707 -801 710 -803 710 -807C710 -809 707 -812 701 -815L628 -850C630 -817 631 -789 631 -764V-715H362V-788L386 -803C390 -805 392 -808 392 -810C392 -812 389 -815 384 -817L312 -848C314 -815 315 -787 315 -762V-715H117C94 -715 69 -717 44 -719L72 -682C89 -689 117 -693 139 -693H315C315 -683 314 -637 314 -628C314 -622 315 -619 320 -619C327 -619 363 -630 363 -647C363 -654 362 -686 362 -693H631C631 -685 630 -648 630 -641C630 -635 632 -632 637 -632C638 -632 679 -641 679 -655C679 -655 678 -687 678 -693H953C960 -693 964 -694 964 -697C964 -699 961 -703 957 -707ZM203 60C203 73 205 79 212 79C217 79 224 76 233 72C250 64 253 61 253 47V-474C267 -492 283 -512 300 -534C316 -555 323 -559 336 -561C345 -562 349 -564 349 -567C349 -570 346 -574 339 -579L288 -614C210 -475 123 -350 38 -260L48 -251C100 -296 135 -331 206 -416V-114C206 -62 205 -5 203 54ZM302 -227C368 -265 429 -303 494 -355C507 -366 523 -374 536 -376C540 -377 544 -378 544 -380C544 -383 541 -385 535 -389L483 -418C431 -355 355 -284 295 -238Z"/>
</svg>