<svg xmlns="http://www.w3.org/2000/svg" viewBox="0 -1000 1000 1000">
	<path fill="#000000" d="M895 -774L858 -720H687V-786L714 -800C720 -803 723 -806 723 -808C723 -811 720 -814 713 -817L637 -853C639 -820 640 -792 640 -767V-720H403V-791C433 -810 436 -812 436 -816C436 -819 432 -821 426 -824L354 -855C356 -822 357 -793 357 -768V-720H121C98 -720 73 -722 48 -724L76 -687C93 -694 122 -698 143 -698H357C357 -683 354 -614 354 -600C354 -590 356 -585 362 -585C363 -585 405 -595 405 -613C405 -636 403 -674 403 -698H640C640 -683 638 -605 638 -601C638 -589 640 -584 646 -584C652 -584 689 -595 689 -612V-615C688 -629 687 -662 687 -698H954C962 -698 966 -699 966 -702C966 -704 964 -708 959 -712ZM477 -659C509 -627 525 -602 532 -579C540 -553 547 -548 557 -548C572 -548 584 -566 584 -585C584 -591 583 -596 581 -601C572 -625 537 -648 483 -669ZM70 -509C110 -461 130 -424 134 -386C137 -363 142 -357 153 -357C176 -357 188 -382 188 -403C188 -442 142 -476 79 -519ZM872 -586L834 -537H292L236 -584C237 -559 237 -532 237 -503C237 -450 236 -391 231 -328L38 -227L84 -188C87 -185 90 -184 92 -184C94 -184 96 -186 97 -190C99 -199 109 -212 129 -228L229 -309C213 -121 166 -52 48 78L58 88C237 -54 280 -170 280 -514H932C940 -514 943 -515 943 -518C943 -520 941 -524 935 -529ZM969 6C820 -5 709 -90 646 -201H939C946 -201 949 -203 949 -206C949 -208 947 -211 943 -215L884 -274L843 -223H613C623 -268 629 -316 635 -370H847C853 -370 856 -371 856 -374C856 -376 854 -379 850 -383L792 -437L753 -392H449C479 -435 482 -439 505 -447C511 -449 513 -450 513 -452C513 -453 512 -455 508 -457L447 -491C410 -402 393 -368 316 -245L327 -237C374 -291 399 -322 434 -370H586C584 -323 576 -258 569 -223H352C330 -223 305 -225 282 -227L309 -191C324 -197 353 -201 373 -201H562C523 -90 461 -18 215 72L220 87C431 35 569 -53 608 -201H625C677 -89 732 -25 868 57C871 59 873 59 875 59C878 59 880 58 882 54C888 40 909 25 969 18Z"/>
</svg>