<svg xmlns="http://www.w3.org/2000/svg" viewBox="0 -1000 1000 1000">
	<path fill="#000000" d="M707 -289H300V-373H707ZM300 -477H707V-394H300ZM707 -268V-238C707 -230 708 -225 714 -225C718 -225 724 -227 734 -231C754 -239 760 -244 760 -257C760 -260 754 -339 754 -355V-457L783 -473C789 -477 792 -479 792 -482C792 -485 789 -488 783 -492L720 -541L690 -498H309L250 -538C252 -507 253 -459 253 -435V-351C253 -332 250 -236 250 -231C250 -221 252 -216 258 -216C267 -216 300 -226 300 -247V-268H457C483 -233 486 -219 486 -195C486 -177 496 -169 509 -169C524 -169 539 -182 539 -206C539 -228 526 -245 491 -268ZM77 -135C94 -142 117 -146 141 -146H946C956 -146 960 -148 960 -152C960 -155 958 -159 952 -165L890 -231L840 -167H119C96 -167 75 -169 50 -173ZM364 -131C312 -74 218 -3 89 80L98 91C198 42 284 -5 371 -59C380 -65 397 -70 411 -70C420 -70 425 -71 425 -74C425 -76 422 -80 417 -84ZM953 -708C960 -708 964 -709 964 -712C964 -714 961 -718 957 -722L895 -784L853 -730H668V-784C697 -803 700 -805 700 -809C700 -811 697 -814 691 -817L618 -852C620 -819 621 -791 621 -766V-730H372V-790L396 -805C400 -807 402 -810 402 -812C402 -814 399 -817 394 -819L322 -850C324 -817 325 -789 325 -764V-730H117C94 -730 69 -732 44 -734L72 -697C89 -704 118 -708 139 -708H325C325 -697 324 -647 324 -637C324 -631 325 -628 330 -628C337 -628 373 -639 373 -656C373 -664 372 -701 372 -708H621C621 -698 620 -652 620 -643C620 -637 622 -634 627 -634C628 -634 669 -643 669 -657C669 -671 668 -694 668 -708ZM196 -651C180 -561 164 -541 121 -520C100 -509 92 -496 92 -485C92 -470 106 -458 126 -458C136 -458 148 -461 160 -470C194 -495 206 -524 209 -583H851L806 -501L821 -492C880 -563 897 -576 935 -577C944 -577 949 -581 949 -585C949 -588 947 -592 943 -595L876 -645L840 -604H210C211 -618 211 -634 211 -651ZM598 -90C729 -33 781 4 814 49C827 67 833 70 844 70C855 70 867 52 867 30C867 21 865 10 859 0C841 -33 788 -58 604 -104Z"/>
</svg>