<svg xmlns="http://www.w3.org/2000/svg" viewBox="0 -1000 1000 1000">
	<path fill="#000000" d="M301 -494C303 -463 304 -415 304 -391V-305C304 -286 299 -197 299 -187C299 -178 301 -174 307 -174C311 -174 318 -176 327 -180C349 -188 349 -191 349 -217H523V-35C523 -6 519 7 482 7C463 7 437 4 400 -2L397 10C476 32 489 44 495 69C496 76 499 79 504 79C506 79 509 78 513 76C560 54 571 40 571 -12V-217H738C738 -182 738 -179 745 -179C750 -179 757 -181 768 -187C784 -195 789 -199 789 -211C789 -217 784 -308 784 -326V-411L814 -432C818 -435 821 -437 821 -440C821 -442 818 -445 813 -449L752 -495L724 -452H513L583 -557H878C887 -557 892 -559 892 -564C892 -567 888 -573 881 -580L832 -630L787 -581H223L158 -638C160 -587 160 -535 160 -487C160 -164 123 -53 25 55L35 65C188 -51 206 -232 206 -557H516C513 -535 500 -485 490 -452H363ZM738 -242H349V-322H738ZM349 -427H738V-347H349ZM381 -789L408 -805C415 -809 419 -812 419 -815C419 -818 415 -820 407 -823L332 -852C334 -819 335 -791 335 -766V-724H118C95 -724 70 -726 45 -728L73 -687C90 -694 119 -698 140 -698H335C335 -684 334 -623 334 -610C334 -600 335 -596 341 -596C342 -596 383 -605 383 -623C383 -635 381 -687 381 -698H624C624 -684 623 -623 623 -610C623 -600 625 -595 631 -595C636 -595 672 -605 672 -621C672 -642 670 -677 670 -698H932C942 -698 947 -701 947 -705C947 -709 944 -714 937 -721L879 -777L840 -724H670V-790C703 -810 705 -811 705 -815C705 -817 701 -820 694 -823L621 -853C623 -820 624 -792 624 -767V-724H381ZM651 -129C748 -87 805 -49 828 -20C839 -4 857 9 869 9C878 9 887 1 887 -15C887 -87 769 -117 654 -140ZM390 -168C327 -96 252 -36 165 18L171 30C250 -5 339 -60 385 -99C397 -109 421 -116 439 -115C444 -115 448 -117 448 -120C448 -122 446 -125 441 -129Z"/>
</svg>