<svg xmlns="http://www.w3.org/2000/svg" viewBox="0 -1000 1000 1000">
	<path fill="#000000" d="M222 -287C223 -264 225 -215 225 -188V-77C225 -40 224 -5 222 32V40C222 51 223 56 229 56C233 56 240 53 250 48C269 39 269 36 269 24V-20H475V18C475 26 476 30 481 30C486 30 522 19 522 4C522 -2 519 -57 519 -68V-206L543 -220C547 -222 548 -224 548 -227C548 -229 547 -231 544 -233L482 -277L457 -242H384V-358H578C586 -358 591 -359 591 -362C591 -365 588 -369 581 -375L526 -424L491 -379H384V-448C409 -462 411 -464 411 -468C411 -470 407 -473 399 -476L336 -504C338 -467 340 -398 340 -357V-242H279ZM269 -42V-220H475V-42ZM373 -720V-787C399 -802 402 -804 402 -808C402 -811 400 -814 395 -816L325 -849C327 -816 328 -788 328 -763V-720H134C111 -720 86 -721 61 -724L89 -687C106 -694 135 -698 156 -698H328C328 -685 327 -625 327 -613C327 -600 332 -594 340 -594C341 -594 375 -600 375 -619V-622C373 -645 373 -654 373 -698H619C619 -689 618 -648 618 -639C618 -627 621 -621 628 -621C638 -621 665 -633 665 -646C665 -655 663 -691 663 -698H947C953 -698 956 -699 956 -702C956 -705 954 -708 949 -712L886 -771L845 -720H663V-785L687 -802C692 -805 694 -808 694 -811C694 -813 691 -816 685 -818L616 -845C618 -826 619 -803 619 -780V-720ZM725 -647C755 -624 773 -600 779 -583C789 -556 795 -552 806 -552C820 -552 833 -574 833 -592C833 -619 793 -637 730 -659ZM474 86C578 24 645 -27 706 -105C768 4 897 88 941 88C944 88 956 88 956 79C956 73 952 65 943 53C930 36 919 -24 919 -162L904 -163L888 -3C887 6 886 11 882 11C878 11 791 -40 733 -145C767 -196 794 -249 832 -336C840 -354 843 -359 866 -368C872 -371 876 -373 876 -376C876 -378 873 -380 868 -383L807 -419C779 -324 746 -243 714 -187C686 -260 670 -367 663 -515H941C948 -515 952 -516 952 -519C952 -522 949 -525 944 -530L884 -587L845 -537H662C662 -548 661 -559 661 -570C677 -587 679 -589 679 -592C679 -594 676 -596 671 -598L616 -614L619 -537H198L133 -584C135 -519 136 -463 136 -415C136 -92 85 -9 30 79L41 87C129 -19 163 -113 172 -235C179 -333 184 -445 186 -515H621C630 -350 652 -222 686 -143C634 -67 573 -9 465 75Z"/>
</svg>