<svg xmlns="http://www.w3.org/2000/svg" viewBox="0 -1000 1000 1000">
	<path fill="#000000" d="M966 -10C929 -7 893 -5 858 -5C760 -5 669 -18 569 -50C630 -80 681 -114 728 -151C744 -163 761 -171 776 -174C785 -176 789 -179 789 -183C789 -186 786 -189 782 -192L719 -234L676 -196H352C373 -213 399 -230 416 -232C424 -233 428 -236 428 -239C428 -241 426 -243 422 -245L360 -275C301 -195 228 -131 132 -57L142 -45C194 -75 236 -103 302 -155C364 -110 419 -74 476 -46C375 -1 243 34 35 70L40 84C251 62 402 23 517 -26C615 16 720 39 868 52C873 52 878 49 881 45C894 25 920 9 966 3ZM684 -176C631 -133 579 -96 520 -67C456 -90 388 -122 311 -163C317 -167 323 -172 328 -176ZM636 -647C636 -637 638 -632 644 -632C650 -632 681 -641 681 -657C681 -671 679 -694 679 -708H949C956 -708 959 -709 959 -712C959 -714 957 -717 953 -721L895 -781L858 -728H679V-786C704 -803 707 -805 707 -809C707 -812 704 -814 699 -816L633 -842C636 -793 636 -777 636 -728H352V-780C377 -797 380 -799 380 -803C380 -806 377 -808 372 -810L306 -836C309 -787 309 -769 309 -728H140C117 -728 92 -730 67 -732L95 -697C112 -704 141 -708 162 -708H309V-660C309 -650 311 -645 317 -645C323 -645 354 -654 354 -670C354 -671 352 -702 352 -708H636ZM860 -403C871 -403 877 -404 877 -408C877 -411 873 -416 865 -423L814 -470L772 -423H522V-604C553 -623 556 -625 556 -629C556 -631 553 -634 547 -637L472 -676C474 -641 475 -617 475 -578V-423H212C190 -423 165 -425 142 -427L169 -394C184 -400 213 -403 233 -403H475V-311H131C108 -311 82 -313 58 -315L86 -279C102 -285 132 -289 153 -289H945C957 -289 962 -291 962 -295C962 -298 959 -304 953 -311L894 -370L852 -311H522V-403ZM173 -434C207 -461 251 -499 288 -539C330 -516 346 -495 360 -463C366 -450 371 -444 381 -444C402 -444 407 -463 407 -473C407 -489 394 -523 300 -554C325 -585 335 -592 350 -596C359 -598 363 -601 363 -604C363 -606 360 -608 355 -611L300 -639C263 -558 218 -500 159 -442ZM682 -638C638 -550 602 -494 550 -436L565 -429C609 -467 635 -493 674 -540C724 -510 735 -496 749 -468C757 -452 766 -446 776 -446C793 -446 798 -458 798 -469C798 -506 772 -524 686 -554L696 -567C712 -588 724 -594 742 -597C750 -598 753 -599 753 -601C753 -603 751 -605 745 -607Z"/>
</svg>