<svg xmlns="http://www.w3.org/2000/svg" viewBox="0 -1000 1000 1000">
	<path fill="#000000" d="M738 -479H244C219 -479 193 -480 168 -482L200 -451C221 -457 245 -460 267 -460H487V-376H272L215 -408C217 -382 219 -357 219 -331V-164C219 -140 216 -116 216 -92C216 -86 216 -81 223 -81C230 -81 241 -85 247 -87C263 -92 266 -98 266 -108C266 -113 265 -119 265 -127H753C753 -102 753 -99 758 -99C763 -99 771 -102 776 -104C802 -114 803 -114 803 -133C800 -160 798 -187 798 -214V-348C803 -351 831 -363 831 -369C831 -375 770 -409 761 -414L738 -376H534V-460H829C832 -460 836 -461 836 -464C836 -471 789 -515 782 -522ZM534 -262V-357H753V-262ZM534 -147V-243H753V-147ZM265 -262V-357H487V-262ZM265 -147V-243H487V-147ZM900 -798L859 -742H680V-787C684 -789 714 -803 714 -810C714 -814 706 -818 703 -819L633 -849C634 -827 635 -805 635 -784V-742H367V-780C370 -782 403 -797 403 -801C403 -809 329 -840 320 -844C322 -794 322 -790 322 -742H116C94 -742 72 -743 50 -746L78 -712C96 -718 124 -722 143 -722H322C322 -696 321 -671 321 -645C321 -639 321 -628 330 -628C341 -628 369 -641 369 -655C369 -677 367 -700 367 -722H635C635 -710 634 -657 634 -646C634 -641 634 -635 640 -635C650 -635 682 -650 682 -663C682 -682 680 -702 680 -722H959C965 -722 973 -724 973 -731C973 -736 968 -742 964 -745ZM838 -578H525C541 -580 555 -595 555 -611C555 -667 452 -686 414 -694L410 -686C442 -669 489 -641 496 -602C498 -590 505 -580 518 -578H184C185 -597 184 -619 181 -638H163C155 -522 78 -542 78 -501C78 -488 88 -482 101 -482C143 -482 173 -522 181 -560H850L819 -508L832 -500C871 -531 889 -549 940 -555C942 -555 950 -556 950 -560C950 -566 878 -613 868 -620ZM578 -81C648 -59 765 -5 809 56C818 69 832 88 849 88C866 88 874 73 874 58C874 42 867 27 857 15C812 -39 647 -81 582 -93ZM99 93C202 56 297 9 390 -48C411 -61 419 -61 443 -63C445 -63 453 -64 453 -68C453 -74 394 -109 385 -114C296 -35 198 30 92 84Z"/>
</svg>