<svg xmlns="http://www.w3.org/2000/svg" viewBox="0 -1000 1000 1000">
	<path fill="#000000" d="M166 -614C169 -589 170 -545 170 -496C170 -151 148 -57 45 82L55 92C167 -27 195 -103 209 -298H803C803 -264 803 -260 812 -260C820 -260 850 -277 850 -286C850 -295 848 -333 848 -341V-419C875 -433 878 -435 878 -439C878 -442 876 -445 871 -449L817 -489L791 -452H632V-548H903C911 -548 916 -549 916 -553C916 -555 913 -559 907 -565L852 -620L812 -568H224ZM422 -320V-431H588V-320ZM211 -320C212 -343 213 -386 215 -431H378V-320ZM588 -452H422V-548H588ZM378 -452H215C216 -488 217 -524 217 -548H378ZM803 -431V-320H632V-431ZM386 -725V-792C415 -807 419 -809 419 -813C419 -817 414 -819 406 -823L337 -851C339 -818 340 -790 340 -765V-725H119C96 -725 71 -726 46 -729L74 -692C91 -699 120 -703 141 -703H340C340 -691 339 -638 339 -627C339 -615 343 -609 351 -609C351 -609 388 -614 388 -636C388 -655 386 -684 386 -703H634C634 -691 633 -638 633 -627C633 -614 637 -609 645 -609C649 -609 654 -610 659 -612C677 -620 681 -625 681 -635C681 -637 679 -692 679 -703H931C940 -703 945 -705 945 -709C945 -712 942 -717 935 -724L881 -778L841 -725H679V-791C704 -806 706 -807 706 -812C706 -815 703 -818 697 -821L631 -854C633 -821 634 -793 634 -768V-725ZM476 -686C510 -653 522 -628 527 -597C530 -578 535 -571 545 -571C562 -571 574 -591 574 -614C574 -642 551 -666 484 -693ZM552 -138C560 -138 564 -139 564 -142C564 -144 561 -149 555 -155L506 -207L471 -157H356V-223C380 -240 382 -241 382 -245C382 -248 380 -251 375 -253L310 -284C311 -267 312 -232 312 -206V-36C312 4 306 13 274 25L312 76C315 79 317 80 319 80C322 80 324 79 327 76C356 47 395 28 555 -29L551 -43L356 2V-138ZM641 -230C669 -246 670 -247 670 -250C670 -252 667 -254 662 -257L595 -293C596 -277 597 -238 597 -221V-10C597 55 623 55 752 55C907 55 921 53 953 -11C955 -14 955 -17 955 -19C955 -23 953 -25 949 -27C934 -33 923 -54 922 -146H906C899 -16 890 8 840 13C815 15 778 17 744 17C670 17 641 17 641 -22V-102C818 -163 837 -165 871 -166C880 -166 884 -167 884 -170C884 -172 881 -175 877 -180L836 -225C793 -197 704 -148 641 -122Z"/>
</svg>