<svg xmlns="http://www.w3.org/2000/svg" viewBox="0 -1000 1000 1000">
	<path fill="#000000" d="M524 -261V-338H757C756 -326 758 -321 764 -321C768 -321 774 -323 783 -326C800 -332 804 -336 804 -351C804 -363 802 -415 802 -426V-493L828 -508C833 -511 836 -514 836 -516C836 -519 833 -522 828 -526L770 -569L744 -535H524V-593H895C903 -593 907 -596 907 -601C907 -604 904 -609 899 -614L844 -665L807 -614H524V-644C547 -659 549 -660 549 -665C549 -668 547 -670 541 -672L476 -694C478 -666 479 -642 479 -614H171C148 -614 123 -616 98 -618L126 -582C143 -589 172 -593 193 -593H479V-535H249L204 -575C206 -544 207 -504 207 -472V-413C207 -365 206 -349 204 -316V-310C204 -299 206 -294 212 -294C216 -294 222 -296 231 -300C251 -308 251 -311 251 -338H479V-260L110 -252L148 -201C152 -196 154 -194 157 -194C160 -194 162 -195 166 -197C198 -212 236 -219 301 -222L815 -248C820 -243 825 -238 829 -233C843 -215 856 -200 868 -200C878 -200 886 -212 886 -227C886 -282 802 -303 696 -325L693 -316C739 -293 768 -279 789 -266ZM479 -361H251V-425H479ZM479 -448H251V-513H479ZM524 -448V-513H757V-448ZM524 -361V-425H757V-361ZM702 -182C727 -194 730 -195 730 -198C730 -199 728 -201 723 -203L652 -234C654 -205 654 -185 654 -150H112C89 -150 67 -152 42 -154L68 -113C85 -120 113 -124 134 -124H261C307 -93 328 -61 336 -8C338 6 345 12 352 12C370 12 390 -9 390 -36C390 -66 364 -92 292 -124H654V-15C654 0 650 7 616 7C593 7 557 4 499 -2L497 13C595 33 611 47 619 84C620 87 621 89 623 89C625 89 626 89 628 88C688 62 702 46 702 -5V-124H940C946 -124 949 -126 949 -129C949 -132 947 -135 943 -139L881 -199L845 -150H702ZM377 -743V-792C402 -808 405 -810 405 -814C405 -817 401 -820 393 -823L326 -848C329 -815 329 -799 329 -743H117C94 -743 69 -745 44 -747L72 -709C89 -716 118 -720 139 -720H329C329 -710 328 -664 328 -655C328 -645 332 -641 340 -641C340 -641 379 -646 379 -665C379 -680 377 -705 377 -720H624C624 -710 623 -668 623 -659C623 -650 626 -646 633 -646C641 -646 670 -654 670 -671C670 -675 668 -712 668 -720H953C965 -720 971 -722 971 -727C971 -730 967 -735 961 -741L897 -800L866 -743H668V-791C671 -793 693 -810 693 -814C693 -817 689 -819 681 -822L621 -845C624 -796 624 -779 624 -743Z"/>
</svg>