<svg xmlns="http://www.w3.org/2000/svg" viewBox="0 -1000 1000 1000">
	<path fill="#000000" d="M109 -508C86 -508 61 -510 36 -512L64 -475C81 -482 110 -486 131 -486H322C317 -461 309 -436 299 -409H181C158 -409 133 -411 108 -413L136 -376C153 -383 182 -387 203 -387H291C257 -302 205 -240 51 -138L59 -124C183 -192 251 -245 294 -307V-226C294 -193 293 -161 291 -125V-120C291 -107 293 -102 299 -102C303 -102 309 -104 318 -109C338 -119 340 -123 340 -134V-158H736V-123C736 -114 737 -109 743 -109C747 -109 753 -111 763 -116C782 -125 786 -129 786 -139C786 -142 785 -145 785 -149C782 -170 781 -192 781 -220V-265L805 -286C809 -289 811 -292 811 -294C811 -297 809 -299 804 -302L743 -338L720 -303H346L309 -331C320 -349 329 -367 336 -387H697C697 -346 697 -345 703 -345C708 -345 714 -348 724 -354C743 -365 747 -368 747 -382C747 -387 742 -469 742 -486H950C960 -486 965 -488 965 -492C965 -494 963 -498 959 -502L904 -556L864 -508H742V-569C766 -589 768 -591 768 -594C768 -597 766 -599 760 -603L704 -637L683 -604H226C203 -604 178 -606 153 -608L181 -571C198 -578 227 -582 248 -582H337C335 -557 332 -532 327 -508ZM344 -409C354 -435 362 -461 368 -486H697V-409ZM373 -508C379 -533 383 -558 385 -582H697V-508ZM340 -180V-281H736V-180ZM955 -705C962 -705 966 -706 966 -709C966 -711 963 -715 959 -719L897 -781L855 -727H670V-778C699 -797 702 -799 702 -803C702 -805 699 -808 693 -811L620 -846C622 -813 623 -785 623 -760V-727H374V-784L398 -799C402 -801 404 -804 404 -806C404 -808 401 -811 396 -813L324 -844C326 -811 327 -783 327 -758V-727H119C96 -727 71 -729 46 -731L74 -694C89 -700 114 -705 141 -705H327C327 -695 326 -650 326 -641C326 -635 327 -631 333 -631C337 -631 344 -633 354 -638C371 -645 375 -650 375 -659C375 -666 374 -698 374 -705H623C623 -697 622 -660 622 -653C622 -647 624 -644 629 -644C630 -644 671 -653 671 -667C671 -667 670 -699 670 -705ZM361 -87C389 -41 397 -12 397 27C397 60 401 70 414 70C435 70 452 49 452 21C452 -24 390 -78 370 -94ZM767 -91C817 -47 841 -10 857 35C868 64 876 74 886 74C900 74 913 55 913 31C913 -8 883 -39 774 -103ZM206 -99C182 -14 153 13 109 29C95 34 91 42 91 54C91 64 91 77 123 77C203 77 212 -25 219 -95ZM555 -93C599 -45 619 -7 625 27C630 54 635 64 646 64C664 64 679 41 679 18C679 10 678 2 674 -5C657 -39 638 -57 563 -103Z"/>
</svg>