<svg xmlns="http://www.w3.org/2000/svg" viewBox="0 -1000 1000 1000">
	<path fill="#000000" d="M799 -643L759 -606H420C404 -606 384 -607 357 -610L387 -576C399 -582 415 -586 442 -586H747L624 -502C592 -522 543 -536 476 -548L471 -540C540 -515 583 -490 602 -452C605 -446 607 -442 610 -439H439L384 -480C385 -451 387 -399 387 -367V-199C387 -173 383 -57 383 -34C383 -26 385 -22 391 -22C395 -22 401 -24 409 -27C429 -35 432 -38 432 -48V-189H600C600 -148 600 -102 597 -61V-48C597 -36 599 -31 605 -31C613 -31 646 -40 646 -58C646 -60 645 -63 645 -66C643 -88 643 -130 643 -189H811V-120C811 -99 808 -89 782 -89C765 -89 740 -93 702 -100L699 -87C763 -73 777 -58 785 -29C786 -26 788 -25 791 -25C792 -25 794 -25 795 -26C851 -54 858 -65 858 -110V-406L884 -423C890 -427 893 -431 893 -436C893 -440 890 -444 885 -447L818 -488L794 -439H645C652 -445 656 -455 656 -464C656 -474 651 -485 640 -491C750 -554 797 -570 827 -570C830 -570 841 -569 843 -569C850 -569 856 -574 856 -580C856 -584 854 -588 851 -591ZM600 -301V-209H432V-301ZM600 -320H432V-419H600ZM643 -320V-419H811V-320ZM643 -209V-301H811V-209ZM962 -6C807 9 657 15 545 15C403 15 260 15 260 -141V-343L295 -361C300 -363 302 -366 302 -368C302 -370 300 -373 295 -376L229 -418L207 -377H119C101 -377 75 -378 52 -380L80 -352C92 -356 113 -359 133 -359H213V-131L59 5L108 29C111 30 113 31 115 31C119 31 121 28 124 22C147 -38 203 -98 217 -98C226 -98 232 -88 240 -70C273 0 327 37 407 47C488 57 644 61 852 61C867 61 873 59 879 50C893 28 920 14 962 6ZM131 -629C180 -591 214 -537 223 -500C229 -476 234 -466 248 -466C267 -466 278 -484 278 -509C278 -513 278 -518 277 -523C273 -550 220 -595 138 -638ZM685 -784C716 -802 719 -804 719 -809C719 -812 715 -816 708 -819L638 -851C640 -818 640 -790 640 -765V-734H391V-777L415 -791C423 -795 427 -798 427 -801C427 -804 423 -807 414 -811L344 -847C346 -789 346 -764 346 -734H142C119 -734 94 -735 69 -738L97 -701C114 -708 143 -712 164 -712H346C346 -701 345 -653 345 -643C345 -629 347 -624 354 -624C355 -624 393 -634 393 -652C393 -662 391 -703 391 -712H640C640 -688 639 -651 639 -627C639 -620 640 -616 645 -616C649 -616 687 -629 687 -646C687 -656 685 -703 685 -712H950C960 -712 965 -715 965 -721C965 -725 962 -731 955 -737L891 -795L850 -734H685Z"/>
</svg>