<svg xmlns="http://www.w3.org/2000/svg" viewBox="0 -1000 1000 1000">
	<path fill="#000000" d="M115 -596C117 -565 118 -517 118 -493V-214C118 -180 115 -32 115 -2C115 8 117 13 123 13C132 13 162 3 162 -17V-86H310V-50C310 -42 311 -38 316 -38C320 -38 326 -39 334 -43C355 -52 359 -56 359 -70V-77C356 -122 354 -189 354 -214V-519L379 -536C384 -539 387 -543 387 -546C387 -548 385 -550 382 -553L325 -594L297 -558H168ZM310 -265H162V-392H310ZM162 -108V-243H310V-108ZM162 -536H310V-414H162ZM375 -740V-794C404 -811 407 -813 407 -816C407 -818 404 -820 398 -823L327 -854C330 -805 330 -786 330 -740H118C97 -740 73 -742 49 -744L76 -710C92 -716 119 -720 139 -720H330C330 -707 329 -651 329 -640C329 -631 332 -627 339 -627C343 -627 348 -628 355 -631C373 -638 377 -641 377 -651C377 -670 375 -701 375 -720H615C615 -708 614 -655 614 -644C614 -635 616 -631 622 -631C626 -631 632 -633 640 -636C658 -644 662 -647 662 -656C662 -666 660 -711 660 -720H932C940 -720 943 -721 943 -724C943 -727 941 -730 935 -736L872 -796L827 -740H660V-791L686 -807C691 -810 693 -812 693 -815C693 -817 691 -819 685 -822L612 -853C615 -804 615 -784 615 -740ZM825 -565C780 -488 727 -406 700 -370L714 -362C826 -487 844 -503 874 -507C881 -508 884 -511 884 -515C884 -518 882 -521 878 -525ZM414 -545C455 -494 471 -455 476 -403C478 -382 487 -375 497 -375C514 -375 527 -397 527 -424C527 -466 500 -498 423 -555ZM678 -324C729 -183 776 -105 844 -36C849 -31 853 -29 858 -29C861 -29 864 -30 866 -33C876 -45 898 -53 928 -53C937 -53 947 -53 958 -51V-63C850 -90 786 -152 697 -324H922C930 -324 934 -325 934 -328C934 -331 932 -334 927 -339L864 -402L824 -346H653V-534L677 -554C681 -557 684 -560 684 -563C684 -566 681 -568 676 -571L605 -609C607 -572 609 -521 609 -463V-346H437C413 -346 391 -348 364 -350L392 -313C403 -319 423 -324 459 -324H570C512 -191 438 -87 324 15L333 25C442 -49 547 -165 609 -301V-92C609 -24 608 16 606 69V74C606 86 608 91 614 91C619 91 625 89 634 85C652 77 657 74 657 57V51C654 6 653 -33 653 -100V-324Z"/>
</svg>