<svg xmlns="http://www.w3.org/2000/svg" viewBox="0 -1000 1000 1000">
	<path fill="#000000" d="M822 16V63C822 72 823 76 828 76C832 76 838 74 848 70C869 61 873 57 873 43V36C870 -9 868 -53 868 -120V-585L898 -604C903 -607 906 -610 906 -614C906 -616 904 -619 900 -622L836 -667L808 -627H201L134 -685C136 -654 137 -609 137 -551V-121C137 -64 136 -1 134 58V64C134 75 136 80 142 80C152 80 183 70 183 49V16ZM551 -606C548 -561 547 -521 548 -485H282C259 -485 235 -487 210 -489L238 -452C255 -459 283 -463 304 -463H548C549 -338 563 -262 589 -206C541 -147 476 -97 383 -42L392 -29C493 -79 557 -119 607 -171C656 -83 754 -42 777 -42C782 -42 786 -43 786 -50C786 -55 783 -62 774 -77C761 -101 753 -135 753 -201C753 -219 754 -239 755 -261L737 -262L721 -148C719 -135 717 -128 712 -128C707 -128 701 -132 690 -140C665 -159 652 -175 636 -206C667 -246 692 -293 719 -354C725 -368 731 -374 749 -379C754 -381 757 -383 757 -385C757 -387 755 -389 751 -392L694 -429C674 -356 650 -298 618 -247C596 -298 588 -359 590 -463H782C791 -463 795 -464 795 -467C795 -470 792 -474 786 -480L740 -524L710 -485H590L593 -549C602 -557 617 -571 617 -574C617 -576 615 -578 610 -581L564 -606H822V-6H183V-606ZM624 -576C661 -563 674 -546 684 -531C694 -516 702 -514 713 -514C719 -514 724 -526 724 -539C724 -576 700 -578 625 -586ZM276 -439C277 -419 277 -388 277 -373V-294C277 -279 276 -258 276 -234C276 -224 277 -220 283 -220C291 -220 319 -229 319 -244V-262H437V-239C437 -234 437 -231 441 -231C444 -231 448 -233 457 -236C478 -245 482 -248 482 -255C482 -256 479 -296 479 -304V-354L506 -371C511 -374 513 -376 513 -378C513 -380 511 -382 505 -386L448 -424L426 -391H329ZM319 -283V-370H437V-283ZM358 -749V-798C387 -817 390 -819 390 -822C390 -824 388 -826 383 -827L312 -853C315 -804 315 -790 315 -749H109C86 -749 61 -751 36 -753L64 -718C81 -725 110 -729 131 -729H315C315 -718 313 -667 313 -657C313 -649 314 -646 319 -646C324 -646 360 -657 360 -673C360 -674 358 -720 358 -729H638V-664C638 -654 640 -649 646 -649C652 -649 683 -658 683 -674C683 -674 681 -720 681 -729H958C965 -729 968 -730 968 -733C968 -735 966 -738 962 -742L904 -802L867 -749H681V-804C706 -821 709 -823 709 -827C709 -830 706 -832 701 -834L635 -860C638 -811 638 -794 638 -749ZM516 -213L212 -138L252 -89C254 -86 256 -85 258 -85C261 -85 264 -87 267 -91C279 -106 292 -114 357 -139L520 -202Z"/>
</svg>