<svg xmlns="http://www.w3.org/2000/svg" viewBox="0 -1000 1000 1000">
	<path fill="#000000" d="M946 -710C953 -710 957 -711 957 -714C957 -716 954 -720 950 -724L888 -786L858 -732H704V-783C733 -802 736 -804 736 -808C736 -810 733 -813 727 -816L654 -851C656 -818 657 -790 657 -765V-732H379V-789L403 -804C407 -806 409 -809 409 -811C409 -813 406 -816 401 -818L329 -849C331 -816 332 -788 332 -763V-732H130C107 -732 82 -734 57 -736L85 -699C102 -706 131 -710 152 -710H332C332 -697 331 -641 331 -629C331 -623 332 -620 337 -620C344 -620 380 -631 380 -648C380 -665 379 -693 379 -710H657C657 -698 656 -646 656 -635C656 -629 658 -626 663 -626C664 -626 705 -635 705 -649C705 -650 704 -700 704 -710ZM395 -59V-255C416 -266 418 -267 418 -270C418 -272 415 -274 409 -277L350 -303C352 -273 354 -219 354 -186V-52L275 -39L310 17C312 19 313 20 316 20C317 20 320 19 322 17C332 8 363 -7 416 -22L682 -96L679 -106L521 -80V-213H648C660 -213 666 -215 666 -219C666 -222 662 -227 655 -233L607 -276L581 -233H521V-349H672C683 -349 688 -352 688 -356C688 -360 685 -364 680 -369L631 -416L601 -370H521V-510H647C658 -510 664 -512 664 -517C664 -520 661 -525 654 -531L610 -573L583 -531H419C430 -548 443 -567 458 -590C469 -607 477 -613 496 -615C501 -617 503 -618 503 -620C503 -622 502 -624 498 -626L439 -659C394 -558 354 -488 300 -405L312 -396C352 -443 375 -469 404 -510H478V-370H369C346 -370 321 -372 296 -374L324 -340C341 -346 368 -349 389 -349H478V-73ZM692 -600C693 -571 695 -502 695 -471V-89C695 -64 692 45 692 67C692 79 694 84 701 84C705 84 710 83 718 80C737 74 741 71 741 58V53C738 19 737 -35 737 -95V-523H857V-135C857 -119 854 -112 822 -112C806 -112 784 -114 753 -117L751 -107C806 -95 826 -83 831 -67C833 -60 836 -57 841 -57C844 -57 847 -58 850 -59C895 -79 901 -89 901 -135V-511C931 -525 935 -526 935 -530C935 -533 932 -536 926 -539L870 -573L845 -544H745ZM180 -84C180 -26 179 13 177 57V61C177 70 179 73 185 73C189 73 195 72 204 69C225 62 229 59 229 47V42C226 6 225 -31 225 -91V-372C245 -399 266 -430 292 -468C302 -483 308 -486 327 -488C333 -489 335 -490 335 -493C335 -494 334 -496 331 -498L273 -533C186 -380 138 -307 25 -188L35 -181C100 -232 146 -274 180 -314ZM239 -670C170 -549 139 -503 60 -412L69 -400C150 -472 191 -515 251 -595C263 -611 273 -618 287 -618C294 -618 298 -620 298 -623C298 -625 296 -628 291 -632Z"/>
</svg>