<svg xmlns="http://www.w3.org/2000/svg" viewBox="0 -1000 1000 1000">
	<path fill="#000000" d="M746 -484C769 -470 793 -444 809 -416L626 -417C678 -479 705 -500 733 -507C740 -509 744 -510 744 -513C744 -514 742 -516 737 -519L682 -550C667 -515 654 -495 615 -447C604 -433 587 -422 563 -414L599 -370C603 -366 607 -364 610 -364C612 -364 614 -365 616 -366C633 -381 656 -389 700 -392L818 -400C822 -392 826 -384 828 -376C832 -363 837 -355 846 -355C862 -355 877 -372 877 -392C877 -422 845 -457 754 -495ZM599 -642C639 -623 671 -603 693 -581L351 -574C477 -648 500 -660 537 -665C546 -666 549 -669 549 -671C549 -673 547 -676 543 -677L472 -704C430 -661 403 -641 344 -601C322 -585 293 -579 246 -580L276 -529C278 -525 281 -523 286 -523C289 -523 292 -524 295 -525C327 -536 365 -541 482 -549L710 -563C715 -556 720 -549 724 -541C734 -521 747 -512 758 -512C770 -512 779 -522 779 -538C779 -583 722 -616 605 -655ZM368 -745V-793C397 -812 400 -814 400 -817C400 -819 398 -821 393 -822L322 -848C325 -799 325 -784 325 -745H134C111 -745 86 -747 61 -749L89 -712C106 -719 135 -723 156 -723H325C325 -717 319 -658 319 -646C319 -641 321 -638 325 -638C330 -638 370 -650 370 -675C370 -683 368 -716 368 -723H631V-669C631 -659 633 -654 639 -654C645 -654 676 -663 676 -679C676 -681 674 -716 674 -723H929C936 -723 939 -724 939 -727C939 -729 937 -732 933 -736L875 -796L838 -745H674V-795C699 -812 702 -814 702 -818C702 -821 699 -823 694 -825L628 -851C631 -802 631 -784 631 -745ZM758 -166C617 -52 367 27 109 57L110 70C290 72 545 15 705 -70C777 -109 791 -113 811 -113C818 -113 821 -114 821 -117C821 -119 819 -123 813 -127ZM632 -247C524 -159 353 -89 151 -36L154 -21C310 -46 478 -94 587 -158C634 -185 665 -198 683 -198C692 -198 697 -199 697 -201C697 -203 694 -205 687 -210ZM528 -333C407 -228 273 -165 128 -118L132 -103C269 -136 410 -184 501 -248C547 -279 568 -291 586 -292C592 -292 596 -293 596 -296C596 -297 593 -300 587 -303ZM491 -497C411 -372 251 -268 33 -164L37 -151C208 -210 393 -308 504 -427C579 -311 683 -240 862 -179C865 -178 868 -178 870 -178C874 -178 877 -179 879 -182C890 -201 922 -213 973 -220V-234C779 -238 606 -329 519 -441C531 -450 544 -458 551 -459C556 -459 558 -461 558 -463C558 -466 555 -469 552 -470ZM301 -487C323 -465 336 -443 343 -417L167 -413C236 -477 257 -489 287 -498C294 -500 296 -502 296 -504C296 -506 294 -509 290 -510L230 -538C211 -502 195 -479 154 -439C132 -417 111 -405 82 -405L114 -362C117 -358 121 -357 124 -357C126 -357 128 -358 130 -359C150 -371 180 -380 238 -386L348 -398C351 -384 355 -373 368 -373C381 -373 393 -388 393 -416C393 -439 373 -460 310 -498Z"/>
</svg>