<svg xmlns="http://www.w3.org/2000/svg" viewBox="0 -1000 1000 1000">
	<path fill="#000000" d="M492 -292L306 -278V-358H458C467 -358 472 -360 472 -364C472 -367 469 -371 464 -377L423 -421L387 -377H306V-418C332 -433 335 -435 335 -439C335 -441 333 -443 328 -444L258 -462C261 -432 261 -408 261 -377H162C139 -377 114 -379 89 -381L117 -347C134 -354 163 -358 184 -358H261V-274L78 -259L108 -209C112 -202 116 -199 119 -199C121 -199 124 -200 126 -202C144 -216 158 -220 271 -240L493 -279ZM855 -224L816 -172H118C95 -172 70 -173 45 -176L73 -141C90 -148 119 -152 140 -152H362C355 -22 309 10 75 68L78 83C339 42 391 8 413 -152H576V-27C576 34 626 39 764 39C882 39 891 33 917 -2C919 -6 920 -9 920 -12C920 -15 918 -18 914 -20C892 -33 886 -50 888 -121H871C863 -7 851 -4 817 -1C804 0 777 1 746 1C640 1 621 -2 621 -40V-152H912C924 -152 930 -154 930 -158C930 -161 926 -166 918 -172ZM877 -787L841 -733H691V-790C719 -806 723 -808 723 -813C723 -816 718 -819 709 -823L643 -851C645 -818 646 -791 646 -767V-733H357V-795C387 -812 390 -814 390 -818C390 -821 386 -823 377 -827L310 -856C312 -823 313 -795 313 -771V-733H109C86 -733 61 -735 36 -737L64 -702C81 -709 110 -713 131 -713H313C313 -699 312 -635 312 -622C312 -610 313 -605 319 -605C324 -605 359 -615 359 -631C359 -644 357 -701 357 -713H646C646 -698 645 -634 645 -621C645 -608 646 -603 652 -603C656 -603 662 -605 671 -609C689 -617 693 -621 693 -630C693 -630 691 -681 691 -690V-713H926C937 -713 943 -714 943 -718C943 -721 939 -726 932 -733ZM856 -531L820 -483H518V-571H796C807 -571 812 -573 812 -576C812 -579 809 -584 802 -590L753 -639L715 -590H518V-639C544 -656 547 -658 547 -662C547 -666 542 -669 534 -673L472 -701C475 -650 475 -629 475 -590H238C215 -590 190 -592 165 -594L193 -560C210 -567 239 -571 260 -571H475V-483H107C84 -483 59 -485 34 -487L62 -452C79 -459 108 -463 129 -463H905C916 -463 921 -465 921 -468C921 -472 918 -476 911 -483ZM880 -322L842 -271H735V-360H871C880 -360 886 -362 886 -366C886 -369 883 -373 877 -379L836 -419L801 -379H735V-414C759 -426 761 -427 761 -431C761 -433 759 -435 754 -437L689 -460C692 -435 692 -409 692 -379H610C587 -379 562 -381 537 -383L565 -349C582 -356 611 -360 632 -360H692V-271H573C550 -271 525 -273 500 -275L528 -241C545 -248 574 -252 595 -252H926C936 -252 941 -253 941 -257C941 -260 937 -265 931 -271Z"/>
</svg>