<svg xmlns="http://www.w3.org/2000/svg" viewBox="0 -1000 1000 1000">
	<path fill="#000000" d="M754 -678C734 -632 699 -564 676 -526H399C376 -526 351 -527 326 -529L354 -496C371 -502 400 -504 421 -504H533V-409H447L384 -455C386 -432 388 -387 388 -360V-86C388 -49 387 9 385 48V58C385 68 386 72 391 72C397 72 433 60 433 45V-13H806V58C806 66 807 70 812 70C817 70 855 57 855 41V38C852 5 852 -39 852 -94V-374L877 -391C881 -394 883 -396 883 -398C883 -401 881 -403 877 -406L822 -452L792 -409H704V-504H921C929 -504 933 -505 933 -508C933 -510 930 -514 924 -520L865 -581L824 -526H695C721 -551 748 -579 772 -607C779 -616 794 -621 809 -624C816 -625 820 -627 820 -630C820 -632 817 -635 812 -638ZM433 -387H533C531 -278 509 -229 446 -174L454 -165C538 -214 571 -282 574 -387H661V-300C661 -254 678 -226 806 -232V-148H433ZM574 -504H661V-409H574ZM704 -387H806V-268C712 -265 704 -271 704 -302ZM433 -126H806V-35H433ZM466 -648C507 -623 534 -587 544 -548C544 -541 552 -534 561 -534C571 -534 586 -544 586 -570C586 -610 554 -634 471 -660ZM625 -868C627 -835 628 -807 628 -782V-742H356V-800L381 -818C385 -821 388 -823 388 -826C388 -828 384 -830 377 -833L306 -859C308 -826 309 -798 309 -773V-742H92C69 -742 44 -744 19 -746L47 -709C64 -716 93 -720 114 -720H309C309 -708 308 -656 308 -645C308 -636 309 -631 312 -628C284 -593 252 -556 214 -517C180 -564 146 -598 102 -631L92 -618C123 -593 160 -547 191 -494C146 -449 94 -403 40 -358L50 -347C102 -381 154 -419 208 -464C220 -439 231 -413 240 -387C200 -308 142 -233 34 -119L43 -108C123 -166 195 -241 257 -320C267 -273 270 -227 270 -187C270 -39 236 -23 167 -23C143 -23 113 -26 75 -31L72 -17C162 7 179 15 186 49C187 56 190 60 194 60C196 60 199 59 202 57C262 27 316 -9 316 -165C316 -272 283 -410 235 -487C263 -511 292 -537 323 -566C332 -574 346 -581 360 -583C364 -584 366 -585 366 -588C366 -590 364 -593 360 -596L317 -626H319C323 -626 328 -627 334 -629C354 -634 358 -637 358 -649C358 -660 356 -710 356 -720H628C628 -708 627 -654 627 -643C627 -628 631 -621 639 -621C641 -621 677 -629 677 -647C677 -658 675 -710 675 -720H913C922 -720 926 -722 926 -727C926 -731 923 -736 917 -742L857 -801L817 -742H675V-810C707 -828 708 -829 708 -832C708 -835 704 -837 697 -840Z"/>
</svg>