<svg xmlns="http://www.w3.org/2000/svg" viewBox="0 -1000 1000 1000">
	<path fill="#000000" d="M899 -804L856 -746H663V-788L684 -800C693 -804 697 -807 697 -810C697 -813 693 -816 683 -820L615 -853C618 -808 618 -780 618 -746H365V-787C393 -802 397 -804 397 -809C397 -812 394 -814 389 -816L318 -846C320 -827 320 -817 320 -746H104C81 -746 55 -747 30 -750L58 -715C76 -722 105 -726 127 -726H320C320 -709 319 -676 319 -667C319 -652 322 -645 331 -645C341 -645 366 -656 366 -669C366 -678 365 -718 365 -726H618V-665C618 -651 619 -645 625 -645C631 -645 664 -656 664 -672C664 -681 663 -718 663 -726H959C968 -726 972 -730 972 -735C972 -739 969 -744 963 -749ZM440 -707C473 -681 491 -654 498 -627C501 -614 505 -610 515 -610C532 -610 543 -632 543 -652C543 -674 525 -691 446 -716ZM787 -514C792 -517 794 -519 794 -521C794 -524 792 -526 787 -529L735 -565L708 -530H295L241 -567C243 -542 244 -520 244 -496V-464C244 -433 243 -411 241 -397V-390C241 -383 242 -380 248 -380C252 -380 259 -382 268 -386C288 -394 288 -396 288 -426H719C719 -396 719 -392 725 -392C726 -392 768 -405 768 -423C768 -426 768 -428 767 -432C764 -450 764 -456 764 -495ZM288 -508H719V-448H288ZM821 -606H156C133 -606 107 -608 82 -610L110 -576C128 -583 157 -584 179 -584H927C936 -584 942 -587 942 -591C942 -595 938 -600 931 -606L864 -654ZM136 -410C122 -329 89 -304 56 -286C38 -276 30 -264 30 -254C30 -242 42 -230 60 -230C73 -230 134 -243 147 -347H886L834 -262L848 -254C889 -303 930 -328 966 -329C973 -329 977 -330 977 -333C977 -335 975 -338 971 -342L910 -405L876 -368H149C150 -379 150 -395 150 -410ZM104 -53C158 -77 213 -112 263 -154C293 -128 304 -112 323 -73C332 -55 335 -53 341 -53C352 -53 363 -69 363 -90C363 -132 324 -150 276 -165L280 -169H470C392 -38 250 29 82 71L84 85C241 65 407 -6 497 -130C512 -150 530 -158 542 -158C547 -158 549 -159 549 -162C549 -163 548 -166 546 -168L498 -220L473 -190H303C321 -207 346 -235 365 -259H573V2C573 59 596 63 736 63C880 63 899 54 908 32C911 24 913 18 913 13C913 7 910 3 905 0C883 -14 876 -25 878 -104H867C861 18 855 23 820 25C794 27 761 28 729 28C701 28 673 27 650 25C622 23 616 16 616 -53V-87C659 -102 710 -122 760 -144C773 -150 787 -154 801 -154C810 -154 818 -154 818 -156C818 -158 817 -160 814 -163L770 -206C721 -168 667 -133 616 -105V-259H819C824 -259 827 -261 827 -263C827 -266 824 -270 819 -275L780 -312L752 -281H213C195 -281 185 -281 164 -283L187 -249C203 -257 214 -259 236 -259H308C253 -180 191 -122 96 -62Z"/>
</svg>