<svg xmlns="http://www.w3.org/2000/svg" viewBox="0 -1000 1000 1000">
	<path fill="#000000" d="M396 -176C521 -236 601 -279 668 -336C760 -252 871 -219 874 -219C879 -219 882 -222 884 -227C888 -239 922 -252 967 -258V-267C859 -277 773 -307 698 -362C726 -388 764 -431 799 -477C815 -498 833 -509 849 -510C857 -511 861 -513 861 -517C861 -520 858 -525 852 -530L801 -576L773 -542H588C602 -557 616 -568 628 -571C635 -573 640 -577 640 -580C640 -583 638 -587 632 -590L579 -622C521 -514 483 -460 418 -379L430 -370C471 -411 509 -450 546 -493C577 -441 608 -398 642 -362C581 -304 504 -253 387 -188ZM770 -523C734 -466 699 -420 667 -387C629 -421 594 -461 560 -509C564 -514 568 -518 572 -523ZM556 -186H771V-6H556ZM771 63C771 71 773 74 780 74C788 74 820 65 820 50C820 48 819 46 819 44C817 28 816 1 816 -28V-172C842 -187 845 -189 845 -193C845 -196 843 -199 837 -202L778 -239L758 -207H564L511 -230V-12C511 1 509 60 509 68C509 77 511 82 516 82C521 82 527 79 537 75C554 69 556 66 556 56V15H771ZM148 -605C150 -584 151 -557 151 -528V-396C151 -371 151 -352 149 -338C148 -334 148 -330 148 -328C148 -322 150 -319 154 -319C158 -319 164 -322 174 -326C192 -334 195 -336 195 -346V-362H268V-49L181 -34V-217C202 -230 205 -232 205 -237C205 -241 201 -244 194 -247L136 -271C139 -248 140 -224 140 -189V-27L44 -10L75 44C78 50 81 53 84 53C86 53 89 49 93 43C98 34 124 21 200 1L441 -62L438 -79L309 -57V-210H417C423 -210 426 -212 426 -215C426 -218 424 -221 419 -226L376 -269L340 -229H309V-362H359C359 -333 359 -330 366 -330C376 -330 407 -342 407 -356C407 -360 404 -407 404 -417V-529C434 -546 435 -547 435 -550C435 -553 432 -556 427 -559L369 -598L349 -565H205ZM195 -381V-547H359V-381ZM383 -722V-788C410 -804 413 -806 413 -810C413 -813 409 -815 402 -819L335 -852C337 -819 338 -791 338 -766V-722H119C96 -722 71 -724 46 -726L74 -689C91 -696 120 -700 141 -700H338C338 -688 337 -638 337 -627C337 -614 341 -608 349 -608C352 -608 357 -609 363 -612C382 -621 386 -626 386 -637C386 -647 383 -690 383 -700H620C620 -689 619 -640 619 -630C619 -617 621 -612 628 -612C632 -612 638 -614 646 -617C665 -626 669 -629 669 -641C669 -650 666 -692 666 -700H935C944 -700 948 -702 948 -706C948 -709 945 -713 939 -719L886 -772L845 -722H666V-793C694 -810 697 -811 697 -815C697 -819 693 -821 685 -825L617 -857C619 -824 620 -796 620 -771V-722Z"/>
</svg>