<svg xmlns="http://www.w3.org/2000/svg" viewBox="0 -1000 1000 1000">
	<path fill="#000000" d="M806 -660L783 -623H232L171 -655C173 -626 174 -605 174 -582V-510C174 -500 172 -457 172 -448C172 -443 173 -441 177 -441C181 -441 187 -443 197 -447C218 -456 220 -457 220 -480H793C793 -459 793 -454 800 -454C804 -454 810 -456 820 -461C839 -470 842 -474 842 -483C842 -492 839 -545 839 -557V-586L868 -603C874 -607 877 -609 877 -612C877 -614 874 -617 869 -620ZM429 -501V-602H586V-501ZM220 -501V-602H385V-501ZM630 -501V-602H793V-501ZM330 65C461 24 527 -2 604 -44C652 -3 718 33 815 68C829 73 844 76 858 76C867 76 902 74 902 63C902 58 899 52 892 45C877 30 866 -2 866 -91C866 -110 866 -130 867 -153L853 -155L834 -23C830 6 825 17 813 17C800 17 702 -20 643 -67C676 -87 715 -115 757 -147C779 -165 790 -168 810 -168C820 -168 825 -170 825 -173C825 -176 822 -179 815 -184L766 -218C719 -168 665 -123 616 -91C584 -123 564 -159 543 -203L860 -252C871 -254 876 -256 876 -259C876 -262 872 -266 864 -272L825 -299C876 -358 911 -381 949 -389C955 -390 957 -391 957 -393C957 -395 955 -398 950 -402L887 -452L854 -415H148C149 -428 149 -442 149 -457H135C117 -372 100 -350 56 -323C47 -317 41 -311 41 -301C41 -283 54 -273 71 -273C108 -273 138 -309 146 -393H863L812 -309L803 -315L772 -262L534 -225C526 -251 519 -286 517 -311C543 -328 546 -330 546 -334C546 -336 543 -339 537 -342L468 -378C474 -300 482 -262 496 -220L388 -203C358 -199 342 -198 315 -198L349 -166C367 -174 379 -178 405 -181L504 -196C523 -146 546 -105 580 -69C516 -31 437 6 327 51ZM581 -359C631 -333 647 -320 665 -289C676 -270 684 -267 694 -267C706 -267 714 -280 714 -296C714 -305 712 -315 706 -324C696 -340 655 -359 585 -368ZM241 -49C241 1 240 21 238 68V74C238 84 240 89 247 89C251 89 257 87 267 83C282 77 288 73 288 61C288 58 288 54 287 50C284 23 283 6 283 -66V-180C303 -198 306 -200 306 -203C306 -206 304 -208 299 -210L264 -230C283 -250 299 -270 319 -294C332 -309 349 -319 364 -319C371 -319 375 -322 375 -326C375 -329 372 -334 366 -338L318 -373C237 -251 185 -186 74 -61L80 -50C151 -112 194 -152 241 -203ZM880 -786L839 -733H672V-781C701 -799 704 -801 704 -806C704 -809 700 -812 692 -815L625 -845C628 -796 628 -776 628 -733H376V-783C403 -801 406 -803 406 -807C406 -811 403 -814 396 -817L328 -849C330 -816 331 -788 331 -763V-733H126C103 -733 78 -735 53 -737L81 -701C98 -708 127 -712 148 -712H331C331 -702 330 -658 330 -649C330 -638 331 -633 337 -633C340 -633 378 -646 378 -656C378 -665 376 -704 376 -712H628C628 -702 627 -658 627 -649C627 -640 629 -636 634 -636C639 -636 673 -652 673 -663C673 -671 672 -705 672 -712H932C941 -712 946 -714 946 -718C946 -721 943 -725 938 -730Z"/>
</svg>