<svg xmlns="http://www.w3.org/2000/svg" viewBox="0 -1000 1000 1000">
	<path fill="#000000" d="M720 -520L701 -492H322L269 -520C271 -499 272 -481 272 -465V-422C272 -414 271 -376 271 -368C271 -360 272 -357 277 -357C287 -357 313 -369 313 -390H707C707 -364 707 -361 713 -361C720 -361 751 -370 751 -386C751 -405 749 -434 749 -453L772 -469C778 -473 780 -476 780 -479C780 -482 778 -485 772 -488ZM313 -404V-478H707V-404ZM892 -798L855 -748H666V-792C693 -809 696 -811 696 -815C696 -819 692 -822 684 -825L621 -847C623 -825 624 -812 624 -797V-748H394V-794C401 -799 424 -815 424 -818C424 -821 420 -824 412 -827L350 -854C352 -832 353 -819 353 -804V-748H143C120 -748 95 -750 70 -752L98 -723C115 -730 144 -734 165 -734H353V-693C353 -681 354 -675 361 -675C370 -675 395 -684 395 -696C395 -699 394 -728 394 -734H624V-691C624 -679 624 -673 632 -673C641 -673 667 -682 667 -694C667 -696 666 -728 666 -734H943C951 -734 954 -735 954 -738C954 -741 952 -744 947 -748ZM808 -687L771 -644H524V-661C549 -678 552 -680 552 -684C552 -687 549 -689 542 -692L480 -718C481 -697 483 -672 483 -644H209C186 -644 160 -646 136 -648L164 -620C180 -626 210 -630 231 -630H483V-563H323C301 -563 276 -565 253 -567L283 -539C298 -545 324 -549 344 -549H748C756 -549 760 -551 760 -554C760 -556 757 -559 753 -563L707 -606L667 -563H524V-630H851C859 -630 863 -632 863 -634C863 -637 860 -640 856 -644ZM897 -375L866 -338H176C177 -348 177 -358 176 -369H163C147 -296 129 -276 91 -248C77 -238 71 -229 71 -221C71 -213 80 -197 102 -197C125 -197 171 -220 176 -324H878L820 -231L833 -224C891 -296 914 -305 947 -310C954 -311 958 -312 958 -315C958 -317 954 -321 948 -327ZM882 -20L842 30H532V-58H790C797 -58 801 -60 801 -63C801 -66 799 -69 795 -72L747 -111L715 -72H532V-150L707 -160C712 -154 717 -148 721 -141C735 -120 739 -117 748 -117C759 -117 768 -132 768 -148C768 -156 766 -164 761 -171C743 -195 702 -215 616 -238L612 -227C648 -210 675 -192 695 -173L340 -168C388 -194 452 -226 514 -256H758C767 -256 771 -258 771 -260C771 -263 768 -266 763 -270L717 -304L688 -270H295C273 -270 248 -272 225 -274L252 -246C267 -252 296 -256 316 -256H431C395 -223 329 -170 268 -172L300 -127C303 -124 305 -122 307 -122C309 -122 311 -123 314 -125C336 -137 347 -139 490 -148V-72H257C235 -72 210 -74 187 -76L214 -48C229 -54 258 -58 278 -58H490V30H137C114 30 88 28 64 26L92 54C108 48 138 44 159 44H931C939 44 943 42 943 40C943 37 940 34 936 30Z"/>
</svg>