<svg xmlns="http://www.w3.org/2000/svg" viewBox="0 -1000 1000 1000">
	<path fill="#000000" d="M406 -142V-31H220V-142ZM406 -6V35C406 39 407 41 412 41C413 41 450 33 450 20C450 4 448 -21 448 -37V-134L476 -147C478 -148 480 -149 480 -150C480 -152 478 -154 474 -157L418 -194L394 -162H230L173 -202C175 -177 175 -152 175 -132V-15C175 -5 172 38 172 47C172 52 175 54 181 54C193 54 220 46 220 34V-6ZM683 -792C714 -810 717 -812 717 -817C717 -820 713 -824 706 -827L639 -859C641 -826 641 -811 641 -751H368V-788L392 -802C400 -806 404 -809 404 -812C404 -815 400 -818 391 -822L321 -858C323 -800 323 -773 323 -751H114C91 -751 66 -752 41 -755L69 -719C86 -726 115 -730 136 -730H323C323 -719 322 -673 322 -663C322 -649 324 -644 331 -644C332 -644 370 -654 370 -672C370 -688 368 -714 368 -730H641C641 -719 639 -668 639 -657C639 -652 640 -649 644 -649C646 -649 685 -662 685 -679C685 -680 683 -722 683 -730H952C961 -730 965 -732 965 -736C965 -740 962 -745 955 -751L895 -805L858 -751H683ZM543 -118C569 -86 579 -68 581 -42C582 -26 594 -18 603 -18C611 -18 627 -35 627 -59C627 -70 621 -88 555 -123ZM901 -501L874 -467H112C96 -467 75 -468 55 -470L77 -441C96 -446 112 -448 132 -448H879L840 -370L853 -362C917 -432 927 -440 952 -441C960 -442 965 -445 965 -449C965 -452 963 -455 959 -458ZM547 -161C530 -161 516 -162 495 -164L516 -134C530 -139 543 -140 561 -140H743V-9C743 4 740 11 717 11C700 11 672 8 627 0L625 15C706 36 714 46 720 72C721 75 722 77 725 77C727 77 729 77 731 76C778 62 786 49 786 -8V-140H954C959 -140 961 -142 961 -144C961 -146 960 -148 957 -151L902 -202L868 -161H786V-186C811 -198 814 -199 814 -202C814 -204 813 -205 810 -206L761 -225H967C975 -225 978 -226 978 -228C978 -230 977 -232 974 -235L914 -291L875 -244H97C79 -244 60 -245 38 -248L67 -217C82 -222 103 -225 118 -225H741C742 -207 743 -188 743 -161ZM530 -382H770C774 -382 775 -383 775 -385C775 -386 775 -387 773 -389L721 -441L692 -401H262C241 -401 226 -402 203 -404L229 -375C243 -380 263 -382 282 -382H486V-313H225C205 -313 191 -314 168 -315L194 -288C204 -292 214 -294 245 -294H817C820 -294 821 -296 821 -299C821 -301 821 -303 819 -304L762 -352L729 -313H530ZM488 -539H234C216 -539 194 -540 171 -542L197 -512C211 -517 235 -520 254 -520H831C837 -520 840 -521 840 -523C840 -525 839 -527 836 -529L778 -585L739 -539H533V-600H917C922 -600 925 -601 925 -603C925 -604 923 -607 920 -610L861 -667L820 -619H533V-654C556 -668 559 -669 559 -674C559 -677 558 -680 554 -681L488 -704V-619H170C147 -619 134 -620 114 -622L141 -591C156 -597 173 -600 190 -600H488Z"/>
</svg>