<svg xmlns="http://www.w3.org/2000/svg" viewBox="0 -1000 1000 1000">
	<path fill="#000000" d="M228 -459H155L104 -500C106 -469 108 -428 108 -412V-317C108 -306 105 -259 105 -249C105 -240 107 -236 113 -236C124 -236 149 -247 149 -260V-282H465C465 -256 465 -253 471 -253C475 -253 481 -255 490 -259C505 -265 510 -268 510 -280C510 -282 505 -354 505 -368V-427C531 -441 534 -442 534 -446C534 -448 532 -450 529 -453L482 -493L455 -459H388V-563H530C538 -563 542 -564 542 -566C542 -568 539 -571 535 -575L480 -631L443 -583H141C118 -583 93 -585 68 -587L96 -552C113 -559 142 -563 163 -563H228ZM347 -438V-302H269V-438ZM388 -302V-438H465V-302ZM149 -302V-438H228V-302ZM347 -459H269V-563H347ZM559 -32C555 3 550 9 520 25L555 65C558 68 560 69 563 69C565 69 568 68 570 65C580 52 593 40 737 -57L732 -67L598 -2L644 -405H800L761 -2C759 53 768 62 855 62C915 62 926 62 951 12C952 10 952 8 952 7C952 4 950 1 947 -1C926 -13 919 -55 920 -143H906C900 -35 896 -2 886 13C879 23 871 25 831 25C813 25 805 18 805 -6C805 -11 805 -16 806 -23L842 -388L874 -406C878 -408 880 -410 880 -412C880 -415 878 -418 873 -421L819 -461L788 -425H646L663 -568H938C945 -568 949 -570 949 -573C949 -576 947 -580 942 -584L888 -636L849 -589H605C582 -589 557 -590 532 -592L560 -558C575 -564 590 -566 621 -568ZM672 -785C703 -803 706 -805 706 -810C706 -813 702 -817 695 -820L625 -852C627 -819 628 -788 627 -745H372V-775L396 -789C404 -793 408 -796 408 -799C408 -802 404 -805 395 -809L326 -845C327 -816 328 -783 328 -745H111C80 -745 51 -747 38 -749L66 -712C83 -719 112 -723 133 -723H328C328 -695 327 -663 327 -646C327 -630 329 -624 339 -624C351 -624 374 -632 374 -649V-652C373 -662 372 -683 372 -723H627C627 -710 626 -652 626 -640C626 -633 627 -629 632 -629C636 -629 674 -642 674 -659C674 -677 672 -705 672 -723H955C964 -723 969 -727 969 -733C969 -737 966 -742 960 -748L908 -797L855 -745H672ZM650 -319C681 -277 694 -238 694 -206C694 -184 702 -170 717 -170C733 -170 745 -185 745 -208C745 -256 699 -297 658 -325ZM318 -223L346 -236C350 -238 352 -240 352 -242C352 -244 349 -246 345 -248L273 -281C274 -259 275 -231 275 -202V-164H161C140 -164 117 -166 95 -167L120 -134C135 -140 162 -143 181 -143H275V-19L58 12L93 59C95 62 96 63 99 63C100 63 103 62 105 59C115 48 132 38 262 12L513 -40L511 -53L318 -25V-143H489C494 -143 498 -144 498 -147C498 -149 496 -152 491 -156L436 -208L398 -164H318Z"/>
</svg>