<svg xmlns="http://www.w3.org/2000/svg" viewBox="0 -1000 1000 1000">
	<path fill="#000000" d="M819 -453C819 -433 819 -430 825 -430C826 -430 869 -441 869 -458C869 -458 864 -487 864 -492V-567L891 -585C896 -588 898 -591 898 -594C898 -597 896 -600 892 -602L832 -644L805 -605H199L144 -650C146 -621 147 -585 147 -552V-479C147 -469 145 -425 145 -416C145 -408 146 -404 151 -404C155 -404 161 -406 170 -410C191 -419 191 -422 191 -453ZM412 -474V-582H591V-474ZM191 -474V-582H368V-474ZM819 -582V-474H636V-582ZM144 -152C145 -136 146 -110 146 -83V-18C146 -6 143 56 143 58C143 72 147 78 154 78C164 78 192 68 192 49V12H453V51C453 58 454 62 458 62C460 62 464 61 470 58C496 46 502 39 502 29C502 21 497 -23 497 -33V-77L524 -96C528 -99 530 -102 530 -104C530 -107 528 -110 524 -112L464 -151L440 -112H204ZM192 -8V-92H453V-8ZM863 -365C890 -381 894 -383 894 -387C894 -390 889 -393 881 -397L813 -428C815 -399 820 -334 820 -302V-25C820 -12 815 -4 775 -4C751 -4 715 -7 661 -13L658 3C761 28 772 36 785 72C788 79 791 82 795 82C796 82 798 82 799 81C856 49 863 33 863 -5ZM207 -193C184 -193 159 -194 134 -197L162 -162C179 -169 208 -173 229 -173H516C520 -173 522 -174 522 -177C522 -179 520 -181 517 -184L468 -231L433 -193ZM206 -269C183 -269 158 -271 133 -273L161 -238C178 -245 207 -249 228 -249H500C504 -249 506 -250 506 -253C506 -255 504 -257 501 -260L453 -309L417 -269ZM640 -366C642 -339 643 -291 643 -261V-172C643 -131 642 -103 640 -76V-68C640 -54 643 -47 652 -47C656 -47 690 -56 690 -77V-82C687 -115 686 -140 686 -171V-301L710 -313C717 -316 721 -319 721 -322C721 -325 717 -328 709 -332ZM138 -350C115 -350 90 -352 65 -354L93 -319C110 -326 139 -330 160 -330H568C572 -330 574 -331 574 -334C574 -336 572 -338 569 -341L506 -400L465 -350H351C357 -357 361 -367 361 -378C361 -406 338 -425 273 -450L265 -440C292 -418 311 -382 312 -365C312 -359 313 -354 315 -350ZM937 -709C946 -709 952 -712 952 -717C952 -721 948 -727 941 -733L878 -788L836 -730H653V-778L674 -790C682 -794 686 -797 686 -800C686 -803 682 -806 673 -810L606 -843C609 -798 609 -771 609 -730H397V-774C424 -790 428 -791 428 -796C428 -799 425 -801 420 -803L351 -833C353 -814 353 -805 353 -730H134C111 -730 86 -731 61 -734L89 -698C106 -705 135 -709 156 -709H353C353 -689 352 -656 352 -636C352 -623 356 -617 363 -617C373 -617 398 -628 398 -641V-644C397 -651 397 -666 397 -709H609V-643C609 -629 610 -623 616 -623C621 -623 654 -634 654 -650C654 -659 653 -701 653 -709Z"/>
</svg>