<svg xmlns="http://www.w3.org/2000/svg" viewBox="0 -1000 1000 1000">
	<path fill="#000000" d="M396 -664L363 -624L246 -618C259 -678 270 -734 279 -785C308 -803 311 -804 311 -808C311 -811 308 -813 302 -816L231 -854C222 -773 211 -693 198 -616L124 -613C101 -612 76 -611 51 -612L82 -578C98 -586 127 -593 148 -594L195 -596C176 -482 152 -377 124 -289C184 -258 233 -229 273 -200C221 -112 141 -29 31 43L40 54C145 4 240 -78 306 -175C354 -136 384 -100 401 -65C409 -49 420 -40 429 -40C439 -40 453 -57 453 -80C453 -91 450 -103 443 -116C428 -141 396 -171 327 -210C373 -290 403 -397 422 -584L453 -600C459 -603 462 -605 462 -608C462 -610 460 -612 455 -616ZM371 -604C362 -425 340 -331 289 -231C256 -249 217 -268 169 -289C195 -388 221 -497 242 -598ZM858 -806L826 -771H545C522 -771 497 -773 472 -775L500 -738C517 -745 546 -749 567 -749H832L719 -591C697 -617 654 -642 580 -681L572 -672C656 -602 682 -550 687 -525C693 -496 699 -490 712 -490C728 -490 741 -512 741 -537C741 -553 737 -566 728 -580C838 -699 878 -732 917 -732C924 -732 927 -733 927 -736C927 -738 925 -740 921 -744ZM904 -516L873 -478H516C493 -478 468 -480 443 -482L471 -445C488 -452 517 -456 538 -456H678V-34C678 -7 672 7 631 7C606 7 568 2 510 -9L507 6C605 29 624 48 632 78C634 85 636 88 639 88C641 88 644 87 648 85C717 46 725 36 725 -11V-456H881L818 -335L829 -327C904 -422 927 -443 961 -445C967 -446 970 -447 970 -450C970 -452 968 -455 965 -458Z"/>
</svg>