<svg xmlns="http://www.w3.org/2000/svg" viewBox="0 -1000 1000 1000">
	<path fill="#000000" d="M372 -719V-784C400 -801 403 -803 403 -808C403 -812 400 -815 395 -817L322 -844C324 -811 325 -783 325 -758V-719H115C92 -719 67 -721 42 -723L70 -686C87 -693 116 -697 137 -697H325C325 -684 324 -626 324 -614C324 -608 325 -605 330 -605C337 -605 373 -616 373 -633C373 -651 372 -679 372 -697H625C625 -688 624 -650 624 -642C624 -639 624 -637 625 -636C627 -588 627 -553 627 -527H551C528 -527 503 -528 478 -531L506 -495C523 -502 552 -506 573 -506H627V-386H487C465 -386 440 -387 417 -390L444 -355C459 -361 488 -365 508 -365H682C651 -335 617 -305 580 -274L519 -322C521 -295 522 -254 522 -228C486 -201 447 -173 406 -145L415 -129C458 -155 494 -178 522 -197V-72C522 -37 521 3 519 62V70C519 80 520 85 527 85C532 85 538 83 548 79C565 72 568 66 568 54V23H807V65C807 73 809 77 815 77C819 77 824 75 832 72C851 64 856 59 856 43V38C853 -7 852 -36 852 -70V-233L886 -251C892 -254 895 -257 895 -260C895 -263 892 -266 886 -270L825 -313L795 -273H629C668 -303 701 -332 734 -365H962C969 -365 972 -366 972 -369C972 -371 970 -375 965 -380L915 -437L866 -386H755C786 -418 819 -453 857 -497C868 -510 885 -521 903 -524C915 -526 921 -530 921 -535C921 -538 919 -541 914 -544L855 -580C840 -555 825 -533 808 -509C808 -512 805 -516 800 -521L753 -575L721 -527H671V-561L697 -577C706 -583 711 -586 711 -589C711 -592 706 -595 698 -599L632 -633C644 -635 673 -647 673 -657C673 -663 672 -691 672 -697H943C950 -697 954 -698 954 -701C954 -703 951 -707 947 -711L885 -773L843 -719H672V-780C695 -798 701 -802 701 -806C701 -809 697 -812 691 -815L622 -848C624 -815 625 -787 625 -762V-719ZM568 2V-122H807V2ZM807 -252V-143H568V-229C579 -237 590 -244 601 -252ZM671 -506H795C801 -506 804 -506 806 -507C777 -466 743 -426 703 -386H671ZM126 -227C128 -196 129 -156 129 -124V-42C129 -26 126 54 126 72C126 86 129 92 137 92C141 92 148 90 156 86C172 79 175 75 175 61V1H353V43C353 51 354 55 359 55C363 55 369 54 377 50C396 42 400 39 400 25V18C398 -11 397 -58 397 -92V-150L424 -166C429 -169 431 -171 431 -174C431 -177 428 -181 421 -186L371 -226L341 -188H186ZM175 -20V-167H353V-20ZM370 -352L336 -306H169C146 -306 121 -307 96 -310L124 -274C141 -281 170 -285 191 -285H411C423 -285 429 -286 429 -290C429 -292 425 -297 419 -303ZM361 -454L327 -408H173C150 -408 125 -409 100 -412L128 -376C145 -383 174 -387 195 -387H397C409 -387 415 -388 415 -392C415 -394 411 -399 405 -405ZM186 -640C227 -609 244 -577 246 -560C250 -528 260 -521 274 -521C291 -521 302 -535 302 -556C302 -593 281 -614 194 -649ZM393 -560L352 -510H133C110 -510 85 -511 60 -514L88 -478C105 -485 134 -489 155 -489H437C449 -489 455 -490 455 -494C455 -496 451 -501 445 -507Z"/>
</svg>