<svg xmlns="http://www.w3.org/2000/svg" viewBox="0 -1000 1000 1000">
	<path fill="#000000" d="M486 -312C488 -298 488 -283 488 -228V-121C488 -107 486 -47 486 -35C486 -31 487 -29 490 -29C493 -29 499 -31 508 -35C528 -43 528 -48 528 -91H615V-58C615 -50 616 -46 621 -46C628 -46 656 -56 656 -75C656 -86 655 -135 655 -145V-227L678 -239C682 -241 684 -243 684 -245C684 -247 682 -250 677 -254L628 -297L604 -265H537ZM528 -113V-242H615V-113ZM842 -240V-113H756V-240ZM842 -91C842 -55 842 -54 848 -54C857 -54 885 -67 885 -83C885 -91 883 -142 883 -153V-230C894 -235 910 -242 910 -245C910 -247 908 -250 903 -254L855 -296L831 -263H770L714 -307C716 -290 716 -271 716 -223V-138C716 -106 715 -78 714 -57V-53C714 -48 715 -46 718 -46C721 -46 727 -48 736 -52C756 -60 756 -63 756 -91ZM773 -466V-372H581V-466ZM773 -350C773 -318 773 -314 780 -314C784 -314 789 -316 798 -320C813 -327 816 -330 816 -341C816 -347 814 -400 814 -411V-450C843 -465 846 -466 846 -470C846 -473 844 -476 838 -480L787 -525L759 -488H586L539 -533C541 -511 541 -482 541 -455V-400C541 -387 540 -332 540 -321C540 -310 542 -305 547 -305C551 -305 555 -307 561 -309C581 -316 581 -320 581 -350ZM947 -697C954 -697 958 -698 958 -701C958 -703 955 -707 951 -711L889 -773L847 -719H668V-786C697 -805 700 -807 700 -811C700 -813 697 -816 691 -819L618 -854C620 -821 621 -793 621 -768V-719H384V-792L408 -807C412 -809 414 -812 414 -814C414 -816 411 -819 406 -821L334 -852C336 -819 337 -791 337 -766V-719H123C100 -719 75 -721 50 -723L78 -686C95 -693 124 -697 145 -697H337C337 -684 336 -628 336 -616C336 -610 337 -607 342 -607C349 -607 385 -618 385 -635C385 -652 384 -680 384 -697H621C621 -678 620 -646 620 -627C620 -621 622 -618 627 -618C628 -618 669 -627 669 -641C669 -645 668 -666 668 -670V-697ZM255 -566C286 -585 290 -588 290 -591C290 -594 286 -597 280 -600L210 -633C213 -575 214 -518 214 -460H134C111 -460 86 -462 61 -464L89 -427C106 -434 135 -438 156 -438H210C173 -299 127 -187 57 -73L67 -64C123 -132 171 -209 214 -323V-95C214 -12 214 29 212 57C212 64 211 70 211 74C211 84 213 88 217 88C220 88 225 86 233 82C253 71 257 67 257 54V48C256 19 255 -13 255 -94V-334C298 -299 315 -270 323 -239C329 -214 334 -209 343 -209C357 -209 374 -227 374 -251C374 -292 327 -323 255 -352V-438H374C383 -438 387 -439 387 -443C387 -446 384 -451 377 -459L339 -502L308 -460H255ZM395 -609C396 -572 399 -526 399 -476V-7L361 24L417 63C421 66 424 67 427 67C430 67 433 65 436 61L458 35H932C942 35 948 34 948 30C948 27 944 21 936 13L889 -36L844 13H440V-547H883C893 -547 899 -548 899 -552C899 -555 895 -561 887 -569L842 -617L795 -569H449Z"/>
</svg>