<svg xmlns="http://www.w3.org/2000/svg" viewBox="0 -1000 1000 1000">
	<path fill="#000000" d="M407 -494V-603H589V-494ZM147 -665C149 -637 149 -627 149 -580V-498C149 -489 147 -447 147 -439C147 -431 149 -427 156 -427C160 -427 165 -428 173 -431C193 -438 193 -442 193 -475H802C802 -445 802 -442 810 -442C814 -442 820 -443 829 -446C847 -452 851 -455 851 -469C851 -481 847 -536 847 -547V-595L873 -610C879 -614 882 -617 882 -621C882 -624 879 -627 873 -630L811 -662L788 -623H201ZM193 -494V-603H363V-494ZM802 -603V-494H633V-603ZM175 -231H430V-168H175ZM430 -65V-8C430 5 428 10 403 10C387 10 359 7 315 3V17C383 31 405 46 410 69C411 74 414 76 418 76C420 76 422 75 425 74C470 54 473 45 473 -12V-221C497 -236 500 -238 500 -242C500 -244 498 -247 493 -250L440 -283L417 -251H181L130 -290C132 -270 132 -258 132 -227V-22C132 -11 130 42 130 49C130 59 132 63 138 63C142 63 147 61 155 58C173 51 175 49 175 40V-65ZM430 -85H175V-150H430ZM353 -415C389 -392 416 -367 433 -342L167 -334C205 -357 229 -373 283 -411C302 -424 326 -433 334 -434C343 -435 347 -436 347 -438C347 -440 344 -443 339 -446L288 -474C241 -419 170 -363 137 -346C124 -339 98 -335 75 -336L108 -292C110 -289 114 -288 117 -288C119 -288 122 -288 124 -289C169 -304 202 -310 442 -327C444 -323 446 -318 448 -314C457 -289 470 -277 477 -277C493 -277 504 -292 504 -310C504 -356 414 -406 363 -427ZM589 -419C612 -429 618 -431 618 -436C618 -440 613 -444 603 -448L543 -473C545 -447 546 -424 546 -398V-288C546 -241 555 -232 607 -229C650 -227 690 -225 727 -225C878 -225 895 -238 917 -286C918 -288 919 -290 919 -292C919 -296 917 -298 912 -300C886 -313 881 -326 880 -394H862C863 -281 856 -269 806 -266C779 -264 746 -263 712 -263C589 -263 589 -268 589 -293V-323C641 -333 675 -342 789 -381C796 -383 811 -385 819 -385C822 -385 832 -383 834 -383C837 -383 838 -384 838 -386C838 -388 835 -392 830 -397L792 -433C735 -399 644 -358 589 -339ZM591 -161C612 -170 618 -173 618 -179C618 -183 614 -188 606 -191L545 -219C547 -189 548 -168 548 -144V-8C548 46 563 55 710 55C762 55 811 53 854 49C898 45 916 33 936 -6C937 -8 938 -11 938 -12C938 -16 936 -19 931 -20C907 -28 901 -42 898 -106H881C882 -8 879 7 836 12C797 16 756 19 713 19C602 19 591 13 591 -14V-62C653 -75 744 -96 831 -119C846 -123 853 -124 859 -124C861 -124 871 -122 873 -122C876 -122 878 -123 878 -125C878 -127 876 -131 870 -136L823 -175C776 -148 672 -105 591 -79ZM669 -773L694 -789C698 -792 701 -794 701 -797C701 -799 698 -801 693 -804L621 -838C624 -790 624 -772 624 -727H374V-779L398 -794C401 -796 403 -798 403 -800C403 -802 401 -804 397 -806L326 -837C329 -788 329 -756 329 -727H128C106 -727 82 -729 58 -731L84 -696C101 -703 129 -707 150 -707H329C329 -697 328 -653 328 -644C328 -639 329 -637 334 -637C344 -637 375 -648 375 -663C375 -670 374 -701 374 -707H624C624 -698 623 -657 623 -648C623 -643 625 -640 630 -640C632 -640 670 -649 670 -662C670 -675 669 -695 669 -707H934C940 -707 943 -708 943 -711C943 -713 941 -715 937 -719L876 -780L834 -727H669Z"/>
</svg>