<svg xmlns="http://www.w3.org/2000/svg" viewBox="0 -1000 1000 1000">
	<path fill="#000000" d="M337 -182C360 -150 378 -117 389 -86L268 -61V-302H366V-252C366 -244 367 -239 373 -239C377 -239 383 -241 393 -245C412 -253 415 -257 415 -271V-279C412 -324 410 -362 410 -418V-566C438 -583 441 -585 441 -589C441 -592 439 -595 434 -598L377 -638L354 -601H268V-762L293 -777C297 -780 300 -782 300 -785C300 -789 296 -792 289 -796L220 -832C222 -795 223 -751 223 -686V-601H139L79 -649C81 -618 82 -570 82 -546V-395C82 -353 81 -301 79 -268C79 -261 78 -256 78 -251C78 -240 80 -236 86 -236C90 -236 97 -238 106 -242C125 -250 127 -253 127 -267V-302H223V-52L28 -11L62 46C64 48 66 49 68 49C70 49 72 48 74 46C91 30 116 15 168 -1L393 -72C400 -51 403 -32 403 -16C403 15 411 25 420 25C436 25 454 8 454 -25C454 -71 429 -114 343 -188ZM268 -324V-579H366V-324ZM127 -324V-579H223V-324ZM625 -793C679 -747 699 -701 704 -671C709 -639 714 -635 723 -635C745 -635 761 -656 761 -684C761 -714 748 -744 631 -802ZM895 -663L851 -605H509C493 -605 464 -606 437 -608L469 -574C493 -583 520 -583 551 -583V-22L514 5L567 46C571 49 574 51 577 51C579 51 582 49 584 46L604 20H909C916 20 919 18 919 15C919 12 917 8 912 3L851 -60L810 -2H598V-583H954C960 -583 963 -585 963 -588C963 -591 961 -595 956 -600Z"/>
</svg>