<svg xmlns="http://www.w3.org/2000/svg" viewBox="0 -1000 1000 1000">
	<path fill="#000000" d="M133 -640L86 -679C88 -648 89 -615 89 -576V-406C89 -364 88 -312 86 -279V-273C86 -261 88 -255 93 -255C94 -255 132 -267 132 -287V-334H218V-99L30 -58L65 -5C67 -2 69 0 71 0C73 0 75 -2 78 -5C89 -18 139 -42 195 -60L378 -114C381 -102 382 -91 383 -80C384 -58 391 -49 406 -49C422 -49 432 -62 432 -86C432 -98 430 -112 425 -128C419 -148 372 -205 330 -233L324 -227C346 -193 362 -161 372 -133L261 -109V-334H353V-303C353 -295 355 -290 360 -290C365 -290 371 -293 380 -298C395 -307 399 -311 399 -326V-332C397 -371 396 -407 396 -463V-604L418 -620C422 -623 424 -625 424 -627C424 -630 422 -632 418 -635L366 -675L343 -640H261V-795C290 -815 290 -815 290 -818C290 -821 287 -823 282 -826L214 -859C216 -827 218 -766 218 -713V-640ZM132 -355V-619H218V-355ZM353 -619V-355H261V-619ZM661 -389H513V-726H661ZM705 -389V-726H850V-389ZM464 -799C466 -764 467 -726 467 -685V-57C467 43 503 43 688 43C923 43 936 36 964 -36C965 -38 965 -40 965 -42C965 -45 964 -46 961 -47C938 -54 927 -74 927 -190H911C899 -21 889 -11 834 -5C792 0 727 3 671 3C532 3 513 -13 513 -61V-368H850V-323C850 -315 852 -310 858 -310C862 -310 867 -312 875 -316C894 -326 898 -331 898 -343V-347C896 -376 895 -408 895 -444V-710L927 -728C932 -731 934 -734 934 -737C934 -741 932 -744 927 -748L865 -797L833 -749H527Z"/>
</svg>