<svg xmlns="http://www.w3.org/2000/svg" viewBox="0 -1000 1000 1000">
	<path fill="#000000" d="M659 -110C700 -88 736 -62 765 -35L521 -26V-173H706C706 -138 706 -134 713 -134C718 -134 724 -136 733 -141C750 -149 753 -154 753 -167C753 -179 751 -228 751 -238V-331C773 -348 776 -350 776 -354C776 -357 773 -359 768 -362L713 -395L694 -365H521V-446C543 -459 550 -462 550 -468C550 -472 546 -476 537 -479L470 -509C472 -473 474 -406 474 -365H298L242 -392C245 -360 245 -345 245 -306V-220C245 -205 243 -139 243 -125C243 -117 244 -113 249 -113C252 -113 257 -115 265 -119C290 -130 290 -132 290 -173H474V-24L96 -9L133 46C136 50 138 51 140 51C142 51 144 50 147 47C162 32 189 25 260 20L782 -18C808 10 827 37 838 61C846 79 851 82 861 82C873 82 886 64 886 41C886 29 882 16 873 3C843 -37 779 -74 665 -121ZM521 -194V-344H706V-194ZM290 -194V-344H474V-194ZM974 -377C837 -393 697 -467 617 -601H934C943 -601 947 -602 947 -605C947 -609 943 -613 936 -620L874 -674L837 -623H444C470 -666 492 -713 511 -765H843C854 -765 859 -767 859 -772C859 -775 855 -780 848 -787L793 -839L753 -787H223C201 -787 176 -789 153 -791L180 -755C195 -761 224 -765 244 -765H453C436 -714 416 -666 391 -623H122C99 -623 74 -625 49 -627L77 -590C94 -597 123 -601 144 -601H378C303 -479 191 -383 32 -288L41 -276C220 -360 343 -456 432 -601H596C665 -463 749 -395 875 -328C879 -326 882 -325 884 -325C888 -325 892 -327 894 -331C910 -352 930 -365 974 -366Z"/>
</svg>