<svg xmlns="http://www.w3.org/2000/svg" viewBox="0 -1000 1000 1000">
	<path fill="#000000" d="M563 -31V-295H846V-31ZM514 -365C516 -334 517 -286 517 -262V-80C517 -45 516 0 514 45V51C514 62 516 67 523 67C527 67 534 65 544 61C561 54 563 50 563 36V-9H846V53C846 61 847 66 853 66C856 66 862 64 872 60C892 51 896 47 896 33V26C893 -19 892 -48 892 -82V-276L919 -296C922 -298 924 -301 924 -303C924 -305 922 -308 918 -311L859 -357L834 -319H585ZM857 -732C857 -673 854 -607 850 -565C842 -487 830 -458 778 -458C754 -458 722 -464 678 -474L677 -460C764 -431 774 -423 782 -392C783 -387 785 -384 789 -384C792 -384 795 -386 800 -388C870 -426 899 -447 904 -714L932 -733C937 -736 939 -739 939 -741C939 -744 936 -747 930 -752L876 -792L843 -753H523C500 -753 475 -754 450 -757L478 -721C495 -728 524 -732 545 -732H610C605 -555 568 -485 423 -373L428 -360C597 -453 647 -532 659 -732ZM100 -674C102 -643 103 -597 103 -571V-409C103 -367 102 -320 100 -286V-276C100 -265 102 -260 108 -260C112 -260 118 -262 126 -266C143 -275 146 -280 146 -292V-339H230V-94L44 -62L79 -4C81 -1 83 0 85 0C87 0 89 -2 92 -6C102 -20 154 -45 238 -66L392 -105C394 -98 394 -90 394 -84C394 -49 406 -37 423 -37C437 -37 449 -54 449 -78C449 -127 400 -185 353 -231L344 -221C369 -180 382 -148 389 -121L274 -101V-339H361V-300C361 -291 362 -286 368 -286C377 -286 409 -298 409 -322V-327C405 -385 404 -407 404 -459V-602C416 -610 436 -623 436 -627C436 -629 433 -632 428 -635L371 -674L347 -637H274V-784C299 -804 301 -806 301 -811C301 -814 298 -817 292 -820L226 -849C228 -812 230 -744 230 -703V-637H154ZM230 -361H146V-615H230ZM274 -361V-615H361V-361Z"/>
</svg>