<svg xmlns="http://www.w3.org/2000/svg" viewBox="0 -1000 1000 1000">
	<path fill="#000000" d="M546 -46V-293H819V-46ZM768 -662C821 -602 856 -553 875 -512L524 -504C576 -583 639 -678 680 -741C712 -790 718 -795 733 -798C743 -800 748 -802 748 -806C748 -808 745 -811 738 -815L680 -846C641 -759 595 -667 542 -576C506 -515 486 -505 448 -498L489 -451C495 -445 499 -442 503 -442C506 -442 509 -443 512 -446C526 -456 576 -466 652 -473L882 -495C888 -477 892 -461 893 -446C895 -419 901 -408 913 -408C928 -408 950 -428 950 -463C950 -528 857 -614 775 -671ZM834 -352L806 -315H563L498 -369C500 -338 501 -290 501 -266V-75C501 -67 498 38 498 60C498 76 500 82 507 82C511 82 517 80 526 76C543 68 546 63 546 51V-24H819V68C819 79 820 84 825 84C829 84 835 81 845 75C866 63 869 58 869 47V41C866 -4 865 -33 865 -67V-272L896 -292C901 -295 903 -298 903 -301C903 -305 900 -309 893 -313ZM391 -659L354 -619L251 -615C264 -676 275 -733 285 -780L314 -798C318 -800 320 -803 320 -805C320 -807 318 -809 313 -812L242 -853C231 -771 219 -691 206 -612L146 -610C123 -608 98 -608 73 -609L102 -576C118 -584 141 -588 162 -589L203 -591C181 -464 157 -345 134 -238C184 -212 226 -185 261 -159C209 -76 138 -9 39 60L46 72C142 25 237 -46 293 -132C338 -92 367 -53 381 -16C390 6 395 10 407 10C418 10 430 -6 430 -32C430 -81 395 -117 314 -167C373 -277 398 -409 410 -574L442 -599C445 -601 447 -603 447 -605C447 -608 445 -611 440 -615ZM364 -600C360 -421 328 -283 277 -188C248 -204 214 -222 175 -240C197 -345 223 -475 247 -594Z"/>
</svg>