<svg xmlns="http://www.w3.org/2000/svg" viewBox="0 -1000 1000 1000">
	<path fill="#000000" d="M77 -659C79 -628 80 -582 80 -556V-402C80 -360 79 -313 77 -279V-269C77 -258 79 -253 85 -253C89 -253 95 -255 103 -259C120 -268 122 -273 122 -285V-332H198V-122L28 -89L63 -31C65 -28 67 -27 69 -27C71 -27 73 -29 76 -33C86 -48 122 -64 207 -91L330 -130C331 -123 332 -117 332 -111C332 -73 342 -64 356 -64C371 -64 385 -83 385 -108C385 -146 360 -189 287 -258L278 -248C304 -206 319 -173 326 -147L241 -130V-332H318V-293C318 -284 319 -279 325 -279C334 -279 366 -291 366 -315V-320C363 -365 361 -396 361 -452V-587C390 -606 393 -608 393 -612C393 -614 390 -617 385 -620L324 -655L305 -622H241V-783C266 -803 268 -805 268 -810C268 -813 265 -816 259 -819L194 -848C196 -811 198 -743 198 -702V-622H130ZM198 -354H122V-600H198ZM241 -354V-600H318V-354ZM441 -799C443 -765 444 -722 444 -684V-520C444 -207 423 -76 333 68L345 76C441 -39 479 -138 487 -415H553V-73C553 -34 541 -6 518 14L558 63C561 66 563 68 565 68C568 68 569 66 571 62C587 24 617 -8 725 -97L717 -112L598 -37V-415H674C704 -127 874 20 881 20C884 20 886 18 889 15C901 1 922 -10 955 -10C960 -10 966 -10 973 -9L974 -21C883 -50 813 -115 760 -225C860 -286 905 -304 931 -305C939 -305 944 -306 944 -308C944 -310 941 -313 936 -317L878 -358C833 -310 799 -278 752 -242C730 -291 712 -349 695 -415H947C952 -415 955 -416 955 -419C955 -421 953 -424 949 -429L890 -493L847 -437H488C489 -478 490 -523 490 -573H872C879 -573 883 -574 883 -577C883 -579 880 -583 876 -587L819 -647L782 -595H490V-729H915C922 -729 926 -730 926 -733C926 -735 924 -738 920 -743L867 -807L825 -751H506Z"/>
</svg>