<svg xmlns="http://www.w3.org/2000/svg" viewBox="0 -1000 1000 1000">
	<path fill="#000000" d="M136 -350V-614H224V-350ZM353 -614V-350H267V-614ZM626 -607V-113C572 -82 505 -47 431 -14L437 1C527 -34 578 -55 626 -79C627 13 655 13 738 13C919 13 925 0 949 -46C951 -51 952 -54 952 -57C952 -62 950 -65 944 -67C926 -74 918 -93 919 -174H904C895 -46 888 -39 847 -32C825 -28 798 -27 770 -27C669 -27 669 -29 669 -101C720 -128 765 -158 877 -239C890 -249 906 -254 917 -254C919 -254 926 -252 928 -252C934 -252 938 -256 938 -261C938 -263 936 -267 932 -270L880 -309C819 -248 751 -191 669 -139V-263C728 -289 776 -315 828 -347C842 -356 860 -363 872 -363C874 -363 884 -361 886 -361C891 -361 894 -362 894 -365C894 -368 891 -372 885 -377L838 -416C790 -371 750 -337 669 -286V-415C711 -433 755 -456 822 -496C835 -504 852 -512 865 -512C868 -512 878 -510 880 -510C885 -510 887 -511 887 -514C887 -517 885 -521 879 -526L828 -569C785 -522 754 -497 669 -440V-607H940C949 -607 953 -609 953 -613C953 -617 950 -622 944 -629L889 -690L847 -629H566C570 -697 574 -748 577 -793L605 -809C610 -812 613 -815 613 -817C613 -820 610 -822 605 -825L528 -864C526 -776 524 -699 521 -629H466C447 -629 434 -630 415 -632L366 -670L343 -635H267V-787C296 -807 296 -807 296 -810C296 -813 293 -815 288 -818L220 -851C222 -819 224 -758 224 -705V-635H138L90 -674C92 -643 93 -610 93 -571V-401C93 -359 92 -307 90 -274V-268C90 -256 92 -250 97 -250C98 -250 136 -262 136 -282V-329H224V-107L42 -68L77 -18C79 -15 81 -14 83 -14C85 -14 88 -15 90 -18C101 -31 151 -55 207 -73L374 -122C375 -101 382 -93 397 -93C406 -93 420 -110 420 -133C420 -167 388 -199 330 -243L324 -237C351 -194 367 -162 372 -138L267 -116V-329H353V-298C353 -290 355 -285 360 -285C365 -285 371 -288 380 -293C395 -302 399 -306 399 -321V-327C397 -366 396 -402 396 -458V-599L417 -614L431 -596C448 -603 467 -607 488 -607H520C501 -169 472 -82 312 55L318 69C511 -68 542 -158 565 -607ZM674 -808C721 -778 758 -727 775 -686C782 -669 787 -666 794 -666C809 -666 823 -686 823 -712C823 -717 822 -722 821 -728C814 -756 774 -784 679 -816Z"/>
</svg>