<svg xmlns="http://www.w3.org/2000/svg" viewBox="0 -1000 1000 1000">
	<path fill="#000000" d="M908 -159C907 -92 902 -30 898 -16C891 11 886 17 835 17C762 17 749 13 749 -16V-288H822C822 -249 822 -245 828 -245C832 -245 838 -247 847 -252C866 -261 869 -265 869 -275V-282C867 -313 866 -332 866 -408V-735L907 -759C909 -760 911 -762 911 -764C911 -766 909 -768 906 -771L836 -818L808 -771H537L476 -825C478 -795 479 -747 479 -723V-386C479 -329 477 -282 476 -261V-251C476 -236 478 -230 484 -230C488 -230 493 -232 501 -235C520 -244 522 -247 522 -260V-288H579C580 -71 508 2 283 77L289 94C550 22 612 -38 624 -288H706V-18C706 57 723 57 840 57C934 57 941 57 973 -5C974 -7 974 -8 974 -10C974 -13 972 -15 969 -16C937 -26 923 -47 927 -159ZM522 -465V-596H822V-465ZM522 -617V-749H822V-617ZM522 -310V-443H822V-310ZM318 -248C341 -218 360 -184 373 -152L260 -133V-333H344V-294C344 -286 345 -281 351 -281C355 -281 361 -283 371 -287C388 -294 392 -298 392 -312V-319C389 -364 388 -404 388 -460V-606L420 -622C426 -625 428 -627 428 -629C428 -631 426 -633 422 -636L359 -681L337 -640H260V-781L289 -799C295 -802 297 -805 297 -808C297 -810 294 -813 287 -817L212 -855C214 -818 216 -750 216 -709V-640H146L87 -693C89 -662 90 -614 90 -590V-426C90 -384 89 -332 87 -299V-287C87 -273 89 -268 95 -268C104 -268 133 -277 133 -298V-333H216V-126L33 -95L68 -35C70 -32 72 -30 74 -30C76 -30 78 -32 80 -35C89 -49 130 -69 189 -84L380 -133C386 -114 390 -96 391 -80C392 -64 398 -60 412 -60C423 -60 443 -76 443 -106C443 -112 443 -118 441 -125C432 -163 388 -211 328 -257ZM260 -355V-618H344V-355ZM133 -355V-618H216V-355Z"/>
</svg>