<svg xmlns="http://www.w3.org/2000/svg" viewBox="0 -1000 1000 1000">
	<path fill="#000000" d="M323 -225C346 -197 364 -167 375 -140L268 -121V-326H352C352 -295 352 -291 358 -291C362 -291 368 -294 378 -300C399 -312 402 -315 402 -325V-331C399 -376 397 -414 397 -470V-610L422 -628C426 -631 429 -634 429 -636C429 -639 426 -641 421 -645L367 -687L341 -648H268V-775L294 -792C299 -795 302 -798 302 -800C302 -803 299 -805 293 -808L220 -846C222 -809 223 -779 223 -699V-648H151L94 -694C96 -663 97 -615 97 -591V-409C97 -367 96 -315 94 -282C94 -275 93 -270 93 -265C93 -253 95 -247 100 -247C105 -247 111 -251 121 -256C141 -267 142 -269 142 -281V-326H223V-113L26 -77L65 -20C68 -17 69 -15 71 -15C73 -15 75 -17 78 -20C91 -36 112 -49 178 -67L382 -124C387 -108 390 -95 391 -85C395 -50 403 -43 421 -43C431 -43 445 -60 445 -86C445 -127 402 -184 328 -236ZM268 -348V-626H352V-348ZM142 -348V-626H223V-348ZM893 -826C792 -791 562 -755 437 -738L440 -723C559 -729 775 -752 852 -762C858 -763 865 -763 874 -763C894 -763 918 -761 924 -760C929 -758 933 -758 936 -758C938 -758 939 -758 939 -760C939 -762 937 -765 933 -771ZM609 -691C643 -646 657 -609 664 -582C670 -558 675 -548 684 -548C701 -548 715 -564 715 -587C715 -615 698 -640 617 -699ZM859 -719C817 -640 777 -571 731 -497L744 -490C842 -614 884 -660 909 -664C921 -666 926 -667 926 -670C926 -672 922 -676 916 -680ZM463 -659C499 -617 521 -575 526 -545C530 -521 540 -510 549 -510C561 -510 577 -525 577 -546C577 -570 555 -610 472 -668ZM906 -296L862 -247H712V-310C729 -318 731 -319 731 -322C731 -325 727 -327 719 -331C826 -419 863 -437 897 -440C905 -441 908 -442 908 -444C908 -446 906 -449 900 -453L837 -500L812 -472H514C491 -472 466 -474 441 -476L469 -439C486 -446 515 -450 536 -450H809L705 -338L663 -358C664 -339 666 -292 666 -247H439C416 -247 391 -249 366 -251L394 -214C411 -221 440 -225 461 -225H666V-28C666 -4 662 7 628 7C608 7 578 3 532 -4L530 10C611 32 631 44 634 75C635 81 636 84 639 84C641 84 644 82 649 80C703 55 712 45 712 5V-225H957C965 -225 969 -226 969 -229C969 -232 967 -235 962 -240Z"/>
</svg>