<svg xmlns="http://www.w3.org/2000/svg" viewBox="0 -1000 1000 1000">
	<path fill="#000000" d="M79 -674C81 -643 82 -597 82 -571V-409C82 -367 81 -320 79 -286V-276C79 -265 81 -260 87 -260C91 -260 97 -262 105 -266C122 -275 125 -280 125 -292V-339H207V-125L23 -87L58 -29C60 -26 62 -25 64 -25C66 -25 68 -27 71 -31C81 -45 133 -70 217 -91L359 -140C363 -127 364 -117 364 -107C364 -69 374 -60 388 -60C402 -60 411 -77 411 -99C411 -149 370 -203 318 -254L309 -244C331 -210 346 -181 354 -156L250 -134V-339H330V-300C330 -291 331 -286 337 -286C346 -286 378 -298 378 -322C378 -344 373 -437 373 -459V-602C402 -621 405 -623 405 -627C405 -629 402 -632 397 -635L336 -670L316 -637H250V-784C275 -804 277 -806 277 -811C277 -814 274 -817 268 -820L203 -849C205 -812 207 -744 207 -703V-637H133ZM207 -361H125V-615H207ZM250 -361V-615H330V-361ZM537 -843C490 -676 469 -627 400 -497L413 -490C455 -549 480 -590 522 -669H932C944 -669 950 -670 950 -674C950 -677 946 -682 938 -691L885 -749L841 -691H533C543 -711 554 -732 565 -755C576 -778 582 -784 597 -788C608 -791 613 -793 613 -796C613 -799 609 -801 603 -805ZM700 -504H839L782 -390L795 -384C853 -468 879 -488 921 -500C929 -502 934 -505 934 -509C934 -513 931 -517 925 -521L858 -570L829 -526H513C499 -526 475 -527 453 -528L486 -500C501 -503 516 -504 536 -504H656V-30C604 -54 556 -97 510 -167C525 -215 537 -273 548 -348L576 -361C580 -363 582 -365 582 -367C582 -369 579 -372 573 -375L504 -413C483 -160 449 -69 320 73L327 85C423 -2 472 -59 504 -148C566 -23 669 66 887 66C894 66 898 64 900 60C916 31 924 24 976 12V0C934 3 895 5 861 5C794 5 742 -1 700 -13V-249H883C894 -249 899 -250 899 -254C899 -257 896 -262 889 -269L841 -319L801 -271H700Z"/>
</svg>