<svg xmlns="http://www.w3.org/2000/svg" viewBox="0 -1000 1000 1000">
	<path fill="#000000" d="M123 -627L76 -666C78 -635 79 -602 79 -563V-387C79 -345 78 -293 76 -260V-254C76 -242 78 -236 83 -236C84 -236 122 -248 122 -268V-315H208V-84L25 -42L60 8C62 11 64 13 66 13C68 13 70 11 73 8C84 -5 134 -29 190 -47L367 -104C370 -91 371 -79 371 -69C371 -36 381 -25 396 -25C415 -25 427 -52 427 -77C427 -125 360 -194 320 -225L313 -216C338 -187 354 -152 363 -120L251 -94V-315H338V-284C338 -276 340 -271 345 -271C350 -271 356 -274 365 -279C380 -288 384 -292 384 -307V-313C382 -352 381 -388 381 -444V-591C392 -599 409 -611 409 -615C409 -617 407 -619 403 -622L351 -662L328 -627H251V-779C280 -799 280 -799 280 -802C280 -805 277 -807 272 -810L204 -843C206 -811 208 -750 208 -697V-627ZM122 -336V-606H208V-336ZM338 -606V-336H251V-606ZM506 -300C551 -244 569 -195 576 -144C580 -116 589 -109 600 -109C617 -109 633 -127 633 -162C633 -166 632 -170 632 -174C629 -204 584 -257 514 -309ZM442 -651C492 -589 512 -531 512 -491C512 -459 522 -450 537 -450C555 -450 567 -472 567 -498C567 -557 501 -619 448 -662ZM821 -731C791 -661 720 -514 686 -453L703 -445C839 -665 843 -669 879 -679C885 -681 888 -682 888 -685C888 -687 885 -689 881 -692ZM577 -688C616 -642 635 -580 635 -541C635 -508 645 -497 660 -497C679 -497 691 -524 691 -549C691 -597 624 -666 584 -697ZM849 -838C732 -800 526 -745 401 -725L403 -710C497 -718 622 -737 806 -774C816 -776 827 -777 839 -777C854 -777 870 -775 883 -772C887 -771 890 -770 892 -770C895 -770 897 -771 897 -773C897 -775 895 -778 893 -781ZM815 -449C844 -466 844 -466 844 -469C844 -472 841 -474 834 -477L765 -508C767 -473 769 -409 769 -368H484C461 -368 436 -369 411 -372L439 -335C456 -342 485 -346 506 -346H769V-29C769 -9 765 2 735 2C712 2 674 -4 611 -17L609 -2C700 21 721 40 727 75C728 80 729 83 733 83C735 83 737 82 740 81C811 49 815 42 815 -12V-346H967C976 -346 980 -348 980 -353C980 -356 977 -361 971 -368L922 -420L880 -368H815Z"/>
</svg>