<svg xmlns="http://www.w3.org/2000/svg" viewBox="0 -1000 1000 1000">
	<path fill="#000000" d="M118 -614L70 -653C72 -622 73 -589 73 -550V-380C73 -338 72 -286 70 -253V-247C70 -235 72 -229 77 -229C79 -229 116 -242 116 -261V-308H194V-105L24 -67L59 -17C61 -14 63 -13 65 -13C67 -13 70 -14 72 -17C83 -30 130 -51 187 -70L329 -117C329 -74 344 -74 353 -74C362 -74 376 -91 376 -114C376 -122 375 -130 371 -139C363 -158 337 -190 288 -224L280 -218C302 -184 316 -156 324 -134L237 -115V-308H317V-277C317 -269 319 -264 324 -264C329 -264 335 -267 344 -272C359 -281 363 -285 363 -300V-306C361 -345 360 -381 360 -437V-578C371 -586 388 -598 388 -602C388 -604 386 -606 382 -609L330 -649L307 -614H237V-765C266 -785 266 -785 266 -788C266 -791 263 -793 258 -796L190 -829C192 -797 194 -736 194 -683V-614ZM116 -329V-593H194V-329ZM317 -593V-329H237V-593ZM458 -636C460 -617 461 -589 461 -564V-498C461 -464 460 -436 458 -418C458 -414 457 -410 457 -407C457 -399 459 -395 465 -395C469 -395 476 -397 486 -401C505 -408 506 -413 506 -433H800C800 -403 800 -400 809 -400C819 -400 848 -408 848 -425V-429C846 -454 845 -477 845 -511V-557L872 -574C877 -577 880 -580 880 -584C880 -587 877 -591 872 -595L818 -635L788 -596H516ZM506 -455V-574H800V-455ZM559 -843C607 -804 633 -767 644 -734C650 -715 654 -711 666 -711C680 -711 698 -731 698 -758C698 -796 656 -824 563 -853ZM957 -157C966 -157 971 -159 971 -164C971 -168 968 -173 961 -179L902 -234L861 -179H675V-195C685 -201 702 -210 702 -213C702 -215 701 -216 698 -218C787 -280 838 -306 867 -306C880 -306 883 -306 883 -310C883 -313 881 -316 876 -321L823 -374L792 -343H496C473 -343 451 -345 426 -347L454 -310C471 -317 497 -321 518 -321H786L680 -228L627 -255C628 -236 629 -210 629 -179H431C410 -179 391 -181 368 -182L393 -147C409 -153 432 -157 451 -157H629V-21C629 -4 619 7 582 7C557 7 520 2 465 -9L462 4C556 31 582 49 589 80C590 85 593 88 596 88C597 88 599 87 601 86C670 45 675 36 675 -13V-157ZM902 -754L865 -700H432C409 -700 387 -702 362 -704L390 -667C407 -674 433 -678 454 -678H960C969 -678 974 -680 974 -683C974 -687 970 -691 964 -697Z"/>
</svg>