<svg xmlns="http://www.w3.org/2000/svg" viewBox="0 -1000 1000 1000">
	<path fill="#000000" d="M70 -639C72 -608 73 -562 73 -536V-374C73 -332 72 -282 70 -251V-241C70 -230 72 -225 78 -225C82 -225 88 -227 96 -231C113 -240 116 -245 116 -257V-304H195V-72L44 -37L79 21C80 23 82 24 83 24C86 24 88 22 92 17C102 3 127 -15 172 -31L332 -87C333 -83 333 -79 333 -75C333 -37 343 -28 357 -28C371 -28 380 -45 380 -67C380 -117 339 -171 287 -222L278 -212C306 -168 323 -132 329 -103L239 -82V-304H319V-265C319 -256 320 -251 326 -251C335 -251 367 -263 367 -287V-292C363 -348 362 -375 362 -424V-567C391 -586 394 -588 394 -592C394 -594 391 -597 386 -600L325 -635L305 -602H239V-764C264 -784 266 -786 266 -791C266 -794 263 -797 257 -800L191 -829C193 -792 195 -724 195 -683V-602H124ZM195 -326H116V-580H195ZM239 -326V-580H319V-326ZM611 -471H443C420 -471 395 -473 370 -475L398 -438C415 -445 444 -449 465 -449H611V-344H481C458 -344 433 -346 408 -348L436 -311C453 -318 482 -322 503 -322H611V-25C568 -40 526 -79 487 -137C493 -155 498 -175 502 -197C506 -217 511 -225 523 -231C530 -234 533 -237 533 -240C533 -243 530 -246 522 -250L466 -279C450 -111 435 -66 301 81L308 90C407 8 451 -43 478 -109C531 -5 596 30 873 48C879 48 884 49 888 49C902 49 906 46 910 39C925 13 934 5 981 -6L980 -21C927 -11 880 -7 828 -7C778 -7 723 -11 656 -17V-169H884C897 -169 903 -171 903 -175C903 -179 900 -184 893 -191L848 -239L811 -191H656V-322H804C804 -290 804 -287 811 -287C814 -287 820 -288 829 -292C848 -300 853 -304 853 -316C853 -330 848 -393 848 -406V-449H956C968 -449 974 -450 974 -455C974 -458 970 -463 962 -471L916 -519L878 -471H848V-563C876 -579 879 -581 879 -585C879 -588 876 -591 870 -595L818 -630L788 -594H656V-693H921C932 -693 937 -694 937 -698C937 -701 934 -705 927 -711L865 -768L830 -715H656V-788C678 -803 681 -805 681 -809C681 -812 678 -815 672 -818L605 -848C607 -813 611 -745 611 -715H445C422 -715 397 -717 372 -719L400 -682C417 -689 446 -693 467 -693H611V-594H482C459 -594 434 -596 409 -598L437 -561C454 -568 483 -572 504 -572H611ZM656 -471V-572H804V-471ZM656 -344V-449H804V-344Z"/>
</svg>