<svg xmlns="http://www.w3.org/2000/svg" viewBox="0 -1000 1000 1000">
	<path fill="#000000" d="M285 -222C306 -184 318 -155 323 -129L231 -106V-333H304C304 -305 304 -302 312 -302C324 -302 349 -312 349 -337C349 -357 347 -444 347 -462V-606C370 -623 372 -625 372 -628C372 -631 370 -634 365 -637L312 -671L293 -638H231V-779C261 -797 262 -798 262 -802C262 -805 259 -807 252 -811L185 -847C187 -810 189 -742 189 -701V-638H130L75 -682C77 -651 78 -603 78 -579V-411C78 -369 77 -318 75 -286V-274C75 -260 77 -254 83 -254C83 -254 121 -263 121 -285V-333H189V-95L30 -54L69 -2C71 1 73 3 75 3C77 3 79 1 82 -2C96 -20 119 -36 158 -51L326 -114C327 -104 328 -94 328 -84C328 -58 335 -52 349 -52C360 -52 372 -74 372 -99C372 -105 371 -111 370 -117C366 -134 347 -171 291 -229ZM231 -355V-616H304V-355ZM121 -355V-616H189V-355ZM905 -803C842 -774 749 -741 620 -703L622 -691C673 -699 724 -708 771 -717V-195H689V-509C712 -525 714 -526 714 -530C714 -533 712 -535 707 -537L644 -565C646 -532 646 -496 646 -457V-202L618 -178L667 -155C669 -154 671 -153 673 -153C680 -153 681 -155 695 -173H943C952 -173 956 -176 956 -180C956 -184 953 -189 946 -194L896 -237L864 -195H816V-455H934C942 -455 946 -457 946 -461C946 -465 943 -469 938 -474L893 -515L866 -477H816V-727C866 -739 896 -747 919 -747C923 -747 943 -743 947 -743C950 -743 952 -744 952 -746C952 -748 950 -751 947 -754ZM978 -24C933 -20 889 -18 848 -18C693 -18 570 -49 499 -141C534 -211 560 -312 576 -412C601 -429 603 -431 603 -435C603 -438 601 -440 597 -443L548 -477L531 -445H448L536 -649C553 -690 563 -703 580 -709C584 -711 587 -713 587 -715C587 -717 585 -719 582 -722L542 -760L516 -730H425C402 -730 377 -732 352 -734L380 -697C397 -704 426 -708 447 -708H518L428 -487C417 -461 402 -448 376 -434L420 -406C423 -404 426 -403 429 -403C433 -403 434 -405 449 -423H531C522 -316 504 -240 476 -174C443 -225 421 -272 400 -322L387 -318C401 -256 424 -206 462 -144C418 -60 352 3 280 63L288 72C367 24 437 -32 483 -110C515 -68 583 -23 646 1C728 33 886 43 888 43C895 43 899 39 902 34C911 13 929 -2 978 -11Z"/>
</svg>