<svg xmlns="http://www.w3.org/2000/svg" viewBox="0 -1000 1000 1000">
	<path fill="#000000" d="M963 -15C883 -47 841 -118 810 -195C851 -282 873 -376 896 -469C899 -483 905 -501 921 -505C924 -506 933 -506 933 -511C933 -518 882 -564 874 -571L843 -533H689C690 -594 690 -655 690 -716C750 -726 810 -740 869 -754C885 -758 902 -762 918 -762C927 -762 934 -759 942 -759C945 -759 947 -759 947 -762C947 -769 908 -818 902 -826C838 -785 767 -761 695 -739L644 -785C648 -632 648 -601 648 -517C648 -343 645 -162 570 -2C568 -29 567 -57 567 -84V-307C571 -310 594 -326 594 -331C594 -337 544 -375 537 -381L515 -342H433C436 -400 437 -459 437 -517H626C628 -517 636 -517 636 -521C636 -528 594 -574 588 -581L555 -538H549V-770C553 -774 575 -791 575 -796C575 -803 514 -833 505 -838C506 -805 506 -583 506 -538H437C437 -604 436 -670 435 -736C440 -740 461 -754 461 -760C461 -767 400 -803 391 -809C395 -684 395 -574 395 -505C395 -367 394 -188 358 -63C359 -67 359 -71 359 -75C359 -118 302 -165 271 -187L263 -179C276 -160 288 -140 298 -119L233 -106V-313H293C293 -309 292 -297 292 -286C292 -271 294 -256 301 -256C307 -256 315 -261 320 -264C333 -272 338 -276 338 -292C338 -340 335 -389 335 -438V-586C339 -589 363 -604 363 -609C363 -615 313 -651 306 -657L283 -622H233V-776C238 -779 261 -794 261 -799C261 -806 198 -838 188 -843C191 -794 191 -746 191 -697V-622H131L84 -661C86 -629 87 -597 87 -565V-381C87 -360 84 -269 84 -250C84 -245 85 -237 91 -237C93 -237 129 -251 129 -269V-313H191V-97L34 -66C39 -58 68 -9 74 -9C77 -9 79 -12 81 -14C105 -40 144 -55 178 -64L306 -100C310 -89 312 -78 313 -66C314 -50 316 -35 336 -35C345 -35 353 -49 356 -57C345 -19 329 18 312 54L323 63C410 -70 427 -162 433 -320H525V-52C525 -18 523 17 523 51C523 55 523 61 528 61C540 61 572 47 571 30C647 -73 683 -178 688 -511H710C722 -407 738 -300 768 -199C730 -116 672 -45 611 22L618 34C686 -20 740 -73 785 -148C822 -41 869 21 876 21C879 21 880 18 882 16C897 -3 916 -4 938 -4C947 -4 955 -3 963 -3ZM233 -335V-601H293V-335ZM129 -335V-601H191V-335ZM852 -511C839 -423 822 -334 790 -251C763 -335 746 -424 730 -511Z"/>
</svg>