<svg xmlns="http://www.w3.org/2000/svg" viewBox="0 -1000 1000 1000">
	<path fill="#000000" d="M478 -137H249V-256H478ZM364 -502V-434C364 -411 358 -401 325 -401C305 -401 276 -404 234 -411L232 -396C301 -379 311 -372 319 -341C320 -335 323 -332 326 -332C327 -332 329 -333 331 -334C391 -359 409 -376 409 -405V-752L435 -772C440 -775 443 -778 443 -781C443 -784 440 -786 435 -790L384 -828L356 -791H209L153 -828C155 -794 156 -741 156 -693V-578C156 -477 140 -411 77 -313L90 -306C152 -373 184 -425 195 -502ZM201 -311C203 -281 204 -261 204 -237V-133C204 -123 201 -75 201 -68C201 -64 202 -61 205 -61C209 -61 215 -64 225 -69C245 -80 249 -84 249 -94V-117H478V-6L71 1L107 61C109 64 111 66 113 66C116 66 118 64 122 61C136 49 173 43 275 37L800 7C816 20 828 34 838 48C851 67 864 77 880 77C890 77 903 73 903 50C903 -9 785 -48 678 -75L674 -64C716 -45 749 -28 774 -12L523 -7V-117H746C746 -86 746 -82 752 -82C755 -82 792 -95 792 -110C792 -118 791 -158 791 -166V-245L817 -263C821 -266 823 -269 823 -272C823 -275 821 -278 816 -281L753 -317L728 -276H523V-314C550 -330 553 -332 553 -336C553 -339 550 -342 546 -344L476 -378C477 -353 478 -317 478 -276H256ZM523 -137V-256H746V-137ZM200 -769H364V-656H200ZM364 -524H198L200 -634H364ZM658 -588H533V-746H658ZM702 -588V-746H823V-588ZM487 -814C489 -774 490 -723 490 -695V-448C490 -366 518 -358 706 -358C775 -358 842 -361 879 -365C927 -371 939 -377 962 -417C963 -419 964 -421 964 -423C964 -426 962 -429 958 -431C934 -444 928 -460 931 -525H916C906 -410 896 -414 857 -407C826 -401 761 -398 695 -398C543 -398 533 -407 533 -451V-567H823V-520C823 -512 824 -508 830 -508C833 -508 839 -509 848 -513C869 -522 872 -526 872 -539C872 -557 867 -636 867 -653V-729L896 -747C901 -750 904 -753 904 -756C904 -759 901 -762 896 -766L838 -810L808 -768H544Z"/>
</svg>