<svg xmlns="http://www.w3.org/2000/svg" viewBox="0 -1000 1000 1000">
	<path fill="#000000" d="M897 -773L861 -725H568C606 -790 611 -800 629 -804C637 -806 641 -808 641 -811C641 -814 637 -817 630 -821L574 -849C539 -750 447 -579 415 -524L426 -518C447 -542 476 -581 506 -628C507 -611 507 -589 507 -544V-432C507 -415 502 -327 502 -323C502 -317 504 -314 508 -314C512 -314 519 -317 529 -321C550 -330 550 -333 550 -366H817C817 -341 817 -332 824 -332C827 -332 864 -346 864 -358C864 -370 861 -425 861 -436V-589C884 -607 887 -609 887 -613C887 -616 884 -618 878 -622L827 -655L803 -620H561L520 -649C532 -667 544 -686 556 -705H939C948 -705 953 -706 953 -709C953 -712 950 -717 943 -724ZM550 -500V-600H817V-500ZM550 -386V-480H817V-386ZM309 -227C327 -195 340 -166 348 -138L263 -122V-334H346C346 -295 346 -293 352 -293C356 -293 363 -295 373 -301C391 -311 394 -315 394 -327V-334C391 -379 390 -399 390 -455V-595C414 -614 417 -616 417 -620C417 -623 414 -625 409 -628L357 -661L336 -631H263V-791C292 -812 292 -812 292 -815C292 -818 288 -820 281 -824L217 -855C219 -813 219 -793 219 -706V-631H145L90 -677C92 -646 93 -598 93 -574V-425C93 -383 93 -342 91 -309C91 -304 90 -299 90 -295C90 -284 92 -279 98 -279C102 -279 108 -281 116 -286C136 -297 137 -300 137 -311V-334H219V-114L27 -79L63 -22C66 -18 68 -15 70 -15C72 -15 74 -18 76 -22C84 -37 111 -54 165 -70L352 -124C357 -103 359 -81 360 -59C361 -40 366 -35 380 -35C394 -35 410 -54 410 -83C410 -120 382 -168 319 -234ZM263 -354V-611H346V-354ZM137 -354V-611H219V-354ZM976 6C878 -4 792 -31 720 -79C765 -122 796 -166 822 -206C839 -232 849 -241 864 -244C874 -246 878 -248 878 -251C878 -253 875 -256 868 -261L817 -300L795 -270H600C615 -290 634 -308 644 -312C654 -316 659 -320 659 -323C659 -326 656 -328 649 -332L601 -359C560 -263 478 -145 422 -73L430 -63C474 -98 522 -154 568 -223C589 -175 622 -120 662 -78C577 -6 415 56 311 83L312 95C422 82 589 31 690 -52C777 17 884 58 889 58C892 58 895 56 897 52C910 31 930 22 976 18ZM796 -250C775 -208 738 -152 689 -103C646 -140 606 -187 578 -238C581 -242 583 -246 586 -250Z"/>
</svg>