<svg xmlns="http://www.w3.org/2000/svg" viewBox="0 -1000 1000 1000">
	<path fill="#000000" d="M350 -691L327 -658H259V-785C268 -791 289 -804 289 -806C289 -809 285 -811 279 -814L212 -849C214 -812 216 -744 216 -703V-658H147L95 -701C97 -670 98 -622 98 -598V-417C98 -398 96 -312 96 -295C96 -284 97 -279 102 -279C106 -279 113 -282 122 -288C137 -298 140 -301 140 -313V-354H216V-137L23 -104L57 -50C58 -48 60 -47 62 -47C64 -47 66 -48 69 -52C79 -62 101 -74 149 -88L343 -145C344 -138 345 -131 345 -125C345 -105 352 -91 363 -91C375 -91 392 -107 392 -132C392 -140 391 -185 305 -260L297 -254C319 -222 333 -190 340 -159L259 -145V-354H334C334 -311 334 -309 340 -309C345 -309 351 -312 361 -318C377 -327 380 -331 380 -342V-349C379 -373 378 -401 378 -450V-622C406 -639 409 -640 409 -644C409 -647 407 -650 402 -653ZM259 -375V-637H334V-375ZM140 -375V-637H216V-375ZM907 -818L871 -769H516L457 -813C459 -730 461 -647 461 -545C461 -254 457 -117 282 61L289 69C447 -53 493 -182 500 -487L506 -748H698C694 -706 686 -656 674 -608H619L570 -643C572 -612 573 -564 573 -540V-372C573 -332 572 -297 570 -269C570 -264 569 -260 569 -257C569 -247 571 -243 576 -243C580 -243 586 -246 596 -251C614 -261 614 -265 614 -297H707V-38C707 0 705 17 670 17C651 17 621 11 576 2L574 14C659 38 677 59 679 82C680 87 681 89 684 89C686 89 689 88 692 87C747 64 750 52 750 -28V-297H843V-264C843 -254 844 -248 849 -248C853 -248 860 -251 870 -257C886 -266 889 -270 889 -283V-291C886 -332 885 -351 885 -398V-572L909 -588C914 -591 917 -594 917 -597C917 -600 914 -602 909 -606L853 -647L828 -608H693L754 -748H955C966 -748 971 -750 971 -753C971 -756 967 -760 961 -766ZM614 -472V-587H843V-472ZM614 -318V-451H843V-318ZM785 -181C863 -108 891 -60 909 -12C914 0 925 10 932 10C947 10 959 -9 959 -30C959 -96 833 -166 790 -190ZM589 -203C556 -135 482 -30 414 43L423 51C489 -7 569 -90 606 -136C613 -145 630 -155 644 -156C650 -157 652 -158 652 -161C652 -163 651 -165 647 -167Z"/>
</svg>