<svg xmlns="http://www.w3.org/2000/svg" viewBox="0 -1000 1000 1000">
	<path fill="#000000" d="M513 -613C513 -600 510 -545 510 -533C510 -526 512 -523 516 -523C520 -523 525 -525 532 -528C557 -539 557 -540 557 -571H625V-477H501L441 -520C443 -493 443 -482 443 -459V-340C443 -331 441 -289 441 -281C441 -278 442 -276 446 -276C455 -276 486 -285 486 -303V-323H625V-231H455C438 -231 418 -232 400 -235L427 -199C440 -206 460 -209 476 -209H625V-115H479C462 -115 443 -117 425 -119L454 -83C466 -90 487 -93 503 -93H625V14H378C356 14 341 13 323 10L350 46C363 39 383 36 399 36H955C963 36 967 35 967 32C967 30 964 26 960 22L903 -40L855 14H672V-93H869C874 -93 877 -94 877 -96C877 -98 875 -101 873 -104L819 -170L775 -115H672V-209H897C903 -209 905 -210 905 -213C905 -215 904 -218 900 -222L848 -281L805 -231H672V-323H821C821 -292 821 -289 828 -289C831 -289 836 -290 842 -293C864 -302 868 -304 868 -315C868 -315 866 -371 866 -381V-437L896 -458C900 -461 902 -463 902 -465C902 -467 900 -469 896 -472L834 -517L807 -477H672V-571H733C733 -537 733 -533 741 -533C742 -533 781 -542 781 -558C781 -568 779 -613 779 -623V-686H966C973 -686 976 -687 976 -690C976 -692 974 -695 970 -700L916 -761L873 -708H779V-777L802 -797C807 -800 809 -803 809 -805C809 -807 807 -809 802 -811L730 -843C732 -810 733 -782 733 -757V-708H557V-773L581 -792C586 -796 588 -798 588 -801C588 -803 586 -805 581 -807L510 -841C512 -808 513 -780 513 -755V-708H424C407 -708 388 -709 369 -712L400 -677C414 -683 428 -686 451 -686H513ZM625 -345H486V-455H625ZM672 -345V-455H821V-345ZM733 -593H557V-686H733ZM79 -675C81 -644 82 -598 82 -572V-404C82 -362 81 -315 79 -281V-271C79 -260 81 -255 87 -255C91 -255 97 -257 105 -261C122 -270 125 -275 125 -287V-334H206V-89L23 -57L58 1C60 4 62 5 64 5C66 5 68 3 71 -1C81 -15 133 -40 217 -61L364 -99C365 -96 365 -92 365 -89C365 -51 375 -42 389 -42C403 -42 412 -59 412 -81C412 -131 371 -185 319 -236L310 -226C339 -181 355 -145 361 -116L250 -97V-334H334C334 -298 334 -294 341 -294C350 -294 382 -306 382 -330C382 -346 377 -424 377 -428V-603C406 -622 409 -624 409 -628C409 -630 406 -633 401 -636L340 -671L320 -638H250V-785C275 -805 277 -807 277 -812C277 -815 274 -818 268 -821L202 -850C204 -813 206 -745 206 -704V-638H133ZM206 -356H125V-616H206ZM250 -356V-616H334V-356Z"/>
</svg>