<svg xmlns="http://www.w3.org/2000/svg" viewBox="0 -1000 1000 1000">
	<path fill="#000000" d="M108 -611L61 -650C63 -619 64 -587 64 -548V-381C64 -339 63 -288 61 -256V-251C61 -238 63 -233 69 -233C71 -233 106 -245 106 -263V-310H171V-97L31 -65L66 -15C68 -12 70 -10 72 -10C74 -10 76 -12 79 -15C88 -26 104 -36 194 -69L320 -115C326 -100 329 -88 329 -78C330 -57 337 -48 351 -48C365 -48 376 -63 376 -83C376 -136 288 -201 277 -210L271 -204C289 -176 304 -149 313 -130L214 -107V-310H281V-279C281 -271 282 -267 288 -267C292 -267 298 -269 307 -274C322 -283 326 -287 326 -302V-308C324 -346 323 -382 323 -437V-576L345 -591C349 -594 350 -596 350 -598C350 -601 349 -603 345 -606L293 -646L271 -611H214V-771C239 -789 242 -791 242 -794C242 -796 239 -798 234 -801L167 -834C169 -802 171 -742 171 -690V-611ZM106 -330V-591H171V-330ZM281 -591V-330H214V-591ZM552 -573C552 -531 552 -487 551 -457C551 -450 551 -447 556 -447C559 -447 565 -449 576 -454C592 -460 593 -463 593 -495H662C662 -466 664 -456 672 -456C678 -456 705 -464 705 -479V-482C703 -514 702 -542 702 -574V-646H756V-555C756 -483 766 -475 839 -475C893 -475 924 -487 940 -518C942 -521 942 -524 942 -527C942 -531 941 -535 937 -536C919 -543 911 -552 907 -612H894C891 -521 880 -511 837 -511C809 -511 800 -518 800 -541V-646H946C954 -646 958 -647 958 -651C958 -653 956 -657 951 -663L912 -715L867 -667H800V-775L822 -786C828 -788 830 -790 830 -792C830 -794 828 -797 822 -799L754 -833C756 -808 756 -782 756 -749V-667H702V-789C727 -802 730 -803 730 -806C730 -808 728 -810 723 -812L660 -840C662 -808 662 -780 662 -745V-667H593V-789C622 -808 622 -809 622 -810C622 -812 619 -814 613 -816L550 -841C552 -809 552 -781 552 -746V-667H495V-779C519 -794 522 -796 522 -798C522 -800 519 -802 513 -805L453 -832C457 -785 458 -724 457 -667H407C385 -667 360 -669 338 -671L364 -636C379 -642 408 -646 427 -646H457C452 -524 435 -497 341 -454L348 -439C467 -482 494 -518 495 -646H552ZM662 -517H593V-646H662ZM616 -252V-42C616 -25 614 51 614 64C614 80 616 86 624 86C634 86 662 77 662 57V50C661 32 661 -4 661 -50V-252H783V-69C783 -53 781 -45 760 -45C743 -45 715 -49 668 -58L665 -46C724 -30 745 -10 753 21C754 26 757 29 761 29C763 29 827 11 827 -38V-241C839 -248 858 -259 858 -262C858 -264 855 -266 849 -270L790 -306L766 -273H661V-387H883L839 -301L853 -293C907 -348 929 -362 959 -366C968 -367 972 -370 972 -373C972 -376 970 -379 966 -382L903 -435L876 -409H430L427 -437H414C407 -373 397 -351 374 -330C360 -318 353 -303 353 -292C353 -281 362 -276 375 -276C414 -276 432 -327 432 -365C432 -372 432 -379 431 -387H616V-273H512L460 -321C462 -289 462 -261 462 -226V-119C462 -80 461 -48 459 -17C459 -12 458 -8 458 -5C458 6 460 10 466 10C471 10 477 8 486 4C502 -3 506 -7 506 -19C506 -49 505 -98 505 -128V-252Z"/>
</svg>