<svg xmlns="http://www.w3.org/2000/svg" viewBox="0 -1000 1000 1000">
	<path fill="#000000" d="M132 -633L85 -672C87 -641 88 -608 88 -569V-399C88 -357 87 -305 85 -272V-266C85 -254 87 -248 92 -248C93 -248 131 -260 131 -280V-327H206V-105L29 -66L64 -16C66 -13 68 -11 70 -11C72 -11 74 -13 77 -16C88 -29 138 -53 194 -71L347 -120C350 -110 352 -99 353 -90C356 -68 361 -59 376 -59C385 -59 398 -74 398 -99C398 -113 391 -173 299 -241L293 -235C318 -200 334 -166 343 -136L249 -115V-327H326V-296C326 -288 328 -283 333 -283C338 -283 344 -286 353 -291C368 -300 372 -304 372 -319V-325C370 -364 369 -400 369 -456V-597L391 -613C395 -616 397 -618 397 -620C397 -623 395 -625 391 -628L339 -668L316 -633H249V-785C278 -805 278 -805 278 -808C278 -811 275 -813 270 -816L202 -849C204 -817 206 -756 206 -703V-633ZM131 -348V-612H206V-348ZM326 -612V-348H249V-612ZM680 -539L717 -501C720 -498 722 -497 723 -497C726 -497 728 -499 730 -504C737 -516 756 -539 783 -564L851 -628V-471C851 -458 852 -452 858 -452C861 -452 900 -467 900 -479V-481C896 -518 894 -557 894 -603V-760C915 -774 918 -775 918 -781C918 -784 916 -788 911 -791L866 -824L844 -792H739C717 -792 698 -793 674 -796L701 -760C717 -767 740 -771 760 -771H851V-643ZM686 -725C712 -695 723 -668 728 -640C732 -623 738 -619 748 -619C759 -619 768 -630 768 -655C768 -678 753 -697 693 -731ZM379 -495L419 -461C421 -459 423 -458 425 -458C428 -458 430 -460 433 -464C443 -481 457 -498 481 -519L593 -621V-537C593 -532 594 -529 598 -529C598 -529 637 -540 637 -556C637 -569 634 -627 634 -639V-752C656 -765 658 -767 658 -772C658 -775 656 -778 652 -782L605 -821L582 -789H451C429 -789 405 -791 381 -793L408 -757C424 -764 452 -768 472 -768H593V-642ZM852 -178C746 -70 586 11 372 71L378 86C549 55 718 -19 857 -113C864 -118 879 -121 893 -119C895 -119 899 -119 899 -122C899 -123 898 -126 896 -128ZM769 -277C679 -185 548 -105 411 -46L419 -31C527 -65 646 -126 774 -212C780 -217 797 -220 809 -221C814 -222 816 -223 816 -225C816 -227 815 -229 812 -232ZM670 -369C591 -279 532 -231 435 -171L441 -160C508 -187 561 -216 674 -306C680 -311 692 -315 703 -316C710 -317 713 -319 713 -322C713 -323 711 -326 709 -328ZM980 -323C899 -328 794 -364 668 -481C672 -483 676 -484 681 -485C686 -486 689 -488 689 -491C689 -493 687 -496 683 -499L635 -533C593 -459 458 -315 345 -240L351 -230C438 -273 516 -329 656 -472C763 -332 899 -275 902 -275C906 -275 909 -276 912 -280C926 -298 945 -308 979 -312ZM416 -721C445 -688 460 -662 466 -633C470 -615 476 -611 487 -611C498 -611 508 -621 508 -649C508 -666 492 -690 423 -727Z"/>
</svg>