<svg xmlns="http://www.w3.org/2000/svg" viewBox="0 -1000 1000 1000">
	<path fill="#000000" d="M454 -819C456 -790 457 -745 457 -722V-523C457 -507 454 -424 454 -422C454 -414 456 -411 461 -411C465 -411 470 -412 479 -416C498 -424 500 -427 500 -439V-457H647V-335H509C486 -335 461 -337 436 -339L464 -303C481 -310 510 -314 531 -314H647V-198H467C444 -198 419 -200 394 -202L422 -166C439 -173 468 -177 489 -177H954C962 -177 966 -179 966 -183C966 -187 963 -191 957 -197L901 -247L865 -198H691V-314H898C907 -314 911 -316 911 -320C911 -323 908 -328 901 -334L849 -382L814 -335H691V-457H853C853 -426 853 -422 859 -422C863 -422 870 -424 880 -429C897 -437 900 -441 900 -451V-457C898 -482 897 -520 897 -547V-734L927 -754C933 -759 935 -762 935 -764C935 -767 933 -770 927 -774L865 -818L840 -775H513ZM647 -478H500V-754H647ZM691 -478V-754H853V-478ZM520 -680C545 -644 559 -596 564 -555C567 -533 570 -527 578 -527C593 -527 616 -539 616 -571C616 -609 564 -661 528 -690ZM85 -676C87 -645 88 -599 88 -573V-411C88 -369 87 -322 85 -288V-278C85 -267 87 -262 93 -262C97 -262 103 -264 111 -268C128 -277 133 -282 133 -294V-341H214V-99L37 -66L72 -6C74 -3 76 -2 78 -2C80 -2 82 -4 85 -8C95 -22 140 -44 225 -68L370 -109C371 -101 372 -93 372 -86C372 -48 378 -39 396 -39C410 -39 425 -66 425 -90C425 -134 386 -181 332 -233L321 -223C346 -186 359 -154 366 -128L258 -107V-341H338V-302C338 -293 339 -288 345 -288C354 -288 386 -300 386 -324V-329C383 -374 381 -410 381 -461V-604L405 -620C410 -623 413 -626 413 -628C413 -631 410 -633 405 -637L348 -676L324 -639H258V-788C283 -808 285 -810 285 -815C285 -818 282 -821 276 -824L210 -853C212 -816 214 -748 214 -707V-639H139ZM214 -363H133V-617H214ZM258 -363V-617H338V-363ZM785 -693C761 -630 740 -582 708 -517L722 -511C805 -630 817 -640 837 -643C842 -644 845 -646 845 -648C845 -651 843 -653 839 -656ZM498 -128C482 -64 456 -27 403 8C384 21 377 34 377 45C377 61 395 68 407 68C421 68 437 61 453 45C484 14 500 -31 512 -127ZM565 -116C591 -72 600 -39 600 10C600 40 606 47 618 47C639 47 654 29 654 1C654 -25 644 -54 575 -121ZM819 -116C862 -78 897 -25 906 17C912 44 922 49 934 49C949 49 961 34 961 13C961 3 959 -8 953 -19C937 -50 888 -90 827 -125ZM694 -117C724 -78 744 -29 750 11C753 34 760 41 770 41C785 41 801 21 801 -6C801 -11 801 -17 799 -23C793 -46 758 -86 704 -124Z"/>
</svg>