<svg xmlns="http://www.w3.org/2000/svg" viewBox="0 -1000 1000 1000">
	<path fill="#000000" d="M285 -237C312 -205 331 -166 341 -132L239 -113V-360H307V-330C307 -322 308 -317 314 -317C318 -317 324 -319 334 -323C352 -331 356 -335 356 -345C356 -349 355 -352 355 -357C352 -402 350 -440 350 -496V-616C360 -622 377 -633 377 -635C377 -638 375 -640 370 -643L323 -676L301 -644H239V-795C272 -810 274 -810 274 -813C274 -816 269 -819 261 -823L192 -859C194 -822 196 -754 196 -713V-644H143L82 -692C84 -661 85 -613 85 -589V-439C85 -397 84 -345 82 -312C82 -305 81 -300 81 -295C81 -284 83 -280 89 -280C93 -280 100 -282 109 -286C126 -293 128 -299 128 -311V-360H196V-104L28 -71L59 -21C61 -18 63 -16 65 -16C67 -16 69 -18 72 -21C81 -33 98 -45 128 -53L345 -114C345 -108 351 -69 372 -69C384 -69 401 -84 401 -111C401 -168 304 -241 295 -248ZM128 -382V-622H196V-382ZM239 -382V-622H307V-382ZM935 -150L890 8C833 -13 787 -44 748 -96C772 -120 796 -146 818 -175C831 -191 846 -203 862 -205C869 -206 872 -208 872 -211C872 -213 869 -216 863 -220L810 -251C787 -206 759 -166 726 -131C704 -170 688 -217 677 -271H927C937 -271 942 -273 942 -277C942 -280 938 -286 931 -293L884 -341L850 -293H672C658 -384 652 -466 649 -787L674 -802C679 -805 681 -807 681 -809C681 -811 679 -814 674 -816L604 -852C609 -717 612 -592 615 -514C619 -422 624 -351 633 -293H501C501 -305 502 -317 502 -330L529 -344C534 -347 537 -349 537 -351C537 -353 534 -356 529 -358L462 -390V-293H407C385 -293 360 -295 335 -297L363 -261C380 -267 408 -271 429 -271H461C453 -58 406 -5 282 73L290 86C431 14 479 -31 495 -202C528 -171 552 -136 565 -102C572 -84 582 -78 589 -78C600 -78 614 -98 614 -119C614 -162 513 -214 497 -222L500 -271H637C651 -196 671 -146 697 -100C634 -39 555 12 455 58L460 72C570 35 649 -8 718 -68C758 -13 815 28 890 56C919 68 934 72 943 72C946 72 954 72 954 64C954 59 952 49 946 38C942 29 939 14 939 -13C939 -42 942 -84 951 -146ZM815 -521C828 -505 838 -487 847 -470L737 -454C792 -535 831 -592 851 -621C861 -636 866 -640 889 -648C896 -650 899 -653 899 -655C899 -657 897 -660 892 -662L837 -694C827 -667 815 -640 801 -612L717 -604C764 -685 784 -718 798 -750C806 -765 814 -770 837 -776C842 -777 845 -779 845 -781C845 -784 842 -786 836 -790L778 -825C766 -773 749 -718 731 -673C718 -641 701 -622 660 -608L691 -563C692 -561 694 -560 697 -560C699 -560 701 -561 703 -562C719 -573 749 -585 795 -596C785 -572 773 -549 760 -524C736 -479 724 -467 675 -452L706 -412C708 -409 710 -408 713 -408C715 -408 717 -409 720 -411C735 -421 802 -443 855 -455C861 -440 866 -428 868 -419C872 -403 878 -396 886 -396C894 -396 911 -415 911 -437C911 -463 875 -495 824 -532ZM508 -514C520 -491 529 -471 536 -455L446 -441C497 -524 540 -596 558 -627C568 -645 574 -651 591 -657C597 -659 600 -661 600 -663C600 -666 598 -668 593 -671L538 -702C528 -667 519 -638 503 -602L413 -592C435 -628 497 -738 503 -750C509 -763 515 -770 532 -775C539 -777 542 -780 542 -782C542 -784 540 -787 536 -789L483 -820C470 -770 454 -724 418 -644C405 -614 396 -605 363 -595L396 -557C399 -553 402 -552 404 -552C405 -552 407 -553 408 -554C435 -569 461 -576 495 -579C488 -561 479 -541 467 -518C439 -460 422 -448 385 -437L415 -400C417 -398 419 -396 422 -396C424 -396 426 -397 429 -399C448 -412 494 -428 542 -440C547 -424 550 -412 551 -401C553 -385 558 -377 568 -377C580 -377 595 -398 595 -418C595 -451 550 -493 518 -520ZM740 -404C766 -374 779 -349 783 -336C788 -320 793 -315 799 -315C807 -315 820 -329 820 -347C820 -380 766 -405 746 -413Z"/>
</svg>