<svg xmlns="http://www.w3.org/2000/svg" viewBox="0 -1000 1000 1000">
	<path fill="#000000" d="M475 -525C478 -485 478 -447 478 -424H261V-464C273 -470 294 -480 294 -482C294 -485 291 -487 283 -490L218 -520C222 -483 222 -474 222 -436L195 -413L245 -384C248 -382 251 -381 253 -381C256 -381 258 -383 261 -386L277 -406H478V-308H198V-359C202 -362 226 -375 226 -377C226 -379 223 -381 218 -383L153 -410C157 -381 157 -365 157 -325L121 -301L176 -266C180 -264 182 -262 185 -262C187 -262 189 -264 192 -268L210 -290H476C477 -269 478 -247 478 -214H253L262 -217L200 -259C202 -229 203 -209 203 -185V-113C203 -103 200 -55 200 -48C200 -44 201 -41 204 -41C208 -41 214 -44 224 -49C244 -60 244 -63 244 -87H478V-6L71 0L107 60C109 63 111 65 113 65C116 65 118 63 122 60C136 48 173 39 241 36L773 8C796 23 813 39 826 54C840 71 851 80 864 80C883 80 886 63 886 53C886 -4 773 -42 655 -59L652 -50C689 -37 718 -24 743 -10L523 -7V-87H763V-61C763 -56 763 -52 767 -52C770 -52 774 -54 783 -59C801 -69 805 -72 805 -80C805 -88 804 -128 804 -136V-183C829 -206 832 -209 832 -213C832 -216 830 -218 825 -221L766 -255L741 -214H523V-257C545 -269 547 -270 547 -273C547 -275 545 -276 541 -277L499 -290H794V-259C794 -248 794 -247 797 -247C800 -247 805 -249 815 -253C836 -260 841 -263 841 -272C841 -280 836 -316 836 -323V-342C868 -356 872 -357 872 -360C872 -362 868 -364 861 -367L790 -397C793 -364 794 -340 794 -308H524V-406H741V-376C741 -373 741 -371 744 -371C746 -371 751 -373 761 -377C782 -384 785 -387 785 -397C785 -398 782 -443 782 -452V-471C812 -484 815 -486 815 -489C815 -491 813 -493 808 -495L737 -523C741 -469 741 -463 741 -424H524V-481C534 -485 558 -496 558 -499C558 -502 554 -504 545 -508L503 -525H886L833 -458L842 -451C894 -494 923 -506 955 -506C974 -506 975 -506 975 -510C975 -512 973 -515 970 -518L906 -571L876 -540H522V-593H751C751 -571 751 -569 757 -569C758 -569 793 -577 793 -591C793 -596 792 -619 792 -624V-676C815 -686 817 -687 817 -692C817 -695 815 -698 810 -701L762 -728L740 -698H522V-749H900C902 -749 903 -751 903 -753C903 -755 902 -757 901 -758L841 -815L808 -767H522V-788L549 -806C553 -808 555 -810 555 -812C555 -815 552 -817 548 -819L476 -852C478 -815 480 -791 480 -767H172C149 -767 124 -769 99 -771L127 -738C144 -745 171 -749 194 -749H480V-698H262L219 -727C220 -715 221 -702 221 -688V-607C221 -601 220 -573 220 -568C220 -564 221 -562 225 -562C237 -562 260 -573 262 -593H480V-540H128C129 -555 129 -572 129 -593H116C108 -540 88 -500 59 -475C49 -466 45 -458 45 -451C45 -442 53 -433 69 -433C94 -433 123 -457 127 -525ZM478 -107H244V-194H478ZM523 -107V-194H763V-107ZM262 -609V-682H480V-609ZM751 -682V-609H522V-682Z"/>
</svg>