<svg xmlns="http://www.w3.org/2000/svg" viewBox="0 -1000 1000 1000">
	<path fill="#000000" d="M769 -224V-134H564V-224ZM519 -114V-21L162 -15L198 45C200 48 202 50 204 50C207 50 209 48 213 45C227 33 264 24 332 21L818 -8C835 5 848 17 859 30C876 50 887 55 905 55C913 55 919 44 919 30C919 -37 772 -68 688 -83L685 -74C730 -57 763 -41 790 -26L564 -22V-114H769C769 -95 769 -92 775 -92C778 -92 815 -105 815 -120C815 -128 814 -168 814 -176V-213C839 -236 842 -239 842 -243C842 -246 840 -248 835 -251L780 -283L751 -244H564V-293C586 -305 588 -306 588 -310C588 -313 586 -316 582 -318L517 -346C518 -320 519 -288 519 -244H323L268 -279C270 -249 271 -229 271 -205V-130C271 -120 268 -72 268 -65C268 -61 269 -58 272 -58C276 -58 282 -61 292 -66C312 -77 316 -81 316 -91V-114ZM519 -224V-134H316V-224ZM940 -760C948 -760 953 -761 953 -765C953 -768 949 -773 942 -779L875 -839L839 -782H199L133 -832C134 -784 134 -722 134 -658C134 -183 115 -95 21 50L32 61C138 -67 163 -146 175 -400C180 -500 183 -651 183 -760ZM280 -730C306 -702 315 -690 321 -659C324 -644 329 -639 334 -639C348 -639 362 -649 362 -670C362 -701 345 -711 288 -741ZM266 -630C243 -630 218 -632 193 -634L221 -599C238 -606 267 -610 288 -610H387C387 -597 389 -472 381 -449H294V-522C312 -537 314 -538 314 -542C314 -544 310 -547 304 -550L252 -576C254 -539 254 -523 254 -491V-451L226 -427L265 -402C269 -399 272 -398 274 -398C279 -398 281 -401 299 -429H376C355 -375 298 -312 194 -263L200 -251C315 -293 391 -360 415 -429H515C515 -398 515 -395 522 -395C527 -395 557 -404 557 -420C557 -420 555 -464 555 -472V-527C575 -542 578 -544 578 -547C578 -549 575 -551 568 -554L512 -576C514 -543 515 -523 515 -505V-449H420C422 -464 428 -536 426 -610H611C621 -610 626 -612 626 -616C626 -618 623 -622 619 -626L570 -674L542 -630H460C512 -693 526 -699 537 -700C546 -701 550 -702 550 -704C550 -706 547 -709 540 -713L492 -742C482 -712 467 -674 442 -630ZM961 -328C862 -357 805 -396 767 -553C788 -559 792 -560 792 -564C792 -567 789 -569 783 -571L720 -590C705 -407 663 -349 569 -280L575 -270C698 -339 731 -391 757 -525C776 -407 811 -346 865 -300C873 -293 876 -292 883 -300C897 -316 918 -320 961 -319ZM686 -743C669 -664 632 -573 587 -489L600 -482C640 -538 665 -580 687 -623H860L818 -536L831 -531C881 -593 903 -606 930 -606C932 -606 942 -605 944 -605C948 -605 950 -606 950 -608C950 -610 948 -614 943 -619L885 -677L847 -643H697C704 -657 710 -671 717 -686C721 -694 728 -702 742 -706C749 -708 752 -710 752 -713C752 -716 748 -719 740 -722Z"/>
</svg>