<svg xmlns="http://www.w3.org/2000/svg" viewBox="0 -1000 1000 1000">
	<path fill="#000000" d="M843 7V72C843 80 844 84 849 84C852 84 858 81 867 77C887 67 891 63 891 51V45C889 13 888 -20 888 -73V-252L925 -268C928 -269 929 -270 929 -272C929 -274 928 -276 924 -279L862 -332L833 -295H481L424 -344C425 -326 426 -294 426 -279V-64C426 -43 424 48 424 67C424 78 425 83 431 83C434 83 440 80 448 76C467 66 471 62 471 44V7ZM680 -273H843V-161H680ZM843 -15H680V-139H843ZM634 -15H471V-139H634ZM471 -273H634V-161H471ZM240 -361V-621H319V-361ZM76 -680C78 -649 79 -603 79 -577V-409C79 -367 78 -320 76 -286V-276C76 -265 78 -260 84 -260C88 -260 94 -262 102 -266C119 -275 122 -280 122 -292V-339H197V-93L22 -62L57 -4C59 -1 61 0 63 0C65 0 67 -2 70 -6C80 -20 132 -45 216 -66L355 -103C356 -96 357 -90 357 -84C357 -46 367 -37 381 -37C395 -37 404 -54 404 -76C404 -126 363 -180 311 -231L302 -221C328 -181 344 -147 351 -119L240 -100V-339H319V-300C319 -291 320 -286 326 -286C335 -286 367 -298 367 -322C367 -339 362 -423 362 -429V-608C391 -627 394 -629 394 -633C394 -635 391 -638 386 -641L325 -676L305 -643H240V-780C265 -800 268 -802 268 -807C268 -810 264 -813 258 -816L193 -845C195 -808 197 -740 197 -699V-643H130ZM197 -361H122V-621H197ZM468 -641C468 -653 466 -667 465 -681L451 -683C451 -633 426 -571 395 -551C388 -547 382 -537 382 -527C382 -513 396 -501 408 -501C410 -501 467 -509 469 -619H897L853 -520L865 -511C928 -598 944 -607 981 -610C986 -611 988 -612 988 -615C988 -617 986 -620 982 -623L915 -676L889 -641H681V-780C711 -796 714 -797 714 -804C714 -809 711 -813 704 -817L633 -853C635 -819 636 -758 636 -721V-641ZM760 -515V-409H545V-515ZM760 -387V-348C760 -340 761 -335 766 -335C769 -335 775 -337 783 -341C802 -350 806 -353 806 -367C806 -376 804 -416 804 -424V-502L831 -516C835 -518 837 -520 837 -522C837 -525 834 -528 828 -532L776 -570L750 -537H556L498 -586C500 -555 501 -507 501 -483V-426C501 -415 499 -365 499 -355C499 -345 500 -340 506 -340C509 -340 514 -342 522 -346C543 -356 545 -359 545 -371V-387ZM431 -796C487 -755 510 -716 512 -698C515 -669 524 -654 534 -654C556 -654 570 -679 570 -701C570 -713 567 -724 559 -731C533 -756 495 -781 438 -806ZM833 -805C802 -746 778 -705 745 -660L759 -651C849 -743 866 -756 895 -756C900 -756 902 -758 902 -760C902 -762 901 -764 898 -766Z"/>
</svg>