<svg xmlns="http://www.w3.org/2000/svg" viewBox="0 -1000 1000 1000">
	<path fill="#000000" d="M335 -469C335 -445 335 -439 344 -439C358 -439 382 -449 382 -469V-473C379 -504 378 -533 378 -562V-743C405 -757 408 -758 408 -762C408 -764 406 -767 400 -771L353 -804L331 -770H166L113 -809C115 -785 115 -766 115 -730V-530C115 -514 112 -444 112 -432C112 -428 113 -426 117 -426C130 -426 157 -437 157 -460V-469ZM335 -582H157V-659H335ZM157 -753H335V-677H157ZM335 -564V-486H157V-564ZM212 -297C214 -266 215 -247 215 -223V-135C215 -125 213 -70 213 -68C213 -60 215 -56 220 -56C225 -56 232 -58 243 -63C261 -71 262 -74 262 -86V-110H477V-4L89 8L127 68C129 72 131 73 133 73C135 73 138 72 141 69C154 58 207 46 348 36L791 4C804 17 816 31 827 46C844 69 851 74 860 74C866 74 880 74 880 45C880 -16 802 -51 663 -98L660 -86C709 -60 749 -32 772 -13L523 -5V-110H740C740 -86 740 -84 747 -84C751 -84 790 -94 790 -108C790 -117 787 -157 787 -165V-229L815 -245C821 -249 824 -251 824 -254C824 -256 821 -259 816 -262L751 -304L723 -258H523V-292C528 -295 551 -309 551 -312C551 -314 549 -316 544 -318L474 -353C476 -319 477 -289 477 -258H268ZM477 -131H262V-237H477ZM523 -131V-237H740V-131ZM567 -313C633 -346 689 -381 735 -420C765 -370 806 -335 868 -310C908 -294 924 -288 932 -288C941 -288 942 -296 942 -300C942 -306 939 -314 932 -325C923 -341 917 -370 917 -412C917 -424 917 -436 918 -449L907 -450L882 -356C831 -375 794 -403 766 -447C808 -486 840 -528 864 -573C873 -591 878 -597 894 -601C900 -603 903 -605 903 -607C903 -609 900 -611 896 -613L844 -646C822 -579 790 -525 749 -479C726 -529 712 -596 708 -676H943C950 -676 954 -677 954 -681C954 -683 951 -687 946 -692L897 -742L857 -695H707C705 -722 704 -752 705 -788L726 -800C729 -802 731 -804 731 -805C731 -808 728 -810 724 -812L662 -840C660 -799 662 -740 665 -695H466C447 -695 427 -697 407 -699L430 -667C443 -673 466 -676 483 -676H666C672 -601 680 -533 720 -448C680 -408 637 -375 563 -327ZM764 -803C812 -783 827 -767 836 -743C839 -735 847 -732 852 -732C860 -732 873 -744 873 -763C873 -794 848 -811 766 -813ZM551 -599C571 -611 573 -613 573 -616C573 -618 571 -620 567 -622L508 -651C510 -628 510 -615 510 -545H455C437 -545 417 -547 397 -548L419 -517C433 -522 451 -525 467 -525H508C502 -446 474 -381 393 -311L402 -304C504 -373 537 -411 546 -525H657C664 -525 668 -527 668 -531C668 -534 665 -538 661 -542L617 -585L583 -545H548ZM37 -284C105 -319 159 -350 201 -383C208 -389 221 -391 232 -392C237 -393 240 -394 240 -396C240 -398 238 -400 236 -403L197 -443C151 -390 101 -346 31 -295ZM256 -421C308 -393 340 -356 352 -337C359 -325 365 -321 371 -321C382 -321 393 -342 393 -358C393 -397 320 -423 259 -434Z"/>
</svg>