<svg xmlns="http://www.w3.org/2000/svg" viewBox="0 -1000 1000 1000">
	<path fill="#000000" d="M516 -155V-264H678V-155ZM531 -516C475 -404 432 -333 346 -220L357 -212C400 -253 431 -286 475 -344V-10C475 3 471 66 471 73C471 80 473 84 479 84C483 84 489 82 498 79C514 73 517 70 517 59C517 50 516 12 516 4H948C957 4 961 3 961 0C961 -3 958 -7 952 -13L901 -64L865 -13H721V-138H910C919 -138 923 -139 923 -142C923 -144 920 -148 914 -154L870 -199L833 -155H721V-264H908C917 -264 922 -265 922 -268C922 -271 918 -275 912 -281L865 -324L833 -281H721V-390H930C939 -390 944 -391 944 -394C944 -397 940 -401 934 -407L884 -453L848 -407H521C530 -419 539 -432 548 -446C559 -462 570 -470 579 -472C587 -474 591 -476 591 -479C591 -482 589 -484 584 -487ZM516 -13V-138H678V-13ZM678 -281H516V-390H678ZM88 -652C90 -621 91 -575 91 -549V-387C91 -345 90 -298 88 -264V-254C88 -243 90 -238 96 -238C100 -238 106 -240 114 -244C131 -253 134 -258 134 -270V-317H207V-72L32 -40L67 18C69 21 71 22 73 22C75 22 77 20 80 16C90 2 142 -23 226 -44L367 -83C368 -76 369 -69 369 -62C369 -24 379 -15 393 -15C407 -15 416 -32 416 -54C416 -104 375 -158 323 -209L314 -199C340 -159 357 -123 363 -99L251 -80V-317H323V-278C323 -269 324 -264 330 -264C339 -264 371 -276 371 -300V-305C368 -350 366 -397 366 -437V-580C395 -599 398 -601 398 -605C398 -607 395 -610 390 -613L329 -648L309 -615H251V-762C276 -782 278 -784 278 -789C278 -792 275 -795 269 -798L203 -827C205 -790 207 -722 207 -681V-615H142ZM207 -339H134V-593H207ZM251 -339V-593H323V-339ZM655 -500C676 -486 692 -464 698 -435C701 -419 705 -414 721 -414C732 -414 742 -429 742 -446C742 -460 742 -482 660 -511ZM440 -725C466 -701 478 -680 489 -648C495 -630 498 -627 509 -627C518 -627 527 -643 527 -659C527 -686 495 -708 446 -732ZM689 -723C717 -704 737 -680 747 -652C752 -639 757 -636 766 -636C776 -636 786 -650 786 -664C786 -670 784 -676 781 -681C771 -696 741 -715 694 -733ZM678 -563L722 -532C724 -531 725 -531 726 -531C729 -531 731 -532 733 -535C743 -551 761 -568 770 -574L856 -632V-506C856 -497 857 -492 864 -492C868 -492 873 -494 882 -497C899 -504 903 -507 903 -516V-520C900 -545 899 -573 899 -614V-746L929 -764C933 -766 935 -769 935 -771C935 -773 933 -775 929 -778L869 -822L843 -783H750C728 -783 704 -783 679 -785L707 -760C723 -764 751 -766 772 -766H856V-647ZM396 -549L441 -518C442 -516 444 -515 445 -515C447 -515 449 -517 450 -519C456 -533 472 -549 485 -557L599 -631V-514C599 -504 600 -499 606 -499C610 -499 616 -501 625 -505C642 -513 645 -515 645 -523V-528C642 -553 641 -581 641 -622V-747L667 -761C671 -763 673 -765 673 -767C673 -770 671 -772 667 -775L613 -819L588 -782H452C430 -782 406 -782 381 -784L409 -759C425 -763 453 -765 474 -765H599V-646Z"/>
</svg>