<svg xmlns="http://www.w3.org/2000/svg" viewBox="0 -1000 1000 1000">
	<path fill="#000000" d="M521 -473C523 -442 524 -418 524 -384V-322C524 -280 524 -265 522 -234C522 -229 521 -225 521 -221C521 -212 523 -208 528 -208C531 -208 534 -209 539 -211C560 -218 562 -218 562 -239H825C825 -215 825 -213 832 -213C842 -213 866 -221 866 -240C866 -248 863 -308 863 -321V-397C885 -409 888 -410 888 -414C888 -418 886 -421 881 -424L829 -458L810 -430H571ZM674 -327V-257H562V-327ZM674 -344H562V-412H674ZM712 -344V-412H825V-344ZM712 -257V-327H825V-257ZM495 -211C496 -189 498 -138 498 -113V9C448 9 447 9 397 5L425 39C442 32 470 28 491 28H954C962 28 965 27 965 25C965 23 963 20 958 15L914 -31L882 9H872V-140C900 -156 900 -156 900 -159C900 -161 898 -164 893 -168L848 -204L820 -172H545ZM721 9H647V-154H721ZM609 9H536V-154H609ZM759 9V-154H834V9ZM126 -633L80 -672C82 -641 83 -608 83 -569V-399C83 -357 82 -305 80 -272V-266C80 -254 82 -248 87 -248C88 -248 124 -260 124 -280V-327H196V-106L26 -66L60 -16C62 -13 64 -11 66 -11C68 -11 70 -13 72 -16C83 -29 131 -53 185 -71L321 -117C323 -110 324 -103 324 -98C325 -76 331 -67 346 -67C356 -67 372 -91 372 -117C372 -149 339 -183 286 -225L278 -217C297 -185 310 -157 317 -134L238 -115V-327H307V-296C307 -288 309 -283 314 -283C318 -283 324 -286 333 -291C347 -300 351 -304 351 -319C351 -341 349 -436 349 -456V-597C355 -601 375 -617 375 -620C375 -623 373 -625 370 -628L320 -668L298 -633H238V-785C263 -803 265 -804 265 -808C265 -811 263 -813 258 -816L192 -849C194 -817 196 -756 196 -703V-633ZM124 -348V-612H196V-348ZM307 -612V-348H238V-612ZM659 -792C686 -810 689 -812 689 -816C689 -818 686 -821 679 -824L617 -852C620 -816 621 -771 621 -730V-670H469L415 -717C416 -630 417 -555 417 -487C417 -147 414 -89 306 68L319 76C426 -42 450 -98 454 -302C456 -397 458 -522 459 -651H626C628 -623 628 -597 628 -568L544 -561C532 -560 519 -559 505 -559C494 -559 482 -560 468 -561L500 -529C514 -536 534 -539 560 -541L628 -547C629 -486 640 -475 684 -473C719 -472 775 -471 828 -471C907 -471 913 -471 936 -495C939 -498 941 -500 941 -503C941 -506 939 -508 934 -512C927 -517 922 -532 922 -561C922 -569 922 -578 923 -588H909C902 -526 893 -504 867 -503C840 -502 811 -502 783 -502C669 -502 667 -502 666 -550L820 -563C828 -564 833 -566 833 -570C833 -573 830 -577 824 -582L783 -618L756 -579L666 -571V-605C688 -618 690 -619 690 -624C690 -627 687 -630 681 -632L633 -651H880L842 -578L854 -570C902 -627 924 -641 953 -643C960 -644 963 -645 963 -649C963 -651 961 -654 957 -658L906 -704L879 -670H659V-737H918C926 -737 930 -738 930 -741C930 -743 927 -747 922 -753L882 -796L845 -756H659Z"/>
</svg>