<svg xmlns="http://www.w3.org/2000/svg" viewBox="0 -1000 1000 1000">
	<path fill="#000000" d="M388 -219C365 -219 342 -221 317 -223L345 -191C362 -198 389 -202 410 -202H553C466 -108 399 -58 266 16L273 28C371 -16 432 -52 484 -91V5C484 35 480 40 449 52L485 87C488 90 490 91 492 91C494 91 496 89 498 86C504 73 560 31 667 -35L661 -48L527 14V-126L608 -202H623C673 -77 737 -4 871 62C873 63 875 63 876 63C880 63 883 61 885 56C891 41 920 29 976 24V13C858 1 794 -19 730 -76C820 -119 866 -133 889 -133C904 -133 906 -133 906 -137C906 -139 903 -142 897 -146L848 -180C827 -159 773 -117 721 -83C699 -105 668 -153 642 -202H979C983 -202 986 -203 986 -204C986 -205 984 -207 981 -210L926 -261L892 -219H745V-299H912C916 -299 918 -300 918 -301C918 -302 917 -304 914 -307L866 -355L832 -313H745V-388H931C936 -388 938 -390 938 -392C938 -395 937 -397 934 -400L885 -451L846 -406H745V-435C767 -449 770 -451 770 -454C770 -456 767 -459 763 -461L709 -485C714 -490 717 -497 718 -510H833C833 -483 833 -480 839 -480C847 -480 876 -489 876 -507C876 -522 874 -545 874 -559V-604L896 -616C901 -619 903 -621 903 -623C903 -626 901 -629 896 -632L851 -664L830 -635H716L676 -663C678 -637 678 -618 678 -595V-552C678 -533 675 -501 675 -482C675 -476 677 -473 681 -473C685 -473 691 -475 700 -479C702 -456 703 -432 703 -406H556V-427C580 -441 583 -443 583 -446C583 -449 581 -451 576 -453L511 -481C514 -455 515 -434 515 -406H419C396 -406 373 -408 348 -410L376 -377C393 -384 420 -388 441 -388H515V-313H449C426 -313 403 -315 378 -317L406 -288C423 -295 450 -299 471 -299H515V-219ZM703 -299V-219H556V-299ZM703 -388V-313H556V-388ZM718 -524V-621H833V-524ZM113 -602L65 -641C67 -610 68 -577 68 -538V-368C68 -326 67 -274 65 -241V-235C65 -223 67 -217 72 -217C73 -217 111 -229 111 -249V-296H177V-70L21 -35L56 15C58 18 60 20 62 20C64 20 66 18 69 15C80 2 130 -22 186 -40L325 -85C326 -80 327 -75 327 -71C328 -49 335 -40 350 -40C359 -40 372 -56 372 -79C372 -87 370 -96 366 -105C358 -124 334 -152 283 -190L273 -182C296 -151 311 -124 320 -102L215 -79V-296H283V-265C283 -257 285 -252 290 -252C295 -252 301 -255 310 -260C325 -269 329 -273 329 -288V-294C327 -333 326 -369 326 -425V-566L348 -582C352 -585 354 -587 354 -589C354 -592 352 -594 348 -597L296 -637L273 -602H215V-754C244 -774 244 -774 244 -777C244 -780 241 -782 236 -785L173 -818C175 -786 177 -725 177 -672V-602ZM111 -317V-581H177V-317ZM283 -581V-317H215V-581ZM398 -669C400 -643 400 -624 400 -601V-542C400 -523 398 -493 398 -474C398 -465 401 -461 407 -461C410 -461 414 -462 419 -464C439 -472 442 -475 442 -485V-508H558C558 -481 558 -478 564 -478C569 -478 601 -487 601 -500C601 -515 599 -540 599 -555V-605C619 -618 621 -619 621 -623C621 -625 619 -628 615 -631L570 -663L554 -634H445ZM442 -522V-620H558V-522ZM560 -842C594 -815 611 -777 615 -751C618 -733 622 -728 634 -728C652 -728 667 -749 667 -769C667 -785 658 -819 565 -850ZM905 -778L867 -724H396C373 -724 353 -726 328 -728L356 -695C373 -702 397 -706 418 -706H959C966 -706 969 -708 969 -711C969 -714 967 -717 962 -722Z"/>
</svg>