<svg xmlns="http://www.w3.org/2000/svg" viewBox="0 -1000 1000 1000">
	<path fill="#000000" d="M292 -159L231 -147V-636H292ZM138 -656L85 -696V-117L28 -106L60 -54C61 -52 63 -51 65 -51C67 -51 70 -52 73 -55C89 -69 103 -75 133 -83L516 -190L513 -204L443 -190V-230C526 -334 585 -433 644 -556V-96C644 -42 642 10 639 67V74C639 86 640 91 647 91C651 91 659 88 671 82C692 71 696 68 696 53V48C693 3 692 -49 692 -106V-512C715 -526 717 -527 717 -531C717 -534 715 -537 710 -540L653 -576C682 -637 695 -669 717 -738H949C956 -738 960 -739 960 -742C960 -745 957 -749 951 -755L887 -815L845 -760H467C444 -760 420 -761 394 -764L422 -727C439 -734 468 -738 489 -738H664C637 -624 575 -485 443 -269V-617L473 -635C476 -637 478 -639 478 -641C478 -643 476 -645 473 -648L419 -695L387 -656H228C301 -787 307 -795 329 -806C335 -809 339 -813 339 -816C339 -819 337 -822 331 -824L260 -853C252 -795 238 -741 209 -656ZM187 -138L130 -126V-636H187ZM335 -168V-636H398V-181ZM730 -448C814 -365 876 -261 893 -200C904 -160 910 -153 919 -153C940 -153 959 -177 959 -208C959 -214 959 -220 957 -227C946 -270 885 -350 738 -459Z"/>
</svg>