<svg xmlns="http://www.w3.org/2000/svg" viewBox="0 -1000 1000 1000">
	<path fill="#000000" d="M577 21H424V-96H577ZM99 21C76 21 51 19 26 17L54 54C71 47 100 43 121 43H971C979 43 983 42 983 39C983 37 980 33 976 29L915 -30L871 21H813V-74L846 -99C851 -103 854 -105 854 -108C854 -110 851 -113 846 -116L787 -151L758 -118H430C459 -150 486 -169 503 -176C512 -180 517 -183 517 -187C517 -190 514 -193 509 -196L459 -227C442 -185 428 -159 406 -118H245L184 -167C185 -145 187 -108 187 -69V21ZM621 21V-96H769V21ZM380 -96V21H231V-96ZM476 -693H129C106 -693 81 -695 56 -697L84 -664C101 -671 130 -675 151 -675H476V-627H231C208 -627 183 -629 158 -631L186 -595C203 -602 232 -606 253 -606H476V-557H201C178 -557 153 -559 128 -561L156 -526C173 -533 202 -537 223 -537H476V-489H113C90 -489 65 -491 40 -493L68 -456C85 -463 114 -467 135 -467H475C475 -455 473 -402 473 -391C473 -379 475 -374 481 -374C486 -374 493 -377 503 -382C519 -390 522 -394 522 -408C522 -417 520 -459 520 -467H943C953 -467 958 -468 958 -471C958 -474 954 -478 947 -485L898 -532L852 -489H520V-537H842C848 -537 851 -538 851 -540C851 -543 849 -546 843 -552L802 -592L770 -557H520V-606H754C754 -579 754 -576 759 -576C763 -576 768 -578 777 -582C797 -590 802 -595 802 -607C802 -617 797 -664 797 -675H953C961 -675 965 -676 965 -679C965 -681 963 -685 958 -690L906 -744L870 -693H797V-721L826 -739C832 -743 835 -745 835 -748C835 -750 833 -753 828 -756L763 -802L735 -761H520V-786C526 -790 554 -808 554 -811C554 -814 550 -816 543 -820L473 -855C475 -822 476 -795 476 -761H239C216 -761 191 -763 166 -765L194 -731C211 -738 240 -742 261 -742H476ZM520 -693V-742H754V-693ZM520 -627V-675H754V-627ZM813 -175C813 -152 813 -149 819 -149C823 -149 829 -151 838 -156C855 -164 858 -169 858 -180C858 -188 855 -220 855 -227V-314L883 -334C886 -336 887 -338 887 -339C887 -342 885 -344 881 -346L825 -380L800 -347H687C706 -367 720 -383 732 -401H894C901 -401 904 -402 904 -405C904 -407 901 -411 895 -416L854 -456L822 -421H609C586 -421 561 -423 536 -425L564 -390C581 -397 610 -401 631 -401H686C680 -382 673 -366 662 -347H621L565 -380C567 -361 569 -334 569 -316V-219C569 -210 565 -168 565 -160C565 -148 568 -144 575 -144C578 -144 583 -145 589 -147C606 -153 609 -160 609 -175ZM609 -329H813V-270H609ZM813 -193H609V-251H813ZM360 -173C360 -150 360 -147 366 -147C370 -147 376 -149 385 -154C402 -162 405 -167 405 -178C405 -187 402 -223 402 -230V-315L426 -333C429 -335 430 -337 430 -338C430 -341 428 -343 424 -345L376 -381L347 -348H232C254 -368 266 -381 282 -401H447C453 -401 457 -402 457 -404C457 -407 454 -410 448 -416L407 -456L375 -421H143C120 -421 95 -423 70 -425L98 -390C115 -397 144 -401 165 -401H232C224 -382 217 -367 207 -348H164L121 -373C122 -351 124 -333 124 -316V-222C124 -201 123 -186 120 -164C119 -157 118 -152 118 -147C118 -138 121 -134 128 -134C132 -134 138 -136 145 -138C163 -144 163 -147 163 -173ZM163 -329H360V-269H163ZM360 -191H163V-251H360Z"/>
</svg>