<svg xmlns="http://www.w3.org/2000/svg" viewBox="0 -1000 1000 1000">
	<path fill="#000000" d="M457 -716C459 -685 460 -636 460 -612V-130C460 -53 457 -4 453 56V64C453 75 455 80 462 80C467 80 475 76 487 70C504 61 507 57 507 42V-26H842V67C842 77 843 81 848 81C852 81 858 79 868 73C890 60 894 56 894 44V40C891 -21 889 -103 889 -157V-629C916 -648 919 -650 919 -655C919 -659 917 -663 912 -666L853 -709L822 -661H625C680 -757 708 -792 730 -801C735 -803 737 -805 737 -808C737 -811 734 -814 728 -818L667 -852C655 -794 644 -761 602 -661H528ZM507 -373V-640H842V-373ZM507 -48V-351H842V-48ZM212 -112C212 -59 211 7 209 66V73C209 85 210 89 217 89C221 89 228 87 239 82C258 74 262 70 262 55V48C259 3 258 -47 258 -120V-316C297 -285 331 -242 346 -195C354 -171 361 -167 372 -167C385 -167 396 -187 396 -208C396 -240 370 -282 292 -323C374 -398 401 -417 424 -421C431 -422 434 -424 434 -426C434 -428 432 -430 427 -433L371 -468C343 -419 315 -380 275 -331C270 -334 264 -336 258 -339V-426C288 -470 319 -521 353 -583C360 -596 376 -605 387 -608C394 -610 398 -613 398 -617C398 -620 395 -623 390 -626L333 -663L309 -623H119C96 -623 71 -625 46 -627L74 -590C91 -597 120 -601 141 -601H308C231 -450 163 -350 34 -209L46 -199C109 -253 161 -301 212 -364ZM173 -828C228 -787 248 -764 257 -714C261 -694 267 -687 285 -687C295 -687 314 -714 314 -739C314 -745 313 -751 310 -756C292 -787 260 -809 180 -840Z"/>
</svg>