<svg xmlns="http://www.w3.org/2000/svg" viewBox="0 -1000 1000 1000">
	<path fill="#000000" d="M985 -349C881 -363 787 -404 708 -473C752 -516 796 -574 833 -634C852 -664 858 -667 886 -677C893 -680 897 -682 897 -685C897 -688 894 -690 890 -694L829 -746L795 -704H566C576 -724 588 -744 599 -767C613 -794 616 -798 640 -805C646 -807 650 -808 650 -811C650 -813 647 -816 641 -819L577 -858C530 -717 485 -632 414 -508L426 -499C471 -553 506 -601 541 -661C573 -588 608 -528 652 -476C587 -412 506 -357 387 -297L393 -283C525 -336 605 -384 679 -447C735 -389 805 -341 896 -298C898 -297 900 -296 901 -296C904 -296 906 -298 908 -301C918 -318 937 -333 985 -335ZM790 -683C756 -608 720 -552 676 -502C629 -552 588 -612 557 -683ZM819 -322L792 -280H529L481 -311C482 -289 483 -260 483 -221V-88C483 -67 481 25 481 44C481 59 483 65 489 65C493 65 499 63 508 59C525 52 527 47 527 36V-24H807V54C807 62 808 67 813 67C817 67 822 65 831 61C852 52 855 48 855 35C855 26 851 -57 851 -74V-242L878 -265C882 -268 884 -270 884 -273C884 -275 882 -277 878 -280ZM527 -46V-258H807V-46ZM157 -826C220 -773 245 -725 253 -693C258 -671 261 -668 275 -668C288 -668 302 -688 302 -715C302 -760 278 -782 164 -836ZM394 -450C359 -397 333 -362 288 -310L264 -316V-442C292 -479 319 -518 345 -559C357 -578 379 -591 403 -598C407 -599 409 -601 409 -603C409 -605 408 -608 405 -610L341 -664L304 -622H104C82 -622 58 -624 34 -626L60 -590C77 -597 105 -601 125 -601H309C241 -470 145 -337 20 -203L28 -195C91 -242 156 -307 218 -382V-136C218 -104 214 40 214 69C214 83 215 89 221 89C225 89 231 87 239 83C260 75 267 69 267 52V49C265 7 264 -63 264 -134V-294C320 -267 357 -235 376 -206C392 -181 398 -179 413 -179C421 -179 429 -194 429 -212C429 -262 373 -286 302 -306C394 -390 408 -400 436 -405C441 -406 443 -408 443 -409C443 -411 442 -413 439 -415Z"/>
</svg>