<svg xmlns="http://www.w3.org/2000/svg" viewBox="0 -1000 1000 1000">
	<path fill="#000000" d="M498 -370V-461H738V-370ZM454 -370H204V-461H454ZM853 -413C844 -276 835 -259 770 -255C659 -248 565 -245 436 -245C387 -245 333 -245 270 -246C216 -247 204 -259 204 -308V-345H738V-309C738 -303 739 -300 745 -300C749 -300 756 -302 767 -306C785 -313 790 -316 790 -325C790 -328 785 -380 785 -390V-447C811 -468 814 -470 814 -477C814 -481 812 -486 808 -488L753 -518L731 -484H205L154 -522C156 -491 158 -464 158 -422V-310C158 -229 185 -214 261 -213C324 -212 397 -211 456 -212C369 -154 265 -107 36 -29L40 -15C137 -41 215 -64 290 -92V4C290 21 284 36 257 50L295 87C298 90 301 92 304 92C306 92 308 91 310 89C330 68 421 23 580 -41L578 -62L334 20V-110C399 -137 448 -161 539 -210C644 -58 745 22 872 60C875 61 877 61 879 61C882 61 885 60 887 57C904 33 939 22 980 22V10C871 13 786 -11 702 -72C831 -132 879 -147 891 -147C898 -147 902 -148 902 -150C902 -152 900 -155 895 -159L845 -199C818 -170 785 -142 688 -83C646 -116 594 -171 560 -213C680 -216 767 -220 799 -222C859 -226 886 -232 909 -278C910 -280 911 -282 911 -284C911 -288 909 -291 904 -293C875 -306 872 -311 869 -413ZM244 -692C246 -668 247 -654 247 -631V-583C247 -572 244 -527 244 -517C244 -509 246 -505 252 -505C256 -505 263 -507 274 -511C293 -518 293 -519 293 -539H679C679 -514 679 -512 686 -512C694 -512 731 -520 731 -537C731 -544 726 -576 726 -583V-626C732 -629 754 -642 754 -646C754 -648 752 -651 747 -654L687 -696L665 -657H291ZM293 -562V-632H679V-562ZM433 -844C477 -818 495 -800 497 -765C498 -745 510 -740 519 -740C534 -740 553 -755 553 -780C553 -814 524 -833 437 -852ZM870 -783L836 -739H145C122 -739 97 -741 72 -743L100 -705C117 -712 146 -716 167 -716H920C927 -716 931 -718 931 -722C931 -725 928 -729 923 -734Z"/>
</svg>