<svg xmlns="http://www.w3.org/2000/svg" viewBox="0 -1000 1000 1000">
	<path fill="#000000" d="M268 -566L61 -522L91 -463C93 -460 95 -459 97 -459C99 -459 102 -461 106 -465C122 -482 145 -491 268 -531V-455C268 -426 263 -412 232 -412C215 -412 191 -416 157 -424L155 -409C217 -392 239 -373 245 -346C246 -341 250 -338 254 -338C255 -338 257 -339 259 -340C300 -362 312 -377 312 -419V-545L471 -594L469 -608L312 -575V-669H458C465 -669 469 -670 469 -673C469 -675 467 -678 463 -683L417 -739L380 -694H312V-786C317 -789 340 -805 340 -808C340 -810 338 -811 332 -814L264 -848C266 -808 268 -772 268 -733V-694H141C118 -694 92 -695 68 -698L96 -658C113 -665 142 -669 163 -669H268ZM722 -583V-468C722 -449 720 -368 720 -351C720 -340 722 -335 728 -335C732 -335 738 -337 747 -341C767 -349 772 -353 772 -367C772 -370 771 -374 771 -378C769 -402 768 -435 768 -479V-583H951C957 -583 960 -584 960 -587C960 -589 958 -592 954 -597L898 -657L856 -605H558C562 -641 564 -669 563 -708C679 -730 728 -739 792 -751C816 -756 832 -757 844 -757C849 -757 872 -755 876 -755C880 -755 882 -755 882 -757C882 -759 879 -763 874 -768L821 -819C754 -785 676 -755 574 -729L515 -776C516 -751 517 -729 517 -704C517 -543 513 -436 353 -332L360 -321C386 -334 428 -359 453 -379C481 -358 491 -341 496 -317C500 -300 508 -292 518 -292C532 -292 543 -305 543 -324C543 -349 530 -372 470 -393C521 -442 544 -496 556 -583ZM39 -28C130 -53 208 -77 307 -115V-5C307 20 303 25 274 41L312 78C315 81 318 83 321 83C323 83 325 82 327 80C347 59 386 38 537 -30L535 -41L351 17V-134C405 -159 457 -185 502 -212C590 -76 685 1 871 47H874C879 47 882 46 886 40C903 16 938 3 979 3V-9C825 -17 716 -48 637 -103C775 -174 800 -186 812 -186C819 -186 823 -187 823 -190C823 -192 821 -194 816 -198L768 -234C735 -197 675 -149 623 -113C584 -143 548 -182 518 -221C527 -225 538 -229 549 -229C554 -229 556 -231 556 -234C556 -236 555 -239 551 -241L517 -264H914C921 -264 925 -266 925 -269C925 -272 922 -276 917 -281L859 -338L821 -286H140C117 -286 92 -288 67 -290L95 -253C112 -260 141 -264 162 -264H486C393 -184 227 -113 35 -42Z"/>
</svg>