<svg xmlns="http://www.w3.org/2000/svg" viewBox="0 -1000 1000 1000">
	<path fill="#000000" d="M585 -158V-12C585 5 579 14 556 14C542 14 521 11 490 4L487 18C547 34 559 47 563 66C564 70 566 72 569 72C571 72 573 72 576 70C620 43 629 26 629 -25V-415L650 -434C653 -437 655 -439 655 -441C655 -444 652 -446 648 -449L595 -484L572 -446H464L410 -487C412 -450 414 -382 414 -341V-101C414 -48 412 0 409 51V55C409 62 410 65 415 65C419 65 427 62 438 57C457 48 458 44 458 32V-158ZM458 -424H585V-317H458ZM585 -180H458V-295H585ZM820 -483C822 -446 824 -388 824 -347V-16C824 5 819 18 787 18C767 18 737 13 690 2L689 16C773 38 785 48 790 71C791 78 793 81 797 81C799 81 802 80 805 78C860 49 869 34 869 -15V-428L885 -441C888 -443 889 -445 889 -447C889 -449 887 -451 882 -453ZM702 -445C704 -412 705 -388 705 -351V-227C705 -197 704 -161 701 -121V-117C701 -109 702 -106 707 -106C712 -106 750 -123 750 -136V-139C748 -158 748 -200 748 -236V-383L773 -397C777 -399 779 -402 779 -404C779 -406 777 -408 772 -410ZM736 -611L703 -570H552C529 -570 503 -571 479 -573L507 -537C524 -544 553 -548 574 -548H781C787 -548 790 -549 790 -551C790 -552 788 -555 783 -560ZM623 -837C547 -700 452 -578 342 -486L350 -476C444 -539 543 -628 649 -769C737 -625 867 -522 884 -522C886 -522 888 -523 890 -524C907 -539 930 -549 970 -549V-561C874 -583 770 -652 658 -781C663 -785 676 -788 687 -790C696 -791 700 -793 700 -796C700 -798 697 -801 691 -804ZM171 -106C171 -77 168 49 168 75C168 82 169 86 173 86C176 86 182 83 191 77C213 62 218 57 218 39C217 -2 216 -49 216 -114V-346C248 -326 285 -293 303 -257C314 -235 324 -225 334 -225C344 -225 357 -235 357 -256C357 -302 311 -329 266 -346C342 -415 353 -420 375 -424C382 -425 385 -427 385 -429C385 -431 383 -433 378 -436L322 -471C300 -428 281 -396 252 -351C242 -356 230 -360 216 -364V-432C244 -472 272 -515 300 -565C308 -580 325 -593 336 -596C343 -598 347 -600 347 -603C347 -605 345 -608 341 -611L287 -657L257 -614H102C79 -614 54 -616 29 -618L57 -582C74 -589 103 -593 124 -593H255C199 -462 140 -371 24 -237L34 -228C84 -273 134 -327 171 -372ZM146 -831C190 -786 208 -741 208 -704C208 -681 214 -672 224 -672C246 -672 263 -697 263 -723C263 -729 262 -736 260 -742C249 -771 217 -804 155 -841Z"/>
</svg>