<svg xmlns="http://www.w3.org/2000/svg" viewBox="0 -1000 1000 1000">
	<path fill="#000000" d="M885 -434L863 -397H523L492 -419C495 -451 498 -485 499 -521H849C849 -490 849 -487 857 -487C861 -487 867 -489 877 -493C893 -500 896 -503 896 -513C896 -522 894 -569 894 -580V-671L921 -686C926 -689 928 -691 928 -694C928 -696 926 -699 921 -702L861 -745L839 -707H515L455 -763C458 -727 459 -685 459 -637C459 -380 445 -208 287 -3L299 8C404 -104 459 -205 483 -350V-137C483 -88 482 -11 480 39V46C480 61 482 68 489 68C494 68 500 65 510 60C524 52 526 48 526 37V-195H620C620 -167 619 -44 619 -19C619 0 621 8 628 8C633 8 639 5 648 -1C663 -11 666 -14 666 -27V-34C665 -65 665 -123 665 -195H748C748 -169 747 -55 747 -32C747 -17 749 -11 756 -11C760 -11 767 -13 776 -17C791 -24 794 -29 794 -44C794 -68 793 -173 793 -195H875V-16C875 0 870 8 837 8C821 8 800 6 771 3L769 17C836 34 848 43 852 68C853 73 854 76 858 76C859 76 861 75 864 74C914 50 921 39 921 -1V-360L944 -374C948 -377 950 -379 950 -381C950 -384 948 -386 944 -389ZM665 -217V-375H748V-217ZM793 -217V-375H875V-217ZM526 -217V-375H620V-217ZM500 -543C501 -596 503 -645 503 -685H849V-543ZM606 -840C646 -807 667 -762 670 -735C672 -718 681 -709 691 -709C710 -709 723 -729 723 -752C723 -784 702 -807 612 -851ZM170 -826C222 -777 244 -744 254 -711C260 -692 270 -678 282 -678C294 -678 309 -698 309 -723C309 -730 308 -738 305 -746C294 -775 251 -808 175 -836ZM362 -488C342 -454 307 -401 272 -359C264 -362 256 -365 247 -368V-454C280 -499 308 -541 326 -568C336 -584 362 -604 378 -608C385 -610 389 -612 389 -615C389 -617 387 -620 383 -623L325 -671L292 -631H124C101 -631 76 -633 51 -635L79 -599C96 -606 125 -610 146 -610H293C227 -486 123 -327 37 -230L48 -221C95 -261 152 -329 204 -397V-134C204 -103 200 33 200 61C200 76 202 81 209 81C212 81 217 80 223 77C245 67 250 63 250 49V44C248 4 247 -64 247 -132V-347C290 -316 319 -283 334 -254C342 -237 352 -229 364 -229C373 -229 381 -244 381 -262C381 -310 310 -342 293 -350C365 -419 388 -436 414 -441C420 -442 422 -444 422 -446C422 -447 421 -449 417 -452Z"/>
</svg>