<svg xmlns="http://www.w3.org/2000/svg" viewBox="0 -1000 1000 1000">
	<path fill="#000000" d="M395 -379C396 -357 398 -306 398 -281V-12H356C333 -12 307 -13 283 -16L311 20C328 13 357 9 378 9H971C980 9 984 8 984 5C984 3 982 -1 977 -7L934 -61L892 -12H882V-295L910 -311C916 -314 919 -316 919 -319C919 -322 916 -324 911 -328L851 -371L826 -334H446ZM692 -12H584V-313H692ZM542 -12H440V-313H542ZM734 -12V-313H839V-12ZM447 -824C449 -793 450 -760 450 -721V-566C450 -524 449 -481 447 -452C447 -447 446 -442 446 -438C446 -427 448 -422 454 -422C458 -422 463 -425 471 -428C492 -437 493 -439 493 -462H794C794 -426 794 -423 801 -423C804 -423 810 -424 819 -428C839 -436 844 -440 844 -452C844 -455 843 -458 843 -462C839 -507 838 -526 838 -567V-738C866 -752 869 -754 869 -759C869 -762 866 -766 861 -770L809 -813L783 -775H504ZM794 -483H493V-607H794ZM493 -754H794V-628H493ZM171 -122C171 -94 168 30 168 55C168 64 171 68 177 68C190 68 216 52 216 23C215 -18 214 -65 214 -130V-380C244 -359 275 -327 294 -295C307 -273 313 -267 324 -267C335 -267 345 -283 345 -302C345 -344 291 -369 267 -379C340 -444 351 -448 372 -453C379 -455 382 -456 382 -458C382 -460 380 -462 375 -465L319 -500C300 -461 279 -425 252 -386C241 -390 229 -395 214 -400V-456C242 -495 271 -539 302 -591C311 -606 327 -619 338 -622C345 -624 349 -626 349 -629C349 -631 347 -634 343 -637L289 -683L259 -640H104C81 -640 56 -642 31 -644L59 -608C76 -615 105 -619 126 -619H257C205 -502 150 -415 24 -257L34 -248C84 -298 128 -344 171 -398ZM132 -840C176 -795 194 -750 194 -713C194 -692 201 -681 213 -681C231 -681 250 -700 250 -729C250 -736 249 -744 246 -751C235 -780 203 -813 141 -850Z"/>
</svg>