<svg xmlns="http://www.w3.org/2000/svg" viewBox="0 -1000 1000 1000">
	<path fill="#000000" d="M882 -269L848 -221H717V-319H827C827 -290 827 -287 835 -287C839 -287 845 -289 854 -293C871 -300 875 -304 875 -316C875 -326 871 -399 871 -415V-560C901 -577 905 -579 905 -582C905 -585 902 -588 896 -592L842 -631L817 -597H717V-686H926C938 -686 944 -687 944 -691C944 -694 939 -700 931 -708L878 -757L843 -708H717V-790C745 -806 749 -808 749 -812C749 -816 745 -819 738 -822L670 -857C672 -821 674 -749 674 -708H552C529 -708 504 -710 480 -712L506 -675C523 -682 552 -686 573 -686H674V-597H577L523 -639C525 -610 526 -564 526 -541V-344C526 -334 524 -290 524 -281C524 -273 525 -270 530 -270C534 -270 540 -272 549 -276C570 -285 570 -288 570 -319H674V-221H522C499 -221 475 -223 450 -225L479 -188C495 -195 524 -199 545 -199H674C674 -152 673 -120 671 -68V-58C671 -43 673 -37 679 -37C683 -37 688 -39 696 -42C716 -50 722 -55 722 -68C722 -70 721 -73 721 -76C718 -113 717 -134 717 -199H927C938 -199 943 -201 943 -205C943 -208 939 -214 931 -221ZM717 -473V-575H827V-473ZM570 -473V-575H674V-473ZM717 -341V-451H827V-341ZM570 -341V-451H674V-341ZM130 -825C186 -775 203 -736 209 -692C211 -676 217 -666 230 -666C246 -666 270 -688 270 -714C270 -747 224 -795 140 -835ZM331 -787C379 -742 403 -692 409 -655C414 -624 418 -618 436 -618C450 -618 469 -641 469 -667C469 -713 382 -776 338 -797ZM328 -423C296 -387 262 -351 229 -317V-428C254 -467 279 -510 304 -558C312 -573 328 -587 345 -591C352 -593 355 -594 355 -597C355 -598 353 -601 348 -604L286 -647L260 -610H114C91 -610 67 -612 42 -614L70 -577C87 -584 115 -588 136 -588H262C202 -454 133 -344 26 -211L36 -200C101 -259 141 -308 186 -366V-129C186 -98 182 39 182 67C182 81 183 86 189 86C193 86 198 84 205 81C227 71 232 67 232 53V48C230 8 229 -60 229 -127V-291C262 -276 294 -243 308 -209C315 -190 320 -184 327 -184C345 -184 359 -204 359 -222C359 -252 310 -289 234 -303C334 -367 346 -372 372 -377C378 -378 380 -380 380 -382C380 -383 379 -385 375 -388ZM974 -21C862 -8 773 -3 704 -3C597 -3 537 -16 508 -34C443 -76 436 -94 436 -144V-440C467 -456 470 -458 470 -462C470 -465 467 -468 461 -473L412 -508L387 -474H338C315 -474 302 -476 278 -478L301 -446C318 -452 332 -454 353 -454H393V-111L267 12L311 43C315 46 318 47 321 47C325 47 328 43 332 35C353 -15 390 -87 406 -87C414 -87 423 -78 440 -57C512 32 566 50 879 50C891 50 893 48 895 40C901 20 933 0 974 -5Z"/>
</svg>