<svg xmlns="http://www.w3.org/2000/svg" viewBox="0 -1000 1000 1000">
	<path fill="#000000" d="M413 -823C415 -788 416 -758 416 -725V-623C416 -613 414 -566 414 -560C414 -552 415 -548 420 -548C424 -548 430 -550 439 -554C460 -563 460 -566 460 -585H847C847 -553 847 -549 855 -549C860 -549 866 -551 875 -555C892 -562 896 -566 896 -578C896 -588 892 -658 892 -673V-736L918 -752C924 -756 926 -758 926 -761C926 -763 924 -766 919 -769L861 -810L835 -775H472ZM707 -608H604V-750H707ZM563 -608H460V-750H563ZM748 -608V-750H847V-608ZM476 -329C518 -291 532 -267 536 -249C541 -227 546 -222 556 -222C571 -222 586 -240 586 -260C586 -293 540 -318 483 -339ZM658 -461H878C889 -461 895 -462 895 -466C895 -469 891 -474 883 -482L841 -524L807 -483H658V-535L681 -548C684 -550 685 -551 685 -553C685 -555 683 -558 677 -560L612 -583C614 -549 614 -522 614 -483H470C447 -483 422 -485 397 -487L427 -450C444 -457 473 -461 494 -461H614V-370H436C413 -370 388 -372 363 -374L393 -337C410 -344 439 -348 460 -348H735C715 -299 694 -256 670 -211H463C440 -211 415 -213 390 -215L420 -178C437 -185 466 -189 487 -189H617V-94H418C395 -94 370 -96 345 -98L375 -61C392 -68 421 -72 442 -72H617C617 -50 615 47 615 67C615 81 617 87 623 87C627 87 632 85 640 81C660 72 663 67 663 51C663 31 661 -55 661 -72H939C950 -72 955 -73 955 -77C955 -80 951 -85 944 -93L897 -144L852 -94H661V-189H883C894 -189 900 -190 900 -194C900 -197 896 -202 888 -210L846 -252L814 -211H690C751 -287 774 -305 790 -308C796 -309 799 -311 799 -313C799 -315 797 -317 794 -319L753 -348H935C946 -348 952 -349 952 -353C952 -356 948 -361 940 -369L899 -412L865 -370H658ZM187 -124C187 -40 186 -5 185 68C185 77 186 82 191 82C192 82 231 70 231 43C231 14 229 -113 229 -139V-325C271 -299 303 -251 309 -226C312 -213 322 -204 334 -204C349 -204 359 -219 359 -237C359 -278 312 -309 261 -330C322 -383 343 -396 367 -400C374 -401 377 -404 377 -407C377 -409 375 -411 372 -414L326 -449L246 -337C241 -339 235 -341 229 -343V-460C252 -497 277 -539 305 -590C313 -604 328 -617 343 -622C349 -624 352 -627 352 -630C352 -632 350 -635 346 -639L293 -684L263 -644H105C82 -644 57 -646 32 -648L60 -612C77 -619 106 -623 127 -623H268C206 -484 120 -340 28 -228L37 -219C91 -270 135 -318 187 -395ZM133 -831C171 -798 201 -748 208 -706C211 -688 221 -680 229 -680C242 -680 259 -705 259 -731C259 -735 258 -740 257 -744C249 -774 216 -807 141 -842Z"/>
</svg>