<svg xmlns="http://www.w3.org/2000/svg" viewBox="0 -1000 1000 1000">
	<path fill="#000000" d="M121 -845C185 -781 202 -741 207 -716C213 -688 222 -681 233 -681C248 -681 262 -702 262 -727C262 -775 216 -809 130 -855ZM903 -700L875 -669H663V-756H884C893 -756 898 -757 898 -761C898 -764 894 -768 888 -774L827 -832L788 -777H494C471 -777 446 -779 421 -781L449 -745C466 -752 495 -756 516 -756H618V-669H438C438 -678 438 -686 437 -695H425C416 -643 397 -601 368 -580C348 -566 339 -552 339 -541C339 -532 349 -521 366 -521C419 -521 435 -603 438 -647H618V-532C618 -516 617 -443 617 -428C617 -414 619 -408 626 -408C630 -408 635 -410 643 -413C661 -420 665 -424 665 -436C665 -451 663 -517 663 -530V-647H886L849 -571L860 -565C902 -614 920 -630 959 -637C966 -638 969 -639 969 -642C969 -644 967 -647 962 -652ZM833 -565H708V-544H833ZM578 -565H460V-544H578ZM836 -476H709V-455H836ZM578 -476H460V-455H578ZM330 -468C313 -425 285 -366 262 -325C252 -329 242 -332 231 -335V-455C246 -483 261 -511 274 -539C294 -582 299 -587 318 -595C330 -600 336 -604 336 -610C336 -614 333 -618 326 -624L279 -666L246 -627H108C91 -627 60 -629 35 -631L63 -596C80 -603 109 -607 130 -607H253C218 -516 122 -314 28 -182L37 -176C82 -227 138 -301 189 -384V-50C189 -33 188 40 188 54C188 69 190 75 197 75C201 75 207 73 216 69C230 63 233 59 233 48C233 33 231 -34 231 -48V-320C267 -297 298 -265 314 -234C324 -214 331 -206 346 -206C355 -206 364 -219 364 -237C364 -270 338 -293 281 -318C324 -379 351 -410 375 -424C381 -428 384 -431 384 -434C384 -437 381 -440 376 -443ZM900 -427L864 -373H433C410 -373 385 -375 360 -377L388 -343C405 -350 434 -354 455 -354H590C582 -318 572 -285 558 -249H443L393 -301C395 -267 396 -215 396 -176V-75C396 -24 395 11 393 46V60C393 72 394 77 401 77C405 77 412 74 421 70C438 62 442 57 442 43V38C440 5 439 -25 439 -74V-228H542V-92C542 -77 539 -10 539 4C539 18 541 23 548 23C551 23 557 21 564 18C585 8 589 4 589 -5C589 -29 586 -66 586 -90V-228H686V-98C686 -86 683 -32 683 -21C683 -8 684 -3 690 -3C694 -3 700 -5 708 -9C728 -18 734 -23 734 -31C734 -32 733 -34 733 -36C731 -52 730 -69 730 -96V-228H843V-5C843 11 840 19 812 19C794 19 766 16 722 10L719 25C788 40 813 58 815 81C816 86 818 88 821 88C823 88 826 87 829 86C879 60 890 44 890 13V-211C922 -231 923 -232 923 -237C923 -240 920 -243 914 -247L853 -290L829 -249H578C597 -280 622 -320 645 -354H953C961 -354 965 -356 965 -359C965 -362 962 -366 957 -371Z"/>
</svg>