<svg xmlns="http://www.w3.org/2000/svg" viewBox="0 -1000 1000 1000">
	<path fill="#000000" d="M132 -328C132 -151 106 -60 34 73L46 81C119 -16 157 -91 171 -234H272V-118C272 -61 271 -31 269 17V26C269 41 271 46 277 46C281 46 288 44 297 40C315 33 319 27 319 12V6C317 -21 315 -52 315 -128V-234H411V-23C411 0 407 10 385 10C374 10 357 7 334 2L331 16C372 31 381 38 389 63C390 66 392 68 395 68C397 68 400 67 405 65C446 46 457 34 457 5V-542C485 -559 488 -561 488 -565C488 -567 486 -570 482 -573L421 -615L395 -578H312C381 -677 410 -701 447 -707C453 -708 456 -710 456 -713C456 -715 454 -718 449 -722L388 -767L362 -732H228C238 -746 248 -762 259 -778C266 -789 281 -800 300 -807C304 -809 306 -810 306 -812C306 -814 304 -816 300 -818L234 -849C185 -735 128 -627 38 -503L50 -496C75 -522 98 -549 130 -593C131 -569 132 -544 132 -517ZM178 -556H272V-412H178ZM272 -256H173C176 -295 178 -339 178 -390H272ZM411 -256H315V-390H411ZM315 -556H411V-412H315ZM362 -711L295 -578H182L141 -608C167 -644 195 -683 214 -711ZM679 13H531C509 13 484 11 461 9L488 43C503 37 532 33 552 33H955C963 33 967 30 967 25C967 21 965 17 960 13L899 -42L860 13H724V-210H908C916 -210 920 -213 920 -218C920 -221 918 -225 913 -229L861 -284L823 -230H724V-335C754 -354 757 -356 757 -361C757 -364 754 -366 747 -369L676 -401C678 -366 679 -342 679 -303V-230H577C554 -230 528 -232 504 -234L532 -200C550 -206 578 -210 599 -210H679ZM679 -445H539C517 -445 492 -447 469 -449L496 -415C511 -421 540 -425 560 -425H953C961 -425 965 -428 965 -432C965 -435 963 -439 958 -443L900 -498L867 -445H724V-625H917C926 -625 931 -629 931 -634C931 -639 928 -643 923 -648L864 -699L829 -645H724V-780L749 -798C753 -801 754 -803 754 -805C754 -808 752 -811 746 -814L676 -848C678 -813 679 -789 679 -750V-645H568C545 -645 519 -647 495 -649L523 -615C539 -621 569 -625 590 -625H679Z"/>
</svg>