<svg xmlns="http://www.w3.org/2000/svg" viewBox="0 -1000 1000 1000">
	<path fill="#000000" d="M779 -397L751 -362H537C582 -412 614 -439 643 -446C651 -448 655 -450 655 -452C655 -454 653 -456 650 -458L590 -501L564 -470H361C388 -499 397 -506 410 -509C413 -510 415 -511 415 -513C415 -514 414 -516 411 -518L381 -540L545 -568L543 -586L371 -567V-695H534C542 -695 546 -696 546 -699C546 -701 544 -704 540 -709L495 -760L459 -716H371V-797L395 -811C399 -813 402 -816 402 -818C402 -820 399 -822 394 -825L326 -857C328 -822 328 -802 328 -763V-562L198 -547V-727C222 -740 225 -741 225 -745C225 -747 222 -750 217 -752L152 -785C154 -755 155 -734 155 -669V-542L45 -530L76 -482C79 -478 81 -476 84 -476C87 -476 89 -477 92 -479C107 -490 129 -497 222 -513L351 -535C292 -450 197 -349 65 -234L77 -223C131 -259 182 -298 231 -343C235 -43 226 -18 68 87L77 100C203 43 259 -11 269 -117H491V-60C491 -41 489 44 489 61C489 70 491 74 496 74C501 74 508 71 518 67C534 61 538 56 538 45C538 29 536 -44 536 -59V-117H767V-7C767 8 764 16 739 16C722 16 693 12 646 3L644 17C713 34 732 61 738 88C739 94 741 96 744 96C746 96 748 95 751 94C799 68 812 59 812 7V-323L843 -342C847 -344 848 -346 848 -348C848 -350 846 -352 843 -354ZM275 -250L278 -340H491V-250ZM536 -250V-340H767V-250ZM271 -139C272 -165 273 -194 274 -228H491V-139ZM536 -139V-228H767V-139ZM513 -362H275L258 -368C286 -394 313 -421 341 -449H568ZM905 -699C902 -578 890 -572 840 -563C824 -560 788 -558 751 -558C727 -558 703 -559 684 -561C629 -568 625 -569 625 -598V-662C706 -688 775 -714 824 -734C844 -742 856 -744 865 -744C868 -744 880 -742 882 -742C886 -742 888 -744 888 -746C888 -748 886 -750 883 -754L839 -803C781 -762 713 -723 625 -680V-800C636 -807 655 -818 655 -821C655 -823 652 -825 648 -827L580 -862C582 -828 583 -781 583 -734V-584C583 -535 592 -520 711 -520C756 -520 818 -521 855 -524C911 -528 939 -535 958 -576C959 -578 959 -579 959 -580C959 -583 957 -585 953 -588C931 -604 926 -617 920 -699Z"/>
</svg>