<svg xmlns="http://www.w3.org/2000/svg" viewBox="0 -1000 1000 1000">
	<path fill="#000000" d="M410 -588L391 -555H295C356 -655 377 -675 412 -680C420 -681 424 -683 424 -685C424 -687 422 -689 419 -692L363 -745L331 -708H209C222 -731 236 -756 251 -784C256 -793 275 -808 289 -811C294 -812 296 -814 296 -815C296 -817 294 -819 290 -820L223 -851C187 -737 138 -625 31 -467L42 -455C70 -488 94 -521 120 -559V-463C120 -149 115 -49 33 91L43 99C116 8 146 -95 157 -227H259V-181C259 -146 257 7 257 38C257 52 259 57 264 57C268 57 273 55 281 51C299 42 303 37 303 23V17C301 -28 301 -103 301 -179V-227H401V-12C401 6 399 14 379 14C368 14 350 12 324 7L321 20C370 35 386 53 390 79C391 81 392 83 394 83C395 83 397 82 399 81C442 56 444 42 444 -6V-526L461 -540C465 -543 467 -545 467 -547C467 -550 464 -552 458 -556ZM163 -400V-535H259V-400ZM301 -400V-535H401V-400ZM301 -247V-380H401V-247ZM159 -247C162 -288 163 -332 163 -380H259V-247ZM278 -555H168L136 -584C155 -614 175 -647 198 -688H340ZM975 -64C840 -111 782 -214 753 -336H847C847 -305 847 -302 855 -302C862 -302 893 -313 893 -331V-337C891 -362 890 -395 890 -422V-504L916 -520C921 -523 923 -525 923 -527C923 -530 921 -532 916 -535L857 -578L834 -540H721V-669H953C960 -669 964 -670 964 -672C964 -674 961 -677 956 -682L891 -740L856 -689H721V-792C732 -799 750 -811 750 -814C750 -816 747 -818 741 -821L675 -852C677 -816 679 -767 679 -689H536C513 -689 488 -691 463 -693L491 -658C508 -665 537 -669 558 -669H679V-540H572L516 -590C518 -563 519 -540 519 -517V-379C519 -367 517 -303 517 -302C517 -295 518 -291 523 -291C526 -291 531 -293 538 -296C559 -305 561 -308 561 -319V-336H659C599 -192 537 -97 462 -3L473 7C546 -71 612 -173 679 -305V-152C679 -95 677 -4 674 54V67C674 80 676 85 682 85C686 85 691 83 699 80C720 71 723 67 723 54V46C721 1 721 -74 721 -150V-336H737C758 -207 783 -142 885 -28C888 -25 891 -23 893 -23C896 -23 898 -25 900 -27C920 -49 936 -55 975 -52ZM721 -356V-520H847V-356ZM561 -356V-520H679V-356Z"/>
</svg>