<svg xmlns="http://www.w3.org/2000/svg" viewBox="0 -1000 1000 1000">
	<path fill="#000000" d="M90 -327C92 -296 93 -264 93 -225V-92C93 -70 91 29 91 49C91 60 93 65 99 65C103 65 109 63 118 59C134 52 136 49 136 34V-45H315V22C315 32 316 37 322 37C326 37 332 34 342 29C360 20 365 16 365 3C365 -6 361 -54 361 -65C512 -214 556 -280 633 -503V-138C633 -81 631 2 628 60V74C628 87 630 92 636 92C641 92 648 90 657 86C678 77 682 73 682 59V52C680 7 680 -70 680 -146V-547H682C732 -282 765 -202 872 -77C875 -74 877 -73 880 -73C882 -73 885 -74 887 -76C902 -91 915 -97 937 -97C948 -97 961 -96 978 -93L979 -109C831 -181 776 -249 696 -547H950C957 -547 961 -548 961 -550C961 -552 958 -556 954 -560L900 -618L862 -569H680V-779L707 -799C710 -801 712 -803 712 -805C712 -807 710 -809 705 -812L629 -851C631 -814 633 -753 633 -705V-569H463C440 -569 415 -570 390 -573L418 -536C435 -543 464 -547 485 -547H600C533 -328 494 -250 360 -88V-233L387 -249C391 -252 393 -254 393 -256C393 -259 391 -261 388 -264L330 -311L301 -271H144ZM136 -67V-249H315V-67ZM157 -830C199 -787 212 -762 217 -708C219 -688 224 -676 238 -676C255 -676 271 -692 271 -721C271 -726 271 -731 270 -736C265 -766 235 -804 164 -840ZM731 -768C764 -744 806 -693 814 -673C823 -652 830 -643 840 -643C853 -643 866 -660 866 -684C866 -714 851 -738 738 -779ZM320 -655H109C86 -655 61 -657 36 -659L64 -622C81 -629 110 -633 131 -633H404C415 -633 420 -634 420 -638C420 -641 416 -645 410 -652L359 -706ZM310 -536H135C112 -536 87 -538 62 -540L90 -504C107 -511 136 -515 157 -515H387C397 -515 402 -517 402 -520C402 -523 399 -527 393 -533L347 -580ZM302 -408H131C108 -408 83 -410 58 -412L86 -375C103 -382 132 -386 153 -386H382C392 -386 397 -388 397 -392C397 -395 394 -399 388 -405L338 -455Z"/>
</svg>