<svg xmlns="http://www.w3.org/2000/svg" viewBox="0 -1000 1000 1000">
	<path fill="#000000" d="M363 -316L337 -278H200L144 -318C146 -287 147 -255 147 -216V-93C147 -45 146 -1 144 32C144 38 143 43 143 47C143 59 145 64 152 64C157 64 164 62 174 58C190 52 192 48 192 33V-40H347V24C347 34 348 39 353 39C357 39 364 36 374 31C392 21 396 18 396 4V-3C393 -44 392 -74 392 -108V-244C423 -261 426 -263 426 -267C426 -270 424 -273 419 -276ZM192 -60V-258H347V-60ZM209 -848C260 -799 275 -759 282 -716C286 -694 295 -686 305 -686C329 -686 343 -707 343 -731C343 -736 342 -741 341 -746C335 -772 301 -809 217 -856ZM429 -714L390 -660H147C124 -660 99 -662 74 -664L102 -629C119 -636 148 -640 169 -640H478C487 -640 492 -642 492 -645C492 -648 489 -653 483 -659ZM397 -585L358 -540H189C166 -540 141 -542 116 -544L144 -509C161 -516 190 -520 211 -520H436C447 -520 452 -522 452 -526C452 -529 448 -534 441 -541ZM395 -461L358 -413H183C160 -413 135 -415 110 -417L138 -382C155 -389 184 -393 205 -393H437C445 -393 449 -395 449 -398C449 -401 447 -405 442 -410ZM888 -322C890 -290 891 -273 891 -246V-11H746V-414H879V-374C879 -368 880 -365 885 -365C890 -365 926 -375 926 -387C926 -402 924 -425 924 -440V-647L950 -663C956 -667 959 -670 959 -672C959 -675 956 -678 950 -681L876 -719C878 -687 879 -670 879 -643V-434H746V-784C775 -802 778 -804 778 -807C778 -811 774 -814 766 -817L698 -848C700 -819 701 -802 701 -779V-434H580V-658L604 -672C611 -676 614 -679 614 -682C614 -685 611 -687 605 -690L533 -727C535 -698 536 -681 536 -658V-454L497 -434L552 -386C554 -384 557 -383 559 -383C561 -383 564 -384 566 -387L588 -414H701V-11H548V-264C578 -283 581 -285 581 -290C581 -293 578 -296 571 -300L500 -339C502 -310 503 -293 503 -270V-34L456 -9L514 38C517 40 519 41 521 41C523 41 526 39 528 36L548 9H891V73C891 79 892 82 897 82C902 82 938 72 938 60C938 45 936 22 936 7V-251L962 -268C967 -271 969 -275 969 -278C969 -281 967 -283 961 -286Z"/>
</svg>