<svg xmlns="http://www.w3.org/2000/svg" viewBox="0 -1000 1000 1000">
	<path fill="#000000" d="M106 -330C108 -299 109 -266 109 -227V-99C109 -51 108 3 106 36V42C106 53 108 57 114 57C119 57 125 56 133 52C150 45 152 42 152 27V-36H317V19C317 27 318 31 323 31C326 31 332 28 342 24C361 15 365 11 365 -3V-10C362 -55 361 -84 361 -118V-231L389 -247C395 -250 398 -253 398 -256C398 -259 395 -262 389 -266L326 -312L296 -271H167ZM152 -59V-248H317V-59ZM503 -755C483 -607 462 -533 412 -412L427 -404C451 -447 479 -509 505 -581H636C636 -490 634 -446 629 -370H465C433 -370 406 -371 386 -374L419 -342C429 -346 445 -348 487 -348H627C608 -167 546 -51 317 73L325 85C572 -25 642 -140 668 -325C701 -132 751 -57 854 46C859 51 864 54 868 54C873 54 877 51 880 47C891 33 913 24 964 27V13C849 -10 728 -115 680 -348H939C945 -348 948 -349 948 -351C948 -353 946 -356 942 -360L877 -427L836 -370H674C677 -412 680 -494 681 -581H886C895 -581 900 -583 900 -586C900 -589 897 -593 891 -598L835 -651L799 -606H682C683 -666 683 -726 683 -775L711 -793C717 -797 719 -799 719 -801C719 -804 717 -806 712 -808L632 -847C635 -754 636 -674 636 -606H514C539 -685 545 -703 564 -708C572 -712 576 -716 576 -721C576 -725 572 -729 566 -731ZM334 -459L303 -411H160C137 -411 112 -412 87 -415L115 -378C132 -385 161 -389 182 -389H382C388 -389 392 -391 392 -394C392 -397 390 -402 384 -408ZM341 -590L300 -539H158C135 -539 111 -540 85 -543L113 -507C130 -514 159 -518 180 -518H385C396 -518 401 -519 401 -523C401 -525 397 -530 391 -536ZM389 -720L344 -667H105C82 -667 58 -668 32 -671L60 -634C77 -641 106 -645 127 -645H435C445 -645 450 -646 450 -650C450 -653 447 -657 441 -664ZM160 -829C206 -794 222 -764 228 -720C231 -697 238 -690 250 -690C270 -690 282 -719 282 -739C282 -744 281 -749 280 -753C269 -783 240 -811 168 -839Z"/>
</svg>