<svg xmlns="http://www.w3.org/2000/svg" viewBox="0 -1000 1000 1000">
	<path fill="#000000" d="M832 -834L802 -791H213L161 -831C163 -802 164 -779 164 -750V-631C164 -617 163 -556 163 -543C163 -535 164 -531 169 -531C173 -531 179 -534 188 -538C206 -547 209 -550 209 -563V-598H820V-567C820 -556 822 -550 828 -550C830 -550 870 -565 870 -585C870 -594 866 -663 866 -678V-751L893 -769C897 -772 900 -774 900 -776C900 -779 897 -782 891 -787ZM429 -620V-769H608V-620ZM653 -620V-769H820V-620ZM209 -620V-769H384V-620ZM755 -200L727 -159H295L242 -199C244 -170 245 -147 245 -123V-34C245 1 244 31 242 56C242 60 241 63 241 66C241 73 243 77 247 77C247 77 289 62 289 43V2H744V52C744 62 746 67 751 67C753 67 793 52 793 30V26C791 5 790 -14 790 -44V-122L815 -139C819 -142 821 -144 821 -147C821 -150 818 -153 813 -157ZM289 -20V-137H744V-20ZM455 -583C493 -546 509 -515 514 -490C516 -479 522 -472 534 -472C552 -472 560 -489 560 -507C560 -546 528 -568 460 -593ZM880 -518L842 -466H123C100 -466 75 -468 50 -470L78 -434C95 -441 124 -445 145 -445H936C944 -445 948 -448 948 -452C948 -456 945 -461 939 -466ZM758 -411L722 -361H278C255 -361 230 -362 205 -365L233 -329C250 -336 279 -340 300 -340H811C820 -340 825 -342 825 -346C825 -350 821 -355 814 -361ZM765 -305L729 -255H277C254 -255 229 -257 204 -259L232 -223C249 -230 278 -234 299 -234H818C827 -234 832 -236 832 -240C832 -244 828 -249 821 -255Z"/>
</svg>