<svg xmlns="http://www.w3.org/2000/svg" viewBox="0 -1000 1000 1000">
	<path fill="#000000" d="M335 -323L307 -282H165L102 -341C104 -310 105 -278 105 -239V-107C105 -59 105 -15 103 18C103 24 102 29 102 33C102 45 104 50 110 50C115 50 121 48 130 44C146 37 148 34 148 19V-55H313C313 -23 313 -20 319 -20C323 -20 330 -23 340 -28C358 -38 362 -41 362 -55V-62C359 -103 358 -133 358 -167V-240L392 -259C396 -261 398 -263 398 -265C398 -268 396 -270 393 -273ZM148 -77V-260H313V-77ZM174 -849C216 -809 227 -788 236 -730C240 -702 244 -694 258 -694C276 -694 299 -719 299 -747C299 -778 270 -812 180 -859ZM383 -729L337 -680H119C96 -680 71 -682 46 -684L74 -647C91 -654 120 -658 141 -658H425C435 -658 440 -659 440 -663C440 -666 437 -670 431 -677ZM350 -598L308 -548H152C129 -548 104 -550 79 -552L107 -516C124 -523 153 -527 174 -527H393C403 -527 408 -528 408 -531C408 -534 405 -538 399 -545ZM358 -465L314 -415H146C123 -415 98 -417 73 -419L101 -382C118 -389 147 -393 168 -393H401C411 -393 415 -394 415 -397C415 -400 412 -404 407 -411ZM937 -350C947 -350 952 -351 952 -355C952 -358 950 -363 944 -369L893 -428L839 -372H673V-499H866C876 -499 881 -500 881 -504C881 -507 878 -512 873 -518L825 -574L777 -521H673V-658H905C915 -658 920 -659 920 -663C920 -665 917 -670 911 -677L860 -733L816 -680H673V-784C706 -802 710 -804 710 -810C710 -814 705 -818 696 -823L623 -861C625 -824 627 -756 627 -715V-680H528C505 -680 480 -682 455 -684L483 -647C500 -654 529 -658 550 -658H627V-521H512C489 -521 464 -523 439 -525L467 -488C484 -495 513 -499 534 -499H627V-372H481C458 -372 433 -374 408 -376L436 -339C453 -346 482 -350 503 -350H592C542 -241 445 -104 326 18L337 29C437 -47 538 -161 627 -313V-146C627 -69 625 -10 622 47C622 53 621 58 621 62C621 74 623 78 629 78C634 78 640 76 649 72C672 62 677 59 677 44V39C674 -6 673 -68 673 -144V-350C705 -220 760 -121 844 -32C849 -26 854 -23 858 -23C862 -23 865 -25 870 -29C887 -43 907 -49 938 -49C947 -49 956 -49 966 -48L968 -63C825 -100 734 -223 695 -350Z"/>
</svg>