<svg xmlns="http://www.w3.org/2000/svg" viewBox="0 -1000 1000 1000">
	<path fill="#000000" d="M95 -339C97 -308 98 -276 98 -237V-98C98 -76 96 23 96 43C96 54 98 59 104 59C108 59 114 57 123 53C139 46 141 43 141 28V-51H310V7C310 18 311 22 316 22C320 22 327 19 337 14C355 4 359 1 359 -13V-20C356 -61 355 -91 355 -125V-245L382 -261C386 -264 388 -266 388 -268C388 -271 386 -273 383 -276L325 -323L296 -283H149ZM141 -73V-261H310V-73ZM699 -463C579 -301 512 -228 414 -149L422 -135C484 -177 527 -209 567 -243C595 -220 619 -178 632 -126C636 -108 640 -102 651 -102C665 -102 677 -130 677 -151C677 -190 600 -240 579 -254C597 -271 615 -288 634 -308H871C833 -231 783 -163 716 -109C618 -31 485 29 314 63L317 75C704 37 832 -152 903 -261C920 -286 928 -294 958 -298C964 -299 967 -301 967 -305C967 -307 965 -310 962 -313L902 -366L870 -330H654C672 -350 691 -372 712 -397C718 -404 730 -410 753 -414C759 -415 763 -417 763 -420C763 -422 760 -425 755 -428ZM621 -853C576 -755 499 -632 409 -526L416 -513C446 -540 480 -576 517 -617C556 -584 582 -540 590 -519C595 -506 603 -498 613 -498C625 -498 634 -519 634 -538C634 -545 632 -552 630 -557C623 -575 597 -600 527 -630C542 -647 557 -667 572 -686H824C752 -560 640 -441 400 -332L402 -319C497 -345 592 -388 719 -489C760 -522 826 -597 862 -650C871 -662 874 -664 906 -672C912 -674 915 -676 915 -679C915 -682 913 -685 910 -688L854 -744L822 -708H588C607 -732 625 -757 642 -783C648 -793 655 -797 682 -803C688 -804 691 -806 691 -809C691 -811 689 -814 685 -816ZM338 -463L302 -416H147C124 -416 99 -418 74 -420L102 -383C119 -390 148 -394 169 -394H382C392 -394 397 -396 397 -399C397 -402 394 -407 388 -413ZM347 -588L310 -544H143C120 -544 95 -546 70 -548L98 -512C115 -519 144 -523 165 -523H387C397 -523 402 -525 402 -528C402 -531 399 -535 393 -541ZM368 -711L329 -660H105C82 -660 57 -662 32 -664L60 -627C77 -634 106 -638 127 -638H413C423 -638 429 -640 429 -644C429 -647 425 -651 419 -657ZM152 -840C194 -797 209 -770 214 -716C216 -696 221 -684 235 -684C256 -684 274 -702 274 -730C274 -735 274 -739 273 -744C268 -774 230 -812 161 -848Z"/>
</svg>