<svg xmlns="http://www.w3.org/2000/svg" viewBox="0 -1000 1000 1000">
	<path fill="#000000" d="M86 -313C88 -282 89 -250 89 -211V-94C89 -72 87 27 87 47C87 58 89 63 95 63C99 63 105 61 114 57C130 50 132 47 132 32V-25H276V20C276 30 277 35 282 35C286 35 293 32 303 27C317 20 322 16 322 3C322 0 321 -3 321 -7C318 -48 317 -78 317 -112V-219L344 -235C348 -238 350 -240 350 -242C350 -245 348 -247 345 -250L291 -297L262 -257H140ZM132 -47V-235H276V-47ZM446 -540L406 -582C405 -566 402 -533 399 -514L373 -339L338 -312L387 -268C389 -266 391 -266 393 -266C397 -266 401 -267 404 -271L420 -302H530C528 -200 520 -132 506 -89C493 -49 484 -32 454 -32C434 -32 403 -41 354 -56L351 -38C420 -14 437 1 442 29C443 37 445 40 449 40C451 40 453 39 456 38C503 20 524 5 538 -41C556 -101 569 -162 572 -285C598 -306 601 -308 601 -312C601 -315 599 -317 596 -320L547 -362L522 -323H413L442 -518H540V-477C540 -472 543 -469 547 -469C548 -469 582 -478 582 -497C582 -508 580 -565 580 -578V-708L606 -724C611 -727 613 -730 613 -733C613 -736 611 -739 607 -741L548 -777L531 -746H417C399 -746 380 -748 359 -750L382 -713C395 -720 418 -724 435 -724H540V-540ZM297 -449L261 -402H137C114 -402 89 -404 64 -406L92 -369C109 -376 138 -380 159 -380H341C351 -380 356 -382 356 -386C356 -389 353 -393 347 -399ZM307 -576L270 -532H133C110 -532 85 -534 60 -536L88 -500C105 -507 134 -511 155 -511H347C357 -511 362 -513 362 -516C362 -519 359 -523 353 -529ZM329 -706L290 -655H102C79 -655 54 -657 29 -659L57 -622C74 -629 103 -633 124 -633H374C385 -633 390 -634 390 -638C390 -641 386 -645 380 -652ZM627 -327C629 -323 632 -321 635 -321C636 -321 638 -321 640 -323C658 -337 659 -338 795 -353C747 -265 693 -175 641 -95C608 -44 603 -41 564 -33L600 21C603 27 606 29 608 29C610 29 611 28 613 27C625 16 647 4 683 -3L868 -37C871 -20 873 -5 873 9C873 36 884 42 900 42C912 42 929 13 929 -23C929 -62 924 -89 810 -211L799 -204C834 -141 853 -93 864 -54L632 -35C755 -207 807 -287 886 -421C902 -449 916 -456 929 -461C934 -463 936 -465 936 -467C936 -470 934 -473 929 -476L874 -514C855 -469 822 -405 805 -373L650 -374C709 -456 730 -484 773 -555C788 -580 802 -587 813 -589C820 -590 824 -593 824 -597C824 -600 822 -603 816 -606L767 -631H947C955 -631 959 -632 959 -636C959 -639 956 -643 951 -650L903 -709L867 -653H645C628 -653 608 -655 588 -657L610 -620C623 -627 646 -631 663 -631H757C725 -556 687 -476 653 -421C631 -386 619 -378 593 -376ZM140 -829C182 -786 195 -761 200 -707C202 -687 207 -675 221 -675C239 -675 262 -697 262 -725C262 -759 226 -801 147 -839ZM680 -831C723 -781 735 -747 739 -711C739 -693 754 -682 762 -682C775 -682 794 -704 794 -729C794 -754 775 -785 686 -841Z"/>
</svg>