<svg xmlns="http://www.w3.org/2000/svg" viewBox="0 -1000 1000 1000">
	<path fill="#000000" d="M690 -537V-459H312V-537ZM978 -277C856 -287 745 -350 666 -438H952C959 -438 963 -440 963 -444C963 -447 960 -452 954 -458L898 -515L854 -459H737V-728H898C907 -728 911 -729 911 -733C911 -735 908 -740 902 -746L849 -800L809 -748H737V-788C746 -796 762 -811 762 -814C762 -816 760 -818 755 -820L686 -851C688 -823 690 -780 690 -748H312V-790C322 -799 339 -814 339 -817C339 -820 336 -821 330 -823L262 -845C264 -817 266 -780 266 -748H165C142 -748 117 -750 92 -752L120 -717C137 -724 166 -728 187 -728H266V-459H117C94 -459 69 -461 44 -463L72 -427C89 -434 118 -438 139 -438H332C260 -355 164 -283 29 -200L35 -188C113 -225 182 -263 254 -316L272 -294C289 -301 310 -303 331 -303H754C760 -303 764 -304 765 -306C811 -269 876 -228 883 -228C886 -228 888 -229 889 -232C897 -250 923 -262 978 -265ZM690 -632V-558H312V-632ZM690 -728V-653H312V-728ZM647 -438C663 -413 690 -378 716 -351L693 -324H309C295 -324 281 -324 266 -325C311 -359 354 -396 394 -438ZM439 -425C473 -408 490 -384 499 -352C502 -336 505 -330 515 -330C534 -330 546 -346 546 -365C546 -411 488 -425 445 -435ZM289 -9V-81H713V-9ZM241 -151C243 -120 244 -91 244 -52V-11C244 1 240 56 240 67C240 73 242 76 246 76C250 76 257 73 268 69C285 62 289 56 289 44V12H713V52C713 62 714 66 720 66C723 66 729 64 738 60C756 52 762 47 762 39C762 37 761 35 761 33C759 17 758 -2 758 -28V-64L788 -81C792 -83 793 -85 793 -87C793 -89 792 -91 788 -93L722 -136L699 -102H300ZM716 -216L681 -175H325C302 -175 277 -177 252 -179L280 -143C297 -150 326 -154 347 -154H759C766 -154 770 -155 770 -158C770 -160 767 -164 762 -169ZM700 -289L665 -248H325C302 -248 277 -250 252 -252L280 -216C297 -223 326 -227 347 -227H744C748 -227 750 -228 750 -231C750 -233 749 -236 746 -239Z"/>
</svg>