<svg xmlns="http://www.w3.org/2000/svg" viewBox="0 -1000 1000 1000">
	<path fill="#000000" d="M923 -45L881 2H865V-264L895 -283C900 -286 903 -289 903 -291C903 -294 900 -297 895 -301L839 -342L813 -307H490L430 -359C431 -337 433 -286 433 -261V2C395 2 390 2 340 -2L368 37C385 30 414 26 435 26H958C968 26 973 24 973 20C973 17 970 12 964 5ZM611 2V-281H695V2ZM735 2V-281H824V2ZM477 2V-281H568V2ZM317 -321L287 -283H170L107 -341C109 -310 110 -278 110 -239V-107C110 -59 110 -15 108 18V32C108 45 110 50 116 50C121 50 127 48 136 44C151 38 153 34 153 19V-53H296V-18C296 -8 297 -3 302 -3C306 -3 313 -6 323 -11C340 -20 344 -24 344 -39V-45C341 -86 340 -116 340 -150V-242L370 -257C374 -259 377 -261 377 -264C377 -266 375 -269 371 -272ZM153 -75V-261H296V-75ZM167 -847C216 -805 231 -770 239 -729C244 -702 253 -696 268 -696C283 -696 304 -715 304 -742C304 -777 275 -809 175 -857ZM593 -834C643 -783 656 -741 661 -696C663 -683 671 -677 682 -677C697 -677 718 -701 718 -727C718 -776 647 -816 600 -843ZM387 -722L343 -673H104C81 -673 56 -675 31 -677L59 -640C76 -647 105 -651 126 -651H425C435 -651 439 -652 439 -655C439 -658 436 -662 431 -669ZM839 -805C760 -685 675 -596 560 -508V-671C589 -687 592 -689 592 -694C592 -697 589 -700 583 -703L518 -739V-476C463 -437 400 -398 328 -355L339 -341C406 -372 465 -403 520 -438C527 -410 549 -399 596 -398C646 -397 688 -397 726 -397C803 -397 829 -405 848 -441C850 -445 851 -448 851 -451C851 -455 849 -457 843 -460C825 -470 812 -493 812 -568H797C792 -440 786 -434 721 -434H628C572 -434 562 -445 560 -464C663 -535 756 -619 847 -726C853 -732 864 -737 881 -740C892 -742 897 -745 897 -748C897 -751 895 -754 890 -758ZM329 -603L290 -555H142C119 -555 94 -557 69 -559L97 -522C114 -529 143 -533 164 -533H364C375 -533 380 -534 380 -538C380 -541 377 -545 372 -551ZM834 -628C882 -578 898 -548 907 -518C914 -495 922 -488 935 -488C949 -488 961 -501 961 -535C961 -559 939 -594 841 -637ZM444 -632C434 -567 404 -528 390 -513C382 -504 378 -495 378 -488C378 -480 386 -468 402 -468C445 -468 460 -520 460 -570C460 -588 458 -609 455 -632ZM325 -467L286 -422H145C122 -422 97 -424 72 -426L100 -389C117 -396 146 -400 167 -400H364C374 -400 379 -401 379 -405C379 -408 376 -412 370 -419Z"/>
</svg>