<svg xmlns="http://www.w3.org/2000/svg" viewBox="0 -1000 1000 1000">
	<path fill="#000000" d="M888 -754L856 -705H814V-798C834 -812 837 -813 837 -817C837 -820 833 -822 827 -824L764 -848C766 -820 767 -777 767 -756V-705H506V-789C529 -805 532 -807 532 -811C532 -814 529 -817 522 -820L458 -850C460 -822 461 -779 461 -758V-705C416 -705 412 -705 362 -709L390 -672C406 -678 429 -682 461 -683V-448C461 -434 460 -372 460 -360C460 -354 461 -351 464 -351C468 -351 473 -353 482 -357C503 -366 506 -369 506 -378V-423H767V-369C767 -362 769 -358 775 -358C776 -358 817 -367 817 -382C817 -402 814 -433 814 -452V-683H923C937 -683 943 -685 943 -690C943 -694 940 -699 934 -705ZM506 -578V-683H767V-578ZM506 -445V-556H767V-445ZM324 -640L298 -606L205 -602C215 -665 224 -727 231 -782L260 -800C264 -803 267 -805 267 -808C267 -810 264 -812 258 -815L188 -850C183 -786 173 -696 161 -600L119 -598C96 -597 67 -598 42 -599L72 -564C98 -577 134 -579 158 -580C142 -464 123 -342 104 -252C151 -223 188 -195 218 -168C180 -91 113 -12 30 55L39 66C131 9 198 -60 245 -142C270 -116 288 -91 299 -69C308 -49 313 -44 322 -44C342 -44 348 -71 348 -85C348 -95 345 -106 339 -116C326 -136 303 -158 267 -183C315 -284 342 -399 353 -563L383 -581C387 -584 389 -586 389 -588C389 -591 387 -593 383 -596ZM305 -587C304 -434 285 -324 234 -204C208 -219 178 -235 142 -252C162 -337 184 -460 202 -582ZM970 -23C843 -39 743 -122 693 -242H937C951 -242 957 -243 957 -248C957 -251 954 -256 947 -264L896 -320L857 -264H655V-336C675 -351 677 -353 677 -358C677 -362 673 -365 666 -368L605 -396C606 -364 608 -301 608 -264H409C386 -264 361 -266 336 -268L364 -231C381 -238 410 -242 431 -242H556C497 -137 371 -12 246 60L254 73C416 0 527 -118 608 -239V-97C608 -46 607 2 605 55C605 76 608 84 617 84C622 84 629 82 637 78C656 70 659 67 659 55V48C656 7 655 -27 655 -96V-242H673C712 -129 770 -52 870 18C876 23 880 25 883 25C886 25 889 23 892 19C911 -3 933 -12 970 -12Z"/>
</svg>