<svg xmlns="http://www.w3.org/2000/svg" viewBox="0 -1000 1000 1000">
	<path fill="#000000" d="M966 -293C835 -296 721 -347 633 -460H906C914 -460 917 -462 917 -465C917 -468 915 -471 910 -476L858 -530L815 -476H639V-545H797C806 -545 810 -546 810 -549C810 -552 807 -556 801 -561L760 -601L729 -561H639V-622H796C805 -622 810 -623 810 -626C810 -628 806 -632 800 -638L751 -685L717 -638H639V-675C660 -686 663 -687 663 -690C663 -693 660 -695 655 -696L590 -719C592 -697 593 -673 593 -638H402V-666C423 -682 426 -684 426 -686C426 -689 423 -691 417 -693L354 -718C357 -686 357 -670 357 -638H244C221 -638 196 -639 171 -642L199 -611C216 -618 245 -622 266 -622H357V-561H246C223 -561 198 -562 173 -565L201 -534C218 -541 247 -545 268 -545H357V-476H114C91 -476 66 -477 41 -480L69 -449C86 -456 115 -460 136 -460H337C267 -363 168 -259 24 -173L28 -160C163 -214 262 -299 398 -460H613C686 -314 872 -235 877 -235C881 -235 883 -237 886 -242C901 -268 928 -281 966 -281ZM402 -561V-622H593V-561ZM402 -476V-545H593V-476ZM407 -840C453 -808 470 -784 480 -759C484 -750 489 -742 503 -742C519 -742 533 -756 533 -777C533 -827 468 -845 410 -850ZM874 -784L842 -741H182C183 -755 183 -769 182 -784H167C156 -723 135 -693 95 -667C79 -657 73 -649 73 -641C73 -630 83 -619 106 -619C150 -619 173 -673 181 -725H849L816 -659L832 -652C888 -704 905 -710 929 -711C935 -712 939 -713 939 -716C939 -719 937 -722 931 -728ZM700 -132L675 -94H307L260 -127C262 -113 262 -99 262 -77V16C262 25 259 65 259 73C259 84 261 88 267 88C271 88 277 85 285 82C303 75 305 72 305 62V27H692V67C692 77 693 81 699 81C704 81 738 70 738 51C738 46 736 23 736 18V-67L761 -80C765 -82 767 -84 767 -86C767 -89 765 -91 761 -94ZM305 11V-78H692V11ZM433 -418C466 -387 475 -368 480 -347C484 -331 489 -325 505 -325C516 -325 530 -343 530 -362C530 -384 515 -403 438 -429ZM649 -366L620 -324H351C328 -324 303 -325 278 -328L306 -297C323 -304 352 -308 373 -308H693C701 -308 704 -309 704 -312C704 -315 702 -318 697 -322ZM652 -284L624 -248H332C309 -248 284 -249 259 -252L287 -221C304 -228 333 -232 354 -232H692C698 -232 701 -233 701 -235C701 -236 699 -239 695 -243ZM670 -209L640 -169H339C316 -169 291 -170 266 -173L294 -142C311 -149 340 -153 361 -153H715C720 -153 722 -154 722 -157C722 -159 721 -161 717 -165Z"/>
</svg>