<svg xmlns="http://www.w3.org/2000/svg" viewBox="0 -1000 1000 1000">
	<path fill="#000000" d="M415 -820C417 -791 418 -746 418 -723V-639C418 -627 416 -572 416 -566C416 -559 417 -555 423 -555C427 -555 433 -557 441 -560C461 -567 461 -570 461 -597H568V-484H460L408 -524C409 -503 410 -443 410 -415V-182L378 -162L427 -128C431 -126 433 -124 436 -124C438 -124 440 -126 443 -130L461 -155H568V-60C568 62 574 62 716 62C925 62 947 59 973 -4C974 -6 974 -8 974 -10C974 -14 972 -16 968 -17C945 -27 937 -44 933 -132H915C915 5 909 15 858 21C837 24 774 26 730 26V-155H849C849 -122 849 -118 857 -118C861 -118 867 -120 876 -124C893 -131 896 -135 896 -146C896 -157 892 -227 892 -242V-449L916 -464C921 -467 924 -470 924 -472C924 -475 921 -477 917 -480L862 -520L839 -484H730V-597H846C846 -568 846 -565 853 -565C857 -565 863 -567 872 -571C889 -578 893 -582 893 -594C893 -598 889 -659 889 -671V-736L921 -756C926 -759 928 -761 928 -763C928 -766 926 -768 921 -771L860 -814L835 -774H470ZM686 26C615 24 612 8 612 -59V-753H686ZM452 -338V-462H568V-338ZM452 -176V-317H568V-176ZM730 -338V-462H849V-338ZM730 -176V-317H849V-176ZM568 -618H461V-753H568ZM730 -618V-753H846V-618ZM104 -351C106 -320 107 -288 107 -249V-110C107 -88 105 11 105 31C105 42 107 47 113 47C117 47 123 45 132 41C148 34 150 31 150 16V-63H290V10C290 16 291 18 294 18C295 18 297 17 300 16C332 0 337 -3 337 -18V-23C334 -64 333 -94 333 -128V-257L360 -273C364 -276 366 -278 366 -280C366 -283 364 -285 361 -288L303 -335L274 -295H158ZM150 -85V-273H290V-85ZM311 -465L275 -418H143C120 -418 95 -420 70 -422L98 -385C115 -392 144 -396 165 -396H355C365 -396 370 -398 370 -402C370 -405 367 -409 361 -415ZM320 -590L283 -546H144C121 -546 96 -548 71 -550L99 -514C116 -521 145 -525 166 -525H360C370 -525 375 -527 375 -530C375 -533 372 -537 366 -543ZM344 -714L305 -663H106C83 -663 58 -665 33 -667L61 -630C78 -637 107 -641 128 -641H389C400 -641 405 -642 405 -646C405 -649 401 -653 395 -660ZM148 -842C190 -799 203 -774 208 -720C210 -700 215 -688 229 -688C249 -688 275 -715 269 -748C263 -778 230 -816 155 -852Z"/>
</svg>