<svg xmlns="http://www.w3.org/2000/svg" viewBox="0 -1000 1000 1000">
	<path fill="#000000" d="M193 -762L140 -806C142 -780 144 -745 144 -722V-643C144 -632 139 -577 139 -576C139 -571 141 -568 146 -568C150 -568 156 -570 166 -574C187 -582 187 -584 187 -607H262C282 -587 288 -573 290 -560C292 -550 293 -544 295 -540H127C104 -540 78 -542 53 -544L79 -513C97 -519 118 -523 149 -523H207C193 -428 171 -400 78 -335L81 -324C179 -369 215 -396 238 -459H410C404 -439 396 -423 384 -403C375 -388 366 -380 344 -380C326 -380 298 -386 254 -397L249 -385C312 -364 328 -354 334 -323C335 -321 336 -319 339 -319C340 -319 343 -320 346 -321C386 -335 404 -350 418 -377C435 -409 444 -427 450 -446L470 -458C474 -460 477 -462 477 -464C477 -466 475 -468 472 -470L427 -504L399 -476H243C248 -490 252 -506 255 -523H538C545 -523 548 -524 548 -527C548 -530 545 -534 539 -540L493 -582L458 -540H321C329 -546 333 -556 333 -564C333 -584 307 -598 290 -607H429C429 -579 429 -575 437 -575C443 -575 477 -586 477 -604C477 -608 473 -655 473 -665V-736C499 -746 502 -747 502 -751C502 -752 500 -754 498 -756L444 -797L415 -762H279C314 -801 328 -807 342 -810C347 -811 349 -812 349 -814C349 -815 347 -817 344 -819L294 -846C282 -818 270 -793 256 -762ZM187 -694V-745H429V-694ZM187 -624V-677H429V-624ZM109 -306C85 -306 60 -308 35 -310L63 -275C80 -281 110 -285 131 -285H948C954 -285 958 -286 958 -289C958 -292 956 -295 952 -299L893 -356L851 -306H528C535 -312 539 -320 539 -328C539 -338 534 -348 524 -358C604 -390 674 -431 722 -480C790 -414 868 -379 874 -379C877 -379 880 -380 883 -383C903 -402 919 -409 962 -409L963 -421C871 -434 804 -467 749 -511C789 -559 813 -604 849 -702H945C951 -702 954 -704 954 -708C954 -711 952 -714 948 -718L895 -770L857 -722H629C670 -788 672 -791 692 -799C698 -801 700 -803 700 -806C700 -807 699 -809 695 -811L639 -841C612 -766 572 -680 515 -583L523 -576C549 -603 574 -637 601 -679C622 -614 655 -556 696 -507C656 -463 588 -410 510 -367C497 -373 487 -375 444 -383L443 -375C474 -360 483 -349 495 -321C497 -315 498 -310 500 -306ZM616 -702H799C780 -638 752 -579 720 -536C676 -580 641 -636 613 -698ZM737 -67V16H264V-67ZM737 37V69C737 79 738 83 744 83C747 83 753 81 762 77C781 69 787 64 787 56C787 55 786 53 786 51C784 35 783 17 783 -9V-51L813 -71C817 -73 818 -75 818 -77C818 -79 817 -81 813 -83L750 -126L723 -87H268L216 -119C218 -89 219 -79 219 -41V4C219 16 216 68 216 78C216 85 217 88 222 88C226 88 233 86 243 82C264 73 264 70 264 37ZM776 -203L737 -163H254C231 -163 206 -165 180 -167L209 -132C226 -139 255 -143 277 -143H820C828 -143 832 -144 832 -146C832 -148 829 -151 825 -155ZM760 -276L725 -236H254C231 -236 206 -238 180 -240L209 -205C226 -212 255 -215 277 -215H815C819 -215 822 -216 822 -218C822 -220 820 -222 817 -225Z"/>
</svg>