<svg xmlns="http://www.w3.org/2000/svg" viewBox="0 -1000 1000 1000">
	<path fill="#000000" d="M739 -787C759 -803 761 -805 761 -808C761 -811 758 -813 754 -816L699 -851C701 -818 702 -790 702 -765V-709H608V-787C626 -803 628 -804 628 -808C628 -811 626 -813 622 -816L567 -846C569 -813 569 -785 569 -760V-709H445C425 -709 404 -711 382 -713L407 -676C422 -683 445 -687 464 -687H569V-544C568 -531 570 -525 575 -525C578 -525 608 -535 608 -550V-570H702V-539C702 -531 703 -527 708 -527C710 -527 742 -536 742 -551C742 -557 739 -612 739 -623V-687H950C958 -687 962 -691 962 -696C962 -700 960 -705 955 -710L900 -766L866 -709H739ZM702 -592H608V-687H702ZM430 -479C411 -479 389 -481 369 -483L392 -446C407 -453 431 -457 449 -457H481V-324L372 -287L403 -243C405 -240 408 -238 410 -238C412 -238 414 -240 415 -243C424 -265 449 -280 481 -300V-181C481 -173 482 -169 486 -169C488 -169 521 -182 521 -199C521 -217 520 -296 520 -312V-545C536 -556 538 -558 538 -561C538 -564 536 -566 532 -569L478 -604C481 -549 481 -526 481 -479ZM477 -154C455 -66 422 -38 394 -23C374 -13 363 2 363 15C363 29 376 42 396 42C411 42 427 35 441 21C473 -12 482 -41 491 -154ZM732 -429C753 -443 755 -445 755 -449C755 -453 753 -456 750 -459L708 -496L687 -459H615L569 -503C570 -475 571 -442 571 -410V-289C571 -276 570 -221 570 -209C570 -201 572 -197 576 -197C579 -197 583 -199 589 -202C609 -213 609 -215 609 -237H695C695 -208 695 -205 701 -205C709 -205 733 -215 733 -236C733 -248 732 -300 732 -311ZM609 -437H695V-259H609ZM96 -341C98 -310 99 -277 99 -238V-96C99 -48 98 6 96 39V46C96 56 97 61 103 61C107 61 113 59 121 55C138 48 140 45 140 30V-53H280V23C280 31 281 34 285 34C288 34 294 32 304 27C324 18 327 14 327 1V-7C324 -52 323 -81 323 -115V-252L351 -268C357 -271 360 -274 360 -277C360 -280 357 -283 351 -287L290 -333L260 -292H145ZM140 -75V-270H280V-75ZM124 -839C167 -800 184 -763 191 -720C195 -695 199 -688 213 -688C233 -688 248 -709 248 -734C248 -783 205 -810 133 -849ZM288 -673H101C78 -673 54 -674 28 -677L56 -640C73 -647 102 -651 123 -651H379C389 -651 394 -653 394 -656C394 -659 391 -664 385 -670L333 -726ZM901 -541C881 -504 855 -470 824 -434V-546C846 -561 848 -562 848 -566C848 -569 846 -572 841 -574L783 -609C784 -569 785 -518 785 -490V-262C785 -201 794 -189 862 -189C920 -189 933 -199 949 -237C950 -239 950 -241 950 -243C950 -246 949 -248 946 -249C929 -257 924 -278 919 -366H905C907 -232 903 -228 868 -228C828 -228 824 -232 824 -260V-406C908 -473 922 -480 938 -484C944 -485 947 -487 947 -490C947 -492 945 -495 942 -498ZM261 -549H148C125 -549 101 -550 75 -553L103 -517C120 -524 149 -528 170 -528H346C357 -528 362 -529 362 -533C362 -535 358 -540 352 -546L302 -600ZM254 -427H150C127 -427 102 -428 77 -431L105 -394C122 -401 151 -405 172 -405H339C350 -405 355 -407 355 -410C355 -413 351 -418 345 -424L295 -475ZM793 -146C856 -91 884 -42 894 7C899 32 907 43 917 43C934 43 951 20 951 -8C951 -74 847 -131 800 -156ZM540 -145C575 -87 582 -56 582 -13C582 9 582 28 598 28C616 28 637 10 637 -26C637 -53 613 -93 548 -153ZM669 -142C705 -102 728 -51 735 -18C741 16 746 25 756 25C774 25 787 6 787 -19C787 -71 737 -111 676 -151Z"/>
</svg>