<svg xmlns="http://www.w3.org/2000/svg" viewBox="0 -1000 1000 1000">
	<path fill="#000000" d="M924 -84L884 -40H842V-253H955C964 -253 969 -254 969 -257C969 -260 965 -264 957 -271L907 -317L876 -273H842V-444H954C962 -444 967 -445 967 -448C967 -450 963 -455 956 -462L911 -510L878 -464H842V-631H959C967 -631 971 -632 971 -635C971 -637 968 -642 961 -649L917 -696L876 -651H690C706 -682 723 -715 739 -750C747 -766 755 -776 761 -778C768 -781 772 -783 772 -786C772 -788 769 -791 763 -795L712 -829C689 -723 630 -576 562 -471L575 -463C598 -492 625 -535 655 -587V-141C655 -53 654 9 652 43V57C652 71 653 76 659 76C662 76 668 74 675 69C694 57 696 51 696 31V-20H964C973 -20 977 -21 977 -24C977 -26 974 -31 967 -38ZM696 -273V-444H801V-273ZM696 -464V-631H801V-464ZM696 -40V-253H801V-40ZM375 -503L342 -461H305V-628H395C402 -628 406 -629 406 -632C406 -634 403 -638 397 -645L356 -690L328 -648H168C185 -681 200 -714 212 -742C217 -755 228 -766 241 -770C247 -772 250 -774 250 -776C250 -778 247 -781 241 -785L193 -819C162 -730 93 -548 37 -460L49 -452C78 -490 108 -537 135 -586V-145C135 -57 134 5 132 39C132 45 131 51 131 55C131 68 133 73 138 73C141 73 146 70 154 65C174 52 175 47 175 21V-13H397C404 -13 407 -14 407 -17C407 -20 405 -24 400 -31L367 -79L330 -33H305V-236H396C402 -236 406 -237 406 -240C406 -242 403 -246 397 -253L360 -295L330 -256H305V-441H415C422 -441 426 -442 426 -444C426 -447 423 -451 417 -458ZM175 -256V-441H265V-256ZM175 -461V-628H265V-461ZM175 -33V-236H265V-33ZM554 -316L533 -280H455L411 -320C413 -289 414 -245 414 -200V-52C414 -40 412 13 412 25C412 36 413 40 418 40C421 40 426 38 432 35C452 24 454 20 454 10V-50H543V9C543 19 544 24 549 24C551 24 587 11 587 -8C587 -10 586 -13 586 -16C584 -38 583 -62 583 -90V-256L606 -266C611 -268 614 -270 614 -273C614 -275 611 -277 606 -281ZM454 -70V-260H543V-70ZM451 -833C483 -795 492 -755 492 -732C492 -710 495 -702 509 -702C527 -702 547 -725 547 -748C547 -779 504 -813 458 -843ZM782 -834C817 -791 826 -761 826 -729C826 -699 829 -696 847 -696C864 -696 881 -719 881 -742C881 -747 881 -752 879 -756C871 -780 840 -810 790 -842ZM247 -830C278 -790 290 -756 292 -718C294 -687 296 -683 312 -683C328 -683 342 -704 342 -727C342 -751 321 -788 257 -838ZM583 -710L550 -663H454C423 -663 402 -664 381 -667L409 -632C426 -639 455 -643 476 -643H624C632 -643 635 -644 635 -647C635 -649 633 -653 628 -659ZM533 -583L504 -544H461C430 -544 409 -545 388 -548L416 -513C433 -520 462 -524 483 -524H569C576 -524 580 -525 580 -528C580 -531 577 -534 573 -539ZM567 -449L538 -409H457C434 -409 407 -410 384 -413L412 -378C429 -385 458 -389 479 -389H603C612 -389 616 -390 616 -393C616 -396 613 -400 607 -406Z"/>
</svg>