<svg xmlns="http://www.w3.org/2000/svg" viewBox="0 -1000 1000 1000">
	<path fill="#000000" d="M452 -554L474 -565C478 -567 479 -569 479 -571C479 -574 477 -577 472 -580L423 -612L399 -586H206L150 -621C152 -596 154 -565 154 -533V-418C154 -412 150 -352 150 -339C150 -330 152 -326 158 -326C161 -326 167 -328 175 -331C194 -338 196 -341 196 -354V-426H408C408 -379 408 -369 373 -369C356 -369 333 -372 299 -378L298 -363C371 -352 382 -344 391 -321C392 -317 397 -315 401 -315C405 -315 439 -325 448 -357C481 -344 498 -327 511 -300C516 -290 520 -285 527 -285C546 -285 551 -303 551 -315C551 -326 548 -337 539 -344C524 -356 497 -366 450 -371C452 -380 452 -391 452 -405ZM196 -566H408V-517H196ZM408 -447H196V-496H408ZM886 -323L849 -281H135C112 -281 88 -283 63 -285L94 -249C111 -256 136 -260 157 -260H931C938 -260 942 -262 942 -265C942 -268 939 -272 933 -277ZM261 -656C264 -660 266 -666 266 -672C266 -695 244 -715 221 -727H369C365 -709 359 -694 338 -656ZM108 -656C85 -656 60 -657 35 -658L63 -625C80 -632 109 -634 130 -634H529C537 -634 541 -636 541 -641C541 -644 539 -648 533 -654L492 -690L462 -656H363C393 -691 399 -696 409 -699C417 -702 422 -705 422 -708C422 -712 419 -714 390 -727H502C510 -727 515 -729 515 -733C515 -736 512 -740 506 -746L464 -785L431 -748H145C122 -748 97 -749 72 -751L100 -717C124 -727 158 -727 192 -727C212 -707 218 -696 221 -681C224 -669 227 -661 230 -656ZM744 -62V7H259V-62ZM744 27V67C744 76 745 80 750 80C753 80 791 71 791 54C791 44 788 -3 788 -12V-46C812 -62 815 -64 815 -69C815 -73 813 -76 807 -80L752 -116L729 -83H257L213 -117C216 -72 216 -55 216 3C216 15 212 68 212 79C212 85 214 88 218 88C223 88 229 86 240 81C258 74 259 69 259 57V27ZM226 -838C269 -811 286 -795 297 -779C309 -761 313 -757 321 -757C332 -757 347 -769 347 -785C347 -822 290 -836 231 -845ZM600 -487H844C853 -487 857 -488 857 -491C857 -494 854 -498 848 -504L813 -536L788 -506H600V-549H858C865 -549 868 -550 868 -553C868 -556 865 -560 859 -565L824 -596L799 -568H600V-611H824C823 -605 824 -601 832 -601C836 -601 842 -602 850 -604C868 -608 871 -611 871 -619C871 -624 869 -647 869 -652V-679C891 -689 893 -690 893 -695C893 -699 890 -702 884 -706L840 -733L820 -706H601V-755H927C933 -755 937 -758 937 -762C937 -765 935 -769 930 -774L886 -817L851 -776H601V-792C625 -804 627 -806 627 -810C627 -813 624 -816 618 -819L558 -847C559 -831 560 -815 560 -793V-714L537 -695L581 -667C584 -665 587 -664 590 -664C593 -664 595 -666 612 -685H826V-633H604L553 -657C555 -626 557 -586 557 -551V-414C557 -361 567 -347 615 -344C632 -343 742 -341 821 -341C918 -341 930 -341 955 -379C956 -381 957 -382 957 -384C957 -387 955 -389 950 -391C930 -399 926 -418 927 -467H912C906 -396 895 -378 866 -376C856 -375 819 -375 779 -375C723 -375 659 -375 643 -376C605 -377 600 -382 600 -421H854C863 -421 868 -423 868 -427C868 -430 864 -435 858 -441L830 -469L802 -441H600ZM757 -188L726 -151H266C243 -151 218 -153 194 -155L227 -123C244 -129 267 -131 288 -131H795C803 -131 807 -132 807 -135C807 -138 805 -141 800 -146ZM759 -253L728 -217H258C235 -217 210 -219 186 -221L213 -186C230 -193 259 -197 280 -197H804C808 -197 811 -199 811 -203C811 -205 809 -208 806 -211Z"/>
</svg>