<svg xmlns="http://www.w3.org/2000/svg" viewBox="0 -1000 1000 1000">
	<path fill="#000000" d="M521 -828C576 -622 687 -494 864 -409C870 -406 873 -405 876 -405C879 -405 882 -407 885 -411C903 -434 919 -442 969 -446V-458C849 -477 771 -510 695 -577C800 -688 850 -714 886 -721C891 -722 894 -724 894 -727C894 -729 892 -732 888 -736L831 -792L802 -759H567C557 -781 547 -804 538 -829ZM808 -737L682 -589C642 -629 608 -678 578 -737ZM247 -398C249 -367 250 -347 250 -311V-248C250 -234 245 -172 245 -159C245 -149 247 -145 253 -145C262 -145 295 -155 295 -176V-195H714C714 -170 714 -167 721 -167C725 -167 731 -169 741 -173C758 -180 762 -184 762 -199C762 -213 759 -274 759 -286V-322L789 -339C792 -341 794 -343 794 -345C794 -346 792 -348 789 -350L728 -392L706 -354H306ZM295 -216V-333H714V-216ZM422 -739H249L272 -774C277 -782 290 -791 306 -795C311 -796 313 -798 313 -800C313 -802 312 -805 308 -807L246 -845C220 -767 142 -638 44 -503L56 -494C83 -524 107 -552 130 -579C154 -549 172 -515 174 -489C175 -473 178 -464 194 -464C205 -464 220 -477 220 -499C220 -544 150 -586 140 -592C162 -618 182 -644 200 -670C225 -651 253 -611 266 -571C268 -564 275 -557 288 -557C299 -557 308 -579 308 -598C308 -627 278 -647 208 -681C219 -695 225 -705 234 -717H422C347 -544 207 -403 40 -302L47 -289C144 -334 230 -394 304 -471L323 -447C340 -454 369 -458 390 -458H728C735 -458 738 -459 738 -461C738 -463 736 -466 731 -471L675 -528L638 -479H368C351 -479 333 -480 314 -481C369 -540 420 -608 459 -680C464 -690 477 -702 500 -714C503 -716 505 -717 505 -720C505 -722 503 -724 500 -727L448 -771ZM77 36C93 30 123 26 144 26H944C952 26 956 25 956 22C956 19 953 15 946 8L882 -53L832 4H580C684 -96 708 -110 739 -115C745 -116 748 -120 748 -124C748 -126 747 -128 745 -130L682 -176C654 -127 621 -81 557 4H122C99 4 73 2 49 0ZM284 -149C340 -101 356 -78 364 -38C369 -15 380 -8 391 -8C408 -8 420 -33 420 -55C420 -90 383 -115 291 -159Z"/>
</svg>