<svg xmlns="http://www.w3.org/2000/svg" viewBox="0 -1000 1000 1000">
	<path fill="#000000" d="M816 -834C770 -790 729 -752 688 -719C633 -741 566 -765 485 -790L480 -779C551 -748 611 -720 658 -694C600 -648 540 -607 467 -561L474 -549C553 -584 625 -623 697 -674C755 -642 792 -616 810 -596C828 -575 842 -566 851 -566C859 -566 868 -576 868 -590C868 -624 833 -653 731 -700C758 -719 780 -737 805 -758C822 -772 838 -777 856 -778C865 -779 869 -780 869 -783C869 -785 866 -789 860 -794ZM655 -312V-118C655 -90 652 55 652 59C652 71 655 77 663 77C667 77 673 75 681 71C699 62 703 60 703 46V39C700 0 699 -57 699 -125V-312H831V-107C831 -83 831 -72 809 -72C794 -72 767 -78 722 -89L719 -75C789 -51 798 -39 803 -13C804 -8 807 -5 811 -5C813 -5 815 -6 818 -7C872 -28 877 -37 877 -102V-300C904 -315 907 -316 907 -321C907 -324 904 -327 899 -331L845 -371L816 -335H699V-385C723 -400 726 -402 726 -406C726 -408 724 -411 719 -413L652 -450C654 -418 655 -382 655 -335H516C544 -375 570 -417 597 -465H964C973 -465 977 -467 977 -472C977 -476 974 -481 968 -487L911 -544L873 -487H609C637 -540 641 -546 661 -554C667 -557 670 -559 670 -562C670 -565 667 -568 661 -571L602 -605C588 -564 573 -525 556 -487H466C443 -487 418 -489 393 -491L421 -454C438 -461 467 -465 488 -465H547C503 -370 447 -282 366 -183L377 -172C420 -216 456 -256 488 -297V-172C488 -123 487 -75 485 -41V-34C485 -24 486 -20 492 -20C495 -20 501 -22 508 -25C529 -34 535 -38 535 -51V-54C533 -93 532 -138 532 -179V-312ZM42 -452C98 -493 143 -534 186 -578C194 -565 202 -552 208 -540C150 -431 118 -382 45 -298L54 -285C139 -366 176 -403 229 -495C239 -469 246 -443 252 -413C153 -231 118 -188 33 -95L41 -82C126 -153 181 -203 263 -350C270 -302 274 -247 274 -197C274 -38 250 -25 200 -25C175 -25 139 -31 89 -41L86 -26C183 0 200 15 203 53C204 56 205 58 207 58C210 58 215 56 223 52C292 16 322 -32 322 -153C322 -243 316 -334 289 -420C342 -380 366 -349 375 -322C382 -302 389 -297 399 -297C408 -297 422 -313 422 -332C422 -381 318 -426 283 -440C280 -449 276 -459 272 -467C372 -551 386 -561 408 -563C418 -564 423 -567 423 -570C423 -574 419 -578 411 -583L365 -613C343 -573 313 -533 265 -483C248 -522 222 -561 197 -589C233 -627 268 -668 305 -715H452C463 -715 469 -716 469 -719C469 -722 466 -725 460 -731L400 -791L353 -737H92C72 -737 56 -737 35 -739L70 -706C81 -712 97 -715 110 -715H249C177 -611 132 -557 33 -463Z"/>
</svg>