<svg xmlns="http://www.w3.org/2000/svg" viewBox="0 -1000 1000 1000">
	<path fill="#000000" d="M352 -810L324 -768H171L110 -821C112 -790 113 -742 113 -718V-311C113 -247 112 -206 110 -181C110 -176 109 -171 109 -168C109 -157 111 -152 116 -152C120 -152 127 -155 136 -160C153 -169 155 -174 155 -185V-222H338V-190C338 -183 339 -179 343 -179C346 -179 352 -181 360 -186C377 -196 381 -201 381 -211V-216C380 -242 380 -279 380 -417V-733C410 -750 413 -752 413 -756C413 -759 410 -762 404 -767ZM155 -423V-579H338V-423ZM155 -601V-746H338V-601ZM155 -244V-401H338V-244ZM831 -796L801 -750H547L489 -797C491 -766 492 -723 492 -699V-536C492 -465 492 -394 491 -375V-367C491 -355 492 -350 498 -350C501 -350 506 -352 512 -355C535 -366 537 -368 537 -380V-425H820V-380C820 -369 821 -364 826 -364C827 -364 867 -381 867 -396V-400C865 -421 865 -447 865 -519V-711L891 -729C896 -732 898 -735 898 -737C898 -740 895 -744 889 -749ZM537 -447V-728H820V-447ZM916 -185C907 0 904 7 841 7C761 7 758 7 758 -43V-345C783 -360 785 -362 785 -365C785 -367 782 -371 775 -375L712 -416C714 -382 715 -321 715 -284V-38C715 44 723 48 845 48C931 48 946 45 969 -13C970 -16 971 -18 971 -20C971 -24 968 -27 962 -30C935 -45 934 -70 934 -185ZM579 -420C569 -115 565 -46 330 74L337 88C578 4 616 -85 622 -352L642 -365C648 -369 651 -371 651 -374C651 -377 647 -380 639 -385ZM274 -175C335 -121 360 -68 373 -21C377 -7 382 -1 390 -1C410 -1 427 -23 427 -49C427 -84 372 -141 282 -187ZM186 -184C158 -113 74 23 17 85L28 95C78 54 142 -14 206 -109C217 -126 220 -128 238 -137C247 -142 251 -145 251 -147C251 -150 247 -153 239 -157Z"/>
</svg>