<svg xmlns="http://www.w3.org/2000/svg" viewBox="0 -1000 1000 1000">
	<path fill="#000000" d="M980 -355C862 -374 814 -404 729 -507H921C928 -507 932 -509 932 -513C932 -517 930 -521 924 -527L868 -581L827 -527H560C578 -558 594 -592 607 -629H877C885 -629 889 -631 889 -635C889 -638 886 -642 880 -648L828 -700L791 -648H696C792 -743 802 -749 828 -754C836 -756 841 -757 841 -760C841 -763 837 -766 829 -771L776 -804C744 -746 726 -720 671 -648H614C623 -671 637 -725 646 -769C649 -785 658 -794 681 -800C688 -802 692 -805 692 -807C692 -810 689 -813 683 -816L611 -854C603 -775 589 -708 567 -648H437C414 -648 389 -649 364 -652L392 -618C409 -625 438 -629 459 -629H561C549 -595 532 -560 513 -527H394C371 -527 346 -529 321 -531L349 -496C366 -503 395 -507 416 -507H501C456 -435 394 -366 316 -303V-718C347 -736 351 -738 351 -742C351 -745 348 -749 342 -753L285 -796L258 -754H150L92 -807C94 -773 95 -713 95 -665V-358C95 -135 80 -53 17 66L29 74C108 -42 138 -138 139 -322H272V-51C272 -30 269 -20 237 -20C218 -20 189 -23 143 -30L140 -15C230 11 243 19 248 57C249 63 250 66 253 66C255 66 257 65 260 63C312 29 316 20 316 -46V-280C362 -313 412 -353 439 -378V-180C439 -119 439 -116 438 -71C438 -57 439 -51 447 -51C451 -51 457 -53 465 -56C483 -63 483 -65 483 -95H775C775 -64 775 -60 781 -60C786 -60 821 -70 821 -87V-91C819 -115 819 -128 819 -169V-367C839 -352 854 -341 890 -318C893 -316 896 -315 899 -315C902 -315 905 -317 909 -322C918 -333 933 -339 980 -341ZM483 -378H775V-307H483ZM775 -211H483V-287H775ZM467 -406C498 -437 525 -470 548 -507H703C724 -470 743 -442 770 -412L759 -398H488ZM483 -115V-192H775V-115ZM139 -732H272V-553H139ZM272 -344H139V-532H272ZM409 -790C456 -748 467 -716 470 -694C473 -672 478 -666 488 -666C501 -666 524 -684 524 -713C524 -742 505 -758 417 -799ZM349 74C432 46 455 33 543 -17C560 -27 577 -30 589 -31C597 -32 601 -33 601 -36C601 -38 597 -42 591 -45L544 -72C470 -13 433 11 343 60ZM663 -43C789 -5 808 3 845 44C858 59 869 66 879 66C886 66 901 61 901 43C901 34 898 24 890 13C873 -11 851 -25 666 -57Z"/>
</svg>