<svg xmlns="http://www.w3.org/2000/svg" viewBox="0 -1000 1000 1000">
	<path fill="#000000" d="M843 -464L818 -430H574L521 -474C522 -441 523 -406 523 -370V-185C523 -144 522 -111 520 -80V-77C520 -71 521 -69 525 -69C530 -69 564 -79 564 -92V-112H830C830 -78 830 -74 836 -74C840 -74 845 -76 853 -79C870 -87 876 -89 876 -102V-108C873 -136 873 -165 873 -219V-392L901 -408C906 -411 908 -413 908 -415C908 -416 906 -418 903 -420ZM564 -236V-312H830V-236ZM564 -332V-410H830V-332ZM564 -132V-216H830V-132ZM438 -94L401 -49H336V-284H378C378 -255 378 -252 385 -252C388 -252 394 -254 401 -257C417 -264 421 -268 421 -282C421 -288 419 -334 419 -344V-505L445 -521C449 -524 451 -526 451 -528C451 -529 449 -531 447 -533L394 -575L369 -538H339V-724H469C474 -724 477 -725 477 -727C477 -729 475 -731 473 -734L420 -792L384 -746H170L106 -809C107 -785 108 -757 108 -716V-57L69 -31L132 11C135 13 137 14 138 14C140 14 142 13 144 10L171 -27H484C491 -27 494 -28 494 -31C494 -32 492 -35 489 -39ZM256 -306V-516H378V-306ZM263 -538L213 -581C214 -555 215 -537 215 -500V-307C215 -297 212 -252 212 -242C212 -239 213 -237 217 -237C222 -237 256 -247 256 -260V-284H297V-49H151V-724H300V-538ZM913 -564L877 -521H717V-607H909C913 -607 914 -608 914 -609C914 -610 913 -612 910 -614L857 -669L822 -627H717V-710H952C955 -710 956 -711 956 -712C956 -713 955 -714 953 -716L897 -773L858 -730H717V-793L747 -810C751 -812 752 -814 752 -815C752 -817 751 -819 747 -820L672 -855C674 -824 675 -784 675 -730H528C514 -730 500 -731 483 -734L507 -704C521 -708 544 -710 564 -710H675V-627H533C517 -627 498 -628 482 -630L506 -597C518 -603 535 -607 549 -607H675V-521H516C500 -521 481 -522 464 -524L485 -492C497 -498 515 -501 536 -501H967C971 -501 973 -502 973 -504C973 -505 972 -507 969 -509ZM633 -83C576 -34 458 45 364 89L369 102C444 79 542 32 628 -16C642 -24 667 -32 680 -32C684 -32 687 -33 687 -34C687 -35 685 -37 682 -40ZM721 -44C822 -1 871 36 913 78C928 94 932 96 935 96C944 96 957 85 957 65C957 18 920 -9 726 -57Z"/>
</svg>