<svg xmlns="http://www.w3.org/2000/svg" viewBox="0 -1000 1000 1000">
	<path fill="#000000" d="M841 -283C841 -245 841 -241 848 -241C852 -241 858 -243 867 -247C887 -255 892 -259 892 -272C892 -274 891 -277 891 -281C888 -312 886 -364 886 -399V-497L919 -515C925 -518 928 -521 928 -523C928 -526 925 -530 919 -534L858 -578L831 -535H711C783 -644 821 -678 855 -681C860 -682 864 -683 864 -686C864 -688 862 -690 857 -694L791 -746L769 -715H639C648 -732 656 -749 667 -770C671 -777 679 -783 695 -787C706 -790 712 -792 712 -796C712 -799 708 -802 701 -806L635 -843C612 -759 554 -619 490 -499L439 -546L405 -502H302V-648H459C466 -648 470 -651 470 -656C470 -659 468 -664 463 -668L409 -717L374 -670H302V-776C326 -791 328 -793 328 -798C328 -801 326 -804 320 -807L254 -838C256 -803 258 -759 258 -720V-670H176C155 -670 132 -672 110 -674L135 -638C150 -644 177 -648 196 -648H258V-502H118C97 -502 74 -504 52 -506L77 -470C92 -476 119 -480 138 -480H195C186 -176 162 -96 57 47L65 57C192 -94 228 -170 239 -480H324V-56C324 -38 321 -28 285 -28C269 -28 245 -31 212 -35L210 -23C273 -2 293 9 297 33C298 38 300 41 304 41C305 41 308 40 310 39C363 14 369 0 369 -40V-365C419 -302 438 -260 445 -207C447 -191 456 -186 465 -186C480 -186 493 -202 493 -227C493 -239 489 -253 481 -269C463 -302 429 -341 369 -393V-480H480C470 -460 458 -439 447 -420L459 -411C473 -427 493 -453 515 -489V-40C515 43 543 49 736 49C920 49 945 40 974 -23C975 -26 976 -28 976 -30C976 -34 973 -36 968 -38C942 -47 933 -74 933 -192L917 -194C906 -17 899 -9 854 2C835 7 768 9 703 9C564 9 560 3 560 -38V-283ZM678 -513V-305H560V-513ZM723 -305V-513H841V-305ZM769 -694L690 -535H565L549 -547C576 -595 591 -623 628 -694ZM101 -409C93 -323 70 -213 32 -96L46 -93C75 -150 102 -218 134 -335C137 -347 144 -353 158 -361C162 -364 164 -366 164 -369C164 -372 162 -374 159 -376Z"/>
</svg>