<svg xmlns="http://www.w3.org/2000/svg" viewBox="0 -1000 1000 1000">
	<path fill="#000000" d="M667 -436H528L550 -600C592 -605 624 -610 667 -618ZM714 -627C745 -634 779 -642 821 -653C829 -655 838 -657 848 -657C860 -657 873 -655 884 -651C889 -649 893 -649 896 -649C900 -649 902 -650 902 -653C902 -656 899 -661 894 -667L858 -713C797 -688 783 -683 714 -661V-776C721 -783 732 -795 732 -797C732 -799 731 -800 729 -801L663 -834C666 -769 667 -715 667 -649C639 -641 620 -637 565 -624L513 -667C511 -642 506 -600 502 -570L486 -454L445 -426L492 -389C499 -384 503 -381 507 -381C512 -381 516 -384 521 -390L543 -414H622C556 -277 490 -194 353 -91L359 -77C514 -173 594 -248 667 -399V-270C667 -213 666 -123 664 -64V-55C664 -38 666 -32 674 -32C678 -32 685 -34 694 -38C714 -47 718 -51 718 -65V-72C715 -117 714 -202 714 -278V-414H866C867 -368 862 -297 853 -264C844 -231 837 -215 811 -215C794 -215 768 -223 727 -237L723 -221C786 -197 795 -184 796 -151C796 -145 799 -142 805 -142C808 -142 811 -142 815 -144C893 -176 901 -194 912 -393L941 -408C947 -411 949 -414 949 -417C949 -421 947 -424 942 -428L882 -474L854 -436H714ZM236 -475H103C80 -475 55 -477 30 -479L58 -442C75 -449 104 -453 125 -453H262V-55C211 -98 178 -138 149 -198C159 -238 168 -284 176 -336C204 -351 208 -353 208 -356C208 -358 205 -360 200 -362L128 -390C121 -201 85 -52 17 57L29 67C74 11 112 -57 142 -171C209 -29 282 18 394 33C470 43 685 53 865 56C874 56 881 54 882 50C889 25 900 13 970 -5L968 -18C834 -6 716 -1 617 -1C472 -1 367 -12 308 -31V-274H452C460 -274 464 -276 464 -280C464 -283 461 -288 455 -293L404 -341L373 -296H308V-453H449C457 -453 461 -454 461 -458C461 -460 458 -465 451 -471L398 -522L367 -475H280V-641H426C435 -641 439 -642 439 -645C439 -648 436 -652 429 -659L378 -710L344 -663H280V-786C308 -803 311 -805 311 -808C311 -810 307 -813 300 -817L233 -850C235 -817 236 -757 236 -721V-663H144C121 -663 96 -664 71 -667L99 -630C116 -637 145 -641 166 -641H236Z"/>
</svg>