<svg xmlns="http://www.w3.org/2000/svg" viewBox="0 -1000 1000 1000">
	<path fill="#000000" d="M527 -406L384 -376L413 -331C416 -329 418 -327 421 -327C424 -327 427 -329 431 -332C446 -346 467 -356 483 -363L668 -421L664 -435L567 -415V-501H649C658 -501 663 -503 663 -507C663 -509 660 -513 656 -518L622 -556L600 -522H567V-568C578 -575 597 -586 597 -589C597 -591 594 -593 588 -596L524 -623C526 -590 527 -558 527 -522H468C447 -522 431 -524 409 -526L434 -493C449 -499 468 -501 491 -501H527ZM763 -396H686C665 -396 649 -398 627 -400L652 -369C667 -375 687 -377 706 -377H935C945 -377 950 -378 950 -381C950 -383 948 -387 943 -392L896 -441L864 -396H803V-497H909C919 -497 924 -498 924 -501C924 -503 921 -507 916 -512L870 -558L837 -516H803V-562C825 -578 828 -579 828 -583C828 -585 825 -588 820 -590L761 -623C762 -598 763 -573 763 -516H726C705 -516 689 -518 667 -520L692 -489C712 -497 734 -497 763 -497ZM693 -792L722 -807C727 -810 730 -812 730 -814C730 -816 726 -819 719 -822L650 -852C652 -818 653 -795 653 -757H538C517 -757 494 -759 472 -761L497 -724C512 -730 539 -735 558 -735H653V-652H490C468 -652 443 -654 420 -656L447 -622C462 -628 491 -632 511 -632H921C931 -632 936 -633 936 -637C936 -640 933 -645 926 -652L882 -699L846 -652H693V-735H854C865 -735 870 -736 870 -740C870 -743 867 -747 861 -753L816 -802L780 -757H693ZM713 -284V-138C713 -75 730 -51 811 -51C902 -51 920 -71 942 -105C944 -108 945 -111 945 -113C945 -117 943 -120 938 -123C914 -138 908 -152 908 -231H892C888 -101 880 -92 817 -92C762 -92 757 -105 757 -133V-284H919C929 -284 934 -285 934 -288C934 -290 930 -295 923 -301L872 -346L841 -304H516C494 -304 469 -306 446 -308L474 -273C489 -280 515 -284 537 -284H585C576 -157 550 -119 404 -40L410 -27C580 -99 620 -138 632 -284ZM220 -465H106C83 -465 58 -467 33 -469L61 -432C78 -439 107 -443 128 -443H245V-63C195 -96 170 -125 139 -181C147 -220 153 -267 159 -328L187 -339C192 -341 195 -343 195 -345C195 -348 192 -350 187 -352L115 -380C112 -175 90 -90 22 57L32 63C87 -23 115 -73 133 -151C197 -38 269 8 381 23C540 44 656 51 866 52C873 52 876 50 877 46C884 21 887 14 969 -3L967 -16C848 -6 742 -1 650 -1C477 -1 355 -17 289 -41V-258H410C418 -258 421 -260 421 -263C421 -266 419 -271 413 -277L374 -319L345 -280H289V-443H418C426 -443 430 -444 430 -448C430 -450 427 -455 420 -461L368 -512L337 -465H264V-637H388C397 -637 401 -639 401 -642C401 -646 398 -650 391 -657L348 -708L316 -661H264V-774C292 -791 295 -793 295 -796C295 -798 291 -801 284 -805L217 -838C219 -805 220 -745 220 -709V-661H149C126 -661 101 -662 76 -665L104 -626C121 -633 150 -637 171 -637H220Z"/>
</svg>