<svg xmlns="http://www.w3.org/2000/svg" viewBox="0 -1000 1000 1000">
	<path fill="#000000" d="M138 -801C140 -770 141 -712 141 -681V-570C141 -554 138 -485 138 -471C138 -463 139 -460 145 -460C149 -460 156 -462 166 -467C186 -476 186 -479 186 -505H257V-87L172 -64V-344C197 -359 200 -361 200 -364C200 -367 197 -369 192 -372L124 -410C126 -380 127 -341 127 -303V-51L50 -30L90 24C92 27 95 29 97 29C99 29 102 27 105 23C119 5 141 -8 215 -36L465 -129L462 -144L302 -100V-292H453C459 -292 463 -293 463 -296C463 -298 460 -302 455 -307L396 -365L355 -312H302V-505H358C358 -480 358 -478 364 -478C368 -478 374 -480 385 -484C403 -492 406 -495 406 -506C406 -517 404 -587 404 -602V-718L429 -736C434 -740 436 -743 436 -745C436 -748 434 -751 429 -754L369 -795L343 -753H195ZM186 -527V-731H358V-527ZM895 -205C875 -23 863 -6 814 -1C764 4 727 6 687 6C572 6 544 -5 544 -34C544 -82 668 -275 764 -392C773 -403 792 -413 811 -418C820 -420 824 -422 824 -425C824 -428 821 -432 814 -437L760 -485L732 -448H553C529 -448 500 -450 474 -451L506 -415C522 -422 551 -425 572 -426H730C668 -343 557 -167 525 -105C505 -67 495 -38 495 -16C495 32 548 45 682 45C880 45 906 32 935 -29C937 -34 938 -38 938 -41C938 -46 935 -48 930 -51C915 -60 909 -70 909 -117C909 -138 910 -166 912 -205ZM919 -625C927 -625 931 -626 931 -630C931 -633 928 -637 923 -642L863 -702L826 -647H582C599 -676 618 -710 639 -750C651 -772 664 -781 676 -784C686 -787 691 -790 691 -793C691 -796 687 -800 680 -804L621 -842C575 -701 501 -569 409 -436L418 -428C474 -487 514 -533 569 -625Z"/>
</svg>