<svg xmlns="http://www.w3.org/2000/svg" viewBox="0 -1000 1000 1000">
	<path fill="#000000" d="M104 -808C106 -777 107 -751 107 -720V-567C107 -551 104 -482 104 -468C104 -460 105 -457 111 -457C115 -457 122 -459 132 -464C149 -472 152 -475 152 -484V-502H234V-78L140 -48V-339C165 -354 168 -356 168 -359C168 -362 165 -364 160 -367L94 -405C96 -375 97 -336 97 -298V-35L26 -13L66 49C68 52 70 54 73 54C75 54 78 52 81 48C91 35 117 17 173 -9L408 -116L405 -131L277 -91V-289H419C423 -289 425 -291 425 -295C425 -297 424 -301 421 -304L372 -360L335 -309H277V-502H324C324 -477 324 -475 330 -475C334 -475 340 -477 351 -481C369 -489 372 -492 372 -503C372 -514 370 -584 370 -599V-721L395 -739C400 -743 402 -745 402 -748C402 -751 400 -754 395 -757L335 -802L309 -760H161ZM152 -524V-738H324V-524ZM849 -265C697 -93 508 14 318 71L322 86C500 55 688 -42 859 -189C872 -200 883 -204 894 -204C905 -205 911 -207 911 -211C911 -213 908 -217 902 -222ZM754 -406C675 -305 576 -222 429 -142L439 -126C556 -174 653 -238 750 -322C764 -335 776 -341 797 -344C808 -346 814 -348 814 -351C814 -354 810 -359 803 -365ZM686 -563C588 -438 543 -389 434 -314L443 -298C552 -358 585 -382 692 -481C706 -494 718 -501 729 -503C738 -505 743 -507 743 -511C743 -514 739 -519 731 -526ZM639 -845C563 -661 529 -603 371 -433L380 -423C504 -528 590 -627 661 -756C666 -765 671 -772 675 -776C730 -614 798 -528 887 -448C891 -445 894 -443 897 -443C899 -443 901 -444 902 -446C916 -464 931 -473 985 -473L986 -486C870 -519 761 -610 690 -787C694 -789 699 -791 704 -793C712 -796 716 -798 716 -801C716 -803 712 -806 706 -809Z"/>
</svg>