<svg xmlns="http://www.w3.org/2000/svg" viewBox="0 -1000 1000 1000">
	<path fill="#000000" d="M370 -357L330 -309H276V-520H319C319 -503 319 -498 325 -498C329 -498 335 -500 345 -505C362 -513 365 -517 365 -530C365 -553 363 -653 363 -673V-736L390 -757C394 -760 396 -763 396 -765C396 -768 394 -770 390 -774L335 -821L310 -779H170L116 -825C118 -794 119 -746 119 -722V-587C119 -564 119 -526 117 -498C116 -491 116 -485 116 -481C116 -472 118 -468 123 -468C127 -468 134 -470 143 -474C163 -482 163 -486 163 -520H231V-72L138 -43V-342C168 -360 168 -360 168 -364C168 -366 165 -369 158 -373L90 -411C92 -374 94 -306 94 -265V-29L16 -5L52 54C54 57 55 58 57 58C59 58 61 56 64 52C75 36 81 30 147 1L418 -116L415 -130L276 -86V-289H417C423 -289 427 -290 427 -292C427 -295 424 -298 419 -304ZM163 -542V-757H319V-542ZM566 -835C521 -705 414 -490 349 -401L359 -392C390 -426 431 -484 471 -547V-139C471 -111 467 14 467 39C467 56 469 62 476 62C480 62 487 60 497 55C517 45 521 42 521 28V21C518 -24 517 -75 517 -137V-532C540 -551 542 -553 542 -556C542 -558 539 -559 534 -561L489 -576C526 -635 560 -695 586 -742C598 -764 601 -767 627 -775C635 -778 639 -780 639 -782C639 -785 635 -789 627 -794ZM917 -619L872 -563H829V-768L853 -786C858 -790 861 -793 861 -795C861 -798 858 -800 851 -804L780 -839C782 -804 783 -732 783 -693V-563H630C609 -563 586 -565 564 -567L589 -531C604 -537 631 -541 650 -541H783V-42C783 -18 778 -5 744 -5C720 -5 682 -11 623 -24L621 -9C714 20 733 32 741 64C743 73 745 77 750 77C753 77 756 76 760 74C822 43 829 29 829 -32V-541H966C975 -541 979 -542 979 -545C979 -548 977 -551 972 -557ZM570 -422C622 -369 641 -313 641 -274C641 -250 647 -237 661 -237C676 -237 699 -267 699 -295C699 -349 625 -401 576 -431Z"/>
</svg>