<svg xmlns="http://www.w3.org/2000/svg" viewBox="0 -1000 1000 1000">
	<path fill="#000000" d="M969 -330C975 -330 978 -331 978 -334C978 -337 976 -340 972 -345L919 -409L875 -352H791V-615H919C926 -615 930 -616 930 -619C930 -621 927 -625 923 -630L869 -696L826 -638H732C838 -792 844 -799 869 -809C874 -811 877 -813 877 -815C877 -817 874 -819 869 -822L808 -855C790 -800 739 -687 710 -638H502C479 -638 454 -639 429 -642L457 -604C470 -610 497 -614 526 -615C527 -585 527 -556 527 -527C527 -469 526 -411 523 -352H479C456 -352 431 -353 406 -356L434 -319C461 -330 495 -330 521 -330C509 -130 457 -25 294 88L301 96C484 4 547 -100 566 -330H745V-110C745 -53 744 2 742 61V67C742 80 744 86 752 86C757 86 764 84 773 80C791 72 795 68 795 52V46C793 9 791 -54 791 -130V-330ZM568 -352C573 -428 575 -524 573 -615H745V-352ZM116 -815C118 -784 119 -758 119 -727V-574C119 -558 116 -488 116 -474C116 -468 117 -464 123 -464C127 -464 134 -466 144 -471C161 -479 164 -482 164 -491V-509H245V-84L142 -54V-346C167 -361 170 -363 170 -366C170 -369 167 -371 162 -374L94 -412C96 -382 97 -343 97 -305V-42L22 -20L62 30C65 33 67 35 69 35C72 35 74 33 77 29C87 16 98 10 185 -24L437 -123L434 -138L290 -97V-310H423C428 -310 431 -312 431 -315C431 -318 429 -321 425 -325L376 -373L343 -332H290V-509H346C346 -484 346 -482 352 -482C356 -482 362 -484 373 -488C391 -496 394 -499 394 -510C394 -521 392 -591 392 -606V-728L417 -746C422 -750 425 -752 425 -755C425 -758 422 -761 417 -764L357 -809L331 -767H173ZM164 -531V-745H346V-531ZM459 -833C506 -797 539 -739 543 -693C544 -676 550 -668 559 -668C572 -668 596 -686 596 -724C596 -754 561 -796 465 -844Z"/>
</svg>