<svg xmlns="http://www.w3.org/2000/svg" viewBox="0 -1000 1000 1000">
	<path fill="#000000" d="M800 -558L779 -526H502L446 -565C448 -548 449 -528 449 -504V-442C449 -431 447 -378 447 -374C447 -362 449 -357 457 -357C462 -357 469 -359 478 -363C489 -368 493 -372 494 -388H790C790 -369 790 -367 796 -367C800 -367 806 -369 816 -374C835 -382 840 -386 840 -395C840 -398 840 -401 839 -405C837 -418 835 -444 835 -464V-495L854 -507C858 -509 860 -511 860 -514C860 -516 857 -519 852 -523ZM494 -408V-506H790V-408ZM325 -641L302 -604L210 -601C219 -656 230 -717 241 -783L270 -801C274 -804 276 -806 276 -808C276 -810 274 -812 269 -814L193 -851C189 -784 179 -695 165 -599L107 -597C83 -596 58 -596 34 -598L65 -562C81 -570 109 -577 131 -578L162 -579C145 -468 125 -350 106 -254C156 -228 197 -199 229 -171C191 -87 121 -9 34 65L43 78C141 13 213 -58 259 -143C298 -104 323 -66 336 -37C345 -17 352 -10 364 -10C373 -10 385 -24 385 -48C385 -58 383 -71 376 -85C364 -110 332 -142 277 -179C309 -252 334 -370 359 -566L383 -582C386 -584 388 -587 388 -589C388 -592 386 -594 383 -597ZM311 -583C295 -390 278 -293 242 -201C215 -218 183 -237 147 -256C165 -350 184 -453 206 -580ZM825 -190L802 -159H481L423 -195C425 -178 426 -158 426 -134V-23C426 -9 424 62 424 66C424 78 426 83 434 83C439 83 446 81 456 77C470 71 472 66 472 54V12H813V63C813 72 815 77 821 77C823 77 864 65 864 46C864 44 863 42 863 39C861 26 859 -2 859 -22V-123L880 -135C884 -137 885 -139 885 -142C885 -145 882 -148 878 -151ZM472 -8V-139H813V-8ZM875 -769L841 -718H665V-790C695 -809 696 -809 696 -813C696 -816 693 -818 686 -821L617 -854C619 -819 620 -795 620 -756V-718H420C397 -718 371 -720 347 -722L375 -688C391 -694 421 -698 442 -698H620V-615H510C488 -615 463 -617 440 -619L467 -585C482 -591 511 -595 531 -595H879C887 -595 892 -598 892 -602C892 -606 889 -610 884 -615L834 -663L799 -615H665V-698H931C940 -698 944 -701 944 -705C944 -708 942 -712 936 -717ZM897 -299L862 -252H702C743 -301 772 -324 786 -327C794 -329 797 -331 797 -333C797 -335 795 -338 790 -340L738 -369C723 -331 704 -292 681 -252H579C587 -260 593 -274 593 -288C593 -311 573 -335 512 -367L503 -361C532 -331 543 -300 548 -272C550 -262 552 -256 555 -252H410C388 -252 363 -254 340 -256L367 -222C382 -228 411 -232 431 -232H944C953 -232 957 -235 957 -240C957 -244 955 -248 949 -253Z"/>
</svg>