<svg xmlns="http://www.w3.org/2000/svg" viewBox="0 -1000 1000 1000">
	<path fill="#000000" d="M836 -748H435C411 -748 387 -750 364 -752L369 -745C354 -758 336 -770 320 -781L298 -749H170L122 -786C123 -763 125 -740 125 -718V-551C125 -536 123 -470 123 -456C123 -450 124 -441 131 -441C137 -441 145 -446 150 -449C164 -456 167 -465 167 -476C167 -482 166 -490 166 -499H223V-100L149 -76V-326C154 -329 178 -342 178 -349C178 -353 173 -356 170 -358L104 -393C106 -347 107 -301 107 -255V-62L38 -39C43 -33 79 9 83 9C86 9 88 6 90 4C104 -13 145 -34 165 -43L372 -134L368 -147L265 -113V-287H382C384 -287 395 -287 395 -291C395 -297 349 -344 343 -350L313 -306H265V-499H306C306 -471 306 -466 312 -466C317 -466 325 -471 330 -473C348 -482 349 -486 349 -506C349 -577 348 -647 348 -718C370 -731 373 -733 373 -741L392 -715C409 -721 423 -725 441 -726V-126L351 -106C356 -99 384 -52 391 -52C394 -52 396 -55 398 -57C419 -84 460 -97 491 -106L613 -141V-45C613 -8 611 28 611 65C611 72 611 82 620 82C627 82 638 78 644 75C656 70 663 68 663 54C663 49 662 45 662 41C659 7 657 -27 657 -61V-154L724 -173L720 -189L657 -175V-726H931C934 -726 942 -726 942 -730C942 -738 886 -790 879 -797ZM485 -361V-530H613V-361ZM485 -552V-726H613V-552ZM485 -136V-339H613V-165ZM166 -519V-729H306V-519ZM917 -187C917 -35 908 -20 848 -20C803 -20 789 -25 789 -73V-600C794 -603 816 -616 816 -622C816 -630 752 -664 742 -670C744 -630 745 -590 745 -550V-57C745 -6 747 20 831 20C916 20 944 20 968 -32C969 -34 970 -37 970 -39C970 -44 951 -59 948 -63C932 -88 932 -146 932 -187Z"/>
</svg>