<svg xmlns="http://www.w3.org/2000/svg" viewBox="0 -1000 1000 1000">
	<path fill="#000000" d="M902 -199L847 -139H661V-236H817C817 -200 817 -200 823 -200C826 -200 831 -201 839 -205C860 -215 864 -217 864 -225V-229C862 -254 861 -286 861 -313V-465L889 -483C893 -486 895 -488 895 -491C895 -493 893 -496 888 -499L830 -537L806 -498H472L421 -541C423 -512 424 -466 424 -443V-295C424 -280 421 -203 421 -202C421 -195 422 -192 427 -192C431 -192 437 -194 447 -198C466 -205 466 -208 466 -236H616V-139H426C403 -139 378 -141 353 -143L381 -107C398 -114 427 -118 448 -118H616C616 -32 616 7 613 54C613 60 612 65 612 69C612 82 614 87 620 87C624 87 631 84 640 79C659 69 663 66 663 49C663 22 661 -94 661 -118H947C955 -118 960 -119 960 -123C960 -126 957 -130 952 -137ZM661 -382V-475H817V-382ZM466 -382V-475H616V-382ZM661 -258V-363H817V-258ZM466 -258V-363H616V-258ZM871 -798L845 -764H744L687 -815C689 -789 689 -771 689 -756V-621C689 -610 687 -559 687 -549C687 -545 688 -543 692 -543C695 -543 700 -544 708 -547C727 -553 729 -555 729 -569V-589H860V-556C860 -551 860 -548 865 -548C868 -548 874 -550 884 -553C901 -558 905 -562 905 -574C905 -576 902 -635 902 -647V-727L926 -738C932 -741 935 -743 935 -746C935 -749 932 -752 926 -756ZM729 -612V-742H860V-612ZM569 -805L548 -769H452L402 -814C404 -788 404 -770 404 -755V-624C404 -596 404 -565 402 -550C402 -548 401 -546 401 -545C401 -543 402 -542 403 -542C406 -542 411 -545 422 -550C441 -559 443 -563 443 -572V-591H562V-563C562 -556 562 -552 568 -552C572 -552 577 -553 584 -555C601 -558 604 -561 604 -574C604 -576 602 -642 602 -654V-734L624 -746C630 -749 632 -752 632 -754C632 -757 630 -760 624 -764ZM443 -612V-746H562V-612ZM305 -648L280 -608L203 -605C213 -660 223 -714 232 -765L262 -780C268 -783 271 -786 271 -788C271 -791 268 -794 263 -797L193 -844C185 -775 172 -690 158 -604L100 -602C77 -601 50 -602 25 -603L55 -567C71 -575 91 -580 115 -581L155 -582C135 -459 113 -340 99 -268C144 -241 182 -213 212 -184C169 -94 109 -28 33 48L42 59C132 -5 194 -71 241 -154C268 -122 288 -90 303 -56C316 -27 324 -24 335 -24C349 -24 361 -40 361 -63C361 -104 321 -146 259 -191C305 -290 322 -403 337 -570L367 -586C372 -589 375 -591 375 -593C375 -595 372 -598 367 -601ZM290 -584C284 -428 264 -310 225 -215C201 -231 172 -249 138 -268C155 -352 177 -465 199 -582Z"/>
</svg>