<svg xmlns="http://www.w3.org/2000/svg" viewBox="0 -1000 1000 1000">
	<path fill="#000000" d="M713 -360V-243H293V-360ZM490 -221V-2C405 -13 323 -39 269 -75C293 -107 296 -111 331 -118C337 -119 339 -121 339 -123C339 -125 338 -127 334 -129L269 -167C229 -64 153 7 43 76L49 86C140 44 200 6 257 -60C376 28 522 58 872 64C880 64 885 62 886 58C893 34 927 10 970 4V-8C884 5 793 10 705 10C646 10 589 8 535 3V-103H849C857 -103 861 -105 861 -108C861 -111 858 -116 852 -122L795 -182L753 -124H535V-221H713C713 -194 713 -191 718 -191C721 -191 727 -193 736 -197C754 -205 758 -208 758 -215C758 -223 756 -259 756 -266V-347C785 -363 788 -364 788 -370C788 -373 786 -376 780 -379L725 -414L703 -381H299C299 -381 251 -419 250 -419C251 -422 251 -425 251 -428C248 -459 247 -478 247 -519V-627C263 -637 264 -638 264 -643C264 -646 262 -650 258 -652L228 -663C254 -696 297 -754 315 -780C324 -792 331 -798 347 -802C353 -804 355 -806 355 -808C355 -810 353 -813 347 -815L290 -849C223 -707 129 -582 38 -493L47 -484C113 -534 154 -573 206 -636V-511C206 -495 203 -425 203 -411C203 -398 207 -392 214 -392C222 -392 245 -403 249 -415C251 -387 251 -367 251 -344V-249C251 -235 249 -213 249 -199C249 -195 250 -193 254 -193C257 -193 262 -195 271 -199C287 -207 291 -210 293 -221ZM350 -745C352 -728 354 -689 354 -667V-557C354 -543 350 -482 350 -470C350 -457 353 -452 360 -452C362 -452 397 -458 397 -479C397 -493 395 -555 395 -568V-690L416 -702C420 -704 422 -706 422 -708C422 -711 419 -713 414 -716ZM588 -842C541 -731 495 -655 420 -549L432 -546C474 -590 513 -635 554 -691H751C738 -638 715 -597 687 -565C647 -582 599 -600 538 -621L530 -608C588 -582 630 -560 664 -541C599 -482 504 -431 390 -406L397 -394C525 -418 619 -460 694 -522C731 -498 758 -474 791 -433C812 -407 828 -396 840 -396C852 -396 865 -410 865 -426C865 -477 751 -535 723 -548C753 -581 780 -625 806 -691H923C931 -691 934 -692 934 -695C934 -697 932 -700 927 -705L871 -755L831 -711H569C583 -730 597 -751 611 -773C619 -784 626 -789 647 -795C653 -797 656 -799 656 -801C656 -804 654 -806 649 -809Z"/>
</svg>