<svg xmlns="http://www.w3.org/2000/svg" viewBox="0 -1000 1000 1000">
	<path fill="#000000" d="M101 -783C103 -752 104 -730 104 -700V-548C104 -532 102 -464 102 -450C102 -437 103 -432 110 -432C114 -432 120 -434 129 -439C143 -447 145 -451 145 -463V-489H226V-71L139 -49V-316C165 -333 168 -335 168 -339C168 -342 166 -345 160 -348L93 -383C95 -346 97 -278 97 -237V-38L27 -21L65 31C66 33 68 35 69 35C71 35 74 33 77 29C88 15 109 4 151 -12L392 -98L388 -111L268 -81V-295H374C382 -295 385 -297 385 -300C385 -302 383 -305 380 -309L335 -358L299 -315H268V-489H311C311 -459 311 -456 317 -456C321 -456 326 -458 335 -463C351 -471 354 -474 354 -496C354 -511 353 -535 353 -575V-709C379 -723 382 -724 382 -729C382 -732 380 -735 376 -738L325 -776L303 -740H154ZM145 -509V-720H311V-509ZM541 -474C493 -399 424 -315 350 -246L359 -236C405 -269 470 -322 555 -401C560 -406 575 -416 587 -417C593 -418 596 -420 596 -423C596 -425 594 -428 590 -432ZM713 -443C818 -390 845 -366 887 -305C898 -289 907 -281 912 -281C925 -281 935 -297 935 -318C935 -331 931 -347 921 -360C901 -387 824 -423 718 -455ZM671 -321C699 -341 702 -343 702 -348C702 -351 698 -354 691 -358L623 -395C625 -360 626 -336 626 -297V-213H480C458 -213 433 -215 410 -217L437 -182C452 -188 481 -192 501 -192H626V-2H420C398 -2 373 -4 350 -6L377 30C392 24 421 20 441 20H949C958 20 963 18 963 13C963 9 960 4 954 -2L899 -58L855 -2H671V-192H878C886 -192 891 -195 891 -200C891 -203 888 -208 883 -213L830 -266L793 -213H671ZM625 -513H442C420 -513 395 -515 372 -517L399 -481C414 -487 443 -491 463 -491H927C936 -491 941 -493 941 -497C941 -501 938 -505 932 -511L878 -563L840 -513H670V-666H892C900 -666 904 -667 904 -670C904 -672 901 -677 895 -683L844 -736L806 -687H670V-779C696 -797 699 -799 699 -804C699 -808 696 -810 689 -814L622 -850C624 -815 625 -793 625 -754V-687H498C475 -687 449 -689 425 -691L453 -656C469 -662 499 -666 520 -666H625Z"/>
</svg>