<svg xmlns="http://www.w3.org/2000/svg" viewBox="0 -1000 1000 1000">
	<path fill="#000000" d="M772 -518V-385H563V-518ZM485 -689C462 -689 437 -691 412 -693L440 -657C457 -664 488 -669 518 -668V-218H453C430 -218 405 -220 380 -222L408 -186C425 -193 454 -197 475 -197H952C960 -197 965 -199 965 -203C965 -206 962 -211 956 -217L904 -271L861 -218H817V-668H940C951 -668 956 -669 956 -672C956 -675 953 -679 948 -685L902 -736L862 -689H817V-790C842 -806 844 -808 844 -811C844 -814 841 -816 833 -820L768 -851C772 -777 772 -714 772 -689H563V-790C585 -805 587 -806 587 -810C587 -813 584 -815 577 -818L514 -844C518 -770 518 -727 518 -689ZM772 -668V-539H563V-668ZM772 -364V-218H563V-364ZM126 -815C128 -784 129 -758 129 -727V-574C129 -558 126 -488 126 -474C126 -468 127 -464 133 -464C137 -464 144 -466 154 -471C171 -479 174 -482 174 -491V-509H239V-84L152 -59V-346C177 -361 180 -363 180 -366C180 -369 177 -371 172 -374L104 -412C106 -382 107 -343 107 -305V-47L32 -26L72 26C75 29 77 31 79 31C82 31 84 29 87 25C97 12 114 2 197 -30L437 -123L434 -138L283 -96V-310H431C436 -310 440 -312 440 -315C440 -317 438 -320 433 -325L384 -375L351 -332H283V-509H339C339 -484 339 -482 345 -482C349 -482 355 -484 366 -488C384 -496 387 -499 387 -510C387 -525 385 -592 385 -606V-734C414 -748 418 -750 418 -754C418 -757 415 -760 410 -764L350 -809L324 -767H183ZM174 -531V-745H339V-531ZM708 -143C797 -85 849 -19 873 34C878 45 887 55 896 55C903 55 922 43 922 16C922 3 918 -12 907 -28C882 -66 812 -112 715 -156ZM574 -157C508 -72 469 -36 348 67L356 79C436 30 482 -2 578 -83C592 -95 613 -107 622 -108C632 -109 637 -111 637 -115C637 -117 635 -120 630 -123Z"/>
</svg>