<svg xmlns="http://www.w3.org/2000/svg" viewBox="0 -1000 1000 1000">
	<path fill="#000000" d="M536 -148V-271H788V-148ZM487 -465C489 -435 490 -386 490 -362V-199C490 -158 489 -124 487 -78V-73C487 -62 489 -57 495 -57C499 -57 505 -59 513 -63C533 -73 536 -76 536 -87V-126H788V-92C788 -82 789 -77 795 -77C797 -77 838 -91 838 -108C838 -124 834 -195 834 -209V-392C861 -409 864 -411 864 -415C864 -418 861 -420 855 -424L799 -461L777 -430H543ZM536 -293V-408H788V-293ZM129 -805C131 -774 132 -748 132 -717V-574C132 -558 129 -488 129 -474C129 -468 130 -464 136 -464C140 -464 147 -466 157 -471C174 -479 177 -482 177 -491V-509H248V-84L155 -59V-346C180 -361 183 -363 183 -366C183 -369 180 -371 175 -374L107 -412C109 -382 110 -343 110 -305V-46L43 -28L83 22C86 26 88 28 90 28C92 28 94 26 98 21C108 8 139 -8 206 -34L426 -115L423 -132L293 -96V-296H434C440 -296 444 -297 444 -300C444 -302 441 -306 436 -311L381 -367L346 -316H293V-509H339C339 -484 339 -482 345 -482C349 -482 355 -484 366 -488C384 -496 387 -499 387 -510V-517C386 -545 385 -577 385 -606V-718L410 -736C415 -740 418 -742 418 -745C418 -747 415 -750 410 -754L350 -799L324 -757H186ZM177 -531V-735H339V-531ZM887 -57L847 -2H450C427 -2 402 -4 377 -6L404 31C421 24 450 20 471 20H936C948 20 954 18 954 14C954 10 949 4 941 -4ZM917 -673C930 -673 936 -674 936 -678C936 -682 931 -688 922 -697L872 -747L834 -695H683V-796L705 -811C709 -814 711 -816 711 -818C711 -821 708 -824 701 -827L636 -857C638 -824 639 -796 639 -771V-695H492C469 -695 444 -697 419 -699L446 -662C463 -669 492 -673 513 -673H592C556 -601 489 -516 386 -431L393 -420C532 -516 600 -587 639 -666V-560C639 -546 638 -483 638 -470C638 -459 639 -455 644 -455C646 -455 685 -470 685 -488C684 -508 683 -544 683 -568V-673H704C737 -596 784 -536 890 -463C893 -461 895 -460 897 -460C900 -460 901 -462 903 -465C910 -479 935 -491 973 -492L975 -504C879 -522 801 -570 723 -673Z"/>
</svg>