<svg xmlns="http://www.w3.org/2000/svg" viewBox="0 -1000 1000 1000">
	<path fill="#000000" d="M875 -434L848 -391H548L498 -422C499 -395 500 -346 500 -306V-125C500 -76 499 -5 497 51V58C497 73 499 79 507 79C511 79 518 77 527 73C540 68 543 65 543 53V-193H626C626 -60 626 -45 625 -20V-12C625 5 627 11 634 11C638 11 644 9 652 6C666 0 670 -6 670 -22C670 -49 669 -169 669 -193H739C739 -168 738 -56 738 -34C738 -18 740 -11 747 -11C751 -11 757 -13 765 -17C780 -24 783 -29 783 -41C783 -65 782 -171 782 -193H869V-5C869 13 867 22 843 22C827 22 801 18 760 10L758 24C825 41 837 61 842 83C843 88 846 90 850 90C853 90 856 89 859 87C908 62 912 54 912 12V-356L941 -372C945 -374 947 -376 947 -378C947 -380 945 -382 941 -385ZM669 -215V-369H739V-215ZM782 -215V-369H869V-215ZM543 -215V-369H626V-215ZM357 -379L323 -333H279V-514H331C331 -476 331 -472 338 -472C346 -472 378 -481 378 -500C378 -503 377 -506 377 -510C374 -541 374 -558 374 -596V-717C401 -734 404 -736 404 -740C404 -742 401 -745 397 -747L332 -787L305 -743H183L128 -789C130 -758 131 -717 131 -686V-588C131 -572 127 -500 127 -485C127 -474 129 -469 135 -469C139 -469 145 -471 153 -475C173 -483 173 -485 173 -514H236V-102L160 -76V-350C183 -365 186 -366 186 -369C186 -372 183 -375 178 -378L113 -416C115 -379 117 -322 117 -272V-61L40 -34L78 16C80 18 82 19 83 19C86 19 88 17 91 13C97 2 109 -9 143 -25L374 -136L371 -149L279 -117V-313H403C410 -313 414 -314 414 -317C414 -319 411 -323 407 -327ZM173 -536V-721H331V-536ZM862 -740L837 -699H515L454 -753C456 -720 457 -683 457 -641C457 -244 416 -115 255 73L264 81C423 -46 475 -203 491 -403C493 -427 495 -470 498 -516H848C848 -483 848 -479 855 -479C861 -479 893 -488 893 -504C893 -514 891 -561 891 -572V-659L919 -676C925 -679 927 -682 927 -684C927 -687 925 -690 920 -694ZM499 -538C502 -592 504 -647 505 -677H848V-538ZM596 -836C628 -809 652 -762 661 -726C665 -709 673 -703 682 -703C694 -703 713 -724 713 -750C713 -785 665 -819 603 -846Z"/>
</svg>