<svg xmlns="http://www.w3.org/2000/svg" viewBox="0 -1000 1000 1000">
	<path fill="#000000" d="M514 -675C546 -645 564 -613 567 -587C569 -566 576 -559 587 -559C599 -559 618 -582 618 -604C618 -610 617 -615 614 -620C604 -639 578 -659 521 -684ZM899 -773L868 -724H445C424 -724 400 -725 379 -728L404 -694C419 -700 446 -704 465 -704H955C962 -704 966 -705 966 -708C966 -710 963 -713 958 -718ZM571 -126V-265H730V-126ZM631 -285H572L525 -326C527 -295 528 -247 528 -223V-152C528 -138 525 -71 525 -63C525 -53 527 -50 533 -50C537 -50 543 -52 552 -55C571 -63 571 -67 571 -106H730V-76C730 -68 731 -64 736 -64C739 -64 745 -66 753 -69C771 -76 775 -80 775 -95C775 -98 773 -153 773 -164V-259C793 -272 796 -274 796 -277C796 -280 793 -283 789 -286L744 -317L722 -285H674V-387H826C833 -387 837 -388 837 -391C837 -393 834 -397 829 -402L787 -447L756 -406H674V-474C698 -489 701 -491 701 -494C701 -497 698 -499 693 -501L628 -528C630 -495 631 -444 631 -406H537C516 -406 493 -407 471 -410L496 -377C511 -383 538 -387 557 -387H631ZM97 -805C99 -774 100 -758 100 -728V-595C100 -579 98 -509 98 -494C98 -483 100 -479 105 -479C110 -479 116 -481 125 -486C139 -494 141 -498 141 -510V-536H206V-97L132 -80V-363C158 -380 161 -382 161 -386C161 -389 159 -392 153 -395L86 -430C88 -393 90 -325 90 -284V-70L31 -56L57 -4C58 -2 60 0 61 0C63 0 66 -2 69 -6C78 -17 103 -33 133 -43L372 -122L368 -135L248 -107V-324H376C384 -324 387 -326 387 -329C387 -331 385 -334 382 -338L343 -387L313 -343H248V-536H311C311 -506 311 -503 317 -503C321 -503 326 -505 335 -510C351 -518 354 -522 354 -536V-543C354 -552 353 -582 353 -622V-737C375 -751 378 -753 378 -757C378 -760 376 -763 372 -766L325 -800L303 -768H145ZM141 -556V-748H311V-556ZM568 -844C608 -813 630 -785 637 -759C641 -743 647 -732 658 -732C671 -732 690 -748 690 -774C690 -810 656 -833 572 -853ZM857 -531V-29C857 -7 854 3 822 3C801 3 767 -1 713 -11L711 4C797 27 815 39 822 80C823 85 824 87 828 87C829 87 831 87 833 86C896 57 902 44 902 1V-515L934 -537C939 -540 941 -543 941 -545C941 -548 939 -550 934 -553L872 -595L843 -551H712C783 -639 790 -644 817 -652C821 -653 823 -655 823 -657C823 -659 821 -662 817 -664L759 -701C747 -663 719 -598 692 -551H468L402 -600C405 -561 407 -518 407 -499V-99C407 -58 406 14 404 58V65C404 76 405 81 411 81C416 81 422 79 431 75C452 66 455 62 455 52V46C453 12 452 -59 452 -118V-531Z"/>
</svg>