<svg xmlns="http://www.w3.org/2000/svg" viewBox="0 -1000 1000 1000">
	<path fill="#000000" d="M558 -570C558 -530 558 -486 557 -456C557 -449 558 -446 562 -446C566 -446 572 -448 582 -453C597 -460 598 -463 598 -494H668C668 -462 668 -454 677 -454C683 -454 711 -463 711 -478V-481C709 -510 708 -541 708 -566V-639H770V-553C770 -482 779 -474 862 -474C917 -474 936 -481 956 -516C958 -519 959 -522 959 -525C959 -529 956 -533 952 -534C935 -541 927 -550 923 -609H910C907 -519 903 -509 860 -509C820 -509 811 -516 811 -539V-639H947C956 -639 961 -640 961 -643C961 -646 958 -650 952 -656L907 -701L869 -660H811V-765C838 -779 841 -780 841 -783C841 -785 839 -787 833 -789L768 -822C770 -797 770 -772 770 -740V-660H708V-780C733 -792 735 -793 735 -796C735 -798 733 -800 728 -802L666 -829C668 -798 668 -770 668 -736V-660H598V-780C603 -783 627 -798 627 -800C627 -802 624 -804 618 -806L556 -830C558 -799 558 -771 558 -737V-660H491V-769C501 -776 517 -786 517 -789C517 -790 514 -792 509 -795L450 -821C453 -774 454 -717 453 -660H416C395 -660 371 -662 348 -664L375 -629C398 -639 434 -639 453 -639C449 -520 423 -487 338 -456L345 -442C463 -478 490 -517 491 -639H558ZM668 -515H598V-639H668ZM89 -802C91 -772 92 -747 92 -717V-569C92 -554 88 -485 88 -472C88 -465 90 -462 95 -462C95 -462 135 -470 135 -488V-506H201V-100L131 -78V-336C141 -343 158 -355 158 -359C158 -361 156 -363 151 -366L85 -403C87 -370 88 -336 88 -299V-64L27 -45L66 3C69 7 71 9 73 9C75 9 78 6 81 2C90 -10 110 -23 173 -51L381 -142L378 -156L244 -114V-330H349C351 -330 352 -331 352 -332C352 -333 352 -334 351 -335L315 -391L272 -349H244V-506H280C280 -482 280 -479 286 -479C290 -479 296 -481 306 -485C324 -493 327 -496 327 -507C327 -518 325 -585 325 -600V-709L349 -736C352 -740 354 -743 354 -745C354 -748 352 -750 349 -753L291 -797L266 -756H144ZM135 -527V-735H280V-527ZM617 -242V-29C617 -12 615 65 615 79C615 95 617 102 625 102C629 102 635 100 643 96C662 88 663 84 663 64C663 47 662 9 662 -37V-242H804V-57C804 -40 802 -31 781 -31C766 -31 740 -36 696 -45L693 -33C753 -10 764 0 773 35C774 40 777 43 781 43C783 43 785 42 788 41C834 22 848 4 848 -25V-231L872 -245C877 -248 879 -250 879 -252C879 -255 876 -257 870 -261L810 -297L786 -264H662V-390H886L831 -303L845 -295C893 -344 927 -364 963 -369C972 -370 976 -373 976 -376C976 -379 974 -382 970 -385L906 -439L879 -413H413L410 -439H398C391 -375 381 -353 359 -332C345 -319 338 -305 338 -294C338 -280 353 -277 361 -277C383 -277 420 -302 415 -390H617V-264H488L434 -312C436 -280 436 -251 436 -216V-107C436 -68 435 -35 433 -4V8C433 19 435 24 441 24C446 24 453 22 462 18C480 10 482 5 482 -11C482 -30 481 -69 481 -116V-242Z"/>
</svg>