<svg xmlns="http://www.w3.org/2000/svg" viewBox="0 -1000 1000 1000">
	<path fill="#000000" d="M881 -725L852 -683H733C801 -773 827 -789 844 -790C852 -791 855 -792 855 -794C855 -796 853 -798 848 -801L783 -837C760 -777 743 -742 712 -683H494L439 -727C440 -698 441 -667 441 -630V-425C441 -413 437 -350 437 -350C437 -343 439 -340 445 -340C446 -340 485 -348 485 -367V-389H864C864 -356 864 -352 872 -352C877 -352 913 -364 913 -380V-383C910 -406 909 -428 909 -455V-641L944 -665C948 -668 949 -669 949 -671C949 -673 948 -674 945 -676ZM693 -408V-664H864V-408ZM485 -408V-664H649V-408ZM824 -325L800 -288H540L480 -336C482 -307 482 -281 482 -251V3C482 13 479 64 479 68C479 75 480 78 485 78C489 78 495 76 504 71C525 60 527 56 527 46V-9H813V58C813 68 814 74 820 74C820 74 861 62 861 42C861 32 858 -18 858 -29V-248L888 -269C893 -273 896 -275 896 -278C896 -280 893 -282 889 -285ZM527 -162V-269H813V-162ZM527 -28V-143H813V-28ZM410 -147L277 -111V-306H398C404 -306 408 -306 408 -308C408 -309 405 -312 400 -318L356 -369L322 -325H277V-514H325C325 -477 325 -473 332 -473C336 -473 342 -475 352 -479C369 -487 373 -490 373 -500C373 -501 369 -572 369 -585V-717L400 -738C405 -741 408 -744 408 -747C408 -750 405 -753 400 -756L336 -796L313 -757H172L117 -799C119 -768 120 -720 120 -696V-576C120 -560 116 -490 116 -475C116 -464 118 -459 125 -459C129 -459 136 -461 145 -465C165 -472 165 -476 165 -514H233V-98L148 -75V-349C151 -351 178 -368 178 -370C178 -373 175 -375 169 -378L100 -415C102 -378 103 -343 103 -272V-64L32 -44L69 16C70 18 72 19 74 19C76 19 79 17 82 13C96 -4 110 -15 148 -30L414 -135ZM165 -533V-738H325V-533ZM504 -820C552 -785 571 -762 585 -725C593 -703 598 -698 609 -698C627 -698 632 -710 632 -742C632 -763 594 -803 509 -830ZM516 -606C548 -556 559 -502 559 -483C559 -458 564 -453 574 -453C595 -453 604 -478 604 -497C604 -521 580 -559 525 -611ZM779 -622C762 -568 743 -514 714 -442L724 -434C803 -564 815 -575 838 -578C844 -579 846 -580 846 -583C846 -585 844 -587 840 -589Z"/>
</svg>