<svg xmlns="http://www.w3.org/2000/svg" viewBox="0 -1000 1000 1000">
	<path fill="#000000" d="M838 -453L812 -416H627C691 -444 751 -473 799 -499C825 -513 846 -518 862 -518C876 -518 878 -518 878 -522C878 -524 875 -528 871 -532L827 -576C784 -543 737 -512 684 -483V-610H840C850 -610 854 -611 854 -615C854 -618 851 -622 844 -628L795 -675L759 -630H548C525 -630 500 -632 475 -634L503 -599C520 -606 549 -610 570 -610H639V-459C609 -444 578 -429 548 -416H512L464 -449L467 -381C406 -357 355 -339 332 -331L334 -315C377 -325 422 -338 467 -354V-204C467 -145 466 -118 463 -83V-73C463 -63 465 -58 471 -58C475 -58 481 -60 489 -64C512 -73 512 -76 512 -107H823C823 -86 823 -82 829 -82C833 -82 840 -84 851 -90C868 -98 872 -102 872 -114V-118C870 -142 868 -176 868 -232V-376L894 -390C899 -393 902 -395 902 -398C902 -401 899 -404 892 -410ZM512 -231V-301H823V-231ZM512 -127V-211H823V-127ZM512 -321V-370C535 -378 557 -387 579 -396H823V-321ZM525 -570C497 -533 438 -474 376 -425L385 -414C465 -464 496 -484 533 -511C539 -515 549 -518 562 -518C571 -518 575 -519 575 -523C575 -525 572 -529 566 -534ZM584 -94C527 -43 431 27 333 78L338 90C428 58 503 19 576 -23C592 -32 614 -37 637 -37C645 -37 649 -38 649 -40C649 -42 646 -45 641 -49ZM320 -648L292 -609L201 -607C211 -669 220 -729 229 -781L258 -796C265 -799 268 -802 268 -805C268 -808 265 -811 257 -815L184 -853C177 -777 169 -685 159 -606L109 -605C86 -604 59 -605 34 -606L64 -572C80 -580 105 -585 124 -585L156 -586C137 -436 126 -366 107 -274C149 -247 187 -216 218 -184C173 -100 114 -40 25 30L31 44C128 -16 199 -76 247 -154C277 -118 300 -81 311 -46C318 -24 326 -16 336 -16C352 -16 364 -34 364 -57C364 -99 325 -141 267 -190C313 -282 329 -383 346 -569L374 -583C379 -586 382 -588 382 -591C382 -593 379 -597 374 -601ZM300 -589C294 -443 284 -324 234 -216C209 -235 181 -253 151 -271C163 -357 181 -474 198 -587ZM585 -849C617 -828 645 -784 649 -758C651 -746 664 -734 673 -734C688 -734 707 -750 707 -774C707 -781 705 -788 701 -796C690 -818 647 -843 591 -861ZM904 -761L870 -730H476C475 -743 473 -756 470 -770H458C451 -701 424 -662 409 -649C398 -639 391 -629 391 -620C391 -611 401 -603 412 -603C424 -603 438 -610 453 -627C469 -644 477 -673 477 -710H876L842 -654L855 -646C897 -683 921 -693 948 -693C962 -693 967 -693 967 -695C967 -697 965 -700 960 -705ZM699 -58C799 -17 859 28 874 44C887 58 904 75 915 75C927 75 939 60 939 41C939 -11 858 -36 705 -70Z"/>
</svg>