<svg xmlns="http://www.w3.org/2000/svg" viewBox="0 -1000 1000 1000">
	<path fill="#000000" d="M711 -333V-228H320V-333ZM494 -206V-17C412 -29 348 -56 297 -92C303 -98 308 -105 313 -111C319 -119 329 -124 354 -129C360 -130 363 -132 363 -134C363 -136 361 -138 357 -140L292 -178C232 -58 152 14 38 75L42 85C147 49 213 4 286 -79C426 20 512 41 868 47C876 47 881 45 882 41C889 17 923 -7 966 -13V-25C871 -11 782 -5 697 -5C643 -5 591 -7 539 -12V-104H853C862 -104 866 -105 866 -109C866 -112 863 -116 856 -123L799 -183L757 -125H539V-206H711C711 -179 711 -176 716 -176C719 -176 725 -178 734 -182C752 -190 756 -193 756 -200C756 -208 754 -244 754 -251V-320C783 -336 786 -337 786 -343C786 -346 784 -349 778 -352L723 -387L701 -354H328L272 -387C275 -357 276 -332 276 -316V-233C276 -225 274 -187 274 -184C274 -179 276 -177 280 -177C282 -177 318 -186 320 -206ZM586 -711C613 -682 618 -666 620 -636C621 -619 626 -614 633 -614C648 -614 663 -634 663 -653C663 -672 649 -695 593 -719ZM879 -785L846 -744H577C554 -744 529 -746 504 -748L532 -714C549 -721 575 -725 599 -725H921C930 -725 935 -726 935 -730C935 -733 931 -737 925 -743ZM246 -449V-532H407V-449ZM200 -591C201 -579 203 -556 203 -541V-444C203 -436 201 -400 201 -393C201 -387 202 -384 208 -384C212 -384 218 -386 227 -389C246 -396 246 -399 246 -429H407C407 -403 407 -400 413 -400C415 -400 455 -409 455 -422C455 -434 452 -453 452 -465V-519L478 -536C480 -537 481 -539 481 -541C481 -543 479 -545 476 -547L422 -584L401 -552H254ZM193 -665C196 -692 198 -725 199 -760H413V-665ZM152 -820C153 -803 154 -770 154 -734C154 -577 140 -482 43 -363L54 -354C144 -447 177 -495 191 -645H413C413 -619 413 -616 420 -616C424 -616 431 -618 441 -623C457 -629 461 -632 461 -645C461 -654 458 -696 458 -704V-746C480 -761 482 -763 482 -767C482 -769 480 -772 474 -776L425 -811L406 -780H203ZM629 -847C668 -818 675 -807 681 -773C683 -761 691 -752 703 -752C717 -752 731 -764 731 -782C731 -821 683 -841 634 -855ZM946 -582C955 -582 960 -584 960 -587C960 -591 956 -595 950 -601L902 -644L869 -602H544C521 -602 496 -604 471 -606L499 -571C516 -578 545 -582 566 -582H683V-502H588C565 -502 540 -504 515 -506L543 -470C560 -477 589 -481 610 -481H683C683 -469 682 -418 682 -408C682 -396 683 -392 689 -392C694 -392 729 -402 729 -417C729 -418 727 -471 727 -481H905C915 -481 919 -483 919 -487C919 -490 916 -495 909 -502L866 -545L834 -502H727V-582ZM788 -721C777 -690 760 -658 731 -610L743 -607C797 -663 815 -676 830 -678C835 -679 838 -682 838 -686C838 -689 836 -693 832 -695Z"/>
</svg>