<svg xmlns="http://www.w3.org/2000/svg" viewBox="0 -1000 1000 1000">
	<path fill="#000000" d="M906 -312L872 -266H734V-342H936C942 -342 945 -343 945 -344C945 -346 943 -348 939 -352L890 -399L854 -361H734V-435H850C850 -422 851 -417 857 -417C861 -417 893 -427 893 -440C893 -451 892 -498 892 -508V-600L916 -618C918 -620 920 -622 920 -623C920 -626 917 -629 912 -632L860 -664L839 -635H580L525 -670C527 -641 528 -613 528 -590V-478C528 -468 526 -418 526 -414C526 -406 527 -403 531 -403C535 -403 541 -405 549 -409C566 -416 569 -419 570 -435H692V-361H593C570 -361 545 -363 520 -365L548 -331C565 -338 594 -342 615 -342H692V-266H539C516 -266 491 -268 466 -270L494 -236C511 -243 540 -247 561 -247H958C965 -247 969 -248 969 -250C969 -252 966 -255 961 -260ZM734 -544V-616H850V-544ZM570 -544V-616H692V-544ZM734 -454V-525H850V-454ZM570 -454V-525H692V-454ZM333 -364L306 -324H249V-499H304C304 -483 304 -478 313 -478C323 -478 351 -488 351 -503C351 -505 350 -508 350 -511C348 -532 347 -543 347 -576V-700L378 -721C383 -725 386 -727 386 -730C386 -732 384 -734 380 -737L321 -785L295 -743H146L94 -786C96 -755 97 -707 97 -683V-566C97 -549 93 -476 93 -461C93 -451 95 -447 100 -447C104 -447 111 -449 120 -453C140 -461 140 -465 140 -499H207V-91L137 -61V-306L162 -320C168 -323 170 -325 170 -327C170 -330 168 -332 163 -334L91 -375C93 -338 95 -291 95 -230V-43L20 -11L68 38C70 40 71 40 73 40C75 40 77 39 80 35C90 22 98 15 148 -15L364 -143L360 -156L249 -109V-304H382C388 -304 391 -305 391 -307C391 -309 388 -311 384 -315ZM140 -521V-721H304V-521ZM607 -831C653 -802 678 -769 685 -750C691 -733 700 -727 709 -727C725 -727 740 -744 740 -769C740 -773 740 -778 739 -782C734 -806 686 -828 611 -840ZM902 -776L861 -724H481L413 -780C414 -746 416 -702 416 -664V-410C416 -134 376 -51 284 75L295 84C422 -40 460 -141 460 -426V-705H964C970 -705 974 -706 974 -708C974 -710 972 -713 966 -718ZM804 -207C873 -170 889 -158 917 -125C929 -111 937 -109 949 -109C958 -109 963 -118 963 -130C963 -176 910 -195 808 -218ZM586 -222C553 -181 513 -150 455 -113L461 -104C497 -122 526 -137 555 -152C573 -161 608 -174 620 -174C627 -174 631 -175 631 -177C631 -179 630 -181 627 -183ZM910 -18L869 33H736V-65H892C898 -65 901 -66 901 -68C901 -70 899 -72 895 -76L842 -128L808 -84H736V-166C760 -183 763 -185 763 -187C763 -190 760 -192 754 -195L690 -227C693 -190 694 -174 694 -132V-84H585C562 -84 537 -86 512 -88L540 -54C557 -61 586 -65 607 -65H694V33H533C510 33 485 31 460 29L488 63C505 56 534 52 555 52H962C972 52 976 51 976 49C976 46 973 43 967 37Z"/>
</svg>