<svg xmlns="http://www.w3.org/2000/svg" viewBox="0 -1000 1000 1000">
	<path fill="#000000" d="M249 -557H149L100 -602C102 -573 104 -512 104 -489V-352C104 -321 102 -262 100 -244V-240C100 -235 101 -232 106 -232C114 -232 149 -240 149 -256V-272H249V-157H105C82 -157 57 -158 32 -161L60 -125C77 -132 106 -136 127 -136H249C249 -31 247 29 244 60C244 65 243 70 243 74C243 85 245 89 251 89C256 89 263 87 272 82C290 73 292 69 292 49C291 14 290 -70 290 -136H475C487 -136 493 -137 493 -140C493 -143 488 -148 480 -156L430 -204L395 -157H290V-272H387C387 -246 387 -243 392 -243C396 -243 401 -245 411 -250C430 -260 431 -263 431 -270C430 -293 428 -350 428 -377V-530C454 -544 457 -546 457 -548C457 -550 455 -552 449 -556L401 -590L376 -557H290V-657H477C486 -657 491 -658 491 -662C491 -665 488 -669 481 -676L431 -726L391 -677H290V-779L319 -798C324 -801 327 -804 327 -807C327 -810 323 -812 317 -815L246 -845C248 -811 249 -771 249 -715V-677H108C85 -677 60 -678 35 -681L63 -647C80 -653 109 -657 130 -657H249ZM387 -294H290V-407H387ZM290 -536H387V-429H290ZM149 -536H249V-429H149ZM249 -294H149V-407H249ZM558 -700L713 -728C713 -573 714 -507 716 -450H558ZM852 -754C862 -756 870 -757 878 -757C884 -757 912 -750 918 -750C923 -750 925 -752 925 -755C925 -757 923 -761 919 -765L869 -816C798 -785 689 -749 570 -722L512 -780C514 -743 514 -712 514 -668V-65C514 -30 511 -23 475 -1L520 50C523 53 525 55 527 55C530 55 532 53 533 50C548 21 572 -4 728 -132L718 -143L558 -43V-427H717C728 -165 763 -26 891 47C914 60 925 64 948 64C963 64 968 64 968 55C968 48 964 37 954 21C947 9 942 -10 942 -45C942 -72 945 -109 952 -158L935 -161L901 -8C900 -5 899 -3 897 -3C896 -3 895 -4 893 -5C815 -50 764 -190 758 -427H965C975 -427 980 -428 980 -432C980 -435 978 -439 973 -444L918 -509L873 -450H758C758 -474 757 -497 757 -529C757 -573 758 -634 759 -737Z"/>
</svg>