<svg xmlns="http://www.w3.org/2000/svg" viewBox="0 -1000 1000 1000">
	<path fill="#000000" d="M224 -561H137L90 -606C92 -577 94 -516 94 -493V-356C94 -325 92 -268 90 -248V-244C90 -239 91 -236 96 -236C100 -236 107 -238 116 -241C137 -248 137 -250 137 -276H224V-161H108C85 -161 60 -162 35 -165L63 -129C80 -136 109 -140 130 -140H224C224 -28 222 33 219 66C219 71 218 76 218 80C218 91 220 95 226 95C231 95 238 93 247 88C267 78 269 75 269 55C268 19 267 -73 267 -140H424C436 -140 442 -141 442 -144C442 -147 437 -152 429 -160L379 -208L344 -161H267V-276H355C355 -250 355 -247 361 -247C366 -247 401 -260 401 -271C401 -289 398 -365 398 -381V-534C424 -548 427 -550 427 -552C427 -554 425 -556 419 -560L369 -594L344 -561H267V-661H435C445 -661 449 -662 449 -666C449 -668 446 -673 439 -680L389 -730L349 -681H267V-783L296 -802C301 -805 304 -808 304 -811C304 -814 300 -816 294 -819L221 -849C223 -815 224 -775 224 -719V-681H114C91 -681 66 -682 41 -685L69 -651C86 -657 115 -661 136 -661H224ZM355 -298H267V-411H355ZM267 -540H355V-433H267ZM137 -540H224V-433H137ZM224 -298H137V-411H224ZM811 -471L783 -432H589C595 -478 601 -533 606 -588H934C944 -588 948 -590 948 -594C948 -597 946 -602 940 -608L886 -669L837 -612H609C612 -649 617 -724 620 -770L649 -789C655 -793 659 -796 659 -799C659 -802 655 -804 647 -808L566 -846C567 -821 568 -798 568 -774C568 -728 566 -679 561 -612H493C470 -612 445 -613 420 -616L448 -577C465 -584 494 -588 515 -588H559C534 -250 475 -106 314 70L323 82C470 -46 550 -195 585 -411H591C615 -243 639 -172 678 -112C621 -41 530 28 412 70L416 84C529 55 648 -22 703 -79C768 -1 869 60 874 60C878 60 881 57 886 50C897 33 925 22 980 22V8C875 -8 788 -51 731 -115C780 -189 816 -275 837 -362C841 -378 847 -385 865 -395C874 -400 878 -404 878 -408C878 -412 875 -416 868 -422ZM793 -411C777 -296 751 -219 705 -149C662 -212 635 -282 612 -411ZM681 -782C733 -751 764 -716 776 -679C783 -657 790 -652 803 -652C817 -652 832 -673 832 -696C832 -704 830 -712 827 -719C816 -743 767 -771 687 -794Z"/>
</svg>