<svg xmlns="http://www.w3.org/2000/svg" viewBox="0 -1000 1000 1000">
	<path fill="#000000" d="M244 -567H151L104 -612C106 -583 108 -522 108 -499V-362C108 -344 104 -253 104 -250C104 -245 105 -242 110 -242C114 -242 121 -244 130 -247C151 -254 151 -256 151 -282H244V-167H113C90 -167 65 -168 40 -171L68 -135C85 -142 114 -146 135 -146H244C244 -34 242 30 239 60C239 65 238 70 238 74C238 85 240 89 246 89C251 89 258 87 267 82C287 72 289 69 289 49C288 12 287 -85 287 -146H458C467 -146 472 -148 472 -152C472 -156 469 -160 463 -166L413 -214L378 -167H287V-282H384C384 -256 384 -253 390 -253C395 -253 430 -267 430 -278V-280C428 -296 427 -330 427 -387V-533C438 -542 456 -558 456 -561C456 -564 454 -566 449 -568L398 -600L373 -567H287V-667H462C470 -667 474 -669 474 -673C474 -676 472 -680 466 -686L416 -736L376 -687H287V-781L316 -800C321 -803 324 -806 324 -809C324 -812 320 -814 314 -817L241 -847C243 -813 244 -773 244 -717V-687H121C98 -687 73 -688 48 -691L76 -657C93 -663 122 -667 143 -667H244ZM384 -304H287V-417H384ZM287 -546H384V-439H287ZM151 -546H244V-439H151ZM244 -304H151V-417H244ZM633 -416C667 -363 689 -296 689 -252C689 -227 695 -215 709 -215C729 -215 743 -240 743 -268C743 -300 710 -361 642 -424ZM848 -786C852 -789 874 -802 874 -804C874 -806 871 -808 866 -811L798 -843C800 -808 801 -739 801 -700V-557H685C664 -557 641 -559 619 -561L644 -526C659 -532 686 -536 705 -536H801V-39C801 -14 795 -3 758 -3C736 -3 703 -7 654 -14L652 2C743 24 762 36 766 61C767 69 771 72 776 72C778 72 781 71 784 70C839 46 848 26 848 -49V-536H954C963 -536 967 -537 967 -540C967 -543 964 -548 957 -555L912 -606L878 -557H848ZM598 -852C553 -697 489 -540 430 -425L440 -416C466 -451 493 -496 523 -552V-114C523 -90 519 33 519 61C519 73 521 78 527 78C531 78 538 75 548 70C568 60 572 57 572 43V36C569 -9 568 -60 568 -122V-544C584 -558 585 -560 585 -562C585 -564 583 -566 579 -568L541 -587C562 -628 598 -708 627 -775C632 -787 637 -795 662 -800C669 -802 672 -804 672 -808C672 -811 669 -815 662 -818Z"/>
</svg>