<svg xmlns="http://www.w3.org/2000/svg" viewBox="0 -1000 1000 1000">
	<path fill="#000000" d="M220 -557H134L78 -610C80 -581 81 -529 81 -506V-369C81 -350 78 -266 78 -248C78 -242 79 -238 85 -238C89 -238 95 -240 104 -244C125 -252 125 -255 125 -284H220V-162H94C71 -162 46 -164 21 -166L49 -129C66 -136 95 -140 116 -140H220C220 -29 219 18 216 60C216 65 215 69 215 73C215 83 217 88 223 88C227 88 233 85 242 81C263 71 265 68 265 50C264 10 263 -73 263 -140H465C475 -140 479 -141 479 -145C479 -149 476 -154 469 -161L420 -213L376 -162H263V-284H356V-255C356 -246 357 -242 362 -242C366 -242 372 -244 382 -249C402 -258 403 -261 403 -268C402 -290 400 -352 400 -379V-523L430 -535C437 -538 440 -540 440 -543C440 -545 437 -548 432 -552L371 -596L344 -557H263V-681H437C446 -681 450 -682 450 -686C450 -690 447 -695 440 -702L390 -755L351 -703H263V-789L291 -805C296 -808 299 -811 299 -813C299 -816 296 -818 291 -821L217 -861C220 -810 220 -738 220 -703H102C79 -703 54 -705 29 -707L57 -670C74 -677 103 -681 124 -681H220ZM356 -306H263V-411H356ZM263 -535H356V-433H263ZM220 -411V-306H125V-411ZM220 -535V-433H125V-535ZM761 -340H590V-606H761ZM495 -628C472 -628 447 -630 422 -632L450 -595C477 -606 507 -606 545 -606V-340H483C460 -340 435 -342 410 -344L438 -307C455 -314 484 -318 505 -318H545C543 -104 488 -9 336 80L344 93C509 19 588 -89 590 -318H761V-116C761 -86 758 48 758 76C758 87 760 91 766 91C770 91 777 89 786 85C806 76 810 71 810 58V53C808 18 806 -61 806 -133V-318H956C969 -318 975 -320 975 -325C975 -328 972 -333 965 -340L910 -395L869 -340H806V-606H937C950 -606 956 -608 956 -613C956 -616 953 -621 946 -628L898 -681L859 -628H745C851 -792 858 -797 878 -801C884 -802 887 -804 887 -806C887 -809 885 -811 880 -814L816 -855C797 -796 752 -690 721 -628ZM470 -833C521 -782 548 -733 551 -700C554 -669 560 -660 572 -660C592 -660 608 -678 608 -720C608 -749 572 -792 477 -843Z"/>
</svg>