<svg xmlns="http://www.w3.org/2000/svg" viewBox="0 -1000 1000 1000">
	<path fill="#000000" d="M221 -556H137L81 -609C83 -580 84 -528 84 -505V-368C84 -349 81 -265 81 -247C81 -241 82 -237 88 -237C92 -237 98 -239 107 -243C128 -251 128 -254 128 -283H221V-161H97C74 -161 49 -163 24 -165L52 -128C69 -135 98 -139 119 -139H221C221 -28 219 37 217 61V67C217 83 221 89 230 89C236 89 244 87 253 82C264 77 266 74 266 61V51C265 32 264 -72 264 -139H449C459 -139 463 -140 463 -144C463 -148 460 -153 453 -160L404 -212L360 -161H264V-283H353V-254C353 -245 354 -241 359 -241C361 -241 400 -253 400 -265C400 -296 397 -346 397 -378V-522L427 -534C434 -537 437 -539 437 -542C437 -544 434 -547 429 -551L368 -595L341 -556H264V-678H439C448 -678 453 -679 453 -683C453 -686 449 -692 442 -699L392 -752L353 -700H264V-778L292 -794C297 -797 300 -800 300 -802C300 -805 297 -807 292 -810L218 -850C221 -799 221 -741 221 -700H105C82 -700 57 -702 32 -704L60 -667C77 -674 106 -678 127 -678H221ZM353 -305H264V-410H353ZM264 -534H353V-432H264ZM221 -410V-305H128V-410ZM221 -534V-432H128V-534ZM507 -603C509 -572 510 -524 510 -500V-402C510 -396 507 -315 507 -299C507 -285 509 -280 515 -280C520 -280 527 -282 538 -287C557 -295 557 -298 557 -325H671V-20C671 -7 669 0 645 0C627 0 594 -4 539 -15L537 2C616 24 639 49 644 81C645 86 647 89 651 89C653 89 655 88 658 87C707 62 718 42 718 -8V-325H818C818 -292 818 -288 825 -288C832 -288 869 -299 869 -318C869 -334 865 -360 865 -376V-520L898 -535C904 -538 906 -540 906 -544C906 -547 904 -551 898 -555L837 -603L806 -558H569ZM557 -347V-535H818V-347ZM754 -212C812 -156 872 -74 886 -31C896 0 903 10 914 10C937 10 953 -12 953 -39C953 -114 787 -209 761 -223ZM598 -846C637 -817 664 -776 672 -742C680 -708 685 -699 698 -699C724 -699 737 -722 737 -750C737 -802 644 -842 604 -856ZM526 -248C487 -152 430 -53 348 55L361 65C426 1 474 -57 555 -172C564 -184 569 -187 593 -193C599 -195 603 -197 603 -199C603 -202 600 -205 595 -208ZM908 -753L859 -693H526C503 -693 478 -695 453 -697L481 -660C498 -667 527 -671 548 -671H957C966 -671 970 -673 970 -677C970 -681 967 -686 961 -693Z"/>
</svg>