<svg xmlns="http://www.w3.org/2000/svg" viewBox="0 -1000 1000 1000">
	<path fill="#000000" d="M476 -811C477 -781 478 -742 478 -716V-483C478 -441 477 -403 475 -381V-376C475 -368 477 -364 483 -364C487 -364 492 -365 500 -368C522 -376 522 -379 522 -406H649V-294H494C471 -294 446 -296 421 -298L449 -261C466 -268 495 -272 516 -272H580C516 -143 455 -63 318 43L327 53C473 -42 537 -102 634 -272H649V-134C649 -74 648 3 646 62V73C646 88 647 94 654 94C658 94 664 92 672 88C693 78 697 75 697 61V54C695 17 693 -58 693 -142V-272H716C757 -136 801 -47 875 28C878 31 880 32 883 32C886 32 889 30 893 27C908 16 920 6 977 9L978 -4C858 -41 797 -127 735 -272H945C956 -272 961 -273 961 -277C961 -279 957 -284 951 -290L896 -345L855 -294H693V-406H833C833 -372 833 -368 839 -368C844 -368 882 -380 882 -398C882 -400 881 -403 881 -406C878 -435 877 -467 877 -500V-713L909 -731C916 -735 920 -738 920 -741C920 -745 916 -748 910 -753L852 -798L825 -758H531ZM649 -573V-428H522V-573ZM649 -595H522V-736H649ZM693 -595V-736H833V-595ZM693 -428V-573H833V-428ZM221 -566H133L77 -619C79 -590 80 -538 80 -515V-378C80 -359 77 -275 77 -257C77 -251 78 -247 84 -247C88 -247 94 -249 103 -253C124 -261 124 -264 124 -293H221V-165H94C71 -165 46 -167 21 -169L49 -132C66 -139 95 -143 116 -143H221C221 -45 220 14 217 57C217 62 216 66 216 70C216 81 218 86 224 86C228 86 234 83 243 78C261 69 265 66 265 52V47C264 21 263 -36 263 -143H458C466 -143 469 -145 469 -148C469 -151 467 -155 462 -160L413 -212L371 -165H263V-293H355V-264C355 -255 356 -251 361 -251C363 -251 402 -263 402 -275C402 -276 399 -370 399 -388V-532L421 -544C428 -547 431 -549 431 -552C431 -555 429 -557 425 -561L370 -605L343 -566H263V-684H437C446 -684 451 -685 451 -689C451 -692 447 -698 440 -705L390 -756L351 -706H263V-782L292 -798C298 -801 300 -804 300 -806C300 -809 298 -811 292 -814L218 -854C221 -803 221 -728 221 -706H102C79 -706 54 -708 29 -710L57 -673C74 -680 103 -684 124 -684H221ZM355 -315H263V-420H355ZM263 -544H355V-442H263ZM221 -420V-315H124V-420ZM221 -544V-442H124V-544Z"/>
</svg>