<svg xmlns="http://www.w3.org/2000/svg" viewBox="0 -1000 1000 1000">
	<path fill="#000000" d="M242 -574H151L103 -619C105 -590 107 -529 107 -506V-369C107 -351 103 -259 103 -257C103 -252 104 -249 109 -249C113 -249 120 -251 129 -254C150 -261 150 -263 150 -289H242V-174H106C83 -174 58 -175 33 -178L61 -142C76 -148 102 -153 128 -153H242C242 -38 240 20 237 53C237 58 236 63 236 67C236 78 238 82 244 82C249 82 256 80 265 75C285 65 287 62 287 42C286 7 285 -86 285 -153H446C456 -153 461 -154 461 -158C461 -161 458 -166 451 -173L405 -221L366 -174H285V-289H381C381 -263 381 -260 387 -260C388 -260 427 -270 427 -287C426 -305 424 -367 424 -394V-547C450 -561 453 -563 453 -565C453 -567 451 -569 445 -573L395 -607L370 -574H285V-674H450C459 -674 464 -675 464 -679C464 -682 460 -687 454 -693L406 -743L364 -694H285V-786L314 -805C319 -808 322 -811 322 -814C322 -817 318 -819 312 -822L239 -852C242 -801 242 -753 242 -694H116C93 -694 68 -695 43 -698L71 -664C88 -670 117 -674 138 -674H242ZM381 -311H285V-424H381ZM285 -553H381V-446H285ZM150 -553H242V-446H150ZM242 -311H150V-424H242ZM487 -773C489 -738 490 -672 490 -634V-438C490 -401 488 -343 488 -306C488 -296 490 -291 496 -291C500 -291 505 -293 512 -296C531 -304 532 -307 532 -320V-353H597C592 -141 540 -43 335 72L343 82C562 -12 622 -91 646 -353H718V-24C718 33 743 41 830 41C915 41 944 35 969 -19C970 -20 970 -22 970 -23C970 -26 968 -29 962 -32C943 -43 937 -56 938 -178H922C915 1 899 1 831 1C764 1 764 -10 764 -42V-353H849C849 -316 849 -312 856 -312C860 -312 866 -314 876 -318C895 -326 900 -330 900 -342C900 -345 899 -348 899 -352C896 -380 894 -432 894 -508V-689L918 -703C924 -706 927 -709 927 -711C927 -714 924 -718 918 -722L863 -769L836 -730H769C746 -730 721 -731 696 -734L724 -697C741 -704 770 -708 791 -708H849V-556H770C747 -556 722 -558 697 -560L725 -523C742 -530 771 -534 792 -534H849V-375H532V-535H668C677 -535 681 -537 681 -541C681 -544 678 -549 672 -555L629 -597L595 -557H532V-718C638 -758 671 -766 690 -766C707 -766 708 -766 708 -769C708 -770 706 -773 703 -776L663 -821C635 -795 598 -771 533 -737Z"/>
</svg>