<svg xmlns="http://www.w3.org/2000/svg" viewBox="0 -1000 1000 1000">
	<path fill="#000000" d="M219 -567H131L84 -612C86 -583 88 -522 88 -499V-362C88 -331 86 -274 84 -254V-250C84 -245 85 -242 90 -242C94 -242 101 -244 110 -247C131 -254 131 -256 131 -282H219V-167H109C86 -167 61 -168 36 -171L64 -135C81 -142 110 -146 131 -146H219C219 -34 217 32 214 60C214 65 213 70 213 74C213 85 215 89 221 89C226 89 233 87 242 82C262 72 264 69 264 49C263 20 262 -79 262 -146H424C436 -146 442 -147 442 -150C442 -153 437 -158 429 -166L379 -214L344 -167H262V-282H348C348 -256 348 -253 354 -253C359 -253 394 -266 394 -277C394 -291 391 -349 391 -361V-540C417 -554 420 -556 420 -558C420 -560 418 -562 412 -566L362 -600L337 -567H262V-667H428C438 -667 442 -668 442 -672C442 -674 439 -679 432 -686L382 -736L342 -687H262V-789L291 -808C296 -811 299 -814 299 -817C299 -820 295 -822 289 -825L216 -855C218 -821 219 -781 219 -725V-687H112C89 -687 64 -688 39 -691L67 -657C84 -663 113 -667 134 -667H219ZM348 -304H262V-417H348ZM262 -546H348V-439H262ZM131 -546H219V-439H131ZM219 -304H131V-417H219ZM539 -379V-483H781V-379ZM496 -289C496 -275 493 -201 493 -200C493 -187 495 -181 502 -181C506 -181 512 -183 521 -187C539 -195 539 -198 539 -231H634V-20C634 -1 632 9 600 9C581 9 550 5 501 -2L498 15C577 31 601 47 607 80C608 86 610 88 614 88C616 88 618 87 621 86C674 55 677 44 677 -8V-231H781V-197C781 -189 782 -184 787 -184C792 -184 828 -196 828 -214C828 -223 824 -264 824 -272V-452C831 -445 887 -391 894 -391C897 -391 900 -392 904 -396C921 -411 934 -416 978 -416V-431C902 -447 838 -485 796 -532C866 -592 878 -598 903 -602C912 -604 916 -606 916 -609C916 -611 913 -614 909 -617L864 -652C833 -605 817 -584 783 -547C751 -587 727 -636 713 -691H927C936 -691 940 -692 940 -696C940 -700 937 -705 930 -712L883 -762L839 -712H648C675 -784 677 -789 700 -795C708 -797 712 -800 712 -803C712 -806 709 -809 702 -813L641 -849C630 -802 617 -756 602 -712H512C490 -712 466 -714 442 -716L469 -680C486 -687 513 -691 534 -691H594C576 -643 556 -597 532 -554C531 -561 528 -568 524 -575C512 -594 483 -616 437 -635L428 -624C454 -607 471 -581 485 -540C489 -524 499 -516 511 -518C478 -463 440 -414 398 -373L405 -359C436 -386 470 -418 496 -448ZM539 -252V-358H781V-252ZM693 -691C709 -613 735 -557 777 -504H539C575 -553 607 -616 639 -691ZM709 -151C796 -101 841 -55 866 0C872 13 881 27 894 27C909 27 919 8 919 -12C919 -22 917 -33 911 -42C889 -77 833 -117 714 -164ZM524 -173C472 -100 401 -19 312 57L325 68C376 33 425 -6 531 -105C540 -113 550 -119 573 -124C580 -126 583 -127 583 -130C583 -132 581 -135 575 -139Z"/>
</svg>