<svg xmlns="http://www.w3.org/2000/svg" viewBox="0 -1000 1000 1000">
	<path fill="#000000" d="M592 -386C531 -299 485 -245 421 -183L392 -212L351 -165H277V-280H372C372 -253 372 -250 379 -250C379 -250 418 -260 418 -278C417 -297 415 -349 415 -385V-538C441 -552 444 -554 444 -556C444 -558 442 -560 436 -564L386 -598L361 -565H277V-665H433C440 -665 443 -667 443 -670C443 -673 441 -678 435 -684L389 -734L349 -685H277V-788L306 -805C312 -808 314 -811 314 -814C314 -818 310 -821 304 -824L231 -854C233 -820 234 -780 234 -724V-685H112C89 -685 64 -686 39 -689L67 -655C84 -661 113 -665 134 -665H234V-565H139L92 -610C94 -581 96 -520 96 -497V-360C96 -342 92 -264 92 -248C92 -240 94 -237 100 -237C113 -237 139 -245 139 -264V-280H234V-165H97C74 -165 49 -166 24 -169L52 -133C69 -140 98 -144 119 -144H234C234 -32 233 12 229 54C229 59 228 64 228 68C228 79 230 83 236 83C241 83 248 81 257 76C275 67 279 63 279 49C279 19 277 -116 277 -144H431C442 -144 448 -146 448 -151C448 -156 442 -162 432 -172C452 -188 470 -203 488 -217C490 -184 490 -164 490 -119V-64L457 -39L503 -11C508 -8 512 -6 514 -6C517 -6 519 -8 522 -11L539 -31H813C819 -31 823 -33 823 -36C823 -39 820 -43 815 -48L763 -99L728 -51H532V-170C540 -175 560 -187 560 -189C560 -191 557 -193 552 -195L490 -219C512 -237 532 -254 551 -272H689C649 -203 608 -146 549 -81L558 -70C605 -109 642 -145 687 -194C728 -173 764 -141 785 -104C794 -89 803 -83 815 -83C825 -83 834 -98 834 -113C834 -157 737 -191 697 -205C711 -219 723 -231 741 -234C747 -235 750 -237 750 -240C750 -242 747 -245 743 -248L707 -272H880C876 -134 874 -88 870 -48C865 -3 856 19 804 19C782 19 751 15 710 7L709 23C782 41 804 57 813 84C815 89 817 92 821 92C822 92 824 91 826 90C891 56 909 28 914 -31C920 -96 923 -159 924 -253L953 -268C959 -271 962 -274 962 -277C962 -280 959 -284 953 -288L897 -332L869 -292H572C581 -300 589 -309 598 -318C616 -337 622 -341 636 -342C642 -343 646 -345 646 -349C646 -352 643 -355 637 -359ZM139 -544H234V-437H139ZM277 -544H372V-437H277ZM234 -302H139V-415H234ZM372 -302H277V-415H372ZM498 -646C500 -615 501 -586 501 -562V-463C501 -447 499 -373 499 -360C499 -352 501 -348 506 -348C510 -348 515 -350 523 -353C541 -360 543 -363 543 -371V-392H819C819 -358 819 -354 826 -354C832 -354 866 -366 866 -388C866 -392 865 -395 865 -399C863 -425 862 -456 862 -487V-569L890 -584C894 -586 897 -589 897 -591C897 -594 894 -596 889 -600L831 -644L804 -605H553ZM543 -585H819V-511H543ZM819 -412H543V-491H819ZM614 -730V-786C640 -799 643 -800 643 -804C643 -807 639 -810 633 -813L568 -845C570 -818 571 -794 571 -774V-730H498C475 -730 450 -732 425 -734L453 -699C470 -706 499 -710 520 -710H571C571 -700 570 -658 570 -649C570 -640 572 -637 578 -637C589 -637 616 -648 616 -662C616 -670 614 -703 614 -710H746C746 -700 745 -658 745 -650C745 -640 747 -636 754 -636C765 -636 791 -647 791 -661C791 -663 789 -702 789 -710H942C952 -710 957 -712 957 -716C957 -719 953 -724 947 -730L899 -780L858 -730H789V-792C814 -805 817 -807 817 -811C817 -814 813 -816 806 -819L743 -848C745 -819 746 -797 746 -778V-730Z"/>
</svg>