<svg xmlns="http://www.w3.org/2000/svg" viewBox="0 -1000 1000 1000">
	<path fill="#000000" d="M217 -579H148L98 -614C100 -586 100 -550 100 -528V-377C100 -330 99 -301 97 -271V-266C97 -259 98 -256 103 -256C106 -256 112 -258 120 -261C141 -269 143 -272 143 -283V-299H217V-171H91C69 -171 45 -173 21 -175L47 -140C64 -147 92 -151 113 -151H217C217 -29 216 28 214 59C214 63 213 66 213 69C213 76 215 79 219 79C222 79 229 76 239 69C259 57 260 54 260 45C259 19 258 -50 258 -151H409C418 -151 423 -153 423 -156C423 -159 420 -164 414 -170L369 -217L334 -171H258V-299H331V-267C331 -259 332 -255 337 -255C338 -255 373 -263 373 -279V-282C372 -295 371 -330 371 -372V-550L393 -562C397 -564 399 -566 399 -568C399 -571 396 -574 391 -578L347 -614L321 -579H258V-692H408C417 -692 421 -693 421 -697C421 -700 418 -704 412 -710L363 -759L328 -712H258V-792L281 -807C285 -810 287 -812 287 -814C287 -816 285 -818 282 -819L214 -856C215 -844 217 -801 217 -712H108C86 -712 62 -714 38 -716L63 -681C80 -688 109 -692 130 -692H217ZM331 -319H258V-434H331ZM258 -559H331V-454H258ZM143 -559H217V-454H143ZM217 -319H143V-434H217ZM700 1H612V-223H700ZM413 1C390 1 363 -1 338 -3L364 33C385 25 400 23 425 23H962C970 23 973 22 973 19C973 16 971 13 965 7L914 -43L881 1H863V-206L889 -218C894 -220 896 -222 896 -225C896 -227 894 -230 888 -235L836 -278L812 -245H507L446 -292C447 -265 449 -223 449 -194V1ZM742 1V-223H820V1ZM572 -223V1H489V-223ZM650 -597V-489H487V-597ZM442 -806C445 -761 445 -729 445 -651V-356L413 -332L463 -296C467 -293 470 -292 472 -292C476 -292 478 -294 495 -316H739C749 -316 753 -317 753 -320C753 -322 750 -325 745 -330L694 -379L665 -338H604V-467H650C650 -436 650 -433 656 -433C663 -433 692 -443 692 -460C692 -480 690 -513 690 -533V-588L715 -601C720 -604 722 -606 722 -608C722 -610 720 -613 715 -616L672 -651L648 -619H605V-734H728C738 -734 743 -735 743 -738C743 -740 740 -744 734 -750L685 -798L654 -756H496ZM564 -467V-338H487V-467ZM565 -619H487V-734H565ZM805 -527C843 -470 857 -419 858 -382C859 -347 864 -339 873 -339C891 -339 912 -360 912 -392C912 -396 912 -400 911 -404C905 -435 875 -480 816 -536ZM813 -825C785 -695 747 -552 706 -436L719 -429C744 -473 771 -532 796 -600H959C968 -600 972 -602 972 -605C972 -608 969 -611 965 -616L917 -668L879 -620H804C817 -656 831 -695 845 -740C851 -758 853 -762 873 -771C882 -775 886 -778 886 -781C886 -784 883 -786 878 -790Z"/>
</svg>