<svg xmlns="http://www.w3.org/2000/svg" viewBox="0 -1000 1000 1000">
	<path fill="#000000" d="M399 -592C401 -561 402 -513 402 -489V-314C402 -236 401 -197 399 -165V-154C399 -139 401 -133 408 -133C412 -133 418 -135 425 -139C444 -149 446 -152 446 -164V-212H673V-178C673 -168 674 -163 679 -163C684 -163 722 -176 722 -198V-205C719 -234 718 -289 718 -332V-508L746 -524C752 -528 754 -530 754 -532C754 -535 752 -537 747 -541L693 -587L663 -547H454ZM673 -233H446V-377H673ZM446 -526H673V-398H446ZM968 -22C844 -8 744 -2 647 -2C592 -2 539 -4 483 -7C331 -15 234 -108 234 -165V-446L272 -469C278 -473 280 -476 280 -479C280 -482 278 -485 272 -488L204 -535L177 -487H105C82 -487 57 -489 32 -491L58 -456C75 -463 104 -467 125 -467H188V-153L41 -12L79 26C83 30 86 32 90 32C94 32 99 27 103 16C120 -25 139 -62 186 -122C195 -134 203 -140 210 -140C216 -140 221 -135 225 -127C275 -17 364 29 508 40C602 47 719 51 865 51C877 51 881 49 886 39C897 15 924 -4 968 -9ZM839 -661C838 -385 834 -308 822 -172C817 -117 810 -95 753 -95C725 -95 685 -100 626 -110L622 -94C721 -72 744 -60 744 -34C744 -32 743 -24 743 -22C743 -18 745 -16 750 -16C753 -16 757 -16 761 -18C843 -47 860 -77 866 -168C876 -312 879 -394 885 -639L916 -656C922 -660 925 -662 925 -665C925 -668 923 -670 918 -674L857 -725L827 -682H438C454 -709 470 -738 489 -773C494 -782 506 -787 523 -793C530 -795 533 -798 533 -800C533 -803 530 -806 525 -808L456 -847C415 -728 381 -640 294 -494L304 -485C369 -571 392 -605 426 -661ZM115 -800C160 -753 193 -703 206 -655C215 -623 218 -619 231 -619C248 -619 264 -638 264 -667C264 -672 264 -676 263 -681C257 -716 198 -771 122 -810Z"/>
</svg>