<svg xmlns="http://www.w3.org/2000/svg" viewBox="0 -1000 1000 1000">
	<path fill="#000000" d="M601 -830C580 -804 542 -771 435 -712L388 -754C390 -720 391 -659 391 -622V-237C391 -209 380 -192 353 -173L399 -133C402 -131 404 -130 406 -130C408 -130 410 -132 411 -135C424 -164 438 -180 588 -307L583 -316L435 -227V-690C486 -708 523 -723 590 -754C604 -761 625 -765 642 -765H655C658 -765 660 -765 660 -767C660 -769 658 -771 653 -776ZM265 -850C218 -668 160 -549 33 -347L43 -338C101 -404 156 -488 204 -573V-129C204 -85 203 -31 200 28V37C200 50 202 55 209 55C213 55 219 53 227 50C247 41 251 37 251 23V16C249 -21 247 -65 247 -127V-526L275 -550C280 -554 282 -557 282 -559C282 -562 280 -564 275 -566L216 -596C245 -650 271 -703 292 -753C302 -777 308 -785 328 -791C337 -794 341 -796 341 -799C341 -802 337 -806 328 -811ZM857 -751L827 -708H689L626 -754C628 -717 630 -670 630 -608V-131C630 -77 629 -20 627 39V52C627 66 628 72 635 72C639 72 646 69 655 65C676 55 680 51 680 37V31C678 -8 676 -47 676 -129V-686H844V-233C844 -212 841 -200 814 -200C794 -200 761 -207 707 -220L704 -206C780 -188 799 -170 810 -139C813 -130 816 -126 821 -126C823 -126 826 -127 829 -129C877 -154 890 -176 890 -220V-667L923 -693C927 -696 929 -699 929 -701C929 -703 927 -705 923 -708Z"/>
</svg>