<svg xmlns="http://www.w3.org/2000/svg" viewBox="0 -1000 1000 1000">
	<path fill="#000000" d="M557 -185L329 -131V-292H527C534 -292 537 -293 537 -296C537 -298 535 -301 530 -306L464 -369L425 -314H329V-425C356 -444 359 -446 359 -450C359 -453 357 -455 352 -458L306 -486L483 -502C487 -491 490 -480 493 -470C499 -448 505 -438 516 -438C535 -438 547 -459 547 -481C547 -526 478 -594 396 -652L388 -642C431 -600 458 -559 475 -520L158 -509C209 -562 257 -613 312 -675C317 -680 336 -688 350 -690C355 -691 357 -692 357 -694C357 -695 356 -698 352 -701L307 -738H556C563 -738 567 -739 567 -742C567 -744 564 -748 559 -753L498 -812L460 -760H134C115 -760 94 -762 75 -764L98 -729C110 -735 134 -738 151 -738H286C239 -652 177 -561 155 -539C134 -518 114 -512 78 -510L115 -458C117 -454 120 -452 123 -452C125 -452 128 -454 131 -456C146 -466 182 -474 246 -480L284 -484C285 -460 285 -439 285 -410V-314H129C112 -314 92 -316 73 -318L95 -283C107 -289 130 -292 146 -292H285V-121L62 -69L106 -13C108 -11 111 -9 114 -9C117 -9 120 -11 122 -13C137 -28 181 -48 244 -68L560 -169ZM860 -683C871 -705 877 -711 916 -731C920 -733 923 -736 923 -739C923 -741 922 -744 918 -747L853 -803L819 -759H674L607 -815C609 -778 611 -735 611 -694V-167C611 -110 610 -20 608 39V49C608 65 610 71 617 71C621 71 627 69 636 65C656 56 660 52 660 38V31C658 -2 656 -74 656 -165V-737H830L739 -491C867 -381 889 -307 889 -257C889 -221 877 -178 789 -178C763 -178 732 -181 695 -189L693 -173C775 -155 799 -137 807 -108C809 -101 812 -99 815 -99C826 -99 937 -153 937 -235C937 -313 916 -374 765 -498Z"/>
</svg>