<svg xmlns="http://www.w3.org/2000/svg" viewBox="0 -1000 1000 1000">
	<path fill="#000000" d="M741 -439C788 -400 823 -355 843 -323L528 -315C596 -377 718 -497 787 -571C803 -588 813 -592 837 -598C844 -600 847 -602 847 -604C847 -607 844 -610 838 -613L780 -653C771 -629 728 -573 678 -515L502 -509C545 -561 627 -663 660 -677C666 -680 669 -682 669 -684C669 -686 666 -689 661 -692L618 -718C662 -727 707 -738 749 -749C795 -761 834 -768 863 -768C868 -768 890 -765 895 -765C899 -765 901 -766 901 -768C901 -771 899 -775 894 -781L852 -831C727 -786 637 -757 422 -693L426 -680C470 -686 532 -699 598 -713C581 -672 561 -637 514 -568C486 -527 461 -512 423 -506L468 -451C471 -447 473 -446 475 -446C478 -446 480 -447 483 -449C504 -464 583 -487 661 -495C615 -442 567 -391 539 -364C500 -327 480 -319 411 -311L455 -255C457 -252 459 -251 462 -251C464 -251 467 -252 471 -253C486 -259 525 -268 649 -283V-13C649 -3 643 5 609 5C587 5 553 1 502 -7V13C593 33 609 44 618 79C620 86 622 88 625 88C627 88 630 88 633 86C687 61 694 50 694 1V-288L853 -306C859 -297 862 -289 863 -285C871 -255 878 -250 890 -250C906 -250 919 -274 919 -295C919 -314 906 -370 750 -449ZM370 -793L338 -750H124C101 -750 76 -752 51 -754L79 -717C96 -724 125 -728 146 -728H343L255 -562L224 -574C226 -555 227 -514 227 -469V-393L24 -317L69 -261C71 -258 73 -257 75 -257C77 -257 80 -259 84 -265C92 -277 127 -301 227 -352V-39C227 -26 221 -16 183 -16C160 -16 126 -20 75 -29L71 -12C173 15 190 27 195 57C196 63 198 66 202 66C203 66 205 65 207 64C260 39 272 22 272 -9V-375L414 -447L409 -462L272 -410V-520C295 -537 298 -539 298 -542C298 -545 295 -547 269 -557C373 -701 395 -720 429 -727C438 -729 442 -731 442 -733C442 -736 439 -739 433 -743ZM747 -188C833 -130 894 -38 907 -1C912 13 916 18 931 18C940 18 956 3 956 -22C956 -86 856 -150 755 -198ZM506 -217C464 -143 390 -49 309 47L320 56C380 5 445 -61 515 -141C527 -154 547 -168 564 -173C570 -175 573 -176 573 -179C573 -181 570 -183 565 -186Z"/>
</svg>