<svg xmlns="http://www.w3.org/2000/svg" viewBox="0 -1000 1000 1000">
	<path fill="#000000" d="M532 -319V-287C532 -279 533 -275 538 -275C543 -275 577 -284 577 -300C577 -305 574 -360 574 -371V-454L602 -474C606 -477 609 -479 609 -482C609 -485 606 -487 601 -491L545 -526L518 -489H166L112 -537C114 -508 115 -470 115 -447V-357C115 -333 114 -303 112 -287C112 -285 111 -283 111 -281C111 -277 113 -275 117 -275C120 -275 127 -277 137 -282C157 -292 157 -295 157 -319ZM297 -341V-467H396V-341ZM157 -341V-467H255V-341ZM532 -467V-341H438V-467ZM224 -684V-761H475V-684ZM224 -584V-662H475V-584ZM178 -824C180 -800 181 -753 181 -730V-634C181 -617 176 -530 176 -529C176 -523 178 -520 182 -520C187 -520 193 -523 204 -528C224 -538 224 -539 224 -562H475C475 -528 475 -524 482 -524C487 -524 521 -538 521 -550V-552C519 -577 517 -609 517 -649V-751L547 -767C552 -770 554 -772 554 -774C554 -777 552 -779 548 -781L487 -820L461 -783H235ZM180 -165C228 -144 282 -117 333 -89C265 -40 205 -8 65 40L70 57C197 27 289 -12 370 -67C425 -34 473 -2 499 22C519 40 526 44 532 44C540 44 549 35 549 19C549 -25 499 -52 408 -94C444 -122 477 -153 508 -189C523 -206 528 -209 556 -218C567 -222 572 -224 572 -228C572 -231 567 -235 558 -241L503 -277L473 -241H169C146 -241 121 -243 96 -245L124 -208C141 -215 170 -219 191 -219H466C439 -181 409 -148 365 -113C312 -135 252 -158 190 -177ZM641 -809C643 -772 645 -704 645 -663V-139C645 -82 644 -4 642 55V63C642 78 644 84 651 84C655 84 661 82 669 78C690 68 694 63 694 49V44C692 5 690 -71 690 -147V-740H862L763 -480C881 -369 907 -311 907 -253C907 -199 888 -173 822 -173C798 -173 766 -177 727 -184L721 -168C795 -151 819 -131 827 -103C829 -96 831 -93 834 -93C836 -93 838 -94 841 -95C921 -129 955 -172 955 -242C955 -309 924 -372 790 -485L875 -655C900 -705 913 -720 948 -733C953 -735 956 -738 956 -741C956 -745 954 -748 949 -752L884 -806L851 -762H704Z"/>
</svg>