<svg xmlns="http://www.w3.org/2000/svg" viewBox="0 -1000 1000 1000">
	<path fill="#000000" d="M495 -111V-202H764V-111ZM128 -244C130 -218 131 -176 131 -136V-4C131 34 145 53 236 58C339 64 456 67 569 67C656 67 741 65 815 61C887 57 921 41 942 -2C944 -5 944 -8 944 -10C944 -14 942 -17 938 -19C921 -30 914 -46 914 -97C914 -112 915 -131 916 -153L900 -154C890 0 876 15 812 20C729 27 625 30 522 30C426 30 332 27 253 22C181 17 175 7 175 -16V-90H764V-49C764 -40 765 -36 771 -36C775 -36 781 -38 791 -42C810 -50 815 -54 815 -66C815 -69 814 -72 814 -76C810 -109 809 -125 809 -152V-183L839 -200C844 -203 846 -205 846 -208C846 -211 843 -214 838 -218L775 -262L749 -223H179ZM451 -111H175V-202H451ZM203 -439C205 -408 205 -387 205 -363V-306C205 -292 203 -270 203 -256C203 -252 204 -250 207 -250C211 -250 216 -252 225 -256C243 -265 247 -270 247 -283H698V-263C698 -256 698 -253 702 -253C706 -253 742 -265 742 -277C742 -285 740 -321 740 -328V-366C769 -382 772 -383 772 -389C772 -392 770 -395 764 -398L709 -433L687 -400H253ZM247 -305V-379H698V-305ZM477 -408C580 -423 670 -459 719 -496C777 -440 881 -396 891 -396C893 -396 895 -397 896 -399C906 -422 928 -433 978 -438L977 -446C892 -450 804 -478 749 -523C795 -570 820 -615 842 -684H924C936 -684 942 -685 942 -688C942 -691 938 -696 930 -704L884 -749L850 -703H652C670 -728 686 -754 701 -780C708 -791 714 -796 735 -802C744 -805 748 -807 748 -810C748 -813 744 -817 735 -821L677 -849C639 -753 592 -667 526 -569L537 -561C567 -592 596 -625 622 -660C633 -617 660 -567 694 -525C650 -486 575 -446 475 -417ZM792 -684C780 -636 760 -596 720 -551C674 -600 653 -636 637 -682L639 -684ZM143 -659L84 -704C86 -673 87 -625 87 -601V-479C87 -464 84 -393 84 -384C84 -372 86 -366 91 -366C96 -366 102 -370 112 -376C127 -385 130 -391 130 -406V-639H273V-529C273 -516 271 -460 271 -449C271 -438 272 -434 277 -434C278 -434 319 -447 319 -463C319 -465 317 -523 317 -534V-639H476V-460C476 -450 477 -446 482 -446C486 -446 491 -448 501 -454C518 -464 521 -467 521 -481C521 -493 519 -549 519 -562V-637C543 -654 546 -656 546 -659C546 -662 543 -665 537 -668L485 -698L464 -659H317V-797L342 -811C348 -814 350 -817 350 -819C350 -821 348 -824 342 -826L271 -856C272 -821 273 -777 273 -737V-659ZM203 -607C185 -556 164 -508 135 -460L148 -451C177 -485 189 -501 213 -535C224 -551 233 -562 248 -571C254 -575 257 -577 257 -579C257 -581 254 -583 250 -585ZM351 -584C390 -558 408 -535 416 -505C421 -487 426 -485 438 -485C448 -485 458 -499 458 -516C458 -549 418 -573 355 -593ZM469 -820C444 -778 404 -729 361 -683L369 -673C453 -744 486 -763 516 -773C524 -776 527 -779 527 -782C527 -785 525 -787 520 -790ZM100 -800C142 -767 158 -743 171 -709C178 -690 185 -686 195 -686C207 -686 222 -700 222 -722C222 -726 221 -731 220 -735C213 -764 185 -785 106 -810Z"/>
</svg>