<svg xmlns="http://www.w3.org/2000/svg" viewBox="0 -1000 1000 1000">
	<path fill="#000000" d="M464 -259L439 -221H202L149 -263C151 -235 152 -192 152 -170V-80C152 -73 149 23 149 42C149 56 151 61 158 61C162 61 169 59 178 56C195 49 197 44 197 33V-34H453V26C453 34 454 38 460 38C464 38 469 36 478 33C499 25 502 21 502 9V2C499 -38 498 -65 498 -95V-183L524 -200C529 -203 531 -205 531 -207C531 -210 528 -212 523 -216ZM197 -56V-199H453V-56ZM151 -847C195 -810 219 -770 229 -741C236 -722 240 -715 249 -715C264 -715 278 -728 278 -759C278 -787 236 -822 158 -856ZM557 -359L520 -313H425L474 -367C482 -376 503 -391 514 -394C521 -396 525 -398 525 -400C525 -403 521 -406 513 -411L469 -439C444 -386 426 -353 401 -313H347V-451H593C602 -451 606 -452 606 -455C606 -458 603 -462 598 -468L549 -525L509 -473H347V-571H543C552 -571 557 -572 557 -575C557 -578 554 -582 548 -588L500 -640L465 -593H347V-687H589C598 -687 603 -688 603 -691C603 -694 600 -698 594 -704L538 -760L505 -709H374C430 -780 455 -806 479 -812C487 -814 492 -816 492 -820C492 -823 488 -827 479 -832L431 -861C402 -798 380 -754 353 -709H132C109 -709 83 -711 59 -713L87 -677C103 -683 133 -687 154 -687H302V-593H180C157 -593 131 -595 107 -597L135 -561C151 -567 181 -571 202 -571H302V-473H134C111 -473 85 -475 61 -477L89 -441C105 -447 135 -451 156 -451H302V-313H110C87 -313 61 -315 37 -317L65 -281C81 -287 111 -291 132 -291H599C608 -291 612 -292 612 -295C612 -298 609 -302 604 -308ZM132 -425C161 -396 179 -368 188 -341C193 -327 198 -322 208 -322C220 -322 232 -336 232 -357C232 -388 194 -411 136 -434ZM860 -652C885 -713 898 -725 929 -737C935 -739 938 -741 938 -744C938 -746 936 -749 931 -753L869 -809L834 -763H700L635 -813C637 -776 639 -708 639 -667V-153C639 -96 638 -6 636 53V62C636 79 638 85 645 85C650 85 657 83 666 79C685 71 689 68 689 51V45C686 0 685 -30 685 -151V-741H846L765 -473C864 -374 898 -300 898 -241C898 -189 880 -163 819 -163C791 -163 755 -169 707 -179L706 -162C783 -140 805 -127 813 -99C815 -92 817 -90 821 -90C825 -90 948 -129 948 -232C948 -303 899 -389 788 -476Z"/>
</svg>