<svg xmlns="http://www.w3.org/2000/svg" viewBox="0 -1000 1000 1000">
	<path fill="#000000" d="M952 -205C952 -269 915 -346 831 -423L937 -772C902 -767 846 -766 777 -766C709 -766 689 -767 650 -772C654 -736 658 -673 658 -607V-153C658 -68 655 13 649 80H731V-698H840L761 -407C840 -348 875 -291 875 -216C875 -148 856 -120 750 -141C778 -102 784 -72 784 -35C930 -68 952 -107 952 -205ZM224 -340L168 -370C154 -330 128 -290 94 -253L150 -220C176 -269 198 -303 224 -340ZM494 -303C463 -312 450 -318 436 -334C433 -305 423 -290 408 -289C382 -287 336 -288 318 -291C299 -292 296 -297 296 -316V-349C296 -355 299 -360 302 -364C311 -370 311 -375 299 -374C286 -373 262 -375 234 -380C236 -368 237 -360 237 -342V-295C237 -253 247 -247 283 -244C331 -240 386 -239 423 -239C455 -239 481 -259 494 -303ZM605 -270C565 -315 543 -340 512 -381L465 -347C498 -314 529 -274 551 -232ZM426 -358C396 -377 379 -388 344 -404L319 -365C349 -351 371 -337 394 -319ZM263 -199C270 -208 276 -213 283 -215C297 -222 298 -231 286 -233C263 -236 245 -242 227 -256C215 -228 194 -202 157 -164C123 -127 91 -107 57 -93C79 -81 91 -68 107 -43C143 -66 185 -103 221 -146H459C443 -125 417 -104 392 -87C342 -102 290 -116 231 -130L199 -92C244 -78 284 -65 323 -52C251 -23 153 -5 87 -5C113 17 123 30 137 58C254 39 353 7 402 -22C452 -3 501 19 554 44L600 -12C551 -32 506 -50 459 -65C515 -111 543 -148 570 -204C536 -201 478 -199 424 -199ZM221 -486H485V-453H221ZM485 -555V-526H221V-555ZM221 -596V-633H485V-596ZM375 -726C477 -726 564 -723 619 -719V-791C560 -788 462 -786 348 -786C236 -786 155 -788 92 -791V-719C144 -723 210 -725 297 -726C294 -711 291 -698 286 -683C227 -684 186 -684 157 -686C158 -668 159 -644 159 -627V-453C124 -454 92 -456 69 -457V-340H138V-406H564V-337H628V-457C606 -455 577 -454 544 -453V-627C544 -644 545 -668 546 -686C508 -684 448 -683 359 -683C365 -699 370 -712 375 -726Z"/>
</svg>