<svg xmlns="http://www.w3.org/2000/svg" viewBox="0 -1000 1000 1000">
	<path fill="#000000" d="M159 -154H406V-68H159ZM365 -596V-697C422 -695 454 -692 481 -690V-771C438 -761 384 -758 274 -758C164 -758 109 -762 68 -771V-690C103 -694 150 -696 199 -697V-596C158 -597 120 -599 88 -603C91 -578 92 -531 92 -496V-156C92 -83 90 -18 85 60H159V-10H406V14H479C474 -51 473 -100 473 -156V-496C473 -531 474 -577 477 -603C452 -599 408 -597 365 -596ZM258 -596V-697H306V-596ZM306 -539V-347C306 -299 312 -290 406 -296V-212H159V-539H199C199 -371 194 -347 169 -295C192 -288 209 -280 222 -273C248 -323 258 -358 258 -539ZM406 -348C370 -346 365 -351 365 -364V-539H406ZM837 -707V-760C837 -772 842 -785 853 -794C868 -806 866 -812 844 -812C812 -812 790 -813 761 -817C768 -792 770 -772 770 -707H643V-762C643 -774 648 -787 659 -796C674 -808 672 -814 650 -814C618 -814 591 -816 565 -819C572 -794 574 -774 574 -708C547 -709 520 -712 496 -716V-640C520 -644 546 -647 574 -648V-571H643V-649H770V-574H837V-649C869 -648 900 -645 929 -640V-716C900 -711 869 -708 837 -707ZM709 -513C750 -457 781 -421 828 -387C799 -382 761 -379 709 -379C663 -379 628 -381 600 -385C635 -419 667 -455 709 -513ZM588 -374V-310C610 -314 637 -317 671 -318V-219C617 -220 577 -223 543 -227V-149C577 -154 617 -157 671 -158V-46C603 -47 554 -50 512 -54V28C562 22 626 19 720 19C814 19 878 22 928 28V-54C882 -49 823 -46 740 -46V-158C803 -157 848 -154 885 -149V-227C848 -223 803 -220 740 -219V-319C777 -318 806 -315 830 -310V-386C856 -367 887 -349 927 -328C937 -360 947 -379 967 -409C872 -436 822 -464 740 -551C745 -557 750 -561 753 -563C771 -573 768 -579 752 -579C732 -579 709 -583 677 -595C626 -499 565 -435 481 -381C499 -361 512 -342 523 -320C548 -340 569 -357 588 -374Z"/>
</svg>