<svg xmlns="http://www.w3.org/2000/svg" viewBox="0 -1000 1000 1000">
	<path fill="#000000" d="M210 -185C194 -231 176 -273 153 -311L78 -286C104 -244 119 -206 129 -158ZM443 -287L373 -317C360 -275 348 -245 326 -197L387 -169C410 -225 423 -251 443 -287ZM587 -521L588 -688C663 -693 771 -703 830 -709C857 -712 893 -711 913 -706C926 -703 927 -717 917 -726C902 -741 885 -775 872 -808C748 -768 606 -749 512 -753C516 -673 518 -523 514 -447C498 -145 464 -64 369 33C398 40 438 58 457 75C540 -44 582 -198 586 -453H747V-95C747 -36 745 5 741 61H831C825 5 823 -36 823 -95V-453C871 -452 908 -450 951 -446V-529C893 -523 848 -521 774 -521ZM304 -772C315 -783 326 -789 338 -792C349 -795 349 -802 338 -804C316 -808 283 -819 247 -834C200 -726 124 -631 41 -566C68 -554 93 -537 109 -519C122 -533 135 -548 147 -562V-499C170 -503 197 -505 231 -506V-416C172 -417 130 -420 93 -424V-348C129 -352 172 -355 231 -356V-106C177 -95 126 -89 72 -85C87 -54 99 -25 106 2C204 -32 293 -56 442 -94C439 -112 439 -138 443 -163C391 -146 345 -132 302 -122V-355C359 -355 401 -352 437 -348V-424C401 -420 359 -417 302 -416V-507C345 -506 376 -503 403 -499V-575C371 -570 332 -567 275 -567C224 -567 188 -569 157 -574C202 -627 240 -678 268 -720C326 -672 365 -637 399 -596L452 -669C412 -699 363 -733 304 -772Z"/>
</svg>