<svg xmlns="http://www.w3.org/2000/svg" viewBox="0 -1000 1000 1000">
	<path fill="#000000" d="M764 -730C738 -771 717 -803 689 -843L620 -805C645 -778 669 -734 685 -694ZM649 -617V-498C585 -498 525 -499 474 -501V-166C474 -115 473 -79 469 -25H547V-432H649V-111C649 -46 646 6 640 66H730C726 7 725 -46 725 -111V-432H838L839 -155C839 -118 827 -113 752 -123C771 -93 777 -70 774 -30C883 -42 916 -64 916 -108V-501C859 -499 795 -498 725 -498V-617C831 -617 897 -614 958 -608V-689C893 -683 821 -680 701 -680C581 -680 506 -683 440 -689V-608C495 -613 558 -616 649 -617ZM193 -163C183 -217 171 -262 153 -303L84 -279C104 -250 118 -200 118 -147ZM439 -281L371 -308C362 -257 351 -217 330 -178L391 -152C412 -202 427 -244 439 -281ZM296 -765C307 -782 316 -789 325 -793C341 -800 340 -807 327 -809C301 -814 261 -828 231 -841C210 -743 136 -614 37 -527C72 -521 88 -510 105 -484C119 -501 133 -519 146 -536V-495C167 -500 192 -503 224 -504V-414C164 -415 119 -418 83 -424V-344C116 -350 163 -353 224 -354V-98C108 -81 91 -79 52 -76C71 -51 87 -23 98 6C202 -24 230 -31 434 -71C433 -92 436 -123 449 -152C393 -129 365 -121 299 -110V-353C352 -353 392 -350 424 -344V-424C392 -418 352 -415 299 -414V-505C344 -504 375 -501 401 -495V-573C370 -566 333 -563 275 -563C231 -563 198 -565 170 -569C203 -614 234 -661 265 -713C307 -680 338 -651 374 -613L426 -677C384 -710 340 -740 296 -765Z"/>
</svg>