<svg xmlns="http://www.w3.org/2000/svg" viewBox="0 -1000 1000 1000">
	<path fill="#000000" d="M183 -143C177 -195 169 -239 154 -296L85 -282C101 -237 112 -183 116 -125ZM390 -281L328 -300C316 -233 306 -199 289 -158L348 -138C365 -182 377 -221 390 -281ZM245 -695C287 -664 343 -614 376 -576L427 -633C395 -662 329 -708 273 -741C283 -756 293 -765 303 -768C326 -776 325 -788 301 -792C278 -796 254 -805 228 -821C184 -700 127 -626 33 -560C59 -544 74 -532 93 -507C103 -517 113 -527 123 -538V-479C142 -483 171 -485 208 -486V-402C157 -403 102 -406 76 -410V-334C100 -337 158 -340 208 -340V-81C131 -69 84 -66 62 -69C80 -37 85 -19 84 17C121 4 186 -12 416 -56C412 -80 413 -104 417 -124C363 -111 315 -101 274 -93V-340C324 -340 359 -338 382 -334V-410C359 -406 323 -403 274 -402V-486C325 -485 354 -482 377 -479L378 -557C347 -551 304 -548 246 -548C217 -548 177 -550 137 -554C173 -594 210 -641 245 -695ZM460 -349C433 -350 414 -352 397 -355V-281C419 -284 479 -287 610 -288C580 -160 479 -43 357 8C395 28 413 45 428 67C562 -27 637 -126 674 -264C724 -116 803 -15 921 50C932 19 947 -10 971 -39C882 -63 793 -131 723 -288C896 -288 925 -285 950 -281V-355C931 -351 910 -349 878 -348V-576C878 -610 880 -632 884 -649C851 -646 820 -645 705 -645C706 -736 710 -792 724 -801C738 -810 741 -823 726 -821C692 -817 661 -820 624 -829C631 -765 634 -718 634 -645C540 -645 483 -646 454 -649C458 -633 460 -616 460 -576ZM633 -578C632 -481 628 -413 620 -348H527V-578ZM805 -348H691C699 -404 704 -482 705 -578H805Z"/>
</svg>