<svg xmlns="http://www.w3.org/2000/svg" viewBox="0 -1000 1000 1000">
	<path fill="#000000" d="M463 -715C244 -715 170 -717 100 -721V-514H183V-647H798V-522H886V-721C821 -717 751 -715 563 -715C553 -753 541 -812 537 -839L435 -821C446 -795 457 -752 463 -715ZM493 -464C606 -464 683 -462 743 -454V-544C683 -538 606 -534 493 -534C380 -534 304 -536 242 -544V-454C302 -462 380 -464 493 -464ZM278 -218C240 -149 166 -73 83 -18C110 -5 129 9 150 32C222 -28 270 -72 309 -117C325 -135 333 -141 349 -143C377 -146 378 -160 347 -169C327 -175 302 -196 278 -218ZM899 -75C826 -124 741 -174 675 -209L619 -152C693 -113 774 -56 839 1ZM464 -277V-75C464 -32 451 -23 350 -38C380 -5 391 30 391 63C522 63 549 35 549 -32V-277C701 -276 807 -273 893 -268V-356C797 -349 677 -345 496 -345C314 -345 195 -349 99 -356V-268C188 -274 300 -277 464 -277Z"/>
</svg>