<svg xmlns="http://www.w3.org/2000/svg" viewBox="0 -1000 1000 1000">
	<path fill="#000000" d="M713 -215C700 -259 678 -316 663 -347L591 -330C611 -288 628 -237 636 -195ZM719 -523C700 -566 678 -626 669 -659L595 -635C611 -604 634 -540 644 -499ZM183 -157C169 -206 151 -249 131 -292L65 -267C90 -224 103 -182 112 -131ZM410 -272L341 -303C330 -258 320 -227 300 -176L358 -147C379 -206 391 -235 410 -272ZM277 -755C288 -767 298 -774 309 -777C325 -781 324 -792 309 -795C288 -799 252 -814 218 -832C178 -724 114 -620 21 -547C49 -535 75 -516 90 -497C102 -511 113 -524 123 -537V-486C145 -490 170 -492 203 -493V-401C143 -402 100 -405 64 -409V-330C99 -334 142 -337 203 -338V-96C151 -87 103 -81 49 -77C63 -43 74 -12 80 16C174 -18 258 -41 403 -72C400 -90 398 -118 402 -143C355 -130 314 -120 276 -111V-337C325 -336 362 -334 393 -330V-409C362 -405 325 -403 276 -401V-494C316 -493 345 -490 369 -486V-560C340 -555 302 -552 247 -552C200 -552 167 -554 139 -558C184 -614 214 -657 242 -701C296 -653 328 -621 363 -580L422 -645C386 -673 333 -714 277 -755ZM800 -399L794 -155H522L531 -399ZM534 -465L543 -705H808L802 -465ZM462 -467C442 -468 423 -470 402 -473V-391C422 -394 440 -396 458 -397L442 -79C541 -86 579 -89 666 -89H793C789 -17 756 -9 656 -20C675 10 685 45 688 81C842 58 864 38 868 -88C899 -86 915 -84 937 -81V-168C915 -161 895 -158 869 -156L874 -398C904 -398 930 -395 959 -391V-473C930 -469 905 -466 876 -465L884 -780C808 -776 728 -774 646 -774C574 -774 551 -775 478 -779Z"/>
</svg>