<svg xmlns="http://www.w3.org/2000/svg" viewBox="0 -1000 1000 1000">
	<path fill="#000000" d="M211 -149C191 -195 168 -236 139 -280L80 -249C113 -198 132 -159 147 -114ZM451 -258L383 -302C366 -259 350 -228 314 -167L369 -133C398 -183 418 -213 451 -258ZM553 -369C529 -311 502 -249 471 -185C533 -163 589 -138 640 -110C582 -66 491 -33 369 -5C392 16 409 42 422 76C552 24 646 -24 707 -71C770 -31 827 14 884 64C900 36 929 0 951 -17C907 -47 837 -88 763 -128C801 -178 845 -267 863 -368C895 -367 926 -364 956 -360V-444C914 -438 869 -435 822 -435H657L678 -484C693 -520 713 -556 721 -561C737 -572 736 -580 721 -584C697 -591 676 -601 641 -619C625 -561 605 -500 580 -435C531 -435 485 -438 443 -444V-360C478 -365 515 -368 553 -369ZM694 -164C649 -188 605 -209 568 -226L629 -369H784C765 -284 736 -217 694 -164ZM658 -711C535 -711 491 -713 449 -717V-545H524V-646H854V-548H933V-717C894 -714 851 -712 743 -711C738 -751 732 -784 720 -824L628 -805C642 -773 651 -747 658 -711ZM297 -752C306 -762 317 -772 332 -780C345 -787 342 -796 330 -800C309 -807 277 -825 249 -843C206 -724 117 -605 37 -525C60 -509 76 -492 94 -461C111 -483 127 -504 142 -524V-477C164 -481 191 -484 226 -485V-396C171 -397 131 -400 95 -406V-322C130 -328 170 -330 226 -331V-74C160 -61 112 -55 66 -52C76 -25 83 14 85 41C120 25 196 1 455 -58C451 -77 450 -98 452 -126C391 -111 340 -99 296 -89V-331C358 -330 388 -328 425 -322V-406C388 -400 358 -397 296 -396V-486C347 -485 385 -482 414 -477V-558C382 -552 338 -549 278 -549C231 -549 194 -551 165 -554C207 -611 240 -660 265 -702C320 -657 351 -625 384 -585L439 -655C389 -693 355 -717 297 -752Z"/>
</svg>