<svg xmlns="http://www.w3.org/2000/svg" viewBox="0 -1000 1000 1000">
	<path fill="#000000" d="M668 -53H844V34H924C918 -9 915 -44 915 -90V-308C915 -346 916 -365 919 -382C892 -379 861 -378 758 -378C654 -378 624 -379 595 -382C597 -361 598 -342 598 -308V-73C598 -28 596 6 590 51H668ZM844 -118H668V-313H844ZM213 -174C197 -220 178 -263 156 -304L84 -277C110 -233 126 -195 136 -145ZM442 -278L369 -310C356 -266 345 -236 321 -186L385 -156C408 -213 422 -242 442 -278ZM561 -564V-662C616 -667 746 -693 815 -710C862 -722 894 -721 924 -716C941 -713 943 -720 930 -733C912 -751 889 -781 874 -813C774 -764 620 -729 478 -721C485 -670 488 -547 487 -435C485 -148 449 -46 371 24C406 36 428 48 454 70C520 -34 561 -182 561 -445V-494H780C896 -494 927 -493 956 -490V-568C929 -565 897 -564 781 -564ZM305 -767C315 -777 325 -782 336 -785C350 -789 349 -798 336 -801C314 -805 282 -816 246 -832C203 -723 140 -643 42 -560C69 -548 96 -531 111 -512C124 -526 136 -540 147 -552V-497C170 -501 197 -503 233 -504V-413C171 -414 121 -417 84 -421V-341C120 -345 171 -348 233 -349V-93C175 -81 120 -73 61 -68C77 -35 88 -4 95 24C194 -9 279 -35 424 -76C421 -94 423 -119 428 -147C383 -131 341 -119 302 -109V-348C362 -348 410 -345 445 -341V-421C410 -417 362 -414 302 -413V-505C344 -504 375 -501 401 -497V-572C370 -567 331 -564 274 -564C225 -564 191 -566 162 -570C209 -626 242 -670 270 -716C326 -667 359 -636 395 -595L449 -664C411 -693 363 -727 305 -767Z"/>
</svg>