<svg xmlns="http://www.w3.org/2000/svg" viewBox="0 -1000 1000 1000">
	<path fill="#000000" d="M429 -271L360 -305C346 -261 326 -218 298 -172L355 -153C383 -202 402 -233 429 -271ZM736 -75C805 -133 847 -196 890 -302C828 -300 764 -299 678 -299C593 -299 538 -300 476 -302V-235C490 -237 501 -238 515 -239C548 -166 584 -117 623 -79C556 -44 473 -17 354 8C380 22 407 49 417 78C545 39 619 8 680 -33C736 7 800 36 914 67C919 32 931 6 960 -17C862 -21 795 -40 736 -75ZM586 -240H783C755 -181 722 -142 683 -114C644 -146 610 -190 586 -240ZM686 -416C542 -416 478 -418 435 -422V-310H507V-359H868V-307H938V-422C895 -418 830 -416 686 -416ZM809 -596V-523H585C546 -523 504 -525 455 -529V-459C504 -461 597 -464 670 -464C751 -464 839 -464 884 -462C880 -501 879 -517 879 -572V-688C879 -750 879 -761 882 -791C839 -784 791 -781 668 -781C549 -781 504 -783 456 -791V-717C479 -721 501 -722 545 -722H809V-654H612C569 -654 539 -655 498 -659V-593C538 -595 568 -596 611 -596ZM200 -170C180 -211 159 -249 134 -290L75 -257C102 -219 123 -177 140 -135ZM290 -760C303 -773 315 -782 322 -783C335 -786 335 -796 319 -801C295 -809 264 -823 236 -840C166 -691 119 -624 41 -551C61 -537 79 -518 92 -496C106 -513 119 -530 132 -546V-498C155 -503 182 -506 218 -507V-402C157 -403 107 -406 72 -412V-335C106 -341 157 -344 218 -345V-98C160 -89 106 -82 48 -76C70 -45 80 -23 88 15C133 -13 169 -26 441 -72C436 -89 435 -115 439 -140C382 -128 332 -118 286 -110V-344C336 -343 378 -340 407 -335V-412C378 -407 336 -404 286 -402V-508C329 -507 359 -504 385 -498V-573C354 -566 316 -563 258 -563C210 -563 178 -565 150 -570C189 -620 221 -664 255 -713C318 -672 362 -637 399 -599L448 -663C399 -698 342 -733 290 -760Z"/>
</svg>