<svg xmlns="http://www.w3.org/2000/svg" viewBox="0 -1000 1000 1000">
	<path fill="#000000" d="M230 -147C212 -196 184 -255 160 -295L93 -264C117 -226 144 -160 155 -116ZM474 -271L394 -305C385 -265 366 -219 339 -165L404 -137C430 -193 454 -237 474 -271ZM323 -759C332 -769 335 -771 339 -773C358 -782 358 -789 338 -795C312 -803 280 -816 258 -829C224 -733 177 -667 57 -553C74 -533 85 -513 96 -484C116 -508 134 -528 149 -546V-490C175 -495 205 -498 246 -499V-405C184 -406 148 -409 111 -415V-331C147 -337 184 -340 246 -341V-79C177 -68 111 -60 65 -58C79 -28 85 -9 94 34C207 -2 360 -36 477 -55C475 -75 474 -105 476 -129C430 -116 375 -103 318 -92V-340C368 -339 400 -336 433 -331V-414C400 -409 368 -406 318 -405V-500C368 -499 400 -496 430 -490V-572C395 -565 357 -562 290 -562C235 -562 199 -564 168 -569C207 -615 237 -652 285 -711C336 -678 372 -646 409 -598L464 -662C424 -695 374 -732 323 -759ZM748 -656V-746C748 -786 751 -802 759 -809C776 -824 773 -832 755 -830C732 -828 696 -830 672 -834C674 -820 675 -790 675 -656H571C586 -707 594 -723 603 -731C618 -743 618 -749 598 -753C560 -760 538 -767 517 -777C508 -682 494 -625 446 -514C474 -512 498 -504 517 -492C530 -526 542 -558 552 -590H675V-446C576 -446 510 -447 454 -451V-374C514 -378 588 -380 702 -380C816 -380 891 -378 952 -374V-451C900 -448 837 -446 748 -446V-590C807 -590 887 -586 922 -582V-664C886 -660 808 -656 748 -656ZM821 -74H591V-240H821ZM591 -8H821V59H901C896 18 893 -17 893 -60V-240C893 -277 894 -294 897 -310C869 -308 813 -307 705 -307C598 -307 544 -308 513 -310C516 -290 517 -273 517 -240V-52C517 -9 515 22 509 67H591Z"/>
</svg>