<svg xmlns="http://www.w3.org/2000/svg" viewBox="0 -1000 1000 1000">
	<path fill="#000000" d="M181 -157C166 -195 145 -237 122 -277L64 -255C85 -223 106 -172 119 -125ZM378 -251L310 -284C303 -241 287 -188 268 -148L322 -130C341 -178 359 -215 378 -251ZM260 -733C271 -750 281 -759 290 -764C307 -772 305 -780 290 -784C267 -791 245 -801 218 -817C186 -720 118 -605 39 -523C55 -507 67 -486 78 -457C95 -479 110 -499 125 -519V-484C143 -488 165 -489 195 -490V-387C145 -387 103 -389 73 -393V-318C102 -322 144 -324 195 -324V-78C121 -65 99 -63 59 -64C69 -35 74 -2 73 29C119 7 171 -10 396 -50C390 -76 389 -95 394 -122C348 -108 300 -97 261 -89V-324C308 -324 344 -322 373 -318V-393C344 -389 309 -387 261 -387V-490C297 -490 324 -488 346 -484V-558C319 -554 286 -552 236 -552C200 -552 172 -553 150 -555C179 -596 206 -638 232 -685C275 -652 305 -624 342 -582L394 -636C355 -669 310 -701 260 -733ZM541 -84C566 -60 588 -36 605 -17L656 -74C625 -102 598 -127 573 -149C601 -215 617 -289 629 -372C594 -370 569 -369 515 -369C466 -369 436 -370 400 -372V-307C419 -309 436 -310 459 -310H555C549 -267 539 -226 524 -189C491 -216 462 -238 432 -258L394 -212C425 -190 461 -160 495 -128C464 -74 419 -28 355 10C388 25 406 38 421 56C473 13 512 -33 541 -84ZM835 -551C867 -612 888 -680 902 -765C867 -763 839 -762 787 -762C734 -762 688 -763 652 -765V-698C671 -700 688 -701 710 -701H822C813 -658 801 -621 785 -587C754 -609 719 -633 680 -659L640 -614C684 -584 721 -558 753 -534C722 -493 680 -459 622 -428C651 -415 667 -402 686 -380C735 -416 772 -454 802 -496C842 -464 872 -436 899 -409L953 -462C929 -481 890 -511 835 -551ZM542 -507C565 -487 589 -465 613 -440L663 -495C632 -519 603 -541 574 -562C601 -617 617 -679 629 -759C591 -757 565 -756 510 -756C457 -756 431 -757 392 -759V-693C411 -695 433 -697 452 -697H555C549 -661 539 -628 524 -598C497 -616 472 -633 447 -648L406 -602C436 -585 464 -567 492 -546C464 -510 427 -478 379 -451C406 -437 423 -422 444 -398C485 -435 517 -470 542 -507ZM720 -316H827C817 -251 797 -195 764 -145C741 -191 726 -248 720 -316ZM658 -315C667 -230 689 -137 722 -93C680 -48 624 -10 552 24C587 43 603 56 623 81C683 42 731 3 770 -41C812 -1 861 31 914 56C922 28 936 4 962 -27C903 -42 853 -66 812 -98C859 -170 888 -258 911 -377C871 -375 845 -374 787 -374C733 -374 673 -375 635 -377V-313C643 -314 650 -314 658 -315Z"/>
</svg>