<svg xmlns="http://www.w3.org/2000/svg" viewBox="0 -1000 1000 1000">
	<path fill="#000000" d="M839 -514C849 -535 861 -552 869 -556C885 -563 885 -571 864 -574C841 -577 812 -584 787 -598C783 -528 762 -450 728 -389C721 -409 715 -430 709 -452V-612C805 -611 873 -608 925 -604V-684C873 -680 805 -677 709 -676V-775C709 -787 711 -794 720 -802C739 -819 734 -829 714 -827C689 -825 658 -826 629 -829C635 -788 637 -754 637 -676C545 -677 481 -680 429 -684V-604C480 -608 545 -611 637 -612V-397C569 -212 467 -91 337 -28C377 -13 393 1 411 34C535 -71 595 -146 637 -257V-110C637 -57 633 13 627 78H719C713 13 709 -57 709 -110V-281C748 -164 808 -71 903 19C920 -22 939 -46 970 -64C885 -106 802 -197 743 -347C754 -342 763 -335 772 -327C787 -362 797 -391 816 -454C834 -403 848 -356 858 -309L933 -339C907 -393 873 -457 839 -514ZM547 -504C563 -535 578 -551 587 -554C605 -560 604 -566 584 -571C561 -577 526 -590 504 -601C485 -506 449 -404 401 -333C425 -328 440 -318 456 -297C479 -334 488 -355 519 -436C533 -397 542 -364 551 -321L620 -357C601 -404 576 -455 547 -504ZM433 -270L365 -314C347 -271 329 -236 302 -193L360 -159C390 -215 407 -242 433 -270ZM200 -163C183 -208 163 -249 137 -298L78 -262C100 -220 119 -174 135 -130ZM289 -124V-336C336 -336 371 -334 400 -330V-407C371 -403 336 -401 289 -400V-486C331 -485 362 -483 386 -479V-556C357 -551 322 -549 264 -549H154C188 -596 219 -643 251 -698C311 -656 340 -627 370 -592L420 -656C384 -685 346 -712 284 -748C297 -763 312 -776 323 -780C342 -787 342 -796 323 -800C299 -805 268 -816 237 -832C193 -722 131 -620 43 -536C66 -523 82 -506 98 -478C114 -497 128 -515 142 -533V-479C162 -482 185 -484 216 -485V-400C160 -401 120 -403 86 -407V-330C119 -334 159 -336 216 -337V-106C162 -95 110 -86 56 -80C74 -51 82 -21 85 14C165 -23 296 -67 417 -88C411 -105 412 -135 422 -164C374 -148 330 -135 289 -124Z"/>
</svg>