<svg xmlns="http://www.w3.org/2000/svg" viewBox="0 -1000 1000 1000">
	<path fill="#000000" d="M650 -154H549V-266H650ZM549 -93H650V-41H725C720 -66 716 -92 716 -126V-274C716 -303 719 -320 723 -334C702 -329 683 -327 603 -327C525 -327 503 -329 480 -334C485 -318 487 -300 487 -274V-111C487 -77 485 -52 480 -26H549ZM199 -177C183 -224 165 -267 144 -309L81 -278C106 -235 121 -196 130 -145ZM421 -295L350 -328C336 -282 326 -252 306 -203L364 -172C387 -230 400 -259 421 -295ZM287 -770C297 -782 306 -788 317 -791C331 -795 330 -806 316 -809C295 -812 264 -822 228 -837C193 -727 136 -643 46 -557C74 -546 99 -528 115 -509C123 -520 131 -530 139 -540V-503C161 -507 188 -509 221 -510V-417C161 -418 119 -421 82 -425V-349C118 -353 160 -356 221 -357V-106C167 -94 116 -86 63 -81C79 -48 90 -18 97 10C189 -23 278 -51 419 -90C416 -108 416 -133 421 -160C373 -144 330 -132 290 -122V-357C338 -356 374 -353 405 -349V-425C374 -421 338 -418 290 -417V-511C331 -510 361 -507 385 -503V-576C356 -571 318 -568 263 -568C222 -568 190 -570 163 -573C204 -628 231 -673 256 -718C312 -671 341 -640 376 -599L427 -666C392 -695 344 -730 287 -770ZM857 -397C891 -397 918 -396 943 -394V-469C918 -465 887 -464 857 -464H500C469 -464 440 -465 415 -469V-394C441 -396 464 -397 497 -397H784V-42C784 -15 776 -8 691 -18C715 15 721 35 725 78C848 56 857 41 857 -45ZM613 -652C592 -589 538 -555 429 -531C449 -518 470 -496 488 -469C580 -504 637 -546 667 -604C736 -566 779 -536 860 -468L904 -541C815 -593 762 -621 695 -652C779 -652 862 -649 908 -645V-725C862 -721 778 -719 693 -719C697 -771 703 -806 708 -811C721 -825 719 -831 705 -830C680 -828 669 -828 626 -834C631 -805 630 -780 624 -719C552 -720 491 -722 448 -725V-645C489 -649 545 -651 613 -652Z"/>
</svg>