<svg xmlns="http://www.w3.org/2000/svg" viewBox="0 -1000 1000 1000">
	<path fill="#000000" d="M201 -168C188 -211 180 -230 139 -305L72 -277C101 -234 112 -209 133 -137ZM289 -193L355 -161C390 -220 410 -246 440 -277L364 -319C350 -277 332 -248 289 -193ZM817 -88V-58C817 -9 805 -3 706 -14C729 17 739 39 744 77C870 65 887 42 887 -13V-300C887 -334 888 -364 890 -380C861 -378 800 -377 687 -377C589 -377 503 -378 474 -380C476 -364 477 -334 477 -300V-61C477 7 474 32 468 70H546V-88ZM643 -665V-604C560 -605 513 -607 462 -611V-543C513 -546 560 -546 643 -546V-487C509 -487 489 -488 415 -495V-423C492 -429 512 -430 674 -430C837 -430 868 -429 955 -423V-495C877 -488 843 -487 716 -487V-546C809 -546 857 -546 911 -543V-611C857 -606 809 -604 716 -604V-665C811 -665 886 -663 936 -658V-730C886 -726 811 -723 716 -723V-792C716 -806 718 -813 729 -819C744 -828 743 -836 725 -835C688 -833 663 -834 637 -837C641 -816 643 -779 643 -723C546 -724 479 -726 430 -730V-658C477 -662 553 -664 643 -665ZM546 -263V-317H817V-263ZM817 -205V-146H546V-205ZM287 -763C306 -783 319 -790 330 -792C343 -794 343 -803 332 -805C291 -814 262 -825 237 -841C196 -743 126 -648 38 -581C60 -563 76 -543 87 -510C103 -529 119 -546 134 -564V-501C155 -506 182 -509 216 -510V-416C161 -417 120 -420 87 -426V-348C119 -354 161 -357 216 -358V-94C132 -79 106 -76 63 -74C79 -36 84 -18 86 12C173 -20 250 -39 437 -75C432 -92 431 -118 435 -145C388 -128 360 -120 287 -107V-357C337 -357 376 -354 406 -348V-426C376 -420 337 -417 287 -416V-510C324 -510 352 -507 375 -501V-576C346 -569 309 -566 255 -566C206 -566 171 -568 142 -574C181 -620 224 -679 249 -717C294 -680 328 -643 356 -599L413 -659C383 -690 336 -728 287 -763Z"/>
</svg>