<svg xmlns="http://www.w3.org/2000/svg" viewBox="0 -1000 1000 1000">
	<path fill="#000000" d="M184 -159C178 -212 168 -269 153 -327L88 -317C106 -272 117 -203 121 -145ZM388 -312L331 -331C319 -259 308 -221 291 -179L347 -162C363 -207 375 -253 388 -312ZM243 -708C274 -679 314 -639 346 -605L392 -662C362 -689 315 -724 272 -755C281 -769 290 -779 297 -782C316 -790 316 -799 296 -803C273 -808 254 -816 228 -832C186 -714 127 -642 41 -588C68 -576 85 -563 105 -537C115 -547 125 -556 134 -566V-508C154 -513 174 -515 208 -516V-430C161 -431 122 -434 95 -439V-362C121 -366 162 -368 208 -369V-98C129 -85 90 -82 66 -85C83 -53 87 -33 88 4C126 -14 152 -22 384 -66C379 -90 381 -112 385 -132C343 -124 306 -116 274 -110V-369C317 -368 347 -366 368 -362V-439C347 -434 317 -432 274 -431V-516C321 -515 348 -512 368 -508V-586C337 -579 300 -576 242 -576C213 -576 186 -578 150 -583C180 -617 210 -656 243 -708ZM513 -84C533 -64 556 -48 580 -35C652 4 776 21 951 28C950 -4 955 -19 977 -60C856 -38 707 -54 628 -89C595 -104 566 -123 540 -148C551 -178 560 -210 568 -246C582 -307 593 -381 600 -475C578 -472 564 -470 498 -470L598 -765C540 -757 459 -757 391 -766V-694C424 -697 465 -699 504 -699L452 -522C439 -478 421 -460 394 -453C402 -436 411 -420 412 -404C439 -408 468 -410 528 -410C522 -329 511 -262 494 -206C476 -235 459 -268 444 -307L389 -283C416 -220 441 -173 468 -136C436 -67 392 -16 335 30C371 36 397 45 419 65C460 8 490 -38 513 -84ZM827 -714C910 -733 921 -735 931 -733C947 -730 950 -736 933 -750C906 -772 898 -779 882 -806C854 -788 810 -770 763 -759C712 -746 657 -739 615 -739C635 -714 642 -702 647 -677C691 -684 708 -687 763 -699V-226H698V-522C698 -545 702 -554 719 -566C731 -574 726 -586 708 -585C679 -583 661 -584 629 -589C633 -563 635 -521 635 -472V-253C635 -218 632 -181 626 -153C661 -158 690 -160 782 -160C858 -160 886 -158 926 -152V-234C902 -229 875 -227 827 -226V-440C883 -439 914 -438 940 -434V-513C914 -509 883 -508 827 -507Z"/>
</svg>