<svg xmlns="http://www.w3.org/2000/svg" viewBox="0 -1000 1000 1000">
	<path fill="#000000" d="M202 -178C189 -211 170 -248 140 -295L69 -266C97 -226 117 -185 129 -146ZM419 -278L353 -307C338 -262 327 -235 306 -188L367 -165C386 -213 396 -235 419 -278ZM709 -569H816V-477H709ZM641 -477H537V-569H641ZM641 -628H537V-725H641ZM709 -725H816V-628H709ZM709 -252C767 -131 840 -49 924 8C932 -22 947 -49 972 -77C869 -134 807 -184 752 -273C853 -272 910 -269 944 -264V-340C906 -334 838 -331 709 -331V-415C778 -415 852 -414 888 -412C886 -433 886 -452 886 -491V-712C886 -750 887 -771 889 -793C847 -788 800 -786 673 -786C544 -786 506 -788 463 -793C466 -770 467 -751 467 -712V-492C467 -455 466 -435 463 -412C498 -414 565 -415 641 -415V-331C525 -332 471 -335 436 -340V-264C464 -268 507 -271 588 -272C509 -138 441 -79 349 -32C382 -15 403 4 416 29C529 -56 581 -128 641 -266V-117C641 -64 637 -7 630 58H716C711 -6 709 -64 709 -117ZM290 -749C302 -764 318 -775 328 -779C342 -784 343 -791 331 -794C312 -800 273 -820 245 -838C189 -705 134 -627 50 -548C72 -531 85 -517 96 -487C111 -501 124 -516 138 -532V-491C161 -496 189 -499 224 -500V-407C163 -407 121 -409 82 -414V-341C118 -345 163 -348 224 -348V-112C169 -103 114 -96 57 -90C73 -60 85 -32 92 -7C200 -42 313 -70 419 -86C415 -103 416 -126 425 -152C380 -141 336 -132 294 -124V-347C342 -347 379 -345 410 -341V-414C379 -410 342 -408 294 -407V-500C332 -499 362 -497 388 -491V-570C356 -564 311 -561 263 -561C228 -561 194 -563 166 -566C196 -604 217 -634 259 -701C307 -666 342 -632 371 -595L427 -664C382 -696 343 -720 290 -749Z"/>
</svg>