<svg xmlns="http://www.w3.org/2000/svg" viewBox="0 -1000 1000 1000">
	<path fill="#000000" d="M211 -160C189 -207 163 -255 139 -295L79 -264C108 -219 125 -181 143 -129ZM620 -767C636 -774 637 -783 619 -788C597 -794 571 -806 534 -825C522 -786 503 -747 469 -692C453 -666 429 -635 407 -611C465 -545 497 -499 532 -427C559 -449 577 -463 607 -477C561 -535 532 -567 486 -610C583 -737 600 -758 620 -767ZM953 -482C904 -539 869 -577 821 -619C911 -745 928 -763 943 -767C960 -771 961 -780 944 -786C919 -794 888 -809 854 -829C842 -784 835 -767 790 -689C775 -663 757 -640 733 -614C799 -553 842 -498 879 -428C903 -454 922 -469 953 -482ZM778 -766C795 -770 793 -780 775 -786C752 -794 731 -804 697 -823C686 -783 665 -741 629 -684C612 -657 593 -632 576 -612C628 -560 667 -508 700 -436C726 -460 739 -468 774 -481C732 -538 698 -575 656 -616C735 -736 761 -762 778 -766ZM529 -162H647V-43H529ZM647 -350V-226H529V-350ZM834 -226H715V-350H834ZM834 -43H715V-162H834ZM529 22H834V73H919C910 21 906 -23 906 -78V-330C906 -377 907 -399 912 -420C871 -417 838 -416 684 -416C529 -416 500 -417 456 -420C460 -395 461 -372 461 -330V-79C461 -24 458 17 449 72H529ZM300 -761C311 -774 319 -779 327 -782C344 -788 345 -799 330 -802C297 -809 272 -819 244 -836C214 -742 145 -645 44 -566C64 -543 76 -524 92 -487C106 -502 119 -518 132 -534V-490C156 -496 185 -499 223 -500V-396C163 -397 120 -401 84 -407V-322C119 -328 162 -332 223 -333V-86C135 -71 100 -69 64 -70C78 -42 86 -4 85 26C131 3 179 -10 426 -53C423 -72 422 -97 424 -125C374 -115 332 -107 296 -100V-166L348 -143C381 -196 399 -226 420 -268L356 -300C342 -258 323 -218 296 -176V-333C348 -332 391 -328 422 -322V-407C391 -402 348 -398 296 -396V-501C338 -500 370 -496 396 -490V-574C364 -566 323 -563 264 -563C220 -563 187 -565 159 -569C191 -610 225 -656 264 -712C307 -680 333 -657 367 -618L423 -686C380 -713 345 -735 300 -761Z"/>
</svg>