<svg xmlns="http://www.w3.org/2000/svg" viewBox="0 -1000 1000 1000">
	<path fill="#000000" d="M581 -182V-342H643V-182ZM617 -127C651 -127 682 -125 702 -121C698 -165 697 -188 697 -234V-325C697 -366 698 -386 700 -404C685 -401 658 -399 609 -399C560 -399 537 -401 523 -404C526 -383 528 -362 528 -325V-240C528 -194 527 -168 522 -121C552 -125 589 -127 617 -127ZM692 -462V-530C678 -527 636 -524 608 -524C576 -524 545 -526 529 -530V-462C544 -465 576 -468 608 -468C636 -468 678 -465 692 -462ZM914 -739C897 -775 885 -795 867 -826L807 -793C825 -760 835 -739 849 -703ZM698 -670C531 -670 467 -673 436 -679C442 -529 444 -403 443 -337C439 -147 431 -81 349 16C374 25 399 41 416 64C501 -87 506 -148 506 -603H703C715 -434 731 -308 761 -193C709 -92 653 -38 565 10C590 23 615 46 622 69C688 25 742 -37 785 -104C801 -58 815 -29 833 -5C906 97 941 54 970 -101C948 -110 923 -134 906 -164C899 -39 886 -38 865 -75C855 -92 839 -127 825 -177C855 -246 880 -338 892 -419C902 -488 908 -502 914 -506C928 -513 928 -520 913 -522C889 -525 868 -530 844 -542C830 -416 817 -338 800 -283C782 -379 771 -503 770 -603C858 -602 911 -599 937 -594V-679C915 -674 851 -671 770 -670C770 -766 771 -796 774 -801C788 -818 786 -827 771 -825C752 -823 716 -827 689 -836C690 -796 693 -739 698 -670ZM191 -142C185 -194 178 -239 163 -300L99 -286C117 -241 127 -182 131 -124ZM397 -298L338 -317C324 -232 319 -208 302 -167L358 -147C373 -196 384 -238 397 -298ZM252 -698C305 -654 334 -624 367 -584L413 -637C372 -673 332 -705 280 -743C290 -756 298 -764 305 -767C326 -775 326 -785 305 -791C283 -797 267 -806 242 -824C199 -713 144 -637 49 -569C76 -553 88 -538 102 -514C111 -523 119 -531 128 -540V-497C147 -501 181 -503 218 -504V-408C173 -409 127 -412 104 -416V-343C127 -346 174 -348 218 -349V-98C154 -87 118 -86 81 -88C98 -49 102 -30 102 2C136 -17 185 -29 389 -67C385 -90 385 -110 390 -135C349 -125 313 -117 283 -110V-349C333 -349 373 -347 394 -343V-416C373 -412 332 -409 283 -408V-504C333 -503 364 -500 382 -497V-573C354 -566 310 -564 255 -564C231 -564 191 -565 155 -569C191 -609 221 -649 252 -698Z"/>
</svg>