<svg xmlns="http://www.w3.org/2000/svg" viewBox="0 -1000 1000 1000">
	<path fill="#000000" d="M803 -540H564V-605H803ZM875 -474C873 -487 874 -519 874 -544V-732C874 -757 875 -780 875 -792C834 -788 787 -786 683 -786C584 -786 529 -788 488 -792C490 -780 492 -757 492 -732V-544C492 -519 491 -488 488 -474C529 -476 583 -477 683 -477C784 -477 834 -476 875 -474ZM803 -662H564V-725H803ZM205 -158C187 -198 164 -238 138 -278L78 -245C102 -214 128 -165 142 -116ZM537 -367C507 -314 457 -269 410 -245C413 -251 415 -256 418 -261L349 -285C342 -242 324 -189 301 -149L358 -131C375 -174 391 -209 408 -241C430 -225 438 -215 453 -191C474 -208 496 -229 517 -251H595C545 -166 508 -136 422 -103C422 -109 423 -116 425 -123C370 -108 327 -97 288 -90V-325C342 -325 376 -323 410 -319V-394C376 -390 342 -388 288 -388V-490C329 -490 354 -488 379 -484V-559C349 -555 320 -553 263 -553C218 -553 185 -554 159 -556C195 -601 228 -644 264 -693C319 -655 372 -611 414 -566L472 -630C431 -661 360 -707 300 -743C315 -764 323 -771 331 -774C350 -782 348 -792 333 -794C305 -797 275 -807 244 -827C209 -726 136 -620 42 -542C61 -526 80 -504 93 -476C108 -494 123 -512 137 -529V-484C159 -487 184 -489 219 -490V-388C163 -388 123 -390 89 -394V-319C122 -323 163 -325 219 -325V-79C129 -66 108 -64 61 -65C73 -36 78 -7 77 24C130 2 170 -9 427 -55C423 -69 421 -80 421 -92C439 -79 455 -62 469 -44C558 -96 597 -134 664 -251H725C682 -95 628 -50 455 21C487 45 495 52 509 76C674 6 745 -77 793 -251H837L830 -54C828 -11 811 -1 722 -14C745 15 756 39 757 73C874 59 894 33 897 -42L906 -254C907 -277 910 -303 912 -314C883 -310 865 -309 793 -309H568C584 -330 599 -349 610 -367H795C855 -367 899 -366 942 -364V-435C875 -430 812 -428 692 -428C570 -428 487 -430 422 -435V-361C460 -365 494 -367 537 -367Z"/>
</svg>