<svg xmlns="http://www.w3.org/2000/svg" viewBox="0 -1000 1000 1000">
	<path fill="#000000" d="M675 -730C648 -757 618 -784 580 -817L538 -773C574 -741 605 -713 633 -685C594 -646 555 -614 512 -582C533 -573 556 -557 568 -539C609 -573 644 -603 678 -639C707 -608 735 -574 765 -535L810 -586C776 -624 748 -655 720 -684C729 -694 737 -703 745 -713C778 -751 790 -760 805 -764C818 -767 820 -778 809 -784C794 -791 783 -800 755 -829C727 -791 701 -759 675 -730ZM834 -655V-519H503V-698C503 -723 505 -730 521 -743C535 -754 533 -768 516 -767C489 -765 459 -766 429 -771C435 -737 439 -697 439 -646V-555C439 -517 436 -473 433 -452C498 -457 527 -457 655 -457C784 -457 844 -454 906 -451C904 -473 903 -517 903 -554V-696C903 -720 905 -734 922 -746C933 -753 932 -766 915 -765C889 -762 854 -763 825 -769C831 -735 834 -707 834 -655ZM184 -127C176 -179 166 -228 150 -286L82 -272C101 -227 113 -167 117 -109ZM402 -271L336 -290C322 -209 314 -189 295 -150L356 -130C374 -173 387 -211 402 -271ZM253 -707C287 -681 330 -640 374 -594L430 -653C392 -681 333 -719 283 -751C294 -766 304 -774 311 -777C335 -786 335 -796 309 -801C285 -806 266 -814 238 -830C183 -715 130 -647 39 -575C73 -563 89 -554 108 -532C110 -534 112 -536 114 -538V-483C138 -487 170 -489 211 -490V-392C162 -393 116 -396 90 -400V-324C116 -327 163 -329 211 -330V-64C127 -51 84 -48 59 -51C79 -19 82 3 83 39C122 22 154 14 403 -30C398 -54 398 -78 404 -98C358 -89 317 -82 282 -76V-330C334 -329 366 -327 391 -324V-400C366 -396 333 -393 282 -392V-490C335 -489 362 -487 385 -483V-561C352 -555 312 -552 249 -552C219 -552 176 -554 134 -558C175 -601 215 -653 253 -707ZM679 -27C740 16 820 49 922 71C925 37 936 5 961 -27C866 -30 793 -45 736 -74C792 -130 835 -204 862 -299C844 -297 815 -298 763 -298H612C625 -315 634 -326 640 -331C654 -343 652 -350 641 -352C625 -354 591 -369 578 -381C542 -290 467 -199 393 -147C422 -136 447 -120 458 -99C488 -133 517 -169 543 -202C561 -153 589 -109 626 -71C560 -32 459 -7 358 -10C380 22 389 40 400 73C489 65 605 23 679 -27ZM679 -111C640 -144 611 -185 587 -236H770C745 -181 720 -148 679 -111ZM522 -455C475 -383 436 -341 381 -300C409 -290 424 -279 437 -257C472 -291 498 -320 529 -362C550 -392 567 -406 573 -408C590 -416 591 -428 575 -431C557 -433 540 -442 522 -455ZM946 -344C879 -388 806 -425 746 -448L707 -399C778 -371 850 -328 904 -278Z"/>
</svg>