<svg xmlns="http://www.w3.org/2000/svg" viewBox="0 -1000 1000 1000">
	<path fill="#000000" d="M526 -18V-105C576 -105 619 -105 657 -104C641 -70 626 -44 604 -18ZM539 -375C556 -387 568 -392 576 -395C584 -398 589 -408 576 -410C559 -412 528 -432 513 -450C486 -411 380 -337 312 -311C217 -275 154 -260 47 -245C75 -223 88 -204 101 -171C183 -195 248 -217 302 -238V-204C351 -207 383 -209 451 -209V-160C331 -160 257 -162 180 -167V-98C254 -103 331 -105 451 -105V-18H317L359 -34C340 -62 331 -74 315 -99L248 -69C267 -44 273 -34 280 -20C215 -21 160 -22 108 -25V45C207 41 323 38 502 38C681 38 797 42 896 46V-24C828 -21 759 -19 671 -19C684 -29 697 -39 708 -47C724 -58 737 -67 742 -68C754 -71 753 -76 745 -78C719 -85 697 -93 674 -104C727 -103 771 -102 812 -99V-166C739 -162 656 -160 526 -160V-209C598 -209 654 -208 697 -205V-242C765 -220 841 -203 924 -191C926 -220 936 -249 953 -277C767 -282 650 -313 539 -375ZM644 -261H359C413 -286 456 -313 494 -342C538 -311 589 -283 644 -261ZM256 -507C229 -512 205 -526 188 -548C168 -484 127 -399 74 -341C105 -333 127 -322 156 -304C181 -367 219 -444 256 -507ZM559 -681V-597C432 -597 318 -600 284 -603V-535C311 -536 381 -539 445 -540C431 -471 379 -428 222 -386C255 -371 272 -352 280 -335C439 -387 494 -455 513 -540H649V-408C649 -364 662 -349 783 -349C880 -349 904 -368 928 -440C904 -446 884 -458 864 -481C855 -417 845 -408 776 -408C723 -408 715 -416 715 -429V-540C806 -540 885 -538 918 -535V-603C888 -600 768 -597 632 -597V-681C740 -681 817 -679 843 -677V-741C816 -738 738 -736 632 -736V-784C632 -800 639 -813 648 -819C656 -824 656 -830 641 -830C618 -829 581 -830 551 -832C555 -814 559 -776 559 -736H448C456 -754 467 -773 475 -778C488 -785 487 -790 472 -790C442 -791 426 -794 396 -802C382 -731 359 -674 321 -632C344 -629 372 -622 394 -613C404 -635 414 -657 424 -681ZM268 -625C216 -649 149 -674 95 -691L66 -630C121 -615 187 -587 231 -562ZM317 -751C269 -778 209 -807 152 -830L118 -769C168 -747 230 -715 279 -686Z"/>
</svg>