<svg xmlns="http://www.w3.org/2000/svg" viewBox="0 -1000 1000 1000">
	<path fill="#000000" d="M193 -170C176 -221 159 -258 135 -298L67 -272C90 -229 104 -192 118 -139ZM404 -265L335 -307C320 -269 304 -238 275 -193L331 -162C355 -199 375 -227 404 -265ZM788 -341C880 -394 890 -397 901 -398C920 -399 921 -404 912 -410C894 -422 870 -445 850 -472C813 -435 743 -381 683 -342C665 -378 649 -399 629 -416C670 -444 703 -472 731 -504C817 -505 877 -504 930 -499V-573C866 -567 790 -564 672 -564C554 -564 479 -567 414 -573V-495C473 -500 541 -503 643 -504C583 -450 495 -410 412 -388C434 -370 448 -353 459 -325C503 -344 540 -363 574 -382C584 -372 592 -361 600 -350C540 -295 474 -258 385 -226C405 -204 415 -187 423 -161C500 -199 571 -245 628 -295C633 -284 637 -272 640 -259C553 -155 457 -92 358 -53C386 -35 404 -14 414 14C501 -40 592 -116 655 -189C659 -149 657 -103 651 -81C633 -15 614 -6 524 -32C545 -2 559 38 559 73C677 53 696 32 715 -40C733 -112 726 -234 705 -292C716 -299 726 -305 736 -310C769 -167 817 -80 910 8C921 -22 944 -55 967 -71C864 -148 811 -213 788 -341ZM722 -733C719 -768 715 -800 709 -834L606 -818C621 -788 629 -764 635 -733C531 -733 476 -735 416 -739V-591H488V-671H848V-592H923V-739C869 -735 814 -733 722 -733ZM275 -751C287 -764 302 -774 311 -777C327 -783 327 -789 314 -792C293 -797 256 -813 228 -831C195 -729 127 -638 42 -573C64 -557 81 -536 96 -503C106 -515 116 -527 126 -538V-482C148 -487 172 -490 205 -491V-405C151 -406 112 -409 79 -415V-332C111 -338 150 -341 205 -342V-90C146 -75 93 -66 52 -62C68 -30 76 -6 78 35C127 7 231 -32 387 -77C383 -101 382 -118 382 -143C344 -130 307 -118 272 -108V-341C323 -341 360 -338 391 -332V-415C360 -409 323 -406 272 -405V-492C317 -491 347 -488 374 -482V-563C343 -556 308 -553 250 -553C202 -553 170 -555 143 -560C179 -606 209 -649 241 -698C293 -662 328 -632 356 -598L406 -666C362 -696 321 -723 275 -751Z"/>
</svg>