<svg xmlns="http://www.w3.org/2000/svg" viewBox="0 -1000 1000 1000">
	<path fill="#000000" d="M816 -532H550V-599H816ZM891 -469C889 -481 887 -513 887 -539V-720C887 -746 889 -778 891 -790C843 -786 823 -785 683 -785C543 -785 526 -786 478 -790C480 -778 482 -746 482 -720V-539C482 -513 480 -482 478 -469C526 -473 544 -474 684 -474C824 -474 843 -473 891 -469ZM816 -658H550V-727H816ZM196 -160C183 -201 160 -251 137 -292L74 -264C102 -221 118 -182 127 -131ZM429 -283L359 -307C346 -263 334 -232 310 -182L370 -160C394 -218 408 -247 429 -283ZM287 -763C298 -774 307 -780 319 -783C336 -787 335 -798 319 -801C297 -805 259 -820 235 -838C210 -753 128 -637 32 -554C61 -536 72 -524 89 -499C100 -511 112 -525 124 -539V-493C147 -497 179 -499 217 -500V-402C156 -403 107 -406 71 -410V-334C107 -338 156 -341 217 -342V-102C160 -91 106 -83 50 -77C68 -43 74 -25 83 10C165 -20 261 -46 432 -85C427 -107 425 -131 427 -152C375 -139 329 -127 286 -117V-342C346 -341 391 -338 427 -334V-410C391 -406 346 -403 286 -402V-501C333 -500 372 -497 399 -493V-566C367 -561 320 -558 262 -558C214 -558 175 -560 144 -563C184 -613 226 -671 255 -716C315 -664 355 -627 392 -584L442 -645C403 -678 347 -721 287 -763ZM562 -236C544 -270 521 -303 498 -330L442 -300C466 -269 486 -236 502 -200ZM828 -237C812 -271 794 -303 775 -333L715 -307C736 -276 751 -246 764 -209ZM859 -160V-63C859 -29 850 -21 773 -33C792 1 800 26 804 56C912 44 926 25 926 -41V-323C926 -379 927 -407 928 -430C900 -428 857 -427 816 -427C774 -426 734 -428 706 -430V-363C721 -366 754 -368 789 -368H859V-220C799 -184 750 -160 694 -136C712 -113 722 -96 732 -71C769 -100 799 -121 859 -160ZM602 -150V-66C602 -40 587 -21 510 -36C531 -2 538 18 542 50C655 30 666 12 666 -44V-318C666 -374 666 -402 667 -425C639 -423 599 -422 555 -422C510 -422 477 -422 447 -425V-358C460 -361 493 -363 525 -363H602V-210C545 -177 492 -149 433 -121C450 -98 456 -84 463 -54C497 -84 524 -103 602 -150Z"/>
</svg>