<svg xmlns="http://www.w3.org/2000/svg" viewBox="0 -1000 1000 1000">
	<path fill="#000000" d="M537 -372C540 -378 537 -383 528 -388C515 -394 499 -401 485 -409C437 -356 402 -329 314 -289C211 -242 138 -219 43 -210C67 -191 84 -170 99 -143C168 -167 258 -205 334 -240V-203C374 -207 402 -208 466 -208V-150C352 -150 278 -151 205 -156V-91C277 -96 352 -97 466 -97V-9H376C365 -34 353 -55 340 -77L277 -65C290 -47 303 -27 313 -9C190 -9 154 -11 117 -17V58C158 51 201 49 501 49C746 49 815 53 891 58V-17C820 -12 760 -9 677 -9C718 -42 733 -52 742 -54C754 -57 754 -63 746 -65C727 -70 696 -78 673 -87C655 -55 637 -34 613 -9H535V-97C657 -97 739 -95 809 -92V-155C739 -151 657 -150 535 -150V-208C595 -207 638 -206 676 -204V-249C750 -221 827 -205 923 -191C923 -213 933 -240 950 -264C776 -267 660 -301 537 -372ZM657 -256C616 -253 566 -253 494 -253C431 -253 399 -254 366 -256C446 -302 480 -324 499 -340C554 -304 605 -276 657 -256ZM856 -634C892 -633 925 -631 941 -628V-707C916 -701 853 -696 781 -696H660C685 -735 706 -764 710 -767C728 -778 728 -786 716 -789C693 -794 660 -804 636 -814C611 -715 569 -645 504 -586C514 -576 530 -559 544 -541C564 -561 601 -606 621 -635H789C773 -573 756 -539 732 -514C705 -533 672 -555 634 -580L585 -542C626 -516 659 -496 686 -477C650 -451 632 -444 561 -424C586 -402 608 -378 612 -367C658 -386 703 -414 737 -441C774 -411 807 -379 855 -328L905 -382C882 -405 857 -427 781 -481C819 -519 832 -542 856 -634ZM291 -707V-662C226 -662 180 -664 134 -669V-612C179 -615 226 -617 291 -617V-569C170 -569 131 -570 76 -576V-513C123 -516 154 -518 199 -519C191 -484 183 -460 175 -441C156 -395 133 -367 63 -331C94 -319 116 -305 127 -290C185 -336 205 -365 231 -435H378L369 -406C365 -393 336 -383 282 -388C290 -372 300 -346 304 -330C363 -328 408 -348 416 -375L451 -488C422 -484 402 -482 329 -482H247C252 -497 255 -508 259 -519C407 -519 433 -518 493 -512V-575C451 -571 425 -569 352 -569V-617C406 -617 448 -615 485 -612V-669C448 -664 408 -662 352 -662V-707C436 -706 485 -703 537 -699V-761C486 -757 437 -754 352 -753C352 -772 354 -780 367 -800C379 -818 376 -821 358 -820C343 -819 310 -821 283 -824C287 -807 290 -785 291 -753C202 -753 153 -756 99 -761V-699C152 -704 203 -706 291 -707Z"/>
</svg>