<svg xmlns="http://www.w3.org/2000/svg" viewBox="0 -1000 1000 1000">
	<path fill="#000000" d="M419 -277L351 -301C340 -257 330 -235 306 -185L366 -157C382 -194 402 -241 419 -277ZM201 -172C184 -219 166 -263 143 -304L76 -279C103 -236 119 -197 128 -146ZM692 -65H553V-151H692ZM692 -291V-208H553V-291ZM692 -426V-348H553V-426ZM288 -750C299 -764 310 -771 323 -774C339 -778 338 -789 323 -792C301 -796 274 -805 236 -821C194 -713 127 -622 40 -548C69 -536 91 -519 107 -500C116 -511 125 -521 133 -531V-490C157 -494 182 -497 220 -498V-403C147 -404 122 -406 80 -411V-332C121 -338 147 -340 220 -340V-101C166 -90 118 -83 58 -77C75 -44 86 -15 93 13C191 -23 255 -43 404 -84C401 -102 401 -126 406 -153C361 -138 323 -127 288 -117V-339C321 -338 345 -336 370 -333C385 -325 402 -311 413 -298C432 -321 452 -347 484 -395V-85C484 -23 482 21 476 81H553V-5H743C833 -5 879 -4 950 0V-73C885 -67 840 -65 761 -65V-151C821 -151 862 -150 919 -146V-216C863 -212 822 -209 761 -208V-291C818 -291 861 -290 915 -286V-356C861 -351 819 -349 761 -348V-426C831 -426 877 -425 938 -421V-492C869 -486 818 -484 727 -484H544C566 -515 577 -527 587 -533C605 -543 603 -551 585 -555C566 -559 539 -568 515 -579C498 -521 443 -436 384 -370V-411C354 -408 327 -405 288 -404V-498C327 -497 355 -494 380 -490V-567C348 -562 313 -559 255 -559C212 -559 183 -561 158 -563C199 -615 231 -660 257 -704C310 -660 345 -625 378 -585L425 -650C388 -678 347 -708 288 -750ZM640 -650H514C514 -732 517 -756 527 -767C535 -777 530 -784 522 -783C501 -781 468 -782 443 -786C447 -761 448 -734 448 -585C488 -589 551 -590 728 -590L660 -568C679 -544 691 -521 699 -490L778 -517C769 -536 749 -571 736 -590C845 -589 869 -588 901 -585C901 -696 903 -757 911 -767C920 -778 915 -785 908 -784C887 -782 852 -783 830 -787C833 -759 834 -735 834 -650H711V-773C711 -785 715 -800 721 -804C735 -815 732 -824 714 -823C684 -822 662 -823 635 -826C638 -810 640 -782 640 -757Z"/>
</svg>