<svg xmlns="http://www.w3.org/2000/svg" viewBox="0 -1000 1000 1000">
	<path fill="#000000" d="M765 -66C802 -17 855 26 917 71C925 41 934 19 962 -13C897 -39 845 -78 810 -123C863 -198 889 -269 926 -420C901 -419 841 -418 786 -418C733 -418 679 -419 649 -420V-349C675 -354 696 -355 746 -355H838C815 -271 796 -219 775 -182C745 -238 732 -275 716 -340L656 -327C680 -242 704 -173 730 -122C672 -56 608 -20 548 2C580 23 600 48 604 70C660 33 714 -6 765 -66ZM183 -177C168 -219 149 -260 127 -300L62 -273C85 -235 97 -209 112 -145ZM663 -165C641 -217 627 -252 601 -311L540 -286C567 -239 585 -193 598 -133ZM471 -360V-285C451 -288 435 -293 411 -311C393 -241 378 -206 338 -124C357 -118 374 -110 395 -92C419 -142 435 -180 442 -199C452 -228 463 -251 471 -262V-90C471 -29 453 -13 384 -31C409 -1 419 30 417 65C528 41 537 34 537 -65V-360C569 -360 592 -359 613 -355V-425C592 -422 569 -421 537 -421V-486C537 -501 538 -510 544 -515C556 -525 556 -530 537 -530C508 -530 489 -531 467 -536C470 -510 471 -495 471 -421C432 -421 405 -422 379 -425V-355C403 -359 431 -360 471 -360ZM954 -535C881 -521 874 -526 875 -593C877 -736 878 -761 883 -785C860 -783 826 -783 778 -783C732 -783 697 -783 674 -785C687 -572 676 -533 608 -470C640 -464 657 -451 676 -432C721 -497 741 -535 741 -723H808L809 -536C809 -474 830 -458 941 -458C937 -486 940 -505 954 -535ZM513 -611C545 -573 564 -545 579 -514L638 -566C610 -601 588 -626 554 -662C629 -754 633 -760 644 -765C655 -770 653 -776 642 -780C618 -791 596 -805 577 -825C567 -792 548 -761 511 -706C474 -743 439 -776 410 -799L363 -750C399 -724 436 -693 473 -654C445 -619 404 -577 354 -535C378 -521 391 -512 410 -495C446 -531 472 -561 513 -611ZM263 -744C274 -754 284 -761 291 -763C312 -768 314 -783 294 -788C262 -796 235 -807 205 -825C163 -698 111 -613 34 -541C59 -516 67 -504 81 -476C91 -490 107 -513 124 -538V-487C142 -491 164 -492 192 -493V-412C147 -412 127 -413 81 -417V-346C108 -350 143 -352 192 -352V-91C155 -81 112 -71 55 -59C73 -32 83 -2 86 26C149 -10 217 -39 330 -74C323 -89 319 -116 324 -136C301 -127 280 -119 259 -112V-196L311 -171C340 -234 351 -253 374 -287L304 -321C295 -270 285 -246 259 -208V-352C295 -351 322 -349 346 -346V-417C322 -413 295 -412 259 -412V-493C288 -492 309 -491 330 -487V-560C303 -555 272 -553 227 -553C189 -553 160 -554 137 -557C172 -609 211 -669 232 -702C286 -656 309 -628 342 -591L389 -654C354 -679 308 -712 263 -744Z"/>
</svg>