<svg xmlns="http://www.w3.org/2000/svg" viewBox="0 -1000 1000 1000">
	<path fill="#000000" d="M817 -573H664V-712H817ZM191 -152C173 -195 153 -235 128 -274L70 -244C96 -200 110 -169 125 -121ZM383 -252L322 -282C308 -239 296 -206 275 -158L326 -131C349 -182 364 -214 383 -252ZM560 -469C558 -487 557 -502 557 -523V-718C557 -737 558 -755 560 -772C536 -768 514 -767 462 -767C411 -767 393 -768 365 -772V-695C388 -700 401 -702 420 -702H492V-537H437C416 -537 402 -539 385 -542C388 -524 388 -514 388 -486V-336C388 -318 387 -302 384 -284C399 -287 404 -287 429 -287H486C485 -222 480 -159 472 -94C462 -19 446 -12 359 -22C386 14 394 40 398 75C522 47 533 25 541 -74C552 -216 557 -324 557 -356C546 -352 535 -350 511 -350H448V-471H516C533 -471 547 -470 560 -469ZM709 -239H649V-356H709ZM774 -356H843V-239H774ZM774 -417V-508C826 -508 857 -507 887 -505C885 -538 884 -591 884 -642C884 -693 886 -747 887 -781C850 -777 814 -776 741 -776C669 -776 632 -778 595 -781C597 -747 598 -693 598 -642C598 -592 597 -539 595 -506C625 -507 657 -508 709 -508V-417C649 -417 615 -418 579 -421C581 -392 582 -343 582 -296C582 -250 580 -201 579 -172C614 -173 649 -174 709 -174V-27C650 -21 604 -19 546 -18C561 11 566 34 572 62C653 43 739 27 855 9C861 31 867 54 873 78L947 57C926 -4 893 -87 869 -132L811 -111C819 -93 829 -71 838 -46C815 -42 794 -39 774 -36V-174C839 -174 874 -173 910 -171C909 -200 908 -249 908 -296C908 -343 909 -392 910 -421C873 -418 839 -417 774 -417ZM271 -749C284 -765 297 -778 302 -779C318 -783 316 -791 304 -795C282 -802 249 -816 219 -833C181 -726 109 -611 35 -542C53 -528 73 -507 89 -485C104 -504 117 -521 129 -537V-488C148 -493 172 -496 202 -498V-402C149 -403 104 -407 74 -413V-333C104 -339 148 -343 202 -344V-77C154 -70 106 -64 52 -60C66 -29 72 0 75 29C158 -5 257 -31 385 -45C380 -67 381 -93 386 -118C344 -106 306 -97 269 -89V-343C310 -342 344 -338 368 -333V-413C344 -408 310 -404 269 -403V-499C305 -497 332 -494 354 -488V-569C327 -562 292 -558 242 -558C203 -558 173 -560 149 -565C185 -615 212 -655 239 -698C285 -660 320 -628 362 -586L423 -645C381 -675 325 -714 271 -749Z"/>
</svg>