<svg xmlns="http://www.w3.org/2000/svg" viewBox="0 -1000 1000 1000">
	<path fill="#000000" d="M457 -105H571V-89C571 -42 558 -37 504 -52C521 -17 528 3 532 29C615 20 636 -3 636 -64V-323C636 -357 637 -387 638 -403C603 -400 563 -399 514 -399C464 -399 427 -400 390 -403C391 -387 392 -357 392 -323V-108C392 -68 390 -18 386 35H457ZM165 -127C159 -179 148 -238 134 -296L64 -282C82 -237 93 -167 97 -109ZM364 -271L298 -290C284 -209 276 -181 259 -140L322 -120C337 -165 351 -211 364 -271ZM571 -227V-157H457V-227ZM457 -279V-346H571V-279ZM824 -583C822 -370 806 -268 783 -207C751 -272 740 -345 736 -430L686 -420C714 -474 736 -523 756 -583ZM541 -524H478V-629H541ZM222 -694C254 -667 292 -628 324 -591L365 -635V-622C382 -625 399 -627 418 -628V-525C398 -525 381 -527 367 -530V-462C394 -466 434 -468 512 -469C571 -470 612 -468 637 -466C629 -452 621 -439 613 -427C634 -419 651 -407 670 -389C672 -392 674 -395 675 -399C688 -288 711 -202 745 -137C691 -49 647 -7 602 26C639 42 658 54 673 67C705 38 749 -12 788 -74C830 -20 867 17 910 52C921 20 939 -7 968 -36C909 -61 875 -83 826 -143C875 -247 888 -364 892 -583C917 -583 933 -583 948 -581V-656C932 -651 910 -649 871 -649H776C810 -755 819 -777 831 -786C855 -803 851 -809 833 -810C807 -811 778 -816 744 -828C728 -714 698 -600 661 -515V-530C648 -526 627 -525 599 -524V-628C623 -627 644 -625 658 -622V-693C644 -689 623 -687 599 -686V-763C599 -776 603 -787 614 -793C629 -802 626 -811 608 -810C584 -808 560 -810 536 -814C540 -797 541 -769 541 -685H478V-758C478 -772 482 -782 493 -788C507 -797 505 -806 487 -805C463 -803 437 -805 413 -809C417 -792 418 -765 418 -686C398 -687 380 -689 365 -693V-651C334 -679 290 -711 249 -739C259 -754 267 -763 275 -766C297 -775 297 -785 273 -790C251 -795 230 -803 204 -819C162 -702 107 -629 19 -570C50 -558 69 -546 88 -521C90 -523 92 -525 94 -527V-472C113 -477 146 -479 184 -479V-392C138 -392 97 -395 72 -400V-324C96 -328 138 -331 184 -330V-72C106 -58 67 -55 43 -58C61 -26 64 -4 65 32C102 15 131 7 361 -37C356 -61 358 -85 362 -105C320 -96 283 -89 250 -83V-330C297 -330 328 -328 350 -324V-400C328 -395 296 -392 250 -392V-479C298 -478 325 -477 345 -472V-550C314 -543 283 -541 219 -541C166 -541 151 -542 113 -547C149 -586 181 -626 222 -694Z"/>
</svg>