<svg xmlns="http://www.w3.org/2000/svg" viewBox="0 -1000 1000 1000">
	<path fill="#000000" d="M208 -166C189 -207 162 -258 137 -297L76 -269C107 -221 128 -180 146 -131ZM920 -558C934 -564 933 -568 919 -573C901 -579 871 -595 855 -607C838 -569 812 -529 789 -502C807 -495 832 -481 847 -467C893 -535 903 -549 920 -558ZM550 -504C524 -542 500 -575 474 -608L421 -572C448 -540 471 -505 490 -468ZM796 -192H542V-262H796ZM796 -54H542V-134H796ZM542 6H796V65H877C872 39 870 2 870 -22V-279C870 -296 871 -317 873 -329C842 -327 783 -325 670 -325C555 -325 499 -326 467 -329C469 -317 470 -296 470 -279V-16C470 8 467 41 462 71H542ZM560 -629V-446C510 -447 434 -450 398 -454V-377C440 -383 535 -386 677 -386C840 -386 914 -383 955 -377V-454C915 -448 875 -446 777 -446V-629C840 -629 889 -626 931 -620V-701C888 -695 840 -692 776 -692C833 -780 843 -790 856 -796C869 -802 868 -808 853 -812C829 -818 802 -828 771 -842C764 -812 749 -776 705 -692H580L633 -731C601 -767 564 -803 533 -826L473 -783C510 -761 535 -734 564 -692C500 -692 451 -695 409 -701V-677C374 -698 328 -724 281 -748C295 -765 309 -780 318 -786C329 -794 328 -799 316 -801C288 -806 260 -818 237 -835C196 -732 127 -637 36 -559C56 -543 73 -523 91 -490C104 -506 116 -520 127 -534V-492C151 -497 174 -500 210 -501V-407C155 -408 115 -411 83 -417V-332C114 -338 155 -341 210 -342V-94C140 -80 87 -73 56 -74C71 -46 79 -17 77 16C110 1 152 -11 427 -76C424 -97 424 -122 424 -146C371 -132 323 -120 279 -109V-179L331 -151C374 -217 394 -245 423 -273L349 -306C333 -263 314 -228 279 -183V-341C318 -340 349 -337 373 -332V-417C349 -412 318 -409 279 -408V-501C320 -500 350 -498 375 -492V-571C344 -564 304 -561 246 -561C203 -561 176 -563 152 -566C189 -614 217 -655 247 -700C298 -664 325 -642 357 -609L409 -667V-620C449 -626 498 -629 560 -629ZM710 -629V-446H628V-629Z"/>
</svg>