<svg xmlns="http://www.w3.org/2000/svg" viewBox="0 -1000 1000 1000">
	<path fill="#000000" d="M188 -134C178 -187 167 -232 149 -290L84 -276C102 -231 111 -174 115 -116ZM404 -275L339 -294C332 -239 322 -198 305 -156L367 -137C382 -183 391 -216 404 -275ZM248 -696C283 -667 331 -624 365 -588L414 -655C382 -683 328 -721 282 -750C290 -763 299 -772 306 -775C325 -783 325 -792 305 -796C282 -801 257 -811 232 -830C186 -712 134 -639 40 -581C63 -564 76 -546 91 -515C98 -521 105 -527 111 -533V-489C132 -494 171 -497 212 -497V-398C163 -398 116 -402 89 -407V-330C115 -334 164 -337 212 -337V-69C131 -57 83 -54 60 -57C78 -25 81 -5 82 32C120 14 177 1 408 -38C403 -62 405 -84 409 -104C360 -94 317 -86 279 -80V-337C325 -337 361 -334 382 -330V-407C361 -402 324 -399 279 -399V-497C329 -497 362 -494 382 -489V-567C351 -560 304 -557 246 -557C220 -557 180 -559 143 -562C184 -602 213 -639 248 -696ZM584 -588C570 -615 553 -655 546 -682L471 -662C485 -637 504 -593 511 -565ZM877 -648C893 -657 893 -666 877 -667C854 -669 819 -682 801 -696C793 -668 775 -623 753 -588C771 -585 803 -577 817 -570C847 -617 868 -643 877 -648ZM808 -41H702V-122H808ZM529 20H808V57H884C880 25 878 -7 878 -61V-259C878 -289 880 -310 883 -329C840 -325 766 -323 670 -323C580 -323 508 -325 465 -329C548 -385 590 -433 618 -506H631C631 -440 630 -392 626 -334H705C701 -392 700 -440 700 -506H705C747 -405 827 -359 926 -328C932 -356 948 -390 966 -413C874 -423 805 -445 757 -506C831 -505 898 -502 939 -498V-567C890 -562 796 -559 700 -559V-713C738 -719 778 -725 819 -732C841 -736 880 -736 905 -734C917 -733 918 -744 908 -757C896 -772 884 -795 873 -824C845 -811 793 -795 738 -783C657 -765 476 -752 417 -753C431 -732 443 -704 443 -681C508 -688 569 -695 631 -703V-559C546 -560 472 -562 424 -567V-499C463 -504 499 -506 562 -506C526 -448 471 -402 387 -361C410 -347 426 -328 433 -307C442 -313 452 -320 461 -325V-52C461 4 460 38 456 73H529ZM530 -122H636V-41H530ZM636 -269V-184H530V-269ZM808 -184H702V-269H808Z"/>
</svg>