<svg xmlns="http://www.w3.org/2000/svg" viewBox="0 -1000 1000 1000">
	<path fill="#000000" d="M822 -131H548V-177H822ZM896 -74C892 -92 891 -118 891 -144V-356C891 -382 892 -412 893 -426C847 -422 820 -421 682 -421C545 -421 521 -422 474 -426C477 -413 480 -382 480 -356V-144C480 -118 477 -87 474 -74C521 -78 545 -79 682 -79C820 -79 850 -78 896 -74ZM822 -223H548V-268H822ZM822 -316H548V-364H822ZM196 -170C179 -217 160 -261 137 -302L70 -274C98 -231 114 -192 124 -141ZM424 -275L357 -308C344 -264 332 -233 308 -183L364 -152C389 -210 403 -239 424 -275ZM285 -752C297 -766 308 -773 321 -776C338 -780 337 -791 321 -794C299 -798 271 -808 233 -825C190 -717 128 -635 24 -552C53 -540 76 -521 92 -502C104 -516 116 -530 127 -543V-488C151 -492 178 -494 215 -495V-403C156 -404 120 -406 83 -411V-332C120 -337 156 -339 215 -340V-97C160 -87 109 -80 53 -75C69 -42 82 -14 89 14C189 -25 278 -47 428 -86C425 -104 425 -127 430 -154C377 -137 331 -124 288 -113V-340C343 -339 379 -337 413 -332V-411C378 -406 343 -404 288 -403V-496C331 -495 363 -492 389 -488V-565C357 -560 317 -557 258 -557C209 -557 173 -559 144 -563C191 -618 225 -661 254 -706C312 -660 338 -635 374 -593L429 -652C373 -697 352 -712 285 -752ZM647 -24C632 -37 608 -58 595 -70C508 -21 449 2 375 17C403 37 417 54 429 75C480 58 543 34 594 4C611 -5 628 -10 645 -12C653 -13 654 -17 647 -24ZM962 11C897 -21 853 -41 772 -72L717 -23C785 -3 851 30 910 70ZM710 -684H826V-621H710ZM642 -621H531V-684H642ZM710 -568C782 -568 844 -567 902 -564C900 -585 899 -618 899 -652C899 -686 900 -719 902 -740C844 -737 782 -736 710 -736V-743C710 -797 713 -811 723 -819C733 -827 731 -835 718 -834C704 -833 681 -834 638 -839C641 -817 642 -776 642 -736C573 -736 514 -737 458 -740C460 -717 461 -686 461 -652C461 -622 460 -593 458 -564C514 -567 573 -568 642 -568V-524C537 -525 472 -528 411 -534V-459C478 -466 553 -469 682 -469C810 -469 886 -466 953 -459V-534C891 -528 821 -524 710 -524Z"/>
</svg>