<svg xmlns="http://www.w3.org/2000/svg" viewBox="0 -1000 1000 1000">
	<path fill="#000000" d="M177 -172C162 -221 145 -263 124 -304L52 -273C78 -230 92 -191 100 -140ZM395 -282L323 -312C311 -268 300 -237 279 -187L339 -159C361 -217 375 -247 395 -282ZM274 -753C284 -765 293 -770 303 -773C318 -777 317 -788 303 -791C284 -795 250 -806 216 -822C178 -714 120 -627 33 -549C59 -537 87 -518 102 -499C110 -510 118 -520 126 -530V-495C146 -498 169 -501 198 -502V-408C143 -409 103 -412 69 -416V-339C103 -344 143 -346 198 -347V-102C149 -90 103 -82 50 -77C66 -45 76 -15 82 13C170 -23 234 -46 368 -87C365 -105 365 -129 369 -156C331 -142 298 -131 268 -121V-346C315 -346 349 -343 379 -339V-416C349 -412 315 -409 268 -408V-503C307 -502 335 -499 357 -495V-567C330 -562 295 -559 243 -559C204 -559 175 -561 151 -563C189 -615 218 -659 242 -702C292 -654 321 -622 354 -582L404 -651C370 -679 325 -714 274 -753ZM817 -224C857 -255 868 -260 876 -261C890 -262 891 -270 879 -278C869 -284 842 -310 828 -329C808 -297 772 -261 725 -224C711 -256 692 -284 668 -305C684 -317 700 -330 715 -342C806 -342 879 -340 927 -338V-399C878 -397 803 -395 710 -395C616 -395 542 -397 492 -399V-338C527 -339 572 -341 628 -341C581 -304 534 -279 473 -256C496 -236 504 -220 508 -197C549 -220 590 -248 629 -276C634 -271 639 -265 644 -258C591 -199 506 -145 455 -130C477 -112 486 -100 495 -77C564 -117 615 -158 666 -217C671 -205 676 -192 680 -179C617 -109 509 -36 444 -20C467 -4 481 12 489 32C593 -25 653 -75 693 -125C695 -107 696 -91 694 -76C689 -17 667 4 597 -10C622 22 629 39 630 72C735 50 749 23 753 -65C755 -99 752 -135 744 -168C755 -176 765 -184 773 -191C789 -117 829 -50 913 21C927 -10 945 -40 966 -60C893 -97 843 -140 817 -224ZM653 -714H794C834 -714 869 -712 898 -708V-773C869 -770 833 -768 793 -768H653C653 -803 654 -810 659 -813C671 -821 667 -827 652 -825C635 -823 603 -824 575 -827C579 -802 581 -778 581 -733V-669C515 -669 449 -671 413 -674C418 -569 416 -417 410 -313C400 -136 378 -60 304 24C330 33 347 46 363 79C436 -25 458 -103 468 -271C472 -336 482 -542 483 -616H587V-562L493 -551L497 -501L587 -511C587 -443 599 -436 659 -431C691 -428 794 -428 816 -431C863 -438 878 -448 899 -508C869 -515 855 -521 831 -538C827 -500 813 -483 791 -481C763 -478 715 -478 688 -481C652 -485 648 -489 648 -506V-518C735 -526 764 -528 800 -529L795 -588C763 -581 717 -575 648 -568V-616H840L818 -569L887 -546L934 -674C881 -670 834 -668 653 -668Z"/>
</svg>