<svg xmlns="http://www.w3.org/2000/svg" viewBox="0 -1000 1000 1000">
	<path fill="#000000" d="M189 -156C170 -200 146 -247 120 -294L51 -254C80 -211 103 -159 115 -111ZM420 -268L348 -302C330 -257 308 -211 282 -167L339 -139C360 -181 387 -224 420 -268ZM537 -359H674V-317H537ZM537 -446H674V-408H537ZM537 -534H674V-496H537ZM474 -486V-354C474 -315 473 -302 468 -243H537V-265H718C830 -265 872 -263 927 -258V-325C876 -318 836 -317 738 -317V-359C801 -359 869 -356 905 -351V-414C869 -410 803 -408 738 -408V-446C804 -446 874 -443 912 -437V-502C874 -498 806 -495 738 -496V-534C847 -534 879 -533 931 -528V-593C881 -587 847 -586 737 -586C738 -610 736 -631 732 -655L653 -646C661 -621 666 -605 668 -586H545C552 -595 558 -601 560 -603C575 -612 575 -617 560 -622C539 -629 525 -637 503 -653C482 -579 428 -503 367 -449C388 -433 407 -416 419 -399C437 -429 456 -459 474 -486ZM612 -746V-790C612 -798 614 -805 618 -808C629 -816 627 -824 615 -823C591 -821 564 -822 541 -825C543 -811 544 -798 544 -746C496 -747 455 -749 422 -753V-678C454 -682 496 -685 544 -686V-631H612V-687H768V-616H835V-686C880 -685 919 -682 950 -678V-753C919 -750 880 -748 835 -747V-784C835 -790 837 -798 841 -802C852 -812 849 -818 837 -817C824 -816 794 -817 764 -820C767 -809 768 -797 768 -746ZM505 -162C531 -119 570 -79 605 -49C536 -26 448 -9 343 0C363 21 379 47 386 71C507 49 593 25 664 -7C737 32 827 61 927 75C930 47 940 20 958 -5C873 -5 804 -18 734 -44C820 -95 867 -153 914 -230C873 -224 800 -220 678 -220C528 -220 481 -224 438 -230V-154C460 -158 483 -161 505 -162ZM668 -76C638 -97 602 -130 573 -164H786C739 -120 707 -96 668 -76ZM277 -759C289 -772 301 -782 307 -785C321 -791 321 -798 308 -802C286 -808 255 -823 227 -841C190 -729 117 -634 46 -584C65 -564 83 -535 93 -503C105 -519 116 -533 126 -545V-499C148 -503 174 -505 209 -506V-401C155 -402 117 -404 84 -409V-332C116 -337 154 -339 209 -340V-74C148 -59 92 -49 55 -48C69 -18 75 11 78 44C144 14 287 -29 416 -63C409 -81 407 -112 412 -139C372 -123 325 -107 277 -92V-339C323 -339 357 -336 386 -332V-409C357 -405 323 -402 277 -401V-506C320 -505 351 -503 376 -499V-574C346 -569 309 -567 251 -567C207 -567 173 -568 146 -571C182 -619 208 -656 243 -709C286 -674 330 -633 369 -593L423 -658C387 -685 333 -723 277 -759Z"/>
</svg>