<svg xmlns="http://www.w3.org/2000/svg" viewBox="0 -1000 1000 1000">
	<path fill="#000000" d="M169 -131C163 -183 153 -242 139 -300L71 -286C88 -241 99 -171 103 -113ZM363 -285L300 -304C286 -223 279 -195 262 -154L323 -134C338 -179 352 -231 363 -285ZM224 -699C257 -671 294 -632 323 -596L378 -650C349 -677 299 -717 253 -749C263 -764 270 -773 278 -776C299 -785 299 -795 276 -800C255 -805 232 -814 209 -829C169 -712 116 -639 32 -580C56 -569 74 -552 90 -523C95 -528 99 -533 104 -538V-485C121 -489 154 -492 190 -492V-402C146 -403 107 -406 83 -410V-337C106 -341 147 -343 190 -343V-87C110 -73 71 -70 47 -74C61 -42 67 -18 68 16C104 -5 155 -17 348 -57C344 -77 345 -99 349 -119C313 -111 282 -104 254 -99V-343C299 -342 328 -341 350 -337V-410C329 -405 298 -403 254 -402V-492C303 -492 324 -490 345 -485V-560C315 -553 280 -551 224 -551C196 -551 158 -553 121 -557C155 -596 188 -640 224 -699ZM648 -31C632 -53 609 -89 597 -111L533 -83C550 -61 573 -18 579 7ZM484 -228C463 -230 436 -242 419 -257C414 -227 402 -182 382 -123C366 -75 343 -26 321 6C347 21 374 39 395 54C404 9 415 -33 431 -81C449 -141 471 -201 484 -228ZM477 -353C456 -381 426 -421 405 -446L356 -408C380 -383 405 -348 421 -316ZM483 -536C461 -571 439 -602 418 -626L365 -593C389 -567 412 -535 430 -501ZM778 -121V-40C778 -8 766 0 686 -7C703 21 713 45 715 72C832 57 842 48 842 -13V-121C891 -120 924 -118 944 -115V-180C924 -176 891 -173 842 -173C842 -187 843 -199 847 -202C857 -210 856 -219 839 -217C824 -215 792 -216 770 -220C773 -208 776 -193 777 -173H613C549 -173 503 -176 473 -180V-114C503 -118 550 -121 613 -121ZM819 -307H718V-348H819ZM562 -348H659V-307H562ZM659 -436V-397H562V-436ZM819 -397H718V-436H819ZM659 -535V-490C571 -491 531 -494 498 -500C502 -482 503 -457 503 -408V-303C503 -265 502 -231 497 -197H562V-256H658C657 -240 656 -224 654 -207H722C721 -223 720 -240 719 -256H819V-218H887C883 -256 881 -288 881 -323V-410C881 -452 884 -483 888 -500C849 -494 810 -491 718 -490V-535C816 -535 872 -532 931 -528V-596C900 -593 867 -592 827 -590L886 -619C873 -635 862 -652 852 -670L805 -648V-692C861 -692 907 -688 942 -683V-757C907 -752 861 -749 805 -749V-775C805 -785 807 -791 815 -796C825 -802 823 -810 812 -810C788 -810 757 -812 732 -816C736 -797 738 -774 739 -749H590V-772C590 -782 592 -788 600 -793C610 -799 608 -807 597 -807C572 -807 546 -809 520 -813C524 -795 526 -773 527 -749C467 -749 415 -752 376 -757V-683C414 -688 467 -691 528 -692V-624H590V-692H740V-644H795L782 -638C790 -624 800 -606 806 -589C780 -588 752 -588 718 -588V-597C718 -605 723 -612 734 -616C748 -623 744 -633 723 -633C708 -633 675 -635 650 -637C654 -626 657 -611 658 -588C574 -589 524 -592 488 -596V-528C525 -531 575 -534 659 -535Z"/>
</svg>