<svg xmlns="http://www.w3.org/2000/svg" viewBox="0 -1000 1000 1000">
	<path fill="#000000" d="M783 -264C756 -263 725 -262 680 -262C633 -262 611 -263 587 -265C621 -293 650 -322 674 -351C705 -319 738 -292 783 -264ZM548 -807C553 -808 558 -810 562 -811C579 -816 575 -827 561 -829C539 -832 484 -842 472 -846C448 -816 395 -770 346 -739C252 -681 144 -634 51 -617C78 -603 97 -586 107 -561C179 -588 263 -631 338 -673V-627C382 -632 410 -633 477 -633V-582C358 -582 283 -584 210 -590V-529C281 -535 358 -536 477 -536V-463H390C380 -484 369 -503 357 -523L296 -499C306 -484 313 -474 319 -463C269 -463 224 -465 161 -470V-407C193 -409 228 -411 268 -411C250 -383 213 -344 181 -323C133 -290 94 -271 45 -253C67 -241 89 -222 99 -209C133 -231 161 -249 185 -265V-229C213 -232 230 -231 266 -231V-174C196 -174 145 -176 106 -180V-121C146 -125 196 -126 266 -126V-4L214 -1C207 -36 199 -62 192 -93L137 -82C146 -57 152 -34 160 2C117 4 81 6 70 5C81 38 83 54 81 80C159 62 385 30 453 29C450 12 451 -6 457 -24C438 -21 416 -18 393 -16C412 -61 419 -70 423 -73C433 -81 428 -88 417 -90C403 -92 393 -94 370 -102C366 -65 362 -45 347 -11L327 -10V-126C377 -126 420 -125 447 -122V-180C419 -177 377 -175 327 -174V-231C369 -231 408 -231 430 -229V-280C400 -277 346 -276 290 -276C248 -276 227 -277 204 -278C244 -306 269 -329 293 -356C354 -330 445 -292 468 -272L506 -318C462 -341 386 -369 294 -397C289 -403 284 -407 278 -411H661C639 -384 606 -351 570 -321C518 -277 490 -258 431 -230C454 -218 477 -200 487 -191C516 -210 544 -229 569 -250V-214C597 -217 615 -217 651 -216V-157C586 -158 542 -160 499 -164V-103C542 -108 586 -109 651 -109V2H596C589 -31 582 -54 571 -83L515 -70C524 -50 530 -31 538 2C514 2 493 0 474 -4V57C517 54 592 52 693 52C794 52 865 54 911 57V-3C887 1 853 2 817 2C844 -47 850 -56 854 -58C864 -65 862 -74 851 -76C837 -79 820 -83 794 -93C787 -49 782 -35 764 2H712V-109C810 -109 841 -108 884 -104V-164C841 -159 790 -157 712 -157V-216C754 -216 785 -216 809 -214V-249C840 -232 876 -214 919 -193C922 -219 933 -242 956 -269C859 -287 798 -313 694 -387C692 -395 688 -403 681 -411C748 -411 803 -410 852 -407V-470C807 -466 755 -464 695 -463C723 -489 730 -496 734 -497C745 -501 746 -506 738 -508C724 -511 694 -520 671 -530C653 -492 645 -479 633 -463H541V-536C659 -536 738 -535 805 -530V-589C738 -584 659 -582 541 -582V-633C596 -632 638 -631 672 -629V-664C742 -628 819 -601 914 -581C911 -606 925 -637 950 -658C791 -670 710 -698 548 -807ZM638 -683C601 -681 557 -681 495 -681C427 -681 395 -682 359 -686C424 -723 478 -759 504 -781C548 -742 592 -710 638 -683Z"/>
</svg>