<svg xmlns="http://www.w3.org/2000/svg" viewBox="0 -1000 1000 1000">
	<path fill="#000000" d="M372 -543H182V-618H372ZM444 -484C441 -507 440 -538 440 -572V-710C440 -744 441 -774 444 -798C415 -796 384 -795 355 -795H197C168 -795 137 -796 108 -798C109 -774 110 -743 110 -710V-127C110 -56 108 -8 102 61H188C183 -8 182 -56 182 -127V-487H355C384 -487 415 -486 444 -484ZM819 -665H612V-734H819ZM896 -796C867 -794 836 -793 807 -793H628C599 -793 569 -793 540 -796C543 -772 544 -742 544 -708V-569C544 -535 543 -504 540 -481C569 -483 600 -484 629 -484H819V-44C819 -21 802 -11 724 -20C761 18 764 28 759 72C873 58 894 42 894 5V-708C894 -741 895 -770 896 -796ZM372 -671H182V-739H372ZM819 -543H612V-612H819ZM531 -227V-358C604 -357 646 -354 702 -350V-430C637 -425 574 -422 495 -422C374 -422 336 -424 270 -430V-350C327 -354 364 -357 454 -358V-227C342 -228 293 -230 217 -235V-156C291 -162 346 -164 454 -164V-96C454 -55 451 2 446 48H540C533 0 531 -55 531 -96V-164C637 -164 698 -162 774 -156V-235C698 -230 639 -228 531 -227Z"/>
</svg>