<svg xmlns="http://www.w3.org/2000/svg" viewBox="0 -1000 1000 1000">
	<path fill="#000000" d="M667 -79H338V-414H667ZM737 -19C736 -45 735 -73 735 -115V-377C735 -412 736 -450 737 -477C687 -475 600 -473 500 -473C381 -473 319 -473 269 -476C271 -450 272 -413 272 -377V-113C272 -77 271 -46 269 -20C319 -22 381 -22 500 -22C600 -22 687 -21 737 -19ZM816 -579H621V-627H816ZM380 -579H196V-630H380ZM816 -680H621V-728H816ZM380 -682H196V-730H380ZM456 -518C453 -542 452 -564 452 -597V-706C452 -740 453 -767 456 -790C430 -788 396 -787 367 -787H211C182 -787 151 -788 122 -790C123 -767 124 -739 124 -706V-121C124 -49 122 0 116 68H204C198 1 196 -49 196 -121V-521H367C396 -521 427 -520 456 -518ZM892 -788C863 -786 832 -785 803 -785H636C602 -785 570 -786 547 -788C550 -765 551 -738 551 -704V-602C551 -569 550 -539 547 -515C576 -517 607 -518 636 -518H816V-64C816 -12 799 2 729 -13C745 14 751 49 748 81C864 66 890 45 890 -41V-704C890 -737 891 -765 892 -788ZM567 -274L529 -237C563 -209 580 -185 596 -155L642 -191C615 -229 596 -251 567 -274ZM470 -239V-173C470 -148 468 -119 464 -90H532C529 -117 527 -148 527 -173V-294C576 -293 610 -290 640 -287V-348C610 -344 576 -342 527 -341V-354C527 -365 533 -372 541 -376C555 -383 554 -393 535 -393C511 -393 490 -396 466 -402C469 -385 470 -367 471 -341C423 -342 389 -344 360 -348V-287C385 -290 413 -292 450 -293C430 -249 395 -203 342 -163C364 -155 386 -135 390 -122C422 -154 449 -192 470 -239Z"/>
</svg>