<svg xmlns="http://www.w3.org/2000/svg" viewBox="0 -1000 1000 1000">
	<path fill="#000000" d="M566 -123H386V-167H566ZM375 -549H186V-605H375ZM448 -491C446 -515 445 -545 445 -579V-691C445 -725 446 -756 448 -780C418 -778 385 -778 355 -778H206C176 -778 143 -778 113 -780C114 -756 114 -724 114 -691V-113C114 -43 112 7 107 73H193C188 9 186 -43 186 -113V-493H355C385 -493 418 -493 448 -491ZM803 -551H610V-606H803ZM879 -782C850 -781 817 -782 788 -782H629C600 -782 567 -781 538 -782C540 -760 541 -729 541 -695V-581C541 -547 540 -516 538 -493C567 -494 600 -495 629 -495H803V-51C803 -13 794 -3 705 -15C725 22 730 41 731 78C847 73 878 47 878 -65V-695C878 -728 878 -760 879 -782ZM375 -660H186V-716H375ZM803 -660H610V-718H803ZM543 -265C555 -247 569 -230 583 -215H408C425 -231 439 -247 453 -265ZM541 -373V-314H437V-373ZM606 -423V-453C606 -457 609 -462 614 -464C631 -472 631 -477 610 -477C582 -477 559 -476 535 -478C538 -469 540 -455 541 -423H437V-451C437 -456 440 -460 445 -462C459 -468 459 -474 441 -474C413 -474 392 -475 369 -477C371 -468 372 -454 373 -423C335 -423 287 -424 259 -426V-372C287 -373 335 -373 373 -373V-314C327 -314 265 -316 230 -318V-262C265 -265 329 -265 376 -265C341 -223 281 -188 194 -164C213 -151 226 -131 234 -103C269 -120 298 -136 324 -152V-27C324 2 334 10 421 13C464 14 521 14 595 12C681 10 706 -3 731 -70C700 -74 676 -83 660 -98C656 -52 641 -38 591 -37C520 -36 463 -36 421 -36C392 -36 386 -42 386 -57V-79H537C572 -79 598 -80 629 -79C628 -101 628 -142 628 -177C665 -150 706 -131 749 -120C757 -144 768 -165 785 -185C704 -192 641 -225 610 -265C659 -265 722 -264 761 -262V-318C722 -316 654 -314 606 -314V-373C646 -373 702 -373 732 -372V-426C702 -424 646 -423 606 -423Z"/>
</svg>