<svg xmlns="http://www.w3.org/2000/svg" viewBox="0 -1000 1000 1000">
	<path fill="#000000" d="M817 -562H613V-613H817ZM893 -782C863 -780 832 -779 802 -779H631C601 -779 568 -780 543 -782C546 -758 547 -728 547 -692V-610C547 -576 545 -524 543 -501C573 -503 601 -504 631 -504H817V-71C817 -13 813 -10 729 -17C748 13 755 41 755 69C880 56 891 40 891 -45V-692C891 -729 892 -760 893 -782ZM378 -567H183V-619H378ZM448 -508C446 -531 444 -564 444 -598V-698C444 -731 446 -764 448 -788C426 -785 396 -784 357 -784H203C167 -784 140 -785 110 -788C111 -764 112 -730 112 -698V-133C112 -62 110 -12 104 60H191C185 -10 183 -62 183 -133V-511H357C387 -511 418 -510 448 -508ZM817 -669H613V-721H817ZM378 -674H183V-726H378ZM547 -349C534 -372 517 -393 501 -410L438 -385C455 -369 470 -349 480 -326ZM748 -438C734 -453 719 -472 702 -499C662 -481 587 -472 467 -468C357 -464 309 -465 242 -470C255 -448 262 -429 267 -407C381 -407 500 -412 643 -422C705 -426 720 -427 734 -425C757 -422 758 -428 748 -438ZM527 -44C585 -20 617 -4 687 35L727 -31C676 -52 633 -69 582 -87C626 -128 654 -175 675 -233C621 -230 573 -229 499 -229C424 -229 378 -230 324 -233V-174C371 -177 445 -178 579 -178C563 -148 547 -130 518 -110C467 -127 420 -142 371 -156L339 -106C375 -100 414 -88 456 -72C397 -42 339 -32 252 -29C273 -9 282 12 289 44C399 22 467 -4 527 -44ZM328 -325C288 -325 257 -327 232 -330V-209H299V-273H691V-211H759V-330C732 -326 705 -325 655 -325C682 -362 691 -366 706 -372C717 -377 715 -385 703 -386C682 -388 648 -400 624 -412C617 -383 608 -359 589 -325H339L396 -350C383 -373 374 -387 356 -405L293 -376C308 -363 319 -346 328 -325Z"/>
</svg>