<svg xmlns="http://www.w3.org/2000/svg" viewBox="0 -1000 1000 1000">
	<path fill="#000000" d="M658 -327H335V-356H658ZM658 -395H335V-421H658ZM658 -457H335V-487H658ZM822 -606H612V-647H822ZM899 -785C868 -783 831 -782 801 -782H637C607 -782 574 -783 543 -785C546 -760 547 -755 547 -720V-628C547 -593 546 -578 543 -553C574 -556 607 -557 637 -557H822V-37C822 -14 813 -6 737 -12C754 19 761 45 761 77C878 64 897 51 897 -37V-720C897 -742 898 -760 899 -785ZM376 -606H183V-648H376ZM447 -555C443 -578 442 -599 442 -633V-723C442 -757 443 -762 447 -786C415 -783 381 -782 349 -782H197C168 -782 133 -784 105 -786C107 -762 107 -729 107 -696V-114C107 -42 105 6 99 76H191C185 8 183 -42 183 -114V-558H349C381 -558 415 -557 447 -555ZM376 -693H183V-734H376ZM822 -693H612V-735H822ZM499 -192V-219C664 -219 723 -217 767 -214V-268C729 -261 662 -258 499 -258V-286C630 -286 689 -285 729 -281C725 -290 722 -312 722 -333V-472C722 -494 725 -522 729 -531C686 -528 623 -527 498 -527C373 -527 318 -528 267 -531C270 -522 273 -494 273 -472V-333C273 -312 271 -291 267 -281C300 -284 348 -286 434 -286V-192C339 -193 266 -195 230 -197V-141C267 -147 316 -150 347 -150H656C633 -133 591 -112 533 -87C469 -109 400 -129 333 -146L296 -100C347 -88 399 -73 451 -56C383 -33 284 -15 212 -15C229 -3 246 22 251 47C319 41 439 9 529 -28C584 -7 638 17 689 43L731 -12C696 -27 653 -45 605 -62C689 -104 730 -143 765 -197C732 -194 647 -192 499 -192Z"/>
</svg>