<svg xmlns="http://www.w3.org/2000/svg" viewBox="0 -1000 1000 1000">
	<path fill="#000000" d="M629 -184H343V-226H629ZM817 -584H608V-630H817ZM369 -593H170V-635H369ZM440 -532C437 -556 436 -587 436 -622V-708C436 -742 437 -768 440 -793C418 -790 388 -789 349 -789H188C152 -789 125 -790 95 -793C96 -768 97 -741 97 -708V-122C97 -50 96 -1 89 70H178C172 1 170 -50 170 -122V-535H349C379 -535 410 -534 440 -532ZM817 -682H608V-725H817ZM369 -684H170V-731H369ZM351 -54C302 -55 247 -57 210 -59V1C259 0 360 -2 496 -2C601 -2 677 -1 731 0C747 30 753 55 751 87C871 76 892 45 892 -36V-702C892 -740 893 -764 894 -787C865 -785 833 -784 803 -784H625C595 -784 562 -784 537 -787C540 -762 541 -739 541 -702V-634C541 -600 539 -550 537 -527C567 -529 595 -530 625 -530H817V-44C817 -18 814 -5 782 -2V-59C735 -56 659 -54 602 -54C643 -96 648 -98 665 -103C682 -108 678 -113 663 -116C639 -120 620 -126 587 -137C636 -137 663 -136 702 -135C700 -152 700 -174 700 -200C700 -228 701 -257 702 -274C641 -272 609 -271 487 -271C365 -271 336 -271 271 -274C274 -257 276 -228 276 -200C276 -174 274 -153 273 -135C354 -138 467 -138 570 -137C563 -110 550 -87 527 -54H389L439 -66C421 -92 403 -113 373 -132L302 -110C327 -90 340 -74 351 -54ZM760 -301V-356C702 -354 608 -352 494 -352C382 -352 290 -354 225 -356V-301C289 -303 382 -305 494 -305C608 -305 702 -302 760 -301ZM456 -432H329C329 -475 331 -485 335 -488C345 -496 343 -501 326 -501C304 -500 290 -501 253 -502C265 -479 265 -435 257 -384C297 -385 364 -386 488 -386C613 -386 679 -385 722 -384C719 -471 722 -480 725 -484C737 -493 735 -496 717 -496C698 -495 667 -496 646 -498C650 -484 652 -461 652 -432H524C526 -487 532 -508 537 -511C552 -519 550 -523 529 -523C505 -523 489 -523 452 -525C455 -511 456 -493 456 -432Z"/>
</svg>