<svg xmlns="http://www.w3.org/2000/svg" viewBox="0 -1000 1000 1000">
	<path fill="#000000" d="M718 -729C700 -769 681 -807 661 -847L567 -817C592 -781 612 -735 627 -688ZM940 -588V-679C873 -672 791 -669 665 -669C539 -669 458 -672 390 -679V-588C457 -594 539 -597 665 -597C791 -597 873 -594 940 -588ZM976 -107C945 -112 911 -128 892 -158C886 -52 877 -41 844 -41C805 -41 801 -50 801 -97V-377C801 -408 804 -454 811 -492C757 -488 708 -486 645 -486C584 -486 534 -487 479 -492C486 -282 482 -245 470 -192C450 -99 424 -50 295 0C327 28 348 55 363 82C489 -3 516 -52 548 -173C556 -204 560 -264 562 -416H722V-83C722 28 729 41 828 41C935 41 950 30 976 -107ZM393 -780C351 -776 286 -774 224 -774C172 -774 132 -775 85 -779C89 -752 93 -680 93 -635V-156C93 -61 91 -16 82 61H176C169 -11 168 -60 168 -156V-706H292L214 -461C269 -413 305 -333 305 -298C305 -206 277 -185 180 -203C203 -172 214 -130 216 -97C348 -125 388 -178 388 -284C388 -328 354 -399 290 -472Z"/>
</svg>