<svg xmlns="http://www.w3.org/2000/svg" viewBox="0 -1000 1000 1000">
	<path fill="#000000" d="M253 -185H139V-286H253ZM428 -185H311V-286H428ZM392 -434H158V-496H392ZM447 -381C446 -407 445 -440 445 -466C445 -493 446 -524 447 -551C418 -548 390 -546 281 -546C169 -546 131 -548 103 -551C104 -525 105 -492 105 -466C105 -440 105 -409 103 -382C130 -384 163 -385 281 -385C382 -385 419 -383 447 -381ZM206 -583C184 -619 163 -651 135 -688C166 -754 183 -779 203 -791C215 -798 215 -802 203 -804C181 -806 160 -813 138 -826C120 -772 103 -737 69 -681C115 -623 135 -590 149 -550C167 -566 184 -575 206 -583ZM343 -585C325 -621 305 -650 278 -686C304 -733 336 -776 350 -784C363 -792 364 -794 350 -796C329 -800 305 -808 284 -821C269 -776 249 -735 216 -686C248 -646 276 -595 289 -556C301 -567 318 -577 343 -585ZM493 -783C505 -789 504 -793 493 -795C467 -799 451 -803 432 -812C416 -767 401 -742 361 -683C387 -650 410 -610 431 -555C452 -572 470 -580 492 -587C471 -620 449 -652 420 -686C459 -748 486 -779 493 -783ZM821 -709C797 -748 778 -783 763 -817L694 -777C716 -746 735 -709 750 -674ZM621 -589H736V-462H621ZM621 -14H786C882 -14 929 -12 951 -9V-79C931 -76 891 -74 804 -74V-205C871 -205 897 -203 916 -201V-272C899 -270 871 -268 804 -267V-399C875 -398 897 -397 915 -394V-467C898 -465 875 -463 804 -462V-589C872 -589 916 -588 937 -585V-655C915 -652 851 -650 769 -650H606C644 -757 662 -784 676 -792C697 -804 690 -813 675 -814C650 -816 618 -825 587 -839C584 -786 569 -720 542 -643C506 -541 485 -497 449 -445C466 -432 483 -413 499 -389C523 -434 540 -472 555 -508V-134C555 -54 551 21 547 77H621ZM621 -205H736V-74H621ZM621 -399H736V-267H621ZM515 -47C486 -51 462 -64 443 -92C428 -24 388 -11 269 -12C160 -13 140 -23 140 -50V-132H302C367 -132 449 -131 490 -129C487 -150 486 -166 486 -197V-281C486 -312 487 -330 489 -347C426 -342 328 -340 269 -340C209 -340 141 -341 72 -347C76 -315 77 -285 77 -246V-35C77 30 100 50 270 50C429 50 480 30 515 -47Z"/>
</svg>