<svg xmlns="http://www.w3.org/2000/svg" viewBox="0 -1000 1000 1000">
	<path fill="#000000" d="M244 -231V-169C278 -174 327 -179 370 -179C337 -61 294 -14 127 7C161 33 176 52 184 75C351 38 410 -31 442 -179H668L655 -79C647 -18 624 -11 503 -23C525 6 534 37 535 68C692 53 715 26 725 -58L745 -232C801 -209 862 -192 929 -178C935 -204 949 -239 968 -266C828 -269 680 -313 603 -401L538 -374C590 -318 647 -277 714 -246C654 -243 561 -242 491 -242C400 -242 334 -243 274 -245C315 -265 348 -284 373 -300C401 -318 431 -333 447 -336C466 -340 468 -354 450 -359C424 -366 404 -376 380 -395C294 -321 177 -264 20 -230C48 -209 65 -188 73 -163C137 -185 195 -209 244 -231ZM407 -407V-467C387 -465 331 -464 291 -464C252 -464 195 -466 175 -467V-407C195 -409 251 -410 291 -410C331 -410 387 -409 407 -407ZM834 -411V-470C814 -468 753 -467 713 -467C673 -467 612 -468 592 -470V-411C612 -413 672 -414 713 -414C753 -414 814 -413 834 -411ZM410 -511V-567C390 -566 343 -565 303 -565C263 -565 216 -566 196 -567V-511C216 -513 262 -514 303 -514C343 -514 390 -513 410 -511ZM810 -511V-573C789 -571 741 -570 702 -570C663 -570 614 -571 594 -573V-511C614 -513 662 -514 702 -514C741 -514 789 -513 810 -511ZM538 -723C673 -723 792 -721 865 -717V-786C786 -782 652 -780 504 -780C356 -780 225 -782 145 -786V-717C217 -721 333 -723 465 -723V-666C254 -666 152 -668 84 -671V-496H150V-612H465V-514C465 -474 464 -445 461 -406H541C539 -443 538 -473 538 -515V-612H856V-517H926V-671C857 -668 756 -666 538 -666Z"/>
</svg>