<svg xmlns="http://www.w3.org/2000/svg" viewBox="0 -1000 1000 1000">
	<path fill="#000000" d="M349 -133C327 -150 320 -159 307 -191C284 -161 251 -128 215 -96C172 -58 130 -28 86 -2C113 15 142 40 164 68C185 43 216 6 253 -38C281 -71 317 -106 349 -133ZM266 -222C222 -248 172 -273 121 -296L84 -235C136 -215 173 -196 225 -163ZM315 -339C262 -370 220 -391 169 -413L137 -360C199 -331 237 -308 274 -279ZM421 -416V-474C373 -471 270 -471 227 -474V-416C270 -419 382 -419 421 -416ZM789 -416V-474C740 -471 630 -470 586 -474V-416C631 -419 749 -419 789 -416ZM782 -513V-571C751 -567 630 -567 589 -571V-513C637 -517 746 -517 782 -513ZM419 -515V-573C385 -569 275 -569 235 -573V-515C277 -520 381 -519 419 -515ZM542 -726C686 -726 775 -723 858 -718V-790C768 -784 672 -782 504 -782C336 -782 241 -784 150 -790V-718C234 -723 322 -726 470 -726V-666C272 -666 180 -669 108 -675V-490H175V-611H470V-501C470 -450 469 -431 464 -394H547C543 -432 542 -448 542 -501V-611H839V-490H911V-675C837 -669 772 -666 542 -666ZM567 -275V-203C488 -204 426 -206 374 -209V-111C374 -60 372 -21 367 32H445V-150H567V-85C567 -40 565 18 560 84H648C642 19 640 -40 640 -85V-150H791V-60C791 -41 773 -32 685 -44C715 -11 721 12 719 46C842 35 860 18 860 -22V-209C807 -205 748 -203 640 -203V-275C767 -275 842 -272 913 -265V-336C842 -329 767 -326 640 -326C641 -361 642 -368 648 -371C663 -381 662 -385 637 -385C614 -385 598 -388 564 -393C566 -385 567 -371 567 -326C460 -327 396 -330 331 -336V-265C396 -271 460 -274 567 -275Z"/>
</svg>