<svg xmlns="http://www.w3.org/2000/svg" viewBox="0 -1000 1000 1000">
	<path fill="#000000" d="M396 -475V-532C376 -530 325 -529 285 -529C246 -529 194 -530 174 -532V-475C194 -477 245 -478 285 -478C325 -478 376 -477 396 -475ZM813 -481V-535C793 -533 737 -532 697 -532C657 -532 601 -533 581 -535V-481C601 -483 656 -484 697 -484C737 -484 793 -483 813 -481ZM399 -557V-609C379 -608 337 -607 297 -607C257 -607 215 -608 195 -609V-557C215 -559 256 -560 297 -560C337 -560 379 -559 399 -557ZM789 -560V-612C768 -610 725 -609 686 -609C647 -609 603 -610 583 -612V-560C603 -562 646 -563 686 -563C725 -563 768 -562 789 -560ZM526 -741C662 -741 770 -739 844 -735V-809C765 -805 646 -803 498 -803C350 -803 234 -805 154 -809V-735C225 -739 328 -741 455 -741V-698C247 -698 150 -700 83 -703V-548H149V-646H455V-574C455 -534 454 -505 451 -466H529C527 -503 526 -533 526 -575V-646H845V-569H915V-703C846 -700 748 -698 526 -698ZM173 -121H296V-37C296 -14 287 -8 210 -22C227 2 229 23 226 55C329 55 361 31 361 -20V-370C361 -407 362 -431 365 -449C324 -447 295 -446 237 -446C179 -446 151 -447 108 -449C111 -431 112 -407 112 -370V-221C112 -67 99 -31 43 33C69 40 86 51 105 71C154 5 170 -40 173 -121ZM296 -307H173V-387H296ZM173 -255H296V-172H173ZM702 -289C707 -219 714 -169 732 -117C750 -65 809 18 886 65C900 40 926 15 956 -2C883 -24 830 -67 795 -138C887 -183 913 -191 932 -191C944 -191 946 -196 939 -203C925 -217 906 -238 891 -257C860 -235 826 -216 778 -195C772 -228 768 -267 768 -299C834 -309 856 -312 874 -309C903 -305 910 -314 894 -326C880 -336 862 -356 848 -374C773 -348 665 -336 565 -335C568 -318 570 -288 570 -245V-45C570 -21 561 5 535 25C549 41 564 62 573 80C607 58 625 50 643 43L751 3C744 -19 742 -38 743 -56C718 -45 679 -30 635 -15V-282C655 -283 673 -285 702 -289ZM506 -385C606 -387 683 -392 787 -404C847 -411 858 -410 869 -406C884 -401 892 -409 882 -417C866 -430 847 -455 836 -478C742 -452 617 -440 438 -442C438 -410 439 -339 439 -267C438 -81 416 -16 331 59C367 66 386 72 405 81C487 -5 506 -98 506 -279Z"/>
</svg>