<svg xmlns="http://www.w3.org/2000/svg" viewBox="0 -1000 1000 1000">
	<path fill="#000000" d="M738 -481H836V-333H720C728 -376 734 -425 738 -481ZM653 -333H563V-481H665C666 -428 662 -378 653 -333ZM690 -218C692 -204 693 -188 693 -170V-39C693 37 701 45 808 44C913 43 926 30 955 -115C930 -117 902 -129 875 -149C863 -42 847 -29 808 -27C766 -25 760 -37 760 -64V-187C760 -202 762 -207 772 -215C787 -227 784 -235 764 -236C743 -238 720 -241 700 -245C702 -254 705 -262 707 -271C783 -271 855 -270 903 -267C899 -333 900 -481 904 -547C868 -545 820 -544 767 -543L876 -734C834 -728 808 -726 759 -726H668C695 -772 699 -775 710 -779C725 -785 725 -792 708 -796C681 -803 660 -811 631 -825C599 -731 556 -657 490 -589C516 -583 535 -576 559 -563C583 -593 609 -629 631 -664H758L689 -543C611 -543 549 -545 497 -548C502 -475 503 -340 498 -266C537 -268 584 -270 637 -271C600 -155 523 -66 399 6C427 21 448 39 469 66C588 -43 654 -119 690 -218ZM225 -645H347V-569H225ZM314 -404H394V-311H314ZM252 -311H166V-404H252ZM252 -256V-185C144 -185 107 -186 62 -190V-119C108 -123 172 -125 252 -126C252 -38 251 0 247 65H319C315 -1 314 -35 314 -126C388 -125 445 -122 487 -119V-190C445 -187 388 -185 314 -185V-256C376 -255 415 -254 459 -252C455 -318 455 -397 459 -463C415 -460 376 -459 314 -458V-517C352 -517 382 -516 409 -515V-645C449 -645 474 -643 498 -641V-706C469 -703 448 -702 409 -702V-755C409 -770 411 -777 421 -786C433 -797 431 -805 419 -803C397 -800 371 -801 344 -805C346 -784 347 -750 347 -702H225V-758C225 -772 229 -778 239 -784C254 -793 250 -800 237 -799C216 -798 185 -799 157 -803C159 -786 161 -747 162 -702C122 -702 102 -703 71 -706V-641C101 -644 122 -645 162 -645V-515C187 -517 213 -517 252 -517V-458C190 -459 149 -461 103 -464C108 -391 109 -325 104 -251C148 -253 192 -255 252 -256Z"/>
</svg>