<svg xmlns="http://www.w3.org/2000/svg" viewBox="0 -1000 1000 1000">
	<path fill="#000000" d="M571 -368H729V-330H571ZM683 -209H790V-158H683ZM613 -158H511V-209H613ZM375 -603C386 -611 385 -621 371 -618C351 -614 323 -615 293 -620C296 -595 297 -560 297 -514V-251C297 -213 296 -176 293 -129H370C367 -174 366 -213 366 -251V-574C366 -590 368 -597 375 -603ZM661 -521C721 -492 801 -474 922 -458C931 -493 938 -508 960 -541C860 -536 779 -543 725 -561C788 -605 838 -665 879 -747C845 -745 802 -743 749 -743H559C572 -770 584 -788 591 -792C606 -801 606 -807 585 -812C563 -817 546 -823 519 -835C491 -723 470 -679 390 -589C420 -580 438 -570 456 -553C486 -594 501 -619 516 -648C543 -610 569 -581 601 -557C544 -534 476 -517 385 -500C408 -475 417 -461 426 -439C450 -445 476 -452 498 -458C502 -450 505 -438 505 -419C467 -419 444 -420 413 -423V-365C446 -367 470 -368 506 -368V-283C535 -285 567 -286 613 -286V-255C539 -255 492 -256 440 -259C444 -238 446 -213 446 -191C446 -167 445 -129 440 -107C492 -110 541 -111 613 -111V-72C515 -71 424 -72 371 -74V-10C425 -13 515 -15 613 -15C613 18 610 51 606 81H690C686 51 683 18 683 -15C780 -15 884 -13 931 -10V-74C884 -73 780 -72 683 -72V-111C758 -111 810 -110 860 -108C856 -130 853 -164 853 -190C853 -211 856 -242 860 -259C809 -256 758 -255 683 -255V-286C727 -286 761 -285 794 -283V-368C834 -368 866 -367 889 -365V-423C867 -420 834 -419 794 -419V-431C794 -440 798 -447 803 -449C816 -455 811 -459 801 -459C776 -457 753 -458 723 -462C726 -454 728 -440 728 -419H571V-430C571 -438 574 -444 580 -446C591 -450 592 -456 577 -456C546 -456 526 -457 505 -460C562 -477 614 -496 661 -521ZM663 -588C626 -610 595 -638 564 -679H767C734 -640 701 -611 663 -588ZM161 -456V-144C161 -72 156 14 150 71H232V-590C294 -750 303 -768 316 -776C335 -788 330 -795 314 -798C295 -802 257 -818 228 -834C212 -749 198 -703 167 -633C125 -539 86 -478 27 -415C52 -395 71 -371 86 -345C111 -377 138 -417 161 -456Z"/>
</svg>