<svg xmlns="http://www.w3.org/2000/svg" viewBox="0 -1000 1000 1000">
	<path fill="#000000" d="M578 -752C570 -786 564 -811 559 -838L458 -825C465 -801 471 -778 477 -752C244 -752 173 -754 98 -760V-590H177V-701H853V-598H932V-760C860 -755 792 -752 578 -752ZM292 -458V-500H728V-458ZM643 -228C660 -202 681 -177 703 -157H319C348 -180 376 -205 399 -228ZM470 -601C466 -582 463 -565 459 -545C347 -545 249 -547 218 -549C222 -538 224 -509 224 -477V-277C176 -277 135 -279 86 -283V-221C152 -226 233 -228 307 -228C241 -168 173 -130 76 -93C100 -81 124 -60 138 -41C187 -64 247 -101 302 -143V-99C339 -104 378 -107 424 -108C390 -40 327 2 176 0C194 22 208 50 216 73C399 43 455 1 492 -108H682L674 -33C671 -6 639 3 564 -9C581 21 590 45 596 72C714 66 738 51 744 -9L755 -117C798 -89 850 -65 915 -41C920 -67 934 -99 956 -127C850 -137 777 -167 714 -228C791 -228 873 -226 941 -221V-283C890 -279 846 -277 796 -276V-477C796 -508 799 -539 803 -549C770 -547 658 -545 539 -545C544 -565 548 -583 551 -601C660 -601 735 -599 797 -594V-656C728 -651 644 -649 515 -649C386 -649 303 -651 233 -656V-594C294 -598 366 -600 470 -601ZM292 -372V-414H728V-372ZM728 -327V-276H292V-327Z"/>
</svg>