<svg xmlns="http://www.w3.org/2000/svg" viewBox="0 -1000 1000 1000">
	<path fill="#000000" d="M460 -129H227V-165H460ZM460 -87V-54C276 -54 154 -55 48 -59V-2C157 -6 276 -7 460 -7C459 25 457 46 452 76H539C535 46 533 26 532 -7C722 -7 848 -5 948 -2V-59C848 -55 722 -54 532 -54V-87C669 -87 767 -85 858 -82C851 -106 849 -130 850 -156C850 -178 852 -196 858 -217C772 -213 671 -211 532 -211V-242C609 -241 686 -239 735 -236C730 -253 728 -270 728 -284V-309C786 -309 842 -308 902 -305V-358C838 -355 785 -353 728 -353V-361C728 -369 734 -377 743 -380C756 -385 754 -394 739 -393C712 -392 688 -393 653 -395C657 -382 659 -371 660 -353H330V-369C330 -375 333 -380 344 -385C359 -392 358 -399 341 -398C313 -396 288 -396 258 -398C262 -388 266 -372 267 -353C191 -353 130 -355 69 -359V-305C126 -308 187 -309 267 -309V-287C267 -273 265 -254 260 -236C304 -239 376 -242 460 -242V-211C332 -211 243 -213 154 -217C160 -194 162 -175 162 -154C163 -130 160 -106 154 -81C241 -85 337 -87 460 -87ZM532 -165H789V-129H532ZM330 -309H660V-283H330ZM731 -635H275V-671H731ZM796 -591C791 -624 790 -672 796 -720C725 -715 643 -712 501 -712C362 -712 276 -715 208 -720C215 -679 215 -627 208 -592C274 -595 362 -597 501 -597C642 -597 727 -595 796 -591ZM924 -742V-807C820 -803 702 -800 499 -800C294 -800 184 -803 75 -807V-740C183 -745 294 -748 499 -748C702 -748 818 -747 924 -742ZM573 -514C570 -499 562 -478 551 -462H444C435 -479 424 -503 420 -514ZM415 -514L344 -499C355 -491 371 -476 382 -463C334 -464 296 -465 259 -467V-419C316 -422 372 -424 465 -424C464 -396 462 -384 458 -367H531C528 -383 527 -396 526 -424C612 -423 677 -421 719 -418V-467C690 -465 654 -464 610 -463C631 -482 642 -490 652 -491C665 -493 666 -498 658 -499C637 -500 608 -507 586 -514H807V-456C807 -437 792 -432 736 -438C755 -411 762 -395 763 -370C859 -380 877 -402 877 -450V-515C877 -535 880 -555 883 -568C765 -562 643 -560 479 -560C339 -560 205 -562 121 -568C127 -554 128 -533 128 -512V-444C128 -425 127 -411 121 -388H199V-514Z"/>
</svg>