<svg xmlns="http://www.w3.org/2000/svg" viewBox="0 -1000 1000 1000">
	<path fill="#000000" d="M603 -486H458V-554H603ZM665 -418C663 -447 663 -484 663 -521C663 -558 664 -595 665 -621C635 -616 597 -613 530 -613C463 -613 429 -617 396 -621C399 -593 401 -558 401 -522C401 -485 399 -448 396 -419C429 -424 463 -426 530 -426C597 -426 638 -424 665 -418ZM180 -654H262V-585H180ZM253 -401H304V-300H253ZM191 -300H141V-401H191ZM191 -245V-166C127 -166 89 -168 51 -171V-99C90 -103 135 -106 191 -106C191 -46 188 13 184 68H260C256 13 253 -49 253 -106C302 -105 336 -103 366 -99V-171C336 -168 304 -166 253 -166V-245C298 -244 328 -242 361 -239C357 -276 356 -301 356 -345C356 -381 358 -434 362 -463C329 -458 299 -456 253 -456V-533C279 -532 299 -531 320 -529V-653C339 -653 355 -651 368 -648V-717C355 -714 339 -712 320 -712V-765C320 -780 326 -790 340 -796C352 -801 348 -814 340 -813C320 -811 279 -813 257 -817C260 -801 262 -766 262 -711H180V-763C180 -778 182 -784 191 -789C203 -798 199 -806 189 -806C163 -805 134 -809 116 -817C120 -801 122 -767 123 -711C98 -712 80 -714 62 -717V-648C81 -652 99 -654 123 -654V-529C142 -532 163 -533 191 -533V-456C142 -457 115 -459 78 -463C82 -428 84 -383 84 -346C84 -306 83 -273 79 -238C115 -242 144 -244 191 -245ZM943 -199C943 -283 935 -311 868 -424L931 -772C906 -768 870 -766 821 -766C774 -766 731 -768 704 -772C707 -745 710 -707 710 -673V-118C710 -48 707 14 703 75H775V-708H854L811 -409C868 -311 878 -276 875 -212C871 -141 856 -133 795 -145C816 -111 824 -88 829 -48C922 -77 943 -110 943 -199ZM498 -110V-46C498 -12 484 -6 432 -13C447 19 451 41 451 70C545 58 565 31 565 -18V-129C608 -139 651 -147 695 -154C693 -175 693 -202 695 -228C660 -215 614 -202 565 -191V-232L632 -277C659 -296 671 -302 680 -304V-381C654 -375 612 -371 537 -371C454 -371 420 -373 390 -379V-306C416 -309 463 -312 498 -312H591L498 -253V-176C453 -168 409 -161 372 -156C379 -128 383 -108 385 -72C426 -88 462 -100 498 -110ZM505 -729C456 -730 414 -734 385 -739V-661C426 -668 477 -670 555 -670C633 -670 654 -668 696 -661V-739C667 -734 630 -731 577 -729C575 -759 570 -788 564 -820L492 -808C498 -783 503 -755 505 -729Z"/>
</svg>