<svg xmlns="http://www.w3.org/2000/svg" viewBox="0 -1000 1000 1000">
	<path fill="#000000" d="M548 -118L495 -131C487 -93 469 -47 446 -4L503 13C520 -22 539 -76 548 -118ZM637 -11C636 -47 633 -81 629 -120L577 -116C580 -80 578 -42 574 -6ZM730 -23C729 -55 724 -87 715 -118L665 -114C672 -79 675 -51 676 -17ZM820 -30C819 -64 815 -99 809 -127L755 -120C761 -93 765 -61 766 -28ZM193 -671H292V-598H193ZM276 -431H344V-337H276ZM215 -337H145V-431H215ZM768 -403V-462H845V-403ZM640 -462H712V-403H640ZM501 -462H584V-403H501ZM584 -565V-513H501V-565ZM712 -565V-513H640V-565ZM725 -616C721 -637 714 -659 707 -677L634 -661C642 -646 647 -632 650 -616C518 -616 458 -619 433 -623C440 -570 444 -512 440 -368C439 -306 434 -254 425 -209H276V-283C329 -282 370 -281 408 -279C406 -313 406 -350 406 -385C406 -420 407 -458 408 -491C370 -489 330 -487 276 -486V-542C308 -542 332 -542 356 -540V-671C385 -670 406 -669 426 -667V-733C402 -731 383 -730 356 -729V-772C356 -787 358 -794 367 -803C378 -814 374 -821 366 -820C345 -817 314 -818 289 -822C292 -806 292 -789 292 -729H193V-779C193 -795 195 -799 204 -805C219 -814 215 -824 202 -822C183 -819 152 -819 126 -823C129 -806 130 -786 131 -729C106 -729 89 -730 65 -733V-667C89 -669 106 -670 131 -671V-540C154 -542 178 -542 215 -542V-486C157 -486 122 -488 80 -491C82 -453 83 -418 83 -385C83 -352 82 -316 80 -278C121 -280 159 -282 215 -283V-209C151 -209 93 -211 51 -214V-143C94 -146 151 -149 215 -150C215 -30 214 0 210 62H281C277 -2 276 -71 276 -150H411C392 -89 361 -40 315 8C338 19 356 31 372 48C462 -53 498 -184 501 -351H548C540 -228 532 -182 522 -152C541 -155 556 -156 613 -156H864C862 -116 858 -70 853 -41C848 -8 834 0 760 -3C779 29 783 44 779 80C882 60 899 45 908 7C917 -32 922 -72 926 -136C928 -169 930 -195 934 -219C906 -215 864 -213 814 -213H598L602 -253H819C858 -253 897 -251 931 -247V-312C897 -308 858 -306 819 -306H607L611 -351H728C802 -351 884 -349 910 -346C908 -364 908 -398 908 -433C908 -467 909 -504 910 -518C889 -515 829 -513 768 -513V-565C840 -564 915 -561 939 -558V-623C913 -619 859 -616 725 -616ZM594 -749V-784C594 -796 595 -800 602 -805C611 -811 610 -822 599 -821C579 -820 550 -821 526 -824C528 -804 529 -778 530 -750C495 -751 465 -753 442 -757V-687C465 -691 495 -694 530 -695V-636H594V-696H766V-630H830V-696C877 -695 919 -692 946 -688V-757C918 -753 877 -750 830 -749V-784C830 -796 831 -800 838 -805C847 -811 846 -822 835 -821C815 -820 786 -821 762 -824C763 -804 765 -778 765 -749Z"/>
</svg>