<svg xmlns="http://www.w3.org/2000/svg" viewBox="0 -1000 1000 1000">
	<path fill="#000000" d="M368 -372H165V-445H368ZM317 -267V-317C372 -317 398 -316 433 -314C433 -339 432 -374 432 -409C432 -442 432 -479 433 -503C389 -500 361 -499 276 -499C192 -499 144 -500 100 -503C103 -479 104 -442 104 -409C104 -375 103 -342 100 -315C138 -317 181 -317 250 -317V-267C149 -267 103 -270 67 -276V-204C81 -206 97 -208 111 -209C107 -163 97 -114 80 -68C114 -71 193 -73 250 -73C250 -29 247 27 244 80H322C319 27 317 -29 317 -73C391 -73 432 -71 458 -68V-140C428 -135 389 -132 317 -132V-211C365 -211 403 -208 438 -204V-276C404 -271 369 -268 317 -267ZM250 -212V-132H168C169 -161 173 -185 180 -212ZM263 -690H341L333 -597H250ZM210 -746C148 -747 120 -749 86 -753V-681C116 -686 156 -689 202 -689L187 -597C140 -597 98 -599 63 -604V-533C101 -539 154 -542 284 -542C376 -542 441 -539 472 -533V-604C452 -601 427 -599 400 -598L413 -753C376 -748 344 -746 271 -746C276 -777 284 -808 291 -819C299 -827 298 -832 287 -832C265 -832 235 -837 217 -844C217 -812 215 -778 210 -746ZM766 -163C792 -175 816 -188 840 -203C851 -210 880 -217 890 -216C907 -214 910 -222 895 -235C882 -246 851 -283 840 -300C827 -284 800 -260 729 -212C707 -246 690 -282 679 -318H815C850 -318 893 -317 934 -313V-388C895 -384 849 -383 815 -383H581V-456H756C804 -456 852 -454 878 -450V-522C850 -518 804 -516 756 -516H581V-588H752C800 -588 848 -585 874 -582V-656C846 -652 800 -649 752 -649H581V-721H717C818 -721 856 -720 906 -717V-791C854 -787 820 -786 703 -786C609 -786 563 -788 510 -791C511 -772 512 -742 512 -698V-384C492 -384 476 -385 451 -388V-313C469 -315 482 -316 496 -317V-51C496 -31 488 -18 463 -9C479 15 493 42 508 80C523 63 538 54 559 45L695 -13C691 -31 689 -51 689 -80C661 -66 611 -49 564 -37V-318H617C677 -148 771 -12 899 59C904 27 925 -8 955 -35C877 -62 814 -108 766 -163Z"/>
</svg>