<svg xmlns="http://www.w3.org/2000/svg" viewBox="0 -1000 1000 1000">
	<path fill="#000000" d="M315 -381H149V-450H315ZM269 -276V-323C317 -323 347 -322 375 -320C374 -345 374 -379 374 -414C374 -447 375 -487 375 -511C339 -508 302 -507 232 -507C165 -507 125 -508 89 -511C91 -486 93 -447 93 -414C93 -380 92 -348 89 -321C120 -323 157 -323 213 -323V-276C128 -276 91 -279 62 -285V-219C75 -221 88 -223 100 -225C96 -174 85 -115 72 -74C101 -77 167 -79 213 -79C213 -36 211 20 207 72H273C270 20 269 -36 269 -79C328 -79 367 -77 387 -74V-146C364 -141 322 -138 269 -138V-227C307 -226 350 -223 379 -219V-285C351 -280 315 -277 269 -276ZM213 -227V-138H144C146 -170 150 -197 157 -227ZM222 -689H311L304 -601H215ZM165 -743C127 -743 101 -745 78 -749V-680C100 -684 128 -687 161 -688L153 -601C118 -601 86 -603 60 -608V-539C90 -545 132 -548 237 -548C311 -548 382 -545 407 -539V-608C393 -605 378 -603 361 -602L372 -749C340 -744 303 -742 226 -742C230 -772 236 -796 245 -811C251 -820 251 -824 242 -824C224 -824 179 -828 164 -832C166 -801 167 -774 165 -743ZM700 -429V-527H778V-429ZM778 -373V-267H700V-373ZM559 -429V-527H635V-429ZM635 -373V-267H559V-373ZM842 -372C874 -371 905 -368 934 -364V-438C905 -434 874 -431 842 -430V-525C868 -525 896 -522 923 -518V-587C877 -581 823 -579 746 -579H594C516 -579 463 -581 416 -587V-518C443 -522 470 -524 497 -525V-429C462 -430 431 -433 399 -438V-364C431 -368 463 -371 497 -372V-269C476 -270 454 -273 437 -276V-198C465 -203 532 -207 635 -207V-137C534 -138 472 -141 412 -147V-70C472 -76 533 -79 635 -80C635 -35 633 19 628 70H706C702 19 700 -35 700 -80C811 -80 875 -77 937 -70V-147C875 -140 811 -137 700 -137V-207C857 -207 892 -204 916 -198V-276C901 -273 874 -270 842 -268ZM613 -722V-777C613 -789 616 -799 624 -805C634 -813 632 -818 621 -817C593 -814 572 -814 542 -819C546 -789 547 -772 547 -722C499 -723 458 -725 426 -730V-652C458 -657 499 -660 547 -660V-593H613V-661H733V-592H798V-660C845 -659 886 -656 916 -652V-730C886 -726 845 -723 798 -722V-781C798 -793 801 -800 809 -805C818 -810 816 -820 807 -819C789 -817 765 -818 728 -822C732 -792 733 -765 733 -722Z"/>
</svg>