<svg xmlns="http://www.w3.org/2000/svg" viewBox="0 -1000 1000 1000">
	<path fill="#000000" d="M821 -210H607V-291H821ZM821 -354H607V-434H821ZM821 -497H607V-572H821ZM694 -89C708 -93 710 -105 689 -109C670 -113 649 -125 626 -144C585 -67 538 -15 470 31C502 41 528 55 545 74C593 23 617 -6 662 -66C670 -77 680 -85 694 -89ZM948 5C908 -35 865 -78 811 -133L758 -81C815 -24 845 8 888 66ZM678 -715C674 -686 668 -658 661 -633C593 -634 563 -636 536 -641C538 -623 540 -575 540 -536V-248C540 -209 539 -160 536 -143C570 -149 607 -150 718 -150C829 -150 859 -149 895 -143C893 -162 892 -209 892 -248V-536C892 -575 893 -622 895 -641C860 -635 819 -633 730 -633C739 -663 745 -687 749 -715C835 -715 893 -712 941 -707V-786C886 -780 819 -778 712 -778C605 -778 547 -780 494 -786V-707C540 -712 592 -714 678 -715ZM251 -487H180V-576H251ZM314 -576H391V-487H314ZM251 -633H180V-725H251ZM314 -725H391V-633H314ZM251 -175C221 -172 193 -169 163 -169C178 -142 184 -122 186 -94C206 -103 227 -111 250 -117L355 -144C357 -131 359 -117 361 -101L414 -118C405 -171 396 -211 383 -261L332 -247C338 -227 342 -210 346 -192C335 -189 325 -187 314 -185V-303H423V-91C423 -63 410 -54 331 -61C352 -24 358 -7 361 23C474 7 487 -12 487 -57V-278C487 -317 489 -344 494 -372C460 -366 428 -364 314 -364V-430C393 -430 419 -428 460 -423C456 -456 454 -499 454 -539V-682C454 -719 456 -758 460 -793C422 -787 388 -786 285 -786C192 -786 158 -788 109 -793C114 -757 116 -718 116 -681V-541C116 -499 113 -455 109 -423C150 -428 180 -430 251 -430V-364C158 -364 114 -366 81 -372C85 -347 86 -322 86 -278V-123C86 -70 84 -30 79 20H152V-303H251Z"/>
</svg>