<svg xmlns="http://www.w3.org/2000/svg" viewBox="0 -1000 1000 1000">
	<path fill="#000000" d="M386 -567H464V-508H386ZM155 -571H231V-512H155ZM844 -169H639V-256H844ZM844 -318H639V-398H844ZM844 -457H639V-542H844ZM963 15C934 -15 871 -64 814 -102L755 -57C809 -20 855 23 899 73ZM199 -126H318V-74H199ZM199 -230H318V-175H199ZM199 -334H318V-279H199ZM370 -671V-615C353 -615 340 -616 326 -617C327 -596 327 -570 327 -539C327 -508 327 -481 326 -460C351 -461 377 -461 427 -461C476 -461 500 -460 525 -459C524 -481 523 -507 523 -539C523 -570 524 -596 525 -617C501 -615 480 -614 438 -614V-670C477 -669 507 -667 534 -662V-734C507 -730 478 -728 438 -727V-774C438 -787 440 -794 448 -799C456 -804 456 -809 445 -809C421 -810 389 -814 364 -818C367 -793 369 -768 370 -726H252V-777C252 -788 254 -794 261 -798C271 -804 269 -811 257 -811C232 -812 201 -815 175 -818C178 -793 180 -768 181 -727C136 -727 97 -730 68 -734V-662C97 -666 136 -669 181 -670V-619C141 -619 120 -620 97 -622C98 -600 98 -574 98 -542C98 -510 98 -483 97 -461C121 -462 145 -462 193 -462C239 -462 264 -461 288 -460C287 -483 286 -509 286 -542C286 -574 287 -600 288 -622C277 -621 265 -620 252 -620V-671ZM546 -25V-80C490 -75 452 -74 384 -74V-125C434 -125 483 -123 512 -119V-182C483 -179 435 -176 384 -175V-230C436 -229 487 -227 517 -223V-286C487 -283 437 -280 384 -279V-334C440 -333 491 -331 534 -328V-394C492 -389 445 -387 393 -386C386 -410 378 -428 367 -450L294 -435C303 -416 310 -400 315 -385H218C231 -401 239 -408 247 -414C261 -424 259 -429 247 -432C223 -438 206 -445 180 -458C148 -380 111 -326 39 -256C58 -245 75 -227 87 -206C103 -222 115 -236 136 -266V-131C136 -75 134 -13 129 53H199V-25H362C438 -25 476 -23 533 -17C507 -2 479 11 449 22C478 37 498 55 515 78C553 54 594 27 659 -17C684 -34 699 -41 712 -44C727 -47 728 -54 712 -61C696 -68 663 -88 642 -104C616 -77 584 -49 546 -25ZM698 -696C697 -664 692 -629 686 -600C622 -601 596 -603 568 -608C570 -590 572 -542 572 -503V-210C572 -171 570 -123 568 -105C603 -111 634 -112 741 -112C848 -112 880 -111 916 -105C914 -123 912 -171 912 -210V-503C912 -542 915 -590 916 -608C881 -602 850 -600 752 -600C761 -634 767 -663 772 -696C849 -696 895 -693 940 -688V-765C890 -759 838 -757 742 -757C646 -757 595 -759 545 -765V-688C586 -693 629 -695 698 -696Z"/>
</svg>