<svg xmlns="http://www.w3.org/2000/svg" viewBox="0 -1000 1000 1000">
	<path fill="#000000" d="M303 -253H696V-205H303ZM696 -303H303V-355H696ZM355 -86C340 -91 311 -107 290 -124C224 -61 160 -18 97 8C123 19 141 30 168 54C244 8 267 -8 300 -34C327 -55 336 -60 352 -66C371 -73 369 -81 355 -86ZM892 -22C838 -55 773 -88 702 -120L651 -68C724 -36 776 -4 839 50ZM476 -537H525C557 -486 595 -445 639 -409H371C412 -445 445 -486 476 -537ZM422 -588C331 -589 261 -591 200 -593V-534C254 -536 317 -537 399 -537C377 -500 348 -468 310 -439C265 -477 240 -496 217 -509L167 -467C194 -451 234 -428 263 -408C205 -374 134 -346 49 -319C71 -301 91 -279 104 -258C151 -278 192 -297 229 -316C230 -299 230 -281 230 -263C230 -220 229 -180 226 -141C287 -148 362 -152 478 -152V-31C478 -3 463 8 365 -7C398 32 405 51 409 83C545 68 558 55 558 2V-152C652 -151 718 -148 770 -143C769 -178 768 -218 768 -263C768 -286 768 -308 768 -330C815 -308 852 -294 916 -276C923 -306 932 -324 953 -357C865 -366 796 -380 738 -408C814 -462 830 -469 851 -475C872 -481 872 -490 853 -495C837 -499 810 -512 791 -528C757 -488 740 -475 685 -440C651 -464 618 -496 587 -537C673 -537 739 -536 794 -534V-593C720 -590 633 -588 508 -588C521 -609 529 -618 534 -621C549 -630 545 -641 525 -641C503 -641 474 -648 439 -661C436 -635 430 -611 422 -588ZM470 -731C258 -731 196 -733 94 -739V-576H172V-673H824V-596H903V-739C814 -734 763 -732 562 -731C550 -770 537 -803 521 -837L438 -817C449 -793 461 -761 470 -731Z"/>
</svg>