<svg xmlns="http://www.w3.org/2000/svg" viewBox="0 -1000 1000 1000">
	<path fill="#000000" d="M602 -630C595 -647 583 -683 578 -703L523 -678C531 -658 542 -623 545 -605ZM886 -263C868 -271 855 -290 844 -311C747 -196 677 -161 541 -135C560 -112 566 -99 570 -67C682 -101 769 -147 814 -192C842 -220 868 -240 883 -244C893 -247 896 -258 886 -263ZM802 -334C789 -342 774 -360 767 -379C704 -296 617 -252 537 -241C553 -222 562 -200 565 -179C637 -203 670 -219 748 -282C770 -300 789 -313 799 -314C810 -315 811 -329 802 -334ZM748 -415C740 -416 716 -436 708 -453C654 -393 602 -356 540 -338C555 -322 563 -304 567 -284C633 -319 678 -347 701 -368C725 -388 736 -393 745 -394C759 -395 759 -414 748 -415ZM800 -630C795 -653 786 -688 780 -709L722 -686C731 -663 742 -627 746 -609ZM837 -565V-510H898V-783C875 -779 845 -776 796 -776C752 -776 735 -777 711 -782V-713C736 -717 749 -719 837 -719V-617C796 -599 758 -587 721 -580C727 -568 732 -555 736 -539C721 -542 698 -551 687 -560V-778C664 -772 645 -770 591 -770C546 -770 530 -772 509 -777V-708C533 -713 540 -713 627 -713V-618C583 -596 540 -579 506 -569C514 -549 521 -522 523 -502C555 -523 591 -545 627 -566V-544H667C617 -484 560 -447 466 -415C487 -397 506 -376 513 -357C595 -406 657 -451 696 -488C762 -418 816 -386 919 -346C928 -380 933 -391 951 -417C863 -430 802 -460 732 -514C736 -515 739 -517 742 -518C745 -519 748 -522 750 -525C778 -537 806 -550 837 -565ZM252 -286H226V-450H252ZM307 -450H332V-286H307ZM954 -67C924 -71 902 -78 879 -99C876 -21 866 -6 832 -4C696 4 536 -41 492 -153C465 -219 459 -312 466 -635C468 -725 468 -748 471 -783C406 -780 356 -780 277 -780C202 -780 152 -781 84 -783C89 -624 91 -459 88 -330C84 -153 69 -80 30 0C51 14 68 30 84 54C124 -39 145 -109 148 -300C150 -410 151 -571 151 -719H407C402 -260 411 -178 446 -102C506 32 656 75 855 63C917 59 928 51 954 -67ZM252 -584V-503C220 -504 190 -506 173 -508C174 -473 175 -418 175 -367C175 -314 175 -269 173 -232C189 -234 220 -235 252 -236V-115C198 -107 147 -101 137 -102C147 -78 155 -45 156 -28C166 -35 195 -43 222 -49L357 -79C362 -51 365 -26 366 -11L433 -26C425 -62 403 -159 388 -214L330 -203C335 -190 342 -162 348 -131C336 -129 322 -126 307 -124V-236C336 -236 364 -235 381 -233C380 -269 380 -314 380 -367C380 -418 380 -473 381 -508C364 -505 337 -503 307 -503V-590C319 -592 330 -593 341 -595C355 -597 368 -596 375 -594C393 -588 403 -602 389 -621C377 -637 367 -654 361 -673C320 -650 240 -632 163 -638C171 -618 178 -594 181 -576C206 -579 228 -581 252 -584Z"/>
</svg>