<svg xmlns="http://www.w3.org/2000/svg" viewBox="0 -1000 1000 1000">
	<path fill="#000000" d="M252 -286H226V-450H252ZM307 -450H332V-286H307ZM252 -584V-503C220 -503 190 -506 173 -508C174 -473 175 -418 175 -367C175 -314 175 -269 173 -232C189 -234 220 -235 252 -236V-115C199 -107 147 -101 137 -102C147 -78 155 -45 156 -28C166 -35 195 -43 222 -49L357 -79C362 -51 365 -26 366 -11L433 -26C425 -71 403 -159 388 -214L330 -203C335 -189 342 -161 347 -131C336 -129 321 -126 307 -124V-236C336 -236 364 -235 381 -233C380 -269 380 -314 380 -367C380 -418 380 -473 381 -508C364 -505 337 -503 307 -503V-590C319 -591 330 -593 341 -595C355 -597 368 -596 375 -594C393 -588 404 -602 389 -621C377 -636 367 -654 361 -673C320 -650 240 -632 163 -638C171 -618 178 -594 181 -576C203 -578 228 -581 252 -584ZM913 -793C926 -802 924 -812 906 -812C885 -812 857 -815 832 -820C835 -793 837 -739 837 -651V-233C837 -168 828 -161 740 -176C762 -142 770 -122 778 -88C894 -105 900 -111 900 -218V-760C900 -776 903 -785 913 -793ZM804 -633C817 -643 814 -654 800 -653C784 -652 758 -654 731 -659C733 -633 734 -598 734 -548V-384C734 -344 733 -302 728 -256H799C796 -303 795 -344 795 -384V-601C795 -615 798 -628 804 -633ZM597 -566C606 -605 614 -650 619 -696C665 -695 694 -692 720 -686V-761C691 -754 658 -751 601 -751C543 -751 512 -754 481 -761V-686C502 -691 524 -694 556 -695C541 -551 508 -445 464 -378C463 -443 464 -526 466 -635C468 -725 469 -747 471 -783C406 -781 356 -780 277 -780C202 -780 152 -781 84 -783C89 -624 91 -459 88 -330C84 -153 69 -80 30 0C51 14 68 30 84 54C124 -39 145 -109 148 -300C150 -410 151 -571 151 -719H407C402 -260 411 -178 446 -102C506 32 656 75 855 63C917 59 938 51 964 -67C934 -69 912 -78 889 -99C886 -21 866 -6 832 -4C700 4 545 -39 496 -144C513 -134 525 -123 538 -105C595 -147 642 -220 661 -277C686 -353 699 -410 711 -566ZM490 -158C473 -201 465 -255 464 -372C483 -367 508 -356 519 -346C554 -410 563 -434 582 -506L643 -505C639 -445 635 -411 623 -364C615 -377 605 -390 591 -407L545 -363C567 -337 585 -313 601 -289C579 -236 544 -186 490 -158Z"/>
</svg>