<svg xmlns="http://www.w3.org/2000/svg" viewBox="0 -1000 1000 1000">
	<path fill="#000000" d="M350 -270H185V-336H350ZM350 -393H185V-461H350ZM739 -679C708 -722 671 -770 630 -820L569 -772C603 -740 648 -673 672 -627ZM544 -463L471 -470C471 -381 457 -291 437 -229L511 -222C529 -300 542 -377 544 -463ZM960 -253C935 -333 918 -381 884 -455L815 -427C846 -372 860 -322 879 -230ZM585 -29C593 17 616 30 659 31C696 32 764 32 790 31C856 28 883 -1 905 -97C867 -101 843 -109 818 -126C813 -51 802 -35 733 -35C662 -35 650 -48 649 -90C686 -131 716 -175 742 -225C785 -311 823 -444 850 -669C855 -711 859 -725 874 -736C887 -746 888 -754 876 -756C849 -761 819 -768 780 -777C771 -534 732 -342 660 -211C657 -205 653 -199 649 -193V-553C649 -571 652 -581 661 -589C669 -596 669 -604 659 -603C634 -601 609 -602 572 -608C578 -582 581 -524 581 -460V-116C524 -63 450 -12 390 11C414 23 435 42 449 69C501 36 546 5 585 -29ZM329 -551C311 -580 299 -608 289 -642L218 -614C235 -586 242 -563 247 -531ZM288 -755C301 -771 316 -783 328 -787C341 -791 340 -805 330 -806C295 -811 264 -822 232 -841C223 -794 197 -738 160 -676C118 -605 64 -539 23 -508C47 -492 64 -473 74 -449C89 -466 104 -485 120 -505V-93C120 -47 113 -32 86 -16C108 4 123 30 131 56C145 40 172 22 201 10L346 -49C354 -35 362 -21 370 -4L437 -45C405 -96 369 -142 324 -190L266 -157C285 -136 300 -117 314 -99L185 -56V-210H347C379 -210 397 -209 420 -208C418 -244 417 -308 417 -369C417 -427 418 -487 420 -525C399 -522 321 -519 269 -519C206 -519 164 -520 134 -523C175 -576 218 -638 256 -702C326 -656 369 -623 430 -567L485 -624C430 -671 380 -703 288 -755Z"/>
</svg>