<svg xmlns="http://www.w3.org/2000/svg" viewBox="0 -1000 1000 1000">
	<path fill="#000000" d="M307 -241H177V-332H307ZM307 -389H177V-479H307ZM268 -761C275 -770 280 -774 285 -776C306 -784 305 -796 288 -801C267 -807 237 -820 215 -832C167 -704 131 -648 33 -556C52 -544 69 -522 80 -493C91 -505 100 -516 109 -527C111 -500 111 -475 111 -445V-89C111 -68 98 -39 73 -20C91 4 105 28 117 58C130 39 158 17 180 8L304 -42C312 -25 320 -8 327 11L387 -24C365 -70 344 -108 311 -165L256 -135C264 -121 271 -109 277 -97L177 -62V-182H283C320 -182 346 -181 372 -177C369 -215 369 -248 369 -277V-445C369 -481 369 -511 372 -545C336 -541 276 -539 243 -539C211 -539 162 -541 123 -544C151 -577 174 -607 194 -636C210 -606 219 -580 226 -548L298 -570C282 -608 274 -629 261 -659L198 -642C213 -664 226 -686 238 -707C284 -670 313 -640 337 -610L389 -671C347 -706 303 -738 268 -761ZM543 -88C562 -69 580 -48 599 -24L655 -77C630 -102 603 -126 574 -151C601 -216 619 -289 631 -375C595 -373 570 -372 516 -372C454 -372 426 -373 390 -375V-307C409 -309 426 -310 449 -310H554C547 -269 538 -229 523 -192C494 -216 468 -238 437 -260L397 -212C436 -186 463 -164 495 -133C463 -74 417 -21 355 21C392 38 406 47 422 67C474 16 513 -34 543 -88ZM841 -558C874 -617 896 -687 907 -767C871 -765 843 -764 790 -764C737 -764 686 -765 650 -767V-700C669 -702 686 -703 709 -703H828C822 -663 811 -626 792 -592C758 -617 722 -641 679 -670L640 -619C677 -596 715 -569 755 -538C721 -499 674 -463 608 -428C637 -415 657 -399 669 -385C724 -418 768 -456 803 -500C834 -474 866 -446 897 -416L950 -475C908 -507 874 -534 841 -558ZM543 -495C564 -478 586 -460 607 -441L657 -496C634 -514 608 -532 577 -553C605 -609 622 -675 635 -761C596 -759 566 -758 511 -758C457 -758 436 -759 396 -761V-695C416 -697 438 -699 457 -699H557C550 -654 540 -617 526 -586C498 -603 466 -623 428 -646L388 -600C423 -581 459 -558 494 -532C467 -497 431 -468 381 -434C413 -419 427 -408 444 -390C485 -424 517 -458 543 -495ZM730 -316H835C824 -258 799 -201 765 -151C744 -201 733 -256 730 -316ZM668 -315C676 -233 694 -155 724 -98C680 -50 624 -10 555 27C590 46 607 59 621 81C682 37 730 -5 769 -48C812 -3 863 33 921 62C929 34 944 7 969 -19C920 -24 861 -55 811 -102C864 -177 893 -262 916 -380C875 -378 849 -377 790 -377C736 -377 679 -378 641 -380V-313C650 -314 659 -314 668 -315Z"/>
</svg>