<svg xmlns="http://www.w3.org/2000/svg" viewBox="0 -1000 1000 1000">
	<path fill="#000000" d="M339 -454V-391H171V-454ZM339 -335V-268H171V-335ZM196 -612C210 -581 217 -557 224 -523L297 -542C284 -580 277 -600 266 -633ZM705 -460H815V-338H705ZM634 -338H529V-460H634ZM634 -242V-105C634 -33 632 16 627 80H712C707 17 705 -34 705 -105V-232C745 -125 812 -39 916 31C931 -1 945 -25 975 -50C842 -113 789 -167 735 -277C803 -276 844 -274 888 -270C885 -301 883 -352 883 -401C883 -451 885 -501 888 -529C839 -524 792 -521 705 -520V-620C809 -619 881 -616 938 -611V-692C881 -688 809 -685 705 -684V-762C705 -772 712 -788 725 -801C742 -817 740 -824 713 -823C693 -822 654 -825 627 -831C632 -800 634 -771 634 -684C541 -685 485 -689 427 -694V-623C383 -665 320 -720 274 -757C284 -771 293 -779 308 -787C321 -793 321 -801 310 -803C276 -809 251 -818 221 -836C192 -726 97 -598 15 -535C39 -515 53 -494 63 -461C78 -478 92 -495 107 -512V-104C107 -59 103 -46 73 -29C98 -4 109 12 123 44C136 28 161 10 190 -2L354 -70C360 -59 366 -48 373 -35L435 -81C400 -129 383 -150 341 -197L286 -161C302 -143 314 -128 325 -114L171 -66V-208H335C367 -208 383 -207 405 -206C403 -241 402 -304 402 -365C402 -423 403 -481 405 -519C386 -516 321 -513 270 -513C202 -513 142 -514 112 -518C162 -578 205 -638 243 -703C300 -650 343 -602 387 -547L446 -604C443 -607 441 -609 438 -612C490 -616 547 -619 634 -620V-520C548 -521 510 -523 459 -529C463 -498 466 -450 466 -401C466 -353 463 -305 459 -272C499 -275 532 -277 588 -278C506 -122 459 -70 357 4C391 20 410 35 430 61C526 -42 572 -107 634 -242Z"/>
</svg>