<svg xmlns="http://www.w3.org/2000/svg" viewBox="0 -1000 1000 1000">
	<path fill="#000000" d="M348 -463V-396H199V-463ZM348 -338V-273H199V-338ZM700 -165C755 -38 832 38 925 70C928 37 940 10 968 -16C873 -29 796 -87 747 -185C835 -185 892 -182 952 -175V-254C894 -248 834 -245 712 -244C714 -273 718 -283 727 -292C743 -309 740 -319 720 -319C698 -319 674 -323 653 -330C656 -297 656 -272 653 -244C542 -244 486 -247 437 -254V-175C486 -180 540 -185 616 -185H640C612 -94 541 -33 419 1C445 23 459 49 463 78C588 23 671 -69 700 -165ZM646 -711C643 -684 640 -659 636 -631C518 -631 485 -632 464 -633C467 -621 469 -595 469 -558V-391C469 -346 467 -322 462 -292H533V-570H600V-432C600 -386 598 -347 595 -336H663C660 -347 658 -387 658 -432V-570H727V-439C727 -393 726 -354 724 -343H789C787 -354 785 -394 785 -439V-570H858V-394C858 -366 843 -354 789 -369C803 -337 808 -321 809 -288C902 -304 918 -322 918 -364V-558C918 -606 920 -622 924 -633C899 -632 847 -631 701 -631C704 -661 708 -687 711 -711C810 -711 861 -708 937 -701V-777C857 -769 805 -767 693 -767C580 -767 526 -770 445 -777V-701C514 -707 556 -710 646 -711ZM222 -616C236 -585 242 -567 250 -531L332 -551C313 -580 301 -610 292 -644ZM258 -708C307 -670 338 -641 387 -580L445 -639C397 -685 347 -724 290 -760C300 -773 315 -787 326 -793C338 -800 338 -806 328 -809C293 -817 264 -827 232 -843C220 -784 199 -738 162 -677C115 -599 67 -544 25 -512C52 -494 66 -474 71 -444C88 -463 109 -489 132 -520V-91C132 -45 128 -32 98 -14C120 7 138 35 148 60C161 44 185 26 215 13L346 -44C356 -28 365 -9 374 10L440 -33C408 -80 370 -133 331 -183L272 -149C289 -130 303 -112 314 -96L199 -54V-212H342C374 -212 391 -211 413 -210C411 -246 410 -310 410 -372C410 -431 411 -491 413 -529C394 -526 325 -523 274 -523C207 -523 167 -524 138 -528C179 -583 224 -649 258 -708Z"/>
</svg>