<svg xmlns="http://www.w3.org/2000/svg" viewBox="0 -1000 1000 1000">
	<path fill="#000000" d="M354 -282H190V-356H354ZM354 -413H190V-487H354ZM817 -644H561V-721H817ZM561 -585H817V-512H561ZM605 -379C622 -402 638 -426 652 -452C664 -452 677 -452 691 -452C817 -452 850 -451 893 -447C889 -459 887 -491 887 -517V-718C887 -744 889 -776 893 -788C850 -784 817 -783 691 -783C563 -783 530 -784 488 -788C492 -776 494 -744 494 -718V-517C494 -491 492 -459 488 -447C512 -450 534 -451 573 -451C525 -361 482 -321 419 -283C418 -296 418 -309 418 -322V-453C418 -492 419 -521 421 -554C385 -550 358 -548 317 -547C315 -576 307 -613 295 -642L217 -625C230 -600 240 -573 245 -547H139C185 -606 234 -679 263 -731C318 -689 365 -646 401 -603L455 -658C408 -702 346 -747 293 -779C300 -787 306 -793 313 -798C328 -809 326 -814 308 -817C292 -820 262 -829 231 -841C185 -708 113 -609 36 -548C57 -532 78 -507 89 -486C99 -496 110 -509 121 -523V-74C121 -53 108 -36 79 -19C107 6 124 26 142 52C154 39 169 28 207 5L336 -73C354 -47 368 -21 378 5L448 -36C413 -89 369 -144 325 -194L260 -155C275 -144 288 -131 300 -118L190 -62V-222H267C318 -222 390 -220 422 -218C420 -241 419 -261 419 -280C436 -260 445 -246 460 -217C468 -224 476 -232 482 -239V-85C482 -44 481 -22 477 0C503 -3 569 -5 629 -5C681 -5 734 -4 761 -1C777 29 782 53 783 77C902 55 914 39 917 -55L930 -386C896 -382 842 -379 774 -379ZM767 -11V-76C752 -72 700 -70 637 -70H547V-203C547 -238 550 -248 559 -258C570 -270 567 -274 553 -273C542 -272 533 -273 517 -275C530 -287 545 -303 556 -317H665C649 -245 614 -194 559 -152C584 -129 597 -113 612 -91C645 -131 670 -166 689 -201C732 -162 758 -134 780 -105L832 -154C790 -197 759 -222 714 -251C721 -267 731 -293 738 -317H855L848 -72C846 -8 828 1 767 -11Z"/>
</svg>