<svg xmlns="http://www.w3.org/2000/svg" viewBox="0 -1000 1000 1000">
	<path fill="#000000" d="M792 -187H550V-251H792ZM858 -127C855 -157 854 -192 854 -223C854 -255 855 -281 858 -312C812 -308 758 -307 668 -307C580 -307 526 -308 480 -312C485 -281 486 -255 486 -223C486 -192 484 -158 480 -128C526 -130 580 -131 668 -131C758 -131 812 -130 858 -127ZM325 -253H174V-339H325ZM325 -396H174V-489H325ZM826 -352V-427C789 -422 743 -419 674 -419C605 -419 559 -422 524 -427V-352C559 -357 605 -360 674 -360C743 -360 789 -357 826 -352ZM933 -401V-535C884 -531 834 -529 677 -529C519 -529 469 -531 421 -535V-401H489V-469H866V-401ZM708 -630V-692C798 -691 869 -686 920 -680V-762C869 -756 798 -753 708 -752V-789C708 -807 711 -814 716 -817C729 -823 726 -831 714 -830C694 -829 664 -832 639 -838C641 -826 641 -807 641 -752C548 -753 483 -756 427 -762V-682C480 -688 548 -691 641 -692V-630C570 -631 519 -634 478 -640V-565C523 -572 584 -575 669 -575C756 -575 825 -572 871 -565V-640C832 -634 777 -631 708 -630ZM294 -583C281 -624 274 -643 262 -673L199 -654C215 -622 224 -595 232 -559ZM269 -775C275 -782 280 -786 285 -788C307 -797 305 -809 288 -813C267 -818 245 -826 217 -838C181 -725 111 -643 26 -569C45 -554 64 -532 77 -505C86 -515 95 -526 104 -537C106 -511 106 -486 106 -457V-61C106 -40 98 -26 69 -16C89 10 98 28 113 62C126 43 141 31 176 12L321 -63C329 -44 339 -21 345 -6L398 -38V35C436 29 506 26 666 26C843 26 917 29 948 35V-45C922 -40 853 -37 789 -36C806 -70 811 -74 818 -76C838 -80 837 -92 818 -97C794 -104 776 -113 757 -127C744 -81 737 -61 726 -36H614C605 -63 596 -84 581 -118L519 -89C533 -66 540 -51 546 -36C486 -37 438 -40 406 -44C383 -88 366 -117 329 -177L277 -150C284 -137 291 -123 298 -109L174 -58V-194H303C340 -194 366 -193 392 -189C390 -227 389 -260 389 -289V-457C389 -493 389 -523 392 -557C356 -553 280 -551 247 -551C216 -551 159 -553 119 -556C166 -613 214 -680 241 -724C295 -681 317 -659 372 -603L420 -661C356 -712 321 -738 269 -775Z"/>
</svg>