<svg xmlns="http://www.w3.org/2000/svg" viewBox="0 -1000 1000 1000">
	<path fill="#000000" d="M311 -273H170V-346H311ZM311 -402H170V-482H311ZM638 -169H581V-318H638ZM696 -106C694 -122 694 -135 694 -157V-326C694 -345 694 -362 696 -377C678 -376 643 -375 606 -375C562 -375 539 -375 522 -377C523 -362 523 -346 523 -326V-157C523 -138 523 -121 522 -107C539 -108 562 -108 606 -108C643 -108 678 -108 696 -106ZM857 -173H793V-322H857ZM916 -107C915 -123 914 -136 914 -158V-328C914 -347 915 -364 916 -379C897 -378 863 -377 826 -377C783 -377 750 -377 732 -379C735 -363 735 -348 735 -328V-158C735 -139 734 -122 732 -108C750 -109 783 -109 826 -109C863 -109 897 -108 916 -107ZM806 -496H625V-581H806ZM874 -432C873 -447 873 -460 873 -482V-595C873 -614 873 -631 874 -646C839 -645 776 -644 710 -644C632 -644 593 -644 559 -646C561 -631 562 -615 562 -595V-482C562 -463 561 -446 559 -432C593 -433 632 -433 710 -433C776 -433 839 -433 874 -432ZM291 -560C286 -590 276 -624 264 -657L199 -640C212 -610 219 -586 223 -548ZM259 -756C270 -771 283 -782 290 -785C309 -793 309 -808 294 -810C267 -813 232 -824 209 -837C179 -742 119 -643 32 -557C58 -541 68 -530 84 -504C91 -513 97 -521 104 -529V-99C104 -56 96 -41 66 -29C87 -8 103 18 116 48C126 30 145 15 181 -3L329 -74C337 -58 345 -40 354 -19L412 -75C378 -131 360 -156 320 -207L263 -175C278 -159 290 -143 302 -123L170 -69V-216H249C301 -216 346 -215 378 -213C375 -251 374 -281 374 -313V-451C374 -488 375 -515 377 -548C330 -543 303 -541 253 -541H113C162 -604 202 -661 230 -707C269 -679 300 -650 358 -592L406 -660C350 -698 299 -731 259 -756ZM421 -123C421 -50 418 12 416 45C453 37 495 34 682 34C869 34 916 37 953 45V-43C915 -35 872 -33 711 -33H492V-705H713C863 -705 908 -701 931 -695V-780C893 -772 857 -769 668 -769C491 -769 453 -772 416 -780C420 -743 421 -678 421 -620Z"/>
</svg>