<svg xmlns="http://www.w3.org/2000/svg" viewBox="0 -1000 1000 1000">
	<path fill="#000000" d="M309 -250H171V-338H309ZM673 -643C545 -643 497 -645 429 -650C431 -633 432 -613 432 -592V-410C432 -383 431 -360 429 -339C496 -343 539 -345 666 -345C794 -345 847 -343 913 -340C911 -362 910 -389 910 -418V-588C910 -611 911 -632 913 -650C845 -645 801 -643 673 -643ZM501 -594H839V-394H501ZM667 -556C620 -556 575 -557 551 -558C553 -543 554 -518 554 -496C554 -474 553 -449 551 -434C575 -436 620 -437 667 -437C713 -437 765 -436 788 -434C786 -449 785 -474 785 -496C785 -518 786 -543 788 -558C764 -557 713 -556 667 -556ZM309 -393H171V-486H309ZM612 -517H730V-476H612ZM523 -156H813V-113H523ZM885 -294C835 -292 817 -291 670 -291C522 -291 501 -292 451 -294C454 -281 455 -265 455 -248V-114C455 -96 454 -82 451 -66C500 -68 522 -69 670 -69C817 -69 835 -69 885 -66C883 -80 882 -96 882 -114V-248C882 -265 883 -283 885 -294ZM813 -201H523V-247H813ZM188 -630C209 -604 222 -583 235 -550L299 -587C281 -621 267 -644 249 -668ZM265 -758C274 -772 284 -780 294 -784C313 -792 313 -805 298 -806C275 -808 245 -818 216 -833C172 -715 117 -648 30 -574C49 -554 61 -534 71 -505C82 -516 92 -527 102 -538C104 -509 104 -483 104 -450V-64C104 -42 93 -27 66 -18C84 3 101 32 111 60C121 46 141 32 164 21L330 -57C339 -38 347 -18 354 -1L407 -42C384 -94 363 -130 331 -178L280 -152C289 -138 297 -122 305 -105L171 -54V-194H294C324 -194 356 -193 377 -191C375 -230 374 -263 374 -292V-450C374 -486 374 -516 376 -549C340 -544 273 -542 240 -542C207 -542 150 -544 111 -548C166 -608 208 -663 236 -707C270 -681 319 -641 347 -614L401 -672C374 -691 306 -733 265 -758ZM655 42C802 42 866 43 942 47V-26C866 -22 802 -20 655 -20C513 -20 479 -21 403 -26V47C478 43 509 42 655 42ZM632 -747C509 -747 458 -749 387 -753V-686C463 -690 518 -691 665 -691C813 -691 868 -690 945 -686V-753C877 -749 813 -747 712 -747C705 -779 694 -811 683 -840L602 -818C613 -796 624 -771 632 -747Z"/>
</svg>