<svg xmlns="http://www.w3.org/2000/svg" viewBox="0 -1000 1000 1000">
	<path fill="#000000" d="M725 -695C695 -738 659 -786 618 -836L554 -788C588 -756 633 -689 657 -643ZM352 -165V-85H185V-165ZM185 -217V-295H352V-217ZM551 -479C558 -497 555 -500 545 -497C535 -494 497 -495 472 -500C476 -421 464 -313 440 -220C466 -222 493 -221 520 -214C526 -301 543 -456 551 -479ZM584 -32C594 21 616 30 667 32C691 33 769 29 787 26C848 17 872 -8 904 -133C875 -141 854 -154 827 -183C811 -66 796 -51 751 -42C729 -38 693 -36 679 -39C663 -42 652 -50 648 -103C729 -205 801 -350 832 -668C835 -703 841 -727 856 -739C867 -748 866 -751 847 -752C829 -753 787 -759 763 -764C739 -453 700 -312 647 -223V-524C647 -571 653 -595 663 -605C673 -615 670 -618 656 -617C635 -614 597 -619 573 -625C576 -600 580 -534 580 -498V-132C508 -46 462 -17 386 13C416 28 436 47 451 72C487 51 540 10 584 -32ZM963 -293C941 -365 911 -451 885 -515L815 -493C841 -431 870 -339 882 -266ZM238 -702V-619C142 -619 102 -621 60 -625V-555C93 -558 140 -560 198 -561C160 -494 98 -432 25 -385C49 -373 69 -357 85 -334C147 -388 199 -452 238 -528V-348C177 -349 135 -352 115 -356C118 -323 120 -281 120 -259V-82C120 -41 117 4 113 33H185V-32H352V-6H422C418 -34 416 -91 416 -121V-259C416 -281 418 -328 422 -356C403 -352 362 -349 302 -348V-483C344 -450 374 -421 402 -386L453 -444C419 -473 382 -502 340 -532L302 -490V-561C358 -560 407 -558 438 -555V-625C407 -621 358 -620 302 -619V-715C347 -721 398 -724 426 -719C443 -716 446 -723 434 -739C421 -757 410 -776 399 -807C365 -792 298 -775 235 -764C194 -757 127 -749 81 -749C97 -729 105 -709 109 -682C149 -686 188 -692 238 -702Z"/>
</svg>