<svg xmlns="http://www.w3.org/2000/svg" viewBox="0 -1000 1000 1000">
	<path fill="#000000" d="M763 -697C733 -740 700 -784 658 -834L596 -790C630 -758 673 -691 697 -645ZM111 -257L63 -263C58 -171 50 -123 33 -71L93 -66C103 -124 110 -193 111 -257ZM190 -85C183 -149 180 -199 178 -253L128 -256C132 -206 132 -131 127 -83ZM282 -110C267 -157 256 -210 253 -261L196 -257C209 -207 217 -145 218 -98ZM365 -126C348 -188 341 -223 335 -271L283 -261C296 -207 304 -149 305 -109ZM816 -405C845 -354 867 -295 877 -226L957 -249C933 -324 914 -373 881 -443L820 -420C836 -489 849 -569 861 -663C866 -704 871 -718 886 -729C899 -740 899 -751 887 -751C860 -752 836 -758 797 -772C787 -521 729 -294 668 -199V-591C668 -607 671 -618 680 -626C688 -634 687 -643 677 -642C653 -640 628 -641 592 -647C598 -622 601 -558 601 -493V-119C538 -58 458 -5 396 24C421 38 441 54 462 79C517 42 564 8 604 -28C614 29 643 44 689 45C724 46 774 46 799 45C864 42 889 13 911 -85C873 -89 849 -97 825 -115C820 -39 811 -28 745 -28C684 -28 668 -35 668 -80V-91C702 -131 731 -173 754 -222C779 -274 799 -334 816 -405ZM555 -502L485 -509C481 -420 473 -332 464 -268L533 -261C541 -333 549 -416 555 -502ZM250 -372H152V-458H250ZM250 -594V-514H152V-594ZM152 -647V-729H250V-647ZM313 -647V-729C363 -729 396 -727 442 -723V-795C389 -790 342 -789 263 -789C179 -789 126 -791 80 -795C84 -728 85 -649 85 -562C85 -440 83 -355 78 -309C106 -312 137 -313 206 -313H379C380 -256 377 -158 372 -112C364 -39 347 -30 257 -49C281 -18 289 15 288 46C396 35 420 10 430 -72C435 -107 442 -211 446 -298C448 -332 450 -362 453 -381C408 -373 389 -372 313 -372V-458C362 -458 388 -457 432 -452V-520C388 -515 362 -514 313 -514V-594C360 -594 386 -593 429 -588V-653C387 -648 360 -647 313 -647Z"/>
</svg>