<svg xmlns="http://www.w3.org/2000/svg" viewBox="0 -1000 1000 1000">
	<path fill="#000000" d="M701 -241C679 -299 656 -361 633 -423L560 -397C583 -344 605 -270 617 -212ZM761 -626H685C639 -626 578 -630 555 -634V-546C578 -550 639 -553 685 -553H761V-62C761 -29 744 -9 626 -29C648 9 663 41 670 75C828 61 840 47 840 -17V-553C884 -552 943 -548 959 -545V-634C943 -630 884 -627 840 -626V-769C840 -788 843 -799 855 -808C870 -819 867 -827 842 -826C820 -825 785 -827 754 -832C759 -803 761 -760 761 -683ZM354 -88V-221C421 -221 475 -218 515 -213V-296C475 -291 421 -288 354 -287V-354C354 -366 360 -381 368 -387C382 -397 380 -402 364 -403C330 -405 301 -408 273 -413C278 -391 280 -368 280 -287C201 -288 139 -291 94 -296V-213C139 -218 201 -221 280 -222V-81C217 -75 149 -71 59 -71C72 -38 81 -3 86 33C155 10 267 -10 527 -35C526 -62 530 -89 538 -116C466 -103 409 -94 354 -88ZM349 -690V-764C349 -776 354 -793 362 -799C378 -810 377 -818 358 -818C323 -818 299 -820 270 -824C274 -804 276 -757 277 -690C203 -691 150 -694 107 -699V-614C149 -619 203 -622 277 -623V-502C183 -502 119 -505 66 -511V-428C122 -434 191 -437 296 -437C402 -437 471 -434 528 -428V-511C481 -506 426 -503 349 -502V-623C415 -622 465 -619 504 -614V-699C465 -694 415 -691 349 -690Z"/>
</svg>