<svg xmlns="http://www.w3.org/2000/svg" viewBox="0 -1000 1000 1000">
	<path fill="#000000" d="M122 -236H68C64 -186 54 -124 37 -49L98 -45C109 -95 119 -177 122 -236ZM200 -65C202 -114 200 -186 197 -236L144 -233C146 -185 144 -109 139 -62ZM286 -78C284 -126 277 -192 271 -241L221 -239C226 -192 231 -119 231 -72ZM365 -92C363 -140 354 -204 345 -250L294 -248C302 -202 309 -133 311 -87ZM527 -46C489 -47 471 -49 457 -52V25C535 21 575 20 709 20C810 20 862 21 961 26V-50C941 -47 921 -46 880 -46V-690C880 -728 880 -746 885 -775C824 -771 777 -769 705 -769C630 -769 567 -771 522 -775C526 -743 527 -720 527 -689ZM597 -240H806V-46H597ZM806 -473V-307H597V-473ZM597 -538V-704H806V-538ZM253 -351H156V-438H253ZM253 -582V-496H156V-582ZM156 -639V-712H253V-639ZM322 -639V-712C372 -711 426 -709 469 -706V-781C417 -777 352 -775 276 -775C194 -775 127 -778 84 -781C86 -757 87 -726 87 -688V-376C87 -337 85 -306 83 -285C109 -288 151 -289 216 -289H395C388 -151 384 -113 377 -84C365 -31 347 -17 264 -31C282 -1 289 19 295 64C400 43 423 23 438 -46C447 -86 454 -139 459 -283C460 -317 461 -338 465 -357C430 -353 378 -351 322 -351V-438C371 -437 419 -435 462 -432V-502C419 -498 375 -496 322 -496V-582C376 -581 415 -580 455 -576V-645C414 -641 369 -639 322 -639Z"/>
</svg>