<svg xmlns="http://www.w3.org/2000/svg" viewBox="0 -1000 1000 1000">
	<path fill="#000000" d="M124 -210L66 -213C63 -161 55 -114 38 -55L102 -54C111 -104 118 -153 124 -210ZM196 -74C195 -123 193 -168 189 -219L139 -216C143 -168 143 -115 138 -68ZM263 -85C261 -132 257 -174 251 -222L208 -217C217 -171 221 -130 220 -81ZM325 -89C326 -132 325 -180 319 -218L270 -215C279 -169 281 -131 278 -85ZM239 -328H149V-419H239ZM239 -562V-479H149V-562ZM149 -623V-709H239V-623ZM304 -623V-709C345 -709 375 -707 417 -703V-774C367 -769 334 -768 261 -768C182 -768 123 -770 79 -774C82 -708 84 -606 84 -519C84 -396 82 -310 78 -264C103 -267 132 -268 196 -268H356C358 -221 350 -119 341 -84C329 -35 305 -23 218 -29C235 -5 249 33 248 63C341 42 368 23 386 -20C400 -51 415 -157 419 -251C420 -286 422 -315 426 -334C389 -330 353 -328 304 -328V-418C337 -417 369 -416 401 -413V-484C369 -481 337 -479 304 -479V-561C339 -561 371 -559 405 -556V-628C371 -625 339 -623 304 -623ZM643 -457C634 -322 596 -218 535 -139C564 -132 589 -119 611 -103C645 -175 669 -239 686 -306C716 -240 739 -180 756 -129L832 -154C805 -216 752 -315 703 -395C706 -415 708 -435 710 -456C750 -455 778 -452 803 -447V-524C779 -520 753 -517 714 -516C718 -616 723 -638 728 -643C744 -657 742 -663 725 -662C701 -661 664 -664 639 -668C645 -614 647 -559 646 -516C602 -517 572 -519 545 -524V-447C571 -452 601 -455 643 -457ZM841 -65H522V-700H841ZM522 -2H841V65H925C916 22 912 -15 912 -60V-695C912 -734 914 -753 918 -770C878 -767 838 -766 683 -766C528 -766 492 -767 448 -770C452 -750 453 -730 453 -695V-52C453 -7 450 28 442 73H522Z"/>
</svg>