<svg xmlns="http://www.w3.org/2000/svg" viewBox="0 -1000 1000 1000">
	<path fill="#000000" d="M125 -223L71 -227C67 -173 57 -128 42 -69L103 -67C114 -120 121 -166 125 -223ZM192 -88C191 -137 189 -182 185 -233L139 -230C143 -182 143 -129 138 -82ZM258 -99C257 -146 254 -182 249 -230L202 -231C211 -185 214 -143 213 -95ZM323 -103C324 -151 323 -186 316 -232L266 -229C274 -183 276 -141 273 -99ZM240 -346H159V-436H240ZM240 -575V-492H159V-575ZM159 -632V-714H240V-632ZM306 -632V-714C355 -714 387 -713 433 -708V-779C382 -775 330 -773 256 -773C175 -773 131 -775 86 -779C89 -713 91 -617 91 -530C91 -407 89 -324 85 -278C111 -281 140 -282 206 -282H354C356 -235 348 -133 339 -98C326 -49 305 -36 218 -37C235 -15 242 9 242 49C337 28 368 9 386 -34C400 -65 418 -175 420 -269C421 -304 423 -333 426 -352C389 -348 354 -346 306 -346V-435C341 -435 375 -433 408 -430V-497C375 -494 341 -492 306 -492V-574C342 -574 377 -572 410 -569V-637C377 -634 342 -632 306 -632ZM719 -413V-578C785 -578 861 -575 895 -572V-650C861 -647 784 -644 719 -644V-737C719 -784 724 -798 735 -808C744 -818 740 -824 725 -822C700 -819 670 -820 635 -825C642 -790 645 -742 645 -644H545C551 -693 568 -731 579 -740C591 -747 589 -751 577 -752C543 -752 520 -758 491 -770C489 -666 477 -592 425 -481C459 -476 474 -470 498 -453C512 -496 524 -540 533 -578H645V-413C536 -414 486 -416 437 -420V-338C466 -342 502 -345 557 -346C555 -144 523 -83 365 8C398 23 416 39 439 69C572 -27 623 -104 627 -346H715V-62C715 32 732 49 835 49C924 49 951 20 975 -76C941 -80 913 -92 888 -115C887 -43 879 -25 839 -25C797 -25 788 -35 788 -64V-346C855 -346 899 -343 938 -338V-422C887 -415 827 -413 719 -413Z"/>
</svg>