<svg xmlns="http://www.w3.org/2000/svg" viewBox="0 -1000 1000 1000">
	<path fill="#000000" d="M819 -412H569V-506H819ZM819 -570H569V-666H819ZM130 -211L69 -213C67 -162 56 -101 42 -42L104 -33C117 -85 126 -152 130 -211ZM204 -60C205 -110 204 -162 201 -214L145 -210C148 -161 146 -106 142 -58ZM288 -80C285 -129 281 -167 274 -217L220 -216C227 -168 230 -122 228 -73ZM364 -94C358 -141 351 -182 342 -227L290 -221C300 -174 307 -129 308 -82ZM253 -336H168V-419H253ZM253 -560V-480H168V-560ZM168 -620V-702H253V-620ZM322 -620V-702C370 -702 420 -700 462 -696V-769C410 -764 352 -763 279 -763C197 -763 138 -764 94 -769C98 -733 99 -672 99 -517C99 -374 98 -312 93 -267C119 -270 148 -271 214 -271H381C379 -176 376 -120 365 -45C360 -15 348 -6 269 -15C294 12 307 35 311 71C402 56 420 36 429 -17C440 -82 447 -168 450 -264C451 -295 455 -323 460 -343C421 -338 382 -336 322 -336V-419C363 -419 402 -417 439 -413V-486C402 -482 363 -480 322 -480V-560C364 -560 405 -558 442 -554V-626C405 -622 364 -620 322 -620ZM666 -346H764C814 -346 861 -345 893 -343C891 -383 890 -415 890 -447V-636C890 -675 891 -706 892 -738C864 -734 804 -730 733 -729C725 -767 715 -807 706 -839L612 -824C631 -794 645 -763 656 -729C586 -730 523 -734 496 -738C497 -705 497 -676 497 -636V-57C497 -28 490 -14 455 2C474 27 484 45 497 80C518 59 532 48 562 31L684 -39C675 -60 671 -77 670 -106C633 -81 602 -63 569 -47V-346H601C626 -243 662 -171 707 -119C751 -69 822 -15 919 35C924 6 940 -31 968 -55C869 -88 803 -126 762 -169C881 -246 905 -259 921 -261C940 -263 941 -273 925 -284C904 -299 885 -316 868 -337C835 -301 805 -274 727 -214C705 -247 686 -286 666 -346Z"/>
</svg>