<svg xmlns="http://www.w3.org/2000/svg" viewBox="0 -1000 1000 1000">
	<path fill="#000000" d="M420 13C395 -21 369 -58 349 -93L260 -64C292 -29 308 -1 322 41ZM530 -449H751V-389H530ZM451 -389H233V-449H451ZM451 -505H233V-564H451ZM530 -564H751V-505H530ZM530 -330H710L676 -314C694 -304 711 -293 727 -281L530 -277ZM530 -745V-779C530 -809 533 -819 547 -825C560 -831 558 -842 546 -841C511 -839 472 -840 437 -844C447 -808 450 -789 451 -745C282 -745 171 -748 75 -755V-674C170 -681 282 -684 451 -684V-627C283 -627 212 -628 147 -631C154 -621 158 -592 158 -568V-388C158 -365 154 -336 147 -325C182 -328 226 -330 269 -330H451V-276C169 -270 142 -270 100 -274C113 -247 121 -220 124 -191C203 -206 327 -217 423 -219L659 -224V-162H276C183 -162 93 -166 58 -173V-95C92 -99 183 -101 276 -101H659V-30C659 -7 648 2 571 -5C593 27 602 50 603 84C725 57 738 46 738 6V-101C807 -101 908 -98 939 -94V-173C910 -166 824 -162 738 -162V-226L791 -227C807 -212 822 -195 838 -176L903 -224C858 -266 813 -300 770 -329C794 -329 817 -327 837 -325C831 -336 827 -365 827 -388V-568C827 -592 831 -621 837 -631C772 -628 702 -627 530 -627V-684C697 -684 808 -680 902 -674V-755C808 -749 697 -745 530 -745Z"/>
</svg>