<svg xmlns="http://www.w3.org/2000/svg" viewBox="0 -1000 1000 1000">
	<path fill="#000000" d="M131 -254L76 -259C70 -187 58 -124 40 -69L102 -66C114 -116 127 -196 131 -254ZM192 -82C193 -131 193 -200 192 -252L147 -251C146 -199 142 -130 138 -82ZM266 -91C266 -139 265 -205 262 -256L215 -253C218 -204 218 -136 216 -88ZM337 -96C339 -149 337 -210 334 -258L280 -257C287 -210 289 -138 288 -92ZM250 -352H160V-440H250ZM250 -573V-495H160V-573ZM160 -625V-711H250V-625ZM649 -391C645 -380 641 -369 637 -358C618 -408 594 -459 567 -509C579 -537 591 -553 599 -556C615 -563 614 -569 596 -573C574 -578 541 -589 520 -599C507 -505 474 -396 438 -332C460 -328 475 -319 490 -298C510 -338 522 -366 543 -440C558 -399 566 -366 575 -319L635 -353C574 -197 495 -100 390 -39C410 -81 412 -97 421 -275C423 -310 428 -339 433 -361C399 -356 365 -353 319 -352V-440C358 -439 397 -437 431 -434V-501C397 -498 358 -496 319 -495V-572C357 -572 393 -570 427 -567V-631C393 -628 357 -626 319 -625V-711C367 -711 405 -710 445 -708V-776C398 -772 357 -770 279 -770C172 -770 136 -771 90 -776C93 -744 94 -702 94 -535C94 -393 92 -334 89 -289C115 -292 147 -293 215 -293H355C357 -208 349 -132 337 -84C321 -26 287 -15 203 -38C229 -3 239 33 238 63C332 45 357 31 387 -32C420 -18 435 -3 450 28C554 -64 611 -142 649 -244V-114C649 -61 646 9 641 74H728C723 9 720 -61 720 -114V-281C754 -165 813 -74 899 15C913 -25 932 -50 961 -68C895 -99 815 -192 751 -354C764 -348 773 -341 783 -331C798 -367 806 -392 825 -457C840 -410 852 -363 863 -313L932 -343C908 -396 877 -460 846 -516C857 -536 868 -553 875 -557C890 -564 890 -572 871 -575C849 -578 820 -588 797 -602C793 -529 773 -449 739 -386C733 -405 726 -425 720 -446V-622C808 -621 871 -619 919 -614V-694C871 -689 808 -687 720 -686V-782C720 -794 722 -801 729 -809C747 -826 743 -836 724 -834C701 -832 670 -833 643 -836C647 -796 649 -760 649 -686C566 -687 508 -690 462 -694V-614C508 -618 566 -621 649 -622Z"/>
</svg>