<svg xmlns="http://www.w3.org/2000/svg" viewBox="0 -1000 1000 1000">
	<path fill="#000000" d="M567 -58V-197H796V-58ZM539 -542V-495C562 -499 599 -502 643 -502V-408C560 -409 512 -411 458 -417V-340C511 -344 557 -347 643 -348V-258C579 -259 525 -261 489 -265C494 -232 496 -197 496 -169V-24C496 6 493 50 488 79H567V1H796V63H879C874 34 871 -10 871 -40V-169C871 -197 873 -232 878 -265C846 -261 782 -258 716 -258V-348C812 -347 867 -345 924 -340V-417C874 -412 813 -409 716 -408V-502C758 -502 792 -499 817 -495V-556C848 -532 878 -515 912 -501C925 -540 944 -567 972 -583C914 -593 856 -620 812 -657C768 -693 738 -736 719 -779C723 -782 727 -784 732 -786C748 -793 746 -799 732 -801C710 -804 663 -819 638 -831C632 -799 614 -759 586 -713C532 -624 479 -570 411 -526C436 -515 456 -498 469 -472C490 -491 516 -516 539 -542ZM683 -739C698 -700 723 -655 747 -626C766 -602 786 -582 806 -565C776 -561 732 -559 680 -559C632 -559 589 -561 558 -564C606 -620 653 -685 683 -739ZM132 -239L79 -244C73 -172 63 -109 45 -54L105 -51C117 -101 128 -181 132 -239ZM191 -59C192 -108 192 -177 191 -229L148 -228C147 -176 143 -107 139 -59ZM261 -68C261 -116 260 -182 257 -233L212 -230C215 -181 215 -113 213 -65ZM328 -78C329 -132 328 -192 325 -240L278 -239C283 -192 285 -120 284 -74ZM239 -335H153V-422H239ZM239 -557V-475H153V-557ZM153 -610V-696H239V-610ZM308 -610V-696C360 -696 405 -695 445 -692V-763C400 -758 361 -755 285 -755C182 -755 127 -757 83 -761C86 -729 87 -687 87 -520C87 -378 85 -319 82 -274C108 -277 138 -278 204 -278H360C362 -193 354 -117 342 -69C328 -11 297 -3 214 -23C237 8 248 44 247 78C345 68 369 51 399 -23C416 -65 422 -110 430 -260C432 -295 435 -321 440 -344C405 -339 358 -336 308 -335V-421C349 -422 389 -420 424 -416V-481C389 -477 349 -475 308 -475V-557C347 -556 386 -554 421 -551V-616C386 -613 347 -611 308 -610Z"/>
</svg>