<svg xmlns="http://www.w3.org/2000/svg" viewBox="0 -1000 1000 1000">
	<path fill="#000000" d="M733 -535H831L809 -480L879 -460L922 -598C885 -594 816 -591 711 -590C709 -591 708 -593 706 -594C789 -669 857 -743 887 -787C855 -782 756 -780 660 -780C562 -780 484 -782 449 -787V-715C481 -719 513 -721 554 -721H754L662 -629C632 -654 597 -677 565 -696L510 -658C541 -643 582 -618 619 -590C502 -590 454 -592 414 -596V-531C457 -533 510 -535 596 -535C536 -450 481 -409 393 -374C425 -362 448 -344 461 -321C559 -392 614 -451 662 -535H665V-428C665 -401 648 -392 583 -402C603 -379 614 -355 615 -331C725 -344 733 -354 733 -403ZM576 -214C523 -124 468 -65 373 -12C402 0 422 18 437 43C535 -33 593 -115 631 -208V-12C631 14 628 43 623 72H702C700 45 699 14 699 -12V-214H706C738 -108 801 -32 913 34C920 7 935 -18 964 -47C873 -69 810 -126 760 -214C833 -214 913 -210 937 -206V-278C883 -272 801 -270 699 -270C700 -286 703 -292 710 -296C724 -304 720 -314 704 -313C685 -312 644 -314 624 -316C626 -304 628 -287 629 -270C541 -271 475 -274 425 -279V-207C444 -211 515 -214 576 -214ZM119 -219L69 -222C66 -172 59 -123 43 -64L99 -63C107 -113 113 -162 119 -219ZM180 -83C179 -132 177 -177 174 -228L131 -225C135 -177 135 -124 130 -77ZM242 -94C241 -141 239 -177 235 -225L190 -226C199 -180 202 -139 201 -90ZM306 -98C307 -141 306 -181 299 -227L249 -224C257 -178 259 -140 256 -94ZM229 -341H146V-433H229ZM229 -574V-490H146V-574ZM146 -632V-716H229V-632ZM292 -632V-716C334 -716 373 -714 412 -710V-781C364 -777 307 -775 238 -775C162 -775 121 -777 80 -781C82 -715 84 -615 84 -528C84 -405 82 -320 79 -274C103 -277 130 -278 191 -278H343C345 -231 336 -128 328 -93C315 -40 295 -31 212 -32C228 -10 234 11 234 54C322 33 358 14 375 -29C388 -60 405 -170 407 -264C408 -299 410 -329 413 -347C380 -343 338 -341 292 -341V-432C326 -432 360 -430 390 -427V-495C360 -492 328 -490 292 -490V-573C328 -573 362 -571 394 -568V-637C362 -634 330 -632 292 -632Z"/>
</svg>