<svg xmlns="http://www.w3.org/2000/svg" viewBox="0 -1000 1000 1000">
	<path fill="#000000" d="M798 -508H559V-592H798ZM874 -798C837 -792 795 -790 680 -790C559 -790 523 -792 484 -798C487 -784 491 -735 491 -709V-531C491 -505 487 -460 484 -441C523 -446 559 -448 680 -448C788 -448 835 -446 874 -441C871 -458 868 -505 868 -531V-709C868 -735 871 -779 874 -798ZM798 -649H559V-729H798ZM719 -221V-319C826 -319 876 -316 938 -311V-390C870 -384 816 -382 686 -382C558 -382 503 -384 435 -390V-311C494 -316 545 -318 646 -319V-49C600 -69 568 -101 537 -161C556 -218 562 -228 571 -237C581 -246 580 -252 567 -250C547 -247 520 -253 488 -268C475 -134 447 -64 364 36C400 43 414 50 435 66C460 31 488 -21 512 -86C550 -28 606 17 679 32C761 49 806 53 937 53C937 21 941 1 962 -31C900 -18 802 -19 719 -29V-162C823 -162 865 -159 893 -154V-229C865 -224 822 -221 719 -221ZM130 -264L77 -269C71 -197 61 -134 43 -79L103 -76C115 -126 126 -206 130 -264ZM189 -92C190 -141 190 -210 189 -262L146 -261C145 -209 141 -140 137 -92ZM253 -101C253 -149 252 -215 249 -266L204 -263C207 -214 207 -146 205 -98ZM317 -106C319 -159 317 -220 314 -268L267 -267C272 -220 274 -148 273 -102ZM243 -362H153V-450H243ZM243 -583V-502H153V-583ZM153 -635V-721H243V-635ZM310 -635V-721C362 -721 396 -720 438 -718V-786C393 -781 350 -780 274 -780C171 -780 127 -781 83 -786C86 -754 87 -712 87 -545C87 -403 85 -344 82 -299C108 -302 138 -303 204 -303H348C350 -218 342 -142 330 -94C316 -36 282 -25 202 -48C226 -17 236 23 235 53C328 35 354 14 381 -48C400 -91 404 -123 412 -285C414 -320 418 -349 422 -371C389 -366 354 -363 310 -362V-449C348 -449 386 -447 420 -444V-508C386 -505 348 -503 310 -502V-583C347 -582 384 -580 417 -577V-641C384 -638 347 -636 310 -635Z"/>
</svg>