<svg xmlns="http://www.w3.org/2000/svg" viewBox="0 -1000 1000 1000">
	<path fill="#000000" d="M128 -254L75 -259C69 -187 59 -124 41 -69L101 -66C113 -116 124 -196 128 -254ZM187 -82C188 -131 188 -200 187 -252L144 -251C143 -199 139 -130 135 -82ZM249 -91C249 -139 248 -205 245 -256L200 -253C203 -204 203 -136 201 -88ZM313 -96C315 -149 313 -210 310 -258L263 -257C268 -210 270 -138 269 -92ZM243 -352H159V-440H243ZM243 -573V-492H159V-573ZM159 -625V-711H243V-625ZM310 -626V-711C359 -711 391 -710 432 -708V-776C387 -771 351 -770 275 -770C172 -770 133 -771 89 -776C92 -744 93 -702 93 -535C93 -393 91 -334 88 -289C114 -292 144 -293 210 -293H344C346 -208 338 -132 326 -84C312 -26 278 -15 198 -38C222 -7 232 33 231 63C324 45 350 24 377 -38C396 -81 400 -113 408 -275C410 -310 413 -339 418 -361C386 -356 355 -353 310 -352V-439C347 -439 383 -437 416 -434V-498C383 -495 347 -493 310 -492V-572C346 -572 381 -570 413 -567V-631C381 -628 346 -626 310 -626ZM657 -679V-606C589 -607 553 -609 496 -614V-540C555 -545 589 -547 657 -548V-474C577 -475 530 -477 454 -482V-407C527 -411 587 -414 655 -415C653 -392 651 -375 648 -360H735C733 -375 731 -392 730 -414C792 -414 843 -412 913 -407V-482C841 -477 800 -475 728 -474V-548C791 -547 826 -545 887 -540V-614C826 -608 792 -607 728 -606V-679C813 -678 848 -676 923 -671V-748C848 -741 813 -740 728 -740C728 -784 733 -802 738 -807C754 -821 747 -827 732 -827C707 -827 677 -829 650 -834C653 -820 655 -787 656 -740C576 -741 541 -742 466 -748V-671C540 -676 576 -678 657 -679ZM825 -39H597V-148H825ZM532 -117V-16C532 11 529 45 525 73H597V18H825V62H899C896 30 894 0 894 -24V-157C894 -197 895 -208 900 -219C875 -214 817 -208 765 -208H606C621 -229 636 -252 651 -278C666 -278 683 -278 700 -278C793 -278 845 -275 947 -270V-347C845 -341 805 -339 700 -339C580 -339 540 -341 442 -347V-270C496 -273 538 -275 581 -276C526 -200 467 -152 404 -117C426 -96 440 -76 453 -45C483 -69 508 -92 532 -117Z"/>
</svg>