<svg xmlns="http://www.w3.org/2000/svg" viewBox="0 -1000 1000 1000">
	<path fill="#000000" d="M598 -387C576 -405 552 -425 523 -449L474 -393C520 -358 555 -328 586 -298C561 -145 507 -71 403 9C430 29 445 43 462 72C566 -26 618 -101 646 -233C659 -217 672 -200 685 -181L743 -243C715 -274 689 -302 661 -329C669 -399 675 -464 678 -550L782 -554C779 -497 776 -374 776 -311C776 -77 784 -14 848 60C883 100 946 84 984 -60C957 -63 938 -82 917 -120C903 -10 886 -3 878 -18C849 -71 843 -121 852 -359C857 -498 862 -575 877 -637C816 -628 768 -624 680 -620C680 -651 680 -685 680 -722C680 -784 683 -801 693 -807C708 -816 702 -829 686 -828C658 -826 627 -828 591 -834C597 -796 602 -750 603 -713C604 -677 605 -646 605 -618C530 -616 492 -617 467 -620L471 -531C513 -541 550 -546 605 -548C605 -479 603 -434 598 -387ZM195 -118H337V-69C337 -40 326 -25 260 -39C282 -15 292 6 295 36C376 32 405 10 405 -50V-413C382 -409 347 -407 266 -407C186 -407 151 -409 127 -413V-62C127 -23 125 7 120 49H195ZM337 -234V-172H195V-234ZM195 -288V-354H337V-288ZM182 -617H237V-528H182ZM348 -528H297V-667H182V-731H348ZM116 -529C93 -530 74 -532 54 -534V-407H118V-475H391V-415H456V-534C445 -532 430 -530 410 -529V-701C410 -745 412 -775 416 -800C385 -794 349 -792 267 -792C186 -792 142 -795 109 -800C114 -775 116 -747 116 -701Z"/>
</svg>