<svg xmlns="http://www.w3.org/2000/svg" viewBox="0 -1000 1000 1000">
	<path fill="#000000" d="M177 -518V-616H247V-518ZM303 -518V-667H177V-731H369V-518ZM349 -278H184V-349H349ZM184 -228H349V-161H184ZM420 -404C393 -401 350 -400 265 -400C179 -400 145 -401 116 -404C118 -373 118 -347 118 -265V-76C118 -21 116 27 112 58H184V-110H349V-49C349 -21 343 -17 275 -29C288 -4 291 30 287 58C408 37 417 30 417 -49V-266C417 -341 418 -370 420 -397H485V-522C473 -520 455 -519 429 -518V-680C429 -726 430 -771 432 -794C400 -790 371 -789 281 -789C187 -789 153 -790 114 -794C116 -769 117 -727 117 -680V-518C91 -519 68 -520 49 -522V-391H114V-469H420ZM683 -553H588V-672H688C689 -633 687 -593 683 -553ZM750 -672H840V-553H743C748 -592 750 -632 750 -672ZM736 -501H840V-379H707C719 -418 729 -459 736 -501ZM646 -379H588V-501H676C669 -460 659 -419 646 -379ZM732 -183H614C643 -224 668 -272 689 -326H732ZM804 -122C874 -121 917 -119 950 -116V-188C918 -184 874 -183 804 -183V-326C850 -326 876 -325 911 -321C908 -333 906 -365 906 -391V-664C906 -690 908 -721 911 -733C873 -730 844 -729 788 -729H694C721 -780 735 -797 747 -804C759 -811 757 -819 743 -819C729 -819 684 -826 647 -835C648 -808 644 -777 633 -729C584 -729 556 -730 520 -733C523 -719 522 -690 522 -664V-391C522 -365 521 -332 520 -321C559 -325 577 -326 626 -326C606 -276 580 -227 547 -183C505 -184 473 -185 447 -188V-116C483 -119 536 -122 612 -122H732V-63C732 0 730 53 726 73H810C807 53 804 -1 804 -63Z"/>
</svg>