<svg xmlns="http://www.w3.org/2000/svg" viewBox="0 -1000 1000 1000">
	<path fill="#000000" d="M577 -793C592 -803 590 -819 571 -818C537 -816 489 -815 458 -819C463 -791 466 -734 466 -658V-88C466 -52 455 -41 340 -46C365 -8 375 23 380 56C543 35 556 22 556 -62V-726C556 -762 559 -783 577 -793ZM955 -224C899 -344 823 -478 760 -575L680 -541C746 -441 817 -301 860 -182ZM326 -524C351 -538 349 -550 323 -553C300 -556 262 -565 227 -578C205 -443 148 -309 69 -199C103 -194 130 -185 158 -171C209 -245 261 -362 294 -463C306 -499 316 -518 326 -524Z"/>
</svg>