<svg xmlns="http://www.w3.org/2000/svg" viewBox="0 -1000 1000 1000">
	<path fill="#000000" d="M555 -78C522 -116 474 -163 432 -196L382 -156C426 -114 468 -67 494 -31ZM880 -431C894 -435 892 -441 871 -442C843 -442 811 -444 784 -448C789 -432 792 -397 792 -352V-45C792 -9 787 -1 669 -4C689 22 694 35 699 72C862 62 869 46 869 -23V-414C869 -423 871 -426 880 -431ZM699 -347C714 -352 711 -358 694 -357C672 -357 644 -359 613 -363C616 -348 617 -328 617 -298V-158C617 -135 616 -112 613 -83H694C690 -109 690 -123 690 -158V-330C690 -336 693 -343 699 -347ZM300 -345V-276C167 -276 115 -277 68 -281V-214C106 -216 176 -218 249 -219C202 -143 141 -87 57 -40C93 -23 107 -10 128 19C197 -41 259 -120 300 -196V-38C300 -10 298 29 292 66H379C373 29 372 -10 372 -38V-219C449 -218 527 -216 566 -214L567 -281C528 -277 449 -276 372 -276V-351C443 -356 497 -357 535 -352C553 -350 556 -359 540 -368C533 -372 509 -406 496 -426C447 -415 348 -402 295 -400C252 -398 161 -400 98 -403C111 -383 121 -360 125 -339C178 -339 239 -341 300 -345ZM932 -544C920 -551 907 -563 888 -588C769 -534 697 -509 553 -488C586 -465 592 -455 599 -433C705 -456 788 -479 836 -498C874 -513 902 -518 922 -518C949 -518 957 -531 932 -544ZM450 -539L415 -520C425 -513 434 -506 442 -499L226 -489C269 -509 291 -521 317 -539ZM889 -659C882 -663 863 -680 846 -703C738 -638 699 -625 569 -596C596 -576 606 -565 614 -548C712 -574 784 -600 823 -618C844 -629 863 -634 884 -637C906 -640 910 -648 889 -659ZM235 -730V-766H419C484 -766 517 -765 553 -763V-814C494 -811 430 -809 358 -809C285 -809 222 -811 164 -816C166 -778 166 -756 166 -701V-583C134 -584 105 -585 72 -588V-534C115 -537 148 -539 195 -539H230C181 -504 133 -483 93 -477C105 -459 108 -451 111 -421C143 -432 173 -438 210 -441L481 -460C488 -451 495 -441 502 -430L556 -464C534 -492 510 -517 481 -538C506 -537 529 -536 554 -534V-588C511 -585 475 -583 429 -583H235V-610H384C443 -610 483 -609 523 -608V-655C479 -652 441 -651 384 -651H235V-688H384C441 -688 479 -688 521 -687V-734C478 -731 439 -730 384 -730ZM865 -788C847 -800 835 -812 818 -833C752 -785 667 -741 536 -705C560 -687 571 -672 575 -654C632 -671 668 -685 784 -737C823 -755 846 -764 857 -764C887 -764 886 -774 865 -788Z"/>
</svg>