<svg xmlns="http://www.w3.org/2000/svg" viewBox="0 -1000 1000 1000">
	<path fill="#000000" d="M920 -562C906 -568 892 -581 875 -605C759 -548 686 -521 549 -498C574 -479 582 -466 587 -444C694 -470 738 -483 824 -513C871 -529 890 -534 910 -534C942 -534 945 -550 920 -562ZM413 -534L388 -514C397 -506 405 -497 413 -488L243 -474C266 -495 278 -507 302 -534ZM876 -667C870 -671 848 -693 833 -714C740 -656 668 -626 540 -598C560 -581 571 -566 578 -548C674 -574 771 -607 810 -627C831 -637 854 -645 871 -647C885 -649 888 -659 876 -667ZM853 -792C837 -803 820 -818 804 -836C746 -786 656 -736 530 -698C549 -685 561 -667 564 -652C623 -667 660 -681 771 -740C809 -759 834 -767 845 -767C871 -767 871 -780 853 -792ZM522 -198V-42C522 -7 515 0 399 -9C422 20 434 50 440 78C583 69 598 53 598 -8V-198H819L781 -115L871 -104L919 -262C836 -258 761 -256 581 -256L854 -413C754 -408 691 -406 487 -406L532 -437C515 -460 476 -505 445 -534C480 -535 511 -534 539 -532V-588C500 -584 463 -582 417 -582H220V-612H372C431 -612 470 -612 508 -611V-655C468 -652 429 -651 372 -651H221V-681H372C429 -681 469 -680 506 -678V-725C467 -723 427 -721 372 -721H222V-748H407C472 -748 506 -748 538 -748V-797C483 -794 418 -792 346 -792C273 -792 208 -794 154 -798C156 -762 156 -735 156 -676V-582C123 -583 93 -585 62 -588V-532C101 -534 136 -534 183 -534H231C206 -503 150 -474 113 -466C122 -453 128 -435 130 -409C151 -419 173 -424 224 -429L445 -450C456 -435 466 -420 475 -406C341 -407 273 -410 207 -413V-346C278 -351 352 -352 445 -352H633L513 -280C477 -301 450 -317 406 -342L343 -303C382 -285 409 -272 438 -256C260 -256 179 -258 102 -262V-190C177 -195 262 -197 411 -198C334 -125 193 -49 68 -19C98 -1 123 28 137 54C323 -35 428 -115 503 -198Z"/>
</svg>