<svg xmlns="http://www.w3.org/2000/svg" viewBox="0 -1000 1000 1000">
	<path fill="#000000" d="M946 -545C920 -558 904 -571 889 -593C811 -540 710 -503 547 -478C567 -464 580 -450 593 -429C682 -449 751 -469 851 -504C905 -523 922 -528 938 -528C958 -529 962 -536 946 -545ZM905 -663C883 -671 863 -687 846 -709C767 -661 692 -633 569 -610C597 -596 609 -583 619 -561C696 -581 735 -596 818 -631C848 -644 880 -651 901 -648C916 -646 918 -658 905 -663ZM874 -783C851 -794 836 -804 808 -830C715 -771 673 -756 556 -730C575 -721 594 -703 604 -684C659 -700 695 -712 786 -750C824 -766 847 -769 865 -767C886 -765 890 -774 874 -783ZM408 -486L217 -463C244 -480 266 -498 293 -526H420L379 -508C389 -501 399 -494 408 -486ZM247 -207V-256H773V-207ZM247 -104V-153H773V-104ZM656 -310H542V-371C542 -384 547 -397 560 -407C574 -417 570 -425 554 -425C526 -425 501 -428 475 -433L519 -459C491 -488 466 -511 445 -526C492 -526 536 -524 575 -521V-576C536 -574 493 -573 448 -573H209V-602H360C432 -602 471 -601 512 -599V-651C470 -647 427 -646 360 -646H209V-680H360C427 -680 472 -679 512 -675V-727C471 -724 425 -722 360 -722H209V-752H431C477 -752 521 -751 562 -749V-808C507 -805 430 -804 358 -804C285 -804 189 -805 135 -808C138 -787 139 -768 139 -721V-573C110 -574 81 -575 55 -576V-521C90 -524 139 -526 213 -526C169 -481 133 -462 83 -454C97 -434 104 -418 107 -395C128 -404 175 -414 229 -421L445 -449C451 -443 456 -437 460 -430C463 -409 465 -385 465 -359V-310C465 -310 352 -310 350 -310L384 -333C342 -363 304 -387 262 -411L209 -376C239 -357 275 -332 302 -311C224 -312 197 -313 168 -317C172 -289 174 -247 174 -197V-27C174 17 172 45 167 76H247V-50H773V-32C773 -5 758 5 658 -2C676 25 684 45 691 79C827 69 848 41 848 -16V-197C848 -249 852 -295 858 -317C812 -314 755 -312 692 -311C738 -346 773 -365 808 -379C823 -385 819 -392 808 -395C786 -402 768 -413 743 -433C722 -400 697 -381 615 -339C634 -329 645 -321 656 -310Z"/>
</svg>