<svg xmlns="http://www.w3.org/2000/svg" viewBox="0 -1000 1000 1000">
	<path fill="#000000" d="M948 -562C935 -569 920 -583 902 -605C783 -551 696 -522 551 -498C576 -480 585 -467 591 -445C696 -468 774 -491 847 -521C888 -538 917 -543 940 -541C961 -539 967 -550 948 -562ZM894 -673C887 -677 866 -697 849 -719C748 -664 672 -632 543 -600C564 -587 576 -573 583 -554C684 -580 778 -615 824 -639C847 -651 867 -656 890 -656C906 -656 909 -665 894 -673ZM869 -796C852 -806 834 -821 819 -839C753 -793 663 -746 530 -708C546 -695 561 -676 566 -662C632 -681 672 -697 783 -750C827 -771 845 -777 862 -777C884 -777 884 -785 869 -796ZM602 -128H814V-45C814 -21 797 -9 689 -18C712 4 728 39 728 68C850 52 883 35 883 -9V-334C883 -375 885 -406 890 -430C842 -427 783 -425 719 -425C646 -425 577 -426 526 -430C533 -405 535 -375 535 -334V-234C535 -76 526 -24 451 45C486 53 507 62 529 79C570 32 596 -48 602 -128ZM814 -302H604V-367H814ZM604 -247H814V-182H604ZM385 -296H207V-360H385ZM385 -181H207V-243H385ZM205 -129H385V-59C385 -32 368 -24 275 -35C296 -11 305 20 308 48C414 40 453 17 453 -24V-322C453 -349 458 -398 461 -419C415 -415 354 -414 295 -414C234 -414 174 -417 136 -421C140 -395 142 -354 142 -311V-216C142 -88 117 -34 50 33C77 44 94 53 117 74C176 6 199 -63 205 -129ZM417 -548L374 -519C384 -512 392 -506 399 -499L235 -494C260 -511 282 -531 298 -548ZM429 -548C469 -548 505 -547 540 -544V-598C498 -595 460 -593 412 -593H199V-618H361C423 -618 465 -618 504 -616V-664C460 -661 421 -660 361 -660H199V-684H361C421 -684 461 -684 502 -682V-732C460 -729 419 -728 361 -728H199V-758H398C467 -758 502 -757 536 -755V-810C477 -807 410 -805 333 -805C256 -805 189 -807 132 -811C134 -776 134 -745 134 -686V-593C102 -594 74 -595 44 -598V-544C85 -547 120 -548 170 -548H223C186 -506 144 -488 101 -485C112 -470 115 -458 117 -436C148 -442 179 -446 225 -449L442 -461C454 -450 465 -439 477 -426L524 -467C496 -495 464 -523 429 -548Z"/>
</svg>