<svg xmlns="http://www.w3.org/2000/svg" viewBox="0 -1000 1000 1000">
	<path fill="#000000" d="M849 -678C806 -717 757 -755 715 -784L656 -728C700 -697 746 -654 780 -616ZM634 -512C762 -511 854 -508 923 -503V-601C831 -594 732 -591 496 -591C502 -660 508 -707 517 -766C522 -795 526 -805 538 -811C554 -819 552 -827 535 -826C502 -823 469 -825 418 -835C420 -758 418 -698 410 -591C261 -592 193 -595 110 -601V-503C191 -509 266 -512 401 -513C359 -270 252 -124 60 -17C94 1 124 27 143 53C336 -79 444 -249 487 -513C508 -513 528 -513 547 -513V-67C547 39 557 50 701 50C878 50 884 46 934 -109C901 -114 867 -131 838 -165C821 -53 807 -36 704 -36C637 -36 634 -38 634 -101Z"/>
</svg>