<svg xmlns="http://www.w3.org/2000/svg" viewBox="0 -1000 1000 1000">
	<path fill="#000000" d="M408 -318H243V-347H408ZM761 -318H593V-347H761ZM933 -575C921 -582 907 -595 890 -618C773 -563 703 -539 566 -517C591 -500 599 -489 604 -467C716 -493 790 -515 838 -534C876 -550 905 -555 925 -555C945 -555 951 -564 933 -575ZM890 -676C879 -683 863 -700 848 -721C750 -665 682 -636 557 -611C577 -597 588 -584 595 -566C690 -591 785 -623 824 -641C846 -652 865 -657 886 -660C901 -662 904 -668 890 -676ZM866 -794C850 -805 835 -821 819 -842C757 -797 683 -758 547 -715C565 -701 577 -683 581 -663C634 -680 670 -695 785 -748C829 -769 849 -776 860 -776C881 -776 881 -784 866 -794ZM431 -534L267 -522C291 -538 303 -548 318 -564H421L404 -555C414 -548 423 -541 431 -534ZM737 -85C721 -71 699 -55 664 -37C637 -49 612 -65 588 -85ZM587 -151V-128H392V-151ZM320 -218V-192C257 -192 191 -196 153 -200V-146C190 -149 263 -150 320 -151V-128C218 -128 143 -131 97 -134V-80C142 -83 246 -85 351 -85C274 -53 151 -24 40 -16C64 6 81 30 87 49C180 31 252 11 315 -16V11C315 20 307 28 287 33C300 49 306 62 313 82C327 74 350 67 377 61L515 28C512 15 511 -3 514 -29C468 -14 414 0 381 6V-47C402 -58 423 -71 444 -85H517C598 12 708 60 914 68C925 36 944 6 963 -7C864 1 791 0 732 -14C775 -38 798 -45 820 -47C830 -48 830 -56 822 -59C806 -64 791 -72 775 -84C841 -84 885 -83 906 -80V-134C866 -130 796 -128 658 -128V-151C719 -151 804 -149 841 -146V-200C804 -195 719 -192 658 -192V-218C727 -218 831 -217 877 -214V-265C833 -261 730 -258 658 -258V-287C664 -287 671 -287 678 -287C750 -287 793 -286 827 -284C825 -300 825 -316 825 -337C825 -352 825 -371 827 -386C789 -383 750 -382 678 -382C609 -382 564 -383 528 -386C531 -370 532 -353 532 -338C532 -317 531 -301 528 -285C544 -286 564 -287 587 -287V-258H392V-285C422 -285 445 -284 466 -283C463 -299 465 -317 465 -337C465 -353 464 -370 466 -387C433 -384 393 -382 323 -382C255 -382 211 -384 175 -387C179 -369 180 -353 180 -337C180 -317 178 -300 175 -284C209 -285 254 -285 320 -285V-258C254 -259 165 -262 125 -265V-214C165 -216 254 -218 320 -218ZM587 -218V-192H392V-218ZM478 -450C312 -450 169 -452 75 -456V-398C181 -402 311 -404 507 -404C702 -404 830 -403 935 -398V-456C851 -452 707 -450 555 -450C551 -467 548 -482 546 -498L506 -491L523 -507C505 -525 483 -545 462 -564C494 -563 524 -561 553 -559V-610C514 -607 478 -605 432 -605H234V-634H387C446 -634 484 -634 522 -632V-672C482 -669 444 -668 387 -668H234V-699H387C444 -699 482 -699 520 -697V-737C481 -734 442 -733 387 -733H234V-762H422C487 -762 520 -761 552 -759V-814C497 -811 433 -809 361 -809C288 -809 225 -811 171 -815C173 -781 173 -758 173 -701V-605C139 -606 110 -608 79 -610V-559C118 -562 151 -564 198 -564H247C215 -535 179 -518 142 -511C152 -493 156 -480 157 -462C180 -473 207 -479 251 -483L463 -500C467 -495 470 -490 473 -485L466 -484C471 -473 474 -461 478 -450Z"/>
</svg>