<svg xmlns="http://www.w3.org/2000/svg" viewBox="0 -1000 1000 1000">
	<path fill="#000000" d="M311 -655H403V-566H314C314 -596 313 -626 311 -655ZM251 -566H154V-655H251C252 -628 252 -597 251 -566ZM314 -503H403V-416H309C311 -443 313 -473 314 -503ZM245 -416H154V-503H250C249 -472 247 -442 245 -416ZM807 -704C797 -740 787 -776 779 -807L706 -792C721 -757 730 -725 735 -682ZM728 -282V-182H624V-282ZM624 -341V-435H728V-341ZM612 -661C637 -715 663 -758 671 -763C699 -782 694 -793 671 -796C649 -799 627 -809 605 -831C595 -778 582 -741 548 -657C524 -599 500 -559 468 -521V-622C468 -668 470 -692 473 -720C444 -716 391 -714 343 -714H272C291 -760 300 -778 312 -785C334 -798 331 -812 309 -812C285 -812 254 -817 226 -828C227 -793 219 -754 206 -714C161 -714 112 -716 82 -720C85 -691 88 -669 88 -622V-362C88 -329 86 -289 83 -263H154V-353H238C212 -175 153 -69 36 23C66 36 83 47 102 66C185 -11 243 -104 278 -234V-10C278 51 291 63 593 63C899 63 941 50 972 -65C944 -66 914 -77 889 -101C877 -15 856 -3 596 -3C352 -3 344 -11 344 -45V-119C352 -105 358 -90 363 -71C381 -78 408 -85 476 -100C478 -90 480 -81 482 -72L533 -86C524 -124 507 -180 490 -222L443 -209C450 -191 457 -170 463 -149L403 -137C412 -161 420 -181 444 -242C452 -262 458 -274 467 -282C478 -292 478 -296 465 -296C441 -296 427 -299 404 -308C397 -262 363 -157 344 -128V-211C344 -237 349 -256 355 -266C363 -280 361 -282 350 -281C338 -279 308 -280 290 -282C295 -305 299 -328 302 -353H403V-323H475C471 -358 468 -406 468 -451V-506C483 -494 497 -479 506 -461C525 -490 543 -520 559 -549V-299C559 -212 556 -112 553 -43H624V-122H752C863 -122 904 -119 933 -114V-190C910 -185 883 -183 795 -182V-282C860 -281 885 -279 907 -276V-350C885 -345 863 -343 795 -341V-434C858 -434 885 -432 908 -427V-500C886 -496 862 -494 795 -494V-602C862 -601 899 -599 922 -595V-669C895 -665 838 -661 740 -661ZM728 -602V-494H624V-602Z"/>
</svg>