<svg xmlns="http://www.w3.org/2000/svg" viewBox="0 -1000 1000 1000">
	<path fill="#000000" d="M434 -162L376 -150C393 -199 400 -218 411 -253C419 -279 430 -291 437 -297C455 -311 453 -314 435 -316C423 -317 402 -323 374 -337C376 -308 373 -286 340 -180C334 -160 326 -147 320 -144C332 -130 342 -112 347 -89C362 -103 374 -109 398 -114L440 -124C441 -112 443 -100 444 -86L492 -100C486 -135 475 -184 462 -230L415 -221C424 -203 430 -184 434 -162ZM238 -554H154V-652H240C239 -615 239 -583 238 -554ZM295 -652H378V-554H294C295 -584 295 -616 295 -652ZM292 -502H378V-400H285C288 -433 291 -466 292 -502ZM229 -400H154V-502H236C234 -462 232 -430 229 -400ZM256 -237V-42C256 27 279 41 346 41C502 41 590 40 706 39C890 38 907 32 952 -41C923 -45 907 -54 892 -77C870 -29 859 -26 709 -21C593 -17 493 -15 383 -15C335 -15 312 -29 312 -53V-194C312 -224 321 -262 330 -275C339 -289 336 -293 319 -289C308 -286 292 -286 269 -290C274 -310 277 -329 280 -348H441C438 -379 438 -399 438 -446V-610C438 -667 438 -680 440 -710C413 -706 377 -704 331 -704H264C298 -765 311 -777 321 -781C336 -787 335 -799 318 -799C293 -799 259 -806 231 -818C225 -776 217 -746 199 -704C157 -704 118 -706 92 -710C95 -679 96 -659 96 -610V-374C96 -341 95 -313 92 -285H154V-348H223C204 -213 141 -83 40 -7C73 7 90 20 105 41C171 -30 225 -133 256 -237ZM667 -572C641 -550 611 -532 573 -512C600 -503 616 -495 625 -480C654 -501 684 -525 707 -544C731 -525 752 -506 771 -487L804 -526C782 -543 761 -559 740 -574C783 -613 791 -620 804 -624C821 -629 820 -634 808 -638C795 -642 776 -653 755 -670C736 -644 719 -622 700 -602C676 -619 651 -636 625 -652L593 -617C619 -603 644 -588 667 -572ZM661 -418C655 -394 649 -373 644 -354C592 -354 555 -356 496 -360C499 -340 500 -320 500 -287V-141C500 -109 499 -84 496 -54H557V-305H631C608 -224 597 -209 573 -200C586 -179 593 -165 599 -145C625 -155 650 -161 673 -164L751 -175C753 -167 755 -158 756 -150L813 -165C798 -205 786 -235 767 -273L717 -256C726 -243 733 -229 739 -213L653 -205C665 -238 676 -270 686 -305H837V-154C837 -133 822 -116 757 -126C778 -104 783 -94 784 -67C877 -74 894 -94 894 -128V-287C894 -320 895 -340 897 -361C821 -356 772 -354 701 -354C707 -375 714 -396 720 -418C799 -417 845 -416 887 -414C887 -580 887 -600 892 -609C903 -623 901 -626 891 -625C875 -623 845 -625 826 -627C829 -619 830 -611 830 -576V-467H561C561 -549 565 -597 569 -605C577 -622 577 -622 566 -622C556 -620 517 -621 501 -622C504 -613 505 -599 505 -573V-472C505 -445 503 -426 501 -414C537 -415 585 -417 661 -418ZM661 -726C582 -726 527 -728 480 -733V-668C535 -673 601 -677 702 -677C803 -677 870 -674 926 -669V-734C878 -729 823 -726 745 -726C739 -758 731 -793 722 -824L639 -814C648 -786 655 -756 661 -726Z"/>
</svg>