<svg xmlns="http://www.w3.org/2000/svg" viewBox="0 -1000 1000 1000">
	<path fill="#000000" d="M243 -234H167V-329H243ZM377 -234H301V-329H377ZM243 -389H167V-486H243ZM377 -389H301V-486H377ZM749 -685C719 -728 681 -778 640 -828L579 -780C613 -748 660 -681 684 -635ZM156 -120L90 -135C84 -72 72 -24 53 30L126 45C134 -12 142 -60 156 -120ZM249 21C248 -32 246 -74 242 -123L181 -118C187 -73 188 -28 184 24ZM359 4C354 -46 349 -78 339 -127L283 -122C292 -68 295 -35 295 11ZM465 -26C456 -71 449 -100 437 -142L377 -133C389 -81 392 -58 398 -12ZM194 -644H316L262 -546H126C151 -582 175 -615 194 -644ZM106 -519V-251C106 -220 104 -189 102 -168C145 -171 181 -172 273 -172C365 -172 401 -171 442 -168C440 -192 439 -220 439 -250V-468C439 -496 439 -522 442 -549C412 -547 371 -546 333 -546L432 -712C413 -709 380 -706 345 -706H234C257 -739 278 -763 294 -774C307 -783 304 -794 289 -797C268 -801 246 -812 214 -836C177 -730 106 -623 30 -547C49 -525 64 -503 74 -475C85 -490 96 -504 106 -519ZM821 -433C855 -363 870 -323 888 -227L962 -250C946 -320 925 -388 892 -462ZM548 -467L478 -474C482 -393 472 -305 455 -231L526 -224C534 -300 542 -381 548 -467ZM665 -76C699 -115 727 -159 754 -218C791 -299 826 -445 855 -660C861 -701 865 -715 880 -726C893 -737 893 -747 881 -748C855 -751 829 -757 790 -769C780 -523 732 -296 665 -195V-570C665 -584 668 -597 677 -605C685 -613 684 -622 674 -621C650 -619 625 -620 589 -626C594 -597 598 -542 598 -477V-108C544 -51 485 -17 418 9C441 23 464 45 486 72C531 41 568 13 600 -13C607 35 631 45 683 46C718 47 782 47 807 46C882 43 901 20 924 -84C886 -88 862 -96 838 -114C833 -38 819 -27 753 -27C678 -27 665 -34 665 -76Z"/>
</svg>