<svg xmlns="http://www.w3.org/2000/svg" viewBox="0 -1000 1000 1000">
	<path fill="#000000" d="M223 -263H155V-355H223ZM352 -263H287V-355H352ZM223 -415H155V-504H223ZM352 -415H287V-504H352ZM146 -142L85 -152C78 -97 66 -38 50 16L119 28C129 -25 139 -88 146 -142ZM239 -7C236 -58 231 -99 223 -144L164 -138C169 -97 171 -50 171 -2ZM347 -26C339 -73 329 -117 317 -156L260 -146C272 -102 277 -66 280 -14ZM450 -42C438 -88 429 -122 416 -162L358 -155C370 -110 376 -79 384 -30ZM181 -663H298L232 -563H105C134 -596 160 -631 181 -663ZM93 -548V-270C93 -244 92 -218 90 -200C130 -202 169 -203 256 -203C342 -203 380 -202 419 -200C417 -219 416 -244 416 -269V-497C416 -521 418 -544 419 -566C387 -564 368 -563 313 -563L417 -730C401 -727 376 -726 331 -726H221C249 -768 264 -782 284 -792C306 -803 306 -812 282 -816C255 -821 230 -830 202 -841C172 -766 124 -688 32 -585C61 -564 69 -555 80 -534C84 -539 89 -544 93 -548ZM900 -722C881 -752 855 -797 840 -825L762 -794C788 -768 810 -725 821 -694ZM648 -380H538V-471H648ZM720 -471H836V-380H720ZM720 -317H836V-230H720ZM648 -230H538V-317H648ZM648 -621V-536C572 -536 498 -538 464 -541C466 -520 467 -483 467 -407V-97C467 -38 464 7 458 61H538V-168H648C648 -102 645 -5 640 41H728C723 -5 720 -104 720 -168H836V-42C836 -27 829 -18 757 -25C780 4 787 29 791 71C899 48 909 29 909 -31V-407C909 -483 910 -518 912 -541C874 -537 811 -536 720 -536V-621C805 -621 878 -619 935 -614V-689C883 -685 804 -682 720 -682V-780C720 -796 723 -806 732 -811C748 -820 745 -830 726 -829C706 -828 664 -830 638 -834C644 -808 648 -752 648 -682C574 -682 483 -685 445 -689V-614C485 -618 578 -621 648 -621Z"/>
</svg>