<svg xmlns="http://www.w3.org/2000/svg" viewBox="0 -1000 1000 1000">
	<path fill="#000000" d="M473 -133H274V-175H473ZM738 -133H546V-175H738ZM473 -229H274V-272H473ZM738 -229H546V-272H738ZM294 -33L221 -60C185 -25 142 3 80 34L144 83C198 47 244 13 294 -33ZM914 29C864 -9 827 -32 769 -63L722 -26C778 10 812 38 855 82ZM681 54C656 6 640 -23 616 -58L545 -41C571 -3 590 34 601 67ZM469 54C457 12 446 -21 431 -56L363 -46C377 -8 385 27 389 61ZM428 -441C436 -445 443 -448 451 -451C466 -457 466 -463 454 -466C434 -471 415 -477 393 -490C300 -405 216 -347 89 -283C110 -263 125 -250 139 -227C157 -238 179 -253 204 -270V-165C204 -128 202 -93 200 -71C276 -76 357 -76 507 -76C661 -76 736 -74 811 -71C808 -127 807 -146 807 -197C807 -242 809 -286 811 -334C737 -329 685 -328 599 -328L708 -446C672 -442 623 -441 567 -441ZM511 -328H283C310 -348 336 -369 359 -387H568ZM876 -809C892 -818 890 -829 868 -828C843 -827 814 -829 786 -833C790 -811 791 -761 791 -697V-526C791 -470 779 -466 700 -475C718 -454 727 -429 729 -399C857 -409 866 -423 866 -488V-784C866 -799 869 -805 876 -809ZM714 -757C726 -765 723 -772 708 -770C692 -768 660 -768 629 -770C632 -752 633 -728 633 -685V-611C633 -578 633 -554 629 -517H710C707 -554 707 -578 707 -611V-725C707 -744 709 -751 714 -757ZM279 -737C247 -680 184 -628 68 -595C94 -579 107 -564 120 -538C181 -562 231 -591 277 -633H460C428 -599 395 -572 353 -548C336 -567 318 -582 292 -602L233 -570C254 -552 274 -535 293 -516C185 -464 123 -443 45 -432C64 -415 84 -387 92 -362C170 -385 278 -430 360 -480C463 -543 509 -580 571 -686H326C338 -702 348 -719 357 -737C481 -737 534 -735 589 -730V-802C531 -795 458 -794 348 -794C238 -794 165 -795 106 -802V-730C151 -735 223 -737 279 -737Z"/>
</svg>