<svg xmlns="http://www.w3.org/2000/svg" viewBox="0 -1000 1000 1000">
	<path fill="#000000" d="M225 -288H153V-381H225ZM361 -288H289V-381H361ZM225 -444H153V-530H225ZM361 -444H289V-530H361ZM844 -500V-365H564V-502H608C640 -502 668 -500 690 -496V-570C668 -566 640 -564 608 -564H564V-698C662 -726 689 -731 703 -730C721 -729 723 -736 709 -748C693 -760 667 -790 651 -813C576 -761 547 -749 485 -737C487 -719 489 -689 489 -654V-377C489 -350 487 -322 484 -302C504 -303 553 -305 580 -305C574 -138 523 -68 357 2C384 22 393 33 413 70C585 -34 637 -117 651 -306H729V-28C729 38 747 52 839 52C918 52 933 39 963 -49C938 -55 918 -66 889 -95C876 -27 870 -19 842 -19C807 -19 800 -28 800 -53V-306C843 -306 894 -304 921 -302C918 -323 917 -350 917 -377V-655C917 -685 918 -730 920 -746C885 -743 854 -742 823 -742C792 -742 760 -744 727 -746V-673C744 -675 770 -677 798 -677H844V-562H813C781 -562 753 -564 731 -568V-494C753 -498 781 -500 813 -500ZM156 -674H307L243 -594H89C115 -621 136 -648 156 -674ZM84 -587C86 -565 88 -545 88 -520V-299C88 -271 87 -244 85 -223C126 -227 166 -227 257 -227C347 -227 388 -227 428 -223C426 -245 425 -271 425 -299V-521C425 -548 426 -574 428 -599C405 -597 358 -594 323 -594L438 -739C421 -736 375 -734 302 -734H201C225 -763 249 -786 260 -793C275 -802 275 -808 258 -810C230 -814 205 -822 187 -833C159 -768 106 -702 37 -645C53 -629 66 -603 72 -578C77 -583 80 -582 84 -587ZM139 -181L76 -186C75 -120 67 -69 47 -12L120 -5C129 -62 137 -130 139 -181ZM248 -26C237 -94 228 -141 219 -188L162 -181C176 -108 181 -62 180 -21ZM349 -42C346 -77 330 -148 318 -192L257 -185C269 -144 282 -75 285 -29ZM464 -68C451 -112 435 -155 417 -201L355 -186C373 -145 388 -94 397 -45Z"/>
</svg>