<svg xmlns="http://www.w3.org/2000/svg" viewBox="0 -1000 1000 1000">
	<path fill="#000000" d="M236 -272H161V-364H236ZM370 -272H296V-364H370ZM814 -369H567V-434H814ZM236 -424H161V-518H236ZM370 -424H296V-518H370ZM814 -492H567V-553H814ZM161 -166L90 -178C86 -122 72 -57 47 3L117 26C130 -30 148 -112 161 -166ZM264 -4C258 -55 247 -127 238 -172L181 -166C192 -117 200 -45 198 8ZM368 -21C360 -70 341 -137 325 -181L272 -170C288 -117 301 -57 304 -8ZM205 -742C223 -774 236 -791 246 -796C262 -805 260 -813 245 -815C213 -818 194 -823 165 -836C150 -773 111 -686 48 -629C67 -616 84 -596 95 -575C97 -554 98 -532 98 -510V-283C98 -257 97 -231 95 -213C135 -215 184 -216 271 -216C357 -216 397 -215 436 -213C434 -232 433 -257 433 -282V-511C433 -535 434 -558 436 -580C405 -578 375 -577 325 -577L432 -746C418 -743 379 -742 342 -742ZM251 -577H105C126 -602 150 -644 174 -686H310ZM605 -199H807C784 -161 752 -125 708 -93C672 -119 633 -158 605 -199ZM580 -725C600 -757 615 -775 623 -778C641 -785 636 -794 622 -796C599 -799 574 -807 539 -821C513 -736 480 -673 416 -608C437 -599 458 -583 471 -561C480 -571 489 -583 500 -598C501 -580 503 -561 503 -544V-376C503 -351 502 -325 500 -307C514 -308 559 -309 590 -309C541 -207 493 -138 451 -105C439 -134 427 -164 417 -184L364 -172C383 -120 398 -62 409 -12L478 -36C471 -54 461 -79 451 -104C481 -88 494 -78 509 -52C528 -73 553 -108 578 -147C597 -115 622 -86 652 -60C588 -28 506 -3 399 12C429 36 440 50 451 77C551 56 636 23 707 -20C768 18 844 46 934 63C942 28 950 6 973 -18C889 -22 821 -35 764 -61C835 -117 884 -185 908 -260C876 -259 848 -258 804 -258H639C647 -275 655 -293 662 -310C777 -310 851 -309 888 -307C886 -326 886 -350 886 -375V-545C886 -569 886 -591 888 -613C847 -611 784 -610 699 -610C624 -610 553 -612 511 -614C522 -630 533 -647 545 -666H758C816 -666 895 -664 930 -661V-730C895 -727 816 -725 758 -725Z"/>
</svg>