<svg xmlns="http://www.w3.org/2000/svg" viewBox="0 -1000 1000 1000">
	<path fill="#000000" d="M228 -278H171V-365H228ZM343 -278H284V-365H343ZM228 -423H171V-507H228ZM343 -423H284V-507H343ZM238 -30C239 -80 239 -125 234 -178L179 -179C184 -135 182 -103 175 -26ZM146 -169L85 -180C80 -118 67 -72 48 -18L120 -12C133 -68 142 -110 146 -169ZM338 -41C335 -90 328 -140 319 -185L267 -177C275 -133 277 -93 277 -34ZM193 -657H293L244 -564H121C154 -601 172 -624 193 -657ZM111 -553C112 -535 113 -518 113 -499V-284C113 -258 112 -231 110 -213C145 -215 178 -216 253 -216C328 -216 368 -215 403 -213C402 -232 401 -258 401 -283V-500C401 -524 402 -545 403 -567C377 -565 350 -564 309 -564L396 -722C377 -719 332 -716 291 -716H228C250 -754 268 -777 278 -785C294 -798 293 -804 279 -807C257 -812 235 -819 208 -835C179 -743 112 -638 37 -573C58 -567 76 -557 95 -536C101 -542 106 -547 111 -553ZM737 -288V-364H812V-288ZM812 -425H737V-496H812ZM592 -364H678V-288H592ZM592 -496H678V-425H592ZM678 -634V-554H592V-634ZM533 -140V-97C533 -48 529 15 523 75H600C594 15 592 -48 592 -97V-228H678V-100C678 -51 674 12 668 72H745C739 12 737 -51 737 -100V-169C784 -95 831 -46 905 19C919 -21 928 -37 955 -59C879 -92 825 -135 754 -228C797 -228 857 -224 876 -220C875 -247 875 -285 875 -322V-362C894 -362 927 -359 941 -357V-432C927 -430 894 -427 875 -427V-465C875 -508 876 -542 876 -562C852 -557 808 -554 737 -554V-634C805 -634 876 -631 913 -627V-703C867 -697 794 -692 756 -692C787 -754 802 -771 816 -777C840 -788 839 -799 819 -801C797 -803 753 -818 728 -830C726 -797 713 -756 685 -692H540L605 -724C585 -764 569 -789 547 -824L485 -786C511 -753 525 -729 538 -692C501 -692 440 -697 409 -702V-625C444 -630 501 -634 533 -634V-555C512 -555 455 -559 439 -562V-489C454 -491 505 -495 533 -495V-425C499 -425 443 -429 420 -432V-357C444 -360 497 -363 533 -363V-288C499 -288 458 -291 439 -295V-220C458 -224 484 -227 523 -227C500 -180 468 -135 431 -96C425 -133 417 -168 410 -192L354 -176C364 -146 372 -107 374 -72L425 -90C395 -59 362 -31 328 -10C360 5 378 19 390 45C450 -15 500 -82 533 -140Z"/>
</svg>