<svg xmlns="http://www.w3.org/2000/svg" viewBox="0 -1000 1000 1000">
	<path fill="#000000" d="M223 -293H159V-383H223ZM340 -293H283V-383H340ZM223 -442H159V-524H223ZM340 -442H283V-524H340ZM150 -187L89 -192C88 -124 81 -61 62 0L129 6C138 -51 146 -132 150 -187ZM242 -22C239 -74 232 -152 224 -197L168 -188C177 -147 182 -74 179 -15ZM341 -31C338 -79 326 -158 316 -202L262 -192C271 -147 279 -67 281 -19ZM435 -53C429 -100 412 -165 396 -208L339 -193C358 -143 370 -91 376 -42ZM548 -715V-630H495V-715ZM495 -437H547V-350H495ZM495 -574H615V-488H495ZM643 -143V-27C559 -27 482 -31 427 -37V42C489 35 564 32 679 32C795 32 870 35 932 42V-37C876 -31 801 -27 710 -27V-143C789 -143 848 -139 894 -133V-209C848 -203 792 -199 710 -199C710 -236 714 -251 719 -254C729 -260 728 -268 717 -268C690 -267 670 -268 640 -271C642 -262 643 -235 643 -199C576 -199 511 -203 465 -209V-133C510 -139 575 -143 643 -143ZM169 -676H280L221 -584H102C127 -617 141 -636 169 -676ZM94 -580C95 -560 96 -539 96 -517V-301C96 -275 94 -249 93 -231C131 -233 168 -234 249 -234C330 -234 367 -233 404 -231C402 -250 401 -275 401 -300V-518C401 -542 402 -565 404 -587C374 -585 345 -584 293 -584L399 -739C375 -735 343 -733 310 -733H208C235 -771 243 -778 253 -784C268 -794 267 -801 248 -804C223 -808 202 -814 170 -829C150 -755 106 -684 46 -624C69 -612 82 -600 94 -580ZM769 -692H853C847 -598 833 -535 804 -485C785 -540 772 -605 769 -692ZM712 -690C721 -590 738 -491 767 -432C741 -400 708 -374 673 -352C645 -349 630 -350 602 -350V-437C642 -437 661 -435 671 -433C670 -455 669 -498 669 -536C669 -572 670 -618 671 -635C658 -632 644 -630 601 -630V-715C650 -715 665 -713 678 -711V-776C663 -773 653 -772 559 -772C467 -772 449 -773 432 -776C434 -747 434 -696 434 -650V-425C434 -367 433 -317 432 -289C449 -293 465 -294 553 -294C636 -294 654 -293 673 -289V-336C689 -321 696 -311 707 -288C745 -315 778 -346 803 -378C830 -337 861 -300 906 -261C922 -293 941 -311 961 -327C912 -354 872 -385 841 -429C888 -503 908 -593 928 -755C892 -753 861 -752 812 -752C764 -752 731 -753 695 -755V-689C701 -689 707 -690 712 -690Z"/>
</svg>