<svg xmlns="http://www.w3.org/2000/svg" viewBox="0 -1000 1000 1000">
	<path fill="#000000" d="M857 -311H757V-394H857ZM227 -416H159V-500H227ZM363 -416H292V-500H363ZM227 -279H159V-358H227ZM363 -279H292V-358H363ZM820 -609V-553H682C568 -553 512 -554 469 -562V-483C514 -491 572 -493 681 -493C792 -493 851 -490 890 -483C889 -498 888 -530 888 -560V-714C888 -744 889 -780 890 -791C852 -784 789 -780 679 -780C568 -780 508 -783 464 -791V-711C506 -719 567 -720 680 -720H820V-667H608C544 -667 519 -668 493 -675V-601C519 -607 543 -609 608 -609ZM138 -157L78 -165C70 -115 53 -48 31 9L99 25C115 -30 129 -97 138 -157ZM683 -68C623 -98 574 -117 523 -134L492 -79C542 -71 599 -40 642 -6ZM234 9C233 -48 230 -104 224 -155L165 -153C172 -109 172 -46 170 8ZM338 2C331 -61 325 -113 316 -158L257 -152C267 -110 273 -45 273 5ZM448 -7C440 -56 427 -113 414 -160L356 -152C369 -106 381 -44 387 4ZM837 -210V-258C871 -258 896 -257 918 -256C917 -279 916 -317 916 -353C916 -390 916 -426 918 -450C889 -448 857 -447 805 -447C753 -447 721 -448 693 -450C695 -426 695 -390 695 -353C695 -317 694 -280 693 -256C713 -257 736 -258 767 -258V-209H593C528 -209 465 -213 440 -220V-144C464 -148 528 -150 593 -150H767V-43C767 -13 759 0 687 -6C710 27 715 41 715 76C828 47 837 37 837 -19V-150C861 -150 928 -146 947 -143V-220C929 -215 881 -210 837 -210ZM596 -318V-397C615 -397 653 -392 673 -387V-461C647 -454 615 -451 565 -451C516 -451 486 -454 459 -461V-387C479 -393 518 -397 536 -397V-314C504 -313 471 -313 436 -314C443 -285 446 -271 446 -244C522 -256 600 -264 669 -270C669 -292 671 -310 674 -327C647 -324 622 -321 596 -318ZM179 -673H319L242 -559C165 -559 130 -560 90 -562C92 -540 93 -516 93 -492V-284C93 -258 91 -232 90 -214C130 -216 169 -217 259 -217C348 -217 389 -216 427 -214C426 -233 424 -258 424 -283V-493C424 -517 426 -540 427 -562C397 -560 363 -559 320 -559L446 -738C427 -735 374 -733 328 -733H225C264 -783 272 -793 285 -800C301 -809 301 -814 281 -817C259 -820 234 -828 202 -846C184 -788 116 -683 33 -608C54 -595 72 -572 82 -554C106 -580 147 -633 179 -673Z"/>
</svg>