<svg xmlns="http://www.w3.org/2000/svg" viewBox="0 -1000 1000 1000">
	<path fill="#000000" d="M488 -136H299V-177H488ZM748 -136H553V-177H748ZM488 -223H299V-266H488ZM748 -223H553V-266H748ZM913 38C890 10 848 -26 784 -72L729 -37C772 -2 825 55 844 87ZM270 -39L194 -69C160 -25 130 0 81 30L145 77C179 48 216 13 270 -39ZM651 51C642 14 630 -23 607 -68L541 -55C561 -18 574 20 581 69ZM449 52C437 3 427 -28 408 -73L338 -60C361 -13 372 26 376 65ZM535 -315H254C277 -328 300 -342 325 -357H591ZM516 -610C478 -625 439 -638 395 -650L366 -608C398 -601 428 -592 457 -582C431 -571 402 -559 368 -547C387 -535 394 -524 402 -501C446 -519 482 -536 519 -556C553 -540 584 -522 612 -502L647 -550C622 -563 598 -575 575 -586C593 -593 612 -600 623 -604C638 -609 640 -614 623 -623C611 -629 598 -640 585 -658C567 -641 544 -625 516 -610ZM219 -691L217 -736C323 -754 334 -755 349 -752C364 -749 367 -755 351 -768C338 -779 320 -802 310 -824C262 -802 193 -781 139 -772C144 -757 150 -718 152 -690L163 -498C123 -498 82 -500 56 -503V-373H127V-446H349C287 -392 228 -359 121 -318C143 -305 157 -291 172 -270C192 -280 211 -291 231 -302V-165C231 -130 230 -99 227 -79C305 -82 355 -83 507 -83C662 -83 737 -82 816 -79C814 -111 813 -156 813 -201C813 -247 814 -289 816 -320C748 -317 696 -315 628 -315L757 -410C725 -407 664 -405 600 -405H402C414 -412 421 -415 430 -417C445 -421 444 -429 433 -430C420 -431 402 -437 383 -446H858V-375H932V-503C904 -500 857 -497 829 -497L851 -703C854 -732 862 -777 867 -791C832 -790 799 -789 765 -789C730 -788 697 -789 662 -791V-730C680 -732 706 -733 733 -733H791L787 -692H730C705 -692 688 -693 667 -698V-637C688 -642 705 -643 730 -643H782L777 -598H737C712 -598 695 -599 674 -604V-543C695 -548 712 -549 737 -549H772L767 -497H226L224 -545H277C302 -545 319 -544 340 -539V-600C319 -595 302 -594 277 -594H222L220 -641H275C300 -641 317 -640 338 -635V-697C317 -692 300 -691 275 -691ZM514 -766C485 -779 452 -793 414 -809L388 -764C418 -753 443 -743 464 -734C439 -721 410 -706 374 -690C398 -674 404 -668 416 -650C455 -669 494 -690 523 -708C562 -690 586 -674 617 -651L653 -696C626 -711 600 -725 570 -740C601 -761 612 -765 630 -771C647 -777 647 -782 630 -790C614 -798 590 -812 572 -828C560 -807 542 -787 514 -766Z"/>
</svg>