<svg xmlns="http://www.w3.org/2000/svg" viewBox="0 -1000 1000 1000">
	<path fill="#000000" d="M807 -517H543V-569H807ZM807 -630H543V-683H807ZM646 -54C638 -109 635 -138 630 -185L574 -184C580 -132 581 -99 578 -47ZM736 -65C728 -110 721 -151 711 -192L653 -189C667 -145 673 -105 674 -55ZM827 -76C820 -127 812 -165 800 -204L738 -192C754 -156 761 -127 765 -72ZM551 -184L491 -191C486 -118 478 -86 457 -40L529 -33C540 -89 545 -129 551 -184ZM580 -742H567C537 -742 504 -743 474 -745C475 -721 476 -689 476 -656V-324C476 -289 475 -259 474 -236C500 -240 538 -241 599 -241H853C852 -136 847 -76 841 -53C833 -22 804 -13 718 -22C748 17 753 30 758 73C875 57 912 4 914 -43C916 -92 919 -149 924 -221C927 -270 929 -287 933 -308C896 -305 831 -304 759 -304H543V-352H775C861 -352 894 -351 947 -347V-419C894 -415 860 -414 775 -414H543V-454H786C817 -454 848 -453 878 -451C875 -474 874 -504 874 -538V-656C874 -690 875 -721 878 -745C848 -743 817 -742 786 -742H654C663 -779 671 -798 685 -806C696 -813 698 -828 683 -826C658 -823 624 -829 594 -836C593 -807 591 -789 580 -742ZM219 -394H305C304 -264 306 -168 310 -118C317 -14 342 21 386 21C414 21 445 -5 470 -136C447 -142 432 -153 416 -175C392 -41 383 -44 375 -121C364 -228 366 -328 379 -623C382 -698 390 -745 398 -772C359 -769 305 -766 229 -766C171 -766 114 -768 72 -772V-695C99 -697 132 -699 148 -699V-459C111 -459 80 -461 51 -465V-388C81 -392 111 -394 148 -394V-117C148 -68 144 -5 139 55H227C221 -5 219 -68 219 -117ZM219 -699H313C309 -612 307 -531 306 -459H219Z"/>
</svg>