<svg xmlns="http://www.w3.org/2000/svg" viewBox="0 -1000 1000 1000">
	<path fill="#000000" d="M810 -622H557V-680H810ZM810 -510H557V-566H810ZM540 -168L478 -177C470 -124 447 -62 432 -20L503 -11C517 -61 533 -125 540 -168ZM643 -42C638 -88 636 -137 636 -174L573 -170C578 -132 580 -96 578 -38ZM735 -58C730 -96 725 -148 724 -180L664 -177C671 -138 675 -97 674 -51ZM829 -65C823 -110 816 -150 813 -184L751 -178C758 -149 764 -109 767 -55ZM557 -401V-450H796C825 -450 855 -449 884 -447C881 -469 880 -501 880 -534V-654C880 -688 881 -718 884 -742C855 -739 825 -739 796 -739H705C721 -779 732 -797 741 -801C754 -806 752 -814 736 -814C710 -814 672 -821 640 -827C641 -801 640 -777 635 -739H578C549 -739 519 -740 490 -742C491 -718 492 -688 492 -655V-301C492 -266 492 -237 490 -215C515 -220 544 -221 622 -221H853C851 -110 848 -83 841 -48C835 -12 816 -1 740 -14C758 20 761 37 760 71C868 64 894 41 908 -21C913 -42 917 -86 925 -219C927 -249 930 -268 934 -288C899 -286 854 -285 786 -285H557V-340H794C850 -340 907 -339 956 -333V-407C907 -402 850 -401 794 -401ZM342 -708C325 -748 303 -792 280 -830L212 -790C236 -754 252 -716 267 -671ZM394 -583C405 -583 445 -580 469 -578V-660C418 -655 370 -652 276 -652C182 -652 143 -655 91 -660V-578C158 -583 209 -585 325 -585C312 -466 302 -391 287 -338C247 -389 206 -439 168 -484L115 -441C165 -382 213 -324 259 -262C252 -249 245 -237 237 -225C187 -151 134 -102 38 -44C68 -20 82 -3 95 26C179 -38 245 -106 304 -199C333 -158 361 -115 389 -69L450 -121C420 -164 381 -217 338 -273C363 -342 383 -446 394 -583Z"/>
</svg>