<svg xmlns="http://www.w3.org/2000/svg" viewBox="0 -1000 1000 1000">
	<path fill="#000000" d="M814 -634H581V-689H814ZM814 -522H581V-576H814ZM557 -167L494 -177C486 -122 472 -64 456 -22L519 0C533 -51 549 -123 557 -167ZM649 -32C644 -79 641 -136 641 -173L578 -169C583 -131 585 -86 583 -28ZM738 -48C733 -86 728 -147 727 -180L667 -176C674 -137 678 -87 677 -41ZM833 -55C827 -100 820 -149 817 -184L755 -178C762 -148 768 -99 771 -45ZM581 -406V-458H800C829 -458 860 -457 889 -455C886 -478 885 -509 885 -543V-664C885 -698 886 -729 889 -753C860 -750 829 -750 800 -750H716C733 -791 745 -808 754 -812C767 -818 765 -825 749 -826C694 -830 680 -832 649 -839C653 -812 652 -790 646 -750H599C570 -750 539 -751 510 -753C511 -729 512 -698 512 -665V-301C512 -266 512 -237 510 -214C535 -219 565 -220 643 -220H858C856 -108 853 -74 846 -38C839 -1 820 10 744 -3C762 31 765 48 764 83C873 75 899 52 913 -10C918 -32 922 -85 930 -218C932 -249 935 -268 939 -289C904 -287 859 -286 790 -286H581V-346H798C855 -346 912 -345 962 -340V-412C912 -407 855 -406 798 -406ZM322 -469C316 -535 312 -590 313 -626H243C250 -592 255 -537 254 -469ZM126 -406C100 -406 75 -408 55 -411V-332C76 -335 105 -337 126 -337C124 -162 101 -91 41 -18C69 2 94 30 105 55C172 -58 196 -158 198 -337H370V-94C370 -47 359 -38 277 -46C298 -6 308 24 309 44C430 24 442 10 442 -85V-336C457 -336 476 -334 491 -332V-411C476 -409 462 -407 442 -407V-643C442 -705 443 -751 445 -779C424 -775 386 -773 285 -773C181 -773 146 -775 124 -779C126 -751 126 -707 126 -643ZM370 -406H198V-707H370Z"/>
</svg>