<svg xmlns="http://www.w3.org/2000/svg" viewBox="0 -1000 1000 1000">
	<path fill="#000000" d="M349 -521H156V-576H349ZM349 -625H156V-680H349ZM665 -397C683 -415 678 -419 664 -420C638 -421 620 -426 579 -442C575 -379 565 -325 531 -204C512 -139 480 -60 427 21C457 34 470 40 493 61C548 -48 586 -143 612 -239C642 -354 653 -385 665 -397ZM951 -17C905 -78 875 -130 854 -192C827 -273 799 -386 787 -473L710 -457C723 -387 760 -233 786 -150C807 -85 836 -31 887 42C909 12 921 1 951 -17ZM931 -465V-676C881 -669 815 -665 681 -665C568 -665 505 -666 457 -672V-457H535V-600H853V-465ZM756 -719C740 -763 718 -806 698 -840L608 -809C638 -769 656 -734 664 -683ZM122 -190L66 -197C64 -147 58 -103 41 -47L105 -39C113 -93 118 -135 122 -190ZM197 -50C194 -104 191 -145 185 -192L135 -188C141 -136 140 -98 137 -45ZM278 -69C272 -115 266 -156 257 -199L201 -192C213 -148 216 -111 216 -60ZM359 -82C352 -128 342 -167 328 -208L277 -198C290 -158 296 -120 298 -75ZM180 -735C137 -735 111 -736 87 -738C89 -716 89 -684 89 -652V-324C89 -290 88 -261 87 -238C109 -243 143 -245 193 -245H379C381 -199 380 -130 377 -85C373 -23 353 -13 275 -23C299 2 313 25 319 53C397 40 424 10 430 -28C437 -69 441 -132 444 -232C445 -262 447 -283 451 -306C422 -303 381 -302 322 -302H156V-359H306C356 -359 405 -358 449 -353V-417C405 -412 356 -411 306 -411H156V-465H341C366 -465 393 -464 419 -462C417 -485 416 -516 416 -549V-652C416 -685 417 -715 419 -738C393 -735 367 -735 321 -735H242C258 -780 268 -799 276 -803C293 -811 290 -823 269 -821C242 -819 214 -821 186 -828C188 -797 186 -767 180 -735Z"/>
</svg>