<svg xmlns="http://www.w3.org/2000/svg" viewBox="0 -1000 1000 1000">
	<path fill="#000000" d="M803 -496H553V-549H803ZM803 -606H553V-666H803ZM553 -386V-440H787C816 -440 847 -441 875 -439C874 -460 874 -491 874 -524V-639C874 -671 873 -701 875 -725C847 -723 825 -723 765 -723H660C680 -776 689 -788 700 -793C724 -807 723 -819 693 -820C671 -821 636 -826 610 -831C612 -801 607 -771 591 -723C545 -723 507 -723 482 -725C483 -701 484 -670 484 -639V-305C484 -271 483 -243 482 -219C506 -224 525 -224 602 -224H841C841 -176 837 -100 832 -58C825 -2 808 6 689 -11C704 17 712 50 713 81C856 80 898 42 902 -36L910 -211C911 -240 914 -265 919 -286C884 -283 851 -282 782 -282H553V-331H788C846 -331 902 -331 953 -327V-392C902 -388 846 -386 788 -386ZM542 -173L471 -193C467 -133 458 -104 416 -27L487 3C508 -49 525 -105 542 -173ZM620 -34C619 -86 617 -126 609 -186L556 -183C562 -132 564 -76 561 -26ZM723 -55C715 -107 704 -155 691 -196L640 -188C655 -124 661 -92 664 -44ZM812 -71C802 -114 796 -137 774 -202L723 -197C737 -157 750 -105 756 -57ZM243 -364C167 -364 102 -368 58 -374V-298C103 -304 163 -308 235 -308C212 -188 156 -97 48 -20C76 -11 105 10 118 37C206 -47 253 -118 284 -229C308 -188 329 -144 363 -67L434 -111C383 -195 357 -234 301 -305C302 -306 302 -307 302 -308C350 -308 415 -304 454 -298V-374C415 -368 359 -364 311 -364C318 -414 324 -487 326 -553C349 -553 398 -550 436 -545V-619C398 -614 355 -611 327 -611C328 -737 334 -775 348 -784C360 -791 358 -800 345 -798C322 -795 274 -799 248 -805C253 -769 256 -711 256 -611H172C175 -623 177 -634 180 -647C183 -667 191 -678 201 -684C217 -693 214 -703 196 -703C176 -703 151 -707 122 -718C113 -619 89 -537 58 -464C81 -461 101 -455 122 -442C133 -473 146 -508 158 -553H255C254 -486 249 -415 243 -364Z"/>
</svg>