<svg xmlns="http://www.w3.org/2000/svg" viewBox="0 -1000 1000 1000">
	<path fill="#000000" d="M805 -636H579V-691H805ZM805 -524H579V-578H805ZM558 -169L495 -179C487 -124 473 -66 457 -24L520 -2C534 -53 550 -125 558 -169ZM650 -34C645 -81 642 -138 642 -175L579 -171C584 -133 586 -88 584 -30ZM739 -50C734 -88 729 -149 728 -182L668 -178C675 -139 679 -89 678 -43ZM834 -57C828 -102 821 -151 818 -186L756 -180C763 -150 769 -101 772 -47ZM579 -410V-460H791C820 -460 851 -459 880 -457C877 -480 876 -511 876 -545V-666C876 -700 877 -731 880 -755C851 -752 820 -752 791 -752H717C734 -793 746 -810 755 -814C768 -820 766 -828 750 -828C707 -829 684 -833 650 -841C651 -814 650 -792 646 -752H600C571 -752 540 -753 511 -755C512 -731 513 -700 513 -667V-303C513 -268 513 -239 511 -216C536 -221 566 -222 644 -222H859C857 -110 854 -76 847 -40C840 -3 821 8 745 -5C763 29 766 46 765 81C874 73 900 50 914 -12C919 -34 923 -87 931 -220C933 -251 936 -270 940 -291C905 -289 860 -288 791 -288H579V-348H799C856 -348 903 -347 953 -342V-416C903 -411 856 -410 799 -410ZM243 -686C219 -736 193 -782 168 -823L97 -780C126 -747 146 -703 163 -648ZM322 -369H231V-564H322ZM305 -631H180C143 -631 108 -634 73 -640V-554C102 -559 149 -564 162 -564V-369C135 -369 79 -374 46 -380V-294C79 -299 133 -303 162 -303C158 -152 128 -86 46 -4C75 11 92 30 109 57C192 -45 227 -135 231 -303H322V-134C322 -84 317 -19 311 43H399C393 -19 389 -84 389 -134V-302C423 -302 461 -299 491 -293V-379C461 -373 414 -369 389 -369V-563C405 -563 435 -560 459 -554V-640C427 -634 397 -631 367 -631C413 -738 438 -772 455 -780C472 -787 475 -798 461 -800C432 -805 387 -822 351 -839C348 -783 334 -708 305 -631Z"/>
</svg>