<svg xmlns="http://www.w3.org/2000/svg" viewBox="0 -1000 1000 1000">
	<path fill="#000000" d="M818 -512H610V-571H818ZM818 -626H610V-684H818ZM403 -653V-751C403 -767 406 -774 415 -779C426 -785 423 -797 411 -797C383 -797 353 -801 325 -805C331 -771 335 -711 335 -653H226V-751C226 -768 230 -773 237 -778C249 -786 244 -797 232 -797C204 -797 174 -801 147 -805C155 -773 158 -725 158 -654C124 -654 82 -657 50 -661V-580C81 -585 135 -588 158 -588V-492H226V-588H335V-494H403V-588C451 -588 481 -585 520 -580V-661C484 -656 446 -653 403 -653ZM659 -54C651 -109 648 -134 643 -181L589 -180C595 -128 596 -99 593 -47ZM750 -65C743 -110 736 -147 726 -188L671 -185C687 -142 693 -105 691 -55ZM833 -76C826 -127 819 -161 807 -200L747 -188C765 -153 771 -127 773 -72ZM567 -180L505 -187C500 -114 495 -86 476 -40L546 -33C556 -89 561 -125 567 -180ZM639 -742H630C601 -742 570 -743 541 -745C542 -721 543 -689 543 -656V-322C543 -287 542 -257 541 -234C566 -238 602 -239 661 -239H858C858 -152 853 -66 847 -43C839 -12 821 -3 738 -12C767 27 774 40 777 77C885 55 915 14 917 -33C919 -82 924 -170 927 -221C930 -270 931 -281 935 -302C900 -299 867 -298 798 -298H610V-350H774C856 -350 888 -349 939 -345V-413C888 -409 855 -408 774 -408H610V-454H804C833 -454 863 -453 892 -451C889 -474 888 -504 888 -538V-656C888 -690 889 -721 892 -745C863 -743 833 -742 804 -742H709C732 -796 737 -803 754 -812C766 -818 765 -823 750 -824C726 -825 679 -832 651 -839C652 -808 650 -789 639 -742ZM247 -197C196 -125 132 -69 38 -19C58 -1 76 24 84 51C165 -1 232 -66 285 -138C320 -83 352 -29 381 23L444 -20C404 -85 367 -144 328 -201C355 -245 376 -291 393 -337C411 -385 434 -419 449 -426C466 -434 463 -446 437 -447C417 -448 391 -457 362 -469C341 -387 316 -319 286 -262C245 -321 201 -380 150 -445L90 -406C143 -346 196 -273 247 -197Z"/>
</svg>