<svg xmlns="http://www.w3.org/2000/svg" viewBox="0 -1000 1000 1000">
	<path fill="#000000" d="M803 -640H590V-704H803ZM803 -528H590V-589H803ZM591 -173L531 -183C523 -128 511 -70 496 -28L557 -6C570 -57 584 -129 591 -173ZM670 -38C666 -85 663 -142 663 -179L606 -175C611 -137 612 -92 611 -34ZM750 -54C746 -92 741 -153 740 -186L686 -182C693 -143 696 -93 695 -47ZM836 -61C830 -106 824 -155 821 -190L765 -184C772 -154 777 -105 780 -51ZM590 -414V-471H797C823 -471 851 -470 877 -468C874 -491 873 -515 873 -549V-670C873 -704 874 -735 877 -759C851 -756 823 -756 797 -756H706C721 -797 731 -814 739 -818C751 -824 749 -831 735 -832C693 -836 672 -837 645 -845C646 -818 645 -796 642 -756H600C574 -756 546 -757 520 -759C521 -735 522 -704 522 -671V-314C522 -279 522 -253 520 -230C542 -235 569 -236 640 -236H858C856 -124 854 -80 847 -44C841 -7 824 4 755 -9C772 25 774 42 773 77C872 69 898 46 911 -16C915 -38 919 -98 926 -231C928 -262 930 -281 934 -302C902 -300 859 -299 797 -299H590V-352H804C855 -352 907 -351 952 -346V-420C907 -415 855 -414 804 -414ZM439 -74C418 -79 387 -99 374 -125C368 -37 352 -25 298 -25C235 -25 229 -33 229 -78V-209C229 -224 231 -230 236 -240C244 -252 242 -259 232 -256C217 -254 185 -256 166 -264C167 -245 168 -223 168 -189V-45C168 16 182 35 277 35C405 35 415 26 439 -74ZM148 -224L84 -252C75 -160 64 -104 37 -30L109 -4C125 -85 134 -135 148 -224ZM509 -119C498 -167 480 -224 456 -281L397 -256C422 -193 433 -153 444 -92ZM365 -161C351 -218 341 -250 323 -307L262 -279C279 -229 288 -189 298 -127ZM491 -442C468 -450 438 -469 420 -496C417 -399 399 -390 312 -390C180 -390 174 -396 174 -425V-532H376C402 -532 422 -530 434 -526C431 -538 430 -558 430 -572V-742C430 -758 431 -773 434 -784C408 -782 366 -780 269 -780C179 -780 121 -781 76 -783V-706C101 -712 135 -714 158 -714H362V-596H190C155 -596 121 -597 103 -601C106 -589 106 -564 106 -544V-395C106 -331 113 -326 307 -326C455 -326 471 -342 491 -442Z"/>
</svg>