<svg xmlns="http://www.w3.org/2000/svg" viewBox="0 -1000 1000 1000">
	<path fill="#000000" d="M742 -296H265V-322H742ZM742 -356H265V-384H742ZM828 -546H654V-700H828ZM903 -484C900 -518 899 -574 899 -623C899 -673 900 -729 903 -763C863 -759 819 -758 746 -758C673 -758 616 -759 576 -763C579 -729 580 -673 580 -623C580 -574 579 -518 576 -484C615 -488 674 -488 746 -488C819 -488 864 -487 903 -484ZM229 -82L159 -104C143 -61 122 -30 80 10L146 45C177 8 206 -35 229 -82ZM388 15C378 -28 370 -58 357 -92L292 -88C301 -56 307 -12 309 23ZM550 5C541 -30 530 -59 512 -97L445 -88C458 -56 471 -16 478 20ZM702 -18C695 -46 681 -84 669 -109L600 -95C619 -61 629 -34 638 -3ZM265 -230V-258H639C745 -258 775 -257 813 -255C809 -270 808 -287 808 -307V-375C808 -395 809 -413 813 -426C775 -425 738 -425 598 -425H470C478 -439 486 -451 492 -454C507 -463 504 -472 486 -472C462 -472 430 -476 404 -482C405 -459 404 -441 401 -425C261 -425 233 -425 198 -426C200 -413 201 -395 201 -375V-165C201 -144 200 -127 198 -114C231 -115 338 -116 415 -116H822C821 -94 815 -58 810 -44C797 -4 777 1 712 -18C727 12 735 45 737 72C827 66 855 42 871 -15C876 -34 885 -73 892 -115C895 -133 898 -150 901 -164C856 -162 811 -162 720 -162H265V-190H695C772 -190 846 -189 913 -186V-234C846 -231 772 -230 695 -230ZM223 -720C171 -720 108 -723 79 -727V-657C109 -662 172 -665 200 -665C186 -637 168 -608 143 -571C196 -562 251 -552 306 -539C243 -516 160 -499 52 -489C81 -473 106 -448 122 -423C251 -452 334 -481 395 -517C442 -504 502 -485 541 -470C545 -491 555 -509 573 -529C536 -541 496 -552 455 -562C500 -606 525 -659 547 -727C514 -723 429 -720 300 -720C333 -782 341 -791 348 -794C370 -807 368 -811 345 -814C315 -817 288 -822 257 -833C253 -803 246 -779 223 -720ZM272 -665H455C441 -631 418 -603 383 -579C339 -588 292 -597 243 -606C254 -628 264 -648 272 -665Z"/>
</svg>