<svg xmlns="http://www.w3.org/2000/svg" viewBox="0 -1000 1000 1000">
	<path fill="#000000" d="M803 -636H588V-691H803ZM803 -524H588V-578H803ZM568 -169L511 -179C501 -128 479 -64 454 -24L515 -2C535 -51 559 -125 568 -169ZM654 -34C650 -81 647 -138 647 -175L591 -171C595 -133 597 -88 595 -30ZM740 -50C736 -88 731 -149 729 -182L675 -178C682 -139 685 -89 684 -43ZM829 -57C824 -102 817 -151 815 -186L758 -180C764 -150 770 -101 773 -47ZM588 -410V-460H790C816 -460 845 -459 870 -457C868 -480 867 -511 867 -545V-666C867 -700 868 -731 870 -755C845 -752 816 -752 790 -752H718C733 -793 745 -811 752 -814C765 -820 762 -827 748 -828C723 -830 685 -835 656 -841C657 -814 656 -792 653 -752H604C577 -752 550 -753 523 -755C524 -731 524 -700 524 -667V-303C524 -268 524 -239 523 -216C545 -221 572 -222 643 -222H852C851 -110 848 -76 841 -40C834 -3 817 8 748 -5C764 29 767 46 766 81C865 73 889 50 902 -12C907 -34 912 -87 918 -220C919 -251 922 -270 925 -291C893 -289 852 -288 790 -288H588V-348H797C850 -348 901 -347 947 -342V-416C901 -411 850 -410 797 -410ZM497 -630C508 -634 510 -641 497 -644C480 -649 446 -661 417 -675C411 -648 400 -616 383 -580C368 -548 351 -524 335 -506C373 -460 400 -415 420 -356C442 -369 469 -379 495 -386C465 -433 441 -470 409 -507C462 -596 489 -627 497 -630ZM217 -640C228 -646 227 -651 213 -654C198 -657 161 -672 136 -686C129 -654 121 -628 97 -575C88 -556 69 -521 55 -502C95 -453 122 -407 140 -347C159 -360 188 -373 212 -381C179 -438 157 -474 130 -507C192 -622 204 -634 217 -640ZM354 -629C368 -635 368 -639 354 -643C335 -648 308 -661 279 -678C273 -646 267 -631 244 -584C234 -560 217 -536 198 -514C237 -462 259 -422 279 -356C302 -370 324 -380 349 -389C328 -429 298 -476 274 -506C330 -603 346 -625 354 -629ZM486 -693V-773C439 -766 372 -763 282 -763C192 -763 116 -766 68 -773V-693C115 -700 192 -703 282 -703C372 -703 439 -700 486 -693ZM313 -118V-267C367 -267 438 -263 477 -257V-335C430 -328 361 -325 271 -325C180 -325 103 -328 55 -335V-257C97 -263 172 -267 240 -267V-107C172 -98 103 -92 36 -89C49 -62 58 -34 63 0C161 -29 330 -60 466 -82C463 -106 462 -125 469 -148C417 -136 365 -127 313 -118Z"/>
</svg>