<svg xmlns="http://www.w3.org/2000/svg" viewBox="0 -1000 1000 1000">
	<path fill="#000000" d="M828 -527H553V-579H828ZM828 -635H553V-687H828ZM539 -215L476 -219C469 -164 451 -90 423 -22L487 1C508 -59 532 -165 539 -215ZM624 -38C623 -93 619 -164 614 -211L557 -210C562 -166 565 -101 562 -35ZM716 -56C712 -111 705 -169 697 -218L641 -210C651 -159 657 -103 657 -51ZM812 -66C806 -122 801 -172 796 -219L732 -217C744 -166 748 -122 748 -61ZM250 -732C266 -737 265 -743 250 -748C235 -753 205 -770 178 -791C152 -731 92 -664 39 -622C62 -607 84 -586 96 -564C229 -724 237 -728 250 -732ZM470 -664C423 -713 386 -753 315 -815L264 -771C311 -733 371 -663 409 -609ZM627 -746H576C546 -746 515 -748 485 -750C486 -722 487 -687 487 -650V-338C487 -298 486 -264 483 -239C509 -244 547 -246 607 -246H858C854 -196 848 -147 838 -79C828 -15 810 -5 705 -15C729 14 738 36 740 76C865 55 888 35 901 -18C908 -46 917 -125 924 -204C927 -239 935 -287 942 -312C905 -308 871 -307 802 -307H553V-364H790C847 -364 902 -362 952 -358V-426C902 -421 847 -420 790 -420H553V-467H804C833 -467 865 -466 894 -464C891 -489 890 -524 890 -562V-650C890 -688 891 -722 894 -750C865 -747 833 -746 804 -746H696C707 -782 720 -803 738 -813C750 -820 748 -826 733 -827C710 -828 660 -837 633 -846C633 -815 631 -779 627 -746ZM257 -506C316 -455 361 -408 401 -359L462 -413C411 -460 354 -508 290 -552C303 -566 322 -584 326 -585C347 -593 345 -599 326 -603C306 -607 273 -618 240 -635C205 -534 130 -440 39 -374C67 -345 77 -331 84 -307C147 -365 212 -440 257 -506ZM334 -105H200V-276H334ZM200 -39H334V28H408C405 -15 403 -52 403 -97V-347C381 -343 361 -342 317 -342H209C177 -342 146 -342 126 -346C130 -324 131 -293 131 -262L130 -77C130 -32 128 2 124 48H200Z"/>
</svg>