<svg xmlns="http://www.w3.org/2000/svg" viewBox="0 -1000 1000 1000">
	<path fill="#000000" d="M831 -512H625V-572H831ZM831 -627H625V-688H831ZM673 -54C664 -109 661 -134 656 -181L602 -180C608 -128 609 -99 606 -47ZM759 -65C752 -110 744 -147 734 -188L678 -185C694 -142 701 -105 699 -55ZM843 -76C836 -127 829 -161 816 -200L754 -188C773 -153 779 -127 781 -72ZM589 -180L532 -187C527 -114 520 -86 498 -40L568 -33C578 -89 583 -125 589 -180ZM639 -742C611 -742 586 -743 558 -745C559 -721 560 -689 560 -656V-322C560 -287 559 -257 558 -234C584 -238 616 -239 677 -239H869C869 -174 860 -66 854 -43C846 -12 827 -3 741 -12C771 27 776 40 781 83C899 63 925 25 927 -33C929 -82 938 -170 941 -221C944 -270 945 -281 949 -302C913 -299 879 -298 807 -298H625V-350H782C867 -350 901 -349 954 -345V-413C901 -409 866 -408 782 -408H625V-454H813C843 -454 875 -453 905 -451C902 -474 901 -504 901 -538V-656C901 -690 902 -721 905 -745C875 -743 843 -742 813 -742H712C727 -787 737 -805 748 -812C759 -819 760 -823 744 -824C719 -825 677 -829 649 -836C650 -805 648 -787 639 -742ZM260 -212H382C366 -181 350 -155 334 -136C295 -153 268 -161 239 -171C247 -186 254 -199 260 -212ZM328 -508V-564H415V-508ZM415 -452V-391H328V-452ZM260 -677V-619C212 -619 147 -622 120 -626V-556C140 -560 202 -564 260 -564V-508H212C175 -508 98 -512 55 -515V-444C98 -449 164 -452 212 -452H260V-391C195 -391 140 -395 118 -399V-329C137 -332 216 -337 243 -337C237 -317 228 -293 217 -267C150 -267 98 -270 71 -274V-203C91 -207 141 -211 193 -211C180 -183 166 -156 153 -135C194 -127 241 -112 286 -91C237 -58 170 -45 51 -39C74 -19 89 8 95 39C250 7 302 -13 350 -57C385 -36 417 -12 450 16C457 -13 474 -38 489 -59C459 -77 430 -92 393 -109C426 -158 464 -237 472 -273C460 -268 437 -267 371 -267H287C298 -290 307 -312 317 -337C374 -337 459 -333 480 -329C478 -347 477 -392 477 -451C497 -451 522 -447 536 -444V-514C522 -511 495 -508 477 -508C477 -567 478 -608 480 -626C458 -622 394 -619 328 -619V-677C397 -677 461 -673 505 -668V-740C462 -735 403 -732 328 -732V-750C328 -770 335 -794 347 -802C357 -809 353 -817 342 -814C321 -808 267 -812 253 -818C257 -801 260 -763 260 -732C197 -732 114 -735 75 -740V-668C113 -672 204 -677 260 -677Z"/>
</svg>