<svg xmlns="http://www.w3.org/2000/svg" viewBox="0 -1000 1000 1000">
	<path fill="#000000" d="M836 -506H637V-564H836ZM836 -619H637V-679H836ZM398 -100V-479H461V-314C461 -281 451 -270 405 -279C421 -252 430 -226 433 -200C511 -221 523 -231 523 -280V-454C523 -492 524 -515 527 -536C505 -535 488 -535 430 -535C374 -535 357 -535 331 -536C334 -516 335 -492 335 -455V-132C335 -101 325 -83 291 -66C308 -44 322 -18 331 15C354 -3 373 -16 410 -35L528 -94C522 -107 516 -131 518 -167C469 -138 438 -121 398 -100ZM688 -52C680 -107 677 -132 672 -179L622 -178C628 -126 629 -97 626 -45ZM766 -63C759 -108 752 -145 742 -186L687 -183C703 -140 709 -103 707 -53ZM848 -74C841 -125 834 -159 822 -198L762 -186C780 -151 786 -125 788 -70ZM607 -180L558 -184C557 -111 553 -91 538 -46L599 -42C606 -99 608 -126 607 -180ZM647 -734C621 -734 594 -735 568 -737C569 -713 570 -681 570 -648V-320C570 -285 569 -255 568 -232C593 -236 629 -237 688 -237H873C873 -172 866 -63 860 -40C852 -9 834 0 751 -9C782 28 785 36 790 79C896 64 927 47 930 -30C932 -79 939 -168 942 -219C945 -268 946 -279 950 -300C915 -297 882 -296 813 -296H637V-346H789C871 -346 903 -345 954 -341V-409C903 -405 870 -404 789 -404H637V-448H819C848 -448 878 -447 907 -445C904 -468 903 -498 903 -532V-648C903 -682 904 -713 907 -737C878 -735 848 -734 819 -734H723C738 -770 756 -796 769 -804C780 -811 780 -815 765 -816C741 -817 687 -825 659 -832C660 -801 658 -781 647 -734ZM285 -715C173 -715 111 -717 77 -721V-568H147C129 -474 97 -396 44 -318C63 -307 83 -292 98 -276C139 -338 160 -385 184 -462H245C244 -411 239 -354 231 -308C214 -321 196 -335 178 -350L136 -291C160 -280 191 -258 213 -237C184 -149 125 -77 37 -17C67 0 83 16 96 41C192 -41 255 -143 277 -223C298 -299 307 -407 308 -521H203C214 -546 222 -558 231 -566C241 -575 240 -581 229 -582C211 -583 179 -590 152 -600C151 -596 151 -591 150 -587V-654H474V-567H543V-721C505 -717 459 -715 370 -715C361 -756 354 -794 350 -829L266 -812C273 -784 280 -751 285 -715Z"/>
</svg>