<svg xmlns="http://www.w3.org/2000/svg" viewBox="0 -1000 1000 1000">
	<path fill="#000000" d="M801 -632H584V-689H801ZM801 -519H584V-577H801ZM564 -172L501 -182C493 -127 480 -70 464 -28L528 -7C541 -57 557 -128 564 -172ZM653 -38C648 -85 645 -141 645 -178L584 -174C589 -136 591 -92 589 -34ZM738 -54C733 -92 728 -152 728 -185L670 -181C677 -142 680 -93 680 -47ZM829 -61C824 -106 817 -154 814 -189L754 -183C761 -153 767 -105 770 -51ZM584 -411V-460H788C816 -460 846 -459 873 -457C871 -480 870 -511 870 -544V-664C870 -698 871 -728 873 -752C846 -749 816 -749 788 -749H707C723 -790 736 -808 743 -811C755 -816 754 -823 739 -824C713 -826 673 -831 643 -837C644 -811 643 -789 639 -749H605C577 -749 547 -750 519 -752C520 -728 521 -698 521 -665V-307C521 -272 521 -243 519 -221C543 -225 572 -226 647 -226H853C851 -116 848 -80 842 -44C835 -8 817 3 744 -10C761 24 764 41 763 75C868 68 893 45 906 -17C911 -38 915 -91 922 -222C924 -253 927 -272 931 -293C897 -291 854 -290 788 -290H584V-351H796C850 -351 905 -350 953 -345V-417C905 -412 850 -411 796 -411ZM236 -661C217 -600 161 -552 68 -534C92 -517 113 -496 124 -474C89 -476 66 -478 50 -480V-401C79 -406 145 -411 170 -411H365V-58C365 -32 356 -24 275 -35C299 -11 313 23 311 54C419 42 434 25 434 -61V-409C441 -409 486 -404 499 -401V-480C475 -475 415 -472 273 -472C211 -472 164 -473 128 -474C197 -500 249 -545 280 -606C331 -568 385 -526 432 -481L481 -543C428 -580 351 -625 299 -653C300 -656 301 -658 301 -661C374 -661 448 -658 487 -653V-729C450 -724 369 -720 313 -720C325 -786 330 -800 340 -811C347 -819 342 -827 336 -827C316 -827 274 -831 254 -836C254 -805 251 -761 246 -720C195 -720 128 -724 91 -729V-653C126 -658 199 -661 236 -661ZM242 -181H164V-287H242ZM164 -121H242V-74H310C305 -101 304 -134 304 -168V-282C304 -311 305 -337 309 -353C291 -349 263 -345 203 -345C146 -345 117 -348 95 -353C97 -337 100 -306 100 -282V-148C100 -114 99 -84 95 -54H164Z"/>
</svg>