<svg xmlns="http://www.w3.org/2000/svg" viewBox="0 -1000 1000 1000">
	<path fill="#000000" d="M826 -509H617V-565H826ZM826 -615H617V-670H826ZM576 -171L516 -178C514 -128 506 -72 494 -25L559 -19C568 -73 572 -116 576 -171ZM663 -30C659 -85 656 -126 650 -173L596 -169C602 -117 601 -78 598 -25ZM746 -49C740 -96 735 -137 727 -180L667 -173C678 -129 683 -92 683 -40ZM830 -70C823 -115 815 -149 799 -190L744 -179C759 -138 767 -101 769 -56ZM639 -726C600 -726 568 -727 545 -729C547 -706 547 -675 547 -643V-311C547 -276 546 -247 545 -224C568 -229 604 -231 659 -231H850C851 -184 851 -108 848 -63C844 -4 831 4 738 -3C765 23 779 48 785 77C882 64 903 43 908 -2C912 -43 917 -116 921 -217C922 -248 924 -269 928 -293C896 -290 865 -289 800 -289H617V-340H791C845 -340 897 -339 945 -334V-405C897 -400 845 -399 791 -399H617V-454H816C843 -454 876 -453 901 -451C899 -473 898 -505 898 -538V-643C898 -680 899 -705 901 -729C874 -726 835 -726 796 -726H711C729 -776 739 -793 746 -797C767 -804 764 -817 740 -815C712 -813 678 -814 650 -820C650 -791 646 -760 639 -726ZM223 -478C194 -528 161 -567 114 -613L179 -711C207 -753 221 -770 232 -776C249 -786 245 -794 232 -797C207 -802 171 -812 151 -820C123 -720 85 -654 49 -612C105 -547 134 -497 159 -431C181 -451 201 -466 223 -478ZM370 -486C335 -540 309 -571 259 -620L322 -713C345 -747 362 -767 371 -773C382 -780 381 -788 370 -791C346 -797 318 -807 296 -816C284 -768 246 -686 192 -614C244 -556 279 -498 308 -440C328 -462 348 -478 370 -486ZM523 -499C495 -537 454 -581 405 -625L459 -695C490 -736 504 -750 515 -756C533 -766 532 -774 518 -777C486 -783 456 -794 430 -810C416 -737 391 -690 340 -617C403 -551 442 -496 462 -448C481 -471 502 -488 523 -499ZM323 -250V-365H413V-250ZM167 -250V-365H259V-250ZM167 -68V-191H259V-68ZM413 -9V30H483C478 -27 476 -69 476 -122V-329C476 -365 479 -411 482 -433C435 -427 387 -424 293 -424C168 -424 127 -427 94 -433C96 -412 98 -376 98 -329V-118C98 -65 97 -16 92 39H167V-9ZM323 -68V-191H413V-68Z"/>
</svg>