<svg xmlns="http://www.w3.org/2000/svg" viewBox="0 -1000 1000 1000">
	<path fill="#000000" d="M830 -517H615V-571H830ZM830 -625H615V-681H830ZM577 -167L514 -181C506 -130 493 -84 469 -29L542 -15C556 -69 567 -112 577 -167ZM662 -28C657 -84 655 -126 649 -174L591 -170C597 -117 598 -77 595 -23ZM755 -47C746 -98 740 -137 730 -181L671 -174C684 -129 688 -91 688 -38ZM849 -61C840 -108 830 -149 814 -191L756 -180C771 -139 781 -91 783 -45ZM650 -738C601 -738 572 -739 545 -741C547 -718 547 -686 547 -653V-314C547 -279 546 -249 545 -226C570 -231 608 -233 664 -233H862C864 -185 863 -107 860 -61C854 3 838 11 743 0C771 26 787 52 794 81C903 67 920 49 924 -2C927 -44 931 -116 935 -219C937 -250 939 -275 943 -299C910 -296 877 -295 810 -295H615V-347H793C849 -347 904 -346 953 -341V-412C904 -407 849 -406 793 -406H615V-460H820C849 -460 879 -459 909 -457C906 -480 905 -512 905 -546V-653C905 -687 906 -717 909 -741C879 -738 850 -738 798 -738H720C737 -785 749 -805 759 -809C778 -817 775 -830 750 -828C721 -826 688 -828 657 -835C659 -802 656 -768 650 -738ZM248 -732V-782C248 -796 250 -801 259 -806C270 -810 266 -818 255 -817C231 -815 204 -816 181 -819C186 -797 186 -778 186 -732C126 -732 87 -734 50 -739V-668C86 -672 136 -675 186 -675V-619H248V-675H362V-619H424V-674C465 -674 500 -672 530 -668V-739C499 -735 464 -732 424 -732V-786C424 -800 426 -805 435 -809C445 -814 442 -822 431 -821C407 -819 382 -820 355 -823C362 -801 362 -788 362 -738V-732ZM365 -379L370 -383C360 -393 350 -402 340 -411L515 -594C460 -590 374 -588 299 -588C220 -588 149 -590 107 -594V-525C154 -532 196 -533 266 -533H371L295 -453C279 -469 262 -483 246 -498L201 -459C231 -435 259 -408 285 -379C171 -379 111 -381 58 -385V-315C105 -318 186 -322 251 -322C192 -198 121 -120 34 -68C66 -52 89 -32 99 -11C204 -101 259 -185 303 -305V-69C303 -37 293 -31 230 -36C245 -9 254 19 256 46C357 29 373 11 373 -21V-322H452L426 -236L495 -225L528 -384C483 -381 439 -379 365 -379Z"/>
</svg>