<svg xmlns="http://www.w3.org/2000/svg" viewBox="0 -1000 1000 1000">
	<path fill="#000000" d="M826 -622H648V-676H826ZM826 -514H648V-569H826ZM632 -176L580 -174C581 -123 576 -75 559 -23L613 -21C626 -69 631 -119 632 -176ZM771 -51C772 -76 768 -139 765 -183L718 -179C722 -139 725 -84 724 -50ZM840 -63C841 -110 838 -152 834 -195L785 -189C791 -144 795 -113 795 -60ZM399 -271H484V-57C484 -24 477 -18 415 -29C430 -2 435 15 435 55C533 34 545 19 545 -28V-652C545 -713 546 -751 547 -778C516 -775 484 -774 442 -774C401 -774 367 -775 336 -778C338 -751 339 -713 339 -652V-299C339 -82 326 -40 269 38C298 45 314 52 333 73C383 -8 398 -64 399 -271ZM484 -557H399V-711H484ZM399 -493H484V-333H399ZM230 -164H143V-343H230ZM155 -588V-404C134 -404 104 -405 77 -407C80 -386 81 -367 81 -332V-165C81 -120 80 -96 75 -33H143V-102H230V-53H299C295 -105 294 -140 294 -185V-332C294 -371 295 -390 298 -407C272 -405 246 -404 224 -404V-587C251 -587 290 -584 315 -580V-657C290 -652 242 -649 224 -649V-785C224 -793 227 -801 234 -806C245 -812 244 -821 231 -821C202 -820 176 -821 152 -826C155 -809 155 -800 155 -649C124 -649 82 -652 55 -657V-580C82 -584 128 -588 155 -588ZM700 -42C701 -96 700 -131 697 -180L652 -178C653 -126 652 -89 648 -38ZM682 -734C648 -734 603 -736 587 -737C588 -713 588 -682 588 -649V-312C588 -277 587 -247 586 -224C605 -229 633 -231 677 -231H863C863 -184 857 -95 852 -62C846 -14 840 -9 767 -2C785 26 794 51 796 82C892 51 903 43 913 -24C917 -50 921 -113 925 -243C926 -266 926 -276 929 -297C904 -294 877 -293 825 -293H648V-347H826C871 -347 912 -345 951 -341V-413C912 -409 871 -407 826 -407H648V-457H821C843 -457 867 -456 888 -454C886 -477 886 -508 886 -542V-649C886 -683 886 -713 888 -737C869 -735 799 -734 743 -734C761 -784 771 -798 784 -809C794 -816 792 -824 780 -824C759 -824 724 -832 703 -840C699 -800 690 -766 682 -734Z"/>
</svg>