<svg xmlns="http://www.w3.org/2000/svg" viewBox="0 -1000 1000 1000">
	<path fill="#000000" d="M730 -303H255V-332H730ZM730 -376H255V-405H730ZM236 -57L161 -78C145 -43 118 -3 85 30L162 62C189 26 214 -15 236 -57ZM393 39C387 7 376 -34 366 -69L288 -58C305 -14 310 12 311 45ZM554 23C544 -12 533 -44 522 -71L446 -61C461 -32 473 0 479 33ZM695 7C691 -19 678 -61 663 -84L595 -68C612 -43 623 -3 624 24ZM662 -690H795C780 -656 758 -626 732 -600C699 -631 678 -659 662 -690ZM400 -451C302 -451 220 -452 182 -454C183 -438 184 -415 184 -392V-155C184 -130 183 -108 182 -93C216 -96 267 -98 345 -98H801C797 -64 795 -40 791 -20C788 -5 776 2 716 -6C736 20 744 49 745 77C801 72 831 58 846 37C856 23 865 -3 870 -51C874 -95 881 -132 888 -152C841 -150 794 -149 701 -149H255V-180H686C764 -180 841 -178 909 -175V-231C841 -228 764 -227 686 -227H255V-258H685C724 -258 766 -257 805 -256C801 -272 799 -294 799 -317V-392C799 -416 801 -438 805 -454C767 -452 705 -451 600 -451C652 -471 696 -494 732 -522C786 -481 817 -470 892 -451C901 -480 915 -501 943 -523C863 -531 815 -543 780 -564C815 -600 842 -642 864 -690C894 -690 918 -689 938 -687V-749C908 -744 861 -741 806 -741H673C690 -768 701 -779 713 -783C734 -791 731 -800 712 -802C696 -804 658 -816 632 -831C619 -777 591 -729 535 -664C504 -661 466 -660 399 -660L531 -790C493 -787 430 -785 321 -785C210 -785 137 -787 98 -791V-728C136 -732 210 -735 276 -735H393L340 -681C310 -703 284 -717 255 -730L205 -689C235 -680 253 -671 272 -660C145 -660 108 -661 62 -665V-608C120 -610 160 -611 270 -611C226 -572 144 -524 49 -500C70 -489 91 -471 107 -442C203 -494 271 -541 320 -587V-541C320 -521 310 -516 256 -520C278 -497 285 -479 290 -454C377 -469 388 -483 388 -513V-611H480L450 -563L514 -546L554 -639C562 -632 571 -624 582 -613C590 -622 604 -639 617 -656C636 -620 659 -588 686 -561C638 -527 581 -506 524 -501C543 -486 558 -469 565 -451H473C487 -479 493 -487 501 -491C512 -497 512 -503 498 -505C469 -509 448 -513 412 -522C411 -501 408 -477 400 -451Z"/>
</svg>