<svg xmlns="http://www.w3.org/2000/svg" viewBox="0 -1000 1000 1000">
	<path fill="#000000" d="M809 -502H599V-562H809ZM809 -617H599V-674H809ZM191 -619H134V-721H191ZM258 -559C256 -578 255 -623 255 -670C255 -716 257 -763 258 -782C234 -780 196 -779 164 -779C132 -779 94 -780 70 -782C71 -764 72 -715 72 -670C72 -622 72 -579 70 -559C94 -561 132 -562 164 -562C196 -562 234 -561 258 -559ZM421 -619H365V-721H421ZM486 -559C484 -579 484 -622 484 -670C484 -721 485 -764 486 -782C462 -780 425 -779 393 -779C361 -779 324 -780 300 -782C301 -763 303 -717 303 -671C303 -627 302 -578 300 -559C324 -561 361 -562 393 -562C425 -562 462 -561 486 -559ZM545 -169L472 -178C469 -119 457 -52 439 -10L520 -3C527 -59 537 -125 545 -169ZM645 -37C637 -84 634 -135 634 -172L563 -167C570 -129 573 -93 570 -31ZM738 -50C732 -88 724 -142 720 -174L654 -171C664 -133 668 -91 666 -44ZM831 -65C822 -110 815 -149 810 -184L741 -175C753 -147 761 -108 765 -53ZM465 -434V-502C419 -499 366 -498 280 -498C194 -498 141 -499 95 -502V-433C141 -435 194 -437 280 -437C366 -437 419 -435 465 -434ZM243 -312H370C418 -312 471 -309 494 -306V-377C471 -374 430 -373 268 -373C106 -373 65 -374 42 -377V-306C65 -310 102 -312 166 -312C158 -253 151 -215 137 -164C155 -165 178 -166 213 -166H340C333 -82 329 -55 321 -40C313 -26 298 -14 205 -22C229 9 237 28 239 70C376 51 402 22 410 -115C413 -169 421 -208 429 -232C411 -230 391 -229 339 -229H229ZM599 -394V-440H796C825 -440 856 -439 885 -437C882 -460 881 -496 881 -530V-649C881 -683 882 -714 885 -738C856 -735 825 -735 796 -735H689C707 -782 716 -797 731 -804C745 -810 744 -820 729 -821C703 -823 653 -832 622 -839C622 -809 619 -775 612 -735C589 -735 547 -737 526 -738C527 -714 528 -683 528 -650V-301C528 -266 528 -237 526 -214C551 -219 581 -220 659 -220H856C854 -108 851 -62 845 -34C840 -8 827 -2 739 -5C770 23 779 45 783 81C877 60 892 52 911 6C921 -18 927 -80 930 -213C931 -244 933 -266 937 -287C902 -285 856 -284 787 -284H599V-334H796C853 -334 910 -333 960 -328V-400C910 -395 853 -394 796 -394Z"/>
</svg>