<svg xmlns="http://www.w3.org/2000/svg" viewBox="0 -1000 1000 1000">
	<path fill="#000000" d="M809 -518H606V-574H809ZM400 -516H182V-586H400ZM809 -632H606V-689H809ZM400 -652H182V-720H400ZM584 -165L527 -175C519 -120 507 -62 491 -20L550 2C563 -49 577 -121 584 -165ZM667 -30C663 -77 660 -134 660 -171L602 -167C607 -129 608 -84 607 -26ZM750 -46C745 -84 740 -145 739 -178L683 -174C690 -135 693 -85 692 -39ZM836 -63C830 -108 824 -157 821 -192L764 -186C771 -156 776 -107 779 -53ZM152 -325H281C259 -242 223 -185 179 -143C199 -129 219 -112 229 -96C253 -124 275 -160 295 -201C316 -177 335 -148 350 -120L401 -158C378 -186 351 -216 316 -250C325 -274 334 -299 341 -325H425L409 -74C407 -35 394 -17 336 -25V-72C314 -67 268 -67 170 -67V-201C170 -220 172 -242 181 -252C187 -259 186 -263 176 -262C157 -260 124 -261 104 -266C106 -238 106 -210 106 -185V-69C106 -39 106 -14 104 2C119 1 176 0 219 0C267 -1 322 1 336 2V-10C350 19 356 39 358 58C447 36 473 8 478 -79L498 -396C473 -392 423 -388 375 -388H206C225 -411 243 -435 258 -458C268 -458 277 -458 288 -458C400 -458 436 -456 467 -453C466 -490 466 -557 466 -622C466 -687 466 -752 467 -790C434 -785 400 -784 288 -784C176 -784 143 -786 112 -790C114 -753 115 -687 115 -622C115 -557 114 -492 112 -453C129 -456 148 -457 182 -457C144 -394 99 -358 30 -312C52 -293 66 -272 75 -251C100 -273 126 -298 152 -325ZM664 -748H621C595 -748 566 -749 539 -751C540 -727 541 -696 541 -663V-299C541 -264 541 -242 539 -219C562 -224 589 -225 662 -225H859C857 -113 853 -68 847 -38C840 -1 824 10 754 -3C771 31 773 48 772 83C873 75 896 52 910 -10C914 -32 917 -75 925 -216C927 -247 929 -266 933 -287C900 -285 860 -284 796 -284H606V-343H804C856 -343 909 -342 955 -337V-407C909 -402 856 -401 804 -401H606V-456H796C823 -456 852 -455 878 -453C875 -476 874 -507 874 -541V-662C874 -696 875 -727 878 -751C852 -748 823 -748 796 -748H729C744 -789 755 -806 763 -810C775 -816 773 -823 759 -824C734 -826 697 -831 667 -837C668 -810 667 -788 664 -748Z"/>
</svg>