<svg xmlns="http://www.w3.org/2000/svg" viewBox="0 -1000 1000 1000">
	<path fill="#000000" d="M777 -680H198V-733H777ZM518 -256H354V-305H518ZM586 -305H766V-256H586ZM667 -125C650 -105 629 -89 603 -74C557 -82 511 -89 469 -95C478 -105 486 -115 495 -125ZM518 -461V-432H366V-461ZM366 -510V-537H518V-510ZM586 -510V-537H752V-510ZM752 -461V-432H586V-461ZM823 -461C860 -461 899 -458 931 -452V-519C899 -513 860 -510 823 -510C824 -542 825 -570 827 -592C763 -588 702 -586 586 -586V-627C734 -627 836 -624 862 -622C860 -640 858 -676 858 -708C858 -742 860 -775 862 -793C830 -787 779 -786 487 -786C197 -786 155 -787 116 -793C120 -679 120 -596 121 -421C122 -187 97 -79 37 13C70 25 96 40 117 61C186 -100 198 -212 198 -627H518V-586C416 -587 354 -588 295 -592C297 -570 299 -541 299 -509C268 -510 238 -513 212 -517V-450C238 -454 268 -457 299 -459C298 -428 297 -398 295 -376C352 -379 415 -381 518 -381V-350C410 -350 344 -351 282 -354C285 -336 286 -310 286 -283C286 -254 285 -225 282 -206C338 -209 385 -210 475 -210C468 -197 461 -185 454 -174C374 -174 294 -177 220 -183V-116C284 -121 370 -125 420 -125C402 -102 383 -83 360 -63C418 -54 468 -45 512 -36C428 -12 323 -3 207 -9C245 9 265 30 273 63C410 57 535 28 618 -14C716 9 785 33 861 63C870 32 881 11 897 -9C832 -27 759 -44 686 -58C716 -81 736 -98 756 -124C815 -123 872 -120 928 -116V-183C850 -177 772 -174 685 -174H528C534 -185 541 -197 548 -210C682 -210 777 -209 845 -206C843 -224 841 -250 841 -277C841 -306 843 -335 845 -354C779 -351 709 -350 586 -350V-381C702 -381 766 -379 827 -376C825 -398 824 -429 823 -461Z"/>
</svg>