<svg xmlns="http://www.w3.org/2000/svg" viewBox="0 -1000 1000 1000">
	<path fill="#000000" d="M824 -637H578V-694H824ZM824 -526H578V-585H824ZM537 -179L480 -189C473 -139 461 -88 443 -32L510 -16C521 -59 532 -126 537 -179ZM626 -41C625 -96 623 -135 619 -182L565 -180C568 -128 569 -88 568 -36ZM723 -47C720 -90 713 -145 706 -186L654 -183C659 -138 663 -96 664 -46ZM821 -54C818 -100 813 -148 805 -190L746 -185C753 -140 756 -105 758 -52ZM191 -112H357V-72C357 -40 345 -28 274 -34C288 -12 294 7 295 52C405 27 424 6 424 -49V-342C424 -367 425 -382 427 -398C400 -395 361 -395 275 -395C189 -395 149 -396 121 -398C123 -383 124 -367 124 -342V-79C124 -27 122 10 118 55H191ZM357 -224V-167H191V-224ZM191 -282V-336H357V-282ZM192 -608H258V-506H192ZM375 -506H319V-663H192V-724H375ZM126 -506C97 -506 79 -508 56 -510V-401H127V-454H424V-401H492V-510C474 -508 459 -507 441 -506V-684C441 -730 442 -767 444 -790C412 -787 376 -785 282 -785C188 -785 161 -786 123 -790C125 -765 126 -731 126 -684ZM636 -750C575 -750 536 -751 508 -753C509 -729 510 -698 510 -665V-316C510 -281 508 -249 506 -226C531 -231 571 -233 629 -233H861C863 -184 860 -107 851 -59C842 -9 827 -3 750 -10C768 24 773 41 773 78C885 61 902 46 914 -14C919 -40 926 -129 928 -220C929 -255 933 -279 937 -300C902 -297 868 -296 799 -296H577V-356H785C843 -356 899 -354 950 -350V-419C899 -415 843 -413 785 -413H577V-470H762C826 -470 867 -469 895 -466C892 -489 890 -521 890 -555V-665C890 -699 892 -731 896 -755C868 -752 826 -750 761 -750H706C726 -788 733 -794 743 -799C755 -804 754 -813 741 -815C719 -818 679 -829 650 -840C648 -812 643 -783 636 -750Z"/>
</svg>