<svg xmlns="http://www.w3.org/2000/svg" viewBox="0 -1000 1000 1000">
	<path fill="#000000" d="M712 -274H256V-302H712ZM712 -338H256V-368H712ZM219 -61L142 -84C126 -40 105 -16 63 26L136 62C168 26 196 -13 219 -61ZM373 27C365 -8 355 -41 342 -76L277 -71C286 -38 292 -1 294 35ZM533 16C524 -20 515 -44 495 -81L428 -71C443 -39 454 -5 461 32ZM681 -1C672 -30 663 -55 651 -81L579 -73C598 -38 607 -17 617 14ZM256 -212V-238H613C719 -238 745 -237 783 -235C780 -250 778 -270 778 -290V-356C778 -377 779 -397 783 -411C745 -410 712 -410 572 -410H458C466 -425 475 -436 481 -440C496 -449 493 -458 475 -458C451 -458 419 -462 393 -469C394 -445 393 -426 390 -410C245 -410 220 -410 184 -411C186 -397 187 -377 187 -356V-144C187 -122 186 -105 184 -91C217 -92 320 -94 397 -94H792C790 -70 785 -49 780 -34C767 7 751 11 686 -8C701 23 709 51 711 79C795 73 824 46 841 -4C849 -28 857 -59 862 -93C866 -116 868 -129 871 -143C826 -141 781 -141 690 -141H256V-168H665C742 -168 816 -167 883 -164V-216C816 -213 742 -212 665 -212ZM255 -561C266 -570 263 -573 253 -573C242 -573 214 -580 196 -588C192 -550 180 -523 162 -491C183 -490 206 -485 223 -477C242 -543 249 -556 255 -561ZM459 -530C436 -555 420 -577 408 -601L356 -571C375 -549 388 -528 399 -499ZM239 -740C212 -764 183 -785 151 -805L105 -760C135 -742 167 -716 191 -692ZM504 -756C518 -758 519 -767 504 -772C491 -778 470 -792 448 -810C425 -781 395 -754 358 -732C379 -722 397 -709 410 -695C466 -741 488 -754 504 -756ZM338 -682V-775C338 -785 341 -793 352 -802C365 -811 364 -817 341 -816C318 -815 291 -816 264 -820C268 -801 272 -764 272 -741V-682C146 -682 111 -683 86 -686C88 -669 89 -663 89 -615V-454C89 -431 87 -409 84 -385H152V-635H272V-510C272 -478 271 -456 266 -420H342C338 -456 338 -478 338 -510V-635H468V-465H533C531 -485 529 -509 529 -541V-610C529 -659 529 -667 533 -686C513 -684 470 -682 338 -682ZM722 -576C687 -603 659 -631 642 -667C647 -677 651 -686 654 -692H793C779 -640 756 -607 722 -576ZM725 -503C775 -468 859 -433 916 -422C922 -454 932 -477 952 -500C883 -506 815 -523 772 -544C809 -584 841 -637 859 -692C889 -692 902 -691 922 -689V-755C892 -749 878 -748 801 -748H680C694 -775 705 -790 714 -794C732 -802 732 -807 714 -810C693 -813 662 -820 630 -829C616 -744 588 -677 538 -610C560 -605 583 -595 597 -582C601 -589 606 -600 613 -612C631 -588 654 -564 677 -542C640 -520 588 -493 545 -482C568 -465 583 -447 590 -424C639 -444 680 -467 725 -503Z"/>
</svg>