<svg xmlns="http://www.w3.org/2000/svg" viewBox="0 -1000 1000 1000">
	<path fill="#000000" d="M824 -511H617V-573H824ZM824 -628H617V-687H824ZM436 -294H178V-343H436ZM502 -234C498 -246 496 -276 496 -301V-433C496 -458 498 -488 502 -500C461 -496 424 -495 307 -495C188 -495 162 -496 110 -500C114 -488 117 -458 117 -433V-301C117 -276 114 -246 110 -234C149 -238 188 -239 307 -239C424 -239 461 -238 502 -234ZM436 -391H178V-443H436ZM691 -53C683 -108 680 -133 675 -180L624 -179C630 -127 631 -98 628 -46ZM765 -64C759 -109 752 -146 744 -187L690 -184C706 -141 712 -104 710 -54ZM841 -75C834 -126 827 -160 815 -199L756 -187C774 -152 780 -120 782 -71ZM614 -179L557 -186C552 -113 545 -81 526 -39L593 -32C603 -88 608 -124 614 -179ZM647 -741C619 -741 579 -742 553 -744C554 -720 555 -688 555 -655V-321C555 -286 554 -256 553 -233C578 -237 622 -238 678 -238H860C860 -173 855 -65 851 -42C844 -11 822 -2 743 -11C768 20 777 46 780 79C888 63 912 15 914 -32C916 -81 921 -169 924 -220C927 -269 928 -280 932 -301C897 -298 865 -297 800 -297H617V-346H776C854 -346 886 -345 936 -341V-409C886 -405 853 -404 776 -404H617V-453H805C834 -453 861 -452 890 -450C887 -473 886 -503 886 -537V-655C886 -689 887 -720 890 -744C861 -742 834 -741 805 -741H718C738 -786 745 -796 756 -804C767 -811 767 -815 752 -816C721 -818 692 -822 664 -828C665 -801 660 -772 647 -741ZM477 -57C450 -67 437 -78 417 -106C406 -40 399 -35 372 -35H258C243 -35 235 -44 235 -63V-153C235 -165 235 -171 241 -177C249 -185 246 -191 237 -190C211 -188 203 -189 172 -196C175 -177 176 -157 176 -133V-27C176 10 192 27 237 27H390C429 27 451 10 477 -57ZM155 -157L98 -179C87 -115 74 -74 47 -24L106 2C127 -46 138 -79 155 -157ZM535 -92C506 -142 498 -155 460 -207L418 -168C450 -125 462 -108 486 -54ZM383 -112C364 -158 352 -185 330 -224L277 -200C297 -161 314 -120 324 -86ZM205 -593C156 -594 93 -597 61 -600V-529C125 -534 198 -537 312 -537C424 -537 477 -534 540 -529V-600C499 -596 463 -594 407 -593C424 -623 431 -634 438 -640C452 -649 452 -657 439 -661C428 -665 397 -680 378 -691C371 -659 362 -633 345 -593H268C251 -626 238 -650 221 -680L157 -649C175 -630 191 -612 205 -593ZM276 -749C198 -750 145 -752 98 -756V-688C151 -693 213 -696 310 -696C406 -696 459 -693 512 -688V-756C465 -752 419 -750 343 -749C340 -776 336 -797 328 -835L247 -820C261 -787 269 -770 276 -749Z"/>
</svg>