<svg xmlns="http://www.w3.org/2000/svg" viewBox="0 -1000 1000 1000">
	<path fill="#000000" d="M821 -634H600V-689H821ZM821 -522H600V-576H821ZM436 -648H357V-730H436ZM496 -589C494 -617 494 -651 494 -687C494 -724 495 -762 496 -787C472 -784 447 -783 399 -783C350 -783 325 -784 299 -787C301 -762 302 -725 302 -688C302 -652 301 -615 299 -589C324 -591 350 -591 399 -591C447 -591 472 -591 496 -589ZM205 -648H120V-732H205ZM262 -591C261 -619 260 -653 260 -689C260 -726 261 -764 262 -789C240 -786 208 -785 162 -785C115 -785 84 -786 59 -789C61 -764 62 -727 62 -690C62 -654 61 -617 59 -591C83 -592 115 -593 162 -593C208 -593 240 -592 262 -591ZM579 -167L516 -177C508 -122 494 -64 478 -22L541 0C555 -52 571 -123 579 -167ZM667 -32C662 -79 659 -136 659 -173L598 -169C603 -131 603 -86 601 -28ZM756 -48C751 -86 746 -147 745 -180L685 -176C692 -137 696 -87 695 -41ZM845 -55C839 -100 833 -149 829 -184L767 -178C774 -148 780 -99 783 -45ZM600 -408V-458H807C836 -458 867 -457 896 -455C893 -478 892 -509 892 -543V-664C892 -698 893 -729 896 -753C867 -750 836 -750 807 -750H738C755 -791 767 -808 776 -812C789 -818 787 -825 771 -826C744 -828 703 -833 671 -839C672 -812 671 -790 667 -750H621C592 -750 561 -751 532 -753C533 -729 534 -698 534 -665V-301C534 -266 534 -237 532 -214C557 -219 587 -220 665 -220H870C868 -108 865 -74 858 -38C851 -1 832 10 756 -3C774 31 777 48 776 83C885 75 911 52 925 -10C930 -32 934 -85 942 -218C944 -249 947 -268 951 -289C916 -287 871 -286 802 -286H600V-346H790C847 -346 904 -344 954 -340V-414C904 -410 847 -408 790 -408ZM248 -293H149V-364H248ZM311 -364H411V-293H311ZM248 -418H149V-487H248ZM311 -487H411V-418H311ZM311 -169V-235C405 -235 458 -233 476 -229C474 -247 473 -280 473 -313V-466C473 -499 474 -530 476 -550C458 -545 421 -544 282 -544C139 -544 107 -545 85 -550C87 -530 88 -499 88 -466V-313C88 -280 87 -247 85 -229C102 -233 151 -235 248 -235V-169C160 -169 96 -172 46 -176V-104C96 -109 160 -111 248 -111C248 -41 245 8 237 69H321C314 9 311 -44 311 -111C393 -110 449 -108 498 -104V-176C449 -172 393 -170 311 -169Z"/>
</svg>