<svg xmlns="http://www.w3.org/2000/svg" viewBox="0 -1000 1000 1000">
	<path fill="#000000" d="M724 -257H274V-283H724ZM459 -431C457 -451 456 -478 456 -504C456 -531 458 -562 460 -582C428 -579 391 -578 328 -578C256 -578 223 -579 194 -582C197 -595 199 -608 201 -622H365C415 -622 451 -621 473 -617C470 -646 468 -677 468 -708C468 -739 469 -766 473 -794C450 -792 398 -790 303 -790C225 -790 175 -791 140 -794C149 -598 128 -547 60 -482C88 -468 100 -456 117 -434C154 -482 179 -524 193 -576C196 -559 198 -537 198 -507C198 -477 197 -453 194 -432C225 -435 250 -436 328 -436C359 -436 385 -436 406 -435C407 -417 406 -401 403 -386C262 -386 238 -386 202 -387C204 -375 205 -358 205 -339V-138C205 -118 204 -103 202 -91C235 -92 338 -93 415 -93H818C817 -73 811 -42 806 -28C793 9 780 14 712 -4C730 29 731 46 733 74C817 69 854 45 867 -1C873 -20 881 -60 888 -99C891 -116 894 -127 897 -139C852 -138 807 -138 716 -138H274V-163H691C768 -163 842 -162 909 -159V-203C842 -200 768 -199 691 -199H274V-222H625C731 -222 757 -221 795 -219C791 -233 790 -249 790 -267V-339C790 -358 791 -375 795 -387C757 -386 724 -386 584 -386H472C480 -399 488 -410 494 -413C509 -421 506 -429 488 -429C480 -429 471 -430 459 -431ZM724 -318H274V-344H724ZM201 -740H407V-677H201ZM258 -531H399V-482H258ZM236 -63L159 -84C143 -44 122 -16 80 22L153 55C184 19 205 -9 236 -63ZM388 27C378 -14 370 -42 357 -73L292 -69C301 -39 306 -10 309 34ZM550 17C536 -27 530 -43 512 -78L445 -69C466 -21 471 -4 478 31ZM702 -4C694 -30 683 -60 672 -83L598 -73C615 -42 627 -16 636 13ZM678 -636C667 -658 660 -672 653 -691L577 -668C588 -650 596 -638 603 -619ZM796 -702C839 -700 873 -697 903 -693V-764C850 -757 821 -755 687 -755L759 -771C752 -797 748 -809 741 -833L656 -819C666 -799 673 -777 677 -755C612 -756 556 -758 516 -764V-693C562 -699 633 -704 714 -704C738 -704 761 -703 782 -703C770 -676 756 -645 735 -614H634C600 -614 537 -616 487 -619V-556C532 -560 595 -563 678 -564V-517C618 -518 567 -520 533 -522V-462C567 -464 618 -466 678 -467C677 -443 674 -425 669 -402H758C753 -429 751 -447 749 -467C809 -466 855 -464 890 -462V-522C855 -520 809 -518 749 -517V-564C829 -563 892 -560 934 -556V-619C901 -617 839 -615 797 -614C819 -643 833 -656 848 -661C860 -665 862 -675 846 -679C829 -683 811 -692 796 -702Z"/>
</svg>