<svg xmlns="http://www.w3.org/2000/svg" viewBox="0 -1000 1000 1000">
	<path fill="#000000" d="M547 -476H415V-509H547ZM354 -431C384 -434 436 -436 486 -436C534 -436 581 -434 613 -431C607 -452 606 -470 606 -490V-518C606 -536 607 -545 610 -553C590 -551 561 -551 484 -551C408 -551 378 -551 357 -553C358 -543 358 -534 358 -518V-491C358 -468 357 -453 354 -431ZM723 -260H254V-283H723ZM723 -321H254V-344H723ZM223 -61L151 -80C135 -40 111 -8 70 26L139 57C170 23 200 -18 223 -61ZM374 35C368 0 359 -35 347 -65L280 -61C290 -31 296 9 298 42ZM542 27C534 -2 522 -35 505 -70L437 -61C451 -31 463 6 470 39ZM699 3C691 -19 678 -54 668 -79L595 -69C613 -36 624 -10 633 17ZM845 -792L799 -754C830 -733 856 -704 869 -683L921 -720C902 -741 876 -766 845 -792ZM613 -578V-619C577 -617 543 -615 480 -615C416 -615 379 -617 346 -619V-578C379 -579 416 -581 480 -581C543 -581 577 -579 613 -578ZM616 -637V-676C583 -675 553 -675 483 -675C423 -675 382 -675 350 -676V-637C383 -639 423 -641 483 -641C553 -641 583 -639 616 -637ZM475 -742C410 -742 361 -743 325 -745V-700C363 -701 413 -703 487 -703C561 -703 610 -702 648 -700V-745C609 -742 576 -742 483 -742L531 -776C512 -792 491 -816 474 -832L418 -798C447 -777 464 -760 475 -742ZM760 -543C767 -515 777 -490 789 -474C830 -417 851 -396 883 -374C900 -399 913 -414 935 -429C903 -443 875 -462 851 -495C810 -552 793 -581 785 -622C849 -622 890 -621 924 -617V-677C890 -675 849 -674 786 -674C789 -700 790 -727 791 -760C791 -774 797 -789 810 -797C820 -803 820 -813 809 -812C778 -811 751 -811 716 -812C724 -790 728 -745 725 -674C686 -675 657 -676 630 -677V-617C655 -620 683 -621 721 -622C712 -571 693 -524 672 -495C636 -445 617 -424 584 -414C601 -410 618 -398 630 -386H475C481 -397 487 -404 493 -407C508 -415 505 -423 486 -423C462 -423 435 -427 411 -433C412 -417 410 -401 407 -386C251 -386 223 -386 186 -387C188 -375 189 -358 189 -339V-133C189 -113 188 -100 186 -86C221 -87 280 -88 365 -88H817C814 -62 810 -40 805 -26C793 5 777 17 709 4C724 32 727 50 730 80C816 75 850 46 867 1C875 -20 883 -52 888 -87C890 -104 894 -120 898 -132C852 -131 806 -131 713 -131H254V-157H687C766 -157 844 -156 913 -153V-200C844 -197 766 -196 687 -196H254V-221H615C723 -221 753 -220 792 -218C788 -232 787 -248 787 -266V-339C787 -358 788 -375 792 -387C762 -386 733 -386 657 -386C713 -431 740 -473 760 -543ZM237 -651C185 -600 122 -565 66 -549C87 -532 100 -513 107 -496C164 -525 209 -554 248 -591C249 -566 249 -536 245 -500C242 -469 223 -454 108 -454C133 -431 143 -407 144 -389C288 -404 303 -424 308 -499C316 -608 298 -675 262 -719C312 -758 320 -761 336 -763C353 -766 360 -775 337 -780C315 -786 296 -798 281 -812C265 -794 245 -775 221 -756C194 -777 171 -789 139 -806L88 -765C115 -757 139 -746 175 -723C143 -703 106 -685 67 -670C87 -661 106 -645 115 -628C159 -649 191 -667 218 -685C225 -675 232 -664 237 -651Z"/>
</svg>