<svg xmlns="http://www.w3.org/2000/svg" viewBox="0 -1000 1000 1000">
	<path fill="#000000" d="M449 -41H249V-197C249 -210 254 -222 260 -226C272 -235 269 -242 253 -241C230 -240 191 -243 159 -248C164 -235 166 -212 166 -190V-30C165 -9 162 13 158 34C187 31 269 27 354 27H743V61H833C828 26 826 13 826 -31V-201C826 -215 834 -226 843 -230C857 -236 853 -244 831 -243C799 -241 768 -242 736 -249C740 -232 743 -202 743 -139V-41H534V-252C534 -291 539 -301 544 -304C565 -318 560 -328 532 -326C501 -324 483 -324 442 -330C446 -311 449 -280 449 -220ZM372 -523C332 -411 259 -360 95 -334C114 -318 138 -282 147 -262C336 -317 406 -375 451 -523H679L664 -412C659 -380 648 -374 564 -376C586 -353 599 -326 603 -288C703 -301 731 -324 739 -378L767 -569C814 -536 864 -508 914 -488C927 -520 950 -556 972 -577C828 -619 703 -697 618 -836L551 -793C599 -720 664 -648 738 -591C686 -588 608 -586 514 -586H244C279 -618 309 -647 328 -671C378 -732 415 -770 427 -774C442 -779 442 -786 425 -794C398 -807 372 -821 345 -838C277 -706 164 -599 36 -531C62 -517 89 -495 112 -473C156 -508 197 -542 232 -575V-514C269 -519 324 -522 372 -523Z"/>
</svg>