<svg xmlns="http://www.w3.org/2000/svg" viewBox="0 -1000 1000 1000">
	<path fill="#000000" d="M850 -578C861 -560 870 -544 875 -533L948 -585C900 -645 858 -694 805 -752L751 -709C767 -693 789 -666 810 -636L578 -617C611 -655 634 -684 667 -728C695 -765 711 -779 725 -786C755 -800 750 -809 726 -812C704 -815 667 -828 636 -844C617 -772 582 -716 514 -636C502 -622 481 -603 465 -599C482 -581 496 -555 500 -535C539 -545 584 -554 627 -558ZM680 -414H589C602 -444 614 -462 623 -468C631 -474 629 -479 619 -480C603 -481 569 -491 544 -503C530 -428 500 -344 465 -290C491 -279 505 -267 522 -244C541 -279 550 -300 567 -350H680V-203C599 -204 545 -207 496 -213V-125C544 -131 599 -134 680 -135C679 -63 676 11 671 73H765C760 11 757 -63 756 -135C833 -134 888 -131 934 -125V-213C888 -207 833 -204 756 -203V-349C813 -348 858 -346 900 -344V-420C860 -417 815 -415 756 -414V-469C756 -486 760 -495 775 -504C785 -510 784 -516 772 -516C748 -516 705 -519 673 -523C677 -503 679 -478 680 -414ZM493 -395C461 -427 401 -476 366 -495L321 -455C392 -405 404 -396 440 -348ZM251 -657V-548C234 -562 213 -575 192 -588C204 -605 213 -615 218 -617C227 -622 230 -626 217 -630C194 -637 183 -644 167 -657ZM315 -714V-769C315 -783 317 -795 333 -805C350 -816 346 -821 326 -821C297 -821 271 -825 241 -832C245 -813 250 -766 251 -714C125 -714 103 -716 79 -721V-649C102 -655 124 -657 153 -657C124 -575 98 -538 51 -487C80 -484 90 -477 115 -458C132 -491 148 -520 162 -543C186 -530 204 -512 217 -494L251 -530V-505C191 -429 131 -382 47 -339C73 -326 89 -308 104 -283C173 -338 217 -379 251 -420V-375C248 -376 246 -378 243 -379C209 -302 149 -222 77 -163C106 -157 122 -148 145 -128C174 -162 208 -206 236 -243H370C362 -217 345 -184 326 -158C308 -172 289 -187 269 -203L219 -160C240 -145 263 -127 286 -107C226 -46 149 -7 65 11C95 27 112 48 126 78C220 32 275 -1 333 -65C361 -37 385 -11 397 8L464 -43C438 -65 409 -90 376 -117C416 -173 448 -242 466 -304C435 -301 409 -299 365 -299H276C293 -324 300 -332 308 -335C322 -341 322 -346 308 -351C295 -355 283 -359 263 -369H315V-523C338 -518 349 -513 371 -500C382 -516 391 -530 399 -541C423 -524 443 -502 459 -478L500 -522C482 -541 452 -567 428 -585C444 -607 449 -610 454 -612C470 -617 469 -621 456 -626C442 -631 422 -643 401 -657C430 -657 454 -654 476 -649V-721C456 -717 432 -715 315 -714ZM391 -657C378 -604 360 -570 315 -526V-657Z"/>
</svg>