<svg xmlns="http://www.w3.org/2000/svg" viewBox="0 -1000 1000 1000">
	<path fill="#000000" d="M245 -527C235 -573 226 -621 219 -661L169 -645C178 -608 187 -562 192 -519ZM411 -649L355 -667C350 -623 344 -599 323 -535L370 -518C390 -584 400 -615 411 -649ZM151 -116L91 -127C88 -80 71 -15 48 38L120 51C137 1 151 -64 151 -116ZM264 25C260 -34 256 -78 249 -127L192 -122C199 -78 202 -14 199 27ZM383 0C376 -46 367 -92 357 -135L301 -127C309 -90 317 -33 317 10ZM502 -19C489 -65 475 -112 460 -153L399 -137C415 -99 429 -42 435 1ZM318 -714H418V-467H318ZM259 -467H158V-714H259ZM259 -227C186 -223 116 -221 63 -223C70 -207 80 -168 82 -145C189 -159 357 -172 494 -180C495 -201 502 -235 506 -251C448 -243 383 -236 318 -231V-294C389 -294 426 -293 470 -289V-357C426 -352 389 -351 318 -351V-410C383 -410 439 -409 480 -407C479 -440 478 -470 478 -510V-676C478 -717 479 -754 480 -783C427 -776 389 -775 288 -775C188 -775 146 -776 94 -783C96 -753 96 -716 96 -674V-511C96 -471 96 -439 94 -406C136 -409 191 -410 259 -410V-351C184 -351 146 -352 100 -357V-289C145 -293 184 -294 259 -294ZM602 -422C627 -282 663 -158 704 -81C755 13 833 66 873 68C892 69 935 21 958 -97C934 -109 919 -127 891 -180C869 -4 833 4 755 -144C722 -207 690 -334 673 -440L807 -474C856 -486 915 -499 945 -504L931 -581C901 -569 848 -553 797 -541L664 -509C662 -532 660 -559 658 -592C650 -723 655 -775 665 -790C681 -809 679 -818 661 -817C636 -816 592 -822 570 -832C572 -763 580 -623 586 -556C588 -535 590 -512 593 -491C553 -482 515 -477 486 -474L497 -390C531 -402 569 -414 602 -422ZM864 -661C835 -688 798 -736 773 -779L706 -731C737 -703 777 -643 790 -604Z"/>
</svg>