<svg xmlns="http://www.w3.org/2000/svg" viewBox="0 -1000 1000 1000">
	<path fill="#000000" d="M225 -527C216 -565 208 -618 205 -651L161 -645C170 -609 176 -565 175 -518ZM388 -651L330 -665C328 -622 325 -602 311 -534L352 -523C370 -600 375 -617 388 -651ZM798 -348H607V-488H798ZM139 -124L85 -126C87 -86 77 -34 55 18L121 26C132 -10 140 -76 139 -124ZM254 11C252 -33 251 -83 248 -129L194 -128C196 -81 197 -28 195 14ZM367 -13C359 -59 352 -99 345 -141L294 -131C302 -95 308 -47 308 -5ZM474 -47C463 -93 457 -114 444 -154L392 -141C404 -105 414 -64 420 -24ZM627 -190C606 -196 578 -206 551 -218C543 -156 510 -58 441 12C474 19 487 23 512 38C554 -35 570 -64 596 -122C607 -148 616 -161 623 -166C644 -181 642 -186 627 -190ZM953 -26C929 -82 895 -147 854 -219L792 -192C817 -147 855 -57 871 5ZM744 -286C811 -286 826 -285 869 -282C866 -356 867 -483 869 -558C822 -553 808 -552 714 -552C619 -552 586 -553 536 -558C542 -483 542 -358 536 -281C577 -284 609 -285 674 -286V-61C674 -19 663 -9 587 -20C608 7 618 26 625 67C736 62 744 52 744 -28ZM920 -628V-699C867 -694 815 -692 717 -692C619 -692 548 -694 499 -699V-628C547 -632 619 -633 717 -633C815 -633 867 -631 920 -628ZM751 -731C733 -773 723 -794 704 -828L624 -801C646 -766 658 -740 667 -702ZM303 -716H407V-465H303ZM245 -465H140V-716H245ZM245 -228C161 -221 117 -220 65 -223L82 -153C138 -165 172 -170 283 -181C390 -192 420 -195 480 -197L486 -259C428 -248 375 -240 303 -233V-298C378 -298 422 -298 466 -294V-358C422 -354 378 -352 303 -352V-411C380 -411 421 -410 467 -408C466 -440 465 -471 465 -509V-679C465 -718 466 -754 467 -782C416 -776 372 -774 275 -774C180 -774 131 -776 81 -782C83 -753 83 -717 83 -677V-508C83 -470 83 -439 81 -407C125 -410 169 -411 245 -411V-352C174 -352 130 -354 87 -358V-293C129 -296 174 -298 245 -298Z"/>
</svg>