<svg xmlns="http://www.w3.org/2000/svg" viewBox="0 -1000 1000 1000">
	<path fill="#000000" d="M238 -526C229 -573 220 -618 212 -657L155 -641C168 -603 177 -564 178 -518ZM397 -645L340 -663C336 -619 332 -599 315 -532L359 -517C375 -582 384 -611 397 -645ZM699 -704C703 -640 701 -547 685 -445H577C597 -548 616 -586 632 -594C650 -603 646 -611 634 -612C615 -614 575 -621 541 -630C524 -511 510 -445 487 -369C515 -376 581 -382 675 -383C634 -178 571 -85 398 14C422 25 447 43 464 69C607 -37 660 -100 712 -264V-66C712 44 725 51 850 51C934 51 953 39 976 -71C952 -75 923 -93 901 -116C895 -24 882 -16 847 -16C789 -16 780 -25 780 -65V-262C780 -275 786 -290 800 -295C813 -299 812 -318 788 -314C772 -312 750 -312 727 -315C734 -336 740 -359 747 -384C857 -384 908 -383 950 -380V-457C905 -447 857 -445 758 -445C766 -504 775 -608 777 -704C845 -703 897 -700 937 -694V-773C888 -767 821 -764 729 -764C637 -764 559 -767 509 -773V-694C553 -700 620 -703 699 -704ZM143 -123L82 -133C79 -87 62 -24 39 28L111 41C130 -8 143 -72 143 -123ZM259 16C253 -42 247 -85 239 -133L182 -128C189 -85 194 -25 189 18ZM370 -9C363 -54 354 -99 344 -141L289 -133C297 -97 304 -41 304 1ZM480 -43C468 -90 459 -119 444 -159L384 -143C399 -106 408 -67 413 -24ZM303 -707H403V-472H303ZM245 -472H146V-707H245ZM245 -228C165 -224 106 -222 52 -224C60 -209 70 -170 71 -147C127 -156 156 -160 269 -172C375 -183 418 -185 480 -187C483 -208 488 -239 491 -255C433 -245 370 -237 303 -232V-297C374 -297 411 -296 454 -292V-359C411 -355 374 -353 303 -353V-411C368 -411 423 -410 464 -408C463 -440 462 -470 462 -509V-672C462 -712 463 -748 464 -777C412 -770 374 -769 274 -769C175 -769 135 -770 84 -777C86 -747 86 -711 86 -670V-510C86 -471 86 -439 84 -407C125 -409 179 -411 245 -411V-353C171 -353 133 -354 88 -359V-292C132 -296 171 -297 245 -297Z"/>
</svg>