<svg xmlns="http://www.w3.org/2000/svg" viewBox="0 -1000 1000 1000">
	<path fill="#000000" d="M374 -281L334 -271C347 -219 354 -177 358 -121L411 -132C400 -186 391 -223 374 -281ZM421 -509C406 -476 393 -458 360 -424C382 -420 400 -411 415 -397C452 -445 471 -466 481 -470C489 -473 489 -478 481 -481C461 -488 438 -497 421 -509ZM244 -275L203 -280C201 -225 195 -182 178 -114L230 -107C237 -163 242 -215 244 -275ZM165 -508L112 -477C136 -454 153 -433 167 -405L229 -436C206 -456 182 -484 165 -508ZM145 -753L82 -724C104 -692 116 -655 126 -607L193 -637C173 -676 155 -720 145 -753ZM222 -571C149 -571 83 -573 54 -577V-514C85 -517 150 -519 268 -519V-384C170 -384 140 -385 102 -390C103 -373 104 -343 104 -281V-73C104 -25 102 12 96 56H166V-335H268V-165C268 -86 266 -12 261 38H330C325 -12 322 -88 322 -165V-335H426V-44C426 -19 419 -14 351 -21C376 6 381 26 380 53C480 39 488 25 488 -34V-281C488 -343 489 -371 491 -390C452 -385 414 -384 322 -384V-519C465 -519 492 -517 516 -514V-577C498 -575 439 -572 389 -571V-745C389 -759 392 -769 400 -776C414 -789 411 -795 394 -794C376 -793 350 -796 329 -801C334 -774 335 -745 335 -689V-571H276V-747C276 -761 279 -771 287 -778C301 -791 298 -797 281 -796C263 -795 237 -798 216 -803C221 -776 222 -747 222 -691ZM458 -758C450 -711 435 -676 401 -624C426 -622 440 -612 459 -602C488 -665 511 -704 527 -712C537 -717 536 -721 527 -724C501 -733 479 -743 458 -758ZM849 -789L784 -766C801 -738 811 -711 819 -679L887 -703C869 -735 858 -760 849 -789ZM608 -317H691V-203H608ZM691 -481V-368H608V-481ZM835 -368H749V-481H835ZM835 -203H749V-317H835ZM691 -613V-531C610 -531 577 -533 544 -538C546 -517 546 -480 546 -402V-95C546 -35 544 11 539 66H608V-152H691C691 -74 689 -1 684 48H757C752 -1 749 -76 749 -152H835V-49C835 -6 824 5 764 -7C793 21 800 41 800 68C889 54 896 44 896 -37V-402C896 -480 897 -515 899 -538C865 -533 831 -531 749 -531V-613C830 -613 879 -611 929 -608V-671C884 -668 831 -666 749 -665V-756C749 -770 752 -780 760 -787C774 -800 771 -806 754 -805C736 -804 706 -807 685 -812C690 -786 691 -754 691 -665C604 -665 552 -666 517 -671V-608C555 -611 605 -613 691 -613Z"/>
</svg>