<svg xmlns="http://www.w3.org/2000/svg" viewBox="0 -1000 1000 1000">
	<path fill="#000000" d="M348 -489H174V-547H348ZM414 -615C380 -609 358 -608 265 -608C171 -608 143 -609 107 -615C109 -600 111 -558 111 -532V-409C111 -383 109 -340 107 -308C143 -312 169 -314 265 -314C358 -314 379 -313 414 -307C412 -333 409 -383 409 -409V-532C409 -558 411 -592 414 -615ZM174 -430H348V-374H174ZM240 -111C218 -123 202 -134 182 -154C142 -94 105 -58 46 -18C68 -1 84 17 98 40C139 0 177 -40 193 -63C203 -76 227 -93 235 -95C248 -98 249 -107 240 -111ZM463 -29C420 -73 380 -112 335 -152L288 -107C333 -65 364 -27 404 27ZM233 -227C155 -228 115 -231 72 -237V-158C119 -166 165 -168 257 -168C360 -168 382 -166 435 -158V-237C390 -230 366 -228 298 -227C294 -258 289 -281 285 -303L220 -296C225 -277 230 -252 233 -227ZM259 -777C151 -777 100 -779 61 -785V-625H128V-712H383V-630H447V-785C412 -779 374 -777 259 -777ZM603 -545V-489H530C508 -489 485 -490 462 -492C463 -472 464 -445 464 -417V-181C464 -152 463 -124 462 -105C485 -107 507 -108 529 -108H603V-47C603 37 621 47 764 47C910 47 921 42 966 -61C935 -70 914 -80 893 -100C877 -28 865 -16 766 -15V-120H833C858 -120 880 -120 905 -118C903 -137 902 -164 902 -192V-418C902 -445 903 -471 905 -491C880 -489 857 -489 833 -489H766V-546H815C848 -546 878 -545 888 -544C887 -562 885 -607 885 -657C885 -707 887 -752 888 -771C829 -767 798 -766 685 -766C573 -766 536 -767 478 -771C481 -752 483 -706 483 -657C483 -608 480 -562 478 -544C487 -545 508 -545 542 -545ZM603 -708V-604H542V-708ZM706 -708V-16C663 -17 657 -24 657 -42V-708ZM766 -604V-708H823V-604ZM766 -341V-428H840V-341ZM840 -278V-178H766V-278ZM603 -272V-170H522V-272ZM522 -331V-429H603V-331Z"/>
</svg>