<svg xmlns="http://www.w3.org/2000/svg" viewBox="0 -1000 1000 1000">
	<path fill="#000000" d="M201 -571H433V-544H201ZM762 -642V-694C852 -693 885 -691 932 -687V-755C886 -750 852 -749 762 -749V-750C762 -773 768 -787 781 -796C793 -804 790 -809 774 -808C758 -807 715 -809 687 -813C690 -798 692 -774 692 -749C625 -749 585 -751 541 -755V-687C583 -691 625 -693 693 -694V-642C639 -642 605 -642 554 -645V-590C586 -592 624 -593 647 -593H810C786 -566 764 -545 737 -528C695 -544 652 -559 607 -575L565 -533C597 -523 633 -511 671 -496C632 -482 584 -471 520 -459C540 -440 557 -419 567 -403C641 -419 698 -439 745 -466C801 -442 856 -416 902 -392L943 -448C898 -467 850 -486 800 -504C843 -541 876 -586 907 -645C859 -643 816 -642 762 -642ZM204 -462C158 -461 114 -462 76 -463C87 -444 92 -427 92 -407C149 -411 271 -417 504 -424C505 -443 510 -462 518 -476C484 -473 447 -470 408 -467C417 -479 423 -490 429 -501C455 -501 472 -500 495 -500C494 -524 494 -542 494 -559C494 -577 494 -592 495 -616C455 -614 409 -612 315 -612C220 -612 180 -613 132 -616C135 -592 136 -577 136 -559C136 -542 135 -524 132 -499C157 -500 182 -501 224 -502L186 -493C193 -484 200 -474 204 -462ZM246 -502H369C364 -491 357 -479 346 -464C320 -463 293 -463 266 -462C260 -477 253 -489 246 -502ZM280 -714V-679C199 -679 161 -680 112 -683V-626C166 -631 211 -632 316 -632C422 -632 452 -631 504 -626V-683C459 -680 431 -679 350 -679V-714C437 -714 469 -712 523 -708V-768C472 -763 438 -762 350 -762C351 -781 357 -794 369 -802C381 -810 378 -815 362 -814C346 -814 302 -815 274 -819C277 -806 278 -785 279 -762C191 -762 136 -764 83 -768V-708C136 -712 191 -713 280 -714ZM557 -298C553 -314 550 -325 545 -339L458 -331C465 -318 470 -303 472 -284ZM478 -85H276V-124H478ZM545 -124H746V-85H545ZM545 -38H552C653 -38 716 -37 756 -37L705 -24C718 -19 730 -13 742 -7L545 -4ZM214 -175C311 -185 419 -205 497 -223C596 -197 677 -184 776 -175C728 -174 657 -172 545 -172C545 -188 549 -192 557 -193C571 -195 570 -200 555 -200C520 -199 501 -200 469 -202C472 -194 474 -184 476 -172C327 -172 260 -174 214 -175ZM597 -250C710 -288 804 -348 847 -400C781 -397 661 -394 504 -394C347 -394 222 -397 161 -400V-339C196 -341 248 -342 304 -343L263 -310C320 -282 359 -265 399 -252C306 -235 183 -221 49 -225C70 -206 80 -187 85 -169C120 -168 160 -171 202 -174C206 -166 209 -146 209 -133V-90C209 -79 204 -32 199 -15H276V-38H478V-3C215 2 160 1 102 0C120 24 130 47 134 65C166 61 249 55 444 49L820 36C833 44 845 52 856 61L927 31C875 2 842 -15 796 -36C804 -36 811 -35 816 -35C813 -43 809 -72 809 -82V-123C809 -133 811 -157 815 -172C851 -169 887 -168 920 -168C922 -190 933 -220 957 -234C850 -226 696 -236 597 -250ZM305 -343C355 -344 410 -344 464 -344H694C650 -321 581 -294 493 -272C433 -289 364 -315 305 -343Z"/>
</svg>