<svg xmlns="http://www.w3.org/2000/svg" viewBox="0 -1000 1000 1000">
	<path fill="#000000" d="M249 -148C239 -173 228 -207 214 -238L165 -221C179 -190 187 -168 198 -133ZM413 -145C404 -173 394 -206 383 -238L331 -222C343 -190 351 -163 359 -126ZM224 -39C219 -53 217 -80 219 -109C199 -91 175 -71 153 -53V-395C153 -407 156 -412 165 -419C179 -430 175 -437 156 -437C142 -437 113 -439 86 -445C90 -420 91 -394 91 -320V-84C91 -43 76 -19 55 -5C72 12 85 30 98 56C108 42 126 26 147 12ZM377 -103C358 -80 340 -66 315 -52V-394C315 -404 319 -413 325 -420C336 -432 332 -437 313 -437C298 -437 276 -439 251 -444C255 -419 256 -394 256 -320V-81C256 -34 250 -10 235 0C252 14 265 29 277 46C291 32 303 21 320 7L392 -40C384 -58 380 -75 377 -103ZM558 -143C543 -154 524 -171 512 -195C503 -141 494 -123 486 -123C479 -123 475 -132 475 -146V-399C475 -411 479 -424 484 -428C496 -437 493 -444 473 -442C460 -441 438 -444 415 -448C419 -423 420 -397 420 -323V-172C420 -81 453 -30 481 -30C506 -30 530 -59 558 -143ZM246 -283C231 -318 215 -360 205 -393L156 -377C169 -346 185 -298 194 -262ZM410 -289C399 -318 387 -355 378 -388L328 -375C338 -344 347 -312 357 -274ZM158 -603C218 -603 244 -601 265 -598V-664C242 -661 219 -659 158 -659V-734C232 -743 254 -744 277 -742C289 -741 291 -747 281 -759C269 -773 259 -794 253 -817C215 -794 133 -782 87 -786C92 -771 94 -744 94 -706V-554C94 -519 92 -494 87 -473C105 -474 202 -476 291 -476C379 -476 479 -474 497 -473C492 -495 490 -518 490 -554V-711C490 -743 492 -768 496 -788C446 -786 373 -786 313 -788V-728C357 -731 377 -731 427 -731V-662C360 -662 336 -663 312 -667V-601C334 -605 361 -606 427 -606V-531H158ZM914 -638C890 -687 864 -731 837 -771L772 -742C799 -697 822 -653 843 -601ZM749 -495C834 -494 902 -491 950 -485V-572C898 -565 823 -562 727 -562C728 -610 727 -675 727 -722C727 -753 734 -787 744 -797C756 -809 754 -819 731 -818C704 -815 669 -816 636 -820C651 -752 658 -697 657 -563C596 -564 549 -567 511 -572V-485C550 -490 595 -493 655 -494C651 -365 632 -253 613 -187C582 -78 520 -12 442 31C471 39 505 59 524 80C619 -5 654 -69 681 -178C693 -229 703 -284 711 -349C721 -247 737 -178 761 -124C798 -40 813 -22 894 64C912 30 925 11 960 -17C908 -41 862 -88 827 -154C791 -221 756 -329 749 -495Z"/>
</svg>