<svg xmlns="http://www.w3.org/2000/svg" viewBox="0 -1000 1000 1000">
	<path fill="#000000" d="M192 -168H410V-122H192ZM533 -755V-788C533 -796 536 -807 547 -812C559 -817 555 -829 539 -828C500 -827 481 -830 453 -836C458 -823 460 -806 460 -755C290 -755 218 -757 158 -761V-695C219 -700 289 -702 460 -702C460 -653 457 -638 454 -628H538C535 -637 533 -653 533 -702C709 -702 781 -700 841 -695V-761C777 -757 709 -755 533 -755ZM770 -65C814 -114 853 -177 891 -262C843 -260 800 -258 747 -258V-325C841 -325 886 -322 934 -318V-383C887 -377 841 -375 747 -375C749 -399 755 -415 766 -425C778 -436 775 -442 759 -441C743 -440 703 -442 675 -447C678 -430 680 -405 680 -375C615 -376 580 -378 536 -383V-318C578 -322 614 -324 681 -325V-258C627 -258 601 -259 546 -262V-203C578 -206 604 -208 641 -208H787C769 -163 746 -127 719 -97C685 -122 655 -155 628 -196L576 -166C603 -125 637 -88 675 -57C624 -20 563 1 493 11C519 37 528 52 538 72C611 52 671 24 725 -21C783 17 846 43 909 58C917 25 926 9 951 -20C879 -26 820 -40 770 -65ZM270 -343V-302C190 -302 149 -304 100 -309V-244C154 -251 204 -253 309 -253C415 -253 445 -250 497 -244V-309C450 -304 422 -302 335 -302V-343C428 -343 461 -341 516 -335V-399C463 -394 429 -392 335 -392C337 -416 343 -431 354 -441C366 -452 363 -458 347 -457C333 -456 301 -458 274 -461C322 -486 350 -517 359 -555H639C639 -523 636 -488 630 -453H717C711 -488 708 -524 708 -555C822 -555 873 -553 922 -549V-616C876 -611 819 -608 708 -608V-642C708 -651 713 -666 723 -670C732 -673 728 -683 715 -682C682 -680 659 -681 631 -684C637 -668 639 -652 639 -608H362V-642C362 -655 366 -666 373 -672C383 -681 381 -686 364 -685C338 -684 321 -686 290 -692C293 -681 295 -650 295 -619V-608C170 -608 127 -611 78 -615V-548C128 -552 171 -555 289 -555C270 -513 213 -487 105 -476C123 -460 137 -441 146 -419C194 -429 234 -441 265 -456C267 -440 268 -417 269 -392C182 -393 128 -395 76 -399V-335C128 -339 183 -342 270 -343ZM198 -11C154 -11 112 -13 73 -15C84 10 87 30 89 62C150 45 232 35 483 24C483 1 485 -12 493 -31C464 -27 433 -23 402 -21C411 -38 419 -53 425 -70C443 -69 458 -69 476 -68C475 -99 475 -123 475 -145C475 -167 475 -192 476 -223C436 -219 392 -218 298 -218C203 -218 173 -219 125 -223C128 -192 129 -167 129 -145C129 -123 128 -99 125 -67C155 -69 179 -70 235 -71L179 -54C187 -41 193 -27 198 -11ZM236 -71H362C357 -52 350 -36 338 -16C312 -14 286 -13 259 -12C253 -33 247 -46 236 -71Z"/>
</svg>