<svg xmlns="http://www.w3.org/2000/svg" viewBox="0 -1000 1000 1000">
	<path fill="#000000" d="M661 -453V-408H351V-453ZM507 -686C435 -686 306 -690 276 -692C280 -665 283 -628 283 -589V-457C283 -415 281 -382 276 -352C316 -356 375 -357 507 -357C639 -357 700 -356 738 -353C733 -383 731 -417 731 -457V-589C731 -628 734 -663 738 -692C704 -688 581 -686 507 -686ZM661 -542V-504H351V-542ZM661 -634V-593H351V-634ZM893 -608V-794C821 -790 744 -788 504 -788C265 -788 188 -790 116 -794V-586H198V-724H809V-608ZM400 -182H275C196 -182 155 -184 108 -189V-116C149 -120 184 -122 241 -123C214 -52 170 -12 85 12C112 26 140 62 145 83C222 40 282 -39 306 -123H400V66H480C476 34 474 9 474 -29V-196C474 -223 478 -286 481 -304H203V-446C203 -466 203 -477 210 -484C217 -491 215 -498 206 -497C186 -497 146 -497 124 -501C127 -480 129 -447 129 -412V-243H400ZM651 -183V-252H884V-455C884 -475 884 -485 891 -492C899 -499 897 -506 887 -505C867 -504 825 -506 802 -509C806 -489 809 -451 809 -421V-310H568C572 -279 575 -242 575 -220V-23C575 5 572 41 569 70H651V-123H819V56H899C896 30 894 -7 894 -38V-134C894 -151 896 -171 898 -183Z"/>
</svg>