<svg xmlns="http://www.w3.org/2000/svg" viewBox="0 -1000 1000 1000">
	<path fill="#000000" d="M760 -709C741 -753 719 -798 696 -840L621 -805C649 -765 668 -726 684 -674ZM758 -149C808 -233 838 -358 856 -577C890 -575 920 -573 945 -571V-657C891 -652 817 -649 718 -649C619 -649 553 -652 498 -657V-571C564 -577 626 -579 780 -579C769 -349 742 -257 711 -203C673 -263 633 -383 625 -503L554 -490C566 -357 617 -220 667 -142C604 -64 551 -37 450 4C483 26 498 42 510 70C596 25 657 -15 712 -84C757 -34 820 16 905 63C921 24 937 2 969 -27C884 -48 824 -79 758 -149ZM234 -147C224 -177 216 -197 201 -227L160 -210C176 -178 181 -167 192 -132ZM218 -46C213 -56 211 -73 213 -108C188 -90 174 -80 151 -62V-384C151 -396 154 -401 162 -408C175 -419 172 -426 154 -426C140 -426 111 -428 86 -434C90 -409 91 -387 91 -313V-83C91 -42 81 -17 60 -4C77 10 92 27 103 49C113 35 129 18 142 9ZM361 -116C340 -90 322 -72 298 -51V-383C298 -394 300 -400 307 -409C318 -421 314 -426 296 -426C282 -426 265 -428 241 -433C245 -408 246 -387 246 -313V-80C246 -33 240 -9 226 1C242 15 254 30 266 47C275 33 286 20 301 6L360 -47C358 -61 358 -81 361 -116ZM398 -160C391 -184 384 -202 372 -229L324 -215C338 -183 344 -167 352 -129L398 -145V-100C398 -49 419 -20 456 -20C491 -20 523 -51 545 -139C527 -148 510 -161 499 -189C482 -104 476 -95 469 -95C461 -95 455 -104 455 -118V-385C455 -397 457 -409 463 -414C475 -424 472 -430 453 -428C441 -427 419 -429 393 -435C397 -410 398 -388 398 -314ZM243 -276C228 -311 214 -349 204 -382L161 -368C173 -337 187 -293 195 -257ZM386 -282C374 -316 365 -344 356 -377L312 -364C323 -333 331 -305 340 -267ZM158 -596C213 -596 237 -594 257 -591V-651C236 -648 214 -646 158 -646V-720C228 -729 246 -730 268 -728C280 -727 282 -733 272 -745C261 -759 251 -780 246 -803C210 -780 130 -768 86 -772C90 -757 93 -730 93 -692V-543C93 -508 91 -483 86 -462C103 -463 194 -465 279 -465C362 -465 455 -463 472 -462C467 -484 465 -507 465 -543V-697C465 -729 467 -754 471 -774C423 -771 361 -771 303 -774V-716C344 -719 364 -719 402 -719V-649C342 -649 323 -650 302 -654V-594C322 -598 343 -599 402 -599V-522H158Z"/>
</svg>