<svg xmlns="http://www.w3.org/2000/svg" viewBox="0 -1000 1000 1000">
	<path fill="#000000" d="M226 -34C220 -49 217 -66 216 -94C189 -64 166 -47 129 -27V-391C129 -403 133 -408 142 -415C156 -425 152 -433 133 -432C119 -431 94 -434 68 -440C70 -416 71 -390 71 -317V-51C71 -12 66 8 44 21C58 42 67 59 76 81C87 70 119 45 131 36ZM401 -51C392 -65 387 -81 385 -106C363 -81 340 -63 308 -41V-388C308 -397 315 -406 323 -415C334 -426 330 -432 311 -431C296 -430 271 -432 246 -437C250 -414 251 -387 251 -314V-66C251 -29 239 -6 220 12C236 26 249 44 261 67C279 47 296 32 312 20ZM232 -147C222 -185 208 -222 193 -251L142 -233C160 -203 172 -168 180 -123ZM574 -50C556 -66 541 -86 525 -114C521 -63 507 -35 499 -35C493 -35 473 -123 473 -197V-396C473 -408 478 -414 485 -422C497 -433 492 -439 474 -438C460 -437 431 -440 407 -445C410 -421 412 -391 412 -322V-192C412 -38 475 69 504 69C518 69 542 34 574 -50ZM405 -144C394 -184 379 -220 363 -251L318 -231C337 -200 349 -166 358 -127ZM400 -292C392 -326 384 -358 375 -387L329 -374C342 -344 348 -316 354 -280ZM230 -296C218 -335 206 -364 190 -395L139 -374C158 -346 174 -311 185 -278ZM634 -545L618 -416C570 -417 542 -419 519 -424V-346C549 -351 580 -354 729 -354C898 -354 925 -352 949 -346V-424C934 -420 914 -418 877 -417L900 -610C849 -605 790 -602 707 -602L721 -719C821 -719 877 -717 923 -711V-787C875 -781 818 -779 727 -779C638 -779 580 -781 530 -787V-711C566 -715 607 -718 655 -719L641 -603C604 -604 568 -607 535 -610V-540C559 -543 587 -544 634 -545ZM810 -416H685L700 -546H824ZM832 -2V56H911C905 13 902 -24 902 -68V-214C902 -252 903 -271 906 -288C876 -285 849 -284 738 -284C627 -284 606 -285 574 -288C576 -267 577 -248 577 -214V-52C577 -8 575 26 569 71H642V-2ZM642 -58V-223H832V-58ZM416 -594V-519H154V-594C204 -594 230 -592 250 -589V-650C228 -647 205 -646 154 -646V-724C213 -748 232 -752 255 -752C276 -752 279 -758 268 -770C250 -787 235 -804 220 -827C188 -790 128 -767 84 -769C87 -753 88 -735 88 -697V-543C88 -509 87 -482 84 -463C101 -464 152 -464 286 -464C426 -464 470 -464 487 -463C484 -486 483 -508 483 -543V-702C483 -734 484 -764 487 -784C462 -781 450 -781 397 -781C368 -781 337 -782 308 -784V-713C320 -716 334 -717 346 -717H416V-648C357 -648 333 -649 309 -652V-590C331 -594 344 -594 416 -594Z"/>
</svg>