<svg xmlns="http://www.w3.org/2000/svg" viewBox="0 -1000 1000 1000">
	<path fill="#000000" d="M826 -229H619V-344H826ZM901 -152C901 -190 900 -234 900 -285V-653C900 -731 901 -759 901 -786C866 -780 832 -778 723 -778C618 -778 584 -779 544 -786C547 -756 548 -713 548 -653V-285C548 -223 547 -189 544 -153C580 -155 618 -157 723 -157C832 -157 866 -156 901 -152ZM826 -412H619V-524H826ZM826 -592H619V-707H826ZM247 -147C238 -176 223 -215 209 -246L166 -227C180 -197 192 -164 202 -130ZM407 -153C397 -185 388 -213 377 -245L335 -231C347 -199 355 -173 363 -137ZM228 -46C223 -55 220 -72 223 -106C199 -84 181 -69 157 -51V-400C157 -412 160 -417 169 -424C183 -435 179 -441 160 -441C146 -441 114 -443 87 -449C91 -425 92 -399 92 -327V-82C92 -42 78 -17 56 -4C75 8 93 27 107 48C117 34 134 17 148 8ZM381 -114C360 -87 345 -71 320 -50V-399C320 -410 322 -416 330 -425C341 -437 337 -441 318 -441C303 -441 279 -443 254 -448C258 -424 259 -399 259 -327V-79C259 -33 253 -9 238 0C257 15 269 29 281 46C291 32 302 19 318 5L380 -47C378 -60 379 -80 381 -114ZM554 -135C537 -144 528 -156 516 -184C508 -122 501 -113 495 -113C488 -113 484 -122 484 -136V-395C484 -407 488 -420 493 -424C505 -433 502 -440 482 -438C469 -437 442 -439 415 -444C419 -420 420 -394 420 -322V-161C420 -72 457 -22 485 -22C515 -22 536 -50 554 -135ZM250 -291C235 -325 220 -367 209 -398L168 -377C183 -347 197 -307 206 -272ZM405 -299C393 -332 382 -364 373 -396L332 -381C343 -350 352 -319 361 -282ZM158 -605C221 -605 248 -604 269 -600V-664C246 -660 222 -659 158 -659V-724C213 -738 249 -744 281 -743C293 -743 295 -748 285 -760C273 -774 263 -794 257 -817C219 -793 131 -773 85 -775C90 -760 92 -734 92 -696V-556C92 -522 90 -497 85 -477C103 -478 206 -480 295 -480C383 -480 487 -478 505 -477C500 -498 498 -521 498 -556V-701C498 -733 500 -757 504 -777C454 -775 377 -775 317 -777V-720C361 -722 384 -723 434 -723V-662C365 -662 340 -663 316 -667V-603C338 -607 366 -608 434 -608V-539H158ZM695 -93C671 -108 645 -128 627 -148C582 -71 529 -24 447 26C479 38 498 52 510 74C574 28 605 2 649 -48C663 -64 680 -73 689 -74C701 -75 704 -87 695 -93ZM966 2C904 -53 856 -91 796 -135L748 -87C814 -35 860 9 910 68Z"/>
</svg>