<svg xmlns="http://www.w3.org/2000/svg" viewBox="0 -1000 1000 1000">
	<path fill="#000000" d="M363 -140V-20H237V-140ZM557 -140V-20H431V-140ZM758 -20H624V-140H758ZM557 -775C549 -793 533 -821 517 -843L433 -818C449 -800 465 -773 472 -749ZM725 -400H305C309 -416 320 -429 324 -434C334 -445 332 -448 317 -446C295 -444 273 -444 233 -453C236 -445 239 -432 241 -409C248 -326 220 -296 94 -254C115 -240 135 -224 154 -199C157 -201 161 -202 164 -204C168 -176 169 -140 169 -120V-21C138 -21 93 -24 43 -28V50C112 44 192 41 503 41C813 41 875 44 944 50V-28C905 -24 859 -21 829 -21V-120C829 -141 831 -182 835 -208C772 -203 661 -200 498 -200C355 -200 235 -203 170 -208C207 -227 236 -247 256 -265H725C724 -248 723 -235 720 -214H801C795 -245 793 -259 793 -286V-394C793 -420 796 -428 801 -431C815 -440 812 -445 794 -445C769 -445 746 -446 715 -448C720 -443 724 -426 725 -400ZM725 -314H293C297 -325 300 -337 302 -351H725ZM722 -603C743 -529 791 -468 883 -426C901 -456 917 -475 942 -491C841 -522 796 -552 780 -612C813 -616 851 -619 865 -616C889 -612 893 -622 879 -633C870 -639 842 -669 831 -682C742 -654 684 -641 594 -632C596 -624 597 -603 597 -581V-515C597 -497 590 -485 571 -478C589 -468 604 -450 617 -428C628 -436 645 -447 659 -452L748 -485C738 -500 728 -523 725 -537C703 -525 685 -517 661 -510V-594C676 -596 700 -599 722 -603ZM406 -638C418 -627 429 -615 438 -604L493 -650C469 -670 453 -683 434 -695H562C543 -667 509 -630 480 -609C473 -609 464 -610 456 -611C462 -604 463 -594 463 -558V-494C463 -477 460 -455 454 -435H530C528 -455 527 -478 527 -495V-578C527 -585 527 -590 528 -594C601 -644 613 -651 631 -659C651 -668 649 -671 628 -680C619 -683 606 -689 593 -695C716 -695 815 -693 901 -689V-757C802 -751 661 -747 499 -747C315 -747 196 -749 96 -754V-689C198 -694 276 -695 407 -695L366 -670C376 -664 387 -655 397 -646C370 -645 344 -644 256 -644C174 -644 146 -645 118 -647V-593C144 -595 167 -596 194 -596C192 -568 185 -548 173 -530C157 -507 112 -476 73 -462C99 -449 113 -436 132 -418C211 -465 251 -518 260 -596H336C335 -565 333 -553 331 -527C329 -508 318 -503 256 -507C273 -495 283 -475 289 -450C374 -455 393 -470 395 -509C398 -570 401 -609 406 -638Z"/>
</svg>