<svg xmlns="http://www.w3.org/2000/svg" viewBox="0 -1000 1000 1000">
	<path fill="#000000" d="M744 5V60H834C831 30 829 9 829 -17V-182C829 -197 831 -203 846 -215C862 -228 859 -236 842 -234C808 -231 776 -233 737 -242C742 -222 744 -194 744 -137V-61L535 -55V-207C535 -226 539 -234 556 -245C568 -253 564 -260 546 -259C515 -258 475 -261 447 -265C451 -243 452 -222 452 -177V-53L265 -47V-172C265 -182 270 -193 282 -203C295 -213 293 -222 276 -222C247 -222 208 -226 175 -232C180 -211 182 -184 182 -150V-50C182 -17 180 5 175 28C204 23 252 20 483 13ZM212 -374C143 -375 101 -378 57 -383V-290C117 -296 197 -299 502 -299C806 -299 887 -296 946 -290V-383C902 -378 768 -374 644 -374V-512C740 -512 805 -511 831 -508V-590C802 -587 722 -586 604 -586H297V-700C419 -699 580 -705 664 -713C736 -720 779 -722 803 -718C830 -713 833 -719 820 -733C803 -751 780 -786 766 -821C642 -787 470 -772 209 -772C211 -746 212 -703 212 -625ZM297 -512H559V-374H297Z"/>
</svg>