<svg xmlns="http://www.w3.org/2000/svg" viewBox="0 -1000 1000 1000">
	<path fill="#000000" d="M215 -196C219 -207 225 -218 229 -222C239 -229 233 -235 223 -235C213 -235 189 -240 177 -246C168 -198 152 -150 125 -90C139 -86 159 -77 170 -66C182 -95 192 -123 200 -147C211 -138 221 -128 232 -117C225 -101 217 -86 209 -74C225 -71 243 -64 257 -56C269 -77 281 -108 291 -140C303 -126 314 -109 323 -89L355 -122C344 -144 325 -167 303 -185C307 -204 313 -215 319 -219C330 -228 328 -233 316 -233C305 -233 286 -238 270 -245C268 -221 261 -195 252 -165C240 -178 229 -187 215 -196ZM121 -306V-429C121 -445 125 -459 133 -464C145 -472 142 -482 126 -481C105 -480 82 -481 60 -484C62 -464 63 -438 63 -374V-107C63 -52 62 -9 59 28C83 22 111 20 147 19L361 14V62H423C420 34 418 -8 418 -45V-429C418 -449 419 -460 427 -465C436 -472 433 -479 420 -478C402 -477 381 -479 357 -484C360 -462 361 -442 361 -377V-306ZM361 -254V-46L121 -39V-254ZM197 -414C211 -402 223 -389 235 -375C229 -361 222 -349 215 -339C231 -336 250 -329 262 -317C272 -338 281 -361 291 -391C305 -375 316 -361 326 -344L356 -390C340 -408 326 -421 306 -438C317 -478 324 -489 329 -493C338 -502 336 -509 325 -509C313 -509 294 -513 277 -519C274 -492 266 -457 254 -424C241 -437 228 -448 212 -458C219 -477 226 -488 230 -490C241 -496 238 -503 227 -504C216 -505 199 -510 183 -518C176 -468 148 -397 127 -359C139 -354 156 -344 167 -334C179 -361 187 -382 197 -414ZM301 -724V-768C301 -791 303 -802 308 -805C321 -814 319 -822 301 -820C287 -819 257 -822 232 -827C235 -803 237 -750 237 -714V-583H169V-722C169 -738 171 -749 178 -754C188 -762 187 -766 175 -766C151 -765 126 -766 104 -771C108 -749 108 -719 108 -674V-584C93 -584 61 -587 40 -591V-519C88 -524 146 -527 235 -527C325 -527 385 -524 433 -519V-591C404 -585 373 -583 333 -583H301V-669H327C359 -669 390 -666 411 -663V-730C390 -727 359 -724 327 -724ZM924 -433C874 -481 818 -526 755 -569L712 -519C777 -478 827 -435 869 -377ZM642 -508C656 -512 658 -522 649 -525C632 -531 600 -550 583 -570C555 -511 519 -467 442 -413C468 -400 483 -390 502 -369C533 -397 577 -444 612 -485C626 -501 634 -506 642 -508ZM716 -644C579 -644 518 -646 455 -652V-574C513 -581 581 -584 691 -584C801 -584 869 -581 926 -574V-652C887 -648 824 -644 783 -644C830 -735 847 -757 856 -762C877 -774 878 -782 869 -784C849 -788 801 -809 778 -824C766 -763 753 -725 716 -644ZM512 -779C539 -748 558 -709 571 -658L644 -691C624 -736 607 -769 581 -813ZM600 -297V-38H545V-297ZM710 -297V-38H660V-297ZM824 -38H769V-297H824ZM482 -40C468 -41 456 -43 438 -47V35C483 29 522 25 684 25C862 25 909 29 954 35V-47C928 -43 910 -40 890 -39V-286C890 -307 890 -338 892 -360C847 -358 796 -357 686 -357C576 -357 524 -358 480 -360C482 -338 482 -307 482 -286Z"/>
</svg>