<svg xmlns="http://www.w3.org/2000/svg" viewBox="0 -1000 1000 1000">
	<path fill="#000000" d="M394 -77L146 -59V-107C161 -104 176 -97 187 -88C203 -115 217 -146 228 -171C240 -162 252 -153 264 -138C256 -121 247 -106 237 -93C254 -90 271 -85 285 -75C296 -94 312 -127 325 -159C339 -143 352 -124 360 -103L394 -130ZM394 -269V-145C380 -166 360 -186 339 -201C343 -214 349 -231 355 -235C366 -243 365 -248 352 -248C341 -248 321 -254 303 -260C300 -236 293 -209 283 -182C271 -195 259 -204 244 -213C248 -224 255 -236 258 -238C271 -245 264 -251 252 -251C241 -251 215 -256 202 -261C196 -214 180 -176 146 -111V-269ZM323 -728V-772C323 -794 325 -806 329 -808C344 -817 342 -825 323 -823C312 -822 287 -824 258 -829C262 -806 264 -754 264 -719V-590H202V-727C202 -743 204 -753 211 -758C222 -767 220 -770 208 -770C182 -769 164 -770 140 -775C144 -753 145 -724 145 -680V-591C123 -591 82 -594 59 -599V-529C110 -533 175 -536 271 -536C366 -536 421 -533 472 -529V-599C441 -592 416 -590 374 -590H323V-675H359C394 -675 416 -672 439 -669V-735C416 -730 390 -728 365 -728ZM907 -300C885 -310 867 -323 850 -341C795 -272 704 -205 608 -164C634 -151 649 -135 664 -112C719 -144 795 -198 832 -231C880 -274 896 -282 904 -282C917 -282 918 -295 907 -300ZM859 -420C834 -433 814 -448 797 -463C758 -410 682 -356 597 -321C623 -308 638 -289 649 -266C706 -300 768 -345 805 -376C829 -396 842 -401 856 -402C869 -403 870 -414 859 -420ZM691 -563C669 -591 650 -623 636 -652L579 -621C601 -593 617 -566 629 -538ZM877 -194C811 -118 700 -36 580 1C608 18 619 36 636 64C710 26 816 -45 854 -76C895 -110 906 -115 925 -117C942 -119 946 -132 929 -143C908 -156 892 -173 877 -194ZM762 -533C750 -533 737 -533 724 -533C638 -533 542 -534 502 -539C514 -214 495 -98 455 -7C453 -32 452 -64 452 -93V-440C452 -460 454 -471 462 -475C473 -482 469 -489 454 -488C435 -487 415 -489 389 -494C393 -475 394 -457 394 -407C380 -421 361 -436 342 -449C355 -488 361 -499 365 -503C377 -512 374 -518 362 -518C349 -518 328 -522 310 -529C307 -502 298 -468 286 -435C272 -448 257 -459 239 -469C247 -487 254 -498 259 -500C271 -506 269 -512 256 -513C245 -514 227 -519 209 -528C201 -478 174 -409 150 -372C164 -367 180 -357 192 -347C201 -367 212 -392 224 -425C239 -414 253 -404 266 -390C259 -376 251 -363 243 -353C260 -349 282 -342 294 -331C304 -352 315 -376 327 -407C342 -392 354 -377 365 -361L394 -385V-320H146V-440C146 -455 150 -470 158 -474C172 -482 169 -493 151 -492C129 -491 108 -492 84 -494C87 -474 88 -449 88 -386V-124C88 -70 87 -28 83 8C111 4 142 0 177 -3L394 -21V11H447C444 19 440 26 436 34C466 49 476 58 494 80C550 -33 569 -126 571 -474H804C882 -474 927 -472 946 -468V-539C918 -536 866 -533 827 -533C855 -589 867 -602 886 -611C893 -614 894 -621 873 -626C851 -632 830 -642 806 -656C802 -618 788 -584 762 -533ZM701 -722C610 -722 550 -724 492 -729V-657C543 -663 615 -666 711 -666C806 -666 880 -663 931 -657V-729C881 -724 809 -722 716 -722L769 -747C756 -783 748 -801 733 -825L666 -799C683 -772 692 -752 701 -722Z"/>
</svg>