<svg xmlns="http://www.w3.org/2000/svg" viewBox="0 -1000 1000 1000">
	<path fill="#000000" d="M377 -196C406 -189 426 -180 455 -164L511 -191C481 -205 446 -217 408 -228C421 -241 440 -256 451 -262H614C599 -235 570 -214 500 -176C525 -172 540 -166 563 -158H329C345 -169 362 -182 377 -196ZM580 -371C582 -375 585 -378 589 -378C614 -386 610 -395 578 -394C551 -394 544 -395 499 -400C507 -382 510 -371 510 -345V-306H320V-336C320 -349 322 -362 334 -366C353 -372 350 -378 329 -378C285 -377 274 -379 245 -382C250 -366 251 -358 251 -325V-306C180 -306 107 -309 53 -313V-255C109 -260 191 -262 368 -262C341 -219 309 -196 247 -167C260 -165 272 -162 283 -158H236V-198C236 -210 241 -220 257 -224C287 -232 274 -244 244 -240C208 -235 194 -236 154 -242C159 -228 162 -208 162 -162V-22C162 3 160 26 153 52C197 47 226 46 287 46H793V63H873C866 42 864 15 864 -12V-199C864 -213 866 -218 881 -225C905 -236 898 -245 865 -240C843 -237 818 -238 784 -245C792 -229 793 -213 793 -166V-158H566C590 -172 605 -184 622 -197C663 -187 689 -176 712 -162L772 -192C746 -206 713 -215 656 -226C660 -229 663 -232 666 -235C672 -241 684 -253 694 -262C797 -262 886 -259 944 -255V-313C888 -308 773 -306 578 -306V-330H722C783 -330 839 -328 876 -327V-376C839 -374 783 -371 722 -371ZM391 -118H793V-4H236V-118H385C366 -89 321 -58 253 -26C283 -22 295 -19 319 -7C349 -23 365 -31 389 -48C419 -42 440 -36 469 -23L524 -50C492 -63 477 -68 428 -76C444 -84 459 -90 463 -91C483 -97 476 -109 454 -107C436 -105 412 -110 391 -118ZM627 -47C666 -35 690 -23 709 -7L776 -28C754 -48 706 -66 658 -79C665 -85 679 -91 692 -92C712 -93 708 -108 688 -106C663 -104 643 -107 617 -115C601 -77 569 -60 488 -20C515 -17 525 -16 549 -8C583 -20 610 -34 627 -47ZM369 -513V-482C422 -485 456 -485 543 -485V-449C430 -449 353 -448 275 -450C306 -468 343 -494 369 -513ZM370 -749C276 -749 195 -750 141 -751V-702C214 -704 313 -705 478 -705C470 -694 460 -681 450 -669C314 -669 250 -670 181 -672V-625C242 -626 308 -627 412 -627C401 -616 390 -605 380 -596C271 -596 158 -598 98 -601V-548C148 -550 231 -552 324 -552C231 -487 148 -447 29 -413C55 -402 74 -387 87 -366C146 -385 202 -409 256 -439V-403C343 -405 435 -407 561 -407C719 -407 834 -407 918 -406V-451C844 -449 746 -449 615 -449V-485C714 -485 766 -484 813 -482V-529C752 -526 707 -525 586 -525C477 -525 441 -526 388 -528C398 -536 408 -544 419 -553C443 -553 467 -553 491 -553C640 -553 861 -552 941 -548V-601C858 -598 714 -596 467 -596C476 -605 487 -617 495 -627C630 -627 752 -627 822 -625V-672C759 -669 651 -669 529 -669C538 -681 547 -693 555 -705C688 -705 828 -704 897 -702V-751C851 -749 771 -749 683 -749C716 -777 750 -795 761 -797C783 -801 780 -817 764 -818C736 -819 690 -830 665 -837C651 -807 631 -779 603 -749H411L450 -759C425 -796 413 -812 384 -836L304 -817C329 -799 350 -778 370 -749Z"/>
</svg>