<svg xmlns="http://www.w3.org/2000/svg" viewBox="0 -1000 1000 1000">
	<path fill="#000000" d="M695 -538H295V-580H695ZM499 -624C364 -624 290 -625 220 -628C223 -609 224 -584 224 -558C224 -533 222 -510 220 -490C270 -492 326 -493 393 -493H592C664 -493 724 -492 774 -490C772 -509 772 -534 772 -560C772 -584 773 -608 774 -628C704 -625 634 -624 499 -624ZM400 -51V-25C400 -5 386 5 310 -5C335 23 343 42 344 71C454 57 466 42 466 -8V-186C466 -212 468 -238 471 -250C424 -247 364 -246 295 -246C232 -246 167 -247 121 -250C124 -238 125 -212 125 -186V-17C125 17 123 41 118 66H190V-51ZM492 -774C516 -754 555 -728 603 -704H368C418 -728 460 -752 492 -774ZM318 -680V-649C362 -654 412 -655 494 -655C576 -655 624 -654 669 -649V-675C728 -651 801 -627 893 -602C904 -636 924 -662 943 -675C762 -695 654 -728 543 -802C571 -812 569 -819 550 -822C505 -828 484 -832 458 -843C388 -763 234 -697 40 -659C71 -642 95 -614 97 -595C187 -626 235 -645 318 -680ZM611 -44H753C796 -44 834 -42 863 -39V-89C834 -86 795 -84 751 -84H611V-115H761C804 -115 840 -113 869 -110V-160C840 -157 803 -155 759 -155H611V-180H761C804 -180 842 -178 871 -175V-225C842 -222 803 -220 759 -220H611V-254H808C840 -254 855 -253 874 -251C871 -261 870 -272 870 -287V-338C870 -357 871 -373 873 -384C848 -380 830 -379 802 -379H616V-411H793C836 -411 874 -409 903 -406V-462C874 -459 835 -457 791 -457H616C617 -467 618 -470 621 -472C634 -482 632 -489 610 -488C591 -487 571 -487 546 -490C549 -476 550 -452 550 -426V-380C550 -365 547 -345 544 -331C564 -334 586 -335 606 -335H799V-298H608C575 -298 561 -299 542 -303C546 -287 547 -275 547 -255V-12C547 37 561 52 632 56C702 60 818 60 866 55C915 50 932 34 959 -26C929 -30 907 -42 892 -65C884 -15 872 -5 822 -1C774 3 712 3 655 1C621 0 612 -9 611 -44ZM184 -325C141 -325 92 -327 62 -330V-271C117 -275 181 -278 284 -278C384 -278 448 -275 502 -271V-330C475 -326 443 -325 406 -325C415 -341 422 -350 427 -353C442 -362 440 -370 423 -371C402 -372 375 -378 351 -387C346 -364 341 -344 332 -325H259C255 -348 250 -368 243 -389L155 -369C165 -357 175 -342 184 -325ZM257 -441C169 -441 128 -441 80 -445V-387C130 -392 194 -393 288 -393C384 -393 445 -392 497 -387V-445C460 -443 397 -441 344 -441C339 -459 331 -478 323 -491L234 -484C244 -471 251 -459 257 -441ZM190 -166V-197H400V-166ZM400 -125V-93H190V-125Z"/>
</svg>