<svg xmlns="http://www.w3.org/2000/svg" viewBox="0 -1000 1000 1000">
	<path fill="#000000" d="M158 -34H283V30H358C354 -13 353 -50 353 -95V-196C353 -235 354 -254 356 -271C334 -268 309 -267 222 -267C135 -267 113 -268 89 -271C90 -250 91 -231 91 -196V-76C91 -31 89 4 82 49H158ZM283 -89H158V-208H283ZM662 -27C768 32 828 47 926 71C933 30 940 11 963 -16C863 -26 805 -37 731 -69C810 -125 859 -200 894 -281C855 -276 810 -274 657 -274C512 -274 459 -276 415 -281V-205C444 -213 471 -217 495 -218C517 -164 552 -108 599 -68C514 -26 447 -11 368 -3C387 26 395 44 402 75C492 53 580 18 662 -27ZM662 -102C621 -129 584 -172 562 -218H785C754 -172 716 -137 662 -102ZM357 -334V-409C325 -405 282 -403 222 -403C162 -403 118 -405 86 -409V-334C118 -338 162 -339 222 -339C282 -339 325 -338 357 -334ZM352 -470V-542C318 -538 280 -536 220 -536C160 -536 119 -538 85 -542V-470C120 -475 160 -475 220 -475C280 -475 318 -474 352 -470ZM518 -442H659V-379H518ZM659 -551V-492H518V-551ZM375 -605V-680C337 -676 289 -674 219 -674C149 -674 101 -676 62 -680V-605C100 -609 149 -610 219 -610C289 -610 337 -609 375 -605ZM659 -660V-601H518V-660ZM285 -726C268 -765 249 -805 226 -839L148 -803C173 -768 187 -736 202 -693ZM675 -716H504C520 -749 534 -762 549 -770C566 -779 564 -786 550 -791C526 -799 502 -810 479 -822C454 -730 401 -617 350 -551C368 -533 381 -516 394 -494C410 -520 432 -557 453 -598V-434C453 -387 450 -357 445 -297H518V-324H709C834 -324 879 -322 942 -315V-388C884 -382 837 -379 727 -379V-442C797 -441 872 -437 913 -432V-499C873 -495 799 -492 727 -492V-551C796 -550 870 -546 910 -540V-609C870 -604 798 -601 727 -601V-660C840 -660 875 -659 923 -653V-724C874 -718 834 -716 699 -716H685L743 -754C726 -781 709 -803 685 -829L619 -794C648 -764 662 -747 675 -716Z"/>
</svg>