<svg xmlns="http://www.w3.org/2000/svg" viewBox="0 -1000 1000 1000">
	<path fill="#000000" d="M843 -179H788V-321H843ZM905 -121C904 -136 903 -150 903 -173V-328C903 -347 903 -365 905 -380C887 -379 853 -378 815 -378C771 -378 749 -378 731 -380C732 -365 732 -348 732 -328V-173C732 -154 732 -136 731 -122C749 -123 776 -123 815 -123C853 -123 887 -122 905 -121ZM640 -178H591V-326H640ZM697 -123C695 -139 695 -152 695 -175V-330C695 -349 695 -367 697 -382C681 -381 649 -380 613 -380C570 -380 549 -380 533 -382C534 -367 534 -350 534 -330V-175C534 -156 534 -138 533 -124C549 -125 570 -125 613 -125C649 -125 681 -125 697 -123ZM792 -511H638V-597H792ZM861 -451C860 -466 859 -479 859 -502V-608C859 -627 859 -645 861 -660C830 -659 775 -658 713 -658C642 -658 602 -658 571 -660C572 -644 573 -628 573 -608V-502C573 -481 572 -465 571 -451C602 -452 642 -452 713 -452C775 -452 830 -452 861 -451ZM941 26V-62C905 -54 884 -52 501 -52V-721C861 -721 904 -718 933 -710V-800C896 -792 864 -789 677 -789C489 -789 465 -792 427 -800C431 -763 433 -723 433 -639V-142C433 -84 430 -11 427 26C465 18 493 15 680 15C866 15 905 18 941 26ZM320 -90V-10H392C387 -50 386 -83 386 -127V-635C386 -650 389 -656 407 -668C422 -678 420 -688 401 -686C384 -684 344 -685 312 -689C318 -669 320 -635 320 -584V-160L279 -158V-788C279 -807 282 -814 300 -825C317 -833 316 -842 289 -841C252 -839 233 -840 200 -843C209 -810 211 -771 211 -715V-155L161 -153V-632C161 -647 164 -655 178 -665C191 -675 189 -683 171 -682C139 -680 118 -681 86 -686C92 -665 94 -634 94 -570V-171C94 -138 92 -103 86 -68C115 -74 176 -82 211 -84Z"/>
</svg>