<svg xmlns="http://www.w3.org/2000/svg" viewBox="0 -1000 1000 1000">
	<path fill="#000000" d="M561 -727C544 -769 527 -806 506 -845L409 -816C434 -781 452 -741 464 -698ZM456 -617V-484C348 -485 256 -488 181 -492V-152C181 -101 179 -64 173 -11H267V-412H456V-92C456 -43 452 20 446 80H553C547 20 543 -43 543 -92V-412H741V-149C741 -91 728 -81 615 -105C648 -74 661 -41 665 1C813 -22 828 -44 828 -125V-492C761 -488 652 -485 543 -484V-617C720 -617 838 -614 938 -607V-702C831 -695 702 -692 502 -692C303 -692 179 -695 72 -702V-607C171 -613 283 -616 456 -617Z"/>
</svg>