<svg xmlns="http://www.w3.org/2000/svg" viewBox="0 -1000 1000 1000">
	<path fill="#000000" d="M969 -101C942 -108 909 -121 890 -141C883 -60 872 -37 841 -37C820 -37 815 -44 816 -97C819 -230 824 -422 830 -618C832 -673 836 -727 842 -775C784 -771 733 -770 665 -770C596 -770 546 -771 488 -775C493 -626 492 -419 487 -306C480 -162 437 -60 330 12C358 24 389 46 409 66C507 -29 555 -132 564 -282C567 -333 569 -470 568 -699H754C745 -447 738 -194 738 -61C738 20 756 35 843 35C923 35 936 25 969 -101ZM699 -293C690 -388 678 -471 660 -555L594 -547C611 -472 623 -374 626 -284ZM283 -653V-780C283 -791 287 -799 299 -806C320 -818 319 -827 294 -827C263 -827 236 -829 206 -833C210 -790 212 -719 212 -653C162 -654 116 -655 76 -657V-267C76 -210 75 -170 69 -116H146V-592H212V-96C212 -36 210 9 205 67H290C285 9 283 -36 283 -96V-592H355V-220C355 -196 341 -187 291 -194C310 -168 318 -144 321 -111C403 -125 426 -143 426 -196V-657C384 -654 335 -653 283 -653Z"/>
</svg>