<svg xmlns="http://www.w3.org/2000/svg" viewBox="0 -1000 1000 1000">
	<path fill="#000000" d="M226 -671C143 -672 113 -674 77 -679V-306C77 -255 73 -181 68 -125H155V-600H226V-98C226 -38 223 7 218 65H312C306 8 304 -38 304 -98V-600H386V-273C386 -225 375 -213 316 -219C338 -193 345 -166 345 -131C441 -148 464 -172 464 -227V-679C429 -674 398 -671 304 -671V-796C304 -807 311 -816 320 -822C340 -834 336 -843 315 -843C284 -843 248 -845 218 -849C223 -808 226 -765 226 -671ZM814 -113H596V-343H814ZM596 -41H814V50H903C898 6 896 -50 896 -95V-307C896 -346 900 -403 903 -420C881 -416 809 -414 721 -414V-598C872 -598 909 -595 942 -589V-680C911 -673 872 -669 721 -669V-744C721 -773 728 -808 739 -819C752 -832 750 -838 735 -836C702 -832 667 -836 629 -844C637 -794 639 -755 639 -693V-414C564 -415 526 -417 506 -420C509 -399 513 -342 513 -307V-96C513 -51 510 13 504 59H596Z"/>
</svg>