<svg xmlns="http://www.w3.org/2000/svg" viewBox="0 -1000 1000 1000">
	<path fill="#000000" d="M465 -505H664V-421H465ZM531 -280C447 -281 360 -284 297 -288C301 -267 303 -234 303 -207V-75C303 -48 301 -27 294 -1H384V-220H531V-65C531 -1 529 38 525 76H620C615 36 612 -3 612 -65V-220H773V-113C773 -78 762 -75 681 -91C705 -51 712 -28 715 4C839 -11 856 -28 856 -97V-209C856 -233 858 -265 863 -288C794 -283 701 -281 612 -280V-358C685 -357 719 -355 749 -350C745 -378 742 -415 742 -445V-505C823 -504 876 -500 911 -496V-575C874 -571 824 -568 742 -567C743 -614 746 -629 753 -636C763 -645 759 -649 747 -647C729 -644 683 -647 656 -657C660 -634 663 -605 664 -567H466C467 -599 471 -616 477 -625C484 -634 482 -639 473 -639C445 -638 409 -640 383 -647C387 -631 390 -607 391 -567C326 -568 288 -570 255 -575V-496C285 -499 326 -503 391 -505V-443C391 -414 387 -379 380 -350C404 -354 440 -357 531 -358ZM578 -742C573 -777 567 -811 562 -848L464 -835C470 -802 476 -770 479 -742C258 -742 173 -745 130 -751C152 -285 123 -96 48 10C76 21 108 38 133 59C207 -92 219 -191 218 -677H657C760 -677 868 -673 909 -668V-751C872 -746 786 -743 578 -742Z"/>
</svg>