<svg xmlns="http://www.w3.org/2000/svg" viewBox="0 -1000 1000 1000">
	<path fill="#000000" d="M828 -713C808 -746 781 -798 768 -831L698 -792C717 -762 739 -718 750 -678ZM586 -588H704V-472H586ZM586 -664C620 -746 634 -771 643 -776C666 -791 664 -800 642 -803C621 -806 591 -816 558 -829C549 -778 532 -715 509 -646C487 -578 464 -529 435 -489V-561C435 -607 436 -628 438 -648C412 -644 389 -643 296 -643V-765C296 -776 302 -795 312 -801C332 -813 330 -822 307 -822C284 -822 250 -826 220 -831C224 -785 226 -739 226 -643C123 -643 108 -644 82 -648C85 -628 86 -609 86 -563V-201C86 -150 85 -129 82 -91H157V-574H226V-87C226 -27 224 19 220 76H303C298 19 296 -27 296 -87V-574H365V-213C365 -185 357 -181 309 -183C326 -155 332 -130 332 -103C426 -120 435 -132 435 -207V-473C448 -459 460 -443 475 -415C489 -441 503 -467 515 -493V-137C515 -65 510 21 504 78H586V-9H775C896 -9 916 -8 958 -4V-85C927 -81 904 -80 777 -80V-215C858 -214 880 -213 904 -210V-287C881 -284 859 -283 777 -282V-405C865 -404 881 -403 906 -400V-477C883 -474 866 -473 777 -472V-588C889 -588 894 -588 937 -583V-662C892 -658 854 -656 754 -656H586ZM586 -215H704V-80H586ZM586 -405H704V-282H586Z"/>
</svg>