<svg xmlns="http://www.w3.org/2000/svg" viewBox="0 -1000 1000 1000">
	<path fill="#000000" d="M797 -241H540V-305H797ZM797 -356H540V-416H797ZM710 -51C838 -50 882 -48 940 -43V-120C883 -115 811 -112 710 -112V-190C797 -189 827 -187 868 -181C863 -203 861 -223 861 -247V-412C861 -436 863 -458 868 -479C812 -472 788 -471 668 -471C548 -471 510 -473 468 -479C473 -460 475 -441 475 -412V-247C475 -223 473 -203 468 -181C504 -186 542 -189 635 -190V-112C525 -113 473 -115 418 -120V-43C473 -48 522 -50 635 -51C635 16 633 53 629 92H716C712 51 710 -1 710 -51ZM629 -585C618 -608 604 -639 595 -662L529 -644C540 -630 548 -615 558 -585C498 -586 456 -589 421 -594V-519C484 -526 564 -528 684 -528C803 -528 884 -526 948 -519V-594C904 -589 852 -586 780 -585C803 -627 814 -638 825 -643C835 -648 833 -654 822 -656C811 -658 796 -663 756 -682C749 -653 736 -619 717 -585ZM725 -742C715 -777 706 -811 700 -834L623 -818C632 -795 640 -769 646 -742C547 -743 495 -745 442 -750V-678C500 -684 571 -687 675 -687C779 -687 847 -684 907 -678V-750C856 -746 802 -743 725 -742ZM209 -654C163 -655 120 -657 82 -662C86 -631 88 -595 88 -570V-246C88 -191 86 -160 80 -105H151V-595H209V-94C209 -34 207 11 201 69H280C275 12 273 -34 273 -94V-595H332V-211C332 -192 325 -187 290 -191C306 -164 315 -138 316 -114C391 -134 397 -145 397 -177V-568C397 -597 399 -628 403 -662C368 -657 340 -655 273 -654V-763C273 -774 275 -781 288 -789C307 -801 304 -810 283 -810C258 -810 230 -812 201 -816C206 -775 209 -728 209 -654Z"/>
</svg>