<svg xmlns="http://www.w3.org/2000/svg" viewBox="0 -1000 1000 1000">
	<path fill="#000000" d="M745 -222H253V-258H745ZM745 -307H253V-341H745ZM708 -549C691 -585 677 -610 658 -637L592 -610C614 -578 625 -556 637 -523ZM356 -494V-531C430 -530 480 -529 524 -525V-582C481 -579 432 -578 360 -577C363 -583 367 -587 372 -592C386 -604 383 -614 367 -613C343 -611 309 -613 283 -618C285 -606 286 -593 287 -577C211 -578 149 -579 105 -582V-525C149 -528 212 -530 289 -531V-490C216 -487 143 -485 60 -485C74 -464 81 -448 87 -423C123 -431 175 -436 219 -439L537 -458C536 -478 537 -490 541 -507C473 -501 413 -497 356 -494ZM356 -713C431 -712 484 -710 528 -707V-766C484 -763 431 -762 356 -761C357 -782 362 -788 372 -797C386 -809 383 -819 367 -818C343 -816 309 -818 283 -823C286 -806 287 -786 288 -761C207 -761 139 -763 93 -766V-707C138 -711 207 -713 289 -713V-674C191 -674 109 -676 54 -679V-620C112 -624 203 -626 311 -626C419 -626 491 -624 549 -620V-679C499 -676 440 -675 356 -674ZM458 -134C283 -134 176 -136 127 -139V-29C127 -3 126 12 123 42H197V-83H458V-11C458 20 457 45 453 76H541C538 45 536 20 536 -11V-83H806V-53C806 -28 796 -24 712 -32C728 -8 737 16 742 49C855 37 877 20 877 -30V-139C832 -136 725 -134 536 -134V-171C757 -171 781 -170 821 -167C818 -182 817 -201 817 -239V-320C817 -367 818 -377 821 -392C786 -389 766 -388 705 -388H502C511 -400 517 -406 525 -411C539 -420 540 -427 526 -428C505 -430 463 -437 431 -444C430 -420 428 -405 425 -388H297C236 -388 214 -389 181 -392C184 -377 185 -367 185 -320V-239C185 -192 184 -182 181 -167C221 -170 242 -171 458 -171ZM841 -717V-756C841 -777 844 -785 850 -793C861 -809 859 -817 841 -816C819 -815 781 -815 756 -818C760 -798 765 -758 767 -717H701C643 -717 585 -720 561 -724V-657C583 -660 653 -662 711 -662H769V-521C769 -490 760 -481 679 -492C695 -463 701 -443 705 -414C816 -430 841 -449 841 -511V-662C886 -661 924 -659 943 -656V-724C927 -721 886 -718 841 -717Z"/>
</svg>