<svg xmlns="http://www.w3.org/2000/svg" viewBox="0 -1000 1000 1000">
	<path fill="#000000" d="M925 24V-73C823 -66 748 -64 504 -64C244 -64 190 -66 83 -73V24C188 18 302 15 504 15C714 15 823 18 925 24ZM916 -308C842 -382 743 -467 654 -529L588 -462C663 -421 793 -301 834 -234ZM565 -683C762 -682 802 -680 900 -674V-770C806 -764 741 -761 507 -761C328 -761 214 -764 114 -770V-674C206 -680 314 -683 475 -683C407 -514 268 -369 86 -276C119 -259 145 -238 170 -208C278 -285 381 -389 458 -495V-301C458 -252 454 -189 449 -129H550C545 -189 541 -252 541 -301V-629C550 -647 558 -665 565 -683Z"/>
</svg>