<svg xmlns="http://www.w3.org/2000/svg" viewBox="0 -1000 1000 1000">
	<path fill="#000000" d="M507 -620C484 -642 460 -664 446 -682L383 -645C409 -624 424 -610 439 -590ZM659 -287H783V-218H659ZM596 -218H489V-287H596ZM659 -412H783V-343H659ZM596 -343H489V-412H596ZM596 -525V-462H489V-525ZM659 -462V-525H751C808 -525 864 -523 915 -518V-589C864 -584 808 -582 751 -582H677C711 -616 728 -629 741 -634C755 -639 755 -648 741 -650C714 -653 684 -663 657 -678C644 -638 631 -611 611 -582H421C364 -582 308 -584 256 -589V-518C308 -523 367 -525 424 -525V-462C374 -463 316 -465 273 -468V-406C318 -409 374 -411 424 -412V-343C368 -343 291 -345 242 -350V-280C291 -285 368 -287 424 -287V-218C374 -219 316 -221 272 -224V-155C297 -157 326 -159 355 -161C308 -75 245 -20 181 10C210 25 231 43 248 64C317 13 361 -44 412 -163H424V-63C424 0 422 36 418 69H495C490 28 489 -1 489 -63V-163H596V-56C596 7 594 46 590 78H665C662 47 659 6 659 -56V-163H683C723 -64 775 -3 901 54C910 21 922 0 952 -31C849 -43 790 -82 729 -162C782 -162 823 -160 854 -157C851 -194 850 -240 849 -286C884 -285 916 -283 949 -279V-350C916 -347 884 -345 849 -344C849 -391 851 -437 854 -470C813 -466 750 -463 659 -462ZM595 -748C583 -781 570 -811 556 -841L474 -815C488 -792 499 -771 510 -748C297 -748 189 -751 140 -756C163 -276 137 -104 43 23C71 37 80 44 111 76C195 -61 227 -231 219 -689H693C797 -689 877 -685 932 -681V-756C880 -751 797 -748 595 -748Z"/>
</svg>