<svg xmlns="http://www.w3.org/2000/svg" viewBox="0 -1000 1000 1000">
	<path fill="#000000" d="M374 -496C371 -580 371 -706 374 -779C330 -775 263 -772 209 -772C157 -772 108 -775 74 -779V-693C103 -698 129 -701 164 -701H296V-562H194C162 -562 131 -564 109 -567C109 -496 98 -378 87 -298C107 -300 133 -301 162 -301H261C263 -227 261 -146 255 -82C252 -47 238 -38 202 -37C176 -35 136 -36 76 -52C101 -21 113 10 116 50C311 56 335 19 335 -168C335 -257 340 -341 345 -374C330 -371 306 -369 280 -369H164L179 -498H298C328 -498 355 -498 374 -496ZM707 -191C680 -227 657 -268 639 -313H798C846 -313 883 -311 932 -306V-386C883 -381 845 -379 799 -379H538V-447H747C794 -447 841 -445 867 -442V-518C839 -514 794 -512 747 -512H538V-578H745C792 -578 839 -576 865 -573V-648C837 -644 792 -642 745 -642H538V-711H679C772 -711 825 -710 895 -706V-783C825 -778 772 -777 679 -777C585 -777 533 -778 464 -783C466 -754 466 -727 466 -653V-380C430 -380 400 -382 363 -386V-306C394 -309 420 -311 449 -312V-53C449 -23 436 -8 409 2C427 21 455 56 474 87C482 75 491 67 507 57L663 -35C648 -59 638 -86 634 -115C611 -91 582 -75 522 -48V-313H573C650 -111 715 -40 874 52C890 12 901 -9 941 -34C874 -47 808 -85 752 -140C830 -202 860 -218 879 -222C896 -225 896 -229 881 -240C863 -253 833 -279 815 -299C791 -268 754 -232 707 -191Z"/>
</svg>