<svg xmlns="http://www.w3.org/2000/svg" viewBox="0 -1000 1000 1000">
	<path fill="#000000" d="M910 -456C878 -470 863 -479 830 -506C806 -401 799 -392 552 -392C273 -392 268 -397 268 -422V-525H689C737 -525 774 -521 795 -517C792 -529 790 -549 790 -563V-742C790 -758 792 -773 795 -784C750 -781 662 -779 482 -779C316 -779 209 -780 155 -783V-697C203 -703 283 -705 311 -705H708V-593H307C242 -593 215 -594 182 -598C185 -586 187 -563 187 -543V-391C187 -327 195 -322 541 -322C866 -322 881 -332 910 -456ZM613 -144C586 -201 568 -235 533 -290L460 -258C490 -208 508 -168 528 -106ZM947 -70C903 -144 869 -201 823 -280L749 -233C792 -159 817 -107 858 -9ZM212 -217L126 -245C112 -153 91 -97 40 -23L140 3C170 -77 187 -128 212 -217ZM772 -75C735 -83 707 -98 681 -124C669 -34 645 -18 524 -18C375 -18 370 -20 370 -71V-192C370 -207 373 -213 384 -223C399 -235 395 -242 376 -239C349 -237 319 -239 283 -247C286 -227 287 -206 287 -172V-38C287 41 297 51 486 51C713 51 721 49 772 -75Z"/>
</svg>