<svg xmlns="http://www.w3.org/2000/svg" viewBox="0 -1000 1000 1000">
	<path fill="#000000" d="M296 -796C323 -817 318 -827 284 -826C260 -825 221 -829 192 -834C198 -796 201 -752 201 -696V-107C201 -61 198 5 193 63H286C280 6 277 -60 277 -106V-747C277 -765 284 -788 296 -796ZM168 -612L86 -620C84 -532 76 -445 55 -371L146 -363C150 -450 156 -531 168 -612ZM406 -530C392 -568 376 -605 357 -645L295 -617C314 -581 327 -543 334 -498ZM605 -666C511 -667 471 -669 420 -674V-413H499V-592H601C597 -495 579 -403 549 -318C505 -194 394 -54 301 -3C336 7 372 31 391 61C514 -57 610 -194 654 -399C658 -381 659 -356 659 -310V-63C659 27 675 47 805 47C916 47 946 31 971 -90C938 -101 907 -118 884 -148C873 -49 860 -23 814 -23C745 -23 736 -33 736 -62V-354C736 -374 739 -380 751 -387C766 -396 761 -407 743 -407C714 -407 687 -408 657 -411C666 -458 675 -516 682 -592H821V-449H903V-674C851 -667 804 -666 689 -666C696 -747 707 -800 718 -806C737 -816 734 -828 712 -828C670 -828 633 -832 604 -840C609 -815 611 -779 605 -666Z"/>
</svg>