<svg xmlns="http://www.w3.org/2000/svg" viewBox="0 -1000 1000 1000">
	<path fill="#000000" d="M514 -25H796V59H890C884 10 878 -51 878 -104V-260C878 -304 880 -326 885 -346C846 -342 807 -341 656 -341C506 -341 471 -342 427 -346C432 -321 434 -299 434 -260V-76C434 -24 430 28 423 79H514ZM796 -96H514V-272H796ZM288 -798C318 -817 313 -829 277 -828C252 -827 216 -830 185 -837C191 -784 193 -756 193 -701V-96C193 -33 190 17 183 85H278C273 27 270 -18 270 -95V-750C270 -768 277 -791 288 -798ZM147 -627L67 -624C71 -536 63 -448 41 -367L125 -366C133 -446 141 -544 147 -627ZM396 -539C386 -580 372 -615 343 -666L280 -634C309 -577 320 -551 332 -503ZM841 -479C853 -458 864 -439 873 -423L953 -466C912 -540 873 -598 799 -699L728 -656C749 -628 777 -585 804 -541L501 -521C566 -611 608 -677 624 -707C646 -748 667 -772 681 -775C707 -782 709 -792 682 -801C664 -807 626 -825 584 -846C561 -764 525 -685 462 -591C420 -529 414 -524 384 -516C403 -489 413 -465 417 -436C457 -448 524 -457 841 -479Z"/>
</svg>