<svg xmlns="http://www.w3.org/2000/svg" viewBox="0 -1000 1000 1000">
	<path fill="#000000" d="M291 -306H724V-252H291ZM809 -187C803 -199 799 -230 799 -256V-417C799 -443 803 -475 809 -487C746 -483 688 -482 507 -482C326 -482 269 -483 207 -487C212 -475 216 -443 216 -417V-256C216 -230 212 -199 207 -187C269 -191 326 -192 507 -192C688 -192 746 -191 809 -187ZM724 -365H291V-421H724ZM464 -758C316 -758 207 -760 128 -765V-690C219 -695 328 -698 496 -698C665 -698 774 -695 865 -690V-765C785 -761 695 -759 566 -758C555 -792 547 -830 542 -849L438 -832C446 -817 458 -785 464 -758ZM336 -603C254 -603 143 -605 87 -609V-534C141 -538 253 -542 509 -542C760 -542 853 -539 920 -534V-609C854 -605 768 -603 670 -603C691 -633 715 -652 735 -658C745 -661 744 -664 732 -666C688 -672 669 -676 624 -688C615 -656 598 -626 582 -603H353C378 -612 401 -618 431 -626C413 -649 403 -668 394 -688L295 -660C314 -640 327 -622 336 -603ZM245 -117L156 -140C142 -75 118 -29 81 14L165 48C197 -11 214 -46 245 -117ZM766 -73C731 -77 701 -89 678 -111C666 -25 660 -20 598 -15C542 -10 455 -6 415 -11C387 -14 380 -35 380 -64V-102C380 -113 382 -118 393 -125C406 -135 402 -139 385 -138C364 -136 329 -141 297 -151C301 -133 303 -118 303 -92V-9C303 36 307 42 354 52C387 59 563 56 615 53C717 47 723 35 766 -73ZM945 -41C908 -79 865 -123 827 -162L758 -124C802 -81 828 -47 866 15ZM601 -92C585 -114 560 -160 546 -185L454 -159C477 -129 494 -95 504 -60Z"/>
</svg>