<svg xmlns="http://www.w3.org/2000/svg" viewBox="0 -1000 1000 1000">
	<path fill="#000000" d="M761 -58C726 -69 702 -83 679 -111C657 -26 647 -23 615 -20C558 -14 460 -13 416 -15C367 -17 358 -22 358 -42V-127C358 -141 360 -147 371 -156C386 -168 382 -174 363 -172C338 -170 305 -173 270 -180C275 -158 277 -128 277 -98V-9C277 31 306 50 361 52C419 54 609 52 645 49C713 43 732 29 761 -58ZM219 -169L134 -190C114 -100 81 -38 52 3L147 31C166 -32 190 -97 219 -169ZM947 -31C903 -86 862 -132 809 -188L738 -153C793 -92 823 -46 861 19ZM590 -77C576 -114 548 -171 525 -211L447 -182C466 -148 498 -85 510 -43ZM311 -633H647C603 -559 539 -477 514 -465C525 -447 535 -411 536 -396C563 -406 593 -412 686 -423C635 -369 547 -312 516 -308C528 -286 546 -244 551 -221C573 -229 606 -235 653 -239L810 -252C818 -233 825 -217 829 -207L904 -241C883 -280 847 -340 817 -383L757 -349C765 -338 775 -321 785 -300L623 -290C671 -328 780 -424 805 -451C827 -476 845 -484 856 -486C865 -488 866 -492 856 -498C839 -508 804 -534 785 -552C769 -529 753 -507 727 -475L604 -468C629 -492 676 -540 686 -553C695 -565 720 -585 729 -588C741 -592 741 -596 731 -600C720 -605 698 -617 677 -633C846 -633 886 -631 922 -627V-708C883 -705 743 -702 649 -702C683 -750 714 -780 732 -786C751 -793 752 -798 732 -802C718 -805 672 -819 637 -835C625 -806 592 -748 557 -702H378L440 -741C428 -761 380 -809 352 -833L276 -785C296 -766 329 -731 352 -702C219 -702 126 -704 76 -708V-627C117 -632 131 -633 276 -633C227 -565 161 -491 117 -473C128 -457 137 -420 138 -403C160 -411 210 -422 310 -436C236 -369 154 -320 110 -311C126 -286 136 -250 133 -228C159 -235 197 -241 240 -246L417 -264C422 -248 427 -233 429 -223L502 -246C494 -274 463 -349 442 -392L378 -369C382 -359 390 -338 399 -315L232 -304C298 -345 413 -437 448 -474C459 -486 476 -496 485 -499C499 -504 498 -508 487 -512C470 -517 445 -537 424 -558C413 -543 387 -515 361 -488L214 -480C238 -495 310 -548 324 -562C335 -573 362 -594 370 -595C380 -596 382 -602 369 -607C353 -613 333 -622 311 -633Z"/>
</svg>