<svg xmlns="http://www.w3.org/2000/svg" viewBox="0 -1000 1000 1000">
	<path fill="#000000" d="M523 -107C474 -128 432 -156 391 -194H654C613 -159 572 -131 523 -107ZM371 -317C276 -218 201 -167 102 -126C133 -108 151 -90 168 -62C223 -97 276 -137 325 -178C360 -132 393 -104 449 -75C356 -41 234 -21 90 -18C114 11 122 24 131 57C302 38 409 15 528 -39C648 12 748 33 898 50C908 -1 916 -16 937 -39C789 -40 695 -54 608 -78C685 -122 750 -183 807 -267C763 -261 681 -257 592 -257H411C426 -272 440 -288 454 -303C505 -300 548 -299 608 -300C677 -301 688 -309 727 -390C695 -401 671 -412 646 -432C634 -366 627 -363 587 -361C533 -359 501 -360 458 -363C422 -365 407 -373 407 -390V-450C407 -459 411 -463 417 -469C428 -480 421 -486 410 -485C390 -483 356 -484 326 -488C329 -476 330 -462 330 -438V-382C330 -353 345 -330 371 -317ZM856 -752C833 -770 809 -794 789 -821C738 -804 639 -786 556 -777C445 -766 267 -757 128 -757C139 -739 146 -713 148 -687C326 -695 662 -719 767 -730C802 -734 825 -734 849 -731C867 -729 869 -740 856 -752ZM482 -502H833V-429H910V-569C858 -565 803 -564 706 -564C745 -611 785 -651 803 -663C812 -669 811 -679 801 -681C778 -685 740 -697 705 -714C687 -655 665 -613 627 -564H505L573 -594C558 -628 534 -666 512 -697L426 -671C453 -634 473 -596 484 -564H292L359 -601C331 -642 312 -663 285 -688L211 -644C240 -617 259 -596 278 -564C205 -564 141 -566 94 -569V-417H171V-502H453L435 -458C480 -441 520 -415 555 -379L609 -430C580 -455 528 -483 482 -502ZM892 -367C847 -409 795 -452 740 -492L688 -443C766 -391 797 -360 829 -311ZM306 -439L236 -472C221 -434 177 -368 142 -327L201 -288C231 -324 275 -386 306 -439Z"/>
</svg>