<svg xmlns="http://www.w3.org/2000/svg" viewBox="0 -1000 1000 1000">
	<path fill="#000000" d="M487 -251C497 -259 494 -263 484 -263C454 -263 425 -265 396 -270C409 -127 391 -36 287 27C317 35 356 58 370 76C450 -4 471 -56 475 -168C477 -228 481 -246 487 -251ZM962 -78C934 -83 906 -98 883 -117C876 -43 864 -21 841 -21C814 -21 811 -25 811 -46V-222C811 -233 814 -238 822 -244C830 -250 828 -258 815 -257C792 -255 761 -257 729 -264C733 -248 734 -233 734 -193V-24C734 42 740 49 835 49C918 49 934 26 962 -78ZM649 -252C657 -258 653 -262 642 -261C619 -260 589 -260 557 -264C561 -257 564 -234 564 -195V-99C564 -63 561 -17 556 27H648C644 -17 641 -63 641 -99V-234C641 -243 643 -248 649 -252ZM266 -793C287 -807 290 -819 259 -818C235 -817 201 -818 171 -823C176 -772 178 -745 178 -691V-95C178 -49 176 14 171 71H260C255 15 252 -48 252 -94V-741C252 -758 255 -786 266 -793ZM132 -629L58 -630C64 -525 58 -432 45 -352H129C128 -437 130 -556 132 -629ZM365 -552C357 -579 343 -612 332 -636L269 -616C283 -584 294 -552 301 -523ZM610 -525C458 -525 376 -528 337 -534V-456C360 -460 376 -462 405 -463V-391C405 -356 405 -343 402 -307C435 -313 455 -314 636 -314C809 -314 838 -313 871 -307V-384C853 -380 826 -376 742 -376H479V-464H782C854 -464 872 -462 909 -456V-534C880 -529 846 -526 683 -525C672 -555 654 -599 646 -616L569 -598C585 -583 600 -555 610 -525ZM531 -724V-788C531 -800 533 -804 542 -809C552 -815 550 -824 538 -823C513 -822 478 -824 452 -827C456 -807 458 -784 458 -724C414 -725 380 -727 347 -732V-654C379 -658 414 -661 458 -662V-581H531V-663H717V-589H789V-663C844 -662 886 -659 924 -654V-732C886 -727 844 -725 789 -724V-799C789 -811 791 -815 800 -820C810 -826 808 -834 796 -834C771 -834 737 -835 711 -838C715 -817 717 -791 717 -724Z"/>
</svg>