<svg xmlns="http://www.w3.org/2000/svg" viewBox="0 -1000 1000 1000">
	<path fill="#000000" d="M806 -219H484V-279H806ZM815 -561H483V-610H815ZM892 -495C888 -534 886 -589 886 -642C886 -715 887 -750 892 -788C832 -782 766 -779 652 -779C537 -779 469 -782 410 -788C413 -753 415 -700 415 -642C415 -586 414 -539 410 -495C468 -500 537 -503 652 -503C765 -503 832 -500 892 -495ZM815 -667H483V-721H815ZM953 -10C901 -55 840 -100 792 -131L730 -90C768 -74 850 -3 881 43ZM535 -106C507 -117 491 -125 471 -141C431 -75 374 -30 303 6C330 14 360 32 377 49C404 28 430 5 474 -37C499 -61 522 -79 531 -85C549 -96 547 -101 535 -106ZM683 -167C787 -167 842 -165 886 -161C881 -181 880 -206 880 -248C880 -298 881 -314 886 -336C813 -331 763 -329 647 -329C533 -329 464 -331 406 -336C410 -316 412 -294 412 -249C412 -217 410 -187 406 -161C448 -164 530 -166 612 -167V-38C612 -2 596 7 521 -7C542 34 548 56 546 81C676 62 683 53 683 -4ZM277 -798C305 -816 300 -829 266 -828C243 -827 204 -830 176 -835C183 -768 186 -724 186 -670V-97C186 -51 183 13 178 70H268C263 14 259 -50 259 -96V-751C259 -768 266 -791 277 -798ZM136 -631H64C75 -549 65 -454 42 -376H123C134 -464 138 -540 136 -631ZM393 -528C365 -578 352 -602 320 -662L267 -637C293 -582 301 -562 325 -496ZM615 -441C492 -441 405 -444 334 -450V-379C410 -385 505 -388 643 -388C781 -388 877 -385 953 -379V-450C885 -445 801 -442 684 -441C678 -462 674 -477 671 -494L592 -481C603 -465 609 -454 615 -441Z"/>
</svg>