<svg xmlns="http://www.w3.org/2000/svg" viewBox="0 -1000 1000 1000">
	<path fill="#000000" d="M780 -271H490V-320H780ZM861 -209C857 -221 855 -251 855 -276V-422C855 -447 857 -477 861 -489C815 -485 771 -484 634 -484C497 -484 453 -485 407 -489C411 -477 414 -447 414 -422V-276C414 -251 411 -221 407 -209C453 -213 497 -214 634 -214C771 -214 815 -213 861 -209ZM780 -375H490V-428H780ZM834 -51C801 -61 776 -75 751 -98C741 -32 733 -23 710 -23H571C553 -23 538 -34 538 -53V-132C538 -144 539 -150 546 -156C555 -163 552 -170 541 -169C520 -167 497 -169 462 -175C465 -157 466 -136 466 -112V-17C466 27 488 45 541 45H731C791 45 813 27 834 -51ZM437 -159L363 -180C350 -106 335 -62 304 -4L392 17C410 -38 425 -96 437 -159ZM962 -44C920 -107 884 -150 846 -186L781 -149C830 -107 865 -51 882 1ZM731 -108C706 -145 678 -177 641 -210L583 -171C616 -138 645 -98 664 -65ZM260 76C255 21 252 -42 252 -87V-748C252 -786 254 -792 260 -796C277 -808 276 -815 256 -814C235 -813 197 -816 168 -821C174 -790 175 -752 175 -689V-88C175 -43 173 20 168 76ZM148 -592L76 -600C72 -505 65 -458 46 -362L127 -355C132 -443 139 -517 148 -592ZM384 -422C371 -478 351 -542 326 -607L258 -595C284 -542 301 -475 307 -401ZM546 -677H709C701 -650 690 -618 680 -591H592C581 -621 567 -649 546 -677ZM604 -734C469 -734 440 -735 379 -740V-669C438 -675 477 -677 521 -677L460 -644C482 -624 495 -609 508 -592C456 -593 400 -596 368 -598V-527C440 -532 523 -535 654 -535C783 -535 867 -532 940 -527V-598C891 -594 815 -591 764 -591C777 -618 788 -635 795 -639C813 -650 812 -655 797 -659C789 -661 772 -669 754 -677C789 -677 839 -674 898 -669V-740C844 -735 790 -734 702 -734C686 -770 670 -798 644 -834L556 -806C574 -787 590 -762 604 -734Z"/>
</svg>