<svg xmlns="http://www.w3.org/2000/svg" viewBox="0 -1000 1000 1000">
	<path fill="#000000" d="M847 -183H706V-255H847ZM847 -311H706V-382H847ZM847 -438H706V-506H847ZM66 -596C67 -511 58 -446 35 -373L115 -371C118 -432 128 -514 140 -587ZM221 -575C244 -518 255 -467 258 -416L321 -451C309 -516 295 -555 271 -610L221 -596V-740C221 -765 227 -782 238 -789C260 -802 258 -811 227 -811C205 -811 176 -813 148 -817C153 -769 155 -742 155 -691V-82C155 -38 153 22 148 76H228C224 23 221 -37 221 -81ZM498 -505H542V-349H498ZM431 -349H389V-505H431ZM498 -293C544 -293 576 -292 608 -290C606 -335 605 -383 605 -430C605 -476 606 -522 608 -566C575 -562 545 -561 498 -561V-637C555 -637 594 -635 625 -633V-701C592 -699 556 -697 498 -697V-777C498 -794 502 -802 513 -811C529 -824 525 -830 503 -830C478 -830 451 -833 425 -839C430 -809 431 -780 431 -697C386 -697 342 -699 307 -701V-633C344 -636 394 -637 431 -637V-561C390 -561 360 -562 327 -566C329 -524 330 -480 330 -436C330 -386 329 -336 327 -288C355 -291 392 -292 421 -292C359 -165 312 -118 243 -68C272 -56 295 -35 306 -12C349 -61 387 -111 431 -180V-84C431 -24 429 21 424 73H506C500 21 498 -23 498 -84V-228C523 -189 544 -143 562 -92L630 -131C605 -176 575 -225 545 -268L498 -247ZM750 -67C764 -72 767 -78 751 -84C728 -93 704 -106 685 -122C645 -54 601 -9 542 28C574 42 592 56 610 77C643 45 677 7 705 -27C720 -46 739 -63 750 -67ZM962 26C926 -26 888 -73 844 -121L782 -82C830 -41 862 10 890 73ZM720 -664H813L768 -562H663C682 -591 696 -616 720 -664ZM642 -558V-217C642 -181 641 -142 639 -121C667 -125 695 -126 777 -126C860 -126 889 -125 916 -121C914 -140 913 -181 913 -217V-472C913 -509 914 -552 916 -568C898 -565 867 -563 840 -563L917 -726C899 -723 861 -720 815 -720H748C768 -759 781 -774 794 -779C809 -785 808 -791 791 -795C765 -801 740 -811 712 -826C688 -732 642 -632 592 -577C617 -572 630 -568 642 -558Z"/>
</svg>