<svg xmlns="http://www.w3.org/2000/svg" viewBox="0 -1000 1000 1000">
	<path fill="#000000" d="M888 -690C867 -724 842 -767 822 -806L748 -771C775 -735 791 -700 806 -653ZM226 -159H352V-90H226ZM226 -274H352V-208H226ZM226 -390H352V-324H226ZM159 -330V-154C159 -82 154 9 148 66H226V-36H385C503 -36 532 -35 561 -32V-94C536 -91 509 -90 416 -90V-159C507 -159 533 -158 559 -155V-212C535 -209 508 -208 416 -208V-274C504 -274 529 -273 555 -270V-328C531 -325 505 -324 416 -324V-390C518 -390 546 -389 573 -386V-444C550 -441 524 -440 442 -440C430 -468 418 -498 411 -523L338 -505C352 -483 363 -462 373 -440H238C260 -467 274 -481 282 -487C301 -501 301 -506 280 -510C267 -513 244 -523 218 -537C207 -503 186 -460 154 -411C130 -374 101 -346 55 -310C80 -297 96 -285 111 -268C128 -290 144 -310 159 -330ZM299 -688V-616C210 -617 129 -623 76 -628V-545C140 -551 244 -554 353 -554H602C609 -380 639 -240 685 -139C631 -68 561 -11 466 33C492 49 513 68 530 88C610 43 676 -19 719 -74C751 -19 778 10 826 48C872 84 893 70 944 -77C919 -86 898 -104 877 -133C872 -29 838 -14 765 -144C804 -213 836 -297 858 -385C867 -422 880 -443 896 -453C912 -463 909 -471 891 -471C869 -471 832 -476 805 -488C791 -391 765 -285 731 -213C702 -292 678 -432 677 -554C780 -554 874 -551 933 -545V-628C873 -622 778 -616 677 -615C679 -764 683 -792 695 -804C709 -819 710 -828 688 -827C666 -826 624 -829 593 -834C595 -782 596 -729 599 -615H370V-688C443 -687 509 -685 549 -681V-749C509 -745 443 -742 370 -742V-786C370 -796 374 -806 383 -811C397 -819 395 -827 379 -827C344 -827 324 -827 295 -830C298 -811 299 -793 299 -742C231 -743 172 -746 133 -749V-681C171 -685 231 -687 299 -688Z"/>
</svg>