<svg xmlns="http://www.w3.org/2000/svg" viewBox="0 -1000 1000 1000">
	<path fill="#000000" d="M492 -185H300V-238H492ZM560 -130C559 -148 558 -179 558 -211C558 -244 559 -273 560 -292C513 -290 484 -289 395 -289C305 -289 277 -290 230 -292C233 -272 234 -246 234 -211C234 -180 233 -147 230 -129C276 -131 306 -132 395 -132C482 -132 514 -131 560 -130ZM897 -612C877 -651 843 -708 813 -750L751 -707C780 -674 811 -619 825 -569ZM592 -320V-384C546 -381 484 -379 398 -379C313 -379 252 -381 205 -384V-320C250 -323 313 -325 398 -325C484 -325 546 -323 592 -320ZM281 -600V-546L176 -539V-600ZM355 -656V-701H474C512 -701 539 -700 564 -697V-764C539 -761 513 -759 474 -759H355C356 -786 360 -801 364 -804C378 -815 377 -826 353 -823C333 -821 305 -821 276 -825C280 -807 282 -770 282 -656C166 -656 126 -658 100 -661C108 -533 110 -401 106 -300C99 -130 80 -68 34 -1C60 11 81 27 103 51C156 -57 176 -157 176 -368V-486L281 -495C281 -420 297 -405 423 -406C532 -407 546 -421 573 -485C549 -491 531 -499 507 -516C502 -478 486 -466 420 -463C361 -460 349 -467 347 -501C396 -505 444 -508 478 -507C474 -522 472 -544 472 -568C442 -561 400 -555 347 -551V-600H526L506 -542L579 -527L615 -665C561 -659 468 -656 355 -656ZM290 -46C245 -43 193 -43 163 -45C177 -15 184 5 189 39C225 25 244 21 278 18L584 -18C559 1 531 16 499 29C532 44 547 53 568 75C633 35 669 5 730 -75C768 13 818 59 865 61C889 62 924 40 966 -61C936 -71 911 -86 888 -115C867 -14 833 -4 781 -146C818 -200 847 -257 868 -304C882 -336 891 -352 895 -355C911 -366 910 -370 893 -377C875 -384 846 -399 821 -415C801 -330 778 -271 755 -229C745 -279 733 -375 727 -457L827 -468C863 -472 898 -474 925 -474L912 -553C890 -543 855 -534 817 -529L725 -516C720 -768 726 -794 733 -800C750 -816 744 -822 725 -820C708 -818 665 -822 638 -828C644 -783 652 -678 659 -507C632 -504 605 -504 579 -505L585 -423C606 -432 632 -441 661 -447C667 -313 676 -239 703 -147C664 -92 630 -53 592 -24C588 -45 590 -65 598 -85C578 -78 543 -70 497 -63C507 -83 514 -90 526 -97C537 -104 534 -111 523 -112C503 -114 486 -118 454 -127C451 -106 445 -89 430 -57C408 -55 384 -54 362 -52C355 -85 348 -105 338 -121L259 -102C273 -84 281 -70 290 -46Z"/>
</svg>