<svg xmlns="http://www.w3.org/2000/svg" viewBox="0 -1000 1000 1000">
	<path fill="#000000" d="M193 -601C183 -629 177 -648 170 -673L104 -657C115 -629 121 -610 127 -579ZM454 -595C446 -628 438 -654 430 -681L367 -664C377 -640 385 -609 391 -573ZM920 -628C895 -669 878 -700 858 -740L780 -705C803 -672 820 -636 836 -592ZM495 -519V-441H565C560 -480 557 -536 557 -574V-701C557 -731 558 -765 563 -791C519 -784 498 -783 464 -783C426 -783 389 -786 360 -791V-717C389 -721 411 -723 427 -723H495V-577C444 -553 379 -534 337 -526C352 -494 359 -472 362 -452C402 -478 448 -500 495 -519ZM654 -430C657 -342 670 -240 697 -158C650 -116 594 -86 533 -68C562 -55 583 -31 599 1C648 -28 686 -58 722 -94C774 19 839 72 895 72C914 72 932 37 965 -49C938 -61 918 -78 894 -114C884 -1 851 4 773 -150C815 -202 850 -265 875 -318C893 -354 901 -365 907 -369C923 -380 920 -384 902 -388C878 -393 846 -406 829 -419C817 -345 787 -270 747 -215C734 -268 723 -350 722 -445L847 -471C904 -483 929 -487 949 -488L938 -560C913 -551 873 -542 844 -536L722 -509C724 -702 733 -776 742 -786C760 -805 758 -811 735 -809C712 -807 675 -809 644 -816C654 -708 654 -660 653 -495C627 -491 603 -489 583 -488L597 -413C613 -419 633 -425 654 -430ZM249 -521V-465H313C308 -508 307 -557 307 -595V-710C307 -750 309 -767 313 -783C273 -777 244 -775 205 -775C162 -775 117 -777 90 -783V-713C120 -718 143 -719 163 -719H249V-580C176 -548 134 -534 72 -519C85 -486 89 -473 97 -444C148 -476 188 -495 249 -521ZM205 -327H331V-266H205ZM205 16H349C461 16 514 21 553 26V-49C512 -42 473 -38 393 -36V-101C471 -100 516 -97 551 -91V-164C510 -157 466 -153 393 -151V-216C475 -214 514 -207 551 -201V-276C509 -269 472 -267 393 -266V-327C479 -326 522 -323 559 -318V-388C523 -383 485 -379 417 -378C402 -406 393 -428 384 -453L321 -429C334 -409 342 -394 349 -378H221C237 -399 252 -415 257 -419C271 -429 271 -433 258 -436C238 -440 204 -456 189 -465C153 -371 105 -298 39 -242C53 -228 66 -209 83 -175C104 -203 122 -228 141 -257V-105C141 -59 138 -14 131 72H205ZM205 -101H331V-36H205ZM205 -216H331V-151H205Z"/>
</svg>