<svg xmlns="http://www.w3.org/2000/svg" viewBox="0 -1000 1000 1000">
	<path fill="#000000" d="M780 -553H241V-664H780ZM828 -373C799 -401 772 -433 752 -461L679 -413C708 -389 730 -362 753 -330ZM573 -262C629 -98 725 16 917 59C920 28 928 5 954 -38C795 -61 710 -132 639 -262C754 -261 867 -259 921 -255V-331C855 -326 701 -324 560 -324C572 -380 583 -419 588 -422C599 -429 599 -435 587 -436C564 -437 520 -442 490 -447C491 -399 489 -362 483 -324C392 -325 333 -327 276 -331V-255C330 -259 386 -261 469 -262C435 -131 378 -65 186 -2C212 18 232 46 246 75C437 -6 514 -101 549 -262ZM491 -731C278 -731 186 -733 147 -738C158 -573 160 -428 153 -334C142 -195 121 -85 50 10C88 21 112 32 138 58C216 -93 237 -234 241 -485H655C786 -485 843 -483 869 -480C866 -513 864 -562 864 -609C864 -658 865 -706 869 -738C844 -735 732 -732 591 -731C579 -778 568 -811 550 -845L455 -817C470 -788 481 -761 491 -731Z"/>
</svg>