<svg xmlns="http://www.w3.org/2000/svg" viewBox="0 -1000 1000 1000">
	<path fill="#000000" d="M180 -356C142 -343 102 -332 50 -319C60 -288 68 -251 72 -222C105 -244 142 -264 180 -282V-56C180 -32 165 -15 71 -31C96 4 107 35 110 65C238 57 252 16 252 -25V-314C281 -326 310 -336 338 -345C334 -371 333 -392 334 -423C303 -408 277 -395 252 -384V-550C280 -550 316 -546 341 -542V-625C316 -621 281 -617 252 -617V-768C252 -785 256 -793 270 -804C291 -821 286 -830 255 -829C227 -828 205 -830 169 -836C176 -803 180 -760 180 -617C132 -617 95 -620 66 -625V-542C95 -547 132 -551 180 -551ZM480 -251V-104C427 -98 372 -93 321 -92C339 -59 345 -39 344 -5C456 -34 615 -65 693 -74C688 -104 689 -122 698 -145C660 -134 608 -124 551 -114V-251C587 -251 635 -248 666 -244V-316C633 -312 583 -309 551 -309V-356C551 -368 556 -385 564 -391C578 -401 576 -407 560 -407C525 -407 503 -409 474 -413C477 -393 479 -366 480 -309C433 -309 401 -311 363 -316V-241C400 -247 438 -251 480 -251ZM801 -553V-732C801 -780 803 -796 813 -802C836 -817 831 -825 806 -825C771 -825 755 -827 717 -834C723 -812 728 -752 728 -682V-126C728 -54 725 5 719 68H807C802 3 801 -72 801 -126V-547C831 -470 872 -338 889 -252L973 -281C945 -371 901 -496 872 -573ZM550 -615C597 -615 631 -613 661 -609V-678C628 -674 597 -671 550 -671V-764C550 -776 555 -793 563 -799C577 -809 575 -815 559 -815C525 -815 502 -817 473 -821C477 -794 479 -738 479 -671C439 -671 410 -673 374 -678V-606C409 -611 441 -615 479 -615V-494C422 -494 384 -496 346 -501V-429C391 -436 439 -439 520 -439C594 -439 649 -437 686 -432V-501C652 -497 608 -494 550 -494Z"/>
</svg>