<svg xmlns="http://www.w3.org/2000/svg" viewBox="0 -1000 1000 1000">
	<path fill="#000000" d="M538 -445H437V-553H538ZM611 -377C608 -400 607 -434 607 -468V-695C607 -728 608 -756 611 -780C597 -778 573 -777 555 -777H422C406 -777 382 -778 366 -780C367 -756 368 -725 368 -693V-120C368 -49 366 6 360 74H445C439 8 437 -49 437 -120V-380H506C534 -380 582 -379 611 -377ZM835 -449H724V-556H835ZM911 -782C895 -780 875 -779 855 -779H709C692 -779 669 -780 653 -782C656 -758 657 -724 657 -690V-466C657 -432 656 -404 653 -381C682 -383 723 -384 751 -384H835V-71C835 -26 819 -19 720 -32C749 9 755 35 753 79C903 52 909 43 909 -65V-688C909 -721 910 -758 911 -782ZM538 -615H437V-719H538ZM835 -617H724V-720H835ZM173 -358C132 -338 89 -320 47 -305C65 -278 82 -246 96 -212C125 -236 150 -256 173 -272V-45C173 -23 166 -16 83 -20C112 20 117 40 115 84C236 61 247 49 247 -14V-321C278 -339 308 -354 343 -370C335 -396 331 -432 333 -462C309 -440 281 -420 247 -399V-571C274 -571 318 -567 343 -563V-642C317 -637 280 -635 247 -635V-760C247 -792 249 -799 252 -802C268 -816 266 -822 247 -821C219 -820 194 -821 161 -823C169 -787 173 -732 173 -634C123 -634 85 -637 56 -642V-563C85 -568 126 -572 173 -572Z"/>
</svg>