<svg xmlns="http://www.w3.org/2000/svg" viewBox="0 -1000 1000 1000">
	<path fill="#000000" d="M185 -369C133 -355 86 -346 49 -341C64 -312 73 -284 79 -251C103 -264 139 -279 185 -295V-67C185 -33 169 -27 75 -35C102 4 108 23 112 58C234 48 258 30 258 -36V-319C284 -327 313 -336 342 -344C336 -369 335 -388 339 -417C312 -407 285 -398 258 -389V-579C299 -578 331 -576 358 -571V-653C331 -648 299 -646 258 -645V-746C258 -763 262 -776 276 -787C295 -802 292 -808 261 -807C233 -806 209 -807 174 -814C180 -790 184 -739 185 -645C135 -646 99 -648 68 -653V-571C99 -576 135 -579 185 -580ZM878 23C813 -26 750 -68 687 -104L634 -60C699 -19 767 38 818 93ZM715 -449C834 -449 886 -445 921 -440V-512C880 -508 831 -504 776 -504H603C611 -525 618 -548 624 -571C733 -571 808 -568 862 -561V-633C809 -626 734 -623 635 -623C639 -646 643 -668 645 -690C759 -690 835 -687 896 -680V-753C836 -746 762 -743 653 -743C662 -785 669 -801 674 -804C687 -812 685 -817 673 -818C650 -819 611 -824 580 -830C579 -800 578 -771 575 -743C495 -744 436 -747 386 -753V-680C434 -686 492 -689 570 -690C567 -667 563 -645 559 -623C494 -624 450 -626 407 -633V-561C448 -567 490 -570 548 -570C543 -549 537 -527 529 -504C426 -505 388 -507 343 -512V-440C389 -445 429 -448 504 -449C467 -384 404 -321 284 -275C316 -257 329 -242 340 -218C409 -261 458 -298 495 -335V-284C519 -286 547 -289 583 -290C582 -258 579 -229 574 -204C493 -205 436 -208 387 -214V-137C433 -143 485 -146 558 -147C524 -59 453 -20 333 5C363 35 374 53 385 80C516 35 598 -25 632 -147C733 -147 799 -144 855 -137V-214C801 -207 738 -204 643 -204C647 -230 649 -259 649 -290C687 -289 715 -286 738 -284V-336C792 -287 860 -253 928 -230C931 -257 945 -295 969 -319C843 -336 767 -367 715 -449ZM728 -346C700 -343 665 -342 616 -342C568 -342 535 -344 505 -346C536 -378 558 -411 578 -449H656C673 -410 698 -375 728 -346Z"/>
</svg>