<svg xmlns="http://www.w3.org/2000/svg" viewBox="0 -1000 1000 1000">
	<path fill="#000000" d="M503 -670H691L633 -585C529 -585 471 -587 429 -589C458 -618 480 -643 503 -670ZM811 -366C778 -404 746 -439 699 -484L652 -446C706 -394 731 -362 757 -321ZM886 -255V-515C886 -546 887 -573 889 -592C852 -587 810 -586 717 -585L815 -736C781 -732 704 -728 652 -728H548C585 -774 597 -783 617 -791C634 -798 632 -809 615 -812C576 -819 555 -826 530 -838C508 -773 437 -686 342 -600V-624C314 -619 283 -617 240 -616V-746C240 -757 247 -784 258 -797C276 -818 274 -824 243 -823C215 -822 193 -825 157 -831C165 -793 171 -755 171 -616C121 -617 86 -619 55 -624V-538C86 -543 121 -546 171 -547V-360C132 -346 91 -333 45 -319C60 -292 72 -261 77 -231C103 -248 131 -263 171 -281V-55C171 -16 150 -7 73 -31C97 -1 108 29 111 66C230 55 240 42 240 -36V-310C270 -321 305 -334 346 -348C336 -373 333 -396 337 -427C304 -410 273 -398 240 -386V-546C283 -545 314 -543 342 -538V-586C358 -575 370 -562 381 -543C386 -547 390 -552 394 -555C395 -543 395 -530 395 -515V-254C363 -255 328 -256 298 -260V-188C339 -193 388 -194 429 -194H570C530 -98 441 -33 309 2C337 27 349 43 363 77C526 10 606 -81 641 -191C703 -61 783 7 912 62C916 27 925 6 954 -26C845 -45 762 -97 702 -194H825C882 -194 910 -194 958 -188V-260C931 -257 910 -256 886 -255ZM466 -254V-333C483 -326 495 -317 505 -307C593 -414 613 -436 628 -438C642 -440 641 -455 625 -461C602 -469 590 -476 566 -493C546 -449 528 -419 466 -353V-525H816V-254H656C663 -284 668 -298 679 -307C705 -329 696 -341 677 -340C660 -339 631 -342 593 -351C595 -316 594 -284 588 -254Z"/>
</svg>