<svg xmlns="http://www.w3.org/2000/svg" viewBox="0 -1000 1000 1000">
	<path fill="#000000" d="M184 -398C127 -379 80 -366 32 -357C55 -331 69 -310 85 -274C118 -292 151 -309 184 -323V-69C184 -30 173 -22 72 -37C103 3 109 26 106 65C237 51 256 32 256 -38V-351C288 -363 322 -373 358 -382C352 -408 353 -429 361 -466C322 -449 288 -436 256 -424V-572C280 -572 313 -569 334 -565V-646C313 -643 278 -640 256 -640V-767C256 -785 260 -796 273 -806C294 -823 290 -831 259 -830C231 -829 208 -831 172 -837C178 -808 184 -747 184 -639C112 -639 84 -641 52 -646V-565C84 -571 126 -574 184 -574ZM680 -389H824V-334H680ZM613 -334H465V-389H613ZM613 -646H466V-695H613ZM680 -695H824V-646H680ZM680 -592H824V-541H680ZM613 -541H466V-592H613ZM757 -71C789 -104 809 -133 830 -175C873 -174 911 -172 957 -167V-238C883 -232 817 -229 734 -229H614C624 -247 633 -265 640 -282C757 -282 840 -281 900 -279C898 -300 897 -329 897 -361C897 -393 898 -424 900 -446C844 -443 782 -442 680 -442V-486C781 -486 842 -485 897 -481C894 -510 893 -548 893 -591C916 -590 939 -587 960 -583V-654C939 -650 919 -648 893 -647C893 -677 895 -725 897 -754C839 -749 780 -748 680 -748C680 -791 684 -800 693 -806C713 -820 713 -830 690 -829C660 -828 632 -830 607 -835C610 -818 612 -795 613 -748C512 -748 450 -750 393 -754C395 -726 396 -689 397 -649C381 -650 366 -652 351 -654V-583C366 -585 381 -587 397 -589C396 -548 395 -511 393 -483C448 -485 512 -486 613 -486V-442C510 -442 448 -443 391 -446C394 -425 395 -394 395 -361C395 -329 394 -301 391 -279C440 -281 484 -282 563 -282C553 -262 544 -245 536 -229C457 -229 387 -231 315 -237V-167C381 -172 436 -175 504 -176C482 -142 460 -116 431 -86C501 -79 563 -66 621 -51C548 -15 449 -3 328 -9C366 15 383 43 385 73C560 48 648 19 705 -23C772 2 831 34 886 70C901 43 916 24 941 0C878 -28 817 -51 757 -71ZM583 -176H743C729 -143 709 -116 685 -94C641 -107 597 -118 551 -128C561 -141 572 -157 583 -176Z"/>
</svg>