<svg xmlns="http://www.w3.org/2000/svg" viewBox="0 -1000 1000 1000">
	<path fill="#000000" d="M536 -621H448V-709H536ZM629 -495C605 -504 585 -516 574 -535C564 -482 558 -478 512 -478C453 -478 448 -483 448 -510V-571H539C565 -571 587 -569 604 -565C600 -596 598 -634 598 -671C598 -705 600 -739 604 -770C581 -765 551 -763 489 -763C422 -763 403 -765 374 -770C377 -749 379 -726 379 -703V-516C379 -427 384 -421 501 -421C588 -421 600 -428 629 -495ZM830 -625H731V-717H830ZM945 -504C921 -513 898 -526 880 -544C871 -486 860 -480 801 -480C736 -480 731 -482 731 -505V-573H834C862 -573 883 -571 901 -568C897 -602 894 -639 894 -675C894 -710 896 -745 901 -775C880 -770 850 -768 781 -768C720 -768 691 -770 661 -775C665 -752 666 -732 666 -701V-515C666 -423 676 -419 807 -419C897 -419 916 -434 945 -504ZM580 -65C561 -74 536 -91 514 -110C456 -51 380 -4 308 23C328 38 351 61 365 84C412 59 464 27 499 2C553 -38 566 -45 578 -46C596 -48 597 -56 580 -65ZM908 14C839 -39 782 -78 717 -119L668 -65C733 -20 786 24 842 79ZM179 -372C135 -355 92 -342 49 -331C58 -298 67 -261 71 -232C102 -252 140 -273 179 -293V-60C179 -26 164 -10 74 -19C101 14 112 44 113 70C236 54 252 41 252 -29V-329C288 -345 323 -361 352 -373C347 -391 344 -421 347 -449C314 -431 283 -416 252 -402V-571C287 -570 316 -567 338 -563V-642C316 -638 287 -636 252 -635V-745C252 -762 256 -770 270 -781C293 -799 290 -807 259 -806C233 -805 204 -807 168 -813C176 -785 179 -735 179 -634C131 -635 93 -637 66 -642V-563C93 -568 131 -571 179 -572ZM763 -196V-282C809 -282 861 -280 901 -275V-343C861 -338 809 -336 763 -336C764 -361 770 -383 781 -393C792 -403 792 -410 774 -409C758 -408 715 -410 689 -415C692 -398 694 -368 694 -336H567C568 -363 574 -382 585 -392C599 -405 596 -409 578 -408C562 -407 518 -409 491 -414C494 -397 496 -368 497 -336C457 -337 413 -339 378 -343V-275C413 -279 457 -281 498 -282V-196C440 -197 367 -200 323 -205V-126C374 -131 469 -134 528 -134H749C808 -134 903 -131 954 -126V-205C908 -199 822 -196 763 -196ZM567 -196V-282H695V-196Z"/>
</svg>