<svg xmlns="http://www.w3.org/2000/svg" viewBox="0 -1000 1000 1000">
	<path fill="#000000" d="M576 -320H506V-416H576ZM638 -258C635 -287 632 -330 632 -370C632 -407 634 -445 638 -473C616 -468 588 -464 542 -464C496 -464 469 -468 443 -473C447 -447 450 -408 450 -372C450 -333 448 -292 443 -259C469 -263 496 -266 542 -266C588 -266 618 -262 638 -258ZM403 -157L333 -168C330 -110 312 -43 284 9L366 27C384 -34 398 -96 403 -157ZM810 -53C784 -59 756 -75 732 -100C733 -37 724 -24 699 -18C660 -8 590 -5 563 -10C527 -15 518 -29 518 -67V-123C518 -150 521 -177 528 -186C538 -197 536 -202 522 -202C499 -202 462 -205 440 -211C445 -183 448 -152 448 -93V-33C448 37 455 45 534 55C566 58 666 57 715 54C764 51 778 33 810 -53ZM935 -65C900 -114 862 -165 834 -199L769 -160C802 -120 840 -63 864 -22ZM695 -132C678 -163 659 -202 648 -234L585 -207C598 -181 613 -146 626 -102ZM624 -524V-587C603 -583 581 -582 545 -582C508 -582 485 -583 466 -587V-524C485 -526 508 -527 545 -527C581 -527 603 -526 624 -524ZM897 -775C883 -793 861 -830 851 -846L772 -816C784 -799 807 -762 817 -740ZM162 -401C129 -392 92 -383 48 -374C53 -345 60 -305 61 -273C91 -293 125 -310 162 -326V-82C162 -50 154 -46 60 -55C76 -22 86 11 92 42C228 17 234 10 234 -91V-355C259 -364 285 -373 313 -381C306 -401 303 -424 306 -452C281 -441 258 -432 234 -424V-565C268 -564 294 -561 316 -557V-641C294 -637 268 -634 234 -633V-767C234 -784 238 -792 252 -803C273 -820 268 -829 237 -828C209 -827 187 -828 151 -835C157 -806 162 -765 162 -633C121 -634 91 -636 66 -641V-557C91 -562 121 -565 162 -566ZM660 -649C668 -524 686 -435 719 -367C697 -338 671 -309 640 -280C656 -268 675 -249 688 -234C711 -259 733 -284 754 -311C767 -293 783 -276 801 -260C880 -190 928 -204 959 -334C938 -344 910 -364 899 -386C886 -288 866 -284 814 -340C806 -349 799 -357 792 -366C808 -391 823 -419 836 -446C875 -531 883 -545 892 -551C904 -559 902 -562 888 -565C869 -569 834 -584 817 -594C806 -531 788 -477 760 -428C742 -476 733 -541 727 -649C801 -648 879 -645 922 -641V-722C879 -717 797 -713 725 -713C726 -774 734 -811 742 -820C756 -835 754 -838 737 -838C717 -838 664 -842 642 -847C644 -820 649 -770 654 -713C419 -713 374 -716 349 -722C360 -437 346 -366 256 -226C281 -221 306 -213 329 -200C400 -316 426 -427 425 -649Z"/>
</svg>