<svg xmlns="http://www.w3.org/2000/svg" viewBox="0 -1000 1000 1000">
	<path fill="#000000" d="M790 -229C835 -260 847 -267 856 -268C871 -269 873 -279 859 -285C846 -291 821 -310 803 -326C781 -295 740 -258 695 -223C679 -255 657 -283 630 -305C647 -317 664 -330 680 -342C779 -342 859 -340 912 -338V-400C858 -398 776 -396 675 -396C574 -396 493 -398 439 -400V-338C476 -340 527 -341 587 -341C536 -304 485 -279 419 -256C442 -237 452 -222 457 -197C499 -220 544 -247 588 -276C593 -272 598 -267 602 -261C544 -204 454 -150 399 -136C421 -118 431 -105 443 -77C559 -148 581 -164 630 -219C636 -207 641 -194 646 -181C577 -110 458 -37 387 -20C412 -4 427 12 436 32C547 -23 618 -78 661 -129C665 -110 666 -92 664 -76C658 -17 629 4 553 -10C581 22 588 39 589 72C703 54 723 18 727 -65C729 -102 725 -140 714 -175C726 -183 735 -189 744 -196C762 -118 803 -51 896 21C911 -10 927 -34 950 -54C869 -92 814 -138 790 -229ZM611 -720H778C822 -720 861 -718 892 -714V-782C861 -779 821 -777 777 -777H611C611 -806 612 -816 617 -819C630 -827 626 -833 610 -831C591 -829 562 -830 532 -833C536 -808 538 -784 538 -739V-673C469 -673 400 -676 353 -679C359 -574 356 -417 350 -313C340 -150 290 -40 232 18C258 29 276 42 297 69C368 -43 403 -128 413 -268C418 -333 428 -544 429 -618H543V-562L446 -551L450 -501L543 -511C543 -443 555 -432 620 -427C655 -424 767 -424 791 -427C842 -434 858 -448 881 -508C848 -515 834 -521 808 -538C802 -500 788 -483 764 -481C734 -478 682 -478 652 -481C610 -485 609 -489 609 -506V-518C703 -526 736 -529 773 -529L768 -588C734 -581 692 -576 609 -568V-618H839L815 -569L890 -546L941 -679C887 -675 774 -673 611 -673ZM239 -411V-553C274 -553 307 -550 333 -547V-625C307 -621 264 -617 239 -617V-761C239 -784 241 -792 253 -799C269 -809 267 -821 244 -820C216 -819 196 -820 160 -826C166 -796 170 -730 170 -617C136 -618 91 -621 62 -625V-547C91 -550 142 -554 170 -554V-383C129 -367 87 -354 38 -341C55 -314 68 -287 78 -259C106 -276 137 -292 170 -307V-73C170 -41 156 -32 79 -43C106 -8 113 14 110 54C221 37 239 11 239 -41V-337C274 -352 308 -364 338 -374C327 -398 323 -419 321 -450C293 -435 266 -423 239 -411Z"/>
</svg>