<svg xmlns="http://www.w3.org/2000/svg" viewBox="0 -1000 1000 1000">
	<path fill="#000000" d="M540 -601H456V-718H540ZM684 -601H602V-718H684ZM836 -601H745V-718H836ZM556 -315C610 -316 667 -316 722 -315C706 -277 693 -252 679 -230H536L599 -257C589 -276 570 -299 556 -315ZM537 -315L489 -286C505 -267 515 -252 527 -230C479 -230 429 -233 402 -236V-168C455 -171 518 -173 609 -174V-114C491 -115 411 -118 343 -122V-52C411 -56 491 -58 609 -58C609 -21 606 34 602 77H688C684 34 681 -21 681 -58C813 -58 889 -56 955 -52V-122C886 -117 803 -114 681 -114V-174C779 -174 845 -172 900 -168V-236C859 -232 808 -230 750 -230C780 -263 788 -269 796 -272C809 -275 810 -284 798 -288C781 -293 758 -304 736 -315C822 -315 885 -313 939 -310V-376C873 -371 794 -369 678 -369V-429C767 -429 828 -427 880 -423V-492C828 -487 767 -485 678 -485V-545C739 -545 838 -542 909 -537C906 -570 905 -611 905 -660C905 -703 907 -755 909 -784C830 -779 747 -776 648 -776C547 -776 465 -779 386 -784C389 -751 390 -705 390 -660C390 -618 388 -578 386 -537C454 -541 524 -544 607 -545V-485C532 -485 460 -488 408 -492V-423C459 -427 520 -429 607 -429V-369C496 -369 421 -371 356 -376C358 -377 360 -377 362 -378C360 -404 360 -429 364 -460C332 -443 300 -427 267 -412V-548C307 -548 337 -545 364 -541V-617C337 -612 307 -610 267 -610V-751C267 -768 271 -776 285 -787C306 -804 301 -813 270 -812C245 -811 213 -814 184 -819C190 -790 195 -708 195 -610C140 -610 100 -613 68 -617V-541C101 -546 140 -549 195 -549C195 -547 195 -382 195 -382C148 -365 100 -350 50 -340C66 -312 77 -288 88 -257C117 -275 155 -293 195 -311V-51C195 -15 187 -11 107 -16C128 16 137 41 141 73C248 51 267 37 267 -20V-341C297 -354 327 -365 352 -374V-310C399 -312 465 -314 537 -315Z"/>
</svg>