<svg xmlns="http://www.w3.org/2000/svg" viewBox="0 -1000 1000 1000">
	<path fill="#000000" d="M329 -425H222V-481H329ZM494 -273V-214C362 -214 239 -217 168 -222V-156C238 -162 362 -165 494 -165V-111C355 -111 136 -114 65 -119V-49C135 -55 355 -58 494 -58V-20C494 12 484 19 381 6C400 35 413 60 417 84C543 82 565 67 565 0V-58C702 -57 885 -54 949 -49V-119C885 -115 702 -112 565 -111V-165C682 -164 789 -161 852 -156V-222C789 -218 682 -215 565 -214V-277C739 -288 811 -291 826 -289C837 -287 842 -294 831 -304C818 -316 801 -338 791 -358C727 -345 603 -333 506 -328C332 -319 235 -318 151 -322C162 -302 169 -281 171 -263C249 -262 360 -266 494 -273ZM243 -617C248 -619 252 -621 256 -622C272 -627 272 -634 257 -636C241 -638 218 -646 197 -658C181 -625 168 -605 146 -580C117 -548 98 -533 66 -512C87 -503 108 -486 119 -471C135 -488 152 -506 167 -524C168 -517 168 -510 168 -498V-404C168 -387 168 -373 167 -355H222V-384H329V-362H388C387 -380 387 -394 387 -411V-498C387 -513 387 -521 388 -527C364 -526 334 -525 277 -525C222 -525 192 -526 169 -527C180 -540 191 -553 200 -567H472L470 -429C470 -408 460 -399 405 -406C418 -380 425 -361 428 -345C518 -358 531 -372 532 -425L539 -621C513 -619 470 -617 426 -617ZM857 -670C891 -670 921 -669 941 -667V-729C919 -727 883 -725 845 -725H691C711 -777 722 -791 732 -794C750 -800 749 -808 733 -809C713 -810 667 -819 643 -828C636 -733 606 -651 543 -553C562 -548 585 -539 603 -529C633 -576 655 -626 671 -670H796C785 -604 770 -558 744 -526C727 -548 712 -576 695 -612L646 -590C664 -548 682 -515 703 -487C661 -455 618 -437 543 -414C563 -399 580 -380 589 -358C654 -388 705 -416 742 -444C784 -406 837 -380 910 -353C915 -379 923 -401 945 -434C870 -447 822 -461 786 -485C820 -525 840 -576 857 -670ZM301 -754V-790C301 -800 305 -809 309 -812C320 -818 319 -825 306 -823C292 -821 255 -823 233 -829C235 -817 236 -790 237 -754C169 -754 134 -754 91 -758V-700C134 -703 169 -705 237 -705V-651H301V-705H382V-642H447V-705C503 -704 535 -703 574 -700V-758C535 -755 503 -754 447 -754V-790C447 -797 452 -809 456 -812C467 -818 465 -825 452 -824C435 -823 399 -825 378 -829C380 -817 381 -787 382 -754Z"/>
</svg>