<svg xmlns="http://www.w3.org/2000/svg" viewBox="0 -1000 1000 1000">
	<path fill="#000000" d="M584 -489C569 -517 545 -566 532 -602L449 -572C472 -538 491 -490 499 -459ZM919 -624V-708C852 -703 773 -701 649 -701C525 -701 446 -703 379 -708V-624C446 -629 525 -631 649 -631C773 -631 852 -628 919 -624ZM712 -739C695 -765 676 -806 664 -842L564 -816C582 -788 601 -745 608 -709ZM174 -477V-139C174 -67 169 19 163 76H255V-636C309 -748 324 -772 334 -781C355 -798 355 -803 332 -808C300 -815 277 -822 244 -838C228 -778 207 -710 180 -645C150 -573 93 -489 38 -416C65 -399 86 -376 100 -353C126 -393 149 -431 174 -477ZM784 -88H486V-231H784ZM486 -23H784V56H872C867 9 865 -24 865 -69V-194C865 -228 868 -275 872 -301C830 -297 787 -295 635 -295C483 -295 441 -297 398 -301C402 -275 404 -229 404 -194V-50C404 -5 403 24 397 75H486ZM742 -446C792 -532 806 -548 822 -557C839 -567 840 -576 826 -579C807 -583 749 -601 730 -609C723 -563 706 -516 670 -446H505C444 -446 368 -449 326 -453V-368C400 -375 497 -378 636 -378C778 -378 874 -375 950 -368V-453C895 -447 830 -446 742 -446Z"/>
</svg>