<svg xmlns="http://www.w3.org/2000/svg" viewBox="0 -1000 1000 1000">
	<path fill="#000000" d="M262 -484H400V-401H262ZM207 -739H416V-661H207ZM197 -526C199 -499 200 -466 200 -437C200 -396 199 -376 196 -343C234 -347 274 -348 336 -348C412 -348 434 -347 465 -343C462 -370 461 -398 461 -438C461 -476 462 -517 465 -542C415 -537 397 -537 336 -537C277 -537 230 -539 200 -542C205 -564 207 -586 207 -606H375C425 -606 441 -605 473 -601C470 -630 469 -671 469 -704C469 -735 471 -776 473 -797C440 -793 405 -792 311 -792C233 -792 183 -794 149 -797C166 -586 139 -487 76 -428C102 -409 111 -400 126 -376C157 -411 181 -461 197 -526ZM688 -619C675 -642 661 -670 654 -688L582 -667C594 -648 606 -619 609 -596ZM486 -269V-208C373 -208 289 -210 174 -216V-153C290 -159 370 -161 486 -161V-105C336 -105 242 -107 91 -113V-48C250 -54 347 -56 486 -56V-39C486 10 479 14 389 7C410 34 419 56 422 85C548 64 552 59 552 -6V-56C727 -55 807 -53 935 -48V-113C811 -108 727 -106 552 -105V-161C711 -160 765 -158 840 -153V-216C765 -212 682 -209 552 -208V-272C753 -281 841 -282 859 -279C870 -277 873 -281 863 -292C852 -304 835 -329 823 -349C760 -336 663 -326 523 -319C439 -315 271 -312 144 -312C154 -295 162 -277 164 -258C216 -259 255 -260 486 -269ZM756 -588H638C603 -588 551 -589 513 -594V-534C546 -537 589 -539 678 -540V-469C615 -470 565 -473 530 -476V-413C567 -416 615 -419 677 -420C676 -399 673 -378 669 -353H751C746 -380 744 -399 743 -420C817 -420 873 -417 915 -413V-476C873 -471 816 -469 742 -469V-540C831 -539 874 -537 946 -534V-594C909 -592 854 -589 816 -588C841 -636 849 -647 857 -651C876 -662 875 -668 856 -671C835 -674 815 -680 792 -693C785 -661 776 -635 756 -588ZM684 -754C598 -755 570 -757 531 -763V-692C593 -700 641 -702 723 -702C807 -702 869 -698 916 -692V-763C876 -757 839 -755 761 -754C753 -780 749 -807 747 -827L665 -813C673 -796 680 -775 684 -754Z"/>
</svg>