<svg xmlns="http://www.w3.org/2000/svg" viewBox="0 -1000 1000 1000">
	<path fill="#000000" d="M770 -422C749 -447 727 -498 719 -538H820C811 -506 790 -457 770 -422ZM815 -382C846 -428 884 -526 901 -595H657C664 -446 742 -329 891 -251C899 -279 920 -314 943 -335C892 -345 863 -353 815 -382ZM922 -13C877 -51 822 -94 774 -129L723 -81C775 -42 823 2 862 49ZM531 -95C514 -102 482 -123 465 -138C430 -91 368 -33 302 -3C323 10 343 27 357 46C415 5 471 -38 495 -59C508 -70 517 -76 528 -79C548 -84 547 -89 531 -95ZM235 -432V-560C271 -559 298 -556 322 -552V-636C298 -632 271 -630 235 -629V-750C235 -767 239 -775 253 -786C274 -803 269 -812 238 -811C209 -810 188 -811 152 -818C162 -783 163 -749 163 -628C112 -629 76 -631 46 -636V-552C76 -557 112 -560 163 -561V-395C128 -380 89 -365 36 -346C51 -326 62 -288 66 -258C94 -280 127 -302 163 -323V-64C163 -35 146 -22 61 -37C88 2 95 23 101 59C223 38 235 25 235 -33V-362C264 -377 292 -390 317 -401C309 -423 305 -446 305 -475C279 -458 256 -444 235 -432ZM599 -745C477 -745 417 -746 344 -750V-605H415V-687H856V-620H931V-750C862 -746 805 -745 688 -745C679 -775 672 -804 668 -831L573 -816C583 -793 592 -769 599 -745ZM609 -171V-78C609 -3 599 1 520 -2C540 29 546 54 546 79C674 59 678 47 678 -31V-171C755 -170 825 -167 867 -163V-236C818 -231 731 -228 638 -228C545 -228 460 -231 411 -236V-163C454 -167 527 -170 609 -171ZM529 -353C588 -421 623 -495 637 -578C614 -575 600 -574 578 -574H500C525 -605 539 -616 552 -621C564 -626 564 -629 551 -631C529 -635 499 -647 476 -661C460 -601 383 -507 323 -459C347 -449 363 -439 377 -423C407 -454 433 -485 464 -525H562C555 -500 543 -474 527 -447C510 -460 494 -474 476 -490L444 -452C462 -440 484 -423 500 -408C488 -392 475 -377 459 -362C442 -379 425 -395 404 -413L367 -380C385 -366 405 -347 421 -330C384 -301 339 -276 286 -256C306 -246 328 -222 336 -203C416 -249 478 -297 525 -349V-287C548 -290 596 -292 637 -292C679 -292 727 -290 749 -287V-354C727 -351 679 -348 637 -348C598 -348 554 -350 529 -353Z"/>
</svg>