<svg xmlns="http://www.w3.org/2000/svg" viewBox="0 -1000 1000 1000">
	<path fill="#000000" d="M663 -725V-615H571V-725ZM512 -725V-615H422V-725ZM819 -725V-615H725V-725ZM737 -147V-209C737 -225 740 -235 745 -240C756 -251 753 -258 741 -257C721 -256 690 -259 666 -263C669 -245 671 -219 671 -194V-23C671 41 694 64 809 64C911 64 928 52 955 -35C931 -37 901 -47 874 -67C864 -9 855 1 808 1C751 1 737 -11 737 -38V-90C775 -105 802 -118 857 -146C878 -157 889 -160 904 -159C922 -158 922 -166 911 -181C901 -194 880 -223 865 -247C837 -206 814 -188 737 -147ZM413 -67H556V-28C556 -6 548 -4 484 -10C501 15 507 37 507 74C613 63 621 55 621 -3V-244C621 -274 624 -305 627 -324C593 -322 532 -321 485 -321C436 -321 377 -322 342 -324C345 -305 348 -278 348 -244V-64C348 -24 346 18 342 72H413ZM556 -216H413V-264H556ZM413 -164H556V-120H413ZM735 -384C789 -406 827 -426 854 -442C870 -451 882 -457 891 -458C909 -460 912 -466 896 -479C885 -488 859 -516 844 -535C815 -497 785 -470 735 -441V-495C735 -510 738 -522 745 -528C753 -535 752 -540 741 -540C718 -540 689 -542 667 -545C671 -527 672 -502 672 -462V-352C672 -285 687 -272 783 -272C903 -272 911 -283 934 -359C909 -361 884 -373 857 -398C852 -336 837 -327 784 -327C744 -327 735 -338 735 -378ZM557 -430L413 -423C473 -498 493 -511 513 -513C527 -514 526 -527 514 -531C496 -537 482 -545 462 -558H793C834 -558 862 -557 891 -555C889 -595 888 -632 888 -672C888 -713 889 -758 891 -789C811 -785 724 -783 622 -783C520 -783 432 -785 353 -789C355 -758 356 -713 356 -672C356 -632 355 -595 353 -555C382 -558 405 -558 438 -558C415 -511 400 -489 371 -455C360 -442 338 -434 313 -427C324 -404 332 -379 338 -354C363 -362 380 -367 415 -369L582 -377C587 -367 590 -356 593 -344L656 -379C628 -432 609 -465 578 -515L522 -483C536 -463 548 -446 557 -430ZM235 -397V-551C277 -551 304 -548 332 -543V-625C304 -620 277 -617 235 -617V-750C235 -774 238 -782 247 -792C263 -810 258 -818 231 -817C207 -816 186 -818 153 -823C159 -790 164 -728 164 -617C113 -617 76 -620 46 -625V-543C76 -548 113 -552 164 -552V-371C124 -357 79 -345 29 -334C51 -304 67 -277 79 -253C110 -270 136 -283 164 -296V-62C164 -25 140 -14 76 -30C98 12 101 26 105 68C228 53 235 47 235 -33V-324C258 -331 283 -339 313 -348C307 -373 305 -399 310 -434C289 -421 264 -409 235 -397Z"/>
</svg>