<svg xmlns="http://www.w3.org/2000/svg" viewBox="0 -1000 1000 1000">
	<path fill="#000000" d="M242 -728C218 -761 198 -785 176 -810L117 -771C142 -750 160 -724 180 -691ZM518 -775C500 -784 477 -801 453 -821C431 -778 413 -757 379 -721C397 -715 424 -702 440 -690C484 -742 501 -759 517 -765C525 -768 526 -771 518 -775ZM249 -275C205 -202 154 -165 63 -133C88 -119 110 -99 126 -75C180 -107 223 -138 259 -171H423C401 -122 382 -97 355 -78C328 -105 306 -129 291 -150L229 -104C248 -89 271 -65 290 -42C221 -11 157 0 54 -4C80 25 88 40 97 72C190 69 317 36 397 -26C454 -71 485 -118 522 -235C484 -230 450 -228 391 -228H309C319 -242 333 -262 339 -275H539V-28C539 20 560 42 633 47C663 49 742 51 789 49C879 45 899 32 940 -57C898 -64 880 -70 846 -95C838 -37 829 -27 771 -20C745 -17 697 -17 664 -19C620 -21 610 -30 610 -65V-103C658 -116 716 -134 744 -144C811 -168 822 -168 844 -166C858 -165 861 -170 841 -188C823 -204 802 -225 779 -251C722 -212 682 -194 610 -172V-275C800 -275 871 -273 915 -267V-344C867 -338 801 -334 483 -334C197 -334 127 -338 67 -344V-267C109 -272 169 -275 249 -275ZM291 -567C266 -571 251 -576 222 -591C214 -539 206 -519 182 -467V-624H291ZM664 -712C697 -774 709 -788 717 -792C731 -800 730 -801 721 -804C688 -812 653 -826 630 -838C618 -769 590 -702 534 -621V-684C481 -682 420 -682 353 -682V-799C353 -811 356 -819 365 -822C380 -828 377 -833 362 -832C337 -831 315 -832 285 -836C289 -806 291 -756 291 -711V-682C222 -682 164 -682 108 -684V-515C108 -464 107 -428 102 -374H182V-456C206 -453 222 -448 247 -434C272 -522 281 -541 291 -551V-467C291 -428 289 -398 284 -361H361C355 -398 353 -428 353 -467V-553C375 -519 386 -494 401 -456L460 -489C439 -525 425 -550 406 -587L353 -557V-624H464V-373H538C536 -382 535 -397 534 -415C558 -397 570 -383 581 -362C636 -382 680 -407 715 -438C756 -407 804 -380 862 -354C873 -382 890 -406 915 -428C853 -439 803 -458 761 -486C797 -533 820 -589 835 -651C858 -651 885 -649 903 -647V-721C878 -715 844 -712 797 -712ZM757 -651C744 -601 728 -562 706 -531C685 -553 666 -578 648 -607L596 -565C617 -536 638 -509 662 -485C631 -462 591 -443 534 -425V-599C550 -588 570 -570 582 -556C594 -577 617 -620 633 -651Z"/>
</svg>