<svg xmlns="http://www.w3.org/2000/svg" viewBox="0 -1000 1000 1000">
	<path fill="#000000" d="M655 -448H773V-103C773 -42 770 7 765 60H855C849 5 847 -42 847 -103V-447C890 -446 918 -443 950 -436V-530C908 -520 867 -517 795 -517H655V-696C692 -696 722 -698 787 -708C877 -722 900 -722 921 -718C939 -714 943 -721 928 -736C914 -749 883 -793 872 -819C790 -785 663 -752 575 -757C578 -702 580 -594 581 -475C584 -168 545 -66 439 40C476 50 498 60 525 83C625 -66 654 -151 655 -448ZM265 -114C275 -118 276 -124 263 -127C245 -132 224 -141 194 -160C156 -87 108 -26 47 23C80 34 97 45 118 66C164 4 258 -111 265 -114ZM486 -85C455 -113 422 -140 384 -167L326 -124C367 -95 400 -57 426 -20ZM154 -693C123 -693 92 -696 65 -700V-619C93 -623 123 -626 154 -626V-241C128 -242 102 -244 78 -248V-166C116 -172 160 -174 202 -174H421C463 -174 504 -172 542 -166V-248C515 -244 487 -242 458 -241V-626C482 -625 506 -623 529 -619V-700C506 -696 482 -694 458 -693V-771C458 -785 461 -793 476 -803C486 -810 483 -816 468 -817C441 -818 413 -821 377 -828C382 -803 385 -766 385 -692H228V-772C228 -789 230 -797 240 -805C250 -813 247 -819 232 -818C204 -817 174 -820 144 -825C149 -799 154 -744 154 -693ZM228 -328H385V-240H228ZM228 -541V-627H385V-541ZM385 -481V-388H228V-481Z"/>
</svg>