<svg xmlns="http://www.w3.org/2000/svg" viewBox="0 -1000 1000 1000">
	<path fill="#000000" d="M309 -698C289 -738 259 -804 248 -833L167 -806C187 -775 216 -716 227 -671ZM636 -535C616 -485 564 -449 480 -439C504 -421 520 -405 535 -387C598 -409 646 -440 676 -484C724 -457 777 -426 837 -385H571C513 -385 459 -388 423 -392L422 -317C457 -321 522 -325 552 -325H801V-29C801 -2 795 2 712 -1C730 22 747 67 749 89C861 70 876 56 876 -40V-323C905 -322 934 -319 950 -317L951 -392C933 -389 900 -386 842 -385L885 -437C818 -474 758 -502 697 -525C699 -529 700 -532 701 -536C778 -536 857 -532 902 -527V-597C860 -592 787 -589 714 -588C722 -615 730 -639 735 -644C743 -652 741 -657 734 -657C713 -658 677 -662 649 -667C650 -639 649 -612 647 -588C592 -589 545 -592 509 -597V-527C540 -531 584 -534 636 -535ZM652 -110H536V-207H652ZM536 -55H652V-21H720C715 -46 713 -70 713 -100V-215C713 -242 715 -259 719 -270C697 -266 664 -263 593 -263C521 -263 490 -266 466 -270C470 -255 473 -237 473 -215V-68C473 -36 471 -14 466 12H536ZM573 -744C589 -770 605 -792 612 -795C627 -801 626 -809 612 -812C584 -817 562 -824 530 -841C494 -722 448 -628 381 -558C405 -551 427 -536 445 -518C491 -578 515 -616 544 -681H767C831 -681 895 -678 930 -675V-750C893 -746 829 -744 767 -744ZM228 -442C229 -488 230 -538 229 -583C299 -583 349 -581 385 -576V-653C348 -648 298 -645 226 -645C154 -645 102 -648 63 -653V-576C88 -579 118 -581 156 -582C158 -519 156 -438 153 -378C145 -205 107 -74 34 18C64 30 85 43 108 61C182 -67 217 -194 226 -376H316L298 -79C295 -33 284 -24 202 -32C232 0 241 23 245 58C351 36 365 11 370 -99L387 -448C352 -444 311 -442 228 -442Z"/>
</svg>