<svg xmlns="http://www.w3.org/2000/svg" viewBox="0 -1000 1000 1000">
	<path fill="#000000" d="M613 -504V-667H810V-504ZM810 -189V-141H894C888 -182 886 -212 886 -250V-659C886 -687 888 -720 892 -746C860 -739 806 -735 711 -735C616 -735 561 -739 531 -746C535 -721 537 -690 537 -659V-235C537 -196 535 -161 531 -126H613V-189ZM613 -253V-441H810V-253ZM279 -545H375C371 -387 367 -171 367 -64C367 32 372 37 646 37C896 37 911 27 950 -71C927 -77 892 -98 867 -126C851 -46 832 -38 655 -38C447 -38 444 -43 444 -99C446 -446 450 -543 459 -624C428 -619 358 -615 282 -614C283 -650 285 -691 286 -735C287 -763 294 -795 302 -801C318 -812 315 -823 297 -823C272 -823 224 -827 194 -833C203 -785 206 -709 205 -615C153 -617 92 -621 69 -624V-535C102 -540 144 -543 204 -544C196 -258 152 -124 54 0C82 10 107 26 130 51C204 -66 247 -183 264 -316C270 -361 274 -429 279 -545Z"/>
</svg>