<svg xmlns="http://www.w3.org/2000/svg" viewBox="0 -1000 1000 1000">
	<path fill="#000000" d="M323 -500C293 -539 261 -583 247 -611L173 -573C203 -540 232 -499 249 -462ZM825 -565C836 -568 837 -579 825 -582C807 -587 775 -602 745 -618C732 -580 705 -538 670 -497L742 -464C793 -542 813 -562 825 -565ZM439 -750C419 -778 402 -806 387 -836L297 -801C318 -771 332 -747 348 -716ZM553 -644V-436H443V-644ZM567 -709H390C289 -709 178 -713 116 -721V-633C178 -640 273 -643 369 -644V-436C251 -437 130 -441 65 -448V-358C140 -366 225 -369 515 -371C803 -372 899 -365 944 -358V-448C893 -441 756 -437 626 -436V-644C723 -644 837 -641 888 -633V-721C842 -714 727 -710 637 -709C677 -765 694 -782 705 -786C720 -791 719 -801 702 -805C683 -809 646 -825 618 -841C611 -812 594 -768 567 -709ZM694 -167H281V-238H694ZM694 -38H281V-111H694ZM281 18H694V66H781C775 22 774 -5 774 -34V-212C774 -251 777 -285 783 -310C720 -305 627 -301 497 -301C371 -301 255 -306 198 -310C203 -288 205 -261 205 -212V-22C205 7 203 37 196 77H281Z"/>
</svg>