<svg xmlns="http://www.w3.org/2000/svg" viewBox="0 -1000 1000 1000">
	<path fill="#000000" d="M281 -488H173V-533H281ZM345 -533H453V-488H345ZM281 -579H173V-625H281ZM345 -625H453V-579H345ZM281 -713V-677C180 -677 141 -678 103 -681C106 -672 108 -644 108 -624V-489C108 -468 105 -440 103 -431C141 -434 180 -434 281 -434V-400C185 -400 120 -404 66 -408V-340C119 -343 184 -346 280 -346C279 -324 278 -302 275 -278H351C349 -304 347 -325 346 -346C404 -346 462 -344 504 -341C495 -331 485 -321 474 -311C506 -306 525 -299 554 -282C623 -367 646 -438 648 -555H761V-409C761 -361 760 -327 757 -281H838C834 -327 833 -361 833 -409V-555C888 -555 908 -552 946 -545V-626C907 -620 876 -617 804 -617H648V-708C708 -713 786 -722 845 -732C882 -738 903 -739 913 -736C934 -730 935 -739 924 -752C907 -773 897 -789 875 -825C775 -787 694 -772 570 -767C575 -727 578 -663 577 -576C576 -472 563 -417 527 -368V-408C480 -404 414 -400 345 -400V-434C446 -434 484 -434 523 -431C519 -440 517 -468 517 -489V-624C517 -644 519 -671 523 -681C485 -678 446 -677 345 -677V-713C402 -713 482 -710 529 -706V-772C482 -768 400 -766 345 -766C345 -799 347 -808 355 -812C372 -823 368 -830 349 -829C322 -828 301 -831 273 -837C276 -824 279 -799 280 -766C186 -766 121 -768 68 -772V-706C120 -710 199 -713 281 -713ZM269 35H742V76H827C822 55 818 24 818 1V-204C818 -221 820 -251 823 -263C778 -261 674 -260 508 -260C336 -260 240 -261 190 -263C193 -251 195 -221 195 -204V8C195 32 191 64 184 83H269ZM742 -143H269V-197H742ZM269 -83H742V-27H269Z"/>
</svg>