<svg xmlns="http://www.w3.org/2000/svg" viewBox="0 -1000 1000 1000">
	<path fill="#000000" d="M463 -632H797V-580H463ZM797 -683H463V-733H797ZM252 -474H149V-682H252ZM252 -171H149V-407H252ZM549 -118C541 -134 529 -152 512 -173L454 -145C469 -129 479 -114 492 -93ZM585 -110C501 -80 436 -59 350 -34C365 -14 377 6 387 27C436 1 470 -15 587 -67C584 -78 583 -97 585 -110ZM671 -92C735 -56 809 -7 860 34L900 -32C860 -53 818 -74 776 -93C795 -111 810 -123 825 -130C836 -135 835 -138 824 -142C815 -145 784 -163 769 -180C758 -162 743 -142 722 -118C705 -126 688 -133 671 -140V-190C671 -208 674 -218 679 -225C686 -235 683 -240 675 -238C658 -234 630 -237 600 -243C603 -223 606 -174 606 -133V-22C606 3 603 8 524 3C543 33 551 65 550 81C669 66 671 59 671 -17ZM505 -357C424 -357 387 -359 342 -362V-301C393 -306 432 -307 530 -307C460 -232 397 -197 321 -178V-632C321 -688 322 -725 325 -750C307 -747 245 -745 195 -745C145 -745 95 -747 78 -750C81 -725 82 -689 82 -632V-140C82 -98 81 -48 77 -7H149V-113H252V-55H325C322 -93 321 -137 321 -174C342 -149 352 -132 360 -115C487 -171 544 -230 593 -307H677C724 -224 786 -181 916 -135C917 -157 925 -180 950 -218C846 -231 781 -260 733 -307C844 -307 885 -305 940 -301V-362C893 -358 852 -357 762 -357V-416C838 -416 863 -415 904 -410V-470C862 -466 838 -465 762 -465V-523C795 -523 833 -522 870 -520C868 -535 867 -562 867 -588V-725C867 -751 868 -779 870 -793C823 -788 775 -787 613 -787C484 -787 441 -788 393 -793C395 -780 396 -751 396 -725V-588C396 -558 395 -533 393 -520C432 -522 468 -523 505 -523V-465C427 -465 402 -466 359 -470V-410C402 -415 426 -416 505 -416ZM568 -416H699V-357H568ZM568 -523H699V-465H568Z"/>
</svg>