<svg xmlns="http://www.w3.org/2000/svg" viewBox="0 -1000 1000 1000">
	<path fill="#000000" d="M796 -48C806 -24 816 3 827 33L915 -8C873 -100 824 -200 782 -275L703 -242C726 -206 747 -164 774 -102L525 -82C572 -171 632 -294 654 -355C668 -395 682 -421 688 -425C717 -443 715 -452 689 -453C671 -454 631 -463 594 -475C576 -361 523 -221 468 -121C456 -99 438 -86 411 -75C427 -41 436 -14 441 15C483 1 537 -10 796 -48ZM427 -307C400 -345 378 -377 348 -429L283 -391C314 -339 330 -306 349 -263ZM963 -450C830 -510 778 -615 775 -812L695 -806C720 -598 743 -491 883 -364C910 -400 930 -422 963 -450ZM641 -759C654 -770 652 -774 639 -775C610 -777 571 -786 536 -799C515 -650 456 -510 377 -426C404 -418 434 -403 458 -387C521 -485 572 -590 606 -695C612 -713 630 -751 641 -759ZM198 -379V-113C198 -60 194 10 188 75H288C282 10 278 -60 278 -113V-565C332 -565 372 -562 405 -558V-642C372 -637 332 -635 278 -634V-780C278 -792 281 -799 290 -807C309 -824 304 -834 283 -832C246 -828 223 -829 189 -834C195 -790 198 -743 198 -634C140 -635 98 -637 63 -642V-558C97 -562 139 -565 197 -566C141 -385 97 -289 39 -220C59 -189 74 -159 89 -123C136 -206 169 -285 198 -379Z"/>
</svg>