<svg xmlns="http://www.w3.org/2000/svg" viewBox="0 -1000 1000 1000">
	<path fill="#000000" d="M618 -530H811L764 -449L858 -429L924 -600C869 -596 755 -593 581 -592C574 -597 566 -602 559 -607C747 -695 812 -719 837 -720V-795C785 -790 656 -788 508 -788C360 -788 234 -790 181 -795V-719C226 -723 280 -725 342 -725H683L498 -646C466 -665 435 -683 405 -699L350 -654C387 -637 420 -618 456 -592C273 -592 181 -594 120 -598V-526C190 -528 290 -530 452 -530C342 -452 209 -391 84 -371C102 -353 120 -324 129 -300C297 -351 446 -428 527 -530H540V-420C540 -395 524 -382 438 -396C459 -375 472 -347 474 -319C603 -333 618 -345 618 -395ZM411 -201C337 -117 226 -47 92 -13C119 8 136 31 146 57C288 7 410 -85 487 -193V-21C487 11 485 33 481 62H567C564 35 562 11 562 -21V-201H566C616 -78 720 -7 917 39C920 9 933 -23 962 -60C790 -74 709 -103 618 -201C744 -200 897 -198 936 -195V-268C845 -263 730 -260 563 -259C565 -275 569 -291 576 -294C594 -302 589 -312 570 -311C546 -310 506 -311 482 -314C484 -302 485 -283 486 -259C312 -259 190 -262 95 -268V-195C131 -198 302 -201 411 -201Z"/>
</svg>