<svg xmlns="http://www.w3.org/2000/svg" viewBox="0 -1000 1000 1000">
	<path fill="#000000" d="M574 -175H779C823 -175 863 -173 903 -168C899 -198 896 -241 896 -273V-387C896 -426 899 -465 903 -490C863 -485 801 -482 703 -482C605 -482 538 -484 499 -490C504 -458 506 -415 506 -387V-73C506 16 523 38 604 43C672 47 756 46 812 43C917 37 943 21 969 -57C942 -66 917 -87 899 -114C887 -50 871 -35 801 -27C766 -23 679 -20 650 -22C586 -27 574 -40 574 -87ZM667 -236H574V-422H667ZM731 -422H826V-236H731ZM189 -400V-132C189 -79 185 -9 179 56H273C267 -9 263 -79 263 -132V-384C287 -353 312 -315 327 -287L375 -345C349 -378 325 -407 293 -443L263 -410V-549C289 -549 330 -545 354 -542V-623C330 -619 300 -616 263 -616V-768C263 -780 265 -787 274 -795C293 -812 289 -822 268 -820C239 -817 211 -818 179 -822C185 -780 189 -708 189 -615C131 -615 84 -617 51 -623V-542C83 -547 130 -550 189 -550V-544C150 -427 96 -341 34 -280C54 -249 68 -223 82 -187C130 -268 162 -330 189 -400ZM460 -544H766C835 -544 900 -541 942 -537V-613C900 -609 835 -606 766 -606H460V-688C532 -693 692 -707 766 -715C840 -723 877 -727 893 -724C905 -722 911 -729 898 -740C879 -756 861 -780 843 -815C760 -776 503 -748 382 -744C389 -674 392 -567 390 -451C385 -178 367 -105 292 14C325 21 350 36 372 58C431 -78 460 -238 460 -544Z"/>
</svg>