<svg xmlns="http://www.w3.org/2000/svg" viewBox="0 -1000 1000 1000">
	<path fill="#000000" d="M207 -737L143 -739C152 -703 136 -635 121 -597L195 -594C209 -641 211 -676 207 -737ZM602 -731L533 -744C540 -708 529 -646 505 -609L582 -603C593 -654 597 -684 602 -731ZM481 -736C452 -743 437 -749 410 -764C399 -717 391 -695 362 -633C386 -631 409 -623 428 -609C468 -703 476 -720 479 -721C494 -727 492 -734 481 -736ZM874 -738C846 -749 825 -760 799 -776C789 -729 780 -703 750 -642C774 -637 794 -627 812 -612C857 -704 865 -717 872 -720C889 -729 888 -732 874 -738ZM683 -581C736 -536 774 -499 808 -458L873 -513C807 -565 779 -586 704 -637C709 -654 712 -672 714 -692C720 -749 729 -789 738 -795C753 -804 748 -810 735 -810C713 -808 678 -810 642 -816C654 -608 610 -545 489 -501C520 -489 533 -480 555 -454C606 -481 653 -522 683 -581ZM312 -578C359 -533 390 -495 422 -454L484 -516C420 -570 403 -583 333 -636C337 -654 340 -673 341 -694C343 -733 358 -791 367 -797C382 -806 379 -813 364 -812C342 -811 307 -813 271 -818C283 -610 240 -537 108 -504C138 -490 149 -480 163 -449C131 -450 105 -451 80 -452V-304H161V-382H840V-311H920V-452C844 -448 753 -446 500 -446C336 -446 238 -447 169 -449C233 -477 283 -520 312 -578ZM469 -212V-6C469 19 467 48 462 77H556C550 50 546 19 546 -6V-212H548C612 -88 757 -4 901 39C904 3 912 -22 938 -60C768 -91 689 -125 622 -212C701 -212 801 -206 877 -198V-285C794 -279 696 -276 546 -276V-321C546 -341 550 -355 554 -356C571 -362 570 -371 552 -370C516 -368 494 -369 463 -373C467 -353 469 -324 469 -276C321 -276 217 -279 135 -285V-198C212 -207 293 -211 376 -212C281 -101 208 -59 61 -16C91 7 97 15 112 56C251 7 391 -101 460 -212Z"/>
</svg>