<svg xmlns="http://www.w3.org/2000/svg" viewBox="0 -1000 1000 1000">
	<path fill="#000000" d="M177 -400V-120C177 -67 173 3 167 68H253C248 3 245 -67 245 -120V-418C272 -378 290 -346 306 -303L372 -337C348 -378 322 -420 287 -468L245 -442V-559C278 -559 319 -556 343 -553V-631C319 -627 286 -624 245 -624V-765C245 -785 248 -792 255 -796C277 -809 272 -819 249 -817C219 -814 198 -814 165 -819C172 -775 177 -720 177 -624C126 -624 82 -627 54 -631V-553C79 -556 125 -560 168 -560C128 -398 97 -328 40 -247C67 -227 83 -211 99 -183C133 -247 155 -307 177 -400ZM780 -283H665V-347H780ZM780 -159H665V-229H780ZM475 -229H593V-159H475ZM593 -347V-283H475V-347ZM559 -569H698V-510H559ZM489 -682V-624C454 -624 423 -627 395 -631V-563C425 -566 458 -568 489 -568V-510C435 -510 383 -514 347 -518V-447C390 -453 438 -456 593 -456V-403C460 -403 425 -404 399 -408C402 -385 404 -354 404 -311V-160C369 -160 331 -164 300 -170V-89C333 -94 364 -97 404 -97C403 -29 399 30 394 63H475V-97H780V-37C780 -8 771 -2 707 -13C727 15 735 43 736 76C840 61 853 49 853 -3V-96C890 -96 925 -92 954 -86V-169C926 -164 883 -160 853 -160V-323C853 -358 855 -383 857 -408C838 -404 798 -403 665 -403V-456C846 -456 907 -452 938 -447V-518C904 -513 850 -510 768 -510V-569C812 -569 853 -566 887 -563V-631C853 -627 809 -624 768 -624V-682C827 -682 879 -680 913 -677V-744C879 -739 824 -737 768 -737V-775C768 -795 770 -801 781 -807C797 -815 797 -826 779 -825C747 -824 721 -825 693 -829C696 -817 698 -797 698 -737H559V-774C559 -794 561 -800 572 -806C588 -814 588 -825 570 -824C537 -823 512 -824 484 -828C487 -816 489 -793 489 -737C438 -737 395 -740 358 -744V-676C396 -679 445 -682 489 -682ZM698 -682V-624H559V-682Z"/>
</svg>