<svg xmlns="http://www.w3.org/2000/svg" viewBox="0 -1000 1000 1000">
	<path fill="#000000" d="M505 -354H773V-257H505ZM641 -417C520 -417 477 -419 428 -424C433 -393 436 -348 435 -305C435 -263 432 -221 428 -192C473 -196 503 -197 641 -197C751 -197 788 -195 850 -191C846 -221 844 -266 845 -309C845 -351 846 -391 850 -424C795 -419 754 -417 641 -417ZM589 -85C576 -118 558 -154 540 -184L465 -150C483 -122 498 -86 509 -53ZM308 -421L253 -388C275 -351 291 -313 310 -267L374 -308C354 -349 335 -381 308 -421ZM171 -381V-107C171 -54 169 7 163 77H251C245 7 243 -54 243 -107V-571C283 -570 305 -567 338 -563V-643C305 -638 284 -636 243 -635C243 -758 246 -790 254 -803C269 -826 267 -830 248 -828C230 -826 194 -829 163 -834C169 -790 171 -756 171 -635C124 -636 96 -638 62 -643V-563C95 -567 123 -570 171 -571C140 -411 100 -320 36 -244C58 -219 72 -198 91 -165C124 -239 148 -303 171 -381ZM680 -44C459 -44 417 -46 342 -52V31C411 26 479 24 647 24C776 24 856 26 925 31V-52C876 -48 822 -45 749 -45C777 -97 801 -132 814 -140C827 -148 827 -153 814 -156C796 -161 755 -177 733 -189C723 -145 703 -93 680 -44ZM482 -590C456 -612 429 -633 407 -650L363 -606C390 -586 418 -563 445 -538C418 -507 378 -474 318 -444C342 -432 365 -416 381 -396C435 -431 498 -496 531 -547V-492C552 -498 594 -500 634 -500C674 -500 720 -498 742 -492V-551C779 -499 838 -449 920 -403C934 -439 945 -459 969 -490C909 -504 870 -521 834 -551C879 -595 902 -610 926 -618C940 -623 943 -630 934 -636C925 -642 905 -662 882 -687C861 -658 835 -630 796 -589C779 -609 765 -632 753 -657C815 -719 848 -746 866 -753C881 -759 881 -765 871 -771C855 -779 839 -793 818 -815C797 -783 768 -749 732 -711C723 -742 716 -775 711 -811L641 -802C664 -699 691 -630 732 -566C708 -562 669 -560 634 -560C600 -560 565 -562 542 -566C564 -607 585 -671 614 -780C573 -776 537 -775 495 -775C449 -775 417 -777 384 -780V-704C422 -709 449 -712 529 -712C518 -671 504 -628 482 -590Z"/>
</svg>