<svg xmlns="http://www.w3.org/2000/svg" viewBox="0 -1000 1000 1000">
	<path fill="#000000" d="M601 -143H689V-80H601ZM820 -215C781 -245 750 -266 713 -289L674 -255C716 -226 751 -201 789 -168ZM545 -189C546 -168 547 -141 547 -113C547 -82 546 -51 544 -28C571 -29 599 -29 646 -29C693 -29 723 -28 747 -27C744 -48 743 -81 743 -113C743 -144 745 -175 747 -197C723 -194 695 -194 648 -194C605 -194 574 -194 551 -196C587 -235 599 -245 613 -250C625 -255 627 -262 618 -266C596 -275 582 -283 567 -298C535 -255 510 -225 469 -185L513 -155C525 -169 535 -180 545 -189ZM800 80C900 66 910 54 910 3V-249C910 -312 912 -356 914 -376C865 -370 844 -369 651 -369C473 -369 433 -370 387 -376C390 -343 391 -311 391 -249V-86C391 -23 389 13 381 64H463V-312H836V-25C836 -1 822 5 765 -6C785 26 798 58 800 80ZM691 -612L802 -693C834 -716 868 -722 893 -720V-788C823 -786 752 -785 639 -784C476 -783 445 -784 385 -788V-720C445 -725 481 -727 571 -727H764L648 -638C598 -674 584 -683 543 -705L497 -658C558 -636 565 -632 595 -612C482 -613 433 -615 376 -619V-545C434 -549 501 -553 580 -555C504 -497 421 -463 326 -440C347 -425 364 -406 374 -383C503 -438 569 -477 655 -555H674V-473C674 -447 668 -442 595 -455C608 -433 615 -410 619 -383C736 -403 744 -409 744 -451V-555H859L828 -494L900 -475L950 -619C889 -614 833 -612 691 -612ZM172 -366V-113C172 -60 168 10 162 75H254C248 10 244 -60 244 -113V-371C264 -341 283 -307 298 -271L359 -306C336 -343 314 -376 290 -410L244 -379V-537C279 -536 308 -533 329 -530V-609C308 -605 279 -603 244 -602V-756C244 -768 246 -775 255 -783C274 -800 269 -810 249 -808C218 -805 198 -806 164 -810C170 -766 172 -714 172 -601C108 -602 90 -604 62 -609V-530C89 -534 124 -537 169 -538C117 -358 87 -292 36 -222C58 -193 67 -177 81 -144C121 -222 148 -288 172 -366Z"/>
</svg>