<svg xmlns="http://www.w3.org/2000/svg" viewBox="0 -1000 1000 1000">
	<path fill="#000000" d="M664 -79H850V-55C850 -9 840 0 765 -15C785 17 791 41 792 74C896 65 920 44 920 -26V-301C920 -335 920 -367 922 -384C880 -381 819 -380 758 -380C696 -380 629 -381 593 -384C595 -363 595 -336 595 -301V-76C595 -24 594 14 589 68H664ZM850 -259H664V-319H850ZM664 -197H850V-141H664ZM647 -644C618 -583 583 -543 519 -489C539 -481 563 -464 575 -443C614 -482 649 -524 677 -571V-538C700 -541 728 -544 755 -545V-480C692 -481 651 -483 628 -486V-418C663 -423 720 -425 786 -425C852 -425 907 -423 942 -418V-486C920 -483 885 -481 823 -480V-546C876 -545 897 -542 916 -539V-609C881 -604 856 -602 790 -602C760 -602 733 -603 697 -606C703 -618 709 -631 715 -644H821C867 -644 912 -644 954 -639V-714C912 -710 867 -709 821 -709H740C762 -763 772 -780 781 -785C797 -794 797 -805 782 -807C755 -811 727 -818 699 -829C697 -796 688 -756 672 -709C625 -709 592 -711 565 -714V-639C586 -642 615 -643 647 -644ZM157 -623C98 -624 70 -626 48 -629V-548C69 -551 91 -553 157 -554C127 -405 74 -308 26 -253C42 -234 57 -212 72 -175C106 -230 137 -301 157 -364V-124C157 -69 155 6 151 74H231C226 6 224 -69 224 -124V-423C246 -390 266 -355 280 -326L330 -357V-159C330 -77 329 -16 326 71H394V-704H475L419 -451C460 -389 481 -333 481 -281C481 -208 462 -191 402 -208C427 -176 435 -139 434 -106C529 -129 545 -175 545 -277C545 -343 523 -404 482 -454L558 -772C528 -768 500 -766 447 -766C394 -766 356 -767 327 -772C329 -754 330 -711 330 -674V-367C313 -401 285 -441 254 -474L224 -455V-554C271 -553 297 -551 314 -548V-629C297 -626 270 -624 224 -623V-741C224 -765 232 -795 245 -804C269 -821 263 -830 243 -828C220 -826 181 -827 152 -831C156 -786 157 -705 157 -623Z"/>
</svg>