<svg xmlns="http://www.w3.org/2000/svg" viewBox="0 -1000 1000 1000">
	<path fill="#000000" d="M896 -331C878 -400 857 -469 837 -530L764 -512C789 -458 807 -394 813 -316ZM800 -675C825 -769 833 -795 839 -799C857 -810 852 -816 834 -816C822 -816 790 -822 754 -834C734 -670 710 -602 656 -509C678 -505 699 -498 732 -484C749 -521 766 -566 780 -610H865C900 -610 925 -609 948 -607V-681C926 -677 901 -675 865 -675ZM583 -381V-460C616 -459 642 -458 656 -456C654 -481 653 -522 654 -564C654 -604 655 -626 656 -655C645 -654 615 -652 583 -652V-723C650 -723 665 -723 684 -720V-787C661 -783 645 -782 529 -782C413 -782 400 -783 376 -787C378 -768 379 -734 379 -705V-396C379 -368 377 -333 376 -315C400 -319 420 -320 536 -320C651 -320 671 -319 694 -315V-385C676 -382 656 -381 583 -381ZM444 -461H515V-381H444ZM444 -596H590V-518H444ZM517 -723V-651H444V-723ZM528 -199V-27H451V-199ZM674 -199V-27H593V-199ZM818 -27H741V-199H818ZM381 -28C355 -28 333 -30 300 -34V44C356 40 386 38 627 38C867 38 899 40 954 44V-34C928 -31 911 -29 894 -29V-193C894 -215 895 -242 897 -264C836 -261 789 -260 638 -260C487 -260 438 -261 379 -264C381 -242 381 -215 381 -193ZM176 -382V-125C176 -72 172 -2 166 63H255C249 -2 245 -72 245 -125V-433C268 -382 281 -343 291 -280L364 -308C348 -366 332 -413 307 -474L245 -451V-563C286 -563 317 -561 342 -558V-633C317 -630 286 -628 245 -627V-781C245 -798 247 -804 256 -812C273 -827 270 -835 250 -833C219 -830 202 -831 168 -835C174 -791 176 -738 176 -627C128 -628 93 -630 64 -633V-558C91 -561 126 -563 172 -564C131 -386 98 -326 33 -246C49 -215 59 -193 76 -143C116 -212 146 -274 176 -382Z"/>
</svg>