<svg xmlns="http://www.w3.org/2000/svg" viewBox="0 -1000 1000 1000">
	<path fill="#000000" d="M598 -115V-26C598 4 591 9 512 -4C533 31 539 47 540 75C657 67 671 43 671 -4V-115C764 -114 830 -111 886 -106V-181C819 -175 740 -173 616 -173C492 -173 413 -175 346 -181V-106C410 -112 484 -115 598 -115ZM655 -387V-279H584V-387ZM806 -279H723V-387H806ZM384 -279C359 -280 342 -282 307 -286V-208C358 -214 418 -218 623 -218C804 -218 888 -214 938 -206V-284C911 -281 899 -280 878 -279V-378C878 -398 878 -422 880 -444C826 -442 762 -441 630 -441C498 -441 433 -442 380 -444C383 -422 384 -398 384 -378ZM520 -387V-279H453V-387ZM356 -338C343 -372 325 -423 307 -471L252 -451C272 -394 281 -363 288 -315ZM473 -600L408 -623C394 -572 381 -546 356 -508L423 -487C440 -520 452 -546 473 -600ZM778 -553C750 -561 730 -569 705 -586C699 -546 692 -540 622 -540C572 -540 557 -550 557 -571V-604C557 -620 561 -629 571 -637C581 -645 577 -649 565 -647C545 -644 515 -646 487 -651C489 -638 490 -625 490 -606V-545C490 -493 506 -481 604 -481C744 -481 753 -486 778 -553ZM904 -526C877 -563 838 -612 800 -659L743 -622C791 -575 818 -532 838 -485ZM250 -622V-777C250 -790 253 -797 262 -805C278 -819 274 -829 257 -827C227 -824 206 -825 173 -829C179 -781 181 -732 181 -622C131 -622 93 -624 64 -629V-554C90 -558 126 -560 171 -561C140 -402 97 -306 35 -224C59 -202 77 -174 90 -140C131 -208 147 -248 181 -378V-108C181 -56 177 7 171 71H260C254 7 250 -56 250 -108V-560C290 -560 323 -558 346 -554V-629C323 -625 291 -622 250 -622ZM692 -597C685 -622 674 -647 657 -681L594 -663C614 -640 623 -614 626 -575ZM596 -756C453 -756 400 -756 352 -760V-637H426V-696H849V-626H920V-760C873 -756 821 -756 684 -756C673 -784 661 -819 655 -840L564 -827C579 -801 589 -780 596 -756Z"/>
</svg>