<svg xmlns="http://www.w3.org/2000/svg" viewBox="0 -1000 1000 1000">
	<path fill="#000000" d="M449 -451H208V-511H449ZM521 -396C518 -420 516 -450 516 -483C516 -511 519 -548 521 -568C473 -563 422 -561 330 -561C239 -561 183 -563 137 -568C140 -546 142 -510 142 -482C142 -449 141 -422 137 -396C186 -400 239 -401 330 -401C421 -401 474 -400 521 -396ZM178 -170C167 -202 160 -232 155 -263L88 -248C97 -224 105 -190 110 -152ZM426 -179C419 -208 414 -235 411 -265L343 -253C350 -229 357 -197 360 -165ZM488 -117V-89C488 -49 474 -43 394 -45C409 -21 419 7 423 34C527 10 556 -12 556 -52V-250C556 -290 558 -334 561 -358C532 -355 492 -353 449 -353C416 -353 371 -355 340 -358V-288C367 -292 386 -293 407 -293H488V-169C427 -148 380 -137 308 -124C317 -101 324 -79 329 -60C406 -90 446 -103 488 -117ZM736 -237C758 -98 819 -12 910 71C925 43 943 20 979 -4C839 -96 763 -200 761 -421C765 -446 768 -461 771 -466C782 -486 781 -490 768 -489C744 -487 712 -489 684 -493C702 -238 646 -59 507 38C540 44 563 55 587 76C667 0 709 -79 736 -237ZM678 -589H860L816 -473L894 -455L947 -667C905 -662 850 -659 794 -659H702C724 -727 754 -797 760 -801C775 -812 772 -821 757 -823C726 -828 698 -834 663 -842C646 -699 598 -546 539 -449C568 -443 582 -439 606 -428C630 -475 659 -539 678 -589ZM233 -102V-54C233 -18 218 -13 151 -18C167 4 178 36 180 65C271 53 297 37 297 -19V-251C297 -291 300 -345 302 -360C261 -355 223 -353 189 -353C142 -353 99 -356 71 -360V-288C95 -292 118 -294 151 -294H233V-156C173 -135 125 -125 41 -112C51 -88 61 -56 64 -34C145 -68 185 -84 233 -102ZM238 -672C268 -700 294 -727 317 -753C427 -694 460 -670 529 -614L576 -677C504 -717 436 -752 358 -789C364 -793 369 -795 374 -796C392 -799 390 -809 372 -812C359 -814 304 -831 280 -842C258 -799 243 -777 195 -725C151 -677 88 -626 42 -603C65 -585 85 -565 97 -547C148 -589 192 -628 229 -663V-608C256 -612 281 -613 333 -613C384 -613 424 -612 450 -609V-671C422 -669 386 -669 333 -669C287 -669 263 -670 238 -672Z"/>
</svg>