<svg xmlns="http://www.w3.org/2000/svg" viewBox="0 -1000 1000 1000">
	<path fill="#000000" d="M236 -630C242 -644 248 -657 254 -672C268 -704 292 -741 302 -748C325 -765 322 -775 301 -778C267 -783 237 -791 206 -805C197 -728 115 -485 40 -411C60 -396 71 -381 86 -348C115 -394 138 -433 160 -473V-81C160 -23 158 18 152 75H236ZM563 -452H432V-547H563ZM638 -547H781V-452H638ZM563 -607H432V-703H563ZM638 -703H781V-607H638ZM563 -257V-141C509 -135 475 -132 436 -131C448 -102 454 -82 458 -48C487 -60 533 -73 580 -82L735 -111C741 -97 745 -83 749 -68L805 -92C788 -132 767 -178 746 -220L694 -202C701 -189 708 -176 714 -162L638 -152V-257H835V-57C835 -18 807 -8 729 -22C761 16 767 34 770 67C888 53 909 29 909 -20V-233C909 -273 911 -300 916 -329C882 -323 831 -321 638 -321V-391C748 -390 810 -388 860 -383C856 -424 854 -464 854 -504V-661C854 -699 856 -740 860 -776C802 -770 736 -767 604 -767C475 -767 412 -770 353 -776C357 -741 359 -698 359 -660V-506C359 -464 358 -422 353 -383C407 -388 459 -391 563 -391V-321C395 -322 355 -324 320 -329C325 -303 327 -278 327 -233V-59C327 -5 325 26 319 71H401V-257Z"/>
</svg>