<svg xmlns="http://www.w3.org/2000/svg" viewBox="0 -1000 1000 1000">
	<path fill="#000000" d="M929 -621C912 -662 881 -712 844 -755L790 -723C820 -691 843 -648 864 -588ZM241 -306C225 -324 209 -342 199 -353L147 -294C168 -279 197 -249 218 -225C184 -146 119 -55 35 -3C62 8 89 25 110 46C203 -45 260 -140 292 -239C310 -296 324 -397 331 -569C316 -565 303 -564 273 -564H208C213 -605 218 -649 223 -697C290 -697 327 -694 364 -688V-766C327 -760 289 -757 220 -757C150 -757 111 -760 73 -766V-688C96 -691 121 -694 151 -695C139 -481 114 -389 46 -291C77 -278 90 -268 112 -242C156 -312 181 -396 199 -505H261C260 -440 253 -364 241 -306ZM593 -662C616 -638 629 -622 650 -593L698 -644C681 -663 643 -700 615 -722C618 -728 620 -734 622 -740C626 -750 638 -770 646 -776C656 -783 655 -788 642 -792C623 -798 597 -810 572 -824C564 -738 528 -646 484 -589C505 -587 534 -578 552 -569C568 -601 581 -629 593 -662ZM448 -692C465 -678 478 -665 498 -644L529 -703C508 -720 490 -732 469 -744C471 -748 472 -753 474 -757C481 -774 489 -787 495 -791C506 -800 504 -804 491 -807C474 -811 448 -820 422 -832C408 -732 386 -681 332 -609C354 -606 379 -597 397 -585C417 -623 433 -658 448 -692ZM602 -429C602 -449 605 -460 609 -463C623 -473 620 -483 605 -482C587 -481 571 -481 541 -485C544 -470 544 -459 544 -409V-94C526 -93 508 -91 492 -91V-430C492 -446 495 -454 500 -459C512 -471 509 -479 493 -479C477 -479 451 -482 429 -487C431 -471 432 -456 432 -434C390 -435 377 -436 343 -441V-372C376 -376 391 -377 432 -378V-324C381 -325 364 -327 342 -330V-261C366 -264 380 -266 432 -267V-211C387 -211 366 -213 336 -217V-149C364 -154 380 -156 432 -156V-87C368 -83 314 -81 291 -82C305 -54 315 -28 322 4C359 -14 397 -24 662 -47C627 -19 585 5 536 26C570 41 581 49 610 77C678 26 727 -15 763 -57C806 44 845 77 878 68C912 60 933 27 954 -56C926 -72 905 -92 885 -124C884 -76 876 -39 867 -37C854 -34 839 -49 809 -118C843 -174 866 -239 893 -336C902 -369 910 -388 919 -393C934 -402 933 -408 914 -414C893 -421 865 -438 845 -453C831 -352 811 -273 784 -209C776 -262 770 -345 766 -498C857 -497 901 -494 938 -490V-565C901 -560 858 -558 765 -557C766 -606 770 -688 774 -747C775 -765 781 -789 786 -793C798 -804 796 -810 775 -812C751 -814 724 -820 694 -829C699 -802 703 -736 702 -708C701 -667 700 -610 700 -557H571C446 -557 393 -560 351 -565V-490C393 -496 446 -498 572 -498H700C703 -328 718 -209 739 -128C720 -101 699 -78 674 -57C677 -76 682 -92 690 -109C668 -106 636 -103 602 -100V-152C645 -152 664 -150 689 -146V-216C663 -211 645 -209 602 -209V-266C648 -265 665 -264 689 -259V-327C666 -322 649 -321 602 -320V-373C642 -372 666 -370 690 -366V-435C666 -432 644 -430 602 -429Z"/>
</svg>