<svg xmlns="http://www.w3.org/2000/svg" viewBox="0 -1000 1000 1000">
	<path fill="#000000" d="M296 -210H240V-324H296ZM343 -151C343 -164 343 -180 343 -202V-332C343 -351 342 -368 343 -383C325 -382 298 -381 264 -381C225 -381 208 -381 189 -383C190 -368 190 -352 190 -332V-202C190 -183 190 -166 189 -152C207 -152 225 -152 264 -152C298 -152 325 -152 343 -151ZM470 -214H419V-323H470ZM524 -153C522 -168 523 -182 523 -204V-332C523 -351 523 -368 525 -383C507 -382 476 -381 443 -381C405 -381 384 -381 367 -383C368 -368 368 -352 368 -332V-204C368 -185 368 -168 367 -154C384 -155 405 -154 443 -154C476 -154 507 -155 524 -153ZM404 -502H296V-592H404ZM472 -443C471 -458 472 -471 472 -493V-604C472 -623 472 -640 473 -655C447 -654 401 -653 352 -653C293 -653 261 -653 236 -655C237 -640 237 -624 237 -604V-493C237 -474 237 -457 236 -443C261 -444 293 -443 352 -443C401 -443 446 -444 472 -443ZM932 -524C843 -517 839 -521 839 -565V-704C839 -735 842 -758 850 -782C822 -780 776 -778 713 -778C652 -778 607 -780 577 -782C600 -578 575 -516 482 -464C514 -453 532 -440 552 -417C645 -506 655 -535 655 -713H767V-522C767 -459 780 -446 922 -454C921 -483 924 -502 932 -524ZM649 -337H784C773 -269 750 -203 719 -160C681 -213 662 -274 649 -337ZM580 -334C602 -246 634 -164 671 -105C629 -64 583 -33 533 -11V-88C507 -81 456 -78 337 -78H159V-705H337C478 -705 501 -703 529 -695V-782C501 -773 479 -771 305 -771C144 -771 113 -774 79 -782C82 -745 83 -682 83 -625V-164C83 -107 81 -35 79 3C113 -5 130 -7 304 -7C418 -7 476 -4 510 -2C493 5 477 11 456 15C495 36 520 57 532 80C618 34 671 -1 717 -51C767 3 831 50 900 78C909 50 928 19 960 -4C871 -24 821 -49 764 -107C819 -188 851 -277 876 -404C823 -401 764 -399 707 -399C648 -399 589 -401 537 -404V-329C551 -331 566 -333 580 -334Z"/>
</svg>