<svg xmlns="http://www.w3.org/2000/svg" viewBox="0 -1000 1000 1000">
	<path fill="#000000" d="M795 -580H502V-714H795ZM308 -646C288 -691 260 -760 244 -799L156 -768C177 -730 203 -662 216 -615ZM215 -491H282C315 -491 369 -487 384 -482V-572C369 -566 333 -563 223 -563C145 -563 79 -566 60 -572V-482C75 -487 101 -490 134 -491V-215C134 -148 134 -115 129 -76C162 -80 214 -83 269 -83C307 -83 349 -82 385 -79V-168C350 -161 314 -158 215 -158ZM718 -352C713 -399 708 -459 705 -512C785 -511 842 -509 881 -505C876 -541 874 -572 874 -596V-704C874 -737 875 -763 880 -795C831 -790 761 -786 639 -786C490 -786 466 -788 417 -795C421 -760 424 -724 424 -688V-88C424 -43 417 -22 394 0C414 20 438 53 447 82C476 52 491 39 522 19L643 -60C633 -82 624 -116 619 -144C582 -115 551 -93 502 -63V-282H656C664 -235 674 -195 686 -164C721 -71 769 16 836 60C889 95 916 78 961 -64C938 -68 909 -95 885 -132C868 -17 860 -14 824 -56C785 -101 748 -194 729 -282C833 -281 885 -279 915 -275V-361C885 -356 830 -353 718 -352ZM502 -352V-512H632C634 -459 638 -400 645 -352Z"/>
</svg>