<svg xmlns="http://www.w3.org/2000/svg" viewBox="0 -1000 1000 1000">
	<path fill="#000000" d="M967 -73C941 -79 923 -90 902 -119C881 -5 873 -5 833 -121C803 -208 800 -434 819 -548C783 -543 634 -535 470 -535C301 -535 178 -539 121 -544V-470C182 -476 248 -478 369 -478H733C728 -230 755 -67 805 5C881 115 921 109 967 -73ZM368 -244C354 -179 316 -141 227 -101C248 -89 269 -70 282 -52C338 -81 378 -122 402 -167C446 -124 480 -85 505 -52L558 -103C508 -149 471 -176 417 -205C421 -218 425 -231 427 -244C480 -243 521 -240 551 -237V-301C521 -297 483 -294 433 -293C436 -313 441 -335 445 -337C457 -344 454 -350 444 -349C431 -349 398 -351 374 -355C375 -332 374 -312 374 -293C321 -294 286 -297 249 -301V-237C294 -241 318 -243 368 -244ZM590 -47H206V-363H590ZM206 13H590V53H669C664 11 661 -25 661 -63V-344C661 -376 664 -408 669 -431C635 -427 581 -424 400 -424C213 -424 164 -427 125 -431C129 -409 131 -377 131 -344V-63C131 -19 129 24 124 72H206ZM521 -585C654 -585 738 -583 809 -578V-650C739 -645 658 -643 521 -643C383 -643 303 -645 233 -650V-576C304 -582 388 -585 521 -585ZM263 -698H722C802 -698 851 -695 891 -690V-766C838 -760 800 -758 721 -758H308C324 -777 341 -794 355 -801C367 -807 367 -814 354 -816C334 -819 298 -833 267 -850C196 -716 133 -647 38 -580C63 -572 90 -556 110 -538C161 -582 220 -642 263 -698Z"/>
</svg>