<svg xmlns="http://www.w3.org/2000/svg" viewBox="0 -1000 1000 1000">
	<path fill="#000000" d="M397 -40C497 5 599 68 648 107L700 32C637 2 540 -50 432 -90C444 -111 451 -132 456 -154C466 -201 472 -222 481 -231C491 -241 490 -245 473 -244C443 -242 423 -242 390 -248C384 -159 369 -110 331 -73C286 -29 155 23 81 24C112 45 138 77 148 97C249 69 354 16 397 -40ZM273 -159L205 -170C202 -140 196 -120 179 -87L257 -75C268 -104 271 -119 273 -159ZM636 -147C619 -150 595 -165 574 -184C558 -149 545 -127 519 -95L585 -64C606 -99 620 -114 634 -123C652 -134 648 -145 636 -147ZM400 -293C507 -266 575 -231 653 -183L692 -256C626 -284 532 -316 428 -346C442 -382 452 -425 456 -467H732C723 -258 750 -63 808 -4C903 93 934 87 973 -88C949 -92 930 -103 899 -142C890 -25 874 -25 838 -102C805 -174 791 -416 817 -541C784 -536 623 -529 466 -529C281 -529 171 -532 113 -537V-459C161 -463 253 -466 385 -467C376 -397 353 -345 324 -320C276 -278 195 -246 83 -227C107 -205 125 -178 135 -157C230 -180 327 -223 378 -269C386 -276 393 -284 400 -293ZM268 -415L201 -434C197 -385 188 -348 176 -318L247 -302C256 -330 266 -378 268 -415ZM643 -420C624 -423 600 -436 578 -457C563 -423 540 -394 509 -364L579 -334C602 -370 625 -389 641 -398C659 -407 655 -418 643 -420ZM808 -577V-649C736 -644 652 -641 520 -641C390 -641 306 -644 234 -649V-577C305 -583 390 -586 520 -586C652 -586 736 -583 808 -577ZM334 -758C347 -770 359 -779 366 -782C377 -787 377 -795 364 -797C344 -799 294 -818 263 -836C214 -744 147 -662 39 -585C77 -572 101 -560 118 -542C178 -599 215 -633 269 -696H693C803 -696 851 -693 892 -688V-766C852 -761 806 -758 691 -758Z"/>
</svg>