<svg xmlns="http://www.w3.org/2000/svg" viewBox="0 -1000 1000 1000">
	<path fill="#000000" d="M421 -583C377 -578 320 -576 254 -576C173 -576 126 -578 88 -583V-489C127 -496 189 -502 321 -502C273 -286 196 -190 52 -114C90 -101 112 -83 133 -55C285 -158 374 -295 421 -583ZM623 -458C598 -512 571 -586 553 -655V-767C553 -784 558 -792 572 -803C593 -820 587 -829 556 -828C528 -827 489 -829 453 -835C460 -804 465 -752 465 -637V-52C465 -21 446 -9 341 -18C368 14 382 52 384 83C533 63 553 47 553 -15V-465C620 -266 728 -131 868 -53C882 -86 916 -125 950 -150C823 -196 729 -277 656 -395C729 -458 789 -509 828 -537C853 -555 877 -564 890 -564C915 -565 916 -570 904 -579C882 -595 831 -641 811 -668C758 -593 689 -515 623 -458Z"/>
</svg>