<svg xmlns="http://www.w3.org/2000/svg" viewBox="0 -1000 1000 1000">
	<path fill="#000000" d="M302 -259C271 -269 245 -284 224 -311C212 -261 200 -227 178 -167C159 -115 131 -56 98 -1C133 13 164 32 197 60C202 18 216 -33 244 -112C264 -168 281 -215 302 -259ZM265 -440C221 -473 159 -511 99 -538L58 -465C113 -443 180 -395 211 -362ZM305 -675C268 -716 212 -767 167 -802L106 -736C154 -706 203 -650 231 -604ZM666 -694V-733C666 -781 671 -802 680 -807C704 -820 696 -827 673 -827C637 -827 613 -829 575 -836C581 -815 586 -759 586 -694C473 -695 395 -698 329 -704V-615C395 -621 473 -624 586 -625V-498C504 -499 422 -501 375 -505V-157C375 -106 373 -68 367 -12H455V-430H586V-98C586 -53 584 13 579 79H674C669 15 666 -53 666 -98V-430H816V-123C816 -98 799 -87 718 -96C747 -64 765 -30 767 1C886 -16 894 -28 894 -82V-505C842 -501 752 -499 666 -498V-625C788 -625 874 -621 943 -615V-704C874 -698 788 -694 666 -694Z"/>
</svg>