<svg xmlns="http://www.w3.org/2000/svg" viewBox="0 -1000 1000 1000">
	<path fill="#000000" d="M273 -270C241 -280 213 -296 189 -319C178 -261 166 -210 152 -166C131 -95 105 -32 75 20C111 32 153 49 192 72C201 11 214 -50 226 -101C240 -159 255 -213 273 -270ZM277 -457C216 -498 171 -525 119 -555L71 -486C117 -462 155 -435 215 -381ZM317 -690C270 -732 231 -761 171 -801L110 -732C162 -704 215 -658 257 -617ZM775 -28V53H862C859 19 859 -7 859 -44V-338C859 -361 860 -378 864 -393C834 -391 772 -390 654 -390V-564C810 -564 855 -561 929 -554V-644C855 -638 813 -635 654 -635V-759C654 -787 664 -805 677 -816C689 -826 686 -831 670 -830C654 -829 600 -831 566 -836C570 -812 572 -765 572 -721V-635C444 -636 389 -638 327 -644V-554C387 -559 443 -563 572 -564V-390C466 -390 403 -391 371 -393C374 -379 376 -362 376 -338V-45C376 -8 375 34 371 70H460V-28ZM460 -98V-321H775V-98Z"/>
</svg>