<svg xmlns="http://www.w3.org/2000/svg" viewBox="0 -1000 1000 1000">
	<path fill="#000000" d="M290 -704C254 -733 195 -772 147 -800L95 -735C145 -706 200 -664 239 -630ZM774 -514V-600C742 -594 671 -592 611 -592C551 -592 482 -594 447 -600V-514C480 -521 529 -521 611 -521C693 -521 742 -521 774 -514ZM248 -475C209 -501 158 -535 109 -565L57 -497C100 -475 159 -430 194 -398ZM899 -777C863 -770 823 -766 609 -766C394 -766 356 -770 321 -777C323 -747 324 -668 324 -572V-228C324 -112 320 -16 313 75H407V-691H814V-67C814 -23 805 -18 698 -24C715 7 724 34 730 70C874 61 895 48 895 -29V-572C895 -673 896 -744 899 -777ZM739 -111C737 -139 736 -204 736 -268C736 -332 737 -398 739 -424C705 -421 678 -420 613 -420C547 -420 518 -421 483 -424C486 -396 487 -332 487 -268C487 -205 486 -140 483 -112C517 -114 547 -114 613 -114C678 -114 706 -113 739 -111ZM248 -268C219 -278 195 -297 174 -323C166 -272 154 -224 130 -156C109 -92 88 -46 63 -2C98 12 123 27 158 52C172 -4 178 -29 202 -113C222 -183 236 -232 248 -268ZM662 -185H562V-352H662Z"/>
</svg>