<svg xmlns="http://www.w3.org/2000/svg" viewBox="0 -1000 1000 1000">
	<path fill="#000000" d="M232 -312C204 -318 176 -333 157 -359C149 -297 138 -248 117 -179C87 -77 74 -46 49 3C88 16 111 25 146 47C158 -18 165 -57 184 -135C207 -229 220 -273 232 -312ZM590 -350C563 -387 544 -417 517 -465L469 -428C504 -372 516 -348 529 -307ZM247 -500C200 -521 143 -551 96 -578L51 -504C99 -488 167 -446 204 -415ZM286 -714C242 -741 200 -771 155 -808L101 -743C150 -715 189 -682 228 -638ZM685 -449V-107C685 -56 682 10 677 72H762C756 10 752 -56 752 -107V-438C781 -282 821 -185 903 -90C917 -127 937 -155 966 -175C873 -257 799 -388 759 -560C817 -559 871 -555 902 -551V-635C870 -630 813 -627 752 -627V-782C752 -793 756 -801 762 -807C779 -824 777 -835 757 -833C740 -831 707 -835 678 -841C683 -798 685 -752 685 -628C644 -629 611 -631 585 -635V-551C607 -554 635 -557 668 -558C631 -371 550 -222 471 -120C498 -106 519 -89 535 -70C593 -148 643 -260 685 -449ZM396 -402V-112C396 -61 393 6 386 67H472C467 5 463 -62 463 -113V-550C497 -549 522 -547 546 -543V-626C522 -622 497 -620 463 -619V-775C463 -786 465 -796 473 -803C489 -820 485 -831 468 -829C441 -826 417 -827 388 -831C394 -792 396 -717 396 -618C337 -618 294 -621 260 -626V-543C291 -548 332 -551 387 -551C324 -358 268 -233 204 -146C231 -134 244 -121 264 -94C324 -189 362 -272 396 -402Z"/>
</svg>