<svg xmlns="http://www.w3.org/2000/svg" viewBox="0 -1000 1000 1000">
	<path fill="#000000" d="M781 -464H446V-559H781ZM864 -397C861 -411 857 -450 857 -481V-697C857 -729 861 -768 864 -783C811 -778 774 -777 615 -777C457 -777 415 -778 361 -783C366 -768 369 -729 369 -697V-481C369 -450 366 -411 361 -397C415 -401 457 -402 615 -402C774 -402 811 -401 864 -397ZM781 -622H446V-714H781ZM277 -260C245 -272 224 -284 202 -307C191 -252 172 -190 152 -140C127 -76 106 -32 74 20C109 34 141 51 181 73C191 22 205 -34 225 -101C248 -175 264 -226 277 -260ZM427 -265V-316C427 -327 432 -336 442 -344C454 -354 452 -360 433 -359C412 -358 372 -362 347 -367C351 -341 353 -313 353 -243V-92C353 -38 348 -21 323 -10C337 15 346 36 356 68C379 53 419 31 460 13L572 -37C568 -57 565 -79 569 -115C525 -89 473 -63 427 -45V-200H508C544 -200 564 -198 578 -194V-271C565 -267 544 -265 508 -265ZM713 -218V-311C713 -328 717 -335 727 -344C742 -358 739 -365 723 -365C698 -364 661 -366 636 -372C638 -348 639 -308 639 -252V-42C639 43 646 56 757 56C911 56 917 53 950 -91C914 -98 890 -105 862 -133C860 -22 851 -18 778 -18C723 -18 713 -25 713 -53V-152C856 -227 888 -242 908 -244C922 -245 925 -254 915 -264C894 -278 873 -300 854 -328C827 -291 782 -256 713 -218ZM290 -436C236 -472 178 -508 126 -539L70 -474C130 -440 180 -407 233 -361ZM325 -665C277 -707 225 -749 177 -785L113 -726C163 -697 219 -649 261 -593Z"/>
</svg>