<svg xmlns="http://www.w3.org/2000/svg" viewBox="0 -1000 1000 1000">
	<path fill="#000000" d="M494 -190V-350H572V-190ZM534 -134C570 -134 599 -132 631 -128C628 -172 626 -195 626 -241V-329C626 -370 627 -390 629 -408C614 -405 584 -403 525 -403C468 -403 448 -404 430 -408C433 -387 435 -366 435 -329V-247C435 -201 433 -175 428 -128C454 -132 498 -134 534 -134ZM269 -272C238 -283 217 -300 200 -327C158 -183 117 -103 61 -12C94 6 117 22 147 50C178 -57 218 -159 269 -272ZM274 -462C218 -500 163 -535 105 -566L66 -500C109 -477 167 -439 228 -392ZM298 -704C245 -738 197 -774 151 -813L99 -748C141 -720 199 -672 240 -629ZM628 -470V-539C612 -535 562 -533 525 -533C489 -533 456 -535 435 -539V-470C455 -474 491 -476 527 -476C564 -476 611 -474 628 -470ZM878 -734C859 -765 842 -790 822 -821L757 -785C781 -751 795 -725 807 -695ZM635 -676C443 -676 349 -679 313 -685C320 -533 322 -427 318 -335C311 -168 295 -88 195 36C230 40 254 52 278 71C377 -77 390 -162 390 -611H641C660 -392 684 -255 712 -181C650 -90 595 -45 477 11C513 29 528 44 545 70C621 25 691 -38 742 -107C769 -46 783 -21 798 -4C881 93 930 63 967 -94C931 -111 914 -125 893 -154C883 -29 862 -28 830 -74C819 -92 801 -130 784 -173C819 -239 844 -315 864 -420C877 -489 881 -501 888 -505C905 -512 903 -520 887 -521C860 -523 839 -528 810 -541C794 -402 777 -319 755 -262C733 -349 718 -479 712 -611C849 -611 894 -610 938 -602V-685C912 -680 821 -676 710 -676C709 -746 714 -798 721 -805C735 -822 733 -830 713 -829C683 -827 654 -831 627 -840C628 -795 630 -747 635 -676Z"/>
</svg>