<svg xmlns="http://www.w3.org/2000/svg" viewBox="0 -1000 1000 1000">
	<path fill="#000000" d="M774 -138H406V-179H774ZM774 -233H406V-275H774ZM774 -326H406V-369H774ZM496 -78H672L633 -30C708 -5 791 30 869 78L909 12C845 -19 779 -46 698 -78C757 -78 817 -77 854 -75C849 -88 846 -122 846 -150V-357C846 -386 849 -421 854 -432C800 -429 743 -428 589 -428C434 -428 379 -429 326 -432C331 -421 335 -386 335 -357V-150C335 -122 331 -88 326 -75C365 -77 428 -78 489 -78C431 -38 361 -6 259 23C280 44 290 59 304 82C371 61 414 45 474 16C510 -2 540 -12 552 -12C570 -12 573 -20 556 -32C538 -43 516 -60 496 -78ZM263 -292C233 -305 207 -324 187 -346C179 -299 162 -238 136 -169C106 -88 89 -54 60 -3C91 7 121 28 147 54C164 -13 181 -68 200 -128C228 -217 243 -258 263 -292ZM245 -468C202 -505 150 -542 94 -576L48 -516C95 -490 146 -453 197 -403ZM278 -680C233 -724 199 -752 142 -794L85 -740C134 -711 180 -669 218 -619ZM629 -532V-575C726 -575 796 -573 851 -568V-639C796 -635 726 -634 629 -634V-686C754 -686 847 -685 916 -678V-750C847 -745 754 -744 629 -744V-775C629 -787 635 -803 643 -808C658 -818 657 -826 637 -825C615 -824 574 -827 545 -831C547 -815 548 -785 549 -744C442 -744 361 -746 299 -750V-678C360 -684 442 -686 549 -686V-634C455 -634 386 -636 330 -639V-568C384 -573 454 -575 549 -575V-532C427 -533 334 -536 263 -538V-465C345 -470 456 -473 607 -473C759 -473 867 -472 951 -465V-538C871 -533 770 -532 629 -532Z"/>
</svg>