<svg xmlns="http://www.w3.org/2000/svg" viewBox="0 -1000 1000 1000">
	<path fill="#000000" d="M428 -683H803V-475H428ZM567 -579C527 -556 485 -537 445 -526C469 -517 494 -500 507 -484C547 -506 588 -531 619 -552C660 -529 698 -506 726 -484L768 -533C740 -549 706 -568 671 -586C698 -603 726 -617 733 -619C752 -623 754 -629 739 -637C725 -645 711 -658 696 -675C673 -653 647 -632 619 -613C581 -633 544 -651 514 -664L468 -625C496 -613 531 -597 567 -579ZM520 -740C447 -741 406 -743 353 -747C356 -727 359 -694 359 -659V-508C359 -473 356 -431 353 -411C424 -414 500 -416 614 -416C754 -416 809 -415 877 -410C875 -431 873 -473 873 -507V-660C873 -693 875 -726 878 -747C802 -742 740 -740 592 -740C605 -775 619 -800 631 -808C643 -816 641 -823 630 -823C600 -822 558 -828 534 -839C530 -797 527 -773 520 -740ZM628 -8C689 25 772 49 887 67C890 27 902 -2 930 -32C823 -33 748 -40 691 -57C744 -107 799 -183 826 -268H550C564 -283 574 -293 580 -297C597 -308 595 -314 581 -317C566 -320 530 -334 515 -345C475 -258 393 -177 308 -128C343 -117 364 -102 378 -83C415 -118 450 -155 479 -187C500 -129 527 -84 569 -48C500 -17 390 -3 277 -11C300 17 309 33 324 70C454 62 550 36 628 -8ZM626 -86C583 -114 554 -154 525 -211H725C700 -160 665 -118 626 -86ZM455 -408C412 -360 346 -312 280 -284C311 -274 332 -256 345 -235C384 -265 445 -313 458 -323C487 -347 507 -362 514 -364C536 -370 535 -381 518 -385C498 -390 473 -399 455 -408ZM943 -310C869 -351 785 -386 718 -408L673 -358C753 -331 834 -291 896 -244ZM160 -453V-162C160 -90 155 -4 149 53H229V-593C278 -719 295 -759 302 -765C324 -785 322 -791 301 -795C268 -802 250 -808 218 -822C209 -769 186 -678 162 -617C128 -530 90 -469 38 -419C66 -403 79 -389 92 -357C116 -387 139 -419 160 -453Z"/>
</svg>