<svg xmlns="http://www.w3.org/2000/svg" viewBox="0 -1000 1000 1000">
	<path fill="#000000" d="M243 -289C216 -301 194 -311 170 -326C158 -270 147 -228 125 -160C95 -66 85 -44 50 14C84 25 109 36 145 59C160 -7 174 -64 190 -117C212 -190 231 -251 243 -289ZM265 -471C218 -501 169 -528 99 -562L64 -488C108 -471 185 -426 221 -393ZM521 -622C513 -641 501 -669 491 -692L414 -666C430 -645 437 -632 451 -605ZM288 -692C251 -723 205 -755 141 -796L96 -732C142 -703 194 -660 229 -624ZM643 -600H488C420 -600 351 -603 276 -609V-538C365 -545 438 -548 598 -548C755 -548 829 -545 917 -538V-609C857 -605 792 -601 707 -600C731 -634 742 -648 754 -655C761 -659 760 -666 752 -669C736 -675 694 -688 672 -694C661 -649 655 -632 643 -600ZM571 -747C466 -748 393 -751 335 -756V-689C399 -696 481 -699 603 -699C725 -699 807 -696 871 -689V-756C815 -751 746 -748 649 -747C644 -780 639 -814 633 -840L550 -820C560 -798 567 -773 571 -747ZM554 -376H409V-447H554ZM622 -447H773V-376H622ZM622 -326H773V-258H622ZM554 -258H409V-326H554ZM622 -91C737 -91 804 -89 870 -84V-149C804 -145 737 -143 622 -142V-206C814 -206 833 -205 847 -202C844 -245 842 -300 842 -353C842 -428 843 -470 846 -505C820 -499 766 -497 594 -497C409 -497 364 -499 337 -505C340 -472 341 -414 341 -353C341 -297 339 -240 337 -202C355 -205 387 -206 554 -206V-142C444 -143 377 -145 312 -149V-84C376 -89 443 -91 554 -91V-23C427 -24 340 -26 267 -30V42C346 37 443 35 590 35C752 35 831 37 911 42V-30C820 -25 749 -23 622 -23Z"/>
</svg>