<svg xmlns="http://www.w3.org/2000/svg" viewBox="0 -1000 1000 1000">
	<path fill="#000000" d="M767 -143H436V-189H767ZM844 -84C842 -96 840 -128 840 -155V-366C840 -392 842 -422 844 -436C791 -432 762 -431 605 -431C450 -431 410 -432 357 -436C360 -423 362 -392 362 -366V-155C362 -128 360 -96 357 -84C410 -88 450 -89 605 -89C762 -89 791 -88 844 -84ZM767 -238H436V-286H767ZM767 -333H436V-379H767ZM933 7C869 -24 775 -58 686 -85L634 -27C706 -10 819 35 885 73ZM558 -35C540 -45 498 -72 483 -84C403 -37 315 -2 241 12C264 34 280 56 290 78C346 58 425 25 499 -4C518 -11 532 -14 556 -18C572 -20 572 -28 558 -35ZM263 -302C233 -315 200 -333 181 -353C170 -302 150 -229 122 -166C93 -101 74 -66 47 -21C73 1 95 17 126 49C144 -3 155 -27 190 -122C239 -253 247 -274 263 -302ZM247 -488C212 -519 143 -570 91 -602L42 -533C88 -513 158 -455 192 -413ZM574 -636H428V-706H574ZM646 -706H790V-636H646ZM646 -761C646 -800 652 -813 660 -819C671 -827 667 -836 655 -834C641 -832 609 -834 570 -838C572 -818 574 -805 574 -761C491 -761 414 -762 351 -765C353 -741 354 -707 354 -672C354 -642 353 -610 351 -579C414 -582 491 -583 574 -583V-532C454 -532 347 -536 274 -542V-467C352 -474 458 -477 610 -477C761 -477 867 -474 946 -467V-542C873 -536 778 -532 646 -532V-583C729 -583 804 -582 867 -579C865 -602 864 -638 864 -672C864 -707 865 -743 867 -765C804 -762 729 -761 646 -761ZM301 -689C263 -726 209 -772 159 -808L97 -741C149 -710 188 -677 236 -616Z"/>
</svg>