<svg xmlns="http://www.w3.org/2000/svg" viewBox="0 -1000 1000 1000">
	<path fill="#000000" d="M501 -606H409V-725H501ZM656 -606H565V-725H656ZM811 -606H718V-725H811ZM261 -278C230 -288 215 -297 191 -325C157 -185 129 -113 59 6C94 15 118 26 151 49C205 -140 234 -224 261 -278ZM269 -434C230 -468 178 -506 108 -553L55 -492C120 -456 172 -417 209 -376ZM291 -680C252 -712 189 -755 129 -791L74 -731C137 -700 205 -645 233 -610ZM691 -307C682 -283 670 -261 654 -233L562 -234C547 -263 534 -283 516 -307ZM574 -426V-366C443 -366 355 -370 281 -378V-296C346 -304 382 -306 433 -307C458 -274 473 -253 485 -234C435 -234 396 -237 339 -245V-166C398 -174 470 -178 576 -179V-106C445 -106 353 -108 277 -115V-35C352 -42 444 -45 576 -45C575 -8 573 37 570 76H657C653 38 650 -8 649 -45C773 -45 870 -41 941 -35V-115C870 -109 773 -106 649 -106V-179C748 -179 823 -174 879 -166V-244C823 -236 781 -234 731 -233C748 -264 758 -283 766 -307C823 -307 863 -305 932 -297V-378C861 -370 771 -366 644 -366V-426C743 -426 813 -421 866 -415V-495C813 -489 743 -486 644 -486V-543C733 -543 812 -541 884 -538C881 -568 879 -615 879 -664C879 -713 881 -762 884 -793C803 -788 713 -785 609 -785C504 -785 420 -788 339 -793C341 -759 343 -714 343 -665C343 -616 341 -572 339 -538C411 -541 485 -543 574 -543V-486C481 -486 417 -489 365 -495V-415C416 -421 482 -426 574 -426Z"/>
</svg>