<svg xmlns="http://www.w3.org/2000/svg" viewBox="0 -1000 1000 1000">
	<path fill="#000000" d="M248 -315C212 -328 197 -335 172 -360C160 -293 147 -242 131 -196C96 -97 72 -47 51 -13C85 -2 97 9 136 39C146 -1 153 -26 164 -62C218 -245 236 -280 248 -315ZM227 -479C187 -502 134 -527 82 -547L51 -481C100 -463 163 -434 192 -408ZM346 -652L275 -655C281 -604 277 -560 262 -512L338 -504C346 -572 349 -615 346 -652ZM672 -656L607 -661C615 -609 612 -566 590 -513L662 -507C675 -582 677 -619 672 -656ZM256 -701C214 -728 164 -754 112 -773L80 -713C127 -694 192 -655 217 -630ZM387 -715C388 -576 375 -518 354 -492C329 -462 311 -446 246 -410C278 -396 290 -387 310 -361C369 -406 402 -444 420 -474C439 -507 453 -578 449 -715H507C509 -621 508 -560 508 -531C508 -474 503 -469 429 -483C456 -455 462 -441 470 -403C559 -425 574 -450 574 -487C573 -650 574 -733 576 -782C543 -777 523 -776 421 -776C337 -776 306 -778 280 -782V-706C313 -713 343 -715 387 -715ZM484 -287V-354C484 -368 486 -373 498 -380C509 -387 509 -391 493 -391C464 -391 443 -393 411 -398C416 -377 418 -357 418 -302V-72C399 -66 383 -61 367 -58V-291C367 -306 369 -313 376 -317C387 -324 385 -329 370 -329C340 -329 328 -329 297 -333C300 -314 302 -276 302 -238V-45C254 -36 241 -35 214 -34C236 -5 247 21 248 49C317 24 453 -18 566 -48C561 -67 557 -104 558 -121C531 -111 506 -102 484 -94V-228H528C547 -228 562 -227 576 -224V-291C563 -288 548 -287 528 -287ZM733 -24H675V-287C675 -301 679 -309 688 -313C702 -319 699 -325 684 -325C649 -324 631 -325 602 -329C606 -307 608 -277 608 -232V-25C581 -25 553 -28 535 -31V45C564 40 611 37 737 37C893 37 925 40 949 45V-31C928 -26 901 -24 800 -24V-200H854C883 -200 906 -198 925 -193V-265C906 -260 883 -258 854 -258H800V-342C800 -355 802 -362 814 -369C831 -379 827 -386 808 -385C782 -384 759 -385 725 -392C731 -370 733 -344 733 -289ZM713 -713C713 -599 702 -541 664 -495C636 -461 610 -441 564 -416C596 -402 613 -391 634 -368C687 -412 713 -444 731 -475C759 -522 775 -597 777 -713H832C833 -619 834 -561 834 -532C834 -475 829 -469 743 -473C774 -450 785 -428 794 -391C894 -419 906 -445 905 -484C902 -647 906 -707 909 -780C875 -775 856 -774 754 -774C670 -774 641 -776 613 -780V-704C646 -711 674 -713 713 -713Z"/>
</svg>