<svg xmlns="http://www.w3.org/2000/svg" viewBox="0 -1000 1000 1000">
	<path fill="#000000" d="M556 -40H419V-120H556ZM764 -40H627V-120H764ZM556 -177H419V-252H556ZM764 -177H627V-252H764ZM233 -609L285 -681C233 -723 189 -756 140 -786L93 -727C150 -696 196 -655 233 -609ZM252 -477C203 -519 149 -559 97 -594L48 -534C100 -504 157 -458 197 -408ZM665 -409C694 -368 723 -336 754 -307H627V-409ZM532 -409H556V-307H438C472 -338 499 -368 532 -409ZM340 -602C352 -577 355 -566 357 -542C431 -543 496 -547 556 -552V-465H489C475 -493 461 -513 443 -538L380 -513C393 -497 403 -484 412 -466C366 -466 326 -468 288 -471V-402C335 -405 405 -408 452 -408C390 -327 322 -284 241 -266C248 -287 253 -303 257 -314C231 -324 203 -340 185 -361C176 -301 163 -252 145 -203C101 -79 90 -57 61 -11C91 2 129 26 158 55C172 -13 197 -115 211 -162C223 -202 231 -234 239 -259C262 -240 271 -222 278 -193C301 -202 325 -216 350 -234V-17C350 17 348 45 344 73H419V17H764V67H840C837 43 836 13 836 -20V-247C862 -232 890 -217 921 -203C932 -239 942 -257 966 -279C871 -299 799 -339 735 -408C812 -408 874 -406 925 -402V-471C881 -467 834 -465 774 -465C791 -489 806 -508 815 -514C819 -517 822 -522 818 -523C796 -525 761 -534 737 -547C725 -512 713 -486 701 -465H627V-560C648 -562 669 -565 689 -568C765 -579 792 -579 816 -571C830 -566 833 -571 823 -585C804 -610 794 -625 781 -655C742 -640 684 -625 625 -618C549 -608 442 -604 363 -609V-679H831V-594H907V-743C851 -739 811 -738 633 -738C626 -771 619 -802 614 -827L510 -814C523 -795 533 -772 542 -738C404 -738 341 -740 291 -743V-602Z"/>
</svg>