<svg xmlns="http://www.w3.org/2000/svg" viewBox="0 -1000 1000 1000">
	<path fill="#000000" d="M238 -297C211 -305 182 -325 164 -350C156 -294 151 -272 120 -177C93 -95 78 -57 51 -6C84 4 108 17 143 47C155 -8 168 -62 189 -136C209 -207 226 -262 238 -297ZM246 -460C195 -495 147 -525 93 -558L53 -495C111 -462 152 -432 199 -385ZM797 -491C786 -518 778 -551 776 -582L708 -571C721 -542 726 -516 729 -480ZM461 -500C450 -524 442 -559 440 -591L374 -579C388 -548 394 -522 395 -482ZM279 -683C240 -714 183 -755 136 -789L76 -734C127 -707 187 -657 218 -615ZM929 -706V-779C886 -775 831 -773 772 -773C717 -773 661 -775 614 -779V-706C659 -709 716 -711 772 -711C830 -711 888 -709 929 -706ZM576 -709V-780C533 -776 483 -774 429 -774C380 -774 329 -776 282 -780V-709C327 -712 378 -714 429 -714C482 -714 534 -712 576 -709ZM536 -348V-394H639V-348ZM536 -246V-296H639V-246ZM470 -296V-246H363C364 -262 365 -278 365 -296ZM366 -348V-394H470V-348ZM706 -246V-296H821V-246ZM556 -447C450 -447 326 -453 294 -458C308 -172 283 -60 178 24C209 35 231 50 251 72C320 -10 350 -74 360 -196H419V-64C419 -31 407 -3 373 14C389 32 401 52 412 79C429 65 452 54 494 40L590 7C582 -8 580 -30 584 -56C561 -45 519 -32 484 -22V-86H542C567 -86 582 -85 596 -82V-145C582 -141 567 -139 542 -139H484V-196H637V-20C637 39 654 64 726 64C750 64 815 64 861 63C901 62 917 30 938 -31C903 -36 888 -48 859 -79C846 -24 832 -4 772 -4C718 -4 707 -21 706 -52C782 -81 868 -100 885 -98C908 -95 914 -101 899 -111C883 -122 867 -139 846 -170C808 -149 764 -129 706 -109V-196C804 -196 855 -193 892 -186C890 -212 889 -235 889 -269C889 -303 890 -330 892 -353C854 -349 805 -348 706 -348V-394C873 -394 898 -390 934 -382V-452C903 -448 874 -447 642 -447C636 -459 632 -470 628 -485H686V-608H825V-477H897C896 -492 895 -511 895 -533V-614C895 -642 895 -655 896 -670C865 -666 829 -664 755 -664C678 -664 643 -666 614 -670C617 -654 618 -643 618 -614V-488L537 -479C544 -468 549 -460 556 -447ZM571 -487V-620C571 -648 572 -662 574 -676C535 -672 491 -670 434 -670C357 -670 323 -672 294 -676C296 -661 297 -648 297 -620V-541C297 -518 296 -502 293 -485H367V-613H502V-487Z"/>
</svg>