<svg xmlns="http://www.w3.org/2000/svg" viewBox="0 -1000 1000 1000">
	<path fill="#000000" d="M447 -447L374 -450C372 -383 365 -328 346 -272L427 -264C437 -324 444 -379 447 -447ZM875 -470C857 -473 809 -484 782 -493C770 -432 746 -364 706 -292L782 -269C810 -340 862 -446 874 -457C883 -464 882 -468 875 -470ZM361 -623C672 -623 771 -622 910 -614V-704C776 -695 697 -695 374 -695C381 -739 399 -798 407 -803C417 -810 415 -814 403 -814C375 -815 335 -823 299 -834C300 -798 297 -749 290 -696C210 -697 145 -699 86 -704V-614C143 -617 204 -619 280 -621C264 -522 240 -415 215 -339C179 -228 135 -117 62 -18C100 -11 123 -2 149 15C211 -91 250 -191 295 -342C325 -444 346 -542 361 -623ZM594 -240C631 -100 721 8 880 65C891 35 910 -3 933 -28C714 -100 645 -185 612 -374C618 -452 632 -527 642 -537C655 -550 652 -557 637 -556C608 -555 580 -556 544 -560C548 -451 545 -366 526 -281C492 -128 403 -53 230 5C259 29 282 53 297 79C447 1 554 -85 594 -240Z"/>
</svg>