<svg xmlns="http://www.w3.org/2000/svg" viewBox="0 -1000 1000 1000">
	<path fill="#000000" d="M536 -454H645V-276H536ZM160 -604H88C97 -517 80 -368 59 -317L141 -307C156 -422 161 -511 160 -604ZM294 -493C327 -526 359 -557 422 -615L368 -674C343 -637 321 -609 294 -577C293 -752 296 -782 311 -797C322 -808 320 -812 305 -810C289 -808 232 -812 199 -818C207 -791 218 -701 220 -503C223 -258 187 -105 65 29C98 40 122 50 145 66C210 -24 239 -82 268 -204C329 -137 351 -109 380 -66L438 -124C402 -168 368 -202 282 -276C291 -330 295 -387 294 -493ZM560 -695C588 -755 605 -773 619 -780C635 -788 635 -797 620 -799C599 -802 556 -818 519 -836C499 -752 471 -670 447 -614C417 -545 349 -449 324 -421C351 -413 370 -403 392 -388C408 -410 435 -452 461 -497V-62C461 34 475 46 690 46C877 46 914 20 957 -107C932 -106 912 -116 876 -149C863 -56 826 -27 692 -27C546 -27 536 -35 536 -92V-212H659C683 -212 705 -211 720 -209C717 -238 715 -302 715 -365C715 -428 717 -498 720 -527C703 -521 675 -518 647 -518H473C495 -557 516 -596 530 -626H818L809 -272C808 -241 803 -228 729 -233C752 -194 761 -172 763 -148C871 -168 883 -194 885 -284L893 -591C894 -646 895 -672 899 -703C878 -699 825 -695 777 -695Z"/>
</svg>