<svg xmlns="http://www.w3.org/2000/svg" viewBox="0 -1000 1000 1000">
	<path fill="#000000" d="M481 -289L566 -288C558 -239 547 -202 532 -172C513 -190 493 -209 475 -228L427 -183C452 -162 472 -140 495 -114C449 -58 386 -17 308 8C339 26 362 43 376 62C468 20 529 -40 565 -101C606 -170 627 -244 638 -346H514C534 -380 542 -390 548 -393C559 -400 559 -404 546 -406C530 -409 497 -420 481 -431C444 -341 407 -283 352 -222C368 -218 390 -207 404 -190C435 -221 458 -251 481 -289ZM849 -344V-366C849 -384 852 -389 859 -395C873 -409 873 -413 853 -413C827 -413 805 -414 777 -417C778 -402 780 -374 780 -344C733 -344 697 -345 660 -348V-282C696 -285 733 -285 781 -285V-154H713C718 -214 723 -230 730 -236C741 -246 739 -251 718 -250C702 -249 679 -252 656 -258C658 -226 652 -142 641 -89C677 -92 723 -93 781 -93V8C781 26 780 52 778 72H852C849 50 849 26 849 8V-93C889 -93 925 -92 952 -89V-158C922 -155 888 -154 849 -154V-285C886 -285 918 -284 944 -282V-348C917 -346 887 -344 849 -344ZM151 -583H80C84 -500 75 -412 51 -334L131 -331C146 -425 149 -498 151 -583ZM692 -589C732 -508 789 -452 904 -409C910 -436 922 -455 956 -486C880 -493 814 -522 753 -589C838 -589 899 -589 937 -586V-653C893 -650 816 -648 687 -648V-779C687 -796 689 -802 697 -808C712 -822 712 -827 691 -826C665 -825 639 -826 611 -830C613 -811 616 -760 616 -715V-648C502 -648 436 -650 383 -653V-597C371 -608 351 -635 343 -652C323 -621 292 -584 261 -554C259 -694 270 -789 280 -801C294 -815 292 -825 275 -821C247 -818 212 -819 177 -825C189 -677 195 -512 192 -413C185 -201 144 -90 46 15C87 21 112 30 138 48C194 -52 227 -131 245 -232C288 -167 315 -116 336 -68L409 -118C375 -168 310 -249 255 -311C260 -361 262 -416 262 -479C337 -549 371 -573 383 -576C393 -578 397 -582 395 -586C439 -588 491 -589 540 -589C482 -519 411 -478 315 -454C345 -433 366 -412 378 -387C479 -435 550 -498 601 -589H616V-464C616 -446 615 -416 613 -396H690C687 -418 687 -446 687 -464V-589ZM568 -694C547 -731 524 -774 515 -798L439 -766C453 -745 479 -693 490 -665ZM885 -772C865 -778 835 -791 807 -807C787 -754 765 -716 738 -681C763 -678 786 -669 806 -661C857 -735 872 -755 884 -757C901 -759 901 -767 885 -772Z"/>
</svg>