<svg xmlns="http://www.w3.org/2000/svg" viewBox="0 -1000 1000 1000">
	<path fill="#000000" d="M919 -649C906 -688 889 -731 870 -763L804 -736C822 -700 837 -660 848 -620ZM456 -128L389 -137C377 -62 364 -12 339 46L429 56C439 -1 448 -60 456 -128ZM606 23C599 -38 591 -80 579 -128L506 -116C518 -73 523 -24 524 32ZM759 8C748 -48 737 -91 720 -139L653 -126C668 -76 676 -30 680 23ZM934 16C915 -46 896 -100 872 -153L795 -136C825 -78 838 -31 849 35ZM156 -591H81C84 -506 75 -412 56 -345L136 -339C146 -429 153 -515 156 -591ZM262 -579C262 -702 274 -788 284 -801C296 -816 293 -823 278 -822C250 -821 218 -821 183 -824C196 -609 199 -488 197 -374C194 -198 156 -98 71 24C105 36 124 47 148 68C196 -20 228 -98 246 -194C278 -154 305 -118 326 -89L380 -147C355 -175 314 -213 256 -261C265 -330 267 -409 263 -507C320 -546 361 -575 366 -576C379 -580 382 -588 371 -594C362 -599 337 -635 328 -655C307 -624 290 -603 262 -579ZM794 -514C852 -514 889 -511 922 -504V-586C883 -578 834 -575 760 -576C764 -616 768 -660 770 -709C773 -768 777 -787 788 -799C801 -814 799 -819 784 -819C757 -818 724 -821 699 -825C703 -777 702 -686 696 -578C670 -580 648 -582 630 -586V-504C647 -507 667 -510 691 -511C673 -374 617 -284 505 -220C535 -204 557 -184 573 -163C667 -245 723 -332 752 -513C772 -342 805 -255 891 -182C907 -214 924 -234 960 -257C866 -308 827 -363 794 -514ZM486 -683C509 -749 517 -766 526 -771C537 -778 536 -787 523 -789C490 -794 471 -800 440 -817C419 -671 373 -533 311 -447C335 -442 359 -432 377 -414C403 -464 439 -552 465 -622H557C554 -598 551 -571 547 -545C525 -560 501 -574 482 -583L455 -529C481 -515 510 -498 533 -483C523 -451 516 -435 506 -416C479 -439 451 -460 427 -476L403 -425C428 -410 456 -390 481 -368C448 -314 407 -275 348 -231C375 -218 394 -206 415 -192C478 -249 548 -347 575 -421C602 -495 625 -580 635 -687C608 -684 567 -683 486 -683Z"/>
</svg>