<svg xmlns="http://www.w3.org/2000/svg" viewBox="0 -1000 1000 1000">
	<path fill="#000000" d="M826 -231C869 -230 899 -228 922 -225V-301C896 -298 863 -296 812 -295L862 -323C843 -351 813 -387 784 -418L724 -379C750 -357 774 -330 796 -295C766 -294 731 -294 689 -294C683 -343 684 -372 695 -383C711 -400 704 -411 689 -408C667 -404 625 -406 609 -413C610 -374 613 -333 618 -294H492V-351C530 -357 567 -360 587 -359C608 -358 612 -362 597 -377C585 -389 571 -406 557 -426C509 -409 376 -387 296 -381C311 -359 315 -351 323 -325C345 -327 378 -332 419 -339V-294C358 -296 312 -298 279 -301V-225C312 -229 357 -231 419 -231V-165C356 -155 300 -150 259 -152C272 -121 277 -101 281 -71C305 -79 358 -91 419 -103V-43C419 -13 411 -6 337 -11C354 17 361 37 366 65C474 51 492 34 492 -12V-117C530 -123 568 -130 601 -134C594 -159 593 -177 598 -204C564 -195 527 -186 492 -179V-232H628C631 -216 635 -200 639 -185C649 -150 660 -118 674 -90C610 -47 558 -19 511 -3C536 17 547 31 557 49C601 27 655 -5 704 -39C735 5 774 37 819 60C870 86 928 70 951 -32C928 -36 900 -52 878 -80C863 -13 851 1 817 -26C797 -42 779 -60 763 -81C793 -103 818 -124 835 -142C853 -161 864 -170 876 -173C892 -177 895 -184 884 -190C859 -205 843 -215 826 -231ZM732 -134C718 -163 707 -195 699 -232C745 -232 784 -232 815 -231C788 -188 766 -163 732 -134ZM498 -703C444 -703 384 -706 317 -711V-639C383 -644 438 -647 565 -647V-599C470 -600 405 -603 350 -609V-533C404 -539 470 -542 565 -543V-487C448 -488 368 -491 299 -497V-420C376 -427 466 -430 606 -430C746 -430 836 -427 912 -420V-497C842 -491 759 -487 636 -487V-543C732 -542 798 -539 853 -533V-609C798 -603 731 -600 636 -599V-647C783 -647 834 -645 903 -639V-711C834 -705 787 -703 717 -703C757 -756 771 -769 787 -777C804 -785 804 -790 791 -796C762 -808 745 -817 717 -837C699 -792 687 -769 643 -703H528L575 -735C539 -771 508 -799 474 -827L416 -784C451 -754 464 -741 498 -703ZM148 -453V-151C148 -79 143 7 137 64H222V-589C234 -614 244 -639 254 -664C289 -754 301 -776 308 -780C326 -790 325 -793 309 -799C292 -805 255 -823 227 -840C219 -797 203 -743 164 -644C136 -572 82 -483 38 -434C68 -415 82 -402 99 -378C115 -402 132 -427 148 -453Z"/>
</svg>