<svg xmlns="http://www.w3.org/2000/svg" viewBox="0 -1000 1000 1000">
	<path fill="#000000" d="M464 -629H801V-575H464ZM801 -678H464V-732H801ZM133 -600H64C72 -500 67 -407 53 -359H133C139 -437 139 -515 133 -600ZM256 -556C254 -702 262 -773 272 -785C285 -801 283 -806 268 -804C252 -802 212 -804 177 -811C189 -673 192 -541 188 -387C184 -221 140 -124 45 -12C77 -3 103 7 126 21C176 -41 214 -120 236 -236C261 -213 284 -189 301 -170L348 -217C321 -242 281 -275 246 -300C252 -353 256 -412 256 -480C300 -531 357 -579 373 -584C387 -588 386 -595 378 -600C369 -605 344 -629 327 -648C303 -614 281 -586 256 -556ZM666 -103C724 -67 786 -21 842 27L884 -28C843 -54 803 -77 766 -97C789 -122 809 -139 822 -146C830 -150 830 -155 821 -158C807 -163 786 -175 768 -190C759 -170 744 -147 723 -121C703 -132 684 -142 666 -150V-172C666 -217 668 -238 675 -246C682 -254 680 -258 669 -257C649 -256 620 -258 593 -262C597 -244 600 -198 600 -129C585 -121 570 -114 554 -108C541 -135 518 -176 506 -192L454 -161C475 -143 494 -116 507 -89C466 -74 418 -59 354 -41C370 -23 384 -1 393 22C441 -3 483 -24 600 -82V-18C600 11 592 14 519 5C540 35 549 59 550 78C660 59 666 45 666 -31ZM494 -350C418 -350 385 -351 337 -355V-294C385 -298 421 -300 498 -300C432 -227 357 -180 285 -155C316 -141 330 -129 344 -105C439 -165 513 -224 572 -300H669C710 -229 780 -182 913 -140C914 -169 923 -193 948 -220C844 -225 789 -244 729 -300C832 -300 871 -298 926 -294V-355C878 -351 843 -350 765 -350V-414C818 -413 846 -412 882 -408V-470C845 -466 817 -465 765 -465V-521C793 -521 831 -520 870 -518C868 -533 867 -558 867 -584V-719C867 -745 868 -776 870 -790C823 -787 774 -786 636 -786C480 -786 445 -787 398 -790C400 -777 401 -745 401 -719V-584C401 -554 400 -531 398 -518C435 -520 462 -520 494 -521V-465C437 -465 408 -466 369 -470V-408C406 -413 436 -414 494 -414ZM558 -414H702V-350H558ZM558 -521H702V-465H558Z"/>
</svg>