<svg xmlns="http://www.w3.org/2000/svg" viewBox="0 -1000 1000 1000">
	<path fill="#000000" d="M343 -577C323 -613 308 -641 293 -676L214 -644C231 -619 248 -586 264 -549ZM563 -595C541 -634 529 -655 507 -698L431 -667C460 -620 473 -594 484 -561ZM862 -750C848 -769 829 -800 814 -830C768 -816 734 -808 607 -789C461 -767 319 -757 126 -753C146 -724 157 -702 165 -678C298 -690 438 -703 641 -725C764 -738 799 -739 857 -735C870 -734 872 -738 862 -750ZM430 -477H658C762 -477 816 -475 873 -469V-549C831 -545 770 -542 715 -541C775 -618 804 -648 826 -656C842 -662 841 -670 826 -675C785 -688 766 -696 738 -712C724 -666 686 -602 636 -541H358C242 -541 200 -543 143 -549V-469C198 -475 240 -477 349 -477C345 -449 339 -423 333 -398C233 -398 159 -401 97 -406V-326C154 -331 197 -332 313 -334C267 -204 185 -106 41 -20C68 -4 90 15 107 35C224 -48 282 -114 336 -206H679C653 -161 616 -121 568 -89C513 -115 468 -149 432 -191L371 -158C413 -109 431 -92 499 -51C429 -19 368 0 240 11C263 32 278 54 288 79C403 60 496 29 572 -14C664 26 750 49 902 63C905 31 913 11 935 -25C816 -27 720 -39 643 -62C722 -127 756 -173 802 -275C760 -271 688 -270 615 -270H368C378 -291 387 -312 394 -334H654C780 -334 843 -332 912 -326V-406C843 -400 790 -398 654 -398H413C419 -423 425 -450 430 -477Z"/>
</svg>