<svg xmlns="http://www.w3.org/2000/svg" viewBox="0 -1000 1000 1000">
	<path fill="#000000" d="M582 -123H426V-170H582ZM877 -71C872 -90 870 -118 870 -141V-234C870 -259 873 -288 877 -308C815 -303 752 -300 615 -300C480 -300 417 -302 352 -308C357 -286 359 -258 359 -234V-141C359 -118 356 -89 352 -71C413 -76 477 -78 615 -78C752 -78 817 -75 877 -71ZM802 -123H643V-170H802ZM582 -211H426V-257H582ZM802 -211H643V-257H802ZM578 -485H429V-535H578ZM870 -434C865 -454 862 -483 862 -507V-603C862 -625 864 -651 870 -674C807 -669 746 -667 612 -667C480 -667 417 -669 354 -674C359 -651 361 -624 361 -602V-508C361 -483 359 -455 354 -434C415 -439 477 -442 612 -442C746 -442 811 -438 870 -434ZM792 -485H639V-535H792ZM578 -576H429V-624H578ZM792 -576H639V-624H792ZM936 40V-32C855 -27 761 -25 614 -25C467 -25 372 -28 292 -32V40C372 34 467 31 614 31C761 31 856 34 936 40ZM934 -337V-405C865 -399 794 -397 615 -397C428 -397 356 -400 296 -405V-337C353 -343 426 -346 615 -346C793 -346 865 -342 934 -337ZM931 -709V-780C866 -774 793 -772 621 -772C443 -772 375 -774 311 -780V-709C374 -714 443 -717 621 -717C794 -717 867 -714 931 -709ZM155 -490V-125C155 -55 150 15 144 72H231V-664C259 -744 270 -767 278 -771C297 -781 296 -786 273 -791C258 -794 214 -811 193 -821C185 -761 170 -693 146 -632C112 -545 80 -497 35 -447C61 -431 80 -415 99 -390C116 -419 136 -454 155 -490Z"/>
</svg>