<svg xmlns="http://www.w3.org/2000/svg" viewBox="0 -1000 1000 1000">
	<path fill="#000000" d="M789 -132H443V-177H789ZM871 -75C868 -91 867 -123 867 -150V-339C867 -366 868 -400 871 -415C817 -411 771 -410 616 -410C462 -410 416 -411 363 -415C365 -401 367 -366 367 -339V-150C367 -123 366 -92 363 -75C416 -78 437 -78 616 -78C803 -78 817 -78 871 -75ZM789 -223H443V-267H789ZM789 -312H443V-360H789ZM970 31C896 -6 818 -37 724 -67L674 -18C754 10 851 53 913 92ZM586 -28C567 -40 546 -56 527 -73C458 -33 386 -1 293 23C319 42 336 58 350 81C403 57 472 28 523 7C552 -5 569 -10 582 -11C598 -12 600 -19 586 -28ZM736 -600H838V-512H736ZM502 -512H401V-600H502ZM567 -600H669V-512H567ZM502 -720V-656C434 -656 376 -658 326 -660C329 -635 331 -595 331 -558C331 -521 330 -482 326 -456C396 -457 467 -458 622 -458C760 -458 843 -457 913 -455C911 -480 910 -520 910 -558C910 -596 911 -634 913 -660C863 -658 804 -657 736 -656V-720C843 -719 896 -716 941 -713V-792C877 -784 809 -779 629 -779C467 -779 382 -784 321 -792V-713C371 -717 434 -719 502 -720ZM669 -720V-656H567V-720ZM240 -645C276 -738 293 -775 300 -781C325 -803 321 -808 295 -813C272 -818 240 -827 214 -837C209 -793 192 -722 164 -640C130 -544 82 -456 24 -381C43 -372 68 -354 83 -335C113 -382 138 -422 160 -464V-145C160 -73 155 11 149 68H240Z"/>
</svg>