<svg xmlns="http://www.w3.org/2000/svg" viewBox="0 -1000 1000 1000">
	<path fill="#000000" d="M274 -543H501V-319C315 -319 178 -323 75 -329V-234C177 -241 315 -245 501 -245V-92C501 -47 497 40 492 88H599C593 33 590 -47 590 -92V-245C741 -244 849 -240 938 -234V-329C849 -324 741 -320 590 -319V-543C714 -542 804 -539 853 -535V-625C804 -620 715 -618 590 -617V-737C590 -785 595 -806 604 -811C626 -824 620 -834 597 -833C561 -831 526 -832 495 -836C498 -811 501 -747 501 -688V-617H303C317 -652 348 -714 361 -729C369 -738 368 -744 356 -745C319 -749 292 -757 263 -768C223 -620 169 -490 120 -425C154 -419 174 -413 201 -396C234 -455 255 -498 274 -543Z"/>
</svg>