<svg xmlns="http://www.w3.org/2000/svg" viewBox="0 -1000 1000 1000">
	<path fill="#000000" d="M478 -712C270 -712 164 -715 96 -721V-516H179V-644H821V-528H905V-721C831 -716 731 -713 574 -712C566 -753 556 -802 549 -836L451 -812C458 -793 471 -747 478 -712ZM486 -434H325C341 -472 362 -510 374 -521C383 -528 382 -536 369 -539C350 -544 316 -555 282 -567C251 -456 213 -367 167 -306C198 -297 214 -289 240 -271C263 -308 278 -334 292 -364H486V-216C328 -216 176 -220 81 -226V-131C175 -138 327 -143 486 -143V-65C486 -27 482 43 476 84H579C573 37 569 -27 569 -65V-142C702 -141 834 -137 921 -131V-226C829 -219 701 -216 569 -216V-364C665 -364 777 -360 819 -356V-442C778 -437 667 -434 569 -434V-507C569 -537 572 -561 579 -565C600 -578 596 -586 571 -585C551 -584 509 -587 477 -591C482 -567 486 -495 486 -434Z"/>
</svg>