<svg xmlns="http://www.w3.org/2000/svg" viewBox="0 -1000 1000 1000">
	<path fill="#000000" d="M247 -617H179C185 -654 190 -677 199 -688C207 -697 205 -702 195 -701C178 -700 124 -707 101 -713C106 -669 106 -617 101 -565C97 -524 85 -459 72 -415C97 -417 127 -414 148 -408C156 -451 163 -501 169 -548H247V-321C178 -297 111 -277 50 -262C67 -235 83 -196 91 -166C123 -189 181 -219 247 -247V-160C247 -79 244 3 238 75H330C324 3 321 -79 321 -160V-278C357 -291 393 -304 426 -314C421 -337 417 -366 417 -393C386 -378 353 -364 321 -351V-547C347 -547 369 -545 388 -542V-623C369 -620 348 -618 321 -617V-776C321 -790 326 -800 341 -809C352 -816 350 -823 338 -823C314 -823 273 -826 241 -830C245 -797 247 -756 247 -617ZM553 -669C590 -742 615 -776 632 -788C648 -798 647 -803 632 -805C597 -811 565 -821 530 -837C519 -782 505 -740 474 -667C440 -586 405 -525 372 -485C402 -483 427 -476 449 -463C469 -500 490 -541 520 -603H570C540 -409 494 -295 384 -201C421 -194 444 -181 463 -161C559 -268 614 -408 640 -603H708C662 -233 597 -141 408 -21C443 -7 468 9 488 35C667 -104 740 -220 777 -603H849L815 -201C804 -70 778 -48 664 -63C693 -26 710 12 711 40C859 13 876 -3 890 -177L929 -675C898 -672 835 -669 790 -669Z"/>
</svg>