<svg xmlns="http://www.w3.org/2000/svg" viewBox="0 -1000 1000 1000">
	<path fill="#000000" d="M605 -181H697V-109H605ZM652 -235C606 -235 565 -237 534 -242C539 -211 540 -188 540 -150C540 -118 537 -83 531 -50C560 -54 582 -56 650 -56C696 -56 742 -54 770 -50C766 -83 764 -119 764 -151C764 -183 766 -215 771 -242C743 -237 707 -235 652 -235ZM528 -545H768V-479H528ZM848 -609C811 -603 760 -600 650 -600C556 -600 501 -602 452 -609C457 -577 459 -545 458 -512C458 -483 456 -450 452 -414C503 -419 547 -422 650 -422C759 -422 813 -419 849 -414C844 -444 841 -483 841 -519C841 -550 843 -582 848 -609ZM219 -315C168 -292 116 -272 68 -257C85 -228 95 -205 106 -170C130 -189 170 -214 219 -240V-141C219 -59 217 -10 212 61H295C289 -11 287 -60 287 -141V-274C312 -286 337 -297 362 -307C355 -331 353 -362 357 -385C334 -372 311 -360 287 -348V-535C324 -534 352 -532 378 -528V-606C353 -602 324 -600 287 -599V-749C287 -766 292 -788 307 -797C317 -803 316 -810 304 -809C276 -807 243 -809 211 -813C217 -788 219 -752 219 -663V-599H147C153 -633 163 -668 169 -676C176 -685 175 -689 165 -688C143 -686 104 -691 81 -697C83 -668 82 -633 79 -591C74 -524 65 -474 47 -416C71 -416 102 -413 122 -408C129 -453 134 -491 139 -535H219ZM715 -725C704 -769 699 -807 701 -836L593 -821C606 -795 616 -758 620 -725C509 -726 460 -728 404 -736V-654C508 -661 559 -663 666 -663C793 -663 867 -660 927 -654V-735C875 -729 812 -726 715 -725ZM386 -370C392 -343 395 -312 395 -270V-76C395 -29 392 11 385 66H466V-300H842V-49C842 -15 831 -7 752 -20C773 14 780 45 780 79C904 59 919 37 919 -48V-269C919 -306 921 -338 927 -370C856 -364 771 -361 657 -361C507 -361 451 -363 386 -370Z"/>
</svg>