<svg xmlns="http://www.w3.org/2000/svg" viewBox="0 -1000 1000 1000">
	<path fill="#000000" d="M610 -742L544 -753C541 -711 531 -684 507 -638L580 -626C594 -655 608 -707 610 -742ZM221 -745L151 -755C154 -716 144 -672 121 -636L196 -625C211 -673 217 -703 221 -745ZM885 -718C906 -726 903 -732 885 -735C866 -740 832 -754 810 -769C804 -739 775 -682 752 -650C780 -642 797 -634 810 -620C865 -704 872 -713 885 -718ZM493 -719C507 -730 506 -736 492 -739C467 -746 448 -754 429 -772C419 -738 394 -696 361 -659C381 -652 398 -643 415 -628C464 -695 474 -706 493 -719ZM814 -481C747 -480 654 -479 503 -479C257 -479 164 -481 90 -485V-332H167V-416H835V-330H915V-485C888 -483 860 -482 824 -481L880 -533C833 -573 788 -605 714 -645C721 -667 725 -690 728 -715C736 -790 744 -813 752 -819C765 -827 762 -835 748 -832C729 -828 681 -828 649 -830C674 -662 638 -568 503 -539C532 -521 544 -511 564 -484C623 -509 664 -545 690 -589C738 -559 781 -523 814 -481ZM339 -652C346 -671 350 -690 352 -710C361 -797 364 -807 371 -817C382 -830 379 -836 367 -834C337 -829 324 -829 277 -837C299 -663 265 -588 114 -547C146 -526 159 -514 174 -490C237 -516 282 -553 313 -599C350 -571 385 -538 418 -497L477 -551C436 -587 402 -611 339 -652ZM472 -298H317C336 -334 347 -349 360 -356C372 -363 370 -368 360 -370C330 -375 310 -382 276 -398C277 -353 212 -237 152 -188C186 -176 204 -167 225 -146C248 -177 267 -206 283 -233H472V-118C298 -118 165 -123 63 -129V-45C164 -52 289 -55 472 -55C472 -25 467 45 461 89H561C555 44 550 -23 550 -55C702 -55 847 -51 942 -45V-129C847 -123 696 -118 550 -118V-233C657 -233 744 -230 810 -227V-304C747 -300 660 -298 550 -298V-337C550 -359 556 -365 568 -373C586 -385 583 -396 564 -394C534 -391 507 -392 467 -396C471 -385 472 -370 472 -298Z"/>
</svg>