<svg xmlns="http://www.w3.org/2000/svg" viewBox="0 -1000 1000 1000">
	<path fill="#000000" d="M649 -109V-185C800 -185 863 -182 889 -179V-249C864 -245 797 -243 649 -243V-283C649 -293 652 -303 659 -305C675 -311 674 -320 654 -320C629 -319 598 -320 572 -323C574 -309 577 -278 578 -243H441C463 -275 473 -282 479 -284C488 -287 490 -294 481 -296C455 -301 437 -310 414 -327C400 -290 381 -258 350 -213C336 -192 318 -174 291 -153C320 -147 347 -135 361 -122C379 -147 392 -166 404 -185H578V-109C426 -109 346 -112 262 -118V-44C346 -48 432 -50 578 -50C578 -24 575 51 571 77H655C651 53 649 -23 649 -50C794 -50 862 -48 942 -44V-118C861 -112 791 -109 649 -109ZM908 -325V-398C871 -394 763 -391 533 -391C303 -391 196 -394 161 -398C189 -160 147 -37 63 48C105 54 123 60 146 80C215 -20 241 -122 237 -333H534C751 -333 871 -328 908 -325ZM338 -735V-767C338 -786 341 -798 352 -802C371 -808 373 -822 348 -821C322 -821 306 -822 266 -825C270 -812 271 -798 271 -772V-735C213 -735 163 -738 123 -742V-678C162 -681 215 -683 271 -683V-628C189 -628 128 -630 84 -633V-569C118 -573 163 -575 219 -575C183 -525 117 -488 42 -465C67 -447 81 -428 93 -406C170 -445 231 -500 271 -565V-509C271 -464 267 -431 262 -404H349C342 -436 338 -467 338 -509V-575C411 -575 466 -573 507 -569V-633C466 -630 411 -628 338 -628V-683C397 -683 440 -681 477 -678V-742C440 -738 390 -735 338 -735ZM719 -559C686 -585 656 -624 639 -668L580 -644C597 -600 633 -553 669 -520C623 -495 559 -475 489 -463L506 -477C472 -512 441 -536 399 -565L351 -519C389 -495 419 -470 452 -430L481 -456C502 -442 514 -426 528 -401C609 -419 677 -446 725 -480C793 -439 870 -411 916 -403C921 -433 938 -456 961 -476C908 -482 836 -496 774 -526C813 -574 839 -630 852 -690C886 -690 908 -688 931 -686V-754C904 -751 869 -749 810 -749H638C652 -773 662 -783 668 -786C687 -795 686 -804 674 -804C646 -806 624 -813 597 -825C577 -754 553 -713 489 -640C512 -637 536 -630 553 -617C575 -646 592 -670 605 -691H788C777 -640 758 -599 719 -559Z"/>
</svg>