<svg xmlns="http://www.w3.org/2000/svg" viewBox="0 -1000 1000 1000">
	<path fill="#000000" d="M827 -643C789 -696 759 -734 720 -779L643 -733C682 -692 716 -642 743 -589ZM512 -394C543 -258 568 -201 628 -122C680 -54 786 18 870 54C885 11 902 -16 936 -53C828 -80 746 -127 687 -195C630 -260 572 -367 551 -467C710 -467 825 -463 914 -457V-552C821 -545 700 -542 531 -542C535 -595 540 -676 543 -748C544 -778 549 -799 562 -809C576 -820 572 -823 557 -822C523 -820 477 -823 439 -829C445 -771 447 -683 442 -542C299 -543 193 -546 109 -552V-457C191 -463 297 -466 439 -467C429 -347 388 -249 332 -185C251 -92 195 -54 78 -14C111 13 128 33 152 69C272 8 361 -64 419 -151C472 -230 494 -280 512 -394Z"/>
</svg>