<svg xmlns="http://www.w3.org/2000/svg" viewBox="0 -1000 1000 1000">
	<path fill="#000000" d="M499 -239H403V-362H499ZM796 -242H703V-360H796ZM772 -135C778 -151 783 -168 789 -186C823 -185 851 -183 870 -181C868 -209 866 -257 866 -302C866 -347 868 -394 870 -421C843 -418 803 -417 751 -417C699 -417 658 -418 631 -421C633 -393 634 -346 634 -302C634 -256 633 -209 631 -180C653 -183 683 -186 721 -187C684 -75 642 -22 566 35C587 44 617 61 636 77C679 39 716 -10 749 -80C802 -30 848 22 880 68L947 8C912 -29 829 -96 772 -135ZM476 -136C483 -153 489 -169 495 -186C526 -185 549 -183 568 -181C566 -210 566 -258 566 -304C566 -349 567 -396 568 -423C540 -419 506 -418 454 -418C401 -418 363 -419 336 -423C338 -396 339 -349 339 -304C339 -258 338 -211 336 -182C356 -184 385 -185 421 -186C397 -99 352 -32 270 35C294 42 319 56 338 74C378 36 419 -21 451 -84C493 -49 517 -23 543 14L598 -42C562 -77 522 -107 476 -136ZM637 -786C646 -795 656 -802 663 -805C684 -815 679 -829 659 -832C636 -835 590 -847 562 -858C528 -737 395 -594 235 -499V-606C246 -632 257 -657 266 -682C299 -769 307 -781 314 -785C330 -793 330 -802 313 -805C280 -811 256 -818 221 -832C211 -766 194 -706 166 -638C122 -533 86 -462 31 -398C53 -376 68 -353 82 -322C106 -357 133 -403 161 -454V-143C161 -71 156 15 150 72H235V-492C261 -482 280 -466 296 -440C341 -473 380 -504 414 -534V-470C454 -475 517 -478 597 -478C678 -478 737 -475 777 -470V-530C818 -502 865 -478 924 -452C931 -496 940 -516 962 -542C822 -582 717 -648 637 -786ZM750 -549C712 -546 661 -545 597 -545C528 -545 473 -546 433 -550C500 -611 550 -669 596 -737C646 -650 692 -594 750 -549Z"/>
</svg>