<svg xmlns="http://www.w3.org/2000/svg" viewBox="0 -1000 1000 1000">
	<path fill="#000000" d="M721 -704C690 -760 676 -785 653 -831L565 -800C592 -750 612 -707 627 -669ZM704 -155C759 -235 805 -368 838 -571C878 -569 913 -567 942 -564V-651C877 -646 787 -642 666 -642C560 -642 500 -644 413 -651V-564C475 -572 528 -574 602 -574H755C734 -416 704 -312 649 -216C591 -298 566 -373 552 -484L473 -472C506 -316 541 -238 603 -156C545 -104 447 -49 307 -2C337 22 358 46 373 74C490 17 591 -45 653 -98C720 -26 772 11 887 70C908 33 927 7 956 -19C850 -50 778 -87 704 -155ZM274 -168V-385C327 -385 368 -382 398 -377V-462C368 -458 327 -455 274 -454V-662C328 -661 370 -658 401 -653V-740C363 -735 309 -732 235 -732C161 -732 103 -735 64 -740V-653C95 -658 139 -661 194 -662V-454C140 -455 98 -458 65 -462V-377C96 -382 139 -385 194 -386V-146C134 -131 82 -120 38 -113C53 -81 65 -48 71 -19C132 -48 191 -71 417 -133C417 -164 419 -186 427 -221C368 -198 330 -185 274 -168Z"/>
</svg>