<svg xmlns="http://www.w3.org/2000/svg" viewBox="0 -1000 1000 1000">
	<path fill="#000000" d="M687 -518H817V-385H687ZM611 -385H486V-518H611ZM611 -581H486V-706H611ZM687 -706H817V-581H687ZM687 -155C775 -154 842 -151 891 -145V-231C843 -225 775 -221 687 -220V-320C838 -320 875 -319 901 -314C898 -371 894 -465 894 -549C894 -641 896 -736 899 -780C876 -774 825 -772 653 -772C478 -772 431 -775 406 -780C409 -737 412 -641 412 -549C412 -462 409 -370 406 -314C427 -317 466 -319 611 -320V-220C530 -221 467 -225 419 -231V-145C466 -151 529 -155 611 -155V-45C491 -46 396 -49 328 -53V32C401 26 510 23 646 23C781 23 877 26 951 32V-53C885 -49 801 -46 687 -45ZM183 -680V-466C135 -467 97 -470 68 -474V-389C97 -393 135 -395 183 -396V-133C133 -119 85 -111 43 -108C59 -77 70 -21 70 14C142 -34 244 -80 368 -117C364 -150 365 -169 370 -205C336 -187 299 -171 261 -158V-396C306 -395 343 -392 370 -389V-474C343 -470 306 -468 261 -467V-681C311 -679 353 -676 381 -673V-757C346 -753 291 -751 224 -751C157 -751 103 -753 67 -757V-673C95 -676 135 -679 183 -680Z"/>
</svg>