<svg xmlns="http://www.w3.org/2000/svg" viewBox="0 -1000 1000 1000">
	<path fill="#000000" d="M800 -440V-406H459V-440ZM459 -287H800V-251H459ZM459 -364H800V-331H459ZM546 -174C558 -184 569 -195 580 -206H740C790 -206 839 -205 868 -204C866 -225 865 -261 865 -297V-400C865 -435 866 -468 868 -493C838 -490 796 -489 735 -489H538C479 -489 425 -490 388 -493C390 -467 391 -435 391 -400V-297C391 -260 390 -226 388 -203C421 -205 456 -206 496 -206C439 -156 379 -123 276 -88C308 -73 329 -55 342 -39C395 -67 435 -91 468 -113C493 -84 529 -54 565 -34C482 -4 382 12 273 11C298 34 308 48 321 77C446 62 545 38 633 -2C728 37 829 65 914 71C922 42 931 22 949 -3C882 2 815 -8 701 -39C760 -75 814 -120 871 -178C845 -175 818 -174 738 -174ZM630 -62C591 -78 562 -97 531 -125H722C697 -101 666 -80 630 -62ZM522 -699H715C700 -680 683 -662 666 -646H525C463 -646 417 -648 367 -652V-501H435V-596H589C554 -568 519 -551 466 -532C488 -520 504 -510 527 -494C555 -508 586 -529 630 -564C673 -542 705 -524 743 -495L794 -541C750 -560 707 -577 663 -593C664 -594 665 -595 667 -596H843V-499H911V-652C872 -649 832 -647 742 -646C778 -683 815 -720 850 -755C829 -752 803 -751 729 -751H582C614 -777 629 -785 641 -789C660 -795 664 -804 642 -808C621 -812 594 -820 564 -832C534 -780 476 -728 384 -686C413 -673 430 -664 451 -651C476 -664 497 -678 522 -699ZM238 -187V-402C282 -402 315 -399 340 -394V-473C315 -469 282 -466 238 -465V-658C285 -657 320 -654 348 -649V-726C314 -721 269 -718 204 -718C139 -718 94 -721 59 -726V-649C86 -654 120 -657 166 -658V-465C121 -466 88 -469 61 -473V-394C87 -399 121 -402 166 -403V-162C115 -148 72 -140 45 -140C65 -108 74 -85 84 -50C157 -87 275 -132 359 -157C353 -183 351 -203 352 -237C314 -217 275 -200 238 -187Z"/>
</svg>