<svg xmlns="http://www.w3.org/2000/svg" viewBox="0 -1000 1000 1000">
	<path fill="#000000" d="M825 -654H693V-727H825ZM888 -604C886 -627 885 -660 885 -694C885 -726 886 -761 888 -784C855 -782 823 -781 759 -781C697 -781 662 -782 629 -784C631 -759 632 -727 632 -694C632 -662 631 -628 629 -604C661 -605 697 -606 759 -606C823 -606 857 -605 888 -604ZM520 -656H397V-727H520ZM583 -604C581 -627 580 -659 580 -693C580 -725 581 -759 583 -782C551 -780 520 -779 458 -779C398 -779 364 -780 332 -782C334 -757 335 -726 335 -693C335 -661 334 -628 332 -604C363 -605 398 -606 458 -606C520 -606 553 -605 583 -604ZM936 -513V-582C905 -577 823 -575 620 -575C415 -575 332 -576 302 -582C317 -196 295 -91 240 4C267 20 278 30 298 57C361 -57 374 -159 372 -520H727C821 -520 906 -518 936 -513ZM799 -159C781 -196 768 -248 756 -336C757 -338 758 -340 758 -343H841C832 -255 821 -207 799 -159ZM803 -42C839 7 864 33 901 65C909 44 922 25 958 -7C896 -31 874 -50 838 -99C866 -154 894 -244 897 -343C920 -342 938 -341 953 -340V-405C930 -401 906 -400 867 -400H774C775 -407 777 -415 779 -423C782 -437 794 -467 802 -472C816 -480 814 -485 803 -485C781 -485 747 -492 726 -500C720 -388 690 -286 656 -248C672 -234 681 -221 692 -195C702 -212 711 -228 719 -245C729 -190 750 -132 766 -98C727 -34 700 -11 658 19C678 38 691 55 699 78C736 49 766 18 803 -42ZM583 -277H485V-327H583ZM583 -180H485V-226H583ZM583 -81C552 -77 518 -73 485 -69V-129H583ZM538 -371C446 -371 409 -374 389 -378V-320C399 -323 411 -325 427 -326V-64C402 -61 378 -59 356 -59C367 -33 373 -12 379 22C433 0 495 -14 582 -25C581 5 579 34 575 75H648C645 31 643 0 642 -33C660 -35 678 -37 698 -39C695 -61 695 -76 700 -99C684 -96 665 -93 642 -90V-325C660 -324 675 -322 684 -320V-378C668 -374 649 -372 600 -371L658 -487C627 -482 582 -481 541 -481C499 -481 459 -482 424 -487V-423C454 -427 481 -429 510 -429H563ZM237 -626C246 -648 258 -682 269 -713C284 -755 298 -773 314 -783C328 -792 327 -803 308 -804C278 -805 246 -816 214 -834C212 -776 203 -736 170 -643C129 -527 82 -438 33 -375C58 -361 71 -345 87 -311C117 -364 143 -413 166 -461V-147C166 -75 161 11 155 68H237Z"/>
</svg>