<svg xmlns="http://www.w3.org/2000/svg" viewBox="0 -1000 1000 1000">
	<path fill="#000000" d="M174 -462C171 -506 165 -542 157 -577L88 -572C101 -533 105 -499 103 -455ZM748 -465C746 -510 742 -545 735 -586L666 -576C674 -537 678 -502 680 -455ZM333 -615V-696C298 -689 258 -686 196 -686C134 -686 94 -689 59 -696V-615C94 -622 134 -625 196 -625C258 -625 298 -622 333 -615ZM938 -616V-698C901 -691 859 -688 791 -688C723 -688 681 -691 645 -698V-616C681 -623 723 -626 791 -626C859 -626 901 -623 938 -616ZM829 -723C821 -767 814 -798 805 -830L725 -816C733 -784 740 -750 747 -708ZM255 -719C247 -760 240 -803 236 -831L156 -818C164 -789 172 -746 177 -710ZM547 -712C543 -533 548 -419 562 -299C570 -235 604 -133 660 -17C680 -36 693 -45 721 -54C668 -127 634 -206 612 -320C595 -409 596 -527 601 -723C612 -724 620 -725 623 -724C642 -720 648 -729 635 -740C620 -753 602 -777 591 -799C528 -759 432 -728 348 -729C353 -683 355 -598 355 -480C355 -200 330 -118 252 -8C282 -3 304 4 318 15C381 -108 409 -223 409 -480V-687C420 -686 437 -688 454 -691L437 -135C435 -58 430 -54 400 -51C418 -30 426 -16 437 9C453 -5 465 -12 508 -31L547 -48C550 -33 553 -19 555 -7L602 -19C591 -65 573 -131 558 -173L516 -159C522 -140 529 -115 536 -91C520 -86 504 -81 490 -76L507 -703C519 -706 533 -710 547 -712ZM200 -411C132 -411 95 -414 59 -421V-339C89 -345 122 -349 170 -350C172 -310 172 -274 170 -241C122 -242 94 -245 65 -251V-169C93 -175 119 -178 164 -179C149 -84 113 -15 52 43C82 47 106 55 131 73C184 2 215 -67 229 -178C260 -177 283 -174 305 -169V-251C284 -246 263 -242 235 -242C237 -274 238 -310 238 -349C274 -347 301 -344 325 -339V-421C306 -417 284 -414 258 -412C286 -504 305 -547 319 -563C329 -574 327 -578 315 -580C298 -583 273 -590 240 -601C235 -555 225 -507 200 -411ZM750 -357V-229C717 -230 691 -233 666 -238V-157C690 -162 716 -165 750 -166V-101C750 -47 748 5 740 79H826C820 3 819 -52 819 -101V-167C871 -166 903 -163 935 -157V-238C903 -232 871 -229 819 -228V-357C870 -356 904 -353 937 -347V-428C909 -423 879 -420 839 -419C874 -503 894 -544 904 -550C916 -557 917 -563 905 -566C887 -570 859 -581 834 -593C825 -544 807 -486 780 -418C720 -418 682 -421 646 -428V-347C675 -352 706 -355 750 -357Z"/>
</svg>