<svg xmlns="http://www.w3.org/2000/svg" viewBox="0 -1000 1000 1000">
	<path fill="#000000" d="M265 -549H506V-365C388 -366 319 -369 251 -375V-280C318 -287 388 -290 506 -291V-77C306 -77 210 -79 102 -86V14C212 6 310 2 520 2C729 2 823 5 933 13V-87C837 -81 754 -78 596 -77V-291C703 -290 768 -287 832 -280V-375C768 -369 703 -366 596 -365V-549C706 -549 788 -548 900 -542V-634C814 -630 742 -628 596 -627V-780C596 -797 601 -803 615 -811C628 -819 625 -827 608 -827C577 -827 535 -829 500 -833C504 -808 506 -739 506 -715V-626H303C342 -709 351 -726 361 -731C381 -740 379 -748 356 -752C335 -756 285 -772 252 -789C228 -646 177 -526 85 -430C118 -426 153 -414 179 -400C209 -446 241 -502 265 -549Z"/>
</svg>