<svg xmlns="http://www.w3.org/2000/svg" viewBox="0 -1000 1000 1000">
	<path fill="#000000" d="M609 -125H490V-174H609ZM872 -72C868 -91 866 -121 866 -150V-241C866 -267 868 -296 872 -318C820 -312 764 -309 646 -309C530 -309 477 -311 420 -318C425 -297 427 -265 427 -241V-150C427 -121 425 -96 420 -72C476 -78 527 -81 646 -81C764 -81 823 -77 872 -72ZM799 -125H672V-174H799ZM609 -216H490V-267H609ZM799 -216H672V-267H799ZM612 -486H491V-538H612ZM862 -440C858 -462 855 -488 855 -512V-607C855 -631 858 -659 862 -681C815 -676 756 -673 642 -673C531 -673 477 -676 422 -681C427 -658 429 -630 429 -606V-513C429 -488 426 -461 422 -440C474 -444 528 -447 642 -447C756 -447 816 -445 862 -440ZM793 -486H671V-538H793ZM612 -578H491V-630H612ZM793 -578H671V-630H793ZM923 34V-34C857 -29 776 -26 654 -26C535 -26 453 -29 387 -34V34C453 29 535 26 654 26C776 26 857 29 923 34ZM367 -459C349 -455 321 -452 294 -452H173L176 -545H291C309 -545 330 -543 348 -539C346 -578 346 -620 346 -661C346 -703 350 -745 356 -782C321 -778 272 -776 224 -776C175 -776 112 -777 82 -781V-708C107 -712 141 -716 163 -716H281L274 -605H178C150 -605 126 -608 110 -610C114 -576 115 -529 115 -495C115 -456 113 -428 106 -381C124 -384 155 -386 175 -386H297C296 -284 289 -84 284 -55C277 -15 252 -10 158 -20C183 11 193 32 196 60C324 43 348 29 351 -92C355 -233 362 -381 367 -459ZM912 -347V-407C848 -403 782 -401 654 -401C529 -401 466 -403 399 -407V-347C467 -351 529 -353 654 -353C782 -353 843 -351 912 -347ZM899 -712V-780C836 -776 760 -773 645 -773C528 -773 453 -776 391 -780V-712C453 -717 528 -720 645 -720C760 -720 836 -717 899 -712ZM188 -152V-238C215 -237 235 -235 253 -231V-297C235 -293 215 -291 188 -290V-322C188 -329 190 -339 196 -342C204 -346 203 -351 193 -351C172 -351 142 -353 124 -357C126 -345 127 -327 128 -290C99 -291 74 -293 57 -297V-231C74 -235 99 -237 128 -238V-139C97 -133 66 -128 38 -125C47 -106 55 -78 57 -56C119 -78 222 -100 257 -106C254 -126 254 -152 261 -171C241 -165 216 -158 188 -152Z"/>
</svg>