<svg xmlns="http://www.w3.org/2000/svg" viewBox="0 -1000 1000 1000">
	<path fill="#000000" d="M876 -372C892 -384 891 -395 869 -394C852 -392 816 -393 792 -396C796 -371 800 -308 800 -248V-34C800 -7 786 -3 717 -9C735 9 751 43 753 69C851 61 868 44 868 -9V-346C868 -359 869 -366 876 -372ZM739 -331C757 -341 753 -354 734 -353C713 -352 694 -354 664 -360C669 -337 671 -303 671 -258V-175C671 -140 670 -103 666 -60H738C734 -102 733 -140 733 -175V-309C733 -320 735 -329 739 -331ZM548 -69V-36C548 -9 537 -4 470 -10C485 7 496 39 496 61C586 54 612 37 612 -12V-301C612 -333 615 -364 617 -381C580 -377 529 -374 476 -374C423 -374 371 -377 335 -381C338 -365 340 -328 340 -301V-83C340 -46 338 3 334 54H407V-69ZM407 -253V-319H548V-253ZM548 -194V-125H407V-194ZM474 -487C511 -518 548 -552 595 -600C632 -558 674 -519 719 -487ZM185 -444C173 -503 151 -589 134 -643L64 -622C92 -548 104 -494 109 -423ZM549 -666C495 -575 393 -492 273 -440C274 -504 274 -579 273 -666ZM201 -287C186 -149 156 -50 83 33C114 40 135 51 160 76C235 -63 267 -155 273 -424C291 -412 308 -396 320 -377C372 -409 412 -437 450 -467V-420C480 -424 542 -427 597 -427C653 -427 715 -424 743 -420V-471C791 -440 847 -412 914 -385C922 -417 937 -444 956 -464C834 -483 723 -537 638 -630C641 -631 644 -632 647 -633C667 -639 668 -649 648 -651C628 -653 602 -659 580 -666C807 -666 885 -664 938 -659V-737C888 -731 821 -730 633 -730C623 -766 617 -796 611 -831L516 -815C528 -789 539 -760 547 -730C334 -730 248 -732 194 -737C200 -596 203 -445 204 -358C155 -330 90 -298 40 -276C60 -253 76 -223 87 -187C122 -221 162 -257 201 -287Z"/>
</svg>