<svg xmlns="http://www.w3.org/2000/svg" viewBox="0 -1000 1000 1000">
	<path fill="#000000" d="M133 -647L65 -639C74 -577 78 -507 77 -428L153 -437C150 -506 143 -578 133 -647ZM200 -293C189 -124 152 -56 80 37C115 43 133 50 166 69C251 -69 276 -155 277 -674H563C796 -674 869 -672 923 -667V-742C871 -736 812 -735 612 -735C602 -773 598 -803 593 -841L502 -826C511 -797 518 -767 522 -735C323 -735 249 -737 195 -742C202 -579 205 -458 203 -363C149 -342 81 -322 23 -309C36 -281 45 -252 52 -215C100 -243 152 -269 200 -293ZM742 -42H441V-132H742ZM441 14H742V62H818C816 30 815 12 815 -20V-122C815 -161 816 -177 819 -194C779 -191 761 -190 599 -190C437 -190 410 -190 365 -194C370 -173 371 -157 371 -122V-10C371 25 369 50 364 78H441ZM601 -420C645 -374 684 -341 728 -313C696 -309 656 -308 599 -308C548 -308 509 -309 478 -312C527 -346 566 -381 601 -420ZM451 -293V-246C486 -251 531 -252 599 -252C667 -252 712 -251 747 -246V-302C790 -277 839 -257 902 -237C909 -261 921 -293 938 -320C828 -328 752 -363 637 -456C660 -463 656 -473 638 -472C612 -471 589 -476 564 -488C527 -416 431 -344 274 -285C297 -268 313 -245 323 -221C372 -246 415 -270 451 -293ZM504 -520H674V-456H745V-520C824 -520 862 -517 913 -511V-585C862 -579 824 -577 745 -577V-600C745 -610 750 -622 757 -626C769 -633 766 -644 751 -643C725 -642 696 -642 670 -644C672 -619 674 -601 674 -577H504V-602C504 -612 508 -624 515 -628C530 -636 526 -646 511 -645C483 -643 456 -643 430 -648C434 -626 436 -602 437 -577C387 -578 354 -580 314 -585V-511C354 -515 388 -518 437 -519V-440H504Z"/>
</svg>