<svg xmlns="http://www.w3.org/2000/svg" viewBox="0 -1000 1000 1000">
	<path fill="#000000" d="M185 -444C173 -503 151 -589 134 -643L64 -622C92 -548 104 -494 109 -423ZM272 -490C272 -543 272 -601 271 -666H545C472 -584 383 -529 272 -490ZM803 -32C783 -36 757 -54 744 -84C735 -23 722 -8 697 -5C663 3 584 5 545 2C518 0 512 -5 512 -18V-72C512 -84 514 -89 522 -97C532 -107 530 -111 516 -110C495 -108 466 -109 439 -114C444 -97 446 -73 446 -47V-1C446 36 456 45 501 52C528 56 667 57 714 53C769 48 775 41 803 -32ZM395 -99L323 -117C313 -63 289 -7 262 26L334 51C355 12 377 -44 395 -99ZM946 -18C909 -57 864 -103 829 -135L773 -98C805 -71 861 -8 886 32ZM687 -62C671 -93 651 -128 633 -154L574 -122C594 -97 617 -55 627 -30ZM875 -424C886 -433 886 -441 870 -440C855 -438 817 -439 797 -442C801 -420 803 -394 803 -349V-223C803 -192 783 -189 723 -194C738 -179 754 -146 755 -125C844 -141 867 -160 867 -202V-399C867 -413 868 -418 875 -424ZM739 -408C751 -416 749 -424 735 -424C719 -423 692 -425 668 -430C671 -410 673 -383 673 -358V-299C673 -267 671 -240 668 -210H738C734 -243 733 -267 733 -299V-387C733 -398 734 -404 739 -408ZM551 -223C550 -192 540 -184 488 -189C501 -174 509 -147 509 -130C590 -136 607 -157 607 -195V-366C607 -395 608 -421 609 -435C572 -431 523 -429 471 -429C420 -429 368 -432 334 -435C336 -420 337 -388 337 -366V-267C337 -233 335 -192 331 -148H397V-223ZM397 -351V-383H551V-351ZM551 -302V-271H397V-302ZM710 -512C767 -480 831 -457 914 -433C920 -458 934 -491 951 -512C849 -517 715 -563 629 -633C634 -635 639 -637 642 -638C652 -641 651 -648 640 -649C628 -650 613 -655 588 -666C809 -666 886 -664 938 -659V-737C888 -732 821 -730 633 -730C623 -766 617 -796 611 -831L516 -815C529 -789 539 -760 547 -730C334 -730 246 -732 192 -737C198 -595 203 -433 203 -356C156 -326 93 -294 40 -276C60 -253 75 -223 84 -187C119 -218 162 -255 200 -287C180 -122 149 -45 87 33C118 40 136 51 161 76C231 -39 268 -134 272 -479C285 -465 297 -442 304 -425C374 -460 417 -483 461 -512V-469C491 -473 527 -476 583 -476C641 -476 679 -473 710 -469ZM490 -532C518 -552 548 -575 586 -607C616 -577 646 -552 678 -531C653 -530 623 -529 583 -529C544 -529 515 -530 490 -532Z"/>
</svg>