<svg xmlns="http://www.w3.org/2000/svg" viewBox="0 -1000 1000 1000">
	<path fill="#000000" d="M306 -484H687V-333H306ZM419 -263H561V-41C561 41 575 50 740 50C902 50 915 41 959 -87C921 -96 895 -109 867 -136C852 -31 840 -21 745 -21C657 -21 645 -33 645 -61V-263C699 -263 739 -262 777 -260C774 -289 772 -344 772 -409C772 -474 773 -528 777 -557C818 -531 859 -508 898 -491C912 -535 926 -561 948 -585C857 -605 776 -644 706 -701C647 -749 608 -801 593 -829L530 -798C553 -756 598 -704 652 -654C689 -620 732 -587 774 -558C724 -555 686 -554 500 -554C300 -554 268 -555 217 -559C272 -604 330 -655 376 -703C405 -735 427 -748 449 -750C467 -751 469 -764 454 -771C432 -782 401 -810 378 -835C352 -793 296 -727 255 -689C167 -609 94 -566 35 -543C61 -519 79 -494 89 -463C122 -485 167 -519 216 -558C220 -529 221 -474 221 -409C221 -344 219 -289 216 -260C256 -261 288 -262 340 -263C333 -113 264 -48 36 -2C74 25 92 48 99 77C329 4 401 -66 419 -263Z"/>
</svg>