<svg xmlns="http://www.w3.org/2000/svg" viewBox="0 -1000 1000 1000">
	<path fill="#000000" d="M543 -499H791C784 -375 756 -273 722 -208C689 -266 667 -343 656 -435L580 -411C605 -290 637 -206 674 -141C611 -73 536 -25 462 6C494 26 517 48 531 69C611 26 672 -19 724 -78C777 -27 859 32 919 62C934 18 946 -8 968 -30C865 -66 815 -95 772 -141C830 -232 865 -359 886 -576C849 -570 802 -567 726 -567H543V-685C608 -689 688 -696 761 -704C805 -709 872 -708 894 -703C912 -699 916 -706 901 -720C887 -733 859 -774 840 -808C759 -776 587 -748 457 -747C463 -704 469 -606 470 -461C471 -219 428 -71 313 26C346 39 367 53 389 72C515 -91 541 -195 543 -499ZM303 -418H161V-585H303ZM303 -182H161V-357H303ZM161 -123H303V-62H383C378 -111 377 -152 377 -208V-564C377 -602 378 -631 380 -655C340 -650 291 -648 232 -648C254 -747 266 -769 280 -778C300 -791 300 -807 279 -806C242 -805 210 -810 177 -821C181 -769 179 -717 171 -649C137 -650 109 -652 83 -655C85 -631 86 -595 86 -564V-179C86 -124 84 -82 79 -33H161Z"/>
</svg>