<svg xmlns="http://www.w3.org/2000/svg" viewBox="0 -1000 1000 1000">
	<path fill="#000000" d="M754 -252H587V-291H754ZM558 -428C413 -428 358 -430 286 -434C289 -412 290 -382 290 -358V-271C290 -245 288 -214 286 -196C353 -201 411 -202 558 -202C703 -202 764 -200 829 -196C827 -215 825 -245 825 -270V-359C825 -383 826 -411 829 -434C761 -430 703 -428 558 -428ZM754 -340H587V-375H754ZM522 -252H362V-291H522ZM522 -340H362V-375H522ZM439 -112V-18H326V-112ZM609 -112V-18H504V-112ZM781 -18H674V-112H781ZM257 -21C235 -22 210 -24 182 -27V50C244 44 287 40 563 40C838 40 881 44 943 50V-27C908 -24 879 -21 853 -20V-95C853 -116 854 -147 856 -169C791 -167 716 -166 555 -166C394 -166 318 -167 254 -169C256 -147 257 -116 257 -95ZM506 -690V-729H687C748 -729 796 -726 843 -720V-789C796 -783 748 -780 687 -780H507C510 -795 515 -804 524 -811C539 -822 534 -831 518 -830C493 -828 453 -831 425 -836C429 -812 431 -776 431 -690C237 -690 149 -693 118 -697C129 -631 133 -534 132 -375C131 -145 110 -70 34 19C66 27 95 43 117 66C201 -104 211 -195 202 -635H447V-590C352 -587 288 -588 231 -591L234 -521C290 -529 354 -534 447 -538C448 -478 467 -454 517 -452C587 -449 683 -449 775 -452C831 -454 856 -472 879 -535C842 -539 815 -549 795 -566C785 -518 772 -509 734 -506C675 -502 608 -500 563 -504C532 -507 522 -514 520 -541C628 -544 705 -544 766 -539L763 -609C703 -602 627 -596 520 -592V-635H828L804 -596L881 -568L936 -697C900 -693 729 -690 506 -690Z"/>
</svg>