<svg xmlns="http://www.w3.org/2000/svg" viewBox="0 -1000 1000 1000">
	<path fill="#000000" d="M365 -106H736V-44H365ZM736 -269H365V-329H736ZM365 -217H736V-158H365ZM425 -702C421 -679 416 -656 411 -634C312 -635 254 -637 188 -640V-569C246 -574 305 -577 395 -579C388 -557 379 -536 368 -516C250 -516 151 -518 78 -522V-446C142 -450 230 -453 334 -455C273 -363 173 -272 48 -214C74 -198 104 -174 126 -149C188 -194 241 -236 285 -279V-44C285 4 284 32 278 78H365V8H736V70H823C818 30 815 -5 815 -52V-301C815 -329 817 -369 822 -392C773 -388 688 -384 602 -384H375C391 -406 407 -433 419 -456H646C759 -456 841 -453 939 -448V-524C841 -519 759 -516 644 -516H448C457 -537 466 -559 474 -580C606 -581 734 -578 808 -573V-643C741 -638 625 -634 491 -634C497 -657 503 -681 507 -706C583 -710 661 -714 731 -719C797 -723 844 -720 865 -716C879 -713 881 -716 871 -730C858 -749 836 -792 830 -812C741 -786 618 -771 485 -765C337 -758 203 -760 132 -769C142 -747 150 -720 155 -693C197 -693 303 -696 425 -702Z"/>
</svg>