<svg xmlns="http://www.w3.org/2000/svg" viewBox="0 -1000 1000 1000">
	<path fill="#000000" d="M276 -561H156V-687H276ZM276 -367H156V-494H276ZM276 -171H156V-300H276ZM156 -104H276V-24H356C352 -79 349 -122 349 -175V-656C349 -699 353 -742 356 -762C325 -756 298 -754 217 -754C148 -754 116 -756 76 -762C79 -741 83 -691 83 -656V-126C83 -66 80 -12 72 37H156ZM817 -54H690V-206H817ZM499 9H817V66H896C891 22 887 -58 887 -105V-366C887 -411 889 -458 891 -478C840 -474 756 -470 658 -470C556 -470 469 -473 422 -478C424 -458 427 -401 427 -356V-111C427 -51 425 4 418 70H499ZM499 -206H620V-54H499ZM620 -407V-269H499V-407ZM817 -269H690V-407H817ZM798 -699V-793C798 -805 801 -809 810 -814C820 -820 817 -828 805 -828C780 -828 747 -830 721 -834C725 -808 728 -771 729 -699H592V-786C592 -798 594 -802 603 -807C613 -813 611 -821 599 -821C574 -821 541 -823 515 -827C519 -803 522 -762 523 -699C473 -700 433 -702 398 -707V-623C432 -627 473 -630 523 -631V-510H592V-632H729V-518H798V-632C861 -631 912 -628 951 -623V-707C912 -702 861 -700 798 -699Z"/>
</svg>