<svg xmlns="http://www.w3.org/2000/svg" viewBox="0 -1000 1000 1000">
	<path fill="#000000" d="M782 -495H532V-562H782ZM532 -436H782V-365H532ZM626 -77C596 -92 572 -110 557 -130C501 -68 425 -17 356 13C386 32 405 50 423 71C478 36 515 8 560 -32C577 -47 600 -55 618 -57C633 -59 639 -71 626 -77ZM906 0C847 -54 799 -90 741 -123L689 -76C749 -40 799 8 841 63ZM281 -139H171V-282H281ZM171 -75H281V-26H367C361 -68 358 -114 358 -161V-664C358 -699 361 -746 365 -772C337 -766 302 -764 232 -764C159 -764 120 -766 87 -772C91 -744 94 -699 94 -664V-105C94 -57 91 -14 85 30H171ZM281 -550H171V-698H281ZM171 -486H281V-346H171ZM707 -219C698 -248 689 -271 679 -295L601 -276C612 -258 617 -243 622 -219C527 -220 484 -221 407 -228V-145C493 -154 537 -155 662 -155C832 -155 869 -153 934 -145V-228C868 -219 839 -219 707 -219ZM839 -631C802 -628 759 -626 659 -626C558 -626 518 -627 479 -631V-709H839ZM457 -614C459 -589 461 -550 461 -531V-403C461 -362 459 -317 454 -298C502 -302 535 -304 660 -304C783 -304 815 -302 864 -298C859 -320 857 -367 857 -403V-531C857 -552 859 -596 862 -620H916V-781C864 -776 812 -773 661 -773C522 -773 468 -776 402 -781V-614Z"/>
</svg>