<svg xmlns="http://www.w3.org/2000/svg" viewBox="0 -1000 1000 1000">
	<path fill="#000000" d="M184 -540H432V-494H184ZM731 -217H283V-261H731ZM731 -128H283V-171H731ZM731 -30H283V-82H731ZM283 22H731V61H811C807 27 806 0 806 -38V-263C806 -290 807 -302 810 -314C770 -312 622 -311 477 -311C332 -311 248 -312 208 -314C211 -301 212 -285 212 -263V-36C212 3 209 38 203 70H283ZM764 -440C813 -484 849 -542 887 -625C839 -623 797 -621 744 -621V-690C841 -690 883 -687 932 -683V-744C884 -738 842 -736 744 -736C744 -784 750 -798 763 -809C775 -819 772 -825 756 -824C740 -823 701 -825 673 -830C676 -809 678 -773 679 -736C618 -737 587 -739 544 -744V-683C585 -687 617 -689 679 -690V-621C624 -621 599 -622 544 -625V-570C576 -573 614 -575 637 -575H798C774 -533 746 -498 710 -471C680 -492 654 -519 629 -552L583 -523C608 -491 635 -464 664 -441C620 -418 567 -402 501 -392C521 -372 536 -353 546 -334C618 -354 672 -376 717 -403C777 -366 842 -340 906 -322C915 -356 924 -371 947 -395C874 -403 814 -417 764 -440ZM197 -393C141 -392 88 -393 42 -396C53 -372 58 -355 60 -325C121 -341 229 -350 480 -361C481 -382 484 -393 492 -411C462 -407 429 -404 394 -401C404 -418 413 -433 421 -450C450 -450 470 -449 493 -448C492 -478 492 -496 492 -517C492 -538 492 -558 493 -588C453 -584 399 -583 305 -583C210 -583 170 -584 122 -588C125 -558 126 -538 126 -517C126 -496 125 -478 122 -447C161 -450 195 -451 242 -451H361C356 -435 348 -418 336 -397L256 -394C249 -411 244 -421 233 -444L176 -433C184 -421 191 -408 197 -393ZM266 -717V-665C186 -665 145 -667 97 -672V-616C151 -622 201 -624 306 -624C412 -624 447 -622 494 -616V-672C446 -665 418 -665 329 -665V-717C424 -717 457 -715 513 -710V-769C460 -764 425 -762 329 -762C331 -784 337 -799 348 -808C360 -818 357 -824 341 -823C325 -822 288 -824 260 -829C263 -810 265 -789 266 -762C179 -763 125 -765 73 -769V-710C125 -714 179 -716 266 -717Z"/>
</svg>