<svg xmlns="http://www.w3.org/2000/svg" viewBox="0 -1000 1000 1000">
	<path fill="#000000" d="M603 -537H813V-489H603ZM535 -431C572 -435 613 -437 709 -437C805 -437 852 -435 881 -431C877 -462 875 -493 875 -534V-713C875 -752 876 -784 880 -801C823 -796 781 -794 708 -794C612 -794 595 -795 534 -801C538 -780 540 -748 540 -713V-535C540 -493 538 -463 535 -431ZM813 -691H603V-742H813ZM813 -589H603V-639H813ZM193 -531H399V-484H193ZM126 -424C160 -429 201 -431 297 -431C393 -431 436 -428 466 -424C462 -455 461 -488 461 -529V-701C461 -740 464 -772 468 -789C409 -784 371 -782 298 -782C184 -782 170 -783 122 -789C127 -768 130 -736 130 -701V-530C130 -488 129 -456 126 -424ZM399 -584H193V-630H399ZM399 -682H193V-730H399ZM256 -88H505V-19H256ZM256 -196H505V-139H256ZM256 -302H505V-247H256ZM192 -238V-117C192 -43 189 15 182 87H256V41H556C732 41 853 45 913 49V-30C852 -23 737 -19 570 -19V-88C714 -88 795 -85 852 -78V-149C792 -142 709 -139 570 -139V-196C707 -196 797 -193 853 -186V-257C809 -251 705 -247 570 -247V-302C741 -302 838 -300 900 -294V-367C846 -361 744 -356 587 -355C573 -383 561 -398 544 -420L480 -405C492 -392 505 -374 517 -355H288C302 -372 312 -382 319 -383C337 -387 336 -394 318 -399C298 -405 274 -415 257 -424C224 -355 121 -237 47 -201C67 -186 81 -166 93 -141C125 -168 157 -199 192 -238Z"/>
</svg>