<svg xmlns="http://www.w3.org/2000/svg" viewBox="0 -1000 1000 1000">
	<path fill="#000000" d="M598 -115H815V-73H598ZM815 -203H598V-241H815ZM598 -176H815V-143H598ZM815 -5H598V-44H815ZM184 -40H391V-8C321 -2 249 2 184 4ZM184 -109H391V-69H184ZM391 -200H184V-235H391ZM184 -173H391V-137H184ZM298 -528H709V-492H298ZM709 -625H298V-663H709ZM298 -595H709V-558H298ZM229 -423C176 -424 134 -425 80 -428V-383C124 -385 159 -386 262 -387C260 -374 257 -359 254 -343C170 -343 117 -345 70 -349V-303C116 -307 167 -308 247 -308C245 -295 242 -282 239 -269C181 -269 146 -270 118 -272C121 -258 123 -228 123 -203V6C96 7 72 7 51 6C55 27 56 42 56 58C133 49 211 44 483 31C480 17 481 1 487 -16C476 -15 465 -14 454 -13V-203C454 -220 456 -256 458 -272C426 -270 383 -269 306 -269C309 -283 312 -295 315 -307C382 -307 428 -305 469 -303V-349C430 -346 386 -344 324 -343C329 -359 333 -373 338 -388C383 -388 437 -388 503 -388C571 -388 626 -388 671 -388C671 -374 670 -360 668 -346C609 -347 567 -349 529 -352V-307C566 -310 606 -311 663 -312C661 -299 658 -286 656 -272C598 -272 562 -272 533 -274C536 -256 538 -220 538 -196V-7C532 -8 525 -8 519 -9V42C544 39 576 38 729 38C885 38 919 39 939 43V-9C921 -7 899 -5 877 -5V-196C877 -219 879 -256 881 -274C845 -271 803 -272 725 -272C727 -285 729 -298 731 -312C822 -312 879 -310 928 -307V-352C880 -349 825 -346 736 -346C739 -360 741 -374 743 -387C846 -386 879 -385 925 -383V-428C874 -425 835 -424 781 -423V-629C781 -640 782 -680 785 -700C726 -697 658 -695 523 -695C526 -713 529 -729 532 -743C700 -743 809 -742 903 -738V-790C811 -786 706 -784 544 -784C550 -798 555 -807 561 -811C572 -818 569 -826 556 -825C534 -824 498 -824 470 -829C471 -816 471 -801 469 -784C311 -784 206 -786 117 -790V-738C206 -742 309 -743 463 -743C460 -727 457 -711 452 -695C339 -696 277 -697 223 -700C226 -679 229 -646 229 -629ZM709 -423H298V-463H709Z"/>
</svg>