<svg xmlns="http://www.w3.org/2000/svg" viewBox="0 -1000 1000 1000">
	<path fill="#000000" d="M640 -79C581 -37 500 -13 376 3C402 20 422 43 431 72C545 52 636 9 703 -49C765 -17 828 21 899 70C908 44 925 17 951 -3C883 -38 816 -69 751 -96C785 -138 809 -183 824 -232C865 -231 907 -228 941 -224V-300C888 -294 817 -291 759 -291H642C655 -312 664 -322 672 -326C692 -335 692 -343 671 -346C647 -349 620 -358 594 -371C589 -345 581 -319 569 -291C512 -291 444 -294 391 -300V-224C436 -229 491 -232 541 -233C524 -203 504 -171 477 -135C532 -121 586 -103 640 -79ZM609 -233H751C733 -188 713 -152 687 -122C648 -137 609 -151 571 -163ZM626 -705V-618C536 -619 472 -621 420 -625V-554C462 -558 510 -561 575 -561C529 -492 457 -432 402 -407C360 -402 338 -401 293 -400C297 -454 299 -515 299 -584C350 -584 379 -584 408 -580V-653C378 -650 348 -649 295 -649H206C215 -671 223 -695 232 -722C239 -743 256 -771 269 -779C285 -788 282 -793 268 -795C236 -799 195 -811 165 -826C162 -737 129 -612 55 -503C76 -498 103 -486 122 -473C145 -512 163 -546 180 -584H224C227 -515 227 -454 223 -399C155 -399 108 -401 68 -406V-326C106 -332 152 -334 217 -335C197 -175 142 -75 49 11C78 25 103 45 119 67C187 -11 232 -86 260 -190C296 -149 331 -103 363 -49L433 -108C387 -156 333 -204 274 -250C279 -276 284 -304 287 -334C335 -333 371 -331 402 -326V-398C420 -386 435 -369 448 -347C525 -401 584 -469 626 -561V-485C626 -454 625 -417 621 -373H698C695 -415 695 -454 695 -485V-561H707C738 -462 790 -394 901 -340C908 -366 925 -395 952 -419C873 -434 801 -482 755 -561C826 -561 879 -559 924 -554V-625C868 -620 797 -618 695 -618V-713C731 -717 765 -722 794 -727C819 -731 857 -730 878 -725C890 -722 893 -731 883 -742C865 -761 845 -794 837 -823C736 -784 571 -756 426 -760C443 -741 454 -712 455 -692C496 -693 560 -698 626 -705Z"/>
</svg>