<svg xmlns="http://www.w3.org/2000/svg" viewBox="0 -1000 1000 1000">
	<path fill="#000000" d="M830 -44L706 -22C749 -87 852 -262 891 -335C901 -354 921 -381 932 -387C948 -396 947 -399 933 -405C900 -421 879 -433 864 -451C855 -418 832 -364 807 -312L709 -309C790 -462 814 -500 830 -509C843 -516 843 -520 828 -526C798 -537 778 -547 754 -564C744 -529 709 -433 694 -399C665 -336 649 -317 627 -311C634 -291 639 -269 642 -245C672 -252 731 -258 781 -261C671 -48 656 -34 603 -5C617 16 628 45 632 63C655 52 684 40 698 37L844 -1C853 26 860 50 862 62L937 34C923 -5 886 -95 867 -137L801 -118C808 -102 819 -73 830 -44ZM608 -695C590 -724 562 -781 546 -820L467 -789C492 -747 517 -697 529 -659ZM287 -155H201V-391H287ZM137 -325V-152C137 -92 135 -49 130 0H201V-93H287V-56H349C340 -49 331 -45 321 -43C333 -21 351 18 354 36C374 22 410 5 424 1L577 -50C579 -39 580 -29 581 -21L645 -45C632 -84 613 -141 598 -185L538 -163C546 -150 556 -124 565 -96L429 -56C473 -121 568 -276 607 -348C618 -368 638 -395 649 -400C664 -408 663 -413 649 -419C635 -426 603 -450 586 -465C573 -432 554 -391 522 -330L438 -325C519 -471 542 -502 558 -511C571 -519 572 -523 556 -529C540 -534 506 -551 484 -569C475 -534 452 -476 420 -403C390 -340 381 -331 359 -324C368 -306 374 -279 375 -254C399 -263 437 -270 494 -277C420 -139 384 -84 355 -60C352 -106 352 -142 352 -179V-362C352 -401 355 -433 360 -456C344 -454 314 -453 284 -453H200C227 -518 245 -581 260 -650C305 -649 340 -647 367 -645V-722C332 -719 287 -718 222 -718C157 -718 114 -720 77 -722V-645C107 -648 143 -650 191 -650C165 -517 109 -403 40 -319C57 -292 70 -263 76 -238C99 -266 117 -291 137 -325ZM683 -648H571C480 -648 418 -651 382 -657V-573C421 -579 489 -583 645 -583C866 -583 904 -579 936 -573V-657C908 -652 815 -649 750 -648C792 -730 825 -773 841 -787C853 -797 853 -803 839 -806C824 -809 777 -826 747 -840C741 -794 716 -717 683 -648Z"/>
</svg>