<svg xmlns="http://www.w3.org/2000/svg" viewBox="0 -1000 1000 1000">
	<path fill="#000000" d="M280 -144H189V-431H280ZM119 -369V-145C119 -85 116 -42 111 7H189V-88H280V-34H356C352 -81 350 -140 350 -178V-386C350 -425 354 -470 358 -495C330 -491 295 -489 193 -489C222 -546 237 -595 250 -667C295 -666 332 -664 358 -659V-739C326 -734 276 -732 216 -732C156 -732 105 -734 73 -739V-659C98 -664 136 -666 181 -667C151 -524 122 -472 44 -396C60 -367 68 -344 72 -308C91 -331 106 -351 119 -369ZM672 -625H772V-535H672ZM626 -207V-86C626 -26 624 17 617 73H706C700 18 697 -26 697 -86V-189C748 -85 819 -23 925 17C930 -15 941 -47 960 -77C848 -101 791 -133 739 -207C813 -206 898 -203 932 -201V-273C878 -268 795 -265 697 -264V-355H906V-420H510V-625H604V-478C629 -480 674 -481 722 -481C766 -481 812 -480 841 -478V-624C871 -624 914 -620 940 -617V-693C915 -690 871 -686 841 -685V-768C841 -781 845 -790 854 -800C864 -811 861 -818 853 -817C843 -816 788 -819 767 -823C770 -802 772 -778 772 -685H672V-767C672 -784 673 -797 677 -801C689 -810 686 -816 676 -815C661 -814 621 -815 598 -818C601 -795 604 -773 604 -685H510V-724C510 -742 513 -762 522 -770C534 -780 532 -783 521 -782C501 -781 464 -784 432 -789C436 -771 438 -736 439 -686C415 -687 388 -689 365 -693V-617C388 -621 415 -623 439 -624V-476C439 -419 438 -390 436 -350C466 -354 495 -355 534 -355H626V-264C523 -265 439 -268 382 -273V-201C417 -204 499 -206 559 -207C512 -124 437 -61 341 -16C374 0 401 19 419 41C509 -22 563 -82 622 -207Z"/>
</svg>