<svg xmlns="http://www.w3.org/2000/svg" viewBox="0 -1000 1000 1000">
	<path fill="#000000" d="M796 -182H537V-266H796ZM796 -326H537V-408H796ZM796 -472H537V-553H796ZM640 -40C656 -42 662 -54 639 -63C618 -71 598 -85 573 -109C505 -47 431 0 357 23C389 40 409 56 425 82C488 48 516 31 592 -23C603 -31 622 -38 640 -40ZM956 8C900 -33 826 -77 757 -110L705 -53C775 -22 841 23 889 68ZM316 -186H214V-441H316ZM143 -330V-160C143 -100 140 -56 134 -7H214V-125H316V-38H394C392 -86 391 -123 391 -161V-416C391 -455 394 -486 399 -509C381 -508 351 -507 312 -507H226C249 -568 263 -625 276 -700C328 -699 366 -696 397 -691V-773C358 -768 309 -765 233 -765C157 -765 105 -768 66 -773V-691C99 -696 142 -699 200 -700C172 -531 129 -429 44 -344C68 -323 85 -302 102 -268C116 -286 129 -306 143 -330ZM631 -704C625 -672 619 -643 613 -617C526 -618 491 -620 456 -625C459 -607 462 -558 462 -519V-217C462 -178 459 -136 456 -112C497 -118 539 -119 667 -119C795 -119 837 -118 879 -112C877 -131 875 -178 875 -217V-519C875 -558 877 -606 879 -625C839 -619 799 -617 685 -617C691 -646 698 -672 708 -704C811 -704 880 -702 936 -696V-778C875 -772 798 -770 679 -770C560 -770 494 -772 433 -778V-696C484 -701 541 -703 631 -704Z"/>
</svg>