<svg xmlns="http://www.w3.org/2000/svg" viewBox="0 -1000 1000 1000">
	<path fill="#000000" d="M663 -521V-401H604V-521ZM604 -571V-669H663V-571ZM262 -196H186V-427H262ZM547 -215C467 -113 377 -49 291 -22C325 -5 342 12 359 37C456 -14 538 -95 599 -190V-7C599 18 597 47 593 76H674C671 49 669 18 669 -7V-212C704 -109 759 -47 910 31C913 1 927 -22 963 -50C844 -87 781 -129 724 -215C812 -214 909 -212 935 -209V-281C870 -275 789 -272 669 -272V-291C669 -302 674 -309 683 -313C701 -321 696 -330 677 -330C653 -330 618 -332 594 -335C596 -323 597 -299 598 -272C488 -273 412 -276 351 -281V-209C373 -212 465 -215 547 -215ZM808 -552C771 -469 744 -430 721 -411V-541C748 -546 777 -550 808 -552ZM469 -410L399 -405C426 -445 465 -510 499 -572C517 -605 529 -618 545 -623V-377C531 -411 519 -441 505 -481L445 -461C454 -444 462 -427 469 -410ZM421 -539C364 -438 344 -415 326 -406C326 -442 327 -473 332 -495C314 -493 277 -491 242 -491H181C197 -540 214 -618 218 -680C272 -679 313 -676 343 -671V-749C310 -744 264 -741 202 -741C140 -741 94 -744 61 -749V-671C84 -675 114 -678 151 -679C137 -539 96 -429 27 -344C48 -327 64 -308 80 -276C94 -299 106 -322 118 -345V-161C118 -101 116 -58 110 -9H186V-134H262V-59H329C327 -107 326 -140 326 -178V-403C337 -382 343 -364 346 -337C367 -347 391 -354 408 -356L484 -366C488 -351 492 -336 494 -321L553 -345H632C688 -345 710 -344 724 -342C722 -360 721 -375 721 -397C732 -384 738 -365 740 -345C760 -355 778 -361 808 -365L867 -372C871 -356 875 -339 877 -322L944 -349C926 -396 905 -446 882 -491L826 -464C836 -450 844 -434 852 -417L786 -412C814 -450 839 -495 879 -568C900 -606 917 -627 924 -630C942 -637 943 -644 924 -651C900 -660 872 -674 853 -689C849 -662 839 -629 830 -603L773 -600C791 -628 803 -651 823 -694C837 -725 859 -757 869 -762C888 -771 888 -779 865 -785C834 -793 816 -801 793 -815C787 -735 751 -639 721 -601V-635C721 -689 722 -716 724 -732C712 -729 690 -728 651 -728C663 -764 678 -795 687 -802C703 -815 700 -822 679 -823C648 -824 620 -829 599 -836C602 -804 600 -771 593 -728C567 -729 553 -730 542 -732C543 -717 545 -680 545 -641C524 -648 498 -660 478 -675C474 -657 459 -619 447 -590H391C411 -616 431 -647 451 -689C467 -724 480 -743 488 -749C505 -762 501 -769 486 -774C461 -782 434 -794 412 -808C397 -679 342 -607 303 -592C316 -575 323 -549 324 -525C339 -531 362 -536 378 -537Z"/>
</svg>