<svg xmlns="http://www.w3.org/2000/svg" viewBox="0 -1000 1000 1000">
	<path fill="#000000" d="M442 -273C410 -316 385 -355 361 -397L297 -356C323 -318 347 -278 371 -227ZM346 -708C319 -750 297 -795 283 -834L201 -804C224 -767 247 -712 261 -666ZM286 -402C349 -487 401 -579 421 -645C382 -639 326 -636 238 -636C179 -636 122 -640 85 -646V-554C124 -560 160 -563 301 -563C230 -424 122 -327 40 -281C63 -258 81 -235 94 -205C131 -229 171 -266 210 -309V-84C210 -24 209 22 204 83H293C287 24 286 -24 286 -84ZM757 -540V-778C757 -795 763 -804 777 -810C791 -816 788 -826 770 -825C741 -824 705 -826 668 -831C675 -796 677 -761 677 -713V-46H558V-598C558 -611 565 -623 577 -630C588 -636 585 -645 570 -645C543 -645 505 -647 471 -651C478 -614 479 -587 479 -533V-47C436 -48 398 -51 365 -55V39C415 33 470 30 653 30C878 30 921 33 953 39V-55C923 -49 883 -46 757 -46V-465C844 -465 890 -463 928 -459V-546C890 -542 844 -540 757 -540Z"/>
</svg>