<svg xmlns="http://www.w3.org/2000/svg" viewBox="0 -1000 1000 1000">
	<path fill="#000000" d="M420 -290C398 -335 364 -392 338 -428L279 -391C308 -352 331 -308 352 -251ZM294 -715C281 -752 258 -808 237 -848L157 -817C179 -784 197 -742 210 -684ZM275 -433C326 -497 378 -585 401 -656C366 -650 314 -647 236 -647C184 -647 102 -650 70 -656V-572C98 -580 175 -583 288 -583C227 -464 116 -360 39 -316C62 -292 79 -262 84 -235C128 -277 161 -309 199 -349V-91C199 -39 196 11 191 74H275ZM742 -458C741 -580 741 -627 743 -690C835 -703 867 -703 893 -698C916 -694 919 -702 905 -716C886 -735 871 -755 849 -791C719 -750 523 -721 427 -724C432 -695 436 -630 436 -577V-77C436 -37 427 -25 401 -10C421 16 431 35 444 76C464 55 482 43 509 30L643 -35C628 -59 623 -84 625 -129C598 -107 566 -88 513 -60V-389H669C677 -172 746 -6 863 58C915 86 944 70 974 -77C946 -82 926 -92 892 -134C893 -35 879 -33 860 -51C788 -117 748 -215 743 -389C848 -389 900 -387 927 -384V-462C901 -459 848 -458 742 -458ZM513 -458V-660C561 -664 620 -672 666 -679C667 -607 667 -551 668 -458Z"/>
</svg>