<svg xmlns="http://www.w3.org/2000/svg" viewBox="0 -1000 1000 1000">
	<path fill="#000000" d="M922 -26C843 -82 777 -126 701 -169L645 -111C726 -62 784 -19 855 42ZM376 -127C352 -135 321 -154 300 -176C244 -115 177 -62 86 -19C121 -6 142 10 160 31C228 -10 261 -32 287 -53C336 -92 356 -108 366 -110C388 -114 387 -124 376 -127ZM844 -338V-414C765 -409 663 -407 514 -407C367 -407 267 -409 185 -414V-338C266 -342 367 -344 514 -344C663 -344 765 -342 844 -338ZM490 -534H233C235 -560 237 -573 247 -584C255 -593 256 -601 240 -600C224 -599 180 -603 152 -608C156 -583 157 -513 151 -467C230 -473 302 -474 518 -474C734 -474 849 -471 886 -467C881 -519 890 -567 903 -578C915 -588 912 -595 896 -594C880 -593 836 -597 808 -602C811 -577 812 -556 811 -534H571V-648C746 -648 832 -645 864 -641C859 -693 869 -760 882 -771C893 -781 890 -787 875 -786C860 -785 818 -790 792 -795C795 -770 796 -731 795 -709H571V-748C571 -777 577 -795 590 -806C602 -816 599 -822 582 -821C566 -820 509 -822 481 -827C485 -804 489 -762 490 -709H268C270 -735 279 -770 287 -780C295 -790 295 -796 279 -795C265 -794 218 -798 192 -804C196 -779 197 -687 191 -641C260 -647 320 -648 490 -648ZM488 -204V-31C488 -13 469 2 375 -20C403 16 414 41 417 73C549 59 570 37 570 6V-204C735 -204 855 -201 950 -197V-277C843 -272 704 -270 505 -270C306 -270 172 -272 63 -277V-197C166 -202 298 -204 488 -204Z"/>
</svg>