<svg xmlns="http://www.w3.org/2000/svg" viewBox="0 -1000 1000 1000">
	<path fill="#000000" d="M638 -569H784V-478H638ZM364 -478H228V-569H364ZM437 -569H566V-478H437ZM364 -626C299 -628 204 -632 147 -637C153 -606 155 -569 155 -528C155 -488 153 -449 147 -410C252 -417 370 -421 507 -421C643 -421 757 -417 867 -410C861 -437 858 -481 858 -524C858 -567 861 -607 867 -637C808 -631 715 -627 638 -626V-706C773 -706 858 -704 920 -700V-784C833 -776 747 -772 499 -772C276 -772 165 -777 82 -784V-700C142 -703 263 -705 364 -706ZM437 -706H566V-626H437ZM356 -116C332 -122 306 -141 286 -160C237 -96 158 -42 83 -3C113 12 141 32 153 54C197 23 260 -23 291 -55C318 -83 338 -92 354 -97C374 -103 375 -112 356 -116ZM900 -36C823 -80 754 -117 682 -150L637 -87C711 -54 792 -2 848 39ZM543 -174C719 -174 845 -170 922 -164V-249C831 -241 746 -237 502 -237C277 -237 157 -243 82 -249V-164C143 -171 286 -174 463 -174V-34C463 -3 458 -2 350 -12C376 23 389 53 396 86C539 62 543 57 543 -27ZM818 -295V-375C741 -369 644 -365 500 -365C355 -365 261 -369 182 -375V-292C262 -299 355 -303 500 -303C644 -303 739 -300 818 -295Z"/>
</svg>