<svg xmlns="http://www.w3.org/2000/svg" viewBox="0 -1000 1000 1000">
	<path fill="#000000" d="M409 -318C380 -348 352 -382 332 -415L277 -375C306 -344 333 -306 348 -271ZM302 -718C278 -750 250 -799 233 -835L153 -800C172 -767 196 -719 210 -679ZM549 -332H751V-232H549ZM476 -709C451 -711 426 -713 402 -716V-639C426 -642 451 -645 476 -646V-233C439 -234 401 -237 366 -242V-162C415 -168 467 -171 662 -171C857 -171 908 -168 955 -162V-242C915 -236 872 -233 827 -232V-647C861 -646 894 -643 926 -639V-716C894 -712 861 -709 827 -708V-779C827 -793 830 -801 846 -811C857 -818 853 -826 838 -825C810 -823 777 -823 739 -830C745 -809 751 -751 751 -708H549V-774C549 -790 552 -798 562 -806C571 -814 568 -820 555 -819C526 -818 495 -821 466 -826C472 -793 475 -748 476 -709ZM697 -81C751 -50 815 0 861 47L921 -17C884 -49 811 -103 758 -136ZM549 -549V-648H751V-549ZM751 -488V-394H549V-488ZM335 12C365 30 384 47 400 68C500 -16 584 -78 597 -81C607 -83 608 -87 597 -93C570 -108 546 -126 527 -146C479 -82 416 -27 335 12ZM261 -427C304 -489 346 -578 371 -653C335 -647 291 -645 210 -645C156 -645 105 -647 72 -653V-564C103 -569 147 -573 260 -573C203 -443 129 -374 45 -319C65 -291 78 -265 89 -231C125 -265 158 -299 188 -332V-102C188 -50 184 3 176 63H261Z"/>
</svg>