<svg xmlns="http://www.w3.org/2000/svg" viewBox="0 -1000 1000 1000">
	<path fill="#000000" d="M435 -273C411 -315 384 -352 353 -392L297 -357C325 -320 354 -271 376 -225ZM586 -631C562 -688 539 -736 512 -777L440 -743C472 -695 493 -654 511 -592ZM930 -739C903 -752 877 -766 850 -785C829 -725 796 -669 756 -613C780 -606 800 -597 820 -582C901 -702 913 -714 929 -719C944 -725 944 -733 930 -739ZM218 -331V-94C218 -45 215 18 210 78H300C295 18 292 -45 292 -94V-468C351 -468 392 -465 428 -461V-543C391 -538 360 -536 292 -535V-703C370 -723 410 -729 421 -727C438 -724 444 -730 426 -750C418 -759 395 -794 380 -819C342 -798 301 -782 243 -764C204 -752 107 -728 57 -722C72 -703 83 -682 93 -656C121 -661 173 -673 218 -685V-535C139 -535 101 -538 59 -543V-461C98 -465 145 -468 213 -469C176 -335 108 -227 41 -166C61 -142 77 -115 90 -78C143 -157 184 -237 218 -331ZM640 -529C571 -530 507 -532 469 -536C472 -517 474 -473 474 -406V-76C474 -25 472 17 467 72H553V-129H811V-33C811 -3 803 2 722 -1C740 32 749 55 755 84C873 77 890 61 890 11V-406C890 -453 892 -512 896 -536C854 -532 791 -530 717 -529V-753C717 -774 724 -793 736 -804C752 -818 747 -828 728 -827C698 -826 663 -828 633 -833C636 -808 640 -758 640 -713ZM811 -297V-191H553V-297ZM553 -359V-463H811V-359Z"/>
</svg>