<svg xmlns="http://www.w3.org/2000/svg" viewBox="0 -1000 1000 1000">
	<path fill="#000000" d="M819 -149H518V-188H819ZM896 -85C893 -99 892 -136 892 -165V-369C892 -400 893 -436 896 -450C848 -445 806 -444 668 -444C531 -444 490 -445 443 -450C445 -436 447 -400 447 -369V-165C447 -136 445 -100 443 -85C490 -90 531 -90 668 -90C806 -90 848 -90 896 -85ZM819 -246H518V-285H819ZM819 -342H518V-382H819ZM962 15C883 -28 830 -53 750 -86L698 -25C794 13 863 50 905 85ZM635 -30C614 -46 590 -66 573 -86C441 -15 402 0 356 7C380 30 400 56 412 77C482 40 540 12 586 -8C605 -15 623 -17 630 -16C642 -14 646 -22 635 -30ZM629 -694V-645C551 -645 494 -647 445 -649V-585C494 -587 553 -589 629 -589V-545C518 -545 475 -547 410 -551V-481C483 -485 528 -486 680 -486C831 -486 880 -485 950 -481V-551C884 -546 839 -545 704 -545V-589C790 -589 853 -588 895 -585V-649C853 -646 789 -645 704 -645V-694C822 -693 880 -691 933 -685V-757C883 -753 822 -750 704 -749V-778C704 -798 707 -805 720 -814C731 -822 730 -831 710 -830C681 -829 650 -831 621 -835C625 -817 628 -794 629 -749C526 -749 467 -751 414 -757V-685C465 -692 527 -694 629 -694ZM200 -357V-94C200 -45 197 18 192 78H277C272 18 269 -45 269 -94V-366C305 -320 325 -291 341 -258L410 -304C380 -341 352 -378 321 -424L269 -388V-499C315 -498 352 -496 378 -493V-570C352 -567 315 -565 269 -564V-708C331 -723 359 -725 374 -721C390 -717 395 -723 382 -738C368 -754 352 -780 334 -811C293 -786 178 -746 61 -736C81 -713 94 -692 106 -665C134 -672 156 -678 200 -690V-564C143 -564 104 -566 72 -570V-493C100 -497 135 -499 184 -500C159 -396 98 -274 46 -213C70 -192 89 -167 104 -137C143 -205 172 -267 200 -357Z"/>
</svg>