<svg xmlns="http://www.w3.org/2000/svg" viewBox="0 -1000 1000 1000">
	<path fill="#000000" d="M267 -283H189V-372H267ZM404 -283H328V-372H404ZM267 -426H189V-511H267ZM404 -426H328V-511H404ZM187 -168L121 -178C114 -119 100 -53 78 -7L154 4C157 -43 168 -101 187 -168ZM281 -14C274 -58 267 -120 268 -174L204 -170C211 -130 212 -63 207 -12ZM387 -22C372 -83 363 -133 358 -180L295 -171C312 -107 314 -56 311 -16ZM481 -42C465 -93 454 -143 446 -192L380 -181C397 -137 409 -79 412 -31ZM676 -404V-115C676 -66 673 -3 668 57H751C746 -3 743 -66 743 -115V-410C784 -271 838 -164 909 -84C926 -117 945 -139 978 -157C880 -235 816 -333 775 -460C841 -460 892 -457 933 -453V-531C885 -526 825 -523 743 -523V-693C847 -716 873 -719 882 -717C903 -713 906 -721 892 -738C873 -761 863 -775 850 -802C811 -783 775 -770 719 -756C637 -735 582 -726 504 -722C522 -698 530 -680 537 -652C569 -657 596 -662 676 -679V-523C599 -524 542 -526 495 -531V-453C534 -456 583 -459 644 -460C598 -326 527 -194 465 -126C493 -108 508 -94 528 -70C598 -181 640 -272 676 -404ZM214 -669H338L280 -571H147C172 -605 194 -637 214 -669ZM122 -536V-292C122 -266 121 -240 119 -222C165 -224 199 -225 299 -225C398 -225 431 -224 474 -222C472 -241 471 -266 471 -291V-505C471 -529 472 -551 474 -574C437 -572 410 -571 355 -571L463 -733C446 -730 417 -729 360 -729H251C271 -763 285 -785 294 -791C313 -803 312 -811 295 -814C267 -819 246 -825 214 -837C177 -714 106 -610 46 -559C69 -541 83 -529 97 -503C106 -514 114 -525 122 -536Z"/>
</svg>