<svg xmlns="http://www.w3.org/2000/svg" viewBox="0 -1000 1000 1000">
	<path fill="#000000" d="M725 -127H611V-177H725ZM785 -72C783 -86 782 -97 782 -119V-179C782 -198 783 -212 785 -227C760 -226 707 -224 662 -224C608 -224 573 -225 549 -227C551 -212 551 -199 551 -179V-119C551 -100 551 -86 549 -72C573 -74 608 -75 662 -75C707 -75 760 -74 785 -72ZM494 34H834V73H912C907 19 905 -28 905 -86V-252C905 -289 906 -315 908 -341C888 -337 830 -335 667 -335C504 -335 446 -337 423 -341C425 -313 426 -291 426 -252V-85C426 -26 425 24 421 79H494ZM834 -30H494V-274H834ZM635 -678V-538C591 -570 569 -585 536 -604C546 -620 554 -629 561 -633C580 -643 583 -659 561 -660C552 -660 535 -666 517 -678ZM705 -740V-780C705 -790 708 -801 717 -808C731 -819 732 -828 712 -828C684 -827 663 -828 631 -833C634 -816 635 -794 635 -740C537 -740 463 -741 406 -746V-672C434 -677 465 -678 497 -678C480 -605 439 -551 394 -518C411 -507 427 -489 434 -466C463 -493 499 -535 514 -563C541 -540 564 -517 590 -478L635 -522V-449C526 -449 440 -451 379 -457V-379C447 -386 548 -388 677 -388C804 -388 892 -386 961 -379V-457C897 -451 817 -449 705 -449V-678H794C782 -619 750 -556 713 -512C731 -499 743 -481 752 -458C771 -485 794 -524 813 -561C835 -541 851 -517 875 -473L928 -525C894 -562 870 -585 841 -608C849 -618 857 -622 866 -625C884 -631 886 -647 866 -651C850 -654 831 -663 808 -678C859 -678 900 -677 937 -672V-746C880 -740 807 -740 705 -740ZM199 -683V-546C138 -546 92 -548 56 -554V-474C88 -478 127 -480 178 -481C151 -368 101 -259 40 -179C64 -166 80 -148 99 -108C142 -192 166 -255 199 -365V-100C199 -51 197 13 192 72H277C272 13 270 -51 270 -100V-342C298 -312 321 -282 353 -225L416 -272C388 -313 347 -364 313 -397L270 -366V-480C316 -480 354 -478 382 -474V-554C354 -550 316 -547 270 -546V-702C345 -722 366 -725 375 -721C396 -713 409 -726 393 -742C367 -768 357 -784 349 -808C305 -785 280 -776 217 -757C135 -732 99 -725 46 -721C64 -698 72 -678 77 -653C103 -658 139 -667 199 -683Z"/>
</svg>