<svg xmlns="http://www.w3.org/2000/svg" viewBox="0 -1000 1000 1000">
	<path fill="#000000" d="M551 -264L490 -285C482 -239 469 -202 442 -154L495 -133C518 -183 534 -220 551 -264ZM622 -334C657 -333 682 -331 703 -327V-392C675 -387 641 -385 585 -385C530 -385 494 -387 469 -392V-327C490 -331 520 -333 562 -334V-218C562 -191 561 -168 558 -145H590C558 -103 488 -45 432 -22C455 -9 474 7 489 27C527 3 584 -49 624 -98C648 -128 678 -181 688 -206C696 -225 704 -240 709 -244C722 -253 718 -269 704 -271C685 -274 667 -282 651 -292C644 -260 633 -228 622 -202C622 -208 622 -213 622 -218ZM851 -570L797 -541C806 -528 813 -515 821 -494C807 -494 793 -493 779 -493C778 -527 779 -548 780 -571C804 -571 829 -571 851 -570ZM638 -628H525V-753C525 -768 526 -774 535 -780C542 -784 541 -792 533 -792C508 -791 470 -793 448 -797C452 -774 454 -743 454 -697V-629C418 -630 380 -632 353 -635V-565C389 -569 461 -571 511 -571H718C718 -551 718 -528 718 -493H557C486 -493 430 -495 380 -501C390 -200 383 -93 275 -3C305 10 315 25 331 49C432 -57 448 -153 448 -433H719C722 -290 730 -205 741 -143C700 -91 625 -27 565 6C597 19 610 31 626 54C678 11 721 -27 758 -70C777 -2 795 29 819 47C869 86 904 76 954 -82C927 -88 903 -101 882 -129C873 -17 854 -24 834 -54C825 -68 816 -94 806 -135C826 -168 850 -215 881 -282C899 -320 911 -341 918 -347C927 -355 926 -361 917 -364C898 -370 872 -382 848 -398C828 -320 809 -267 791 -228C786 -271 783 -330 781 -433C851 -433 909 -431 932 -428V-500C912 -498 884 -496 851 -495L893 -514C884 -535 873 -553 860 -570C891 -569 918 -567 937 -565V-634C902 -629 820 -628 704 -628V-693H796C836 -693 870 -691 903 -685V-756C869 -753 833 -751 796 -751H704V-783C704 -796 708 -809 711 -813C718 -822 715 -829 706 -828C684 -826 657 -826 631 -830C636 -807 638 -763 638 -728ZM188 -329V-101C188 -52 186 11 181 71H261C256 11 253 -52 253 -101V-384C278 -351 295 -317 309 -277L372 -310C353 -351 331 -388 306 -426L253 -399V-480C299 -479 331 -476 359 -472V-548C331 -543 299 -542 253 -541V-706C330 -729 376 -741 383 -740C400 -738 403 -744 384 -757C367 -769 346 -786 327 -811C290 -789 252 -771 195 -750C163 -738 120 -726 53 -717C68 -695 76 -679 82 -651C112 -661 149 -673 188 -685V-541C136 -541 102 -543 71 -548V-472C98 -476 129 -478 172 -479C141 -350 101 -255 55 -190C75 -163 83 -143 92 -98C134 -169 155 -210 188 -329Z"/>
</svg>