<svg xmlns="http://www.w3.org/2000/svg" viewBox="0 -1000 1000 1000">
	<path fill="#000000" d="M757 -371C735 -402 704 -438 673 -466L603 -421C632 -392 658 -357 681 -320ZM454 -578C435 -589 407 -614 386 -634C328 -565 224 -488 136 -450C167 -433 185 -419 205 -395C420 -548 438 -557 452 -558C475 -560 474 -568 454 -578ZM876 -486C782 -545 689 -593 594 -635L552 -576C651 -531 736 -482 822 -417ZM580 -742C570 -780 556 -814 539 -849L448 -823C461 -796 472 -769 481 -742C280 -742 193 -744 110 -751V-544H191V-675H824V-559H905V-751C837 -746 751 -743 580 -742ZM494 -242H511C583 -68 682 25 873 68C888 27 899 2 923 -40C739 -64 659 -104 569 -242C717 -241 839 -238 922 -232V-318C827 -311 685 -308 510 -308C516 -338 521 -370 523 -403C525 -433 535 -451 549 -462C561 -471 559 -480 544 -480C510 -480 472 -483 434 -488C441 -444 445 -387 429 -308C285 -309 171 -312 88 -318V-232C168 -238 275 -241 412 -242C395 -190 371 -154 326 -118C273 -76 174 -32 70 -11C97 18 116 44 135 78C303 15 400 -60 453 -145C466 -166 481 -200 494 -242Z"/>
</svg>