<svg xmlns="http://www.w3.org/2000/svg" viewBox="0 -1000 1000 1000">
	<path fill="#000000" d="M439 -606C422 -614 397 -631 376 -649C320 -594 234 -542 122 -504C145 -491 167 -471 186 -446C276 -503 413 -579 433 -584C457 -591 457 -599 439 -606ZM868 -526C794 -566 697 -611 616 -643L568 -590C659 -554 753 -507 815 -462ZM486 -741C273 -741 165 -745 97 -751V-571H179V-670H852V-582H933V-751C870 -745 783 -742 585 -741C574 -780 564 -814 553 -851L458 -832C471 -800 480 -772 486 -741ZM402 -374V-86C402 -37 400 14 394 86H494C489 32 487 -9 486 -51H698C753 -51 810 -50 877 -42V-131C807 -124 755 -122 698 -122H486V-212H671C742 -212 795 -210 851 -203V-290C792 -283 743 -281 670 -281H486V-374H701C783 -374 860 -369 899 -365V-453C863 -448 782 -444 702 -444H441C464 -467 480 -481 490 -483C509 -487 510 -497 496 -502C463 -514 430 -529 412 -541C393 -507 367 -470 336 -437C251 -341 176 -284 87 -232C120 -217 141 -200 160 -178C229 -226 292 -283 376 -374Z"/>
</svg>