<svg xmlns="http://www.w3.org/2000/svg" viewBox="0 -1000 1000 1000">
	<path fill="#000000" d="M655 -73C662 -69 668 -65 674 -61L709 -115C676 -136 623 -161 575 -182L544 -129C570 -119 609 -101 641 -81C607 -66 555 -49 514 -37V-247C514 -259 519 -271 526 -278C537 -289 534 -297 518 -294C499 -291 472 -291 438 -295C445 -273 447 -249 447 -189V-57C447 -24 433 -8 395 3C416 29 429 53 440 81C457 66 483 52 506 44L672 -16C666 -27 659 -51 655 -73ZM363 -93L391 -136C358 -158 307 -183 271 -198L237 -148C270 -136 319 -108 350 -87C305 -68 242 -46 209 -35V-246C209 -266 211 -271 221 -277C235 -286 229 -295 213 -293C190 -290 164 -290 130 -294C136 -271 139 -248 139 -188V-56C139 -20 134 -12 90 -3C118 25 137 50 158 81C172 66 192 52 210 44L410 -33C397 -50 388 -74 386 -104C380 -101 372 -97 363 -93ZM956 -73C932 -73 903 -87 878 -109C877 -63 865 -38 852 -38C843 -38 825 -50 818 -77C807 -121 802 -162 802 -232C802 -253 806 -273 813 -281C821 -291 819 -294 805 -293C788 -292 754 -292 726 -298C731 -276 733 -263 734 -236C739 -105 749 -36 794 27C817 59 838 66 857 66C892 66 926 23 956 -73ZM705 -224C671 -245 614 -273 576 -285L543 -235C584 -220 638 -193 673 -169ZM406 -235C373 -257 322 -280 286 -295L253 -246C291 -231 338 -209 372 -185ZM442 -664C428 -677 408 -697 394 -719C323 -682 246 -658 168 -644C186 -623 196 -603 199 -578C316 -621 399 -644 434 -647C452 -649 453 -653 442 -664ZM815 -648C743 -675 647 -698 564 -712L533 -658C616 -642 715 -617 780 -594ZM221 -468V-509C279 -514 332 -521 371 -531C401 -539 429 -542 454 -540C469 -539 475 -543 463 -552C443 -568 422 -596 411 -614C354 -586 220 -556 143 -559C147 -546 150 -525 150 -495V-370C150 -344 147 -323 143 -307C176 -308 337 -310 487 -310C655 -310 793 -308 826 -307C822 -324 820 -341 820 -370V-523C820 -548 822 -570 826 -588C784 -585 734 -583 676 -583C620 -583 574 -585 524 -588V-522C555 -524 585 -524 632 -524H751V-473H634C570 -473 538 -475 521 -478V-414C537 -417 567 -419 634 -419H751V-367H221V-415H334C398 -415 432 -413 448 -410V-473C431 -470 397 -468 334 -468ZM441 -778C263 -778 142 -780 81 -784V-614H157V-724H822L823 -621H904V-784C844 -780 715 -778 540 -778C531 -806 520 -832 508 -854L419 -829C429 -811 436 -795 441 -778Z"/>
</svg>