<svg xmlns="http://www.w3.org/2000/svg" viewBox="0 -1000 1000 1000">
	<path fill="#000000" d="M199 -389H426V-347H199ZM426 -482V-438H199V-482ZM462 -760C248 -760 152 -762 83 -766V-605H158V-700H833V-613H916V-766C851 -762 753 -760 559 -760C553 -786 542 -810 526 -840L421 -818C440 -795 452 -778 462 -760ZM849 -585C775 -623 690 -658 611 -684L567 -633C662 -601 717 -573 802 -516ZM200 -188C201 -70 173 -22 52 24C81 38 99 54 116 73C199 28 240 -18 257 -95H403L394 -55C387 -24 369 -16 288 -30C306 0 312 22 312 55C428 42 453 15 466 -51L486 -154C447 -151 407 -150 357 -150H265C266 -162 266 -175 267 -188H378C412 -188 483 -186 537 -181V-250C494 -246 445 -244 377 -243C369 -262 360 -277 346 -294C438 -294 466 -294 499 -292C497 -312 495 -344 495 -378V-450C495 -482 497 -511 499 -535C479 -532 414 -531 347 -531C358 -547 369 -559 372 -561C383 -566 382 -570 370 -570C354 -571 337 -576 315 -584C401 -614 432 -622 441 -622C465 -622 465 -630 450 -641C440 -648 424 -667 409 -688C337 -650 225 -611 145 -594C162 -577 172 -563 186 -537C230 -554 267 -567 297 -578C290 -562 281 -547 269 -531C208 -531 151 -533 129 -535C131 -511 132 -482 132 -450V-378C132 -343 131 -312 129 -291C162 -293 203 -294 295 -294L260 -280C276 -267 285 -255 292 -243C191 -243 126 -245 69 -250V-181C114 -185 163 -187 200 -188ZM622 -396H772C765 -305 735 -225 695 -167C669 -203 651 -250 639 -318L584 -306C596 -330 607 -357 622 -396ZM575 -288C598 -206 623 -155 654 -115C590 -46 537 -14 445 19C471 33 494 53 509 76C578 41 640 -3 700 -66C752 -18 830 35 906 67C912 40 930 4 957 -22C857 -39 798 -69 743 -117C793 -187 829 -284 840 -395C873 -395 900 -393 922 -391V-465C884 -460 843 -457 789 -457H645C662 -503 669 -512 678 -520C694 -533 693 -539 677 -543C657 -548 627 -559 600 -571C577 -447 543 -346 489 -274C514 -270 537 -265 557 -258C564 -269 570 -279 575 -288Z"/>
</svg>