<svg xmlns="http://www.w3.org/2000/svg" viewBox="0 -1000 1000 1000">
	<path fill="#000000" d="M528 -531V-600H794V-531ZM528 -660V-725H794V-660ZM203 -212C192 -299 184 -394 179 -479L99 -467C116 -399 124 -313 124 -204ZM401 -547V-634C365 -630 321 -628 238 -628C170 -628 114 -629 74 -634V-547C117 -554 174 -555 238 -555C316 -555 362 -551 401 -547ZM293 -699C273 -736 257 -787 247 -825L158 -799C178 -759 192 -710 197 -672ZM233 -134C175 -122 119 -114 55 -108C68 -73 77 -43 80 -12C182 -53 337 -94 395 -105C390 -131 391 -151 399 -182C364 -170 331 -160 300 -151C345 -419 356 -449 371 -470C379 -481 378 -484 365 -485C335 -487 307 -495 275 -506C276 -410 260 -248 233 -134ZM517 -329H634C615 -250 585 -211 528 -158C552 -148 575 -134 592 -121C616 -149 641 -183 662 -219C696 -189 732 -153 755 -125L812 -186C777 -210 734 -243 693 -280C700 -296 706 -313 711 -329H839L833 -61C832 -20 822 -15 739 -17C767 39 771 61 768 80C894 57 916 24 916 -60L920 -403C897 -399 844 -393 795 -393H567C584 -416 600 -440 616 -467C750 -467 826 -466 871 -464C869 -503 868 -569 868 -631C868 -694 869 -759 871 -796C825 -791 805 -790 661 -790C517 -790 497 -791 452 -796C454 -760 455 -694 455 -631C455 -569 454 -503 452 -464C477 -466 496 -467 538 -467C477 -374 422 -320 346 -261C379 -247 397 -233 409 -214C421 -225 433 -237 445 -249C446 -229 447 -209 447 -189V-70C447 -39 447 -22 445 -9C465 -10 521 -11 582 -11C644 -11 708 -10 725 -9V-85C710 -81 677 -79 647 -79H517V-199C517 -218 520 -241 528 -249C536 -257 534 -262 522 -261C506 -259 479 -260 458 -262C478 -283 498 -305 517 -329Z"/>
</svg>