<svg xmlns="http://www.w3.org/2000/svg" viewBox="0 -1000 1000 1000">
	<path fill="#000000" d="M592 -227C515 -222 442 -218 442 -218C430 -247 430 -267 438 -286C445 -305 437 -309 425 -304C417 -300 379 -301 348 -306L491 -338C526 -315 575 -297 631 -285L550 -273C568 -256 581 -242 592 -227ZM203 -670H279C296 -633 306 -607 315 -573L363 -593C367 -569 372 -545 379 -522L178 -509C143 -507 120 -507 86 -510L92 -437C124 -444 151 -448 194 -451L399 -465C411 -434 426 -407 441 -386C256 -347 196 -341 112 -341C129 -322 142 -298 156 -270C215 -280 277 -291 341 -304C346 -277 356 -244 368 -213L179 -202C137 -199 114 -199 87 -203L96 -123C128 -130 155 -134 198 -137L395 -151C411 -122 439 -93 472 -67C312 -26 198 -7 110 -8C131 17 136 26 154 63C303 37 416 12 536 -23C622 27 727 62 806 64C866 65 901 39 938 -64C905 -75 879 -90 852 -112C842 -23 823 -6 776 -10C723 -14 668 -27 619 -49C644 -57 670 -66 697 -75C755 -95 783 -101 794 -100C807 -99 810 -103 797 -113C790 -118 765 -145 746 -171C677 -133 624 -110 549 -88C520 -108 495 -131 476 -157L774 -178C818 -181 856 -183 889 -183L882 -257C850 -247 809 -240 772 -238L665 -231C661 -247 655 -261 642 -283C684 -275 729 -270 774 -269C828 -268 856 -287 887 -364C851 -376 834 -386 806 -407C802 -342 781 -324 694 -337C649 -344 613 -351 583 -362C626 -373 667 -385 706 -397C780 -420 792 -424 803 -423C818 -422 821 -431 806 -437C794 -442 755 -464 734 -482C684 -452 611 -425 514 -402C496 -420 482 -442 470 -470L744 -489C785 -492 827 -494 860 -494L856 -559C823 -552 786 -548 741 -545L682 -541C675 -565 664 -588 648 -614L576 -589C593 -570 604 -555 615 -537L451 -526C444 -557 446 -572 452 -583C462 -600 455 -606 439 -600C425 -595 399 -593 371 -597L391 -606C376 -633 367 -647 349 -670C452 -669 481 -667 514 -664V-733C478 -728 442 -725 297 -725H238C262 -760 274 -768 290 -775C304 -781 303 -785 289 -788C257 -795 234 -803 206 -816C158 -711 119 -655 53 -591C78 -580 96 -570 117 -553C144 -582 173 -621 203 -670ZM607 -677H675C702 -631 715 -603 723 -576L801 -605C783 -634 771 -654 752 -677C853 -676 895 -673 920 -670V-743C889 -739 841 -735 700 -735H649C668 -757 688 -777 695 -779C715 -786 711 -795 694 -796C677 -797 637 -810 610 -824C559 -704 529 -665 471 -616C496 -603 509 -595 531 -576C560 -609 588 -646 607 -677Z"/>
</svg>