<svg xmlns="http://www.w3.org/2000/svg" viewBox="0 -1000 1000 1000">
	<path fill="#000000" d="M487 -110H349V-192H487ZM419 -251C355 -251 317 -252 283 -256C286 -229 287 -191 287 -151C287 -111 285 -73 282 -43C316 -46 355 -48 419 -48C483 -48 522 -46 555 -42C552 -70 550 -111 550 -152C550 -192 552 -230 555 -256C521 -252 483 -251 419 -251ZM565 -311V-385C530 -380 490 -377 426 -377C361 -377 324 -379 290 -385V-311C322 -316 362 -319 427 -319C491 -319 528 -316 565 -311ZM238 -674H273C288 -635 298 -592 300 -564L379 -572C368 -604 354 -639 336 -674C413 -674 447 -671 478 -667V-739C448 -734 413 -731 329 -731H277C306 -772 320 -784 332 -789C345 -794 344 -800 331 -803C303 -809 271 -819 239 -832C193 -728 137 -638 49 -573C82 -565 106 -551 122 -530C157 -562 200 -617 238 -674ZM616 -687H685C709 -653 728 -619 737 -592L809 -627C795 -645 776 -665 753 -687C835 -687 876 -684 911 -680V-751C875 -747 831 -744 742 -744H650C669 -773 684 -790 690 -793C705 -800 703 -807 689 -808C660 -811 620 -820 596 -831C560 -729 512 -651 449 -590C479 -581 497 -569 513 -549C552 -589 581 -628 616 -687ZM729 -561C742 -545 752 -531 758 -515L832 -544C825 -558 813 -579 803 -595ZM600 -443C622 -306 641 -225 667 -149C590 -53 545 -21 448 17C477 35 496 56 507 77C570 43 642 -14 697 -75C714 -40 736 -3 752 13C853 113 897 98 950 -74C926 -78 902 -92 877 -118C859 7 849 14 793 -60C783 -73 768 -99 750 -141C773 -175 794 -214 820 -271C842 -319 859 -343 869 -346C885 -350 887 -366 871 -368C838 -372 816 -384 789 -401C781 -350 748 -274 719 -222C705 -267 690 -331 674 -443C774 -442 861 -439 914 -434V-516C867 -511 793 -508 665 -507C662 -546 664 -561 670 -567C685 -584 683 -592 663 -590C641 -588 608 -591 583 -600C583 -565 585 -542 590 -507C322 -507 215 -510 161 -516C168 -383 169 -325 162 -256C148 -119 110 -17 46 25C80 29 107 39 131 56C229 -73 239 -176 239 -443Z"/>
</svg>