<svg xmlns="http://www.w3.org/2000/svg" viewBox="0 -1000 1000 1000">
	<path fill="#000000" d="M463 -253C427 -300 400 -339 374 -381L313 -339C346 -294 368 -258 394 -206ZM651 -168C636 -272 616 -402 598 -518L514 -505C538 -391 559 -252 560 -154ZM935 -569V-658C886 -652 854 -650 698 -650C541 -650 513 -652 463 -658V-569C512 -576 542 -577 698 -577C856 -577 886 -576 935 -569ZM167 -583C155 -633 143 -691 136 -737L67 -726C80 -671 88 -622 91 -566ZM460 -727C472 -736 469 -742 459 -741C447 -739 398 -743 369 -750C366 -695 351 -641 331 -583C356 -586 381 -583 401 -578C421 -657 443 -716 460 -727ZM752 -693C735 -742 717 -806 710 -840L616 -814C632 -772 647 -723 658 -670ZM220 -512C140 -512 109 -512 57 -516V-438C105 -442 134 -442 203 -442C157 -319 93 -200 33 -138C57 -118 77 -93 93 -64C143 -138 174 -200 220 -325V-85C220 -24 218 22 212 75H305C299 22 297 -23 297 -85V-442C360 -442 388 -441 435 -438V-516C388 -513 360 -512 297 -512V-761C297 -778 301 -789 312 -798C328 -811 325 -815 302 -815C277 -815 240 -819 213 -826C217 -794 220 -748 220 -692ZM670 -57H583C471 -57 436 -59 381 -65V28C437 21 483 20 667 20C855 20 902 22 958 28V-64C907 -58 853 -57 752 -57C839 -458 844 -477 870 -495C883 -504 881 -510 868 -510C844 -510 789 -522 756 -532C750 -418 717 -215 670 -57Z"/>
</svg>