<svg xmlns="http://www.w3.org/2000/svg" viewBox="0 -1000 1000 1000">
	<path fill="#000000" d="M566 -719C559 -565 495 -485 353 -426C376 -409 395 -390 408 -369C566 -448 625 -540 639 -719H732C727 -620 723 -574 719 -539C712 -479 705 -476 626 -477C645 -446 653 -426 659 -396C778 -423 784 -431 792 -518C802 -624 804 -652 813 -792C778 -786 722 -783 604 -783C481 -783 433 -786 395 -792V-710C432 -716 463 -719 566 -719ZM346 -286C330 -324 315 -353 301 -375L225 -344C244 -317 260 -289 274 -254ZM314 -485C302 -506 291 -532 286 -553C254 -522 224 -497 195 -478C142 -444 116 -429 85 -414C109 -389 123 -367 141 -335C168 -365 179 -375 227 -416C284 -465 299 -476 314 -485ZM942 -528C919 -581 902 -615 872 -667L813 -638C836 -598 857 -544 869 -495ZM471 -662L408 -668C405 -622 394 -583 372 -538L446 -530C458 -575 466 -614 471 -662ZM241 -603C202 -632 164 -654 116 -675L76 -610C120 -593 162 -571 204 -541ZM323 -744C288 -768 241 -797 191 -823L147 -765C199 -738 234 -712 274 -677ZM538 -248V-329C538 -344 541 -354 549 -359C562 -368 561 -378 543 -375C529 -373 480 -371 455 -373C458 -354 460 -297 460 -248C285 -249 185 -253 94 -260V-179C179 -183 275 -184 371 -184C299 -107 189 -49 62 -13C89 4 120 33 134 52C274 -8 368 -79 443 -184H460V-5C460 20 458 49 454 78H543C540 51 538 20 538 -5V-184H544C610 -54 752 13 873 32C880 1 893 -26 919 -60C781 -68 681 -101 611 -184C720 -184 820 -183 908 -179V-260C846 -255 778 -251 689 -249C747 -323 755 -328 768 -331C782 -335 780 -345 768 -348C740 -355 715 -365 690 -381C684 -359 674 -335 618 -248Z"/>
</svg>