<svg xmlns="http://www.w3.org/2000/svg" viewBox="0 -1000 1000 1000">
	<path fill="#000000" d="M377 -238C355 -293 346 -312 322 -361L274 -335C297 -282 304 -263 323 -208ZM169 -569C162 -625 156 -673 150 -728L86 -720C99 -666 104 -620 100 -555ZM405 -718C417 -726 415 -732 404 -733C389 -734 359 -743 335 -754C330 -701 311 -615 289 -561C311 -562 326 -560 348 -555C384 -683 395 -711 405 -718ZM207 -500C131 -500 115 -500 81 -504V-433C114 -437 129 -437 198 -437C147 -306 111 -239 43 -173C64 -155 83 -130 98 -102C147 -187 174 -241 207 -330V-89C207 -28 205 18 200 71H283C276 19 271 -27 271 -89V-437C325 -437 340 -436 368 -433V-504C339 -501 326 -500 271 -500V-754C271 -773 277 -788 288 -795C307 -807 302 -814 279 -812C262 -811 225 -814 199 -819C204 -795 207 -741 207 -685ZM728 -548V-707H847V-548ZM728 -320V-489H847V-320ZM553 -185H457V-364H553ZM480 -421C423 -421 413 -422 393 -425C395 -405 396 -393 396 -351V-153C396 -110 394 -67 391 -25H457V-128H553V-75H613C591 -28 560 12 516 43C545 48 576 64 595 82C674 0 717 -125 726 -261H847V-104C847 -16 834 7 753 -10C771 23 781 52 784 75C910 55 916 41 916 -68V-648C916 -709 917 -747 919 -774C887 -771 837 -770 794 -770C750 -770 690 -771 658 -774C660 -747 661 -709 661 -648V-346C661 -249 650 -157 616 -81C615 -112 615 -127 615 -168V-351C615 -389 616 -409 618 -425C603 -423 585 -422 542 -421V-561C589 -561 612 -559 642 -555V-624C614 -620 590 -618 542 -618V-758C542 -781 551 -799 572 -810C582 -815 580 -825 567 -824C548 -823 503 -827 475 -833C479 -809 480 -778 480 -618C438 -619 416 -620 388 -624V-555C415 -559 436 -560 480 -561Z"/>
</svg>