<svg xmlns="http://www.w3.org/2000/svg" viewBox="0 -1000 1000 1000">
	<path fill="#000000" d="M728 -686H832C835 -536 824 -292 813 -129C807 -41 797 -33 687 -46C724 -12 737 26 736 69C864 29 895 4 897 -101C905 -452 912 -596 922 -768C875 -761 823 -759 682 -759C566 -759 521 -762 484 -768V-676C530 -683 590 -686 645 -686C648 -537 645 -438 640 -385C623 -208 561 -71 416 27C455 36 480 49 508 71C647 -69 704 -193 721 -405C728 -476 730 -599 728 -686ZM154 -187L87 -182C89 -114 80 -57 63 2L147 7C159 -50 161 -130 154 -187ZM315 -12C313 -73 300 -148 286 -198L219 -191C231 -141 238 -76 231 -2ZM466 -36C456 -97 439 -166 424 -213L353 -207C376 -142 383 -92 382 -26ZM577 -580H502C505 -456 499 -414 476 -341L562 -333C576 -424 578 -467 577 -580ZM251 -478C223 -436 192 -394 164 -360C136 -326 129 -320 82 -315C93 -287 98 -256 100 -222C116 -229 142 -237 171 -242L385 -278C387 -264 389 -248 391 -229L476 -255C461 -308 433 -380 409 -425L339 -410C355 -380 365 -357 373 -334L213 -316C244 -354 407 -567 419 -584C435 -606 452 -622 460 -624C472 -628 474 -636 461 -642C447 -648 397 -681 376 -697C362 -661 327 -592 298 -547L153 -537C212 -622 266 -702 277 -720C291 -742 302 -756 315 -762C332 -770 333 -775 311 -785C295 -792 261 -811 230 -832C196 -746 174 -697 142 -643C97 -567 88 -559 47 -547C61 -518 67 -483 67 -453C90 -458 122 -463 141 -465Z"/>
</svg>