<svg xmlns="http://www.w3.org/2000/svg" viewBox="0 -1000 1000 1000">
	<path fill="#000000" d="M913 -32C833 -82 773 -117 702 -154L648 -99C728 -57 790 -13 854 40ZM371 -104C351 -115 326 -131 303 -152C232 -91 181 -61 99 -27C128 -9 147 11 161 34C332 -75 355 -86 367 -87C383 -88 386 -95 371 -104ZM493 -357C342 -265 269 -246 172 -239C182 -217 187 -198 190 -171C261 -178 313 -180 483 -187V-38C483 -14 464 -3 383 -7C400 24 411 46 419 78C551 61 560 52 560 -9V-190L780 -200C791 -187 802 -173 812 -158L879 -210C825 -262 778 -301 722 -345L662 -312C684 -296 705 -279 725 -260C608 -251 501 -246 380 -241C464 -275 543 -315 620 -358C689 -397 727 -412 743 -413C772 -415 773 -423 748 -433C723 -443 700 -456 672 -477C647 -456 612 -432 572 -407C509 -402 450 -399 382 -398C506 -482 521 -487 540 -488C567 -489 566 -499 544 -506C526 -511 507 -519 488 -529H840V-427H918V-601C850 -597 762 -595 553 -595V-683C693 -682 794 -679 873 -673V-758C794 -753 693 -750 553 -749V-785C553 -802 559 -816 572 -827C584 -837 581 -843 565 -842C533 -841 494 -843 466 -848C469 -827 471 -788 472 -749C327 -749 226 -752 143 -758V-673C224 -679 327 -683 472 -683V-595C260 -595 172 -597 104 -601V-411H180V-529H445C379 -453 316 -419 230 -391C239 -371 244 -356 248 -334C279 -340 311 -342 386 -348Z"/>
</svg>