<svg xmlns="http://www.w3.org/2000/svg" viewBox="0 -1000 1000 1000">
	<path fill="#000000" d="M635 -585C633 -536 630 -487 625 -444C613 -339 567 -246 514 -190C543 -180 568 -165 585 -150C624 -207 657 -272 677 -352C706 -298 726 -251 748 -175L826 -211C793 -284 760 -342 694 -443C697 -470 700 -508 703 -585H840V-56C840 -19 826 -7 741 -21C763 16 767 29 765 72C896 57 913 37 913 -47V-524C913 -586 914 -633 916 -659C889 -653 856 -651 706 -651C706 -675 707 -703 708 -733C709 -775 715 -799 726 -815C736 -830 732 -833 720 -832C691 -829 658 -829 628 -831C635 -804 638 -733 637 -651C492 -651 458 -653 431 -659C434 -638 435 -581 435 -524V-161C435 -80 430 0 424 70H508V-585ZM169 -172L102 -187C95 -98 86 -60 53 6L125 24C146 -35 160 -98 169 -172ZM281 2C276 -69 266 -143 256 -189L195 -180C205 -137 210 -60 209 9ZM402 -14C395 -70 376 -149 360 -193L298 -181C316 -131 329 -56 334 2ZM228 -483C199 -436 164 -385 134 -347C108 -313 92 -303 55 -300C63 -276 71 -228 72 -205C91 -215 126 -226 146 -229L336 -261C341 -247 347 -231 352 -213L422 -242C408 -279 384 -331 348 -396L285 -369C297 -349 306 -332 314 -315L177 -292C237 -375 284 -445 365 -563C382 -588 396 -601 403 -604C416 -610 417 -618 404 -623C389 -629 344 -652 323 -668C316 -642 301 -606 267 -547L153 -531C198 -603 239 -674 264 -719C281 -750 297 -769 314 -775C328 -780 329 -790 313 -793C285 -799 266 -809 226 -835C204 -766 155 -658 121 -598C95 -553 87 -546 51 -537C62 -513 72 -476 76 -443C92 -452 110 -458 123 -461Z"/>
</svg>