<svg xmlns="http://www.w3.org/2000/svg" viewBox="0 -1000 1000 1000">
	<path fill="#000000" d="M716 -394H819V-244H716ZM541 -394H649V-244H541ZM571 -709C566 -600 505 -539 377 -512C403 -493 429 -466 438 -438C448 -443 458 -448 468 -452C470 -432 471 -411 471 -372V-67C471 27 493 46 608 48C680 50 729 50 811 50C903 50 938 27 969 -94C933 -98 916 -104 884 -125C877 -36 865 -23 768 -20C714 -18 664 -17 607 -20C559 -23 541 -35 541 -70V-184H775C847 -184 881 -183 895 -180C893 -196 891 -242 891 -268V-374C891 -417 892 -440 895 -461C876 -456 843 -455 689 -455C547 -455 504 -456 481 -459C586 -513 631 -574 645 -710H834C831 -661 825 -628 818 -605C807 -568 781 -558 678 -582C696 -560 706 -531 709 -498C823 -490 876 -521 891 -593C903 -651 914 -738 915 -779C865 -772 808 -770 698 -770C575 -770 454 -773 416 -779V-701C453 -705 508 -708 571 -709ZM165 -175L99 -176C94 -115 77 -40 53 20L135 26C152 -34 165 -122 165 -175ZM305 3C296 -63 283 -129 267 -185L208 -178C220 -124 225 -46 224 18ZM442 -15C426 -77 405 -145 383 -197L320 -179C340 -130 357 -55 365 3ZM228 -489C193 -434 155 -381 125 -348C97 -318 74 -305 49 -303C64 -278 74 -240 74 -215C100 -234 134 -247 160 -251L348 -284C355 -267 361 -249 368 -228L438 -265C415 -312 380 -367 347 -413L295 -382C307 -365 317 -349 325 -333L175 -319C224 -382 323 -512 349 -552C360 -569 377 -586 389 -590C407 -596 408 -605 392 -610C371 -616 340 -637 319 -659C309 -630 289 -590 264 -548L135 -541C179 -599 224 -664 269 -747C277 -762 287 -777 297 -781C318 -789 316 -797 294 -799C276 -801 247 -812 212 -835C193 -765 167 -706 107 -602C84 -562 72 -547 58 -546C70 -525 81 -493 86 -465C101 -471 120 -477 138 -479Z"/>
</svg>