<svg xmlns="http://www.w3.org/2000/svg" viewBox="0 -1000 1000 1000">
	<path fill="#000000" d="M162 -183L91 -185C92 -132 75 -32 56 20L147 22C153 -26 161 -124 162 -183ZM304 -12C301 -61 291 -141 281 -187L207 -180C217 -134 223 -58 220 0ZM440 -40C435 -81 417 -153 401 -196L325 -182C344 -132 358 -73 362 -22ZM565 -462C555 -509 536 -575 516 -630L448 -614C466 -569 483 -485 484 -439ZM917 -626L830 -665C814 -602 775 -505 744 -460L817 -422C855 -509 891 -581 917 -626ZM719 -483C709 -526 686 -601 669 -644L601 -626C617 -586 636 -514 641 -459ZM934 -725C915 -741 897 -761 864 -804C810 -780 758 -770 648 -758C566 -749 455 -741 402 -747C423 -721 434 -699 441 -672C518 -676 624 -686 803 -709C860 -716 899 -715 927 -709C944 -705 948 -713 934 -725ZM761 -108C783 -144 818 -215 839 -284C877 -283 914 -281 948 -276V-356C903 -350 854 -347 803 -347H657C671 -377 681 -392 689 -397C702 -406 702 -412 687 -415C660 -421 643 -426 607 -440C602 -411 595 -387 579 -347C511 -347 464 -350 420 -356V-276C462 -282 506 -285 552 -285C521 -215 503 -185 480 -152C535 -135 589 -113 642 -88C587 -43 504 -11 397 9C427 29 448 52 457 81C573 42 651 3 711 -53C776 -17 836 25 890 73C901 40 919 13 949 -9C887 -45 823 -78 761 -108ZM629 -285H759C744 -225 721 -178 693 -140C655 -157 618 -173 585 -186ZM332 -308L194 -300C261 -380 295 -424 371 -531C383 -547 396 -559 412 -567C427 -574 426 -581 408 -588C381 -598 359 -612 333 -637C327 -615 310 -577 285 -534L163 -526C214 -595 274 -697 290 -731C301 -755 314 -769 328 -776C343 -783 340 -794 323 -797C293 -803 266 -814 238 -830C230 -783 205 -717 158 -634C113 -555 93 -539 57 -534C69 -507 78 -476 76 -442C101 -450 124 -455 157 -460L249 -475C221 -430 187 -384 154 -347C132 -322 110 -310 73 -309C87 -279 93 -252 90 -220C120 -230 145 -236 189 -240L349 -256C353 -241 358 -225 361 -211L432 -233C419 -279 391 -353 369 -401L305 -377C314 -358 324 -333 332 -308Z"/>
</svg>