<svg xmlns="http://www.w3.org/2000/svg" viewBox="0 -1000 1000 1000">
	<path fill="#000000" d="M224 -489C146 -359 93 -325 51 -312C64 -280 71 -257 75 -228C99 -242 120 -248 176 -259L333 -291C339 -271 344 -253 347 -239L413 -265C398 -318 380 -369 356 -422L291 -398C299 -384 308 -364 316 -343L183 -320C244 -406 302 -497 350 -576C367 -604 377 -613 388 -616C402 -620 403 -628 388 -635C361 -647 338 -659 312 -677C305 -653 282 -597 257 -549L151 -545C253 -738 286 -783 300 -788C313 -793 314 -802 294 -806C267 -812 241 -822 210 -836C187 -747 166 -699 116 -609C83 -549 69 -540 50 -532C65 -506 73 -486 80 -450C109 -468 144 -478 224 -489ZM161 -190L91 -192C90 -143 76 -32 57 26L139 33C150 -31 159 -131 161 -190ZM285 19C282 -62 276 -139 268 -196L203 -193C211 -142 214 -64 211 22ZM417 -3C404 -90 392 -160 381 -210L315 -201C331 -147 340 -70 342 9ZM597 -767C614 -773 612 -782 594 -787C575 -793 548 -804 512 -823C500 -787 484 -749 457 -694C439 -658 419 -625 402 -601C446 -543 474 -495 512 -416C538 -438 558 -453 584 -468C552 -517 524 -555 477 -609C569 -744 585 -763 597 -767ZM770 -476C720 -537 692 -571 652 -612C730 -745 744 -763 763 -765C780 -767 778 -780 760 -785C733 -792 709 -803 676 -822C667 -784 651 -743 622 -682C604 -646 593 -627 579 -606C627 -552 663 -498 695 -423C724 -446 742 -459 770 -476ZM944 -480C898 -536 861 -576 813 -617C875 -720 912 -761 928 -767C943 -773 941 -782 925 -788C901 -797 879 -808 844 -827C831 -780 819 -752 787 -691C769 -655 754 -630 741 -611C797 -554 838 -497 875 -427C900 -449 918 -461 944 -480ZM838 -51H715V-164H838ZM517 14H838V69H919C910 17 906 -27 906 -82V-322C906 -369 907 -391 912 -412C871 -409 836 -408 678 -408C519 -408 487 -409 443 -412C447 -387 448 -364 448 -322V-78C448 -23 445 18 436 73H517ZM517 -164H645V-51H517ZM645 -344V-228H517V-344ZM838 -228H715V-344H838Z"/>
</svg>