<svg xmlns="http://www.w3.org/2000/svg" viewBox="0 -1000 1000 1000">
	<path fill="#000000" d="M807 -384H525V-456H807ZM175 -195L111 -198C106 -147 87 -68 67 -9L144 8C162 -71 172 -139 175 -195ZM281 -12C284 -71 281 -123 268 -206L206 -202C213 -153 213 -67 203 -11ZM412 -27C400 -99 386 -160 369 -214L307 -207C322 -142 331 -74 333 -11ZM471 -205C462 -151 450 -101 433 -59C462 -61 580 -63 654 -64C654 -20 651 35 647 88H733C729 35 727 -20 727 -64C843 -64 892 -63 925 -60V-138C889 -132 825 -128 727 -128V-209C813 -209 893 -206 951 -200V-280C897 -275 822 -272 727 -271V-325C792 -325 836 -324 876 -322C875 -353 874 -381 874 -422C874 -452 875 -496 876 -519C824 -516 767 -515 666 -515C566 -515 507 -516 455 -519C458 -492 460 -455 460 -421C460 -385 458 -351 455 -323C493 -324 561 -325 654 -325V-271C519 -271 466 -274 415 -280V-200C434 -202 453 -204 471 -205ZM654 -209V-128H529C531 -155 534 -172 546 -209ZM298 -349L162 -329C225 -406 268 -463 355 -586C364 -598 373 -610 378 -612C396 -620 393 -628 381 -633C360 -642 333 -660 311 -679C301 -648 284 -611 252 -555L139 -548C175 -601 203 -646 234 -701C263 -753 282 -776 304 -785C320 -792 321 -802 300 -809C270 -819 239 -834 215 -849C209 -803 174 -723 115 -613C94 -573 74 -555 49 -546C62 -526 72 -497 76 -464C95 -471 116 -476 135 -479L211 -489C185 -450 160 -416 133 -384C104 -349 86 -338 51 -330C70 -303 80 -277 87 -240C103 -250 122 -257 145 -261L316 -293C320 -276 324 -260 327 -245L402 -268C389 -313 362 -383 336 -434L270 -413C279 -396 289 -374 298 -349ZM627 -690H773L768 -618H608ZM565 -747C497 -748 457 -750 419 -754V-681C453 -684 500 -687 553 -689L539 -618C487 -619 438 -623 395 -627V-549C436 -554 499 -558 674 -558C843 -558 900 -555 953 -549V-627C918 -623 883 -620 845 -619L859 -754C811 -749 759 -747 642 -747C652 -780 665 -809 673 -819C681 -828 680 -832 667 -832C640 -832 597 -836 575 -840C577 -819 576 -807 565 -747Z"/>
</svg>