<svg xmlns="http://www.w3.org/2000/svg" viewBox="0 -1000 1000 1000">
	<path fill="#000000" d="M232 -517C199 -467 163 -422 127 -385C112 -370 93 -361 66 -359C79 -333 91 -295 95 -270C112 -277 130 -281 170 -286L334 -307C339 -288 342 -269 343 -255L418 -276C405 -329 378 -412 352 -466L284 -443C294 -429 307 -396 319 -360L180 -350C245 -427 303 -500 345 -563C365 -593 385 -617 399 -621C417 -627 418 -635 402 -643C387 -650 366 -664 332 -691C312 -651 291 -612 269 -575L153 -570C199 -635 244 -702 276 -756C285 -772 294 -779 300 -781C319 -789 319 -794 301 -802C283 -809 242 -829 217 -842C183 -745 152 -680 108 -609C96 -589 88 -583 61 -578C74 -551 86 -509 88 -485C107 -491 126 -496 157 -502ZM159 -221L87 -224C84 -162 69 -77 46 -14L131 -8C137 -77 148 -162 159 -221ZM283 -60C275 -113 268 -173 265 -223L193 -217C205 -167 209 -106 204 -46ZM408 -109C397 -159 383 -211 370 -247L305 -231C322 -184 335 -141 340 -87ZM895 -762C878 -782 861 -803 846 -822C792 -801 717 -783 639 -772C543 -759 464 -756 399 -758C411 -737 419 -717 424 -689C532 -694 626 -703 719 -719C845 -741 861 -743 884 -742C905 -741 908 -746 895 -762ZM687 -108C647 -138 611 -175 585 -222H768C742 -165 724 -139 687 -108ZM570 -473C568 -451 564 -429 560 -408C500 -409 452 -413 414 -418V-335C449 -342 491 -344 545 -345C535 -312 523 -282 511 -258C444 -127 404 -78 303 -9C334 4 357 19 374 37C461 -41 497 -89 546 -179C567 -135 595 -98 630 -66C579 -33 529 -13 440 9C464 25 489 51 504 72C574 45 628 17 684 -25C741 13 813 44 900 72C909 32 925 4 944 -18C858 -27 806 -41 745 -73C795 -118 826 -167 874 -288C856 -286 804 -284 772 -284H598C605 -303 612 -323 617 -345H759C832 -345 886 -342 932 -335V-418C890 -411 833 -408 759 -408H632C636 -430 640 -452 643 -473H753C810 -473 876 -469 899 -466V-542C884 -539 851 -537 815 -535C859 -630 871 -646 882 -653C899 -663 897 -668 880 -673C858 -680 839 -688 796 -710C788 -659 783 -633 748 -534H569C511 -534 451 -537 423 -542V-466C446 -471 512 -474 569 -473ZM559 -571C551 -609 541 -642 527 -672L451 -652C468 -622 477 -589 482 -551ZM700 -574C696 -614 687 -649 675 -683L602 -668C612 -637 620 -598 623 -559Z"/>
</svg>