<svg xmlns="http://www.w3.org/2000/svg" viewBox="0 -1000 1000 1000">
	<path fill="#000000" d="M152 -183L87 -184C86 -137 74 -60 56 -6L130 -1C142 -47 152 -124 152 -183ZM263 -24C257 -107 251 -149 241 -191L185 -183C195 -134 199 -73 196 -15ZM231 -502C209 -470 182 -430 145 -379C119 -343 94 -323 68 -316C79 -289 87 -256 89 -229C103 -236 116 -239 149 -245L303 -274C307 -258 310 -241 311 -223L381 -244C370 -291 345 -360 321 -408L258 -385C269 -369 280 -349 288 -326L163 -312C210 -369 295 -482 331 -539C352 -572 368 -590 383 -594C401 -598 399 -609 385 -615C364 -624 335 -644 315 -662C301 -625 288 -596 269 -563L153 -557C254 -726 286 -768 307 -776C321 -781 322 -790 299 -796C261 -806 244 -814 216 -831C199 -764 189 -743 139 -648C107 -587 95 -575 66 -564C79 -541 87 -509 87 -479C101 -487 118 -491 149 -494ZM860 -383H749V-474H860ZM860 -239H749V-324H860ZM749 -181H860V-46C860 -10 854 -7 774 -19C789 3 802 33 803 63C916 42 925 32 925 -28V-439C925 -485 926 -515 928 -537C891 -535 855 -534 805 -534C754 -534 720 -535 683 -537C685 -515 687 -475 687 -429V-265C687 -103 670 -39 596 47C623 49 647 57 664 72C719 -1 746 -71 749 -181ZM568 -380H467V-473H568ZM568 -238H467V-324H568ZM466 -183H568V-87C568 -48 566 -40 490 -47C507 -22 513 2 513 35C620 11 631 -11 631 -59V-429C631 -475 632 -515 633 -537C600 -534 566 -534 520 -534C471 -534 438 -534 404 -537C406 -515 407 -485 407 -439V-265C407 -181 398 -115 371 -60C359 -117 342 -172 325 -212L272 -196C286 -152 301 -92 308 -29L362 -43C348 -18 329 4 305 25C338 34 353 44 372 67C428 -6 460 -105 466 -183ZM627 -649H489C489 -723 491 -745 500 -753C509 -761 506 -768 497 -767C475 -765 440 -766 420 -768C423 -760 424 -747 424 -723V-640C424 -616 422 -597 420 -587C467 -588 540 -588 649 -588C764 -588 846 -588 895 -587C893 -732 895 -741 903 -748C915 -760 912 -764 899 -763C881 -762 842 -763 818 -766C822 -759 825 -745 825 -719V-649H693C692 -771 695 -796 704 -805C718 -819 716 -826 696 -825C672 -823 646 -824 623 -828C626 -795 627 -764 627 -649Z"/>
</svg>