<svg xmlns="http://www.w3.org/2000/svg" viewBox="0 -1000 1000 1000">
	<path fill="#000000" d="M485 -627C468 -669 435 -735 410 -775L342 -751C373 -707 401 -651 415 -590ZM140 -194L81 -205C81 -153 66 -55 51 -13L122 -1C132 -57 139 -137 140 -194ZM275 -44C260 -96 249 -165 244 -214L180 -207C190 -161 195 -91 196 -27ZM483 -80V-363C483 -417 485 -455 490 -484C466 -483 439 -482 418 -482C392 -482 374 -483 344 -485V-417C368 -421 375 -421 418 -421V-77C384 -59 364 -47 314 -17C338 3 351 18 371 45C426 -18 454 -26 495 -1C569 43 632 55 932 54C935 25 940 10 960 -29C712 -1 568 -23 526 -55C511 -67 496 -75 483 -80ZM385 -95C361 -165 350 -198 343 -229L281 -219C292 -187 306 -128 315 -70ZM201 -499C181 -467 157 -429 127 -382C101 -341 89 -330 61 -327C72 -300 77 -277 81 -231C103 -251 136 -266 158 -270L298 -293C303 -277 308 -260 313 -242L387 -270C367 -320 343 -369 318 -415L260 -391C267 -375 274 -358 281 -341L159 -327C240 -454 275 -504 338 -582C351 -598 363 -607 371 -609C385 -612 386 -621 372 -626C355 -632 326 -645 283 -669C274 -636 263 -606 232 -552L136 -547C190 -637 223 -691 254 -739C266 -758 280 -774 288 -778C304 -785 305 -792 285 -798C266 -804 229 -821 200 -837C170 -742 150 -692 105 -614C73 -559 70 -555 44 -551C60 -532 69 -510 79 -465C108 -479 136 -489 152 -491ZM671 -350V-298C616 -299 569 -301 541 -305V-237C568 -242 616 -244 671 -244V-188C600 -189 548 -191 511 -195V-124C546 -129 599 -131 670 -131C670 -100 668 -65 664 -32H747C743 -65 741 -99 741 -131C824 -131 875 -128 911 -124V-195C878 -191 824 -188 740 -188V-244C816 -243 854 -241 882 -237V-305C856 -301 822 -299 740 -298V-350C828 -349 868 -347 904 -343V-414C871 -410 829 -408 740 -407C740 -454 742 -463 749 -468C762 -478 759 -486 744 -485C722 -484 706 -485 666 -490C670 -460 671 -442 671 -407C602 -408 557 -410 520 -414V-343C555 -348 602 -350 671 -350ZM708 -531C754 -507 817 -484 910 -456C916 -490 923 -502 945 -532C863 -541 805 -552 762 -570C815 -614 853 -668 896 -751C869 -749 846 -748 808 -748H653C669 -774 678 -784 685 -787C702 -794 700 -802 683 -805C658 -809 634 -817 605 -833C595 -767 538 -636 483 -581C517 -574 532 -563 544 -548C558 -573 575 -603 595 -641C610 -612 628 -589 652 -567C602 -539 540 -518 471 -508C505 -485 513 -471 519 -441C599 -474 659 -501 708 -531ZM705 -602C676 -625 656 -654 636 -692H784C769 -661 742 -630 705 -602Z"/>
</svg>