<svg xmlns="http://www.w3.org/2000/svg" viewBox="0 -1000 1000 1000">
	<path fill="#000000" d="M157 -185L84 -184C81 -120 68 -60 41 6L117 20C133 -39 149 -118 157 -185ZM259 0C257 -61 253 -132 247 -196L181 -187C187 -119 188 -79 182 4ZM389 -37C375 -93 358 -150 337 -210L272 -192C290 -140 303 -76 312 -14ZM535 -350H455V-429H535ZM535 -200H455V-295H535ZM728 -292H813V-195H728ZM728 -429H813V-350H728ZM193 -475C173 -444 155 -421 125 -387C82 -338 68 -329 39 -324C55 -290 59 -260 58 -231C78 -244 111 -253 159 -259L292 -275C295 -260 298 -244 299 -230L377 -252C362 -304 343 -352 312 -414L245 -390C256 -373 266 -354 273 -334L149 -323C228 -417 290 -497 332 -556C354 -586 360 -592 369 -596C381 -601 382 -608 370 -612C342 -621 311 -642 290 -660C282 -630 273 -611 234 -544L130 -536C158 -577 202 -645 243 -709C273 -755 285 -762 310 -774C325 -781 325 -785 307 -792C274 -805 231 -824 201 -838C183 -759 165 -717 114 -620C83 -561 75 -551 44 -538C51 -518 62 -477 67 -452C86 -460 110 -465 132 -468ZM661 -714V-18C617 -23 604 -36 604 -62V-714ZM728 -616V-714H807V-616ZM535 -553V-493H469C442 -493 414 -493 387 -495C389 -475 390 -453 390 -425V-210C390 -181 389 -154 387 -135C414 -137 441 -137 468 -137H535V-48C535 30 560 52 703 52C895 52 903 53 958 -63C926 -70 909 -80 881 -104C856 -24 841 -15 728 -15V-135H799C826 -135 854 -135 881 -133C879 -152 878 -179 878 -208V-425C878 -453 879 -475 881 -495C854 -493 825 -493 798 -493H728V-554H799C840 -554 866 -553 879 -552C877 -570 876 -614 876 -665C876 -715 878 -759 879 -778C808 -774 774 -773 637 -773C500 -773 463 -774 391 -778C394 -759 396 -715 396 -665C396 -615 394 -570 391 -552C403 -552 430 -553 471 -553ZM535 -714V-616H465V-714Z"/>
</svg>