<svg xmlns="http://www.w3.org/2000/svg" viewBox="0 -1000 1000 1000">
	<path fill="#000000" d="M384 -76V-50H454C452 -83 451 -112 451 -164V-269C451 -286 454 -298 461 -304C472 -313 468 -318 454 -318C426 -318 407 -320 379 -325C382 -311 384 -282 384 -218V-137L315 -128V-396C381 -395 426 -392 467 -387V-469C426 -464 381 -461 315 -460V-617C361 -616 403 -613 438 -611V-687C397 -684 342 -682 277 -682H202C230 -755 245 -783 259 -786C276 -790 274 -805 260 -805C240 -805 193 -816 156 -830C139 -727 114 -628 59 -547C89 -539 111 -528 130 -511C147 -546 163 -580 178 -617H244V-460C163 -461 106 -463 58 -469V-387C104 -393 163 -395 244 -396V-119L171 -110V-283C171 -299 173 -304 182 -314C189 -321 186 -327 178 -326C161 -324 121 -327 100 -332C103 -312 104 -297 104 -233V-110C104 -68 103 -53 99 -29C122 -35 162 -44 206 -50ZM617 -601C617 -513 615 -431 611 -381C536 -382 503 -384 475 -390V-309C504 -315 537 -318 602 -318C574 -183 498 -31 332 12C363 27 393 52 410 75C550 -7 622 -101 659 -242C700 -94 794 -8 908 59C916 14 930 -17 959 -44C845 -66 738 -144 691 -318H803C859 -318 924 -314 948 -309V-390C932 -387 896 -384 858 -382L866 -541C870 -616 872 -641 877 -677C840 -671 796 -669 691 -669C693 -768 701 -795 714 -804C729 -814 726 -822 708 -822C684 -822 647 -825 609 -832C613 -783 615 -726 616 -669C558 -670 531 -672 499 -676V-593C533 -598 560 -600 617 -601ZM782 -381H683C688 -440 690 -517 691 -601H794Z"/>
</svg>