<svg xmlns="http://www.w3.org/2000/svg" viewBox="0 -1000 1000 1000">
	<path fill="#000000" d="M824 -200H520V-250H824ZM824 -300H520V-350H824ZM327 -82V-23H390C388 -56 387 -85 387 -137V-278C387 -303 388 -311 393 -315C399 -320 396 -327 390 -327C364 -327 348 -329 323 -334C325 -320 327 -291 327 -227V-143L275 -136V-409C337 -408 381 -405 419 -400V-481C381 -476 337 -473 275 -472V-633C319 -632 363 -629 394 -627V-701C358 -698 299 -696 242 -696H193C198 -708 203 -720 207 -731C223 -774 235 -786 252 -792C269 -798 267 -810 253 -811C235 -813 196 -824 173 -835C151 -761 105 -661 51 -571C75 -562 97 -546 114 -526C130 -556 149 -594 167 -633H208V-472C140 -473 90 -476 48 -481V-400C88 -405 139 -408 208 -409V-126L156 -119V-292C156 -308 158 -313 165 -323C172 -330 169 -336 162 -335C141 -332 108 -336 89 -341C92 -321 93 -306 93 -242V-119C93 -77 92 -62 88 -38C109 -44 146 -53 183 -59ZM705 -92V-145C807 -145 847 -144 894 -141C892 -152 890 -177 890 -198V-350C890 -370 892 -396 894 -406C843 -403 809 -402 677 -402C557 -402 505 -403 453 -406C455 -396 456 -370 456 -350V-198C456 -177 455 -155 453 -141C499 -145 542 -145 636 -145V-92C520 -92 477 -94 408 -99V-27C476 -32 520 -34 636 -34V-7C636 18 634 50 628 80H712C709 50 705 18 705 -7V-34C825 -34 880 -32 949 -27V-99C880 -94 825 -92 705 -92ZM776 -600H859V-505H776ZM571 -505H496V-600H571ZM630 -600H719V-505H630ZM571 -724V-653C511 -653 468 -653 430 -656C431 -636 432 -623 432 -595V-509C432 -491 431 -468 430 -448C455 -451 496 -452 586 -452H738C857 -452 893 -451 927 -448C925 -471 924 -491 924 -509V-595C924 -623 925 -635 927 -656C888 -654 862 -653 776 -653V-724C867 -723 903 -721 943 -715V-792C881 -785 843 -783 671 -783C516 -783 461 -785 404 -792V-719C454 -722 505 -724 571 -724ZM719 -724V-653H630V-724Z"/>
</svg>