<svg xmlns="http://www.w3.org/2000/svg" viewBox="0 -1000 1000 1000">
	<path fill="#000000" d="M849 -390C827 -412 813 -431 797 -458L724 -425C746 -402 758 -384 773 -356ZM574 -227C508 -258 473 -272 400 -296L371 -256C454 -222 495 -202 541 -170ZM418 -768C400 -792 390 -807 375 -831L298 -803C313 -781 319 -771 335 -740ZM282 -298H288V-189C241 -189 208 -191 176 -193C217 -222 248 -255 282 -298ZM703 -140C681 -184 666 -236 658 -298C740 -298 869 -296 931 -292V-354C868 -350 735 -348 653 -348C650 -395 654 -425 659 -431C675 -450 670 -456 650 -457C627 -458 606 -462 575 -469C577 -433 579 -414 588 -348H346V-392C370 -394 397 -397 429 -400C474 -405 517 -405 527 -403C539 -401 543 -407 532 -416C517 -428 501 -446 485 -465C434 -449 382 -443 321 -437C224 -428 186 -428 129 -431C147 -413 155 -398 159 -378C197 -380 232 -382 288 -386V-348C211 -348 131 -350 63 -354V-292C113 -295 170 -297 227 -298C163 -239 106 -210 39 -194C61 -174 73 -157 81 -137C114 -154 142 -169 166 -186V-139C191 -142 212 -144 228 -144L207 -48C228 -51 252 -54 296 -54H413C395 7 353 11 230 4C251 32 262 54 270 79C403 66 442 48 454 15C469 -27 479 -67 486 -106C455 -101 417 -100 363 -100H274L285 -144C409 -144 455 -143 490 -139V-194C458 -191 405 -189 346 -189V-298H595C605 -221 625 -146 654 -94C604 -53 546 -19 484 1C514 15 530 28 548 52C599 22 647 -14 688 -50C770 38 849 65 878 65C907 65 930 22 949 -57C921 -67 900 -83 880 -111C866 -10 855 -8 819 -25C785 -41 757 -64 734 -93C825 -194 846 -216 861 -227C875 -237 875 -240 858 -245C838 -251 814 -266 798 -278C780 -234 747 -185 703 -140ZM470 -688V-635C337 -635 253 -636 175 -641V-579C252 -583 337 -585 470 -585V-534C297 -534 188 -536 90 -540V-478C194 -482 312 -485 507 -485C702 -485 821 -482 925 -478V-540C827 -536 715 -534 538 -534V-585C675 -585 763 -583 841 -579V-641C763 -636 675 -635 538 -635V-688C698 -688 810 -685 899 -681V-743C814 -739 747 -737 617 -737C672 -789 685 -796 697 -798C713 -800 712 -812 698 -814C667 -818 641 -824 617 -833C594 -791 576 -765 554 -737C385 -737 204 -739 113 -743V-681C200 -685 315 -688 470 -688Z"/>
</svg>