<svg xmlns="http://www.w3.org/2000/svg" viewBox="0 -1000 1000 1000">
	<path fill="#000000" d="M793 -488V-392H873V-707C873 -734 876 -767 878 -788C833 -784 765 -782 697 -782C631 -782 574 -785 526 -790V-701C576 -706 636 -708 793 -708V-552C710 -522 606 -497 517 -481C534 -450 547 -424 556 -399C617 -429 706 -463 793 -488ZM383 -482V-416H462V-696C462 -721 464 -754 467 -778C424 -774 353 -772 285 -772C216 -772 158 -775 106 -780V-690C155 -696 206 -698 383 -698V-540C311 -521 190 -494 77 -477C93 -446 107 -413 114 -387C186 -418 300 -458 383 -482ZM430 -83C419 -114 398 -170 384 -203L286 -180C304 -142 320 -90 326 -55ZM291 -580C285 -604 271 -637 258 -666L167 -640C178 -613 189 -579 196 -547ZM701 -584C695 -608 684 -641 673 -673L583 -647C594 -619 602 -588 607 -553ZM561 -34H349C268 -34 144 -40 88 -44V49C187 42 320 38 505 38C689 38 830 42 929 49V-44C861 -39 754 -35 644 -34C708 -142 723 -163 743 -174C750 -178 749 -182 741 -184C712 -191 660 -210 631 -225C616 -152 586 -74 561 -34ZM480 -309C322 -309 208 -312 121 -318V-235C212 -242 331 -245 499 -245C667 -245 796 -242 887 -235V-318C811 -313 709 -310 581 -309C575 -336 568 -364 560 -391L463 -373C470 -349 476 -329 480 -309Z"/>
</svg>