<svg xmlns="http://www.w3.org/2000/svg" viewBox="0 -1000 1000 1000">
	<path fill="#000000" d="M740 -256C720 -340 704 -395 681 -458L612 -433C632 -376 653 -291 664 -225ZM346 -556C357 -606 368 -654 376 -694C467 -693 536 -690 589 -685V-773C527 -768 444 -765 329 -765C214 -765 131 -768 69 -773V-685C125 -690 199 -693 298 -694C292 -650 284 -605 275 -556C158 -556 123 -558 99 -563C101 -533 102 -498 102 -384V-189C102 -81 97 -7 90 47H171V-491H227V-199C227 -136 225 -89 221 -65H300C296 -90 294 -137 294 -199V-491H352V-210C352 -147 350 -100 346 -77H423C419 -103 417 -148 417 -210V-491H491V-74C491 -38 470 -21 394 -36C419 4 424 20 427 53C546 31 560 18 560 -50V-384C560 -496 561 -528 565 -563C543 -559 498 -556 346 -556ZM783 -614H702C645 -614 616 -616 595 -622V-534C615 -538 645 -540 702 -540H783V-54C783 -24 755 -3 663 -22C687 15 697 41 701 79C843 69 859 48 859 -2V-540C906 -539 937 -537 953 -533V-622C937 -617 906 -614 859 -614V-776C859 -795 862 -806 874 -815C886 -824 884 -832 861 -831C839 -830 806 -831 776 -835C781 -804 783 -758 783 -686Z"/>
</svg>