<svg xmlns="http://www.w3.org/2000/svg" viewBox="0 -1000 1000 1000">
	<path fill="#000000" d="M837 -34C847 -7 855 16 858 30L943 -3C909 -81 860 -182 814 -266L746 -235C769 -193 793 -142 812 -94L593 -69C696 -315 708 -339 724 -350C750 -367 749 -373 725 -376C709 -378 663 -393 637 -406C621 -333 592 -237 569 -182C533 -94 515 -69 484 -56C502 -28 515 3 519 29C554 17 592 7 654 -3ZM488 -153C462 -191 431 -239 405 -282L343 -251C374 -205 398 -158 417 -112ZM947 -418V-503C887 -498 835 -496 720 -496C606 -496 551 -498 489 -503V-418C549 -424 605 -425 720 -425C835 -425 887 -423 947 -418ZM887 -667V-755C846 -749 789 -746 712 -746C635 -746 578 -749 537 -755V-667C578 -673 635 -675 712 -675C789 -675 846 -672 887 -667ZM247 -238V-120C247 -49 244 -1 237 68H330C323 1 320 -49 320 -120V-332C387 -331 435 -328 474 -324V-401C435 -396 387 -394 320 -393V-485C377 -484 419 -481 453 -477V-556C419 -551 377 -549 320 -548V-637C390 -636 435 -633 476 -629V-708C435 -703 390 -701 320 -700V-768C320 -784 321 -792 332 -801C348 -815 346 -820 326 -820C301 -820 267 -822 239 -825C244 -792 246 -755 247 -700C181 -701 138 -703 97 -708V-629C137 -633 181 -636 247 -637V-548C189 -549 147 -551 112 -556V-477C146 -481 189 -484 247 -485V-393C176 -394 126 -396 83 -401V-324C119 -328 163 -330 222 -331C183 -237 118 -140 58 -83C84 -65 105 -46 124 -21C182 -102 220 -167 247 -238Z"/>
</svg>