<svg xmlns="http://www.w3.org/2000/svg" viewBox="0 -1000 1000 1000">
	<path fill="#000000" d="M635 -670C537 -671 495 -673 458 -678V-457H533V-601H630C620 -463 604 -379 576 -298C522 -142 473 -64 403 -7C439 -2 463 12 489 35C569 -58 631 -189 676 -388C678 -371 679 -347 679 -310V-39C679 27 686 38 811 38C912 38 934 20 961 -95C929 -104 898 -123 875 -154C867 -60 847 -37 806 -37C761 -37 752 -45 752 -65V-354C752 -371 755 -381 767 -388C778 -394 775 -407 759 -407C731 -407 709 -408 681 -411C690 -453 699 -508 708 -601H839V-461H916V-678C869 -672 828 -670 714 -670C719 -728 733 -799 741 -804C760 -815 759 -827 737 -827C701 -827 659 -830 630 -838C635 -815 637 -733 635 -670ZM194 -372V-509H313V-372ZM194 -159V-309H313V-181ZM120 -704V-146C95 -142 71 -141 45 -142L70 -54C120 -72 222 -98 313 -118C313 -41 311 14 305 80H395C389 12 388 -50 388 -134L453 -147L459 -209L388 -195V-705C417 -703 446 -701 464 -698V-780C432 -775 357 -772 261 -772C164 -772 92 -775 56 -780V-698C72 -701 96 -703 120 -704ZM313 -706V-572H194V-706Z"/>
</svg>