<svg xmlns="http://www.w3.org/2000/svg" viewBox="0 -1000 1000 1000">
	<path fill="#000000" d="M346 -780C365 -785 365 -794 342 -802C315 -811 296 -820 268 -837C239 -779 157 -701 68 -653C102 -635 120 -624 132 -601C202 -667 251 -710 303 -754C320 -769 331 -776 346 -780ZM674 -580C674 -594 677 -602 685 -609C694 -617 693 -624 681 -625C701 -655 714 -675 733 -707C795 -673 838 -641 866 -608L915 -675C880 -699 815 -729 759 -752C778 -784 783 -790 792 -793C809 -799 810 -806 792 -811C773 -816 746 -827 712 -843C696 -763 662 -705 609 -644C645 -641 658 -636 671 -625C641 -623 635 -623 603 -627C608 -602 610 -583 610 -541V-464C562 -474 524 -497 492 -529C496 -538 500 -547 503 -556C512 -581 516 -587 523 -590C541 -597 539 -607 519 -608C498 -609 473 -613 436 -622C435 -532 387 -451 308 -399C342 -390 361 -378 383 -361C415 -391 446 -438 470 -483C499 -448 542 -421 580 -411C635 -396 712 -387 917 -386C916 -413 921 -433 935 -458C856 -450 802 -448 674 -456V-523H777C830 -523 869 -520 884 -517V-587C869 -583 831 -580 776 -580ZM272 -572C293 -590 312 -605 327 -618C349 -636 361 -645 370 -649C396 -635 408 -626 416 -615C456 -662 474 -685 495 -715C539 -688 559 -673 588 -646L632 -705C596 -728 574 -740 527 -762C540 -780 550 -788 559 -791C578 -797 578 -805 557 -811C538 -816 517 -825 483 -841C467 -777 423 -710 367 -665C351 -674 331 -688 305 -709C274 -652 145 -531 51 -493C77 -481 98 -458 110 -434C139 -459 172 -487 204 -514V-441C204 -416 203 -399 199 -370H272ZM687 -206V-168H306V-206ZM306 -76V-116H687V-77C580 -77 407 -76 306 -76ZM234 -299V-76C163 -76 114 -77 57 -78V-7C192 -17 377 -22 687 -22C685 8 682 54 679 80H769C766 55 763 10 761 -21C835 -20 897 -17 949 -13L947 -90C891 -85 836 -81 761 -79V-299C806 -299 865 -296 928 -290V-362C862 -357 723 -353 512 -353C300 -353 151 -357 86 -362V-290C145 -296 191 -298 234 -299ZM687 -299V-259H306V-299Z"/>
</svg>