<svg xmlns="http://www.w3.org/2000/svg" viewBox="0 -1000 1000 1000">
	<path fill="#000000" d="M508 -536C489 -574 480 -594 468 -625L396 -610C416 -578 425 -556 435 -519ZM919 -584C896 -648 880 -688 853 -747L781 -722C812 -661 825 -622 839 -559ZM654 -642V-709C627 -706 569 -704 521 -704C473 -704 427 -706 400 -707V-642C427 -645 473 -647 521 -647C569 -647 625 -645 654 -642ZM573 -729C555 -762 544 -786 531 -820L444 -799C472 -756 480 -746 491 -715ZM186 -520H270V-384H186ZM186 -714H270V-574H186ZM186 -184V-331H270V-194C244 -191 216 -187 186 -184ZM779 -232C766 -291 756 -378 752 -454C810 -454 900 -450 948 -446V-520C899 -516 808 -512 750 -512C745 -687 758 -785 770 -797C784 -811 782 -817 762 -817C741 -817 708 -821 674 -828C679 -786 682 -743 681 -673C680 -617 681 -563 682 -512H601C628 -574 640 -589 648 -593C660 -598 659 -605 648 -607C619 -613 598 -619 570 -631C565 -588 557 -559 537 -512H340V-713C362 -712 376 -711 385 -710V-778C368 -775 346 -773 225 -773C107 -773 77 -775 60 -778V-708C73 -711 92 -713 114 -713V-177C88 -175 61 -173 34 -171C51 -140 58 -123 67 -94C92 -108 150 -121 270 -135C270 -70 267 21 263 77H347C343 20 340 -78 340 -143C357 -144 376 -146 395 -148C391 -174 391 -185 394 -214C384 -211 365 -208 340 -203V-454H685C693 -319 713 -209 733 -148C686 -77 633 -17 571 27C616 40 627 53 642 75C685 26 725 -26 762 -82C803 -2 846 54 866 64C896 79 917 75 963 -73C939 -83 926 -93 900 -127C876 -17 869 -9 806 -154C834 -203 847 -226 883 -305C898 -337 914 -354 927 -356C946 -359 946 -370 929 -376C906 -384 876 -398 842 -417C830 -353 808 -290 779 -232ZM581 -262H466V-335H581ZM581 -138H466V-215H581ZM466 -92H581V-52H647C645 -81 645 -121 645 -148V-309C645 -358 646 -379 648 -399C629 -396 577 -394 523 -394C469 -394 417 -396 398 -399C400 -379 401 -356 401 -309V-97C401 -62 400 -32 398 -2H466Z"/>
</svg>