<svg xmlns="http://www.w3.org/2000/svg" viewBox="0 -1000 1000 1000">
	<path fill="#000000" d="M295 -251C299 -287 300 -320 298 -366C346 -365 394 -363 421 -359V-436C388 -431 331 -428 187 -427C196 -446 204 -457 213 -463C229 -472 226 -477 212 -479C180 -483 161 -488 139 -497C133 -454 112 -392 72 -317C95 -313 107 -309 129 -297C142 -319 152 -340 163 -366H233C234 -321 231 -283 227 -251C157 -252 126 -254 83 -259V-184C123 -189 154 -192 218 -193C199 -104 159 -49 52 14C86 31 101 42 122 66C187 23 234 -36 263 -114C309 -73 349 -28 381 14L439 -37C403 -72 338 -128 280 -168C282 -176 284 -184 286 -193C352 -192 398 -189 437 -184V-260C400 -255 356 -252 295 -251ZM183 -656C207 -661 229 -665 276 -672C361 -685 404 -687 419 -684C435 -681 438 -686 421 -702C408 -714 394 -743 385 -774C351 -756 300 -737 246 -723C223 -717 204 -713 183 -709V-765C183 -782 187 -787 201 -796C215 -805 210 -812 190 -810C173 -808 131 -810 110 -817C114 -797 116 -762 116 -715V-627C116 -525 128 -513 258 -513C388 -513 407 -519 444 -601C418 -610 407 -618 380 -645C352 -582 334 -572 249 -572C191 -572 183 -582 183 -627ZM700 -670H814V-583H700ZM700 -521H814V-433H700ZM700 -82C797 -84 882 -80 935 -73V-155C882 -148 797 -143 700 -145V-228C775 -227 828 -225 871 -220V-294C830 -289 775 -287 700 -286V-372C805 -372 862 -369 890 -364C886 -402 884 -456 884 -520C908 -519 926 -517 943 -513V-590C926 -587 908 -585 884 -584C885 -648 887 -704 890 -739C855 -734 781 -729 700 -728V-779C700 -791 702 -797 709 -806C718 -820 717 -826 705 -826C683 -826 645 -829 622 -835C626 -813 629 -783 630 -728C554 -729 511 -732 480 -738V-662C510 -665 554 -669 630 -670V-583H567C517 -583 492 -585 464 -591V-513C491 -518 517 -521 567 -521H630V-433C564 -434 522 -435 485 -441V-363C520 -368 564 -371 630 -372V-286C569 -287 522 -290 484 -294V-220C519 -224 568 -227 630 -228V-145C552 -146 491 -149 445 -155V-73C491 -79 552 -81 630 -82C630 -38 628 19 623 68H707C703 17 700 -38 700 -82Z"/>
</svg>