<svg xmlns="http://www.w3.org/2000/svg" viewBox="0 -1000 1000 1000">
	<path fill="#000000" d="M183 -274H311V-76C311 -42 294 -32 217 -41C236 -13 245 21 248 48C369 47 384 16 384 -46V-654C384 -706 387 -753 390 -776C352 -772 296 -770 243 -770C191 -770 144 -772 106 -776C109 -751 112 -706 112 -654V-463C112 -230 95 -124 46 -3C67 13 86 35 108 64C151 -55 174 -168 183 -274ZM311 -558H186V-704H311ZM186 -493H311V-339H186ZM716 -695V-734C716 -782 719 -802 730 -808C752 -821 746 -828 723 -828C687 -828 665 -830 627 -838C633 -817 638 -768 638 -695C544 -696 481 -699 424 -705V-614C481 -620 544 -623 638 -624V-497C569 -498 514 -501 464 -505V-176C464 -125 462 -84 456 -31H541V-422H638V-99C638 -35 636 15 631 81H724C716 16 716 -32 716 -99V-422H828V-165C828 -136 808 -126 735 -133C760 -100 769 -74 771 -43C890 -62 905 -78 905 -124V-505C862 -501 791 -498 716 -497V-624C822 -623 893 -620 954 -614V-705C893 -699 822 -696 716 -695Z"/>
</svg>