<svg xmlns="http://www.w3.org/2000/svg" viewBox="0 -1000 1000 1000">
	<path fill="#000000" d="M454 -758C471 -765 469 -776 453 -779C432 -781 382 -800 351 -816C333 -764 311 -714 276 -653C226 -566 149 -468 45 -397C74 -378 104 -353 123 -328C230 -429 350 -589 401 -699C417 -735 428 -748 454 -758ZM961 -455C882 -487 819 -527 748 -604C707 -651 671 -731 645 -830L561 -813C587 -712 629 -612 674 -553C727 -483 798 -418 887 -356C909 -397 933 -430 961 -455ZM375 -354C369 -269 348 -211 309 -150C277 -100 203 -37 93 8C129 22 163 48 185 74C273 23 326 -24 389 -118C427 -175 452 -262 458 -354H682L662 -122C654 -33 625 -20 514 -31C539 2 554 40 560 76C701 56 736 35 743 -47L777 -436C731 -434 575 -432 449 -432C344 -432 273 -435 241 -440V-347C283 -353 310 -354 375 -354Z"/>
</svg>