<svg xmlns="http://www.w3.org/2000/svg" viewBox="0 -1000 1000 1000">
	<path fill="#000000" d="M202 -275H339V-97C339 -60 322 -47 239 -63C261 -32 271 -3 274 29C399 14 412 -1 412 -61V-640C412 -701 414 -743 419 -769C375 -764 332 -762 271 -762C209 -762 166 -764 122 -769C126 -742 129 -701 129 -640V-415C129 -202 106 -93 55 1C83 15 104 31 126 54C163 -24 197 -177 202 -275ZM339 -550H202V-697H339ZM202 -490H339V-335H202ZM781 -499L726 -464C764 -406 829 -292 865 -222L941 -269C904 -329 830 -434 781 -499ZM753 -694C831 -693 886 -690 933 -686V-769C876 -763 807 -761 700 -761C594 -761 528 -763 467 -769V-686C522 -691 583 -694 675 -694C631 -543 537 -379 420 -264C448 -252 469 -240 490 -221C540 -279 592 -358 639 -444V-60C562 -61 508 -63 459 -67V13C517 9 583 7 688 7C794 7 861 9 917 13V-67C866 -62 805 -60 714 -60V-597C728 -629 742 -662 753 -694Z"/>
</svg>