<svg xmlns="http://www.w3.org/2000/svg" viewBox="0 -1000 1000 1000">
	<path fill="#000000" d="M342 -292C398 -180 428 -106 447 -28L540 -71C503 -154 436 -288 382 -390C477 -675 507 -728 524 -739C540 -748 537 -755 516 -759C466 -770 442 -779 414 -797C388 -661 372 -603 330 -482C285 -566 237 -645 170 -748L94 -701C166 -599 227 -501 293 -387C230 -229 155 -115 55 -11C85 -6 125 12 151 31C221 -60 293 -179 342 -292ZM901 -799C915 -810 912 -822 891 -821C858 -819 821 -821 795 -826C801 -794 804 -747 804 -660V-68C804 -32 779 -16 703 -34C725 12 731 45 729 78C877 52 889 34 889 -32V-769C889 -786 892 -792 901 -799ZM676 -669C694 -680 693 -690 671 -689C650 -688 612 -691 580 -697C588 -640 588 -627 588 -585V-270C588 -229 586 -196 580 -141H675C669 -190 668 -212 668 -270V-642C668 -657 670 -665 676 -669Z"/>
</svg>