<svg xmlns="http://www.w3.org/2000/svg" viewBox="0 -1000 1000 1000">
	<path fill="#000000" d="M774 -218H356V-272H774ZM356 -164H774V-111H356ZM843 -616V-684C776 -679 696 -677 571 -677C444 -677 366 -679 298 -684V-616C366 -621 444 -624 571 -624C696 -624 776 -621 843 -616ZM511 -524C547 -462 593 -421 641 -395C704 -361 797 -337 889 -332C891 -356 901 -388 919 -413C850 -405 763 -413 707 -429C758 -453 782 -461 799 -464C819 -466 816 -472 805 -478C797 -481 775 -502 760 -522C824 -521 865 -519 902 -516V-587C836 -582 757 -579 545 -579H234V-722H594C723 -722 792 -720 904 -712V-798C790 -791 705 -789 532 -789C408 -789 279 -792 150 -798C155 -723 160 -603 160 -534C159 -286 122 -78 35 25C61 34 87 50 105 73C190 -48 230 -261 234 -524H324V-459C324 -410 319 -396 298 -382C311 -369 324 -348 329 -329C313 -329 297 -330 280 -331C283 -315 286 -282 286 -248V-82C286 -42 285 6 282 61H356V-57H774C773 -13 757 -4 686 -15C707 9 717 41 719 69C817 57 846 29 846 -18V-248C846 -270 849 -312 852 -331C764 -327 686 -325 566 -325C475 -325 410 -326 345 -328C387 -349 450 -373 523 -399C519 -415 517 -442 518 -461L388 -416V-524ZM745 -522C720 -498 689 -473 654 -451C627 -468 597 -494 574 -524C646 -524 701 -523 745 -522Z"/>
</svg>