<svg xmlns="http://www.w3.org/2000/svg" viewBox="0 -1000 1000 1000">
	<path fill="#000000" d="M766 -312C764 -348 762 -378 761 -407L704 -401C710 -370 712 -348 712 -304ZM613 -324C635 -227 660 -165 689 -119C647 -83 582 -36 522 -6C546 14 558 31 564 61C639 9 692 -31 730 -65C772 -21 827 14 907 45C917 -4 926 -19 952 -51C884 -63 830 -83 783 -119C812 -155 829 -190 848 -236C877 -306 896 -386 915 -536C897 -532 871 -531 813 -531H715C733 -568 747 -590 756 -596C770 -606 768 -613 752 -614C729 -615 697 -622 668 -636C646 -513 607 -417 524 -295C546 -285 559 -276 575 -262C589 -284 601 -304 613 -324ZM687 -469H833C813 -337 789 -251 733 -166C696 -216 663 -303 655 -402C666 -424 676 -446 687 -469ZM650 -738C541 -738 464 -741 402 -747V-665C468 -670 555 -673 679 -673C801 -673 883 -670 949 -665V-747C894 -742 827 -739 734 -738C729 -774 724 -806 718 -833L631 -825C639 -801 645 -770 650 -738ZM359 -316C381 -308 390 -297 401 -275C420 -307 433 -331 446 -355V-98C446 -40 444 4 438 67H513V-487C542 -545 557 -572 571 -584C591 -600 590 -605 570 -608C541 -613 522 -620 492 -635C487 -596 469 -533 454 -498C421 -424 392 -374 359 -329V-661C359 -722 360 -760 363 -787C323 -784 287 -783 233 -783C179 -783 154 -784 115 -787C117 -760 118 -722 118 -661V-435C118 -206 94 -73 50 28C77 38 98 51 118 71C149 0 177 -157 184 -288H292V-62C292 -33 266 -24 188 -35C208 -7 219 25 223 56C342 35 359 25 359 -24ZM292 -569H186V-719H292ZM186 -508H292V-349H186Z"/>
</svg>