<svg xmlns="http://www.w3.org/2000/svg" viewBox="0 -1000 1000 1000">
	<path fill="#000000" d="M801 -383H546V-439H801ZM801 -491H546V-547H801ZM182 -257H305V-63C305 -40 287 -32 205 -47C223 -17 236 19 239 50C354 37 373 16 373 -21V-649C373 -701 376 -746 380 -777C341 -773 296 -771 243 -771C191 -771 145 -773 106 -777C111 -747 113 -706 113 -649V-412C113 -187 87 -78 31 3C54 19 77 44 93 75C148 -2 177 -140 182 -257ZM305 -541H183V-705H305ZM183 -483H305V-315H183ZM671 -17C741 27 827 53 920 70C927 33 942 -1 961 -23C872 -25 797 -37 735 -64C792 -112 835 -171 879 -267H602C615 -287 626 -307 637 -332C772 -332 843 -330 881 -325C876 -345 873 -383 873 -409V-526C873 -552 877 -599 881 -611C838 -605 795 -603 675 -603C587 -603 539 -605 503 -607C519 -629 534 -651 546 -671H763C847 -671 909 -668 936 -664V-740C907 -735 845 -731 767 -731H584C602 -757 617 -773 624 -777C639 -786 637 -792 618 -797C597 -802 570 -811 544 -825C495 -709 450 -637 380 -561C399 -551 422 -537 438 -524C450 -537 462 -552 474 -568C475 -554 476 -539 476 -526V-409C476 -373 473 -341 468 -325C496 -329 532 -331 564 -331C531 -255 472 -196 398 -144C426 -130 441 -117 455 -94C483 -114 510 -141 537 -173C557 -128 584 -91 616 -60C549 -25 459 0 383 -2C404 18 421 44 432 68C540 46 609 22 671 -17ZM673 -98C634 -126 601 -164 574 -212H771C744 -165 710 -128 673 -98Z"/>
</svg>