<svg xmlns="http://www.w3.org/2000/svg" viewBox="0 -1000 1000 1000">
	<path fill="#000000" d="M599 -107L586 -169C499 -113 471 -101 397 -75C413 -49 423 -33 441 -1C478 -31 519 -59 599 -107ZM574 -212C550 -239 538 -254 520 -278L453 -239C472 -214 486 -195 507 -163ZM914 -544C868 -576 842 -593 769 -631L722 -583C790 -543 809 -531 864 -485ZM178 -257H296V-82C296 -41 281 -32 195 -41C215 -11 225 20 228 52C352 40 368 21 368 -46V-645C368 -706 369 -744 372 -771C332 -768 296 -767 240 -767C184 -767 145 -768 105 -771C108 -744 109 -706 109 -645V-416C109 -197 74 -58 34 -1C62 17 83 37 102 63C136 -9 171 -157 178 -257ZM296 -542H180V-702H296ZM180 -479H296V-320H180ZM752 -169C823 -230 832 -236 843 -239C860 -243 861 -249 850 -254C827 -264 803 -280 789 -293C768 -264 745 -235 708 -194C702 -198 695 -202 688 -206V-305C688 -319 692 -335 698 -338C713 -345 711 -353 689 -353C670 -353 635 -356 612 -360C616 -345 617 -316 617 -280V-39C617 -14 603 -7 529 -10C550 21 562 52 563 73C682 59 688 54 688 -14V-139C777 -77 807 -51 858 0C870 -18 897 -53 914 -73C872 -99 829 -125 752 -169ZM639 -445C690 -383 799 -316 918 -291C921 -317 935 -350 957 -383C808 -393 743 -415 680 -480C701 -490 701 -498 687 -501C667 -505 642 -513 619 -524C539 -426 474 -377 373 -330C397 -307 412 -289 425 -270C498 -311 538 -345 639 -445ZM559 -665C507 -591 444 -534 387 -508C412 -490 434 -470 450 -451C543 -546 573 -582 613 -661V-617C613 -592 612 -563 608 -534H685C681 -564 680 -591 680 -617V-666C783 -666 855 -663 912 -658V-738C855 -732 783 -730 680 -730V-771C680 -793 683 -810 690 -813C707 -821 705 -831 683 -830C668 -829 632 -831 609 -833C612 -813 613 -778 613 -730C525 -731 461 -733 409 -738V-658C449 -661 498 -664 559 -665Z"/>
</svg>