<svg xmlns="http://www.w3.org/2000/svg" viewBox="0 -1000 1000 1000">
	<path fill="#000000" d="M595 -388C590 -412 581 -440 565 -474L503 -457C522 -424 531 -400 535 -368ZM624 -354H480V-495H624ZM810 -457C797 -460 776 -468 749 -480C739 -440 727 -413 712 -386L771 -366C793 -422 803 -439 808 -443C816 -449 817 -455 810 -457ZM838 -354H689V-495H838ZM509 25H807V72H886C883 48 881 15 881 -8V-189C881 -230 882 -255 885 -264C865 -263 759 -260 660 -260C563 -260 456 -263 436 -264C439 -254 440 -228 440 -189V-5C440 25 438 49 433 74H509ZM807 -148H509V-203H807ZM509 -93H807V-34H509ZM658 -755C691 -713 723 -676 756 -645H555C593 -680 624 -713 644 -740C647 -744 652 -750 658 -755ZM527 -620V-584C557 -588 592 -590 651 -590C711 -590 746 -588 778 -584V-625C810 -598 844 -574 882 -551H440C471 -574 500 -597 527 -620ZM178 -280H293V-77C293 -47 274 -36 207 -47C227 -14 235 20 237 51C346 23 362 0 362 -41V-550C374 -539 382 -528 388 -514C396 -520 405 -525 413 -531V-426C413 -384 411 -332 408 -294C482 -297 550 -298 660 -298C777 -298 839 -297 913 -295C909 -341 908 -376 908 -428V-536C915 -532 922 -529 929 -525C936 -552 946 -576 969 -605C855 -644 780 -694 708 -796C728 -805 728 -817 711 -819C677 -823 642 -830 619 -838C605 -803 566 -751 517 -701C478 -662 411 -614 362 -588V-652C362 -713 363 -751 366 -778C328 -775 286 -774 232 -774C180 -774 142 -775 104 -778C106 -751 107 -713 107 -652V-427C107 -152 89 -72 41 -7C72 8 92 24 115 53C152 -37 175 -155 178 -280ZM293 -551H178V-709H293ZM178 -492H293V-343H178Z"/>
</svg>