<svg xmlns="http://www.w3.org/2000/svg" viewBox="0 -1000 1000 1000">
	<path fill="#000000" d="M815 -312H571V-376H815ZM815 -434H571V-487L815 -488ZM306 -463C297 -514 285 -563 273 -603L207 -585C219 -546 230 -502 235 -449ZM723 -572C718 -602 712 -630 704 -656L625 -640C638 -615 643 -590 646 -559ZM310 -146C300 -197 285 -255 270 -298L206 -286C220 -236 231 -187 240 -132ZM826 -50H615V-138H826ZM681 -742C728 -661 779 -603 853 -548H652C590 -548 557 -549 532 -550C588 -606 626 -656 681 -742ZM406 -521C425 -509 441 -494 450 -474C469 -491 485 -506 501 -520V-366C501 -242 478 -159 406 -77ZM114 -401C84 -403 62 -405 39 -409V-329C62 -333 84 -335 114 -336C113 -192 95 -77 33 1C56 13 85 39 102 62C166 -73 185 -152 186 -337H333V-88C333 -35 311 -20 225 -31C248 0 261 32 264 62C378 43 404 15 406 -53C423 -39 439 -22 452 0C491 -51 522 -110 542 -161V-35C542 16 541 34 537 79H615V14H826V70H906C902 39 901 18 901 -48V-129C901 -168 902 -187 906 -204C875 -201 824 -200 739 -200C642 -200 598 -201 556 -203C561 -221 564 -237 564 -250H788C853 -250 870 -249 892 -246C889 -271 888 -293 888 -342V-524C898 -517 910 -510 921 -503C933 -548 939 -560 961 -587C854 -625 776 -695 721 -786C726 -789 731 -791 736 -794C749 -802 749 -812 734 -813C713 -815 674 -825 640 -839C587 -713 521 -622 406 -541V-589C406 -651 407 -687 410 -715C384 -712 371 -711 320 -711H271C293 -766 303 -777 313 -786C324 -795 321 -804 308 -805C274 -807 248 -813 219 -823C217 -791 211 -753 199 -711C150 -711 136 -712 111 -715C113 -688 114 -653 114 -589ZM333 -401H186V-650H333Z"/>
</svg>