<svg xmlns="http://www.w3.org/2000/svg" viewBox="0 -1000 1000 1000">
	<path fill="#000000" d="M681 -729V-783C681 -795 685 -803 693 -809C708 -820 703 -826 688 -826C657 -827 623 -828 590 -832C595 -805 596 -786 596 -729H415V-787C415 -799 418 -806 426 -812C442 -824 440 -831 422 -830C391 -829 360 -831 327 -835C332 -807 333 -790 333 -729C225 -729 132 -732 65 -737V-648C130 -654 225 -657 333 -657V-583H415V-657H596V-582H681V-657C790 -657 886 -654 951 -648V-737C886 -731 790 -729 681 -729ZM607 -471V-327H276C313 -370 335 -391 347 -397C366 -407 366 -420 346 -421C314 -423 287 -431 262 -447C229 -368 176 -329 139 -310C154 -285 163 -260 167 -232C246 -250 343 -255 516 -256C404 -153 252 -78 63 -8C91 14 108 34 125 63C371 -45 495 -123 600 -256H607V-62C607 -21 578 -10 464 -17C478 13 486 37 493 71C662 65 696 48 696 -16V-255C808 -254 881 -252 929 -249V-334C879 -329 783 -325 696 -327V-471C765 -471 832 -468 893 -462V-550C828 -544 756 -541 683 -541H339C266 -541 194 -544 129 -550V-462C194 -468 266 -471 339 -471Z"/>
</svg>