<svg xmlns="http://www.w3.org/2000/svg" viewBox="0 -1000 1000 1000">
	<path fill="#000000" d="M900 -18C850 -67 779 -123 708 -175L637 -126C709 -72 811 18 833 49ZM372 -117C389 -128 390 -137 371 -143C349 -150 326 -163 303 -180C247 -118 175 -62 90 -10C115 1 134 12 160 30C262 -45 301 -72 372 -117ZM560 -226C649 -225 713 -222 769 -217V-298C713 -293 649 -291 560 -290V-357C560 -366 564 -373 578 -381C599 -392 594 -397 563 -397C535 -396 502 -397 466 -401C475 -379 477 -360 477 -290C366 -290 292 -292 229 -298V-217C292 -223 366 -226 477 -226V-32C477 -1 458 13 360 -7C389 28 401 50 411 83C530 81 560 51 560 14ZM519 -529C578 -449 631 -406 687 -373C766 -327 841 -289 915 -270C928 -312 940 -334 964 -362C915 -364 814 -386 749 -421C660 -469 601 -514 567 -561C573 -563 580 -565 587 -566C601 -568 600 -584 585 -586C558 -589 509 -608 484 -623C459 -568 423 -535 353 -487C236 -407 156 -367 43 -324C71 -305 92 -282 108 -251C275 -336 423 -442 519 -529ZM622 -660C622 -622 620 -586 618 -560H709C706 -593 704 -630 704 -660C807 -660 864 -657 929 -651V-734C864 -728 807 -725 704 -725V-778C704 -789 711 -802 722 -809C734 -816 732 -822 718 -822C693 -821 642 -823 617 -826C620 -805 622 -768 622 -725H391V-781C391 -787 399 -797 409 -803C421 -810 419 -816 405 -816C380 -816 329 -818 303 -822C306 -802 307 -765 308 -725C204 -725 139 -727 73 -734V-651C137 -657 205 -660 308 -660C308 -620 306 -587 304 -560H395C392 -594 391 -627 391 -660Z"/>
</svg>