<svg xmlns="http://www.w3.org/2000/svg" viewBox="0 -1000 1000 1000">
	<path fill="#000000" d="M729 -456H281V-531H729ZM281 -395H729V-322H281ZM592 -665V-584H429V-665ZM670 -730V-790C670 -802 669 -807 678 -812C688 -818 690 -825 678 -825C653 -825 612 -828 586 -832C590 -805 592 -769 592 -730H429V-779C429 -791 430 -796 439 -801C449 -807 447 -813 435 -813C410 -813 371 -816 345 -820C349 -796 351 -765 351 -730C239 -730 143 -733 73 -738V-656C140 -662 240 -665 351 -665V-584C290 -585 244 -587 199 -589C202 -544 204 -489 204 -426C204 -367 202 -306 199 -258C266 -261 340 -261 460 -261C459 -238 457 -218 452 -199C291 -200 180 -203 86 -209V-125C175 -131 278 -134 425 -135C378 -63 276 -22 81 5C110 35 117 46 129 81C356 32 457 -25 507 -116C577 -1 715 49 899 66C905 30 914 7 938 -30C769 -22 658 -51 568 -135C728 -134 835 -131 929 -125V-209C829 -202 714 -199 538 -199C543 -218 547 -239 550 -261C672 -261 744 -260 812 -257C810 -306 809 -367 809 -426C809 -492 810 -549 812 -589C769 -586 726 -585 670 -584V-665C770 -664 858 -661 919 -656V-738C858 -733 770 -730 670 -730Z"/>
</svg>