<svg xmlns="http://www.w3.org/2000/svg" viewBox="0 -1000 1000 1000">
	<path fill="#000000" d="M678 -745V-793C678 -806 680 -810 690 -816C701 -822 699 -831 685 -831C658 -831 623 -834 594 -838C599 -813 601 -792 602 -745H379V-782C379 -795 381 -799 391 -805C402 -811 400 -820 386 -820C359 -820 325 -823 296 -827C300 -805 303 -777 304 -745C196 -746 138 -749 80 -754V-667C136 -672 216 -675 305 -676V-589H379V-676H603V-590H678V-676C777 -675 863 -672 923 -667V-754C863 -749 785 -746 678 -745ZM295 -182C266 -135 192 -63 98 -11C126 0 150 14 171 34C222 -4 258 -33 293 -64C331 -98 362 -121 371 -124C395 -133 396 -140 373 -146C343 -154 315 -165 295 -182ZM883 -45C825 -83 732 -138 664 -174L617 -118C683 -82 779 -17 825 24ZM327 -421V-346C362 -352 403 -355 464 -356V-272C338 -273 252 -276 180 -282V-196C252 -202 338 -205 464 -206V-52C464 -21 438 -2 355 -21C385 17 388 27 396 69C535 51 540 42 540 -9V-206C666 -205 750 -202 823 -196V-282C750 -276 666 -273 540 -272V-355C589 -354 624 -351 655 -346V-407C716 -368 790 -338 898 -307C907 -344 917 -363 949 -400C765 -422 644 -470 546 -590C580 -604 578 -613 563 -614C537 -616 499 -630 467 -649C389 -534 221 -413 47 -365C79 -347 101 -325 114 -299C197 -340 266 -380 327 -421ZM500 -560C551 -490 583 -458 629 -425C594 -421 551 -419 491 -419C421 -419 375 -422 337 -427C399 -470 451 -513 500 -560Z"/>
</svg>