<svg xmlns="http://www.w3.org/2000/svg" viewBox="0 -1000 1000 1000">
	<path fill="#000000" d="M463 -510C276 -510 165 -513 116 -519V-436C175 -443 204 -444 295 -445C261 -352 223 -306 153 -258C177 -247 208 -233 223 -213C262 -250 293 -286 319 -327C362 -296 393 -269 415 -243L471 -305C436 -329 396 -350 347 -378C357 -398 366 -421 375 -445H644C611 -362 579 -319 512 -282C538 -272 562 -256 577 -236C613 -270 642 -300 665 -332C717 -297 767 -252 789 -222L851 -282C816 -310 768 -343 699 -384C710 -402 720 -422 729 -444C802 -443 847 -440 874 -436V-519C839 -514 785 -511 557 -510C547 -541 538 -573 532 -606L436 -588C447 -565 457 -537 463 -510ZM462 -99V-33C462 4 460 36 455 75H548C543 37 541 4 541 -31V-99C718 -99 843 -97 940 -91V-176C843 -170 718 -168 541 -168C541 -188 544 -204 551 -211C561 -222 559 -225 548 -224C530 -222 481 -222 456 -225C459 -209 460 -198 462 -168C287 -168 164 -170 67 -176V-91C164 -97 287 -99 462 -99ZM679 -740V-794C679 -806 684 -817 690 -823C699 -832 697 -837 686 -835C661 -831 617 -833 590 -837C596 -811 599 -782 600 -740H386V-788C386 -800 390 -811 396 -817C405 -826 403 -831 392 -829C367 -825 324 -826 296 -831C302 -806 305 -783 306 -740C216 -741 143 -744 83 -748V-662C140 -667 216 -670 306 -671V-580H386V-671H600V-588H679V-671C773 -670 851 -667 910 -662V-748C851 -743 795 -741 679 -740Z"/>
</svg>