<svg xmlns="http://www.w3.org/2000/svg" viewBox="0 -1000 1000 1000">
	<path fill="#000000" d="M241 -220C211 -226 193 -238 169 -265C137 -156 96 -69 50 14C84 26 111 40 137 59C163 -37 199 -130 241 -220ZM251 -380C209 -408 163 -434 119 -455L74 -388C116 -369 159 -342 200 -306ZM313 -522C276 -554 242 -582 202 -613L147 -554C186 -529 219 -497 255 -458ZM324 -676V-604H397V-676H569V-621H642V-676C762 -676 865 -673 936 -667V-746C865 -740 763 -738 642 -738C643 -770 652 -803 660 -809C671 -818 670 -823 655 -823C629 -822 592 -824 565 -827C568 -804 570 -773 569 -738H397C398 -770 407 -803 415 -809C426 -818 425 -823 410 -823C384 -822 348 -823 320 -827C323 -804 325 -773 324 -738C217 -738 129 -740 63 -746V-667C127 -672 219 -675 324 -676ZM551 -285H751C723 -207 698 -163 657 -125C605 -164 572 -212 551 -285ZM436 -346C438 -382 438 -423 438 -468H592V-346ZM433 -285H482C505 -202 546 -130 601 -79C544 -40 484 -20 381 -3C409 21 427 45 436 71C538 36 610 0 662 -40C733 2 823 45 885 61C892 25 912 -12 941 -46C866 -48 785 -64 717 -92C780 -159 808 -222 848 -351C787 -347 745 -346 664 -346V-468H798L775 -408L848 -388L903 -541C834 -535 762 -530 665 -529C668 -559 672 -582 678 -591C687 -605 683 -610 669 -606C651 -601 622 -601 588 -603C590 -582 591 -561 592 -529C509 -529 434 -530 358 -532C374 -252 351 -113 239 49C271 50 300 59 320 76C393 -60 423 -142 433 -285Z"/>
</svg>