<svg xmlns="http://www.w3.org/2000/svg" viewBox="0 -1000 1000 1000">
	<path fill="#000000" d="M392 -749C392 -775 394 -792 403 -797C413 -803 411 -811 399 -811C374 -811 343 -813 317 -817C321 -798 324 -774 325 -749C206 -750 139 -752 76 -757V-688C137 -693 225 -696 325 -697V-656H392V-697H596V-659H662V-697C770 -696 863 -693 928 -688V-757C863 -752 770 -749 662 -749V-784C662 -796 664 -801 673 -806C683 -812 682 -819 670 -819C645 -819 614 -821 588 -825C593 -804 595 -784 596 -749ZM637 -76C677 -108 695 -130 710 -159C846 -159 879 -158 932 -151V-217C861 -212 721 -207 641 -207H448C467 -226 474 -230 483 -232C496 -235 497 -243 483 -246C472 -248 439 -256 417 -264C404 -243 393 -229 375 -207H249C206 -207 141 -210 71 -217V-151C125 -158 181 -159 337 -159C314 -131 289 -105 264 -84C337 -75 412 -63 484 -49C403 -17 294 -1 145 -7C166 12 183 36 195 62C391 51 495 18 573 -30C683 -4 779 26 840 56C857 17 864 5 885 -18C814 -36 728 -56 637 -76ZM404 -159H631C612 -134 590 -111 563 -92C501 -104 437 -115 374 -123C385 -137 395 -149 404 -159ZM526 -523V-567C689 -567 793 -563 878 -558V-626C792 -621 689 -617 526 -617C526 -631 530 -640 541 -648C550 -654 549 -660 536 -659C509 -658 478 -659 450 -662C453 -651 455 -635 456 -617C312 -618 217 -621 135 -626V-558C244 -564 312 -566 459 -567V-523C326 -523 242 -526 193 -531V-470C239 -473 306 -474 459 -474V-423H291C218 -423 167 -425 101 -431V-365C165 -371 218 -373 291 -373H459V-320C333 -320 245 -323 190 -328V-266C250 -271 312 -272 469 -272C646 -272 734 -269 798 -264C792 -303 790 -324 790 -372C835 -371 874 -369 920 -365V-431C874 -427 836 -425 790 -424C791 -470 793 -502 798 -532C740 -527 673 -524 526 -523ZM727 -423H526V-474H727ZM526 -320V-373H727V-320Z"/>
</svg>