<svg xmlns="http://www.w3.org/2000/svg" viewBox="0 -1000 1000 1000">
	<path fill="#000000" d="M605 -732H395V-775C395 -786 397 -790 405 -794C418 -802 415 -812 400 -812C375 -812 347 -814 321 -817C325 -790 326 -770 326 -732C193 -732 133 -734 73 -739V-655C131 -660 207 -663 326 -663V-584H395V-663H605V-581H671V-663C774 -663 869 -661 930 -655V-739C869 -733 774 -732 671 -732V-775C671 -786 673 -790 681 -794C694 -802 691 -812 676 -812C651 -812 626 -814 600 -817C604 -790 605 -770 605 -732ZM452 -261H278V-321H452ZM523 -321H694V-261H523ZM523 -203H694V-142H523ZM452 -142H278V-203H452ZM350 -486C275 -424 162 -368 34 -338C58 -315 73 -287 79 -259C119 -275 164 -297 207 -320V-165C207 -118 204 -80 198 -33H278V-83H452V-75C452 33 475 52 671 52C832 52 846 37 900 -59C865 -66 838 -80 819 -104C802 -18 788 -10 661 -10C525 -10 523 -21 523 -70V-83H774C768 -118 764 -153 764 -190V-270C764 -283 764 -307 766 -331C804 -309 850 -287 909 -263C915 -292 928 -330 954 -361C832 -368 739 -414 675 -486C761 -486 861 -482 905 -480V-556C836 -552 720 -550 499 -550C504 -555 508 -561 513 -567C527 -584 541 -596 551 -598C568 -602 569 -615 544 -617C515 -619 493 -624 464 -640C457 -613 433 -574 414 -550C267 -550 160 -553 92 -556V-480C150 -483 256 -486 350 -486ZM601 -487C630 -445 658 -410 698 -378H523V-395C523 -415 528 -424 539 -430C549 -436 547 -448 531 -448C499 -448 479 -450 445 -455C448 -444 452 -400 452 -378H305C353 -408 408 -453 442 -487Z"/>
</svg>