<svg xmlns="http://www.w3.org/2000/svg" viewBox="0 -1000 1000 1000">
	<path fill="#000000" d="M334 -98H719V-33H334ZM337 -219H719V-155H334V-218ZM515 -556C515 -588 520 -604 528 -608C541 -614 538 -621 524 -620C500 -619 468 -620 436 -624C441 -608 443 -584 444 -556C333 -556 262 -560 209 -566V-490C261 -495 335 -499 445 -499V-411C302 -411 179 -414 81 -422V-341C178 -346 302 -351 478 -352C435 -327 387 -303 335 -281C298 -283 274 -285 253 -288C255 -280 256 -266 257 -250C194 -227 127 -206 61 -192C86 -171 101 -148 112 -125C157 -141 208 -161 259 -184V-19C259 14 256 43 250 77H334V25H719V64H811C805 41 802 9 802 -31V-193C802 -232 805 -264 810 -288C777 -284 705 -280 640 -280H461C512 -307 557 -332 587 -352C740 -351 850 -346 940 -341V-422C847 -416 728 -412 667 -411C777 -493 841 -534 850 -537C867 -542 869 -549 860 -553C841 -562 808 -583 785 -601C744 -545 685 -493 568 -411H515V-499C579 -498 620 -495 661 -490V-566C622 -561 578 -558 515 -556ZM392 -738V-791C392 -803 394 -807 402 -812C412 -818 410 -826 398 -826C374 -826 337 -828 306 -832C310 -809 315 -774 316 -738C224 -739 146 -741 86 -747V-665C146 -671 225 -675 316 -676V-592H392V-676H600V-605H676V-676C773 -675 857 -670 917 -665V-747C857 -742 773 -739 676 -738V-797C676 -809 678 -813 687 -818C697 -824 695 -832 683 -832C656 -831 623 -833 590 -838C595 -816 599 -780 600 -738Z"/>
</svg>