<svg xmlns="http://www.w3.org/2000/svg" viewBox="0 -1000 1000 1000">
	<path fill="#000000" d="M385 -751V-789C385 -801 387 -805 396 -810C406 -816 404 -824 392 -824C367 -824 330 -827 304 -830C308 -804 310 -786 310 -751C217 -751 137 -754 79 -759V-681C135 -686 224 -690 310 -690V-619H385V-690H608V-619H683V-690C777 -690 866 -686 925 -681V-759C866 -754 781 -751 683 -751V-789C683 -801 685 -805 694 -810C704 -816 702 -824 690 -824C665 -824 628 -827 602 -830C606 -804 608 -782 608 -751ZM765 -60C738 -66 714 -76 691 -103C671 -35 653 -23 616 -19C535 -10 452 -6 401 -13C361 -18 352 -26 352 -50V-130C352 -141 353 -148 361 -153C372 -161 371 -168 353 -166C331 -164 310 -165 278 -172C282 -158 284 -145 284 -120V-29C284 16 314 44 372 52C433 61 560 59 632 51C702 43 722 23 765 -60ZM221 -136L143 -154C135 -104 105 -40 69 11L148 37C180 -20 200 -72 221 -136ZM938 -36C910 -77 861 -128 821 -165L761 -123C800 -83 849 -22 871 20ZM587 -70C566 -110 539 -168 532 -194L455 -169C473 -143 506 -76 513 -44ZM436 -594C310 -594 181 -598 150 -601C152 -585 154 -543 154 -508V-287C154 -252 153 -211 150 -195C186 -197 380 -199 491 -199C602 -199 796 -197 833 -195C831 -211 829 -252 829 -287V-508C829 -543 831 -585 833 -601C799 -598 634 -594 513 -594C531 -622 543 -634 550 -637C567 -644 568 -654 550 -654C516 -654 485 -659 455 -669C452 -646 446 -623 436 -594ZM624 -251L672 -292C642 -309 610 -326 579 -341C643 -380 696 -426 729 -479C701 -478 680 -477 634 -477H460C482 -494 496 -504 505 -507C526 -514 525 -518 507 -522C489 -526 474 -532 458 -543H758V-251ZM352 -251C410 -266 467 -285 518 -309C553 -289 588 -269 614 -251ZM440 -543C405 -497 324 -449 251 -432C269 -414 282 -400 291 -381C331 -396 364 -411 395 -430H610C585 -407 555 -387 521 -370C488 -386 458 -400 435 -409L393 -366C412 -360 432 -351 454 -341C400 -321 340 -306 277 -295C301 -283 312 -269 320 -251H225V-543Z"/>
</svg>