<svg xmlns="http://www.w3.org/2000/svg" viewBox="0 -1000 1000 1000">
	<path fill="#000000" d="M221 -80L151 -115C128 -61 104 -20 71 18L152 58C176 4 196 -35 221 -80ZM751 -41C723 -43 692 -53 668 -76C647 -23 619 -3 572 -1C526 1 453 2 400 -1C362 -3 349 -11 349 -25V-68C349 -80 351 -97 357 -101C368 -112 365 -117 349 -115C329 -114 298 -116 269 -123C273 -108 275 -90 275 -55V-14C275 42 279 47 339 53C384 58 559 60 616 58C670 56 710 34 751 -41ZM929 -24C873 -67 832 -102 790 -142L730 -93C798 -30 824 -4 862 38ZM574 -72C556 -97 538 -121 523 -147L450 -122C468 -93 487 -59 496 -38ZM388 -748V-775C388 -784 392 -794 399 -801C408 -810 406 -816 394 -816C369 -816 338 -819 312 -824C316 -803 318 -780 318 -748C218 -749 137 -752 73 -756V-685C160 -691 219 -693 318 -694V-640H388V-694H611V-648H683V-694C788 -693 877 -690 940 -686V-757C876 -752 788 -749 683 -748V-775C683 -787 686 -794 694 -802C703 -811 702 -816 690 -816C664 -816 631 -818 604 -823C608 -803 610 -785 611 -748ZM531 -458H743V-409H531ZM463 -409H265V-458H463ZM531 -359H743V-309H531ZM463 -309H265V-359H463ZM531 -260C626 -261 697 -260 760 -257L730 -221L531 -216ZM531 -509V-549C684 -549 808 -546 893 -542V-610C810 -605 684 -602 531 -601C532 -616 536 -634 541 -639C554 -650 550 -657 536 -656C509 -655 480 -656 456 -663C458 -648 461 -625 462 -601C306 -601 185 -605 101 -610V-541C187 -545 307 -549 463 -549V-509C336 -510 234 -514 186 -517C190 -501 193 -465 193 -441V-333C193 -305 191 -277 187 -253C270 -255 374 -257 463 -258V-215C349 -211 131 -210 72 -219C85 -196 92 -175 93 -145C127 -150 201 -157 298 -160L798 -173C817 -159 835 -144 856 -126L907 -183C869 -207 839 -227 801 -255C809 -254 815 -254 820 -253C815 -278 814 -314 814 -339V-451C814 -475 817 -503 821 -517C760 -512 700 -510 531 -509Z"/>
</svg>