<svg xmlns="http://www.w3.org/2000/svg" viewBox="0 -1000 1000 1000">
	<path fill="#000000" d="M521 0C504 -25 489 -57 480 -81L394 -57C412 -33 429 4 435 27ZM240 -239C212 -247 194 -257 173 -276C170 -246 155 -187 134 -119C122 -79 102 -36 81 4C111 16 140 31 169 47C178 5 190 -43 204 -91C222 -155 234 -205 240 -239ZM232 -372C192 -397 153 -418 119 -434L74 -376C114 -358 155 -333 188 -304ZM271 -528C238 -556 207 -579 167 -602L120 -552C160 -527 195 -498 226 -466ZM804 -609C792 -624 779 -646 771 -663L705 -637C717 -621 729 -597 736 -579ZM406 -745V-781C406 -791 408 -797 417 -802C427 -808 425 -816 413 -816C388 -816 353 -818 327 -822C332 -799 334 -780 335 -745C232 -745 143 -747 79 -753V-681C142 -687 233 -689 335 -690V-609H406V-690H601V-630H672V-690C772 -690 859 -687 919 -681V-753C859 -748 772 -745 672 -745V-788C672 -800 674 -804 683 -809C693 -815 691 -823 679 -823C653 -822 618 -824 592 -829C596 -805 599 -782 601 -745ZM721 -96V-36C721 -8 713 -3 618 -9C639 17 652 44 656 72C787 55 793 48 793 -9V-96C858 -95 903 -93 930 -91V-158C904 -154 858 -152 793 -151C793 -164 795 -171 799 -174C811 -182 810 -191 788 -189C769 -187 742 -188 713 -192C717 -180 719 -171 720 -151H458C369 -151 303 -153 261 -158V-91C301 -95 371 -96 458 -96ZM779 -281H617V-331H779ZM402 -331H553V-281H402ZM553 -423V-374H402V-423ZM779 -374H617V-423H779ZM553 -521V-468C424 -468 382 -471 330 -477C334 -459 336 -437 336 -388V-287C336 -249 333 -215 327 -181H402V-236H552C552 -218 550 -200 548 -183H623C621 -199 619 -218 618 -236H779V-191H853C847 -229 843 -267 843 -301V-388C843 -437 846 -464 850 -477C799 -471 754 -468 617 -468V-521C752 -520 830 -517 907 -513V-579C837 -574 752 -571 617 -570V-590C617 -598 621 -605 631 -609C648 -616 645 -628 624 -626C605 -624 573 -626 545 -630C550 -617 552 -606 553 -570C431 -570 362 -573 306 -579V-513C361 -517 432 -520 553 -521Z"/>
</svg>