<svg xmlns="http://www.w3.org/2000/svg" viewBox="0 -1000 1000 1000">
	<path fill="#000000" d="M463 -104H222V-143H463ZM836 -52C834 -68 832 -88 832 -109V-215C832 -236 834 -258 836 -276C753 -272 672 -271 494 -271C317 -271 238 -272 152 -276C155 -257 156 -235 156 -215V-110C156 -88 155 -68 152 -52C233 -55 314 -56 494 -56C672 -56 757 -55 836 -52ZM763 -104H532V-143H763ZM463 -185H222V-224H463ZM763 -185H532V-224H763ZM463 -422H227V-453H463ZM832 -373C829 -389 828 -405 828 -426V-516C828 -537 829 -557 832 -576C749 -573 673 -572 495 -572C318 -572 244 -573 158 -576C161 -557 162 -536 162 -516V-427C162 -405 160 -389 158 -373C239 -375 315 -376 495 -376C673 -376 753 -375 832 -373ZM758 -422H531V-453H758ZM463 -494H227V-526H463ZM758 -494H531V-526H758ZM919 44V-24C818 -19 690 -17 505 -17C319 -17 186 -19 85 -24V44C185 40 319 37 505 37C690 37 818 40 919 44ZM945 -295V-355C841 -352 693 -349 503 -349C312 -349 154 -352 50 -355V-295C153 -299 312 -302 503 -302C693 -302 841 -299 945 -295ZM504 -606C744 -606 822 -605 884 -599V-661C822 -657 744 -655 655 -655H364C268 -655 183 -657 119 -661V-599C183 -605 268 -606 504 -606ZM380 -761V-787C380 -796 383 -803 393 -808C407 -815 402 -823 388 -822C360 -820 334 -822 305 -828C309 -808 312 -778 312 -761C236 -761 134 -765 67 -769V-696C132 -702 235 -708 312 -708V-675H380V-709H618V-669H686V-709C758 -709 846 -705 914 -700V-769C847 -765 760 -761 686 -761V-788C686 -799 689 -803 699 -808C710 -814 708 -823 694 -822C664 -821 637 -823 611 -828C616 -805 618 -791 618 -761Z"/>
</svg>