<svg xmlns="http://www.w3.org/2000/svg" viewBox="0 -1000 1000 1000">
	<path fill="#000000" d="M884 -611C868 -630 858 -642 843 -658L774 -624C789 -610 802 -596 814 -576ZM410 -736V-779C410 -791 413 -796 420 -800C430 -806 428 -814 416 -814C391 -814 363 -817 337 -820C341 -798 344 -768 344 -736C240 -736 149 -738 84 -744V-669C147 -675 240 -677 345 -678V-604H410V-678H575V-613H641V-678C753 -678 850 -675 917 -669V-744C850 -738 753 -736 641 -736V-779C641 -791 642 -795 651 -800C661 -806 659 -814 647 -814C622 -814 593 -817 567 -820C571 -797 574 -769 575 -736ZM486 -405V-324H410V-405ZM410 -158H483V-66H410ZM410 -274H564V-208H410ZM648 -509C655 -384 674 -265 714 -144C680 -89 645 -47 602 -13V-75C588 -69 577 -67 542 -66V-158C580 -158 605 -157 625 -154C622 -178 621 -211 621 -246C621 -278 622 -308 625 -330C608 -327 584 -325 544 -324V-404C576 -403 600 -401 623 -398V-467C587 -463 559 -461 484 -461C403 -461 366 -464 344 -468C348 -429 350 -379 350 -332V-149C350 -99 348 -35 346 -1C379 -5 405 -7 485 -7C554 -7 574 -6 591 -4C569 12 544 27 517 39C543 49 561 59 592 82C659 34 695 -4 743 -69C762 -30 783 4 800 22C876 105 913 109 955 -35C932 -40 907 -56 889 -87C885 7 857 11 787 -139C814 -196 847 -288 861 -346C869 -376 878 -405 886 -410C899 -418 897 -422 883 -424C870 -426 841 -434 806 -445C803 -369 784 -291 755 -224C745 -263 737 -311 729 -370C720 -438 716 -474 713 -509C825 -509 873 -507 913 -502V-574C882 -571 852 -569 713 -567C715 -583 718 -595 721 -598C737 -614 737 -618 716 -617C690 -616 669 -617 644 -621C645 -600 646 -583 647 -567C408 -567 292 -570 238 -574C239 -522 239 -475 239 -432H178V-539C178 -556 182 -567 192 -573C207 -582 203 -590 190 -589C168 -587 137 -588 110 -591C113 -569 115 -550 115 -518V-449C115 -421 114 -406 108 -374C137 -377 150 -377 201 -377H238C238 -349 237 -323 236 -299C140 -299 107 -301 75 -305V-232C88 -234 102 -235 120 -236C112 -131 93 -75 46 -11C76 0 99 10 120 24C152 -62 168 -128 175 -238H233C223 -64 196 6 141 72C174 74 192 79 219 92C283 -32 298 -125 303 -509Z"/>
</svg>