<svg xmlns="http://www.w3.org/2000/svg" viewBox="0 -1000 1000 1000">
	<path fill="#000000" d="M591 -85C585 -98 582 -115 583 -135C516 -102 453 -81 404 -69C421 -47 433 -28 445 -3C487 -32 545 -64 591 -85ZM577 -171C567 -188 548 -207 530 -223L475 -183C494 -168 505 -153 517 -133ZM554 -546C539 -573 524 -591 506 -615L436 -580C460 -558 473 -541 489 -515ZM849 -593C832 -599 808 -614 780 -631C763 -603 735 -568 708 -544C734 -537 749 -530 769 -518C814 -566 834 -578 845 -579C859 -580 860 -589 849 -593ZM406 -743V-792C406 -804 408 -808 417 -813C427 -819 425 -827 413 -827C388 -827 359 -827 332 -829C335 -805 337 -781 337 -743C228 -743 139 -746 72 -751V-671C137 -677 229 -679 337 -679V-610H406V-679H574V-626H645V-679C755 -679 846 -677 912 -671V-751C846 -745 755 -743 645 -743V-797C645 -809 647 -813 656 -818C666 -824 664 -832 652 -832C627 -832 594 -832 568 -835C571 -810 573 -789 574 -743ZM590 -330H712C752 -266 810 -216 898 -177C901 -203 926 -236 948 -251C868 -268 819 -290 781 -329C831 -329 865 -327 902 -323V-390C852 -386 814 -385 728 -385H621C630 -404 637 -424 643 -443H693C767 -443 824 -441 869 -437V-506C814 -501 755 -499 657 -499C662 -524 663 -534 669 -562C672 -576 680 -595 686 -599C698 -607 695 -610 683 -610C658 -610 632 -611 601 -616C600 -582 597 -552 586 -499C509 -500 458 -502 410 -506V-437C452 -440 505 -443 572 -443C566 -424 557 -406 544 -385C483 -385 434 -386 392 -390V-323C426 -326 462 -328 505 -329C480 -301 434 -262 366 -223C384 -208 398 -189 407 -167C499 -233 564 -298 590 -330ZM186 -197H286V-49C286 -24 273 -9 206 -29C227 3 237 33 239 57C341 39 353 25 353 -20V-478C353 -526 354 -564 356 -585C321 -581 286 -580 236 -580C187 -580 153 -581 117 -585C119 -564 120 -526 120 -478V-298C120 -168 100 -74 57 5C76 19 91 34 109 57C147 -15 182 -130 186 -197ZM286 -415H187V-523H286ZM187 -362H286V-251H187ZM748 -131C798 -165 809 -172 819 -172C835 -172 836 -180 825 -185C805 -194 787 -209 763 -230C753 -211 736 -186 706 -155C698 -161 688 -167 678 -173V-238C678 -251 680 -255 688 -260C701 -268 699 -277 680 -277C648 -277 635 -279 609 -282C613 -261 614 -241 614 -200V-37C614 -20 598 -15 530 -19C552 5 566 33 569 60C670 40 678 30 678 -18V-121C730 -84 796 -37 847 1L895 -63C826 -92 789 -109 748 -131Z"/>
</svg>