<svg xmlns="http://www.w3.org/2000/svg" viewBox="0 -1000 1000 1000">
	<path fill="#000000" d="M387 -452H194V-490H387ZM797 -454H602V-493H797ZM869 -37V-542C869 -574 870 -605 871 -629C842 -627 811 -626 782 -626H622C593 -626 562 -626 533 -629C536 -605 537 -575 537 -542V-480C537 -447 536 -424 533 -401C562 -403 593 -404 622 -404H797V-58C797 -7 785 2 683 -8C719 18 726 38 726 79C846 69 869 48 869 -37ZM387 -533H194V-572H387ZM797 -535H602V-575H797ZM381 -113H514V-70H381ZM381 -198H514V-157H381ZM381 -283H514V-243H381ZM320 -230V-80C320 -54 317 -7 312 33H381V-24H565C634 -24 711 -21 743 -18V-78C700 -73 636 -70 579 -70V-113C625 -113 687 -110 721 -106V-165C689 -161 633 -157 579 -157V-198C627 -198 691 -195 725 -191V-251C692 -247 629 -243 579 -243V-283C642 -283 707 -280 746 -276V-338C710 -333 647 -330 583 -330C575 -351 570 -373 568 -391L482 -374C493 -363 506 -345 513 -330H400C416 -350 426 -358 435 -361C450 -366 450 -372 432 -378C411 -385 394 -393 378 -403C404 -403 431 -402 457 -400C454 -423 453 -454 453 -487V-540C453 -573 454 -603 457 -627C428 -624 397 -624 368 -624H211C182 -624 151 -625 122 -627C123 -603 124 -572 124 -540V-119C124 -49 122 -1 116 67H202C196 1 194 -49 194 -119V-403H371C332 -324 266 -252 210 -216C237 -203 247 -191 260 -167C280 -185 291 -195 320 -230ZM391 -755V-787C391 -799 393 -803 402 -808C412 -814 410 -822 398 -822C373 -822 335 -825 309 -828C313 -806 314 -790 315 -755C207 -755 115 -757 51 -762V-685C114 -690 216 -694 315 -694V-644H391V-694H599V-646H675V-694C785 -694 881 -691 944 -685V-762C880 -757 785 -755 675 -755V-789C675 -801 677 -805 686 -810C696 -816 694 -824 682 -824C657 -824 619 -827 593 -830C597 -808 598 -790 599 -755Z"/>
</svg>