<svg xmlns="http://www.w3.org/2000/svg" viewBox="0 -1000 1000 1000">
	<path fill="#000000" d="M792 -143H566V-203H792ZM792 -259H566V-310H792ZM792 -369H566V-418H792ZM935 12C883 -22 833 -48 759 -79L711 -27C761 -7 832 34 878 73ZM642 -34C619 -47 599 -62 582 -80C526 -39 446 -1 367 9C385 24 407 48 424 72C475 57 546 28 594 3C614 -7 626 -13 638 -14C653 -15 655 -26 642 -34ZM233 -269C248 -278 245 -285 226 -289C204 -294 184 -302 153 -317C140 -246 110 -179 69 -134C101 -129 122 -124 152 -114C175 -155 193 -196 207 -237C213 -253 224 -264 233 -269ZM273 -401H206V-543C206 -563 208 -572 212 -575C224 -582 223 -589 202 -590C176 -591 155 -594 133 -599C136 -586 140 -550 140 -511V-401C125 -401 89 -403 70 -405V-335C96 -338 121 -340 196 -340H269V-85C209 -45 135 -13 52 3C80 21 100 42 111 69C229 30 320 -21 390 -107C404 -124 434 -169 448 -194C466 -227 475 -237 481 -241C499 -252 496 -261 477 -264C455 -268 427 -280 410 -294C391 -233 362 -175 339 -145V-340C429 -340 450 -338 466 -335V-405C448 -402 429 -401 338 -401V-481H392C418 -481 437 -481 454 -479V-545C438 -544 418 -543 391 -543H338V-574C338 -594 345 -610 354 -617H416V-690H578V-627H651V-690C763 -690 856 -687 923 -681V-761C856 -756 763 -753 651 -753V-794C651 -806 653 -810 662 -815C674 -822 670 -830 658 -829C638 -828 598 -831 572 -835C577 -809 578 -790 578 -753H416V-793C416 -805 418 -809 427 -814C438 -820 435 -830 423 -830C396 -829 367 -832 341 -836C345 -811 347 -789 347 -753C234 -753 139 -756 70 -761V-681C137 -687 235 -690 347 -690V-633C319 -633 295 -635 269 -639C272 -627 273 -603 273 -550ZM626 -545C624 -524 619 -499 612 -478C568 -478 521 -481 495 -486C499 -465 501 -428 501 -394V-161C501 -127 498 -94 495 -77C529 -81 570 -83 677 -83C785 -83 833 -81 868 -77C866 -96 864 -127 864 -161V-394C864 -428 866 -469 868 -486C834 -480 787 -478 684 -478C691 -498 699 -524 705 -545C798 -545 862 -543 913 -539V-611C859 -607 791 -605 690 -605C587 -605 521 -607 467 -611V-539C508 -543 563 -545 626 -545Z"/>
</svg>