<svg xmlns="http://www.w3.org/2000/svg" viewBox="0 -1000 1000 1000">
	<path fill="#000000" d="M658 -546H778V-360H538V-546H646C630 -501 604 -458 542 -401C566 -393 583 -381 594 -367C619 -407 639 -435 654 -456C682 -433 702 -410 724 -379L768 -416C739 -444 721 -461 681 -490C694 -504 702 -509 707 -511C721 -519 721 -527 708 -529C689 -532 675 -537 658 -546ZM569 -197V-22H516V-197ZM688 -197V-22H632V-197ZM812 -22H751V-197H812ZM452 -23C441 -23 413 -26 390 -30V49C435 44 498 40 673 40C843 40 901 43 952 49V-30C926 -25 907 -23 881 -23V-195C881 -214 881 -240 882 -259C834 -258 784 -257 667 -257C549 -257 498 -258 451 -259C452 -240 452 -214 452 -195ZM173 -139L108 -143C111 -94 98 -32 75 33L148 40C159 -1 171 -87 173 -139ZM294 -5C293 -48 286 -104 273 -151L214 -140C224 -95 231 -50 224 5ZM423 -45C414 -88 401 -129 386 -171L326 -154C341 -116 353 -71 356 -25ZM237 -380C215 -354 195 -332 162 -299C145 -282 125 -271 84 -265C97 -240 107 -207 113 -180C129 -185 155 -192 170 -194L350 -222C352 -211 353 -199 355 -186L425 -204C405 -266 392 -304 373 -358L309 -337C322 -318 331 -300 338 -276L195 -257C243 -302 332 -402 354 -431C370 -452 394 -476 405 -479C418 -483 418 -494 405 -497C392 -500 358 -525 339 -545C325 -511 303 -472 282 -440L168 -433C211 -490 227 -514 254 -558C263 -573 274 -580 283 -583C301 -589 300 -598 281 -606C260 -615 235 -629 209 -644C185 -573 171 -538 152 -507C122 -458 112 -449 75 -443C84 -425 96 -390 102 -364C118 -370 126 -372 165 -375ZM403 -731V-773C403 -785 405 -789 414 -794C424 -800 422 -808 410 -808C384 -807 349 -810 323 -814C328 -789 329 -766 329 -731C223 -731 131 -733 64 -739V-659C129 -664 233 -668 329 -668V-581H403V-668H575V-596C546 -596 486 -600 471 -602C473 -584 475 -546 475 -504V-397C475 -372 473 -323 471 -298C498 -302 516 -302 661 -302C806 -302 830 -301 852 -298C850 -320 849 -372 849 -397V-504C849 -546 850 -584 851 -602C834 -599 779 -596 733 -596H650V-668C765 -668 866 -665 935 -659V-739C862 -734 765 -731 650 -731V-774C650 -786 652 -790 661 -795C671 -801 669 -809 657 -809C632 -809 595 -812 569 -815C573 -793 575 -770 575 -731Z"/>
</svg>