<svg xmlns="http://www.w3.org/2000/svg" viewBox="0 -1000 1000 1000">
	<path fill="#000000" d="M756 -328H384V-372H756ZM827 -277C824 -301 822 -326 822 -352C822 -377 824 -401 827 -425C763 -421 722 -420 572 -420C448 -420 377 -421 314 -425C317 -400 318 -377 318 -352C318 -328 317 -302 314 -277C377 -280 448 -281 572 -281C696 -281 764 -280 827 -277ZM523 -186C524 -168 523 -153 522 -140C396 -140 305 -141 235 -145V-85C303 -88 390 -90 509 -91C481 -41 390 -6 235 4C261 31 274 52 281 74C428 49 530 -13 574 -88C618 -12 704 38 900 68C899 38 905 9 923 -17C756 -25 687 -41 632 -91C795 -90 867 -88 933 -85V-145C859 -141 814 -140 591 -140C593 -153 594 -168 594 -186C697 -186 797 -184 853 -180V-241C790 -237 721 -236 557 -236C440 -236 349 -237 287 -241V-180C343 -184 422 -186 523 -186ZM409 -692C230 -692 179 -693 137 -696C141 -572 142 -473 141 -368C140 -174 127 -85 48 21C77 32 99 47 121 68C196 -55 217 -147 218 -391C218 -455 218 -559 218 -638H432V-582C353 -573 290 -567 244 -565L252 -501C295 -509 357 -519 432 -529C432 -465 452 -456 571 -456C649 -456 704 -457 745 -460C836 -467 848 -479 890 -546C869 -543 841 -553 811 -581C793 -530 782 -521 725 -513C689 -508 658 -506 562 -506C513 -506 499 -512 499 -537C628 -555 691 -562 743 -564L735 -623C685 -612 602 -600 498 -590V-638H843L827 -597L903 -588L936 -705C849 -697 734 -692 482 -692V-739H645C718 -739 775 -737 850 -733V-805C776 -797 718 -795 645 -795H487C491 -806 497 -815 504 -820C516 -829 515 -834 500 -833C464 -831 438 -832 398 -837C407 -813 409 -793 409 -742Z"/>
</svg>