<svg xmlns="http://www.w3.org/2000/svg" viewBox="0 -1000 1000 1000">
	<path fill="#000000" d="M313 -541C298 -592 285 -623 263 -661L202 -634C222 -599 235 -570 250 -516ZM896 -804C915 -820 910 -827 889 -825C871 -823 847 -824 808 -828C814 -801 816 -755 816 -673V-61C816 -24 803 -15 702 -22C733 18 740 39 746 72C884 46 889 31 889 -41V-771C889 -792 891 -800 896 -804ZM739 -692C752 -703 749 -711 729 -709C708 -707 693 -708 658 -713C661 -688 662 -649 662 -601V-266C662 -228 661 -191 658 -144H738C735 -189 734 -228 734 -266V-658C734 -683 735 -689 739 -692ZM161 -447H307V-190H258C256 -339 258 -364 261 -369C270 -383 267 -386 253 -385C240 -384 221 -385 194 -389C197 -350 197 -310 193 -125C217 -131 245 -134 337 -134C433 -134 455 -131 478 -125C471 -340 473 -367 477 -373C485 -385 483 -388 468 -387C457 -386 439 -386 409 -389C413 -364 414 -324 413 -190H366V-447H517V-75C517 -35 499 -22 403 -27C430 6 438 24 441 62C577 39 592 14 592 -59V-584C592 -674 593 -745 596 -777C564 -771 522 -768 335 -768C150 -768 117 -771 85 -777C87 -744 87 -676 87 -584V-185C87 -65 84 -4 77 54H161ZM517 -504H398C450 -608 465 -624 474 -629C487 -637 486 -645 471 -647C447 -650 426 -656 398 -670C388 -628 369 -574 342 -504H161V-705H517Z"/>
</svg>