<svg xmlns="http://www.w3.org/2000/svg" viewBox="0 -1000 1000 1000">
	<path fill="#000000" d="M705 -706C806 -706 874 -702 928 -696V-781C874 -775 806 -772 705 -772C604 -772 535 -775 481 -781V-696C534 -702 604 -706 705 -706ZM820 -477L574 -469C677 -607 708 -637 725 -643C744 -650 743 -662 726 -666C704 -671 658 -685 633 -699C567 -549 511 -472 469 -462C479 -438 487 -410 491 -386C519 -397 557 -404 660 -410V-270C595 -271 545 -274 506 -279V-197C545 -202 595 -206 660 -207V-41C573 -42 511 -46 460 -52V36C518 30 594 27 705 27C816 27 892 30 951 36V-52C897 -46 829 -42 734 -41V-207C808 -206 863 -202 904 -197V-279C863 -274 808 -271 734 -270V-414L849 -420C857 -403 865 -387 871 -372L942 -409C903 -483 862 -553 819 -617L753 -585C771 -562 796 -521 820 -477ZM152 -303H222V-116C123 -96 89 -93 59 -93C72 -61 82 -30 89 2C112 -10 176 -32 220 -45L402 -98C406 -81 409 -64 412 -47L482 -75C457 -132 434 -193 416 -251L355 -235C368 -207 379 -178 387 -150L291 -130V-303H363V-278H434C429 -315 428 -345 428 -384V-563C428 -598 431 -631 436 -656C408 -652 370 -649 291 -648V-737C291 -758 299 -782 314 -793C325 -801 324 -809 309 -809C281 -809 242 -813 213 -818C218 -793 222 -756 222 -648C147 -649 109 -652 77 -656C79 -643 85 -599 85 -563V-318C85 -285 83 -253 77 -207H152ZM222 -588V-362H152V-588ZM363 -362H291V-588H363Z"/>
</svg>