<svg xmlns="http://www.w3.org/2000/svg" viewBox="0 -1000 1000 1000">
	<path fill="#000000" d="M145 -299H204V-96C142 -82 81 -74 44 -73C57 -45 63 -20 69 11C87 -3 143 -21 192 -35L345 -77C347 -64 349 -50 351 -36L418 -57C405 -120 391 -174 374 -232L307 -213C318 -184 327 -156 334 -127L266 -111V-299H333V-272H399C398 -312 397 -348 397 -401V-565C397 -599 398 -633 399 -650C376 -648 336 -647 266 -647V-748C266 -769 270 -775 288 -784C301 -790 298 -799 284 -800C256 -802 229 -806 200 -812C203 -794 204 -734 204 -705V-647C141 -647 103 -648 76 -650C78 -637 79 -600 79 -565V-333C79 -288 78 -261 76 -224H145ZM204 -588V-359H145V-588ZM333 -359H266V-588H333ZM581 -251V-26H518V-251ZM703 -251V-26H643V-251ZM832 -26H767V-251H832ZM452 -27C433 -28 416 -30 396 -35V44C430 37 499 34 670 34C839 34 918 39 951 44V-35C937 -31 922 -28 896 -27V-229C896 -253 898 -292 901 -313C854 -310 785 -309 669 -309C554 -309 496 -310 449 -313C451 -292 452 -254 452 -229ZM717 -560V-606L813 -674C835 -688 852 -694 878 -698V-769C832 -764 788 -763 668 -763C548 -763 503 -764 459 -767V-693C501 -698 554 -701 752 -701L649 -625V-560C552 -561 487 -564 430 -569V-492C487 -497 552 -499 649 -500V-441C649 -415 643 -410 558 -411C576 -385 583 -366 588 -343C710 -353 717 -357 717 -414V-500C823 -500 897 -498 957 -492V-569C897 -563 823 -560 717 -560Z"/>
</svg>