<svg xmlns="http://www.w3.org/2000/svg" viewBox="0 -1000 1000 1000">
	<path fill="#000000" d="M724 -136H627V-263H724ZM794 -74C791 -102 790 -153 790 -198C790 -245 791 -290 794 -323C765 -320 730 -319 676 -319C623 -319 587 -320 558 -323C560 -297 562 -249 562 -198C562 -145 560 -99 558 -74C587 -77 623 -78 676 -78C729 -78 765 -77 794 -74ZM207 -376H151V-582H207ZM274 -582H334V-376H274ZM274 -644V-774C274 -791 278 -803 292 -812C303 -819 301 -826 288 -826C256 -825 239 -826 203 -833C206 -811 207 -789 207 -644C144 -644 106 -645 80 -647C82 -632 83 -595 83 -560V-424C83 -390 82 -350 79 -312C102 -314 155 -315 207 -315V-112C104 -94 68 -90 42 -89C57 -59 69 -29 75 0C97 -12 121 -22 201 -43L354 -83C358 -65 361 -47 363 -29L430 -52C416 -122 392 -186 365 -245L307 -222C320 -194 331 -165 340 -135L274 -124V-315C326 -315 380 -314 407 -312C405 -349 404 -390 404 -424V-560C404 -594 405 -629 407 -647C385 -645 343 -644 274 -644ZM555 -586H650V-444H555ZM798 -444H717V-576C717 -609 718 -631 721 -651C708 -647 689 -646 643 -646H555V-727H798ZM486 -444C480 -444 449 -446 431 -448C436 -432 438 -406 438 -364V-32C438 2 436 35 431 67H509V-386H854L855 -42C855 -10 848 -5 777 -12C793 23 797 41 800 72C922 56 931 42 931 -39V-365C931 -402 931 -424 933 -448C915 -446 889 -444 872 -444V-690C872 -735 874 -773 876 -795C841 -791 786 -790 680 -790C574 -790 525 -791 483 -795C485 -770 486 -736 486 -690Z"/>
</svg>