<svg xmlns="http://www.w3.org/2000/svg" viewBox="0 -1000 1000 1000">
	<path fill="#000000" d="M642 -577C632 -610 625 -629 612 -656L543 -634C557 -609 566 -582 573 -551ZM140 -302H207V-102C157 -91 89 -81 47 -81C59 -53 69 -19 76 15C103 -1 134 -15 177 -29L370 -90C375 -72 379 -53 384 -32L454 -62C432 -122 417 -160 392 -217L331 -205C342 -181 350 -159 357 -137L270 -117V-302H338V-260H408C404 -295 402 -339 402 -392V-550C402 -585 405 -624 408 -640C385 -637 342 -635 270 -634V-748C270 -763 280 -783 291 -789C303 -795 300 -804 287 -805C260 -807 229 -809 201 -812C204 -791 207 -753 207 -710V-634C139 -635 97 -637 70 -640C73 -621 75 -586 75 -550V-351C75 -318 73 -278 69 -240H140ZM207 -576V-355H140V-576ZM338 -355H270V-576H338ZM649 -217C654 -243 656 -261 657 -289C768 -288 901 -286 955 -281V-353C903 -349 834 -346 741 -345C733 -373 720 -423 715 -448L639 -432C648 -409 658 -376 666 -345C568 -345 488 -348 444 -353V-281C482 -287 523 -289 585 -289C583 -225 576 -197 555 -138C529 -64 464 2 380 35C413 53 426 63 449 84C569 -7 613 -76 635 -156H783C776 -19 766 -16 663 -24C680 3 688 31 691 65C816 51 831 34 841 -11C850 -51 856 -93 872 -223C845 -218 819 -217 739 -217ZM761 -532C801 -601 809 -612 825 -625C837 -634 837 -639 824 -643C806 -649 777 -660 751 -670C743 -630 732 -596 703 -532C599 -533 509 -537 453 -542V-402H521V-477H862V-411H931V-542C882 -536 819 -532 761 -532ZM659 -734C563 -735 493 -738 440 -744V-669C497 -676 581 -679 695 -679C808 -679 890 -676 949 -669V-744C898 -738 831 -735 742 -734C734 -776 731 -792 725 -828L638 -820C647 -789 652 -768 659 -734Z"/>
</svg>