<svg xmlns="http://www.w3.org/2000/svg" viewBox="0 -1000 1000 1000">
	<path fill="#000000" d="M649 -475C574 -361 545 -331 520 -324C534 -307 539 -284 539 -266C571 -280 609 -288 648 -292L736 -301C744 -283 750 -266 753 -256L813 -279C791 -332 771 -380 750 -428L696 -401C702 -388 711 -366 720 -343L604 -332C634 -369 660 -403 692 -449C741 -520 775 -551 786 -552C798 -553 799 -560 787 -563C769 -567 741 -579 718 -600C714 -585 693 -546 678 -522L593 -509C608 -535 620 -557 629 -574C645 -604 651 -612 663 -618C677 -626 676 -631 666 -633C648 -638 624 -645 600 -655C568 -543 550 -517 524 -506C534 -491 538 -472 538 -455C557 -460 577 -463 598 -467ZM531 -387C512 -396 494 -408 478 -427C469 -395 460 -369 450 -346C440 -321 427 -299 408 -273C428 -257 450 -238 469 -218C479 -256 494 -299 502 -322C513 -353 521 -369 531 -387ZM940 -313C909 -349 883 -383 857 -421L801 -386C832 -347 857 -310 879 -272ZM908 -567C892 -575 863 -593 836 -615C817 -572 789 -526 760 -494C781 -490 797 -481 812 -467C831 -493 849 -515 861 -528C875 -544 893 -558 906 -559C915 -560 914 -565 908 -567ZM519 -521C500 -555 487 -577 469 -611L411 -586C432 -555 452 -520 466 -490ZM152 -297H212V-94C135 -81 91 -79 66 -80C75 -55 82 -25 84 7C101 -7 134 -20 178 -29L364 -68C367 -51 370 -35 372 -17L444 -41C422 -97 405 -147 388 -204L325 -186C336 -162 344 -141 351 -118L273 -104V-297H331V-260H399C396 -293 393 -343 393 -400V-536C393 -570 396 -623 399 -645C374 -642 342 -640 273 -639V-745C273 -759 275 -768 291 -780C309 -793 302 -802 288 -801C266 -799 233 -801 205 -806C210 -788 212 -736 212 -708V-639C146 -640 115 -641 85 -645C90 -620 91 -571 91 -536V-349C91 -293 89 -241 85 -206H152ZM212 -585V-351H152V-585ZM331 -351H273V-585H331ZM704 -170C704 -218 709 -237 717 -243C735 -255 734 -258 711 -258C676 -258 661 -259 627 -265C632 -246 634 -217 635 -170C553 -171 510 -173 436 -178V-105C510 -110 553 -113 635 -114V-30C635 2 633 32 626 70H714C707 29 704 -1 704 -30V-114C785 -114 841 -111 921 -105V-178C843 -173 785 -170 704 -170ZM640 -721C550 -721 489 -722 426 -730V-658C498 -664 568 -666 689 -666C791 -666 835 -665 911 -658V-730C841 -724 793 -721 713 -721C704 -759 698 -789 692 -823L607 -809C621 -781 631 -752 640 -721Z"/>
</svg>