<svg xmlns="http://www.w3.org/2000/svg" viewBox="0 -1000 1000 1000">
	<path fill="#000000" d="M669 -202H585V-285H669ZM736 -285H826V-202H736ZM736 -348C736 -389 740 -395 746 -398C765 -407 762 -418 744 -417C705 -415 690 -416 662 -421C666 -407 669 -375 669 -348C606 -348 556 -351 514 -355C516 -322 518 -282 518 -240C518 -201 516 -166 514 -136C554 -140 614 -142 669 -142V-46C587 -40 550 -41 508 -47C523 -19 531 8 533 36C571 27 606 21 675 14L846 -4C858 25 867 52 872 70L943 40C927 -3 898 -58 857 -124L794 -101C803 -89 812 -75 819 -60L736 -52V-142C802 -142 854 -140 896 -135C894 -164 893 -199 893 -239C893 -281 894 -320 896 -355C851 -350 813 -348 736 -348ZM253 -200H167V-285H253ZM318 -285H400V-200H318ZM318 -342C318 -382 321 -389 328 -392C345 -398 344 -410 326 -409C296 -407 274 -408 246 -412C249 -397 252 -367 252 -342C195 -342 138 -344 95 -348C97 -322 98 -284 98 -243C98 -202 97 -165 95 -138C135 -141 181 -142 253 -142V-51C126 -42 90 -41 46 -46C60 -20 66 4 66 33C109 24 154 17 221 10L415 -10C422 10 427 29 429 43L505 21C486 -31 466 -78 439 -130L374 -104C380 -95 388 -79 395 -61L318 -55V-142C390 -142 437 -140 471 -137C470 -165 469 -203 469 -245C469 -286 470 -322 471 -348C428 -344 378 -342 318 -342ZM454 -618H229V-691H454ZM528 -691H760V-618H528ZM528 -558H728C746 -558 761 -558 776 -557L745 -534C755 -523 765 -511 775 -498L528 -492ZM528 -752C528 -808 529 -815 538 -818C556 -825 553 -837 536 -836C497 -834 478 -835 447 -840C451 -828 454 -792 454 -752C314 -752 227 -754 151 -759C154 -728 155 -692 155 -652C155 -614 153 -581 151 -554C183 -557 216 -558 258 -558H454V-490C182 -483 122 -484 76 -489C89 -465 96 -434 97 -408C132 -416 229 -426 306 -429L813 -445C826 -425 838 -404 849 -382L910 -424C874 -472 840 -515 803 -556C814 -555 824 -554 835 -553C833 -582 832 -617 832 -656C832 -696 833 -731 835 -759C757 -754 677 -752 528 -752Z"/>
</svg>