<svg xmlns="http://www.w3.org/2000/svg" viewBox="0 -1000 1000 1000">
	<path fill="#000000" d="M895 -324C879 -359 865 -382 841 -417L773 -387C792 -363 806 -339 822 -301ZM776 -131C767 -162 759 -198 755 -234C847 -234 903 -232 937 -227V-297C903 -292 852 -291 750 -291C745 -382 747 -392 751 -396C766 -411 763 -415 748 -414C728 -412 704 -413 677 -416C680 -370 682 -328 685 -291H572C572 -324 572 -350 572 -350C601 -355 626 -358 632 -358C651 -359 653 -367 639 -380C627 -391 611 -405 596 -423C542 -399 499 -386 394 -376C406 -364 416 -346 427 -320C439 -322 470 -328 505 -336V-291C458 -292 422 -293 395 -297V-227C422 -231 457 -233 505 -233V-142C475 -136 445 -132 410 -128C425 -102 435 -81 439 -58C458 -66 480 -74 505 -81V-40C505 -9 498 -3 424 -11C445 24 452 44 454 69C565 47 572 38 572 -17V-97C598 -102 626 -107 655 -111C650 -134 649 -159 651 -186C621 -175 595 -166 572 -158V-234H690C697 -165 709 -124 727 -80C680 -35 636 -6 593 12C633 28 649 40 664 54C702 27 731 3 759 -23C789 19 822 48 845 59C900 86 931 88 954 -40C928 -47 913 -54 883 -78C877 -4 870 -2 823 -44C816 -50 809 -59 803 -69C822 -89 841 -111 863 -138C878 -157 888 -165 901 -167C922 -170 919 -185 906 -188C881 -194 856 -205 834 -217C815 -183 797 -156 776 -131ZM526 -721C497 -721 458 -724 405 -729V-656C479 -663 520 -664 622 -664V-605C546 -605 478 -609 430 -615V-540C478 -546 549 -550 622 -550V-491C527 -491 465 -494 409 -500V-426C473 -433 546 -436 666 -436C787 -436 861 -433 925 -426V-500C866 -494 799 -491 694 -491V-550C772 -550 833 -546 881 -540V-615C833 -609 767 -605 694 -605V-664C813 -664 861 -662 922 -656V-728C870 -723 830 -721 781 -721C806 -765 818 -779 833 -787C849 -796 848 -800 834 -804C807 -811 785 -818 756 -833C746 -799 727 -761 702 -721H565L607 -743C588 -777 568 -805 550 -829L476 -795C498 -772 514 -748 526 -721ZM143 -291H195V-120C134 -105 87 -98 42 -95C55 -67 66 -30 71 -1C89 -10 119 -23 154 -34L338 -94C343 -77 348 -60 352 -42L420 -76C398 -138 381 -178 351 -238L291 -214C302 -191 312 -170 320 -149L262 -135V-291H316V-268H382C381 -296 380 -318 380 -400V-540C380 -575 381 -610 382 -627C360 -625 328 -625 262 -625V-766C262 -787 264 -800 279 -809C292 -817 289 -825 275 -824C247 -822 231 -823 191 -828C194 -810 195 -761 195 -723V-625C132 -625 101 -625 73 -627C75 -614 76 -576 76 -540V-368C76 -335 75 -295 73 -257H143ZM195 -559V-357H143V-559ZM316 -357H262V-559H316Z"/>
</svg>