<svg xmlns="http://www.w3.org/2000/svg" viewBox="0 -1000 1000 1000">
	<path fill="#000000" d="M784 -560H542V-602H784ZM857 -504C853 -522 853 -554 853 -582C853 -610 854 -642 857 -660C809 -657 760 -656 666 -656C573 -656 519 -657 472 -660C474 -642 475 -610 475 -582C475 -554 474 -522 472 -504C518 -506 573 -506 666 -506C759 -506 810 -506 857 -504ZM142 -310H192V-109C129 -98 78 -93 48 -92C57 -66 65 -29 68 1C93 -15 136 -32 176 -42L323 -78C326 -63 329 -47 331 -30L396 -62C380 -119 362 -173 343 -230L285 -212C295 -184 304 -158 311 -131L256 -121V-310H308V-273H378C374 -310 371 -345 371 -393V-555C371 -590 374 -621 378 -647C353 -642 300 -638 256 -638V-771C256 -792 258 -800 269 -807C279 -813 278 -823 262 -824C238 -826 211 -828 185 -834C190 -804 192 -760 192 -730V-638C150 -638 94 -643 71 -647C75 -621 77 -591 77 -555V-332C77 -300 75 -263 71 -222H142ZM192 -576V-370H142V-576ZM308 -370H256V-576H308ZM940 -347V-473C890 -469 831 -467 664 -467C499 -467 448 -469 399 -473V-331H466V-413H870V-347ZM813 -212C856 -229 873 -231 887 -232C905 -233 907 -236 899 -242C883 -254 861 -280 849 -302C817 -273 778 -249 722 -222C712 -249 697 -274 679 -295C694 -305 710 -315 725 -326C758 -326 816 -324 837 -322V-379C806 -375 725 -373 667 -373C610 -373 529 -375 498 -379V-320C521 -323 587 -326 627 -326C560 -288 502 -270 418 -255C432 -236 439 -211 440 -192C503 -208 569 -234 635 -270C640 -264 645 -258 649 -252C556 -178 486 -148 390 -133C403 -112 410 -90 413 -67C505 -94 603 -143 671 -202C674 -193 677 -183 679 -172C582 -84 485 -35 395 -18C410 2 424 30 429 51C543 1 598 -33 686 -110C686 -93 685 -74 683 -54C676 -7 649 -2 580 -4C599 24 606 42 609 73C689 59 737 31 743 -24C749 -71 748 -130 736 -180C746 -184 756 -188 765 -192C792 -78 819 -40 887 23C901 -9 922 -32 948 -50C866 -91 834 -130 813 -212ZM640 -754C527 -754 461 -756 397 -762V-688C467 -693 538 -696 671 -696C802 -696 872 -695 943 -690V-761C882 -756 823 -754 724 -754C719 -787 712 -815 704 -840L621 -829C628 -807 635 -780 640 -754Z"/>
</svg>