<svg xmlns="http://www.w3.org/2000/svg" viewBox="0 -1000 1000 1000">
	<path fill="#000000" d="M311 -764C327 -771 326 -778 311 -783C297 -788 254 -814 226 -836C211 -799 184 -752 169 -732C124 -669 98 -644 56 -612C84 -594 100 -577 118 -555C162 -600 202 -645 241 -697C277 -742 293 -757 311 -764ZM919 -683V-767C883 -762 868 -761 803 -761C741 -761 725 -762 688 -767V-683C724 -690 754 -691 803 -691C860 -691 883 -689 919 -683ZM533 -148V-265C588 -264 618 -262 663 -257V-334C620 -328 591 -327 533 -327V-387C533 -399 535 -403 544 -408C556 -415 553 -423 540 -423C515 -423 478 -425 451 -429C455 -402 457 -366 457 -327C395 -327 367 -328 326 -334V-257C369 -262 395 -264 457 -265V-136C390 -128 318 -121 280 -121C292 -88 298 -56 298 -24C380 -46 585 -89 695 -101C692 -126 693 -154 699 -179C672 -172 598 -158 533 -148ZM533 -637C598 -637 617 -634 662 -628V-707C620 -702 597 -700 533 -699V-785C533 -797 535 -801 544 -806C554 -812 552 -821 540 -821C515 -821 478 -823 451 -827C455 -799 457 -742 457 -699C398 -700 376 -702 335 -707V-628C375 -634 398 -636 457 -637V-520C390 -521 368 -522 325 -528V-448C375 -455 396 -457 495 -457C582 -457 598 -455 648 -448V-528C608 -522 588 -521 533 -520ZM858 -472C903 -471 921 -468 954 -463V-549C914 -543 894 -541 819 -541C744 -541 722 -543 682 -549V-463C712 -468 733 -471 776 -471V-67C776 -22 770 -15 671 -19C699 29 707 53 707 78C854 63 858 53 858 -30ZM248 -482C283 -536 295 -549 301 -552C321 -561 321 -567 304 -571C292 -574 251 -600 226 -619C212 -577 197 -537 174 -497C140 -439 79 -369 35 -336C62 -318 78 -300 94 -277C120 -303 143 -329 170 -367V-84C170 -26 167 21 161 77H248Z"/>
</svg>