<svg xmlns="http://www.w3.org/2000/svg" viewBox="0 -1000 1000 1000">
	<path fill="#000000" d="M652 -727H805V-567H652ZM285 -715C268 -741 253 -775 240 -827L160 -801C188 -754 202 -717 205 -690ZM252 -287C295 -238 318 -205 341 -167L400 -217C376 -245 352 -271 315 -303C344 -325 368 -343 394 -362L334 -409C319 -385 299 -360 277 -336C269 -343 261 -349 252 -356V-429C295 -503 326 -579 353 -670C328 -667 303 -666 213 -666C123 -666 100 -667 74 -670V-585C102 -591 124 -594 257 -594C206 -468 130 -356 50 -298C76 -279 93 -260 108 -235C135 -266 160 -295 182 -324V-88C182 -28 181 17 177 78H257C253 17 252 -28 252 -88ZM759 -392V-504C811 -504 848 -503 876 -500C873 -537 872 -600 872 -649C872 -698 873 -762 876 -798C842 -794 797 -792 727 -792C658 -792 620 -793 583 -798C586 -762 587 -698 587 -649C587 -600 586 -537 583 -500C611 -503 641 -504 687 -504V-392C626 -393 588 -396 545 -401V-324C578 -328 609 -331 649 -332C625 -241 578 -154 515 -91C538 -75 557 -55 571 -30C624 -106 657 -182 687 -309V-91C687 -46 686 14 682 69H765C762 14 759 -46 759 -91V-320C785 -178 825 -98 907 -42C914 -67 933 -93 955 -116C868 -157 819 -225 781 -332C841 -331 882 -329 921 -324V-401C877 -396 832 -393 759 -392ZM505 -663C533 -743 547 -777 551 -781C575 -799 571 -807 550 -811C517 -818 497 -824 474 -834C468 -775 455 -717 429 -648C396 -561 365 -509 321 -466C351 -454 373 -438 385 -423C399 -444 415 -470 433 -505V-113C433 -41 431 -3 426 51H505Z"/>
</svg>