<svg xmlns="http://www.w3.org/2000/svg" viewBox="0 -1000 1000 1000">
	<path fill="#000000" d="M810 -358C789 -390 764 -421 736 -447L697 -412C722 -382 741 -352 758 -317ZM704 -550C720 -546 739 -534 749 -520C769 -556 795 -595 805 -601C816 -608 818 -615 805 -618C790 -622 772 -630 752 -642C740 -613 728 -588 704 -550ZM615 -559C605 -585 586 -614 562 -639L511 -609C531 -590 545 -565 555 -533ZM322 -711C295 -758 265 -797 225 -839L156 -794C193 -755 220 -714 241 -664ZM601 -229C552 -229 511 -229 476 -231V-679H833V-231C785 -230 731 -229 672 -229C682 -256 688 -265 699 -271C714 -280 709 -289 692 -288C676 -287 639 -289 605 -294C606 -274 604 -251 601 -229ZM601 -457C568 -412 535 -372 497 -336C519 -324 531 -314 543 -299C583 -345 606 -378 632 -426V-361C632 -343 630 -318 626 -297H694C692 -319 691 -343 691 -361V-457C741 -456 790 -455 815 -453V-514C788 -512 741 -510 691 -510V-609C691 -627 693 -633 700 -639C712 -649 711 -656 695 -655C670 -654 653 -655 626 -659C629 -640 632 -584 632 -510C573 -510 532 -511 496 -514V-453C525 -455 557 -456 601 -457ZM562 -740C496 -741 426 -742 406 -745C408 -723 409 -698 409 -615V-477C391 -488 372 -502 355 -519C347 -485 319 -431 286 -386C277 -393 269 -401 261 -409V-466C301 -522 337 -580 367 -635C330 -631 312 -630 212 -630C116 -630 102 -631 64 -636V-554C92 -560 115 -563 135 -563H246C163 -428 109 -373 34 -314C55 -295 68 -270 77 -235C113 -274 152 -320 190 -370V-102C190 -42 188 4 181 65H264C262 4 261 -42 261 -102V-329C283 -306 311 -267 333 -227L395 -279C372 -304 348 -328 322 -352C355 -394 394 -438 409 -448V-233C394 -234 379 -235 365 -236V-162C424 -166 487 -168 585 -169C554 -80 499 -46 327 1C361 28 376 48 388 76C552 8 608 -38 645 -143C717 -22 801 28 921 62C931 21 942 0 966 -23C851 -35 771 -73 689 -169C797 -168 892 -166 951 -162V-236C937 -235 921 -234 904 -234V-615C904 -696 905 -721 907 -745C890 -742 817 -740 758 -740H636C649 -772 660 -791 670 -797C687 -808 683 -815 666 -817C644 -820 609 -830 580 -842C577 -805 573 -777 562 -740Z"/>
</svg>