<svg xmlns="http://www.w3.org/2000/svg" viewBox="0 -1000 1000 1000">
	<path fill="#000000" d="M279 -572C312 -605 344 -639 370 -670H639L561 -572ZM505 -398H306V-507H505ZM582 -507H794V-398H582ZM582 -158H794V-64C794 -23 772 -15 675 -24C698 9 710 41 714 77C861 66 874 52 874 -45V-512C874 -534 876 -550 880 -579C807 -575 736 -573 652 -572L785 -740C743 -736 652 -733 605 -733H418C441 -761 463 -783 473 -789C496 -802 493 -808 474 -812C459 -815 412 -830 383 -842C355 -741 215 -587 77 -520C119 -499 139 -482 153 -461C176 -479 202 -500 227 -523V-317C227 -185 181 -54 92 27C132 43 153 60 173 85C226 18 265 -57 286 -158H505C504 -50 501 30 497 59H590C587 29 583 -57 582 -158ZM505 -224H297C301 -258 304 -296 305 -336H505ZM582 -336H794V-224H582Z"/>
</svg>