<svg xmlns="http://www.w3.org/2000/svg" viewBox="0 -1000 1000 1000">
	<path fill="#000000" d="M461 -359V-441C413 -437 366 -435 277 -435C189 -435 143 -437 94 -441V-359C143 -363 189 -365 277 -365C366 -365 413 -363 461 -359ZM459 -494V-574C411 -570 370 -568 281 -568C193 -568 153 -570 104 -574V-494C154 -498 193 -500 281 -500C370 -500 411 -498 459 -494ZM369 -83H187V-232H369ZM187 -19H369V46H446C441 3 439 -34 439 -79V-227C439 -266 440 -285 442 -302C412 -299 384 -298 278 -298C166 -298 145 -299 113 -302C115 -281 115 -262 115 -227V-81C115 -36 113 -2 107 44H187ZM249 -704C161 -704 114 -706 60 -710V-633C116 -637 169 -639 271 -639C373 -639 424 -637 480 -633V-710C425 -706 374 -704 274 -704L334 -733C320 -776 309 -803 292 -840L210 -805C228 -770 242 -734 249 -704ZM758 -633C835 -632 888 -629 933 -624V-711C881 -705 818 -702 720 -702C622 -702 559 -705 506 -711V-624C550 -629 603 -632 677 -633V-73C584 -74 520 -77 466 -82V4C523 -2 597 -5 705 -5C813 -5 887 -2 945 4V-82C897 -77 838 -74 758 -73Z"/>
</svg>