<svg xmlns="http://www.w3.org/2000/svg" viewBox="0 -1000 1000 1000">
	<path fill="#000000" d="M318 -731C300 -772 276 -810 248 -840L172 -800C199 -772 223 -728 231 -693ZM968 -88C928 -91 901 -101 868 -123C845 -44 831 -33 784 -28C748 -24 682 -24 630 -29C572 -34 568 -49 592 -111C617 -178 723 -325 865 -484C844 -482 764 -481 678 -481C607 -481 538 -483 503 -485V-408C522 -411 548 -413 586 -413H705C632 -332 552 -219 510 -123C467 -25 495 43 618 48C696 51 763 51 812 48C904 43 925 29 968 -88ZM418 -357V-438C376 -433 325 -431 246 -431C169 -431 118 -433 75 -438V-357C118 -362 169 -364 246 -364C325 -364 376 -362 418 -357ZM446 -609V-694C399 -688 333 -686 246 -686C159 -686 95 -689 46 -694V-609C94 -614 159 -617 246 -617C333 -617 399 -614 446 -609ZM606 -673C639 -729 675 -775 683 -779C708 -791 707 -799 682 -804C659 -808 616 -821 585 -833C529 -674 491 -606 419 -523V-562C377 -558 326 -556 247 -556C170 -556 119 -558 76 -562V-484C120 -488 170 -490 247 -490C326 -490 377 -488 419 -484V-516C439 -505 459 -486 481 -460C518 -517 541 -554 568 -603H781C843 -603 893 -600 925 -596V-680C900 -676 853 -673 781 -673ZM334 -25V55H419C416 10 414 -31 414 -81V-214C414 -257 415 -278 418 -296C389 -293 365 -292 252 -292C139 -292 121 -293 90 -296C92 -273 93 -253 93 -214V-72C93 -22 91 16 85 64H170V-25ZM170 -91V-225H334V-91Z"/>
</svg>