<svg xmlns="http://www.w3.org/2000/svg" viewBox="0 -1000 1000 1000">
	<path fill="#000000" d="M423 -352V-429C381 -425 331 -423 253 -423C176 -423 126 -425 83 -429V-352C126 -356 176 -358 253 -358C331 -358 381 -356 423 -352ZM421 -485V-562C380 -558 330 -556 252 -556C175 -556 125 -558 83 -562V-485C126 -489 175 -491 252 -491C330 -491 380 -489 421 -485ZM470 -620V-697C417 -693 354 -691 258 -691C163 -691 99 -693 45 -697V-620C98 -624 163 -626 258 -626C354 -626 417 -624 470 -620ZM322 -734C302 -777 285 -806 260 -842L178 -812C204 -777 224 -736 234 -703ZM340 -36V38H420C419 34 419 30 418 25C450 31 474 42 498 63C587 -95 593 -151 593 -474H723V-331C701 -345 678 -359 656 -372L623 -307C657 -289 691 -270 723 -250V-82C723 -22 722 20 717 77H805C800 20 799 -22 799 -82V-200C839 -171 875 -141 906 -111L960 -176C904 -214 851 -250 799 -283V-474C865 -474 900 -471 942 -462V-553C897 -543 860 -541 785 -541H593V-690C637 -691 692 -697 775 -710C832 -719 874 -719 900 -713C917 -709 928 -721 913 -736C900 -751 886 -775 874 -800C748 -766 623 -752 509 -753C514 -702 516 -609 516 -468C516 -134 504 -81 417 18C414 -11 412 -46 412 -78V-215C412 -255 413 -274 416 -292C389 -289 362 -288 255 -288C149 -288 123 -289 95 -292C98 -271 99 -251 99 -215V-77C99 -30 96 19 92 52H173V-36ZM173 -99V-224H340V-99Z"/>
</svg>