<svg xmlns="http://www.w3.org/2000/svg" viewBox="0 -1000 1000 1000">
	<path fill="#000000" d="M365 -335V-412C330 -408 290 -406 229 -406C169 -406 128 -408 94 -412V-335C128 -339 169 -341 229 -341C290 -341 330 -339 365 -335ZM365 -464V-544C331 -540 292 -538 229 -538C167 -538 127 -540 94 -544V-464C128 -468 167 -470 229 -470C292 -470 331 -468 365 -464ZM381 -596V-674C343 -671 294 -669 222 -669C151 -669 104 -670 64 -674V-596C102 -600 151 -602 222 -602C294 -602 343 -600 381 -596ZM912 -720C901 -750 882 -785 860 -822L791 -791C811 -759 825 -729 835 -689ZM289 -706C277 -756 258 -800 236 -834L157 -802C178 -769 202 -712 208 -677ZM691 -665H591C507 -665 449 -668 410 -674V-592C449 -598 507 -601 591 -601H692C694 -517 697 -448 702 -388H646V-493C646 -510 651 -515 659 -520C672 -527 669 -536 652 -535C621 -533 605 -534 574 -539C579 -528 581 -511 581 -444V-388H517V-497C517 -510 521 -520 529 -525C539 -531 538 -539 522 -538C491 -535 478 -535 446 -541C450 -528 452 -515 452 -448V-388C419 -389 403 -390 385 -392V-326C404 -328 420 -329 452 -330C450 -183 419 -103 368 -42C397 -28 410 -16 426 4C487 -85 515 -183 517 -330H581V-181C581 -153 578 -116 573 -81H654C649 -116 646 -153 646 -181V-330H707C713 -267 722 -218 733 -176C681 -95 616 -33 530 5C568 16 594 38 609 63C666 13 716 -37 759 -95C786 -29 816 15 838 37C885 82 915 75 964 -99C941 -104 916 -115 890 -137C888 -36 875 -33 832 -116C824 -132 816 -150 809 -171C840 -227 872 -315 889 -401C896 -436 909 -463 921 -472C932 -480 930 -485 912 -488C892 -491 854 -501 829 -511C828 -435 808 -343 784 -276C770 -357 762 -463 760 -601C834 -601 887 -598 923 -592V-674C887 -668 834 -665 760 -665C761 -757 765 -802 774 -810C792 -827 789 -834 768 -833C742 -832 710 -834 679 -840C686 -798 689 -752 691 -665ZM291 -41V12H367C362 -32 360 -69 360 -115V-207C360 -247 361 -266 363 -283C340 -280 315 -279 227 -279C139 -279 116 -280 92 -283C94 -262 94 -243 94 -207V-77C94 -32 92 3 88 49H164V-41ZM164 -100V-221H291V-100Z"/>
</svg>