<svg xmlns="http://www.w3.org/2000/svg" viewBox="0 -1000 1000 1000">
	<path fill="#000000" d="M786 -164V-224C714 -220 628 -219 495 -219C363 -219 280 -221 205 -224V-164C278 -167 363 -169 495 -169C628 -169 712 -167 786 -164ZM786 -258V-323C715 -318 627 -316 497 -316C368 -316 281 -318 208 -323V-258C279 -262 368 -265 497 -265C627 -265 715 -262 786 -258ZM719 38V75H806C798 21 795 -62 806 -133C769 -127 721 -124 500 -124C279 -124 235 -127 196 -133C204 -76 203 25 196 81H284V38ZM284 -13V-74H719V-13ZM463 -412C283 -412 162 -414 61 -421V-350C168 -356 271 -357 499 -357C699 -357 831 -356 937 -350V-421C841 -415 723 -412 553 -412C545 -433 539 -452 533 -471L443 -458C452 -441 458 -427 463 -412ZM575 -644C576 -665 577 -688 577 -711C621 -712 663 -714 735 -722C812 -731 859 -731 891 -725C907 -722 910 -727 895 -742C885 -752 866 -791 859 -813C759 -780 636 -772 505 -770C515 -583 493 -545 456 -509C487 -500 518 -487 541 -475C557 -500 566 -539 571 -587H698C698 -511 696 -474 692 -447H782C778 -469 776 -510 776 -587C838 -586 899 -582 936 -578V-653C893 -648 820 -644 749 -644ZM246 -604C196 -602 143 -602 82 -603C88 -575 91 -554 93 -528C130 -534 183 -540 246 -545V-524C246 -501 240 -491 158 -495C181 -466 187 -451 188 -425C314 -443 320 -451 320 -512V-551C356 -554 395 -557 435 -560C434 -578 436 -596 444 -621C401 -615 361 -611 320 -608V-675C377 -675 420 -672 456 -668V-741C420 -737 377 -734 320 -733V-778C320 -790 324 -796 336 -803C355 -815 352 -821 323 -821C295 -820 271 -821 236 -826C241 -810 244 -780 246 -733C168 -733 116 -736 73 -741V-668C117 -673 169 -676 246 -676Z"/>
</svg>