<svg xmlns="http://www.w3.org/2000/svg" viewBox="0 -1000 1000 1000">
	<path fill="#000000" d="M310 -105H174V-227H310ZM281 -40C320 -40 383 -36 383 -36C383 -36 380 -76 380 -111V-222C380 -261 381 -280 383 -297C359 -294 341 -293 241 -293C141 -293 129 -294 101 -297C102 -276 103 -257 103 -222V-86C103 -41 101 -7 95 39H174V-40ZM718 -501H597C540 -501 465 -504 446 -507C464 -158 430 -37 330 28C369 36 390 49 415 73C505 -65 522 -120 525 -438H784C854 -438 918 -436 943 -432V-507C919 -503 859 -501 790 -501C818 -543 840 -567 859 -575C871 -580 870 -589 856 -592C820 -601 793 -611 764 -628C757 -593 741 -546 718 -501ZM947 -104C928 -122 907 -144 884 -171C803 -82 627 -7 501 1C534 22 552 43 560 69C670 37 792 -13 885 -68C913 -84 930 -91 942 -90C956 -89 958 -94 947 -104ZM916 -248C893 -262 872 -279 850 -305C790 -241 659 -170 532 -158C560 -141 577 -122 590 -90C690 -121 762 -155 855 -209C883 -225 901 -232 913 -233C928 -234 929 -240 916 -248ZM870 -376C847 -394 825 -413 807 -430C749 -375 658 -329 546 -307C574 -290 585 -274 599 -243C671 -265 742 -299 810 -338C838 -354 851 -359 867 -360C882 -361 884 -365 870 -376ZM396 -352V-428C357 -423 313 -422 240 -422C168 -422 128 -424 88 -428V-352C128 -356 168 -358 240 -358C313 -358 357 -356 396 -352ZM396 -475V-552C357 -548 314 -546 241 -546C169 -546 130 -548 90 -552V-475C131 -480 169 -481 241 -481C314 -481 357 -480 396 -475ZM645 -530C630 -563 615 -595 602 -625L525 -598C543 -570 556 -545 564 -505ZM416 -596V-676C371 -671 317 -670 234 -670C151 -670 101 -672 55 -676V-596C100 -601 151 -602 234 -602C317 -602 371 -601 416 -596ZM928 -634V-715C869 -710 798 -708 688 -708C578 -708 506 -710 448 -715V-634C506 -640 578 -643 688 -643C798 -643 869 -640 928 -634ZM302 -706C286 -756 273 -794 261 -832L177 -806C200 -762 208 -733 215 -681ZM747 -734C735 -773 723 -807 710 -838L625 -816C646 -785 657 -759 663 -719Z"/>
</svg>