<svg xmlns="http://www.w3.org/2000/svg" viewBox="0 -1000 1000 1000">
	<path fill="#000000" d="M170 -24H296V35H368C365 -4 364 -29 364 -76V-201C364 -241 365 -261 367 -279C346 -276 313 -275 231 -275C149 -275 119 -276 96 -279C97 -257 98 -237 98 -201V-61C98 -13 96 18 91 66H170ZM296 -91H170V-214H296ZM453 -98C430 -89 404 -69 370 -29C391 -10 412 12 429 31C470 -47 492 -56 534 -22C599 31 636 46 928 48C930 11 938 -13 956 -49C927 -44 823 -34 729 -33C671 -32 608 -50 581 -69C557 -86 541 -95 526 -100V-362C526 -412 530 -440 536 -473C508 -468 488 -467 461 -467C437 -467 408 -469 386 -473V-397C410 -400 427 -401 453 -401ZM943 -206C908 -282 879 -336 840 -396L779 -367C825 -283 844 -237 864 -172ZM373 -335V-410C339 -406 290 -403 229 -403C168 -403 119 -406 85 -410V-335C119 -338 168 -340 229 -340C290 -340 339 -339 373 -335ZM688 -443C638 -319 593 -255 541 -205C562 -188 585 -161 598 -135C632 -186 669 -260 705 -348V-182C705 -132 703 -97 698 -54H782C776 -97 774 -131 774 -182V-443C848 -443 878 -442 918 -440V-511C878 -509 848 -508 774 -508V-763C774 -787 780 -803 786 -807C797 -814 793 -821 780 -820C756 -818 722 -820 695 -825C701 -800 705 -771 705 -717V-508C641 -508 611 -509 565 -511V-440C606 -441 636 -442 688 -443ZM375 -464V-542C341 -538 290 -535 229 -535C168 -535 120 -538 86 -542V-464C121 -469 168 -471 229 -471C290 -471 341 -469 375 -464ZM403 -588V-664C364 -660 299 -658 229 -658C159 -658 95 -660 55 -664V-588C94 -593 159 -595 229 -595C299 -595 364 -593 403 -588ZM929 -720C901 -727 877 -737 853 -751C840 -683 824 -635 790 -575C816 -570 840 -563 859 -553C879 -594 891 -623 906 -668C913 -689 920 -699 928 -702C943 -708 944 -716 929 -720ZM683 -579C670 -636 646 -705 624 -753L554 -727C580 -678 602 -617 613 -560ZM543 -572C528 -636 500 -718 478 -771L402 -744C433 -691 451 -623 457 -553ZM286 -703C273 -747 253 -792 235 -828L154 -798C177 -763 194 -716 201 -677Z"/>
</svg>