<svg xmlns="http://www.w3.org/2000/svg" viewBox="0 -1000 1000 1000">
	<path fill="#000000" d="M288 -725C270 -762 251 -799 232 -834L157 -798C178 -764 198 -724 208 -693ZM957 -66C927 -68 915 -72 884 -88C880 -27 868 -13 845 -13C830 -13 823 -15 823 -36V-237C823 -252 826 -267 831 -271C837 -276 835 -281 825 -280C811 -278 778 -280 746 -284C750 -272 753 -242 753 -189V-34C753 42 758 52 848 52C924 52 940 39 957 -66ZM682 -269C690 -274 689 -280 676 -279C653 -277 627 -279 595 -284C599 -272 602 -242 602 -189V-125C602 -76 600 -14 594 46H681C677 -14 674 -76 674 -125V-243C674 -255 675 -264 682 -269ZM372 -361V-433C336 -428 293 -427 229 -427C165 -427 122 -429 86 -433V-361C122 -365 165 -367 229 -367C293 -367 336 -365 372 -361ZM372 -485V-557C336 -553 294 -551 229 -551C164 -551 122 -553 86 -557V-485C123 -489 164 -491 229 -491C294 -491 336 -489 372 -485ZM627 -538C527 -539 458 -542 399 -547V-472C415 -473 432 -475 451 -476V-392C451 -356 450 -341 448 -315C495 -318 539 -319 668 -319C818 -319 849 -317 888 -312V-386C849 -382 816 -381 775 -381H521V-479L670 -481C775 -482 873 -478 939 -472V-547C880 -542 810 -539 708 -538C699 -574 691 -595 677 -623L597 -607C611 -584 620 -563 627 -538ZM571 -723V-777C571 -786 575 -795 579 -798C591 -807 589 -816 575 -815C556 -814 521 -815 500 -818C502 -805 503 -790 503 -766V-724C460 -725 424 -727 394 -731V-655C422 -659 459 -662 503 -663C503 -617 502 -589 500 -569H571V-664H734V-570H806C804 -589 803 -617 803 -663C852 -662 893 -660 923 -655V-731C892 -726 852 -724 803 -723V-775C803 -786 805 -793 811 -797C821 -804 817 -813 807 -812C784 -810 752 -812 731 -815C733 -802 734 -787 734 -763V-723ZM294 -97H168V-233H294ZM168 -34H294V6H366C352 16 338 25 322 33C359 46 378 59 396 81C490 10 526 -65 531 -159C536 -258 538 -263 542 -267C552 -277 549 -282 538 -281C508 -279 487 -280 458 -284C463 -231 461 -156 454 -127C442 -73 414 -31 370 3C369 -37 368 -75 368 -119V-224C368 -263 369 -282 371 -299C347 -296 326 -295 233 -295C140 -295 121 -296 95 -299C96 -278 97 -259 97 -224V-70C97 -25 95 9 90 55H168ZM225 -617C301 -617 347 -615 390 -611V-684C347 -680 301 -678 225 -678C149 -678 100 -680 56 -684V-611C98 -615 149 -617 225 -617Z"/>
</svg>