<svg xmlns="http://www.w3.org/2000/svg" viewBox="0 -1000 1000 1000">
	<path fill="#000000" d="M866 -187V-246C811 -241 744 -241 643 -241C541 -241 476 -242 420 -246V-187C474 -191 541 -192 643 -192C744 -192 811 -191 866 -187ZM865 -276V-335C810 -330 744 -330 644 -330C543 -330 479 -331 423 -335V-276C477 -280 543 -281 644 -281C744 -281 810 -280 865 -276ZM530 -725C505 -771 492 -792 470 -821L397 -785C427 -758 440 -736 459 -693ZM857 -799C831 -806 806 -814 781 -825C766 -784 751 -754 724 -716C752 -711 769 -703 791 -689C830 -758 843 -777 856 -781C874 -787 874 -795 857 -799ZM790 30V65H877C868 35 865 9 865 -22V-103C865 -131 866 -144 868 -156C830 -154 795 -154 647 -154C498 -154 466 -154 425 -156C426 -142 427 -128 427 -103V-20C427 12 425 39 418 67H502V30ZM502 -24V-96H790V-24ZM846 -363C871 -345 897 -329 922 -315C931 -346 944 -374 970 -395C888 -413 808 -466 763 -521C831 -520 875 -517 921 -512V-582C868 -577 822 -576 733 -576H608C614 -592 620 -608 626 -626C744 -626 840 -624 903 -618V-687C843 -681 752 -679 642 -679C647 -702 652 -726 657 -751C663 -783 670 -798 677 -803C697 -817 695 -825 673 -824C649 -823 624 -826 589 -835C594 -791 587 -735 574 -679C489 -680 434 -682 382 -687V-618C428 -622 480 -625 558 -626C552 -609 546 -592 538 -576C466 -576 416 -578 370 -582V-512C410 -516 454 -519 508 -520C469 -461 419 -421 351 -391V-660C351 -721 352 -758 354 -785C316 -782 280 -781 225 -781C171 -781 135 -782 96 -785C99 -758 100 -721 100 -660V-401C100 -145 86 -72 28 8C54 17 75 35 100 64C141 -19 165 -116 169 -279H279V-70C279 -33 270 -24 191 -30C215 2 221 27 226 62C343 32 351 19 351 -35V-365C365 -352 375 -338 382 -323C403 -336 422 -349 440 -363C488 -366 553 -367 634 -367C720 -367 795 -366 846 -363ZM617 -416H501C532 -447 559 -481 581 -521H697C718 -483 747 -448 780 -416H693C686 -442 677 -467 666 -493L580 -481C596 -459 608 -435 617 -416ZM170 -564V-712H279V-564ZM279 -502V-342H170V-502Z"/>
</svg>