<svg xmlns="http://www.w3.org/2000/svg" viewBox="0 -1000 1000 1000">
	<path fill="#000000" d="M807 -566C785 -530 761 -496 738 -468C725 -452 713 -442 699 -439C707 -416 711 -397 715 -373C732 -378 750 -382 788 -387L878 -398C881 -387 885 -374 888 -361L949 -379C934 -431 921 -463 895 -510L843 -487C850 -475 856 -461 862 -446L777 -436C814 -478 831 -497 891 -586C906 -608 919 -619 930 -626C942 -634 941 -637 930 -642C909 -653 888 -668 871 -684C861 -663 850 -640 837 -617L758 -613C787 -642 811 -673 848 -724C859 -739 862 -742 873 -747C884 -753 886 -760 873 -764C855 -770 834 -782 803 -803C789 -758 774 -721 742 -668C721 -633 708 -624 693 -617C702 -593 707 -574 709 -552C728 -557 769 -563 807 -566ZM217 -627C282 -627 335 -626 373 -623V-692C334 -687 286 -686 217 -686C147 -686 101 -688 62 -692V-622C100 -626 147 -627 217 -627ZM353 -367V-440C319 -435 280 -433 218 -433C156 -433 117 -436 83 -440V-367C117 -371 156 -373 218 -373C280 -373 319 -371 353 -367ZM353 -488V-561C319 -556 280 -554 218 -554C156 -554 117 -556 83 -561V-488C118 -493 156 -494 218 -494C280 -494 319 -493 353 -488ZM271 -720C257 -760 242 -792 221 -829L145 -797C169 -763 183 -733 195 -691ZM625 -382C627 -347 629 -317 632 -289H518C521 -314 525 -327 529 -332C544 -351 544 -358 516 -358C498 -358 455 -362 455 -362C457 -336 458 -312 459 -290C425 -291 401 -292 372 -297V-226C400 -230 423 -232 457 -233C448 -127 413 -54 356 -5C381 12 397 23 417 42C455 -6 497 -82 508 -141C534 -116 559 -89 582 -61L636 -116C603 -150 558 -183 512 -207C513 -217 513 -226 513 -234H639C649 -168 665 -122 688 -82C643 -55 589 -32 522 -11C542 5 553 23 570 48C617 27 671 -1 721 -32C757 15 791 39 832 55C888 77 931 58 950 -42C927 -50 906 -63 882 -83C883 -1 853 6 779 -71C790 -77 801 -86 811 -95C853 -133 873 -144 887 -148C903 -153 906 -158 896 -164C876 -177 855 -194 837 -212C808 -177 778 -146 743 -120C728 -150 713 -189 702 -234H807C865 -234 900 -231 939 -226V-297C915 -293 891 -291 862 -290C852 -323 839 -347 821 -372L754 -352C771 -331 781 -314 790 -289H692C690 -304 689 -320 688 -336C683 -435 683 -632 689 -759C690 -791 691 -803 695 -809C706 -825 703 -831 688 -829C671 -827 633 -827 607 -830C616 -801 622 -757 622 -701C621 -559 623 -445 625 -395C611 -433 593 -470 572 -509L509 -486C519 -472 528 -457 535 -440L440 -433C475 -468 492 -489 574 -607C586 -625 599 -640 603 -642C615 -647 614 -651 605 -656C594 -662 569 -681 543 -703C535 -681 518 -647 499 -611L428 -603C458 -646 488 -692 516 -733C527 -750 536 -757 541 -760C552 -766 554 -771 541 -776C523 -784 490 -800 467 -812C455 -770 438 -732 419 -694C393 -642 377 -619 359 -604C365 -588 371 -563 374 -541C389 -545 409 -548 466 -553C450 -526 435 -502 423 -487C401 -458 390 -450 369 -441C378 -415 381 -393 382 -371C397 -375 405 -376 466 -382L553 -391C556 -381 559 -371 562 -359ZM276 -41V17H352C346 -26 344 -62 344 -109V-236C344 -274 345 -293 347 -310C326 -306 305 -305 220 -305C141 -305 117 -306 92 -310C94 -289 95 -270 95 -236V-92C95 -45 93 -11 88 36H163V-41ZM163 -102V-245H276V-102Z"/>
</svg>