<svg xmlns="http://www.w3.org/2000/svg" viewBox="0 -1000 1000 1000">
	<path fill="#000000" d="M280 -101H165V-234H280ZM165 -40H280V10H351C345 -35 344 -70 344 -119V-217C344 -259 345 -280 347 -298C325 -295 301 -294 218 -294C135 -294 115 -295 91 -298C92 -275 93 -255 93 -217V-92C93 -43 91 -6 88 43H165ZM806 -304H495V-349H806ZM806 -218H495V-255H806ZM806 -128H495V-168H806ZM763 -744H721C727 -755 732 -763 736 -766C750 -775 749 -783 732 -785C712 -788 696 -792 673 -800C666 -748 648 -685 632 -658C655 -653 670 -647 686 -633C691 -652 697 -671 704 -693H763V-620C708 -621 677 -623 652 -627V-563C671 -567 692 -567 710 -567C705 -497 690 -469 635 -437C662 -427 677 -421 695 -408C748 -456 763 -492 765 -568H801V-473C801 -434 809 -421 868 -421C918 -421 937 -442 953 -490C928 -498 914 -506 893 -527C891 -485 886 -478 874 -478C863 -478 856 -481 856 -496V-568C896 -567 919 -566 939 -563V-627C913 -622 887 -620 821 -620V-693C860 -692 887 -690 907 -687V-750C886 -747 860 -745 821 -744V-772C821 -799 824 -813 832 -819C841 -826 838 -831 829 -831C804 -830 778 -831 757 -833C760 -813 762 -777 763 -744ZM573 -73H734C791 -73 845 -71 881 -68C879 -80 876 -116 876 -144V-334C876 -362 879 -397 881 -410C845 -406 797 -404 743 -404H551C507 -404 466 -406 435 -409C477 -455 493 -498 498 -563H529V-492C529 -467 527 -457 511 -448C527 -432 532 -428 547 -408C556 -415 564 -421 576 -430L646 -477C640 -495 636 -511 632 -536C613 -520 599 -510 583 -499V-562C605 -562 622 -560 638 -556V-620C617 -617 592 -616 560 -615V-689C591 -688 616 -686 637 -683V-745C616 -741 593 -739 560 -739V-774C560 -791 564 -808 571 -813C579 -819 577 -826 568 -826C544 -825 519 -826 498 -828C500 -813 501 -786 501 -739H456C463 -757 467 -762 470 -764C482 -771 481 -780 468 -782C451 -785 431 -791 409 -799C403 -738 388 -692 372 -652C389 -647 405 -641 425 -631C431 -654 436 -673 441 -689H501V-614C442 -614 404 -616 375 -620V-556C393 -560 414 -562 443 -563C437 -498 418 -465 360 -423C384 -410 394 -401 409 -382C415 -387 420 -393 425 -398C428 -381 429 -356 429 -334V-144C429 -116 426 -76 423 -64C467 -70 520 -73 562 -73C499 -36 432 -1 351 22C378 42 389 56 402 74C458 55 505 36 556 11C585 -4 602 -7 619 -7C633 -7 635 -13 620 -23C602 -36 585 -55 573 -73ZM938 14C868 -20 820 -40 748 -67L693 -16C770 12 826 39 899 80ZM141 -800C169 -769 191 -733 206 -698L279 -737C257 -775 235 -806 207 -841ZM211 -625C284 -625 326 -624 366 -619V-693C326 -688 284 -686 211 -686C140 -686 98 -688 58 -693V-619C96 -624 140 -625 211 -625ZM217 -491C282 -491 314 -490 349 -483V-558C314 -552 282 -550 217 -550C153 -550 120 -552 86 -558V-483C121 -490 153 -491 217 -491ZM216 -362C284 -362 311 -360 346 -354V-429C312 -423 284 -422 216 -422C149 -422 118 -424 84 -429V-354C118 -359 149 -362 216 -362Z"/>
</svg>