<svg xmlns="http://www.w3.org/2000/svg" viewBox="0 -1000 1000 1000">
	<path fill="#000000" d="M287 -412H178V-535H287ZM361 -349C360 -376 360 -426 360 -475C360 -524 360 -573 361 -600C327 -597 296 -596 233 -596C169 -596 138 -597 104 -600C106 -574 107 -524 107 -475C107 -425 106 -377 104 -349C137 -352 169 -351 233 -351C296 -351 328 -351 361 -349ZM209 -160C196 -202 184 -265 178 -304L107 -290C121 -257 136 -189 139 -142ZM956 -110C918 -119 897 -130 873 -154C858 -55 851 -44 796 -44C740 -44 736 -46 736 -82V-464H809V-290C809 -265 795 -254 747 -252C759 -233 767 -201 768 -175C855 -191 880 -205 880 -267V-447C880 -487 881 -512 884 -534C861 -531 836 -531 768 -531C701 -531 687 -531 660 -534C663 -513 664 -487 664 -448V-61C664 18 685 29 797 29C911 29 920 17 956 -110ZM374 -679V-763C331 -759 303 -758 234 -758C166 -758 140 -759 93 -763V-679C139 -683 164 -683 234 -683C304 -683 328 -683 374 -679ZM541 -279C529 -289 517 -300 504 -313L463 -260C485 -246 503 -231 524 -210C496 -131 422 -28 337 20C371 37 388 51 406 72C502 -2 570 -110 596 -220C615 -301 627 -403 635 -509H527C537 -539 544 -547 552 -553C561 -561 560 -568 549 -568C530 -568 500 -573 473 -580C453 -470 418 -364 377 -297C403 -293 424 -286 448 -275C474 -333 491 -381 508 -443H560C557 -392 551 -334 541 -279ZM616 -735C485 -735 459 -736 406 -741V-582H487V-671H829V-583H911V-741C861 -737 835 -735 711 -735C701 -776 692 -816 685 -850L593 -832C602 -806 610 -772 616 -735ZM297 -114C335 -228 357 -279 368 -285C375 -289 374 -293 366 -295C350 -299 321 -311 293 -327C278 -255 256 -174 232 -102C178 -93 119 -85 61 -80C73 -48 82 -16 89 16C192 -22 288 -45 391 -63C389 -93 391 -113 401 -142C372 -132 336 -123 297 -114Z"/>
</svg>