<svg xmlns="http://www.w3.org/2000/svg" viewBox="0 -1000 1000 1000">
	<path fill="#000000" d="M347 -715C334 -743 318 -783 308 -809L227 -787C240 -762 255 -721 263 -690ZM781 -764C793 -769 792 -774 780 -778C762 -783 735 -794 701 -815C685 -775 670 -745 637 -713C663 -704 686 -694 705 -684C750 -737 775 -762 781 -764ZM659 -189C703 -217 743 -236 761 -237C776 -238 781 -246 766 -256C752 -265 725 -289 710 -307C686 -275 633 -223 590 -191C575 -249 539 -297 497 -328C511 -337 521 -346 531 -356C585 -356 623 -355 655 -352V-412C616 -408 571 -407 498 -407C425 -407 380 -407 341 -410V-350C372 -353 405 -355 455 -356C387 -311 286 -279 162 -258C180 -243 198 -222 208 -203C285 -220 377 -254 451 -298C458 -291 465 -283 471 -276C394 -216 274 -163 149 -135C168 -121 190 -99 197 -83C297 -112 419 -170 501 -233C508 -218 515 -204 520 -189C434 -119 213 -30 128 -21C152 -5 183 27 191 44C276 15 440 -63 529 -137C530 -107 525 -70 516 -47C501 -7 438 11 373 -4C389 18 404 54 406 83C490 77 572 46 588 -17C600 -63 602 -106 598 -145C602 -148 607 -152 611 -155C695 -85 749 -28 783 23C797 3 830 -23 857 -40C790 -94 729 -137 659 -189ZM410 -490H603C663 -372 800 -282 913 -253C916 -279 931 -318 961 -339C835 -352 748 -390 674 -490C777 -490 838 -488 908 -481V-558C826 -550 757 -549 618 -549H451C463 -569 474 -591 485 -617H658C744 -617 790 -615 860 -609V-686C792 -681 734 -678 510 -678C518 -700 526 -723 533 -744C545 -779 550 -791 562 -800C572 -807 570 -813 556 -814C519 -816 485 -822 452 -833C451 -782 443 -728 428 -678C247 -679 202 -681 140 -686V-609C210 -616 262 -617 348 -617H407C397 -592 385 -569 372 -549C259 -549 167 -551 91 -558V-481C159 -485 234 -489 325 -490C249 -407 185 -369 56 -309C80 -294 103 -274 116 -254C295 -362 351 -416 410 -490Z"/>
</svg>