<svg xmlns="http://www.w3.org/2000/svg" viewBox="0 -1000 1000 1000">
	<path fill="#000000" d="M704 -558H297V-612H704ZM780 -509C777 -527 776 -555 776 -585C776 -615 777 -642 780 -661C709 -659 639 -658 503 -658C369 -658 289 -659 221 -661C224 -642 225 -615 225 -585C225 -555 224 -527 221 -509C290 -511 369 -511 503 -511C638 -511 710 -511 780 -509ZM925 -338V-477C850 -473 750 -471 503 -471C256 -471 153 -473 79 -477V-330H154V-419H850V-338ZM694 -189C760 -222 783 -228 799 -228C818 -228 822 -240 813 -245C794 -256 767 -278 747 -300C720 -270 676 -240 591 -190C576 -224 550 -257 517 -284C539 -295 562 -308 581 -320C661 -320 747 -319 784 -316V-373C735 -368 598 -366 507 -366C416 -366 281 -368 231 -373V-313C276 -318 398 -320 487 -320C400 -279 264 -248 132 -236C149 -216 159 -201 170 -175C269 -198 373 -223 466 -261C474 -255 482 -248 488 -242C419 -193 260 -140 121 -115C137 -94 148 -74 156 -54C327 -99 442 -148 518 -207C525 -196 532 -181 536 -167C442 -102 263 -33 117 -5C134 15 149 37 158 57C298 14 454 -49 546 -117C550 -87 549 -63 545 -44C538 -12 513 10 431 0C448 27 453 43 457 77C570 70 603 30 615 -33C621 -67 620 -95 607 -142C624 -151 638 -158 652 -167C713 -69 780 -12 883 46C893 14 903 -8 923 -38C840 -56 749 -115 694 -189ZM487 -755C306 -755 209 -757 108 -763V-694C211 -699 312 -702 504 -702C695 -702 797 -701 900 -696V-762C812 -757 726 -755 583 -755C576 -782 568 -805 557 -836L463 -823C472 -802 481 -779 487 -755Z"/>
</svg>