<svg xmlns="http://www.w3.org/2000/svg" viewBox="0 -1000 1000 1000">
	<path fill="#000000" d="M215 -593C200 -608 185 -623 169 -639L111 -601C150 -565 185 -522 213 -478L285 -518C275 -529 265 -540 256 -550C343 -666 359 -683 391 -700V-772C360 -768 309 -764 238 -764C169 -764 112 -767 73 -772V-695C111 -700 154 -701 215 -701H297ZM254 -405H328L306 -325L376 -316L409 -477C380 -471 327 -468 234 -468C150 -468 93 -471 52 -475V-398C85 -401 128 -404 186 -405V-62C186 -30 159 -19 76 -35C100 -12 119 29 123 61C249 39 254 26 254 -27ZM713 -563H832V-471H680C697 -503 705 -530 713 -563ZM609 -471H518V-563H641C634 -525 623 -493 609 -471ZM557 -690H732L685 -619H497C520 -644 541 -669 557 -690ZM452 -570C455 -516 454 -452 449 -407C480 -411 511 -413 566 -414C527 -371 476 -338 380 -308C404 -289 410 -280 424 -255C482 -279 531 -307 572 -340C581 -331 589 -323 597 -314C514 -236 441 -183 345 -171C372 -151 390 -132 402 -105C505 -159 569 -205 630 -270C638 -257 645 -244 650 -230C600 -147 476 -59 331 -28C360 -5 373 12 384 37C523 -16 616 -92 668 -156C670 -135 671 -113 669 -88C664 -16 638 3 542 -6C564 27 571 53 572 83C700 68 729 30 731 -87C732 -152 729 -196 717 -235C729 -240 740 -246 751 -252C771 -139 820 -53 889 9C912 -32 932 -51 965 -61C884 -95 830 -158 800 -283C831 -303 862 -317 883 -322C897 -325 899 -331 887 -339C866 -353 850 -366 826 -393C792 -354 746 -314 693 -286C675 -315 651 -344 616 -382C626 -393 635 -404 644 -415C754 -417 845 -413 904 -406C897 -475 896 -567 904 -627C863 -622 816 -620 756 -619C800 -680 819 -711 843 -760C797 -753 771 -751 603 -750C629 -783 633 -787 639 -791C655 -800 652 -806 638 -807C618 -808 587 -818 553 -833C542 -795 514 -743 477 -697C432 -640 395 -601 348 -579C373 -571 399 -552 414 -531C427 -544 439 -557 452 -570Z"/>
</svg>