<svg xmlns="http://www.w3.org/2000/svg" viewBox="0 -1000 1000 1000">
	<path fill="#000000" d="M365 -825C271 -751 181 -703 61 -672C77 -661 97 -632 105 -611C171 -638 261 -682 334 -721C376 -743 398 -751 411 -753C424 -755 425 -762 416 -770C398 -785 387 -797 365 -825ZM317 -490C352 -512 380 -530 398 -544C429 -568 462 -584 488 -588C501 -590 502 -600 492 -605C466 -617 445 -635 434 -655C417 -637 401 -623 382 -608C368 -634 349 -662 332 -682L276 -648C299 -625 320 -599 335 -571C310 -552 282 -534 253 -517C239 -547 216 -585 195 -609L140 -577C165 -551 186 -520 201 -488C154 -464 103 -443 48 -424C72 -404 86 -387 101 -365C158 -394 219 -428 273 -462C287 -448 298 -434 308 -418C222 -324 133 -266 61 -239C85 -224 104 -205 121 -180C207 -236 279 -303 332 -368C340 -345 346 -320 351 -290C293 -216 163 -112 58 -68C82 -48 102 -26 113 -7C212 -66 298 -143 361 -219C372 -79 326 -14 235 -16C252 11 266 48 271 76C406 32 444 -51 434 -214C425 -360 403 -412 317 -490ZM826 -315H569V-482H826ZM826 -76H569V-249H826ZM648 -692C645 -648 637 -590 629 -543C576 -544 528 -546 494 -549C498 -512 500 -471 500 -400V-78C500 -6 499 16 494 70H569V-13H826V69H904C900 22 898 -9 898 -80V-399C898 -471 899 -511 905 -549C851 -544 777 -542 696 -542C706 -588 717 -649 722 -692C814 -691 883 -688 936 -682V-770C879 -764 804 -761 701 -761C597 -761 523 -764 467 -770V-682C513 -687 571 -691 648 -692Z"/>
</svg>