<svg xmlns="http://www.w3.org/2000/svg" viewBox="0 -1000 1000 1000">
	<path fill="#000000" d="M536 -138H233V-181H536ZM611 -82C608 -101 607 -152 607 -192V-300C607 -341 608 -391 611 -409C569 -403 508 -401 384 -401C260 -401 199 -403 158 -409C161 -391 162 -338 162 -297V-192C162 -152 161 -101 158 -82C199 -88 260 -89 384 -89C508 -89 569 -87 611 -82ZM536 -225H233V-268H536ZM536 -311H233V-351H536ZM680 -651C679 -446 701 -245 730 -125C747 -53 787 17 836 57C895 104 936 96 980 -75C947 -77 924 -88 898 -113C890 -15 876 -8 854 -43C801 -126 778 -202 764 -435C758 -534 756 -606 755 -651C819 -650 897 -647 950 -642V-721C896 -716 830 -713 754 -712C754 -784 756 -809 760 -814C774 -831 772 -839 752 -838C727 -837 690 -840 660 -845C668 -821 675 -768 678 -712H282C209 -712 136 -715 71 -721V-642C136 -648 209 -651 282 -651ZM337 -49C323 -54 297 -66 272 -80C213 -29 152 1 69 23C111 42 126 53 143 78C187 55 252 20 294 -7C321 -24 326 -26 336 -27C356 -28 359 -42 337 -49ZM697 18C642 -14 554 -53 475 -84L409 -39C499 -8 580 33 647 81ZM641 -442V-508C583 -503 485 -502 375 -502C265 -502 161 -503 102 -508V-442C160 -447 265 -449 375 -449C485 -449 583 -447 641 -442ZM592 -541V-607C534 -601 477 -600 367 -600C257 -600 200 -601 141 -607V-541C199 -546 257 -547 367 -547C477 -547 534 -546 592 -541ZM912 -757C888 -781 855 -818 836 -841L770 -793C804 -768 823 -749 846 -716Z"/>
</svg>