<svg xmlns="http://www.w3.org/2000/svg" viewBox="0 -1000 1000 1000">
	<path fill="#000000" d="M317 -234H170V-354H317ZM391 -163C390 -181 388 -226 388 -265V-682C388 -721 389 -767 391 -784C361 -780 335 -779 243 -779C151 -779 127 -780 98 -784C100 -766 101 -721 101 -682V-265C101 -226 100 -182 98 -163C127 -166 151 -167 243 -167C335 -167 361 -166 391 -163ZM317 -421H170V-534H317ZM317 -596H170V-712H317ZM236 -111C249 -115 248 -121 232 -126C216 -131 185 -150 166 -164C127 -85 94 -42 34 14C64 23 83 35 104 55C135 16 157 -14 195 -70C209 -91 226 -108 236 -111ZM928 -679C903 -718 872 -756 834 -792L770 -748C805 -719 832 -679 855 -633ZM510 -322C509 -183 490 -110 418 -35C395 -68 363 -108 322 -155L256 -114C298 -80 352 -5 364 38L421 2C437 11 449 24 460 39C545 -58 579 -164 579 -321C615 -320 640 -317 662 -313V-400C640 -396 615 -394 579 -392V-454C579 -480 587 -492 603 -503C615 -511 609 -522 592 -520C570 -517 546 -518 500 -523C507 -486 510 -458 510 -415V-392C469 -393 441 -396 416 -400V-313C441 -318 469 -321 510 -322ZM678 -561C683 -382 696 -242 715 -166C675 -118 623 -75 556 -32C591 -20 608 -5 627 22C675 -18 712 -51 745 -90C755 -71 766 -54 780 -35C845 53 871 78 894 76C920 74 939 38 957 -78C915 -89 899 -98 871 -124C873 -44 867 -42 825 -106C814 -123 804 -142 796 -162C829 -216 861 -284 901 -385C926 -447 930 -454 936 -459C948 -469 947 -473 934 -476C910 -481 884 -491 854 -507C834 -400 810 -318 772 -249C759 -321 753 -409 750 -560C834 -559 916 -556 950 -551V-631C915 -628 833 -625 749 -624C746 -749 749 -783 764 -802C780 -822 778 -825 755 -825C729 -824 694 -827 664 -833C673 -800 675 -775 675 -671C675 -663 675 -646 676 -624C578 -624 472 -627 430 -631V-551C472 -557 579 -561 678 -561Z"/>
</svg>