<svg xmlns="http://www.w3.org/2000/svg" viewBox="0 -1000 1000 1000">
	<path fill="#000000" d="M349 -264H174V-368H349ZM423 -191C421 -209 419 -255 419 -294V-676C419 -715 421 -761 423 -779C388 -774 358 -773 260 -773C162 -773 132 -774 98 -779C100 -761 102 -715 102 -676V-294C102 -255 100 -209 98 -191C131 -195 162 -196 260 -196C358 -196 389 -195 423 -191ZM349 -430H174V-537H349ZM349 -597H174V-706H349ZM235 -111C246 -117 245 -124 230 -127C213 -131 181 -148 160 -163C136 -93 100 -31 47 25C82 32 103 44 124 64C152 23 178 -19 205 -71C217 -93 228 -107 235 -111ZM459 4C436 -48 402 -105 357 -170L297 -134C332 -80 368 -12 392 53ZM786 -160C816 -196 845 -236 873 -279C895 -313 905 -323 918 -327C932 -331 931 -340 920 -342C899 -346 862 -364 833 -384C821 -338 798 -294 757 -237C684 -135 585 -58 478 -7C506 15 522 37 529 57C608 17 679 -40 744 -111C812 -41 845 1 882 61L960 -4C905 -60 858 -104 786 -160ZM674 -706C572 -706 506 -709 447 -716V-632C495 -638 550 -641 625 -641C529 -480 512 -465 459 -452C473 -426 482 -393 482 -359C510 -374 537 -382 580 -388L709 -407C657 -321 536 -215 431 -181C457 -162 476 -140 485 -115C659 -218 724 -291 832 -463C853 -496 868 -511 879 -516C891 -522 891 -529 882 -532C865 -538 822 -560 796 -576C782 -539 774 -521 738 -459L575 -452C670 -579 691 -593 716 -601C729 -605 731 -617 718 -621C706 -625 691 -632 675 -642C794 -642 878 -639 942 -632V-716C882 -709 810 -706 701 -706L757 -734C747 -766 727 -811 709 -840L624 -801C646 -773 664 -738 674 -706Z"/>
</svg>