<svg xmlns="http://www.w3.org/2000/svg" viewBox="0 -1000 1000 1000">
	<path fill="#000000" d="M798 -628H634V-721H798ZM879 -559C876 -598 874 -638 874 -679C874 -720 876 -752 879 -791C778 -785 648 -782 494 -782C356 -782 212 -785 111 -791C114 -749 115 -720 115 -679C115 -644 114 -607 111 -559C212 -565 346 -568 493 -568C648 -568 778 -565 879 -559ZM566 -628H421V-721H566ZM356 -628H188V-721H356ZM732 -405H261V-460H732ZM732 -294H261V-346H732ZM732 -178H261V-233H732ZM630 -110C721 -110 747 -109 810 -105C806 -119 804 -149 804 -174V-454C804 -479 806 -510 810 -523C747 -519 676 -518 494 -518C312 -518 245 -519 182 -523C185 -509 188 -479 188 -454V-174C188 -149 185 -119 182 -105C228 -108 274 -109 365 -110C277 -53 150 -4 71 11C118 44 125 55 129 78C208 54 319 8 363 -15C415 -42 425 -45 442 -44C457 -43 460 -61 442 -67C411 -77 390 -91 373 -110H615L577 -48C688 -15 785 24 871 73L914 1C825 -42 731 -80 630 -110Z"/>
</svg>