<svg xmlns="http://www.w3.org/2000/svg" viewBox="0 -1000 1000 1000">
	<path fill="#000000" d="M450 -198H183V-245H450ZM526 -136C523 -148 521 -180 521 -206V-455C521 -481 523 -514 526 -526C482 -522 443 -521 314 -521C186 -521 147 -522 103 -526C106 -514 110 -481 110 -455V-206C110 -180 106 -148 103 -136C147 -140 186 -140 314 -140C443 -140 482 -140 526 -136ZM450 -306H183V-353H450ZM450 -412H183V-460H450ZM426 -631H196V-721H426ZM501 -566C499 -582 499 -601 499 -619V-742C499 -755 500 -774 501 -789C451 -786 413 -785 310 -785C206 -785 164 -785 120 -788C122 -773 123 -754 123 -742V-620C123 -602 122 -584 120 -567C170 -569 207 -570 310 -570C414 -570 448 -570 501 -566ZM263 -65C287 -69 291 -76 263 -89C240 -100 222 -114 204 -130C160 -74 118 -37 46 8C72 24 88 42 98 63C138 34 175 3 204 -22C238 -51 254 -63 263 -65ZM526 -42C480 -73 426 -105 378 -128L336 -71C394 -42 433 -15 474 19ZM734 -589C735 -628 736 -680 737 -713C738 -769 745 -794 754 -803C768 -818 766 -823 745 -823C715 -823 679 -826 650 -832C656 -807 659 -751 658 -589C594 -590 570 -591 549 -594V-513C575 -516 614 -519 658 -519C656 -375 649 -292 641 -250C612 -96 573 -26 470 34C500 48 516 60 536 88C640 -4 682 -79 713 -240C720 -272 723 -311 732 -520H841C838 -351 832 -182 822 -95C816 -44 804 -33 710 -23C742 10 750 29 754 67C879 28 898 5 903 -116C908 -226 915 -418 917 -523C918 -565 923 -583 928 -596C901 -592 855 -589 807 -589Z"/>
</svg>