<svg xmlns="http://www.w3.org/2000/svg" viewBox="0 -1000 1000 1000">
	<path fill="#000000" d="M731 -113H267V-153H731ZM731 -200H267V-239H731ZM731 -286H267V-321H731ZM258 -520C262 -529 265 -538 268 -548H376C467 -548 513 -544 538 -540V-600C513 -595 474 -594 336 -594V-629C406 -628 457 -626 498 -623V-681C457 -677 406 -675 336 -675V-711C422 -711 484 -710 533 -706V-768C484 -764 422 -762 336 -762C337 -789 341 -799 350 -810C359 -821 357 -828 347 -827C321 -825 292 -825 262 -828C264 -814 265 -792 266 -762C178 -762 117 -764 66 -768V-706C116 -710 178 -711 266 -711V-675C195 -675 144 -677 102 -681V-623C144 -626 195 -628 266 -629V-594C137 -594 84 -596 53 -600V-540C83 -545 137 -548 205 -548C175 -463 124 -427 39 -393C74 -380 91 -363 106 -331C169 -381 208 -420 236 -471H421C417 -440 385 -427 313 -443C328 -421 335 -406 344 -377C259 -377 223 -380 190 -386C193 -364 194 -336 194 -284V-151C194 -99 193 -80 190 -50C230 -55 259 -56 351 -56C294 -31 214 -8 82 11C108 35 121 52 132 79C220 59 324 31 385 12C401 7 413 5 424 4C441 2 446 -7 433 -15C420 -23 400 -40 384 -56H586L568 8C682 26 760 47 861 88L895 18C808 -12 738 -29 607 -56C712 -56 764 -55 808 -50C805 -79 804 -105 804 -151V-284C804 -345 805 -366 808 -386C764 -379 728 -377 624 -377H377C452 -389 482 -416 490 -450L506 -523C483 -521 454 -520 421 -520ZM620 -672H790C775 -619 753 -577 718 -544C691 -569 669 -598 649 -633L597 -603C612 -569 636 -536 667 -506C625 -482 573 -466 508 -455C532 -436 544 -420 555 -388C627 -410 680 -433 721 -461C772 -425 835 -394 907 -369C915 -401 929 -425 946 -447C872 -463 816 -482 773 -506C810 -547 836 -599 862 -672C890 -672 915 -671 934 -669V-740C905 -735 855 -732 805 -732H650C661 -756 673 -776 687 -789C698 -798 695 -807 684 -809C661 -813 638 -820 608 -835C584 -744 564 -698 512 -628C539 -618 559 -609 574 -598C592 -625 604 -643 620 -672Z"/>
</svg>