<svg xmlns="http://www.w3.org/2000/svg" viewBox="0 -1000 1000 1000">
	<path fill="#000000" d="M624 -490C606 -526 590 -554 569 -590L516 -557C537 -524 552 -493 566 -454ZM638 -434H498V-618H638ZM830 -565L765 -594C754 -556 740 -521 722 -484L777 -456C798 -505 814 -537 830 -565ZM845 -434H704V-618H845ZM314 -282H158V-380H314ZM385 -207C383 -235 382 -257 382 -308V-675C382 -735 383 -756 385 -775C354 -771 325 -770 233 -770C141 -770 111 -771 82 -775C85 -755 86 -734 86 -675V-308C86 -258 85 -235 82 -207C111 -210 141 -211 233 -211C325 -211 352 -211 385 -207ZM314 -441H158V-540H314ZM314 -601H158V-702H314ZM534 -185V-259H814V-185ZM814 16V62H889C887 35 886 2 886 -45V-277C886 -304 887 -313 889 -327C858 -324 793 -323 676 -323C558 -323 497 -324 464 -327C466 -313 467 -303 467 -277V-35C467 18 466 54 464 72H534V16ZM534 -47V-123H814V-47ZM561 -678C508 -678 459 -680 425 -684C429 -658 429 -643 429 -598V-453C429 -418 428 -397 425 -369C485 -373 523 -373 675 -373C815 -373 858 -372 921 -369C918 -397 918 -413 918 -454V-600C918 -632 918 -658 921 -684C882 -679 845 -678 772 -678C811 -739 830 -760 859 -777C870 -784 870 -792 856 -796C833 -802 806 -815 773 -834C764 -800 741 -749 699 -678H577L631 -714C603 -753 572 -790 537 -824L481 -780C520 -743 543 -714 561 -678ZM216 -147C187 -154 164 -167 139 -184C120 -117 86 -46 36 25C60 34 82 47 101 66C133 12 155 -28 183 -92C190 -110 202 -122 212 -128C227 -137 228 -144 216 -147ZM413 -5C383 -76 363 -118 328 -186L259 -154C293 -100 316 -39 335 32Z"/>
</svg>