<svg xmlns="http://www.w3.org/2000/svg" viewBox="0 -1000 1000 1000">
	<path fill="#000000" d="M292 -257H157V-367H292ZM364 -187C363 -206 360 -256 360 -297V-659C360 -699 362 -743 364 -762C335 -756 308 -754 225 -754C140 -754 113 -756 85 -762C87 -743 89 -699 89 -659V-297C89 -256 86 -206 85 -187C113 -194 140 -195 225 -195C308 -195 335 -194 364 -187ZM292 -423H157V-528H292ZM292 -587H157V-690H292ZM214 -112C226 -114 228 -123 211 -128C187 -135 166 -146 142 -163C118 -108 77 -41 36 8C65 15 84 25 108 45C135 7 166 -44 183 -75C197 -101 203 -110 214 -112ZM369 -70C349 -110 331 -143 311 -175L247 -145C268 -112 288 -76 305 -27ZM893 -201V-273C844 -267 791 -265 705 -265C619 -265 567 -267 517 -273V-201C566 -207 619 -209 705 -209C791 -209 844 -207 893 -201ZM893 -300V-374C844 -368 792 -366 707 -366C622 -366 571 -368 521 -374V-300C570 -306 622 -308 707 -308C792 -308 844 -306 893 -300ZM906 -523C861 -555 830 -573 784 -592L743 -552C788 -529 831 -501 863 -473ZM648 -538C666 -540 667 -544 647 -558C634 -567 620 -577 604 -591C580 -571 544 -548 503 -527C525 -512 536 -500 550 -481C612 -523 638 -537 648 -538ZM816 28V64H896C889 36 886 6 886 -17V-113C886 -145 887 -160 890 -173C856 -171 824 -170 698 -170C573 -170 544 -171 508 -173C509 -158 510 -142 510 -113V-29C510 7 509 29 503 64H579V28ZM579 -31V-112H816V-31ZM471 -655C452 -656 436 -657 420 -658C435 -195 419 -85 308 27C334 42 355 57 376 74C454 -38 482 -117 491 -407H723C807 -407 883 -405 939 -400V-471C888 -466 819 -464 744 -464C742 -487 739 -510 735 -535L653 -526C661 -507 666 -484 667 -464H492C493 -504 494 -548 494 -596H767C843 -596 903 -594 939 -589V-660C901 -655 824 -653 749 -653L872 -768C826 -766 778 -765 716 -765H598C616 -781 626 -786 636 -788C655 -792 656 -803 637 -809C611 -817 592 -825 566 -840C531 -785 493 -748 426 -700C443 -688 456 -675 471 -655ZM543 -710H724L660 -653C576 -653 524 -654 486 -655C508 -675 526 -692 543 -710Z"/>
</svg>