<svg xmlns="http://www.w3.org/2000/svg" viewBox="0 -1000 1000 1000">
	<path fill="#000000" d="M752 -597C754 -629 755 -661 756 -694C758 -753 765 -774 777 -792C786 -807 785 -811 773 -812C734 -814 700 -818 675 -823C679 -798 681 -728 681 -597C638 -598 609 -600 580 -605V-528C614 -533 645 -535 680 -536C675 -429 657 -269 645 -218C614 -88 568 -21 489 40C522 51 541 60 569 80C663 -32 697 -109 722 -251C732 -310 742 -415 749 -536H846L826 -106C823 -42 800 -33 707 -46C725 -20 738 17 741 49C864 35 892 17 896 -70L924 -605C894 -600 846 -597 752 -597ZM552 -77C518 -93 465 -122 420 -151L388 -97C444 -66 479 -42 509 -15ZM397 -625C376 -646 350 -668 319 -689C377 -758 388 -768 397 -771C413 -776 413 -780 396 -783C362 -789 347 -794 317 -807C303 -763 272 -710 247 -682C276 -658 313 -616 340 -579C356 -593 377 -611 397 -625ZM228 -766C242 -771 243 -775 227 -778C203 -782 175 -793 147 -807C135 -752 106 -698 76 -669C112 -636 144 -600 167 -572C182 -587 205 -606 227 -617C185 -651 171 -661 148 -675C212 -754 221 -764 228 -766ZM560 -625C537 -647 513 -666 484 -686C539 -755 547 -764 552 -766C566 -771 567 -775 551 -778C537 -780 506 -790 477 -805C463 -761 432 -708 407 -680C436 -656 476 -614 504 -577C518 -594 549 -618 560 -625ZM297 -445H177V-509H297ZM365 -509H484V-445H365ZM365 -393H484V-328H365ZM297 -328H177V-393H297ZM297 -220C160 -220 112 -223 77 -227V-162C107 -165 141 -167 235 -168C190 -97 126 -50 42 -16C64 0 83 20 95 43C178 -6 240 -62 297 -164V-125C297 -72 292 -13 284 51H373C367 -14 365 -72 365 -125V-168C490 -168 532 -167 573 -162V-227C537 -222 486 -220 365 -220V-275C491 -275 514 -275 551 -273C550 -295 549 -317 549 -357V-488C549 -527 550 -548 552 -570C511 -565 487 -563 343 -563C198 -563 153 -564 112 -567C114 -545 115 -525 115 -485V-358C115 -320 114 -296 112 -273C147 -275 187 -275 297 -275Z"/>
</svg>