<svg xmlns="http://www.w3.org/2000/svg" viewBox="0 -1000 1000 1000">
	<path fill="#000000" d="M172 -708H305V-537H172ZM925 -569C808 -550 800 -558 800 -601C800 -693 802 -750 808 -787C775 -784 728 -782 659 -782C590 -782 545 -784 514 -787C528 -615 501 -533 416 -474C442 -461 461 -445 475 -415C565 -495 589 -569 593 -709H725V-548C725 -485 736 -475 913 -480C909 -512 912 -542 925 -569ZM221 -83C199 -78 178 -74 157 -70V-339C157 -348 163 -356 175 -364C189 -374 186 -382 168 -381C152 -380 108 -382 79 -386C82 -361 83 -313 83 -268V-58C67 -56 52 -54 37 -52C50 -20 57 9 61 40C129 16 201 -6 398 -57C393 -76 393 -110 401 -132C370 -121 333 -110 294 -100V-277C352 -277 376 -276 395 -273V-351C376 -348 352 -347 294 -347V-474C337 -473 358 -472 382 -470C381 -507 381 -556 381 -624C381 -679 381 -740 382 -777C349 -773 322 -771 239 -771C157 -771 128 -773 95 -777C97 -740 98 -679 98 -624C98 -570 97 -509 95 -471C125 -473 152 -474 221 -474ZM624 -275V1C624 26 622 55 618 84H704C701 57 699 26 699 1V-297C727 -140 790 -55 911 21C922 -11 936 -32 968 -68C861 -109 779 -200 743 -306C826 -306 861 -305 926 -301V-379C866 -373 817 -371 699 -371V-438C699 -449 704 -456 713 -460C731 -468 730 -480 707 -479C677 -478 646 -479 619 -482C621 -464 623 -416 624 -371C527 -372 483 -374 429 -379V-301C481 -305 513 -306 581 -306C532 -188 454 -77 376 -22C408 -12 429 0 460 29C535 -59 569 -112 624 -275Z"/>
</svg>