<svg xmlns="http://www.w3.org/2000/svg" viewBox="0 -1000 1000 1000">
	<path fill="#000000" d="M166 -678H290V-519H166ZM219 -91L155 -74V-309C155 -338 159 -349 174 -359C184 -366 184 -375 167 -374C145 -373 112 -375 80 -379C85 -350 88 -316 88 -261V-60C77 -59 66 -58 55 -58C66 -26 73 0 78 30C138 -2 214 -26 370 -65C363 -85 363 -107 372 -131L281 -107V-286C346 -285 364 -283 383 -279V-353C364 -349 347 -347 281 -347V-460C318 -459 346 -456 368 -453C363 -492 360 -551 361 -606C361 -660 364 -717 368 -754C336 -748 293 -744 232 -744C171 -744 124 -748 91 -754C96 -717 99 -662 99 -609C100 -553 96 -498 91 -454C122 -458 165 -460 219 -461ZM765 -502V-413H652V-502ZM734 -725C726 -759 718 -795 711 -825L629 -806C638 -779 645 -751 651 -725C503 -725 456 -728 415 -734C435 -190 420 -90 312 36C339 40 372 52 395 67C474 -58 503 -188 497 -502H588V-444C588 -410 587 -389 581 -352C614 -357 636 -359 712 -359C785 -359 807 -358 836 -352C831 -384 829 -412 829 -446V-502C879 -501 908 -499 935 -495V-567C911 -563 881 -561 830 -560C831 -593 835 -612 841 -619C850 -629 847 -632 835 -630C817 -627 794 -629 759 -638C763 -619 764 -598 765 -560H652C654 -590 657 -606 664 -613C673 -622 671 -627 661 -626C637 -623 607 -627 579 -635C584 -616 587 -592 588 -560H496C495 -593 494 -627 492 -664H765C841 -664 894 -661 936 -656V-734C897 -729 854 -726 734 -725ZM630 -234C669 -235 718 -235 781 -235C767 -186 740 -140 709 -109C671 -142 648 -181 630 -234ZM563 -231C587 -160 614 -110 660 -70C609 -40 535 -15 460 -6C491 19 502 46 502 73C597 41 666 5 715 -29C772 8 839 35 915 51C923 17 936 -8 959 -33C893 -37 820 -50 767 -72C815 -124 851 -206 878 -302C830 -297 775 -295 708 -295C645 -295 572 -297 520 -302V-228C533 -229 547 -230 563 -231Z"/>
</svg>