<svg xmlns="http://www.w3.org/2000/svg" viewBox="0 -1000 1000 1000">
	<path fill="#000000" d="M190 -690H329V-527H190ZM640 -728C627 -757 611 -795 602 -819L528 -791C542 -767 560 -729 570 -704ZM628 -482C622 -452 616 -424 608 -398C535 -399 483 -402 435 -406V-330C477 -334 524 -336 586 -338C551 -264 458 -166 377 -124C399 -106 421 -86 433 -73C473 -101 513 -137 548 -176H646V-28C539 -28 493 -31 427 -37V41C501 34 549 32 685 32C820 32 871 34 943 41V-37C878 -31 829 -28 719 -28V-176C784 -175 856 -172 900 -167V-243C851 -238 773 -235 699 -235H597C624 -271 646 -306 661 -339C802 -339 882 -337 952 -330V-406C886 -400 811 -397 680 -397C686 -420 693 -450 698 -482C819 -482 841 -481 907 -473V-548C845 -540 820 -539 708 -539C713 -568 717 -598 720 -627C833 -627 883 -625 946 -619V-693C896 -689 854 -686 782 -685C822 -761 833 -768 849 -774C865 -780 864 -788 851 -791C824 -798 796 -808 764 -820C754 -780 735 -732 712 -685C571 -685 518 -688 452 -693V-619C505 -624 562 -626 648 -627C646 -599 642 -569 638 -539C554 -539 528 -541 471 -548V-473C523 -480 551 -481 628 -482ZM301 -327V-468C344 -467 377 -466 402 -464C398 -501 396 -561 396 -613C395 -665 397 -718 402 -755C369 -751 323 -749 260 -749C197 -749 150 -751 117 -755C121 -718 123 -665 123 -613C124 -561 122 -502 117 -464C145 -467 186 -468 238 -468V-72L161 -62V-329C161 -338 166 -347 179 -354C192 -361 191 -370 172 -369C156 -368 121 -370 92 -374C95 -349 96 -329 96 -256V-55C81 -53 66 -52 50 -50C63 -18 71 9 77 39C114 22 168 8 389 -34C386 -51 385 -82 390 -107L301 -83V-268C367 -268 384 -268 403 -264C399 -286 399 -307 403 -331C384 -328 367 -327 301 -327Z"/>
</svg>