<svg xmlns="http://www.w3.org/2000/svg" viewBox="0 -1000 1000 1000">
	<path fill="#000000" d="M480 -334H814V-281H480ZM287 -544H181V-701H287ZM607 -16C589 -42 570 -76 561 -98L480 -68C497 -44 517 -11 525 17ZM617 -757C600 -778 584 -802 571 -826L495 -793C514 -771 527 -749 539 -721ZM726 -546H814V-480C734 -474 726 -480 726 -501ZM606 -546H670V-475C669 -433 677 -427 814 -431V-385H480V-546H551C546 -509 526 -453 497 -432C521 -429 545 -420 562 -410C584 -437 601 -506 606 -546ZM726 -666C841 -666 894 -664 940 -659V-726C890 -720 849 -717 749 -716C789 -774 803 -788 815 -791C825 -794 825 -805 812 -808C790 -813 758 -824 735 -835C721 -793 707 -760 681 -716C518 -716 444 -719 390 -726V-659C435 -663 493 -665 553 -666V-593C493 -593 448 -595 412 -598C414 -574 415 -547 415 -515V-309C415 -278 414 -248 412 -226C442 -228 487 -229 537 -229H737V-167H563C496 -167 431 -171 405 -179V-104C431 -109 496 -111 563 -111H737V-35C737 -7 725 3 640 -2C665 30 674 62 672 85C805 57 812 47 812 -1V-111C872 -110 929 -108 951 -103V-179C931 -172 873 -168 812 -167V-229C840 -228 865 -227 884 -226C882 -249 881 -273 881 -308V-515C881 -545 882 -574 885 -598C849 -595 797 -593 726 -593ZM608 -666H670V-593H608ZM217 -103C195 -97 174 -92 154 -88V-371C154 -380 160 -388 172 -396C185 -405 181 -412 165 -411C150 -410 115 -412 87 -416C90 -391 91 -343 91 -298V-78C78 -76 65 -75 52 -74C69 -43 79 -10 83 20C138 -10 221 -41 373 -82C369 -109 370 -132 377 -154C343 -142 314 -132 285 -123V-295C338 -295 355 -294 372 -291C368 -313 368 -336 372 -360C355 -357 338 -356 285 -356V-485C318 -485 342 -484 362 -482C359 -516 358 -568 358 -627C358 -686 359 -738 362 -772C333 -767 294 -766 236 -766C178 -766 138 -768 108 -772C111 -738 112 -686 112 -627C112 -568 111 -516 108 -482C133 -485 160 -485 217 -485Z"/>
</svg>