<svg xmlns="http://www.w3.org/2000/svg" viewBox="0 -1000 1000 1000">
	<path fill="#000000" d="M804 24V65H890C885 29 882 -27 882 -68V-127C882 -162 883 -200 886 -225C859 -222 811 -220 726 -220V-294C823 -293 888 -290 942 -285V-360C888 -355 823 -352 726 -351V-421C804 -420 859 -417 903 -412V-484C859 -479 804 -476 726 -475V-531C814 -530 875 -527 923 -522V-594C875 -589 814 -586 726 -585C726 -627 729 -638 742 -649C754 -659 751 -665 735 -664C714 -663 692 -664 646 -669C649 -649 651 -623 652 -585C569 -586 511 -589 463 -594V-522C511 -527 569 -530 652 -531V-475C574 -476 520 -479 475 -484V-412C520 -417 574 -420 652 -421V-351C563 -352 503 -355 450 -360V-285C503 -290 563 -293 652 -294V-220C571 -220 525 -222 498 -225C501 -200 502 -162 502 -127V-58C502 -16 499 39 494 75H573V24ZM573 -39V-158H804V-39ZM727 -744C725 -777 722 -805 716 -840L625 -829C634 -803 641 -776 646 -744C559 -744 513 -745 458 -749V-620H531V-686H864V-620H939V-749C881 -745 828 -744 727 -744ZM223 -315H149V-385H223ZM290 -385H363V-315H290ZM223 -444H149V-519H223ZM290 -519H363V-444H290ZM290 -718V-776C290 -798 293 -810 302 -815C316 -823 314 -832 297 -831C268 -829 247 -830 214 -834C219 -813 223 -776 223 -718C146 -718 93 -721 51 -727V-649C93 -655 146 -658 223 -658V-577C142 -577 112 -578 80 -582C83 -570 85 -538 85 -512V-320C85 -294 83 -263 80 -250C112 -254 142 -255 223 -255V-177C143 -178 85 -181 41 -186V-106C85 -111 143 -114 223 -115C223 -40 220 19 214 74H297C292 20 290 -45 290 -115C363 -114 418 -111 459 -106V-186C418 -181 363 -178 290 -177V-255C369 -255 398 -254 431 -250C428 -262 426 -294 426 -320V-512C426 -538 428 -570 431 -582C398 -578 369 -577 290 -577V-657C353 -657 399 -654 435 -649V-727C399 -722 353 -719 290 -718Z"/>
</svg>