<svg xmlns="http://www.w3.org/2000/svg" viewBox="0 -1000 1000 1000">
	<path fill="#000000" d="M726 -84H623V-156H726ZM788 -22C786 -46 786 -81 786 -117C786 -152 787 -187 788 -212C763 -210 727 -209 679 -209C630 -209 587 -210 562 -212C564 -187 566 -152 566 -117C566 -75 564 -47 562 -24C587 -25 630 -25 679 -25C727 -25 762 -24 788 -22ZM774 -410H587V-480H774ZM907 -322C834 -317 780 -315 680 -315C593 -315 496 -318 449 -321C452 -305 454 -284 454 -245V-49C454 -19 452 34 449 70H522V-253H838V-50C838 -4 834 2 745 2C775 26 783 45 788 77C891 59 905 42 905 -26V-246C905 -280 906 -300 907 -322ZM213 -316H151V-388H213ZM279 -388H342V-316H279ZM213 -444H151V-512H213ZM279 -512H342V-444H279ZM715 -600C732 -574 749 -553 768 -533H567C590 -556 610 -578 627 -600ZM624 -718C615 -697 604 -676 591 -656C503 -657 465 -659 428 -664V-593C465 -596 502 -598 548 -599C507 -554 457 -515 403 -484V-508C403 -534 405 -566 408 -578C376 -575 339 -573 279 -573V-646C341 -645 377 -642 415 -637V-715C377 -710 341 -707 279 -706C279 -773 282 -789 290 -795C308 -808 303 -816 285 -815C260 -814 239 -815 205 -820C209 -800 212 -763 213 -706C141 -707 102 -710 60 -715V-637C102 -642 141 -645 213 -646V-573C155 -573 117 -575 84 -578C87 -566 89 -534 89 -508V-319C89 -293 87 -261 84 -249C117 -253 151 -254 213 -254V-176C139 -177 89 -180 47 -185V-108C89 -113 139 -116 213 -117C213 -70 208 13 203 67H285C282 14 279 -70 279 -117C344 -116 389 -113 428 -108V-185C389 -180 344 -177 279 -176V-254C338 -254 376 -252 408 -249C405 -261 403 -293 403 -319V-459C414 -446 421 -435 431 -417C466 -444 497 -469 524 -492V-407C524 -386 523 -368 521 -353C557 -354 606 -354 681 -354C754 -354 801 -353 839 -352C836 -365 835 -385 835 -406V-477C863 -457 896 -436 938 -412C944 -444 958 -468 978 -492C897 -511 839 -543 788 -600C848 -600 894 -598 937 -593V-664C890 -658 828 -656 759 -656H665C679 -680 691 -703 701 -728C819 -743 877 -748 894 -744C912 -740 916 -746 904 -756C886 -771 873 -787 861 -818C797 -801 730 -788 656 -780C547 -768 503 -766 443 -771C464 -747 472 -730 479 -703C529 -708 577 -713 624 -718Z"/>
</svg>