<svg xmlns="http://www.w3.org/2000/svg" viewBox="0 -1000 1000 1000">
	<path fill="#000000" d="M264 -640C236 -706 213 -768 196 -818L115 -787C141 -738 163 -669 173 -609ZM167 -137C139 -122 105 -88 48 -20C76 -6 96 9 119 31C200 -95 212 -97 298 -25C374 38 474 41 919 30C922 -2 934 -31 954 -61C476 -33 394 -38 320 -93C285 -119 261 -133 242 -140V-404C242 -459 245 -490 252 -521C195 -512 126 -511 67 -521V-436C93 -439 118 -440 167 -440ZM599 -712H777C777 -667 773 -614 768 -578C762 -535 742 -522 645 -532C667 -502 679 -474 688 -443C813 -460 837 -480 844 -544C857 -656 861 -719 863 -786C825 -780 711 -778 606 -778C520 -778 389 -783 361 -786V-704C383 -708 445 -711 518 -712C502 -606 440 -529 294 -498C320 -479 337 -460 351 -432C507 -482 573 -566 599 -712ZM760 -148V-96H845C840 -136 838 -177 838 -212V-319C838 -370 839 -394 844 -423C806 -417 766 -414 617 -414C494 -414 424 -418 378 -423C384 -397 386 -370 386 -319V-198C386 -157 383 -117 377 -82H463V-148ZM463 -210V-351H760V-210Z"/>
</svg>