<svg xmlns="http://www.w3.org/2000/svg" viewBox="0 -1000 1000 1000">
	<path fill="#000000" d="M157 -89C121 -73 82 -38 46 14C74 27 95 41 118 62C173 -40 194 -55 274 -17C407 45 552 55 902 45C907 16 916 -12 940 -53C665 -11 418 -28 335 -62C296 -78 263 -90 234 -95V-366C235 -415 236 -449 244 -486C215 -481 181 -479 149 -479C117 -479 86 -482 60 -486V-402C83 -407 98 -409 157 -409ZM455 -338C433 -366 416 -384 393 -404L336 -368C362 -342 375 -325 394 -294ZM243 -622C210 -679 180 -736 158 -782L84 -751C113 -705 142 -642 164 -587ZM795 -626H627V-697H795ZM627 -491V-564H795V-491ZM687 -295C668 -305 648 -315 627 -325V-431C744 -431 829 -427 871 -420C867 -451 865 -489 864 -562C888 -560 912 -557 945 -554V-637C913 -632 888 -629 864 -628C864 -709 866 -745 871 -771C829 -764 746 -759 627 -759C627 -803 629 -810 637 -818C650 -829 648 -840 629 -839C595 -837 577 -838 551 -844C554 -825 556 -802 557 -759C465 -761 396 -764 357 -771V-687C395 -692 463 -696 557 -697V-626H437C392 -626 355 -628 301 -635V-554C355 -561 391 -564 437 -564H557V-491C456 -492 380 -495 339 -501V-420C379 -427 460 -430 557 -431V-358C480 -299 378 -227 282 -186C308 -165 318 -153 336 -126C410 -178 495 -242 557 -291V-182C557 -143 544 -138 464 -146C487 -117 494 -92 498 -58C623 -81 627 -85 627 -157V-271C712 -222 787 -167 849 -110L908 -175C853 -208 798 -238 736 -270C765 -286 786 -302 807 -321C826 -339 848 -353 855 -355C877 -360 878 -368 865 -375C843 -387 832 -394 809 -415C778 -373 744 -335 687 -295Z"/>
</svg>