<svg xmlns="http://www.w3.org/2000/svg" viewBox="0 -1000 1000 1000">
	<path fill="#000000" d="M565 -303H422V-364H565ZM639 -364H785V-303H639ZM565 -418H422V-478H565ZM639 -478H785V-418H639ZM263 -605C228 -663 199 -708 160 -767L91 -721C129 -679 165 -614 187 -558ZM565 -594V-537C440 -537 392 -539 343 -542C348 -528 352 -498 352 -472V-311C352 -285 348 -253 343 -241C392 -245 440 -246 565 -246V-189C442 -190 350 -193 285 -198V-120C351 -125 442 -128 565 -129V-28C411 -30 375 -43 305 -87C280 -103 262 -113 244 -118V-354C244 -408 247 -437 253 -472C222 -468 194 -466 156 -466C118 -466 91 -468 59 -472V-397C85 -400 113 -401 170 -401V-116C144 -105 109 -78 47 -21C70 -4 93 16 114 39C190 -69 202 -70 278 -22C377 39 410 49 931 53C932 21 940 -13 959 -41C882 -33 763 -28 639 -28V-129C767 -129 859 -126 930 -120V-198C859 -192 767 -189 639 -189V-246C770 -246 818 -245 868 -241C863 -253 859 -285 859 -311V-472C859 -498 863 -530 868 -542C818 -539 770 -537 639 -537V-594C709 -593 760 -590 801 -585V-659C760 -654 709 -651 639 -650C639 -680 642 -691 647 -694C659 -705 653 -713 636 -710C615 -706 580 -705 556 -708C560 -695 564 -674 564 -650C489 -651 434 -654 391 -659V-585C433 -590 489 -593 565 -594ZM598 -784C417 -784 351 -786 297 -790V-613H370V-723H821V-607H898V-790C844 -786 779 -784 598 -784Z"/>
</svg>