<svg xmlns="http://www.w3.org/2000/svg" viewBox="0 -1000 1000 1000">
	<path fill="#000000" d="M241 -91V-358C241 -412 243 -435 250 -477C222 -474 185 -472 149 -472C112 -472 75 -474 48 -477V-394C70 -397 87 -398 171 -398V-83C135 -71 108 -57 49 -18C76 2 93 21 119 64C187 -37 208 -41 273 -14C463 66 487 69 928 45C925 9 925 -8 952 -48C629 -2 480 -7 386 -45C310 -76 270 -87 241 -91ZM187 -781L116 -760C136 -711 162 -629 175 -573L253 -602C231 -667 217 -706 187 -781ZM580 -376V-316H445V-376ZM777 -316H643V-376H777ZM777 -205H643V-272H777ZM445 -272H580V-205H445ZM537 -585H676V-517H537ZM474 -692V-629C390 -629 355 -632 324 -638V-580C354 -584 388 -585 474 -585V-517C375 -517 316 -518 281 -524V-464C316 -468 340 -471 580 -472V-423C451 -423 407 -423 376 -428C378 -407 379 -378 379 -299V-205C347 -207 315 -209 291 -214V-148C317 -153 346 -155 379 -156C379 -120 377 -89 373 -71H445V-156H777C765 -110 751 -107 685 -118C704 -87 713 -64 714 -43C836 -65 844 -77 844 -126V-155C884 -153 923 -151 942 -148V-214C924 -211 884 -208 844 -206V-299C844 -377 844 -405 846 -428C814 -425 753 -423 643 -423V-472C850 -473 889 -472 931 -464V-524C888 -519 855 -517 735 -517V-585C841 -585 849 -584 876 -580V-638C849 -632 808 -629 735 -629V-692C839 -692 875 -691 905 -687V-744C878 -740 823 -737 735 -737V-782C735 -800 738 -806 751 -812C765 -818 760 -826 746 -825C722 -823 694 -826 670 -831C675 -811 676 -799 676 -737H537V-774C537 -787 543 -799 552 -806C565 -816 563 -821 550 -820C527 -818 496 -820 469 -825C473 -813 474 -802 474 -737C410 -738 349 -741 315 -744V-687C346 -691 380 -692 474 -692ZM676 -692V-629H537V-692Z"/>
</svg>