<svg xmlns="http://www.w3.org/2000/svg" viewBox="0 -1000 1000 1000">
	<path fill="#000000" d="M760 -94V-57H835C832 -73 831 -89 831 -107V-191C831 -202 835 -213 843 -219C854 -227 851 -233 840 -232C810 -230 787 -231 754 -235C757 -221 760 -196 760 -173V-147L629 -146V-270C754 -269 846 -266 916 -260V-341C846 -335 754 -332 629 -332V-404C729 -404 804 -402 869 -398V-472C802 -468 729 -466 624 -466H464C491 -477 488 -487 467 -487C554 -499 637 -519 676 -541C795 -609 830 -653 884 -762C866 -761 838 -761 804 -761H533C545 -775 553 -782 562 -786C578 -793 576 -800 555 -805C527 -811 514 -816 489 -829C453 -759 401 -711 304 -655C336 -641 347 -628 360 -599C413 -638 457 -675 479 -698H767C747 -665 722 -640 684 -618C646 -648 619 -666 579 -690L539 -646C574 -626 601 -606 622 -586C605 -577 587 -569 563 -562C528 -593 500 -615 466 -640L413 -604C441 -585 466 -566 487 -547C422 -539 340 -537 255 -544C282 -512 289 -493 291 -472C322 -473 358 -475 394 -478C374 -440 352 -413 313 -375C343 -368 365 -361 385 -348C398 -370 408 -389 417 -404H558V-332C431 -333 334 -336 263 -341V-260C333 -266 431 -269 558 -270V-146L422 -145V-192C422 -205 424 -211 431 -216C442 -224 440 -232 424 -231C390 -229 381 -230 347 -236C350 -225 351 -213 351 -192V-133C351 -113 350 -99 347 -85C381 -88 419 -89 551 -91ZM229 -96V-376C229 -430 231 -461 237 -496C211 -492 181 -490 150 -490C116 -490 84 -492 57 -496V-414C81 -417 97 -418 152 -418V-90C127 -77 95 -51 42 -3C72 17 96 38 118 60C186 -45 196 -49 270 -10C398 58 522 57 925 54C925 22 930 -3 947 -38C585 -17 426 -19 343 -55C295 -76 259 -90 229 -96ZM187 -811L99 -787C125 -739 146 -674 158 -607L248 -635C224 -694 201 -762 187 -811Z"/>
</svg>