<svg xmlns="http://www.w3.org/2000/svg" viewBox="0 -1000 1000 1000">
	<path fill="#000000" d="M250 -623C232 -672 201 -745 174 -800L97 -771C126 -722 157 -642 169 -591ZM236 -97V-376C236 -430 239 -463 244 -498C220 -493 186 -492 152 -492C118 -492 74 -494 52 -498V-416C73 -420 101 -420 166 -420V-103C137 -93 97 -67 46 -25C70 -5 95 21 112 42C157 -32 206 -53 263 -25C381 33 511 57 930 41C931 10 937 -13 957 -54C588 -17 417 -26 327 -62C285 -79 261 -88 236 -97ZM724 -723C706 -613 690 -584 638 -530C663 -523 684 -511 699 -499C756 -568 773 -611 783 -723H859L848 -623C845 -593 838 -588 766 -592C784 -564 793 -540 794 -521C903 -539 908 -546 912 -602L929 -781C898 -779 869 -778 773 -778C695 -778 659 -779 635 -781V-719C657 -721 686 -722 724 -723ZM779 -418H730C736 -441 741 -461 746 -466C751 -471 749 -474 743 -473C735 -472 704 -477 682 -486C681 -446 665 -377 643 -324C664 -323 687 -319 704 -312C706 -322 711 -341 715 -359H779V-263C721 -263 683 -264 648 -267V-198C682 -202 706 -203 779 -203C779 -154 776 -105 771 -61H847C842 -105 840 -154 840 -203C889 -203 924 -201 954 -198V-267C924 -264 889 -263 840 -263V-359C880 -359 911 -357 936 -355V-422C912 -419 882 -418 840 -418V-465C840 -476 844 -482 856 -487C864 -491 863 -496 853 -495C834 -494 802 -495 775 -500C778 -490 779 -479 779 -418ZM355 -594C375 -624 398 -663 415 -695H507L459 -592C419 -592 386 -593 355 -594ZM441 -447H372V-543H441ZM496 -543H564V-447H496ZM496 -251H564V-183C564 -129 555 -122 487 -124C506 -94 512 -73 511 -55C613 -71 621 -80 621 -169V-455C621 -537 622 -567 625 -596C595 -594 561 -593 523 -592L603 -749C580 -744 554 -743 523 -743H439C455 -775 462 -787 466 -791C481 -803 480 -810 467 -810C449 -810 413 -817 387 -829C373 -741 350 -689 269 -579C285 -574 302 -565 316 -559V-309C316 -232 297 -176 260 -126C282 -123 303 -113 320 -96C345 -143 363 -203 369 -251H441V-215C441 -187 440 -159 437 -135H500C497 -160 496 -189 496 -215ZM441 -300H372V-397H441ZM496 -397H564V-300H496Z"/>
</svg>