<svg xmlns="http://www.w3.org/2000/svg" viewBox="0 -1000 1000 1000">
	<path fill="#000000" d="M526 -591V-530H371V-591ZM371 -642V-703H526V-642ZM217 -97V-365C217 -419 219 -450 226 -480C171 -471 107 -472 54 -480V-397C78 -401 102 -403 140 -403V-86C112 -67 75 -35 33 11C59 25 82 41 100 61C155 -38 189 -45 309 12C423 66 570 76 916 48C919 16 926 -7 948 -44C606 5 449 -5 344 -44C281 -67 248 -81 217 -97ZM182 -781L105 -759C128 -706 141 -640 145 -577L231 -596C218 -658 201 -725 182 -781ZM427 -401C361 -402 315 -404 276 -408V-340C302 -344 331 -346 366 -346C355 -249 316 -167 244 -115C271 -112 300 -96 318 -80C357 -113 386 -168 408 -232H510C504 -145 493 -125 412 -124C429 -98 437 -79 439 -52C547 -70 571 -101 594 -290C571 -288 505 -286 423 -286C428 -306 433 -326 436 -347C554 -347 587 -346 634 -340V-408C602 -404 565 -402 515 -401C487 -428 467 -452 453 -471L382 -451C398 -435 414 -418 427 -401ZM386 -757C342 -758 317 -760 300 -764C304 -744 305 -718 305 -666V-571C305 -521 303 -493 299 -471C322 -476 359 -480 450 -480C536 -480 579 -476 601 -471C596 -492 593 -525 593 -571V-666C593 -716 595 -743 600 -764C579 -760 535 -756 462 -756C471 -796 476 -810 481 -812C492 -818 492 -829 480 -829C449 -829 414 -833 391 -841C393 -818 391 -791 386 -757ZM779 -226C802 -180 826 -122 839 -77L915 -122C889 -179 856 -239 818 -299C850 -372 871 -473 879 -593C909 -593 924 -592 942 -590V-670C913 -665 840 -660 726 -659C757 -774 767 -794 780 -804C797 -818 795 -826 781 -825C755 -824 714 -834 685 -846C676 -729 649 -630 606 -526C623 -518 645 -500 661 -483C681 -517 694 -548 707 -593H806C800 -490 789 -419 774 -368C748 -409 728 -439 718 -452L662 -426C685 -393 715 -342 743 -294C702 -225 621 -120 561 -92C592 -81 620 -62 636 -46C678 -79 735 -153 779 -226Z"/>
</svg>