<svg xmlns="http://www.w3.org/2000/svg" viewBox="0 -1000 1000 1000">
	<path fill="#000000" d="M927 -776C885 -770 831 -766 752 -766C675 -766 620 -771 577 -776C582 -752 586 -708 586 -671V-141C586 -56 583 5 576 94H667V-696H810L732 -433C832 -303 841 -258 833 -217C822 -157 798 -139 700 -151C728 -119 740 -85 744 -51C861 -56 923 -107 923 -202C923 -270 907 -323 813 -437ZM237 -702C238 -651 239 -605 238 -562C185 -563 134 -565 94 -570V-490C133 -495 184 -498 237 -499C235 -450 232 -407 227 -368C176 -369 128 -372 89 -376V-297C126 -301 170 -304 217 -306C194 -194 151 -122 77 -53C105 -35 127 -13 141 15C226 -81 270 -174 292 -307H436C434 -253 432 -200 429 -148C426 -90 418 -72 298 -77C325 -45 336 -14 337 17C485 -17 501 -34 505 -132C513 -321 521 -497 529 -775C483 -769 443 -765 320 -765C209 -765 156 -769 113 -775V-697C145 -700 188 -702 237 -702ZM444 -562H313C314 -606 315 -652 315 -702H447C446 -653 445 -607 444 -562ZM438 -368H301C305 -408 308 -452 310 -500H442C441 -455 440 -411 438 -368Z"/>
</svg>