<svg xmlns="http://www.w3.org/2000/svg" viewBox="0 -1000 1000 1000">
	<path fill="#000000" d="M933 -187C936 -255 898 -336 802 -422L920 -783C882 -780 824 -778 754 -778C682 -778 625 -779 586 -783C588 -763 589 -720 589 -682V-146C589 -61 588 0 585 92H667V-709H809L729 -412C823 -312 858 -240 848 -191C839 -137 804 -129 694 -153C717 -119 727 -93 732 -60C870 -54 927 -86 933 -187ZM128 -144C98 -141 69 -138 42 -136C57 -104 66 -72 70 -33C169 -68 331 -104 544 -137C542 -164 542 -192 545 -221C508 -210 470 -200 430 -191V-468C480 -468 512 -466 537 -463V-541C506 -538 466 -537 397 -537H206V-687C272 -690 384 -700 465 -711C498 -715 506 -714 526 -710C550 -705 553 -712 539 -726C528 -737 500 -775 481 -806C387 -775 243 -752 123 -744C127 -717 128 -675 128 -597ZM206 -468H354V-176C305 -167 255 -159 206 -153Z"/>
</svg>