<svg xmlns="http://www.w3.org/2000/svg" viewBox="0 -1000 1000 1000">
	<path fill="#000000" d="M147 -167H396V-90H147ZM247 -576V-695H296V-576ZM296 -518V-375C296 -315 306 -302 396 -311V-224H147V-518H189C188 -374 183 -348 157 -311C175 -302 193 -290 207 -277C234 -327 246 -366 247 -518ZM396 -357C361 -356 353 -365 353 -381V-518H396ZM624 -658V-550C570 -551 527 -554 493 -559V-477C538 -483 606 -486 688 -487C664 -457 638 -426 610 -397C580 -400 552 -403 532 -406V-330C535 -330 538 -330 543 -331C516 -307 489 -286 463 -268V-448C463 -479 467 -558 469 -583C445 -579 396 -577 353 -576V-695C416 -695 450 -693 481 -688V-769C439 -762 386 -758 265 -758C157 -758 103 -762 63 -769V-688C96 -692 141 -694 189 -695V-576C146 -576 104 -579 74 -583C77 -558 81 -501 81 -448V-130C81 -64 79 -6 74 43H147V-33H396V13H469C465 -51 463 -104 463 -159V-266C483 -251 498 -238 512 -221C541 -243 587 -286 635 -336H795L694 -268V-195C599 -196 556 -200 509 -206V-124C555 -131 613 -134 694 -135V-33C694 -8 677 10 585 -7C601 27 608 49 611 74C746 67 763 51 763 -1V-135C852 -134 898 -131 943 -124V-206C898 -200 853 -196 763 -195V-254L833 -302C852 -315 871 -322 896 -326V-401C882 -398 853 -395 809 -395H689C717 -426 743 -458 764 -487C844 -486 900 -483 947 -477V-559C909 -554 865 -551 807 -550C894 -681 904 -692 920 -699C933 -705 933 -715 918 -721C894 -731 876 -740 850 -758C821 -692 785 -625 733 -549H692V-657C731 -656 756 -653 780 -648V-727C756 -722 729 -719 692 -718V-778C692 -790 697 -804 706 -813C722 -828 718 -836 704 -835C677 -834 643 -835 618 -838C622 -818 624 -777 624 -718C578 -719 543 -722 517 -728V-648C543 -654 578 -657 624 -658Z"/>
</svg>