<svg xmlns="http://www.w3.org/2000/svg" viewBox="0 -1000 1000 1000">
	<path fill="#000000" d="M580 -498L510 -476C538 -451 550 -433 559 -401L640 -427C624 -455 611 -474 588 -498H752V-474C752 -450 741 -444 680 -453C702 -423 706 -415 706 -380C805 -395 818 -407 818 -460V-498C857 -498 891 -496 921 -492V-559C893 -554 858 -550 818 -550V-573C818 -588 820 -597 826 -603C835 -612 832 -619 814 -617C803 -616 771 -617 746 -620C749 -603 751 -580 752 -550H580C511 -550 464 -554 433 -559V-492C463 -496 511 -498 580 -498ZM180 -529C173 -486 143 -461 81 -445C110 -431 121 -421 139 -391C208 -433 235 -475 246 -529H343C343 -482 341 -438 335 -392H413C408 -440 405 -484 405 -533V-767C405 -777 408 -784 419 -790C434 -798 433 -809 411 -808C381 -806 360 -807 337 -811C341 -796 343 -773 343 -693H215V-737C215 -752 219 -763 228 -769C238 -776 234 -782 220 -780C203 -778 167 -779 145 -784C148 -767 149 -753 149 -736V-696C149 -672 148 -655 145 -634C161 -637 168 -638 196 -638H343V-582H219C158 -582 129 -583 93 -587V-524C120 -527 143 -528 180 -529ZM642 -712H767C744 -688 720 -670 697 -658C685 -676 666 -695 642 -712ZM560 -712H622L598 -691C615 -675 628 -659 641 -639C624 -634 608 -630 593 -627C578 -653 561 -671 535 -687L500 -656C514 -645 525 -633 535 -619C506 -617 477 -617 442 -619C456 -598 461 -587 462 -567C559 -565 696 -593 749 -625C814 -664 853 -706 883 -769C854 -765 820 -763 756 -763H621C637 -777 659 -794 666 -797C682 -803 682 -812 664 -816C642 -821 626 -826 596 -838C561 -785 503 -736 419 -691C436 -679 449 -666 464 -650C492 -664 527 -687 560 -712ZM232 -57H759V-25H232ZM457 -285C458 -297 459 -311 460 -325H542V-285ZM608 -285V-325C756 -325 859 -319 934 -311V-385C852 -378 746 -374 591 -374H357C242 -374 135 -377 61 -384V-317C137 -322 233 -325 389 -325C389 -310 388 -297 387 -285C259 -285 187 -286 155 -288C158 -265 159 -242 159 -213L160 -3C160 33 158 55 155 72H232V25H759V62H837C833 29 832 3 832 -45L831 -213C831 -242 832 -267 833 -288C802 -286 714 -285 608 -285ZM542 -235V-204C542 -138 557 -130 759 -133V-104H232V-235H377C360 -191 324 -179 245 -176C271 -145 277 -135 282 -113C383 -131 429 -158 448 -235ZM759 -188C615 -185 608 -191 608 -219V-235H759Z"/>
</svg>