<svg xmlns="http://www.w3.org/2000/svg" viewBox="0 -1000 1000 1000">
	<path fill="#000000" d="M578 -612H511V-725H578ZM704 -612H637V-725H704ZM840 -612H765V-725H840ZM420 -205C398 -264 389 -284 359 -345L298 -320C326 -264 337 -234 352 -175ZM634 -263C621 -290 609 -309 592 -330L523 -301C542 -275 550 -263 560 -240ZM184 -508C179 -558 173 -595 161 -652L95 -640C108 -592 115 -543 115 -496ZM413 -630C424 -641 422 -647 410 -648C393 -649 374 -653 343 -665C331 -560 326 -541 312 -505C338 -502 359 -497 378 -488C390 -531 397 -562 401 -588C404 -607 409 -626 413 -630ZM638 -442V-389C542 -390 476 -391 425 -394V-324C483 -331 528 -334 594 -334H755C740 -295 728 -264 714 -237H615C550 -237 501 -240 448 -247V-171C493 -177 553 -180 639 -181V-118C533 -119 459 -122 397 -128V-50C459 -56 533 -59 639 -60C639 -21 636 27 632 73H719C714 26 711 -21 711 -60C818 -59 893 -56 955 -50V-128C893 -122 818 -119 711 -118V-181C805 -180 869 -177 916 -171V-247C882 -243 840 -240 785 -238C810 -278 818 -286 826 -290C840 -296 840 -303 828 -307C816 -311 794 -321 767 -333C843 -332 898 -329 941 -324V-399C887 -393 816 -389 709 -389V-442C797 -441 857 -438 902 -432V-508C857 -502 797 -499 709 -498V-557C786 -557 852 -555 913 -552C911 -580 909 -624 909 -669C909 -714 911 -759 913 -788C844 -783 770 -781 679 -781C587 -781 514 -783 445 -788C446 -756 447 -715 447 -670C447 -625 446 -584 445 -552C503 -555 565 -556 638 -557V-498C558 -499 504 -502 460 -508V-432C503 -438 558 -441 638 -442ZM220 -701V-461C153 -461 106 -464 70 -469V-394C102 -398 145 -401 203 -402C141 -255 102 -206 33 -131C63 -114 85 -95 107 -70C162 -154 187 -197 220 -281V-61C220 -17 217 33 212 72H290C287 36 284 -17 284 -61V-401C341 -402 380 -401 412 -399V-469C380 -464 341 -462 284 -461V-714C307 -718 328 -723 347 -727C383 -735 393 -736 400 -736C415 -735 419 -741 405 -755C384 -776 376 -787 361 -809C323 -791 285 -778 235 -768C127 -747 113 -745 65 -744C80 -723 90 -705 100 -680C137 -686 178 -693 220 -701Z"/>
</svg>