<svg xmlns="http://www.w3.org/2000/svg" viewBox="0 -1000 1000 1000">
	<path fill="#000000" d="M700 -168C662 -221 640 -295 630 -369H791C775 -302 750 -234 700 -168ZM695 -55C748 0 825 47 903 74C920 37 937 15 965 -12C882 -24 812 -56 749 -115C809 -192 852 -287 893 -443C828 -439 796 -438 743 -438H621C631 -472 639 -510 645 -550H754C829 -550 897 -544 927 -540V-622C894 -617 826 -613 753 -613H655C658 -638 660 -663 662 -688C665 -732 676 -784 682 -793C690 -803 691 -808 675 -809C648 -810 615 -815 582 -823C586 -761 585 -683 577 -614C535 -615 496 -618 457 -622V-540C489 -545 527 -547 567 -549C538 -381 481 -231 427 -151C454 -140 471 -131 499 -112C531 -182 552 -230 576 -296C592 -230 617 -166 650 -112C576 -40 491 -5 410 18C446 44 462 65 472 88C580 37 626 13 695 -55ZM311 -751C322 -768 330 -776 333 -779C349 -790 346 -796 333 -797C301 -800 269 -809 240 -823C217 -706 128 -565 47 -496C69 -483 91 -468 116 -446C134 -472 151 -495 166 -517V-471C186 -475 209 -477 238 -478V-384C169 -385 120 -389 80 -395V-312C120 -318 169 -322 238 -323V-75C173 -63 109 -55 53 -50C75 -19 88 3 102 32C197 5 327 -26 445 -50C442 -69 444 -99 451 -127C407 -113 358 -100 309 -89V-322C366 -321 408 -318 443 -312V-395C408 -389 366 -386 309 -384V-479C352 -478 383 -476 409 -471V-552C379 -546 342 -544 288 -544C246 -544 214 -545 187 -549C217 -594 244 -638 277 -694C332 -655 364 -625 403 -579L463 -647C402 -691 361 -718 311 -751ZM874 -663C844 -709 817 -744 787 -780L722 -739C761 -698 778 -673 799 -621ZM443 -257L371 -290C368 -253 350 -194 328 -150L389 -126C407 -184 422 -218 443 -257ZM209 -133C198 -180 182 -226 163 -273L95 -249C117 -198 130 -157 138 -112Z"/>
</svg>