<svg xmlns="http://www.w3.org/2000/svg" viewBox="0 -1000 1000 1000">
	<path fill="#000000" d="M218 -129C199 -192 183 -232 157 -273L94 -240C122 -191 131 -166 146 -102ZM458 -255L392 -280C379 -232 367 -196 346 -147L413 -122C435 -176 447 -214 458 -255ZM837 -394H567V-601H837ZM837 -97H567V-329H837ZM567 -30H837V54H919C917 10 916 -28 916 -78V-591C916 -637 917 -650 919 -673C886 -670 842 -668 793 -668H696C728 -762 737 -778 748 -789C765 -807 764 -814 745 -815C719 -817 675 -826 648 -836C644 -778 637 -741 619 -668H615C566 -668 522 -670 489 -673C492 -651 492 -636 492 -591V-75C492 -10 491 15 489 57H567ZM139 -527V-478C164 -483 198 -486 239 -487V-377C167 -378 119 -381 77 -387V-303C118 -309 167 -312 239 -313V-66C190 -57 132 -48 54 -36C74 -8 87 15 102 46C211 13 324 -15 455 -42C455 -73 457 -87 462 -115C407 -100 364 -90 313 -80V-312C370 -312 411 -308 446 -303V-387C411 -382 370 -378 313 -377V-488C357 -487 393 -484 419 -478V-558C386 -551 339 -548 279 -548C232 -548 193 -550 162 -554C207 -607 238 -651 276 -715C334 -675 376 -634 414 -587L472 -645C429 -684 381 -721 311 -765C316 -770 321 -774 326 -776C341 -784 342 -792 324 -797C302 -804 276 -816 245 -834C205 -711 140 -634 33 -527C57 -515 76 -497 91 -473C109 -493 125 -511 139 -527Z"/>
</svg>