<svg xmlns="http://www.w3.org/2000/svg" viewBox="0 -1000 1000 1000">
	<path fill="#000000" d="M204 -166C190 -213 170 -255 148 -292L79 -264C103 -219 118 -177 130 -133ZM430 -272L360 -308C345 -266 330 -230 308 -185L360 -156C388 -202 410 -239 430 -272ZM803 -66H580V-229H803ZM693 -504C651 -544 620 -595 597 -661H796C761 -587 729 -542 693 -504ZM553 -598C574 -544 600 -498 640 -457C583 -412 512 -374 410 -334C439 -316 455 -300 471 -270C482 -276 492 -281 503 -287C504 -270 505 -253 505 -225V-44C505 0 503 22 496 68H580V5H803V60H886C879 17 877 -5 877 -50V-226C877 -265 878 -283 881 -300C853 -297 804 -296 694 -296C605 -296 554 -297 521 -298C588 -336 650 -378 692 -411C749 -368 827 -329 934 -289C944 -331 955 -356 974 -382C881 -399 807 -424 747 -461C801 -517 834 -572 907 -730C883 -727 844 -726 797 -726H621C639 -753 657 -772 665 -776C683 -784 680 -792 661 -797C635 -804 603 -816 581 -828C545 -716 487 -604 431 -534C455 -527 482 -512 498 -498C519 -536 537 -568 553 -598ZM287 -755C297 -766 309 -776 315 -779C335 -791 335 -798 314 -802C296 -806 259 -819 234 -829C172 -698 126 -636 35 -559C51 -544 69 -517 78 -492C94 -508 108 -523 121 -537V-496C146 -502 178 -505 221 -506V-420C163 -421 119 -424 84 -430V-350C118 -356 163 -358 221 -359V-92C156 -81 115 -75 63 -68C76 -32 80 -8 78 22C161 -7 237 -28 456 -73C452 -94 450 -112 450 -138C396 -126 344 -115 293 -105V-359C347 -358 389 -355 421 -349V-430C389 -424 347 -421 293 -420V-506C335 -505 367 -502 393 -496V-575C360 -568 318 -565 257 -565C213 -565 178 -567 150 -570C190 -615 220 -654 251 -705C303 -672 356 -633 398 -594L454 -661C409 -690 346 -725 287 -755Z"/>
</svg>