<svg xmlns="http://www.w3.org/2000/svg" viewBox="0 -1000 1000 1000">
	<path fill="#000000" d="M191 -163C176 -211 158 -254 136 -295L75 -268C101 -225 119 -175 126 -135ZM407 -275L340 -302C328 -258 317 -227 294 -177L351 -152C375 -211 388 -239 407 -275ZM282 -758C293 -771 303 -777 315 -780C331 -784 330 -795 315 -798C294 -802 267 -813 232 -829C192 -721 117 -639 23 -556C49 -544 67 -529 85 -506C99 -522 113 -538 126 -552V-500C149 -504 176 -506 212 -507V-394C148 -395 104 -397 67 -402V-328C103 -333 148 -335 212 -336V-89C158 -79 107 -73 55 -69C71 -36 82 -1 89 27C183 -6 281 -34 425 -73C423 -91 423 -121 427 -148C374 -130 326 -116 281 -104V-336C335 -335 381 -332 413 -328V-402C381 -398 335 -395 281 -394V-508C326 -507 368 -504 392 -500V-569C362 -564 305 -561 250 -561C201 -561 167 -563 139 -567C188 -621 224 -665 251 -710C316 -657 356 -618 390 -576L433 -642C399 -676 347 -716 282 -758ZM632 -455C624 -493 606 -562 595 -598L516 -580C533 -543 547 -492 557 -437ZM906 -625V-705C847 -700 792 -697 680 -697C569 -697 509 -700 449 -705V-625C508 -631 571 -634 683 -634C794 -634 847 -631 906 -625ZM729 -731C715 -761 692 -820 687 -842L608 -817C617 -800 640 -740 645 -703ZM700 -422C582 -422 496 -424 431 -429V-351C484 -355 552 -357 639 -358V-215C558 -216 506 -219 456 -224V-139C506 -145 558 -148 639 -149V-99C639 -34 637 13 632 73H721C716 13 714 -34 714 -99V-149C804 -148 857 -145 910 -139V-224C857 -219 804 -216 714 -215V-358C825 -358 881 -356 942 -351V-429C891 -425 842 -423 761 -422C823 -557 830 -565 839 -568C857 -573 859 -586 838 -590C806 -597 779 -611 757 -626C740 -529 722 -468 700 -422Z"/>
</svg>