<svg xmlns="http://www.w3.org/2000/svg" viewBox="0 -1000 1000 1000">
	<path fill="#000000" d="M450 -246L385 -285C369 -243 347 -194 323 -153L383 -124C410 -168 429 -204 450 -246ZM212 -145C194 -189 175 -243 165 -283L86 -256C111 -204 125 -165 132 -121ZM582 -642V-531C518 -532 473 -534 433 -538V-462C488 -466 530 -468 634 -468C560 -396 492 -345 416 -302C450 -290 468 -276 491 -250C517 -271 541 -292 563 -312H615L590 -247C575 -210 561 -183 540 -151C573 -154 605 -155 637 -155H800L775 -41C768 -9 724 1 631 -19C649 13 659 46 660 81C801 72 835 57 850 -17L875 -141C881 -174 888 -204 894 -224C869 -222 831 -220 791 -220H653L689 -312C780 -312 862 -310 921 -305V-379C864 -374 821 -372 733 -372H628C663 -405 694 -437 722 -468C843 -468 888 -467 947 -462V-538C894 -533 853 -531 778 -531C811 -571 842 -612 872 -654C880 -665 904 -693 910 -697C925 -706 924 -714 907 -720C895 -724 863 -743 836 -762C810 -692 748 -595 694 -531H656V-642C705 -641 734 -639 765 -635V-710C735 -705 706 -702 656 -701V-774C656 -790 658 -797 668 -805C685 -818 681 -823 661 -823C630 -823 607 -825 578 -828C581 -813 582 -784 582 -701C530 -702 503 -704 474 -710V-635C504 -640 529 -642 582 -642ZM312 -760C319 -768 326 -773 330 -774C347 -779 347 -785 334 -789C294 -801 265 -813 239 -828C189 -692 114 -596 34 -545C67 -533 90 -517 105 -497C120 -512 133 -526 146 -539V-486C169 -491 195 -494 231 -495V-403C165 -404 121 -408 83 -414V-331C120 -338 165 -341 231 -342V-72C179 -64 121 -58 56 -51C76 -23 95 11 102 34C156 15 296 -16 463 -41C458 -58 461 -90 468 -120C424 -107 370 -94 305 -83V-341C360 -341 400 -337 433 -331V-414C400 -408 360 -405 305 -403V-496C347 -495 377 -492 402 -486V-566C371 -559 332 -556 274 -556C228 -556 195 -558 167 -562C209 -611 239 -655 270 -708C318 -671 361 -631 403 -581L457 -641C415 -681 374 -715 312 -760Z"/>
</svg>