<svg xmlns="http://www.w3.org/2000/svg" viewBox="0 -1000 1000 1000">
	<path fill="#000000" d="M191 -166C172 -207 151 -245 124 -285L71 -256C95 -224 117 -174 130 -125ZM404 -260L335 -295C327 -251 310 -200 287 -159L344 -140C365 -189 382 -225 404 -260ZM816 -331V-229H694V-331ZM694 -394V-490H816V-394ZM578 -664H727L667 -553C590 -553 532 -554 502 -556C531 -594 557 -631 578 -664ZM489 -538V-482C509 -486 548 -489 622 -490V-394C532 -394 464 -398 422 -404V-321C464 -327 532 -331 622 -331V-229C514 -230 475 -232 450 -235V-157C475 -162 514 -165 622 -166V-50C622 -16 612 -8 509 -13C537 19 549 48 551 82C682 46 694 31 694 -20V-166H816V-112H891C886 -177 884 -238 884 -330C917 -329 945 -326 958 -323V-402C945 -399 916 -396 884 -395C884 -474 885 -523 888 -561C866 -557 820 -554 741 -553L838 -727C809 -724 789 -723 730 -723L613 -724C640 -775 648 -782 656 -786C671 -793 671 -800 652 -804C626 -809 601 -819 573 -834C539 -716 483 -629 394 -529C421 -518 439 -509 455 -494C466 -508 477 -523 489 -538ZM275 -757C287 -772 299 -784 309 -788C325 -795 325 -802 312 -805C294 -810 258 -824 227 -840C194 -740 122 -631 36 -548C57 -535 74 -510 82 -484C97 -502 111 -519 124 -536V-492C144 -495 174 -497 205 -498V-396C153 -397 112 -399 81 -402V-327C113 -330 154 -332 205 -333V-83C136 -74 79 -70 49 -72C61 -42 65 -11 64 20C105 1 144 -8 420 -56C412 -83 411 -100 417 -127C368 -114 320 -104 275 -95V-332C331 -332 375 -330 408 -327V-402C375 -399 331 -397 275 -396V-499C320 -498 349 -496 373 -492V-568C344 -564 306 -561 249 -561C215 -561 175 -562 146 -565C180 -610 210 -655 244 -709C293 -674 331 -641 372 -596L420 -663C376 -695 329 -725 275 -757Z"/>
</svg>