<svg xmlns="http://www.w3.org/2000/svg" viewBox="0 -1000 1000 1000">
	<path fill="#000000" d="M185 -141C179 -194 168 -251 154 -309L81 -295C99 -250 110 -181 114 -123ZM393 -294L329 -313C315 -231 308 -205 291 -163L352 -144C367 -189 380 -235 393 -294ZM242 -719C276 -689 326 -642 359 -603L405 -664C372 -693 319 -735 273 -767C281 -779 290 -787 296 -790C315 -798 315 -807 295 -811C272 -816 253 -824 227 -840C181 -722 121 -650 35 -596C62 -584 85 -569 105 -543C107 -545 109 -547 111 -549V-498C132 -503 166 -505 207 -506V-417C158 -418 117 -421 89 -426V-349C116 -353 159 -356 207 -356V-94C124 -80 84 -77 60 -80C78 -48 81 -28 82 9C120 -9 146 -17 378 -61C373 -85 375 -107 379 -127C340 -119 305 -113 274 -107V-356C326 -355 375 -352 396 -349V-426C375 -422 326 -419 274 -418V-506C321 -505 352 -503 372 -498V-576C341 -569 294 -566 236 -566C209 -566 171 -567 134 -572C169 -610 200 -652 242 -719ZM765 -502V-413H652V-502ZM767 -72C815 -124 851 -206 878 -302C830 -298 775 -295 708 -295C645 -295 592 -297 540 -302V-228C592 -233 643 -235 781 -235C767 -186 740 -140 709 -109C674 -138 647 -169 621 -216L561 -189C588 -143 621 -104 660 -70C609 -40 535 -15 460 -6C491 19 502 46 502 73C597 41 666 5 715 -29C772 8 839 35 915 51C923 21 936 -8 959 -33C893 -37 820 -50 767 -72ZM747 -736C738 -771 728 -806 720 -838L629 -819C638 -792 646 -763 651 -736C504 -736 471 -739 430 -745C450 -201 437 -92 335 36C362 40 390 52 413 67C491 -63 514 -196 508 -502H588V-444C588 -410 587 -389 581 -352C614 -357 636 -359 712 -359C785 -359 807 -357 836 -352C831 -384 829 -412 829 -446V-502C879 -501 908 -499 935 -495V-567C911 -563 881 -561 830 -560C831 -593 835 -612 841 -619C850 -629 847 -632 835 -630C817 -627 794 -629 759 -638C763 -619 764 -598 765 -560H652C654 -590 657 -606 664 -613C673 -622 671 -627 661 -626C637 -623 607 -627 579 -635C584 -616 587 -592 588 -560H506C505 -596 504 -634 502 -675H765C841 -675 894 -672 936 -667V-745C898 -740 857 -737 747 -736Z"/>
</svg>