<svg xmlns="http://www.w3.org/2000/svg" viewBox="0 -1000 1000 1000">
	<path fill="#000000" d="M646 -58H534V-204H646ZM916 74C914 31 912 -28 912 -87V-324C912 -379 913 -426 916 -478C862 -471 803 -469 687 -469C571 -469 507 -472 456 -478C459 -426 461 -373 461 -318V-88C461 -28 459 34 456 80H534V9H833V74ZM833 -58H716V-204H833ZM646 -266H534V-405H646ZM833 -266H716V-405H833ZM200 -156C186 -200 170 -239 147 -283L76 -259C100 -216 114 -175 121 -125ZM428 -259L354 -283C346 -238 335 -197 313 -146L380 -131C401 -179 415 -216 428 -259ZM628 -687V-778C628 -796 632 -809 636 -812C650 -823 648 -830 632 -830C606 -830 574 -831 549 -833C554 -807 556 -744 556 -687C503 -688 478 -689 437 -696V-614C477 -620 502 -622 556 -623V-503H628V-623H735V-502H807V-623C883 -623 908 -621 955 -614V-696C908 -689 883 -687 807 -687V-775C807 -795 810 -806 813 -808C828 -819 825 -828 810 -827C785 -826 752 -827 727 -830C732 -805 735 -749 735 -687ZM289 -764C297 -772 304 -776 312 -780C331 -789 328 -796 312 -800C287 -806 242 -822 217 -835C163 -700 120 -637 31 -558C65 -542 80 -532 101 -513C114 -527 127 -541 139 -555V-493C160 -498 187 -501 221 -502V-403C159 -404 106 -407 71 -413V-327C105 -333 159 -336 221 -337V-66C158 -56 95 -48 42 -44C67 -9 74 4 81 40C111 26 131 21 414 -27C414 -48 418 -78 427 -104C389 -96 342 -87 293 -78V-336C345 -335 393 -332 422 -327V-413C393 -408 345 -405 293 -404V-503C339 -502 374 -499 401 -493V-574C370 -568 328 -564 270 -564C220 -564 182 -567 153 -571C186 -613 218 -658 253 -713C316 -663 341 -641 381 -601L429 -667C390 -698 349 -727 289 -764Z"/>
</svg>