<svg xmlns="http://www.w3.org/2000/svg" viewBox="0 -1000 1000 1000">
	<path fill="#000000" d="M170 -129C164 -181 153 -240 136 -298L66 -284C84 -239 97 -171 102 -111ZM379 -283L317 -302C300 -221 292 -193 275 -152L334 -132C352 -177 366 -223 379 -283ZM228 -704C264 -675 310 -626 344 -586L396 -648C363 -676 306 -717 257 -748C267 -764 275 -773 283 -776C308 -785 308 -795 281 -800C259 -805 232 -816 206 -832C161 -715 117 -654 29 -580C58 -560 63 -553 80 -525C86 -531 92 -537 98 -542V-482C118 -487 152 -489 193 -489V-398C145 -399 101 -402 74 -406V-330C100 -334 146 -336 193 -336V-80C111 -62 65 -56 40 -57C61 -26 67 -5 71 31C109 11 154 0 395 -61C391 -75 387 -108 391 -129C343 -117 300 -106 263 -97V-336C312 -335 345 -334 370 -330V-406C345 -402 311 -399 263 -398V-489C313 -488 342 -487 365 -482V-560C331 -553 291 -551 230 -551C198 -551 154 -553 113 -558C150 -596 185 -639 228 -704ZM618 -583C606 -588 582 -606 560 -626C519 -552 466 -498 414 -464C438 -454 454 -437 463 -418C499 -449 550 -501 576 -530C591 -549 602 -557 615 -562C634 -569 637 -576 618 -583ZM896 -481C854 -526 804 -576 748 -626L697 -584C749 -535 798 -483 842 -428ZM777 -74H552V-206H777ZM692 -452C701 -461 710 -466 715 -467C733 -469 734 -480 716 -485C705 -488 672 -507 650 -524C575 -398 514 -336 379 -270C400 -257 423 -229 435 -206C451 -218 468 -230 483 -241V-43C483 -5 481 27 478 64H552V-10H777V51H853C849 13 848 -18 848 -56V-243C869 -232 892 -222 917 -213C924 -244 933 -266 956 -297C841 -316 772 -356 692 -452ZM799 -272H521C577 -319 623 -367 660 -414C696 -358 741 -311 799 -272ZM707 -726C701 -766 692 -805 681 -840L603 -826C614 -796 624 -761 631 -726C506 -726 446 -729 406 -733V-550H474V-662H851V-572H923V-733C885 -730 826 -727 707 -726Z"/>
</svg>