<svg xmlns="http://www.w3.org/2000/svg" viewBox="0 -1000 1000 1000">
	<path fill="#000000" d="M815 -177H548V-253H815ZM815 -314H548V-389H815ZM815 -450H548V-518H815ZM938 24C879 -19 828 -52 759 -90L710 -35C776 3 814 30 882 86ZM633 -47C606 -58 587 -72 564 -94C525 -47 482 -14 382 23C413 39 429 55 444 83C482 61 514 41 548 17C598 -16 619 -29 632 -30C646 -31 648 -41 633 -47ZM213 -165C195 -212 172 -257 146 -300L84 -266C111 -226 134 -177 144 -131ZM441 -270L375 -309C361 -262 345 -228 315 -175L372 -146C401 -190 420 -223 441 -270ZM906 -734C921 -740 922 -747 905 -753C877 -762 856 -773 830 -789C814 -730 789 -688 754 -641C778 -634 802 -621 817 -608C879 -711 889 -727 906 -734ZM598 -651C572 -711 553 -747 526 -794L457 -759C492 -710 508 -673 523 -623ZM641 -581C562 -582 503 -584 471 -588C474 -568 477 -522 477 -485V-207C477 -169 474 -125 471 -104C513 -110 547 -111 677 -111C807 -111 849 -110 892 -104C890 -125 888 -169 888 -207V-485C888 -523 890 -567 892 -588C858 -584 797 -581 715 -581V-774C715 -796 716 -802 730 -814C739 -822 739 -828 726 -827C693 -825 655 -827 629 -832C637 -804 641 -766 641 -723ZM298 -760C310 -776 319 -783 327 -786C341 -791 344 -801 331 -804C297 -812 273 -820 242 -837C203 -724 151 -647 42 -556C75 -537 88 -526 103 -503C115 -516 126 -528 137 -540V-493C163 -498 190 -501 229 -502V-398C160 -398 114 -401 74 -407V-327C113 -333 160 -336 229 -336V-84C166 -74 104 -66 39 -60C64 -29 75 -11 86 23C196 -7 298 -30 426 -50C422 -80 426 -103 435 -131C388 -117 344 -106 300 -97V-336C358 -335 400 -333 435 -327V-407C400 -402 358 -399 300 -398V-502C346 -501 379 -499 407 -493V-574C374 -567 335 -564 273 -564C226 -564 192 -566 163 -570C201 -614 234 -658 266 -709C327 -671 372 -636 416 -587L473 -648C420 -689 368 -724 298 -760Z"/>
</svg>