<svg xmlns="http://www.w3.org/2000/svg" viewBox="0 -1000 1000 1000">
	<path fill="#000000" d="M599 -389H465V-447H599ZM663 -335C661 -357 660 -387 660 -420C660 -452 661 -482 663 -503C630 -501 595 -500 532 -500C469 -500 432 -501 399 -503C402 -482 403 -452 403 -420C403 -388 402 -357 399 -335C431 -336 469 -337 532 -337C595 -337 631 -336 663 -335ZM175 -151C160 -197 141 -247 122 -291L59 -263C79 -225 97 -173 104 -128ZM378 -270L311 -295C303 -249 291 -212 269 -164L329 -142C350 -191 365 -230 378 -270ZM924 -655C908 -695 888 -736 865 -776L797 -748C823 -712 845 -665 856 -621ZM565 -257C612 -256 647 -253 674 -248V-316C641 -311 594 -308 530 -308C466 -308 420 -311 386 -316V-248C414 -253 452 -256 501 -257V-194C459 -195 428 -198 404 -202V-134C427 -139 459 -143 501 -143V-73C432 -62 403 -59 370 -58C387 -30 393 -14 397 11C449 -4 507 -18 669 -50C668 -65 671 -92 680 -114C643 -99 619 -92 565 -83V-142C603 -142 632 -139 654 -134V-202C632 -198 603 -195 565 -194ZM787 -227C778 -275 773 -359 769 -543C867 -542 895 -541 946 -536V-607C895 -603 858 -601 768 -600C766 -749 771 -778 784 -793C802 -814 799 -819 780 -816C756 -812 721 -815 690 -822C695 -787 698 -744 702 -600H572V-672C614 -672 642 -672 669 -670V-735C642 -732 614 -730 572 -729V-776C572 -785 576 -798 585 -804C598 -813 595 -820 580 -820C553 -820 527 -822 501 -825C505 -804 507 -778 507 -729C454 -729 422 -731 388 -735V-670C420 -672 453 -673 507 -673V-600C457 -601 405 -603 363 -607V-536C414 -541 481 -543 539 -543H703C709 -315 715 -233 744 -148C680 -46 644 -19 557 25C596 38 615 47 635 64C678 38 732 -16 773 -73C848 96 923 100 967 -79C938 -86 916 -103 897 -131C884 -12 871 -14 816 -142C861 -227 889 -296 911 -383C921 -422 929 -444 937 -450C948 -458 948 -464 931 -467C907 -471 879 -482 854 -495C852 -419 824 -311 787 -227ZM264 -755C273 -765 283 -772 294 -777C310 -784 310 -792 295 -794C258 -799 233 -807 206 -824C180 -715 123 -613 41 -565C70 -547 86 -527 98 -503C106 -512 113 -521 121 -530V-490C141 -494 163 -496 191 -497V-402C138 -403 101 -405 69 -409V-334C100 -338 138 -340 191 -341V-83C117 -71 84 -69 42 -71C65 -44 79 -17 83 13C118 -4 146 -11 356 -46C353 -65 355 -90 364 -117C339 -109 316 -104 258 -94V-340C303 -340 337 -338 364 -334V-409C336 -405 303 -403 258 -402V-497C294 -496 320 -495 343 -490V-564C315 -559 282 -557 232 -557C195 -557 168 -558 144 -561C179 -607 210 -654 234 -704C270 -673 307 -636 339 -596L397 -643C361 -678 313 -719 264 -755Z"/>
</svg>