<svg xmlns="http://www.w3.org/2000/svg" viewBox="0 -1000 1000 1000">
	<path fill="#000000" d="M759 -407H585V-471H759ZM831 -344C830 -363 829 -401 829 -438C829 -477 830 -513 831 -534C817 -531 782 -530 676 -530C564 -530 536 -532 519 -534C520 -514 521 -477 521 -438C521 -398 520 -364 519 -343C537 -347 564 -349 676 -349C783 -349 812 -348 831 -344ZM195 -161C181 -206 165 -249 146 -291L76 -262C98 -223 111 -185 122 -139ZM432 -265L358 -295C346 -250 331 -212 304 -160L370 -136C393 -189 411 -228 432 -265ZM891 -765C866 -774 840 -787 813 -803C802 -763 789 -726 764 -687L831 -656C872 -735 880 -745 892 -751C901 -755 902 -761 891 -765ZM594 -679C578 -721 563 -760 551 -795L470 -771C492 -738 503 -706 514 -660ZM834 18V67H908C907 24 905 -14 905 -64V-191C905 -262 906 -292 908 -313C883 -306 841 -305 678 -305C515 -305 473 -306 447 -313C450 -293 451 -259 451 -191V-64C451 -16 450 21 447 65H519V18ZM642 -115V-42H519V-115ZM519 -175V-244H642V-175ZM709 -175V-244H834V-175ZM834 -115V-42H709V-115ZM281 -763C289 -772 298 -777 308 -782C324 -789 321 -799 307 -802C279 -808 256 -817 227 -833C185 -702 132 -623 45 -545C75 -529 91 -515 107 -495C119 -509 130 -523 141 -537V-483C163 -488 184 -491 216 -492V-403C168 -404 118 -407 90 -412V-331C117 -336 168 -338 216 -339V-84C157 -74 99 -66 56 -62C76 -35 84 -17 93 13C189 -14 297 -40 413 -58C413 -77 415 -103 421 -129C386 -118 338 -107 288 -97V-339C333 -338 385 -335 409 -331V-412C385 -408 333 -405 288 -404V-493C329 -492 359 -489 383 -483V-563C353 -556 319 -553 262 -553C215 -553 185 -555 158 -560C195 -609 227 -657 252 -710C307 -672 342 -639 380 -595L421 -646V-484H492V-585H863V-486H940V-654C898 -650 852 -648 718 -648V-779C718 -795 721 -802 730 -808C740 -814 739 -823 727 -821C705 -818 668 -819 634 -823C638 -807 639 -797 639 -776V-648C517 -648 468 -650 427 -653L433 -661C381 -699 334 -727 281 -763Z"/>
</svg>