<svg xmlns="http://www.w3.org/2000/svg" viewBox="0 -1000 1000 1000">
	<path fill="#000000" d="M973 -55C938 -62 916 -75 891 -114C883 -37 870 -26 813 -26C757 -26 748 -38 748 -84V-750C748 -775 753 -797 761 -801C782 -811 778 -820 756 -820C732 -820 693 -822 663 -825C669 -797 671 -775 671 -704V-38C671 23 699 48 811 48C914 48 932 37 973 -55ZM409 -106C455 -157 470 -184 491 -236C449 -235 414 -235 354 -235C295 -235 264 -236 220 -237V-181C248 -181 262 -181 295 -181H393C385 -164 370 -145 356 -130C327 -142 295 -153 267 -162L232 -121C261 -111 287 -102 311 -92C277 -69 232 -48 197 -41C226 -25 232 -18 246 8C300 -18 336 -38 368 -65C396 -49 421 -33 445 -14L496 -63C480 -75 465 -82 409 -106ZM338 -608H216L258 -633C240 -663 222 -684 202 -700L137 -672C157 -654 172 -633 184 -608C143 -608 109 -611 75 -615V-546C115 -550 164 -550 235 -550H463L372 -473C330 -497 283 -521 246 -538L200 -493C234 -479 257 -469 282 -456C165 -456 132 -458 107 -461C110 -440 111 -416 111 -337V-121C111 -46 106 20 98 56H184V-400H318C305 -383 291 -368 279 -356C251 -328 245 -323 211 -320C219 -302 224 -274 224 -254C246 -260 287 -265 306 -267L448 -280C453 -272 459 -262 465 -251L515 -287C489 -321 456 -354 422 -380L382 -349C397 -338 411 -326 417 -319L306 -312C336 -340 366 -369 397 -400H527V-45C527 -11 520 -6 441 -10C472 19 476 33 475 72C581 49 598 31 598 -24V-337C598 -414 597 -438 600 -461C581 -457 545 -456 438 -456L627 -613C594 -609 560 -608 515 -608C556 -659 569 -668 589 -675C611 -683 611 -690 587 -697C575 -700 543 -716 518 -732C494 -684 471 -648 442 -608H363L414 -629C398 -666 379 -694 357 -717L292 -689C310 -671 325 -644 338 -608ZM71 -768C87 -747 95 -726 97 -698C178 -704 308 -715 399 -725C537 -740 591 -744 620 -739C641 -736 643 -740 628 -757C620 -766 589 -808 580 -827C505 -806 446 -794 331 -781C210 -768 158 -765 71 -768Z"/>
</svg>