<svg xmlns="http://www.w3.org/2000/svg" viewBox="0 -1000 1000 1000">
	<path fill="#000000" d="M457 -548C442 -589 429 -619 416 -646L349 -618C364 -597 375 -568 386 -521ZM343 -776C312 -774 264 -773 209 -773C153 -773 113 -774 81 -776C83 -758 84 -716 84 -679V-162C84 -81 82 -25 77 60H155V-707H254L191 -460C243 -397 271 -331 271 -286C271 -233 251 -223 173 -221C197 -199 206 -179 204 -140C305 -157 336 -181 336 -275C336 -348 299 -431 254 -473ZM716 -160V-212H805C846 -212 883 -210 910 -205V-273C884 -268 847 -266 807 -266H716V-315H809C851 -315 888 -313 915 -308V-376C889 -371 852 -369 811 -369H716V-429H854C880 -429 893 -428 908 -425C906 -437 905 -457 905 -478V-571C905 -595 905 -614 907 -627C887 -623 871 -622 849 -622H714V-692H829C870 -692 907 -690 935 -685V-757C908 -752 871 -750 831 -750H714V-775C714 -793 716 -799 721 -805C733 -819 732 -828 717 -827C700 -826 664 -828 645 -832C647 -814 650 -757 650 -729V-617C650 -599 647 -573 644 -554C660 -558 678 -559 696 -559H843V-488H704C677 -488 665 -489 651 -493C653 -474 654 -458 654 -432V-27C654 29 681 49 731 52C778 55 826 55 870 53C906 51 917 42 960 -41C929 -42 902 -53 881 -83C874 -30 868 -19 837 -14C808 -10 783 -10 752 -13C724 -15 716 -29 716 -65V-106H803C844 -106 881 -104 908 -99V-167C882 -162 845 -160 805 -160ZM538 -121V-46C538 -18 519 -8 458 -14C490 8 498 31 493 60C578 51 601 28 601 -35V-328C601 -364 602 -396 604 -413C571 -410 525 -409 476 -409C429 -409 385 -410 350 -413C351 -396 352 -364 352 -328V-88C352 -44 350 5 345 62H416V-121ZM476 -512H404C370 -512 329 -515 306 -520V-448C348 -454 397 -457 472 -457C550 -457 599 -454 638 -448V-522C611 -516 579 -513 537 -512C565 -570 581 -600 590 -606C602 -615 602 -622 587 -624C554 -629 532 -640 514 -657C509 -621 496 -572 476 -512ZM443 -722C388 -722 367 -723 337 -728V-658C373 -664 407 -667 473 -667C539 -667 583 -664 617 -658V-728C592 -724 553 -722 508 -722C508 -756 503 -793 496 -822L414 -798C428 -779 438 -755 443 -722ZM416 -293V-354H538V-293ZM538 -239V-177H416V-239Z"/>
</svg>