<svg xmlns="http://www.w3.org/2000/svg" viewBox="0 -1000 1000 1000">
	<path fill="#000000" d="M207 -171C226 -181 227 -190 204 -196C182 -202 161 -212 134 -228C118 -160 86 -89 40 -34C68 -26 85 -19 115 -2C138 -42 147 -60 173 -119C184 -145 197 -165 207 -171ZM502 -69C464 -136 441 -174 406 -226L339 -188C370 -141 399 -89 425 -27ZM833 -675C811 -724 794 -756 773 -792L693 -764C719 -726 738 -690 753 -647ZM361 -467C386 -431 403 -402 419 -369L483 -410C456 -448 419 -497 393 -529C405 -553 422 -574 431 -580C445 -589 444 -597 427 -601C403 -606 381 -613 356 -625C332 -529 288 -448 240 -400C264 -392 282 -385 302 -372C326 -407 344 -436 361 -467ZM607 -565H724V-456H607ZM607 -207H724V-79H607ZM607 -390H724V-275H607ZM536 -523V-152C536 -88 532 -6 526 81H607V-7H758C865 -6 913 -3 950 0V-85C909 -82 854 -79 796 -79V-207C853 -207 881 -206 922 -203V-283C885 -278 845 -276 796 -275V-390C844 -390 880 -388 921 -385V-465C882 -460 844 -457 796 -456V-565C857 -565 893 -564 940 -561V-644C896 -639 862 -637 749 -636H607V-660C653 -755 662 -769 676 -775C689 -781 689 -789 674 -793C636 -803 614 -811 586 -824C568 -722 511 -594 436 -497C456 -485 473 -473 494 -456C512 -483 526 -506 536 -523ZM316 -306C318 -327 322 -339 329 -346C341 -358 335 -366 320 -365C290 -363 263 -364 234 -367C237 -357 240 -332 242 -306C162 -306 100 -310 50 -315V-238C101 -243 159 -246 244 -246V-36C244 -12 234 -5 165 -13C188 15 202 45 206 77C301 58 315 45 315 -5V-246C398 -245 456 -243 505 -238V-315C456 -310 399 -307 316 -306ZM182 -488C193 -464 205 -436 213 -411L274 -453C255 -488 235 -521 212 -550C226 -577 236 -588 243 -592C256 -600 256 -606 238 -609C212 -614 190 -621 164 -632C140 -536 96 -448 48 -397C72 -389 87 -382 112 -366C136 -404 160 -445 182 -488ZM256 -703C173 -703 111 -706 59 -711V-629C112 -635 168 -638 266 -638C364 -638 437 -635 490 -629V-711C440 -706 372 -703 281 -703L342 -725C325 -767 310 -795 290 -823L211 -791C232 -761 243 -740 256 -703Z"/>
</svg>