<svg xmlns="http://www.w3.org/2000/svg" viewBox="0 -1000 1000 1000">
	<path fill="#000000" d="M813 -435C783 -432 621 -431 593 -435V-374C620 -377 784 -378 813 -374ZM782 -550C762 -547 620 -547 595 -550V-492C623 -495 758 -495 782 -492ZM414 -431C384 -428 222 -428 194 -431V-375C222 -378 389 -378 414 -375ZM414 -546C393 -543 262 -543 237 -546V-489C266 -492 391 -492 414 -489ZM541 -713C678 -713 774 -710 851 -705V-788C767 -782 660 -779 503 -779C346 -779 241 -782 156 -788V-705C232 -710 327 -712 462 -713V-647C237 -648 157 -652 86 -658V-453H164V-586H462V-496C462 -445 461 -409 458 -360H544C542 -407 541 -443 541 -496V-586H833V-463H919V-658C847 -651 764 -647 541 -647ZM738 -163C429 -163 305 -164 185 -170V-93C302 -98 429 -100 738 -100V-27C398 -25 291 -27 162 -34V42C289 37 399 35 738 35V78H830C826 55 824 33 824 12V-244C824 -263 826 -282 830 -303C772 -296 673 -293 505 -293C337 -293 236 -295 172 -301V-221C233 -226 338 -229 738 -229Z"/>
</svg>