<svg xmlns="http://www.w3.org/2000/svg" viewBox="0 -1000 1000 1000">
	<path fill="#000000" d="M442 -135H226V-199H442ZM518 -199H738V-135H518ZM518 -80C683 -80 753 -79 815 -75C813 -91 812 -119 812 -145V-308C812 -334 813 -366 815 -378C748 -374 679 -373 483 -373C287 -373 218 -374 150 -378C152 -363 153 -334 153 -308V-145C153 -119 152 -90 150 -75C214 -79 273 -80 442 -80V-29C442 30 456 45 581 52C632 55 726 56 782 53C922 46 938 39 965 -69C930 -70 895 -82 872 -107C867 -26 854 -13 780 -9C721 -6 627 -6 583 -9C527 -13 518 -18 518 -46ZM442 -253H226V-315H442ZM518 -315H738V-253H518ZM802 -416V-478C771 -476 733 -475 688 -475C649 -475 604 -476 574 -478V-416C603 -419 648 -420 688 -420C732 -420 772 -419 802 -416ZM418 -416V-478C387 -476 349 -475 304 -475C265 -475 220 -476 190 -478V-416C219 -419 264 -420 304 -420C348 -420 388 -419 418 -416ZM418 -513V-575C388 -573 352 -572 310 -572C272 -572 228 -573 201 -575V-513C227 -516 272 -517 310 -517C352 -517 388 -516 418 -513ZM790 -513V-575C760 -573 724 -572 682 -572C644 -572 600 -573 573 -575V-513C599 -516 644 -517 682 -517C724 -517 760 -516 790 -513ZM458 -722V-676C246 -676 147 -678 79 -682V-504H157V-618H458V-534C458 -483 457 -448 454 -399H533C531 -446 530 -481 530 -534V-618H838V-505H915V-682C846 -678 748 -676 530 -676V-722C678 -722 793 -719 874 -714V-790C787 -784 662 -782 499 -782C336 -782 212 -784 124 -790V-714C204 -719 315 -721 458 -722Z"/>
</svg>