<svg xmlns="http://www.w3.org/2000/svg" viewBox="0 -1000 1000 1000">
	<path fill="#000000" d="M400 -391V-453C356 -450 251 -448 210 -453V-391C253 -395 362 -395 400 -391ZM788 -397V-456C742 -454 636 -453 595 -456V-397C638 -400 750 -400 788 -397ZM403 -497V-556C370 -552 258 -552 218 -556V-497C260 -501 366 -500 403 -497ZM779 -497V-558C750 -554 635 -554 595 -558V-497C639 -501 745 -501 779 -497ZM446 -298L429 -229C326 -229 222 -234 159 -240C163 -219 165 -198 165 -169V-24C165 5 163 29 159 59H242V-173H363C363 -82 362 -8 359 37H432C430 -10 429 -82 429 -173H547C547 -83 546 -13 543 32H617C615 -14 614 -84 614 -173H763V-47C763 -16 731 -5 659 -21C696 23 701 54 696 79C830 53 843 41 843 -66V-165C843 -191 845 -213 851 -239C769 -234 630 -230 500 -229L525 -298C699 -298 868 -295 924 -291V-366C868 -359 689 -355 509 -355C304 -355 144 -359 90 -366V-290C138 -295 269 -298 446 -298ZM538 -734C674 -734 772 -731 847 -726V-802C768 -796 663 -794 515 -794C367 -794 264 -796 184 -802V-726C253 -730 342 -733 462 -734V-665C253 -666 154 -669 87 -676V-487H162V-609H462V-529C462 -478 461 -442 458 -393H541C539 -440 538 -476 538 -529V-609H845V-503H923V-676C855 -670 756 -665 538 -665Z"/>
</svg>