<svg xmlns="http://www.w3.org/2000/svg" viewBox="0 -1000 1000 1000">
	<path fill="#000000" d="M512 -259V-321H782V-259ZM612 -691V-619C540 -621 457 -625 421 -630V-554C456 -560 540 -564 612 -565V-500C532 -502 428 -507 394 -511V-430C448 -437 534 -440 676 -440C827 -440 886 -437 941 -430V-511C888 -504 815 -500 685 -500V-566C766 -565 825 -560 871 -554V-630C825 -625 766 -620 685 -619V-691C773 -690 859 -686 905 -680V-761C859 -754 773 -750 685 -749V-786C685 -802 688 -816 695 -822C706 -832 704 -839 691 -838C670 -836 633 -839 609 -846C611 -828 612 -798 612 -749C532 -749 435 -755 398 -761V-680C434 -685 532 -691 612 -691ZM782 -84V-52C782 -26 767 -8 679 -12C707 34 714 53 715 75C856 53 860 46 860 -33V-295C860 -330 861 -368 862 -384C827 -381 769 -379 659 -379C550 -379 470 -381 432 -384C434 -368 435 -330 435 -295V-70C435 -29 434 8 429 76H512V-84ZM512 -140V-203H782V-140ZM226 -143C161 -130 95 -121 36 -118C49 -84 55 -61 61 -23C169 -60 247 -80 381 -109C375 -138 376 -161 382 -186C353 -175 322 -166 289 -157C324 -392 350 -464 366 -473C376 -479 376 -491 364 -492C332 -494 300 -501 267 -511C271 -434 258 -316 226 -143ZM184 -195C180 -316 173 -385 160 -478L86 -472C98 -414 115 -270 106 -191ZM367 -553V-633C329 -627 282 -626 212 -626C143 -626 95 -628 57 -633V-552C95 -559 143 -561 212 -561C282 -561 329 -561 367 -553ZM280 -675C269 -711 252 -776 244 -809L157 -789C176 -743 188 -684 194 -649Z"/>
</svg>