<svg xmlns="http://www.w3.org/2000/svg" viewBox="0 -1000 1000 1000">
	<path fill="#000000" d="M238 -290H154V-392H238ZM308 -392H395V-290H308ZM601 -354C581 -298 558 -250 531 -201C583 -170 629 -140 672 -110C608 -52 533 -21 446 -13C474 11 490 36 500 63C606 29 673 -8 731 -67C784 -26 833 17 885 69C899 39 916 17 941 0C886 -44 830 -85 776 -122C811 -176 838 -250 858 -353C894 -353 926 -351 954 -347V-424C910 -418 864 -416 815 -416H695C725 -491 734 -510 743 -517C765 -533 763 -540 738 -543C720 -545 686 -553 654 -563C647 -508 639 -470 622 -416C568 -416 534 -418 490 -425V-348C525 -352 557 -354 601 -354ZM787 -354C767 -260 746 -202 718 -161C684 -183 651 -203 618 -221C640 -274 658 -317 671 -354ZM932 -517V-693C877 -686 819 -684 713 -684C589 -684 537 -687 491 -693V-500H562V-622H857V-517ZM147 -653V-519H238V-444C172 -445 123 -448 86 -452C91 -424 92 -376 92 -343C92 -302 90 -267 86 -235C122 -238 172 -240 238 -241V-159C161 -159 95 -162 51 -166V-95C95 -99 161 -102 238 -103C238 -50 235 18 231 74H315C311 18 308 -50 308 -103C386 -102 453 -99 498 -95V-166C453 -162 386 -159 308 -159V-241C375 -240 425 -237 463 -234C459 -269 458 -297 458 -343C458 -378 460 -424 463 -452C425 -448 375 -445 308 -444V-519H396V-652C423 -652 450 -650 473 -647V-716C450 -713 423 -711 396 -710V-757C396 -768 405 -801 413 -807C428 -817 424 -821 414 -820C382 -818 350 -819 321 -822C325 -807 327 -774 328 -710H215V-757C215 -776 223 -800 230 -805C242 -813 241 -818 234 -817C202 -814 167 -814 138 -818C142 -797 145 -758 146 -710C119 -711 93 -713 68 -716V-647C93 -650 120 -652 147 -653ZM328 -653V-571H215V-653ZM761 -744C748 -776 735 -813 726 -850L641 -833C656 -800 667 -764 673 -724Z"/>
</svg>