<svg xmlns="http://www.w3.org/2000/svg" viewBox="0 -1000 1000 1000">
	<path fill="#000000" d="M835 -187H595V-263H835ZM835 -327H595V-406H835ZM835 -469H595V-552H835ZM489 -396C457 -440 426 -474 380 -516L333 -480C374 -438 407 -398 435 -353ZM250 -695V-605C160 -605 116 -606 72 -609V-539C108 -543 153 -545 211 -545C174 -483 135 -443 35 -367C60 -357 80 -340 90 -313C162 -384 216 -448 250 -515V-453C250 -425 249 -392 245 -352H316C314 -390 314 -425 314 -453V-545C384 -545 433 -543 475 -539V-609C433 -606 384 -605 314 -605V-706C392 -720 425 -720 443 -715C456 -711 466 -719 452 -736C436 -755 430 -765 417 -796C385 -784 358 -778 298 -769C192 -752 134 -746 89 -746C103 -719 110 -701 114 -675C148 -677 189 -683 250 -695ZM963 12C912 -34 846 -81 789 -113L736 -67C793 -31 861 24 904 76ZM684 -69C660 -78 640 -90 614 -113C542 -44 485 -13 409 17C448 34 466 47 483 76C516 55 591 2 628 -27C660 -51 670 -57 681 -58C692 -59 694 -65 684 -69ZM661 -709C658 -675 652 -642 644 -614C575 -615 550 -617 518 -622C521 -604 523 -556 523 -517V-220C523 -181 521 -135 518 -115C559 -121 589 -122 715 -122C841 -122 872 -121 915 -115C912 -135 910 -181 910 -220V-517C910 -556 913 -604 915 -622C873 -616 838 -614 723 -614C728 -651 734 -676 743 -709C835 -709 902 -707 953 -701V-780C897 -774 823 -772 718 -772C613 -772 540 -774 484 -780V-701C529 -706 586 -708 661 -709ZM385 -122V-264C385 -284 387 -292 396 -300C415 -317 416 -327 396 -325C366 -322 339 -325 310 -333C316 -298 318 -273 318 -236V-120C318 -78 309 -59 271 -30C297 -14 314 8 329 35C342 11 368 -22 385 -38L486 -133C469 -154 462 -168 454 -200C430 -168 407 -144 385 -122ZM219 -254C219 -271 225 -285 238 -293C258 -305 257 -317 238 -316C215 -315 189 -320 153 -331C162 -111 140 -76 33 0C59 16 79 33 97 61C190 -41 219 -101 219 -254Z"/>
</svg>