<svg xmlns="http://www.w3.org/2000/svg" viewBox="0 -1000 1000 1000">
	<path fill="#000000" d="M829 -208H604V-283H829ZM829 -341H604V-415H829ZM829 -470H604V-544H829ZM961 1C930 -34 882 -70 796 -121L742 -80C822 -28 867 14 905 56ZM689 -69C698 -69 698 -74 689 -79C673 -87 645 -108 625 -126C584 -82 501 -27 422 7C446 22 467 44 480 65C522 42 591 -7 636 -42C657 -57 679 -69 689 -69ZM503 -148C469 -189 437 -223 398 -261L338 -222C389 -172 415 -136 437 -97ZM672 -720C670 -685 665 -644 658 -612C588 -613 559 -615 529 -620C532 -602 534 -554 534 -515V-245C534 -206 532 -161 529 -142C567 -146 602 -147 718 -147C834 -147 867 -146 906 -142C904 -159 901 -206 901 -245V-515C901 -554 903 -603 906 -620C868 -614 836 -612 727 -612C738 -646 748 -682 756 -720C841 -719 897 -717 947 -712V-790C891 -784 826 -782 721 -782C616 -782 552 -784 496 -790V-712C542 -717 595 -719 672 -720ZM326 -574H408V-480H326ZM258 -480H174V-574H258ZM258 -631H174V-731H258ZM326 -731H408V-631H326ZM258 -362C135 -363 99 -366 67 -371V-294C94 -298 129 -301 229 -302C158 -188 108 -140 33 -92C60 -75 80 -57 100 -31C149 -82 208 -156 258 -239V-118C258 -65 254 -6 246 58H334C328 -7 326 -65 326 -118V-303C426 -303 480 -300 513 -294V-371C480 -365 427 -362 326 -362V-426C386 -426 448 -425 477 -423C476 -445 475 -463 475 -503V-713C475 -752 476 -773 478 -795C442 -790 398 -788 290 -788C181 -788 139 -790 102 -795C104 -772 105 -753 105 -713V-504C105 -466 104 -446 102 -423C129 -425 192 -426 258 -426Z"/>
</svg>