<svg xmlns="http://www.w3.org/2000/svg" viewBox="0 -1000 1000 1000">
	<path fill="#000000" d="M836 -199H655V-286H836ZM836 -342H655V-423H836ZM836 -480H655V-573H836ZM343 -277H271V-315H343ZM532 -222C531 -241 530 -267 530 -292V-379C530 -403 531 -427 532 -450C493 -446 448 -443 366 -443C284 -443 251 -445 210 -450C212 -428 213 -402 213 -378V-293C213 -268 211 -240 210 -222C248 -226 283 -228 366 -228C448 -228 494 -226 532 -222ZM471 -277H397V-315H471ZM343 -352H271V-396H343ZM471 -352H397V-396H471ZM963 12C928 -29 875 -83 827 -124L765 -87C814 -48 849 -7 893 60ZM697 -725C694 -688 689 -657 682 -630C631 -631 609 -633 585 -637C587 -616 590 -571 590 -532V-237C590 -198 587 -152 585 -132C618 -138 651 -139 752 -139C853 -139 875 -138 909 -132C907 -152 905 -198 905 -237V-532C905 -571 907 -616 909 -637C876 -631 849 -629 754 -629C761 -661 770 -693 780 -725C851 -724 897 -721 939 -717V-792C891 -786 838 -783 748 -783C658 -783 605 -786 557 -792V-717C594 -722 636 -724 697 -725ZM391 -152V-43L353 -39V-152ZM501 -55L445 -49V-152H501ZM196 -24C175 -23 158 -23 143 -24C155 2 159 15 164 40C259 28 358 17 557 -3C542 8 526 19 508 30C541 40 555 47 578 72C617 39 650 7 684 -30C713 -61 723 -71 731 -74C745 -79 744 -86 730 -91C714 -97 691 -111 671 -127C647 -89 620 -55 584 -24C584 -37 586 -49 589 -64L557 -61V-128C557 -149 558 -180 561 -203C522 -200 470 -199 372 -199C273 -199 228 -201 192 -203C194 -181 196 -149 196 -128ZM298 -152V-34L251 -29V-152ZM333 -688V-727H447C482 -727 510 -725 537 -719V-788C510 -781 482 -778 447 -778H334C334 -793 339 -805 343 -808C360 -820 357 -831 339 -828C313 -824 284 -827 262 -834C264 -809 265 -780 265 -688C148 -689 99 -691 81 -695C90 -629 94 -552 97 -368C100 -153 92 -95 40 3C73 8 85 13 110 33C166 -113 171 -184 156 -637H268V-586C229 -580 200 -578 172 -578L180 -526C205 -533 232 -539 268 -544C268 -475 274 -468 320 -467C369 -466 439 -466 480 -469C511 -471 525 -478 543 -530C519 -531 508 -536 486 -557C477 -523 470 -517 451 -515C418 -512 390 -511 358 -513C339 -514 335 -520 334 -555C394 -564 427 -567 463 -567L456 -620C423 -610 391 -603 334 -595V-637H506L484 -585L550 -569L584 -695C561 -691 465 -688 333 -688Z"/>
</svg>