<svg xmlns="http://www.w3.org/2000/svg" viewBox="0 -1000 1000 1000">
	<path fill="#000000" d="M663 -418H708V-280H663ZM600 -479C560 -480 513 -482 490 -485C492 -447 493 -399 493 -348C493 -298 492 -249 490 -211C510 -213 557 -216 600 -217V-89C550 -82 494 -77 448 -75C464 -45 472 -22 477 10C497 -1 540 -17 566 -21L722 -48C726 -28 729 -10 731 6L801 -20C782 -87 762 -141 740 -194L684 -174C691 -162 700 -136 708 -105C696 -103 681 -100 663 -97V-218C704 -217 749 -214 771 -211C769 -249 768 -298 768 -348C768 -399 769 -447 771 -485C749 -482 703 -479 663 -478V-580C682 -583 699 -585 708 -587C752 -595 767 -595 776 -593C790 -590 793 -596 781 -611C767 -630 757 -648 743 -676C695 -655 624 -642 471 -625C488 -603 500 -582 508 -557C531 -559 564 -564 600 -570ZM600 -280H554V-418H600ZM285 -689C258 -745 239 -777 210 -819L140 -785C171 -746 190 -710 206 -654ZM369 -561V-643C330 -637 285 -634 212 -634C139 -634 94 -636 55 -641V-561C94 -567 139 -570 212 -570C285 -570 330 -567 369 -561ZM368 -149C343 -80 302 -27 241 27C279 34 308 48 329 70C421 -44 448 -121 462 -262C463 -281 464 -557 463 -704H801C799 -152 800 -81 824 -8C853 79 890 82 939 9C952 -10 963 -30 972 -48C948 -63 927 -81 911 -108C900 -46 888 -47 876 -75C866 -98 863 -282 871 -555C874 -661 879 -739 885 -773C845 -770 732 -768 632 -768C533 -768 424 -770 384 -773C397 -683 401 -433 394 -296C391 -242 383 -197 370 -156C362 -181 359 -200 360 -218C336 -208 308 -197 281 -187C297 -269 307 -330 316 -397C324 -457 328 -468 337 -472C352 -480 349 -488 336 -489C312 -491 282 -497 249 -507C256 -462 238 -290 218 -165C151 -141 85 -121 38 -111C57 -80 66 -54 74 -18C111 -51 166 -78 368 -149ZM192 -200C187 -280 159 -436 140 -495L67 -483C99 -409 117 -283 114 -182Z"/>
</svg>