<svg xmlns="http://www.w3.org/2000/svg" viewBox="0 -1000 1000 1000">
	<path fill="#000000" d="M803 -556H627V-605H803ZM869 -496C866 -510 864 -546 864 -572V-720C864 -747 866 -765 869 -780C837 -776 805 -774 716 -774C635 -774 596 -776 562 -780C566 -768 568 -747 568 -720V-572C568 -546 566 -511 562 -496C600 -499 627 -500 716 -500C803 -500 834 -499 869 -496ZM803 -663H627V-714H803ZM260 -276H230V-440H260ZM315 -440H346V-276H315ZM958 -67C922 -71 901 -79 878 -99C874 -21 864 -6 828 -4C684 4 564 -41 517 -153C489 -219 489 -312 492 -635C493 -728 494 -748 497 -783C429 -781 373 -780 289 -780C209 -780 155 -781 84 -783C89 -624 92 -459 88 -330C82 -125 78 -96 37 -16C56 4 74 28 88 54C130 -39 146 -115 149 -300C151 -410 152 -564 152 -712H428C423 -253 434 -178 470 -102C534 32 640 70 852 63C918 61 934 41 958 -67ZM260 -576V-493C227 -494 196 -496 179 -498C180 -463 181 -408 181 -357C181 -304 181 -253 179 -215C196 -216 227 -218 260 -219V-81C205 -78 154 -76 144 -78C152 -53 157 -20 157 -3C169 -9 188 -13 229 -18L382 -37C385 -18 387 -2 388 9L456 -6C448 -42 424 -139 409 -194L349 -183C356 -166 365 -128 373 -89C356 -87 336 -85 315 -84V-219C349 -219 382 -218 401 -216C400 -252 398 -304 398 -357C398 -408 401 -463 403 -498C384 -495 351 -493 315 -493V-582C329 -583 343 -585 356 -587C371 -589 386 -588 393 -586C412 -580 423 -593 407 -613C395 -628 385 -644 378 -663C335 -640 249 -622 168 -632C176 -612 184 -586 187 -568C210 -570 234 -572 260 -576ZM591 -409C571 -353 543 -308 503 -278C524 -266 539 -251 550 -233C566 -253 584 -281 600 -311H656C626 -255 600 -231 533 -192C550 -180 561 -164 569 -141C651 -201 677 -226 713 -311H757C712 -203 687 -171 576 -117C595 -100 608 -84 618 -61C743 -146 764 -172 813 -311H837C834 -231 827 -183 820 -161C807 -116 785 -105 717 -117C739 -84 746 -67 748 -29C847 -55 863 -74 885 -180C890 -204 894 -236 898 -320C899 -339 902 -363 906 -375C888 -371 870 -369 835 -369H630C637 -383 643 -397 649 -411H801C843 -411 882 -409 931 -404V-474C882 -470 842 -468 726 -468C610 -468 561 -469 513 -474V-404C535 -406 563 -408 591 -409Z"/>
</svg>