<svg xmlns="http://www.w3.org/2000/svg" viewBox="0 -1000 1000 1000">
	<path fill="#000000" d="M367 -463V-399H197V-463ZM367 -344V-275H197V-344ZM622 -493C613 -523 585 -600 568 -636L494 -613C519 -579 542 -513 548 -469ZM929 -618C944 -628 941 -635 918 -640C896 -645 875 -655 853 -669C840 -604 809 -536 773 -491L833 -449C858 -484 878 -521 897 -568C907 -593 918 -611 929 -618ZM346 -550C332 -578 323 -606 316 -642L239 -624C257 -590 266 -558 268 -531ZM749 -515C744 -549 725 -624 710 -661L636 -645C655 -607 671 -552 675 -501ZM927 -725C912 -740 894 -764 872 -802C810 -781 748 -769 655 -759C564 -749 513 -745 448 -748C469 -722 476 -705 482 -677C557 -682 655 -691 821 -708C878 -714 893 -714 920 -708C936 -705 939 -713 927 -725ZM276 -705C328 -668 379 -615 417 -557L478 -617C420 -676 366 -722 312 -761C324 -773 336 -781 349 -785C365 -789 366 -799 351 -802C313 -810 289 -818 255 -833C242 -789 226 -760 173 -676C128 -605 78 -553 37 -522C61 -506 81 -482 92 -455C104 -469 116 -483 127 -497V-93C127 -52 115 -38 87 -28C113 3 126 27 136 57C152 46 171 35 190 27L382 -50C393 -32 402 -15 410 3L479 -35C444 -92 405 -144 364 -193L292 -160C311 -144 331 -123 348 -99L197 -47V-218H365C400 -218 416 -218 441 -215C438 -239 437 -263 437 -293V-456C437 -491 438 -508 441 -530C417 -526 343 -522 274 -522C224 -522 180 -524 151 -527C203 -594 250 -660 276 -705ZM781 -108C820 -159 845 -217 866 -299C898 -298 927 -295 955 -291V-371C910 -365 861 -362 810 -362H678C700 -404 711 -418 723 -422C743 -430 745 -438 723 -443C695 -450 666 -459 630 -472C626 -439 620 -416 598 -362C537 -363 492 -366 451 -371V-291C489 -296 530 -299 571 -300C544 -240 520 -194 499 -165C558 -144 613 -120 665 -92C612 -51 538 -18 438 7C473 27 491 46 506 75C580 48 667 0 730 -55C780 -23 829 15 877 59C900 30 913 15 943 -8C889 -45 835 -78 781 -108ZM646 -300H788C776 -240 754 -188 717 -143C676 -165 635 -185 595 -203Z"/>
</svg>