<svg xmlns="http://www.w3.org/2000/svg" viewBox="0 -1000 1000 1000">
	<path fill="#000000" d="M353 -287H192V-349H353ZM353 -406H192V-465H353ZM334 -561C328 -588 316 -631 305 -656L228 -633C245 -600 252 -573 252 -540ZM603 -205C621 -216 621 -220 601 -226C576 -233 545 -244 519 -258C507 -174 466 -93 400 -16C433 -8 454 1 480 17C524 -61 556 -128 565 -153C575 -178 587 -196 603 -205ZM962 -45C922 -123 879 -195 832 -259L761 -219C813 -165 855 -76 880 -2ZM718 -794C721 -797 724 -799 725 -800C748 -814 744 -825 731 -826C694 -829 672 -833 634 -844C615 -725 518 -567 432 -487C456 -465 472 -445 481 -425C499 -444 520 -466 537 -487V-458C566 -463 602 -466 650 -467V-363C564 -363 504 -367 454 -371V-292C503 -296 574 -300 650 -300V-39C650 -11 638 -2 555 -9C580 26 588 43 591 86C716 63 727 45 727 -11V-300C820 -300 884 -297 936 -292V-371C884 -366 820 -363 727 -363V-466C771 -465 804 -463 831 -458V-514C861 -485 893 -460 927 -439C941 -488 949 -507 973 -532C878 -552 752 -691 718 -794ZM810 -535C778 -531 738 -529 684 -529C638 -529 601 -530 572 -533C617 -597 653 -666 684 -738C709 -667 754 -594 810 -535ZM304 -771C312 -779 320 -785 325 -787C343 -795 343 -798 328 -805C310 -813 269 -833 241 -849C194 -728 124 -625 26 -537C50 -515 65 -495 79 -467C92 -483 104 -499 116 -513C118 -489 119 -466 119 -435V-118C119 -76 107 -49 71 -30C102 0 114 15 131 51C150 29 179 6 204 -7L342 -81C351 -65 357 -50 361 -35L432 -87C403 -128 369 -173 335 -214L269 -173C283 -159 296 -145 307 -131L192 -78V-226H268C323 -226 389 -225 423 -223C420 -263 419 -301 419 -333V-435C419 -474 419 -503 422 -536C371 -531 319 -529 270 -529C225 -528 181 -530 133 -534C188 -605 228 -662 265 -725C343 -671 399 -619 430 -573L489 -642C443 -680 362 -737 304 -771Z"/>
</svg>