<svg xmlns="http://www.w3.org/2000/svg" viewBox="0 -1000 1000 1000">
	<path fill="#000000" d="M354 -264H191V-333H354ZM782 -386H580V-486H782ZM354 -387H191V-451H354ZM326 -545C314 -573 300 -605 286 -634L216 -607C230 -580 241 -549 247 -521ZM580 -240V-323H771C800 -323 831 -322 860 -320C857 -343 856 -374 856 -408V-463C856 -497 857 -527 860 -551C831 -549 753 -548 685 -548C617 -548 535 -549 506 -551C508 -527 509 -496 509 -463V-120C509 -49 507 -1 501 68H580V-4H816V56H898C892 13 889 -24 889 -69V-169C889 -208 890 -227 893 -244C865 -241 846 -240 787 -240ZM816 -65H580V-177H816ZM690 -832L613 -797C634 -768 649 -739 660 -707L735 -736C718 -776 710 -794 690 -832ZM284 -759C293 -770 301 -778 305 -779C321 -785 321 -793 308 -796C290 -801 252 -814 222 -826C185 -714 105 -592 29 -516C55 -495 65 -483 80 -452C93 -471 106 -488 117 -504C120 -476 121 -451 121 -416V-94C121 -55 115 -46 77 -33C100 -8 114 12 129 51C150 28 167 18 204 3L368 -63C381 -43 393 -22 405 1L475 -43C436 -100 411 -132 362 -187L297 -155C311 -140 322 -126 333 -111L191 -62V-210H268C324 -210 391 -209 425 -207C422 -247 421 -279 421 -311V-416C421 -455 422 -484 424 -517C372 -512 321 -510 271 -510C222 -510 179 -512 126 -516C177 -589 216 -649 248 -704C328 -644 354 -620 387 -579L443 -637V-564H520V-642H869V-563H942V-709C880 -705 824 -704 709 -704C568 -704 514 -705 443 -709V-650C408 -679 350 -718 284 -759Z"/>
</svg>