<svg xmlns="http://www.w3.org/2000/svg" viewBox="0 -1000 1000 1000">
	<path fill="#000000" d="M338 -279H190V-338H338ZM338 -396H190V-466H338ZM799 -455H539V-546H799ZM878 -387C875 -414 875 -450 875 -489V-686C875 -726 876 -761 878 -789C851 -786 780 -785 671 -785C558 -785 496 -786 465 -789C467 -761 468 -726 468 -686V-489C468 -449 467 -414 465 -386C506 -388 546 -388 673 -388C799 -388 837 -389 878 -387ZM799 -613H539V-720H799ZM767 -128C908 -251 932 -266 952 -277C964 -284 966 -291 952 -297C935 -305 897 -331 883 -345C865 -306 824 -261 767 -209V-333C767 -341 769 -346 781 -351C795 -357 794 -368 777 -367C753 -366 727 -367 693 -371C696 -353 697 -328 697 -281V-27C697 34 704 48 806 48C914 48 922 40 966 -53C932 -59 910 -70 881 -96C865 -31 858 -24 825 -24C775 -24 767 -32 767 -55ZM544 -281V-329C544 -337 546 -342 557 -349C567 -355 566 -358 550 -358C523 -358 495 -359 467 -362C470 -343 471 -311 471 -255V-62C471 -29 462 -11 437 2C463 20 484 42 496 65C512 44 527 32 550 21L659 -34C655 -52 652 -77 651 -101C618 -83 579 -67 544 -53V-214H604C635 -214 657 -212 673 -209V-286C656 -283 635 -281 603 -281ZM283 -754C292 -764 301 -772 306 -774C322 -781 321 -793 308 -795C292 -797 251 -813 222 -828C186 -721 106 -600 29 -530C49 -511 67 -488 81 -466C93 -482 105 -497 117 -512C118 -485 119 -459 119 -426V-110C119 -47 113 -29 93 -7C124 11 140 23 156 53C180 29 194 18 217 6L352 -63C361 -48 370 -32 378 -15L445 -64C410 -118 376 -165 346 -204L284 -163C297 -147 308 -131 319 -115L190 -62V-217H264C315 -217 378 -216 410 -214C407 -256 406 -293 406 -327V-426C406 -467 406 -498 409 -533C374 -529 337 -527 302 -526C298 -555 294 -586 291 -614L207 -601C219 -577 225 -553 229 -526C197 -527 165 -528 132 -531C181 -596 217 -652 247 -706C296 -671 356 -617 392 -576L449 -646C405 -679 354 -712 283 -754Z"/>
</svg>