<svg xmlns="http://www.w3.org/2000/svg" viewBox="0 -1000 1000 1000">
	<path fill="#000000" d="M321 -447V-378H169V-447ZM321 -319V-253H169V-319ZM631 -626H513V-712H631ZM668 -776C551 -776 500 -777 444 -781C446 -747 447 -709 447 -670V-522C447 -481 446 -441 444 -413C497 -417 551 -418 669 -418C786 -418 841 -417 893 -413C891 -443 889 -481 889 -522V-672C889 -709 891 -747 893 -781C838 -777 785 -776 668 -776ZM817 -626H697V-712H817ZM631 -479H513V-567H631ZM817 -479H697V-567H817ZM194 -604C206 -574 212 -555 220 -517L296 -537C278 -577 269 -598 260 -632ZM237 -701C290 -649 323 -610 362 -554L426 -614C385 -654 337 -697 265 -758C276 -774 290 -788 302 -795C313 -803 313 -809 303 -811C274 -816 251 -825 212 -844C200 -789 171 -719 147 -674C122 -627 55 -548 16 -516C41 -497 59 -476 69 -452C80 -466 91 -479 102 -493V-86C102 -37 96 -23 70 -7C90 14 105 36 119 67C131 51 152 35 183 20L327 -49C339 -28 350 -7 362 18L428 -23C404 -66 373 -113 327 -174L263 -142C274 -127 284 -114 292 -102L169 -52V-190H323C349 -190 364 -190 383 -188C381 -224 380 -290 380 -354C380 -413 381 -475 383 -513C365 -510 293 -507 244 -507C184 -507 143 -508 116 -511C160 -571 201 -632 237 -701ZM473 -286V-67C473 -17 466 -6 440 8C461 32 471 46 488 84C510 60 523 48 543 32L657 -58C648 -74 641 -98 638 -134C603 -99 577 -80 548 -62V-287H624C660 -101 766 6 918 62C925 35 948 -8 970 -33C888 -48 825 -73 777 -116C876 -185 900 -198 907 -200C921 -202 922 -209 908 -214C888 -221 861 -239 843 -260C817 -223 782 -187 743 -153C716 -188 697 -232 682 -287H828C873 -287 909 -284 939 -278V-363C907 -357 866 -354 671 -354C488 -354 443 -357 404 -363V-278C427 -282 450 -284 473 -286Z"/>
</svg>