<svg xmlns="http://www.w3.org/2000/svg" viewBox="0 -1000 1000 1000">
	<path fill="#000000" d="M324 -457V-389H176V-457ZM324 -333V-267H176V-333ZM198 -610C212 -579 218 -561 227 -525L307 -545C288 -574 275 -604 266 -638ZM235 -715C283 -676 309 -650 348 -594L415 -649C375 -688 322 -729 262 -766C273 -781 288 -797 298 -803C311 -811 311 -817 299 -819C264 -826 240 -834 205 -848C198 -801 177 -742 142 -679C106 -614 64 -555 29 -522C52 -505 64 -492 78 -466C88 -479 98 -493 109 -508V-100C109 -54 105 -41 74 -23C97 -2 115 22 126 47C140 31 163 15 196 0L327 -60C335 -48 342 -35 348 -23L415 -66C381 -113 353 -146 313 -184L260 -150C273 -136 286 -120 297 -104L176 -63V-206H322C355 -206 370 -205 392 -204C390 -240 389 -304 389 -366C389 -425 390 -485 392 -523C372 -520 307 -517 254 -517C187 -517 148 -518 119 -522C158 -579 200 -647 235 -715ZM873 -170L772 -155C799 -194 821 -229 835 -257C850 -287 858 -297 864 -299C878 -303 878 -311 864 -312C843 -314 810 -323 787 -335C786 -295 769 -243 747 -198C733 -170 721 -152 709 -138C720 -123 728 -107 735 -88C747 -95 775 -103 808 -111L883 -131C885 -118 887 -106 888 -94L953 -111C943 -147 926 -197 909 -237L853 -219C860 -204 867 -187 873 -170ZM684 -513H816V-413H675C679 -444 682 -478 684 -513ZM607 -413H502V-513H616C614 -477 611 -443 607 -413ZM688 -669H816V-570H687C688 -603 689 -636 688 -669ZM619 -570H502V-669H620C622 -636 621 -603 619 -570ZM636 -250C637 -230 638 -206 638 -186V-11C638 45 660 60 784 60C903 60 930 48 962 -35C940 -41 917 -55 899 -77C884 -14 860 -1 787 -1C722 -1 706 -7 706 -34V-186C706 -216 710 -247 723 -267C732 -281 729 -285 712 -281C700 -278 670 -279 648 -283C656 -306 662 -330 667 -353C749 -353 832 -351 895 -346C890 -376 888 -399 888 -446V-631C888 -679 890 -706 895 -735C870 -731 776 -725 665 -725C652 -725 639 -725 627 -725C666 -784 680 -801 695 -807C709 -813 709 -819 694 -820C666 -822 625 -830 593 -842C589 -803 576 -764 562 -726C499 -727 449 -731 423 -735C428 -705 430 -680 430 -631V-404C430 -370 427 -332 423 -303H502V-353H598C567 -201 459 -65 312 14C337 31 357 50 374 72C482 0 582 -120 636 -250Z"/>
</svg>