<svg xmlns="http://www.w3.org/2000/svg" viewBox="0 -1000 1000 1000">
	<path fill="#000000" d="M134 -221L69 -223C67 -172 56 -113 40 -54L105 -45C119 -97 129 -162 134 -221ZM214 -72C215 -122 214 -172 210 -224L151 -220C155 -171 153 -118 148 -70ZM305 -92C301 -140 297 -177 289 -227L234 -226C241 -178 244 -134 242 -85ZM387 -106C381 -154 374 -191 363 -237L309 -231C320 -184 327 -141 328 -94ZM630 -781C646 -795 646 -802 623 -801C595 -800 566 -802 535 -810C541 -793 542 -758 542 -670V-302C542 -102 518 -45 436 42C469 46 490 54 516 75C598 -46 616 -119 616 -303V-736C616 -755 621 -774 630 -781ZM917 -789C933 -802 932 -807 910 -807C881 -807 850 -810 819 -817C827 -804 830 -774 830 -678V-69C830 -28 827 26 821 75H912C906 26 903 -28 903 -69V-745C903 -770 907 -781 917 -789ZM766 -728C786 -739 783 -747 759 -746C731 -745 703 -746 671 -752C679 -739 682 -711 682 -615V-161C682 -121 679 -67 673 -18H761C755 -67 752 -121 752 -161V-684C752 -709 758 -724 766 -728ZM267 -346H171V-431H267ZM267 -575V-486H171V-575ZM171 -630V-714H267V-630ZM331 -630V-714C384 -714 434 -712 483 -708V-779C426 -774 371 -773 290 -773C203 -773 144 -774 97 -779C101 -743 102 -681 102 -528C102 -386 101 -324 96 -279C123 -282 155 -283 225 -283H411C409 -188 406 -131 394 -56C389 -25 373 -16 288 -25C315 1 327 24 332 59C432 34 450 17 458 -28C470 -94 478 -179 481 -275C482 -305 486 -333 492 -353C448 -348 397 -346 331 -346V-431C379 -431 426 -429 468 -425V-492C426 -488 379 -486 331 -486V-575C380 -575 428 -573 472 -569V-636C428 -632 380 -630 331 -630Z"/>
</svg>