<svg xmlns="http://www.w3.org/2000/svg" viewBox="0 -1000 1000 1000">
	<path fill="#000000" d="M321 -514H202V-556H321ZM235 -92L164 -120C139 -80 109 -46 76 -16L150 28C179 -9 212 -54 235 -92ZM389 -7C378 -48 366 -84 351 -120L276 -95C291 -61 302 -23 310 16ZM538 -20C528 -53 518 -82 505 -113L432 -91C446 -58 452 -36 459 4ZM696 -38C683 -68 666 -98 647 -126L581 -101C599 -69 610 -46 621 -11ZM484 -184H252V-215H484ZM484 -299V-265H252V-299ZM252 -349V-383H484V-349ZM555 -349V-383H649C713 -383 777 -382 835 -377V-442C777 -437 713 -436 649 -436H323C258 -436 208 -439 179 -444C181 -420 183 -390 183 -350V-225C183 -177 180 -152 175 -127C204 -130 248 -131 323 -131H798C796 -93 791 -63 784 -46C776 -26 759 -14 701 -14C713 14 721 44 724 74C817 57 846 17 857 -17C862 -33 875 -123 881 -190C832 -185 777 -184 555 -184V-215C677 -215 750 -213 809 -208V-272C749 -267 679 -265 555 -265V-299C685 -299 750 -297 807 -292V-356C750 -352 685 -349 555 -349ZM192 -628H450C440 -511 431 -501 385 -501C393 -485 399 -468 404 -442C479 -456 499 -489 505 -551C511 -617 517 -659 522 -676C500 -673 471 -672 400 -672H223C224 -673 226 -674 227 -675C236 -680 234 -684 226 -684C208 -683 186 -688 169 -695C140 -644 100 -606 62 -580C76 -568 89 -554 101 -538C117 -550 132 -562 146 -576C147 -563 147 -549 147 -534C147 -507 147 -484 145 -465C166 -467 218 -469 264 -469C315 -469 355 -467 380 -465C379 -484 378 -505 378 -534C378 -560 379 -586 380 -603C351 -601 321 -600 263 -600C222 -600 194 -601 170 -601C177 -609 184 -618 192 -628ZM665 -750C678 -769 690 -779 699 -783C711 -789 715 -799 700 -802C667 -808 637 -816 614 -824C600 -756 567 -684 517 -625C536 -613 553 -599 566 -586C593 -621 615 -654 636 -695H794C784 -656 765 -621 731 -591C707 -611 686 -637 660 -671L612 -648C635 -612 657 -586 687 -560C644 -533 588 -512 520 -500C538 -481 551 -463 561 -443C632 -467 689 -493 734 -523C782 -492 849 -458 914 -440C920 -468 928 -488 943 -510C868 -526 819 -540 780 -559C824 -599 848 -641 862 -695C892 -694 919 -693 938 -691V-758C912 -753 877 -750 834 -750ZM262 -712H350V-683H414V-712C470 -712 520 -710 554 -706V-765C519 -761 471 -759 414 -759V-794C414 -802 416 -805 423 -808C435 -813 431 -818 416 -818C394 -818 368 -820 343 -822C347 -805 349 -783 350 -759H262V-795C262 -802 264 -806 271 -809C281 -813 284 -819 264 -819C242 -819 219 -820 194 -823C198 -806 200 -784 201 -759C145 -759 97 -761 62 -765V-706C97 -711 145 -712 201 -712V-688H262Z"/>
</svg>