<svg xmlns="http://www.w3.org/2000/svg" viewBox="0 -1000 1000 1000">
	<path fill="#000000" d="M283 -523V-605H511V-523ZM795 -523V-689C795 -735 796 -772 798 -795C766 -791 717 -790 493 -790C293 -790 241 -791 204 -795C206 -770 207 -736 207 -689V-523C149 -523 113 -525 90 -527V-369H165V-463H852V-367H925V-527C902 -524 876 -523 795 -523ZM588 -523V-661H283V-728H718V-523ZM298 -81H707V-56C707 -6 689 5 572 -20C602 21 614 49 618 85C780 69 789 60 789 -30V-304C789 -344 790 -374 792 -394C768 -392 707 -391 501 -391C299 -391 243 -392 215 -394C217 -374 218 -345 218 -304V-62C218 -10 216 23 212 68H298ZM707 -266H298V-329H707ZM298 -210H707V-141H298Z"/>
</svg>