<svg xmlns="http://www.w3.org/2000/svg" viewBox="0 -1000 1000 1000">
	<path fill="#000000" d="M339 -244V-191H185V-244ZM185 -299V-353H339V-299ZM532 -546C497 -471 476 -443 415 -385C439 -375 453 -366 467 -351C496 -383 520 -412 541 -440H636C624 -414 609 -390 589 -368C572 -385 560 -395 547 -407L504 -369C519 -356 529 -345 543 -326C514 -305 479 -286 439 -271C459 -259 471 -245 484 -218C516 -235 540 -250 563 -267C567 -250 571 -217 571 -186C521 -186 465 -190 425 -195V-121C464 -125 519 -127 568 -128C558 -70 520 -25 430 9C460 19 478 31 501 61C592 6 623 -46 632 -129H746V-36C746 -8 743 29 737 67H821C815 26 813 -11 813 -50V-129C863 -128 920 -125 959 -121V-195C920 -190 864 -187 813 -186C813 -233 815 -243 823 -247C836 -255 833 -259 818 -258C795 -256 768 -258 739 -264C743 -242 745 -214 746 -186H636C639 -220 643 -234 650 -240C667 -253 664 -262 643 -262C632 -262 600 -265 568 -271C641 -327 681 -392 716 -492C689 -490 663 -489 615 -489H573C585 -508 595 -528 603 -547H724V-351C724 -290 732 -278 773 -277C819 -276 852 -276 891 -278C923 -280 937 -295 955 -343C925 -354 906 -367 888 -392C881 -337 876 -332 832 -332C790 -332 787 -337 787 -371V-398C874 -436 905 -444 935 -443C951 -443 954 -447 945 -454C925 -472 911 -490 894 -517C875 -500 850 -485 787 -457V-547C846 -547 919 -544 944 -539V-608C919 -603 843 -600 783 -600H602C543 -600 467 -603 441 -608V-539C457 -542 493 -545 532 -546ZM175 -614H238V-527H175ZM343 -527H294V-667H175V-726H343ZM113 -527C95 -528 82 -529 64 -531V-402H124V-91C124 -39 122 -2 118 43H185V-135H339V-66C339 -33 320 -26 262 -38C281 -10 289 15 287 44C389 32 400 23 400 -46V-359C400 -380 401 -398 402 -412C375 -409 347 -408 276 -408H131V-474H377V-417H439V-531C430 -530 420 -529 405 -528V-678C405 -724 406 -761 408 -784C376 -780 352 -779 258 -779C164 -779 146 -780 110 -784C112 -759 113 -725 113 -678ZM625 -672H731V-611H794V-672C852 -671 900 -668 936 -663V-735C900 -730 853 -727 794 -727V-768C794 -782 797 -790 803 -792C821 -799 815 -806 807 -806C780 -807 752 -810 726 -815C729 -792 731 -764 731 -727H625V-762C625 -776 627 -782 634 -786C648 -794 651 -799 633 -800C607 -801 582 -804 556 -809C559 -789 561 -759 561 -727C512 -728 472 -731 439 -735V-663C471 -667 512 -670 561 -671V-615H625Z"/>
</svg>