<svg xmlns="http://www.w3.org/2000/svg" viewBox="0 -1000 1000 1000">
	<path fill="#000000" d="M527 -82V-335C527 -389 529 -422 536 -453C508 -446 467 -446 437 -451V-383C446 -386 453 -387 461 -387V-88C444 -82 426 -68 387 -27C399 -14 410 -1 431 26C475 -44 491 -49 565 -1C616 32 734 45 918 36C918 6 921 -5 943 -43C729 -20 622 -26 578 -53C555 -67 539 -76 527 -82ZM490 -769L427 -756C443 -709 452 -648 453 -582L520 -593C514 -657 504 -716 490 -769ZM176 -510V-619H226V-510ZM391 -511V-689C391 -735 392 -777 394 -800C364 -796 346 -795 252 -795C167 -795 141 -796 108 -800C110 -775 111 -736 111 -689V-511C91 -512 76 -513 59 -516V-393H123V-457H365V-421H429V-516C420 -514 408 -512 391 -511ZM287 -510V-674H176V-736H326V-510ZM188 -107H312V-69C312 -26 306 -22 233 -37C259 -12 265 7 268 37C365 23 380 6 380 -43V-391C353 -388 323 -387 269 -387C183 -387 149 -389 121 -391V-121C121 -69 117 -2 113 43H188ZM312 -272H188V-331H312ZM188 -222H312V-158H188ZM666 -167H820C819 -123 811 -121 747 -131C769 -108 775 -99 780 -65C883 -77 887 -81 887 -153V-342C887 -376 889 -407 892 -424C853 -419 829 -417 748 -417C658 -417 629 -418 595 -423C598 -404 600 -375 600 -341V-224C600 -184 597 -135 592 -81H666ZM820 -316H666V-360H820ZM666 -264H820V-221H666ZM626 -695C594 -627 549 -567 486 -529C508 -520 522 -509 542 -484C570 -513 598 -548 623 -582H718V-520C667 -521 629 -523 597 -528V-458C637 -463 689 -466 766 -466C843 -466 895 -463 935 -458V-528C898 -522 851 -520 784 -520V-582C838 -582 872 -581 898 -577V-639C869 -636 826 -634 760 -634H658C672 -656 683 -678 691 -697C836 -697 870 -696 925 -689V-762C874 -756 828 -754 714 -754C728 -788 743 -810 748 -812C763 -820 763 -828 746 -831C723 -835 706 -839 677 -850C675 -827 667 -797 651 -756C617 -757 589 -759 563 -762V-689C582 -692 603 -694 626 -695Z"/>
</svg>