<svg xmlns="http://www.w3.org/2000/svg" viewBox="0 -1000 1000 1000">
	<path fill="#000000" d="M924 -504C901 -517 885 -529 860 -555C783 -491 687 -450 537 -427C566 -410 576 -399 587 -374C690 -395 766 -421 830 -456C869 -477 894 -484 917 -485C937 -486 943 -493 924 -504ZM884 -635C871 -643 852 -658 822 -686C733 -615 681 -586 555 -567C583 -550 597 -533 604 -510C696 -539 733 -553 796 -587C835 -608 852 -616 880 -620C895 -622 898 -626 884 -635ZM871 -776C848 -790 833 -801 806 -829C729 -765 659 -729 544 -698C563 -688 581 -667 588 -645C656 -666 725 -698 785 -731C823 -752 848 -759 862 -759C883 -759 887 -766 871 -776ZM734 35V66H809C806 48 804 27 804 4V-65C804 -89 805 -109 810 -128C766 -124 671 -121 518 -121C359 -121 267 -124 197 -128C201 -109 203 -82 203 -55V2C203 22 201 48 196 77H272V35ZM272 -14V-70H734V-14ZM540 -223V-275C707 -275 825 -272 917 -266V-337C825 -330 707 -327 540 -327C540 -346 542 -357 547 -360C566 -371 564 -381 542 -378C520 -375 494 -374 465 -380C468 -364 469 -345 470 -327C300 -327 181 -330 86 -337V-266C179 -272 300 -275 470 -275V-223C335 -224 241 -227 163 -233V-163C248 -169 353 -172 510 -172C670 -172 760 -169 844 -163V-233C766 -226 682 -223 540 -223ZM160 -538C130 -540 105 -542 76 -544V-483C113 -488 145 -489 232 -489C201 -458 159 -429 127 -422C137 -406 142 -392 146 -367C166 -373 199 -377 238 -379L451 -394C455 -390 458 -386 462 -381L515 -413C480 -440 457 -458 419 -482L375 -458C390 -448 402 -440 412 -431L227 -422C255 -442 276 -460 303 -489H369C465 -489 505 -487 544 -483V-544C504 -539 465 -538 419 -538H225V-577H361C424 -577 463 -575 506 -571V-627C460 -622 426 -621 361 -621H225V-660H361C430 -660 463 -658 507 -654V-711C463 -706 425 -704 361 -704H225V-742H349C442 -742 488 -741 538 -737V-800C480 -795 442 -793 349 -793C241 -793 213 -795 154 -800C159 -765 160 -746 160 -669Z"/>
</svg>