<svg xmlns="http://www.w3.org/2000/svg" viewBox="0 -1000 1000 1000">
	<path fill="#000000" d="M743 -70H272V-95H743ZM743 -130H272V-154H743ZM929 -571C911 -586 894 -604 884 -618C785 -576 678 -542 541 -529C567 -510 576 -500 584 -479C683 -494 753 -511 852 -539C888 -549 908 -554 918 -553C941 -550 945 -557 929 -571ZM911 -668C898 -680 885 -696 870 -717C787 -684 657 -646 554 -631C571 -613 580 -600 586 -585C677 -604 771 -626 825 -641C849 -647 884 -653 905 -653C920 -652 921 -658 911 -668ZM910 -784C891 -796 874 -811 861 -827C802 -799 660 -754 523 -732C542 -718 552 -706 558 -689C632 -702 755 -730 831 -753C870 -765 885 -767 901 -767C922 -767 925 -774 910 -784ZM411 -537L231 -528L282 -561H384C394 -554 403 -546 411 -537ZM153 -606C118 -607 85 -609 55 -611V-556C90 -559 128 -561 204 -561C157 -533 133 -526 97 -528C105 -505 107 -494 108 -472C132 -477 155 -480 230 -486L439 -503C445 -496 449 -488 454 -480L509 -511C494 -528 477 -545 456 -561C492 -561 515 -559 542 -556V-611C504 -607 479 -606 432 -606H220V-629H424C455 -629 480 -629 504 -627V-666C479 -664 455 -663 424 -663H220V-686H427C458 -686 481 -685 507 -683V-723C482 -721 458 -720 427 -720H220V-742H357C425 -742 492 -739 531 -735V-797C477 -793 414 -791 342 -791C270 -791 206 -793 151 -797C152 -782 153 -765 153 -731ZM291 -215H743V-191H272V-212C279 -213 285 -214 291 -215ZM552 -356H676C704 -356 727 -356 750 -355C711 -340 660 -330 552 -309ZM478 -295C288 -260 158 -243 40 -235C57 -215 70 -195 79 -175C118 -183 161 -191 203 -199V-78C203 -59 202 -48 197 -26C243 -29 308 -30 376 -30C286 -3 196 15 83 25C108 48 119 62 129 78C197 66 312 44 385 27C409 21 428 18 440 18C450 18 452 12 444 7C425 -4 408 -17 394 -30H595L571 18C668 28 768 47 872 78L907 22C818 2 728 -14 621 -30C700 -30 773 -28 822 -26C818 -40 816 -55 816 -74V-206C816 -225 818 -247 822 -259C759 -256 650 -254 513 -254C588 -267 672 -282 737 -294C795 -305 805 -307 818 -307C835 -307 838 -314 824 -324C808 -336 793 -346 779 -354C794 -354 812 -354 827 -352V-400C754 -396 647 -395 511 -395C375 -395 269 -397 195 -400V-352C248 -355 290 -356 350 -356H377C321 -337 251 -324 139 -314C155 -297 163 -285 166 -265C223 -273 284 -283 363 -298C397 -305 411 -308 419 -308C440 -307 444 -316 429 -325C413 -334 400 -344 385 -356H478ZM474 -465C226 -465 166 -466 87 -469V-359H156V-417H861V-350H932V-469C856 -466 779 -465 556 -465C552 -477 547 -489 540 -501L466 -478C469 -473 472 -469 474 -465Z"/>
</svg>