<svg xmlns="http://www.w3.org/2000/svg" viewBox="0 -1000 1000 1000">
	<path fill="#000000" d="M475 -433H254V-486H475ZM767 -433H542V-486H767ZM475 -539H254V-589H475ZM767 -539H542V-589H767ZM235 -333L165 -369C137 -321 87 -261 48 -230L123 -195C161 -237 195 -278 235 -333ZM955 -255C914 -285 851 -329 798 -364L728 -321C803 -281 850 -242 883 -202ZM464 -271C449 -301 429 -333 407 -361L337 -333C358 -303 376 -271 385 -243ZM664 -280C648 -306 627 -334 603 -363L532 -334C558 -305 578 -276 589 -246ZM732 30V87H816C811 44 808 3 808 -45V-145C808 -181 810 -223 813 -249C766 -242 676 -240 510 -240C343 -240 252 -242 204 -249C208 -223 210 -181 210 -145V-45C210 4 207 43 201 87H284V30ZM284 -133V-184H732V-133ZM732 -79V-25H284V-79ZM371 -763C392 -783 414 -795 447 -805C466 -811 465 -823 444 -826C418 -830 375 -843 346 -854C289 -771 161 -656 47 -596C83 -583 103 -568 124 -544C136 -554 162 -577 182 -596V-467C182 -430 180 -394 178 -372C257 -375 344 -377 499 -377C657 -377 768 -375 848 -372C845 -408 844 -463 844 -515C844 -566 846 -618 848 -652C784 -649 727 -647 663 -646L775 -768C742 -765 664 -763 626 -763ZM563 -646H240C271 -671 293 -690 311 -706H626Z"/>
</svg>