<svg xmlns="http://www.w3.org/2000/svg" viewBox="0 -1000 1000 1000">
	<path fill="#000000" d="M222 -269H153V-362H222ZM340 -269H279V-362H340ZM580 -339H498V-433H580ZM911 -279C909 -307 908 -347 908 -387C908 -426 909 -465 911 -493C838 -488 765 -485 674 -485C583 -485 506 -488 434 -493C435 -463 437 -427 437 -387C437 -351 435 -314 434 -279C506 -283 583 -286 674 -286C765 -286 838 -283 911 -279ZM710 -339H639V-433H710ZM848 -339H771V-433H848ZM222 -418H153V-513H222ZM340 -418H279V-513H340ZM808 -583H540V-631H808ZM881 -527C879 -560 878 -606 878 -657C878 -706 879 -752 881 -785C834 -781 771 -780 678 -780C585 -780 517 -781 470 -785C471 -752 473 -706 473 -657C473 -606 472 -562 470 -528C516 -530 585 -530 678 -530C771 -530 835 -530 881 -527ZM808 -682H540V-725H808ZM155 -163L84 -174C80 -124 66 -53 47 2L117 14C133 -41 147 -110 155 -163ZM253 -8C252 -57 247 -114 241 -159H179C184 -118 186 -56 182 -6ZM356 -21C350 -69 339 -124 328 -168L265 -160C277 -120 287 -68 287 -19ZM458 -43C448 -90 432 -139 417 -177L351 -169C366 -125 380 -75 388 -28ZM225 -714C259 -776 265 -784 276 -792C294 -806 292 -812 273 -814C240 -817 230 -819 198 -832C183 -747 127 -646 49 -579C73 -564 80 -558 93 -533V-277C93 -251 92 -225 90 -207C129 -209 164 -210 249 -210C333 -210 367 -209 406 -207C404 -226 403 -251 403 -276V-507C403 -531 404 -554 406 -576C376 -573 350 -572 307 -572L401 -720C376 -716 344 -714 310 -714ZM245 -572H136C155 -600 175 -629 189 -653H290ZM570 -185H765C742 -141 708 -105 668 -81C626 -111 592 -146 570 -185ZM495 -185C527 -130 573 -75 607 -51C540 -24 435 1 341 3C374 30 391 56 399 81C505 60 613 24 678 -9C749 28 825 57 911 71C920 38 934 13 955 -10C891 -10 807 -29 741 -50C787 -90 830 -149 884 -248C813 -245 766 -244 667 -244C543 -244 516 -245 447 -248V-182C464 -184 479 -184 495 -185Z"/>
</svg>