<svg xmlns="http://www.w3.org/2000/svg" viewBox="0 -1000 1000 1000">
	<path fill="#000000" d="M231 -278H161V-372H231ZM353 -278H288V-372H353ZM231 -425H161V-508H231ZM353 -425H288V-508H353ZM889 -762C865 -768 836 -779 814 -791C798 -743 781 -712 748 -674C778 -668 796 -659 816 -642C859 -713 875 -734 886 -739C907 -748 905 -758 889 -762ZM600 -690C578 -730 558 -760 534 -793L460 -759C487 -733 512 -694 529 -651ZM139 -168L75 -174C72 -106 63 -57 41 -5L114 8C124 -46 133 -111 139 -168ZM236 -17C234 -64 230 -121 225 -166L159 -164C167 -126 168 -63 161 -13ZM347 -31C336 -84 329 -127 324 -174L255 -169C268 -130 277 -76 273 -27ZM450 -54C441 -100 428 -144 412 -187L347 -176C370 -126 379 -88 381 -41ZM185 -657H291L242 -568H136C150 -591 166 -620 185 -657ZM856 -258H865C895 -258 929 -255 947 -251V-323C926 -319 890 -316 856 -316V-349C856 -365 859 -376 866 -380C877 -387 877 -395 859 -393C841 -391 821 -392 787 -397C791 -385 794 -343 794 -316C745 -316 699 -319 674 -323V-251C694 -256 719 -258 742 -258H795L796 -140H735C740 -195 745 -207 751 -212C760 -220 758 -224 741 -223C726 -222 705 -225 684 -230C686 -201 680 -124 671 -76C701 -79 757 -81 796 -81C796 -26 794 23 791 76H862C858 36 856 -31 856 -81C891 -81 934 -79 961 -76V-143C930 -141 896 -140 856 -140ZM501 -418C487 -361 454 -286 414 -240V-440C435 -429 447 -415 464 -392C477 -401 490 -410 501 -418ZM592 -578C547 -522 486 -477 414 -448V-501C414 -525 415 -549 417 -571C387 -569 350 -568 319 -568L411 -721C392 -718 341 -715 296 -715H216C237 -752 254 -778 266 -787C284 -801 284 -807 264 -811C234 -817 210 -826 183 -839C160 -732 105 -619 34 -551C50 -537 67 -517 83 -489C89 -497 94 -504 99 -511V-287C99 -261 97 -235 95 -217C136 -219 195 -221 261 -221H414V-224C434 -215 443 -206 456 -191C467 -205 482 -228 500 -258H585C579 -209 570 -176 556 -149C542 -173 530 -192 518 -210L465 -179C485 -151 499 -128 516 -94C479 -50 442 -20 380 14C420 23 437 36 452 63C500 30 552 -22 584 -68C623 -125 647 -199 659 -322C646 -319 635 -317 614 -317H534C565 -371 574 -384 581 -388C599 -398 600 -404 579 -409C560 -414 543 -421 520 -432C577 -475 616 -516 648 -564V-493C648 -461 645 -418 639 -368H722C717 -418 715 -462 715 -493V-547C760 -485 804 -445 904 -388C916 -424 926 -436 959 -462C869 -486 824 -509 752 -578C812 -578 881 -575 917 -573V-638C872 -635 777 -632 715 -632V-771C715 -789 717 -799 724 -804C740 -815 734 -826 719 -824C694 -821 670 -823 641 -828C644 -809 648 -755 648 -702V-632C581 -632 497 -634 447 -638V-573C489 -576 558 -578 592 -578Z"/>
</svg>