<svg xmlns="http://www.w3.org/2000/svg" viewBox="0 -1000 1000 1000">
	<path fill="#000000" d="M810 -627H539V-682H810ZM810 -518H539V-572H810ZM511 -174L448 -183C441 -126 430 -74 412 -18L480 -12C493 -67 506 -122 511 -174ZM615 -34C614 -89 611 -129 607 -176L544 -172C548 -120 550 -81 546 -29ZM725 -45C719 -100 713 -134 703 -180L646 -171C657 -119 661 -89 660 -37ZM827 -61C820 -113 814 -142 802 -188L747 -177C759 -126 760 -100 761 -51ZM539 -407V-455H793C822 -455 853 -454 882 -452C879 -477 878 -512 878 -550V-647C878 -685 879 -719 882 -747C853 -744 822 -743 793 -743H682C698 -785 710 -804 723 -811C735 -817 734 -828 718 -827C690 -826 652 -835 626 -846C627 -807 624 -779 616 -743H557C527 -743 496 -745 467 -747C468 -719 469 -684 469 -647V-317C469 -277 469 -243 467 -218C492 -223 550 -225 609 -225H855C852 -134 849 -85 845 -59C837 -11 816 1 719 -10C745 21 753 48 751 84C861 66 895 50 907 -8C916 -48 921 -92 925 -196C926 -231 931 -269 938 -294C902 -290 868 -289 800 -289H539V-345H792C848 -345 902 -343 952 -339V-413C902 -409 848 -407 792 -407ZM326 -156H154V-320H326ZM274 -389V-572C337 -572 396 -569 435 -563V-647C396 -642 340 -639 274 -639V-777C274 -792 279 -806 287 -812C299 -822 297 -828 283 -828C250 -828 223 -830 196 -834C199 -813 200 -798 200 -639C148 -639 86 -642 48 -647V-563C85 -569 146 -572 200 -572V-389C131 -389 105 -391 83 -394C84 -370 85 -348 85 -307V-135C85 -83 83 -45 75 8H154V-90H326V-10H397C395 -58 395 -101 395 -152V-307C395 -352 396 -374 400 -394C381 -391 348 -389 274 -389Z"/>
</svg>