<svg xmlns="http://www.w3.org/2000/svg" viewBox="0 -1000 1000 1000">
	<path fill="#000000" d="M808 -500H568V-559H808ZM808 -618H568V-670H808ZM345 -615H180V-710H345ZM264 -771C186 -771 144 -772 103 -775C106 -748 108 -711 108 -672C108 -624 107 -582 103 -552C143 -554 186 -554 264 -554C342 -554 383 -553 423 -551C420 -581 418 -628 418 -673C418 -714 420 -749 423 -775C382 -772 342 -771 264 -771ZM836 -72C824 -122 810 -166 797 -205L732 -193C748 -148 762 -103 770 -56ZM739 -53C732 -107 721 -150 707 -191L650 -180C662 -137 669 -99 676 -46ZM163 -153H368V-67C368 -34 354 -26 279 -37C302 -14 315 18 319 48C412 37 440 11 440 -45V-415C440 -449 442 -479 443 -495C395 -492 332 -492 265 -492C199 -492 137 -492 89 -495C91 -479 92 -449 92 -415V-101C92 -61 89 -12 84 42H163ZM368 -350H163V-431H368ZM163 -289H368V-216H163ZM547 -177L485 -183C482 -127 472 -80 454 -24L522 -10C534 -66 541 -121 547 -177ZM641 -35C639 -88 635 -136 628 -179L567 -174C572 -130 574 -86 572 -32ZM568 -394V-441H788C819 -441 852 -440 882 -438C878 -461 877 -492 877 -526V-645C877 -679 878 -709 882 -733C852 -730 819 -730 788 -730H657C679 -772 700 -799 710 -805C724 -812 725 -821 705 -824C673 -828 643 -835 604 -844C602 -814 597 -768 590 -730C560 -730 526 -731 497 -733C498 -709 498 -678 498 -645V-313C498 -278 498 -248 497 -225C524 -230 563 -232 625 -232H855C855 -175 853 -100 850 -63C845 -6 836 2 747 -2C769 26 784 54 790 83C906 62 915 54 920 -30C923 -81 926 -151 929 -219C930 -249 934 -281 939 -299C901 -296 854 -295 782 -295H568V-337H781C842 -337 902 -336 956 -331V-400C902 -395 842 -394 781 -394Z"/>
</svg>