<svg xmlns="http://www.w3.org/2000/svg" viewBox="0 -1000 1000 1000">
	<path fill="#000000" d="M795 -519H567V-574H795ZM795 -628H567V-679H795ZM534 -180L475 -193C472 -142 457 -73 437 -18L507 -6C522 -61 533 -127 534 -180ZM624 -32C624 -86 621 -134 616 -181L556 -179C560 -128 559 -76 555 -26ZM727 -42C723 -94 717 -140 707 -186L647 -181C658 -133 662 -83 660 -33ZM821 -61C814 -113 804 -153 790 -199L736 -183C747 -140 754 -97 754 -47ZM583 -738C555 -738 518 -739 491 -741C492 -717 493 -686 493 -653V-318C493 -283 492 -253 491 -230C516 -235 558 -237 616 -237H847C844 -189 841 -136 837 -72C834 -15 822 -8 723 -9C750 18 765 47 768 78C868 56 896 35 903 -21C907 -55 914 -164 917 -222C919 -253 922 -281 926 -302C891 -299 861 -298 760 -298H567V-350H771C829 -350 885 -349 936 -344V-416C885 -412 829 -410 771 -410H567V-459H762C791 -459 840 -458 869 -456C866 -479 865 -510 865 -544V-653C865 -687 866 -717 869 -741C840 -739 803 -738 774 -738H652C669 -791 676 -804 688 -811C705 -821 702 -828 682 -828C655 -828 623 -834 596 -841C597 -808 594 -782 583 -738ZM314 -653V-736C314 -780 316 -793 322 -797C337 -808 332 -815 317 -815C293 -815 270 -817 238 -820C242 -806 244 -775 244 -653H170C179 -691 185 -702 196 -708C210 -715 209 -722 193 -725C178 -728 135 -742 114 -750C106 -672 92 -615 53 -528C82 -525 103 -518 123 -508C133 -536 143 -567 152 -595H244V-468C156 -468 102 -470 53 -474V-399C104 -403 162 -405 260 -405C358 -405 411 -403 462 -399V-474C421 -471 371 -468 314 -468V-595C348 -595 397 -592 429 -587V-661C399 -657 343 -653 314 -653ZM349 -108H178V-269H349ZM178 -46H349V16H423C421 -24 420 -60 420 -103V-264C420 -301 421 -319 424 -335C397 -333 368 -332 263 -332C159 -332 132 -333 102 -335C105 -315 106 -297 106 -264V-87C106 -45 104 -12 98 32H178Z"/>
</svg>