<svg xmlns="http://www.w3.org/2000/svg" viewBox="0 -1000 1000 1000">
	<path fill="#000000" d="M354 -497H177V-574H354ZM423 -433C422 -459 420 -496 420 -534C420 -573 422 -609 423 -636C391 -633 363 -633 258 -633C178 -633 143 -634 103 -636C106 -609 107 -573 107 -534C107 -496 106 -459 103 -433C134 -435 188 -436 257 -436C354 -436 399 -435 423 -433ZM816 -520H562V-576H816ZM816 -633H562V-686H816ZM606 -25C607 -78 605 -131 601 -179L540 -186C543 -135 541 -75 535 -20ZM706 -37C705 -83 700 -145 693 -187L631 -184C639 -141 644 -84 643 -33ZM811 -53C808 -95 801 -150 794 -195L732 -189C739 -144 742 -98 742 -44ZM516 -186L454 -195C444 -140 425 -85 388 -23L463 2C482 -54 501 -122 516 -186ZM280 -206V-231L361 -304C383 -323 402 -336 433 -346V-393C387 -390 347 -389 267 -389C154 -389 120 -390 72 -393V-323C102 -327 122 -328 170 -328H299L213 -261V-199C126 -188 86 -185 44 -186C54 -154 59 -130 62 -104C103 -122 141 -131 213 -140V-63C213 -24 197 -16 127 -24C149 4 155 21 157 54C251 50 280 29 280 -33V-147C352 -154 405 -158 432 -159C424 -182 422 -203 424 -226C383 -219 343 -214 280 -206ZM213 -739C110 -739 86 -742 50 -749V-672C85 -678 118 -679 246 -679C375 -679 417 -677 465 -672V-749C424 -742 377 -739 294 -739C286 -775 283 -804 284 -839L182 -818C197 -792 206 -767 213 -739ZM622 -747H580C551 -747 520 -748 491 -750C492 -726 493 -695 493 -662V-310C493 -276 492 -249 489 -226C514 -229 534 -230 564 -230H852C852 -181 845 -111 836 -64C826 -13 812 -8 733 -15C753 15 761 38 762 76C871 55 886 39 898 -16C906 -53 916 -130 922 -212C924 -242 928 -276 933 -299C901 -295 882 -294 806 -294H562V-347H805C873 -347 886 -346 946 -342V-416C886 -411 873 -410 805 -410H562V-458H804C833 -458 864 -457 893 -455C890 -478 889 -508 889 -542V-662C889 -696 890 -726 893 -750C864 -748 833 -747 804 -747H695C711 -778 731 -810 738 -817C747 -826 745 -830 733 -829C711 -828 688 -832 644 -846C640 -813 632 -781 622 -747Z"/>
</svg>