<svg xmlns="http://www.w3.org/2000/svg" viewBox="0 -1000 1000 1000">
	<path fill="#000000" d="M821 -505H596V-559H821ZM821 -615H596V-670H821ZM650 -48C651 -98 649 -149 646 -197L587 -195C591 -143 589 -96 581 -44ZM747 -63C744 -115 736 -162 726 -204L673 -201C681 -155 687 -107 686 -56ZM837 -84C827 -134 818 -167 803 -214L750 -205C759 -163 768 -112 775 -71ZM500 -651C514 -660 512 -669 498 -669C466 -670 448 -674 416 -686C410 -635 397 -590 367 -523C398 -523 420 -518 439 -509C470 -613 483 -640 500 -651ZM338 -548C330 -596 321 -639 311 -675L236 -658C249 -619 257 -580 262 -538ZM489 -740C469 -760 451 -784 436 -811C384 -788 337 -774 268 -762C171 -746 106 -740 52 -739C70 -717 77 -702 83 -673C161 -678 233 -688 300 -701C440 -728 460 -729 482 -724C498 -720 501 -728 489 -740ZM567 -197L506 -205C499 -145 484 -85 463 -28L526 -14C547 -72 560 -133 567 -197ZM626 -727C583 -727 557 -729 528 -732C530 -708 530 -686 530 -644V-327C530 -292 526 -263 520 -239C545 -244 583 -246 641 -246H864C862 -198 856 -99 852 -55C849 -23 831 -12 756 -17C784 15 794 37 795 78C898 44 912 28 917 -23C923 -86 928 -154 931 -232C932 -259 938 -290 945 -311C910 -308 861 -307 792 -307H596V-350H796C866 -350 910 -349 961 -344V-415C911 -411 868 -409 796 -409H596V-447H813C842 -447 863 -446 892 -444C889 -467 888 -498 888 -532V-644C888 -678 889 -708 892 -732C863 -729 827 -727 795 -727H692C711 -772 721 -788 736 -798C753 -809 752 -816 734 -818C701 -822 678 -827 644 -836C642 -800 636 -764 626 -727ZM160 -522C145 -462 114 -416 56 -361C95 -348 112 -339 128 -327C142 -348 158 -375 174 -401H254V-310C165 -310 105 -312 56 -316V-245C105 -250 165 -252 254 -252V-86L181 -79V-158C181 -177 184 -184 188 -188C199 -198 197 -204 183 -204C166 -204 146 -205 107 -210C109 -198 110 -179 110 -141V-86C110 -47 108 -21 106 -6C127 -13 156 -17 197 -21L393 -40V28H463C461 11 460 3 460 -28V-154C460 -176 461 -182 466 -187C476 -198 475 -203 461 -202C445 -201 406 -204 388 -207C391 -197 393 -174 393 -144V-100L321 -93V-252C397 -251 451 -249 496 -245V-316C451 -313 397 -311 321 -310V-401C409 -401 437 -399 479 -394V-463C440 -460 410 -459 320 -459H210C221 -474 231 -486 243 -493C257 -501 256 -510 239 -512C214 -515 202 -516 168 -525L203 -540C182 -586 171 -607 148 -646L79 -621C103 -586 120 -553 133 -510Z"/>
</svg>