<svg xmlns="http://www.w3.org/2000/svg" viewBox="0 -1000 1000 1000">
	<path fill="#000000" d="M707 -272H277V-303H707ZM707 -343H277V-378H707ZM236 -72L166 -95C149 -49 119 -11 77 27L148 58C185 12 209 -24 236 -72ZM398 30C387 -20 377 -52 364 -84L298 -76C313 -35 321 6 324 44ZM573 19C561 -26 550 -56 537 -88L471 -75C486 -39 493 -13 502 32ZM659 -682C596 -642 517 -624 484 -623C493 -599 496 -579 497 -555C526 -565 557 -570 675 -578V-508C675 -474 673 -449 670 -436H744C741 -452 739 -475 739 -508V-582L840 -589C847 -577 852 -566 858 -553L912 -592C883 -632 856 -664 823 -700L778 -668C790 -656 801 -645 811 -631L660 -627C832 -727 841 -731 860 -732C871 -732 873 -747 862 -751C839 -760 816 -776 795 -796C770 -765 756 -751 723 -726L614 -723C670 -772 696 -793 712 -795C726 -797 728 -804 712 -811C690 -821 670 -832 651 -852C629 -814 606 -784 574 -757C551 -737 524 -726 495 -724C506 -700 512 -679 512 -661C535 -669 553 -671 579 -673ZM422 -466C412 -499 399 -526 382 -555L323 -535C341 -503 350 -481 361 -444ZM191 -517L134 -536C121 -502 108 -477 82 -431L139 -410C163 -453 176 -479 191 -517ZM290 -449C289 -484 288 -506 285 -540L223 -538C226 -510 226 -487 223 -446ZM251 -676C196 -636 144 -617 89 -611C98 -595 104 -567 105 -544C134 -555 155 -559 220 -567L401 -590C406 -577 412 -562 417 -547L478 -575C453 -618 435 -646 410 -680L360 -655C367 -646 374 -637 380 -628L265 -627C405 -719 421 -728 442 -729C454 -729 456 -739 445 -744C422 -753 398 -770 381 -786C357 -762 333 -741 310 -721L197 -724C224 -741 247 -757 264 -771C279 -783 290 -787 302 -789C313 -792 313 -800 298 -804C276 -810 255 -821 234 -838C218 -811 189 -778 161 -756C137 -737 116 -729 85 -726C94 -706 101 -672 100 -651C127 -657 160 -666 186 -669ZM920 -491C875 -522 834 -546 793 -566L748 -516C799 -489 833 -469 879 -433ZM418 -423H334C292 -423 247 -424 205 -426C207 -408 208 -386 208 -362V-154C208 -128 207 -108 205 -91C241 -94 296 -95 379 -95H802C801 -76 794 -49 783 -21C775 1 753 10 698 7L732 -5C714 -42 704 -61 685 -90L620 -74C640 -44 654 -17 666 18L688 10C697 36 701 53 699 81C801 72 824 55 838 23C845 6 855 -30 863 -70C870 -105 877 -128 886 -147C836 -143 781 -141 647 -141H277V-166H684C768 -166 849 -164 922 -162V-209C849 -206 768 -205 684 -205H277V-233H651C693 -233 737 -232 779 -230C775 -247 773 -269 773 -294V-362C773 -386 775 -408 779 -426C737 -424 693 -423 651 -423H489C500 -445 506 -454 517 -464C528 -457 535 -449 548 -434C591 -471 626 -507 645 -513C662 -518 662 -522 649 -526C634 -532 619 -546 604 -566C588 -548 547 -509 515 -483C481 -488 465 -492 433 -501C432 -473 428 -452 418 -423Z"/>
</svg>