<svg xmlns="http://www.w3.org/2000/svg" viewBox="0 -1000 1000 1000">
	<path fill="#000000" d="M726 -271H250V-294H726ZM726 -338H250V-364H726ZM565 -537H770V-486H565ZM183 -756H366V-699H183ZM228 -61L157 -91C133 -52 105 -23 62 9L126 52C157 22 192 -16 228 -61ZM393 20C384 -12 372 -43 355 -81L283 -72C302 -36 309 -8 313 31ZM557 8C547 -23 533 -55 517 -84L445 -73C462 -42 473 -13 480 25ZM665 -633C707 -614 759 -597 824 -582H536C579 -595 623 -612 665 -633ZM598 -789C610 -799 621 -807 625 -808C640 -813 641 -820 621 -821C601 -822 573 -828 545 -838C525 -789 493 -758 430 -701C452 -696 472 -685 483 -672C499 -688 516 -706 533 -725C552 -704 575 -684 604 -665C542 -642 474 -624 416 -616C434 -598 441 -586 449 -559C465 -562 481 -566 498 -571V-495C498 -472 497 -454 495 -435C536 -438 591 -440 669 -440C750 -440 797 -438 839 -434C838 -451 837 -468 837 -492V-579C862 -573 889 -568 918 -563C920 -595 928 -611 947 -635C863 -634 789 -645 725 -665C783 -699 839 -741 892 -793C868 -790 833 -789 794 -789ZM661 -690C629 -705 600 -724 576 -744H750C728 -725 697 -707 661 -690ZM240 -503L177 -497V-586C177 -600 179 -604 184 -608C194 -615 193 -621 180 -620C161 -618 135 -618 109 -621C113 -604 114 -588 114 -551V-492C89 -490 67 -489 48 -488C56 -466 61 -440 62 -413C142 -437 249 -456 449 -473C444 -485 443 -505 448 -522L303 -509V-557H356C380 -557 401 -556 417 -553V-608C402 -605 381 -604 358 -604H303V-652C361 -651 398 -649 431 -646C429 -665 428 -702 428 -730C428 -760 429 -791 431 -809C392 -805 346 -803 273 -803C200 -803 152 -805 114 -809C116 -791 117 -759 117 -729C117 -701 116 -663 114 -646C146 -649 186 -651 240 -652ZM250 -208V-230H672C713 -230 759 -229 799 -226C795 -240 793 -263 793 -284V-357C793 -380 795 -400 799 -416C760 -413 713 -412 672 -412H456C464 -428 472 -439 477 -442C488 -448 487 -454 473 -453C453 -452 425 -454 389 -460C386 -446 381 -428 375 -412H311C271 -412 216 -413 176 -416C179 -400 180 -379 180 -357V-148C180 -126 179 -108 176 -93C211 -96 274 -98 357 -98H812C810 -70 804 -47 796 -28C784 1 774 7 701 -3C694 -30 686 -51 669 -86L593 -69C615 -33 623 -13 630 22L699 7C727 33 728 52 724 75C797 70 825 58 843 34C862 8 874 -41 879 -100C881 -122 884 -137 890 -149C841 -146 816 -145 746 -145H250V-167H707C790 -167 834 -166 888 -160V-215C834 -209 790 -208 707 -208Z"/>
</svg>