<svg xmlns="http://www.w3.org/2000/svg" viewBox="0 -1000 1000 1000">
	<path fill="#000000" d="M277 -455C269 -487 262 -504 252 -527L202 -518C217 -490 223 -471 231 -439ZM310 -383C332 -433 346 -460 351 -463C362 -470 361 -475 347 -480C331 -486 318 -493 297 -505C291 -469 276 -422 256 -372C231 -415 208 -454 187 -484L143 -460C172 -417 198 -379 232 -318C227 -307 221 -296 215 -285C207 -316 197 -344 184 -374L136 -360C154 -322 161 -297 164 -261L212 -278C188 -233 160 -188 129 -148V-539H371V-291C363 -326 355 -351 341 -386ZM232 -207C242 -227 252 -246 261 -264C286 -214 314 -149 325 -115L371 -136V-89H129V-141C148 -134 163 -123 174 -108C187 -128 203 -155 219 -184C230 -158 236 -130 238 -102L291 -114C282 -153 274 -180 263 -211ZM371 -282V-149C352 -192 332 -232 285 -320C290 -334 296 -348 301 -360C313 -331 323 -298 324 -275ZM666 -188H617V-337H666ZM717 -123C683 -82 640 -43 585 -4C618 5 631 13 655 39C711 -13 753 -60 788 -113C815 -31 833 2 855 32C878 64 912 66 930 34C944 9 953 -20 963 -72C935 -80 915 -97 898 -126C895 -42 883 -39 869 -76C854 -116 841 -153 831 -188C866 -262 886 -318 915 -460C920 -486 925 -496 935 -501C949 -509 949 -515 935 -518C908 -524 876 -535 856 -546C849 -450 830 -358 808 -289C797 -354 792 -423 790 -513C789 -541 789 -572 788 -603C852 -603 894 -600 919 -596V-671C895 -667 852 -665 788 -665C788 -704 788 -734 788 -744C788 -782 790 -803 796 -807C814 -819 812 -826 793 -825C768 -824 749 -825 708 -832C715 -800 721 -745 724 -665H625C546 -665 502 -667 475 -671C477 -645 477 -628 479 -504C483 -171 479 -98 437 -19C434 -51 433 -87 433 -118V-522C433 -550 435 -582 437 -602C406 -598 353 -596 261 -596V-660H341C382 -660 411 -658 437 -655V-728C411 -725 382 -723 342 -723H261V-774C261 -789 265 -800 273 -804C284 -810 283 -817 266 -817C236 -817 217 -819 187 -824C191 -799 193 -759 193 -706V-596C128 -597 86 -599 61 -602C63 -582 65 -549 65 -522V-72C65 -41 62 2 59 34H129V-31H371V-12H433C425 3 416 18 405 35C434 47 445 56 465 81C541 -57 546 -96 541 -603H725C731 -410 748 -276 766 -192C753 -169 737 -147 720 -126C719 -160 718 -215 718 -263C718 -311 719 -362 720 -395C701 -391 682 -390 643 -390C604 -390 585 -391 564 -395C565 -362 565 -311 565 -263C565 -213 565 -161 564 -127C584 -129 604 -130 643 -130C680 -130 698 -128 717 -123ZM704 -456V-523C690 -521 655 -520 628 -520C601 -520 579 -521 561 -523V-456C579 -458 604 -459 631 -459C659 -459 690 -458 704 -456ZM912 -697C892 -738 876 -764 851 -799L798 -765C823 -732 840 -700 850 -669Z"/>
</svg>