<svg xmlns="http://www.w3.org/2000/svg" viewBox="0 -1000 1000 1000">
	<path fill="#000000" d="M807 -239C787 -244 765 -255 741 -270C722 -251 685 -229 638 -209C666 -203 682 -193 699 -170C743 -196 774 -213 800 -220C816 -225 820 -236 807 -239ZM512 -110H524V-52C524 14 522 42 517 75H594C590 44 587 0 587 -53V-110H595C639 -34 732 16 886 52C894 17 906 -2 929 -28C778 -42 689 -69 648 -110C766 -110 890 -106 919 -102V-172C889 -167 833 -164 587 -164V-208C587 -225 589 -234 594 -240C605 -253 603 -261 591 -260C573 -259 538 -262 517 -268C522 -244 524 -219 524 -164H397L466 -203C442 -221 405 -248 374 -266L318 -226C351 -206 373 -187 391 -164C284 -165 253 -167 226 -172V-102C251 -106 308 -109 451 -110C403 -70 307 -23 204 2C231 17 248 37 254 62C380 17 455 -37 512 -110ZM659 -538V-588H802V-538ZM443 -588H598V-538H443ZM212 -588H382V-538H212ZM382 -694V-639H212V-694ZM598 -694V-639H443V-694ZM594 -754C594 -782 590 -801 583 -827L487 -812C497 -792 501 -775 503 -754C219 -754 174 -756 138 -761C145 -297 132 -117 48 -12C77 0 98 16 123 47C194 -96 211 -194 212 -485H290V-357C290 -337 283 -326 252 -312C265 -296 273 -278 278 -255C306 -265 348 -275 384 -279L527 -293C525 -319 526 -339 533 -356C487 -343 429 -336 351 -331V-390C486 -390 509 -389 532 -384V-445C514 -440 491 -439 351 -439V-485H582V-341C582 -285 585 -278 669 -274C695 -273 779 -274 820 -276C891 -279 902 -288 928 -364C901 -364 880 -374 859 -396C850 -342 844 -337 790 -333C769 -331 722 -330 699 -331C645 -334 641 -339 641 -387C694 -389 754 -394 829 -403C853 -406 867 -406 874 -405C895 -401 899 -412 887 -422C870 -436 858 -451 851 -469C798 -450 740 -440 641 -430V-485C739 -485 838 -482 873 -479C868 -497 867 -517 867 -562C867 -607 868 -624 873 -645C841 -641 786 -639 659 -639V-694C766 -694 882 -691 918 -687V-761C884 -756 792 -754 594 -754Z"/>
</svg>