<svg xmlns="http://www.w3.org/2000/svg" viewBox="0 -1000 1000 1000">
	<path fill="#000000" d="M935 10C893 -43 862 -80 804 -147L753 -106C807 -51 843 6 868 58ZM694 -101C705 -104 703 -112 692 -113C668 -116 640 -131 618 -147C579 -58 550 -35 477 18C502 27 526 45 543 64C659 -71 685 -98 694 -101ZM270 -188H295C323 -188 331 -187 339 -186V-248C332 -246 324 -246 295 -246H270V-294C270 -302 273 -311 284 -317C295 -324 289 -332 278 -331C256 -329 235 -330 210 -332C212 -315 213 -284 213 -236V-89C213 -40 209 -31 181 -18C196 1 210 23 220 42C232 33 249 17 267 3L338 -52C329 -70 321 -90 314 -108C292 -84 282 -77 270 -72ZM586 -691C567 -692 551 -694 528 -698V-630C551 -633 567 -634 586 -635V-221C561 -222 538 -223 513 -226V-156C549 -160 586 -162 731 -162C877 -162 905 -161 941 -156V-226C916 -223 891 -222 866 -221V-635C889 -634 911 -632 931 -630V-696C911 -694 889 -692 866 -691V-761C866 -775 869 -783 884 -793C893 -800 890 -806 876 -807C850 -808 825 -811 791 -818C794 -803 797 -761 797 -690H649V-762C649 -779 653 -785 669 -793C680 -799 677 -810 654 -810C628 -810 607 -812 579 -817C583 -788 586 -733 586 -691ZM649 -332H797V-221H649ZM649 -533V-636H797V-533ZM797 -476V-387H649V-476ZM416 -195H452C480 -195 488 -194 496 -193V-253C489 -251 481 -251 452 -251H416V-297C416 -305 424 -315 435 -321C447 -328 442 -338 426 -336C403 -334 384 -334 358 -337C360 -319 361 -286 361 -236V-75C361 -28 358 -22 342 -16C355 5 362 19 372 40C384 26 396 17 424 1L528 -58C519 -77 510 -103 507 -123C469 -87 445 -73 416 -65ZM404 -405V-506H463V-405ZM291 -405V-506H353V-405ZM166 -506H240V-405H166ZM359 -723C348 -764 338 -794 329 -820L245 -807C263 -784 278 -752 288 -723C150 -723 128 -724 103 -727C110 -204 106 -141 46 -21C63 -7 79 11 103 42C140 -59 159 -137 164 -352H378C453 -352 494 -349 520 -347C518 -371 519 -538 520 -562C499 -559 458 -558 404 -557V-624C404 -631 405 -635 411 -639C419 -642 417 -645 405 -645C386 -643 368 -645 347 -647C350 -634 353 -612 353 -595V-557H291V-622C291 -629 292 -633 298 -637C306 -640 304 -643 292 -643C273 -641 255 -643 234 -645C237 -632 240 -610 240 -593V-557H166V-666H358C427 -666 479 -663 506 -660V-729C486 -726 447 -724 359 -723Z"/>
</svg>