<svg xmlns="http://www.w3.org/2000/svg" viewBox="0 -1000 1000 1000">
	<path fill="#000000" d="M686 -351H747V-241H686ZM686 -63V-185H747V-63ZM862 -63H805V-517H862ZM575 -2H862V73H932C930 36 929 2 929 -37V-520C929 -546 930 -562 932 -580C910 -577 869 -576 702 -576C711 -608 722 -657 730 -693C843 -693 905 -690 951 -684V-758C905 -752 835 -749 706 -749C603 -749 538 -751 489 -758V-684C527 -690 579 -693 651 -693C649 -663 643 -614 636 -576C547 -577 521 -578 504 -580C506 -561 507 -547 507 -520V-390C470 -423 398 -478 366 -495L321 -455C392 -405 425 -376 464 -333L507 -371V-32C507 7 506 41 503 78H575ZM629 -517V-63H575V-517ZM747 -517V-409H686V-517ZM251 -657V-548C233 -562 212 -576 190 -590C201 -604 210 -613 218 -617C227 -622 230 -626 217 -630C195 -637 182 -647 166 -657ZM315 -714V-769C315 -783 317 -795 333 -805C350 -816 346 -821 326 -821C297 -821 271 -825 241 -832C245 -813 250 -766 251 -714C125 -714 103 -716 79 -721V-649C101 -654 122 -657 148 -657C115 -573 95 -538 51 -487C80 -484 90 -477 115 -458C131 -490 145 -516 157 -538C183 -525 204 -506 217 -487L251 -529V-505C191 -429 131 -385 47 -339C74 -326 89 -308 104 -283C173 -338 217 -379 251 -420V-375C246 -377 243 -379 243 -379C209 -302 149 -222 77 -163C106 -157 122 -148 145 -128C172 -161 209 -207 236 -243H370C360 -218 343 -185 326 -158C308 -172 289 -187 269 -203L219 -160C240 -145 263 -127 286 -107C226 -46 149 -7 65 11C95 27 112 48 126 78C219 32 274 -1 333 -65C361 -37 384 -10 397 8L464 -43C438 -65 409 -90 376 -117C422 -181 446 -242 466 -304C442 -301 409 -299 365 -299H276C293 -324 300 -332 308 -335C322 -341 322 -346 308 -351C298 -354 279 -362 264 -369H315V-523C338 -518 349 -513 371 -500C382 -516 391 -529 399 -541C423 -524 444 -502 459 -478L500 -522C482 -541 453 -567 429 -585C444 -606 449 -610 454 -612C470 -617 469 -621 456 -626C442 -631 422 -643 401 -657C430 -657 454 -654 476 -649V-721C456 -717 432 -715 315 -714ZM391 -657C374 -606 357 -574 315 -526V-657Z"/>
</svg>