<svg xmlns="http://www.w3.org/2000/svg" viewBox="0 -1000 1000 1000">
	<path fill="#000000" d="M391 -157C372 -178 333 -234 324 -253L248 -215C267 -195 305 -142 315 -115ZM460 -498C431 -524 414 -543 393 -568L347 -537C371 -510 389 -486 406 -457ZM612 -715C647 -775 662 -792 674 -796C689 -801 689 -810 671 -812C642 -816 611 -824 582 -834C562 -756 522 -681 482 -629C506 -621 524 -613 541 -603C558 -626 569 -642 579 -657H658C634 -586 607 -550 545 -496C572 -486 596 -472 616 -455C675 -523 705 -572 737 -657H826L808 -520C802 -478 782 -468 702 -474C720 -438 727 -420 732 -392C863 -408 875 -420 885 -501L914 -724C876 -718 827 -715 774 -715ZM336 -653V-731C419 -740 449 -742 465 -737C481 -733 486 -739 470 -753C461 -761 448 -787 440 -815C416 -806 379 -796 293 -782C226 -771 161 -767 105 -767C118 -744 125 -729 129 -710C165 -713 194 -715 271 -724V-653C187 -653 118 -656 71 -662V-588C114 -593 164 -596 239 -597C180 -518 126 -474 43 -426C67 -407 84 -392 103 -370C164 -423 216 -476 271 -554V-491C271 -454 270 -423 266 -379H339C336 -421 336 -454 336 -491V-596C390 -595 432 -592 465 -588V-662C429 -657 392 -655 336 -653ZM501 -386C617 -302 741 -248 913 -209C925 -243 938 -266 960 -297C782 -313 682 -346 555 -422C559 -423 564 -424 569 -425C583 -427 580 -437 566 -442C540 -452 512 -465 492 -481C460 -441 406 -393 326 -345C259 -305 149 -266 40 -249C64 -227 81 -206 97 -178C231 -217 382 -288 501 -386ZM595 -154C578 -161 560 -169 540 -178V-242C540 -256 543 -264 550 -270C566 -283 564 -290 542 -291C519 -292 490 -295 464 -301C467 -279 469 -236 469 -179C382 -134 261 -84 142 -53C160 -32 174 3 181 26C326 -42 389 -74 469 -113V-31C469 2 458 9 365 2C387 32 394 53 400 86C526 72 540 64 540 15V-119C636 -66 710 -21 795 38L845 -33C760 -75 707 -101 647 -129C704 -172 740 -197 753 -200C768 -203 766 -209 757 -212C740 -218 709 -237 683 -258C662 -224 630 -187 595 -154Z"/>
</svg>