<svg xmlns="http://www.w3.org/2000/svg" viewBox="0 -1000 1000 1000">
	<path fill="#000000" d="M406 -631C394 -659 387 -679 380 -706L296 -684C312 -655 318 -639 323 -607ZM707 -690L619 -711C610 -676 601 -654 584 -628L662 -608C677 -648 688 -668 707 -690ZM248 -279L180 -303C157 -263 127 -228 88 -204L157 -163C191 -199 225 -245 248 -279ZM433 -217C419 -247 414 -263 406 -292L326 -276C339 -248 344 -229 346 -196ZM880 -225C864 -250 832 -293 810 -314L746 -282C771 -257 797 -214 808 -184ZM664 -233C648 -257 625 -293 615 -312L545 -279C567 -254 582 -228 591 -200ZM544 -90C675 -90 767 -88 841 -84V-151C767 -147 675 -145 544 -145V-170C544 -187 549 -194 563 -202C576 -210 573 -217 556 -217C525 -217 500 -219 465 -223C468 -204 470 -184 471 -145C344 -145 255 -147 181 -151V-84C254 -88 344 -90 471 -90V-22C305 -22 187 -24 92 -28V43C192 39 321 36 504 36C686 36 816 38 916 42V-28C823 -24 705 -22 544 -22ZM534 -730H769V-590H534ZM466 -590H239V-730H466ZM534 -429C671 -429 767 -427 844 -423V-483C767 -479 671 -477 534 -477V-538C679 -538 767 -536 845 -532C840 -565 838 -602 838 -663C838 -714 840 -761 845 -793C762 -789 667 -787 505 -787C343 -787 248 -789 165 -793C170 -761 172 -714 172 -663C172 -611 170 -565 165 -532C241 -536 327 -538 466 -538V-477C337 -477 247 -479 171 -483V-423C246 -427 337 -429 466 -429V-374C298 -374 180 -376 84 -380V-314C186 -318 315 -321 502 -321C688 -321 818 -319 920 -315V-380C824 -376 703 -374 534 -374Z"/>
</svg>