<svg xmlns="http://www.w3.org/2000/svg" viewBox="0 -1000 1000 1000">
	<path fill="#000000" d="M370 -82H171V-112H370ZM370 -152H171V-183H370ZM580 -183H764V-152H580ZM580 -112H764V-82H580ZM511 -337V0C444 -6 440 -23 440 -73V-337ZM580 -301V-337H754V-301ZM370 -337V-301H207V-337ZM780 -662C766 -596 751 -559 726 -531C684 -564 667 -584 650 -621L619 -608C628 -625 636 -642 645 -662ZM290 -725V-690C231 -691 185 -693 143 -698V-640C184 -643 231 -643 290 -643V-606C174 -606 129 -607 74 -613V-553C123 -556 160 -557 208 -557C200 -527 190 -506 176 -488C155 -461 120 -440 36 -412C62 -391 75 -372 84 -351C102 -358 120 -368 137 -379C140 -355 142 -339 142 -319C142 -298 140 -282 137 -256C153 -257 195 -259 256 -259H370V-227H210C189 -227 128 -232 104 -235C106 -209 106 -196 106 -162V-106C106 -71 106 -55 104 -34C128 -36 152 -37 175 -37H370C374 26 402 54 495 55C566 56 795 56 838 54C895 53 927 36 963 -48C933 -57 906 -72 878 -96C879 -35 868 -4 802 -1C734 4 651 5 580 3V-37H762C784 -37 808 -36 833 -34C831 -55 831 -71 831 -106V-162C831 -196 831 -209 833 -235C808 -232 784 -231 762 -231H580V-259H704C765 -259 804 -258 823 -256C819 -282 818 -297 818 -318C818 -339 819 -356 823 -382C719 -379 680 -378 482 -378C289 -378 241 -379 142 -382C180 -406 214 -438 239 -475H417L408 -444C405 -436 376 -432 314 -438C332 -421 339 -402 340 -386C404 -387 466 -403 470 -420L494 -525C449 -522 387 -520 264 -520C269 -531 273 -544 277 -557C427 -559 475 -558 537 -553V-572C551 -563 567 -553 579 -539C589 -554 597 -568 606 -583C626 -547 649 -520 679 -493C633 -466 566 -456 502 -452C524 -433 535 -411 540 -387C626 -401 693 -427 730 -452C777 -422 841 -393 897 -379C903 -404 920 -436 949 -459C886 -458 825 -474 778 -497C806 -531 824 -570 850 -661C876 -660 897 -658 913 -656V-727C889 -722 852 -719 805 -719H673C691 -754 708 -781 715 -785C733 -796 734 -803 722 -805C699 -808 660 -817 637 -825C613 -741 579 -661 537 -601V-613C493 -609 445 -607 360 -606V-643C417 -644 463 -643 500 -640V-698C464 -692 416 -690 360 -690V-725C441 -725 492 -724 541 -720V-786C493 -782 442 -779 360 -779C360 -793 361 -798 371 -810C386 -827 383 -832 364 -829C349 -827 329 -827 284 -832C286 -821 288 -800 289 -779C207 -780 157 -782 107 -786V-720C157 -724 207 -725 290 -725Z"/>
</svg>