<svg xmlns="http://www.w3.org/2000/svg" viewBox="0 -1000 1000 1000">
	<path fill="#000000" d="M571 -755C562 -781 549 -813 532 -845L432 -823C449 -797 462 -765 470 -731ZM717 -110H303C308 -134 310 -156 311 -183H717ZM472 -527C465 -528 458 -529 451 -530C457 -520 458 -505 458 -453V-367C458 -342 455 -311 449 -280H536C534 -311 533 -344 533 -369V-482C533 -508 536 -514 541 -522C606 -586 618 -595 636 -606C657 -619 655 -624 633 -636C621 -642 603 -654 586 -665C727 -665 827 -662 920 -656V-736C817 -729 693 -726 501 -726C309 -726 185 -729 81 -736V-656C182 -663 283 -665 416 -665H568C548 -621 505 -560 472 -527ZM730 -526C750 -417 790 -353 889 -288C912 -319 932 -339 960 -354C853 -400 806 -447 790 -537C829 -543 862 -546 877 -547C902 -549 906 -555 891 -570C882 -579 858 -608 845 -625C751 -590 691 -574 598 -561C600 -549 601 -517 601 -486V-404C601 -377 592 -361 574 -349C592 -334 607 -314 622 -287C633 -297 650 -309 675 -323L758 -369C746 -384 737 -408 734 -429C711 -410 693 -399 668 -389V-513C684 -517 708 -522 730 -526ZM403 -571C410 -560 417 -549 423 -537L492 -578C462 -614 437 -641 410 -660L348 -625C364 -614 380 -599 395 -581C365 -579 340 -578 246 -578C160 -578 131 -579 102 -582V-514C129 -516 161 -518 182 -518C180 -476 173 -454 159 -425C141 -388 108 -351 52 -323C81 -311 101 -295 121 -269C197 -332 243 -394 250 -518H324C323 -473 322 -452 319 -415C316 -376 310 -369 246 -374C261 -358 270 -343 277 -314C265 -314 250 -316 228 -318C231 -306 234 -288 236 -254C245 -114 211 -33 88 28C113 36 140 55 161 81C229 33 268 -11 286 -52H717V-41C717 1 716 36 712 79H803C797 34 795 -2 795 -41V-233C795 -271 798 -282 803 -287C818 -300 814 -307 796 -307C770 -307 739 -308 707 -312C712 -304 717 -271 717 -241H312C314 -267 318 -289 323 -297C327 -303 329 -307 329 -310C377 -322 388 -344 390 -388C394 -480 397 -529 403 -571Z"/>
</svg>