<svg xmlns="http://www.w3.org/2000/svg" viewBox="0 -1000 1000 1000">
	<path fill="#000000" d="M515 -846L409 -832C434 -802 450 -772 460 -741L567 -752C547 -787 534 -812 515 -846ZM714 -26C676 -67 650 -97 607 -147L538 -110C578 -76 612 -35 639 15ZM420 -116C404 -122 383 -132 348 -151C327 -103 304 -71 241 -15C286 -3 296 8 311 27C376 -66 403 -95 418 -100C433 -105 432 -111 420 -116ZM250 -266H736V-220H248C250 -239 250 -254 250 -266ZM247 -168H455V-22C455 4 454 19 451 53H531C528 23 528 3 528 -22V-168H736V-86C736 -26 735 20 732 77H821C815 20 813 -26 813 -86V-299C813 -313 816 -322 828 -328C844 -336 841 -345 824 -346C794 -347 761 -351 731 -356C732 -343 734 -330 735 -317H255C257 -325 259 -329 262 -332C275 -343 272 -347 256 -348C231 -349 205 -352 173 -358C179 -298 179 -209 174 -149C168 -83 119 -8 52 26C102 39 122 52 134 74C210 -10 243 -91 247 -168ZM381 -672L336 -640C349 -630 360 -620 371 -610H231C170 -610 122 -612 84 -616V-550C119 -552 161 -554 181 -554C170 -472 127 -414 43 -378C83 -364 102 -347 114 -324C200 -400 241 -484 249 -554H337L327 -453C325 -431 318 -426 246 -427C274 -405 280 -388 287 -349C385 -377 389 -382 392 -429C395 -479 398 -528 400 -578C408 -568 415 -558 420 -548L480 -597C450 -628 434 -644 399 -672H568C525 -608 499 -584 451 -557V-338H518V-532C545 -556 565 -573 580 -585C583 -565 584 -549 584 -532V-449C584 -416 577 -400 552 -383C573 -362 582 -351 600 -325C609 -337 626 -350 640 -357L741 -410C729 -430 727 -441 725 -478C701 -458 678 -444 648 -430V-535C670 -536 696 -539 724 -542C742 -460 806 -366 888 -316C905 -348 913 -360 954 -380C861 -423 818 -465 787 -554C829 -561 873 -564 886 -560C903 -555 907 -564 895 -576C885 -586 855 -623 839 -649C768 -611 680 -592 584 -588C612 -609 623 -613 633 -614C651 -616 652 -624 637 -632C616 -644 598 -657 579 -672C730 -672 841 -669 931 -663V-740C827 -735 691 -732 499 -732C307 -732 171 -735 67 -740V-665C148 -670 249 -672 381 -672Z"/>
</svg>