<svg xmlns="http://www.w3.org/2000/svg" viewBox="0 -1000 1000 1000">
	<path fill="#000000" d="M627 -219V-425H713V-219ZM157 -295V-413C157 -429 159 -439 169 -447C180 -457 178 -464 162 -464C138 -464 118 -466 86 -470C91 -449 93 -424 93 -360V-88C93 -27 89 -3 82 35C112 28 143 23 207 19L431 5V59H502C496 22 494 -13 494 -51V-387C494 -407 498 -416 511 -424C523 -432 520 -439 500 -438C479 -437 459 -438 424 -443C429 -416 431 -383 431 -332C431 -332 431 -318 431 -295ZM431 -242V-54L157 -40V-242H222C207 -173 189 -124 164 -82C188 -75 197 -71 213 -59C226 -91 235 -111 248 -143C262 -132 272 -120 282 -105C276 -92 270 -80 263 -69C283 -66 300 -59 314 -49C328 -81 337 -101 346 -126C363 -110 376 -93 390 -69L429 -98C410 -129 392 -153 365 -179C370 -192 375 -206 380 -210C393 -221 392 -225 377 -226C363 -227 344 -230 323 -236C320 -211 313 -183 303 -155C292 -168 281 -180 267 -193C272 -201 276 -207 280 -210C291 -218 291 -223 277 -226C262 -229 248 -234 231 -242ZM252 -407C266 -396 277 -384 287 -368C281 -354 274 -341 266 -329C287 -326 305 -322 319 -313C333 -341 344 -363 352 -383C369 -368 383 -348 395 -325L428 -363C410 -390 396 -408 370 -434C377 -456 386 -473 394 -479C407 -489 406 -496 391 -498C372 -500 356 -504 332 -512C327 -479 319 -448 308 -418C296 -432 284 -445 270 -458C276 -474 280 -481 286 -485C297 -493 297 -498 283 -501C262 -506 246 -511 227 -521C211 -444 191 -393 166 -350C190 -343 203 -334 215 -324C230 -355 240 -377 252 -407ZM336 -715V-772C336 -789 341 -796 355 -804C368 -812 365 -819 352 -819C322 -819 300 -821 266 -825C270 -800 272 -758 272 -707V-582H199V-723C199 -735 204 -747 215 -756C224 -764 221 -770 206 -770C180 -770 165 -772 128 -777C131 -747 133 -692 133 -659V-582C118 -582 70 -586 49 -589V-516C78 -521 149 -524 274 -524C411 -524 459 -522 486 -517C481 -510 475 -503 470 -496C506 -494 521 -488 547 -467C550 -472 553 -477 556 -482C558 -463 560 -438 560 -409V-177C560 -149 558 -115 553 -75H627V-155H713V-109H786C782 -152 781 -183 781 -211V-409C781 -448 782 -476 785 -496C742 -491 716 -490 674 -490C632 -490 601 -490 563 -495C584 -531 604 -568 621 -603H845L836 -81C836 -20 815 -12 711 -22C744 14 756 45 754 82C891 51 909 31 909 -47L918 -569C918 -604 920 -642 923 -677C891 -673 857 -671 820 -671H652C679 -736 697 -767 712 -775C728 -783 727 -789 705 -794C671 -802 647 -810 616 -823C606 -765 592 -715 569 -658C551 -615 524 -570 488 -520V-589C467 -584 444 -582 336 -582V-655H427C452 -655 471 -654 493 -649V-721C472 -716 454 -715 428 -715Z"/>
</svg>