<svg xmlns="http://www.w3.org/2000/svg" viewBox="0 -1000 1000 1000">
	<path fill="#000000" d="M545 -248V-389C673 -388 763 -385 836 -379V-472C763 -466 673 -463 545 -462V-602C692 -601 796 -598 879 -592V-687C796 -681 692 -676 545 -675V-730C545 -763 555 -801 559 -804C577 -815 577 -824 552 -824C516 -824 487 -826 449 -833C454 -813 459 -751 460 -675C314 -676 210 -680 127 -687V-592C210 -598 314 -601 460 -602V-462C337 -463 250 -466 178 -472V-379C249 -385 336 -388 460 -389V-248C292 -248 181 -252 85 -258V-165C180 -171 292 -175 460 -175C459 -70 455 12 448 64H555C550 13 546 -70 545 -175C713 -175 826 -171 921 -165V-258C826 -252 713 -248 545 -248Z"/>
</svg>