<svg xmlns="http://www.w3.org/2000/svg" viewBox="0 -1000 1000 1000">
	<path fill="#000000" d="M520 -408H454V-448H520ZM566 -371C563 -387 563 -408 563 -432C563 -451 563 -470 566 -485C546 -484 528 -483 489 -483C450 -483 430 -484 410 -485C412 -470 413 -448 413 -432C413 -409 412 -388 410 -371C429 -371 450 -371 489 -371C528 -371 547 -371 566 -371ZM550 -752C536 -785 524 -807 502 -843L422 -817C448 -777 458 -757 471 -722ZM493 -665C689 -665 813 -662 918 -655V-731C813 -724 689 -721 493 -721C298 -721 182 -724 77 -731V-655C182 -662 298 -665 493 -665ZM218 3C177 2 140 0 99 -4V67C158 64 228 63 503 63C779 63 825 63 887 66V-4C842 1 813 3 771 4V-177C771 -203 772 -225 774 -255C720 -252 631 -251 493 -251C346 -251 268 -252 214 -255C217 -225 218 -211 218 -177ZM288 -35H697V3H288ZM697 -120V-81H288V-120ZM288 -164V-205H697V-164ZM570 -508V-558C546 -554 536 -554 488 -554C439 -554 429 -554 405 -558V-508C428 -512 439 -513 488 -513C536 -513 546 -512 570 -508ZM377 -338V-585H600V-338ZM658 -338V-574C658 -595 660 -616 664 -632C620 -629 588 -628 487 -628C392 -628 365 -629 319 -632C322 -618 323 -596 323 -573V-339C280 -339 245 -339 215 -339V-382C249 -383 272 -382 295 -380V-434C272 -431 248 -431 215 -430V-481C250 -481 275 -481 297 -480V-532C273 -529 250 -527 215 -526V-579C257 -593 292 -602 306 -599C320 -596 324 -605 309 -614C294 -623 281 -634 265 -653C222 -630 178 -616 149 -616C156 -587 158 -560 158 -515V-341C121 -342 94 -343 68 -345V-219H139V-287H862V-225H931V-345C907 -343 875 -342 833 -341V-541C833 -570 835 -607 839 -642C817 -638 803 -637 772 -637C745 -637 707 -639 683 -642V-580C706 -585 739 -587 775 -587V-530C732 -530 708 -531 684 -532V-481C708 -482 722 -482 775 -482V-433C740 -433 709 -434 686 -435V-381C709 -384 732 -385 775 -386V-340C740 -339 702 -338 658 -338Z"/>
</svg>