<svg xmlns="http://www.w3.org/2000/svg" viewBox="0 -1000 1000 1000">
	<path fill="#000000" d="M956 -111C928 -121 898 -140 867 -171C854 -85 833 -49 806 -39C778 -29 651 -25 597 -31C543 -37 533 -62 554 -110C625 -272 739 -375 816 -389V-473C773 -465 708 -459 638 -459C544 -459 510 -461 459 -469V-378C512 -384 552 -386 674 -386C501 -232 427 -70 454 -16C480 36 540 61 809 41C896 35 921 22 956 -111ZM183 -455V-79C183 -13 180 26 172 76H265V-606C317 -729 337 -769 346 -776C369 -793 368 -801 345 -806C299 -816 283 -822 250 -837C239 -779 213 -683 197 -645C155 -545 91 -450 36 -404C60 -379 70 -366 89 -326C119 -362 153 -408 183 -455ZM515 -609H768C824 -609 867 -607 903 -601V-691C870 -686 826 -683 767 -683H550C572 -726 599 -766 614 -778C624 -785 626 -793 610 -797C584 -804 547 -816 510 -834C467 -669 396 -533 307 -444C344 -435 357 -428 382 -397C428 -457 479 -537 515 -609Z"/>
</svg>