<svg xmlns="http://www.w3.org/2000/svg" viewBox="0 -1000 1000 1000">
	<path fill="#000000" d="M184 -446V-135C184 -63 179 23 173 80H262V-593C282 -635 294 -662 317 -724C330 -759 338 -772 348 -780C372 -800 370 -808 346 -812C305 -818 277 -826 247 -839C231 -754 218 -707 200 -656C167 -563 132 -501 48 -391C69 -376 83 -358 99 -312C131 -359 158 -402 184 -446ZM733 -314L672 -262C736 -195 789 -129 844 -44L915 -111C848 -192 798 -248 733 -314ZM517 -402V-93C517 -44 515 8 510 79H605C601 19 598 -44 598 -93V-402C763 -401 880 -396 951 -391V-479C878 -474 794 -472 597 -471V-617C800 -617 849 -614 883 -607V-696C843 -688 793 -685 597 -685V-758C597 -780 605 -812 615 -820C631 -833 629 -838 606 -837C586 -836 540 -838 507 -842C512 -817 516 -762 516 -714V-471C428 -471 376 -473 317 -479V-391C378 -398 432 -401 517 -402Z"/>
</svg>