<svg xmlns="http://www.w3.org/2000/svg" viewBox="0 -1000 1000 1000">
	<path fill="#000000" d="M271 -601C286 -632 301 -663 315 -694C338 -747 356 -771 371 -777C400 -789 396 -800 369 -806C339 -813 315 -823 283 -841C259 -752 237 -698 201 -622C158 -530 105 -455 35 -384C61 -366 80 -344 93 -314C130 -363 164 -412 195 -463V-114C195 -42 190 24 184 81H271ZM400 -356C357 -357 328 -360 308 -364V-281C334 -286 447 -289 584 -290C550 -160 455 -61 296 6C333 28 348 44 368 73C469 9 546 -52 598 -134C619 -167 637 -213 651 -274C693 -104 792 3 924 65C934 31 945 6 973 -28C865 -55 776 -111 702 -290C826 -289 925 -285 963 -281V-364C944 -361 918 -358 887 -357V-587C887 -623 889 -647 893 -665C856 -661 777 -660 687 -660C687 -673 687 -687 687 -701C687 -758 692 -775 709 -794C719 -806 715 -815 702 -815C667 -814 642 -818 602 -828C610 -773 612 -748 612 -706C612 -690 612 -675 612 -660C518 -660 426 -662 393 -665C399 -646 400 -624 400 -587ZM611 -590C609 -508 605 -443 596 -355H473V-590ZM812 -355H666C676 -420 683 -498 685 -590H812Z"/>
</svg>