<svg xmlns="http://www.w3.org/2000/svg" viewBox="0 -1000 1000 1000">
	<path fill="#000000" d="M170 -457V-138C170 -66 165 15 159 72H249V-617C310 -759 319 -778 326 -783C348 -799 344 -808 318 -812C306 -814 266 -829 232 -845C216 -780 197 -714 176 -652C143 -554 102 -493 32 -418C52 -401 76 -368 92 -329C120 -373 146 -415 170 -457ZM782 -17V52H872C865 -16 864 -54 864 -93V-214C864 -253 868 -304 871 -327C800 -321 778 -320 632 -320C512 -320 450 -322 391 -327C395 -303 397 -281 397 -214V-97C397 -33 394 12 387 61H479V-17ZM479 -87V-250H782V-87ZM672 -495V-627C783 -626 868 -623 931 -618V-709C868 -703 798 -700 672 -699V-791C672 -805 675 -810 679 -813C700 -825 696 -834 674 -831C661 -829 613 -832 583 -839C588 -801 590 -767 590 -699C484 -700 403 -703 341 -709V-618C401 -623 484 -626 590 -627V-495C496 -496 432 -499 376 -505V-415C440 -421 517 -424 637 -424C759 -424 844 -421 907 -415V-505C850 -499 775 -496 672 -495Z"/>
</svg>