<svg xmlns="http://www.w3.org/2000/svg" viewBox="0 -1000 1000 1000">
	<path fill="#000000" d="M445 -558H803V-405H445ZM251 -618C263 -644 275 -670 286 -697C308 -750 324 -775 339 -781C368 -794 360 -808 336 -810C305 -813 271 -826 242 -843C221 -752 204 -700 171 -622C144 -557 75 -462 21 -407C48 -394 72 -369 83 -342C111 -376 140 -418 174 -474V-117C174 -45 169 21 163 78H251ZM575 -678C538 -738 509 -782 482 -817L405 -785C438 -746 470 -693 490 -642ZM666 -624C509 -624 411 -626 363 -629C365 -594 366 -534 366 -483C366 -432 365 -370 363 -335C398 -337 440 -338 487 -339C486 -164 446 -84 267 21C313 46 331 62 342 78C494 -33 559 -126 563 -339H668V-43C668 36 671 42 795 42C913 42 931 28 963 -97C934 -104 910 -114 883 -143C862 -35 853 -28 793 -28C752 -28 745 -34 745 -78V-339C803 -339 843 -338 885 -335C883 -371 882 -429 882 -483C882 -537 883 -593 885 -629C854 -626 816 -625 739 -624C809 -741 822 -756 858 -780C873 -790 871 -794 855 -797C829 -802 779 -820 747 -836C728 -759 704 -696 666 -624Z"/>
</svg>