<svg xmlns="http://www.w3.org/2000/svg" viewBox="0 -1000 1000 1000">
	<path fill="#000000" d="M253 -621C318 -728 342 -756 361 -770C387 -788 384 -798 362 -803C332 -811 300 -825 271 -844C238 -761 227 -739 178 -648C129 -558 71 -482 18 -430C45 -410 61 -386 72 -360C111 -403 139 -440 176 -496V-117C176 -45 171 21 165 78H253ZM603 -576C495 -577 417 -581 354 -587V-505C423 -512 516 -514 647 -514C779 -514 870 -512 940 -505V-587C877 -581 796 -577 683 -576V-667C765 -667 863 -663 902 -658V-739C863 -734 765 -730 683 -729V-774C683 -786 690 -802 698 -808C712 -818 710 -825 693 -825C657 -825 629 -827 599 -831C601 -814 602 -779 603 -729C521 -730 424 -734 382 -739V-658C422 -663 520 -667 603 -668ZM552 -267H720C709 -213 694 -169 652 -130C616 -162 585 -206 552 -267ZM928 -375C880 -415 815 -462 753 -502L700 -448C759 -413 841 -347 869 -314ZM514 -450C533 -457 531 -464 508 -470C486 -476 469 -483 442 -499C407 -432 358 -376 305 -332C336 -320 361 -308 380 -297C460 -402 498 -444 514 -450ZM507 -222C536 -165 562 -122 594 -88C499 -34 377 -8 281 -13C308 18 319 45 323 68C434 62 562 22 651 -39C711 1 792 26 920 52C922 18 933 -16 956 -52C846 -54 770 -64 712 -91C763 -148 803 -233 816 -332C801 -330 753 -328 716 -328H587C631 -391 646 -408 656 -411C674 -419 673 -427 650 -431C632 -434 603 -444 572 -459C517 -319 428 -215 321 -165C358 -145 373 -132 390 -115C435 -150 474 -185 507 -222Z"/>
</svg>