<svg xmlns="http://www.w3.org/2000/svg" viewBox="0 -1000 1000 1000">
	<path fill="#000000" d="M344 -212V-131H430C425 -186 424 -219 424 -265V-613C424 -661 426 -720 430 -738C375 -734 315 -733 266 -733C217 -733 169 -734 115 -738C119 -716 122 -661 122 -613V-207C122 -161 121 -137 114 -73H203V-212ZM203 -282V-662H344V-282ZM770 -292L603 -245V-668C603 -677 608 -688 622 -695C638 -703 633 -714 612 -712C583 -709 556 -711 523 -717C526 -697 527 -656 527 -601V-276C527 -242 521 -235 500 -222C516 -193 527 -163 533 -136C554 -149 587 -161 621 -172L770 -219V-103C770 -58 766 29 761 77H863C857 22 853 -58 853 -103V-712C853 -760 856 -780 867 -786C889 -799 883 -806 860 -806C824 -806 800 -807 762 -813C768 -791 770 -732 770 -663Z"/>
</svg>