<svg xmlns="http://www.w3.org/2000/svg" viewBox="0 -1000 1000 1000">
	<path fill="#000000" d="M246 -620C255 -639 263 -656 269 -670C285 -710 319 -764 328 -768C356 -782 356 -793 331 -797C309 -801 266 -819 242 -832C229 -784 197 -702 165 -630C131 -557 81 -479 35 -431C54 -413 73 -386 88 -358C114 -395 138 -433 167 -480V-145C167 -73 162 12 156 68H246ZM663 -349H805V-285H663ZM588 -285H445V-349H588ZM588 -404H445V-468H588ZM663 -468H805V-404H663ZM663 -225C787 -225 858 -223 881 -220C878 -266 877 -320 877 -375C877 -439 878 -495 880 -532C860 -529 794 -525 663 -525V-580C774 -579 887 -576 930 -572V-646C890 -643 755 -640 663 -639V-707C781 -722 835 -724 852 -719C870 -714 875 -723 861 -739C845 -755 828 -777 813 -799C786 -789 697 -775 596 -763C517 -754 427 -750 347 -751C363 -732 373 -710 379 -682C451 -686 530 -693 588 -699V-639C444 -641 361 -643 319 -646V-572C361 -576 493 -579 588 -580V-525C463 -525 394 -527 371 -532C373 -497 374 -439 374 -375C374 -317 373 -260 371 -220C392 -223 462 -225 588 -225V-160C423 -161 377 -164 340 -169V-93C382 -98 462 -101 588 -101V-33C444 -33 333 -36 288 -42V41C337 37 469 34 634 34C797 34 910 37 958 41V-42C913 -37 810 -33 663 -33V-101C795 -101 871 -99 914 -93V-169C875 -163 807 -160 663 -160Z"/>
</svg>