<svg xmlns="http://www.w3.org/2000/svg" viewBox="0 -1000 1000 1000">
	<path fill="#000000" d="M325 -153V-73H409C403 -129 401 -165 401 -212V-631C401 -672 403 -693 408 -710C351 -707 298 -706 247 -706C196 -706 149 -707 89 -710C93 -689 94 -668 94 -631V-168C94 -121 93 -95 87 -29H174V-153ZM174 -224V-632H325V-224ZM544 -209V-29C544 39 562 55 756 55C896 55 924 41 961 -92C935 -99 911 -117 881 -176C854 -34 843 -25 756 -25C646 -25 627 -38 627 -69V-279C689 -339 729 -388 853 -554C874 -582 893 -603 898 -604C916 -606 918 -614 900 -625C872 -642 849 -661 824 -685C759 -565 695 -470 627 -393V-739C627 -758 631 -770 645 -780C666 -795 663 -806 640 -806C596 -806 566 -810 535 -818C541 -790 544 -757 544 -690V-311C503 -276 460 -247 413 -222C446 -200 464 -182 475 -161C501 -178 523 -194 544 -209Z"/>
</svg>