<svg xmlns="http://www.w3.org/2000/svg" viewBox="0 -1000 1000 1000">
	<path fill="#000000" d="M753 -292V-368C753 -381 756 -388 768 -397C778 -406 777 -413 763 -411C743 -408 702 -410 678 -415C682 -392 684 -373 684 -313V-70C646 -93 610 -129 591 -171C593 -181 595 -191 597 -202C613 -288 620 -316 628 -323C637 -331 637 -334 627 -336C596 -342 579 -348 548 -362C542 -193 514 -102 453 1C478 15 495 33 512 67C532 24 558 -45 572 -96C601 -51 650 -8 710 20C746 37 834 50 937 52C937 16 939 0 952 -36C890 -26 820 -27 753 -44V-228H810C848 -228 870 -226 894 -223V-296C869 -293 847 -292 810 -292ZM366 -274V-96C366 -38 364 8 359 64H431V-400C479 -494 491 -505 506 -509C519 -512 519 -525 511 -527C490 -531 454 -547 427 -568C417 -524 405 -483 379 -426C345 -350 290 -270 249 -232C270 -220 287 -205 304 -180C324 -205 345 -237 366 -274ZM163 -449V-143C163 -71 158 14 152 71H234V-591C296 -737 305 -755 318 -767C340 -786 338 -791 318 -795C285 -802 262 -809 236 -822C227 -765 217 -730 170 -618C140 -547 87 -456 35 -397C59 -381 75 -362 87 -337C113 -368 135 -401 163 -449ZM810 -586C834 -546 851 -507 865 -457L941 -487C912 -542 874 -603 833 -659C838 -674 843 -691 848 -708C859 -748 864 -759 873 -766C887 -776 886 -786 873 -786C855 -786 818 -800 795 -812C781 -675 744 -555 681 -465C708 -460 729 -450 749 -435C768 -471 788 -517 810 -586ZM616 -582C629 -561 641 -538 654 -504L719 -548C695 -584 669 -616 636 -655C639 -666 642 -677 645 -689C658 -742 665 -756 674 -765C688 -779 687 -786 675 -786C656 -786 627 -795 597 -811C579 -653 542 -543 491 -452C513 -446 538 -434 558 -421C574 -458 596 -518 616 -582ZM495 -741C510 -750 509 -755 493 -761C473 -769 443 -787 418 -804C405 -763 385 -710 367 -673C341 -621 310 -574 290 -552C313 -540 328 -524 344 -498C369 -533 394 -574 432 -649C467 -718 482 -733 495 -741Z"/>
</svg>