<svg xmlns="http://www.w3.org/2000/svg" viewBox="0 -1000 1000 1000">
	<path fill="#000000" d="M574 -136H702V-68H574ZM247 -637C300 -733 320 -759 338 -774C362 -793 360 -803 337 -807C306 -812 283 -822 253 -840C224 -755 200 -699 171 -639C127 -547 72 -468 22 -413C45 -395 60 -377 71 -349C107 -396 140 -445 173 -502V-125C173 -53 168 13 162 70H247ZM513 -171C514 -151 514 -126 514 -103C514 -72 514 -37 512 -15C538 -16 585 -16 638 -16C691 -16 736 -16 762 -14C761 -28 760 -71 760 -103C760 -132 761 -164 762 -186C771 -177 780 -167 790 -156L832 -203C793 -236 755 -266 716 -296L676 -256C709 -234 733 -216 758 -189C732 -187 689 -187 638 -187C595 -187 556 -187 529 -188C577 -234 588 -244 602 -249C618 -255 618 -263 607 -267C586 -274 560 -290 547 -304C519 -254 482 -214 435 -176C455 -169 471 -158 483 -139C494 -151 504 -161 513 -171ZM721 -609L892 -787C834 -784 804 -784 636 -783C526 -782 440 -784 372 -787V-718C419 -722 504 -724 562 -724H749L665 -631C622 -663 573 -693 532 -717L473 -670C522 -654 560 -635 596 -609C451 -609 376 -611 312 -616V-541C377 -546 466 -550 553 -551C474 -487 353 -431 257 -408C275 -393 291 -364 297 -340C318 -349 337 -358 356 -367C358 -343 360 -294 360 -247V-76C360 -29 356 22 350 74H433V-310H838V-28C838 2 829 6 752 -6C769 24 775 53 778 82C902 58 914 49 914 -17V-248C914 -306 917 -355 919 -375C888 -371 835 -368 645 -368C471 -368 403 -370 368 -373C486 -430 563 -486 621 -551H647V-475C647 -448 633 -439 570 -454C587 -433 597 -406 598 -378C689 -379 719 -408 719 -443V-551H845L807 -474L888 -453L944 -616C888 -612 832 -610 721 -609Z"/>
</svg>