<svg xmlns="http://www.w3.org/2000/svg" viewBox="0 -1000 1000 1000">
	<path fill="#000000" d="M509 -634H414V-716H509ZM605 -508C579 -517 559 -528 548 -547C536 -496 530 -492 483 -492C422 -492 414 -496 414 -523V-582H511C538 -582 561 -580 578 -576C574 -606 572 -643 572 -679C572 -712 574 -745 578 -775C555 -770 523 -768 460 -768C392 -768 371 -770 342 -775C345 -754 347 -731 347 -710V-528C347 -442 352 -436 472 -436C562 -436 574 -443 605 -508ZM812 -639H707V-723H812ZM929 -517C904 -524 881 -538 863 -556C854 -499 841 -494 781 -494C726 -494 707 -505 707 -524V-584H816C843 -584 866 -582 884 -579C880 -612 877 -648 877 -683C877 -717 879 -751 884 -780C863 -775 831 -773 761 -773C699 -773 668 -774 636 -780C640 -757 641 -738 641 -708V-528C641 -450 653 -434 787 -434C885 -434 900 -449 929 -517ZM252 -626C259 -640 273 -673 279 -690C300 -745 315 -769 327 -774C354 -787 348 -801 324 -802C294 -804 268 -811 239 -827C218 -739 202 -689 169 -613C129 -522 78 -446 28 -391C55 -378 77 -359 88 -333C115 -369 146 -419 178 -476V-120C178 -50 173 14 167 69H252ZM560 -72C541 -80 514 -97 493 -115C431 -58 354 -12 280 14C301 28 323 51 339 73C388 49 441 18 476 -7C531 -45 546 -52 558 -53C576 -55 577 -63 560 -72ZM898 1C825 -51 774 -82 708 -122L651 -76C717 -32 772 11 829 64ZM749 -203V-281C793 -281 849 -278 890 -274V-345C849 -341 796 -338 749 -338V-355C749 -377 752 -386 767 -398C778 -407 778 -413 760 -413C739 -413 700 -415 672 -419C675 -400 677 -371 678 -338H547V-354C547 -375 552 -386 565 -397C576 -407 576 -413 558 -413C542 -412 497 -413 468 -418C471 -399 474 -371 474 -338C441 -338 382 -342 352 -345V-274C387 -278 433 -280 475 -281V-203C414 -203 333 -206 286 -211V-135C338 -140 435 -142 497 -142H733C794 -142 892 -140 944 -135V-211C897 -205 815 -203 749 -203ZM547 -203V-281H678V-203Z"/>
</svg>