<svg xmlns="http://www.w3.org/2000/svg" viewBox="0 -1000 1000 1000">
	<path fill="#000000" d="M410 -734H831V-674H410ZM903 -615C903 -674 900 -739 903 -795C872 -790 836 -788 625 -788C398 -788 367 -789 337 -795C341 -631 339 -465 333 -389C315 -160 293 -94 235 -4C262 7 292 24 310 43C382 -116 410 -299 410 -620H751C845 -620 872 -619 903 -615ZM151 -471V-179C151 -107 146 -21 140 36H225V-632C275 -761 283 -774 297 -783C321 -799 316 -810 295 -813C262 -819 238 -825 211 -837C205 -787 198 -763 150 -636C123 -565 82 -495 25 -426C51 -411 68 -393 81 -366C107 -400 130 -435 151 -471ZM840 -153V-179C898 -237 909 -245 927 -248V-308C909 -304 878 -302 814 -302C745 -302 711 -303 688 -306V-247C710 -249 730 -250 758 -250H838L776 -191V-153C722 -154 684 -157 654 -160V-102C685 -104 722 -105 776 -106V-46C776 -22 764 -4 686 -12C702 15 713 38 720 65C837 43 840 38 840 -10V-106C889 -105 909 -104 937 -101V-160C906 -156 883 -154 840 -153ZM556 -155V-179C603 -231 624 -246 637 -248V-302C617 -298 597 -296 535 -296C472 -296 455 -297 436 -300V-242C451 -244 479 -245 506 -245H551L496 -193V-146C463 -141 429 -137 388 -134C396 -108 400 -91 404 -64C435 -74 467 -84 496 -91V-37C496 -9 488 3 419 0C431 24 435 38 436 64C549 54 556 45 556 -2V-104C581 -109 606 -113 632 -117C630 -134 632 -153 636 -171C610 -164 582 -159 556 -155ZM704 -459V-461C801 -513 816 -518 843 -525V-589C814 -585 784 -583 685 -583C589 -583 545 -585 516 -587V-521C547 -526 591 -529 623 -529H751L648 -480V-459C554 -460 497 -462 445 -465V-405C497 -407 554 -408 648 -408V-401C648 -368 636 -356 571 -364C586 -347 591 -331 594 -311C670 -314 704 -335 704 -377V-408C785 -408 863 -407 924 -404V-465C866 -462 786 -459 704 -459Z"/>
</svg>