<svg xmlns="http://www.w3.org/2000/svg" viewBox="0 -1000 1000 1000">
	<path fill="#000000" d="M515 -488H355V-552H515ZM515 -610H355V-674H515ZM412 -352C343 -352 294 -354 253 -360V-294C282 -298 315 -300 357 -301C355 -157 311 -78 219 -15V-623C272 -749 281 -764 293 -775C315 -795 313 -801 292 -805C259 -812 240 -819 213 -832C204 -775 194 -740 147 -627C117 -556 89 -506 39 -438C64 -422 77 -401 89 -373C112 -406 131 -439 149 -472V-167C149 -95 144 -9 138 48H219V-8C242 1 261 16 276 36C334 -12 385 -96 406 -176H506C505 -81 497 -66 422 -68C437 -43 448 -14 450 15C562 -16 571 -36 575 -235C551 -231 498 -231 417 -231C422 -256 425 -281 426 -302C513 -302 563 -300 608 -294V-360C576 -356 538 -353 488 -352C480 -373 473 -396 470 -411L391 -404C398 -388 406 -370 412 -352ZM760 -225C721 -312 712 -381 711 -443L646 -427C650 -335 672 -247 719 -155C655 -72 599 -18 530 19C561 33 590 53 606 71C649 39 720 -37 758 -86C789 -45 846 16 896 57C910 32 932 7 960 -14C903 -36 839 -91 799 -151C853 -251 878 -375 890 -572C910 -572 925 -571 940 -569V-656C910 -649 878 -646 734 -645C767 -759 778 -779 784 -783C805 -794 800 -804 785 -805C761 -806 720 -811 688 -819C684 -690 637 -545 578 -451C577 -472 577 -500 577 -531V-631C577 -675 579 -714 582 -734C565 -730 517 -726 446 -726C462 -781 471 -802 476 -805C487 -811 486 -823 474 -823C453 -823 412 -824 386 -828C389 -800 386 -771 379 -727C339 -728 306 -731 290 -734C294 -713 296 -675 296 -631V-531C296 -485 293 -453 289 -426C312 -431 362 -435 436 -435C502 -435 541 -433 564 -429C561 -424 557 -419 554 -415C579 -408 602 -397 619 -382C659 -445 693 -521 712 -573H815C807 -403 787 -298 760 -225Z"/>
</svg>