<svg xmlns="http://www.w3.org/2000/svg" viewBox="0 -1000 1000 1000">
	<path fill="#000000" d="M137 -378V-127C137 -55 132 12 122 68H209V-562C267 -757 274 -773 288 -786C302 -799 300 -802 282 -805C260 -809 237 -816 199 -830C190 -737 176 -676 138 -558C112 -477 78 -415 39 -373C60 -354 75 -333 92 -303C107 -325 123 -351 137 -378ZM768 -245H442C444 -264 450 -277 456 -284C467 -297 464 -304 448 -302C426 -299 389 -300 364 -304C368 -294 370 -276 371 -242C375 -93 348 -32 244 24C267 34 288 51 308 70C372 25 396 -1 421 -58H768C768 -13 766 42 763 64H847C844 42 840 -14 840 -54V-242C840 -291 841 -297 844 -301C854 -315 852 -319 837 -319C809 -318 791 -320 761 -324C765 -306 767 -287 768 -245ZM768 -118H437C438 -136 440 -159 440 -186H768ZM770 -521C791 -422 830 -354 891 -297C909 -328 930 -352 950 -363C884 -395 842 -451 825 -535C869 -546 884 -548 893 -547C910 -546 912 -549 901 -561C890 -573 875 -594 862 -619C795 -577 753 -561 672 -555C674 -542 675 -512 675 -479V-412C675 -388 670 -380 647 -372C661 -348 668 -334 677 -302C698 -317 713 -327 729 -334L799 -365C790 -379 788 -404 790 -425C774 -416 755 -408 737 -401V-512C749 -515 760 -518 770 -521ZM563 -715C418 -715 352 -719 282 -726V-643C347 -651 415 -655 499 -655L458 -629C475 -610 489 -593 504 -572C481 -570 460 -569 384 -569C311 -569 287 -570 264 -573V-512C287 -514 309 -516 335 -516C336 -464 329 -430 317 -400C298 -354 278 -332 232 -305C252 -297 272 -283 285 -260C334 -301 369 -350 379 -382C394 -432 400 -459 400 -516H450C451 -490 451 -454 450 -414C449 -389 439 -377 383 -380C400 -360 407 -342 414 -308C500 -330 513 -350 513 -415V-526C513 -536 513 -547 514 -556C516 -553 518 -550 520 -547L582 -592C565 -614 543 -638 526 -655H641C619 -618 594 -580 563 -540C559 -541 556 -541 552 -542C555 -532 557 -506 557 -477V-368C557 -343 555 -312 552 -281H627C624 -312 622 -345 622 -370V-497C622 -512 623 -519 626 -523C636 -537 635 -540 626 -539C682 -599 700 -613 706 -615C720 -619 721 -627 705 -633C697 -636 689 -641 671 -655C795 -655 871 -651 943 -643V-726C870 -719 798 -715 599 -715L647 -739C628 -771 603 -804 578 -834L510 -801C529 -778 546 -749 563 -715Z"/>
</svg>