<svg xmlns="http://www.w3.org/2000/svg" viewBox="0 -1000 1000 1000">
	<path fill="#000000" d="M731 -511V-604C676 -596 614 -593 511 -593C408 -593 346 -596 291 -604V-511C346 -518 408 -521 511 -521C614 -521 676 -518 731 -511ZM880 -789C821 -780 737 -778 514 -778C291 -778 209 -782 148 -789C151 -761 152 -660 152 -582V-280C152 -164 147 -52 138 43H233V-696H796V-77C796 -32 786 -28 674 -36C705 -3 719 33 724 72C870 51 876 47 876 -61V-582C876 -668 877 -758 880 -789ZM679 -135C677 -163 676 -221 676 -279C676 -336 677 -395 679 -422C645 -419 576 -418 511 -418C446 -418 375 -419 341 -422C344 -395 345 -336 345 -279C345 -222 344 -165 341 -136C374 -138 446 -138 511 -138C576 -138 646 -137 679 -135ZM598 -209H422V-350H598Z"/>
</svg>