<svg xmlns="http://www.w3.org/2000/svg" viewBox="0 -1000 1000 1000">
	<path fill="#000000" d="M431 -631H813V-589H431ZM162 -475V-149C162 -77 157 9 151 66H235V-622C287 -746 296 -761 308 -772C330 -792 328 -798 307 -802C274 -809 251 -816 224 -829C215 -772 205 -737 158 -624C128 -553 74 -471 22 -413C47 -397 64 -378 76 -351C105 -387 135 -430 162 -475ZM835 -43C822 -62 807 -79 788 -99L732 -68C749 -48 763 -26 772 -9ZM658 -206H822V-153H637C642 -162 654 -194 658 -206ZM567 -153H405V-206H580C578 -188 573 -170 567 -153ZM366 -613V-605C366 -579 365 -556 363 -538C420 -539 532 -540 643 -540V-457C643 -365 649 -357 759 -357C897 -357 915 -365 931 -434C898 -438 883 -442 857 -457C850 -410 845 -408 765 -408C712 -408 706 -411 705 -443C757 -449 803 -458 836 -468C857 -475 864 -475 878 -473C896 -470 899 -480 887 -490C870 -504 856 -517 841 -534C805 -515 769 -504 705 -491V-540C790 -540 835 -539 886 -537C885 -557 884 -582 884 -611C884 -638 885 -664 886 -682C846 -680 816 -679 744 -679L795 -767C763 -765 728 -764 685 -764H505C517 -776 529 -785 540 -788C558 -794 559 -804 543 -809C519 -817 494 -826 467 -840C436 -764 372 -697 281 -641C311 -625 321 -616 341 -590C349 -598 358 -605 366 -613ZM462 -711H693L672 -679H432C443 -690 453 -701 462 -711ZM437 -287H681L663 -254H405C416 -265 427 -276 437 -287ZM503 -373L614 -385C614 -402 616 -419 620 -440C569 -430 477 -422 414 -419V-457H568C582 -457 593 -456 610 -452V-508C592 -505 556 -504 534 -504H415C416 -507 419 -509 425 -512C436 -518 433 -526 421 -526C399 -526 370 -528 348 -531C352 -520 356 -493 356 -460C356 -428 354 -424 325 -413C338 -388 347 -368 354 -346C370 -354 390 -359 425 -364C380 -295 342 -270 251 -227C278 -210 290 -197 303 -168C317 -179 330 -190 343 -200V-179C343 -149 342 -120 339 -101C381 -103 470 -104 539 -104C489 -41 396 -1 266 8C295 33 308 51 316 76C488 35 560 1 614 -104H631V-35C631 46 648 57 791 57C907 57 923 46 959 -28C926 -24 903 -33 880 -53C870 -9 855 0 786 0C707 0 697 -7 697 -37V-104C789 -104 836 -103 893 -100C891 -118 891 -146 891 -178C891 -206 892 -240 893 -259C862 -256 822 -254 741 -254L789 -336C767 -334 721 -332 677 -332H475C485 -345 495 -359 503 -373Z"/>
</svg>