<svg xmlns="http://www.w3.org/2000/svg" viewBox="0 -1000 1000 1000">
	<path fill="#000000" d="M508 -623H409V-723H508ZM673 -623H574V-723H673ZM843 -623H739V-723H843ZM168 -474V-152C168 -80 163 6 157 63H242V-629C292 -746 300 -761 312 -772C334 -792 332 -798 311 -802C278 -809 255 -816 228 -829C219 -772 209 -737 162 -624C132 -553 78 -461 26 -403C51 -387 68 -368 80 -341C110 -378 141 -425 168 -474ZM851 -467C842 -497 831 -524 820 -547L757 -526C769 -504 776 -482 778 -449ZM431 -366C401 -327 378 -299 364 -285C336 -254 325 -247 301 -238C308 -215 316 -185 320 -164C337 -175 358 -182 382 -186L500 -206C504 -190 507 -176 508 -165L574 -188C560 -232 542 -274 522 -311L464 -290C470 -282 477 -268 484 -252L394 -246C454 -311 494 -356 533 -400C546 -415 563 -429 571 -434C586 -440 585 -446 569 -450C553 -454 521 -469 503 -480C496 -462 485 -443 466 -415L370 -406C402 -438 428 -465 460 -502C471 -514 482 -521 490 -523C506 -527 507 -535 488 -540C481 -542 451 -553 429 -563H808C847 -563 881 -562 913 -558C910 -586 909 -627 909 -668C909 -712 910 -757 913 -786C880 -782 846 -781 624 -781C392 -781 365 -782 336 -786C339 -756 340 -715 340 -672C340 -634 339 -594 336 -558C356 -560 394 -562 413 -563C391 -516 366 -475 348 -455C328 -431 318 -426 296 -421C302 -403 310 -367 311 -343C323 -348 346 -353 361 -355ZM371 -129L313 -137C307 -91 287 -32 263 21L338 31C354 -19 366 -82 371 -129ZM482 -1C477 -44 466 -105 455 -144L401 -138C409 -92 414 -39 416 8ZM584 -28C574 -76 560 -117 543 -155L488 -142C502 -105 513 -59 520 -12ZM669 -386H761V-313H669ZM669 -132H761V-49H669ZM669 -260H761V-185H669ZM608 -344V-85C608 -28 604 36 600 72H669V6H802C868 6 909 8 948 14V-57C914 -52 878 -50 824 -49V-132C866 -131 894 -129 924 -124V-193C894 -188 867 -186 824 -185V-260C866 -259 893 -257 924 -252V-321C894 -316 867 -314 824 -313V-386C875 -385 910 -383 944 -378V-449C906 -443 865 -441 798 -441H669V-455C688 -487 706 -507 712 -509C728 -515 728 -523 712 -527C695 -531 667 -544 644 -557C619 -466 574 -394 524 -332C540 -323 555 -309 570 -285C586 -309 597 -325 608 -344Z"/>
</svg>