<svg xmlns="http://www.w3.org/2000/svg" viewBox="0 -1000 1000 1000">
	<path fill="#000000" d="M778 -104H444V-147H778ZM778 -196H444V-237H778ZM778 -286H444V-328H778ZM242 -627C251 -651 260 -676 268 -700C286 -754 300 -780 315 -787C343 -802 334 -816 310 -816C284 -816 256 -823 226 -838C207 -746 196 -709 162 -618C127 -522 85 -436 37 -380C65 -369 89 -344 102 -318C122 -351 144 -396 167 -446V-121C167 -49 162 17 156 74H242ZM929 16C860 -10 778 -33 700 -48L652 2C737 20 816 45 889 80ZM732 -722H675C685 -752 691 -762 697 -765C713 -774 712 -782 697 -784C671 -788 655 -792 630 -800C626 -745 606 -682 583 -639C606 -632 621 -627 643 -618C649 -636 654 -651 659 -667H732V-603C672 -604 636 -606 610 -610V-544C629 -546 653 -548 673 -548C670 -483 652 -457 578 -415C607 -405 621 -397 643 -385C700 -429 726 -475 730 -549H773V-458C773 -419 782 -408 854 -408C925 -408 939 -418 961 -501C930 -503 911 -506 889 -516C886 -471 880 -464 857 -464C835 -464 830 -468 830 -485V-549C874 -548 902 -546 924 -544V-610C896 -606 865 -604 795 -603V-667C849 -666 876 -664 897 -661V-728C877 -725 854 -723 795 -722V-757C795 -784 799 -799 808 -804C817 -809 814 -816 805 -816C778 -815 749 -816 726 -818C731 -797 732 -756 732 -722ZM445 -715H389C402 -750 408 -760 413 -762C428 -767 425 -776 410 -778C381 -782 367 -786 346 -797C340 -736 325 -689 294 -640C318 -635 336 -626 355 -616C361 -634 366 -649 371 -663H445V-599C383 -599 328 -601 296 -605V-542C315 -544 339 -546 369 -546C366 -456 333 -416 262 -379C288 -366 303 -354 321 -333C341 -349 357 -365 370 -380C373 -364 374 -337 374 -314V-121C374 -88 372 -59 368 -45C400 -48 430 -49 499 -50C445 -21 360 3 279 16C304 35 319 52 332 80C403 61 433 52 489 30C539 10 560 4 572 3C592 2 593 -8 573 -17C566 -20 543 -35 523 -50H717C769 -50 823 -47 857 -44C854 -56 851 -92 851 -120V-313C851 -341 854 -375 857 -388C808 -384 771 -383 625 -383C474 -383 423 -384 376 -388C415 -435 428 -482 429 -547H471V-479C471 -461 460 -448 437 -444C458 -426 471 -411 483 -391C493 -400 507 -409 521 -416L600 -456C596 -479 594 -494 594 -519C572 -504 552 -495 530 -486V-546C552 -546 571 -544 586 -542V-605C565 -602 539 -601 506 -600V-662C531 -662 550 -659 568 -657V-721C550 -718 532 -716 506 -715V-762C506 -783 511 -796 518 -801C526 -807 523 -814 514 -814C490 -813 463 -814 442 -816C444 -801 445 -765 445 -715Z"/>
</svg>