<svg xmlns="http://www.w3.org/2000/svg" viewBox="0 -1000 1000 1000">
	<path fill="#000000" d="M610 -104C573 -118 547 -134 522 -166C509 -90 491 -60 464 -52C418 -38 317 -33 265 -39C214 -44 208 -70 232 -125C252 -172 287 -220 355 -296C427 -376 488 -439 545 -492C516 -486 436 -483 337 -483C245 -483 198 -486 169 -490V-411C210 -416 253 -418 371 -418C162 -207 122 -93 141 -28C152 11 174 28 214 36C263 45 372 48 483 32C558 21 580 -2 610 -104ZM227 -625H437C500 -625 541 -623 572 -617V-703C542 -698 502 -695 436 -695H263C292 -747 315 -779 330 -791C340 -798 339 -809 321 -810C291 -811 256 -821 229 -837C184 -682 119 -570 37 -473C69 -462 97 -446 114 -429C153 -490 190 -554 227 -625ZM894 -802C907 -813 905 -824 886 -823C852 -821 823 -823 796 -828C803 -791 806 -744 806 -667V-63C806 -22 792 -11 681 -26C713 1 728 43 727 75C863 65 884 41 884 -38V-773C884 -789 886 -795 894 -802ZM706 -642C721 -651 718 -662 701 -661C679 -660 643 -663 614 -669C620 -638 623 -604 623 -560V-280C623 -258 621 -205 617 -156H704C700 -203 698 -242 698 -280V-615C698 -629 700 -637 706 -642Z"/>
</svg>