<svg xmlns="http://www.w3.org/2000/svg" viewBox="0 -1000 1000 1000">
	<path fill="#000000" d="M896 -800C911 -809 907 -822 888 -821C860 -819 827 -821 800 -826C807 -789 810 -736 810 -665V-67C810 -25 802 -20 696 -32C724 -5 735 28 734 66C870 50 886 29 886 -47V-771C886 -788 888 -795 896 -800ZM731 -639C746 -648 743 -659 726 -658C704 -657 674 -660 645 -666C651 -635 654 -601 654 -557V-277C654 -239 652 -202 648 -153H729C725 -200 723 -239 723 -277V-612C723 -626 725 -634 731 -639ZM527 -577C549 -663 564 -694 569 -697C588 -711 587 -717 566 -719C541 -721 510 -729 490 -739C480 -573 443 -474 391 -381C409 -367 425 -351 441 -321C468 -375 488 -425 505 -486C525 -439 539 -397 555 -342L620 -379C591 -454 565 -507 527 -577ZM209 -589C229 -672 237 -699 241 -703C256 -718 254 -722 234 -724C212 -726 185 -732 159 -743C156 -586 110 -450 50 -370C70 -356 88 -337 105 -308C143 -373 166 -428 186 -498C206 -452 222 -405 237 -356L299 -394C280 -452 249 -516 209 -589ZM312 -219V-90C225 -83 145 -81 84 -85C97 -48 105 -16 110 20C218 -12 411 -40 586 -46C581 -80 583 -105 597 -129C527 -115 454 -104 382 -96V-219C460 -218 513 -215 559 -209V-296C512 -290 460 -287 382 -286V-762C382 -783 385 -793 393 -799C406 -809 403 -818 389 -817C361 -816 335 -818 308 -824C311 -802 312 -776 312 -635V-286C229 -287 167 -290 118 -296V-209C166 -215 228 -218 312 -219Z"/>
</svg>