<svg xmlns="http://www.w3.org/2000/svg" viewBox="0 -1000 1000 1000">
	<path fill="#000000" d="M912 -296V-369C875 -365 767 -362 537 -362C307 -362 190 -365 155 -369C175 -161 152 -33 66 50C108 56 126 64 147 82C209 -17 229 -117 233 -304H538C698 -304 752 -303 912 -296ZM554 -176H756L743 -67C737 -13 724 -3 600 -11C628 25 636 42 642 73C785 57 805 31 813 -33L840 -240C793 -236 709 -234 574 -234C440 -234 317 -236 270 -240V-169C308 -173 376 -175 477 -176C454 -78 394 -34 249 2C283 28 297 42 312 66C448 24 520 -52 554 -176ZM338 -734V-764C338 -788 341 -798 352 -802C370 -809 372 -824 348 -823C322 -823 303 -824 267 -828C270 -810 271 -799 271 -771V-734C210 -735 166 -737 128 -741V-672C166 -675 210 -677 271 -678V-614C194 -615 129 -617 88 -620V-554C120 -555 165 -558 219 -559C193 -520 143 -476 53 -437C75 -419 86 -404 97 -381C196 -443 243 -495 271 -553V-491C271 -451 268 -406 263 -376H349C342 -411 338 -455 338 -491V-560C414 -560 470 -558 512 -554V-620C470 -616 445 -615 338 -614V-678C397 -677 427 -676 475 -672V-741C439 -738 387 -735 338 -734ZM714 -537C686 -565 655 -610 638 -655L583 -632C599 -587 634 -533 670 -496C625 -468 554 -441 493 -432L511 -447C468 -494 447 -514 404 -551L351 -510C394 -476 416 -453 455 -401L480 -421C500 -406 512 -389 521 -365C601 -380 669 -411 721 -453C768 -420 828 -391 903 -373C916 -409 925 -425 947 -446C895 -450 824 -468 767 -499C812 -552 840 -616 854 -686C881 -685 900 -684 920 -681V-751C894 -747 859 -745 802 -745H636C651 -774 661 -787 668 -790C687 -800 686 -809 674 -810C640 -813 620 -818 596 -832C577 -755 553 -711 491 -631C518 -627 534 -622 555 -606C579 -640 594 -663 607 -687H787C775 -629 754 -584 714 -537Z"/>
</svg>