<svg xmlns="http://www.w3.org/2000/svg" viewBox="0 -1000 1000 1000">
	<path fill="#000000" d="M618 -474L754 -517L748 -386C747 -349 729 -336 648 -344C673 -314 685 -281 690 -246C798 -278 814 -298 817 -369L830 -626C787 -605 727 -583 618 -546V-611C618 -641 624 -656 639 -661C662 -671 655 -676 632 -676C599 -676 571 -677 533 -682C540 -664 544 -621 544 -577V-521L416 -479V-591C416 -602 424 -619 435 -624C453 -630 451 -643 430 -643C388 -643 365 -644 335 -649C338 -619 342 -535 344 -455C300 -442 262 -432 235 -426L259 -345C276 -355 308 -370 344 -385V-201C344 -122 359 -102 441 -101C534 -98 661 -100 743 -107C826 -114 867 -125 911 -244C874 -249 845 -264 821 -297C804 -188 770 -180 701 -175C634 -170 521 -168 484 -170C424 -173 416 -181 416 -235V-410L544 -451V-314C544 -282 541 -243 536 -199H624C620 -244 618 -282 618 -314ZM132 -613V-130C132 -72 130 -2 127 35C175 31 272 28 512 28C752 28 851 31 899 35V-53C852 -47 752 -42 512 -42H211V-699H506C744 -699 847 -697 892 -693V-779C844 -773 747 -770 506 -770C266 -770 177 -774 127 -779C130 -742 132 -671 132 -613Z"/>
</svg>