<svg xmlns="http://www.w3.org/2000/svg" viewBox="0 -1000 1000 1000">
	<path fill="#000000" d="M379 -307H300V-360H379ZM443 -360H518V-307H443ZM379 -414H300V-468H379ZM443 -468H518V-414H443ZM379 -573V-524C295 -524 269 -525 236 -529C238 -516 240 -489 240 -466V-312C240 -288 238 -261 236 -249C269 -252 295 -253 379 -253V-203C295 -203 241 -206 195 -211V-139C241 -144 294 -147 378 -147C378 -111 375 -61 371 -29H447C445 -61 443 -110 443 -147C501 -147 548 -144 585 -140C566 -119 542 -101 512 -82C542 -72 562 -56 574 -33C674 -118 712 -196 722 -475H775V-165C775 -62 782 -58 846 -58C906 -58 928 -70 947 -161C918 -161 895 -172 878 -202C871 -137 864 -129 855 -129C847 -129 843 -134 843 -171V-448C843 -473 847 -510 853 -540C826 -533 803 -532 723 -532C724 -543 724 -554 724 -565C725 -619 730 -656 738 -662C753 -673 750 -683 733 -682C703 -680 678 -681 646 -686C650 -666 653 -633 654 -533C632 -535 618 -538 600 -542V-467C620 -471 637 -473 654 -474C653 -309 643 -222 600 -159V-211C557 -206 502 -203 443 -203V-253C524 -253 549 -252 582 -249C580 -260 579 -288 579 -312V-466C579 -489 581 -518 582 -529C549 -525 524 -524 443 -524V-573C498 -573 557 -570 597 -566V-632C556 -627 498 -624 443 -624C443 -666 446 -672 453 -676C465 -682 464 -691 447 -690C423 -689 401 -689 369 -692C373 -675 378 -642 378 -624C315 -624 256 -627 214 -632V-566C255 -570 308 -573 379 -573ZM108 -613V-105C108 -47 105 26 101 63C163 55 209 52 516 52C824 52 874 55 937 63V-22C889 -16 815 -11 516 -11H179V-703H521C789 -703 895 -699 933 -692V-781C870 -773 791 -770 516 -770C250 -770 163 -773 101 -781C105 -744 108 -671 108 -613Z"/>
</svg>