<svg xmlns="http://www.w3.org/2000/svg" viewBox="0 -1000 1000 1000">
	<path fill="#000000" d="M789 -555H654V-616H789ZM853 -506C852 -528 852 -556 852 -586C852 -615 852 -649 853 -668C822 -666 787 -665 724 -665C661 -665 621 -666 589 -668C590 -649 591 -616 591 -587C591 -558 590 -526 589 -506C620 -507 661 -507 724 -507C787 -507 822 -507 853 -506ZM471 -559H327V-617H471ZM532 -507C530 -529 530 -557 530 -587C530 -616 531 -650 532 -669C502 -667 464 -666 403 -666C343 -666 292 -667 261 -669C263 -650 264 -617 264 -588C264 -559 263 -527 261 -507C292 -508 343 -508 403 -508C464 -508 502 -508 532 -507ZM896 41V-48C860 -42 759 -37 566 -37H183V-707H542C740 -707 833 -703 883 -696V-784C835 -776 744 -773 503 -773C263 -773 152 -777 104 -784C107 -747 109 -676 109 -613V-130C109 -70 108 -7 104 41C152 33 267 30 507 30C747 30 848 33 896 41ZM524 -294H352V-333H524ZM596 -333H759V-294H596ZM524 -382H352V-423H524ZM596 -423H759V-382H596ZM596 -201V-245C735 -245 807 -243 831 -239C829 -254 828 -277 828 -300V-416C828 -439 829 -460 831 -475C808 -473 745 -472 561 -472C376 -472 310 -473 282 -475C283 -460 284 -439 284 -416V-300C284 -277 283 -254 282 -239C315 -243 391 -245 524 -245V-201C387 -201 290 -203 211 -207V-142C289 -146 389 -148 524 -148C524 -129 521 -84 516 -48H604C599 -83 596 -128 596 -148C738 -148 834 -146 914 -142V-207C834 -204 738 -201 596 -201Z"/>
</svg>