<svg xmlns="http://www.w3.org/2000/svg" viewBox="0 -1000 1000 1000">
	<path fill="#000000" d="M725 -421V-506C678 -501 627 -499 502 -499C376 -499 324 -502 276 -506V-421C323 -426 377 -428 502 -428C628 -428 677 -426 725 -421ZM496 -736C579 -600 732 -494 902 -420C912 -451 939 -493 962 -515C831 -532 632 -639 540 -786C547 -792 554 -795 561 -797C573 -800 572 -811 557 -813C537 -815 481 -833 454 -843C451 -822 434 -792 385 -728C307 -625 141 -495 45 -455C71 -440 109 -409 121 -389C250 -483 400 -614 496 -736ZM292 -86V-245H715V-86ZM715 -17V70H810C804 27 801 -10 801 -55V-244C801 -283 802 -304 805 -321C777 -318 633 -317 503 -317C361 -317 233 -318 202 -321C205 -300 206 -276 206 -241V-52C206 -7 203 27 197 73H292V-17Z"/>
</svg>