<svg xmlns="http://www.w3.org/2000/svg" viewBox="0 -1000 1000 1000">
	<path fill="#000000" d="M546 -678C561 -635 568 -611 575 -574L650 -590C643 -629 635 -658 622 -695ZM642 -187V-303C760 -302 865 -300 931 -296V-370C885 -368 817 -365 740 -364C770 -421 783 -436 800 -442C818 -449 818 -459 803 -461C774 -465 740 -476 712 -489C702 -452 688 -410 664 -363H484L544 -383C523 -424 505 -455 481 -487L404 -462C429 -432 451 -396 464 -364C387 -365 320 -367 273 -370V-296C338 -300 446 -302 565 -303V-187C443 -187 359 -188 309 -193V-115C364 -119 462 -122 565 -123C565 7 564 25 558 73H649C643 25 642 5 642 -123C745 -122 828 -120 888 -115V-193C829 -188 761 -187 642 -187ZM602 -504C717 -504 815 -501 877 -497V-572C815 -568 717 -565 602 -565C489 -565 394 -568 331 -572V-497C392 -501 489 -504 602 -504ZM550 -772C311 -772 207 -775 155 -780C176 -319 166 -142 52 8C87 13 116 28 142 55C225 -110 244 -267 241 -705H671C780 -705 876 -703 922 -697V-780C871 -774 789 -772 550 -772Z"/>
</svg>