<svg xmlns="http://www.w3.org/2000/svg" viewBox="0 -1000 1000 1000">
	<path fill="#000000" d="M211 -479C198 -483 179 -498 167 -513C154 -483 96 -425 49 -394C70 -385 89 -371 103 -345C156 -413 196 -451 211 -458C222 -463 222 -476 211 -479ZM572 -430C543 -457 495 -496 459 -521L423 -477C460 -450 493 -418 526 -382ZM474 -525V-595C435 -588 387 -584 317 -584C245 -584 195 -587 156 -594V-525C194 -531 245 -534 317 -534C387 -534 435 -531 474 -525ZM422 -244H204V-289H422ZM422 -148H204V-195H422ZM235 -340C270 -372 300 -404 323 -437C356 -410 396 -375 433 -341C380 -339 298 -340 235 -340ZM422 -52H204V-99H422ZM334 -676V-721H442C472 -721 493 -719 516 -716V-779C493 -775 472 -773 442 -773H335C337 -789 340 -802 344 -808C352 -817 350 -823 340 -822C325 -820 281 -823 263 -828C265 -814 267 -784 267 -755V-676C144 -676 103 -678 61 -682V-517H122V-624H502V-540H565V-682C522 -678 464 -676 334 -676ZM679 -677H829C815 -479 789 -349 745 -253C707 -360 687 -505 679 -677ZM604 -673C622 -437 648 -284 701 -176C652 -111 581 -54 490 3C489 -32 488 -64 488 -105V-290C509 -270 526 -253 535 -243L584 -299C557 -325 453 -407 349 -481C353 -484 358 -488 364 -490C374 -494 372 -507 359 -507C343 -507 316 -514 298 -526C244 -413 153 -335 39 -281C56 -264 70 -241 78 -218C104 -235 115 -242 139 -260V-95C139 -42 138 8 135 58H204V-1H422V37H492C491 27 491 18 490 9C510 23 532 43 548 69C627 18 692 -42 739 -114C779 -56 832 -6 900 49C912 12 931 -20 957 -44C886 -82 829 -127 786 -186C861 -320 889 -482 908 -752C867 -747 812 -746 747 -746C680 -746 622 -748 579 -752V-671C588 -672 596 -673 604 -673Z"/>
</svg>