<svg xmlns="http://www.w3.org/2000/svg" viewBox="0 -1000 1000 1000">
	<path fill="#000000" d="M503 13H788V69H872C868 28 866 -4 866 -46V-186C866 -221 867 -238 871 -254C834 -251 775 -249 641 -249C506 -249 460 -251 422 -254C425 -234 426 -217 426 -186V-44C426 -2 425 29 420 71H503ZM788 -55H503V-183H788ZM846 -455C804 -452 733 -450 654 -450C583 -450 490 -452 463 -455V-379C481 -382 507 -383 532 -383H716L632 -276L714 -260ZM266 -280H155V-659H266ZM705 -507C682 -542 668 -563 642 -607L567 -565C593 -537 614 -506 625 -472ZM636 -724C673 -640 694 -605 732 -563C774 -516 828 -471 905 -423C926 -462 943 -486 967 -508C899 -528 853 -555 788 -615C741 -658 705 -718 682 -780C710 -792 703 -809 683 -812C662 -815 616 -827 588 -837C588 -818 577 -777 560 -743C512 -643 426 -544 340 -479V-655C340 -685 341 -708 343 -734C326 -732 271 -730 213 -730C157 -730 97 -732 78 -734C79 -708 79 -686 79 -656V-233C79 -191 78 -132 74 -65H155V-208H266V-132H344C342 -187 340 -266 340 -298V-437C356 -425 370 -412 382 -399C481 -493 567 -598 636 -724Z"/>
</svg>