<svg xmlns="http://www.w3.org/2000/svg" viewBox="0 -1000 1000 1000">
	<path fill="#000000" d="M754 -558H836V-436H754ZM725 -215C711 -179 687 -143 654 -110C618 -121 579 -133 536 -145L576 -215ZM543 -436H460V-558H543ZM609 -558H688V-436H609ZM543 -699V-617C481 -618 432 -619 391 -621C394 -593 395 -545 395 -499C395 -453 394 -404 391 -375C437 -377 496 -377 573 -377C559 -338 546 -305 533 -276C478 -277 398 -279 359 -283V-206C391 -210 451 -213 502 -214C478 -173 453 -143 422 -114C484 -99 543 -83 600 -64C546 -29 450 -4 330 6C354 31 363 48 374 79C512 56 613 12 668 -38C739 -9 807 27 877 73C893 45 912 22 931 1C862 -33 797 -61 717 -89C762 -140 782 -172 798 -215C869 -215 907 -212 953 -206V-284C907 -279 856 -276 806 -276H610L627 -305C636 -321 645 -329 657 -332C676 -337 672 -348 655 -351C630 -355 607 -364 586 -377H714C814 -377 844 -377 906 -374C903 -399 902 -437 902 -499C902 -547 904 -596 906 -621C864 -619 817 -618 754 -617V-699C831 -698 895 -696 926 -690V-773C891 -768 801 -765 653 -765C504 -765 399 -768 369 -773V-690C395 -695 481 -698 543 -699ZM688 -699V-617H609V-699ZM257 -264H174V-677H257ZM174 -200H257V-132H333C330 -190 329 -222 329 -269V-646C329 -687 332 -727 337 -755C299 -749 254 -747 217 -747C176 -747 129 -749 92 -755C97 -726 100 -683 100 -646V-212C100 -166 98 -135 91 -76H174Z"/>
</svg>