<svg xmlns="http://www.w3.org/2000/svg" viewBox="0 -1000 1000 1000">
	<path fill="#000000" d="M787 -128V-56H494V-128ZM494 -184V-258H787V-184ZM253 -258H151V-664H253ZM960 -542C931 -588 889 -646 847 -698L791 -663C822 -623 864 -555 890 -505ZM780 -793C795 -804 794 -816 775 -815C748 -814 725 -815 697 -819C701 -804 704 -763 704 -721V-545C704 -517 702 -473 698 -441H777C773 -477 770 -517 770 -545V-750C770 -772 771 -786 780 -793ZM425 -545C445 -512 468 -486 495 -460C448 -407 386 -364 321 -338V-658C321 -688 322 -712 324 -738C308 -736 262 -734 203 -734C146 -734 97 -736 79 -738C80 -712 80 -689 80 -659V-226C80 -184 79 -124 75 -57H151V-189H253V-124H325C323 -179 321 -259 321 -291V-321C335 -311 346 -298 357 -280C378 -291 400 -304 420 -316C422 -297 423 -265 423 -238V-40C423 -2 420 27 413 63H494V4H787V48H868C864 13 862 -18 862 -55V-238C862 -267 862 -300 865 -321C834 -319 751 -317 642 -317C537 -317 460 -317 426 -320C473 -351 516 -385 545 -418C616 -369 734 -352 927 -346C932 -375 939 -398 955 -425C752 -414 661 -421 582 -468C622 -536 647 -619 665 -720C651 -717 621 -716 585 -716H501C514 -747 529 -774 534 -779C546 -791 546 -798 526 -798C509 -798 475 -808 457 -818C432 -698 390 -596 334 -521C355 -517 373 -510 389 -491C401 -508 413 -526 425 -545ZM482 -659H591C576 -595 557 -544 530 -504C505 -524 483 -547 452 -593C464 -615 474 -637 482 -659Z"/>
</svg>