<svg xmlns="http://www.w3.org/2000/svg" viewBox="0 -1000 1000 1000">
	<path fill="#000000" d="M519 -108C537 -112 537 -125 516 -129C497 -133 475 -145 454 -162C399 -69 367 -34 318 -1C343 6 381 30 393 43C500 -95 512 -107 519 -108ZM940 -35C899 -75 843 -123 786 -164L733 -110C788 -70 855 -6 878 29ZM679 -273V-355C679 -365 681 -370 692 -375C707 -382 707 -388 681 -387C659 -386 628 -388 600 -392C607 -374 609 -342 609 -273C524 -273 457 -276 408 -280V-205C457 -210 524 -213 609 -213V-45C609 -24 595 -11 517 -18C531 5 542 45 544 71C663 53 679 37 679 -27V-213C761 -212 825 -209 871 -205V-280C823 -276 760 -274 679 -273ZM260 -292H161V-684H260ZM634 -519C670 -466 711 -430 752 -397C789 -366 862 -324 923 -297C926 -330 943 -367 962 -389C903 -399 861 -416 805 -447C774 -463 709 -511 671 -555C694 -562 693 -571 668 -575C646 -579 612 -592 592 -607C580 -560 542 -496 508 -460C469 -419 416 -381 330 -334V-681C330 -711 331 -735 333 -761C317 -759 276 -757 217 -757C160 -757 104 -759 86 -761C87 -735 87 -712 87 -682V-249C87 -207 86 -147 82 -80H161V-223H260V-147H334C332 -202 330 -256 330 -318C348 -308 367 -293 382 -276C495 -349 579 -433 634 -519ZM726 -716H549V-781C549 -790 556 -798 566 -803C578 -809 577 -816 562 -815C540 -814 498 -816 478 -819C480 -802 481 -761 481 -716C429 -717 393 -719 356 -725V-644C392 -649 429 -652 481 -653C481 -613 480 -577 478 -555H550C549 -584 549 -618 549 -653H726C725 -619 724 -587 722 -567H795C794 -595 794 -623 794 -653C855 -652 891 -649 930 -644V-725C891 -719 855 -716 794 -716V-785C794 -794 800 -802 811 -807C823 -813 822 -819 807 -819C784 -819 742 -820 722 -823C725 -803 726 -761 726 -716Z"/>
</svg>