<svg xmlns="http://www.w3.org/2000/svg" viewBox="0 -1000 1000 1000">
	<path fill="#000000" d="M808 -454H483V-515H808ZM483 -395H808V-331H483ZM163 -222H273V-146H348C346 -201 344 -281 344 -313V-670C344 -700 345 -724 347 -750C331 -748 280 -746 221 -746C164 -746 108 -748 90 -750C91 -724 91 -701 91 -671V-248C91 -206 90 -146 86 -79H163ZM273 -293H163V-678H273ZM647 -137C706 -28 787 33 915 66C924 33 937 9 966 -21C843 -33 774 -64 712 -140C821 -140 872 -137 935 -130V-209C867 -202 816 -199 665 -199C670 -221 674 -245 677 -271C770 -271 824 -270 877 -267C876 -316 875 -372 875 -426C875 -485 876 -541 877 -580C817 -576 758 -575 643 -575C529 -575 469 -576 410 -580C412 -536 413 -483 413 -426C413 -372 412 -315 410 -268C460 -271 513 -271 600 -271C601 -245 599 -221 594 -199C485 -200 422 -203 376 -209V-130C425 -136 499 -140 574 -140C538 -71 457 -28 303 4C333 24 358 51 370 75C533 21 609 -39 647 -137ZM781 -726V-786C781 -798 783 -802 792 -807C802 -812 800 -820 788 -820C763 -820 729 -823 703 -826C707 -800 709 -765 709 -726H583V-781C583 -793 585 -797 594 -802C604 -808 602 -815 590 -815C565 -815 532 -818 506 -821C510 -797 512 -763 512 -726C456 -727 407 -729 371 -734V-656C406 -661 456 -663 512 -664V-592H583V-665H709V-595H781V-665C845 -664 905 -661 943 -656V-734C905 -729 845 -727 781 -726Z"/>
</svg>