<svg xmlns="http://www.w3.org/2000/svg" viewBox="0 -1000 1000 1000">
	<path fill="#000000" d="M801 -548H480V-591H801ZM801 -647H480V-690H801ZM266 -276H176V-686H266ZM176 -212H266V-144H341C338 -202 337 -234 337 -281V-651C337 -692 340 -732 345 -760C307 -754 276 -752 221 -752C158 -752 133 -754 96 -760C101 -731 104 -688 104 -651V-235C104 -189 102 -158 95 -99H176ZM659 -226V-292H855C855 -250 854 -224 851 -203C848 -178 841 -172 815 -175V-234C778 -229 727 -227 659 -226ZM480 -449V-492H747C801 -492 831 -491 873 -488C868 -516 867 -551 867 -592V-644C867 -685 868 -721 873 -750C832 -747 800 -746 748 -746H627C639 -790 647 -803 654 -807C664 -813 664 -820 653 -821C612 -825 594 -829 571 -837C569 -811 565 -787 557 -746C499 -746 444 -747 411 -750C413 -721 414 -684 414 -644V-387C414 -345 413 -312 411 -284C453 -289 517 -291 592 -292V-226C480 -226 425 -229 372 -235V-164C412 -168 458 -170 544 -170C491 -95 418 -57 288 -31C310 -2 319 18 326 42C463 -5 536 -61 592 -149V-13C592 12 591 41 587 70H664C661 43 659 12 659 -13V-158C707 -55 789 0 927 36C929 12 934 -7 955 -49C852 -48 760 -87 706 -169C750 -168 779 -167 802 -166C811 -141 814 -126 815 -100C864 -110 880 -116 894 -131C908 -146 912 -161 915 -266C917 -312 918 -328 922 -356C894 -353 866 -352 810 -352H480V-392H816C865 -392 912 -391 955 -384V-456C912 -450 865 -449 816 -449Z"/>
</svg>