<svg xmlns="http://www.w3.org/2000/svg" viewBox="0 -1000 1000 1000">
	<path fill="#000000" d="M744 -734C732 -765 710 -805 697 -824L619 -794C645 -755 654 -734 660 -701ZM428 -102L353 -126C323 -29 304 5 266 46L351 79C379 30 403 -28 428 -102ZM589 38C584 -7 577 -51 561 -118L492 -109C503 -62 509 -6 509 44ZM953 30C926 -37 892 -106 868 -145L796 -121C824 -72 848 -10 870 62ZM753 27C746 -16 727 -85 712 -126L644 -118C658 -76 670 -30 679 38ZM148 -259V-656H247V-259ZM478 -331H641V-244H478ZM478 -483H641V-389H478ZM478 -631H641V-542H478ZM410 -526V-290C410 -254 405 -185 399 -150H478V-184H684C839 -184 893 -181 931 -176V-250C898 -246 846 -244 713 -244V-331C826 -331 846 -329 886 -323V-395C857 -391 825 -389 713 -389V-483C813 -483 849 -481 878 -477V-549C851 -545 813 -543 713 -542V-631C853 -631 885 -630 916 -626V-701C886 -697 809 -692 684 -692H497C517 -723 540 -753 546 -758C565 -772 564 -780 547 -783C532 -786 488 -801 466 -813C456 -776 429 -703 414 -672C376 -592 341 -540 316 -514V-621C316 -670 320 -711 324 -730C273 -724 241 -722 185 -722C148 -722 113 -724 64 -730C71 -694 73 -675 73 -621V-215C73 -171 70 -121 66 -75H148V-192H247V-125H321C318 -161 316 -222 316 -266V-501C332 -487 345 -469 355 -443C371 -463 391 -493 410 -526Z"/>
</svg>