<svg xmlns="http://www.w3.org/2000/svg" viewBox="0 -1000 1000 1000">
	<path fill="#000000" d="M803 -292H494V-360H803ZM548 -617H467V-723H548ZM914 -556C909 -589 907 -613 907 -666C907 -719 909 -753 914 -786C849 -780 775 -778 655 -778C535 -778 461 -780 396 -786C401 -753 402 -719 402 -666C402 -613 401 -589 396 -556C461 -561 535 -563 655 -563C775 -563 849 -561 914 -556ZM694 -617H612V-723H694ZM840 -617H759V-723H840ZM860 -231C866 -231 873 -231 879 -230C873 -261 872 -275 872 -327C872 -379 873 -392 879 -423C815 -418 768 -416 650 -416C532 -416 486 -418 422 -423C428 -392 429 -379 429 -327C429 -275 428 -261 422 -230C461 -233 493 -235 539 -236C485 -186 410 -147 310 -117C333 -94 349 -73 360 -45C404 -69 444 -93 482 -118V-42C482 -13 477 0 457 17C473 38 487 68 492 87C499 77 528 56 561 37L677 -24C668 -39 659 -73 660 -93C629 -73 581 -48 548 -33V-166C578 -189 606 -213 631 -237H690C760 -237 800 -235 851 -232C813 -192 781 -167 738 -143C711 -167 690 -194 679 -221L616 -201C691 -87 755 -39 917 40C924 15 941 -14 960 -38C899 -49 841 -72 794 -101C874 -157 891 -167 910 -169C924 -170 924 -180 912 -189C891 -204 877 -216 860 -231ZM159 -204H270V-138H343C341 -193 339 -273 339 -305V-662C339 -692 340 -716 342 -742C326 -740 275 -738 216 -738C159 -738 103 -740 85 -742C86 -716 86 -693 86 -663V-230C86 -188 85 -128 81 -61H159ZM270 -275H159V-671H270ZM939 -454V-524C872 -519 826 -518 655 -518C482 -518 436 -519 369 -524V-454C436 -460 482 -461 655 -461C824 -461 875 -460 939 -454Z"/>
</svg>