<svg xmlns="http://www.w3.org/2000/svg" viewBox="0 -1000 1000 1000">
	<path fill="#000000" d="M810 -330H545V-366H810ZM871 -276C868 -299 867 -325 867 -351C867 -375 869 -400 871 -423C822 -419 772 -418 677 -418C582 -418 529 -419 481 -423C483 -398 484 -375 484 -351C484 -327 483 -301 481 -276C529 -279 582 -280 677 -280C783 -280 823 -279 871 -276ZM241 -253H165V-658H241ZM165 -189H241V-122H307C304 -179 303 -211 303 -258V-627C303 -667 306 -707 311 -735C273 -729 240 -727 203 -727C162 -727 126 -729 89 -735C94 -706 97 -663 97 -627V-212C97 -167 95 -134 88 -75H165ZM635 -187C634 -171 632 -157 630 -145C538 -145 473 -146 420 -150V-84C469 -87 530 -89 612 -90C581 -34 510 -12 388 2C408 29 418 51 424 72C537 48 639 -5 679 -87C718 -12 788 36 942 71C944 43 954 11 970 -13C848 -13 783 -34 733 -90C819 -89 894 -87 943 -84V-150C886 -146 797 -145 693 -145C694 -157 695 -171 696 -187C774 -187 847 -185 891 -181V-245C842 -241 766 -240 666 -240C575 -240 508 -241 460 -245V-181C502 -185 560 -187 635 -187ZM550 -688C421 -688 380 -689 348 -692C352 -569 352 -470 351 -366C350 -213 323 -90 236 26C258 35 287 53 304 74C377 -39 415 -179 418 -389C419 -467 420 -559 418 -634H568V-578C508 -569 463 -563 428 -561L433 -498C466 -506 511 -516 568 -526C570 -459 583 -450 674 -450C735 -450 777 -451 808 -454C878 -460 887 -476 919 -543C904 -540 882 -550 859 -577C845 -527 836 -518 792 -510C765 -505 725 -503 668 -503C638 -503 632 -509 631 -536C703 -547 769 -560 807 -562L800 -621C764 -610 701 -599 631 -588V-634H879L866 -593L930 -584L955 -701C888 -693 757 -688 618 -688V-730H731C788 -730 831 -729 888 -724V-794C831 -787 788 -784 731 -784H620C622 -799 628 -810 635 -815C645 -822 643 -829 632 -828C605 -825 572 -827 542 -832C548 -808 550 -787 550 -737Z"/>
</svg>