<svg xmlns="http://www.w3.org/2000/svg" viewBox="0 -1000 1000 1000">
	<path fill="#000000" d="M808 -549C800 -511 782 -454 763 -424C733 -457 712 -501 703 -549ZM804 -389C838 -440 871 -521 892 -598H635C659 -418 759 -310 916 -245C924 -273 939 -303 959 -324C898 -331 845 -354 804 -389ZM537 -109C522 -116 495 -132 475 -149C427 -85 373 -41 298 -6C322 10 328 15 356 41C412 4 463 -39 494 -69C511 -85 523 -92 534 -94C553 -98 553 -101 537 -109ZM931 -26C875 -67 823 -102 761 -139L707 -91C768 -50 816 -14 872 34ZM219 -227H135V-660H219ZM135 -162H219V-89H292C289 -144 287 -176 287 -221V-609C287 -651 289 -704 291 -725C250 -723 214 -722 177 -722C141 -722 102 -723 61 -725C64 -704 65 -681 65 -609V-187C65 -142 64 -118 59 -55H135ZM497 -574C522 -606 536 -619 549 -623C562 -627 559 -634 546 -638C524 -644 499 -655 477 -670C456 -610 390 -519 307 -450C329 -438 344 -427 359 -413C390 -444 426 -482 460 -525H556C550 -500 539 -471 523 -442C507 -455 490 -472 476 -488L435 -448C452 -435 477 -415 495 -398C482 -381 468 -364 451 -347C434 -363 417 -382 403 -404L353 -370C373 -354 395 -328 409 -309C376 -282 340 -257 294 -233C312 -220 326 -203 335 -184C519 -304 586 -404 630 -578C611 -575 580 -574 555 -574ZM603 -745C475 -745 406 -746 332 -750V-605H403V-684H857V-620H932V-750C862 -746 827 -745 684 -745C677 -774 671 -804 667 -829L585 -818C591 -795 598 -769 603 -745ZM596 -169V-79C596 2 591 3 521 -6C539 25 547 48 550 75C666 54 673 49 673 -32V-169C758 -168 822 -166 864 -163V-230C815 -226 775 -224 634 -224C539 -224 460 -226 410 -230V-163C452 -166 518 -168 596 -169ZM636 -292C678 -292 719 -291 741 -288V-352C719 -349 677 -348 635 -348C594 -348 556 -349 533 -352V-288C556 -291 595 -292 636 -292Z"/>
</svg>