<svg xmlns="http://www.w3.org/2000/svg" viewBox="0 -1000 1000 1000">
	<path fill="#000000" d="M212 -223H145V-652H212ZM145 -159H212V-91H280C277 -149 276 -181 276 -228V-617C276 -658 279 -698 284 -726C246 -720 219 -718 182 -718C141 -718 107 -720 70 -726C75 -697 78 -654 78 -617V-182C78 -136 76 -105 69 -46H145ZM628 -62C609 -109 582 -162 562 -198L509 -170C537 -126 556 -83 569 -30ZM866 -668C853 -712 839 -749 823 -785L760 -767C778 -729 792 -693 803 -650ZM519 -473C535 -443 548 -414 560 -382L608 -415C589 -455 562 -504 542 -535C550 -558 563 -577 569 -583C579 -592 579 -600 566 -604C549 -609 532 -616 515 -628C497 -532 460 -451 425 -403C446 -396 460 -387 474 -374C492 -409 506 -440 519 -473ZM706 -578H782V-458H706ZM706 -217H782V-82H706ZM706 -397H782V-278H706ZM645 -514V-155C645 -91 642 -11 637 75H706V-21H813C891 -21 926 -19 954 -14V-88C925 -84 884 -83 846 -82V-217C875 -217 898 -216 925 -213V-286C901 -281 876 -279 846 -278V-397C875 -396 898 -395 924 -392V-467C900 -463 876 -460 846 -459V-578C883 -577 908 -576 939 -574V-647C906 -641 882 -639 800 -639H706V-676C731 -745 742 -772 752 -778C762 -784 762 -792 751 -796C729 -803 710 -811 681 -827C668 -725 626 -597 571 -500C592 -487 605 -475 619 -459C629 -481 638 -498 645 -514ZM463 -645C534 -645 574 -642 615 -636V-714C574 -709 534 -706 463 -706C392 -706 349 -709 310 -714V-636C348 -642 392 -645 463 -645ZM386 -490C393 -471 401 -449 406 -429L455 -456C444 -489 428 -527 411 -556C420 -578 427 -591 432 -595C442 -603 442 -608 428 -612C412 -617 394 -625 375 -635C358 -539 322 -451 287 -400C305 -392 319 -382 333 -369C351 -406 369 -447 386 -490ZM477 -818L413 -794C427 -764 434 -747 444 -708L511 -730C503 -762 491 -790 477 -818ZM413 -172C399 -173 374 -186 358 -201C341 -150 314 -110 263 -56C281 -48 306 -31 320 -13C341 -45 368 -87 383 -116C393 -135 408 -149 413 -151C433 -159 427 -171 413 -172ZM495 -24V-249C548 -248 590 -246 623 -241V-315C590 -310 550 -307 497 -306C498 -328 501 -342 506 -349C514 -361 510 -369 499 -368C477 -366 448 -367 426 -370C429 -360 431 -334 433 -306C374 -307 338 -310 302 -315V-241C334 -246 388 -248 434 -247L433 -61C433 -36 419 -27 365 -40C379 -13 386 9 390 51C481 37 495 7 495 -24Z"/>
</svg>