<svg xmlns="http://www.w3.org/2000/svg" viewBox="0 -1000 1000 1000">
	<path fill="#000000" d="M656 -394C755 -487 774 -500 784 -501C807 -503 805 -514 793 -519C770 -527 738 -545 713 -565C693 -518 655 -469 585 -404C566 -450 533 -497 491 -536C518 -555 541 -574 561 -593C677 -593 720 -592 792 -588V-660C716 -655 670 -653 528 -653C385 -653 336 -655 264 -660V-585C329 -590 371 -592 472 -593C395 -533 303 -491 209 -471C234 -453 257 -433 272 -412C337 -440 394 -471 443 -503C451 -495 458 -486 465 -477C384 -395 298 -342 204 -312C236 -299 256 -282 270 -262C356 -305 449 -376 498 -431C507 -417 514 -403 521 -388C431 -287 297 -206 201 -182C236 -166 254 -151 272 -129C367 -175 474 -251 538 -318C543 -280 543 -244 539 -225C523 -154 489 -144 390 -154C414 -125 424 -101 429 -74C541 -89 582 -107 601 -172C617 -221 616 -279 603 -344C608 -349 612 -353 617 -357C664 -301 706 -247 752 -182L812 -237C757 -298 720 -335 656 -394ZM822 7V52H902C899 -3 897 -56 897 -115V-659C897 -697 898 -732 902 -780C863 -776 796 -775 508 -775C220 -775 154 -776 116 -780C119 -734 121 -699 121 -659V-102C121 -43 120 10 116 65H195V7ZM195 -59V-710H822V-59Z"/>
</svg>