<svg xmlns="http://www.w3.org/2000/svg" viewBox="0 -1000 1000 1000">
	<path fill="#000000" d="M432 -44C377 -45 340 -48 310 -52V31C354 25 460 22 636 22C812 22 911 26 954 31V-52C925 -47 849 -44 778 -43V-422C843 -422 886 -420 918 -418V-493C878 -490 823 -489 731 -489H512V-681C594 -686 655 -693 763 -709C792 -713 824 -713 857 -703C885 -694 892 -702 875 -721C852 -746 838 -768 819 -803C712 -771 607 -752 427 -744C430 -716 432 -675 432 -597ZM512 -422H696V-43H512ZM256 -168V-465C305 -464 336 -463 371 -457V-543C331 -537 305 -536 256 -535V-740C256 -755 262 -783 269 -787C283 -795 281 -803 265 -803C230 -803 199 -805 170 -809C174 -788 178 -730 178 -559V-535C129 -536 96 -538 57 -543V-457C94 -463 129 -464 178 -465V-141C137 -128 96 -118 54 -111C69 -77 77 -50 82 -7C195 -74 294 -117 386 -147C376 -176 374 -198 382 -230C342 -206 299 -185 256 -168Z"/>
</svg>