<svg xmlns="http://www.w3.org/2000/svg" viewBox="0 -1000 1000 1000">
	<path fill="#000000" d="M924 -624C896 -675 870 -714 840 -751L777 -712C809 -671 835 -626 856 -577ZM706 -387C719 -258 731 -205 747 -156C773 -76 811 -12 887 57C907 26 921 13 959 -13C878 -62 847 -108 809 -194C785 -248 760 -355 751 -452C828 -451 891 -448 935 -442V-524C886 -517 831 -514 765 -514H714C718 -596 720 -651 720 -707C720 -743 727 -769 743 -780C758 -790 753 -806 730 -804C701 -801 673 -802 641 -806C645 -754 646 -669 643 -515C590 -516 546 -519 513 -524V-442C546 -446 589 -449 642 -451C638 -371 628 -281 615 -236C586 -132 543 -52 485 9V-635C526 -729 546 -762 557 -767C578 -778 581 -788 553 -793C527 -798 495 -808 461 -823C454 -767 432 -683 415 -635C395 -579 345 -485 300 -426C329 -412 345 -402 363 -382C379 -407 398 -442 417 -482V-96C417 -28 415 14 409 69H485V13C513 27 538 46 556 65C608 -10 640 -71 672 -171C682 -200 696 -279 706 -387ZM172 -509V-161C122 -149 78 -142 39 -141C59 -109 69 -86 74 -50C108 -69 126 -77 355 -141C348 -173 346 -191 349 -217C319 -203 290 -192 245 -180V-508C286 -507 314 -506 335 -504V-582C315 -577 286 -574 245 -573V-749C245 -767 252 -779 259 -782C286 -794 279 -809 248 -809C221 -809 196 -810 168 -814C171 -797 172 -759 172 -573C112 -574 82 -578 61 -582V-504C82 -506 112 -508 172 -509Z"/>
</svg>