<svg xmlns="http://www.w3.org/2000/svg" viewBox="0 -1000 1000 1000">
	<path fill="#000000" d="M792 -469H524V-546H792ZM868 -402C864 -429 862 -470 862 -509C862 -548 865 -586 868 -613C814 -608 764 -605 657 -605C552 -605 501 -608 447 -613C452 -584 454 -548 454 -510C454 -471 452 -432 447 -403C499 -407 552 -409 657 -409C764 -409 817 -407 868 -402ZM267 -213V-504C311 -504 339 -502 372 -497V-581C339 -576 311 -574 267 -573V-750C267 -777 271 -792 280 -797C294 -805 292 -813 276 -813C243 -813 214 -815 186 -819C192 -786 194 -753 194 -573C144 -573 109 -575 70 -581V-497C108 -503 144 -505 194 -505V-185C152 -170 108 -159 62 -150C77 -120 84 -93 89 -50C208 -117 291 -157 371 -184C361 -213 360 -235 367 -263C334 -244 301 -227 267 -213ZM706 -114C818 -113 896 -111 952 -107V-184C898 -180 808 -178 706 -177V-202L824 -255C881 -280 897 -286 909 -287V-352C875 -347 787 -344 656 -344C519 -344 437 -348 400 -352V-277C434 -281 498 -283 584 -283H755L630 -224V-177C531 -177 438 -179 380 -184V-107C436 -112 530 -114 630 -114V-35C630 -2 609 6 525 -8C550 22 559 50 561 80C681 67 706 50 706 -10ZM619 -735C518 -736 446 -739 386 -744V-665C454 -669 540 -670 666 -670C796 -670 873 -669 942 -665V-744C890 -740 795 -736 705 -735C699 -780 693 -805 681 -840L597 -825C608 -792 615 -763 619 -735Z"/>
</svg>