<svg xmlns="http://www.w3.org/2000/svg" viewBox="0 -1000 1000 1000">
	<path fill="#000000" d="M250 -219V-491C287 -491 314 -488 340 -484V-564C314 -560 294 -559 250 -558V-769C250 -779 257 -788 265 -794C277 -802 275 -809 262 -809C227 -809 203 -811 175 -816C177 -798 178 -746 178 -651V-558C128 -558 96 -560 65 -564V-484C95 -489 127 -491 178 -492V-197C130 -185 84 -175 50 -170C66 -140 72 -119 74 -84C178 -128 272 -159 358 -183C349 -213 347 -230 356 -259C327 -245 289 -231 250 -219ZM478 -179C472 -216 464 -252 455 -283L389 -271C398 -241 408 -199 412 -169ZM768 -194C759 -221 747 -262 740 -292L672 -280C680 -252 693 -204 698 -179ZM594 -780C610 -787 608 -796 594 -797C571 -799 539 -808 515 -823C482 -734 409 -647 324 -584C351 -575 374 -562 390 -541C461 -612 500 -661 547 -727C569 -756 585 -776 594 -780ZM951 -640C839 -661 767 -728 748 -828L676 -808C732 -680 789 -610 902 -554C908 -579 928 -617 951 -640ZM542 -161C493 -141 370 -114 306 -109C318 -89 330 -55 333 -31C369 -47 475 -84 542 -103V-53C542 -12 532 -5 443 -15C463 8 474 36 477 69C595 56 605 40 605 -6V-334C605 -361 606 -377 608 -389C574 -386 526 -385 488 -385C451 -385 394 -386 361 -389V-319C382 -322 404 -323 432 -323H542ZM826 -172C782 -157 702 -137 632 -127C643 -111 652 -81 657 -56C685 -73 773 -104 826 -117V-48C826 -19 818 -13 728 -25C748 2 760 33 765 65C881 55 895 38 895 -12V-336C895 -364 896 -379 898 -392C865 -389 815 -388 775 -388C710 -388 686 -389 652 -392V-324C673 -327 691 -328 730 -328H826ZM734 -512L546 -505C583 -549 602 -575 611 -588C628 -612 645 -632 656 -637C676 -649 672 -654 656 -658C644 -661 625 -668 588 -686C584 -651 554 -602 495 -537C487 -528 463 -509 444 -501C451 -480 455 -460 459 -435C480 -441 519 -447 767 -461C773 -450 779 -439 785 -428L847 -463C816 -511 782 -553 739 -601L687 -570C705 -551 720 -532 734 -512Z"/>
</svg>