<svg xmlns="http://www.w3.org/2000/svg" viewBox="0 -1000 1000 1000">
	<path fill="#000000" d="M888 -752C901 -758 900 -765 888 -768C869 -771 838 -782 814 -795C807 -748 796 -707 777 -667C802 -663 821 -655 837 -646C862 -716 881 -749 888 -752ZM482 -672C467 -715 457 -752 449 -781L380 -758C394 -721 404 -687 409 -647ZM554 -546C580 -546 608 -546 639 -546C665 -546 690 -546 713 -546C706 -516 694 -478 676 -443H578C498 -443 429 -447 380 -451V-380C434 -385 502 -388 595 -388C595 -365 596 -342 595 -321C513 -322 453 -325 406 -328V-256C451 -261 512 -264 593 -265C591 -236 588 -209 583 -184C492 -185 430 -188 373 -192V-122C421 -126 487 -129 568 -129C536 -52 463 -17 298 6C319 27 335 55 345 84C533 36 608 -16 639 -120C677 -26 756 32 911 66C918 38 932 4 952 -24C818 -25 737 -64 690 -130C794 -129 864 -127 923 -122V-192C862 -187 764 -184 652 -184C657 -210 660 -236 662 -265C751 -264 818 -261 866 -256V-328C818 -324 753 -322 665 -321C666 -341 666 -364 667 -388C768 -388 842 -386 898 -380V-451C854 -447 800 -444 740 -443C766 -489 779 -507 783 -509C801 -516 798 -523 785 -525C774 -527 752 -536 731 -546C810 -545 871 -542 920 -538V-611C870 -607 813 -603 734 -603V-765C734 -777 740 -790 750 -795C762 -801 759 -809 745 -808C721 -806 685 -809 661 -814C666 -792 669 -761 669 -683V-603H591V-765C591 -777 597 -790 607 -795C619 -801 616 -809 602 -808C578 -806 542 -809 518 -814C523 -792 526 -761 526 -683V-603C459 -604 402 -607 358 -611V-538C404 -543 460 -545 531 -545L479 -520C491 -506 509 -474 516 -451L589 -474C578 -492 561 -524 554 -546ZM168 -518V-164C126 -155 72 -146 36 -145C56 -113 66 -84 71 -48C105 -67 121 -74 350 -149C343 -181 341 -205 344 -231C313 -213 279 -199 241 -186V-517C286 -517 320 -515 338 -513V-595C320 -591 295 -588 241 -586V-749C241 -762 244 -767 251 -770C278 -782 275 -801 244 -801C210 -801 192 -802 164 -806C168 -786 168 -760 168 -586C108 -587 75 -590 54 -595V-513C75 -515 110 -517 168 -518Z"/>
</svg>