<svg xmlns="http://www.w3.org/2000/svg" viewBox="0 -1000 1000 1000">
	<path fill="#000000" d="M538 -485H392V-551H538ZM538 -605H392V-671H538ZM230 -198V-497C266 -497 284 -495 311 -490V-570C284 -566 265 -565 230 -564V-779C230 -789 238 -799 245 -804C257 -812 255 -819 242 -819C207 -819 185 -822 156 -826C159 -808 159 -794 159 -598V-564C114 -564 91 -566 60 -570V-490C90 -495 113 -497 159 -498V-176C119 -166 79 -158 42 -153C55 -122 62 -97 66 -62C169 -108 253 -137 340 -161C333 -191 331 -212 338 -242C307 -226 269 -211 230 -198ZM451 -349C380 -349 327 -351 285 -357V-291C316 -295 353 -298 395 -298C393 -150 341 -55 248 9C270 21 300 42 317 59C372 10 422 -91 442 -173H538C537 -70 522 -49 448 -53C464 -30 474 1 475 30C580 2 601 -31 605 -232C582 -229 530 -228 453 -228C457 -253 460 -278 461 -299C542 -299 596 -296 636 -291V-357C607 -353 583 -351 525 -350C516 -373 507 -401 504 -418L428 -411C437 -394 446 -370 451 -349ZM767 -233C738 -304 717 -383 713 -438L669 -427C696 -478 717 -531 730 -570H820C812 -407 793 -300 767 -233ZM766 -90C804 -31 851 19 899 60C914 36 934 10 960 -15C907 -36 841 -98 805 -155C856 -254 881 -374 892 -569C911 -569 926 -568 940 -566V-647C911 -640 889 -637 749 -636C783 -755 793 -776 799 -780C819 -791 814 -801 800 -802C777 -803 737 -808 707 -816C703 -684 660 -537 603 -444C602 -466 601 -495 601 -528V-628C601 -672 603 -711 606 -731C590 -727 545 -724 480 -723C496 -781 505 -802 509 -806C520 -812 519 -824 508 -824C487 -824 448 -825 423 -829C426 -800 423 -770 415 -724C367 -725 342 -728 326 -731C330 -710 332 -672 332 -628V-528C332 -482 329 -450 325 -423C347 -428 400 -432 466 -432C531 -432 569 -429 591 -426C589 -422 587 -419 584 -416C605 -411 628 -398 644 -383C648 -390 654 -398 658 -406C672 -325 699 -232 730 -162C667 -75 612 -15 544 23C574 36 602 57 618 75C660 42 730 -40 766 -90Z"/>
</svg>