<svg xmlns="http://www.w3.org/2000/svg" viewBox="0 -1000 1000 1000">
	<path fill="#000000" d="M821 -222H562V-262H821ZM821 -305H562V-341H821ZM821 -385H562V-421H821ZM237 -202V-509C284 -509 314 -506 343 -501V-581C314 -577 283 -575 237 -575V-776C237 -786 245 -796 252 -801C264 -809 262 -816 249 -816C214 -816 190 -819 161 -823C164 -805 164 -791 164 -595V-575C120 -575 90 -577 61 -581V-501C89 -506 120 -509 164 -509V-180C119 -168 75 -159 40 -154C55 -125 60 -100 64 -65C169 -109 252 -138 339 -162C330 -192 328 -211 337 -241C309 -228 274 -214 237 -202ZM465 -630C436 -683 410 -725 367 -781L312 -734C342 -697 382 -628 402 -580ZM721 -714H827V-653H721ZM656 -653H555V-714H656ZM721 -603C783 -603 844 -602 889 -599C887 -620 886 -651 886 -684C886 -717 887 -748 889 -769C844 -766 783 -765 721 -765C722 -796 726 -807 732 -812C740 -820 737 -829 727 -828C712 -826 684 -828 652 -834C654 -816 655 -793 656 -765C596 -765 540 -766 495 -769C499 -746 502 -717 502 -684C502 -655 500 -628 495 -599C540 -602 596 -603 656 -603V-561C562 -562 493 -564 440 -569V-504C498 -509 577 -512 686 -512C795 -512 873 -509 930 -504V-569C879 -565 812 -562 721 -561ZM430 -108V-357C430 -411 432 -445 439 -475C414 -470 393 -469 362 -469C338 -469 295 -472 276 -475V-395C286 -398 302 -399 319 -399H367V-96C343 -81 324 -67 276 -30C296 -13 308 8 318 37C392 -52 402 -55 442 -22C492 20 571 37 939 47C937 17 941 -2 958 -32C802 -20 720 -20 586 -34C561 -36 540 -42 521 -50C554 -66 584 -84 624 -112C633 -118 656 -121 668 -120C676 -119 678 -125 670 -134C661 -144 648 -161 638 -176H747L717 -132C771 -112 802 -94 865 -48L895 -109C847 -138 809 -157 754 -176C825 -175 861 -174 891 -171C890 -182 889 -211 889 -235V-414C889 -438 890 -466 891 -478C853 -474 807 -473 692 -473C580 -473 532 -474 493 -478C496 -465 498 -438 498 -414V-235C498 -211 495 -183 493 -171C522 -175 555 -176 616 -176C580 -148 530 -119 478 -101C491 -86 501 -72 509 -54C485 -65 467 -79 457 -90C450 -99 441 -105 430 -108Z"/>
</svg>