<svg xmlns="http://www.w3.org/2000/svg" viewBox="0 -1000 1000 1000">
	<path fill="#000000" d="M212 -536H295C281 -405 262 -313 233 -241C209 -261 184 -280 161 -297C181 -396 198 -474 212 -536ZM747 -824L671 -805C693 -702 743 -583 777 -534C809 -488 878 -429 926 -399C942 -435 957 -459 978 -484C914 -506 883 -531 836 -589C796 -638 768 -699 747 -824ZM537 -382C536 -308 523 -227 497 -150C479 -98 392 -11 314 18C353 34 381 52 399 75C468 33 540 -47 569 -115C589 -163 612 -282 618 -382H748L740 -147C736 -26 724 -18 607 -23C631 11 644 40 652 72C793 58 815 10 818 -93L830 -456C796 -451 758 -450 662 -450C586 -450 487 -453 456 -455C518 -553 558 -636 575 -700C585 -737 594 -754 602 -760C619 -771 618 -779 602 -780C575 -781 550 -790 519 -808C509 -755 498 -704 481 -650C465 -598 413 -512 357 -449C364 -496 371 -550 377 -611C354 -607 315 -604 227 -604C260 -749 271 -775 282 -783C301 -797 298 -805 278 -807C253 -810 215 -820 181 -834C181 -777 168 -692 151 -604C110 -605 77 -608 58 -611V-528C77 -532 105 -535 137 -535C106 -378 96 -341 71 -277C121 -242 163 -208 200 -174C162 -111 112 -63 41 -8C70 4 93 24 109 51C155 14 217 -62 253 -123C285 -89 311 -59 336 -23C356 -49 381 -71 409 -84C376 -117 334 -156 290 -194C317 -255 336 -323 352 -417C373 -403 389 -384 397 -367C416 -394 434 -421 451 -447V-375C475 -380 503 -382 537 -382Z"/>
</svg>