<svg xmlns="http://www.w3.org/2000/svg" viewBox="0 -1000 1000 1000">
	<path fill="#000000" d="M818 -571C831 -553 844 -533 858 -511L918 -560C870 -626 830 -677 766 -752L709 -718C735 -686 756 -657 779 -626L518 -612C558 -657 582 -685 616 -723C637 -746 660 -767 676 -776C695 -786 692 -791 675 -794C652 -798 618 -813 590 -834C571 -786 531 -725 492 -681C438 -621 428 -614 397 -601C411 -574 418 -556 425 -527C448 -539 474 -545 514 -548ZM611 -384C609 -327 605 -289 600 -263C495 -264 417 -267 356 -273V-187C412 -193 485 -197 580 -198C540 -98 475 -53 318 9C348 30 365 49 380 76C535 -5 601 -70 643 -175C710 -54 815 35 910 63C921 34 942 -4 966 -26C852 -40 763 -105 696 -198C799 -197 874 -193 933 -187V-273C869 -266 786 -263 670 -263C675 -290 678 -332 680 -384C792 -384 842 -383 881 -380V-451C841 -449 790 -447 668 -447H514C532 -483 538 -491 546 -495C557 -500 553 -507 543 -509C521 -514 495 -524 468 -540C452 -468 420 -394 363 -333C386 -326 404 -316 426 -294C450 -330 463 -352 481 -384ZM276 -181C312 -260 344 -395 359 -614C336 -609 301 -608 221 -608C247 -752 255 -778 262 -785C285 -804 283 -808 263 -809C230 -811 201 -816 165 -831C169 -789 167 -722 151 -608C96 -608 77 -610 57 -614V-533C79 -537 105 -539 141 -540C121 -418 97 -308 78 -242C119 -220 148 -200 187 -167C150 -110 101 -66 37 -19C67 -7 90 10 110 35C155 -9 205 -66 241 -119C277 -86 296 -62 327 -18C346 -50 360 -65 386 -84C351 -118 318 -148 276 -181ZM208 -540H282C271 -399 252 -302 218 -227C201 -240 182 -253 161 -268C181 -382 196 -471 208 -540Z"/>
</svg>