<svg xmlns="http://www.w3.org/2000/svg" viewBox="0 -1000 1000 1000">
	<path fill="#000000" d="M687 -349H781V-209H687ZM615 -209H522V-349H615ZM272 -189C321 -301 343 -430 370 -628C348 -624 309 -621 223 -621C254 -756 263 -774 273 -782C290 -796 288 -803 269 -804C232 -805 208 -811 177 -827C181 -786 175 -743 154 -621C108 -622 83 -624 63 -628V-547C82 -551 110 -554 142 -554C119 -433 96 -345 70 -275C109 -247 150 -212 188 -173C147 -98 96 -40 35 4C63 16 82 32 98 59C151 9 202 -61 237 -121C265 -87 291 -53 312 -19C332 -45 353 -63 380 -76C342 -118 307 -155 272 -189ZM209 -555H289C277 -429 254 -325 219 -239C198 -258 177 -276 154 -295C176 -405 194 -490 209 -555ZM615 -552V-408H522V-552ZM781 -552V-408H687V-552ZM615 -707V-611C511 -612 447 -614 386 -620V-545C406 -548 435 -550 455 -550V-409C420 -409 382 -412 364 -415V-342C388 -345 422 -348 455 -348V-210C429 -210 397 -213 371 -217V-142C435 -147 507 -150 615 -151V-31C520 -32 451 -34 391 -38V39C457 36 535 33 652 33C771 33 854 36 919 39V-38C860 -34 789 -32 687 -31V-151C768 -151 879 -147 945 -142V-217C916 -213 885 -210 850 -209V-349C892 -348 927 -345 958 -341V-414C927 -411 893 -409 850 -408V-551C882 -550 906 -548 934 -545V-620C874 -615 795 -612 687 -611V-716C781 -726 855 -726 887 -722C898 -720 903 -728 892 -741C875 -761 866 -782 851 -820C813 -800 748 -785 613 -770C497 -757 442 -754 399 -759C415 -738 425 -714 426 -690C469 -691 537 -697 615 -707Z"/>
</svg>