<svg xmlns="http://www.w3.org/2000/svg" viewBox="0 -1000 1000 1000">
	<path fill="#000000" d="M148 -605C115 -605 81 -608 63 -611V-531C82 -535 113 -538 137 -538C121 -437 106 -375 75 -286C127 -251 168 -220 201 -190C162 -120 110 -63 43 -18C72 -6 89 10 105 37C155 -3 217 -78 252 -140C275 -114 296 -87 315 -57C335 -83 356 -102 383 -119C355 -150 322 -181 287 -211C331 -309 355 -413 375 -611C352 -607 313 -604 222 -604C257 -761 266 -775 276 -783C294 -798 292 -805 272 -807C247 -810 204 -820 170 -834C170 -777 161 -693 148 -605ZM208 -539H296C284 -426 263 -333 232 -256C209 -274 185 -292 159 -309C178 -404 194 -479 208 -539ZM852 -163L749 -144C774 -184 796 -222 811 -250C823 -272 835 -288 843 -292C860 -300 860 -307 842 -309C830 -310 798 -324 775 -337C767 -291 746 -234 726 -196C714 -174 700 -155 684 -142C697 -124 709 -99 711 -80C727 -89 757 -98 777 -102L865 -121C868 -110 870 -99 872 -89L930 -111C919 -151 900 -194 878 -233L829 -217C837 -201 845 -182 852 -163ZM665 -505H794V-405H653C658 -434 662 -468 665 -505ZM584 -405H476V-505H596C594 -466 589 -433 584 -405ZM671 -658H794V-562H669C670 -594 671 -626 671 -658ZM599 -562H476V-658H601C602 -623 601 -591 599 -562ZM606 -245C609 -224 610 -194 610 -171V-42C610 40 616 50 765 50C916 50 934 46 963 -53C939 -54 909 -67 894 -89C882 -17 877 -12 776 -12C681 -12 673 -19 673 -51V-171C673 -201 684 -242 691 -252C700 -266 697 -270 680 -266C667 -263 637 -265 616 -269C626 -295 635 -321 642 -348C774 -348 841 -345 873 -340C868 -369 865 -405 865 -452V-622C865 -653 868 -697 873 -726C838 -720 784 -716 722 -716H612C640 -771 653 -789 661 -794C677 -805 672 -811 659 -811C633 -811 601 -817 569 -828C564 -789 557 -755 544 -716C482 -716 438 -720 399 -726C403 -695 406 -664 406 -622V-400C406 -368 403 -335 397 -301H474V-348H570C518 -176 424 -73 251 15C283 24 312 42 330 63C459 -11 553 -121 606 -245Z"/>
</svg>