<svg xmlns="http://www.w3.org/2000/svg" viewBox="0 -1000 1000 1000">
	<path fill="#000000" d="M205 -737L145 -739C148 -701 138 -635 123 -597L193 -594C205 -645 209 -688 205 -737ZM600 -731L535 -744C542 -708 531 -646 507 -609L580 -603C590 -654 595 -684 600 -731ZM482 -736C453 -743 442 -749 415 -764C404 -717 396 -695 367 -633C390 -631 410 -623 429 -609C467 -704 477 -720 480 -721C495 -727 493 -734 482 -736ZM876 -738C848 -749 830 -758 805 -776C795 -729 786 -703 756 -642C779 -636 795 -628 814 -612C859 -704 867 -717 874 -720C891 -729 890 -732 876 -738ZM684 -580C737 -536 774 -499 808 -458L873 -513C807 -565 779 -586 703 -638C707 -654 710 -672 712 -692C718 -749 727 -789 736 -795C751 -804 746 -810 733 -810C711 -808 682 -810 646 -816C658 -608 614 -545 493 -501C523 -488 531 -482 553 -454C618 -488 659 -526 684 -580ZM614 -80C660 -126 686 -162 703 -199C783 -198 843 -195 895 -191V-267C824 -261 738 -259 605 -259H444C477 -308 487 -320 494 -321C511 -324 515 -347 499 -347C483 -347 442 -360 419 -374C410 -350 397 -323 360 -259C244 -259 165 -261 101 -267V-191C159 -196 227 -198 323 -199C302 -166 281 -137 255 -104C317 -92 398 -72 466 -53C384 -16 258 3 80 1C99 24 111 47 117 74C306 74 471 33 556 -27C665 8 743 41 827 80C837 48 850 25 874 1C775 -32 682 -60 614 -80ZM405 -199H620C590 -149 569 -123 541 -101C492 -115 430 -133 371 -148C384 -167 395 -184 405 -199ZM169 -450C232 -478 282 -521 311 -579C358 -533 390 -496 422 -454L484 -516C419 -570 401 -584 331 -637C335 -655 338 -674 339 -694C341 -733 356 -791 365 -797C380 -806 377 -813 362 -812C340 -811 311 -812 275 -818C287 -610 244 -537 112 -504C141 -488 148 -480 161 -450C133 -451 111 -452 88 -453V-300H166V-385H833V-309H913V-453C836 -449 758 -447 500 -447C326 -447 234 -448 169 -450Z"/>
</svg>