<svg xmlns="http://www.w3.org/2000/svg" viewBox="0 -1000 1000 1000">
	<path fill="#000000" d="M413 -180H619C600 -147 575 -114 550 -92C505 -102 440 -116 378 -127C391 -147 403 -165 413 -180ZM353 -607C340 -638 331 -658 318 -680L245 -655C264 -627 272 -611 281 -581ZM354 -418C340 -439 328 -462 319 -492L246 -469C262 -441 269 -422 276 -389ZM478 -634C504 -615 518 -598 535 -571C596 -614 623 -661 625 -732H745L744 -664C743 -610 753 -601 779 -598C826 -593 862 -592 905 -593C906 -622 910 -640 922 -664C889 -662 868 -663 833 -664C812 -665 808 -675 808 -713C808 -760 810 -781 813 -800C776 -797 735 -797 681 -797C625 -797 591 -798 558 -800C563 -761 562 -732 552 -695C546 -672 528 -657 478 -634ZM142 -568C112 -569 82 -570 54 -573V-500C82 -503 111 -505 141 -505C138 -425 115 -374 52 -304C81 -292 103 -278 123 -256C187 -350 206 -413 209 -505H393V-416C393 -385 377 -374 315 -380C330 -358 341 -321 342 -287C367 -293 386 -300 402 -308C395 -293 384 -275 366 -246C238 -246 149 -248 81 -254V-172C143 -177 218 -179 324 -180C306 -152 287 -128 260 -98C325 -85 411 -66 481 -49C407 -16 304 -6 124 -3C144 19 156 43 162 71C351 64 483 38 569 -25C674 6 745 34 828 71C836 41 853 17 878 -6C783 -36 695 -61 627 -76C665 -115 688 -147 701 -180C784 -180 867 -177 926 -172V-254C855 -248 768 -246 637 -246H459C477 -270 484 -277 491 -281C506 -289 509 -294 493 -297C476 -300 448 -310 426 -322C449 -339 457 -360 457 -384V-670C457 -713 458 -738 461 -758C436 -756 391 -755 359 -755H307C322 -776 335 -787 352 -798C366 -806 364 -813 351 -815C319 -820 287 -828 259 -837C256 -809 248 -781 238 -755C207 -755 161 -756 138 -758C141 -738 142 -716 142 -672ZM393 -568H209V-698H393ZM536 -505C561 -456 594 -414 630 -384C584 -366 529 -353 466 -347C491 -326 507 -307 519 -278C582 -297 636 -320 685 -347C735 -320 799 -300 894 -277C901 -312 911 -336 942 -365C865 -365 802 -372 749 -390C810 -437 855 -495 884 -567C829 -565 765 -563 691 -563C632 -563 552 -565 495 -567V-503C504 -504 517 -504 536 -505ZM606 -506H775C751 -467 724 -440 690 -416C654 -440 626 -471 606 -506Z"/>
</svg>