<svg xmlns="http://www.w3.org/2000/svg" viewBox="0 -1000 1000 1000">
	<path fill="#000000" d="M554 -481V-494C554 -509 556 -515 566 -519C584 -528 582 -541 558 -540C535 -539 507 -540 483 -544C486 -532 487 -506 487 -481C445 -482 417 -483 391 -486V-420C415 -423 445 -425 487 -425V-343C450 -340 414 -339 379 -340C387 -309 392 -282 390 -265C481 -288 541 -297 628 -302C626 -321 626 -341 627 -361C604 -356 582 -353 554 -349V-425C584 -425 617 -423 641 -420V-486C624 -484 581 -481 554 -481ZM827 -485V-494C827 -510 828 -515 835 -519C848 -526 847 -541 828 -540C805 -539 780 -540 756 -544C758 -532 760 -509 760 -485C719 -486 691 -487 663 -490V-425C689 -428 720 -430 760 -430V-349C711 -349 681 -351 649 -354V-289C684 -293 721 -294 787 -294C853 -294 894 -293 929 -289V-354C902 -351 870 -349 827 -349V-430C871 -430 903 -428 930 -425V-490C902 -487 871 -486 827 -485ZM528 -178C503 -70 462 -35 331 0C354 22 366 43 373 71C525 16 576 -51 601 -179H680V-19C680 33 695 48 799 48C915 48 932 37 967 -62C935 -68 920 -78 894 -99C880 -34 862 -18 812 -18C758 -18 752 -24 752 -50V-179C828 -179 896 -175 938 -170V-248C901 -243 824 -240 661 -240C509 -240 424 -243 389 -248V-170C436 -174 483 -177 528 -178ZM620 -679V-613C492 -613 418 -616 387 -620V-543C450 -551 483 -552 546 -552H792C874 -552 911 -550 953 -543V-620C918 -615 846 -613 695 -613V-679C793 -679 858 -676 916 -671V-749C858 -744 793 -740 695 -739V-783C695 -801 698 -809 703 -813C716 -822 715 -828 703 -828C674 -828 658 -830 617 -836C619 -828 620 -804 620 -739C523 -740 461 -743 401 -749V-671C458 -676 523 -679 620 -679ZM157 -614C104 -615 80 -617 59 -621V-541C84 -546 108 -548 148 -549C125 -399 110 -315 86 -234C125 -221 164 -203 200 -182C163 -111 115 -54 56 -7C93 13 110 25 122 44C172 2 217 -53 259 -143C303 -111 341 -75 371 -38C387 -70 405 -91 431 -111C373 -153 333 -181 288 -208C330 -310 347 -398 366 -621C345 -617 309 -614 230 -614C256 -752 267 -785 278 -792C294 -803 292 -811 274 -814C242 -820 219 -826 177 -838C175 -755 171 -705 157 -614ZM218 -549H289C282 -428 261 -327 228 -243C211 -253 192 -263 171 -274C190 -390 206 -480 218 -549Z"/>
</svg>