<svg xmlns="http://www.w3.org/2000/svg" viewBox="0 -1000 1000 1000">
	<path fill="#000000" d="M675 -79H853V-55C853 -9 844 0 772 -15C791 17 797 41 798 74C897 65 922 44 922 -26V-301C922 -335 922 -367 924 -384C884 -381 823 -380 765 -380C705 -380 641 -381 606 -384C608 -363 608 -336 608 -301V-76C608 -24 607 14 603 68H675ZM853 -259H675V-319H853ZM675 -197H853V-141H675ZM658 -644C631 -586 597 -545 537 -493C557 -485 579 -468 592 -446C630 -484 661 -525 687 -571V-538C709 -541 736 -544 762 -545V-480C703 -481 666 -483 644 -486V-418C677 -423 728 -425 792 -425C855 -425 908 -423 942 -418V-486C921 -483 886 -481 827 -480V-546C869 -546 898 -543 917 -539V-609C883 -604 859 -602 796 -602C767 -602 741 -603 706 -606C712 -618 718 -631 724 -644H825C894 -644 921 -643 953 -639V-714C913 -710 894 -709 825 -709H748C768 -763 778 -780 787 -785C802 -794 802 -805 788 -807C762 -811 735 -818 708 -829C706 -796 698 -755 683 -709C639 -709 606 -711 580 -714V-639C600 -642 627 -644 658 -644ZM423 -208C447 -176 455 -139 454 -106C545 -129 560 -175 560 -277C560 -343 539 -404 500 -454L573 -772C544 -768 517 -766 466 -766C415 -766 379 -767 351 -772C353 -754 354 -711 354 -674V-159C354 -77 353 -16 350 71H420V-704H493L439 -451C479 -389 499 -333 499 -281C499 -208 481 -191 423 -208ZM139 -621C104 -621 75 -623 53 -627V-547C73 -550 97 -553 132 -554C121 -454 104 -358 84 -265C123 -241 158 -218 189 -194C157 -138 99 -71 35 -17C65 -3 86 14 102 41C165 -25 211 -87 243 -149C266 -128 285 -108 301 -89C316 -120 331 -141 349 -163C326 -181 301 -200 274 -220C307 -311 327 -428 335 -627C313 -623 288 -621 209 -620C236 -768 243 -786 250 -791C272 -809 269 -813 246 -815C217 -818 191 -825 156 -837C152 -758 146 -692 139 -621ZM197 -555H263C255 -427 242 -334 217 -260C197 -273 176 -287 154 -301C171 -407 186 -490 197 -555Z"/>
</svg>