<svg xmlns="http://www.w3.org/2000/svg" viewBox="0 -1000 1000 1000">
	<path fill="#000000" d="M701 -135H587V-204H701ZM767 -85C765 -100 765 -114 765 -137V-201C765 -220 765 -239 767 -254C742 -253 694 -253 644 -253C587 -253 548 -252 523 -254C525 -239 525 -221 525 -201V-137C525 -118 525 -99 523 -85C546 -85 592 -86 649 -86C699 -86 744 -85 767 -85ZM475 16H811V71H888C886 18 885 -36 885 -94V-271C885 -309 885 -334 888 -361C865 -357 818 -355 645 -355C472 -355 424 -357 401 -361C403 -334 404 -311 404 -271V-57C404 7 403 32 398 71H475ZM811 -45H475V-298H811ZM260 -176C296 -255 327 -389 342 -606C319 -601 290 -600 209 -600C239 -758 245 -779 252 -786C275 -805 273 -809 253 -810C220 -812 193 -817 157 -832C160 -787 157 -736 140 -600C93 -600 68 -602 48 -606V-525C71 -529 101 -532 132 -532C115 -410 92 -302 69 -234C111 -211 141 -191 181 -157C145 -102 97 -62 29 -14C70 3 78 10 93 37C143 -4 183 -47 227 -115C263 -78 283 -49 314 2C333 -31 352 -56 377 -76C342 -109 304 -141 260 -176ZM196 -532H270C258 -382 240 -285 210 -214C190 -228 169 -244 146 -260C167 -374 183 -463 196 -532ZM605 -668V-453C494 -454 409 -456 344 -462V-387C418 -394 521 -396 658 -396C794 -396 888 -394 961 -387V-462C892 -455 804 -453 680 -453V-668H771C753 -605 723 -547 687 -505C706 -495 719 -485 736 -470C751 -490 772 -522 790 -554C818 -534 839 -513 866 -477L916 -533C872 -566 846 -583 814 -600C822 -614 831 -622 841 -626C860 -634 858 -649 842 -651C829 -653 814 -658 795 -668C863 -667 891 -666 928 -663V-735C866 -730 788 -728 680 -728V-770C680 -783 684 -795 691 -799C712 -815 705 -825 687 -825C650 -824 633 -825 599 -830C604 -809 605 -785 605 -728C498 -728 414 -730 353 -735V-663C379 -666 426 -668 463 -668C440 -597 402 -538 360 -503C382 -493 396 -484 412 -467C431 -490 446 -509 472 -552C497 -531 515 -510 540 -475L594 -526C563 -552 533 -573 499 -594C513 -612 525 -623 532 -626C552 -634 548 -651 533 -653C523 -654 509 -660 494 -668Z"/>
</svg>