<svg xmlns="http://www.w3.org/2000/svg" viewBox="0 -1000 1000 1000">
	<path fill="#000000" d="M191 -541H245C240 -397 221 -301 198 -230C184 -241 169 -253 152 -266C168 -382 181 -471 191 -541ZM253 -184C281 -266 303 -403 316 -613C297 -608 269 -607 200 -607C223 -761 229 -779 235 -786C254 -805 253 -810 236 -810C205 -810 175 -816 143 -830C146 -786 144 -736 133 -607C93 -608 72 -609 54 -613V-534C75 -538 96 -540 127 -541C115 -411 96 -310 76 -239C112 -218 139 -198 173 -166C143 -105 100 -63 38 -13C69 2 85 13 103 38C148 -4 185 -50 223 -117C250 -87 264 -69 289 -29C307 -56 327 -76 348 -95C318 -126 288 -154 253 -184ZM481 -594H449C419 -594 387 -595 361 -599C386 -629 401 -651 414 -671H511ZM509 -536H562V-344H505C509 -394 511 -465 509 -536ZM444 -344H401V-536H449C451 -443 448 -392 444 -344ZM917 -107C925 -106 931 -105 938 -104V-182C914 -177 875 -175 832 -173V-355C866 -354 893 -352 913 -348V-424C893 -420 866 -417 832 -417V-573C873 -572 904 -570 928 -566V-640C904 -635 873 -633 832 -632V-748C832 -764 834 -773 844 -781C863 -796 857 -805 837 -803C812 -801 784 -802 756 -805C762 -766 764 -741 764 -668V-632C741 -633 725 -633 712 -634C721 -674 725 -683 730 -692C744 -717 741 -724 721 -719C706 -715 682 -716 659 -724C664 -657 648 -601 624 -545C625 -567 626 -586 628 -603C608 -600 580 -596 548 -594L599 -737C574 -731 543 -729 445 -728C463 -760 470 -770 480 -775C497 -783 492 -792 479 -794C460 -797 431 -811 409 -827C389 -738 347 -680 299 -631C317 -626 333 -617 347 -601C344 -602 341 -602 339 -603C342 -573 344 -544 344 -495V-380C344 -347 342 -307 339 -279C376 -283 403 -285 436 -285C416 -147 370 -61 269 29C299 43 320 61 336 83C428 -21 479 -132 499 -286C550 -285 596 -282 628 -279C624 -308 623 -334 623 -381V-520C640 -514 659 -503 680 -492C687 -522 693 -548 697 -569C715 -571 733 -573 764 -574V-416C722 -417 696 -419 672 -424V-348C695 -352 722 -355 764 -356V-173C717 -174 678 -176 652 -181V-102C682 -107 731 -110 790 -110C854 -110 887 -109 912 -107C890 -35 861 -19 733 -19C582 -19 574 -25 574 -57V-167C574 -197 579 -222 586 -231C595 -242 590 -249 579 -245C567 -241 519 -247 503 -258C504 -232 505 -185 505 -150V-58C505 39 523 51 723 51C900 51 940 36 973 -49C950 -55 934 -75 917 -107Z"/>
</svg>