<svg xmlns="http://www.w3.org/2000/svg" viewBox="0 -1000 1000 1000">
	<path fill="#000000" d="M230 -724H792V-652H230ZM380 -323C408 -366 419 -378 434 -384C455 -393 456 -404 439 -406C418 -409 402 -416 378 -435C360 -397 346 -373 307 -323C281 -287 245 -250 206 -215C216 -274 222 -339 226 -413C239 -402 249 -389 257 -373C305 -413 332 -439 368 -477C401 -512 417 -522 429 -524C447 -528 449 -540 434 -544C409 -551 393 -561 373 -578C359 -555 350 -545 319 -511C276 -466 254 -446 227 -425C229 -477 230 -533 230 -594H683C787 -594 836 -592 869 -587C867 -617 867 -654 867 -696C867 -734 867 -771 869 -793C830 -785 778 -784 509 -784C221 -784 178 -787 140 -793C153 -594 155 -503 150 -391C141 -180 109 -85 37 26C71 35 98 49 117 74C157 -11 185 -95 202 -191C214 -182 224 -170 233 -153C263 -181 291 -209 315 -236V-93C315 -38 312 8 304 61H380ZM831 -477V-522C831 -536 833 -543 841 -550C850 -559 847 -565 837 -564C824 -563 795 -566 769 -571C770 -553 771 -534 771 -485V-477H666V-526C666 -541 668 -545 676 -550C688 -559 684 -567 674 -566C657 -565 624 -567 603 -570C605 -552 607 -525 607 -482V-477H547C547 -511 551 -522 560 -530C569 -538 569 -543 556 -542C534 -541 510 -543 485 -548C487 -527 489 -510 490 -477C473 -478 456 -479 425 -483V-422C457 -427 475 -429 490 -430V-308C490 -277 489 -263 485 -230C502 -233 560 -236 659 -237V-182C526 -181 458 -184 412 -189V-127C458 -131 520 -134 595 -135C531 -80 475 -55 394 -31C416 -13 425 2 431 33C533 -11 603 -63 659 -132V-8C659 15 657 42 653 69H726C723 43 722 15 722 -8V-135H728C769 -56 823 -14 928 32C935 1 944 -19 963 -45C885 -61 836 -81 779 -135C822 -135 892 -132 935 -127V-189C888 -185 821 -182 722 -182V-237C795 -237 858 -231 874 -228V-294C839 -288 798 -285 758 -285H547V-431H607V-327C631 -328 660 -329 703 -329C744 -329 804 -328 831 -327V-430C858 -430 888 -427 925 -422V-485C887 -480 864 -478 831 -477ZM771 -431V-377H666V-431Z"/>
</svg>