<svg xmlns="http://www.w3.org/2000/svg" viewBox="0 -1000 1000 1000">
	<path fill="#000000" d="M457 -247V-145C325 -146 226 -150 150 -158V-69C225 -76 324 -80 457 -81C457 -10 456 24 452 79H539C535 23 534 -10 534 -81C670 -80 763 -76 839 -69V-158C763 -150 670 -146 534 -145V-247C708 -247 825 -244 922 -235V-321C846 -315 758 -311 638 -310C664 -338 690 -363 713 -378C729 -389 727 -396 717 -398C698 -402 664 -415 634 -431C617 -393 597 -358 564 -309H364L403 -323C389 -365 378 -384 351 -424L278 -397C297 -375 317 -342 328 -310C210 -312 142 -315 70 -321V-235C164 -243 276 -246 457 -247ZM457 -497C331 -499 208 -505 137 -513V-423C224 -432 329 -435 494 -435C657 -435 765 -432 853 -423V-510C778 -502 668 -498 541 -497C530 -530 521 -563 519 -584L438 -564C445 -544 452 -521 457 -497ZM528 -656C527 -753 533 -801 541 -810C552 -821 549 -829 535 -828C499 -825 475 -826 451 -831C455 -797 455 -779 455 -656H226C225 -721 228 -735 237 -750C244 -762 241 -768 233 -767C205 -764 173 -766 146 -774C151 -743 152 -721 149 -585C204 -590 349 -593 497 -593C674 -593 805 -589 839 -585C836 -720 843 -754 852 -766C860 -777 857 -782 846 -780C824 -776 787 -779 758 -785C762 -745 765 -708 767 -656Z"/>
</svg>