<svg xmlns="http://www.w3.org/2000/svg" viewBox="0 -1000 1000 1000">
	<path fill="#000000" d="M579 -263H739C731 -209 708 -164 669 -129C635 -162 606 -206 579 -263ZM369 -164C400 -149 421 -136 435 -121C472 -151 505 -182 534 -214C558 -163 584 -122 614 -89C532 -39 423 -5 333 -9C359 22 369 49 373 72C473 62 599 10 670 -40C733 5 813 32 924 52C926 20 937 -10 958 -46C860 -44 785 -55 725 -88C782 -149 811 -225 825 -332C811 -330 765 -328 730 -328H617C655 -385 674 -408 683 -411C700 -419 699 -427 677 -431C660 -434 632 -444 603 -459C560 -333 460 -223 369 -174V-327C397 -317 421 -310 437 -299C532 -436 541 -449 548 -451C563 -456 564 -464 542 -470C521 -476 505 -483 479 -499C445 -424 414 -382 369 -344V-584C369 -598 370 -608 384 -620C394 -629 393 -637 380 -635C369 -633 321 -638 297 -644C303 -624 305 -601 305 -524V-223L257 -218V-774C257 -793 259 -805 271 -813C279 -820 277 -826 263 -825C248 -824 205 -826 180 -829C186 -799 187 -770 187 -694V-211L140 -206V-586C140 -601 142 -609 154 -619C165 -629 162 -637 150 -636C137 -635 94 -638 66 -645C71 -624 73 -593 73 -529V-230C73 -197 71 -162 66 -127C91 -132 128 -139 166 -144L305 -164V-88H375C372 -113 370 -138 369 -164ZM932 -375C888 -417 824 -466 765 -502L715 -448C776 -415 847 -352 876 -314ZM616 -575C520 -576 454 -580 396 -586V-506C462 -513 545 -515 669 -515C795 -515 877 -513 944 -506V-586C881 -579 802 -576 689 -575V-666C769 -665 867 -661 908 -656V-736C867 -731 769 -727 689 -726V-784C689 -796 695 -812 703 -818C717 -828 715 -835 698 -835C664 -835 640 -837 612 -841C615 -823 616 -782 616 -726C542 -728 460 -731 423 -736V-656C459 -661 541 -664 616 -666Z"/>
</svg>