<svg xmlns="http://www.w3.org/2000/svg" viewBox="0 -1000 1000 1000">
	<path fill="#000000" d="M770 -705C801 -725 831 -742 846 -749C878 -763 889 -766 897 -767C914 -769 915 -777 899 -784C882 -791 856 -812 834 -837C800 -802 760 -766 707 -731C641 -758 577 -782 528 -799L491 -743C538 -730 591 -711 644 -689C576 -648 522 -622 462 -609C485 -599 498 -586 519 -557C606 -597 658 -624 709 -661C775 -631 838 -598 888 -566L929 -633C884 -655 828 -680 770 -705ZM823 -259H603V-317H823ZM603 -199H823V-139H603ZM591 -451C542 -361 496 -314 426 -263V-592C426 -607 429 -616 444 -628C457 -638 454 -645 440 -643C426 -641 381 -642 354 -646C358 -621 361 -574 361 -541V-179L293 -173V-759C293 -778 297 -784 314 -795C326 -803 322 -813 304 -812C273 -810 246 -811 218 -814C225 -778 228 -742 228 -686V-167L155 -161V-588C155 -603 158 -610 170 -620C183 -630 180 -639 166 -638C137 -636 113 -637 84 -642C88 -613 90 -575 90 -526V-192C90 -135 88 -115 83 -81C107 -88 144 -96 194 -101L361 -117V-43H432C428 -86 426 -117 426 -161V-256C441 -245 463 -213 469 -198C492 -222 514 -244 533 -266V-84C533 -44 530 8 525 60H603V-79H823V-37C823 -9 819 -2 737 2C754 29 760 45 762 73C887 60 894 43 894 -12V-270C894 -320 895 -358 899 -389C863 -382 806 -379 695 -379H623C640 -403 655 -427 669 -452C848 -452 893 -451 958 -447V-519C899 -512 860 -511 700 -511C722 -553 729 -561 736 -566C752 -577 751 -586 736 -589C716 -593 679 -602 655 -611C649 -576 644 -561 621 -511C544 -512 500 -514 450 -519V-444C505 -449 532 -451 591 -451Z"/>
</svg>