<svg xmlns="http://www.w3.org/2000/svg" viewBox="0 -1000 1000 1000">
	<path fill="#000000" d="M297 -145V-80H365C360 -121 357 -174 357 -218V-584C357 -598 360 -608 375 -620C386 -629 385 -637 371 -635C357 -633 314 -638 288 -644C294 -624 297 -601 297 -524V-204L248 -198V-764C248 -783 251 -795 263 -803C274 -810 272 -816 255 -815C239 -814 207 -816 179 -819C186 -789 188 -753 188 -677V-190L141 -184V-586C141 -601 144 -609 155 -619C168 -629 165 -637 152 -636C138 -635 101 -638 70 -645C75 -624 77 -593 77 -529V-212C77 -179 75 -144 70 -109C101 -118 134 -124 174 -129ZM933 -156C912 -166 895 -181 877 -205C836 -166 783 -127 724 -94C640 -47 570 -20 468 -1C499 20 509 37 522 63C660 16 748 -27 842 -93C897 -131 916 -140 924 -141C943 -144 946 -149 933 -156ZM902 -296C874 -310 863 -325 846 -349C809 -317 764 -288 715 -259C655 -225 587 -199 504 -183C531 -163 542 -146 554 -120C653 -153 699 -174 805 -238C860 -272 884 -282 894 -281C912 -279 916 -289 902 -296ZM826 -426C805 -437 792 -447 774 -470C741 -444 703 -420 665 -401C604 -370 542 -350 496 -342C521 -324 536 -304 548 -282C647 -318 712 -351 748 -372C803 -406 810 -411 818 -412C838 -415 840 -419 826 -426ZM715 -538L618 -540C606 -574 593 -612 583 -643L514 -626C528 -604 539 -573 546 -540C465 -540 446 -542 417 -547C431 -147 402 -70 306 44C344 50 366 58 387 71C457 -57 484 -145 484 -476H757C861 -476 909 -472 940 -468V-547C912 -541 875 -538 785 -537C812 -584 831 -609 848 -615C865 -621 866 -627 851 -629C829 -632 810 -640 775 -659C762 -619 737 -574 715 -538ZM639 -729C523 -729 467 -734 404 -740V-659C474 -666 525 -669 653 -669C780 -669 857 -666 926 -659V-740C865 -732 791 -729 665 -729L715 -751C703 -785 694 -803 678 -830L604 -800C620 -776 631 -756 639 -729Z"/>
</svg>