<svg xmlns="http://www.w3.org/2000/svg" viewBox="0 -1000 1000 1000">
	<path fill="#000000" d="M461 -287H253V-367H461ZM830 -220C825 -250 823 -287 823 -320V-473C823 -503 825 -545 829 -579C749 -572 688 -570 493 -570C299 -570 250 -572 167 -579C171 -559 174 -523 174 -478V-318C174 -273 172 -249 165 -219C255 -225 308 -226 501 -226C708 -226 765 -224 830 -220ZM745 -287H536V-367H745ZM461 -428H253V-507H461ZM745 -428H536V-508H745ZM231 -149L148 -170C140 -82 125 -45 75 25L162 52C190 -14 208 -67 231 -149ZM763 -57C729 -63 703 -76 679 -103C665 -28 646 -19 586 -11C535 -4 467 -2 417 -7C377 -11 374 -13 374 -56V-140C374 -155 377 -161 390 -170C405 -182 401 -188 380 -186C352 -184 324 -187 286 -194C293 -169 295 -154 295 -113V-42C295 33 305 56 397 62C462 66 534 65 605 60C711 52 717 46 763 -57ZM944 -52C887 -109 837 -157 783 -204L720 -154C791 -92 824 -57 869 5ZM599 -95C578 -138 555 -181 538 -210L464 -186C482 -154 501 -110 516 -66ZM453 -694H228C228 -737 231 -756 240 -771C246 -782 244 -785 236 -785C201 -784 166 -786 145 -792C151 -760 154 -716 154 -619C223 -624 291 -627 479 -627C697 -627 747 -625 834 -619C834 -734 837 -779 842 -785C850 -794 847 -798 836 -796C820 -793 770 -794 754 -802C759 -773 761 -744 761 -694H530C531 -771 535 -795 541 -802C554 -816 551 -822 535 -821C504 -820 469 -822 448 -827C451 -804 453 -760 453 -694Z"/>
</svg>