<svg xmlns="http://www.w3.org/2000/svg" viewBox="0 -1000 1000 1000">
	<path fill="#000000" d="M623 -581C609 -587 586 -606 565 -627C520 -555 463 -497 410 -463C432 -453 449 -435 458 -415C495 -445 533 -481 576 -529C593 -549 604 -556 618 -559C634 -562 638 -574 623 -581ZM902 -481C860 -526 809 -579 754 -632L706 -589C759 -539 808 -483 852 -427ZM782 -67H559V-204H782ZM700 -460C708 -467 716 -472 721 -473C737 -475 739 -486 722 -491C709 -494 676 -518 656 -535C582 -407 515 -347 375 -268V-573C375 -586 378 -598 394 -604C409 -609 402 -624 388 -625C364 -626 334 -629 307 -634C311 -612 315 -565 315 -527V-168L265 -161V-762C265 -778 267 -785 283 -797C296 -808 294 -816 276 -817C246 -819 217 -822 190 -826C196 -792 199 -752 199 -694V-151L147 -144V-576C147 -591 149 -600 161 -610C173 -620 171 -628 158 -627C129 -625 102 -627 74 -633C79 -611 83 -562 83 -513V-179C83 -131 82 -109 77 -75C101 -82 125 -87 179 -93L315 -110V-23H383C377 -70 375 -115 375 -170V-266C395 -252 411 -230 421 -206C444 -222 466 -239 488 -257C489 -243 490 -228 490 -204V-33C490 6 489 37 486 76H559V0H782V63H860C857 24 855 -7 855 -46V-204C855 -222 856 -236 857 -246C877 -236 899 -226 923 -217C931 -248 941 -270 963 -302C848 -321 779 -364 700 -460ZM818 -268C790 -267 748 -267 673 -267C570 -267 532 -268 503 -269C567 -322 626 -376 664 -418C704 -357 752 -308 818 -268ZM710 -734C703 -770 695 -799 683 -833L604 -818C617 -790 626 -764 631 -734C510 -735 451 -737 412 -741V-560H478V-676H858V-577H930V-741C892 -737 831 -735 710 -734Z"/>
</svg>