<svg xmlns="http://www.w3.org/2000/svg" viewBox="0 -1000 1000 1000">
	<path fill="#000000" d="M588 -240C519 -127 434 -66 323 -34C350 -19 372 3 386 32C505 -27 580 -104 632 -220V-47C632 5 630 37 626 73H707C702 39 701 5 701 -47V-227C747 -113 804 -41 926 26C932 -5 943 -36 964 -59C863 -95 792 -148 747 -240C823 -239 887 -237 936 -233V-299C877 -294 806 -292 701 -292V-343C701 -364 703 -367 709 -372C723 -381 721 -389 704 -388C674 -387 649 -389 626 -394C631 -369 632 -335 632 -292C534 -292 473 -295 415 -299V-233C456 -238 516 -240 588 -240ZM192 -189L140 -183V-571C140 -584 147 -596 159 -607C167 -613 167 -618 154 -618C133 -618 103 -620 72 -626C77 -603 79 -573 79 -514V-213C79 -181 76 -145 68 -110C99 -117 140 -123 189 -130L303 -147V-77H372C367 -118 364 -169 364 -212V-569C364 -584 367 -595 382 -608C389 -613 389 -618 381 -617C368 -615 324 -619 295 -625C300 -606 303 -579 303 -509V-201L254 -195V-752C254 -772 257 -786 271 -794C277 -798 275 -800 265 -800C249 -798 211 -800 183 -804C189 -774 192 -744 192 -672ZM500 -649H579C572 -592 561 -546 542 -503C524 -525 509 -546 494 -571L442 -527C470 -499 491 -474 508 -447C478 -410 432 -377 373 -346C406 -330 422 -316 430 -303C493 -341 550 -395 579 -449C612 -512 630 -571 649 -707C638 -705 622 -704 596 -704H525C557 -770 567 -786 574 -790C591 -798 589 -803 575 -804C556 -806 517 -816 494 -827C475 -729 438 -650 371 -554C390 -548 408 -538 428 -520C455 -561 470 -586 500 -649ZM780 -643V-497H710C720 -563 723 -576 730 -583C739 -593 738 -600 727 -599C716 -598 683 -602 664 -607C667 -560 659 -485 647 -436C671 -440 734 -445 780 -446C780 -401 780 -354 779 -321H849C846 -356 844 -403 844 -447C896 -447 926 -445 942 -442V-507C923 -502 881 -497 844 -497V-642C885 -642 913 -639 931 -636V-706C908 -702 882 -700 844 -699V-764C844 -775 847 -790 857 -799C872 -811 870 -820 851 -818C828 -816 799 -818 776 -822C779 -804 780 -748 780 -699C721 -700 690 -702 662 -706V-636C692 -640 723 -643 780 -643Z"/>
</svg>