<svg xmlns="http://www.w3.org/2000/svg" viewBox="0 -1000 1000 1000">
	<path fill="#000000" d="M925 -617V-698C867 -693 758 -690 651 -690C544 -690 437 -693 378 -698V-617C436 -622 544 -625 651 -625C758 -625 867 -622 925 -617ZM695 -741C678 -783 666 -806 646 -838L557 -812C580 -775 590 -750 602 -708ZM258 -183V-112H334C331 -163 329 -199 329 -244V-657C329 -696 330 -715 333 -732C293 -729 249 -728 207 -728C165 -728 123 -729 81 -732C84 -711 85 -692 85 -657V-176C85 -131 83 -91 79 -44H156V-183ZM156 -250V-660H258V-250ZM756 -189C789 -226 823 -268 860 -317C872 -332 882 -341 895 -344C907 -347 908 -356 890 -363C870 -371 839 -387 811 -404C786 -355 740 -289 689 -228C581 -99 472 -38 318 7C355 32 381 60 391 81C515 26 605 -31 708 -136C785 -74 828 -28 872 30L945 -35C886 -91 826 -142 756 -189ZM671 -459C616 -456 553 -451 504 -446C541 -485 559 -505 582 -533C601 -556 611 -565 619 -567C632 -571 629 -580 617 -583C597 -588 565 -602 545 -615C486 -515 441 -462 392 -437C402 -423 414 -396 420 -376C467 -385 517 -390 626 -395C562 -314 484 -258 365 -202C391 -186 416 -164 436 -141C588 -244 638 -286 764 -462C789 -497 803 -510 817 -513C829 -516 830 -523 813 -528C796 -533 761 -552 733 -570C719 -540 696 -499 671 -459Z"/>
</svg>