<svg xmlns="http://www.w3.org/2000/svg" viewBox="0 -1000 1000 1000">
	<path fill="#000000" d="M504 -114L435 -132C433 -84 408 -3 380 37L459 61C475 12 493 -56 504 -114ZM637 32C634 -9 626 -74 618 -117L555 -115C562 -72 565 -13 563 37ZM952 23C935 -22 895 -108 873 -146L813 -119C834 -76 864 6 878 53ZM785 22C778 -20 760 -90 749 -127L690 -118C699 -79 708 -22 712 32ZM761 -723C750 -747 734 -801 727 -831L649 -806C660 -780 674 -726 679 -699ZM524 -341H662V-250H524ZM524 -484H662V-396H524ZM524 -631H662V-538H524ZM462 -536V-347C462 -294 458 -206 453 -157H524V-193H720C859 -193 903 -190 937 -186V-255C906 -251 862 -250 733 -250V-341C835 -341 867 -339 895 -334V-401C869 -398 835 -396 733 -396V-484C826 -484 867 -482 893 -479V-544C869 -540 826 -538 733 -538V-631C838 -631 897 -628 925 -624V-700C900 -695 830 -690 710 -690H532C556 -743 571 -767 582 -774C595 -782 599 -795 582 -797C557 -800 518 -808 499 -818C493 -785 475 -721 462 -687C436 -620 407 -564 378 -524V-585C378 -599 381 -609 395 -621C404 -630 404 -638 391 -636C378 -634 327 -639 303 -645C309 -625 315 -590 315 -525V-219L258 -214V-771C258 -790 261 -802 273 -810C282 -817 281 -823 265 -822C250 -821 211 -823 186 -826C192 -796 194 -767 194 -691V-208L139 -203V-581C139 -596 142 -604 153 -614C164 -624 162 -632 149 -631C136 -630 100 -633 72 -640C76 -619 78 -588 78 -524V-227C78 -194 76 -159 72 -124C97 -129 135 -136 173 -141L315 -160V-95H386C381 -136 378 -169 378 -213V-476C389 -465 398 -453 403 -442C423 -468 441 -498 462 -536Z"/>
</svg>