<svg xmlns="http://www.w3.org/2000/svg" viewBox="0 -1000 1000 1000">
	<path fill="#000000" d="M531 -674C530 -789 534 -803 544 -815C554 -827 552 -835 538 -833C509 -829 474 -831 452 -836C455 -802 456 -776 456 -674H223C224 -735 227 -742 235 -758C241 -771 239 -776 231 -775C201 -772 175 -776 149 -782C154 -751 155 -720 152 -606C211 -611 348 -614 495 -614C671 -614 803 -610 836 -606C834 -741 838 -758 850 -774C858 -784 855 -789 843 -788C812 -785 784 -787 756 -793C761 -757 763 -726 765 -674ZM863 -504C834 -529 807 -559 781 -595L724 -551C756 -520 781 -487 797 -456ZM243 -527C255 -531 257 -538 242 -541C228 -543 197 -557 180 -570C157 -519 116 -459 81 -428C100 -420 124 -405 135 -390C166 -427 194 -466 219 -507C227 -517 236 -525 243 -527ZM570 -490C527 -525 473 -561 430 -588L390 -540C431 -516 489 -470 526 -436ZM545 -310C571 -320 598 -326 628 -333C635 -266 652 -192 672 -139C627 -101 581 -74 512 -45C523 -37 531 -29 538 -21C508 -18 484 -17 396 -17V-67C460 -67 499 -66 525 -63V-126C498 -121 459 -119 396 -119V-169C458 -169 505 -167 527 -162V-228C503 -224 458 -222 396 -222V-271C474 -271 514 -268 545 -264ZM222 37H382C488 37 514 38 545 41V-12C552 -2 557 8 562 20C620 -15 654 -38 700 -77C747 3 819 63 879 62C900 62 934 11 960 -58C929 -66 908 -81 884 -113C869 -4 836 3 753 -125C778 -148 807 -176 843 -210C865 -232 882 -244 891 -247C908 -253 910 -267 893 -272C870 -278 853 -288 823 -312C804 -264 785 -240 723 -184C710 -225 696 -288 691 -347L789 -368C837 -379 890 -389 921 -394L900 -462C876 -452 828 -439 784 -430L687 -410C680 -531 685 -574 699 -587C712 -597 705 -604 690 -603C663 -602 639 -605 607 -612C610 -563 615 -495 623 -397C574 -387 543 -381 515 -379L524 -327C503 -323 478 -323 407 -323L411 -324C403 -347 394 -370 385 -388L323 -370C330 -355 337 -339 342 -323H217C270 -350 323 -381 363 -413C393 -436 423 -451 435 -452C458 -454 456 -473 440 -477C414 -483 391 -499 375 -516C366 -496 356 -481 337 -466V-551C337 -572 344 -582 351 -590C358 -597 355 -608 344 -605C327 -602 289 -601 269 -603C273 -586 275 -551 275 -518V-445H308C225 -389 139 -346 43 -318C57 -300 67 -279 72 -258C97 -268 128 -280 160 -295V-29C160 10 160 42 157 86H222ZM222 -67H335V-17H222ZM222 -169H335V-119H222ZM222 -271H335V-222H222Z"/>
</svg>