<svg xmlns="http://www.w3.org/2000/svg" viewBox="0 -1000 1000 1000">
	<path fill="#000000" d="M326 -712H666V-548H326ZM763 -795C723 -789 650 -784 498 -784C344 -784 282 -788 233 -795C237 -775 240 -755 240 -721V-540C240 -516 238 -490 233 -464C290 -471 371 -476 498 -476C660 -476 724 -471 763 -465C759 -492 757 -517 757 -540V-721C757 -747 758 -770 763 -795ZM621 -37H816V31H903C900 5 897 -35 897 -70V-294C897 -330 900 -368 904 -394C865 -389 799 -385 722 -384C644 -383 573 -388 535 -393C540 -364 542 -325 542 -293V-65C542 -25 540 9 535 41H621ZM816 -105H621V-315H816ZM190 -33H375V39H461C456 9 454 -26 454 -62V-287C454 -323 456 -355 462 -388C431 -383 362 -378 283 -378C208 -378 146 -382 104 -388C110 -361 112 -327 112 -287V-62C112 -23 109 9 104 44H190ZM375 -100H190V-311H375Z"/>
</svg>