<svg xmlns="http://www.w3.org/2000/svg" viewBox="0 -1000 1000 1000">
	<path fill="#000000" d="M193 -648C151 -649 112 -650 79 -654V-246C79 -195 77 -155 72 -105H145V-587H193V-91C193 -31 190 13 185 71H268C262 14 259 -31 259 -91V-587H310V-206C310 -176 302 -172 265 -184C278 -158 280 -138 280 -108C353 -118 377 -130 377 -177V-654C343 -650 302 -649 259 -648V-773C259 -784 261 -801 272 -811C288 -826 285 -833 268 -832C244 -830 210 -831 185 -835C189 -790 193 -716 193 -648ZM681 -717L737 -738C721 -771 706 -808 691 -845L603 -808C623 -779 637 -750 648 -717C528 -717 480 -718 413 -722V-548H481V-654H863V-558H936V-722C871 -718 801 -717 681 -717ZM806 -362C852 -388 879 -399 890 -399C909 -399 910 -405 901 -412C884 -425 862 -459 847 -491C811 -439 771 -404 685 -356C667 -400 648 -430 622 -456C650 -477 676 -499 702 -524C762 -523 803 -522 839 -520V-590C797 -585 748 -583 670 -583C591 -583 543 -585 500 -590V-517C532 -521 567 -523 616 -524C552 -463 486 -432 387 -411C408 -393 421 -371 431 -346C478 -364 524 -388 569 -418C577 -411 585 -402 592 -393C534 -321 474 -263 382 -225C407 -208 427 -188 439 -168C515 -212 570 -268 625 -342C633 -327 640 -310 644 -292C565 -171 468 -79 350 -27C378 -9 399 11 412 34C518 -37 579 -97 655 -213C657 -164 657 -107 653 -80C644 -13 632 -1 533 -17C563 14 568 37 564 80C698 59 713 30 722 -72C728 -135 724 -235 706 -301C723 -312 739 -322 753 -331C774 -152 814 -48 907 24C919 -5 939 -33 970 -51C861 -115 826 -200 806 -362Z"/>
</svg>