<svg xmlns="http://www.w3.org/2000/svg" viewBox="0 -1000 1000 1000">
	<path fill="#000000" d="M560 -445H488V-546H560ZM661 -598C550 -598 497 -599 420 -607C424 -573 427 -531 427 -497C427 -461 425 -427 419 -389C493 -394 546 -396 657 -396C780 -396 833 -395 901 -389C895 -428 891 -460 892 -497C892 -532 893 -569 900 -607C829 -599 779 -598 661 -598ZM695 -445H622V-546H695ZM829 -445H756V-546H829ZM644 -303C502 -303 449 -306 422 -311C442 -90 415 -31 316 43C350 45 378 53 398 69C454 14 483 -52 494 -133C525 -117 564 -87 592 -62L624 -125C587 -152 538 -177 499 -193C500 -211 500 -229 499 -248H655C670 -187 691 -129 713 -91C672 -54 616 -14 553 14C579 24 595 47 603 70C670 30 714 -1 753 -38C792 5 844 42 889 56C910 63 938 45 972 -48C949 -54 933 -66 915 -93C896 -28 879 -19 871 -23C851 -33 825 -52 797 -84C812 -101 827 -120 843 -141C860 -162 879 -180 888 -181C909 -183 907 -193 889 -198C868 -204 849 -220 830 -241C813 -206 792 -174 760 -138C744 -168 730 -207 721 -248H778C867 -248 905 -247 934 -242V-311C914 -308 886 -305 814 -304L876 -331C865 -346 846 -374 836 -390L773 -366C785 -351 804 -319 812 -304C785 -303 753 -303 712 -303C711 -326 713 -346 717 -351C734 -369 729 -375 706 -371C689 -368 666 -368 633 -375C635 -354 639 -327 644 -303ZM599 -732V-760C599 -784 600 -794 606 -798C619 -806 618 -812 604 -812C579 -812 550 -815 524 -818C529 -793 532 -767 533 -732C468 -732 439 -734 390 -739V-663C438 -669 471 -671 533 -671V-617H599V-671H709V-620H777V-671C855 -671 894 -668 938 -664V-740C900 -734 870 -732 777 -732V-761C777 -782 778 -796 784 -800C796 -808 795 -814 781 -814C756 -814 726 -816 700 -819C705 -796 708 -766 709 -732ZM197 -666C155 -667 115 -668 83 -672V-263C83 -212 82 -172 78 -123H149V-604H197V-101C197 -42 195 2 189 59H272C265 3 263 -42 263 -101V-199C274 -175 280 -151 280 -122C363 -134 375 -150 375 -201V-672C342 -668 303 -667 263 -666V-764C263 -782 267 -794 276 -802C291 -817 288 -824 272 -823C247 -821 214 -822 189 -826C193 -785 196 -727 197 -666ZM263 -604H312V-229C312 -204 308 -195 263 -201Z"/>
</svg>