<svg xmlns="http://www.w3.org/2000/svg" viewBox="0 -1000 1000 1000">
	<path fill="#000000" d="M524 -728C326 -727 181 -730 130 -736C140 -612 142 -412 139 -358C129 -161 115 -81 52 32C89 43 109 53 136 75C203 -84 220 -182 220 -659H588C813 -659 892 -658 943 -652V-736C895 -730 792 -729 612 -728C605 -766 598 -803 592 -831L497 -818C505 -796 515 -762 524 -728ZM709 -408L440 -397C498 -451 539 -492 575 -534C689 -534 818 -529 873 -523V-604C816 -600 681 -595 562 -595C458 -595 323 -600 266 -604V-523C308 -527 395 -531 479 -533C403 -425 358 -402 298 -389C320 -364 329 -342 334 -314C386 -327 467 -337 532 -340V-230C423 -231 336 -235 274 -240V-156C333 -161 422 -163 532 -164V-46C396 -47 287 -51 209 -57V33C293 26 420 22 577 22C739 22 846 26 931 33V-57C852 -51 755 -47 612 -46V-164C722 -164 806 -161 867 -156V-240C806 -235 722 -231 612 -230V-342L756 -345C768 -327 780 -307 791 -287L859 -343C800 -417 753 -469 703 -522L641 -483C665 -459 688 -435 709 -408Z"/>
</svg>