<svg xmlns="http://www.w3.org/2000/svg" viewBox="0 -1000 1000 1000">
	<path fill="#000000" d="M400 -497H210C209 -551 207 -638 204 -692H400ZM796 -469H633V-704H796ZM878 -395C872 -450 869 -518 870 -591C870 -662 872 -715 878 -782C838 -775 804 -773 714 -773C620 -773 590 -775 551 -782C556 -730 559 -671 559 -592C559 -518 556 -447 551 -395C598 -402 640 -404 714 -404C788 -404 822 -401 878 -395ZM676 -322C646 -330 627 -338 595 -358C578 -291 541 -213 487 -149C514 -144 543 -130 562 -109C589 -147 597 -161 623 -218C644 -265 666 -294 676 -299C692 -306 693 -317 676 -322ZM939 -143C916 -197 857 -306 829 -351L761 -325C790 -280 843 -169 861 -112ZM364 -429C441 -429 458 -428 481 -424C477 -463 473 -533 474 -603C474 -667 477 -731 481 -771C457 -766 408 -762 296 -762C208 -762 155 -766 120 -771C124 -682 127 -602 132 -485C144 -213 119 -91 38 10C63 27 89 48 108 78C190 -57 216 -169 211 -429H298C311 -291 336 -206 373 -146C467 7 553 42 921 54C922 23 934 -15 964 -53C623 -25 485 -65 421 -213C386 -294 371 -357 364 -429Z"/>
</svg>