<svg xmlns="http://www.w3.org/2000/svg" viewBox="0 -1000 1000 1000">
	<path fill="#000000" d="M799 -126L693 -115C716 -139 736 -162 753 -188C765 -206 774 -214 782 -218C795 -225 794 -232 781 -233C768 -235 745 -242 720 -251C713 -227 694 -187 674 -153C659 -131 648 -120 640 -116C650 -100 657 -75 658 -55C678 -60 707 -67 732 -71L816 -85C819 -76 821 -66 823 -57L873 -88C856 -129 841 -158 819 -190L774 -171C784 -157 792 -142 799 -126ZM628 -241C617 -238 571 -241 557 -246C561 -227 562 -200 562 -163V-45C562 29 584 44 727 44C907 44 937 23 964 -58C944 -60 923 -79 907 -101C895 -33 874 -16 728 -16C637 -16 623 -25 623 -52V-163C623 -205 627 -217 637 -230C646 -240 643 -245 628 -241ZM577 -529H751V-454H574C575 -478 576 -503 577 -529ZM510 -454H338V-529H512C511 -502 511 -477 510 -454ZM570 -393H751V-324H564C566 -345 568 -368 570 -393ZM500 -324H338V-393H506C505 -367 502 -344 500 -324ZM555 -267C686 -267 797 -263 829 -261C825 -289 823 -318 823 -357V-504C823 -544 824 -567 829 -592C791 -587 701 -583 513 -583C539 -627 551 -639 561 -643C578 -651 573 -666 561 -666C537 -666 510 -671 488 -679H661C770 -679 868 -678 903 -672V-750C868 -744 760 -743 526 -743L589 -765C569 -792 552 -818 539 -843L456 -810C472 -790 483 -772 494 -743C270 -743 156 -744 121 -750C152 -300 120 -106 38 16C64 27 90 46 111 72C195 -85 213 -226 207 -679H474C472 -647 466 -612 457 -583C347 -585 290 -588 263 -592C267 -566 268 -544 268 -504V-300C268 -272 266 -247 262 -209H338V-267H489C460 -171 366 -76 200 10C230 24 250 42 264 62C420 -27 525 -140 555 -267Z"/>
</svg>