<svg xmlns="http://www.w3.org/2000/svg" viewBox="0 -1000 1000 1000">
	<path fill="#000000" d="M535 -750L566 -759C558 -793 550 -815 532 -847L451 -816C461 -794 466 -778 473 -750C261 -750 151 -752 117 -757C148 -307 127 -142 36 4C62 15 86 37 100 59C188 -102 214 -237 200 -687H648C757 -687 874 -685 910 -680V-757C876 -752 761 -750 535 -750ZM691 -166V-186C691 -230 694 -241 704 -249C719 -260 716 -270 698 -269C673 -268 646 -270 623 -276C625 -242 626 -215 626 -177V-46C627 31 648 42 771 42C893 42 919 26 953 -49C935 -55 907 -72 883 -108C875 -35 862 -22 771 -22C694 -22 691 -37 691 -76V-117C726 -123 757 -130 809 -143C871 -159 886 -163 895 -162C911 -159 911 -165 903 -174C895 -183 880 -213 872 -236C814 -206 747 -180 691 -166ZM704 -340V-424H805V-340ZM452 -189C452 -232 455 -241 465 -248C482 -260 478 -269 460 -268C435 -267 405 -269 382 -275C384 -240 384 -214 384 -176V-58C384 -19 374 -11 353 -4C364 15 376 46 379 68C399 53 426 40 452 33L581 -1C578 -26 577 -52 581 -73C547 -57 488 -38 452 -27V-131C519 -131 550 -130 582 -127V-194C550 -190 519 -189 452 -189ZM518 -424H640V-340H518ZM324 -424H449V-340H324C325 -366 325 -394 324 -424ZM449 -555V-483H324C324 -506 324 -530 323 -555ZM640 -555V-483H518V-555ZM623 -613C614 -640 608 -662 603 -684L520 -675C530 -654 538 -634 544 -613C368 -614 288 -618 251 -624C267 -254 253 -122 185 19C213 29 245 48 260 68C294 -35 316 -125 322 -280H672C755 -280 835 -276 873 -271C870 -297 868 -345 868 -389C868 -430 869 -465 873 -493C843 -487 775 -484 704 -483V-555C807 -554 860 -550 888 -546V-624C857 -617 807 -613 623 -613Z"/>
</svg>