<svg xmlns="http://www.w3.org/2000/svg" viewBox="0 -1000 1000 1000">
	<path fill="#000000" d="M793 -159H556V-212H793ZM793 -264H556V-320H793ZM793 -373H556V-425H793ZM923 1C887 -17 790 -71 746 -98L700 -45C759 -21 833 24 878 62ZM653 -51C639 -57 615 -77 591 -99C485 -35 465 -25 376 5C400 22 411 33 423 58C477 35 523 13 592 -22C605 -29 642 -39 647 -38C665 -35 669 -44 653 -51ZM330 -365H390C419 -365 441 -364 457 -361V-429C439 -425 419 -424 390 -424H330V-547C330 -574 333 -587 340 -592C351 -598 350 -605 337 -605C307 -605 284 -606 259 -610C261 -592 262 -552 262 -485V-127C262 -104 252 -91 213 -73C235 -53 249 -39 270 -8C299 -35 364 -90 473 -179C459 -199 451 -221 446 -250C403 -205 378 -181 330 -140ZM623 -556C622 -523 619 -506 613 -481C550 -482 518 -484 488 -488C491 -473 493 -434 493 -402V-181C493 -149 491 -110 488 -95C525 -100 559 -101 673 -101C786 -101 822 -100 860 -95C858 -110 857 -149 857 -181V-402C857 -434 858 -473 860 -488C823 -483 787 -481 679 -481C688 -507 693 -530 697 -556C791 -556 847 -554 901 -550V-618C843 -614 782 -612 674 -612C565 -612 507 -614 449 -618V-550C497 -553 545 -555 623 -556ZM504 -737C297 -736 162 -739 109 -745C119 -621 121 -421 120 -367C118 -163 97 -97 39 19C76 30 91 40 115 62C182 -94 194 -210 194 -673H574C799 -673 858 -672 909 -666V-745C862 -739 758 -738 584 -737C577 -776 569 -815 563 -843L476 -830C484 -808 495 -772 504 -737Z"/>
</svg>