<svg xmlns="http://www.w3.org/2000/svg" viewBox="0 -1000 1000 1000">
	<path fill="#000000" d="M273 -158V-100H359C353 -157 352 -191 352 -238V-640C352 -681 353 -696 357 -718C308 -715 268 -714 226 -714C185 -714 145 -715 96 -718C100 -696 101 -677 101 -640V-174C101 -127 100 -102 93 -37H182V-158ZM182 -228V-643H273V-228ZM816 -498H504V-625H816ZM816 -301H504V-427H816ZM816 -94H504V-232H816ZM504 -23H816V54H903C899 4 897 -33 897 -92V-617C897 -652 898 -681 900 -702C878 -699 813 -697 737 -697H629C648 -758 665 -792 681 -803C699 -815 696 -822 674 -826C649 -830 595 -841 565 -849C567 -806 562 -748 552 -697C491 -698 441 -699 422 -702C424 -681 425 -652 425 -617V-93C425 -33 423 19 418 69H504Z"/>
</svg>