<svg xmlns="http://www.w3.org/2000/svg" viewBox="0 -1000 1000 1000">
	<path fill="#000000" d="M708 -250V-275C708 -292 712 -306 720 -311C735 -320 733 -332 714 -332C682 -332 654 -334 622 -338C625 -319 627 -290 627 -250H406C412 -298 417 -312 427 -319C444 -331 442 -345 420 -343C392 -341 359 -344 331 -350C333 -333 334 -294 333 -250C216 -251 112 -258 64 -264V-174C112 -179 213 -182 327 -183C313 -89 258 -46 97 -10C127 9 145 26 166 58C322 1 376 -49 398 -183H628V-15C628 21 627 48 624 84H713C710 51 708 13 708 -15V-183C817 -182 899 -179 942 -174V-259C899 -254 818 -251 708 -250ZM377 -538C346 -438 296 -406 121 -375C155 -354 177 -333 195 -311C364 -357 415 -415 456 -539H682L671 -470C663 -418 645 -405 552 -424C581 -390 589 -361 592 -335C711 -348 739 -378 749 -477L761 -592C796 -573 838 -556 889 -539C896 -572 920 -611 944 -628C765 -660 716 -699 639 -815L568 -790C615 -711 658 -656 729 -611C672 -608 584 -607 513 -607C410 -607 321 -609 263 -612C309 -645 351 -681 375 -706C394 -726 410 -738 439 -744C460 -748 459 -763 442 -770C415 -781 388 -795 360 -813C298 -709 188 -630 55 -587C80 -574 104 -552 119 -526C160 -543 213 -575 261 -611V-530C293 -535 335 -537 377 -538Z"/>
</svg>