<svg xmlns="http://www.w3.org/2000/svg" viewBox="0 -1000 1000 1000">
	<path fill="#000000" d="M389 -774C343 -771 307 -769 257 -769C203 -769 118 -771 75 -774V-692C110 -697 133 -699 171 -699H308L297 -559C205 -559 133 -560 102 -563C103 -505 102 -475 100 -429C98 -381 94 -320 89 -277C109 -280 130 -281 151 -281H296C292 -151 287 -103 278 -69C266 -28 207 -21 118 -42C140 -7 153 27 159 58C292 52 351 18 357 -65C366 -209 373 -300 379 -355C358 -353 335 -353 305 -352H168L175 -493C255 -493 328 -491 366 -487C368 -533 372 -586 375 -634C380 -708 382 -731 389 -774ZM645 -685H819C813 -622 806 -579 792 -500C783 -451 768 -444 647 -453C672 -416 682 -394 689 -363C832 -373 862 -397 872 -476C890 -598 900 -686 907 -765C869 -758 786 -756 647 -756C523 -756 465 -758 412 -765V-677C441 -681 496 -684 563 -685C547 -528 507 -472 382 -409C424 -387 442 -372 460 -347C576 -425 624 -521 645 -685ZM793 4V63H883C876 15 873 -19 873 -65V-226C873 -272 876 -304 880 -328C831 -322 786 -319 659 -319C513 -319 469 -322 427 -328C432 -304 434 -275 434 -226V-57C434 -21 432 20 426 72H515V4ZM515 -61V-251H793V-61Z"/>
</svg>