<svg xmlns="http://www.w3.org/2000/svg" viewBox="0 -1000 1000 1000">
	<path fill="#000000" d="M651 -156C602 -194 547 -250 497 -312L428 -277C473 -222 547 -143 586 -110C484 -44 426 -22 315 -10C348 18 365 46 372 71C474 47 542 13 646 -65C737 -1 831 43 916 63C925 28 933 7 963 -29C868 -36 791 -65 711 -116C762 -166 830 -278 880 -426C840 -419 789 -416 675 -415V-504C753 -503 818 -501 885 -497C881 -524 878 -572 878 -613V-683C878 -716 883 -736 891 -741C905 -751 900 -758 885 -758C851 -758 826 -760 798 -764C803 -739 805 -712 805 -686V-566H675V-749C675 -782 680 -802 688 -807C702 -817 697 -824 682 -824C648 -824 621 -826 593 -830C597 -806 600 -758 600 -674V-566H471V-683C471 -716 476 -736 484 -741C498 -751 493 -758 478 -758C444 -758 423 -760 395 -764C399 -740 402 -703 402 -665V-603C402 -556 400 -522 396 -497C467 -503 503 -504 600 -504V-415C467 -415 408 -419 365 -426V-339C410 -347 485 -348 766 -348C738 -260 702 -199 651 -156ZM341 -770C297 -766 248 -765 200 -765C149 -765 95 -767 57 -770V-691C90 -696 112 -698 148 -698H254L244 -556C156 -556 127 -557 97 -560C98 -521 97 -472 95 -423C93 -375 89 -326 85 -283C104 -286 124 -287 144 -287H244C239 -142 235 -110 226 -76C212 -23 180 -16 85 -39C106 -4 118 28 124 59C273 49 304 11 309 -72C318 -216 325 -310 330 -355C310 -353 288 -352 260 -352H163L171 -493C247 -493 283 -491 319 -487C321 -533 324 -582 327 -630C331 -679 336 -727 341 -770Z"/>
</svg>