<svg xmlns="http://www.w3.org/2000/svg" viewBox="0 -1000 1000 1000">
	<path fill="#000000" d="M419 -448H626C642 -426 660 -403 681 -381C623 -380 555 -380 493 -380C442 -380 397 -380 356 -380C381 -402 401 -425 419 -448ZM654 -644H504C513 -681 522 -726 527 -756C532 -786 542 -805 551 -811C568 -823 568 -830 548 -830C510 -831 481 -834 444 -840C452 -787 443 -712 425 -644H303L359 -679C320 -731 291 -765 245 -809L177 -760C210 -731 239 -698 272 -645C215 -646 168 -648 118 -652V-573C192 -578 288 -582 407 -582C397 -556 385 -532 370 -508C250 -508 144 -510 65 -514V-439C139 -443 221 -447 322 -448C255 -377 156 -322 30 -292C64 -272 79 -256 98 -222C165 -254 221 -284 269 -315C327 -317 378 -319 458 -319H686V-261H486C381 -261 265 -263 205 -267C207 -239 208 -199 208 -172C208 -134 206 -110 201 -82C256 -87 313 -87 487 -87H743C728 -11 694 4 479 -7C498 18 510 46 517 72C720 63 783 37 799 2C812 -27 821 -70 831 -152C760 -148 613 -146 537 -146H275V-203H536C630 -203 720 -200 757 -197C754 -221 752 -258 752 -285C752 -295 753 -306 753 -318C798 -283 852 -252 914 -227C927 -258 939 -282 968 -315C834 -336 769 -371 703 -448C805 -447 867 -444 937 -439V-514C851 -509 784 -508 637 -508H457C469 -531 479 -556 488 -582H605C730 -582 830 -578 907 -573V-652C842 -648 775 -645 674 -645C707 -673 731 -694 762 -729C777 -746 791 -756 800 -758C821 -764 820 -772 805 -777C780 -785 755 -797 725 -816C697 -760 658 -716 594 -672C623 -663 636 -656 654 -644Z"/>
</svg>