<svg xmlns="http://www.w3.org/2000/svg" viewBox="0 -1000 1000 1000">
	<path fill="#000000" d="M355 -789C311 -786 256 -784 208 -784C157 -784 101 -786 60 -789V-710C93 -715 115 -717 151 -717H274L264 -575C176 -575 118 -576 88 -579C89 -540 88 -492 86 -442C84 -394 79 -346 73 -302C92 -305 112 -306 132 -306H243C238 -161 234 -122 225 -88C211 -35 182 -27 78 -51C99 -16 111 16 117 47C252 38 297 -1 302 -84C311 -228 318 -329 323 -374C303 -372 281 -371 253 -371H145L153 -512C229 -512 297 -510 333 -506C335 -552 338 -601 341 -649C345 -698 350 -745 355 -789ZM614 -520H467V-594H614ZM677 -594H825L826 -520H677ZM614 -654H467V-726H614ZM677 -726H825V-654H677ZM614 -333V-251H513V-333ZM513 -391V-459H614V-391ZM771 -333V-251H677V-333ZM677 -391V-459H771V-391ZM829 -332C872 -332 909 -328 942 -324V-399C909 -394 873 -392 829 -391V-458C852 -458 872 -456 892 -455C890 -472 889 -499 889 -525V-718C889 -744 890 -767 892 -786C841 -784 795 -784 646 -784C498 -784 452 -784 403 -786C405 -771 406 -744 406 -718V-525C406 -499 405 -480 403 -455C421 -457 436 -458 455 -458V-392C417 -393 379 -395 351 -399V-324C379 -327 417 -330 455 -332V-252C427 -253 401 -256 374 -259V-186C414 -191 465 -193 614 -193V-126C514 -126 393 -129 340 -134V-58C392 -63 513 -66 614 -67C613 -4 611 35 608 74H682C679 36 677 -5 677 -67C779 -66 899 -62 949 -58V-134C899 -130 779 -127 677 -126V-193C837 -193 880 -191 918 -186V-259C888 -254 862 -252 829 -251Z"/>
</svg>