<svg xmlns="http://www.w3.org/2000/svg" viewBox="0 -1000 1000 1000">
	<path fill="#000000" d="M351 -685H683L648 -602H310C325 -634 339 -661 351 -685ZM142 -318C175 -296 230 -236 254 -202L326 -259C294 -291 230 -348 205 -368ZM426 -237C300 -168 155 -102 67 -75C86 -48 106 -16 121 14C220 -57 378 -135 445 -163C435 -180 429 -208 426 -237ZM471 -412V-50C471 -18 457 -9 345 -19C369 17 382 47 392 80C544 57 550 45 550 -23V-242C608 -115 714 -30 882 29C892 -1 913 -37 940 -66C842 -77 738 -121 668 -185C712 -208 753 -232 790 -256C816 -273 845 -286 857 -287C883 -289 883 -293 870 -301C845 -317 806 -347 786 -368C754 -325 692 -270 628 -229C600 -263 571 -311 550 -359V-412C814 -412 894 -409 937 -403V-489C897 -484 800 -480 675 -480L760 -679C772 -708 785 -732 798 -752C754 -748 652 -745 559 -746H384C404 -780 420 -801 431 -808C443 -816 438 -825 426 -824C402 -823 373 -832 340 -848C295 -717 255 -636 194 -536C222 -540 274 -542 302 -542H624L598 -480H311C231 -480 137 -483 82 -489V-403C138 -409 223 -412 471 -412Z"/>
</svg>