<svg xmlns="http://www.w3.org/2000/svg" viewBox="0 -1000 1000 1000">
	<path fill="#000000" d="M270 -791C296 -807 293 -817 260 -816C236 -815 203 -817 173 -823C177 -783 178 -742 178 -689V-102C178 -38 176 8 171 65H261C256 9 253 -38 253 -101V-739C253 -766 258 -784 270 -791ZM141 -599L70 -604C74 -508 68 -434 51 -353L129 -345C141 -431 145 -516 141 -599ZM364 -504C355 -552 345 -588 323 -643L264 -627C283 -564 292 -529 299 -486ZM840 -15V53H926C920 13 916 -45 916 -103V-559C916 -576 921 -592 931 -599C945 -609 942 -615 923 -613C908 -611 864 -612 829 -616C834 -590 840 -529 840 -477V-84L456 -70V-538C456 -560 460 -574 478 -586C489 -593 488 -601 471 -600C442 -598 404 -599 372 -604C378 -571 382 -514 382 -464V-143C382 -83 377 -23 371 12C406 6 475 -1 549 -4ZM644 -510C595 -597 544 -681 494 -758L432 -717C498 -617 553 -524 608 -420C564 -317 524 -242 469 -167C491 -161 514 -149 542 -128C584 -199 617 -261 650 -337C679 -280 709 -217 740 -148L818 -184C776 -268 733 -349 689 -429C713 -486 743 -568 792 -720C800 -746 811 -763 819 -768C838 -781 835 -787 815 -789C794 -790 753 -802 720 -815C706 -706 673 -589 644 -510Z"/>
</svg>