<svg xmlns="http://www.w3.org/2000/svg" viewBox="0 -1000 1000 1000">
	<path fill="#000000" d="M710 -532V-398C710 -356 708 -326 703 -287H798C794 -326 792 -356 792 -398V-532C853 -531 913 -527 948 -523V-606C905 -601 831 -597 760 -597H593V-705C639 -705 706 -708 780 -715C843 -721 893 -720 913 -716C927 -713 930 -718 919 -730C908 -742 879 -791 870 -815C807 -786 657 -767 513 -768C533 -480 508 -397 376 -317C411 -311 442 -291 464 -268C534 -324 582 -416 591 -532ZM243 -549C195 -546 143 -544 82 -543C90 -512 96 -482 98 -453C139 -464 189 -473 243 -481V-406C243 -363 236 -359 137 -372C159 -343 170 -302 171 -276C305 -299 315 -316 315 -385V-491C357 -497 400 -501 444 -504C439 -521 438 -542 442 -571C397 -564 356 -559 315 -555V-649C375 -649 421 -646 457 -641V-728C421 -723 375 -720 315 -719V-789C315 -801 319 -806 333 -814C351 -825 349 -832 318 -832C290 -831 268 -832 232 -837C237 -821 241 -772 242 -719C166 -720 110 -723 69 -728V-641C111 -647 167 -650 243 -650ZM732 -6V66H830C822 27 818 -15 818 -60V-150C818 -190 821 -236 826 -253C778 -247 717 -243 506 -243C297 -243 246 -246 187 -253C192 -231 196 -186 196 -150V-54C196 -9 192 29 183 72H279V-6ZM279 -71V-179H732V-71Z"/>
</svg>