<svg xmlns="http://www.w3.org/2000/svg" viewBox="0 -1000 1000 1000">
	<path fill="#000000" d="M638 -732C608 -759 575 -787 535 -820L494 -776C532 -744 565 -715 595 -686C555 -646 515 -613 471 -583C497 -571 514 -561 528 -540C571 -574 605 -604 641 -641C671 -610 700 -577 731 -538L784 -586C747 -627 716 -659 685 -689C693 -697 702 -706 710 -716C744 -754 757 -763 772 -767C786 -770 788 -781 777 -787C761 -794 750 -803 720 -832C691 -794 664 -761 638 -732ZM262 -789C292 -808 289 -819 251 -818C227 -817 197 -819 167 -824C170 -785 171 -742 171 -687V-99C171 -33 170 15 165 72H253C248 16 246 -33 246 -98V-738C246 -764 251 -782 262 -789ZM129 -597L62 -602C66 -505 58 -425 41 -344L117 -337C129 -424 133 -513 129 -597ZM365 -496C356 -534 332 -611 317 -645L256 -628C269 -595 292 -516 298 -479ZM814 -628V-519H452V-701C452 -726 455 -739 472 -751C484 -759 483 -771 465 -770C437 -768 414 -769 383 -774C386 -737 387 -693 387 -621V-555C387 -517 385 -477 381 -452C449 -455 498 -457 631 -457C766 -457 821 -455 886 -451C884 -473 882 -517 882 -554V-699C882 -723 885 -737 902 -749C914 -756 913 -769 895 -768C868 -765 835 -766 804 -772C809 -738 814 -680 814 -628ZM656 -30C718 9 800 39 906 60C909 26 921 -1 948 -33C849 -36 773 -50 714 -76C770 -130 822 -206 851 -301H577C591 -318 601 -329 607 -334C623 -346 621 -353 608 -355C591 -357 559 -372 544 -384C504 -291 439 -216 343 -150C376 -139 397 -123 410 -102C444 -139 479 -178 508 -212C528 -158 558 -112 600 -73C528 -35 412 -15 302 -18C325 15 335 35 347 68C444 60 577 20 656 -30ZM654 -112C611 -144 579 -186 553 -239H752C727 -186 690 -144 654 -112ZM477 -454C435 -403 361 -340 298 -311C328 -300 348 -282 360 -259C398 -290 460 -342 478 -361C495 -379 525 -402 531 -404C550 -410 552 -422 535 -426C516 -430 494 -442 477 -454ZM943 -347C872 -391 792 -428 727 -451L684 -405C761 -377 839 -334 898 -284Z"/>
</svg>