<svg xmlns="http://www.w3.org/2000/svg" viewBox="0 -1000 1000 1000">
	<path fill="#000000" d="M272 -799C296 -814 294 -823 263 -823C240 -823 206 -827 177 -832C183 -782 184 -753 184 -700V-98C184 -35 182 10 177 66H264C259 11 256 -35 256 -97V-747C256 -782 261 -792 272 -799ZM146 -600H78C80 -513 71 -434 47 -359L124 -354C139 -431 146 -502 146 -600ZM376 -543C362 -587 348 -619 328 -653L270 -630C291 -592 304 -556 314 -517ZM460 -146C414 -90 375 -59 301 -12C322 3 336 18 352 41C403 1 432 -24 475 -62C492 -77 508 -86 522 -89C538 -93 539 -99 523 -107C502 -117 479 -131 460 -146ZM931 -39C874 -85 824 -120 763 -158L710 -121C768 -75 813 -32 862 24ZM597 -331C502 -263 434 -235 369 -224C380 -203 385 -180 387 -158C471 -174 500 -178 601 -186V-27C601 -10 587 -3 514 -5C532 26 538 46 544 79C662 66 672 56 672 2V-192L829 -205C840 -193 850 -180 860 -167L931 -208C883 -254 832 -300 784 -341L727 -307C748 -289 768 -270 787 -251C696 -243 627 -237 527 -232C594 -268 659 -308 735 -357C775 -383 799 -393 816 -396C834 -399 835 -412 814 -418C792 -424 771 -432 740 -447C716 -424 695 -406 663 -381C604 -375 556 -373 492 -371C532 -396 573 -424 603 -450C783 -450 862 -448 937 -440V-517C872 -511 780 -508 658 -508V-565C752 -565 820 -562 871 -555V-630C820 -624 752 -621 658 -621V-677C771 -677 852 -674 912 -667V-744C852 -738 771 -735 658 -735V-775C658 -792 664 -806 677 -817C689 -827 686 -833 670 -832C638 -831 609 -833 581 -838C585 -815 587 -789 587 -735C499 -736 434 -739 381 -744V-667C433 -673 499 -676 587 -677V-621C512 -622 456 -625 410 -630V-555C455 -561 512 -564 587 -565V-508C472 -509 400 -512 337 -517V-440C385 -444 444 -447 518 -449C459 -391 422 -375 370 -365C377 -346 381 -324 382 -306C407 -313 444 -319 486 -322Z"/>
</svg>