<svg xmlns="http://www.w3.org/2000/svg" viewBox="0 -1000 1000 1000">
	<path fill="#000000" d="M591 -136H710V-68H591ZM834 -205C800 -236 762 -268 725 -298L687 -258C731 -234 761 -209 799 -164ZM725 -609L905 -790C842 -785 756 -783 654 -783C550 -783 463 -784 400 -787V-718C444 -722 524 -724 578 -724H755L685 -647C655 -669 610 -694 572 -714L520 -663C555 -651 599 -630 636 -609C488 -609 436 -611 374 -616V-542C444 -549 518 -552 602 -552C516 -480 402 -428 304 -403C327 -387 345 -364 351 -340C364 -346 377 -352 390 -358C393 -333 394 -289 394 -247V-76C394 -13 391 23 385 74H463V-175C474 -168 486 -156 496 -139C510 -155 522 -168 533 -180C534 -158 534 -130 534 -103C534 -72 534 -37 532 -15C557 -16 601 -16 650 -16C700 -16 742 -15 766 -14C764 -35 764 -71 764 -103C764 -134 765 -168 766 -190C743 -188 700 -187 650 -187C606 -187 566 -187 540 -188C580 -232 595 -244 608 -249C623 -255 623 -263 612 -267C593 -274 568 -290 556 -304C531 -256 501 -219 463 -183V-310H841V-28C841 2 831 10 759 -2C775 28 784 56 783 82C900 58 913 49 913 -17V-248C913 -301 915 -355 917 -375C888 -371 815 -368 658 -368C519 -368 453 -369 417 -371C517 -422 607 -482 663 -544V-471C663 -444 648 -435 588 -450C605 -429 614 -404 615 -376C704 -386 728 -414 728 -455V-552H850L815 -474L891 -453L944 -616C889 -612 835 -610 725 -609ZM261 -806C284 -820 281 -833 249 -832C233 -831 197 -834 168 -839C175 -800 178 -758 178 -703V-94C178 -47 174 19 168 78H259C253 20 249 -46 249 -93V-754C249 -779 253 -801 261 -806ZM144 -589L74 -594C74 -514 68 -460 49 -378L128 -376C136 -445 141 -516 144 -589ZM369 -473C354 -525 341 -559 309 -624L259 -594C284 -542 296 -506 310 -446Z"/>
</svg>