<svg xmlns="http://www.w3.org/2000/svg" viewBox="0 -1000 1000 1000">
	<path fill="#000000" d="M700 -90H577V-157H700ZM762 -33C761 -56 760 -89 760 -122C760 -155 760 -189 762 -212C735 -210 684 -209 631 -209C578 -209 542 -210 514 -212C516 -189 516 -157 516 -124C516 -77 516 -58 514 -35C545 -36 578 -36 631 -36C684 -36 735 -36 762 -33ZM714 -408H553V-476H714ZM264 -790C287 -806 284 -817 252 -816C235 -815 197 -818 167 -823C174 -784 177 -742 177 -687V-103C177 -56 173 10 167 69H262C257 11 252 -55 252 -102V-738C252 -770 257 -785 264 -790ZM139 -593L67 -598C67 -518 61 -464 42 -382L122 -380C130 -452 136 -517 139 -593ZM379 -504C365 -553 354 -581 323 -647L261 -618C285 -569 295 -538 308 -477ZM900 -315C814 -310 758 -308 639 -308C538 -308 432 -310 376 -314C379 -298 381 -277 381 -239V-30C381 0 379 30 375 59H452V-250H824V-48C824 -3 819 1 738 -11C752 17 758 37 761 73C887 53 897 38 897 -15V-240C897 -274 898 -294 900 -315ZM689 -592C702 -570 717 -549 732 -529H554C571 -549 586 -569 598 -592ZM577 -714C570 -690 561 -668 551 -648C443 -649 389 -652 363 -656V-585C391 -588 469 -592 517 -592C475 -534 412 -488 307 -445C332 -424 348 -403 358 -374C411 -406 453 -436 488 -465V-406C488 -384 487 -366 486 -352C522 -353 562 -353 634 -353C686 -353 746 -353 784 -351C782 -365 781 -384 781 -407V-475C818 -438 864 -406 922 -377C932 -415 946 -445 966 -468C878 -486 816 -524 757 -592C819 -592 899 -589 930 -585V-656C894 -650 849 -648 626 -648C635 -669 643 -695 650 -722C765 -737 846 -744 858 -742C875 -739 881 -745 867 -759C852 -774 835 -802 824 -829C785 -813 716 -796 609 -782C515 -770 475 -768 387 -773C403 -752 412 -733 419 -704C486 -707 533 -710 577 -714Z"/>
</svg>