<svg xmlns="http://www.w3.org/2000/svg" viewBox="0 -1000 1000 1000">
	<path fill="#000000" d="M646 -432H520C557 -502 588 -567 609 -618C796 -618 879 -618 943 -614V-696C881 -691 803 -688 636 -688C661 -752 673 -776 686 -784C705 -795 704 -806 687 -807C650 -810 617 -819 592 -835C587 -793 574 -742 554 -688C491 -688 441 -690 392 -696V-611C440 -616 477 -618 528 -618C468 -473 377 -317 294 -241C322 -232 346 -216 369 -188C403 -236 436 -286 466 -337V-150C466 -107 465 -76 460 -30H537V-364H646V-55C646 -4 644 34 636 84H730C724 38 723 -4 723 -55V-364H844V-169C844 -116 837 -113 752 -130C775 -99 783 -73 786 -28C901 -45 919 -66 919 -141V-435C859 -432 804 -431 723 -432V-512C723 -524 728 -537 743 -547C767 -563 764 -572 737 -572C697 -572 676 -573 637 -577C644 -541 646 -515 646 -432ZM194 -357C143 -340 94 -327 54 -320C73 -293 85 -261 90 -231C125 -253 149 -265 194 -282V-53C194 -26 176 -15 88 -29C113 1 125 35 128 68C252 57 269 44 269 -34V-308C293 -316 320 -325 353 -336C343 -361 340 -384 344 -415C320 -404 294 -394 269 -384V-541C313 -541 345 -538 373 -533V-620C345 -615 313 -612 269 -612V-742C269 -759 279 -783 288 -793C307 -814 304 -819 272 -819C244 -819 220 -821 183 -827C191 -789 194 -751 194 -612C143 -612 105 -615 74 -620V-533C105 -538 143 -541 194 -542Z"/>
</svg>