<svg xmlns="http://www.w3.org/2000/svg" viewBox="0 -1000 1000 1000">
	<path fill="#000000" d="M473 -704H818V-600H473ZM192 -360C150 -346 106 -333 57 -320C67 -284 73 -245 75 -214C108 -240 148 -264 192 -285V-62C192 -32 161 -20 73 -34C103 6 113 34 115 70C256 45 264 33 264 -49V-316C297 -329 330 -340 361 -349C353 -370 349 -400 350 -430C321 -414 292 -400 264 -388V-526C297 -525 323 -522 345 -518V-603C323 -599 297 -597 264 -596V-751C264 -768 268 -776 282 -787C303 -804 298 -813 267 -812C239 -811 216 -813 180 -819C191 -776 192 -756 192 -595C138 -595 100 -597 70 -603V-518C100 -524 138 -527 192 -527ZM811 -52H584V-199H811ZM723 -366C820 -366 892 -363 944 -356V-437C892 -431 820 -428 723 -428V-536C803 -536 863 -533 897 -526C892 -573 890 -604 890 -650C890 -697 893 -743 897 -776C864 -770 794 -765 634 -765C469 -765 424 -769 390 -776C397 -626 399 -459 394 -369C385 -198 350 -90 272 24C305 27 332 38 352 54C451 -127 473 -233 473 -536H651V-428C578 -429 529 -432 484 -437V-356C528 -362 578 -365 651 -366V-258C563 -259 532 -261 501 -265C505 -243 507 -213 507 -181V-35C507 1 506 32 500 66H584V14H811V55H895C890 21 888 -9 888 -45V-181C888 -217 889 -243 894 -265C866 -260 826 -258 723 -258Z"/>
</svg>