<svg xmlns="http://www.w3.org/2000/svg" viewBox="0 -1000 1000 1000">
	<path fill="#000000" d="M176 -361C138 -348 97 -336 49 -324C59 -293 67 -254 71 -222C102 -243 138 -263 176 -281V-59C176 -35 162 -18 70 -34C93 1 105 29 108 62C233 54 245 13 245 -28V-313C277 -327 310 -339 339 -349C335 -375 333 -401 335 -432C302 -415 273 -401 245 -389V-545C283 -545 318 -542 344 -537V-621C318 -616 286 -613 245 -613V-761C245 -778 249 -786 263 -797C283 -814 278 -822 248 -822C220 -822 201 -823 166 -829C172 -797 176 -753 176 -613C130 -613 92 -616 65 -621V-537C92 -542 130 -546 176 -546ZM810 -597H746V-667H810ZM746 -467V-539H810V-467ZM449 -82C534 15 634 43 934 49C938 7 943 -10 958 -47C870 -41 802 -38 746 -39V-161C814 -161 872 -159 909 -154V-233C872 -228 814 -226 746 -226V-286C810 -286 861 -284 896 -279V-361C861 -356 797 -351 746 -351V-408C834 -408 863 -406 882 -402C879 -419 877 -451 876 -538C901 -538 923 -535 938 -532V-604C923 -601 901 -598 876 -598C876 -684 878 -720 882 -738C864 -733 837 -731 746 -731C746 -784 747 -794 756 -802C770 -815 767 -822 751 -821C729 -820 697 -822 670 -825C674 -808 677 -775 678 -731C627 -731 596 -734 578 -738V-660C597 -665 616 -667 679 -667V-597C609 -597 570 -600 548 -604V-532C569 -536 609 -539 679 -539V-467C628 -468 598 -471 582 -475V-402C599 -405 651 -408 679 -408V-352C630 -352 592 -356 562 -361V-279C591 -283 639 -286 679 -286V-226C624 -226 579 -228 547 -233V-154C578 -158 624 -161 679 -161V-43C584 -54 541 -83 483 -147C515 -223 530 -321 544 -478C526 -473 502 -470 456 -470L549 -738C503 -730 392 -732 341 -738V-660C379 -666 404 -667 454 -667L399 -513C386 -478 378 -472 336 -474C342 -454 347 -427 350 -397C384 -404 400 -404 470 -404C465 -321 456 -259 440 -210C420 -249 404 -295 394 -338L328 -317C344 -260 375 -190 408 -138C376 -86 328 -49 258 -3C283 8 301 25 320 55C377 7 419 -35 449 -82Z"/>
</svg>