<svg xmlns="http://www.w3.org/2000/svg" viewBox="0 -1000 1000 1000">
	<path fill="#000000" d="M786 -31H657V-112H786ZM459 21H786V55H868C865 28 863 -5 863 -27V-236C863 -265 864 -288 867 -301C816 -298 736 -296 623 -296C510 -296 431 -298 380 -301C383 -287 384 -265 384 -236V-13C384 9 382 42 379 69H459ZM459 -112H585V-31H459ZM585 -242V-163H459V-242ZM786 -163H657V-242H786ZM600 -514C492 -437 436 -404 369 -403C383 -379 391 -360 395 -335C438 -344 526 -354 581 -358L830 -376C844 -359 855 -344 863 -330L921 -377C882 -420 843 -462 789 -515L733 -481C752 -464 773 -443 793 -420L537 -406C757 -552 802 -572 810 -574C833 -580 835 -589 815 -597C798 -604 779 -616 759 -637C748 -623 732 -609 667 -562L524 -558L648 -659C776 -659 865 -656 934 -649V-725C873 -719 795 -716 688 -715C677 -746 662 -797 653 -837L568 -815C581 -787 595 -744 602 -715C480 -715 396 -718 327 -725V-649C385 -655 458 -658 556 -659C512 -613 456 -573 406 -555C418 -538 425 -516 427 -494C447 -501 470 -504 600 -514ZM170 -377C131 -363 90 -350 41 -335C52 -306 61 -274 66 -244C100 -262 135 -279 170 -295V-61C170 -34 154 -24 70 -36C93 3 99 32 101 62C240 41 247 32 247 -42V-331C281 -346 314 -360 343 -372C334 -397 330 -423 334 -454C303 -437 274 -422 247 -409V-536C282 -535 309 -532 332 -528V-609C309 -605 282 -603 247 -602V-726C247 -751 252 -768 261 -782C274 -803 271 -812 246 -809C216 -806 189 -807 151 -813C163 -774 170 -725 170 -601C116 -601 77 -604 46 -609V-528C77 -533 116 -536 170 -537Z"/>
</svg>