<svg xmlns="http://www.w3.org/2000/svg" viewBox="0 -1000 1000 1000">
	<path fill="#000000" d="M165 -560V-351C126 -333 87 -316 43 -299C60 -274 69 -244 72 -215C99 -232 131 -251 165 -270V-50C165 -15 153 -10 77 -23C102 15 108 32 110 72C227 51 236 42 236 -20V-308C270 -325 303 -341 331 -354C321 -381 317 -404 320 -435C291 -418 264 -402 236 -387V-560C279 -560 304 -559 325 -554V-634C303 -629 279 -627 236 -626V-754C236 -774 240 -785 253 -795C271 -810 269 -815 239 -815C211 -815 194 -817 159 -823C163 -793 165 -741 165 -631V-626C110 -626 84 -629 59 -634V-554C84 -559 110 -560 165 -560ZM503 -211C514 -221 511 -231 496 -228C484 -226 455 -232 441 -242C442 -182 429 -121 397 -70C420 -74 441 -69 461 -58C473 -102 482 -142 487 -170C492 -196 496 -205 503 -211ZM700 -142C678 -173 651 -219 640 -246L591 -210C610 -181 626 -144 640 -103ZM887 -723C870 -748 850 -788 839 -818L769 -791C784 -764 801 -725 810 -692ZM773 -220C746 -305 729 -469 727 -609C818 -609 869 -606 910 -601V-682C875 -677 826 -673 727 -672C728 -774 731 -798 737 -805C750 -822 748 -829 731 -828C713 -827 682 -830 657 -837C658 -788 658 -751 660 -672C450 -673 381 -677 351 -682C366 -203 356 -121 246 38C275 41 308 54 321 67C383 -46 411 -128 419 -299H522V-75C522 -44 513 -38 469 -46C482 -21 485 -1 483 32C570 17 580 -1 580 -60V-299C611 -299 653 -296 667 -293V-360C651 -357 597 -354 560 -354V-431C599 -431 625 -429 647 -426V-491C625 -488 580 -485 560 -485V-524C560 -540 563 -547 575 -555C590 -565 586 -574 570 -573C550 -572 519 -574 497 -579C500 -557 502 -510 502 -476V-354H421C423 -423 422 -507 419 -609H662C670 -393 692 -250 736 -139C695 -65 642 -8 594 26C622 39 642 54 652 73C708 12 735 -20 766 -71C816 34 853 60 880 60C901 60 928 33 956 -83C935 -94 911 -112 894 -134C879 -19 865 -6 806 -140C837 -198 862 -289 879 -403C889 -471 896 -506 900 -509C911 -516 910 -525 896 -527C878 -529 840 -539 820 -548C812 -372 794 -277 773 -220Z"/>
</svg>