<svg xmlns="http://www.w3.org/2000/svg" viewBox="0 -1000 1000 1000">
	<path fill="#000000" d="M571 -566H728C710 -531 691 -503 670 -480C641 -498 613 -514 591 -527L548 -483C578 -467 602 -453 623 -439C584 -413 538 -397 479 -384C509 -363 526 -349 538 -331C592 -353 637 -376 674 -404C693 -391 713 -375 738 -355L782 -405C764 -418 742 -433 721 -447C764 -493 793 -550 812 -623C785 -621 762 -620 722 -620H604C619 -643 628 -654 635 -656C652 -662 652 -671 639 -672C617 -673 597 -679 579 -692H824V-329H446V-692H571C548 -622 496 -559 448 -517C477 -509 494 -499 506 -479C527 -503 550 -534 571 -566ZM172 -374C124 -355 80 -341 46 -334C61 -307 73 -276 78 -246C105 -264 134 -279 172 -297V-61C172 -22 158 -16 81 -41C101 -10 110 23 112 60C231 49 241 36 241 -42V-327C271 -340 306 -353 347 -369C340 -397 340 -423 341 -451C308 -434 275 -419 241 -403V-558C284 -558 316 -555 344 -550V-633C316 -628 274 -625 241 -625V-748C241 -764 251 -790 259 -799C277 -820 275 -825 244 -825C220 -825 197 -827 161 -833C169 -796 172 -758 172 -625C122 -625 87 -628 56 -633V-550C87 -555 136 -559 172 -559ZM405 -197L332 -212C333 -145 303 -61 274 -12L351 19C377 -68 389 -114 405 -197ZM843 -62C819 -66 795 -84 774 -107C763 -47 753 -38 717 -30C695 -25 602 -21 549 -31C524 -36 516 -45 516 -60V-174C516 -188 523 -199 538 -207C551 -214 553 -231 520 -228C496 -226 467 -230 438 -240C442 -223 445 -194 445 -150V-72C445 1 468 26 513 35C593 50 682 45 750 37C781 33 810 7 843 -62ZM947 -58C914 -130 890 -168 842 -226L773 -195C818 -138 847 -95 880 -21ZM720 -114C704 -159 685 -209 667 -249L593 -229C619 -184 637 -129 642 -88ZM555 -752C486 -752 398 -755 375 -757C378 -737 380 -690 380 -651V-372C380 -333 378 -286 375 -266C412 -269 524 -271 635 -271C745 -271 858 -269 895 -266C892 -286 891 -333 891 -372V-651C891 -690 893 -737 895 -757C859 -754 751 -751 627 -751C639 -790 644 -800 654 -806C668 -814 665 -824 650 -823C626 -821 598 -824 562 -835C562 -802 560 -779 555 -752Z"/>
</svg>