<svg xmlns="http://www.w3.org/2000/svg" viewBox="0 -1000 1000 1000">
	<path fill="#000000" d="M768 -292V-363C768 -376 770 -383 782 -393C792 -401 791 -407 779 -405C759 -402 719 -404 695 -409C699 -386 701 -367 701 -308V-82C664 -106 628 -140 608 -180C610 -187 611 -195 613 -203C631 -295 637 -308 654 -319C663 -325 662 -334 653 -336C622 -341 596 -348 570 -360C558 -216 528 -105 474 -5C498 8 514 26 531 59C552 14 573 -40 592 -111C621 -69 668 -24 723 5C785 38 860 50 940 52C937 20 939 3 955 -43C879 -29 830 -32 768 -52V-230H822C859 -230 880 -228 904 -225V-296C880 -293 859 -292 822 -292ZM386 -269V-90C386 -32 384 13 379 69H454V-395C459 -404 463 -414 468 -423C501 -490 512 -506 523 -510C535 -514 535 -522 528 -524C510 -528 485 -542 457 -561C447 -517 432 -480 403 -423C369 -354 309 -264 276 -229C296 -215 311 -202 328 -178C344 -198 364 -230 386 -269ZM171 -559V-356C132 -336 92 -317 48 -298C65 -273 76 -244 84 -216C109 -235 139 -255 171 -275V-59C171 -26 160 -19 81 -31C113 1 122 30 124 68C220 49 240 26 240 -29V-315C274 -335 308 -352 337 -365C328 -390 325 -419 329 -449C299 -429 269 -411 240 -394V-559C262 -559 285 -556 303 -552V-631C284 -627 258 -624 240 -624V-758C240 -778 244 -790 258 -800C276 -813 273 -818 244 -818C216 -818 198 -820 164 -826C168 -797 171 -750 171 -624C110 -624 94 -625 68 -631V-552C94 -558 110 -559 171 -559ZM626 -572C642 -549 653 -526 667 -490L726 -530C715 -508 703 -485 689 -463C716 -458 736 -450 756 -433C773 -469 794 -522 816 -589C840 -548 858 -509 874 -459L947 -488C918 -545 879 -605 838 -660C843 -676 848 -692 853 -709C866 -757 874 -770 879 -773C887 -778 886 -785 879 -786C859 -788 825 -800 802 -812C791 -707 768 -617 728 -535C704 -571 680 -603 646 -641C650 -657 655 -673 659 -690C677 -761 682 -769 687 -772C699 -778 697 -785 689 -786C668 -788 643 -795 613 -811C596 -663 562 -553 504 -446C525 -439 550 -428 570 -415C587 -451 606 -504 626 -572ZM516 -739C531 -745 529 -752 514 -757C494 -765 465 -783 441 -800C426 -748 408 -703 390 -670C351 -598 334 -572 315 -549C337 -537 351 -522 367 -497C391 -531 416 -572 453 -646C487 -716 502 -733 516 -739Z"/>
</svg>