<svg xmlns="http://www.w3.org/2000/svg" viewBox="0 -1000 1000 1000">
	<path fill="#000000" d="M581 -409C567 -433 552 -472 549 -492L472 -473C485 -455 498 -422 505 -387ZM790 19V66H869C864 44 862 23 862 -4V-202C862 -231 865 -254 869 -274C830 -272 753 -270 638 -270C523 -270 447 -271 405 -274C411 -254 413 -229 413 -202V4C413 28 411 48 405 74H480V19ZM480 -151V-212H790V-151ZM790 -97V-38H480V-97ZM762 -385C798 -443 813 -460 825 -464C843 -470 842 -473 822 -477C795 -482 768 -489 744 -499C735 -466 721 -434 693 -385H532C461 -385 410 -387 352 -392V-322C409 -325 516 -327 634 -327C753 -327 877 -325 934 -322V-392C890 -387 833 -385 762 -385ZM856 -532C879 -518 905 -503 934 -487C944 -524 956 -548 974 -567C904 -585 841 -617 795 -656C731 -710 696 -742 667 -779C675 -786 682 -792 688 -796C703 -806 697 -812 682 -815C658 -819 639 -826 612 -845C599 -798 562 -748 509 -691C420 -595 373 -565 297 -534C325 -520 347 -501 361 -478C385 -495 408 -512 430 -529V-499C488 -503 531 -505 641 -505C724 -505 799 -502 856 -498ZM649 -559L687 -574C671 -599 658 -625 648 -660L581 -632C593 -615 607 -582 614 -559C547 -559 507 -560 469 -562C532 -615 587 -673 630 -732C660 -693 692 -659 737 -620C760 -599 784 -580 811 -562C770 -560 723 -559 649 -559ZM177 -582V-354C135 -333 91 -314 45 -297C63 -272 76 -245 84 -213C111 -234 143 -256 177 -276V-52C177 -17 155 -8 84 -25C109 13 118 36 120 76C230 49 250 40 250 -22V-317C282 -334 314 -349 341 -361C332 -386 329 -417 333 -448C306 -429 278 -412 250 -395V-581C291 -581 319 -579 340 -575V-655C318 -651 291 -648 250 -648V-766C250 -786 255 -797 267 -807C286 -823 284 -827 253 -827C225 -827 206 -829 170 -835C174 -806 177 -749 177 -648C116 -648 92 -650 65 -655V-575C92 -580 116 -582 177 -582Z"/>
</svg>