<svg xmlns="http://www.w3.org/2000/svg" viewBox="0 -1000 1000 1000">
	<path fill="#000000" d="M830 -327H694V-402H830ZM166 -574V-361C129 -343 91 -326 46 -308C63 -283 77 -252 84 -224C110 -244 138 -262 166 -280V-59C166 -24 154 -15 83 -32C108 6 117 29 119 69C228 42 237 33 237 -29V-320C267 -336 297 -349 325 -360C316 -385 313 -416 317 -447C289 -429 263 -413 237 -399V-574C283 -574 319 -571 340 -567V-648C318 -644 283 -641 237 -641V-767C237 -784 241 -798 254 -808C273 -823 271 -828 240 -828C212 -828 194 -830 159 -836C163 -807 166 -747 166 -641C105 -641 84 -643 57 -648V-567C84 -573 105 -574 166 -574ZM785 -619V-570H609C496 -570 431 -571 388 -580V-499C433 -507 508 -509 616 -509C729 -509 816 -506 856 -499C854 -513 853 -548 853 -580V-723C853 -755 855 -792 856 -804C816 -797 730 -793 619 -793C508 -793 436 -796 391 -804V-723C433 -732 495 -733 608 -733H785V-678H544C480 -678 456 -680 430 -686V-611C456 -617 478 -619 544 -619ZM566 -31C547 -66 531 -101 517 -136L448 -104C469 -67 481 -42 492 1ZM790 -210V-272C834 -272 867 -271 891 -270C890 -294 889 -330 889 -366C889 -401 891 -438 891 -461C861 -459 821 -458 763 -458C703 -458 664 -459 633 -461C634 -438 635 -401 635 -366C635 -331 635 -295 633 -270C655 -271 682 -272 717 -272V-210H474C405 -210 337 -214 310 -221V-142C336 -146 404 -148 474 -148H717V-54C717 -12 705 -5 600 -14C624 19 635 43 639 76C774 55 790 34 790 -19V-148C857 -148 926 -145 951 -141V-221C928 -214 857 -210 790 -210ZM494 -323V-405C518 -405 559 -401 580 -395V-469C553 -462 515 -459 462 -459C408 -459 371 -462 344 -469V-395C364 -400 392 -404 429 -405V-317C384 -315 339 -315 300 -319C312 -290 319 -264 323 -237C405 -256 490 -270 582 -276C581 -299 581 -319 583 -336C555 -330 526 -326 494 -323Z"/>
</svg>