<svg xmlns="http://www.w3.org/2000/svg" viewBox="0 -1000 1000 1000">
	<path fill="#000000" d="M610 -458V-540C590 -533 564 -530 527 -530C489 -530 466 -533 446 -540V-458C465 -465 490 -469 528 -469C565 -469 590 -465 610 -458ZM883 -752C861 -784 847 -803 824 -831L758 -793C784 -763 798 -742 817 -708ZM227 -177V-122H300C295 -178 293 -212 293 -260V-609C293 -650 296 -684 300 -709C267 -705 214 -702 181 -702C147 -702 107 -704 71 -709C75 -685 78 -646 78 -609V-192C78 -145 76 -107 70 -52H142V-177ZM142 -244V-635H227V-244ZM560 -145V-102H625C621 -142 620 -165 620 -212V-314C620 -355 621 -378 623 -396C606 -391 588 -390 533 -390C477 -390 457 -392 441 -396C444 -374 445 -351 445 -314V-164C445 -126 444 -97 439 -53H505V-145ZM505 -203V-333H560V-203ZM776 -152C817 -230 835 -278 869 -419C879 -462 894 -498 901 -501C916 -508 915 -516 899 -517C866 -520 845 -526 815 -538C798 -397 775 -300 748 -235C733 -299 719 -418 711 -616C885 -616 895 -615 919 -609V-693C899 -689 835 -687 709 -686C709 -749 714 -802 721 -809C736 -826 734 -836 714 -834C692 -832 657 -839 625 -851C626 -809 629 -755 635 -686C415 -686 367 -687 341 -693C346 -535 348 -455 346 -362C343 -183 295 -36 205 41C234 48 262 64 280 82C395 -86 421 -193 415 -616H640C663 -336 677 -227 704 -156C646 -72 557 -4 469 22C497 40 521 63 536 81C617 35 687 -22 736 -86C759 -41 782 -7 801 13C898 114 920 84 964 -78C940 -82 916 -100 894 -127C875 -27 863 -26 829 -64C810 -85 793 -111 776 -152Z"/>
</svg>