<svg xmlns="http://www.w3.org/2000/svg" viewBox="0 -1000 1000 1000">
	<path fill="#000000" d="M459 -186H386V-304H459ZM840 -115C882 -191 903 -306 911 -578C929 -578 945 -577 956 -575V-646C939 -644 919 -643 882 -643H775C799 -750 809 -777 819 -786C836 -800 836 -808 820 -808C791 -808 753 -817 736 -827C722 -686 685 -556 636 -450L637 -507C624 -503 593 -501 565 -501H426C432 -510 438 -515 444 -518C462 -527 460 -538 445 -539C428 -540 389 -553 374 -566C364 -511 357 -489 335 -445C326 -427 316 -409 298 -381C295 -404 295 -419 299 -448C273 -433 248 -420 226 -410V-549C259 -549 281 -547 307 -542V-623C281 -618 261 -616 226 -616V-769C226 -782 229 -793 242 -802C267 -819 260 -826 227 -825C199 -824 181 -825 146 -831C153 -792 155 -763 155 -616C115 -616 88 -618 63 -623V-542C88 -547 124 -550 155 -550V-378C124 -365 89 -353 44 -338C54 -307 59 -281 61 -245C92 -266 123 -285 155 -303V-60C155 -32 145 -23 51 -36C75 -1 86 28 89 58C205 50 226 23 226 -32V-340C248 -351 269 -362 292 -372C277 -350 260 -329 244 -313C264 -298 279 -284 295 -264C304 -277 315 -294 326 -312V-164C326 -129 325 -103 323 -66H386V-127H459V-85H521C519 -119 519 -150 519 -185V-304C519 -333 520 -345 521 -361C505 -360 474 -359 423 -359C394 -359 371 -359 354 -359C369 -387 383 -415 395 -440H569L561 -91C560 -29 542 -19 465 -22C487 11 493 27 496 56C603 34 629 7 630 -87L635 -412C650 -399 668 -381 676 -367C686 -389 696 -412 705 -435C705 -312 728 -195 760 -121C710 -56 683 -31 618 8C638 26 663 58 673 79C718 39 759 -4 800 -57C832 -18 873 24 924 64C932 34 946 2 965 -29C915 -51 883 -69 840 -115ZM750 -555C753 -563 756 -571 758 -578H843C839 -338 822 -238 801 -185C775 -258 755 -384 750 -555ZM455 -693V-769C455 -782 456 -790 460 -793C473 -803 469 -811 458 -808C447 -805 400 -806 387 -809C389 -781 390 -750 390 -693C361 -693 337 -695 315 -698V-630C336 -633 361 -634 390 -634V-567H455V-635H540V-549H603V-634C625 -634 652 -632 670 -630V-698C652 -695 628 -693 603 -693V-774C603 -787 604 -793 608 -797C620 -808 618 -816 606 -813C596 -810 551 -811 537 -814C539 -785 540 -749 540 -693Z"/>
</svg>