<svg xmlns="http://www.w3.org/2000/svg" viewBox="0 -1000 1000 1000">
	<path fill="#000000" d="M186 -358C150 -346 111 -335 56 -321C66 -290 74 -248 78 -219C113 -241 149 -262 186 -279V-56C186 -32 171 -15 77 -31C102 4 113 35 116 65C244 57 259 16 259 -25V-312C283 -321 308 -330 332 -338C328 -364 327 -391 328 -421C303 -408 280 -397 259 -388V-544C301 -544 331 -541 357 -536V-623C331 -618 301 -616 259 -615V-768C259 -785 263 -793 277 -804C298 -821 293 -830 262 -829C234 -828 211 -830 175 -836C182 -803 186 -759 186 -615C139 -615 100 -618 72 -623V-536C100 -541 139 -544 186 -545ZM564 -757V-793C564 -799 567 -808 575 -814C586 -822 583 -829 571 -828C546 -826 517 -827 491 -831C495 -812 497 -788 498 -757C446 -757 398 -759 347 -764V-691C398 -697 445 -699 498 -699V-648H564V-699H713V-642H779V-699C836 -699 882 -696 923 -691V-764C878 -759 833 -757 779 -757V-797C779 -809 781 -813 790 -818C801 -824 798 -833 786 -832C761 -831 731 -832 705 -836C710 -813 712 -786 713 -757ZM606 -654C614 -640 633 -603 638 -588L706 -609C692 -632 677 -661 673 -675ZM482 -537H640V-495H482ZM482 -351H640V-303H482ZM482 -446H640V-400H482ZM421 -483V-317C421 -291 419 -263 415 -227H482V-254H694C764 -254 893 -252 939 -249V-311C897 -307 768 -303 703 -303V-350C759 -350 860 -346 896 -344V-408C863 -405 749 -400 703 -400V-445C773 -445 859 -441 895 -439V-503C861 -500 774 -496 703 -496V-537C774 -537 870 -534 920 -531V-594C867 -589 766 -586 693 -586H499C507 -594 514 -601 520 -607C528 -614 528 -619 520 -622C498 -630 478 -638 458 -651C427 -570 364 -483 307 -445C328 -437 340 -426 354 -400C384 -433 403 -457 421 -483ZM448 -153C483 -112 527 -70 566 -43C493 -20 384 -4 298 0C319 18 336 50 342 73C427 67 554 35 643 -12C777 38 841 54 926 60C924 37 933 1 954 -23C865 -18 781 -29 705 -50C784 -105 844 -166 875 -220C834 -214 726 -210 606 -210C499 -210 435 -212 385 -219V-148C401 -150 422 -152 448 -153ZM522 -157H746C709 -118 680 -98 638 -74C593 -96 549 -128 522 -157Z"/>
</svg>