<svg xmlns="http://www.w3.org/2000/svg" viewBox="0 -1000 1000 1000">
	<path fill="#000000" d="M739 -235H518V-298H739ZM719 -396C731 -378 743 -363 755 -348C723 -346 683 -346 631 -346C582 -346 543 -346 510 -347C525 -363 537 -379 547 -396ZM699 -448H561V-497H699ZM170 -537V-357C131 -343 90 -332 40 -319C50 -288 59 -250 62 -219C94 -240 131 -260 170 -279V-56C170 -28 155 -15 61 -31C86 4 97 35 100 65C218 52 238 28 238 -25V-310C272 -324 305 -336 336 -346C332 -372 330 -396 332 -427C298 -410 267 -395 238 -383V-536C279 -536 304 -533 331 -528V-608C304 -603 270 -600 238 -600V-758C238 -775 242 -783 256 -794C277 -811 272 -820 241 -819C213 -818 195 -820 159 -826C166 -793 170 -748 170 -600C123 -600 84 -603 56 -608V-528C84 -533 130 -537 170 -537ZM699 -590V-547H561V-590ZM764 -640C764 -657 767 -664 774 -670C783 -678 782 -687 771 -686C748 -685 719 -685 697 -688C699 -673 699 -662 699 -640H561C562 -654 566 -662 571 -666C582 -676 579 -683 569 -682C549 -681 513 -682 495 -685C496 -672 497 -658 497 -640C465 -640 431 -643 398 -646V-583C430 -587 460 -590 497 -590V-547C456 -547 428 -549 395 -552V-490C427 -494 457 -497 497 -497V-448C458 -448 414 -450 356 -453V-389C413 -393 452 -396 488 -396C446 -349 347 -290 280 -266C298 -251 314 -228 320 -205C364 -225 414 -258 458 -296C459 -286 459 -276 459 -266C459 -236 458 -207 457 -184C491 -186 535 -186 596 -186V-34C542 -46 503 -66 483 -94C500 -116 507 -122 513 -124C526 -129 526 -136 514 -141C496 -148 474 -162 454 -179C420 -103 370 -46 291 0C312 16 325 38 331 58C373 30 421 -13 456 -57C503 -3 563 22 656 34C715 41 872 46 933 42C932 19 938 -8 954 -36C868 -22 726 -19 658 -25V-86H766C796 -86 819 -84 843 -80V-141C819 -137 796 -135 766 -135H658V-186C724 -186 768 -186 803 -183C803 -206 801 -237 801 -266C801 -278 801 -290 802 -302C835 -274 875 -253 927 -233C936 -259 946 -279 960 -304C868 -323 821 -351 777 -396C808 -396 880 -393 935 -389V-453C879 -450 827 -448 764 -448V-496C790 -496 828 -494 858 -490V-552C828 -548 802 -547 764 -547V-589C793 -589 823 -587 854 -583V-646C823 -642 794 -640 764 -640ZM598 -747C444 -747 364 -749 315 -753V-622H377V-696H877V-619H940V-753C891 -749 819 -747 674 -747C670 -774 666 -805 663 -833L582 -819C589 -794 594 -771 598 -747Z"/>
</svg>