<svg xmlns="http://www.w3.org/2000/svg" viewBox="0 -1000 1000 1000">
	<path fill="#000000" d="M579 -237V-186C474 -186 465 -186 436 -191V-121C467 -126 479 -127 579 -127V-69C462 -70 433 -73 404 -78V-1C435 -7 462 -10 578 -10C577 18 575 47 573 67H640V-292C640 -310 642 -315 649 -321C667 -336 665 -344 642 -344C618 -344 596 -346 573 -350C575 -339 576 -319 578 -297C466 -297 451 -299 424 -303V-232C453 -236 470 -237 579 -237ZM736 -546C689 -471 662 -439 607 -399C626 -390 645 -376 659 -360C697 -400 729 -442 755 -494V-428C755 -407 755 -381 752 -356C751 -356 751 -356 750 -356C728 -356 706 -358 682 -363C687 -333 689 -300 689 -253V79H755C753 52 751 14 750 -25C877 -25 909 -22 937 -16V-94C907 -88 880 -85 750 -85V-143C852 -143 880 -141 905 -137V-203C879 -198 860 -197 750 -197V-258C856 -258 899 -253 921 -249V-322C897 -316 865 -313 750 -313C750 -322 753 -330 757 -333C764 -337 768 -341 770 -344H817C813 -371 812 -403 812 -428V-491C837 -440 865 -408 917 -367C923 -392 935 -413 951 -432C903 -451 868 -485 827 -546C881 -546 900 -546 923 -544V-606C895 -601 865 -599 812 -599V-610C812 -624 816 -640 821 -644C836 -654 834 -667 814 -666C789 -665 768 -666 749 -669C752 -653 754 -632 755 -599C719 -599 691 -602 664 -606V-544C686 -546 705 -546 736 -546ZM157 -544V-358C125 -346 91 -334 45 -319C55 -288 61 -261 63 -225C94 -245 125 -264 157 -282V-52C157 -22 145 -15 50 -28C74 6 85 36 88 66C216 53 228 38 228 -24V-319C253 -332 278 -344 303 -355C299 -381 299 -398 301 -429C273 -414 250 -401 228 -390V-544C263 -544 282 -542 307 -537V-614C282 -609 262 -607 228 -607V-759C228 -773 232 -781 244 -791C267 -812 263 -823 228 -822C200 -821 183 -822 148 -828C155 -790 157 -751 157 -607C116 -607 88 -609 62 -614V-537C88 -542 116 -544 157 -544ZM602 -745C394 -745 366 -748 324 -753C343 -271 323 -101 255 28C280 32 307 47 324 72C372 -64 391 -139 396 -377C415 -368 433 -358 445 -347C476 -390 496 -429 517 -485V-439C517 -414 515 -383 512 -355H578C575 -384 574 -414 574 -439V-473C595 -454 611 -438 626 -420L662 -467C636 -485 611 -506 596 -520L574 -492V-541C610 -541 635 -540 659 -538V-598C633 -595 611 -593 574 -593V-614C574 -631 577 -643 583 -647C599 -657 596 -671 575 -670C557 -669 530 -670 511 -673C514 -656 517 -620 517 -593C480 -593 444 -595 411 -598V-538C437 -540 468 -541 497 -541C467 -473 441 -433 397 -387C398 -465 399 -562 399 -683H743C891 -683 909 -683 951 -682V-753C915 -749 836 -745 682 -745C676 -776 667 -811 656 -842L575 -831C590 -799 596 -777 602 -745Z"/>
</svg>