<svg xmlns="http://www.w3.org/2000/svg" viewBox="0 -1000 1000 1000">
	<path fill="#000000" d="M546 -396H455V-445H546ZM781 -398H681V-447H781ZM678 -239H545V-281H678ZM545 -159V-204H678V-159ZM577 -123H597C614 -74 653 -26 695 3C747 39 828 66 898 70C908 37 921 15 946 -3C869 0 809 -8 758 -26C809 -56 825 -62 836 -61C850 -60 854 -67 840 -75C818 -87 803 -98 793 -112C777 -94 747 -67 715 -45C687 -62 658 -92 640 -123C760 -123 853 -120 920 -116V-165C872 -163 810 -161 733 -160V-204C786 -204 827 -202 858 -198V-246C829 -242 805 -240 733 -239V-281C814 -281 850 -279 881 -275V-324C853 -320 812 -318 733 -317V-364C777 -364 793 -363 825 -359C824 -394 824 -456 825 -486C802 -483 777 -482 733 -482C689 -482 659 -483 636 -486C639 -456 639 -391 636 -360C648 -361 662 -362 678 -363V-317H545V-361C563 -360 576 -359 590 -358C590 -393 590 -452 590 -482C566 -480 547 -478 502 -478C458 -478 433 -480 410 -482C413 -451 413 -399 410 -359C431 -361 453 -362 490 -362V-317C405 -318 375 -320 337 -324V-275C378 -279 396 -279 490 -281V-239C439 -240 402 -242 366 -246V-198C404 -201 439 -203 490 -204V-160C396 -161 351 -162 304 -165V-116C382 -121 424 -122 506 -122C403 -59 323 -36 263 -31C291 -17 305 -3 317 20C369 0 410 -17 446 -35V1C446 15 439 26 426 32C436 46 440 56 441 83C457 74 483 65 516 56L599 34C601 14 606 -1 616 -19C590 -10 558 -2 502 7V-66C530 -84 554 -102 577 -123ZM654 -661H787V-625H654ZM594 -625H461V-661H594ZM654 -738C776 -738 848 -736 916 -732V-788C848 -782 776 -780 654 -780V-799C654 -809 655 -817 661 -820C671 -825 671 -829 660 -829C634 -828 610 -829 588 -833C591 -820 593 -807 593 -780C487 -781 416 -784 353 -788V-732C416 -736 487 -738 594 -738V-696C486 -696 450 -697 400 -701C406 -669 405 -615 400 -583C450 -586 508 -588 594 -589V-553C439 -553 370 -555 320 -560V-424H382V-516H859V-429H924V-560C870 -555 814 -553 654 -553V-589C743 -589 794 -587 846 -582C844 -618 843 -669 846 -701C796 -697 744 -696 654 -696ZM166 -385C127 -366 87 -348 51 -335C62 -310 73 -275 79 -248C101 -265 132 -287 166 -309V-49C166 -7 158 1 78 -13C108 17 114 30 116 74C228 58 237 48 237 -18V-353C262 -368 286 -382 306 -392C298 -413 294 -445 298 -466C281 -453 260 -439 237 -425V-570C271 -570 291 -568 316 -564V-639C291 -635 271 -633 237 -633V-739C237 -764 240 -773 253 -784C275 -802 271 -813 241 -814C219 -815 192 -819 157 -825C163 -788 166 -747 166 -633C120 -633 94 -634 65 -639V-564C94 -569 120 -571 166 -571Z"/>
</svg>