<svg xmlns="http://www.w3.org/2000/svg" viewBox="0 -1000 1000 1000">
	<path fill="#000000" d="M236 -646C213 -583 143 -537 73 -519C101 -507 127 -490 137 -469C215 -511 253 -544 280 -598C334 -565 376 -533 432 -487L478 -548C419 -585 360 -620 307 -646C377 -646 442 -643 480 -637V-716C442 -711 381 -706 312 -706C325 -771 332 -789 345 -805C354 -815 354 -822 341 -821C308 -820 275 -824 251 -832C255 -792 254 -749 248 -706C174 -706 126 -710 84 -716V-637C124 -643 169 -646 236 -646ZM254 -173H165V-270H254ZM165 -114H254V-73H326C320 -99 318 -133 318 -167V-268C318 -294 320 -321 325 -338C303 -333 276 -331 209 -331C141 -331 114 -334 93 -338C96 -322 99 -292 99 -268V-143C99 -109 97 -78 93 -49H165ZM614 -399H789C777 -305 748 -234 701 -175C661 -216 629 -308 614 -399ZM539 -395C564 -281 611 -163 650 -119C590 -61 527 -22 435 4C448 -13 452 -32 452 -70V-392C466 -391 479 -389 488 -387V-465C464 -461 414 -458 276 -458C152 -458 82 -461 52 -465V-387C80 -392 134 -396 159 -396H379V-67C379 -39 372 -33 293 -39C308 -7 314 15 316 49C371 41 405 31 424 15C453 31 472 51 486 77C554 52 648 -8 707 -66C771 -11 837 28 925 64C936 24 947 -5 973 -38C888 -46 823 -75 758 -125C822 -212 854 -300 889 -477C843 -471 786 -467 739 -467V-632C830 -632 882 -629 934 -624V-707C883 -702 818 -699 739 -699V-781C739 -798 743 -808 752 -814C771 -826 767 -833 746 -833C714 -833 690 -835 653 -841C659 -814 663 -756 664 -699C592 -700 553 -702 505 -707V-624C553 -629 591 -631 664 -632V-467C605 -467 564 -469 512 -474V-392C522 -393 531 -394 539 -395Z"/>
</svg>