<svg xmlns="http://www.w3.org/2000/svg" viewBox="0 -1000 1000 1000">
	<path fill="#000000" d="M758 -232C729 -302 705 -409 700 -494L663 -484C678 -518 692 -555 704 -595H808C808 -422 790 -312 758 -232ZM764 -92C814 -24 871 27 917 57C930 27 945 1 971 -22C912 -44 855 -87 803 -156C851 -250 878 -370 883 -595C907 -595 933 -593 954 -591V-664C923 -660 891 -658 836 -658H722C758 -783 765 -796 771 -800C791 -813 790 -819 773 -820C738 -821 712 -825 678 -835C677 -717 608 -497 556 -436C576 -427 602 -409 616 -391C623 -404 631 -418 639 -433C655 -323 684 -226 720 -158C664 -71 597 -21 524 15C557 33 582 55 599 81C663 36 722 -32 764 -92ZM478 -78C503 -53 526 -30 544 -10L599 -65C569 -90 543 -113 516 -135C551 -198 572 -275 589 -377C550 -375 527 -374 469 -374C418 -374 375 -375 340 -377V-314C360 -316 377 -317 402 -317H512C503 -263 489 -216 467 -176C437 -201 405 -226 367 -256L320 -208C354 -185 393 -153 430 -121C389 -74 331 -36 246 -4C273 18 288 34 300 58C378 16 435 -25 478 -78ZM234 -97C259 -75 282 -54 301 -35L346 -93C329 -108 299 -133 265 -160C288 -219 301 -288 311 -374C276 -371 254 -371 201 -371C152 -371 124 -371 89 -374V-310C106 -312 123 -313 144 -313H242C235 -268 228 -230 216 -197C185 -221 154 -243 129 -259L88 -209C120 -189 155 -164 188 -136C157 -86 109 -46 34 -1C64 13 82 27 95 49C159 1 202 -45 234 -97ZM529 -569C562 -626 583 -694 604 -787C568 -785 537 -784 481 -784C429 -784 400 -785 364 -787V-721C387 -723 403 -725 428 -724H524C518 -687 504 -646 481 -607C457 -627 430 -646 396 -668L356 -620C393 -597 422 -577 447 -556C412 -511 366 -471 312 -442C342 -427 364 -410 378 -396C427 -437 465 -474 495 -515C511 -499 526 -483 543 -465L586 -520C565 -539 547 -554 529 -569ZM244 -521C268 -501 289 -481 306 -463L357 -517C329 -540 303 -560 278 -579C308 -637 326 -703 338 -781C297 -779 266 -778 207 -778C149 -778 123 -779 81 -781V-716C103 -718 123 -719 150 -719H262C255 -680 243 -645 229 -613C203 -631 174 -649 142 -669L106 -618C135 -601 167 -580 196 -558C164 -516 120 -477 59 -438C88 -422 106 -408 121 -392C172 -434 212 -476 244 -521Z"/>
</svg>