<svg xmlns="http://www.w3.org/2000/svg" viewBox="0 -1000 1000 1000">
	<path fill="#000000" d="M793 -240C771 -303 751 -395 750 -473L694 -462C716 -495 735 -533 749 -570H829C827 -404 815 -309 793 -240ZM312 -783C281 -778 246 -777 192 -777C138 -777 109 -779 80 -783C84 -752 86 -683 86 -611V-173C86 -90 86 -29 83 58H159V-712H229L176 -450C220 -375 244 -304 241 -252C238 -193 219 -177 166 -190C189 -158 199 -135 200 -103C267 -123 303 -148 308 -239C312 -308 286 -384 232 -459ZM454 -313H394V-395H454ZM518 -395H579V-313H518ZM454 -446H394V-520H454ZM518 -520H579V-446H518ZM454 -651V-577C384 -577 365 -578 328 -582C332 -562 334 -534 334 -509V-326C334 -305 332 -274 328 -253C352 -255 381 -257 419 -258C381 -158 323 -87 258 -37C281 -19 293 -3 308 28C365 -39 418 -116 454 -214V-91C454 -51 451 22 447 71H526C521 22 518 -51 518 -91V-190C551 -156 583 -111 603 -67L664 -118C634 -158 594 -200 562 -234L518 -197V-259C574 -259 612 -257 643 -253C640 -274 638 -305 638 -326V-476C651 -469 665 -455 675 -436C680 -442 684 -448 688 -454C697 -326 719 -235 758 -156C710 -65 657 -9 588 36C618 54 637 70 654 90C704 42 759 -25 798 -88C843 -19 890 34 924 61C934 31 952 6 973 -22C934 -44 880 -96 835 -159C875 -252 892 -368 896 -569C916 -569 932 -568 948 -566V-639C918 -635 887 -633 834 -633H770C815 -769 824 -782 830 -786C849 -798 849 -806 833 -806C803 -806 769 -814 740 -824C734 -696 689 -559 638 -486V-509C638 -540 639 -562 643 -582C606 -578 583 -577 518 -577V-651C578 -651 607 -649 665 -643V-722C606 -716 580 -714 518 -714C518 -786 521 -807 527 -812C542 -825 540 -833 522 -831C491 -827 478 -828 446 -833C450 -814 454 -780 454 -714C409 -714 366 -716 309 -722V-643C366 -649 399 -651 454 -651Z"/>
</svg>