<svg xmlns="http://www.w3.org/2000/svg" viewBox="0 -1000 1000 1000">
	<path fill="#000000" d="M339 -735V-767C339 -787 343 -798 353 -802C372 -810 374 -822 349 -821C323 -821 308 -822 268 -825C272 -811 273 -798 273 -772V-735C216 -735 167 -738 128 -742V-678C167 -681 216 -683 273 -683V-628C192 -628 129 -630 86 -633V-570C120 -574 165 -576 221 -576C189 -531 119 -476 60 -461C79 -446 89 -431 101 -405C188 -454 244 -511 273 -566V-525C273 -488 269 -447 263 -420H349C342 -452 339 -480 339 -525V-576C414 -576 470 -574 512 -570V-633C470 -630 414 -628 339 -628V-683C401 -683 445 -681 482 -678V-742C445 -738 392 -735 339 -735ZM397 -239C366 -167 333 -127 271 -85C293 -75 305 -66 326 -41C360 -78 381 -104 400 -131C421 -112 436 -92 449 -73C385 -32 308 -6 219 2C240 24 251 43 256 67C387 39 511 -32 565 -106V-11C565 21 564 45 560 74H637C634 47 633 22 633 -11V-101C693 -26 782 21 925 53C928 26 934 8 957 -23C874 -25 784 -51 717 -99C727 -113 736 -125 744 -135C783 -113 821 -86 845 -63L888 -113C855 -133 824 -149 773 -172C792 -194 799 -201 802 -202C816 -208 816 -215 803 -220C790 -225 779 -231 766 -239C830 -239 895 -236 916 -233V-300C868 -294 775 -291 633 -291V-297C633 -308 637 -316 645 -320C655 -326 653 -335 639 -335C598 -335 579 -337 561 -341C563 -330 564 -314 564 -291C420 -291 319 -294 270 -300V-233C288 -236 343 -239 397 -239ZM565 -239V-178C546 -154 524 -131 504 -114C484 -131 461 -149 429 -173C445 -195 452 -202 456 -203C472 -208 472 -218 457 -221C440 -225 427 -230 415 -239ZM745 -239C727 -199 710 -173 674 -134C661 -147 645 -166 633 -182V-239ZM908 -402L952 -456C900 -489 846 -520 796 -548C824 -588 844 -633 857 -691C886 -691 914 -689 937 -686V-754C910 -751 875 -749 816 -749H630C642 -773 650 -783 657 -787C676 -798 674 -805 662 -805C632 -806 610 -812 583 -825C565 -753 551 -719 489 -644C515 -642 537 -635 556 -622C577 -653 590 -673 601 -691H790C781 -651 764 -610 740 -578C697 -601 653 -623 610 -643L566 -596C609 -577 652 -555 693 -532C643 -495 573 -475 494 -466L515 -485C486 -510 459 -529 406 -563L360 -521C402 -494 433 -468 462 -436L490 -462C510 -446 525 -425 533 -406C634 -423 700 -455 750 -498C795 -471 840 -441 885 -408C832 -404 728 -403 533 -403C303 -403 196 -406 161 -410C184 -186 149 -40 65 45C101 50 125 59 146 77C214 -25 240 -155 236 -345H534C763 -345 842 -343 908 -337Z"/>
</svg>