<svg xmlns="http://www.w3.org/2000/svg" viewBox="0 -1000 1000 1000">
	<path fill="#000000" d="M300 -710C276 -748 259 -788 248 -835L161 -806C189 -761 201 -731 210 -677ZM639 -89V-25H528V-89ZM528 -143V-204H639V-143ZM702 -143V-204H809V-143ZM809 -89V-25H702V-89ZM583 -476C567 -497 552 -527 545 -549L472 -527C486 -506 504 -474 512 -453ZM887 -516C904 -521 903 -529 887 -531C863 -534 830 -550 813 -564C804 -541 781 -504 758 -475C776 -473 810 -463 826 -454C856 -495 876 -513 887 -516ZM545 -734C567 -773 576 -783 588 -789C602 -796 603 -808 589 -808C569 -808 541 -815 506 -832C489 -776 449 -699 404 -633V-668C354 -663 308 -661 239 -661C159 -661 118 -663 51 -668V-589C83 -592 114 -595 137 -595C140 -250 111 -106 26 -5C57 8 78 24 100 48C158 -61 192 -188 203 -403H301L283 -109C280 -55 257 -40 175 -63C201 -27 216 15 216 45C325 27 348 1 354 -109L372 -475C353 -471 330 -470 300 -470H206C207 -509 207 -551 207 -596C218 -596 229 -596 242 -596C295 -596 331 -595 374 -591C358 -571 341 -552 325 -537C351 -529 378 -515 391 -500C410 -524 434 -556 455 -587C463 -574 468 -561 469 -550C524 -552 574 -556 638 -562V-448C552 -448 471 -451 423 -455V-391C462 -395 499 -397 559 -397C516 -353 450 -314 373 -282C394 -267 412 -242 420 -222C435 -230 449 -238 463 -247V-24C463 21 462 48 458 76H528V34H809V62H882C878 39 876 12 876 -32V-208C876 -233 878 -249 881 -264C837 -261 769 -259 671 -259C592 -259 531 -260 488 -263C549 -303 592 -347 622 -397H638C638 -349 637 -316 633 -272H707C704 -316 702 -349 702 -397H712C757 -322 816 -284 932 -255C938 -283 950 -309 966 -329C885 -336 818 -354 766 -397C838 -396 898 -394 940 -391V-455C887 -450 803 -448 702 -448V-568C740 -571 780 -575 827 -580C874 -585 892 -584 915 -579C927 -576 930 -587 919 -597C907 -608 895 -628 885 -652C856 -643 797 -631 741 -624C643 -611 534 -602 465 -602C483 -628 500 -654 512 -674H765C826 -674 882 -671 926 -668V-739C885 -736 830 -734 765 -734Z"/>
</svg>