<svg xmlns="http://www.w3.org/2000/svg" viewBox="0 -1000 1000 1000">
	<path fill="#000000" d="M791 -347C777 -351 757 -356 736 -366C719 -329 715 -320 699 -301L749 -278C776 -321 785 -332 790 -335C801 -340 800 -344 791 -347ZM818 -271H681V-376H818ZM607 -306C596 -321 580 -341 559 -365L509 -348C526 -329 540 -309 551 -284ZM621 -271H488V-376H621ZM522 33H785V69H853C850 50 849 25 849 7V-137C849 -168 851 -190 854 -198C826 -196 737 -195 654 -195C572 -195 469 -197 453 -198C456 -191 458 -169 458 -137V16C458 38 456 59 452 77H522ZM785 -103H522V-148H785ZM522 -57H785V-15H522ZM654 -589C684 -557 715 -527 750 -498H555C594 -530 629 -562 654 -589ZM426 -403V-323C426 -291 425 -252 423 -222C489 -226 562 -227 660 -227C763 -227 818 -226 883 -223C880 -260 880 -286 880 -324C880 -352 881 -386 882 -415C893 -409 904 -404 916 -399C923 -429 937 -454 962 -471C871 -492 766 -559 693 -628C697 -630 701 -632 706 -633C726 -640 723 -648 715 -649C703 -651 679 -657 659 -663C710 -663 755 -663 755 -663C816 -663 872 -660 916 -657V-731C874 -728 820 -726 755 -726H559C580 -759 598 -774 613 -778C629 -783 631 -794 618 -797C583 -803 559 -816 527 -841C498 -743 420 -622 350 -561C376 -556 399 -539 410 -523C436 -549 483 -609 519 -663H628C612 -636 588 -604 547 -568C475 -504 421 -464 384 -450C401 -432 407 -420 408 -392C414 -395 419 -399 426 -403ZM529 -477V-447C560 -450 591 -451 652 -451C715 -451 746 -450 779 -447V-477C804 -459 831 -441 862 -425C802 -422 737 -421 659 -421C585 -421 518 -422 458 -424C481 -440 505 -458 529 -477ZM287 -718C277 -754 259 -800 243 -831L170 -802C184 -774 204 -722 211 -685ZM214 -464C217 -513 220 -565 222 -614C292 -614 339 -612 384 -607V-685C339 -680 301 -678 227 -678C138 -678 103 -679 56 -685V-607C85 -611 115 -613 145 -613C146 -490 143 -356 133 -297C109 -143 80 -56 34 25C64 31 91 43 114 62C163 -56 194 -189 209 -397H296L283 -108C279 -44 272 -36 197 -40C217 -13 231 23 234 55C337 21 344 10 352 -103L373 -472C345 -466 305 -464 214 -464Z"/>
</svg>