<svg xmlns="http://www.w3.org/2000/svg" viewBox="0 -1000 1000 1000">
	<path fill="#000000" d="M161 -489V-685H285V-489ZM285 -146V-73H366C361 -117 358 -161 358 -208V-663C358 -698 362 -733 366 -759C328 -755 274 -754 223 -754C174 -754 122 -756 84 -759C87 -733 88 -698 88 -663V-176C88 -127 86 -84 80 -39H161V-146ZM161 -215V-422H285V-215ZM523 -599C516 -183 491 -112 310 4C343 18 376 42 394 65C526 -58 577 -150 595 -391H783L763 -102C758 -35 737 -22 616 -42C642 -4 655 29 655 62C815 41 836 19 845 -105L870 -470C842 -466 797 -463 762 -463H599C601 -504 602 -550 603 -600C622 -600 642 -600 664 -600C810 -600 863 -598 941 -593V-677C865 -672 810 -668 662 -668C534 -668 457 -671 377 -677V-593C422 -597 474 -599 523 -599ZM722 -724C707 -763 694 -801 682 -839L587 -805C608 -768 621 -734 631 -694Z"/>
</svg>