<svg xmlns="http://www.w3.org/2000/svg" viewBox="0 -1000 1000 1000">
	<path fill="#000000" d="M761 -620V-567H241V-620ZM241 -670V-723H761V-670ZM334 -514H660C636 -478 618 -458 587 -432H394L421 -447C389 -468 360 -490 334 -514ZM466 -317C354 -317 257 -320 155 -325C156 -290 156 -281 153 -246C150 -211 146 -171 140 -130C213 -134 291 -137 380 -137C293 -77 179 -35 42 -16C80 10 99 35 109 59C261 24 372 -44 466 -135V-85C466 -40 463 20 457 76H552C548 18 545 -40 545 -85V-138H814L808 -79C805 -46 785 -38 667 -52C690 -23 700 3 704 36C851 27 881 0 887 -73L892 -133C894 -155 897 -181 901 -200C797 -195 670 -192 545 -192V-260C657 -260 780 -257 854 -253C850 -280 849 -300 849 -338C849 -378 850 -412 854 -442C798 -437 741 -434 674 -434C709 -462 728 -472 747 -477C763 -480 763 -489 750 -491C733 -495 716 -502 700 -514C754 -513 820 -510 847 -507C842 -544 840 -576 840 -607V-712C840 -744 842 -768 846 -789C797 -784 668 -780 503 -780C340 -780 204 -784 155 -789C161 -763 163 -736 163 -712V-602C163 -578 161 -544 156 -507C187 -510 247 -513 330 -514L267 -476C291 -462 308 -450 324 -434C257 -434 160 -438 94 -442V-373C199 -378 336 -380 466 -380ZM545 -380H773V-317H545ZM466 -192H223L230 -260H466Z"/>
</svg>