<svg xmlns="http://www.w3.org/2000/svg" viewBox="0 -1000 1000 1000">
	<path fill="#000000" d="M174 -670V-733H429V-670ZM373 -547C372 -564 371 -585 370 -617C416 -617 460 -616 500 -612C496 -625 495 -647 495 -669V-743C495 -766 494 -781 498 -798C454 -791 402 -790 289 -790C182 -790 145 -791 93 -798C99 -768 102 -737 102 -704V-418C102 -385 94 -371 69 -356C87 -338 97 -322 102 -294C127 -310 144 -319 173 -330L300 -376C294 -400 294 -414 296 -442C267 -427 208 -406 174 -395V-491H316C328 -426 350 -378 408 -327C440 -299 464 -312 532 -398C503 -413 487 -431 479 -461C450 -390 432 -389 411 -417C401 -430 391 -458 383 -491C454 -491 495 -489 522 -486V-553C496 -549 466 -547 373 -547ZM174 -547V-617H304C305 -593 306 -569 308 -547ZM729 16V61H816C811 32 809 6 809 -19V-229C809 -254 811 -273 815 -290C774 -286 689 -284 563 -284C622 -304 683 -337 724 -371C776 -337 836 -308 902 -287C906 -314 921 -344 944 -368C878 -377 818 -396 770 -422C812 -480 839 -550 854 -662C891 -662 919 -660 937 -657V-728C911 -724 863 -721 794 -721H660C681 -757 695 -774 708 -781C727 -792 729 -802 714 -804C690 -806 663 -817 624 -840C598 -746 554 -673 502 -621C521 -611 536 -596 552 -572C577 -601 602 -634 622 -662H781C770 -559 752 -510 713 -462C683 -492 661 -533 646 -593L577 -583C596 -510 628 -455 667 -417C620 -383 553 -351 489 -336C516 -321 536 -304 548 -284C530 -284 511 -284 492 -284C329 -284 215 -286 166 -290C172 -269 174 -244 174 -229V-3C174 17 172 47 167 78H249V16ZM249 -162V-225H729V-162ZM729 -106V-40H249V-106Z"/>
</svg>