<svg xmlns="http://www.w3.org/2000/svg" viewBox="0 -1000 1000 1000">
	<path fill="#000000" d="M171 -474V-684H269V-474ZM269 -144V-84H345C340 -127 338 -171 338 -217V-659C338 -693 341 -728 345 -754C311 -750 269 -749 223 -749C180 -749 130 -751 96 -754C99 -728 100 -693 100 -659V-164C100 -115 98 -73 93 -28H171V-144ZM171 -209V-410H269V-209ZM721 -675V-615H559V-675ZM669 -459H811V-389H669C670 -412 670 -434 669 -459ZM603 -389H466V-459H603C604 -434 604 -410 603 -389ZM669 -331C735 -331 819 -329 874 -327C873 -352 873 -386 873 -422C873 -460 873 -496 874 -520C818 -516 769 -515 668 -515C668 -530 668 -544 667 -559C718 -559 755 -558 788 -557V-675C851 -675 888 -673 931 -669V-745C888 -740 842 -737 788 -737V-777C788 -791 791 -798 803 -806C814 -813 810 -821 801 -820C771 -818 752 -818 716 -822C721 -807 721 -795 721 -737H559V-781C559 -797 561 -800 573 -806C588 -813 585 -821 571 -820C544 -817 519 -818 483 -821C486 -808 488 -785 489 -737C438 -737 407 -739 368 -745V-669C406 -673 438 -675 489 -675V-557C521 -558 553 -559 603 -559C603 -544 603 -529 603 -515C507 -515 456 -516 399 -520C403 -494 404 -460 404 -422C404 -386 403 -358 399 -329C455 -330 506 -331 601 -331C601 -313 600 -298 599 -284C507 -284 445 -287 391 -292V-222C443 -227 505 -230 593 -230C591 -214 588 -199 583 -180C472 -181 419 -184 359 -189V-118C424 -123 486 -126 563 -126C526 -66 438 -20 320 1C347 26 361 43 374 71C528 15 598 -32 639 -126H651C699 -35 779 33 901 63C907 32 924 1 950 -20C830 -32 755 -69 710 -126C797 -126 879 -122 938 -118V-189C868 -183 797 -180 656 -180C659 -193 661 -210 663 -230C769 -230 837 -228 894 -222V-292C838 -286 770 -284 667 -284C668 -299 669 -315 669 -331Z"/>
</svg>