<svg xmlns="http://www.w3.org/2000/svg" viewBox="0 -1000 1000 1000">
	<path fill="#000000" d="M448 -281C424 -322 384 -387 360 -427L298 -390C331 -339 359 -288 378 -242ZM718 -416V-687C798 -686 858 -684 904 -679V-768C850 -762 777 -760 674 -760C570 -760 498 -762 443 -768V-679C489 -684 550 -686 632 -687V-416C546 -417 478 -419 426 -424V-332C478 -337 546 -339 632 -340V-84C632 -37 630 25 625 84H725C720 26 718 -37 718 -84V-340C819 -340 898 -338 956 -332V-424C898 -418 819 -416 718 -416ZM214 -413V-108C214 -52 211 7 205 80H299C294 9 291 -55 291 -108V-558C343 -557 384 -555 416 -551V-640C384 -635 343 -633 291 -632V-788C291 -800 293 -807 302 -815C321 -832 316 -842 296 -840C266 -837 236 -838 203 -842C211 -792 214 -734 214 -632C146 -632 95 -635 56 -640V-551C93 -556 143 -558 207 -559C153 -406 79 -280 27 -221C53 -195 75 -166 91 -135C129 -201 173 -294 214 -413Z"/>
</svg>