<svg xmlns="http://www.w3.org/2000/svg" viewBox="0 -1000 1000 1000">
	<path fill="#000000" d="M352 -446L288 -411C323 -363 346 -320 359 -279L430 -319C404 -366 378 -409 352 -446ZM208 -424V-121C208 -68 204 2 198 67H290C284 2 280 -68 280 -121V-538C328 -538 382 -535 411 -531V-614C382 -609 333 -606 280 -606V-774C280 -786 282 -793 291 -801C310 -818 306 -828 285 -826C255 -823 231 -824 198 -828C204 -782 207 -708 208 -606C151 -606 96 -609 66 -614V-531C93 -535 140 -539 191 -539C158 -425 103 -334 39 -266C61 -237 78 -206 91 -164C144 -258 179 -333 208 -424ZM540 -538V-696H791V-538ZM791 -471V-305H540V-471ZM540 -55V-238H791V-55ZM869 -55V-671C869 -720 870 -754 872 -772C843 -770 743 -767 668 -767C595 -767 491 -770 461 -772C463 -749 464 -720 464 -671V-55C412 -55 378 -57 354 -60V25C389 21 435 19 635 19C879 19 931 19 964 23V-60C946 -57 910 -55 869 -55Z"/>
</svg>