<svg xmlns="http://www.w3.org/2000/svg" viewBox="0 -1000 1000 1000">
	<path fill="#000000" d="M199 -413V-118C199 -65 195 5 189 70H281C275 5 271 -65 271 -118V-429C294 -399 319 -363 333 -335L396 -391C368 -421 342 -452 313 -489L271 -456V-548C315 -548 352 -545 378 -541V-622C352 -617 314 -614 271 -614V-772C271 -784 273 -791 282 -799C301 -816 297 -826 276 -824C247 -821 221 -822 189 -826C194 -785 199 -707 199 -614C143 -614 94 -617 63 -622V-541C92 -545 144 -549 187 -549C149 -422 102 -338 42 -269C62 -238 76 -212 90 -176C140 -264 171 -331 199 -413ZM605 -677C575 -726 549 -768 523 -808L445 -768C478 -730 508 -683 526 -635ZM517 -553V-350C453 -350 414 -352 375 -357V-275C413 -279 474 -283 516 -283C507 -118 455 -54 321 17C356 32 376 48 395 73C528 -14 583 -106 592 -283H734V-112C734 -60 731 5 726 68H816C811 5 809 -60 809 -112V-283C853 -283 911 -279 949 -275V-357C911 -352 863 -350 809 -350V-553C842 -553 895 -549 921 -545V-627C882 -622 798 -619 753 -619C818 -746 836 -772 857 -785C874 -794 873 -797 859 -800C828 -807 795 -818 759 -836C735 -752 712 -698 667 -619H583C539 -619 449 -622 409 -627V-545C434 -549 478 -553 517 -553ZM734 -554V-350H594V-554Z"/>
</svg>