<svg xmlns="http://www.w3.org/2000/svg" viewBox="0 -1000 1000 1000">
	<path fill="#000000" d="M605 -641V-551C517 -551 432 -554 399 -557C403 -521 404 -476 404 -421C404 -368 403 -323 399 -279H476V-492H605V-359C492 -209 430 -152 286 -64C315 -45 330 -29 352 6C463 -80 532 -155 605 -268V-113C605 -27 602 16 595 72H689C681 16 679 -27 679 -113V-252C728 -160 775 -106 897 -11C914 -44 938 -73 962 -92C824 -159 752 -232 679 -344V-492H826V-389C826 -354 811 -344 745 -353C763 -329 772 -309 773 -272C881 -286 900 -304 900 -348V-557C865 -553 787 -551 679 -551V-641C766 -641 872 -638 926 -634V-711C872 -706 778 -704 679 -704V-746C679 -789 681 -802 691 -808C710 -821 707 -827 685 -827C653 -827 628 -829 596 -836C601 -813 604 -773 605 -704C512 -704 426 -707 374 -711V-634C426 -637 522 -641 605 -641ZM185 -415V-123C185 -70 181 0 175 65H266C260 0 256 -70 256 -123V-408C282 -373 316 -321 330 -293L387 -346C353 -398 327 -434 298 -468L256 -435V-550C289 -550 321 -548 345 -543V-624C321 -619 280 -616 256 -616V-769C256 -781 258 -788 267 -796C286 -813 282 -823 261 -821C232 -818 207 -819 175 -823C181 -781 185 -698 185 -616C127 -616 84 -618 51 -624V-543C82 -548 125 -551 182 -551C128 -399 95 -345 30 -281C50 -250 64 -224 78 -188C132 -279 158 -332 185 -415Z"/>
</svg>