<svg xmlns="http://www.w3.org/2000/svg" viewBox="0 -1000 1000 1000">
	<path fill="#000000" d="M666 -693C785 -693 867 -689 930 -683V-773C867 -767 785 -763 666 -763C545 -763 471 -766 401 -773V-683C466 -689 545 -693 666 -693ZM796 -482L526 -463C644 -605 667 -629 678 -631C697 -635 698 -652 680 -654C648 -657 615 -668 590 -684C499 -505 456 -467 402 -456C412 -434 418 -405 420 -377C463 -389 488 -393 613 -404V-270C538 -271 482 -274 436 -280V-194C481 -199 538 -202 613 -203V-49C506 -50 429 -53 368 -58V36C437 29 530 25 664 25C796 25 889 29 959 36V-58C894 -52 810 -49 693 -49V-203C783 -202 849 -199 897 -194V-280C849 -274 783 -271 693 -270V-411L832 -422C845 -398 857 -375 867 -354L944 -405C901 -475 854 -542 801 -606L734 -566C759 -539 774 -520 796 -482ZM195 -421V-110C195 -57 193 -10 186 78H281C275 13 272 -57 272 -110V-387C296 -352 310 -328 335 -270L405 -321C373 -362 345 -400 316 -446L272 -413V-539C322 -538 364 -535 392 -531V-614C364 -609 322 -607 272 -606V-769C272 -781 274 -788 283 -796C301 -813 296 -823 277 -821C248 -818 216 -819 184 -823C192 -778 195 -726 195 -606C122 -607 97 -609 64 -614V-531C91 -535 125 -538 170 -539C137 -401 92 -316 37 -252C60 -231 81 -206 99 -175C137 -244 166 -317 195 -421Z"/>
</svg>