<svg xmlns="http://www.w3.org/2000/svg" viewBox="0 -1000 1000 1000">
	<path fill="#000000" d="M601 -580C506 -581 436 -585 379 -591V-505C446 -512 536 -514 663 -514C791 -514 880 -512 948 -505V-591C883 -584 800 -580 682 -580V-666C765 -665 870 -661 911 -656V-739C870 -734 765 -730 682 -729V-784C682 -796 688 -812 696 -818C710 -828 708 -835 691 -835C656 -835 626 -837 597 -841C599 -823 601 -784 601 -730C526 -731 443 -734 406 -739V-656C441 -661 525 -664 601 -665ZM576 -263H734C723 -206 700 -158 664 -121C632 -155 604 -201 576 -263ZM936 -375C891 -417 826 -466 766 -502L715 -448C772 -413 851 -347 879 -314ZM544 -451C560 -459 560 -464 538 -470C517 -476 500 -483 474 -499C438 -422 402 -368 354 -330C384 -318 409 -306 427 -295C524 -432 536 -447 544 -451ZM184 -390V-117C184 -64 179 6 173 71H268C262 6 258 -64 258 -117V-431C278 -399 300 -358 313 -332L377 -377C355 -406 329 -447 313 -475L258 -446V-556C287 -554 308 -552 333 -548V-634C308 -630 287 -628 258 -627V-770C258 -782 260 -789 269 -797C288 -814 285 -824 263 -822C232 -819 209 -820 175 -825C182 -781 184 -748 184 -626C128 -626 100 -628 63 -634V-548C97 -553 124 -556 169 -557C134 -409 100 -336 43 -266C64 -246 83 -220 98 -181C129 -233 159 -298 184 -390ZM529 -212C554 -156 577 -112 604 -78C522 -31 421 -7 331 -11C357 20 368 47 372 70C469 61 587 21 660 -25C719 17 800 39 928 57C930 23 938 -5 960 -41C852 -39 779 -47 723 -77C780 -138 812 -225 827 -332C813 -330 766 -328 730 -328H615C654 -385 673 -408 682 -411C699 -419 698 -427 676 -431C658 -434 630 -444 600 -459C546 -331 451 -211 356 -165C392 -145 407 -132 423 -115C463 -144 498 -177 529 -212Z"/>
</svg>