<svg xmlns="http://www.w3.org/2000/svg" viewBox="0 -1000 1000 1000">
	<path fill="#000000" d="M767 -141C853 -224 879 -243 898 -250C916 -256 915 -263 900 -269C874 -280 845 -304 828 -320C811 -283 781 -244 731 -190C707 -228 686 -274 663 -329H830C868 -329 908 -327 947 -322V-406C905 -399 867 -397 830 -397H553V-469H740C788 -469 835 -467 862 -464V-539C833 -535 788 -533 740 -533H553V-596H739C787 -596 834 -594 861 -591V-668C832 -664 787 -662 739 -662H553V-725H684C801 -725 841 -724 888 -720V-797C840 -792 799 -791 682 -791C579 -791 530 -793 476 -797C478 -761 478 -726 478 -669V-399C458 -400 439 -402 417 -406V-322C435 -325 451 -326 468 -327V-77C468 -42 461 -12 440 14C466 33 479 45 497 73C520 51 538 40 571 26L685 -19C678 -49 676 -70 676 -101C644 -82 607 -65 544 -41V-329H599C661 -132 741 -24 926 56C934 25 948 2 978 -28C875 -55 814 -89 767 -141ZM209 -634C142 -634 97 -637 57 -642V-559C95 -563 152 -567 205 -567C157 -402 93 -285 30 -208C57 -193 80 -172 98 -137C140 -204 179 -291 209 -395V-104C209 -52 206 16 202 78H290C284 16 280 -52 280 -104V-459C306 -418 326 -373 338 -335L403 -369C382 -421 359 -460 328 -507L280 -480V-567C335 -567 383 -563 418 -558V-641C383 -636 357 -634 280 -634V-779C280 -792 282 -799 290 -807C307 -820 304 -830 285 -828C258 -825 235 -826 204 -830C208 -790 209 -742 209 -634Z"/>
</svg>