<svg xmlns="http://www.w3.org/2000/svg" viewBox="0 -1000 1000 1000">
	<path fill="#000000" d="M182 -411V-127C182 -67 180 2 176 73H253C250 6 248 -67 248 -127V-414C263 -377 275 -342 286 -303L348 -338C328 -386 313 -421 290 -469L248 -451V-544C290 -544 324 -540 349 -535V-619C324 -613 290 -610 248 -610V-731C248 -757 253 -788 261 -799C276 -822 274 -831 256 -830C234 -829 198 -831 174 -834C178 -789 182 -710 182 -610C131 -610 81 -614 53 -619V-535C77 -540 122 -545 168 -545C137 -392 82 -261 32 -189C55 -172 74 -148 85 -113C135 -228 155 -284 182 -411ZM486 -515C471 -545 457 -571 437 -606L386 -569C410 -534 423 -513 438 -486C397 -486 361 -489 330 -494V-420C366 -425 406 -428 438 -428C395 -279 353 -211 276 -136C307 -120 320 -107 338 -79C405 -171 440 -241 475 -384V-72C475 -27 466 -17 396 -28C414 4 420 24 423 59C521 44 538 23 538 -20V-428H584L559 -318L619 -310L655 -496C621 -490 584 -486 540 -486L637 -748C597 -742 544 -738 487 -738C430 -738 376 -741 339 -748V-666C368 -672 411 -675 439 -675H538ZM723 -437V-124C723 -64 721 7 717 78H795C791 8 788 -64 788 -124V-424C817 -288 848 -209 904 -103C919 -131 934 -151 968 -178C900 -271 844 -391 799 -550C838 -550 897 -544 925 -540V-622C894 -615 845 -612 788 -612V-729C788 -754 793 -786 801 -796C816 -819 814 -829 796 -828C774 -827 739 -828 715 -832C719 -788 722 -709 723 -613C676 -613 636 -617 609 -622V-540C631 -543 674 -548 701 -548C671 -393 615 -242 546 -152C573 -129 581 -119 600 -85C659 -183 690 -260 723 -437Z"/>
</svg>