<svg xmlns="http://www.w3.org/2000/svg" viewBox="0 -1000 1000 1000">
	<path fill="#000000" d="M179 -399V-121C179 -68 175 2 169 67H258C252 2 248 -68 248 -121V-434C272 -403 299 -364 314 -335L377 -391C349 -421 323 -452 294 -489L248 -453V-548C294 -548 332 -545 359 -541V-622C332 -617 294 -614 248 -614V-767C248 -779 250 -786 259 -794C278 -811 274 -821 253 -819C224 -816 201 -817 169 -821C175 -779 179 -718 179 -614C124 -614 76 -617 45 -622V-541C75 -545 130 -549 179 -549V-543C140 -426 86 -340 24 -279C44 -248 58 -222 72 -186C120 -267 152 -327 179 -399ZM767 -58H496V-168H767ZM496 -1H767V57H850C846 20 845 -7 845 -50V-159C845 -198 846 -217 849 -234C814 -231 769 -230 632 -230C495 -230 454 -231 416 -234C419 -214 420 -194 420 -159V-40C420 2 419 31 415 66H496ZM635 -507C661 -463 704 -414 762 -367C733 -363 691 -361 632 -361C585 -361 541 -362 511 -366C557 -408 597 -453 635 -507ZM498 -354V-297C526 -302 577 -304 632 -304C687 -304 738 -302 766 -297V-364C810 -328 862 -293 921 -261C930 -297 938 -320 963 -353C845 -388 736 -461 669 -545C676 -549 683 -553 692 -555C704 -558 703 -567 687 -570C659 -575 631 -582 601 -592C565 -495 437 -380 303 -308C329 -291 347 -273 362 -247C410 -281 455 -316 498 -354ZM731 -693H547V-762C547 -772 552 -782 559 -786C570 -793 569 -803 555 -803C526 -803 503 -805 473 -809C476 -773 477 -745 477 -693C438 -693 394 -696 362 -701V-626C394 -630 440 -634 477 -634V-532H547V-635H731V-543H804V-635C850 -635 897 -631 933 -626V-701C897 -696 856 -693 804 -693V-763C804 -775 806 -784 812 -788C825 -795 823 -804 809 -803C781 -801 757 -802 727 -807C731 -775 731 -757 731 -693Z"/>
</svg>