<svg xmlns="http://www.w3.org/2000/svg" viewBox="0 -1000 1000 1000">
	<path fill="#000000" d="M505 -625V-686H802V-625ZM801 -569V-508H504V-569ZM198 -404V-122C198 -52 196 1 190 69H284C278 2 275 -55 275 -121V-403C303 -364 313 -347 334 -294L394 -334C378 -368 363 -395 328 -446L275 -417V-560C324 -559 348 -557 389 -552V-637C359 -632 326 -630 275 -629V-737C275 -778 277 -792 286 -800C303 -815 297 -828 280 -826C244 -822 223 -823 190 -828C196 -783 198 -736 198 -629C129 -630 104 -632 71 -637V-552C114 -557 142 -559 197 -560C161 -436 111 -339 44 -262C70 -237 83 -220 96 -194C135 -257 169 -327 198 -404ZM674 -128V-186C674 -222 677 -237 683 -243C699 -255 697 -263 679 -264C647 -265 625 -267 594 -272C600 -236 601 -220 601 -128C535 -129 494 -131 450 -136V-57C502 -62 535 -64 601 -65V-28C601 23 599 53 594 84H681C676 52 674 22 674 -28V-65C747 -64 797 -61 838 -57V-136C797 -132 747 -129 674 -128ZM713 -315C725 -275 745 -239 775 -203C810 -160 854 -131 917 -104C933 -153 939 -161 960 -184C908 -194 865 -215 823 -248C802 -264 782 -288 767 -315C836 -315 885 -312 933 -307V-381C886 -376 852 -374 761 -374H631C642 -386 654 -396 663 -401C677 -405 673 -414 663 -416C639 -420 593 -437 575 -447C568 -422 560 -399 549 -374C495 -375 453 -377 414 -380V-308C445 -311 478 -313 517 -314C470 -244 396 -187 303 -149C328 -136 351 -115 367 -93C455 -151 533 -218 591 -315C610 -315 670 -315 713 -315ZM569 -745C492 -745 457 -747 429 -752C433 -731 435 -705 435 -644V-552C435 -489 433 -470 428 -443C455 -448 493 -450 574 -450H738C819 -450 854 -448 884 -443C879 -467 877 -503 877 -552V-644C877 -713 879 -735 884 -752C855 -747 819 -745 738 -745H645C658 -780 667 -798 675 -807C694 -820 692 -829 671 -830C649 -831 613 -836 579 -842C581 -821 577 -783 569 -745Z"/>
</svg>