<svg xmlns="http://www.w3.org/2000/svg" viewBox="0 -1000 1000 1000">
	<path fill="#000000" d="M951 -58C925 -62 908 -69 881 -84C878 -28 872 -19 851 -19C826 -19 817 -26 817 -56V-139C817 -174 819 -200 825 -238C795 -233 760 -232 714 -232C665 -232 632 -234 604 -239C611 -72 594 -34 508 21C534 36 548 51 557 78C640 7 664 -37 663 -170H751V-54C751 34 763 45 835 45C922 45 937 32 951 -58ZM644 -505V-436L561 -429C561 -457 560 -483 559 -505ZM829 -458C800 -453 763 -448 709 -443V-505H850ZM636 -713V-558H616C569 -558 523 -562 490 -568C495 -478 495 -383 492 -294C486 -118 456 -43 386 28C408 31 438 44 456 61C523 -30 544 -94 556 -272C558 -301 560 -338 560 -377L644 -384V-332C644 -283 657 -266 769 -266C866 -266 888 -276 914 -352C885 -355 864 -363 841 -375C839 -332 830 -324 776 -324C714 -324 709 -328 709 -370V-390C768 -394 810 -396 839 -396L835 -448L899 -439L946 -567C912 -560 863 -558 819 -558H705V-608H780C834 -608 855 -607 882 -601V-670C856 -664 823 -661 780 -661H705V-721C828 -734 882 -734 900 -728C938 -716 945 -726 920 -747C897 -767 877 -789 855 -819C826 -800 752 -784 603 -768C474 -755 396 -755 360 -764C384 -266 348 -108 253 -5C251 -48 249 -89 249 -123V-393C268 -358 288 -316 297 -291L355 -342C335 -379 309 -423 286 -459L249 -436V-571C285 -571 315 -568 338 -564V-639C315 -634 285 -632 249 -632V-782C249 -794 251 -801 260 -809C279 -826 274 -836 254 -834C229 -832 208 -832 175 -836C181 -792 183 -743 183 -631C139 -631 102 -634 73 -639V-564C103 -569 134 -572 183 -572V-565C142 -425 95 -335 38 -255C62 -235 80 -213 93 -176C133 -257 159 -319 183 -398V-123C183 -70 179 0 173 65H259C257 46 256 27 254 8C280 17 300 29 321 49C421 -102 444 -243 438 -697C501 -701 565 -706 636 -713Z"/>
</svg>