<svg xmlns="http://www.w3.org/2000/svg" viewBox="0 -1000 1000 1000">
	<path fill="#000000" d="M186 -409V-121C186 -68 182 4 176 69H265C259 4 255 -68 255 -121V-405C278 -370 305 -322 318 -295L378 -348C350 -378 319 -425 292 -468L255 -438V-549C295 -549 324 -546 349 -542V-623C324 -618 281 -615 255 -615V-768C255 -780 257 -787 266 -795C285 -812 281 -822 260 -820C232 -817 207 -818 176 -822C182 -780 186 -719 186 -615C133 -615 93 -618 61 -623V-542C90 -546 135 -550 178 -550C140 -417 93 -334 31 -269C50 -238 64 -212 78 -176C131 -266 160 -326 186 -409ZM593 -550C559 -525 526 -507 484 -487C512 -474 529 -461 542 -441C584 -472 606 -489 641 -515C678 -488 713 -460 741 -435L787 -489C755 -512 724 -533 692 -555C747 -597 769 -609 781 -613C798 -618 797 -624 785 -628C768 -634 738 -651 717 -666C688 -634 663 -610 640 -589C611 -607 580 -626 547 -647L507 -608C535 -590 564 -570 593 -550ZM602 -365C593 -340 585 -317 577 -297C501 -297 443 -299 362 -303C366 -281 367 -259 367 -222V-35C367 0 366 28 362 61H441V-239H554C521 -162 499 -133 474 -118C486 -97 495 -70 497 -50C523 -58 561 -67 582 -70L721 -91C729 -76 736 -63 741 -51L803 -92C779 -131 752 -166 720 -204L662 -172C671 -163 679 -153 687 -142L568 -129C586 -162 605 -200 624 -239H846V-42C846 -16 820 -6 735 -17C756 11 765 36 771 72C901 55 921 41 921 -4V-222C921 -259 922 -281 924 -304C826 -299 745 -297 651 -297C660 -315 672 -343 682 -365C751 -365 850 -362 894 -360C892 -565 893 -589 900 -600C913 -617 911 -620 898 -619C879 -617 841 -619 816 -623C821 -613 822 -594 822 -559V-419H465C465 -520 470 -580 476 -591C486 -610 485 -612 472 -610C460 -608 413 -608 392 -611C396 -600 397 -582 397 -550V-431C397 -398 395 -374 392 -359C436 -361 535 -365 602 -365ZM605 -737C501 -737 410 -739 352 -744V-668C420 -673 533 -678 658 -678C783 -678 877 -674 946 -669V-745C885 -740 804 -737 699 -737C694 -770 685 -806 675 -839L579 -820C592 -792 601 -764 605 -737Z"/>
</svg>