<svg xmlns="http://www.w3.org/2000/svg" viewBox="0 -1000 1000 1000">
	<path fill="#000000" d="M682 -302C669 -319 656 -340 636 -374L594 -349C613 -318 625 -292 636 -263ZM231 -294H149V-661H231ZM149 -227H231V-156H304C299 -210 297 -243 297 -288V-609C297 -648 300 -700 304 -727C263 -722 227 -720 190 -720C156 -720 116 -722 77 -727C82 -699 84 -658 84 -609V-224C84 -179 82 -154 76 -92H149ZM797 -438V-457C844 -457 890 -454 915 -451V-520C884 -515 850 -513 797 -513V-585C797 -597 798 -604 804 -612C820 -629 815 -639 801 -637C778 -634 757 -635 732 -639C736 -603 739 -567 740 -514C710 -515 686 -517 664 -520V-451C686 -454 708 -456 736 -456C695 -283 657 -191 602 -115C619 -103 634 -89 648 -70C691 -149 715 -208 740 -311V-123C740 -70 738 0 733 65H805C801 0 797 -70 797 -123V-329C823 -226 856 -152 904 -86C917 -108 934 -128 963 -155C884 -220 846 -288 797 -438ZM531 -338V-113C531 -60 529 10 523 75H596C592 10 588 -60 588 -113V-449C606 -449 622 -447 634 -445V-511C622 -509 607 -507 588 -507V-581C588 -593 589 -600 595 -608C610 -625 606 -635 591 -633C569 -630 548 -631 522 -635C528 -602 531 -566 531 -506C497 -506 475 -507 453 -511V-445C471 -448 492 -449 519 -450C483 -302 449 -217 398 -125C416 -113 426 -101 438 -82C484 -175 506 -232 531 -338ZM693 -735C682 -772 669 -806 654 -840L563 -816C580 -792 595 -766 607 -735C448 -735 398 -738 353 -743C376 -316 354 -153 246 -14C272 -4 296 15 319 40C412 -156 425 -214 425 -667H734C817 -667 880 -665 918 -662V-743C877 -738 829 -736 693 -735Z"/>
</svg>