<svg xmlns="http://www.w3.org/2000/svg" viewBox="0 -1000 1000 1000">
	<path fill="#000000" d="M824 -287V-207H462V-287ZM255 -636V-773C255 -783 257 -790 265 -798C287 -817 281 -828 258 -826C233 -824 207 -824 174 -827C180 -785 181 -738 181 -636C124 -636 88 -638 58 -643V-563C88 -568 130 -570 181 -570V-568C131 -417 95 -341 41 -259C61 -232 76 -207 91 -166C129 -248 155 -314 181 -395V-117C181 -64 178 7 172 71H264C258 7 255 -64 255 -117V-390C274 -355 293 -313 301 -283L372 -319C352 -366 321 -424 298 -460L255 -436V-569C292 -569 331 -566 353 -563V-643C331 -639 295 -636 255 -636ZM457 -83L384 -108C366 -58 337 -10 295 32L368 68C399 29 436 -35 457 -83ZM605 49C598 0 587 -59 576 -98L505 -91C514 -58 524 13 524 57ZM767 38C758 -10 743 -61 727 -101L658 -91C671 -58 687 9 693 54ZM944 39C923 -15 894 -81 879 -113L807 -93C826 -58 859 26 868 66ZM746 -551H824V-465C757 -462 746 -470 746 -500ZM602 -551H678V-460C678 -417 690 -394 824 -401V-345H462V-551H536C532 -474 514 -437 472 -393C500 -386 523 -376 539 -363C577 -409 598 -465 602 -551ZM537 -703V-614C478 -614 421 -614 389 -616C391 -595 392 -572 392 -545V-277C392 -230 392 -197 389 -137C440 -139 547 -142 648 -142C747 -142 837 -140 901 -137C897 -204 896 -223 896 -269V-545C896 -572 897 -595 899 -616C868 -614 819 -614 746 -614V-703C802 -703 888 -700 938 -698V-776C883 -772 811 -770 665 -770C518 -770 417 -772 361 -776V-698C403 -700 479 -703 537 -703ZM678 -703V-614H603V-703Z"/>
</svg>