<svg xmlns="http://www.w3.org/2000/svg" viewBox="0 -1000 1000 1000">
	<path fill="#000000" d="M796 -685C793 -349 820 -140 907 48C924 10 946 -11 969 -25C890 -178 851 -383 859 -695C883 -697 897 -696 908 -693C926 -689 934 -699 917 -717C904 -731 895 -750 883 -790C816 -748 696 -720 597 -718C600 -665 603 -565 602 -447C600 -175 575 -64 510 59C540 57 568 63 587 81C646 -59 663 -167 662 -448V-662C674 -664 686 -666 698 -668V-90C698 -66 685 -46 658 -32C669 -16 675 -1 681 28C706 11 736 -3 796 -23C800 -2 803 19 806 41L864 19C850 -39 839 -86 821 -143L771 -123C776 -107 780 -92 784 -77L756 -67V-678C770 -681 783 -683 796 -685ZM383 -634C368 -575 335 -523 275 -468C292 -454 306 -433 316 -405C340 -430 357 -450 376 -478V-411C389 -414 423 -416 447 -416C472 -416 506 -414 518 -411V-480C506 -478 472 -477 447 -477C423 -477 393 -478 377 -480C401 -515 418 -551 431 -591C484 -537 516 -500 555 -451L598 -518C559 -554 515 -593 466 -634C506 -634 542 -631 565 -627V-699C539 -695 507 -694 458 -694C473 -752 483 -782 489 -792C499 -807 497 -813 486 -812C464 -810 434 -814 409 -823C408 -773 406 -744 395 -694C359 -694 330 -696 305 -699V-627C327 -631 355 -634 383 -634ZM166 -431V-113C166 -60 162 10 156 75H244C238 10 234 -60 234 -113V-389C247 -363 258 -333 265 -308L298 -330V-290C319 -293 349 -296 371 -296C365 -240 358 -198 348 -154C374 -158 393 -160 408 -160H468C466 -104 463 -78 458 -61C448 -30 419 -20 354 -36C374 1 379 21 379 60C489 33 509 19 515 -28C521 -73 529 -161 534 -227C522 -221 504 -218 479 -218H421L430 -297C484 -297 538 -295 568 -290V-363C537 -358 483 -356 427 -356C382 -356 346 -358 318 -360C303 -397 283 -433 263 -461L234 -443V-562C253 -562 274 -560 292 -556V-633C274 -629 256 -627 234 -626V-762C234 -774 236 -781 245 -789C264 -806 259 -816 239 -814C215 -812 190 -812 158 -816C164 -774 166 -727 166 -625C112 -625 83 -627 52 -633V-556C80 -560 114 -564 148 -564C108 -399 67 -283 21 -205C41 -177 59 -142 71 -105C110 -215 138 -312 166 -431Z"/>
</svg>