<svg xmlns="http://www.w3.org/2000/svg" viewBox="0 -1000 1000 1000">
	<path fill="#000000" d="M171 -392V-130C171 -77 168 4 163 69H252C247 4 244 -77 244 -130V-428C261 -399 274 -372 288 -337L358 -374C333 -415 321 -434 294 -480L244 -453V-558C278 -558 315 -555 339 -551V-631C315 -625 276 -623 244 -623V-739C244 -774 246 -787 252 -796C265 -814 264 -823 247 -821C219 -818 184 -819 162 -823C168 -780 171 -732 171 -623C121 -623 82 -626 53 -631V-551C81 -555 122 -559 170 -559C128 -403 87 -320 25 -236C52 -210 63 -198 83 -167C126 -257 146 -302 171 -392ZM866 -137C846 -149 826 -171 813 -192C705 -81 513 -4 357 5C384 30 401 56 408 80C553 49 678 1 777 -69C820 -100 848 -116 861 -119C877 -122 880 -129 866 -137ZM766 -230C750 -238 727 -262 717 -278C644 -199 472 -112 394 -104C413 -87 428 -60 433 -37C555 -81 598 -105 696 -176C719 -192 751 -210 761 -211C777 -212 779 -224 766 -230ZM680 -311C668 -317 646 -338 633 -355C567 -296 461 -235 389 -215C403 -199 417 -175 426 -154C478 -179 587 -238 622 -263C654 -284 667 -292 675 -293C690 -295 694 -303 680 -311ZM466 -605C458 -632 447 -674 440 -703L369 -682C377 -657 388 -611 393 -580ZM756 -599C747 -626 736 -667 730 -694L656 -672C665 -644 678 -599 683 -574ZM526 -534V-487H592C508 -401 379 -331 283 -310C308 -292 326 -266 336 -243C452 -289 533 -339 613 -413C616 -416 619 -418 622 -421C717 -322 782 -286 919 -256C928 -289 942 -318 963 -345C823 -356 761 -379 667 -451C674 -454 674 -461 669 -466C711 -489 765 -518 806 -539V-446H877V-794C845 -790 797 -788 755 -788C718 -788 668 -790 639 -793V-719C668 -724 702 -726 806 -726V-597C749 -569 678 -541 629 -528C642 -510 651 -493 661 -469C649 -475 631 -489 612 -508C607 -502 601 -496 596 -491V-788C564 -783 517 -780 478 -780C420 -780 373 -782 342 -787V-712C373 -717 409 -719 526 -719V-590C462 -562 384 -531 323 -512C338 -493 353 -467 364 -442C428 -479 482 -510 526 -534Z"/>
</svg>