<svg xmlns="http://www.w3.org/2000/svg" viewBox="0 -1000 1000 1000">
	<path fill="#000000" d="M922 -697C895 -737 884 -752 855 -785L797 -746C822 -716 845 -683 859 -657ZM167 -392V-127C167 -74 164 -5 159 60H241C236 -5 234 -74 234 -127V-407C249 -380 261 -353 273 -308L328 -335C307 -377 289 -418 276 -452L234 -428V-557C266 -557 290 -555 311 -552V-625C290 -622 266 -620 234 -620V-755C234 -767 236 -774 245 -782C264 -799 261 -805 239 -805C208 -805 184 -806 159 -809C165 -767 167 -729 167 -619C121 -620 92 -622 64 -625V-552C91 -555 121 -557 167 -558V-539C132 -414 102 -357 38 -279C54 -255 68 -228 81 -195C118 -254 141 -309 167 -392ZM495 -317V-428C522 -427 542 -425 561 -423V-495C539 -492 516 -491 482 -490V-625C512 -624 531 -623 553 -619V-695C531 -692 512 -691 482 -690V-763C482 -780 487 -792 496 -801C506 -809 504 -815 491 -814C465 -812 443 -813 416 -818C419 -788 420 -756 420 -690C369 -690 357 -691 330 -695V-619C360 -623 377 -624 420 -625V-490C352 -490 341 -491 312 -495V-423C343 -427 375 -429 433 -429V-98C414 -122 394 -157 381 -203C399 -291 405 -311 410 -317C419 -326 420 -329 409 -331C394 -334 374 -345 347 -365C342 -229 311 -101 250 2C275 4 291 11 316 29C335 -19 350 -66 365 -124C395 -31 435 2 525 27C621 54 732 60 923 52C928 20 936 2 964 -39C693 -13 571 -25 495 -56V-250C535 -249 548 -248 566 -244V-323C548 -319 533 -318 495 -317ZM793 -326C780 -384 772 -465 768 -574C843 -574 889 -571 924 -567V-641C892 -637 843 -635 766 -635C765 -729 771 -791 780 -797C792 -806 789 -815 777 -814C760 -813 714 -820 697 -825C700 -789 702 -750 705 -635C651 -636 617 -638 589 -641C591 -608 591 -593 591 -524V-262C591 -223 581 -191 556 -170C571 -155 584 -140 591 -116C623 -155 662 -195 713 -236C701 -253 692 -272 686 -298C678 -286 666 -275 651 -264V-574H707C711 -444 724 -341 756 -246C721 -180 696 -147 649 -109C679 -99 704 -86 720 -73C757 -122 764 -132 785 -169C802 -134 817 -114 836 -99C867 -74 890 -79 943 -208C927 -216 914 -227 898 -255C871 -158 863 -159 822 -245C849 -306 858 -333 887 -435C895 -463 904 -476 913 -483C922 -490 920 -494 910 -497C878 -506 851 -520 837 -531C830 -444 819 -392 793 -326Z"/>
</svg>