<svg xmlns="http://www.w3.org/2000/svg" viewBox="0 -1000 1000 1000">
	<path fill="#000000" d="M805 -204H488V-256H805ZM805 -302H488V-354H805ZM681 -97V-151C806 -151 829 -151 876 -147C874 -158 872 -183 872 -204V-352C872 -372 873 -399 876 -409C825 -406 802 -405 649 -405C496 -405 472 -406 420 -409C422 -399 423 -372 423 -352V-204C423 -183 422 -161 420 -147C468 -150 492 -151 612 -151V-97C486 -97 398 -99 329 -104V-30C397 -35 487 -37 612 -37V-10C612 15 609 48 605 77H686C682 47 681 30 681 -10V-37C807 -37 889 -35 958 -30V-104C889 -99 807 -97 681 -97ZM754 -594H842V-508H754ZM540 -508H448V-594H540ZM604 -594H689V-508H604ZM540 -715V-646C479 -646 420 -647 384 -649C385 -629 386 -616 386 -588V-510C386 -492 385 -469 384 -449C409 -452 476 -453 566 -453H707C840 -453 866 -452 908 -449C905 -472 905 -492 905 -510V-588C905 -616 906 -628 908 -649C870 -647 845 -646 754 -646V-715C848 -715 897 -714 940 -711V-783C878 -776 820 -772 648 -772C497 -772 418 -776 361 -783V-711C407 -713 480 -715 540 -715ZM689 -715V-646H604V-715ZM188 -407V-121C188 -68 184 2 178 67H267C261 2 257 -68 257 -121V-401C284 -364 304 -328 323 -287L387 -331C365 -370 336 -412 302 -452L257 -422V-544C303 -544 341 -541 368 -537V-617C341 -612 303 -609 257 -609V-767C257 -779 261 -788 268 -794C287 -811 283 -821 262 -819C233 -816 210 -817 178 -821C184 -779 188 -699 188 -609C133 -609 85 -612 54 -617V-537C83 -541 134 -545 184 -545C147 -428 97 -349 29 -265C49 -234 63 -208 77 -172C126 -251 159 -320 188 -407Z"/>
</svg>