<svg xmlns="http://www.w3.org/2000/svg" viewBox="0 -1000 1000 1000">
	<path fill="#000000" d="M523 -289H773V-225H523ZM773 -349H523V-409H773ZM541 -110C523 -118 495 -136 476 -153C447 -99 388 -46 314 -10C337 1 354 15 373 37C424 1 456 -24 484 -52C510 -78 519 -85 537 -89C555 -93 552 -105 541 -110ZM921 -31C878 -70 838 -105 788 -144L739 -91C783 -56 826 -12 867 32ZM579 -660C566 -622 550 -588 531 -558C518 -576 490 -610 471 -633L412 -587C439 -564 466 -532 486 -502C451 -468 402 -432 343 -400C331 -421 317 -444 302 -466L262 -442V-557C305 -557 340 -554 367 -550V-632C340 -627 307 -624 262 -624V-773C262 -785 266 -794 273 -800C292 -817 288 -827 267 -825C239 -822 211 -823 180 -827C186 -780 190 -716 190 -624C142 -624 104 -627 75 -632V-550C103 -554 149 -558 190 -558V-554C151 -427 97 -328 34 -264C55 -230 67 -207 81 -171C131 -257 162 -322 190 -403V-120C190 -67 186 3 180 68H272C266 3 262 -67 262 -120V-398C279 -367 296 -331 306 -302L374 -349C367 -361 360 -373 352 -385C368 -374 384 -357 393 -344C416 -359 437 -374 456 -388C457 -362 457 -335 457 -308C457 -256 455 -197 452 -155C493 -162 558 -168 619 -168V-29C619 -8 609 4 528 -6C547 18 561 52 565 79C675 67 691 50 691 10V-168C751 -168 807 -164 844 -158C842 -197 841 -255 841 -308C841 -348 842 -390 843 -426C867 -409 894 -393 925 -377C933 -409 939 -426 961 -458C904 -473 862 -492 828 -519C872 -559 882 -566 896 -569C915 -574 916 -586 900 -590C886 -593 861 -613 842 -636C832 -615 815 -592 785 -564C767 -589 749 -620 732 -660C813 -660 877 -659 929 -656V-728C871 -725 777 -723 669 -723C680 -760 695 -791 707 -798C721 -807 712 -818 699 -818C677 -817 643 -825 610 -838C608 -796 602 -758 595 -723C504 -723 433 -725 373 -728V-656C426 -659 496 -660 579 -660ZM674 -660C702 -575 737 -517 788 -469H545C590 -520 622 -579 650 -660Z"/>
</svg>