<svg xmlns="http://www.w3.org/2000/svg" viewBox="0 -1000 1000 1000">
	<path fill="#000000" d="M924 -25V-195C924 -240 924 -256 928 -282C900 -278 852 -276 811 -276C768 -276 734 -278 702 -283C706 -264 708 -238 708 -199V-116H605V-196C605 -236 606 -262 610 -280C577 -275 535 -273 495 -273C454 -273 413 -276 381 -283C385 -259 387 -228 387 -189V-39C387 -1 385 32 381 68H457V-216H538V-56H775V-213H855V-52C855 -13 841 -4 763 -16C781 15 790 46 792 73C901 59 924 41 924 -25ZM493 -609V-669H629V-609ZM493 -494V-553H629V-494ZM493 -378V-436H629V-378ZM426 -607V-404C426 -358 424 -333 419 -288H493V-323H692C760 -323 891 -320 945 -316V-386C894 -381 772 -378 701 -378V-436C766 -436 846 -435 891 -432V-500C847 -496 767 -494 701 -494V-553C766 -553 843 -552 888 -550V-615C843 -611 766 -609 701 -609V-669C776 -668 876 -666 918 -664V-734C866 -729 725 -726 653 -726L720 -766C706 -784 689 -809 673 -836L605 -790C626 -766 636 -749 645 -726H483C500 -759 511 -770 521 -774C536 -780 531 -788 516 -789C497 -790 467 -798 441 -811C424 -729 382 -643 341 -581V-634C317 -630 287 -627 248 -626V-740C248 -772 250 -788 256 -797C269 -815 268 -824 251 -822C222 -819 190 -820 167 -824C173 -782 176 -734 176 -626C129 -626 94 -629 64 -634V-552C93 -556 128 -559 176 -560C139 -415 99 -338 34 -254C57 -232 75 -206 91 -169C128 -246 149 -293 176 -391V-133C176 -80 173 1 168 66H256C251 1 248 -80 248 -133V-411C270 -366 286 -327 300 -289L367 -326C342 -370 321 -409 293 -465L248 -442V-559C278 -558 303 -557 323 -554C320 -550 316 -545 313 -541C331 -528 344 -514 359 -487C373 -506 392 -538 426 -607Z"/>
</svg>