<svg xmlns="http://www.w3.org/2000/svg" viewBox="0 -1000 1000 1000">
	<path fill="#000000" d="M504 -93V-245C549 -244 591 -241 615 -236V-315C582 -308 517 -305 454 -305C391 -305 354 -308 321 -315V-236C351 -242 383 -245 435 -246V-86C385 -82 334 -79 291 -80C303 -51 309 -27 312 6C393 -16 534 -43 637 -52C638 -77 640 -91 647 -117C608 -108 558 -100 504 -93ZM614 -491V-681C614 -725 615 -752 618 -772C539 -766 513 -767 489 -772V-702C507 -705 521 -706 553 -706V-609C519 -609 502 -611 483 -615V-548C502 -552 518 -554 553 -554V-449H386V-554C419 -553 432 -552 450 -548V-615C432 -611 418 -609 386 -609V-707C429 -732 445 -739 460 -735C468 -733 470 -741 462 -752C450 -766 439 -786 431 -812C392 -775 356 -759 324 -759C327 -741 328 -715 328 -683V-483C328 -449 327 -412 324 -386H618C615 -409 614 -442 614 -477C636 -469 654 -462 672 -452C716 -516 726 -551 733 -727H814V-571C814 -489 829 -477 881 -477C911 -477 928 -478 951 -481C947 -510 949 -528 958 -557C931 -548 917 -546 906 -546C881 -546 877 -550 877 -584C877 -738 878 -753 881 -794C851 -792 828 -791 787 -791C745 -791 700 -792 669 -794C671 -744 671 -678 668 -638C663 -568 649 -532 614 -491ZM159 -421V-128C159 -75 155 -5 149 60H234C228 -5 224 -75 224 -128V-405C241 -374 255 -344 268 -308L332 -348C307 -389 288 -423 267 -462L224 -441V-563C259 -562 289 -559 311 -556V-636C288 -632 259 -630 224 -628V-762C224 -774 226 -781 235 -789C254 -806 249 -816 229 -814C204 -812 185 -812 151 -816C157 -774 159 -730 159 -628C109 -629 76 -631 46 -636V-556C73 -561 104 -563 146 -564C101 -400 70 -325 24 -253C44 -225 61 -195 71 -166C115 -269 135 -326 159 -421ZM715 -365H830C818 -266 798 -209 770 -157C749 -198 726 -285 715 -365ZM653 -363C672 -243 702 -148 731 -96C694 -51 643 -9 569 29C600 47 621 64 639 81C703 36 730 8 768 -41C804 4 848 41 903 72C910 37 921 17 955 -11C891 -25 846 -56 809 -97C857 -172 881 -266 905 -432C866 -427 838 -425 785 -425C729 -425 669 -427 630 -430V-361C637 -362 645 -363 653 -363Z"/>
</svg>