<svg xmlns="http://www.w3.org/2000/svg" viewBox="0 -1000 1000 1000">
	<path fill="#000000" d="M682 -619C672 -640 664 -663 659 -683L586 -665C594 -646 602 -619 605 -599ZM184 -433V-121C184 -68 181 -14 174 67H268C261 -9 258 -68 258 -121V-402C281 -367 298 -336 317 -295L379 -339C344 -389 328 -411 305 -450L258 -424V-576C302 -575 326 -574 357 -571V-644C326 -641 302 -640 258 -639V-768C258 -780 261 -793 269 -798C287 -810 284 -816 264 -816C234 -816 210 -817 176 -822C182 -781 184 -736 184 -639C127 -639 103 -640 65 -644V-571C101 -575 127 -576 182 -576C137 -423 75 -311 30 -262C48 -237 61 -215 75 -179C124 -262 152 -327 184 -433ZM602 -290C596 -272 589 -252 580 -229C438 -229 400 -230 364 -234C366 -214 367 -188 367 -155V-12C367 25 366 45 363 66H439V-173H558C527 -101 507 -84 479 -74C494 -47 497 -36 503 -11C527 -20 548 -27 578 -31L707 -50C712 -39 717 -27 721 -16L780 -41C765 -72 734 -125 711 -159L658 -133C666 -122 674 -110 682 -96L570 -83C585 -110 602 -141 618 -173H828V-24C828 -5 823 -1 749 -5C771 29 776 50 776 77C894 58 901 49 901 -26V-155C901 -188 902 -211 904 -234C874 -231 821 -229 645 -229C655 -250 664 -271 673 -290C805 -290 831 -289 867 -286C864 -308 863 -327 863 -347V-439C863 -455 867 -468 875 -475C885 -484 883 -489 869 -487C852 -485 829 -487 794 -495C796 -479 797 -457 797 -424V-342H475V-417C475 -440 478 -458 487 -465C497 -473 497 -480 482 -479C459 -477 434 -478 408 -483C410 -469 411 -441 411 -381C411 -341 410 -303 408 -286C448 -289 484 -290 602 -290ZM652 -472C625 -486 599 -500 571 -513L535 -479C562 -467 584 -456 606 -444C569 -425 547 -417 508 -405C529 -390 539 -381 551 -361C597 -383 629 -400 655 -417C684 -401 712 -382 743 -361L780 -405C755 -419 727 -433 700 -447C730 -467 746 -475 764 -477C776 -478 776 -486 764 -491C746 -498 732 -508 717 -523C693 -503 672 -486 652 -472ZM640 -765C687 -692 720 -654 813 -586C770 -582 744 -581 641 -581C565 -581 517 -583 479 -585C532 -636 572 -679 640 -765ZM463 -570V-524C505 -528 556 -530 641 -530C737 -530 779 -528 823 -524V-579C853 -558 873 -546 917 -521C931 -555 942 -574 967 -605C863 -629 777 -675 672 -796C710 -809 710 -815 693 -817C641 -822 615 -829 588 -839C566 -786 548 -757 505 -705C424 -608 379 -567 316 -531C337 -517 351 -505 366 -488C413 -525 432 -541 463 -570Z"/>
</svg>