<svg xmlns="http://www.w3.org/2000/svg" viewBox="0 -1000 1000 1000">
	<path fill="#000000" d="M382 -196C307 -120 175 -59 55 -30C84 -5 102 16 114 37C282 -21 379 -83 453 -196H462V-18C462 8 459 38 454 69H540C536 40 534 8 534 -18V-196H550C630 -69 723 -4 876 34C883 6 896 -23 921 -58C792 -69 701 -108 610 -196C742 -195 877 -192 919 -189V-262C816 -256 721 -253 535 -252C536 -266 543 -280 552 -283C576 -291 572 -301 544 -301C513 -301 487 -302 456 -304C458 -290 460 -275 461 -252C276 -252 179 -256 76 -262V-189C115 -192 263 -196 382 -196ZM930 -671C829 -656 822 -661 822 -743C822 -766 824 -784 829 -801C805 -800 770 -800 719 -800C665 -800 610 -800 585 -801C598 -704 581 -675 507 -636C526 -621 538 -612 552 -593C614 -626 648 -674 646 -746H761V-672C761 -614 773 -603 924 -608C921 -628 922 -647 930 -671ZM720 -458C677 -480 638 -499 615 -509L566 -472C596 -456 630 -438 665 -418C627 -397 579 -380 519 -367C534 -347 544 -328 551 -305C609 -321 664 -346 724 -386C782 -353 835 -321 865 -298L912 -350C875 -373 826 -401 777 -427C818 -465 852 -520 874 -583C827 -582 777 -581 725 -581C669 -581 603 -582 555 -583V-525C585 -528 614 -529 652 -529H782C763 -497 746 -479 720 -458ZM267 -544H167V-576H267ZM331 -576H431V-544H331ZM267 -616H167V-650H267ZM331 -650H431V-616H331ZM331 -775V-789C331 -803 334 -809 341 -813C355 -821 350 -833 331 -831C308 -829 285 -830 263 -833C266 -820 267 -805 267 -775C179 -775 118 -777 66 -780V-723C117 -726 179 -728 267 -728V-695C171 -695 142 -695 104 -696C106 -688 107 -676 107 -665V-529C107 -518 106 -509 104 -498C142 -499 171 -500 267 -500V-472C173 -472 105 -474 51 -477V-422C104 -425 173 -427 267 -427V-365H156C156 -384 160 -395 168 -401C172 -404 170 -412 164 -412C136 -411 112 -412 93 -414C97 -400 97 -373 96 -308C133 -312 179 -314 294 -314C409 -314 466 -311 503 -308C503 -361 504 -377 509 -385C520 -403 515 -409 504 -407C491 -405 462 -405 439 -409C441 -401 442 -378 442 -365H331V-427C424 -427 492 -425 544 -422V-477C492 -474 424 -472 331 -472V-500C425 -500 456 -499 493 -498C491 -506 490 -518 490 -529V-665C490 -676 491 -688 493 -696C456 -695 425 -695 331 -695V-728C420 -728 482 -726 533 -723V-780C482 -777 420 -775 331 -775Z"/>
</svg>