<svg xmlns="http://www.w3.org/2000/svg" viewBox="0 -1000 1000 1000">
	<path fill="#000000" d="M152 -371V-121C152 -68 148 2 142 67H228C222 2 218 -68 218 -121V-409C237 -376 257 -335 265 -306L329 -351C310 -390 289 -430 266 -466L218 -440V-569C239 -568 252 -566 273 -562V-639C252 -635 239 -633 218 -632V-768C218 -780 220 -787 229 -795C248 -812 243 -822 223 -820C198 -818 177 -818 144 -822C150 -780 152 -733 152 -631C104 -631 79 -634 49 -639V-562C79 -566 104 -569 152 -570V-568C110 -407 87 -353 34 -257C54 -229 66 -209 79 -172C113 -256 134 -314 152 -371ZM713 -542C698 -494 661 -459 601 -449C618 -432 636 -409 647 -392C602 -393 577 -395 560 -398L559 -323C585 -327 632 -331 653 -331H820V-45C820 0 792 3 744 -4C760 19 775 60 777 82C864 64 888 40 888 -40V-329C910 -327 930 -325 941 -323V-398C919 -393 867 -391 744 -391C707 -391 678 -391 654 -392C696 -414 735 -451 756 -493C789 -469 818 -444 858 -398L908 -456C864 -489 817 -518 775 -541C820 -542 875 -538 906 -534V-607C879 -603 834 -599 787 -598C793 -631 798 -648 804 -653C813 -661 812 -667 801 -667C785 -668 744 -672 724 -677C725 -649 725 -622 723 -598C683 -599 649 -602 622 -607V-534C644 -538 676 -541 713 -542ZM721 -132H646V-229H721ZM646 -77H721V-43H776C773 -68 771 -92 771 -122V-237C771 -264 773 -281 776 -292C760 -288 736 -285 684 -285C632 -285 599 -288 581 -292C586 -277 588 -261 588 -237V-90C588 -58 587 -36 583 -10H646ZM476 -718C462 -757 443 -798 423 -833L348 -795C374 -761 386 -734 400 -683ZM416 -487C416 -523 417 -562 417 -605C480 -605 515 -603 547 -599C539 -585 530 -571 521 -558C539 -551 562 -538 578 -521C609 -585 626 -623 651 -682H808C854 -682 901 -679 927 -676V-747C899 -743 854 -741 808 -741H674C685 -764 697 -781 703 -785C717 -793 715 -801 701 -802C680 -804 648 -813 621 -825C610 -749 587 -678 558 -621V-676C517 -670 481 -668 410 -668C368 -668 328 -671 288 -676V-598C310 -601 332 -603 353 -604C349 -193 319 -124 242 3C267 7 295 23 313 46C373 -78 404 -179 413 -418H477L460 -138C455 -58 442 -56 377 -70C393 -38 397 -16 397 19C502 3 524 -16 528 -115L543 -491C531 -488 512 -487 491 -487Z"/>
</svg>