<svg xmlns="http://www.w3.org/2000/svg" viewBox="0 -1000 1000 1000">
	<path fill="#000000" d="M819 -314H668V-413H819ZM819 -472H668V-566H819ZM819 -624H668V-712H819ZM395 -206L333 -237C312 -170 296 -133 259 -83C275 -78 299 -64 317 -48C354 -132 373 -169 395 -206ZM618 -130C598 -175 582 -205 557 -243L499 -221C524 -184 540 -151 556 -100ZM434 -508C427 -546 422 -569 414 -603L350 -591C361 -560 369 -528 373 -496ZM510 -714C501 -745 485 -785 471 -810L397 -791C416 -759 426 -735 435 -698ZM170 -404V-119C170 -66 166 3 160 68H242C238 3 236 -66 236 -119V-423C254 -390 264 -360 273 -322L333 -349C317 -394 308 -416 285 -463L236 -443V-558C263 -557 287 -554 303 -551V-628C287 -624 263 -622 236 -621V-770C236 -784 242 -800 248 -803C265 -812 263 -821 244 -820C212 -819 195 -820 161 -825C168 -789 170 -762 170 -620C126 -620 87 -623 63 -628V-551C84 -555 118 -558 156 -559C116 -369 93 -307 44 -229C70 -211 84 -198 106 -164C139 -251 154 -302 170 -404ZM475 -473C398 -473 361 -475 325 -481V-413C350 -417 382 -420 424 -421V-328C384 -329 347 -331 325 -336V-268C347 -272 384 -275 424 -276V-81C424 -36 411 -27 348 -44C369 -15 378 10 381 46C467 35 488 12 488 -32V-275C525 -275 558 -274 579 -270V-337C558 -332 525 -329 488 -328V-421C531 -420 559 -417 586 -413V-481C568 -478 550 -476 526 -474C552 -542 565 -561 578 -569C588 -575 587 -581 576 -583C557 -586 532 -595 504 -609C500 -573 490 -527 475 -473ZM456 -624C511 -624 557 -622 586 -616V-688C557 -682 511 -680 456 -680C402 -680 352 -682 323 -688V-616C352 -622 402 -624 456 -624ZM718 -254H757V-42C757 21 769 32 838 34C917 36 931 23 962 -74C929 -80 904 -94 880 -116C878 -46 872 -34 846 -34C826 -34 821 -38 821 -80V-254C847 -253 876 -251 890 -249C889 -267 888 -313 888 -352V-677C888 -716 889 -761 890 -779C865 -775 823 -774 748 -774C671 -774 632 -776 606 -779C608 -761 609 -716 609 -677V-352C609 -313 608 -269 606 -249C619 -252 635 -253 658 -254C654 -104 621 -49 522 10C544 28 559 46 572 72C685 -26 711 -68 718 -254Z"/>
</svg>