<svg xmlns="http://www.w3.org/2000/svg" viewBox="0 -1000 1000 1000">
	<path fill="#000000" d="M442 -395V-357H217V-395ZM217 -513V-552H424V-513ZM301 -595C276 -595 257 -596 241 -597C263 -617 282 -637 297 -657C420 -657 466 -655 492 -653C492 -729 494 -746 505 -760C513 -771 509 -775 500 -774C485 -772 453 -773 431 -779C436 -747 436 -733 436 -707H327C335 -724 341 -741 346 -758C352 -781 358 -793 369 -801C387 -814 382 -822 366 -820C345 -817 320 -821 298 -831C298 -786 287 -744 265 -707H191C191 -735 193 -746 201 -760C208 -771 204 -777 198 -777C173 -776 156 -778 135 -784C137 -753 137 -732 137 -653C159 -656 181 -657 228 -657C183 -609 119 -572 42 -546C59 -532 71 -515 78 -491C105 -505 130 -519 153 -532V-303C191 -307 263 -310 329 -310C393 -310 470 -308 505 -304C501 -322 499 -346 499 -381C499 -415 500 -424 503 -444C478 -441 389 -438 217 -438V-471C363 -471 439 -469 487 -466C482 -486 481 -496 481 -524C481 -555 482 -584 486 -602C452 -598 410 -596 360 -595C370 -610 376 -617 384 -621C395 -627 396 -637 382 -638C366 -639 345 -644 321 -654C318 -636 313 -620 301 -595ZM480 -182V-17C480 9 477 39 473 70H562C558 41 556 9 556 -17V-182H558C631 -60 734 11 909 46C916 18 929 -13 953 -48C811 -47 711 -95 620 -182C750 -181 881 -178 922 -175V-251C824 -245 728 -242 556 -241V-250C556 -262 562 -274 573 -280C590 -288 585 -300 566 -298C534 -295 505 -296 475 -301C476 -288 478 -267 479 -241C289 -241 197 -245 94 -251V-175C132 -178 287 -182 404 -182C322 -110 201 -60 48 -23C76 -1 94 18 106 44C282 -8 386 -70 473 -182ZM682 -736C618 -737 559 -740 522 -743V-678C565 -682 641 -684 720 -684C743 -684 765 -684 786 -683C776 -650 763 -613 744 -577H680C669 -611 659 -636 640 -676L580 -661C595 -633 608 -604 615 -579C569 -580 530 -583 502 -585V-517C542 -522 609 -524 682 -525V-452C619 -452 572 -454 533 -458V-391C571 -394 619 -396 682 -397C682 -341 681 -300 677 -271H753C749 -299 748 -341 748 -397C814 -396 858 -395 898 -391V-458C858 -454 814 -452 748 -452V-525C826 -525 895 -522 936 -517V-585C905 -582 857 -580 802 -578C818 -607 839 -635 850 -640C867 -648 866 -658 848 -661C831 -664 809 -672 794 -683C839 -682 877 -681 905 -678V-743C869 -740 817 -737 753 -736C748 -764 740 -796 732 -826L659 -811C669 -787 678 -760 682 -736Z"/>
</svg>