<svg xmlns="http://www.w3.org/2000/svg" viewBox="0 -1000 1000 1000">
	<path fill="#000000" d="M661 -190C715 -189 754 -186 787 -184V-233C825 -201 870 -174 920 -151C927 -182 933 -195 959 -228C868 -259 819 -285 747 -358C824 -357 909 -352 934 -348V-421C913 -417 896 -414 874 -413L885 -673C887 -719 889 -748 892 -778C870 -775 833 -774 803 -774C773 -774 747 -776 724 -778V-712C762 -715 794 -716 821 -716L820 -655H777C761 -655 744 -656 736 -659V-597C745 -600 761 -601 777 -601H820L819 -538H776C760 -538 743 -539 735 -542V-480C744 -483 760 -484 776 -484H818L817 -412H706V-550C706 -586 708 -614 713 -637C689 -631 652 -629 601 -629V-691H637C664 -691 691 -689 706 -685V-753C692 -750 670 -747 637 -747H601V-787C601 -799 602 -805 607 -808C618 -813 617 -821 607 -819C584 -815 562 -815 540 -818C543 -796 543 -782 543 -752V-618C543 -595 542 -584 538 -568C573 -574 608 -576 649 -576V-412H603V-504C603 -522 604 -529 610 -535C615 -542 614 -547 606 -546C589 -543 556 -543 542 -547C544 -532 545 -519 545 -487V-412H439L436 -473H476C492 -473 508 -472 517 -469V-531C509 -528 492 -527 476 -527H433L430 -593H473C489 -593 505 -592 514 -589V-651C506 -648 489 -647 473 -647H428L425 -707C478 -720 505 -722 521 -720C534 -718 536 -721 526 -735C514 -751 502 -772 492 -796C446 -771 386 -756 347 -756C353 -733 358 -700 361 -661L378 -416C368 -417 358 -419 346 -421V-349C370 -353 429 -356 491 -358C430 -275 357 -231 284 -203C312 -185 331 -163 343 -134C384 -164 422 -193 456 -225V-184C490 -187 532 -189 591 -190V-126C497 -126 429 -129 372 -134V-63C428 -66 495 -68 591 -69C591 -9 589 43 585 83H667C663 44 661 -9 661 -69C750 -68 814 -66 867 -63V-134C814 -130 750 -127 661 -126ZM591 -245C545 -245 511 -247 481 -249C513 -282 542 -318 566 -358H686C707 -317 735 -282 768 -250C739 -247 706 -246 661 -245V-276C661 -290 662 -295 666 -300C675 -312 674 -316 662 -314C640 -310 607 -310 585 -314C589 -295 591 -278 591 -245ZM297 -482L240 -456C257 -425 271 -393 283 -351L340 -382C323 -421 313 -444 297 -482ZM166 -360V-116C166 -63 162 7 157 72H244C238 7 235 -63 235 -116V-544C271 -543 300 -540 323 -537V-616C300 -612 271 -610 235 -609V-771C235 -783 237 -790 245 -798C262 -815 257 -825 239 -823C211 -820 189 -821 158 -825C164 -780 166 -727 166 -611V-608C109 -608 70 -610 39 -616V-537C68 -542 105 -545 157 -545C119 -378 89 -316 31 -240C55 -220 75 -189 88 -156C118 -211 144 -279 166 -360Z"/>
</svg>