<svg xmlns="http://www.w3.org/2000/svg" viewBox="0 -1000 1000 1000">
	<path fill="#000000" d="M582 -89H727V-34H582ZM724 -218L695 -184C714 -171 740 -155 764 -137C736 -136 690 -135 650 -135C614 -135 576 -136 549 -137C579 -154 601 -165 614 -168C627 -171 625 -181 616 -186C603 -193 590 -203 578 -218ZM859 -140C826 -165 777 -197 742 -218H859ZM447 -118C456 -109 463 -98 469 -84C491 -100 511 -113 529 -124C531 -105 531 -85 531 -62C531 -34 531 -9 528 16C553 15 603 15 650 15C698 15 756 15 780 17C778 -6 778 -33 778 -62C778 -86 779 -107 779 -127C800 -112 820 -97 831 -87L859 -129V-39C859 -9 846 -4 789 -16C809 11 814 43 813 68C893 57 922 45 922 -15V-153C922 -209 923 -254 924 -274C898 -270 805 -267 645 -267C484 -267 407 -270 381 -274C382 -255 383 -205 383 -153V-42C383 -20 382 14 379 59H447ZM560 -218C534 -192 482 -156 447 -134V-218ZM467 -378H621V-347H467ZM467 -454H621V-423H467ZM467 -531H621V-499H467ZM618 -632L596 -618C605 -607 615 -592 622 -578H472C480 -588 486 -593 492 -596C507 -603 505 -614 490 -616C477 -618 465 -622 454 -629C500 -630 562 -631 618 -632ZM683 -684C682 -777 685 -793 691 -802C698 -813 696 -821 687 -820C671 -818 630 -818 614 -823C617 -790 617 -768 617 -684H450C450 -708 452 -735 457 -750C461 -763 460 -767 454 -767C437 -766 402 -769 386 -774C389 -743 389 -723 388 -624C396 -625 408 -626 423 -627C395 -551 349 -498 292 -441C310 -433 326 -421 342 -399C364 -425 389 -457 409 -484V-394C409 -342 407 -318 404 -283H467V-303H682C759 -303 892 -301 920 -298V-352C894 -349 767 -347 689 -347V-378C793 -378 858 -378 883 -376V-428C858 -425 764 -423 689 -423V-454C764 -454 858 -452 883 -449V-504C858 -501 764 -499 689 -499V-531C769 -530 880 -529 904 -526V-583C879 -580 749 -578 669 -578L692 -592C684 -607 675 -620 667 -632C775 -631 878 -628 898 -624C898 -720 901 -754 908 -766C913 -777 911 -781 903 -780C892 -778 853 -780 834 -785C838 -747 839 -735 841 -684ZM183 -542C143 -428 101 -353 42 -288C67 -259 76 -240 89 -201C133 -278 161 -333 183 -393V-117C183 -64 179 6 173 71H261C255 6 252 -64 252 -117V-376C275 -345 298 -308 313 -279L367 -326C344 -359 317 -396 286 -433L252 -401V-543C296 -542 329 -539 355 -535V-616C329 -611 296 -609 252 -608V-767C252 -779 254 -786 262 -794C280 -811 277 -821 256 -819C229 -816 204 -817 173 -821C179 -779 182 -711 183 -608C134 -609 98 -611 69 -616V-535C97 -539 135 -542 183 -543Z"/>
</svg>