<svg xmlns="http://www.w3.org/2000/svg" viewBox="0 -1000 1000 1000">
	<path fill="#000000" d="M759 -431C767 -488 773 -504 781 -512C795 -526 787 -534 773 -534C750 -534 723 -537 690 -543C697 -296 616 -72 474 25C496 42 522 65 538 84C639 0 705 -120 739 -290C766 -117 838 3 913 71C924 39 945 10 976 -14C874 -86 794 -241 759 -431ZM673 -659C698 -754 712 -786 719 -793C735 -808 731 -814 714 -815C685 -816 646 -822 620 -829C605 -648 570 -545 510 -469C532 -460 561 -443 580 -427C601 -460 632 -532 653 -592H856L829 -488L914 -464L940 -664C911 -660 864 -659 815 -659ZM399 -725C380 -768 367 -801 353 -840L254 -814C277 -781 290 -742 299 -698ZM435 -200C458 -227 480 -256 502 -288C525 -320 539 -332 557 -335C573 -338 574 -350 552 -358C531 -366 501 -382 474 -400C444 -335 414 -287 362 -224C286 -131 184 -64 36 0C62 14 93 38 109 57C228 -3 315 -67 394 -153C430 -119 473 -67 498 -28L562 -90C527 -127 480 -168 435 -200ZM348 -451C291 -449 225 -447 174 -445C222 -475 255 -502 278 -528C303 -556 318 -565 329 -567C346 -570 345 -579 325 -586C302 -593 278 -603 248 -617C183 -515 134 -472 78 -444C91 -420 98 -398 101 -373C145 -383 188 -389 305 -396C225 -298 179 -263 61 -195C87 -182 107 -167 126 -148C261 -235 333 -304 439 -454C455 -477 484 -499 497 -501C508 -503 508 -511 492 -518C471 -527 440 -543 414 -562C402 -530 385 -501 348 -451ZM313 -621C421 -621 496 -618 555 -613V-696C496 -691 421 -688 313 -688C204 -688 130 -691 70 -696V-613C129 -618 204 -621 313 -621Z"/>
</svg>