<svg xmlns="http://www.w3.org/2000/svg" viewBox="0 -1000 1000 1000">
	<path fill="#000000" d="M371 -125L311 -85C365 -43 389 -22 439 31L513 -17C459 -58 420 -87 371 -125ZM350 -464H445V-406H349C350 -425 350 -444 350 -464ZM277 -406H176V-464H278C278 -445 278 -426 277 -406ZM245 -674H389V-616H245ZM174 -734C133 -734 109 -735 74 -738V-670C108 -673 133 -674 174 -674V-559C202 -560 236 -561 277 -561C278 -546 278 -532 278 -517C201 -518 158 -519 104 -523C108 -486 108 -461 108 -434C108 -408 108 -381 104 -346C156 -349 204 -351 275 -351C274 -334 273 -318 272 -301C190 -301 140 -303 85 -306V-239C139 -243 188 -245 268 -246C266 -229 264 -212 261 -197C172 -198 110 -200 54 -203V-132C107 -136 164 -139 242 -140C216 -87 161 -47 58 -6C91 14 104 25 126 56C240 -17 293 -73 317 -141C415 -141 502 -137 563 -131V-202C505 -198 447 -197 332 -197C335 -212 337 -229 339 -246C430 -246 478 -244 531 -239V-306C478 -303 432 -301 344 -301C345 -317 346 -334 347 -351C421 -351 465 -350 517 -347C514 -381 511 -406 511 -434C511 -461 514 -488 517 -523C466 -520 423 -518 351 -517V-561C392 -561 428 -560 458 -559V-674C510 -674 535 -673 566 -670V-738C532 -735 517 -734 458 -734V-773C458 -788 460 -795 471 -804C486 -815 481 -822 469 -821C445 -818 416 -819 386 -823C388 -807 389 -778 389 -734H245V-779C245 -795 247 -798 259 -805C274 -814 270 -824 256 -822C226 -818 200 -818 171 -823C173 -803 174 -774 174 -734ZM757 -391C762 -431 772 -463 782 -471C796 -486 793 -494 772 -494C748 -494 724 -497 690 -504C695 -251 626 -78 490 34C523 47 544 60 566 82C657 -23 708 -118 738 -270C767 -101 838 13 909 76C920 42 942 19 975 -2C865 -78 796 -210 757 -391ZM674 -650C699 -756 712 -795 720 -802C736 -818 732 -824 715 -825C683 -825 652 -829 624 -837C614 -647 583 -540 526 -459C550 -450 573 -435 592 -417C613 -454 640 -523 659 -590H858L826 -461L904 -452L943 -655C913 -651 865 -650 813 -650Z"/>
</svg>