<svg xmlns="http://www.w3.org/2000/svg" viewBox="0 -1000 1000 1000">
	<path fill="#000000" d="M502 -468H794V-333H502ZM281 -311C261 -333 231 -363 209 -381L157 -323C183 -303 221 -268 247 -234C194 -121 131 -47 52 12C82 27 107 45 123 69C224 -29 291 -138 325 -232C361 -331 373 -393 386 -554C366 -552 345 -550 316 -550H216C226 -595 235 -644 243 -698C303 -698 336 -696 371 -693V-769C333 -766 297 -764 225 -764C153 -764 107 -766 67 -769V-693C96 -695 129 -697 173 -698C148 -501 98 -393 30 -316C51 -305 73 -288 89 -265C136 -324 172 -394 199 -485H310C307 -421 296 -355 281 -311ZM604 -640V-537C523 -537 473 -539 426 -542C429 -512 430 -459 430 -404C430 -351 429 -294 426 -265C442 -266 480 -267 531 -267C521 -112 447 -28 297 8C318 27 337 57 345 84C510 26 594 -60 606 -267H667V-27C667 33 676 54 798 54C907 54 927 44 965 -64C942 -71 907 -97 889 -124C871 -33 862 -20 800 -20C747 -20 739 -29 739 -68V-267C800 -266 858 -265 874 -264C873 -295 871 -350 871 -404C871 -458 872 -513 874 -542C828 -538 766 -537 680 -537V-640C795 -639 863 -636 929 -631V-712C863 -707 795 -704 680 -703V-761C680 -794 684 -813 691 -819C701 -827 700 -836 688 -835C663 -834 622 -837 600 -841C603 -821 604 -776 604 -703C500 -704 461 -707 394 -712V-632C459 -637 517 -639 604 -640Z"/>
</svg>