<svg xmlns="http://www.w3.org/2000/svg" viewBox="0 -1000 1000 1000">
	<path fill="#000000" d="M504 -459H810V-401H504ZM504 -571H810V-512H504ZM810 -685V-629H504V-685ZM284 -298C265 -322 235 -355 212 -379L163 -327C190 -303 232 -252 254 -219C200 -100 130 -38 50 1C80 16 101 34 117 58C198 -10 285 -111 322 -206C366 -321 379 -417 384 -562C364 -560 344 -558 314 -558H220C227 -597 234 -640 239 -685C306 -685 362 -683 398 -680V-755C360 -752 300 -750 228 -750C156 -750 98 -752 58 -755V-680C85 -682 122 -684 167 -684C147 -483 102 -364 35 -288C56 -277 79 -254 94 -231C143 -298 180 -384 207 -497H312C311 -437 299 -355 284 -298ZM855 -283C836 -302 813 -323 797 -337L726 -302C747 -287 764 -268 782 -247ZM569 -177C529 -81 427 -24 284 -2C310 20 324 45 334 75C508 15 603 -57 642 -166C706 -42 804 30 932 57C934 31 946 -7 966 -36C848 -46 769 -85 696 -178C798 -178 888 -175 945 -171V-244C883 -239 776 -237 660 -237C670 -289 674 -305 688 -313C703 -322 701 -332 685 -331C661 -329 623 -332 589 -338C592 -306 590 -266 586 -237C498 -238 420 -240 370 -244V-171C416 -175 488 -177 569 -177ZM562 -741C508 -742 468 -744 432 -747C434 -711 435 -678 435 -630V-459C435 -407 433 -368 432 -339C478 -342 525 -344 657 -344C784 -344 850 -342 884 -340C882 -369 881 -408 881 -459V-630C881 -678 882 -711 884 -747C849 -742 825 -741 736 -741H635C649 -782 658 -799 673 -810C687 -820 683 -827 667 -828C633 -830 608 -835 577 -844C576 -811 573 -785 562 -741Z"/>
</svg>