<svg xmlns="http://www.w3.org/2000/svg" viewBox="0 -1000 1000 1000">
	<path fill="#000000" d="M592 -253C639 -258 685 -264 725 -272C773 -281 796 -281 822 -275C833 -272 834 -277 826 -286C814 -299 796 -324 785 -345C746 -331 677 -316 598 -306C501 -296 348 -287 290 -291C301 -273 307 -255 308 -231C373 -233 446 -238 520 -245V-206C436 -199 374 -197 319 -196L322 -132C373 -139 432 -145 520 -153V-111C396 -100 325 -97 249 -96L252 -28C323 -37 399 -45 520 -54V-24C520 49 532 56 704 56C889 56 909 43 928 -37C892 -45 877 -51 858 -65C848 -5 843 0 703 1C604 2 593 -3 592 -59C740 -71 848 -78 931 -79L928 -146C848 -137 755 -129 592 -117V-159C696 -168 765 -171 827 -170L824 -234C764 -227 698 -221 592 -212ZM908 -340V-410C871 -406 763 -403 533 -403C303 -403 196 -406 161 -410C185 -175 143 -42 59 43C101 49 119 57 140 75C210 -26 238 -147 234 -348H534C763 -348 871 -343 908 -340ZM506 -487C472 -517 436 -544 403 -567L355 -521C396 -496 428 -471 453 -440ZM339 -735V-767C339 -789 342 -798 353 -802C372 -808 374 -822 349 -821C323 -821 308 -822 268 -825C272 -811 273 -802 273 -772V-735C212 -736 167 -739 129 -742V-678C167 -681 212 -682 273 -683V-628C192 -628 131 -630 88 -633V-570C122 -574 166 -575 221 -576C190 -532 119 -476 60 -461C79 -446 89 -431 101 -405C188 -454 244 -512 273 -566V-525C273 -480 268 -447 263 -420H349C343 -452 339 -480 339 -525V-576C416 -576 479 -574 521 -570V-633C479 -630 416 -628 339 -628V-683C402 -682 445 -681 483 -678V-742C445 -738 401 -736 339 -735ZM716 -555C686 -582 658 -621 641 -663L581 -640C598 -600 632 -551 668 -517C620 -490 557 -475 490 -467C514 -445 528 -425 533 -406C617 -422 677 -444 723 -477C778 -443 842 -421 897 -414C906 -445 921 -466 944 -486C885 -489 822 -496 771 -519C814 -567 843 -631 858 -690C892 -690 914 -688 937 -686V-757C910 -754 875 -752 816 -752H632C644 -774 653 -784 659 -787C678 -797 676 -806 664 -805C636 -806 611 -811 583 -825C565 -753 549 -719 487 -644C513 -642 537 -634 556 -622C577 -652 590 -672 600 -691H791C778 -639 754 -593 716 -555Z"/>
</svg>