<svg xmlns="http://www.w3.org/2000/svg" viewBox="0 -1000 1000 1000">
	<path fill="#000000" d="M361 -554H752V-448H361ZM436 -305C330 -295 191 -297 103 -305V-224C150 -231 247 -235 336 -235C287 -116 204 -53 53 -6C83 13 105 36 123 65C312 -36 374 -122 436 -305ZM566 -259C628 -113 722 -20 900 43C907 9 924 -25 954 -56C825 -72 765 -106 691 -182C734 -204 774 -227 812 -252C844 -273 864 -283 880 -283C902 -283 907 -291 894 -299C869 -313 850 -330 830 -357C780 -306 727 -264 655 -222C624 -262 591 -317 566 -369V-389C744 -389 784 -386 833 -380C828 -421 826 -466 826 -508C826 -550 828 -591 833 -621C791 -615 739 -613 680 -613H407C440 -647 467 -680 486 -710C721 -710 841 -708 931 -700V-785C835 -779 707 -776 523 -776C341 -776 215 -779 117 -785V-700C201 -706 306 -709 403 -710C316 -592 199 -500 70 -449C95 -434 117 -412 129 -388C183 -421 238 -462 290 -504V-381C333 -386 398 -388 492 -389V-63C492 -13 473 0 381 -9C407 24 418 51 425 86C559 57 566 39 566 -21Z"/>
</svg>