<svg xmlns="http://www.w3.org/2000/svg" viewBox="0 -1000 1000 1000">
	<path fill="#000000" d="M250 -268C220 -278 189 -299 170 -323C159 -255 146 -204 128 -153C101 -78 79 -32 53 13C88 26 109 37 146 66C160 1 173 -46 193 -108C217 -182 237 -233 250 -268ZM258 -480C216 -504 152 -537 108 -558L66 -489C111 -470 181 -432 216 -402ZM287 -704C249 -735 201 -771 157 -801L103 -736C152 -707 192 -676 230 -639ZM800 -257C710 -252 699 -256 699 -282V-472H800ZM627 -472V-254C627 -200 645 -185 676 -185C731 -185 772 -185 800 -185V-72H396V-472H486C485 -284 476 -259 411 -176C442 -172 469 -159 486 -141C545 -250 556 -283 557 -472ZM486 -538C420 -539 351 -542 313 -545C317 -515 320 -454 320 -419V-173C320 -80 317 12 313 79H396V1H800V73H882C878 14 875 -86 875 -179V-419C875 -454 878 -517 881 -545C839 -541 770 -538 699 -538V-684C827 -684 865 -681 914 -678V-762C849 -755 802 -751 618 -751C453 -751 360 -755 298 -762V-678C351 -681 414 -683 486 -684ZM627 -538H557V-684H627Z"/>
</svg>