<svg xmlns="http://www.w3.org/2000/svg" viewBox="0 -1000 1000 1000">
	<path fill="#000000" d="M784 -602H419V-700H784ZM868 -534C863 -572 862 -609 862 -657C862 -704 863 -741 868 -774C843 -769 804 -766 602 -766C408 -766 366 -768 337 -774C345 -620 346 -496 344 -388C340 -179 301 -55 195 33C224 46 246 61 272 83C384 -42 419 -154 419 -539H727C807 -539 842 -538 868 -534ZM265 -315C235 -323 212 -335 191 -357C153 -209 106 -88 54 2C93 17 115 28 148 57C181 -68 224 -205 265 -315ZM277 -482C228 -514 161 -550 100 -582L58 -511C140 -471 192 -441 231 -410ZM319 -703C279 -733 220 -772 153 -811L108 -748C175 -707 204 -685 264 -632ZM589 -404V-327C547 -326 495 -326 455 -327V-261C497 -264 537 -266 589 -268V-190C514 -186 468 -185 423 -185V-112C473 -118 528 -123 589 -127V-31C589 28 603 49 767 49C906 49 937 30 963 -60C930 -70 911 -81 886 -102C873 -31 861 -21 766 -21C668 -21 664 -28 664 -64V-132C767 -138 828 -139 887 -139V-214C844 -205 778 -201 664 -194V-272C757 -275 813 -276 858 -275V-352C808 -344 752 -338 664 -332V-413C706 -419 744 -424 768 -428C802 -434 821 -435 836 -431C848 -428 852 -438 840 -450C822 -467 808 -489 795 -516C725 -486 611 -464 436 -456C457 -431 465 -419 473 -393C495 -394 540 -399 589 -404Z"/>
</svg>