<svg xmlns="http://www.w3.org/2000/svg" viewBox="0 -1000 1000 1000">
	<path fill="#000000" d="M775 -397H457V-549H775ZM859 -320C855 -359 852 -422 852 -481C852 -537 854 -591 859 -628C809 -621 720 -618 626 -618C531 -618 420 -621 373 -628C379 -590 383 -535 383 -479C383 -421 379 -360 373 -319C425 -326 532 -329 626 -329C720 -329 809 -326 859 -320ZM278 -278C248 -291 222 -308 205 -334C172 -223 119 -99 66 -19C96 1 121 22 154 50C195 -82 246 -213 278 -278ZM278 -496C222 -529 170 -555 115 -584L66 -517C123 -488 175 -455 223 -419ZM320 -723C278 -753 222 -793 174 -829L116 -766C166 -734 215 -695 257 -651ZM538 -123C521 -176 497 -236 475 -281L398 -254C422 -212 445 -151 454 -94ZM908 -698V-782C850 -776 736 -773 628 -773C520 -773 397 -776 338 -782V-698C396 -704 520 -707 628 -707C736 -707 850 -704 908 -698ZM664 -56H491C408 -56 346 -60 295 -65V19C360 14 497 11 621 11C745 11 862 14 927 19V-65C878 -60 817 -56 736 -56C817 -221 834 -246 844 -253C857 -261 858 -266 844 -266C831 -266 781 -285 759 -305C737 -227 694 -117 664 -56Z"/>
</svg>