<svg xmlns="http://www.w3.org/2000/svg" viewBox="0 -1000 1000 1000">
	<path fill="#000000" d="M254 -290C223 -298 195 -313 175 -336C167 -283 149 -216 133 -162C112 -97 92 -47 69 0C104 13 137 30 175 57C187 -4 197 -55 210 -115C227 -191 244 -256 254 -290ZM279 -486C238 -509 158 -548 109 -569L68 -501C113 -481 182 -439 235 -404ZM307 -707C267 -735 207 -771 158 -799L112 -726C158 -702 224 -659 264 -625ZM654 -315V-449C753 -448 826 -445 881 -440V-524C820 -518 737 -515 622 -515C508 -515 425 -518 363 -524V-440C415 -445 484 -448 575 -449V-71C519 -104 474 -168 448 -245C467 -309 472 -318 479 -327C498 -349 494 -356 474 -356C443 -356 418 -362 393 -372C377 -217 329 -92 239 29C273 34 290 42 317 64C366 -13 394 -65 420 -147C457 -73 516 -10 597 23C658 48 819 61 935 56C935 19 939 -10 953 -46C838 -25 746 -24 654 -44V-247C784 -247 845 -245 871 -239V-325C845 -319 783 -315 654 -315ZM593 -706C429 -706 386 -709 332 -714V-548H416V-643H833V-555H916V-714C866 -709 824 -706 681 -706C674 -746 664 -792 655 -827L566 -812C576 -782 586 -741 593 -706Z"/>
</svg>