<svg xmlns="http://www.w3.org/2000/svg" viewBox="0 -1000 1000 1000">
	<path fill="#000000" d="M272 -267C246 -278 213 -298 193 -316C184 -263 166 -194 153 -156C130 -91 106 -32 82 14C117 26 143 39 183 62C193 9 207 -46 226 -113C246 -187 260 -232 272 -267ZM287 -469C244 -493 169 -531 119 -553L66 -479C117 -462 194 -420 230 -388ZM309 -705C270 -732 204 -772 159 -795L105 -728C157 -701 213 -662 248 -628ZM562 -721C461 -721 389 -723 331 -729V-643C398 -649 482 -653 609 -653C736 -653 820 -649 887 -643V-729C830 -723 760 -721 662 -721C647 -757 635 -804 630 -835L534 -814C545 -791 555 -754 562 -721ZM748 -471C773 -512 799 -549 812 -556C831 -566 829 -573 809 -576C793 -578 746 -594 723 -604C688 -492 642 -398 556 -317C581 -311 604 -299 624 -286C659 -331 685 -366 717 -419C798 -355 830 -327 855 -294L915 -364C872 -395 823 -426 748 -471ZM571 -136V-38C571 -3 568 44 564 83H657C653 43 650 -3 650 -38V-136C771 -136 862 -133 931 -128V-214C862 -209 771 -206 650 -205C651 -229 657 -249 663 -255C674 -265 673 -270 658 -269C639 -268 591 -269 565 -273C567 -258 569 -236 570 -205C450 -206 359 -209 291 -214V-128C360 -133 450 -136 571 -136ZM493 -490C509 -520 527 -542 542 -552C561 -565 560 -570 541 -573C519 -577 477 -591 451 -603C423 -494 377 -390 291 -313C316 -305 343 -294 365 -282C401 -327 439 -384 466 -434C495 -407 513 -387 531 -362L586 -418C557 -444 531 -464 493 -490Z"/>
</svg>