<svg xmlns="http://www.w3.org/2000/svg" viewBox="0 -1000 1000 1000">
	<path fill="#000000" d="M279 -286C249 -298 225 -314 209 -340C176 -228 118 -88 61 0C92 16 120 34 152 62C194 -72 245 -207 279 -286ZM280 -472C224 -508 154 -549 103 -578L59 -506C136 -467 180 -439 237 -396ZM305 -678C263 -716 198 -764 145 -798L92 -733C144 -700 209 -650 251 -606ZM914 -473C927 -484 927 -490 913 -492C886 -494 860 -496 831 -505C818 -394 790 -262 761 -165C786 -164 813 -160 836 -152C895 -446 901 -461 914 -473ZM561 -708C542 -742 511 -794 491 -820L419 -790C445 -762 471 -712 483 -679ZM445 -158C434 -271 412 -391 389 -495L318 -482C343 -375 359 -261 368 -145ZM564 -45V-596H662V-45ZM739 -45V-596C805 -596 882 -591 912 -586V-670C887 -666 818 -663 731 -663C771 -757 783 -777 797 -784C811 -791 809 -800 798 -800C770 -801 735 -810 705 -823C696 -762 684 -714 664 -662C651 -662 638 -662 625 -662C491 -662 354 -665 320 -671V-588C352 -594 421 -596 487 -596V-45C409 -45 311 -48 274 -54V33C315 27 467 24 621 24C775 24 907 28 947 33V-54C911 -48 816 -45 739 -45Z"/>
</svg>