<svg xmlns="http://www.w3.org/2000/svg" viewBox="0 -1000 1000 1000">
	<path fill="#000000" d="M512 -272H407V-467H512ZM328 -200C369 -205 410 -206 463 -206C510 -206 549 -205 584 -200C579 -246 576 -271 576 -303V-428C576 -467 579 -516 584 -538C560 -533 529 -531 457 -531C387 -531 361 -533 333 -538C336 -517 339 -463 339 -428V-314C339 -272 336 -246 328 -200ZM260 -270C229 -281 205 -299 190 -325C156 -211 108 -89 57 -8C87 12 111 29 144 60C180 -59 232 -204 260 -270ZM258 -476C202 -509 151 -537 96 -566L46 -497C102 -469 154 -437 201 -399ZM299 -697C258 -727 203 -768 155 -803L98 -742C147 -709 196 -671 238 -627ZM883 -743C863 -770 841 -799 820 -822L751 -779C777 -757 800 -724 816 -692ZM613 -176C512 -135 349 -92 254 -81C269 -52 280 -25 286 6C365 -30 526 -76 617 -100C608 -124 607 -151 613 -176ZM626 -615C639 -367 653 -257 689 -168C646 -95 595 -43 515 7C541 17 561 30 590 58C636 21 675 -24 723 -99C750 -49 773 -11 798 14C867 82 882 81 955 -119C930 -126 899 -149 878 -186C861 -21 849 -11 765 -168C792 -218 829 -320 850 -422C856 -451 865 -466 879 -476C894 -486 895 -497 878 -499C861 -501 826 -509 788 -525C785 -440 762 -334 732 -256C714 -331 703 -444 695 -615C790 -615 861 -610 918 -605V-687C860 -682 789 -678 693 -678C693 -715 696 -747 699 -771C702 -792 707 -805 711 -810C727 -828 726 -831 703 -830C677 -829 643 -830 614 -837C616 -800 618 -769 623 -678C480 -678 389 -681 311 -687V-605C388 -612 480 -615 626 -615Z"/>
</svg>