<svg xmlns="http://www.w3.org/2000/svg" viewBox="0 -1000 1000 1000">
	<path fill="#000000" d="M628 -341C575 -336 526 -342 486 -344V-269C515 -275 529 -276 557 -276C534 -166 491 -100 388 -31C413 -26 454 -10 468 4C562 -70 608 -165 628 -341ZM738 -284C728 -308 712 -350 701 -384V-424C701 -434 706 -441 714 -447C734 -461 731 -472 705 -473C688 -474 642 -485 621 -494C626 -463 632 -410 632 -367V-12C632 12 621 20 523 1C561 37 576 63 583 89C679 87 701 66 701 10V-260C748 -126 803 -52 908 27C924 -4 940 -28 961 -49C876 -88 816 -146 765 -233C803 -259 851 -293 864 -303C880 -315 896 -323 904 -323C923 -323 931 -333 921 -339C908 -347 873 -383 862 -402C839 -374 782 -321 738 -284ZM565 -702C556 -715 546 -730 537 -748V-782C537 -792 540 -797 553 -806C574 -820 570 -829 540 -828C515 -827 481 -841 449 -846C455 -825 459 -783 459 -717V-523C459 -492 451 -485 375 -492C401 -463 412 -435 409 -404C526 -425 537 -434 537 -491V-652C596 -563 684 -501 837 -460C844 -486 868 -517 898 -537C788 -545 680 -589 609 -652C661 -672 718 -693 744 -702C770 -711 799 -720 811 -720C841 -719 842 -730 825 -737C813 -742 782 -772 765 -802C710 -764 649 -732 565 -702ZM329 -280V-403C329 -412 333 -421 342 -425C356 -431 352 -439 333 -443C317 -446 274 -455 251 -463C254 -448 260 -382 260 -317V-14C260 6 252 10 155 0C191 26 208 61 210 88C314 63 329 46 329 8V-217C369 -181 408 -134 430 -97L485 -162C466 -182 424 -214 384 -243C408 -270 430 -293 449 -315C455 -322 462 -328 465 -328C480 -330 483 -341 476 -345C461 -354 440 -371 425 -390C393 -338 372 -311 338 -273C335 -276 332 -278 329 -280ZM255 -332C179 -327 114 -327 56 -335V-259C88 -264 119 -266 174 -266C146 -168 106 -112 23 -46C47 -40 75 -25 89 -10C169 -81 229 -184 255 -332ZM429 -727C379 -722 323 -721 279 -721C215 -721 173 -723 130 -728V-644C191 -651 235 -654 322 -654C293 -574 205 -517 100 -500C132 -486 152 -466 171 -439C321 -509 380 -568 429 -727Z"/>
</svg>