<svg xmlns="http://www.w3.org/2000/svg" viewBox="0 -1000 1000 1000">
	<path fill="#000000" d="M772 -198H419V-264H772ZM772 -326H419V-391H772ZM772 -454H419V-521H772ZM548 -72C529 -85 506 -103 481 -124C427 -81 315 -22 226 8C256 25 269 42 282 67C354 39 414 10 471 -28C500 -47 524 -53 544 -57C559 -60 561 -65 548 -72ZM915 -8C843 -55 778 -90 691 -123L632 -66C750 -19 792 10 854 61ZM280 -299C247 -315 226 -331 209 -358C159 -188 104 -57 67 -14C101 0 127 18 160 43C253 -247 265 -274 280 -299ZM282 -469C227 -513 170 -555 120 -590L63 -526C123 -495 169 -456 214 -406ZM341 -664C291 -717 248 -759 190 -808L130 -753C178 -715 232 -655 269 -600ZM602 -659H832C881 -659 908 -658 933 -654V-732C908 -727 881 -725 832 -725H602V-784C602 -800 606 -809 616 -816C629 -825 627 -833 611 -832C582 -830 546 -831 517 -834C520 -812 521 -787 521 -732V-586C437 -586 379 -589 340 -593C342 -577 344 -538 344 -506V-211C344 -178 342 -139 340 -124C388 -129 450 -130 596 -130C742 -130 804 -129 854 -124C851 -139 849 -178 849 -211V-506C849 -538 852 -577 854 -593C805 -588 744 -586 602 -586Z"/>
</svg>