<svg xmlns="http://www.w3.org/2000/svg" viewBox="0 -1000 1000 1000">
	<path fill="#000000" d="M417 -596H775V-531H417ZM775 -723V-657H417V-723ZM417 -472H775V-408H417ZM245 -285C214 -296 192 -310 162 -334C144 -205 109 -107 49 3C86 14 114 25 154 45C186 -94 211 -185 245 -285ZM270 -491C224 -518 154 -558 102 -588L56 -516C119 -489 173 -455 221 -414ZM297 -706C252 -737 196 -776 145 -811L93 -742C146 -711 210 -667 242 -631ZM588 -187C642 -58 750 30 926 57C928 31 941 -4 961 -33C798 -44 710 -97 653 -187C776 -187 873 -184 934 -180V-252C895 -249 819 -246 774 -246L847 -275C836 -295 817 -321 796 -343C819 -343 837 -342 853 -341C852 -369 850 -427 850 -476V-656C850 -702 851 -754 853 -789C807 -785 755 -783 683 -783H517C445 -783 383 -785 339 -789C341 -754 342 -702 342 -656V-476C342 -426 340 -368 339 -340C380 -343 450 -346 596 -346C687 -346 744 -345 785 -344L708 -312C731 -296 751 -272 763 -246L597 -245C607 -300 612 -311 622 -317C634 -325 631 -333 619 -332C602 -331 557 -333 522 -338C526 -305 528 -275 525 -245C417 -246 326 -248 272 -252V-180C326 -183 409 -186 510 -186C473 -86 384 -32 236 0C255 22 273 48 285 76C471 8 555 -84 585 -187Z"/>
</svg>