<svg xmlns="http://www.w3.org/2000/svg" viewBox="0 -1000 1000 1000">
	<path fill="#000000" d="M553 -224H763C742 -175 713 -139 671 -103C623 -134 582 -174 553 -224ZM498 -575C480 -601 464 -640 455 -664L381 -635C398 -609 413 -576 421 -545ZM660 -569C650 -598 643 -641 641 -674L565 -660C573 -634 582 -591 585 -553ZM587 -475H730C798 -475 853 -474 892 -469V-541C864 -538 818 -535 786 -535C835 -619 856 -644 879 -653C895 -660 891 -669 877 -671C856 -674 814 -683 787 -692C773 -644 753 -599 722 -535H514C445 -535 392 -537 351 -541V-469C391 -474 446 -475 514 -475C511 -451 507 -427 502 -404H490C435 -404 344 -406 295 -411V-335C344 -340 430 -342 485 -342C441 -209 356 -101 232 -36C265 -18 280 0 292 28C383 -40 451 -116 499 -206C522 -154 561 -107 612 -64C549 -30 471 -6 376 12C405 32 424 55 434 76C519 58 599 23 667 -25C734 18 813 49 901 67C909 37 927 -7 953 -32C871 -32 794 -45 729 -74C791 -131 841 -202 870 -284C839 -281 796 -279 749 -279H534C542 -299 549 -321 556 -342H757C813 -342 886 -340 935 -335V-411C886 -406 813 -404 757 -404H573C578 -427 583 -451 587 -475ZM331 -748C351 -720 360 -699 365 -677C502 -686 650 -701 759 -722C800 -730 845 -731 886 -724C897 -722 901 -729 891 -741C871 -765 859 -785 843 -818C808 -806 767 -796 701 -782C591 -759 428 -746 331 -748ZM275 -298C248 -311 225 -325 202 -348C189 -287 171 -232 146 -170C117 -99 92 -50 60 -8C94 3 125 20 152 47C166 1 186 -59 210 -130C230 -189 248 -233 275 -298ZM275 -463C213 -513 173 -542 106 -581L62 -514C128 -477 168 -447 225 -394ZM335 -680C284 -726 234 -764 178 -802L122 -741C182 -701 227 -663 272 -610Z"/>
</svg>