<svg xmlns="http://www.w3.org/2000/svg" viewBox="0 -1000 1000 1000">
	<path fill="#000000" d="M647 -352H791V-288H647ZM571 -288H433V-352H571ZM571 -407H433V-471H571ZM647 -471H791V-407H647ZM647 -228C772 -228 844 -226 867 -223C865 -267 863 -323 863 -378C863 -442 864 -498 866 -535C844 -530 770 -528 647 -528V-583C741 -583 880 -579 924 -575V-649C881 -646 741 -642 647 -642V-713C777 -729 835 -731 852 -726C870 -721 875 -730 861 -746C845 -762 828 -784 813 -806C785 -796 691 -780 589 -770C509 -762 409 -757 328 -758C344 -739 354 -717 360 -689C429 -693 510 -699 571 -705V-642C477 -642 348 -646 307 -649V-575C349 -579 477 -583 571 -583V-528C445 -528 382 -531 358 -535C360 -500 361 -442 361 -378C361 -320 360 -263 358 -223C380 -226 445 -228 571 -228V-163C443 -163 368 -166 324 -172V-96C366 -101 443 -104 571 -104V-31C427 -31 323 -34 277 -40V39C327 35 450 32 617 32C782 32 904 35 952 39V-40C907 -35 796 -31 647 -31V-104C779 -104 863 -102 908 -96V-172C863 -165 779 -163 647 -163ZM286 -274C253 -286 228 -303 209 -334C168 -196 117 -84 65 -3C97 15 125 35 157 63C186 -49 234 -177 286 -274ZM297 -469C240 -501 176 -538 121 -567L75 -490C132 -463 198 -422 246 -389ZM306 -698C258 -727 194 -772 147 -810L95 -735C143 -704 205 -655 248 -613Z"/>
</svg>