<svg xmlns="http://www.w3.org/2000/svg" viewBox="0 -1000 1000 1000">
	<path fill="#000000" d="M795 -533H441V-599H795ZM795 -662H441V-729H795ZM272 -279C241 -290 217 -307 199 -332C184 -276 164 -221 142 -169C113 -98 94 -56 69 -10C104 11 128 28 163 54C178 -5 198 -64 216 -121C238 -194 257 -243 272 -279ZM282 -465C231 -494 146 -534 94 -558L47 -490C113 -463 192 -425 231 -395ZM337 -691C296 -721 221 -770 172 -802L109 -746C160 -718 242 -659 271 -624ZM508 -348C485 -377 468 -406 453 -434L373 -406C400 -374 412 -354 424 -318ZM872 -402C886 -411 886 -416 871 -417C862 -418 808 -434 783 -446C769 -406 750 -375 717 -344L797 -321C823 -358 860 -393 872 -402ZM581 -294C466 -294 368 -297 305 -301V-226C354 -230 413 -233 484 -233C469 -67 419 -14 252 21C285 38 320 60 338 84C490 19 546 -60 561 -233H661V-29C661 46 676 55 796 55C884 55 938 31 958 -53C924 -62 893 -79 873 -107C870 -33 856 -19 792 -19C748 -19 737 -27 737 -65V-233C798 -233 886 -230 936 -226V-301C873 -297 774 -294 655 -294V-474C757 -474 830 -472 874 -467C870 -502 870 -543 870 -569V-701C870 -726 871 -770 874 -796C823 -791 775 -789 618 -789C463 -789 412 -791 359 -796C364 -776 366 -737 366 -711V-561C366 -535 365 -493 359 -467C404 -472 475 -474 581 -474Z"/>
</svg>