<svg xmlns="http://www.w3.org/2000/svg" viewBox="0 -1000 1000 1000">
	<path fill="#000000" d="M242 -275C210 -285 188 -299 167 -323C144 -205 101 -57 52 13C87 25 106 34 145 62C171 -48 197 -143 242 -275ZM233 -461C191 -494 148 -527 100 -563L51 -494C102 -462 145 -429 185 -387ZM267 -676C230 -720 194 -760 152 -798L83 -745C125 -708 159 -668 190 -615ZM637 -131C626 -150 622 -175 624 -202C599 -179 581 -165 545 -145L546 -334C514 -328 476 -327 433 -327C389 -327 345 -329 311 -334C324 -175 280 -30 209 23C242 30 264 44 279 59C330 2 375 -111 378 -266H476V-129C476 -114 470 -104 454 -95C469 -79 487 -52 498 -31C533 -65 589 -105 637 -131ZM473 -588C473 -716 479 -783 485 -790C496 -803 495 -811 478 -812C451 -814 429 -818 407 -824C408 -790 409 -753 409 -588H339C339 -671 342 -709 351 -724C356 -733 355 -738 347 -738C322 -737 300 -739 277 -746C282 -721 282 -639 273 -526C304 -530 329 -531 441 -531C553 -531 574 -530 605 -526C601 -643 604 -716 613 -726C621 -735 618 -739 607 -737C591 -734 555 -738 539 -747C542 -715 543 -651 543 -588ZM790 -140C838 -218 870 -340 878 -558C910 -557 935 -557 956 -555V-630C925 -623 884 -619 726 -619C759 -738 770 -770 775 -774C793 -788 792 -796 777 -798C755 -801 725 -809 692 -823C680 -670 650 -536 589 -449V-468C554 -463 490 -460 423 -460C357 -460 304 -463 267 -468V-390C303 -397 357 -400 423 -400C490 -400 554 -397 589 -390V-448C610 -436 628 -420 643 -400C668 -438 692 -501 709 -558H802C802 -379 776 -267 748 -207C727 -256 712 -325 706 -407L639 -395C657 -285 675 -216 709 -149C649 -78 565 -20 480 10C511 29 542 55 554 75C614 46 697 -27 748 -84C790 -30 860 34 892 54C909 19 929 -9 954 -26C908 -41 835 -91 790 -140Z"/>
</svg>