<svg xmlns="http://www.w3.org/2000/svg" viewBox="0 -1000 1000 1000">
	<path fill="#000000" d="M415 -622V-683H787V-622ZM786 -566V-504H414V-566ZM255 -296C224 -306 202 -319 175 -344C158 -254 118 -144 49 -16C81 -1 99 11 135 41C169 -95 218 -217 255 -296ZM276 -490C220 -523 163 -553 106 -580L56 -516C114 -489 172 -454 220 -418ZM301 -685C259 -715 199 -758 146 -791L89 -729C140 -698 195 -658 237 -614ZM636 -137V-182C636 -209 639 -233 645 -239C661 -251 659 -259 641 -260C609 -261 587 -263 556 -268C561 -234 563 -201 563 -137C482 -137 393 -141 352 -145V-66C393 -70 482 -74 563 -74V-34C563 17 561 47 556 78H643C638 46 636 16 636 -34V-74C714 -74 793 -70 833 -66V-145C793 -141 714 -137 636 -137ZM510 -742H482C402 -742 366 -744 337 -749C341 -728 343 -687 343 -641V-549C343 -503 341 -467 336 -440C363 -445 421 -447 502 -447H533C525 -423 512 -395 499 -373H459C388 -373 323 -375 276 -379V-306C320 -310 381 -313 447 -313C388 -256 294 -193 215 -163C240 -150 263 -129 279 -107C368 -152 483 -245 539 -313H670C693 -275 721 -245 766 -208C806 -175 857 -142 920 -115C930 -146 942 -172 963 -195C911 -205 859 -226 826 -247C784 -274 757 -294 740 -313C812 -313 882 -309 928 -305V-380C881 -375 812 -373 740 -373H581C595 -391 612 -408 625 -415C639 -419 635 -428 625 -430C611 -432 588 -440 569 -447H723C804 -447 839 -445 869 -440C864 -464 862 -523 862 -549V-641C862 -687 864 -732 869 -749C840 -744 804 -742 723 -742H582C590 -771 601 -789 616 -802C634 -817 633 -824 612 -825C590 -826 554 -831 520 -837C522 -817 518 -779 510 -742Z"/>
</svg>