<svg xmlns="http://www.w3.org/2000/svg" viewBox="0 -1000 1000 1000">
	<path fill="#000000" d="M399 -591C377 -643 362 -684 346 -739L277 -718C297 -669 312 -629 327 -572ZM653 -720C664 -727 662 -733 652 -735C633 -739 606 -747 573 -761C563 -705 543 -639 519 -584C543 -580 566 -575 583 -567C617 -663 643 -714 653 -720ZM490 -515V-781C490 -792 493 -801 503 -808C519 -819 513 -829 495 -827C473 -824 444 -825 420 -830C424 -799 424 -761 424 -686V-515C328 -515 291 -518 270 -522C272 -493 272 -462 272 -358V-171C272 -93 270 -38 263 33H338V-165C351 -161 365 -156 379 -147C400 -300 409 -358 413 -366C419 -379 417 -383 407 -384C398 -385 380 -390 365 -396C358 -308 349 -234 338 -176V-453H424V-216C424 -165 423 -83 419 -24H496C491 -83 490 -165 490 -216V-453H574V-210C565 -263 555 -325 547 -381L500 -373C514 -309 525 -222 531 -151L574 -163V-87C574 -61 565 -47 511 -51C525 -36 539 -6 540 22C626 -3 639 -17 639 -74V-358C639 -459 640 -491 643 -522C626 -517 598 -515 490 -515ZM807 -225C780 -292 758 -386 749 -484C754 -510 761 -541 767 -574H836C839 -400 827 -297 807 -225ZM811 -75C838 -27 875 27 904 61C919 32 943 4 968 -17C919 -53 887 -82 849 -145C887 -233 906 -359 909 -574C922 -574 935 -573 947 -572V-645C923 -641 897 -639 870 -639H779C799 -749 806 -762 814 -768C831 -781 830 -787 816 -788C797 -789 746 -797 719 -803C726 -707 690 -472 650 -362C665 -348 682 -322 688 -297C697 -315 704 -334 712 -354C725 -274 742 -218 773 -147C722 -61 670 -15 593 32C622 40 654 56 670 75C735 26 776 -21 811 -75ZM246 -291C216 -296 188 -312 169 -336C162 -272 148 -217 130 -162C108 -94 90 -53 65 -6C97 6 121 20 158 51C169 -7 183 -64 199 -124C221 -208 233 -253 246 -291ZM249 -480C190 -513 141 -539 86 -568L46 -499C101 -470 158 -437 206 -401ZM276 -673C234 -703 178 -745 130 -781L77 -718C127 -685 178 -644 221 -601Z"/>
</svg>