<svg xmlns="http://www.w3.org/2000/svg" viewBox="0 -1000 1000 1000">
	<path fill="#000000" d="M233 -281C205 -291 183 -304 162 -328C135 -211 95 -92 47 1C82 13 103 23 134 49C160 -59 188 -151 233 -281ZM239 -463C197 -496 154 -528 106 -563L50 -502C101 -470 144 -438 184 -397ZM269 -691C232 -734 196 -773 154 -811L87 -766C129 -730 163 -691 194 -639ZM958 -89C936 -97 913 -116 898 -145C881 -47 858 -31 742 -31C613 -31 604 -37 604 -61V-204C604 -227 605 -255 606 -274C587 -271 552 -269 495 -269C438 -269 409 -271 386 -274C390 -236 390 -181 385 -144C372 -58 352 -17 314 27C342 44 359 57 377 73C431 -20 450 -109 450 -206H543V-52C543 20 556 38 690 38C898 38 926 27 958 -89ZM938 -297C953 -304 953 -313 937 -322C916 -333 897 -349 887 -365C848 -290 746 -195 636 -128C656 -111 668 -95 682 -66C748 -112 828 -178 878 -238C910 -276 922 -290 938 -297ZM919 -507C934 -513 935 -522 919 -532C898 -545 881 -560 866 -580C819 -496 742 -422 655 -357C678 -337 687 -327 700 -305C764 -358 838 -426 865 -459C888 -488 911 -504 919 -507ZM921 -751C940 -759 938 -768 921 -776C899 -787 879 -802 865 -819C813 -726 759 -670 687 -608C707 -595 731 -575 741 -558C799 -614 849 -671 874 -709C887 -728 915 -749 921 -751ZM420 -642C369 -642 298 -647 270 -652C276 -555 278 -462 278 -387C278 -225 251 -106 193 2C218 10 240 27 257 50C314 -71 342 -201 346 -360C348 -426 347 -500 343 -586H434V-492C407 -488 387 -486 366 -485L369 -419C394 -425 415 -430 434 -434V-405C434 -325 438 -319 537 -319C619 -319 632 -328 662 -413C640 -414 619 -428 606 -450C598 -386 584 -375 538 -375C498 -375 494 -379 494 -407V-448C541 -458 564 -462 590 -464L586 -523C549 -515 519 -508 494 -503V-586H623L602 -511L662 -504L690 -655C650 -648 581 -642 486 -642V-712H565C614 -712 634 -710 650 -708V-776C634 -774 614 -772 565 -772H486C487 -794 488 -809 491 -812C502 -822 501 -826 489 -826C462 -825 444 -826 415 -832C418 -803 420 -783 420 -742Z"/>
</svg>