<svg xmlns="http://www.w3.org/2000/svg" viewBox="0 -1000 1000 1000">
	<path fill="#000000" d="M246 -328C209 -346 187 -359 166 -381C163 -333 157 -296 137 -208C112 -99 90 -43 60 1C100 13 122 22 160 46C169 -4 173 -21 209 -189C225 -263 235 -299 246 -328ZM260 -485C218 -511 152 -554 111 -584L55 -523C110 -499 156 -464 205 -413ZM288 -680C247 -717 189 -763 139 -797L86 -738C151 -696 178 -674 229 -614ZM751 -216V-251C751 -274 757 -293 763 -299C774 -308 772 -314 757 -314C727 -314 704 -315 674 -319C677 -309 678 -296 678 -242V-216H542V-260C542 -282 546 -297 556 -303C570 -311 569 -319 549 -319C536 -319 498 -323 470 -329C473 -314 473 -301 473 -266V-216C370 -216 329 -218 281 -224V-142C327 -147 386 -150 473 -151C472 -67 409 5 309 19C352 38 374 56 392 78C487 31 540 -47 542 -151H678V-1C678 22 677 52 676 80H754C752 53 751 22 751 -1V-151C840 -150 889 -147 934 -142V-224C889 -219 849 -217 751 -216ZM734 -453C816 -453 887 -450 936 -444V-522C901 -518 866 -516 801 -514L852 -543C821 -584 809 -598 781 -628L728 -592C752 -566 762 -550 777 -514H597C627 -568 636 -577 645 -583C656 -590 656 -596 644 -597C627 -598 586 -606 556 -616C555 -596 540 -549 523 -514C435 -514 356 -515 304 -522V-444C346 -449 411 -452 481 -453C411 -366 353 -336 264 -318C291 -297 305 -280 319 -255C466 -340 509 -379 560 -453H671C721 -358 792 -296 915 -256C925 -283 942 -313 963 -340C856 -351 793 -379 734 -453ZM515 -740V-790C515 -802 517 -806 526 -811C541 -819 537 -828 525 -828C498 -827 468 -828 442 -831C446 -807 449 -775 449 -740C388 -741 339 -743 298 -748V-668C338 -673 369 -675 448 -676V-610H515V-677H690V-615H758V-677C835 -676 896 -673 943 -668V-748C896 -743 835 -740 758 -740V-793C758 -805 760 -809 769 -814C779 -820 777 -828 765 -828C740 -828 711 -830 685 -834C689 -809 691 -776 691 -740Z"/>
</svg>