<svg xmlns="http://www.w3.org/2000/svg" viewBox="0 -1000 1000 1000">
	<path fill="#000000" d="M492 -796C470 -803 437 -818 420 -833C411 -800 396 -768 371 -720C346 -674 319 -633 285 -591C306 -573 319 -556 331 -528C367 -576 383 -602 425 -679C466 -754 477 -768 491 -775C506 -783 508 -791 492 -796ZM755 -274V-411C876 -411 918 -407 940 -403V-486C918 -479 888 -477 762 -477V-611C837 -611 879 -608 898 -603V-688C876 -683 835 -678 762 -678V-765C762 -784 767 -801 779 -812C790 -821 788 -827 773 -826C740 -824 711 -825 680 -830C685 -800 688 -756 688 -658V-477H612V-681C612 -695 617 -708 623 -713C632 -719 632 -727 621 -726C594 -724 565 -725 539 -730C542 -708 545 -665 545 -634V-478C516 -478 489 -482 472 -486V-403C500 -408 566 -411 682 -411V-89C640 -122 608 -168 586 -233C594 -302 598 -321 603 -327C612 -339 611 -343 598 -342C569 -340 553 -342 524 -349C524 -216 501 -95 440 2C463 17 481 34 498 60C541 -29 561 -82 572 -136C597 -77 631 -30 667 -1C703 29 793 50 942 55C944 23 950 -8 967 -54C888 -36 816 -34 755 -53V-205C839 -205 875 -202 894 -197V-283C872 -278 835 -274 755 -274ZM429 -437C464 -510 490 -552 505 -559C521 -567 520 -581 507 -583C480 -587 453 -604 436 -621C424 -575 403 -530 373 -479C329 -407 302 -371 258 -326C277 -306 292 -282 299 -251C319 -275 339 -302 358 -328V-88C358 -30 357 17 351 73H429ZM269 -291C240 -302 217 -315 196 -336C154 -198 113 -80 73 1C98 10 127 26 166 59C197 -81 225 -181 269 -291ZM278 -485C220 -518 152 -553 91 -579L53 -500C110 -476 194 -432 235 -404ZM312 -699C253 -744 192 -783 136 -816L85 -744C140 -714 221 -660 255 -625Z"/>
</svg>