<svg xmlns="http://www.w3.org/2000/svg" viewBox="0 -1000 1000 1000">
	<path fill="#000000" d="M796 -136H437V-191H796ZM872 -73C868 -95 867 -129 867 -159V-376C867 -405 869 -436 872 -454C823 -451 758 -450 616 -450C474 -450 411 -451 361 -454C365 -439 366 -405 366 -376V-154C366 -124 364 -94 361 -73C399 -76 481 -78 541 -78H710C776 -78 834 -77 872 -73ZM796 -242H437V-295H796ZM796 -346H437V-396H796ZM267 -298C241 -312 224 -325 199 -350C186 -295 167 -229 152 -181C128 -106 113 -68 88 -22C123 -1 150 20 184 47C194 -13 205 -77 219 -134C237 -210 252 -262 267 -298ZM281 -478C230 -507 152 -545 100 -569L62 -495C121 -471 197 -433 236 -403ZM306 -696C259 -732 203 -771 148 -802L98 -737C149 -709 220 -659 249 -624ZM706 -72L669 -18C748 8 820 38 896 77L936 9C867 -18 779 -48 706 -72ZM522 -72C475 -39 379 3 288 21C313 42 334 64 346 80C402 61 470 34 516 11C535 2 563 -7 573 -8C585 -9 585 -17 576 -23C554 -37 534 -56 522 -72ZM731 -572H508V-610C508 -624 511 -631 517 -635C527 -642 525 -650 515 -649C491 -648 458 -650 430 -654C434 -628 436 -611 436 -573C389 -573 335 -577 299 -582V-510C335 -514 389 -518 436 -518V-465H508V-519H731V-469H802V-519C847 -519 904 -514 942 -510V-582C904 -577 849 -573 802 -573V-614C802 -628 805 -635 811 -639C821 -646 819 -654 809 -653C785 -652 754 -655 726 -659C731 -632 731 -615 731 -572ZM653 -683C759 -683 851 -681 910 -676V-751C851 -746 759 -744 653 -743V-786C653 -803 656 -814 662 -818C676 -827 671 -835 661 -834C637 -832 608 -833 575 -836C579 -817 580 -790 580 -743C479 -743 393 -747 337 -751V-676C393 -680 479 -683 580 -683V-597H653Z"/>
</svg>