<svg xmlns="http://www.w3.org/2000/svg" viewBox="0 -1000 1000 1000">
	<path fill="#000000" d="M556 -136H693V-68H556ZM495 -171C496 -151 496 -127 496 -103C496 -72 497 -37 494 -15C520 -16 578 -16 631 -16C684 -16 727 -16 753 -14C751 -35 751 -71 751 -103C751 -132 752 -164 753 -186C761 -178 770 -168 779 -158L821 -205C782 -238 744 -268 705 -298L665 -258C699 -236 723 -217 749 -189C723 -187 682 -187 631 -187C587 -187 540 -186 510 -188C550 -229 569 -244 583 -249C599 -255 599 -263 588 -267C567 -274 541 -290 528 -304C500 -254 465 -217 417 -180C433 -173 452 -158 464 -139C475 -152 486 -162 495 -171ZM705 -609L894 -790C828 -785 734 -783 625 -783C515 -783 423 -784 355 -787V-718C402 -722 487 -724 545 -724H741L649 -633C613 -662 564 -694 522 -717L463 -670C510 -653 547 -634 584 -609C440 -609 366 -611 303 -616V-541C365 -546 453 -551 529 -551C450 -484 353 -434 250 -409C268 -394 284 -365 290 -341C307 -349 323 -356 338 -363C341 -338 342 -292 342 -247V-76C342 -13 338 22 332 74H414V-310H827V-28C827 2 818 6 741 -6C759 24 765 60 767 82C891 58 903 49 903 -17V-248C903 -306 906 -355 908 -375C877 -371 824 -368 634 -368C471 -368 396 -369 357 -372C484 -433 541 -481 600 -551H633V-475C633 -448 619 -439 556 -454C573 -433 583 -406 584 -378C675 -379 705 -408 705 -443V-551H834L796 -474L877 -453L933 -616C876 -612 819 -610 705 -609ZM273 -269C245 -282 222 -300 205 -327C190 -276 167 -214 146 -161C117 -97 94 -58 63 -14C93 8 116 26 147 58C166 -7 181 -56 204 -112C235 -185 255 -233 273 -269ZM270 -470C215 -505 166 -535 112 -564L66 -495C122 -470 172 -440 220 -397ZM300 -704C257 -740 205 -781 158 -816L104 -750C155 -719 201 -681 242 -635Z"/>
</svg>