<svg xmlns="http://www.w3.org/2000/svg" viewBox="0 -1000 1000 1000">
	<path fill="#000000" d="M814 -325H668V-400H814ZM756 -617V-568H595C472 -568 396 -569 350 -578V-497C398 -505 472 -507 589 -507C711 -507 789 -504 832 -497C830 -511 829 -546 829 -578V-721C829 -753 831 -790 832 -802C789 -795 712 -791 592 -791C472 -791 401 -794 353 -802V-721C398 -730 471 -731 593 -731H756V-678H516C446 -678 420 -680 391 -686V-609C420 -615 444 -617 516 -617ZM537 -32C515 -67 499 -102 483 -137L409 -105C432 -68 445 -40 454 3ZM235 -351C203 -360 184 -376 163 -398C157 -337 142 -271 127 -218C108 -151 72 -62 37 -3C71 14 98 33 131 60C157 -21 180 -123 192 -181C213 -283 224 -321 235 -351ZM254 -511C216 -547 165 -589 109 -625L54 -565C105 -535 159 -490 189 -449ZM308 -695C271 -738 220 -784 174 -820L111 -762C163 -730 207 -680 241 -633ZM772 -208V-270C819 -270 854 -269 882 -268C881 -292 880 -328 880 -364C880 -399 882 -436 882 -459C848 -457 805 -456 742 -456C678 -456 635 -457 601 -459C602 -436 603 -399 603 -364C603 -329 603 -293 601 -268C626 -269 656 -270 695 -270V-208H433C359 -208 284 -212 256 -219V-140C283 -144 358 -146 433 -146H695V-52C695 -10 680 -5 566 -12C592 21 602 46 607 78C754 57 772 36 772 -17V-146C845 -146 920 -143 946 -139V-219C921 -212 845 -208 772 -208ZM450 -320V-400C483 -400 520 -396 544 -390V-467C514 -460 473 -457 415 -457C358 -457 317 -460 287 -467V-390C310 -395 340 -399 380 -399V-315C331 -313 282 -313 240 -317C253 -288 261 -262 265 -235C354 -254 446 -268 546 -274C545 -297 545 -317 547 -334C517 -329 484 -324 450 -320Z"/>
</svg>