<svg xmlns="http://www.w3.org/2000/svg" viewBox="0 -1000 1000 1000">
	<path fill="#000000" d="M497 -508H362V-583H497ZM565 -450C563 -473 562 -505 562 -539V-686C562 -720 563 -750 565 -774C542 -771 510 -771 487 -771H367C342 -771 316 -772 291 -774C292 -750 294 -719 294 -686V-113C294 -42 292 3 287 72H370C363 5 362 -45 362 -116V-453H487C510 -453 540 -453 565 -450ZM838 -508H700V-582H838ZM912 -772C888 -770 844 -769 820 -769H711C678 -769 653 -769 628 -772C631 -748 632 -712 632 -679V-532C632 -499 631 -473 628 -450C653 -452 673 -453 711 -453H838V-61C838 -6 816 2 732 -13C756 15 765 41 766 74C893 61 910 38 910 -38V-678C910 -711 911 -748 912 -772ZM497 -640H362V-713H497ZM838 -638H700V-712H838ZM246 -279C215 -291 194 -304 172 -332C146 -199 104 -79 57 10C95 27 117 41 148 69C169 -45 208 -177 246 -279ZM260 -473C202 -506 146 -536 85 -565L44 -497C106 -471 157 -441 214 -400ZM278 -707C227 -746 176 -780 119 -813L69 -744C122 -717 172 -683 225 -640ZM689 -244L647 -199C686 -165 711 -136 747 -83L800 -133C758 -178 738 -198 689 -244ZM543 -281C500 -206 459 -158 376 -97C408 -85 422 -72 441 -49C485 -96 527 -147 568 -217V-58C568 -33 567 -8 563 21H640C638 -6 635 -34 635 -59V-281C717 -281 757 -277 793 -273V-348C756 -341 727 -339 635 -339V-384C635 -402 638 -409 643 -415C656 -428 653 -433 641 -432C614 -430 599 -430 558 -435C565 -412 568 -388 568 -339C501 -339 451 -343 406 -348V-273C447 -278 491 -281 543 -281Z"/>
</svg>