<svg xmlns="http://www.w3.org/2000/svg" viewBox="0 -1000 1000 1000">
	<path fill="#000000" d="M289 -475C232 -511 158 -552 103 -581L59 -509C123 -480 195 -438 243 -402ZM309 -702C260 -733 188 -784 141 -823L91 -757C139 -726 211 -669 253 -626ZM548 -52C539 -98 525 -162 512 -214L440 -205C454 -155 466 -88 470 -41ZM674 -88C662 -141 651 -179 628 -236L559 -220C585 -149 591 -125 599 -61ZM798 -126C780 -186 767 -219 748 -264L677 -243C695 -204 707 -167 722 -98ZM792 -639H699C674 -639 653 -641 633 -644V-573C651 -576 673 -577 699 -577H792V-499H409V-577H502C529 -577 548 -576 569 -573V-644C548 -640 530 -639 503 -639H409V-709C538 -727 562 -727 583 -722C604 -716 609 -724 596 -740C580 -758 566 -784 560 -810C510 -788 450 -773 339 -762V-519C339 -497 337 -473 331 -435C355 -437 401 -438 433 -438C382 -356 348 -320 257 -256C263 -270 270 -283 276 -295C246 -307 223 -326 203 -355C164 -215 112 -100 56 -12C88 5 113 23 145 55C168 -36 206 -145 247 -235C267 -220 282 -204 293 -182C308 -195 322 -207 335 -219C334 -155 324 -83 302 -23L385 -15C394 -62 403 -142 405 -215L338 -222C372 -253 401 -282 426 -311H830L821 -85C819 -24 801 -14 684 -16C710 15 721 42 723 77C869 51 890 34 894 -53L909 -386C889 -380 856 -375 761 -375H476C489 -395 503 -416 516 -438H781C818 -438 852 -437 874 -435C872 -458 871 -476 871 -518V-783C842 -781 793 -779 750 -779C698 -779 659 -781 632 -783V-710C651 -713 672 -714 693 -714H792Z"/>
</svg>