<svg xmlns="http://www.w3.org/2000/svg" viewBox="0 -1000 1000 1000">
	<path fill="#000000" d="M663 -312H749V-218H663ZM597 -426V-164C597 -90 594 -7 586 79H663V7H801C855 7 910 8 941 15V-66C915 -61 866 -58 816 -58V-157C852 -157 886 -154 908 -149V-226C887 -222 853 -219 816 -219V-311C852 -311 886 -309 908 -304V-381C887 -377 853 -373 816 -373V-465C860 -465 901 -461 927 -457V-536C898 -530 841 -528 786 -528H651C684 -591 692 -601 707 -611C719 -620 718 -626 706 -628C683 -632 657 -641 627 -658C594 -523 552 -447 487 -384C509 -378 526 -366 548 -343C562 -365 576 -387 597 -426ZM663 -157H749V-58H663ZM663 -465H749V-373H663ZM390 -661C453 -664 529 -666 629 -666C770 -666 864 -662 939 -655V-742C864 -735 770 -733 629 -733C620 -733 612 -733 604 -733L673 -770C659 -802 644 -827 621 -855L548 -817C575 -785 589 -763 597 -733C474 -733 390 -737 318 -743V-656C337 -658 356 -659 378 -660C365 -604 355 -570 335 -515C321 -476 308 -462 284 -450C296 -433 306 -402 309 -381C321 -386 334 -389 358 -391L403 -396C337 -269 303 -252 268 -251C283 -225 289 -205 293 -178C309 -183 335 -189 351 -191L454 -204C429 -102 354 -14 261 14C303 38 316 50 328 81C435 -1 499 -92 518 -190C533 -269 536 -276 547 -287C557 -297 553 -303 541 -304C513 -305 488 -310 459 -319C462 -299 463 -279 462 -260L372 -253C433 -325 460 -365 519 -471C532 -494 543 -508 559 -515C570 -520 571 -526 560 -529C527 -537 502 -547 473 -564C463 -524 452 -492 434 -455L361 -456C396 -513 418 -554 429 -581C434 -594 445 -611 457 -619C468 -626 467 -632 451 -634C435 -636 415 -647 390 -661ZM728 -620C747 -598 760 -571 769 -538L848 -565C827 -598 815 -619 802 -647ZM298 -710C247 -741 192 -779 151 -813L101 -748C149 -717 200 -678 242 -635ZM279 -476C222 -511 167 -542 112 -571L65 -506C121 -477 179 -444 227 -408ZM261 -276C235 -285 209 -304 185 -332C158 -189 119 -83 70 10C106 24 128 39 163 69C184 -56 217 -171 261 -276Z"/>
</svg>