<svg xmlns="http://www.w3.org/2000/svg" viewBox="0 -1000 1000 1000">
	<path fill="#000000" d="M683 -129H566V-187H683ZM750 -73C748 -94 748 -131 748 -162C748 -191 748 -225 750 -245C718 -243 686 -242 627 -242C567 -242 531 -243 500 -245C501 -225 501 -191 501 -162C501 -132 501 -94 500 -74C532 -75 567 -76 627 -76C686 -76 719 -75 750 -73ZM276 -278C245 -289 226 -301 206 -326C156 -191 101 -71 56 8C91 25 112 40 145 71C181 -53 228 -176 276 -278ZM434 32H815V77H899C895 41 894 -17 894 -58V-255C894 -290 894 -334 897 -359C858 -353 772 -352 624 -352C478 -352 396 -353 354 -359C357 -334 358 -290 358 -255V-53C358 -11 355 46 348 82H434ZM815 -25H434V-293H815ZM262 -463C211 -492 140 -527 89 -551L47 -475C105 -451 177 -415 216 -385ZM297 -692C257 -722 181 -772 131 -803L83 -733C134 -705 208 -651 239 -614ZM587 -678V-461C477 -461 360 -464 297 -470V-398C373 -402 472 -403 618 -403C766 -403 863 -402 942 -398V-470C883 -465 767 -461 663 -461V-678H769C750 -619 714 -555 673 -508C695 -500 708 -487 724 -470C747 -499 765 -527 783 -557C812 -539 849 -510 874 -486L918 -544C886 -565 843 -589 811 -607C823 -627 830 -631 838 -635C860 -646 859 -657 834 -664C825 -666 809 -672 795 -678C839 -678 883 -677 907 -674V-747C856 -742 753 -738 663 -738V-776C663 -786 667 -795 674 -800C696 -816 692 -830 669 -830C650 -830 611 -832 584 -838C586 -821 587 -781 587 -738C496 -738 392 -742 340 -747V-674C358 -677 411 -678 442 -678C425 -619 387 -560 341 -508C363 -500 376 -489 393 -469C417 -503 438 -532 454 -557C479 -538 504 -514 531 -484L576 -539C542 -563 510 -585 482 -602C497 -627 502 -633 510 -638C532 -651 534 -660 505 -667C497 -669 486 -673 474 -678Z"/>
</svg>