<svg xmlns="http://www.w3.org/2000/svg" viewBox="0 -1000 1000 1000">
	<path fill="#000000" d="M541 -629H400V-717H541ZM601 -567C601 -596 601 -636 601 -675C601 -715 601 -753 601 -783C569 -780 532 -779 474 -779C414 -779 367 -780 336 -783C339 -753 340 -714 340 -675C340 -636 338 -598 336 -567C367 -569 414 -569 474 -569C532 -569 570 -569 601 -567ZM254 -290C223 -301 205 -320 187 -345C172 -289 153 -234 131 -182C102 -111 83 -69 59 -23C92 -4 123 18 154 49C164 -12 180 -75 198 -132C220 -205 239 -254 254 -290ZM257 -465C206 -494 138 -529 84 -551L42 -488C100 -466 170 -430 208 -400ZM309 -696C268 -724 194 -775 146 -807L85 -749C136 -721 217 -662 246 -627ZM389 -188H539V-130C484 -117 432 -106 389 -98ZM539 -317V-246H389V-317ZM539 -460V-375H389V-460ZM672 -460C676 -366 701 -236 732 -145C688 -70 670 -50 623 -16C645 -4 670 22 680 41C712 7 735 -25 764 -73C813 17 878 67 902 67C916 67 931 53 955 -84C933 -96 919 -109 904 -134C893 -17 872 -8 806 -146C827 -188 842 -230 862 -308C873 -345 883 -361 892 -371C903 -383 901 -389 886 -392C862 -397 830 -410 814 -422C805 -350 789 -281 773 -231C758 -285 745 -360 741 -460C840 -460 880 -459 922 -454V-529C879 -523 834 -520 739 -520C736 -667 741 -772 753 -791C768 -815 756 -819 746 -817C732 -814 688 -822 668 -830C669 -731 670 -609 670 -520H369C343 -520 305 -521 268 -526V-454C287 -457 306 -458 323 -459V-87C283 -80 248 -76 233 -76C242 -48 248 -19 250 17C323 -10 415 -37 539 -68C539 -13 539 34 537 65H607C605 32 606 -21 606 -84C629 -89 654 -95 679 -101C678 -123 678 -152 683 -170C658 -162 632 -155 605 -147V-460ZM897 -622C880 -666 863 -709 844 -755L778 -724C799 -684 814 -643 826 -587Z"/>
</svg>