<svg xmlns="http://www.w3.org/2000/svg" viewBox="0 -1000 1000 1000">
	<path fill="#000000" d="M244 -304C216 -321 199 -337 177 -367C165 -307 154 -265 127 -181C106 -117 84 -69 53 -25C81 -11 116 15 141 44C155 -8 176 -85 192 -139C222 -254 232 -287 244 -304ZM249 -480C211 -519 149 -576 106 -612L48 -559C111 -510 145 -470 187 -408ZM287 -676C260 -709 195 -777 147 -818L86 -767C133 -731 190 -665 219 -612ZM490 -719V-626H384V-719ZM357 -286H490V-196H357ZM490 -436V-349H357V-436ZM688 -719H783V-626H688ZM617 -25C561 -28 558 -35 558 -76V-719H617ZM688 -288H818V-197H688ZM688 -437H818V-349H688ZM688 -136H810C837 -136 864 -136 893 -134C890 -154 889 -182 889 -210V-422C889 -452 890 -480 893 -500C864 -498 836 -497 809 -497H688V-568H774C820 -568 847 -566 864 -565C862 -588 860 -631 860 -675C860 -717 862 -763 864 -785C792 -782 741 -781 588 -781C433 -781 381 -782 305 -785C308 -763 311 -717 311 -676C311 -632 308 -589 305 -566C320 -567 350 -568 395 -568H490V-496H381C347 -496 313 -498 278 -500C282 -476 284 -443 284 -408V-233C284 -197 281 -153 278 -129C311 -133 343 -135 378 -135H490V-47C490 28 506 41 592 43C694 43 818 46 849 45C902 44 916 37 953 -65C925 -72 900 -85 874 -112C858 -28 851 -22 821 -22C773 -21 724 -22 688 -23Z"/>
</svg>