<svg xmlns="http://www.w3.org/2000/svg" viewBox="0 -1000 1000 1000">
	<path fill="#000000" d="M482 -540H365V-702H482ZM228 -288C199 -297 175 -311 153 -334C146 -277 134 -220 118 -161C103 -103 83 -44 64 4C95 16 124 30 159 51C165 -17 175 -66 190 -136C206 -208 217 -251 228 -288ZM241 -471C196 -499 144 -529 100 -550L60 -485C101 -467 152 -435 197 -401ZM264 -695C227 -732 186 -766 145 -794L95 -735C131 -709 179 -667 213 -628ZM679 -77V-257H804V-77ZM804 -15V53H879C874 13 872 -34 872 -77V-247C872 -287 873 -309 878 -329C855 -323 829 -320 743 -320C654 -320 632 -323 607 -329C611 -306 613 -283 613 -247V-65C613 -28 609 25 605 64H679V-15ZM741 -439C786 -394 847 -361 928 -331C936 -362 949 -388 972 -416C899 -427 834 -450 787 -482C845 -546 880 -632 904 -742H708C722 -769 737 -793 743 -800C754 -812 752 -817 738 -818C713 -820 683 -826 660 -833C646 -748 603 -646 556 -568C572 -560 593 -544 605 -530C618 -551 631 -575 645 -605C660 -558 678 -519 701 -486C645 -441 586 -407 532 -388C551 -371 569 -352 583 -332C633 -359 693 -399 741 -439ZM741 -524C712 -562 692 -617 679 -682H817C805 -629 775 -564 741 -524ZM409 -76C387 -70 365 -65 344 -60V-347C344 -356 350 -374 360 -382C372 -392 369 -400 354 -399C328 -397 295 -400 273 -404C278 -371 280 -331 280 -283V-46C258 -42 238 -38 221 -36C234 -6 244 20 252 49C299 23 439 -20 564 -50C562 -74 565 -95 570 -120C545 -112 511 -102 473 -92V-252C521 -252 536 -251 553 -248V-317C536 -313 521 -312 473 -312V-477C506 -476 532 -473 552 -470C547 -507 545 -572 546 -629C546 -684 548 -738 552 -775C523 -769 481 -766 423 -766C364 -766 323 -769 291 -775C295 -738 298 -683 298 -628C299 -573 296 -510 291 -471C318 -475 358 -477 409 -478Z"/>
</svg>