<svg xmlns="http://www.w3.org/2000/svg" viewBox="0 -1000 1000 1000">
	<path fill="#000000" d="M807 -329H538V-364H807ZM868 -274C865 -297 864 -323 864 -349C864 -373 866 -397 868 -421C819 -417 767 -416 672 -416C577 -416 522 -417 474 -421C476 -396 477 -373 477 -349C477 -325 476 -299 474 -274C522 -277 577 -278 672 -278C767 -278 820 -278 868 -274ZM267 -272C235 -283 213 -300 194 -330C156 -194 106 -79 55 3C87 21 112 40 145 68C172 -45 218 -174 267 -272ZM287 -467C231 -499 166 -539 114 -571L67 -498C124 -468 187 -429 235 -391ZM310 -697C262 -726 199 -769 151 -806L98 -737C150 -708 208 -663 251 -622ZM632 -185C631 -169 629 -155 627 -142C534 -142 466 -143 413 -147V-82C462 -85 525 -88 608 -88C576 -41 491 -7 383 4C405 30 416 53 419 74C534 55 634 -1 676 -85C717 -4 782 38 939 67C941 39 951 7 967 -17C845 -17 780 -34 730 -88C816 -88 891 -85 940 -82V-147C883 -143 792 -142 688 -142C690 -154 691 -169 692 -185C770 -185 845 -183 888 -179V-244C839 -240 750 -239 661 -239C570 -239 501 -240 453 -244V-179C496 -183 555 -185 632 -185ZM545 -687C413 -687 359 -688 327 -691C331 -568 331 -468 330 -364C329 -211 299 -99 219 30C241 37 273 55 290 76C363 -45 403 -196 404 -387C404 -451 406 -555 404 -630H565V-576C504 -567 456 -561 421 -559L426 -496C459 -504 507 -514 565 -524C568 -457 584 -448 671 -448C732 -448 774 -449 805 -452C875 -458 884 -474 916 -541C901 -538 879 -548 856 -575C842 -525 833 -516 789 -508C762 -503 722 -501 665 -501C641 -501 631 -507 629 -534C700 -545 766 -556 804 -560L797 -619C761 -608 698 -597 629 -586V-630H875L862 -591L933 -576L952 -700C885 -692 757 -687 615 -687V-728H728C785 -728 828 -727 885 -722V-792C828 -785 785 -782 728 -782H615C617 -804 623 -815 632 -820C643 -826 640 -833 629 -833C602 -832 567 -832 537 -837C543 -813 545 -792 545 -742Z"/>
</svg>