<svg xmlns="http://www.w3.org/2000/svg" viewBox="0 -1000 1000 1000">
	<path fill="#000000" d="M563 13H822V62H898C892 20 890 -3 890 -49V-243C890 -277 890 -316 893 -342C863 -336 801 -334 693 -334C585 -334 526 -336 494 -342C497 -316 497 -277 497 -243V-65C497 -18 495 27 489 70H563ZM822 -130V-50H563V-130ZM563 -191V-272H822V-191ZM763 -640C750 -665 738 -691 726 -721V-773C726 -787 730 -795 735 -800C747 -811 746 -823 728 -822C701 -820 678 -821 656 -827C660 -800 663 -737 663 -708V-469C663 -430 653 -422 575 -435C597 -410 611 -374 612 -345C703 -353 726 -385 726 -441V-607C774 -483 835 -421 926 -368C938 -398 954 -423 980 -450C901 -474 841 -516 790 -594C888 -661 912 -672 931 -672C949 -672 952 -683 938 -691C914 -704 896 -724 881 -752C860 -721 848 -707 763 -640ZM233 -289H151V-344H233ZM294 -344H377V-289H294ZM233 -396H151V-453H233ZM294 -453H377V-396H294ZM233 -698V-624C145 -624 104 -627 53 -632V-556C104 -561 145 -564 233 -564V-507C163 -507 131 -509 88 -514C90 -472 92 -425 92 -368C92 -311 91 -275 88 -231C129 -235 162 -236 233 -236V-177C160 -177 114 -180 70 -184V-117C113 -121 160 -124 233 -124V-53C174 -47 115 -43 52 -39C60 -10 64 11 68 44C178 22 295 2 463 -20C459 -41 458 -54 459 -84C401 -74 347 -66 294 -60V-124C359 -124 403 -121 445 -117V-184C403 -180 364 -177 294 -177V-236C364 -236 397 -234 441 -230C438 -272 436 -307 436 -368C436 -384 436 -399 436 -414C452 -404 467 -391 477 -377C580 -476 626 -555 652 -702C637 -698 606 -697 563 -697C522 -697 493 -698 476 -702V-628C492 -633 532 -637 577 -637C548 -541 501 -485 437 -441C438 -468 439 -493 441 -514C397 -509 365 -507 294 -507V-564C374 -564 417 -561 467 -556V-632C417 -627 376 -624 294 -624V-711C379 -730 416 -730 451 -719C460 -716 469 -725 456 -738C440 -755 429 -783 423 -807C281 -771 159 -750 55 -746C66 -726 72 -699 72 -676C134 -683 188 -691 233 -698Z"/>
</svg>