<svg xmlns="http://www.w3.org/2000/svg" viewBox="0 -1000 1000 1000">
	<path fill="#000000" d="M467 -724C431 -694 394 -667 359 -649C380 -635 393 -622 403 -602C448 -632 484 -659 520 -689C550 -667 578 -645 602 -623L647 -677C620 -693 592 -711 564 -728C599 -761 620 -775 633 -778C648 -781 647 -787 636 -792C616 -801 593 -814 571 -830C553 -807 531 -784 508 -762C476 -781 443 -800 412 -818L372 -776C405 -761 437 -743 467 -724ZM446 -274C404 -272 343 -270 283 -270C221 -270 159 -271 120 -274V-199C158 -204 191 -206 237 -206H330C270 -106 183 -62 38 -31C65 -7 78 16 84 50C295 -33 386 -125 446 -274ZM635 -189C587 -237 571 -258 559 -294C562 -301 568 -309 575 -320C581 -329 577 -339 563 -337C532 -332 505 -332 473 -337C477 -312 478 -260 478 -215V-33C478 -17 460 -7 367 -21C398 17 403 38 404 76C529 69 551 40 551 -23V-206C624 -77 742 -12 920 43C926 8 937 -26 962 -54C849 -66 752 -93 682 -146C716 -162 749 -179 816 -214C835 -224 855 -231 871 -234C890 -238 890 -245 878 -250C855 -260 829 -278 806 -300C761 -259 714 -228 635 -189ZM468 -534C437 -514 404 -497 364 -478C388 -466 397 -456 411 -429C448 -451 481 -470 521 -498C549 -477 574 -455 598 -431L645 -481C623 -498 597 -516 571 -533C606 -559 614 -561 626 -563C639 -565 640 -571 629 -577C611 -587 593 -600 571 -620C552 -601 534 -584 515 -568C489 -585 463 -600 441 -612L398 -572C424 -560 447 -547 468 -534ZM148 -419C115 -420 89 -422 64 -425V-287H144V-356H858V-298H938V-424C912 -421 885 -419 851 -419L866 -703C868 -745 869 -761 874 -794C840 -792 793 -791 758 -791C723 -791 688 -793 654 -796V-725C679 -726 692 -727 716 -727H795L792 -664H720C701 -664 678 -665 664 -668V-600C678 -603 702 -606 722 -606H789L786 -544H717C698 -544 675 -545 661 -548V-480C675 -483 699 -486 719 -486H783L780 -418H217L216 -480H284C304 -480 328 -477 342 -474V-544C328 -541 305 -540 286 -540H214L213 -602H284C304 -602 328 -599 342 -596V-666C328 -663 305 -662 286 -662H211L210 -727C277 -746 335 -752 349 -750C370 -747 374 -752 354 -770C338 -784 322 -804 306 -831C247 -795 187 -778 128 -769C135 -748 139 -718 140 -675Z"/>
</svg>