<svg xmlns="http://www.w3.org/2000/svg" viewBox="0 -1000 1000 1000">
	<path fill="#000000" d="M240 -272C215 -281 190 -297 169 -320C148 -209 95 -65 46 0C80 14 105 30 133 51C161 -51 190 -145 240 -272ZM237 -455C195 -492 144 -529 97 -563L48 -501C98 -470 138 -438 185 -389ZM274 -681C236 -732 194 -779 153 -816L93 -764C134 -729 174 -678 207 -625ZM751 -621C802 -574 831 -542 864 -494L911 -550C872 -591 837 -621 768 -675C769 -682 770 -688 771 -695C783 -772 789 -785 798 -795C810 -806 804 -815 798 -815C767 -815 744 -818 717 -823C731 -680 708 -603 587 -551C611 -527 621 -514 633 -496C699 -542 733 -580 751 -621ZM433 -611C476 -571 513 -531 535 -499L580 -547C541 -593 518 -617 456 -667C459 -677 462 -687 463 -697C474 -773 480 -790 487 -795C499 -805 494 -816 486 -816C470 -816 432 -819 406 -824C420 -686 395 -611 288 -557C307 -537 318 -522 326 -496C377 -531 412 -571 433 -611ZM675 -750L616 -762C615 -711 609 -683 597 -642L656 -632C665 -672 671 -702 675 -750ZM918 -744C896 -752 877 -761 856 -775C850 -739 835 -700 813 -661C838 -651 857 -641 871 -630C896 -696 903 -712 917 -726C927 -736 927 -741 918 -744ZM365 -758L303 -768C303 -723 296 -684 282 -643L348 -640C355 -676 361 -713 365 -758ZM589 -755C567 -757 543 -767 527 -776C521 -741 512 -717 492 -676C515 -670 532 -661 548 -644C559 -679 578 -723 587 -736C598 -749 598 -753 589 -755ZM494 -488C409 -488 336 -489 273 -496V-335H341V-425H833V-335H905V-499C855 -491 799 -488 705 -488ZM532 -314C485 -309 440 -307 401 -307C357 -307 311 -309 289 -313V-237C325 -242 378 -246 449 -246C413 -141 347 -79 207 -32C232 -16 250 4 269 35C429 -59 500 -129 532 -314ZM697 -225C677 -253 659 -289 634 -355C634 -374 638 -380 648 -388C663 -403 659 -414 637 -410C613 -406 585 -408 556 -417C561 -389 564 -330 564 -282V-69C564 -26 549 -10 471 -18C492 11 501 38 501 70C610 55 634 31 634 -40V-237C683 -105 763 -37 912 31C922 -1 939 -37 962 -61C856 -79 789 -117 731 -183C765 -203 789 -221 817 -245C839 -264 851 -268 868 -268C888 -268 894 -281 884 -286C858 -298 835 -314 810 -341C775 -294 742 -259 697 -225Z"/>
</svg>