<svg xmlns="http://www.w3.org/2000/svg" viewBox="0 -1000 1000 1000">
	<path fill="#000000" d="M653 -601V-631C653 -642 656 -651 659 -654C668 -662 666 -671 652 -670C629 -669 600 -670 582 -674C584 -664 585 -638 585 -601C508 -601 422 -604 379 -607V-537C421 -540 505 -542 585 -542V-482C434 -482 357 -484 304 -487V-419C357 -422 442 -423 528 -423C494 -390 469 -371 442 -352C420 -336 403 -328 367 -330C377 -302 384 -282 385 -251C403 -257 429 -260 477 -264L794 -288C810 -272 826 -255 841 -236L893 -290C852 -331 784 -382 720 -422L673 -383C694 -369 715 -355 735 -339L493 -327C541 -356 572 -381 617 -423H709C794 -423 869 -422 925 -419V-487C873 -484 801 -482 653 -482V-542C731 -542 812 -540 853 -537V-607C812 -604 731 -601 653 -601ZM531 -753V-792C531 -804 533 -811 539 -816C546 -822 544 -830 538 -830C518 -830 477 -832 458 -836C462 -812 463 -787 463 -753C415 -753 355 -757 314 -761V-687C354 -692 416 -696 463 -696V-639H531V-697H709V-638H780V-697C848 -697 888 -694 934 -687V-761C888 -756 842 -753 780 -753V-798C780 -810 781 -814 787 -819C797 -826 794 -833 784 -833C761 -832 732 -833 704 -839C707 -815 709 -797 709 -753ZM513 -162V-29H431V-162ZM660 -162V-29H584V-162ZM803 -29H727V-162H803ZM360 -29C312 -29 284 -31 234 -38V43C287 36 352 33 592 33C841 33 897 36 951 43V-38C917 -33 897 -31 872 -30V-152C872 -193 873 -207 874 -226C826 -223 738 -222 616 -222C493 -222 407 -223 359 -226C360 -204 360 -173 360 -152ZM255 -315C223 -327 210 -333 181 -356C169 -295 153 -232 134 -178C110 -111 88 -59 63 -12C99 9 122 27 156 57C170 -5 189 -78 205 -140C225 -219 241 -273 255 -315ZM264 -480C212 -519 161 -553 100 -588L49 -522C103 -492 154 -455 206 -408ZM289 -685C238 -729 195 -764 143 -801L87 -741C140 -706 193 -657 231 -615Z"/>
</svg>