<svg xmlns="http://www.w3.org/2000/svg" viewBox="0 -1000 1000 1000">
	<path fill="#000000" d="M369 -512C348 -473 323 -430 294 -383C271 -345 249 -328 223 -316C238 -290 244 -272 250 -236C266 -244 294 -251 315 -255L453 -280C457 -262 459 -245 459 -231L537 -251C521 -305 505 -351 483 -407L418 -383C425 -372 432 -355 438 -335L326 -318C388 -409 450 -515 490 -589C509 -624 524 -642 536 -646C549 -651 549 -659 536 -664C516 -671 484 -687 458 -708C453 -688 437 -647 399 -570L316 -559C365 -641 391 -682 420 -728C431 -746 440 -760 452 -763C465 -766 465 -773 446 -779C420 -787 390 -804 364 -825C358 -781 340 -736 288 -628C265 -581 256 -573 233 -567C244 -537 251 -510 255 -482C268 -491 276 -494 296 -498ZM318 -180L253 -194C246 -134 230 -78 198 -15L274 10C293 -59 305 -116 318 -180ZM422 -25C422 -88 418 -130 405 -193L342 -186C353 -127 356 -91 353 -23ZM548 -42C534 -105 523 -144 503 -203L440 -191C457 -132 464 -96 472 -26ZM215 -310C188 -314 162 -326 142 -347C136 -289 125 -238 109 -183C82 -91 64 -47 42 -13C72 2 103 19 133 41C141 1 152 -41 180 -164C196 -239 204 -276 215 -310ZM235 -467C199 -499 153 -535 104 -569L58 -506C114 -468 158 -428 179 -405ZM264 -696C228 -732 189 -765 141 -803L86 -748C140 -711 162 -691 205 -639ZM856 -673C834 -719 817 -757 794 -803L723 -778C751 -736 771 -691 781 -643ZM648 -560H749V-446H648ZM648 -677C676 -739 687 -757 697 -763C717 -775 716 -779 699 -783C680 -788 655 -800 619 -821C575 -647 526 -552 463 -451C485 -438 500 -424 519 -400C540 -440 561 -480 578 -517V-118C578 -59 575 7 570 77H648V-6H801C865 -6 914 -3 955 2V-78C921 -73 875 -70 819 -70V-200C865 -200 903 -197 935 -193V-273C905 -269 861 -265 819 -265V-383C866 -383 899 -380 932 -375V-454C900 -449 866 -446 819 -446V-560C871 -560 904 -559 944 -556V-629C899 -624 862 -623 798 -623H648ZM648 -201H749V-70H648ZM648 -383H749V-265H648Z"/>
</svg>