<svg xmlns="http://www.w3.org/2000/svg" viewBox="0 -1000 1000 1000">
	<path fill="#000000" d="M453 -598V-633H767V-598ZM767 -552V-518H453V-552ZM453 -473H767V-438H453ZM610 -70C562 -93 532 -116 513 -141H719C695 -115 656 -89 610 -70ZM452 -136C472 -101 499 -71 538 -45C419 -6 362 4 271 5C295 30 307 50 312 74C432 54 504 35 605 -9C677 22 805 50 925 65C926 33 931 11 948 -19C877 -15 756 -26 680 -45C746 -83 814 -140 855 -200C812 -197 758 -195 686 -195H513C524 -204 531 -207 536 -208C553 -210 551 -221 538 -224C527 -227 518 -230 508 -237C564 -231 630 -230 671 -234C725 -239 738 -247 763 -291C736 -297 721 -309 703 -328C692 -296 681 -288 655 -286C622 -283 604 -283 571 -285C546 -286 539 -295 539 -310V-336C539 -345 541 -351 544 -354C551 -359 548 -364 539 -363C508 -361 488 -362 468 -366C470 -354 471 -340 471 -329V-292C471 -268 474 -253 484 -245C473 -226 446 -202 395 -166C342 -127 306 -107 264 -94C292 -79 302 -67 317 -41C373 -73 417 -105 452 -136ZM593 -386H840V-328H916V-442C894 -440 865 -438 837 -438V-626C837 -643 837 -668 838 -686C792 -684 740 -683 638 -683C643 -697 649 -711 658 -726C756 -726 840 -723 903 -719V-791C833 -787 744 -786 612 -786C479 -786 393 -788 321 -791V-719C384 -723 459 -726 567 -726C564 -711 560 -697 555 -683C470 -683 423 -684 382 -686C383 -668 383 -643 383 -626V-438C351 -438 315 -439 289 -442V-328H359V-386H584L559 -347C589 -331 607 -319 634 -296L676 -339C654 -356 624 -372 593 -386ZM457 -332L396 -363C381 -326 366 -307 329 -273L397 -239C412 -266 434 -302 457 -332ZM888 -267C842 -316 821 -335 780 -365L733 -329C778 -297 809 -264 833 -227ZM312 -704C263 -733 198 -777 150 -816L96 -748C147 -719 210 -674 255 -632ZM271 -490C215 -524 157 -556 101 -585L59 -513C116 -484 171 -452 224 -415ZM273 -277C241 -287 216 -305 197 -335C159 -195 107 -84 55 -2C88 16 116 35 149 63C177 -50 223 -179 273 -277Z"/>
</svg>