<svg xmlns="http://www.w3.org/2000/svg" viewBox="0 -1000 1000 1000">
	<path fill="#000000" d="M804 -533H700V-585H804ZM528 -535H431V-585H528ZM544 -262V-302H688V-262ZM688 -392V-353H544V-392ZM568 -207H603C631 -146 667 -96 707 -57C758 -8 815 21 911 53C921 29 938 6 969 -22C884 -36 826 -52 780 -81C854 -126 868 -130 886 -132C902 -133 903 -138 888 -147C860 -162 845 -175 828 -197C793 -165 772 -149 731 -124C705 -152 683 -180 668 -207H744C802 -207 884 -205 933 -201V-269C888 -265 818 -262 759 -262V-302C798 -302 838 -299 874 -296V-360C838 -356 797 -353 759 -353V-392C803 -392 867 -388 908 -385V-449C867 -446 803 -443 759 -443V-491C814 -491 843 -490 872 -488C871 -505 870 -536 870 -561C870 -586 871 -615 872 -633C841 -632 812 -631 753 -631C695 -631 664 -632 634 -633C635 -615 636 -586 636 -561C636 -537 636 -505 634 -489C650 -490 667 -490 688 -490V-443H544V-488C564 -488 579 -487 594 -485C592 -503 591 -533 591 -561C591 -589 592 -617 594 -636C565 -634 535 -633 480 -633C424 -633 392 -634 363 -636C365 -617 367 -589 367 -561C367 -534 365 -506 363 -486C392 -488 421 -489 473 -489V-443C426 -443 368 -446 327 -449V-385C368 -389 424 -392 473 -392V-353C428 -353 390 -355 353 -360V-296C388 -300 429 -302 473 -302V-262C411 -262 348 -264 302 -269V-201C349 -205 418 -207 481 -207C429 -157 367 -122 243 -68C269 -49 285 -28 297 -4C358 -38 415 -75 464 -112V-35C464 -11 460 1 430 15C454 35 471 53 485 75C510 57 552 32 567 25L652 -13C644 -29 640 -56 640 -84C613 -65 574 -46 531 -27V-169C545 -182 558 -196 568 -207ZM582 -728C462 -728 369 -731 325 -735V-662C366 -665 480 -668 619 -668C773 -668 885 -665 926 -662V-735C891 -731 800 -728 673 -728C656 -761 645 -790 633 -823L546 -800C562 -773 573 -752 582 -728ZM276 -298C245 -310 221 -326 202 -353C170 -211 117 -78 69 5C102 21 127 38 160 68C184 -47 231 -198 276 -298ZM278 -478C220 -522 169 -556 114 -585L69 -515C125 -485 171 -452 229 -407ZM305 -697C253 -739 204 -774 146 -811L96 -743C144 -712 203 -667 249 -624Z"/>
</svg>