<svg xmlns="http://www.w3.org/2000/svg" viewBox="0 -1000 1000 1000">
	<path fill="#000000" d="M768 -123H425V-177H768ZM532 -12C524 -34 515 -58 507 -74H683C677 -55 668 -29 662 -12ZM732 -12C740 -30 750 -55 759 -74C788 -74 821 -73 842 -73C839 -91 839 -121 839 -150C839 -177 840 -207 842 -226C779 -223 713 -222 595 -222C476 -222 411 -223 348 -226C352 -207 353 -177 353 -150C353 -122 352 -92 348 -72C372 -73 405 -73 435 -74C444 -55 454 -31 460 -12C381 -12 285 -14 235 -18V51C313 46 443 45 602 45C747 45 881 46 959 51V-18C909 -15 816 -12 732 -12ZM254 -293C224 -305 198 -323 174 -353C162 -296 155 -270 128 -181C108 -119 78 -39 51 2C83 15 102 26 137 47C153 -11 175 -79 193 -134C225 -228 238 -262 254 -293ZM910 -255V-322C832 -317 741 -316 596 -316C450 -316 361 -317 281 -322V-255C360 -260 450 -260 596 -260C741 -260 832 -260 910 -255ZM240 -471C189 -513 133 -554 87 -587L35 -529C88 -492 131 -452 180 -400ZM439 -672V-613C416 -613 392 -614 385 -615V-566C392 -567 417 -568 439 -568V-517C415 -517 387 -518 378 -519V-469C387 -470 415 -471 439 -471V-413H352V-742C352 -759 356 -765 364 -770C381 -782 378 -789 358 -788C330 -787 314 -788 283 -792C289 -771 291 -741 291 -702V-464C291 -419 286 -384 281 -358C397 -359 482 -359 572 -359C665 -359 767 -359 911 -358C908 -389 908 -414 908 -463V-727C908 -746 910 -750 921 -758C935 -767 931 -775 916 -774C887 -772 869 -773 834 -778C839 -757 842 -725 842 -686V-413H759V-469C785 -469 816 -468 825 -467V-517C817 -516 785 -515 759 -515V-568C782 -568 809 -567 818 -566V-616C809 -615 782 -614 759 -614V-677C784 -677 813 -676 822 -675V-725C814 -724 784 -723 759 -723V-750C759 -772 762 -777 770 -783C783 -793 780 -799 765 -798C744 -797 723 -797 701 -801C703 -792 705 -772 705 -737V-723C679 -723 650 -724 642 -725V-675C650 -676 679 -677 705 -677V-614C679 -614 650 -615 642 -616V-566C650 -567 679 -568 705 -568V-516C680 -516 652 -516 645 -517V-467C652 -468 682 -469 705 -469V-413H624V-774C624 -795 627 -800 635 -806C649 -816 646 -823 630 -822C610 -821 586 -821 564 -825C566 -815 568 -788 568 -760V-413H492V-471C515 -471 540 -470 548 -469V-519C540 -518 515 -517 492 -517V-568C513 -568 537 -567 546 -566V-615C537 -614 513 -613 492 -613V-672C513 -672 536 -671 545 -670V-723C537 -722 513 -722 492 -722V-756C492 -778 495 -783 503 -789C517 -798 514 -805 498 -804C478 -803 457 -803 435 -807C437 -797 439 -778 439 -743V-721C416 -721 390 -722 382 -723V-670C390 -671 416 -672 439 -672ZM267 -685C222 -729 186 -763 133 -805L72 -747C121 -709 151 -679 198 -619Z"/>
</svg>