<svg xmlns="http://www.w3.org/2000/svg" viewBox="0 -1000 1000 1000">
	<path fill="#000000" d="M579 -237V-186C474 -186 459 -187 436 -191V-121C463 -125 481 -127 579 -127V-69C471 -69 433 -73 404 -78V-1C435 -7 475 -10 578 -10C578 17 576 53 573 74H640V-292C640 -310 642 -315 649 -321C667 -336 665 -344 642 -344C618 -344 596 -346 573 -350C575 -339 576 -319 578 -297C476 -297 451 -299 424 -303V-232C453 -236 476 -237 579 -237ZM736 -546C689 -471 662 -439 607 -399C626 -390 645 -376 659 -360C697 -400 730 -445 755 -494V-428C755 -406 754 -379 752 -355C731 -356 704 -358 682 -363C687 -333 689 -300 689 -253V85H754C752 58 750 15 750 -25C886 -25 909 -22 937 -16V-94C907 -88 882 -85 750 -85V-143C856 -143 880 -141 905 -137V-203C879 -198 856 -197 750 -197V-258C863 -258 899 -253 921 -249V-322C897 -316 862 -313 751 -313C753 -321 757 -329 765 -333C772 -337 776 -341 778 -344H818C814 -371 812 -403 812 -428V-491C837 -440 865 -408 917 -367C923 -392 935 -413 951 -432C903 -451 868 -485 827 -546C881 -546 898 -546 923 -544V-606C895 -602 866 -599 812 -599V-610C812 -624 816 -640 821 -644C836 -654 834 -666 814 -666C789 -666 768 -666 749 -669C751 -653 754 -632 755 -599C723 -599 691 -602 664 -606V-544C685 -546 708 -546 736 -546ZM602 -745C413 -745 366 -747 324 -753C343 -271 321 -101 253 28C278 32 312 47 329 72C377 -64 393 -139 397 -377C415 -368 434 -358 445 -347C476 -390 496 -429 517 -485V-439C517 -414 515 -383 512 -355H579C575 -384 574 -414 574 -439V-473C595 -454 611 -438 626 -420L662 -467C636 -485 611 -506 596 -520L574 -492V-541C610 -541 635 -540 659 -538V-598C633 -595 607 -593 574 -593V-614C574 -629 577 -643 583 -647C598 -658 596 -670 575 -670C557 -670 530 -670 511 -673C514 -656 516 -620 517 -593C464 -593 443 -594 411 -598V-538C437 -540 460 -541 497 -541C468 -474 442 -433 397 -387C399 -466 399 -562 399 -683H743C848 -683 908 -686 951 -682V-753C915 -749 833 -745 684 -745C678 -776 669 -811 658 -842L575 -831C590 -799 596 -777 602 -745ZM290 -250C261 -264 241 -281 226 -308C209 -258 185 -196 161 -144C131 -81 107 -42 75 1C105 23 124 41 156 74C175 14 193 -39 218 -94C250 -167 272 -214 290 -250ZM278 -474C222 -506 170 -533 115 -562L66 -492C123 -463 175 -430 223 -394ZM312 -702C270 -732 214 -773 166 -808L109 -741C158 -708 208 -670 250 -626Z"/>
</svg>