<svg xmlns="http://www.w3.org/2000/svg" viewBox="0 -1000 1000 1000">
	<path fill="#000000" d="M728 -457H256V-556H728ZM728 -619H256V-707H728ZM274 -312L195 -328C190 -259 175 -221 128 -151L216 -132C252 -207 267 -254 274 -312ZM888 -298C865 -314 841 -332 814 -355C789 -306 720 -243 651 -208C674 -195 695 -177 717 -151C860 -266 874 -276 883 -278C904 -283 905 -286 888 -298ZM498 -257C536 -110 651 -12 892 74C904 38 923 8 954 -27C667 -69 558 -190 538 -389C729 -389 759 -389 814 -387C812 -400 809 -445 809 -471V-700C809 -726 812 -758 814 -775C750 -774 675 -773 493 -773C311 -773 234 -774 171 -775C174 -759 176 -726 176 -700V-471C176 -445 173 -405 171 -387C223 -388 320 -389 450 -389C432 -173 306 -55 48 -8C79 16 105 48 122 79C340 -3 452 -103 498 -257Z"/>
</svg>