<svg xmlns="http://www.w3.org/2000/svg" viewBox="0 -1000 1000 1000">
	<path fill="#000000" d="M652 -694H825C825 -628 821 -575 809 -509C801 -468 785 -449 664 -462C692 -419 699 -403 706 -372C840 -377 876 -417 884 -485C899 -605 908 -692 913 -772C875 -765 799 -763 660 -763C536 -763 478 -765 425 -772V-686C457 -690 515 -694 577 -694C561 -544 502 -473 370 -407C402 -390 423 -371 436 -345C555 -420 628 -505 652 -694ZM814 -16V55H896C890 5 887 -27 887 -73V-232C887 -278 889 -310 893 -334C844 -328 789 -325 683 -325C538 -325 495 -328 453 -334C458 -310 460 -281 460 -232V-66C460 -30 459 8 452 63H533V-16ZM533 -83V-259H814V-83ZM161 -592L88 -593C95 -478 88 -414 67 -347L151 -343C160 -427 163 -510 161 -592ZM286 -521C286 -661 292 -785 302 -796C315 -809 312 -815 297 -815C269 -817 238 -820 204 -826C216 -687 219 -517 214 -370C207 -212 142 -71 58 1C89 15 120 31 141 49C203 -38 239 -115 262 -212C297 -161 332 -104 356 -60L422 -129C378 -178 332 -227 275 -281C282 -330 285 -382 286 -440C381 -537 423 -568 433 -571C447 -575 446 -583 438 -587C413 -600 392 -620 373 -648C357 -608 322 -560 286 -521Z"/>
</svg>