<svg xmlns="http://www.w3.org/2000/svg" viewBox="0 -1000 1000 1000">
	<path fill="#000000" d="M164 -628H90C103 -544 95 -454 74 -387L158 -381C169 -475 171 -525 164 -628ZM297 -562C305 -741 311 -768 319 -776C334 -792 332 -797 313 -798C285 -800 252 -802 218 -807C229 -662 230 -530 223 -411C213 -229 168 -97 61 -6C93 11 116 28 136 49C192 -24 230 -95 255 -191C281 -157 303 -127 334 -83L397 -134C350 -184 333 -201 270 -259C282 -323 290 -396 293 -485C376 -576 415 -610 424 -613C441 -618 441 -625 431 -630C413 -638 381 -657 359 -673C342 -637 321 -598 297 -562ZM668 -728C610 -757 548 -787 486 -815L434 -759C497 -736 561 -709 608 -685C547 -645 482 -612 417 -589C440 -573 459 -554 476 -531C541 -567 619 -614 675 -651C741 -615 785 -588 856 -540L908 -607C860 -633 801 -663 738 -695C809 -745 832 -758 853 -764C879 -771 879 -780 865 -787C844 -797 805 -819 785 -837C749 -797 710 -761 668 -728ZM630 -306H510C545 -349 576 -392 600 -437C733 -436 850 -434 950 -429V-502C850 -497 762 -495 631 -495C649 -524 668 -545 680 -550C696 -556 696 -568 675 -572C652 -576 618 -585 597 -593C586 -561 572 -528 555 -495C455 -496 410 -498 366 -502V-429C411 -433 455 -436 521 -437C476 -366 420 -301 360 -249C381 -234 395 -218 412 -196C428 -214 444 -231 458 -246V-112C458 -84 455 -43 450 1H534V-246H630V-50C630 -15 628 32 623 70H710C705 33 702 -15 702 -50V-246H815V-101C815 -76 800 -64 726 -66C749 -36 759 -13 763 15C876 3 891 -15 891 -92V-228C891 -252 893 -287 895 -313C840 -309 772 -307 702 -306C702 -361 705 -372 712 -378C721 -387 720 -392 707 -391C690 -390 643 -393 623 -396C627 -375 629 -343 630 -306Z"/>
</svg>