<svg xmlns="http://www.w3.org/2000/svg" viewBox="0 -1000 1000 1000">
	<path fill="#000000" d="M462 -213H404V-288H462ZM575 -213H517V-288H575ZM462 -342H404V-408H462ZM575 -342H517V-408H575ZM765 -528V-406C719 -407 684 -410 656 -415V-344C680 -349 710 -351 748 -352C699 -226 672 -172 635 -130C652 -112 671 -90 682 -70C708 -111 733 -170 765 -265V-96C765 -50 764 5 761 70H832C829 8 827 -50 827 -96V-274C862 -158 889 -109 932 -55C940 -81 954 -103 972 -122C909 -193 876 -250 841 -353C888 -352 923 -350 951 -344V-415C920 -410 881 -407 827 -406V-542C891 -557 914 -559 923 -556C936 -552 941 -559 928 -574C914 -591 905 -609 896 -634C813 -594 722 -569 628 -566C643 -549 652 -528 656 -505C684 -510 712 -516 765 -528ZM393 -116L333 -131C325 -85 302 -29 277 16L345 35C364 -9 383 -64 393 -116ZM474 4C473 -45 469 -83 462 -125L404 -121C410 -80 413 -37 411 9ZM568 -7C561 -56 552 -91 540 -130L482 -124C494 -84 500 -47 505 -2ZM675 -13C661 -61 643 -105 628 -137L568 -129C585 -88 595 -48 603 0ZM405 -536H498L457 -463C410 -463 382 -464 354 -466C374 -491 390 -512 405 -536ZM556 -747V-790C556 -802 558 -806 567 -811C580 -818 577 -825 563 -825C538 -825 509 -827 483 -831C487 -807 489 -787 489 -747C419 -748 358 -750 315 -754V-680C357 -684 419 -687 489 -688V-617H556V-688H684V-618H751V-688C828 -688 895 -685 940 -680V-754C895 -750 828 -747 751 -747V-788C751 -800 753 -804 762 -809C776 -817 773 -824 758 -823C733 -822 704 -824 678 -829C682 -807 684 -787 684 -747ZM229 -291H152V-674H229ZM152 -223H229V-137H298C294 -185 293 -224 293 -269V-464C304 -453 313 -440 321 -425C328 -434 336 -443 342 -451C344 -436 344 -420 344 -404V-217C344 -194 343 -171 341 -154C377 -156 413 -157 491 -157C568 -157 603 -156 638 -154C637 -171 636 -194 636 -216V-404C636 -426 636 -447 638 -467C608 -465 579 -464 524 -463L602 -596C577 -592 548 -591 514 -591H443C452 -602 461 -608 469 -612C485 -620 484 -628 466 -632C451 -635 436 -642 411 -655C381 -597 340 -543 293 -494V-667C293 -706 294 -725 297 -742C257 -739 229 -738 191 -738C156 -738 123 -739 81 -742C84 -721 85 -702 85 -667V-247C85 -202 83 -154 79 -115H152Z"/>
</svg>