<svg xmlns="http://www.w3.org/2000/svg" viewBox="0 -1000 1000 1000">
	<path fill="#000000" d="M621 -481H497V-574H621ZM889 -417C886 -445 884 -483 884 -525V-683C884 -720 886 -755 889 -790C828 -786 778 -784 657 -784C536 -784 489 -786 427 -790C429 -755 430 -720 430 -681V-525C430 -483 429 -446 427 -417C484 -422 535 -423 657 -423C778 -423 832 -422 889 -417ZM815 -481H690V-574H815ZM621 -630H497V-722H621ZM815 -630H690V-722H815ZM149 -596H74C82 -510 72 -409 54 -347H132C143 -422 150 -515 149 -596ZM275 -531C276 -575 276 -622 275 -670C274 -741 278 -767 298 -787C311 -800 308 -810 293 -808C265 -805 226 -810 190 -820C201 -682 202 -528 196 -387C190 -243 146 -81 50 31C82 42 115 59 134 75C180 9 215 -73 238 -174C278 -133 313 -94 352 -39L406 -115C362 -161 314 -202 252 -249C262 -311 269 -378 272 -453C361 -537 398 -566 410 -567C424 -568 425 -575 413 -583C399 -593 374 -622 360 -643C341 -608 309 -567 275 -531ZM604 -296C633 -131 739 -11 913 62C921 35 936 2 969 -26C875 -51 808 -82 760 -126C833 -193 870 -215 887 -218C901 -220 903 -229 888 -234C866 -241 825 -267 810 -282C790 -245 757 -205 721 -170C696 -205 678 -246 665 -296H817C867 -296 904 -293 935 -289V-365C903 -360 858 -358 634 -358C435 -358 386 -360 346 -365V-289C379 -293 418 -295 455 -296V-67C455 -32 442 -9 415 13C437 36 451 52 466 79C484 62 511 39 527 30L646 -46C634 -58 627 -81 622 -113C599 -95 558 -68 529 -53V-296Z"/>
</svg>