<svg xmlns="http://www.w3.org/2000/svg" viewBox="0 -1000 1000 1000">
	<path fill="#000000" d="M565 -391H488V-447H565ZM695 -391H620V-447H695ZM826 -391H748V-447H826ZM822 -690H387V-740H822ZM568 -605C515 -626 487 -635 456 -641L423 -605C473 -593 504 -582 541 -565ZM647 -189H735V-150H647ZM586 -150H495V-189H586ZM706 -69L647 -65V-104H732L690 -85C695 -80 701 -74 706 -69ZM669 -643C734 -643 790 -642 837 -641C797 -629 742 -617 689 -608C701 -592 708 -579 716 -559L698 -522C735 -518 790 -505 837 -492C794 -491 745 -490 669 -490ZM497 -265H586V-232H468C478 -243 487 -254 497 -265ZM370 -223C381 -281 384 -353 384 -643H606V-490C542 -490 496 -491 456 -493C496 -507 542 -518 585 -525C580 -536 578 -558 579 -573C524 -554 451 -541 388 -534C400 -517 408 -497 412 -476C416 -478 421 -480 425 -482C426 -462 427 -437 427 -414C427 -387 426 -361 424 -343C446 -345 465 -346 484 -346C440 -282 410 -252 370 -223ZM557 -347H777C822 -347 842 -346 886 -343C884 -361 883 -387 883 -414C883 -436 884 -459 885 -478L915 -527C844 -543 798 -552 728 -563C798 -583 859 -594 889 -596C901 -597 902 -603 894 -610C887 -616 880 -626 870 -640C878 -640 886 -639 893 -639C891 -653 890 -687 890 -715C890 -747 891 -781 893 -793C869 -789 835 -788 604 -788C374 -788 346 -789 316 -793C318 -716 319 -607 320 -418C321 -201 296 -129 175 9C203 19 217 25 246 49C309 -37 342 -100 364 -197C384 -189 394 -181 405 -169C416 -179 427 -190 437 -200V-159C437 -137 436 -115 434 -102C450 -104 467 -104 488 -104H586V-62C448 -54 402 -56 356 -62C366 -37 372 -8 374 14C395 3 416 -2 521 -11L741 -30C751 -19 759 -9 764 -1L818 -27C799 -51 773 -79 746 -104C764 -104 779 -104 795 -102C794 -118 793 -143 793 -168C793 -193 794 -218 795 -233C758 -232 705 -232 647 -232V-265H848L845 -40C844 0 832 10 739 5C771 38 781 56 786 87C896 66 906 49 907 -4L914 -316C892 -313 828 -310 771 -310H532C540 -321 548 -333 557 -347ZM215 -237V-180H286C282 -233 281 -266 281 -310V-678C281 -716 282 -735 285 -752C250 -749 219 -748 187 -748C155 -748 122 -749 84 -752C86 -732 87 -712 87 -678V-272C87 -227 86 -197 82 -141H153V-237ZM153 -294V-687H215V-294Z"/>
</svg>