<svg xmlns="http://www.w3.org/2000/svg" viewBox="0 -1000 1000 1000">
	<path fill="#000000" d="M847 -325H723V-398H847ZM152 -595L81 -596C88 -481 81 -417 60 -350L142 -346C151 -430 154 -513 152 -595ZM253 -535C255 -715 263 -786 274 -797C287 -810 284 -816 269 -817C241 -819 215 -823 181 -829C191 -690 193 -526 185 -379C176 -224 142 -99 51 7C82 22 105 37 126 56C179 -29 211 -103 230 -201C260 -147 283 -97 299 -51L362 -102C331 -173 293 -226 243 -286C248 -335 251 -390 252 -455C342 -553 376 -588 386 -591C400 -596 398 -604 389 -608C361 -621 340 -638 324 -657C310 -619 282 -575 253 -535ZM820 -609V-561H619C478 -561 431 -564 390 -571V-493C432 -500 482 -503 614 -503C759 -503 850 -499 889 -493C887 -506 886 -541 886 -572V-712C886 -744 888 -780 889 -792C851 -786 752 -781 617 -781C499 -781 436 -785 392 -792V-709C433 -716 477 -719 618 -719H820V-667H530C473 -667 446 -669 422 -675V-602C446 -607 473 -609 530 -609ZM579 -39C549 -67 514 -107 494 -138L434 -96C467 -63 493 -28 512 9ZM811 -210V-270C854 -270 885 -269 907 -268C907 -292 906 -327 906 -362C906 -397 907 -433 907 -456C880 -454 842 -453 787 -453C729 -453 693 -454 662 -456C664 -433 666 -397 666 -362C666 -328 665 -293 662 -268C683 -269 706 -270 737 -270V-210H513C437 -210 383 -214 356 -220V-143C381 -147 444 -149 513 -149H737V-57C737 -16 725 -11 626 -17C650 15 658 39 662 71C790 58 811 30 811 -22V-149C871 -149 935 -146 955 -142V-220C934 -214 871 -210 811 -210ZM531 -317V-398C553 -398 593 -393 614 -388V-463C587 -457 550 -454 501 -454C449 -454 405 -457 379 -463V-388C399 -394 431 -397 469 -397V-311C425 -308 388 -307 345 -311C356 -282 360 -262 364 -236C442 -255 546 -268 633 -274C632 -297 632 -316 634 -333C604 -327 569 -321 531 -317Z"/>
</svg>