<svg xmlns="http://www.w3.org/2000/svg" viewBox="0 -1000 1000 1000">
	<path fill="#000000" d="M136 -609L65 -610C72 -495 65 -431 44 -364L126 -360C135 -444 138 -527 136 -609ZM256 -555C258 -687 267 -787 277 -797C290 -810 287 -816 272 -817C244 -819 218 -823 184 -829C194 -690 194 -540 186 -393C176 -215 116 -62 36 3C67 18 90 33 111 52C172 -29 211 -120 232 -225C266 -178 296 -126 318 -83L384 -146C339 -208 301 -250 245 -306C251 -360 255 -420 256 -486C345 -585 368 -603 378 -606C392 -610 391 -618 383 -622C355 -636 334 -654 318 -674C300 -628 283 -595 256 -555ZM471 -110L401 -128C395 -76 370 6 340 41L421 65C439 16 459 -52 471 -110ZM617 36C614 -5 605 -70 596 -113L530 -111C537 -68 541 -9 538 41ZM957 27C938 -18 894 -104 869 -142L807 -115C830 -72 864 10 879 57ZM777 26C769 -16 749 -86 737 -123L675 -114C686 -75 696 -18 700 36ZM767 -741C755 -765 735 -810 729 -831L635 -802C647 -776 662 -735 668 -713ZM504 -337H647V-246H504ZM504 -480H647V-392H504ZM504 -627H647V-534H504ZM434 -549V-353C434 -300 429 -212 423 -163H504V-189H692C847 -189 885 -186 923 -182V-251C890 -248 851 -246 717 -246V-337C826 -337 856 -335 887 -330V-397C858 -394 821 -392 717 -392V-480C819 -480 855 -478 885 -475V-540C858 -536 816 -534 717 -534V-627C830 -627 889 -624 920 -620V-696C893 -691 826 -686 692 -686H503C537 -758 558 -789 572 -798C586 -806 590 -819 572 -821C546 -824 512 -832 490 -842C484 -809 463 -745 449 -711C415 -626 362 -552 312 -495C333 -482 356 -456 365 -438C392 -477 410 -506 434 -549Z"/>
</svg>