<svg xmlns="http://www.w3.org/2000/svg" viewBox="0 -1000 1000 1000">
	<path fill="#000000" d="M142 -590L64 -589C72 -516 64 -408 49 -337L120 -332C134 -428 139 -506 142 -590ZM519 -580C502 -611 488 -646 480 -674L410 -649C426 -625 446 -585 457 -558ZM830 -668C799 -675 776 -686 752 -701C746 -670 734 -636 705 -580C723 -577 744 -569 757 -558C795 -617 813 -638 829 -646C849 -656 848 -665 830 -668ZM254 -520C255 -570 257 -627 258 -690C259 -764 262 -776 275 -789C288 -802 282 -809 268 -808C242 -806 210 -807 176 -812C186 -668 191 -512 185 -409C173 -212 123 -57 48 10C75 22 106 40 127 56C172 -27 201 -89 220 -169C245 -129 266 -93 295 -40L364 -89C320 -147 288 -186 235 -251C242 -301 247 -360 250 -433C318 -511 367 -558 375 -561C388 -565 388 -573 380 -577C364 -585 334 -609 318 -629C300 -587 283 -557 254 -520ZM430 -333C491 -381 525 -427 554 -491H579C579 -447 578 -415 574 -360H650C646 -415 645 -447 645 -491H681C699 -432 745 -380 824 -333ZM780 -40H654V-133H780ZM470 18H780V63H854C850 29 849 -13 849 -69V-319C868 -309 889 -299 911 -289C919 -317 937 -348 958 -371C848 -385 794 -420 734 -491C810 -490 879 -488 919 -483V-556C864 -550 751 -548 645 -548V-711C684 -716 725 -722 768 -729C802 -734 850 -737 883 -734C899 -733 903 -747 887 -762C865 -782 844 -809 831 -834C804 -819 757 -799 708 -789C599 -766 442 -747 346 -744C361 -726 373 -702 375 -680C438 -685 505 -692 579 -702V-548C494 -549 437 -551 385 -556V-483C421 -488 457 -490 503 -491C447 -422 373 -357 275 -312C296 -298 314 -280 323 -261C352 -278 377 -294 399 -310V-56C399 0 398 34 394 71H470ZM470 -133H589V-40H470ZM589 -276V-190H470V-276ZM780 -190H654V-276H780Z"/>
</svg>