<svg xmlns="http://www.w3.org/2000/svg" viewBox="0 -1000 1000 1000">
	<path fill="#000000" d="M479 -318L414 -344C392 -307 356 -269 319 -238L388 -202C423 -242 456 -282 479 -318ZM924 -234C898 -274 871 -307 841 -340L775 -319C807 -282 831 -248 856 -206ZM619 -233C612 -267 600 -309 587 -337L520 -326C534 -287 542 -254 545 -219ZM758 -231C750 -262 736 -302 721 -337L655 -326C669 -293 679 -255 681 -221ZM153 -595L81 -604C79 -525 66 -437 49 -370L125 -360C139 -438 148 -521 153 -595ZM798 -641H667V-698H798ZM667 -525V-582H798V-525ZM659 -145V-16H594V-145ZM793 -16H719V-145H793ZM401 -17C369 -17 342 -19 305 -25V55C356 48 415 45 624 45C837 45 896 48 948 55V-25C918 -21 886 -18 869 -18V-133C869 -152 870 -181 871 -202C821 -200 759 -199 634 -199C510 -199 447 -200 399 -202C401 -183 401 -152 401 -133ZM534 -145V-16H468V-145ZM258 -530C257 -748 262 -797 277 -811C288 -822 286 -828 273 -828C244 -828 217 -832 182 -838C190 -687 193 -540 186 -367C179 -203 123 -95 39 18C70 26 93 37 115 56C173 -32 210 -114 231 -206C257 -166 275 -129 298 -76L369 -118C334 -177 294 -235 247 -296C253 -340 256 -389 257 -443C283 -467 309 -494 329 -519C344 -538 360 -556 368 -558C383 -563 386 -569 374 -576C412 -580 454 -582 494 -582H596V-525C467 -525 439 -525 410 -530V-461C441 -464 468 -465 596 -465V-418C484 -418 409 -420 343 -424V-352C415 -356 501 -359 635 -359C768 -359 856 -356 928 -352V-424C862 -420 782 -418 667 -418V-465C806 -465 837 -464 869 -461C866 -477 864 -507 864 -532V-581C893 -579 922 -577 948 -573V-650C922 -646 893 -644 864 -642V-689C864 -715 866 -746 869 -761C839 -757 808 -756 667 -756V-785C667 -808 670 -812 683 -822C692 -829 690 -837 677 -836C661 -835 616 -837 590 -842C592 -823 596 -775 596 -756C477 -756 441 -757 411 -761V-692C441 -697 473 -698 596 -698V-641H494C446 -641 396 -644 353 -650V-588C339 -598 323 -612 309 -626C296 -588 281 -559 258 -530Z"/>
</svg>