<svg xmlns="http://www.w3.org/2000/svg" viewBox="0 -1000 1000 1000">
	<path fill="#000000" d="M452 -463C429 -313 360 -238 246 -182C274 -173 308 -148 324 -128C410 -187 467 -264 497 -329C556 -279 636 -200 681 -144L755 -205C694 -259 591 -337 518 -391C523 -411 527 -435 530 -463C628 -463 697 -459 751 -452V-534C699 -528 630 -526 536 -526C538 -541 539 -556 540 -573C543 -613 548 -626 563 -639C577 -651 573 -658 560 -656C538 -653 495 -656 457 -666C461 -617 462 -572 459 -526C378 -527 316 -529 269 -534V-453C315 -459 375 -462 452 -463ZM218 -78V-697H808V-78ZM808 -4V51H902C896 -7 894 -57 894 -116V-673C894 -711 897 -755 902 -783C855 -777 782 -773 513 -773C241 -773 169 -777 125 -783C130 -756 132 -713 132 -673V-102C132 -40 130 5 123 64H218V-4Z"/>
</svg>