<svg xmlns="http://www.w3.org/2000/svg" viewBox="0 -1000 1000 1000">
	<path fill="#000000" d="M896 -445C911 -456 910 -466 888 -464C870 -462 830 -464 806 -466C812 -438 818 -387 818 -312V-49C818 -6 810 0 732 -8C750 19 761 46 763 71C867 61 886 46 886 -23V-409C886 -428 887 -438 896 -445ZM763 -416C780 -425 775 -437 760 -435C737 -433 716 -434 685 -440C688 -416 691 -372 691 -333V-176C691 -138 689 -103 685 -54H762C759 -99 756 -138 756 -176V-387C756 -401 759 -412 763 -416ZM573 -126V-45C573 -8 567 -2 509 -13C520 12 526 33 526 59C623 51 638 37 638 -24V-387C638 -421 640 -453 642 -470C613 -466 562 -464 518 -464C469 -464 439 -466 406 -470C409 -451 411 -421 411 -387V-88C411 -48 408 6 403 59H476V-126ZM476 -326V-408H573V-326ZM573 -270V-182H476V-270ZM521 -595C552 -627 593 -676 637 -735C665 -689 704 -640 749 -596C719 -592 675 -590 629 -590C586 -590 549 -592 521 -595ZM186 -492C300 -492 342 -491 360 -488V-498C366 -491 372 -483 378 -473C426 -508 464 -539 498 -572V-523C527 -528 573 -531 629 -531C685 -531 738 -528 767 -523V-579C812 -537 862 -500 913 -475C932 -512 946 -532 968 -551C843 -594 742 -678 676 -778C681 -781 685 -783 687 -784C706 -789 708 -802 689 -804C664 -807 630 -815 602 -825C547 -707 472 -623 360 -550V-560C350 -557 336 -556 320 -555V-771C320 -787 325 -799 339 -806C349 -812 346 -822 332 -821C307 -820 280 -821 249 -828C252 -803 255 -758 255 -719V-554H186C188 -730 191 -749 208 -769C217 -780 215 -784 201 -783C176 -781 141 -782 111 -788C115 -726 116 -689 117 -526C120 -210 95 -87 47 -6C73 11 93 28 111 54C153 -46 174 -133 182 -314H267V51H343C338 7 337 -21 337 -70V-380H184C185 -414 186 -451 186 -492Z"/>
</svg>