<svg xmlns="http://www.w3.org/2000/svg" viewBox="0 -1000 1000 1000">
	<path fill="#000000" d="M257 -529H172C172 -702 174 -742 181 -751C190 -763 191 -771 172 -770C149 -768 131 -768 102 -773C106 -713 107 -625 106 -505C104 -182 102 -120 52 19C75 35 92 53 109 79C150 -37 165 -121 170 -293H268V-56C268 -7 267 23 264 62H343C341 23 340 -8 340 -56V-290C340 -316 340 -343 343 -356C321 -353 301 -353 271 -353H171C172 -388 172 -426 172 -468H305C365 -468 381 -467 401 -464V-533C383 -530 358 -529 323 -529V-757C323 -777 328 -788 341 -795C356 -804 352 -816 333 -816C308 -816 286 -818 255 -824C257 -798 257 -764 257 -709ZM624 -562C605 -603 597 -626 591 -654L520 -632C536 -597 542 -576 546 -546ZM649 -342C511 -342 438 -345 394 -350V-273C427 -277 497 -281 545 -281C543 -228 536 -187 526 -151C507 -83 464 -24 353 16C382 34 399 51 414 73C531 7 570 -36 596 -136H794C790 -20 783 -12 668 -14C697 24 705 46 708 70C815 51 832 43 850 11C861 -9 865 -32 881 -205C853 -201 826 -199 725 -199H609C613 -227 617 -254 618 -282C762 -282 903 -277 954 -273V-350C898 -345 807 -342 735 -342C719 -387 709 -411 691 -449L603 -436C619 -407 631 -384 649 -342ZM769 -532C812 -607 821 -618 830 -623C842 -630 840 -639 826 -641C797 -646 780 -649 748 -660C742 -623 729 -586 700 -531C529 -531 481 -533 425 -538V-395H494V-473H860V-404H932V-538C902 -535 833 -532 769 -532ZM641 -730C542 -730 465 -734 407 -740V-660C469 -667 554 -670 676 -670C797 -670 881 -667 943 -660V-740C890 -734 807 -730 728 -730C716 -770 708 -792 693 -829L607 -814C622 -784 632 -758 641 -730Z"/>
</svg>