<svg xmlns="http://www.w3.org/2000/svg" viewBox="0 -1000 1000 1000">
	<path fill="#000000" d="M238 -442C176 -353 104 -287 28 -239C57 -218 78 -194 91 -166C152 -225 202 -282 249 -346C252 -302 252 -253 249 -199C241 -30 208 -20 110 -41C135 -13 150 35 153 71C285 33 311 -12 320 -159C331 -342 305 -518 259 -621C326 -687 345 -702 361 -705C376 -708 378 -718 365 -725C338 -737 314 -757 293 -783C267 -746 243 -715 219 -687C191 -722 148 -762 108 -788L54 -736C101 -708 141 -673 169 -633C131 -596 91 -566 44 -535C68 -518 90 -492 101 -464C143 -505 176 -538 204 -567C218 -533 230 -491 238 -442ZM809 -466V-93C809 -32 806 11 804 69H888C885 11 883 -32 883 -93V-464C912 -464 938 -462 961 -457V-541C925 -535 878 -532 823 -532H713V-698C755 -702 803 -708 854 -718C909 -728 922 -729 935 -728C953 -727 956 -732 941 -747C915 -776 902 -795 892 -822C826 -775 716 -757 634 -763C641 -675 643 -618 644 -476C646 -177 629 -82 553 33C579 48 601 65 620 87C693 -51 712 -145 713 -466ZM453 -339C414 -324 375 -312 339 -302C356 -273 367 -240 374 -209C401 -227 426 -241 453 -255V-51C453 -20 446 -17 375 -24C401 17 409 39 411 77C508 56 527 42 527 -19V-291C553 -303 583 -316 618 -331C612 -356 610 -383 612 -414C587 -399 558 -384 527 -370V-532C564 -532 598 -529 618 -525V-606C598 -602 564 -600 527 -600V-761C527 -779 530 -787 542 -798C559 -815 555 -826 530 -825C508 -824 472 -826 444 -832C449 -802 453 -696 453 -599C409 -599 366 -602 343 -606V-525C368 -530 409 -533 453 -533Z"/>
</svg>