<svg xmlns="http://www.w3.org/2000/svg" viewBox="0 -1000 1000 1000">
	<path fill="#000000" d="M849 -402C912 -400 930 -398 955 -394V-475C923 -469 838 -466 655 -466C463 -466 402 -469 359 -475V-394C398 -400 434 -403 497 -403H766V-62C766 -6 759 -2 651 -9C674 19 687 56 689 85C842 65 849 57 849 -56ZM585 -672C562 -615 499 -568 396 -541C422 -524 438 -502 449 -477C535 -516 598 -558 634 -613C702 -573 770 -526 837 -473L899 -536C823 -581 748 -622 660 -666L662 -672C845 -672 872 -671 921 -665V-744C873 -737 795 -733 675 -733C686 -779 697 -802 709 -813C720 -824 717 -829 706 -829C685 -829 633 -833 605 -839C607 -806 605 -782 598 -733C496 -734 448 -737 403 -743V-664C446 -669 482 -671 585 -672ZM607 -154H469V-270H607ZM469 -97H607V-56H686C680 -83 678 -108 678 -142V-279C678 -308 680 -326 684 -340C660 -335 614 -332 540 -332C463 -332 418 -335 391 -340C396 -321 398 -303 398 -279V-116C398 -82 396 -57 391 -30H469ZM246 -489C186 -396 126 -330 48 -278C65 -255 77 -234 88 -206C159 -272 211 -334 257 -409C262 -348 260 -277 253 -191C244 -75 225 -63 103 -64C127 -30 138 3 142 37C298 7 309 -13 324 -197C341 -407 325 -518 262 -629C284 -652 305 -675 326 -699C359 -737 376 -752 394 -756C410 -759 408 -765 396 -770C365 -783 340 -795 311 -813C285 -767 257 -725 224 -686C196 -725 166 -761 137 -789L83 -743C117 -717 150 -679 178 -638C146 -607 109 -578 66 -551C83 -533 97 -515 108 -492C154 -526 178 -548 213 -581C227 -553 238 -522 246 -489Z"/>
</svg>