<svg xmlns="http://www.w3.org/2000/svg" viewBox="0 -1000 1000 1000">
	<path fill="#000000" d="M824 -566H481V-671H824ZM238 -485C174 -390 126 -340 44 -280C67 -261 86 -241 98 -220C167 -286 206 -327 251 -395C256 -340 257 -277 252 -207C242 -52 209 -29 111 -50C136 -22 148 20 153 54C293 18 309 -27 321 -172C334 -325 325 -502 256 -636C271 -651 283 -664 296 -677C343 -724 365 -741 377 -744C394 -747 393 -751 380 -759C349 -777 334 -789 312 -811C283 -772 252 -733 219 -697C194 -732 169 -760 129 -795L78 -740C118 -709 142 -687 170 -646C130 -608 91 -576 45 -546C66 -528 79 -505 89 -479C137 -520 173 -553 206 -586C219 -557 230 -523 238 -485ZM837 -90V-48C837 -9 822 -1 740 -14C756 12 767 42 769 73C892 57 906 40 906 -22V-349C906 -384 907 -415 909 -431C864 -429 782 -428 718 -428C655 -428 563 -429 517 -431C519 -415 520 -384 520 -349V-78C520 -37 517 14 512 69H591V-90ZM591 -285V-367H837V-285ZM837 -226V-146H591V-226ZM630 -731C499 -731 431 -733 403 -738C412 -569 409 -429 404 -320C397 -185 353 -50 277 33C315 40 337 52 357 71C451 -78 481 -235 481 -505H763C856 -505 884 -503 902 -499C900 -533 898 -577 898 -619C898 -662 899 -705 902 -738C885 -735 810 -732 718 -731C711 -772 703 -808 693 -842L601 -828C612 -802 623 -767 630 -731Z"/>
</svg>