<svg xmlns="http://www.w3.org/2000/svg" viewBox="0 -1000 1000 1000">
	<path fill="#000000" d="M244 -501C180 -385 126 -318 51 -250C68 -227 85 -197 94 -171C145 -227 206 -318 254 -406C259 -320 256 -218 242 -106C233 -32 207 -15 127 -25C143 6 154 38 158 74C273 54 305 18 314 -93C335 -357 319 -525 268 -638C290 -663 313 -690 336 -719C348 -734 365 -747 378 -750C389 -752 389 -757 381 -761C362 -771 325 -801 301 -821C282 -782 257 -742 228 -703C202 -738 167 -773 126 -806L77 -754C111 -728 144 -695 182 -647C141 -602 96 -560 46 -525C63 -509 77 -490 93 -464C126 -491 156 -517 221 -586C230 -563 238 -534 244 -501ZM721 -529H831L797 -452L867 -429L928 -592C894 -588 838 -586 716 -585C831 -696 847 -704 868 -706V-780C834 -775 777 -773 642 -773C541 -773 455 -777 418 -780V-709C465 -713 493 -715 540 -715H756L655 -607C620 -637 585 -666 555 -688L504 -643C530 -630 562 -610 594 -585C476 -585 414 -587 372 -591V-526C418 -528 482 -529 580 -529C513 -449 448 -398 365 -364C388 -353 403 -341 427 -314C531 -378 594 -448 636 -529H652V-417C652 -383 642 -379 570 -389C586 -366 595 -342 597 -320C706 -330 721 -338 721 -390ZM540 -199C474 -103 399 -42 307 -6C328 13 351 42 361 59C457 2 546 -94 590 -199H596V0C596 25 594 54 591 83H660C658 56 657 25 657 0V-199H675C697 -79 780 8 896 54C902 21 916 -7 947 -39C844 -57 787 -93 715 -199C831 -198 881 -196 907 -193V-264C847 -258 770 -255 658 -255C659 -271 662 -285 667 -288C681 -296 680 -305 663 -305C646 -305 609 -306 592 -308C593 -296 595 -276 595 -255C495 -256 423 -259 366 -264V-193C387 -196 436 -198 540 -199Z"/>
</svg>