<svg xmlns="http://www.w3.org/2000/svg" viewBox="0 -1000 1000 1000">
	<path fill="#000000" d="M245 -447C181 -358 117 -292 45 -245C69 -229 89 -208 101 -185C161 -242 211 -296 256 -357C261 -304 262 -246 259 -184C251 -18 215 -3 123 -23C148 5 164 47 169 81C299 31 321 5 330 -145C341 -336 315 -532 259 -636C330 -700 354 -716 369 -719C385 -722 385 -738 371 -744C339 -759 324 -770 303 -795C276 -756 249 -723 222 -694C190 -735 154 -774 124 -800L73 -749C109 -722 143 -687 171 -645C133 -613 95 -586 48 -557C70 -537 85 -509 94 -481C138 -523 174 -557 205 -586C222 -550 235 -503 245 -447ZM553 -481V-494C553 -509 555 -515 565 -519C583 -528 581 -541 557 -540C534 -539 507 -540 483 -544C485 -532 487 -506 487 -481C440 -481 410 -483 381 -486V-420C407 -424 439 -425 487 -425V-343C442 -340 397 -339 359 -340C369 -309 371 -289 370 -269C461 -290 539 -299 628 -302C625 -318 625 -340 627 -361C605 -357 580 -353 553 -350V-424C589 -424 619 -423 641 -420V-486C620 -484 590 -482 553 -481ZM826 -485V-499C826 -511 830 -516 834 -518C847 -525 846 -540 827 -539C800 -538 779 -539 755 -543C757 -531 758 -509 759 -485C719 -486 690 -488 663 -490V-425C689 -428 718 -429 759 -430V-349C710 -349 680 -351 649 -354V-289C684 -292 721 -294 787 -294C853 -294 894 -292 929 -289V-354C901 -351 870 -350 826 -349V-430C871 -430 903 -428 930 -425V-490C902 -488 870 -486 826 -485ZM528 -178C503 -70 462 -35 331 0C352 22 362 43 369 71C517 16 569 -36 601 -179H677V-19C677 33 695 48 799 48C915 48 932 37 967 -62C935 -70 920 -78 894 -99C880 -34 862 -18 812 -18C758 -18 752 -24 752 -50V-179C828 -179 896 -175 938 -170V-248C901 -243 824 -240 661 -240C509 -240 411 -243 376 -248V-170C427 -175 479 -178 528 -178ZM614 -679V-613C487 -614 408 -616 377 -620V-544C440 -552 483 -553 546 -553H792C874 -553 911 -551 953 -544V-620C918 -615 845 -613 689 -613V-679C790 -679 857 -676 916 -671V-749C857 -743 790 -740 689 -739V-783C689 -801 692 -809 697 -813C710 -822 709 -828 697 -828C668 -828 646 -830 611 -836C614 -815 614 -804 614 -739C518 -740 449 -743 391 -749V-671C447 -676 518 -678 614 -679Z"/>
</svg>