<svg xmlns="http://www.w3.org/2000/svg" viewBox="0 -1000 1000 1000">
	<path fill="#000000" d="M283 -152V-388C334 -388 362 -386 396 -380V-464C362 -459 334 -456 283 -455V-676C341 -675 372 -673 410 -668V-750C367 -744 332 -742 253 -742C173 -742 114 -745 70 -750V-668C104 -672 149 -675 207 -675V-455C151 -456 110 -459 75 -464V-380C110 -385 150 -388 207 -389V-129C141 -111 97 -103 48 -101C71 -64 79 -29 79 4C176 -43 311 -93 423 -127C416 -151 415 -174 419 -207C362 -179 337 -169 283 -152ZM727 -247V-399C808 -398 880 -394 925 -388V-474C880 -468 808 -465 727 -465V-609C819 -608 893 -605 946 -599V-685C893 -679 819 -675 727 -675V-737C727 -786 732 -806 738 -811C751 -822 747 -831 732 -831C698 -831 670 -833 642 -838C646 -817 650 -757 650 -675C562 -676 492 -679 441 -685V-599C491 -605 562 -608 650 -609V-465C573 -466 505 -469 461 -475V-387C504 -393 572 -397 650 -399V-247C552 -248 485 -251 427 -257V-168C484 -174 552 -177 650 -178C650 -65 646 26 640 81H735C730 27 727 -65 727 -178C832 -177 906 -174 966 -168V-257C906 -251 832 -248 727 -247Z"/>
</svg>