<svg xmlns="http://www.w3.org/2000/svg" viewBox="0 -1000 1000 1000">
	<path fill="#000000" d="M727 -622H521L544 -686H748ZM687 -504C541 -504 451 -506 371 -514V-438C433 -443 497 -446 600 -447C516 -392 432 -357 343 -331C366 -308 377 -293 385 -271C465 -303 522 -329 580 -366C586 -360 591 -355 597 -349C540 -284 450 -225 350 -188C371 -169 385 -151 396 -131C479 -172 572 -242 629 -313C643 -295 654 -278 662 -260C571 -165 434 -62 319 -17C347 3 367 26 374 45C498 -16 597 -101 679 -205C683 -181 684 -154 682 -122C677 -29 639 -6 549 -21C566 13 572 32 575 67C701 54 752 19 754 -99C755 -161 749 -213 733 -259C744 -266 754 -273 764 -279C785 -167 851 -45 911 7C927 -25 944 -48 971 -69C896 -133 836 -200 812 -308C865 -338 883 -341 909 -339C926 -337 933 -349 914 -358C881 -374 859 -392 834 -420C805 -384 771 -353 711 -306C691 -341 665 -371 629 -400C647 -414 666 -429 686 -447C799 -446 882 -443 946 -438V-514C897 -510 837 -507 762 -505L849 -752C830 -749 779 -746 733 -746H565C577 -775 590 -795 604 -805C613 -812 611 -820 602 -819C576 -817 536 -822 500 -833C499 -794 491 -751 484 -729C459 -648 439 -604 412 -558C434 -563 482 -566 522 -566H708ZM252 -134V-382C297 -382 329 -379 356 -374V-462C329 -458 297 -455 252 -454V-677C308 -676 347 -673 379 -668V-756C341 -751 293 -748 219 -748C145 -748 98 -751 59 -756V-668C90 -673 127 -676 179 -677V-454C130 -455 97 -457 66 -462V-374C95 -379 130 -382 179 -383V-118C122 -106 77 -99 50 -97C68 -69 78 -33 79 5C133 -22 252 -65 364 -100C359 -122 358 -141 360 -167C343 -158 303 -146 252 -134Z"/>
</svg>