<svg xmlns="http://www.w3.org/2000/svg" viewBox="0 -1000 1000 1000">
	<path fill="#000000" d="M815 -219H491V-279H815ZM803 -561H501V-612H803ZM880 -495C876 -534 874 -589 874 -642C874 -697 876 -750 880 -788C820 -782 768 -779 654 -779C539 -779 487 -782 428 -788C431 -753 433 -693 433 -642C433 -586 432 -539 428 -495C486 -500 539 -503 654 -503C767 -503 820 -500 880 -495ZM803 -669H501V-723H803ZM254 -153V-394C293 -393 319 -390 344 -386V-469C319 -465 293 -463 254 -462V-685C307 -684 345 -681 377 -676V-756C339 -751 292 -748 220 -748C147 -748 101 -751 63 -756V-676C93 -681 130 -684 182 -685V-461C132 -462 100 -465 70 -469V-386C99 -391 132 -394 182 -395V-139C125 -128 79 -122 42 -121C59 -92 68 -63 68 -25C123 -50 265 -94 378 -121C374 -143 373 -162 376 -188C353 -177 306 -164 254 -153ZM955 -10C921 -40 842 -100 794 -131L732 -90C770 -74 860 9 883 43ZM537 -106C514 -112 492 -125 473 -141C440 -86 372 -32 297 4C324 12 362 32 379 49C406 28 440 -2 476 -37C500 -61 523 -80 533 -85C552 -95 550 -103 537 -106ZM685 -165C768 -165 842 -164 888 -161C884 -181 882 -218 882 -248C882 -283 884 -314 888 -336C831 -332 769 -329 653 -329C539 -329 474 -331 416 -336C420 -316 422 -280 422 -249C422 -217 420 -187 416 -161C458 -164 535 -165 614 -165V-38C614 -2 598 7 523 -7C542 30 550 56 548 81C672 73 685 53 685 -4ZM613 -435C498 -436 431 -439 362 -444V-370C438 -376 511 -379 649 -379C787 -379 873 -376 949 -370V-444C881 -439 805 -436 690 -435C683 -459 679 -478 677 -496L589 -483C600 -466 607 -451 613 -435Z"/>
</svg>