<svg xmlns="http://www.w3.org/2000/svg" viewBox="0 -1000 1000 1000">
	<path fill="#000000" d="M246 -136V-389C284 -388 306 -386 332 -381V-461C306 -457 284 -455 246 -453V-683C293 -682 319 -679 350 -674V-760C312 -754 281 -752 207 -752C134 -752 102 -754 63 -760V-674C95 -679 123 -682 173 -683V-453C127 -454 104 -456 75 -461V-381C104 -387 127 -389 173 -390V-122C127 -114 87 -111 59 -112C77 -82 85 -50 85 -12C138 -37 251 -76 363 -107C359 -129 358 -145 361 -171C326 -157 291 -147 246 -136ZM601 -122C573 -135 559 -143 532 -164C496 -110 417 -38 328 12C361 29 379 43 401 66C554 -74 578 -92 595 -98C611 -103 613 -116 601 -122ZM940 -3C881 -57 819 -107 745 -162L691 -110C753 -69 819 -10 874 56ZM450 -602V-694C489 -703 523 -706 539 -704C552 -702 556 -707 546 -721C535 -737 523 -761 515 -783C480 -763 419 -747 380 -746C384 -721 385 -699 385 -604V-250C367 -250 352 -251 331 -253V-179C378 -183 428 -185 646 -185C867 -185 898 -185 949 -181V-257C930 -254 913 -252 897 -251V-636C897 -696 899 -740 904 -766C886 -764 872 -763 826 -763C782 -763 761 -764 744 -766V-691C768 -695 807 -697 830 -697V-602C789 -602 762 -603 749 -606V-531C763 -535 789 -536 830 -536V-434C790 -434 761 -435 748 -438V-364C764 -367 788 -369 830 -369V-249H723V-470C723 -521 725 -543 730 -561C712 -557 697 -556 675 -556H635V-656C686 -656 707 -654 721 -651V-722C708 -719 688 -718 635 -718V-780C635 -793 637 -801 644 -809C656 -822 650 -832 635 -830C613 -827 589 -828 569 -833C572 -811 573 -788 573 -763V-543C573 -523 571 -508 568 -494C585 -497 603 -499 624 -499H664V-249H611V-400C611 -426 613 -436 618 -442C627 -453 625 -460 614 -458C604 -456 574 -460 550 -466C552 -443 552 -420 552 -358V-249H450V-368C490 -368 513 -366 527 -363V-440C514 -437 489 -436 450 -436V-536C494 -536 521 -534 536 -531V-606C522 -603 493 -602 450 -602Z"/>
</svg>