<svg xmlns="http://www.w3.org/2000/svg" viewBox="0 -1000 1000 1000">
	<path fill="#000000" d="M813 -538H707V-591H813ZM549 -540H450V-591H549ZM570 -265V-305H697V-265ZM697 -394V-358H570V-394ZM582 -212H628C654 -149 688 -96 726 -55C773 -6 817 22 904 53C913 29 926 7 958 -23C881 -36 831 -51 791 -82C859 -127 875 -133 893 -135C908 -136 909 -141 895 -151C868 -166 854 -180 839 -202C807 -169 786 -151 747 -126C715 -163 699 -186 687 -212H756C809 -212 885 -209 930 -206V-272C886 -268 814 -265 764 -265V-305C803 -304 836 -302 868 -298V-365C836 -361 803 -359 764 -358V-394C809 -393 862 -390 900 -387V-454C862 -451 809 -449 764 -448V-496C815 -496 850 -495 876 -493C875 -511 874 -541 874 -567C874 -592 875 -622 876 -639C848 -638 811 -637 756 -637C704 -637 674 -638 647 -639C648 -622 649 -592 649 -567C649 -542 649 -511 647 -494C662 -495 677 -495 697 -495V-448H570V-493C585 -492 597 -491 609 -490C608 -509 608 -538 608 -567C608 -595 608 -624 609 -642C583 -640 556 -639 505 -639C453 -639 413 -640 387 -642C389 -624 391 -595 391 -567C391 -539 389 -512 387 -491C414 -493 452 -494 503 -494V-448C457 -449 407 -451 368 -454V-387C407 -391 457 -394 503 -394V-358C461 -358 427 -360 392 -365V-298C425 -302 462 -305 503 -305V-265C448 -265 392 -268 352 -272V-206C391 -209 447 -211 501 -212C443 -150 365 -99 287 -63C310 -47 326 -28 337 -5C396 -44 447 -82 491 -119V-37C491 -14 483 -2 456 13C482 34 499 53 510 73C532 56 571 30 585 23L663 -16C656 -32 652 -62 653 -91C624 -68 596 -52 556 -34V-182C565 -192 574 -202 582 -212ZM597 -737C487 -738 402 -741 362 -744V-673C400 -676 505 -679 633 -679C775 -679 879 -676 916 -673V-744C885 -741 802 -738 687 -737C668 -773 654 -806 644 -834L562 -812C578 -785 589 -762 597 -737ZM251 -160V-388C285 -387 311 -384 331 -380V-460C311 -456 285 -454 251 -453V-684C292 -683 317 -680 342 -675V-755C310 -750 279 -747 216 -747C151 -747 105 -750 73 -755V-675C98 -680 133 -683 180 -684V-452C136 -453 108 -456 83 -460V-380C107 -385 136 -388 180 -389V-138C133 -125 91 -116 67 -114C83 -85 90 -57 90 -20C151 -54 262 -96 358 -127C354 -149 352 -173 354 -199C324 -186 288 -173 251 -160Z"/>
</svg>