<svg xmlns="http://www.w3.org/2000/svg" viewBox="0 -1000 1000 1000">
	<path fill="#000000" d="M644 -308H508V-341H644ZM697 -265C696 -285 697 -305 697 -324C697 -345 697 -364 698 -385C672 -383 621 -381 571 -381C523 -381 480 -383 456 -385C457 -361 457 -343 457 -324C457 -305 457 -287 456 -266C479 -267 520 -267 571 -267C620 -267 672 -266 697 -265ZM712 -406L711 -462C673 -457 646 -455 572 -455C501 -455 474 -457 434 -462L435 -403C474 -407 501 -408 573 -408C647 -408 673 -408 712 -406ZM938 -615C924 -673 916 -700 894 -753L840 -731C858 -683 869 -642 878 -592ZM527 -125C518 -126 510 -127 502 -129V-83C516 -86 528 -87 548 -88V-42C548 -31 547 -18 545 -6H598C597 -18 596 -31 596 -42V-87C614 -87 627 -85 637 -83V-129C630 -127 623 -126 614 -125C626 -149 633 -159 637 -161C649 -166 646 -172 638 -173C626 -175 611 -180 592 -189C589 -167 584 -143 578 -124H566C558 -145 550 -169 545 -186L505 -165C513 -153 520 -141 527 -125ZM505 -594L417 -587C417 -605 417 -622 417 -636H505ZM767 -492C767 -279 747 -152 710 -70V-180C710 -209 711 -229 712 -249C675 -244 658 -243 561 -243C497 -243 473 -244 433 -248C433 -236 434 -217 434 -183V-42C434 -17 433 9 431 35H488V-197H658V-93C658 -58 646 -54 613 -60C622 -40 625 -25 625 0C649 -3 666 -8 679 -15C664 4 648 21 631 35C664 50 682 60 701 76C773 -16 798 -96 820 -375C832 -179 855 -51 909 61C930 34 948 19 976 6C921 -81 872 -215 850 -492C899 -492 919 -491 932 -488V-560C915 -557 891 -555 824 -555C823 -732 830 -788 843 -802C851 -811 849 -815 839 -815C817 -815 791 -819 756 -828C763 -801 766 -751 767 -555C731 -556 720 -557 708 -560V-489C724 -491 742 -492 767 -492ZM242 -171V-395C275 -394 303 -390 324 -386V-468C303 -464 275 -461 242 -460V-675C282 -675 318 -672 338 -667V-749C312 -744 261 -741 207 -741C152 -741 100 -744 71 -749V-667C93 -672 130 -675 172 -675V-459C136 -461 105 -464 83 -468V-386C105 -391 136 -394 172 -395V-149C134 -138 96 -129 57 -121C75 -90 88 -60 91 -30C144 -67 218 -99 333 -128C316 -67 289 -26 246 15C275 25 297 39 313 57C397 -73 410 -163 416 -361C418 -402 418 -474 417 -539L505 -547C505 -492 513 -483 555 -475C573 -472 587 -472 623 -473C675 -475 686 -488 701 -547C679 -551 664 -557 645 -569C646 -534 636 -522 605 -520C567 -518 562 -523 561 -551C592 -553 612 -554 618 -553C630 -552 632 -554 628 -565C625 -574 624 -592 625 -611C605 -605 586 -601 561 -599V-636H666L647 -591L707 -581L734 -696C695 -690 644 -687 561 -686V-723H625C648 -723 669 -722 683 -720V-778C668 -775 649 -774 625 -774H561C561 -794 565 -803 575 -812C584 -821 579 -827 565 -826C542 -824 521 -825 498 -829C503 -809 505 -788 505 -758V-686C413 -687 376 -690 350 -695C356 -598 358 -517 356 -354C355 -255 348 -184 333 -131C328 -157 326 -181 329 -204C304 -193 274 -182 242 -171Z"/>
</svg>