<svg xmlns="http://www.w3.org/2000/svg" viewBox="0 -1000 1000 1000">
	<path fill="#000000" d="M748 -263C725 -326 711 -371 698 -422L634 -406C651 -354 661 -313 676 -235ZM242 -487C224 -520 205 -571 196 -601L121 -573C141 -540 161 -482 165 -457ZM461 -623V-704C411 -698 354 -696 265 -696C177 -696 134 -698 70 -704V-623C120 -628 177 -630 265 -630C354 -630 393 -628 461 -623ZM353 -748C340 -778 331 -802 319 -837L221 -806C237 -781 250 -745 255 -716ZM624 -499H782L746 -51C739 31 749 51 858 51C924 51 938 47 970 -68C945 -75 920 -87 895 -108C883 -33 875 -27 845 -27C816 -27 811 -36 816 -88L864 -570C838 -563 803 -560 629 -560L640 -700H791C841 -700 900 -696 922 -691V-778C898 -772 855 -769 696 -769C578 -769 510 -772 480 -778V-691C501 -696 526 -698 567 -699L521 -124C517 -65 502 -35 476 -16C501 12 513 28 527 53C544 34 555 24 583 2L706 -95C694 -109 688 -128 688 -158C658 -132 628 -110 591 -86ZM365 -90H179V-223H365ZM179 -29H365V4H441C436 -36 434 -76 434 -121V-219C434 -253 436 -278 440 -296C409 -292 362 -290 271 -290C164 -290 140 -291 105 -296C109 -267 110 -252 110 -219V-87C110 -42 108 -9 104 38H179ZM364 -438C403 -510 436 -559 445 -565C459 -573 459 -582 449 -584C430 -588 381 -604 362 -612C341 -528 326 -484 305 -438H168C125 -438 70 -441 40 -445V-362C93 -369 162 -372 262 -372C363 -372 432 -369 486 -362V-445C452 -440 426 -438 364 -438Z"/>
</svg>