<svg xmlns="http://www.w3.org/2000/svg" viewBox="0 -1000 1000 1000">
	<path fill="#000000" d="M223 -468C215 -508 209 -541 204 -580L159 -573C165 -546 171 -504 176 -460ZM307 -414V-625H434V-414ZM249 -625V-414H129V-625ZM403 -573C384 -575 378 -577 355 -583C350 -523 344 -501 329 -470C351 -469 360 -467 377 -463C392 -533 398 -558 402 -561C412 -569 411 -572 403 -573ZM752 -231C738 -304 726 -377 717 -449L659 -440C674 -366 685 -294 691 -220ZM258 -722C239 -756 219 -788 195 -824L136 -792C154 -767 176 -725 190 -689ZM636 -524H781L773 -72C771 32 787 40 871 40C934 40 947 32 977 -63C954 -68 934 -81 915 -111C901 -40 889 -31 868 -31C851 -31 840 -39 841 -67L850 -482C851 -536 854 -566 858 -589C827 -584 774 -581 639 -581L644 -705C781 -705 863 -703 930 -696V-772C859 -766 811 -764 709 -764C607 -764 559 -766 488 -772V-696C514 -699 543 -701 576 -703L554 -104C552 -46 544 -34 518 -14C536 6 553 32 566 57C592 27 623 2 732 -76C720 -89 714 -111 716 -141C686 -116 653 -90 617 -64ZM299 -677C145 -677 119 -679 65 -685C69 -647 72 -575 72 -520C72 -453 70 -415 65 -354C117 -359 179 -361 282 -361C370 -361 413 -359 498 -353C494 -398 492 -444 492 -521C492 -579 495 -648 498 -685C462 -680 436 -678 360 -677C406 -756 419 -773 441 -789C451 -797 450 -801 443 -802C430 -803 384 -821 358 -836C345 -777 325 -721 299 -677ZM383 -182H178V-253H383ZM383 -61H178V-132H383ZM178 -11H383V33H456C452 -13 450 -72 450 -100V-194C450 -233 453 -293 456 -311C414 -305 396 -304 281 -304C178 -304 147 -306 103 -311C108 -285 111 -244 111 -194V-71C111 -25 109 6 103 52H178Z"/>
</svg>