<svg xmlns="http://www.w3.org/2000/svg" viewBox="0 -1000 1000 1000">
	<path fill="#000000" d="M391 -531H195V-568H391ZM459 -472C457 -491 455 -535 455 -573V-691C455 -728 457 -775 459 -794C424 -787 391 -785 290 -785C189 -785 156 -787 122 -794C125 -775 127 -728 127 -691V-575C127 -537 125 -491 122 -472C156 -478 189 -479 290 -479C391 -479 424 -478 459 -472ZM808 -531H587V-569H808ZM883 -471C880 -490 878 -536 878 -574V-688C878 -725 880 -772 883 -791C846 -784 810 -782 701 -782C593 -782 558 -784 520 -791C523 -772 525 -725 525 -688V-572C525 -534 523 -490 520 -471C558 -477 593 -478 701 -478C810 -478 846 -477 883 -471ZM391 -612H195V-649H391ZM808 -612H587V-650H808ZM808 -693H587V-729H808ZM391 -693H195V-733H391ZM591 -69C534 -97 466 -122 393 -141L350 -92C427 -72 499 -43 551 -13ZM301 -156H657L646 -10C642 45 652 58 760 58C877 58 898 45 935 -52C908 -56 881 -68 861 -88C847 -17 832 -9 765 -9C722 -9 714 -15 719 -53L736 -221C680 -217 580 -213 473 -213H309L316 -265H721C805 -265 829 -264 937 -257V-331C830 -326 698 -323 494 -323C291 -323 164 -326 53 -331V-257C109 -260 171 -263 245 -264L215 -48C209 -11 200 -4 163 8C179 34 188 57 192 77C216 68 254 58 285 52L470 15C464 -2 461 -17 462 -43C374 -25 322 -17 282 -13ZM900 -393C835 -435 812 -449 776 -470L731 -427C789 -395 820 -373 852 -341ZM692 -423C678 -434 660 -451 639 -474C582 -424 552 -406 480 -380C501 -358 508 -349 519 -331C560 -349 589 -364 627 -389C648 -403 668 -410 686 -410C701 -410 701 -416 692 -423ZM291 -430C270 -441 257 -452 236 -474C186 -432 154 -416 88 -393C106 -372 114 -359 122 -338C166 -358 200 -376 232 -396C260 -414 268 -417 286 -418C300 -419 302 -424 291 -430ZM466 -393C440 -417 403 -445 369 -468L323 -427C359 -407 392 -379 415 -351Z"/>
</svg>