<svg xmlns="http://www.w3.org/2000/svg" viewBox="0 -1000 1000 1000">
	<path fill="#000000" d="M472 -292H277V-333H472ZM531 -248C530 -275 530 -293 530 -314C530 -335 530 -352 531 -378C502 -376 429 -374 372 -374C315 -374 246 -376 216 -378C218 -350 218 -334 218 -314C218 -293 217 -277 216 -249C246 -251 270 -251 372 -251C455 -251 503 -250 531 -248ZM774 -220C762 -287 750 -366 741 -438L684 -428C697 -354 706 -287 712 -208ZM671 -515H799L789 -66C787 36 804 46 878 46C931 46 954 28 982 -67C961 -71 940 -83 922 -113C911 -46 896 -23 880 -23C861 -23 854 -31 855 -59L868 -476C870 -529 872 -560 875 -583C843 -577 794 -575 673 -575L679 -715H825C865 -715 880 -714 927 -707V-788C878 -783 829 -780 736 -780C643 -780 595 -783 545 -788V-707C566 -710 587 -712 611 -713L591 -98C589 -40 582 -28 557 -8C579 17 591 35 602 60C625 34 649 13 755 -69C744 -86 740 -103 740 -135C708 -107 686 -89 653 -63ZM548 -401V-460C501 -454 457 -452 372 -452C286 -452 235 -454 189 -460V-398C234 -403 286 -405 372 -405C457 -405 501 -404 548 -401ZM281 -174C293 -153 301 -136 308 -114C291 -115 274 -116 261 -118V-63C283 -66 306 -67 338 -68V-11C338 0 338 9 336 26H391C390 8 390 0 390 -11V-68C424 -67 453 -65 471 -63V-118C458 -115 440 -114 420 -114C434 -141 444 -159 453 -174H498V-65C498 -28 490 -22 436 -28C452 2 457 18 460 41C536 28 555 3 555 -38V-163C555 -196 556 -208 557 -227C478 -222 439 -221 359 -221C272 -221 230 -222 176 -226C179 -209 180 -195 180 -162V-32C180 -7 179 18 176 44H237V-174ZM399 -174C394 -154 388 -136 379 -114H354C343 -137 335 -156 329 -174ZM273 -591L165 -585C165 -602 165 -618 164 -631H273ZM332 -548C455 -558 471 -560 484 -559C493 -558 496 -563 493 -571C489 -580 488 -598 490 -614C439 -605 377 -597 332 -594V-631H526L503 -583L560 -570L594 -688C546 -684 449 -681 330 -681V-720H424C468 -720 496 -719 520 -717V-776C496 -773 469 -771 424 -771H330C331 -794 334 -803 343 -812C352 -821 351 -828 337 -827C310 -826 284 -827 256 -830C262 -812 263 -795 263 -754V-681C160 -681 120 -683 95 -687C102 -568 101 -439 98 -308C95 -193 73 -105 24 -32C50 -21 75 -4 91 17C138 -83 164 -214 166 -341C166 -392 166 -468 165 -536L273 -544V-535C273 -485 277 -479 336 -476C401 -473 431 -473 469 -475C535 -478 545 -489 555 -537C535 -540 520 -548 502 -562C492 -529 486 -523 459 -522C438 -521 388 -520 369 -521C343 -523 335 -528 332 -548Z"/>
</svg>