<svg xmlns="http://www.w3.org/2000/svg" viewBox="0 -1000 1000 1000">
	<path fill="#000000" d="M418 -171H331V-391H418ZM177 -111H418V-66H496C491 -119 489 -185 489 -258V-583C489 -628 491 -695 494 -753C451 -747 393 -744 299 -744C205 -744 142 -748 100 -753C104 -702 105 -652 105 -583V-219C105 -152 102 -80 97 -27H177ZM177 -391H267V-171H177ZM267 -676V-457H177V-676ZM418 -457H331V-676H418ZM807 -666C871 -665 922 -663 957 -658V-747C913 -742 829 -739 746 -739C650 -739 583 -741 535 -747V-658C578 -663 644 -666 726 -666V-54C726 -7 714 -4 609 -14C626 9 640 47 646 90C801 64 807 55 807 -53Z"/>
</svg>