<svg xmlns="http://www.w3.org/2000/svg" viewBox="0 -1000 1000 1000">
	<path fill="#000000" d="M940 -74C912 -80 885 -91 864 -111C857 -46 844 -36 811 -36C756 -36 742 -41 742 -77V-451H811V-303C811 -257 808 -252 756 -255C772 -228 781 -201 784 -175C854 -187 879 -214 879 -268V-426C879 -465 880 -488 883 -510C861 -508 843 -508 778 -508C714 -508 697 -508 671 -510C674 -489 675 -465 675 -427V-61C675 24 690 35 810 35C894 35 916 15 940 -74ZM642 -717C515 -717 471 -719 435 -723V-564H487C471 -458 440 -360 396 -277C416 -266 431 -254 447 -236C478 -296 509 -379 528 -436H573C572 -380 567 -316 558 -267C541 -280 522 -296 506 -313L474 -261C497 -246 520 -228 543 -206C512 -107 454 -31 360 26C391 43 405 58 420 80C494 27 583 -99 605 -192C624 -273 640 -393 642 -499H548C558 -527 567 -546 572 -549C582 -555 581 -562 570 -562C552 -562 530 -567 511 -574V-657H832V-571H909V-723C875 -719 833 -717 721 -717C711 -759 704 -798 700 -833L618 -816C627 -788 635 -753 642 -717ZM143 -381H206V-164H143ZM206 -664V-447H143V-664ZM330 -447H267V-664H330ZM330 -164H267V-381H330ZM143 -100H330V-67H400C395 -120 393 -172 393 -260V-636C393 -681 394 -711 395 -734C357 -731 299 -728 236 -728C173 -727 115 -730 76 -734C78 -714 78 -681 78 -636V-201C78 -113 76 -73 71 -20H143Z"/>
</svg>