<svg xmlns="http://www.w3.org/2000/svg" viewBox="0 -1000 1000 1000">
	<path fill="#000000" d="M783 -92H428V-247H783ZM607 -426H754C824 -426 877 -424 936 -419V-505C873 -499 824 -497 753 -497H607V-557C607 -579 610 -595 628 -609C642 -620 640 -628 623 -626C587 -621 554 -624 519 -630C526 -602 529 -572 529 -503V-311C395 -311 375 -313 346 -318C350 -282 352 -250 352 -215V-82C352 -37 349 17 344 63H428V-25H783V44H868C862 1 859 -56 859 -101V-215C859 -254 861 -289 866 -318C834 -313 811 -311 607 -311ZM187 -444C175 -503 153 -589 136 -643L63 -622C91 -548 103 -494 108 -423ZM549 -730C337 -730 264 -732 210 -737C222 -584 225 -465 223 -368C174 -338 99 -299 44 -276C66 -251 78 -228 91 -191C132 -228 179 -265 220 -295C210 -149 175 -75 85 27C116 34 140 51 165 76C284 -114 301 -164 295 -662H577C808 -662 887 -660 940 -655V-737C890 -732 822 -730 635 -730C625 -766 618 -797 613 -831L518 -815C532 -784 542 -758 549 -730Z"/>
</svg>