<svg xmlns="http://www.w3.org/2000/svg" viewBox="0 -1000 1000 1000">
	<path fill="#000000" d="M484 -292V-513H778V-292ZM399 -218C459 -222 545 -224 639 -224C727 -224 815 -221 865 -218C857 -263 854 -294 854 -339V-496C854 -533 856 -562 862 -588C824 -583 781 -581 632 -581C482 -581 440 -583 400 -588C405 -561 408 -530 408 -496V-339C408 -300 406 -268 399 -218ZM599 -122C614 -125 616 -140 598 -144C577 -149 554 -163 530 -185C485 -122 385 -47 293 -10C325 8 339 22 360 52C529 -81 585 -119 599 -122ZM961 -21C890 -79 833 -120 734 -188L677 -130C769 -72 831 -18 889 45ZM188 -444C174 -514 155 -589 137 -643L67 -622C95 -548 107 -494 112 -423ZM556 -730C339 -730 262 -732 207 -737C214 -584 216 -465 214 -368C166 -338 97 -303 41 -280C61 -257 77 -232 92 -199C132 -236 172 -271 211 -303C203 -145 168 -63 82 23C115 33 139 49 156 78C261 -61 291 -152 291 -662H578C809 -662 888 -660 941 -655V-737C892 -731 826 -730 647 -730C635 -770 627 -804 623 -838L523 -822C536 -797 548 -764 556 -730Z"/>
</svg>