<svg xmlns="http://www.w3.org/2000/svg" viewBox="0 -1000 1000 1000">
	<path fill="#000000" d="M776 -41H462V-141H776ZM462 19H776V67H859C855 34 853 7 853 -27V-148C853 -177 854 -191 856 -204C816 -202 779 -201 619 -201C459 -201 425 -202 381 -204C383 -188 384 -174 384 -148V-15C384 19 383 44 378 79H462ZM576 -471L593 -544H708C772 -544 867 -540 896 -536V-614C865 -609 829 -606 610 -606C457 -606 374 -609 336 -614V-536C371 -541 433 -544 517 -544L499 -471C454 -471 416 -473 358 -478V-406C409 -410 446 -411 485 -412L463 -319C391 -320 337 -322 304 -326V-252C346 -256 455 -259 621 -259C857 -259 917 -256 950 -252V-326C928 -323 868 -321 811 -320L834 -478C757 -473 713 -471 643 -471ZM738 -319H540L562 -413H749ZM140 -646L66 -622C94 -548 106 -494 111 -423L191 -447C179 -506 157 -592 140 -646ZM211 -281C200 -137 161 -49 73 33C107 39 131 51 156 76C281 -94 290 -186 290 -660H575C806 -660 885 -658 938 -653V-737C889 -731 822 -730 641 -730C631 -766 625 -796 619 -831L522 -815C537 -791 548 -764 556 -730C337 -730 265 -731 210 -737C217 -581 218 -461 215 -364C173 -335 109 -300 52 -274C72 -251 89 -222 102 -187C133 -216 173 -250 211 -281Z"/>
</svg>