<svg xmlns="http://www.w3.org/2000/svg" viewBox="0 -1000 1000 1000">
	<path fill="#000000" d="M170 -470C157 -529 141 -589 124 -643L54 -622C82 -548 88 -520 98 -451ZM613 -205H749V-146H613ZM543 -146H416V-205H543ZM543 -267H416V-322H543ZM613 -322H749V-267H613ZM479 -529C423 -467 339 -404 261 -364C265 -449 266 -552 263 -683H579C810 -683 889 -681 942 -676V-751C889 -746 820 -744 617 -744C606 -772 599 -795 592 -823L504 -810C516 -787 525 -767 531 -744C331 -744 235 -746 183 -751C191 -595 195 -474 194 -377C151 -349 99 -322 46 -300C66 -277 76 -254 84 -221C120 -251 155 -277 191 -302C182 -183 150 -87 70 28C101 35 128 49 153 71C216 -46 248 -138 260 -337C275 -322 289 -304 297 -287C315 -300 333 -314 350 -328V-170C350 -125 347 -87 341 -40H416V-85H543V-63C543 44 551 51 745 51C908 51 926 40 962 -59C924 -70 908 -80 893 -111C871 -14 865 -10 745 -10C619 -10 613 -16 613 -66V-85H825C819 -128 816 -165 816 -211V-336C842 -321 872 -306 904 -293C909 -322 925 -355 952 -380C841 -398 758 -458 705 -529C803 -527 872 -524 906 -522V-600C852 -594 766 -592 608 -592C627 -621 643 -638 656 -641C667 -644 666 -652 656 -653C633 -654 595 -664 566 -677C554 -645 542 -621 525 -592C417 -593 346 -596 298 -600V-522C332 -524 390 -527 479 -529ZM637 -530C665 -473 702 -424 751 -382H613V-414C613 -435 616 -442 628 -449C639 -455 637 -467 621 -467C590 -467 568 -468 535 -472C539 -456 543 -416 543 -382H413C467 -430 519 -481 561 -530Z"/>
</svg>