<svg xmlns="http://www.w3.org/2000/svg" viewBox="0 -1000 1000 1000">
	<path fill="#000000" d="M576 -347H439V-426H576ZM858 -287C850 -429 852 -513 858 -618C784 -614 724 -612 611 -612C480 -612 436 -613 364 -618C372 -508 369 -418 364 -286C427 -291 474 -292 603 -292C740 -292 771 -292 858 -287ZM781 -347H645V-426H781ZM576 -476H439V-555H576ZM781 -476H645V-555H781ZM703 -166V-20C703 9 702 31 698 77H783C781 37 780 8 780 -21V-165C843 -164 890 -162 940 -157V-231C875 -226 818 -225 643 -225C434 -224 360 -226 294 -231V-157C351 -162 414 -165 477 -166C472 -126 458 -86 445 -70C418 -37 344 8 281 17C310 41 325 60 338 88C414 58 483 9 515 -41C536 -73 546 -112 551 -166ZM164 -459C161 -520 156 -601 150 -660L80 -651C88 -598 91 -515 86 -452ZM529 -742C318 -742 250 -745 194 -749C203 -610 208 -499 206 -408C150 -374 99 -352 34 -337C50 -298 56 -281 64 -247C112 -282 156 -310 203 -336C193 -166 156 -74 87 15C118 24 140 37 168 58C264 -98 291 -269 278 -679H656C760 -679 868 -676 923 -671V-750C875 -747 770 -743 619 -742C611 -783 603 -814 594 -846L502 -828C513 -801 522 -774 529 -742Z"/>
</svg>