<svg xmlns="http://www.w3.org/2000/svg" viewBox="0 -1000 1000 1000">
	<path fill="#000000" d="M568 -130V-34C433 -34 359 -36 282 -42V38C363 32 441 30 591 30C742 30 822 32 904 38V-42C831 -37 760 -34 639 -34V-130C735 -130 797 -127 852 -122V-201C797 -196 735 -193 639 -193V-238C639 -254 641 -259 650 -267C668 -280 663 -287 644 -285C613 -282 597 -283 563 -289C566 -275 568 -242 568 -193C474 -193 412 -196 356 -201V-122C412 -127 474 -130 568 -130ZM168 -457C160 -527 149 -598 137 -654L63 -643C82 -581 90 -508 89 -443ZM774 -523C759 -464 734 -423 689 -384C717 -374 732 -365 750 -350C769 -376 786 -402 800 -425C827 -402 857 -370 873 -348L923 -394C891 -421 858 -445 824 -468C832 -479 838 -483 846 -487C859 -494 859 -501 843 -505C827 -508 805 -516 786 -523C837 -522 880 -521 916 -518V-590C850 -585 763 -582 645 -582C646 -607 649 -618 657 -626C670 -638 669 -644 656 -644C630 -643 600 -645 570 -649C573 -627 574 -607 574 -582C456 -582 367 -585 299 -590V-518C328 -520 361 -522 398 -522C373 -451 340 -408 278 -361C304 -351 319 -341 335 -319C363 -348 386 -377 408 -410C433 -390 454 -369 471 -351L522 -398C502 -412 470 -433 437 -455C446 -468 455 -480 463 -485C477 -495 477 -499 459 -503C442 -506 426 -514 409 -523H573C568 -441 546 -395 506 -361C459 -321 383 -283 259 -261C286 -238 298 -220 313 -189C475 -248 561 -304 607 -387C685 -285 756 -239 904 -195C917 -238 926 -254 952 -283C819 -282 693 -346 632 -453C635 -470 638 -496 641 -523ZM558 -725C282 -725 261 -726 181 -732C189 -614 193 -492 193 -398C132 -357 94 -337 35 -320C48 -293 55 -268 62 -227C102 -262 133 -284 191 -314C181 -145 149 -65 62 11C96 21 123 37 149 61C248 -79 268 -169 262 -661H659C771 -661 888 -658 943 -654V-732C859 -725 838 -725 579 -725L645 -749C634 -782 623 -811 609 -843L521 -816C536 -784 548 -755 558 -725Z"/>
</svg>