<svg xmlns="http://www.w3.org/2000/svg" viewBox="0 -1000 1000 1000">
	<path fill="#000000" d="M134 -683L66 -673C78 -616 86 -541 87 -474L159 -485C154 -553 145 -624 134 -683ZM199 -352C190 -188 150 -92 59 -3C102 7 124 18 146 38C267 -140 282 -250 269 -684H562C788 -684 866 -682 918 -677V-755C869 -749 803 -748 622 -748C614 -782 609 -810 603 -841L506 -827C514 -799 520 -776 527 -748C311 -748 237 -749 185 -755C195 -619 202 -508 201 -417C154 -389 105 -368 51 -352C63 -325 73 -295 81 -254C120 -296 162 -327 199 -352ZM612 -550L535 -536C543 -516 547 -502 552 -478L627 -491C621 -518 617 -533 612 -550ZM624 -237H783V-178H624ZM553 -178H405V-237H553ZM624 -121C742 -121 803 -120 860 -115C857 -137 854 -165 854 -209C854 -239 857 -279 860 -301C793 -296 742 -294 624 -294C625 -324 629 -333 636 -336C650 -341 649 -350 634 -350C602 -349 580 -350 547 -354C550 -344 552 -324 553 -294C443 -294 395 -297 330 -301C334 -278 337 -238 337 -209C337 -177 336 -151 330 -116C394 -119 443 -121 553 -121V-44C401 -35 314 -34 255 -41C267 -9 272 17 275 50C307 37 424 22 525 13L823 -13C839 8 855 31 871 56L944 21C895 -33 859 -70 812 -111L754 -88C764 -78 774 -69 783 -59L624 -49ZM356 -555C400 -500 454 -454 517 -420C447 -395 390 -384 281 -379C297 -362 303 -340 304 -309C411 -325 481 -346 586 -390C670 -358 821 -326 918 -319C920 -354 928 -377 954 -404C842 -396 741 -401 658 -422C743 -468 834 -549 865 -632C798 -624 738 -620 578 -620C418 -620 374 -623 309 -632V-551C321 -552 337 -554 356 -555ZM585 -448C523 -476 466 -521 430 -559H741C702 -520 653 -480 585 -448Z"/>
</svg>