<svg xmlns="http://www.w3.org/2000/svg" viewBox="0 -1000 1000 1000">
	<path fill="#000000" d="M438 -285V-334H776V-285ZM438 -385V-434H776V-385ZM438 -487V-534H776V-487ZM158 -411C158 -473 153 -549 142 -630L69 -618C78 -565 86 -462 82 -408ZM200 -306C194 -143 148 -17 85 52C112 52 158 64 178 77C266 -77 285 -190 277 -681H569C801 -681 880 -679 934 -675V-757C873 -752 810 -750 624 -750C619 -779 614 -801 606 -832L509 -821C518 -800 527 -773 534 -750C324 -750 242 -752 188 -757C195 -669 200 -553 201 -372C154 -349 86 -322 37 -308C53 -279 69 -233 71 -211C100 -236 154 -276 200 -306ZM810 -61C783 -64 752 -74 734 -97C726 -32 705 -23 604 -23C535 -23 523 -35 523 -52V-145C523 -156 525 -164 530 -169C538 -178 537 -182 523 -181C503 -180 479 -182 446 -189C450 -166 451 -154 451 -118V-30C451 28 461 39 524 44C606 50 671 49 721 41C762 34 792 4 810 -61ZM411 -158L335 -177C327 -116 305 -65 265 -7L351 22C378 -50 389 -84 411 -158ZM954 -27C924 -85 894 -130 851 -184L780 -155C815 -116 850 -56 874 12ZM706 -108C688 -150 673 -180 649 -215L585 -187C611 -145 622 -121 636 -77ZM508 -590C422 -591 390 -592 358 -596C362 -568 364 -527 364 -478V-342C364 -292 362 -250 358 -221C390 -227 443 -229 609 -229C741 -229 816 -226 856 -221C853 -247 851 -294 851 -342V-469C851 -518 853 -574 856 -596C820 -592 753 -590 687 -590H581C599 -630 610 -643 623 -651C631 -657 629 -664 619 -664C585 -664 554 -669 526 -679C526 -657 521 -628 508 -590Z"/>
</svg>