<svg xmlns="http://www.w3.org/2000/svg" viewBox="0 -1000 1000 1000">
	<path fill="#000000" d="M889 -777C840 -773 794 -772 655 -772C517 -772 470 -773 422 -777C426 -754 428 -709 428 -678V-251C428 -220 427 -201 423 -179C471 -185 515 -186 654 -186C793 -186 838 -184 887 -179C883 -201 882 -220 882 -251V-678C882 -726 884 -755 889 -777ZM803 -453V-258H506V-453ZM506 -523V-703H803V-523ZM954 27V-65C876 -59 774 -56 631 -56C490 -56 388 -59 310 -65V27C388 21 490 18 631 18C774 18 876 21 954 27ZM166 -500V-188C128 -176 88 -165 46 -154C62 -122 72 -93 81 -50C180 -103 273 -145 373 -186C363 -212 358 -233 357 -259C321 -243 285 -229 248 -215V-500C298 -499 337 -497 367 -493V-579C337 -575 298 -573 248 -572V-771C248 -783 252 -795 261 -800C275 -808 273 -816 257 -816C223 -815 191 -817 162 -821C166 -800 166 -764 166 -572C118 -573 81 -575 50 -579V-493C80 -497 117 -499 166 -500Z"/>
</svg>