<svg xmlns="http://www.w3.org/2000/svg" viewBox="0 -1000 1000 1000">
	<path fill="#000000" d="M387 -559H556V-490H387ZM482 -95C457 -102 445 -109 428 -123C405 -73 375 -36 331 -9C361 -3 383 8 396 22C415 4 426 -10 442 -32C460 -57 474 -72 478 -73C502 -82 503 -89 482 -95ZM653 -63C630 -88 605 -113 579 -135L527 -102C555 -81 577 -54 595 -24ZM950 -428C884 -410 873 -415 873 -440C874 -516 878 -556 891 -613C866 -608 842 -606 784 -606C728 -606 707 -608 677 -613C689 -469 678 -427 624 -381C656 -372 674 -361 688 -347C726 -395 743 -457 741 -552H819L814 -413C813 -380 815 -361 933 -358C931 -376 936 -400 950 -428ZM488 -332C488 -371 493 -379 501 -385C515 -395 513 -401 497 -401C462 -401 452 -402 423 -407C427 -392 429 -377 430 -332H385C386 -364 387 -400 387 -439H538C581 -439 607 -437 616 -434V-613C595 -609 567 -607 467 -607C368 -607 334 -610 317 -613C332 -242 315 -128 226 -9C251 -1 275 17 286 34C324 -30 349 -84 365 -152H592C618 -152 641 -148 659 -142V-209C648 -206 624 -203 598 -201V-282C615 -280 632 -278 648 -274V-341C632 -337 615 -335 598 -333C598 -367 603 -380 611 -386C625 -396 623 -402 607 -402C578 -402 561 -404 532 -408C540 -389 543 -376 544 -332ZM544 -283V-200H488V-283ZM430 -283V-200H374C378 -225 381 -252 383 -283ZM147 -627L77 -621C87 -564 91 -480 87 -415L160 -426C158 -502 153 -572 147 -627ZM193 -320C182 -144 146 -59 63 22C96 32 116 47 137 75C262 -111 270 -229 270 -675H564C804 -675 887 -673 942 -669V-748C889 -742 819 -739 618 -739C613 -771 607 -800 598 -831L501 -816C509 -790 515 -766 521 -739C313 -740 243 -743 188 -748C195 -597 198 -478 195 -383C156 -366 106 -350 41 -333C51 -307 60 -279 66 -246C103 -273 150 -300 193 -320ZM740 -268C765 -269 796 -269 836 -269C821 -205 807 -166 773 -123C756 -151 744 -209 740 -268ZM683 -265C690 -197 708 -116 731 -79C690 -45 634 -12 555 8C583 27 600 46 611 66C673 42 725 7 768 -31C802 6 848 41 911 63C921 32 932 15 958 -12C892 -24 846 -51 813 -79C860 -138 893 -211 914 -329C889 -326 852 -324 795 -324C736 -324 695 -325 662 -329V-263C669 -264 675 -265 683 -265Z"/>
</svg>