<svg xmlns="http://www.w3.org/2000/svg" viewBox="0 -1000 1000 1000">
	<path fill="#000000" d="M160 -419C161 -471 155 -557 144 -638L77 -626C86 -573 94 -470 90 -416ZM197 -308C190 -151 150 -41 85 31C114 34 147 45 168 63C259 -96 273 -209 268 -695H568C800 -695 884 -693 938 -689V-765C888 -761 810 -758 624 -758C620 -787 615 -809 606 -840L512 -829C524 -803 532 -781 538 -758C322 -758 244 -759 189 -765C196 -675 198 -604 198 -374C152 -350 95 -329 39 -313C58 -282 71 -243 73 -221C106 -247 136 -268 197 -308ZM499 -121L529 -174C500 -196 476 -210 434 -231L404 -181C443 -161 473 -142 499 -121ZM642 -167C683 -144 705 -129 742 -97L773 -151C740 -178 714 -195 670 -220ZM756 -35C746 -53 742 -64 739 -96C712 -79 666 -59 625 -46V-295C625 -307 630 -319 634 -326C645 -337 642 -343 629 -342C604 -340 587 -340 558 -343C563 -321 565 -297 565 -237V-71C565 -38 553 -17 520 -6C543 24 549 34 560 62C575 47 590 37 617 25ZM516 -110C480 -84 427 -56 392 -41V-294C392 -314 393 -319 401 -325C414 -334 409 -342 394 -341C381 -339 348 -339 321 -342C326 -319 328 -286 328 -226V-62C328 -36 317 -16 283 -5C311 22 323 41 338 72C352 55 372 39 392 28L538 -49C525 -69 519 -82 516 -110ZM981 -50C956 -57 940 -65 919 -92C918 -46 909 -29 898 -29C890 -29 876 -43 867 -69C848 -122 842 -150 840 -283C839 -318 842 -325 849 -330C858 -336 853 -343 840 -342C825 -340 796 -340 775 -344C774 -324 774 -309 776 -283C790 -93 809 -30 844 26C863 56 886 65 903 65C933 65 957 42 981 -50ZM769 -260C734 -285 711 -300 671 -323L641 -273C684 -252 705 -238 742 -205ZM542 -273C513 -295 479 -315 447 -330L418 -281C451 -266 483 -247 512 -223ZM380 -525V-567C432 -573 476 -581 503 -589C530 -597 553 -600 577 -598C589 -597 595 -601 585 -610C567 -626 550 -649 539 -672C489 -644 380 -614 311 -617C316 -599 318 -583 318 -553V-418C318 -390 315 -371 311 -355C341 -356 473 -358 605 -358C754 -358 848 -357 877 -355C874 -372 872 -389 872 -418V-581C872 -606 874 -628 877 -646C840 -642 815 -641 764 -641C714 -641 683 -642 638 -646V-581C666 -583 684 -583 726 -583H806V-527H725C669 -527 650 -529 634 -532V-465C651 -469 666 -470 725 -470H806V-412H380V-468H469C526 -468 555 -466 569 -463V-530C554 -527 525 -525 469 -525Z"/>
</svg>