<svg xmlns="http://www.w3.org/2000/svg" viewBox="0 -1000 1000 1000">
	<path fill="#000000" d="M560 -201V-32H444V-201ZM758 -32H630V-201H758ZM172 -33C129 -34 88 -37 50 -41V43C121 36 181 33 502 33C821 33 884 37 955 43V-41C904 -36 875 -34 833 -33V-170C833 -202 835 -238 838 -268C768 -264 677 -262 502 -262C328 -262 246 -263 167 -268C170 -245 172 -212 172 -170ZM375 -201V-32H247V-201ZM355 -737C281 -781 253 -797 188 -830L144 -767C213 -733 243 -714 301 -671ZM311 -602C240 -633 206 -646 133 -671L95 -608C166 -587 202 -573 270 -535ZM336 -458C308 -474 296 -486 276 -513C247 -472 220 -443 182 -411C143 -377 115 -357 76 -337C106 -320 131 -301 157 -275C180 -303 204 -330 239 -366C282 -409 315 -441 336 -458ZM707 -714C788 -714 841 -712 891 -709V-782C830 -779 765 -777 649 -777C533 -777 468 -779 406 -782V-709C462 -713 524 -714 627 -714V-580C504 -580 427 -582 355 -586V-513C426 -516 504 -517 627 -517V-394C627 -359 610 -352 499 -368C525 -338 534 -313 540 -275C659 -279 707 -306 707 -372V-517C809 -517 879 -516 940 -513V-586C878 -583 809 -581 707 -580Z"/>
</svg>