<svg xmlns="http://www.w3.org/2000/svg" viewBox="0 -1000 1000 1000">
	<path fill="#000000" d="M642 -59C619 -74 603 -89 583 -114C502 -43 439 -7 368 16C397 36 412 51 427 77C470 55 503 35 558 -3C612 -41 628 -45 638 -45C652 -45 654 -51 642 -59ZM954 10C897 -32 857 -58 766 -108L716 -60C805 -6 854 26 907 71ZM640 -318H523V-397H640ZM708 -397H822V-318H708ZM708 -260H822V-180H708ZM640 -180H523V-260H640ZM708 -524C766 -523 800 -521 836 -517V-594C794 -589 755 -587 679 -587C602 -587 550 -589 508 -594V-517C542 -521 584 -523 640 -524V-455C553 -456 494 -459 447 -464C451 -426 453 -365 453 -300C453 -232 451 -157 447 -115C498 -119 564 -121 665 -121C765 -121 843 -118 894 -113C891 -164 890 -237 890 -305C890 -369 891 -427 894 -464C850 -460 788 -456 708 -455ZM719 -737C712 -766 707 -799 704 -833L616 -821C627 -793 635 -767 640 -737C516 -738 454 -741 412 -747V-546H482V-668H862V-555H935V-747C892 -740 853 -737 719 -737ZM305 -89V-31H377C374 -80 372 -128 372 -186V-665C372 -707 373 -729 374 -748C351 -745 310 -743 246 -743C181 -743 129 -745 111 -748C112 -728 113 -699 113 -665V-129C113 -70 112 -28 109 21H186V-89ZM305 -288V-148H186V-288ZM186 -535V-680H305V-535ZM305 -476V-347H186V-476Z"/>
</svg>