<svg xmlns="http://www.w3.org/2000/svg" viewBox="0 -1000 1000 1000">
	<path fill="#000000" d="M548 -685C527 -722 506 -764 496 -788L431 -757C448 -734 469 -690 481 -656ZM861 -772C841 -778 817 -790 790 -807C770 -754 746 -714 722 -682C747 -677 765 -671 784 -663C832 -737 849 -757 860 -759C874 -761 874 -768 861 -772ZM268 -563H148V-688H268ZM148 -503H268V-374H148ZM268 -175H148V-314H268ZM148 -115H268V-60H342C339 -110 337 -154 337 -213V-668C337 -711 338 -732 340 -752C324 -750 276 -748 218 -748C160 -748 96 -750 78 -752C79 -731 79 -703 79 -668V-157C79 -97 79 -54 76 -4H148ZM826 -144V-276C862 -276 893 -275 919 -273V-338C892 -336 862 -335 826 -334C826 -364 828 -371 835 -377C849 -389 848 -393 830 -393C805 -393 784 -394 757 -397C758 -383 759 -360 760 -334C714 -334 679 -335 643 -338V-273C678 -276 714 -277 761 -277V-144H690C695 -206 700 -222 706 -228C716 -237 714 -241 696 -240C680 -239 662 -242 639 -248C641 -216 635 -133 624 -80C660 -83 704 -85 761 -85V17C761 35 760 61 758 81H829C827 59 826 35 826 17V-85C861 -84 890 -83 917 -80V-148C888 -145 860 -144 826 -144ZM495 -336C514 -370 520 -377 525 -379C535 -383 534 -388 523 -390C509 -393 481 -404 464 -415C433 -336 390 -266 343 -213C360 -205 375 -195 389 -182C419 -213 441 -243 463 -280H546C542 -245 530 -198 515 -160C497 -177 479 -196 462 -214L417 -174C441 -152 460 -132 483 -105C440 -50 381 -20 305 5C335 23 353 39 366 58C455 16 514 -32 549 -93C588 -161 605 -234 615 -336ZM539 -585C499 -529 436 -476 355 -449C381 -428 392 -416 406 -397C487 -446 548 -495 590 -585H602V-455C602 -437 601 -407 599 -387H670C668 -409 667 -437 667 -455V-585H681C720 -486 768 -451 879 -408C885 -427 897 -446 929 -477C838 -487 774 -519 725 -585C812 -585 874 -584 912 -581V-643C867 -640 799 -638 667 -638V-775C667 -787 669 -794 676 -800C690 -812 689 -822 671 -821C646 -819 623 -821 596 -825C599 -806 602 -772 602 -711V-638C496 -639 433 -640 383 -643V-581C429 -583 485 -585 539 -585Z"/>
</svg>