<svg xmlns="http://www.w3.org/2000/svg" viewBox="0 -1000 1000 1000">
	<path fill="#000000" d="M936 -562V-693C899 -689 860 -687 787 -687C847 -747 863 -755 871 -756C885 -758 887 -765 877 -769C849 -781 835 -789 806 -809C785 -771 765 -746 727 -710L772 -687H771H671V-776C671 -792 672 -801 685 -807C698 -813 699 -823 682 -820C656 -815 616 -817 586 -822C592 -805 595 -790 595 -768V-687H477L546 -723C514 -760 492 -783 459 -809L399 -769C437 -739 451 -723 469 -687C403 -687 377 -689 341 -693V-567H407V-635H861V-562ZM827 -459C826 -475 825 -503 825 -533C825 -564 825 -591 827 -607C810 -605 776 -604 631 -604C482 -604 454 -606 433 -607C434 -592 435 -563 435 -533C435 -502 434 -474 433 -459C455 -462 482 -463 631 -463C776 -463 806 -462 827 -459ZM321 -755C292 -749 251 -746 196 -746C132 -746 95 -750 73 -755C78 -726 80 -683 80 -643V-122C80 -79 77 -41 71 6H151V-81H250V-18H319C316 -65 314 -104 314 -146V-643C314 -686 316 -725 321 -755ZM957 -85V-143C879 -139 802 -137 665 -137V-174C779 -174 841 -173 909 -170V-226C841 -222 779 -220 665 -220V-255C809 -255 876 -253 900 -250C898 -272 896 -306 896 -343C896 -380 897 -414 900 -436C871 -433 831 -432 631 -432C426 -432 389 -433 360 -436C363 -414 364 -380 364 -343C364 -305 362 -272 360 -250C386 -253 443 -255 598 -255V-220C484 -220 423 -221 354 -226V-170C422 -173 483 -174 598 -174V-137C473 -137 408 -138 331 -143V-85C415 -88 487 -89 641 -89C793 -89 875 -88 957 -85ZM760 30C745 -3 725 -35 694 -78L632 -53C655 -20 676 27 681 58ZM608 37C592 1 578 -35 567 -67L498 -48C513 -12 522 19 527 55ZM464 -54L390 -79C374 -44 345 -3 316 30L383 70C410 22 434 -16 464 -54ZM958 29C922 -8 879 -46 836 -80L778 -47C825 -3 855 31 885 78ZM250 -543H151V-682H250ZM755 -514H502V-556H755ZM250 -338H151V-484H250ZM829 -304H747C766 -326 781 -342 798 -358L738 -382H829ZM730 -382C723 -360 709 -330 695 -304H665V-382ZM598 -304H431V-382H510L467 -361C489 -343 507 -325 518 -308L572 -333C560 -349 541 -367 523 -382H598ZM250 -135H151V-279H250Z"/>
</svg>