<svg xmlns="http://www.w3.org/2000/svg" viewBox="0 -1000 1000 1000">
	<path fill="#000000" d="M599 -470C585 -512 572 -547 555 -588L498 -567C517 -532 531 -492 541 -449ZM818 -577C794 -579 770 -587 746 -596C741 -548 728 -496 714 -461C734 -460 754 -456 768 -450C794 -524 805 -552 817 -562C829 -572 827 -576 818 -577ZM625 -410H479V-633H625ZM691 -633H853V-410H691ZM528 16H803V65H882C879 35 876 -11 876 -42V-188C876 -224 879 -276 882 -300C843 -294 806 -292 659 -292C511 -292 493 -293 450 -300C454 -277 456 -230 456 -188V-21C456 12 453 51 450 78H528ZM803 -116V-38H528V-116ZM528 -171V-237H803V-171ZM165 -606H209C212 -530 212 -462 208 -403C146 -403 109 -406 70 -410V-332C107 -337 144 -340 203 -341C182 -177 127 -75 36 11C64 25 87 44 103 65C173 -15 219 -97 246 -210C284 -166 322 -110 351 -56L419 -113C376 -164 317 -221 259 -268C263 -291 267 -315 270 -341C325 -340 357 -337 393 -332V-412C358 -407 327 -404 276 -403C281 -463 283 -530 282 -606C327 -606 350 -605 378 -602V-673C348 -670 323 -669 271 -669H190C197 -689 205 -712 213 -737C220 -759 237 -787 250 -795C264 -803 262 -807 250 -809C218 -813 182 -825 152 -840C149 -751 110 -631 41 -519C63 -515 85 -505 104 -490C129 -531 147 -565 165 -606ZM691 -688C513 -688 459 -691 404 -697C407 -657 410 -580 410 -522C410 -454 407 -393 404 -346C468 -351 532 -353 659 -353C787 -353 861 -351 926 -345C922 -394 919 -455 919 -523C919 -582 921 -653 925 -697C883 -691 847 -689 759 -688C796 -755 822 -793 839 -805C846 -810 846 -820 839 -820C823 -821 779 -837 752 -850C741 -791 724 -746 691 -688ZM622 -725C606 -762 587 -798 564 -832L493 -804C513 -780 538 -733 548 -695Z"/>
</svg>