<svg xmlns="http://www.w3.org/2000/svg" viewBox="0 -1000 1000 1000">
	<path fill="#000000" d="M329 -176H223V-400H329ZM671 -46H574C523 -46 446 -51 411 -55V43C473 36 558 32 675 32C791 32 876 36 939 43V-55C892 -50 818 -46 745 -46C760 -101 778 -170 820 -355C833 -411 852 -464 864 -470C877 -476 877 -485 862 -488C839 -492 789 -509 758 -522C755 -451 745 -354 671 -46ZM655 -152C632 -280 608 -392 583 -495L492 -481C534 -375 553 -270 560 -141ZM939 -578V-674C877 -667 805 -664 694 -664C583 -664 511 -667 452 -674V-578C511 -585 583 -588 694 -588C805 -588 877 -585 939 -578ZM205 -649C179 -523 123 -418 37 -328C56 -304 66 -276 75 -233C98 -266 123 -305 149 -350V-133C149 -78 146 -31 140 19H223V-110H329V-60H406C404 -108 403 -145 403 -183V-379C403 -418 405 -451 411 -474C381 -470 347 -470 215 -470C258 -552 268 -585 282 -650C346 -649 395 -646 430 -640V-737C390 -731 332 -728 255 -728C178 -728 120 -731 80 -737V-640C111 -645 152 -648 205 -649ZM740 -707C727 -759 712 -808 695 -851L601 -824C619 -784 634 -740 644 -681Z"/>
</svg>