<svg xmlns="http://www.w3.org/2000/svg" viewBox="0 -1000 1000 1000">
	<path fill="#000000" d="M268 -172H184V-404H268ZM698 -563C664 -375 621 -279 534 -188C560 -178 584 -163 605 -137C668 -229 704 -308 729 -482V-108C729 -57 724 11 718 72H804C799 10 797 -57 797 -108V-464C823 -329 855 -224 906 -145C919 -171 945 -197 973 -220C904 -302 856 -404 819 -565C861 -564 894 -562 919 -558V-637C890 -632 849 -631 797 -631V-772C797 -782 799 -789 806 -796C821 -811 818 -827 800 -824C785 -822 746 -823 716 -827C723 -785 729 -739 729 -631C694 -632 666 -634 643 -637V-558C658 -560 676 -562 698 -563ZM162 -667C131 -506 105 -442 25 -320C44 -301 71 -263 76 -242C90 -266 102 -290 117 -322V-135C117 -93 115 -52 107 -2H183V-108H268V-57H337C336 -105 336 -133 336 -160V-237C354 -230 368 -218 384 -202C416 -264 436 -324 459 -427V-117C459 -66 456 1 452 63H534C529 1 527 -66 527 -117V-439C551 -398 564 -369 578 -333L641 -375C618 -412 597 -448 574 -492L527 -459V-563C566 -563 587 -560 613 -557V-637C587 -633 566 -630 527 -628V-773C527 -789 529 -795 535 -802C549 -820 548 -825 529 -823C505 -822 480 -823 453 -827C457 -785 459 -733 459 -628C415 -630 376 -633 350 -637V-557C373 -560 408 -562 447 -563C406 -423 380 -352 336 -285V-377C336 -420 337 -446 340 -470C315 -468 248 -468 177 -468C200 -529 219 -598 231 -667C281 -667 315 -665 343 -660V-741C310 -736 269 -733 205 -733C142 -733 91 -736 59 -741V-660C83 -665 119 -666 162 -667Z"/>
</svg>