<svg xmlns="http://www.w3.org/2000/svg" viewBox="0 -1000 1000 1000">
	<path fill="#000000" d="M291 -205H202V-458H291ZM135 -393V-158C135 -104 132 -55 128 -6H202V-139H291V-64H359C357 -112 356 -149 356 -187V-438C356 -477 357 -508 363 -531C338 -529 283 -529 205 -529C236 -594 248 -633 267 -700C313 -699 347 -696 375 -691V-775C339 -770 295 -766 227 -766C158 -766 113 -769 77 -774V-691C107 -696 143 -699 194 -700C157 -544 100 -457 35 -389C52 -368 67 -338 78 -300C97 -330 116 -360 135 -393ZM637 -581V-486C572 -486 543 -488 498 -493V-421C541 -426 566 -429 621 -429C583 -334 523 -257 476 -218C498 -201 515 -185 529 -161C572 -213 606 -267 637 -346V-196C637 -162 636 -121 633 -73H703C701 -119 699 -162 699 -196V-324C738 -269 760 -235 781 -191L835 -236C802 -291 777 -323 735 -374L699 -344V-429C751 -429 783 -428 825 -421V-493C783 -489 750 -487 699 -486V-591C711 -593 723 -595 737 -598C765 -604 789 -604 818 -598C829 -595 832 -607 822 -618C806 -636 795 -655 784 -678C754 -665 699 -649 674 -645C600 -633 553 -629 494 -630C508 -611 518 -591 523 -568C563 -572 595 -575 637 -581ZM471 -57V-723H851V-57ZM851 7V43H927C923 -15 920 -71 920 -134V-698C920 -739 922 -765 927 -793C900 -789 853 -788 661 -788C471 -788 422 -789 397 -793C402 -765 403 -741 403 -698V-113C403 -50 401 6 397 64H471V7Z"/>
</svg>