<svg xmlns="http://www.w3.org/2000/svg" viewBox="0 -1000 1000 1000">
	<path fill="#000000" d="M787 -297H515V-366H787ZM515 -239H787V-164H515ZM931 42V-44C863 -36 780 -32 653 -32C527 -32 444 -36 376 -44V42C444 31 527 30 653 30C780 30 863 31 931 42ZM297 -166H199V-424H297ZM551 -675C495 -576 430 -504 363 -456C364 -474 365 -486 368 -497C349 -492 312 -490 207 -489C231 -544 242 -594 255 -688C306 -687 342 -684 372 -678V-758C337 -752 292 -749 226 -749C160 -749 114 -752 79 -758V-678C107 -684 142 -687 189 -687C170 -551 125 -453 39 -366C57 -342 66 -320 74 -288C97 -311 115 -332 134 -358V-158C134 -101 131 -39 126 7H199V-104H297V-46H368C365 -93 362 -158 362 -194V-447C378 -435 393 -425 407 -409C512 -506 562 -572 602 -675H608V-591C608 -566 606 -495 602 -456H680C677 -500 675 -566 675 -591V-675H680C709 -584 764 -491 849 -433C809 -428 768 -427 652 -427C528 -427 485 -429 442 -434C447 -411 450 -350 450 -323V-208C450 -171 446 -115 442 -97C485 -102 528 -104 652 -104C776 -104 815 -102 858 -97C854 -126 851 -181 851 -208V-323C851 -357 854 -399 857 -428C874 -417 892 -407 911 -399C919 -422 929 -440 953 -472C843 -511 778 -572 728 -675C803 -675 880 -673 927 -669V-741C871 -735 790 -732 675 -732V-763C675 -787 683 -804 694 -814C708 -826 705 -831 688 -831C669 -831 625 -833 600 -836C606 -802 607 -776 608 -732C505 -733 445 -736 399 -741V-669C445 -672 507 -674 551 -675Z"/>
</svg>