<svg xmlns="http://www.w3.org/2000/svg" viewBox="0 -1000 1000 1000">
	<path fill="#000000" d="M286 -156H201V-434H286ZM626 -345V-196H531V-345ZM787 -345V-196H694V-345ZM626 -549V-406H531V-549ZM787 -549V-406H694V-549ZM197 -693C173 -543 124 -454 31 -358C49 -335 64 -302 70 -274C89 -295 110 -322 132 -355V-124C132 -82 129 -42 122 8H201V-97H286V-37H355C351 -85 350 -112 350 -140V-401C350 -440 351 -473 354 -496C333 -495 272 -494 207 -494C237 -564 261 -641 267 -693C311 -693 346 -690 371 -686V-763C338 -758 290 -755 226 -755C163 -755 113 -758 81 -763V-686C108 -691 148 -693 197 -693ZM626 -705V-607C449 -607 412 -608 389 -613V-542C403 -545 429 -547 462 -548V-406C422 -407 385 -409 369 -412V-338C383 -341 422 -343 462 -344V-196C421 -197 398 -199 380 -202V-127C403 -131 443 -134 523 -134H626V-24C533 -24 470 -26 415 -31V45C473 41 544 39 652 39C760 39 844 41 902 45V-31C852 -26 782 -24 694 -24V-134H800C880 -134 920 -131 943 -127V-202C925 -199 899 -197 855 -196V-344C900 -343 941 -340 956 -338V-412C939 -409 899 -407 855 -406V-548C896 -547 924 -545 940 -542V-613C916 -608 878 -607 694 -607V-718C802 -737 841 -740 876 -736C896 -734 903 -751 887 -761C861 -776 843 -794 832 -817C757 -787 521 -746 404 -745C422 -724 432 -706 440 -679C495 -685 568 -695 626 -705Z"/>
</svg>