<svg xmlns="http://www.w3.org/2000/svg" viewBox="0 -1000 1000 1000">
	<path fill="#000000" d="M615 -648H484V-721H615ZM686 -721H823V-648H686ZM686 -586H823V-515H686ZM615 -515H484V-586H615ZM292 -190H202V-429H292ZM131 -384V-174C131 -120 129 -69 124 -22H202V-127H292V-52H364C362 -100 361 -137 361 -175V-404C361 -443 362 -474 368 -497C340 -495 272 -495 193 -495C229 -566 247 -613 268 -683C317 -682 352 -679 381 -674V-759C345 -753 299 -750 227 -750C155 -750 109 -753 72 -758V-674C103 -679 139 -682 192 -683C157 -554 91 -434 21 -373C40 -352 56 -322 68 -284C88 -313 110 -348 131 -384ZM943 -4C893 -41 850 -72 786 -116L738 -68C792 -32 853 18 892 60ZM561 -84C544 -91 515 -112 496 -130C457 -75 388 -17 317 15C339 25 357 41 373 61C414 37 452 10 489 -22C526 -54 544 -66 557 -66C572 -66 579 -76 561 -84ZM621 -306C509 -223 462 -205 394 -198C403 -179 408 -162 412 -136C443 -145 527 -151 626 -156V-35C626 1 610 13 539 3C553 31 564 57 568 85C686 66 697 53 697 9V-158L843 -165C854 -152 863 -138 872 -124L937 -173C891 -221 850 -262 796 -308L742 -267C764 -248 783 -231 800 -214C724 -209 657 -206 561 -202C647 -253 688 -279 760 -331C821 -375 835 -381 845 -380C864 -378 868 -388 849 -397C838 -402 810 -427 790 -449C771 -429 726 -388 686 -356C626 -351 586 -349 529 -346C577 -378 622 -414 663 -453C801 -453 850 -452 898 -448C896 -468 895 -495 895 -521V-715C895 -743 896 -772 898 -788C848 -784 804 -783 654 -783C505 -783 475 -784 409 -788C412 -768 413 -743 413 -715V-521C413 -490 412 -468 409 -448C451 -451 483 -452 570 -453C507 -385 475 -365 421 -348C430 -324 434 -303 437 -280C462 -289 479 -291 519 -295Z"/>
</svg>