<svg xmlns="http://www.w3.org/2000/svg" viewBox="0 -1000 1000 1000">
	<path fill="#000000" d="M302 -197H211V-454H302ZM204 -681C180 -566 114 -430 40 -348C60 -328 70 -313 84 -279C104 -305 125 -336 145 -370V-153C145 -100 142 -52 138 -4H211V-132H302V-62H368C366 -109 365 -145 365 -182V-433C365 -470 366 -500 371 -523C324 -521 279 -521 219 -521C239 -570 255 -624 267 -681C321 -680 359 -677 392 -672V-758C355 -753 316 -749 246 -749C178 -749 115 -752 78 -757V-672C107 -677 153 -680 204 -681ZM591 -405V-464C560 -462 498 -460 471 -464V-405C500 -409 561 -409 591 -405ZM848 -406V-464C819 -462 761 -460 732 -464V-406C765 -411 820 -411 848 -406ZM590 -501V-559C569 -555 516 -555 492 -559V-501C516 -505 566 -504 590 -501ZM830 -509V-567C814 -562 761 -562 731 -567V-509C761 -514 811 -513 830 -509ZM611 -303L596 -231C512 -232 457 -236 417 -241C420 -222 422 -201 422 -169V-14C422 16 420 40 416 71H490V-174H566C566 -87 565 -18 562 26H629C627 -19 626 -88 626 -174H699C699 -87 697 -25 693 19H762C760 -25 759 -88 759 -174H841V-37C841 -6 838 -2 778 -7C802 24 812 49 813 73C906 55 910 42 910 -13V-165C910 -196 912 -219 916 -240C856 -235 782 -232 670 -231L689 -303C848 -303 922 -301 946 -296V-373C916 -367 821 -362 683 -362C554 -362 427 -365 391 -372V-294C419 -300 513 -302 611 -303ZM694 -732C781 -732 850 -730 899 -725V-802C845 -797 768 -794 669 -794C569 -794 490 -796 436 -802V-725C482 -729 547 -731 628 -732V-667C507 -668 444 -671 403 -676V-507H466V-609H628V-550C628 -499 628 -463 624 -414H699C695 -460 694 -497 694 -550V-609H871V-522H935V-676C893 -671 828 -667 694 -667Z"/>
</svg>