<svg xmlns="http://www.w3.org/2000/svg" viewBox="0 -1000 1000 1000">
	<path fill="#000000" d="M279 -196H194V-441H279ZM128 -378V-151C128 -97 125 -48 121 1H194V-132H279V-57H348C346 -105 345 -142 345 -180V-419C345 -458 346 -489 352 -512C326 -510 268 -510 194 -510C222 -580 239 -627 254 -690C303 -689 334 -686 365 -681V-766C327 -761 287 -757 216 -757C145 -757 104 -760 68 -765V-681C98 -686 133 -689 185 -690C148 -534 107 -456 37 -386C56 -365 68 -342 78 -303C95 -327 112 -353 128 -378ZM933 -394C899 -457 872 -499 837 -551L778 -511C816 -465 840 -420 860 -360ZM812 -665C834 -751 843 -785 849 -790C865 -803 864 -809 848 -809C830 -809 807 -815 767 -830C751 -661 719 -546 683 -487C701 -477 716 -465 742 -436C753 -461 778 -543 795 -602H838C904 -602 928 -602 952 -600V-670C931 -667 903 -665 839 -665ZM595 -390V-467C631 -466 659 -465 679 -462C677 -486 676 -519 676 -559C676 -598 678 -627 679 -651C660 -648 628 -647 587 -647V-726C670 -726 684 -726 701 -724V-789C677 -785 664 -784 545 -784C428 -784 415 -785 391 -789C392 -772 393 -734 393 -704V-410C393 -381 392 -343 391 -326C415 -330 434 -331 553 -331C670 -331 686 -330 710 -326V-394C695 -392 677 -390 595 -390ZM458 -467H531V-390H458ZM458 -592H614V-520H458ZM524 -726V-647H458V-726ZM549 -217V-31H475V-217ZM676 -217V-31H609V-217ZM809 -31H740V-217H809ZM406 -31C371 -32 348 -33 309 -38V38C362 34 399 32 633 32C865 32 903 34 957 38V-38C923 -34 902 -32 877 -32V-216C877 -236 878 -261 880 -283C824 -280 782 -279 643 -279C502 -279 461 -280 405 -283C406 -261 406 -236 406 -216Z"/>
</svg>