<svg xmlns="http://www.w3.org/2000/svg" viewBox="0 -1000 1000 1000">
	<path fill="#000000" d="M694 -367H583V-415H694ZM527 -320C557 -321 601 -321 723 -321C856 -321 868 -321 908 -320C907 -338 906 -362 906 -384V-484C906 -507 906 -528 908 -548C862 -546 821 -545 723 -545C625 -545 573 -546 527 -548C528 -528 529 -506 529 -483V-385C529 -362 528 -337 527 -320ZM843 -367H746V-415H843ZM267 -367H166V-412H267ZM286 -321C394 -321 455 -321 480 -320C478 -338 478 -361 478 -383V-479C478 -501 478 -523 480 -543C434 -541 384 -540 286 -540C188 -540 155 -541 109 -543C110 -523 111 -500 111 -478V-384C111 -361 110 -337 109 -320C152 -321 186 -321 286 -321ZM420 -367H321V-412H420ZM694 -456H583V-504H694ZM843 -456H746V-504H843ZM267 -452H166V-496H267ZM420 -452H321V-496H420ZM480 -627H249V-667H480ZM838 -580C835 -598 834 -622 834 -646V-733C834 -757 835 -784 838 -805C757 -803 686 -802 510 -802C337 -802 264 -803 180 -805C184 -784 185 -756 185 -732V-647C185 -622 183 -598 180 -580C260 -582 334 -582 510 -582C686 -582 761 -582 838 -580ZM769 -627H540V-667H769ZM480 -709H249V-750H480ZM769 -709H540V-750H769ZM742 -38H350V-109H742ZM364 -221C245 -128 144 -86 51 -60C75 -37 86 -22 100 5C157 -18 211 -45 281 -92V26C281 44 280 61 277 78H350V15H742V63H815C813 47 812 31 812 11V-115C812 -138 813 -158 817 -171C769 -166 697 -163 616 -163H378C400 -181 422 -201 443 -221C683 -221 850 -218 940 -213V-283C848 -279 678 -276 499 -276C324 -276 172 -278 79 -283V-213C155 -218 270 -220 364 -221Z"/>
</svg>