<svg xmlns="http://www.w3.org/2000/svg" viewBox="0 -1000 1000 1000">
	<path fill="#000000" d="M696 6H836V57H906C903 7 902 -29 902 -89V-294C902 -336 903 -370 906 -394C872 -390 823 -387 766 -387C711 -387 654 -391 637 -394C637 -372 637 -329 637 -294V-83C637 -35 636 10 633 62H696ZM696 -111H836V-46H696ZM836 -221V-161H696V-221ZM696 -271V-334H836V-271ZM285 -202H206V-434H285ZM467 -261C425 -142 399 -106 329 -31C356 -20 371 -11 389 10C431 -59 455 -107 474 -166V-65C474 -18 473 13 468 67H540C537 14 536 -17 536 -65V-176C552 -140 560 -119 568 -87L621 -111C613 -137 602 -162 585 -202L536 -184V-260C569 -260 597 -258 616 -254V-321C597 -317 569 -315 536 -314V-347C536 -362 539 -369 544 -373C565 -390 558 -404 538 -402C512 -399 498 -399 467 -403C471 -370 473 -345 474 -314C434 -314 410 -316 384 -321V-254C408 -258 431 -260 467 -261ZM583 -429V-483C557 -479 474 -479 442 -483V-429C478 -432 555 -432 583 -429ZM853 -432V-487C828 -483 749 -483 717 -487V-432C751 -436 826 -436 853 -432ZM582 -518V-571C561 -567 500 -567 478 -571V-518C502 -522 560 -522 582 -518ZM835 -523V-573C814 -570 744 -570 717 -573V-523C747 -527 813 -527 835 -523ZM181 -668C156 -549 108 -440 40 -354C57 -331 69 -307 79 -267C101 -300 120 -331 137 -362V-158C137 -105 134 -57 130 -9H206V-138H285V-67H353C351 -114 350 -150 350 -187V-410C350 -447 351 -473 356 -500C304 -498 265 -498 199 -498C217 -548 233 -603 248 -669C305 -669 340 -666 376 -660V-747C337 -741 305 -739 235 -739C165 -739 109 -742 71 -747V-660C99 -664 136 -667 181 -668ZM615 -715V-665C486 -666 425 -670 380 -675V-529H444V-613H615V-536C615 -488 615 -453 613 -407H685C682 -452 682 -486 682 -536V-613H869V-536H936V-673C890 -668 825 -665 682 -665V-715C768 -715 830 -712 880 -708V-782C823 -776 757 -775 651 -775C544 -775 478 -776 423 -782V-708C471 -712 529 -715 615 -715Z"/>
</svg>