<svg xmlns="http://www.w3.org/2000/svg" viewBox="0 -1000 1000 1000">
	<path fill="#000000" d="M300 -721C279 -754 243 -803 213 -836L145 -788C174 -761 212 -703 228 -671ZM262 -411C284 -376 300 -343 319 -293L387 -330C365 -375 339 -421 314 -458L262 -429V-436C302 -496 355 -598 374 -656C339 -650 294 -647 216 -647C164 -647 89 -650 57 -656V-572C85 -580 148 -583 261 -583C199 -450 119 -361 37 -312C60 -288 75 -262 80 -235C124 -281 153 -309 190 -349V-102C190 -50 187 0 182 63H262ZM692 -556H818V-456H692ZM621 -456H497V-556H621ZM621 -616H497V-714H621ZM692 -714H818V-616H692ZM749 -259C830 -258 895 -255 944 -250V-326C884 -320 801 -317 692 -317V-399C785 -398 859 -396 896 -392C892 -418 890 -450 890 -494V-679C890 -714 892 -754 897 -782C854 -777 773 -772 657 -772C540 -772 467 -776 419 -782C423 -755 426 -715 426 -681V-494C426 -459 423 -420 419 -392C454 -396 522 -399 621 -399V-317C523 -318 448 -321 391 -326V-250C433 -254 485 -257 550 -258C495 -153 424 -81 307 -21C336 -6 358 16 375 37C479 -28 557 -115 606 -259H621V-100C621 -47 618 11 612 76H701C695 11 692 -47 692 -100V-259H694C743 -125 798 -59 904 15C915 -18 936 -48 958 -71C867 -107 811 -155 749 -259Z"/>
</svg>