<svg xmlns="http://www.w3.org/2000/svg" viewBox="0 -1000 1000 1000">
	<path fill="#000000" d="M842 -200H693V-282H842ZM842 -341H693V-420H842ZM842 -479H693V-551H842ZM246 -700C237 -736 220 -792 208 -828L129 -806C147 -767 162 -717 167 -674ZM217 -360C233 -336 247 -311 259 -284L312 -336C293 -365 272 -395 251 -424L217 -394V-456C229 -479 241 -506 255 -536C279 -588 288 -613 296 -641C263 -635 231 -633 159 -633C113 -633 76 -636 45 -642V-563C73 -568 111 -571 206 -571C166 -458 107 -372 28 -304C45 -278 54 -258 63 -222C100 -268 127 -303 149 -336V-105C149 -45 147 1 145 62H222C218 1 217 -45 217 -105ZM744 -66C753 -68 755 -78 742 -82C725 -87 698 -102 686 -118C657 -70 594 -12 529 23C553 36 573 50 588 69C632 37 671 2 706 -35C729 -58 737 -65 744 -66ZM970 10C933 -30 873 -81 829 -112L783 -67C825 -39 879 13 916 62ZM609 -57C578 -103 554 -133 520 -173L472 -135C504 -97 530 -58 551 -18ZM596 -304C585 -323 564 -348 542 -372L499 -336C520 -319 538 -293 548 -266ZM612 -444C585 -480 568 -500 533 -534L489 -498C522 -471 533 -456 563 -403ZM597 -742C606 -750 606 -760 597 -760C583 -760 564 -767 544 -784C532 -727 518 -686 501 -659C523 -659 544 -655 557 -643C584 -723 590 -736 597 -742ZM409 -671C394 -703 374 -749 364 -776L309 -756C328 -723 341 -689 350 -649ZM729 -703C725 -665 720 -638 714 -611C668 -612 646 -614 626 -619C628 -601 629 -553 629 -514V-239C629 -200 628 -147 626 -129C651 -134 681 -136 757 -136C835 -136 886 -133 912 -129C910 -153 909 -200 909 -239V-514C909 -553 910 -594 912 -619C888 -613 843 -611 775 -611C784 -645 790 -675 795 -703C856 -703 905 -700 941 -695V-770C901 -765 846 -762 776 -762C703 -762 648 -765 610 -770V-695C639 -700 679 -702 729 -703ZM466 -199C525 -199 571 -198 602 -194V-260C573 -257 528 -256 473 -256C477 -312 478 -325 482 -334C488 -341 487 -348 479 -347C461 -346 423 -347 403 -350C406 -331 407 -290 405 -256C361 -257 326 -258 298 -260V-194C324 -196 358 -198 400 -198C386 -112 349 -50 257 -1C280 15 299 34 314 61C418 -27 444 -71 466 -199ZM488 -633V-760C488 -782 490 -792 493 -796C503 -806 501 -814 490 -813C472 -812 440 -813 420 -817C423 -792 426 -766 426 -719V-633C380 -634 340 -636 311 -638V-569C337 -573 370 -575 409 -575C371 -493 339 -453 285 -407C307 -394 315 -384 331 -359C372 -404 400 -453 426 -514C425 -436 423 -399 420 -367H490C489 -404 488 -450 488 -561V-576C534 -575 580 -571 601 -569V-638C579 -636 534 -634 488 -633Z"/>
</svg>