<svg xmlns="http://www.w3.org/2000/svg" viewBox="0 -1000 1000 1000">
	<path fill="#000000" d="M331 -409L273 -373C296 -336 310 -307 326 -269L388 -311C369 -345 354 -371 331 -409ZM195 -347V-104C195 -55 194 4 187 66H276C269 4 268 -55 268 -104V-502C315 -502 347 -500 378 -496V-574C347 -569 315 -567 268 -566V-710C318 -722 373 -728 383 -726C399 -723 402 -729 385 -743C368 -757 355 -779 344 -812C305 -795 261 -781 214 -769C174 -759 121 -749 74 -746C92 -721 100 -701 104 -672C129 -676 160 -683 195 -691V-566C146 -566 105 -568 69 -573V-495C105 -499 144 -502 195 -503V-500C165 -391 104 -269 50 -208C70 -184 82 -163 96 -126C138 -203 168 -270 195 -347ZM614 -124C721 -224 773 -397 820 -704C825 -738 834 -759 848 -773C861 -786 860 -789 838 -789C821 -789 774 -798 750 -804C711 -468 681 -324 614 -230V-492C614 -532 619 -561 630 -572C643 -585 640 -588 622 -586C600 -584 559 -588 534 -594C538 -570 541 -513 541 -466V-153C477 -97 416 -59 338 -27C370 -11 391 9 406 36C450 5 503 -33 542 -63C547 4 564 22 619 23C661 24 795 21 814 19C873 12 884 -8 922 -134C892 -142 869 -156 840 -186C824 -67 820 -58 776 -51C760 -48 656 -45 638 -48C620 -51 615 -56 614 -124ZM945 -304C922 -376 891 -464 864 -528L792 -499C820 -437 850 -351 863 -276ZM459 -214C466 -301 483 -456 492 -479C499 -497 496 -500 486 -497C474 -494 435 -495 409 -500C420 -431 409 -309 376 -220C403 -222 431 -220 459 -214ZM696 -690C659 -724 608 -769 563 -804L510 -745C554 -718 608 -669 640 -629Z"/>
</svg>