<svg xmlns="http://www.w3.org/2000/svg" viewBox="0 -1000 1000 1000">
	<path fill="#000000" d="M543 -30H805V51H891C886 2 881 -59 881 -112V-285C881 -329 882 -352 886 -372C848 -367 796 -364 667 -364C564 -364 504 -367 462 -372C466 -347 467 -324 467 -285V-85C467 -33 463 19 457 70H543ZM805 -101H543V-296H805ZM221 -691V-555C152 -555 96 -558 57 -563V-481C93 -485 146 -488 211 -489C169 -364 123 -287 32 -181C60 -157 77 -135 90 -101C143 -184 183 -264 221 -364V-98C221 -49 218 14 213 74H301C296 14 293 -49 293 -98V-369C329 -315 354 -270 376 -222L443 -264C422 -306 378 -373 345 -415L293 -384V-489C352 -488 389 -485 424 -482C429 -466 433 -448 435 -430C489 -451 546 -463 844 -485C856 -460 867 -434 875 -408L952 -453C914 -524 861 -608 802 -688L737 -648C763 -617 788 -581 810 -544L522 -526C583 -597 615 -641 654 -705C683 -752 697 -765 711 -769C739 -777 738 -794 712 -799C684 -804 660 -813 621 -837C577 -722 548 -669 489 -583C466 -549 453 -535 433 -527V-563C395 -558 357 -556 293 -555V-711C366 -730 412 -737 431 -734C447 -731 450 -737 435 -754C423 -767 402 -799 387 -824C353 -805 314 -790 257 -772C191 -751 130 -738 64 -729C80 -705 87 -685 90 -658C133 -668 176 -679 221 -691Z"/>
</svg>