<svg xmlns="http://www.w3.org/2000/svg" viewBox="0 -1000 1000 1000">
	<path fill="#000000" d="M776 -537C762 -571 746 -626 736 -687H841C822 -621 799 -574 776 -537ZM943 -43C893 -82 828 -142 780 -189L728 -134C787 -89 836 -38 871 15ZM535 -141C514 -152 491 -172 471 -192C432 -129 369 -68 305 -33C337 -22 358 -9 380 9C429 -34 455 -59 492 -99C503 -111 519 -122 529 -125C544 -129 544 -136 535 -141ZM685 -213C772 -213 851 -210 897 -206V-280C845 -275 752 -273 652 -273C552 -273 470 -275 416 -280V-206C460 -210 527 -212 608 -213V-41C608 -11 594 1 515 -15C546 24 552 36 554 81C675 63 685 44 685 -33ZM517 -743C530 -775 539 -790 553 -798C565 -805 562 -811 549 -812C525 -813 497 -822 465 -839C444 -715 400 -600 339 -525V-564C312 -558 293 -556 242 -555V-715C327 -740 334 -742 340 -741C357 -738 359 -744 344 -758C328 -773 315 -791 305 -822C274 -802 242 -788 207 -776C164 -760 114 -750 46 -743C65 -719 74 -706 80 -679C108 -682 141 -688 175 -696V-555C123 -555 85 -558 53 -564V-487C82 -491 117 -494 163 -496C130 -377 83 -288 33 -219C49 -195 65 -159 74 -126C114 -198 144 -264 175 -364V-109C175 -59 172 6 167 68H250C245 6 242 -59 242 -109V-404C262 -370 286 -310 295 -276L367 -306C350 -349 326 -398 305 -437L242 -411V-495C283 -494 314 -491 339 -487V-504C359 -499 376 -492 393 -480C440 -553 468 -617 493 -681H588C586 -648 580 -617 571 -589C550 -602 532 -616 516 -631L475 -567C504 -553 527 -537 544 -521C535 -503 524 -487 513 -471C490 -487 466 -508 453 -525L412 -463C433 -450 450 -437 466 -419C434 -389 398 -366 360 -348C389 -331 403 -317 418 -294C471 -335 511 -372 542 -409V-351C570 -356 605 -357 657 -357C708 -357 742 -356 771 -351V-421C803 -378 844 -339 899 -300C912 -337 939 -364 971 -375C902 -395 869 -413 815 -478C869 -561 911 -669 928 -758C890 -756 840 -755 792 -755C750 -755 707 -756 670 -758C681 -617 702 -513 769 -424C741 -420 707 -418 657 -418C611 -418 580 -420 553 -423C619 -508 642 -597 661 -745C631 -744 601 -743 573 -743Z"/>
</svg>