<svg xmlns="http://www.w3.org/2000/svg" viewBox="0 -1000 1000 1000">
	<path fill="#000000" d="M618 -431H473V-483H618ZM823 -431H683V-483H823ZM618 -535H473V-587H618ZM823 -535H683V-587H823ZM383 -306C362 -344 341 -375 314 -413L260 -375C285 -337 301 -303 318 -260ZM188 -319V-107C188 -58 185 5 180 65H267C262 5 260 -58 260 -107V-476C316 -475 351 -472 385 -468V-550C351 -545 316 -543 260 -542V-693C328 -711 370 -719 380 -717C396 -714 398 -720 384 -737C376 -746 352 -782 340 -807C306 -784 281 -773 227 -755C192 -743 98 -718 52 -712C64 -693 75 -673 85 -647C109 -652 150 -662 188 -673V-542C129 -543 87 -545 52 -550V-468C86 -472 125 -475 181 -476C149 -350 99 -245 35 -180C54 -156 67 -131 80 -94C127 -169 159 -234 188 -319ZM788 -89V-31H510V-89ZM510 -143V-197H788V-143ZM439 -242V-44C439 3 437 32 433 72H510V25H788V70H864C861 29 860 -2 860 -49V-159C860 -194 860 -235 862 -260C826 -254 730 -252 647 -252H447C467 -275 488 -303 510 -335L442 -365C416 -314 394 -289 334 -249L405 -207C416 -217 427 -229 439 -242ZM958 -250C929 -292 899 -331 865 -363L810 -330C852 -297 875 -259 891 -215ZM636 -283C628 -311 619 -335 607 -362L533 -348C550 -332 558 -308 563 -273ZM767 -287C759 -315 749 -339 736 -363L666 -350C679 -329 687 -307 693 -274ZM520 -699H716L674 -642H456C481 -661 501 -679 520 -699ZM405 -629V-467C405 -430 402 -393 399 -372C464 -375 528 -377 650 -377C779 -377 832 -376 900 -372C897 -409 896 -461 896 -517C896 -568 898 -615 900 -648C848 -645 807 -643 758 -642L844 -763C816 -759 785 -756 752 -756H574C596 -777 613 -791 619 -793C639 -800 638 -805 620 -809C593 -815 565 -825 539 -839C511 -769 449 -706 350 -654C375 -648 391 -642 405 -629Z"/>
</svg>