<svg xmlns="http://www.w3.org/2000/svg" viewBox="0 -1000 1000 1000">
	<path fill="#000000" d="M735 -335H267V-407H735ZM267 -275H735V-203H267ZM735 -70H267V-142H735ZM804 -477C760 -473 678 -471 598 -471H400C333 -471 268 -473 221 -476C351 -547 401 -568 447 -582C467 -588 466 -600 450 -606C430 -613 402 -633 381 -659C317 -603 192 -528 52 -477C79 -458 96 -436 108 -413C137 -429 163 -443 186 -456C189 -430 191 -398 191 -371V-80C191 -20 188 23 182 73H267V-5H735V56H821C815 6 812 -38 812 -97V-371C812 -410 814 -440 819 -469C845 -454 869 -439 890 -424L946 -493C847 -543 729 -598 599 -652L553 -593C648 -556 735 -516 804 -477ZM548 -735C541 -771 533 -801 522 -835L434 -820C447 -789 455 -764 461 -735C256 -735 158 -738 93 -744V-555H172V-671H834V-583H913V-744C846 -738 745 -735 548 -735Z"/>
</svg>