<svg xmlns="http://www.w3.org/2000/svg" viewBox="0 -1000 1000 1000">
	<path fill="#000000" d="M395 -618C378 -624 360 -634 340 -650C277 -595 218 -556 152 -528C173 -518 194 -500 207 -482C356 -577 380 -590 392 -594C414 -602 412 -611 395 -618ZM845 -540C780 -583 718 -620 655 -653L611 -608C673 -573 734 -533 796 -487ZM574 -727C569 -762 561 -794 549 -828L458 -814C469 -786 478 -757 485 -727C268 -727 180 -730 111 -736V-577H181V-663H851V-592H921V-736C855 -731 772 -728 574 -727ZM662 -313C642 -312 613 -315 583 -321C588 -298 589 -268 589 -234V-170C589 -132 588 -103 583 -64H665C661 -106 659 -132 659 -170V-268C659 -282 661 -290 667 -294C682 -303 679 -314 662 -313ZM840 -337C822 -335 781 -336 755 -340C759 -313 765 -252 765 -184V-69C765 3 761 6 671 -4C687 13 697 49 698 73C830 61 837 50 837 -43V-288C837 -304 838 -311 846 -318C859 -329 859 -339 840 -337ZM437 -231H247V-278H437ZM247 -173H437V-119H247ZM633 -437C596 -434 543 -432 490 -432C440 -432 393 -434 357 -437C428 -482 463 -508 504 -554C542 -506 583 -468 633 -437ZM545 -584C570 -593 571 -602 554 -604C529 -608 489 -615 465 -625C392 -520 209 -410 54 -372C73 -358 93 -333 102 -311C126 -319 151 -329 175 -340C178 -322 180 -292 180 -259V-78C180 -38 177 12 171 65H247V-60H437C437 -9 430 -4 354 -11C376 9 393 43 394 64C501 46 505 38 505 -39V-259C505 -293 507 -323 511 -342C465 -338 406 -336 343 -336C282 -336 222 -338 179 -342C230 -364 280 -390 325 -417V-368C361 -373 424 -376 490 -376C556 -376 620 -373 656 -368V-424C721 -389 801 -364 907 -341C916 -369 931 -395 952 -419C720 -448 616 -499 545 -584Z"/>
</svg>