<svg xmlns="http://www.w3.org/2000/svg" viewBox="0 -1000 1000 1000">
	<path fill="#000000" d="M500 -164C474 -230 417 -350 384 -411L328 -387C359 -328 415 -197 440 -129ZM442 -609C428 -619 413 -633 398 -654C334 -617 257 -594 178 -581C194 -564 205 -544 212 -522C321 -559 420 -589 433 -590C457 -592 457 -598 442 -609ZM811 -593C737 -617 655 -638 573 -654L539 -601C622 -585 706 -559 772 -536ZM545 -724C540 -759 534 -790 524 -827L430 -821C443 -783 451 -756 457 -724C249 -724 160 -727 86 -733V-555H165V-667H829V-591H907V-733C841 -727 753 -724 545 -724ZM368 -52C372 -40 375 -29 378 -19L435 -44C421 -82 399 -143 384 -182L330 -161C337 -142 346 -117 355 -91C333 -84 309 -77 287 -71L304 -449C356 -457 447 -467 462 -464C477 -461 481 -467 468 -478C460 -485 441 -514 424 -541C320 -505 190 -482 119 -486C126 -447 127 -367 124 -275C120 -133 101 -58 51 15C77 21 95 31 120 64C169 -41 186 -172 186 -313V-436C203 -437 219 -438 244 -441L228 -101C226 -61 222 -54 197 -41C210 -21 223 4 231 22C252 6 277 -10 288 -15ZM741 -459C751 -342 767 -239 799 -139C815 -90 851 -11 892 42C904 17 925 -11 948 -32C910 -68 873 -124 854 -177C828 -250 807 -357 799 -465C841 -469 873 -470 883 -468C898 -465 901 -471 889 -482C882 -488 862 -514 842 -544C787 -521 677 -498 501 -492C505 -449 509 -361 511 -280C515 -122 496 -51 396 51C429 55 453 66 469 79C564 -41 573 -105 573 -318V-442C589 -442 612 -444 640 -446L618 -63C616 -35 597 -13 577 -6C591 12 602 30 612 50C631 37 663 20 682 14L746 -6C751 12 755 27 758 40L818 19C804 -19 779 -90 764 -133L710 -112C717 -94 725 -71 733 -47C716 -44 697 -40 675 -36L698 -453C711 -455 726 -457 741 -459Z"/>
</svg>