<svg xmlns="http://www.w3.org/2000/svg" viewBox="0 -1000 1000 1000">
	<path fill="#000000" d="M414 -710C350 -686 262 -667 175 -661C191 -645 204 -619 211 -598C284 -610 340 -622 385 -634C417 -643 434 -646 442 -646C463 -646 464 -651 450 -661C439 -669 426 -686 414 -710ZM563 -776C558 -799 554 -819 551 -842L465 -830C473 -811 478 -795 481 -776C255 -776 154 -778 84 -782V-619H157V-717H844V-643H918V-782C853 -778 760 -776 563 -776ZM284 -263C311 -266 336 -270 357 -273C386 -278 401 -279 420 -279C433 -278 436 -283 425 -292C420 -295 407 -322 401 -336C361 -326 314 -316 246 -307C166 -297 133 -294 74 -293C86 -282 96 -260 101 -243C139 -246 178 -250 216 -254V-215C161 -211 122 -209 86 -208L90 -157C124 -162 162 -165 216 -170V-127C161 -124 105 -121 67 -120L71 -68C106 -73 161 -78 216 -82V-37C216 -3 207 6 177 19C191 32 202 47 212 68C234 58 249 51 291 38L417 -4C412 -15 411 -38 413 -62C371 -44 319 -28 284 -21V-88C349 -92 389 -95 428 -96L423 -146C386 -141 346 -137 284 -132V-175C343 -179 386 -182 422 -182L417 -233C383 -228 342 -224 284 -220ZM685 -235C823 -245 849 -247 880 -244C891 -244 896 -249 885 -257C875 -265 855 -288 843 -304C800 -297 743 -289 675 -282C594 -276 529 -276 460 -280C473 -267 484 -238 485 -224C523 -226 569 -228 615 -231V-197C554 -195 510 -194 470 -194L473 -144C509 -146 554 -148 615 -150V-118C546 -116 505 -116 453 -116L454 -64C501 -67 546 -69 615 -72V8C615 48 628 54 772 56C888 58 923 48 954 -8C927 -13 905 -27 884 -54C868 -10 846 -2 778 -4C692 -6 685 -9 685 -25V-75C782 -79 879 -83 930 -83L927 -135C877 -131 781 -125 685 -121V-154C765 -157 826 -159 870 -159L867 -210C824 -206 765 -203 685 -200ZM501 -540C545 -543 591 -547 639 -552C700 -558 721 -557 753 -552C767 -550 769 -554 761 -560C748 -572 730 -599 716 -621C745 -610 772 -598 800 -585L835 -650C758 -675 682 -696 601 -716L571 -659C625 -649 671 -636 714 -622C660 -604 572 -591 532 -588C417 -580 299 -579 185 -584C197 -567 203 -548 207 -529C288 -529 360 -531 431 -535V-504C333 -502 249 -501 177 -504L178 -454C249 -456 312 -458 431 -461V-431C311 -428 215 -426 125 -428V-375C216 -380 282 -382 431 -387V-369C431 -311 442 -308 634 -308C858 -308 876 -315 899 -356C873 -363 853 -377 840 -393C816 -361 795 -355 633 -354C526 -353 505 -360 502 -390C668 -395 746 -398 844 -400V-451C749 -443 672 -440 501 -434V-464C642 -468 682 -469 761 -474L760 -525C680 -516 635 -511 501 -507Z"/>
</svg>