<svg xmlns="http://www.w3.org/2000/svg" viewBox="0 -1000 1000 1000">
	<path fill="#000000" d="M963 -98C926 -106 908 -114 871 -145C855 -49 835 -36 770 -36C691 -36 681 -48 681 -72V-236C681 -265 686 -299 693 -336C628 -330 571 -328 489 -328C410 -328 345 -330 285 -336C292 -218 287 -190 271 -137C254 -82 190 -26 58 14C97 32 120 54 135 80C266 17 324 -40 354 -121C362 -144 369 -190 371 -263H598V-63C598 27 614 40 761 40C901 40 917 32 963 -98ZM901 -392V-472C797 -467 690 -464 496 -464C303 -464 197 -467 92 -472V-392C196 -397 303 -400 496 -400C690 -400 797 -397 901 -392ZM562 -501C542 -537 530 -561 517 -598L432 -574C455 -540 467 -509 476 -474ZM237 -669H293C307 -630 319 -583 322 -552L410 -569C400 -589 382 -630 366 -669C457 -668 474 -666 494 -663V-738C479 -732 452 -727 349 -727H282C315 -766 334 -782 349 -787C364 -792 364 -805 350 -808C309 -816 271 -828 244 -841C220 -746 126 -618 47 -570C78 -559 98 -543 114 -522C170 -584 204 -626 237 -669ZM629 -675H701C714 -637 723 -594 725 -557L818 -577C805 -599 787 -638 771 -675C874 -674 905 -671 927 -667V-749C906 -740 867 -734 755 -734H667C686 -762 705 -783 719 -790C734 -797 732 -803 718 -806C689 -812 643 -826 617 -836C613 -782 569 -687 484 -621C508 -614 531 -602 554 -580C587 -617 605 -639 629 -675Z"/>
</svg>