<svg xmlns="http://www.w3.org/2000/svg" viewBox="0 -1000 1000 1000">
	<path fill="#000000" d="M215 -665H284C294 -625 303 -578 306 -548L390 -565C381 -585 366 -626 353 -665C448 -664 472 -662 492 -659V-740C477 -734 440 -729 337 -729H262C292 -768 313 -786 329 -794C343 -801 342 -805 328 -808C287 -816 249 -828 222 -841C198 -746 118 -631 39 -576C70 -565 93 -552 114 -532C126 -545 176 -611 215 -665ZM618 -672H699C709 -633 717 -589 719 -553L812 -573C799 -600 784 -636 770 -672C864 -671 894 -668 915 -664V-751C894 -742 855 -736 743 -736H659C682 -770 702 -793 717 -801C732 -808 730 -814 716 -817C687 -823 641 -837 615 -847C611 -793 517 -620 450 -578C474 -571 501 -557 524 -537C558 -582 590 -629 618 -672ZM701 -456V-55C701 -9 689 1 592 -10C610 18 620 49 622 82C768 68 784 53 784 -23V-455C851 -454 899 -451 936 -447V-532C892 -525 819 -521 717 -521H278C149 -521 113 -525 61 -532V-448C112 -454 146 -456 278 -456ZM255 -166V-303H500V-166ZM500 -102V-61H583C578 -105 577 -141 577 -170V-271C577 -311 580 -358 583 -375C546 -372 486 -369 374 -369C267 -369 209 -371 172 -375C175 -354 178 -305 178 -271V-163C178 -117 174 -67 167 -21H255V-102Z"/>
</svg>