<svg xmlns="http://www.w3.org/2000/svg" viewBox="0 -1000 1000 1000">
	<path fill="#000000" d="M736 -401H245V-489H736ZM216 -671H289C301 -637 310 -601 313 -571L398 -588C388 -607 373 -639 359 -671C452 -670 476 -668 496 -665V-745C481 -739 444 -734 341 -734H255C283 -780 294 -790 307 -792C322 -793 320 -805 306 -806C274 -808 233 -821 207 -836C182 -746 109 -631 46 -578C72 -570 100 -551 116 -531C145 -566 183 -620 216 -671ZM617 -678H698C709 -643 715 -606 717 -570L810 -590C800 -608 783 -643 768 -678C861 -677 898 -674 919 -670V-756C898 -747 849 -741 737 -741H654C679 -780 689 -789 704 -794C720 -798 716 -809 702 -810C671 -812 636 -823 608 -840C605 -786 539 -654 478 -610C502 -603 523 -589 546 -568C566 -596 587 -628 617 -678ZM593 -247C586 -278 583 -309 585 -340C705 -340 766 -338 817 -334C815 -357 814 -379 814 -444C814 -509 815 -534 817 -557C753 -552 701 -551 488 -551C276 -551 223 -552 161 -557C166 -528 168 -495 168 -440V-92C168 -49 160 -25 132 -9C149 17 162 41 176 74C195 61 220 49 252 39L489 -36C479 -55 476 -84 479 -120C441 -100 293 -50 245 -39V-183H529C561 -78 659 15 777 50C881 81 908 65 941 -76C910 -82 867 -103 848 -131C848 -17 825 -11 765 -36C691 -67 642 -121 614 -183C815 -183 871 -181 913 -176V-254C869 -249 812 -247 593 -247ZM245 -247V-340H501C502 -313 505 -282 513 -247Z"/>
</svg>