<svg xmlns="http://www.w3.org/2000/svg" viewBox="0 -1000 1000 1000">
	<path fill="#000000" d="M493 -57C440 -77 390 -95 333 -114L289 -53C389 -20 529 37 618 94L678 16C636 -1 600 -16 566 -29C697 -171 761 -238 808 -283C741 -278 660 -276 495 -276C329 -276 262 -278 195 -283V-200C283 -206 339 -209 444 -209H634ZM560 -323C551 -362 539 -397 527 -428L436 -412C449 -383 459 -342 464 -303ZM499 -505C542 -460 575 -436 650 -392C728 -348 783 -322 907 -281C915 -313 931 -344 952 -374C864 -387 773 -412 709 -439C642 -467 598 -492 549 -538C571 -542 577 -557 561 -559C540 -562 489 -585 465 -600C427 -536 391 -507 329 -466C229 -400 126 -347 36 -327C63 -305 86 -277 100 -254C281 -338 375 -399 499 -505ZM278 -718C310 -757 332 -776 346 -783C358 -789 357 -792 345 -795C304 -803 263 -815 236 -828C211 -734 113 -609 35 -560C64 -549 87 -537 103 -518C126 -540 187 -605 229 -656H297C310 -616 322 -563 325 -533L414 -550C401 -589 389 -622 374 -656C464 -655 488 -653 508 -650V-729C492 -723 455 -718 354 -718ZM631 -663H714C732 -615 746 -566 748 -528L844 -548C826 -591 811 -625 791 -663C880 -662 910 -659 931 -655V-740C910 -731 870 -725 760 -725H668C691 -758 718 -784 734 -792C747 -798 745 -803 733 -806C704 -812 651 -826 625 -836C620 -770 552 -647 486 -604C510 -597 543 -584 565 -565C581 -586 605 -622 631 -663Z"/>
</svg>