<svg xmlns="http://www.w3.org/2000/svg" viewBox="0 -1000 1000 1000">
	<path fill="#000000" d="M580 -483V-82C489 -83 420 -86 366 -92V6C428 -1 514 -4 632 -4C751 -4 836 -1 899 6V-92C843 -86 769 -83 669 -82V-483C789 -483 877 -480 943 -473V-568C877 -561 789 -558 669 -558V-737C669 -760 674 -776 682 -782C696 -792 694 -798 678 -798C643 -798 601 -801 572 -805C577 -780 580 -729 580 -558C483 -559 408 -562 350 -568V-473C407 -479 482 -482 580 -483ZM185 -446V-141C185 -69 180 17 174 74H268V-591C324 -705 342 -735 357 -746C377 -761 376 -773 355 -777C320 -784 293 -794 262 -813C247 -761 209 -668 185 -618C136 -516 92 -454 32 -399C59 -380 83 -355 98 -330C124 -361 155 -401 185 -446Z"/>
</svg>