<svg xmlns="http://www.w3.org/2000/svg" viewBox="0 -1000 1000 1000">
	<path fill="#000000" d="M230 -651H289C304 -613 318 -567 322 -538L406 -555C396 -575 376 -615 359 -651C451 -650 475 -648 495 -645V-722C480 -716 443 -711 340 -711H275C307 -752 323 -771 337 -778C351 -785 350 -789 336 -792C295 -800 267 -810 240 -825C216 -730 138 -622 61 -568C92 -557 115 -542 131 -524C154 -552 192 -601 230 -651ZM621 -658H702C714 -622 720 -586 722 -549L815 -569C805 -587 788 -622 772 -658C867 -657 897 -654 918 -650V-733C897 -724 858 -718 746 -718H659C688 -764 703 -782 720 -787C736 -792 733 -801 719 -803C689 -807 651 -819 625 -833C621 -779 516 -606 467 -572C491 -565 511 -551 534 -531C556 -559 589 -607 621 -658ZM737 -52H277V-167H737ZM462 -444V-367C285 -367 162 -369 64 -374V-297C160 -303 285 -307 462 -307V-226C307 -227 243 -229 196 -233C201 -215 202 -189 202 -161V-21C202 11 200 40 194 79H277V12H737V71H820C815 34 813 8 813 -28V-161C813 -192 815 -211 820 -233C774 -229 700 -226 541 -226V-307C712 -307 832 -306 929 -300V-374C833 -369 712 -367 541 -367V-449C590 -452 640 -456 690 -460C745 -465 800 -465 835 -459C849 -458 853 -465 841 -477C824 -491 798 -524 786 -547C718 -529 601 -514 492 -506C376 -497 218 -495 152 -500C171 -478 183 -455 188 -430C257 -432 355 -436 462 -444Z"/>
</svg>