<svg xmlns="http://www.w3.org/2000/svg" viewBox="0 -1000 1000 1000">
	<path fill="#000000" d="M147 -446C141 -172 110 -84 49 16C77 29 94 43 111 66C165 -22 190 -82 207 -290H324L312 -85C309 -32 300 -20 212 -24C230 3 240 36 242 54C366 33 377 18 381 -69L396 -355C371 -351 347 -350 316 -350H212C214 -380 216 -412 218 -447C338 -447 369 -447 422 -441V-512C374 -506 344 -505 242 -505L305 -530C291 -567 278 -595 260 -630L189 -599C207 -571 221 -538 231 -505C157 -505 121 -507 76 -512V-441C99 -443 121 -445 147 -446ZM634 -304C601 -293 573 -285 549 -277V-342C549 -356 555 -371 563 -378C573 -384 572 -389 552 -388C533 -387 501 -390 480 -395C483 -378 484 -335 484 -275V-258C454 -250 429 -244 402 -238L423 -173C441 -179 460 -186 484 -194V-69C484 29 500 56 611 57C665 58 729 56 798 54C878 51 899 41 945 -55C914 -64 899 -74 872 -104C851 -26 831 -9 779 -6C719 -3 658 -3 620 -7C556 -15 549 -28 549 -68V-215C573 -223 601 -232 634 -242V-157C634 -123 633 -94 630 -60H702C699 -94 698 -123 698 -157V-262L800 -295L798 -225C797 -190 790 -182 722 -185C748 -149 753 -134 757 -109C858 -134 865 -145 868 -219L874 -386C827 -368 774 -349 698 -324V-417C698 -433 703 -445 712 -451C725 -461 722 -469 704 -468C678 -466 659 -468 628 -473C633 -449 634 -429 634 -304ZM218 -682H281C296 -648 308 -615 314 -586L391 -608C373 -640 363 -660 354 -682C452 -681 477 -679 497 -675V-754C479 -748 439 -743 258 -742C276 -768 286 -775 303 -782C317 -788 318 -800 304 -802C278 -806 247 -815 222 -831C181 -738 128 -664 54 -589C86 -578 101 -572 122 -549C144 -576 173 -615 218 -682ZM588 -682H670C686 -649 701 -615 709 -586L786 -615C768 -641 756 -661 746 -682C848 -681 887 -679 908 -676V-757C880 -750 822 -743 631 -742C651 -770 669 -791 683 -797C698 -804 696 -809 682 -812C654 -817 627 -827 601 -842C562 -749 530 -701 454 -625C486 -615 499 -607 520 -592C478 -507 450 -470 389 -399C413 -389 429 -380 451 -360C483 -401 493 -415 542 -492H737C803 -492 873 -489 904 -485V-560C873 -555 803 -552 737 -552H581C592 -568 600 -577 609 -582C622 -591 621 -601 606 -602C586 -603 568 -609 545 -623C557 -640 571 -659 588 -682Z"/>
</svg>