<svg xmlns="http://www.w3.org/2000/svg" viewBox="0 -1000 1000 1000">
	<path fill="#000000" d="M403 -570H223V-613H403ZM474 -511C472 -531 471 -561 471 -592C471 -621 471 -648 474 -670C433 -665 396 -663 315 -663C234 -663 210 -664 152 -670C155 -647 157 -621 157 -592C157 -562 156 -534 152 -512C192 -515 225 -516 315 -516C427 -516 434 -515 474 -511ZM625 -601C622 -549 616 -511 609 -481C581 -500 555 -516 539 -525L496 -471C526 -459 550 -446 587 -419C559 -356 517 -321 457 -289C498 -277 527 -257 540 -239C586 -282 616 -318 641 -373C656 -357 669 -342 679 -328L731 -391C717 -404 693 -422 666 -441C683 -499 692 -562 696 -610L768 -619C756 -503 754 -452 766 -368C778 -283 798 -250 838 -223C897 -182 945 -197 983 -332C956 -334 926 -356 909 -380C886 -283 875 -280 862 -298C847 -319 840 -341 837 -359C818 -472 822 -567 862 -703C832 -694 787 -686 699 -674C705 -769 711 -806 720 -814C729 -822 729 -828 717 -829C696 -830 669 -836 629 -844C631 -787 630 -715 628 -667C571 -662 545 -661 520 -662L530 -589ZM461 -100V-29C273 -30 154 -34 77 -39V44C157 39 346 35 497 35C702 35 839 38 920 44V-39C845 -33 710 -30 538 -29V-100C691 -99 746 -96 817 -91V-170C746 -165 663 -162 538 -162C538 -200 543 -211 551 -217C565 -227 563 -233 547 -233C512 -233 483 -235 454 -239C459 -217 460 -193 461 -162C334 -162 251 -165 178 -170V-91C249 -96 334 -99 461 -100ZM289 -360C216 -353 157 -351 90 -350C101 -322 106 -300 106 -275C152 -287 211 -296 289 -305V-273C289 -252 280 -241 213 -249C224 -225 227 -210 230 -182C348 -199 356 -208 356 -263V-312C395 -315 438 -319 484 -322C480 -337 479 -358 485 -381C436 -375 394 -370 356 -366V-386L440 -443C449 -449 468 -469 483 -490C437 -484 369 -480 290 -479C200 -478 149 -481 100 -486V-416C147 -420 196 -422 343 -422L289 -390ZM285 -756C194 -756 130 -758 79 -764V-692C133 -697 205 -700 308 -700C411 -700 483 -697 537 -692V-764C495 -759 461 -757 372 -756C369 -779 366 -801 360 -829L270 -821C276 -797 281 -777 285 -756Z"/>
</svg>