<svg xmlns="http://www.w3.org/2000/svg" viewBox="0 -1000 1000 1000">
	<path fill="#000000" d="M334 -249H686V-189H334ZM400 -397V-354C423 -357 473 -358 520 -358C564 -358 618 -356 640 -354V-409C670 -373 704 -340 742 -310C678 -307 633 -305 497 -305C400 -305 356 -306 309 -308C345 -335 372 -361 400 -397ZM301 -378C277 -401 244 -428 219 -448L177 -403C198 -387 228 -360 252 -337C194 -297 110 -258 39 -240C66 -219 79 -203 97 -175C146 -201 204 -233 266 -276C267 -256 268 -236 268 -219C268 -187 267 -158 262 -127C330 -131 369 -133 497 -133C642 -133 686 -131 758 -127C754 -156 752 -189 752 -219C752 -245 754 -274 757 -300C801 -270 851 -247 916 -222C928 -256 941 -280 959 -304C883 -310 811 -341 753 -385C811 -413 860 -428 902 -434C917 -436 917 -445 909 -451C894 -462 878 -482 860 -506C826 -479 778 -449 715 -418C697 -435 679 -456 663 -479C720 -505 777 -520 807 -524C822 -526 824 -533 818 -540C808 -547 789 -567 767 -589C726 -561 690 -540 640 -518C631 -537 625 -555 622 -574L551 -556C576 -503 602 -458 632 -419C606 -416 559 -414 520 -414C481 -414 441 -415 415 -418C441 -456 466 -501 489 -554C445 -551 404 -549 342 -549C285 -549 212 -550 161 -554V-485C217 -493 283 -495 386 -495C365 -453 334 -410 301 -378ZM449 -28C435 -58 414 -94 395 -122L331 -93C346 -73 360 -50 370 -28C284 -29 188 -32 136 -37V40C190 34 301 31 497 31C722 31 818 34 880 40V-37C824 -32 741 -29 650 -28C673 -61 689 -78 701 -83C712 -88 712 -93 701 -97C687 -102 657 -117 638 -129C623 -97 603 -65 579 -28ZM234 -673H314C327 -641 337 -609 341 -585L418 -608C409 -626 397 -649 385 -673C444 -672 480 -668 500 -663V-734C477 -728 435 -723 367 -723H267C288 -751 307 -772 321 -779C335 -786 333 -790 320 -793C293 -798 259 -809 234 -819C211 -736 143 -646 89 -613C121 -607 146 -593 161 -573C185 -602 208 -633 234 -673ZM761 -675C846 -675 896 -671 922 -667V-739C888 -731 843 -725 752 -725H645C668 -757 687 -779 696 -784C706 -790 706 -794 693 -797C669 -803 638 -813 613 -822C589 -750 531 -655 487 -623C513 -615 534 -603 555 -585C573 -617 587 -639 609 -675H690C709 -630 716 -612 720 -596L794 -615C784 -631 777 -642 761 -675Z"/>
</svg>