<svg xmlns="http://www.w3.org/2000/svg" viewBox="0 -1000 1000 1000">
	<path fill="#000000" d="M183 -271H415V-223H183ZM415 -320H183V-366H415ZM241 -705H326C341 -669 355 -629 360 -598L438 -614C427 -634 410 -669 394 -705C484 -704 508 -702 527 -699V-770C512 -764 475 -759 372 -759H283C304 -785 321 -801 335 -808C349 -815 348 -820 334 -822C294 -827 259 -838 232 -851C206 -760 150 -686 71 -630C102 -619 122 -607 138 -586C171 -619 193 -643 241 -705ZM637 -712H735C749 -675 759 -636 762 -598L845 -611C837 -637 820 -675 803 -712C877 -711 909 -709 932 -704V-783C911 -774 870 -768 780 -768H674C686 -785 697 -794 710 -801C725 -808 723 -815 709 -817C680 -822 643 -834 617 -847C613 -781 553 -677 486 -625C510 -618 531 -607 551 -584C567 -604 604 -659 637 -712ZM266 -474V-416C195 -416 139 -417 114 -419C117 -410 119 -384 119 -364V-224C119 -204 117 -179 114 -170C139 -173 194 -174 264 -174V-110C191 -110 105 -112 69 -115V-50C104 -54 191 -55 264 -55V-34C264 14 262 50 258 68H337C333 47 331 14 331 -34V-55C397 -55 466 -53 499 -50V-115C466 -113 397 -111 331 -110V-174C403 -174 457 -173 483 -170C480 -179 478 -204 478 -224V-332C495 -326 507 -314 517 -298C535 -311 551 -324 566 -337V-281C589 -283 630 -284 673 -284V-181C614 -182 553 -184 522 -188V-118C552 -121 614 -122 673 -122V-23C673 25 670 61 667 79H750C746 62 744 24 744 -23V-122C808 -122 875 -122 908 -118V-188C875 -184 808 -182 744 -181V-284C789 -283 830 -281 855 -278V-345C822 -343 771 -342 716 -342C661 -342 611 -344 576 -347C626 -393 665 -444 709 -519C762 -429 817 -371 928 -313C940 -341 954 -358 977 -376C877 -423 820 -455 736 -556C742 -562 747 -565 752 -567C774 -573 770 -586 753 -588C734 -591 697 -602 673 -614C634 -496 568 -412 478 -355V-364C478 -384 480 -410 483 -419C457 -417 403 -416 331 -416V-474C396 -474 469 -472 501 -468V-533C469 -529 396 -526 331 -525V-550C331 -572 337 -586 349 -595C361 -602 358 -607 342 -607C327 -606 288 -607 260 -611C264 -594 265 -572 266 -525C201 -526 123 -530 92 -533V-468C122 -471 201 -473 266 -474Z"/>
</svg>