<svg xmlns="http://www.w3.org/2000/svg" viewBox="0 -1000 1000 1000">
	<path fill="#000000" d="M676 -152H548V-212H676ZM734 -260C705 -258 665 -257 610 -257C554 -257 518 -258 488 -260C489 -241 489 -212 489 -181C489 -153 489 -121 488 -103C517 -103 555 -104 610 -104C665 -104 703 -104 731 -103C731 -121 731 -153 731 -181C731 -212 732 -242 734 -260ZM475 -417H598V-355H475ZM748 -355H658V-418C658 -440 659 -460 663 -478C636 -473 610 -472 568 -472H475V-526H748ZM406 -355C382 -355 357 -356 342 -357C345 -341 347 -320 347 -290V-149C347 -112 344 -85 338 -56C305 -76 282 -86 260 -90V-267C260 -306 261 -327 266 -353C241 -350 203 -349 166 -349C130 -349 94 -350 66 -353V-282C92 -283 132 -284 187 -284V-85C158 -76 124 -55 68 -13C92 2 116 24 127 45C193 -39 229 -49 316 16C350 41 478 59 914 53C914 32 924 -9 944 -35C709 -7 399 -16 374 -33C366 -38 359 -44 351 -48H417V-300H809V-131C809 -104 799 -94 719 -91C740 -74 751 -49 749 -26C866 -41 879 -57 879 -122V-291C879 -323 880 -342 882 -357C867 -356 837 -355 816 -355V-487C816 -531 817 -565 820 -587C778 -583 728 -582 611 -582C494 -582 450 -583 402 -587C405 -563 406 -532 406 -487ZM295 -440C273 -490 240 -543 208 -580L144 -544C176 -506 206 -452 220 -408ZM265 -741C286 -773 295 -781 309 -785C326 -790 324 -799 308 -801C282 -805 242 -816 217 -828C196 -751 139 -666 63 -597C88 -593 111 -582 128 -557C151 -580 192 -630 232 -690L294 -689C313 -653 326 -619 333 -590L425 -616C404 -638 387 -662 374 -689C446 -688 492 -687 511 -683V-753C493 -747 435 -742 265 -741ZM649 -741C666 -768 684 -788 697 -794C714 -802 712 -808 696 -811C668 -816 640 -824 614 -839C593 -772 527 -671 467 -627C496 -625 521 -616 549 -600C572 -627 595 -656 617 -690H687C708 -661 723 -626 732 -594L821 -619C798 -642 780 -665 765 -689C850 -688 911 -687 932 -684V-756C903 -749 835 -742 649 -741Z"/>
</svg>