<svg xmlns="http://www.w3.org/2000/svg" viewBox="0 -1000 1000 1000">
	<path fill="#000000" d="M761 -148C746 -195 736 -239 728 -291L665 -285C676 -239 683 -192 687 -139ZM217 -297H158V-385H217ZM343 -44V-110C410 -110 449 -108 489 -105V-174C449 -170 410 -168 343 -167V-200C343 -207 347 -216 356 -220C370 -225 368 -231 352 -231C321 -231 298 -233 268 -237C273 -216 275 -198 275 -169V-167C200 -168 146 -170 102 -174V-105C145 -108 199 -110 275 -110V-39C202 -35 128 -33 74 -35C91 -16 98 20 97 40C201 22 434 2 508 4C505 -10 508 -45 519 -62C483 -56 417 -49 343 -44ZM397 -385H452V-297H397ZM336 -297H277V-385H336ZM336 -501V-435H277V-501ZM217 -501V-435C168 -435 125 -437 92 -441C96 -426 99 -399 99 -387V-298C99 -279 97 -258 91 -240C131 -243 221 -247 303 -247C385 -247 475 -244 519 -241C514 -255 512 -280 512 -298V-387C512 -408 514 -427 518 -441C488 -438 444 -436 397 -435V-501C456 -500 484 -499 516 -496V-563C480 -559 446 -558 307 -558C186 -558 124 -559 79 -563V-496C115 -498 165 -500 217 -501ZM650 -348H790L770 -13C767 37 779 48 867 48C930 48 948 40 981 -46C957 -54 933 -77 913 -106C903 -39 893 -18 872 -18C841 -18 836 -30 837 -46L861 -411C804 -406 760 -404 656 -403L665 -493H823C868 -493 904 -491 939 -486V-560C890 -556 835 -553 743 -553C653 -553 584 -556 533 -560V-487C551 -490 572 -491 593 -491L554 -48C551 -11 542 2 515 17C536 31 549 50 557 70C577 55 606 39 635 23L740 -33C726 -54 719 -73 719 -94C689 -75 655 -56 619 -37ZM199 -673H281C294 -638 302 -607 305 -577L386 -594C373 -617 360 -643 347 -673C440 -673 478 -671 500 -667V-746C485 -740 441 -735 338 -735H237C265 -779 275 -788 288 -790C303 -791 301 -803 287 -804C257 -806 228 -814 202 -828C177 -736 100 -642 34 -603C60 -595 88 -584 106 -568C143 -603 173 -636 199 -673ZM626 -680H707C718 -649 723 -619 725 -583L812 -603C802 -622 788 -649 775 -680C859 -680 908 -677 931 -672V-757C893 -747 845 -742 759 -742H664C684 -771 694 -778 707 -782C723 -786 720 -796 706 -798C677 -803 648 -814 619 -830C611 -766 543 -655 481 -612C510 -600 523 -591 545 -569C573 -600 592 -624 626 -680Z"/>
</svg>