<svg xmlns="http://www.w3.org/2000/svg" viewBox="0 -1000 1000 1000">
	<path fill="#000000" d="M218 -673H290C300 -645 305 -624 308 -594L395 -611C382 -628 372 -647 360 -673C451 -672 475 -670 495 -667V-744C475 -736 443 -733 340 -733H267C295 -765 313 -781 325 -788C339 -795 338 -799 324 -802C283 -810 247 -820 220 -833C198 -740 108 -634 29 -586C60 -575 78 -565 94 -544C143 -590 181 -629 218 -673ZM612 -680H706C715 -650 720 -620 722 -587L815 -607C806 -623 791 -650 777 -680C876 -679 906 -676 928 -672V-755C907 -746 868 -740 756 -740H650C671 -771 687 -790 701 -797C716 -804 714 -810 700 -813C671 -819 637 -830 609 -841C605 -787 524 -656 457 -614C481 -607 502 -595 525 -575C558 -611 587 -645 612 -680ZM590 -190C570 -224 548 -256 528 -282L454 -244C478 -223 497 -192 513 -154ZM210 -127C191 -160 173 -184 147 -216L80 -179C111 -148 128 -122 144 -87ZM443 -189L371 -216C357 -176 343 -149 318 -115L382 -92C407 -127 426 -156 443 -189ZM297 -560C304 -565 311 -569 318 -571C337 -576 336 -583 319 -586C297 -590 264 -599 234 -610C205 -525 154 -467 48 -402C79 -398 96 -391 120 -365C131 -374 142 -383 151 -391V-355C172 -359 198 -361 231 -361V-292C168 -293 124 -296 87 -300V-229C123 -233 167 -235 231 -236V-56C181 -50 126 -45 67 -43C85 -23 99 7 107 33C204 10 312 -14 427 -31C424 -36 422 -43 420 -51C440 -32 455 -12 466 8C534 -33 590 -68 643 -104V-24C643 8 635 12 533 2C562 19 576 49 574 81C701 65 714 54 714 11V-151C751 -78 804 -26 897 26C909 -3 922 -17 958 -45C877 -68 835 -92 787 -148C819 -169 844 -189 867 -209C888 -227 895 -230 902 -231C919 -235 920 -240 906 -246C888 -253 860 -269 835 -288C814 -251 792 -224 754 -191C740 -212 725 -238 714 -264V-305C812 -305 880 -303 936 -297V-366C908 -362 876 -360 839 -360L852 -507C855 -540 858 -557 863 -574C815 -572 730 -572 647 -572C567 -572 490 -572 446 -574V-511C478 -513 529 -515 583 -515H783L779 -467H629C572 -467 518 -469 483 -472V-407C517 -410 572 -412 629 -412H775L771 -359H545C500 -359 463 -361 428 -366V-297C483 -302 548 -304 643 -305V-170C564 -117 505 -87 420 -54C418 -66 418 -80 421 -92C384 -82 345 -74 302 -66V-236C355 -235 394 -233 426 -229V-300C394 -296 355 -293 302 -292V-362C343 -361 373 -359 398 -355V-422C368 -417 324 -414 274 -414H176C220 -455 243 -484 267 -520C312 -489 346 -462 384 -428L439 -483C388 -515 350 -535 297 -560Z"/>
</svg>