<svg xmlns="http://www.w3.org/2000/svg" viewBox="0 -1000 1000 1000">
	<path fill="#000000" d="M538 -190H439V-213H538ZM591 -32C591 -42 588 -67 588 -88V-200C588 -220 591 -245 591 -255C570 -252 549 -251 485 -251C423 -251 403 -252 381 -255C383 -245 384 -220 384 -200V-88C384 -67 383 -41 381 -32C403 -36 423 -36 485 -36C549 -36 570 -36 591 -32ZM538 -130H439V-154H538ZM538 -71H439V-96H538ZM728 -326H268V-361H728ZM800 -275C794 -310 795 -378 800 -410C726 -406 649 -404 499 -404C350 -404 271 -406 195 -410C203 -381 202 -308 195 -276C271 -280 350 -280 499 -280C648 -280 725 -279 800 -275ZM471 6C481 -1 480 -3 470 -6C458 -9 439 -18 423 -28C397 13 384 28 356 50C381 55 394 62 412 75C421 65 429 55 442 37C450 26 465 11 471 6ZM211 -681H288C304 -642 311 -611 313 -581L393 -599C381 -620 369 -646 355 -681C436 -681 467 -679 500 -675V-745C485 -739 448 -736 345 -736H249C278 -780 287 -790 297 -794C311 -800 310 -805 296 -806C275 -807 246 -816 215 -830C190 -748 109 -661 46 -613C76 -601 88 -590 104 -569C152 -614 186 -649 211 -681ZM584 13C564 -1 552 -10 529 -25L482 -3C507 13 523 28 533 44L582 16C569 32 553 44 534 56C560 58 582 66 604 79C635 56 660 1 675 -59C684 -96 687 -132 684 -201H800L787 -3C785 35 795 50 867 50C931 50 945 38 958 -24C934 -27 917 -35 899 -51C897 -17 887 -3 869 -3C850 -3 843 -7 844 -18L856 -195C856 -211 858 -232 864 -253C829 -250 792 -249 745 -249C697 -249 656 -251 625 -253C631 -166 628 -118 616 -66C607 -30 597 -5 584 13ZM775 -40C766 -102 757 -141 745 -175L695 -163C708 -126 720 -66 721 -27ZM290 -49V-18C290 1 281 10 219 1C238 23 243 43 245 64C320 63 349 40 349 -2V-202C349 -226 351 -242 356 -253C322 -250 288 -249 241 -249C195 -249 161 -250 127 -253C130 -242 133 -221 133 -202V-128C133 -46 113 -6 68 21C87 30 112 49 121 66C160 21 177 -14 184 -49ZM187 -170V-205H290V-170ZM290 -126V-90H187V-126ZM473 -561C302 -561 191 -563 94 -567V-506C135 -509 171 -510 212 -511V-436H642C722 -436 776 -434 812 -431V-489C777 -486 723 -484 642 -484H281V-511H748C808 -511 857 -510 912 -506V-567C820 -563 712 -561 550 -561C543 -582 538 -599 535 -614C545 -608 555 -601 567 -592C590 -619 607 -643 635 -688H706C718 -655 725 -620 727 -586L814 -604C803 -619 785 -656 773 -688C857 -687 902 -684 923 -680V-760C902 -751 857 -745 751 -745H669C693 -784 704 -794 718 -799C734 -803 731 -812 717 -813C686 -814 658 -822 633 -836C624 -771 558 -670 498 -628C505 -626 511 -624 518 -622L448 -611C459 -594 467 -577 473 -561Z"/>
</svg>