<svg xmlns="http://www.w3.org/2000/svg" viewBox="0 -1000 1000 1000">
	<path fill="#000000" d="M726 -562C687 -584 647 -606 608 -626L571 -577C606 -561 642 -541 676 -520C638 -496 589 -478 525 -461C553 -443 564 -427 572 -402C646 -428 695 -449 736 -483C786 -449 833 -415 871 -383L923 -447C877 -475 830 -503 783 -530C842 -599 874 -663 916 -772C870 -767 813 -765 744 -765C675 -765 641 -767 588 -773V-695C641 -700 715 -701 812 -701C787 -645 760 -598 726 -562ZM366 -763C367 -787 375 -807 385 -815C397 -825 394 -832 378 -830C359 -828 313 -830 287 -833C291 -808 295 -758 295 -718V-638H251L205 -670C174 -606 147 -567 81 -509C106 -500 121 -489 136 -471C158 -499 198 -544 235 -583H447C421 -535 400 -510 359 -480C332 -502 305 -521 272 -542L229 -509C252 -494 286 -472 313 -449C258 -417 193 -395 81 -379C102 -352 108 -343 117 -320C172 -327 305 -377 364 -411C441 -455 491 -507 547 -646C516 -642 440 -639 366 -638V-706C452 -705 497 -702 537 -698V-771C496 -766 451 -764 366 -763ZM482 -199V-81C482 -41 479 19 473 74H564C559 18 556 -43 556 -81V-199H574C640 -80 734 -30 879 26C887 6 910 -37 927 -62C767 -90 702 -123 643 -199C768 -198 872 -195 946 -192V-266C881 -263 804 -261 710 -260C758 -312 791 -342 807 -348C821 -353 821 -361 808 -363C779 -367 746 -377 722 -391C709 -351 677 -306 653 -285C670 -279 681 -272 695 -259H556V-304C556 -323 562 -356 569 -363C583 -377 582 -382 564 -382C539 -382 500 -384 473 -388C478 -360 482 -310 482 -259H340L399 -286C376 -323 360 -345 338 -374L265 -341C281 -324 308 -286 322 -260C226 -262 152 -264 86 -267V-192C165 -196 264 -199 400 -199C315 -107 232 -61 98 -17C125 1 145 23 152 42C290 -11 376 -68 473 -199Z"/>
</svg>