<svg xmlns="http://www.w3.org/2000/svg" viewBox="0 -1000 1000 1000">
	<path fill="#000000" d="M918 -152C904 -161 884 -178 868 -195C775 -98 589 -13 373 6C394 26 409 48 417 73C607 38 757 -22 859 -95C888 -116 904 -126 916 -129C934 -134 937 -140 918 -152ZM819 -227C802 -236 786 -248 768 -266C697 -192 572 -129 422 -106C443 -89 459 -72 474 -49C593 -90 700 -132 755 -169C798 -199 805 -202 813 -205C835 -210 836 -217 819 -227ZM713 -303C692 -319 680 -329 664 -347C610 -282 520 -230 410 -198C427 -186 444 -172 458 -150C550 -185 599 -213 671 -261C694 -278 700 -281 707 -282C726 -287 728 -293 713 -303ZM741 -609C722 -556 698 -514 674 -479C662 -509 650 -532 632 -559L577 -532C588 -519 597 -507 605 -494L489 -482C543 -536 569 -558 582 -562C594 -565 595 -575 582 -580C567 -585 555 -591 543 -599C544 -599 741 -609 741 -609ZM843 -615C848 -607 853 -598 858 -588L921 -633C883 -680 838 -722 790 -764L742 -725C767 -700 786 -681 800 -666L534 -657C655 -764 681 -780 694 -785C715 -793 715 -800 695 -805C677 -809 640 -822 615 -839C594 -797 571 -765 504 -699C489 -682 464 -671 436 -669C447 -640 452 -613 452 -592C471 -595 490 -596 515 -597C461 -508 439 -484 395 -484C401 -456 406 -437 408 -411C431 -420 452 -427 480 -430L598 -448C517 -351 426 -290 302 -254C327 -235 341 -217 350 -192C498 -262 560 -314 656 -427C709 -338 782 -273 917 -214C925 -249 937 -273 957 -295C872 -309 774 -363 717 -431C735 -434 755 -437 777 -439L862 -449C868 -436 873 -422 877 -409L944 -444C919 -487 893 -523 867 -560L816 -534C824 -523 831 -510 838 -497L733 -488C772 -543 792 -564 805 -572C822 -581 820 -585 803 -589C786 -593 773 -599 754 -610ZM399 -306C376 -353 363 -374 335 -414L275 -381C295 -348 306 -327 327 -273ZM159 -586C148 -636 140 -691 134 -744L74 -733C83 -682 89 -628 93 -576ZM421 -732C432 -741 431 -744 420 -746C401 -749 359 -758 337 -765C333 -710 320 -641 300 -589C322 -587 349 -582 366 -575C379 -644 406 -720 421 -732ZM199 -522C142 -523 108 -525 76 -529V-453C111 -458 139 -460 189 -460C151 -329 93 -246 28 -181C48 -157 62 -129 74 -96C123 -163 153 -216 199 -332V-99C199 -54 197 2 192 61H276C269 2 268 -51 268 -99V-459C317 -459 353 -457 382 -453V-529C350 -525 316 -523 268 -522V-741C268 -757 274 -777 282 -785C298 -801 295 -806 272 -805C243 -804 217 -805 190 -809C195 -778 199 -725 199 -660Z"/>
</svg>