<svg xmlns="http://www.w3.org/2000/svg" viewBox="0 -1000 1000 1000">
	<path fill="#000000" d="M813 -154H466V-204H813ZM894 -91C889 -105 886 -142 886 -172V-387C886 -418 889 -455 894 -469C841 -465 792 -464 640 -464C488 -464 440 -465 387 -469C392 -455 395 -418 395 -387V-172C395 -142 392 -105 387 -91C440 -96 488 -97 640 -97C792 -97 841 -96 894 -91ZM813 -257H466V-306H813ZM813 -360H466V-406H813ZM578 -45C556 -54 528 -78 516 -93C419 -23 367 1 289 23C315 40 331 59 340 83C402 57 468 26 512 -3C533 -17 560 -27 576 -31C589 -34 590 -40 578 -45ZM950 20C910 -7 854 -38 737 -93L691 -42C778 1 832 35 897 86ZM532 -536H754V-476H819V-535C872 -534 917 -532 950 -527V-603C917 -598 872 -596 819 -595V-630C819 -642 821 -646 830 -651C840 -657 838 -665 826 -665C801 -665 774 -667 748 -670C752 -647 753 -633 754 -595H532V-629C532 -641 534 -645 543 -650C553 -656 551 -664 539 -664C514 -664 488 -667 462 -670C465 -650 467 -624 467 -596C420 -597 383 -599 350 -603V-527C382 -531 420 -534 467 -535V-480H532ZM684 -694C783 -693 852 -690 908 -685V-760C852 -755 783 -752 684 -751V-805C684 -817 686 -821 695 -826C705 -832 703 -841 691 -840C666 -838 628 -839 602 -842C606 -818 608 -786 608 -751C509 -752 443 -755 384 -760V-685C440 -690 509 -693 608 -694V-619H684ZM254 -191V-518C287 -517 312 -515 334 -511V-589C312 -585 287 -583 254 -582V-780C254 -790 258 -801 267 -806C280 -815 278 -823 263 -823C229 -822 203 -822 175 -826C178 -804 178 -789 178 -647V-581C122 -581 85 -583 53 -589V-511C84 -517 122 -519 178 -519V-169C129 -156 80 -144 40 -137C53 -110 66 -77 74 -46C115 -73 209 -110 361 -157C355 -186 353 -211 357 -230C332 -217 295 -204 254 -191Z"/>
</svg>