<svg xmlns="http://www.w3.org/2000/svg" viewBox="0 -1000 1000 1000">
	<path fill="#000000" d="M165 -174L96 -181C91 -121 76 -50 54 5L134 20C148 -50 158 -111 165 -174ZM302 -17C292 -82 286 -126 278 -181L210 -175C219 -120 222 -83 221 -11ZM435 -74C422 -125 411 -159 392 -205L330 -190C347 -142 353 -115 362 -50ZM241 -478C212 -435 178 -389 139 -339C119 -314 86 -296 53 -290C66 -263 73 -241 76 -211C97 -220 128 -227 167 -233L338 -262C341 -248 344 -232 346 -214L424 -237C411 -293 386 -357 365 -395L296 -371C306 -354 315 -336 322 -318L184 -299C253 -384 318 -470 368 -542C395 -581 407 -592 417 -596C426 -600 426 -606 414 -611C378 -625 354 -638 332 -654C321 -619 302 -579 276 -535L155 -533C183 -582 202 -615 246 -696C270 -740 288 -762 306 -774C318 -782 317 -787 301 -790C282 -793 244 -809 210 -831C192 -747 171 -690 127 -606C101 -557 73 -538 44 -532C58 -510 66 -484 67 -453C89 -460 115 -464 158 -469ZM739 -711C726 -754 710 -793 689 -838L600 -808C621 -770 638 -718 645 -677ZM634 -47C535 -48 461 -51 403 -57V30C471 23 550 19 674 19C798 19 888 23 956 30V-57C894 -51 823 -48 717 -47V-308C799 -307 859 -304 909 -298V-385C859 -379 799 -376 717 -375V-596C807 -595 876 -591 928 -585V-673C869 -666 789 -663 680 -663C571 -663 489 -666 430 -673V-585C480 -591 548 -595 634 -596V-375C557 -376 497 -379 450 -385V-298C497 -304 557 -307 634 -308Z"/>
</svg>