<svg xmlns="http://www.w3.org/2000/svg" viewBox="0 -1000 1000 1000">
	<path fill="#000000" d="M395 -789C362 -787 321 -786 260 -786C198 -786 159 -787 125 -789C127 -774 128 -739 128 -707V-393C128 -324 127 -275 125 -200H197V-730H299L240 -545C289 -487 320 -437 318 -404C315 -354 295 -340 226 -358C250 -330 259 -298 260 -272C354 -279 384 -310 387 -389C389 -435 362 -490 303 -552ZM808 -279C807 -244 800 -241 722 -247C750 -228 755 -205 754 -175C861 -182 876 -206 876 -249V-410C876 -444 877 -475 879 -490C835 -488 722 -487 660 -487C598 -487 491 -488 446 -490C448 -474 449 -444 449 -410V-327C449 -287 447 -260 441 -209H515V-279ZM515 -405V-439H808V-405ZM808 -358V-325H515V-358ZM510 -608C545 -611 583 -613 639 -614V-562C566 -562 513 -564 469 -568C483 -581 497 -594 510 -608ZM505 -693C456 -630 392 -581 333 -550C350 -546 377 -527 391 -501C413 -519 435 -537 457 -556V-509C512 -514 582 -517 689 -517C797 -517 867 -514 923 -509V-570C871 -565 806 -562 709 -562V-614C783 -613 834 -610 876 -606V-667C828 -662 769 -659 677 -659C627 -659 590 -660 558 -661C567 -672 576 -683 584 -694H763C814 -694 873 -692 918 -688V-756C873 -752 814 -750 763 -750H621C644 -785 652 -792 664 -795C676 -798 674 -810 661 -811C635 -812 602 -819 579 -836C570 -806 558 -777 543 -750C494 -750 432 -752 391 -756V-688C422 -691 465 -693 505 -693ZM463 -98V-24C291 -24 179 -27 80 -33V46C184 39 308 37 504 37C701 37 825 39 930 46V-33C831 -27 714 -24 535 -24V-98C676 -98 772 -95 849 -89V-165C772 -159 677 -156 537 -156C539 -168 543 -180 548 -183C562 -193 560 -199 544 -199C509 -199 488 -201 459 -205C461 -188 462 -172 463 -156C328 -157 236 -160 159 -165V-89C234 -94 328 -97 463 -98Z"/>
</svg>