<svg xmlns="http://www.w3.org/2000/svg" viewBox="0 -1000 1000 1000">
	<path fill="#000000" d="M179 -178L102 -188C99 -139 76 -56 53 0L138 20C149 -44 167 -129 179 -178ZM317 -9C307 -66 294 -141 284 -193L214 -186C228 -139 233 -58 231 0ZM466 -55C439 -109 416 -171 400 -222L329 -207C353 -157 371 -91 379 -29ZM576 -277H787V-71H576ZM576 -542H787V-342H576ZM500 -605C466 -606 433 -607 402 -609V-536C433 -538 466 -540 500 -541V-142C500 -63 497 10 491 60H576V-8H787V52H868C864 4 863 -41 863 -150V-541C897 -540 929 -538 960 -536V-611C929 -609 897 -607 863 -606V-780C863 -794 867 -804 875 -810C888 -820 885 -829 868 -828C838 -826 821 -827 781 -832C786 -803 787 -773 787 -605H576V-777C576 -795 579 -804 586 -809C600 -818 598 -827 580 -826C549 -824 523 -826 496 -830C499 -802 500 -773 500 -605ZM222 -494C197 -457 166 -417 126 -368C91 -326 78 -318 50 -317C64 -289 71 -263 73 -226C90 -235 117 -243 145 -248L352 -284C355 -272 358 -261 360 -250L441 -290C417 -337 378 -404 345 -450L285 -420C305 -393 320 -367 331 -340L163 -319C230 -404 329 -535 371 -592C381 -605 390 -613 398 -615C413 -619 414 -627 397 -635C376 -645 357 -659 324 -686C305 -641 287 -601 262 -559L150 -549C213 -640 247 -688 268 -718C291 -751 304 -761 309 -763C325 -769 325 -773 309 -780C291 -788 252 -809 222 -827C192 -740 164 -673 128 -620C92 -567 80 -557 52 -554C59 -531 68 -492 73 -462C91 -471 119 -479 147 -483Z"/>
</svg>