<svg xmlns="http://www.w3.org/2000/svg" viewBox="0 -1000 1000 1000">
	<path fill="#000000" d="M169 -169L104 -170C103 -121 90 -41 71 15L146 20C159 -28 169 -108 169 -169ZM285 -4C280 -64 273 -134 262 -177L203 -169C213 -124 218 -55 215 6ZM401 -27C387 -88 368 -154 349 -199L294 -183C309 -137 324 -74 331 -9ZM241 -501C218 -467 189 -426 151 -373C124 -335 98 -315 71 -307C83 -279 91 -245 93 -217C108 -224 122 -227 156 -233L316 -264C320 -247 322 -230 324 -211L399 -232C387 -281 361 -353 337 -403L269 -379C281 -363 292 -342 301 -318L170 -303C219 -362 307 -476 345 -539C366 -575 383 -592 399 -596C418 -601 416 -612 401 -618C385 -626 349 -649 328 -667C314 -629 300 -598 280 -564L160 -558C265 -734 298 -777 320 -786C335 -791 336 -800 312 -807C284 -814 254 -825 225 -843C206 -776 177 -717 143 -653C110 -588 99 -577 69 -565C83 -541 91 -508 91 -477C106 -485 127 -489 156 -492ZM584 -697C609 -742 621 -756 633 -762C655 -774 649 -783 632 -784C605 -785 579 -792 545 -809C502 -678 462 -606 388 -514C408 -508 431 -494 450 -473C495 -534 514 -564 549 -631H786C850 -631 919 -628 950 -624V-705C919 -700 850 -697 786 -697ZM643 -401C613 -391 584 -380 556 -370V-417C556 -430 561 -447 569 -454C580 -463 578 -471 558 -470C539 -469 504 -471 483 -477C486 -457 487 -413 487 -348C448 -335 415 -326 393 -320L417 -250C440 -260 462 -269 487 -279V-99C487 18 496 46 622 49C675 50 754 49 824 41C918 31 923 27 974 -93C948 -98 923 -112 892 -144C867 -50 853 -32 796 -28C737 -24 649 -24 612 -28C557 -34 556 -50 556 -98V-304C581 -314 609 -324 643 -336V-226C643 -186 643 -152 640 -113H716C714 -152 713 -186 713 -226V-361L833 -404L830 -305C828 -246 819 -235 741 -247C760 -209 766 -190 770 -158C874 -178 892 -200 897 -280L910 -508C882 -493 824 -470 713 -427V-545C713 -557 720 -576 727 -584C738 -597 736 -605 718 -604C692 -602 669 -604 638 -609C641 -583 643 -529 643 -420Z"/>
</svg>