<svg xmlns="http://www.w3.org/2000/svg" viewBox="0 -1000 1000 1000">
	<path fill="#000000" d="M185 -180L106 -195C98 -127 81 -52 58 5L145 28C152 -38 167 -117 185 -180ZM308 -2C304 -62 298 -127 290 -180L220 -175C229 -125 232 -56 229 1ZM445 -22C436 -78 422 -145 410 -196L338 -183C352 -138 365 -53 366 -2ZM560 -13H805V55H885C882 12 880 -32 880 -80V-277C880 -319 881 -337 884 -357C846 -354 820 -353 683 -353C545 -353 521 -354 483 -357C487 -335 488 -314 488 -277V-75C488 -27 486 16 481 64H560ZM805 -77H560V-284H805ZM836 -458C848 -435 859 -411 870 -385L953 -423C908 -512 843 -605 796 -664L725 -625C752 -590 777 -557 801 -519L527 -506C590 -586 622 -631 662 -695C685 -732 715 -761 729 -767C749 -776 747 -785 732 -789C696 -799 658 -817 633 -836C621 -766 598 -713 499 -569C470 -527 456 -518 415 -500C432 -473 442 -443 450 -407C494 -420 542 -430 636 -439ZM254 -508C229 -472 188 -420 126 -346C107 -324 92 -317 66 -316C80 -285 88 -257 95 -217C112 -225 141 -234 159 -237L366 -272C371 -256 376 -239 380 -224L459 -256C440 -305 403 -374 373 -422L305 -394C319 -377 331 -355 343 -330L185 -312C248 -392 286 -440 385 -563C421 -608 437 -624 459 -636C471 -643 472 -648 459 -654C429 -668 399 -685 371 -707C361 -675 332 -625 300 -577L177 -571C217 -639 245 -682 277 -728C299 -761 311 -773 323 -781C335 -790 335 -794 316 -800C293 -807 257 -828 231 -845C214 -765 183 -696 133 -614C117 -588 102 -575 69 -566C82 -543 90 -516 93 -481C114 -489 141 -495 166 -498Z"/>
</svg>