<svg xmlns="http://www.w3.org/2000/svg" viewBox="0 -1000 1000 1000">
	<path fill="#000000" d="M238 -520C208 -475 174 -431 141 -395C111 -361 81 -343 49 -341C67 -308 72 -292 79 -242C115 -259 145 -266 172 -270L315 -294C317 -282 319 -269 320 -257L399 -274C379 -332 362 -369 337 -424L269 -408C281 -394 292 -373 300 -349L166 -338C217 -394 266 -449 306 -507C341 -557 392 -614 399 -617C415 -624 415 -629 399 -634C383 -639 344 -664 325 -680C313 -650 295 -614 274 -577L151 -572C192 -617 219 -652 275 -730C291 -752 305 -764 313 -767C329 -773 329 -780 309 -786C291 -791 257 -812 230 -834C204 -758 186 -723 130 -645C91 -590 80 -581 57 -573C70 -539 77 -515 83 -481C99 -492 125 -500 153 -505ZM159 -200L93 -211C90 -146 74 -66 52 -17L135 -5C145 -69 153 -137 159 -200ZM276 -32C276 -102 274 -149 269 -215L197 -210C208 -150 209 -99 201 -32ZM412 -78C401 -133 388 -186 374 -236L311 -222C327 -152 330 -133 333 -60ZM716 -169V-285C811 -284 864 -280 915 -274V-356C864 -349 806 -346 716 -346V-384C716 -394 720 -409 727 -414C736 -422 733 -429 721 -428C696 -427 668 -428 635 -433C639 -425 642 -399 643 -346C534 -347 477 -349 427 -356V-274C480 -281 538 -284 643 -285V-169H529C533 -212 541 -232 552 -243C562 -253 561 -258 549 -257C529 -256 493 -260 471 -267C474 -213 464 -165 441 -99C474 -102 500 -103 643 -103C643 -42 641 35 637 75H721C717 36 716 -41 716 -103C866 -103 891 -100 921 -96V-179C892 -171 869 -169 716 -169ZM739 -529C798 -581 853 -652 886 -736C841 -732 805 -730 753 -730H586C598 -745 622 -771 632 -776C653 -787 651 -794 635 -798C618 -803 583 -819 555 -836C517 -733 481 -663 401 -578C425 -568 442 -556 466 -532C488 -562 503 -585 528 -628C553 -594 587 -560 626 -528C563 -487 488 -463 358 -440C389 -417 398 -406 407 -374C522 -405 620 -448 681 -485C748 -438 808 -412 923 -383C928 -433 936 -447 958 -469C868 -480 799 -499 739 -529ZM569 -668H777C754 -634 717 -597 676 -565C631 -597 592 -636 569 -668Z"/>
</svg>