<svg xmlns="http://www.w3.org/2000/svg" viewBox="0 -1000 1000 1000">
	<path fill="#000000" d="M301 -124C254 -84 183 -47 60 -6C96 14 114 28 131 54C214 8 343 -50 358 -51C396 -54 395 -62 375 -70C346 -82 325 -99 301 -124ZM947 -26C859 -58 801 -79 690 -117L645 -50C743 -22 833 14 898 49ZM461 -289C332 -234 210 -199 116 -188C127 -167 131 -147 131 -122C173 -129 398 -150 489 -155V-32C489 -4 477 6 377 -5C401 21 415 46 425 76C554 62 569 49 569 11V-158L780 -167C795 -151 810 -134 825 -115L905 -165C845 -211 777 -259 694 -312L618 -276C660 -256 693 -237 721 -217L334 -195C472 -239 523 -258 607 -293C745 -351 759 -355 777 -355C806 -356 808 -363 784 -374C763 -384 727 -406 704 -426C688 -410 628 -373 572 -342L278 -325C408 -381 466 -398 486 -402C519 -408 521 -413 501 -419C481 -424 452 -442 430 -463C344 -390 263 -354 161 -332C175 -310 183 -290 188 -265C212 -271 253 -276 303 -279ZM348 -650V-699C415 -698 465 -695 503 -692V-759C465 -754 415 -752 348 -752C349 -784 356 -808 366 -814C383 -825 378 -833 363 -832C328 -830 294 -830 266 -834C272 -821 275 -800 276 -752C209 -752 161 -754 123 -759V-692C160 -695 209 -698 276 -699V-650C214 -650 167 -652 131 -655V-589C167 -592 213 -593 276 -594V-541C200 -541 144 -543 99 -547V-482C143 -485 200 -487 276 -488C275 -464 272 -436 267 -417H355C352 -439 349 -464 348 -488C417 -487 468 -485 509 -482V-547C468 -543 417 -541 348 -541V-594C406 -593 450 -591 485 -589V-655C450 -652 406 -650 348 -650ZM637 -720C641 -571 601 -513 495 -447C535 -436 553 -426 575 -406C673 -496 702 -555 709 -721H832C833 -686 832 -638 826 -540C822 -505 806 -497 709 -503C733 -476 742 -455 750 -427C883 -444 896 -460 900 -557C905 -638 906 -718 912 -785C855 -779 825 -778 746 -778C624 -778 572 -780 527 -785V-715C563 -719 598 -720 637 -720Z"/>
</svg>