<svg xmlns="http://www.w3.org/2000/svg" viewBox="0 -1000 1000 1000">
	<path fill="#000000" d="M150 -179L82 -180C81 -133 69 -56 51 -2L127 3C139 -43 150 -120 150 -179ZM271 -22C267 -80 260 -147 248 -189L187 -181C196 -138 202 -71 198 -13ZM403 -45C390 -106 371 -171 352 -214L292 -198C306 -154 322 -94 329 -31ZM226 -498C202 -464 173 -423 134 -370C108 -334 77 -316 42 -309C56 -286 66 -252 68 -222C84 -232 111 -241 143 -245L339 -272C342 -255 345 -238 347 -219L418 -240C407 -287 381 -356 357 -404L293 -381C304 -366 315 -347 323 -324L163 -306C235 -393 320 -505 356 -567C377 -600 393 -619 408 -623C422 -627 422 -640 410 -644C393 -650 355 -671 333 -688C316 -640 301 -610 267 -559L144 -553C247 -722 280 -764 301 -772C316 -777 317 -788 293 -792C266 -797 233 -810 204 -827C185 -763 161 -710 124 -641C90 -579 81 -571 51 -560C65 -537 73 -505 73 -475C91 -485 118 -489 136 -490ZM574 -350C555 -409 534 -453 493 -509L436 -475C475 -415 487 -386 508 -320ZM720 -760C764 -732 796 -697 817 -655L881 -708C849 -745 814 -779 778 -809ZM689 -498V-575C787 -575 853 -572 908 -566V-646C853 -640 787 -638 689 -638V-757C689 -776 692 -783 702 -793C718 -809 714 -819 687 -818C659 -817 636 -819 603 -825C610 -794 615 -722 616 -638C532 -639 472 -641 422 -646V-566C472 -571 532 -574 616 -575V-331C455 -172 442 -162 387 -134C422 -115 436 -105 467 -66C489 -104 510 -135 616 -244V-59C616 -28 610 -23 524 -31C547 6 553 30 553 68C681 54 689 40 689 -28V-338C736 -184 799 -107 907 -19C921 -50 943 -76 981 -99C916 -128 861 -168 810 -233C796 -251 782 -274 767 -300C800 -338 827 -372 850 -404C868 -429 887 -446 898 -451C914 -459 914 -466 906 -469C881 -479 854 -497 827 -519C809 -472 792 -438 741 -356C722 -401 703 -449 689 -498Z"/>
</svg>