<svg xmlns="http://www.w3.org/2000/svg" viewBox="0 -1000 1000 1000">
	<path fill="#000000" d="M705 -175L831 -185C839 -173 846 -161 851 -150L931 -175C900 -218 859 -265 818 -304L752 -286C766 -272 781 -255 796 -236L549 -213C628 -250 700 -289 760 -325C829 -367 845 -374 854 -374C872 -375 873 -383 855 -386C832 -390 812 -398 778 -415C766 -402 737 -381 666 -338L540 -330C588 -352 621 -370 659 -391C689 -408 699 -415 707 -416C723 -418 723 -426 704 -431C678 -438 658 -451 644 -465C620 -433 579 -402 515 -366C490 -351 458 -335 419 -322C432 -308 442 -288 446 -271C462 -276 483 -278 522 -282L583 -288C579 -286 575 -283 571 -281C514 -247 457 -224 410 -217C427 -200 438 -170 440 -148C479 -155 517 -160 631 -169V-29C631 -1 617 8 549 -6C565 14 579 46 582 79C682 68 705 43 705 5ZM559 -110C574 -114 572 -126 553 -124C533 -122 507 -126 476 -136C467 -93 443 -48 385 10C417 13 449 21 467 32C522 -73 547 -107 559 -110ZM919 -11C890 -51 842 -114 802 -153L745 -118C781 -82 826 -15 847 24ZM670 -500C729 -464 809 -438 927 -415C935 -448 944 -468 966 -501C862 -502 786 -515 726 -541C785 -590 835 -654 880 -745C846 -743 802 -741 748 -741H592C605 -768 614 -779 627 -787C642 -796 642 -802 621 -807C599 -812 572 -824 545 -836C522 -723 479 -650 404 -570C427 -559 446 -545 467 -528C498 -568 523 -605 542 -638C563 -599 586 -567 616 -539C556 -507 481 -482 385 -460V-574C385 -590 387 -597 394 -603C405 -611 404 -621 390 -618C367 -613 340 -614 310 -620C313 -595 314 -560 314 -514V-251C314 -213 313 -176 310 -129H389C386 -173 385 -213 385 -251V-459C406 -434 417 -414 426 -392C522 -425 602 -456 670 -500ZM670 -574C634 -601 604 -636 576 -679H765C740 -637 709 -603 670 -574ZM176 -485V-144C176 -72 171 14 165 71H250V-625C308 -755 317 -771 324 -776C343 -788 338 -795 322 -798C303 -802 266 -818 236 -834C221 -757 202 -698 174 -633C140 -555 94 -488 36 -428C61 -408 77 -386 92 -360C119 -396 149 -442 176 -485Z"/>
</svg>