<svg xmlns="http://www.w3.org/2000/svg" viewBox="0 -1000 1000 1000">
	<path fill="#000000" d="M807 -465H522V-541H807ZM883 -399C879 -426 877 -466 877 -504C877 -543 880 -581 883 -606C829 -601 770 -598 661 -598C555 -598 499 -601 444 -606C450 -578 452 -543 452 -505C452 -467 450 -429 444 -400C496 -404 555 -406 661 -406C770 -406 833 -404 883 -399ZM153 -183L91 -184C90 -137 79 -60 61 -6L132 -1C147 -65 153 -124 153 -183ZM264 -26C260 -84 251 -151 242 -193L187 -185C196 -142 201 -75 198 -17ZM384 -52C369 -115 352 -175 335 -218L283 -202C302 -135 310 -97 318 -35ZM226 -502C202 -467 174 -426 140 -379C115 -344 90 -323 65 -316C78 -283 84 -259 85 -229C99 -235 114 -239 144 -245L309 -277C313 -261 316 -244 317 -226L386 -247C375 -294 356 -351 327 -411L265 -388C277 -372 287 -352 295 -328L158 -312C230 -397 307 -502 343 -563C363 -596 379 -614 394 -618C412 -622 410 -633 396 -639C379 -646 348 -667 328 -685C314 -649 295 -611 265 -563L148 -557C247 -726 279 -768 299 -776C313 -781 314 -790 291 -796C262 -804 237 -814 210 -831C193 -775 165 -710 133 -648C101 -586 91 -575 63 -564C76 -541 84 -509 84 -479C101 -488 117 -491 144 -494ZM711 -108C819 -107 900 -105 956 -102V-177C902 -174 811 -171 711 -170V-204L823 -255C871 -277 889 -283 909 -287V-346C872 -342 787 -339 654 -339C517 -339 449 -342 411 -346V-274C445 -278 510 -280 596 -280H753L634 -227V-170C531 -170 446 -172 385 -177V-102C444 -106 530 -108 634 -108V-40C634 -12 617 2 526 -5C550 26 558 49 563 81C681 72 711 41 711 -10ZM626 -728C534 -729 448 -733 396 -737V-657C465 -663 551 -665 680 -665C810 -665 882 -662 950 -657V-739C897 -734 781 -729 708 -728C701 -771 696 -792 685 -830L603 -817C614 -786 622 -757 626 -728Z"/>
</svg>