<svg xmlns="http://www.w3.org/2000/svg" viewBox="0 -1000 1000 1000">
	<path fill="#000000" d="M583 -272H493V-472H583ZM421 -203C461 -207 496 -208 544 -208C585 -208 620 -206 650 -203C646 -247 644 -274 644 -306V-431C644 -470 647 -519 650 -541C629 -536 605 -534 537 -534C500 -534 451 -537 425 -541C428 -520 431 -466 431 -431V-317C431 -275 428 -248 421 -203ZM163 -167L90 -177C89 -128 71 -46 49 10L133 25C145 -45 155 -104 163 -167ZM664 -93C655 -117 654 -144 660 -169C569 -126 480 -97 405 -87C420 -58 429 -31 434 0C497 -38 583 -69 664 -93ZM278 -6C268 -70 263 -121 261 -180L197 -174C206 -121 207 -73 202 0ZM405 -54C388 -119 377 -156 360 -203L302 -188C316 -141 327 -97 335 -32ZM679 -614C690 -386 700 -243 726 -159C690 -100 638 -53 559 2C580 12 599 25 626 53C677 7 720 -40 755 -91C776 -42 799 -4 819 18C881 86 896 86 961 -117C939 -124 912 -148 891 -191C875 -26 866 -19 797 -163C816 -205 854 -310 886 -419C894 -446 908 -465 918 -472C934 -483 932 -493 916 -495C901 -497 865 -508 832 -522C830 -463 798 -338 770 -256C758 -330 750 -449 744 -614C830 -613 883 -610 937 -604V-685C883 -680 829 -677 743 -676C743 -714 744 -749 747 -773C749 -793 752 -806 756 -811C775 -832 774 -835 748 -834C727 -833 693 -835 668 -840C670 -803 672 -768 676 -676C541 -676 478 -679 411 -685V-604C477 -611 544 -614 679 -614ZM229 -491C199 -444 163 -395 125 -347C102 -319 83 -308 58 -304C71 -278 78 -253 80 -227C101 -235 120 -240 157 -246L324 -274C327 -261 329 -246 331 -229L403 -250C390 -305 366 -368 347 -406L284 -385C295 -366 304 -347 310 -327L169 -308C236 -394 305 -486 350 -550C377 -588 392 -602 397 -604C405 -607 404 -613 394 -617C364 -629 340 -643 319 -659C311 -634 291 -594 263 -547L154 -545C197 -604 227 -649 264 -706C288 -743 314 -774 328 -784C338 -791 337 -794 324 -798C302 -805 264 -822 235 -838C213 -755 185 -703 135 -617C108 -571 86 -550 59 -543C72 -521 79 -496 80 -466C104 -473 122 -478 158 -482ZM903 -748C884 -775 868 -796 849 -819L787 -776C808 -754 826 -727 841 -697Z"/>
</svg>