<svg xmlns="http://www.w3.org/2000/svg" viewBox="0 -1000 1000 1000">
	<path fill="#000000" d="M802 -470H524V-562H802ZM882 -403C879 -427 878 -465 878 -503V-690C878 -728 879 -760 882 -787C854 -785 775 -782 675 -782C551 -782 482 -784 447 -787C450 -760 451 -728 451 -690V-503C451 -464 450 -425 447 -401C492 -404 529 -405 665 -405C799 -405 838 -404 882 -403ZM802 -628H524V-715H802ZM764 -157C886 -266 920 -288 949 -297C963 -301 965 -311 949 -317C923 -328 899 -347 880 -367C860 -335 828 -299 764 -239V-340C764 -348 768 -354 778 -361C790 -369 788 -377 775 -376C755 -375 724 -377 690 -380C693 -366 694 -323 694 -286V-21C694 32 717 52 811 52C911 52 928 42 962 -36C930 -42 905 -56 884 -83C869 -21 856 -13 830 -13C775 -13 764 -24 764 -45ZM534 -283V-338C534 -348 537 -356 545 -362C554 -368 554 -375 541 -374C516 -372 488 -373 461 -376C464 -357 465 -339 465 -285V-87C465 -39 460 -25 438 -2C460 20 472 38 482 65C497 47 517 32 541 19L650 -38C648 -53 647 -86 648 -110C621 -92 590 -78 534 -55V-220H599C630 -220 651 -218 667 -215V-288C650 -285 630 -283 598 -283ZM167 -169L95 -173C94 -124 78 -38 56 26L137 36C151 -22 162 -97 167 -169ZM290 10C285 -56 275 -116 260 -180L200 -172C210 -121 214 -65 212 15ZM428 -24C413 -90 396 -149 380 -192L311 -177C328 -135 342 -77 351 -3ZM235 -495C213 -464 182 -426 119 -355C93 -326 76 -314 47 -307C58 -278 69 -242 74 -218C90 -224 113 -232 135 -235L341 -263C347 -247 351 -232 354 -217L429 -245C407 -306 384 -357 358 -407L286 -382C297 -365 308 -344 319 -321L164 -305C245 -402 370 -565 386 -590C394 -603 406 -611 414 -614C427 -620 427 -630 414 -636C403 -641 361 -670 339 -688C328 -658 302 -606 270 -552L149 -550C193 -609 249 -691 269 -723C281 -742 306 -769 314 -772C329 -778 327 -786 307 -792C290 -797 249 -815 222 -829C200 -751 180 -707 127 -626C92 -572 79 -560 54 -553C67 -528 75 -501 79 -466C95 -472 120 -479 138 -482Z"/>
</svg>