<svg xmlns="http://www.w3.org/2000/svg" viewBox="0 -1000 1000 1000">
	<path fill="#000000" d="M221 -514C191 -460 155 -402 113 -342C94 -315 68 -305 42 -301C55 -270 61 -247 65 -215C82 -224 95 -229 138 -235L306 -260C312 -243 316 -227 318 -215L385 -244C368 -288 346 -338 316 -385L252 -361C263 -347 272 -332 280 -316L155 -302C227 -400 279 -483 331 -571C350 -603 369 -629 376 -633C391 -639 392 -648 378 -654C361 -660 325 -678 301 -694C291 -660 274 -619 251 -572L141 -563C183 -624 217 -676 249 -728C259 -743 280 -769 288 -772C302 -778 302 -787 288 -793C261 -804 236 -817 203 -836C191 -782 167 -721 118 -635C87 -581 77 -571 55 -563C63 -543 72 -510 76 -480C100 -490 123 -496 143 -500ZM150 -176L87 -184C86 -136 71 -53 55 2L128 17C137 -40 146 -120 150 -176ZM272 -12C266 -64 256 -129 247 -178L184 -173C194 -124 200 -65 200 -8ZM393 -36C382 -93 369 -151 354 -203L290 -191C308 -141 318 -77 321 -23ZM762 -406H847V-321H762ZM695 -321H612V-406H695ZM695 -467H612V-549H695ZM762 -549H847V-467H762ZM426 -483V-150C426 -78 422 8 416 65H492V17C522 34 532 44 551 69C608 35 652 -1 685 -42C749 3 831 36 928 56C941 16 948 0 968 -20C860 -33 780 -60 721 -97C746 -144 758 -196 761 -257C852 -257 883 -255 919 -250C916 -265 913 -299 913 -328V-540C913 -569 916 -603 919 -617C883 -613 852 -612 762 -612V-706C839 -705 892 -702 938 -697V-777C888 -771 829 -768 739 -768C649 -768 590 -771 540 -777V-697C581 -702 629 -705 695 -706V-612C607 -612 577 -613 542 -617C545 -603 548 -569 548 -540V-328C548 -299 545 -265 542 -250C577 -255 607 -257 694 -257C692 -211 683 -173 669 -140C641 -169 620 -203 606 -241L547 -218C565 -168 594 -123 634 -84C601 -45 554 -15 492 12V-670C513 -736 533 -779 548 -793C565 -808 562 -815 541 -816C522 -817 497 -825 465 -840C438 -678 378 -493 312 -406C342 -390 354 -383 370 -362C386 -391 407 -437 426 -483Z"/>
</svg>