<svg xmlns="http://www.w3.org/2000/svg" viewBox="0 -1000 1000 1000">
	<path fill="#000000" d="M225 -500C198 -452 172 -415 142 -380C112 -345 89 -333 55 -326C66 -300 74 -270 70 -235C98 -250 115 -256 149 -261L324 -287C329 -273 332 -259 335 -245L415 -271C394 -323 369 -375 334 -432L272 -402C281 -391 291 -372 301 -349L178 -334C235 -401 283 -470 329 -539C346 -565 365 -585 380 -593C396 -601 395 -610 380 -616C352 -626 320 -642 297 -656C293 -639 283 -614 259 -565L152 -557C190 -614 227 -673 261 -729C277 -756 289 -771 303 -777C319 -784 317 -791 296 -794C277 -797 233 -811 203 -825C195 -775 171 -703 126 -622C100 -575 80 -561 50 -556C59 -532 62 -504 62 -473C82 -484 99 -488 124 -490ZM156 -189L78 -194C79 -128 71 -61 45 6L123 21C137 -36 151 -123 156 -189ZM284 -20C281 -72 274 -131 261 -195L189 -192C197 -138 201 -77 200 -18ZM430 -49C415 -109 396 -165 373 -217L304 -196C325 -145 339 -93 349 -28ZM538 -535C523 -579 504 -618 481 -663L412 -629C439 -581 451 -550 464 -502ZM918 -634L842 -668C832 -623 815 -575 791 -533L854 -501C877 -539 898 -584 918 -634ZM561 -478C458 -478 405 -481 368 -487V-411C409 -415 460 -418 658 -418C881 -418 927 -415 960 -411V-487C930 -482 881 -478 769 -478V-713C864 -712 902 -709 928 -704V-783C898 -777 861 -774 658 -774C479 -774 437 -777 399 -783V-704C432 -710 474 -713 561 -713ZM633 -713H699V-478H633ZM808 15V70H886C882 24 880 -17 880 -65V-259C880 -293 881 -335 883 -361C850 -355 785 -352 668 -352C548 -352 486 -355 451 -361C454 -335 457 -293 457 -259V-69C457 -20 454 21 447 66H527V15ZM527 -202V-289H808V-202ZM808 -139V-46H527V-139Z"/>
</svg>