<svg xmlns="http://www.w3.org/2000/svg" viewBox="0 -1000 1000 1000">
	<path fill="#000000" d="M869 -402C866 -416 863 -451 863 -481V-693C863 -723 865 -760 869 -775C824 -769 783 -767 653 -767C523 -767 482 -768 437 -775C440 -758 443 -723 443 -693V-481C443 -451 440 -415 437 -402C481 -406 523 -407 653 -407C783 -407 824 -406 869 -402ZM795 -468H510V-705H795ZM656 -592C690 -549 702 -530 730 -483L784 -528C749 -571 729 -593 681 -641C689 -652 695 -657 700 -658C716 -661 714 -674 697 -678C674 -684 666 -687 638 -701C609 -606 590 -578 518 -512C540 -502 557 -489 574 -471C619 -528 640 -559 656 -592ZM146 -181L79 -191C78 -142 60 -58 39 -2L122 13C135 -57 142 -116 146 -181ZM267 -21C256 -84 252 -129 250 -188L185 -182C194 -129 195 -89 190 -15ZM386 -75C376 -119 365 -158 350 -203L290 -190C303 -141 307 -119 315 -56ZM231 -503C198 -454 160 -402 120 -352C97 -323 79 -313 54 -309C66 -282 73 -257 76 -230C96 -237 120 -242 155 -247L313 -270C317 -256 320 -241 322 -223L392 -244C379 -300 356 -364 336 -402L271 -380C281 -362 290 -344 297 -325L165 -312C237 -396 310 -490 356 -561C381 -600 397 -617 406 -618C416 -619 416 -629 404 -633C374 -643 348 -656 327 -672C318 -646 297 -606 268 -560L153 -558C190 -611 204 -639 232 -704C257 -762 277 -779 295 -784C309 -788 306 -798 291 -801C267 -806 233 -820 205 -836C183 -751 165 -707 125 -632C95 -575 80 -563 53 -557C66 -535 74 -509 75 -478C98 -487 117 -490 152 -494ZM899 -32V-259C899 -281 900 -313 902 -336C849 -334 791 -333 658 -333C525 -333 466 -334 414 -336C415 -313 416 -281 416 -259V-32C396 -33 370 -34 347 -35V35C395 31 439 30 651 30C863 30 928 31 960 35V-35C945 -34 920 -33 899 -32ZM756 -275H831V-32H756ZM555 -32H480V-275H555ZM618 -275H694V-32H618Z"/>
</svg>