<svg xmlns="http://www.w3.org/2000/svg" viewBox="0 -1000 1000 1000">
	<path fill="#000000" d="M823 -485H515V-531H823ZM896 -422C895 -439 893 -482 893 -518V-702C893 -737 895 -781 896 -798C868 -794 749 -790 663 -790C579 -790 471 -795 444 -798C445 -781 447 -737 447 -702V-518C447 -482 445 -439 444 -422C470 -425 579 -429 663 -429C749 -429 868 -425 896 -422ZM823 -582H515V-629H823ZM823 -681H515V-732H823ZM151 -183L84 -184C84 -137 71 -60 53 -6L129 -1C141 -47 151 -124 151 -183ZM269 -26C265 -84 258 -151 247 -193L191 -185C200 -142 205 -75 202 -17ZM391 -52C378 -111 359 -175 341 -218L286 -202C300 -158 315 -98 322 -35ZM245 -512C218 -472 186 -428 147 -379C113 -336 75 -314 49 -307C62 -280 68 -250 70 -220C84 -227 122 -240 151 -245L322 -277C325 -260 328 -242 330 -223L400 -244C389 -291 364 -360 340 -408L277 -385C288 -369 299 -350 307 -328L165 -312C239 -395 328 -513 368 -573C392 -610 405 -624 420 -628C438 -632 437 -646 422 -649C396 -655 369 -672 343 -695C328 -657 308 -617 282 -573L156 -567C257 -731 295 -777 317 -786C330 -791 332 -803 309 -806C281 -810 247 -824 219 -841C200 -777 179 -724 141 -658C107 -599 86 -585 57 -574C70 -551 78 -519 78 -489C98 -496 122 -501 152 -504ZM531 -247C508 -301 491 -331 460 -373L407 -346C434 -305 451 -271 464 -219ZM935 -350C917 -353 892 -365 868 -382C844 -333 818 -294 786 -258C805 -252 817 -244 837 -227C908 -323 919 -331 930 -332C946 -334 948 -347 935 -350ZM569 -160C567 -58 506 -27 352 2C372 14 398 44 410 73C590 22 637 -44 637 -157V-370C637 -379 640 -385 648 -389C661 -394 658 -407 641 -407C608 -405 591 -405 560 -408C565 -397 569 -377 569 -342V-225C509 -189 449 -161 386 -139C408 -118 423 -99 437 -79C466 -101 504 -125 569 -160ZM764 -231V-369C764 -382 766 -387 773 -389C786 -395 783 -412 767 -410C751 -409 721 -410 688 -413C693 -398 696 -375 696 -353V-19C696 22 708 49 763 51C791 52 838 52 878 51C916 50 949 19 959 -53C928 -58 913 -65 890 -86C882 -35 869 -13 851 -12C838 -12 820 -12 802 -12C770 -13 764 -20 764 -52V-173C831 -134 861 -114 899 -83L945 -139C890 -171 831 -202 764 -231Z"/>
</svg>