<svg xmlns="http://www.w3.org/2000/svg" viewBox="0 -1000 1000 1000">
	<path fill="#000000" d="M155 -171L87 -181C86 -132 68 -48 46 8L125 23C137 -47 147 -108 155 -171ZM277 -14C267 -78 262 -131 260 -190L193 -184C202 -131 203 -82 198 -8ZM405 -51C388 -118 377 -155 360 -202L299 -187C314 -139 324 -94 333 -29ZM228 -487C198 -444 163 -397 123 -347C99 -318 80 -308 55 -304C68 -277 75 -252 78 -225C98 -232 125 -237 152 -239L306 -258C309 -242 312 -226 314 -207L380 -227C368 -283 343 -347 323 -385L265 -364C275 -347 283 -331 289 -314L166 -307C237 -390 301 -472 347 -536C374 -574 392 -589 400 -592C409 -596 409 -602 397 -607C367 -619 341 -634 320 -650C311 -625 293 -590 266 -546L146 -543C185 -599 205 -633 236 -703C254 -743 278 -769 297 -777C310 -783 311 -794 296 -797C270 -803 230 -820 202 -838C179 -750 163 -705 122 -617C101 -573 77 -548 49 -542C63 -520 71 -494 72 -463C95 -471 115 -475 151 -479ZM680 -73H534V-159H680ZM680 -299V-216H534V-299ZM527 -492C542 -513 557 -529 569 -536C585 -545 581 -557 568 -558C548 -559 517 -569 493 -583C464 -484 419 -415 352 -348C374 -334 388 -313 403 -283C421 -310 437 -333 466 -386V-93C466 -31 464 13 458 73H534V-13H730C820 -13 866 -13 937 -8V-81C872 -75 828 -73 749 -73V-159C809 -159 849 -158 906 -154V-224C850 -218 809 -217 749 -216V-299C806 -299 848 -298 902 -294V-364C849 -359 806 -357 749 -356V-434C818 -434 865 -433 925 -429V-500C863 -494 805 -492 714 -492ZM680 -434V-356H534V-434ZM629 -658H503C503 -740 506 -764 515 -775C524 -785 519 -792 511 -791C490 -789 457 -790 432 -794C436 -769 437 -742 437 -593C477 -597 513 -598 709 -598L643 -576C662 -552 673 -527 682 -498L761 -525C752 -546 732 -579 717 -598C833 -597 858 -596 890 -593C890 -704 892 -765 900 -775C908 -786 904 -793 897 -792C876 -790 841 -791 819 -795C822 -767 823 -743 823 -658H700V-781C700 -793 704 -808 710 -812C724 -823 721 -832 703 -831C673 -830 651 -831 624 -834C627 -818 629 -790 629 -765Z"/>
</svg>