<svg xmlns="http://www.w3.org/2000/svg" viewBox="0 -1000 1000 1000">
	<path fill="#000000" d="M751 -278L859 -284C869 -266 876 -251 879 -243L952 -279C920 -338 878 -399 837 -449L783 -405C792 -397 810 -370 828 -339L610 -331C677 -386 745 -447 800 -503C858 -562 873 -568 883 -568C902 -569 904 -585 886 -590C865 -596 840 -611 809 -635C799 -615 775 -577 737 -529L572 -515C612 -547 643 -575 675 -609C695 -632 706 -638 722 -642C738 -646 739 -656 721 -663C701 -671 677 -688 662 -706C687 -709 713 -712 738 -716C807 -726 869 -734 915 -734C935 -734 938 -737 924 -753C909 -770 896 -792 881 -823C833 -802 774 -788 698 -777C577 -759 543 -755 503 -757C520 -736 528 -717 533 -689C560 -693 603 -698 650 -704C630 -658 612 -622 579 -583C556 -555 529 -536 494 -520C510 -497 521 -471 525 -446C541 -453 569 -462 597 -465L691 -476C671 -454 648 -430 623 -405C590 -373 545 -342 504 -332C519 -308 527 -286 531 -257C559 -265 604 -270 679 -275V-38C679 0 668 10 603 -5C619 23 627 43 636 81C744 62 751 55 751 4ZM314 -55V-218C372 -217 422 -215 472 -209V-291C419 -284 371 -282 314 -281V-379C389 -379 421 -377 456 -373V-447C416 -442 386 -440 297 -441H185C191 -447 199 -453 203 -455C216 -461 214 -466 202 -469C187 -473 164 -486 141 -503C123 -452 92 -390 46 -348C73 -343 94 -331 111 -314C127 -338 136 -354 149 -379H246V-281C162 -281 101 -285 58 -291V-208C101 -215 162 -218 246 -218V-51L163 -45V-124C163 -139 166 -150 177 -156C189 -163 184 -169 171 -168C143 -166 121 -167 92 -171C95 -159 96 -148 96 -124V-25C96 -3 95 8 93 23C128 19 154 16 241 9L402 -4V52H472C470 30 469 13 469 -10V-138C469 -150 472 -155 486 -162C496 -167 494 -173 477 -172C445 -170 431 -170 396 -174C400 -163 402 -135 402 -110V-61ZM626 -170C639 -183 638 -185 620 -187C604 -188 587 -191 558 -199C552 -138 525 -67 493 -8C517 -7 548 1 564 13C602 -119 617 -162 626 -170ZM946 -36C919 -89 884 -151 849 -206L789 -170C824 -120 853 -55 871 0ZM192 -528C173 -565 156 -599 139 -632L79 -605C98 -573 109 -548 122 -502ZM501 -614C518 -625 517 -630 499 -632C482 -634 457 -643 428 -656C410 -588 397 -552 369 -503C393 -502 407 -498 425 -487C468 -580 484 -603 501 -614ZM327 -528C320 -568 313 -608 306 -651L243 -639C252 -600 257 -557 259 -515ZM476 -730C461 -745 450 -766 438 -798C332 -758 141 -728 47 -741C63 -721 72 -695 80 -666C132 -670 246 -684 332 -701C406 -715 448 -720 469 -714C487 -709 492 -715 476 -730Z"/>
</svg>