<svg xmlns="http://www.w3.org/2000/svg" viewBox="0 -1000 1000 1000">
	<path fill="#000000" d="M467 -78C447 -88 426 -100 402 -119C365 -86 291 -41 191 -16C227 1 243 16 253 42C405 -44 437 -60 452 -62C477 -65 478 -73 467 -78ZM913 -25C850 -56 777 -89 697 -122L660 -74C726 -51 828 12 863 45ZM545 -477C527 -491 504 -511 487 -527L445 -491C472 -467 487 -452 503 -429ZM558 -274C459 -227 316 -181 256 -176C266 -153 270 -133 270 -111C304 -122 354 -128 550 -140V-38C550 -7 541 1 443 -11C468 15 475 32 479 65C604 60 623 48 623 -1V-145L798 -156C816 -141 833 -124 849 -106L907 -161C850 -197 800 -228 729 -269L676 -234C702 -221 724 -209 744 -196L400 -171C492 -203 625 -251 668 -273C736 -307 761 -314 799 -315C825 -316 825 -326 807 -333C797 -337 764 -361 746 -377C727 -363 696 -345 632 -312L389 -289C517 -339 538 -344 562 -346C584 -348 584 -359 563 -365C542 -371 533 -372 509 -391C403 -322 355 -301 295 -295C306 -281 312 -263 311 -242C329 -247 336 -249 409 -257ZM675 -530V-469C675 -444 672 -415 667 -386H736C732 -413 729 -444 729 -469V-523C768 -441 816 -404 910 -362C917 -389 924 -410 937 -433C851 -451 806 -479 737 -560C824 -560 877 -558 910 -554V-613C871 -608 839 -607 729 -607C729 -639 733 -646 741 -651C753 -659 752 -668 736 -668C715 -668 689 -669 668 -671C671 -654 674 -629 675 -607C632 -608 601 -609 565 -613V-554C595 -557 619 -558 651 -559C616 -495 582 -454 508 -408C534 -403 557 -393 573 -379C620 -431 646 -465 675 -530ZM359 -552C313 -477 275 -441 218 -401C239 -387 250 -377 266 -356C319 -407 352 -454 384 -533V-450C384 -425 382 -396 376 -367H444C439 -395 438 -425 438 -450V-553C483 -553 510 -551 537 -547V-607C508 -603 485 -600 438 -600C438 -632 442 -640 450 -645C462 -653 461 -662 445 -662C424 -662 398 -663 377 -665C380 -648 383 -623 384 -600C318 -601 275 -603 242 -607V-547C272 -549 308 -551 359 -552ZM594 -754C591 -777 586 -801 579 -831L485 -822C496 -797 503 -778 509 -754C261 -754 187 -757 136 -762C162 -295 132 -151 48 -10C74 -6 105 11 125 31C198 -166 211 -229 211 -691H650C829 -691 861 -690 914 -685V-762C866 -758 785 -755 594 -754Z"/>
</svg>