<svg xmlns="http://www.w3.org/2000/svg" viewBox="0 -1000 1000 1000">
	<path fill="#000000" d="M352 -604H212V-718H352ZM844 -540C840 -574 838 -616 838 -664C838 -709 840 -753 844 -787C743 -781 653 -779 500 -779C316 -779 237 -781 136 -785C139 -748 141 -709 141 -664C141 -622 139 -585 136 -539C216 -543 329 -545 500 -545C673 -545 744 -544 844 -540ZM552 -604H424V-718H552ZM765 -604H626V-718H765ZM543 -449V-488C543 -497 550 -509 560 -513C574 -519 572 -524 554 -524C516 -522 489 -524 455 -528C461 -509 465 -485 466 -449C342 -449 230 -451 162 -455V-385C229 -390 342 -392 466 -392V-313C294 -313 173 -316 76 -321V-251C177 -256 308 -259 497 -259C687 -259 817 -256 919 -251V-321C825 -316 733 -314 543 -313V-392C664 -392 776 -390 841 -385V-455C776 -452 664 -449 543 -449ZM543 -166V-201C543 -208 549 -226 559 -230C573 -236 571 -241 554 -241C516 -241 489 -242 456 -243C463 -227 466 -209 467 -166C307 -166 210 -168 139 -173V-100C209 -105 313 -107 467 -107V-28C292 -28 154 -30 57 -35V41C158 36 275 34 497 34C723 34 838 36 940 41V-35C846 -30 731 -28 543 -28V-107C686 -107 805 -105 874 -100V-173C805 -168 707 -166 543 -166Z"/>
</svg>