<svg xmlns="http://www.w3.org/2000/svg" viewBox="0 -1000 1000 1000">
	<path fill="#000000" d="M355 -633H211V-723H355ZM864 -569C859 -608 856 -644 857 -681C858 -734 859 -757 864 -793C763 -787 624 -784 496 -784C368 -784 235 -787 134 -793C138 -755 140 -715 140 -681C140 -636 139 -611 134 -569C235 -575 368 -578 496 -578C624 -578 763 -575 864 -569ZM569 -633H425V-723H569ZM785 -633H639V-723H785ZM204 -478H487V-418H204ZM559 -361V-539C541 -535 504 -534 343 -534C186 -534 151 -535 126 -539C134 -441 135 -377 132 -314C126 -161 108 -100 47 -17C73 -6 94 12 109 34C189 -103 202 -164 204 -363H453C522 -363 546 -363 559 -361ZM404 -265C468 -265 506 -265 540 -264V-322C507 -320 468 -319 404 -319C341 -319 289 -320 256 -322V-264C289 -265 341 -265 404 -265ZM250 -117C244 -92 210 -29 180 8C201 9 234 19 252 27C281 -41 307 -84 313 -86C326 -93 324 -96 310 -99C289 -104 273 -109 250 -117ZM617 -28C602 -49 561 -93 530 -121L478 -92C501 -68 545 -15 560 12ZM439 -156C494 -156 534 -155 566 -153V-215C528 -213 478 -212 404 -212C330 -212 263 -212 223 -215V-153C256 -155 310 -156 370 -156V-15C370 5 364 12 299 9C315 33 325 60 328 80C429 68 439 53 439 5ZM773 -435H686C629 -435 600 -436 578 -438V-365C600 -366 629 -367 686 -367H773V-31C773 -11 768 -5 683 -11C700 16 712 46 717 75C826 67 850 52 850 -2V-367C901 -367 934 -366 952 -365V-438C932 -436 901 -435 850 -435V-510C850 -522 856 -538 864 -542C876 -548 877 -556 861 -555C843 -554 796 -556 766 -559C771 -543 773 -513 773 -485ZM728 -171C711 -219 698 -259 679 -313L607 -294C629 -242 643 -198 654 -152Z"/>
</svg>