<svg xmlns="http://www.w3.org/2000/svg" viewBox="0 -1000 1000 1000">
	<path fill="#000000" d="M372 -655H216V-747H372ZM915 -590C910 -629 908 -665 908 -702C908 -746 910 -778 915 -814C814 -808 652 -805 524 -805C396 -805 240 -808 139 -814C143 -776 145 -736 145 -702C145 -657 144 -632 139 -590C240 -596 396 -599 524 -599C652 -599 814 -596 915 -590ZM602 -655H442V-747H602ZM838 -655H672V-747H838ZM455 -315C500 -291 557 -253 596 -218L636 -273C594 -300 541 -331 480 -362C483 -370 484 -378 486 -386C494 -429 497 -444 506 -452C514 -459 512 -461 499 -460C476 -459 448 -465 427 -471C431 -404 428 -390 408 -358C384 -317 329 -282 237 -252C254 -243 279 -217 289 -196C379 -245 428 -281 455 -315ZM430 -42C483 -15 551 30 601 71L649 19C604 -9 542 -44 457 -84C465 -101 470 -117 474 -134C483 -176 491 -195 502 -204C511 -211 509 -220 496 -220C474 -219 441 -223 419 -230C425 -100 391 -47 192 24C215 39 237 57 251 78C345 34 399 -4 430 -42ZM347 -171L287 -168C286 -133 275 -102 251 -66L319 -60C330 -85 344 -136 347 -171ZM627 -167C609 -166 590 -173 569 -189C553 -151 537 -127 513 -93L566 -67C601 -126 616 -144 626 -150C641 -158 635 -167 627 -167ZM902 -435C914 -443 906 -454 893 -453C868 -452 836 -453 817 -457C822 -437 824 -409 824 -341V-42C824 -18 813 -8 734 -18C756 6 770 42 771 70C879 56 891 42 891 0V-401C891 -419 894 -430 902 -435ZM765 -358C773 -362 769 -373 756 -372C740 -371 708 -372 685 -376C689 -353 693 -329 693 -297V-163C693 -136 691 -104 687 -71H760C756 -104 754 -136 754 -163V-336C754 -345 755 -353 765 -358ZM354 -439L291 -443C292 -401 284 -363 268 -332L330 -323C339 -363 348 -407 354 -439ZM643 -435C622 -437 600 -442 575 -455C562 -415 554 -403 526 -369L583 -344C616 -394 626 -404 643 -418C656 -428 653 -434 643 -435ZM530 -551C291 -551 197 -554 145 -559C163 -198 148 -99 48 49C83 54 100 62 124 80C210 -84 221 -187 226 -491H666C775 -491 871 -489 917 -483V-559C866 -553 769 -551 530 -551Z"/>
</svg>