<svg xmlns="http://www.w3.org/2000/svg" viewBox="0 -1000 1000 1000">
	<path fill="#000000" d="M512 -715C538 -757 551 -772 563 -778C582 -787 580 -794 560 -798C526 -804 495 -813 464 -826C459 -785 449 -747 435 -715C281 -715 190 -717 101 -722V-642C196 -647 295 -649 390 -649C318 -572 214 -521 45 -484C74 -463 84 -444 92 -411C302 -472 424 -566 473 -649H576C662 -542 776 -449 918 -408C924 -437 935 -466 958 -499C841 -509 745 -556 655 -649C747 -649 839 -647 930 -642V-722C839 -717 710 -715 512 -715ZM470 -359V-293C366 -293 250 -296 197 -302V-220C249 -225 365 -229 470 -229V-162C335 -162 190 -165 118 -171V-88C189 -93 335 -97 470 -97C469 -48 465 25 460 75H556C551 25 547 -48 546 -97C683 -97 827 -94 901 -88V-171C827 -164 683 -162 546 -162V-229C654 -229 762 -226 820 -220V-302C762 -295 654 -292 546 -293V-359C668 -360 775 -356 839 -350V-431C790 -426 715 -423 627 -423C662 -482 674 -499 691 -507C705 -514 705 -522 689 -524C666 -528 643 -537 613 -555C605 -515 586 -468 564 -423C519 -423 471 -423 421 -424L466 -447C440 -482 416 -517 400 -543L336 -499C357 -478 378 -451 391 -424C301 -426 213 -429 170 -432V-350C225 -355 356 -358 470 -359Z"/>
</svg>