<svg xmlns="http://www.w3.org/2000/svg" viewBox="0 -1000 1000 1000">
	<path fill="#000000" d="M728 31C722 -1 716 -37 709 -71L624 -61C633 -26 638 12 640 41ZM225 -666C218 -696 195 -759 180 -790L111 -773C126 -745 144 -690 152 -650ZM215 -576C217 -533 218 -493 218 -456C164 -457 122 -459 89 -463V-390C120 -393 163 -396 218 -397C217 -353 215 -314 212 -279C154 -280 103 -283 70 -289V-208C101 -214 149 -217 203 -217C183 -101 141 -31 69 29C100 38 131 52 155 72C220 -6 259 -86 279 -218C339 -217 394 -214 428 -208V-289C396 -283 344 -280 286 -279C289 -315 292 -354 293 -397C348 -396 393 -394 425 -390V-463C391 -459 348 -457 294 -456C295 -493 295 -533 294 -576C351 -575 404 -572 435 -566V-645C409 -640 370 -637 325 -636C360 -729 379 -765 398 -779C410 -788 410 -792 399 -791C382 -791 338 -802 308 -814C301 -747 280 -682 258 -635C183 -635 111 -638 70 -645V-566C102 -572 156 -575 215 -576ZM744 -462C740 -536 738 -622 740 -703C788 -708 832 -709 865 -705C885 -703 889 -709 879 -719C872 -726 848 -769 833 -804C734 -770 574 -742 465 -740C470 -689 472 -642 472 -555V-140C472 -55 469 -46 442 -32C461 -10 474 8 492 39C513 15 526 2 566 -34L663 -121C651 -143 640 -171 635 -203C608 -167 583 -142 545 -108V-395H676C689 -274 714 -171 743 -112C843 94 924 84 958 -101C934 -114 913 -130 893 -157C883 -40 864 -34 811 -141C785 -192 755 -299 747 -395C852 -395 900 -392 927 -389V-468C901 -465 851 -462 744 -462ZM545 -462V-681C568 -681 597 -683 663 -692C662 -616 665 -540 670 -462Z"/>
</svg>