<svg xmlns="http://www.w3.org/2000/svg" viewBox="0 -1000 1000 1000">
	<path fill="#000000" d="M608 -335C573 -401 538 -451 493 -500C565 -600 581 -620 604 -631C621 -640 620 -647 601 -654C584 -660 556 -673 526 -690C513 -655 500 -628 457 -560C439 -532 426 -513 409 -496C457 -452 497 -383 536 -290C556 -303 579 -317 608 -335ZM763 -342C729 -407 695 -450 649 -498C727 -611 738 -624 753 -631C770 -640 769 -646 750 -653C733 -659 707 -671 677 -688C666 -650 645 -606 615 -559C597 -531 585 -514 570 -493C618 -449 651 -393 689 -295C709 -308 734 -324 763 -342ZM932 -350C887 -409 850 -449 797 -498C875 -607 889 -625 906 -632C926 -640 924 -649 903 -654C883 -659 856 -672 829 -693C819 -653 796 -610 765 -561C747 -533 735 -517 715 -494C769 -449 820 -384 861 -300C881 -315 904 -331 932 -350ZM938 -697V-776C878 -770 801 -768 686 -768C571 -768 495 -770 434 -776V-697C494 -703 571 -705 686 -705C801 -705 878 -703 938 -697ZM240 -684C211 -737 181 -784 151 -826L91 -792C123 -751 149 -703 168 -651ZM711 -206C800 -205 864 -202 914 -196V-280C858 -273 785 -270 678 -270C571 -270 499 -273 442 -280V-196C490 -202 550 -205 634 -206V-31C527 -32 448 -35 388 -41V43C453 36 544 33 668 33C792 33 883 36 948 43V-41C891 -35 813 -32 711 -31ZM274 -578C339 -577 383 -575 420 -570V-645C392 -640 357 -637 316 -637C367 -726 409 -780 420 -784C432 -789 434 -798 422 -801C400 -807 371 -818 334 -835C323 -789 298 -722 258 -637H146C112 -637 86 -640 59 -645V-570C96 -575 141 -577 205 -578V-466C150 -467 110 -470 77 -474V-394C108 -398 149 -401 205 -402C205 -360 204 -322 203 -289C139 -290 95 -293 57 -297V-217C91 -222 136 -224 199 -225C186 -90 150 -37 62 26C92 36 118 53 140 76C221 -3 256 -70 268 -225C333 -224 379 -222 413 -217V-297C379 -293 334 -290 272 -289C273 -323 274 -360 274 -402C329 -401 370 -398 401 -394V-474C370 -470 329 -467 274 -466Z"/>
</svg>