<svg xmlns="http://www.w3.org/2000/svg" viewBox="0 -1000 1000 1000">
	<path fill="#000000" d="M631 -307L567 -311C566 -262 554 -208 540 -176L608 -172C618 -212 625 -257 631 -307ZM902 -321C882 -325 855 -335 831 -347C823 -296 806 -249 782 -206C806 -204 824 -199 844 -188C881 -277 896 -305 901 -305C917 -309 919 -318 902 -321ZM212 -693C204 -730 188 -779 175 -805L105 -779C122 -750 135 -700 139 -667ZM306 -642C356 -759 363 -770 371 -776C387 -789 385 -795 371 -796C351 -797 317 -806 289 -818C282 -755 264 -688 241 -641C160 -641 97 -644 54 -651V-572C88 -578 139 -581 200 -582C201 -550 202 -510 201 -468C151 -469 100 -470 73 -476V-402C98 -408 150 -409 200 -409C199 -361 197 -317 195 -289C136 -290 89 -293 54 -299V-218C86 -224 131 -227 187 -227C164 -106 119 -26 48 30C78 38 110 51 135 72C206 -16 240 -112 258 -228C323 -227 374 -224 409 -218V-299C375 -293 326 -290 265 -289C268 -325 269 -364 270 -409C320 -409 372 -408 397 -402V-476C372 -470 324 -468 271 -468C272 -507 272 -536 270 -582C331 -581 382 -578 416 -572V-651C389 -646 351 -643 306 -642ZM590 -476C598 -511 603 -538 607 -573C771 -573 827 -573 876 -567C875 -751 878 -776 885 -780C898 -786 894 -795 877 -794C856 -793 821 -795 801 -802C806 -767 807 -744 808 -633H694C693 -750 699 -789 710 -796C727 -807 724 -815 701 -815C666 -815 647 -816 619 -821C624 -790 626 -749 624 -633H518C519 -713 525 -754 530 -760C540 -769 539 -774 525 -774C493 -773 476 -774 445 -782C451 -754 453 -701 449 -567C473 -570 494 -572 536 -572C535 -545 530 -513 522 -476C483 -477 444 -480 408 -484V-404C439 -408 472 -410 506 -411C478 -293 412 -161 312 -88C342 -80 364 -68 390 -45C481 -148 535 -248 576 -412H795C841 -412 888 -409 930 -404V-484C888 -479 841 -476 795 -476ZM721 -176C754 -58 821 15 911 59C918 27 933 -2 958 -31C830 -70 767 -134 736 -271C744 -346 750 -363 757 -368C771 -378 768 -384 755 -383C733 -382 710 -383 673 -388C689 -145 646 -65 435 2C454 19 472 50 482 76C630 3 692 -53 721 -176Z"/>
</svg>