<svg xmlns="http://www.w3.org/2000/svg" viewBox="0 -1000 1000 1000">
	<path fill="#000000" d="M208 -683C196 -721 179 -768 159 -813L92 -782C113 -736 126 -702 136 -654ZM251 -625C160 -625 122 -628 77 -634V-555C111 -560 150 -562 208 -563V-448C156 -449 126 -451 96 -456V-380C125 -385 157 -388 208 -388C208 -342 207 -303 204 -267C144 -268 105 -271 67 -276V-196C102 -201 140 -203 196 -204C180 -108 144 -48 64 18C100 29 116 37 142 60C217 -26 251 -94 266 -203C331 -204 375 -201 413 -196V-276C376 -271 334 -268 272 -267C274 -303 275 -343 275 -388C318 -387 347 -385 374 -380V-456C347 -452 318 -449 275 -448V-563C330 -562 367 -560 400 -555V-634C376 -630 349 -627 315 -626C343 -709 381 -777 394 -786C408 -796 407 -800 396 -800C374 -800 333 -815 306 -831C299 -779 275 -682 251 -625ZM591 -398V-452C561 -450 497 -450 472 -452V-398C499 -401 566 -401 591 -398ZM856 -403V-457C828 -455 769 -455 744 -457V-403C771 -406 833 -406 856 -403ZM598 -497V-554C580 -550 543 -550 517 -554V-497C543 -501 577 -500 598 -497ZM827 -500V-554C807 -550 768 -550 744 -554V-500C769 -504 805 -503 827 -500ZM629 -300L617 -233C541 -234 459 -238 420 -243C424 -224 426 -199 426 -171V-17C426 13 424 38 419 68H490V-180H564C564 -93 563 -17 561 27H627C625 -18 624 -94 624 -180H700C700 -92 699 -20 698 24H763C762 -20 761 -93 761 -180H840V-31C840 -6 833 3 788 -8C804 23 809 44 810 68C893 49 905 37 905 -16V-167C905 -200 908 -222 913 -242C853 -237 767 -234 679 -233L697 -300C805 -299 896 -296 931 -292V-367C894 -360 786 -356 680 -356C549 -356 449 -360 410 -366V-291C442 -295 528 -299 629 -300ZM700 -717C785 -717 845 -714 892 -709V-786C840 -780 773 -777 675 -777C574 -777 517 -780 463 -786V-709C510 -714 559 -717 636 -717V-652C516 -653 458 -657 417 -662V-506H477V-596H636V-540C636 -489 635 -453 633 -404H703C701 -451 700 -487 700 -540V-596H867V-518H933V-662C890 -656 842 -652 700 -652Z"/>
</svg>