<svg xmlns="http://www.w3.org/2000/svg" viewBox="0 -1000 1000 1000">
	<path fill="#000000" d="M568 -369H441V-412H568ZM568 -448H441V-491H568ZM568 -529H441V-568H568ZM818 -484H717V-561H818ZM934 -382C907 -392 894 -399 876 -418C869 -372 856 -362 788 -362C728 -362 717 -366 717 -434C804 -434 845 -433 882 -428C878 -453 877 -488 877 -526C877 -561 878 -593 882 -617C851 -613 823 -611 771 -611C705 -611 682 -612 655 -616C659 -597 661 -569 661 -541V-406C661 -323 676 -312 784 -312C903 -312 913 -319 934 -382ZM455 -770C420 -794 398 -809 372 -827L318 -786C350 -766 366 -753 395 -728ZM384 -288C369 -296 360 -306 345 -325C280 -269 213 -236 107 -207C135 -194 147 -181 160 -160C237 -187 277 -204 323 -235C357 -258 372 -268 381 -270C400 -274 399 -281 384 -288ZM237 -387L181 -373V-549C181 -563 184 -568 196 -574C208 -580 206 -586 192 -586C162 -585 143 -586 112 -591C119 -551 120 -535 120 -494V-361C104 -358 87 -355 74 -354C89 -325 94 -312 99 -284C162 -313 232 -333 356 -362C346 -378 346 -388 352 -415L296 -401V-492C326 -491 342 -489 364 -485V-549C345 -545 325 -543 296 -542V-590C296 -603 298 -614 304 -618C319 -628 316 -635 299 -634C279 -633 265 -634 232 -639C236 -617 237 -603 237 -539ZM715 -215H457C480 -234 497 -247 507 -254C524 -265 523 -271 503 -275C472 -281 458 -288 443 -299C390 -217 295 -147 178 -91C204 -78 215 -71 237 -50C308 -94 359 -130 397 -162H621C597 -135 551 -101 509 -77C481 -93 456 -112 428 -136L375 -105C398 -84 422 -65 448 -50C348 -16 231 2 80 -1C106 19 114 34 122 64C290 53 413 25 511 -17C593 19 701 41 864 54C869 25 879 0 905 -32C742 -27 646 -31 577 -51C636 -87 694 -142 735 -206C784 -182 826 -159 854 -139L895 -199C812 -240 758 -265 646 -314L601 -263C640 -248 679 -231 715 -215ZM478 -668C473 -650 467 -632 459 -612C427 -613 397 -615 376 -618C380 -588 382 -561 382 -526V-421C382 -384 380 -352 376 -318C404 -322 428 -323 503 -323C580 -323 608 -322 630 -319C626 -346 624 -381 624 -421V-526C624 -561 626 -591 630 -618C606 -614 561 -611 517 -611C525 -630 531 -647 535 -668C712 -668 829 -665 927 -658V-734C850 -729 763 -726 644 -725C670 -757 697 -783 703 -786C713 -791 713 -797 699 -801C687 -804 661 -814 632 -827C624 -805 604 -766 579 -724C275 -724 207 -726 89 -734V-658C187 -665 303 -668 478 -668Z"/>
</svg>