<svg xmlns="http://www.w3.org/2000/svg" viewBox="0 -1000 1000 1000">
	<path fill="#000000" d="M686 -733C659 -759 629 -785 592 -816L550 -774C588 -743 619 -715 646 -688C610 -650 575 -619 531 -585C551 -571 564 -558 577 -540C621 -577 653 -608 688 -645C715 -616 741 -585 772 -546L819 -594C785 -632 758 -662 730 -690C772 -740 794 -760 813 -765C827 -768 829 -779 818 -785C802 -792 791 -801 761 -830C733 -792 709 -761 686 -733ZM688 -111C651 -143 625 -185 603 -239H781C758 -185 738 -157 688 -111ZM948 -343C884 -387 812 -424 752 -447L714 -398C783 -370 854 -327 908 -277ZM141 -432C139 -498 133 -565 124 -622L66 -612C75 -555 81 -493 81 -425ZM330 -453C328 -525 323 -578 313 -634L257 -626C268 -568 272 -518 274 -452ZM165 -288V-74C165 -45 153 -39 95 -50C111 -14 120 17 122 39C212 30 230 8 230 -42V-293C241 -270 252 -234 259 -214C284 -246 319 -288 352 -323V-78C352 -44 340 -36 273 -47C291 -18 301 7 302 33C364 27 392 17 405 -7C428 20 437 38 443 71C527 63 619 24 689 -27C745 12 818 41 913 62C916 28 927 1 952 -31C862 -34 795 -47 744 -73C811 -135 845 -191 868 -295H626C641 -315 653 -330 658 -335C673 -347 671 -353 659 -356C646 -359 615 -373 602 -385C560 -293 499 -211 425 -153C455 -147 474 -136 486 -115C515 -147 540 -176 561 -203C577 -152 602 -108 638 -70C576 -28 501 -7 406 -10C412 -22 414 -38 414 -59V-316C431 -302 439 -287 447 -267C487 -297 531 -333 547 -350C572 -377 584 -389 596 -393C613 -399 615 -410 601 -415C586 -420 574 -434 564 -450C594 -451 630 -451 678 -451C801 -451 850 -449 907 -445C905 -467 903 -511 903 -548V-687C903 -711 906 -728 918 -737C928 -744 927 -757 912 -756C887 -753 854 -754 826 -760C831 -726 835 -662 835 -610V-509H521V-685C521 -710 527 -729 535 -735C546 -743 545 -755 528 -754C504 -752 478 -753 451 -758C455 -724 459 -663 459 -612V-549C459 -511 457 -467 454 -446C488 -448 518 -449 557 -450C520 -404 467 -357 414 -330V-655C414 -708 416 -742 420 -768C364 -759 302 -759 250 -768V-688C277 -693 316 -696 352 -695V-398C317 -366 268 -327 230 -303V-659C230 -702 231 -740 235 -772C182 -764 112 -764 60 -772V-694C83 -698 121 -701 165 -701V-365C131 -332 97 -306 47 -273C59 -245 69 -211 75 -185C93 -209 119 -242 165 -288Z"/>
</svg>