<svg xmlns="http://www.w3.org/2000/svg" viewBox="0 -1000 1000 1000">
	<path fill="#000000" d="M711 -321H304V-367H711ZM789 -272C785 -295 783 -325 783 -344V-438C783 -471 786 -500 789 -512C752 -508 709 -507 509 -507C299 -507 266 -508 229 -512C232 -493 234 -467 234 -439V-347C234 -328 232 -295 229 -271C268 -275 304 -277 507 -277C712 -277 759 -276 789 -272ZM711 -413H304V-459H711ZM474 -194V-30C415 -38 355 -66 302 -118C315 -138 324 -149 336 -158C344 -164 345 -166 332 -166C309 -165 269 -171 248 -183C205 -71 167 -28 73 35C104 44 129 58 152 77C208 26 244 -20 274 -74C319 -19 366 5 478 31C529 43 693 52 928 49C921 22 924 -3 949 -33C843 -21 682 -15 549 -23V-92C698 -92 807 -90 835 -88V-151C799 -147 696 -144 549 -144V-194C720 -194 822 -191 916 -187V-250C813 -246 701 -244 503 -244C307 -244 189 -246 85 -250V-187C180 -191 292 -194 474 -194ZM793 -582V-525H862V-643C862 -699 864 -773 865 -796C812 -793 745 -791 688 -791C629 -791 571 -793 519 -796V-725C554 -728 597 -731 636 -731H793V-632C694 -616 610 -606 495 -594C516 -571 527 -546 532 -523C597 -543 658 -557 793 -582ZM283 -630C276 -645 267 -688 265 -714L181 -695C191 -679 203 -648 207 -614ZM685 -631C680 -646 670 -687 664 -717L583 -702C593 -685 609 -640 611 -618ZM390 -633C297 -612 193 -595 80 -584C101 -560 111 -535 116 -511C178 -533 258 -557 390 -583V-524H460V-642C460 -698 462 -772 463 -795C410 -792 337 -790 274 -790C210 -790 143 -792 91 -795V-724C127 -728 172 -730 203 -730H390Z"/>
</svg>