<svg xmlns="http://www.w3.org/2000/svg" viewBox="0 -1000 1000 1000">
	<path fill="#000000" d="M448 -637H229C229 -733 232 -751 241 -758C257 -772 253 -780 232 -780C209 -780 170 -783 140 -786C146 -774 148 -748 148 -722V-643C148 -616 145 -588 140 -570C208 -573 332 -576 486 -576C648 -576 749 -574 826 -571C826 -739 826 -767 834 -775C851 -791 846 -796 829 -796C803 -796 770 -798 737 -801C742 -791 743 -777 743 -748V-637H529V-758C529 -784 537 -805 545 -811C560 -821 559 -829 536 -829C502 -829 471 -831 440 -834C445 -817 448 -777 448 -737ZM435 -433C429 -403 422 -371 412 -334C307 -335 223 -338 127 -343C133 -316 137 -264 137 -226V-50C137 -14 133 31 127 68H215V-271H351V-66C351 -32 350 -3 345 20H430C426 -4 424 -32 424 -66V-271H558V-72C558 -38 556 -9 551 14H637C633 -9 630 -38 630 -72V-271H775V-43C775 -15 770 -4 670 -9C686 18 699 51 700 80C854 63 855 40 855 -16V-226C855 -264 858 -321 861 -344C725 -337 630 -334 490 -334C499 -370 508 -399 521 -433C703 -433 830 -431 927 -425V-506C828 -500 697 -498 508 -498C320 -498 160 -500 63 -506V-425C145 -429 278 -432 435 -433Z"/>
</svg>