<svg xmlns="http://www.w3.org/2000/svg" viewBox="0 -1000 1000 1000">
	<path fill="#000000" d="M337 -293L285 -258C317 -221 336 -193 353 -151L411 -195C385 -235 363 -263 337 -293ZM209 -242V-117C209 -44 206 5 199 75H290C283 7 280 -44 280 -117V-336C323 -336 358 -334 382 -330V-406C358 -401 323 -398 280 -398V-498C319 -497 351 -495 373 -491V-568C351 -563 319 -560 280 -559V-653C327 -652 362 -649 390 -645V-724C362 -719 327 -716 280 -715V-775C280 -791 284 -799 292 -808C308 -826 305 -833 285 -831C260 -829 229 -830 201 -833C206 -797 209 -758 209 -715C157 -716 113 -719 83 -724V-645C112 -649 156 -652 209 -653V-559C164 -560 132 -562 106 -568V-491C131 -495 164 -498 209 -499V-397C155 -397 102 -400 73 -405V-328C98 -332 144 -336 192 -336C155 -237 115 -174 48 -106C72 -89 90 -66 100 -43C150 -110 181 -165 209 -242ZM718 -275C689 -272 668 -272 638 -274C618 -275 611 -284 611 -299V-332C611 -341 613 -347 616 -350C622 -355 619 -360 611 -359C588 -357 571 -358 553 -362C555 -350 555 -336 555 -325V-288C555 -245 569 -231 615 -229C671 -226 699 -226 730 -229C777 -233 796 -244 812 -287C792 -293 773 -304 755 -326C745 -284 740 -278 718 -275ZM916 -263C882 -308 859 -331 821 -361L782 -325C820 -293 847 -259 869 -223ZM538 -328L486 -359C473 -322 460 -303 428 -269L487 -235C501 -262 519 -293 538 -328ZM681 -66C639 -88 607 -111 580 -137H763C743 -110 713 -84 681 -66ZM528 -131C556 -94 587 -64 619 -41C511 -3 458 6 373 6C395 31 405 48 410 75C521 58 583 39 677 -7C752 31 828 52 931 69C937 37 943 15 958 -15C896 -11 807 -22 741 -42C803 -82 854 -135 889 -192C852 -189 804 -187 740 -187H564C573 -198 584 -206 591 -207C607 -211 605 -222 593 -224C574 -228 560 -235 545 -249C510 -177 459 -122 380 -77C403 -65 414 -54 429 -30C469 -60 498 -88 528 -131ZM530 -470H811V-434H530ZM811 -544V-515H530V-544ZM530 -589V-623H811V-589ZM710 -725C805 -724 874 -722 928 -718V-789C868 -785 786 -784 670 -784C553 -784 486 -786 422 -789V-718C477 -722 535 -724 626 -725C624 -707 620 -689 615 -673C543 -673 502 -674 467 -676C468 -658 468 -633 468 -616V-435C442 -435 421 -437 401 -438V-323H462V-381H656L630 -346C658 -330 675 -318 699 -295L730 -335C712 -352 690 -367 662 -381H875V-323H941V-438C921 -437 897 -435 873 -434V-616C873 -633 873 -658 874 -676C831 -674 781 -673 689 -673C695 -691 702 -708 710 -725Z"/>
</svg>