<svg xmlns="http://www.w3.org/2000/svg" viewBox="0 -1000 1000 1000">
	<path fill="#000000" d="M579 -257H490V-461H579ZM418 -189C453 -194 491 -195 537 -195C579 -195 612 -192 645 -189C643 -235 640 -260 640 -292V-420C640 -459 643 -508 645 -530C624 -525 591 -523 533 -523C477 -523 449 -525 422 -530C425 -509 428 -455 428 -420V-303C428 -261 426 -232 418 -189ZM656 -85C647 -109 646 -136 652 -161C561 -119 459 -80 386 -70C400 -41 408 -14 413 17C477 -21 576 -61 656 -85ZM185 -303H293V-176C251 -167 216 -160 185 -155ZM293 -512V-361H185V-512ZM677 -609C691 -331 712 -215 735 -150C700 -89 656 -41 580 12C600 19 626 37 646 64C692 21 732 -28 765 -80C783 -43 798 -18 830 24C876 85 905 92 971 -113C949 -120 922 -144 901 -186C885 -25 871 -17 807 -154C831 -202 862 -305 882 -417C887 -445 896 -469 905 -475C921 -486 923 -493 905 -495C885 -497 859 -505 826 -521C824 -455 800 -326 776 -245C761 -319 750 -438 744 -609C828 -608 885 -605 937 -599V-679C884 -674 828 -671 742 -670C742 -704 742 -730 745 -768C746 -783 751 -800 755 -805C775 -828 774 -831 746 -830C725 -829 690 -831 666 -836C668 -799 670 -763 674 -670C546 -670 472 -673 406 -679V-599C472 -606 549 -609 677 -609ZM293 -714V-570H185V-714ZM119 -712V-146C95 -143 73 -142 52 -142C62 -109 67 -88 70 -56C124 -73 204 -95 293 -113C293 -45 289 32 285 67H368C363 21 360 -51 360 -126C376 -129 393 -132 409 -134C405 -158 407 -175 413 -204C394 -199 377 -195 360 -191V-714C407 -713 432 -710 451 -705V-784C423 -779 387 -776 251 -776C126 -776 93 -778 60 -784V-705C78 -709 97 -711 119 -712ZM911 -733C892 -759 869 -791 850 -814L789 -771C809 -749 835 -712 850 -682Z"/>
</svg>