<svg xmlns="http://www.w3.org/2000/svg" viewBox="0 -1000 1000 1000">
	<path fill="#000000" d="M363 -369C365 -375 367 -380 369 -386H507V-84C507 -61 499 -51 427 -61C448 -33 456 -13 460 13C556 -4 570 -23 570 -69V-343C570 -390 572 -422 576 -447C527 -442 487 -440 381 -440C382 -448 382 -455 383 -463C384 -477 389 -492 397 -497C406 -503 405 -514 395 -514C372 -513 342 -515 318 -520C322 -497 321 -472 317 -440C210 -439 142 -442 93 -447C98 -422 101 -386 101 -343V-92C101 -59 99 -33 92 10H170V-386H306C288 -328 250 -289 176 -259C195 -246 210 -225 216 -205C273 -236 314 -276 341 -322C389 -291 420 -267 454 -233L500 -284C463 -311 415 -342 363 -369ZM335 -159C374 -133 413 -104 448 -73L491 -126C459 -150 408 -182 365 -206C374 -227 382 -234 397 -237C408 -239 408 -251 394 -255C363 -263 349 -268 330 -276C325 -250 316 -230 288 -190C262 -153 217 -110 178 -90C202 -78 216 -66 228 -48C271 -83 306 -118 335 -159ZM882 -682C855 -713 823 -758 804 -789L739 -747C771 -714 799 -674 815 -638ZM314 -672V-599C216 -600 121 -604 64 -608V-527C131 -532 249 -536 364 -536H613C620 -376 640 -265 685 -162C635 -75 601 -40 544 6C576 18 595 31 612 55C655 5 688 -40 721 -90C760 -14 785 15 821 39C864 68 902 42 955 -122C926 -135 913 -145 884 -176C856 -17 833 -6 764 -161C785 -199 827 -289 851 -352C863 -384 884 -426 894 -436C908 -449 907 -451 889 -454C861 -458 847 -462 807 -479C798 -400 765 -313 730 -244C707 -315 687 -424 682 -536C787 -535 884 -531 944 -527V-608C883 -604 784 -600 680 -599C677 -756 681 -790 693 -803C711 -822 708 -825 686 -826C664 -827 633 -831 603 -837C604 -783 606 -726 610 -599H383V-672C451 -671 520 -668 555 -666V-739C521 -737 451 -734 383 -733V-778C383 -788 388 -797 396 -803C409 -813 408 -819 392 -819C357 -819 339 -821 310 -825C313 -805 314 -785 314 -733C243 -734 168 -737 129 -739V-666C167 -669 242 -671 314 -672Z"/>
</svg>