<svg xmlns="http://www.w3.org/2000/svg" viewBox="0 -1000 1000 1000">
	<path fill="#000000" d="M188 -488H308V-330H188ZM308 -553H188V-704H308ZM843 -475C857 -527 861 -533 884 -548C892 -553 892 -559 883 -560C864 -562 812 -573 783 -583C779 -487 762 -402 719 -313C711 -339 703 -367 697 -396C704 -465 708 -560 707 -626C797 -625 887 -624 931 -622V-696C887 -694 800 -693 709 -692C713 -776 719 -797 727 -808C741 -826 741 -829 723 -827C701 -824 648 -829 618 -836C625 -792 630 -734 630 -692C536 -692 461 -693 413 -695V-621C461 -623 536 -625 630 -626C630 -348 615 -274 576 -197C523 -90 447 -25 351 11C380 29 395 43 422 78C560 -9 632 -109 673 -256C710 -130 787 -15 895 57C912 25 931 4 967 -17C860 -65 779 -152 730 -282C748 -279 767 -272 782 -265C796 -313 809 -360 821 -400C847 -358 860 -324 874 -272L948 -308C913 -372 884 -417 843 -475ZM379 -252V-649C379 -710 382 -750 387 -779C358 -774 309 -771 256 -771C203 -771 151 -774 111 -779C116 -748 119 -710 119 -649V-406C119 -188 102 -86 43 20C68 27 102 43 121 63C159 -24 185 -159 188 -269H308V-96C308 -46 287 -33 207 -57C228 -27 241 10 243 36C367 21 379 -3 379 -105V-245C404 -245 436 -240 460 -232C477 -278 495 -330 509 -374C523 -341 533 -306 542 -270L604 -293C592 -343 567 -402 534 -459C547 -513 553 -528 573 -543C588 -554 584 -561 572 -563C550 -566 510 -576 484 -585C468 -443 436 -349 379 -252Z"/>
</svg>