<svg xmlns="http://www.w3.org/2000/svg" viewBox="0 -1000 1000 1000">
	<path fill="#000000" d="M180 -266H302V-79C302 -37 289 -31 201 -40C222 -10 235 24 237 55C357 30 371 14 371 -88V-650C371 -711 374 -751 379 -780C349 -775 294 -772 241 -772C188 -772 141 -775 101 -780C106 -749 109 -711 109 -650V-407C109 -189 94 -84 35 22C61 27 92 45 111 65C149 -21 177 -157 180 -266ZM302 -554H180V-705H302ZM180 -485H302V-331H180ZM895 -640C912 -645 912 -652 893 -659C877 -664 837 -680 807 -694C791 -634 761 -556 731 -500C756 -497 785 -489 803 -481C839 -568 880 -636 895 -640ZM619 -100C591 -149 551 -223 528 -266L453 -235C479 -198 513 -113 528 -61ZM553 -470C536 -520 517 -577 502 -623L430 -599C446 -562 462 -501 473 -444ZM703 -514C692 -564 682 -613 673 -661L593 -639C608 -592 615 -557 622 -495ZM891 -754C862 -785 847 -807 829 -837C776 -811 701 -789 615 -774C528 -759 439 -751 382 -753C398 -731 410 -705 415 -678C478 -680 555 -691 674 -715C803 -741 844 -744 882 -736C900 -732 903 -741 891 -754ZM731 -320V-44C731 -13 721 -10 610 -18C632 10 642 47 643 78C802 61 810 54 810 -15V-319C871 -317 925 -313 948 -310V-397C927 -392 871 -388 810 -386V-388C810 -416 813 -427 820 -434C830 -446 826 -454 805 -452C777 -450 753 -451 723 -456C727 -436 729 -416 730 -385H585C500 -385 417 -390 385 -397V-311C417 -315 500 -320 585 -320Z"/>
</svg>