<svg xmlns="http://www.w3.org/2000/svg" viewBox="0 -1000 1000 1000">
	<path fill="#000000" d="M609 -329H508V-403H609ZM678 -403H779V-329H678ZM678 -271H779V-192H678ZM609 -192H508V-271H609ZM176 -272H281V-81C281 -35 275 -28 190 -37C216 -9 223 7 226 42C346 25 353 19 353 -45V-646C353 -699 356 -745 360 -773C322 -768 291 -766 230 -766C169 -766 139 -768 99 -773C103 -745 106 -692 106 -646V-421C106 -194 90 -99 42 2C67 15 86 29 107 57C151 -54 171 -147 176 -272ZM281 -498V-328H177V-498ZM177 -554V-709H281V-554ZM544 -644C504 -579 440 -523 357 -477C374 -464 390 -446 402 -425C411 -429 422 -435 435 -444C438 -409 439 -355 439 -334V-191C439 -147 436 -109 430 -64H508V-134H609V-57C609 43 618 53 761 53C879 53 906 43 941 -46C915 -54 891 -71 873 -91C863 -24 850 -13 761 -13C682 -13 678 -19 678 -76V-134H854C849 -182 848 -212 848 -256V-368C848 -389 850 -424 852 -452C872 -442 893 -432 918 -422C926 -455 942 -480 967 -500C871 -517 775 -576 743 -644C831 -644 865 -642 912 -638V-712C866 -707 810 -705 654 -705C659 -717 665 -730 671 -745C679 -764 692 -787 703 -797C718 -809 718 -815 701 -815C672 -816 635 -826 607 -834C606 -801 594 -751 575 -705C482 -706 430 -709 393 -712V-638C426 -641 478 -643 544 -644ZM684 -644C734 -533 762 -505 837 -461H678V-491C678 -512 678 -519 691 -527C701 -532 701 -542 687 -542C657 -542 633 -543 602 -547C606 -530 609 -494 609 -461H459C543 -521 586 -570 625 -644Z"/>
</svg>