<svg xmlns="http://www.w3.org/2000/svg" viewBox="0 -1000 1000 1000">
	<path fill="#000000" d="M876 -400C873 -413 871 -449 871 -479V-697C871 -727 873 -764 876 -779C829 -773 789 -771 653 -771C517 -771 477 -772 430 -779C433 -764 435 -727 435 -697V-479C435 -449 433 -413 430 -400C476 -404 517 -405 653 -405C789 -405 829 -404 876 -400ZM548 -269V-39H467V-269ZM692 -269V-39H614V-269ZM832 -39H754V-269H832ZM177 -274H281V-72C281 -30 271 -20 183 -33C203 -3 216 34 218 60C304 49 335 36 345 -9V33C395 29 440 28 661 28C883 28 923 29 957 33V-42C944 -41 924 -40 905 -40V-258C905 -280 906 -312 908 -335C853 -333 792 -332 653 -332C514 -332 453 -333 398 -335C400 -312 400 -280 400 -258V-40C383 -40 367 -41 350 -42V-654C350 -715 353 -755 358 -784C329 -779 284 -776 232 -776C180 -776 139 -779 100 -784C105 -753 108 -715 108 -654V-411C108 -176 93 -99 36 7C60 14 93 30 112 50C151 -42 175 -166 177 -274ZM281 -493V-335H177V-493ZM177 -558V-708H281V-558ZM682 -649C689 -660 694 -662 698 -663C714 -666 711 -680 694 -685C673 -691 661 -697 641 -708H802V-467H501V-708H632C605 -616 578 -577 509 -514C530 -506 548 -491 565 -473C615 -536 636 -566 655 -598C694 -556 711 -533 738 -484L789 -534C750 -579 730 -601 682 -649Z"/>
</svg>