<svg xmlns="http://www.w3.org/2000/svg" viewBox="0 -1000 1000 1000">
	<path fill="#000000" d="M180 -259H280V-84C280 -40 274 -37 196 -47C215 -22 224 3 225 42C335 25 346 7 346 -79V-652C346 -713 347 -752 350 -779C313 -775 293 -774 231 -774C169 -774 145 -775 113 -779C116 -752 117 -713 117 -652V-341C117 -244 90 -83 44 -22C72 -8 89 7 111 32C150 -46 174 -140 180 -259ZM280 -548H181V-707H280ZM181 -482H280V-325H181ZM824 -138V-288C863 -287 893 -286 921 -284V-353C893 -351 862 -350 824 -349C824 -372 826 -384 833 -390C847 -402 846 -406 828 -406C803 -406 780 -407 753 -410C755 -397 756 -375 757 -349C716 -349 687 -351 653 -353V-284C687 -287 717 -288 758 -288V-138H700C703 -203 707 -223 713 -229C724 -240 721 -242 703 -241C687 -240 667 -242 643 -246C645 -183 641 -123 630 -70C664 -73 705 -75 758 -75C758 17 757 60 754 79H827C825 58 824 15 824 -75C870 -75 915 -73 944 -70V-142C912 -139 869 -138 824 -138ZM509 -331C527 -357 536 -366 543 -370C553 -376 552 -379 541 -381C521 -384 488 -397 468 -407C430 -311 410 -271 352 -217C372 -207 385 -195 401 -176C429 -210 449 -237 473 -275H550C544 -215 536 -167 523 -135C501 -159 478 -184 458 -207L415 -161C438 -138 464 -108 487 -77C456 -38 422 -18 351 8C384 29 397 43 409 67C489 26 548 -32 574 -91C600 -149 611 -226 616 -331ZM491 -807L429 -771C452 -741 483 -692 501 -653L568 -685C544 -720 509 -776 491 -807ZM615 -584V-469C615 -451 613 -421 610 -401H683C681 -423 680 -451 680 -469V-584C715 -497 797 -437 906 -404C910 -431 922 -455 945 -484C852 -493 780 -522 724 -584C815 -584 882 -583 921 -580V-642C888 -640 843 -639 770 -639C839 -742 854 -757 870 -763C883 -768 884 -772 871 -776C851 -782 816 -797 786 -813C768 -751 745 -693 709 -638H680V-782C680 -800 682 -806 689 -812C703 -824 702 -828 684 -828C659 -828 636 -829 609 -832C612 -813 615 -763 615 -718V-637C503 -636 431 -639 380 -642V-580C430 -583 500 -584 561 -584C516 -527 449 -489 365 -459C386 -439 399 -422 410 -399C497 -437 575 -503 615 -584Z"/>
</svg>