<svg xmlns="http://www.w3.org/2000/svg" viewBox="0 -1000 1000 1000">
	<path fill="#000000" d="M525 -295H770V-235H525ZM770 -357H525V-416H770ZM291 -542H179V-693H291ZM179 -477H291V-321H179ZM545 -101C526 -106 501 -119 481 -134C441 -70 393 -20 319 21C348 30 366 41 386 59C421 35 471 -8 497 -40C518 -65 533 -78 542 -81C558 -87 558 -98 545 -101ZM914 -18C868 -58 822 -94 779 -125L725 -74C778 -35 814 -3 854 43ZM639 -665H651C680 -582 719 -524 771 -477H527C576 -536 614 -599 639 -665ZM586 -730C505 -730 453 -732 397 -734V-661C441 -663 494 -665 560 -665C536 -610 524 -586 504 -559C486 -584 464 -610 445 -628L390 -584C415 -566 441 -536 463 -508C431 -471 395 -437 357 -410V-638C357 -699 360 -739 365 -768C335 -763 291 -760 238 -760C185 -760 142 -763 102 -768C107 -737 110 -699 110 -638V-395C110 -177 95 -83 36 23C62 28 94 46 113 66C151 -21 177 -149 179 -258H291V-96C291 -61 277 -54 210 -73C231 -43 244 -6 246 20C338 1 357 -16 357 -84V-392C374 -381 393 -365 402 -352C422 -369 441 -386 459 -403C460 -375 460 -344 460 -314C460 -261 460 -204 457 -162C501 -169 535 -173 609 -174V-20C609 -3 589 12 522 0C543 23 553 45 557 78C663 67 682 44 682 13V-174C755 -173 797 -170 838 -164C837 -204 837 -261 837 -314C837 -353 837 -393 837 -427C863 -411 892 -396 924 -380C932 -411 943 -433 962 -461C907 -475 863 -493 827 -516C876 -564 891 -575 897 -577C916 -583 916 -591 900 -596C880 -602 858 -618 841 -636C823 -604 806 -580 780 -555C753 -584 732 -620 716 -665C805 -665 872 -664 926 -661V-734C869 -732 768 -730 659 -730C673 -771 687 -797 695 -801C709 -810 704 -823 687 -823C667 -822 637 -825 604 -837C603 -801 596 -763 586 -730Z"/>
</svg>