<svg xmlns="http://www.w3.org/2000/svg" viewBox="0 -1000 1000 1000">
	<path fill="#000000" d="M482 -68C543 -37 586 -14 652 25L697 -23C640 -50 590 -70 510 -99C519 -108 526 -112 539 -116C555 -124 554 -126 541 -128C530 -131 504 -139 473 -149C440 -91 364 -41 277 -15C310 3 325 14 338 29C389 6 442 -28 482 -68ZM703 -802C732 -775 743 -758 759 -725L821 -763C795 -795 781 -811 755 -840ZM621 -669H723V-612H621ZM621 -458H723V-397H621ZM621 -562H723V-509H621ZM351 -405L312 -372C353 -352 375 -339 422 -301L473 -342C426 -368 403 -382 351 -405ZM330 -606H412V-578H330C330 -587 330 -596 330 -606ZM268 -578H175V-606H268C268 -597 268 -587 268 -578ZM320 -447C321 -456 323 -464 324 -474C409 -474 466 -473 511 -471V-518C466 -516 410 -515 327 -515C328 -523 328 -532 328 -540C391 -540 430 -540 475 -537C471 -562 469 -580 469 -599C484 -593 493 -585 511 -562C525 -574 533 -582 558 -621V-426C558 -396 557 -371 555 -341C539 -342 511 -347 485 -352C481 -330 476 -310 470 -292C277 -292 204 -295 163 -299C247 -336 287 -365 306 -406C406 -406 480 -404 532 -401V-451C482 -449 413 -447 320 -447ZM236 -734H369V-704H236ZM170 -777C129 -777 99 -777 71 -779V-732C98 -733 129 -734 170 -734V-668C192 -668 226 -669 267 -669C267 -661 267 -653 267 -645C202 -645 163 -646 115 -649C118 -627 119 -609 119 -592C119 -576 118 -559 115 -537C162 -539 205 -540 267 -540C267 -531 267 -523 266 -515C192 -515 138 -516 93 -518V-471C138 -473 191 -474 264 -474C263 -464 262 -455 260 -447C180 -448 121 -449 73 -451V-401C118 -403 170 -405 240 -406C217 -377 173 -360 90 -336C115 -325 128 -313 147 -292C149 -293 151 -294 153 -294C158 -273 161 -237 161 -199V-41C161 -4 155 43 149 74H235V-238H442C412 -196 362 -170 277 -140C307 -121 320 -111 335 -97C397 -125 444 -157 478 -190C550 -165 612 -139 698 -97L740 -147C645 -181 581 -203 508 -226C511 -230 514 -234 516 -238H786V-39C786 -6 775 5 694 1C710 28 719 53 721 74C853 63 864 50 864 -25V-185C864 -227 866 -276 869 -300C831 -295 765 -292 542 -292C546 -303 550 -310 554 -316H621V-344H755C817 -344 882 -343 932 -339V-402C892 -399 844 -398 793 -397V-457C835 -456 870 -452 899 -451V-516C871 -512 835 -510 793 -509V-562C836 -561 865 -560 898 -557V-615C868 -613 836 -612 793 -612V-669C851 -669 879 -668 919 -664V-726C873 -720 844 -718 768 -718H616C661 -788 666 -793 676 -797C691 -803 691 -806 677 -807C649 -810 630 -815 596 -827C560 -708 525 -650 469 -601C470 -616 473 -632 475 -649C430 -646 393 -645 330 -645C330 -653 330 -661 330 -669C370 -669 408 -668 434 -668V-734C473 -734 502 -733 532 -732V-779C500 -777 479 -777 434 -777V-798C434 -807 436 -812 447 -817C455 -823 453 -828 446 -827C422 -824 395 -825 366 -828C369 -819 369 -803 369 -777H236V-801C236 -812 240 -815 247 -818C260 -823 256 -829 245 -828C220 -824 193 -824 164 -828C167 -820 169 -802 170 -777Z"/>
</svg>