<svg xmlns="http://www.w3.org/2000/svg" viewBox="0 -1000 1000 1000">
	<path fill="#000000" d="M289 -472C285 -525 281 -567 275 -616L218 -614C224 -576 228 -521 225 -468ZM286 -184C282 -237 278 -279 272 -328L215 -326C221 -288 225 -233 222 -180ZM119 -429C97 -430 76 -432 56 -435V-366C76 -369 97 -371 119 -371C114 -219 80 -81 32 -7C54 5 81 30 95 52C153 -72 181 -210 184 -372H320V-97C320 -66 305 -61 229 -77C242 -53 253 -13 253 18C353 9 384 -22 384 -67V-608C384 -670 385 -706 388 -734C363 -731 346 -730 264 -730C292 -781 308 -801 320 -810C332 -820 329 -827 315 -828C282 -830 258 -834 225 -842C227 -810 220 -780 199 -730C155 -731 135 -732 115 -734C118 -706 119 -672 119 -608ZM320 -429H185V-673H320ZM761 -633V-541H670V-633ZM581 -241C524 -119 459 -56 353 5C381 17 405 37 422 60C519 -10 578 -90 634 -216V-84C634 -24 632 18 628 75H705C704 19 703 -24 703 -84V-234C739 -115 817 -11 922 39C928 2 942 -20 972 -49C879 -79 805 -136 750 -241C824 -240 897 -237 933 -235V-308C877 -304 804 -300 703 -299V-372C791 -371 864 -367 898 -362V-439C862 -435 800 -431 743 -431H529V-633H603V-475C628 -478 667 -480 713 -480C755 -480 798 -478 826 -475V-633C855 -633 902 -631 930 -629V-694C904 -692 854 -689 826 -689V-774C826 -786 830 -796 838 -806C848 -817 845 -824 837 -823C828 -822 776 -825 755 -829C758 -808 761 -765 761 -689H670V-775C670 -792 672 -804 676 -808C687 -817 685 -823 675 -822C661 -821 618 -823 596 -826C599 -803 603 -760 603 -689H529V-749C529 -766 533 -774 543 -782C554 -790 549 -796 539 -794C519 -791 486 -792 458 -796C460 -781 462 -732 463 -690C442 -690 420 -692 400 -694V-629C420 -631 442 -632 463 -632V-501C463 -435 462 -399 459 -362C492 -367 559 -371 634 -372V-299C538 -300 461 -303 407 -308V-235C442 -237 521 -240 581 -241Z"/>
</svg>