<svg xmlns="http://www.w3.org/2000/svg" viewBox="0 -1000 1000 1000">
	<path fill="#000000" d="M663 -730C635 -756 604 -783 566 -816L518 -773C556 -741 589 -712 619 -684C579 -645 539 -612 496 -581C519 -570 537 -557 550 -539C592 -573 628 -603 665 -639C695 -608 724 -575 755 -535L806 -583C769 -623 739 -655 709 -685C717 -694 725 -703 734 -713C768 -751 781 -760 796 -764C810 -767 812 -778 801 -784C785 -791 774 -800 744 -829C715 -791 689 -758 663 -730ZM825 -625V-516H482V-698C482 -723 485 -736 502 -748C514 -756 513 -768 495 -767C467 -765 442 -766 411 -771C416 -737 421 -669 421 -618V-552C421 -514 418 -470 415 -449C483 -453 510 -454 643 -454C778 -454 834 -452 899 -448C897 -470 895 -514 895 -551V-696C895 -720 898 -734 915 -746C927 -753 926 -766 908 -765C881 -762 846 -763 815 -769C820 -735 825 -677 825 -625ZM670 -27C731 14 812 44 917 66C920 32 931 1 957 -31C860 -34 786 -48 729 -74C783 -126 831 -196 860 -294H602C617 -314 630 -329 636 -334C652 -346 650 -352 637 -355C623 -358 590 -372 576 -384C535 -293 468 -208 389 -152C420 -146 441 -135 453 -114C484 -146 511 -176 533 -203C551 -152 579 -108 616 -70C558 -35 483 -17 376 -11C399 22 406 41 412 75C500 60 600 21 670 -27ZM670 -111C630 -143 601 -185 577 -238H767C740 -180 721 -155 670 -111ZM944 -342C876 -386 799 -423 736 -446L695 -395C769 -367 846 -326 903 -276ZM277 -469C273 -525 272 -564 274 -608H211C214 -566 214 -522 211 -469ZM273 -137C270 -195 269 -244 269 -293H205C208 -241 207 -194 203 -137ZM110 -413C88 -414 67 -416 47 -419V-339C67 -342 88 -344 110 -345C107 -188 87 -90 41 -4C58 11 77 36 93 69C147 -51 174 -175 178 -346H305V-89C305 -40 296 -30 215 -39C236 -12 248 16 248 47C344 40 371 11 371 -40V-313C389 -301 401 -285 410 -266C448 -295 505 -344 518 -355C546 -380 565 -394 570 -396C589 -402 591 -414 575 -418C557 -424 537 -435 521 -448C483 -400 428 -360 371 -330V-601C371 -663 374 -702 378 -730C352 -725 324 -723 293 -723H257C269 -765 281 -785 294 -794C306 -802 304 -809 290 -810C258 -812 234 -817 203 -826C202 -795 198 -765 188 -723C159 -723 128 -726 103 -730C108 -698 110 -665 110 -601ZM305 -412H178V-663H305Z"/>
</svg>