<svg xmlns="http://www.w3.org/2000/svg" viewBox="0 -1000 1000 1000">
	<path fill="#000000" d="M386 -712V-776C386 -788 388 -793 394 -797C409 -806 408 -813 390 -813C366 -813 330 -815 305 -819C309 -790 311 -761 311 -712C217 -712 141 -714 81 -720V-635C139 -640 217 -643 311 -644V-561H386V-644H624V-560H697V-644C789 -643 865 -640 923 -635V-720C865 -715 789 -713 697 -712V-784C697 -796 699 -799 708 -804C718 -810 717 -819 701 -819C677 -819 644 -822 618 -825C622 -796 624 -754 624 -712ZM558 -497C547 -531 529 -593 522 -620L439 -595C457 -563 470 -519 475 -475ZM636 -386C599 -288 548 -219 504 -183C434 -230 377 -282 333 -348L265 -319C321 -248 385 -185 440 -143C340 -88 217 -57 60 -33C87 1 102 31 110 63C245 29 422 -43 510 -96C638 -16 748 21 906 46C909 11 920 -26 939 -59C774 -62 679 -81 570 -143C626 -197 677 -275 716 -384C782 -383 835 -380 889 -375V-464C788 -456 689 -452 501 -452C313 -452 223 -456 121 -464V-375C249 -386 418 -389 636 -386Z"/>
</svg>