<svg xmlns="http://www.w3.org/2000/svg" viewBox="0 -1000 1000 1000">
	<path fill="#000000" d="M762 -429H258V-525H762ZM842 -363C838 -397 836 -435 836 -475C836 -516 837 -557 842 -590C813 -586 769 -585 500 -585C253 -585 213 -586 173 -590C179 -516 180 -386 174 -230C170 -125 127 -19 60 32C96 42 117 56 144 82C228 -44 253 -143 253 -368H660C772 -368 817 -367 842 -363ZM614 -733H396V-782C396 -793 398 -797 406 -801C419 -809 416 -820 401 -819C375 -818 341 -820 315 -824C319 -794 320 -780 320 -733C221 -733 134 -736 73 -740V-662C132 -667 221 -670 320 -670V-612H396V-670H614V-613H689V-670C791 -670 880 -667 940 -662V-740C880 -736 791 -733 689 -733V-781C689 -792 691 -796 699 -800C713 -808 710 -818 694 -818C669 -818 635 -820 609 -823C613 -795 614 -777 614 -733ZM463 -172V-288C463 -306 469 -314 482 -320C496 -327 493 -338 480 -338C443 -337 411 -338 374 -342C380 -320 382 -310 382 -254V-39C382 35 397 54 585 54C857 54 881 39 932 -77C901 -88 882 -100 855 -123C832 -20 821 -12 586 -12C469 -12 463 -17 463 -52V-106C800 -223 821 -229 846 -226C871 -224 876 -233 861 -242C840 -254 816 -275 785 -313C734 -278 636 -235 463 -172Z"/>
</svg>