<svg xmlns="http://www.w3.org/2000/svg" viewBox="0 -1000 1000 1000">
	<path fill="#000000" d="M466 -477V-403C301 -403 222 -405 170 -409V-169H246V-341H466V-289C390 -165 267 -87 52 -18C81 -2 99 21 110 50C284 -20 392 -90 466 -191V-48C466 -14 464 27 459 69H546C541 27 539 -14 539 -48V-185C600 -82 680 -35 894 35C901 4 920 -33 947 -62C761 -73 662 -119 539 -264V-341H759V-254C759 -230 739 -221 658 -234C685 -204 691 -182 691 -145C807 -148 835 -176 835 -246V-409C783 -405 704 -403 539 -403C539 -429 539 -455 539 -477C702 -477 811 -474 903 -469V-548C811 -542 702 -540 539 -540C539 -575 543 -597 550 -603C563 -614 562 -620 545 -620C513 -620 488 -621 460 -625C463 -609 465 -579 466 -540C302 -540 192 -542 99 -548V-469C193 -475 302 -477 466 -477ZM385 -660H612V-580H688V-660C787 -659 873 -656 934 -651V-736C873 -731 787 -728 688 -727V-781C688 -793 690 -797 699 -802C708 -808 706 -815 695 -815C670 -815 632 -818 605 -822C608 -800 611 -768 612 -727H385V-782C385 -794 387 -798 396 -803C405 -809 403 -816 392 -816C367 -816 331 -819 304 -823C307 -803 309 -770 310 -727C214 -727 130 -730 68 -736V-651C128 -656 214 -659 311 -660V-581H385Z"/>
</svg>