<svg xmlns="http://www.w3.org/2000/svg" viewBox="0 -1000 1000 1000">
	<path fill="#000000" d="M370 -711V-784C370 -796 372 -800 381 -805C391 -811 389 -819 377 -819C352 -819 314 -821 287 -825C290 -802 292 -762 293 -711C200 -711 132 -713 71 -719V-635C130 -640 201 -643 293 -644V-544H370V-644H619V-543H696V-644C793 -643 865 -640 926 -635V-719C865 -713 793 -711 696 -711V-783C696 -795 698 -799 707 -804C717 -810 715 -818 703 -818C678 -818 640 -820 613 -824C617 -801 619 -758 619 -711ZM292 -66V-178H703V-66ZM703 1V59H785C781 22 779 -25 779 -78V-158C779 -193 781 -227 783 -252C755 -248 592 -244 500 -244C405 -244 242 -248 212 -252C215 -227 216 -193 216 -158V-65C216 -21 213 33 210 69H292V1ZM502 -526C537 -475 580 -430 629 -392H347C410 -438 466 -486 502 -526ZM330 -380V-321C374 -324 423 -325 500 -325C577 -325 630 -324 670 -321V-363C742 -316 825 -283 915 -266C924 -298 939 -329 962 -353C809 -359 638 -440 540 -572C545 -576 550 -579 556 -581C567 -585 566 -594 552 -596C532 -599 484 -612 463 -620C452 -595 413 -543 384 -511C317 -437 197 -369 40 -316C64 -303 93 -275 107 -248C177 -280 256 -328 330 -380Z"/>
</svg>