<svg xmlns="http://www.w3.org/2000/svg" viewBox="0 -1000 1000 1000">
	<path fill="#000000" d="M608 -730H386V-791C386 -800 388 -803 396 -806C409 -812 406 -820 391 -820C366 -820 331 -821 305 -824C310 -801 311 -774 310 -730C214 -730 129 -731 70 -736V-661C127 -665 214 -667 310 -667V-588H386V-667H608V-617H683V-667C781 -667 867 -665 925 -661V-736C867 -732 782 -730 683 -730V-791C683 -800 685 -803 693 -806C706 -812 703 -820 688 -820C663 -820 629 -821 603 -824C608 -801 610 -775 608 -730ZM368 -304C326 -332 251 -375 199 -400L158 -341C208 -317 269 -278 314 -239ZM805 -565C769 -584 733 -601 691 -617L646 -563C689 -546 725 -527 758 -505ZM456 -434V-269C374 -220 193 -140 63 -89C87 -69 109 -47 129 -19C173 -48 281 -110 456 -203V-52C456 -27 440 -24 345 -42C368 -9 375 28 374 68C510 59 535 34 535 -21V-296C598 -150 694 -65 880 16C892 -16 913 -54 945 -77C829 -102 738 -145 666 -215C805 -323 829 -337 854 -341C875 -344 876 -350 853 -358C819 -371 797 -387 776 -410C743 -364 695 -315 624 -261C589 -306 560 -360 535 -423V-434C701 -434 812 -431 905 -426V-503C812 -497 705 -495 535 -496V-565C535 -577 536 -582 545 -587C563 -598 560 -603 536 -603C503 -603 480 -605 451 -609C455 -590 456 -571 456 -496C298 -496 192 -498 101 -503V-426C191 -431 298 -433 456 -434Z"/>
</svg>