<svg xmlns="http://www.w3.org/2000/svg" viewBox="0 -1000 1000 1000">
	<path fill="#000000" d="M275 -45C368 12 554 49 910 46C912 25 923 -12 943 -41C590 -25 423 -41 324 -99C367 -157 388 -209 410 -353C387 -350 364 -349 258 -349L415 -560C300 -550 167 -551 102 -558V-477C168 -485 204 -486 281 -485L215 -402C193 -374 155 -354 99 -338C110 -318 115 -296 115 -275C168 -287 190 -288 325 -288C315 -231 297 -182 268 -140C223 -181 198 -220 186 -257L107 -232C136 -176 162 -141 221 -87C178 -48 121 -18 50 2C84 25 94 34 114 64C188 24 235 -7 275 -45ZM610 -468V-368C526 -368 499 -370 451 -375V-294C499 -300 531 -301 610 -301V-192C511 -192 462 -193 416 -199V-118C467 -124 515 -125 643 -125C769 -125 841 -124 890 -118V-199C833 -193 780 -192 686 -192V-301C761 -301 804 -300 852 -294V-375C801 -369 753 -368 686 -368V-478C767 -491 833 -496 854 -494C882 -491 884 -498 870 -513C853 -531 838 -549 816 -580C750 -545 544 -518 415 -522C447 -488 456 -475 465 -453C509 -457 565 -463 610 -468ZM600 -740H380V-788C380 -799 384 -809 391 -815C409 -831 407 -836 387 -834C360 -831 325 -832 299 -836C303 -809 304 -789 304 -740C215 -740 135 -742 71 -748V-663C135 -669 206 -672 304 -671V-588H380V-671H600V-588H676V-671C795 -671 848 -669 914 -663V-748C848 -742 819 -740 676 -740V-788C676 -799 680 -809 687 -815C705 -831 703 -836 683 -834C656 -831 621 -832 595 -836C599 -808 600 -789 600 -740Z"/>
</svg>