<svg xmlns="http://www.w3.org/2000/svg" viewBox="0 -1000 1000 1000">
	<path fill="#000000" d="M393 -743V-795C393 -807 395 -811 404 -816C414 -822 412 -830 400 -830C375 -830 338 -833 312 -836C316 -811 318 -780 318 -743C217 -743 129 -746 66 -751V-668C127 -673 217 -676 318 -677V-600H393V-677H612V-600H687V-677C784 -676 868 -673 927 -668V-751C868 -746 784 -743 687 -743V-795C687 -807 689 -811 698 -816C708 -822 706 -830 694 -830C669 -830 632 -833 606 -836C610 -811 612 -780 612 -743ZM668 55C652 15 634 -26 618 -61L539 -43C560 -7 576 42 584 77ZM655 -274C650 -302 646 -338 645 -377C751 -385 810 -384 850 -380C871 -377 873 -384 859 -394C849 -403 822 -443 812 -466C705 -438 461 -425 313 -430C318 -406 320 -365 320 -295V-84C320 -39 308 -11 272 14C293 30 313 56 327 87C352 60 381 37 408 21L533 -55C517 -80 510 -97 504 -129C470 -100 442 -80 395 -52V-211H598C629 -110 683 -21 761 35C845 95 872 81 921 -66C889 -78 863 -94 843 -117C829 -29 812 -22 756 -70C717 -102 691 -149 671 -211C787 -211 860 -210 901 -210V-281C857 -277 781 -274 655 -274ZM395 -274V-367C430 -365 496 -367 568 -372C569 -339 574 -306 581 -274ZM562 -554C553 -585 541 -614 526 -647L448 -624C464 -598 474 -576 481 -554C259 -555 185 -557 155 -561C166 -226 140 -121 40 5C65 23 91 47 112 74C208 -90 236 -215 233 -488H668C768 -488 838 -485 890 -481V-561C838 -556 768 -554 562 -554Z"/>
</svg>