<svg xmlns="http://www.w3.org/2000/svg" viewBox="0 -1000 1000 1000">
	<path fill="#000000" d="M718 -98V-29H354V-98ZM354 -217H718V-153H354ZM521 -407V-483C569 -482 598 -480 628 -476V-547C598 -543 569 -541 521 -540V-563C521 -579 528 -595 536 -600C550 -607 549 -613 532 -613C503 -613 476 -615 444 -620C449 -598 451 -578 451 -540C401 -541 358 -543 328 -547V-476C358 -480 401 -482 451 -483V-407C317 -407 205 -411 115 -417V-343C206 -349 324 -352 488 -352C442 -326 392 -301 339 -279C313 -280 294 -282 275 -284C277 -275 278 -266 279 -256C208 -230 133 -211 58 -201C80 -177 94 -157 108 -126C169 -145 227 -166 281 -187V-34C281 8 280 34 274 81H354V27H718V69H803C797 26 796 -2 796 -46V-196C796 -235 797 -258 802 -284C762 -279 715 -277 621 -277H481C528 -302 570 -327 606 -352C747 -351 854 -348 933 -343V-417C855 -410 738 -408 685 -407C726 -434 738 -439 750 -440C765 -441 767 -452 753 -459C734 -468 710 -486 692 -503C661 -471 622 -439 576 -407ZM585 -683C655 -543 759 -478 908 -446C909 -472 929 -516 951 -542C789 -552 714 -593 649 -683C760 -681 867 -678 924 -674V-751C842 -746 653 -742 500 -741C528 -784 545 -805 553 -810C566 -817 564 -824 552 -826C527 -830 488 -840 459 -851C452 -815 436 -777 412 -741C266 -741 185 -744 105 -751V-674C177 -680 249 -683 368 -684C297 -606 190 -539 60 -505C88 -486 107 -464 117 -443C261 -494 397 -594 462 -684C501 -684 542 -684 585 -683Z"/>
</svg>