<svg xmlns="http://www.w3.org/2000/svg" viewBox="0 -1000 1000 1000">
	<path fill="#000000" d="M397 -749V-787C397 -799 399 -803 408 -807C418 -813 416 -821 404 -821C379 -821 342 -824 317 -827C321 -802 323 -784 323 -749C224 -748 132 -751 72 -757V-680C130 -685 224 -689 323 -689V-631H397V-689H597V-610H671V-689C769 -688 862 -685 921 -680V-757C862 -752 769 -749 671 -749V-787C671 -799 673 -803 682 -807C692 -813 690 -821 678 -821C653 -821 617 -824 591 -827C595 -802 597 -784 597 -749ZM877 -616C891 -626 889 -636 869 -635C835 -633 810 -634 783 -639C789 -614 793 -574 793 -505V-79C793 -36 775 -24 663 -45C685 -15 701 21 702 58C835 53 867 24 867 -59V-590C867 -606 869 -609 877 -616ZM711 -494C725 -502 722 -511 706 -510C687 -509 660 -512 631 -517C636 -489 637 -471 637 -415V-287C637 -254 636 -224 632 -184H709C704 -224 703 -254 703 -287V-471C703 -483 705 -490 711 -494ZM320 -479V-422C207 -422 165 -423 128 -427V-206H199V-366H320V-298C242 -190 153 -114 59 -74C85 -62 112 -38 128 -8C207 -76 271 -144 320 -212V-100C320 -26 317 25 311 68H400C394 25 391 -26 391 -100V-166C433 -131 483 -76 523 -21L585 -74C549 -112 478 -180 429 -223L391 -188V-366H506V-300C506 -274 487 -262 434 -273C450 -251 458 -227 459 -198C554 -212 576 -233 576 -293V-427C539 -423 500 -422 391 -422V-479C483 -479 548 -477 602 -472V-545C548 -540 484 -537 391 -537C390 -586 393 -598 403 -604C421 -616 416 -623 396 -622C366 -621 342 -624 311 -630C315 -614 318 -581 319 -537C221 -537 153 -540 97 -545V-473C153 -478 222 -480 320 -479Z"/>
</svg>