<svg xmlns="http://www.w3.org/2000/svg" viewBox="0 -1000 1000 1000">
	<path fill="#000000" d="M968 -96C938 -99 909 -110 881 -133C868 -23 855 -13 732 -13C633 -13 626 -21 626 -48V-153C626 -161 635 -170 644 -175C660 -184 657 -190 635 -188C609 -187 574 -190 544 -194C545 -175 547 -139 547 -111V-16C547 46 560 55 730 55C903 55 922 44 968 -96ZM829 -147C801 -166 759 -198 737 -218L680 -172C708 -149 749 -109 764 -90ZM403 -744V-789C403 -801 405 -805 414 -810C424 -816 422 -824 410 -824C385 -824 345 -827 319 -832C323 -807 325 -787 325 -744C204 -744 132 -746 67 -752V-670C130 -675 221 -678 325 -679V-647H403V-679H593V-622H671V-679C777 -679 865 -676 929 -670V-752C865 -746 828 -744 671 -744V-793C671 -805 673 -809 682 -814C692 -820 690 -828 678 -828C653 -828 613 -831 587 -836C592 -806 593 -790 593 -744ZM466 -285H284V-378H477C477 -346 473 -314 466 -285ZM555 -378H772V-285H542C548 -314 552 -345 555 -378ZM344 -518H604L555 -442H260C293 -468 322 -494 344 -518ZM206 -400V-230C206 -209 205 -192 203 -173H284V-222H446C395 -104 281 -21 85 2C120 29 132 54 138 82C362 22 477 -70 526 -222C756 -222 818 -221 854 -219C852 -238 851 -267 851 -298V-378C851 -409 851 -425 853 -444C823 -443 777 -442 646 -442L732 -587C701 -584 654 -582 605 -582H400C414 -596 420 -600 426 -601C446 -606 445 -614 425 -616C407 -618 366 -627 341 -637C302 -556 187 -450 57 -398C81 -386 99 -368 114 -341C146 -360 177 -380 206 -400Z"/>
</svg>