<svg xmlns="http://www.w3.org/2000/svg" viewBox="0 -1000 1000 1000">
	<path fill="#000000" d="M613 -739H400V-782C400 -793 402 -797 410 -801C423 -809 420 -819 405 -819C380 -819 346 -820 320 -824C325 -796 325 -782 325 -739C224 -739 136 -741 75 -746V-667C134 -672 224 -675 325 -675V-619H400V-675H613V-620H689V-675C785 -675 868 -672 925 -667V-746C868 -742 786 -739 689 -739V-781C689 -792 691 -796 699 -800C712 -808 709 -818 694 -818C669 -818 634 -819 608 -823C612 -796 613 -779 613 -739ZM610 -396C555 -437 508 -468 462 -493L530 -548C565 -576 585 -590 596 -594C617 -602 619 -609 592 -613C563 -617 535 -626 504 -640C490 -604 472 -577 450 -552C429 -529 409 -512 380 -492C442 -446 507 -389 548 -338C564 -360 582 -379 610 -396ZM540 -193V-273H758V-193ZM247 -193V-273H465V-193ZM247 -49V-133H465V-49ZM758 15V60H841C837 17 834 -26 834 -85V-248C834 -283 837 -319 840 -343C856 -366 873 -383 900 -400C849 -434 785 -470 728 -496L789 -546C828 -578 849 -588 867 -589C895 -591 893 -603 864 -610C836 -617 818 -624 784 -644C731 -568 699 -534 643 -491C707 -454 780 -391 825 -343C750 -339 669 -337 502 -337C404 -337 335 -338 279 -339C293 -357 314 -374 340 -387C284 -424 239 -452 194 -477L258 -535C301 -574 318 -585 335 -589C361 -595 361 -606 335 -611C303 -617 281 -625 245 -640C229 -598 208 -572 185 -545C154 -509 135 -492 105 -472C165 -431 222 -383 265 -340C227 -341 195 -342 163 -344C167 -320 170 -275 170 -241V-70C170 -10 166 37 160 75H247V15ZM540 -49V-133H758V-49Z"/>
</svg>