<svg xmlns="http://www.w3.org/2000/svg" viewBox="0 -1000 1000 1000">
	<path fill="#000000" d="M305 -445H706V-388H305ZM508 -496C382 -496 297 -498 229 -501C234 -473 235 -463 235 -417C235 -374 233 -354 229 -332C295 -336 362 -337 508 -337C665 -337 714 -336 780 -332C777 -353 776 -386 776 -417C776 -447 777 -481 780 -501C714 -497 674 -496 508 -496ZM394 -754V-783C394 -795 396 -799 405 -804C415 -810 413 -818 401 -818C376 -818 343 -820 317 -824C320 -805 322 -781 322 -754C198 -754 141 -756 80 -762V-684C140 -689 226 -692 323 -693V-631H394V-693H609V-634H680V-693C781 -692 869 -689 931 -684V-762C869 -757 781 -754 680 -754V-791C680 -803 682 -807 691 -812C701 -818 699 -826 687 -826C662 -826 629 -828 603 -832C606 -811 608 -784 609 -754ZM565 -117C651 -116 714 -113 767 -107V-189C702 -182 623 -179 503 -179C383 -179 305 -182 239 -189V-107C301 -114 376 -117 488 -117V-26C488 -1 459 10 389 -7C418 27 427 51 430 83C541 74 565 55 565 1ZM504 -288C259 -288 181 -290 108 -294V-123H186V-231H822V-138H900V-294C827 -290 749 -288 504 -288ZM479 -599C320 -599 213 -602 123 -609V-528C218 -535 334 -538 510 -538C686 -538 802 -535 897 -528V-609C812 -603 711 -600 565 -599C559 -618 550 -637 540 -659L462 -641C468 -630 474 -615 479 -599Z"/>
</svg>