<svg xmlns="http://www.w3.org/2000/svg" viewBox="0 -1000 1000 1000">
	<path fill="#000000" d="M380 -421H206V-506H380ZM850 -376C848 -400 846 -442 846 -481C846 -525 848 -569 849 -588C822 -585 748 -584 677 -584C608 -584 542 -586 515 -589V-523H773V-443H518V-376C545 -380 595 -382 679 -382C807 -382 823 -380 850 -376ZM211 -292V-362H344C403 -362 437 -360 453 -357C451 -380 449 -421 449 -462C449 -509 451 -554 453 -574C436 -570 403 -569 287 -569C195 -569 148 -571 131 -574C135 -548 136 -523 136 -458V-122C136 -77 132 14 127 62H211V-95H323C370 -95 413 -93 454 -88V-160C401 -155 371 -153 324 -153H211V-234H331C374 -234 400 -232 448 -227V-299C410 -294 377 -292 333 -292ZM677 -29C728 9 801 37 878 55C884 24 898 -2 927 -36C808 -43 769 -55 727 -77C797 -155 823 -205 853 -313C822 -311 749 -309 676 -309C608 -309 537 -311 502 -313V-239C521 -242 557 -244 623 -244H743C733 -195 714 -159 669 -118C634 -147 615 -172 593 -216L533 -192C563 -138 584 -111 619 -78C557 -35 506 -18 384 -3C414 24 430 43 443 68C577 31 627 7 677 -29ZM411 -747V-793C411 -805 413 -809 422 -814C432 -820 430 -828 418 -828C393 -828 357 -831 331 -834C334 -812 336 -781 337 -747C231 -747 140 -748 75 -755V-676C138 -682 231 -685 337 -685V-619H411V-685H586V-619H661V-685C766 -685 858 -682 920 -676V-755C858 -749 766 -747 661 -747V-793C661 -805 663 -809 672 -814C682 -820 680 -828 668 -828C643 -828 606 -831 580 -834C583 -811 585 -781 586 -747Z"/>
</svg>