<svg xmlns="http://www.w3.org/2000/svg" viewBox="0 -1000 1000 1000">
	<path fill="#000000" d="M611 -739H393V-779C393 -790 395 -794 403 -798C416 -806 413 -816 398 -816C373 -816 341 -818 315 -821C319 -794 320 -775 320 -739C224 -739 140 -741 80 -746V-666C137 -670 228 -674 320 -674V-614H393V-674H611V-627H685V-674C781 -674 866 -670 923 -666V-746C866 -742 781 -739 685 -739V-779C685 -790 687 -794 695 -798C708 -806 705 -816 690 -816C665 -816 632 -818 606 -821C610 -794 611 -775 611 -739ZM855 -564C842 -581 823 -609 809 -635C764 -626 693 -617 606 -609C460 -597 298 -596 141 -600C161 -576 171 -552 178 -533C311 -538 435 -542 638 -551C761 -559 791 -560 849 -552C862 -550 862 -554 855 -564ZM421 -148H676C649 -118 604 -85 561 -65C504 -89 459 -117 421 -148ZM424 -367H645C710 -367 798 -364 855 -361V-435C812 -432 746 -429 698 -429C737 -472 762 -493 783 -498C799 -504 799 -510 783 -513C763 -517 723 -529 695 -541C684 -511 655 -470 618 -429H508L565 -447C544 -473 520 -511 505 -536L429 -511C447 -488 467 -455 479 -429H318L365 -446C342 -474 329 -495 314 -525L235 -500C250 -484 271 -457 284 -430C241 -430 183 -433 148 -435V-361C198 -365 284 -367 349 -367C345 -351 342 -336 338 -322C260 -322 150 -324 85 -328V-253C143 -256 241 -260 317 -260C275 -158 199 -85 52 -15C79 -3 104 17 120 37C218 -16 286 -77 334 -148H401L356 -123C391 -91 432 -60 482 -34C412 -11 325 5 220 12C243 30 261 60 268 79C387 65 483 40 561 3C653 40 764 66 899 76C902 49 909 24 930 -5C819 -3 722 -16 638 -39C708 -85 761 -142 805 -211C763 -208 691 -207 618 -207H368C377 -224 385 -242 392 -260H652C730 -260 841 -256 910 -253V-328C841 -324 730 -322 652 -322H412C417 -337 421 -352 424 -367Z"/>
</svg>