<svg xmlns="http://www.w3.org/2000/svg" viewBox="0 -1000 1000 1000">
	<path fill="#000000" d="M300 -386V-435H705V-386ZM705 -327V-265H300V-327ZM568 -206C635 -205 705 -203 756 -201C733 -174 704 -148 648 -105C621 -129 588 -170 568 -206ZM492 -207H509C528 -156 557 -115 610 -59C654 -12 767 45 868 70C881 29 893 8 920 -15C831 -21 749 -46 694 -75C772 -129 813 -150 824 -150C843 -150 844 -158 828 -164C810 -171 787 -184 769 -200C775 -200 779 -199 784 -199C781 -235 778 -279 778 -327C824 -326 888 -323 924 -318V-395C888 -390 824 -387 778 -386C779 -430 781 -474 784 -500C734 -496 602 -492 501 -492C397 -492 270 -496 220 -500C224 -471 227 -429 228 -386C178 -386 117 -389 79 -395V-318C117 -324 178 -327 228 -327C228 -281 225 -239 220 -198C253 -200 329 -204 403 -205C308 -144 159 -86 50 -64C78 -44 98 -19 106 3C177 -22 246 -53 311 -88V-23C311 0 298 17 272 27C290 53 302 73 310 94C341 72 378 55 408 42L542 -17C528 -43 522 -64 518 -88C486 -68 417 -33 381 -18V-128C422 -153 459 -180 492 -207ZM473 -596C296 -596 179 -599 80 -606V-529C182 -534 307 -537 499 -537C691 -537 813 -535 917 -529V-606C823 -600 713 -597 549 -596C540 -625 534 -650 530 -671L455 -655C463 -637 468 -618 473 -596ZM396 -753V-795C396 -807 397 -812 404 -816C419 -825 416 -830 404 -830C379 -830 341 -833 315 -836C319 -814 320 -785 321 -753C229 -752 150 -755 91 -761V-684C148 -689 229 -693 321 -694V-628H396V-694H609V-633H685V-694C781 -693 864 -690 923 -685V-761C864 -756 781 -754 685 -753V-802C685 -814 686 -819 693 -823C707 -831 705 -837 693 -837C668 -837 629 -840 603 -843C607 -820 610 -790 609 -753Z"/>
</svg>