<svg xmlns="http://www.w3.org/2000/svg" viewBox="0 -1000 1000 1000">
	<path fill="#000000" d="M678 -737V-797C678 -808 684 -811 693 -814C703 -819 701 -826 689 -825C664 -824 621 -826 594 -830C598 -807 602 -774 602 -737H395V-799C395 -810 401 -813 410 -816C420 -821 418 -828 406 -827C381 -826 337 -828 310 -832C315 -806 318 -773 318 -744V-737C221 -737 134 -740 72 -747V-663C132 -669 221 -672 318 -672V-613H395V-672H602V-611H678V-672C769 -672 864 -669 923 -663V-747C864 -742 758 -737 678 -737ZM957 -49C927 -54 905 -61 876 -82C861 -12 845 -6 727 -6C630 -6 614 -15 614 -35V-128C614 -135 618 -144 628 -148C644 -155 641 -166 619 -163C596 -160 567 -163 537 -169C541 -153 542 -121 542 -96V-27C542 55 563 62 722 62C895 62 928 46 957 -49ZM812 -82C779 -110 744 -147 726 -173L657 -133C676 -119 727 -64 740 -41ZM457 -242H284V-318H468C467 -291 464 -265 457 -242ZM549 -318H752V-242H537C543 -266 547 -291 549 -318ZM348 -439H567L512 -373C368 -373 297 -373 254 -374C288 -395 318 -416 348 -439ZM208 -345V-173C208 -155 206 -139 202 -123H284V-186H437C389 -84 280 -17 93 20C115 37 134 57 150 83C331 42 462 -47 519 -186C747 -186 797 -185 833 -183C831 -198 830 -226 830 -254V-318C830 -345 830 -360 832 -375C800 -374 754 -373 593 -373L708 -492C680 -490 643 -489 595 -489H411C431 -503 449 -512 459 -513C481 -514 482 -529 463 -533C451 -535 440 -539 428 -544H815V-450H901V-605C828 -602 745 -600 503 -600C260 -600 176 -602 103 -605V-448H188V-544H359C288 -469 190 -408 51 -346C75 -337 99 -318 116 -294C149 -312 180 -329 208 -345Z"/>
</svg>