<svg xmlns="http://www.w3.org/2000/svg" viewBox="0 -1000 1000 1000">
	<path fill="#000000" d="M728 -122H294V-170H728ZM728 -24H294V-76H728ZM294 22H728V65H815C810 35 808 4 808 -31V-156C808 -185 810 -213 815 -229C761 -223 710 -221 514 -221C342 -221 263 -224 213 -229C217 -209 219 -183 219 -156V-19C219 16 217 40 211 77H294ZM436 -582V-529C249 -529 174 -531 70 -535V-476C176 -480 258 -482 458 -482C305 -410 204 -382 56 -368C89 -338 94 -328 106 -303C179 -326 219 -339 274 -358V-313C274 -267 278 -264 539 -264C826 -264 839 -265 882 -352C857 -357 829 -366 808 -382C792 -316 781 -313 537 -313C338 -313 333 -316 333 -350C432 -347 568 -359 690 -381C745 -391 771 -394 797 -394C813 -394 813 -400 802 -411C790 -422 773 -444 766 -458C702 -435 517 -395 349 -386C419 -413 488 -444 562 -482C714 -481 849 -479 933 -476V-535C866 -532 766 -530 650 -529C682 -548 715 -568 750 -590C778 -608 808 -621 818 -621C836 -621 836 -630 824 -634C794 -644 772 -657 755 -672C727 -644 693 -617 649 -587V-637C610 -633 562 -631 501 -630C502 -641 507 -648 516 -654C529 -663 526 -668 508 -668C485 -668 449 -669 429 -671C431 -662 433 -648 435 -630C306 -630 240 -632 179 -637V-575C239 -581 271 -582 436 -582ZM644 -582C620 -566 583 -545 553 -529H500V-582ZM373 -754V-782C373 -794 375 -798 384 -803C394 -809 392 -818 380 -817C355 -816 324 -817 298 -821C302 -803 304 -782 304 -754C211 -755 130 -757 72 -761V-695C129 -699 186 -701 304 -702V-662H373V-702H597V-666H666V-702C790 -702 869 -700 933 -695V-761C869 -756 790 -754 666 -754V-791C666 -800 668 -806 677 -811C692 -819 688 -827 673 -826C648 -825 617 -826 591 -830C593 -813 596 -783 597 -754Z"/>
</svg>