<svg xmlns="http://www.w3.org/2000/svg" viewBox="0 -1000 1000 1000">
	<path fill="#000000" d="M492 -80H317V-211H492ZM777 -565H690C693 -581 696 -593 700 -600C709 -616 707 -618 696 -617C670 -615 641 -615 610 -618C610 -601 610 -583 610 -565H326C244 -565 167 -568 131 -572C152 -208 128 -62 46 39C87 42 103 48 126 67C191 -34 221 -193 208 -501H612C613 -447 616 -393 620 -348C625 -292 651 -204 676 -141C643 -97 606 -58 559 -25C557 -59 556 -96 556 -139C556 -191 558 -248 561 -271C520 -267 467 -265 424 -265V-342C518 -342 535 -341 584 -334V-413C535 -406 520 -405 424 -405V-447C424 -460 425 -470 432 -475C442 -482 442 -488 429 -487C403 -486 373 -486 345 -489C350 -458 351 -434 351 -369V-266C316 -266 281 -268 244 -271C247 -251 249 -191 249 -139C249 -89 247 0 244 33H317V-26H492V-5H532C515 7 496 18 477 29C511 47 523 55 545 74C627 16 671 -23 709 -74C757 12 796 49 843 67C880 81 933 60 969 -82C935 -89 916 -98 886 -132C874 -2 823 10 755 -144C795 -210 830 -276 855 -334C875 -381 886 -396 893 -397C911 -403 909 -410 896 -413C872 -419 844 -432 814 -451C788 -347 762 -282 725 -216C706 -265 697 -303 690 -355C683 -412 681 -461 683 -501C798 -501 859 -498 911 -494V-572C879 -568 840 -565 808 -565L850 -592C825 -621 816 -632 790 -664L734 -623C755 -601 767 -584 777 -565ZM599 -744H419V-784C419 -797 421 -808 427 -812C437 -819 437 -825 424 -824C398 -823 368 -823 340 -826C344 -802 345 -782 346 -744C236 -744 141 -747 74 -752V-672C140 -677 242 -681 346 -681V-600H419V-681H599V-623H674V-681C781 -681 874 -678 938 -672V-752C874 -747 781 -744 674 -744V-783C674 -799 676 -807 682 -811C693 -819 691 -824 679 -823C653 -821 621 -822 593 -825C597 -802 599 -769 599 -744Z"/>
</svg>