<svg xmlns="http://www.w3.org/2000/svg" viewBox="0 -1000 1000 1000">
	<path fill="#000000" d="M809 -397H636V-528H809ZM881 -336C878 -364 877 -420 877 -462C877 -502 878 -559 881 -588C843 -585 795 -584 724 -584C653 -584 601 -585 563 -588C566 -559 567 -502 567 -462C567 -420 566 -364 563 -336C600 -340 654 -340 724 -340C795 -340 844 -339 881 -336ZM606 -754H389V-786C389 -795 391 -798 399 -801C412 -808 409 -816 394 -816C369 -816 336 -817 310 -820C314 -798 315 -783 315 -754C206 -754 138 -755 80 -760V-686C137 -689 221 -692 315 -692V-639H389V-692H606V-615H680V-692C775 -692 859 -690 915 -686V-760C858 -756 775 -754 680 -754V-786C680 -795 682 -798 690 -801C703 -808 700 -816 685 -816C660 -816 627 -817 601 -820C605 -799 606 -783 606 -754ZM476 -253V-210C348 -210 230 -213 161 -217V-159C229 -161 348 -162 476 -162V-117C337 -117 123 -120 53 -124V-58C123 -61 337 -65 476 -65V-24C476 3 455 13 372 -3C395 15 408 56 406 80C509 84 552 47 552 4V-65C690 -65 878 -62 943 -58V-124C879 -120 690 -117 552 -117V-162C674 -162 790 -161 855 -159V-217C790 -213 674 -210 552 -210V-256C643 -261 790 -265 825 -265C836 -265 840 -269 830 -277C819 -287 802 -313 790 -329C726 -318 586 -309 489 -305C315 -297 247 -297 163 -300C174 -284 181 -259 183 -245C260 -244 348 -247 476 -253ZM231 -567C159 -567 115 -569 87 -571V-509C115 -512 158 -514 205 -514C192 -491 174 -466 148 -433C190 -423 234 -412 278 -400C223 -382 153 -368 63 -359C88 -345 114 -320 130 -300C231 -320 307 -345 366 -376C424 -359 479 -342 529 -324C533 -342 543 -365 559 -382C521 -394 477 -406 431 -417C485 -460 516 -508 538 -571C506 -568 427 -567 306 -567C326 -599 336 -610 342 -612C367 -621 362 -628 339 -629C310 -630 287 -635 258 -646C252 -623 245 -604 231 -567ZM274 -514H439C416 -480 392 -457 356 -436C318 -444 280 -453 244 -460C255 -481 265 -498 274 -514Z"/>
</svg>