<svg xmlns="http://www.w3.org/2000/svg" viewBox="0 -1000 1000 1000">
	<path fill="#000000" d="M384 -742V-780C384 -792 386 -796 395 -801C405 -807 403 -815 391 -815C366 -815 329 -818 303 -821C307 -795 309 -772 309 -742C209 -742 133 -745 77 -750V-672C132 -677 227 -681 309 -681V-615H384V-681H618V-615H693V-681C769 -681 872 -677 928 -672V-750C872 -745 777 -742 693 -742V-780C693 -792 695 -796 704 -801C714 -807 712 -815 700 -815C675 -815 638 -818 612 -821C616 -795 618 -771 618 -742ZM747 -11H546V-117C546 -133 552 -149 565 -162C574 -173 572 -180 555 -178C525 -174 491 -175 463 -180C468 -158 471 -134 471 -97V-11H272V-77C272 -99 277 -115 287 -123C296 -130 295 -136 283 -134C261 -131 219 -135 193 -143C199 -115 201 -89 201 -63V-17C201 13 199 30 195 58C222 53 254 49 306 49H747V79H828C825 45 824 32 824 7V-92C824 -107 826 -127 835 -138C844 -149 841 -154 829 -152C815 -150 768 -153 740 -157C745 -142 747 -119 747 -73ZM939 -312C896 -354 861 -382 813 -420L746 -372C797 -341 836 -302 871 -254ZM251 -415C261 -424 261 -436 251 -435C227 -433 202 -439 177 -448C173 -409 157 -352 129 -313C161 -310 180 -307 207 -294C218 -341 244 -407 251 -415ZM554 -447C519 -471 490 -491 452 -513L405 -460C442 -439 472 -419 499 -390ZM416 -252C551 -313 602 -345 657 -390C711 -435 722 -443 738 -449C756 -455 755 -463 736 -468C716 -473 692 -485 668 -502C578 -398 518 -363 361 -294V-354C361 -403 364 -412 375 -420C391 -432 389 -444 370 -443C349 -442 316 -443 290 -447C297 -426 297 -407 297 -356V-270C225 -247 138 -231 58 -226C82 -199 95 -175 99 -149C176 -165 263 -191 324 -213C339 -204 360 -199 390 -197C465 -193 559 -195 599 -200C705 -213 718 -219 756 -317C725 -325 697 -335 674 -359C667 -289 654 -270 605 -262C564 -255 465 -251 416 -252ZM476 -581C252 -581 167 -583 96 -589V-430H171V-519H843V-433H924V-589C851 -584 744 -581 561 -581C553 -612 547 -630 535 -660L451 -647C462 -625 470 -604 476 -581Z"/>
</svg>