<svg xmlns="http://www.w3.org/2000/svg" viewBox="0 -1000 1000 1000">
	<path fill="#000000" d="M690 -276H303V-349H690ZM230 -376C232 -358 233 -339 233 -320C233 -281 230 -251 225 -219C279 -222 362 -224 405 -224C324 -167 184 -119 37 -97C64 -77 84 -52 94 -26C161 -43 225 -65 284 -91V-27C284 -4 271 9 247 22C272 41 289 62 297 81C321 59 341 44 372 30L541 -45C528 -60 520 -87 517 -110C484 -90 407 -55 356 -38V-126C413 -156 477 -200 504 -224C617 -76 722 1 915 54C922 22 939 -8 964 -31C886 -39 813 -59 746 -93C835 -153 862 -165 881 -169C896 -172 896 -175 885 -181C856 -195 833 -215 818 -235C796 -203 749 -168 682 -131C643 -157 608 -188 575 -224C643 -224 708 -223 769 -221C765 -251 762 -279 762 -320C762 -345 764 -373 767 -397C805 -376 839 -355 861 -337L918 -394C856 -428 754 -478 670 -515C774 -515 853 -513 923 -508V-582C831 -578 706 -574 561 -574C548 -606 535 -640 528 -665L442 -651C457 -624 465 -602 471 -574C297 -574 171 -577 73 -582V-508C140 -513 223 -515 325 -515C270 -465 168 -412 73 -376C95 -363 111 -348 132 -326C165 -341 198 -358 230 -376ZM356 -516H662L619 -471C655 -455 695 -436 732 -416C672 -413 614 -412 497 -412C400 -412 343 -412 292 -414C311 -427 330 -439 350 -453C371 -467 389 -475 404 -479C426 -482 427 -493 405 -497C388 -501 372 -507 356 -516ZM380 -739V-784C380 -796 383 -800 392 -805C403 -811 400 -819 388 -819C362 -819 324 -822 296 -825C302 -797 303 -779 303 -739C215 -739 140 -741 83 -747V-669C137 -674 233 -678 303 -678V-616H380V-678H612V-619H689V-678C759 -678 856 -674 911 -669V-747C856 -742 778 -739 689 -739V-787C689 -799 691 -803 700 -808C711 -814 709 -822 696 -822C670 -822 633 -825 606 -828C611 -800 612 -781 612 -739Z"/>
</svg>