<svg xmlns="http://www.w3.org/2000/svg" viewBox="0 -1000 1000 1000">
	<path fill="#000000" d="M387 -747V-782C387 -794 389 -798 398 -803C408 -809 406 -817 394 -817C369 -817 333 -820 307 -823C311 -798 313 -780 313 -747C217 -747 135 -749 75 -755V-678C133 -683 218 -687 313 -687V-619H387V-687H610V-619H684V-687C773 -687 859 -683 916 -678V-755C859 -750 772 -747 684 -747V-782C684 -794 686 -798 695 -803C705 -809 703 -817 691 -817C666 -817 630 -820 604 -823C608 -798 610 -780 610 -747ZM633 -169V-182C633 -218 636 -237 647 -244C665 -255 661 -264 640 -263C613 -262 588 -264 562 -270C565 -234 565 -210 565 -173V-42C566 33 591 44 741 44C881 44 902 32 942 -45C920 -51 897 -68 869 -103C860 -32 846 -22 742 -22C653 -22 633 -33 633 -71V-119C675 -125 715 -132 773 -144C813 -152 860 -159 871 -158C889 -155 889 -161 880 -170C872 -179 855 -214 845 -233C784 -205 701 -181 633 -169ZM658 -332V-411H791V-332ZM357 -184C357 -218 358 -235 372 -243C390 -255 386 -263 365 -262C338 -261 313 -263 287 -269C289 -233 289 -209 289 -172V-55C289 -18 282 -13 252 -3C264 15 280 46 283 68C301 55 342 39 362 34L513 0C510 -23 511 -51 513 -70C475 -56 399 -35 357 -25V-128C433 -128 480 -127 514 -124V-189C480 -186 433 -184 357 -184ZM421 -411H587V-332H421ZM212 -411H354V-332H210C211 -357 212 -383 212 -411ZM354 -538V-470H211C211 -492 211 -514 210 -538ZM587 -538V-470H421V-538ZM547 -596C536 -625 528 -653 523 -674L442 -665C452 -641 459 -618 465 -596C291 -596 177 -601 134 -606C149 -240 140 -114 45 20C75 33 99 49 115 73C170 -13 198 -119 208 -277H616C712 -277 814 -273 857 -268C854 -294 852 -341 852 -384C852 -424 853 -452 857 -480C822 -474 742 -470 658 -470V-538C764 -538 873 -533 906 -529V-606C868 -600 765 -596 547 -596Z"/>
</svg>