<svg xmlns="http://www.w3.org/2000/svg" viewBox="0 -1000 1000 1000">
	<path fill="#000000" d="M820 -125C799 -136 772 -160 753 -180C639 -61 365 32 202 32C224 56 235 77 237 97C376 86 583 25 720 -59C766 -87 801 -103 815 -106C832 -109 835 -116 820 -125ZM694 -215C677 -223 650 -241 634 -259C512 -166 309 -74 187 -71C209 -52 217 -25 218 -4C341 -34 527 -103 611 -158C647 -182 674 -194 689 -195C706 -196 708 -208 694 -215ZM574 -297C562 -303 535 -326 523 -344C410 -252 280 -191 167 -168C189 -153 203 -133 209 -111C321 -144 457 -210 510 -249C534 -267 560 -278 570 -278C586 -279 589 -290 574 -297ZM302 -482C291 -505 281 -527 275 -548L200 -525C211 -503 220 -481 227 -461ZM681 -504C675 -522 666 -546 657 -567L582 -544C593 -518 599 -499 607 -478ZM339 -697V-641H410V-697H591V-650H662V-697C769 -697 863 -694 927 -688V-764C863 -758 769 -756 662 -756C662 -799 664 -806 674 -811C684 -818 682 -825 670 -825C643 -825 611 -827 585 -831C590 -807 591 -787 591 -756H410C410 -790 412 -805 422 -810C432 -817 430 -824 418 -824C391 -824 360 -827 333 -830C338 -807 339 -786 339 -756C238 -756 151 -758 87 -764V-688C149 -693 238 -696 339 -697ZM513 -387C607 -288 764 -234 928 -200C932 -230 944 -255 970 -286C790 -294 630 -341 551 -415C556 -418 560 -420 562 -421C573 -425 570 -435 554 -438C539 -441 507 -449 492 -455C486 -450 480 -446 474 -441V-628C441 -624 391 -620 306 -620C230 -620 166 -623 132 -627V-558C167 -561 216 -564 279 -564H401V-473C315 -451 183 -427 111 -430C124 -410 133 -376 132 -358C202 -378 319 -408 401 -427V-393C280 -322 132 -272 32 -263C52 -242 67 -221 74 -195C197 -220 329 -268 513 -387ZM778 -452V-363H851V-639C819 -635 761 -631 679 -631C604 -631 556 -633 522 -639V-569C550 -573 597 -575 669 -575H778V-496C708 -475 631 -459 570 -451C588 -434 601 -412 610 -392C658 -411 715 -431 778 -452Z"/>
</svg>