<svg xmlns="http://www.w3.org/2000/svg" viewBox="0 -1000 1000 1000">
	<path fill="#000000" d="M604 -744H381V-783C381 -794 383 -798 391 -802C404 -810 401 -820 386 -820C361 -820 331 -821 305 -825C309 -802 310 -784 310 -744C215 -744 134 -747 76 -751V-676C132 -681 216 -684 310 -684V-614H381V-684H604V-629H675V-684C777 -684 867 -681 926 -676V-751C868 -747 777 -744 675 -744V-782C675 -793 677 -797 685 -801C698 -809 695 -819 680 -819C655 -819 625 -820 599 -824C603 -804 604 -782 604 -744ZM422 -520C259 -520 182 -522 146 -524C154 -415 156 -333 153 -268C146 -116 126 -48 69 26C100 39 120 53 141 82C195 -34 215 -115 221 -287C223 -339 223 -404 222 -464H435V-417C358 -414 297 -413 257 -414L263 -351C301 -355 362 -360 435 -364V-331C435 -293 448 -281 588 -281C765 -281 775 -287 817 -362C790 -369 774 -379 755 -401C735 -340 718 -332 597 -332C510 -332 502 -336 502 -352V-367C597 -372 665 -374 717 -373L712 -436C662 -429 594 -423 502 -419V-464H814L789 -399L862 -390L900 -530C824 -524 650 -520 490 -520V-556H647C706 -556 762 -554 812 -550V-617C762 -611 707 -609 647 -609H490C490 -628 494 -638 507 -647C520 -655 519 -660 504 -658C475 -655 447 -656 415 -659C421 -638 422 -626 422 -586ZM315 -10C281 -10 246 -11 218 -12V50C259 48 281 47 559 47C839 47 876 47 920 49V-14C887 -11 843 -10 803 -10V-194C803 -215 805 -243 807 -259C769 -257 649 -256 552 -256C456 -256 349 -257 310 -259C314 -243 315 -215 315 -195ZM736 -10H382V-46H736ZM736 -172H382V-208H736ZM382 -127H736V-91H382Z"/>
</svg>