<svg xmlns="http://www.w3.org/2000/svg" viewBox="0 -1000 1000 1000">
	<path fill="#000000" d="M563 -67C554 -94 544 -119 534 -140L463 -134C473 -113 480 -83 482 -57ZM754 -185C748 -212 740 -237 727 -261L647 -253C666 -226 676 -200 679 -175ZM367 -181C356 -216 346 -238 326 -268L249 -259C267 -230 276 -211 287 -173ZM555 -311C544 -338 535 -359 524 -380L449 -369C465 -346 474 -327 481 -301ZM517 -256C452 -294 383 -332 309 -369L250 -327C319 -297 385 -265 463 -217C392 -170 311 -131 224 -97C258 -87 275 -77 294 -58C401 -106 466 -141 521 -181C595 -132 642 -98 687 -59L752 -106C696 -146 637 -185 574 -222C699 -326 711 -332 719 -334C745 -340 742 -347 720 -352C698 -358 676 -368 644 -386C610 -339 567 -295 517 -256ZM785 -45H204V-391H785ZM204 18H785V74H875C868 43 864 -1 864 -32V-384C864 -410 868 -440 871 -457C811 -455 693 -453 513 -453V-504H707C778 -504 842 -503 903 -500V-568C841 -566 779 -564 707 -564H513C513 -600 516 -607 522 -609C537 -617 537 -623 521 -622C499 -621 463 -623 426 -627C432 -605 434 -585 434 -554V-453C279 -453 176 -455 119 -457C124 -440 126 -410 126 -384V-15C126 13 121 52 114 82H204ZM389 -730V-780C389 -792 391 -796 400 -801C410 -807 408 -816 396 -816C367 -816 335 -818 309 -822C312 -802 314 -770 314 -730C222 -730 142 -732 83 -738V-651C141 -656 231 -660 315 -660V-570H389V-660H609V-583H683V-660C775 -660 862 -656 921 -651V-738C862 -733 779 -730 683 -730V-779C683 -791 685 -795 694 -800C703 -806 701 -814 690 -814C665 -814 630 -817 603 -821C606 -800 609 -759 609 -730Z"/>
</svg>