<svg xmlns="http://www.w3.org/2000/svg" viewBox="0 -1000 1000 1000">
	<path fill="#000000" d="M233 -163C250 -170 250 -176 231 -183C212 -191 192 -203 169 -219C147 -136 123 -105 51 -29C91 -25 102 -20 126 0C164 -56 186 -92 195 -110C206 -133 224 -160 233 -163ZM549 -89C495 -149 479 -166 425 -210L375 -170C437 -116 454 -94 488 -35ZM620 -248H793C777 -201 746 -154 708 -117C652 -170 634 -199 620 -248ZM349 -305V-329C349 -344 351 -349 358 -356C370 -367 369 -372 352 -373C321 -374 299 -377 275 -381C278 -362 279 -345 280 -305C190 -305 131 -308 82 -315V-236C131 -243 190 -245 280 -245V-71C280 -26 267 -12 183 -29C206 2 214 30 212 65C335 48 349 24 349 -54V-245C399 -245 456 -241 494 -236V-315C456 -310 393 -305 349 -305ZM546 -313C535 -313 526 -314 520 -314V-240C532 -242 544 -244 558 -246C579 -177 606 -123 656 -75C593 -28 508 2 420 10C457 32 473 49 481 75C569 50 643 12 704 -35C752 -1 816 32 901 67C913 29 925 15 955 -16C870 -31 801 -53 756 -80C825 -148 869 -229 889 -313C867 -311 785 -310 702 -310C639 -310 585 -311 551 -312C614 -362 640 -408 640 -529H756V-417C756 -348 767 -340 918 -341C923 -376 928 -392 937 -422C830 -403 819 -408 820 -470C821 -512 824 -566 832 -590C802 -588 763 -587 699 -587C636 -587 596 -588 567 -590C580 -430 563 -393 479 -347C515 -338 530 -330 546 -313ZM332 -678V-608H393C366 -574 339 -545 311 -519C262 -546 211 -572 158 -597L120 -538C173 -518 220 -497 261 -476C210 -436 156 -405 93 -376C120 -361 140 -359 157 -332C211 -365 277 -411 318 -445C366 -416 406 -385 443 -349L500 -404C455 -434 411 -461 367 -487C420 -535 440 -547 464 -550C478 -553 481 -562 469 -571C452 -581 426 -598 409 -614V-678H593V-608L671 -609V-678C779 -678 872 -675 936 -670V-751C872 -746 779 -743 671 -743V-790C671 -802 673 -806 682 -811C691 -817 690 -824 678 -824C653 -824 614 -826 588 -830C591 -810 593 -780 593 -743H409V-791C409 -803 411 -807 420 -812C430 -818 428 -825 416 -825C392 -825 352 -827 326 -831C329 -813 331 -782 331 -743C204 -743 127 -746 59 -751V-670C125 -675 196 -678 332 -678Z"/>
</svg>