<svg xmlns="http://www.w3.org/2000/svg" viewBox="0 -1000 1000 1000">
	<path fill="#000000" d="M311 -392H166C125 -392 88 -394 60 -397V-321C81 -324 110 -326 139 -327C143 -131 125 -76 49 -8C83 6 109 23 129 46C196 -62 211 -108 211 -327H311V-94C311 -38 309 10 303 64H396C390 9 388 -38 388 -94V-765C388 -777 391 -786 402 -795C418 -808 414 -815 393 -815C362 -815 334 -818 301 -824C307 -806 311 -742 311 -674V-558H184V-698C184 -718 187 -725 196 -732C212 -743 208 -747 192 -747C167 -747 136 -750 107 -755C111 -730 112 -711 112 -680V-554C112 -525 111 -506 107 -486C137 -491 171 -493 208 -493H311ZM835 -507C874 -506 911 -503 945 -498V-586C901 -580 853 -577 803 -577H634L656 -662C679 -751 689 -773 701 -783C722 -801 720 -807 700 -808C667 -809 633 -815 595 -827C597 -787 581 -686 556 -577C508 -577 461 -580 417 -586V-498C460 -504 494 -507 540 -507C516 -407 487 -308 462 -251C519 -222 577 -189 633 -153C578 -87 504 -41 412 -8C449 17 466 34 484 63C614 -24 648 -51 696 -110C764 -63 827 -12 883 39C907 8 924 -8 953 -29C897 -72 821 -125 744 -175C787 -246 818 -346 835 -507ZM678 -218C636 -244 594 -268 558 -288L615 -507H757C747 -387 718 -291 678 -218Z"/>
</svg>