<svg xmlns="http://www.w3.org/2000/svg" viewBox="0 -1000 1000 1000">
	<path fill="#000000" d="M810 -388H609V-432H810ZM884 -593C856 -592 826 -590 798 -590H626C598 -590 573 -591 545 -593C548 -576 549 -553 549 -528V-407C549 -381 548 -348 545 -330C573 -332 598 -333 626 -333H810V-46C810 -5 804 1 714 -7C735 19 746 45 749 74C859 65 882 33 882 -26V-527C882 -552 883 -576 884 -593ZM396 -392H201V-438H396ZM460 -333C457 -350 456 -381 456 -408V-528C456 -554 457 -577 460 -595C432 -593 396 -592 368 -592H234C206 -592 160 -593 132 -595C133 -577 134 -553 134 -528V-81C134 -26 133 11 127 63H210C204 9 201 -26 201 -81V-335H368C396 -335 431 -334 460 -333ZM810 -486H609V-531H810ZM396 -491H201V-534H396ZM615 -741H402V-788C402 -799 404 -803 412 -807C425 -816 422 -826 407 -826C382 -826 352 -827 326 -831C330 -802 331 -787 331 -741C227 -741 135 -743 73 -748V-668C134 -674 227 -676 331 -676V-607H402V-676H615V-602H686V-676C786 -676 874 -673 933 -668V-748C874 -744 786 -741 686 -741V-787C686 -798 689 -802 696 -806C709 -814 706 -825 691 -825C666 -825 636 -826 610 -830C614 -802 615 -784 615 -741ZM638 -88V-75C638 -38 635 -32 557 -35C574 -5 579 12 580 38C681 28 704 0 704 -46V-241C704 -269 705 -291 708 -305C668 -301 593 -299 513 -299C423 -299 348 -301 310 -304C315 -281 317 -263 317 -241V-167C317 -96 293 -33 238 2C263 9 281 21 303 43C340 1 362 -40 373 -88ZM638 -169V-132H380C381 -144 382 -156 382 -169ZM382 -214V-251H638V-214Z"/>
</svg>