<svg xmlns="http://www.w3.org/2000/svg" viewBox="0 -1000 1000 1000">
	<path fill="#000000" d="M757 -383H455V-426H757ZM757 -284H455V-328H757ZM642 -743H365V-782C365 -793 367 -797 375 -801C388 -809 385 -819 370 -819C345 -819 315 -820 289 -824C293 -797 294 -783 294 -743C207 -743 132 -746 78 -750V-674C130 -679 211 -682 294 -682V-631H365V-682H642V-600H713V-682C800 -682 876 -679 928 -674V-750C876 -746 800 -743 713 -743V-781C713 -792 715 -796 723 -800C736 -808 733 -818 718 -818C693 -818 663 -819 637 -823C641 -797 642 -780 642 -743ZM337 -594C318 -603 294 -620 278 -636C225 -579 132 -517 77 -490C94 -475 109 -461 120 -442C149 -458 238 -521 262 -538C280 -553 321 -574 328 -574C346 -573 349 -587 337 -594ZM257 -348C296 -389 315 -405 325 -407C344 -411 347 -423 331 -431C316 -439 299 -452 279 -470C253 -433 221 -397 193 -371C157 -336 110 -297 61 -268C78 -248 92 -229 96 -205C131 -228 159 -250 184 -273V-94C184 -36 181 11 175 67H257ZM603 4C679 36 780 54 923 60C924 32 935 -1 952 -23C840 -14 751 -18 680 -35C759 -80 815 -128 852 -188H514C532 -204 548 -221 562 -236C725 -236 797 -233 834 -229C829 -239 826 -266 826 -286V-428C826 -448 829 -475 834 -484C789 -480 744 -478 611 -478C514 -478 462 -479 424 -481C439 -495 454 -510 466 -523H710C792 -523 859 -521 889 -517V-584C857 -581 791 -577 710 -577H512C526 -592 540 -602 549 -605C561 -609 558 -623 547 -622C528 -620 508 -628 478 -648C437 -577 360 -502 304 -471C328 -461 342 -449 354 -424C365 -432 377 -441 389 -451C390 -443 390 -435 390 -428V-286C390 -266 387 -239 381 -229C416 -233 458 -236 482 -236C441 -191 389 -156 309 -122C333 -109 352 -94 365 -71C390 -86 416 -105 443 -126C471 -88 501 -57 536 -33C456 -7 363 4 286 -1C311 18 323 36 332 63C428 54 532 32 603 4ZM606 -60C560 -80 523 -108 491 -142H728C696 -108 663 -86 606 -60Z"/>
</svg>