<svg xmlns="http://www.w3.org/2000/svg" viewBox="0 -1000 1000 1000">
	<path fill="#000000" d="M734 -206H277V-252H734ZM810 -149C804 -160 800 -187 800 -209V-341C800 -363 804 -390 810 -400C746 -397 686 -396 503 -396C320 -396 261 -397 198 -400C203 -390 207 -363 207 -341V-209C207 -187 203 -160 198 -149C261 -153 320 -154 503 -154C719 -154 746 -153 810 -149ZM734 -297H277V-347H734ZM234 -94L160 -120C141 -55 119 -14 83 24L162 52C189 -3 204 -33 234 -94ZM948 3C893 -63 867 -93 837 -124L769 -87C811 -49 842 -10 878 46ZM760 -57C725 -61 708 -67 679 -94C664 -16 662 -10 594 -5C538 -1 462 -1 431 -4C383 -9 375 -14 375 -34V-88C375 -98 377 -102 388 -108C400 -115 397 -119 380 -118C344 -116 325 -119 293 -129C297 -115 298 -101 298 -79V-6C298 32 307 44 369 56C402 62 541 60 610 56C713 50 724 38 760 -57ZM597 -64C585 -86 569 -116 558 -140L470 -115C486 -98 499 -68 504 -40ZM416 -513C408 -532 400 -548 392 -565L314 -549C330 -532 337 -519 342 -502ZM599 -496H330C246 -496 129 -499 70 -502V-439C173 -443 309 -445 516 -445C706 -445 849 -443 951 -439V-502C877 -498 786 -496 670 -496C691 -520 702 -527 714 -531C728 -535 725 -547 714 -548C692 -550 656 -559 634 -566C625 -541 616 -521 599 -496ZM468 -622C338 -622 234 -624 160 -628V-566C241 -570 357 -573 505 -573C654 -573 770 -570 851 -566V-628C778 -624 714 -622 550 -622C544 -641 539 -662 536 -676L452 -663C459 -651 464 -637 468 -622ZM411 -761V-783C411 -795 413 -799 422 -804C431 -810 429 -818 418 -818C393 -818 361 -821 335 -824C339 -801 341 -786 341 -761C218 -761 147 -763 84 -769V-698C145 -703 230 -706 341 -707V-661H411V-707H600V-661H670V-707C777 -707 872 -704 935 -698V-769C872 -763 810 -761 670 -761V-783C670 -795 672 -799 681 -804C690 -810 688 -818 677 -818C652 -818 620 -821 594 -824C598 -801 600 -786 600 -761Z"/>
</svg>