<svg xmlns="http://www.w3.org/2000/svg" viewBox="0 -1000 1000 1000">
	<path fill="#000000" d="M372 -511H244V-579H372ZM830 -455C828 -474 827 -509 827 -545C827 -582 828 -620 830 -635C729 -631 666 -630 502 -630C374 -630 277 -632 175 -635C177 -620 178 -582 178 -545C178 -509 177 -474 175 -455C320 -459 374 -460 502 -460C630 -460 728 -458 830 -455ZM569 -511H434V-579H569ZM762 -511H631V-579H762ZM919 -273V-417C814 -413 743 -412 503 -412C263 -412 173 -413 87 -417V-263H165V-358H840V-273ZM305 -255C242 -185 190 -153 83 -126C111 -112 126 -100 136 -78C199 -105 236 -122 263 -139H426C413 -107 394 -79 368 -58C341 -79 306 -106 296 -118L239 -92C253 -85 288 -53 314 -27C258 -4 165 14 82 11C104 33 118 56 125 81C249 68 357 32 404 -5C460 -49 483 -88 516 -192C491 -190 471 -190 443 -190H328C350 -207 360 -212 375 -216C387 -220 386 -224 373 -227C361 -230 339 -242 316 -255H555V-15C556 55 558 57 712 57C876 57 880 56 919 -48C894 -55 874 -65 852 -90C832 -8 828 -7 714 -7C631 -7 625 -9 625 -36V-74C788 -132 812 -138 850 -136C870 -135 873 -141 861 -150C842 -165 824 -190 809 -215C764 -186 720 -165 625 -129V-254C730 -254 760 -253 803 -249V-313C748 -309 602 -305 499 -305C396 -305 252 -309 196 -313V-249C220 -252 259 -255 305 -255ZM408 -746V-775C408 -787 410 -791 419 -796C429 -802 427 -810 415 -810C381 -810 361 -811 333 -816C337 -796 339 -777 339 -746C207 -746 146 -748 80 -754V-681C144 -686 233 -689 339 -689V-648H408V-689H607V-649H676V-689C819 -688 865 -686 928 -681V-754C865 -749 779 -746 676 -746V-778C676 -790 678 -794 687 -799C697 -805 695 -813 683 -813C649 -813 629 -814 601 -819C605 -798 607 -778 607 -746Z"/>
</svg>