<svg xmlns="http://www.w3.org/2000/svg" viewBox="0 -1000 1000 1000">
	<path fill="#000000" d="M634 -8C615 -36 605 -54 592 -83L530 -56C544 -30 553 -11 566 19ZM886 -552V-619C850 -614 829 -613 644 -613C466 -613 435 -614 400 -619C416 -182 403 -98 307 28C334 34 356 45 375 60C468 -102 475 -156 475 -559H728C799 -559 863 -557 886 -552ZM857 -456V-525C816 -519 765 -516 685 -516C606 -516 555 -519 514 -525V-456C555 -463 606 -466 685 -466C765 -466 816 -463 857 -456ZM160 -503C116 -504 92 -506 74 -510V-434C95 -438 115 -440 151 -441C139 -361 129 -317 105 -251C146 -224 182 -198 213 -172C176 -107 127 -56 61 -7C89 5 107 17 123 38C189 -24 233 -75 267 -127C290 -107 310 -88 326 -70C338 -92 350 -107 374 -131C353 -149 328 -168 300 -188C335 -265 350 -358 359 -510C337 -505 307 -503 226 -503C241 -569 250 -596 254 -599C276 -617 275 -620 252 -621C226 -622 205 -626 170 -638C171 -604 168 -567 160 -503ZM213 -442H290C281 -355 265 -286 241 -228C221 -242 200 -256 180 -269C196 -358 203 -396 213 -442ZM403 -753V-794C403 -806 405 -810 414 -815C424 -821 422 -829 410 -829C385 -829 352 -831 326 -835C329 -813 331 -785 332 -753C231 -753 155 -755 82 -761V-684C143 -689 232 -692 332 -693V-639H403V-693H572V-644H643V-693C755 -693 852 -690 919 -684V-761C852 -755 818 -753 643 -753V-795C643 -807 645 -811 654 -816C664 -822 662 -830 650 -830C625 -830 592 -832 566 -836C569 -814 571 -785 572 -753ZM738 -107V-33C738 -3 727 3 668 -10C687 13 698 47 700 73C799 52 804 49 804 1V-107C865 -106 901 -103 919 -100V-174C901 -168 877 -166 804 -163C805 -188 808 -196 814 -200C825 -209 821 -213 799 -212C771 -212 757 -213 727 -220C731 -205 735 -184 737 -163H645C563 -163 516 -167 491 -174V-101C516 -105 563 -107 645 -107ZM632 -374C689 -272 761 -225 910 -208C913 -232 918 -245 941 -272C886 -271 847 -275 813 -284C851 -319 868 -330 877 -332C891 -334 890 -340 874 -346C852 -354 832 -363 817 -372C809 -355 796 -335 770 -301C742 -317 715 -340 685 -374H831C873 -374 912 -370 930 -365V-431C911 -425 834 -421 706 -421C569 -421 513 -423 486 -428V-367C498 -369 518 -371 539 -372V-283C539 -245 536 -236 518 -227C529 -214 537 -199 543 -179C558 -191 573 -199 584 -203L682 -239C674 -253 671 -268 671 -293C647 -280 625 -270 602 -262V-374Z"/>
</svg>