<svg xmlns="http://www.w3.org/2000/svg" viewBox="0 -1000 1000 1000">
	<path fill="#000000" d="M747 -277H424V-331H747ZM189 -78C159 -71 127 -48 58 12C86 26 109 42 129 59C190 -27 215 -33 287 8C373 57 390 62 918 54C916 33 924 -2 941 -23C893 -18 749 -11 598 -11C446 -11 375 -21 342 -37C306 -53 280 -64 261 -71V-288C261 -332 263 -355 270 -382C242 -379 207 -377 169 -377C132 -377 97 -379 72 -382V-306C91 -309 109 -310 143 -310H189ZM266 -489C241 -532 205 -591 174 -636L101 -595C135 -556 167 -502 186 -449ZM621 -579V-597C621 -607 622 -615 625 -621H677V-679C773 -679 858 -676 915 -671V-755C858 -750 773 -748 677 -748V-788C677 -799 679 -803 687 -807C700 -815 697 -825 682 -825C657 -825 624 -827 598 -830C602 -804 603 -784 603 -748H399V-788C399 -799 401 -803 409 -807C422 -815 419 -825 404 -825C379 -825 346 -827 320 -830C324 -803 325 -784 325 -748C207 -748 139 -750 80 -755V-671C138 -676 227 -679 325 -679V-620H399V-679H603V-646C585 -646 571 -647 543 -650C547 -641 548 -627 548 -579C465 -579 399 -581 341 -585V-518C396 -522 463 -524 548 -524V-478C429 -478 365 -480 293 -483V-419C372 -422 445 -423 594 -423C745 -423 816 -422 896 -418V-483C822 -480 754 -478 621 -478V-524C722 -524 782 -522 839 -518V-585C784 -581 722 -579 621 -579ZM683 -166C652 -177 619 -188 586 -198V-224C645 -224 694 -223 736 -222C719 -200 704 -183 683 -166ZM518 -172V-97C518 -73 516 -45 513 -24H589C587 -44 586 -76 586 -97V-143C677 -110 756 -71 832 -25L883 -82C843 -102 796 -122 747 -142C781 -170 796 -178 807 -181C821 -185 821 -194 807 -197C788 -201 771 -209 751 -222C776 -221 798 -221 816 -220C816 -242 816 -272 816 -303C816 -331 816 -366 816 -386C763 -384 692 -383 587 -383C484 -383 407 -384 353 -386C355 -364 356 -330 356 -299C356 -271 355 -242 353 -221C389 -223 434 -224 492 -224C433 -172 374 -143 281 -112C303 -99 326 -79 336 -55C405 -84 464 -122 518 -172Z"/>
</svg>