<svg xmlns="http://www.w3.org/2000/svg" viewBox="0 -1000 1000 1000">
	<path fill="#000000" d="M772 -109H462V-143H772ZM772 -182H462V-220H772ZM772 -257H462V-291H772ZM650 -545H779V-490H650ZM650 -443C727 -443 793 -442 852 -439C850 -458 849 -492 849 -519C849 -546 850 -575 852 -593C793 -591 728 -590 651 -590C652 -609 657 -617 663 -621C674 -627 670 -634 658 -633C645 -631 614 -633 577 -635C579 -622 581 -602 581 -590C503 -590 442 -591 381 -593C383 -574 384 -546 384 -519C384 -495 383 -464 381 -439C442 -442 503 -443 581 -443V-412C490 -412 389 -415 321 -420V-358C396 -363 479 -365 625 -365C770 -365 861 -363 937 -358V-420C865 -415 781 -412 650 -412ZM581 -490H454V-545H581ZM381 -752V-794C381 -806 383 -810 392 -815C402 -821 400 -829 388 -829C363 -829 326 -832 300 -835C305 -808 306 -790 306 -752C213 -752 133 -754 75 -760V-686C131 -691 218 -695 306 -695V-646H381V-695H615V-643H690V-695C779 -695 865 -691 922 -686V-760C865 -755 780 -752 690 -752V-794C690 -806 692 -810 701 -815C711 -821 709 -829 697 -829C672 -829 635 -832 609 -835C614 -808 615 -790 615 -752ZM711 -65C784 -64 812 -63 849 -60C848 -70 846 -95 846 -116V-282C846 -304 848 -328 849 -338C799 -335 766 -335 615 -335C466 -335 443 -335 392 -338C395 -328 396 -304 396 -282V-116C396 -95 395 -70 392 -60C428 -63 449 -64 510 -65C442 -22 366 16 299 34C321 49 337 65 349 79C398 63 459 34 525 0C542 -9 555 -13 579 -16C594 -18 593 -26 580 -30C563 -36 536 -53 522 -65H684L650 -15C717 5 806 47 868 81L918 24C864 -3 788 -34 711 -65ZM360 -611C329 -607 291 -606 228 -606C175 -606 129 -607 101 -611C105 -587 107 -533 107 -477V-104C107 -40 106 6 104 74H178V-554H273L213 -353C262 -288 288 -236 285 -200C283 -168 269 -161 189 -169C206 -142 215 -117 213 -88C312 -102 355 -134 359 -189C362 -243 335 -298 277 -359Z"/>
</svg>