<svg xmlns="http://www.w3.org/2000/svg" viewBox="0 -1000 1000 1000">
	<path fill="#000000" d="M223 -188H348V-114H223ZM287 -232C229 -232 188 -235 158 -238C163 -218 166 -182 166 -154C166 -126 163 -88 158 -68C188 -71 229 -72 287 -72C345 -72 386 -71 414 -67C410 -86 407 -126 407 -155C407 -182 410 -219 414 -238C384 -234 345 -232 287 -232ZM658 -190H786V-121H658ZM725 -236C665 -236 621 -240 591 -243C595 -223 599 -185 599 -154C599 -119 596 -89 591 -68C621 -70 665 -72 725 -72C786 -72 829 -71 857 -67C852 -87 850 -125 850 -154C850 -182 853 -224 857 -243C828 -239 786 -236 725 -236ZM656 -472H792V-413H656ZM725 -520C665 -520 623 -522 592 -526C596 -507 599 -470 599 -442C599 -414 596 -378 592 -358C622 -361 665 -363 725 -363C786 -363 828 -360 856 -357C851 -376 849 -413 849 -442C849 -469 850 -505 856 -526C829 -522 786 -520 725 -520ZM225 -478H348V-404H225ZM288 -525C232 -525 190 -527 161 -531C166 -511 167 -477 167 -450C167 -422 165 -376 161 -355C191 -357 232 -359 288 -359C345 -359 387 -357 413 -354C410 -372 407 -422 407 -451C407 -477 410 -514 413 -531C384 -527 345 -525 288 -525ZM688 -743V-786C688 -798 690 -802 699 -807C709 -813 707 -821 695 -821C670 -821 638 -824 612 -827C617 -800 618 -780 618 -743H381V-786C381 -798 383 -802 392 -807C402 -813 400 -821 388 -821C363 -821 327 -822 301 -825C306 -798 309 -773 309 -743C223 -743 148 -746 93 -751V-676C146 -681 238 -685 309 -685V-628H381V-685H618V-628H688V-685C765 -685 863 -681 920 -676V-751C863 -746 782 -743 688 -743ZM470 -563V-329C296 -329 178 -331 79 -335V-267C178 -272 300 -275 470 -275V-25C307 -25 195 -26 102 -31V41C204 36 326 34 513 34C700 34 822 36 924 41V-31C827 -27 711 -25 539 -25V-275C714 -275 832 -272 931 -267V-335C832 -331 714 -329 539 -329V-563C701 -563 810 -560 902 -555V-625C806 -621 689 -617 511 -617C333 -617 217 -620 120 -625V-555C209 -560 329 -563 470 -563Z"/>
</svg>