<svg xmlns="http://www.w3.org/2000/svg" viewBox="0 -1000 1000 1000">
	<path fill="#000000" d="M783 -562C770 -593 748 -629 728 -657L652 -629C676 -599 694 -563 703 -532ZM688 -27C633 -27 562 -30 516 -35V44C572 38 635 35 737 35C840 35 894 38 949 44V-35C899 -29 849 -27 761 -27V-238C828 -238 865 -235 907 -230V-313C865 -307 826 -303 761 -303V-471C844 -471 876 -469 926 -463V-538C872 -532 838 -529 738 -529C638 -529 595 -532 541 -538V-463C585 -468 633 -471 688 -471V-303C642 -303 588 -307 550 -313V-230C588 -235 629 -238 688 -238ZM398 -750V-791C398 -803 400 -807 410 -812C420 -818 418 -826 406 -826C380 -826 344 -829 317 -832C322 -805 323 -787 323 -750C220 -750 130 -752 66 -758V-683C128 -688 220 -692 323 -692V-643H398V-692H596V-643H672V-692C771 -692 865 -688 926 -683V-758C865 -753 775 -750 672 -750V-791C672 -803 674 -807 684 -812C694 -818 692 -826 680 -826C654 -826 617 -829 590 -832C595 -805 596 -787 596 -750ZM266 -31C253 -38 237 -55 222 -72C173 -31 100 10 55 21C77 39 92 57 102 81C148 61 194 32 227 5C238 -4 250 -13 258 -14C274 -16 278 -24 266 -31ZM515 9C474 -17 437 -37 368 -74L327 -28C377 -4 435 34 479 75ZM350 -453H251V-515H350ZM333 -292H412V-245H333ZM270 -245H188V-292H270ZM333 -193H412V-141H333ZM270 -141H188V-193H270ZM333 -400C404 -400 466 -397 529 -390L530 -460C494 -456 444 -453 416 -453V-514C442 -514 478 -511 504 -507V-579C478 -574 438 -570 416 -570V-586C416 -602 421 -615 424 -620C429 -626 428 -635 421 -633C409 -630 362 -630 347 -633C349 -617 350 -595 350 -570H251V-587C251 -603 254 -616 259 -621C264 -627 262 -636 255 -634C244 -631 200 -629 185 -632C188 -616 190 -590 190 -570C164 -570 120 -574 92 -579V-507C120 -511 168 -515 190 -515V-453C157 -453 99 -456 60 -460V-390C122 -397 186 -400 270 -400V-348C234 -348 167 -352 123 -357C125 -315 127 -262 127 -219C127 -170 126 -125 123 -81C170 -86 213 -88 296 -88C387 -88 432 -86 480 -81C478 -121 476 -168 476 -219C476 -268 477 -311 480 -357C439 -352 376 -348 333 -348Z"/>
</svg>