<svg xmlns="http://www.w3.org/2000/svg" viewBox="0 -1000 1000 1000">
	<path fill="#000000" d="M615 -749H395V-783C395 -794 397 -798 405 -802C419 -810 416 -820 400 -820C375 -820 349 -821 323 -825C327 -800 328 -785 328 -749C225 -749 136 -752 74 -756V-680C134 -685 225 -688 328 -688V-645H395V-688H615V-646H684V-688C781 -688 866 -685 924 -680V-756C866 -752 781 -749 684 -749V-782C684 -793 686 -797 694 -801C707 -809 704 -819 689 -819C663 -819 637 -820 610 -824C614 -799 615 -783 615 -749ZM791 -87V-61C791 -16 773 -6 676 -16C699 13 710 41 714 65C845 51 859 26 859 -35V-192C859 -244 859 -270 861 -292C806 -285 756 -284 696 -284C633 -284 545 -287 490 -292V-227C521 -229 569 -230 624 -230H791V-141C685 -113 600 -95 475 -77C487 -50 493 -32 496 -4C578 -31 636 -50 791 -87ZM390 -72V-54C390 -12 374 0 284 -13C305 17 316 43 323 69C432 60 455 34 455 -28V-193C455 -245 456 -270 458 -292C402 -286 349 -285 286 -285C223 -285 160 -287 104 -292V-227C133 -229 175 -230 236 -230H390V-125C281 -98 153 -75 65 -66C86 -38 95 -19 100 7C126 -4 218 -32 390 -72ZM284 -127C273 -160 267 -177 257 -212L180 -191C195 -157 201 -137 207 -108ZM665 -135C654 -161 647 -190 643 -213L564 -193C578 -163 588 -138 592 -115ZM553 -352C574 -339 577 -329 585 -312C638 -320 681 -331 718 -347C771 -329 838 -317 928 -314C933 -336 941 -353 958 -370C892 -365 829 -369 775 -382C813 -411 846 -453 880 -511C835 -509 801 -509 737 -509C673 -509 606 -509 559 -511V-463C590 -465 625 -466 658 -466H788C774 -440 753 -418 718 -400C684 -414 655 -434 636 -455L584 -432C605 -411 628 -392 656 -376C628 -368 593 -360 553 -354V-368C531 -365 486 -364 388 -364H188V-592H416C470 -592 541 -589 556 -586V-639C527 -637 492 -636 339 -636C186 -636 155 -637 124 -639C126 -624 127 -578 127 -554V-391C127 -365 126 -327 124 -312C155 -316 184 -316 337 -316C489 -316 524 -316 553 -312ZM936 -577C901 -572 879 -571 854 -571C822 -571 823 -590 835 -639C800 -636 770 -636 725 -636C682 -636 642 -636 605 -639C610 -589 605 -573 553 -544C579 -533 589 -527 604 -512C646 -538 661 -560 661 -594H763V-558C763 -536 773 -528 824 -526C852 -525 891 -526 916 -527C916 -540 923 -560 936 -577ZM416 -487C420 -497 423 -507 426 -518C478 -518 497 -518 528 -516V-560C500 -558 473 -558 394 -558H319C324 -564 329 -567 336 -569C344 -571 344 -576 332 -577C313 -578 295 -581 274 -589C262 -565 236 -540 198 -519C226 -516 237 -513 254 -501C264 -507 272 -513 279 -518H369C367 -506 364 -496 360 -487C296 -487 254 -489 216 -491V-445C247 -448 291 -450 328 -450C305 -434 269 -421 212 -402C237 -389 247 -383 263 -368C312 -383 346 -400 371 -421C422 -404 450 -394 505 -373L542 -410C488 -427 457 -436 412 -450C474 -450 508 -448 543 -445V-491C509 -488 476 -487 416 -487Z"/>
</svg>