<svg xmlns="http://www.w3.org/2000/svg" viewBox="0 -1000 1000 1000">
	<path fill="#000000" d="M523 -405H435V-472H523ZM656 -405H581V-472H656ZM804 -405H715V-472H804ZM564 -235C557 -253 553 -265 553 -285C489 -251 427 -234 350 -223C365 -205 374 -185 382 -160C459 -195 513 -217 564 -235ZM898 -237C823 -256 761 -267 687 -274L673 -227C738 -220 811 -204 869 -180ZM521 -308C479 -325 440 -339 398 -352L364 -307C407 -297 453 -281 490 -264ZM776 -87C837 -124 857 -133 868 -133C887 -133 893 -146 875 -154C855 -163 830 -176 810 -191C794 -169 768 -146 732 -124C717 -143 702 -170 688 -206L627 -183C686 -64 761 -4 916 49C922 23 935 -2 956 -28C881 -43 817 -64 776 -87ZM648 -360C712 -360 765 -359 816 -357C759 -335 710 -323 677 -321C689 -307 698 -292 701 -277C800 -298 844 -301 871 -299C889 -298 892 -307 877 -317C860 -329 845 -341 830 -357C845 -356 859 -356 874 -355C871 -381 869 -400 869 -440C869 -478 871 -500 874 -524C795 -520 722 -519 620 -519C517 -519 445 -520 367 -524C369 -497 370 -478 370 -440C370 -406 369 -388 367 -355C436 -358 525 -360 586 -360V-301C586 -267 584 -248 581 -221H653C649 -253 648 -273 648 -300ZM486 -100V-47C486 -24 471 1 440 16C466 38 480 58 492 88C506 69 525 56 543 45L674 -34C666 -54 662 -71 663 -100C636 -79 598 -56 554 -32V-151C575 -166 605 -181 616 -185C634 -192 632 -198 618 -202C597 -209 578 -218 562 -225C455 -135 359 -92 252 -71C282 -54 294 -42 304 -8C381 -37 429 -59 486 -100ZM403 -766V-794C403 -806 405 -810 414 -815C424 -821 422 -829 410 -829C385 -829 353 -832 327 -835C331 -812 333 -789 333 -766C232 -766 144 -768 82 -774V-696C142 -701 232 -705 333 -705V-646H403V-705H606V-671H677V-705C779 -705 870 -702 929 -696V-774C868 -768 779 -766 677 -766V-794C677 -806 679 -810 688 -815C698 -821 696 -829 684 -829C659 -829 626 -832 600 -835C604 -812 606 -791 606 -766ZM580 -609C480 -609 395 -612 327 -616V-550C403 -554 481 -556 620 -556C760 -556 837 -553 912 -550V-616C845 -612 759 -609 664 -609C659 -628 651 -650 642 -670L566 -647C572 -636 576 -623 580 -609ZM182 -409V-151C135 -132 88 -115 53 -108C71 -82 83 -56 90 -27C146 -66 219 -106 356 -160C341 -179 333 -203 332 -227C316 -216 287 -200 253 -183V-408C282 -408 315 -406 341 -402V-473C315 -469 285 -467 253 -467V-615C253 -623 256 -633 263 -636C280 -647 277 -658 259 -658C227 -658 205 -659 179 -663C182 -636 182 -615 182 -467C133 -467 104 -469 75 -473V-402C104 -406 144 -409 182 -409Z"/>
</svg>