<svg xmlns="http://www.w3.org/2000/svg" viewBox="0 -1000 1000 1000">
	<path fill="#000000" d="M157 -438V-509H350V-438ZM350 -379V-308H157V-379ZM424 -89C406 -28 382 13 348 49C375 55 405 64 428 78C492 -21 509 -105 522 -327C526 -401 527 -481 524 -573H615V-476C593 -472 570 -470 543 -467L545 -400C572 -406 595 -411 615 -416V-381C615 -320 629 -307 745 -307C848 -307 870 -323 892 -410C868 -415 853 -421 835 -442C826 -387 810 -364 745 -364C690 -364 680 -368 680 -390V-429C712 -435 746 -441 794 -448L789 -513C747 -502 710 -493 680 -487V-573H839L807 -507L888 -500L936 -647C895 -637 843 -634 743 -634H675V-708H796C849 -708 872 -706 891 -704V-773C872 -771 850 -769 796 -769H675C675 -787 679 -810 688 -816C699 -825 698 -830 685 -830C653 -830 635 -831 597 -835C603 -804 606 -773 606 -750V-634C543 -635 469 -635 451 -637C459 -516 461 -410 456 -320C451 -228 442 -159 428 -105C407 -140 380 -178 352 -213L301 -176C331 -146 356 -104 375 -49ZM187 -180C173 -181 142 -198 126 -213C109 -162 78 -117 29 -70C51 -62 77 -41 91 -23C113 -54 140 -96 156 -125C166 -143 182 -157 187 -159C207 -167 201 -179 187 -180ZM964 -69C941 -72 910 -88 896 -105C884 -19 872 -11 844 -11C801 -11 793 -17 793 -38V-193C793 -216 794 -239 795 -258C774 -255 747 -253 691 -253C623 -253 613 -254 587 -258C594 -207 593 -167 583 -113C572 -52 545 -4 484 37C516 53 534 63 552 81C627 7 649 -57 661 -195H728V-7C728 39 748 57 833 57C917 57 938 48 964 -69ZM115 -569C107 -570 100 -571 94 -572C96 -505 96 -468 96 -404C96 -341 95 -285 93 -240C121 -246 180 -252 223 -252V-64C223 -39 207 -26 131 -42C145 -15 152 7 156 49C259 45 290 18 290 -27V-252C328 -252 391 -247 415 -242C413 -282 413 -341 413 -404C413 -468 413 -530 415 -572C366 -566 330 -563 295 -563V-752C295 -781 300 -800 308 -811C316 -821 315 -827 304 -826C292 -825 244 -827 224 -832C227 -807 228 -758 228 -712V-563C197 -564 149 -566 117 -569C157 -649 185 -698 200 -710C214 -722 211 -729 197 -729C182 -730 156 -740 134 -754C119 -707 93 -652 53 -591C72 -588 96 -580 115 -569ZM432 -622C409 -665 383 -707 355 -748L305 -720C330 -684 354 -637 372 -590Z"/>
</svg>