<svg xmlns="http://www.w3.org/2000/svg" viewBox="0 -1000 1000 1000">
	<path fill="#000000" d="M171 -332H239V-120C158 -107 91 -101 55 -101C66 -75 75 -35 79 -4C109 -20 175 -40 231 -52L408 -90C412 -74 416 -57 419 -40L500 -74C480 -135 459 -190 435 -244L364 -223C376 -197 385 -171 393 -146L308 -131V-332H382V-295H458C453 -332 450 -368 450 -416V-580C450 -615 453 -647 458 -673C416 -667 365 -664 308 -664V-768C308 -789 310 -797 324 -804C337 -810 336 -821 315 -821C286 -821 260 -824 231 -831C237 -801 239 -757 239 -726V-664C196 -664 142 -667 97 -673C102 -647 105 -616 105 -580V-355C105 -322 102 -285 97 -244H171ZM239 -601V-396H171V-601ZM382 -396H308V-601H382ZM790 -292L613 -245V-668C613 -677 618 -688 632 -695C648 -703 643 -714 622 -712C593 -709 566 -711 533 -717C536 -697 537 -656 537 -601V-276C537 -242 531 -235 510 -222C526 -193 536 -163 543 -136C564 -149 588 -159 613 -166L790 -216V-103C790 -58 786 29 781 77H879C873 22 869 -58 869 -103V-720C869 -768 872 -788 883 -794C905 -807 899 -814 876 -814C840 -814 820 -815 782 -821C788 -799 790 -740 790 -671Z"/>
</svg>