<svg xmlns="http://www.w3.org/2000/svg" viewBox="0 -1000 1000 1000">
	<path fill="#000000" d="M789 -702C764 -744 739 -788 724 -822L642 -778C666 -739 689 -693 703 -656ZM656 -566C813 -566 888 -565 924 -560V-646C892 -642 850 -639 711 -639C572 -639 540 -641 500 -646V-560C521 -563 541 -564 578 -565V-108C578 -49 575 3 570 37C602 34 636 33 737 33C838 33 869 34 904 37V-44C869 -40 838 -39 783 -39H656ZM178 -286H252V-84C159 -69 109 -64 85 -64C94 -37 104 5 108 33C131 22 197 1 232 -8L435 -60C442 -31 448 -3 452 21L531 -10C509 -66 479 -163 462 -220L392 -199C402 -174 412 -145 420 -115L326 -97V-286H403V-264H479C477 -292 476 -323 476 -405V-532C476 -567 477 -603 479 -620C454 -618 402 -617 326 -617V-714C326 -751 329 -759 343 -769C356 -779 353 -787 339 -786C313 -785 277 -789 248 -794C250 -775 252 -712 252 -617C182 -617 131 -618 103 -620C105 -607 106 -568 106 -532V-314C106 -281 105 -241 102 -203H178ZM252 -550V-351H178V-550ZM403 -351H326V-550H403Z"/>
</svg>