<svg xmlns="http://www.w3.org/2000/svg" viewBox="0 -1000 1000 1000">
	<path fill="#000000" d="M919 -799C935 -809 933 -821 912 -821C889 -821 854 -824 830 -827C833 -799 835 -746 835 -659V-87C835 -17 829 -11 715 -27C741 6 753 38 761 72C894 60 906 44 906 -64V-768C906 -784 910 -793 919 -799ZM778 -663C794 -673 792 -686 773 -685C757 -684 725 -686 697 -691C699 -665 700 -629 700 -579V-270C700 -230 699 -191 697 -142H772C768 -189 769 -230 769 -270V-632C769 -646 772 -659 778 -663ZM189 -585V-390H138V-585ZM306 -390H258V-585H306ZM469 -701C465 -562 427 -436 371 -350V-561C371 -596 369 -633 371 -650C349 -648 317 -648 258 -648V-770C258 -791 263 -806 274 -811C288 -817 284 -833 268 -832C247 -831 217 -833 187 -837C189 -819 189 -800 189 -672V-648C131 -648 94 -648 70 -650C72 -637 72 -597 72 -561V-370C72 -337 71 -297 69 -258L138 -257V-330H189V-131C133 -120 83 -114 45 -114C57 -88 65 -56 67 -28C108 -41 157 -56 210 -71L342 -110C346 -92 350 -76 352 -63L424 -84C414 -123 389 -197 375 -240L305 -222C312 -204 320 -183 327 -161L258 -146V-330H306V-280H371C370 -295 370 -308 370 -330C389 -317 407 -301 417 -278C462 -359 490 -433 506 -499H592C589 -422 581 -364 560 -295C541 -321 524 -340 499 -369L453 -317C482 -288 511 -251 532 -216C493 -131 417 -37 316 8C342 21 377 48 394 67C490 -9 576 -110 615 -230C640 -308 653 -364 670 -568H522C532 -617 538 -657 542 -701C603 -701 638 -700 666 -695V-772C635 -767 610 -765 530 -765C469 -765 415 -767 383 -772V-695C403 -698 444 -701 469 -701Z"/>
</svg>