<svg xmlns="http://www.w3.org/2000/svg" viewBox="0 -1000 1000 1000">
	<path fill="#000000" d="M804 -721V-617H545V-721ZM804 -553V-450H545V-553ZM152 -332H211V-127C131 -113 84 -109 47 -112C58 -86 67 -45 71 -14C100 -30 158 -48 202 -58L363 -95C366 -81 369 -66 372 -50L446 -80C427 -135 406 -192 383 -250L318 -233C330 -205 340 -178 347 -151L281 -140V-332H343V-295H423C418 -332 415 -368 415 -416V-590C415 -625 418 -657 423 -683C394 -678 335 -674 281 -674V-776C281 -797 283 -805 296 -812C309 -818 308 -828 288 -829C260 -831 233 -833 203 -839C209 -809 211 -765 211 -734V-674C165 -674 118 -677 75 -683C80 -657 83 -626 83 -590V-355C83 -322 80 -285 75 -244H152ZM211 -614V-391H152V-614ZM343 -391H281V-614H343ZM730 -243C709 -284 690 -343 682 -385C788 -385 852 -382 886 -377C882 -418 879 -464 879 -496V-688C879 -728 881 -762 885 -795C853 -790 759 -784 675 -784C590 -784 496 -790 465 -795C471 -761 472 -729 472 -688V-74C472 -36 461 -9 429 1C448 22 464 51 472 81C498 52 519 33 537 23L668 -50C662 -76 658 -101 656 -131C632 -115 580 -86 545 -66V-385H613C633 -288 666 -199 708 -140C768 -56 821 -9 909 34C919 7 939 -25 969 -54C885 -70 827 -109 763 -193C876 -276 909 -289 931 -293C937 -294 938 -302 932 -305C910 -317 888 -334 866 -364C827 -317 785 -279 730 -243Z"/>
</svg>