<svg xmlns="http://www.w3.org/2000/svg" viewBox="0 -1000 1000 1000">
	<path fill="#000000" d="M191 -590V-370H142V-590ZM311 -370H259V-590H311ZM746 -259V-374H815V-259ZM618 -260V-374H685V-259ZM494 -260V-374H558V-260ZM636 -737C671 -675 721 -614 765 -573H527C577 -635 614 -693 636 -737ZM500 -540V-502C535 -508 580 -511 641 -511C703 -511 747 -508 782 -502V-557C820 -522 859 -493 913 -458C927 -498 939 -517 966 -543C853 -577 752 -660 674 -789C705 -798 708 -807 682 -813C659 -819 634 -829 604 -844C591 -799 556 -726 515 -672C443 -576 413 -542 373 -513V-567C373 -602 376 -634 381 -660C353 -655 306 -651 259 -651V-765C259 -786 261 -794 275 -801C287 -807 286 -817 266 -818C240 -820 211 -822 183 -828C189 -798 191 -754 191 -723V-651C149 -651 99 -654 70 -660C75 -634 78 -603 78 -567V-332C78 -299 75 -262 70 -221H142V-309H191V-120C110 -106 64 -103 31 -104C41 -78 50 -41 54 -10C81 -26 133 -44 175 -54L333 -92C337 -76 340 -59 343 -42L415 -72C393 -127 373 -184 355 -242L291 -225C302 -198 311 -171 319 -144L259 -133V-309H311V-272H381C376 -309 373 -345 373 -393V-463C383 -454 391 -443 398 -432C435 -468 469 -504 500 -540ZM679 -11H750C747 -77 746 -132 746 -199H815V-38C815 -13 803 -3 734 -11C759 33 760 45 758 77C866 70 887 41 887 -22V-309C887 -387 888 -422 889 -445C836 -440 805 -438 658 -438C509 -438 473 -440 421 -445C423 -424 424 -387 424 -309V-92C424 -30 421 19 416 71H494V-199H558C558 -129 556 -60 552 -3H623C620 -61 618 -130 618 -199H685C684 -132 682 -65 679 -11Z"/>
</svg>