<svg xmlns="http://www.w3.org/2000/svg" viewBox="0 -1000 1000 1000">
	<path fill="#000000" d="M203 -611V-390H152V-611ZM321 -390H270V-611H321ZM798 -83V-76C797 -10 785 1 698 -9C723 21 734 46 737 80C854 61 872 47 872 -30V-304C872 -338 876 -370 880 -391C828 -385 741 -382 666 -382C588 -382 508 -386 450 -391C456 -372 459 -338 459 -304V-83C459 -28 456 8 447 62H531V-83ZM531 -260V-322H798V-260ZM798 -203V-141H531V-203ZM511 -521C549 -486 608 -450 668 -434C731 -418 821 -410 934 -412C934 -438 942 -471 965 -501C871 -486 775 -485 701 -495V-579C769 -579 808 -578 842 -573V-643C807 -640 772 -638 701 -638V-714H842L821 -671L895 -661L941 -785C883 -779 820 -776 679 -776C538 -776 491 -779 434 -785V-705C485 -710 555 -714 632 -714V-512C596 -527 558 -550 530 -573C545 -614 550 -624 557 -628C572 -637 573 -645 556 -647C532 -650 498 -658 476 -666C462 -561 437 -500 386 -429V-589C386 -624 390 -656 396 -682C371 -677 321 -673 270 -673V-769C270 -790 272 -798 286 -805C299 -811 298 -821 277 -822C251 -823 224 -826 195 -832C200 -804 203 -766 203 -727V-673C158 -673 109 -677 79 -682C83 -655 85 -625 85 -589V-354C85 -321 82 -284 77 -243H152V-329H203V-130C119 -112 79 -108 44 -108C56 -83 64 -53 70 -13C99 -30 153 -50 196 -61L352 -103C356 -86 359 -69 362 -51L436 -81C413 -136 392 -193 372 -251L309 -234C320 -208 329 -183 337 -157L270 -143V-329H321V-294H394C389 -331 386 -363 386 -425C408 -422 436 -410 451 -397C480 -450 499 -490 511 -521Z"/>
</svg>