<svg xmlns="http://www.w3.org/2000/svg" viewBox="0 -1000 1000 1000">
	<path fill="#000000" d="M820 -170H531V-247H820ZM820 -306H531V-371H820ZM820 -430H531V-501H820ZM199 -589V-377H145V-589ZM323 -377H268V-589H323ZM639 -567C563 -567 524 -568 493 -570C525 -601 558 -636 583 -666H724ZM586 -109H765L717 -53C790 -12 847 29 902 74L958 2C896 -39 846 -69 771 -109C834 -109 864 -108 897 -105C895 -126 895 -171 895 -209V-469C895 -505 895 -553 897 -573C856 -569 805 -567 725 -567L865 -730C833 -726 800 -724 751 -724H627C650 -751 676 -776 686 -781C703 -790 702 -796 687 -800C654 -810 631 -820 601 -836C534 -704 488 -652 389 -575C390 -606 392 -635 395 -659C362 -653 312 -650 268 -650V-772C268 -791 270 -801 284 -808C296 -814 295 -824 275 -825C248 -827 220 -829 191 -835C197 -805 199 -769 199 -730V-650C150 -650 101 -655 72 -659C77 -633 79 -602 79 -566V-341C79 -308 77 -271 72 -230H145V-318H199V-126C127 -109 80 -103 48 -103C61 -77 71 -47 76 -10C107 -30 140 -44 193 -60L344 -105C348 -86 352 -66 355 -46L427 -76C404 -131 384 -188 367 -246L304 -229C314 -204 322 -181 329 -158L268 -143V-318H323V-281H395C392 -318 389 -354 389 -402V-548C404 -534 415 -520 421 -503C432 -512 445 -524 459 -537C460 -515 461 -488 461 -468V-218C461 -180 460 -132 457 -108C491 -110 516 -110 579 -110C520 -59 447 -20 368 10C394 30 414 54 427 78C474 47 531 9 579 -18C604 -32 618 -41 632 -43C649 -45 650 -56 636 -64C624 -71 601 -89 586 -109Z"/>
</svg>