<svg xmlns="http://www.w3.org/2000/svg" viewBox="0 -1000 1000 1000">
	<path fill="#000000" d="M184 -590V-394H132V-590ZM299 -394H250V-590H299ZM455 -477C448 -519 437 -561 420 -608L367 -588C380 -543 390 -506 396 -461ZM766 -316C772 -363 777 -414 778 -463C825 -463 868 -460 893 -456V-527C866 -523 824 -520 759 -520H657C664 -544 676 -569 687 -576C705 -588 701 -597 688 -597C667 -597 637 -605 608 -616C605 -542 581 -450 550 -400C573 -398 589 -392 609 -380C623 -412 633 -438 641 -463H708C709 -415 707 -367 701 -316C624 -316 578 -319 545 -322V-251C573 -255 640 -259 690 -259C659 -126 579 -26 476 22C509 38 530 53 547 73C634 14 712 -88 747 -216C768 -99 813 -19 895 58C912 26 931 0 954 -20C863 -82 825 -136 793 -259C844 -259 912 -254 938 -251V-324C909 -319 846 -316 766 -316ZM724 -832L640 -815C657 -779 666 -754 676 -714L760 -734C742 -771 732 -796 724 -832ZM460 -326C442 -156 397 -49 319 33C351 43 372 54 398 69C503 -90 536 -296 536 -646H767C860 -646 893 -646 940 -639V-713C893 -706 863 -705 700 -705C563 -705 517 -706 466 -712C471 -591 471 -488 466 -401C436 -378 400 -353 358 -331C358 -353 357 -381 357 -440V-565C357 -600 358 -635 360 -652C339 -650 308 -649 250 -649V-766C250 -789 256 -805 268 -810C285 -817 284 -826 263 -825C237 -824 210 -827 181 -831C184 -813 184 -796 184 -668V-649C127 -649 93 -650 69 -652C71 -639 72 -601 72 -565V-375C72 -342 71 -302 68 -264H132V-338H184V-127C131 -116 88 -111 50 -111C62 -86 71 -46 74 -20C114 -38 149 -53 207 -70L324 -104C326 -93 328 -83 330 -73L389 -91C379 -130 364 -177 348 -220L291 -205C298 -187 304 -171 309 -155L250 -142V-338H299V-308H333C347 -290 357 -272 364 -251C400 -281 432 -306 460 -326Z"/>
</svg>