<svg xmlns="http://www.w3.org/2000/svg" viewBox="0 -1000 1000 1000">
	<path fill="#000000" d="M430 -140H251V-206H430ZM502 -206H703V-140H502ZM502 -89C595 -89 700 -86 754 -82L703 -58C715 -48 726 -40 735 -32L502 -24ZM502 -259C502 -294 505 -303 512 -307C525 -313 522 -319 510 -318C474 -316 454 -318 424 -322C429 -310 430 -303 430 -259C326 -259 218 -263 175 -266C179 -249 181 -223 181 -173C181 -125 179 -100 175 -81C212 -84 324 -89 430 -89V-21C250 -16 133 -16 77 -21C89 1 98 26 100 49C146 43 216 38 396 31L784 15C797 29 808 44 821 63L890 24C850 -13 805 -50 760 -82C767 -82 774 -81 780 -81C776 -100 774 -125 774 -173C774 -223 776 -249 780 -266C740 -262 631 -259 502 -259ZM472 -393C430 -388 392 -387 294 -387C212 -387 154 -388 115 -393V-328C158 -332 214 -334 294 -334C373 -334 429 -332 472 -328ZM707 -344C755 -319 823 -298 892 -286C899 -308 911 -331 934 -359C874 -358 813 -368 765 -384C820 -430 863 -490 893 -568C838 -566 776 -565 716 -565C656 -565 596 -566 541 -568V-503C587 -507 628 -509 671 -509H794C777 -475 744 -437 707 -410C672 -431 645 -460 621 -503L567 -480C592 -440 616 -410 653 -380C602 -358 545 -347 494 -343C522 -323 545 -298 553 -281C621 -303 667 -322 707 -344ZM502 -430V-553C461 -549 419 -547 286 -547C152 -547 110 -549 69 -553V-424H140V-496H435V-430ZM937 -676C845 -650 830 -654 831 -714C832 -780 834 -792 839 -809C810 -807 764 -807 698 -807C634 -807 588 -807 559 -809C578 -674 568 -654 482 -633C506 -615 526 -595 537 -576C623 -635 634 -656 634 -750H759V-656C759 -610 783 -597 928 -602C927 -620 929 -648 937 -676ZM324 -751V-792C324 -808 327 -811 336 -817C348 -825 348 -834 333 -834C306 -834 275 -835 252 -838C254 -826 254 -810 254 -751C156 -751 118 -753 76 -757V-694C117 -698 176 -701 254 -701V-643C188 -643 143 -645 108 -648V-586C151 -591 202 -592 282 -592C361 -592 412 -591 455 -586V-648C421 -644 380 -643 324 -643V-701C416 -701 460 -698 501 -694V-757C460 -753 425 -751 324 -751Z"/>
</svg>