<svg xmlns="http://www.w3.org/2000/svg" viewBox="0 -1000 1000 1000">
	<path fill="#000000" d="M145 -316H205V-102C117 -89 75 -86 50 -91C63 -58 71 -27 75 4C93 -7 129 -22 183 -34L352 -71C355 -51 357 -31 358 -16L423 -42C412 -96 392 -172 374 -231L316 -216C326 -192 336 -159 342 -125L271 -113V-316H331V-286H401C399 -314 398 -352 398 -378V-559C398 -594 399 -629 401 -646C377 -644 339 -643 271 -643V-745C271 -766 273 -772 291 -781C304 -787 301 -798 287 -797C258 -796 228 -797 199 -802C203 -778 205 -752 205 -702V-643C140 -643 103 -644 75 -646C77 -633 78 -595 78 -559V-379C78 -346 77 -302 74 -264H145ZM205 -584V-374H145V-584ZM331 -374H271V-584H331ZM629 -538C599 -515 567 -496 530 -479C557 -466 572 -455 585 -434C620 -463 648 -487 672 -506C699 -484 725 -461 751 -436L792 -481C764 -504 739 -523 714 -541C777 -593 789 -600 802 -604C822 -610 821 -615 806 -620C793 -624 766 -640 744 -655C719 -623 695 -596 670 -573C643 -593 615 -613 584 -634L546 -595C576 -576 604 -557 629 -538ZM631 -360C626 -334 621 -314 616 -295C553 -295 506 -297 436 -301C440 -279 441 -257 441 -220V-26C441 9 440 37 436 70H508V-238H602C576 -137 562 -115 536 -101C546 -80 552 -61 553 -42C578 -51 610 -60 633 -64L749 -85C754 -70 759 -57 762 -44L826 -74C806 -118 779 -168 751 -215L701 -194C712 -175 722 -153 731 -132L621 -115C641 -157 656 -194 670 -238H854V-30C854 -11 828 -2 751 -16C768 14 778 40 783 72C917 49 921 43 921 1V-220C921 -257 921 -277 923 -302C834 -297 772 -295 688 -295C695 -315 701 -336 707 -360C790 -359 852 -358 891 -357C891 -562 893 -601 898 -609C909 -626 907 -629 895 -628C878 -626 846 -628 823 -632C828 -622 829 -603 829 -568V-416H511C511 -517 516 -588 522 -600C531 -619 529 -621 517 -619C507 -617 463 -618 444 -621C448 -610 448 -592 448 -560V-428C448 -395 447 -372 444 -357C484 -359 542 -360 631 -360ZM637 -723C538 -723 467 -725 410 -730V-655C474 -660 557 -664 676 -664C795 -664 880 -661 945 -656V-731C889 -726 818 -724 724 -723C718 -755 708 -794 698 -827L608 -809C619 -786 630 -754 637 -723Z"/>
</svg>