<svg xmlns="http://www.w3.org/2000/svg" viewBox="0 -1000 1000 1000">
	<path fill="#000000" d="M132 -334H184V-145C117 -131 72 -125 34 -123C46 -98 54 -62 58 -35C106 -55 160 -74 203 -87L316 -120C319 -110 321 -100 323 -90L385 -108C375 -147 360 -194 344 -237L284 -222C291 -205 297 -188 302 -172L248 -160V-334H301V-310H369C367 -338 366 -360 366 -442V-567C366 -602 367 -637 369 -654C347 -652 310 -651 248 -651V-766C248 -789 254 -805 266 -810C283 -817 282 -826 261 -825C235 -824 210 -827 181 -831C184 -813 184 -796 184 -668V-651C126 -651 88 -652 64 -654C66 -641 67 -603 67 -567V-377C67 -344 66 -304 63 -266H132ZM184 -594V-393H132V-594ZM301 -393H248V-594H301ZM684 -447H820V-380H684ZM617 -380H479V-447H617ZM480 -676V-557C511 -562 524 -563 617 -563V-506C519 -506 472 -507 414 -511C418 -485 419 -451 419 -414C419 -379 418 -349 414 -321C471 -323 519 -323 617 -323V-269C520 -269 450 -272 388 -277V-201C449 -206 529 -209 617 -209V-151C519 -151 454 -154 395 -159V-86C452 -91 529 -94 617 -94V-29C494 -29 411 -31 340 -37V40C416 35 508 32 650 32C792 32 881 35 957 40V-37C887 -31 807 -29 684 -29V-94C773 -94 848 -90 905 -86V-157C848 -153 782 -151 684 -151V-209C775 -209 858 -206 917 -201V-277C858 -272 788 -269 684 -269V-323C780 -323 835 -322 890 -319C889 -343 888 -379 888 -414C888 -451 889 -487 890 -511C833 -507 780 -506 684 -506V-563C753 -563 783 -562 819 -557V-676C853 -676 899 -673 934 -668V-741C899 -736 857 -733 819 -733V-788C819 -804 820 -809 824 -816C832 -825 828 -831 820 -830C802 -828 766 -828 744 -831C747 -809 749 -791 749 -733H547V-773C547 -794 549 -798 556 -810C563 -820 560 -826 552 -826C527 -825 495 -827 472 -831C477 -803 479 -768 480 -733C450 -733 415 -736 381 -741V-668C415 -673 457 -676 480 -676ZM749 -677V-619H547V-677Z"/>
</svg>