<svg xmlns="http://www.w3.org/2000/svg" viewBox="0 -1000 1000 1000">
	<path fill="#000000" d="M513 -531V-674H600C585 -617 555 -570 513 -531ZM606 -552H735C721 -525 705 -501 687 -481C668 -492 649 -503 629 -514L595 -470C610 -462 626 -452 644 -441C616 -420 582 -403 540 -388C562 -373 576 -359 583 -336C637 -368 662 -385 691 -408C714 -391 737 -373 757 -353L801 -402C789 -412 751 -440 735 -450C770 -490 795 -538 822 -610C796 -606 763 -603 731 -603H636C651 -626 664 -640 670 -643C682 -649 683 -653 670 -655C652 -658 630 -665 610 -674H844V-324H513V-522C532 -518 553 -504 563 -491C578 -509 590 -526 606 -552ZM206 -585V-360H150V-585ZM333 -360H275V-585H333ZM878 -47C849 -55 819 -72 800 -99C790 -33 774 -21 743 -16C715 -12 669 -14 640 -19C619 -23 612 -33 612 -60V-154C612 -166 615 -171 621 -179C627 -186 625 -191 616 -190C599 -188 568 -188 543 -193C546 -176 547 -158 547 -115V-46C547 -1 567 34 602 43C646 54 700 55 772 47C823 41 840 22 878 -47ZM429 -86C408 -134 395 -170 379 -225L318 -202C327 -180 334 -162 339 -144L275 -131V-301H333V-263H405C400 -300 397 -336 397 -384V-558C397 -593 400 -625 405 -651C369 -645 319 -642 275 -642V-764C275 -785 277 -793 291 -800C304 -806 303 -816 282 -817C254 -819 228 -821 198 -827C204 -797 206 -753 206 -722V-642C164 -642 120 -645 76 -651C81 -625 84 -594 84 -558V-323C84 -290 81 -253 76 -212H150V-301H206V-118C138 -105 85 -98 44 -99C55 -73 61 -45 62 -17C99 -34 151 -49 180 -55L354 -93C357 -78 361 -62 364 -43L421 -67C414 -52 406 -36 396 -20L459 7C485 -49 509 -113 527 -185L458 -202C451 -159 443 -123 429 -86ZM959 -45C925 -125 899 -178 860 -239L798 -210C836 -154 861 -103 899 -15ZM764 -125C734 -179 709 -218 683 -251L624 -226C659 -177 683 -134 699 -89ZM612 -734C550 -734 483 -736 437 -739C446 -677 448 -612 448 -494C448 -375 445 -322 437 -260C498 -263 558 -265 674 -265C794 -265 864 -263 916 -260C910 -315 910 -375 910 -494C910 -612 913 -679 919 -739C861 -735 776 -734 682 -734C703 -780 713 -794 723 -800C735 -807 737 -813 722 -814C694 -815 662 -822 628 -833C625 -797 620 -764 612 -734Z"/>
</svg>