<svg xmlns="http://www.w3.org/2000/svg" viewBox="0 -1000 1000 1000">
	<path fill="#000000" d="M463 -154H266V-238H463ZM537 -238H734V-154H537ZM537 -100C599 -100 655 -99 708 -98L657 -68C676 -58 693 -49 709 -39L537 -34ZM537 -292C538 -315 541 -319 546 -322C561 -329 558 -339 545 -339C519 -339 496 -341 457 -345C460 -335 462 -318 462 -292C358 -292 273 -294 186 -297C188 -270 189 -233 189 -196C189 -163 188 -127 186 -95C273 -98 358 -100 463 -100V-31C242 -25 145 -27 76 -35C96 0 104 26 108 58C137 49 269 36 394 32L795 20C821 41 843 62 860 83L926 22C856 -26 817 -50 727 -97C757 -97 787 -96 816 -95C813 -120 812 -159 812 -196C812 -233 813 -272 816 -297C729 -294 642 -292 537 -292ZM363 -577C357 -561 348 -545 331 -519H274C263 -540 253 -553 235 -577ZM334 -634V-691C405 -691 456 -690 494 -688V-639C458 -636 403 -634 334 -634ZM521 -625C549 -628 585 -631 625 -632C622 -601 619 -575 614 -552C598 -563 580 -574 561 -585L518 -538C551 -520 575 -506 597 -491C579 -450 553 -417 510 -375C542 -365 550 -359 575 -341C608 -379 632 -414 649 -451C667 -436 685 -417 708 -394L757 -454C732 -473 704 -493 671 -515C680 -549 685 -587 689 -634L758 -635C750 -566 751 -526 757 -465C763 -402 782 -360 832 -326C885 -290 927 -305 970 -436C937 -445 919 -456 896 -484C874 -391 860 -386 849 -402C836 -420 827 -445 824 -463C812 -535 812 -586 845 -711C796 -699 760 -694 693 -691C697 -757 704 -792 711 -798C724 -809 722 -817 707 -816C676 -815 659 -816 622 -821C629 -789 632 -752 629 -690C569 -690 534 -691 505 -692V-753C466 -749 404 -746 334 -746C334 -784 337 -796 345 -803C356 -813 355 -820 338 -820C310 -820 294 -821 259 -826C262 -810 263 -792 263 -746C212 -746 152 -749 110 -753V-687C152 -689 200 -691 263 -691V-634C171 -634 117 -636 71 -641V-570C107 -575 148 -577 209 -577L156 -565C174 -549 185 -536 195 -519C169 -519 129 -521 108 -524V-460C130 -464 196 -468 258 -468V-417C172 -417 115 -419 74 -425V-355C118 -360 172 -363 258 -363C257 -342 256 -321 254 -300H333C331 -321 330 -341 329 -363C404 -363 464 -359 504 -355V-425C469 -421 408 -417 329 -417V-468C409 -468 468 -465 492 -460V-524C476 -522 434 -519 405 -519C419 -540 424 -545 431 -547C446 -552 445 -561 432 -565C423 -568 414 -571 403 -577C446 -577 490 -574 521 -570Z"/>
</svg>