<svg xmlns="http://www.w3.org/2000/svg" viewBox="0 -1000 1000 1000">
	<path fill="#000000" d="M411 -369H229V-474H411ZM478 -135H278V-206H478ZM550 -206H754V-135H550ZM550 -83C612 -83 700 -81 756 -78L715 -48C723 -43 730 -39 738 -34L550 -30ZM298 -784C270 -791 247 -798 221 -812C194 -768 139 -721 63 -679C86 -667 110 -649 123 -629C258 -750 278 -765 297 -769C312 -772 312 -781 298 -784ZM532 -722C483 -756 461 -772 406 -808L352 -765C401 -737 430 -712 465 -674ZM658 -710C689 -785 698 -796 710 -801C726 -808 723 -817 708 -817C678 -817 653 -822 623 -830C614 -760 563 -662 502 -598C532 -598 561 -588 579 -577C599 -602 618 -630 632 -656H837L809 -594L889 -567L933 -715C908 -711 890 -710 838 -710ZM315 -624C378 -590 425 -561 473 -527H205C260 -570 287 -594 315 -624ZM159 -491V-384C159 -355 156 -333 150 -304C211 -308 260 -310 330 -310C386 -310 431 -308 475 -305C476 -296 477 -282 478 -261C364 -261 246 -265 202 -269C206 -250 208 -223 208 -172C208 -120 206 -93 202 -74C241 -79 360 -83 478 -83V-28C251 -23 143 -22 95 -27C107 -4 116 30 118 51C146 47 215 43 444 32L805 15C834 39 861 65 883 90L944 39C899 1 829 -48 776 -77C800 -76 818 -75 831 -74C827 -93 825 -120 825 -172C825 -223 827 -250 831 -269C792 -265 660 -261 550 -261C551 -283 554 -296 560 -299C569 -303 570 -308 566 -311C626 -345 687 -411 711 -464C745 -400 821 -322 915 -289C922 -322 932 -352 960 -376C852 -399 763 -458 730 -529C741 -573 750 -592 756 -595C772 -602 771 -610 758 -610C735 -610 702 -612 658 -618C662 -581 658 -547 647 -498C633 -439 585 -392 496 -358C520 -341 533 -325 541 -311C519 -310 503 -312 485 -314C482 -337 480 -354 480 -379V-480C480 -494 481 -510 483 -520C491 -514 499 -508 507 -502L552 -555C494 -596 429 -631 355 -663C362 -667 368 -670 374 -672C390 -677 388 -686 375 -687C353 -688 314 -697 282 -707C244 -631 171 -569 46 -508C66 -494 90 -467 98 -448C119 -463 140 -477 159 -491Z"/>
</svg>