<svg xmlns="http://www.w3.org/2000/svg" viewBox="0 -1000 1000 1000">
	<path fill="#000000" d="M187 -600V-384H133V-600ZM304 -384H254V-600H304ZM479 -107L409 -125C400 -59 378 5 348 44L429 68C447 19 467 -49 479 -107ZM621 39C618 -2 609 -67 600 -110L534 -108C541 -65 545 -6 542 44ZM959 30C940 -15 896 -101 871 -139L809 -112C832 -69 866 13 881 60ZM776 29C768 -13 748 -83 736 -120L674 -111C685 -72 695 -15 699 39ZM765 -738C748 -766 733 -807 727 -828L639 -799C651 -773 666 -732 672 -710ZM520 -330H653V-243H520ZM520 -473H653V-389H520ZM520 -620H653V-531H520ZM453 -564V-350C453 -297 448 -209 442 -160H520V-186H691C846 -186 884 -183 922 -179V-248C890 -244 851 -243 721 -243V-330C823 -330 856 -328 886 -323V-394C857 -391 830 -389 721 -389V-473C814 -473 855 -471 884 -468V-537C858 -533 809 -531 721 -531V-620C817 -620 889 -617 919 -613V-693C892 -688 825 -683 691 -683H512C546 -755 567 -786 581 -795C595 -803 599 -816 581 -818C555 -821 521 -829 499 -839C493 -806 472 -742 458 -708C430 -639 402 -589 366 -536V-578C366 -613 367 -648 369 -665C348 -663 313 -662 254 -662V-764C254 -787 260 -803 272 -808C289 -815 288 -824 267 -823C241 -822 213 -825 184 -829C187 -813 187 -794 187 -707V-662C129 -662 92 -663 68 -665C70 -652 71 -614 71 -578V-368C71 -335 70 -295 67 -257H133V-327H187V-132C134 -121 77 -110 43 -107C55 -82 63 -52 67 -25C106 -42 151 -58 210 -75L317 -106C320 -96 322 -85 324 -75L392 -96C382 -135 367 -182 351 -225L285 -207C292 -190 297 -174 303 -158L254 -147V-327H304V-301H369C367 -329 366 -351 366 -433V-480C374 -471 381 -461 386 -451C409 -486 429 -520 453 -564Z"/>
</svg>