<svg xmlns="http://www.w3.org/2000/svg" viewBox="0 -1000 1000 1000">
	<path fill="#000000" d="M245 -302H289V-258H348C346 -287 345 -323 345 -364V-550C345 -586 346 -621 348 -639C330 -637 290 -636 245 -636V-756C245 -777 248 -784 256 -791C268 -801 267 -806 249 -806C223 -805 201 -807 178 -813C181 -792 183 -759 183 -705V-636C137 -636 94 -637 74 -639C77 -626 78 -587 78 -550V-348C78 -315 77 -274 74 -235H140V-302H183V-119L135 -109C88 -99 63 -95 44 -96C61 -65 68 -41 72 -4C89 -18 106 -27 134 -35L306 -85C311 -62 314 -41 316 -18L382 -40C367 -99 351 -151 331 -208L271 -195C279 -175 285 -156 290 -140L245 -131ZM183 -363H140V-573H183ZM245 -573H289V-363H245ZM908 -571C884 -629 865 -681 849 -737L782 -717C809 -664 825 -612 833 -543ZM670 -641V-708C641 -705 577 -703 521 -703C466 -703 414 -705 384 -708V-641C414 -644 466 -646 521 -646C577 -646 637 -644 670 -641ZM579 -735C558 -765 541 -802 529 -833L458 -807C480 -779 500 -741 507 -708ZM592 -254H471V-332H592ZM592 -114H471V-200H592ZM781 -211C773 -257 766 -332 764 -440C813 -440 886 -436 938 -431V-507C886 -502 807 -498 763 -498C760 -747 765 -794 775 -801C790 -811 789 -821 767 -820C741 -819 712 -821 680 -828C690 -782 695 -701 699 -498H604C634 -557 650 -576 661 -580C671 -583 672 -590 661 -594C635 -604 620 -611 588 -628C577 -579 567 -550 543 -498C518 -498 491 -499 466 -500L515 -520C499 -551 479 -595 467 -626L407 -603C429 -565 441 -538 451 -501C421 -502 392 -504 368 -507V-431C428 -437 518 -440 586 -440H699C702 -266 713 -191 731 -131C708 -99 682 -69 654 -42C653 -66 653 -92 653 -112V-302C653 -342 654 -372 656 -393C631 -390 584 -388 533 -388C481 -388 432 -390 407 -393C408 -372 409 -342 409 -302V-69C409 -34 408 -4 407 26H471V-57H592V-16H625C608 -2 591 10 573 22C613 39 633 54 646 74C691 23 727 -21 757 -59C785 9 817 46 846 64C882 86 934 68 970 -77C947 -90 924 -112 912 -148C880 -7 865 9 806 -129C843 -185 869 -237 896 -300C913 -335 925 -350 935 -353C950 -358 950 -366 935 -373C914 -381 888 -394 856 -412C839 -343 815 -274 781 -211Z"/>
</svg>