<svg xmlns="http://www.w3.org/2000/svg" viewBox="0 -1000 1000 1000">
	<path fill="#000000" d="M811 -147H519V-194H811ZM811 -246H519V-293H811ZM811 -347H519V-395H811ZM195 -585V-359H143V-585ZM315 -359H261V-585H315ZM942 12C880 -25 805 -59 738 -80L710 -26C785 1 851 33 910 77ZM630 -37C613 -46 588 -67 577 -83C522 -34 464 -9 372 11C389 30 399 52 404 76C459 58 514 36 561 8C601 -16 613 -19 626 -18C638 -17 643 -30 630 -37ZM373 -526V-558C373 -593 376 -625 381 -651C355 -646 307 -642 261 -642V-760C261 -781 263 -789 277 -796C289 -802 288 -812 268 -813C241 -815 216 -817 187 -823C193 -793 195 -749 195 -718V-642C148 -642 101 -647 71 -651C76 -625 79 -594 79 -558V-323C79 -290 76 -253 71 -212H143V-300H195V-110C116 -96 65 -94 32 -95C42 -69 51 -32 55 -1C83 -16 126 -29 187 -45L340 -85C343 -68 347 -51 350 -33L418 -63C395 -118 374 -174 356 -233L297 -216C308 -189 318 -163 326 -137L261 -123V-300H315V-263H381C376 -300 373 -336 373 -384V-517C386 -493 396 -472 402 -452C465 -505 507 -535 558 -565C549 -583 542 -601 541 -631C512 -604 488 -586 451 -563C414 -540 391 -531 373 -526ZM740 -600C777 -528 808 -492 866 -455H599C667 -487 712 -527 740 -600ZM650 -688H709C693 -587 624 -516 519 -496C533 -484 542 -470 548 -455C511 -455 468 -457 446 -460C450 -446 453 -418 453 -377V-164C453 -132 450 -106 446 -80C491 -84 517 -84 663 -84C813 -84 837 -84 881 -80C877 -102 876 -134 876 -164V-377C876 -401 878 -428 879 -447C896 -438 914 -428 935 -419C943 -454 950 -475 971 -504C880 -514 807 -560 759 -663C761 -671 762 -679 764 -688H848L825 -607L890 -593L932 -751C913 -747 861 -743 803 -743H676C690 -771 701 -783 709 -788C726 -799 726 -809 709 -811C689 -813 660 -826 645 -839C631 -771 592 -691 548 -641C570 -631 591 -616 601 -603C609 -615 632 -653 650 -688ZM553 -706C528 -731 477 -774 441 -803L397 -753C435 -724 469 -692 506 -650Z"/>
</svg>