<svg xmlns="http://www.w3.org/2000/svg" viewBox="0 -1000 1000 1000">
	<path fill="#000000" d="M835 -148H546V-194H835ZM835 -248H546V-294H835ZM151 -308H203V-116C122 -102 75 -100 40 -101C51 -75 60 -38 64 -7C94 -23 149 -41 194 -51L349 -86C353 -71 356 -55 359 -39L433 -69C409 -124 388 -181 368 -239L304 -222C316 -193 326 -166 335 -139L268 -127V-308H320V-271H390C385 -308 382 -344 382 -392V-568C382 -603 385 -635 390 -661C363 -656 317 -652 268 -652V-770C268 -791 270 -799 284 -806C297 -812 296 -822 275 -823C247 -825 225 -827 195 -833C201 -803 203 -759 203 -728V-652C158 -652 107 -656 77 -661C82 -635 85 -604 85 -568V-331C85 -298 82 -261 77 -220H151ZM203 -593V-367H151V-593ZM320 -367H268V-593H320ZM650 -24C634 -36 611 -58 595 -76C535 -32 456 -6 360 -1C395 28 410 47 419 72C480 53 544 32 595 10C619 0 634 -7 647 -6C662 -5 667 -12 650 -24ZM964 7C902 -22 821 -55 756 -76L709 -18C795 5 848 32 910 77ZM587 -532C564 -551 544 -569 536 -579C501 -541 459 -513 418 -497C445 -480 458 -466 472 -448C497 -463 523 -482 547 -500C564 -513 572 -517 583 -518C595 -519 596 -525 587 -532ZM583 -393H835V-347H546V-380C558 -384 571 -388 583 -393ZM710 -598C746 -598 793 -594 826 -591V-661C786 -656 751 -654 678 -654C604 -654 568 -656 528 -661L529 -591C563 -595 608 -598 643 -598V-480C569 -450 496 -428 392 -412C417 -382 424 -365 429 -340C446 -345 463 -351 480 -357V-163C480 -132 476 -95 473 -80C521 -84 553 -86 692 -86C830 -86 863 -84 910 -80C905 -101 902 -132 902 -163V-370C902 -401 906 -436 910 -454C863 -449 813 -447 718 -447C758 -464 799 -483 839 -502C877 -520 883 -523 897 -525C914 -527 917 -534 903 -544C891 -553 866 -575 849 -596C824 -573 773 -541 710 -510ZM645 -761C521 -761 469 -763 421 -767V-607H496V-705H868V-609H945V-767C901 -763 830 -761 734 -761C725 -791 715 -818 703 -846L613 -821C628 -798 638 -779 645 -761Z"/>
</svg>