<svg xmlns="http://www.w3.org/2000/svg" viewBox="0 -1000 1000 1000">
	<path fill="#000000" d="M924 -713C897 -728 890 -731 866 -752C840 -679 824 -650 796 -613C819 -608 828 -603 847 -583C903 -679 914 -694 918 -695C938 -701 938 -705 924 -713ZM716 -689L668 -690C667 -646 662 -617 648 -580L705 -581C711 -613 715 -656 716 -689ZM481 -731L424 -739C429 -689 417 -639 404 -604L467 -595C473 -635 479 -677 481 -731ZM578 -198C501 -105 436 -67 325 -29C360 -12 381 4 395 30C511 -36 574 -97 622 -178V-3C622 22 620 51 615 80H700C696 53 693 22 693 -3V-164C743 -91 820 -27 917 18C928 -13 937 -34 965 -61C862 -92 784 -133 730 -199C788 -199 842 -196 872 -192V-261C833 -257 765 -254 693 -254V-300C693 -311 696 -322 702 -326C714 -333 711 -339 696 -338C670 -336 649 -338 617 -344C621 -323 622 -305 622 -264V-254C560 -254 490 -257 454 -261V-192C480 -195 532 -198 578 -198ZM259 -333H313V-292H381C378 -321 377 -341 377 -423V-566C377 -601 378 -636 381 -653C360 -651 321 -650 259 -650V-774C259 -796 264 -812 269 -815C284 -822 282 -829 267 -829C238 -830 211 -832 183 -839C188 -822 192 -786 192 -733V-650C131 -650 92 -651 67 -653C69 -640 70 -602 70 -566V-391C70 -358 69 -318 66 -280H138V-333H192V-164C119 -145 67 -137 35 -137C50 -111 57 -76 58 -46C92 -67 135 -84 177 -96L339 -141C342 -122 344 -103 344 -83L418 -102C402 -163 388 -215 368 -275L309 -268C317 -242 323 -219 328 -198L259 -181ZM192 -386H138V-591H192ZM259 -591H313V-386H259ZM771 -541C813 -500 825 -481 849 -429L908 -468C863 -526 823 -570 787 -602C793 -632 796 -664 796 -698C796 -765 803 -796 813 -803C827 -813 823 -817 809 -816C786 -815 753 -817 731 -822C742 -596 721 -526 629 -435C654 -429 664 -426 686 -416C520 -416 457 -419 409 -423V-272H481V-358H841V-270H913V-423C873 -419 801 -416 701 -416C732 -454 755 -496 771 -541ZM569 -638C576 -664 580 -692 581 -720C584 -792 586 -805 588 -807C601 -819 601 -823 585 -822C560 -820 544 -821 515 -827C531 -621 501 -558 398 -461C422 -451 427 -447 455 -429C488 -464 518 -506 539 -552C566 -512 580 -491 595 -458L654 -490C624 -538 599 -572 568 -606L558 -599C561 -605 562 -610 563 -615C583 -610 594 -604 608 -591C656 -685 676 -720 685 -723C703 -730 703 -734 686 -741C661 -751 648 -759 630 -770C607 -695 598 -671 569 -638Z"/>
</svg>