<svg xmlns="http://www.w3.org/2000/svg" viewBox="0 -1000 1000 1000">
	<path fill="#000000" d="M675 -622H765V-431H675ZM377 -622H605V-583H377ZM309 -431H221V-622H309ZM377 -466H605V-431H377ZM377 -543H605V-506H377ZM445 -723C442 -708 438 -694 430 -675C329 -675 233 -677 143 -681C148 -664 151 -640 151 -608V-456C151 -430 148 -395 142 -367C202 -372 365 -377 509 -377C691 -377 762 -375 848 -369C842 -395 839 -435 839 -463V-610C839 -632 842 -661 846 -681C768 -677 683 -675 505 -675C517 -693 524 -706 532 -723C708 -723 803 -722 902 -720V-790C797 -785 692 -783 496 -783C300 -783 193 -785 87 -790V-720C182 -722 280 -723 445 -723ZM661 -174H570V-245H661ZM733 -245H827V-174H733ZM733 -295V-302C733 -327 739 -343 745 -346C757 -351 755 -358 742 -358C717 -359 681 -360 654 -364C657 -355 661 -318 661 -295C590 -295 537 -296 502 -299C505 -284 507 -253 507 -226V-156C507 -139 506 -96 503 -78H568V-124H661V-41C546 -28 516 -26 488 -27C500 0 506 28 510 55C533 46 573 34 643 23L854 -11C865 8 875 27 884 46L957 19C934 -21 899 -69 867 -109L803 -89C810 -80 817 -70 824 -60L733 -50V-124C842 -124 880 -121 897 -118C894 -133 892 -156 892 -174V-244C892 -261 894 -286 897 -299C861 -296 808 -295 733 -295ZM243 -164H163V-237H243ZM312 -237H398V-164H312ZM312 -286V-297C312 -330 314 -339 321 -341C331 -346 329 -354 317 -354C293 -353 265 -354 237 -358C239 -349 242 -320 243 -286C178 -286 132 -287 95 -290C98 -280 101 -258 101 -233V-132C101 -115 99 -91 95 -73H163V-114H243V-34C165 -26 87 -22 58 -24C72 3 83 34 87 61C100 52 138 43 224 28L399 -2C405 12 410 27 414 43L484 18C466 -16 439 -64 416 -99L355 -78C362 -69 369 -60 375 -50L312 -42V-114C409 -114 452 -113 464 -110C462 -124 459 -149 459 -167V-229C459 -246 461 -275 464 -290C432 -288 375 -286 312 -286Z"/>
</svg>