<svg xmlns="http://www.w3.org/2000/svg" viewBox="0 -1000 1000 1000">
	<path fill="#000000" d="M463 -131H244V-193H463ZM535 -193H766V-131H535ZM535 -75C618 -75 708 -73 768 -70L723 -43C733 -35 743 -27 751 -20L535 -12ZM620 -368H758C806 -368 849 -366 881 -362V-415C849 -411 805 -409 757 -409H620V-435H763C811 -435 854 -433 886 -429V-482C854 -478 810 -476 762 -476H620V-501H763C811 -501 854 -499 886 -495V-548C854 -544 810 -542 762 -542H620V-568H805C843 -568 861 -567 883 -565C880 -576 878 -591 878 -608V-649C878 -670 879 -686 882 -698C853 -694 831 -693 798 -693H620V-729H787C835 -729 878 -727 910 -723V-780C878 -777 834 -775 786 -775H620C620 -794 623 -808 629 -813C646 -825 644 -832 624 -831C601 -831 568 -832 539 -835C542 -821 545 -788 545 -768V-692C545 -678 542 -655 538 -639C561 -642 587 -643 611 -643H808V-614H619C580 -614 564 -615 542 -619C546 -602 547 -588 547 -568V-356C547 -312 574 -288 618 -286C690 -283 791 -283 871 -285C918 -286 929 -293 960 -346C931 -351 921 -359 898 -386C887 -344 871 -336 832 -334C775 -332 704 -332 653 -335C629 -337 621 -347 620 -368ZM186 -636C145 -636 97 -639 68 -643V-583C124 -586 192 -589 296 -589C399 -589 467 -586 522 -583V-643C492 -639 447 -636 416 -636C428 -662 441 -682 448 -684C465 -689 465 -695 444 -697C415 -700 390 -706 366 -715C362 -688 358 -663 348 -636H208L267 -654C249 -679 241 -696 233 -715L154 -695C169 -681 179 -660 186 -636ZM257 -766C176 -766 131 -768 83 -773V-714C134 -719 197 -721 293 -721C388 -721 451 -719 502 -714V-773C464 -770 404 -767 344 -767C338 -787 330 -807 319 -834L235 -819C246 -800 252 -787 257 -766ZM195 -369H406C405 -342 393 -336 333 -343C354 -319 363 -299 370 -273C421 -282 446 -291 460 -304C462 -293 463 -277 463 -247C364 -247 211 -252 168 -255C172 -236 174 -211 174 -160C174 -109 172 -85 168 -66C206 -70 353 -75 463 -75V-9C269 -3 106 -3 50 -9C62 13 71 52 73 72C119 65 188 58 429 48L808 32C822 46 836 61 851 79L920 40C883 4 839 -34 796 -69C816 -68 832 -67 843 -66C839 -85 837 -109 837 -160C837 -211 839 -236 843 -255C803 -251 668 -247 535 -247V-254C535 -287 538 -295 545 -299C558 -306 555 -313 543 -312C511 -310 491 -312 466 -313C472 -323 473 -335 473 -351V-489C473 -520 475 -547 477 -562C430 -559 365 -558 298 -558C232 -558 169 -559 120 -562C123 -547 124 -520 124 -489V-373C124 -336 122 -309 117 -280H195ZM406 -481H195V-511H406ZM195 -439H406V-409H195Z"/>
</svg>