<svg xmlns="http://www.w3.org/2000/svg" viewBox="0 -1000 1000 1000">
	<path fill="#000000" d="M442 -435V-71C442 14 463 44 548 48C641 52 765 48 835 40C907 32 935 3 969 -104C928 -110 913 -116 882 -155C866 -52 859 -44 791 -36C719 -28 654 -26 586 -30C524 -34 519 -43 519 -98V-466L621 -504V-270C621 -236 618 -172 612 -133H705C701 -174 699 -236 699 -270V-533L804 -573L796 -350C794 -300 787 -291 709 -300C732 -269 740 -250 751 -206C854 -231 865 -246 869 -329L884 -685C838 -663 798 -646 699 -609V-757C699 -788 706 -807 721 -813C740 -822 738 -829 713 -829C676 -829 649 -831 609 -836C616 -819 621 -778 621 -720V-580L519 -542V-644C519 -661 527 -675 538 -679C557 -686 555 -702 533 -700C509 -698 464 -701 431 -708C440 -671 442 -631 442 -516C414 -508 389 -500 365 -495L395 -413C410 -421 426 -428 442 -435ZM290 -712C271 -759 257 -797 246 -843L166 -818C185 -775 197 -733 203 -688ZM276 -377C274 -380 271 -382 269 -384V-459C313 -532 350 -607 376 -675C337 -669 301 -667 211 -667C155 -667 106 -670 69 -676V-587C93 -594 117 -599 156 -599H264C190 -445 137 -366 30 -283C53 -261 67 -241 80 -210C117 -246 155 -291 192 -341V-95C192 -33 190 14 185 76L275 75C270 13 269 -34 269 -96V-300C295 -265 320 -221 339 -175L403 -229C382 -257 347 -300 313 -337C350 -378 369 -393 384 -396C397 -399 396 -407 381 -416C365 -426 350 -440 335 -465C320 -433 302 -407 276 -377Z"/>
</svg>