<svg xmlns="http://www.w3.org/2000/svg" viewBox="0 -1000 1000 1000">
	<path fill="#000000" d="M471 -750C295 -750 201 -752 85 -758V-681C190 -687 309 -690 506 -690C703 -690 822 -687 927 -681V-758C835 -753 731 -751 573 -750C564 -780 554 -808 543 -838L440 -820C453 -795 462 -774 471 -750ZM547 -436V-359C547 -340 532 -327 450 -335C458 -324 465 -315 471 -306C377 -223 190 -133 56 -107C86 -82 103 -55 113 -31C185 -61 243 -88 292 -113V-40C292 -14 276 7 254 16C267 37 283 64 294 84C319 68 346 50 365 41L544 -47C540 -64 539 -88 541 -117C501 -95 423 -56 363 -29V-152C421 -187 452 -210 501 -254C526 -210 555 -167 586 -132C666 -43 771 19 908 41C912 9 925 -18 956 -54C837 -56 761 -83 684 -133C786 -208 804 -219 817 -223C832 -227 832 -229 817 -238C790 -253 767 -267 747 -282C720 -236 693 -205 642 -163C621 -180 576 -231 548 -276C604 -286 620 -300 620 -321V-436H816L774 -375L854 -349L918 -498C840 -494 778 -492 618 -491L711 -542C771 -575 783 -580 818 -583V-649C721 -645 638 -643 501 -643C336 -643 290 -644 195 -649V-578C283 -583 352 -585 473 -585H679L527 -491H516C485 -520 454 -548 426 -573L369 -536C393 -521 414 -507 437 -491C266 -492 191 -494 109 -499V-428C247 -435 319 -436 443 -436C327 -360 231 -324 94 -305C124 -278 144 -254 152 -237C357 -298 435 -343 521 -436Z"/>
</svg>