<svg xmlns="http://www.w3.org/2000/svg" viewBox="0 -1000 1000 1000">
	<path fill="#000000" d="M694 -133C796 -199 834 -219 864 -228C883 -234 883 -240 867 -248C842 -261 816 -281 799 -300C769 -262 729 -229 647 -177C626 -201 606 -231 594 -258L529 -242C559 -180 601 -118 646 -81C714 -25 798 15 915 43C921 15 935 -19 958 -50C862 -50 766 -77 694 -133ZM328 -603H686C652 -585 571 -562 489 -543C443 -563 413 -573 343 -588L293 -552C335 -543 372 -534 400 -525C312 -509 214 -497 121 -491C153 -474 169 -458 176 -436C300 -448 395 -465 484 -489C410 -452 272 -410 158 -393C196 -374 214 -358 224 -345C309 -366 378 -390 439 -416H778C747 -393 696 -376 589 -349C552 -365 513 -380 463 -396L394 -365C434 -351 466 -340 491 -329C354 -306 171 -292 94 -300C120 -277 134 -251 138 -233C235 -238 328 -247 427 -262C330 -198 165 -141 29 -122C55 -100 71 -75 78 -50C147 -68 224 -94 292 -121V-50C292 -32 280 -10 269 -4C291 23 307 55 314 83C329 65 366 35 383 26L525 -51C516 -71 509 -94 510 -123C468 -96 421 -69 368 -42V-155C377 -160 386 -165 394 -169C466 -209 485 -219 509 -223C528 -226 537 -240 513 -247C497 -251 485 -258 473 -269C516 -276 561 -285 608 -294C724 -317 850 -378 933 -471C885 -468 813 -467 711 -467H547C566 -474 583 -478 601 -481C616 -484 612 -496 595 -496C577 -497 555 -499 534 -502C728 -555 775 -579 881 -658C825 -657 741 -655 621 -655H422C452 -671 475 -681 491 -682C511 -684 509 -692 492 -694C476 -695 460 -698 444 -702C705 -702 825 -699 928 -693V-768C835 -763 707 -759 561 -759C552 -781 544 -809 534 -840L434 -825C445 -805 455 -783 463 -759C303 -759 169 -762 71 -768V-693C151 -697 260 -701 373 -701C327 -660 238 -617 120 -591C153 -573 170 -556 178 -543C224 -557 283 -581 328 -603Z"/>
</svg>