<svg xmlns="http://www.w3.org/2000/svg" viewBox="0 -1000 1000 1000">
	<path fill="#000000" d="M491 -549H797V-400H491ZM290 -728C267 -756 243 -798 225 -838L151 -795C174 -764 194 -724 210 -681ZM605 -685C570 -723 535 -765 507 -808L438 -774C460 -752 504 -687 524 -643ZM654 -614C492 -614 462 -615 416 -619C418 -583 420 -529 420 -476C420 -423 418 -368 416 -332C450 -334 483 -335 515 -335C508 -149 448 -50 303 7C346 28 366 48 380 72C535 -41 579 -150 600 -335H677V-65C677 28 682 39 803 39C909 39 933 24 964 -91C936 -98 918 -108 884 -146C874 -41 862 -31 800 -31C760 -31 754 -37 754 -78V-335C803 -335 843 -334 874 -332C872 -368 870 -423 870 -476C870 -529 872 -583 874 -619C843 -616 792 -614 735 -614C806 -722 832 -747 870 -764C888 -772 884 -782 866 -785C839 -790 788 -812 758 -832C737 -762 696 -677 654 -614ZM249 -329C276 -291 301 -249 326 -197L391 -257C373 -281 334 -324 297 -361C354 -417 384 -438 396 -442C408 -446 406 -451 392 -458C381 -464 354 -484 336 -504C323 -478 290 -434 259 -398C255 -401 252 -404 249 -407V-453C289 -525 321 -594 342 -658C307 -652 265 -649 187 -649C137 -649 86 -652 56 -658V-579C72 -583 100 -586 120 -586H238C197 -470 125 -389 26 -316C44 -295 55 -272 67 -236C103 -270 142 -313 175 -351V-94C175 -42 173 9 166 71H249Z"/>
</svg>