<svg xmlns="http://www.w3.org/2000/svg" viewBox="0 -1000 1000 1000">
	<path fill="#000000" d="M191 -354V-93C191 -41 189 10 183 72H264V-314C288 -278 310 -236 330 -189L399 -246C380 -271 344 -313 308 -351C367 -412 385 -427 393 -427C409 -427 411 -437 400 -444C388 -452 363 -479 347 -499C335 -472 301 -424 272 -388C269 -390 266 -393 264 -395V-458C309 -534 337 -596 360 -666C327 -660 281 -657 209 -657C163 -657 97 -660 68 -666V-580C84 -584 109 -587 128 -587H254C205 -467 126 -385 37 -316C53 -297 70 -267 82 -231C117 -265 157 -312 191 -354ZM541 -591V-446C483 -446 448 -448 414 -452V-371C447 -375 487 -378 541 -378V-206C450 -206 409 -208 378 -213V-131C412 -136 451 -138 541 -138C541 -68 539 -13 532 61H613V-752C613 -772 616 -785 624 -792C640 -805 638 -814 618 -813C601 -812 560 -814 533 -819C538 -788 541 -745 541 -659C479 -659 425 -661 387 -665V-585C424 -589 478 -591 541 -591ZM783 -660V-764C783 -780 786 -791 797 -798C815 -810 812 -820 790 -819C771 -818 730 -820 702 -825C708 -791 710 -755 710 -666V73H792C785 -7 783 -62 783 -138C881 -138 923 -136 960 -130V-214C922 -208 882 -206 783 -206V-376C852 -376 898 -373 927 -370V-452C898 -448 859 -446 783 -446V-589C878 -589 915 -588 954 -584V-667C913 -662 875 -660 783 -660ZM313 -728C286 -758 251 -807 230 -845L158 -800C181 -770 215 -710 231 -677Z"/>
</svg>