<svg xmlns="http://www.w3.org/2000/svg" viewBox="0 -1000 1000 1000">
	<path fill="#000000" d="M400 -108C376 -95 344 -67 290 -13C315 3 331 19 356 49C420 -52 441 -60 473 -28C533 33 614 57 933 49C935 10 940 -17 962 -45C646 -11 577 -28 500 -87C490 -94 480 -101 470 -105V-437C470 -489 474 -516 480 -548C456 -544 425 -541 398 -541C368 -541 341 -544 319 -548V-469C332 -472 348 -474 364 -474H400ZM472 -640C448 -697 423 -741 392 -788L326 -755C357 -710 382 -661 398 -605ZM285 -707C263 -746 234 -796 205 -836L137 -799C174 -753 191 -718 201 -669ZM240 -283C270 -254 299 -221 322 -192L374 -251C334 -282 298 -310 265 -332C311 -376 336 -390 352 -394C371 -398 370 -407 356 -415C337 -425 318 -439 301 -461C280 -427 262 -399 240 -375V-466C275 -533 298 -596 314 -666C283 -660 246 -657 175 -657C129 -657 87 -660 56 -666V-584C74 -589 101 -591 138 -591H222C186 -471 102 -381 31 -325C53 -305 64 -285 71 -251C109 -286 142 -320 170 -356V-106C170 -54 166 -4 161 59H240ZM668 -457H598V-526H668ZM736 -526H811V-457H736ZM668 -329H598V-401H668ZM736 -401H811V-329H736ZM736 -707V-770C736 -793 738 -803 744 -808C761 -820 756 -826 739 -826C714 -826 687 -828 659 -834C665 -815 668 -765 668 -707C610 -707 542 -711 499 -716V-640C541 -644 608 -648 668 -648V-583C591 -583 557 -585 525 -588C528 -577 530 -547 530 -524V-334C530 -310 528 -279 525 -268C557 -273 591 -274 668 -274V-216C607 -216 541 -220 499 -224V-146C541 -151 608 -155 668 -155C668 -131 665 -79 661 -40H742C739 -78 736 -130 736 -155C803 -155 865 -151 907 -146V-224C865 -220 799 -216 736 -216V-274C818 -274 852 -273 884 -268C881 -279 880 -310 880 -334V-524C880 -547 881 -577 884 -588C852 -585 818 -583 736 -583V-648C791 -648 864 -644 906 -640V-716C864 -712 796 -707 736 -707Z"/>
</svg>