<svg xmlns="http://www.w3.org/2000/svg" viewBox="0 -1000 1000 1000">
	<path fill="#000000" d="M570 -518H719V-477H570ZM651 -647C528 -647 454 -649 389 -654C390 -637 391 -618 391 -597V-411C391 -384 390 -362 389 -341C453 -345 529 -347 651 -347C774 -347 842 -345 905 -342C903 -364 902 -390 902 -419V-593C902 -616 903 -636 905 -654C840 -649 774 -647 651 -647ZM461 -599H830V-395H461ZM636 -559C589 -559 535 -561 511 -563C513 -548 514 -519 514 -497C514 -475 513 -448 511 -433C535 -435 589 -436 636 -436C682 -436 749 -435 772 -433C770 -448 769 -475 769 -497C769 -519 770 -548 772 -563C748 -561 682 -559 636 -559ZM483 -162H814V-122H483ZM884 -297C835 -295 795 -294 653 -294C510 -294 463 -295 414 -297C417 -284 418 -268 418 -251V-121C418 -103 417 -91 414 -73C463 -76 510 -76 653 -76C795 -76 835 -76 884 -73C882 -87 881 -103 881 -121V-251C881 -268 882 -286 884 -297ZM814 -207H483V-249H814ZM288 -733C269 -768 255 -801 240 -842L160 -816C179 -781 194 -743 202 -707ZM252 -324C273 -290 293 -251 311 -209L372 -262C350 -293 327 -323 298 -352C345 -397 362 -413 371 -416C382 -420 380 -425 368 -432C358 -438 339 -458 323 -478C311 -452 288 -417 264 -385C260 -389 256 -393 252 -396V-476C295 -559 308 -593 335 -675C302 -669 265 -666 193 -666C147 -666 94 -669 65 -675V-594C81 -598 106 -601 125 -601H235C177 -460 123 -387 43 -314C59 -293 70 -273 82 -237C121 -282 154 -325 181 -362V-97C181 -45 179 6 173 68H252ZM659 33C784 33 875 34 940 38V-32C875 -28 784 -26 659 -26C535 -26 428 -28 362 -32V38C427 34 535 33 659 33ZM611 -748C508 -749 420 -751 363 -754V-688C428 -692 537 -693 662 -693C788 -693 878 -692 943 -688V-754C884 -750 803 -748 693 -748C686 -778 676 -814 667 -842L586 -824C596 -799 604 -774 611 -748Z"/>
</svg>