<svg xmlns="http://www.w3.org/2000/svg" viewBox="0 -1000 1000 1000">
	<path fill="#000000" d="M621 -244H474V-288H621ZM915 -189C910 -220 908 -259 908 -311C908 -363 910 -402 915 -433C851 -428 775 -426 656 -426C538 -426 463 -428 397 -433C402 -402 404 -363 404 -311C404 -259 402 -220 397 -189C463 -194 538 -196 656 -196C775 -196 851 -194 915 -189ZM839 -244H692V-288H839ZM621 -334H474V-378H621ZM839 -334H692V-378H839ZM794 -507H516V-543H794ZM794 -584H516V-623H794ZM794 -664H516V-703H794ZM732 -96V3C732 29 730 52 727 74H813C809 53 807 29 807 3V-96C859 -96 904 -94 957 -89V-163C883 -158 834 -156 658 -156C483 -156 429 -158 355 -163V-89C404 -94 452 -96 502 -96C490 -28 454 -5 341 9C367 33 382 54 395 84C519 39 554 3 577 -96ZM582 -751C517 -752 484 -754 436 -758C441 -715 443 -664 443 -599C443 -534 440 -498 436 -454C500 -459 537 -460 655 -460C774 -460 811 -459 875 -454C871 -498 869 -534 869 -599C869 -664 871 -715 875 -758C812 -753 775 -751 659 -751C673 -785 682 -796 695 -802C706 -807 706 -815 695 -815C658 -815 623 -822 595 -833C593 -800 588 -773 582 -751ZM309 -726C285 -759 264 -797 248 -839L160 -798C185 -761 206 -720 217 -681ZM259 -409C309 -486 350 -566 384 -654C346 -649 294 -645 214 -645C159 -645 104 -650 71 -654V-571C101 -575 166 -577 271 -577C231 -464 125 -338 33 -269C51 -247 64 -213 69 -175C112 -219 151 -263 186 -308V-90C186 -38 183 12 177 75H259V-260C282 -232 303 -200 325 -159L390 -218C357 -253 334 -276 305 -299C350 -360 370 -382 385 -388C401 -394 403 -407 384 -413C364 -419 342 -431 328 -443C312 -400 292 -360 268 -326C265 -328 262 -330 259 -332Z"/>
</svg>