<svg xmlns="http://www.w3.org/2000/svg" viewBox="0 -1000 1000 1000">
	<path fill="#000000" d="M554 -191V-147H487V-191ZM487 -241V-291H554V-241ZM622 -427H552V-468H622ZM496 -427H423V-468H496ZM622 -338H552V-382H622ZM496 -338H423V-382H496ZM555 -614V-671C606 -670 642 -669 673 -667V-729C642 -726 606 -725 555 -725V-762C555 -777 559 -790 563 -791C571 -796 570 -802 561 -801C540 -799 510 -801 486 -805C489 -791 490 -764 490 -725C440 -725 407 -727 375 -729V-667C409 -670 439 -671 490 -671V-614C417 -615 378 -618 336 -623V-549C386 -555 433 -558 539 -558H708C714 -407 731 -265 756 -174C760 -159 764 -146 768 -133C734 -66 684 -7 620 42C650 53 669 62 682 76C736 23 770 -19 794 -60C802 -41 810 -24 819 -9C872 83 939 57 959 -104C943 -109 925 -121 905 -148C899 -65 879 -38 867 -57C852 -80 839 -108 829 -134C854 -203 879 -294 893 -369C904 -429 912 -460 918 -464C928 -470 925 -477 913 -478C892 -479 865 -490 845 -505C843 -421 831 -333 803 -223C784 -306 778 -387 766 -558C854 -557 897 -554 942 -549V-624C896 -618 853 -615 764 -614C763 -654 763 -706 766 -748C767 -768 769 -785 773 -790C786 -806 784 -812 767 -812C750 -812 718 -815 697 -821C701 -778 702 -744 706 -614ZM914 -680C890 -717 877 -734 848 -769L796 -734C821 -705 839 -680 858 -640ZM452 -98H573L539 -62C569 -45 605 -18 633 12L676 -28C656 -46 619 -73 581 -98C670 -97 704 -94 722 -91V-153C706 -150 653 -147 610 -147V-191C636 -190 662 -188 687 -186V-248C663 -244 636 -242 610 -241V-290C638 -290 658 -289 678 -288C678 -306 676 -331 676 -355V-452C676 -474 678 -496 678 -517C642 -516 606 -515 527 -515C449 -515 405 -516 367 -517C369 -496 369 -474 369 -451V-356C369 -331 368 -305 367 -288C385 -289 405 -290 430 -290V-241C403 -242 374 -245 353 -248V-186C374 -188 403 -190 430 -191V-147C378 -147 343 -149 319 -153V-91C339 -94 378 -97 443 -98C410 -60 378 -36 302 -3C325 18 334 29 344 48C387 22 416 2 447 -25C464 -39 481 -45 493 -46C502 -47 505 -53 497 -58C481 -68 464 -83 452 -98ZM277 -718C259 -753 244 -800 238 -838L155 -811C177 -774 191 -724 194 -689ZM174 -356V-102C174 -21 173 2 167 63H239V-301C256 -271 270 -244 287 -205L347 -247C331 -271 303 -304 273 -335C319 -380 341 -398 350 -401C362 -406 361 -412 347 -421C337 -427 317 -445 303 -470C290 -440 268 -405 239 -368V-450C283 -524 321 -604 343 -671C311 -665 257 -663 188 -663C144 -663 101 -665 73 -671V-597C88 -601 112 -603 131 -603H249C212 -496 131 -395 37 -316C53 -295 65 -263 69 -237C115 -285 148 -322 174 -356Z"/>
</svg>