<svg xmlns="http://www.w3.org/2000/svg" viewBox="0 -1000 1000 1000">
	<path fill="#000000" d="M827 -336H603V-420H827ZM827 -486H603V-566H827ZM827 -631H603V-710H827ZM675 -266H741V-46C741 14 752 34 837 34C936 34 943 24 973 -88C942 -91 918 -101 897 -126C890 -43 882 -31 847 -31C814 -31 811 -35 811 -84V-266C852 -266 878 -265 902 -261C899 -282 897 -320 897 -355V-693C897 -728 900 -771 902 -787C863 -781 834 -779 719 -779C603 -779 567 -781 528 -787C531 -771 533 -728 533 -693V-354C533 -319 531 -277 528 -260C549 -263 570 -265 603 -266C602 -118 557 -46 384 5C417 29 425 42 433 71C605 -9 664 -79 675 -266ZM286 -145C342 -106 375 -73 418 -22L474 -79C433 -118 390 -152 308 -202C319 -232 326 -264 328 -291C333 -356 342 -396 354 -408C364 -417 358 -424 346 -421C323 -416 283 -420 261 -427C270 -329 264 -265 243 -208C208 -114 121 -32 30 7C63 18 84 36 100 62C188 0 243 -59 286 -145ZM194 -318L121 -330C120 -279 108 -243 85 -194L161 -177C172 -212 186 -271 194 -318ZM494 -334C467 -339 455 -344 426 -357C411 -308 388 -262 367 -228L427 -197C466 -281 478 -301 492 -310C509 -321 512 -331 494 -334ZM290 -541C341 -512 395 -470 449 -417L505 -482C445 -523 398 -553 316 -599C325 -626 331 -656 335 -690C344 -766 350 -795 365 -807C374 -815 371 -822 355 -820C332 -817 298 -821 270 -830C277 -732 268 -671 250 -615C232 -557 181 -495 41 -434C62 -424 86 -409 105 -382C200 -435 257 -483 290 -541ZM198 -739L124 -741C126 -679 119 -644 98 -597L178 -593C190 -650 195 -685 198 -739ZM500 -737C476 -738 456 -745 425 -758C413 -707 398 -674 368 -626L434 -603C474 -690 483 -705 498 -713C516 -722 518 -737 500 -737Z"/>
</svg>