<svg xmlns="http://www.w3.org/2000/svg" viewBox="0 -1000 1000 1000">
	<path fill="#000000" d="M653 -453H516C517 -500 516 -548 514 -618H653ZM238 -373C310 -373 343 -371 381 -365V-440C344 -435 310 -433 238 -433C166 -433 133 -435 95 -440V-365C133 -370 166 -373 238 -373ZM238 -503C307 -503 342 -502 380 -495V-570C342 -564 307 -562 238 -562C169 -562 134 -564 96 -570V-495C135 -502 169 -503 238 -503ZM296 -112H171V-242H296ZM171 -51H296V13H371C366 -33 363 -67 363 -116V-225C363 -267 364 -288 366 -306C343 -303 323 -302 233 -302C144 -302 126 -303 101 -306C102 -283 103 -263 103 -225V-100C103 -51 101 -14 97 35H171ZM230 -632C307 -632 367 -631 409 -626V-702C367 -697 307 -695 230 -695C153 -695 109 -697 65 -702V-626C107 -631 153 -632 230 -632ZM169 -814C193 -778 210 -739 219 -702L299 -729C284 -766 267 -804 244 -844ZM622 -387H793C786 -319 756 -229 706 -161C666 -223 639 -301 622 -387ZM551 -387C573 -265 618 -165 659 -106C607 -52 563 -26 469 6C503 32 511 43 528 77C605 38 656 2 708 -54C762 -4 822 34 901 62C914 26 928 3 951 -22C870 -33 810 -61 755 -110C810 -184 853 -294 886 -462C857 -458 790 -455 727 -453V-618H841L814 -529L894 -515L929 -693C872 -689 808 -687 727 -686V-767C727 -787 733 -801 750 -813C763 -823 758 -830 743 -830C705 -829 674 -831 641 -837C645 -813 650 -741 652 -686C524 -686 485 -687 438 -692C448 -548 450 -415 445 -339C431 -119 412 -41 368 28C393 37 410 49 432 71C491 -42 506 -130 515 -387Z"/>
</svg>