<svg xmlns="http://www.w3.org/2000/svg" viewBox="0 -1000 1000 1000">
	<path fill="#000000" d="M660 -402L739 -434C719 -478 695 -524 672 -565L597 -532C625 -486 651 -431 660 -402ZM729 -66C806 -222 845 -284 901 -359C862 -357 769 -356 677 -356C586 -356 489 -359 454 -364V-282C492 -285 542 -287 592 -287H760L667 -111C624 -141 577 -172 526 -206L471 -139C580 -80 680 -3 770 88L832 15C799 -13 764 -40 729 -66ZM663 -723C701 -600 783 -487 922 -409C931 -447 947 -473 970 -497C820 -561 748 -652 705 -790C710 -794 714 -796 718 -798C739 -807 737 -816 717 -817C694 -818 651 -826 616 -835C586 -683 506 -558 371 -463C398 -446 414 -429 435 -397C551 -512 599 -576 663 -723ZM175 -21H314V46H394C388 0 385 -39 385 -88V-197C385 -238 386 -259 388 -277C365 -274 334 -273 244 -273C154 -273 125 -274 100 -277C101 -254 102 -234 102 -197V-72C102 -23 100 13 96 62H175ZM314 -83H175V-209H314ZM396 -339V-417C357 -412 313 -410 241 -410C168 -410 124 -412 86 -417V-339C124 -344 168 -347 241 -347C313 -347 357 -344 396 -339ZM395 -481V-559C356 -553 310 -551 241 -551C171 -551 125 -553 87 -559V-481C126 -488 171 -489 241 -489C310 -489 356 -488 395 -481ZM432 -616V-695C390 -690 324 -688 247 -688C169 -688 103 -690 58 -695V-616C101 -621 169 -622 247 -622C324 -622 390 -621 432 -616ZM301 -733C285 -773 268 -806 246 -846L166 -815C190 -778 207 -741 216 -704Z"/>
</svg>