<svg xmlns="http://www.w3.org/2000/svg" viewBox="0 -1000 1000 1000">
	<path fill="#000000" d="M409 -345V-420C367 -416 325 -414 252 -414C179 -414 138 -416 95 -420V-345C139 -349 179 -351 252 -351C325 -351 367 -349 409 -345ZM405 -485V-560C364 -556 323 -554 251 -554C179 -554 138 -556 96 -560V-485C139 -489 179 -491 251 -491C323 -491 364 -489 405 -485ZM422 -617V-695C376 -691 327 -689 243 -689C159 -689 109 -691 63 -695V-617C108 -621 159 -623 243 -623C327 -623 376 -621 422 -617ZM308 -729C292 -774 278 -805 261 -840L175 -815C199 -774 205 -754 221 -705ZM726 -185C806 -185 869 -183 913 -179V-258C869 -254 806 -252 726 -252V-334C726 -347 731 -360 739 -365C753 -374 751 -380 735 -379C701 -377 673 -379 644 -384C647 -367 648 -335 648 -252C576 -253 520 -255 478 -258V-179C518 -182 576 -184 648 -185V-36C557 -37 485 -39 433 -42V38C492 34 581 32 694 32C807 32 896 34 955 38V-42C902 -38 824 -36 726 -36ZM726 -603C802 -602 861 -601 904 -597V-673C861 -669 802 -668 726 -667V-784C726 -796 731 -810 739 -815C753 -824 751 -830 735 -830C701 -829 673 -831 644 -835C647 -817 648 -804 648 -667C579 -668 525 -670 483 -673V-597C523 -600 578 -602 648 -603V-473C562 -474 499 -476 447 -479V-398C506 -402 584 -404 695 -404C806 -404 882 -402 941 -398V-479C888 -474 820 -473 726 -473ZM324 -79H182V-213H324ZM182 -15H324V54H405C401 12 399 -26 399 -71V-210C399 -249 400 -267 402 -285C375 -282 354 -281 253 -281C152 -281 135 -282 107 -285C108 -264 109 -245 109 -210V-56C109 -11 107 23 100 69H182Z"/>
</svg>