<svg xmlns="http://www.w3.org/2000/svg" viewBox="0 -1000 1000 1000">
	<path fill="#000000" d="M833 -387C767 -338 691 -290 650 -273C672 -249 686 -227 697 -196C732 -230 771 -261 833 -303V-56C833 -25 825 -17 742 -24C765 15 771 34 773 77C900 56 911 39 911 -7V-660C911 -718 912 -749 913 -773C883 -770 836 -768 787 -768C738 -768 690 -770 659 -773V-694C677 -696 718 -698 753 -698H833ZM565 -343C503 -291 440 -252 376 -221C407 -187 416 -174 432 -137C471 -185 494 -207 565 -260V-62C565 -28 555 -20 476 -29C495 13 503 39 507 72C632 46 639 37 639 -12V-657C639 -715 639 -745 640 -770C611 -767 566 -765 520 -765C474 -765 430 -767 400 -770V-691C417 -693 455 -695 489 -695H565ZM375 -332V-410C336 -405 294 -404 228 -404C163 -404 120 -405 82 -410V-332C119 -337 163 -338 228 -338C294 -338 338 -337 375 -332ZM533 -388C524 -451 511 -520 493 -592L421 -578C442 -510 449 -458 454 -379ZM794 -402C786 -466 771 -539 750 -609L680 -596C701 -535 713 -473 719 -394ZM374 -468V-546C337 -541 293 -538 227 -538C162 -538 119 -539 81 -546V-468C118 -474 162 -475 227 -475C293 -475 337 -474 374 -468ZM395 -598V-674C351 -668 301 -668 224 -668C148 -668 98 -669 53 -674V-598C97 -603 148 -604 224 -604C301 -604 351 -603 395 -598ZM291 -715C273 -755 252 -799 234 -836L152 -804C181 -755 194 -721 202 -683ZM291 -20V38H371C364 -8 362 -47 362 -94V-200C362 -242 363 -262 365 -280C342 -277 320 -276 230 -276C141 -276 119 -277 94 -280C96 -259 96 -237 96 -200V-58C96 -10 94 26 90 75H169V-20ZM169 -84V-211H291V-84Z"/>
</svg>