<svg xmlns="http://www.w3.org/2000/svg" viewBox="0 -1000 1000 1000">
	<path fill="#000000" d="M288 -106H170V-243H288ZM362 -364V-437C332 -432 282 -431 226 -431C170 -431 120 -433 90 -437V-364C120 -368 170 -370 226 -370C282 -370 332 -368 362 -364ZM361 -489V-564C331 -560 283 -558 227 -558C171 -558 122 -560 92 -564V-489C123 -493 171 -495 227 -495C283 -495 331 -493 361 -489ZM389 -611V-683C354 -679 292 -677 228 -677C164 -677 102 -679 66 -683V-611C101 -615 164 -617 228 -617C292 -617 354 -615 389 -611ZM295 -715C282 -757 263 -803 246 -836L165 -808C186 -774 199 -736 210 -688ZM964 -84C936 -87 913 -96 896 -115C883 -30 870 -22 839 -22C804 -22 794 -28 794 -49V-205C794 -228 795 -251 796 -270C773 -267 739 -265 678 -265C604 -265 586 -266 557 -270C561 -218 560 -158 554 -126C544 -66 513 -10 447 23C482 38 503 53 523 71C598 -1 621 -71 633 -207H724V-21C724 25 735 42 827 42C921 42 940 28 964 -84ZM591 -645H417C425 -525 428 -420 421 -331C414 -206 394 -108 357 -38C356 -65 355 -84 355 -119V-232C355 -271 356 -290 358 -307C337 -304 310 -303 227 -303C144 -303 119 -304 96 -307C97 -286 98 -267 98 -232V-96C98 -51 96 -35 91 12H170V-48H288V-13H343C332 4 320 19 306 32C334 38 362 47 386 61C460 -40 481 -168 491 -338C496 -411 496 -496 493 -586H601V-486C573 -482 544 -479 511 -476L514 -413C547 -420 575 -425 601 -430V-391C601 -331 635 -318 731 -318C829 -318 875 -327 898 -413C872 -418 848 -431 829 -452C821 -393 802 -374 731 -374C679 -374 671 -378 671 -400V-443C707 -449 745 -455 795 -461L785 -522C740 -511 704 -503 671 -497V-586H842L808 -516L887 -503L938 -655C892 -650 790 -645 665 -645V-715H777C823 -715 860 -714 881 -711V-779C859 -776 829 -775 777 -775H665C665 -790 670 -806 679 -812C692 -821 691 -826 676 -826C642 -826 622 -827 581 -831C587 -800 591 -769 591 -747Z"/>
</svg>