<svg xmlns="http://www.w3.org/2000/svg" viewBox="0 -1000 1000 1000">
	<path fill="#000000" d="M753 -533H825V-368H753ZM553 -368H485V-533H553ZM618 -533H690V-368H618ZM553 -699V-595C497 -596 448 -598 414 -602C418 -577 421 -549 421 -523V-382C421 -355 419 -325 414 -300C467 -306 566 -310 651 -310C741 -310 847 -307 895 -302C891 -326 889 -357 889 -382V-523C889 -549 891 -578 895 -602C861 -598 813 -595 753 -595V-699C829 -698 878 -695 920 -690V-775C872 -769 812 -766 648 -766C500 -766 448 -769 396 -775V-691C443 -695 491 -698 553 -699ZM690 -699V-595H618V-699ZM692 -190V-242C692 -255 697 -264 705 -269C719 -277 717 -283 701 -282C670 -281 641 -282 614 -286C618 -267 620 -243 621 -190C535 -191 467 -194 418 -199V-118C466 -124 534 -127 621 -128V-26C517 -27 445 -31 384 -37V47C451 40 537 37 666 37C795 37 879 40 950 47V-37C884 -30 807 -27 692 -26V-128C781 -127 848 -124 894 -118V-199C846 -194 779 -191 692 -190ZM228 -369C302 -369 332 -366 371 -361V-436C332 -430 302 -429 228 -429C155 -429 121 -431 82 -436V-361C121 -367 155 -369 228 -369ZM228 -496C298 -496 331 -495 370 -488V-563C331 -557 298 -555 228 -555C158 -555 122 -557 83 -563V-488C123 -495 158 -496 228 -496ZM291 -106H166V-239H291ZM166 -45H291V16H366C361 -30 358 -64 358 -113V-222C358 -264 359 -285 361 -303C337 -300 310 -299 218 -299C127 -299 118 -300 92 -303C93 -280 94 -260 94 -222V-97C94 -48 92 -11 88 38H166ZM224 -621C303 -621 344 -620 387 -615V-689C344 -684 303 -682 224 -682C145 -682 104 -684 59 -689V-615C102 -620 145 -621 224 -621ZM155 -808C181 -769 196 -739 206 -702L284 -733C267 -773 252 -802 228 -842Z"/>
</svg>