<svg xmlns="http://www.w3.org/2000/svg" viewBox="0 -1000 1000 1000">
	<path fill="#000000" d="M787 -501H548V-585H787ZM863 -791C825 -786 791 -783 669 -783C548 -783 512 -785 473 -791C476 -777 480 -728 480 -702V-524C480 -498 476 -453 473 -434C512 -439 548 -441 669 -441C791 -441 825 -439 863 -434C860 -451 857 -498 857 -524V-702C857 -728 860 -772 863 -791ZM787 -642H548V-722H787ZM232 -356C302 -356 346 -353 384 -348V-424C346 -419 302 -417 232 -417C161 -417 117 -420 80 -424V-348C117 -353 161 -356 232 -356ZM232 -498C299 -498 345 -497 383 -490V-566C345 -560 299 -558 232 -558C164 -558 118 -560 81 -566V-490C119 -497 164 -498 232 -498ZM304 -90H166V-223H304ZM166 -30H304V25H375C370 31 365 37 360 43C396 50 410 57 431 73C455 39 482 -11 505 -72C544 -18 598 25 668 39C750 56 795 60 926 60C926 28 930 8 951 -24C893 -11 779 -13 708 -22V-152C812 -151 854 -149 882 -144V-219C854 -214 811 -211 708 -211V-312C816 -311 875 -309 937 -304V-383C869 -377 805 -375 675 -375C547 -375 482 -377 414 -383V-304C473 -308 532 -311 635 -312V-42C592 -61 560 -91 530 -145C551 -210 558 -221 567 -230C577 -239 576 -243 563 -243C546 -241 516 -245 484 -261C472 -137 447 -68 378 21C372 -23 370 -50 370 -98V-207C370 -249 371 -270 373 -288C350 -285 321 -284 233 -284C145 -284 118 -285 93 -288C94 -265 95 -245 95 -207V-82C95 -33 94 4 90 53H166ZM230 -631C305 -631 366 -630 407 -625V-704C366 -699 305 -697 230 -697C154 -697 94 -699 51 -704V-625C92 -630 154 -631 230 -631ZM157 -824C181 -788 197 -749 206 -712L286 -743C271 -784 254 -819 232 -858Z"/>
</svg>