<svg xmlns="http://www.w3.org/2000/svg" viewBox="0 -1000 1000 1000">
	<path fill="#000000" d="M817 -574H507V-673H817ZM378 -348V-429C343 -422 297 -420 228 -420C162 -420 117 -422 82 -429V-348C117 -353 162 -355 228 -355C297 -355 343 -354 378 -348ZM379 -476V-557C343 -550 297 -548 228 -548C162 -548 117 -550 81 -557V-476C117 -482 162 -483 228 -483C297 -483 343 -482 379 -476ZM396 -609V-689C355 -682 303 -680 225 -680C149 -680 98 -682 58 -689V-609C98 -615 149 -616 225 -616C303 -616 355 -615 396 -609ZM286 -720C271 -759 253 -798 231 -840L158 -807C183 -768 194 -742 205 -697ZM718 -379V-261H665V-379ZM842 -261H779V-379H842ZM783 -18C781 -45 779 -88 779 -145V-205H842V-44C842 -24 835 -15 783 -18ZM605 -379V-261H549V-379ZM297 -33V28H370C368 -10 367 -32 367 -109C380 -97 393 -78 404 -55C443 -133 471 -223 488 -314V-114C488 -36 485 3 477 63H549V-205H605V-144C605 -81 603 -37 601 -11H669C667 -36 665 -82 665 -144V-205H718V-145C718 -82 716 -39 714 -12H776C789 13 793 40 793 66C898 54 908 46 908 -32V-318C908 -374 909 -418 911 -442C883 -439 857 -438 796 -438H504C506 -463 507 -488 507 -512H752C823 -512 853 -510 893 -504C891 -529 889 -577 889 -622C889 -667 891 -711 893 -737C856 -734 799 -732 718 -731C713 -769 704 -802 692 -835L603 -817C615 -788 624 -763 631 -731C541 -731 476 -733 437 -737C439 -648 440 -580 439 -487C437 -343 412 -235 367 -151V-193C367 -238 368 -282 370 -297C356 -294 325 -292 229 -292C133 -292 103 -294 90 -297C91 -282 91 -240 91 -193V-65C91 -22 91 8 90 46H159V-33ZM159 -97V-230H297V-97Z"/>
</svg>