<svg xmlns="http://www.w3.org/2000/svg" viewBox="0 -1000 1000 1000">
	<path fill="#000000" d="M545 -574C526 -611 515 -628 494 -658L429 -631C452 -597 467 -574 486 -538ZM709 -598C697 -625 685 -652 673 -681L602 -662C618 -634 629 -611 639 -582ZM890 -654C903 -662 902 -667 888 -671C868 -677 845 -686 817 -702C803 -656 783 -621 744 -579C774 -574 797 -567 812 -556C860 -627 874 -643 890 -654ZM912 -741C891 -763 875 -788 860 -817C798 -792 759 -784 670 -770C546 -751 505 -746 404 -744C417 -721 425 -696 430 -671C565 -687 641 -698 699 -708C807 -727 858 -728 907 -722C923 -720 923 -730 912 -741ZM231 -359C304 -359 338 -356 377 -351V-426C338 -420 304 -419 231 -419C158 -419 124 -420 85 -426V-351C123 -357 158 -359 231 -359ZM231 -495C301 -495 337 -493 376 -487V-562C337 -556 301 -554 231 -554C161 -554 125 -556 86 -562V-487C126 -493 161 -495 231 -495ZM299 -91H172V-222H299ZM172 -30H299V21H364C375 35 383 49 389 64C543 27 618 -37 660 -145H669C699 -47 781 12 931 54C939 24 948 0 970 -38C836 -49 770 -70 721 -145C822 -144 895 -142 950 -138V-211C888 -206 794 -204 680 -204C686 -227 690 -250 693 -282L839 -291C848 -279 857 -266 867 -250L930 -291C884 -346 861 -370 809 -415L754 -383C770 -369 783 -356 794 -344L532 -328C619 -362 677 -391 714 -411C792 -455 842 -476 854 -478C877 -482 880 -489 859 -499C840 -508 816 -527 797 -546C779 -526 750 -502 712 -474L530 -469C641 -528 662 -536 680 -537C694 -538 695 -549 679 -554C651 -562 633 -571 616 -585C520 -501 457 -470 421 -468C433 -446 438 -430 443 -405C466 -413 503 -418 554 -421L639 -427C551 -374 473 -342 401 -330C409 -307 413 -285 416 -257C450 -266 490 -270 617 -277C614 -247 611 -225 607 -204C518 -205 451 -207 397 -211V-138C447 -142 509 -144 589 -145C560 -81 479 -31 371 -14C369 -44 367 -72 367 -108V-207C367 -249 368 -270 370 -288C346 -285 326 -284 234 -284C143 -284 125 -285 99 -288C100 -265 101 -245 101 -207V-82C101 -33 99 3 95 53H172ZM228 -621C306 -621 362 -619 406 -614V-692C363 -688 306 -686 228 -686C149 -686 104 -688 60 -693V-615C102 -620 149 -621 228 -621ZM167 -814C191 -780 209 -739 218 -702L296 -733C281 -774 264 -808 240 -848Z"/>
</svg>