<svg xmlns="http://www.w3.org/2000/svg" viewBox="0 -1000 1000 1000">
	<path fill="#000000" d="M270 -111H144V-249H270ZM683 -282V-328C683 -349 685 -352 692 -357C706 -366 704 -374 687 -373C656 -372 630 -374 607 -379C612 -354 614 -324 614 -282C512 -282 437 -285 379 -289V-223C424 -228 492 -230 563 -230C511 -129 429 -71 335 -30C334 -60 333 -88 333 -122V-240C333 -278 334 -297 336 -314C315 -311 288 -310 207 -310C125 -310 100 -311 78 -314C79 -293 80 -274 80 -240V-99C80 -54 78 -21 73 25H144V-50H270V0H337C337 -4 336 -8 336 -11C352 2 364 17 375 38C481 -22 571 -106 614 -224V-42C614 10 613 44 607 78H690C684 44 683 10 683 -42V-226C732 -110 802 -21 913 39C920 12 934 -20 956 -43C851 -83 786 -138 729 -230C816 -230 887 -228 940 -223V-289C879 -284 793 -282 683 -282ZM339 -360V-431C309 -426 264 -425 209 -425C154 -425 109 -427 79 -431V-360C109 -364 154 -366 209 -366C264 -366 309 -364 339 -360ZM338 -482V-553C308 -549 265 -547 210 -547C155 -547 111 -549 81 -553V-482C112 -486 155 -488 210 -488C265 -488 308 -486 338 -482ZM361 -600V-673C326 -669 271 -667 208 -667C145 -667 90 -669 54 -673V-600C89 -604 145 -606 208 -606C271 -606 326 -604 361 -600ZM475 -649H552C542 -572 534 -538 519 -507C501 -529 487 -549 472 -573L421 -527C448 -501 468 -476 485 -451C453 -411 411 -381 355 -351C377 -337 399 -320 408 -305C465 -342 515 -383 554 -449C589 -509 609 -572 624 -707C613 -705 598 -704 572 -704H501C534 -770 548 -790 555 -793C573 -801 571 -805 556 -807C538 -809 498 -820 476 -829C456 -725 404 -623 339 -536C358 -530 378 -517 390 -504C425 -553 451 -597 475 -649ZM763 -641V-490H691C701 -556 704 -569 711 -576C721 -586 720 -593 708 -592C697 -591 664 -595 644 -600C647 -553 638 -474 627 -425C650 -429 715 -434 763 -435C763 -397 763 -348 761 -318H832C830 -349 828 -398 827 -436C885 -436 920 -434 937 -431V-500C916 -495 874 -491 827 -490V-641C875 -640 907 -637 926 -634V-704C901 -700 871 -698 827 -697V-751C827 -762 830 -777 841 -786C856 -798 854 -806 835 -805C812 -804 781 -805 758 -809C760 -792 762 -743 763 -697C703 -698 661 -700 633 -704V-634C663 -638 706 -640 763 -641ZM278 -712C261 -752 238 -795 220 -826L142 -791C166 -760 182 -728 197 -681Z"/>
</svg>