<svg xmlns="http://www.w3.org/2000/svg" viewBox="0 -1000 1000 1000">
	<path fill="#000000" d="M737 -38H254V-99H737ZM254 23H737V63H814C808 35 807 15 807 -17V-85C807 -118 809 -141 814 -162C782 -158 711 -154 495 -154C279 -154 211 -158 179 -162C184 -139 186 -118 186 -93V-11C186 22 184 48 179 75H254ZM837 -189V-253C764 -248 626 -246 495 -246C364 -246 237 -248 162 -253V-189C234 -193 364 -196 495 -196C626 -196 764 -193 837 -189ZM834 -279V-344C761 -339 627 -336 496 -336C365 -336 234 -339 161 -344V-279C232 -283 365 -286 496 -286C627 -286 761 -283 834 -279ZM523 -482L444 -463C455 -449 461 -440 466 -427C299 -427 191 -429 130 -433V-482ZM866 -433C804 -429 707 -427 553 -427C544 -447 537 -462 528 -482H866ZM112 -422V-368C173 -372 288 -375 493 -375C700 -375 815 -372 885 -368V-424H940V-548C864 -544 757 -542 502 -542C248 -542 136 -544 59 -548V-422ZM694 -653C747 -623 794 -592 832 -558L885 -610C851 -633 817 -654 717 -702C729 -759 741 -791 754 -801C768 -811 761 -818 753 -818C718 -816 692 -821 659 -831C676 -708 641 -645 492 -601C519 -582 537 -568 551 -554C629 -592 671 -620 694 -653ZM297 -653C353 -618 392 -584 419 -558L474 -600C447 -625 394 -660 326 -698C329 -704 331 -709 332 -714C345 -777 350 -792 363 -799C378 -807 375 -816 362 -816C339 -816 300 -822 267 -831C288 -706 239 -647 107 -601C131 -584 144 -570 158 -549C223 -580 269 -618 297 -653ZM607 -775L541 -787C540 -743 536 -720 516 -684L584 -674C597 -709 602 -734 607 -775ZM900 -772C881 -777 845 -789 824 -798C817 -768 798 -734 771 -700C797 -693 825 -682 843 -674C873 -735 886 -752 899 -756C912 -760 912 -769 900 -772ZM200 -770L131 -778C135 -739 123 -706 106 -671L180 -667C189 -699 195 -730 200 -770ZM497 -773C470 -775 443 -783 423 -791C416 -762 407 -740 381 -704C408 -699 428 -692 447 -678C460 -707 482 -746 495 -756C509 -767 508 -771 497 -773Z"/>
</svg>