<svg xmlns="http://www.w3.org/2000/svg" viewBox="0 -1000 1000 1000">
	<path fill="#000000" d="M243 -347C313 -347 354 -345 390 -339V-417C354 -412 313 -410 243 -410C173 -410 132 -412 96 -417V-339C132 -345 173 -347 243 -347ZM243 -489C310 -489 353 -488 389 -481V-559C353 -553 310 -551 243 -551C176 -551 133 -553 97 -559V-481C134 -488 176 -489 243 -489ZM314 -85H182V-210H314ZM182 -21H314V46H388C383 0 380 -40 380 -89V-198C380 -240 381 -261 383 -279C361 -276 332 -275 246 -275C161 -275 133 -276 110 -279C111 -256 112 -236 112 -198V-73C112 -24 110 13 106 62H182ZM238 -622C313 -622 366 -621 406 -616V-694C366 -689 313 -687 238 -687C165 -687 113 -689 70 -694V-616C111 -621 165 -622 238 -622ZM168 -812C190 -776 207 -737 216 -700L302 -734C287 -775 272 -809 249 -849ZM884 -306V-373C833 -368 776 -366 681 -366C585 -366 527 -368 475 -373V-303C527 -308 585 -310 681 -310C776 -310 844 -309 884 -306ZM604 -421V-477C593 -475 565 -475 539 -475C513 -475 487 -476 474 -477V-421C488 -423 513 -424 539 -424C565 -424 592 -423 604 -421ZM879 -421V-477C869 -475 841 -475 814 -475C789 -475 762 -476 749 -477V-421C763 -423 789 -424 814 -424C840 -424 868 -423 879 -421ZM605 -509V-565C597 -563 576 -563 555 -563C536 -563 516 -564 506 -565V-509C518 -511 537 -512 555 -512C575 -512 596 -511 605 -509ZM844 -509V-565C835 -563 815 -563 794 -563C775 -563 754 -564 745 -565V-509C756 -511 776 -512 794 -512C814 -512 834 -511 844 -509ZM550 -200L508 -71C546 -75 588 -78 618 -78H799C796 -1 765 3 657 -14C675 24 680 47 680 75C816 73 849 46 857 10C865 -24 872 -69 879 -147C837 -141 789 -138 760 -138H602L624 -200H777C862 -200 906 -197 942 -191V-270C905 -264 827 -261 680 -261C468 -261 435 -264 406 -270V-191C433 -196 490 -200 550 -200ZM708 -725C798 -724 859 -722 911 -717V-791C854 -785 786 -783 682 -783C576 -783 509 -785 454 -791V-717C500 -721 557 -724 639 -725V-662C510 -662 461 -664 417 -668V-517H485V-608H639V-539C639 -493 639 -461 637 -417H710C708 -459 708 -491 708 -539V-608H870V-531H940V-668C896 -664 843 -662 708 -662Z"/>
</svg>