<svg xmlns="http://www.w3.org/2000/svg" viewBox="0 -1000 1000 1000">
	<path fill="#000000" d="M799 -470H640V-569H799ZM873 -404C871 -433 871 -476 871 -519C871 -562 871 -605 873 -633C837 -630 795 -629 723 -629C650 -629 607 -630 569 -633C570 -605 570 -562 570 -519C570 -477 570 -434 569 -405C606 -407 650 -406 723 -406C795 -406 837 -406 873 -404ZM855 -165H803V-294H855ZM918 -101C917 -133 918 -184 918 -231C918 -278 917 -328 918 -357C896 -354 871 -353 832 -353C790 -353 765 -354 743 -357C744 -328 744 -278 744 -231C744 -185 744 -134 743 -102C764 -105 790 -105 832 -105C871 -105 896 -104 918 -101ZM644 -165H577V-294H644ZM699 -99C698 -131 699 -182 699 -229C699 -276 698 -326 699 -355C677 -352 650 -351 611 -351C568 -351 541 -352 520 -355C520 -326 520 -276 520 -229C520 -183 521 -136 520 -100C540 -103 568 -103 611 -103C650 -103 677 -102 699 -99ZM297 -715C284 -759 268 -801 245 -841L160 -816C183 -781 202 -740 212 -691ZM382 -611V-688C343 -683 293 -682 222 -682C149 -682 101 -683 60 -688V-611C100 -616 149 -616 222 -616C293 -616 342 -615 382 -611ZM359 -479V-555C325 -550 285 -549 224 -549C163 -549 123 -550 89 -555V-479C124 -484 163 -484 224 -484C285 -484 325 -484 359 -479ZM353 -345V-421C320 -416 278 -415 218 -415C156 -415 116 -416 81 -421V-345C117 -350 156 -350 218 -350C278 -350 320 -349 353 -345ZM919 -689V-772C881 -764 858 -764 665 -764C474 -764 450 -764 413 -772C416 -735 416 -697 416 -610V-113C416 -56 415 15 412 52C449 45 484 44 674 44C866 44 900 46 938 52V-34C900 -27 869 -24 680 -24H489V-695H675C868 -695 880 -695 919 -689ZM278 -23V56H357C351 13 349 -24 349 -69V-208C349 -247 350 -268 352 -285C331 -282 309 -281 226 -281C144 -281 124 -282 101 -285C102 -264 102 -243 102 -208V-57C102 -12 100 22 96 68H171V-23ZM171 -85V-217H278V-85Z"/>
</svg>