<svg xmlns="http://www.w3.org/2000/svg" viewBox="0 -1000 1000 1000">
	<path fill="#000000" d="M574 -748C557 -782 539 -812 520 -840L456 -813C475 -786 491 -757 507 -725ZM135 -615C89 -616 67 -619 51 -622V-547C73 -551 94 -553 128 -554C115 -434 99 -343 75 -245C124 -219 161 -199 191 -181C154 -103 105 -40 46 6C69 14 107 34 129 49C170 0 213 -68 248 -143C271 -126 288 -109 306 -89C323 -119 334 -135 354 -156C329 -173 306 -187 275 -205C305 -291 319 -394 334 -623C312 -618 274 -615 201 -615C225 -771 230 -786 238 -790C259 -800 258 -811 235 -813C215 -815 174 -822 146 -829C146 -768 142 -692 135 -615ZM192 -555H261C263 -435 246 -330 215 -240C196 -251 175 -263 151 -276C168 -395 181 -485 192 -555ZM699 -428V-513H789V-428ZM789 -372V-286H699V-372ZM546 -372H634V-286H546ZM546 -513H634V-428H546ZM634 -649V-568H546V-649ZM642 -706H524C453 -706 401 -708 337 -713V-642C388 -646 431 -648 482 -649V-568C436 -569 400 -570 372 -573V-510C401 -512 437 -513 482 -513V-428C425 -429 385 -431 344 -435V-365C384 -369 422 -371 482 -372V-286C425 -286 393 -287 366 -290V-224C389 -226 414 -228 454 -229C408 -140 313 -45 237 -3C256 8 291 31 307 45C369 -2 432 -81 482 -170V-94C482 -45 478 19 472 79H553C548 19 546 -45 546 -94V-229H634V-108C634 -59 632 5 627 65H709C703 5 699 -59 699 -108V-229H702C735 -116 805 -19 893 23C904 -3 922 -37 942 -57C860 -81 787 -146 750 -229C793 -228 828 -227 860 -225C857 -261 855 -320 854 -372C896 -371 929 -369 950 -367V-435C933 -431 898 -429 854 -428C855 -481 857 -538 860 -575C829 -570 765 -568 699 -568V-649C769 -649 866 -647 924 -642V-716C865 -711 772 -707 702 -706C754 -783 763 -794 774 -798C794 -805 793 -815 779 -817C762 -819 726 -832 699 -844C695 -824 688 -805 642 -706Z"/>
</svg>