<svg xmlns="http://www.w3.org/2000/svg" viewBox="0 -1000 1000 1000">
	<path fill="#000000" d="M562 -397H459V-471H562ZM626 -334C624 -362 623 -398 623 -436C623 -473 624 -509 626 -536C595 -531 566 -530 512 -530C457 -530 427 -531 396 -536C397 -509 398 -473 398 -436C398 -399 397 -363 396 -335C426 -338 457 -339 512 -339C566 -339 596 -338 626 -334ZM848 -397H745V-471H848ZM915 -334C913 -362 912 -399 912 -437C912 -474 913 -511 915 -538C883 -534 854 -532 798 -532C741 -532 711 -533 679 -538C680 -511 681 -474 681 -437C681 -400 680 -363 679 -335C710 -338 741 -339 798 -339C854 -339 884 -338 915 -334ZM771 -645H541V-725H771ZM847 -582C845 -609 843 -646 843 -687C843 -727 845 -764 847 -790C799 -787 749 -786 658 -786C567 -786 515 -787 467 -790C468 -764 469 -727 469 -687C469 -647 468 -610 467 -583C513 -585 567 -585 658 -585C749 -585 801 -584 847 -582ZM225 -371C295 -371 336 -368 371 -363V-438C336 -433 295 -431 225 -431C156 -431 114 -434 79 -438V-363C114 -368 156 -371 225 -371ZM225 -506C292 -506 336 -505 371 -498V-575C336 -568 292 -566 225 -566C159 -566 115 -568 80 -575V-498C116 -505 159 -506 225 -506ZM293 -112H163V-242H293ZM163 -49H293V-2H343C365 14 377 31 387 54C502 -12 573 -76 628 -165V-70C628 -4 627 35 622 80H702C698 35 696 -4 696 -70V-164C741 -78 804 -22 921 42C931 6 938 -9 970 -43C854 -78 786 -125 732 -198C823 -198 887 -195 941 -190V-268C880 -262 806 -259 696 -258V-278C696 -291 699 -297 712 -303C727 -310 728 -322 705 -322C678 -322 650 -323 623 -325C625 -309 627 -292 628 -258C515 -259 442 -262 381 -268V-190C433 -194 495 -198 584 -198C533 -126 461 -66 362 -23C358 -59 357 -90 357 -132V-226C357 -269 358 -291 360 -309C337 -306 312 -305 226 -305C141 -305 113 -306 90 -309C91 -285 92 -265 92 -226V-92C92 -42 90 -4 86 46H163ZM225 -629C300 -629 358 -628 397 -623V-697C358 -692 300 -690 225 -690C152 -690 95 -692 52 -697V-623C93 -628 152 -629 225 -629ZM149 -811C173 -774 189 -734 198 -696L274 -728C260 -769 244 -804 222 -845Z"/>
</svg>