<svg xmlns="http://www.w3.org/2000/svg" viewBox="0 -1000 1000 1000">
	<path fill="#000000" d="M396 -542H185V-578H396ZM463 -482C461 -499 459 -546 459 -580V-705C459 -738 461 -780 463 -797C426 -791 393 -789 290 -789C187 -789 153 -791 118 -797C121 -780 123 -738 123 -705V-580C123 -546 121 -499 118 -482C153 -487 187 -488 290 -488C393 -488 426 -487 463 -482ZM819 -540H584V-576H819ZM887 -481C885 -498 882 -545 882 -579V-702C882 -735 884 -777 887 -795C850 -788 813 -787 702 -787C592 -787 556 -788 517 -795C520 -778 522 -735 522 -702V-579C522 -545 520 -498 517 -481C556 -486 592 -487 702 -487C813 -487 850 -486 887 -481ZM396 -619H185V-656H396ZM819 -616H584V-656H819ZM819 -697H584V-733H819ZM396 -702H185V-737H396ZM829 -208V-271C758 -267 641 -263 506 -263C372 -263 257 -265 182 -271V-208C256 -214 372 -216 506 -216C641 -216 757 -217 829 -208ZM829 -127V-188C756 -182 641 -180 506 -180C372 -180 257 -183 182 -188V-127C256 -131 372 -135 506 -135C641 -135 757 -132 829 -127ZM743 38V73H821C818 59 817 48 817 33V-57C817 -73 817 -85 821 -99C793 -97 707 -96 511 -96C314 -96 220 -97 191 -98C193 -85 193 -71 193 -57V35C193 51 193 62 191 77H267V38ZM267 -14V-51H743V-14ZM940 -420C868 -446 833 -457 767 -477L730 -424C806 -405 861 -384 902 -359ZM499 -388L449 -376C455 -365 460 -354 464 -343C287 -343 175 -345 74 -352V-289C181 -295 303 -298 502 -298C702 -298 824 -295 931 -289V-352C833 -346 721 -343 548 -343C543 -355 539 -366 534 -378C558 -385 587 -395 632 -412C655 -421 669 -424 685 -420C700 -416 702 -423 694 -431C679 -441 659 -465 647 -485C589 -452 539 -440 476 -431C489 -417 495 -404 499 -388ZM283 -433C270 -442 252 -460 238 -480C186 -451 137 -434 64 -422C81 -399 90 -384 95 -363C125 -371 155 -382 219 -410C249 -423 260 -425 275 -423C290 -421 293 -426 283 -433ZM474 -423C446 -439 403 -458 347 -475L310 -428C352 -416 405 -391 430 -369Z"/>
</svg>