<svg xmlns="http://www.w3.org/2000/svg" viewBox="0 -1000 1000 1000">
	<path fill="#000000" d="M557 -1H786V55H865C861 14 859 -18 859 -60V-200C859 -235 860 -252 864 -268C831 -266 793 -265 669 -265C544 -265 516 -266 481 -268C484 -248 485 -231 485 -200V-49C485 -7 484 24 479 66H557ZM786 -69H557V-198H786ZM856 -459C817 -456 748 -454 676 -454C610 -454 529 -456 504 -459V-387C520 -390 544 -391 567 -391H739L670 -289L751 -273ZM737 -518C716 -552 698 -581 679 -618L606 -583C632 -559 643 -532 655 -490ZM667 -734C694 -665 723 -612 754 -573C791 -527 860 -470 912 -435C926 -468 947 -500 973 -525C914 -537 855 -571 806 -619C767 -657 727 -725 709 -791C711 -792 712 -793 714 -793C745 -801 746 -818 714 -823C682 -828 651 -837 625 -848C623 -823 611 -782 596 -747C541 -621 492 -564 406 -503C434 -488 453 -468 472 -447C555 -533 615 -617 667 -734ZM344 -115H200V-276H344ZM301 -551C309 -562 318 -571 325 -574C336 -580 333 -588 324 -589C304 -591 273 -604 246 -620C218 -503 103 -364 19 -306C38 -289 57 -262 66 -237C89 -261 111 -286 129 -307V-76C129 -31 127 2 120 47H200V-51H344V29H420C414 -6 410 -47 410 -86V-272C410 -298 412 -328 414 -344C390 -341 360 -340 316 -340H157C208 -400 243 -451 270 -499C327 -456 360 -421 403 -367L455 -432C406 -478 371 -505 301 -551ZM257 -768C229 -777 208 -789 179 -812C148 -724 106 -645 47 -580C67 -571 92 -550 108 -529C223 -715 250 -748 259 -751C270 -755 269 -764 257 -768ZM490 -649C452 -703 398 -765 361 -805L306 -759C349 -716 397 -655 425 -600Z"/>
</svg>