<svg xmlns="http://www.w3.org/2000/svg" viewBox="0 -1000 1000 1000">
	<path fill="#000000" d="M403 -779C390 -788 373 -805 348 -833C242 -743 179 -704 50 -663C68 -650 87 -625 97 -604C165 -636 284 -697 314 -717C366 -751 389 -761 399 -761C415 -761 416 -770 403 -779ZM308 -505C336 -525 359 -543 375 -557C413 -589 450 -609 469 -612C485 -615 486 -623 471 -635C458 -645 439 -667 424 -689C405 -667 381 -644 353 -619C336 -645 323 -663 299 -691L244 -656C269 -629 286 -607 303 -576C281 -558 256 -539 231 -521C209 -555 191 -580 162 -614L112 -579C139 -549 160 -518 177 -484C136 -457 92 -431 47 -408C60 -401 78 -377 88 -353C146 -390 206 -431 258 -468C268 -454 278 -440 286 -426C209 -341 137 -286 66 -263C92 -246 106 -226 117 -199C210 -262 250 -299 314 -377C323 -357 331 -338 336 -320C284 -244 165 -147 57 -104C84 -83 105 -63 119 -45C233 -122 299 -181 350 -245C351 -227 350 -209 348 -192C331 -53 281 -14 188 -31C207 -4 219 34 220 62C338 46 388 -7 407 -136C429 -288 401 -400 308 -505ZM730 -418V-677C810 -676 875 -673 919 -668V-754C868 -748 788 -745 690 -745C591 -745 530 -748 478 -754V-668C522 -673 574 -676 651 -677V-418C553 -419 490 -422 431 -427V-342C489 -347 553 -350 651 -351V-93C651 -48 648 19 644 67H737C732 12 730 -48 730 -93V-351C828 -350 906 -347 963 -342V-427C906 -422 828 -419 730 -418Z"/>
</svg>