<svg xmlns="http://www.w3.org/2000/svg" viewBox="0 -1000 1000 1000">
	<path fill="#000000" d="M571 -346H808V-215H571ZM892 -608C852 -601 810 -598 691 -598C572 -598 530 -600 490 -608C494 -588 500 -533 500 -470V-278C500 -243 495 -164 490 -142C530 -149 572 -150 691 -150C810 -150 852 -148 892 -142C889 -165 883 -243 883 -278V-470C883 -511 888 -590 892 -608ZM808 -411H571V-533H808ZM959 34V-58C891 -51 812 -47 690 -47C566 -47 487 -51 421 -58V34C486 28 566 24 690 24C812 24 891 28 959 34ZM936 -682V-770C878 -763 801 -760 692 -760C582 -760 510 -763 454 -770V-682C510 -689 582 -693 692 -693C801 -693 878 -689 936 -682ZM423 -797C410 -805 391 -821 365 -846C273 -755 177 -686 54 -635C73 -623 94 -600 106 -580C169 -617 313 -707 341 -728C392 -763 414 -777 421 -779C434 -783 432 -792 423 -797ZM328 -518C353 -536 372 -550 380 -557C408 -581 438 -603 454 -609C466 -613 466 -617 456 -626C443 -636 429 -655 416 -678C397 -656 375 -634 350 -612C334 -635 322 -651 299 -679L242 -641C269 -619 284 -600 300 -570C280 -554 259 -539 237 -523C219 -548 206 -567 183 -599L126 -564C151 -536 169 -514 184 -487C140 -458 93 -430 46 -405C58 -398 76 -367 86 -343C144 -383 216 -436 275 -478C284 -466 294 -453 302 -438C232 -352 114 -265 42 -242C67 -225 81 -202 93 -175C209 -255 259 -299 327 -386C336 -364 343 -342 348 -320C289 -243 150 -127 43 -83C69 -62 90 -39 103 -21C217 -99 302 -169 362 -239C364 -217 364 -196 362 -179C345 -35 300 -5 204 -36C217 -7 232 38 236 63C363 45 405 4 423 -123C445 -281 412 -423 328 -518Z"/>
</svg>