<svg xmlns="http://www.w3.org/2000/svg" viewBox="0 -1000 1000 1000">
	<path fill="#000000" d="M388 -769C374 -779 356 -802 337 -831C246 -752 163 -706 46 -672C61 -658 77 -625 83 -601C187 -650 272 -694 303 -716C344 -744 367 -751 384 -751C395 -751 398 -762 388 -769ZM298 -505C317 -521 332 -534 344 -545C376 -575 408 -592 423 -594C435 -596 438 -606 426 -611C403 -621 386 -643 375 -665C359 -646 342 -628 322 -610C308 -634 297 -650 276 -680L227 -639C249 -617 262 -598 276 -569C258 -554 239 -539 220 -525C202 -558 191 -577 167 -612L113 -574C140 -546 157 -521 170 -489C131 -462 89 -436 46 -413C61 -397 73 -369 81 -344C146 -389 203 -430 248 -466C255 -456 262 -445 268 -435C199 -338 115 -268 54 -245C76 -228 91 -205 101 -178C188 -251 239 -300 297 -381C305 -363 312 -345 318 -328C267 -247 150 -131 55 -86C78 -67 98 -46 111 -24C208 -102 282 -175 333 -247C335 -224 334 -201 332 -177C318 -37 267 -4 183 -26C206 7 216 29 223 63C339 47 376 -6 390 -121C406 -253 381 -399 298 -505ZM676 -660H800V-575H676ZM676 -510H800V-425H676ZM676 -74C778 -74 877 -71 933 -65V-146C878 -140 778 -137 676 -137V-220C774 -220 844 -218 901 -211V-290C844 -283 774 -281 676 -281V-362C784 -362 843 -359 876 -355C873 -388 870 -441 869 -508C898 -507 925 -505 941 -502V-583C925 -580 899 -578 869 -576C870 -646 873 -701 876 -732C837 -727 760 -725 676 -724V-773C676 -785 679 -791 686 -800C698 -814 696 -821 681 -820C660 -819 618 -823 598 -830C602 -811 605 -779 606 -724C528 -725 470 -727 436 -732V-653C469 -658 506 -660 606 -660V-575H543C493 -575 442 -579 418 -583V-502C442 -506 491 -510 543 -510H606V-425C510 -426 475 -428 435 -433V-354C471 -358 509 -361 606 -362V-281C522 -282 464 -284 415 -290V-211C464 -217 522 -219 606 -220V-137C519 -138 456 -140 405 -146V-65C456 -70 519 -73 606 -74C606 -28 603 30 598 81H682C678 30 676 -27 676 -74Z"/>
</svg>