<svg xmlns="http://www.w3.org/2000/svg" viewBox="0 -1000 1000 1000">
	<path fill="#000000" d="M601 -567H516V-715H601ZM517 -414V-510H600C627 -510 645 -510 671 -507C669 -530 668 -560 668 -594V-692C668 -726 669 -764 670 -783C643 -779 614 -777 557 -777C512 -777 467 -779 442 -782C444 -759 445 -725 445 -692V-32C445 -1 444 15 441 66H517V-164H588C606 -164 629 -163 650 -161V-229C628 -228 607 -227 589 -227H517V-352H569C589 -352 609 -351 633 -349V-418C610 -415 589 -414 570 -414ZM283 -558C265 -543 246 -528 226 -513C209 -542 196 -562 174 -594L127 -556C148 -530 165 -506 178 -480C131 -449 84 -423 44 -407C58 -397 76 -372 85 -350C135 -376 196 -414 252 -455C260 -444 266 -433 273 -420C201 -329 108 -265 43 -242C70 -223 84 -201 93 -176C189 -242 242 -290 299 -366C307 -345 314 -324 319 -303C263 -228 138 -122 45 -77C71 -55 92 -33 104 -15C203 -90 278 -159 332 -226C333 -210 333 -195 331 -180C315 -27 271 -11 191 -42C210 -13 220 28 222 63C337 45 379 -6 393 -124C410 -269 375 -395 301 -493C322 -509 340 -525 357 -542C383 -568 414 -587 430 -591C443 -594 444 -605 427 -616C415 -624 401 -641 387 -665C371 -644 351 -621 328 -599C312 -625 298 -644 277 -674L228 -633C253 -609 268 -588 283 -558ZM909 -500C907 -524 907 -564 907 -599V-694C907 -729 907 -766 908 -787C880 -783 844 -781 800 -781C760 -781 724 -782 699 -785V-714C714 -717 730 -718 746 -718H840V-568H749C732 -568 719 -568 702 -571V-499C723 -502 758 -505 808 -505C849 -505 881 -504 909 -500ZM399 -784C386 -790 371 -806 350 -834C260 -749 170 -689 56 -647C74 -632 91 -607 99 -586C170 -620 294 -694 321 -714C365 -747 386 -757 392 -758C413 -762 419 -774 399 -784ZM743 -362H844C839 -288 825 -220 786 -158C763 -221 750 -287 743 -362ZM681 -361C686 -270 706 -186 743 -104C690 -47 629 -12 561 5C596 21 611 37 627 70C685 42 734 6 781 -46C813 2 864 50 914 81C928 45 937 32 964 1C919 -15 866 -50 826 -102C881 -194 905 -287 924 -429C888 -427 851 -426 786 -426C745 -426 700 -427 654 -428V-358C663 -359 672 -360 681 -361Z"/>
</svg>