<svg xmlns="http://www.w3.org/2000/svg" viewBox="0 -1000 1000 1000">
	<path fill="#000000" d="M366 -791C347 -806 330 -821 313 -845C223 -763 109 -699 40 -687C59 -671 76 -648 84 -626C146 -655 207 -687 278 -731C318 -756 355 -772 363 -774C375 -777 377 -784 366 -791ZM700 -385H821V-311H700ZM634 -311H512V-385H634ZM634 -643H521V-694H634ZM700 -694H818V-643H700ZM700 -586H818V-536H700ZM634 -536H521V-586H634ZM757 -64C779 -89 797 -118 809 -149C859 -148 893 -146 943 -141V-215C884 -208 833 -205 766 -205H639C649 -221 658 -238 667 -255C776 -255 835 -253 889 -250C887 -275 885 -310 885 -347C885 -384 887 -417 889 -443C838 -440 791 -439 700 -439V-485C789 -485 835 -483 887 -480C885 -506 884 -544 884 -585C908 -584 933 -581 955 -577V-652C933 -648 908 -645 884 -644C884 -688 885 -726 887 -754C834 -749 789 -748 700 -748C700 -786 703 -796 713 -803C732 -817 731 -825 710 -824C684 -822 655 -824 628 -829C631 -813 633 -787 634 -748C549 -748 503 -750 450 -754C452 -727 454 -688 455 -645C437 -646 419 -649 400 -652V-630C386 -640 369 -654 355 -670C345 -659 335 -648 324 -637C310 -658 298 -678 290 -695L230 -667C247 -647 265 -620 276 -592C253 -572 231 -554 206 -537C188 -563 173 -590 161 -617L99 -587C122 -562 139 -535 153 -504C117 -483 78 -464 33 -444C54 -426 70 -405 77 -382C146 -422 188 -448 224 -473C235 -459 245 -445 253 -430C198 -355 115 -297 44 -268C67 -251 85 -233 99 -213C169 -260 232 -319 278 -378C287 -355 294 -331 298 -305C252 -236 157 -154 43 -98C67 -80 83 -54 93 -33C188 -93 255 -154 303 -220C303 -187 300 -152 296 -115C287 -45 244 -21 155 -28C175 0 191 36 199 66C313 45 351 4 364 -116C382 -288 359 -410 274 -511C290 -524 307 -539 327 -556C350 -576 383 -597 400 -606V-577C419 -580 437 -583 455 -584C454 -543 453 -506 450 -480C501 -483 549 -485 634 -485V-439C543 -439 495 -440 444 -443C446 -418 447 -385 447 -348C447 -305 446 -276 444 -250C488 -252 526 -254 595 -255C588 -240 579 -223 568 -205C508 -205 457 -208 399 -215V-140C447 -145 485 -148 531 -148C510 -119 487 -89 464 -62C520 -56 568 -49 613 -41C538 -6 456 5 360 -8C383 21 391 44 392 73C520 64 632 31 704 -18C766 1 823 27 885 64C899 35 912 16 931 -8C871 -31 812 -49 757 -64ZM602 -149H741C727 -125 710 -104 683 -83C642 -93 604 -101 571 -106C582 -121 592 -135 602 -149Z"/>
</svg>