<svg xmlns="http://www.w3.org/2000/svg" viewBox="0 -1000 1000 1000">
	<path fill="#000000" d="M826 -192H583V-263H826ZM826 -325H583V-398H826ZM826 -460H583V-530H826ZM158 -339C166 -349 165 -355 154 -355C129 -355 106 -359 87 -365C85 -314 70 -232 48 -177C72 -178 95 -177 122 -172C130 -203 136 -232 144 -282C150 -323 153 -334 158 -339ZM319 -521V-630C376 -629 418 -626 452 -622V-702C418 -698 376 -695 319 -694V-736C319 -765 331 -799 342 -809C352 -817 349 -823 336 -822C305 -820 262 -822 233 -826C240 -790 242 -756 242 -694C183 -695 138 -698 102 -702V-622C136 -626 182 -629 242 -630V-521C168 -522 110 -525 68 -529V-448C107 -454 150 -456 189 -456C186 -172 154 -85 54 13C81 20 104 32 128 50C228 -82 249 -157 254 -456H313V-63C313 -30 307 -24 228 -29C247 6 254 24 257 55C371 40 383 31 383 -62V-328C408 -280 420 -250 438 -192L505 -228C475 -290 465 -310 437 -365L383 -340V-455C411 -454 449 -452 481 -448V-529C439 -525 390 -522 319 -521ZM984 15C924 -31 858 -78 792 -123L740 -69C803 -36 884 31 920 78ZM675 -75C655 -87 637 -101 611 -124C539 -54 493 -20 417 16C445 36 461 54 474 77C534 29 580 -7 639 -47C647 -54 661 -60 667 -58C682 -56 689 -69 675 -75ZM714 -672H861C900 -672 923 -670 943 -666V-740C923 -737 900 -735 861 -735H714V-781C714 -795 718 -805 726 -809C736 -816 734 -825 721 -824C697 -823 666 -824 634 -829C637 -809 638 -787 638 -737V-594C570 -595 536 -597 507 -601C509 -585 510 -548 510 -516V-206C510 -174 509 -137 507 -123C544 -127 590 -128 703 -128C815 -128 866 -127 905 -123C903 -137 901 -174 901 -206V-516C901 -548 903 -585 905 -601C867 -596 818 -594 714 -594Z"/>
</svg>