<svg xmlns="http://www.w3.org/2000/svg" viewBox="0 -1000 1000 1000">
	<path fill="#000000" d="M822 -237V-165H515V-237ZM291 -595C335 -594 373 -592 398 -588V-665C372 -660 335 -658 291 -657V-753C291 -772 296 -789 308 -800C319 -809 317 -815 302 -814C272 -812 246 -813 214 -818C219 -790 222 -720 222 -657C170 -658 127 -660 98 -665V-588C126 -592 170 -595 222 -596V-461C160 -461 104 -463 70 -468V-394C108 -399 179 -401 249 -401V-108C223 -134 200 -172 181 -221C190 -274 195 -287 202 -292C214 -300 214 -310 198 -312C173 -315 149 -320 118 -333C122 -195 83 -42 43 17C62 26 82 44 101 76C129 14 150 -46 165 -126C221 -29 270 -2 418 26C455 33 492 35 929 36C935 3 943 -19 970 -46C488 -29 386 -33 318 -62V-219H352C402 -219 415 -219 427 -217V-287C416 -285 403 -284 353 -284H318V-400C365 -400 406 -398 433 -394V-468C403 -463 349 -461 291 -461ZM633 -734C617 -763 597 -795 575 -823L516 -790C534 -767 553 -733 565 -703ZM751 -496H822V-412C760 -409 751 -419 751 -438ZM634 -496H691V-394C691 -359 719 -343 822 -351V-293H515V-496H572C569 -426 555 -391 518 -354C542 -351 568 -340 581 -322C614 -372 630 -424 634 -496ZM573 -638V-555C527 -556 476 -557 449 -560C451 -538 452 -512 452 -482V-235C452 -181 451 -147 448 -99C500 -103 590 -105 675 -105C750 -105 830 -103 892 -99C889 -150 889 -177 889 -224V-483C889 -513 890 -538 891 -560C865 -557 801 -555 751 -555V-638C837 -638 880 -635 915 -631V-704C874 -697 835 -694 757 -692C798 -755 814 -776 823 -781C834 -788 835 -795 823 -798C804 -803 774 -817 755 -829C738 -783 717 -736 692 -692C550 -692 476 -696 433 -704V-631C469 -635 519 -637 573 -638ZM691 -638V-555H635V-638Z"/>
</svg>