<svg xmlns="http://www.w3.org/2000/svg" viewBox="0 -1000 1000 1000">
	<path fill="#000000" d="M635 -155C615 -170 600 -183 581 -205C555 -173 443 -112 381 -100C407 -78 420 -58 433 -34C486 -62 525 -85 588 -124C602 -133 619 -141 630 -141C641 -141 643 -148 635 -155ZM634 -264H525V-320H634ZM703 -320H817V-264H703ZM634 -372H525V-423H634ZM703 -423H817V-372H703ZM215 -605V-471C153 -471 105 -473 70 -478V-404C108 -409 163 -411 241 -411V-90C214 -117 186 -155 165 -197C178 -279 184 -297 192 -302C204 -310 204 -320 188 -322C163 -325 141 -331 109 -343C113 -225 67 -47 39 -6C62 9 77 23 96 53C118 4 136 -43 149 -106C209 -8 260 9 405 36C442 43 481 45 928 46C932 13 938 -2 957 -32C511 -16 380 -22 308 -48V-221H328C378 -221 410 -220 423 -219V-289C412 -287 379 -286 329 -286H308V-410C347 -409 376 -408 402 -404V-478C369 -474 334 -472 284 -471V-604C327 -603 363 -601 387 -597V-675C362 -671 326 -668 284 -667V-763C284 -782 289 -799 301 -810C312 -819 310 -825 295 -824C264 -823 239 -823 207 -828C212 -800 215 -730 215 -667C162 -668 118 -670 88 -675V-597C117 -601 162 -604 215 -605ZM547 -653V-585C494 -586 447 -589 407 -593V-521C468 -527 528 -530 634 -530V-474C528 -474 503 -475 456 -478C461 -468 463 -440 463 -416V-267C463 -244 461 -220 456 -205C508 -209 531 -209 614 -209H747L708 -164C764 -128 821 -89 881 -37L927 -103C862 -144 820 -170 758 -209C829 -208 847 -207 886 -204C884 -216 881 -244 881 -267V-416C881 -440 883 -463 886 -478C838 -475 822 -474 703 -474V-530C815 -530 889 -529 936 -524V-593C894 -588 845 -586 790 -585V-653C828 -652 865 -650 898 -645V-719C865 -714 828 -712 790 -711V-757C790 -776 795 -793 807 -804C818 -813 816 -819 801 -818C771 -816 749 -817 717 -822C721 -798 724 -759 725 -711H610V-757C610 -776 615 -793 627 -804C638 -813 636 -819 621 -818C591 -816 571 -817 539 -822C543 -798 546 -759 547 -711C508 -712 470 -714 435 -719V-645C470 -650 508 -652 547 -653ZM725 -653V-585H610V-653Z"/>
</svg>