<svg xmlns="http://www.w3.org/2000/svg" viewBox="0 -1000 1000 1000">
	<path fill="#000000" d="M326 -534H176V-692H326ZM575 -688C603 -745 616 -768 637 -791C648 -802 647 -805 630 -806C609 -807 565 -818 535 -833C522 -722 462 -598 397 -532C396 -553 396 -578 396 -608C396 -704 398 -738 402 -764C363 -759 320 -757 250 -757C180 -757 139 -759 98 -764C103 -733 106 -691 106 -608C106 -525 104 -496 98 -464C135 -469 171 -471 229 -471V-112L169 -95V-357C169 -369 173 -377 183 -385C194 -394 191 -402 180 -401C157 -400 122 -403 93 -408C96 -382 98 -337 98 -290V-77C77 -73 59 -70 42 -69C55 -41 62 -16 67 20C129 -9 278 -61 439 -102C436 -124 435 -152 436 -170L297 -131V-276C356 -276 396 -275 420 -270V-350C396 -344 356 -344 297 -344V-471C341 -470 374 -468 402 -464C400 -480 398 -501 397 -529C419 -515 440 -498 458 -477C494 -534 521 -581 542 -620H793C856 -620 919 -617 942 -613V-697C918 -691 852 -688 792 -688ZM953 -111C920 -119 900 -129 867 -157C864 -124 859 -95 850 -66C843 -40 821 -32 740 -29C564 -22 546 -38 553 -80C559 -121 610 -209 716 -321C769 -377 843 -447 895 -490C870 -486 761 -480 676 -480C573 -480 511 -482 480 -486V-405C512 -408 568 -410 593 -410H703C666 -381 594 -299 546 -234C434 -80 451 13 556 40C601 52 721 54 827 43C909 34 927 18 953 -111Z"/>
</svg>