<svg xmlns="http://www.w3.org/2000/svg" viewBox="0 -1000 1000 1000">
	<path fill="#000000" d="M617 -648H486V-721H617ZM688 -721H825V-648H688ZM688 -586H825V-515H688ZM617 -515H486V-586H617ZM940 -4C889 -41 847 -71 783 -116L735 -68C789 -32 850 18 889 60ZM558 -90C540 -96 510 -115 490 -132C455 -74 390 -12 321 25C345 33 372 47 389 61C428 34 442 23 490 -24C525 -58 542 -71 555 -72C570 -73 576 -84 558 -90ZM147 -603C110 -604 87 -606 65 -609V-532C86 -535 109 -538 139 -539C118 -404 103 -332 78 -254C132 -222 173 -195 206 -171C168 -98 117 -35 50 17C77 26 97 36 124 59C176 6 219 -55 259 -129C289 -104 310 -80 330 -53C348 -81 363 -96 390 -118C360 -143 330 -167 292 -194C329 -276 341 -347 367 -609C337 -604 302 -602 221 -602C254 -756 261 -770 272 -778C293 -793 290 -800 269 -801C235 -803 202 -811 166 -822C166 -768 163 -733 147 -603ZM208 -540H282C282 -426 267 -324 233 -235C210 -251 185 -267 157 -285C178 -392 195 -475 208 -540ZM621 -306C509 -223 462 -205 394 -198C405 -175 409 -163 412 -136C442 -145 525 -151 623 -155V-35C623 -11 608 8 537 -2C551 27 561 57 565 85C681 63 694 53 694 9V-158L844 -165C854 -152 863 -138 872 -124L937 -173C890 -221 877 -233 793 -305L742 -267C765 -247 784 -229 802 -212C724 -207 655 -204 558 -200C644 -251 688 -279 760 -331C821 -375 835 -381 845 -380C864 -378 868 -388 849 -397C838 -402 810 -428 790 -449C771 -429 726 -388 686 -356C626 -351 586 -349 529 -346C577 -378 622 -414 663 -453C802 -453 852 -452 900 -448C898 -468 897 -495 897 -521V-715C897 -743 898 -772 900 -788C850 -784 806 -783 656 -783C507 -783 463 -784 411 -788C414 -768 415 -743 415 -715V-521C415 -490 414 -468 411 -448C453 -452 485 -453 575 -453C511 -385 475 -365 421 -348C430 -324 433 -311 437 -280C463 -288 479 -291 519 -295Z"/>
</svg>