<svg xmlns="http://www.w3.org/2000/svg" viewBox="0 -1000 1000 1000">
	<path fill="#000000" d="M178 -709H326V-538H178ZM713 -119C775 -188 830 -299 866 -462C817 -457 758 -456 692 -456V-591C789 -590 862 -588 921 -583V-666C864 -662 790 -659 692 -658V-770C692 -787 696 -796 704 -802C727 -814 724 -822 699 -822C664 -822 644 -824 606 -830C614 -782 615 -751 615 -658C520 -659 477 -661 417 -666V-583C477 -588 519 -591 615 -591V-456C533 -456 491 -458 440 -463V-386C491 -390 568 -392 607 -392H768C746 -283 705 -217 654 -167C604 -215 558 -276 531 -341L466 -314C500 -241 546 -175 599 -119C515 -55 424 -24 323 -2C363 23 382 47 394 75C520 29 595 -14 657 -65C720 -13 802 32 914 61C924 23 933 2 963 -41C874 -39 788 -68 713 -119ZM297 -355V-478C336 -477 370 -475 397 -471C395 -511 393 -572 393 -623C392 -675 394 -739 397 -777C365 -772 316 -771 257 -771C194 -771 145 -772 106 -777C109 -722 111 -673 111 -623C111 -573 109 -513 106 -472C140 -475 178 -477 229 -478V-115L171 -102V-337C171 -367 176 -381 186 -388C197 -395 195 -401 182 -400C162 -399 125 -401 98 -406C105 -378 106 -357 106 -309V-91C82 -88 59 -86 34 -85C54 -57 63 -35 68 5C140 -25 250 -52 430 -87C423 -105 422 -128 434 -159L297 -129V-290C354 -290 389 -289 414 -285V-361C389 -356 354 -355 297 -355Z"/>
</svg>