<svg xmlns="http://www.w3.org/2000/svg" viewBox="0 -1000 1000 1000">
	<path fill="#000000" d="M333 -545H178V-690H333ZM304 -352V-482C350 -481 378 -479 410 -475C405 -505 403 -542 403 -612C403 -708 405 -737 410 -763C367 -758 337 -756 262 -756C186 -756 144 -758 101 -763C106 -732 108 -706 108 -612C108 -529 107 -507 101 -475C138 -480 175 -482 233 -482V-115L171 -100V-369C171 -381 175 -389 186 -397C197 -406 194 -414 183 -413C158 -412 127 -415 95 -420C99 -394 102 -349 102 -302V-84C78 -80 58 -78 37 -78C46 -41 51 -15 55 20C135 -14 262 -52 421 -92C417 -114 418 -136 421 -160L304 -132V-288C357 -288 375 -287 400 -282V-358C375 -353 357 -352 304 -352ZM631 -670C598 -718 572 -763 551 -809L477 -775C503 -741 534 -685 552 -633ZM540 -556V-358C500 -358 455 -362 424 -367V-284C455 -288 500 -291 539 -292C532 -130 478 -51 355 19C386 30 408 48 424 74C532 7 602 -108 612 -293H763V-116C763 -64 760 2 755 65H843C838 2 836 -63 836 -115V-293C878 -292 924 -289 958 -284V-367C924 -361 878 -359 836 -358V-555C867 -554 902 -552 924 -549V-626C891 -622 826 -619 781 -618C844 -753 862 -779 883 -789C900 -797 898 -803 885 -805C853 -810 818 -823 784 -839C771 -770 751 -708 713 -618H593C551 -618 485 -621 446 -626V-549C471 -553 507 -555 540 -556ZM763 -557V-358H613V-557Z"/>
</svg>