<svg xmlns="http://www.w3.org/2000/svg" viewBox="0 -1000 1000 1000">
	<path fill="#000000" d="M266 -347H715V-269H266ZM676 -523C676 -561 673 -600 668 -644L597 -639C604 -595 605 -560 602 -517ZM961 -545C930 -548 906 -556 886 -575C880 -521 872 -514 826 -514C805 -514 803 -530 811 -674C813 -712 816 -746 824 -791C763 -786 717 -785 645 -785C574 -785 531 -786 468 -791C480 -748 482 -692 478 -624C475 -566 451 -510 355 -469C387 -455 408 -441 426 -423C538 -501 554 -568 554 -725H740C735 -649 732 -578 731 -538C730 -457 732 -450 815 -446C916 -441 930 -451 961 -545ZM522 -96H730C774 -96 814 -95 844 -92V-156C814 -153 774 -152 730 -152H522V-214C646 -214 719 -213 787 -209C784 -234 783 -283 783 -312C783 -341 784 -390 787 -415C714 -411 634 -409 493 -409C355 -409 266 -411 192 -415C195 -390 196 -341 196 -312C196 -283 195 -234 192 -209C256 -213 338 -214 453 -214V-34C382 -55 340 -86 303 -140C307 -143 311 -145 316 -147C333 -155 333 -166 316 -170C288 -177 253 -189 229 -198C206 -100 140 -25 33 33C60 47 85 68 98 88C164 48 227 -27 268 -96C314 -11 365 15 450 37C502 50 707 63 926 55C927 20 934 0 952 -30C840 -14 618 -11 522 -20ZM292 -553V-706C338 -705 370 -703 400 -700V-777C362 -773 319 -771 250 -771C181 -771 138 -773 100 -777V-700C133 -703 169 -705 222 -706V-541C164 -532 108 -525 63 -523C75 -495 83 -465 84 -439C182 -466 296 -493 405 -513C401 -534 402 -555 409 -579C373 -570 333 -561 292 -553Z"/>
</svg>