<svg xmlns="http://www.w3.org/2000/svg" viewBox="0 -1000 1000 1000">
	<path fill="#000000" d="M806 -398H537V-492H806ZM342 -490H187V-668H342ZM806 -555H537V-648H806ZM732 -188C704 -250 691 -287 687 -335C767 -335 858 -334 881 -332C879 -368 879 -419 879 -447V-628C879 -663 880 -690 882 -720C846 -715 762 -711 671 -711C580 -711 496 -712 461 -717C463 -687 465 -661 465 -625V-64C465 -3 462 11 451 20C466 40 473 56 481 86C498 68 513 56 545 35L659 -40L642 -113C602 -83 576 -65 537 -41V-335H619C623 -281 635 -243 668 -161C700 -80 789 4 881 50C893 26 910 3 947 -30C882 -49 812 -87 767 -135C879 -239 892 -245 909 -245C921 -245 923 -252 913 -257C898 -264 857 -290 832 -311C825 -292 817 -280 732 -188ZM320 -301V-424C361 -423 392 -422 417 -420C415 -462 413 -521 413 -581C413 -641 415 -701 417 -742C381 -737 332 -735 263 -735C194 -735 146 -737 110 -742C114 -701 116 -640 116 -581C116 -521 112 -462 110 -420C142 -423 188 -424 248 -424V-61L176 -50V-310C176 -319 182 -327 194 -335C207 -344 203 -351 187 -350C171 -349 126 -351 97 -355C100 -330 101 -282 101 -237V-42C86 -40 73 -40 60 -39C70 -7 79 29 83 58C159 27 296 -8 428 -31C424 -48 425 -79 433 -102L320 -74V-238C391 -238 414 -238 433 -234V-305C414 -302 391 -301 320 -301ZM720 -742C708 -775 697 -802 682 -832L592 -802C609 -771 616 -753 627 -717Z"/>
</svg>