<svg xmlns="http://www.w3.org/2000/svg" viewBox="0 -1000 1000 1000">
	<path fill="#000000" d="M297 -327H724V-257H297ZM595 -626V-703C640 -706 678 -710 750 -717C812 -723 890 -725 908 -721C924 -717 927 -727 912 -738C898 -748 863 -788 852 -810C749 -773 662 -756 519 -763C536 -568 514 -485 392 -440C439 -433 458 -424 475 -396C545 -437 579 -503 590 -564H722V-495C722 -473 719 -435 714 -407H804C800 -430 796 -469 796 -495V-563C852 -562 905 -559 938 -555V-635C895 -630 821 -626 750 -626ZM539 -141V-201C663 -201 739 -200 805 -195C802 -214 800 -253 800 -291C800 -326 802 -366 805 -388C733 -383 653 -381 512 -381C376 -381 294 -383 222 -388C313 -406 317 -418 317 -488V-545C358 -549 401 -552 445 -554C444 -572 446 -592 450 -618C406 -611 362 -605 317 -601V-667C375 -666 418 -664 454 -660V-734C418 -730 375 -728 317 -727V-776C317 -788 321 -793 333 -801C354 -813 349 -819 320 -819C292 -818 271 -819 236 -824C241 -807 245 -777 246 -727C174 -727 125 -729 84 -734V-660C125 -665 174 -667 246 -667V-594C188 -590 127 -587 63 -585C77 -556 82 -536 85 -511C129 -521 184 -530 246 -538V-480C246 -458 229 -451 147 -464C168 -435 176 -405 177 -379C192 -382 205 -384 217 -387C221 -364 225 -325 224 -291C224 -257 221 -220 217 -196C280 -200 355 -201 469 -201V-28C400 -48 344 -78 312 -121C319 -127 325 -131 330 -131C356 -132 349 -147 335 -153C309 -163 278 -176 250 -190C221 -76 155 -19 33 23C70 41 92 57 104 76C181 36 225 -1 279 -79C316 -10 407 30 518 48C557 54 650 58 920 60C921 31 928 5 951 -28C859 -14 645 -3 539 -14V-87C686 -87 783 -83 847 -76V-152C783 -145 687 -141 539 -141Z"/>
</svg>