<svg xmlns="http://www.w3.org/2000/svg" viewBox="0 -1000 1000 1000">
	<path fill="#000000" d="M711 -81H608V-167H711ZM774 -28C772 -52 772 -87 772 -123C772 -160 772 -198 774 -221C748 -219 713 -218 662 -218C610 -218 572 -219 546 -221C548 -197 549 -159 549 -122C549 -87 548 -52 546 -28C572 -30 610 -31 662 -31C713 -31 748 -30 774 -28ZM750 -411H562V-473H750ZM898 -325C820 -320 769 -318 662 -318C569 -318 472 -321 422 -324C425 -308 427 -287 427 -247V-22C427 9 426 39 422 69H496V-260H826V-53C826 -10 817 -3 738 -10C764 18 769 34 772 81C877 64 896 45 896 -28V-248C896 -275 897 -303 898 -325ZM223 -551H310C290 -407 270 -307 239 -232C215 -248 191 -264 167 -279C190 -392 208 -481 223 -551ZM733 -584C747 -563 760 -545 773 -529H560C578 -547 595 -565 609 -584ZM608 -720C600 -693 589 -668 575 -644C468 -645 425 -648 399 -652V-577C428 -581 475 -583 529 -584C488 -539 432 -503 361 -467C368 -513 374 -565 381 -625C357 -621 320 -619 238 -619C268 -756 281 -794 291 -800C307 -812 307 -819 288 -821C260 -824 227 -833 194 -846C191 -779 183 -699 170 -619C109 -620 83 -622 59 -625V-543C85 -548 115 -551 159 -551C136 -427 112 -330 88 -254C135 -228 174 -200 210 -171C171 -107 120 -62 43 -14C77 -3 94 9 117 36C174 -8 224 -63 262 -125C295 -92 322 -60 345 -28C364 -55 385 -79 409 -101C382 -127 342 -158 296 -191C322 -252 341 -328 358 -448C375 -430 387 -413 394 -393C434 -423 469 -449 500 -475V-404C500 -382 499 -363 498 -349C534 -352 585 -353 658 -353C729 -353 778 -351 815 -349C813 -363 812 -382 812 -405V-488C843 -460 879 -437 930 -408C947 -459 956 -474 976 -491C896 -510 846 -533 798 -584C853 -583 902 -581 931 -577V-652C895 -646 823 -644 649 -644C664 -670 676 -699 687 -731C794 -745 876 -751 885 -749C902 -746 907 -752 894 -766C875 -787 861 -806 847 -833C808 -817 738 -803 630 -789C520 -775 463 -771 407 -774C423 -753 434 -730 442 -704C492 -707 552 -713 608 -720Z"/>
</svg>