<svg xmlns="http://www.w3.org/2000/svg" viewBox="0 -1000 1000 1000">
	<path fill="#000000" d="M345 -296H655V-231H345ZM596 -444H399V-499H596ZM596 -594V-545H399V-594ZM668 -346C625 -344 575 -344 497 -344C420 -344 371 -345 329 -346C348 -362 365 -378 381 -396H619C635 -378 651 -361 668 -346ZM680 -396C759 -395 818 -393 915 -389V-451C831 -446 754 -444 659 -444V-499C721 -498 762 -496 809 -492V-552C763 -548 722 -546 659 -545V-594C720 -593 755 -591 802 -587V-647C756 -643 721 -641 659 -640C660 -654 665 -661 672 -666C685 -674 684 -683 668 -682C636 -681 624 -681 594 -684C595 -671 596 -659 596 -640H400C402 -651 406 -658 412 -662C427 -672 424 -679 408 -678C382 -677 355 -678 332 -681C333 -669 334 -656 334 -640C263 -641 229 -643 177 -647V-587C227 -591 263 -593 334 -594V-545C265 -546 224 -548 174 -552V-492C222 -496 265 -498 334 -499V-444C235 -444 159 -446 73 -451V-389C156 -393 230 -395 310 -396C262 -342 153 -291 48 -268C70 -249 83 -234 98 -211C175 -242 227 -270 283 -310C283 -295 284 -280 284 -264C284 -232 282 -203 280 -180C329 -181 376 -182 462 -182V-25C392 -36 351 -56 325 -84C338 -97 348 -104 359 -110C375 -118 374 -123 355 -129C332 -136 312 -148 288 -165C251 -76 210 -33 96 24C126 44 137 54 150 73C218 32 248 4 294 -49C358 14 401 30 531 42C597 48 781 51 865 49C864 25 870 1 887 -29C758 -14 643 -9 528 -17V-80H681C722 -80 753 -78 787 -74V-135C753 -131 722 -129 681 -129H528V-182C618 -182 670 -181 720 -179C718 -202 716 -233 716 -264C716 -279 716 -294 717 -308C767 -275 825 -250 902 -229C916 -257 929 -277 949 -302C814 -313 743 -337 680 -396ZM555 -755C549 -783 543 -813 540 -841L451 -827C460 -802 467 -779 472 -755C249 -755 154 -757 84 -761V-606H150V-702H841V-623H906V-761C840 -757 752 -755 555 -755Z"/>
</svg>