<svg xmlns="http://www.w3.org/2000/svg" viewBox="0 -1000 1000 1000">
	<path fill="#000000" d="M164 -707H297V-558H164ZM282 -371V-494C317 -493 349 -491 371 -488C369 -528 367 -582 367 -633C367 -685 368 -736 371 -774C342 -769 290 -768 235 -768C177 -768 128 -769 92 -774C95 -735 97 -683 97 -633C98 -583 96 -530 92 -489C125 -493 162 -494 212 -495V-117L162 -104V-339C162 -369 167 -383 177 -390C187 -397 185 -403 173 -402C154 -401 112 -403 88 -408C92 -385 95 -349 95 -311V-93C85 -92 74 -91 61 -90C69 -60 75 -21 76 8C146 -25 308 -79 417 -100C415 -114 419 -156 423 -174L282 -136V-304C322 -304 366 -303 391 -299V-377C366 -372 322 -371 282 -371ZM438 -89C414 -77 381 -52 331 -7C360 9 382 20 408 41C443 -42 471 -47 532 -10C618 41 638 46 931 53C928 22 935 -8 955 -39C703 -7 607 -29 541 -75C528 -84 517 -90 508 -94V-423C508 -471 511 -497 517 -528C495 -524 473 -522 445 -522C417 -522 393 -524 373 -528V-455C385 -458 396 -459 438 -459ZM702 -342H629V-414H702ZM770 -414H843V-342H770ZM702 -469H629V-545H702ZM770 -545H843V-469H770ZM519 -607C501 -669 486 -712 461 -768L384 -744C411 -696 431 -647 441 -585ZM770 -729V-765C770 -789 771 -801 775 -804C786 -812 785 -821 773 -821C748 -821 723 -822 695 -828C699 -813 701 -775 702 -729C633 -730 585 -732 544 -736V-662C585 -666 632 -668 702 -669V-604C623 -604 594 -604 560 -608C564 -597 566 -568 566 -545V-343C566 -319 563 -293 560 -280C594 -283 623 -283 702 -283V-218C627 -219 576 -221 532 -225V-149C575 -154 626 -156 702 -157C701 -122 699 -84 696 -45H775C772 -82 771 -122 770 -157C848 -156 901 -154 945 -149V-225C901 -221 848 -219 770 -218V-283C852 -283 879 -283 913 -280C910 -294 909 -319 909 -343V-545C909 -568 911 -594 913 -608C879 -604 852 -604 770 -604V-669C841 -668 890 -666 931 -662V-736C890 -732 841 -730 770 -729Z"/>
</svg>