<svg xmlns="http://www.w3.org/2000/svg" viewBox="0 -1000 1000 1000">
	<path fill="#000000" d="M184 -718H320V-553H184ZM804 -121H532V-172H804ZM878 -65C876 -77 874 -109 874 -135V-358C874 -384 876 -416 878 -428C832 -424 806 -423 668 -423C531 -423 505 -424 458 -428C461 -415 463 -384 463 -358V-135C463 -109 460 -78 458 -65C505 -69 531 -70 668 -70C806 -70 832 -69 878 -65ZM804 -220H532V-268H804ZM804 -317H532V-367H804ZM302 -366V-499C337 -498 370 -496 392 -493C390 -533 388 -587 388 -638C388 -691 389 -741 392 -779C363 -774 309 -773 254 -773C196 -773 145 -774 109 -779C112 -740 114 -688 114 -638C114 -588 112 -535 109 -494C142 -498 182 -500 232 -500V-116L172 -103V-344C172 -374 177 -388 187 -395C197 -402 195 -408 183 -407C164 -406 125 -408 101 -413C105 -390 108 -354 108 -316V-92C93 -90 76 -88 59 -88C67 -58 72 -26 74 1C144 -32 282 -68 403 -91C401 -105 403 -136 409 -156L302 -132V-309C357 -309 385 -308 409 -304V-372C385 -368 360 -366 302 -366ZM940 7C874 -20 833 -35 748 -59L699 -7C769 8 834 34 895 70ZM618 -11C627 -11 627 -18 618 -23C600 -33 578 -53 566 -66C485 -20 438 -1 362 18C390 38 405 53 417 75C496 43 523 31 573 1C588 -8 602 -11 618 -11ZM699 -704H823V-625H699ZM632 -625H517V-704H632ZM699 -572C775 -572 835 -571 892 -567C890 -594 889 -627 889 -665C889 -703 890 -736 892 -763C835 -759 775 -758 699 -758C699 -792 705 -808 712 -814C723 -823 721 -831 706 -831C676 -830 660 -831 628 -838C630 -821 631 -797 632 -758C562 -758 503 -760 449 -763C451 -734 452 -703 452 -665C452 -631 451 -601 449 -567C503 -570 562 -572 632 -572V-521C526 -522 470 -525 407 -531V-457C476 -464 538 -467 669 -467C799 -467 881 -464 950 -457V-531C886 -525 812 -522 699 -521Z"/>
</svg>