<svg xmlns="http://www.w3.org/2000/svg" viewBox="0 -1000 1000 1000">
	<path fill="#000000" d="M814 -139H514V-179H814ZM814 -236H514V-276H814ZM814 -334H514V-375H814ZM959 12C897 -24 838 -52 757 -79L708 -28C778 -3 844 33 915 75ZM230 -229C209 -241 186 -254 162 -267C179 -334 209 -466 224 -539H295C283 -408 258 -302 230 -229ZM590 -533C573 -543 559 -555 542 -576C500 -545 456 -521 398 -499C419 -482 428 -470 436 -450C463 -461 486 -472 525 -495C558 -514 573 -519 584 -520C596 -521 598 -529 590 -533ZM623 -599V-480C496 -434 418 -416 351 -411C359 -465 367 -529 374 -609C346 -605 322 -604 237 -604C266 -751 276 -769 294 -782C309 -793 306 -802 288 -805C251 -810 230 -818 197 -834C194 -771 189 -735 165 -604C102 -605 80 -607 53 -611V-531C84 -536 112 -539 152 -539C119 -367 108 -325 82 -242C113 -228 157 -201 201 -170C166 -109 115 -59 45 -8C77 5 96 22 109 40C161 -1 212 -60 255 -130C301 -95 342 -59 364 -34C378 -59 393 -77 418 -97C368 -136 329 -165 289 -192C315 -248 334 -309 350 -404C366 -380 374 -361 379 -341C401 -347 424 -353 447 -360V-156C447 -128 445 -103 442 -79C473 -82 512 -85 556 -85H560C487 -34 425 -8 354 11C379 34 392 45 402 68C456 50 485 37 558 -2C580 -14 595 -18 616 -19C628 -20 630 -25 617 -34C603 -45 582 -66 565 -85H774C818 -85 856 -83 887 -80C884 -105 883 -128 883 -156V-358C883 -391 884 -410 887 -433C831 -428 773 -426 639 -426C714 -454 788 -483 856 -511C875 -519 895 -524 901 -524C912 -525 913 -532 901 -540C882 -553 862 -572 849 -589C796 -556 746 -530 694 -508V-599C755 -598 797 -596 833 -592V-660C792 -655 743 -653 667 -653C589 -653 539 -656 500 -660V-592C530 -595 576 -598 623 -599ZM619 -751C489 -751 445 -752 393 -759V-619H460V-695H858V-622H931V-759C878 -755 807 -752 705 -751C703 -780 699 -807 694 -834L599 -823C608 -797 614 -775 619 -751Z"/>
</svg>