<svg xmlns="http://www.w3.org/2000/svg" viewBox="0 -1000 1000 1000">
	<path fill="#000000" d="M277 -247H736V-204H277ZM190 -372V-415H383V-372ZM190 -539V-578H372V-539ZM530 -56H739C784 -56 824 -55 854 -53V-111C824 -109 784 -109 739 -109H530V-152C655 -153 737 -152 806 -148C803 -168 802 -202 802 -225C802 -248 803 -284 806 -304C732 -301 641 -299 499 -299C360 -299 281 -301 206 -304C209 -284 210 -253 210 -225C210 -202 209 -168 206 -148C271 -151 346 -152 461 -152V-20C370 -37 323 -54 283 -86C289 -90 295 -93 301 -95C318 -101 318 -113 301 -114C273 -115 248 -123 227 -136C192 -60 150 -14 39 26C67 38 91 55 104 71C169 39 207 6 247 -43C294 2 356 25 455 45C517 57 663 66 929 59C930 30 937 4 955 -20C843 -7 627 -2 530 -9ZM211 -621C175 -622 144 -624 119 -627C123 -613 124 -602 124 -585V-400C124 -375 122 -352 117 -322C162 -326 217 -328 282 -328C350 -328 434 -326 456 -324C453 -337 450 -364 450 -395C450 -426 452 -448 455 -460C428 -459 361 -458 190 -458V-494C313 -494 394 -492 443 -488C439 -502 438 -530 438 -563C438 -594 440 -615 442 -627C397 -622 344 -621 276 -621C295 -648 309 -663 317 -666C329 -669 327 -673 314 -674C289 -678 264 -684 239 -692C237 -674 228 -651 211 -621ZM732 -509H656C650 -526 645 -543 640 -561L568 -554C577 -540 584 -526 590 -510C550 -512 516 -514 486 -517V-456C529 -459 584 -461 658 -462V-424C591 -425 545 -427 503 -430V-370C544 -373 590 -376 657 -377C656 -355 654 -332 651 -312H731C728 -332 726 -355 726 -377C799 -376 847 -374 893 -370V-430C847 -426 799 -424 725 -424V-462C808 -462 858 -460 905 -456V-517C873 -514 839 -512 793 -510C805 -526 818 -541 835 -556L769 -576C762 -557 749 -533 732 -509ZM665 -627C598 -628 550 -630 509 -633V-573C556 -576 614 -578 701 -578C788 -578 845 -576 892 -573V-633C852 -630 805 -628 739 -627C734 -644 729 -661 726 -676L658 -665V-701C770 -701 875 -699 940 -694V-768C875 -763 770 -761 658 -761V-793C658 -804 664 -811 673 -813C684 -815 681 -825 669 -825C644 -825 607 -827 581 -831C585 -813 588 -787 589 -761H420V-793C420 -803 425 -811 434 -814C443 -816 442 -825 430 -825C404 -824 369 -826 344 -830C348 -809 350 -785 351 -761C242 -761 141 -763 74 -768V-694C138 -699 242 -701 351 -701V-656H420V-701H589V-661H654C658 -650 662 -639 665 -627Z"/>
</svg>