<svg xmlns="http://www.w3.org/2000/svg" viewBox="0 -1000 1000 1000">
	<path fill="#000000" d="M923 -444C922 -466 921 -506 921 -546V-688C921 -727 922 -764 923 -791C907 -788 883 -786 801 -786C727 -786 700 -788 680 -791C681 -764 682 -727 682 -688V-546C682 -505 681 -465 680 -442C706 -445 727 -445 803 -445C879 -445 898 -445 923 -444ZM389 -94C383 -112 379 -127 377 -153L271 -129V-311C308 -311 342 -309 367 -306V-379C342 -375 308 -373 271 -373V-489C306 -489 338 -487 362 -483C360 -523 358 -580 358 -631C357 -683 359 -737 362 -775C331 -771 287 -769 230 -769C170 -769 127 -771 91 -775C94 -736 96 -681 96 -631C97 -581 95 -525 91 -484C123 -487 156 -489 205 -490V-114L153 -103V-337C153 -367 158 -381 168 -388C178 -395 176 -401 164 -400C145 -399 107 -401 81 -406C87 -383 90 -347 90 -309V-94C73 -92 56 -90 39 -89C58 -56 64 -39 70 -2C140 -29 272 -65 389 -94ZM945 29V-39C915 -36 810 -33 734 -32V-97C805 -96 877 -93 907 -90V-155C878 -152 805 -149 734 -148V-207C805 -207 876 -204 907 -201V-268C877 -265 805 -262 734 -261V-320C808 -320 903 -316 941 -313V-379C912 -376 811 -372 736 -372C724 -399 717 -422 713 -443L635 -424C642 -410 648 -398 655 -372H514C538 -399 542 -403 551 -410C564 -421 564 -425 548 -430C542 -432 528 -438 514 -444C586 -444 606 -444 628 -443C628 -465 627 -505 627 -545V-691C627 -730 627 -764 628 -790C614 -787 590 -785 513 -785C443 -785 416 -787 398 -790C399 -763 400 -726 400 -687V-545C400 -507 399 -477 398 -441C417 -443 437 -444 481 -444C456 -380 397 -306 333 -265C361 -253 379 -240 396 -221C412 -242 427 -262 441 -280V-164C441 -90 438 -9 432 77H504V23H702C775 23 901 26 945 29ZM863 -681H738V-733H863ZM571 -679H460V-731H571ZM289 -547H162V-708H289ZM863 -589H738V-634H863ZM571 -585H460V-631H571ZM863 -494H738V-542H863ZM571 -491H460V-541H571ZM666 -261H504V-320H666ZM666 -148H504V-208H666ZM666 -32H504V-97H666Z"/>
</svg>