<svg xmlns="http://www.w3.org/2000/svg" viewBox="0 -1000 1000 1000">
	<path fill="#000000" d="M828 -563H522V-656H828ZM650 -713C501 -713 480 -714 450 -720C458 -571 459 -497 458 -389C457 -175 430 -94 338 12C368 27 385 39 402 64C509 -96 524 -176 522 -503H732C841 -503 876 -501 896 -498C895 -514 894 -570 894 -607C894 -638 895 -704 896 -720C872 -715 845 -713 724 -713C719 -756 710 -791 698 -825L624 -806C637 -770 645 -741 650 -713ZM955 -118C930 -124 903 -139 882 -172C866 -63 856 -53 789 -45C752 -41 691 -40 661 -43C613 -48 605 -54 605 -85C605 -102 663 -184 808 -316C831 -337 863 -354 891 -362V-446C864 -439 796 -433 702 -433C641 -433 576 -436 543 -440V-368C576 -372 633 -374 698 -374H779C585 -204 531 -115 531 -71C531 -23 559 14 615 23C649 28 773 27 838 21C899 15 926 -11 955 -118ZM213 -320H153V-401H213ZM280 -401H341V-320H280ZM213 -454H153V-531H213ZM280 -531H341V-454H280ZM280 -721V-773C280 -792 284 -800 291 -803C308 -810 304 -829 284 -827C259 -825 233 -827 207 -831C211 -803 213 -769 213 -721C150 -721 108 -723 72 -729V-651C107 -656 150 -659 213 -659V-591C145 -591 114 -592 87 -595C89 -582 90 -550 90 -524V-327C90 -301 89 -271 87 -256C114 -259 145 -260 213 -260V-191C145 -191 94 -194 55 -199V-120C93 -125 145 -128 213 -128C213 -33 211 17 207 65H286C283 12 280 -32 280 -128C338 -127 378 -125 415 -120V-199C378 -194 338 -192 280 -191V-260C352 -260 379 -259 407 -256C405 -271 403 -301 403 -327V-524C403 -550 405 -583 407 -595C380 -592 352 -591 280 -591V-659C337 -659 378 -656 413 -651V-729C378 -724 337 -721 280 -721Z"/>
</svg>