<svg xmlns="http://www.w3.org/2000/svg" viewBox="0 -1000 1000 1000">
	<path fill="#000000" d="M558 -313L557 -276C579 -281 604 -284 637 -285C639 -260 638 -234 635 -210C568 -211 520 -214 479 -219V-143C517 -148 563 -151 624 -152C596 -72 514 -13 422 10C449 27 462 42 474 76C566 29 621 -17 664 -89C730 -40 788 12 842 73L906 7C846 -38 770 -87 687 -132C689 -138 691 -145 693 -153C785 -153 846 -150 895 -143V-219C848 -213 788 -210 701 -210C703 -232 704 -257 705 -286C742 -285 769 -282 792 -276V-309C820 -285 858 -261 911 -235C917 -269 928 -292 955 -316C863 -334 806 -369 779 -419C848 -419 883 -416 926 -410V-482C879 -477 844 -476 765 -476H665C672 -496 680 -518 685 -541H746C812 -541 857 -538 896 -533V-606C846 -601 788 -598 696 -598C699 -617 702 -637 705 -656H754C826 -656 875 -653 918 -648V-720C865 -714 805 -712 712 -712C713 -723 714 -735 715 -745C719 -793 723 -808 731 -817C739 -826 738 -829 728 -828C703 -825 669 -825 633 -827C641 -791 643 -757 639 -712C566 -712 514 -715 468 -720V-648C510 -653 563 -656 633 -656C631 -638 628 -619 625 -598C565 -598 521 -601 482 -606V-533C518 -537 558 -540 615 -541C611 -517 604 -497 596 -476C539 -476 496 -478 457 -482V-410C490 -414 525 -417 566 -418C537 -370 502 -340 442 -309C457 -286 465 -270 474 -244C505 -265 531 -287 558 -313ZM637 -419H721C732 -391 744 -364 763 -340H581C602 -363 620 -390 637 -419ZM228 -324H152V-392H228ZM296 -392H376V-324H296ZM228 -452H152V-520H228ZM296 -520H376V-452H296ZM296 -710V-786C296 -804 297 -812 304 -817C319 -827 318 -832 301 -830C274 -827 251 -827 220 -831C224 -812 227 -767 228 -710C154 -711 108 -714 65 -719V-642C108 -647 154 -650 228 -651V-583C149 -583 121 -584 89 -588C92 -576 94 -544 94 -518V-326C94 -300 92 -268 89 -256C121 -260 149 -261 228 -261V-189C148 -190 94 -193 47 -198V-120C94 -125 148 -128 228 -129C228 -52 224 24 220 70H304C300 22 296 -51 296 -129C365 -128 414 -125 455 -120V-198C414 -193 365 -190 296 -189V-261C380 -261 409 -260 442 -256C439 -268 437 -300 437 -326V-518C437 -544 439 -576 442 -588C409 -584 380 -583 296 -583V-651C362 -650 407 -647 446 -642V-719C407 -714 362 -711 296 -710Z"/>
</svg>