<svg xmlns="http://www.w3.org/2000/svg" viewBox="0 -1000 1000 1000">
	<path fill="#000000" d="M212 -304H137V-374H212ZM278 -374H350V-304H278ZM212 -436H137V-506H212ZM278 -506H350V-436H278ZM278 -713V-748C278 -791 280 -806 289 -811C302 -820 300 -829 284 -828C254 -826 233 -826 203 -830C208 -811 212 -771 212 -713C152 -713 84 -716 54 -719V-645C84 -648 153 -651 212 -651V-570C130 -570 108 -571 76 -574C78 -565 80 -538 80 -516V-295C80 -274 78 -247 76 -237C108 -240 130 -241 212 -241V-167C146 -167 83 -169 48 -172V-100C83 -103 146 -104 212 -104C211 -29 207 34 202 73H286C282 35 279 -29 278 -104C340 -104 399 -102 433 -100V-172C399 -170 340 -168 278 -167V-241C353 -241 382 -240 413 -237C411 -247 410 -274 410 -295V-516C410 -538 412 -563 413 -574C382 -571 353 -570 278 -570V-651C337 -650 401 -647 429 -645V-719C401 -717 337 -714 278 -713ZM767 -297V-362C720 -358 703 -358 615 -358C527 -358 509 -359 465 -362V-297C510 -301 527 -302 615 -302C703 -302 720 -301 767 -297ZM766 -397V-461C719 -458 702 -457 614 -457C526 -457 509 -458 464 -461V-397C509 -401 526 -402 614 -402C702 -402 719 -401 766 -397ZM593 -555C525 -555 486 -556 446 -558V-499C491 -501 536 -502 622 -502C709 -502 752 -501 800 -499V-558C762 -556 725 -555 666 -555C656 -580 650 -601 644 -624L573 -607C580 -591 587 -573 593 -555ZM532 -126V-200H703V-126ZM703 -73V-49H768C766 -68 765 -91 765 -123V-188C765 -219 767 -243 769 -260C749 -257 690 -256 617 -256C544 -256 493 -258 467 -260C469 -240 470 -219 470 -188V-94C470 -69 469 -43 466 -21H532V-73ZM524 -646H843L838 -81C837 -19 827 -8 719 -22C754 11 770 37 780 69C895 43 911 16 912 -67L917 -716C888 -712 826 -709 768 -709H566C603 -768 613 -778 627 -786C643 -796 642 -802 628 -804C612 -806 564 -823 538 -837C538 -810 528 -777 508 -743C478 -691 423 -627 380 -598C404 -587 421 -574 437 -554C470 -584 501 -616 524 -646Z"/>
</svg>