<svg xmlns="http://www.w3.org/2000/svg" viewBox="0 -1000 1000 1000">
	<path fill="#000000" d="M815 -329H729V-373H815ZM700 -425C608 -425 569 -427 523 -431C525 -409 526 -380 526 -356V-255C526 -229 525 -198 523 -181C566 -186 607 -187 700 -187C792 -187 835 -185 876 -181C874 -199 873 -229 873 -254V-357C873 -381 874 -408 876 -431C834 -427 792 -425 700 -425ZM671 -236H588V-281H671ZM815 -236H729V-281H815ZM671 -329H588V-373H671ZM197 -316H143V-390H197ZM262 -390H319V-316H262ZM197 -446H143V-518H197ZM262 -518H319V-446H262ZM262 -705V-751C262 -781 266 -796 271 -801C288 -816 285 -823 267 -821C243 -819 215 -821 190 -827C193 -808 196 -762 197 -705C133 -706 88 -709 52 -714V-639C88 -644 133 -647 197 -648V-577C129 -577 102 -579 74 -582C77 -570 79 -538 79 -512V-326C79 -300 77 -266 74 -254C101 -258 129 -259 197 -259V-180C128 -180 79 -183 41 -189V-113C79 -119 128 -122 197 -122C197 -58 194 17 191 63H268C264 11 262 -57 262 -121C312 -121 351 -118 381 -113V-189C351 -184 313 -181 262 -180V-259C328 -259 356 -258 382 -254C380 -266 379 -298 379 -324V-512C379 -538 380 -570 382 -582C356 -578 328 -577 262 -577V-648C321 -647 363 -644 396 -639V-714C363 -709 321 -706 262 -705ZM622 -109V-20H565V-109ZM726 -109V-20H673V-109ZM833 -20H777V-109H833ZM502 -21C482 -21 457 -24 428 -29V45C471 39 528 35 694 35C861 35 917 39 961 45V-29C935 -25 914 -22 894 -22V-88C894 -109 895 -138 896 -162C855 -160 801 -159 697 -159C593 -159 541 -160 499 -162C501 -140 502 -109 502 -88ZM671 -678V-715H795C835 -715 867 -712 897 -707V-779C868 -773 835 -770 795 -770H671C672 -795 676 -807 682 -814C695 -829 693 -836 678 -833C656 -829 619 -833 599 -839C601 -816 602 -757 602 -678C495 -679 443 -682 422 -685C425 -627 427 -492 424 -346C421 -179 388 -88 304 -1C334 13 353 29 371 55C479 -107 500 -204 490 -623H606V-577C565 -575 536 -575 507 -578L511 -513C537 -519 567 -524 606 -529C607 -462 622 -452 676 -450C727 -448 779 -449 838 -453C867 -455 888 -474 912 -538C883 -540 865 -547 849 -564C835 -517 827 -509 802 -504C774 -499 737 -499 707 -502C674 -505 667 -512 667 -534C733 -540 780 -540 817 -536L812 -601C777 -593 732 -588 667 -582V-623H850L835 -589L904 -569L952 -685C930 -682 815 -678 671 -678Z"/>
</svg>