<svg xmlns="http://www.w3.org/2000/svg" viewBox="0 -1000 1000 1000">
	<path fill="#000000" d="M247 -116V-372C247 -426 249 -456 256 -490C198 -479 122 -481 63 -490V-406C87 -410 111 -410 167 -410V-107C138 -95 106 -70 58 -22C86 -4 108 18 129 44C203 -68 211 -72 296 -21C410 47 479 56 908 43C908 8 918 -32 940 -62C697 -27 440 -28 371 -63C309 -95 274 -110 247 -116ZM284 -638C256 -675 204 -748 177 -790L100 -740C139 -699 176 -643 201 -588ZM767 -216H458V-349H767ZM572 -706V-596C459 -597 378 -600 312 -605V-519C380 -524 459 -527 572 -528V-415C461 -416 412 -419 376 -423C381 -398 383 -366 383 -341V-174C383 -142 381 -121 376 -86H458V-151H767V-104H851C846 -136 844 -159 844 -191V-341C844 -369 846 -400 850 -423C813 -418 765 -416 649 -415V-528C766 -528 848 -525 918 -520V-605C849 -600 767 -597 649 -596V-716C690 -722 734 -728 778 -735C814 -740 849 -739 865 -735C878 -732 882 -738 865 -756C851 -771 825 -803 814 -831C778 -815 698 -794 603 -777C524 -763 401 -756 347 -759C372 -737 382 -713 384 -686C431 -689 496 -696 572 -706Z"/>
</svg>