<svg xmlns="http://www.w3.org/2000/svg" viewBox="0 -1000 1000 1000">
	<path fill="#000000" d="M936 -784C894 -781 836 -778 774 -778C722 -778 659 -780 612 -783C616 -756 620 -684 620 -639V-154C620 -59 617 -3 609 74H701C695 2 693 -58 693 -154V-707H835L758 -457C827 -395 858 -345 858 -271C858 -208 822 -188 714 -211C737 -180 751 -138 753 -105C877 -119 942 -170 942 -256C942 -333 904 -410 840 -469ZM500 -456V-535C447 -530 403 -528 339 -528C279 -528 235 -529 182 -535V-456C234 -460 275 -462 339 -462C406 -462 448 -460 500 -456ZM338 -712C402 -664 476 -605 541 -543L585 -618C524 -669 455 -716 381 -763C395 -776 410 -787 417 -789C431 -794 427 -801 412 -804C388 -808 343 -823 313 -839C305 -810 292 -781 270 -749C191 -635 131 -585 34 -527C52 -512 74 -487 92 -460C184 -534 262 -612 338 -712ZM448 -69V1H532C525 -36 521 -95 521 -137V-273C521 -309 523 -349 526 -375C484 -371 437 -369 337 -369C234 -369 189 -371 147 -375C150 -349 151 -309 151 -273V-124C151 -81 147 -23 140 14H224V-69ZM224 -135V-303H448V-135Z"/>
</svg>