<svg xmlns="http://www.w3.org/2000/svg" viewBox="0 -1000 1000 1000">
	<path fill="#000000" d="M205 -43H441V21H513C511 -21 510 -59 510 -104V-278C510 -317 511 -336 513 -353C483 -350 448 -349 321 -349C195 -349 159 -350 128 -353C131 -332 132 -313 132 -278V-96C132 -51 131 -17 127 29H205ZM441 -164V-104H205V-164ZM205 -221V-291H441V-221ZM942 -240C942 -297 909 -379 815 -459L936 -785C893 -781 833 -779 770 -779C717 -779 653 -780 605 -784C609 -756 613 -683 613 -637V-148C613 -51 611 -11 602 67H696C689 -6 688 -50 688 -148V-711H831L734 -447C826 -367 859 -302 859 -254C859 -185 840 -171 716 -196C735 -160 743 -124 744 -90C898 -102 942 -138 942 -240ZM211 -538C189 -579 160 -646 146 -693L78 -659C97 -626 125 -560 139 -500ZM566 -651C575 -658 573 -664 562 -666C544 -669 511 -681 489 -695C473 -646 446 -587 415 -538C434 -536 461 -525 477 -512C539 -624 553 -640 566 -651ZM348 -723V-467H290V-723ZM225 -723V-467C154 -467 101 -468 66 -472V-402C103 -406 159 -408 321 -408C482 -408 538 -406 574 -402V-472C541 -469 486 -467 413 -467V-723C482 -723 523 -722 555 -718V-788C519 -784 478 -782 327 -782C177 -782 133 -784 98 -788V-718C128 -722 165 -723 225 -723Z"/>
</svg>