<svg xmlns="http://www.w3.org/2000/svg" viewBox="0 -1000 1000 1000">
	<path fill="#000000" d="M197 -229L178 -112C219 -117 257 -119 290 -119H483C484 -40 461 -28 343 -39C361 1 364 15 366 42C492 37 537 10 544 -19C552 -52 561 -110 568 -186C523 -180 472 -176 441 -176H259L270 -229H448C539 -229 586 -226 624 -220V-297C585 -291 501 -288 345 -288C120 -288 84 -291 53 -297V-220C79 -224 138 -228 197 -229ZM563 -326V-392C508 -387 452 -385 351 -385C249 -385 193 -387 138 -392V-323C193 -328 249 -330 351 -330C452 -330 520 -329 563 -326ZM933 -195C933 -259 900 -343 823 -431L925 -786C890 -782 850 -780 782 -780C714 -780 678 -782 640 -786C644 -750 648 -694 648 -628V-156C648 -71 644 10 639 77H718V-712H825L755 -415C816 -355 851 -271 851 -206C851 -133 829 -107 741 -126C771 -84 785 -49 789 -17C906 -55 933 -106 933 -195ZM275 -431V-484C263 -482 234 -482 205 -482C178 -482 150 -483 136 -484V-431C151 -433 178 -434 205 -434C234 -434 262 -433 275 -431ZM560 -431V-484C548 -482 519 -482 490 -482C463 -482 435 -483 421 -484V-431C436 -433 463 -434 490 -434C518 -434 547 -433 560 -431ZM276 -519V-575C268 -573 245 -573 223 -573C202 -573 181 -574 172 -575V-519C183 -521 203 -522 223 -522C244 -522 267 -521 276 -519ZM522 -519V-575C513 -573 491 -573 469 -573C448 -573 427 -574 417 -575V-519C428 -521 449 -522 469 -522C490 -522 512 -521 522 -519ZM313 -727V-672C173 -672 125 -674 78 -678V-527H146V-618H313V-548C313 -502 313 -470 311 -426H384C382 -468 382 -500 382 -548V-618H552V-541H617V-678C570 -674 525 -672 382 -672V-727C474 -726 531 -723 585 -719V-791C525 -785 471 -784 350 -784C238 -784 174 -786 115 -792V-719C166 -723 223 -726 313 -727Z"/>
</svg>