<svg xmlns="http://www.w3.org/2000/svg" viewBox="0 -1000 1000 1000">
	<path fill="#000000" d="M162 -159L90 -166C85 -101 74 -64 54 -25L135 -12C143 -53 151 -100 162 -159ZM267 -34C265 -75 262 -115 257 -161H191C203 -116 205 -72 199 -30ZM368 -56C366 -85 361 -130 356 -169L290 -166C300 -116 302 -86 302 -50ZM471 -79C462 -117 453 -155 445 -189L381 -176C396 -141 400 -127 406 -68ZM944 -203C944 -281 924 -326 835 -424L929 -790C889 -785 854 -783 785 -783C716 -783 676 -785 638 -790C642 -766 645 -724 645 -687V-124C645 -41 643 7 637 77H720V-716H831L767 -401C844 -315 862 -271 862 -214C862 -155 827 -132 740 -144C768 -111 784 -74 789 -40C904 -63 944 -101 944 -203ZM200 -396C201 -411 203 -414 210 -418C225 -427 223 -435 205 -435C175 -434 151 -435 126 -439C132 -418 133 -402 133 -352V-217C175 -222 222 -225 281 -225H512C513 -143 508 -83 500 -58C490 -29 434 -15 369 -30C396 8 406 27 414 60C540 42 577 5 580 -57C583 -105 584 -160 585 -207C586 -239 588 -261 592 -291C545 -287 518 -285 443 -285H200V-342C433 -342 502 -340 550 -334V-404C502 -400 435 -397 200 -396ZM362 -529V-598C468 -597 519 -594 548 -590V-664C519 -660 471 -657 362 -656V-716C460 -716 528 -713 582 -708V-785C523 -780 447 -777 334 -777C221 -777 154 -780 92 -785V-708C144 -714 189 -716 295 -716V-529H206V-622C206 -634 207 -639 219 -644C235 -651 233 -659 217 -659C187 -658 161 -659 136 -663C140 -641 142 -612 142 -567V-530C109 -531 89 -533 65 -537V-464C102 -469 161 -472 322 -472C521 -472 563 -469 594 -464V-537C567 -532 506 -529 362 -529Z"/>
</svg>