<svg xmlns="http://www.w3.org/2000/svg" viewBox="0 -1000 1000 1000">
	<path fill="#000000" d="M476 -560H199V-603H476ZM476 -657H199V-702H476ZM953 -188C953 -254 894 -360 827 -423L935 -752C899 -748 845 -746 776 -746C706 -746 670 -748 631 -752C636 -716 639 -653 639 -587V-155C639 -70 636 12 630 78H713V-678H835L755 -404C818 -350 875 -262 875 -197C875 -131 851 -108 745 -115C776 -76 784 -48 787 -16C908 -49 953 -99 953 -188ZM357 -249V-309H537C536 -265 536 -239 533 -218C530 -197 524 -190 502 -192V-256C469 -252 419 -250 357 -249ZM199 -463V-506H431C468 -506 509 -505 546 -502C542 -529 541 -563 541 -604V-657C541 -698 543 -733 546 -761C509 -758 480 -757 432 -757H337C348 -798 353 -810 360 -813C370 -819 370 -826 360 -827C320 -831 300 -835 274 -843C276 -817 275 -795 268 -757C213 -757 161 -758 129 -761C131 -733 132 -697 132 -657V-406C132 -364 131 -328 129 -301C156 -306 225 -308 293 -309V-249C176 -249 128 -250 80 -256V-186C118 -190 162 -191 255 -191C211 -119 131 -71 40 -46C65 -19 74 -3 82 27C178 -20 245 -79 293 -156V-23C293 2 291 31 288 60H361C359 33 357 2 357 -23V-147C401 -101 438 -57 492 13L549 -36C492 -95 442 -139 375 -190C421 -190 460 -189 488 -188C497 -166 500 -150 501 -120C541 -124 563 -132 578 -149C591 -163 595 -177 598 -280C599 -314 601 -341 603 -368C578 -365 544 -364 493 -364H199V-408H490C535 -408 577 -406 617 -400V-470C577 -465 535 -463 490 -463Z"/>
</svg>