<svg xmlns="http://www.w3.org/2000/svg" viewBox="0 -1000 1000 1000">
	<path fill="#000000" d="M213 -1H446V31H525C519 2 518 -24 518 -55V-138C518 -165 519 -178 523 -190C491 -188 456 -187 330 -187C203 -187 173 -188 137 -190C140 -175 142 -154 142 -138V-31C142 0 141 22 134 55H213ZM446 -57H213V-130H446ZM936 -211C936 -278 904 -351 814 -445L911 -772C873 -770 826 -769 757 -769C688 -769 641 -770 603 -772C606 -753 608 -712 608 -675V-149C608 -67 606 -7 602 80H685V-702H813L740 -410C812 -362 853 -294 853 -220C853 -168 824 -140 732 -152C752 -122 767 -76 768 -45C908 -84 936 -111 936 -211ZM212 -704C142 -704 128 -704 83 -713V-639C114 -644 150 -647 287 -648V-583C214 -584 165 -587 120 -593V-517C164 -523 214 -526 287 -527V-462C208 -463 153 -466 104 -472V-396C152 -402 207 -405 287 -406V-300H241C226 -330 212 -362 202 -387L136 -362C147 -342 157 -322 166 -301C121 -302 92 -305 67 -309V-235C102 -241 179 -244 323 -244C514 -244 561 -241 590 -235V-309C568 -305 518 -302 469 -300C496 -340 509 -356 516 -359C531 -365 529 -369 520 -372C490 -380 471 -388 447 -400C437 -366 426 -338 407 -300H359V-406C453 -406 505 -403 568 -396V-472C510 -465 453 -462 359 -462V-527C438 -526 490 -523 536 -517V-593C490 -587 438 -584 359 -583V-648C512 -648 539 -645 564 -639V-713C533 -708 456 -704 401 -704C447 -760 454 -767 465 -771C481 -778 479 -783 468 -786C435 -795 412 -802 382 -815C374 -775 364 -747 345 -704H227L283 -736C268 -759 252 -784 238 -809L169 -775C187 -753 199 -733 212 -704Z"/>
</svg>